<?xml version="1.0" encoding="UTF-8"?>
<svg width="32px" height="32px" viewBox="0 0 32 32" version="1.1" xmlns="http://www.w3.org/2000/svg" xmlns:xlink="http://www.w3.org/1999/xlink">
    <!-- Generator: Sketch 52.6 (67491) - http://www.bohemiancoding.com/sketch -->
    <title>声纹识别-32px</title>
    <desc>Created with Sketch.</desc>
    <g id="声纹识别-32px" stroke="none" stroke-width="1" fill="none" fill-rule="evenodd">
        <rect id="Rectangle-Copy" fill="#444444" opacity="0" x="0" y="0" width="32" height="32"></rect>
        <g id="Group" transform="translate(1.000000, 3.000000)" fill="#00A4FF">
            <g id="Group-15">
                <rect id="Rectangle-78" x="2" y="1" width="27" height="2"></rect>
                <rect id="Rectangle-78-Copy" x="1" y="23" width="28" height="2"></rect>
                <rect id="Rectangle-79" x="1" y="8" width="2" height="17"></rect>
                <rect id="Rectangle-79-Copy" x="27" y="1" width="2" height="17"></rect>
                <circle id="Oval-30" cx="2" cy="2" r="2"></circle>
                <circle id="Oval-30-Copy" cx="28" cy="24" r="2"></circle>
            </g>
        </g>
        <g id="Group-2" transform="translate(8.000000, 9.000000)" fill="#00A4FF">
            <path d="M5,10 L9,10 C11.761,10 14,12.238 14,15 L12,15 C12,13.346 10.654,12 9,12 L5,12 C3.346,12 2,13.346 2,15 L0,15 C0,12.239 2.239,10 5,10 Z" id="Combined-Shape"></path>
            <path d="M3,5 C3,2.791 4.791,1 7,1 C9.209,1 11,2.791 11,5 C11,7.209 9.209,9 7,9 C4.791,9 3,7.209 3,5 Z M7,7 C8.105,7 9,6.105 9,5 C9,3.895 8.105,3 7,3 C5.895,3 5,3.895 5,5 C5,6.105 5.895,7 7,7 Z" id="Combined-Shape"></path>
            <path d="M13.3277969,9.73552499 L11.9728018,8.26447501 C12.8745651,7.43385402 13.3960657,6.26985495 13.3960657,5.01977787 C13.3960657,3.75294596 12.8603598,2.57473895 11.9373666,1.74279282 L13.2764093,0.25720718 C14.6158554,1.46452594 15.3960657,3.18048475 15.3960657,5.01977787 C15.3960657,6.8346908 14.6364899,8.53007805 13.3277969,9.73552499 Z" id="Oval-33" fill-rule="nonzero"></path>
        </g>
    </g>
</svg>