<svg xmlns="http://www.w3.org/2000/svg" width="32" height="32" viewBox="0 0 32 32">
  <title>画板 4</title>
  <path d="M26.621,21.824a1.213,1.213,0,1,0-1.212,1.212A1.212,1.212,0,0,0,26.621,21.824Zm3.763,2.548c-.024-.621-.059-1.294-.1-2.025-.2-3.292-1.177-5.648-2.906-7.008A6.478,6.478,0,0,0,23.7,14.022v0l-.3,0c-.187,0-.372-.012-.565-.007h-.031c-.032,0-.256.007-.63.042-.12.011-.242.023-.364.038A31.71,31.71,0,0,0,16,15.423v1.89c.851-.282,1.6-.5,2.3-.685a7.79,7.79,0,0,0-.586,2.79,8.362,8.362,0,0,0,1.86,5.772,12.667,12.667,0,0,0,1.683-.852,6.207,6.207,0,0,1-1.752-4.854c.059-1.59.647-3.289,1.825-3.515.078-.013.155-.025.227-.035.125-.02.246-.036.368-.052.182-.022.343-.041.469-.053.229-.018.454-.032.669-.033h.055a4.976,4.976,0,0,1,3.145.953c1.309,1.029,2.058,2.95,2.225,5.707.05.856.1,1.725.122,2.555a12.133,12.133,0,0,1-5.328.1,12.181,12.181,0,0,1-2.052,1.29l.01,0v3.8H19.451V27.173l-.316.105c-.1.034-.192.064-.288.1l-.574.19A7.9,7.9,0,0,1,16,28.218V30a10.741,10.741,0,0,0,1.658-.411V32h5.379V26.888a13.968,13.968,0,0,0,5.6-.04c-.022,1.554-.173,2.773-.568,3.193a.621.621,0,0,1-.515.166.864.864,0,0,1-.928-.9v-.9H24.829v.9A2.645,2.645,0,0,0,27.55,32a2.388,2.388,0,0,0,1.819-.73c.745-.791,1.068-2.143,1.059-4.972A11.291,11.291,0,0,0,32,25.533V23.4A8.52,8.52,0,0,1,30.384,24.372Z" style="fill: #fff"/>
  <g>
    <path d="M3,19.762C5.149,21.11,8.824,22,13,22c.338,0,.669-.01,1-.021V19.985Q13.506,20,13,20C7.477,20,3,18.657,3,17H3V10.762C5.149,12.11,8.824,13,13,13s7.851-.89,10-2.238V12h2V8c0-2.761-5.373-5-12-5S1,5.239,1,8V26H3ZM13,5c5.523,0,10,1.343,10,3s-4.477,3-10,3a24.719,24.719,0,0,1-7.453-1C3.963,9.469,3,8.768,3,8,3,6.343,7.477,5,13,5Z" style="fill: #fff"/>
    <path d="M14,28.985Q13.506,29,13,29C7.477,29,3,27.657,3,26H1c0,2.761,5.373,5,12,5,.338,0,.669-.01,1-.021Z" style="fill: #fff"/>
  </g>
</svg>
