<?xml version="1.0" encoding="utf-8"?>
<!-- Generator: Adobe Illustrator 19.0.0, SVG Export Plug-In . SVG Version: 6.00 Build 0)  -->
<svg version="1.1" id="svgwrapper_svg" xmlns="http://www.w3.org/2000/svg" xmlns:xlink="http://www.w3.org/1999/xlink" x="0px"
	 y="0px" width="830px" height="380px" viewBox="117 230.89 830 380" style="enable-background:new 117 230.89 830 380;"
	 xml:space="preserve">
<style type="text/css">
	.st0{display:none;fill:none;stroke:#999999;}
	.st1{fill-opacity:0;}
	.st2{fill:none;stroke:#BABABA;stroke-width:1.017;stroke-dasharray:5.0851;}
	.st3{fill:#EAEBEC;}
	.st4{enable-background:new    ;}
	.st5{fill:#444444;}
	.st6{fill:none;stroke:#888888;}
	.st7{fill:#888888;}
	.st8{fill:none;stroke:#FF0000;stroke-width:15;stroke-opacity:0;}
	.st9{fill:none;}
	.st10{opacity:0.6;fill:#BBBBBB;enable-background:new    ;}
	.st11{fill:#FFFFFF;stroke:#E5E5E5;}
	.st12{fill:#00A4FF;}
	.st13{fill:#333333;}
	.st14{fill:#878787;}
	.st15{opacity:0.6;enable-background:new    ;}
	.st16{fill:#BBBBBB;}
	.st17{fill:#BABABA;}
	.st18{fill:none;stroke:#878787;stroke-miterlimit:10;}
	.st19{fill:#CEE3FF;}
</style>
<path class="st0" d="M1465,1401.566l16,2.596"/>
<rect x="328.349" y="244.259" class="st1" width="255.482" height="343.404"/>
<path class="st2" d="M328.349,237.893h255.482v366.492H328.349V237.893"/>
<rect x="397.035" y="260.495" class="st3" width="175.167" height="95.667"/>
<g transform="translate(10 10)">
	<g class="st4">
		<path class="st5" d="M397.791,269.665l-0.28,0.771h2.912v0.854c-0.308,0.915-0.817,1.708-1.526,2.38
			c0.663,0.28,1.293,0.588,1.89,0.924l-0.546,0.813c-0.644-0.383-1.354-0.747-2.128-1.092c-0.943,0.644-2.109,1.162-3.5,1.554
			l-0.49-0.868c1.167-0.308,2.146-0.69,2.94-1.147l-1.946-0.784c0.392-0.645,0.709-1.219,0.952-1.723h-1.638v-0.909h2.058
			c0.233-0.653,0.34-0.947,0.322-0.883L397.791,269.665z M394.473,265.745h2.73v-2.674h0.938v2.674h2.548v0.882h-2.548v0.154
			c0.765,0.383,1.54,0.812,2.324,1.288l-0.518,0.784c-0.7-0.561-1.302-1.009-1.806-1.345v1.82h-0.938v-2.66
			c-0.458,1.092-1.293,2.049-2.506,2.87l-0.49-0.812c1.083-0.635,1.834-1.335,2.254-2.101h-1.988V265.745z M395.537,263.365
			c0.364,0.569,0.663,1.144,0.896,1.722l-0.784,0.364c-0.289-0.663-0.606-1.265-0.952-1.806L395.537,263.365z M399.472,271.344
			h-2.366c-0.233,0.477-0.485,0.92-0.756,1.33c0.56,0.196,1.087,0.393,1.582,0.588C398.632,272.694,399.145,272.054,399.472,271.344
			z M400.563,263.659c-0.289,0.635-0.648,1.241-1.078,1.82l-0.756-0.406c0.448-0.635,0.793-1.236,1.036-1.806L400.563,263.659z
			 M402.076,268.419c-0.243,0.616-0.518,1.19-0.826,1.723l-0.63-0.771c0.831-1.577,1.386-3.691,1.666-6.342l0.98,0.168
			c-0.065,0.579-0.168,1.246-0.308,2.002h3.696v0.966h-0.91c-0.056,2.333-0.471,4.331-1.246,5.992
			c0.737,1.231,1.601,2.18,2.59,2.842l-0.574,0.854c-0.961-0.673-1.797-1.592-2.506-2.759c-0.682,1.12-1.55,2.059-2.604,2.814
			l-0.532-0.854c1.092-0.756,1.955-1.73,2.59-2.926C402.91,271.028,402.449,269.791,402.076,268.419z M402.747,266.165
			c-0.093,0.336-0.159,0.583-0.196,0.742c0.345,1.587,0.802,2.981,1.372,4.186c0.541-1.418,0.84-3.061,0.896-4.928H402.747z"/>
		<path class="st5" d="M408.641,275.769l-0.21-0.952c0.401,0.046,0.756,0.069,1.064,0.069c0.354,0,0.532-0.205,0.532-0.615v-3.416
			c-0.654,0.242-1.204,0.434-1.652,0.573l-0.252-0.979c0.635-0.149,1.27-0.341,1.904-0.574v-3.164h-1.68v-0.966h1.68v-2.646h0.98
			v2.646h1.344v0.966h-1.344v2.758c0.448-0.195,0.882-0.405,1.302-0.63v0.994c-0.29,0.149-0.723,0.354-1.302,0.616v4.074
			c0,0.83-0.392,1.246-1.176,1.246H408.641z M414.017,269.581c-0.168,2.39-0.714,4.494-1.638,6.314l-0.784-0.7
			c0.989-1.849,1.493-4.247,1.512-7.196v-4.382h7.378v3.402h-2.632v1.651h2.996v0.91h-2.996v1.722h2.352v4.593h-0.938v-0.687h-3.794
			v0.687h-0.938v-4.593h2.338v-1.722h-2.856L414.017,269.581L414.017,269.581z M416.873,267.019h-2.786l-0.014,1.651h2.8
			L416.873,267.019L416.873,267.019z M419.506,264.554h-5.418v1.555h5.418V264.554z M415.473,274.313h3.794v-2.114h-3.794V274.313z"
			/>
		<path class="st5" d="M429.012,262.945c0.261,0.42,0.499,0.873,0.714,1.357h5.04v0.98h-10.374v3.192
			c-0.056,3.117-0.527,5.591-1.414,7.42l-0.826-0.742c0.774-1.605,1.176-3.831,1.204-6.678v-4.173h5.264
			c-0.215-0.41-0.458-0.798-0.728-1.161L429.012,262.945z M429.068,265.899c-0.084,0.261-0.21,0.635-0.378,1.12h5.46v0.882h-5.81
			c-0.392,0.896-0.812,1.693-1.26,2.394h2.618v-1.693h1.008v1.693h3.122v0.91h-3.122v1.568h4.186v0.924h-4.186v2.212h-1.008v-2.212
			h-5.054v-0.924h5.054v-1.568h-3.668l-0.21-0.868c0.541-0.672,1.026-1.483,1.456-2.436h-2.114v-0.882h2.478
			c0.159-0.439,0.313-0.887,0.462-1.345L429.068,265.899z"/>
		<path class="st5" d="M438.658,267.089v1.162c-0.019,2.94-0.598,5.455-1.736,7.546l-0.728-0.658c0.97-1.782,1.46-4.078,1.47-6.888
			v-4.634h10.192v3.472L438.658,267.089L438.658,267.089z M446.875,264.554h-8.218v1.624h8.218V264.554z M439.092,270.701h9.492
			v0.924h-5.362c-0.84,1.372-1.587,2.356-2.24,2.954c1.867-0.14,3.682-0.341,5.446-0.602l-1.218-1.4l0.742-0.462
			c1.167,1.241,2.053,2.301,2.66,3.178l-0.812,0.574c-0.224-0.364-0.476-0.729-0.756-1.092c-2.221,0.308-4.653,0.546-7.294,0.714
			l-0.224-0.854l0.21-0.098c0.606-0.354,1.414-1.325,2.422-2.912h-3.066V270.701z M440.072,268.419h7.602v0.896h-7.602V268.419z"/>
	</g>
</g>
<rect x="399.035" y="372.399" class="st3" width="175" height="100"/>
<g transform="translate(10 10)">
	<g class="st4">
		<path class="st5" d="M394.399,375.849c0.271,0.448,0.518,0.934,0.742,1.456h5.124v0.979h-10.374v3.122
			c-0.056,3.09-0.537,5.554-1.442,7.393l-0.826-0.742c0.793-1.615,1.204-3.831,1.232-6.65v-4.102h5.194
			c-0.224-0.448-0.476-0.868-0.756-1.26L394.399,375.849z M390.158,387.218h5.838c0.868-1.997,1.624-4.457,2.268-7.378l0.994,0.266
			c-0.607,2.726-1.33,5.096-2.17,7.112h2.954v0.979h-9.884V387.218L390.158,387.218z M391.683,380.525
			c0.551,1.466,1.055,3.178,1.512,5.138l-0.952,0.238c-0.392-1.82-0.873-3.519-1.442-5.096L391.683,380.525z M394.386,379.531
			c0.466,1.521,0.9,3.29,1.302,5.307l-0.966,0.224c-0.308-1.82-0.714-3.57-1.218-5.25L394.386,379.531z"/>
		<path class="st5" d="M403.961,384.221c-0.159,1.801-0.681,3.285-1.568,4.452l-0.77-0.687c0.896-1.25,1.358-2.832,1.386-4.746
			v-6.72h10.43v10.486c0,0.979-0.49,1.47-1.47,1.47h-1.61l-0.266-0.994c0.747,0.037,1.265,0.056,1.554,0.056
			c0.513,0,0.77-0.294,0.77-0.882v-2.436h-3.808v4.102h-1.036v-4.102h-3.612L403.961,384.221L403.961,384.221z M407.574,377.501
			h-3.556v2.408h3.556V377.501z M404.017,380.847v2.45h3.556v-2.45H404.017z M412.417,379.909v-2.408h-3.808v2.408H412.417z
			 M412.417,383.298v-2.45h-3.808v2.45H412.417z"/>
		<path class="st5" d="M418.158,379.993v1.162c-0.019,2.94-0.598,5.455-1.736,7.546l-0.728-0.658c0.97-1.782,1.46-4.078,1.47-6.888
			v-4.634h10.192v3.472L418.158,379.993L418.158,379.993z M426.375,377.459h-8.218v1.624h8.218V377.459z M418.592,383.605h9.492
			v0.924h-5.362c-0.84,1.372-1.587,2.356-2.24,2.954c1.867-0.14,3.682-0.341,5.446-0.602l-1.218-1.4l0.742-0.462
			c1.167,1.241,2.053,2.301,2.66,3.178l-0.812,0.574c-0.224-0.364-0.476-0.729-0.756-1.092c-2.221,0.308-4.653,0.546-7.294,0.714
			l-0.224-0.854l0.21-0.098c0.606-0.354,1.414-1.325,2.422-2.912h-3.066V383.605z M419.572,381.323h7.602v0.896h-7.602V381.323z"/>
	</g>
</g>
<g id="GrayRectGroup8" transform="translate(288.0003662109375,264.1057596206665)">
	<rect x="111.035" y="223.495" class="st3" width="175" height="105"/>
	<g transform="translate(10 10)">
		<g class="st4">
			<path class="st5" d="M111.105,227.499h1.288l2.198,8.386h0.056l2.282-8.386h1.246l2.268,8.386h0.056l2.198-8.386h1.288
				l-2.87,9.996h-1.274l-2.268-8.33h-0.042l-2.282,8.33h-1.274L111.105,227.499z"/>
			<path class="st5" d="M130.537,231.237c0.532,0.7,0.812,1.685,0.84,2.954h-5.712c0.056,0.821,0.275,1.451,0.658,1.89
				c0.392,0.448,0.933,0.672,1.624,0.672c0.588,0,1.068-0.149,1.442-0.448c0.299-0.242,0.541-0.62,0.728-1.134h1.12
				c-0.168,0.691-0.495,1.26-0.98,1.708c-0.616,0.542-1.386,0.813-2.31,0.813c-1.036,0-1.867-0.341-2.492-1.022
				c-0.635-0.69-0.952-1.624-0.952-2.8c0-1.083,0.303-1.974,0.91-2.674c0.616-0.756,1.447-1.134,2.492-1.134
				C129.072,230.061,129.949,230.453,130.537,231.237z M126.379,231.629c-0.383,0.411-0.612,0.976-0.686,1.694h4.522
				c-0.14-1.549-0.901-2.324-2.282-2.324C127.289,230.999,126.771,231.209,126.379,231.629z"/>
			<path class="st5" d="M132.693,227.303h1.12v4.284c0.56-1.017,1.358-1.525,2.394-1.525s1.843,0.387,2.422,1.161
				c0.541,0.71,0.812,1.587,0.812,2.633c0,1.082-0.271,1.979-0.812,2.688c-0.607,0.766-1.433,1.148-2.478,1.148
				c-1.111,0-1.914-0.462-2.408-1.387v1.19h-1.05V227.303L132.693,227.303z M134.387,231.769c-0.411,0.504-0.616,1.185-0.616,2.044
				v0.14c0,0.812,0.182,1.47,0.546,1.974c0.392,0.561,0.957,0.841,1.694,0.841c0.774,0,1.363-0.285,1.764-0.854
				c0.345-0.522,0.518-1.209,0.518-2.058c0-0.868-0.182-1.545-0.546-2.03c-0.401-0.561-0.994-0.84-1.778-0.84
				C135.297,230.985,134.77,231.246,134.387,231.769z"/>
			<path class="st5" d="M143.151,230.089v1.162c-0.019,2.94-0.598,5.455-1.736,7.546l-0.728-0.658c0.97-1.782,1.46-4.078,1.47-6.888
				v-4.634h10.192v3.472H143.151z M151.369,227.555h-8.218v1.624h8.218V227.555z M143.585,233.701h9.492v0.924h-5.362
				c-0.84,1.372-1.587,2.356-2.24,2.954c1.867-0.14,3.682-0.341,5.446-0.602l-1.218-1.4l0.742-0.462
				c1.167,1.241,2.053,2.301,2.66,3.178l-0.812,0.574c-0.224-0.364-0.476-0.729-0.756-1.092c-2.221,0.308-4.653,0.546-7.294,0.714
				l-0.224-0.854l0.21-0.098c0.606-0.354,1.414-1.325,2.422-2.912h-3.066V233.701L143.585,233.701z M144.565,231.419h7.602v0.896
				h-7.602V231.419z"/>
		</g>
	</g>
</g>
<g>
	<path class="st6" d="M208.831,545.899h33"/>
	<polygon class="st7" points="237.748,550.399 242.748,545.899 237.748,541.399 	"/>
	<polygon class="st7" points="213.331,541.399 208.331,545.899 213.331,550.399 	"/>
	<path class="st8" d="M208.831,545.899h33"/>
</g>
<g>
	<path class="st6" d="M361.702,545.899h33"/>
	<polygon class="st7" points="390.619,550.399 395.619,545.899 390.619,541.399 	"/>
	<polygon class="st7" points="366.202,541.399 361.202,545.899 366.202,550.399 	"/>
	<path class="st8" d="M361.702,545.899h33"/>
</g>
<path class="st6" d="M475.535,372.399v-12.904"/>
<polygon class="st7" points="480.035,363.245 475.535,358.245 471.035,363.245 "/>
<path class="st8" d="M475.535,372.399v-12.904"/>
<path class="st6" d="M486.535,355.495v12.904"/>
<polygon class="st7" points="482.035,364.649 486.535,369.649 491.035,364.649 "/>
<path class="st8" d="M486.535,355.495v12.904"/>
<path class="st6" d="M477.535,487.399v-12.904"/>
<polygon class="st7" points="482.035,478.245 477.535,473.245 473.035,478.245 "/>
<path class="st8" d="M477.535,487.399v-12.904"/>
<path class="st6" d="M488.535,471.495v12.904"/>
<polygon class="st7" points="484.035,480.649 488.535,485.649 493.035,480.649 "/>
<path class="st8" d="M488.535,471.495v12.904"/>
<g id="Rects5" transform="translate(294.0003662109375,181.00000381469727)">
	<rect x="109.035" y="222.495" class="st9" width="164" height="62"/>
	<rect x="121.035" y="234.495" class="st10" width="152" height="50"/>
	<rect x="119.035" y="232.495" class="st11" width="152" height="50"/>
	<rect x="116.035" y="229.495" class="st10" width="152" height="50"/>
	<rect x="114.035" y="227.495" class="st11" width="152" height="50"/>
	<rect x="111.035" y="224.495" class="st10" width="152" height="50"/>
	<rect x="109.035" y="222.495" class="st11" width="152" height="50"/>
	<g transform="translate(20 9)">
		<g>
			<path class="st12" d="M125.035,251.495c-7.18,0.008-13.007-5.805-13.015-12.985c-0.008-7.18,5.805-13.007,12.985-13.015
				c6.413-0.008,11.874,4.663,12.86,11h2c-1.105-8.21-8.656-13.971-16.866-12.866s-13.971,8.656-12.866,16.866
				c1.105,8.21,8.656,13.971,16.866,12.866c6.697-0.901,11.965-6.169,12.866-12.866h-2
				C136.88,246.821,131.437,251.488,125.035,251.495z M132.035,234.495l-7-4l-7,4v8l3.2,1.83c0.185-0.645,0.529-1.233,1-1.71
				l-2.2-1.28v-3.7l5,2.86l5-2.86v3.7l-4.14,2.36c-0.997-0.475-2.191-0.052-2.666,0.946c-0.475,0.997-0.052,2.191,0.946,2.666
				c0.997,0.475,2.191,0.052,2.666-0.946c0.129-0.27,0.195-0.566,0.194-0.866v-0.14l5-2.86V234.495z M125.035,238.195l-4.72-2.7
				l4.72-2.7l4.72,2.7L125.035,238.195z"/>
		</g>
		<g class="st4">
			<path class="st5" d="M151.777,236.775h12.558v1.008h-6.72c-1.27,2.613-2.394,4.452-3.374,5.516
				c2.511-0.14,5.021-0.378,7.532-0.714c-0.504-0.896-1.064-1.82-1.68-2.771l0.812-0.504c1.269,1.903,2.263,3.588,2.982,5.054
				l-0.896,0.63c-0.243-0.522-0.485-1.018-0.728-1.484c-2.697,0.346-5.796,0.635-9.296,0.868l-0.266-1.021
				c0.056-0.019,0.135-0.052,0.238-0.099c0.905-0.681,2.091-2.506,3.556-5.474h-4.718L151.777,236.775L151.777,236.775z
				 M153.121,232.869h9.968v0.979h-9.968V232.869z"/>
			<path class="st5" d="M167.569,240.093c-0.084,1.951-0.416,3.561-0.994,4.83l-0.756-0.7c0.55-1.25,0.835-2.864,0.854-4.844v-6.72
				h4.088v10.906c0,0.858-0.392,1.288-1.176,1.288h-1.12l-0.238-0.896c0.522,0.037,0.882,0.056,1.078,0.056
				c0.354,0,0.532-0.257,0.532-0.77v-3.15L167.569,240.093L167.569,240.093z M169.837,235.935v-2.366h-2.254v2.366H169.837z
				 M167.583,236.844v2.339h2.254v-2.339H167.583z M172.889,238.707v6.202h-0.952v-12.264h5.67c0,1.735-0.084,2.884-0.252,3.443
				c-0.168,0.579-0.69,0.868-1.568,0.868h-1.134l-0.266-0.868l0.938,0.015c0.308,0,0.555-0.023,0.742-0.07
				c0.168-0.056,0.294-0.191,0.378-0.406c0.093-0.289,0.154-0.975,0.182-2.058h-3.738v4.242h4.76v0.854
				c-0.261,1.438-0.719,2.665-1.372,3.682c0.616,0.607,1.358,1.157,2.226,1.652l-0.504,0.854c-0.877-0.505-1.643-1.078-2.296-1.723
				c-0.616,0.719-1.339,1.298-2.17,1.736l-0.532-0.813c0.793-0.429,1.47-0.979,2.03-1.651c-0.896-1.092-1.498-2.324-1.806-3.696
				h-0.336L172.889,238.707L172.889,238.707z M174.093,238.707c0.289,1.073,0.793,2.044,1.512,2.912
				c0.513-0.831,0.896-1.801,1.148-2.912H174.093z"/>
			<path class="st5" d="M184.873,232.155c-0.14,0.336-0.317,0.69-0.532,1.063h6.104v0.813c-0.896,1.036-1.988,1.918-3.276,2.646
				c1.587,0.672,3.351,1.106,5.292,1.303l-0.462,0.938c-2.212-0.252-4.186-0.812-5.922-1.68c-1.717,0.793-3.71,1.362-5.978,1.708
				l-0.462-0.952c2.025-0.28,3.808-0.729,5.348-1.344c-0.766-0.448-1.494-0.976-2.184-1.582c-0.551,0.494-1.134,0.929-1.75,1.302
				l-0.616-0.813c1.699-0.97,2.837-2.15,3.416-3.542L184.873,232.155z M186.203,238.245c0,0.504-0.047,1.036-0.14,1.596h4.928
				c-0.028,2.371-0.243,3.785-0.644,4.242c-0.411,0.467-1.111,0.7-2.1,0.7c-0.233,0-0.779-0.019-1.638-0.056l-0.252-0.91
				l1.652,0.069c0.831-0.009,1.358-0.187,1.582-0.531c0.214-0.336,0.34-1.204,0.378-2.604h-4.144
				c-0.103,0.346-0.252,0.695-0.448,1.05c-0.719,1.27-2.361,2.311-4.928,3.122l-0.672-0.826c2.305-0.672,3.822-1.521,4.55-2.548
				c0.196-0.289,0.341-0.555,0.434-0.798h-4.172v-0.91h4.452c0.112-0.504,0.168-1.036,0.168-1.596
				C185.209,238.245,186.203,238.245,186.203,238.245z M189.003,234.171h-5.348l-0.182,0.225c0.774,0.681,1.638,1.269,2.59,1.764
				C187.174,235.608,188.154,234.946,189.003,234.171z"/>
			<path class="st5" d="M193.861,237.391h4.718c0.252-0.346,0.467-0.724,0.644-1.135l0.966,0.099
				c-0.112,0.289-0.285,0.635-0.518,1.036h3.612c-0.206-0.364-0.416-0.682-0.63-0.952l0.854-0.28
				c0.289,0.383,0.546,0.793,0.77,1.232h1.932v0.896h-3.78c0.905,0.858,2.263,1.535,4.074,2.03l-0.406,0.854
				c-0.215-0.065-0.542-0.182-0.98-0.35v4.088h-0.896v-0.603h-2.618v0.603h-0.896v-4.41h3.682c-1.316-0.606-2.329-1.344-3.038-2.212
				h-2.352c-0.775,0.877-1.825,1.615-3.15,2.212h3.514v4.41h-0.896v-0.603h-2.394v0.603h-0.882v-4.13l-1.148,0.392l-0.462-0.826
				c1.773-0.531,3.155-1.218,4.144-2.058h-3.864L193.861,237.391L193.861,237.391z M194.995,232.589h4.27v3.402h-4.27V232.589z
				 M198.341,235.136v-1.68h-2.436v1.68H198.341z M196.073,243.439h2.394v-2.101h-2.394V243.439z M200.819,232.589h4.354v3.402
				h-4.354V232.589z M201.603,243.439h2.618v-2.101h-2.618V243.439z M204.263,235.136v-1.68h-2.52v1.68H204.263z"/>
			<path class="st5" d="M211.305,232.449c-0.766,1.755-1.526,3.141-2.282,4.158c0.542-0.047,1.209-0.136,2.002-0.267
				c0.298-0.522,0.606-1.082,0.924-1.68l0.91,0.35c-1.344,2.408-2.455,4.121-3.332,5.139c1.036-0.225,2.072-0.532,3.108-0.924v0.924
				c-1.549,0.551-3.01,0.924-4.382,1.12l-0.266-0.938c0.187-0.084,0.34-0.182,0.462-0.294c0.55-0.532,1.227-1.456,2.03-2.772
				c-0.653,0.104-1.475,0.22-2.464,0.351l-0.252-0.938c0.149-0.056,0.294-0.182,0.434-0.378c0.821-1.231,1.54-2.641,2.156-4.228
				L211.305,232.449z M212.551,242.711c-1.354,0.635-2.866,1.129-4.536,1.484l-0.126-0.994c1.811-0.364,3.365-0.845,4.662-1.442
				V242.711z M219.215,232.715v10.71h1.19v0.98h-8.092v-0.98h1.218v-10.71H219.215z M214.525,236.215h3.696v-2.534h-3.696V236.215z
				 M214.525,239.813h3.696v-2.646h-3.696V239.813z M214.525,243.425h3.696v-2.66h-3.696V243.425z"/>
		</g>
	</g>
</g>
<g id="Rects7" transform="translate(294.0003662109375,297.5961217880249)">
	<rect x="111.035" y="223.495" class="st9" width="164" height="62"/>
	<rect x="123.035" y="235.495" class="st10" width="152" height="50"/>
	<rect x="121.035" y="233.495" class="st11" width="152" height="50"/>
	<rect x="118.035" y="230.495" class="st10" width="152" height="50"/>
	<rect x="116.035" y="228.495" class="st11" width="152" height="50"/>
	<rect x="113.035" y="225.495" class="st10" width="152" height="50"/>
	<rect x="111.035" y="223.495" class="st11" width="152" height="50"/>
	<g transform="translate(20 9)">
		<g>
			<path class="st12" d="M127.035,252.495c-7.18,0.008-13.007-5.805-13.015-12.985c-0.008-7.18,5.805-13.007,12.985-13.015
				c6.413-0.008,11.874,4.663,12.86,11h2c-1.105-8.21-8.656-13.971-16.866-12.866s-13.971,8.656-12.866,16.866
				s8.656,13.971,16.866,12.866c6.697-0.901,11.965-6.169,12.866-12.866h-2C138.88,247.821,133.437,252.488,127.035,252.495z
				 M134.035,235.495l-7-4l-7,4v8l3.2,1.83c0.185-0.645,0.529-1.233,1-1.71l-2.2-1.28v-3.7l5,2.86l5-2.86v3.7l-4.14,2.36
				c-0.997-0.475-2.191-0.052-2.666,0.946c-0.475,0.997-0.052,2.191,0.946,2.666c0.997,0.475,2.191,0.052,2.666-0.946
				c0.129-0.27,0.195-0.566,0.194-0.866v-0.14l5-2.86V235.495z M127.035,239.195l-4.72-2.7l4.72-2.7l4.72,2.7L127.035,239.195z"/>
		</g>
		<g class="st4">
			<path class="st5" d="M153.777,237.775h12.558v1.008h-6.72c-1.27,2.613-2.394,4.452-3.374,5.516
				c2.511-0.14,5.021-0.378,7.532-0.714c-0.504-0.896-1.064-1.82-1.68-2.771l0.812-0.504c1.269,1.903,2.263,3.588,2.982,5.054
				l-0.896,0.63c-0.243-0.522-0.485-1.018-0.728-1.484c-2.697,0.346-5.796,0.635-9.296,0.868l-0.266-1.021
				c0.056-0.019,0.135-0.052,0.238-0.099c0.905-0.681,2.091-2.506,3.556-5.474h-4.718L153.777,237.775L153.777,237.775z
				 M155.121,233.869h9.968v0.979h-9.968V233.869z"/>
			<path class="st5" d="M169.569,241.093c-0.084,1.951-0.416,3.561-0.994,4.83l-0.756-0.7c0.55-1.25,0.835-2.864,0.854-4.844v-6.72
				h4.088v10.906c0,0.858-0.392,1.288-1.176,1.288h-1.12l-0.238-0.896c0.522,0.037,0.882,0.056,1.078,0.056
				c0.354,0,0.532-0.257,0.532-0.77v-3.15L169.569,241.093L169.569,241.093z M171.837,236.935v-2.366h-2.254v2.366H171.837z
				 M169.583,237.845v2.339h2.254v-2.339H169.583z M174.889,239.707v6.202h-0.952v-12.264h5.67c0,1.735-0.084,2.884-0.252,3.443
				c-0.168,0.579-0.69,0.868-1.568,0.868h-1.134l-0.266-0.868l0.938,0.015c0.308,0,0.555-0.023,0.742-0.07
				c0.168-0.056,0.294-0.191,0.378-0.406c0.093-0.289,0.154-0.975,0.182-2.058h-3.738v4.242h4.76v0.854
				c-0.261,1.438-0.719,2.665-1.372,3.682c0.616,0.607,1.358,1.157,2.226,1.652l-0.504,0.854c-0.877-0.505-1.643-1.078-2.296-1.723
				c-0.616,0.719-1.339,1.298-2.17,1.736l-0.532-0.813c0.793-0.429,1.47-0.979,2.03-1.651c-0.896-1.092-1.498-2.324-1.806-3.696
				h-0.336L174.889,239.707L174.889,239.707z M176.093,239.707c0.289,1.073,0.793,2.044,1.512,2.912
				c0.513-0.831,0.896-1.801,1.148-2.912H176.093z"/>
			<path class="st5" d="M186.873,233.155c-0.14,0.336-0.317,0.69-0.532,1.063h6.104v0.813c-0.896,1.036-1.988,1.918-3.276,2.646
				c1.587,0.672,3.351,1.106,5.292,1.303l-0.462,0.938c-2.212-0.252-4.186-0.812-5.922-1.68c-1.717,0.793-3.71,1.362-5.978,1.708
				l-0.462-0.952c2.025-0.28,3.808-0.729,5.348-1.344c-0.766-0.448-1.494-0.976-2.184-1.582c-0.551,0.494-1.134,0.929-1.75,1.302
				l-0.616-0.813c1.699-0.97,2.837-2.15,3.416-3.542L186.873,233.155z M188.203,239.245c0,0.504-0.047,1.036-0.14,1.596h4.928
				c-0.028,2.371-0.243,3.785-0.644,4.242c-0.411,0.467-1.111,0.7-2.1,0.7c-0.233,0-0.779-0.019-1.638-0.056l-0.252-0.91
				l1.652,0.069c0.831-0.009,1.358-0.187,1.582-0.531c0.214-0.336,0.34-1.204,0.378-2.604h-4.144
				c-0.103,0.346-0.252,0.695-0.448,1.05c-0.719,1.27-2.361,2.311-4.928,3.122l-0.672-0.826c2.305-0.672,3.822-1.521,4.55-2.548
				c0.196-0.289,0.341-0.555,0.434-0.798h-4.172v-0.91h4.452c0.112-0.504,0.168-1.036,0.168-1.596
				C187.209,239.245,188.203,239.245,188.203,239.245z M191.003,235.171h-5.348l-0.182,0.225c0.774,0.681,1.638,1.269,2.59,1.764
				C189.174,236.608,190.154,235.946,191.003,235.171z"/>
			<path class="st5" d="M195.861,238.391h4.718c0.252-0.346,0.467-0.724,0.644-1.135l0.966,0.099
				c-0.112,0.289-0.285,0.635-0.518,1.036h3.612c-0.206-0.364-0.416-0.682-0.63-0.952l0.854-0.28
				c0.289,0.383,0.546,0.793,0.77,1.232h1.932v0.896h-3.78c0.905,0.858,2.263,1.535,4.074,2.03l-0.406,0.854
				c-0.215-0.065-0.542-0.182-0.98-0.35v4.088h-0.896v-0.603h-2.618v0.603h-0.896v-4.41h3.682c-1.316-0.606-2.329-1.344-3.038-2.212
				h-2.352c-0.775,0.877-1.825,1.615-3.15,2.212h3.514v4.41h-0.896v-0.603h-2.394v0.603h-0.882v-4.13l-1.148,0.392l-0.462-0.826
				c1.773-0.531,3.155-1.218,4.144-2.058h-3.864L195.861,238.391L195.861,238.391z M196.995,233.589h4.27v3.402h-4.27V233.589z
				 M200.341,236.137v-1.68h-2.436v1.68H200.341z M198.073,244.439h2.394v-2.101h-2.394V244.439z M202.819,233.589h4.354v3.402
				h-4.354V233.589z M203.603,244.439h2.618v-2.101h-2.618V244.439z M206.263,236.137v-1.68h-2.52v1.68H206.263z"/>
			<path class="st5" d="M213.305,233.449c-0.766,1.755-1.526,3.141-2.282,4.158c0.542-0.047,1.209-0.136,2.002-0.267
				c0.298-0.522,0.606-1.082,0.924-1.68l0.91,0.35c-1.344,2.408-2.455,4.121-3.332,5.139c1.036-0.225,2.072-0.532,3.108-0.924v0.924
				c-1.549,0.551-3.01,0.924-4.382,1.12l-0.266-0.938c0.187-0.084,0.34-0.182,0.462-0.294c0.55-0.532,1.227-1.456,2.03-2.772
				c-0.653,0.104-1.475,0.22-2.464,0.351l-0.252-0.938c0.149-0.056,0.294-0.182,0.434-0.378c0.821-1.231,1.54-2.641,2.156-4.228
				L213.305,233.449z M214.551,243.711c-1.354,0.635-2.866,1.129-4.536,1.484l-0.126-0.994c1.811-0.364,3.365-0.845,4.662-1.442
				V243.711z M221.215,233.715v10.71h1.19v0.98h-8.092v-0.98h1.218v-10.71H221.215z M216.525,237.215h3.696v-2.534h-3.696V237.215z
				 M216.525,240.813h3.696v-2.646h-3.696V240.813z M216.525,244.425h3.696v-2.66h-3.696V244.425z"/>
		</g>
	</g>
</g>
<g id="RectEndPoint20" transform="translate(294.0003662109375,72.00777053833008)">
	<rect x="111.035" y="225.495" class="st10" width="73" height="50"/>
	<rect x="109.035" y="223.495" class="st11" width="73" height="50"/>
	<g transform="translate(20 9)">
		<g>
			<title  xmlns="http://www.w3.org/2000/svg">Product Icons【32】</title>
			<path class="st12" d="M125.505,243.295c1.16,0.49,1.22,0.72,1.11,1.06c-0.835,1.581-0.763,3.487,0.19,5
				c0.187,0.262,0.488,0.419,0.81,0.42c0.327-0.021,0.617-0.216,0.76-0.51c0.227-0.464,0.539-0.881,0.92-1.23
				c0.544,1.022,1.238,1.955,2.06,2.77c0.808,0.666,1.295,1.644,1.34,2.69h1.81c-0.033-1.563-0.727-3.038-1.91-4.06
				c-0.839-0.884-1.532-1.897-2.05-3c-0.172-0.353-0.55-0.558-0.94-0.51c-0.674,0.133-1.285,0.485-1.74,1
				c-0.036-0.592,0.089-1.183,0.36-1.71c0.033-0.053,0.06-0.11,0.08-0.17c0.77-2.19-1.38-3.09-2.09-3.39l-0.3-0.16l-0.34-0.17l0,0
				c0.289-0.099,0.51-0.335,0.59-0.63c0.146-0.471,0.455-0.874,0.87-1.14c0.689-0.314,1.475-0.335,2.18-0.06
				c1.561,0.327,3.01,1.058,4.2,2.12c0.229,0.225,0.558,0.316,0.87,0.24c0.667-0.155,1.366-0.099,2,0.16
				c-0.146,0.149-0.27,0.317-0.37,0.5c-0.52,1.116-0.306,2.436,0.54,3.33c1.21,1.59,1.07,5,0.7,7.66h1.88
				c0.37-2.76,0.51-6.62-1.09-8.75c-0.42-0.56-0.57-1.07-0.4-1.38c0.174-0.246,0.47-0.377,0.77-0.34
				c0.497-0.002,0.899-0.406,0.897-0.903c-0.001-0.24-0.097-0.469-0.267-0.637c-1.289-1.073-2.948-1.598-4.62-1.46
				c-1.354-1.115-2.955-1.89-4.67-2.26c-1.166-0.406-2.449-0.308-3.54,0.27c-0.601,0.342-1.096,0.844-1.43,1.45
				c-0.643-0.038-1.244,0.318-1.52,0.9c-0.62,1.5,1,2.26,1.64,2.55l0.27,0.13L125.505,243.295z"/>
			<g>
				<path class="st12" d="M124.735,251.195c-0.55,0-1.12,0-1.7,0c-5.52,0-10-1.34-10-3h-2c0,2.76,5.37,5,12,5
					c1.18,0.002,2.359-0.072,3.53-0.22L124.735,251.195z"/>
				<path class="st12" d="M113.035,242.005c2.156,1.189,4.544,1.899,7,2.08v-2c-4.06-0.38-7-1.52-7-2.86v-6.22
					c2.15,1.35,5.82,2.24,10,2.24s7.85-0.89,10-2.24v2.49l2,1v-6.25c0-2.76-5.37-5-12-5c-6.63,0-12,2.25-12,5v18h2V242.005z
					 M123.035,227.245c5.52,0,10,1.34,10,3s-4.48,3-10,3c-5.52,0-10-1.34-10-3S117.515,227.245,123.035,227.245z"/>
			</g>
		</g>
	</g>
</g>
<g id="RectEndPoint21" transform="translate(378.998779296875,72.00777053833008)">
	<rect x="111.035" y="225.495" class="st10" width="73" height="50"/>
	<rect x="109.035" y="223.495" class="st11" width="73" height="50"/>
	<g transform="translate(20 9)">
		<g>
			<title  xmlns="http://www.w3.org/2000/svg">Product Icons【32】</title>
			<g id="_编组__1_">
				<path class="st12" d="M113.035,248.495h-2c0,2.76,5.37,5,12,5h1v-2h-1C117.515,251.495,113.035,250.155,113.035,248.495z
					 M137.035,239.495v4h2v-4H137.035z M113.035,239.495L113.035,239.495v-6.24c2.15,1.35,5.82,2.24,10,2.24s7.85-0.89,10-2.24v3.24
					h2v-6c0-2.76-5.37-5-12-5c-6.63,0-12,2.24-12,5v18h2v-6.24c2.15,1.35,5.82,2.24,10,2.24h1v-2h-1
					C117.515,242.495,113.035,241.155,113.035,239.495z M123.035,227.495c5.52,0,10,1.34,10,3s-4.48,3-10,3c-5.52,0-10-1.34-10-3
					S117.515,227.495,123.035,227.495z M129.035,245.495v-6h-2v14h2v-6h8v6h2v-8H129.035z"/>
			</g>
		</g>
	</g>
</g>
<g>
	<rect x="247.035" y="522.899" class="st10" width="108" height="50"/>
	<rect x="245.035" y="520.899" class="st11" width="108" height="50"/>
	<g transform="translate(20 9)">
		<g>
			<title  xmlns="http://www.w3.org/2000/svg">Product Icons【32】</title>
			<g id="_编组_">
				<path id="_路径_" class="st12" d="M252.035,521.899c-8.284-0.009-15.007,6.7-15.016,14.984
					c-0.009,8.284,6.7,15.007,14.984,15.016c7.517,0.008,13.88-5.55,14.882-13h-2c-1.105,7.094-7.751,11.95-14.845,10.845
					c-7.094-1.105-11.95-7.751-10.845-14.845c1.105-7.094,7.751-11.95,14.845-10.845c5.59,0.87,9.975,5.256,10.845,10.845h2
					C265.884,527.461,259.54,521.907,252.035,521.899z"/>
			</g>
			<g id="_编组_2">
				<path class="st12" d="M257.035,528.899h-4v2h1v2h-4v-2h1v-2h-4v2h1v2h-1.71l-2.29,8l0,0v4h16v-4l0,0l-2.29-8h-1.71v-2h1V528.899
					z M246.975,538.899l1.14-4h7.86l1.14,4H246.975z M252.035,542.899v-2h6v2H252.035z M249.035,542.899v-2h1v2H249.035z
					 M246.035,542.899v-2h1v2H246.035z"/>
			</g>
		</g>
	</g>
	<g transform="translate(0 0)">
		<g class="st4">
			<path class="st13" d="M296.714,542.083l1.032-0.003l4.872,6.956h0.036l-0.023-6.973l0.984-0.003l0.029,8.568l-1.008,0.003
				l-4.896-7.027h-0.036l0.023,7.044l-0.984,0.003L296.714,542.083z"/>
			<path class="st13" d="M307.85,542.046l1.14-0.004l3.4,8.558l-1.068,0.003l-0.92-2.396l-3.936,0.013l-0.903,2.403l-1.056,0.004
				L307.85,542.046z M306.776,547.39l3.312-0.011l-1.634-4.279h-0.048L306.776,547.39z"/>
			<path class="st13" d="M312.566,542.03l7.02-0.023l0.003,0.853l-3.024,0.01l0.026,7.716l-0.972,0.004l-0.026-7.716l-3.024,0.01
				L312.566,542.03z"/>
			<path class="st13" d="M328.33,551.673l-0.231-0.839l1.152,0.032c0.336-0.001,0.503-0.166,0.502-0.494l-0.028-8.316l-7.872,0.026
				l0.032,9.66l-0.852,0.003l-0.035-10.487l9.576-0.032l0.031,9.336c0.002,0.735-0.352,1.105-1.064,1.107L328.33,551.673z
				 M325.465,549.031c-0.345-0.543-0.728-1.116-1.145-1.724c-0.42,1.169-0.941,2.179-1.563,3.029l-0.554-0.671
				c0.621-0.89,1.133-1.943,1.537-3.16c-0.555-0.734-1.121-1.433-1.699-2.095l0.538-0.518c0.482,0.502,0.959,1.069,1.434,1.699
				c0.229-0.865,0.414-1.77,0.555-2.714l0.792,0.141c-0.188,1.233-0.436,2.362-0.745,3.387c0.53,0.719,1.005,1.401,1.422,2.048
				L325.465,549.031z M328.983,549.572c-0.346-0.591-0.752-1.253-1.218-1.988c-0.476,1.178-1.037,2.188-1.682,3.029l-0.554-0.657
				c0.676-0.922,1.233-1.992,1.669-3.21c-0.595-0.87-1.146-1.612-1.651-2.227l0.538-0.518c0.49,0.55,0.964,1.153,1.422,1.807
				c0.245-0.833,0.454-1.802,0.626-2.905l0.816,0.141c-0.211,1.329-0.496,2.534-0.852,3.615c0.506,0.766,0.997,1.545,1.472,2.335
				L328.983,549.572z"/>
			<path class="st13" d="M340.846,540.868c-0.285,0.873-0.643,1.65-1.072,2.332l2.472-0.008l0.003,0.84l-4.008,0.013l0.001,0.563
				c-0.021,0.664-0.076,1.222-0.162,1.669l4.872-0.017l0.003,0.84l-4.368,0.015c0.598,1.623,2.153,2.878,4.668,3.765l-0.501,0.807
				c-2.636-1.056-4.28-2.498-4.935-4.328c-0.23,0.697-0.532,1.298-0.906,1.803c-0.821,1.067-2.15,1.896-3.988,2.486l-0.47-0.755
				c1.838-0.599,3.115-1.379,3.832-2.341c0.294-0.441,0.521-0.918,0.68-1.431l-4.308,0.014l-0.003-0.84l4.524-0.015
				c0.11-0.527,0.168-1.085,0.174-1.669l-0.001-0.563l-4.02,0.014l-0.003-0.84l5.484-0.019c0.438-0.674,0.838-1.527,1.203-2.561
				L340.846,540.868z M335.506,540.766c0.498,0.646,0.956,1.324,1.375,2.035l-0.778,0.398c-0.443-0.782-0.905-1.465-1.387-2.048
				L335.506,540.766z"/>
		</g>
	</g>
</g>
<g id="assistantgroup" transform="translate(0,0)">
</g>
<g>
	<g>
		<path class="st5" d="M341.151,245.055h1.022v11.13h1.988v-11.13h1.022v11.13h4.2v0.98h-12.404v-0.98h4.172L341.151,245.055
			L341.151,245.055z M338.183,247.575c0.737,1.923,1.391,4.093,1.96,6.51l-0.924,0.238c-0.504-2.24-1.134-4.396-1.89-6.468
			L338.183,247.575z M349.005,247.854c-0.56,2.445-1.265,4.578-2.114,6.398l-0.91-0.322c0.821-1.661,1.531-3.771,2.128-6.328
			L349.005,247.854z"/>
		<path class="st5" d="M356.019,245.013c-0.14,0.336-0.317,0.69-0.532,1.064h6.104v0.812c-0.896,1.036-1.988,1.918-3.276,2.646
			c1.587,0.672,3.351,1.106,5.292,1.302l-0.462,0.938c-2.212-0.252-4.186-0.812-5.922-1.68c-1.717,0.793-3.71,1.363-5.978,1.708
			l-0.462-0.952c2.025-0.28,3.808-0.728,5.348-1.344c-0.766-0.448-1.494-0.975-2.184-1.582c-0.551,0.495-1.134,0.929-1.75,1.302
			l-0.616-0.812c1.699-0.971,2.837-2.151,3.416-3.542L356.019,245.013z M357.349,251.103c0,0.504-0.047,1.036-0.14,1.596h4.928
			c-0.028,2.371-0.243,3.784-0.644,4.242c-0.411,0.467-1.111,0.7-2.1,0.7c-0.233,0-0.779-0.019-1.638-0.056l-0.252-0.91l1.652,0.07
			c0.831-0.009,1.358-0.187,1.582-0.532c0.214-0.336,0.34-1.204,0.378-2.604h-4.144c-0.103,0.346-0.252,0.695-0.448,1.05
			c-0.719,1.269-2.361,2.31-4.928,3.122l-0.672-0.826c2.305-0.672,3.822-1.521,4.55-2.548c0.196-0.29,0.341-0.555,0.434-0.798
			h-4.172v-0.91h4.452c0.112-0.504,0.168-1.036,0.168-1.596H357.349L357.349,251.103z M360.149,247.028h-5.348l-0.182,0.224
			c0.774,0.682,1.638,1.27,2.59,1.764C358.32,248.466,359.3,247.803,360.149,247.028z"/>
		<path class="st5" d="M369.151,254.351c-0.943,1.139-2.119,2.137-3.528,2.996l-0.63-0.812c1.372-0.812,2.52-1.75,3.444-2.814
			L369.151,254.351z M369.095,257.71l-0.224-0.994c0.56,0.047,1.041,0.07,1.442,0.07c0.345,0,0.518-0.173,0.518-0.518v-3.43
			c-1.615,0.103-3.075,0.182-4.382,0.238l-0.28-0.896c0.28-0.028,0.574-0.089,0.882-0.182c1.148-0.504,2.436-1.288,3.864-2.352
			c-0.98,0.075-2.292,0.164-3.934,0.266l-0.21-0.896c0.215-0.028,0.443-0.089,0.686-0.182c0.709-0.354,1.535-1.045,2.478-2.072
			c-1.186,0.056-2.45,0.084-3.794,0.084l-0.294-0.882c4.022,0,7.364-0.294,10.024-0.882l0.49,0.854
			c-1.494,0.345-3.211,0.593-5.152,0.742c-0.849,0.989-1.731,1.783-2.646,2.38c0.989-0.047,2.124-0.126,3.402-0.238
			c0.541-0.429,1.19-0.984,1.946-1.666l0.924,0.462c-2.361,2.081-4.424,3.584-6.188,4.508c2.361-0.13,4.317-0.289,5.866-0.476
			c-0.448-0.579-0.812-1.031-1.092-1.358l0.756-0.462c1.157,1.354,2.039,2.52,2.646,3.5l-0.812,0.574
			c-0.233-0.41-0.537-0.891-0.91-1.442c-0.84,0.093-1.923,0.196-3.248,0.308v3.752c0,0.793-0.396,1.19-1.19,1.19L369.095,257.71
			L369.095,257.71z M373.771,253.623c1.409,1.018,2.59,2.044,3.542,3.08l-0.714,0.714c-0.859-0.989-2.025-2.039-3.5-3.15
			L373.771,253.623z"/>
		<path class="st5" d="M382.255,245.278c-0.7,1.792-1.414,3.22-2.142,4.284c0.411-0.056,1.026-0.159,1.848-0.308
			c0.252-0.476,0.509-0.975,0.77-1.498l0.91,0.35c-1.232,2.324-2.254,3.99-3.066,4.998c0.999-0.252,1.983-0.593,2.954-1.022v0.938
			c-1.428,0.598-2.837,1.013-4.228,1.246l-0.28-0.924c0.159-0.075,0.313-0.177,0.462-0.308c0.56-0.588,1.213-1.535,1.96-2.842
			c-0.971,0.178-1.736,0.308-2.296,0.392l-0.266-0.924c0.158-0.065,0.308-0.196,0.448-0.392c0.737-1.241,1.391-2.702,1.96-4.382
			L382.255,245.278z M383.529,255.526c-1.326,0.663-2.782,1.186-4.368,1.568l-0.126-1.008c1.727-0.382,3.225-0.891,4.494-1.526
			L383.529,255.526L383.529,255.526z M386.119,251.606c-0.065,1.755-0.285,3.052-0.658,3.892c-0.411,0.868-1.087,1.61-2.03,2.226
			l-0.644-0.798c0.831-0.532,1.418-1.153,1.764-1.862c0.336-0.728,0.532-1.88,0.588-3.458L386.119,251.606L386.119,251.606z
			 M383.781,250.137c0.168-0.056,0.233-0.08,0.196-0.07c0.467-0.345,1.078-1.246,1.834-2.702h-2.394v-0.966h3.57
			c-0.187-0.513-0.397-0.994-0.63-1.442l1.022-0.168c0.214,0.495,0.42,1.031,0.616,1.61h3.15v0.966h-4.284
			c-0.607,1.204-1.153,2.091-1.638,2.66c1.372-0.121,2.669-0.28,3.892-0.476c-0.327-0.476-0.658-0.928-0.994-1.358l0.77-0.476
			c0.98,1.251,1.717,2.32,2.212,3.206l-0.784,0.546c-0.187-0.354-0.401-0.714-0.644-1.078c-1.68,0.271-3.57,0.485-5.67,0.644
			L383.781,250.137z M389.143,257.5c-0.84,0-1.26-0.406-1.26-1.218v-4.802h0.966v4.634c0,0.289,0.107,0.448,0.322,0.476h0.91
			c0.308-0.028,0.49-0.196,0.546-0.504c0.065-0.457,0.098-1.064,0.098-1.82l0.868,0.308c0,1.316-0.094,2.132-0.28,2.45
			c-0.187,0.29-0.583,0.448-1.19,0.476L389.143,257.5L389.143,257.5z"/>
	</g>
</g>
<rect x="120" y="522.898" class="st10" width="86" height="50"/>
<rect x="118" y="520.898" class="st11" width="86" height="50"/>
<g>
	<g>
		<path class="st14" d="M139.583,535.028c2.209,0,4,1.791,4,4s-1.791,4-4,4c-2.209,0-4-1.791-4-4S137.374,535.028,139.583,535.028
			 M139.583,533.028c-3.314,0-6,2.686-6,6s2.686,6,6,6s6-2.686,6-6S142.897,533.028,139.583,533.028z"/>
		<path class="st14" d="M143.583,549.028c3.314,0,6,2.686,6,6v1h-20v-1c0-3.314,2.686-6,6-6H143.583 M143.583,547.028h-8
			c-4.418,0-8,3.582-8,8v3h24v-3C151.583,550.61,148.001,547.028,143.583,547.028z"/>
		<path class="st14" d="M152.583,547.018h-3c0.758,0.569,1.431,1.242,2,2h1c2.209,0,4,1.791,4,4v1h-3c0,0.33,0,0.66,0,1v1h5v-3
			C158.583,549.704,155.897,547.018,152.583,547.018z"/>
		<path class="st14" d="M148.583,534.018c-0.814,0.005-1.615,0.211-2.33,0.6c0.367,0.558,0.663,1.159,0.88,1.79
			c1.441-0.817,3.272-0.311,4.089,1.131c0.817,1.441,0.311,3.272-1.131,4.089c-0.918,0.52-2.041,0.52-2.958,0
			c-0.217,0.631-0.513,1.232-0.88,1.79c0.715,0.389,1.516,0.595,2.33,0.6c2.761,0,5-2.239,5-5
			C153.583,536.257,151.344,534.018,148.583,534.018z"/>
	</g>
</g>
<g class="st4">
	<path class="st5" d="M173.591,541.924c-0.233,0.363-0.448,0.672-0.644,0.924h5.166v0.812c-0.569,0.794-1.395,1.498-2.478,2.114
		c1.512,0.598,3.22,0.966,5.124,1.106l-0.224,0.909c-2.25-0.168-4.233-0.667-5.95-1.498c-1.633,0.747-3.719,1.34-6.258,1.778
		l-0.378-0.896c2.305-0.374,4.176-0.845,5.614-1.414c-0.709-0.42-1.367-0.896-1.974-1.429c-0.513,0.467-1.097,0.906-1.75,1.316
		l-0.644-0.784c1.381-0.793,2.52-1.843,3.416-3.149L173.591,541.924z M180.059,540.51v2.646h-1.022v-1.735h-9.324v1.735h-1.022
		v-2.646h5.124c-0.177-0.373-0.35-0.7-0.518-0.98l1.106-0.168c0.103,0.205,0.266,0.588,0.49,1.148H180.059z M178.491,547.957v4.383
		h-0.98v-0.602h-6.02v0.603h-0.98v-4.383L178.491,547.957L178.491,547.957z M171.491,550.827h6.02v-1.96h-6.02V550.827z
		 M176.909,543.702h-4.69l-0.042,0.042c0.719,0.598,1.526,1.12,2.422,1.568C175.551,544.845,176.321,544.309,176.909,543.702z"/>
	<path class="st5" d="M184.567,545.886c-0.075,2.511-0.737,4.667-1.988,6.468l-0.742-0.672c1.129-1.559,1.708-3.599,1.736-6.118
		v-4.382h4.564c-0.262-0.616-0.532-1.162-0.812-1.638l1.078-0.169c0.252,0.532,0.504,1.135,0.756,1.807h4.424v4.704
		C193.583,545.886,184.567,545.886,184.567,545.886z M192.561,542.176h-7.994v2.729h7.994V542.176z"/>
</g>
<g>
	<g class="st15">
		<rect x="797.788" y="402.986" class="st16" width="135" height="40"/>
	</g>
	<g class="st15">
		<rect x="797.799" y="452.986" class="st16" width="135" height="40"/>
	</g>
	<g class="st15">
		<rect x="797.642" y="502.986" class="st16" width="135" height="40"/>
	</g>
	<g>
		<rect x="795.799" y="400.986" class="st11" width="135" height="40"/>
	</g>
	<g>
		<rect x="795.642" y="451.06" class="st11" width="135" height="40"/>
	</g>
	<g>
		<rect x="795.642" y="500.986" class="st11" width="135" height="40"/>
	</g>
	<g>
		<g class="st15">
			<rect x="797.642" y="553.653" class="st16" width="135" height="40"/>
		</g>
		<g>
			<rect x="795.642" y="551.653" class="st11" width="135" height="40"/>
		</g>
	</g>
	<g>
		<path class="st5" d="M815.432,424.936h-5.558v2.996h-0.952v-7.322c-0.784,0.989-1.685,1.891-2.702,2.702l-0.658-0.854
			c1.764-1.4,3.127-3.001,4.088-4.803h-3.71v-0.979h4.172c0.252-0.579,0.457-1.125,0.616-1.639l1.022,0.126
			c-0.206,0.645-0.383,1.148-0.532,1.513h6.958v0.979h-7.378c-0.317,0.645-0.621,1.186-0.91,1.624h6.496v7.561
			c0,0.681-0.393,1.036-1.176,1.063h-1.568l-0.252-0.924c0.709,0.037,1.209,0.056,1.498,0.056c0.364,0,0.546-0.168,0.546-0.504
			L815.432,424.936L815.432,424.936z M809.874,420.161v1.526h5.558v-1.526H809.874z M815.432,422.569h-5.558v1.484h5.558V422.569z"
			/>
		<path class="st5" d="M821.508,421.659c0.513,0.401,1.064,0.873,1.651,1.414c0.337-0.672,0.611-1.357,0.826-2.058l0.868,0.364
			c-0.252,0.868-0.569,1.671-0.952,2.407c0.616,0.598,1.176,1.19,1.681,1.778l-0.715,0.798c-0.401-0.476-0.896-1.026-1.483-1.651
			c-0.878,1.334-1.979,2.38-3.304,3.136l-0.616-0.896c1.307-0.718,2.37-1.712,3.191-2.981c-0.551-0.551-1.143-1.083-1.777-1.596
			L821.508,421.659z M822.432,418.649c-0.588,1.27-1.288,2.385-2.1,3.346l-0.813-0.588c0.793-0.896,1.475-1.96,2.044-3.191
			L822.432,418.649z M822.949,415.023c0.225,0.514,0.435,1.041,0.631,1.582h2.632v0.966h-6.482v-0.966h2.87
			c-0.205-0.494-0.439-0.966-0.7-1.414L822.949,415.023z M825.246,420.819c-0.626-0.793-1.261-1.488-1.904-2.086l0.616-0.602
			c0.55,0.438,1.199,1.11,1.945,2.016L825.246,420.819z M827.192,420.68c-0.205,0.411-0.476,0.868-0.812,1.372l-0.645-0.771
			c0.989-1.559,1.652-3.635,1.988-6.229l1.008,0.168c-0.103,0.709-0.238,1.433-0.406,2.17h3.935v0.979h-1.19
			c-0.084,2.231-0.578,4.14-1.483,5.727c0.803,1.288,1.764,2.277,2.884,2.968l-0.588,0.882c-1.111-0.709-2.063-1.698-2.856-2.968
			c-0.887,1.204-2.029,2.207-3.43,3.01l-0.574-0.91c1.493-0.793,2.65-1.806,3.472-3.037
			C827.981,423.031,827.546,421.911,827.192,420.68z M828.06,418.369l-0.322,0.98c0.336,1.428,0.771,2.674,1.303,3.738
			c0.681-1.391,1.05-2.964,1.105-4.719L828.06,418.369L828.06,418.369z"/>
		<path class="st5" d="M833.674,415.71h6.37v0.951h-1.82v1.624h1.596v9.618h-0.896v-0.756h-3.99v0.756h-0.896v-9.618h1.525v-1.624
			h-1.89L833.674,415.71L833.674,415.71z M835.746,419.21h-0.813v4.676h3.99v-1.19h-0.714c-0.588,0-0.883-0.321-0.883-0.966v-2.52
			h-0.896v0.909c-0.01,1.484-0.313,2.581-0.91,3.29l-0.546-0.489c0.504-0.579,0.761-1.513,0.771-2.801L835.746,419.21
			L835.746,419.21L835.746,419.21z M834.934,426.195h3.99v-1.386h-3.99V426.195z M836.432,418.285h0.924v-1.624h-0.924V418.285z
			 M838.924,421.911v-2.701h-0.896v2.338c0,0.242,0.117,0.363,0.351,0.363L838.924,421.911L838.924,421.911z M846.33,424.208
			c-0.104,1.465-0.262,2.407-0.477,2.827c-0.233,0.43-0.677,0.645-1.33,0.645h-2.771c-0.672,0-1.009-0.443-1.009-1.33v-5.937h3.822
			v-3.737h-4.06v-0.952h5.04v5.67h-3.822v4.592c0,0.485,0.145,0.732,0.434,0.742h2.198c0.393,0,0.645-0.196,0.756-0.588
			c0.103-0.354,0.178-1.106,0.225-2.254L846.33,424.208z"/>
		<path class="st5" d="M847.968,419.084h5.446l0.084-0.813h-4.593v-2.618h10.137v2.618h-4.536l-0.084,0.813h5.571v0.77h-5.684
			l-0.154,0.798h4.061v6.174h2.03v0.813h-12.53v-0.813h2.03v-6.174h3.401l0.154-0.798h-5.334L847.968,419.084L847.968,419.084z
			 M851.958,417.558v-1.162h-2.086v1.162H851.958z M850.726,422.233h6.496v-0.882h-6.496V422.233z M850.726,423.745h6.496v-0.882
			h-6.496V423.745z M850.726,425.271h6.496v-0.882h-6.496V425.271z M850.726,426.825h6.496v-0.924h-6.496V426.825z M855.08,417.558
			v-1.162h-2.213v1.162H855.08z M858.09,417.558v-1.162h-2.086v1.162H858.09z"/>
		<path class="st5" d="M866.476,420.386h3.92c0.504-0.924,0.905-1.685,1.204-2.282l1.036,0.308c-0.364,0.7-0.714,1.358-1.05,1.975
			h7.238v0.979h-2.759c-0.569,1.466-1.228,2.637-1.974,3.515c1.465,0.625,2.931,1.354,4.396,2.184l-0.672,0.882
			c-1.559-0.905-3.043-1.68-4.452-2.324c-1.559,1.391-3.64,2.129-6.243,2.213l-0.588-0.938c2.389-0.019,4.325-0.593,5.81-1.722
			c-1.335-0.569-2.642-1.06-3.92-1.471c0.476-0.736,0.952-1.517,1.428-2.338h-3.374L866.476,420.386L866.476,420.386z
			 M878.446,416.493v3.011h-1.035v-2.03h-9.563v2.016h-1.036v-2.996h5.32c-0.196-0.466-0.411-0.896-0.645-1.287l1.12-0.196
			c0.233,0.457,0.443,0.952,0.63,1.483L878.446,416.493L878.446,416.493z M871.04,421.365c-0.42,0.729-0.813,1.372-1.177,1.933
			c1.009,0.289,2.091,0.677,3.248,1.162c0.757-0.821,1.372-1.853,1.849-3.095H871.04z"/>
		<path class="st5" d="M887,415.163c1.745,1.83,3.775,3.281,6.09,4.354l-0.504,0.896c-2.315-1.119-4.298-2.566-5.95-4.34
			c-1.521,1.689-3.523,3.16-6.006,4.41l-0.49-0.882c2.455-1.186,4.499-2.665,6.132-4.438L887,415.163L887,415.163z M882.73,419.588
			h7.813v0.966h-3.389v2.436h4.047v0.967h-4.047v2.59h5.32v0.994h-11.662v-0.994h5.307v-2.59h-4.061v-0.967h4.061v-2.436h-3.389
			L882.73,419.588L882.73,419.588z"/>
		<path class="st5" d="M896.296,417.166c-0.336,0.531-0.7,1.021-1.092,1.47l-0.868-0.546c0.887-0.942,1.535-1.993,1.946-3.15
			l0.966,0.21c-0.149,0.411-0.304,0.784-0.462,1.12h3.611v0.896h-2.365c0.354,0.513,0.644,0.984,0.867,1.413l-0.91,0.337
			c-0.271-0.589-0.606-1.172-1.008-1.75H896.296z M894.489,419.294h5.629v-0.967h1.035v0.967h5.629v0.924h-5.629v1.092h4.593v2.632
			c0,0.719-0.374,1.078-1.12,1.078h-0.952l-0.252-0.896l0.91,0.042c0.271,0,0.405-0.146,0.405-0.435v-1.54h-3.584v1.232
			c1.513,1.409,3.496,2.524,5.95,3.346l-0.532,0.91c-2.1-0.803-3.905-1.895-5.418-3.276v3.599h-1.035v-3.542
			c-1.456,1.399-3.132,2.496-5.026,3.29l-0.588-0.883c2.212-0.821,4.083-1.974,5.614-3.458v-1.218h-3.36v2.8h-0.994v-3.682h4.354
			v-1.092h-5.629V419.294L894.489,419.294z M902.148,417.166c-0.242,0.476-0.494,0.9-0.756,1.273l-0.854-0.56
			c0.634-0.887,1.092-1.862,1.372-2.927l0.979,0.21c-0.131,0.439-0.247,0.808-0.35,1.106h4.199v0.896h-2.604
			c0.345,0.513,0.62,0.984,0.826,1.413l-0.882,0.337c-0.243-0.542-0.569-1.125-0.98-1.75h-0.95V417.166L902.148,417.166z"/>
		<path class="st5" d="M909.638,426.126v0.644h-0.91v-10.654h4.648v5.782c1.269-0.494,2.352-1.092,3.248-1.792
			c-0.607-0.578-1.102-1.176-1.484-1.792c-0.336,0.457-0.7,0.878-1.092,1.26l-0.658-0.77c0.98-0.934,1.782-2.156,2.408-3.668
			l0.994,0.21l-0.477,1.063h3.794v0.771c-0.467,1.102-1.157,2.096-2.071,2.981c0.877,0.635,1.908,1.182,3.094,1.639l-0.435,0.896
			c-1.307-0.578-2.417-1.227-3.331-1.945c-0.972,0.756-2.133,1.418-3.486,1.987l-0.504-0.672v4.704h-0.868v-0.644L909.638,426.126
			L909.638,426.126z M910.66,417.04h-1.022v3.598h1.022V417.04z M909.638,421.519v3.71h1.022v-3.71H909.638z M912.508,420.638
			v-3.598h-1.036v3.598H912.508z M912.508,425.229v-3.71h-1.036v3.71H912.508z M920.012,422.695v5.194h-0.979v-0.616h-3.5v0.616
			h-0.98v-5.194H920.012z M915.532,426.321h3.5v-2.688h-3.5V426.321z M918.962,417.361h-3.178c-0.057,0.065-0.099,0.136-0.126,0.21
			c0.429,0.747,0.97,1.405,1.624,1.975C917.982,418.874,918.542,418.145,918.962,417.361z"/>
	</g>
	<g>
		<path class="st5" d="M812.338,465.607c1.782,2.063,3.836,3.683,6.16,4.858l-0.547,0.966c-2.333-1.26-4.325-2.898-5.978-4.914
			c-1.512,1.886-3.523,3.533-6.034,4.942l-0.532-0.967c2.483-1.307,4.551-2.935,6.202-4.886L812.338,465.607L812.338,465.607z
			 M816.398,472.804v5.642h-0.979v-0.84h-6.889v0.84h-0.979v-5.642H816.398z M808.334,470.06h7.279v0.966h-7.279V470.06z
			 M808.529,476.64h6.889v-2.884h-6.889V476.64z"/>
		<path class="st5" d="M819.884,470.802h1.498v-3.304h-1.694v-0.952h4.41v0.952h-1.68v3.304h1.525v0.979h-1.525v3.137
			c0.56-0.196,1.12-0.42,1.68-0.673v0.967c-1.279,0.56-2.726,1.045-4.34,1.456l-0.252-0.967c0.588-0.121,1.213-0.271,1.876-0.447
			v-3.473h-1.498L819.884,470.802L819.884,470.802z M824.924,466.168h6.733v6.481h-2.855v1.708h3.08v0.938h-3.08v1.777h3.528v0.967
			h-8.064v-0.967h3.528v-1.777h-3.108v-0.938h3.108v-1.708h-2.87V466.168z M825.89,468.981h1.904v-1.918h-1.904V468.981z
			 M827.794,471.754v-1.904h-1.904v1.904H827.794z M828.802,467.063v1.918h1.89v-1.918H828.802z M830.692,471.754v-1.904h-1.89
			v1.904H830.692z"/>
		<path class="st5" d="M836.796,478.403h-0.994v-7.111c-0.477,1.418-1.102,2.706-1.876,3.863l-0.435-1.092
			c1.046-1.362,1.797-2.939,2.255-4.731h-1.975v-0.967h2.03v-2.729h0.994v2.729h1.722v0.967h-1.722v0.882
			c0.672,0.699,1.33,1.446,1.974,2.239l-0.56,0.854c-0.561-0.84-1.031-1.503-1.414-1.988L836.796,478.403L836.796,478.403z
			 M841.318,465.733c-0.111,0.672-0.252,1.316-0.42,1.933h4.914c0,4.778-0.074,7.765-0.224,8.96
			c-0.168,1.139-0.831,1.708-1.988,1.708c-0.289,0-0.793-0.015-1.512-0.042l-0.225-0.91c0.821,0.037,1.349,0.056,1.582,0.056
			c0.672,0,1.073-0.369,1.204-1.105c0.131-0.813,0.201-3.389,0.21-7.729h-4.256c-0.392,1.092-0.868,2.054-1.428,2.884l-0.645-0.84
			c0.878-1.381,1.475-3.062,1.792-5.04L841.318,465.733z M838.993,474.609c0.393-0.205,1.083-1.708,2.072-4.508l0.882,0.322
			c-0.681,1.857-1.227,3.159-1.638,3.905c0.868-0.177,1.633-0.345,2.296-0.504c-0.177-0.541-0.383-1.073-0.616-1.596l0.841-0.294
			c0.476,1.083,0.896,2.254,1.26,3.514l-0.882,0.393c-0.094-0.383-0.215-0.803-0.364-1.26c-0.971,0.271-2.193,0.555-3.668,0.854
			L838.993,474.609z"/>
		<path class="st5" d="M860.302,477.144l-0.168,0.966h-4.145c-2.52,0-4.325-0.364-5.418-1.092c-0.205-0.158-0.363-0.294-0.476-0.406
			c-0.438,0.645-0.989,1.218-1.652,1.723l-0.658-0.854c0.645-0.467,1.195-1.026,1.652-1.68c-0.551-0.793-0.994-1.787-1.33-2.982
			l0.84-0.308c0.271,0.971,0.598,1.777,0.98,2.422c0.476-0.999,0.756-2.161,0.84-3.486h-2.59v-0.784
			c0.84-1.072,1.587-2.192,2.24-3.359h-2.296v-0.952h3.43v0.826c-0.645,1.186-1.335,2.301-2.072,3.346h2.198v0.603
			c-0.056,1.829-0.425,3.396-1.106,4.703c0.225,0.233,0.453,0.421,0.687,0.561c0.933,0.522,2.366,0.798,4.298,0.826
			C856.918,477.214,858.5,477.19,860.302,477.144z M859.21,471.361h-2.996v1.12h3.275v0.826h-3.275v1.162h3.682v0.854h-3.682v1.387
			h-0.98v-1.387h-3.178v-0.854h3.178v-1.162h-2.744v-0.826h2.744v-1.12h-2.45v-0.84h2.45v-1.12h-3.136v-0.84h3.136v-1.105h-2.45
			v-0.841h2.45v-1.021h0.98v1.021h2.996v1.946h0.938v0.84h-0.938V471.361z M856.214,467.456v1.105h2.016v-1.105H856.214z
			 M856.214,469.401v1.12h2.016v-1.12H856.214z"/>
		<path class="st5" d="M875.562,478.376l-0.266-0.98l1.344,0.042c0.393,0,0.588-0.191,0.588-0.574v-9.702h-9.184v11.271h-0.994
			v-12.236h11.172v10.893c0,0.858-0.415,1.288-1.246,1.288h-1.414V478.376L875.562,478.376z M872.23,475.281
			c-0.401-0.634-0.845-1.307-1.33-2.016c-0.494,1.362-1.105,2.539-1.834,3.528l-0.644-0.784c0.728-1.036,1.33-2.264,1.806-3.683
			c-0.644-0.858-1.302-1.675-1.974-2.449l0.63-0.603c0.56,0.588,1.115,1.251,1.666,1.988c0.271-1.008,0.49-2.063,0.658-3.164
			l0.924,0.168c-0.224,1.438-0.519,2.753-0.882,3.948c0.616,0.84,1.166,1.638,1.651,2.394L872.23,475.281z M876.332,475.926
			c-0.401-0.69-0.873-1.466-1.414-2.324c-0.561,1.372-1.218,2.548-1.975,3.528l-0.644-0.771c0.793-1.073,1.446-2.319,1.96-3.738
			c-0.69-1.017-1.33-1.885-1.918-2.604l0.63-0.602c0.569,0.644,1.12,1.349,1.652,2.113c0.289-0.971,0.536-2.1,0.742-3.388
			l0.951,0.168c-0.252,1.55-0.588,2.954-1.008,4.214c0.588,0.896,1.157,1.806,1.708,2.73L876.332,475.926z"/>
		<path class="st5" d="M883.71,465.958c-0.7,1.819-1.4,3.257-2.101,4.312c0.579-0.084,1.186-0.182,1.82-0.294l0.742-1.498
			l0.868,0.322c-1.195,2.352-2.189,4.036-2.982,5.054c0.999-0.215,1.983-0.499,2.954-0.854v0.909
			c-1.466,0.514-2.842,0.859-4.13,1.036l-0.266-0.91c0.187-0.084,0.336-0.182,0.447-0.294c0.532-0.588,1.157-1.535,1.876-2.842
			c-0.774,0.141-1.535,0.267-2.281,0.378l-0.253-0.924c0.159-0.074,0.299-0.2,0.421-0.378c0.736-1.26,1.386-2.721,1.945-4.382
			L883.71,465.958z M885.278,476.626c-1.334,0.513-2.897,0.942-4.689,1.287l-0.126-0.993c1.82-0.309,3.425-0.724,4.815-1.246
			V476.626z M888.47,465.775c-0.084,0.29-0.215,0.658-0.392,1.106h3.794v0.728c-0.514,1.157-1.256,2.18-2.227,3.066
			c0.98,0.719,2.161,1.273,3.542,1.666l-0.574,0.826c-1.483-0.448-2.721-1.073-3.71-1.876c-1.026,0.765-2.221,1.414-3.584,1.945
			l-0.615-0.812c1.381-0.514,2.538-1.11,3.472-1.792c-0.504-0.504-0.957-1.083-1.358-1.736c-0.392,0.467-0.812,0.882-1.26,1.246
			l-0.588-0.784c1.241-1.017,2.086-2.272,2.534-3.766L888.47,465.775z M891.872,473.21v5.166h-0.967v-0.603h-3.821v0.603h-0.966
			v-5.166H891.872z M887.084,476.85h3.821v-2.716h-3.821V476.85z M887.363,468.184c0.43,0.719,0.938,1.344,1.526,1.876
			c0.803-0.69,1.433-1.451,1.89-2.282h-3.163L887.363,468.184z"/>
		<path class="st5" d="M894.756,466.672h2.478v-1.064h0.98v1.064h4.83v-1.064h0.979v1.064h2.479v0.854h-2.479v4.634h2.688v0.896
			h-2.912c0.672,0.84,1.713,1.498,3.122,1.974l-0.406,0.868c-1.736-0.728-2.968-1.675-3.696-2.842h-4.396
			c-0.729,1.167-1.904,2.128-3.528,2.884l-0.518-0.854c1.381-0.532,2.408-1.209,3.08-2.03h-2.912v-0.896h2.688v-4.634h-2.478
			L894.756,466.672L894.756,466.672z M900.146,473.546h0.98v1.12h2.842v0.896h-2.842v1.484h4.802v0.938h-10.682v-0.938h4.899v-1.484
			h-2.87v-0.896h2.87L900.146,473.546L900.146,473.546z M898.214,468.561h4.83v-1.036h-4.83V468.561z M898.214,470.353h4.83v-0.994
			h-4.83V470.353z M898.214,472.159h4.83v-1.008h-4.83V472.159z"/>
		<path class="st5" d="M909.19,466.084c0.98,1.26,1.713,2.323,2.198,3.191l-0.84,0.574c-0.522-0.942-1.26-2.021-2.212-3.234
			L909.19,466.084z M911.458,472.537c-0.607,1.961-1.325,3.902-2.156,5.824l-0.952-0.405c0.868-1.951,1.601-3.879,2.198-5.782
			L911.458,472.537z M913.866,477.703v0.771h-0.98v-8.26c-0.392,0.635-0.835,1.265-1.33,1.89l-0.336-1.063
			c1.213-1.643,2.072-3.458,2.576-5.446l0.966,0.196c-0.205,0.765-0.457,1.507-0.756,2.226h2.981
			c-0.224-0.803-0.494-1.549-0.812-2.24l0.966-0.28c0.317,0.822,0.574,1.615,0.771,2.381l-0.378,0.14h3.149v0.952h-2.954v1.918h2.66
			v0.938h-2.66v1.918h2.688v0.938h-2.688v2.086h3.248v0.938h-7.111V477.703z M916.764,468.968h-2.897v1.918h2.897V468.968z
			 M913.866,471.823v1.918h2.897v-1.918H913.866z M913.866,474.68v2.086h2.897v-2.086H913.866z"/>
	</g>
	<g>
		<path class="st5" d="M813.066,518.229h1.022v1.554c-0.047,1.224-0.248,2.296-0.603,3.221h4.564v0.938h-4.998
			c-0.112,0.206-0.262,0.435-0.448,0.687c1.923,0.69,3.715,1.54,5.376,2.548l-0.56,0.868c-1.783-1.13-3.589-2.035-5.418-2.717
			c-1.13,1.102-2.898,1.979-5.307,2.633l-0.546-0.854c2.585-0.69,4.382-1.596,5.391-2.716l0.321-0.448h-6.006v-0.938h6.524
			c0.41-0.915,0.639-1.988,0.686-3.221v-1.555H813.066z M817.686,516.577v2.801h-1.021v-1.862h-9.381v1.932h-1.021v-2.87h5.32
			c-0.196-0.55-0.397-1.026-0.603-1.428l1.064-0.168c0.168,0.401,0.345,0.934,0.531,1.596h5.111L817.686,516.577L817.686,516.577z
			 M807.984,520.203c1.073,0.421,2.03,0.915,2.87,1.484l-0.518,0.798c-0.934-0.672-1.886-1.185-2.856-1.54L807.984,520.203z
			 M808.823,518.075c0.98,0.374,1.914,0.854,2.801,1.442l-0.504,0.798c-0.943-0.672-1.872-1.181-2.786-1.525L808.823,518.075z"/>
		<path class="st5" d="M824.154,516.172v10.317h-0.979v-0.938h-2.072v1.273h-0.979v-10.653L824.154,516.172L824.154,516.172z
			 M821.102,520.302h2.072v-3.206h-2.072V520.302z M821.102,524.613h2.072v-3.374h-2.072V524.613z M826.912,527.819l-0.211-0.979
			c1.083,0.037,1.857,0.056,2.324,0.056c0.411,0,0.616-0.22,0.616-0.658v-7.574h-4.844v-0.966h4.844v-2.464h1.022v2.464h1.722v0.966
			h-1.722v7.826c0,0.887-0.435,1.33-1.303,1.33L826.912,527.819L826.912,527.819z M826.17,520.344
			c0.887,1.344,1.554,2.492,2.002,3.443l-0.84,0.589c-0.514-1.093-1.177-2.264-1.988-3.515L826.17,520.344z"/>
		<path class="st5" d="M834.598,519.42l1.106-3.893l0.993,0.168l-0.798,2.758h2.45c0.28-1.101,0.504-2.244,0.672-3.43l1.022,0.126
			c-0.168,1.102-0.388,2.203-0.658,3.304h6.552v0.967h-6.817c-0.196,0.662-0.374,1.194-0.532,1.596h5.726v0.868
			c-0.383,1.213-1.144,2.306-2.282,3.275c1.13,0.673,2.511,1.288,4.145,1.849l-0.519,0.938c-1.792-0.662-3.275-1.377-4.451-2.142
			c-1.13,0.793-2.554,1.525-4.271,2.198l-0.532-0.938c1.559-0.569,2.865-1.199,3.92-1.89c-1.082-0.831-1.857-1.741-2.323-2.73
			c-1.018,2.203-2.329,3.958-3.935,5.265l-0.518-0.925c2.034-1.782,3.542-4.237,4.521-7.363h-3.471L834.598,519.42L834.598,519.42z
			 M838.756,521.939c0.476,0.952,1.273,1.834,2.394,2.646c1.036-0.813,1.75-1.694,2.143-2.646H838.756z M842.396,515.136
			c0.98,0.747,1.815,1.517,2.506,2.31l-0.714,0.714c-0.569-0.718-1.391-1.507-2.464-2.365L842.396,515.136z"/>
		<path class="st5" d="M847.856,520.302h1.61v-3.276h-1.792v-0.966h4.592v0.966h-1.764v3.276h1.567v0.979h-1.567v3.179
			c0.56-0.187,1.157-0.411,1.792-0.673v0.967c-1.354,0.551-2.838,1.017-4.452,1.399l-0.238-0.966
			c0.616-0.112,1.236-0.252,1.862-0.42v-3.486h-1.61V520.302z M855.612,517.642h0.966v3.416c-0.056,1.876-0.434,3.374-1.134,4.494
			c-0.681,1.045-1.801,1.861-3.359,2.45l-0.546-0.854c1.521-0.588,2.58-1.344,3.178-2.268c0.569-0.999,0.868-2.272,0.896-3.822
			L855.612,517.642L855.612,517.642z M859.266,515.682v7.742h-1.022v-6.776h-4.199v6.776h-0.994v-7.742H859.266z M857.502,527.735
			c-0.766,0-1.148-0.387-1.148-1.162v-3.206h1.008v2.996c0,0.299,0.145,0.448,0.435,0.448h0.979c0.225,0,0.388-0.075,0.49-0.224
			c0.112-0.178,0.196-0.705,0.252-1.582l0.938,0.294c-0.084,1.157-0.248,1.861-0.49,2.113c-0.233,0.215-0.569,0.322-1.008,0.322
			L857.502,527.735L857.502,527.735z"/>
		<path class="st5" d="M867.47,517.88c-0.028,1.362-0.187,2.697-0.476,4.004l-0.826-0.238c0.299-1.204,0.467-2.478,0.504-3.822
			L867.47,517.88z M868.184,515.163h1.022v12.74h-1.022V515.163z M870.186,517.529c0.299,0.663,0.569,1.452,0.813,2.366
			c0.485-1.232,0.761-2.534,0.826-3.906l0.909,0.126c-0.027,0.588-0.084,1.148-0.168,1.681h2.002v-2.618h1.036v2.618h3.052v0.979
			h-3.052v3.374h2.842v0.994h-2.842v3.416h3.416v0.98h-8.456v-0.98h4.004v-3.416h-3.206v-0.994h3.206v-3.374h-2.184
			c-0.252,1.027-0.621,1.97-1.106,2.828l-0.756-0.672c0.159-0.308,0.299-0.603,0.42-0.882l-0.699,0.182
			c-0.215-0.868-0.481-1.689-0.799-2.464L870.186,517.529z"/>
		<path class="st5" d="M885.334,516.115c0.868,1.177,1.521,2.161,1.96,2.954l-0.826,0.588c-0.149-0.308-0.317-0.615-0.504-0.924
			c-1.447,0.233-3.234,0.406-5.362,0.519l-0.28-0.841c0.168-0.046,0.322-0.135,0.463-0.266c0.886-0.914,1.604-1.923,2.155-3.024
			l0.952,0.295c-0.653,1.26-1.362,2.239-2.128,2.939c1.241-0.074,2.487-0.191,3.738-0.35c-0.317-0.485-0.635-0.952-0.952-1.4
			L885.334,516.115z M882.113,525.313v2.674h-0.966v-7.896h5.236v6.565c0,0.821-0.392,1.232-1.176,1.232h-1.162l-0.252-0.952
			l1.078,0.042c0.354,0,0.531-0.178,0.531-0.532v-1.134L882.113,525.313L882.113,525.313L882.113,525.313z M885.404,522.317v-1.344
			h-3.29v1.344H885.404z M882.113,523.157v1.303h3.29v-1.303H882.113z M888.946,521.197c-0.867,0-1.302-0.466-1.302-1.399v-4.677
			h0.994v1.862c1.512-0.233,2.772-0.48,3.78-0.742l0.321,0.883c-1.231,0.308-2.599,0.569-4.102,0.783v1.681
			c0,0.467,0.196,0.699,0.588,0.699h1.834c0.28,0,0.477-0.069,0.588-0.21c0.131-0.177,0.225-0.694,0.28-1.554l0.938,0.294
			c-0.094,1.111-0.271,1.797-0.532,2.059c-0.233,0.215-0.593,0.321-1.078,0.321L888.946,521.197L888.946,521.197z M888.666,526.336
			c0,0.336,0.182,0.504,0.546,0.504h1.834c0.28,0,0.476-0.07,0.588-0.21c0.14-0.178,0.238-0.705,0.294-1.582l0.924,0.294
			c-0.093,1.129-0.271,1.824-0.532,2.086c-0.233,0.215-0.597,0.322-1.092,0.322h-2.296c-0.84,0-1.26-0.401-1.26-1.204v-4.774h0.994
			v1.722c1.409-0.14,2.66-0.378,3.752-0.714l0.321,0.896c-1.213,0.354-2.571,0.602-4.073,0.742L888.666,526.336L888.666,526.336z"/>
		<path class="st5" d="M894.574,517.768h3.178c0.429-0.887,0.788-1.778,1.078-2.674l0.952,0.336
			c-0.318,0.915-0.658,1.694-1.022,2.338h1.372v0.91h-1.148v2.926h1.19v0.924h-1.19v5.391h-0.966v-5.391h-1.498
			c-0.131,2.353-0.625,4.098-1.483,5.236l-0.742-0.672c0.737-1.018,1.152-2.539,1.246-4.564h-1.204v-0.924h1.231v-2.926h-0.993
			L894.574,517.768L894.574,517.768z M895.68,515.149c0.42,0.653,0.813,1.382,1.176,2.185l-0.854,0.42
			c-0.364-0.831-0.747-1.563-1.148-2.198L895.68,515.149z M896.548,518.678v2.926h1.47v-2.926H896.548z M900.202,515.695h6.397v0.98
			h-4.214l-0.168,1.876h3.178v7.882c0,0.215,0.089,0.322,0.267,0.322h0.279c0.131-0.01,0.238-0.131,0.322-0.364
			c0.047-0.177,0.098-0.966,0.154-2.366l0.84,0.28c-0.084,1.465-0.196,2.394-0.336,2.786c-0.14,0.354-0.416,0.532-0.826,0.532h-0.63
			c-0.69,0-1.036-0.337-1.036-1.009v-7.084h-2.31c-0.299,2.94-0.593,5.297-0.883,7.07c0.7-0.215,1.503-0.527,2.408-0.938l0.21,0.925
			c-0.952,0.429-2.175,0.83-3.668,1.204l-0.308-0.938c0.196-0.047,0.336-0.163,0.42-0.35c0.364-2.314,0.732-5.591,1.105-9.828H900.2
			v-0.98H900.202z M902.904,521.239c0.598,0.999,1.036,1.83,1.316,2.492l-0.784,0.532c-0.28-0.69-0.705-1.549-1.273-2.576
			L902.904,521.239z"/>
		<path class="st5" d="M908.756,521.617l-0.603-0.798c2.072-0.989,3.496-2.37,4.271-4.144h-3.892v-0.952h4.997v0.784
			c-0.299,0.821-0.681,1.549-1.147,2.184c0.887,0.719,1.652,1.451,2.296,2.198l-0.7,0.714c-0.588-0.737-1.312-1.475-2.17-2.212
			C910.987,520.287,909.969,521.029,908.756,521.617z M914.328,526.504c-1.746,0.345-3.733,0.625-5.965,0.84l-0.126-0.966
			c1.111-0.103,1.97-0.191,2.576-0.267v-2.897h-2.212v-0.98h5.418v0.98h-2.24v2.771c0.813-0.111,1.662-0.247,2.549-0.406
			L914.328,526.504L914.328,526.504z M917.296,520.021h0.938v2.408c-0.027,1.475-0.326,2.669-0.896,3.584
			c-0.561,0.84-1.466,1.488-2.716,1.946l-0.519-0.813c1.194-0.448,2.025-1.031,2.492-1.75c0.438-0.765,0.672-1.755,0.7-2.968
			L917.296,520.021L917.296,520.021L917.296,520.021z M914.552,515.71h6.37v0.951h-2.716c-0.057,0.682-0.104,1.195-0.141,1.54h2.422
			v6.595h-0.979v-5.67h-3.472v5.726h-0.967v-6.65h1.975c0.065-0.484,0.121-0.998,0.168-1.54h-2.66L914.552,515.71L914.552,515.71z
			 M918.696,524.977c0.925,0.784,1.708,1.554,2.353,2.31l-0.672,0.673c-0.551-0.729-1.33-1.513-2.338-2.353L918.696,524.977z"/>
	</g>
	<g>
		<path class="st5" d="M812.338,564.774c1.782,2.063,3.836,3.683,6.16,4.858l-0.547,0.966c-2.333-1.26-4.325-2.898-5.978-4.914
			c-1.512,1.886-3.523,3.533-6.034,4.942l-0.532-0.967c2.483-1.307,4.551-2.935,6.202-4.886L812.338,564.774L812.338,564.774z
			 M816.398,571.971v5.642h-0.979v-0.84h-6.889v0.84h-0.979v-5.642H816.398z M808.334,569.227h7.279v0.966h-7.279V569.227z
			 M808.529,575.807h6.889v-2.884h-6.889V575.807z"/>
		<path class="st5" d="M819.884,569.969h1.498v-3.304h-1.694v-0.952h4.41v0.952h-1.68v3.304h1.525v0.979h-1.525v3.137
			c0.56-0.196,1.12-0.42,1.68-0.673v0.967c-1.279,0.56-2.726,1.045-4.34,1.456l-0.252-0.967c0.588-0.121,1.213-0.271,1.876-0.447
			v-3.473h-1.498L819.884,569.969L819.884,569.969z M824.924,565.335h6.733v6.481h-2.855v1.708h3.08v0.938h-3.08v1.777h3.528v0.967
			h-8.064v-0.967h3.528v-1.777h-3.108v-0.938h3.108v-1.708h-2.87V565.335z M825.89,568.148h1.904v-1.918h-1.904V568.148z
			 M827.794,570.921v-1.904h-1.904v1.904H827.794z M828.802,566.23v1.918h1.89v-1.918H828.802z M830.692,570.921v-1.904h-1.89v1.904
			H830.692z"/>
		<path class="st5" d="M833.996,577.501l-0.211-0.98c0.635,0.037,1.083,0.056,1.345,0.056c0.401,0,0.602-0.21,0.602-0.63v-3.332
			c-0.644,0.206-1.288,0.401-1.932,0.588l-0.252-0.966c0.746-0.168,1.475-0.363,2.184-0.588v-3.206h-1.946v-0.966h1.946v-2.632
			h1.022v2.632h1.693v0.966h-1.693v2.842c0.494-0.195,1.055-0.442,1.68-0.741v1.008c-0.373,0.168-0.934,0.401-1.68,0.7v3.947
			c0,0.868-0.425,1.303-1.274,1.303h-1.484L833.996,577.501L833.996,577.501z M838.266,565.587h7.91v0.979h-4.256
			c-0.206,1.382-0.537,2.613-0.994,3.696h4.62v7.378h-0.98v-0.658h-3.78v0.658h-0.966v-5.348c-0.522,0.774-1.147,1.475-1.876,2.1
			l-0.476-0.924c1.932-1.681,3.084-3.98,3.458-6.902h-2.66V565.587L838.266,565.587z M844.566,576.03v-4.815h-3.78v4.815H844.566z"
			/>
		<path class="st5" d="M849.662,573.385c-0.28,1.567-0.742,2.981-1.387,4.242l-0.812-0.729c0.961-1.773,1.446-4.051,1.456-6.832
			v-4.731h10.388v3.359h-1.946v1.414h2.198v0.896h-2.198v1.456h2.66v0.924h-4.494c0.346,0.606,0.798,1.162,1.358,1.666
			c0.644-0.346,1.246-0.873,1.806-1.582l0.7,0.686c-0.522,0.635-1.097,1.13-1.722,1.484c0.803,0.514,1.735,0.882,2.8,1.105
			l-0.49,0.952c-2.576-0.644-4.396-2.081-5.46-4.312h-1.904v3.052c0.841-0.205,1.629-0.462,2.366-0.77l0.196,0.924
			c-1.036,0.383-2.296,0.723-3.78,1.021l-0.28-0.882c0.337-0.131,0.505-0.364,0.505-0.7v-2.646h-1.96L849.662,573.385
			L849.662,573.385z M850.544,570.108h2.044v-1.414h-2.646v1.372c0,0.756-0.047,1.554-0.14,2.395h2.786v-1.456h-2.044V570.108z
			 M858.3,566.259h-8.358v1.525h8.358V566.259z M856.382,568.694h-2.828v1.414h2.828V568.694z M853.554,572.461h2.828v-1.456h-2.828
			V572.461z"/>
		<path class="st5" d="M870.228,571.845c-0.317,0.532-0.695,1.018-1.134,1.456v4.382h-0.938v-3.57c-0.504,0.374-0.993,0.7-1.47,0.98
			l-0.266-0.91c1.362-0.784,2.361-1.694,2.996-2.73L870.228,571.845z M870.088,569.366c-0.672,1.046-1.75,1.965-3.234,2.759
			l-0.279-0.896c1.26-0.644,2.17-1.386,2.729-2.226L870.088,569.366z M871.306,573.805v-2.702c-0.233,0.215-0.495,0.42-0.784,0.616
			l-0.532-0.687c0.868-0.578,1.503-1.273,1.904-2.086h-4.424v-2.31h3.164v-0.729h-3.948v-0.812H878.6v0.812h-3.962v0.729h3.178v2.31
			h-4.97c-0.084,0.196-0.191,0.42-0.322,0.672h5.88v0.673h-6.327c-0.262,0.299-0.458,0.513-0.589,0.644h6.188v2.87h-4.13
			c-0.131,0.243-0.275,0.453-0.435,0.63h4.578v0.588c-0.457,0.542-1.045,1.004-1.764,1.386c0.971,0.187,1.988,0.317,3.052,0.393
			l-0.42,0.826c-1.465-0.168-2.739-0.406-3.822-0.715c-1.223,0.401-2.674,0.649-4.354,0.742l-0.364-0.798
			c1.362-0.056,2.501-0.191,3.416-0.406c-0.682-0.279-1.251-0.602-1.708-0.966c-0.326,0.168-0.742,0.332-1.246,0.49l-0.42-0.742
			c1.241-0.336,2.086-0.812,2.534-1.428H871.306L871.306,573.805z M870.634,568.261v-0.938h-2.212v0.938H870.634z M873.728,566.637
			v-0.729h-2.184v0.729H873.728z M873.728,568.261v-0.938h-2.184v0.938H873.728z M872.202,572.11h4.577v-0.588h-4.577V572.11z
			 M876.779,573.217v-0.603h-4.577v0.603H876.779z M876.472,575.093h-4.088c-0.028,0-0.042,0.009-0.042,0.027
			c0.578,0.393,1.344,0.72,2.296,0.98C875.375,575.83,875.987,575.494,876.472,575.093z M876.863,568.261v-0.938h-2.226v0.938
			H876.863z"/>
		<path class="st5" d="M891.27,572.74v3.458h1.597v0.952h-12.461v-0.952h1.526v-3.458H891.27L891.27,572.74z M881.05,566.398h3.178
			c-0.242-0.588-0.485-1.087-0.728-1.498l1.008-0.168c0.242,0.477,0.48,1.031,0.714,1.666h2.814
			c0.326-0.551,0.564-1.124,0.714-1.722l0.994,0.14c-0.178,0.588-0.406,1.115-0.687,1.582h3.164v0.91h-5.068v1.26h4.354v0.882
			h-4.354v1.219h5.586v0.938h-12.207v-0.938h5.586v-1.219h-4.299v-0.882h4.299v-1.26h-5.068V566.398z M882.912,576.198h1.903v-2.533
			h-1.903V576.198z M885.712,576.198h1.834v-2.533h-1.834V576.198z M888.442,576.198h1.849v-2.533h-1.849V576.198z"/>
		<path class="st5" d="M898.886,574.421c-1.335,0.597-2.814,1.11-4.438,1.54l-0.252-1.009c0.569-0.121,1.181-0.271,1.834-0.447
			v-4.956h-1.651v-0.98h1.651v-3.724h1.009v3.724h1.567v0.98h-1.567v4.62c0.634-0.225,1.25-0.477,1.848-0.757L898.886,574.421
			L898.886,574.421L898.886,574.421z M906.516,567.169c0,2.986-0.07,4.802-0.21,5.445c-0.131,0.626-0.667,0.938-1.61,0.938h-0.237
			l-0.309-1.008l0.756,0.014c0.29,0,0.467-0.168,0.532-0.504c0.065-0.364,0.099-1.554,0.099-3.57l-1.946,0.574v5.558h-0.966v-5.277
			l-1.778,0.531v5.853c0,0.467,0.224,0.7,0.672,0.7h3.599c0.298,0,0.508-0.099,0.63-0.294c0.158-0.225,0.266-0.92,0.321-2.086
			l0.938,0.294c-0.103,1.456-0.289,2.333-0.561,2.632c-0.252,0.271-0.63,0.406-1.134,0.406h-4.102c-0.896,0-1.344-0.486-1.344-1.456
			v-5.754l-1.009,0.294v-0.994l1.009-0.309v-2.939h0.979v2.646l1.778-0.532v-3.542h0.966v3.248L906.516,567.169z"/>
		<path class="st5" d="M908.405,568.513h1.372v-3.696h0.994v3.696h1.33v0.979h-1.33v4.229c0.401-0.178,0.84-0.393,1.316-0.645v1.009
			c-1.102,0.588-2.287,1.077-3.556,1.47l-0.253-1.022c0.569-0.14,1.069-0.284,1.498-0.434v-4.606h-1.372L908.405,568.513
			L908.405,568.513z M916.358,574.757c-1.372,0.531-2.855,0.979-4.452,1.344l-0.237-0.966c1.614-0.28,3.178-0.709,4.689-1.288
			V574.757L916.358,574.757z M912.116,566.692h4.955c-0.009-0.41-0.014-1.04-0.014-1.89h0.98c0,0.858,0.004,1.488,0.014,1.89h1.428
			c-0.215-0.578-0.42-1.059-0.616-1.441l0.91-0.154c0.187,0.457,0.369,0.989,0.546,1.596h0.687v0.952h-2.94
			c0.047,2.165,0.145,3.925,0.294,5.278c0.561-1.204,0.989-2.571,1.288-4.103l0.868,0.364c-0.467,2.119-1.11,3.873-1.932,5.264
			c0.279,1.326,0.597,2.017,0.952,2.072c0.271-0.028,0.546-0.732,0.825-2.114l0.757,0.616c-0.448,1.68-0.976,2.521-1.582,2.521
			c-0.458,0-0.868-0.364-1.232-1.093c-0.159-0.345-0.289-0.676-0.392-0.993c-0.682,0.886-1.461,1.601-2.338,2.142l-0.616-0.798
			c1.055-0.606,1.941-1.461,2.66-2.563c-0.065-0.298-0.131-0.714-0.196-1.246c-0.178-1.399-0.289-3.183-0.336-5.348h-4.97V566.692
			L912.116,566.692z M912.676,569.03h3.556v3.948h-3.556V569.03z M915.336,572.152v-2.282h-1.778v2.282H915.336z"/>
	</g>
	<g id="XMLID_10591_">
		<path class="st17" d="M933.43,368.782h-6v1h6V368.782L933.43,368.782z M923.43,368.782h-6v1h6V368.782L923.43,368.782z
			 M913.43,368.782h-6v1h6V368.782L913.43,368.782z M903.43,368.782h-6v1h6V368.782L903.43,368.782z M893.43,368.782h-6v1h6V368.782
			L893.43,368.782z M883.43,368.782h-6v1h6V368.782L883.43,368.782z M873.43,368.782h-6v1h6V368.782L873.43,368.782z
			 M863.43,368.782h-6v1h6V368.782L863.43,368.782z M853.43,368.782h-6v1h6V368.782L853.43,368.782z M843.43,368.782h-6v1h6V368.782
			L843.43,368.782z M833.43,368.782h-6v1h6V368.782L833.43,368.782z M823.43,368.782h-6v1h6V368.782L823.43,368.782z
			 M813.43,368.782h-6v1h6V368.782L813.43,368.782z M803.43,368.782h-6v1h6V368.782L803.43,368.782z M793.43,368.782h-6v1h6V368.782
			L793.43,368.782z M784.43,368.782h-1v6h1V368.782L784.43,368.782z M784.43,378.782h-1v6h1V378.782L784.43,378.782z
			 M784.43,388.782h-1v6h1V388.782L784.43,388.782z M784.43,398.782h-1v6h1V398.782L784.43,398.782z M784.43,408.782h-1v6h1V408.782
			L784.43,408.782z M784.43,418.782h-1v6h1V418.782L784.43,418.782z M784.43,428.782h-1v6h1V428.782L784.43,428.782z
			 M784.43,438.782h-1v6h1V438.782L784.43,438.782z M784.43,448.782h-1v6h1V448.782L784.43,448.782z M784.43,458.782h-1v6h1V458.782
			L784.43,458.782z M784.43,468.782h-1v6h1V468.782L784.43,468.782z M784.43,478.782h-1v6h1V478.782L784.43,478.782z
			 M784.43,488.782h-1v6h1V488.782L784.43,488.782z M784.43,498.782h-1v6h1V498.782L784.43,498.782z M784.43,508.782h-1v6h1V508.782
			L784.43,508.782z M784.43,518.782h-1v6h1V518.782L784.43,518.782z M784.43,528.782h-1v6h1V528.782L784.43,528.782z
			 M784.43,538.782h-1v6h1V538.782L784.43,538.782z M784.43,548.782h-1v6h1V548.782L784.43,548.782z M784.43,558.782h-1v6h1V558.782
			L784.43,558.782z M784.43,568.782h-1v6h1V568.782L784.43,568.782z M784.43,578.782h-1v6h1V578.782L784.43,578.782z
			 M784.43,588.782h-1v6h1V588.782L784.43,588.782z M784.43,598.782h-1v5.603h1l0,0l0,0l0,0V598.782L784.43,598.782z
			 M793.827,603.385h-6v1h6V603.385L793.827,603.385z M803.827,603.385h-6v1h6V603.385L803.827,603.385z M813.827,603.385h-6v1h6
			V603.385L813.827,603.385z M823.827,603.385h-6v1h6V603.385L823.827,603.385z M833.827,603.385h-6v1h6V603.385L833.827,603.385z
			 M843.827,603.385h-6v1h6V603.385L843.827,603.385z M853.827,603.385h-6v1h6V603.385L853.827,603.385z M863.827,603.385h-6v1h6
			V603.385L863.827,603.385z M873.827,603.385h-6v1h6V603.385L873.827,603.385z M883.827,603.385h-6v1h6V603.385L883.827,603.385z
			 M893.827,603.385h-6v1h6V603.385L893.827,603.385z M903.827,603.385h-6v1h6V603.385L903.827,603.385z M913.827,603.385h-6v1h6
			V603.385L913.827,603.385z M923.827,603.385h-6v1h6V603.385L923.827,603.385z M933.827,603.385h-6v1h6V603.385L933.827,603.385z
			 M943.43,603.385h-5.603v1h5.603V603.385L943.43,603.385z M943.43,593.988h-1v6h1V593.988L943.43,593.988z M943.43,583.988h-1v6h1
			V583.988L943.43,583.988z M943.43,573.988h-1v6h1V573.988L943.43,573.988z M943.43,563.988h-1v6h1V563.988L943.43,563.988z
			 M943.43,553.988h-1v6h1V553.988L943.43,553.988z M943.43,543.988h-1v6h1V543.988L943.43,543.988z M943.43,533.988h-1v6h1V533.988
			L943.43,533.988z M943.43,523.988h-1v6h1V523.988L943.43,523.988z M943.43,513.988h-1v6h1V513.988L943.43,513.988z
			 M943.43,503.988h-1v6h1V503.988L943.43,503.988z M943.43,493.988h-1v6h1V493.988L943.43,493.988z M943.43,483.988h-1v6h1V483.988
			L943.43,483.988z M943.43,473.988h-1v6h1V473.988L943.43,473.988z M943.43,463.988h-1v6h1V463.988L943.43,463.988z
			 M943.43,453.988h-1v6h1V453.988L943.43,453.988z M943.43,443.988h-1v6h1V443.988L943.43,443.988z M943.43,433.988h-1v6h1V433.988
			L943.43,433.988z M943.43,423.988h-1v6h1V423.988L943.43,423.988z M943.43,413.988h-1v6h1V413.988L943.43,413.988z
			 M943.43,403.988h-1v6h1V403.988L943.43,403.988z M943.43,393.988h-1v6h1V393.988L943.43,393.988z M943.43,383.988h-1v6h1V383.988
			L943.43,383.988z M943.43,373.988h-1v6h1V373.988L943.43,373.988z M943.43,368.782h-6v1h5v0.206h1V368.782L943.43,368.782z"/>
	</g>
	<g>
		<path class="st5" d="M802.459,379.386c1.802,2.11,3.874,3.771,6.217,4.984l-0.406,0.7c-2.38-1.278-4.41-2.944-6.09-4.998
			c-1.54,1.932-3.589,3.607-6.146,5.026l-0.392-0.715c2.511-1.344,4.597-3.01,6.258-4.998L802.459,379.386L802.459,379.386z
			 M806.506,386.624v5.502h-0.742v-0.91h-7.168v0.91h-0.742v-5.502H806.506z M798.568,383.894h7.224v0.741h-7.224V383.894z
			 M798.596,390.488h7.168v-3.136h-7.168V390.488z"/>
		<path class="st5" d="M810.132,384.65h1.596v-3.557h-1.806v-0.728h4.354v0.728h-1.792v3.557h1.624v0.728h-1.624v3.431
			c0.606-0.215,1.213-0.453,1.82-0.715v0.729c-1.335,0.588-2.8,1.078-4.396,1.47l-0.182-0.714c0.606-0.121,1.273-0.294,2.002-0.518
			v-3.683h-1.596V384.65L810.132,384.65z M815.199,379.988h6.594v6.313h-2.911v1.919h3.191v0.728h-3.191v2.016h3.64v0.742h-8.036
			v-0.742h3.64v-2.016h-3.22v-0.728h3.22v-1.919H815.2L815.199,379.988L815.199,379.988z M815.942,382.802h2.184v-2.128h-2.184
			V382.802z M818.125,385.616v-2.142h-2.184v2.142H818.125z M818.882,380.674v2.128h2.17v-2.128H818.882z M821.052,385.616v-2.142
			h-2.17v2.142H821.052z"/>
		<path class="st5" d="M825.714,383.922c-0.551,0.803-1.144,1.526-1.778,2.17l-0.238-0.741c1.577-1.773,2.707-3.757,3.388-5.95
			l0.687,0.322c-0.336,1.017-0.766,2.002-1.288,2.953v9.479h-0.77L825.714,383.922L825.714,383.922z M827.646,382.886h2.828
			c0.019-0.429,0.027-0.751,0.027-0.966v-2.491h0.757v2.491l-0.028,0.966h4.914v0.729h-2.94v7.224c0,0.262,0.141,0.393,0.42,0.393
			h1.316c0.205,0,0.364-0.08,0.476-0.238c0.178-0.242,0.285-1.026,0.322-2.352l0.687,0.224c-0.084,1.447-0.238,2.338-0.462,2.674
			c-0.196,0.243-0.477,0.373-0.841,0.393h-1.693c-0.626,0-0.938-0.317-0.938-0.952v-7.364h-1.302
			c-0.299,3.799-1.438,6.632-3.416,8.498l-0.574-0.49c1.895-1.764,2.973-4.433,3.234-8.008h-2.786v-0.731L827.646,382.886
			L827.646,382.886z M833.19,379.681c0.896,0.625,1.656,1.269,2.282,1.932l-0.532,0.518c-0.569-0.625-1.316-1.283-2.24-1.974
			L833.19,379.681z"/>
		<path class="st5" d="M842.835,379.666c-0.504,1.176-1.124,2.259-1.861,3.248v9.269h-0.756v-8.33
			c-0.663,0.746-1.4,1.456-2.212,2.128l-0.238-0.784c2.007-1.708,3.458-3.658,4.354-5.853L842.835,379.666z M845.804,391.916
			c-0.896,0-1.345-0.438-1.345-1.315v-4.536c-0.681,0.392-1.344,0.742-1.987,1.05l-0.364-0.729c0.793-0.345,1.577-0.746,2.352-1.203
			v-5.74h0.757v5.264c1.54-1.008,2.889-2.175,4.046-3.5l0.518,0.588c-1.288,1.447-2.81,2.716-4.563,3.809v4.886
			c0,0.467,0.256,0.7,0.77,0.7h2.38c0.393,0,0.682-0.117,0.868-0.351c0.177-0.242,0.294-1.101,0.35-2.575l0.7,0.224
			c-0.084,1.614-0.242,2.595-0.476,2.939c-0.252,0.327-0.691,0.49-1.316,0.49L845.804,391.916L845.804,391.916z"/>
		<path class="st5" d="M861.106,392.057l-0.196-0.742l1.387,0.042c0.41,0,0.615-0.21,0.615-0.63v-9.982h-9.464v11.368h-0.756v-12.11
			h10.976v10.893c0,0.774-0.378,1.162-1.134,1.162h-1.428L861.106,392.057L861.106,392.057z M857.886,389.004
			c-0.495-0.765-0.999-1.512-1.513-2.239c-0.522,1.418-1.171,2.655-1.945,3.71l-0.49-0.589c0.784-1.092,1.428-2.37,1.932-3.836
			c-0.756-1.008-1.441-1.853-2.058-2.533l0.476-0.477c0.569,0.598,1.181,1.335,1.834,2.212c0.289-0.989,0.537-2.137,0.742-3.443
			l0.714,0.126c-0.233,1.483-0.541,2.828-0.924,4.031c0.504,0.682,1.083,1.531,1.736,2.549L857.886,389.004z M862.043,389.648
			c-0.494-0.831-1.021-1.685-1.581-2.563c-0.579,1.438-1.279,2.679-2.101,3.725l-0.476-0.588c0.821-1.073,1.512-2.366,2.071-3.879
			c-0.699-1.026-1.376-1.927-2.029-2.701l0.489-0.477c0.616,0.71,1.223,1.498,1.82,2.366c0.354-1.092,0.64-2.319,0.854-3.682
			l0.714,0.126c-0.262,1.577-0.611,3.015-1.05,4.312c0.597,0.905,1.194,1.857,1.792,2.856L862.043,389.648z"/>
		<path class="st5" d="M870.821,390.236c-1.381,0.532-2.944,0.966-4.689,1.302l-0.099-0.728c1.82-0.327,3.416-0.761,4.788-1.303
			V390.236z M869.17,379.652c-0.72,1.876-1.456,3.364-2.213,4.466c0.616-0.074,1.33-0.205,2.143-0.392l0.756-1.498l0.658,0.252
			c-1.251,2.482-2.296,4.228-3.136,5.235c1.045-0.205,2.104-0.494,3.178-0.867v0.686c-1.447,0.495-2.805,0.836-4.074,1.022
			l-0.21-0.715c0.131-0.056,0.247-0.126,0.35-0.21c0.579-0.625,1.279-1.685,2.101-3.178c-0.971,0.196-1.802,0.341-2.492,0.435
			l-0.182-0.7c0.13-0.065,0.237-0.159,0.321-0.28c0.813-1.307,1.508-2.818,2.086-4.536L869.17,379.652z M873.873,379.471
			c-0.131,0.41-0.284,0.821-0.462,1.231h3.92v0.574c-0.541,1.186-1.32,2.24-2.338,3.164c1.008,0.774,2.245,1.372,3.71,1.792
			l-0.434,0.616c-1.521-0.458-2.796-1.111-3.822-1.96c-1.055,0.812-2.277,1.493-3.668,2.044l-0.476-0.616
			c1.381-0.522,2.576-1.162,3.584-1.918c-0.598-0.569-1.111-1.218-1.54-1.946c-0.42,0.504-0.868,0.962-1.344,1.372l-0.448-0.588
			c1.288-1.073,2.151-2.371,2.59-3.893L873.873,379.471z M877.346,387.017v5.054h-0.729v-0.658h-4.158v0.658h-0.728v-5.054H877.346z
			 M872.459,390.712h4.158v-3.01h-4.158V390.712z M872.768,381.878c0.457,0.803,1.008,1.498,1.652,2.086
			c0.886-0.765,1.581-1.619,2.086-2.562h-3.444L872.768,381.878z"/>
		<path class="st5" d="M882.428,379.429h0.742v1.176l-0.015,0.14h2.716c-0.019,2.333-0.158,3.729-0.42,4.187
			c-0.279,0.447-0.751,0.672-1.414,0.672c-0.271,0-0.597-0.015-0.979-0.042l-0.196-0.687l1.008,0.057
			c0.532-0.019,0.868-0.215,1.009-0.589c0.13-0.336,0.21-1.302,0.237-2.897H883.1c-0.233,1.97-1.111,3.444-2.632,4.424l-0.561-0.504
			c1.409-0.868,2.227-2.175,2.45-3.92h-2.254v-0.7h2.31L882.428,379.429z M880.159,387.002h5.643v-1.231h0.756v1.231h5.656v0.714
			h-4.858c0.989,1.242,2.655,2.339,4.998,3.29l-0.519,0.645c-2.445-1.167-4.157-2.479-5.138-3.935h-0.14v4.41h-0.756v-4.41h-0.141
			c-1.055,1.624-2.81,2.954-5.264,3.99l-0.42-0.7c2.333-0.858,4.009-1.955,5.026-3.29h-4.845v-0.714L880.159,387.002
			L880.159,387.002z M887.258,380.52h4.325v4.605h-4.325V380.52z M890.869,384.426v-3.205h-2.884v3.205H890.869z"/>
		<path class="st5" d="M896.875,392.099h-0.741v-7.589c-0.514,1.597-1.209,3.011-2.086,4.242l-0.322-0.812
			c1.12-1.456,1.904-3.122,2.352-4.998h-2.058V382.2h2.114v-2.814h0.741v2.814h1.807v0.742h-1.807v0.994
			c0.673,0.709,1.358,1.507,2.059,2.394l-0.435,0.63c-0.56-0.849-1.101-1.586-1.624-2.212V392.099L896.875,392.099z
			 M901.384,379.442c-0.104,0.69-0.252,1.377-0.448,2.058h4.97c0,4.741-0.079,7.677-0.238,8.807
			c-0.158,1.138-0.783,1.708-1.876,1.708c-0.289,0-0.793-0.015-1.512-0.042l-0.168-0.673c0.588,0.028,1.106,0.042,1.554,0.042
			c0.719,0,1.148-0.383,1.288-1.147c0.131-0.868,0.205-3.528,0.225-7.98h-4.466c-0.383,1.111-0.864,2.091-1.442,2.94l-0.49-0.63
			c0.915-1.4,1.535-3.122,1.862-5.166L901.384,379.442z M899.27,388.444c0.392-0.224,1.092-1.755,2.1-4.592l0.687,0.252
			c-0.719,1.987-1.293,3.355-1.723,4.102c1.186-0.242,2.063-0.434,2.633-0.574c-0.159-0.457-0.388-1.035-0.687-1.735l0.658-0.21
			c0.476,1.092,0.896,2.268,1.26,3.527l-0.658,0.309c-0.121-0.467-0.247-0.9-0.378-1.302c-1.092,0.289-2.338,0.569-3.737,0.84
			L899.27,388.444z"/>
	</g>
</g>
<g id="XMLID_10443_">
	<line id="XMLID_10586_" class="st18" x1="776.464" y1="513.089" x2="739.464" y2="513.089"/>
	<polygon id="XMLID_10585_" class="st14" points="774.464,517.589 779.464,513.089 774.464,508.589 	"/>
</g>
<g id="XMLID_1_">
	<line id="XMLID_13_" class="st18" x1="624.784" y1="513.089" x2="584.784" y2="513.089"/>
	<polygon id="XMLID_12_" class="st14" points="622.784,517.589 627.784,513.089 622.784,508.589 	"/>
</g>
<g>
	<g id="XMLID_10504_">
		<rect x="630.797" y="418.085" class="st19" width="106" height="186.3"/>
	</g>
	<g>
		<g class="st15">
			<rect x="642.865" y="452.252" class="st16" width="84" height="40"/>
		</g>
		<g class="st15">
			<rect x="642.875" y="502.252" class="st16" width="84" height="40"/>
		</g>
		<g class="st15">
			<rect x="642.719" y="552.252" class="st16" width="84" height="40"/>
		</g>
		<g>
			<rect x="640.875" y="450.252" class="st11" width="84" height="40"/>
		</g>
		<g>
			<rect x="640.719" y="500.326" class="st11" width="84" height="40"/>
		</g>
		<g>
			<rect x="640.719" y="550.252" class="st11" width="84" height="40"/>
		</g>
	</g>
	<g>
		<path class="st5" d="M680.828,464.466c1.745,1.83,3.775,3.281,6.09,4.354l-0.504,0.896c-2.315-1.119-4.298-2.566-5.95-4.34
			c-1.521,1.689-3.523,3.16-6.006,4.41l-0.49-0.882c2.455-1.186,4.499-2.665,6.132-4.438L680.828,464.466L680.828,464.466z
			 M676.559,468.891h7.813v0.966h-3.389v2.436h4.047v0.967h-4.047v2.59h5.32v0.994h-11.662v-0.994h5.307v-2.59h-4.061v-0.967h4.061
			v-2.436h-3.389L676.559,468.891L676.559,468.891z"/>
		<path class="st5" d="M692.643,465.475v10.317h-0.979v-0.938h-2.072v1.273h-0.979v-10.653L692.643,465.475L692.643,465.475z
			 M689.593,469.605h2.072v-3.206h-2.072V469.605z M689.593,473.916h2.072v-3.374h-2.072V473.916z M695.403,477.122l-0.211-0.979
			c1.083,0.037,1.857,0.056,2.324,0.056c0.411,0,0.616-0.22,0.616-0.658v-7.574h-4.844v-0.966h4.844v-2.464h1.022v2.464h1.722v0.966
			h-1.722v7.826c0,0.887-0.435,1.33-1.303,1.33L695.403,477.122L695.403,477.122z M694.661,469.647
			c0.887,1.344,1.554,2.492,2.002,3.443l-0.84,0.589c-0.514-1.093-1.177-2.264-1.988-3.515L694.661,469.647z"/>
	</g>
	<g>
		<path class="st5" d="M680.828,514.966c1.745,1.83,3.775,3.281,6.09,4.354l-0.504,0.896c-2.315-1.119-4.298-2.566-5.95-4.34
			c-1.521,1.689-3.523,3.16-6.006,4.41l-0.49-0.882c2.455-1.186,4.499-2.665,6.132-4.438H680.828L680.828,514.966z M676.559,519.391
			h7.813v0.966h-3.389v2.436h4.047v0.967h-4.047v2.59h5.32v0.994h-11.662v-0.994h5.307v-2.59h-4.061v-0.967h4.061v-2.436h-3.389
			L676.559,519.391L676.559,519.391z"/>
		<path class="st5" d="M688.935,518.439c0.934,0.728,1.685,1.423,2.254,2.086l-0.714,0.714c-0.522-0.635-1.273-1.339-2.254-2.114
			L688.935,518.439z M691.258,522.498c-0.541,1.802-1.144,3.496-1.806,5.082l-0.938-0.406c0.719-1.604,1.335-3.275,1.849-5.012
			L691.258,522.498z M689.257,515.12c0.896,0.616,1.638,1.223,2.226,1.82l-0.714,0.714c-0.541-0.588-1.283-1.204-2.226-1.848
			L689.257,515.12z M693.877,521.406c-0.056,1.829-0.238,3.174-0.546,4.032c-0.336,0.887-0.901,1.656-1.694,2.31l-0.644-0.798
			c0.672-0.551,1.147-1.199,1.428-1.946c0.261-0.728,0.42-1.927,0.476-3.598H693.877z M692.085,519.922
			c0.084-0.027,0.154-0.056,0.21-0.084c0.522-0.326,1.204-1.185,2.044-2.575h-2.45v-0.91h3.906c-0.196-0.522-0.406-0.999-0.63-1.429
			l1.021-0.168c0.196,0.411,0.401,0.943,0.616,1.597h3.682v0.91h-5.109c-0.663,1.176-1.241,2.029-1.736,2.562
			c1.605-0.084,3.206-0.224,4.802-0.42c-0.41-0.541-0.728-0.952-0.951-1.232l0.825-0.489c0.943,1.129,1.666,2.133,2.17,3.01
			l-0.825,0.588c-0.075-0.131-0.29-0.485-0.645-1.064c-1.969,0.225-4.205,0.411-6.706,0.561L692.085,519.922z M695.164,521.42h1.021
			v6.063h-1.021V521.42z M698.86,527.622c-0.804,0-1.204-0.363-1.204-1.092v-5.11h0.966v4.929c0,0.205,0.089,0.321,0.266,0.35h0.616
			c0.252-0.028,0.392-0.191,0.42-0.49c0.056-0.336,0.084-0.877,0.084-1.624l0.882,0.336c0,1.232-0.084,1.988-0.252,2.269
			c-0.177,0.261-0.537,0.406-1.078,0.434h-0.7V527.622z"/>
	</g>
	<g>
		<path class="st5" d="M672.758,564.439h1.036v12.824h-1.036v-3.305h-4.27v-0.965h4.27v-2.226h-3.626v-0.98h3.626v-2.17h-3.947
			v-0.966h3.947V564.439z M676.034,564.439h1.036v2.212h3.934v0.966h-3.934v2.17h3.626v0.98h-3.626v2.226h4.158v0.965h-4.158v3.305
			h-1.036V564.439z"/>
		<path class="st5" d="M683.943,569.605c-0.393,0.579-0.803,1.11-1.232,1.596l-0.322-1.078c1.316-1.688,2.282-3.616,2.898-5.782
			l0.938,0.448c-0.336,1.111-0.765,2.17-1.287,3.178v9.324h-0.994L683.943,569.605L683.943,569.605z M694.864,570.221v2.323h-0.952
			v-1.47h-6.874v1.092h6.65v0.798c-0.485,0.868-1.214,1.624-2.185,2.268c1.008,0.467,2.249,0.863,3.725,1.189l-0.532,0.826
			c-1.643-0.401-3.006-0.892-4.088-1.47c-1.186,0.616-2.623,1.12-4.313,1.512l-0.364-0.882c1.475-0.308,2.726-0.7,3.752-1.176
			c-0.971-0.653-1.675-1.391-2.113-2.211h-0.546v-0.504h-0.925v-2.296L694.864,570.221L694.864,570.221z M693.898,569.353h-6.973
			v-0.826h6.048v-0.994h-5.642v-0.812h5.642v-0.994h-6.062v-0.813h6.986v4.439L693.898,569.353L693.898,569.353z M688.536,573.021
			c0.485,0.663,1.167,1.246,2.044,1.75c0.85-0.504,1.521-1.087,2.016-1.75H688.536z"/>
		<path class="st5" d="M699.987,564.956l0.84-0.532c1.232,0.859,2.286,2.432,3.164,4.719c1.315,3.351,3.075,5.716,5.278,7.097
			l-0.631,0.813c-2.259-1.363-4.111-3.901-5.558-7.616c-0.121-0.336-0.196-0.532-0.224-0.588c-0.925,3.574-2.856,6.313-5.796,8.217
			l-0.603-0.854c2.996-1.96,4.942-4.806,5.838-8.54C701.662,566.515,700.893,565.609,699.987,564.956z"/>
	</g>
	<path id="XMLID_10495_" class="st12" d="M650.128,436.618l0.693-0.677l1.32,3.668l0.633-0.637l0.804-0.793h1.196v1h-0.782
		l-0.157,0.146l-1.326,1.326l-0.802,0.73l-1.296-3.632l-0.637,0.637l-0.745,0.793h-1.255v-1c0.277,0,0.554,0,0.831,0
		C649.112,437.659,650.128,436.618,650.128,436.618z M652.719,429.179h-11v12h4.627c-0.406-0.771-0.621-1.628-0.627-2.5
		c0-3.038,2.462-5.5,5.5-5.5c0.508,0.007,1.013,0.086,1.5,0.233V429.179z M651.219,444.179c-1.632-0.005-3.176-0.738-4.21-2h-6.29
		v-14h13v5.627c2.7,1.372,3.777,4.673,2.405,7.373C655.185,443.025,653.288,444.185,651.219,444.179z M653.706,435.006
		L653.706,435.006c-0.312-0.202-0.648-0.365-1-0.484l0,0c-2.334-0.835-4.903,0.38-5.737,2.714c-0.479,1.34-0.295,2.828,0.497,4.01
		c0.065,0.1,0.145,0.179,0.217,0.269c0.072,0.09,0.15,0.193,0.234,0.283c0.153,0.16,0.317,0.309,0.489,0.448
		c1.94,1.545,4.765,1.224,6.309-0.715c1.545-1.94,1.224-4.765-0.715-6.309C653.905,435.146,653.807,435.074,653.706,435.006z
		 M642.719,431.179h7v1h-7V431.179z M646.719,435.179h-4v-1h4V435.179z M644.719,438.179h-2v-1h2V438.179z"/>
	<g>
		<path class="st12" d="M661.637,432.414c0.934,0.728,1.685,1.423,2.254,2.086l-0.714,0.714c-0.522-0.635-1.273-1.34-2.254-2.114
			L661.637,432.414z M663.961,436.473c-0.541,1.802-1.144,3.495-1.806,5.082l-0.938-0.406c0.719-1.604,1.335-3.275,1.849-5.012
			L663.961,436.473z M661.959,429.095c0.896,0.616,1.638,1.223,2.226,1.82l-0.714,0.714c-0.541-0.588-1.283-1.204-2.226-1.849
			L661.959,429.095z M666.579,435.382c-0.056,1.829-0.238,3.173-0.546,4.032c-0.336,0.887-0.901,1.656-1.694,2.31l-0.644-0.798
			c0.672-0.551,1.147-1.199,1.428-1.946c0.261-0.728,0.42-1.927,0.476-3.598H666.579z M664.787,433.897
			c0.084-0.027,0.154-0.056,0.21-0.084c0.522-0.326,1.204-1.185,2.044-2.576h-2.45v-0.909h3.906
			c-0.196-0.523-0.406-0.999-0.63-1.429l1.021-0.168c0.196,0.411,0.401,0.943,0.616,1.597h3.682v0.909h-5.109
			c-0.663,1.177-1.241,2.03-1.736,2.563c1.605-0.084,3.206-0.225,4.802-0.42c-0.41-0.541-0.728-0.952-0.951-1.232l0.825-0.49
			c0.943,1.13,1.666,2.133,2.17,3.011l-0.825,0.588c-0.075-0.131-0.29-0.485-0.645-1.064c-1.969,0.225-4.205,0.411-6.706,0.561
			L664.787,433.897z M667.867,435.395h1.021v6.063h-1.021V435.395z M671.563,441.597c-0.804,0-1.204-0.364-1.204-1.092v-5.11h0.966
			v4.928c0,0.206,0.089,0.322,0.266,0.351h0.616c0.252-0.028,0.392-0.191,0.42-0.49c0.056-0.336,0.084-0.877,0.084-1.624
			l0.882,0.336c0,1.232-0.084,1.988-0.252,2.269c-0.177,0.261-0.537,0.405-1.078,0.434H671.563z"/>
		<path class="st12" d="M684.583,429.46v12.208h-1.021v-1.064h-6.622v1.078h-1.008V429.46H684.583z M676.939,434.429h6.622v-3.99
			h-6.622V434.429z M676.939,439.624h6.622v-4.215h-6.622V439.624z"/>
		<path class="st12" d="M689.035,436.712c-0.317,1.624-0.77,3.02-1.357,4.186l-0.868-0.532c0.569-1.157,0.979-2.444,1.231-3.863
			L689.035,436.712z M692.55,428.872h1.035v1.834h5.46v0.979h-5.46v2.156h4.551v0.966h-10.108v-0.966h4.522v-2.156h-5.475v-0.979
			h5.475V428.872z M691.472,441.443c-0.915,0-1.372-0.504-1.372-1.512v-3.878h1.036v3.682c0,0.485,0.219,0.729,0.657,0.729h3.038
			c0.317,0,0.546-0.099,0.687-0.294c0.196-0.225,0.322-0.915,0.378-2.072l0.952,0.322c-0.112,1.446-0.313,2.319-0.603,2.618
			c-0.252,0.271-0.662,0.405-1.231,0.405H691.472z M693.361,435.746c0.485,0.858,0.905,1.773,1.26,2.743l-0.924,0.406
			c-0.42-1.129-0.85-2.072-1.288-2.828L693.361,435.746z M697.646,436.137c0.709,1.297,1.302,2.608,1.778,3.934l-0.925,0.406
			c-0.541-1.503-1.139-2.847-1.792-4.032L697.646,436.137z"/>
		<path class="st12" d="M700.417,435.424h5.096v-1.344h1.008v1.344h5.11v0.979h-4.103c0.952,1.429,2.563,2.702,4.83,3.822
			l-0.714,0.896c-2.333-1.391-3.98-2.964-4.942-4.719h-0.182v5.265h-1.008v-5.265h-0.14c-1.027,1.96-2.726,3.565-5.097,4.816
			l-0.56-0.938c2.193-0.998,3.794-2.291,4.802-3.878h-4.102V435.424z M711.435,429.823c-2.734,0.569-6.3,0.854-10.696,0.854
			l-0.308-0.952c4.228,0,7.732-0.252,10.514-0.756L711.435,429.823z M702.11,431.363c0.514,0.784,0.962,1.615,1.345,2.492
			l-0.925,0.406c-0.41-0.952-0.872-1.815-1.386-2.59L702.11,431.363z M705.933,431.042c0.448,0.774,0.831,1.601,1.148,2.478
			l-0.98,0.238c-0.262-0.793-0.63-1.596-1.106-2.408L705.933,431.042z M711.267,431.237c-0.616,1.204-1.33,2.24-2.142,3.108
			l-0.799-0.574c0.784-0.84,1.456-1.834,2.017-2.981L711.267,431.237z"/>
		<path class="st12" d="M714.305,432.385c-0.317,0.373-0.709,0.774-1.176,1.204l-0.574-0.784c1.241-1.11,2.17-2.427,2.786-3.948
			l0.938,0.238c-0.111,0.289-0.271,0.653-0.476,1.092h3.024c-0.233-0.504-0.439-0.905-0.616-1.204l1.036-0.168
			c0.168,0.355,0.354,0.813,0.56,1.372h4.522v0.84h-4.452v0.952h3.934v0.784h-3.934v0.924h3.934v0.784h-3.934v0.994h4.718v0.854
			h-10.29V432.385z M712.933,438.336v-0.91h5.572v-0.729h1.008v0.729h5.488v0.91h-4.242c0.961,0.905,2.427,1.624,4.396,2.155
			l-0.435,0.883c-2.314-0.784-3.962-1.797-4.942-3.038h-0.266v3.416h-1.008v-3.416h-0.28c-0.887,1.194-2.52,2.226-4.899,3.094
			l-0.532-0.868c2.146-0.653,3.635-1.396,4.466-2.226H712.933z M718.883,431.979v-0.952h-3.57l-0.069,0.112v0.84H718.883z
			 M718.883,433.687v-0.924h-3.64v0.924H718.883z M718.883,435.466v-0.994h-3.64v0.994H718.883z"/>
	</g>
</g>
</svg>
