<?xml version="1.0" encoding="utf-8"?>
<!-- Generator: Adobe Illustrator 22.0.0, SVG Export Plug-In . SVG Version: 6.00 Build 0)  -->
<svg version="1.1" id="图层_1" xmlns="http://www.w3.org/2000/svg" xmlns:xlink="http://www.w3.org/1999/xlink" x="0px" y="0px"
	 width="830px" height="460px" viewBox="0 0 830 460" style="enable-background:new 0 0 830 460;" xml:space="preserve">
<rect y="0.2" style="fill:#EAEBEC;" width="681.7" height="116"/>
<g>
	<g style="enable-background:new    ;">
		<path style="fill:#444444;" d="M17.5,28.4l-0.2-1c0.4,0,0.7,0.1,1.1,0.1c0.4,0,0.5-0.2,0.5-0.5v-3.4c-0.6,0.2-1.1,0.4-1.7,0.6
			L17,23c0.7-0.2,1.3-0.4,1.9-0.6v-3.1h-1.7v-1h1.7v-2.7h1v2.7h1.2v1h-1.2V22c0.4-0.2,0.8-0.4,1.2-0.6v1c-0.4,0.2-0.8,0.4-1.2,0.6
			v4.1c0,0.8-0.4,1.2-1.2,1.2H17.5z M21.8,24v-0.9h7.5V24h-3.2v3.1h3.7v1h-8.6v-1h3.8V24H21.8z M26.2,17.2h3.3v2.6h-0.9v-1.7h-5.9
			v1.7h-1v-2.6h3.5c-0.2-0.6-0.5-1.1-0.7-1.5l1-0.2C25.7,16,26,16.6,26.2,17.2z M25.1,19.3c-0.6,1.4-1.5,2.5-2.5,3.2l-0.7-0.6
			c1.1-0.7,1.8-1.7,2.4-2.9L25.1,19.3z M29.2,22l-0.9,0.4c-0.7-1.1-1.4-2.2-2.3-3.1l0.9-0.4C27.8,19.9,28.5,20.9,29.2,22z"/>
		<path style="fill:#444444;" d="M31.7,19.8l-0.8-0.6c0.7-0.8,1.1-1.8,1.3-3.1l1,0.2c-0.1,0.4-0.2,0.9-0.3,1.2h1.6v-1.7h1v1.7h2.6
			v0.9h-2.6v1.8h3v0.9h-3v1.5h2.7v3.7c0,0.8-0.4,1.2-1.3,1.2h-0.7l-0.3-1l0.7,0c0.4,0,0.6-0.2,0.6-0.5v-2.5h-1.8v5h-1v-5h-1.8v4.1
			h-1v-5h2.8v-1.5h-3.4v-0.9h3.4v-1.8h-2C32.4,18.9,32.1,19.4,31.7,19.8z M40.4,17v8.7h-1V17H40.4z M39.9,28.4l-0.2-1
			c0.7,0,1.3,0.1,1.9,0.1c0.4,0,0.6-0.2,0.6-0.7V15.7h1v11.4c0,0.9-0.4,1.3-1.3,1.3H39.9z"/>
		<path style="fill:#444444;" d="M45.6,20.3c1.2-0.4,2.8-2,4.6-4.7l1,0.4c-1.3,1.8-2.5,3.2-3.8,4.3c2.7-0.1,5.2-0.3,7.6-0.5
			c-0.5-0.8-1.1-1.5-1.6-2.1l0.9-0.4c1.2,1.4,2.3,3,3.4,4.7l-1,0.5c-0.4-0.6-0.7-1.1-1-1.7c-3,0.3-6.2,0.5-9.9,0.6L45.6,20.3z
			 M56.1,28.5h-1v-0.7h-7.3v0.7h-1v-5.8h9.4V28.5z M55.1,26.9v-3.2h-7.3v3.2H55.1z"/>
	</g>
</g>
<g>
	<g>
		<rect x="458.8" y="50.2" style="opacity:0.6;fill:#BBBBBB;enable-background:new    ;" width="104" height="50"/>
		<rect x="456.8" y="48.2" style="fill:#FFFFFF;stroke:#E5E5E5;" width="104" height="50"/>
	</g>
	<g style="enable-background:new    ;">
		<path style="fill:#444444;" d="M470.1,68.4v10.2H469V68.4H470.1z"/>
		<path style="fill:#444444;" d="M477.5,71.9c0.4,0.5,0.6,1.1,0.6,2v4.7h-1.1v-1.2c-0.3,0.4-0.7,0.7-1.1,1c-0.5,0.3-1.1,0.4-1.8,0.4
			c-0.7,0-1.3-0.2-1.7-0.5c-0.4-0.4-0.7-0.9-0.7-1.5c0-0.8,0.3-1.4,1-1.9c0.6-0.4,1.4-0.6,2.5-0.6l1.7,0v-0.4c0-1.2-0.6-1.8-1.9-1.8
			c-0.5,0-1,0.1-1.3,0.3c-0.4,0.2-0.6,0.6-0.7,1l-1.1-0.1c0.2-0.8,0.5-1.3,1.1-1.7c0.5-0.3,1.2-0.5,2.1-0.5
			C476.2,71.1,477,71.4,477.5,71.9z M475.3,75.1c-1.6,0-2.4,0.6-2.4,1.6c0,0.3,0.1,0.6,0.4,0.8c0.3,0.2,0.6,0.3,1.1,0.3
			c0.7,0,1.3-0.2,1.8-0.7c0.5-0.4,0.8-0.9,0.8-1.5v-0.6L475.3,75.1z"/>
		<path style="fill:#444444;" d="M485.3,71.9c0.4,0.5,0.6,1.1,0.6,2v4.7h-1.1v-1.2c-0.3,0.4-0.7,0.7-1.1,1c-0.5,0.3-1.1,0.4-1.8,0.4
			c-0.7,0-1.3-0.2-1.7-0.5c-0.4-0.4-0.7-0.9-0.7-1.5c0-0.8,0.3-1.4,1-1.9c0.6-0.4,1.4-0.6,2.5-0.6l1.7,0v-0.4c0-1.2-0.6-1.8-1.9-1.8
			c-0.5,0-1,0.1-1.3,0.3c-0.4,0.2-0.6,0.6-0.7,1l-1.1-0.1c0.2-0.8,0.5-1.3,1.1-1.7c0.5-0.3,1.2-0.5,2.1-0.5
			C484.1,71.1,484.8,71.4,485.3,71.9z M483.2,75.1c-1.6,0-2.4,0.6-2.4,1.6c0,0.3,0.1,0.6,0.4,0.8c0.3,0.2,0.6,0.3,1.1,0.3
			c0.7,0,1.3-0.2,1.8-0.7c0.5-0.4,0.8-0.9,0.8-1.5v-0.6L483.2,75.1z"/>
		<path style="fill:#444444;" d="M493.9,69.1c0.7,0.5,1.1,1.3,1.1,2.4h-1.1c-0.1-0.7-0.4-1.3-0.8-1.6c-0.4-0.4-1.1-0.5-1.9-0.5
			c-0.7,0-1.3,0.1-1.7,0.4c-0.5,0.3-0.7,0.7-0.7,1.3c0,0.5,0.3,0.9,0.9,1.2c0.3,0.1,0.9,0.3,1.8,0.6c1.3,0.4,2.2,0.7,2.6,1
			c0.8,0.5,1.2,1.2,1.2,2.1c0,0.9-0.4,1.6-1.1,2.1c-0.7,0.5-1.6,0.7-2.8,0.7c-1.2,0-2.1-0.3-2.8-0.8c-0.8-0.6-1.2-1.5-1.3-2.7h1.1
			c0.1,0.9,0.4,1.5,0.9,1.9c0.5,0.4,1.1,0.6,2,0.6c0.8,0,1.5-0.2,2-0.5c0.5-0.3,0.8-0.7,0.8-1.3c0-0.6-0.3-1.1-1-1.5
			c-0.3-0.2-1-0.4-2.1-0.7c-1.2-0.4-2-0.6-2.3-0.8c-0.8-0.4-1.1-1.1-1.1-1.9c0-0.9,0.4-1.6,1.1-2c0.7-0.4,1.5-0.7,2.5-0.7
			C492.3,68.4,493.2,68.6,493.9,69.1z"/>
		<path style="fill:#444444;" d="M499.2,71.4v6.2c0.5-0.4,1.1-0.9,1.6-1.4l0.3,1.1c-0.9,0.8-1.8,1.6-2.8,2.2l-0.4-0.9
			c0.2-0.2,0.3-0.4,0.3-0.6v-5.5h-1.9v-1H499.2z M500.2,69.5l-0.7,0.7c-0.5-0.7-1.3-1.4-2.2-2.1l0.7-0.7
			C498.8,68.1,499.6,68.8,500.2,69.5z M507.9,73.1V74c-0.4,1.3-1.2,2.5-2.2,3.4c1,0.7,2.1,1.2,3.5,1.7l-0.5,0.9
			c-1.5-0.6-2.7-1.2-3.7-2c-1.1,0.8-2.5,1.5-4.1,2l-0.6-0.9c1.6-0.5,2.9-1.1,3.9-1.8c-1.1-1-1.8-2.1-2.2-3.3h-0.8v-1H507.9z
			 M507.1,67.7v3c0,0.3,0.2,0.5,0.5,0.5h1.3v0.9h-1.5c-0.9,0-1.3-0.4-1.3-1.2v-2.3h-2.7v0.5c0,1.5-0.7,2.6-2.2,3.4l-0.7-0.8
			c1.2-0.6,1.8-1.5,1.8-2.6v-1.6H507.1z M504.9,76.8c0.9-0.8,1.6-1.7,2-2.7H503C503.4,75.1,504,76,504.9,76.8z"/>
		<path style="fill:#444444;" d="M515.8,67.2c-0.2,0.3-0.4,0.6-0.7,0.9h5.7v0.8c-0.9,1.1-1.9,2-3.2,2.7c1.5,0.6,3.3,1.1,5.4,1.4
			l-0.4,0.9c-2.3-0.4-4.3-0.9-5.9-1.7c-1.7,0.9-3.7,1.5-6,1.8l-0.4-0.9c2.1-0.3,3.9-0.8,5.5-1.5c-0.8-0.5-1.6-1.1-2.2-1.8
			c-0.6,0.6-1.3,1.1-2,1.5l-0.6-0.8c1.6-0.9,2.9-2.1,3.9-3.6L515.8,67.2z M521.1,80h-1v-0.6h-6.9V80h-1v-6.1h8.8V80z M516.2,76.2
			v-1.5h-3v1.5H516.2z M516.2,78.5V77h-3v1.5H516.2z M516.7,71.1c1.1-0.6,2.1-1.3,2.9-2.1h-5.2l-0.3,0.3
			C514.8,70,515.7,70.6,516.7,71.1z M517.2,76.2h3v-1.5h-3V76.2z M520.1,78.5V77h-3v1.5H520.1z"/>
		<path style="fill:#444444;" d="M525.3,70.5l-0.9-0.6c0.8-0.9,1.5-1.8,1.8-2.9l1,0.2c-0.1,0.3-0.2,0.6-0.4,0.9h3.8V69h-2.4
			c0.3,0.4,0.6,0.8,0.8,1.2l-0.9,0.4c-0.3-0.5-0.6-1.1-0.9-1.6h-0.8C526.1,69.6,525.7,70.1,525.3,70.5z M536.6,73.5h-1v-1.7h-9.9
			v1.7h-1V71h5.5c-0.1-0.3-0.3-0.6-0.4-0.9l1-0.2l-0.1-0.1c0.7-0.8,1.1-1.8,1.5-2.8l1,0.2c-0.1,0.3-0.2,0.6-0.3,0.9h4V69h-2.5
			c0.3,0.4,0.5,0.8,0.7,1.1l-0.9,0.3c-0.3-0.5-0.5-1-0.9-1.4h-0.9c-0.3,0.5-0.5,0.9-0.9,1.3l-0.8-0.5c0.2,0.3,0.3,0.7,0.4,1.1h5.3
			V73.5z M534.7,75.4h-7v1h7.6V80h-1v-0.6h-6.6v0.6h-1v-7.3h8V75.4z M533.7,74.6v-1.1h-6v1.1H533.7z M534.3,78.5v-1.3h-6.6v1.3
			H534.3z"/>
		<path style="fill:#444444;" d="M540.1,72.3V69h-1.7v-1h4.5v1h-1.7v3.3h1.5v1h-1.5v3.2c0.5-0.2,1-0.4,1.5-0.6v1
			c-1.3,0.5-2.7,1-4.2,1.3l-0.3-1c0.6-0.1,1.2-0.3,1.8-0.4v-3.5h-1.5v-1H540.1z M550.4,67.7v6.5h-2.9v1.7h3.2v1h-3.2v1.8h3.7v1h-8.4
			v-1h3.8v-1.8h-3.2v-1h3.2v-1.7h-2.9v-6.5H550.4z M546.4,70.5v-1.9h-2v1.9H546.4z M546.4,71.4h-2v1.9h2V71.4z M547.4,70.5h1.9v-1.9
			h-1.9V70.5z M549.4,71.4h-1.9v1.9h1.9V71.4z"/>
	</g>
</g>
<g>
	<g>
		<rect x="348.7" y="50.2" style="opacity:0.6;fill:#BBBBBB;enable-background:new    ;" width="96" height="50"/>
		<rect x="346.7" y="48.2" style="fill:#FFFFFF;stroke:#E5E5E5;" width="96" height="50"/>
	</g>
	<g style="enable-background:new    ;">
		<path style="fill:#444444;" d="M371.2,71.4v5.8c0.3-0.3,0.7-0.6,1.1-1l0.3,1c-0.7,0.7-1.4,1.3-2.2,1.9l-0.4-0.9
			c0.2-0.2,0.3-0.3,0.3-0.6v-5.3h-1.9v-1H371.2z M372.2,69.4l-0.7,0.7c-0.6-0.7-1.3-1.4-2.2-2.1l0.7-0.7
			C370.9,68,371.6,68.7,372.2,69.4z M380.6,78.6c0,0.8-0.4,1.2-1.3,1.2H378l-0.2-0.9c0.5,0,0.9,0,1.3,0s0.6-0.2,0.6-0.7v-9.7H374
			v6.8c0,1.9-0.4,3.4-1.2,4.6l-0.7-0.7c0.7-1,1-2.3,1-3.9v-7.7h7.6V78.6z M376.3,70.2v-1.1h1v1.1h1.6v0.8h-1.6v1.3h1.9v0.8h-4.7
			v-0.8h1.8v-1.3h-1.6v-0.8H376.3z M378.6,74.2v3.6h-3.7v-3.6H378.6z M377.8,75.1h-2V77h2V75.1z"/>
		<path style="fill:#444444;" d="M383.1,79.8l-0.8-0.7c0.9-1.2,1.4-2.8,1.4-4.7v-6.7h10.4v10.5c0,1-0.5,1.5-1.5,1.5H391l-0.3-1
			c0.6,0,1.1,0.1,1.6,0.1c0.5,0,0.8-0.3,0.8-0.9v-2.4h-3.8v4.1h-1v-4.1h-3.6C384.5,77.2,383.9,78.7,383.1,79.8z M384.7,68.7v2.4h3.6
			v-2.4H384.7z M384.7,74.5h3.6V72h-3.6V74.5z M393.1,68.7h-3.8v2.4h3.8V68.7z M393.1,72h-3.8v2.5h3.8V72z"/>
		<path style="fill:#444444;" d="M401.2,67.7v4.3h-1.3v2.2h1.5v0.9h-1.5v2.6c0.6-0.2,1.1-0.3,1.6-0.5v1c-1.4,0.5-3.1,1-4.9,1.4
			l-0.3-1l0.6-0.1v-5.1h0.9v4.8c0.4-0.1,0.7-0.2,1.1-0.3v-6h-2.1v-4.3H401.2z M400.2,68.6h-2.4v2.5h2.4V68.6z M408.9,75
			c-0.6,0.8-1.3,1.3-2,1.7c0.6,0.9,1.4,1.6,2.4,2.2l-0.6,0.9c-2.2-1.5-3.5-3.5-4-6.2h-1.4v4.8c0.8-0.2,1.6-0.5,2.4-0.9l0.3,0.9
			c-1,0.4-2.2,0.8-3.7,1.2l-0.2-0.9c0.2-0.1,0.3-0.2,0.3-0.4V67.7h5.8v5.9h-2.5c0.2,0.9,0.4,1.7,0.8,2.4c0.6-0.4,1.2-0.9,1.8-1.6
			L408.9,75z M407.1,68.6h-3.8v1.6h3.8V68.6z M403.2,72.7h3.8v-1.6h-3.8V72.7z"/>
		<path style="fill:#444444;" d="M414.9,67.7v4.4h-1.2v2.2h1.4v1h-1.4v2.5c0.4-0.2,0.9-0.3,1.3-0.5v1c-1.3,0.5-2.8,1-4.6,1.5l-0.3-1
			c0.2-0.1,0.5-0.1,0.7-0.2v-5.1h0.9v4.8l1-0.3v-5.9h-1.9v-4.4H414.9z M414,68.6h-2.2v2.5h2.2V68.6z M417.5,75.6
			c-0.4,1.5-0.9,2.8-1.6,3.9l-0.9-0.5c0.7-1.1,1.2-2.2,1.5-3.5L417.5,75.6z M422.8,71.3h-1v-1.8h-5.3v1.8h-1v-2.7h3
			c-0.2-0.5-0.4-1-0.6-1.4l1-0.2c0.2,0.5,0.4,1,0.5,1.6h3.2V71.3z M417.5,79.7l-0.2-1c0.4,0,0.7,0.1,1.1,0.1s0.5-0.2,0.5-0.7v-3.7
			h-3.2v-1h7.1v1h-2.9v4c0,0.9-0.4,1.3-1.2,1.3H417.5z M421.7,71V72h-5V71H421.7z M423.2,78.7l-0.9,0.4c-0.4-1.3-0.9-2.5-1.5-3.6
			l0.9-0.3C422.2,76.4,422.7,77.5,423.2,78.7z"/>
	</g>
</g>
<g>
	<g>
		<rect x="238.6" y="50.2" style="opacity:0.6;fill:#BBBBBB;enable-background:new    ;" width="96" height="50"/>
		<rect x="236.6" y="48.2" style="fill:#FFFFFF;stroke:#E5E5E5;" width="96" height="50"/>
	</g>
	<g style="enable-background:new    ;">
		<path style="fill:#444444;" d="M259.4,73.9h3c0,2.4-0.1,3.9-0.2,4.6c-0.2,0.8-0.9,1.2-2.1,1.3c-0.3,0-0.7,0-1-0.1l-0.3-0.9
			c0.3,0,0.7,0.1,1,0.1c0.8,0,1.3-0.3,1.4-0.8c0.1-0.5,0.2-1.7,0.2-3.3h-3.1l0.4-4h2.5v-2.2h-2.8v-0.9h3.7v4h-2.6L259.4,73.9z
			 M267.6,69.4c0.4-0.8,0.8-1.5,1.1-2.4l1,0.3c-0.3,0.8-0.7,1.4-1.1,2h1.8V75h-3v1.4h3.6v0.9h-3.6V80h-1v-2.7h-3.5v-0.9h3.5V75h-2.9
			v-5.6H267.6z M266.2,68.9l-0.9,0.4c-0.3-0.7-0.7-1.4-1.1-1.9l0.9-0.3C265.6,67.7,265.9,68.3,266.2,68.9z M266.4,71.8v-1.6h-2v1.6
			H266.4z M266.4,72.6h-2v1.5h2V72.6z M267.4,71.8h2.1v-1.6h-2.1V71.8z M269.5,72.6h-2.1v1.5h2.1V72.6z"/>
		<path style="fill:#444444;" d="M273.4,69.9c0,1.4-0.2,2.7-0.5,4l-0.8-0.2c0.3-1.2,0.5-2.5,0.5-3.8L273.4,69.9z M275.2,67.2v12.7
			h-1V67.2H275.2z M277,71.9c0.5-1.2,0.8-2.5,0.8-3.9l0.9,0.1c0,0.6-0.1,1.1-0.2,1.7h2v-2.6h1v2.6h3.1v1h-3.1v3.4h2.8v1h-2.8v3.4
			h3.4v1h-8.5v-1h4v-3.4h-3.2v-1h3.2v-3.4h-2.2c-0.3,1-0.6,2-1.1,2.8l-0.7-0.7c0.2-0.3,0.3-0.6,0.4-0.9l-0.7,0.2
			c-0.2-0.9-0.5-1.7-0.8-2.5l0.7-0.2C276.5,70.2,276.7,71,277,71.9z"/>
		<path style="fill:#444444;" d="M290.3,67.5c-0.4,1.1-0.8,2.2-1.4,3.1V80h-1v-7.9c-0.4,0.6-0.9,1.2-1.5,1.7l-0.3-1.1
			c1.5-1.7,2.5-3.6,3.2-5.8L290.3,67.5z M291.6,76v0.7h-1v-7.5h3.4v-2h1v2h3.5v7.5h-1V76H295V80h-1V76H291.6z M291.6,70.1v2h2.5v-2
			H291.6z M291.6,75.1h2.5v-2h-2.5V75.1z M297.5,70.1H295v2h2.5V70.1z M297.5,75.1v-2H295v2H297.5z"/>
		<path style="fill:#444444;" d="M303.4,67.5c-0.7,1.8-1.3,3.3-2,4.4c0.6-0.1,1.1-0.2,1.7-0.3c0.2-0.4,0.4-0.9,0.7-1.5l0.9,0.3
			c-1.1,2.4-2.1,4-2.8,5c0.8-0.2,1.6-0.5,2.4-0.8v0.9c-1.2,0.5-2.4,0.9-3.6,1l-0.3-0.9c0.2-0.1,0.3-0.2,0.5-0.3
			c0.5-0.6,1.1-1.5,1.8-2.9c-0.7,0.1-1.5,0.3-2.2,0.4l-0.3-0.9c0.2-0.1,0.3-0.2,0.4-0.4c0.7-1.3,1.3-2.8,1.8-4.4L303.4,67.5z
			 M304.7,78.2c-1.2,0.5-2.6,1-4.1,1.3l-0.1-1c1.6-0.3,3.1-0.7,4.3-1.2V78.2z M304.7,75l-0.3-1c1-1.2,1.7-2.6,2.2-4.1l0.8,0.4
			c-0.2,0.6-0.4,1.3-0.7,1.8v7.7h-0.9v-6.1C305.4,74.1,305.1,74.6,304.7,75z M312.7,70.1h-1v-1.1h-6v1.3h-1v-2.1h3.5
			c-0.2-0.4-0.3-0.7-0.5-1.1l1.1-0.2c0.2,0.4,0.3,0.8,0.5,1.2h3.4V70.1z M312.5,70.5v0.9h-1.9l-0.3,1.3h2v7.1h-0.9v-0.6h-2.7v0.6
			h-0.9v-7.1h1.5l0.3-1.3h-1.9v-0.9H312.5z M311.5,75.5v-1.9h-2.7v1.9H311.5z M311.5,78.3v-2h-2.7v2H311.5z"/>
	</g>
</g>
<g>
	<g>
		<rect x="128.5" y="50.2" style="opacity:0.6;fill:#BBBBBB;enable-background:new    ;" width="96" height="50"/>
		<rect x="126.5" y="48.2" style="fill:#FFFFFF;stroke:#E5E5E5;" width="96" height="50"/>
	</g>
	<g style="enable-background:new    ;">
		<path style="fill:#444444;" d="M151.6,67.5c-0.7,1.8-1.4,3.2-2.1,4.3c0.6-0.1,1.2-0.2,1.8-0.3c0.3-0.5,0.5-1,0.8-1.5l0.9,0.4
			c-1.2,2.3-2.3,4-3.1,5c1-0.3,2-0.6,3-1v0.9c-1.5,0.6-2.9,1-4.2,1.2l-0.3-0.9c0.2-0.1,0.3-0.2,0.5-0.3c0.5-0.6,1.2-1.5,2-2.8
			c-0.8,0.1-1.5,0.3-2.3,0.4l-0.3-0.9c0.2-0.1,0.3-0.2,0.4-0.4c0.8-1.3,1.4-2.7,2-4.4L151.6,67.5z M152.9,77.7
			c-1.3,0.6-2.7,1.2-4.4,1.6l-0.1-1c1.7-0.4,3.2-0.9,4.5-1.5V77.7z M155.5,73.8c-0.1,1.8-0.3,3.1-0.7,3.9c-0.4,0.9-1.1,1.6-2,2.2
			l-0.6-0.8c0.8-0.5,1.4-1.1,1.8-1.9c0.3-0.7,0.5-1.9,0.6-3.5H155.5z M153.1,72.3c0.1,0,0.1-0.1,0.2-0.1c0.5-0.4,1.1-1.2,1.8-2.7
			h-2.4v-1h3.6c-0.2-0.5-0.4-1-0.6-1.4l1-0.2c0.2,0.5,0.4,1,0.6,1.6h3.2v1h-4.3c-0.6,1.2-1.2,2.1-1.6,2.7c1.3-0.1,2.6-0.3,3.9-0.5
			c-0.3-0.4-0.6-0.9-1-1.4l0.8-0.5c1,1.2,1.7,2.3,2.2,3.2l-0.8,0.5c-0.2-0.4-0.4-0.7-0.6-1.1c-1.7,0.3-3.6,0.5-5.7,0.6L153.1,72.3z
			 M158.5,79.7c-0.8,0-1.3-0.4-1.3-1.2v-4.8h1v4.6c0,0.3,0.1,0.4,0.3,0.5h0.9c0.3,0,0.5-0.2,0.5-0.5c0.1-0.4,0.1-1,0.1-1.8l0.9,0.3
			c0,1.3-0.1,2.1-0.3,2.5c-0.2,0.3-0.6,0.4-1.2,0.5H158.5z"/>
		<path style="fill:#444444;" d="M165.2,71.4v6.2c0.5-0.4,1.1-0.9,1.7-1.5l0.3,1c-0.9,0.8-1.8,1.6-2.8,2.2l-0.4-0.9
			c0.2-0.2,0.3-0.4,0.3-0.6v-5.6h-2.1v-1H165.2z M166.2,69.4l-0.7,0.7c-0.6-0.7-1.4-1.4-2.4-2.2l0.7-0.7
			C164.7,68,165.5,68.7,166.2,69.4z M170.3,71.3v-4.2h1v4.2h3.6v1h-3.6V80h-1v-7.7h-3.8v-1H170.3z"/>
		<path style="fill:#444444;" d="M187.3,78.6h1.5v0.9h-12.7v-0.9h1.6v-3.9h9.6V78.6z M178.1,67.8v5.7h-1v-5.7H178.1z M180.6,78.6v-3
			h-1.9v3H180.6z M181.1,67.1V74h-1v-6.9H181.1z M183.5,78.6v-3h-2v3H183.5z M182.3,72.6l-0.6-0.8c1-1.2,1.7-2.8,2-4.8l1,0.2
			c-0.1,0.6-0.2,1.1-0.4,1.6h4.2v1H184C183.5,70.9,183,71.8,182.3,72.6z M186.4,78.6v-3h-1.9v3H186.4z M187.2,73.2l-0.8,0.6
			c-0.4-0.8-1-1.6-1.7-2.6l0.8-0.5C186.2,71.7,186.8,72.5,187.2,73.2z"/>
		<path style="fill:#444444;" d="M192.7,72.9l-0.7,0.7c-0.5-0.6-1.1-1.3-1.9-2l0.7-0.6C191.6,71.5,192.2,72.2,192.7,72.9z M192.9,75
			c-0.5,1.7-1.1,3.3-1.8,4.8l-0.9-0.4c0.7-1.6,1.3-3.2,1.8-4.8L192.9,75z M193,69.3l-0.7,0.7c-0.5-0.6-1.1-1.2-2-1.9l0.7-0.7
			C191.8,68,192.5,68.7,193,69.3z M196.3,69.6v4.4c0,1.6-0.3,2.9-0.8,3.8c-0.5,0.9-1.2,1.6-2.3,2.1l-0.5-0.8c1-0.5,1.7-1.1,2.1-1.9
			c0.4-0.8,0.6-1.9,0.6-3.2v-4.4H196.3z M198.3,76.3h-0.9v-7.7h-2.9v7.8h-0.9v-8.6h4.7V76.3z M198.9,79.3l-0.7,0.7
			c-0.5-0.7-1.2-1.5-2.1-2.4l0.6-0.6C197.6,77.8,198.3,78.5,198.9,79.3z M200.2,68.4v8.7h-0.9v-8.7H200.2z M199.7,79.9l-0.2-0.9
			c0.5,0,1,0.1,1.4,0.1c0.3,0,0.5-0.2,0.5-0.6V67.2h1v11.5c0,0.8-0.4,1.2-1.1,1.2H199.7z"/>
	</g>
</g>
<g>
	<g>
		<rect x="18.4" y="50.2" style="opacity:0.6;fill:#BBBBBB;enable-background:new    ;" width="96" height="50"/>
		<rect x="16.4" y="48.2" style="fill:#FFFFFF;stroke:#E5E5E5;" width="96" height="50"/>
	</g>
	<g style="enable-background:new    ;">
		<path style="fill:#444444;" d="M41.2,72.7l-0.7,0.7c-0.6-0.6-1.3-1.3-2.3-2.1l0.7-0.7C39.8,71.3,40.6,72,41.2,72.7z M41.6,74.9
			c-0.6,1.8-1.3,3.4-2.1,5l-1-0.4c0.8-1.6,1.6-3.2,2.2-4.9L41.6,74.9z M41.7,69.4L41,70.1c-0.6-0.7-1.4-1.4-2.5-2.1l0.7-0.7
			C40.2,68,41,68.7,41.7,69.4z M46,69.5c-0.3-0.8-0.6-1.5-1-2.2l1-0.3c0.4,0.8,0.7,1.5,0.9,2.2l-0.6,0.2h4.2v1h-3.6v3.4h3.2v1h-3.2
			v3.7h3.9v1h-8.9v-1h4v-3.7h-3.2v-1h3.2v-3.4h-3.6v-1H46z"/>
		<path style="fill:#444444;" d="M53.7,72.7v-5h4v5h1.6v-5h4v5h1.5v1h-1.5v5c0,0.8-0.4,1.1-1.2,1.1h-1.3l-0.3-1c0.4,0,0.9,0,1.3,0
			c0.4,0,0.5-0.2,0.5-0.6v-4.6h-2v0.7c0,2.3-0.4,4.1-1.3,5.6l-0.7-0.7c0.7-1.3,1-2.9,1.1-4.8v-0.8h-1.6v5c0,0.8-0.4,1.2-1.1,1.2
			h-1.3l-0.3-1c0.4,0,0.9,0,1.3,0c0.3,0,0.4-0.2,0.4-0.6v-4.6h-2v0.7c0,2.3-0.5,4.2-1.4,5.6l-0.7-0.7c0.8-1.3,1.2-2.9,1.2-4.8v-0.8
			h-1.7v-1H53.7z M56.7,68.6h-2v4.1h2V68.6z M62.3,68.6h-2v4.1h2V68.6z"/>
		<path style="fill:#444444;" d="M67,80l-0.8-0.7c0.6-1.3,0.8-2.9,0.9-4.8v-6.7h4.1v10.9c0,0.8-0.4,1.3-1.2,1.3h-1.1L68.6,79
			c0.4,0,0.7,0.1,1.1,0.1c0.4,0,0.5-0.3,0.5-0.8v-3.2H68C67.9,77.1,67.5,78.7,67,80z M70.2,68.6H68V71h2.3V68.6z M68,74.2h2.3v-2.3
			H68V74.2z M73.3,80h-1V67.7H78c0,1.7-0.1,2.9-0.3,3.4c-0.2,0.6-0.7,0.9-1.6,0.9h-1.1l-0.3-0.9c0.2,0,0.5,0,0.9,0
			c0.3,0,0.6,0,0.7-0.1c0.2-0.1,0.3-0.2,0.4-0.4c0.1-0.3,0.2-1,0.2-2.1h-3.7v4.2h4.8v0.9c-0.3,1.4-0.7,2.7-1.4,3.7
			c0.6,0.6,1.4,1.2,2.2,1.7l-0.5,0.9c-0.9-0.5-1.7-1.1-2.3-1.7c-0.6,0.7-1.3,1.3-2.2,1.7l-0.5-0.8c0.8-0.4,1.5-1,2-1.7
			c-0.9-1.1-1.5-2.3-1.8-3.7h-0.3V80z M76,76.7c0.5-0.8,0.9-1.8,1.1-2.9h-2.7C74.8,74.9,75.3,75.8,76,76.7z"/>
		<path style="fill:#444444;" d="M85.3,67.2c-0.2,0.4-0.3,0.7-0.5,1.1h6.1v0.8c-0.9,1-2,1.9-3.3,2.6c1.6,0.7,3.3,1.1,5.3,1.3
			L92.4,74c-2.2-0.3-4.2-0.8-5.9-1.7c-1.7,0.8-3.7,1.4-6,1.7l-0.5-1c2-0.3,3.8-0.7,5.4-1.3c-0.8-0.5-1.5-1-2.2-1.6
			c-0.5,0.5-1.1,0.9-1.8,1.3l-0.6-0.8c1.7-1,2.8-2.1,3.4-3.5L85.3,67.2z M86.6,73.3c0,0.6-0.1,1.1-0.1,1.6h4.9
			c0,2.4-0.2,3.8-0.6,4.2c-0.4,0.5-1.1,0.7-2.1,0.7c-0.4,0-1,0-1.6-0.1l-0.3-0.9l1.7,0.1c0.8,0,1.4-0.2,1.6-0.5
			c0.2-0.3,0.3-1.2,0.4-2.6h-4.1c-0.1,0.4-0.3,0.7-0.4,1c-0.7,1.3-2.4,2.3-4.9,3.1l-0.7-0.8c2.3-0.7,3.8-1.5,4.6-2.5
			c0.2-0.3,0.3-0.5,0.4-0.8H81v-0.9h4.5c0.1-0.5,0.2-1,0.2-1.6H86.6z M89.4,69.2h-5.4l-0.2,0.2c0.8,0.7,1.7,1.3,2.6,1.8
			C87.6,70.7,88.6,70,89.4,69.2z"/>
	</g>
</g>
<rect y="344.1" style="fill:#EAEBEC;" width="531.7" height="116"/>
<g>
	<g style="enable-background:new    ;">
		<path style="fill:#444444;" d="M22.7,364.4c0.4,0.5,0.6,1.1,0.6,2v4.7h-1.1v-1.2c-0.3,0.4-0.7,0.7-1.1,1c-0.5,0.3-1.1,0.4-1.8,0.4
			c-0.7,0-1.3-0.2-1.7-0.5c-0.4-0.4-0.7-0.9-0.7-1.5c0-0.8,0.3-1.4,1-1.9c0.6-0.4,1.4-0.6,2.5-0.6l1.7,0v-0.4c0-1.2-0.6-1.8-1.9-1.8
			c-0.5,0-1,0.1-1.3,0.3c-0.4,0.2-0.6,0.6-0.7,1l-1.1-0.1c0.2-0.8,0.5-1.3,1.1-1.7c0.5-0.3,1.2-0.5,2.1-0.5
			C21.5,363.6,22.2,363.9,22.7,364.4z M20.6,367.6c-1.6,0-2.4,0.6-2.4,1.6c0,0.3,0.1,0.6,0.4,0.8c0.3,0.2,0.6,0.3,1.1,0.3
			c0.7,0,1.3-0.2,1.8-0.7c0.5-0.4,0.8-0.9,0.8-1.5v-0.6L20.6,367.6z"/>
		<path style="fill:#444444;" d="M30.5,365.1v-1.2h1.1v6.7c0,2.3-1.1,3.5-3.3,3.5c-1,0-1.7-0.2-2.2-0.6c-0.5-0.4-0.8-1-1-1.8h1.1
			c0.1,0.5,0.3,0.9,0.6,1.1c0.3,0.2,0.8,0.4,1.5,0.4c1.5,0,2.2-0.8,2.2-2.4v-1.3c-0.5,1-1.3,1.5-2.4,1.5c-1,0-1.8-0.4-2.4-1
			c-0.6-0.7-0.9-1.5-0.9-2.6c0-1.1,0.3-1.9,0.9-2.6c0.6-0.7,1.4-1.1,2.4-1.1C29.2,363.6,30,364.1,30.5,365.1z M26.6,365.3
			c-0.4,0.5-0.6,1.1-0.6,1.9c0,0.8,0.2,1.4,0.5,1.9c0.4,0.5,1,0.8,1.8,0.8c0.7,0,1.3-0.3,1.7-0.8c0.4-0.5,0.6-1.1,0.6-1.9
			c0-0.8-0.2-1.5-0.6-1.9c-0.4-0.5-1-0.8-1.7-0.8C27.5,364.5,27,364.8,26.6,365.3z"/>
		<path style="fill:#444444;" d="M39,364.8c0.5,0.7,0.8,1.7,0.8,3h-5.7c0.1,0.8,0.3,1.4,0.7,1.9c0.4,0.4,0.9,0.7,1.6,0.7
			c0.6,0,1.1-0.2,1.4-0.4c0.3-0.3,0.5-0.6,0.7-1.1h1.1c-0.2,0.7-0.5,1.3-1,1.7c-0.6,0.5-1.4,0.8-2.3,0.8c-1,0-1.9-0.4-2.5-1
			c-0.6-0.7-1-1.6-1-2.8c0-1.1,0.3-2,0.9-2.7c0.6-0.8,1.4-1.1,2.5-1.1C37.5,363.6,38.4,364,39,364.8z M34.9,365.2
			c-0.4,0.4-0.6,1-0.7,1.7h4.5c-0.1-1.6-0.9-2.3-2.3-2.3C35.8,364.6,35.2,364.8,34.9,365.2z"/>
		<path style="fill:#444444;" d="M47.3,366.6v4.5h-1.1v-4.4c0-1.4-0.6-2.1-1.9-2.1c-0.5,0-0.9,0.2-1.3,0.5c-0.4,0.4-0.6,0.9-0.6,1.6
			v4.4h-1.1v-7.2h1.1v1.1c0.3-0.4,0.6-0.7,1-0.9c0.4-0.2,0.8-0.3,1.3-0.3C46.4,363.6,47.3,364.6,47.3,366.6z"/>
		<path style="fill:#444444;" d="M50.9,363.8h1.8v0.9h-1.8v4.6c0,0.3,0,0.5,0.2,0.6c0.1,0.1,0.3,0.2,0.5,0.2h0.9v0.9h-1.1
			c-0.6,0-1-0.2-1.3-0.5c-0.2-0.3-0.3-0.7-0.3-1.2v-4.6h-1.5v-0.9h1.5v-1.9l1.1-0.5V363.8z"/>
	</g>
</g>
<g>
	<g>
		<rect x="409" y="395.1" style="opacity:0.6;fill:#BBBBBB;enable-background:new    ;" width="108" height="50"/>
		<rect x="407" y="393.1" style="fill:#FFFFFF;stroke:#E5E5E5;" width="108" height="50"/>
	</g>
	<g style="enable-background:new    ;">
		<path style="fill:#444444;" d="M425.1,412.2c-0.2,0.5-0.4,1-0.6,1.4h7.8c0,3.5-0.1,5.7-0.2,6.6c-0.1,0.9-0.7,1.3-1.6,1.3
			c-0.2,0-0.5,0-0.9,0l-0.2-0.9c0.4,0,0.7,0.1,1,0.1c0.5,0,0.7-0.3,0.8-0.8c0.1-0.6,0.1-2.3,0.2-5.2h-7.3c-0.7,1.1-1.5,2.2-2.4,3
			l-0.7-0.8c1.3-1.2,2.4-2.8,3.2-4.8L425.1,412.2z M428.9,420.6h-5.1v2.6c0,0.4,0.2,0.6,0.7,0.6h6.7c0.3,0,0.5-0.2,0.7-0.4
			c0.1-0.2,0.2-0.8,0.3-1.7l1,0.3c-0.1,0.9-0.2,1.5-0.3,1.8c-0.2,0.6-0.6,0.8-1.3,0.9h-7.4c-0.9,0-1.3-0.4-1.3-1.2v-7.2h6.1V420.6z
			 M427.9,419.7v-2.4h-4v2.4H427.9z"/>
		<path style="fill:#444444;" d="M439.3,418.6c-0.5,0.3-1.1,0.5-1.6,0.8v4.1c0,0.8-0.4,1.3-1.2,1.3h-1.3l-0.2-1
			c0.4,0,0.8,0.1,1.1,0.1c0.4,0,0.6-0.2,0.6-0.6v-3.4c-0.6,0.2-1.2,0.5-1.9,0.7l-0.3-1c0.7-0.2,1.4-0.4,2.1-0.7v-3.2h-1.9v-1h1.9
			v-2.5h1v2.5h1.6v1h-1.6v2.8c0.5-0.3,1.1-0.5,1.6-0.8V418.6z M443.6,423.3c0.6-1.9,1.2-4.3,1.7-7.1l1,0.3c-0.4,2.6-1,4.9-1.6,6.9
			h2.7v1h-8.1v-1H443.6z M442.9,414.3c-0.2-0.8-0.4-1.4-0.7-2.1l1-0.2c0.2,0.7,0.5,1.4,0.7,2.3h3.2v1h-7.4v-1H442.9z M442.4,422.4
			l-0.9,0.2c-0.3-2.1-0.7-4.1-1.2-6l0.9-0.3C441.7,418.1,442.1,420.1,442.4,422.4z"/>
		<path style="fill:#444444;" d="M455.7,422.1c-0.4,0.1-0.9,0.2-1.3,0.3v2.5h-1v-2.3c-1.5,0.3-3,0.6-4.5,0.8l-0.2-1
			c0.4-0.1,0.8-0.1,1.3-0.2v-8.7h-1.1v-1h6.7v0.8h5.4v0.9c-0.3,2.6-1,4.8-1.9,6.6c0.7,1.1,1.5,2.2,2.5,3.2l-0.7,0.8
			c-0.9-1-1.7-2-2.4-3c-0.8,1.2-1.7,2.2-2.7,3l-0.7-0.8c1.1-0.9,2.1-2,2.8-3.2c-1-2-1.7-4.2-1.8-6.5h-0.6v-0.8h-1.1v7.8
			c0.4-0.1,0.9-0.2,1.3-0.3V422.1z M453.4,415.7v-2.2h-2.5v2.2H453.4z M453.4,418.8v-2.1h-2.5v2.1H453.4z M453.4,419.7h-2.5v2.4
			c0.9-0.1,1.7-0.3,2.5-0.5V419.7z M458.4,419.9c0.8-1.6,1.3-3.4,1.5-5.5h-3C457.1,416.4,457.6,418.2,458.4,419.9z"/>
		<path style="fill:#444444;" d="M470.6,420.4v1h-7.9v-1H470.6z M466.2,412.1L466,414h8.5v1h-8.6l-0.2,2.3h7.9c0,3.8-0.3,6-0.8,6.6
			c-0.5,0.6-1.6,0.9-3.3,0.9c-0.4,0-0.9,0-1.4-0.1l-0.3-0.9c0.7,0.1,1.2,0.1,1.4,0.1c1.6,0,2.5-0.3,2.8-0.8c0.3-0.6,0.5-2.2,0.5-4.9
			h-8l0.7-6.1L466.2,412.1z"/>
		<path style="fill:#444444;" d="M480.1,415.8c-0.8,0.8-1.7,1.5-2.8,2.1l-0.6-0.8c1.1-0.6,1.9-1.2,2.7-2L480.1,415.8z M487.5,418.8
			v0.8c-0.9,1.1-2.1,2.1-3.4,2.9c1.5,0.7,3.3,1.1,5.4,1.4l-0.5,0.9c-2.3-0.4-4.3-1-5.9-1.8c-1.7,0.8-3.7,1.4-5.9,1.8l-0.5-1
			c2-0.3,3.8-0.8,5.3-1.4c-1.2-0.8-2.3-1.7-3-2.8h-1.1v-0.9H487.5z M483.6,413.3h5.4v1h-3.9v3.8h-1v-3.8h-2.3v3.8h-1v-3.8H477v-1
			h5.6c-0.2-0.4-0.3-0.9-0.5-1.2l1.1-0.2C483.3,412.3,483.5,412.8,483.6,413.3z M483,422c1.2-0.6,2.2-1.4,3.1-2.3h-6
			C480.9,420.6,481.9,421.4,483,422z M489.4,417.2l-0.7,0.7c-0.6-0.7-1.5-1.4-2.6-2.2l0.7-0.6C487.8,415.8,488.6,416.5,489.4,417.2z
			"/>
		<path style="fill:#444444;" d="M503,412.6v0.9h-5.5v1.2h4.3v5.5h-4.5c-0.2,0.9-0.4,1.7-0.8,2.2c2,0.8,4.3,1.3,7,1.4l-0.3,1
			c-2.8-0.1-5.3-0.7-7.4-1.6c-1,0.8-2.6,1.4-4.8,1.6l-0.4-0.9c1.9-0.2,3.4-0.5,4.3-1.2c-0.8-0.4-1.6-1-2.3-1.6l0.8-0.5
			c0.7,0.5,1.4,1,2.2,1.4c0.3-0.5,0.6-1.1,0.7-1.8h-4.1v-5.5h4.3v-1.2H491v-0.9H503z M496.5,417.1v-1.5h-3.3v1.5H496.5z
			 M496.5,418.5V418h-3.3v1.5h3.2C496.5,419.1,496.5,418.8,496.5,418.5z M500.9,418h-3.3v0.5l0,1h3.4V418z M497.5,417.1h3.3v-1.5
			h-3.3V417.1z"/>
	</g>
</g>
<g>
	<g>
		<rect x="542.9" y="394.1" style="opacity:0.6;fill:#BBBBBB;enable-background:new    ;" width="122" height="50"/>
		<rect x="540.9" y="392.1" style="fill:#FFFFFF;stroke:#E5E5E5;" width="122" height="50"/>
	</g>
	<g style="enable-background:new    ;">
		<path style="fill:#444444;" d="M580.9,411.2v11.1h2v-11.1h1v11.1h4.2v1h-12.4v-1h4.2v-11.1H580.9z M578.8,420.2l-0.9,0.2
			c-0.5-2.2-1.1-4.4-1.9-6.5l0.9-0.3C577.6,415.6,578.3,417.8,578.8,420.2z M587.7,414c-0.6,2.4-1.3,4.6-2.1,6.4l-0.9-0.3
			c0.8-1.7,1.5-3.8,2.1-6.3L587.7,414z"/>
		<path style="fill:#444444;" d="M594.7,411.2c-0.2,0.4-0.3,0.7-0.5,1.1h6.1v0.8c-0.9,1-2,1.9-3.3,2.6c1.6,0.7,3.3,1.1,5.3,1.3
			l-0.5,0.9c-2.2-0.3-4.2-0.8-5.9-1.7c-1.7,0.8-3.7,1.4-6,1.7l-0.5-1c2-0.3,3.8-0.7,5.4-1.3c-0.8-0.5-1.5-1-2.2-1.6
			c-0.5,0.5-1.1,0.9-1.8,1.3l-0.6-0.8c1.7-1,2.8-2.1,3.4-3.5L594.7,411.2z M596,417.3c0,0.6-0.1,1.1-0.1,1.6h4.9
			c0,2.4-0.2,3.8-0.6,4.2c-0.4,0.5-1.1,0.7-2.1,0.7c-0.4,0-1,0-1.6-0.1l-0.3-0.9l1.7,0.1c0.8,0,1.4-0.2,1.6-0.5
			c0.2-0.3,0.3-1.2,0.4-2.6h-4.1c-0.1,0.4-0.3,0.7-0.4,1c-0.7,1.3-2.4,2.3-4.9,3.1l-0.7-0.8c2.3-0.7,3.8-1.5,4.6-2.5
			c0.2-0.3,0.3-0.5,0.4-0.8h-4.2v-0.9h4.5c0.1-0.5,0.2-1,0.2-1.6H596z M598.8,413.2h-5.4l-0.2,0.2c0.8,0.7,1.7,1.3,2.6,1.8
			C597,414.6,598,413.9,598.8,413.2z"/>
		<path style="fill:#444444;" d="M610.4,411v2.5h5v6.6h-1v-0.9h-4v4.8h-1v-4.8h-4v0.9h-1v-6.6h5V411H610.4z M609.4,418.3v-3.7h-4
			v3.7H609.4z M614.4,418.3v-3.7h-4v3.7H614.4z"/>
		<path style="fill:#444444;" d="M620,415.7c-0.4,2.4-1,4.5-1.7,6.2l-0.9-0.5c0.7-1.8,1.2-3.7,1.6-5.9L620,415.7z M622.5,423.5
			c-1,0-1.5-0.5-1.5-1.4v-8h1v7.8c0,0.4,0.3,0.6,0.8,0.6h2.6c0.3,0,0.6-0.1,0.7-0.4c0.2-0.3,0.3-1.3,0.4-3l1,0.3
			c-0.1,1.9-0.3,3.1-0.6,3.5c-0.3,0.4-0.7,0.5-1.2,0.5H622.5z M626,414.7l-0.8,0.6c-0.7-1.1-1.7-2.3-3-3.6l0.8-0.5
			C624.3,412.5,625.3,413.7,626,414.7z M630.4,420.9l-0.9,0.4c-0.7-2.2-1.5-4.2-2.4-5.9l1-0.3C628.9,416.9,629.7,418.8,630.4,420.9z
			"/>
	</g>
</g>
<g>
	<g>
		<rect x="713" y="394.1" style="opacity:0.6;fill:#BBBBBB;enable-background:new    ;" width="116" height="50"/>
		<rect x="711" y="392.1" style="fill:#FFFFFF;stroke:#E5E5E5;" width="116" height="50"/>
	</g>
	<g style="enable-background:new    ;">
		<path style="fill:#444444;" d="M749.1,411.7v1h-1.8v1.6h1.6v9.6H748v-0.8h-4v0.8h-0.9v-9.6h1.5v-1.6h-1.9v-1H749.1z M744,415.2
			v4.7h4v-1.2h-0.7c-0.6,0-0.9-0.3-0.9-1v-2.5h-0.9v0.9c0,1.5-0.3,2.6-0.9,3.3l-0.5-0.5c0.5-0.6,0.8-1.5,0.8-2.8v-0.9H744z
			 M748,422.2v-1.4h-4v1.4H748z M746.4,414.2v-1.6h-0.9v1.6H746.4z M748,415.2h-0.9v2.3c0,0.2,0.1,0.4,0.3,0.4h0.5V415.2z
			 M754.9,423c-0.2,0.4-0.7,0.6-1.3,0.6h-2.8c-0.7,0-1-0.4-1-1.3v-5.9h3.8v-3.7h-4.1v-1h5v5.7h-3.8v4.6c0,0.5,0.1,0.7,0.4,0.7h2.2
			c0.4,0,0.6-0.2,0.8-0.6c0.1-0.4,0.2-1.1,0.2-2.3l1,0.3C755.3,421.6,755.1,422.6,754.9,423z"/>
		<path style="fill:#444444;" d="M762.4,415l0.1-0.8h-4.6v-2.6h10.1v2.6h-4.5l-0.1,0.8h5.6v0.8h-5.7c-0.1,0.3-0.1,0.5-0.2,0.8h4.1
			v6.2h2v0.8h-12.5v-0.8h2v-6.2h3.4c0.1-0.3,0.1-0.5,0.2-0.8H757V415H762.4z M761,412.3h-2.1v1.2h2.1V412.3z M766.3,418.2v-0.9h-6.5
			v0.9H766.3z M766.3,419.7v-0.9h-6.5v0.9H766.3z M766.3,421.2v-0.9h-6.5v0.9H766.3z M766.3,422.8v-0.9h-6.5v0.9H766.3z
			 M764.1,412.3h-2.2v1.2h2.2V412.3z M767.1,412.3H765v1.2h2.1V412.3z"/>
		<path style="fill:#444444;" d="M777.5,411v2.5h5v6.6h-1v-0.9h-4v4.8h-1v-4.8h-4v0.9h-1v-6.6h5V411H777.5z M776.5,418.3v-3.7h-4
			v3.7H776.5z M781.5,418.3v-3.7h-4v3.7H781.5z"/>
		<path style="fill:#444444;" d="M787.1,415.7c-0.4,2.4-1,4.5-1.7,6.2l-0.9-0.5c0.7-1.8,1.2-3.7,1.6-5.9L787.1,415.7z M789.7,423.5
			c-1,0-1.5-0.5-1.5-1.4v-8h1v7.8c0,0.4,0.3,0.6,0.8,0.6h2.6c0.3,0,0.6-0.1,0.7-0.4c0.2-0.3,0.3-1.3,0.4-3l1,0.3
			c-0.1,1.9-0.3,3.1-0.6,3.5c-0.3,0.4-0.7,0.5-1.2,0.5H789.7z M793.1,414.7l-0.8,0.6c-0.7-1.1-1.7-2.3-3-3.6l0.8-0.5
			C791.4,412.5,792.4,413.7,793.1,414.7z M797.5,420.9l-0.9,0.4c-0.7-2.2-1.5-4.2-2.4-5.9l1-0.3
			C796.1,416.9,796.8,418.8,797.5,420.9z"/>
	</g>
</g>
<g>
	<g>
		<rect x="713" y="324.3" style="opacity:0.6;fill:#BBBBBB;enable-background:new    ;" width="116" height="50"/>
		<rect x="711" y="322.3" style="fill:#FFFFFF;stroke:#E5E5E5;" width="116" height="50"/>
	</g>
	<g style="enable-background:new    ;">
		<path style="fill:#444444;" d="M729.5,354.2l-0.8-0.7c0.6-1.3,0.8-2.9,0.9-4.8v-6.7h4.1v10.9c0,0.8-0.4,1.3-1.2,1.3h-1.1l-0.2-0.9
			c0.4,0,0.7,0.1,1.1,0.1c0.4,0,0.5-0.3,0.5-0.8v-3.2h-2.3C730.5,351.3,730.1,352.9,729.5,354.2z M732.8,342.8h-2.3v2.4h2.3V342.8z
			 M730.5,348.4h2.3v-2.3h-2.3V348.4z M735.9,354.1h-1v-12.3h5.7c0,1.7-0.1,2.9-0.3,3.4c-0.2,0.6-0.7,0.9-1.6,0.9h-1.1l-0.3-0.9
			c0.2,0,0.5,0,0.9,0c0.3,0,0.6,0,0.7-0.1c0.2-0.1,0.3-0.2,0.4-0.4c0.1-0.3,0.2-1,0.2-2.1h-3.7v4.2h4.8v0.9
			c-0.3,1.4-0.7,2.7-1.4,3.7c0.6,0.6,1.4,1.2,2.2,1.7l-0.5,0.9c-0.9-0.5-1.7-1.1-2.3-1.7c-0.6,0.7-1.3,1.3-2.2,1.7l-0.5-0.8
			c0.8-0.4,1.5-1,2-1.7c-0.9-1.1-1.5-2.3-1.8-3.7h-0.3V354.1z M738.6,350.9c0.5-0.8,0.9-1.8,1.1-2.9h-2.7
			C737.4,349,737.9,350,738.6,350.9z"/>
		<path style="fill:#444444;" d="M747.8,341.4c-0.2,0.4-0.3,0.7-0.5,1.1h6.1v0.8c-0.9,1-2,1.9-3.3,2.6c1.6,0.7,3.3,1.1,5.3,1.3
			l-0.5,0.9c-2.2-0.3-4.2-0.8-5.9-1.7c-1.7,0.8-3.7,1.4-6,1.7l-0.5-1c2-0.3,3.8-0.7,5.4-1.3c-0.8-0.5-1.5-1-2.2-1.6
			c-0.5,0.5-1.1,0.9-1.8,1.3l-0.6-0.8c1.7-1,2.8-2.1,3.4-3.5L747.8,341.4z M749.2,347.5c0,0.6-0.1,1.1-0.1,1.6h4.9
			c0,2.4-0.2,3.8-0.6,4.2c-0.4,0.5-1.1,0.7-2.1,0.7c-0.4,0-1,0-1.6-0.1l-0.3-0.9l1.7,0.1c0.8,0,1.4-0.2,1.6-0.5
			c0.2-0.3,0.3-1.2,0.4-2.6h-4.1c-0.1,0.4-0.3,0.7-0.4,1c-0.7,1.3-2.4,2.3-4.9,3.1l-0.7-0.8c2.3-0.7,3.8-1.5,4.6-2.5
			c0.2-0.3,0.3-0.5,0.4-0.8h-4.2v-0.9h4.5c0.1-0.5,0.2-1,0.2-1.6H749.2z M752,343.4h-5.4l-0.2,0.2c0.8,0.7,1.7,1.3,2.6,1.8
			C750.2,344.8,751.1,344.2,752,343.4z"/>
		<path style="fill:#444444;" d="M760.3,341.7c-0.8,1.7-1.5,3.1-2.3,4.2c0.7-0.1,1.3-0.2,2-0.3c0.3-0.5,0.6-1.1,0.9-1.7l0.9,0.4
			c-1.3,2.4-2.5,4.1-3.3,5.1c1-0.2,2.1-0.5,3.1-0.9v0.9c-1.5,0.5-3,0.9-4.4,1.1l-0.3-0.9c0.2-0.1,0.3-0.2,0.5-0.3
			c0.6-0.5,1.2-1.5,2-2.8c-0.8,0.1-1.6,0.2-2.5,0.4l-0.3-0.9c0.2-0.1,0.3-0.2,0.4-0.4c0.8-1.2,1.5-2.6,2.2-4.2L760.3,341.7z
			 M761.5,351.9c-1.3,0.6-2.8,1.1-4.5,1.5l-0.1-1c1.8-0.4,3.3-0.8,4.7-1.4V351.9z M768.2,352.7h1.2v1h-8.1v-1h1.2v-10.7h5.7V352.7z
			 M767.2,345.4v-2.5h-3.7v2.5H767.2z M767.2,349v-2.6h-3.7v2.6H767.2z M767.2,352.7V350h-3.7v2.7H767.2z"/>
		<path style="fill:#444444;" d="M772.3,346.9v-5h4v5h1.6v-5h4v5h1.5v1h-1.5v5c0,0.8-0.4,1.1-1.2,1.1h-1.3l-0.3-1c0.4,0,0.9,0,1.3,0
			c0.4,0,0.5-0.2,0.5-0.6v-4.6h-2v0.7c0,2.3-0.4,4.1-1.3,5.6l-0.7-0.7c0.7-1.3,1-2.9,1.1-4.8v-0.8h-1.6v5c0,0.8-0.4,1.2-1.1,1.2
			h-1.3l-0.3-1c0.4,0,0.9,0,1.3,0c0.3,0,0.4-0.2,0.4-0.6v-4.6h-2v0.7c0,2.3-0.5,4.2-1.4,5.6l-0.7-0.7c0.8-1.3,1.2-2.9,1.2-4.8v-0.8
			h-1.7v-1H772.3z M775.3,342.8h-2v4.1h2V342.8z M780.9,342.8h-2v4.1h2V342.8z"/>
		<path style="fill:#444444;" d="M791.5,341.2v2.5h5v6.6h-1v-0.9h-4v4.8h-1v-4.8h-4v0.9h-1v-6.6h5v-2.5H791.5z M790.5,348.5v-3.7h-4
			v3.7H790.5z M795.5,348.5v-3.7h-4v3.7H795.5z"/>
		<path style="fill:#444444;" d="M801.1,345.9c-0.4,2.4-1,4.5-1.7,6.2l-0.9-0.5c0.7-1.8,1.2-3.7,1.6-5.9L801.1,345.9z M803.7,353.7
			c-1,0-1.5-0.5-1.5-1.4v-8h1v7.8c0,0.4,0.3,0.6,0.8,0.6h2.6c0.3,0,0.6-0.1,0.7-0.4c0.2-0.3,0.3-1.3,0.4-3l1,0.3
			c-0.1,1.9-0.3,3.1-0.6,3.5c-0.3,0.4-0.7,0.5-1.2,0.5H803.7z M807.1,344.9l-0.8,0.6c-0.7-1.1-1.7-2.3-3-3.6l0.8-0.5
			C805.4,342.7,806.4,343.9,807.1,344.9z M811.5,351.1l-0.9,0.4c-0.7-2.2-1.5-4.2-2.4-5.9l1-0.3C810.1,347.1,810.8,349,811.5,351.1z
			"/>
	</g>
</g>
<g>
	<g>
		<rect x="279" y="395.1" style="opacity:0.6;fill:#BBBBBB;enable-background:new    ;" width="108" height="50"/>
		<rect x="277" y="393.1" style="fill:#FFFFFF;stroke:#E5E5E5;" width="108" height="50"/>
	</g>
	<g style="enable-background:new    ;">
		<path style="fill:#444444;" d="M312.1,413.4h5.1v1h-10.4v3.1c-0.1,3.1-0.5,5.5-1.4,7.4l-0.8-0.7c0.8-1.6,1.2-3.8,1.2-6.7v-4.1h5.2
			c-0.2-0.4-0.5-0.9-0.8-1.3l1.1-0.2C311.6,412.4,311.9,412.9,312.1,413.4z M312.9,423.3c0.9-2,1.6-4.4,2.3-7.4l1,0.3
			c-0.6,2.7-1.3,5-2.2,7.1h3v1h-9.9v-1H312.9z M310.1,421.8l-1,0.2c-0.4-1.8-0.9-3.5-1.4-5.1l0.9-0.3
			C309.2,418.1,309.7,419.8,310.1,421.8z M312.6,421l-1,0.2c-0.3-1.8-0.7-3.6-1.2-5.3l0.9-0.3C311.8,417.2,312.2,419,312.6,421z"/>
		<path style="fill:#444444;" d="M319.3,424.8l-0.8-0.7c0.9-1.2,1.4-2.8,1.4-4.7v-6.7h10.4v10.5c0,1-0.5,1.5-1.5,1.5h-1.6l-0.3-1
			c0.6,0,1.1,0.1,1.6,0.1c0.5,0,0.8-0.3,0.8-0.9v-2.4h-3.8v4.1h-1v-4.1h-3.6C320.7,422.1,320.2,423.6,319.3,424.8z M320.9,413.6v2.4
			h3.6v-2.4H320.9z M320.9,419.4h3.6V417h-3.6V419.4z M329.4,413.6h-3.8v2.4h3.8V413.6z M329.4,417h-3.8v2.5h3.8V417z"/>
		<path style="fill:#444444;" d="M339,418c-0.7,0.1-1.3,0.1-2.1,0.2v1.1H336v-1c-0.9,0.1-1.9,0.1-2.9,0.2l-0.1-0.9
			c1.1-0.1,2.1-0.1,3-0.2v-1.2h-2.6l-0.2-0.8c0.4-0.4,0.8-1,1.1-1.6h-1.5v-0.9h1.9c0.1-0.3,0.3-0.6,0.4-0.9l1,0.2
			c-0.1,0.3-0.2,0.5-0.3,0.8h3.4v0.9h-3.8c-0.3,0.6-0.6,1.1-1,1.6h1.6v-0.9h0.9v0.9h2.2v0.8h-2.2v1.1c0.7-0.1,1.4-0.1,2.1-0.2V418z
			 M343.6,424.9h-1v-0.5h-7.1v0.5h-1v-5.3h9.2V424.9z M342.6,421.6v-1.1h-7.1v1.1H342.6z M342.6,423.5v-1.1h-7.1v1.1H342.6z
			 M339.8,419.3l-0.7-0.7c0.6-0.9,1-2,1-3.2v-2.2c1.7-0.2,3.1-0.5,4.1-0.9l0.6,0.8c-1,0.4-2.3,0.8-3.8,0.9v1.5h4.2v0.9h-1.5v3h-1v-3
			h-1.8C340.8,417.4,340.4,418.4,339.8,419.3z"/>
		<path style="fill:#444444;" d="M350.3,412.4c-0.3,1-0.7,2-1.2,3v9.5h-1v-7.8c-0.4,0.6-0.8,1.2-1.3,1.7l-0.3-1.1
			c1.3-1.7,2.3-3.6,2.9-5.8L350.3,412.4z M359,420.8h-0.8v0.6h-3v2.3c0,0.8-0.4,1.1-1.2,1.1h-1.6l-0.2-1c0.5,0,1,0.1,1.4,0.1
			c0.4,0,0.5-0.2,0.5-0.5v-2h-3.1v-0.6h-0.9v-2.4h8.8V420.8z M355,413.2h4v0.9h-8.7v-0.9h3.7c-0.1-0.4-0.3-0.7-0.4-1l1-0.2
			C354.7,412.4,354.8,412.8,355,413.2z M358,420.5v-1.3h-6.9v1.3H358z M357.9,414.9v2.6h-6.7v-2.6H357.9z M356.9,415.7h-4.7v1.1h4.7
			V415.7z"/>
	</g>
</g>
<g>
	<g>
		<rect x="148.9" y="395.1" style="opacity:0.6;fill:#BBBBBB;enable-background:new    ;" width="108" height="50"/>
		<rect x="146.9" y="393.1" style="fill:#FFFFFF;stroke:#E5E5E5;" width="108" height="50"/>
	</g>
	<g style="enable-background:new    ;">
		<path style="fill:#444444;" d="M171.7,413.5v1h-3.5v9H167v-9h-3.5v-1H171.7z"/>
		<path style="fill:#444444;" d="M178.6,417.2c0.6,0.7,0.9,1.6,0.9,2.7c0,1.1-0.3,2-0.9,2.7c-0.7,0.8-1.5,1.1-2.6,1.1
			c-1.1,0-1.9-0.4-2.6-1.1c-0.6-0.7-0.9-1.6-0.9-2.7c0-1.1,0.3-2,0.9-2.7c0.6-0.8,1.5-1.1,2.6-1.1
			C177.1,416.1,178,416.4,178.6,417.2z M174.3,417.9c-0.4,0.5-0.6,1.2-0.6,2c0,0.8,0.2,1.5,0.6,2c0.4,0.6,1,0.9,1.8,0.9
			c0.8,0,1.4-0.3,1.8-0.9c0.4-0.5,0.6-1.2,0.6-2c0-0.8-0.2-1.5-0.6-2c-0.4-0.6-1.1-0.9-1.8-0.9C175.3,417,174.7,417.3,174.3,417.9z"
			/>
		<path style="fill:#444444;" d="M186.5,417.4c0.3-0.5,0.6-0.8,1-1c0.4-0.2,0.8-0.3,1.3-0.3c0.8,0,1.4,0.2,1.8,0.7
			c0.4,0.5,0.7,1.1,0.7,2v4.7h-1.1v-4.6c0-0.6-0.1-1.1-0.4-1.4c-0.3-0.3-0.7-0.5-1.3-0.5c-0.5,0-0.9,0.2-1.2,0.5
			c-0.3,0.4-0.5,0.8-0.5,1.4v4.5h-1.1v-4.6c0-1.3-0.6-1.9-1.7-1.9c-0.5,0-0.9,0.2-1.3,0.6c-0.3,0.4-0.5,0.9-0.5,1.5v4.4H181v-7.2
			h1.1v1c0.5-0.8,1.2-1.2,2-1.2C185.3,416.1,186,416.5,186.5,417.4z"/>
		<path style="fill:#444444;" d="M198.3,416.7c0.6,0.4,0.9,1.1,1,2h-1.1c-0.1-0.6-0.3-1-0.7-1.3c-0.4-0.3-0.8-0.4-1.4-0.4
			c-0.7,0-1.3,0.3-1.7,0.8c-0.4,0.5-0.6,1.2-0.6,2.1c0,0.9,0.2,1.6,0.6,2.1c0.4,0.5,0.9,0.8,1.7,0.8c1.2,0,1.9-0.6,2.1-1.9h1.1
			c-0.2,0.9-0.5,1.6-1.1,2.1c-0.5,0.5-1.3,0.7-2.2,0.7c-1.1,0-1.9-0.4-2.5-1.1c-0.6-0.7-0.9-1.6-0.9-2.7s0.3-2,0.9-2.7
			c0.6-0.8,1.5-1.1,2.5-1.1C197,416.1,197.7,416.3,198.3,416.7z"/>
		<path style="fill:#444444;" d="M206.1,416.9c0.4,0.5,0.6,1.1,0.6,2v4.7h-1.1v-1.2c-0.3,0.4-0.7,0.7-1.1,1
			c-0.5,0.3-1.1,0.4-1.8,0.4c-0.7,0-1.3-0.2-1.7-0.5c-0.4-0.4-0.7-0.9-0.7-1.5c0-0.8,0.3-1.4,1-1.9c0.6-0.4,1.4-0.6,2.5-0.6l1.7,0
			v-0.4c0-1.2-0.6-1.8-1.9-1.8c-0.5,0-1,0.1-1.3,0.3c-0.4,0.2-0.6,0.6-0.7,1l-1.1-0.1c0.2-0.8,0.5-1.3,1.1-1.7
			c0.5-0.3,1.2-0.5,2.1-0.5C204.8,416.1,205.6,416.3,206.1,416.9z M204,420.1c-1.6,0-2.4,0.6-2.4,1.6c0,0.3,0.1,0.6,0.4,0.8
			c0.3,0.2,0.6,0.3,1.1,0.3c0.7,0,1.3-0.2,1.8-0.7c0.5-0.4,0.8-0.9,0.8-1.5V420L204,420.1z"/>
		<path style="fill:#444444;" d="M210.4,416.3h1.8v0.9h-1.8v4.6c0,0.3,0,0.5,0.2,0.6c0.1,0.1,0.3,0.2,0.5,0.2h0.9v0.9h-1.1
			c-0.6,0-1-0.2-1.3-0.5c-0.2-0.3-0.4-0.7-0.4-1.2v-4.6h-1.5v-0.9h1.5v-1.9l1.1-0.5V416.3z"/>
		<path style="fill:#444444;" d="M214.2,415.5l-0.9-0.6c0.8-0.9,1.5-1.8,1.8-2.9l1,0.2c-0.1,0.3-0.2,0.6-0.4,0.9h3.8v0.9h-2.4
			c0.3,0.4,0.6,0.8,0.8,1.2l-0.9,0.4c-0.3-0.5-0.6-1.1-0.9-1.6h-0.8C215,414.5,214.6,415,214.2,415.5z M225.5,418.4h-1v-1.7h-9.9
			v1.7h-1v-2.5h5.5c-0.1-0.3-0.3-0.6-0.4-0.9l1-0.2l-0.1-0.1c0.7-0.8,1.1-1.8,1.5-2.8l1,0.2c-0.1,0.3-0.2,0.6-0.3,0.9h4v0.9h-2.5
			c0.3,0.4,0.5,0.8,0.7,1.1l-0.9,0.3c-0.3-0.5-0.5-1-0.9-1.4h-0.9c-0.3,0.5-0.5,0.9-0.9,1.3l-0.8-0.5c0.2,0.3,0.3,0.7,0.4,1.1h5.3
			V418.4z M223.6,420.3h-7v1h7.6v3.6h-1v-0.6h-6.6v0.6h-1v-7.3h8V420.3z M222.6,419.5v-1.1h-6v1.1H222.6z M223.2,423.4v-1.3h-6.6
			v1.3H223.2z"/>
		<path style="fill:#444444;" d="M229,417.3v-3.3h-1.7v-1h4.5v1H230v3.3h1.5v1H230v3.2c0.5-0.2,1-0.4,1.5-0.6v1
			c-1.3,0.5-2.7,1-4.2,1.3l-0.3-1c0.6-0.1,1.2-0.3,1.8-0.4v-3.5h-1.5v-1H229z M239.2,412.6v6.5h-2.9v1.7h3.2v1h-3.2v1.8h3.7v1h-8.4
			v-1h3.8v-1.8h-3.2v-1h3.2v-1.7h-2.9v-6.5H239.2z M235.3,415.4v-1.9h-2v1.9H235.3z M235.3,416.3h-2v1.9h2V416.3z M236.3,415.4h1.9
			v-1.9h-1.9V415.4z M238.3,416.3h-1.9v1.9h1.9V416.3z"/>
	</g>
</g>
<g>
	<g>
		<rect x="18.9" y="395.1" style="opacity:0.6;fill:#BBBBBB;enable-background:new    ;" width="108" height="50"/>
		<rect x="16.9" y="393.1" style="fill:#FFFFFF;stroke:#E5E5E5;" width="108" height="50"/>
	</g>
	<g style="enable-background:new    ;">
		<path style="fill:#444444;" d="M49.9,413.5v6.8c0,1.1-0.2,1.9-0.7,2.5c-0.5,0.6-1.3,0.9-2.4,0.9c-0.9,0-1.7-0.3-2.2-0.8
			c-0.5-0.5-0.8-1.3-0.8-2.3v-0.3H45v0.3c0,1.3,0.6,2,1.8,2c0.7,0,1.2-0.2,1.5-0.6c0.3-0.4,0.4-1,0.4-1.8v-6.8H49.9z"/>
		<path style="fill:#444444;" d="M52.2,413.5l3.1,8.8h0l3.1-8.8h1.3l-3.7,10h-1.4l-3.7-10H52.2z"/>
		<path style="fill:#444444;" d="M62.2,413.5L66,422h0l3.7-8.5h1.4v10H70v-8h0l-3.5,8h-1l-3.5-8h0v8h-1.1v-10H62.2z"/>
		<path style="fill:#444444;" d="M73.8,415.5l-0.9-0.6c0.8-0.9,1.5-1.8,1.8-2.9l1,0.2c-0.1,0.3-0.2,0.6-0.4,0.9h3.8v0.9h-2.4
			c0.3,0.4,0.6,0.8,0.8,1.2l-0.9,0.4c-0.3-0.5-0.6-1.1-0.9-1.6h-0.8C74.6,414.5,74.2,415,73.8,415.5z M85.1,418.4h-1v-1.7h-9.9v1.7
			h-1v-2.5h5.5c-0.1-0.3-0.3-0.6-0.4-0.9l1-0.2l-0.1-0.1c0.7-0.8,1.1-1.8,1.5-2.8l1,0.2c-0.1,0.3-0.2,0.6-0.3,0.9h4v0.9h-2.5
			c0.3,0.4,0.5,0.8,0.7,1.1l-0.9,0.3c-0.3-0.5-0.5-1-0.9-1.4h-0.9c-0.3,0.5-0.5,0.9-0.9,1.3l-0.8-0.5c0.2,0.3,0.3,0.7,0.4,1.1h5.3
			V418.4z M83.2,420.3h-7v1h7.6v3.6h-1v-0.6h-6.6v0.6h-1v-7.3h8V420.3z M82.2,419.5v-1.1h-6v1.1H82.2z M82.8,423.4v-1.3h-6.6v1.3
			H82.8z"/>
		<path style="fill:#444444;" d="M88.6,417.3v-3.3h-1.7v-1h4.5v1h-1.7v3.3h1.5v1h-1.5v3.2c0.5-0.2,1-0.4,1.5-0.6v1
			c-1.3,0.5-2.7,1-4.2,1.3l-0.3-1c0.6-0.1,1.2-0.3,1.8-0.4v-3.5H87v-1H88.6z M98.8,412.6v6.5h-2.9v1.7h3.2v1h-3.2v1.8h3.7v1h-8.4v-1
			h3.8v-1.8h-3.2v-1h3.2v-1.7H92v-6.5H98.8z M94.9,415.4v-1.9h-2v1.9H94.9z M94.9,416.3h-2v1.9h2V416.3z M95.9,415.4h1.9v-1.9h-1.9
			V415.4z M97.9,416.3h-1.9v1.9h1.9V416.3z"/>
	</g>
</g>
<g>
	<g>
		<polyline style="fill:none;stroke:#BABABA;stroke-miterlimit:10;" points="1,178.2 1,175.2 4,175.2 		"/>
		
			<line style="fill:none;stroke:#BABABA;stroke-miterlimit:10;stroke-dasharray:5.9616,5.9616;" x1="10" y1="175.2" x2="674.7" y2="175.2"/>
		<polyline style="fill:none;stroke:#BABABA;stroke-miterlimit:10;" points="677.7,175.2 680.7,175.2 680.7,178.2 		"/>
		
			<line style="fill:none;stroke:#BABABA;stroke-miterlimit:10;stroke-dasharray:5.9649,5.9649;" x1="680.7" y1="184.1" x2="680.7" y2="288.5"/>
		<polyline style="fill:none;stroke:#BABABA;stroke-miterlimit:10;" points="680.7,291.5 680.7,294.5 677.7,294.5 		"/>
		
			<line style="fill:none;stroke:#BABABA;stroke-miterlimit:10;stroke-dasharray:5.9616,5.9616;" x1="671.7" y1="294.5" x2="7" y2="294.5"/>
		<polyline style="fill:none;stroke:#BABABA;stroke-miterlimit:10;" points="4,294.5 1,294.5 1,291.5 		"/>
		
			<line style="fill:none;stroke:#BABABA;stroke-miterlimit:10;stroke-dasharray:5.9649,5.9649;" x1="1" y1="285.5" x2="1" y2="181.1"/>
	</g>
</g>
<g>
	<g style="enable-background:new    ;">
		<path style="fill:#444444;" d="M17.5,205.4l-0.2-1c0.4,0,0.7,0.1,1.1,0.1c0.4,0,0.5-0.2,0.5-0.5v-3.4c-0.6,0.2-1.1,0.4-1.7,0.6
			l-0.3-1c0.7-0.2,1.3-0.4,1.9-0.6v-3.1h-1.7v-1h1.7v-2.7h1v2.7h1.2v1h-1.2v2.7c0.4-0.2,0.8-0.4,1.2-0.6v1c-0.4,0.2-0.8,0.4-1.2,0.6
			v4.1c0,0.8-0.4,1.2-1.2,1.2H17.5z M21.8,201v-0.9h7.5v0.9h-3.2v3.1h3.7v1h-8.6v-1h3.8V201H21.8z M26.2,194.2h3.3v2.6h-0.9v-1.7
			h-5.9v1.7h-1v-2.6h3.5c-0.2-0.6-0.5-1.1-0.7-1.5l1-0.2C25.7,193,26,193.6,26.2,194.2z M25.1,196.3c-0.6,1.4-1.5,2.5-2.5,3.2
			l-0.7-0.6c1.1-0.7,1.8-1.7,2.4-2.9L25.1,196.3z M29.2,199l-0.9,0.4c-0.7-1.1-1.4-2.2-2.3-3.1l0.9-0.4
			C27.8,196.9,28.5,197.9,29.2,199z"/>
		<path style="fill:#444444;" d="M31.7,196.8l-0.8-0.6c0.7-0.8,1.1-1.8,1.3-3.1l1,0.2c-0.1,0.4-0.2,0.9-0.3,1.2h1.6v-1.7h1v1.7h2.6
			v0.9h-2.6v1.8h3v0.9h-3v1.5h2.7v3.7c0,0.8-0.4,1.2-1.3,1.2h-0.7l-0.3-1l0.7,0c0.4,0,0.6-0.2,0.6-0.5v-2.5h-1.8v5h-1v-5h-1.8v4.1
			h-1v-5h2.8v-1.5h-3.4v-0.9h3.4v-1.8h-2C32.4,195.9,32.1,196.4,31.7,196.8z M40.4,194v8.7h-1V194H40.4z M39.9,205.4l-0.2-1
			c0.7,0,1.3,0.1,1.9,0.1c0.4,0,0.6-0.2,0.6-0.7v-11.1h1v11.4c0,0.9-0.4,1.3-1.3,1.3H39.9z"/>
		<path style="fill:#444444;" d="M48,205.5h-1v-7c-0.4,1.3-1,2.5-1.7,3.6l-0.4-1.1c1-1.3,1.7-2.9,2.1-4.6v-0.1h-1.6v-0.9H47v-2.7h1
			v2.7h1.5v0.9H48v0.9c0.6,0.7,1.2,1.6,1.9,2.5l-0.5,0.8c-0.5-0.9-1-1.7-1.3-2.2V205.5z M52.7,203.6c-0.6,0.8-1.8,1.4-3.4,1.9
			l-0.4-0.8c1.4-0.4,2.4-0.9,3-1.6c0.1-0.2,0.3-0.4,0.4-0.6h-3.3v-0.9h3.7c0.1-0.3,0.2-0.7,0.3-1.1h-2.9v-4.2h6.7v4.2h-2.9
			c-0.1,0.4-0.1,0.7-0.2,1.1h4v0.9h-3.5c0.8,1,2,1.7,3.7,2.3l-0.7,0.8c-1.8-0.8-3.1-1.8-3.9-2.9C53.1,203,52.9,203.3,52.7,203.6z
			 M51.4,193.8v-1.1h0.9v1.1h2.3v-1.1h1v1.1h2.2v0.9h-2.2v1h-1v-1h-2.3v1h-0.9v-1h-2v-0.9H51.4z M55.9,198V197H51v0.9H55.9z
			 M55.9,198.7H51v1h4.9V198.7z"/>
		<path style="fill:#444444;" d="M60.7,196.4v-3.6h1v3.6h1.6v1h-1.6v4.7c0.6-0.2,1.3-0.5,1.9-0.8v1c-1.4,0.6-2.8,1.2-4.4,1.6l-0.3-1
			c0.6-0.1,1.2-0.3,1.8-0.5v-5h-1.6v-1H60.7z M63.3,205.5l-0.6-0.8c1.8-1,3-2.6,3.5-4.8h-2.9v-1h3c0.1-0.6,0.1-1.2,0.1-1.9v-1.2
			h-2.6v-1h2.6v-2.1h1v2.1h3v4.1h1.2v1h-4c0.9,2,2.2,3.6,4.1,4.8l-0.7,0.8c-1.9-1.4-3.3-3.1-4.1-5.1
			C66.4,202.7,65.2,204.4,63.3,205.5z M67.5,196.8c0,0.7-0.1,1.4-0.1,2.1h2.2v-3.1h-2.1V196.8z"/>
	</g>
</g>
<g>
	<g>
		<rect x="540.9" y="226" style="opacity:0.6;fill:#BBBBBB;enable-background:new    ;" width="124" height="50"/>
		<rect x="538.9" y="224" style="fill:#FFFFFF;stroke:#E5E5E5;" width="124" height="50"/>
	</g>
	<g style="enable-background:new    ;">
		<path style="fill:#444444;" d="M585.7,254.4h1.5v0.9h-12.7v-0.9h1.6v-3.9h9.6V254.4z M576.5,243.6v5.7h-1v-5.7H576.5z
			 M578.9,254.4v-3H577v3H578.9z M579.4,242.9v6.9h-1v-6.9H579.4z M581.8,254.4v-3h-2v3H581.8z M580.6,248.4l-0.6-0.8
			c1-1.2,1.7-2.8,2-4.8l1,0.2c-0.1,0.6-0.2,1.1-0.4,1.6h4.2v1h-4.5C581.9,246.7,581.3,247.7,580.6,248.4z M584.7,254.4v-3h-1.9v3
			H584.7z M585.5,249l-0.8,0.6c-0.4-0.8-1-1.6-1.7-2.6l0.8-0.5C584.6,247.5,585.1,248.3,585.5,249z"/>
		<path style="fill:#444444;" d="M588.9,255.7l-0.2-1c0.4,0,0.7,0.1,1.1,0.1c0.4,0,0.5-0.2,0.5-0.5v-3.4c-0.6,0.2-1.1,0.4-1.7,0.6
			l-0.3-1c0.7-0.2,1.3-0.4,1.9-0.6v-3.1h-1.7v-1h1.7v-2.7h1v2.7h1.2v1h-1.2v2.7c0.4-0.2,0.8-0.4,1.2-0.6v1c-0.4,0.2-0.8,0.4-1.2,0.6
			v4.1c0,0.8-0.4,1.2-1.2,1.2H588.9z M593.3,251.3v-0.9h7.5v0.9h-3.2v3.1h3.7v1h-8.6v-1h3.8v-3.1H593.3z M597.6,244.5h3.3v2.6H600
			v-1.7h-5.9v1.7h-1v-2.6h3.5c-0.2-0.6-0.5-1.1-0.7-1.5l1-0.2C597.2,243.3,597.4,243.8,597.6,244.5z M596.5,246.6
			c-0.6,1.4-1.5,2.5-2.5,3.2l-0.7-0.6c1.1-0.7,1.8-1.7,2.4-2.9L596.5,246.6z M600.6,249.2l-0.9,0.4c-0.7-1.1-1.4-2.2-2.3-3.1
			l0.9-0.4C599.2,247.1,600,248.1,600.6,249.2z"/>
		<path style="fill:#444444;" d="M609.4,242.9v2.5h5v6.6h-1v-0.9h-4v4.8h-1v-4.8h-4v0.9h-1v-6.6h5v-2.5H609.4z M608.4,250.1v-3.7h-4
			v3.7H608.4z M613.4,250.1v-3.7h-4v3.7H613.4z"/>
		<path style="fill:#444444;" d="M619,247.6c-0.4,2.4-1,4.5-1.7,6.2l-0.9-0.5c0.7-1.8,1.2-3.7,1.6-5.9L619,247.6z M621.5,255.3
			c-1,0-1.5-0.5-1.5-1.4v-8h1v7.8c0,0.4,0.3,0.6,0.8,0.6h2.6c0.3,0,0.6-0.1,0.7-0.4c0.2-0.3,0.3-1.3,0.4-3l1,0.3
			c-0.1,1.9-0.3,3.1-0.6,3.5c-0.3,0.4-0.7,0.5-1.2,0.5H621.5z M625,246.6l-0.8,0.6c-0.7-1.1-1.7-2.3-3-3.6l0.8-0.5
			C623.3,244.3,624.3,245.5,625,246.6z M629.4,252.7l-0.9,0.4c-0.7-2.2-1.5-4.2-2.4-5.9l1-0.3C627.9,248.7,628.7,250.7,629.4,252.7z
			"/>
	</g>
</g>
<g>
	<g>
		<rect x="366.9" y="226" style="opacity:0.6;fill:#BBBBBB;enable-background:new    ;" width="124" height="50"/>
		<rect x="364.9" y="224" style="fill:#FFFFFF;stroke:#E5E5E5;" width="124" height="50"/>
	</g>
	<g style="enable-background:new    ;">
		<path style="fill:#444444;" d="M387.7,249.7h3c0,2.4-0.1,3.9-0.2,4.6c-0.2,0.8-0.9,1.2-2.1,1.3c-0.3,0-0.7,0-1-0.1l-0.3-0.9
			c0.3,0,0.7,0.1,1,0.1c0.8,0,1.3-0.3,1.4-0.8c0.1-0.5,0.2-1.7,0.2-3.3h-3.1l0.4-4h2.5v-2.2h-2.8v-0.9h3.7v4h-2.6L387.7,249.7z
			 M395.8,245.2c0.4-0.8,0.8-1.5,1.1-2.4l1,0.3c-0.3,0.8-0.7,1.4-1.1,2h1.8v5.6h-3v1.4h3.6v0.9h-3.6v2.7h-1v-2.7h-3.5v-0.9h3.5v-1.4
			h-2.9v-5.6H395.8z M394.5,244.8l-0.9,0.4c-0.3-0.7-0.7-1.4-1.1-1.9l0.9-0.3C393.8,243.5,394.2,244.1,394.5,244.8z M394.7,247.6
			v-1.6h-2v1.6H394.7z M394.7,248.5h-2v1.5h2V248.5z M395.7,247.6h2.1v-1.6h-2.1V247.6z M397.8,248.5h-2.1v1.5h2.1V248.5z"/>
		<path style="fill:#444444;" d="M401.7,245.7c0,1.4-0.2,2.7-0.5,4l-0.8-0.2c0.3-1.2,0.5-2.5,0.5-3.8L401.7,245.7z M403.4,243v12.7
			h-1V243H403.4z M405.2,247.7c0.5-1.2,0.8-2.5,0.8-3.9l0.9,0.1c0,0.6-0.1,1.1-0.2,1.7h2V243h1v2.6h3.1v1h-3.1v3.4h2.8v1h-2.8v3.4
			h3.4v1h-8.5v-1h4V251h-3.2v-1h3.2v-3.4h-2.2c-0.3,1-0.6,2-1.1,2.8l-0.7-0.7c0.2-0.3,0.3-0.6,0.4-0.9l-0.7,0.2
			c-0.2-0.9-0.5-1.7-0.8-2.5l0.7-0.2C404.7,246,405,246.8,405.2,247.7z"/>
		<path style="fill:#444444;" d="M417.4,247.2v5.8c0.3-0.3,0.7-0.6,1-1l0.3,1c-0.7,0.7-1.4,1.3-2.2,1.9l-0.4-0.9
			c0.2-0.2,0.3-0.3,0.3-0.6v-5.3h-1.9v-1H417.4z M418.4,245.2l-0.7,0.7c-0.6-0.7-1.3-1.4-2.2-2.1l0.7-0.7
			C417.1,243.8,417.8,244.5,418.4,245.2z M426.8,254.5c0,0.8-0.4,1.2-1.3,1.2h-1.3l-0.2-0.9c0.5,0,0.9,0,1.3,0
			c0.4,0,0.6-0.2,0.6-0.7v-9.7h-5.7v6.8c0,1.9-0.4,3.4-1.2,4.6l-0.7-0.7c0.7-1,1-2.3,1-3.9v-7.7h7.6V254.5z M422.5,246.1V245h1v1.1
			h1.6v0.8h-1.6v1.3h1.9v0.8h-4.7v-0.8h1.8v-1.3h-1.6v-0.8H422.5z M424.8,250v3.6h-3.7V250H424.8z M424,250.9h-2v1.9h2V250.9z"/>
		<path style="fill:#444444;" d="M430.7,248.6c-0.1,3-0.6,5.4-1.5,7.1l-0.8-0.7c0.8-1.6,1.2-3.7,1.3-6.5V244h5.4
			c-0.2-0.4-0.3-0.7-0.5-1l1.1-0.2c0.2,0.4,0.3,0.7,0.5,1.2h4.8v1h-10.2v1.6h2.4v-1.1h1v1.1h3.7v-1.1h1v1.1h2.2v0.9h-2.2v2.2h-5.7
			v-2.2h-2.4V248.6z M439.7,250.6v0.7c-0.8,1-1.7,1.8-2.9,2.5c1.3,0.5,2.7,0.9,4.4,1.1l-0.4,0.9c-1.9-0.3-3.6-0.8-4.9-1.5
			c-1.4,0.7-3.1,1.2-4.9,1.5l-0.4-0.9c1.6-0.2,3.1-0.6,4.3-1.1c-1-0.6-1.9-1.4-2.5-2.3h-0.9v-0.9H439.7z M435.9,253.4
			c1-0.5,1.8-1.1,2.6-1.8h-5C434.1,252.2,434.9,252.9,435.9,253.4z M434.1,248.8h3.7v-1.3h-3.7V248.8z"/>
		<path style="fill:#444444;" d="M449.4,242.9v2.5h5v6.6h-1v-0.9h-4v4.8h-1v-4.8h-4v0.9h-1v-6.6h5v-2.5H449.4z M448.4,250.1v-3.7h-4
			v3.7H448.4z M453.4,250.1v-3.7h-4v3.7H453.4z"/>
		<path style="fill:#444444;" d="M459,247.6c-0.4,2.4-1,4.5-1.7,6.2l-0.9-0.5c0.7-1.8,1.2-3.7,1.6-5.9L459,247.6z M461.5,255.3
			c-1,0-1.5-0.5-1.5-1.4v-8h1v7.8c0,0.4,0.3,0.6,0.8,0.6h2.6c0.3,0,0.6-0.1,0.7-0.4c0.2-0.3,0.3-1.3,0.4-3l1,0.3
			c-0.1,1.9-0.3,3.1-0.6,3.5c-0.3,0.4-0.7,0.5-1.2,0.5H461.5z M465,246.6l-0.8,0.6c-0.7-1.1-1.7-2.3-3-3.6l0.8-0.5
			C463.3,244.3,464.3,245.5,465,246.6z M469.4,252.7l-0.9,0.4c-0.7-2.2-1.5-4.2-2.4-5.9l1-0.3C467.9,248.7,468.7,250.7,469.4,252.7z
			"/>
	</g>
</g>
<g>
	<g>
		<rect x="192.4" y="226" style="opacity:0.6;fill:#BBBBBB;enable-background:new    ;" width="125" height="50"/>
		<rect x="190.4" y="224" style="fill:#FFFFFF;stroke:#E5E5E5;" width="125" height="50"/>
	</g>
	<g style="enable-background:new    ;">
		<path style="fill:#444444;" d="M214.3,245.7v-2.7h1v2.7h1.7v1h-1.7v0.7c0.6,0.7,1.3,1.4,2,2.2l-0.6,0.9c-0.5-0.9-1-1.6-1.4-2.1
			v7.4h-1v-7.1c-0.5,1.4-1.1,2.7-1.9,3.8l-0.4-1.1c1.1-1.4,1.8-2.9,2.3-4.7h-2v-1H214.3z M217.6,252.3c0.2-0.9,0.3-2,0.3-3.4v-5.3
			h4.5v10.6c0,0.2,0.1,0.4,0.3,0.4h0.5c0.2,0,0.3,0,0.4-0.1c0.1-0.1,0.2-0.2,0.2-0.4c0.1-0.3,0.1-1.1,0.1-2.4l0.9,0.3
			c0,1,0,1.8-0.1,2.3c-0.1,0.5-0.2,0.8-0.4,1c-0.2,0.2-0.6,0.2-1,0.2h-0.6c-0.9,0-1.3-0.4-1.3-1.2v-9.7h-2.5v4.4
			c0,1.5-0.1,2.8-0.4,3.9c-0.2,1.1-0.7,2.1-1.3,3.1l-0.8-0.7C217,254.2,217.4,253.3,217.6,252.3z"/>
		<path style="fill:#444444;" d="M230.9,248.3c0.3-0.4,0.5-0.7,0.6-1.1l1,0.1c-0.1,0.4-0.3,0.7-0.5,1h3.6c-0.2-0.3-0.4-0.7-0.6-1
			l0.9-0.3c0.3,0.4,0.5,0.8,0.8,1.2h1.9v0.9h-3.8c0.9,0.8,2.3,1.5,4.1,2l-0.4,0.9c-0.4-0.1-0.7-0.2-1-0.3v4.1h-0.9v-0.6H234v0.6
			h-0.9v-4.4h3.7c-1.3-0.6-2.4-1.4-3.1-2.2h-2.4c-0.8,0.9-1.8,1.6-3.2,2.2h3.5v4.4h-0.9v-0.6h-2.4v0.6h-0.9v-4.1
			c-0.4,0.1-0.8,0.3-1.1,0.4l-0.5-0.8c1.8-0.5,3.2-1.2,4.1-2.1h-3.9v-0.9H230.9z M231.6,243.5v3.4h-4.3v-3.4H231.6z M230.7,244.3
			h-2.4v1.7h2.4V244.3z M230.8,254.3v-2.1h-2.4v2.1H230.8z M237.5,243.5v3.4h-4.4v-3.4H237.5z M236.6,254.3v-2.1H234v2.1H236.6z
			 M236.6,244.3h-2.5v1.7h2.5V244.3z"/>
		<path style="fill:#444444;" d="M241,246.3l-0.9-0.6c0.8-0.9,1.5-1.8,1.8-2.9l1,0.2c-0.1,0.3-0.2,0.6-0.4,0.9h3.8v0.9H244
			c0.3,0.4,0.6,0.8,0.8,1.2l-0.9,0.4c-0.3-0.5-0.6-1.1-0.9-1.6h-0.8C241.8,245.4,241.4,245.9,241,246.3z M252.3,249.3h-1v-1.7h-9.9
			v1.7h-1v-2.5h5.5c-0.1-0.3-0.3-0.6-0.4-0.9l1-0.2l-0.1-0.1c0.7-0.8,1.1-1.8,1.5-2.8l1,0.2c-0.1,0.3-0.2,0.6-0.3,0.9h4v0.9h-2.5
			c0.3,0.4,0.5,0.8,0.7,1.1l-0.9,0.3c-0.3-0.5-0.5-1-0.9-1.4h-0.9c-0.3,0.5-0.5,0.9-0.9,1.3l-0.8-0.5c0.2,0.3,0.3,0.7,0.4,1.1h5.3
			V249.3z M250.4,251.2h-7v1h7.6v3.6h-1v-0.6h-6.6v0.6h-1v-7.3h8V251.2z M249.4,250.4v-1.1h-6v1.1H249.4z M250,254.3V253h-6.6v1.3
			H250z"/>
		<path style="fill:#444444;" d="M255.8,248.1v-3.3h-1.7v-1h4.5v1h-1.7v3.3h1.5v1h-1.5v3.2c0.5-0.2,1-0.4,1.5-0.6v1
			c-1.3,0.5-2.7,1-4.2,1.3l-0.3-1c0.6-0.1,1.2-0.3,1.8-0.4v-3.5h-1.5v-1H255.8z M266.1,243.5v6.5h-2.9v1.7h3.2v1h-3.2v1.8h3.7v1
			h-8.4v-1h3.8v-1.8H259v-1h3.2V250h-2.9v-6.5H266.1z M262.1,246.3v-1.9h-2v1.9H262.1z M262.1,247.2h-2v1.9h2V247.2z M263.1,246.3
			h1.9v-1.9h-1.9V246.3z M265.1,247.2h-1.9v1.9h1.9V247.2z"/>
		<path style="fill:#444444;" d="M274.9,242.9v2.5h5v6.6h-1v-0.9h-4v4.8h-1v-4.8h-4v0.9h-1v-6.6h5v-2.5H274.9z M273.9,250.1v-3.7h-4
			v3.7H273.9z M278.9,250.1v-3.7h-4v3.7H278.9z"/>
		<path style="fill:#444444;" d="M284.5,247.6c-0.4,2.4-1,4.5-1.7,6.2l-0.9-0.5c0.7-1.8,1.2-3.7,1.6-5.9L284.5,247.6z M287.1,255.3
			c-1,0-1.5-0.5-1.5-1.4v-8h1v7.8c0,0.4,0.3,0.6,0.8,0.6h2.6c0.3,0,0.6-0.1,0.7-0.4c0.2-0.3,0.3-1.3,0.4-3l1,0.3
			c-0.1,1.9-0.3,3.1-0.6,3.5c-0.3,0.4-0.7,0.5-1.2,0.5H287.1z M290.5,246.6l-0.8,0.6c-0.7-1.1-1.7-2.3-3-3.6l0.8-0.5
			C288.8,244.3,289.8,245.5,290.5,246.6z M294.9,252.7l-0.9,0.4c-0.7-2.2-1.5-4.2-2.4-5.9l1-0.3
			C293.4,248.7,294.2,250.7,294.9,252.7z"/>
	</g>
</g>
<g>
	<g>
		<rect x="18.9" y="226" style="opacity:0.6;fill:#BBBBBB;enable-background:new    ;" width="124" height="50"/>
		<rect x="16.9" y="224" style="fill:#FFFFFF;stroke:#E5E5E5;" width="124" height="50"/>
	</g>
	<g style="enable-background:new    ;">
		<path style="fill:#444444;" d="M50,243c-0.2,0.5-0.4,1-0.6,1.4h7.8c0,3.5-0.1,5.7-0.2,6.6c-0.1,0.9-0.7,1.3-1.6,1.3
			c-0.2,0-0.5,0-0.9,0l-0.2-0.9c0.4,0,0.7,0.1,1,0.1c0.5,0,0.7-0.3,0.8-0.8c0.1-0.6,0.1-2.3,0.2-5.2h-7.3c-0.7,1.1-1.5,2.2-2.4,3
			l-0.7-0.8c1.3-1.2,2.4-2.8,3.2-4.8L50,243z M53.8,251.4h-5.1v2.6c0,0.4,0.2,0.6,0.7,0.6h6.7c0.3,0,0.5-0.2,0.7-0.4
			c0.1-0.2,0.2-0.8,0.3-1.7l1,0.3c-0.1,0.9-0.2,1.5-0.3,1.8c-0.2,0.6-0.6,0.8-1.3,0.9H49c-0.9,0-1.3-0.4-1.3-1.2v-7.2h6.1V251.4z
			 M52.7,250.5v-2.4h-4v2.4H52.7z"/>
		<path style="fill:#444444;" d="M60.5,246.3l-0.9-0.6c0.8-0.9,1.5-1.8,1.8-2.9l1,0.2c-0.1,0.3-0.2,0.6-0.4,0.9h3.8v0.9h-2.4
			c0.3,0.4,0.6,0.8,0.8,1.2l-0.9,0.4c-0.3-0.5-0.6-1.1-0.9-1.6h-0.8C61.3,245.4,60.9,245.9,60.5,246.3z M71.8,249.3h-1v-1.7h-9.9
			v1.7h-1v-2.5h5.5c-0.1-0.3-0.3-0.6-0.4-0.9l1-0.2l-0.1-0.1c0.7-0.8,1.1-1.8,1.5-2.8l1,0.2c-0.1,0.3-0.2,0.6-0.3,0.9h4v0.9h-2.5
			c0.3,0.4,0.5,0.8,0.7,1.1l-0.9,0.3c-0.3-0.5-0.5-1-0.9-1.4h-0.9c-0.3,0.5-0.5,0.9-0.9,1.3l-0.8-0.5c0.2,0.3,0.3,0.7,0.4,1.1h5.3
			V249.3z M69.9,251.2h-7v1h7.6v3.6h-1v-0.6h-6.6v0.6h-1v-7.3h8V251.2z M68.9,250.4v-1.1h-6v1.1H68.9z M69.6,254.3V253h-6.6v1.3
			H69.6z"/>
		<path style="fill:#444444;" d="M75.3,248.1v-3.3h-1.7v-1H78v1h-1.7v3.3h1.5v1h-1.5v3.2c0.5-0.2,1-0.4,1.5-0.6v1
			c-1.3,0.5-2.7,1-4.2,1.3l-0.3-1c0.6-0.1,1.2-0.3,1.8-0.4v-3.5h-1.5v-1H75.3z M85.6,243.5v6.5h-2.9v1.7h3.2v1h-3.2v1.8h3.7v1h-8.4
			v-1h3.8v-1.8h-3.2v-1h3.2V250h-2.9v-6.5H85.6z M81.6,246.3v-1.9h-2v1.9H81.6z M81.6,247.2h-2v1.9h2V247.2z M82.7,246.3h1.9v-1.9
			h-1.9V246.3z M84.6,247.2h-1.9v1.9h1.9V247.2z"/>
		<path style="fill:#444444;" d="M94.4,242.9v2.5h5v6.6h-1v-0.9h-4v4.8h-1v-4.8h-4v0.9h-1v-6.6h5v-2.5H94.4z M93.4,250.1v-3.7h-4
			v3.7H93.4z M98.4,250.1v-3.7h-4v3.7H98.4z"/>
		<path style="fill:#444444;" d="M104,247.6c-0.4,2.4-1,4.5-1.7,6.2l-0.9-0.5c0.7-1.8,1.2-3.7,1.6-5.9L104,247.6z M106.6,255.3
			c-1,0-1.5-0.5-1.5-1.4v-8h1v7.8c0,0.4,0.3,0.6,0.8,0.6h2.6c0.3,0,0.6-0.1,0.7-0.4c0.2-0.3,0.3-1.3,0.4-3l1,0.3
			c-0.1,1.9-0.3,3.1-0.6,3.5c-0.3,0.4-0.7,0.5-1.2,0.5H106.6z M110,246.6l-0.8,0.6c-0.7-1.1-1.7-2.3-3-3.6l0.8-0.5
			C108.3,244.3,109.3,245.5,110,246.6z M114.4,252.7l-0.9,0.4c-0.7-2.2-1.5-4.2-2.4-5.9l1-0.3C113,248.7,113.7,250.7,114.4,252.7z"
			/>
	</g>
</g>
<g>
	<g>
		<rect x="576.9" y="50.2" style="opacity:0.6;fill:#BBBBBB;enable-background:new    ;" width="88" height="50"/>
		<rect x="574.9" y="48.2" style="fill:#FFFFFF;stroke:#E5E5E5;" width="88" height="50"/>
	</g>
	<g style="enable-background:new    ;">
		<path style="fill:#444444;" d="M604,67.2c-0.2,0.5-0.4,1-0.6,1.4h7.8c0,3.5-0.1,5.7-0.2,6.6c-0.1,0.9-0.7,1.3-1.6,1.3
			c-0.2,0-0.5,0-0.9,0l-0.2-0.9c0.4,0,0.7,0.1,1,0.1c0.5,0,0.7-0.3,0.8-0.8c0.1-0.6,0.1-2.3,0.2-5.2h-7.3c-0.7,1.1-1.5,2.2-2.4,3
			l-0.7-0.8c1.3-1.2,2.4-2.8,3.2-4.8L604,67.2z M607.7,75.6h-5.1v2.6c0,0.4,0.2,0.6,0.7,0.6h6.7c0.3,0,0.5-0.2,0.7-0.4
			c0.1-0.2,0.2-0.8,0.3-1.7l1,0.3c-0.1,0.9-0.2,1.5-0.3,1.8c-0.2,0.6-0.6,0.8-1.3,0.9H603c-0.9,0-1.3-0.4-1.3-1.2v-7.2h6.1V75.6z
			 M606.7,74.7v-2.4h-4v2.4H606.7z"/>
		<path style="fill:#444444;" d="M614.5,70.5l-0.9-0.6c0.8-0.9,1.5-1.8,1.8-2.9l1,0.2c-0.1,0.3-0.2,0.6-0.4,0.9h3.8V69h-2.4
			c0.3,0.4,0.6,0.8,0.8,1.2l-0.9,0.4c-0.3-0.5-0.6-1.1-0.9-1.6h-0.8C615.3,69.6,614.9,70.1,614.5,70.5z M625.8,73.5h-1v-1.7h-9.9
			v1.7h-1V71h5.5c-0.1-0.3-0.3-0.6-0.4-0.9l1-0.2l-0.1-0.1c0.7-0.8,1.1-1.8,1.5-2.8l1,0.2c-0.1,0.3-0.2,0.6-0.3,0.9h4V69h-2.5
			c0.3,0.4,0.5,0.8,0.7,1.1l-0.9,0.3c-0.3-0.5-0.5-1-0.9-1.4h-0.9c-0.3,0.5-0.5,0.9-0.9,1.3l-0.8-0.5c0.2,0.3,0.3,0.7,0.4,1.1h5.3
			V73.5z M623.9,75.4h-7v1h7.6V80h-1v-0.6h-6.6v0.6h-1v-7.3h8V75.4z M622.9,74.6v-1.1h-6v1.1H622.9z M623.5,78.5v-1.3h-6.6v1.3
			H623.5z"/>
		<path style="fill:#444444;" d="M629.3,72.3V69h-1.7v-1h4.5v1h-1.7v3.3h1.5v1h-1.5v3.2c0.5-0.2,1-0.4,1.5-0.6v1
			c-1.3,0.5-2.7,1-4.2,1.3l-0.3-1c0.6-0.1,1.2-0.3,1.8-0.4v-3.5h-1.5v-1H629.3z M639.5,67.7v6.5h-2.9v1.7h3.2v1h-3.2v1.8h3.7v1h-8.4
			v-1h3.8v-1.8h-3.2v-1h3.2v-1.7h-2.9v-6.5H639.5z M635.6,70.5v-1.9h-2v1.9H635.6z M635.6,71.4h-2v1.9h2V71.4z M636.6,70.5h1.9v-1.9
			h-1.9V70.5z M638.6,71.4h-1.9v1.9h1.9V71.4z"/>
	</g>
</g>
<g>
	<polygon style="fill:#878787;" points="152.5,245.5 147.5,250 152.5,254.5 	"/>
	<polygon style="fill:#878787;" points="181.3,245.5 186.3,250 181.3,254.5 	"/>
	<rect x="152.5" y="249.5" style="fill:#878787;" width="28.7" height="1"/>
</g>
<g>
	<polygon style="fill:#878787;" points="326.5,245.5 321.5,250 326.5,254.5 	"/>
	<polygon style="fill:#878787;" points="355.3,245.5 360.3,250 355.3,254.5 	"/>
	<rect x="326.5" y="249.5" style="fill:#878787;" width="28.7" height="1"/>
</g>
<g>
	<polygon style="fill:#878787;" points="500.5,245.5 495.5,250 500.5,254.5 	"/>
	<polygon style="fill:#878787;" points="529.2,245.5 534.2,250 529.2,254.5 	"/>
	<rect x="500.5" y="249.5" style="fill:#878787;" width="28.7" height="1"/>
</g>
<g>
	<polygon style="fill:#878787;" points="701.1,412.6 706.1,417.1 701.1,421.6 	"/>
	<rect x="671.4" y="416.6" style="fill:#878787;" width="29.7" height="1"/>
</g>
<g>
	<polygon style="fill:#878787;" points="87.4,129.3 82.9,124.3 78.4,129.3 	"/>
	<polygon style="fill:#878787;" points="87.4,211.5 82.9,216.5 78.4,211.5 	"/>
	<rect x="82.4" y="129.3" style="fill:#878787;" width="1" height="82.2"/>
</g>
<g>
	<polygon style="fill:#878787;" points="258.4,129.3 253.9,124.3 249.4,129.3 	"/>
	<polygon style="fill:#878787;" points="258.4,211.5 253.9,216.5 249.4,211.5 	"/>
	<rect x="253.4" y="129.3" style="fill:#878787;" width="1" height="82.2"/>
</g>
<g>
	<polygon style="fill:#878787;" points="87.4,287.1 82.9,282.1 78.4,287.1 	"/>
	<polygon style="fill:#878787;" points="87.4,329.3 82.9,334.3 78.4,329.3 	"/>
	<rect x="82.4" y="287.1" style="fill:#878787;" width="1" height="42.2"/>
</g>
<g>
	<polygon style="fill:#878787;" points="258.4,287.1 253.9,282.1 249.4,287.1 	"/>
	<polygon style="fill:#878787;" points="258.4,329.3 253.9,334.3 249.4,329.3 	"/>
	<rect x="253.4" y="287.1" style="fill:#878787;" width="1" height="42.2"/>
</g>
<g>
	<polygon style="fill:#878787;" points="433.4,287.1 428.9,282.1 424.4,287.1 	"/>
	<polygon style="fill:#878787;" points="433.4,329.3 428.9,334.3 424.4,329.3 	"/>
	<rect x="428.4" y="287.1" style="fill:#878787;" width="1" height="42.2"/>
</g>
<g>
	<polygon style="fill:#878787;" points="606.4,287.1 601.9,282.1 597.4,287.1 	"/>
	<polygon style="fill:#878787;" points="606.4,380.3 601.9,385.3 597.4,380.3 	"/>
	<rect x="601.4" y="287.1" style="fill:#878787;" width="1" height="93.3"/>
</g>
<g>
	<polygon style="fill:#878787;" points="701.1,350.7 706.1,346.2 701.1,341.7 	"/>
	<polygon style="fill:#878787;" points="648.9,380.3 644.4,385.3 639.9,380.3 	"/>
	<rect x="643.9" y="345.7" style="fill:#878787;" width="1" height="34.7"/>
	<rect x="644.4" y="345.7" style="fill:#878787;" width="56.7" height="1"/>
</g>
<g>
	<polygon style="fill:#878787;" points="493.3,329.3 497.8,334.3 502.3,329.3 	"/>
	<polygon style="fill:#878787;" points="563.4,287.1 567.9,282.1 572.4,287.1 	"/>
	<rect x="567.4" y="287.1" style="fill:#878787;" width="1" height="23.7"/>
	<rect x="497.3" y="309.7" style="fill:#878787;" width="1" height="19.5"/>
	<rect x="497.4" y="309.7" style="fill:#878787;" width="70.6" height="1"/>
</g>
<g>
	<polygon style="fill:#878787;" points="606.4,131.3 601.9,126.3 597.4,131.3 	"/>
	<polygon style="fill:#878787;" points="606.4,207.5 601.9,212.5 597.4,207.5 	"/>
	<rect x="601.4" y="131.3" style="fill:#878787;" width="1" height="76.2"/>
</g>
<g>
	<path style="fill:#878787;" d="M95.6,142.8c-0.2,0.5-0.5,1.1-0.7,1.6h7.9c0,3.4-0.1,5.6-0.2,6.4c-0.1,0.9-0.6,1.4-1.6,1.4
		c-0.2,0-0.4,0-0.9,0l-0.2-0.7c0.4,0,0.7,0,1,0c0.5,0,0.8-0.3,0.9-0.9c0.1-0.6,0.2-2.4,0.2-5.4h-7.6c-0.7,1.2-1.5,2.2-2.4,3.1
		l-0.5-0.6c1.4-1.3,2.5-2.9,3.3-4.9L95.6,142.8z M99.4,151.1h-5.1v2.8c0,0.4,0.2,0.6,0.7,0.7h6.9c0.4,0,0.6-0.2,0.8-0.5
		c0.1-0.3,0.2-0.9,0.3-1.8l0.7,0.2c-0.1,0.9-0.2,1.5-0.3,1.9c-0.2,0.5-0.6,0.8-1.2,0.8h-7.3c-0.8,0-1.2-0.4-1.2-1.1v-7.1h5.9V151.1z
		 M98.7,150.4v-2.6h-4.4v2.6H98.7z"/>
	<path style="fill:#878787;" d="M111.4,142.8v4.4h5.2v0.7h-5.2v6.3h6.5v0.7h-12.4v-0.7h5.1v-11.4H111.4z"/>
	<path style="fill:#878787;" d="M119.5,149.4l-0.3-0.8c1.6-1.7,2.7-3.7,3.4-5.9l0.7,0.3c-0.4,1.1-0.8,2.1-1.4,3.1v9.4h-0.8v-8.2
		C120.6,148.1,120.1,148.8,119.5,149.4z M126.4,144.6c0.2-0.6,0.3-1.3,0.4-1.9l0.7,0.1c-0.1,0.6-0.3,1.2-0.4,1.8h4.4v0.7h-4.6
		c-0.2,0.7-0.4,1.3-0.5,1.9h5.7v0.7h-5.9c-0.3,0.7-0.5,1.4-0.8,2h5.9v0.7c-0.6,1.1-1.6,2.1-3,3.1c0.7,0.4,1.4,0.8,2,1.2l-0.4,0.7
		c-1.7-1.2-3.5-2.1-5.3-2.8l0.4-0.6c0.9,0.4,1.8,0.8,2.6,1.2c1.2-0.9,2.2-1.8,2.8-2.7h-6.1c0.4-0.9,0.7-1.8,1-2.7H123v-0.7h2.6
		c0.2-0.6,0.4-1.2,0.6-1.9h-2.6v-0.7H126.4z"/>
</g>
<g>
	<path style="fill:#878787;" d="M263.1,155.4l-0.2-0.7c0.4,0,0.8,0.1,1.1,0.1c0.4,0,0.6-0.2,0.6-0.6v-3.8c-0.6,0.2-1.2,0.4-1.8,0.6
		l-0.2-0.8c0.7-0.2,1.4-0.4,2-0.6v-3.3h-1.8v-0.7h1.8v-2.7h0.8v2.7h1.3v0.7h-1.3v3c0.4-0.2,0.9-0.4,1.3-0.6v0.8
		c-0.4,0.2-0.9,0.4-1.3,0.6v4.3c0,0.7-0.4,1.1-1.1,1.1H263.1z M267.4,151v-0.7h7.5v0.7h-3.3v3.4h3.9v0.7h-8.6v-0.7h3.9V151H267.4z
		 M271.6,144.4h3.3v2.5h-0.7v-1.8H268v1.8h-0.7v-2.5h3.6c-0.2-0.6-0.5-1.2-0.8-1.6l0.8-0.1C271.1,143.1,271.4,143.7,271.6,144.4z
		 M270.5,146.3c-0.7,1.4-1.5,2.5-2.6,3.2l-0.5-0.5c1.1-0.7,1.9-1.7,2.5-3L270.5,146.3z M274.7,149.1l-0.7,0.4
		c-0.7-1.2-1.5-2.2-2.4-3.1l0.6-0.3C273.2,147,274,148,274.7,149.1z"/>
	<path style="fill:#878787;" d="M277.2,146.8l-0.6-0.4c0.7-0.8,1.2-1.8,1.4-3.2l0.7,0.1c-0.1,0.5-0.2,1-0.3,1.4h1.9v-1.8h0.8v1.8
		h2.7v0.7H281v2h3.1v0.7H281v1.7h2.7v3.7c0,0.8-0.4,1.1-1.1,1.1h-0.8l-0.2-0.7l0.7,0c0.4,0,0.6-0.2,0.6-0.6v-2.8h-2v5.1h-0.8v-5.1
		h-2.1v4.2h-0.7v-4.9h2.8v-1.7h-3.5v-0.7h3.5v-2h-2.2C277.8,145.9,277.5,146.4,277.2,146.8z M285.8,144.1v8.7h-0.7v-8.7H285.8z
		 M285.5,155.4l-0.2-0.7c0.7,0,1.3,0,1.9,0c0.5,0,0.7-0.3,0.7-0.7v-11.2h0.8v11.4c0,0.8-0.4,1.2-1.2,1.2H285.5z"/>
	<path style="fill:#878787;" d="M297.3,142.7c1.5,1.8,3.5,3.2,6.1,4.3l-0.4,0.6c-2.5-1.2-4.5-2.6-5.9-4.3c-1.4,1.7-3.4,3.1-5.9,4.3
		l-0.4-0.6c2.6-1.2,4.7-2.7,6.1-4.3H297.3z M296.2,154h-0.7v-0.8h-2.5v1h-0.7v-5.4h4V154z M295.4,152.5v-3h-2.5v3H295.4z
		 M299.9,146.4v0.7h-5.7v-0.7H299.9z M299.6,154.1l-0.2-0.7l1.1,0c0.4,0,0.7-0.2,0.7-0.6v-3.2h-2.7v6.1h-0.7v-6.8h4.2v4.1
		c0,0.8-0.4,1.2-1.1,1.2H299.6z"/>
	<path style="fill:#878787;" d="M311.3,142.9c1.8,2,3.8,3.6,6.1,4.7l-0.4,0.7c-2.4-1.2-4.4-2.7-6-4.7c-1.5,1.8-3.5,3.5-6,4.8
		l-0.4-0.7c2.4-1.3,4.5-2.9,6.1-4.9H311.3z M311.3,153c1.1-0.9,2.2-1.9,3.2-3h-8.2v-0.7h9.1v0.6c-1,1.3-2.1,2.5-3.4,3.5
		c0.8,0.4,1.5,0.9,2.2,1.3l-0.4,0.7c-1.8-1.3-3.8-2.3-5.7-3l0.4-0.6C309.4,152.1,310.4,152.6,311.3,153z M312.6,147.8l-0.4,0.6
		c-0.9-0.7-1.8-1.3-2.8-1.7l0.4-0.6C310.8,146.6,311.8,147.2,312.6,147.8z"/>
	<path style="fill:#878787;" d="M331.2,143.6v0.7H325v2.3c1.8,0.9,3.6,2,5.4,3.2l-0.4,0.7c-1.9-1.3-3.6-2.3-4.9-3v8.1h-0.7v-11.2
		h-5.4v-0.7H331.2z"/>
	<path style="fill:#878787;" d="M334.9,143.2l0.8,0.1l-0.9,2.9h2.7c0.3-1.1,0.5-2.3,0.7-3.6l0.8,0.1c-0.2,1.2-0.4,2.4-0.7,3.5h6.7
		v0.7h-6.8c-0.2,0.6-0.4,1.2-0.6,1.8h5.8v0.7c-0.4,1.2-1.2,2.4-2.4,3.4c1.2,0.7,2.6,1.4,4.4,2l-0.4,0.7c-1.9-0.7-3.4-1.4-4.6-2.2
		c-1.2,0.8-2.6,1.6-4.4,2.3l-0.4-0.7c1.7-0.6,3.1-1.3,4.2-2c-1.2-0.9-2.1-1.9-2.5-3c-1,2.3-2.4,4.1-4,5.5l-0.4-0.7
		c2.1-1.8,3.7-4.4,4.7-7.7h-3.5L334.9,143.2z M340.2,152.4c1.1-0.9,1.9-1.9,2.3-2.9h-4.9C338.1,150.5,339,151.5,340.2,152.4z
		 M343.9,145.2l-0.5,0.5c-0.6-0.8-1.5-1.6-2.5-2.4l0.5-0.5C342.3,143.6,343.2,144.4,343.9,145.2z"/>
</g>
<g style="enable-background:new    ;">
	<path style="fill:#A2A2A3;" d="M612.7,143c-0.7,1.9-1.5,3.4-2.2,4.5c0.7-0.1,1.5-0.3,2.2-0.4c0.3-0.5,0.5-1,0.8-1.5l0.7,0.3
		c-1.3,2.5-2.4,4.3-3.3,5.2c1.1-0.3,2.2-0.6,3.2-1.1v0.7c-1.4,0.6-2.8,1-4.2,1.3l-0.2-0.7c0.1-0.1,0.3-0.1,0.3-0.2
		c0.6-0.6,1.3-1.7,2.2-3.2c-0.9,0.2-1.7,0.3-2.5,0.5l-0.2-0.7c0.1-0.1,0.2-0.2,0.3-0.3c0.8-1.3,1.5-2.8,2.1-4.5L612.7,143z
		 M614,153.2c-1.3,0.7-2.7,1.2-4.4,1.6l-0.1-0.8c1.7-0.4,3.2-0.9,4.5-1.5V153.2z M616.5,149.4c-0.1,1.8-0.3,3-0.7,3.9
		c-0.4,0.9-1.1,1.6-2,2.2l-0.5-0.6c0.9-0.5,1.5-1.2,1.8-1.9c0.3-0.7,0.5-1.9,0.6-3.5H616.5z M614.4,148.1c0.1,0,0.1,0,0.2-0.1
		c0.5-0.4,1.1-1.3,2-3h-2.6v-0.7h3.7c-0.2-0.6-0.4-1.1-0.7-1.6l0.8-0.1c0.3,0.5,0.5,1.1,0.7,1.7h3.2v0.7h-4.3
		c-0.7,1.4-1.3,2.4-1.8,3c1.4-0.1,2.9-0.3,4.3-0.5c-0.4-0.5-0.7-1-1.1-1.5l0.6-0.4c1,1.3,1.8,2.3,2.3,3.3l-0.6,0.4
		c-0.2-0.4-0.4-0.8-0.7-1.2c-1.8,0.3-3.7,0.5-5.7,0.7L614.4,148.1z M619.6,155.3c-0.7,0-1.1-0.4-1.1-1.1v-4.8h0.7v4.7
		c0,0.3,0.1,0.5,0.4,0.5h1c0.4,0,0.6-0.2,0.7-0.5c0.1-0.4,0.1-1,0.1-2l0.7,0.2c0,1.3-0.1,2.1-0.3,2.4c-0.2,0.3-0.6,0.4-1.1,0.5
		H619.6z"/>
	<path style="fill:#A2A2A3;" d="M626.2,147.1v6.4c0.6-0.4,1.2-1,1.8-1.6l0.2,0.8c-0.8,0.8-1.8,1.6-2.7,2.2l-0.3-0.7
		c0.2-0.2,0.3-0.3,0.3-0.5v-5.9h-2.1v-0.7H626.2z M627.3,145.1l-0.5,0.5c-0.6-0.7-1.4-1.5-2.5-2.2l0.5-0.5
		C625.8,143.6,626.6,144.4,627.3,145.1z M631.6,147.1v-4.3h0.8v4.3h3.7v0.8h-3.7v7.8h-0.8v-7.8h-3.9v-0.8H631.6z"/>
	<path style="fill:#A2A2A3;" d="M648.4,154.3h1.6v0.7h-12.6v-0.7h1.6v-3.9h9.4V154.3z M639.1,143.4v5.7h-0.7v-5.7H639.1z
		 M641.8,154.3v-3.2h-2.1v3.2H641.8z M642.1,142.7v6.9h-0.7v-6.9H642.1z M644.8,154.3v-3.2h-2.2v3.2H644.8z M643.3,148.1l-0.5-0.6
		c1-1.2,1.7-2.8,2.1-4.9l0.8,0.1c-0.1,0.6-0.3,1.2-0.4,1.7h4.3v0.7H645C644.6,146.4,644,147.4,643.3,148.1z M647.6,154.3v-3.2h-2.1
		v3.2H647.6z M648.2,148.9l-0.6,0.4c-0.4-0.8-1-1.7-1.8-2.6l0.6-0.4C647.2,147.3,647.8,148.2,648.2,148.9z"/>
	<path style="fill:#A2A2A3;" d="M651.7,155.4l-0.2-0.7c0.4,0,0.8,0.1,1.1,0.1c0.4,0,0.6-0.2,0.6-0.6v-3.8c-0.6,0.2-1.2,0.4-1.8,0.6
		l-0.2-0.8c0.7-0.2,1.4-0.4,2-0.6v-3.3h-1.8v-0.7h1.8v-2.7h0.8v2.7h1.3v0.7H654v3c0.4-0.2,0.9-0.4,1.3-0.6v0.8
		c-0.4,0.2-0.9,0.4-1.3,0.6v4.3c0,0.7-0.4,1.1-1.1,1.1H651.7z M656.1,151v-0.7h7.5v0.7h-3.3v3.4h3.9v0.7h-8.6v-0.7h3.9V151H656.1z
		 M660.3,144.4h3.3v2.5h-0.7v-1.8h-6.2v1.8H656v-2.5h3.6c-0.2-0.6-0.5-1.2-0.8-1.6l0.8-0.1C659.8,143.1,660.1,143.7,660.3,144.4z
		 M659.2,146.3c-0.7,1.4-1.5,2.5-2.6,3.2l-0.5-0.5c1.1-0.7,1.9-1.7,2.5-3L659.2,146.3z M663.4,149.1l-0.7,0.4
		c-0.7-1.2-1.5-2.2-2.4-3.1l0.6-0.3C661.9,147,662.7,148,663.4,149.1z"/>
</g>
</svg>
