<?xml version="1.0" encoding="utf-8"?>
<!-- Generator: Adobe Illustrator 19.0.0, SVG Export Plug-In . SVG Version: 6.00 Build 0)  -->
<svg version="1.1" id="svgwrapper_svg" xmlns="http://www.w3.org/2000/svg" xmlns:xlink="http://www.w3.org/1999/xlink" x="0px"
	 y="0px" width="830px" height="380px" viewBox="117 230.89 830 380" style="enable-background:new 117 230.89 830 380;"
	 xml:space="preserve">
<style type="text/css">
	.st0{display:none;fill:none;stroke:#999999;}
	.st1{fill:none;stroke:#BABABA;stroke-width:1.017;stroke-dasharray:5.0851;}
	.st2{enable-background:new    ;}
	.st3{fill:#444444;}
	.st4{fill:#EAEBEC;}
	.st5{fill:none;stroke:#888888;}
	.st6{fill:#888888;}
	.st7{fill:none;stroke:#FF0000;stroke-width:15;stroke-opacity:0;}
	.st8{fill:none;}
	.st9{opacity:0.6;fill:#BBBBBB;enable-background:new    ;}
	.st10{fill:#FFFFFF;stroke:#E5E5E5;}
	.st11{fill:#00A4FF;}
	.st12{opacity:0.6;enable-background:new    ;}
	.st13{fill:#BBBBBB;}
	.st14{fill:#BABABA;}
	.st15{fill:none;stroke:#878787;stroke-miterlimit:10;}
	.st16{fill:#878787;}
	.st17{fill:#CEE3FF;}
	.st18{fill:#333333;}
</style>
<path class="st0" d="M1335,1171.265l16,2.596"/>
<path class="st1" d="M333.388,235.868H588.87v367.404H333.388V235.868"/>
<g transform="translate(10 10)">
	<g class="st2">
		<path class="st3" d="M335.358,243.083c-0.943,1.139-2.119,2.137-3.528,2.996l-0.63-0.813c1.372-0.812,2.52-1.75,3.444-2.813
			L335.358,243.083z M335.302,246.443l-0.224-0.994c0.56,0.046,1.041,0.069,1.442,0.069c0.345,0,0.518-0.173,0.518-0.518v-3.43
			c-1.615,0.103-3.075,0.182-4.382,0.237l-0.28-0.896c0.28-0.028,0.574-0.089,0.882-0.182c1.148-0.505,2.436-1.288,3.864-2.353
			c-0.98,0.075-2.292,0.163-3.934,0.266l-0.21-0.896c0.215-0.028,0.443-0.089,0.686-0.182c0.709-0.355,1.535-1.046,2.478-2.072
			c-1.186,0.056-2.45,0.084-3.794,0.084l-0.294-0.882c4.022,0,7.364-0.294,10.024-0.882l0.49,0.854
			c-1.494,0.346-3.211,0.593-5.152,0.742c-0.849,0.989-1.731,1.782-2.646,2.38c0.989-0.047,2.124-0.126,3.402-0.238
			c0.541-0.429,1.19-0.984,1.946-1.666l0.924,0.462c-2.361,2.082-4.424,3.584-6.188,4.509c2.361-0.131,4.317-0.29,5.866-0.477
			c-0.448-0.578-0.812-1.031-1.092-1.357l0.756-0.463c1.157,1.354,2.039,2.521,2.646,3.5l-0.812,0.574
			c-0.233-0.41-0.537-0.891-0.91-1.441c-0.84,0.093-1.923,0.195-3.248,0.308v3.752c0,0.793-0.396,1.19-1.19,1.19h-1.568
			L335.302,246.443L335.302,246.443z M339.978,242.355c1.409,1.018,2.59,2.045,3.542,3.08l-0.714,0.715
			c-0.859-0.99-2.025-2.04-3.5-3.15L339.978,242.355z"/>
		<path class="st3" d="M348.462,234.011c-0.7,1.792-1.414,3.221-2.142,4.284c0.411-0.056,1.026-0.158,1.848-0.308
			c0.252-0.477,0.509-0.976,0.77-1.498l0.91,0.35c-1.232,2.324-2.254,3.99-3.066,4.998c0.999-0.252,1.983-0.593,2.954-1.021v0.938
			c-1.428,0.598-2.837,1.013-4.228,1.246l-0.28-0.924c0.159-0.075,0.313-0.178,0.462-0.309c0.56-0.588,1.213-1.535,1.96-2.842
			c-0.971,0.178-1.736,0.309-2.296,0.393l-0.266-0.925c0.158-0.064,0.308-0.195,0.448-0.392c0.737-1.241,1.391-2.702,1.96-4.382
			L348.462,234.011z M349.736,244.259c-1.326,0.663-2.782,1.186-4.368,1.568l-0.126-1.008c1.727-0.383,3.225-0.892,4.494-1.526
			L349.736,244.259L349.736,244.259z M352.326,240.339c-0.065,1.755-0.285,3.052-0.658,3.893c-0.411,0.867-1.087,1.609-2.03,2.226
			l-0.644-0.798c0.831-0.532,1.418-1.152,1.764-1.862c0.336-0.728,0.532-1.881,0.588-3.458L352.326,240.339L352.326,240.339z
			 M349.988,238.869c0.168-0.057,0.233-0.079,0.196-0.07c0.467-0.345,1.078-1.246,1.834-2.702h-2.394v-0.966h3.57
			c-0.187-0.513-0.397-0.994-0.63-1.442l1.022-0.168c0.214,0.495,0.42,1.032,0.616,1.61h3.15v0.966h-4.284
			c-0.607,1.204-1.153,2.091-1.638,2.66c1.372-0.121,2.669-0.28,3.892-0.476c-0.327-0.477-0.658-0.929-0.994-1.358l0.77-0.476
			c0.98,1.251,1.717,2.319,2.212,3.206l-0.784,0.546c-0.187-0.354-0.401-0.714-0.644-1.078c-1.68,0.271-3.57,0.485-5.67,0.644
			L349.988,238.869z M355.35,246.233c-0.84,0-1.26-0.406-1.26-1.219v-4.802h0.966v4.634c0,0.289,0.107,0.448,0.322,0.477h0.91
			c0.308-0.028,0.49-0.196,0.546-0.504c0.065-0.458,0.098-1.064,0.098-1.82l0.868,0.308c0,1.316-0.094,2.133-0.28,2.45
			c-0.187,0.289-0.583,0.448-1.19,0.477L355.35,246.233L355.35,246.233z"/>
		<path class="st3" d="M360.04,234.221h11.116v0.966h-10.15v9.744h10.556v0.966H360.04V234.221L360.04,234.221z M362.994,236.475
			c1.325,1.009,2.524,1.988,3.598,2.94c0.784-1.008,1.475-2.184,2.072-3.528l0.91,0.49c-0.635,1.438-1.368,2.684-2.198,3.738
			c1.092,1.008,2.086,2.002,2.982,2.981l-0.784,0.784c-0.84-0.998-1.797-1.992-2.87-2.981c-1.232,1.315-2.651,2.323-4.256,3.023
			l-0.588-0.91c1.549-0.635,2.907-1.577,4.074-2.828c-1.176-1.035-2.399-2.039-3.668-3.01L362.994,236.475z"/>
		<path class="st3" d="M373.158,237.371h1.372v-3.696h0.994v3.696h1.33v0.979h-1.33v4.229c0.401-0.178,0.84-0.393,1.316-0.645v1.009
			c-1.102,0.588-2.287,1.077-3.556,1.47l-0.252-1.022c0.569-0.14,1.068-0.284,1.498-0.434v-4.606h-1.372L373.158,237.371
			L373.158,237.371z M381.11,243.615c-1.372,0.531-2.856,0.979-4.452,1.344l-0.238-0.966c1.614-0.28,3.178-0.709,4.69-1.288V243.615
			z M376.868,235.551h4.956c-0.009-0.41-0.014-1.04-0.014-1.89h0.98c0,0.858,0.005,1.488,0.014,1.89h1.428
			c-0.215-0.578-0.42-1.059-0.616-1.441l0.91-0.154c0.187,0.457,0.369,0.989,0.546,1.596h0.686v0.952h-2.94
			c0.046,2.165,0.145,3.925,0.294,5.278c0.56-1.204,0.989-2.571,1.288-4.103l0.868,0.364c-0.467,2.119-1.111,3.873-1.932,5.264
			c0.28,1.326,0.597,2.017,0.952,2.072c0.271-0.028,0.546-0.732,0.826-2.114l0.756,0.616c-0.448,1.68-0.975,2.521-1.582,2.521
			c-0.458,0-0.868-0.364-1.232-1.093c-0.159-0.345-0.29-0.676-0.392-0.993c-0.681,0.886-1.46,1.601-2.338,2.142l-0.616-0.798
			c1.055-0.606,1.941-1.461,2.66-2.563c-0.065-0.298-0.131-0.714-0.196-1.246c-0.178-1.399-0.29-3.183-0.336-5.348h-4.97V235.551
			L376.868,235.551z M377.428,237.889h3.556v3.948h-3.556V237.889z M380.088,241.011v-2.282h-1.778v2.282H380.088z"/>
	</g>
</g>
<rect x="404.074" y="259.383" class="st4" width="175.167" height="95.667"/>
<g transform="translate(10 10)">
	<g class="st2">
		<path class="st3" d="M404.83,268.553l-0.28,0.771h2.912v0.854c-0.308,0.915-0.817,1.708-1.526,2.38
			c0.663,0.28,1.293,0.588,1.89,0.924l-0.546,0.813c-0.644-0.383-1.354-0.747-2.128-1.092c-0.943,0.644-2.109,1.162-3.5,1.554
			l-0.49-0.868c1.167-0.308,2.146-0.69,2.94-1.147l-1.946-0.784c0.392-0.645,0.709-1.219,0.952-1.723h-1.638v-0.909h2.058
			c0.233-0.653,0.34-0.947,0.322-0.883L404.83,268.553z M401.512,264.633h2.73v-2.674h0.938v2.674h2.548v0.882h-2.548v0.154
			c0.765,0.383,1.54,0.812,2.324,1.288l-0.518,0.784c-0.7-0.561-1.302-1.009-1.806-1.345v1.82h-0.938v-2.66
			c-0.458,1.092-1.293,2.049-2.506,2.87l-0.49-0.812c1.083-0.635,1.834-1.335,2.254-2.101h-1.988V264.633z M402.576,262.253
			c0.364,0.569,0.663,1.144,0.896,1.722l-0.784,0.364c-0.289-0.663-0.606-1.265-0.952-1.806L402.576,262.253z M406.511,270.232
			h-2.366c-0.233,0.477-0.485,0.92-0.756,1.33c0.56,0.196,1.087,0.393,1.582,0.588C405.671,271.582,406.184,270.942,406.511,270.232
			z M407.602,262.547c-0.289,0.635-0.648,1.241-1.078,1.82l-0.756-0.406c0.448-0.635,0.793-1.236,1.036-1.806L407.602,262.547z
			 M409.115,267.307c-0.243,0.616-0.518,1.19-0.826,1.723l-0.63-0.771c0.831-1.577,1.386-3.691,1.666-6.342l0.98,0.168
			c-0.065,0.579-0.168,1.246-0.308,2.002h3.696v0.966h-0.91c-0.056,2.333-0.471,4.331-1.246,5.992
			c0.737,1.231,1.601,2.18,2.59,2.842l-0.574,0.854c-0.961-0.673-1.797-1.592-2.506-2.759c-0.682,1.12-1.55,2.059-2.604,2.814
			l-0.532-0.854c1.092-0.756,1.955-1.73,2.59-2.926C409.949,269.916,409.488,268.679,409.115,267.307z M409.786,265.053
			c-0.093,0.336-0.159,0.583-0.196,0.742c0.345,1.587,0.802,2.981,1.372,4.186c0.541-1.418,0.84-3.061,0.896-4.928H409.786z"/>
		<path class="st3" d="M415.68,274.657l-0.21-0.952c0.401,0.046,0.756,0.069,1.064,0.069c0.354,0,0.532-0.205,0.532-0.615v-3.416
			c-0.654,0.242-1.204,0.434-1.652,0.573l-0.252-0.979c0.635-0.149,1.27-0.341,1.904-0.574v-3.164h-1.68v-0.966h1.68v-2.646h0.98
			v2.646h1.344v0.966h-1.344v2.758c0.448-0.195,0.882-0.405,1.302-0.63v0.994c-0.29,0.149-0.723,0.354-1.302,0.616v4.074
			c0,0.83-0.392,1.246-1.176,1.246H415.68z M421.056,268.469c-0.168,2.39-0.714,4.494-1.638,6.314l-0.784-0.7
			c0.989-1.849,1.493-4.247,1.512-7.196v-4.382h7.378v3.402h-2.632v1.651h2.996v0.91h-2.996v1.722h2.352v4.593h-0.938v-0.687h-3.794
			v0.687h-0.938v-4.593h2.338v-1.722h-2.856L421.056,268.469L421.056,268.469z M423.912,265.907h-2.786l-0.014,1.651h2.8
			L423.912,265.907L423.912,265.907z M426.545,263.442h-5.418v1.555h5.418V263.442z M422.512,273.201h3.794v-2.114h-3.794V273.201z"
			/>
		<path class="st3" d="M436.051,261.833c0.261,0.42,0.499,0.873,0.714,1.357h5.04v0.98h-10.374v3.192
			c-0.056,3.117-0.527,5.591-1.414,7.42l-0.826-0.742c0.774-1.605,1.176-3.831,1.204-6.678v-4.173h5.264
			c-0.215-0.41-0.458-0.798-0.728-1.161L436.051,261.833z M436.107,264.787c-0.084,0.261-0.21,0.635-0.378,1.12h5.46v0.882h-5.81
			c-0.392,0.896-0.812,1.693-1.26,2.394h2.618v-1.693h1.008v1.693h3.122v0.91h-3.122v1.568h4.186v0.924h-4.186v2.212h-1.008v-2.212
			h-5.054v-0.924h5.054v-1.568h-3.668l-0.21-0.868c0.541-0.672,1.026-1.483,1.456-2.436h-2.114v-0.882h2.478
			c0.159-0.439,0.313-0.887,0.462-1.345L436.107,264.787z"/>
		<path class="st3" d="M445.697,265.977v1.162c-0.019,2.94-0.598,5.455-1.736,7.546l-0.728-0.658c0.97-1.782,1.46-4.078,1.47-6.888
			v-4.634h10.192v3.472L445.697,265.977L445.697,265.977z M453.914,263.442h-8.218v1.624h8.218V263.442z M446.131,269.589h9.492
			v0.924h-5.362c-0.84,1.372-1.587,2.356-2.24,2.954c1.867-0.14,3.682-0.341,5.446-0.602l-1.218-1.4l0.742-0.462
			c1.167,1.241,2.053,2.301,2.66,3.178l-0.812,0.574c-0.224-0.364-0.476-0.729-0.756-1.092c-2.221,0.308-4.653,0.546-7.294,0.714
			l-0.224-0.854l0.21-0.098c0.606-0.354,1.414-1.325,2.422-2.912h-3.066V269.589z M447.111,267.307h7.602v0.896h-7.602V267.307z"/>
	</g>
</g>
<rect x="404.074" y="371.287" class="st4" width="175" height="100"/>
<g transform="translate(10 10)">
	<g class="st2">
		<path class="st3" d="M411.438,374.737c0.271,0.448,0.518,0.934,0.742,1.456h5.124v0.979H406.93v3.122
			c-0.056,3.09-0.537,5.554-1.442,7.393l-0.826-0.742c0.793-1.615,1.204-3.831,1.232-6.65v-4.102h5.194
			c-0.224-0.448-0.476-0.868-0.756-1.26L411.438,374.737z M407.197,386.106h5.838c0.868-1.997,1.624-4.457,2.268-7.378l0.994,0.266
			c-0.607,2.726-1.33,5.096-2.17,7.112h2.954v0.979h-9.884V386.106L407.197,386.106z M408.722,379.413
			c0.551,1.466,1.055,3.178,1.512,5.138l-0.952,0.238c-0.392-1.82-0.873-3.519-1.442-5.096L408.722,379.413z M411.425,378.419
			c0.466,1.521,0.9,3.29,1.302,5.307l-0.966,0.224c-0.308-1.82-0.714-3.57-1.218-5.25L411.425,378.419z"/>
		<path class="st3" d="M421,383.109c-0.159,1.801-0.681,3.285-1.568,4.452l-0.77-0.687c0.896-1.25,1.358-2.832,1.386-4.746v-6.72
			h10.43v10.486c0,0.979-0.49,1.47-1.47,1.47h-1.61l-0.266-0.994c0.747,0.037,1.265,0.056,1.554,0.056
			c0.513,0,0.77-0.294,0.77-0.882v-2.436h-3.808v4.102h-1.036v-4.102H421L421,383.109L421,383.109z M424.613,376.389h-3.556v2.408
			h3.556V376.389z M421.056,379.735v2.45h3.556v-2.45H421.056z M429.456,378.797v-2.408h-3.808v2.408H429.456z M429.456,382.186
			v-2.45h-3.808v2.45H429.456z"/>
		<path class="st3" d="M435.197,378.881v1.162c-0.019,2.94-0.598,5.455-1.736,7.546l-0.728-0.658c0.97-1.782,1.46-4.078,1.47-6.888
			v-4.634h10.192v3.472L435.197,378.881L435.197,378.881z M443.414,376.347h-8.218v1.624h8.218V376.347z M435.631,382.493h9.492
			v0.924h-5.362c-0.84,1.372-1.587,2.356-2.24,2.954c1.867-0.14,3.682-0.341,5.446-0.602l-1.218-1.4l0.742-0.462
			c1.167,1.241,2.053,2.301,2.66,3.178l-0.812,0.574c-0.224-0.364-0.476-0.729-0.756-1.092c-2.221,0.308-4.653,0.546-7.294,0.714
			l-0.224-0.854l0.21-0.098c0.606-0.354,1.414-1.325,2.422-2.912h-3.066V382.493z M436.611,380.211h7.602v0.896h-7.602V380.211z"/>
	</g>
</g>
<g id="GrayRectGroup8" transform="translate(288.0003662109375,264.1057596206665)">
	<rect x="116.074" y="222.383" class="st4" width="175" height="105"/>
	<g transform="translate(10 10)">
		<g class="st2">
			<path class="st3" d="M116.144,226.387h1.288l2.198,8.386h0.056l2.282-8.386h1.246l2.268,8.386h0.056l2.198-8.386h1.288
				l-2.87,9.996h-1.274l-2.268-8.33h-0.042l-2.282,8.33h-1.274L116.144,226.387z"/>
			<path class="st3" d="M135.576,230.125c0.532,0.7,0.812,1.685,0.84,2.954h-5.712c0.056,0.821,0.275,1.451,0.658,1.89
				c0.392,0.448,0.933,0.672,1.624,0.672c0.588,0,1.068-0.149,1.442-0.448c0.299-0.242,0.541-0.62,0.728-1.134h1.12
				c-0.168,0.691-0.495,1.26-0.98,1.708c-0.616,0.542-1.386,0.813-2.31,0.813c-1.036,0-1.867-0.341-2.492-1.022
				c-0.635-0.69-0.952-1.624-0.952-2.8c0-1.083,0.303-1.974,0.91-2.674c0.616-0.756,1.447-1.134,2.492-1.134
				C134.111,228.949,134.988,229.341,135.576,230.125z M131.418,230.517c-0.383,0.411-0.612,0.976-0.686,1.694h4.522
				c-0.14-1.549-0.901-2.324-2.282-2.324C132.328,229.887,131.81,230.097,131.418,230.517z"/>
			<path class="st3" d="M137.732,226.191h1.12v4.284c0.56-1.017,1.358-1.525,2.394-1.525s1.843,0.387,2.422,1.161
				c0.541,0.71,0.812,1.587,0.812,2.633c0,1.082-0.271,1.979-0.812,2.688c-0.607,0.766-1.433,1.148-2.478,1.148
				c-1.111,0-1.914-0.462-2.408-1.387v1.19h-1.05L137.732,226.191L137.732,226.191z M139.426,230.657
				c-0.411,0.504-0.616,1.185-0.616,2.044v0.14c0,0.812,0.182,1.47,0.546,1.974c0.392,0.561,0.957,0.841,1.694,0.841
				c0.774,0,1.363-0.285,1.764-0.854c0.345-0.522,0.518-1.209,0.518-2.058c0-0.868-0.182-1.545-0.546-2.03
				c-0.401-0.561-0.994-0.84-1.778-0.84C140.336,229.873,139.809,230.134,139.426,230.657z"/>
			<path class="st3" d="M148.19,228.977v1.162c-0.019,2.94-0.598,5.455-1.736,7.546l-0.728-0.658c0.97-1.782,1.46-4.078,1.47-6.888
				v-4.634h10.192v3.472H148.19z M156.408,226.443h-8.218v1.624h8.218V226.443z M148.624,232.589h9.492v0.924h-5.362
				c-0.84,1.372-1.587,2.356-2.24,2.954c1.867-0.14,3.682-0.341,5.446-0.602l-1.218-1.4l0.742-0.462
				c1.167,1.241,2.053,2.301,2.66,3.178l-0.812,0.574c-0.224-0.364-0.476-0.729-0.756-1.092c-2.221,0.308-4.653,0.546-7.294,0.714
				l-0.224-0.854l0.21-0.098c0.606-0.354,1.414-1.325,2.422-2.912h-3.066L148.624,232.589L148.624,232.589z M149.604,230.307h7.602
				v0.896h-7.602V230.307z"/>
		</g>
	</g>
</g>
<g>
	<path class="st5" d="M212.407,544.786h33"/>
	<polygon class="st6" points="241.324,549.286 246.324,544.786 241.324,540.286 	"/>
	<polygon class="st6" points="216.907,540.286 211.907,544.786 216.907,549.286 	"/>
	<path class="st7" d="M212.407,544.786h33"/>
</g>
<g>
	<path class="st5" d="M366.741,544.786h33"/>
	<polygon class="st6" points="395.658,549.286 400.658,544.786 395.658,540.286 	"/>
	<polygon class="st6" points="371.241,540.286 366.241,544.786 371.241,549.286 	"/>
	<path class="st7" d="M366.741,544.786h33"/>
</g>
<path class="st5" d="M482.574,371.287v-12.904"/>
<polygon class="st6" points="487.074,362.133 482.574,357.133 478.074,362.133 "/>
<path class="st7" d="M482.574,371.287v-12.904"/>
<path class="st5" d="M493.574,354.383v12.904"/>
<polygon class="st6" points="489.074,363.537 493.574,368.537 498.074,363.537 "/>
<path class="st7" d="M493.574,354.383v12.904"/>
<path class="st5" d="M482.574,486.287v-12.904"/>
<polygon class="st6" points="487.074,477.133 482.574,472.133 478.074,477.133 "/>
<path class="st7" d="M482.574,486.287v-12.904"/>
<path class="st5" d="M493.574,470.383v12.904"/>
<polygon class="st6" points="489.074,479.537 493.574,484.537 498.074,479.537 "/>
<path class="st7" d="M493.574,470.383v12.904"/>
<g id="Rects5" transform="translate(294.0003662109375,181.00000381469727)">
	<rect x="116.074" y="221.383" class="st8" width="164" height="62"/>
	<rect x="128.074" y="233.383" class="st9" width="152" height="50"/>
	<rect x="126.074" y="231.383" class="st10" width="152" height="50"/>
	<rect x="123.074" y="228.383" class="st9" width="152" height="50"/>
	<rect x="121.074" y="226.383" class="st10" width="152" height="50"/>
	<rect x="118.074" y="223.383" class="st9" width="152" height="50"/>
	<rect x="116.074" y="221.383" class="st10" width="152" height="50"/>
	<g transform="translate(20 9)">
		<g>
			<path class="st11" d="M132.074,250.383c-7.18,0.008-13.007-5.805-13.015-12.985c-0.008-7.18,5.805-13.007,12.985-13.015
				c6.413-0.008,11.874,4.663,12.86,11h2c-1.105-8.21-8.656-13.971-16.866-12.866s-13.971,8.656-12.866,16.866
				c1.105,8.21,8.656,13.971,16.866,12.866c6.697-0.901,11.965-6.169,12.866-12.866h-2
				C143.919,245.709,138.476,250.376,132.074,250.383z M139.074,233.383l-7-4l-7,4v8l3.2,1.83c0.185-0.645,0.529-1.233,1-1.71
				l-2.2-1.28v-3.7l5,2.86l5-2.86v3.7l-4.14,2.36c-0.997-0.475-2.191-0.052-2.666,0.946c-0.475,0.997-0.052,2.191,0.946,2.666
				c0.997,0.475,2.191,0.052,2.666-0.946c0.129-0.27,0.195-0.566,0.194-0.866v-0.14l5-2.86V233.383z M132.074,237.083l-4.72-2.7
				l4.72-2.7l4.72,2.7L132.074,237.083z"/>
		</g>
		<g class="st2">
			<path class="st3" d="M158.816,235.663h12.558v1.008h-6.72c-1.27,2.613-2.394,4.452-3.374,5.516
				c2.511-0.14,5.021-0.378,7.532-0.714c-0.504-0.896-1.064-1.82-1.68-2.771l0.812-0.504c1.269,1.903,2.263,3.588,2.982,5.054
				l-0.896,0.63c-0.243-0.522-0.485-1.018-0.728-1.484c-2.697,0.346-5.796,0.635-9.296,0.868l-0.266-1.021
				c0.056-0.019,0.135-0.052,0.238-0.099c0.905-0.681,2.091-2.506,3.556-5.474h-4.718V235.663L158.816,235.663z M160.16,231.757
				h9.968v0.979h-9.968V231.757z"/>
			<path class="st3" d="M174.608,238.981c-0.084,1.951-0.416,3.561-0.994,4.83l-0.756-0.7c0.55-1.25,0.835-2.864,0.854-4.844v-6.72
				h4.088v10.906c0,0.858-0.392,1.288-1.176,1.288h-1.12l-0.238-0.896c0.522,0.037,0.882,0.056,1.078,0.056
				c0.354,0,0.532-0.257,0.532-0.77v-3.15L174.608,238.981L174.608,238.981z M176.876,234.823v-2.366h-2.254v2.366H176.876z
				 M174.622,235.732v2.339h2.254v-2.339H174.622z M179.928,237.595v6.202h-0.952v-12.264h5.67c0,1.735-0.084,2.884-0.252,3.443
				c-0.168,0.579-0.69,0.868-1.568,0.868h-1.134l-0.266-0.868l0.938,0.015c0.308,0,0.555-0.023,0.742-0.07
				c0.168-0.056,0.294-0.191,0.378-0.406c0.093-0.289,0.154-0.975,0.182-2.058h-3.738v4.242h4.76v0.854
				c-0.261,1.438-0.719,2.665-1.372,3.682c0.616,0.607,1.358,1.157,2.226,1.652l-0.504,0.854c-0.877-0.505-1.643-1.078-2.296-1.723
				c-0.616,0.719-1.339,1.298-2.17,1.736l-0.532-0.813c0.793-0.429,1.47-0.979,2.03-1.651c-0.896-1.092-1.498-2.324-1.806-3.696
				h-0.336L179.928,237.595L179.928,237.595z M181.132,237.595c0.289,1.073,0.793,2.044,1.512,2.912
				c0.513-0.831,0.896-1.801,1.148-2.912H181.132z"/>
			<path class="st3" d="M191.912,231.043c-0.14,0.336-0.317,0.69-0.532,1.063h6.104v0.813c-0.896,1.036-1.988,1.918-3.276,2.646
				c1.587,0.672,3.351,1.106,5.292,1.303l-0.462,0.938c-2.212-0.252-4.186-0.812-5.922-1.68c-1.717,0.793-3.71,1.362-5.978,1.708
				l-0.462-0.952c2.025-0.28,3.808-0.729,5.348-1.344c-0.766-0.448-1.494-0.976-2.184-1.582c-0.551,0.494-1.134,0.929-1.75,1.302
				l-0.616-0.813c1.699-0.97,2.837-2.15,3.416-3.542L191.912,231.043z M193.242,237.133c0,0.504-0.047,1.036-0.14,1.596h4.928
				c-0.028,2.371-0.243,3.785-0.644,4.242c-0.411,0.467-1.111,0.7-2.1,0.7c-0.233,0-0.779-0.019-1.638-0.056l-0.252-0.91
				l1.652,0.069c0.831-0.009,1.358-0.187,1.582-0.531c0.214-0.336,0.34-1.204,0.378-2.604h-4.144
				c-0.103,0.346-0.252,0.695-0.448,1.05c-0.719,1.27-2.361,2.311-4.928,3.122l-0.672-0.826c2.305-0.672,3.822-1.521,4.55-2.548
				c0.196-0.289,0.341-0.555,0.434-0.798h-4.172v-0.91h4.452c0.112-0.504,0.168-1.036,0.168-1.596
				C192.248,237.133,193.242,237.133,193.242,237.133z M196.042,233.059h-5.348l-0.182,0.225c0.774,0.681,1.638,1.269,2.59,1.764
				C194.213,234.496,195.193,233.834,196.042,233.059z"/>
			<path class="st3" d="M200.9,236.279h4.718c0.252-0.346,0.467-0.724,0.644-1.135l0.966,0.099
				c-0.112,0.289-0.285,0.635-0.518,1.036h3.612c-0.206-0.364-0.416-0.682-0.63-0.952l0.854-0.28
				c0.289,0.383,0.546,0.793,0.77,1.232h1.932v0.896h-3.78c0.905,0.858,2.263,1.535,4.074,2.03l-0.406,0.854
				c-0.215-0.065-0.542-0.182-0.98-0.35v4.088h-0.896v-0.603h-2.618v0.603h-0.896v-4.41h3.682c-1.316-0.606-2.329-1.344-3.038-2.212
				h-2.352c-0.775,0.877-1.825,1.615-3.15,2.212h3.514v4.41h-0.896v-0.603h-2.394v0.603h-0.882v-4.13l-1.148,0.392l-0.462-0.826
				c1.773-0.531,3.155-1.218,4.144-2.058H200.9L200.9,236.279L200.9,236.279z M202.034,231.477h4.27v3.402h-4.27V231.477z
				 M205.38,234.024v-1.68h-2.436v1.68H205.38z M203.112,242.327h2.394v-2.101h-2.394V242.327z M207.858,231.477h4.354v3.402h-4.354
				V231.477z M208.642,242.327h2.618v-2.101h-2.618V242.327z M211.302,234.024v-1.68h-2.52v1.68H211.302z"/>
			<path class="st3" d="M218.344,231.337c-0.766,1.755-1.526,3.141-2.282,4.158c0.542-0.047,1.209-0.136,2.002-0.267
				c0.298-0.522,0.606-1.082,0.924-1.68l0.91,0.35c-1.344,2.408-2.455,4.121-3.332,5.139c1.036-0.225,2.072-0.532,3.108-0.924v0.924
				c-1.549,0.551-3.01,0.924-4.382,1.12l-0.266-0.938c0.187-0.084,0.34-0.182,0.462-0.294c0.55-0.532,1.227-1.456,2.03-2.772
				c-0.653,0.104-1.475,0.22-2.464,0.351l-0.252-0.938c0.149-0.056,0.294-0.182,0.434-0.378c0.821-1.231,1.54-2.641,2.156-4.228
				L218.344,231.337z M219.59,241.599c-1.354,0.635-2.866,1.129-4.536,1.484l-0.126-0.994c1.811-0.364,3.365-0.845,4.662-1.442
				V241.599z M226.254,231.603v10.71h1.19v0.98h-8.092v-0.98h1.218v-10.71H226.254z M221.564,235.103h3.696v-2.534h-3.696V235.103z
				 M221.564,238.701h3.696v-2.646h-3.696V238.701z M221.564,242.313h3.696v-2.66h-3.696V242.313z"/>
		</g>
	</g>
</g>
<g id="Rects7" transform="translate(294.0003662109375,297.5961217880249)">
	<rect x="116.074" y="222.383" class="st8" width="164" height="62"/>
	<rect x="128.074" y="234.383" class="st9" width="152" height="50"/>
	<rect x="126.074" y="232.383" class="st10" width="152" height="50"/>
	<rect x="123.074" y="229.383" class="st9" width="152" height="50"/>
	<rect x="121.074" y="227.383" class="st10" width="152" height="50"/>
	<rect x="118.074" y="224.383" class="st9" width="152" height="50"/>
	<rect x="116.074" y="222.383" class="st10" width="152" height="50"/>
	<g transform="translate(20 9)">
		<g>
			<path class="st11" d="M132.074,251.383c-7.18,0.008-13.007-5.805-13.015-12.985c-0.008-7.18,5.805-13.007,12.985-13.015
				c6.413-0.008,11.874,4.663,12.86,11h2c-1.105-8.21-8.656-13.971-16.866-12.866s-13.971,8.656-12.866,16.866
				c1.105,8.21,8.656,13.971,16.866,12.866c6.697-0.901,11.965-6.169,12.866-12.866h-2
				C143.919,246.709,138.476,251.376,132.074,251.383z M139.074,234.383l-7-4l-7,4v8l3.2,1.83c0.185-0.645,0.529-1.233,1-1.71
				l-2.2-1.28v-3.7l5,2.86l5-2.86v3.7l-4.14,2.36c-0.997-0.475-2.191-0.052-2.666,0.946c-0.475,0.997-0.052,2.191,0.946,2.666
				c0.997,0.475,2.191,0.052,2.666-0.946c0.129-0.27,0.195-0.566,0.194-0.866v-0.14l5-2.86V234.383z M132.074,238.083l-4.72-2.7
				l4.72-2.7l4.72,2.7L132.074,238.083z"/>
		</g>
		<g class="st2">
			<path class="st3" d="M158.816,236.663h12.558v1.008h-6.72c-1.27,2.613-2.394,4.452-3.374,5.516
				c2.511-0.14,5.021-0.378,7.532-0.714c-0.504-0.896-1.064-1.82-1.68-2.771l0.812-0.504c1.269,1.903,2.263,3.588,2.982,5.054
				l-0.896,0.63c-0.243-0.522-0.485-1.018-0.728-1.484c-2.697,0.346-5.796,0.635-9.296,0.868l-0.266-1.021
				c0.056-0.019,0.135-0.052,0.238-0.099c0.905-0.681,2.091-2.506,3.556-5.474h-4.718V236.663L158.816,236.663z M160.16,232.757
				h9.968v0.979h-9.968V232.757z"/>
			<path class="st3" d="M174.608,239.981c-0.084,1.951-0.416,3.561-0.994,4.83l-0.756-0.7c0.55-1.25,0.835-2.864,0.854-4.844v-6.72
				h4.088v10.906c0,0.858-0.392,1.288-1.176,1.288h-1.12l-0.238-0.896c0.522,0.037,0.882,0.056,1.078,0.056
				c0.354,0,0.532-0.257,0.532-0.77v-3.15L174.608,239.981L174.608,239.981z M176.876,235.823v-2.366h-2.254v2.366H176.876z
				 M174.622,236.733v2.339h2.254v-2.339H174.622z M179.928,238.595v6.202h-0.952v-12.264h5.67c0,1.735-0.084,2.884-0.252,3.443
				c-0.168,0.579-0.69,0.868-1.568,0.868h-1.134l-0.266-0.868l0.938,0.015c0.308,0,0.555-0.023,0.742-0.07
				c0.168-0.056,0.294-0.191,0.378-0.406c0.093-0.289,0.154-0.975,0.182-2.058h-3.738v4.242h4.76v0.854
				c-0.261,1.438-0.719,2.665-1.372,3.682c0.616,0.607,1.358,1.157,2.226,1.652l-0.504,0.854c-0.877-0.505-1.643-1.078-2.296-1.723
				c-0.616,0.719-1.339,1.298-2.17,1.736l-0.532-0.813c0.793-0.429,1.47-0.979,2.03-1.651c-0.896-1.092-1.498-2.324-1.806-3.696
				h-0.336L179.928,238.595L179.928,238.595z M181.132,238.595c0.289,1.073,0.793,2.044,1.512,2.912
				c0.513-0.831,0.896-1.801,1.148-2.912H181.132z"/>
			<path class="st3" d="M191.912,232.043c-0.14,0.336-0.317,0.69-0.532,1.063h6.104v0.813c-0.896,1.036-1.988,1.918-3.276,2.646
				c1.587,0.672,3.351,1.106,5.292,1.303l-0.462,0.938c-2.212-0.252-4.186-0.812-5.922-1.68c-1.717,0.793-3.71,1.362-5.978,1.708
				l-0.462-0.952c2.025-0.28,3.808-0.729,5.348-1.344c-0.766-0.448-1.494-0.976-2.184-1.582c-0.551,0.494-1.134,0.929-1.75,1.302
				l-0.616-0.813c1.699-0.97,2.837-2.15,3.416-3.542L191.912,232.043z M193.242,238.133c0,0.504-0.047,1.036-0.14,1.596h4.928
				c-0.028,2.371-0.243,3.785-0.644,4.242c-0.411,0.467-1.111,0.7-2.1,0.7c-0.233,0-0.779-0.019-1.638-0.056l-0.252-0.91
				l1.652,0.069c0.831-0.009,1.358-0.187,1.582-0.531c0.214-0.336,0.34-1.204,0.378-2.604h-4.144
				c-0.103,0.346-0.252,0.695-0.448,1.05c-0.719,1.27-2.361,2.311-4.928,3.122l-0.672-0.826c2.305-0.672,3.822-1.521,4.55-2.548
				c0.196-0.289,0.341-0.555,0.434-0.798h-4.172v-0.91h4.452c0.112-0.504,0.168-1.036,0.168-1.596
				C192.248,238.133,193.242,238.133,193.242,238.133z M196.042,234.059h-5.348l-0.182,0.225c0.774,0.681,1.638,1.269,2.59,1.764
				C194.213,235.496,195.193,234.834,196.042,234.059z"/>
			<path class="st3" d="M200.9,237.279h4.718c0.252-0.346,0.467-0.724,0.644-1.135l0.966,0.099
				c-0.112,0.289-0.285,0.635-0.518,1.036h3.612c-0.206-0.364-0.416-0.682-0.63-0.952l0.854-0.28
				c0.289,0.383,0.546,0.793,0.77,1.232h1.932v0.896h-3.78c0.905,0.858,2.263,1.535,4.074,2.03l-0.406,0.854
				c-0.215-0.065-0.542-0.182-0.98-0.35v4.088h-0.896v-0.603h-2.618v0.603h-0.896v-4.41h3.682c-1.316-0.606-2.329-1.344-3.038-2.212
				h-2.352c-0.775,0.877-1.825,1.615-3.15,2.212h3.514v4.41h-0.896v-0.603h-2.394v0.603h-0.882v-4.13l-1.148,0.392l-0.462-0.826
				c1.773-0.531,3.155-1.218,4.144-2.058H200.9L200.9,237.279L200.9,237.279z M202.034,232.477h4.27v3.402h-4.27V232.477z
				 M205.38,235.025v-1.68h-2.436v1.68H205.38z M203.112,243.327h2.394v-2.101h-2.394V243.327z M207.858,232.477h4.354v3.402h-4.354
				V232.477z M208.642,243.327h2.618v-2.101h-2.618V243.327z M211.302,235.025v-1.68h-2.52v1.68H211.302z"/>
			<path class="st3" d="M218.344,232.337c-0.766,1.755-1.526,3.141-2.282,4.158c0.542-0.047,1.209-0.136,2.002-0.267
				c0.298-0.522,0.606-1.082,0.924-1.68l0.91,0.35c-1.344,2.408-2.455,4.121-3.332,5.139c1.036-0.225,2.072-0.532,3.108-0.924v0.924
				c-1.549,0.551-3.01,0.924-4.382,1.12l-0.266-0.938c0.187-0.084,0.34-0.182,0.462-0.294c0.55-0.532,1.227-1.456,2.03-2.772
				c-0.653,0.104-1.475,0.22-2.464,0.351l-0.252-0.938c0.149-0.056,0.294-0.182,0.434-0.378c0.821-1.231,1.54-2.641,2.156-4.228
				L218.344,232.337z M219.59,242.599c-1.354,0.635-2.866,1.129-4.536,1.484l-0.126-0.994c1.811-0.364,3.365-0.845,4.662-1.442
				V242.599z M226.254,232.603v10.71h1.19v0.98h-8.092v-0.98h1.218v-10.71H226.254z M221.564,236.103h3.696v-2.534h-3.696V236.103z
				 M221.564,239.701h3.696v-2.646h-3.696V239.701z M221.564,243.313h3.696v-2.66h-3.696V243.313z"/>
		</g>
	</g>
</g>
<g id="RectEndPoint20" transform="translate(294.0003662109375,72.00777053833008)">
	<rect x="118.074" y="224.383" class="st9" width="73" height="50"/>
	<rect x="116.074" y="222.383" class="st10" width="73" height="50"/>
	<g transform="translate(20 9)">
		<g>
			<title  xmlns="http://www.w3.org/2000/svg">Product Icons【32】</title>
			<path class="st11" d="M132.544,242.183c1.16,0.49,1.22,0.72,1.11,1.06c-0.835,1.581-0.763,3.487,0.19,5
				c0.187,0.262,0.488,0.419,0.81,0.42c0.327-0.021,0.617-0.216,0.76-0.51c0.227-0.464,0.539-0.881,0.92-1.23
				c0.544,1.022,1.238,1.955,2.06,2.77c0.808,0.666,1.295,1.644,1.34,2.69h1.81c-0.033-1.563-0.727-3.038-1.91-4.06
				c-0.839-0.884-1.532-1.897-2.05-3c-0.172-0.353-0.55-0.558-0.94-0.51c-0.674,0.133-1.285,0.485-1.74,1
				c-0.036-0.592,0.089-1.183,0.36-1.71c0.033-0.053,0.06-0.11,0.08-0.17c0.77-2.19-1.38-3.09-2.09-3.39l-0.3-0.16l-0.34-0.17l0,0
				c0.289-0.099,0.51-0.335,0.59-0.63c0.146-0.471,0.455-0.874,0.87-1.14c0.689-0.314,1.475-0.335,2.18-0.06
				c1.561,0.327,3.009,1.058,4.2,2.12c0.229,0.225,0.558,0.316,0.87,0.24c0.667-0.155,1.366-0.099,2,0.16
				c-0.146,0.149-0.27,0.317-0.37,0.5c-0.52,1.116-0.306,2.436,0.54,3.33c1.21,1.59,1.07,5,0.7,7.66h1.88
				c0.37-2.76,0.51-6.62-1.09-8.75c-0.42-0.56-0.57-1.07-0.4-1.38c0.174-0.246,0.47-0.377,0.77-0.34
				c0.497-0.002,0.899-0.406,0.897-0.903c-0.001-0.24-0.097-0.469-0.267-0.637c-1.289-1.073-2.948-1.598-4.62-1.46
				c-1.354-1.115-2.955-1.89-4.67-2.26c-1.166-0.406-2.449-0.308-3.54,0.27c-0.601,0.342-1.096,0.844-1.43,1.45
				c-0.643-0.038-1.244,0.318-1.52,0.9c-0.62,1.5,1,2.26,1.64,2.55l0.27,0.13L132.544,242.183z"/>
			<g>
				<path class="st11" d="M131.774,250.083c-0.55,0-1.12,0-1.7,0c-5.52,0-10-1.34-10-3h-2c0,2.76,5.37,5,12,5
					c1.18,0.002,2.359-0.072,3.53-0.22L131.774,250.083z"/>
				<path class="st11" d="M120.074,240.893c2.156,1.189,4.544,1.899,7,2.08v-2c-4.06-0.38-7-1.52-7-2.86v-6.22
					c2.15,1.35,5.82,2.24,10,2.24s7.85-0.89,10-2.24v2.49l2,1v-6.25c0-2.76-5.37-5-12-5c-6.63,0-12,2.25-12,5v18h2
					C120.074,247.133,120.074,240.893,120.074,240.893z M130.074,226.133c5.52,0,10,1.34,10,3s-4.48,3-10,3c-5.52,0-10-1.34-10-3
					S124.554,226.133,130.074,226.133z"/>
			</g>
		</g>
	</g>
</g>
<g id="RectEndPoint21" transform="translate(378.998779296875,72.00777053833008)">
	<rect x="118.074" y="224.383" class="st9" width="73" height="50"/>
	<rect x="116.074" y="222.383" class="st10" width="73" height="50"/>
	<g transform="translate(20 9)">
		<g>
			<title  xmlns="http://www.w3.org/2000/svg">Product Icons【32】</title>
			<g id="_编组__1_">
				<path class="st11" d="M120.074,247.383h-2c0,2.76,5.37,5,12,5h1v-2h-1C124.554,250.383,120.074,249.043,120.074,247.383z
					 M144.074,238.383v4h2v-4H144.074z M120.074,238.383L120.074,238.383v-6.24c2.15,1.35,5.82,2.24,10,2.24s7.85-0.89,10-2.24v3.24
					h2v-6c0-2.76-5.37-5-12-5c-6.63,0-12,2.24-12,5v18h2v-6.24c2.15,1.35,5.82,2.24,10,2.24h1v-2h-1
					C124.554,241.383,120.074,240.043,120.074,238.383z M130.074,226.383c5.52,0,10,1.34,10,3s-4.48,3-10,3c-5.52,0-10-1.34-10-3
					S124.554,226.383,130.074,226.383z M136.074,244.383v-6h-2v14h2v-6h8v6h2v-8L136.074,244.383L136.074,244.383z"/>
			</g>
		</g>
	</g>
</g>
<g id="assistantgroup" transform="translate(0,0)">
</g>
<g>
	<g>
		<g class="st12">
			<rect x="797.141" y="451.657" class="st13" width="139" height="40"/>
		</g>
		<g class="st12">
			<rect x="797.153" y="501.657" class="st13" width="139" height="40"/>
		</g>
		<g class="st12">
			<rect x="796.996" y="551.657" class="st13" width="139" height="40"/>
		</g>
		<g>
			<rect x="795.153" y="449.657" class="st10" width="139" height="40"/>
		</g>
		<g>
			<rect x="794.996" y="499.731" class="st10" width="139" height="40"/>
		</g>
		<g>
			<rect x="794.996" y="549.657" class="st10" width="139" height="40"/>
		</g>
	</g>
	<g class="st2">
		<path class="st3" d="M811.105,467.161h2.94v6.104c0.336-0.327,0.765-0.774,1.288-1.344l0.266,1.063
			c-0.784,0.85-1.601,1.591-2.45,2.227l-0.392-0.896c0.205-0.177,0.308-0.368,0.308-0.574v-5.614h-1.96V467.161L811.105,467.161z
			 M812.785,463.017c0.877,0.7,1.628,1.419,2.254,2.156l-0.687,0.699c-0.569-0.699-1.325-1.423-2.268-2.17L812.785,463.017z
			 M821.129,474.413c-0.42-0.84-0.729-1.982-0.924-3.43c-0.149-1.186-0.252-2.721-0.309-4.606h-4.438v-0.979h4.41
			c-0.02-0.541-0.028-1.396-0.028-2.563h0.98c0,1.177,0.009,2.03,0.027,2.563h2.786v0.979h-2.771
			c0.064,2.362,0.214,4.22,0.447,5.572c0.309,1.587,0.672,2.408,1.093,2.464c0.289-0.056,0.573-0.914,0.854-2.575l0.798,0.644
			c-0.457,2.016-1.008,3.024-1.651,3.024C821.917,475.506,821.493,475.141,821.129,474.413z M817.097,469.513h-1.315v-0.938h3.626
			v0.938h-1.316v3.794c0.663-0.149,1.27-0.304,1.82-0.462v0.938c-1.214,0.346-2.525,0.64-3.935,0.882l-0.252-0.951
			c0.477-0.057,0.934-0.126,1.372-0.21V469.513z M822.025,462.821c0.589,0.653,1.055,1.241,1.4,1.764l-0.7,0.49
			c-0.326-0.504-0.798-1.11-1.414-1.819L822.025,462.821z"/>
		<path class="st3" d="M837.229,463.493v12.223h-0.979v-0.574h-9.464v0.574h-0.98v-12.223H837.229z M826.785,474.245h9.464v-9.855
			h-9.464V474.245z M831.069,464.809c-0.13,0.317-0.252,0.574-0.363,0.77h3.695v0.7c-0.401,0.756-0.993,1.409-1.777,1.96
			c0.979,0.467,2.049,0.836,3.206,1.106l-0.532,0.756c-1.363-0.364-2.529-0.816-3.5-1.358c-1.083,0.579-2.417,1.041-4.004,1.387
			l-0.448-0.813c1.438-0.252,2.65-0.611,3.64-1.078c-0.56-0.373-1.031-0.765-1.413-1.176c-0.421,0.392-0.896,0.756-1.429,1.092
			l-0.56-0.728c1.278-0.756,2.142-1.666,2.59-2.73L831.069,464.809z M829.025,471.571c1.849,0.346,3.636,0.845,5.362,1.498
			l-0.336,0.813c-1.736-0.673-3.542-1.19-5.418-1.555L829.025,471.571z M830.481,469.611c1.064,0.354,2.067,0.794,3.011,1.316
			l-0.477,0.728c-0.942-0.569-1.941-1.026-2.996-1.372L830.481,469.611z M833.393,466.335h-3.178
			c-0.056,0.057-0.098,0.112-0.126,0.169c0.485,0.467,1.055,0.9,1.708,1.302C832.488,467.386,833.02,466.895,833.393,466.335z"/>
		<path class="st3" d="M848.443,475.464c-0.467,0-1.287-0.01-2.464-0.028c-0.887-0.01-1.609-0.094-2.17-0.252
			c-0.532-0.168-1.021-0.509-1.47-1.022c-0.178-0.232-0.354-0.35-0.532-0.35c-0.326,0-0.877,0.644-1.651,1.932l-0.757-0.686
			c0.747-1.176,1.405-1.891,1.975-2.143v-4.256h-2.002v-0.924h2.939v5.236c0.103,0.074,0.215,0.182,0.336,0.321
			c0.346,0.411,0.705,0.705,1.078,0.883c0.42,0.195,1.041,0.308,1.862,0.336c0.971,0.019,1.876,0.027,2.716,0.027
			c0.43,0,1.102-0.009,2.016-0.027c0.766-0.02,1.288-0.038,1.568-0.057l-0.238,1.009h-3.206L848.443,475.464L848.443,475.464z
			 M840.309,463.101c0.98,0.756,1.773,1.479,2.38,2.17l-0.728,0.714c-0.551-0.672-1.33-1.414-2.338-2.226L840.309,463.101z
			 M843.277,464.319h2.255c0.232-0.588,0.42-1.102,0.56-1.54l0.966,0.225c-0.168,0.504-0.326,0.942-0.476,1.315h4.914v0.938h-5.307
			c-0.41,0.914-0.877,1.75-1.399,2.506h2.254v-1.666h0.966v1.666h3.052v0.924h-3.052v1.666h3.668v0.952h-3.668v2.604h-0.966v-2.604
			h-3.878v-0.952h3.878v-1.666h-3.234l-0.224-0.924c0.569-0.682,1.082-1.517,1.54-2.506h-1.849V464.319z"/>
		<path class="st3" d="M853.567,475.59l-0.21-0.98c0.505,0.037,0.868,0.056,1.093,0.056c0.363,0,0.546-0.2,0.546-0.602v-3.388
			c-0.374,0.149-0.952,0.354-1.736,0.615l-0.252-1.008c0.635-0.158,1.297-0.364,1.988-0.616v-3.136h-1.708v-0.966h1.708v-2.646
			h1.036v2.646h1.161v0.966h-1.161v2.702c0.363-0.177,0.765-0.383,1.203-0.616v1.022c-0.363,0.195-0.765,0.392-1.203,0.588v4.088
			c0,0.85-0.411,1.274-1.232,1.274L853.567,475.59L853.567,475.59z M861.505,468.785c-0.14,0.374-0.294,0.737-0.462,1.092h4.802
			v0.98h-1.54c-0.215,1.046-0.648,1.923-1.302,2.632c0.979,0.458,1.899,0.934,2.758,1.428l-0.546,0.813
			c-0.84-0.514-1.815-1.036-2.926-1.568c-0.943,0.682-2.413,1.219-4.41,1.61l-0.392-0.91c1.651-0.299,2.902-0.695,3.752-1.189
			c-0.729-0.337-1.644-0.724-2.744-1.162c0.392-0.598,0.728-1.148,1.008-1.652h-1.876v-0.98h2.394
			c0.187-0.41,0.359-0.812,0.519-1.203L861.505,468.785z M859.923,465.243c0.336,0.588,0.667,1.279,0.994,2.072h1.372
			c0.364-0.653,0.695-1.396,0.994-2.226l0.951,0.336c-0.261,0.699-0.555,1.33-0.882,1.89h2.269v0.966h-7.813v-0.966h2.143
			c-0.299-0.653-0.584-1.213-0.854-1.68L859.923,465.243z M861.771,462.793c0.149,0.374,0.304,0.817,0.462,1.33h3.137v0.925h-7.238
			v-0.925h3.08c-0.149-0.4-0.313-0.788-0.49-1.161L861.771,462.793z M860.525,470.857c-0.271,0.457-0.536,0.873-0.798,1.246
			c0.813,0.308,1.597,0.63,2.353,0.966c0.625-0.588,1.05-1.325,1.273-2.212H860.525z"/>
		<path class="st3" d="M867.371,466.559h5.445c0.104-0.774,0.164-1.619,0.183-2.534v-1.134h1.036v0.91
			c0,0.896-0.062,1.815-0.183,2.758h5.811v0.979h-5.517c0.98,3.164,2.907,5.601,5.782,7.309l-0.63,0.812
			c-2.818-1.735-4.751-4.181-5.796-7.336c-0.868,3.397-2.796,5.876-5.782,7.435l-0.63-0.841c2.978-1.465,4.83-3.924,5.558-7.378
			h-5.277V466.559L867.371,466.559z"/>
		<path class="st3" d="M881.357,464.123h3.305v-1.26h1.021v1.26h3.668v-1.26h1.022v1.26h3.304v0.938h-3.304v1.33h-1.022v-1.33
			h-3.668v1.33h-1.021v-1.33h-3.305V464.123z M882.211,468.617c0.942,0.653,1.708,1.265,2.296,1.834l-0.686,0.687
			c-0.561-0.588-1.33-1.204-2.311-1.849L882.211,468.617z M884.815,472.019c-0.551,1.297-1.26,2.548-2.128,3.752l-0.91-0.476
			c0.905-1.223,1.634-2.45,2.185-3.683L884.815,472.019z M883.107,466.223c0.925,0.653,1.685,1.283,2.282,1.89l-0.686,0.7
			c-0.551-0.606-1.316-1.246-2.296-1.918L883.107,466.223z M891.493,467.679h-4.145v6.132c0,0.476,0.262,0.714,0.784,0.714h2.884
			c0.747,0,1.204-0.136,1.372-0.406c0.196-0.308,0.336-0.9,0.42-1.777l0.966,0.308c-0.121,1.325-0.354,2.146-0.699,2.464
			c-0.317,0.252-0.915,0.378-1.792,0.378h-3.542c-0.943,0-1.414-0.443-1.414-1.33v-7.392h6.174v3.766c0,0.766-0.396,1.162-1.19,1.19
			c-0.597,0-1.176-0.014-1.735-0.042l-0.252-0.938c0.652,0.047,1.189,0.07,1.609,0.07c0.373,0,0.561-0.196,0.561-0.588
			L891.493,467.679L891.493,467.679z"/>
		<path class="st3" d="M907.229,463.508v12.222h-0.979v-0.63h-9.464v0.63h-0.98v-12.222H907.229L907.229,463.508z M896.785,474.203
			h9.464v-9.8h-9.464V474.203z M897.78,465.915h3.178v-1.008h0.979v1.008h3.29v0.868h-3.29v1.092h2.702v0.841h-2.702v1.092h3.332
			c-0.027,1.325-0.131,2.193-0.308,2.604c-0.196,0.448-0.69,0.687-1.484,0.714c-0.084,0-0.275-0.019-0.573-0.056l-0.28-0.826
			c0.373,0.038,0.62,0.057,0.742,0.057c0.447-0.019,0.723-0.154,0.825-0.406c0.075-0.187,0.122-0.598,0.141-1.232h-2.395v2.996
			h-0.979v-2.996h-3.389v-0.854h3.389v-1.092h-2.59v-0.841h2.59v-1.092h-3.178L897.78,465.915L897.78,465.915z"/>
		<path class="st3" d="M909.609,464.319h1.135v9.996h-1.135V464.319z"/>
		<path class="st3" d="M912.843,464.319h4.088c2.296,0,3.444,0.98,3.444,2.94c0,1.979-1.153,2.968-3.458,2.968h-2.927v4.088h-1.147
			V464.319z M913.99,465.313v3.92h2.87c0.794,0,1.391-0.163,1.792-0.49c0.383-0.326,0.574-0.821,0.574-1.483
			c0-0.682-0.196-1.167-0.588-1.456c-0.383-0.327-0.976-0.49-1.778-0.49h-2.87V465.313L913.99,465.313z"/>
	</g>
	<g class="st2">
		<path class="st3" d="M811.329,521.595h8.723v0.979h-8.723V521.595z M814.928,516.134l-0.238,2.212h7.784
			c0,3.92-0.215,6.202-0.645,6.846c-0.42,0.588-1.325,0.882-2.716,0.882c-0.588,0-1.213-0.014-1.876-0.042l-0.266-0.924
			c1.082,0.065,1.727,0.098,1.932,0.098c1.204,0,1.932-0.284,2.184-0.854c0.252-0.588,0.379-2.272,0.379-5.054h-7.91l0.644-5.979
			l1.022,0.084l-0.183,1.75h7.91v0.98L814.928,516.134L814.928,516.134z"/>
		<path class="st3" d="M836.18,519.719h-8.681v4.199c0,0.579,0.285,0.868,0.854,0.868h7.168c0.317,0,0.574-0.084,0.77-0.252
			c0.262-0.261,0.425-1.157,0.49-2.688l0.98,0.308c-0.141,1.727-0.364,2.772-0.673,3.136c-0.308,0.29-0.737,0.448-1.287,0.477
			h-7.729c-1.055,0-1.582-0.551-1.582-1.652v-7.378h1.008v2.017h7.658V515.1h-9.422v-0.98h10.444v5.599H836.18z"/>
		<path class="st3" d="M841.276,516.219c-0.346,0.756-0.737,1.456-1.176,2.1l-0.882-0.56c0.914-1.325,1.582-2.801,2.002-4.425
			l0.993,0.211c-0.177,0.625-0.359,1.194-0.546,1.708h4.046v0.966h-2.044c-0.019,1.018-0.074,1.945-0.168,2.786h2.338v0.966h-2.478
			c-0.094,0.485-0.168,0.84-0.224,1.063c0.924,0.943,1.838,1.975,2.743,3.095l-0.602,0.924c-0.942-1.325-1.745-2.356-2.408-3.095
			c-0.578,1.568-1.605,2.885-3.08,3.948l-0.657-0.812c1.483-1.083,2.464-2.44,2.939-4.074c0.103-0.42,0.182-0.771,0.238-1.05h-2.926
			v-0.966h3.065c0.103-0.803,0.163-1.731,0.183-2.786L841.276,516.219L841.276,516.219z M851.258,514.861v10.71h-0.98v-0.896h-2.744
			v0.924h-0.966v-10.738L851.258,514.861L851.258,514.861z M847.533,523.737h2.744v-7.938h-2.744V523.737z"/>
		<path class="st3" d="M864.991,517.478c-0.467,2.314-1.087,4.186-1.862,5.614c0.047,0.158,0.112,0.341,0.196,0.546
			c0.364,0.803,0.695,1.213,0.994,1.231c0.242-0.056,0.48-0.83,0.714-2.323l0.938,0.602c-0.196,0.784-0.406,1.438-0.63,1.96
			c-0.28,0.635-0.598,0.952-0.952,0.952c-0.495,0-0.994-0.443-1.498-1.33c-0.112-0.196-0.229-0.425-0.351-0.686
			c-0.541,0.793-1.162,1.428-1.861,1.903l-0.561-0.812c0.774-0.532,1.447-1.274,2.017-2.227c-0.206-0.635-0.383-1.339-0.532-2.113
			c-0.252-1.232-0.42-2.828-0.504-4.788h-5.979v2.968c-0.047,2.968-0.415,5.334-1.105,7.098l-0.854-0.756
			c0.635-1.521,0.966-3.635,0.994-6.342v-3.92h6.916c-0.019-0.354-0.028-0.9-0.028-1.639h1.022c0,0.747,0.005,1.293,0.014,1.639
			h1.61c-0.196-0.448-0.406-0.868-0.63-1.26l0.938-0.154c0.225,0.485,0.415,0.957,0.574,1.414h0.98v0.952h-3.444
			c0.056,1.577,0.168,2.921,0.336,4.031c0.084,0.542,0.191,1.102,0.322,1.681c0.578-1.325,1.031-2.865,1.357-4.62L864.991,517.478z
			 M855.808,518.22v-0.882h4.508v0.882h-1.876c-0.14,0.578-0.271,1.092-0.393,1.54h2.311v0.812c-0.233,1.055-0.593,1.965-1.078,2.73
			c0.42,0.252,0.798,0.509,1.134,0.77l-0.532,0.771c-0.336-0.271-0.719-0.542-1.147-0.813c-0.729,0.85-1.68,1.531-2.856,2.044
			l-0.489-0.868c1.026-0.42,1.866-0.979,2.52-1.68c-0.598-0.354-1.218-0.69-1.862-1.008c0.206-0.514,0.448-1.144,0.729-1.89h-1.036
			v-0.868h1.33c0.187-0.588,0.336-1.102,0.448-1.54L855.808,518.22L855.808,518.22z M859.476,520.629h-1.708
			c-0.141,0.438-0.327,0.942-0.561,1.512c0.401,0.196,0.826,0.42,1.274,0.672C858.91,522.188,859.242,521.459,859.476,520.629z"/>
		<path class="st3" d="M868.869,521.595c-0.111,1.866-0.452,3.401-1.021,4.605l-0.813-0.728c0.588-1.288,0.896-2.926,0.924-4.914
			v-6.65h3.612v10.977c0,0.84-0.35,1.26-1.05,1.26h-0.938l-0.266-0.966c0.429,0.037,0.728,0.056,0.896,0.056
			c0.262,0,0.393-0.229,0.393-0.686v-2.954L868.869,521.595L868.869,521.595z M870.606,517.324v-2.45h-1.708v2.45H870.606z
			 M868.898,518.262v2.38h1.708v-2.38H868.898z M874.623,513.391h0.966v2.268h2.576c0,4.648-0.065,7.546-0.195,8.694
			c-0.141,1.147-0.841,1.722-2.101,1.722l-1.134-0.056l-0.252-0.952c0.476,0.028,0.892,0.042,1.246,0.042
			c0.746,0,1.176-0.396,1.288-1.19c0.093-0.746,0.153-3.173,0.182-7.279h-1.61v0.854c-0.037,3.967-1.003,6.87-2.897,8.708
			l-0.798-0.686c1.792-1.681,2.702-4.354,2.729-8.022v-0.854h-2.394v-0.98h2.394V513.391L874.623,513.391z M873.503,518.655
			c-0.103,1.419-0.331,2.665-0.686,3.738l-0.882-0.267c0.41-1.035,0.662-2.226,0.756-3.569L873.503,518.655z M879.062,518.444
			c0.326,1.036,0.639,2.208,0.938,3.514l-0.77,0.351c-0.252-1.297-0.542-2.511-0.868-3.641L879.062,518.444z"/>
		<path class="st3" d="M881.61,514.819h1.134v9.996h-1.134V514.819z"/>
		<path class="st3" d="M884.843,514.819h4.089c2.296,0,3.443,0.98,3.443,2.94c0,1.979-1.152,2.968-3.458,2.968h-2.926v4.088h-1.148
			L884.843,514.819L884.843,514.819z M885.991,515.813v3.92h2.87c0.793,0,1.391-0.163,1.792-0.49
			c0.383-0.326,0.574-0.821,0.574-1.483c0-0.682-0.196-1.167-0.588-1.456c-0.383-0.327-0.976-0.49-1.778-0.49h-2.87V515.813
			L885.991,515.813z"/>
		<path class="st3" d="M902.778,525.963c-0.476,0-1.312-0.01-2.506-0.028c-0.915-0.019-1.652-0.103-2.212-0.252
			c-0.561-0.168-1.06-0.509-1.498-1.022c-0.196-0.232-0.378-0.35-0.546-0.35c-0.336,0-0.892,0.644-1.666,1.932l-0.756-0.686
			c0.746-1.176,1.404-1.891,1.974-2.143v-4.256h-1.988v-0.924h2.927v5.236c0.121,0.093,0.237,0.2,0.35,0.321
			c0.336,0.402,0.7,0.696,1.092,0.883c0.448,0.195,1.088,0.308,1.918,0.336c0.989,0.019,1.913,0.027,2.772,0.027
			c0.42,0,1.087-0.009,2.002-0.027c0.756-0.02,1.273-0.038,1.554-0.057l-0.238,1.009L902.778,525.963L902.778,525.963
			L902.778,525.963z M894.588,513.601c0.97,0.728,1.782,1.456,2.436,2.184l-0.714,0.7c-0.598-0.709-1.4-1.451-2.408-2.226
			L894.588,513.601z M900.272,514.944c0.635,0.383,1.171,0.733,1.61,1.05c0.746-0.392,1.418-0.816,2.016-1.273h-6.216v-0.854h7.574
			v0.729c-0.841,0.728-1.75,1.357-2.73,1.89l0.224,0.182h2.772v6.259c0,0.719-0.392,1.078-1.176,1.078h-1.162l-0.224-0.854
			l1.105,0.042c0.336,0,0.504-0.158,0.504-0.476v-1.051h-2.352v2.408h-0.938v-2.408h-2.338v2.45h-0.952v-7.448h3.5
			c-0.541-0.382-1.152-0.756-1.834-1.119L900.272,514.944z M901.28,518.767v-1.26h-2.338v1.26H901.28z M898.942,519.607v1.232h2.338
			v-1.232H898.942z M904.57,518.767v-1.26h-2.352v1.26H904.57z M902.218,519.607v1.232h2.352v-1.232H902.218z"/>
		<path class="st3" d="M908.98,518.374c-0.448,0.654-0.91,1.246-1.386,1.778l-0.322-1.078c1.362-1.68,2.361-3.621,2.996-5.824
			l0.938,0.435c-0.336,1.092-0.746,2.104-1.231,3.038v9.52h-0.994L908.98,518.374L908.98,518.374z M911.15,515.225h4.313
			c-0.206-0.561-0.448-1.102-0.729-1.624l0.966-0.267c0.28,0.598,0.509,1.162,0.687,1.694l-0.532,0.196h4.41v0.952h-9.114
			L911.15,515.225L911.15,515.225z M919.312,521.357v4.858h-0.98v-0.757h-5.18v0.757h-0.979v-4.858H919.312z M912.438,517.311h6.622
			v0.91h-6.622V517.311z M912.438,519.284h6.622v0.924h-6.622V519.284z M913.152,524.507h5.18v-2.212h-5.18V524.507z"/>
	</g>
	<g class="st2">
		<path class="st3" d="M810.286,567.16h2.996v6.174c0.373-0.326,0.854-0.783,1.442-1.371l0.266,1.063
			c-0.803,0.803-1.661,1.521-2.576,2.156l-0.392-0.896c0.195-0.168,0.294-0.363,0.294-0.588v-5.572h-2.03V567.16L810.286,567.16z
			 M811.966,563.017c0.878,0.672,1.657,1.381,2.338,2.128l-0.686,0.7c-0.569-0.672-1.354-1.387-2.352-2.143L811.966,563.017z
			 M818.168,571.529c-0.7,1.624-1.525,3.043-2.478,4.256l-0.882-0.644c0.97-1.12,1.792-2.469,2.464-4.046L818.168,571.529z
			 M815.775,563.717h6.439v6.538h-6.439V563.717z M821.206,569.275v-4.592h-4.424v4.592H821.206z M820.632,571.053
			c1.12,1.577,1.97,2.936,2.548,4.073l-0.867,0.603c-0.626-1.279-1.456-2.665-2.492-4.158L820.632,571.053z"/>
		<path class="st3" d="M825.029,567.889v-4.452h5.95v4.452h-2.744c-0.028,0.598-0.07,1.167-0.126,1.708h3.01
			c0,2.427-0.07,3.934-0.21,4.521c-0.14,0.934-0.816,1.4-2.03,1.4c-0.187,0-0.504-0.014-0.952-0.042l-0.237-0.896
			c0.541,0.037,0.891,0.057,1.05,0.057c0.709,0,1.12-0.304,1.231-0.91c0.075-0.309,0.126-1.372,0.154-3.192h-2.142
			c-0.159,0.878-0.346,1.573-0.561,2.086c-0.513,1.186-1.367,2.208-2.562,3.066l-0.645-0.798c1.083-0.747,1.849-1.639,2.296-2.674
			c0.188-0.43,0.346-0.989,0.477-1.681h-2.492v-0.938h2.618c0.074-0.69,0.121-1.26,0.14-1.708L825.029,567.889L825.029,567.889z
			 M830.012,566.965v-2.618h-4.018v2.618H830.012z M832.561,564.108h0.979v8.722h-0.979V564.108z M833.176,575.589l-0.224-0.967
			c0.728,0.047,1.349,0.07,1.862,0.07c0.438,0,0.657-0.252,0.657-0.756v-11.019h1.009v11.271c0,0.934-0.439,1.4-1.316,1.4
			L833.176,575.589L833.176,575.589z"/>
		<path class="st3" d="M848.464,567.748v-3.821h1.008v4.802h-4.283v5.138h3.947v-3.821h1.022v5.571h-1.022v-0.784h-8.932v0.784
			h-1.021v-5.571h1.021v3.821h3.948v-5.138h-4.284v-4.802h1.008v3.821h3.276v-4.886h1.036v4.886H848.464z"/>
		<path class="st3" d="M852.72,563.605h11.9v0.994h-4.563c-0.243,0.56-0.532,1.115-0.868,1.666v9.478h-1.036v-7.994
			c-1.316,1.634-3.038,3.09-5.166,4.368l-0.658-0.882c3.173-1.829,5.376-4.041,6.608-6.636h-6.217V563.605z M860.952,567.37
			c1.596,1.261,2.944,2.534,4.046,3.822l-0.77,0.784c-0.98-1.232-2.315-2.539-4.004-3.92L860.952,567.37z"/>
		<path class="st3" d="M872.153,562.806h1.036v2.142h1.777c0.448-0.644,0.821-1.292,1.12-1.945l0.938,0.35
			c-0.309,0.598-0.64,1.129-0.994,1.596h2.464v2.828h-1.036v-1.876h-9.576v1.89h-1.036v-2.842h2.282
			c-0.261-0.532-0.578-1.031-0.952-1.498l0.952-0.35c0.373,0.532,0.705,1.147,0.994,1.848h2.03L872.153,562.806L872.153,562.806
			L872.153,562.806z M872.153,570.059h-3.08v-3.08h7.224v3.08h-3.107v1.12h4.452v2.548c0,0.84-0.435,1.26-1.303,1.26h-1.092
			l-0.266-0.966l1.036,0.042c0.42,0,0.63-0.187,0.63-0.56v-1.4h-3.458v3.64h-1.036v-3.64h-3.388v2.968h-0.994v-3.892h4.382
			L872.153,570.059L872.153,570.059z M875.33,569.204v-1.372h-5.278v1.372H875.33z"/>
		<path class="st3" d="M882.596,571.137c-0.158,1.801-0.681,3.285-1.567,4.452l-0.771-0.686c0.896-1.25,1.358-2.832,1.387-4.746
			v-6.72h10.43v10.486c0,0.979-0.49,1.47-1.47,1.47h-1.61l-0.266-0.994c0.746,0.037,1.265,0.056,1.554,0.056
			c0.513,0,0.77-0.294,0.77-0.882v-2.436h-3.808v4.102h-1.036v-4.102L882.596,571.137L882.596,571.137z M886.208,564.416h-3.556
			v2.408h3.556V564.416z M882.653,567.762v2.45h3.556v-2.45H882.653z M891.052,566.824v-2.408h-3.808v2.408H891.052z
			 M891.052,570.213v-2.45h-3.808v2.45H891.052z"/>
		<path class="st3" d="M894.441,565.871h1.512v-2.884h1.008v2.884h1.597v0.98h-1.597v8.862h-1.009v-8.862h-1.512L894.441,565.871
			L894.441,565.871z M900.054,568.379c-0.42,1.698-1.003,2.986-1.75,3.863l-0.672-0.644c0.737-0.924,1.274-2.067,1.61-3.431
			L900.054,568.379z M901.37,562.989h0.98v2.408h2.842c0,4.602-0.07,7.443-0.21,8.526c-0.131,1.101-0.733,1.651-1.807,1.651
			l-1.218-0.056l-0.252-0.924c0.504,0.027,0.942,0.042,1.316,0.042c0.56,0,0.891-0.373,0.994-1.12
			c0.084-0.774,0.14-3.154,0.168-7.141h-1.834v0.238c-0.057,4.153-1.167,7.183-3.332,9.086l-0.742-0.658
			c2.034-1.754,3.065-4.563,3.094-8.428v-0.238h-2.38v-0.979h2.38L901.37,562.989L901.37,562.989z M905.99,568.239
			c0.448,0.989,0.858,2.082,1.231,3.276l-0.783,0.35c-0.355-1.231-0.766-2.356-1.232-3.374L905.99,568.239z"/>
		<path class="st3" d="M908.3,567.16h3.024v6.048c0.448-0.392,0.919-0.835,1.414-1.329l0.266,1.077
			c-0.812,0.794-1.671,1.508-2.576,2.143l-0.392-0.924c0.215-0.168,0.322-0.364,0.322-0.588v-5.461h-2.059v-0.966H908.3z
			 M909.994,563.017c0.905,0.719,1.685,1.438,2.338,2.156l-0.686,0.699c-0.561-0.69-1.345-1.423-2.353-2.197L909.994,563.017z
			 M920.298,563.717c-0.457,3.295-1.404,5.982-2.842,8.063c1.064,1.288,2.333,2.315,3.809,3.08l-0.589,0.882
			c-1.465-0.803-2.739-1.856-3.821-3.164c-1.111,1.363-2.483,2.418-4.116,3.164l-0.546-0.854c1.596-0.729,2.935-1.773,4.018-3.136
			c-1.354-1.857-2.427-4.153-3.22-6.889l0.868-0.476c0.7,2.604,1.68,4.788,2.939,6.552c1.279-1.941,2.128-4.415,2.548-7.42
			L920.298,563.717z M915.622,562.821c0.915,1.195,1.601,2.227,2.058,3.094l-0.798,0.547c-0.513-0.943-1.186-1.975-2.016-3.095
			L915.622,562.821z"/>
	</g>
	<g id="XMLID_531_">
		<path class="st14" d="M935.795,416.538h-6v1h6V416.538L935.795,416.538z M925.795,416.538h-6v1h6V416.538L925.795,416.538z
			 M915.795,416.538h-6v1h6V416.538L915.795,416.538z M905.795,416.538h-6v1h6V416.538L905.795,416.538z M895.795,416.538h-6v1h6
			V416.538L895.795,416.538z M885.795,416.538h-6v1h6V416.538L885.795,416.538z M875.795,416.538h-6v1h6V416.538L875.795,416.538z
			 M865.795,416.538h-6v1h6V416.538L865.795,416.538z M855.795,416.538h-6v1h6V416.538L855.795,416.538z M845.795,416.538h-6v1h6
			V416.538L845.795,416.538z M835.795,416.538h-6v1h6V416.538L835.795,416.538z M825.795,416.538h-6v1h6V416.538L825.795,416.538z
			 M815.795,416.538h-6v1h6V416.538L815.795,416.538z M805.795,416.538h-6v1h6V416.538L805.795,416.538z M795.795,416.538h-6v1h6
			V416.538L795.795,416.538z M786.795,416.538h-1v6h1V416.538L786.795,416.538z M786.795,426.538h-1v6h1V426.538L786.795,426.538z
			 M786.795,436.538h-1v6h1V436.538L786.795,436.538z M786.795,446.538h-1v6h1V446.538L786.795,446.538z M786.795,456.538h-1v6h1
			V456.538L786.795,456.538z M786.795,466.538h-1v6h1V466.538L786.795,466.538z M786.795,476.538h-1v6h1V476.538L786.795,476.538z
			 M786.795,486.538h-1v6h1V486.538L786.795,486.538z M786.795,496.538h-1v6h1V496.538L786.795,496.538z M786.795,506.538h-1v6h1
			V506.538L786.795,506.538z M786.795,516.538h-1v6h1V516.538L786.795,516.538z M786.795,526.538h-1v6h1V526.538L786.795,526.538z
			 M786.795,536.538h-1v6h1V536.538L786.795,536.538z M786.795,546.538h-1v6h1V546.538L786.795,546.538z M786.795,556.538h-1v6h1
			V556.538L786.795,556.538z M786.795,566.538h-1v6h1V566.538L786.795,566.538z M786.795,576.538h-1v6h1V576.538L786.795,576.538z
			 M786.795,586.538h-1v6h1V586.538L786.795,586.538z M786.795,596.538h-1v6h1V596.538L786.795,596.538z M795.061,602.272h-6v1h6
			V602.272L795.061,602.272z M805.061,602.272h-6v1h6V602.272L805.061,602.272z M815.061,602.272h-6v1h6V602.272L815.061,602.272z
			 M825.061,602.272h-6v1h6V602.272L825.061,602.272z M835.061,602.272h-6v1h6V602.272L835.061,602.272z M845.061,602.272h-6v1h6
			V602.272L845.061,602.272z M855.061,602.272h-6v1h6V602.272L855.061,602.272z M865.061,602.272h-6v1h6V602.272L865.061,602.272z
			 M875.061,602.272h-6v1h6V602.272L875.061,602.272z M885.061,602.272h-6v1h6V602.272L885.061,602.272z M895.061,602.272h-6v1h6
			V602.272L895.061,602.272z M905.061,602.272h-6v1h6V602.272L905.061,602.272z M915.061,602.272h-6v1h6V602.272L915.061,602.272z
			 M925.061,602.272h-6v1h6V602.272L925.061,602.272z M935.061,602.272h-6v1h6V602.272L935.061,602.272z M945.061,602.272h-6v1h6
			V602.272L945.061,602.272z M945.795,594.006h-1v6h1V594.006L945.795,594.006z M945.795,584.006h-1v6h1V584.006L945.795,584.006z
			 M945.795,574.006h-1v6h1V574.006L945.795,574.006z M945.795,564.006h-1v6h1V564.006L945.795,564.006z M945.795,554.006h-1v6h1
			V554.006L945.795,554.006z M945.795,544.006h-1v6h1V544.006L945.795,544.006z M945.795,534.006h-1v6h1V534.006L945.795,534.006z
			 M945.795,524.006h-1v6h1V524.006L945.795,524.006z M945.795,514.006h-1v6h1V514.006L945.795,514.006z M945.795,504.006h-1v6h1
			V504.006L945.795,504.006z M945.795,494.006h-1v6h1V494.006L945.795,494.006z M945.795,484.006h-1v6h1V484.006L945.795,484.006z
			 M945.795,474.006h-1v6h1V474.006L945.795,474.006z M945.795,464.006h-1v6h1V464.006L945.795,464.006z M945.795,454.006h-1v6h1
			V454.006L945.795,454.006z M945.795,444.006h-1v6h1V444.006L945.795,444.006z M945.795,434.006h-1v6h1V434.006L945.795,434.006z
			 M945.795,424.006h-1v6h1V424.006L945.795,424.006z M945.795,416.538h-6v1h5v2.468h1V416.538L945.795,416.538z"/>
	</g>
	<g class="st2">
		<path class="st3" d="M799.968,428.583h-2.521v-0.756h8.162v0.49c-0.233,1.186-0.489,2.286-0.77,3.304h2.842v0.462
			c-0.392,1.923-1.307,3.556-2.744,4.9c1.11,0.858,2.417,1.619,3.92,2.281l-0.504,0.658c-1.53-0.69-2.865-1.498-4.004-2.422
			c-1.231,0.999-2.776,1.82-4.634,2.464l-0.435-0.7c1.792-0.615,3.281-1.376,4.467-2.281c-1.476-1.335-2.529-2.889-3.164-4.662
			c-0.401,3.332-1.624,5.843-3.668,7.532l-0.588-0.505c2.38-1.95,3.593-5.067,3.64-9.352v-1.413L799.968,428.583L799.968,428.583z
			 M806.884,432.335h-2.996c0.271-0.821,0.569-2.072,0.896-3.752h-4.06v1.666l-0.014,0.266c0.494,2.344,1.703,4.336,3.626,5.979
			C805.615,435.326,806.464,433.941,806.884,432.335z"/>
		<path class="st3" d="M814.766,428.234v10.206h-0.728v-0.98h-2.366v1.302h-0.756v-10.527L814.766,428.234L814.766,428.234z
			 M811.672,432.391h2.366v-3.457h-2.366V432.391z M811.672,436.745h2.366v-3.64h-2.366V436.745z M817.608,439.755l-0.168-0.728
			c1.083,0.037,1.857,0.056,2.324,0.056c0.485,0,0.728-0.252,0.728-0.756v-7.798h-4.997v-0.742h4.997v-2.534h0.771v2.534h1.82v0.742
			h-1.82v7.994c0,0.821-0.411,1.231-1.232,1.231h-2.423V439.755z M816.726,432.377c0.858,1.26,1.54,2.418,2.044,3.472l-0.63,0.435
			c-0.504-1.055-1.181-2.227-2.03-3.514L816.726,432.377z"/>
		<path class="st3" d="M825.434,431.272l1.106-3.725l0.756,0.112l-0.882,2.897h2.743c0.299-1.129,0.537-2.314,0.715-3.556
			l0.77,0.084c-0.215,1.335-0.448,2.492-0.7,3.472h6.65v0.715h-6.846c-0.215,0.719-0.421,1.33-0.616,1.834h5.81v0.657
			c-0.392,1.242-1.204,2.376-2.436,3.402c1.185,0.747,2.637,1.419,4.354,2.016l-0.378,0.7c-1.885-0.69-3.416-1.437-4.592-2.24
			c-1.157,0.831-2.627,1.592-4.41,2.282l-0.392-0.7c1.661-0.606,3.047-1.287,4.158-2.044c-1.224-0.933-2.072-1.945-2.549-3.038
			c-1.045,2.324-2.385,4.158-4.018,5.503l-0.392-0.7c2.146-1.867,3.705-4.424,4.676-7.672L825.434,431.272L825.434,431.272z
			 M829.298,433.805c0.476,1.074,1.33,2.049,2.562,2.927c1.13-0.896,1.899-1.871,2.311-2.927H829.298z M832.994,427.198
			c1.035,0.803,1.885,1.591,2.548,2.366l-0.546,0.546c-0.626-0.784-1.466-1.592-2.521-2.422L832.994,427.198z"/>
		<path class="st3" d="M838.594,432.406h1.708v-3.528h-1.904v-0.714h4.536v0.714h-1.876v3.528h1.68v0.728h-1.68v3.5
			c0.635-0.214,1.27-0.452,1.904-0.714v0.742c-1.382,0.56-2.856,1.022-4.424,1.386l-0.183-0.728
			c0.653-0.141,1.302-0.294,1.946-0.462v-3.725h-1.708L838.594,432.406L838.594,432.406z M846.434,429.564h0.714v3.472
			c-0.027,1.867-0.387,3.351-1.078,4.452c-0.672,1.018-1.787,1.824-3.346,2.422l-0.434-0.645c1.521-0.56,2.594-1.329,3.22-2.31
			c0.588-1.008,0.896-2.314,0.924-3.92V429.564L846.434,429.564z M849.864,427.743v7.658h-0.756v-6.931H844.6v6.931h-0.756v-7.658
			H849.864z M848.184,439.686c-0.682,0-1.021-0.337-1.021-1.009v-3.332h0.756v3.164c0,0.309,0.163,0.462,0.489,0.462h1.093
			c0.279,0,0.471-0.074,0.573-0.224c0.149-0.187,0.252-0.756,0.309-1.708l0.7,0.238c-0.084,1.129-0.238,1.824-0.462,2.086
			c-0.215,0.215-0.542,0.322-0.98,0.322h-1.457L848.184,439.686L848.184,439.686z"/>
		<path class="st3" d="M861.596,439.812l-0.196-0.742l1.387,0.042c0.41,0,0.615-0.21,0.615-0.63V428.5h-9.464v11.368h-0.756v-12.11
			h10.976v10.893c0,0.774-0.378,1.162-1.134,1.162h-1.428L861.596,439.812L861.596,439.812z M858.376,436.759
			c-0.495-0.765-0.999-1.512-1.513-2.239c-0.522,1.418-1.171,2.655-1.945,3.71l-0.49-0.589c0.784-1.092,1.428-2.37,1.932-3.836
			c-0.756-1.008-1.441-1.853-2.058-2.533l0.476-0.477c0.569,0.598,1.181,1.335,1.834,2.212c0.289-0.989,0.537-2.137,0.742-3.443
			l0.714,0.126c-0.233,1.483-0.541,2.828-0.924,4.031c0.504,0.682,1.083,1.531,1.736,2.549L858.376,436.759z M862.533,437.404
			c-0.494-0.831-1.021-1.685-1.581-2.563c-0.579,1.438-1.279,2.679-2.101,3.725l-0.476-0.588c0.821-1.073,1.512-2.366,2.071-3.879
			c-0.699-1.026-1.376-1.927-2.029-2.701l0.489-0.477c0.616,0.71,1.223,1.498,1.82,2.366c0.354-1.092,0.64-2.319,0.854-3.682
			l0.714,0.126c-0.262,1.577-0.611,3.015-1.05,4.312c0.597,0.905,1.194,1.857,1.792,2.856L862.533,437.404z"/>
		<path class="st3" d="M871.312,437.992c-1.381,0.532-2.944,0.966-4.689,1.302l-0.099-0.728c1.82-0.327,3.416-0.761,4.788-1.303
			V437.992z M869.66,427.408c-0.72,1.876-1.456,3.364-2.213,4.466c0.616-0.074,1.33-0.205,2.143-0.392l0.756-1.498l0.658,0.252
			c-1.251,2.482-2.296,4.228-3.136,5.235c1.045-0.205,2.104-0.494,3.178-0.867v0.686c-1.447,0.495-2.805,0.836-4.074,1.022
			l-0.21-0.715c0.131-0.056,0.247-0.126,0.35-0.21c0.579-0.625,1.279-1.685,2.101-3.178c-0.971,0.196-1.802,0.341-2.492,0.435
			l-0.182-0.7c0.13-0.065,0.237-0.159,0.321-0.28c0.813-1.307,1.508-2.818,2.086-4.536L869.66,427.408z M874.364,427.226
			c-0.131,0.41-0.284,0.821-0.462,1.231h3.92v0.574c-0.541,1.186-1.32,2.24-2.338,3.164c1.008,0.774,2.245,1.372,3.71,1.792
			l-0.434,0.616c-1.521-0.458-2.796-1.111-3.822-1.96c-1.055,0.812-2.277,1.493-3.668,2.044l-0.476-0.616
			c1.381-0.522,2.576-1.162,3.584-1.918c-0.598-0.569-1.111-1.218-1.54-1.946c-0.42,0.504-0.868,0.962-1.344,1.372l-0.448-0.588
			c1.288-1.073,2.151-2.371,2.59-3.893L874.364,427.226z M877.836,434.772v5.054h-0.729v-0.658h-4.158v0.658h-0.728v-5.054H877.836z
			 M872.949,438.467h4.158v-3.01h-4.158V438.467z M873.258,429.633c0.457,0.803,1.008,1.498,1.652,2.086
			c0.886-0.765,1.581-1.619,2.086-2.562h-3.444L873.258,429.633z"/>
		<path class="st3" d="M880.552,432.49h3.948c0.354-0.635,0.779-1.428,1.273-2.38l0.771,0.237l-1.148,2.143h7.42v0.728h-2.8
			c-0.588,1.55-1.283,2.777-2.086,3.683c1.372,0.606,2.875,1.367,4.508,2.281l-0.504,0.645c-1.512-0.887-3.033-1.671-4.563-2.353
			c-1.55,1.409-3.641,2.156-6.272,2.24L880.651,439c2.427-0.01,4.41-0.625,5.95-1.848c0-0.01,0.009-0.015,0.028-0.015
			c-1.363-0.597-2.702-1.101-4.019-1.512c0.551-0.858,1.041-1.661,1.471-2.408h-3.529L880.552,432.49L880.552,432.49z
			 M892.34,428.57v2.884h-0.756v-2.142h-9.843v2.128h-0.756v-2.87h5.362c-0.205-0.504-0.43-0.971-0.672-1.4l0.84-0.14
			c0.233,0.467,0.453,0.979,0.658,1.54H892.34z M884.976,433.217c-0.635,1.046-1.063,1.736-1.288,2.072
			c1.12,0.336,2.291,0.771,3.515,1.302c0.84-0.877,1.507-2.002,2.002-3.374H884.976z"/>
		<path class="st3" d="M900.936,427.211c1.783,1.886,3.827,3.365,6.132,4.438l-0.378,0.657c-2.333-1.129-4.34-2.594-6.02-4.396
			c-1.55,1.745-3.575,3.243-6.076,4.494l-0.364-0.672c2.455-1.204,4.513-2.712,6.174-4.522h0.532V427.211z M896.778,431.677h7.813
			v0.742h-3.542v2.674h4.158v0.742h-4.158v2.884h5.432v0.742h-11.605v-0.742h5.418v-2.884h-4.172v-0.742h4.172v-2.674h-3.515v-0.742
			H896.778z"/>
		<path class="st3" d="M920.046,431.159c-0.458,2.287-1.088,4.153-1.891,5.6c0.141,0.401,0.248,0.682,0.322,0.84
			c0.393,0.841,0.751,1.265,1.078,1.274c0.271-0.056,0.546-0.887,0.826-2.492l0.686,0.435c-0.177,0.783-0.373,1.441-0.588,1.974
			c-0.252,0.635-0.546,0.952-0.882,0.952c-0.485,0-0.976-0.443-1.47-1.33c-0.168-0.299-0.309-0.602-0.42-0.91
			c-0.616,0.905-1.293,1.61-2.03,2.114L915.271,439c0.821-0.569,1.531-1.358,2.128-2.366c-0.158-0.522-0.336-1.231-0.531-2.128
			c-0.243-1.231-0.402-2.86-0.477-4.886h-6.258v3.08c-0.037,2.939-0.415,5.292-1.134,7.056l-0.63-0.56
			c0.672-1.55,1.021-3.715,1.05-6.496v-3.794h6.943c-0.019-0.373-0.027-0.947-0.027-1.722h0.742c0,0.774,0.004,1.349,0.014,1.722
			h1.904c-0.215-0.532-0.443-0.999-0.687-1.4l0.714-0.111c0.243,0.467,0.462,0.971,0.658,1.512h0.98v0.714h-3.557
			c0.057,1.624,0.187,3.066,0.393,4.326c0.111,0.7,0.237,1.307,0.378,1.819c0.644-1.325,1.147-2.958,1.512-4.899L920.046,431.159z
			 M910.974,431.845v-0.657h4.466v0.657h-1.932c-0.103,0.448-0.262,1.032-0.477,1.75h2.408v0.603
			c-0.252,1.102-0.653,2.049-1.204,2.842c0.485,0.299,0.92,0.598,1.303,0.896l-0.393,0.573c-0.42-0.316-0.863-0.62-1.33-0.91
			c-0.746,0.888-1.717,1.601-2.912,2.143l-0.378-0.645c1.093-0.476,1.983-1.101,2.674-1.876c-0.719-0.41-1.349-0.751-1.89-1.021
			c0.252-0.606,0.504-1.255,0.756-1.946h-1.176v-0.658h1.4c0.252-0.783,0.424-1.367,0.518-1.75h-1.833V431.845z M914.754,434.253
			h-1.946c-0.187,0.551-0.396,1.102-0.63,1.652c0.494,0.233,0.979,0.49,1.456,0.77C914.119,435.985,914.492,435.177,914.754,434.253
			z"/>
		<path class="st3" d="M923.882,435.192c-0.112,1.903-0.462,3.472-1.05,4.704l-0.603-0.547c0.625-1.371,0.942-3.089,0.952-5.151
			v-6.454h3.458v10.976c0,0.729-0.313,1.093-0.938,1.093h-0.98l-0.21-0.715c0.467,0.019,0.784,0.028,0.952,0.028
			c0.308,0,0.462-0.224,0.462-0.672v-3.262L923.882,435.192L923.882,435.192z M925.926,431.159v-2.674h-2.016v2.674L925.926,431.159
			L925.926,431.159z M923.91,431.873v2.604h2.016v-2.604H923.91z M929.888,427.156h0.728v2.352h2.618
			c0,4.573-0.069,7.406-0.21,8.498c-0.14,1.167-0.84,1.75-2.1,1.75c-0.205,0-0.556-0.014-1.05-0.042l-0.183-0.728
			c0.438,0.027,0.816,0.042,1.134,0.042c0.85,0,1.345-0.43,1.484-1.288c0.094-0.821,0.154-3.322,0.182-7.504h-1.876v0.896
			c-0.037,3.985-1.008,6.902-2.911,8.75l-0.603-0.518c1.829-1.708,2.758-4.452,2.786-8.232v-0.896h-2.464v-0.729h2.464
			L929.888,427.156L929.888,427.156z M928.586,432.364c-0.112,1.409-0.369,2.65-0.771,3.724l-0.672-0.21
			c0.43-1.017,0.7-2.217,0.813-3.598L928.586,432.364z M934.088,432.196c0.392,1.102,0.728,2.272,1.008,3.514l-0.588,0.267
			c-0.309-1.345-0.63-2.539-0.966-3.585L934.088,432.196z"/>
	</g>
</g>
<g id="XMLID_497_">
	<line id="XMLID_499_" class="st15" x1="780.712" y1="509.905" x2="746.712" y2="509.905"/>
	<polygon id="XMLID_498_" class="st16" points="778.712,514.405 783.712,509.905 778.712,505.405 	"/>
</g>
<line id="XMLID_496_" class="st15" x1="629.379" y1="509.905" x2="592.712" y2="509.905"/>
<polygon id="XMLID_102_" class="st16" points="627.379,514.405 632.379,509.905 627.379,505.405 "/>
<g>
	<rect x="123.045" y="521.786" class="st9" width="86" height="50"/>
	<rect x="121.045" y="519.786" class="st10" width="86" height="50"/>
	<g>
		<g>
			<path class="st16" d="M142.645,533.886c2.2,0,4,1.8,4,4s-1.8,4-4,4s-4-1.8-4-4S140.345,533.886,142.645,533.886 M142.645,531.886
				c-3.3,0-6,2.7-6,6s2.7,6,6,6s6-2.7,6-6S145.945,531.886,142.645,531.886z"/>
			<path class="st16" d="M146.645,547.886c3.3,0,6,2.7,6,6v1h-20v-1c0-3.3,2.7-6,6-6H146.645 M146.645,545.886h-8c-4.4,0-8,3.6-8,8
				v3h24v-3C154.645,549.486,151.045,545.886,146.645,545.886z"/>
			<path class="st16" d="M155.645,545.886h-3c0.8,0.6,1.4,1.2,2,2h1c2.2,0,4,1.8,4,4v1h-3c0,0.3,0,0.7,0,1v1h5v-3
				C161.645,548.586,158.945,545.886,155.645,545.886z"/>
			<path class="st16" d="M151.645,532.886c-0.8,0-1.6,0.2-2.3,0.6c0.4,0.6,0.7,1.2,0.9,1.8c1.4-0.8,3.3-0.3,4.1,1.1
				c0.8,1.4,0.3,3.3-1.1,4.1c-0.9,0.5-2,0.5-3,0c-0.2,0.6-0.5,1.2-0.9,1.8c0.7,0.4,1.5,0.6,2.3,0.6c2.8,0,5-2.2,5-5
				C156.645,535.086,154.345,532.886,151.645,532.886z"/>
		</g>
	</g>
	<g class="st2">
		<path class="st3" d="M176.645,540.786c-0.2,0.4-0.4,0.7-0.6,0.9h5.2v0.8c-0.6,0.8-1.4,1.5-2.5,2.1c1.5,0.6,3.2,1,5.1,1.1l-0.2,0.9
			c-2.3-0.2-4.2-0.7-6-1.5c-1.6,0.7-3.7,1.3-6.3,1.8l-0.4-0.9c2.3-0.4,4.2-0.8,5.6-1.4c-0.7-0.4-1.4-0.9-2-1.4
			c-0.5,0.5-1.1,0.9-1.8,1.3l-0.6-0.8c1.4-0.8,2.5-1.8,3.4-3.1L176.645,540.786z M183.045,539.386v2.6h-1v-1.7h-9.3v1.7h-1v-2.6h5.1
			c-0.2-0.4-0.4-0.7-0.5-1l1.1-0.2c0.1,0.2,0.3,0.6,0.5,1.1h5.1L183.045,539.386L183.045,539.386z M181.545,546.786v4.4h-1v-0.6h-6
			v0.6h-1v-4.4H181.545L181.545,546.786z M174.545,549.686h6v-2h-6V549.686z M179.945,542.586h-4.7l0,0c0.7,0.6,1.5,1.1,2.4,1.6
			C178.545,543.686,179.345,543.186,179.945,542.586z"/>
		<path class="st3" d="M187.545,544.786c-0.1,2.5-0.7,4.7-2,6.5l-0.7-0.7c1.1-1.6,1.7-3.6,1.7-6.1v-4.4h4.6
			c-0.3-0.6-0.5-1.2-0.8-1.6l1.1-0.2c0.3,0.5,0.5,1.1,0.8,1.8h4.4v4.7H187.545z M195.545,540.986h-8v2.7h8V540.986z"/>
	</g>
</g>
<g>
	<g id="XMLID_10504_">
		<rect x="635.342" y="416.972" class="st17" width="106" height="186.3"/>
	</g>
	<g>
		<g class="st12">
			<rect x="647.41" y="451.139" class="st13" width="84" height="40"/>
		</g>
		<g class="st12">
			<rect x="647.42" y="501.139" class="st13" width="84" height="40"/>
		</g>
		<g class="st12">
			<rect x="647.264" y="551.139" class="st13" width="84" height="40"/>
		</g>
		<g>
			<rect x="645.42" y="449.139" class="st10" width="84" height="40"/>
		</g>
		<g>
			<rect x="645.264" y="499.213" class="st10" width="84" height="40"/>
		</g>
		<g>
			<rect x="645.264" y="549.139" class="st10" width="84" height="40"/>
		</g>
	</g>
	<g>
		<path class="st3" d="M685.373,463.353c1.745,1.83,3.775,3.281,6.09,4.354l-0.504,0.896c-2.315-1.119-4.298-2.566-5.95-4.34
			c-1.521,1.689-3.523,3.16-6.006,4.41l-0.49-0.882c2.455-1.186,4.499-2.665,6.132-4.438L685.373,463.353L685.373,463.353z
			 M681.104,467.778h7.813v0.966h-3.389v2.436h4.047v0.967h-4.047v2.59h5.32v0.994h-11.662v-0.994h5.307v-2.59h-4.061v-0.967h4.061
			v-2.436h-3.389L681.104,467.778L681.104,467.778z"/>
		<path class="st3" d="M697.188,464.362v10.317h-0.979v-0.938h-2.072v1.273h-0.979v-10.653L697.188,464.362L697.188,464.362z
			 M694.138,468.492h2.072v-3.206h-2.072V468.492z M694.138,472.803h2.072v-3.374h-2.072V472.803z M699.948,476.009l-0.211-0.979
			c1.083,0.037,1.857,0.056,2.324,0.056c0.411,0,0.616-0.22,0.616-0.658v-7.574h-4.844v-0.966h4.844v-2.464h1.022v2.464h1.722v0.966
			h-1.722v7.826c0,0.887-0.435,1.33-1.303,1.33L699.948,476.009L699.948,476.009z M699.206,468.534
			c0.887,1.344,1.554,2.492,2.002,3.443l-0.84,0.589c-0.514-1.093-1.177-2.264-1.988-3.515L699.206,468.534z"/>
	</g>
	<g>
		<path class="st3" d="M685.373,513.853c1.745,1.83,3.775,3.281,6.09,4.354l-0.504,0.896c-2.315-1.119-4.298-2.566-5.95-4.34
			c-1.521,1.689-3.523,3.16-6.006,4.41l-0.49-0.882c2.455-1.186,4.499-2.665,6.132-4.438L685.373,513.853L685.373,513.853z
			 M681.104,518.278h7.813v0.966h-3.389v2.436h4.047v0.967h-4.047v2.59h5.32v0.994h-11.662v-0.994h5.307v-2.59h-4.061v-0.967h4.061
			v-2.436h-3.389L681.104,518.278L681.104,518.278z"/>
		<path class="st3" d="M693.48,517.326c0.934,0.728,1.685,1.423,2.254,2.086l-0.714,0.714c-0.522-0.635-1.273-1.339-2.254-2.114
			L693.48,517.326z M695.803,521.385c-0.541,1.802-1.144,3.496-1.806,5.082l-0.938-0.406c0.719-1.604,1.335-3.275,1.849-5.012
			L695.803,521.385z M693.802,514.007c0.896,0.616,1.638,1.223,2.226,1.82l-0.714,0.714c-0.541-0.588-1.283-1.204-2.226-1.848
			L693.802,514.007z M698.422,520.293c-0.056,1.829-0.238,3.174-0.546,4.032c-0.336,0.887-0.901,1.656-1.694,2.31l-0.644-0.798
			c0.672-0.551,1.147-1.199,1.428-1.946c0.261-0.728,0.42-1.927,0.476-3.598H698.422z M696.63,518.809
			c0.084-0.027,0.154-0.056,0.21-0.084c0.522-0.326,1.204-1.185,2.044-2.575h-2.45v-0.91h3.906c-0.196-0.522-0.406-0.999-0.63-1.429
			l1.021-0.168c0.196,0.411,0.401,0.943,0.616,1.597h3.682v0.91h-5.109c-0.663,1.176-1.241,2.029-1.736,2.562
			c1.605-0.084,3.206-0.224,4.802-0.42c-0.41-0.541-0.728-0.952-0.951-1.232l0.825-0.489c0.943,1.129,1.666,2.133,2.17,3.01
			l-0.825,0.588c-0.075-0.131-0.29-0.485-0.645-1.064c-1.969,0.225-4.205,0.411-6.706,0.561L696.63,518.809z M699.709,520.307h1.021
			v6.063h-1.021V520.307z M703.405,526.509c-0.804,0-1.204-0.363-1.204-1.092v-5.11h0.966v4.929c0,0.205,0.089,0.321,0.266,0.35
			h0.616c0.252-0.028,0.392-0.191,0.42-0.49c0.056-0.336,0.084-0.877,0.084-1.624l0.882,0.336c0,1.232-0.084,1.988-0.252,2.269
			c-0.177,0.261-0.537,0.406-1.078,0.434h-0.7V526.509z"/>
	</g>
	<g>
		<path class="st3" d="M677.303,563.326h1.036v12.824h-1.036v-3.305h-4.27v-0.965h4.27v-2.226h-3.626v-0.98h3.626v-2.17h-3.947
			v-0.966h3.947V563.326z M680.579,563.326h1.036v2.212h3.934v0.966h-3.934v2.17h3.626v0.98h-3.626v2.226h4.158v0.965h-4.158v3.305
			h-1.036V563.326z"/>
		<path class="st3" d="M688.488,568.492c-0.393,0.579-0.803,1.11-1.232,1.596l-0.322-1.078c1.316-1.688,2.282-3.616,2.898-5.782
			l0.938,0.448c-0.336,1.111-0.765,2.17-1.287,3.178v9.324h-0.994L688.488,568.492L688.488,568.492z M699.409,569.108v2.323h-0.952
			v-1.47h-6.874v1.092h6.65v0.798c-0.485,0.868-1.214,1.624-2.185,2.268c1.008,0.467,2.249,0.863,3.725,1.189l-0.532,0.826
			c-1.643-0.401-3.006-0.892-4.088-1.47c-1.186,0.616-2.623,1.12-4.313,1.512l-0.364-0.882c1.475-0.308,2.726-0.7,3.752-1.176
			c-0.971-0.653-1.675-1.391-2.113-2.211h-0.546v-0.504h-0.925v-2.296L699.409,569.108L699.409,569.108z M698.443,568.24h-6.973
			v-0.826h6.048v-0.994h-5.642v-0.812h5.642v-0.994h-6.062v-0.813h6.986L698.443,568.24L698.443,568.24L698.443,568.24z
			 M693.081,571.908c0.485,0.663,1.167,1.246,2.044,1.75c0.85-0.504,1.521-1.087,2.016-1.75H693.081z"/>
		<path class="st3" d="M704.532,563.843l0.84-0.532c1.232,0.859,2.286,2.432,3.164,4.719c1.315,3.351,3.075,5.716,5.278,7.097
			l-0.631,0.813c-2.259-1.363-4.111-3.901-5.558-7.616c-0.121-0.336-0.196-0.532-0.224-0.588c-0.925,3.574-2.856,6.313-5.796,8.217
			l-0.603-0.854c2.996-1.96,4.942-4.806,5.838-8.54C706.207,565.402,705.438,564.496,704.532,563.843z"/>
	</g>
	<path id="XMLID_10495_" class="st11" d="M654.673,435.505l0.693-0.677l1.32,3.668l0.633-0.637l0.804-0.793h1.196v1h-0.782
		l-0.157,0.146l-1.326,1.326l-0.802,0.73l-1.296-3.632l-0.637,0.637l-0.745,0.793h-1.255v-1c0.277,0,0.554,0,0.831,0
		C653.657,436.546,654.673,435.505,654.673,435.505z M657.264,428.066h-11v12h4.627c-0.406-0.771-0.621-1.628-0.627-2.5
		c0-3.038,2.462-5.5,5.5-5.5c0.508,0.007,1.013,0.086,1.5,0.233V428.066z M655.764,443.066c-1.632-0.005-3.176-0.738-4.21-2h-6.29
		v-14h13v5.627c2.7,1.372,3.777,4.673,2.405,7.373C659.73,441.912,657.833,443.072,655.764,443.066z M658.251,433.893
		L658.251,433.893c-0.312-0.202-0.648-0.365-1-0.484l0,0c-2.334-0.835-4.903,0.38-5.737,2.714c-0.479,1.34-0.295,2.828,0.497,4.01
		c0.065,0.1,0.145,0.179,0.217,0.269c0.072,0.09,0.15,0.193,0.234,0.283c0.153,0.16,0.317,0.309,0.489,0.448
		c1.94,1.545,4.765,1.224,6.309-0.715c1.545-1.94,1.224-4.765-0.715-6.309C658.45,434.033,658.352,433.961,658.251,433.893z
		 M647.264,430.066h7v1h-7V430.066z M651.264,434.066h-4v-1h4V434.066z M649.264,437.066h-2v-1h2V437.066z"/>
	<g>
		<path class="st11" d="M666.182,431.301c0.934,0.728,1.685,1.423,2.254,2.086l-0.714,0.714c-0.522-0.635-1.273-1.34-2.254-2.114
			L666.182,431.301z M668.506,435.36c-0.541,1.802-1.144,3.495-1.806,5.082l-0.938-0.406c0.719-1.604,1.335-3.275,1.849-5.012
			L668.506,435.36z M666.504,427.982c0.896,0.616,1.638,1.223,2.226,1.82l-0.714,0.714c-0.541-0.588-1.283-1.204-2.226-1.849
			L666.504,427.982z M671.124,434.269c-0.056,1.829-0.238,3.173-0.546,4.032c-0.336,0.887-0.901,1.656-1.694,2.31l-0.644-0.798
			c0.672-0.551,1.147-1.199,1.428-1.946c0.261-0.728,0.42-1.927,0.476-3.598H671.124z M669.332,432.784
			c0.084-0.027,0.154-0.056,0.21-0.084c0.522-0.326,1.204-1.185,2.044-2.576h-2.45v-0.909h3.906
			c-0.196-0.523-0.406-0.999-0.63-1.429l1.021-0.168c0.196,0.411,0.401,0.943,0.616,1.597h3.682v0.909h-5.109
			c-0.663,1.177-1.241,2.03-1.736,2.563c1.605-0.084,3.206-0.225,4.802-0.42c-0.41-0.541-0.728-0.952-0.951-1.232l0.825-0.49
			c0.943,1.13,1.666,2.133,2.17,3.011l-0.825,0.588c-0.075-0.131-0.29-0.485-0.645-1.064c-1.969,0.225-4.205,0.411-6.706,0.561
			L669.332,432.784z M672.412,434.282h1.021v6.063h-1.021V434.282z M676.108,440.484c-0.804,0-1.204-0.364-1.204-1.092v-5.11h0.966
			v4.928c0,0.206,0.089,0.322,0.266,0.351h0.616c0.252-0.028,0.392-0.191,0.42-0.49c0.056-0.336,0.084-0.877,0.084-1.624
			l0.882,0.336c0,1.232-0.084,1.988-0.252,2.269c-0.177,0.261-0.537,0.405-1.078,0.434h-0.7V440.484z"/>
		<path class="st11" d="M689.128,428.347v12.208h-1.021v-1.064h-6.622v1.078h-1.008v-12.222L689.128,428.347L689.128,428.347z
			 M681.484,433.316h6.622v-3.99h-6.622V433.316z M681.484,438.511h6.622v-4.215h-6.622V438.511z"/>
		<path class="st11" d="M693.58,435.599c-0.317,1.624-0.77,3.02-1.357,4.186l-0.868-0.532c0.569-1.157,0.979-2.444,1.231-3.863
			L693.58,435.599z M697.095,427.759h1.035v1.834h5.46v0.979h-5.46v2.156h4.551v0.966h-10.108v-0.966h4.522v-2.156h-5.475v-0.979
			h5.475V427.759z M696.017,440.33c-0.915,0-1.372-0.504-1.372-1.512v-3.878h1.036v3.682c0,0.485,0.219,0.729,0.657,0.729h3.038
			c0.317,0,0.546-0.099,0.687-0.294c0.196-0.225,0.322-0.915,0.378-2.072l0.952,0.322c-0.112,1.446-0.313,2.319-0.603,2.618
			c-0.252,0.271-0.662,0.405-1.231,0.405L696.017,440.33L696.017,440.33z M697.906,434.633c0.485,0.858,0.905,1.773,1.26,2.743
			l-0.924,0.406c-0.42-1.129-0.85-2.072-1.288-2.828L697.906,434.633z M702.191,435.024c0.709,1.297,1.302,2.608,1.778,3.934
			l-0.925,0.406c-0.541-1.503-1.139-2.847-1.792-4.032L702.191,435.024z"/>
		<path class="st11" d="M704.962,434.311h5.096v-1.344h1.008v1.344h5.11v0.979h-4.103c0.952,1.429,2.563,2.702,4.83,3.822
			l-0.714,0.896c-2.333-1.391-3.98-2.964-4.942-4.719h-0.182v5.265h-1.008v-5.265h-0.14c-1.027,1.96-2.726,3.565-5.097,4.816
			l-0.56-0.938c2.193-0.998,3.794-2.291,4.802-3.878h-4.102v-0.978H704.962z M715.98,428.71c-2.734,0.569-6.3,0.854-10.696,0.854
			l-0.308-0.952c4.228,0,7.732-0.252,10.514-0.756L715.98,428.71z M706.655,430.25c0.514,0.784,0.962,1.615,1.345,2.492
			l-0.925,0.406c-0.41-0.952-0.872-1.815-1.386-2.59L706.655,430.25z M710.478,429.929c0.448,0.774,0.831,1.601,1.148,2.478
			l-0.98,0.238c-0.262-0.793-0.63-1.596-1.106-2.408L710.478,429.929z M715.812,430.124c-0.616,1.204-1.33,2.24-2.142,3.108
			l-0.799-0.574c0.784-0.84,1.456-1.834,2.017-2.981L715.812,430.124z"/>
		<path class="st11" d="M718.85,431.273c-0.317,0.373-0.709,0.774-1.176,1.204l-0.574-0.784c1.241-1.11,2.17-2.427,2.786-3.948
			l0.938,0.238c-0.111,0.289-0.271,0.653-0.476,1.092h3.024c-0.233-0.504-0.439-0.905-0.616-1.204l1.036-0.168
			c0.168,0.355,0.354,0.813,0.56,1.372h4.522v0.84h-4.452v0.952h3.934v0.784h-3.934v0.924h3.934v0.784h-3.934v0.994h4.718v0.854
			h-10.29V431.273L718.85,431.273z M717.478,437.223v-0.91h5.572v-0.729h1.008v0.729h5.488v0.91h-4.242
			c0.961,0.905,2.427,1.624,4.396,2.155l-0.435,0.883c-2.314-0.784-3.962-1.797-4.942-3.038h-0.266v3.416h-1.008v-3.416h-0.28
			c-0.887,1.194-2.52,2.226-4.899,3.094l-0.532-0.868c2.146-0.653,3.635-1.396,4.466-2.226L717.478,437.223L717.478,437.223z
			 M723.428,430.866v-0.952h-3.57l-0.069,0.112v0.84H723.428z M723.428,432.574v-0.924h-3.64v0.924H723.428z M723.428,434.353
			v-0.994h-3.64v0.994H723.428z"/>
	</g>
</g>
<g>
	<rect x="252.58" y="521.786" class="st9" width="108" height="50"/>
	<rect x="250.58" y="519.786" class="st10" width="108" height="50"/>
	<g transform="translate(20 9)">
		<g>
			<title  xmlns="http://www.w3.org/2000/svg">Product Icons【32】</title>
			<g id="_编组_">
				<path id="_路径_" class="st11" d="M257.58,520.786c-8.284-0.009-15.007,6.7-15.016,14.984s6.7,15.007,14.984,15.016
					c7.517,0.008,13.88-5.55,14.882-13h-2c-1.105,7.094-7.751,11.95-14.845,10.845c-7.094-1.105-11.95-7.751-10.845-14.845
					s7.751-11.95,14.845-10.845c5.59,0.87,9.975,5.256,10.845,10.845h2C271.429,526.348,265.085,520.794,257.58,520.786z"/>
			</g>
			<g id="_编组_2">
				<path class="st11" d="M262.58,527.786h-4v2h1v2h-4v-2h1v-2h-4v2h1v2h-1.71l-2.29,8l0,0v4h16v-4l0,0l-2.29-8h-1.71v-2h1V527.786z
					 M252.52,537.786l1.14-4h7.86l1.14,4H252.52z M257.58,541.786v-2h6v2H257.58z M254.58,541.786v-2h1v2H254.58z M251.58,541.786
					v-2h1v2H251.58z"/>
			</g>
		</g>
	</g>
	<g transform="translate(0 0)">
		<g class="st2">
			<path class="st18" d="M302.259,540.97l1.032-0.003l4.872,6.956h0.036l-0.023-6.973l0.984-0.003l0.029,8.568l-1.008,0.003
				l-4.896-7.027h-0.036l0.023,7.044l-0.984,0.003L302.259,540.97z"/>
			<path class="st18" d="M313.395,540.933l1.14-0.004l3.4,8.558l-1.068,0.003l-0.92-2.396l-3.936,0.013l-0.903,2.403l-1.056,0.004
				L313.395,540.933z M312.321,546.277l3.312-0.011l-1.634-4.279h-0.048L312.321,546.277z"/>
			<path class="st18" d="M318.111,540.917l7.02-0.023l0.003,0.853l-3.024,0.01l0.026,7.716l-0.972,0.004l-0.026-7.716l-3.024,0.01
				L318.111,540.917z"/>
			<path class="st18" d="M333.875,550.56l-0.231-0.839l1.152,0.032c0.336-0.001,0.503-0.166,0.502-0.494l-0.028-8.316l-7.872,0.026
				l0.032,9.66l-0.852,0.003l-0.035-10.487l9.576-0.032l0.031,9.336c0.002,0.735-0.352,1.105-1.064,1.107L333.875,550.56z
				 M331.01,547.918c-0.345-0.543-0.728-1.116-1.145-1.724c-0.42,1.169-0.941,2.179-1.563,3.029l-0.554-0.671
				c0.621-0.89,1.133-1.943,1.537-3.16c-0.555-0.734-1.121-1.433-1.699-2.095l0.538-0.518c0.482,0.502,0.959,1.069,1.434,1.699
				c0.229-0.865,0.414-1.77,0.555-2.714l0.792,0.141c-0.188,1.233-0.436,2.362-0.745,3.387c0.53,0.719,1.005,1.401,1.422,2.048
				L331.01,547.918z M334.528,548.459c-0.346-0.591-0.752-1.253-1.218-1.988c-0.476,1.178-1.037,2.188-1.682,3.029l-0.554-0.657
				c0.676-0.922,1.233-1.992,1.669-3.21c-0.595-0.87-1.146-1.612-1.651-2.227l0.538-0.518c0.49,0.55,0.964,1.153,1.422,1.807
				c0.245-0.833,0.454-1.802,0.626-2.905l0.816,0.141c-0.211,1.329-0.496,2.534-0.852,3.615c0.506,0.766,0.997,1.545,1.472,2.335
				L334.528,548.459z"/>
			<path class="st18" d="M346.391,539.755c-0.285,0.873-0.643,1.65-1.072,2.332l2.472-0.008l0.003,0.84l-4.008,0.013l0.001,0.563
				c-0.021,0.664-0.076,1.222-0.162,1.669l4.872-0.017l0.003,0.84l-4.368,0.015c0.598,1.623,2.153,2.878,4.668,3.765l-0.501,0.807
				c-2.636-1.056-4.28-2.498-4.935-4.328c-0.23,0.697-0.532,1.298-0.906,1.803c-0.821,1.067-2.15,1.896-3.988,2.486L338,549.78
				c1.838-0.599,3.115-1.379,3.832-2.341c0.294-0.441,0.521-0.918,0.68-1.431l-4.308,0.014l-0.003-0.84l4.524-0.015
				c0.11-0.527,0.168-1.085,0.174-1.669l-0.001-0.563l-4.02,0.014l-0.003-0.84l5.484-0.019c0.438-0.674,0.838-1.527,1.203-2.561
				L346.391,539.755z M341.051,539.653c0.498,0.646,0.956,1.324,1.375,2.035l-0.778,0.398c-0.443-0.782-0.905-1.465-1.387-2.048
				L341.051,539.653z"/>
		</g>
	</g>
</g>
</svg>
