<?xml version="1.0" encoding="utf-8"?>
<!-- Generator: Adobe Illustrator 23.0.1, SVG Export Plug-In . SVG Version: 6.00 Build 0)  -->
<svg version="1.1" id="svgwrapper_svg" xmlns="http://www.w3.org/2000/svg" xmlns:xlink="http://www.w3.org/1999/xlink" x="0px"
	 y="0px" width="830px" height="690px" viewBox="0 0 830 690" style="enable-background:new 0 0 830 690;" xml:space="preserve">
<path style="display:none;fill:none;stroke:#999999;" d="M720,121l-190,44"/>
<g>
	<path style="fill:#BABABA;" d="M815,163h-5v1h4v5h1V163L815,163z M805,163h-5v1h5V163L805,163z M795,163h-5v1h5V163L795,163z
		 M785,163h-5v1h5V163L785,163z M775,163h-5v1h5V163L775,163z M765,163h-5v1h5V163L765,163z M755,163h-5v1h5V163L755,163z M745,163
		h-5v1h5V163L745,163z M735,163h-5v1h5V163L735,163z M725,163h-5v1h5V163L725,163z M715,163h-5v1h5V163L715,163z M705,163h-5v1h5
		V163L705,163z M695,163h-5v1h5V163L695,163z M685,163h-5v1h5V163L685,163z M675,163h-5v1h5V163L675,163z M665,163h-5v1h5V163
		L665,163z M655,163h-5v1h5V163L655,163z M645,163h-5v1h5V163L645,163z M635,163h-5v1h5V163L635,163z M625,163h-5v1h5V163L625,163z
		 M615,163h-5v1h5V163L615,163z M605,163h-5v1h5V163L605,163z M595,163h-5v1h5V163L595,163z M585,163h-5v1h5V163L585,163z M575,163
		h-5v1h5V163L575,163z M565,163h-5v1h5V163L565,163z M555,163h-5v1h5V163L555,163z M545,163h-5v1h5V163L545,163z M535,163h-5v1h5
		V163L535,163z M525,163h-5v1h5V163L525,163z M515,163h-5v1h5V163L515,163z M505,163h-5v1h5V163L505,163z M495,163h-5v1h5V163
		L495,163z M485,163h-5v1h5V163L485,163z M475,163h-5v1h5V163L475,163z M465,163h-5v1h5V163L465,163z M455,163h-5v1h5V163L455,163z
		 M445,163h-5v1h5V163L445,163z M435,163h-5v1h5V163L435,163z M425,163h-5v1h5V163L425,163z M415,163h-5v1h5V163L415,163z M405,163
		h-5v1h5V163L405,163z M395,163h-5v1h5V163L395,163z M385,163h-5v1h5V163L385,163z M375,163h-5v1h5V163L375,163z M365,163h-5v1h5
		V163L365,163z M355,163h-5v1h5V163L355,163z M345,163h-5v1h5V163L345,163z M335,163h-5v1h5V163L335,163z M325,163h-5v1h5V163
		L325,163z M315,163h-5v1h5V163L315,163z M305,163h-5v1h5V163L305,163z M295,163h-5v1h5V163L295,163z M285,163h-5v1h5V163L285,163z
		 M275,163h-5v1h5V163L275,163z M265,163h-5v1h5V163L265,163z M255,163h-5v1h5V163L255,163z M245,163h-5v1h5V163L245,163z M235,163
		h-5v1h5V163L235,163z M225,163h-5v1h5V163L225,163z M215,163h-5v1h5V163L215,163z M205,163h-5v1h5V163L205,163z M195,163h-5v1h5
		V163L195,163z M185,163h-5v1h5V163L185,163z M175,163h-5v1h5V163L175,163z M165,163h-5v1h5V163L165,163z M155,163h-5v1h5V163
		L155,163z M145,163h-5v1h5V163L145,163z M135,163h-5v1h5V163L135,163z M125,163h-5v1h5V163L125,163z M115,163h-5v1h5V163L115,163z
		 M105,163h-5v1h5V163L105,163z M95,163h-5v1h5V163L95,163z M85,163h-5v1h5V163L85,163z M75,163h-5v1h5V163L75,163z M65,163h-5v1h5
		V163L65,163z M55,163h-5v1h5V163L55,163z M45,163h-5v1h5V163L45,163z M35,163h-5v1h5V163L35,163z M25,163h-5v1h5V163L25,163z
		 M16,163h-1v5h1V163L16,163z M16,173h-1v5h1V173L16,173z M16,183h-1v5h1V183L16,183z M16,193h-1v5h1V193L16,193z M16,203h-1v5h1
		V203L16,203z M16,213h-1v5h1V213L16,213z M16,223h-1v5h1V223L16,223z M16,233h-1v5h1V233L16,233z M16,243h-1v5h1V243L16,243z
		 M16,253h-1v5h1V253L16,253z M16,263h-1v5h1V263L16,263z M16,273h-1v5h1V273L16,273z M16,283h-1v5h1V283L16,283z M16,293h-1v5h1
		V293L16,293z M16,303h-1v5h1V303L16,303z M16,313h-1v5h1V313L16,313z M16,323h-1v5h1V323L16,323z M16,333h-1v5h1V333L16,333z
		 M16,343h-1v5h1V343L16,343z M16,353h-1v5h1V353L16,353z M16,363h-1v5h1V363L16,363z M16,373h-1v5h1V373L16,373z M16,383h-1v5h1
		V383L16,383z M16,393h-1v5h1V393L16,393z M16,403h-1v5h1V403L16,403z M16,413h-1v5h1V413L16,413z M16,423h-1v5h1V423L16,423z
		 M16,433h-1v5h1V433L16,433z M16,443h-1v5h1V443L16,443z M16,453h-1v5h1V453L16,453z M16,463h-1v5h1V463L16,463z M16,473h-1v5h1
		V473L16,473z M16,483h-1v5h1V483L16,483z M16,493h-1v5h1V493L16,493z M16,503h-1v5h1V503L16,503z M16,513h-1v5h1V513L16,513z
		 M16,523h-1v3h1l0,0l0,0l0,0l0,0c0.5,0,1,0,1,0v-1h-1V523L16,523z M27,525h-5v1h5V525L27,525z M37,525h-5v1h5V525L37,525z M47,525
		h-5v1h5V525L47,525z M57,525h-5v1h5V525L57,525z M67,525h-5v1h5V525L67,525z M77,525h-5v1h5V525L77,525z M87,525h-5v1h5V525L87,525
		z M97,525h-5v1h5V525L97,525z M107,525h-5v1h5V525L107,525z M117,525h-5v1h5V525L117,525z M127,525h-5v1h5V525L127,525z M137,525
		h-5v1h5V525L137,525z M147,525h-5v1h5V525L147,525z M157,525h-5v1h5V525L157,525z M167,525h-5v1h5V525L167,525z M177,525h-5v1h5
		V525L177,525z M187,525h-5v1h5V525L187,525z M197,525h-5v1h5V525L197,525z M207,525h-5v1h5V525L207,525z M217,525h-5v1h5V525
		L217,525z M227,525h-5v1h5V525L227,525z M237,525h-5v1h5V525L237,525z M247,525h-5v1h5V525L247,525z M257,525h-5v1h5V525L257,525z
		 M267,525h-5v1h5V525L267,525z M277,525h-5v1h5V525L277,525z M287,525h-5v1h5V525L287,525z M297,525h-5v1h5V525L297,525z M307,525
		h-5v1h5V525L307,525z M317,525h-5v1h5V525L317,525z M327,525h-5v1h5V525L327,525z M337,525h-5v1h5V525L337,525z M347,525h-5v1h5
		V525L347,525z M357,525h-5v1h5V525L357,525z M367,525h-5v1h5V525L367,525z M377,525h-5v1h5V525L377,525z M387,525h-5v1h5V525
		L387,525z M397,525h-5v1h5V525L397,525z M407,525h-5v1h5V525L407,525z M417,525h-5v1h5V525L417,525z M427,525h-5v1h5V525L427,525z
		 M437,525h-5v1h5V525L437,525z M447,525h-5v1h5V525L447,525z M457,525h-5v1h5V525L457,525z M467,525h-5v1h5V525L467,525z M477,525
		h-5v1h5V525L477,525z M487,525h-5v1h5V525L487,525z M497,525h-5v1h5V525L497,525z M507,525h-5v1h5V525L507,525z M517,525h-5v1h5
		V525L517,525z M527,525h-5v1h5V525L527,525z M537,525h-5v1h5V525L537,525z M547,525h-5v1h5V525L547,525z M557,525h-5v1h5V525
		L557,525z M567,525h-5v1h5V525L567,525z M577,525h-5v1h5V525L577,525z M587,525h-5v1h5V525L587,525z M597,525h-5v1h5V525L597,525z
		 M607,525h-5v1h5V525L607,525z M617,525h-5v1h5V525L617,525z M627,525h-5v1h5V525L627,525z M637,525h-5v1h5V525L637,525z M647,525
		h-5v1h5V525L647,525z M657,525h-5v1h5V525L657,525z M667,525h-5v1h5V525L667,525z M677,525h-5v1h5V525L677,525z M687,525h-5v1h5
		V525L687,525z M697,525h-5v1h5V525L697,525z M707,525h-5v1h5V525L707,525z M717,525h-5v1h5V525L717,525z M727,525h-5v1h5V525
		L727,525z M737,525h-5v1h5V525L737,525z M747,525h-5v1h5V525L747,525z M757,525h-5v1h5V525L757,525z M767,525h-5v1h5V525L767,525z
		 M777,525h-5v1h5V525L777,525z M787,525h-5v1h5V525L787,525z M797,525h-5v1h5V525L797,525z M807,525h-5v1h5V525L807,525z M815,524
		h-1v1h-2v1h3V524L815,524z M815,514h-1v5h1V514L815,514z M815,504h-1v5h1V504L815,504z M815,494h-1v5h1V494L815,494z M815,484h-1v5
		h1V484L815,484z M815,474h-1v5h1V474L815,474z M815,464h-1v5h1V464L815,464z M815,454h-1v5h1V454L815,454z M815,444h-1v5h1V444
		L815,444z M815,434h-1v5h1V434L815,434z M815,424h-1v5h1V424L815,424z M815,414h-1v5h1V414L815,414z M815,404h-1v5h1V404L815,404z
		 M815,394h-1v5h1V394L815,394z M815,384h-1v5h1V384L815,384z M815,374h-1v5h1V374L815,374z M815,364h-1v5h1V364L815,364z M815,354
		h-1v5h1V354L815,354z M815,344h-1v5h1V344L815,344z M815,334h-1v5h1V334L815,334z M815,324h-1v5h1V324L815,324z M815,314h-1v5h1
		V314L815,314z M815,304h-1v5h1V304L815,304z M815,294h-1v5h1V294L815,294z M815,284h-1v5h1V284L815,284z M815,274h-1v5h1V274
		L815,274z M815,264h-1v5h1V264L815,264z M815,254h-1v5h1V254L815,254z M815,244h-1v5h1V244L815,244z M815,234h-1v5h1V234L815,234z
		 M815,224h-1v5h1V224L815,224z M815,214h-1v5h1V214L815,214z M815,204h-1v5h1V204L815,204z M815,194h-1v5h1V194L815,194z M815,184
		h-1v5h1V184L815,184z M815,174h-1v5h1V174L815,174z"/>
</g>
<g id="maingroup_38_" transform="translate(0,0)">
	<g>
		<g id="Rects1_52_" transform="translate(220,163)">
			<g transform="translate(20 9)">
				<g style="enable-background:new    ;">
					<path style="fill:#444444;" d="M-203.5,6v1h-3.5v9h-1.1V7h-3.5V6H-203.5z"/>
					<path style="fill:#444444;" d="M-201,6v10h-1.1V6H-201z"/>
					<path style="fill:#444444;" d="M-198.7,17.5l-0.7-0.6c0.5-1,0.8-2.4,0.8-4V8.6c-0.1,0.1-0.1,0.1-0.1,0.2l-0.6-0.7
						c0.8-0.9,1.5-2.1,2.1-3.5l0.9,0.2c-0.1,0.3-0.2,0.6-0.4,0.9h2.5v0.7c-0.3,0.6-0.6,1.1-0.9,1.6h1.7v8.4c0,0.7-0.4,1-1,1h-0.8
						l-0.2-0.8c0.3,0,0.5,0.1,0.7,0.1c0.3,0,0.5-0.2,0.5-0.5V14h-1.3v3.2h-0.8V14h-1.3C-197.8,15.4-198.2,16.6-198.7,17.5z
						 M-195.2,6.4h-1.8c-0.3,0.5-0.6,1-0.9,1.5h1.8C-195.8,7.5-195.5,7-195.2,6.4z M-197.7,12.9c0,0.1,0,0.2,0,0.3h1.3v-1.8h-1.3
						V12.9z M-197.7,8.8v1.8h1.3V8.8H-197.7z M-194.3,8.8h-1.3v1.8h1.3V8.8z M-194.3,11.3h-1.3v1.8h1.3V11.3z M-192.5,13.4l-0.6-0.7
						c0.6-0.7,1-1.6,1.2-2.7l0.8,0.2c-0.1,0.4-0.2,0.7-0.3,1h1.3V9.9h1v1.3h2.1v0.9h-2.1v1.7h2.4v0.9h-2.4v2.7h-1v-2.7h-3.1v-0.9
						h3.1v-1.7h-1.7C-191.9,12.6-192.2,13-192.5,13.4z M-192.9,6.3V5.4h5.8c0,1.9-0.1,3-0.4,3.4c-0.3,0.4-0.7,0.6-1.3,0.6
						c-0.3,0-0.7,0-1.2-0.1l-0.2-0.8c0.5,0,0.9,0.1,1.2,0.1c0.4,0,0.6-0.1,0.7-0.4c0.1-0.2,0.1-0.9,0.2-1.9h-2.1
						c-0.1,0.6-0.4,1.2-0.6,1.7c-0.4,0.6-0.9,1.1-1.6,1.6l-0.6-0.8c0.6-0.4,1.1-0.8,1.4-1.3c0.2-0.4,0.4-0.8,0.5-1.2H-192.9z"/>
					<path style="fill:#444444;" d="M-182,11.2c-0.7,2.1-1.4,4-2.3,5.8l-1-0.4c0.9-1.9,1.7-3.8,2.3-5.8L-182,11.2z M-182.2,8.2
						l-0.8,0.6c-0.5-1-1.2-2.1-2.2-3.3l0.8-0.5C-183.4,6.3-182.7,7.3-182.2,8.2z M-178.1,6.7V4.6h1v2.1h3.2v4.1h1.2v1h-4.2
						c0.9,2,2.4,3.6,4.4,4.8l-0.7,0.8c-2-1.4-3.5-3.1-4.4-5.3c-0.7,2.4-2.1,4.2-4.3,5.3l-0.6-0.8c2.1-1,3.4-2.6,4-4.8h-3v-1h3.2
						c0.1-0.6,0.2-1.3,0.2-2V7.6h-2.8v-1H-178.1z M-177.1,8.6c0,0.8-0.1,1.5-0.2,2.2h2.4V7.6h-2.2V8.6z"/>
					<path style="fill:#444444;" d="M-165,6.6c-0.3-0.6-0.6-1.2-1-1.8l1-0.3c0.4,0.6,0.8,1.3,1.1,2.1h5.2v1h-7.4l-0.1,2.5v0h5.8
						c0,2.8-0.1,4.6-0.3,5.3c-0.3,1.2-1,1.8-2.1,1.8c-0.4,0-1,0-1.6-0.1l-0.3-0.9c0.7,0,1.3,0,1.8,0c0.7,0,1.1-0.5,1.3-1.5
						c0.1-0.6,0.1-1.9,0.2-3.8h-4.9c-0.2,1.1-0.5,2.2-1,3.1c-0.7,1.2-1.6,2.3-2.9,3.3l-0.7-0.7c1.5-1.3,2.5-2.4,3-3.5
						c0.5-1.1,0.7-2.3,0.8-3.6c0-0.9,0.1-1.6,0.1-2h-3.9v-1H-165z"/>
					<path style="fill:#444444;" d="M-151.4,12.9v-1.1h1v1.1h5.5v0.9h-4.6c1,1,2.6,1.7,4.7,2.3l-0.4,0.9c-2.4-0.8-4.2-1.8-5.2-3.1
						v3.5h-1v-3.6c-0.9,1.3-2.6,2.4-5.1,3.3l-0.6-0.9c2.3-0.7,3.9-1.5,4.8-2.4h-4.6v-0.9H-151.4z M-151,7.1
						c-0.3,0.3-0.5,0.6-0.7,0.9h6.3v0.8h-2.4c-0.5,0.7-1,1.2-1.6,1.6c1.2,0.3,2.5,0.7,3.8,1.1l-0.6,0.8c-1.4-0.5-2.8-0.9-4.2-1.3
						c-1.5,0.7-3.4,1.1-5.8,1.1l-0.5-0.8c2.1,0,3.8-0.2,5-0.6c-1-0.3-1.9-0.5-2.9-0.6c0.4-0.4,0.7-0.8,1.1-1.2h-3V8h3.7
						c0.3-0.4,0.6-0.8,0.9-1.2L-151,7.1z M-145.3,7.6h-1V6.5h-9.4v1.1h-1v-2h5.2c-0.2-0.4-0.4-0.7-0.6-1l1.1-0.2
						c0.2,0.3,0.4,0.7,0.5,1.2h5.1V7.6z M-148.8,8.8h-3.6c-0.3,0.3-0.5,0.6-0.7,0.8c0.9,0.1,1.7,0.3,2.6,0.5
						C-149.8,9.8-149.2,9.3-148.8,8.8z"/>
				</g>
			</g>
		</g>
	</g>
</g>
<path style="fill:#EAEBEC;" d="M15,0h800v103H15V0"/>
<g id="maingroup_37_" transform="translate(0,0)">
	<g id="Rects1_37_" transform="translate(220,163)">
		<g transform="translate(20 9)">
			<g style="enable-background:new    ;">
				<path style="fill:#444444;" d="M-208.8-151.5c0.3-0.6,0.6-1.3,0.8-2.1l0.9,0.4c-0.3,0.9-0.6,1.7-1,2.4c0.6,0.6,1.1,1.2,1.7,1.8
					l-0.7,0.8c-0.5-0.6-1-1.1-1.5-1.7c-0.9,1.3-2,2.4-3.3,3.1l-0.6-0.9c1.3-0.7,2.4-1.7,3.2-3c-0.6-0.6-1.2-1.1-1.8-1.6l0.6-0.7
					C-209.9-152.5-209.3-152-208.8-151.5z M-209.5-155.9c-0.6,1.3-1.3,2.4-2.1,3.3l-0.8-0.6c0.8-0.9,1.5-1.9,2-3.2L-209.5-155.9z
					 M-208.4-158h2.6v1h-6.5v-1h2.9c-0.2-0.5-0.4-1-0.7-1.4l1.1-0.2C-208.8-159.1-208.6-158.5-208.4-158z M-208.6-155.8l0.6-0.6
					c0.6,0.4,1.2,1.1,1.9,2l-0.7,0.7C-207.4-154.6-208-155.2-208.6-155.8z M-204.8-153.9c-0.3,0.5-0.5,1-0.8,1.4l-0.6-0.8
					c1-1.5,1.7-3.6,2-6.2l1,0.2c-0.1,0.8-0.3,1.5-0.4,2.2h3.9v1h-1.2c-0.1,2.2-0.6,4.1-1.5,5.7c0.8,1.3,1.8,2.3,2.9,3l-0.6,0.9
					c-1.1-0.7-2.1-1.7-2.9-3c-0.9,1.2-2,2.2-3.4,3l-0.6-0.9c1.5-0.8,2.6-1.8,3.5-3C-204-151.5-204.4-152.7-204.8-153.9z
					 M-204.2-155.2c0.3,1.4,0.8,2.7,1.3,3.7c0.7-1.4,1.1-2.9,1.1-4.7h-2.1C-204-155.9-204.1-155.5-204.2-155.2z"/>
				<path style="fill:#444444;" d="M-187.4-158.9v5.4h-4.1v1.3h5.6v1h-4.7c1,1.3,2.7,2.4,5,3.4l-0.7,0.9c-2.4-1.3-4.1-2.7-5.1-4.3
					h-0.1v4.6h-1v-4.6h-0.1c-1.1,1.7-2.8,3.1-5.2,4.2l-0.6-0.9c2.3-0.9,3.9-2,5-3.3h-4.7v-1h5.6v-1.3h-4.2v-5.4H-187.4z
					 M-192.5-156.6v-1.4h-3.2v1.4H-192.5z M-192.5-155.7h-3.2v1.4h3.2V-155.7z M-191.5-156.6h3.1v-1.4h-3.1V-156.6z M-188.4-155.7
					h-3.1v1.4h3.1V-155.7z"/>
			</g>
		</g>
	</g>
</g>
<g>
	<g>
		<rect x="29" y="41" style="opacity:0.6;fill:#BBBBBB;enable-background:new    ;" width="214" height="50"/>
		<g>
			<rect x="27.5" y="39.5" style="fill:#FFFFFF;" width="213" height="49"/>
			<path style="fill:#E5E5E5;" d="M240,40v48H28V40H240 M241,39H27v50h214V39L241,39z"/>
		</g>
	</g>
	<g id="maingroup_36_" transform="translate(0,0)">
		<g id="Rects1_36_" transform="translate(220,163)">
			<g transform="translate(20 9)">
				<g style="enable-background:new    ;">
					<path style="fill:#444444;" d="M-139.8-110.7c0.5-0.5,1-1.2,1.4-1.9h-3.5v-0.9h4.6v0.8c-0.6,1-1.2,1.9-1.9,2.7
						c0.3,0.3,0.5,0.6,0.7,0.8h1.6v0.6c-0.2,1.1-0.5,1.9-0.8,2.6l-0.8-0.3c0.3-0.5,0.5-1.2,0.7-1.9h-1.5v5.9c0,0.7-0.4,1.1-1.1,1.1
						h-1.3l-0.2-0.9c0.4,0,0.8,0.1,1.2,0.1c0.3,0,0.4-0.2,0.4-0.5v-5.6h-2v-0.9h2.7c-0.5-0.6-1.2-1.3-2-2.1l0.7-0.5
						C-140.5-111.3-140.2-111-139.8-110.7z M-132.6-109.3v2.5c0,1.5-0.4,2.7-1,3.6c-0.6,0.8-1.6,1.5-3,1.9l-0.5-0.9
						c1.3-0.4,2.3-1,2.8-1.7c0.5-0.8,0.7-1.7,0.8-2.9v-2.5H-132.6z M-129.6-113.5v1h-2.8c-0.1,0.5-0.2,1.1-0.3,1.6h2.6v6.6h-1v-5.7
						h-4v5.7h-1v-6.6h2.3c0.1-0.5,0.2-1,0.3-1.6h-3.1v-1H-129.6z M-129.5-101.9l-0.7,0.7c-0.6-0.8-1.5-1.6-2.5-2.5l0.6-0.6
						C-131.1-103.5-130.2-102.7-129.5-101.9z"/>
					<path style="fill:#444444;" d="M-125.8-108.3l-0.7,0.7c-0.5-0.6-1.1-1.3-1.9-2l0.7-0.6C-127-109.6-126.3-109-125.8-108.3z
						 M-125.6-106.2c-0.5,1.7-1.1,3.3-1.8,4.8l-0.9-0.4c0.7-1.6,1.3-3.2,1.8-4.8L-125.6-106.2z M-125.5-111.9l-0.7,0.7
						c-0.5-0.6-1.1-1.2-2-1.9l0.7-0.7C-126.7-113.1-126-112.5-125.5-111.9z M-122.2-111.5v4.4c0,1.6-0.3,2.9-0.8,3.8
						c-0.5,0.9-1.2,1.6-2.3,2.1l-0.5-0.8c1-0.5,1.7-1.1,2.1-1.9c0.4-0.8,0.6-1.9,0.6-3.2v-4.4H-122.2z M-120.3-104.8h-0.9v-7.7h-2.9
						v7.8h-0.9v-8.6h4.7V-104.8z M-119.6-101.9l-0.7,0.7c-0.5-0.7-1.2-1.5-2.1-2.4l0.6-0.6C-120.9-103.4-120.2-102.6-119.6-101.9z
						 M-118.3-112.8v8.7h-0.9v-8.7H-118.3z M-118.8-101.3l-0.2-0.9c0.5,0,1,0.1,1.4,0.1c0.3,0,0.5-0.2,0.5-0.6V-114h1v11.5
						c0,0.8-0.4,1.2-1.1,1.2H-118.8z"/>
					<path style="fill:#444444;" d="M-113.6-101.3l-0.8-0.7c0.9-1.2,1.4-2.8,1.4-4.7v-6.7h10.4v10.5c0,1-0.5,1.5-1.5,1.5h-1.6
						l-0.3-1c0.6,0,1.1,0.1,1.6,0.1c0.5,0,0.8-0.3,0.8-0.9v-2.4h-3.8v4.1h-1v-4.1h-3.6C-112.2-104-112.7-102.5-113.6-101.3z
						 M-112-112.5v2.4h3.6v-2.4H-112z M-112-106.7h3.6v-2.5h-3.6V-106.7z M-103.6-112.5h-3.8v2.4h3.8V-112.5z M-103.6-109.2h-3.8
						v2.5h3.8V-109.2z"/>
					<path style="fill:#444444;" d="M-99.8-101.1l-0.7-0.7c1.1-1.6,1.7-3.6,1.7-6.1v-4.4h4.6c-0.3-0.6-0.5-1.1-0.8-1.6l1.1-0.2
						c0.3,0.5,0.5,1.1,0.8,1.8h4.4v4.7h-9C-97.9-105.1-98.5-103-99.8-101.1z M-97.8-111.3v2.7h8v-2.7H-97.8z"/>
					<path style="fill:#444444;" d="M-83.1-111.5v4.6c0,1.6-0.3,2.8-0.7,3.7c-0.4,0.9-1.1,1.5-2.1,2l-0.5-0.8
						c0.9-0.5,1.5-1.1,1.9-1.8c0.3-0.8,0.5-1.8,0.5-3.1v-4.6H-83.1z M-81.2-104.7h-0.9v-7.9H-85v7.9h-0.9v-8.8h4.7V-104.7z
						 M-80.5-102l-0.7,0.7c-0.4-0.7-1.1-1.5-1.9-2.4l0.6-0.6C-81.7-103.5-81.1-102.8-80.5-102z M-78.2-114c-0.1,0.7-0.3,1.3-0.5,1.9
						h4.6c0,4.9-0.1,7.9-0.2,9c-0.1,1.1-0.8,1.7-1.9,1.7c-0.4,0-1,0-2,0l-0.2-0.9c0.8,0,1.5,0.1,2,0.1c0.6,0,1-0.4,1.1-1.1
						c0.1-0.8,0.2-3.4,0.2-7.7h-4c-0.4,0.8-0.8,1.6-1.4,2.3l-0.6-0.8c1-1.2,1.6-2.7,1.9-4.5L-78.2-114z M-75.7-104.2l-0.8,0.4
						c-0.1-0.4-0.2-0.7-0.3-1c-1.1,0.3-2.3,0.4-3.6,0.6l-0.2-0.9c0.5-0.4,1.2-2,2-4.7l0.9,0.3c-0.6,1.8-1.2,3.3-1.8,4.3
						c0.8-0.1,1.6-0.3,2.3-0.4c-0.2-0.7-0.5-1.3-0.7-1.9l0.8-0.4C-76.5-106.8-76.1-105.5-75.7-104.2z"/>
					<path style="fill:#444444;" d="M-64.7-111.6v2.9c0,0.8-0.1,1.5-0.3,2.1h5.2v1h-5.5c-0.1,0.2-0.2,0.4-0.3,0.6
						c2,0.9,3.9,1.9,5.5,2.9l-0.7,0.8c-1.7-1.1-3.5-2.1-5.4-2.9c-0.1,0.1-0.2,0.2-0.2,0.3c-1,1.1-2.7,2-5,2.6l-0.6-0.9
						c2.3-0.6,3.9-1.4,4.9-2.4c0.3-0.3,0.5-0.6,0.6-1H-72v-1h6c0.2-0.6,0.3-1.4,0.3-2.1v-2.9H-64.7z M-60.8-113.2v0.6
						c-0.2,0.8-0.5,1.7-0.8,2.5l-1-0.3c0.3-0.6,0.5-1.2,0.7-1.9h-9.6v-0.9H-60.8z M-67.9-108l-0.5,0.8c-0.9-0.7-1.9-1.3-2.9-1.7
						l0.5-0.7C-69.8-109.2-68.8-108.6-67.9-108z M-66.7-110l-0.5,0.8c-0.9-0.7-1.9-1.3-2.8-1.7l0.5-0.7
						C-68.5-111.1-67.5-110.6-66.7-110z"/>
					<path style="fill:#444444;" d="M-54.3-113.5c-0.8,1.6-2,2.9-3.8,4.1l-0.3-1c1.5-1,2.5-2.2,3.2-3.5L-54.3-113.5z M-53.7-110.3
						c-0.4,0.8-0.9,1.5-1.5,2.2v6.9h-1v-5.8c-0.6,0.5-1.2,1-1.8,1.5l-0.3-1c1.7-1.2,3-2.6,3.7-4.1L-53.7-110.3z M-45.7-109.6v1H-48
						v6.1c0,0.8-0.5,1.2-1.4,1.2h-2.1l-0.2-1c0.7,0,1.3,0.1,1.9,0.1c0.4,0,0.7-0.2,0.7-0.5v-5.9h-4.4v-1H-45.7z M-46.3-113.2v1H-53
						v-1H-46.3z"/>
					<path style="fill:#444444;" d="M-38.2-114v1.7c0,0.6,0,1.2-0.1,1.8h5.8c0,4-0.2,6.6-0.5,7.6c-0.4,1.1-1,1.6-2,1.6
						c-0.7,0-1.3,0-1.7-0.1l-0.3-1c0.7,0.1,1.4,0.1,1.9,0.1c0.8-0.1,1.2-0.9,1.4-2.4c0.1-1.5,0.2-3.2,0.2-5h-4.8
						c-0.2,1.8-0.6,3.2-1.2,4.4c-0.8,1.7-2.2,3-4.1,3.9l-0.6-0.9c1.9-1,3.2-2.2,3.9-3.8c0.4-1,0.7-2.3,0.9-3.7h-4.4v-1h4.5
						c0-0.6,0.1-1.2,0.1-1.8v-1.7H-38.2z M-40.5-111.5l-0.8,0.5c-0.5-0.7-1.1-1.4-1.9-2.2l0.8-0.5C-41.6-112.9-41-112.1-40.5-111.5z
						 M-35.2-104.9l-0.9,0.6c-0.6-0.9-1.3-1.9-2.3-3l0.8-0.5C-36.5-106.7-35.7-105.7-35.2-104.9z"/>
				</g>
			</g>
		</g>
	</g>
</g>
<g>
	<g>
		<rect x="310" y="42" style="opacity:0.6;fill:#BBBBBB;enable-background:new    ;" width="213" height="50"/>
		<g>
			<rect x="308.5" y="40.5" style="fill:#FFFFFF;" width="212" height="49"/>
			<path style="fill:#E5E5E5;" d="M520,41v48H309V41H520 M521,40H308v50h213V40L521,40z"/>
		</g>
	</g>
	<g id="maingroup_35_" transform="translate(0,0)">
		<g id="Rects1_35_" transform="translate(220,163)">
			<g transform="translate(20 9)">
				<g style="enable-background:new    ;">
					<path style="fill:#444444;" d="M134.5-112.9c-0.1,0.5-0.3,0.9-0.4,1.4h2.7v0.9h-3.1c-0.4,1-0.9,1.9-1.4,2.7l-0.8-0.5
						c0.9-1.4,1.6-3,2-4.7L134.5-112.9z M136.4-108.8v0.9H135v1.8h2v0.9h-2v3.3c0.6-0.2,1.2-0.5,1.8-0.9l0.2,0.9
						c-0.8,0.5-1.8,0.9-2.9,1.2l-0.4-0.8c0.2-0.1,0.3-0.2,0.3-0.4v-3.3h-1.9v-0.9h1.9v-1.8h-0.9v-0.9H136.4z M141.1-113v4.6h3.3v1
						h-3.3v7.2h-1v-7.2h-3.2v-1h3.2v-4.6H141.1z"/>
					<path style="fill:#444444;" d="M149.1-106.6c0.5-1.3,0.8-2.6,0.9-4.1h-3.8v-1h4.7v0.7c-0.1,1.9-0.5,3.6-1.2,5.2
						c0.6,0.8,1.1,1.6,1.6,2.4l-0.7,0.7c-0.4-0.7-0.9-1.4-1.4-2.1c-0.8,1.3-1.8,2.5-3.1,3.6l-0.6-0.9c1.3-1,2.3-2.2,3.1-3.6
						c-0.8-1.1-1.7-2.1-2.7-3.2l0.7-0.6C147.5-108.5,148.4-107.5,149.1-106.6z M154.6-104.6l-0.8,0.6c-0.6-1-1.3-2-2.1-3.1l0.8-0.6
						C153.4-106.6,154.1-105.5,154.6-104.6z M155.7-110.3v-2.7h1v2.7h1.6v1h-1.6v7.7c0,0.9-0.5,1.4-1.4,1.4h-2.2l-0.2-1
						c0.7,0,1.4,0.1,2.1,0.1c0.5,0,0.8-0.3,0.8-0.7v-7.5h-4.1v-1H155.7z"/>
					<path style="fill:#444444;" d="M160.8-110.3c0,1.4-0.2,2.7-0.5,4l-0.8-0.2c0.3-1.2,0.5-2.5,0.5-3.8L160.8-110.3z M162.6-113
						v12.7h-1V-113H162.6z M164.4-108.3c0.5-1.2,0.8-2.5,0.8-3.9l0.9,0.1c0,0.6-0.1,1.1-0.2,1.7h2v-2.6h1v2.6h3.1v1H169v3.4h2.8v1
						H169v3.4h3.4v1h-8.5v-1h4v-3.4h-3.2v-1h3.2v-3.4h-2.2c-0.3,1-0.6,2-1.1,2.8l-0.7-0.7c0.2-0.3,0.3-0.6,0.4-0.9l-0.7,0.2
						c-0.2-0.9-0.5-1.7-0.8-2.5l0.7-0.2C163.9-110,164.1-109.2,164.4-108.3z"/>
					<path style="fill:#444444;" d="M175.4-107.9v-3.3h-1.7v-1h4.5v1h-1.7v3.3h1.5v1h-1.5v3.2c0.5-0.2,1-0.4,1.5-0.6v1
						c-1.3,0.5-2.7,1-4.2,1.3l-0.3-1c0.6-0.1,1.2-0.3,1.8-0.4v-3.5h-1.5v-1H175.4z M185.7-112.5v6.5h-2.9v1.7h3.2v1h-3.2v1.8h3.7v1
						H178v-1h3.8v-1.8h-3.2v-1h3.2v-1.7h-2.9v-6.5H185.7z M181.8-109.7v-1.9h-2v1.9H181.8z M181.8-108.8h-2v1.9h2V-108.8z
						 M182.8-109.7h1.9v-1.9h-1.9V-109.7z M184.7-108.8h-1.9v1.9h1.9V-108.8z"/>
					<path style="fill:#444444;" d="M191.2-110.4v4.3c0,1.6-0.3,2.9-0.8,3.8c-0.5,0.9-1.3,1.6-2.4,2.1l-0.5-0.9
						c1.1-0.5,1.8-1.1,2.2-1.9c0.4-0.8,0.6-1.9,0.6-3.2v-4.3H191.2z M193.2-103.8h-0.9v-7.8h-3.1v7.9h-0.9v-8.9h5V-103.8z
						 M193.7-101.1l-0.7,0.7c-0.5-0.7-1.1-1.4-1.9-2.2l0.6-0.6C192.5-102.5,193.1-101.8,193.7-101.1z M194-109.3v-0.9h3.7v-2.8h1
						v2.8h1.6v0.9h-1.6v7.7c0,0.9-0.4,1.3-1.1,1.3h-1.8l-0.2-1c0.6,0,1.1,0.1,1.7,0.1c0.3,0,0.5-0.2,0.5-0.7v-6.4
						c-0.8,2.5-2.1,4.5-3.8,6.2l-0.5-0.9c1.8-1.6,3.1-3.7,4-6.3H194z"/>
					<path style="fill:#444444;" d="M208.7-111.6h4.9v1h-2.4c-0.2,0.7-0.4,1.5-0.7,2.1h3.4v1h-10.1v2.1c-0.1,2.2-0.6,3.9-1.5,5.3
						l-0.8-0.7c0.8-1.1,1.2-2.6,1.3-4.6v-3h2.9l-0.6-2.1h-2.6v-1h5.1c-0.2-0.5-0.4-1-0.7-1.4l1.1-0.2
						C208.3-112.8,208.5-112.2,208.7-111.6z M209.5-108.5c0.3-0.7,0.5-1.4,0.7-2.1h-4.1l0.6,2.1H209.5z"/>
					<path style="fill:#444444;" d="M221.2-100.4h-1v-0.7h-3v0.7h-1v-6.1h4.9V-100.4z M220.2-102.1v-3.4h-3v3.4H220.2z M225.9-112.5
						v4.6h-7.7v-4.6H225.9z M224.8-111.5h-5.7v2.7h5.7V-111.5z M227.7-100.4h-1v-0.7h-3.1v0.7h-1v-6.1h5.1V-100.4z M226.7-102.1
						v-3.4h-3.1v3.4H226.7z"/>
					<path style="fill:#444444;" d="M233.9-106.3c-0.4,0.2-0.9,0.4-1.3,0.6v4c0,0.8-0.4,1.2-1.2,1.2H230l-0.2-1
						c0.4,0,0.8,0.1,1.1,0.1c0.4,0,0.6-0.2,0.6-0.5v-3.4c-0.6,0.2-1.2,0.4-1.8,0.6l-0.3-1c0.7-0.2,1.4-0.3,2-0.6v-3.2h-1.8v-1h1.8
						v-2.6h1v2.6h1.4v1h-1.4v2.8c0.4-0.2,0.9-0.4,1.3-0.6V-106.3z M236.2-100.3h-1v-8.2c-0.3,0.5-0.7,1-1.1,1.5l-0.3-1.1
						c1.1-1.5,1.9-3.2,2.4-5l1,0.2c-0.2,0.8-0.5,1.5-0.8,2.2h2.5c-0.2-0.7-0.5-1.5-0.8-2.2l1-0.3c0.3,0.8,0.6,1.6,0.8,2.3l-0.4,0.1
						h2.7v1h-2.4v1.9h2.2v1h-2.2v1.9h2.2v0.9h-2.2v2.1h2.6v1h-6.1V-100.3z M236.2-109.6v1.9h2.5v-1.9H236.2z M236.2-104.9h2.5v-1.9
						h-2.5V-104.9z M236.2-101.9h2.5v-2.1h-2.5V-101.9z"/>
					<path style="fill:#444444;" d="M248.1-109.1c0.2-0.4,0.3-0.7,0.5-1.1l1,0.2c-0.1,0.3-0.2,0.6-0.4,0.9h6.8v0.9h-7.3
						c-0.4,0.7-0.9,1.4-1.5,2.1v5.9h-1v-5c-0.6,0.5-1.2,1-1.9,1.5l-0.6-0.8c1.7-1.1,3-2.4,3.9-3.8h-3.4v-0.9H248.1z M247.1-112v-1h1
						v1h3.7v-1h1v1h3.2v0.9h-3.2v1h-1v-1h-3.7v1h-1v-1h-3.2v-0.9H247.1z M253.8-106.2h-4.6v-0.9h6v0.7c-0.6,0.5-1.4,1.1-2.2,1.6v0.6
						h3.1v1h-3.1v1.9c0,0.8-0.4,1.1-1.1,1.1h-1.6l-0.3-1c0.6,0,1.2,0.1,1.5,0.1c0.3,0,0.5-0.2,0.5-0.5v-1.6h-3.9v-1h3.9v-0.9
						C252.5-105.4,253.1-105.8,253.8-106.2z"/>
				</g>
			</g>
		</g>
	</g>
</g>
<g>
	<g>
		<rect x="589" y="41" style="opacity:0.6;fill:#BBBBBB;enable-background:new    ;" width="214" height="50"/>
		<g>
			<rect x="587.5" y="39.5" style="fill:#FFFFFF;" width="213" height="49"/>
			<path style="fill:#E5E5E5;" d="M800,40v48H588V40H800 M801,39H587v50h214V39L801,39z"/>
		</g>
	</g>
	<g id="maingroup_34_" transform="translate(0,0)">
		<g id="Rects1_34_" transform="translate(220,163)">
			<g transform="translate(20 9)">
				<g style="enable-background:new    ;">
					<path style="fill:#444444;" d="M423.4-108.9v-3.3h-1.7v-1h4.5v1h-1.7v3.3h1.5v1h-1.5v3.2c0.5-0.2,1-0.4,1.5-0.6v1
						c-1.3,0.5-2.7,1-4.2,1.3l-0.3-1c0.6-0.1,1.2-0.3,1.8-0.4v-3.5h-1.5v-1H423.4z M433.7-113.5v6.5h-2.9v1.7h3.2v1h-3.2v1.8h3.7v1
						H426v-1h3.8v-1.8h-3.2v-1h3.2v-1.7h-2.9v-6.5H433.7z M429.8-110.7v-1.9h-2v1.9H429.8z M429.8-109.8h-2v1.9h2V-109.8z
						 M430.8-110.7h1.9v-1.9h-1.9V-110.7z M432.7-109.8h-1.9v1.9h1.9V-109.8z"/>
					<path style="fill:#444444;" d="M439.2-111.4v4.3c0,1.6-0.3,2.9-0.8,3.8c-0.5,0.9-1.3,1.6-2.4,2.1l-0.5-0.9
						c1.1-0.5,1.8-1.1,2.2-1.9c0.4-0.8,0.6-1.9,0.6-3.2v-4.3H439.2z M441.2-104.7h-0.9v-7.8h-3.1v7.9h-0.9v-8.9h5V-104.7z
						 M441.7-102.1l-0.7,0.7c-0.5-0.7-1.1-1.4-1.9-2.2l0.6-0.6C440.5-103.5,441.1-102.8,441.7-102.1z M442-110.3v-0.9h3.7v-2.8h1
						v2.8h1.6v0.9h-1.6v7.7c0,0.9-0.4,1.3-1.1,1.3h-1.8l-0.2-1c0.6,0,1.1,0.1,1.7,0.1c0.3,0,0.5-0.2,0.5-0.7v-6.4
						c-0.8,2.5-2.1,4.5-3.8,6.2l-0.5-0.9c1.8-1.6,3.1-3.7,4-6.3H442z"/>
					<path style="fill:#444444;" d="M456.7-112.6h4.9v1h-2.4c-0.2,0.7-0.4,1.5-0.7,2.1h3.4v1h-10.1v2.1c-0.1,2.2-0.6,3.9-1.5,5.3
						l-0.8-0.7c0.8-1.1,1.2-2.6,1.3-4.6v-3h2.9l-0.6-2.1h-2.6v-1h5.1c-0.2-0.5-0.4-1-0.7-1.4l1.1-0.2
						C456.3-113.8,456.5-113.2,456.7-112.6z M457.5-109.5c0.3-0.7,0.5-1.4,0.7-2.1h-4.1l0.6,2.1H457.5z"/>
					<path style="fill:#444444;" d="M469.2-101.4h-1v-0.7h-3v0.7h-1v-6.1h4.9V-101.4z M468.2-103.1v-3.4h-3v3.4H468.2z M473.9-113.5
						v4.6h-7.7v-4.6H473.9z M472.8-112.5h-5.7v2.7h5.7V-112.5z M475.7-101.4h-1v-0.7h-3.1v0.7h-1v-6.1h5.1V-101.4z M474.7-103.1
						v-3.4h-3.1v3.4H474.7z"/>
					<path style="fill:#444444;" d="M480.4-113.8c-0.1,0.5-0.3,0.9-0.4,1.4h2.6v1h-2.9c-0.4,1-0.8,1.8-1.3,2.6l-0.8-0.5
						c0.9-1.4,1.5-2.9,1.9-4.6L480.4-113.8z M482.3-109.6v0.9h-1.5v1.8h1.9v0.9h-1.9v3.3c0.6-0.2,1.3-0.5,1.9-0.9l0.2,0.9
						c-0.9,0.5-1.9,0.9-3.1,1.2l-0.4-0.9c0.3-0.1,0.4-0.2,0.4-0.4v-3.2H478v-0.9h1.9v-1.8H479v-0.9H482.3z M485.3-111.1l-0.8,0.4
						c-0.4-0.9-0.8-1.7-1.3-2.4l0.9-0.4C484.5-112.8,484.9-112,485.3-111.1z M487.2-114v3.9h2.6v7.5c0,0.9-0.4,1.4-1.2,1.4h-1.4
						l-0.3-1l1.3,0c0.3,0,0.5-0.2,0.5-0.7v-1.5h-4.3v3.1h-1v-8.9h2.7v-3.9H487.2z M488.8-109.2h-4.3v1.6h4.3V-109.2z M484.5-105.2
						h4.3v-1.5h-4.3V-105.2z M490.2-113.2c-0.3,0.9-0.8,1.7-1.3,2.5l-0.8-0.4c0.6-0.8,1-1.7,1.3-2.5L490.2-113.2z"/>
					<path style="fill:#444444;" d="M504.3-109.6v0.8h-12.6v-0.8H504.3z M502.9-108.2v3.6h-4.4v0.8h4.7v0.7h-4.7v0.8h5.8v0.8h-12.5
						v-0.8h5.7v-0.8h-4.7v-0.7h4.7v-0.8h-4.3v-3.6H502.9z M502.6-113.8v3.5h-9.1v-3.5H502.6z M497.5-106.7v-0.9h-3.4v0.9H497.5z
						 M497.5-106.1h-3.4v0.9h3.4V-106.1z M501.6-112.4v-0.8h-7.2v0.8H501.6z M501.6-111.8h-7.2v0.8h7.2V-111.8z M498.5-106.7h3.4
						v-0.9h-3.4V-106.7z M501.9-106.1h-3.4v0.9h3.4V-106.1z"/>
					<path style="fill:#444444;" d="M506.1-101.3l-0.2-1c0.4,0,0.8,0.1,1.1,0.1c0.3,0,0.5-0.2,0.5-0.5v-3.4
						c-0.5,0.2-1.1,0.4-1.6,0.6l-0.2-1c0.6-0.2,1.2-0.4,1.9-0.6v-3.2h-1.7v-1h1.7v-2.6h1v2.6h1.4v1h-1.4v2.7
						c0.4-0.2,0.8-0.4,1.2-0.6v1c-0.4,0.2-0.8,0.4-1.2,0.6v4.1c0,0.8-0.4,1.2-1.2,1.2H506.1z M518.1-107.7v0.9h-3.5v1.6h2.9v0.9
						h-2.9v1.8c0.6,0.1,1.2,0.1,2,0.1c0.7,0,1.4,0,1.9-0.1l-0.3,1c-0.6,0-1.1,0-1.5,0c-1.8,0-3.1-0.2-3.8-0.5
						c-0.5-0.3-1-0.8-1.4-1.6c-0.3,0.9-0.8,1.7-1.4,2.4l-0.7-0.6c1.1-1.3,1.7-2.7,1.8-4.3l0.9,0.1c0,0.5-0.1,1-0.2,1.5
						c0.4,0.9,1,1.5,1.6,1.8c0.1,0,0.2,0.1,0.3,0.1v-4.1H510v-0.9H518.1z M517.1-113.6v4.9H511v-4.9H517.1z M516.2-111.5v-1.2H512
						v1.2H516.2z M516.2-110.7H512v1.2h4.1V-110.7z"/>
					<path style="fill:#444444;" d="M526.7-113.1c-0.8,0.4-1.7,0.7-2.5,0.9v3.5h3.8v-5.2h1v5.2h3.2v1H529v6.5h-1v-6.5h-3.8
						c-0.2,3-1.3,5.1-3.5,6.5l-0.8-0.7c2-1.3,3.1-3.2,3.2-5.9h-3.4v-1h3.4v-3.3c-0.9,0.2-1.8,0.3-2.8,0.4l-0.3-0.9
						c2.5-0.2,4.5-0.7,6.2-1.5L526.7-113.1z"/>
				</g>
			</g>
		</g>
	</g>
</g>
<g id="Link24_16_" transform="translate(0,0)">
	<path style="fill:none;stroke:#888888;" d="M243,65h55"/>
	<g transform="translate(0, -0.5)">
		<polygon style="fill:#888888;" points="295,69.5 300,65.5 295,61.5 		"/>
	</g>
</g>
<g id="Link24_15_" transform="translate(0,0)">
	<path style="fill:none;stroke:#888888;" d="M415,163v-54"/>
	<g transform="translate(0, -0.5)">
		<polygon style="fill:#888888;" points="411,112.5 415,107.5 419,112.5 		"/>
	</g>
</g>
<g id="Link24_14_" transform="translate(0,0)">
	<path style="fill:none;stroke:#888888;" d="M415,586v-54"/>
	<g transform="translate(0, -0.5)">
		<polygon style="fill:#888888;" points="411,535.5 415,530.5 419,535.5 		"/>
	</g>
</g>
<g id="Link24_13_" transform="translate(0,0)">
	<path style="fill:none;stroke:#888888;" d="M523,65h55"/>
	<g transform="translate(0, -0.5)">
		<polygon style="fill:#888888;" points="575,69.5 580,65.5 575,61.5 		"/>
	</g>
</g>
<path style="fill:#EAEBEC;" d="M15,586h800v103H15V586"/>
<g id="maingroup_33_" transform="translate(0,0)">
	<g>
		<g id="Rects1_51_" transform="translate(220,163)">
			<g transform="translate(20 9)">
				<g style="enable-background:new    ;">
					<path style="fill:#444444;" d="M-210.4,431.4l-0.8,0.3c-0.4-1-0.8-1.9-1.2-2.7l0.8-0.3C-211.1,429.6-210.7,430.5-210.4,431.4z
						 M-210,432.2v-4.6h4.7c-0.2-0.4-0.4-0.7-0.6-1l1-0.2c0.2,0.4,0.4,0.8,0.6,1.2h4.4v1h-9.1v3.6c-0.1,3-0.7,5.3-1.8,7.1l-0.8-0.7
						c0.8-1.3,1.3-2.9,1.5-4.9c-0.6,0.5-1.3,1.1-2,1.5l-0.3-1c0.9-0.5,1.6-1,2.4-1.7C-210.1,432.5-210,432.3-210,432.2z
						 M-202.7,439.2l-0.2-0.9l1.1,0c0.4,0,0.6-0.2,0.6-0.5V437h-2.5v2.1h-0.9V437h-2.5v2.3h-0.9v-7.1h3.3c-0.6-0.4-1.2-0.8-1.9-1.1
						l0.6-0.6c0.7,0.4,1.3,0.8,1.8,1.1c0.7-0.4,1.4-0.8,2.1-1.2h-5.9v-0.9h7.3v0.8c-0.8,0.7-1.8,1.3-2.8,1.8c0,0,0.1,0,0.1,0.1h3.1
						v5.8c0,0.8-0.4,1.2-1.2,1.2H-202.7z M-204.7,434.3v-1.2h-2.5v1.2H-204.7z M-204.7,436.2v-1.1h-2.5v1.1H-204.7z M-203.7,434.3
						h2.5v-1.2h-2.5V434.3z M-203.7,436.2h2.5v-1.1h-2.5V436.2z"/>
					<path style="fill:#444444;" d="M-195.7,436.2c-0.5,1.2-1.1,2.3-1.8,3.2l-0.8-0.6c0.7-0.8,1.3-1.8,1.8-3L-195.7,436.2z
						 M-191.7,426.6v1.4h5.4v1h-5.4v1.8h4.5v4.5h-9.3v-4.5h3.8v-4.1H-191.7z M-188.3,431.6h-7.3v2.6h7.3V431.6z M-192.8,439.2
						l-1,0.2c-0.2-1.1-0.4-2.2-0.7-3l0.9-0.2C-193.2,437.1-193,438.1-192.8,439.2z M-189.5,439.2l-1,0.2c-0.3-1.2-0.6-2.2-1.1-3.2
						l1-0.2C-190.2,437-189.8,438.1-189.5,439.2z M-185.7,438.8l-0.8,0.6c-0.5-1-1.2-2-2-3.1l0.8-0.5
						C-186.8,436.9-186.1,438-185.7,438.8z"/>
				</g>
			</g>
		</g>
	</g>
</g>
<g>
	<g>
		<rect x="29" y="627" style="opacity:0.6;fill:#BBBBBB;enable-background:new    ;" width="379" height="50"/>
		<g>
			<rect x="27.5" y="625.5" style="fill:#FFFFFF;" width="378" height="49"/>
			<path style="fill:#E5E5E5;" d="M405,626v48H28v-48H405 M406,625H27v50h379V625L406,625z"/>
		</g>
	</g>
	<g id="maingroup_32_" transform="translate(0,0)">
		<g id="Rects1_32_" transform="translate(220,163)">
			<g transform="translate(20 9)">
				<g style="enable-background:new    ;">
					<path style="fill:#444444;" d="M-120.3,472.7v1h-5v0.9c0,0.9-0.1,1.7-0.2,2.5h6.3v1h-4.3v4.9c0,0.4,0.2,0.7,0.7,0.7h1.8
						c0.3,0,0.6-0.1,0.7-0.3c0.2-0.2,0.3-0.9,0.4-2l1,0.3c-0.1,1.4-0.3,2.2-0.6,2.5c-0.3,0.3-0.7,0.4-1.3,0.4h-2.3
						c-0.9,0-1.4-0.5-1.4-1.4V478h-1.1c-0.2,1.2-0.6,2.3-1.1,3.2c-0.9,1.5-2.3,2.7-4.2,3.5l-0.6-0.9c1.9-0.9,3.3-2,4-3.4
						c0.3-0.7,0.6-1.5,0.8-2.4h-4.6v-1h4.8c0.1-0.8,0.2-1.6,0.2-2.5v-0.9h-4v-1H-120.3z"/>
					<path style="fill:#444444;" d="M-113.7,473.5c-0.2-0.5-0.5-1-0.7-1.4l1-0.2c0.3,0.5,0.5,1,0.7,1.6h3.2c0.3-0.5,0.5-1.1,0.7-1.7
						l1.1,0.1c-0.2,0.5-0.4,1.1-0.7,1.5h2.8v0.9h-5c-0.1,0.4-0.2,0.8-0.3,1.2h4.5v0.9h-4.8c-0.1,0.4-0.3,0.8-0.4,1.2h6.4v1h-6.9
						c-0.2,0.3-0.3,0.6-0.5,0.9c-0.1,0.2-0.2,0.3-0.3,0.5h6.8v1h-3.9v2.3h4.7v1h-10.4v-1h4.6v-2.3h-2.7c-0.9,1-2,1.9-3.4,2.7
						l-0.7-0.9c2-1.1,3.4-2.4,4.4-3.8c0.1-0.1,0.1-0.2,0.2-0.3h-4v-1h4.5c0.2-0.4,0.3-0.8,0.5-1.2h-3.8v-0.9h4
						c0.1-0.4,0.2-0.8,0.2-1.2h-5.1v-0.9H-113.7z"/>
					<path style="fill:#444444;" d="M-102.9,477v-4.5h6v4.5h-2.7c0,0.6-0.1,1.2-0.1,1.7h3c0,2.4-0.1,3.9-0.2,4.5
						c-0.1,0.9-0.8,1.4-2,1.4c-0.2,0-0.5,0-1,0l-0.2-0.9c0.4,0,0.8,0.1,1.1,0.1c0.7,0,1.1-0.3,1.2-0.9c0.1-0.4,0.1-1.4,0.2-3.2h-2.1
						c-0.2,0.9-0.3,1.6-0.6,2.1c-0.5,1.2-1.4,2.2-2.6,3.1l-0.6-0.8c1.1-0.7,1.8-1.6,2.3-2.7c0.2-0.4,0.4-1,0.5-1.7h-2.5v-0.9h2.6
						c0.1-0.5,0.1-1.1,0.1-1.7H-102.9z M-97.9,473.4h-4v2.6h4V473.4z M-94.4,473.2v8.7h-1v-8.7H-94.4z M-94.7,484.7l-0.2-1
						c0.7,0,1.3,0.1,1.9,0.1c0.4,0,0.7-0.3,0.7-0.8v-11h1v11.3c0,0.9-0.4,1.4-1.3,1.4H-94.7z"/>
					<path style="fill:#444444;" d="M-85.3,478.7c-0.4,0.2-0.9,0.4-1.3,0.6v4c0,0.8-0.4,1.2-1.2,1.2h-1.3l-0.2-1
						c0.4,0,0.8,0.1,1.1,0.1c0.4,0,0.6-0.2,0.6-0.5v-3.4c-0.6,0.2-1.2,0.4-1.8,0.6l-0.3-1c0.7-0.2,1.4-0.3,2-0.6v-3.2h-1.8v-1h1.8
						v-2.6h1v2.6h1.4v1h-1.4v2.8c0.4-0.2,0.9-0.4,1.3-0.6V478.7z M-83.1,484.7h-1v-8.2c-0.3,0.5-0.7,1-1.1,1.5l-0.3-1.1
						c1.1-1.5,1.9-3.2,2.4-5l1,0.2c-0.2,0.8-0.5,1.5-0.8,2.2h2.5c-0.2-0.7-0.5-1.5-0.8-2.2l1-0.3c0.3,0.8,0.6,1.6,0.8,2.3l-0.4,0.1
						h2.7v1h-2.4v1.9h2.2v1h-2.2v1.9h2.2v0.9h-2.2v2.1h2.6v1h-6.1V484.7z M-83.1,475.4v1.9h2.5v-1.9H-83.1z M-83.1,480.1h2.5v-1.9
						h-2.5V480.1z M-83.1,483.1h2.5V481h-2.5V483.1z"/>
					<path style="fill:#444444;" d="M-71.2,475.9c0.2-0.4,0.3-0.7,0.5-1.1l1,0.2c-0.1,0.3-0.2,0.6-0.4,0.9h6.8v0.9h-7.3
						c-0.4,0.7-0.9,1.4-1.5,2.1v5.9h-1v-5c-0.6,0.5-1.2,1-1.9,1.5l-0.6-0.8c1.7-1.1,3-2.4,3.9-3.8h-3.4v-0.9H-71.2z M-72.1,473v-1h1
						v1h3.7v-1h1v1h3.2v0.9h-3.2v1h-1v-1h-3.7v1h-1v-1h-3.2V473H-72.1z M-65.4,478.8H-70v-0.9h6v0.7c-0.6,0.5-1.4,1.1-2.2,1.6v0.6
						h3.1v1h-3.1v1.9c0,0.8-0.4,1.1-1.1,1.1h-1.6l-0.3-1c0.6,0,1.2,0.1,1.5,0.1c0.3,0,0.5-0.2,0.5-0.5v-1.6h-3.9v-1h3.9v-0.9
						C-66.7,479.6-66.1,479.2-65.4,478.8z"/>
					<path style="fill:#444444;" d="M-54.5,479.3v1h-7.1v-1H-54.5z"/>
					<path style="fill:#444444;" d="M-52.1,474v-1h10.7v1h-4.8v8.9h5.7v1H-53v-1h5.7V474H-52.1z"/>
					<path style="fill:#444444;" d="M-38.9,478.6l-0.3-1.1c1.5-1.6,2.6-3.5,3.3-5.6l1,0.4c-0.4,1.1-0.9,2.1-1.4,3.1v9.4h-1v-7.9
						C-37.9,477.5-38.4,478.1-38.9,478.6z M-35.2,478.5l-0.7-0.9c1.2-1.5,2.3-3.4,3-5.7l1,0.2c-0.2,0.6-0.4,1.3-0.7,1.8h6.1v1h-4.7
						v2.3h4.1v1h-4.1v2.4h4.2v1h-4.2v3.3h-1v-9.9H-33C-33.6,476.3-34.4,477.5-35.2,478.5z"/>
					<path style="fill:#444444;" d="M-12.5,476.4v0.8H-25v-0.8H-12.5z M-13.9,477.8v3.6h-4.4v0.8h4.7v0.7h-4.7v0.8h5.8v0.8H-25v-0.8
						h5.7v-0.8H-24v-0.7h4.7v-0.8h-4.3v-3.6H-13.9z M-14.2,472.2v3.5h-9.1v-3.5H-14.2z M-19.3,479.3v-0.9h-3.4v0.9H-19.3z
						 M-19.3,479.9h-3.4v0.9h3.4V479.9z M-15.1,473.6v-0.8h-7.2v0.8H-15.1z M-15.1,474.2h-7.2v0.8h7.2V474.2z M-18.3,479.3h3.4v-0.9
						h-3.4V479.3z M-14.8,479.9h-3.4v0.9h3.4V479.9z"/>
					<path style="fill:#444444;" d="M-5.5,475.6c0.1-0.8,0.2-1.7,0.2-2.5V472h1v0.9c0,1-0.1,1.9-0.2,2.8h5.8v1h-5.5
						c1,3.2,2.9,5.6,5.8,7.3L1,484.7c-2.8-1.7-4.7-4.2-5.8-7.3c-0.9,3.4-2.8,5.9-5.8,7.4l-0.6-0.8c3-1.5,4.8-3.9,5.6-7.4h-5.3v-1
						H-5.5z"/>
					<path style="fill:#444444;" d="M6.3,482.8c0.5,0.5,0.9,1,1.2,1.4l-0.7,0.6c-0.3-0.5-0.7-1-1.2-1.4c-0.5-0.6-1-1-1.6-1.4
						l0.6-0.6C5.2,481.8,5.7,482.3,6.3,482.8z"/>
					<path style="fill:#444444;" d="M17.6,484.7l-0.8-0.7c0.9-1.2,1.4-2.8,1.4-4.7v-6.7h10.4V483c0,1-0.5,1.5-1.5,1.5h-1.6l-0.3-1
						c0.6,0,1.1,0.1,1.6,0.1c0.5,0,0.8-0.3,0.8-0.9v-2.4h-3.8v4.1h-1v-4.1h-3.6C19,482,18.5,483.5,17.6,484.7z M19.2,473.5v2.4h3.6
						v-2.4H19.2z M19.2,479.3h3.6v-2.5h-3.6V479.3z M27.6,473.5h-3.8v2.4h3.8V473.5z M27.6,476.8h-3.8v2.5h3.8V476.8z"/>
					<path style="fill:#444444;" d="M31.4,484.9l-0.7-0.7c1.1-1.6,1.7-3.6,1.7-6.1v-4.4H37c-0.3-0.6-0.5-1.1-0.8-1.6l1.1-0.2
						c0.3,0.5,0.5,1.1,0.8,1.8h4.4v4.7h-9C33.4,480.9,32.7,483,31.4,484.9z M33.4,474.7v2.7h8v-2.7H33.4z"/>
					<path style="fill:#444444;" d="M45.1,479.1l-0.3-1c1.5-1.8,2.5-3.8,3.2-6.1l0.9,0.4c-0.4,1.2-0.8,2.3-1.4,3.3v9.2h-1v-7.6
						C46.1,477.9,45.6,478.5,45.1,479.1z M52.3,474.3v-2.4h1v2.4h3.8v1h-2.9c0.6,2.3,1.8,4.4,3.4,6.2l-0.7,0.8
						c-1.7-2.1-2.9-4.4-3.5-7h-0.2v5.6h2.2v1h-2.2v2.9h-1v-2.9h-2.1v-1h2.1v-5.6h-0.2c-0.7,2.9-1.9,5.3-3.6,7.2l-0.5-0.9
						c1.6-1.6,2.7-3.7,3.3-6.3h-2.7v-1H52.3z"/>
					<path style="fill:#444444;" d="M61.9,481.4c-0.9,0.3-2,0.6-3.1,0.9l-0.1-1c1.2-0.2,2.3-0.5,3.2-0.8V481.4z M59,473.5v-0.9h4.4
						l-0.7,5.8h0.9c0,3.2-0.1,5-0.4,5.5c-0.3,0.5-0.9,0.7-1.7,0.7c-0.3,0-0.7,0-1,0l-0.3-0.9c0.5,0.1,0.8,0.1,1,0.1
						c0.7,0,1.1-0.2,1.2-0.6c0.1-0.4,0.2-1.7,0.2-3.9h-3.6l0.7-4.8l0.9,0.1l-0.6,3.9h1.7l0.6-4.8H59z M64.1,477.6l-0.5-0.8
						c1.6-1.2,2.8-2.8,3.6-4.7h0.9c0.7,1.8,1.9,3.3,3.7,4.7l-0.5,0.8c-0.6-0.5-1.1-1-1.6-1.5v0.9h-3.9v-0.9
						C65.2,476.6,64.7,477.1,64.1,477.6z M68.5,483.3c0.5-1.5,1-3.3,1.4-5.5l1,0.2c-0.4,2-0.9,3.8-1.4,5.3h2.1v1H64v-1H68.5z
						 M66.5,482.2l-0.9,0.2c-0.3-1.4-0.7-2.7-1.2-3.9l0.9-0.3C65.7,479.4,66.1,480.7,66.5,482.2z M67.7,473c-0.6,1.2-1.2,2.2-1.9,3
						h3.9C68.8,475.1,68.1,474.1,67.7,473z M68.4,481.6l-0.9,0.2c-0.3-1.3-0.6-2.6-1-3.8l0.9-0.3C67.8,478.9,68.1,480.2,68.4,481.6z
						"/>
					<path style="fill:#444444;" d="M76.8,473.5c-0.2-0.5-0.5-1-0.7-1.4l1-0.2c0.3,0.5,0.5,1,0.7,1.6H81c0.3-0.5,0.5-1.1,0.7-1.7
						l1.1,0.1c-0.2,0.5-0.4,1.1-0.7,1.5h2.8v0.9h-5c-0.1,0.4-0.2,0.8-0.3,1.2h4.5v0.9h-4.8c-0.1,0.4-0.3,0.8-0.4,1.2h6.4v1h-6.9
						c-0.2,0.3-0.3,0.6-0.5,0.9c-0.1,0.2-0.2,0.3-0.3,0.5h6.8v1h-3.9v2.3h4.7v1H74.9v-1h4.6v-2.3h-2.7c-0.9,1-2,1.9-3.4,2.7
						l-0.7-0.9c2-1.1,3.4-2.4,4.4-3.8c0.1-0.1,0.1-0.2,0.2-0.3h-4v-1h4.5c0.2-0.4,0.3-0.8,0.5-1.2h-3.8v-0.9h4
						c0.1-0.4,0.2-0.8,0.2-1.2h-5.1v-0.9H76.8z"/>
				</g>
			</g>
		</g>
	</g>
</g>
<g>
	<g>
		<rect x="424" y="627" style="opacity:0.6;fill:#BBBBBB;enable-background:new    ;" width="379" height="50"/>
		<g>
			<rect x="422.5" y="625.5" style="fill:#FFFFFF;" width="378" height="49"/>
			<path style="fill:#E5E5E5;" d="M800,626v48H423v-48H800 M801,625H422v50h379V625L801,625z"/>
		</g>
	</g>
	<g id="maingroup_31_" transform="translate(0,0)">
		<g id="Rects1_31_" transform="translate(220,163)">
			<g transform="translate(20 9)">
				<g style="enable-background:new    ;">
					<path style="fill:#444444;" d="M271.1,475.1c0.8,3.8,2.8,6.7,6.1,8.7l-0.7,0.9c-2.9-1.9-4.8-4.4-5.8-7.6
						c-0.8,3.1-2.8,5.6-5.9,7.6l-0.6-0.9c3.9-2.4,5.8-5.6,6-9.6c0-1,0-1.7,0-2.2h1C271.2,473.2,271.2,474.2,271.1,475.1z"/>
					<path style="fill:#444444;" d="M279.4,474v-1h10.7v1h-4.8v8.9h5.7v1h-12.5v-1h5.7V474H279.4z"/>
					<path style="fill:#444444;" d="M295.6,476.3V472h1v4.3h2.7v1h-2.7c0,0.8-0.1,1.5-0.2,2.1h3.3v1h-3.5c-0.5,1.9-1.4,3.4-2.8,4.4
						l-0.8-0.7c1.2-0.9,2.1-2.2,2.5-3.7h-2.6v-1h2.8c0.1-0.7,0.2-1.4,0.2-2.1h-2.7v-1H295.6z M294.7,475.4l-0.9,0.2
						c-0.3-1-0.6-1.9-1-2.7l0.9-0.3C294.1,473.4,294.4,474.3,294.7,475.4z M299.2,472.7c-0.3,1.1-0.6,2.1-1.1,3l-0.9-0.3
						c0.4-0.8,0.8-1.7,1.1-2.9L299.2,472.7z M301.7,473.3v8.6h-1v-8.6H301.7z M301.3,484.7l-0.2-1c0.6,0,1.2,0.1,1.7,0.1
						c0.5,0,0.7-0.3,0.7-0.8v-11h1v11.3c0,0.9-0.5,1.4-1.4,1.4H301.3z"/>
					<path style="fill:#444444;" d="M307.7,472.6v10.3h4.7v0.9h-5.6v-11.2H307.7z M310.3,476.4V472h0.9v4.4h1.8v0.9h-1.8v0.4
						c0.6,0.6,1.3,1.4,2,2.2l-0.5,0.8c-0.6-0.9-1.1-1.6-1.5-2.1v3.8h-0.9v-3.8c-0.5,1-1.1,1.9-1.9,2.7l-0.4-1
						c1.1-0.9,1.8-1.8,2.3-2.9h-2v-0.9H310.3z M309.8,475.6l-0.8,0.2c-0.2-0.9-0.5-1.7-0.8-2.5l0.8-0.3
						C309.3,473.7,309.5,474.6,309.8,475.6z M313.2,472.8c-0.1,1.1-0.3,2-0.6,2.8l-0.8-0.2c0.3-0.8,0.5-1.7,0.6-2.7L313.2,472.8z
						 M314.9,478.3c0,2.8-0.5,4.9-1.3,6.3l-0.9-0.4c0.8-1.4,1.3-3.4,1.3-5.9V473c1.8-0.1,3.2-0.4,4.4-1l0.5,0.8
						c-1.2,0.5-2.5,0.8-4,0.9l0,2.5h4.3v1h-1.4v7.6h-1v-7.6h-1.8V478.3z"/>
					<path style="fill:#444444;" d="M327.5,479.3v1h-7.1v-1H327.5z"/>
					<path style="fill:#444444;" d="M332.4,479.9c0.3-0.6,0.6-1.3,0.8-2.1l0.9,0.4c-0.3,0.9-0.6,1.7-1,2.4c0.6,0.6,1.1,1.2,1.7,1.8
						l-0.7,0.8c-0.5-0.6-1-1.1-1.5-1.7c-0.9,1.3-2,2.4-3.3,3.1l-0.6-0.9c1.3-0.7,2.4-1.7,3.2-3c-0.6-0.6-1.2-1.1-1.8-1.6l0.6-0.7
						C331.3,478.9,331.9,479.4,332.4,479.9z M331.7,475.5c-0.6,1.3-1.3,2.4-2.1,3.3l-0.8-0.6c0.8-0.9,1.5-1.9,2-3.2L331.7,475.5z
						 M332.8,473.4h2.6v1H329v-1h2.9c-0.2-0.5-0.4-1-0.7-1.4l1.1-0.2C332.4,472.3,332.6,472.8,332.8,473.4z M332.6,475.6l0.6-0.6
						c0.6,0.4,1.2,1.1,1.9,2l-0.7,0.7C333.8,476.8,333.2,476.2,332.6,475.6z M336.4,477.5c-0.3,0.5-0.5,1-0.8,1.4l-0.6-0.8
						c1-1.5,1.7-3.6,2-6.2l1,0.2c-0.1,0.8-0.3,1.5-0.4,2.2h3.9v1h-1.2c-0.1,2.2-0.6,4.1-1.5,5.7c0.8,1.3,1.8,2.3,2.9,3l-0.6,0.9
						c-1.1-0.7-2.1-1.7-2.9-3c-0.9,1.2-2,2.2-3.4,3l-0.6-0.9c1.5-0.8,2.6-1.8,3.5-3C337.2,479.9,336.8,478.7,336.4,477.5z
						 M337,476.2c0.3,1.4,0.8,2.7,1.3,3.7c0.7-1.4,1.1-2.9,1.1-4.7h-2.1C337.2,475.5,337.1,475.9,337,476.2z"/>
					<path style="fill:#444444;" d="M353.8,472.5v5.4h-4.1v1.3h5.6v1h-4.7c1,1.3,2.7,2.4,5,3.4l-0.7,0.9c-2.4-1.3-4.1-2.7-5.1-4.3
						h-0.1v4.6h-1v-4.6h-0.1c-1.1,1.7-2.8,3.1-5.2,4.2l-0.6-0.9c2.3-0.9,3.9-2,5-3.3h-4.7v-1h5.6v-1.3h-4.2v-5.4H353.8z
						 M348.7,474.8v-1.4h-3.2v1.4H348.7z M348.7,475.7h-3.2v1.4h3.2V475.7z M349.7,474.8h3.1v-1.4h-3.1V474.8z M352.8,475.7h-3.1
						v1.4h3.1V475.7z"/>
					<path style="fill:#444444;" d="M369.2,472.7v1h-4.6c-0.3,0.6-0.5,1.1-0.9,1.7v9.5h-1v-8c-1.3,1.6-3,3.1-5.2,4.4l-0.7-0.9
						c3.2-1.8,5.4-4,6.6-6.6h-6.2v-1H369.2z M369.5,480.3l-0.8,0.8c-1-1.2-2.3-2.5-4-3.9l0.7-0.7C367.1,477.7,368.4,479,369.5,480.3
						z"/>
					<path style="fill:#444444;" d="M372.6,477.1v-3.3h-1.7v-1h4.5v1h-1.7v3.3h1.5v1h-1.5v3.2c0.5-0.2,1-0.4,1.5-0.6v1
						c-1.3,0.5-2.7,1-4.2,1.3l-0.3-1c0.6-0.1,1.2-0.3,1.8-0.4v-3.5h-1.5v-1H372.6z M382.9,472.5v6.5H380v1.7h3.2v1H380v1.8h3.7v1
						h-8.4v-1h3.8v-1.8h-3.2v-1h3.2V479H376v-6.5H382.9z M379,475.3v-1.9h-2v1.9H379z M379,476.2h-2v1.9h2V476.2z M380,475.3h1.9
						v-1.9H380V475.3z M381.9,476.2H380v1.9h1.9V476.2z"/>
					<path style="fill:#444444;" d="M388.3,479.7h-1v-3.8c-0.6,1.1-1.3,2.2-2.2,3.1l-0.4-1c1.1-1,2-2.1,2.6-3.5H385v-0.9h2.3v-1.6h1
						v1.6h1.9v0.9h-1.9v0.7c0.7,0.5,1.5,1.1,2.2,1.8l-0.6,0.8c-0.6-0.7-1.2-1.3-1.7-1.7V479.7z M387.3,480.7
						c-0.4,1.3-0.9,2.5-1.5,3.5l-0.9-0.5c0.6-1,1.1-2,1.4-3.2L387.3,480.7z M389.6,484.5c-0.9,0-1.3-0.5-1.3-1.4v-2.8h1v2.6
						c0,0.4,0.2,0.6,0.6,0.6h3c0.3,0,0.5-0.1,0.7-0.2c0.2-0.2,0.3-0.7,0.4-1.6l1,0.3c-0.1,1.2-0.3,1.9-0.6,2.1
						c-0.3,0.2-0.6,0.3-1.2,0.3H389.6z M392.7,481.9l-0.8,0.6c-0.4-0.6-0.9-1.2-1.6-1.9l0.8-0.5
						C391.8,480.7,392.3,481.4,392.7,481.9z M396.5,472.5v6.9h-5.4v-6.9H396.5z M395.5,474.6v-1.2h-3.4v1.2H395.5z M395.5,476.6
						v-1.1h-3.4v1.1H395.5z M395.5,477.4h-3.4v1.2h3.4V477.4z M397.6,483.2l-0.9,0.6c-0.5-1-1.2-2-2.1-3.2l0.8-0.5
						C396.4,481.3,397.1,482.3,397.6,483.2z"/>
					<path style="fill:#444444;" d="M402.2,482.8c0.5,0.5,0.9,1,1.2,1.4l-0.7,0.6c-0.3-0.5-0.7-1-1.2-1.4c-0.5-0.6-1-1-1.6-1.4
						l0.6-0.6C401.2,481.8,401.7,482.3,402.2,482.8z"/>
					<path style="fill:#444444;" d="M419.6,475.1c0.8,3.8,2.8,6.7,6.1,8.7l-0.7,0.9c-2.9-1.9-4.8-4.4-5.8-7.6
						c-0.8,3.1-2.8,5.6-5.9,7.6l-0.6-0.9c3.9-2.4,5.8-5.6,6-9.6c0-1,0-1.7,0-2.2h1C419.7,473.2,419.7,474.2,419.6,475.1z"/>
					<path style="fill:#444444;" d="M433.1,472v1.4c0,0.5,0,1-0.1,1.4h5.4c-0.1,2.4-0.1,4.4-0.3,5.9c-0.1,1.5-0.4,2.5-0.7,3.1
						c-0.3,0.6-0.9,0.9-1.6,0.9H434l-0.3-1c0.6,0,1.1,0,1.6,0c0.8,0,1.3-0.5,1.6-1.5c0.3-1,0.4-3.2,0.5-6.5h-4.4
						c-0.2,2-0.6,3.6-1.2,5c-0.8,1.7-2.2,3-4.1,4l-0.5-0.9c1.8-1,3.1-2.3,3.9-3.9c0.5-1.2,0.8-2.6,0.9-4.2h-4.1v-1h4.2
						c0-0.5,0-1,0.1-1.4V472H433.1z"/>
					<path style="fill:#444444;" d="M452.3,473.5l-0.6,0.6h1.7v1h-4.3c0.1,1.7,0.3,3.1,0.5,4.1c0.1,0.3,0.2,0.7,0.3,1
						c0.7-1.1,1.3-2.4,1.7-3.9l0.9,0.4c-0.6,1.8-1.3,3.4-2.2,4.7c0.2,0.4,0.4,0.8,0.6,1.2c0.5,0.7,0.8,1,1.1,1
						c0.3,0,0.5-0.7,0.7-2.2l0.9,0.5c-0.3,1.9-0.8,2.8-1.4,2.8c-0.6,0-1.2-0.4-1.9-1.3c-0.3-0.3-0.5-0.7-0.7-1.2
						c-1,1.1-2.1,2-3.4,2.6l-0.6-0.8c1.4-0.6,2.6-1.6,3.6-2.8c-0.2-0.5-0.4-1.1-0.5-1.7c-0.3-1.2-0.5-2.6-0.6-4.4h-4.8v2.3h3.4
						c0,2.4-0.1,3.9-0.3,4.6c-0.2,0.6-0.6,0.9-1.3,0.9c-0.3,0-0.7,0-1.2-0.1l-0.3-0.9c0.5,0,1,0,1.4,0c0.3,0,0.5-0.2,0.6-0.6
						c0.1-0.5,0.1-1.5,0.2-3h-2.4v0.4c-0.1,2.5-0.6,4.5-1.7,6l-0.8-0.7c0.9-1.3,1.4-3.1,1.4-5.4v-4.7h5.8c0-0.7,0-1.4,0-2.2h1
						c0,0.8,0,1.5,0,2.2h2.6c-0.4-0.5-1-1-1.7-1.6l0.6-0.6C451.3,472.4,451.9,472.9,452.3,473.5z"/>
					<path style="fill:#444444;" d="M460.7,474.5V472h1v2.5h5.5v1h-4.6c0.9,2.2,2.6,4.2,5,6l-0.7,0.9c-2.5-2-4.2-4.3-5.1-6.8h-0.1
						v5.5h3v1h-3v2.9h-1v-2.9h-2.9v-1h2.9v-5.5h-0.1c-1,2.8-2.8,5.2-5.3,7l-0.6-0.9c2.4-1.6,4-3.6,5.1-6.1h-4.6v-1H460.7z"/>
					<path style="fill:#444444;" d="M475.8,473.1h5.5v0.9H469v-0.9h5.7c-0.1-0.4-0.3-0.7-0.5-1.1l1.1-0.2
						C475.5,472.2,475.7,472.7,475.8,473.1z M478,484.8l-0.2-0.9l1.1,0c0.6,0,0.9-0.2,0.9-0.7v-3.8h-9v5.4h-1v-6.3h11v4.9
						c0,0.9-0.5,1.3-1.5,1.3H478z M479.1,475v2.7h-7.8V475H479.1z M478.1,475.7h-5.9v1.1h5.9V475.7z M478,480.3v2.8h-5.5v-2.8H478z
						 M477.1,481.1h-3.7v1.3h3.7V481.1z"/>
				</g>
			</g>
		</g>
	</g>
</g>
<path style="fill:#CEE3FF;" d="M28.1,203H243v103H28.1V203"/>
<g id="maingroup_30_" transform="translate(0,0)">
	<g>
		<g id="Rects1_66_" transform="translate(220,163)">
			<g transform="translate(20 9)">
				<g style="enable-background:new    ;">
					<path style="fill:#00A4FF;" d="M-176.8,50.2c-0.1,0.3-0.2,0.5-0.3,0.8h2.9v0.8c-0.3,0.9-0.8,1.7-1.6,2.4c0.7,0.3,1.3,0.6,1.9,1
						l-0.5,0.8c-0.6-0.4-1.3-0.7-2.2-1.1c-0.9,0.6-2.1,1.2-3.5,1.6l-0.5-0.8c1.1-0.3,2.1-0.7,3-1.1c-0.6-0.3-1.3-0.5-1.9-0.8
						c0.4-0.6,0.7-1.2,1-1.8h-1.7V51h2c0.1-0.3,0.2-0.6,0.3-0.9L-176.8,50.2z M-177.3,46.2v-2.7h0.9v2.7h2.5v0.9h-2.5v0.2
						c0.8,0.4,1.5,0.8,2.3,1.3l-0.5,0.8c-0.7-0.6-1.3-1-1.8-1.3v1.8h-0.9v-2.7c-0.5,1.1-1.3,2.1-2.5,2.9l-0.5-0.8
						c1.1-0.6,1.8-1.3,2.3-2.1h-2v-0.9H-177.3z M-178.1,45.6l-0.7,0.3c-0.3-0.7-0.6-1.3-0.9-1.8l0.8-0.3
						C-178.6,44.4-178.4,45-178.1,45.6z M-175,51.8h-2.4c-0.2,0.5-0.5,0.9-0.8,1.3c0.6,0.2,1.1,0.4,1.6,0.6
						C-175.9,53.2-175.4,52.6-175,51.8z M-174,44.1c-0.3,0.6-0.6,1.2-1.1,1.8l-0.7-0.4c0.4-0.6,0.8-1.2,1.1-1.8L-174,44.1z
						 M-172.5,48.9c-0.3,0.6-0.5,1.2-0.8,1.7l-0.6-0.8c0.8-1.6,1.4-3.7,1.7-6.3l1,0.2c-0.1,0.7-0.2,1.4-0.3,2h3.7v1h-0.9
						c-0.1,2.3-0.5,4.3-1.3,6c0.7,1.3,1.6,2.2,2.6,2.9l-0.5,0.8c-1-0.7-1.8-1.7-2.5-2.8c-0.7,1.1-1.5,2.1-2.6,2.8l-0.5-0.8
						c1.1-0.8,1.9-1.7,2.6-2.9C-171.6,51.6-172.1,50.3-172.5,48.9z M-172,47.4c0.4,1.6,0.8,3.1,1.4,4.2c0.5-1.4,0.8-3.1,0.9-5h-2.1
						L-172,47.4z"/>
					<path style="fill:#00A4FF;" d="M-165.9,56.3l-0.2-1c0.4,0,0.7,0.1,1.1,0.1c0.4,0,0.5-0.2,0.5-0.6v-3.4
						c-0.6,0.2-1.1,0.4-1.7,0.6l-0.3-1c0.6-0.2,1.3-0.4,1.9-0.6v-3.2h-1.7v-1h1.7v-2.6h1v2.6h1.3v1h-1.3V50c0.4-0.2,0.9-0.4,1.3-0.6
						v1c-0.4,0.2-0.9,0.4-1.3,0.6V55c0,0.8-0.4,1.2-1.2,1.2H-165.9z M-162.2,56.4l-0.8-0.7c1-1.8,1.5-4.3,1.5-7.2v-4.4h7.4v3.4h-2.6
						v1.7h3v0.9h-3v1.7h2.4v4.6h-0.9v-0.7h-3.8v0.7h-0.9v-4.6h2.3v-1.7h-2.9C-160.7,52.5-161.2,54.6-162.2,56.4z M-160.4,47.5v1
						c0,0.2,0,0.4,0,0.7h2.8v-1.7H-160.4z M-160.4,45.1v1.6h5.4v-1.6H-160.4z M-155.3,54.8v-2.1h-3.8v2.1H-155.3z"/>
					<path style="fill:#00A4FF;" d="M-148,50.1c-0.5,0.3-1,0.5-1.4,0.7v4.2c0,0.8-0.4,1.2-1.2,1.2h-1.2l-0.2-1
						c0.4,0,0.7,0.1,1.1,0.1c0.4,0,0.6-0.2,0.6-0.5v-3.5c-0.6,0.2-1.1,0.4-1.7,0.6l-0.3-1c0.7-0.2,1.3-0.4,1.9-0.6v-3.2h-1.8v-1h1.8
						v-2.5h1v2.5h1.4v1h-1.4v2.8c0.5-0.2,1-0.5,1.4-0.8V50.1z M-140.1,56.3h-1v-0.7h-5.2v0.7h-1V46h3v-2.5h1V46h3.1V56.3z
						 M-144.2,50.3V47h-2.1v3.2H-144.2z M-144.2,54.6v-3.4h-2.1v3.4H-144.2z M-143.2,50.3h2.1V47h-2.1V50.3z M-143.2,54.6h2.1v-3.4
						h-2.1V54.6z"/>
					<path style="fill:#00A4FF;" d="M-131.3,53.6c-0.4,0.1-0.9,0.2-1.3,0.3v2.5h-1v-2.3c-1.5,0.3-3,0.6-4.5,0.8l-0.2-1
						c0.4-0.1,0.8-0.1,1.3-0.2v-8.7h-1.1v-1h6.7v0.8h5.4v0.9c-0.3,2.6-1,4.8-1.9,6.6c0.7,1.1,1.5,2.2,2.5,3.2l-0.7,0.8
						c-0.9-1-1.7-2-2.4-3c-0.8,1.2-1.7,2.2-2.7,3l-0.7-0.8c1.1-0.9,2.1-2,2.8-3.2c-1-2-1.7-4.2-1.8-6.5h-0.6v-0.8h-1.1v7.8
						c0.4-0.1,0.9-0.2,1.3-0.3V53.6z M-133.6,47.2v-2.2h-2.5v2.2H-133.6z M-133.6,50.3v-2.1h-2.5v2.1H-133.6z M-133.6,51.2h-2.5v2.4
						c0.9-0.1,1.7-0.3,2.5-0.5V51.2z M-128.6,51.4c0.8-1.6,1.3-3.4,1.5-5.5h-3C-129.9,47.9-129.4,49.7-128.6,51.4z"/>
				</g>
			</g>
		</g>
	</g>
</g>
<g>
	<g>
		<rect x="42.1" y="244" style="opacity:0.6;fill:#BBBBBB;enable-background:new    ;" width="188.9" height="50"/>
		<g>
			<rect x="40.6" y="242.5" style="fill:#FFFFFF;" width="187.9" height="49"/>
			<path style="fill:#E5E5E5;" d="M228,243v48H41.1v-48H228 M229,242H40.1v50H229V242L229,242z"/>
		</g>
	</g>
	<g id="maingroup_29_" transform="translate(0,0)">
		<g id="Rects1_29_" transform="translate(220,163)">
			<g transform="translate(20 9)">
				<g style="enable-background:new    ;">
					<path style="fill:#444444;" d="M-131.6,101.7l-0.8-0.7c0.9-1.2,1.4-2.8,1.4-4.7v-6.7h10.4V100c0,1-0.5,1.5-1.5,1.5h-1.6l-0.3-1
						c0.6,0,1.1,0.1,1.6,0.1c0.5,0,0.8-0.3,0.8-0.9v-2.4h-3.8v4.1h-1v-4.1h-3.6C-130.2,99-130.7,100.5-131.6,101.7z M-130,90.5v2.4
						h3.6v-2.4H-130z M-130,96.3h3.6v-2.5h-3.6V96.3z M-121.6,90.5h-3.8v2.4h3.8V90.5z M-121.6,93.8h-3.8v2.5h3.8V93.8z"/>
					<path style="fill:#444444;" d="M-117.8,101.9l-0.7-0.7c1.1-1.6,1.7-3.6,1.7-6.1v-4.4h4.6c-0.3-0.6-0.5-1.1-0.8-1.6l1.1-0.2
						c0.3,0.5,0.5,1.1,0.8,1.8h4.4v4.7h-9C-115.9,97.9-116.5,100-117.8,101.9z M-115.8,91.7v2.7h8v-2.7H-115.8z"/>
					<path style="fill:#444444;" d="M-100.8,95.6c-0.1,0.3-0.2,0.5-0.3,0.8h2.9v0.8c-0.3,0.9-0.8,1.7-1.6,2.4c0.7,0.3,1.3,0.6,1.9,1
						l-0.5,0.8c-0.6-0.4-1.3-0.7-2.2-1.1c-0.9,0.6-2.1,1.2-3.5,1.6l-0.5-0.8c1.1-0.3,2.1-0.7,3-1.1c-0.6-0.3-1.3-0.5-1.9-0.8
						c0.4-0.6,0.7-1.2,1-1.8h-1.7v-0.9h2c0.1-0.3,0.2-0.6,0.3-0.9L-100.8,95.6z M-101.3,91.6V89h0.9v2.7h2.5v0.9h-2.5v0.2
						c0.8,0.4,1.5,0.8,2.3,1.3l-0.5,0.8c-0.7-0.6-1.3-1-1.8-1.3v1.8h-0.9v-2.7c-0.5,1.1-1.3,2.1-2.5,2.9l-0.5-0.8
						c1.1-0.6,1.8-1.3,2.3-2.1h-2v-0.9H-101.3z M-102.1,91l-0.7,0.3c-0.3-0.7-0.6-1.3-0.9-1.8l0.8-0.3
						C-102.6,89.8-102.4,90.4-102.1,91z M-99,97.2h-2.4c-0.2,0.5-0.5,0.9-0.8,1.3c0.6,0.2,1.1,0.4,1.6,0.6
						C-99.9,98.6-99.4,98-99,97.2z M-98,89.5c-0.3,0.6-0.6,1.2-1.1,1.8l-0.7-0.4c0.4-0.6,0.8-1.2,1.1-1.8L-98,89.5z M-96.5,94.3
						c-0.3,0.6-0.5,1.2-0.8,1.7l-0.6-0.8c0.8-1.6,1.4-3.7,1.7-6.3l1,0.2c-0.1,0.7-0.2,1.4-0.3,2h3.7v1h-0.9c-0.1,2.3-0.5,4.3-1.3,6
						c0.7,1.3,1.6,2.2,2.6,2.9l-0.5,0.8c-1-0.7-1.8-1.7-2.5-2.8c-0.7,1.1-1.5,2.1-2.6,2.8l-0.5-0.8c1.1-0.8,1.9-1.7,2.6-2.9
						C-95.6,96.9-96.1,95.7-96.5,94.3z M-96,92.8c0.4,1.6,0.8,3.1,1.4,4.2c0.5-1.4,0.8-3.1,0.9-5h-2.1L-96,92.8z"/>
					<path style="fill:#444444;" d="M-89.9,101.7l-0.2-1c0.4,0,0.7,0.1,1.1,0.1c0.4,0,0.5-0.2,0.5-0.6v-3.4
						c-0.6,0.2-1.1,0.4-1.7,0.6l-0.3-1c0.6-0.2,1.3-0.4,1.9-0.6v-3.2h-1.7v-1h1.7V89h1v2.6h1.3v1h-1.3v2.8c0.4-0.2,0.9-0.4,1.3-0.6
						v1c-0.4,0.2-0.9,0.4-1.3,0.6v4.1c0,0.8-0.4,1.2-1.2,1.2H-89.9z M-86.2,101.8l-0.8-0.7c1-1.8,1.5-4.3,1.5-7.2v-4.4h7.4v3.4h-2.6
						v1.7h3v0.9h-3v1.7h2.4v4.6h-0.9v-0.7h-3.8v0.7H-84v-4.6h2.3v-1.7h-2.9C-84.7,97.9-85.2,100-86.2,101.8z M-84.4,92.9v1
						c0,0.2,0,0.4,0,0.7h2.8v-1.7H-84.4z M-84.4,90.5V92h5.4v-1.6H-84.4z M-79.3,100.2v-2.1h-3.8v2.1H-79.3z"/>
				</g>
			</g>
		</g>
	</g>
</g>
<g id="Link24_4_" transform="translate(0,0)">
	<path style="fill:none;stroke:#888888;" d="M243,255h60"/>
	<g transform="translate(0, -0.5)">
		<polygon style="fill:#888888;" points="300,259.5 305,255.5 300,251.5 		"/>
	</g>
</g>
<g id="Link24_3_" transform="translate(0,0)">
	<path style="fill:none;stroke:#888888;" d="M522,255h60"/>
	<g transform="translate(0, -0.5)">
		<polygon style="fill:#888888;" points="579,259.5 584,255.5 579,251.5 		"/>
	</g>
</g>
<g id="Link24_2_" transform="translate(0,0)">
	<path style="fill:none;stroke:#888888;" d="M587,462h-60"/>
	<g transform="translate(0, -0.5)">
		<polygon style="fill:#888888;" points="530,466.5 525,462.5 530,458.5 		"/>
	</g>
</g>
<g id="Link24_1_" transform="translate(0,0)">
	<path style="fill:none;stroke:#888888;" d="M695,306v98"/>
	<g transform="translate(0, -0.5)">
		<polygon style="fill:#888888;" points="691,401.5 695,406.5 699,401.5 		"/>
	</g>
</g>
<path style="fill:#CEE3FF;" d="M308,203h214v167H308V203"/>
<g id="maingroup_10_" transform="translate(0,0)">
	<g>
		<g id="Rects1_65_" transform="translate(220,163)">
			<g transform="translate(20 9)">
				<g style="enable-background:new    ;">
					<path style="fill:#00A4FF;" d="M103.2,50.2c-0.1,0.3-0.2,0.5-0.3,0.8h2.9v0.8c-0.3,0.9-0.8,1.7-1.6,2.4c0.7,0.3,1.3,0.6,1.9,1
						l-0.5,0.8c-0.6-0.4-1.3-0.7-2.2-1.1c-0.9,0.6-2.1,1.2-3.5,1.6l-0.5-0.8c1.1-0.3,2.1-0.7,3-1.1c-0.6-0.3-1.3-0.5-1.9-0.8
						c0.4-0.6,0.7-1.2,1-1.8h-1.7V51h2c0.1-0.3,0.2-0.6,0.3-0.9L103.2,50.2z M102.6,46.2v-2.7h0.9v2.7h2.5v0.9h-2.5v0.2
						c0.8,0.4,1.5,0.8,2.3,1.3l-0.5,0.8c-0.7-0.6-1.3-1-1.8-1.3v1.8h-0.9v-2.7c-0.5,1.1-1.3,2.1-2.5,2.9l-0.5-0.8
						c1.1-0.6,1.8-1.3,2.3-2.1h-2v-0.9H102.6z M101.8,45.6l-0.7,0.3c-0.3-0.7-0.6-1.3-0.9-1.8l0.8-0.3
						C101.3,44.4,101.6,45,101.8,45.6z M104.9,51.8h-2.4c-0.2,0.5-0.5,0.9-0.8,1.3c0.6,0.2,1.1,0.4,1.6,0.6
						C104,53.2,104.6,52.6,104.9,51.8z M105.9,44.1c-0.3,0.6-0.6,1.2-1.1,1.8l-0.7-0.4c0.4-0.6,0.8-1.2,1.1-1.8L105.9,44.1z
						 M107.5,48.9c-0.3,0.6-0.5,1.2-0.8,1.7l-0.6-0.8c0.8-1.6,1.4-3.7,1.7-6.3l1,0.2c-0.1,0.7-0.2,1.4-0.3,2h3.7v1h-0.9
						c-0.1,2.3-0.5,4.3-1.3,6c0.7,1.3,1.6,2.2,2.6,2.9l-0.5,0.8c-1-0.7-1.8-1.7-2.5-2.8c-0.7,1.1-1.5,2.1-2.6,2.8l-0.5-0.8
						c1.1-0.8,1.9-1.7,2.6-2.9C108.3,51.6,107.9,50.3,107.5,48.9z M108,47.4c0.4,1.6,0.8,3.1,1.4,4.2c0.5-1.4,0.8-3.1,0.9-5h-2.1
						L108,47.4z"/>
					<path style="fill:#00A4FF;" d="M114,56.3l-0.2-1c0.4,0,0.7,0.1,1.1,0.1c0.4,0,0.5-0.2,0.5-0.6v-3.4c-0.6,0.2-1.1,0.4-1.7,0.6
						l-0.3-1c0.6-0.2,1.3-0.4,1.9-0.6v-3.2h-1.7v-1h1.7v-2.6h1v2.6h1.3v1h-1.3V50c0.4-0.2,0.9-0.4,1.3-0.6v1
						c-0.4,0.2-0.9,0.4-1.3,0.6V55c0,0.8-0.4,1.2-1.2,1.2H114z M117.8,56.4l-0.8-0.7c1-1.8,1.5-4.3,1.5-7.2v-4.4h7.4v3.4h-2.6v1.7h3
						v0.9h-3v1.7h2.4v4.6h-0.9v-0.7h-3.8v0.7h-0.9v-4.6h2.3v-1.7h-2.9C119.2,52.5,118.7,54.6,117.8,56.4z M119.5,47.5v1
						c0,0.2,0,0.4,0,0.7h2.8v-1.7H119.5z M119.5,45.1v1.6h5.4v-1.6H119.5z M124.7,54.8v-2.1h-3.8v2.1H124.7z"/>
					<path style="fill:#00A4FF;" d="M130.1,46.9c0.5-0.5,1-1.2,1.4-1.9h-3.5v-0.9h4.6v0.8c-0.6,1-1.2,1.9-1.9,2.7
						c0.3,0.3,0.5,0.6,0.7,0.8h1.6V49c-0.2,1.1-0.5,1.9-0.8,2.6l-0.8-0.3c0.3-0.5,0.5-1.2,0.7-1.9h-1.5v5.9c0,0.7-0.4,1.1-1.1,1.1
						h-1.3l-0.2-0.9c0.4,0,0.8,0.1,1.2,0.1c0.3,0,0.4-0.2,0.4-0.5v-5.6h-2v-0.9h2.7c-0.5-0.6-1.2-1.3-2-2.1l0.7-0.5
						C129.4,46.3,129.8,46.6,130.1,46.9z M137.3,48.3v2.5c0,1.5-0.4,2.7-1,3.6c-0.6,0.8-1.6,1.5-3,1.9l-0.5-0.9
						c1.3-0.4,2.3-1,2.8-1.7c0.5-0.8,0.7-1.7,0.8-2.9v-2.5H137.3z M140.3,44.1v1h-2.8c-0.1,0.5-0.2,1.1-0.3,1.6h2.6v6.6h-1v-5.7h-4
						v5.7h-1v-6.6h2.3c0.1-0.5,0.2-1,0.3-1.6h-3.1v-1H140.3z M140.4,55.7l-0.7,0.7c-0.6-0.8-1.5-1.6-2.5-2.5l0.6-0.6
						C138.9,54.1,139.7,54.9,140.4,55.7z"/>
					<path style="fill:#00A4FF;" d="M145.3,43.7c-0.1,0.7-0.3,1.4-0.4,2h3.1v0.9c-0.4,2.5-1.1,4.5-2.2,6.2c0.3,0.5,0.7,0.9,1.1,1.2
						c1.1,0.8,2.8,1.2,5.2,1.2c0.7,0,1.5,0,2.2-0.1l-0.2,1.1h-1.5c-2.9,0-5-0.5-6.3-1.4c-0.4-0.3-0.7-0.7-1.1-1.1
						c-0.9,1.1-1.9,2-3.1,2.7l-0.5-1c1.2-0.7,2.2-1.6,3-2.7c-0.5-0.9-0.9-2-1.2-3.2c-0.4,0.7-0.8,1.2-1.2,1.8l-0.7-0.9
						c1.3-1.7,2.2-3.9,2.7-6.7L145.3,43.7z M145.3,51.7c0.8-1.4,1.4-3.1,1.8-5h-2.4c-0.2,0.5-0.4,1-0.5,1.5
						C144.4,49.6,144.8,50.8,145.3,51.7z M150.9,43.6v3.6c1.1,0.8,2.3,1.8,3.5,2.9l-0.6,0.9c-1.1-1.1-2.1-2.1-2.9-2.7v5.8h-1V43.6
						H150.9z"/>
					<path style="fill:#00A4FF;" d="M157.3,48.8v-3.3h-1.7v-1h4.5v1h-1.7v3.3h1.5v1h-1.5v3.2c0.5-0.2,1-0.4,1.5-0.6v1
						c-1.3,0.5-2.7,1-4.2,1.3l-0.3-1c0.6-0.1,1.2-0.3,1.8-0.4v-3.5h-1.5v-1H157.3z M167.6,44.1v6.5h-2.9v1.7h3.2v1h-3.2V55h3.7v1
						h-8.4v-1h3.8v-1.8h-3.2v-1h3.2v-1.7h-2.9v-6.5H167.6z M163.7,46.9V45h-2v1.9H163.7z M163.7,47.8h-2v1.9h2V47.8z M164.7,46.9
						h1.9V45h-1.9V46.9z M166.6,47.8h-1.9v1.9h1.9V47.8z"/>
				</g>
			</g>
		</g>
	</g>
</g>
<g>
	<g>
		<rect x="322" y="244" style="opacity:0.6;fill:#BBBBBB;enable-background:new    ;" width="188" height="50"/>
		<g>
			<rect x="320.5" y="242.5" style="fill:#FFFFFF;" width="187" height="49"/>
			<path style="fill:#E5E5E5;" d="M507,243v48H321v-48H507 M508,242H320v50h188V242L508,242z"/>
		</g>
	</g>
	<g id="maingroup_9_" transform="translate(0,0)">
		<g id="Rects1_8_" transform="translate(220,163)">
			<g transform="translate(20 9)">
				<g style="enable-background:new    ;">
					<path style="fill:#444444;" d="M130,91c0.7,0.5,1.1,1.3,1.1,2.4H130c-0.1-0.7-0.4-1.3-0.8-1.6c-0.4-0.4-1.1-0.5-1.9-0.5
						c-0.7,0-1.3,0.1-1.7,0.4c-0.5,0.3-0.7,0.7-0.7,1.3c0,0.5,0.3,0.9,0.9,1.2c0.3,0.1,0.9,0.4,1.8,0.6c1.3,0.4,2.2,0.7,2.6,1
						c0.8,0.5,1.2,1.2,1.2,2.1c0,0.9-0.4,1.6-1.1,2.1c-0.7,0.5-1.6,0.7-2.8,0.7c-1.2,0-2.1-0.3-2.8-0.8c-0.8-0.6-1.2-1.5-1.3-2.7
						h1.1c0.1,0.9,0.4,1.5,0.9,1.9c0.5,0.4,1.1,0.6,2,0.6c0.8,0,1.5-0.2,2-0.5c0.5-0.3,0.8-0.7,0.8-1.3c0-0.6-0.3-1.1-1-1.5
						c-0.3-0.2-1-0.4-2.1-0.7c-1.2-0.4-2-0.6-2.3-0.8c-0.8-0.4-1.1-1.1-1.1-1.9c0-0.9,0.4-1.6,1.1-2c0.7-0.4,1.5-0.7,2.5-0.7
						C128.4,90.2,129.3,90.5,130,91z"/>
					<path style="fill:#444444;" d="M134.6,93.2h1.8v0.9h-1.8v4.6c0,0.3,0,0.5,0.2,0.6c0.1,0.1,0.3,0.2,0.5,0.2h0.9v0.9h-1.1
						c-0.6,0-1-0.2-1.3-0.5c-0.2-0.3-0.4-0.7-0.4-1.2v-4.6H132v-0.9h1.5v-1.9l1.1-0.5V93.2z"/>
					<path style="fill:#444444;" d="M143.1,93.8c0.4,0.5,0.6,1.1,0.6,2v4.7h-1.1v-1.2c-0.3,0.4-0.7,0.7-1.1,1
						c-0.5,0.3-1.1,0.4-1.8,0.4c-0.7,0-1.3-0.2-1.7-0.5c-0.4-0.4-0.7-0.9-0.7-1.5c0-0.8,0.3-1.4,1-1.9c0.6-0.4,1.4-0.6,2.5-0.6
						l1.7,0v-0.4c0-1.2-0.6-1.8-1.9-1.8c-0.5,0-1,0.1-1.3,0.3c-0.4,0.2-0.6,0.6-0.7,1l-1.1-0.1c0.2-0.8,0.5-1.3,1.1-1.7
						c0.5-0.3,1.2-0.5,2.1-0.5C141.8,93,142.6,93.2,143.1,93.8z M140.9,96.9c-1.6,0-2.4,0.6-2.4,1.6c0,0.3,0.1,0.6,0.4,0.8
						c0.3,0.2,0.6,0.3,1.1,0.3c0.7,0,1.3-0.2,1.8-0.7c0.5-0.4,0.8-0.9,0.8-1.5v-0.6L140.9,96.9z"/>
					<path style="fill:#444444;" d="M151.6,95.9v4.5h-1.1V96c0-1.4-0.6-2.1-1.9-2.1c-0.5,0-0.9,0.2-1.3,0.5
						c-0.4,0.4-0.6,0.9-0.6,1.6v4.4h-1.1v-7.2h1.1v1.1c0.3-0.4,0.6-0.7,1-0.9c0.4-0.2,0.8-0.3,1.3-0.3C150.7,93,151.6,94,151.6,95.9
						z"/>
					<path style="fill:#444444;" d="M159.8,90.2v10.2h-1.1v-1.2c-0.5,0.9-1.3,1.4-2.4,1.4c-1.1,0-1.9-0.4-2.5-1.1
						c-0.5-0.7-0.8-1.6-0.8-2.7c0-1.1,0.3-1.9,0.8-2.6c0.6-0.8,1.4-1.2,2.4-1.2c1,0,1.8,0.5,2.4,1.5v-4.3H159.8z M154.7,94.7
						c-0.4,0.5-0.5,1.2-0.5,2c0,0.9,0.2,1.6,0.5,2.1c0.4,0.6,1,0.9,1.8,0.9c0.7,0,1.3-0.3,1.7-0.8c0.4-0.5,0.5-1.2,0.5-2v-0.1
						c0-0.8-0.2-1.5-0.6-2c-0.4-0.5-0.9-0.8-1.6-0.8C155.7,93.9,155.1,94.2,154.7,94.7z"/>
					<path style="fill:#444444;" d="M167,93.8c0.4,0.5,0.6,1.1,0.6,2v4.7h-1.1v-1.2c-0.3,0.4-0.7,0.7-1.1,1
						c-0.5,0.3-1.1,0.4-1.8,0.4c-0.7,0-1.3-0.2-1.7-0.5c-0.4-0.4-0.7-0.9-0.7-1.5c0-0.8,0.3-1.4,1-1.9c0.6-0.4,1.4-0.6,2.5-0.6
						l1.7,0v-0.4c0-1.2-0.6-1.8-1.9-1.8c-0.5,0-1,0.1-1.3,0.3c-0.4,0.2-0.6,0.6-0.7,1l-1.1-0.1c0.2-0.8,0.5-1.3,1.1-1.7
						c0.5-0.3,1.2-0.5,2.1-0.5C165.7,93,166.5,93.2,167,93.8z M164.8,96.9c-1.6,0-2.4,0.6-2.4,1.6c0,0.3,0.1,0.6,0.4,0.8
						c0.3,0.2,0.6,0.3,1.1,0.3c0.7,0,1.3-0.2,1.8-0.7c0.5-0.4,0.8-0.9,0.8-1.5v-0.6L164.8,96.9z"/>
					<path style="fill:#444444;" d="M173.5,93.1v1.1c-0.4-0.1-0.7-0.2-1.1-0.2c-0.6,0-1,0.2-1.4,0.7c-0.4,0.5-0.6,1.1-0.6,1.7v3.8
						h-1.1v-7.2h1.1v1.3c0.2-0.4,0.4-0.8,0.8-1c0.4-0.3,0.8-0.5,1.3-0.5C172.9,93,173.2,93,173.5,93.1z"/>
					<path style="fill:#444444;" d="M180.9,90.2v10.2h-1.1v-1.2c-0.5,0.9-1.3,1.4-2.4,1.4c-1.1,0-1.9-0.4-2.5-1.1
						c-0.5-0.7-0.8-1.6-0.8-2.7c0-1.1,0.3-1.9,0.8-2.6c0.6-0.8,1.4-1.2,2.4-1.2c1,0,1.8,0.5,2.4,1.5v-4.3H180.9z M175.8,94.7
						c-0.4,0.5-0.5,1.2-0.5,2c0,0.9,0.2,1.6,0.5,2.1c0.4,0.6,1,0.9,1.8,0.9c0.7,0,1.3-0.3,1.7-0.8c0.4-0.5,0.5-1.2,0.5-2v-0.1
						c0-0.8-0.2-1.5-0.6-2c-0.4-0.5-0.9-0.8-1.6-0.8C176.8,93.9,176.2,94.2,175.8,94.7z"/>
					<path style="fill:#444444;" d="M193.5,91c0.7,0.5,1,1.3,1.1,2.4h-1.1c-0.1-0.7-0.4-1.3-0.8-1.6c-0.4-0.4-1.1-0.5-1.9-0.5
						c-0.7,0-1.3,0.1-1.7,0.4c-0.5,0.3-0.7,0.7-0.7,1.3c0,0.5,0.3,0.9,0.9,1.2c0.3,0.1,0.9,0.4,1.8,0.6c1.3,0.4,2.2,0.7,2.6,1
						c0.8,0.5,1.2,1.2,1.2,2.1c0,0.9-0.3,1.6-1.1,2.1c-0.7,0.5-1.6,0.7-2.8,0.7c-1.2,0-2.1-0.3-2.8-0.8c-0.8-0.6-1.2-1.5-1.3-2.7
						h1.1c0.1,0.9,0.4,1.5,0.9,1.9c0.5,0.4,1.1,0.6,2,0.6c0.8,0,1.5-0.2,2-0.5c0.5-0.3,0.8-0.7,0.8-1.3c0-0.6-0.3-1.1-1-1.5
						c-0.3-0.2-1-0.4-2.1-0.7c-1.2-0.4-2-0.6-2.3-0.8c-0.8-0.4-1.1-1.1-1.1-1.9c0-0.9,0.4-1.6,1.1-2c0.7-0.4,1.5-0.7,2.5-0.7
						C191.9,90.2,192.8,90.5,193.5,91z"/>
					<path style="fill:#444444;" d="M201.4,93.6c0.6,0.4,0.9,1.1,1,2h-1.1c-0.1-0.6-0.3-1-0.7-1.3c-0.4-0.3-0.8-0.4-1.4-0.4
						c-0.7,0-1.3,0.3-1.7,0.8c-0.4,0.5-0.6,1.2-0.6,2.1c0,0.9,0.2,1.6,0.6,2.1c0.4,0.5,0.9,0.8,1.7,0.8c1.2,0,1.9-0.6,2.1-1.9h1.1
						c-0.2,0.9-0.5,1.6-1.1,2.1c-0.5,0.5-1.3,0.7-2.2,0.7c-1.1,0-1.9-0.4-2.5-1.1c-0.6-0.7-0.9-1.6-0.9-2.7s0.3-2,0.9-2.7
						c0.6-0.8,1.5-1.1,2.5-1.1C200.2,93,200.9,93.2,201.4,93.6z"/>
					<path style="fill:#444444;" d="M209.3,93.8c0.4,0.5,0.6,1.1,0.6,2v4.7h-1.1v-1.2c-0.3,0.4-0.7,0.7-1.1,1
						c-0.5,0.3-1.1,0.4-1.8,0.4c-0.7,0-1.3-0.2-1.7-0.5c-0.4-0.4-0.7-0.9-0.7-1.5c0-0.8,0.3-1.4,1-1.9c0.6-0.4,1.4-0.6,2.5-0.6
						l1.7,0v-0.4c0-1.2-0.6-1.8-1.9-1.8c-0.5,0-1,0.1-1.3,0.3c-0.4,0.2-0.6,0.6-0.7,1l-1.1-0.1c0.2-0.8,0.5-1.3,1.1-1.7
						c0.5-0.3,1.2-0.5,2.1-0.5C208,93,208.8,93.2,209.3,93.8z M207.1,96.9c-1.6,0-2.4,0.6-2.4,1.6c0,0.3,0.1,0.6,0.4,0.8
						c0.3,0.2,0.6,0.3,1.1,0.3c0.7,0,1.3-0.2,1.8-0.7c0.5-0.4,0.8-0.9,0.8-1.5v-0.6L207.1,96.9z"/>
					<path style="fill:#444444;" d="M213,90.2v10.2h-1.1V90.2H213z"/>
					<path style="fill:#444444;" d="M220.6,94.1c0.5,0.7,0.8,1.7,0.8,3h-5.7c0.1,0.8,0.3,1.4,0.7,1.9c0.4,0.4,0.9,0.7,1.6,0.7
						c0.6,0,1.1-0.2,1.4-0.4c0.3-0.3,0.5-0.6,0.7-1.1h1.1c-0.2,0.7-0.5,1.3-1,1.7c-0.6,0.5-1.4,0.8-2.3,0.8c-1,0-1.9-0.4-2.5-1
						c-0.6-0.7-1-1.6-1-2.8c0-1.1,0.3-2,0.9-2.7c0.6-0.8,1.4-1.1,2.5-1.1C219.1,93,220,93.3,220.6,94.1z M216.4,94.5
						c-0.4,0.4-0.6,1-0.7,1.7h4.5c-0.1-1.6-0.9-2.3-2.3-2.3C217.3,93.9,216.8,94.1,216.4,94.5z"/>
					<path style="fill:#444444;" d="M226.9,93.1v1.1c-0.4-0.1-0.7-0.2-1.1-0.2c-0.6,0-1,0.2-1.4,0.7c-0.4,0.5-0.6,1.1-0.6,1.7v3.8
						h-1.1v-7.2h1.1v1.3c0.2-0.4,0.4-0.8,0.8-1c0.4-0.3,0.8-0.5,1.3-0.5C226.3,93,226.6,93,226.9,93.1z"/>
				</g>
			</g>
		</g>
	</g>
</g>
<g>
	<g>
		<rect x="322" y="308" style="opacity:0.6;fill:#BBBBBB;enable-background:new    ;" width="188" height="50"/>
		<g>
			<rect x="320.5" y="306.5" style="fill:#FFFFFF;" width="187" height="49"/>
			<path style="fill:#E5E5E5;" d="M507,307v48H321v-48H507 M508,306H320v50h188V306L508,306z"/>
		</g>
	</g>
	<g id="maingroup_8_" transform="translate(0,0)">
		<g id="Rects1_7_" transform="translate(220,163)">
			<g transform="translate(20 9)">
				<g style="enable-background:new    ;">
					<path style="fill:#444444;" d="M136.8,155c0.7,0.5,1.1,1.3,1.1,2.4h-1.1c-0.1-0.7-0.4-1.3-0.8-1.6c-0.4-0.4-1.1-0.5-1.9-0.5
						c-0.7,0-1.3,0.1-1.7,0.4c-0.5,0.3-0.7,0.7-0.7,1.3c0,0.5,0.3,0.9,0.9,1.2c0.3,0.1,0.9,0.4,1.8,0.6c1.3,0.4,2.2,0.7,2.6,1
						c0.8,0.5,1.2,1.2,1.2,2.1c0,0.9-0.4,1.6-1.1,2.1c-0.7,0.5-1.6,0.7-2.8,0.7c-1.2,0-2.1-0.3-2.8-0.8c-0.8-0.6-1.2-1.5-1.3-2.7
						h1.1c0.1,0.9,0.4,1.5,0.9,1.9c0.5,0.4,1.1,0.6,2,0.6c0.8,0,1.5-0.2,2-0.5c0.5-0.3,0.8-0.7,0.8-1.3c0-0.6-0.3-1.1-1-1.5
						c-0.3-0.2-1-0.4-2.1-0.7c-1.2-0.4-2-0.6-2.3-0.8c-0.8-0.4-1.1-1.1-1.1-1.9c0-0.9,0.4-1.6,1.1-2c0.7-0.4,1.5-0.7,2.5-0.7
						C135.2,154.2,136.1,154.5,136.8,155z"/>
					<path style="fill:#444444;" d="M141.4,157.2h1.8v0.9h-1.8v4.6c0,0.3,0,0.5,0.2,0.6c0.1,0.1,0.3,0.2,0.5,0.2h0.9v0.9h-1.1
						c-0.6,0-1-0.2-1.3-0.5c-0.2-0.3-0.4-0.7-0.4-1.2v-4.6h-1.5v-0.9h1.5v-1.9l1.1-0.5V157.2z"/>
					<path style="fill:#444444;" d="M148.6,157.1v1.1c-0.4-0.1-0.7-0.2-1.1-0.2c-0.6,0-1,0.2-1.4,0.7c-0.4,0.5-0.6,1.1-0.6,1.7v3.8
						h-1.1v-7.2h1.1v1.3c0.2-0.4,0.4-0.8,0.8-1c0.4-0.3,0.8-0.5,1.3-0.5C148,157,148.3,157,148.6,157.1z"/>
					<path style="fill:#444444;" d="M151.1,154.7c0.2,0.1,0.3,0.3,0.3,0.6c0,0.2-0.1,0.4-0.3,0.6c-0.2,0.2-0.4,0.2-0.6,0.2
						s-0.4-0.1-0.6-0.2c-0.2-0.2-0.2-0.4-0.2-0.6c0-0.3,0.1-0.4,0.2-0.6c0.2-0.2,0.4-0.2,0.6-0.2S150.9,154.5,151.1,154.7z
						 M151,157.2v7.2h-1.1v-7.2H151z"/>
					<path style="fill:#444444;" d="M159.2,159.9v4.5h-1.1V160c0-1.4-0.6-2.1-1.9-2.1c-0.5,0-0.9,0.2-1.3,0.5
						c-0.4,0.4-0.6,0.9-0.6,1.6v4.4h-1.1v-7.2h1.1v1.1c0.3-0.4,0.6-0.7,1-0.9c0.4-0.2,0.8-0.3,1.3-0.3
						C158.3,157,159.2,158,159.2,159.9z"/>
					<path style="fill:#444444;" d="M166.4,158.4v-1.2h1.1v6.7c0,2.3-1.1,3.5-3.3,3.5c-1,0-1.7-0.2-2.2-0.6c-0.5-0.4-0.8-1-1-1.8
						h1.1c0.1,0.5,0.3,0.9,0.6,1.1c0.3,0.2,0.8,0.4,1.5,0.4c1.5,0,2.2-0.8,2.2-2.4v-1.3c-0.5,1-1.3,1.5-2.4,1.5c-1,0-1.8-0.4-2.4-1
						c-0.6-0.7-0.9-1.5-0.9-2.6c0-1.1,0.3-1.9,0.9-2.6c0.6-0.7,1.4-1.1,2.4-1.1C165,157,165.8,157.4,166.4,158.4z M162.4,158.7
						c-0.4,0.5-0.6,1.1-0.6,1.9c0,0.8,0.2,1.4,0.5,1.9c0.4,0.5,1,0.8,1.8,0.8c0.7,0,1.3-0.3,1.7-0.8c0.4-0.5,0.6-1.1,0.6-1.9
						c0-0.8-0.2-1.5-0.6-1.9c-0.4-0.5-1-0.8-1.7-0.8C163.4,157.9,162.8,158.1,162.4,158.7z"/>
					<path style="fill:#444444;" d="M175.3,154.4v10h-1.1v-10H175.3z"/>
					<path style="fill:#444444;" d="M183.3,159.9v4.5h-1.1V160c0-1.4-0.6-2.1-1.9-2.1c-0.5,0-0.9,0.2-1.3,0.5
						c-0.4,0.4-0.6,0.9-0.6,1.6v4.4h-1.1v-7.2h1.1v1.1c0.3-0.4,0.6-0.7,1-0.9c0.4-0.2,0.8-0.3,1.3-0.3
						C182.4,157,183.3,158,183.3,159.9z"/>
					<path style="fill:#444444;" d="M191.5,154.2v10.2h-1.1v-1.2c-0.5,0.9-1.3,1.4-2.4,1.4c-1.1,0-1.9-0.4-2.5-1.1
						c-0.5-0.7-0.8-1.6-0.8-2.7c0-1.1,0.3-1.9,0.8-2.6c0.6-0.8,1.4-1.2,2.4-1.2c1,0,1.8,0.5,2.4,1.5v-4.3H191.5z M186.4,158.7
						c-0.4,0.5-0.5,1.2-0.5,2c0,0.9,0.2,1.6,0.5,2.1c0.4,0.6,1,0.9,1.8,0.9c0.7,0,1.3-0.3,1.7-0.8c0.4-0.5,0.5-1.2,0.5-2v-0.1
						c0-0.8-0.2-1.5-0.6-2c-0.4-0.5-0.9-0.8-1.6-0.8C187.4,157.9,186.8,158.2,186.4,158.7z"/>
					<path style="fill:#444444;" d="M198.9,158.1c0.5,0.7,0.8,1.7,0.8,3H194c0.1,0.8,0.3,1.4,0.7,1.9c0.4,0.4,0.9,0.7,1.6,0.7
						c0.6,0,1.1-0.2,1.4-0.4c0.3-0.3,0.5-0.6,0.7-1.1h1.1c-0.2,0.7-0.5,1.3-1,1.7c-0.6,0.5-1.4,0.8-2.3,0.8c-1,0-1.9-0.4-2.5-1
						c-0.6-0.7-1-1.6-1-2.8c0-1.1,0.3-2,0.9-2.7c0.6-0.8,1.4-1.1,2.5-1.1C197.4,157,198.3,157.3,198.9,158.1z M194.7,158.5
						c-0.4,0.4-0.6,1-0.7,1.7h4.5c-0.1-1.6-0.9-2.3-2.3-2.3C195.6,157.9,195.1,158.1,194.7,158.5z"/>
					<path style="fill:#444444;" d="M201.9,157.2l1.9,2.6l1.9-2.6h1.3l-2.6,3.4l2.9,3.8h-1.3l-2.2-3l-2.2,3h-1.3l2.9-3.8l-2.6-3.4
						H201.9z"/>
					<path style="fill:#444444;" d="M213.8,158.1c0.5,0.7,0.8,1.7,0.8,3h-5.7c0.1,0.8,0.3,1.4,0.7,1.9c0.4,0.4,0.9,0.7,1.6,0.7
						c0.6,0,1.1-0.2,1.4-0.4c0.3-0.3,0.5-0.6,0.7-1.1h1.1c-0.2,0.7-0.5,1.3-1,1.7c-0.6,0.5-1.4,0.8-2.3,0.8c-1,0-1.9-0.4-2.5-1
						c-0.6-0.7-1-1.6-1-2.8c0-1.1,0.3-2,0.9-2.7c0.6-0.8,1.4-1.1,2.5-1.1C212.3,157,213.2,157.3,213.8,158.1z M209.6,158.5
						c-0.4,0.4-0.6,1-0.7,1.7h4.5c-0.1-1.6-0.9-2.3-2.3-2.3C210.5,157.9,210,158.1,209.6,158.5z"/>
					<path style="fill:#444444;" d="M220.1,157.1v1.1c-0.4-0.1-0.7-0.2-1.1-0.2c-0.6,0-1,0.2-1.4,0.7c-0.4,0.5-0.6,1.1-0.6,1.7v3.8
						h-1.1v-7.2h1.1v1.3c0.2-0.4,0.4-0.8,0.8-1c0.4-0.3,0.8-0.5,1.3-0.5C219.5,157,219.8,157,220.1,157.1z"/>
				</g>
			</g>
		</g>
	</g>
</g>
<path style="fill:#CEE3FF;" d="M587,203h214.9v103H587V203"/>
<g id="maingroup_7_" transform="translate(0,0)">
	<g>
		<g id="Rects1_64_" transform="translate(220,163)">
			<g transform="translate(20 9)">
				<g style="enable-background:new    ;">
					<path style="fill:#00A4FF;" d="M379.4,49.5l-0.9-0.3c0.4-1.5,0.7-3,0.7-4.6l0.9,0.1c0,0.6-0.1,1.2-0.1,1.7h1.2v-2.9h1v2.9h1.3
						v1h-1.3v3.4c0.4-0.2,0.9-0.4,1.3-0.6v1c-0.4,0.2-0.9,0.4-1.3,0.5v4.6h-1v-4.3c-0.8,0.3-1.6,0.5-2.4,0.7l-0.2-1
						c0.9-0.2,1.8-0.4,2.6-0.7v-3.7h-1.3C379.8,48.2,379.6,48.9,379.4,49.5z M388.1,43.6v1.5h2.6V46h-2.6v1.6h3.2v1h-7.5v-1h3.2V46
						h-2.5v-0.9h2.5v-1.5H388.1z M388.6,50.2v-0.9h1v0.9h1.5v1h-1.5v4c0,0.8-0.4,1.2-1.1,1.2h-1.8l-0.2-1c0.6,0,1.1,0.1,1.6,0.1
						c0.3,0,0.5-0.2,0.5-0.6v-3.7h-4.5v-1H388.6z M386.9,53.9l-0.8,0.6c-0.4-0.7-1-1.4-1.7-2.2l0.8-0.5
						C385.9,52.6,386.5,53.3,386.9,53.9z"/>
					<path style="fill:#00A4FF;" d="M396.2,43.9c-0.7,1.5-1.8,2.9-3.4,4.1l-0.3-1c1.3-1,2.3-2.2,2.9-3.5L396.2,43.9z M396.7,47.5
						c-0.4,0.7-0.8,1.4-1.3,2.1v6.8h-1v-5.8c-0.5,0.4-1,0.9-1.6,1.3l-0.3-1c1.5-1.1,2.6-2.4,3.3-3.8L396.7,47.5z M397,45.3v-1h8.1v1
						h-3.1v3.8h2.7v0.9h-2.7v4.8h3.4v1h-8.9v-1h1.4v-7.3h1v7.3h2.1v-9.5H397z"/>
					<path style="fill:#00A4FF;" d="M413.3,56.1c-0.9,0-1.6-0.1-2.2-0.3c-0.5-0.2-1-0.5-1.5-1c-0.2-0.2-0.4-0.3-0.5-0.3
						c-0.3,0-0.9,0.6-1.7,2l-0.8-0.7c0.8-1.2,1.4-1.9,2-2.2v-4.3h-2v-0.9h2.9v5.2c0.1,0.1,0.2,0.2,0.3,0.3c0.3,0.4,0.7,0.7,1.1,0.9
						c0.4,0.2,1.1,0.3,1.9,0.3c0.7,0,1.7,0,2.7,0c0.7,0,1.4,0,2.1,0c0.7,0,1.2,0,1.6-0.1l-0.3,1h-3.2
						C415.1,56.1,414.2,56.1,413.3,56.1z M410.1,46l-0.7,0.7c-0.6-0.7-1.4-1.4-2.4-2.2l0.7-0.7C408.6,44.5,409.4,45.2,410.1,46z
						 M415.6,43.5v1.8h2.8v1h-2.8v2h3.3v1h-2.4V53c0,0.3,0.1,0.4,0.4,0.4h0.5c0.2,0,0.3,0,0.4-0.1c0.2-0.1,0.3-0.7,0.3-1.7l0.9,0.3
						c-0.1,1.2-0.2,1.8-0.4,2.1c-0.2,0.2-0.5,0.3-1,0.3h-1c-0.4,0-0.6-0.1-0.8-0.3c-0.2-0.2-0.3-0.4-0.3-0.8v-4h-1.4
						c0,1-0.2,1.8-0.4,2.5c-0.4,1.1-1.2,1.9-2.5,2.6l-0.7-0.8c1.1-0.6,1.9-1.3,2.2-2.1c0.2-0.6,0.4-1.4,0.4-2.2H411v-1h3.6v-2h-2.3
						c-0.3,0.5-0.5,1-0.8,1.5l-0.9-0.5c0.8-1.1,1.3-2.2,1.6-3.5l1,0.2c-0.1,0.5-0.3,1-0.5,1.4h1.8v-1.8H415.6z"/>
					<path style="fill:#00A4FF;" d="M421,56.3l-0.2-1c0.4,0,0.7,0.1,1.1,0.1c0.4,0,0.6-0.2,0.6-0.6v-3.4c-0.6,0.2-1.1,0.4-1.7,0.5
						l-0.3-1c0.7-0.2,1.3-0.3,1.9-0.5v-3.2h-1.7v-1h1.7v-2.6h1v2.6h1.6v1h-1.6V50c0.5-0.2,1.1-0.5,1.6-0.7v1
						c-0.5,0.3-1.1,0.5-1.6,0.7v4c0,0.8-0.4,1.2-1.2,1.2H421z M432.4,44.1V45c-0.4,1.1-1.1,2-2.2,2.8c0.9,0.4,2,0.7,3.3,0.9
						l-0.4,0.9c-1.5-0.2-2.8-0.6-3.8-1.2c-1,0.5-2.2,1-3.5,1.3l-0.5-0.9c1.2-0.3,2.2-0.6,3.1-1c-0.9-0.7-1.5-1.6-1.9-2.7h-0.7v-0.9
						H432.4z M428.8,50.6v-1.2h1v1.2h2.8v0.9h-2.8v1.6h3.5V54h-3.5v2.2h-1V54h-3.5v-0.9h3.5v-1.6H426v-0.9H428.8z M429.2,47.2
						c1-0.6,1.6-1.3,2.1-2.2h-3.9C427.8,45.9,428.4,46.6,429.2,47.2z"/>
					<path style="fill:#00A4FF;" d="M437.4,47.4v-2c-0.7,0.1-1.4,0.2-2.1,0.3l-0.3-0.9c2.1-0.2,3.8-0.5,5.2-1l0.5,0.8
						c-0.7,0.3-1.5,0.5-2.3,0.7v2.2h2.4v0.9h-2.4V49c0.8,0.7,1.6,1.5,2.5,2.5l-0.6,0.9c-0.7-1-1.3-1.8-1.9-2.4v6.3h-1v-6.2
						c-0.6,1.3-1.4,2.5-2.4,3.6l-0.4-1.1c1.3-1.2,2.2-2.6,2.8-4.2v-0.1h-2.5v-0.9H437.4z M446.7,55.8h-1v-1.1h-3.4V56h-1V44.5h5.4
						V55.8z M445.7,53.8v-8.3h-3.4v8.3H445.7z"/>
					<path style="fill:#00A4FF;" d="M449.2,50.3l-0.6-0.8c1.3-1.4,2.2-3.2,2.7-5.6l1,0.2c-0.2,0.7-0.3,1.4-0.5,2h3v-2.5h1v2.5h4.6v1
						h-4.6v3.2h4.3v1h-4.3v3.6h5.5v1h-12.3v-1h5.8v-3.6h-4.1v-1h4.1v-3.2h-3.4C450.7,48.4,450,49.5,449.2,50.3z"/>
					<path style="fill:#00A4FF;" d="M474.1,45.1l-0.6,0.6h1.7v1h-4.3c0.1,1.7,0.3,3.1,0.5,4.1c0.1,0.3,0.2,0.7,0.3,1
						c0.7-1.1,1.3-2.4,1.7-3.9l0.9,0.4c-0.6,1.8-1.3,3.4-2.2,4.7c0.2,0.4,0.4,0.8,0.6,1.2c0.5,0.7,0.8,1,1.1,1
						c0.3,0,0.5-0.7,0.7-2.2l0.9,0.5c-0.3,1.9-0.8,2.8-1.4,2.8c-0.6,0-1.2-0.4-1.9-1.3c-0.3-0.3-0.5-0.7-0.7-1.2
						c-1,1.1-2.1,2-3.4,2.6l-0.6-0.8c1.4-0.6,2.6-1.6,3.6-2.8c-0.2-0.5-0.4-1.1-0.5-1.7c-0.3-1.2-0.5-2.6-0.6-4.4H465V49h3.4
						c0,2.4-0.1,3.9-0.3,4.6c-0.2,0.6-0.6,0.9-1.3,0.9c-0.3,0-0.7,0-1.2-0.1l-0.3-0.9c0.5,0,1,0,1.4,0c0.3,0,0.5-0.2,0.6-0.6
						c0.1-0.5,0.1-1.5,0.2-3H465v0.4c-0.1,2.5-0.6,4.5-1.7,6l-0.8-0.7c0.9-1.3,1.4-3.1,1.4-5.4v-4.7h5.8c0-0.7,0-1.4,0-2.2h1
						c0,0.8,0,1.5,0,2.2h2.6c-0.4-0.5-1-1-1.7-1.6l0.6-0.6C473,44,473.6,44.5,474.1,45.1z"/>
				</g>
			</g>
		</g>
	</g>
</g>
<g>
	<g>
		<rect x="601" y="244" style="opacity:0.6;fill:#BBBBBB;enable-background:new    ;" width="188.9" height="50"/>
		<g>
			<rect x="599.5" y="242.5" style="fill:#FFFFFF;" width="187.9" height="49"/>
			<path style="fill:#E5E5E5;" d="M786.9,243v48H600v-48H786.9 M787.9,242H599v50h188.9V242L787.9,242z"/>
		</g>
	</g>
	<g id="maingroup_5_" transform="translate(0,0)">
		<g id="Rects1_5_" transform="translate(220,163)">
			<g transform="translate(20 9)">
				<g style="enable-background:new    ;">
					<path style="fill:#444444;" d="M410,90.4v6.8h1.6v0.9H410v2.3h-1.1v-2.3h-5V97l5-6.6H410z M404.8,97.2h4.1v-5.3h0L404.8,97.2z"
						/>
					<path style="fill:#444444;" d="M418.8,91.8c0.5,0.9,0.8,2.1,0.8,3.6s-0.3,2.7-0.8,3.6c-0.6,1.1-1.5,1.6-2.7,1.6
						c-1.2,0-2.1-0.5-2.7-1.6c-0.5-0.9-0.8-2.1-0.8-3.6s0.3-2.7,0.8-3.6c0.6-1.1,1.5-1.6,2.7-1.6C417.3,90.2,418.2,90.7,418.8,91.8z
						 M414.2,92.6c-0.3,0.7-0.4,1.6-0.4,2.8c0,1.2,0.1,2.1,0.4,2.8c0.4,1,1,1.4,1.9,1.4s1.5-0.5,1.9-1.4c0.3-0.7,0.4-1.6,0.4-2.8
						c0-1.2-0.2-2.1-0.4-2.8c-0.4-1-1-1.4-1.9-1.4S414.6,91.7,414.2,92.6z"/>
					<path style="fill:#444444;" d="M427.8,89c1.2,1.9,3.2,3.6,6.1,5.1l-0.6,0.9c-2.6-1.4-4.6-3.1-5.9-5.1c-1.6,2.2-3.5,3.9-5.9,5.1
						l-0.6-0.9c2.6-1.3,4.6-3.1,6.1-5.2H427.8z M427.9,93.1v8.7h-1v-8.7H427.9z"/>
					<path style="fill:#444444;" d="M435.8,94.9l-0.9-0.3c0.4-1.5,0.7-3,0.7-4.6l0.9,0.1c0,0.6-0.1,1.2-0.1,1.7h1.2V89h1v2.9h1.3v1
						h-1.3v3.4c0.4-0.2,0.9-0.4,1.3-0.6v1c-0.4,0.2-0.9,0.4-1.3,0.5v4.6h-1v-4.3c-0.8,0.3-1.6,0.5-2.4,0.7l-0.2-1
						c0.9-0.2,1.8-0.4,2.6-0.7v-3.7h-1.3C436.2,93.6,436,94.3,435.8,94.9z M444.5,89v1.5h2.6v0.9h-2.6V93h3.2v1h-7.5v-1h3.2v-1.6
						H441v-0.9h2.5V89H444.5z M445,95.6v-0.9h1v0.9h1.5v1H446v4c0,0.8-0.4,1.2-1.1,1.2h-1.8l-0.2-1c0.6,0,1.1,0.1,1.6,0.1
						c0.3,0,0.5-0.2,0.5-0.6v-3.7h-4.5v-1H445z M443.3,99.3l-0.8,0.6c-0.4-0.7-1-1.4-1.7-2.2l0.8-0.5
						C442.3,98,442.9,98.7,443.3,99.3z"/>
					<path style="fill:#444444;" d="M452.6,89.3c-0.7,1.5-1.8,2.9-3.4,4.1l-0.3-1c1.3-1,2.3-2.2,2.9-3.5L452.6,89.3z M453.1,92.9
						c-0.4,0.7-0.8,1.4-1.3,2.1v6.8h-1V96c-0.5,0.4-1,0.9-1.6,1.3l-0.3-1c1.5-1.1,2.6-2.4,3.3-3.8L453.1,92.9z M453.4,90.7v-1h8.1v1
						h-3.1v3.8h2.7v0.9h-2.7v4.8h3.4v1H453v-1h1.4v-7.3h1v7.3h2.1v-9.5H453.4z"/>
					<path style="fill:#444444;" d="M464.1,90.6v-1h8.3v0.7c-0.3,1.2-0.5,2.3-0.8,3.2h2.8V94c-0.4,1.9-1.3,3.5-2.6,4.8
						c1.1,0.8,2.3,1.5,3.7,2.1l-0.7,0.9c-1.5-0.7-2.8-1.5-3.9-2.3c-1.2,1-2.8,1.8-4.6,2.4l-0.6-0.9c1.7-0.6,3.2-1.3,4.3-2.2
						c-1.3-1.2-2.3-2.6-2.9-4.1c-0.5,3.1-1.7,5.5-3.6,7.1l-0.8-0.7c2.3-1.9,3.5-5,3.5-9.2v-1.3H464.1z M473.4,94.3h-3
						c0.3-0.8,0.6-2.1,0.9-3.7h-3.8v1.3c0,0.2,0,0.4,0,0.7c0.5,2.2,1.7,4.1,3.5,5.6C472.2,97,473,95.7,473.4,94.3z"/>
					<path style="fill:#444444;" d="M480.4,101.7h-1v-7.3c-0.5,1.5-1.2,2.8-2,4l-0.4-1.1c1.1-1.4,2-2.9,2.5-4.7h-2.2v-1h2.2V89h1
						v2.7h1.8v1h-1.8v0.8c0.7,0.7,1.4,1.4,2.1,2.3l-0.6,0.9c-0.6-0.9-1.1-1.6-1.6-2.1V101.7z M483.1,90.8h-0.6v-1h6.3v1
						c-0.4,2.6-1.2,4.9-2.4,6.8c0.9,1.3,2,2.4,3.4,3.4l-0.7,0.8c-1.3-1-2.4-2.2-3.3-3.4c-1,1.3-2.2,2.5-3.6,3.4l-0.6-0.8
						c1.5-1,2.7-2.1,3.6-3.5C484,95.5,483.3,93.2,483.1,90.8z M484.1,90.8c0.2,2.2,0.8,4.1,1.8,5.8c1-1.7,1.7-3.6,2-5.8H484.1z"/>
					<path style="fill:#444444;" d="M496.8,93.1v-0.9h-5.5v-0.9h5.5v-1c-1.4,0.1-2.9,0.2-4.4,0.2l-0.2-0.8c3.6-0.1,6.9-0.3,9.7-0.6
						l0.3,0.8c-1.3,0.1-2.8,0.3-4.4,0.4v1.1h5.5v0.9h-5.5v0.9h4.3v4.7h-4.3v1h5v0.8h-5v1.1h5.7v0.9h-12.4v-0.9h5.7v-1.1h-5v-0.8h5
						v-1h-4.3v-4.7H496.8z M496.8,95v-1.1h-3.4V95H496.8z M496.8,95.8h-3.4v1.1h3.4V95.8z M497.8,95h3.4v-1.1h-3.4V95z M501.2,95.8
						h-3.4v1.1h3.4V95.8z"/>
				</g>
			</g>
		</g>
	</g>
</g>
<path style="fill:#CEE3FF;" d="M587.1,410H802v103H587.1V410"/>
<g id="maingroup_4_" transform="translate(0,0)">
	<g>
		<g id="Rects1_62_" transform="translate(220,163)">
			<g transform="translate(20 9)">
				<g style="enable-background:new    ;">
					<path style="fill:#00A4FF;" d="M390.6,263.2h-1v-0.6h-9.3v0.6h-1v-11.8h11.2V263.2z M389.6,261.7v-9.4h-9.3v9.4H389.6z
						 M387.7,254.5v5h-5.4v-5H387.7z M386.8,255.3h-3.5v3.3h3.5V255.3z"/>
					<path style="fill:#00A4FF;" d="M397.1,250.6v6.1c-0.1,3.1-1.2,5.3-3.4,6.7l-0.8-0.7c2.1-1.3,3.1-3.3,3.2-6.1v-6.1H397.1z
						 M394.2,251.9v6.9h-1v-6.9H394.2z M404.7,251.6v11.4h-1v-0.9h-6.1v-1h6.1v-3.9h-5.4v-1h5.4v-3.7h-5.8v-1H404.7z"/>
					<path style="fill:#00A4FF;" d="M417.7,253.7v5.5H416v0.9h3.2v0.9H416v2.4h-1v-2.4h-4c-0.1,0.4-0.3,0.8-0.6,1.1
						c-0.5,0.5-1.3,1-2.3,1.3l-0.5-0.8c1-0.3,1.7-0.6,2.1-1c0.1-0.2,0.2-0.3,0.3-0.5h-3.2v-0.9h3.4c0-0.1,0-0.3,0-0.4v-0.5h-1.8
						v-5.5H417.7z M407.7,253.9l-0.8-0.5c0.9-0.9,1.5-1.9,1.8-2.9l1,0.2c-0.1,0.3-0.2,0.6-0.4,0.8h3.5v0.9H411
						c0.2,0.3,0.4,0.6,0.6,0.9l-0.8,0.3c-0.2-0.4-0.5-0.8-0.8-1.2h-1.1C408.6,252.9,408.2,253.4,407.7,253.9z M416.7,255.3v-0.8
						h-7.3v0.8H416.7z M416.7,256.8v-0.8h-7.3v0.8H416.7z M416.7,257.6h-7.3v0.9h7.3V257.6z M411.3,259.8c0,0.1,0,0.3,0,0.4h3.8
						v-0.9h-3.8V259.8z M413.7,253.6l-0.8-0.5c0.7-0.8,1.2-1.7,1.5-2.6l1,0.2l-0.3,0.8h4v0.9h-2.3c0.3,0.3,0.4,0.6,0.6,0.9l-0.8,0.3
						c-0.2-0.4-0.5-0.8-0.8-1.2h-1.1C414.4,252.8,414.1,253.2,413.7,253.6z"/>
					<path style="fill:#00A4FF;" d="M423.6,256.1l-0.7,0.7c-0.5-0.7-1.2-1.4-2.1-2.1l0.7-0.7C422.3,254.7,423,255.4,423.6,256.1z
						 M424,258.3c-0.6,1.8-1.3,3.4-2,5l-1-0.4c0.8-1.6,1.5-3.2,2.1-4.9L424,258.3z M424.1,252.9l-0.7,0.7c-0.6-0.7-1.3-1.4-2.3-2.1
						l0.7-0.7C422.7,251.5,423.5,252.2,424.1,252.9z M429.2,250.6v2.3h3.6v1h-3.6v2.6h4v1h-4.6c-0.9,2.1-1.7,3.7-2.4,4.5
						c1.7-0.2,3.4-0.4,5.2-0.8c-0.4-0.8-0.8-1.6-1.2-2.3l1-0.3c0.8,1.4,1.6,2.9,2.2,4.5l-1,0.4c-0.2-0.5-0.4-1-0.6-1.4
						c-2.1,0.4-4.4,0.7-6.9,1l-0.2-0.9c0.1,0,0.2-0.1,0.2-0.1c0.7-0.6,1.5-2.1,2.6-4.6h-3.3v-1h4v-2.6h-3.3v-1h3.3v-2.3H429.2z"/>
					<path style="fill:#00A4FF;" d="M441.4,263.1c-0.9,0-1.6-0.1-2.2-0.3c-0.5-0.2-1-0.5-1.5-1c-0.2-0.2-0.4-0.3-0.5-0.3
						c-0.4,0-0.9,0.6-1.7,2l-0.8-0.7c0.8-1.2,1.4-1.9,2-2.2v-4.3h-2v-0.9h2.9v5.2c0.1,0.1,0.2,0.2,0.3,0.3c0.3,0.4,0.7,0.7,1.1,0.9
						c0.4,0.2,1.1,0.3,1.9,0.3c0.7,0,1.7,0,2.7,0c0.7,0,1.4,0,2.1,0c0.7,0,1.2,0,1.6-0.1l-0.3,1h-3.2
						C443.1,263.1,442.3,263.1,441.4,263.1z M438.1,253l-0.7,0.7c-0.6-0.7-1.4-1.4-2.4-2.2l0.7-0.7
						C436.7,251.5,437.5,252.2,438.1,253z M443.7,250.5v1.8h2.8v1h-2.8v2h3.3v1h-2.4v3.8c0,0.3,0.1,0.4,0.4,0.4h0.5
						c0.2,0,0.3,0,0.4-0.1c0.2-0.1,0.3-0.7,0.3-1.7l0.9,0.3c-0.1,1.2-0.2,1.8-0.4,2.1c-0.2,0.2-0.5,0.3-1,0.3h-1
						c-0.4,0-0.6-0.1-0.8-0.3c-0.2-0.2-0.3-0.4-0.3-0.8v-4h-1.4c0,1-0.2,1.8-0.4,2.5c-0.4,1.1-1.2,1.9-2.5,2.6l-0.7-0.8
						c1.1-0.6,1.9-1.3,2.2-2.1c0.2-0.6,0.4-1.4,0.4-2.2h-2.3v-1h3.6v-2h-2.3c-0.3,0.5-0.5,1-0.8,1.5l-0.9-0.5
						c0.8-1.1,1.3-2.2,1.6-3.5l1,0.2c-0.1,0.5-0.3,1-0.5,1.4h1.8v-1.8H443.7z"/>
					<path style="fill:#00A4FF;" d="M449.1,263.3l-0.2-1c0.4,0,0.7,0.1,1.1,0.1c0.4,0,0.6-0.2,0.6-0.6v-3.4
						c-0.6,0.2-1.1,0.4-1.7,0.5l-0.3-1c0.7-0.2,1.3-0.3,1.9-0.5v-3.2h-1.7v-1h1.7v-2.6h1v2.6h1.6v1h-1.6v2.8
						c0.5-0.2,1.1-0.5,1.6-0.7v1c-0.5,0.3-1.1,0.5-1.6,0.7v4c0,0.8-0.4,1.2-1.2,1.2H449.1z M460.4,251.1v0.8c-0.4,1.1-1.1,2-2.2,2.8
						c0.9,0.4,2,0.7,3.3,0.9l-0.4,0.9c-1.5-0.2-2.8-0.6-3.8-1.2c-1,0.5-2.2,1-3.5,1.3l-0.5-0.9c1.2-0.3,2.2-0.6,3.1-1
						c-0.9-0.7-1.5-1.6-1.9-2.7h-0.7v-0.9H460.4z M456.8,257.6v-1.2h1v1.2h2.8v0.9h-2.8v1.6h3.5v0.9h-3.5v2.2h-1V261h-3.5v-0.9h3.5
						v-1.6H454v-0.9H456.8z M457.3,254.2c1-0.6,1.6-1.3,2.1-2.2h-3.9C455.9,252.9,456.5,253.6,457.3,254.2z"/>
				</g>
			</g>
		</g>
	</g>
</g>
<g>
	<g>
		<rect x="601.1" y="451" style="opacity:0.6;fill:#BBBBBB;enable-background:new    ;" width="188.9" height="50"/>
		<g>
			<rect x="599.6" y="449.5" style="fill:#FFFFFF;" width="187.9" height="49"/>
			<path style="fill:#E5E5E5;" d="M787,450v48H600.1v-48H787 M788,449H599.1v50H788V449L788,449z"/>
		</g>
	</g>
	<g id="maingroup_3_" transform="translate(0,0)">
		<g id="Rects1_3_" transform="translate(220,163)">
			<g transform="translate(20 9)">
				<g style="enable-background:new    ;">
					<path style="fill:#444444;" d="M409.6,297.4c1,0,1.8,0.2,2.4,0.7c0.6,0.5,0.9,1.2,0.9,2.1c0,0.6-0.2,1.1-0.5,1.5
						c-0.3,0.4-0.8,0.7-1.4,0.9v0c1,0.2,1.5,0.8,1.6,1.8l0.2,1.5c0.1,0.6,0.2,1.1,0.5,1.5h-1.2c-0.2-0.3-0.4-0.8-0.4-1.3l-0.1-1.3
						c-0.1-0.6-0.3-1-0.6-1.3c-0.3-0.3-0.8-0.4-1.4-0.4h-3v4.3h-1.1v-10H409.6z M406.5,302.1h3c0.7,0,1.3-0.2,1.7-0.5
						c0.3-0.3,0.5-0.8,0.5-1.4c0-0.6-0.2-1.1-0.5-1.4c-0.4-0.3-0.9-0.5-1.7-0.5h-3V302.1z"/>
					<path style="fill:#444444;" d="M420.1,300.8c0.4,0.5,0.6,1.1,0.6,2v4.7h-1.1v-1.2c-0.3,0.4-0.7,0.7-1.1,1
						c-0.5,0.3-1.1,0.4-1.8,0.4c-0.7,0-1.3-0.2-1.7-0.5c-0.4-0.4-0.7-0.9-0.7-1.5c0-0.8,0.3-1.4,1-1.9c0.6-0.4,1.4-0.6,2.5-0.6
						l1.7,0v-0.4c0-1.2-0.6-1.8-1.9-1.8c-0.5,0-1,0.1-1.3,0.3c-0.4,0.2-0.6,0.6-0.7,1l-1.1-0.1c0.2-0.8,0.5-1.3,1.1-1.7
						c0.5-0.3,1.2-0.5,2.1-0.5C418.8,300,419.6,300.2,420.1,300.8z M418,303.9c-1.6,0-2.4,0.6-2.4,1.6c0,0.3,0.1,0.6,0.4,0.8
						c0.3,0.2,0.6,0.3,1.1,0.3c0.7,0,1.3-0.2,1.8-0.7c0.5-0.4,0.8-0.9,0.8-1.5v-0.6L418,303.9z"/>
					<path style="fill:#444444;" d="M428.6,302.9v4.5h-1.1V303c0-1.4-0.6-2.1-1.9-2.1c-0.5,0-0.9,0.2-1.3,0.5
						c-0.4,0.4-0.6,0.9-0.6,1.6v4.4h-1.1v-7.2h1.1v1.1c0.3-0.4,0.6-0.7,1-0.9c0.4-0.2,0.8-0.3,1.3-0.3
						C427.7,300,428.6,301,428.6,302.9z"/>
					<path style="fill:#444444;" d="M436.8,297.2v10.2h-1.1v-1.2c-0.5,0.9-1.3,1.4-2.4,1.4c-1.1,0-1.9-0.4-2.5-1.1
						c-0.5-0.7-0.8-1.6-0.8-2.7c0-1.1,0.3-1.9,0.8-2.6c0.6-0.8,1.4-1.2,2.4-1.2c1,0,1.8,0.5,2.4,1.5v-4.3H436.8z M431.7,301.7
						c-0.4,0.5-0.5,1.2-0.5,2c0,0.9,0.2,1.6,0.5,2.1c0.4,0.6,1,0.9,1.8,0.9c0.7,0,1.3-0.3,1.7-0.8c0.4-0.5,0.5-1.2,0.5-2v-0.1
						c0-0.8-0.2-1.5-0.6-2c-0.4-0.5-0.9-0.8-1.6-0.8C432.7,300.9,432.1,301.2,431.7,301.7z"/>
					<path style="fill:#444444;" d="M444.3,301.1c0.6,0.7,0.9,1.6,0.9,2.7c0,1.1-0.3,2-0.9,2.7c-0.7,0.8-1.5,1.1-2.6,1.1
						c-1.1,0-1.9-0.4-2.6-1.1c-0.6-0.7-0.9-1.6-0.9-2.7c0-1.1,0.3-2,0.9-2.7c0.6-0.8,1.5-1.1,2.6-1.1
						C442.8,300,443.7,300.3,444.3,301.1z M440,301.8c-0.4,0.5-0.6,1.2-0.6,2c0,0.8,0.2,1.5,0.6,2c0.4,0.6,1,0.9,1.8,0.9
						c0.8,0,1.4-0.3,1.8-0.9c0.4-0.5,0.6-1.2,0.6-2c0-0.8-0.2-1.5-0.6-2c-0.4-0.6-1.1-0.9-1.8-0.9C441,300.9,440.4,301.2,440,301.8z
						"/>
					<path style="fill:#444444;" d="M452.1,301.3c0.3-0.5,0.6-0.8,1-1c0.4-0.2,0.8-0.3,1.3-0.3c0.8,0,1.4,0.2,1.8,0.7
						c0.4,0.5,0.7,1.1,0.7,2v4.7h-1.1v-4.6c0-0.6-0.1-1.1-0.4-1.4c-0.3-0.3-0.7-0.5-1.3-0.5c-0.5,0-0.9,0.2-1.2,0.5
						c-0.3,0.4-0.5,0.8-0.5,1.4v4.5h-1.1v-4.6c0-1.3-0.6-1.9-1.7-1.9c-0.5,0-0.9,0.2-1.3,0.6c-0.3,0.4-0.5,0.9-0.5,1.5v4.4h-1.1
						v-7.2h1.1v1c0.5-0.8,1.2-1.2,2-1.2C451,300,451.7,300.4,452.1,301.3z"/>
					<path style="fill:#444444;" d="M470.2,297.4v1h-5.5v3.4h5.3v1h-5.3v4.7h-1.1v-10H470.2z"/>
					<path style="fill:#444444;" d="M477.2,301.1c0.6,0.7,0.9,1.6,0.9,2.7c0,1.1-0.3,2-0.9,2.7c-0.7,0.8-1.5,1.1-2.6,1.1
						c-1.1,0-1.9-0.4-2.6-1.1c-0.6-0.7-0.9-1.6-0.9-2.7c0-1.1,0.3-2,0.9-2.7c0.6-0.8,1.5-1.1,2.6-1.1
						C475.7,300,476.6,300.3,477.2,301.1z M472.9,301.8c-0.4,0.5-0.6,1.2-0.6,2c0,0.8,0.2,1.5,0.6,2c0.4,0.6,1,0.9,1.8,0.9
						c0.8,0,1.4-0.3,1.8-0.9c0.4-0.5,0.6-1.2,0.6-2c0-0.8-0.2-1.5-0.6-2c-0.4-0.6-1.1-0.9-1.8-0.9
						C473.9,300.9,473.3,301.2,472.9,301.8z"/>
					<path style="fill:#444444;" d="M483.8,300.1v1.1c-0.4-0.1-0.7-0.2-1.1-0.2c-0.6,0-1,0.2-1.4,0.7c-0.4,0.5-0.6,1-0.6,1.7v3.8
						h-1.1v-7.2h1.1v1.3c0.2-0.4,0.4-0.8,0.8-1c0.4-0.3,0.8-0.5,1.3-0.5C483.2,300,483.5,300,483.8,300.1z"/>
					<path style="fill:#444444;" d="M490.4,301.1c0.5,0.7,0.8,1.7,0.8,3h-5.7c0.1,0.8,0.3,1.4,0.7,1.9s0.9,0.7,1.6,0.7
						c0.6,0,1.1-0.2,1.4-0.4c0.3-0.3,0.5-0.6,0.7-1.1h1.1c-0.2,0.7-0.5,1.3-1,1.7c-0.6,0.5-1.4,0.8-2.3,0.8c-1,0-1.9-0.4-2.5-1
						c-0.6-0.7-1-1.6-1-2.8c0-1.1,0.3-2,0.9-2.7c0.6-0.8,1.4-1.1,2.5-1.1C488.9,300,489.8,300.3,490.4,301.1z M486.2,301.5
						c-0.4,0.4-0.6,1-0.7,1.7h4.5c-0.1-1.6-0.9-2.3-2.3-2.3C487.1,300.9,486.6,301.1,486.2,301.5z"/>
					<path style="fill:#444444;" d="M498,302.2h-1.1c-0.1-0.4-0.3-0.8-0.6-1c-0.3-0.2-0.8-0.3-1.3-0.3c-0.5,0-0.9,0.1-1.2,0.3
						c-0.3,0.2-0.5,0.4-0.5,0.8c0,0.3,0.2,0.6,0.6,0.8c0.3,0.1,0.8,0.3,1.5,0.5c0.9,0.2,1.5,0.4,1.9,0.7c0.6,0.4,0.9,0.9,0.9,1.5
						c0,1.5-1,2.2-3.1,2.2c-1.9,0-2.9-0.8-3.1-2.5h1.1c0.1,0.6,0.3,1,0.6,1.2c0.3,0.2,0.8,0.3,1.4,0.3c1.3,0,1.9-0.4,1.9-1.2
						c0-0.4-0.2-0.7-0.7-0.9c-0.2-0.1-0.8-0.3-1.5-0.5c-0.9-0.2-1.5-0.4-1.8-0.6c-0.6-0.3-0.8-0.8-0.8-1.4s0.3-1.1,0.8-1.5
						c0.5-0.4,1.2-0.5,2-0.5C496.9,300,497.8,300.7,498,302.2z"/>
					<path style="fill:#444444;" d="M501.5,300.2h1.8v0.9h-1.8v4.6c0,0.3,0,0.5,0.2,0.6c0.1,0.1,0.3,0.2,0.5,0.2h0.9v0.9H502
						c-0.6,0-1-0.2-1.3-0.5c-0.2-0.3-0.3-0.7-0.3-1.2v-4.6h-1.5v-0.9h1.5v-1.9l1.1-0.5V300.2z"/>
				</g>
			</g>
		</g>
	</g>
</g>
<path style="fill:#CEE3FF;" d="M307,410h214.9v103H307V410"/>
<g id="maingroup_2_" transform="translate(0,0)">
	<g>
		<g id="Rects1_60_" transform="translate(220,163)">
			<g transform="translate(20 9)">
				<g style="enable-background:new    ;">
					<path style="fill:#00A4FF;" d="M108.2,256.6c-0.7,1.3-1.5,2.4-2.5,3.3c1.5,1.1,3.3,1.9,5.5,2.5l-0.6,0.9
						c-2.3-0.6-4.2-1.5-5.7-2.7c-1.6,1.3-3.5,2.2-5.7,2.8l-0.6-0.9c2.2-0.6,4-1.4,5.5-2.5c-1-0.9-1.9-2-2.5-3.2l0.9-0.5
						c0.6,1.1,1.4,2.1,2.4,3c1-0.9,1.7-1.9,2.3-3.1L108.2,256.6z M104.5,252.2c-0.3-0.6-0.5-1.1-0.8-1.6l1.1-0.2
						c0.3,0.5,0.6,1.1,0.8,1.8h5.5v1H98.7v-1H104.5z M103.4,254.3c-1.1,1.4-2.4,2.6-4,3.6l-0.6-0.9c1.5-1,2.8-2.1,3.9-3.4
						L103.4,254.3z M111.1,257.3l-0.7,0.7c-0.9-1.2-2.2-2.4-3.9-3.8l0.7-0.7C108.7,254.8,110,256.1,111.1,257.3z"/>
					<path style="fill:#00A4FF;" d="M123.7,251.4v0.9c-0.6,2.7-1.9,5-4,7c0.6,0.5,1.3,1,2.1,1.4c1.1,0.6,2.2,1.1,3.4,1.6l-0.6,0.9
						c-1.3-0.5-2.5-1.1-3.6-1.8c-0.7-0.5-1.4-1-2-1.5c-1.5,1.3-3.3,2.4-5.5,3.2l-0.6-0.9c2.1-0.9,3.9-1.9,5.3-3
						c-0.1-0.1-0.2-0.2-0.3-0.3c-0.9-0.9-1.6-1.9-2.3-3.1c-0.6-1.1-1-2.2-1.2-3.4h-0.9v-1H123.7z M116.7,255.8
						c0.6,1.1,1.4,2,2.2,2.8l0,0c1.9-1.8,3.1-3.9,3.7-6.2h-7.2C115.7,253.7,116.1,254.8,116.7,255.8z M120.3,255.6l-0.7,0.6
						c-0.6-0.8-1.4-1.6-2.4-2.5l0.6-0.6C118.9,254,119.7,254.8,120.3,255.6z"/>
					<path style="fill:#00A4FF;" d="M129.6,260c-0.9,0.3-2,0.6-3.1,0.9l-0.1-1c1.2-0.2,2.3-0.5,3.2-0.8V260z M126.7,252.1v-0.9h4.4
						l-0.7,5.8h0.9c0,3.2-0.1,5-0.4,5.5c-0.3,0.5-0.9,0.7-1.7,0.7c-0.3,0-0.7,0-1,0l-0.3-0.9c0.5,0.1,0.8,0.1,1,0.1
						c0.7,0,1.1-0.2,1.2-0.6c0.1-0.4,0.2-1.7,0.2-3.9h-3.6l0.7-4.8l0.9,0.1l-0.6,3.9h1.7l0.6-4.8H126.7z M131.8,256.2l-0.5-0.8
						c1.6-1.2,2.8-2.8,3.6-4.7h0.9c0.7,1.8,1.9,3.3,3.7,4.7l-0.5,0.8c-0.6-0.5-1.1-1-1.6-1.5v0.9h-3.9v-0.9
						C132.9,255.2,132.4,255.7,131.8,256.2z M136.2,261.9c0.5-1.5,1-3.3,1.4-5.5l1,0.2c-0.4,2-0.9,3.8-1.4,5.3h2.1v1h-7.6v-1H136.2z
						 M134.2,260.8l-0.9,0.2c-0.3-1.4-0.7-2.7-1.2-3.9l0.9-0.3C133.4,258,133.8,259.3,134.2,260.8z M135.4,251.6
						c-0.6,1.2-1.2,2.2-1.9,3h3.9C136.5,253.7,135.8,252.7,135.4,251.6z M136.1,260.2l-0.9,0.2c-0.3-1.3-0.6-2.6-1-3.8l0.9-0.3
						C135.5,257.5,135.8,258.8,136.1,260.2z"/>
					<path style="fill:#00A4FF;" d="M143.5,254.8v6.1c0.4-0.4,0.9-0.8,1.4-1.3l0.3,1.1c-0.8,0.8-1.7,1.5-2.6,2.1l-0.4-0.9
						c0.2-0.2,0.3-0.4,0.3-0.6v-5.4h-2v-1H143.5z M144.6,252.9l-0.7,0.7c-0.6-0.7-1.3-1.4-2.3-2.2l0.7-0.7
						C143.2,251.4,143.9,252.1,144.6,252.9z M145.3,252.2v-1h7.9v1h-2.9v3.9h2.7v0.9h-2.7v4.8h3.2v1h-8.6v-1h1.4v-7.4h1v7.4h2v-9.7
						H145.3z"/>
				</g>
			</g>
		</g>
	</g>
</g>
<g>
	<g>
		<rect x="321" y="451" style="opacity:0.6;fill:#BBBBBB;enable-background:new    ;" width="188.9" height="50"/>
		<g>
			<rect x="319.5" y="449.5" style="fill:#FFFFFF;" width="187.9" height="49"/>
			<path style="fill:#E5E5E5;" d="M506.9,450v48H320v-48H506.9 M507.9,449H319v50h188.9V449L507.9,449z"/>
		</g>
	</g>
	<g id="maingroup_1_" transform="translate(0,0)">
		<g id="Rects1_1_" transform="translate(220,163)">
			<g transform="translate(20 9)">
				<g style="enable-background:new    ;">
					<path style="fill:#444444;" d="M151.5,300.2c0.3-0.4,0.5-0.7,0.6-1.1c-1.2,0.1-2.5,0.1-3.9,0.1l-0.2-0.9c0.9-0.2,2.1-1,3.4-2.4
						l1,0.3c-0.8,0.8-1.6,1.5-2.4,2c1.9-0.1,3.6-0.2,5.3-0.3c-0.4-0.4-0.8-0.7-1.3-1.1l0.8-0.5c1.4,1.1,2.5,2,3.2,2.8l-0.8,0.6
						c-0.3-0.3-0.6-0.7-1-1c-1,0.1-2.1,0.1-3.1,0.2c-0.2,0.4-0.4,0.8-0.6,1.2h6.4v0.9h-3.5c0.8,0.8,2.1,1.5,3.9,2l-0.4,0.9
						c-2.1-0.8-3.6-1.7-4.5-2.9h-2.5c-1.1,1.2-2.7,2.2-4.9,3l-0.5-0.9c1.8-0.5,3.2-1.2,4.1-2.1h-3.9v-0.9H151.5z M157.5,304.1
						c-1.3,2.3-4.1,3.9-8.4,4.8l-0.6-0.8c4.2-0.9,6.9-2.4,8.1-4.4L157.5,304.1z M155.5,303.3c-1.6,1.9-3.7,3-6.2,3.5l-0.6-0.8
						c2.6-0.4,4.6-1.5,6-3.2L155.5,303.3z M153.8,302c-0.9,1.2-2.4,2.1-4.4,2.8L149,304c1.8-0.6,3.2-1.4,4-2.5L153.8,302z"/>
					<path style="fill:#444444;" d="M164.2,302.6c-0.1,0.3-0.2,0.5-0.3,0.8h2.9v0.8c-0.3,0.9-0.8,1.7-1.6,2.4c0.7,0.3,1.3,0.6,1.9,1
						l-0.5,0.8c-0.6-0.4-1.3-0.7-2.2-1.1c-0.9,0.6-2.1,1.2-3.5,1.6l-0.5-0.8c1.1-0.3,2.1-0.7,3-1.1c-0.6-0.3-1.3-0.5-1.9-0.8
						c0.4-0.6,0.7-1.2,1-1.8h-1.7v-0.9h2c0.1-0.3,0.2-0.6,0.3-0.9L164.2,302.6z M163.6,298.6V296h0.9v2.7h2.5v0.9h-2.5v0.2
						c0.8,0.4,1.5,0.8,2.3,1.3l-0.5,0.8c-0.7-0.6-1.3-1-1.8-1.3v1.8h-0.9v-2.7c-0.5,1.1-1.3,2.1-2.5,2.9l-0.5-0.8
						c1.1-0.6,1.8-1.3,2.3-2.1h-2v-0.9H163.6z M162.8,298l-0.7,0.3c-0.3-0.7-0.6-1.3-0.9-1.8l0.8-0.3
						C162.3,296.8,162.6,297.4,162.8,298z M165.9,304.2h-2.4c-0.2,0.5-0.5,0.9-0.8,1.3c0.6,0.2,1.1,0.4,1.6,0.6
						C165,305.6,165.6,305,165.9,304.2z M166.9,296.5c-0.3,0.6-0.6,1.2-1.1,1.8l-0.7-0.4c0.4-0.6,0.8-1.2,1.1-1.8L166.9,296.5z
						 M168.5,301.3c-0.3,0.6-0.5,1.2-0.8,1.7l-0.6-0.8c0.8-1.6,1.4-3.7,1.7-6.3l1,0.2c-0.1,0.7-0.2,1.4-0.3,2h3.7v1h-0.9
						c-0.1,2.3-0.5,4.3-1.3,6c0.7,1.3,1.6,2.2,2.6,2.9l-0.5,0.8c-1-0.7-1.8-1.7-2.5-2.8c-0.7,1.1-1.5,2.1-2.6,2.8l-0.5-0.8
						c1.1-0.8,1.9-1.7,2.6-2.9C169.3,303.9,168.9,302.7,168.5,301.3z M169,299.8c0.4,1.6,0.8,3.1,1.4,4.2c0.5-1.4,0.8-3.1,0.9-5
						h-2.1L169,299.8z"/>
					<path style="fill:#444444;" d="M174.7,302.8l-0.3-1c1.5-1.7,2.6-3.6,3.3-5.8l0.9,0.4c-0.3,1-0.8,2-1.3,2.9v9.5h-1v-8
						C175.9,301.5,175.3,302.2,174.7,302.8z M181.3,299.4c0-0.3,0-0.6,0-0.8V296h1v2.5c0,0.3,0,0.6,0,0.8h4.7v1H184v6.9
						c0,0.3,0.1,0.4,0.4,0.4h1.2c0.2,0,0.3-0.1,0.4-0.2c0.1-0.2,0.2-1,0.3-2.2l0.9,0.3c-0.1,1.5-0.3,2.4-0.4,2.7
						c-0.2,0.3-0.5,0.4-0.9,0.4h-1.7c-0.7,0-1.1-0.4-1.1-1.2v-7.1h-0.9c-0.3,3.7-1.5,6.5-3.5,8.4l-0.7-0.6c1.9-1.7,3-4.3,3.3-7.8
						h-2.8v-1H181.3z M186.3,298.1l-0.7,0.7c-0.5-0.6-1.2-1.2-2.2-1.9l0.7-0.6C185,296.8,185.7,297.5,186.3,298.1z"/>
					<path style="fill:#444444;" d="M193.7,296.3c-0.5,1.2-1.1,2.3-1.9,3.3v9.2h-1v-8c-0.6,0.7-1.3,1.3-2.1,2l-0.3-1.1
						c2-1.7,3.4-3.7,4.3-5.9L193.7,296.3z M196.6,308.6c-1,0-1.5-0.5-1.5-1.5v-4.3c-0.6,0.3-1.2,0.6-1.8,0.9l-0.4-1
						c0.8-0.4,1.5-0.7,2.3-1.2V296h1v5c1.5-1,2.8-2.1,3.9-3.3l0.7,0.8c-1.3,1.4-2.8,2.6-4.6,3.7v4.7c0,0.4,0.2,0.7,0.7,0.7h2.3
						c0.4,0,0.6-0.1,0.8-0.3c0.2-0.2,0.3-1,0.3-2.4l0.9,0.3c-0.1,1.6-0.3,2.6-0.5,2.9c-0.3,0.3-0.7,0.5-1.4,0.5H196.6z"/>
				</g>
			</g>
		</g>
	</g>
</g>
<g>
	<rect x="334" y="48" style="fill:#FFFFFF;" width="32" height="32"/>
	<g id="RectEndPoint1_1_" transform="translate(217,191)">
		<g transform="translate(20 9)">
			<g>
				<g>
					<path style="fill:#878787;" d="M109.6-146.1c2.1,0,3.9,1.7,3.9,3.8s-1.7,3.8-3.9,3.8c-2.1,0-3.9-1.7-3.9-3.8
						S107.5-146.1,109.6-146.1 M109.6-148c-3.2,0-5.8,2.6-5.8,5.8c0,3.2,2.6,5.8,5.8,5.8c3.2,0,5.8-2.6,5.8-5.8
						C115.4-145.4,112.8-148,109.6-148z"/>
					<path style="fill:#878787;" d="M113.5-132.6c3.2,0,5.8,2.6,5.8,5.8v1H99.9v-1c0-3.2,2.6-5.8,5.8-5.8H113.5 M113.5-134.6h-7.7
						c-4.3,0-7.7,3.4-7.7,7.7v2.9h23.2v-2.9C121.2-131.1,117.8-134.6,113.5-134.6z"/>
					<path style="fill:#878787;" d="M122.2-134.6h-2.9c0.7,0.5,1.4,1.2,1.9,1.9h1c2.1,0,3.9,1.7,3.9,3.8v1h-2.9c0,0.3,0,0.6,0,1v1
						h4.8v-2.9C128-132,125.4-134.6,122.2-134.6z"/>
					<path style="fill:#878787;" d="M118.3-147c-0.8,0-1.6,0.2-2.3,0.6c0.4,0.5,0.6,1.1,0.9,1.7c1.4-0.8,3.2-0.3,4,1.1
						s0.3,3.1-1.1,3.9c-0.9,0.5-2,0.5-2.9,0c-0.2,0.6-0.5,1.2-0.9,1.7c0.7,0.4,1.5,0.6,2.3,0.6c2.7,0,4.8-2.1,4.8-4.8
						S121-147,118.3-147z"/>
				</g>
			</g>
		</g>
	</g>
</g>
<g>
	<rect x="57" y="48" style="fill:#FFFFFF;" width="32" height="32"/>
	<g>
		<g>
			<path style="fill:#878787;" d="M73,58c2.8,0,5,2.2,5,5c0,1.6-0.8,3.2-2.1,4.1L75,67.7v1V72h-4v-3.3v-1l-0.9-0.6
				C68.8,66.2,68,64.6,68,63C68,60.2,70.2,58,73,58 M73,56c-3.9,0-7,3.1-7,7c0,2.4,1.2,4.5,3,5.7V74h8v-5.3c1.8-1.3,3-3.4,3-5.7
				C80,59.1,76.9,56,73,56L73,56z"/>
		</g>
		<g>
			<rect x="72" y="49" style="fill:#878787;" width="2" height="5"/>
		</g>
		<g>
			<rect x="71" y="74" style="fill:#878787;" width="4" height="2"/>
		</g>
		<g>
			<rect x="82" y="62" style="fill:#878787;" width="5" height="2"/>
		</g>
		<g>
			<rect x="59" y="62" style="fill:#878787;" width="5" height="2"/>
		</g>
		<g>
			
				<rect x="62.5" y="52" transform="matrix(0.7071 -0.7071 0.7071 0.7071 -19.9135 60.8744)" style="fill:#878787;" width="2" height="5"/>
		</g>
		<g>
			
				<rect x="79" y="53.5" transform="matrix(0.7071 -0.7071 0.7071 0.7071 -14.6561 73.5668)" style="fill:#878787;" width="5" height="2"/>
		</g>
	</g>
</g>
<g>
	<rect x="623" y="48" style="fill:#FFFFFF;" width="32" height="32"/>
	<g>
		<path style="fill:#878787;" d="M639,52c6.6,0,12,5.4,12,12s-5.4,12-12,12s-12-5.4-12-12S632.4,52,639,52 M639,50
			c-7.7,0-14,6.3-14,14s6.3,14,14,14s14-6.3,14-14S646.7,50,639,50L639,50z"/>
	</g>
	<g>
		<path style="fill:#878787;" d="M642.7,56h1.8l-4.5,8h3.9v1.3h-4.1v1.7h4.1v1.3h-4.1V72h-1.6v-3.8h-4v-1.3h4v-1.7h-4V64h3.8l-4.5-8
			h1.8l3.7,6.6L642.7,56z"/>
	</g>
</g>
<g>
	<rect x="319" y="214" style="fill:#CEE3FF;" width="16" height="16"/>
	<g>
		<path style="fill:#00A4FF;" d="M330,216v3.5l-1.7,1.8l-0.7,0.7l0.7,0.7l1.7,1.8v3.5h-6v-3.5l1.7-1.8l0.7-0.7l-0.7-0.7l-1.7-1.8
			V216H330 M331,215h-8v4.9l2,2.1l-2,2.1v4.9h8v-4.9l-2-2.1l2-2.1V215L331,215z"/>
	</g>
	<rect x="322" y="228" style="fill:#00A4FF;" width="10" height="1"/>
	<rect x="322" y="215" style="fill:#00A4FF;" width="10" height="1"/>
</g>
<g>
	<rect x="599.1" y="214" style="fill:#CEE3FF;" width="16" height="16"/>
	<rect x="604.1" y="218.5" style="fill:#00A4FF;" width="6" height="1"/>
	<rect x="604.1" y="221.5" style="fill:#00A4FF;" width="6" height="1"/>
	<rect x="604.1" y="224.5" style="fill:#00A4FF;" width="6" height="1"/>
	<g>
		<path style="fill:#00A4FF;" d="M612.1,216v12h-10v-12H612.1 M613.1,215h-12v14h12V215L613.1,215z"/>
	</g>
</g>
<g>
	<rect x="319" y="421" style="fill:#CEE3FF;" width="16" height="16"/>
	<polyline style="fill:none;stroke:#00A4FF;stroke-miterlimit:10;" points="324,422 324,426 330,431 330,434 	"/>
	<polyline style="fill:none;stroke:#00A4FF;stroke-miterlimit:10;" points="330,422 330,426 324,431 324,434 	"/>
	<polygon style="fill:#00A4FF;" points="324,436 326,434 322,434 	"/>
	<polygon style="fill:#00A4FF;" points="330,436 332,434 328,434 	"/>
</g>
<g>
	<rect x="40.1" y="214" style="fill:#CEE3FF;" width="16" height="16"/>
	<polyline style="fill:none;stroke:#00A4FF;stroke-miterlimit:10;" points="46.1,226 46.1,219 43.1,216 53.1,216 50.1,219 50.1,229 
			"/>
</g>
<g>
	<rect x="599.1" y="421" style="fill:#CEE3FF;" width="16" height="16"/>
	<g>
		<path style="fill:#00A4FF;" d="M612.1,424v10h-10v-10H612.1 M613.1,423h-12v12h12V423L613.1,423z"/>
	</g>
	<polyline style="fill:none;stroke:#00A4FF;stroke-miterlimit:10;" points="603.6,429.5 605.6,431.5 610.6,426.5 	"/>
</g>
</svg>
