<?xml version="1.0" encoding="utf-8"?>
<!-- Generator: Adobe Illustrator 23.0.3, SVG Export Plug-In . SVG Version: 6.00 Build 0)  -->
<svg version="1.1" id="svgwrapper_svg" xmlns="http://www.w3.org/2000/svg" xmlns:xlink="http://www.w3.org/1999/xlink" x="0px"
	 y="0px" width="830px" height="170px" viewBox="0 0 830 170" style="enable-background:new 0 0 830 170;" xml:space="preserve">
<path style="display:none;fill:none;stroke:#999999;" d="M719,2L529,46"/>
<g>
	<g>
		<rect x="419" y="1.5" style="fill:#CEE3FF;" width="411" height="167"/>
		<g>
			<g>
				<rect x="433" y="106.5" style="opacity:0.6;fill:#BBBBBB;enable-background:new    ;" width="119" height="50"/>
				<g>
					<rect x="431.5" y="105" style="fill:#FFFFFF;" width="118" height="49"/>
					<path style="fill:#E5E5E5;" d="M549,105.5v48H432v-48H549 M550,104.5H431v50h119V104.5L550,104.5z"/>
				</g>
			</g>
			<g>
				<g transform="translate(20 9)">
					<g style="enable-background:new    ;">
						<path style="fill:#444444;" d="M426.1,118.7v6.1c0.4-0.4,0.9-0.8,1.4-1.3l0.3,1.1c-0.8,0.8-1.7,1.5-2.6,2.1l-0.4-0.9
							c0.2-0.2,0.3-0.4,0.3-0.6v-5.4h-2v-1H426.1z M427.1,116.7l-0.7,0.7c-0.6-0.7-1.3-1.4-2.3-2.2l0.7-0.7
							C425.7,115.3,426.5,116,427.1,116.7z M427.9,116.1v-1h7.9v1h-2.9v3.9h2.7v0.9h-2.7v4.8h3.2v1h-8.6v-1h1.4v-7.4h1v7.4h2v-9.7
							H427.9z"/>
						<path style="fill:#444444;" d="M443.2,114.4v2.5h4.1v0.5l-0.3,3.3h2c0,2.7-0.2,4.3-0.7,4.7c-0.2,0.2-0.5,0.4-0.8,0.4
							c-0.3,0.1-0.6,0.1-0.9,0.1h-0.9l-0.3-1c0.5,0,0.9,0,1.4,0c0.4,0,0.7-0.1,0.9-0.3c0.2-0.2,0.3-1.2,0.4-3h-4.8v5.7h-1v-5.7h-5
							v-1h5v-2.8h-4.2v-1h4.2v-2.5H443.2z M446.1,120.6l0.3-2.8h-3.1v2.8H446.1z M449.6,116.3l-0.5,0.8c-0.9-0.8-1.9-1.5-2.8-2
							l0.5-0.8C447.8,115,448.8,115.6,449.6,116.3z"/>
						<path style="fill:#444444;" d="M452.6,118.2v-3.7h1v3.7h1.3v1h-1.3v4.2c0.4-0.2,0.9-0.4,1.3-0.6v1c-1.1,0.6-2.3,1.1-3.6,1.5
							l-0.3-1c0.5-0.1,1-0.3,1.5-0.4v-4.6h-1.4v-1H452.6z M459.2,124.4c-1.4,0.5-2.9,1-4.5,1.3l-0.2-1c1.6-0.3,3.2-0.7,4.7-1.3
							V124.4z M459.9,116.4c0-0.6,0-1.2,0-1.9h1c0,0.7,0,1.3,0,1.9h1.4c-0.2-0.5-0.4-1-0.6-1.4l0.9-0.2c0.2,0.5,0.4,1,0.5,1.6h0.7v1
							h-2.9c0,2.2,0.1,3.9,0.3,5.3c0.5-1.2,1-2.5,1.3-4.1l0.9,0.4c-0.5,2.1-1.1,3.9-1.9,5.3c0.3,1.3,0.6,2,1,2.1
							c0.3,0,0.5-0.7,0.8-2.1l0.8,0.6c-0.4,1.7-1,2.5-1.6,2.5c-0.5,0-0.9-0.4-1.2-1.1c-0.1-0.3-0.3-0.6-0.4-1
							c-0.7,0.9-1.5,1.6-2.3,2.1l-0.6-0.8c1-0.6,1.9-1.5,2.7-2.6c-0.1-0.4-0.1-0.8-0.2-1.2c-0.2-1.4-0.3-3.2-0.3-5.4h-5v-1H459.9z
							 M459.1,118.7v4h-3.6v-4H459.1z M458.2,119.5h-1.8v2.3h1.8V119.5z"/>
						<path style="fill:#444444;" d="M469.5,127.3h-1v-4.9c-0.9,0.3-1.8,0.5-2.8,0.8l-0.5-1c2.4-0.5,4.4-1.1,6.1-2
							c-0.6-0.5-1.5-1.1-2.5-1.7l0.9-0.5c1.1,0.7,1.9,1.2,2.5,1.8c1.4-0.9,2.5-1.8,3.1-3H470c-1,0.9-2.2,1.7-3.6,2.4l-0.7-0.9
							c2.4-1,4-2.3,4.8-3.8l1.1,0.1c-0.2,0.4-0.5,0.8-0.8,1.2h5.5v0.9c-1,1.9-2.8,3.5-5.4,4.7h5.8v5.9h-1v-0.8h-6.3V127.3z
							 M475.7,122.3h-6.3v3.2h6.3V122.3z"/>
						<path style="fill:#444444;" d="M491.5,115.2v1h-4.6c-0.3,0.6-0.5,1.1-0.9,1.7v9.5h-1v-8c-1.3,1.6-3,3.1-5.2,4.4l-0.7-0.9
							c3.2-1.8,5.4-4,6.6-6.6h-6.2v-1H491.5z M491.8,122.8l-0.8,0.8c-1-1.2-2.3-2.5-4-3.9l0.7-0.7
							C489.4,120.2,490.7,121.5,491.8,122.8z"/>
						<path style="fill:#444444;" d="M495.1,116.2v9.6h10.6v1h-11.6v-11.6h11.3v1H502v5.7c0,0.4,0.2,0.6,0.6,0.6h1.2
							c0.3,0,0.4-0.1,0.5-0.3c0.1-0.2,0.2-0.9,0.3-1.9l1,0.3c-0.1,1.3-0.3,2.2-0.5,2.5c-0.2,0.3-0.6,0.4-1.1,0.4h-1.7
							c-0.8,0-1.2-0.4-1.2-1.3v-5.9h-2c-0.1,3.7-1,6.3-2.7,7.7l-0.8-0.7c1.6-1.2,2.5-3.6,2.6-7.1H495.1z"/>
						<path style="fill:#444444;" d="M513.6,115v1h-1.8v1.6h1.6v9.6h-0.9v-0.8h-4v0.8h-0.9v-9.6h1.5V116h-1.9v-1H513.6z
							 M508.5,118.5v4.7h4V122h-0.7c-0.6,0-0.9-0.3-0.9-1v-2.5H510v0.9c0,1.5-0.3,2.6-0.9,3.3l-0.5-0.5c0.5-0.6,0.8-1.5,0.8-2.8
							v-0.9H508.5z M512.5,125.5v-1.4h-4v1.4H512.5z M510.9,117.6V116H510v1.6H510.9z M512.5,118.5h-0.9v2.3c0,0.2,0.1,0.4,0.4,0.4
							h0.5V118.5z M519.4,126.4c-0.2,0.4-0.7,0.6-1.3,0.6h-2.8c-0.7,0-1-0.4-1-1.3v-5.9h3.8V116H514v-1h5v5.7h-3.8v4.6
							c0,0.5,0.1,0.7,0.4,0.7h2.2c0.4,0,0.6-0.2,0.8-0.6c0.1-0.4,0.2-1.1,0.2-2.3l1,0.3C519.8,125,519.6,125.9,519.4,126.4z"/>
					</g>
				</g>
			</g>
		</g>
		<g>
			<g>
				<rect x="433" y="42.5" style="opacity:0.6;fill:#BBBBBB;enable-background:new    ;" width="119" height="50"/>
				<g>
					<rect x="431.5" y="41" style="fill:#FFFFFF;" width="118" height="49"/>
					<path style="fill:#E5E5E5;" d="M549,41.5v48H432v-48H549 M550,40.5H431v50h119V40.5L550,40.5z"/>
				</g>
			</g>
			<g>
				<g transform="translate(20 9)">
					<g style="enable-background:new    ;">
						<path style="fill:#444444;" d="M447.1,54.7v6.1c0.4-0.4,0.9-0.8,1.4-1.3l0.3,1.1c-0.8,0.8-1.7,1.5-2.6,2.1l-0.4-0.9
							c0.2-0.2,0.3-0.4,0.3-0.6v-5.4h-2v-1H447.1z M448.1,52.7l-0.7,0.7c-0.6-0.7-1.3-1.4-2.3-2.2l0.7-0.7
							C446.7,51.3,447.5,52,448.1,52.7z M448.9,52.1v-1h7.9v1h-2.9V56h2.7V57h-2.7v4.8h3.2v1h-8.6v-1h1.4v-7.4h1v7.4h2v-9.7H448.9z"
							/>
						<path style="fill:#444444;" d="M464.2,50.4v2.5h4.1v0.5l-0.3,3.3h2c0,2.7-0.2,4.3-0.7,4.7c-0.2,0.2-0.5,0.4-0.8,0.4
							c-0.3,0.1-0.6,0.1-0.9,0.1h-0.9l-0.3-1c0.5,0,0.9,0,1.4,0c0.4,0,0.7-0.1,0.9-0.3c0.2-0.2,0.3-1.2,0.4-3h-4.8v5.7h-1v-5.7h-5
							v-1h5v-2.8h-4.2v-1h4.2v-2.5H464.2z M467.1,56.6l0.3-2.8h-3.1v2.8H467.1z M470.6,52.3l-0.5,0.8c-0.9-0.8-1.9-1.5-2.8-2
							l0.5-0.8C468.8,51,469.8,51.6,470.6,52.3z"/>
						<path style="fill:#444444;" d="M479.1,63c-1,0-1.7-0.1-2.3-0.3c-0.6-0.2-1.1-0.5-1.6-1c-0.2-0.2-0.4-0.3-0.6-0.3
							c-0.3,0-0.9,0.6-1.7,2l-0.8-0.7c0.8-1.2,1.4-1.9,2-2.2v-4.2h-2v-1h3v5.3c0.1,0.1,0.2,0.2,0.4,0.3c0.4,0.4,0.7,0.7,1.1,0.9
							c0.4,0.2,1.1,0.3,2,0.3c0.8,0,1.7,0,2.9,0c0.6,0,1.2,0,1.9,0c0.6,0,1.1,0,1.5-0.1l-0.3,1h-3C480.9,63,480.1,63,479.1,63z
							 M475.6,52.9l-0.7,0.7c-0.6-0.7-1.4-1.5-2.4-2.3l0.7-0.7C474.2,51.4,475,52.1,475.6,52.9z M479.3,61.2l-0.2-1
							c0.6,0,1.3,0.1,1.9,0.1c0.4,0,0.6-0.2,0.6-0.6v-6h-5.3v-1h5.3v-2.3h1v2.3h2.1v1h-2.1v6.2c0,0.8-0.4,1.2-1.3,1.2H479.3z
							 M479.9,57.7l-0.8,0.6c-0.5-0.8-1.2-1.8-2-2.8l0.8-0.5C478.7,56,479.4,56.9,479.9,57.7z"/>
						<path style="fill:#444444;" d="M488.8,60.6c-0.5,1-1.1,1.9-1.8,2.6l-0.8-0.6c0.7-0.7,1.3-1.5,1.8-2.5L488.8,60.6z M488.2,50.5
							v1.6h2.7v-1.5h1v1.5h0.8V53h-0.8v5.9h0.9v1h-6.6v-1h1V53h-0.9v-0.9h0.9v-1.6H488.2z M488.2,53v1.4h2.7V53H488.2z M491,56.7
							v-1.4h-2.7v1.4H491z M491,58.9v-1.4h-2.7v1.4H491z M492.2,62.4c0.9-1.3,1.4-2.9,1.4-4.9V51h4.7v11c0,0.8-0.4,1.2-1.2,1.2h-1.5
							l-0.3-1c0.5,0,1,0.1,1.4,0.1c0.4,0,0.5-0.2,0.5-0.6v-2.9h-2.7c-0.2,1.8-0.8,3.4-1.7,4.6l-0.8-0.7
							C492.1,62.6,492.2,62.6,492.2,62.4l-0.8,0.6c-0.4-0.7-0.9-1.5-1.5-2.3l0.8-0.5C491.4,61.1,491.9,61.8,492.2,62.4z M494.6,57.5
							c0,0.1,0,0.2,0,0.4h2.7v-2.5h-2.6V57.5z M497.3,51.9h-2.6v2.5h2.6V51.9z"/>
					</g>
				</g>
			</g>
		</g>
		<g>
			<g transform="translate(20 9)">
				<g style="enable-background:new    ;">
					<path style="fill:#00A4FF;" d="M422.8,16.5h1.5v0.9h-12.7v-0.9h1.6v-3.9h9.6V16.5z M413.6,5.7v5.7h-1V5.7H413.6z M416,16.5v-3
						h-1.9v3H416z M416.5,5v6.9h-1V5H416.5z M419,16.5v-3h-2v3H419z M417.8,10.5l-0.6-0.8c1-1.2,1.7-2.8,2-4.8l1,0.2
						c-0.1,0.6-0.2,1.1-0.4,1.6h4.2v1h-4.5C419,8.8,418.5,9.8,417.8,10.5z M421.9,16.5v-3h-1.9v3H421.9z M422.7,11.1l-0.8,0.6
						c-0.4-0.8-1-1.6-1.7-2.6l0.8-0.5C421.7,9.6,422.3,10.4,422.7,11.1z"/>
					<path style="fill:#00A4FF;" d="M426.1,17.8l-0.2-1c0.4,0,0.7,0.1,1.1,0.1c0.4,0,0.5-0.2,0.5-0.5v-3.4c-0.6,0.2-1.1,0.4-1.7,0.6
						l-0.3-1c0.7-0.2,1.3-0.4,1.9-0.6V8.7h-1.7v-1h1.7V5.1h1v2.7h1.2v1h-1.2v2.7c0.4-0.2,0.8-0.4,1.2-0.6v1
						c-0.4,0.2-0.8,0.4-1.2,0.6v4.1c0,0.8-0.4,1.2-1.2,1.2H426.1z M430.4,13.4v-0.9h7.5v0.9h-3.2v3.1h3.7v1h-8.6v-1h3.8v-3.1H430.4z
						 M434.7,6.6h3.3v2.6h-0.9V7.5h-5.9v1.7h-1V6.6h3.5c-0.2-0.6-0.5-1.1-0.7-1.5l1-0.2C434.3,5.4,434.5,6,434.7,6.6z M433.6,8.7
						c-0.6,1.4-1.5,2.5-2.5,3.2l-0.7-0.6c1.1-0.7,1.8-1.7,2.4-2.9L433.6,8.7z M437.8,11.3l-0.9,0.4c-0.7-1.1-1.4-2.2-2.3-3.1
						l0.9-0.4C436.3,9.2,437.1,10.3,437.8,11.3z"/>
					<path style="fill:#00A4FF;" d="M444.8,15.8c-0.9,0.9-2.4,1.6-4.6,2.1l-0.4-0.9c1.9-0.4,3.3-1,4.2-1.8c0.3-0.3,0.6-0.7,0.9-1.1
						H440v-0.9h5.3c0.1-0.4,0.2-0.9,0.3-1.3h1c-0.1,0.5-0.2,0.9-0.3,1.3h5.7V14h-5.3c1.3,1.4,3.2,2.4,5.5,3l-0.5,0.9
						c-2.6-0.7-4.6-1.9-5.9-3.6C445.5,14.9,445.2,15.4,444.8,15.8z M446.5,11.3h-1V8.8h-0.1c-0.8,1.3-2.4,2.4-4.8,3.3l-0.5-0.9
						c2.2-0.7,3.7-1.5,4.4-2.4h-4.4V7.8h5.4V5h1v2.8h5.4v0.9h-5.4V9c1.9,0.6,3.6,1.2,5.2,2l-0.5,0.8c-1.5-0.9-3.1-1.6-4.6-2.1V11.3z
						 M443.7,7.2l-0.9,0.2c-0.3-0.6-0.6-1.3-1.1-1.9l0.9-0.3C443,5.8,443.4,6.5,443.7,7.2z M450.3,5.4c-0.3,0.8-0.7,1.4-1.2,2
						l-0.8-0.3c0.4-0.5,0.8-1.1,1.1-1.9L450.3,5.4z"/>
					<path style="fill:#00A4FF;" d="M459.6,14.1v-1.2h1v1.2h4.8V15h-4.8v1.6h5.6v0.9h-12.3v-0.9h5.7V15h-4.9v-0.9H459.6z M460.9,5.7
						v0.9h-1.4v2.1h1.7v0.9h-1.7v3.1h-1V9.6h-1.8c-0.2,1.4-0.7,2.5-1.6,3.2l-0.8-0.7c0.8-0.6,1.2-1.4,1.4-2.6h-1.7V8.7h1.8V6.6h-1.4
						V5.7H460.9z M456.7,8.7h1.8V6.6h-1.8V8.7z M463,6v4.8h-1V6H463z M462.5,12.8l-0.2-1c0.6,0,1.2,0.1,1.8,0.1
						c0.3,0,0.5-0.2,0.5-0.6V5.2h1v6.3c0,0.9-0.4,1.3-1.1,1.3H462.5z"/>
				</g>
			</g>
		</g>
		<g>
			<g>
				<rect x="566" y="106.5" style="opacity:0.6;fill:#BBBBBB;enable-background:new    ;" width="119" height="50"/>
				<g>
					<rect x="564.5" y="105" style="fill:#FFFFFF;" width="118" height="49"/>
					<path style="fill:#E5E5E5;" d="M682,105.5v48H565v-48H682 M683,104.5H564v50h119V104.5L683,104.5z"/>
				</g>
			</g>
			<g>
				<g transform="translate(20 9)">
					<g style="enable-background:new    ;">
						<path style="fill:#444444;" d="M573.1,118.7v6.1c0.4-0.4,0.9-0.8,1.4-1.3l0.3,1.1c-0.8,0.8-1.7,1.5-2.6,2.1l-0.4-0.9
							c0.2-0.2,0.3-0.4,0.3-0.6v-5.4h-2v-1H573.1z M574.1,116.7l-0.7,0.7c-0.6-0.7-1.3-1.4-2.3-2.2l0.7-0.7
							C572.7,115.3,573.5,116,574.1,116.7z M574.9,116.1v-1h7.9v1h-2.9v3.9h2.7v0.9h-2.7v4.8h3.2v1h-8.6v-1h1.4v-7.4h1v7.4h2v-9.7
							H574.9z"/>
						<path style="fill:#444444;" d="M590.2,114.4v2.5h4.1v0.5l-0.3,3.3h2c0,2.7-0.2,4.3-0.7,4.7c-0.2,0.2-0.5,0.4-0.8,0.4
							c-0.3,0.1-0.6,0.1-0.9,0.1h-0.9l-0.3-1c0.5,0,0.9,0,1.4,0c0.4,0,0.7-0.1,0.9-0.3c0.2-0.2,0.3-1.2,0.4-3h-4.8v5.7h-1v-5.7h-5
							v-1h5v-2.8h-4.2v-1h4.2v-2.5H590.2z M593.1,120.6l0.3-2.8h-3.1v2.8H593.1z M596.6,116.3l-0.5,0.8c-0.9-0.8-1.9-1.5-2.8-2
							l0.5-0.8C594.8,115,595.8,115.6,596.6,116.3z"/>
						<path style="fill:#444444;" d="M610.5,115.2v1h-4.6c-0.3,0.6-0.5,1.1-0.9,1.7v9.5h-1v-8c-1.3,1.6-3,3.1-5.2,4.4l-0.7-0.9
							c3.2-1.8,5.4-4,6.6-6.6h-6.2v-1H610.5z M610.8,122.8l-0.8,0.8c-1-1.2-2.3-2.5-4-3.9l0.7-0.7
							C608.4,120.2,609.7,121.5,610.8,122.8z"/>
						<path style="fill:#444444;" d="M624.8,115.3v1h-1.8v9.5c0,0.9-0.4,1.4-1.3,1.4h-2.3l-0.2-1c0.8,0,1.5,0.1,2.2,0.1
							c0.4,0,0.7-0.3,0.7-0.7v-9.3h-9.6v-1H624.8z M619.3,123.6h-4.5v1.2h-1v-6.4h5.4V123.6z M618.4,122.6v-3.3h-3.5v3.3H618.4z"/>
						<path style="fill:#444444;" d="M626.3,121.2l-0.3-1.1c1.4-1.7,2.4-3.6,3-5.8l0.9,0.4c-0.3,1.1-0.7,2.1-1.2,3v9.5h-1v-7.9
							C627.2,120.1,626.8,120.7,626.3,121.2z M634.1,116.3c-0.2-0.6-0.4-1.1-0.7-1.6l1-0.3c0.3,0.6,0.5,1.2,0.7,1.7l-0.5,0.2h4.4v1
							h-9.1v-1H634.1z M638,127.3h-1v-0.8h-5.2v0.8h-1v-4.9h7.1V127.3z M637.7,118.4v0.9h-6.6v-0.9H637.7z M637.7,120.4v0.9h-6.6
							v-0.9H637.7z M637,125.6v-2.2h-5.2v2.2H637z"/>
					</g>
				</g>
			</g>
		</g>
		<g>
			<g>
				<rect x="566" y="42.5" style="opacity:0.6;fill:#BBBBBB;enable-background:new    ;" width="119" height="50"/>
				<g>
					<rect x="564.5" y="41" style="fill:#FFFFFF;" width="118" height="49"/>
					<path style="fill:#E5E5E5;" d="M682,41.5v48H565v-48H682 M683,40.5H564v50h119V40.5L683,40.5z"/>
				</g>
			</g>
			<g>
				<g transform="translate(20 9)">
					<g style="enable-background:new    ;">
						<path style="fill:#444444;" d="M573.1,54.7v6.1c0.4-0.4,0.9-0.8,1.4-1.3l0.3,1.1c-0.8,0.8-1.7,1.5-2.6,2.1l-0.4-0.9
							c0.2-0.2,0.3-0.4,0.3-0.6v-5.4h-2v-1H573.1z M574.1,52.7l-0.7,0.7c-0.6-0.7-1.3-1.4-2.3-2.2l0.7-0.7
							C572.7,51.3,573.5,52,574.1,52.7z M574.9,52.1v-1h7.9v1h-2.9V56h2.7V57h-2.7v4.8h3.2v1h-8.6v-1h1.4v-7.4h1v7.4h2v-9.7H574.9z"
							/>
						<path style="fill:#444444;" d="M590.2,50.4v2.5h4.1v0.5l-0.3,3.3h2c0,2.7-0.2,4.3-0.7,4.7c-0.2,0.2-0.5,0.4-0.8,0.4
							c-0.3,0.1-0.6,0.1-0.9,0.1h-0.9l-0.3-1c0.5,0,0.9,0,1.4,0c0.4,0,0.7-0.1,0.9-0.3c0.2-0.2,0.3-1.2,0.4-3h-4.8v5.7h-1v-5.7h-5
							v-1h5v-2.8h-4.2v-1h4.2v-2.5H590.2z M593.1,56.6l0.3-2.8h-3.1v2.8H593.1z M596.6,52.3l-0.5,0.8c-0.9-0.8-1.9-1.5-2.8-2
							l0.5-0.8C594.8,51,595.8,51.6,596.6,52.3z"/>
						<path style="fill:#444444;" d="M600.4,56.8v4.1c0,0.6,0.3,0.9,1,0.9h7c0.3,0,0.6-0.1,0.8-0.3c0.3-0.3,0.5-1.1,0.5-2.7l1,0.3
							c-0.1,1.7-0.4,2.8-0.7,3.1c-0.3,0.3-0.8,0.4-1.4,0.5h-7.6c-1.1,0-1.7-0.6-1.7-1.7v-7.4h1v2.1h7.8v-3.7h-9.3v-1h10.4v5.6H600.4
							z"/>
						<path style="fill:#444444;" d="M622.4,51.1v4.2H619v1.5h4.7v4c0,0.9-0.4,1.3-1.2,1.3h-1.4l-0.3-1l1.3,0c0.4,0,0.6-0.2,0.6-0.6
							v-2.8H619v5.5h-1v-5.5h-3.6v4.4h-1v-5.4h4.6v-1.5h-3.5v-4.2H622.4z M621.4,52h-5.8v2.4h5.8V52z"/>
						<path style="fill:#444444;" d="M628.9,50.7c-0.1,0.5-0.3,0.9-0.4,1.4h2.6v1h-2.9c-0.4,1-0.8,1.8-1.3,2.6l-0.8-0.5
							c0.9-1.4,1.5-2.9,1.9-4.6L628.9,50.7z M630.8,54.9v0.9h-1.5v1.8h1.9v0.9h-1.9v3.3c0.6-0.2,1.3-0.5,1.9-0.9l0.2,0.9
							c-0.9,0.5-1.9,0.9-3.1,1.2l-0.4-0.9c0.3-0.1,0.4-0.2,0.4-0.4v-3.2h-1.9v-0.9h1.9v-1.8h-0.9v-0.9H630.8z M633.8,53.4l-0.8,0.4
							c-0.4-0.9-0.8-1.7-1.3-2.4l0.9-0.4C633,51.7,633.4,52.5,633.8,53.4z M635.7,50.5v3.9h2.6v7.5c0,0.9-0.4,1.4-1.2,1.4h-1.4
							l-0.3-1l1.3,0c0.3,0,0.5-0.2,0.5-0.7v-1.5H633v3.1h-1v-8.9h2.7v-3.9H635.7z M637.3,55.3H633v1.6h4.3V55.3z M633,59.3h4.3v-1.5
							H633V59.3z M638.7,51.3c-0.3,0.9-0.8,1.7-1.3,2.5l-0.8-0.4c0.6-0.8,1-1.7,1.3-2.5L638.7,51.3z"/>
					</g>
				</g>
			</g>
		</g>
		<g>
			<g>
				<rect x="699" y="106.5" style="opacity:0.6;fill:#BBBBBB;enable-background:new    ;" width="119" height="50"/>
				<g>
					<rect x="697.5" y="105" style="fill:#FFFFFF;" width="118" height="49"/>
					<path style="fill:#E5E5E5;" d="M815,105.5v48H698v-48H815 M816,104.5H697v50h119V104.5L816,104.5z"/>
				</g>
			</g>
			<g>
				<g transform="translate(20 9)">
					<g style="enable-background:new    ;">
						<path style="fill:#444444;" d="M717,127c-0.9,0-1.6-0.1-2.2-0.3c-0.5-0.2-1-0.5-1.5-1c-0.2-0.2-0.4-0.3-0.5-0.3
							c-0.3,0-0.9,0.6-1.7,1.9l-0.8-0.7c0.7-1.2,1.4-1.9,2-2.1v-4.3h-2v-0.9h2.9v5.2c0.1,0.1,0.2,0.2,0.3,0.3
							c0.3,0.4,0.7,0.7,1.1,0.9c0.4,0.2,1.1,0.3,1.9,0.3c0.7,0,1.6,0,2.7,0c0.7,0,1.3,0,2,0c0.7,0,1.2,0,1.6-0.1l-0.2,1h-3.2
							C718.7,127,717.8,127,717,127z M713.7,116.8l-0.7,0.7c-0.6-0.7-1.3-1.4-2.3-2.2l0.7-0.7C712.2,115.4,713,116.1,713.7,116.8z
							 M716.5,115.9c0.2-0.5,0.4-1,0.6-1.5l1,0.2c-0.2,0.5-0.3,0.9-0.5,1.3h4.9v0.9h-5.3c-0.4,0.9-0.9,1.8-1.4,2.5h2.3v-1.7h1v1.7
							h3.1v0.9H719v1.7h3.7v1H719v2.6h-1v-2.6h-3.9v-1h3.9v-1.7h-3.2l-0.2-0.9c0.6-0.7,1.1-1.5,1.5-2.5h-1.8v-0.9H716.5z"/>
						<path style="fill:#444444;" d="M724.6,127.2l-0.2-1c0.4,0,0.7,0.1,1.1,0.1c0.4,0,0.6-0.2,0.6-0.5v-3.4
							c-0.6,0.2-1.1,0.4-1.7,0.6l-0.3-1c0.7-0.2,1.3-0.4,2-0.6v-3.1h-1.7v-1h1.7v-2.6h1v2.6h1.2v1H727v2.7c0.4-0.2,0.8-0.4,1.2-0.6
							v1c-0.4,0.2-0.8,0.4-1.2,0.6v4.1c0,0.8-0.4,1.2-1.2,1.2H724.6z M732.5,120.4c-0.1,0.4-0.3,0.7-0.5,1.1h4.8v1h-1.5
							c-0.2,1-0.6,1.9-1.3,2.6c1,0.4,1.9,0.9,2.8,1.4l-0.5,0.8c-0.8-0.5-1.8-1-2.9-1.6c-0.9,0.7-2.4,1.2-4.4,1.6l-0.4-0.9
							c1.6-0.3,2.9-0.7,3.8-1.2c-0.9-0.4-1.8-0.8-2.7-1.2c0.4-0.6,0.7-1.1,1-1.7h-1.9v-1h2.4c0.2-0.4,0.4-0.8,0.5-1.2L732.5,120.4z
							 M731.9,118.9h1.4c0.4-0.7,0.7-1.4,1-2.2l1,0.3c-0.3,0.7-0.6,1.3-0.9,1.9h2.3v1h-7.8v-1h2.1c-0.3-0.6-0.6-1.2-0.9-1.7l0.8-0.4
							C731.3,117.4,731.6,118.1,731.9,118.9z M733.2,115.7h3.1v0.9h-7.2v-0.9h3.1c-0.2-0.4-0.3-0.8-0.5-1.2l1-0.2
							C732.9,114.8,733.1,115.2,733.2,115.7z M731.5,122.4c-0.3,0.4-0.5,0.9-0.8,1.2c0.8,0.3,1.6,0.6,2.4,1c0.6-0.6,1.1-1.3,1.3-2.2
							H731.5z"/>
						<path style="fill:#444444;" d="M741.7,122.9c0-0.4,0-0.9,0-1.6h1c0,0.7,0,1.2,0,1.6h3.7v-1.5h1v1.5h3.5v0.9h-3.5v3.4h-1v-3.4
							h-3.8c-0.3,1.7-1.4,2.8-3.1,3.4l-0.5-0.9c1.5-0.4,2.4-1.3,2.6-2.5h-3.5v-0.9H741.7z M748.7,118.3h-8v0.9
							c0,0.5,0.2,0.7,0.7,0.7h7.4c0.3,0,0.5-0.1,0.6-0.3c0.1-0.2,0.2-0.5,0.2-1.1l0.9,0.3c-0.1,0.6-0.2,1.1-0.3,1.4
							c-0.2,0.4-0.6,0.6-1.2,0.6h-8c-0.9,0-1.3-0.4-1.3-1.3V115h9V118.3z M747.7,117.4v-1.5h-7v1.5H747.7z"/>
						<path style="fill:#444444;" d="M759,114.4v2.1h1.8c0.4-0.6,0.8-1.3,1.1-1.9l0.9,0.4c-0.3,0.6-0.7,1.1-1,1.6h2.5v2.8h-1v-1.9
							h-9.6v1.9h-1v-2.8h2.3c-0.3-0.5-0.6-1-1-1.5l1-0.3c0.4,0.5,0.7,1.1,1,1.8h2v-2.1H759z M754.9,121.6v-3.1h7.2v3.1H759v1.1h4.5
							v2.5c0,0.8-0.4,1.3-1.3,1.3h-1.1l-0.3-1l1.1,0c0.4,0,0.6-0.2,0.6-0.6v-1.4H759v3.6h-1v-3.6h-3.4v3h-1v-3.9h4.4v-1.1H754.9z
							 M761.2,119.4h-5.3v1.4h5.3V119.4z"/>
					</g>
				</g>
			</g>
		</g>
		<g>
			<g>
				<rect x="699" y="42.5" style="opacity:0.6;fill:#BBBBBB;enable-background:new    ;" width="119" height="50"/>
				<g>
					<rect x="697.5" y="41" style="fill:#FFFFFF;" width="118" height="49"/>
					<path style="fill:#E5E5E5;" d="M815,41.5v48H698v-48H815 M816,40.5H697v50h119V40.5L816,40.5z"/>
				</g>
			</g>
			<g>
				<g transform="translate(20 9)">
					<g style="enable-background:new    ;">
						<path style="fill:#444444;" d="M706.1,54.7v6.1c0.4-0.4,0.9-0.8,1.4-1.3l0.3,1.1c-0.8,0.8-1.7,1.5-2.6,2.1l-0.4-0.9
							c0.2-0.2,0.3-0.4,0.3-0.6v-5.4h-2v-1H706.1z M707.1,52.7l-0.7,0.7c-0.6-0.7-1.3-1.4-2.3-2.2l0.7-0.7
							C705.7,51.3,706.5,52,707.1,52.7z M707.9,52.1v-1h7.9v1h-2.9V56h2.7V57h-2.7v4.8h3.2v1h-8.6v-1h1.4v-7.4h1v7.4h2v-9.7H707.9z"
							/>
						<path style="fill:#444444;" d="M723.2,50.4v2.5h4.1v0.5l-0.3,3.3h2c0,2.7-0.2,4.3-0.7,4.7c-0.2,0.2-0.5,0.4-0.8,0.4
							c-0.3,0.1-0.6,0.1-0.9,0.1h-0.9l-0.3-1c0.5,0,0.9,0,1.4,0c0.4,0,0.7-0.1,0.9-0.3c0.2-0.2,0.3-1.2,0.4-3h-4.8v5.7h-1v-5.7h-5
							v-1h5v-2.8h-4.2v-1h4.2v-2.5H723.2z M726.1,56.6l0.3-2.8h-3.1v2.8H726.1z M729.6,52.3l-0.5,0.8c-0.9-0.8-1.9-1.5-2.8-2
							l0.5-0.8C727.8,51,728.8,51.6,729.6,52.3z"/>
						<path style="fill:#444444;" d="M742.5,51v4.8H738V57h4.7v0.9H738V59h5.6v0.9h-12.1V59h5.6v-1.2h-4.7V57h4.7v-1.1h-4.5V51
							H742.5z M733.7,60.7c-0.3,1-0.7,1.8-1.2,2.5l-0.9-0.3c0.5-0.6,0.9-1.5,1.2-2.5L733.7,60.7z M737,51.9h-3.6V55h3.6V51.9z
							 M736.1,54.3l-0.8,0.2c-0.3-0.7-0.6-1.3-0.9-2l0.8-0.3C735.5,52.9,735.8,53.6,736.1,54.3z M736.8,63.1l-1,0.2
							c-0.2-0.9-0.4-1.8-0.7-2.5l0.9-0.2C736.3,61.4,736.6,62.2,736.8,63.1z M741.6,51.9H738V55h3.6V51.9z M740,63l-1,0.2
							c-0.3-0.9-0.6-1.8-1-2.5l0.9-0.2C739.4,61.4,739.7,62.2,740,63z M740.6,52.5c-0.3,0.8-0.6,1.5-1,2.1l-0.8-0.3
							c0.4-0.5,0.7-1.2,0.9-2L740.6,52.5z M743.5,62.7l-0.8,0.6c-0.4-0.7-1-1.5-1.7-2.4l0.8-0.5C742.5,61.3,743.1,62.1,743.5,62.7z"
							/>
						<path style="fill:#444444;" d="M749.5,63.3h-1v-4.9c-0.9,0.3-1.8,0.5-2.8,0.8l-0.5-1c2.4-0.5,4.4-1.1,6.1-2
							c-0.6-0.5-1.5-1.1-2.5-1.7l0.9-0.5c1.1,0.7,1.9,1.2,2.5,1.8c1.4-0.9,2.5-1.8,3.1-3H750c-1,0.9-2.2,1.7-3.6,2.4l-0.7-0.9
							c2.4-1,4-2.3,4.8-3.8l1.1,0.1c-0.2,0.4-0.5,0.8-0.8,1.2h5.5v0.9c-1,1.9-2.8,3.5-5.4,4.7h5.8v5.9h-1v-0.8h-6.3V63.3z
							 M755.7,58.3h-6.3v3.2h6.3V58.3z"/>
						<path style="fill:#444444;" d="M766.7,52.6c0.4-0.7,0.9-1.5,1.2-2.3l1,0.3c-0.3,0.7-0.7,1.4-1.1,1.9h2.7v5.8H766v1.3h5.7v1
							H766v2.7h-1v-2.7h-5.7v-1h5.7v-1.3h-4.4v-5.8H766.7z M765,55.1v-1.5h-3.4v1.5H765z M765,55.9h-3.4v1.6h3.4V55.9z M764.4,52.2
							l-0.8,0.4c-0.4-0.7-0.9-1.3-1.3-1.8l0.9-0.4C763.6,51,764,51.6,764.4,52.2z M766,55.1h3.4v-1.5H766V55.1z M769.4,55.9H766v1.6
							h3.4V55.9z"/>
					</g>
				</g>
			</g>
		</g>
	</g>
	<g>
		<g>
			<rect x="2" y="61" style="opacity:0.6;fill:#BBBBBB;enable-background:new    ;" width="119" height="50"/>
			<g>
				<rect x="0.5" y="59.5" style="fill:#FFFFFF;" width="118" height="49"/>
				<path style="fill:#E5E5E5;" d="M118,60v48H1V60H118 M119,59H0v50h119V59L119,59z"/>
			</g>
		</g>
		<g>
			<g>
				<g transform="translate(20 9)">
					<g style="enable-background:new    ;">
						<path style="fill:#444444;" d="M48.9,81.7L48.1,81c0.9-1.2,1.4-2.8,1.4-4.7v-6.7h10.4V80c0,1-0.5,1.5-1.5,1.5h-1.6l-0.3-1
							c0.6,0,1.1,0.1,1.6,0.1c0.5,0,0.8-0.3,0.8-0.9v-2.4h-3.8v4.1h-1v-4.1h-3.6C50.3,79,49.8,80.5,48.9,81.7z M50.5,70.5v2.4H54
							v-2.4H50.5z M50.5,76.3H54v-2.5h-3.6V76.3z M58.9,70.5h-3.8v2.4h3.8V70.5z M58.9,73.8h-3.8v2.5h3.8V73.8z"/>
						<path style="fill:#444444;" d="M62.7,81.9L62,81.2c1.1-1.6,1.7-3.6,1.7-6.1v-4.4h4.6c-0.3-0.6-0.5-1.1-0.8-1.6l1.1-0.2
							c0.3,0.5,0.5,1.1,0.8,1.8h4.4v4.7h-9C64.6,77.9,64,80,62.7,81.9z M64.7,71.7v2.7h8v-2.7H64.7z"/>
					</g>
				</g>
			</g>
			<g transform="translate(20 9)">
				<g>
					<g>
						<path style="fill:#878787;" d="M17.5,65.5c2.2,0,4,1.8,4,4s-1.8,4-4,4s-4-1.8-4-4S15.3,65.5,17.5,65.5 M17.5,63.5
							c-3.3,0-6,2.7-6,6s2.7,6,6,6s6-2.7,6-6S20.8,63.5,17.5,63.5z"/>
						<path style="fill:#878787;" d="M21.5,79.5c3.3,0,6,2.7,6,6v1h-20v-1c0-3.3,2.7-6,6-6H21.5 M21.5,77.5h-8c-4.4,0-8,3.6-8,8v3
							h24v-3C29.5,81.1,25.9,77.5,21.5,77.5z"/>
						<path style="fill:#878787;" d="M30.5,77.5h-3c0.8,0.6,1.4,1.2,2,2h1c2.2,0,4,1.8,4,4v1h-3c0,0.3,0,0.7,0,1v1h5v-3
							C36.5,80.2,33.8,77.5,30.5,77.5z"/>
						<path style="fill:#878787;" d="M26.5,64.5c-0.8,0-1.6,0.2-2.3,0.6c0.4,0.6,0.7,1.2,0.9,1.8c1.4-0.8,3.3-0.3,4.1,1.1
							c0.8,1.4,0.3,3.3-1.1,4.1c-0.9,0.5-2,0.5-3,0c-0.2,0.6-0.5,1.2-0.9,1.8c0.7,0.4,1.5,0.6,2.3,0.6c2.8,0,5-2.2,5-5
							C31.5,66.7,29.3,64.5,26.5,64.5z"/>
					</g>
				</g>
			</g>
		</g>
	</g>
	<g>
		<g>
			<rect x="196" y="60.9" style="opacity:0.6;fill:#BBBBBB;enable-background:new    ;" width="150" height="50"/>
			<g>
				<rect x="194.5" y="59.4" style="fill:#FFFFFF;" width="149" height="49"/>
				<path style="fill:#E5E5E5;" d="M343,59.9v48H195v-48H343 M344,58.9H194v50h150V58.9L344,58.9z"/>
			</g>
		</g>
		<g>
			<g>
				<g transform="translate(20 9)">
					<g style="enable-background:new    ;">
						<path style="fill:#444444;" d="M244.2,73.2v6.1c0.4-0.4,0.9-0.8,1.4-1.3l0.3,1.1c-0.8,0.8-1.7,1.5-2.6,2.1l-0.4-0.9
							c0.2-0.2,0.3-0.4,0.3-0.6v-5.4h-2v-1H244.2z M245.2,71.2l-0.7,0.7c-0.6-0.7-1.3-1.4-2.3-2.2l0.7-0.7
							C243.8,69.8,244.6,70.5,245.2,71.2z M246,70.6v-1h7.9v1h-2.9v3.9h2.7v0.9h-2.7v4.8h3.2v1h-8.6v-1h1.4v-7.4h1v7.4h2v-9.7H246z"
							/>
						<path style="fill:#444444;" d="M261.4,68.8v2.5h4.1v0.5l-0.3,3.3h2c0,2.7-0.2,4.3-0.7,4.7c-0.2,0.2-0.5,0.4-0.8,0.4
							c-0.3,0.1-0.6,0.1-0.9,0.1h-0.9l-0.3-1c0.5,0,0.9,0,1.4,0c0.4,0,0.7-0.1,0.9-0.3c0.2-0.2,0.3-1.2,0.4-3h-4.8v5.7h-1V76h-5v-1
							h5v-2.8h-4.2v-1h4.2v-2.5H261.4z M264.2,75.1l0.3-2.8h-3.1v2.8H264.2z M267.7,70.8l-0.5,0.8c-0.9-0.8-1.9-1.5-2.8-2l0.5-0.8
							C265.9,69.4,266.9,70.1,267.7,70.8z"/>
						<path style="fill:#444444;" d="M280.5,80.4h1.5v0.9h-12.7v-0.9h1.6v-3.9h9.6V80.4z M271.2,69.5v5.7h-1v-5.7H271.2z
							 M273.7,80.4v-3h-1.9v3H273.7z M274.2,68.9v6.9h-1v-6.9H274.2z M276.6,80.4v-3h-2v3H276.6z M275.4,74.4l-0.6-0.8
							c1-1.2,1.7-2.8,2-4.8l1,0.2c-0.1,0.6-0.2,1.1-0.4,1.6h4.2v1h-4.5C276.6,72.7,276.1,73.6,275.4,74.4z M279.5,80.4v-3h-1.9v3
							H279.5z M280.3,75l-0.8,0.6c-0.4-0.8-1-1.6-1.7-2.6l0.8-0.5C279.3,73.5,279.9,74.3,280.3,75z"/>
						<path style="fill:#444444;" d="M283.7,81.6l-0.2-1c0.4,0,0.7,0.1,1.1,0.1c0.4,0,0.5-0.2,0.5-0.5v-3.4
							c-0.6,0.2-1.1,0.4-1.7,0.6l-0.3-1c0.7-0.2,1.3-0.4,1.9-0.6v-3.1h-1.7v-1h1.7v-2.7h1v2.7h1.2v1h-1.2v2.7
							c0.4-0.2,0.8-0.4,1.2-0.6v1c-0.4,0.2-0.8,0.4-1.2,0.6v4.1c0,0.8-0.4,1.2-1.2,1.2H283.7z M288.1,77.2v-0.9h7.5v0.9h-3.2v3.1
							h3.7v1h-8.6v-1h3.8v-3.1H288.1z M292.4,70.4h3.3v2.6h-0.9v-1.7h-5.9v1.7h-1v-2.6h3.5c-0.2-0.6-0.5-1.1-0.7-1.5l1-0.2
							C291.9,69.3,292.2,69.8,292.4,70.4z M291.3,72.6c-0.6,1.4-1.5,2.5-2.5,3.2l-0.7-0.6c1.1-0.7,1.9-1.7,2.4-2.9L291.3,72.6z
							 M295.4,75.2l-0.9,0.4c-0.7-1.1-1.4-2.2-2.3-3.1l0.9-0.4C294,73.1,294.7,74.1,295.4,75.2z"/>
					</g>
				</g>
			</g>
			<g transform="translate(20 9)">
				<g>
					<g>
						<path style="fill:#878787;" d="M211,65.4c2.2,0,4,1.8,4,4s-1.8,4-4,4c-2.2,0-4-1.8-4-4S208.8,65.4,211,65.4 M211,63.4
							c-3.3,0-6,2.7-6,6s2.7,6,6,6c3.3,0,6-2.7,6-6S214.3,63.4,211,63.4z"/>
						<path style="fill:#878787;" d="M215,79.4c3.3,0,6,2.7,6,6v1h-20v-1c0-3.3,2.7-6,6-6H215 M215,77.4h-8c-4.4,0-8,3.6-8,8v3h24
							v-3C223,81,219.4,77.4,215,77.4z"/>
						<path style="fill:#878787;" d="M224,77.4h-3c0.8,0.6,1.4,1.2,2,2h1c2.2,0,4,1.8,4,4v1h-3c0,0.3,0,0.7,0,1v1h5v-3
							C230,80.1,227.3,77.4,224,77.4z"/>
						<path style="fill:#878787;" d="M220,64.4c-0.8,0-1.6,0.2-2.3,0.6c0.4,0.6,0.7,1.2,0.9,1.8c1.4-0.8,3.3-0.3,4.1,1.1
							c0.8,1.4,0.3,3.3-1.1,4.1c-0.9,0.5-2,0.5-3,0c-0.2,0.6-0.5,1.2-0.9,1.8c0.7,0.4,1.5,0.6,2.3,0.6c2.8,0,5-2.2,5-5
							C225,66.7,222.8,64.4,220,64.4z"/>
					</g>
				</g>
			</g>
		</g>
	</g>
	<g>
		<polygon style="fill:#878787;" points="186,81.9 190,84.9 186,87.9 		"/>
		<line style="fill:none;stroke:#878787;stroke-miterlimit:10;" x1="188" y1="84.9" x2="121" y2="84.9"/>
	</g>
	<g>
		<polygon style="fill:#878787;" points="411,81.9 415,84.9 411,87.9 		"/>
		<line style="fill:none;stroke:#878787;stroke-miterlimit:10;" x1="413" y1="84.9" x2="346" y2="84.9"/>
	</g>
</g>
</svg>
