<?xml version="1.0" encoding="UTF-8"?>
<svg width="48px" height="48px" viewBox="0 0 48 48" version="1.1" xmlns="http://www.w3.org/2000/svg" xmlns:xlink="http://www.w3.org/1999/xlink">
    <!-- Generator: Sketch 51.2 (57519) - http://www.bohemiancoding.com/sketch -->
    <title>实时保护-48x48</title>
    <desc>Created with Sketch.</desc>
    <defs></defs>
    <g id="实时保护-48x48" stroke="none" stroke-width="1" fill="none" fill-rule="evenodd">
        <path d="M24,0 L21.822,1.187 C16,4.363 9.6,6.34 3,7 L3,28.529 C3,33.736 5.891,38.514 10.504,40.931 L24,48 L37.496,40.931 C42.109,38.514 45,33.736 45,28.529 L45,7 C38.4,6.34 32,4.363 26.178,1.187 L24,0 Z M24,2.278 L25.22,2.943 C30.777,5.976 36.752,7.935 43,8.778 L43,28.529 C43,33.008 40.535,37.081 36.568,39.159 L24,45.742 L11.432,39.159 C7.465,37.081 5,33.008 5,28.529 L5,8.778 C11.248,7.935 17.223,5.976 22.78,2.943 L24,2.278 Z" id="Fill-6" fill="#334966"></path>
        <circle id="Oval-22" fill="#00A4FF" cx="24" cy="23" r="10"></circle>
        <path d="M22.6378269,20.3263668 C23.0465965,20.1176891 23.5095544,20 24,20 C25.6568542,20 27,21.3431458 27,23 C27,24.6568542 25.6568542,26 24,26 C22.3431458,26 21,24.6568542 21,23 C21,22.5643512 21.0928598,22.1503909 21.2598657,21.7768328 L14.0659063,14.5828733 L15.4801198,13.1686598 L22.6378269,20.3263668 Z" id="Combined-Shape" fill="#334966"></path>
        <rect id="Rectangle-84-Copy" fill="#334966" x="24" y="22" width="8" height="2"></rect>
    </g>
</svg>