<?xml version="1.0" encoding="UTF-8"?>
<svg width="32px" height="32px" viewBox="0 0 32 32" version="1.1" xmlns="http://www.w3.org/2000/svg" xmlns:xlink="http://www.w3.org/1999/xlink">
    <!-- Generator: Sketch 51.2 (57519) - http://www.bohemiancoding.com/sketch -->
    <title>腾讯云TCE</title>
    <desc>Created with Sketch.</desc>
    <defs>
        <polygon id="path-1" points="0.000206414932 0.0114 28 0.0114 28 20.0114 0.000206414932 20.0114"></polygon>
        <polygon id="path-3" points="0 28.9886 28 28.9886 28 0.9996 0 0.9996"></polygon>
    </defs>
    <g id="腾讯云TCE" stroke="none" stroke-width="1" fill="none" fill-rule="evenodd">
        <g id="Group-11" transform="translate(2.000000, 1.000000)">
            <g id="Group-3" transform="translate(0.000000, 0.988600)">
                <mask id="mask-2" fill="white">
                    <use xlink:href="#path-1"></use>
                </mask>
                <g id="Clip-2"></g>
                <path d="M14.0332,0.0114 C9.2102,0.0114 5.3012,3.5934 5.3012,8.0114 L5.3012,8.1314 C2.0592,8.7084 -0.2068,11.4064 0.0152,14.4244 C0.2372,17.4434 2.8772,19.8374 6.1742,20.0114 L12.2862,20.0114 L15.7802,20.0114 L21.8922,20.0114 C25.1622,19.8084 27.7642,17.4234 27.9852,14.4284 C28.2052,11.4334 25.9762,8.7504 22.7662,8.1474 L22.7662,8.1314 L22.7662,8.0114 C22.7662,3.5934 18.8562,0.0114 14.0332,0.0114 M14.0332,2.0114 C17.7452,2.0114 20.7662,4.7024 20.7662,8.0114 L20.7662,8.1474 L20.7662,9.8064 L22.3972,10.1134 C24.5902,10.5254 26.1352,12.3174 25.9902,14.2824 C25.8452,16.2534 24.0592,17.8484 21.8252,18.0114 L15.7802,18.0114 L12.2862,18.0114 L6.2312,18.0114 C3.9672,17.8704 2.1562,16.2734 2.0102,14.2784 C1.8642,12.2914 3.4292,10.4954 5.6512,10.1004 L7.3012,9.8074 L7.3012,8.1314 L7.3012,8.0114 C7.3012,4.7024 10.3212,2.0114 14.0332,2.0114" id="Fill-1" fill="#00A4FF" mask="url(#mask-2)"></path>
            </g>
            <mask id="mask-4" fill="white">
                <use xlink:href="#path-3"></use>
            </mask>
            <g id="Clip-5"></g>
            <polygon id="Fill-4" fill="#00A4FF" mask="url(#mask-4)" points="10 12.9676 18 12.9676 18 10.9676 10 10.9676"></polygon>
            <polygon id="Fill-6" fill="#00A4FF" mask="url(#mask-4)" points="13.021 16.0306 15.021 16.0306 15.021 8.0306 13.021 8.0306"></polygon>
            <path d="M13.979,24.9883 C12.875,24.9883 11.979,25.8843 11.979,26.9883 C11.979,28.0923 12.875,28.9883 13.979,28.9883 C15.084,28.9883 15.979,28.0923 15.979,26.9883 C15.979,25.8843 15.084,24.9883 13.979,24.9883" id="Fill-7" fill="#00A4FF" mask="url(#mask-4)"></path>
            <path d="M15.021,19.9473 L13.021,19.9473 L13.021,24.1593 C13.323,24.0563 13.642,23.9883 13.979,23.9883 C14.347,23.9883 14.695,24.0643 15.021,24.1853 L15.021,19.9473 Z" id="Fill-8" fill="#00A4FF" mask="url(#mask-4)"></path>
            <path d="M11.1694,25.9678 L1.0004,25.9678 L1.0004,27.9678 L11.1564,27.9678 C11.0494,27.6588 10.9794,27.3328 10.9794,26.9888 C10.9794,26.6278 11.0524,26.2878 11.1694,25.9678" id="Fill-9" fill="#00A4FF" mask="url(#mask-4)"></path>
            <path d="M27,25.9678 L16.789,25.9678 C16.905,26.2878 16.979,26.6278 16.979,26.9888 C16.979,27.3328 16.909,27.6588 16.802,27.9678 L27,27.9678 L27,25.9678 Z" id="Fill-10" fill="#00A4FF" mask="url(#mask-4)"></path>
        </g>
    </g>
</svg>