<?xml version="1.0" encoding="utf-8"?>
<!-- Generator: Adobe Illustrator 22.1.0, SVG Export Plug-In . SVG Version: 6.00 Build 0)  -->
<svg version="1.1" id="svgwrapper_svg" xmlns="http://www.w3.org/2000/svg" xmlns:xlink="http://www.w3.org/1999/xlink" x="0px"
	 y="0px" width="801px" height="728px" viewBox="0 0 801 728" style="enable-background:new 0 0 801 728;" xml:space="preserve">
<style type="text/css">
	.st0{display:none;fill:none;stroke:#999999;}
	.st1{fill:#EAEBEC;}
	.st2{enable-background:new    ;}
	.st3{fill:#444444;}
	.st4{fill:none;stroke:#888888;}
	.st5{fill:#888888;}
	.st6{fill:none;stroke:#FF0000;stroke-width:15;stroke-opacity:0;}
	.st7{opacity:0.6;fill:#BBBBBB;enable-background:new    ;}
	.st8{fill:#FFFFFF;stroke:#E5E5E5;}
	.st9{fill:#CEE3FF;fill-opacity:0;}
	.st10{fill:#878787;}
</style>
<path class="st0" d="M0-9L0-9"/>
<g id="GrayRectGroup21" transform="translate(6,15)">
	<rect y="-9" class="st1" width="319" height="165"/>
	<g transform="translate(10 10)">
		<g class="st2">
			<path class="st3" d="M6.2-4C6-3.7,5.8-3.3,5.6-3.1h5.2v0.8c-0.6,0.8-1.4,1.5-2.5,2.1c1.5,0.6,3.2,1,5.1,1.1l-0.2,0.9
				C11,1.6,9,1.1,7.2,0.3C5.6,1.1,3.5,1.7,1,2.2L0.6,1.3c2.3-0.4,4.1-0.8,5.6-1.4C5.5-0.6,4.8-1,4.2-1.6c-0.5,0.5-1.1,1-1.7,1.3
				L1.8-1c1.4-0.8,2.5-1.8,3.4-3.2L6.2-4z M12.7-2.7h-1v-1.7H2.3v1.7h-1v-2.6h5.1C6.2-5.7,6.1-6,5.9-6.3L7-6.5
				c0.2,0.3,0.3,0.7,0.5,1.1h5.2V-2.7z M11.1,6.4h-1V5.8h-6v0.6h-1V2.1h8V6.4z M10.1,4.9V3h-6v2L10.1,4.9L10.1,4.9z M9.5-2.2H4.8
				l0,0C5.5-1.5,6.4-1,7.2-0.6C8.2-1.1,9-1.6,9.5-2.2z"/>
			<path class="st3" d="M15.2,6.5l-0.7-0.7c1.1-1.6,1.7-3.6,1.7-6.1v-4.4h4.6c-0.3-0.6-0.5-1.1-0.8-1.6l1-0.2
				c0.3,0.5,0.5,1.1,0.8,1.8h4.4V0h-9C17.1,2.5,16.5,4.6,15.2,6.5z M17.2-3.7V-1h8v-2.7H17.2z"/>
			<path class="st3" d="M32.7-5.9c-0.8,1.6-2,2.9-3.8,4.1l-0.3-1c1.5-1,2.5-2.2,3.2-3.5L32.7-5.9z M33.3-2.7
				c-0.4,0.8-0.9,1.5-1.5,2.2v6.9h-1V0.6c-0.6,0.5-1.2,1-1.8,1.5l-0.3-1c1.7-1.2,3-2.6,3.7-4.1L33.3-2.7z M41.3-2v1H39v6.1
				c0,0.8-0.5,1.2-1.4,1.2h-2.1l-0.2-1c0.7,0,1.3,0.1,1.9,0.1c0.4,0,0.7-0.2,0.7-0.5V-1h-4.4v-1H41.3z M40.7-5.5v1H34v-1H40.7z"/>
			<path class="st3" d="M48.8-6.4v1.7c0,0.6,0,1.2-0.1,1.8h5.8c0,4-0.2,6.6-0.5,7.6c-0.4,1.1-1,1.6-2,1.6c-0.7,0-1.3,0-1.7-0.1
				l-0.3-1c0.7,0.1,1.4,0.1,1.9,0.1c0.8-0.1,1.2-0.9,1.4-2.4c0.1-1.5,0.2-3.2,0.2-5h-4.8c-0.2,1.8-0.6,3.2-1.2,4.4
				c-0.8,1.7-2.2,3-4.1,3.9l-0.6-0.9c1.9-1,3.2-2.2,3.9-3.8c0.4-1,0.7-2.3,0.9-3.7h-4.4v-1h4.5c0-0.6,0.1-1.2,0.1-1.8v-1.7h1V-6.4z
				 M46.5-3.9l-0.8,0.5c-0.5-0.7-1.1-1.4-1.9-2.2l0.8-0.5C45.4-5.3,46-4.5,46.5-3.9z M51.8,2.7L51,3.3c-0.6-0.9-1.3-1.9-2.3-3
				l0.8-0.5C50.5,0.9,51.3,1.9,51.8,2.7z"/>
			<path class="st3" d="M62.5,0.1v-1.3h1v1.3h5.1v1h-4.1c1,1.4,2.6,2.7,4.8,3.8l-0.7,0.9c-2.4-1.4-4-3-4.9-4.7h-0.2v5.3h-1V1.1h-0.1
				c-1,1.9-2.7,3.6-5.1,4.8L56.7,5c2.2-1,3.8-2.3,4.8-3.9h-4.1v-1C57.4,0.1,62.5,0.1,62.5,0.1z M68.4-5.5C65.7-5,62.2-4.7,57.7-4.7
				l-0.3-1c4.2,0,7.7-0.3,10.5-0.8L68.4-5.5z M60.4-1.5l-0.9,0.4c-0.4-1-0.9-1.8-1.4-2.6l1-0.3C59.6-3.2,60-2.4,60.4-1.5z M64.1-1.8
				l-1,0.2C62.8-2.4,62.4-3.2,62-4l0.9-0.3C63.3-3.6,63.7-2.7,64.1-1.8z M68.3-4.1C67.7-2.9,67-1.9,66.2-1l-0.8-0.6
				c0.8-0.8,1.5-1.8,2-3L68.3-4.1z"/>
			<path class="st3" d="M71.2-1.8l-0.6-0.8c1.2-1.1,2.2-2.4,2.8-4l0.9,0.2C74.2-6,74-5.7,73.8-5.3h3c-0.2-0.4-0.4-0.8-0.6-1.2l1-0.2
				c0.2,0.4,0.4,0.9,0.6,1.4h4.5v0.8h-4.5v1h3.9v0.8h-3.9v0.9h3.9V-1h-3.9v1h4.7v1H72.3v-4C72-2.5,71.6-2.1,71.2-1.8z M71,3V2.1h5.6
				V1.4h1v0.7H83V3h-4.2c1,0.9,2.4,1.6,4.4,2.1L82.8,6c-2.3-0.8-4-1.8-4.9-3h-0.3v3.4h-1V3h-0.3c-0.9,1.2-2.5,2.2-4.9,3.1l-0.5-0.9
				C73,4.6,74.5,3.8,75.3,3H71z M76.9-4.3h-3.6l-0.1,0.1v0.8h3.6L76.9-4.3L76.9-4.3z M76.9-2.6h-3.6v0.9h3.6V-2.6z M76.9-0.9h-3.6v1
				h3.6V-0.9z"/>
		</g>
	</g>
</g>
<g id="GrayRectGroup26" transform="translate(6,194)">
	<rect y="-9" class="st1" width="319" height="165"/>
	<g transform="translate(10 10)">
		<g class="st2">
			<path class="st3" d="M4.2,0.2C4.1,0.4,4,0.7,4,1h2.9v0.8C6.6,2.7,6.1,3.5,5.3,4.2c0.7,0.3,1.3,0.6,1.9,1L6.7,5.9
				C6.1,5.5,5.4,5.2,4.6,4.8C3.6,5.4,2.5,6,1.1,6.4L0.6,5.5c1.1-0.3,2.1-0.7,3-1.1c-0.7-0.3-1.3-0.6-2-0.8C2,3,2.3,2.4,2.6,1.8H0.9
				V1h2C3,0.7,3.1,0.4,3.2,0.1L4.2,0.2z M3.7-3.8v-2.7h0.9v2.7h2.5v0.9H4.6v0.2c0.8,0.4,1.5,0.8,2.3,1.3L6.4-0.6
				C5.7-1.2,5.1-1.7,4.6-2v1.8H3.7v-2.7C3.2-1.7,2.4-0.8,1.2,0L0.7-0.8C1.8-1.4,2.5-2.1,3-2.9H1v-0.9C1-3.8,3.7-3.8,3.7-3.8z
				 M2.9-4.4L2.2-4.1c-0.3-0.7-0.6-1.3-1-1.8L2-6.2C2.4-5.6,2.6-5,2.9-4.4z M6,1.8H3.6c-0.3,0.5-0.5,1-0.8,1.4
				c0.6,0.2,1.1,0.4,1.6,0.6C5.1,3.2,5.6,2.6,6,1.8z M7-5.9C6.7-5.3,6.4-4.7,5.9-4.1L5.2-4.4C5.7-5,6-5.6,6.3-6.2L7-5.9z M8.5-1.1
				C8.3-0.4,8,0.1,7.7,0.6L7.1-0.1c0.8-1.6,1.4-3.7,1.7-6.3l1,0.2c-0.1,0.7-0.2,1.4-0.3,2h3.7v1h-0.9c-0.1,2.3-0.5,4.3-1.3,6
				c0.7,1.3,1.6,2.2,2.6,2.9L13,6.4c-1-0.7-1.8-1.7-2.5-2.8c-0.7,1.1-1.6,2-2.6,2.8L7.3,5.5c1.1-0.8,1.9-1.7,2.6-2.9
				C9.4,1.6,8.9,0.3,8.5-1.1z M9-2.6c0.4,1.6,0.8,3,1.4,4.2c0.5-1.4,0.8-3.1,0.9-5H9.2L9-2.6z"/>
			<path class="st3" d="M15.1,6.3l-0.2-1c0.4,0,0.7,0.1,1.1,0.1s0.5-0.2,0.5-0.6V1.4c-0.6,0.2-1.1,0.4-1.7,0.6l-0.3-1
				c0.6-0.2,1.3-0.4,1.9-0.6v-3.2h-1.7v-1h1.7v-2.6h1v2.6h1.3v1h-1.3V0c0.4-0.2,0.9-0.4,1.3-0.6v1c-0.4,0.2-0.9,0.4-1.3,0.6v4
				c0,0.8-0.4,1.2-1.2,1.2h-1.1V6.3z M18.8,6.4L18,5.7c1-1.8,1.5-4.3,1.5-7.2v-4.4H27v3.4h-2.6v1.7h3v0.9h-3v1.7h2.4v4.6h-0.9V5.7
				h-3.8v0.7H21V1.8h2.3V0.1h-2.9C20.3,2.5,19.8,4.6,18.8,6.4z M20.6-2.5v1c0,0.2,0,0.4,0,0.7h2.8v-1.7H20.6z M20.6-4.9v1.6H26v-1.6
				H20.6z M25.7,4.8V2.7h-3.8v2.1H25.7z"/>
			<path class="st3" d="M35.4-6.4c1.7,2.1,3.8,3.8,6.1,5L41-0.5c-2.3-1.3-4.3-2.9-5.9-4.9c-1.5,1.9-3.5,3.6-6,5l-0.5-0.9
				c2.4-1.3,4.5-3,6.1-5L35.4-6.4L35.4-6.4z M32.5-0.5v4.9c0,0.5,0.3,0.8,0.8,0.8h4.3c0.8,0,1.3-0.1,1.5-0.4s0.3-0.9,0.4-1.8
				l0.9,0.3c-0.1,1.4-0.4,2.2-0.7,2.5s-1,0.4-1.9,0.4h-4.9c-0.9,0-1.4-0.5-1.4-1.4v-6.2h6.9v3.2c0,0.9-0.4,1.3-1.2,1.4
				c-0.7,0-1.4,0-2,0l-0.3-1c0.7,0.1,1.3,0.1,1.9,0.1c0.4,0,0.6-0.3,0.6-0.8v-2C37.4-0.5,32.5-0.5,32.5-0.5z"/>
			<path class="st3" d="M50.2-5.2h5v1H44.9V-1c-0.1,3.1-0.5,5.6-1.4,7.4l-0.8-0.7c0.8-1.6,1.2-3.8,1.2-6.7v-4.2h5.3
				C49-5.6,48.7-6,48.5-6.4l1.1-0.2C49.7-6.2,50-5.7,50.2-5.2z M49.5-3.6c-0.1,0.4-0.3,0.8-0.4,1.1h5.5v0.9h-5.8
				c-0.4,0.9-0.8,1.7-1.3,2.4h2.6v-1.7h1v1.7h3.1v0.9h-3.1v1.6h4.2v0.9h-4.2v2.2h-1V4.2H45V3.3h5.1V1.7h-3.7l-0.2-0.9
				c0.5-0.7,1-1.5,1.5-2.4h-2.1v-0.9h2.5c0.2-0.4,0.3-0.9,0.5-1.3L49.5-3.6z"/>
		</g>
	</g>
</g>
<g id="GrayRectGroup31" transform="translate(6,375)">
	<rect y="-9" class="st1" width="319" height="165"/>
	<g transform="translate(10 10)">
		<g class="st2">
			<path class="st3" d="M1.6-3.2L0.8-3.7c0.9-0.9,1.5-1.8,1.9-2.8l1,0.2C3.5-6,3.4-5.7,3.3-5.5H7v0.9H4.7c0.4,0.4,0.6,0.8,0.8,1.2
				L4.6-3.1c-0.3-0.5-0.6-1-1-1.5H2.8C2.4-4.1,2.1-3.6,1.6-3.2z M1.9-1.8v-0.9h10.2v3.2H7.6v1.4h5.1c0,1.7-0.1,2.7-0.3,3.1
				c-0.2,0.5-0.7,0.7-1.5,0.7c-0.6,0-1.2,0-1.7,0l-0.3-1c0.6,0,1.3,0,1.8,0c0.4,0,0.7-0.2,0.8-0.5s0.1-0.8,0.1-1.6h-4v3.7h-1V2.7
				l0,0C5.6,4,3.9,5.2,1.4,6.1L0.8,5.2C3,4.5,4.6,3.6,5.4,2.7H1.6l0.6-3.2h4.3v-1.3C6.5-1.8,1.9-1.8,1.9-1.8z M3.2,0.4L2.8,1.8h3.8
				V0.4H3.2z M7.6-3.2L6.8-3.7c0.8-0.9,1.3-1.8,1.7-2.8l1,0.2C9.4-6.1,9.2-5.8,9.1-5.5h4.1v0.9h-2.5c0.4,0.4,0.6,0.9,0.8,1.2
				l-0.9,0.3c-0.3-0.5-0.6-1.1-1-1.6h-1C8.4-4.1,8-3.6,7.6-3.2z M11.1-0.5v-1.3H7.6v1.3H11.1z"/>
			<path class="st3" d="M27.3,4.6v1H14.7v-1H27.3z M26.3-5.4v1H15.7v-1H26.3z M25.4-0.5v1h-8.7v-1H25.4z"/>
			<path class="st3" d="M34.9-4.4c-0.3-0.6-0.6-1.2-1-1.8l1-0.3c0.4,0.6,0.8,1.3,1.1,2.1h5.2v1h-7.4l-0.1,2.5l0,0h5.8
				c0,2.8-0.1,4.6-0.3,5.3c-0.3,1.2-1,1.8-2.1,1.8c-0.4,0-1,0-1.6-0.1l-0.3-0.9c0.7,0,1.3,0,1.8,0c0.7,0,1.1-0.5,1.3-1.5
				c0.1-0.6,0.1-1.9,0.2-3.8h-4.9c-0.2,1.1-0.5,2.2-1,3.1c-0.7,1.2-1.6,2.3-2.9,3.3L29,5.7c1.5-1.3,2.5-2.4,3-3.5s0.7-2.3,0.8-3.6
				c0-0.9,0.1-1.6,0.1-2H29v-1H34.9z"/>
		</g>
	</g>
</g>
<rect x="6" y="546" class="st1" width="170" height="176"/>
<g transform="translate(10 10)">
	<g class="st2">
		<path class="st3" d="M12.9,553.3v1H9.6c-0.6,2.1-1.1,3.6-1.5,4.6c1.1-0.2,2.2-0.5,3.3-1c-0.4-0.8-0.7-1.4-1.1-2.1l0.9-0.4
			c0.7,1.2,1.3,2.5,1.9,3.9l-0.9,0.4c-0.1-0.4-0.3-0.7-0.4-1c-1.5,0.5-3.1,1-4.8,1.3l-0.2-1c0.1,0,0.2-0.1,0.2-0.1
			c0.4-0.6,1-2.1,1.7-4.7h-2v-1L12.9,553.3L12.9,553.3z M12.3,549.5v1h-5v-1H12.3z M16,548.6v2.8h3c0,4.4-0.1,7.1-0.2,8.1
			c-0.1,1.1-0.8,1.7-2,1.7c-0.2,0-0.6,0-1.2,0l-0.2-0.9c0.5,0,1,0.1,1.3,0.1c0.7,0,1.1-0.4,1.2-1.2c0.1-0.7,0.1-3,0.2-6.8H16v0.2
			c0,4-1,7-2.9,8.9l-0.8-0.7c1.8-1.7,2.6-4.4,2.7-8.2v-0.2h-1.9v-1H15v-2.8L16,548.6L16,548.6z"/>
		<path class="st3" d="M27.5,548.5c-0.1,0.5-0.2,1-0.3,1.5h5.4v1h-4.5c0.7,1.6,2.4,2.8,5.2,3.6l-0.5,0.9c-3.1-1.1-5-2.6-5.7-4.5
			h-0.2c-0.3,0.8-0.7,1.5-1.2,2.1c-0.1,0.1-0.1,0.1-0.1,0.2c0.6,0.4,1.3,1,2,1.7l-0.7,0.7c-0.7-0.7-1.3-1.3-2-1.8
			c-0.9,0.7-2.2,1.2-3.9,1.7l-0.4-0.9c2-0.5,3.4-1.2,4.3-2.2c0.4-0.4,0.7-0.9,1-1.5h-4.6v-1h4.9c0.2-0.5,0.3-1,0.3-1.6L27.5,548.5z
			 M23,556.9c-0.3,1.5-0.8,2.7-1.4,3.8l-0.9-0.5c0.6-1,1-2.2,1.3-3.4L23,556.9z M25.4,561.1c-0.9,0-1.3-0.5-1.3-1.4v-3h1v2.8
			c0,0.4,0.2,0.6,0.6,0.6h3.1c0.3,0,0.5-0.1,0.6-0.3c0.2-0.2,0.3-0.8,0.3-1.7l1,0.3c-0.1,1.3-0.3,2-0.6,2.3
			c-0.3,0.2-0.6,0.4-1.2,0.4L25.4,561.1L25.4,561.1z M28.6,558.6l-0.9,0.4c-0.4-0.9-0.8-1.8-1.2-2.5l0.9-0.3
			C27.8,556.9,28.2,557.7,28.6,558.6z M33.3,559.9l-0.9,0.4c-0.5-1.3-1.1-2.5-1.8-3.5l1-0.3C32.2,557.5,32.8,558.7,33.3,559.9z"/>
		<path class="st3" d="M46.8,550.7h-3.3c0.1,1,0.2,1.8,0.3,2.4c0.1,0.4,0.2,0.8,0.4,1.2c0.5-0.8,0.9-1.8,1.3-2.8l0.8,0.4
			c-0.4,1.4-1,2.5-1.6,3.4l0.1,0.2c0.4,0.5,0.7,0.7,1,0.7s0.5-0.6,0.8-1.8l0.8,0.5c-0.4,1.5-0.9,2.2-1.5,2.2s-1.1-0.3-1.6-0.9
			c-0.1-0.1-0.2-0.2-0.2-0.3c-0.5,0.5-1,0.9-1.5,1.2l-0.5-0.8c0.5-0.3,1-0.7,1.5-1.2c-0.2-0.4-0.4-1-0.6-1.5
			c-0.2-0.8-0.4-1.8-0.4-2.9h-5.7v1.8c0,1.8-0.5,3.3-1.4,4.5l-0.8-0.7c0.8-0.9,1.1-2.2,1.2-3.8v-2.8h6.7c0-0.4,0-0.9,0-1.3h1
			c0,0.5,0,0.9,0,1.3H45c-0.1-0.4-0.3-0.8-0.5-1.1l0.9-0.2c0.2,0.4,0.3,0.8,0.4,1.2h0.9L46.8,550.7L46.8,550.7z M37.2,557.5
			c-0.4,1.3-0.9,2.5-1.6,3.4l-0.9-0.5c0.7-0.9,1.2-1.9,1.6-3.1L37.2,557.5z M42.1,551.9v0.8h-4.6v-0.8H42.1z M41.7,553.6v2.9h-3.9
			v-2.9H41.7z M39.4,561.2c-0.8,0-1.2-0.4-1.2-1.3v-2.7h1v2.5c0,0.4,0.2,0.6,0.5,0.6h3c0.3,0,0.5-0.1,0.6-0.2
			c0.1-0.2,0.3-0.6,0.3-1.5l1,0.3c-0.1,1.1-0.3,1.8-0.5,2c-0.3,0.2-0.6,0.3-1.1,0.3L39.4,561.2L39.4,561.2z M40.8,554.4h-2v1.3h2
			V554.4z M42.5,558.8l-0.8,0.5c-0.4-0.6-0.9-1.2-1.5-1.9l0.8-0.5C41.7,557.6,42.2,558.3,42.5,558.8z M47.4,560.1l-0.8,0.6
			c-0.5-0.8-1.1-1.6-1.9-2.5l0.8-0.5C46.3,558.5,47,559.4,47.4,560.1z"/>
		<path class="st3" d="M49.6,553.5l-0.9-0.6c0.9-1.3,1.6-2.8,2-4.4l1,0.2c-0.2,0.6-0.4,1.2-0.5,1.7h4v1h-2c0,1-0.1,1.9-0.2,2.8h2.3
			v1h-2.5c-0.1,0.4-0.1,0.7-0.2,1.1c0.9,0.9,1.8,1.9,2.7,3.1l-0.6,0.9c-1-1.3-1.8-2.4-2.4-3.1c-0.6,1.6-1.6,2.9-3.1,4l-0.7-0.8
			c1.5-1.1,2.5-2.4,2.9-4.1c0.1-0.3,0.2-0.7,0.2-1.1h-2.9v-1h3.1c0.1-0.8,0.2-1.8,0.2-2.8h-1.4C50.4,552.2,50,552.9,49.6,553.5z
			 M60.7,560.8h-1v-0.9H57v0.9h-1V550h4.7V560.8z M59.8,558.9V551H57v7.9H59.8z"/>
	</g>
</g>
<rect x="243" y="546" class="st1" width="170" height="176"/>
<g transform="translate(10 10)">
	<g class="st2">
		<path class="st3" d="M252,554.2l-0.7,0.7c-0.6-0.7-1.4-1.4-2.5-2.1l0.7-0.7C250.5,552.8,251.3,553.5,252,554.2z M252.3,556.3
			c-0.7,1.8-1.5,3.4-2.3,4.9l-0.9-0.4c0.9-1.6,1.7-3.2,2.4-4.9L252.3,556.3z M252.5,550.9l-0.7,0.7c-0.6-0.7-1.5-1.4-2.6-2.1
			l0.7-0.7C250.9,549.5,251.7,550.2,252.5,550.9z M252.9,556.2v-0.9h3.6v-1.6h1v1.6h3.7v0.9h-2.7c0.6,1.3,1.7,2.4,3.2,3.5l-0.6,0.8
			c-1.5-1.3-2.6-2.7-3.2-4.3h-0.3v5.1h-1v-5.1h-0.3c-0.7,1.8-2,3.2-3.7,4.4l-0.5-0.9c1.6-0.9,2.7-2.1,3.5-3.5H252.9z M256.5,551.3
			c-0.7,1.3-1.6,2.3-2.7,3l-0.7-0.6c1.1-0.7,2-1.6,2.5-2.7L256.5,551.3z M260.9,551.8h-1v-1.7h-5.8v1.8h-1v-2.7h7.8V551.8z
			 M260.6,553.7l-0.8,0.6c-0.6-0.9-1.4-1.8-2.5-2.8l0.8-0.5C259.2,552,260,552.9,260.6,553.7z"/>
		<path class="st3" d="M264.9,554.2c-0.1,3-0.6,5.4-1.5,7.1l-0.8-0.7c0.8-1.6,1.2-3.7,1.3-6.5v-4.6h5.4c-0.2-0.4-0.3-0.7-0.5-1
			l1.1-0.2c0.2,0.4,0.3,0.7,0.5,1.2h4.8v1H265v1.6h2.4V551h1v1.1h3.7V551h1v1.1h2.2v0.9h-2.2v2.2h-5.7V553H265L264.9,554.2
			L264.9,554.2z M274,556.3v0.7c-0.8,1-1.7,1.8-2.9,2.5c1.3,0.5,2.7,0.9,4.4,1.1l-0.4,0.9c-1.9-0.3-3.6-0.8-4.9-1.5
			c-1.4,0.7-3.1,1.2-4.9,1.5l-0.4-0.9c1.6-0.2,3.1-0.6,4.3-1.1c-1-0.6-1.9-1.4-2.5-2.3h-0.9v-0.9H274z M270.1,559
			c1-0.5,1.8-1.1,2.6-1.8h-5C268.3,557.9,269.1,558.5,270.1,559z M268.3,554.5h3.7v-1.3h-3.7V554.5z"/>
		<path class="st3" d="M279.3,556.9c-0.4,1.6-1,2.9-1.7,4.1l-0.9-0.5c0.7-1.1,1.3-2.4,1.6-3.7L279.3,556.9z M287.5,549.1v6.5h-8.8
			v-6.5H287.5z M282.6,551.9V550h-2.9v1.8h2.9V551.9z M282.6,552.8h-2.9v1.8h2.9V552.8z M281.5,561.2c-1,0-1.4-0.5-1.4-1.5v-3h1v2.8
			c0,0.5,0.3,0.8,0.8,0.8h3.1c0.3,0,0.5-0.1,0.6-0.3c0.2-0.2,0.3-0.8,0.3-1.7l1,0.3c-0.1,1.2-0.3,2-0.6,2.2
			c-0.3,0.2-0.6,0.3-1.2,0.3h-3.6V561.2z M284.7,558.5l-0.9,0.4c-0.4-1-0.9-1.8-1.4-2.6l0.9-0.3
			C283.9,556.8,284.3,557.6,284.7,558.5z M283.5,551.9h2.9V550h-2.9V551.9z M286.5,552.8h-2.9v1.8h2.9V552.8z M289.4,560.1l-0.9,0.4
			c-0.6-1.4-1.3-2.7-2.1-3.8l1-0.3C288.2,557.5,288.9,558.8,289.4,560.1z"/>
		<path class="st3" d="M296,550v-1.4h1v1.4h3.2v0.8c0.6-0.6,1.1-1.2,1.6-1.9l0.7,0.6c-0.8,1.1-1.7,2.1-2.7,3h3.4v1h-4.6
			c-0.7,0.5-1.4,1-2.2,1.4h6v0.9h-6.9l-0.5,1.4h6.7c-0.1,1.9-0.3,3.1-0.6,3.5c-0.3,0.4-1,0.5-1.9,0.5c-0.7,0-1.2,0-1.8-0.1l-0.3-0.9
			c0.7,0,1.3,0.1,1.9,0.1c0.7,0,1.2-0.1,1.4-0.4c0.2-0.3,0.3-0.9,0.4-1.9h-6.9l0.6-2.2c-1.1,0.5-2.2,0.9-3.4,1.3l-0.4-0.9
			c2.4-0.7,4.4-1.6,6.2-2.8h-5.6v-1h4.7v-1.5h-3.7V550H296z M300,550.9h-3v1.5h1.3C298.9,551.9,299.5,551.4,300,550.9z"/>
	</g>
</g>
<rect x="476.5" y="547" class="st1" width="321" height="175"/>
<g id="Link36" transform="translate(0,0)">
	<path class="st4" d="M324.5,267.5h64"/>
	<g transform="translate(0.5, 0)">
		<polygon class="st5" points="383.5,272 389.5,267.5 383.5,263 		"/>
	</g>
	<path class="st6" d="M324.5,267.5h64"/>
</g>
<g id="Link37" transform="translate(0,0)">
	<path class="st4" d="M324.5,88.5h166v149"/>
	<g transform="translate(0, 0.5)">
		<polygon class="st5" points="486,232.5 490.5,238.5 495,232.5 		"/>
	</g>
	<path class="st6" d="M324.5,88.5h166"/>
	<path class="st6" d="M490.5,88.5v149"/>
</g>
<g id="Link38" transform="translate(0,0)">
	<path class="st4" d="M324.5,448.5h166v-151"/>
	<g transform="translate(0, -0.5)">
		<polygon class="st5" points="495,302.5 490.5,296.5 486,302.5 		"/>
	</g>
	<path class="st6" d="M324.5,448.5h166"/>
	<path class="st6" d="M490.5,448.5v-151"/>
</g>
<g id="Link39" transform="translate(0,0)">
	<path class="st4" d="M587.5,267.5h63"/>
	<g transform="translate(0.5, 0)">
		<polygon class="st5" points="645.5,272 651.5,267.5 645.5,263 		"/>
	</g>
	<path class="st6" d="M587.5,267.5h63"/>
</g>
<g id="Link56" transform="translate(0,0)">
	<path class="st4" d="M175.5,633.5h31l0,0h31"/>
	<g transform="translate(0.5, 0)">
		<polygon class="st5" points="232.5,638 238.5,633.5 232.5,629 		"/>
	</g>
	<path class="st6" d="M175.5,633.5h31"/>
	<path class="st6" d="M206.5,633.5L206.5,633.5"/>
	<path class="st6" d="M206.5,633.5h31"/>
</g>
<g id="Link57" transform="translate(0,0)">
	<path class="st4" d="M412.5,633.5h30l0,0h29"/>
	<g transform="translate(0.5, 0)">
		<polygon class="st5" points="466.5,638 472.5,633.5 466.5,629 		"/>
	</g>
	<path class="st6" d="M412.5,633.5h30"/>
	<path class="st6" d="M442.5,633.5L442.5,633.5"/>
	<path class="st6" d="M442.5,633.5h29"/>
</g>
<g id="RectEndPoint20" transform="translate(656,251.5)">
	<rect x="2" y="-7" class="st7" width="138" height="50"/>
	<rect y="-9" class="st8" width="138" height="50"/>
	<g transform="translate(20 9)">
		<g class="st2">
			<path class="st3" d="M6.9,3.7C6.3,4.9,5.6,6.1,4.7,7.1V12c1.3-0.3,2.5-0.8,3.6-1.2l0.2,1c-1.4,0.5-3,1.1-4.9,1.6l-0.2-1
				c0.3-0.1,0.4-0.3,0.4-0.5V8.1C2.9,8.7,2.1,9.3,1.2,9.8L0.7,9c2.4-1.4,4.1-3.1,5.2-5.3H1v-1h5.6C6.3,2,6,1.3,5.7,0.7l1.1-0.2
				c0.3,0.6,0.6,1.3,0.9,2.2H13v1H8c0.2,1.4,0.6,2.6,1.2,3.8C10.1,7,11,6.2,11.9,5.1l0.7,0.7c-0.9,1.1-1.8,1.9-2.9,2.5
				c0.9,1.5,2.1,2.8,3.7,3.9l-0.6,1c-3.1-2.3-5-5.4-5.6-9.5C7.2,3.7,6.9,3.7,6.9,3.7z"/>
			<path class="st3" d="M18,11.4c0.5,0.5,0.9,1,1.2,1.4l-0.7,0.6c-0.3-0.5-0.7-1-1.2-1.4c-0.5-0.6-1-1-1.6-1.4l0.6-0.6
				C17,10.4,17.5,10.9,18,11.4z"/>
			<path class="st3" d="M35.3,0.6c1.7,1.7,3.7,3,6,4l-0.5,0.9c-2.3-1-4.2-2.3-5.9-3.9c-1.5,1.6-3.5,2.9-5.9,4.1l-0.5-0.9
				c2.4-1.1,4.4-2.5,6-4.1L35.3,0.6L35.3,0.6z M31,12.6c0.3-0.1,0.4-0.3,0.4-0.8V4.6h3.3c-0.2-0.5-0.4-1-0.6-1.4l1-0.2
				c0.2,0.5,0.4,1,0.6,1.6h3.1v5h-6.3v2.7c1.1-0.2,2.2-0.5,3.2-0.8l0.2,0.9c-1.2,0.4-2.7,0.7-4.5,1.1L31,12.6z M37.8,5.5h-5.4v1.1
				h5.4V5.5z M32.4,8.7h5.4V7.5h-5.4V8.7z M40.4,9.7c-0.6,0.6-1.2,1.2-1.8,1.8c0.8,0.4,1.6,0.9,2.3,1.3l-0.6,0.8
				c-1.5-1-3.4-2-5.7-2.8l0.6-0.7c0.9,0.3,1.8,0.7,2.6,1.1c0.7-0.5,1.3-1.1,1.8-1.8L40.4,9.7z"/>
			<path class="st3" d="M46,11.4c0.5,0.5,0.9,1,1.2,1.4l-0.7,0.6c-0.3-0.5-0.7-1-1.2-1.4c-0.5-0.6-1-1-1.6-1.4l0.6-0.6
				C45,10.4,45.5,10.9,46,11.4z"/>
			<path class="st3" d="M60.7,0.9C60.3,2,59.8,3.1,59.3,4v9.4h-1V5.6c-0.4,0.6-0.9,1.2-1.5,1.7l-0.3-1.1c1.5-1.7,2.6-3.6,3.2-5.7
				L60.7,0.9z M64.4,3c-0.2-0.7-0.5-1.4-0.8-2.1l1-0.3c0.3,0.8,0.6,1.5,0.8,2.2L64.9,3h4.2v1h-3.7v3.3h3.3v1h-3.3V12h4v1h-9v-1h4
				V8.3H61v-1h3.3V3.9h-3.8V3H64.4z"/>
			<path class="st3" d="M74,11.4c0.5,0.5,0.9,1,1.2,1.4l-0.7,0.6c-0.3-0.5-0.7-1-1.2-1.4c-0.5-0.6-1-1-1.6-1.4l0.6-0.6
				C73,10.4,73.5,10.9,74,11.4z"/>
			<path class="st3" d="M88.7,1.1c-0.8,1.6-2,2.9-3.8,4.1l-0.3-1c1.5-1,2.5-2.2,3.2-3.5L88.7,1.1z M89.3,4.3
				c-0.4,0.8-0.9,1.5-1.5,2.2v6.9h-1V7.6c-0.6,0.5-1.2,1-1.8,1.5l-0.3-1c1.7-1.2,3-2.6,3.7-4.1L89.3,4.3z M97.3,5v1H95v6.1
				c0,0.8-0.5,1.2-1.4,1.2h-2.1l-0.2-1c0.7,0,1.3,0.1,1.9,0.1c0.4,0,0.7-0.2,0.7-0.5V6h-4.4V5H97.3z M96.7,1.5v1H90v-1H96.7z"/>
		</g>
	</g>
</g>
<g id="RectEndPoint22" transform="translate(17,56)">
	<rect x="2" y="-7" class="st7" width="138" height="50"/>
	<rect y="-9" class="st8" width="138" height="50"/>
	<g transform="translate(20,9)">
		<g class="st2">
			<path class="st3" d="M4.1,1.5V0.6h1v0.9h3.7V0.6h1v0.9H13v0.9H9.9v0.8h-1V2.4H5.1v0.8h-1V2.4H1V1.5H4.1z M12.6,6.4h-1V4.7H2.3
				v1.8h-1V3.8h11.3V6.4z M11.9,13.4h-1v-0.6H3.3v0.6h-1v-4h9.6C11.9,9.4,11.9,13.4,11.9,13.4z M10.9,12v-1.7H3.3V12H10.9z
				 M10.5,5.7v2.8h-7V5.7H10.5z M9.6,6.5H4.5v1.3h5.1V6.5z"/>
			<path class="st3" d="M20,0.7v11.1h2V0.7h1v11.1h4.2v1H14.8v-1H19V0.7H20z M18,9.7L17,10c-0.5-2.2-1.1-4.4-1.9-6.5L16,3.2
				C16.7,5.1,17.4,7.3,18,9.7z M26.8,3.5c-0.6,2.4-1.3,4.6-2.1,6.4l-0.9-0.3c0.8-1.7,1.5-3.8,2.1-6.3L26.8,3.5z"/>
			<path class="st3" d="M41,2.1h-9.8v4.3c-0.1,2.9-0.7,5.2-1.8,6.9l-0.8-0.7c1-1.5,1.5-3.6,1.6-6.3V1.2H41V2.1z M40.8,4.4v1h-3.5
				v6.5c0,0.9-0.4,1.4-1.3,1.4h-1.5l-0.2-1c0.5,0,0.9,0.1,1.4,0.1s0.7-0.3,0.7-0.8V5.3H32v-1L40.8,4.4L40.8,4.4z"/>
			<path class="st3" d="M48,0.7v11.1h2V0.7h1v11.1h4.2v1H42.8v-1H47V0.7H48z M46,9.7L45,10c-0.5-2.2-1.1-4.4-1.9-6.5L44,3.2
				C44.7,5.1,45.4,7.3,46,9.7z M54.8,3.5c-0.6,2.4-1.3,4.6-2.1,6.4l-0.9-0.3c0.8-1.7,1.5-3.8,2.1-6.3L54.8,3.5z"/>
			<path class="st3" d="M61.8,0.7c-0.2,0.4-0.3,0.7-0.5,1.1h6.1v0.8c-0.9,1-2,1.9-3.3,2.6c1.6,0.7,3.3,1.1,5.3,1.3L69,7.4
				c-2.2-0.3-4.2-0.8-5.9-1.7c-1.7,0.8-3.7,1.4-6,1.7l-0.5-1c2-0.3,3.8-0.7,5.4-1.3c-0.8-0.5-1.5-1-2.2-1.6c-0.6,0.5-1.1,1-1.8,1.4
				l-0.6-0.8c1.7-1,2.8-2.1,3.4-3.5L61.8,0.7z M63.2,6.7c0,0.6-0.1,1.1-0.1,1.6H68c0,2.4-0.2,3.8-0.6,4.2c-0.4,0.5-1.1,0.7-2.1,0.7
				c-0.4,0-1,0-1.6-0.1l-0.3-0.9l1.7,0.1c0.8,0,1.4-0.2,1.6-0.5s0.3-1.2,0.4-2.6H63c-0.1,0.4-0.3,0.7-0.4,1
				c-0.7,1.3-2.4,2.3-4.9,3.1L57,12.5c2.3-0.7,3.8-1.5,4.6-2.5c0.2-0.3,0.3-0.5,0.4-0.8h-4.2V8.3H62c0.1-0.5,0.2-1,0.2-1.6
				C62.2,6.7,63.2,6.7,63.2,6.7z M66,2.7h-5.4l-0.2,0.2c0.8,0.7,1.7,1.3,2.6,1.8C64.2,4.1,65.1,3.4,66,2.7z"/>
			<path class="st3" d="M73.2,5.9c-0.5,1.7-1.1,3-1.9,3.9l-0.7-0.7c0.8-0.9,1.3-2.1,1.7-3.5L73.2,5.9z M76.2,0.6v2.5
				c0,0.1,0,0.1,0,0.2h4.5c0,0.9,0,1.8-0.1,2.6l0.9-0.4c0.7,1.3,1.3,2.7,1.9,4.2l-0.9,0.4c-0.6-1.6-1.2-3-1.9-4.2
				c-0.1,1.3-0.1,2.4-0.2,3.3c-0.1,1.5-0.4,2.5-0.7,3.1c-0.3,0.6-0.8,0.9-1.5,0.9h-1.6l-0.3-1c0.5,0,0.9,0,1.4,0
				c0.7,0,1.2-0.5,1.5-1.5c0.2-1,0.4-3.2,0.5-6.6h-3.5c-0.1,2.2-0.5,4-1.1,5.5c-0.7,1.5-1.9,2.7-3.6,3.6L71,12.3
				c1.6-0.9,2.7-2,3.4-3.5c0.5-1.3,0.8-2.8,0.9-4.7h-3.5v-1h3.5V0.6H76.2z"/>
			<path class="st3" d="M86.4,5.8V2.4h-1.7v-1h4.5v1h-1.7v3.3H89v1h-1.5v3.2c0.5-0.2,1-0.4,1.5-0.6v1c-1.3,0.5-2.7,1-4.2,1.3l-0.3-1
				c0.6-0.1,1.2-0.3,1.8-0.4V6.7h-1.5v-1h1.6V5.8z M96.7,1.1v6.5h-2.9v1.7H97v1h-3.2V12h3.7v1H89v-1h3.8v-1.8h-3.2v-1h3.2V7.6h-2.9
				V1.1H96.7z M92.8,3.9V2h-2v1.9H92.8z M92.8,4.8h-2v1.9h2V4.8z M93.8,3.9h1.9V2h-1.9V3.9z M95.7,4.8h-1.9v1.9h1.9V4.8z"/>
		</g>
	</g>
</g>
<g id="RectEndPoint23" transform="translate(17,114)">
	<rect x="2" y="-7" class="st7" width="138" height="50"/>
	<rect y="-9" class="st8" width="138" height="50"/>
	<g transform="translate(27.4140625,9)">
		<g class="st2">
			<path class="st3" d="M5.3,2l3.9,10H8L6.9,9.2H2.3L1.2,12H0L3.9,2H5.3z M6.5,8.2l-1.9-5l0,0l-1.9,5H6.5z"/>
			<path class="st3" d="M14.3,2c2.3,0,3.4,1,3.4,2.9c0,2-1.2,3-3.5,3h-2.9V12h-1.1V2H14.3z M11.4,6.9h2.9c0.8,0,1.4-0.2,1.8-0.5
				c0.4-0.3,0.6-0.8,0.6-1.5s-0.2-1.2-0.6-1.5C15.6,3.1,15,3,14.2,3h-2.9v3.9H11.4z"/>
			<path class="st3" d="M23.3,2c2.3,0,3.4,1,3.4,2.9c0,2-1.2,3-3.5,3h-2.9V12h-1.1V2H23.3z M20.3,6.9h2.9c0.8,0,1.4-0.2,1.8-0.5
				s0.6-0.8,0.6-1.5S25.4,3.7,25,3.4C24.6,3.1,24,3,23.2,3h-2.9C20.3,3,20.3,6.9,20.3,6.9z"/>
			<path class="st3" d="M30.6,6.1l-0.7,0.7c-0.5-0.7-1.2-1.4-2.1-2.1L28.5,4C29.3,4.8,30,5.5,30.6,6.1z M31,8.4
				c-0.6,1.8-1.3,3.4-2.1,5L28,13c0.8-1.6,1.5-3.3,2.1-4.9L31,8.4z M30.9,2.9l-0.7,0.7c-0.5-0.7-1.2-1.4-2.1-2.1l0.7-0.7
				C29.6,1.5,30.3,2.2,30.9,2.9z M33.3,2.9c-0.2-0.8-0.5-1.5-0.7-2.1l1-0.2C33.8,1.3,34,2,34.2,2.9H36v1h-0.6
				c-0.2,1.8-0.6,3.4-1,4.6c0.7,1.2,1.2,2.2,1.7,3.2l-0.8,0.6c-0.4-0.8-0.8-1.7-1.3-2.6c-0.7,1.4-1.6,2.7-2.9,3.8l-0.6-0.8
				c1.2-1.1,2.1-2.3,2.7-3.6c0.1-0.2,0.1-0.3,0.2-0.5c-0.6-1-1.2-2-1.9-3l0.8-0.5c0.5,0.8,1,1.6,1.5,2.3c0.3-1,0.5-2.2,0.7-3.5h-3.1
				v-1C31.4,2.9,33.3,2.9,33.3,2.9z M36.9,13.3l-0.2-1c0.6,0,1.2,0.1,1.7,0.1c0.4,0,0.6-0.2,0.6-0.7V0.6h1V12c0,0.9-0.4,1.3-1.2,1.3
				H36.9z M37.7,1.8v8.8h-0.9V1.8H37.7z"/>
			<path class="st3" d="M48.5,7.5v1c-0.1,1.4-0.5,2.5-1.4,3.3c-0.9,0.7-2.3,1.3-4.3,1.8l-0.6-0.9c2-0.4,3.4-0.9,4.2-1.5
				c0.7-0.7,1.1-1.5,1.2-2.6v-1h0.9V7.5z M43.8,1.1v3.6h-1V1.1H43.8z M51.8,10.7h-1V6.6h-5.5v4.1h-1v-5h7.5V10.7z M46.6,0.6v4.6h-1
				V0.6H46.6z M48.1,4.7L47.3,4c1-0.9,1.7-2.1,2.1-3.5l1,0.3c-0.1,0.3-0.2,0.6-0.3,0.9h4.1v0.9h-4.6C49.2,3.4,48.7,4.1,48.1,4.7z
				 M49.9,13.2c-0.9,0-1.3-0.4-1.3-1.3V9.2h1v2.5c0,0.4,0.2,0.6,0.6,0.6h2.2c0.3,0,0.5-0.1,0.6-0.2c0.2-0.2,0.3-0.7,0.3-1.7l0.9,0.3
				c-0.1,1.2-0.3,1.9-0.6,2.2c-0.3,0.2-0.6,0.3-1.2,0.3C52.4,13.2,49.9,13.2,49.9,13.2z M53.2,4.7l-0.6,0.7
				c-0.7-0.7-1.5-1.3-2.3-1.8L50.9,3C51.7,3.4,52.5,4,53.2,4.7z"/>
			<path class="st3" d="M59.8,1.1C59,2.7,57.8,4,56,5.2l-0.3-1c1.5-1,2.5-2.2,3.2-3.5L59.8,1.1z M60.5,4.3c-0.4,0.8-0.9,1.5-1.5,2.2
				v6.9h-1V7.6c-0.6,0.5-1.2,1-1.8,1.5l-0.3-1c1.7-1.2,3-2.6,3.7-4.1L60.5,4.3z M68.5,5v1h-2.3v6.1c0,0.8-0.5,1.2-1.4,1.2h-2.1
				l-0.2-1c0.7,0,1.3,0.1,1.9,0.1c0.4,0,0.7-0.2,0.7-0.5V6h-4.4V5H68.5z M67.8,1.5v1h-6.7v-1H67.8z"/>
			<path class="st3" d="M75.9,0.6v1.7c0,0.6,0,1.2-0.1,1.8h5.8c0,4-0.2,6.6-0.5,7.6c-0.4,1.1-1,1.6-2,1.6c-0.7,0-1.3,0-1.7-0.1
				l-0.3-1c0.7,0.1,1.4,0.1,1.9,0.1c0.8-0.1,1.2-0.9,1.4-2.4c0.1-1.5,0.2-3.2,0.2-5h-4.8c-0.2,1.8-0.6,3.2-1.2,4.4
				c-0.8,1.7-2.2,3-4.1,3.9l-0.6-0.9c1.9-1,3.2-2.2,3.9-3.8c0.4-1,0.7-2.3,0.9-3.7h-4.4V4h4.5c0-0.6,0.1-1.2,0.1-1.8V0.6H75.9z
				 M73.6,3.1l-0.8,0.5C72.4,3,71.7,2.2,71,1.5L71.8,1C72.6,1.7,73.2,2.5,73.6,3.1z M79,9.7l-0.9,0.6c-0.6-0.9-1.3-1.9-2.3-3
				l0.8-0.5C77.7,7.9,78.5,8.9,79,9.7z"/>
		</g>
	</g>
</g>
<g id="RectEndPoint24" transform="translate(171,56)">
	<rect x="2" y="-7" class="st7" width="138" height="50"/>
	<rect y="-9" class="st8" width="138" height="50"/>
	<g transform="translate(27,9)">
		<g class="st2">
			<path class="st3" d="M3.7,1C3.1,2.5,2.1,3.8,0.8,5L0.5,4c1.1-1,1.8-2.1,2.3-3.4L3.7,1z M3.7,4.8C3.5,5.3,3.3,5.8,3,6.3v7.1H2.1
				V7.6C1.7,8.1,1.3,8.5,0.8,9L0.5,8c1.1-1.1,1.9-2.3,2.4-3.6L3.7,4.8z M6.8,11.7c0.1-0.1,0.2-0.2,0.3-0.4V8.8H5.6v0.6
				c0,1.8-0.5,3.1-1.3,3.9l-0.7-0.6c0.7-0.8,1.1-1.8,1.1-3.3V7.9H8V11c0.4-0.3,0.8-0.7,1.2-1.1l0.2,0.9c-0.7,0.8-1.4,1.4-2.2,1.8
				L6.8,11.7z M8.5,5.9v0.9H4.2V5.9H8.5z M6.9,0.6v3.2h1V1.3h0.8v3.3H4.2V1.3H5v2.4h1V0.6H6.9z M9.8,6.1C9.6,6.8,9.3,7.4,9,7.9
				L8.5,7.2c0.8-1.7,1.4-3.9,1.7-6.7L11,0.7c-0.1,0.8-0.2,1.5-0.3,2.1h2.6v0.9h-0.6c-0.1,2.4-0.4,4.4-1.1,6.1c0.5,1.1,1.1,2,1.8,2.7
				L13,13.3c-0.7-0.6-1.2-1.5-1.7-2.6c-0.5,1-1.2,1.9-2,2.6l-0.5-0.8c0.9-0.7,1.6-1.7,2.1-2.9C10.4,8.6,10.1,7.4,9.8,6.1z M10.3,4.7
				c0.2,1.5,0.5,2.7,0.9,3.8c0.4-1.4,0.6-3,0.7-4.8h-1.4C10.4,4.1,10.4,4.4,10.3,4.7z"/>
			<path class="st3" d="M14.8,7.3l-0.3-1.1c1.4-1.7,2.4-3.6,3-5.8l0.9,0.4c-0.3,1.1-0.7,2.1-1.2,3v9.5h-1V5.6
				C15.7,6.2,15.3,6.8,14.8,7.3z M22.6,2.4c-0.2-0.6-0.4-1.1-0.7-1.6l1-0.3c0.3,0.6,0.5,1.2,0.7,1.7L23,2.4h4.4v1h-9.1v-1H22.6z
				 M26.5,13.4h-1v-0.8h-5.2v0.8h-1V8.5h7.1v4.9H26.5z M26.2,4.5v0.9h-6.6V4.5H26.2z M26.2,6.5v0.9h-6.6V6.5H26.2z M25.5,11.7V9.5
				h-5.2v2.2H25.5z"/>
			<path class="st3" d="M31.4,6.1l-0.7,0.7c-0.5-0.7-1.2-1.4-2.1-2.1L29.3,4C30.2,4.8,30.9,5.5,31.4,6.1z M31.8,8.4
				c-0.6,1.8-1.3,3.4-2.1,5L28.8,13c0.8-1.6,1.5-3.3,2.1-4.9L31.8,8.4z M31.7,2.9L31,3.6c-0.5-0.7-1.2-1.4-2.1-2.1l0.7-0.7
				C30.4,1.5,31.1,2.2,31.7,2.9z M34.1,2.9c-0.2-0.8-0.5-1.5-0.7-2.1l1-0.2C34.6,1.3,34.8,2,35,2.9h1.8v1h-0.6
				c-0.2,1.8-0.6,3.4-1,4.6c0.7,1.2,1.2,2.2,1.7,3.2l-0.8,0.6c-0.4-0.8-0.8-1.7-1.3-2.6c-0.7,1.4-1.6,2.7-2.9,3.8l-0.6-0.8
				c1.2-1.1,2.1-2.3,2.7-3.6c0.1-0.2,0.1-0.3,0.2-0.5c-0.6-1-1.2-2-1.9-3l0.8-0.5c0.5,0.8,1,1.6,1.5,2.3c0.3-1,0.5-2.2,0.7-3.5h-3.1
				v-1C32.2,2.9,34.1,2.9,34.1,2.9z M37.7,13.3l-0.2-1c0.6,0,1.2,0.1,1.7,0.1c0.4,0,0.6-0.2,0.6-0.7V0.6h1V12c0,0.9-0.4,1.3-1.2,1.3
				H37.7z M38.6,1.8v8.8h-0.9V1.8H38.6z"/>
			<path class="st3" d="M49.3,7.5v1c-0.1,1.4-0.5,2.5-1.4,3.3c-0.9,0.7-2.3,1.3-4.3,1.8l-0.6-1c2-0.4,3.4-0.9,4.2-1.5
				c0.7-0.7,1.1-1.5,1.2-2.6v-1H49.3z M44.6,1.1v3.6h-1V1.1H44.6z M52.7,10.7h-1V6.6h-5.5v4.1h-1v-5h7.5V10.7z M47.4,0.6v4.6h-1V0.6
				H47.4z M48.9,4.7L48.2,4c1-0.9,1.7-2.1,2.1-3.5l1,0.3C51.1,1,51,1.3,50.9,1.6H55v0.9h-4.6C50.1,3.4,49.5,4.1,48.9,4.7z
				 M50.7,13.2c-0.9,0-1.3-0.4-1.3-1.3V9.2h1v2.5c0,0.4,0.2,0.6,0.6,0.6h2.2c0.3,0,0.5-0.1,0.6-0.2c0.2-0.2,0.3-0.7,0.3-1.7l0.9,0.3
				c-0.1,1.2-0.3,1.9-0.6,2.2c-0.3,0.2-0.6,0.3-1.2,0.3C53.2,13.2,50.7,13.2,50.7,13.2z M54,4.7l-0.6,0.7c-0.7-0.7-1.5-1.3-2.3-1.8
				L51.7,3C52.6,3.4,53.3,4,54,4.7z"/>
			<path class="st3" d="M60.7,1.1c-0.8,1.6-2,2.9-3.8,4.1l-0.3-1c1.5-1,2.5-2.2,3.2-3.5L60.7,1.1z M61.3,4.3
				c-0.4,0.8-0.9,1.5-1.5,2.2v6.9h-1V7.6c-0.6,0.5-1.2,1-1.8,1.5l-0.3-1c1.7-1.2,3-2.6,3.7-4.1L61.3,4.3z M69.3,5v1H67v6.1
				c0,0.8-0.5,1.2-1.4,1.2h-2.1l-0.2-1c0.7,0,1.3,0.1,1.9,0.1c0.4,0,0.7-0.2,0.7-0.5V6h-4.4V5H69.3z M68.7,1.5v1H62v-1H68.7z"/>
			<path class="st3" d="M76.8,0.6v1.7c0,0.6,0,1.2-0.1,1.8h5.8c0,4-0.2,6.6-0.5,7.6c-0.4,1.1-1,1.6-2,1.6c-0.7,0-1.3,0-1.7-0.1
				l-0.3-1c0.7,0.1,1.4,0.1,1.9,0.1c0.8-0.1,1.2-0.9,1.4-2.4c0.1-1.5,0.2-3.2,0.2-5h-4.8c-0.2,1.8-0.6,3.2-1.2,4.4
				c-0.8,1.7-2.2,3-4.1,3.9l-0.6-0.9c1.9-1,3.2-2.2,3.9-3.8c0.4-1,0.7-2.3,0.9-3.7h-4.4V4h4.5c0-0.6,0.1-1.2,0.1-1.8V0.6H76.8z
				 M74.5,3.1l-0.8,0.5c-0.5-0.7-1.1-1.4-1.9-2.2l0.8-0.5C73.4,1.7,74,2.5,74.5,3.1z M79.8,9.7L79,10.3c-0.6-0.9-1.3-1.9-2.3-3
				l0.8-0.5C78.5,7.9,79.3,8.9,79.8,9.7z"/>
		</g>
	</g>
</g>
<g id="RectEndPoint25" transform="translate(171,114)">
	<rect x="2" y="-7" class="st7" width="138" height="50"/>
	<rect y="-9" class="st8" width="138" height="50"/>
	<g transform="translate(27,9)">
		<g class="st2">
			<path class="st3" d="M7.7,2h4.9v1h-2.4C10,3.7,9.8,4.4,9.5,5.1h3.4v1H2.8v2.1c-0.1,2.2-0.6,3.9-1.5,5.3l-0.8-0.7
				c0.8-1.1,1.2-2.6,1.3-4.6v-3h2.9L4.1,3H1.5V2h5.1C6.5,1.5,6.2,1,6,0.6l1-0.2C7.3,0.8,7.5,1.4,7.7,2z M8.5,5.1
				C8.8,4.4,9.1,3.7,9.2,3H5.1l0.6,2.1H8.5z"/>
			<path class="st3" d="M20.2,13.2h-1v-0.7h-3v0.7h-1V7.1h4.9v6.1H20.2z M19.2,11.5V8.1h-3v3.4H19.2z M24.9,1.1v4.6h-7.7V1.1H24.9z
				 M23.8,2.1h-5.7v2.7h5.7V2.1z M26.7,13.2h-1v-0.7h-3.1v0.7h-1V7.1h5.1V13.2z M25.7,11.5V8.1h-3.1v3.4H25.7z"/>
			<path class="st3" d="M31.9,3.1v4.6c0,1.6-0.3,2.8-0.7,3.7c-0.4,0.9-1.1,1.5-2.1,2l-0.5-0.8c0.9-0.5,1.5-1.1,1.9-1.8
				C30.8,10,31,9,31,7.7V3.1H31.9z M33.8,9.9h-0.9V2.1H30V10h-0.9V1.1h4.7V9.9z M34.5,12.6l-0.7,0.7c-0.4-0.7-1.1-1.5-1.9-2.4
				l0.6-0.6C33.3,11.1,33.9,11.8,34.5,12.6z M36.8,0.6c-0.1,0.7-0.3,1.3-0.5,1.9h4.6c0,4.9-0.1,7.9-0.2,9c-0.1,1.1-0.8,1.7-1.9,1.7
				c-0.4,0-1,0-2,0l-0.2-0.9c0.8,0,1.5,0.1,2,0.1c0.6,0,1-0.4,1.1-1.1c0.1-0.8,0.2-3.4,0.2-7.7h-4c-0.4,0.8-0.8,1.6-1.4,2.3L33.9,5
				c1-1.2,1.6-2.7,1.9-4.5L36.8,0.6z M39.3,10.4l-0.8,0.4c-0.1-0.4-0.2-0.7-0.3-1c-1.1,0.3-2.3,0.4-3.6,0.6l-0.2-0.9
				c0.5-0.4,1.2-2,2-4.7l0.9,0.3c-0.6,1.8-1.2,3.3-1.8,4.3c0.8-0.1,1.6-0.3,2.3-0.4c-0.2-0.7-0.5-1.3-0.7-1.9L38,6.7
				C38.5,7.8,38.9,9.1,39.3,10.4z"/>
			<path class="st3" d="M50.3,3v3c0,0.8-0.1,1.5-0.3,2.1h5.2v1h-5.5c-0.1,0.2-0.2,0.4-0.3,0.6c2,0.9,3.9,1.9,5.5,2.9l-0.7,0.8
				c-1.7-1.1-3.5-2.1-5.4-2.9c-0.1,0.1-0.2,0.2-0.2,0.3c-1,1.1-2.7,2-5,2.6L43,12.5c2.3-0.6,3.9-1.4,4.9-2.4c0.3-0.3,0.5-0.6,0.6-1
				H43v-1h6c0.2-0.6,0.3-1.4,0.3-2.1V3H50.3z M54.2,1.4V2c-0.2,0.8-0.5,1.7-0.8,2.5l-1-0.3C52.7,3.7,53,3,53.2,2.3h-9.6V1.4H54.2z
				 M47.1,6.6l-0.5,0.8c-0.9-0.7-1.9-1.3-2.9-1.7L44.2,5C45.2,5.4,46.2,6,47.1,6.6z M48.3,4.6l-0.5,0.8C46.9,4.7,46,4.2,45,3.8
				L45.4,3C46.5,3.5,47.5,4,48.3,4.6z"/>
			<path class="st3" d="M60.7,1.1c-0.8,1.6-2,2.9-3.8,4.1l-0.3-1c1.5-1,2.5-2.2,3.2-3.5L60.7,1.1z M61.3,4.3
				c-0.4,0.8-0.9,1.5-1.5,2.2v6.9h-1V7.6c-0.6,0.5-1.2,1-1.8,1.5l-0.3-1c1.7-1.2,3-2.6,3.7-4.1L61.3,4.3z M69.3,5v1H67v6.1
				c0,0.8-0.5,1.2-1.4,1.2h-2.1l-0.2-1c0.7,0,1.3,0.1,1.9,0.1c0.4,0,0.7-0.2,0.7-0.5V6h-4.4V5H69.3z M68.7,1.5v1H62v-1H68.7z"/>
			<path class="st3" d="M76.8,0.6v1.7c0,0.6,0,1.2-0.1,1.8h5.8c0,4-0.2,6.6-0.5,7.6c-0.4,1.1-1,1.6-2,1.6c-0.7,0-1.3,0-1.7-0.1
				l-0.3-1c0.7,0.1,1.4,0.1,1.9,0.1c0.8-0.1,1.2-0.9,1.4-2.4c0.1-1.5,0.2-3.2,0.2-5h-4.8c-0.2,1.8-0.6,3.2-1.2,4.4
				c-0.8,1.7-2.2,3-4.1,3.9l-0.6-0.9c1.9-1,3.2-2.2,3.9-3.8c0.4-1,0.7-2.3,0.9-3.7h-4.4V4h4.5c0-0.6,0.1-1.2,0.1-1.8V0.6H76.8z
				 M74.5,3.1l-0.8,0.5c-0.5-0.7-1.1-1.4-1.9-2.2l0.8-0.5C73.4,1.7,74,2.5,74.5,3.1z M79.8,9.7L79,10.3c-0.6-0.9-1.3-1.9-2.3-3
				l0.8-0.5C78.5,7.9,79.3,8.9,79.8,9.7z"/>
		</g>
	</g>
</g>
<rect x="19" y="228" class="st7" width="138" height="50"/>
<rect x="17" y="226" class="st8" width="138" height="50"/>
<g id="RectEndPoint28" transform="translate(17,293)">
	<rect x="2" y="-7" class="st7" width="138" height="50"/>
	<rect y="-9" class="st8" width="138" height="50"/>
	<g transform="translate(63.4609375,9)">
		<g class="st2">
			<path class="st3" d="M2.5,10.6c0.2,0.2,0.3,0.4,0.3,0.6c0,0.2-0.1,0.4-0.3,0.6c-0.2,0.2-0.4,0.3-0.6,0.3c-0.3,0-0.4-0.1-0.6-0.3
				C1.1,11.6,1,11.4,1,11.2c0-0.3,0.1-0.4,0.3-0.6c0.2-0.2,0.4-0.3,0.6-0.3C2.1,10.3,2.3,10.4,2.5,10.6z"/>
			<path class="st3" d="M6.1,10.6c0.2,0.2,0.3,0.4,0.3,0.6c0,0.2-0.1,0.4-0.3,0.6C6,12,5.8,12.1,5.5,12.1S5.1,12,4.9,11.8
				s-0.3-0.4-0.3-0.6c0-0.3,0.1-0.4,0.3-0.6c0.2-0.2,0.4-0.3,0.6-0.3C5.8,10.3,6,10.4,6.1,10.6z"/>
			<path class="st3" d="M9.8,10.6c0.2,0.2,0.3,0.4,0.3,0.6c0,0.2-0.1,0.4-0.3,0.6c-0.2,0.2-0.4,0.3-0.6,0.3c-0.3,0-0.4-0.1-0.6-0.3
				c-0.2-0.2-0.3-0.4-0.3-0.6c0-0.3,0.1-0.4,0.3-0.6c0.2-0.2,0.4-0.3,0.6-0.3C9.5,10.3,9.7,10.4,9.8,10.6z"/>
		</g>
	</g>
</g>
<g id="RectEndPoint29" transform="translate(171,235)">
	<rect x="2" y="-7" class="st7" width="138" height="50"/>
	<rect y="-9" class="st8" width="138" height="50"/>
	<g transform="translate(41,9)">
		<g class="st2">
			<path class="st3" d="M10.3,6.6C9.6,7.9,8.8,9,7.8,10c1.5,1.1,3.3,1.9,5.5,2.5l-0.6,0.9c-2.3-0.6-4.2-1.5-5.7-2.7
				c-1.6,1.3-3.5,2.2-5.7,2.8l-0.6-0.9c2.2-0.6,4-1.4,5.5-2.5c-1-0.9-1.9-2-2.5-3.2l0.9-0.5C5.2,7.5,6,8.5,7,9.3
				c1-0.9,1.7-1.9,2.3-3.1L10.3,6.6z M6.6,2.2C6.3,1.6,6.1,1.1,5.8,0.7l1.1-0.2C7.2,1,7.4,1.6,7.7,2.2h5.5v1H0.8v-1H6.6z M5.4,4.3
				C4.3,5.7,3,6.9,1.4,7.9L0.8,7.1c1.5-1,2.8-2.1,3.9-3.4L5.4,4.3z M13.1,7.3L12.4,8c-0.9-1.2-2.2-2.4-3.9-3.8l0.7-0.7
				C10.8,4.8,12.1,6.1,13.1,7.3z"/>
			<path class="st3" d="M16.7,6V1.1h8.6V6h-5.5c-0.3,0.4-0.6,0.8-0.9,1.1h7.4c0,1.5-0.1,2.7-0.3,3.6c-0.1,0.9-0.4,1.6-0.6,1.9
				c-0.3,0.3-0.8,0.5-1.4,0.6h-1.8l-0.3-0.9c0.6,0,1.1,0,1.6,0c0.7,0,1.1-0.3,1.4-0.8c0.2-0.6,0.4-1.7,0.4-3.5H24
				c-1.2,2.7-3.1,4.5-5.8,5.3l-0.6-0.8c2.5-0.8,4.2-2.3,5.3-4.5h-1.8c-1,1.6-2.6,2.8-4.8,3.7l-0.6-0.8c2-0.7,3.5-1.7,4.3-2.9h-2.1
				c-0.7,0.5-1.5,1-2.4,1.4L15,8.6C16.7,7.9,17.9,7,18.7,6H16.7z M24.3,3.1V1.9h-6.6v1.2H24.3z M24.3,3.9h-6.6v1.2h6.6V3.9z"/>
			<path class="st3" d="M32.2,7.2C32.1,7.4,32,7.7,32,8h2.9v0.8c-0.3,0.9-0.8,1.7-1.6,2.4c0.7,0.3,1.3,0.6,1.9,1L34.7,13
				c-0.6-0.4-1.3-0.7-2.2-1.1c-0.9,0.6-2.1,1.2-3.5,1.6l-0.5-0.8c1.1-0.3,2.1-0.7,3-1.1c-0.6-0.3-1.3-0.5-1.9-0.8
				c0.4-0.6,0.7-1.2,1-1.8h-1.7V8h2c0.1-0.3,0.2-0.6,0.3-0.9L32.2,7.2z M31.7,3.2V0.6h0.9v2.7h2.5v0.9h-2.5v0.2
				c0.8,0.4,1.5,0.8,2.3,1.3l-0.5,0.8c-0.7-0.6-1.3-1-1.8-1.3V7h-0.9V4.2c-0.5,1.1-1.3,2.1-2.5,2.9l-0.5-0.8C29.8,5.7,30.5,5,31,4.2
				h-2v-1H31.7z M30.9,2.6l-0.7,0.3c-0.3-0.7-0.6-1.3-0.9-1.8L30,0.8C30.4,1.4,30.6,2,30.9,2.6z M34,8.8h-2.4
				c-0.2,0.5-0.5,0.9-0.8,1.3c0.6,0.2,1.1,0.4,1.6,0.6C33.1,10.2,33.6,9.6,34,8.8z M35,1.1c-0.3,0.6-0.6,1.2-1.1,1.8l-0.7-0.4
				C33.7,2,34,1.4,34.3,0.8L35,1.1z M36.5,5.9c-0.3,0.6-0.5,1.2-0.8,1.7l-0.6-0.8c0.8-1.6,1.4-3.7,1.7-6.3l1,0.2
				c-0.1,0.7-0.2,1.4-0.3,2h3.7v1h-0.9C40.2,6,39.8,8,39,9.7c0.7,1.3,1.6,2.2,2.6,2.9L41,13.4c-1-0.7-1.8-1.7-2.5-2.8
				c-0.7,1.1-1.5,2.1-2.6,2.8l-0.5-0.8c1.1-0.8,1.9-1.7,2.6-2.9C37.4,8.6,36.9,7.3,36.5,5.9z M37,4.4c0.3,1.6,0.8,3.1,1.4,4.2
				c0.5-1.4,0.8-3.1,0.9-5h-2.1L37,4.4z"/>
			<path class="st3" d="M43.1,13.3l-0.2-1c0.4,0,0.7,0.1,1.1,0.1c0.4,0,0.5-0.2,0.5-0.6V8.4c-0.6,0.2-1.1,0.4-1.7,0.6l-0.3-1
				c0.6-0.2,1.3-0.4,1.9-0.6V4.2h-1.7v-1h1.7V0.6h1v2.6h1.3v1h-1.3V7c0.4-0.2,0.9-0.4,1.3-0.6v1c-0.4,0.2-0.9,0.4-1.3,0.6v4
				c0,0.8-0.4,1.2-1.2,1.2h-1.1V13.3z M46.8,13.4L46,12.7c1-1.8,1.5-4.3,1.5-7.2V1.1H55v3.4h-2.6v1.7h3v0.9h-3v1.7h2.4v4.6h-0.9
				v-0.7h-3.8v0.7H49V8.8h2.3V7.1h-2.9C48.3,9.5,47.8,11.6,46.8,13.4z M48.6,4.5v1c0,0.2,0,0.4,0,0.7h2.8V4.5H48.6z M48.6,2.1v1.6
				H54V2.1H48.6z M53.7,11.8V9.7h-3.8v2.1C49.9,11.8,53.7,11.8,53.7,11.8z"/>
		</g>
	</g>
</g>
<g id="RectEndPoint32" transform="translate(18,416)">
	<rect x="2" y="-7" class="st7" width="138" height="50"/>
	<rect y="-9" class="st8" width="138" height="50"/>
	<g transform="translate(41,9)">
		<g class="st2">
			<path class="st3" d="M4.3,0.9C3.6,2.5,2.5,3.8,0.9,5L0.6,4c1.3-1,2.3-2.2,2.9-3.5L4.3,0.9z M4.8,4.5C4.5,5.2,4,5.9,3.5,6.6v6.8
				h-1V7.6C2,8.1,1.5,8.5,0.9,8.9L0.6,8c1.5-1.1,2.6-2.4,3.3-3.8L4.8,4.5z M5.1,2.3v-1h8.1v1h-3.1v3.8h2.7V7h-2.7v4.8h3.4v1H4.7v-1
				H6V4.5h1v7.3h2.1V2.3H5.1z"/>
			<path class="st3" d="M14.8,7.3l-0.3-1.1c1.4-1.7,2.4-3.6,3-5.8l0.9,0.4c-0.3,1.1-0.7,2.1-1.2,3v9.5h-1V5.6
				C15.7,6.2,15.3,6.8,14.8,7.3z M22.6,2.4c-0.2-0.6-0.4-1.1-0.7-1.6l1-0.3c0.3,0.6,0.5,1.2,0.7,1.7L23,2.4h4.4v1h-9.1v-1H22.6z
				 M26.5,13.4h-1v-0.8h-5.2v0.8h-1V8.5h7.1v4.9H26.5z M26.2,4.5v0.9h-6.6V4.5H26.2z M26.2,6.5v0.9h-6.6V6.5H26.2z M25.5,11.7V9.5
				h-5.2v2.2H25.5z"/>
			<path class="st3" d="M32.2,7.2C32.1,7.4,32,7.7,32,8h2.9v0.8c-0.3,0.9-0.8,1.7-1.6,2.4c0.7,0.3,1.3,0.6,1.9,1L34.7,13
				c-0.6-0.4-1.3-0.7-2.2-1.1c-0.9,0.6-2.1,1.2-3.5,1.6l-0.5-0.8c1.1-0.3,2.1-0.7,3-1.1c-0.6-0.3-1.3-0.5-1.9-0.8
				c0.4-0.6,0.7-1.2,1-1.8h-1.7V8h2c0.1-0.3,0.2-0.6,0.3-0.9L32.2,7.2z M31.7,3.2V0.6h0.9v2.7h2.5v0.9h-2.5v0.2
				c0.8,0.4,1.5,0.8,2.3,1.3l-0.5,0.8c-0.7-0.6-1.3-1-1.8-1.3V7h-0.9V4.2c-0.5,1.1-1.3,2.1-2.5,2.9l-0.5-0.8C29.8,5.7,30.5,5,31,4.2
				h-2v-1H31.7z M30.9,2.6l-0.7,0.3c-0.3-0.7-0.6-1.3-0.9-1.8L30,0.8C30.4,1.4,30.6,2,30.9,2.6z M34,8.8h-2.4
				c-0.2,0.5-0.5,0.9-0.8,1.3c0.6,0.2,1.1,0.4,1.6,0.6C33.1,10.2,33.6,9.6,34,8.8z M35,1.1c-0.3,0.6-0.6,1.2-1.1,1.8l-0.7-0.4
				C33.7,2,34,1.4,34.3,0.8L35,1.1z M36.5,5.9c-0.3,0.6-0.5,1.2-0.8,1.7l-0.6-0.8c0.8-1.6,1.4-3.7,1.7-6.3l1,0.2
				c-0.1,0.7-0.2,1.4-0.3,2h3.7v1h-0.9C40.2,6,39.8,8,39,9.7c0.7,1.3,1.6,2.2,2.6,2.9L41,13.4c-1-0.7-1.8-1.7-2.5-2.8
				c-0.7,1.1-1.5,2.1-2.6,2.8l-0.5-0.8c1.1-0.8,1.9-1.7,2.6-2.9C37.4,8.6,36.9,7.3,36.5,5.9z M37,4.4c0.3,1.6,0.8,3.1,1.4,4.2
				c0.5-1.4,0.8-3.1,0.9-5h-2.1L37,4.4z"/>
			<path class="st3" d="M43.1,13.3l-0.2-1c0.4,0,0.7,0.1,1.1,0.1c0.4,0,0.5-0.2,0.5-0.6V8.4c-0.6,0.2-1.1,0.4-1.7,0.6l-0.3-1
				c0.6-0.2,1.3-0.4,1.9-0.6V4.2h-1.7v-1h1.7V0.6h1v2.6h1.3v1h-1.3V7c0.4-0.2,0.9-0.4,1.3-0.6v1c-0.4,0.2-0.9,0.4-1.3,0.6v4
				c0,0.8-0.4,1.2-1.2,1.2h-1.1V13.3z M46.8,13.4L46,12.7c1-1.8,1.5-4.3,1.5-7.2V1.1H55v3.4h-2.6v1.7h3v0.9h-3v1.7h2.4v4.6h-0.9
				v-0.7h-3.8v0.7H49V8.8h2.3V7.1h-2.9C48.3,9.5,47.8,11.6,46.8,13.4z M48.6,4.5v1c0,0.2,0,0.4,0,0.7h2.8V4.5H48.6z M48.6,2.1v1.6
				H54V2.1H48.6z M53.7,11.8V9.7h-3.8v2.1C49.9,11.8,53.7,11.8,53.7,11.8z"/>
		</g>
	</g>
</g>
<g id="RectEndPoint33" transform="translate(18,474)">
	<rect x="2" y="-7" class="st7" width="138" height="50"/>
	<rect y="-9" class="st8" width="138" height="50"/>
	<g transform="translate(63.4609375,9)">
		<g class="st2">
			<path class="st3" d="M2.5,10.6c0.2,0.2,0.3,0.4,0.3,0.6c0,0.2-0.1,0.4-0.3,0.6c-0.2,0.2-0.4,0.3-0.6,0.3c-0.3,0-0.4-0.1-0.6-0.3
				C1.1,11.6,1,11.4,1,11.2c0-0.3,0.1-0.4,0.3-0.6c0.2-0.2,0.4-0.3,0.6-0.3C2.1,10.3,2.3,10.4,2.5,10.6z"/>
			<path class="st3" d="M6.1,10.6c0.2,0.2,0.3,0.4,0.3,0.6c0,0.2-0.1,0.4-0.3,0.6C6,12,5.8,12.1,5.5,12.1S5.1,12,4.9,11.8
				s-0.3-0.4-0.3-0.6c0-0.3,0.1-0.4,0.3-0.6c0.2-0.2,0.4-0.3,0.6-0.3C5.8,10.3,6,10.4,6.1,10.6z"/>
			<path class="st3" d="M9.8,10.6c0.2,0.2,0.3,0.4,0.3,0.6c0,0.2-0.1,0.4-0.3,0.6c-0.2,0.2-0.4,0.3-0.6,0.3c-0.3,0-0.4-0.1-0.6-0.3
				c-0.2-0.2-0.3-0.4-0.3-0.6c0-0.3,0.1-0.4,0.3-0.6c0.2-0.2,0.4-0.3,0.6-0.3C9.5,10.3,9.7,10.4,9.8,10.6z"/>
		</g>
	</g>
</g>
<g id="RectEndPoint34" transform="translate(171,416)">
	<rect x="2" y="-7" class="st7" width="138" height="50"/>
	<rect y="-9" class="st8" width="138" height="50"/>
	<g transform="translate(41,9)">
		<g class="st2">
			<path class="st3" d="M0.9,9.3L0.6,8.2C2.5,6.6,3.8,5,4.5,3.5H0.9v-1h2.2C2.9,1.9,2.6,1.3,2.3,0.8l1-0.3C3.6,1.2,3.8,1.8,4,2.4
				L3.7,2.5h1.8v0.9c-0.4,1-1,2-1.7,3C4.6,6.9,5.3,7.4,6,8L5.4,8.9C4.9,8.3,4.3,7.8,3.8,7.4v5.9h-1V7.5C2.2,8.1,1.6,8.7,0.9,9.3z
				 M9.8,0.6v4.2H13v1H9.8v6.1h3.5v1H5.2v-1h3.6V5.8H5.7v-1h3.1V0.6H9.8z"/>
			<path class="st3" d="M24.3,6.6C23.6,7.9,22.8,9,21.8,10c1.5,1.1,3.3,1.9,5.5,2.5l-0.6,0.9c-2.3-0.6-4.2-1.5-5.7-2.7
				c-1.6,1.3-3.5,2.2-5.7,2.8l-0.6-0.9c2.2-0.6,4-1.4,5.5-2.5c-1-0.9-1.9-2-2.5-3.2l0.9-0.5c0.6,1.1,1.4,2.1,2.4,3
				c1-0.9,1.7-1.9,2.3-3.1L24.3,6.6z M20.6,2.2c-0.3-0.6-0.5-1.1-0.8-1.6l1.1-0.2c0.3,0.5,0.6,1.1,0.8,1.8h5.5v1H14.8v-1H20.6z
				 M19.4,4.3c-1.1,1.4-2.4,2.6-4,3.6L14.8,7c1.5-1,2.8-2.1,3.9-3.4L19.4,4.3z M27.1,7.3L26.4,8c-0.9-1.2-2.2-2.4-3.9-3.8l0.7-0.7
				C24.8,4.8,26.1,6.1,27.1,7.3z"/>
			<path class="st3" d="M37.9,13.3l-0.3-1h1.3c0.4,0,0.6-0.2,0.6-0.6V2.1h-9.2v11.3h-1V1.1h11.2V12c0,0.9-0.4,1.3-1.2,1.3H37.9z
				 M33.3,8.2c-0.5,1.4-1.1,2.5-1.8,3.5l-0.6-0.8c0.7-1,1.3-2.3,1.8-3.7c-0.7-0.9-1.3-1.7-2-2.5l0.6-0.6c0.5,0.5,1.1,1.2,1.7,2
				c0.3-1,0.5-2,0.7-3.2l0.9,0.2c-0.2,1.4-0.5,2.8-0.9,4c0.5,0.7,1.1,1.5,1.7,2.4l-0.7,0.7C34.1,9.5,33.7,8.8,33.3,8.2z M37.3,8.5
				c-0.6,1.4-1.2,2.5-2,3.5l-0.6-0.8c0.8-1.1,1.4-2.3,2-3.7c-0.6-1-1.3-1.8-1.9-2.6l0.6-0.6c0.5,0.6,1.1,1.3,1.7,2.1
				c0.3-1.1,0.5-2.2,0.7-3.4l1,0.2c-0.3,1.6-0.6,3-1,4.2c0.5,0.8,1.1,1.7,1.7,2.7l-0.7,0.7C38.2,10,37.7,9.3,37.3,8.5z"/>
			<path class="st3" d="M48.1,11.3c-1.6,0.5-3.3,0.8-5.1,1.1l-0.2-1c1-0.1,2-0.3,3-0.5c0.4-2,0.8-4.1,1-6.3l1,0.1
				c-0.2,2.2-0.5,4.1-1,6c0.5-0.1,0.9-0.3,1.4-0.4v1H48.1z M45.1,2.9c-0.2-0.8-0.4-1.4-0.6-2.1l1-0.2C45.7,1.3,45.9,2,46,2.9h2.3v1
				h-5.5v-1H45.1z M45,10.3l-0.8,0.2c-0.3-1.9-0.6-3.8-1-5.5l0.9-0.3C44.4,6.3,44.7,8.2,45,10.3z M51.8,0.5V3h3.5v1h-3.5v2.7h2.8
				v6.6h-1v-0.9h-4v0.9h-1V6.7h2V0.5H51.8z M53.6,11.5V7.6h-4v3.9H53.6z"/>
		</g>
	</g>
</g>
<g id="RectEndPoint35" transform="translate(394,251.5)">
	<rect x="2" y="-7" class="st7" width="194" height="50"/>
	<rect y="-9" class="st8" width="194" height="50"/>
	<g transform="translate(20 9)">
		<g class="st2">
			<path class="st3" d="M1.4,13.4l-0.7-0.7c0.4-1.3,0.7-2.9,0.7-4.8V1.1H5v11.1c0,0.7-0.4,1.1-1.1,1.1h-1l-0.2-0.9
				c0.3,0,0.6,0,0.9,0s0.5-0.2,0.5-0.6V8.7H2.3C2.2,10.6,1.9,12.1,1.4,13.4z M4,2.1H2.3v2.4H4V2.1z M2.3,7.7H4V5.4H2.3V7.7z
				 M6.9,2.5C6.7,2,6.5,1.6,6.2,1.2L7,0.9c0.3,0.4,0.5,1,0.7,1.6h0.7c0.2-0.6,0.3-1.3,0.4-2l1,0.1c0,0.7-0.1,1.3-0.3,1.9h1.1
				c0.3-0.5,0.6-1.1,0.8-1.7l0.9,0.3c-0.3,0.5-0.5,1-0.8,1.4h1.2v0.8H9.2C9.1,3.7,8.9,4.1,8.8,4.5h4.4v0.9H11
				C11.5,6,12.4,6.6,13.5,7l-0.4,0.9C12.5,7.6,12,7.3,11.5,7v0.1c-0.1,0.8-0.2,1.5-0.3,2h1.5c0,2.3-0.2,3.6-0.5,3.9
				c-0.3,0.3-0.8,0.4-1.7,0.4H9.7l-0.3-0.9c0.3,0,0.6,0,0.9,0c0.5,0,0.8-0.1,1-0.2c0.2-0.2,0.3-1,0.3-2.4H6.5C6.7,9.1,6.9,8.4,7,7.8
				l1,0.1C7.9,8.3,7.8,8.7,7.6,9.1h2.6c0.1-0.5,0.3-1,0.3-1.7H6.8V7C6.4,7.3,6,7.7,5.5,8L5,7.2c0.9-0.5,1.6-1.1,2.2-1.8H5.4V4.5h2.3
				c0.2-0.4,0.4-0.7,0.5-1.1H5.8V2.5H6.9z M10.6,10.8v0.9h-5v-0.9H10.6z M11.1,6.6c-0.5-0.4-0.8-0.9-1.1-1.3H8.3
				C7.9,5.8,7.6,6.2,7.2,6.6H11.1z"/>
			<path class="st3" d="M17.5,4.8V11c0.4-0.4,0.9-0.8,1.4-1.4l0.3,1.1c-0.8,0.8-1.7,1.5-2.6,2.2L16.2,12c0.2-0.2,0.3-0.4,0.3-0.6
				V5.8h-1.9v-1H17.5z M18.5,2.9l-0.7,0.7c-0.6-0.7-1.3-1.4-2.3-2.2l0.7-0.7C17.1,1.4,17.9,2.1,18.5,2.9z M20.9,6V2.2H19v-1h6.4v4.3
				c0,2.8,0.2,4.7,0.6,5.9c0.2,0.4,0.4,0.7,0.5,0.7s0.1-0.2,0.2-0.5c0-0.4,0.1-1,0.1-1.7l0.8,0.4c-0.1,1.3-0.2,2.2-0.3,2.6
				c-0.1,0.3-0.3,0.4-0.5,0.4c-0.5,0-1-0.3-1.4-1c-0.7-1.2-1-3.4-1-6.7V2.2h-2.6V6h1.9v1h-1.9v6.4h-1V7h-2.1V6H20.9z"/>
			<path class="st3" d="M41.3,5.3v1h-6.7c-1.3,2.6-2.4,4.5-3.4,5.5c2.5-0.1,5-0.4,7.5-0.7c-0.5-0.9-1.1-1.8-1.7-2.8l0.8-0.5
				c1.3,1.9,2.3,3.6,3,5.1L40,13.5c-0.2-0.5-0.5-1-0.7-1.5c-2.8,0.4-5.9,0.6-9.3,0.9l-0.3-1c0.1,0,0.2-0.1,0.2-0.1
				c0.9-0.7,2.1-2.5,3.6-5.5h-4.7v-1C28.8,5.3,41.3,5.3,41.3,5.3z M40.1,1.4v1h-10v-1C30.1,1.4,40.1,1.4,40.1,1.4z"/>
			<path class="st3" d="M43.2,5.7l-0.6-0.8c2.4-1.1,4.4-2.5,6-4.2h0.8c1.3,1.7,3.3,3,5.9,4.1l-0.6,0.8c-0.7-0.3-1.4-0.7-2.1-1v0.8
				h-3.2v2h5v0.9h-5V12H51c0.5-0.9,0.9-1.9,1.3-2.9l0.9,0.3c-0.3,1-0.7,1.9-1.2,2.6h3v1H43v-1h2.9c-0.3-0.9-0.7-1.7-1.1-2.5l0.9-0.3
				c0.4,0.8,0.8,1.7,1.2,2.8h1.6V8.3h-5V7.4h5v-2h-3.2V4.6C44.7,5,44,5.3,43.2,5.7z M49,1.6c-1.1,1.1-2.2,2-3.5,2.8h7
				C51.1,3.7,49.9,2.7,49,1.6z"/>
			<path class="st3" d="M63.4,1.1V2h-6.7V1.1H63.4z M61.2,13.3l-0.3-0.9h1c0.3,0,0.4-0.1,0.4-0.3V7.6h-4.4v5.8H57V6.8h6.1v5.5
				c0,0.7-0.3,1-1,1H61.2z M62.6,2.9v3h-5v-3H62.6z M60.2,9.9c0.3-0.6,0.5-1.2,0.7-1.9l0.7,0.2c-0.2,0.6-0.4,1.2-0.6,1.6h0.9v0.8
				h-1.3v2.5h-0.8v-2.5h-1.3V9.9H60.2z M61.7,3.7h-3.2v1.4h3.2V3.7z M59.8,9.7l-0.6,0.2c-0.2-0.5-0.4-1-0.6-1.5l0.7-0.2
				C59.4,8.6,59.6,9.1,59.8,9.7z M65.8,3V0.6h0.9V3h2v5.6h-2v3.1c0.5-0.1,0.9-0.2,1.3-0.3c-0.2-0.6-0.3-1.1-0.5-1.7l0.8-0.3
				c0.4,1,0.7,2.2,1.1,3.6l-0.9,0.2c-0.1-0.3-0.1-0.7-0.2-1c-1.4,0.4-2.9,0.6-4.5,0.9l-0.2-0.9c0.8-0.1,1.5-0.2,2.2-0.3V8.6h-2V3
				H65.8z M65.9,3.9h-1.2v3.8h1.2V3.9z M67.9,3.9h-1.2v3.8h1.2V3.9z"/>
			<path class="st3" d="M71.5,3.8L70.9,3c0.7-0.6,1.2-1.5,1.7-2.6l0.9,0.2c-0.1,0.3-0.3,0.6-0.4,0.9h4v0.9H75c0,0.5-0.1,0.9-0.1,1.4
				h2.6v0.9h-2.8c0,0.1-0.1,0.3-0.1,0.4c1.1,0.5,2,1.1,2.7,1.6l-0.7,0.7c-0.6-0.5-1.3-1.1-2.3-1.6c-0.6,1-1.5,1.8-2.9,2.4l-0.7-0.8
				C72.1,6.8,73,6,73.5,5.1l0.1-0.3h-2.8v-1h3.1C74,3.4,74,3,74,2.5h-1.4C72.3,3,71.9,3.4,71.5,3.8z M81.7,13.4h-1v-0.6h-6.9v0.6h-1
				V7.6h9L81.7,13.4L81.7,13.4z M80.7,9.8V8.5h-6.9v1.3H80.7z M80.7,11.9v-1.2h-6.9v1.2H80.7z M82.7,1.5v5.1h-4.6V1.5H82.7z
				 M81.7,2.4H79v3.3h2.6L81.7,2.4L81.7,2.4z"/>
			<path class="st3" d="M91.7,4.5l-0.8,0.6c-0.2-0.3-0.3-0.6-0.5-0.9C88.8,4.4,87,4.6,85,4.7l-0.3-0.8c0.2-0.1,0.3-0.2,0.5-0.3
				c0.9-0.9,1.6-1.9,2.2-3l1,0.3c-0.6,1.2-1.3,2.2-2.1,2.9c1.2-0.1,2.4-0.2,3.7-0.4C89.7,3,89.4,2.5,89,2l0.8-0.5
				C90.5,2.7,91.2,3.7,91.7,4.5z M86.5,13.4h-1V5.5h5.2v6.6c0,0.8-0.4,1.2-1.2,1.2h-1.1l-0.3-1h1.1c0.3,0,0.5-0.2,0.5-0.5v-1.1h-3.2
				V13.4z M89.7,6.4h-3.2v1.4h3.2V6.4z M86.5,9.9h3.2V8.6h-3.2V9.9z M93.3,6.7c-0.9,0-1.3-0.5-1.3-1.4V0.6h1v1.8
				c1.5-0.2,2.8-0.5,3.8-0.7l0.3,0.9c-1.2,0.3-2.5,0.6-4.1,0.8v1.8c0,0.4,0.2,0.7,0.6,0.7h1.8c0.3,0,0.5-0.1,0.6-0.2
				c0.1-0.2,0.2-0.7,0.3-1.6l0.9,0.3c-0.1,1.1-0.3,1.8-0.5,2.1c-0.2,0.2-0.6,0.3-1.1,0.3h-2.3V6.7z M93,11.8c0,0.3,0.2,0.4,0.5,0.4
				h1.9c0.3,0,0.5-0.1,0.6-0.2c0.2-0.2,0.3-0.7,0.3-1.6l0.9,0.3c-0.1,1.1-0.3,1.8-0.5,2.1c-0.2,0.2-0.6,0.3-1.1,0.3h-2.4
				c-0.8,0-1.2-0.4-1.2-1.1V7.2h1v1.7c1.4-0.1,2.6-0.4,3.8-0.7l0.3,0.9c-1.3,0.4-2.6,0.6-4.1,0.7L93,11.8L93,11.8z"/>
			<path class="st3" d="M102.1,1.5V0.6h1v0.9h3.7V0.6h1v0.9h3.2v0.9h-3.2v0.8h-1V2.4h-3.7v0.8h-1V2.4H99V1.5H102.1z M110.6,6.4h-1
				V4.7h-9.3v1.8h-1V3.8h11.3V6.4z M109.9,13.4h-1v-0.6h-7.6v0.6h-1v-4h9.6V13.4z M108.9,12v-1.7h-7.6V12H108.9z M108.5,5.7v2.8h-7
				V5.7H108.5z M107.6,6.5h-5.1v1.3h5.1V6.5z"/>
			<path class="st3" d="M115.4,0.8c-0.1,0.5-0.3,0.9-0.4,1.4h2.6v1h-2.9c-0.4,1-0.8,1.8-1.3,2.6l-0.8-0.5c0.9-1.4,1.5-2.9,1.9-4.6
				L115.4,0.8z M117.3,5v0.9h-1.5v1.8h1.9v0.9h-1.9v3.3c0.6-0.2,1.3-0.5,1.9-0.9l0.2,0.9c-0.9,0.5-1.9,0.9-3.1,1.2l-0.4-0.9
				c0.3-0.1,0.4-0.2,0.4-0.4V8.6H113v-1h1.9V5.9H114V5H117.3z M120.3,3.5l-0.8,0.4c-0.4-0.9-0.8-1.7-1.3-2.4l0.9-0.4
				C119.5,1.8,119.9,2.6,120.3,3.5z M122.2,0.6v3.9h2.6V12c0,0.9-0.4,1.4-1.2,1.4h-1.4l-0.3-1h1.3c0.4,0,0.5-0.2,0.5-0.7v-1.5h-4.3
				v3.1h-1V4.5h2.7V0.6H122.2z M123.8,5.4h-4.3V7h4.3V5.4z M119.5,9.4h4.3V7.9h-4.3V9.4z M125.2,1.4c-0.3,0.9-0.8,1.7-1.3,2.5
				L123,3.5c0.6-0.8,1-1.7,1.3-2.5L125.2,1.4z"/>
			<path class="st3" d="M138.7,1.2v1h-5.2v5.3h5.7v1h-5.7v5h-1v-5h-5.6v-1h5.6V2.2h-5.1v-1H138.7z M130.6,6.3l-0.9,0.5
				c-0.5-1.2-1-2.3-1.5-3.2l0.9-0.5C129.6,4,130.1,5.1,130.6,6.3z M137.9,3.4c-0.4,1.1-1,2.2-1.7,3.2l-0.9-0.5
				c0.7-1.1,1.2-2.2,1.6-3.2L137.9,3.4z"/>
			<path class="st3" d="M141.1,5.2c1.2-0.4,2.8-2,4.6-4.7l1,0.4c-1.3,1.8-2.5,3.2-3.8,4.3c2.7-0.1,5.2-0.3,7.6-0.5
				c-0.5-0.8-1.1-1.5-1.6-2.1l0.9-0.4c1.2,1.4,2.3,3,3.4,4.7l-1,0.5c-0.4-0.6-0.7-1.1-1-1.7c-3,0.3-6.2,0.5-9.9,0.6L141.1,5.2z
				 M151.7,13.4h-1v-0.7h-7.3v0.7h-1V7.6h9.4L151.7,13.4L151.7,13.4z M150.7,11.7V8.5h-7.3v3.2H150.7z"/>
		</g>
	</g>
</g>
<g id="RectEndPoint45" transform="translate(19,661)">
	<rect x="5" y="-7" class="st7" width="138" height="50"/>
	<rect x="3" y="-9" class="st8" width="138" height="50"/>
	<g transform="translate(41,9)">
		<g class="st2">
			<path class="st3" d="M4.4,13.3l-0.8-0.7C4.5,11.3,4.9,9.8,5,7.8V1.1h10.4v10.5c0,1-0.5,1.5-1.5,1.5h-1.6l-0.3-1
				c0.6,0,1.1,0.1,1.6,0.1s0.8-0.3,0.8-0.9V8.8h-3.8v4.1h-1V8.8H5.9C5.8,10.6,5.3,12.1,4.4,13.3z M6,2.1v2.4h3.6V2.1H6z M6,7.9h3.6
				V5.4H6V7.9z M14.4,2.1h-3.8v2.4h3.8V2.1z M14.4,5.4h-3.8v2.5h3.8V5.4z"/>
			<path class="st3" d="M18.2,13.5l-0.7-0.7c1.1-1.6,1.7-3.6,1.7-6.1V2.3h4.6c-0.3-0.6-0.5-1.1-0.8-1.6l1-0.2
				c0.3,0.5,0.5,1.1,0.8,1.8h4.4V7h-9C20.1,9.5,19.5,11.6,18.2,13.5z M20.2,3.3V6h8V3.3H20.2z"/>
			<path class="st3" d="M44.2,1.3v1H31.8v-1H44.2z M43.7,4.8v8.6h-1v-0.8h-9.4v0.8h-1V4.8h1v6.8h9.4V4.8H43.7z M41.4,3.8v6.4h-6.7
				V3.8H41.4z M35.7,4.7v1.9h1.9V4.7H35.7z M35.7,9.3h1.9V7.4h-1.9V9.3z M40.4,4.7h-1.9v1.9h1.9V4.7z M40.4,9.3V7.4h-1.9v1.9H40.4z"
				/>
			<path class="st3" d="M45.8,7.3l-0.3-1.1c1.3-1.7,2.2-3.6,2.8-5.7l0.9,0.4c-0.3,1-0.6,1.9-1.1,2.8v9.7h-1V5.5
				C46.8,6.1,46.3,6.7,45.8,7.3z M49.4,4.2l-0.6-0.8c1.4-0.8,2.5-1.8,3.4-3l1,0.2C53,1,52.8,1.2,52.6,1.5h3.5v0.7
				C55.7,2.6,55.4,3,55,3.4h2.6v3.1h-4.2l0,0c0.6,0.6,1.1,1.3,1.4,2c1-0.4,1.8-0.9,2.4-1.6l0.7,0.8c-0.4,0.4-0.9,0.7-1.4,1
				c0.4,1.3,1.1,2.4,2.1,3.4l-0.7,0.8c-1-1.1-1.8-2.4-2.2-3.8c-0.2,0.1-0.4,0.2-0.6,0.3c0.1,0.5,0.2,1,0.3,1.5c0,1-0.2,1.6-0.5,2
				c-0.3,0.3-0.8,0.5-1.5,0.6c-0.3,0-0.5,0-0.8,0l-0.3-0.9c0.4,0,0.7,0,1,0s0.6-0.1,0.8-0.4c0.2-0.2,0.3-0.7,0.3-1.3
				c0-0.2,0-0.3,0-0.5c-1.2,1.1-2.8,2-4.7,2.7l-0.7-1c2.2-0.7,3.9-1.6,5.1-2.7C54,9,53.9,8.8,53.8,8.5c-1,0.9-2.4,1.7-4.2,2.3
				L49.1,10c1.8-0.6,3.3-1.3,4.3-2.1c-0.2-0.3-0.4-0.5-0.6-0.7c-0.8,0.8-2,1.3-3.3,1.6L49.1,8c1.3-0.3,2.4-0.8,3.1-1.5h-2.3V3.9
				C49.7,4,49.5,4.1,49.4,4.2z M54.9,2.3h-3c-0.4,0.4-0.8,0.8-1.2,1.1h3.1C54.1,3,54.5,2.6,54.9,2.3z M53.4,4.2h-2.5v1.4h2
				C53.1,5.2,53.3,4.7,53.4,4.2z M56.6,4.2h-2.2c-0.1,0.5-0.3,1-0.5,1.4h2.7V4.2z"/>
		</g>
	</g>
</g>
<g id="RectEndPoint46" transform="translate(19,603)">
	<rect x="5" y="-7" class="st7" width="138" height="50"/>
	<rect x="3" y="-9" class="st8" width="138" height="50"/>
	<g transform="translate(41,9)">
		<g class="st2">
			<path class="st3" d="M7.2,7.2C7.1,7.4,7,7.7,7,8h2.9v0.8c-0.3,0.9-0.8,1.7-1.6,2.4c0.7,0.3,1.3,0.6,1.9,1L9.7,13
				c-0.6-0.4-1.3-0.7-2.2-1.1c-0.9,0.6-2.1,1.2-3.5,1.6l-0.5-0.8c1.1-0.3,2.1-0.7,3-1.1c-0.6-0.3-1.3-0.5-1.9-0.8
				c0.4-0.8,0.7-1.4,1-2H3.9V8h2C6,7.7,6.1,7.4,6.2,7.1L7.2,7.2z M6.7,3.2V0.6h0.9v2.7h2.5v0.9H7.6v0.2c0.8,0.4,1.5,0.8,2.3,1.3
				L9.4,6.4C8.7,5.8,8.1,5.3,7.6,5v1.8H6.7V4.2C6.2,5.3,5.4,6.2,4.2,7L3.7,6.2C4.8,5.6,5.5,4.9,6,4.1H4V3.2H6.7z M5.9,2.6L5.2,2.9
				c-0.3-0.7-0.6-1.3-1-1.8L5,0.8C5.4,1.4,5.6,2,5.9,2.6z M9,8.8H6.6c-0.2,0.5-0.5,0.9-0.8,1.3c0.6,0.2,1.1,0.4,1.6,0.6
				C8.1,10.2,8.6,9.6,9,8.8z M10,1.1C9.7,1.7,9.4,2.3,8.9,2.9L8.2,2.6C8.7,2,9,1.4,9.3,0.8L10,1.1z M11.5,5.9
				c-0.3,0.6-0.5,1.2-0.8,1.7l-0.6-0.8c0.8-1.6,1.4-3.7,1.7-6.3l1,0.2c-0.1,0.7-0.2,1.4-0.3,2h3.7v1h-0.9C15.2,6,14.8,8,14,9.7
				c0.7,1.3,1.6,2.2,2.6,2.9L16,13.4c-1-0.7-1.8-1.7-2.5-2.8c-0.7,1.1-1.5,2.1-2.6,2.8l-0.5-0.8c1.1-0.8,1.9-1.7,2.6-2.9
				C12.4,8.6,11.9,7.3,11.5,5.9z M12,4.4c0.4,1.6,0.8,3.1,1.4,4.2c0.5-1.4,0.8-3.1,0.9-5h-2.1L12,4.4z"/>
			<path class="st3" d="M18.1,13.3l-0.2-1c0.4,0,0.7,0.1,1.1,0.1s0.5-0.2,0.5-0.6V8.4c-0.6,0.2-1.1,0.4-1.7,0.6l-0.3-1
				c0.6-0.2,1.3-0.4,1.9-0.6V4.2h-1.7v-1h1.7V0.6h1v2.6h1.3v1h-1.3V7c0.4-0.2,0.9-0.4,1.3-0.6v1c-0.4,0.2-0.9,0.4-1.3,0.6v4
				c0,0.8-0.4,1.2-1.2,1.2h-1.1V13.3z M21.8,13.4L21,12.7c1-1.8,1.5-4.3,1.5-7.2V1.1H30v3.4h-2.6v1.7h3v0.9h-3v1.7h2.4v4.6h-0.9
				v-0.7h-3.8v0.7H24V8.8h2.3V7.1h-2.9C23.3,9.5,22.8,11.6,21.8,13.4z M23.6,4.5v1c0,0.2,0,0.4,0,0.7h2.8V4.5H23.6z M23.6,2.1v1.6
				H29V2.1H23.6z M28.7,11.8V9.7h-3.8v2.1C24.9,11.8,28.7,11.8,28.7,11.8z"/>
			<path class="st3" d="M37.5,7.1V5.7h1V7h5.1v1h-4.1c1,1.4,2.6,2.7,4.8,3.8l-0.7,0.9c-2.4-1.4-4-3-4.9-4.7h-0.2v5.3h-1V8.1h-0.1
				c-1,1.9-2.7,3.6-5.1,4.8L31.7,12c2.2-1,3.8-2.3,4.8-3.9h-4.1v-1C32.4,7.1,37.5,7.1,37.5,7.1z M43.4,1.5C40.7,2,37.2,2.3,32.7,2.3
				l-0.3-1c4.2,0,7.7-0.3,10.5-0.8L43.4,1.5z M35.4,5.5l-0.9,0.4c-0.4-1-0.9-1.8-1.4-2.6l1-0.3C34.6,3.8,35,4.6,35.4,5.5z M39.1,5.2
				l-1,0.2C37.8,4.6,37.4,3.8,37,3l0.9-0.3C38.3,3.4,38.7,4.3,39.1,5.2z M43.3,2.9C42.7,4.1,42,5.1,41.2,6l-0.8-0.6
				c0.8-0.8,1.5-1.8,2-3L43.3,2.9z"/>
			<path class="st3" d="M46.2,5.2l-0.6-0.8c1.2-1.1,2.2-2.4,2.8-4l0.9,0.2C49.2,1,49,1.3,48.8,1.7h3c-0.2-0.4-0.4-0.8-0.6-1.2l1-0.2
				c0.2,0.4,0.4,0.9,0.6,1.4h4.5v0.8h-4.5v1h3.9v0.8h-3.9v0.9h3.9V6h-3.9v1h4.7v1H47.3V4C47,4.5,46.6,4.9,46.2,5.2z M46,10V9.1h5.6
				V8.4h1v0.7H58V10h-4.2c1,0.9,2.4,1.6,4.4,2.1L57.8,13c-2.3-0.8-4-1.8-4.9-3h-0.3v3.4h-1V10h-0.3c-0.9,1.2-2.5,2.2-4.9,3.1
				l-0.5-0.9c2.2-0.7,3.6-1.4,4.5-2.2C50.4,10,46,10,46,10z M51.9,2.7h-3.6l-0.1,0.1v0.8h3.6L51.9,2.7L51.9,2.7z M51.9,4.4h-3.6v0.9
				h3.6V4.4z M51.9,6.1h-3.6v1h3.6V6.1z"/>
		</g>
	</g>
</g>
<g id="RectEndPoint48" transform="translate(256,660)">
	<rect x="5" y="-7" class="st7" width="138" height="50"/>
	<rect x="3" y="-9" class="st8" width="138" height="50"/>
	<g transform="translate(20,9)">
		<g class="st2">
			<path class="st3" d="M6.9,6.2L6.2,6.9C5.6,6.2,4.8,5.5,3.7,4.7L4.4,4C5.4,4.8,6.2,5.5,6.9,6.2z M7.2,8.3
				c-0.7,1.8-1.5,3.4-2.3,4.9L4,12.8C4.9,11.3,5.7,9.6,6.4,8L7.2,8.3z M7.4,2.9L6.7,3.6C6,2.9,5.2,2.2,4.1,1.4l0.7-0.7
				C5.8,1.5,6.6,2.2,7.4,2.9z M7.8,8.2V7.3h3.6V5.7h1v1.6h3.7v0.9h-2.7c0.6,1.3,1.7,2.4,3.2,3.5L16,12.5c-1.5-1.3-2.6-2.7-3.2-4.3
				h-0.3v5.1h-1V8.2h-0.3c-0.7,1.8-2,3.2-3.7,4.4L7,11.7c1.6-0.9,2.7-2.1,3.5-3.5C10.5,8.2,7.8,8.2,7.8,8.2z M11.4,3.3
				c-0.7,1.3-1.6,2.3-2.7,3L8,5.7C9.1,5,10,4.1,10.5,3L11.4,3.3z M15.8,3.8h-1V2.1H9v1.8H8V1.1h7.8V3.8z M15.5,5.7l-0.8,0.6
				c-0.6-0.9-1.4-1.8-2.5-2.8L13,2.9C14.1,4,14.9,4.9,15.5,5.7z"/>
			<path class="st3" d="M19.8,6.2c-0.1,3-0.6,5.4-1.5,7.1l-0.8-0.7c0.8-1.6,1.2-3.7,1.3-6.5V1.6h5.4c-0.2-0.4-0.3-0.7-0.5-1l1.1-0.2
				c0.2,0.4,0.3,0.7,0.5,1.2h4.8v1H19.8v1.6h2.4V3.1h1v1.1h3.7V3h1v1.1H30V5h-2.2v2.2h-5.7V5.1h-2.4v1.1H19.8z M28.9,8.3V9
				c-0.8,1-1.7,1.8-2.9,2.5c1.3,0.5,2.7,0.9,4.4,1.1L30,13.5c-2-0.4-3.6-0.9-5-1.5c-1.4,0.7-3.1,1.2-4.9,1.5l-0.4-0.9
				c1.6-0.2,3.1-0.6,4.3-1.1c-1-0.6-1.9-1.4-2.5-2.3h-0.9V8.3H28.9z M25,11c1-0.5,1.8-1.1,2.6-1.8h-5C23.2,9.9,24,10.5,25,11z
				 M23.2,6.5h3.7V5.1h-3.7V6.5z"/>
			<path class="st3" d="M41.8,5.6v0.9c-0.9,0.6-1.9,1.2-3.1,1.7v0.7H44v1h-5.3v2.4c0,0.8-0.4,1.1-1.2,1.1h-1.8l-0.2-0.9
				c0.5,0,1.1,0,1.7,0c0.3,0,0.5-0.2,0.5-0.6v-2H32v-1h5.7V7.7c1.2-0.5,2.1-0.9,2.7-1.3h-6.1V5.6H41.8z M43.9,6.5h-1V4.4h-9.8v2.2
				h-1V3.4h8c0.6-0.9,1.1-1.9,1.6-2.9l1,0.4c-0.5,1-1,1.8-1.5,2.5h2.7V6.5z M35.5,2.9l-0.9,0.4c-0.5-0.8-1-1.5-1.5-2.2L34,0.7
				C34.6,1.4,35.1,2.1,35.5,2.9z M38.8,2.7l-0.9,0.4c-0.4-0.9-0.9-1.6-1.3-2.3l0.9-0.4C37.9,1.1,38.4,1.9,38.8,2.7z"/>
			<path class="st3" d="M54.2,8c-2,1.2-4.4,2.3-7.4,3.3l-0.4-0.9c2.9-0.9,5.4-2,7.5-3.3L54.2,8z M52.2,12.4c0.8,0,1.5,0,2.3,0
				c0.4,0,0.7-0.2,1-0.6c0.2-0.4,0.3-1.3,0.4-2.8c0-1,0-3.2,0.1-6.6h-9.1v-1H57c-0.1,4.6-0.1,7.4-0.2,8.3c-0.1,1.4-0.2,2.3-0.5,2.8
				s-0.8,0.8-1.5,0.8c-0.6,0-1.3,0-2.2,0L52.2,12.4z M51.3,6.4l-0.7,0.7c-0.7-0.8-1.7-1.7-3-2.7l0.7-0.7C49.6,4.6,50.5,5.5,51.3,6.4
				z"/>
			<path class="st3" d="M67.6,8.9v1h-7.9v-1H67.6z M63.2,0.6L63,2.5h8.5v1h-8.6l-0.2,2.3h7.9c0,3.8-0.3,6-0.8,6.6
				c-0.5,0.6-1.6,0.9-3.3,0.9c-0.4,0-0.9,0-1.4-0.1l-0.3-0.9c0.7,0.1,1.2,0.1,1.4,0.1c1.6,0,2.5-0.3,2.8-0.8
				c0.3-0.6,0.5-2.2,0.5-4.9h-8l0.7-6.1L63.2,0.6z"/>
			<path class="st3" d="M76.2,3.9c0.5-0.5,1-1.2,1.4-1.9H74V1.1h4.6v0.8c-0.6,1-1.2,1.9-1.9,2.7c0.3,0.3,0.5,0.6,0.7,0.8H79V6
				c-0.2,1.1-0.5,1.9-0.8,2.6l-0.8-0.3c0.3-0.5,0.5-1.2,0.7-1.9h-1.5v5.9c0,0.7-0.4,1.1-1.1,1.1h-1.3l-0.2-1c0.4,0,0.8,0.1,1.2,0.1
				c0.3,0,0.4-0.2,0.4-0.5V6.4h-2v-1h2.7c-0.5-0.6-1.2-1.3-2-2.1L75,2.8C75.5,3.3,75.8,3.6,76.2,3.9z M83.4,5.3v2.5
				c0,1.5-0.4,2.7-1,3.6c-0.6,0.8-1.6,1.5-3,1.9l-0.5-0.9c1.3-0.4,2.3-1,2.8-1.7c0.5-0.8,0.7-1.7,0.8-2.9V5.3H83.4z M86.4,1.1v1
				h-2.8c-0.1,0.5-0.2,1.1-0.3,1.6h2.6v6.6h-1V4.5h-4v5.7h-1V3.7h2.3c0.1-0.5,0.2-1,0.3-1.6h-3.1v-1C79.4,1.1,86.4,1.1,86.4,1.1z
				 M86.5,12.7l-0.7,0.7c-0.6-0.8-1.5-1.6-2.5-2.5l0.6-0.6C84.9,11.1,85.8,11.9,86.5,12.7z"/>
			<path class="st3" d="M90.2,6.3L89.5,7c-0.5-0.6-1.1-1.3-1.9-2l0.7-0.6C89,5,89.7,5.6,90.2,6.3z M90.4,8.4
				c-0.5,1.7-1.1,3.3-1.8,4.8l-0.9-0.4c0.7-1.6,1.3-3.2,1.8-4.8L90.4,8.4z M90.5,2.7l-0.7,0.7c-0.5-0.6-1.1-1.2-2-1.9l0.7-0.7
				C89.3,1.5,90,2.1,90.5,2.7z M93.8,3.1v4.4c0,1.6-0.3,2.9-0.8,3.8c-0.5,0.9-1.2,1.6-2.3,2.1l-0.5-0.8c1-0.5,1.7-1.1,2.1-1.9
				C92.7,9.9,93,8.8,93,7.5V3.1H93.8z M95.7,9.8h-0.9V2.1h-2.9v7.8H91V1.2h4.7V9.8z M96.4,12.7l-0.7,0.7c-0.5-0.7-1.2-1.5-2.1-2.4
				l0.6-0.6C95.1,11.2,95.8,12,96.4,12.7z M97.7,1.8v8.7h-0.9V1.8H97.7z M97.2,13.3L97,12.4c0.5,0,1,0.1,1.4,0.1
				c0.3,0,0.5-0.2,0.5-0.6V0.6h1v11.5c0,0.8-0.4,1.2-1.1,1.2H97.2z"/>
		</g>
	</g>
</g>
<g id="RectEndPoint49" transform="translate(256,602)">
	<rect x="5" y="-7" class="st7" width="138" height="50"/>
	<rect x="3" y="-9" class="st8" width="138" height="50"/>
	<g transform="translate(20,9)">
		<g class="st2">
			<path class="st3" d="M7.2,7.2C7.1,7.4,7,7.7,7,8h2.9v0.8c-0.3,0.9-0.8,1.7-1.6,2.4c0.7,0.3,1.3,0.6,1.9,1L9.7,13
				c-0.6-0.4-1.3-0.7-2.2-1.1c-0.9,0.6-2.1,1.2-3.5,1.6l-0.5-0.8c1.1-0.3,2.1-0.7,3-1.1c-0.6-0.3-1.3-0.5-1.9-0.8
				c0.4-0.8,0.7-1.4,1-2H3.9V8h2C6,7.7,6.1,7.4,6.2,7.1L7.2,7.2z M6.7,3.2V0.6h0.9v2.7h2.5v0.9H7.6v0.2c0.8,0.4,1.5,0.8,2.3,1.3
				L9.4,6.4C8.7,5.8,8.1,5.3,7.6,5v1.8H6.7V4.2C6.2,5.3,5.4,6.2,4.2,7L3.7,6.2C4.8,5.6,5.5,4.9,6,4.1H4V3.2H6.7z M5.9,2.6L5.2,2.9
				c-0.3-0.7-0.6-1.3-1-1.8L5,0.8C5.4,1.4,5.6,2,5.9,2.6z M9,8.8H6.6c-0.2,0.5-0.5,0.9-0.8,1.3c0.6,0.2,1.1,0.4,1.6,0.6
				C8.1,10.2,8.6,9.6,9,8.8z M10,1.1C9.7,1.7,9.4,2.3,8.9,2.9L8.2,2.6C8.7,2,9,1.4,9.3,0.8L10,1.1z M11.5,5.9
				c-0.3,0.6-0.5,1.2-0.8,1.7l-0.6-0.8c0.8-1.6,1.4-3.7,1.7-6.3l1,0.2c-0.1,0.7-0.2,1.4-0.3,2h3.7v1h-0.9C15.2,6,14.8,8,14,9.7
				c0.7,1.3,1.6,2.2,2.6,2.9L16,13.4c-1-0.7-1.8-1.7-2.5-2.8c-0.7,1.1-1.5,2.1-2.6,2.8l-0.5-0.8c1.1-0.8,1.9-1.7,2.6-2.9
				C12.4,8.6,11.9,7.3,11.5,5.9z M12,4.4c0.4,1.6,0.8,3.1,1.4,4.2c0.5-1.4,0.8-3.1,0.9-5h-2.1L12,4.4z"/>
			<path class="st3" d="M18.1,13.3l-0.2-1c0.4,0,0.7,0.1,1.1,0.1s0.5-0.2,0.5-0.6V8.4c-0.6,0.2-1.1,0.4-1.7,0.6l-0.3-1
				c0.6-0.2,1.3-0.4,1.9-0.6V4.2h-1.7v-1h1.7V0.6h1v2.6h1.3v1h-1.3V7c0.4-0.2,0.9-0.4,1.3-0.6v1c-0.4,0.2-0.9,0.4-1.3,0.6v4
				c0,0.8-0.4,1.2-1.2,1.2h-1.1V13.3z M21.8,13.4L21,12.7c1-1.8,1.5-4.3,1.5-7.2V1.1H30v3.4h-2.6v1.7h3v0.9h-3v1.7h2.4v4.6h-0.9
				v-0.7h-3.8v0.7H24V8.8h2.3V7.1h-2.9C23.3,9.5,22.8,11.6,21.8,13.4z M23.6,4.5v1c0,0.2,0,0.4,0,0.7h2.8V4.5H23.6z M23.6,2.1v1.6
				H29V2.1H23.6z M28.7,11.8V9.7h-3.8v2.1C24.9,11.8,28.7,11.8,28.7,11.8z"/>
			<path class="st3" d="M33.4,3.1V0.6h1v2.6h1.3v1h-1.3v2.7c0.4-0.2,0.9-0.4,1.3-0.7v1c-0.4,0.2-0.9,0.4-1.3,0.6V12
				c0,0.8-0.4,1.3-1.2,1.3h-1.1l-0.2-1c0.4,0,0.7,0.1,1,0.1s0.5-0.2,0.5-0.6V8.2c-0.5,0.2-1,0.4-1.6,0.6l-0.2-1
				c0.6-0.2,1.2-0.3,1.8-0.6V4.1h-1.6v-1H33.4z M40.8,1.9h3.1v2.4H43V2.8h-5.7v1.5h-1V1.9h3.5c-0.2-0.5-0.4-0.9-0.6-1.3l1.1-0.2
				C40.5,0.9,40.6,1.4,40.8,1.9z M43.3,7.1V8c-2.8,1.3-4.5,2.4-5.3,3.2c-0.3,0.3-0.4,0.5-0.4,0.7c0,0.3,0.2,0.4,0.6,0.4h4
				c0.4,0,0.7-0.1,0.8-0.3c0.2-0.2,0.3-0.7,0.4-1.7l1,0.3c-0.2,1.2-0.4,1.9-0.6,2.1c-0.3,0.3-0.8,0.4-1.5,0.4h-4
				c-1.1,0-1.6-0.4-1.6-1.2c0-0.5,0.2-0.9,0.7-1.4c0.8-0.8,2.2-1.6,4.2-2.5h-4.7V7.1H43.3z M39.7,3.8c-0.6,1.2-1.4,2.1-2.4,2.7
				l-0.7-0.6c1-0.6,1.7-1.4,2.2-2.4L39.7,3.8z M43.4,6l-0.8,0.5c-0.5-0.8-1.2-1.7-2.1-2.7l0.8-0.5C42.2,4.4,42.9,5.2,43.4,6z"/>
			<path class="st3" d="M46,13.3l-0.2-1c0.4,0,0.8,0.1,1.2,0.1c0.3,0,0.5-0.3,0.5-0.8V8.4C47,8.6,46.4,8.8,45.9,9l-0.2-1
				c0.6-0.2,1.2-0.4,1.8-0.6V4.2h-1.7v-1h1.7V0.6h1v2.6h1.4v1h-1.4V7c0.5-0.2,0.9-0.5,1.4-0.7v1C49.4,7.6,49,7.8,48.5,8v3.8
				c0,1-0.4,1.5-1.1,1.5H46z M51.4,5.9c0,2.9-0.6,5.4-1.7,7.5L49,12.7c1-1.8,1.5-4.1,1.5-6.9V1.1h7.4v3.5h-6.4L51.4,5.9L51.4,5.9z
				 M51.4,2.1v1.7h5.5V2.1H51.4z M56.7,6.1h0.9v2.8h-2.3v2.9H57v-2h1v3.5h-1v-0.6h-4.2v0.6h-0.9V9.7h0.9v2h1.6V8.9h-2.2V6.1h0.9V8
				h1.3V5.4h1V8h1.3C56.7,8,56.7,6.1,56.7,6.1z"/>
			<path class="st3" d="M67.6,8.9v1h-7.9v-1H67.6z M63.2,0.6L63,2.5h8.5v1h-8.6l-0.2,2.3h7.9c0,3.8-0.3,6-0.8,6.6
				c-0.5,0.6-1.6,0.9-3.3,0.9c-0.4,0-0.9,0-1.4-0.1l-0.3-0.9c0.7,0.1,1.2,0.1,1.4,0.1c1.6,0,2.5-0.3,2.8-0.8
				c0.3-0.6,0.5-2.2,0.5-4.9h-8l0.7-6.1L63.2,0.6z"/>
			<path class="st3" d="M86.3,12.1l-0.2,1H82c-2.5,0-4.3-0.4-5.4-1.1c-0.2-0.1-0.3-0.3-0.5-0.4c-0.4,0.7-1,1.2-1.7,1.7l-0.7-0.9
				c0.7-0.5,1.2-1,1.7-1.7c-0.5-0.8-1-1.8-1.3-3L75,7.4c0.3,1,0.6,1.8,1,2.4c0.5-1,0.8-2.2,0.8-3.5h-2.6V5.6c0.8-1,1.6-2.2,2.2-3.4
				h-2.3v-1h3.4V2c-0.7,1.3-1.4,2.4-2.1,3.3h2.2v0.6c-0.1,1.8-0.4,3.4-1.1,4.7c0.2,0.2,0.4,0.4,0.7,0.6c1,0.5,2.4,0.8,4.3,0.8
				C83.1,12.2,84.7,12.1,86.3,12.1z M82.2,6.3v1.1h3.3v0.8h-3.3v1.2h3.7v0.9h-3.7v1.4h-1v-1.4H78V9.4h3.2V8.2h-2.7V7.4h2.7V6.3h-2.5
				V5.5h2.5V4.3h-3.1V3.5h3.1V2.4h-2.5V1.6h2.5v-1h1v1h3v1.9h0.9v0.8h-0.9v2H82.2z M82.2,3.5h2V2.4h-2V3.5z M82.2,5.5h2V4.3h-2V5.5z
				"/>
			<path class="st3" d="M90.5,13.4h-1v-7c-0.4,1.3-1,2.5-1.7,3.6l-0.4-1.1c1-1.3,1.7-2.9,2.1-4.6V4.2H88V3.3h1.6V0.6h1v2.7H92v0.9
				h-1.5v0.9c0.6,0.7,1.2,1.6,1.9,2.5l-0.5,0.8c-0.5-0.9-1-1.7-1.3-2.2L90.5,13.4L90.5,13.4z M95.2,11.5c-0.6,0.8-1.8,1.4-3.4,1.9
				l-0.4-0.8c1.4-0.4,2.4-0.9,3-1.6c0.1-0.2,0.3-0.4,0.4-0.6h-3.3v-1h3.7c0.1-0.3,0.2-0.7,0.3-1.1h-2.9V4.1h6.7v4.2h-2.9
				c-0.1,0.4-0.1,0.7-0.2,1.1h4v0.9h-3.5c0.8,1,2,1.7,3.7,2.3l-0.7,0.8c-1.8-0.8-3.1-1.8-3.9-2.9C95.7,10.9,95.4,11.2,95.2,11.5z
				 M93.9,1.7V0.6h0.9v1.1h2.3V0.6h1v1.1h2.2v0.9h-2.2v1h-1v-1h-2.3v1h-0.9v-1h-2V1.7H93.9z M98.4,5.9v-1h-4.9v0.9L98.4,5.9
				L98.4,5.9z M98.4,6.6h-4.9v1h4.9V6.6z"/>
		</g>
	</g>
</g>
<g id="RectEndPoint52" transform="translate(489,660)">
	<rect x="5" y="-7" class="st7" width="138" height="50"/>
	<rect x="3" y="-9" class="st8" width="138" height="50"/>
	<g transform="translate(41,9)">
		<g class="st2">
			<path class="st3" d="M3.7,3.1v-1h5.1v1h-2v6.4C7.5,9.3,8.2,9.1,9,8.8v1c-1.6,0.6-3.3,1.1-5.1,1.5l-0.3-1C4.3,10.1,5,10,5.7,9.8
				V3.1H3.7z M12.4,0.6v2.8H16c0,4.4-0.1,7.1-0.2,8.1c-0.2,1.1-1,1.7-2.4,1.7c-0.3,0-0.7,0-1.3-0.1l-0.2-0.9c0.5,0,1,0,1.4,0
				c0.9,0,1.4-0.4,1.6-1.2c0.1-0.7,0.1-3,0.2-6.7h-2.6c-0.1,4.1-1.2,7.1-3.3,9l-0.8-0.7c2-1.7,3.1-4.5,3.1-8.3H9.1v-1h2.2V0.6H12.4z
				"/>
			<path class="st3" d="M24.7,4.5l-0.8,0.6c-0.2-0.3-0.3-0.6-0.5-0.9C21.8,4.4,20,4.6,18,4.7l-0.3-0.8c0.2-0.1,0.3-0.2,0.5-0.3
				c0.9-0.9,1.6-1.9,2.2-3l1,0.3c-0.6,1.2-1.3,2.2-2.1,2.9c1.2-0.1,2.4-0.2,3.7-0.4C22.7,3,22.4,2.5,22,2l0.8-0.5
				C23.5,2.7,24.2,3.7,24.7,4.5z M19.5,13.4h-1V5.5h5.2v6.6c0,0.8-0.4,1.2-1.2,1.2h-1.1l-0.3-1h1.1c0.3,0,0.5-0.2,0.5-0.5v-1.1h-3.2
				V13.4z M22.7,6.4h-3.2v1.4h3.2V6.4z M19.5,9.9h3.2V8.6h-3.2V9.9z M26.3,6.7c-0.9,0-1.3-0.5-1.3-1.4V0.6h1v1.8
				c1.5-0.2,2.8-0.5,3.8-0.7l0.3,0.9c-1.2,0.3-2.5,0.6-4.1,0.8v1.8c0,0.4,0.2,0.7,0.6,0.7h1.8c0.3,0,0.5-0.1,0.6-0.2
				c0.1-0.2,0.2-0.7,0.3-1.6l0.9,0.3c-0.1,1.1-0.3,1.8-0.5,2.1c-0.2,0.2-0.6,0.3-1.1,0.3h-2.3V6.7z M26,11.8c0,0.3,0.2,0.4,0.5,0.4
				h1.9c0.3,0,0.5-0.1,0.6-0.2c0.2-0.2,0.3-0.7,0.3-1.6l0.9,0.3c-0.1,1.1-0.3,1.8-0.5,2.1c-0.2,0.2-0.6,0.3-1.1,0.3h-2.4
				c-0.8,0-1.2-0.4-1.2-1.1V7.2h1v1.7c1.4-0.1,2.6-0.4,3.8-0.7l0.3,0.9c-1.3,0.4-2.6,0.6-4.1,0.7C26,9.8,26,11.8,26,11.8z"/>
			<path class="st3" d="M35.9,7.3c-0.4,0.2-0.9,0.4-1.3,0.6v4c0,0.8-0.4,1.2-1.2,1.2h-1.3l-0.2-1c0.4,0,0.8,0.1,1.1,0.1
				c0.4,0,0.6-0.2,0.6-0.5V8.3c-0.6,0.2-1.2,0.4-1.8,0.6l-0.3-1c0.7-0.2,1.4-0.3,2-0.6V4.1h-1.8v-1h1.8V0.5h1v2.6H36v1h-1.4v2.8
				c0.4-0.2,0.9-0.4,1.3-0.6C35.9,6.3,35.9,7.3,35.9,7.3z M38.2,13.3h-1V5.1c-0.3,0.5-0.7,1-1.1,1.5l-0.3-1.1c1.1-1.5,1.9-3.2,2.4-5
				l1,0.2c-0.2,0.8-0.5,1.5-0.8,2.2h2.5c-0.2-0.7-0.5-1.5-0.8-2.2l1-0.3c0.3,0.8,0.6,1.6,0.8,2.3L41.4,3h2.7v1h-2.4v1.9h2.2v1h-2.2
				v1.9h2.2v0.9h-2.2v2.1h2.6v1h-6.1V13.3z M38.2,4v1.9h2.5V4H38.2z M38.2,8.7h2.5V6.8h-2.5V8.7z M38.2,11.7h2.5V9.6h-2.5V11.7z"/>
			<path class="st3" d="M50.1,4.5c0.2-0.4,0.3-0.7,0.5-1.1l1,0.2c-0.1,0.3-0.2,0.6-0.4,0.9H58v0.9h-7.3c-0.4,0.7-0.9,1.4-1.5,2.1
				v5.9h-1v-5C47.6,9,47,9.5,46.3,10l-0.6-0.8c1.7-1.1,3-2.4,3.9-3.8h-3.4V4.5H50.1z M49.1,1.6v-1h1v1h3.7v-1h1v1H58v0.9h-3.2v1h-1
				v-1h-3.7v1h-1v-1h-3.2V1.6H49.1z M55.8,7.4h-4.6V6.5h6v0.7c-0.6,0.5-1.4,1.1-2.2,1.6v0.6h3.1v1H55v1.9c0,0.8-0.4,1.1-1.1,1.1
				h-1.6l-0.3-1c0.6,0,1.2,0.1,1.5,0.1S54,12.3,54,12v-1.6h-3.9v-1H54V8.5C54.6,8.2,55.1,7.8,55.8,7.4z"/>
		</g>
	</g>
</g>
<g id="RectEndPoint53" transform="translate(489,602)">
	<rect x="5" y="-7" class="st7" width="138" height="50"/>
	<rect x="3" y="-9" class="st8" width="138" height="50"/>
	<g transform="translate(41,9)">
		<g class="st2">
			<path class="st3" d="M10.7,2h4.9v1h-2.4c-0.2,0.7-0.4,1.5-0.7,2.1h3.4v1H5.8v2.1c-0.1,2.2-0.6,3.9-1.5,5.3l-0.8-0.7
				c0.8-1.1,1.2-2.6,1.3-4.6v-3h2.9L7.1,3H4.5V2h5.1C9.5,1.5,9.2,1,9,0.6l1-0.2C10.3,0.8,10.5,1.4,10.7,2z M11.5,5.1
				C11.8,4.4,12,3.7,12.2,3H8.1l0.6,2.1H11.5z"/>
			<path class="st3" d="M23.2,13.2h-1v-0.7h-3v0.7h-1V7.1h4.9v6.1H23.2z M22.2,11.5V8.1h-3v3.4H22.2z M27.9,1.1v4.6h-7.7V1.1H27.9z
				 M26.8,2.1h-5.7v2.7h5.7V2.1z M29.7,13.2h-1v-0.7h-3.1v0.7h-1V7.1h5.1V13.2z M28.7,11.5V8.1h-3.1v3.4H28.7z"/>
			<path class="st3" d="M35.9,7.3c-0.4,0.2-0.9,0.4-1.3,0.6v4c0,0.8-0.4,1.2-1.2,1.2h-1.3l-0.2-1c0.4,0,0.8,0.1,1.1,0.1
				c0.4,0,0.6-0.2,0.6-0.5V8.3c-0.6,0.2-1.2,0.4-1.8,0.6l-0.3-1c0.7-0.2,1.4-0.3,2-0.6V4.1h-1.8v-1h1.8V0.5h1v2.6H36v1h-1.4v2.8
				c0.4-0.2,0.9-0.4,1.3-0.6C35.9,6.3,35.9,7.3,35.9,7.3z M38.2,13.3h-1V5.1c-0.3,0.5-0.7,1-1.1,1.5l-0.3-1.1c1.1-1.5,1.9-3.2,2.4-5
				l1,0.2c-0.2,0.8-0.5,1.5-0.8,2.2h2.5c-0.2-0.7-0.5-1.5-0.8-2.2l1-0.3c0.3,0.8,0.6,1.6,0.8,2.3L41.4,3h2.7v1h-2.4v1.9h2.2v1h-2.2
				v1.9h2.2v0.9h-2.2v2.1h2.6v1h-6.1V13.3z M38.2,4v1.9h2.5V4H38.2z M38.2,8.7h2.5V6.8h-2.5V8.7z M38.2,11.7h2.5V9.6h-2.5V11.7z"/>
			<path class="st3" d="M50.1,4.5c0.2-0.4,0.3-0.7,0.5-1.1l1,0.2c-0.1,0.3-0.2,0.6-0.4,0.9H58v0.9h-7.3c-0.4,0.7-0.9,1.4-1.5,2.1
				v5.9h-1v-5C47.6,9,47,9.5,46.3,10l-0.6-0.8c1.7-1.1,3-2.4,3.9-3.8h-3.4V4.5H50.1z M49.1,1.6v-1h1v1h3.7v-1h1v1H58v0.9h-3.2v1h-1
				v-1h-3.7v1h-1v-1h-3.2V1.6H49.1z M55.8,7.4h-4.6V6.5h6v0.7c-0.6,0.5-1.4,1.1-2.2,1.6v0.6h3.1v1H55v1.9c0,0.8-0.4,1.1-1.1,1.1
				h-1.6l-0.3-1c0.6,0,1.2,0.1,1.5,0.1S54,12.3,54,12v-1.6h-3.9v-1H54V8.5C54.6,8.2,55.1,7.8,55.8,7.4z"/>
		</g>
	</g>
</g>
<g id="RectEndPoint54" transform="translate(636,602)">
	<rect x="5" y="-7" class="st7" width="138" height="50"/>
	<rect x="3" y="-9" class="st8" width="138" height="50"/>
	<g transform="translate(41,9)">
		<g class="st2">
			<path class="st3" d="M4.5,3.8L3.9,3.1c0.7-0.6,1.2-1.5,1.7-2.6l0.9,0.2C6.3,1,6.2,1.3,6.1,1.6h4v0.9H8C8,3,7.9,3.4,7.9,3.9h2.6
				v0.9H7.6c0,0.1-0.1,0.3-0.1,0.4c1.1,0.5,2,1.1,2.7,1.6L9.5,7.5C8.9,7,8.2,6.4,7.2,5.9c-0.6,1-1.5,1.8-2.9,2.4L3.6,7.5
				C5.1,6.8,6,6,6.5,5.1l0.1-0.3H3.8v-1h3.1C7,3.4,7,3,7,2.5H5.6C5.3,3,4.9,3.4,4.5,3.8z M14.7,13.4h-1v-0.6h-7v0.6h-1V7.6h9V13.4z
				 M13.7,9.8V8.5h-7v1.3H13.7z M13.7,11.9v-1.2h-7v1.2H13.7z M15.7,1.5v5.1h-4.6V1.5H15.7z M14.7,2.4H12v3.3h2.6L14.7,2.4L14.7,2.4
				z"/>
			<path class="st3" d="M24.7,4.5l-0.8,0.6c-0.2-0.3-0.3-0.6-0.5-0.9C21.8,4.4,20,4.6,18,4.7l-0.3-0.8c0.2-0.1,0.3-0.2,0.5-0.3
				c0.9-0.9,1.6-1.9,2.2-3l1,0.3c-0.6,1.2-1.3,2.2-2.1,2.9c1.2-0.1,2.4-0.2,3.7-0.4C22.7,3,22.4,2.5,22,2l0.8-0.5
				C23.5,2.7,24.2,3.7,24.7,4.5z M19.5,13.4h-1V5.5h5.2v6.6c0,0.8-0.4,1.2-1.2,1.2h-1.1l-0.3-1h1.1c0.3,0,0.5-0.2,0.5-0.5v-1.1h-3.2
				V13.4z M22.7,6.4h-3.2v1.4h3.2V6.4z M19.5,9.9h3.2V8.6h-3.2V9.9z M26.3,6.7c-0.9,0-1.3-0.5-1.3-1.4V0.6h1v1.8
				c1.5-0.2,2.8-0.5,3.8-0.7l0.3,0.9c-1.2,0.3-2.5,0.6-4.1,0.8v1.8c0,0.4,0.2,0.7,0.6,0.7h1.8c0.3,0,0.5-0.1,0.6-0.2
				c0.1-0.2,0.2-0.7,0.3-1.6l0.9,0.3c-0.1,1.1-0.3,1.8-0.5,2.1c-0.2,0.2-0.6,0.3-1.1,0.3h-2.3V6.7z M26,11.8c0,0.3,0.2,0.4,0.5,0.4
				h1.9c0.3,0,0.5-0.1,0.6-0.2c0.2-0.2,0.3-0.7,0.3-1.6l0.9,0.3c-0.1,1.1-0.3,1.8-0.5,2.1c-0.2,0.2-0.6,0.3-1.1,0.3h-2.4
				c-0.8,0-1.2-0.4-1.2-1.1V7.2h1v1.7c1.4-0.1,2.6-0.4,3.8-0.7l0.3,0.9c-1.3,0.4-2.6,0.6-4.1,0.7C26,9.8,26,11.8,26,11.8z"/>
			<path class="st3" d="M36.4,7.6C37,6.4,37.5,5,37.7,3.5h-2.8c-0.7,1.6-1.6,2.9-2.7,3.9l-0.7-0.9c1.6-1.5,2.7-3.5,3.2-6l1,0.2
				c-0.1,0.6-0.3,1.2-0.5,1.8h3.4v0.9c-0.5,4.2-2.5,7.5-6.2,9.6l-0.7-0.9c1.8-1,3.1-2.3,4.1-3.8c-0.7-0.6-1.5-1.1-2.2-1.5L34.1,6
				C35,6.6,35.7,7.1,36.4,7.6z M40.9,0.6v4.2c1.2,0.9,2.3,1.8,3.5,2.9l-0.6,0.9c-1.1-1.1-2.1-2.1-2.9-2.7v7.5h-1V0.6H40.9z"/>
			<path class="st3" d="M47.1,12.3h-1V1.7h3.6V12h-1v-0.8h-1.6V12.3z M48.7,2.6h-1.6v7.6h1.6V2.6z M51.9,13.4l-0.2-1
				c0.5,0,0.9,0.1,1.4,0.1s0.7-0.2,0.7-0.6V8.2h-3.5v-1h3.5v-5c-1,0.1-2,0.2-3,0.3l-0.3-0.9c2.8-0.2,5.2-0.5,7.1-1L58,1.5
				c-1,0.3-2.1,0.5-3.2,0.7v5.1h3.6v1h-3.6v3.9c0,0.8-0.5,1.2-1.4,1.2C53.4,13.4,51.9,13.4,51.9,13.4z M52.7,6.4l-0.9,0.2
				c-0.3-1-0.6-2-1-2.9l0.9-0.3C52.1,4.3,52.4,5.2,52.7,6.4z M58,3.2c-0.3,1.3-0.7,2.4-1.2,3.4l-0.9-0.3c0.4-0.9,0.9-2,1.2-3.3
				L58,3.2z"/>
		</g>
	</g>
</g>
<g id="RectEndPoint55" transform="translate(636,660)">
	<rect x="5" y="-7" class="st7" width="138" height="50"/>
	<rect x="3" y="-9" class="st8" width="138" height="50"/>
	<g transform="translate(41,9)">
		<g class="st2">
			<path class="st3" d="M5.4,4.4V0.9h1v3.6h1.8v1H6.4v4.9C7,10.1,7.6,9.9,8.2,9.7v1.1c-1.4,0.5-2.8,1-4.4,1.3L3.5,11
				c0.6-0.1,1.2-0.3,1.8-0.4V5.4H3.7v-1H5.4z M8.8,6.4v-1c1.7-1,3.2-2,4.7-3.1H9V1.4h6v0.9c-1.3,1.1-2.8,2.2-4.4,3.2H16
				c-0.1,3.3-0.2,5.4-0.5,6.3c-0.2,1-0.9,1.4-1.9,1.5c-0.5,0-0.9,0-1.3,0l-0.3-1c0.5,0,1,0.1,1.5,0.1s0.9-0.3,1.1-0.8
				c0.2-0.4,0.3-2.2,0.4-5.1h-1c-0.3,1.7-0.8,3-1.5,4c-0.7,1.1-1.8,2-3.3,2.8l-0.6-0.8c1.3-0.7,2.3-1.6,3-2.5c0.6-1,1.1-2.2,1.4-3.6
				h-1.1c-0.5,1.8-1.4,3.1-2.7,4.1L8.5,9.7c1.1-0.9,1.9-2,2.4-3.3C10.9,6.4,8.8,6.4,8.8,6.4z"/>
			<path class="st3" d="M21.8,11.3c-0.9,0.8-2.1,1.5-3.6,2l-0.6-0.8c1.5-0.5,2.7-1.1,3.5-1.8L21.8,11.3z M28.6,1v4h-4.3
				c0.1,0.3,0.2,0.5,0.4,0.8h5.5v0.8H17.8V5.8h5.7c-0.1-0.3-0.3-0.6-0.4-0.8h-3.7V1H28.6z M28.5,7.4v2.8h-3.8v2
				c0,0.8-0.4,1.2-1.1,1.2h-1.7l-0.2-0.9c0.5,0,1.1,0.1,1.5,0.1c0.3,0,0.4-0.2,0.4-0.5v-1.8h-4V7.4H28.5z M27.6,2.6V1.8h-7.3v0.8
				H27.6z M27.6,3.3h-7.3v0.8h7.3C27.6,4.1,27.6,3.3,27.6,3.3z M27.5,8.2h-6.9v1.2h6.9V8.2z M30.3,12.3L30,13.2
				c-1.3-0.7-2.6-1.3-4-1.7l0.4-0.8C27.8,11.1,29.1,11.6,30.3,12.3z"/>
			<path class="st3" d="M37.2,1.1V2h-0.9v7.7c0.3-0.1,0.6-0.2,0.9-0.3v1c-0.3,0.1-0.6,0.2-0.9,0.3v2.8h-1V11
				c-1.1,0.3-2.3,0.5-3.5,0.8l-0.3-1l0.9-0.1V2.1h-0.9v-1H37.2z M35.3,4.1v-2h-1.9v2.1L35.3,4.1L35.3,4.1z M35.3,7V5h-1.9v2H35.3z
				 M35.3,10V8h-1.9v2.5C34.1,10.3,34.7,10.2,35.3,10z M40.9,3.6c0.5-0.9,1-1.9,1.4-3l0.9,0.3c-0.4,1.1-0.8,1.9-1.3,2.7H44v1h-2.9V5
				c0,0.7,0,1.4-0.1,2h3.2v1h-2.9c0.3,1.5,1.4,3.1,3.1,4.7l-0.7,0.7c-1.6-1.6-2.6-3.2-3-4.7c-0.5,2.2-1.6,3.8-3.2,4.8l-0.6-0.8
				c1.6-1,2.6-2.5,3-4.7h-2.7V7H40c0.1-0.6,0.1-1.1,0.1-1.8V4.6h-2.7v-1H40.9z M40.1,2.9l-0.8,0.5C39,2.7,38.5,2,38,1.2l0.8-0.5
				C39.4,1.5,39.8,2.2,40.1,2.9z"/>
			<path class="st3" d="M51.9,5.3v1h-3.2c-0.6,2.1-1.1,3.6-1.5,4.6c1.1-0.2,2.2-0.5,3.3-1c-0.4-0.8-0.7-1.4-1.1-2.1l0.9-0.4
				c0.7,1.2,1.3,2.5,1.9,3.9l-0.9,0.4c-0.1-0.4-0.3-0.7-0.4-1c-1.5,0.5-3.1,1-4.8,1.3l-0.2-1c0.1,0,0.2-0.1,0.2-0.1
				c0.4-0.6,1-2.1,1.7-4.7h-1.9v-1h6V5.3z M51.3,1.5v1h-5.1v-1H51.3z M55,0.6v2.8h3c0,4.4-0.1,7.1-0.2,8.1c-0.1,1.1-0.8,1.7-2,1.7
				c-0.2,0-0.6,0-1.2,0l-0.2-0.9c0.5,0,1,0.1,1.3,0.1c0.7,0,1.1-0.4,1.2-1.2c0.1-0.7,0.1-3,0.2-6.8H55v0.2c0,4-1,7-2.9,8.9l-0.8-0.7
				c1.8-1.7,2.6-4.4,2.7-8.2V4.4h-1.9v-1H54V0.6H55z"/>
		</g>
	</g>
</g>
<g id="Textbasic40" transform="translate(594,251.5)">
	<rect x="4" y="-9" class="st9" width="80" height="20"/>
	<g transform="translate(0 0)">
		<g class="st2">
			<path class="st10" d="M5.3,6.2L4.7,5.6c0.5-1.1,0.7-2.5,0.7-4.2v-5.8h3.5V5c0,0.7-0.3,1.1-1,1.1h-1L6.7,5.4c0.3,0,0.6,0,0.9,0
				s0.5-0.2,0.5-0.6V2.1H6.2C6.1,3.8,5.8,5.1,5.3,6.2z M8.1-3.5H6.2v2h1.9C8.1-1.5,8.1-3.5,8.1-3.5z M6.2,1.3h1.9v-2H6.2V1.3z
				 M10.7,6.2H9.9V-4.3h4.9c0,1.5-0.1,2.5-0.2,3c-0.1,0.5-0.6,0.7-1.3,0.7h-1L12-1.3c0.2,0,0.5,0,0.8,0s0.5,0,0.6-0.1
				c0.1,0,0.3-0.2,0.3-0.3c0.1-0.3,0.1-0.9,0.2-1.8h-3.2v3.6h4.1v0.7C14.6,2,14.2,3.1,13.6,4c0.5,0.5,1.2,1,1.9,1.4l-0.4,0.7
				c-0.8-0.4-1.4-0.9-2-1.5c-0.5,0.6-1.1,1.1-1.9,1.5l-0.5-0.7C11.4,5,12,4.6,12.4,4c-0.8-0.9-1.3-2-1.5-3.2h-0.3L10.7,6.2L10.7,6.2
				z M13.1,3.4c0.4-0.7,0.8-1.5,1-2.5h-2.3C12,1.8,12.4,2.6,13.1,3.4z"/>
			<path class="st10" d="M21-4.7c-0.1,0.3-0.3,0.6-0.5,0.9h5.2v0.7C25-2.2,24.1-1.5,23-0.8c1.4,0.6,2.9,0.9,4.5,1.1l-0.4,0.8
				c-1.9-0.2-3.6-0.7-5.1-1.4c-1.5,0.7-3.2,1.2-5.1,1.5l-0.4-0.8c1.7-0.2,3.3-0.6,4.6-1.2c-0.7-0.4-1.3-0.9-1.9-1.4
				c-0.5,0.4-0.9,0.8-1.5,1.1l-0.5-0.7c1.4-0.8,2.4-1.8,2.9-3L21-4.7z M22.1,0.5c0,0.5,0,0.9-0.1,1.4h4.2c0,2-0.2,3.2-0.6,3.6
				c-0.3,0.4-0.9,0.6-1.8,0.6c-0.4,0-0.9,0-1.4,0l-0.2-0.8l1.4,0.1c0.7,0,1.2-0.2,1.4-0.5c0.2-0.3,0.3-1,0.3-2.2h-3.6
				c-0.1,0.3-0.2,0.6-0.4,0.9c-0.6,1.1-2,2-4.2,2.7l-0.6-0.7c2-0.6,3.3-1.3,3.9-2.2c0.1-0.2,0.3-0.4,0.4-0.7h-3.6V1.9H21
				c0.1-0.4,0.1-0.9,0.1-1.4H22.1z M24.5-3H20l-0.2,0.2c0.7,0.6,1.4,1.1,2.2,1.5C23-1.8,23.8-2.3,24.5-3z"/>
			<path class="st10" d="M34.4-4.3v0.8h-5.7v-0.8H34.4z M32.4,6.1l-0.2-0.8H33c0.2,0,0.3-0.1,0.3-0.3V1.2h-3.8v5h-0.8V0.5H34v4.7
				c0,0.6-0.3,0.9-0.8,0.9H32.4z M33.7-2.8v2.6h-4.3v-2.6H33.7z M31.6,3.2c0.2-0.5,0.4-1,0.6-1.6l0.6,0.2c-0.2,0.5-0.4,1-0.6,1.4H33
				v0.7h-1.2v2.2h-0.7V3.9H30V3.2H31.6z M32.9-2.1h-2.8v1.2h2.8V-2.1z M31.3,3l-0.6,0.1c-0.1-0.4-0.3-0.9-0.5-1.3l0.6-0.2
				C31,2.1,31.1,2.5,31.3,3z M36.4-2.7v-2.1h0.8v2.1H39v4.8h-1.7v2.7c0.4-0.1,0.8-0.2,1.2-0.3C38.4,4,38.2,3.5,38,3l0.7-0.2
				c0.3,0.9,0.6,1.9,0.9,3L38.9,6c-0.1-0.3-0.1-0.6-0.2-0.8c-1.2,0.3-2.5,0.6-3.8,0.7l-0.2-0.8C35.3,5,36,4.9,36.6,4.8V2.1h-1.7
				v-4.8C34.9-2.7,36.4-2.7,36.4-2.7z M36.5-1.9h-1v3.3h1V-1.9z M38.2-1.9h-1v3.3h1V-1.9z"/>
			<path class="st10" d="M43.5-4.3l0.7-0.5c1.1,0.7,2,2.1,2.7,4c1.1,2.9,2.6,4.9,4.5,6.1L50.9,6c-1.9-1.2-3.5-3.4-4.8-6.5
				c0-0.2-0.1-0.4-0.2-0.5c-0.8,3.1-2.4,5.4-5,7l-0.5-0.7c2.6-1.7,4.2-4.1,5-7.3C44.9-3,44.3-3.8,43.5-4.3z"/>
		</g>
	</g>
</g>
<g id="Textbasic58" transform="translate(191,617)">
	<rect x="4" y="-9" class="st9" width="80" height="20"/>
	<g transform="translate(0 0)">
		<g class="st2">
			<path class="st10" d="M4.7,1L4.4,0.1c1.2-1.5,2-3.1,2.6-5l0.8,0.4C7.5-3.6,7.1-2.7,6.7-1.9v8.2H5.8v-6.7C5.5,0,5.1,0.5,4.7,1z
				 M11.4-3.2c-0.2-0.5-0.4-0.9-0.6-1.4l0.8-0.2c0.3,0.5,0.4,1,0.6,1.5l-0.5,0.2h3.8v0.8H7.7v-0.8h3.7V-3.2z M14.7,6.2h-0.8V5.6H9.4
				v0.6H8.6V2h6.1C14.7,2,14.7,6.2,14.7,6.2z M14.5-1.4v0.8H8.8v-0.8H14.5z M14.5,0.3v0.8H8.8V0.3H14.5z M13.9,4.7V2.8H9.4v1.9H13.9
				z"/>
			<path class="st10" d="M18.5,2.9C18.2,4,17.8,5,17.3,5.8l-0.7-0.5c0.5-0.8,0.9-1.6,1.1-2.6L18.5,2.9z M20.9-3.9
				c0.2-0.3,0.3-0.6,0.4-1l0.9,0.1C22.1-4.5,22-4.2,21.8-4h4v6h-7.5v-5.9H20.9z M25-2.2v-1h-5.8v1H25z M25-0.5v-1h-5.8v1H25z
				 M25,0.2h-5.8v1H25V0.2z M20.4,6c-0.7,0-1-0.3-1-1V2.7h0.9v2.1c0,0.3,0.1,0.4,0.4,0.4h2.7c0.3,0,0.5-0.1,0.6-0.2
				c0.1-0.2,0.3-0.6,0.3-1.4L25,3.9c-0.1,1-0.3,1.6-0.5,1.8S23.9,6,23.5,6H20.4z M23.4,3.9l-0.7,0.5c-0.4-0.5-0.8-1.1-1.5-1.7
				l0.6-0.4C22.5,2.9,23,3.5,23.4,3.9z M27.5,5.1l-0.7,0.5C26.4,4.8,25.8,4,25,3l0.7-0.4C26.5,3.5,27.1,4.4,27.5,5.1z"/>
		</g>
	</g>
</g>
<g id="Textbasic59" transform="translate(424,617)">
	<rect x="6" y="-9" class="st9" width="80" height="20"/>
	<g transform="translate(0 0)">
		<g class="st2">
			<path class="st10" d="M7.3-1.8L6.6-2.3C7.4-3.1,7.9-4,8.3-5l0.8,0.2C9-4.4,8.8-4.1,8.7-3.8h3.1V-3h-2c0.3,0.4,0.6,0.8,0.7,1.2
				L9.7-1.5C9.5-2.1,9.2-2.6,8.9-3H8.3C8-2.6,7.7-2.2,7.3-1.8z M11.6-1.2V-2h0.9v0.8h4.8v0.8h-4.8v0.9h3.9v2.3c0,0.6-0.3,0.9-1,0.9
				h-0.8l-0.2-0.8h0.8c0.2,0,0.3-0.1,0.3-0.4V1.3h-3.1v1.1c1.3,1.2,3,2.2,5.1,2.9L17.1,6c-1.8-0.7-3.3-1.6-4.6-2.8v3.1h-0.9v-3
				c-1.3,1.1-2.7,2-4.4,2.7L6.7,5.3c1.9-0.7,3.5-1.7,4.8-3v-1H8.7v2.4H7.8V0.5h3.7v-0.9H6.7v-0.8H11.6z M12.6-2l-0.7-0.5
				c0.5-0.8,0.9-1.6,1.2-2.5l0.8,0.2c-0.1,0.3-0.2,0.6-0.3,0.9h3.6V-3H15c0.3,0.4,0.5,0.8,0.7,1.2l-0.8,0.3c-0.2-0.5-0.5-1-0.8-1.5
				h-0.8C13.1-2.7,12.9-2.3,12.6-2z"/>
			<path class="st10" d="M19.7,5.2h-0.8v-9.1h4v5c1.1-0.4,2-0.9,2.8-1.5c-0.5-0.5-0.9-1-1.3-1.5c-0.3,0.4-0.6,0.8-0.9,1.1l-0.6-0.7
				c0.8-0.8,1.5-1.8,2.1-3.1l0.9,0.2c-0.1,0.3-0.3,0.6-0.4,0.9h3.2V-3c-0.4,1-1,1.8-1.8,2.6c0.7,0.5,1.6,1,2.7,1.4l-0.4,0.8
				c-1.1-0.5-2.1-1-2.9-1.7c-0.8,0.7-1.8,1.2-3,1.7l-0.4-0.6v4h-0.7V4.6h-2.5C19.7,4.6,19.7,5.2,19.7,5.2z M19.7-3.2v3.1h0.9v-3.1
				H19.7z M19.7,3.9h0.9V0.7h-0.9V3.9z M22.2-3.2h-0.9v3.1h0.9V-3.2z M22.2,0.7h-0.9v3.2h0.9V0.7z M28.6,6.1h-0.8V5.6h-3v0.5H24V1.7
				h4.7v4.4H28.6z M27.8,4.8V2.5h-3v2.3H27.8z M27.7-2.9H25c0,0.1-0.1,0.1-0.1,0.2c0.4,0.6,0.8,1.2,1.4,1.7
				C26.9-1.6,27.3-2.2,27.7-2.9z"/>
		</g>
	</g>
</g>
<g id="assistantgroup" transform="translate(0,0)">
</g>
<g>
	<path class="st3" d="M503.2,572.9h-1V572h-7.4v0.9h-1v-11.2h3c0.3-0.6,0.5-1.1,0.7-1.7l1,0.1c-0.2,0.6-0.4,1.1-0.7,1.6h5.4V572.9z
		 M502.2,564.8v-2.1h-7.4v2.1H502.2z M502.2,567.8v-2.1h-7.4v2.1H502.2z M502.2,571.1v-2.3h-7.4v2.3H502.2z"/>
	<path class="st3" d="M512.4,564.8v1h-3.2c-0.6,2.1-1.1,3.6-1.5,4.6c1.1-0.2,2.2-0.5,3.3-1c-0.4-0.8-0.7-1.4-1.1-2.1l0.9-0.4
		c0.7,1.2,1.3,2.5,1.9,3.9l-0.9,0.4c-0.1-0.4-0.3-0.7-0.4-1c-1.5,0.5-3.1,1-4.8,1.3l-0.2-1c0.1,0,0.2-0.1,0.2-0.1
		c0.4-0.6,1-2.1,1.7-4.7h-1.9v-1H512.4z M511.8,561v1h-5.1v-1H511.8z M515.5,560.1v2.8h3.1c0,4.4-0.1,7.1-0.2,8.1
		c-0.1,1.1-0.8,1.7-2,1.7c-0.2,0-0.6,0-1.2,0l-0.2-0.9c0.5,0,1,0.1,1.3,0.1c0.7,0,1.1-0.4,1.2-1.2c0.1-0.7,0.1-3,0.2-6.8h-2.1v0.2
		c0,4-1,7-2.9,8.9l-0.8-0.7c1.8-1.7,2.6-4.4,2.7-8.2v-0.2h-1.9v-1h1.9v-2.8H515.5z"/>
	<path class="st3" d="M520.7,572.9l-0.7-0.7c0.5-1,0.8-2.3,0.8-3.8v-4.3c-0.1,0.1-0.1,0.1-0.2,0.2l-0.6-0.7c0.9-0.9,1.7-2.1,2.2-3.6
		l0.9,0.2c-0.1,0.3-0.2,0.6-0.4,0.9h2.6v0.7c-0.3,0.6-0.6,1.1-0.9,1.6h1.7v8.4c0,0.7-0.3,1-1,1h-0.7l-0.2-0.8c0.3,0,0.5,0,0.7,0
		c0.2,0,0.4-0.2,0.4-0.5v-1.9h-1.4v3.1H523v-3.1h-1.4C521.5,570.9,521.2,572,520.7,572.9z M523.4,563.4c0.3-0.4,0.6-0.9,0.9-1.5
		h-1.9c-0.3,0.5-0.6,1-1,1.5H523.4z M521.7,568.4c0,0.1,0,0.2,0,0.3h1.3v-1.8h-1.3V568.4z M521.7,564.3v1.7h1.3v-1.7H521.7z
		 M525.3,564.3h-1.4v1.7h1.4V564.3z M525.3,566.9h-1.4v1.8h1.4V566.9z M529.2,562.5v-2.4h1v2.4h2.3v5.6h-2.3v3.1
		c0.5-0.1,1-0.2,1.4-0.3c-0.2-0.6-0.4-1.2-0.6-1.7l0.8-0.3c0.4,1.1,0.8,2.3,1.1,3.7l-0.9,0.2c-0.1-0.4-0.2-0.7-0.3-1.1
		c-1.5,0.4-3.2,0.7-4.9,1l-0.2-0.9c0.9-0.1,1.7-0.2,2.5-0.4v-3.2h-2.2v-5.6H529.2z M529.2,563.4h-1.3v3.8h1.3V563.4z M531.5,563.4
		h-1.4v3.8h1.4V563.4z"/>
	<path class="st3" d="M541.1,572.6c-1,0-1.7-0.1-2.3-0.3c-0.6-0.2-1.1-0.5-1.5-1c-0.2-0.2-0.4-0.3-0.6-0.3c-0.3,0-0.9,0.6-1.7,2
		l-0.8-0.7c0.8-1.2,1.4-1.9,2-2.2v-4.2h-2v-1h3v5.3c0.1,0.1,0.2,0.2,0.4,0.3c0.4,0.4,0.7,0.7,1.1,0.9c0.4,0.2,1.1,0.3,2,0.3
		c0.8,0,1.7,0,2.9,0c0.6,0,1.2,0,1.9,0c0.6,0,1.1,0,1.5-0.1l-0.3,1h-3C542.9,572.6,542.1,572.6,541.1,572.6z M537.6,562.4l-0.7,0.7
		c-0.6-0.7-1.4-1.4-2.4-2.2l0.7-0.7C536.2,561,537,561.7,537.6,562.4z M541.6,563.2c0.1-0.7,0.1-1.5,0.1-2.3v-0.9h1v0.6
		c0,0.9-0.1,1.7-0.1,2.5h3.6v1h-3.7c-0.1,0.4-0.1,0.7-0.2,1.1c1.3,1.1,2.7,2.6,4.3,4.6l-0.7,0.7c-1.3-1.7-2.6-3.1-3.9-4.3
		c-0.7,1.9-1.7,3.3-3.2,4.3l-0.6-0.8c1.7-1.1,2.9-2.9,3.3-5.5h-3v-1H541.6z"/>
</g>
<g>
	<path d="M65.7,245.4h4.9v1h-2.4c-0.2,0.7-0.4,1.5-0.7,2.1h3.4v1H60.8v2.1c-0.1,2.2-0.6,3.9-1.5,5.3l-0.8-0.7
		c0.8-1.1,1.2-2.6,1.3-4.6v-3h2.9l-0.6-2.1h-2.6v-1h5.1c-0.2-0.5-0.4-1-0.7-1.4l1.1-0.2C65.3,244.2,65.5,244.8,65.7,245.4z
		 M66.5,248.5c0.3-0.7,0.5-1.4,0.7-2.1h-4.1l0.6,2.1H66.5z"/>
	<path d="M78.2,256.6h-1v-0.7h-3v0.7h-1v-6.1h4.9V256.6z M77.2,254.9v-3.4h-3v3.4H77.2z M82.9,244.5v4.6h-7.7v-4.6H82.9z
		 M81.8,245.5h-5.7v2.7h5.7V245.5z M84.7,256.6h-1v-0.7h-3.1v0.7h-1v-6.1h5.1V256.6z M83.7,254.9v-3.4h-3.1v3.4H83.7z"/>
	<path d="M90.2,250.6c-0.1,0.3-0.2,0.5-0.3,0.8h2.9v0.8c-0.3,0.9-0.8,1.7-1.6,2.4c0.7,0.3,1.3,0.6,1.9,1l-0.5,0.8
		c-0.6-0.4-1.3-0.7-2.2-1.1c-0.9,0.6-2.1,1.2-3.5,1.6l-0.5-0.8c1.1-0.3,2.1-0.7,3-1.1c-0.6-0.3-1.3-0.5-1.9-0.8
		c0.4-0.6,0.7-1.2,1-1.8h-1.7v-0.9h2c0.1-0.3,0.2-0.6,0.3-0.9L90.2,250.6z M89.7,246.6V244h0.9v2.7h2.5v0.9h-2.5v0.2
		c0.8,0.4,1.5,0.8,2.3,1.3l-0.5,0.8c-0.7-0.6-1.3-1-1.8-1.3v1.8h-0.9v-2.7c-0.5,1.1-1.3,2.1-2.5,2.9l-0.5-0.8
		c1.1-0.6,1.8-1.3,2.3-2.1h-2v-0.9H89.7z M88.9,246l-0.7,0.3c-0.3-0.7-0.6-1.3-0.9-1.8l0.8-0.3C88.4,244.8,88.6,245.4,88.9,246z
		 M92,252.2h-2.4c-0.2,0.5-0.5,0.9-0.8,1.3c0.6,0.2,1.1,0.4,1.6,0.6C91.1,253.6,91.6,253,92,252.2z M93,244.5
		c-0.3,0.6-0.6,1.2-1.1,1.8l-0.7-0.4c0.4-0.6,0.8-1.2,1.1-1.8L93,244.5z M94.5,249.3c-0.3,0.6-0.5,1.2-0.8,1.7l-0.6-0.8
		c0.8-1.6,1.4-3.7,1.7-6.3l1,0.2c-0.1,0.7-0.2,1.4-0.3,2h3.7v1h-0.9c-0.1,2.3-0.5,4.3-1.3,6c0.7,1.3,1.6,2.2,2.6,2.9l-0.5,0.8
		c-1-0.7-1.8-1.7-2.5-2.8c-0.7,1.1-1.5,2.1-2.6,2.8l-0.5-0.8c1.1-0.8,1.9-1.7,2.6-2.9C95.4,252,94.9,250.7,94.5,249.3z M95,247.8
		c0.4,1.6,0.8,3.1,1.4,4.2c0.5-1.4,0.8-3.1,0.9-5h-2.1L95,247.8z"/>
	<path d="M101.1,256.7l-0.2-1c0.4,0,0.7,0.1,1.1,0.1c0.4,0,0.5-0.2,0.5-0.6v-3.4c-0.6,0.2-1.1,0.4-1.7,0.6l-0.3-1
		c0.6-0.2,1.3-0.4,1.9-0.6v-3.2h-1.7v-1h1.7V244h1v2.6h1.3v1h-1.3v2.8c0.4-0.2,0.9-0.4,1.3-0.6v1c-0.4,0.2-0.9,0.4-1.3,0.6v4.1
		c0,0.8-0.4,1.2-1.2,1.2H101.1z M104.8,256.8l-0.8-0.7c1-1.8,1.5-4.3,1.5-7.2v-4.4h7.4v3.4h-2.6v1.7h3v0.9h-3v1.7h2.4v4.6h-0.9v-0.7
		h-3.8v0.7H107v-4.6h2.3v-1.7h-2.9C106.3,252.9,105.8,255,104.8,256.8z M106.6,247.9v1c0,0.2,0,0.4,0,0.7h2.8v-1.7H106.6z
		 M106.6,245.5v1.6h5.4v-1.6H106.6z M111.7,255.2v-2.1h-3.8v2.1H111.7z"/>
</g>
</svg>
