<?xml version="1.0" encoding="UTF-8"?>
<svg width="820px" height="190px" viewBox="0 0 820 190" version="1.1" xmlns="http://www.w3.org/2000/svg" xmlns:xlink="http://www.w3.org/1999/xlink">
    <!-- Generator: Sketch 52.2 (67145) - http://www.bohemiancoding.com/sketch -->
    <title>画板</title>
    <desc>Created with Sketch.</desc>
    <defs>
        <linearGradient x1="100%" y1="128.014974%" x2="0%" y2="-21.983841%" id="linearGradient-1">
            <stop stop-color="#0063FF" offset="0%"></stop>
            <stop stop-color="#00C8DE" offset="100%"></stop>
        </linearGradient>
        <linearGradient x1="97.9392674%" y1="119.501174%" x2="2.48473682%" y2="-15.1529361%" id="linearGradient-2">
            <stop stop-color="#0063FF" offset="0%"></stop>
            <stop stop-color="#00C8DE" offset="100%"></stop>
        </linearGradient>
        <linearGradient x1="0%" y1="0%" x2="100%" y2="100%" id="linearGradient-3">
            <stop stop-color="#00C8DC" offset="0%"></stop>
            <stop stop-color="#006EFF" offset="100%"></stop>
        </linearGradient>
    </defs>
    <g id="画板" stroke="none" stroke-width="1" fill="none" fill-rule="evenodd">
        <g id="编组备份" transform="translate(680.000000, 42.000000)"></g>
        <g id="编组-2" transform="translate(347.000000, 31.000000)" fill-rule="nonzero">
            <path d="M102.3,84.3 L84,73.5 L84,51 L103.5,39.9 L121.9,50.5 L121.9,73.3 L102.3,84.3 Z M106.099091,63.5030253 C104.666364,63.1520494 103.2057,61.8652147 101.7171,59.6425213 C102.31007,59.0883037 102.871037,58.4879867 103.4,57.8415702 C102.250873,55.9547328 100.434535,52.7013103 99.7778912,50.5 L91.4721832,54.0308646 C91.3901027,54.0570706 91.3627426,54.1094828 91.4721832,54.5025739 C94.2629198,63.7533184 101.951126,71.1172255 111.773424,73.7902451 C112.047026,73.8426573 112.047026,73.8426573 112.101746,73.7902451 L115.106741,65.9574261 C113.592811,65.5381289 111.12942,64.3288383 107.716567,62.3295543 C106.626828,63.0962025 106.087669,63.4873595 106.099091,63.5030253 Z M64,38.6 L64,15.7 L82.4,4.9 L102.1,16.4 L102.1,38.3 L82.9,49.4 L64,38.6 Z M83.8854207,14.523428 L71.470428,31.5436292 L79.876134,31.5436292 L79.876134,42.0560074 L91.8415704,24.523428 L83.8854207,24.523428 L83.8854207,14.523428 Z M42,73.2 L23.4,83.9 L3.9,73.3 L3.9,50.5 L22.1,39.9 L41.9,51.2 L42,73.2 Z M32.4,64.2683062 C32.4,59.126349 28.490181,56.2133089 28.490181,56.2133089 C28.490181,56.2133089 28.0041483,56.7276906 27.032083,57.7564541 C27.4508444,55.2466831 24.9858004,52.8295241 19.6369507,50.5049769 C19.6369507,50.6373878 20.3184853,52.0726694 20.3184853,53.0919012 C20.3184853,54.111133 21.0248087,54.9435542 18.0313536,57.3931561 C15.0378984,59.842758 13.4414504,60.9580333 13.4007232,64.2462377 C13.3599959,67.5344421 15.0298144,71.0874683 20.8741793,72.4777829 C21.1567553,72.5208691 24.6007256,72.4998514 24.6007256,72.4998514 C24.6007256,72.4998514 31.3410907,71.9040023 32.4,64.2683062 Z M82,51.1 L82,73.5 L63.3,84.3 L44,73.3 L44,51 L62.9,40.2 L82,51.1 Z M58.4,64.027787 C57.1725013,65.1264281 56.4,66.7230004 56.4,68.5 C56.4,71.8137085 59.0862915,74.5 62.4,74.5 C65.7137085,74.5 68.4,71.8137085 68.4,68.5 C68.4,66.7230004 67.6274987,65.1264281 66.4,64.027787 L66.4,54.5 C66.4,52.290861 64.609139,50.5 62.4,50.5 C60.190861,50.5 58.4,52.290861 58.4,54.5 L58.4,64.027787 Z M62,38.4 L42.9,49.3 L23.9,38.2 L24,15.5 L43.2,4.8 L62.1,15.7 L62.1,38.4 L62,38.4 Z M42.9,38.5 C47.5944204,38.5 51.4,34.6198012 51.4,29.8333333 C51.4,26.6423548 48.5666667,21.5312437 42.9,14.5 C37.2333333,21.5312437 34.4,26.6423548 34.4,29.8333333 C34.4,34.6198012 38.2055796,38.5 42.9,38.5 Z" id="形状结合" fill="url(#linearGradient-1)" opacity="0.2"></path>
            <path d="M43.1,1.1 L20.9,13.8 L20.9,36.9 L20.9,37.5 L20.4,37.8 L0.9,49.1 L0.9,74.7 L23.1,87.5 L42.5,76.3 L43,76 L43.5,76.3 L63,87.5 L82.5,76.4 L83,76.1 L83.5,76.4 L102.3,87.7 L124.9,74.7 L124.9,49.1 L105.4,37.5 L105,37.2 L105,36.6 L105,14.6 L82.3,1.2 L63.3,12.2 L62.8,12.5 L62.3,12.2 L43.1,1.1 Z M43.1,-7.10542736e-15 L62.8,11.3 L82.3,0.1 L105.9,14.1 L105.9,36.7 L125.9,48.5 L125.9,75.4 L102.3,89 L83,77.4 L63.1,88.8 L43,77.3 L23.1,88.8 L5.68434189e-14,75.4 L5.68434189e-14,48.7 L20,37.1 L20,13.4 L43.1,-7.10542736e-15 Z M42.9,36 C39.5806312,36 36.9,33.1839833 36.9,29.7222222 C36.9,27.4453942 38.7726618,23.9648915 42.5061738,19.1919401 L42.9,18.6884695 L43.2938262,19.1919401 C47.0273382,23.9648915 48.9,27.4453942 48.9,29.7222222 C48.9,33.1839833 46.2193688,36 42.9,36 Z M47.9,29.7222222 C47.9,27.8179073 46.2368477,24.656032 42.9,20.3158369 C39.5631523,24.656032 37.9,27.8179073 37.9,29.7222222 C37.9,32.6424182 40.1442365,35 42.9,35 C45.6557635,35 47.9,32.6424182 47.9,29.7222222 Z M25.4809486,57.0978434 C25.956346,58.0788358 26.0828791,59.0050279 26.0233034,60.1310913 C26.1376688,59.9714758 26.2285735,59.8232376 26.2855317,59.7184169 L26.5537593,59.224796 L27.0129351,59.5484705 C27.3866248,59.8118856 27.9253697,60.3033718 28.4617469,61.0151623 C29.3588465,62.2056438 29.9,63.5971088 29.9,65.1714286 L29.8947137,65.243943 C29.5799188,67.3915618 28.5560408,68.9222521 27.0543266,69.9104967 C26.4132614,70.3323674 25.7291365,70.6253787 25.0449756,70.8136027 C24.6311997,70.9274392 24.3041425,70.9816323 24.1053268,70.9982604 L23.0018875,71.0905475 L23.662328,70.2017767 C24.0518405,69.6776003 24.4858009,68.5189794 24.4971665,68 C24.4971665,67.5407615 23.989512,66.6512414 23.38038,66.1140838 C22.6676887,65.4710394 22.1852524,64.3753259 22.1702886,63.5604128 C21.0710113,64.4051672 20.383747,65.3989968 20.383738,66.5680885 C20.3888118,67.3276238 20.6643582,68.1259769 21.139376,68.951361 C21.3162438,69.2586839 21.4738884,69.496836 21.7276647,69.8573897 C21.854496,70.0375859 21.8833268,70.0793757 21.9214187,70.1417712 C21.9647639,70.2127716 21.9922402,70.2672911 22.0117379,70.344053 C22.0958026,70.6750142 21.8440544,71.0385162 21.4041241,70.973512 C17.634511,70.1250894 15.8636837,67.9657152 15.9005376,65.1505977 C15.9283587,63.0254627 16.7892762,61.7937736 19.2293314,59.9046425 C20.0755334,59.249499 20.6754703,58.4596903 21.0617531,57.6048258 C21.3259278,57.0201931 21.4649913,56.4444778 21.4739338,56.1419107 C21.4775699,56.0226116 21.4533575,55.7970027 21.4061253,55.5017783 C21.3933718,55.422063 21.3791237,55.3381588 21.3632427,55.2486671 C21.3761069,55.3211588 21.2368404,54.5809473 21.2368404,54.5 L21.2368404,53.7538019 L21.9269788,54.0375636 C23.7024711,54.7675865 24.8568838,55.8100728 25.4809486,57.0978434 Z M26.5046034,69.0751498 C27.766149,68.2449548 28.621892,66.9725103 28.8998868,65.1351677 C28.8916196,63.8117787 28.4309703,62.635952 27.6631138,61.6169806 C27.4011629,61.2693628 27.1210985,60.9647742 26.8411542,60.7056044 C26.7790008,60.7931798 26.7139105,60.879544 26.6461029,60.9634524 C26.374323,61.2997658 26.0930211,61.557084 25.788194,61.7062525 C25.2644372,61.9625552 24.9643249,61.568747 24.9517997,61.1315965 C24.9494596,61.0499261 24.9538546,60.9591535 24.9643278,60.8314946 C24.9696452,60.7666793 24.9928831,60.5154214 24.9955084,60.4857571 C25.0989028,59.3174987 25.0208795,58.4415399 24.5810498,57.5339422 C24.1685972,56.6828377 23.4639735,55.9523269 22.3971944,55.3665927 C22.4516072,55.7105004 22.479469,55.9755378 22.4734835,56.1719139 C22.4355427,57.4556533 21.5797364,59.3495986 19.841516,60.6953575 C17.6184413,62.4164986 16.9233988,63.4108753 16.900452,65.163688 C16.873898,67.192038 17.95578,68.7816146 20.3896386,69.648561 C20.3509497,69.5845983 20.3122959,69.5190336 20.2726613,69.4501651 C19.719077,68.488265 19.390177,67.5353282 19.3837491,66.5714286 C19.3837491,64.6573085 20.6546446,63.2419086 22.5235855,62.1147022 C22.7072756,62.003914 22.8337745,61.9373118 22.9399851,61.9010917 C23.2986392,61.7787832 23.7608346,61.9588034 23.6703514,62.4853203 C23.6494681,62.6068391 23.6094757,62.6845619 23.5175023,62.8341772 C23.5045836,62.8551925 23.3872175,63.0408228 23.352408,63.09846 C23.2957255,63.1923143 23.2529354,63.2709566 23.2215126,63.3406303 C23.1866999,63.4178204 23.1707725,63.474008 23.1702112,63.497605 C23.1575497,64.0298696 23.5292525,64.9015218 24.0460168,65.3678297 C24.8471852,66.0742759 25.4971665,67.2131831 25.4970491,68.0108342 C25.4871166,68.4691114 25.2925212,69.1558172 25.0264138,69.7761933 C25.5323249,69.6148353 26.0339358,69.3848857 26.5046034,69.0751498 Z M105.556435,65.5425058 C105.77072,65.3794506 105.936469,65.2545719 106.101747,65.1322449 C106.535697,64.8110642 106.911461,64.5492131 107.272742,64.321431 L107.522454,64.1639923 L107.780929,64.3065862 C109.264435,65.1249961 110.764266,65.7227281 112.531889,66.206107 L113.090009,66.358732 L111.059438,70.9996041 L110.944924,71.1624533 C110.929882,71.177099 110.929882,71.177099 110.88401,71.2147913 C110.758556,71.3097073 110.622349,71.3391505 110.477253,71.3269531 C110.422583,71.3223573 110.392174,71.3170771 110.21467,71.282051 C102.388544,69.1791567 96.2206537,63.3802403 93.9752562,56.0307636 C93.8259148,55.5011288 93.8418312,55.2000772 94.2788415,55.0631905 L99.2552265,53.1716665 L99.4102964,53.6849535 C99.9122496,55.3464375 100.537222,56.7443233 101.412801,58.1638493 L101.601132,58.4691793 L101.372217,58.7453912 C101.285174,58.8504191 101.194465,58.9567154 101.096754,59.0685357 C100.931333,59.2578454 100.379043,59.8682787 100.361978,59.8873995 C100.148629,60.1264585 99.9790197,60.3257169 99.8316514,60.5140086 C101.446065,62.6815904 103.280019,64.4411803 105.324605,65.7191594 C105.457551,65.6179228 105.580176,65.5244406 105.556435,65.5425058 Z M106.696658,65.9360358 C106.535559,66.0552704 106.373045,66.177712 106.161987,66.3383121 C106.206356,66.3045502 105.768276,66.6384665 105.657029,66.7226332 L105.388279,66.9259646 L105.098958,66.7531531 C102.721451,65.3330682 100.621074,63.3154901 98.804924,60.8051827 L98.5956181,60.5158773 L98.8013543,60.2240226 C99.0246357,59.9072783 99.26939,59.6098071 99.6158915,59.2215506 C99.6380324,59.1967417 100.185092,58.5920896 100.343736,58.4105366 C100.353568,58.3992849 100.363319,58.3880993 100.372993,58.3769749 C99.6367179,57.1359442 99.0746935,55.892874 98.6137732,54.4851863 L94.971698,55.8688152 C97.1276368,62.7699909 102.939934,68.2392106 110.288324,70.2672906 L111.712409,67.0125399 C110.206332,66.566553 108.872405,66.0254908 107.561693,65.3254042 C107.295903,65.5014815 107.013434,65.7015798 106.696658,65.9360358 Z M61.4,60.5 L61.4,61.5 L62.4,61.5 L62.4,62.5 L61.4,62.5 L61.4,63.5 L62.4,63.5 L62.4,64.5 L61.4,64.5 L61.4,66.1897423 L61.150363,66.3341495 C60.3824924,66.7783387 59.9,67.5968696 59.9,68.5 C59.9,69.8807119 61.0192881,71 62.4,71 C63.7807119,71 64.9,69.8807119 64.9,68.5 C64.9,67.5968696 64.4175076,66.7783387 63.649637,66.3341495 L63.4,66.1897423 L63.4,55 C63.4,54.4477153 62.9522847,54 62.4,54 C61.8477153,54 61.4,54.4477153 61.4,55 L61.4,59.5 L62.4,59.5 L62.4,60.5 L61.4,60.5 Z M60.4,55 C60.4,53.8954305 61.2954305,53 62.4,53 C63.5045695,53 64.4,53.8954305 64.4,55 L64.4,65.627297 C65.3278487,66.2736753 65.9,67.3372199 65.9,68.5 C65.9,70.4329966 64.3329966,72 62.4,72 C60.4670034,72 58.9,70.4329966 58.9,68.5 C58.9,67.3372199 59.4721513,66.2736753 60.4,65.627297 L60.4,55 Z M81.3599618,37.6934973 L88.9189369,26.0082759 L82.5,26.0082759 L82.5,18.2732641 L75.0924143,29.9917241 L81.3599618,29.9917241 L81.3599618,37.6934973 Z M81.5,27.0082759 L87.0810631,27.0082759 L82.3599618,34.3065027 L82.3599618,28.9917241 L76.9075857,28.9917241 L81.5,21.7267359 L81.5,27.0082759 Z" id="形状结合" fill="url(#linearGradient-2)"></path>
        </g>
        <g id="编组" transform="translate(122.000000, 100.500000) rotate(45.000000) translate(-122.000000, -100.500000) translate(118.000000, 84.000000)"></g>
        <g id="分组-2" transform="translate(676.000000, 38.000000)" fill="url(#linearGradient-3)">
            <path d="M100,40.6416099 C96.2121341,38.3311503 91.7615205,37 87,37 C81.370876,37 76.1762829,38.8604474 71.9975627,42 L14,42 L14,46 L67.7898116,46 C65.4033254,48.8621848 63.6444674,52.2659877 62.7246464,56 L14,56 L14,60 L62.0788349,60 C62.0266098,60.6597887 62,61.3267868 62,62 C62,67.1873028 63.5798613,72.0056092 66.2846649,76 L4,76 L4,4 L100,4 L100,40.6416099 Z M14,14 L14,18 L62,18 L62,14 L14,14 Z M14,28 L14,32 L90,32 L90,28 L14,28 Z" id="合并形状" opacity="0.2"></path>
            <path d="M104,43.6695472 C103.6746,43.3676242 103.341147,43.0742597 103,42.7898116 L103,1 L1,1 L1,79 L68.6695472,79 C68.9872319,79.3423875 69.314392,79.6758599 69.6506104,80 L0,80 L0,-2.13162821e-14 L104,-2.13162821e-14 L104,43.6695472 Z M87,83 C75.4020203,83 66,73.5979797 66,62 C66,50.4020203 75.4020203,41 87,41 C98.5979797,41 108,50.4020203 108,62 C108,73.5979797 98.5979797,83 87,83 Z M87,81 C97.4934102,81 106,72.4934102 106,62 C106,51.5065898 97.4934102,43 87,43 C76.5065898,43 68,51.5065898 68,62 C68,72.4934102 76.5065898,81 87,81 Z M84.4852814,67.7989899 L97.2132034,55.0710678 L98.627417,56.4852814 L85.8994949,69.2132034 L84.4852814,70.627417 L76,62.1421356 L77.4142136,60.7279221 L84.4852814,67.7989899 Z" id="形状结合" fill-rule="nonzero"></path>
        </g>
        <g id="分组" transform="translate(35.000000, 38.000000)" fill="url(#linearGradient-3)">
            <path d="M100,40.6416099 C96.2121341,38.3311503 91.7615205,37 87,37 C81.370876,37 76.1762829,38.8604474 71.9975627,42 L14,42 L14,46 L67.7898116,46 C65.4033254,48.8621848 63.6444674,52.2659877 62.7246464,56 L14,56 L14,60 L62.0788349,60 C62.0266098,60.6597887 62,61.3267868 62,62 C62,67.1873028 63.5798613,72.0056092 66.2846649,76 L4,76 L4,4 L100,4 L100,40.6416099 Z M14,14 L14,18 L62,18 L62,14 L14,14 Z M14,28 L14,32 L90,32 L90,28 L14,28 Z" id="合并形状" opacity="0.2"></path>
            <path d="M104,43.6695472 C103.6746,43.3676242 103.341147,43.0742597 103,42.7898116 L103,1 L1,1 L1,79 L68.6695472,79 C68.9872319,79.3423875 69.314392,79.6758599 69.6506104,80 L0,80 L0,-2.13162821e-14 L104,-2.13162821e-14 L104,43.6695472 Z M87,83 C75.4020203,83 66,73.5979797 66,62 C66,50.4020203 75.4020203,41 87,41 C98.5979797,41 108,50.4020203 108,62 C108,73.5979797 98.5979797,83 87,83 Z M87,81 C97.4934102,81 106,72.4934102 106,62 C106,51.5065898 97.4934102,43 87,43 C76.5065898,43 68,51.5065898 68,62 C68,72.4934102 76.5065898,81 87,81 Z M95.2928932,48.5502525 L100.949747,54.2071068 L96,59.1568542 L90.3431458,53.5 L95.2928932,48.5502525 Z M95.2928932,51.3786797 L93.1715729,53.5 L96,56.3284271 L98.1213203,54.2071068 L95.2928932,51.3786797 Z M88.9497475,54.8933983 L94.6066017,60.5502525 L80.8073057,74.3495485 L75.5237928,73.9943556 L75.1504515,68.6926943 L88.9497475,54.8933983 Z M88.9497475,57.7218254 L77.2095782,69.4619947 L77.3964537,72.115734 L80.0352928,72.2931343 L91.7781746,60.5502525 L88.9497475,57.7218254 Z" id="形状结合" fill-rule="nonzero"></path>
        </g>
        <path d="M170,77 L176,77 L176,79 L170,79 L170,77 Z M224,77 L230,77 L230,79 L224,79 L224,77 Z M188,77 L194,77 L194,79 L188,79 L188,77 Z M242,77 L248,77 L248,79 L242,79 L242,77 Z M287,77 L293,77 L293,79 L287,79 L287,77 Z M206,77 L212,77 L212,79 L206,79 L206,77 Z M260,77 L266,77 L266,79 L260,79 L260,77 Z M305,77 L311,77 L311,79 L305,79 L305,77 Z M179,77 L185,77 L185,79 L179,79 L179,77 Z M233,77 L239,77 L239,79 L233,79 L233,77 Z M278,77 L284,77 L284,79 L278,79 L278,77 Z M197,77 L203,77 L203,79 L197,79 L197,77 Z M251,77 L257,77 L257,79 L251,79 L251,77 Z M296,77 L302,77 L302,79 L296,79 L296,77 Z M215,77 L221,77 L221,79 L215,79 L215,77 Z M269,77 L275,77 L275,79 L269,79 L269,77 Z M322,78 L314,82 L314,74 L322,78 Z" id="形状结合" fill="#C2C5CA"></path>
        <path d="M497,77 L503,77 L503,79 L497,79 L497,77 Z M551,77 L557,77 L557,79 L551,79 L551,77 Z M515,77 L521,77 L521,79 L515,79 L515,77 Z M569,77 L575,77 L575,79 L569,79 L569,77 Z M614,77 L620,77 L620,79 L614,79 L614,77 Z M533,77 L539,77 L539,79 L533,79 L533,77 Z M587,77 L593,77 L593,79 L587,79 L587,77 Z M632,77 L638,77 L638,79 L632,79 L632,77 Z M506,77 L512,77 L512,79 L506,79 L506,77 Z M560,77 L566,77 L566,79 L560,79 L560,77 Z M605,77 L611,77 L611,79 L605,79 L605,77 Z M524,77 L530,77 L530,79 L524,79 L524,77 Z M578,77 L584,77 L584,79 L578,79 L578,77 Z M623,77 L629,77 L629,79 L623,79 L623,77 Z M542,77 L548,77 L548,79 L542,79 L542,77 Z M596,77 L602,77 L602,79 L596,79 L596,77 Z M649,78 L641,82 L641,74 L649,78 Z" id="形状结合备份-2" fill="#C2C5CA"></path>
        <path d="M54.436,166.238 L54.436,168.786 L56.928,168.786 L56.928,166.238 L54.436,166.238 Z M56.928,165.552 L56.928,162.976 L54.436,162.976 L54.436,165.552 L56.928,165.552 Z M54.422,169.5 C54.3566663,171.469343 54.0393362,173.097994 53.47,174.386 L52.882,173.868 C53.4513362,172.54266 53.7406666,170.881343 53.75,168.884 L53.75,162.262 L57.642,162.262 L57.642,173.154 C57.642,173.938004 57.2780036,174.33 56.55,174.33 L55.43,174.33 L55.248,173.658 C55.7706693,173.676667 56.129999,173.686 56.326,173.686 C56.7273353,173.686 56.928,173.424669 56.928,172.902 L56.928,169.5 L54.422,169.5 Z M59.686,168.114 L59.686,174.372 L58.972,174.372 L58.972,162.262 L64.488,162.262 C64.488,163.914008 64.4040008,165.015331 64.236,165.566 C64.0866659,166.126003 63.5640045,166.406 62.668,166.406 L61.59,166.406 L61.38,165.748 L62.318,165.748 C62.6820018,165.748 62.9526658,165.72 63.13,165.664 C63.3073342,165.608 63.4426662,165.468001 63.536,165.244 C63.6573339,164.861331 63.7226666,164.100672 63.732,162.962 L59.686,162.962 L59.686,167.428 L64.488,167.428 L64.488,168.072 C64.1893318,169.593341 63.6946701,170.867328 63.004,171.894 C63.6760034,172.566003 64.478662,173.163331 65.412,173.686 L65.048,174.316 C64.0586617,173.746664 63.2373366,173.13067 62.584,172.468 C61.9586635,173.233337 61.2026711,173.853998 60.316,174.33 L59.924,173.728 C60.7920043,173.233331 61.5106638,172.636003 62.08,171.936 C61.1279952,170.815994 60.4840017,169.542007 60.148,168.114 L59.686,168.114 Z M60.806,168.114 C61.1140015,169.318006 61.6786626,170.400662 62.5,171.362 C63.0973363,170.437995 63.531332,169.35534 63.802,168.114 L60.806,168.114 Z M71.726,161.66 C71.5673325,162.033335 71.3666679,162.420665 71.124,162.822 L77.326,162.822 L77.326,163.438 C76.392662,164.520672 75.2446735,165.43533 73.882,166.182 C75.5060081,166.910004 77.3353232,167.385999 79.37,167.61 L79.034,168.324 C76.8033222,168.062665 74.8106754,167.488671 73.056,166.602 C71.3293247,167.395337 69.3040116,167.973998 66.98,168.338 L66.63,167.638 C68.7766774,167.339332 70.6526586,166.849337 72.258,166.168 C71.3713289,165.635997 70.559337,165.043337 69.822,164.39 C69.2526638,164.922003 68.6226701,165.388665 67.932,165.79 L67.47,165.188 C69.1873419,164.207995 70.3493303,162.994674 70.956,161.548 L71.726,161.66 Z M73.07,165.79 C74.3020062,165.164664 75.3613289,164.413338 76.248,163.536 L70.606,163.536 C70.4753327,163.685334 70.3820003,163.797333 70.326,163.872 C71.1380041,164.609337 72.0526616,165.248664 73.07,165.79 Z M73.056,167.722 C73.056,168.30067 73.0046672,168.869997 72.902,169.43 L77.886,169.43 C77.8579999,171.744678 77.6433353,173.121331 77.242,173.56 C76.8313313,174.017336 76.122005,174.246 75.114,174.246 C74.6939979,174.246 74.1806697,174.232 73.574,174.204 L73.378,173.504 C74.2180042,173.541334 74.7406656,173.56 74.946,173.56 C75.879338,173.541333 76.4626655,173.354668 76.696,173 C76.9293345,172.626665 77.0739997,171.665341 77.13,170.116 L72.734,170.116 C72.5846659,170.564002 72.4213342,170.946665 72.244,171.264 C71.4973296,172.524006 69.8546794,173.559996 67.316,174.372 L66.812,173.77 C69.1080115,173.088663 70.6479961,172.211339 71.432,171.138 C71.6093342,170.848665 71.7726659,170.508002 71.922,170.116 L67.596,170.116 L67.596,169.43 L72.132,169.43 C72.2533339,168.85133 72.314,168.282003 72.314,167.722 L73.056,167.722 Z M84.494,169.346 L89.492,169.346 L89.492,172.608 L84.494,172.608 L84.494,169.346 Z M88.75,171.922 L88.75,170.032 L85.236,170.032 L85.236,171.922 L88.75,171.922 Z M88.246,166.56 C89.450006,167.418671 90.4346628,168.258663 91.2,169.08 L90.64,169.626 C89.9306631,168.813996 88.9646728,167.960004 87.742,167.064 L88.246,166.56 Z M86.888,161.464 C87.1026677,161.865335 87.2986658,162.327331 87.476,162.85 L93.16,162.85 L93.16,163.578 L90.094,163.578 C89.7953318,164.334004 89.4920015,164.963997 89.184,165.468 L92.362,165.468 L92.362,172.944 C92.362,173.849338 91.9840038,174.302 91.228,174.302 L89.814,174.302 L89.618,173.602 L90.99,173.63 C91.4100021,173.63 91.62,173.350003 91.62,172.79 L91.62,166.154 L82.352,166.154 L82.352,174.26 L81.61,174.26 L81.61,165.468 L84.634,165.468 C84.4099989,164.77733 84.1300017,164.147336 83.794,163.578 L80.84,163.578 L80.84,162.85 L86.664,162.85 C86.467999,162.383331 86.272001,161.963335 86.076,161.59 L86.888,161.464 Z M88.372,165.468 C88.6986683,164.879997 88.9926654,164.250003 89.254,163.578 L84.634,163.578 C84.9420015,164.194003 85.1986656,164.823997 85.404,165.468 L88.372,165.468 Z M86.202,167.078 C85.3806626,168.039338 84.368006,168.883996 83.164,169.612 L82.688,168.996 C83.8546725,168.314663 84.8439959,167.512005 85.656,166.588 L86.202,167.078 Z M95.708,161.884 C96.641338,162.60267 97.4346634,163.32133 98.088,164.04 L97.556,164.586 C96.9866638,163.913997 96.1933384,163.181337 95.176,162.388 L95.708,161.884 Z M103.94,174.106 C103.473331,174.106 102.652006,174.096667 101.476,174.078 C100.551995,174.05 99.8333359,173.961334 99.32,173.812 C98.7693306,173.643999 98.2746689,173.298669 97.836,172.776 C97.6586658,172.533332 97.4813342,172.412 97.304,172.412 C96.9213314,172.412 96.3240041,173.06066 95.512,174.358 L94.938,173.854 C95.7313373,172.631327 96.4079972,171.922001 96.968,171.726 L96.968,167.246 L94.896,167.246 L94.896,166.518 L97.682,166.518 L97.682,171.768 C97.8406675,171.842667 97.9853327,171.968666 98.116,172.146 C98.4520017,172.566002 98.8299979,172.873999 99.25,173.07 C99.6980022,173.238001 100.327996,173.336 101.14,173.364 C102.073338,173.382667 102.969329,173.392 103.828,173.392 L105.788,173.392 L107.3,173.336 L107.118,174.106 L103.94,174.106 Z M99.18,163.886 L100.902,163.886 L100.902,161.576 L101.644,161.576 L101.644,163.886 L104.08,163.886 L104.08,161.604 L104.836,161.604 L104.836,163.886 L106.684,163.886 L106.684,164.6 L104.836,164.6 L104.836,167.61 L107.146,167.61 L107.146,168.338 L104.836,168.338 L104.836,172.496 L104.08,172.496 L104.08,168.338 L101.392,168.338 C101.027998,170.092675 100.295339,171.371329 99.194,172.174 L98.746,171.572 C99.6886714,170.890663 100.323332,169.812674 100.65,168.338 L98.69,168.338 L98.69,167.61 L100.776,167.61 C100.86,167.049997 100.902,166.443337 100.902,165.79 L100.902,164.6 L99.18,164.6 L99.18,163.886 Z M101.644,164.6 L101.644,165.622 C101.644,166.331337 101.602,166.993997 101.518,167.61 L104.08,167.61 L104.08,164.6 L101.644,164.6 Z M112.508,161.856 C112.115998,163.022672 111.649336,164.081995 111.108,165.034 L111.108,174.386 L110.366,174.386 L110.366,166.224 C109.861997,166.94267 109.311336,167.61933 108.714,168.254 L108.462,167.456 C110.011341,165.691991 111.126663,163.713344 111.808,161.52 L112.508,161.856 Z M114.888,162.486 C114.757333,163.214004 114.589334,163.92333 114.384,164.614 L116.736,164.614 L116.736,161.618 L117.492,161.618 L117.492,164.614 L120.81,164.614 L120.81,165.37 L117.492,165.37 L117.492,168.996 L121.328,168.996 L121.328,169.738 L117.492,169.738 L117.492,174.316 L116.736,174.316 L116.736,169.738 L112.494,169.738 L112.494,168.996 L116.736,168.996 L116.736,165.37 L114.132,165.37 C113.758665,166.322005 113.320003,167.15733 112.816,167.876 L112.34,167.26 C113.217338,165.93466 113.819332,164.315343 114.146,162.402 L114.888,162.486 Z" id="服务商进件" fill="#333333"></path>
        <path d="M384.8,164.698 L384.548,165.72 L386.942,165.72 C387.044667,165.411998 387.105333,165.071335 387.124,164.698 L384.8,164.698 Z M387.852,164.698 C387.833333,165.080669 387.786667,165.421332 387.712,165.72 L390.078,165.72 L390.078,164.698 L387.852,164.698 Z M390.806,164.698 L390.806,165.72 L394.656,165.72 C394.656,166.709338 394.553334,167.334665 394.348,167.596 C394.123999,167.885335 393.65267,168.034667 392.934,168.044 C392.793999,168.044 392.584001,168.034667 392.304,168.016 L392.164,167.442 C392.406668,167.47 392.630666,167.484 392.836,167.484 C393.321336,167.484 393.624666,167.400001 393.746,167.232 C393.839334,167.091999 393.895333,166.793336 393.914,166.336 L390.806,166.336 L390.806,168.002 L390.078,168.002 L390.078,166.336 L387.488,166.336 C387.319999,166.672002 387.096001,166.979999 386.816,167.26 C386.171997,167.848003 385.108007,168.309998 383.624,168.646 L383.232,168.044 C384.650674,167.735998 385.66333,167.320669 386.27,166.798 C386.410001,166.657999 386.535999,166.504001 386.648,166.336 L383.722,166.336 L384.184,164.082 L387.124,164.082 L387.124,163.018 L383.862,163.018 L383.862,162.374 L387.124,162.374 L387.124,161.576 L387.852,161.576 L387.852,162.374 L390.078,162.374 L390.078,161.576 L390.806,161.576 L390.806,162.374 L393.998,162.374 L393.998,164.698 L390.806,164.698 Z M387.852,163.018 L387.852,164.082 L390.078,164.082 L390.078,163.018 L387.852,163.018 Z M390.806,163.018 L390.806,164.082 L393.284,164.082 L393.284,163.018 L390.806,163.018 Z M393.536,168.478 L393.536,172.23 L392.78,172.23 L392.78,169.164 L385.584,169.164 L385.584,172.23 L384.842,172.23 L384.842,168.478 L393.536,168.478 Z M389.882,172.076 C391.720676,172.542669 393.367993,173.10733 394.824,173.77 L394.404,174.4 C392.779992,173.662663 391.137342,173.079335 389.476,172.65 L389.882,172.076 Z M389.532,169.836 C389.335999,171.422675 388.90667,172.495997 388.244,173.056 C387.515996,173.756003 385.924679,174.189999 383.47,174.358 L383.176,173.686 C385.397344,173.573999 386.876663,173.21467 387.614,172.608 C388.258003,172.047997 388.645333,171.100673 388.776,169.766 L389.532,169.836 Z M405.254,161.646 L405.996,161.646 L405.996,164.194 L408.838,164.194 L408.838,170.382 L408.096,170.382 L408.096,169.612 L405.996,169.612 L405.996,174.372 L405.254,174.372 L405.254,169.612 L403.196,169.612 L403.196,170.382 L402.468,170.382 L402.468,164.194 L405.254,164.194 L405.254,161.646 Z M403.196,168.912 L405.254,168.912 L405.254,164.922 L403.196,164.922 L403.196,168.912 Z M405.996,168.912 L408.096,168.912 L408.096,164.922 L405.996,164.922 L405.996,168.912 Z M396.798,162.752 C398.552675,162.555999 400.07866,162.215336 401.376,161.73 L401.628,162.43 C401.058664,162.635334 400.433337,162.821999 399.752,162.99 L399.752,165.51 L401.642,165.51 L401.642,166.252 L399.752,166.252 L399.752,167.05 C400.424003,167.71267 401.151996,168.515329 401.936,169.458 L401.502,170.088 C400.848663,169.117328 400.265336,168.333336 399.752,167.736 L399.752,174.456 L398.996,174.456 L398.996,167.652 C398.482664,169.136007 397.759338,170.475327 396.826,171.67 L396.518,170.872 C397.656672,169.527993 398.463998,167.988009 398.94,166.252 L396.756,166.252 L396.756,165.51 L398.996,165.51 L398.996,163.144 C398.295997,163.284001 397.610003,163.391333 396.938,163.466 L396.798,162.752 Z M411.134,164.46 L416.622,164.46 L416.622,161.576 L417.378,161.576 L417.378,164.46 L422.866,164.46 L422.866,165.174 L417.378,165.174 L417.378,165.538 C419.356677,166.135336 421.120659,166.830663 422.67,167.624 L422.25,168.268 C420.681992,167.353329 419.058008,166.620669 417.378,166.07 L417.378,167.75 L416.622,167.75 L416.622,165.174 L416.44,165.174 C415.627996,166.434006 413.999346,167.516662 411.554,168.422 L411.148,167.778 C413.434678,167.021996 414.969996,166.154005 415.754,165.174 L411.134,165.174 L411.134,164.46 Z M411.022,169.724 L416.328,169.724 C416.477334,169.266664 416.589333,168.781336 416.664,168.268 L417.42,168.268 C417.345333,168.809336 417.242667,169.294665 417.112,169.724 L422.978,169.724 L422.978,170.438 L417.546,170.438 C418.84334,172.006008 420.709988,173.088664 423.146,173.686 L422.754,174.344 C420.07532,173.615996 418.092006,172.351342 416.804,170.55 C416.523999,171.203337 416.150669,171.772664 415.684,172.258 C414.750662,173.135338 413.243344,173.825997 411.162,174.33 L410.854,173.63 C412.823343,173.181998 414.232662,172.556671 415.082,171.754 C415.464669,171.389998 415.781999,170.951336 416.034,170.438 L411.022,170.438 L411.022,169.724 Z M421.158,161.982 C420.887332,162.691337 420.537335,163.330664 420.108,163.9 L419.436,163.662 C419.809335,163.176664 420.149998,162.556004 420.458,161.8 L421.158,161.982 Z M413.472,161.898 C413.910669,162.458003 414.293332,163.06933 414.62,163.732 L413.934,163.914 C413.616665,163.269997 413.234002,162.672669 412.786,162.122 L413.472,161.898 Z M425.442,166.476 L425.442,162.206 L431.224,162.206 L431.224,166.476 L428.466,166.476 C428.438,167.017336 428.386667,167.656663 428.312,168.394 L431.35,168.394 C431.35,170.792679 431.280001,172.271997 431.14,172.832 C430.999999,173.728004 430.337339,174.176 429.152,174.176 C428.974666,174.176 428.666669,174.162 428.228,174.134 L428.046,173.462 C428.568669,173.480667 428.913999,173.49 429.082,173.49 C429.847337,173.49 430.295333,173.191336 430.426,172.594 C430.519334,172.211331 430.58,171.049343 430.608,169.108 L428.214,169.108 C428.055333,170.013338 427.859334,170.750664 427.626,171.32 C427.112664,172.477339 426.263339,173.480662 425.078,174.33 L424.602,173.728 C425.684672,172.990663 426.463998,172.090005 426.94,171.026 C427.154668,170.540664 427.327333,169.901337 427.458,169.108 L424.854,169.108 L424.854,168.394 L427.556,168.394 C427.630667,167.749997 427.682,167.11067 427.71,166.476 L425.442,166.476 Z M432.988,162.836 L433.744,162.836 L433.744,171.614 L432.988,171.614 L432.988,162.836 Z M433.52,174.232 L433.352,173.518 C434.01467,173.546 434.639997,173.56 435.228,173.56 C435.694669,173.56 435.928,173.298669 435.928,172.776 L435.928,161.646 L436.684,161.646 L436.684,172.972 C436.684,173.812004 436.287337,174.232 435.494,174.232 L433.52,174.232 Z M430.496,165.776 L430.496,162.906 L426.17,162.906 L426.17,165.776 L430.496,165.776 Z" id="费种类别" fill="#333333"></path>
        <path d="M714.852,163.186 L714.852,166.196 L714.096,166.196 L714.096,163.914 L703.876,163.914 L703.876,166.196 L703.12,166.196 L703.12,163.186 L708.636,163.186 C708.439999,162.625997 708.244001,162.145335 708.048,161.744 L708.888,161.604 C709.112001,162.126669 709.298666,162.653997 709.448,163.186 L714.852,163.186 Z M705.08,165.776 L712.864,165.776 L712.864,166.504 L705.08,166.504 L705.08,165.776 Z M702.952,168.408 L715.062,168.408 L715.062,169.15 L711.002,169.15 L711.002,172.776 C711.002,173.196002 711.216665,173.406 711.646,173.406 L713.592,173.406 C713.890668,173.406 714.105333,173.317334 714.236,173.14 C714.394667,172.906666 714.502,172.234672 714.558,171.124 L715.272,171.348 C715.188,172.654673 715.020001,173.461998 714.768,173.77 C714.553332,174.012668 714.212669,174.134 713.746,174.134 L711.422,174.134 C710.637996,174.134 710.246,173.732671 710.246,172.93 L710.246,169.15 L707.712,169.15 L707.712,169.304 C707.684,170.676007 707.31067,171.777329 706.592,172.608 C705.891997,173.373337 704.748675,173.979998 703.162,174.428 L702.728,173.756 C704.296008,173.345331 705.39733,172.79467 706.032,172.104 C706.620003,171.375996 706.928,170.442672 706.956,169.304 L706.956,169.15 L702.952,169.15 L702.952,168.408 Z M726.304,161.604 C727.004003,162.136003 727.591998,162.667997 728.068,163.2 L727.564,163.69 C727.125331,163.185997 726.542004,162.64467 725.814,162.066 L726.304,161.604 Z M728.194,166.126 C727.624664,168.011343 726.882671,169.597994 725.968,170.886 C726.182668,171.399336 726.429999,171.861331 726.71,172.272 C727.214003,172.972003 727.629332,173.322 727.956,173.322 C728.264002,173.312667 728.529999,172.561341 728.754,171.068 L729.44,171.432 C729.131998,173.252009 728.684003,174.162 728.096,174.162 C727.51733,174.162 726.89667,173.742004 726.234,172.902 C725.944665,172.537998 725.683335,172.090003 725.45,171.558 C724.432662,172.780673 723.242673,173.69533 721.88,174.302 L721.446,173.658 C722.892674,173.013997 724.115328,172.052673 725.114,170.774 C724.899332,170.223331 724.717334,169.654003 724.568,169.066 C724.278665,167.861994 724.082667,166.354676 723.98,164.544 L718.912,164.544 L718.912,167.092 L722.342,167.092 C722.323333,169.322678 722.239334,170.787996 722.09,171.488 C721.931333,172.113336 721.525337,172.44 720.872,172.468 C720.526665,172.468 720.116002,172.454 719.64,172.426 L719.402,171.726 C720.130004,171.763334 720.591999,171.782 720.788,171.782 C721.142668,171.754 721.362,171.511336 721.446,171.054 C721.539334,170.428664 721.586,169.350674 721.586,167.82 L718.912,167.82 L718.912,168.464 C718.874666,170.918679 718.342672,172.887993 717.316,174.372 L716.742,173.854 C717.656671,172.565994 718.132666,170.769345 718.17,168.464 L718.17,163.83 L723.952,163.83 C723.924,163.101996 723.91,162.346004 723.91,161.562 L724.666,161.562 C724.666,162.14067 724.684666,162.896662 724.722,163.83 L729.16,163.83 L729.16,164.544 L724.75,164.544 C724.852667,166.382676 725.039332,167.829328 725.31,168.884 C725.412667,169.276002 725.524666,169.658665 725.646,170.032 C726.420671,168.865328 727.041331,167.465341 727.508,165.832 L728.194,166.126 Z M731.708,161.884 C732.641338,162.60267 733.434663,163.32133 734.088,164.04 L733.556,164.586 C732.986664,163.913997 732.193338,163.181337 731.176,162.388 L731.708,161.884 Z M739.94,174.106 C739.473331,174.106 738.652006,174.096667 737.476,174.078 C736.551995,174.05 735.833336,173.961334 735.32,173.812 C734.769331,173.643999 734.274669,173.298669 733.836,172.776 C733.658666,172.533332 733.481334,172.412 733.304,172.412 C732.921331,172.412 732.324004,173.06066 731.512,174.358 L730.938,173.854 C731.731337,172.631327 732.407997,171.922001 732.968,171.726 L732.968,167.246 L730.896,167.246 L730.896,166.518 L733.682,166.518 L733.682,171.768 C733.840667,171.842667 733.985333,171.968666 734.116,172.146 C734.452002,172.566002 734.829998,172.873999 735.25,173.07 C735.698002,173.238001 736.327996,173.336 737.14,173.364 C738.073338,173.382667 738.969329,173.392 739.828,173.392 L741.788,173.392 L743.3,173.336 L743.118,174.106 L739.94,174.106 Z M735.18,163.886 L736.902,163.886 L736.902,161.576 L737.644,161.576 L737.644,163.886 L740.08,163.886 L740.08,161.604 L740.836,161.604 L740.836,163.886 L742.684,163.886 L742.684,164.6 L740.836,164.6 L740.836,167.61 L743.146,167.61 L743.146,168.338 L740.836,168.338 L740.836,172.496 L740.08,172.496 L740.08,168.338 L737.392,168.338 C737.027998,170.092675 736.295339,171.371329 735.194,172.174 L734.746,171.572 C735.688671,170.890663 736.323332,169.812674 736.65,168.338 L734.69,168.338 L734.69,167.61 L736.776,167.61 C736.86,167.049997 736.902,166.443337 736.902,165.79 L736.902,164.6 L735.18,164.6 L735.18,163.886 Z M737.644,164.6 L737.644,165.622 C737.644,166.331337 737.602,166.993997 737.518,167.61 L740.08,167.61 L740.08,164.6 L737.644,164.6 Z M748.508,161.856 C748.115998,163.022672 747.649336,164.081995 747.108,165.034 L747.108,174.386 L746.366,174.386 L746.366,166.224 C745.861997,166.94267 745.311336,167.61933 744.714,168.254 L744.462,167.456 C746.011341,165.691991 747.126663,163.713344 747.808,161.52 L748.508,161.856 Z M750.888,162.486 C750.757333,163.214004 750.589334,163.92333 750.384,164.614 L752.736,164.614 L752.736,161.618 L753.492,161.618 L753.492,164.614 L756.81,164.614 L756.81,165.37 L753.492,165.37 L753.492,168.996 L757.328,168.996 L757.328,169.738 L753.492,169.738 L753.492,174.316 L752.736,174.316 L752.736,169.738 L748.494,169.738 L748.494,168.996 L752.736,168.996 L752.736,165.37 L750.132,165.37 C749.758665,166.322005 749.320003,167.15733 748.816,167.876 L748.34,167.26 C749.217338,165.93466 749.819332,164.315343 750.146,162.402 L750.888,162.486 Z" id="完成进件" fill="#333333"></path>
    </g>
</svg>