<?xml version="1.0" encoding="UTF-8"?>
<svg width="48px" height="48px" viewBox="0 0 48 48" version="1.1" xmlns="http://www.w3.org/2000/svg" xmlns:xlink="http://www.w3.org/1999/xlink">
    <!-- Generator: Sketch 52.4 (67378) - http://www.bohemiancoding.com/sketch -->
    <title>iPhone 8 Copy 7</title>
    <desc>Created with Sketch.</desc>
    <g id="iPhone-8-Copy-7" stroke="none" stroke-width="1" fill="none" fill-rule="evenodd">
        <g id="Group-24">
            <g id="Group" transform="translate(0.000000, 0.180664)" fill="#334966" fill-rule="nonzero">
                <path d="M32.2434783,1.46086957 L31.826087,3.54782609 C39.9652174,6.67826087 45.8086957,14.6086957 45.8086957,24 C45.8086957,35.5826087 36.8347826,44.973913 25.5652174,45.8086957 L24.1043478,48 C37.2521739,47.8956522 47.8956522,37.2521739 47.8956522,24 C48,13.6695652 41.426087,4.90434783 32.2434783,1.46086957 M0,24 C0,34.1217391 6.15652174,42.6782609 15.026087,46.226087 L15.3391304,44.1391304 C7.51304348,40.8 2.08695652,33.0782609 2.08695652,24 C2.08695652,12.7304348 10.5391304,3.44347826 21.4956522,2.19130435 L23.0608696,0 C10.226087,0.52173913 0,11.0608696 0,24" id="Shape"></path>
            </g>
            <polygon id="Rectangle-52-Copy" fill="#00A4FF" points="28 10.2982423 28 19.2982423 37 19.2982423 25 37.2982423 25 28.2982423 15 28.2982423"></polygon>
            <path d="M21,13.3908272 L10.9557557,27.2982423 L20,27.2982423 L20,33.9954667 L29.1314829,20.2982423 L21,20.2982423 L21,13.3908272 Z" id="Rectangle-52" stroke="#334966" stroke-width="2"></path>
        </g>
    </g>
</svg>