<?xml version="1.0" encoding="UTF-8"?>
<svg width="16px" height="16px" viewBox="0 0 16 16" version="1.1" xmlns="http://www.w3.org/2000/svg" xmlns:xlink="http://www.w3.org/1999/xlink">
    <!-- Generator: Sketch 53.2 (72643) - https://sketchapp.com -->
    <title>3</title>
    <desc>Created with Sketch.</desc>
    <g id="3" stroke="none" stroke-width="1" fill="none" fill-rule="evenodd">
        <g id="腾讯文智自然语言处理-copy" transform="translate(1.000000, 0.000000)" fill="#00A4FF" fill-rule="nonzero">
            <g id="Product-Icons【32】">
                <path d="M7,16 C4.7,16 4.04,14.045 4,13 C3.94747629,12.6522786 3.72668589,12.3529018 3.41,12.2 C2.23,11.535 0,9.59 0,7 C0,4.175 1.865,0 7,0 C11.825,0 14,3.8 14,6.5 C14,8.915 12.835,10.195 10.545,10.31 C9.65749158,10.3838115 8.76614964,10.2234734 7.96,9.845 C7.34580641,10.1306039 6.67733642,10.2806686 6,10.285 C5.27474515,10.2991993 4.57537404,10.0154751 4.065,9.5 C3.325,8.745 2.93,7.5 2.96,6 L3.96,6 C3.96,7.23 4.23,8.215 4.78,8.78 C5.33,9.345 6.235,9.35 6.975,9.14 C6.38764361,8.57805916 6.03860196,7.81195747 6,7 C6,5 6.695,4 8.06,4 C8.91896074,3.96535586 9.71191066,4.45896719 10.06,5.245 C10.56,6.305 10.38,7.785 9.88,8.395 C9.63713559,8.68823073 9.36207488,8.95322824 9.06,9.185 C9.53104963,9.29843456 10.01645,9.34057001 10.5,9.31 C12.255,9.22 13,8.38 13,6.495 C13,4.705 11.535,1 7,1 C2.6,1 1,4.575 1,7 C1,9.23 3.095,10.895 3.9,11.35 C4.52664691,11.6735338 4.94237144,12.2971206 5,13 C5,13.19 5.12,15 7,15 C8.88,15 8.97,13.075 8.97,13 L9.97,13 C9.95,14.045 9.305,16 7,16 Z M8.065,5 C7.5,5 7,5.24 7,7 C7.03278608,7.57538776 7.29157016,8.11452125 7.72,8.5 C7.80343149,8.57904476 7.8919546,8.65253564 7.985,8.72 C8.40399039,8.47162244 8.77904521,8.15569789 9.095,7.785 C9.41613932,7.12907841 9.43440608,6.36552794 9.145,5.695 C8.97164815,5.2554079 8.53690989,4.97564579 8.065,5 Z" id="Shape"></path>
            </g>
        </g>
    </g>
</svg>