<?xml version="1.0" encoding="utf-8"?>
<!-- Generator: Adobe Illustrator 22.1.0, SVG Export Plug-In . SVG Version: 6.00 Build 0)  -->
<svg version="1.1" id="图层_1" xmlns="http://www.w3.org/2000/svg" xmlns:xlink="http://www.w3.org/1999/xlink" x="0px" y="0px"
	 viewBox="0 0 830 332.5" style="enable-background:new 0 0 830 332.5;" xml:space="preserve">
<style type="text/css">
	.st0{display:none;fill:none;stroke:#999999;}
	.st1{fill:none;stroke:#BABABA;stroke-dasharray:5;}
	.st2{opacity:0.6;fill:#BBBBBB;enable-background:new    ;}
	.st3{fill:#FFFFFF;stroke:#E5E5E5;}
	.st4{fill:#00A4FF;}
	.st5{enable-background:new    ;}
	.st6{fill:#444444;}
	.st7{fill:#CEE3FF;}
	.st8{fill:#00A3FF;}
	.st9{fill-opacity:0;}
	.st10{fill:none;stroke:#00A3FF;stroke-width:2;stroke-miterlimit:10;}
	.st11{fill:none;}
	.st12{fill:#878787;}
	.st13{fill:none;stroke:#878787;stroke-miterlimit:10;}
</style>
<path class="st0" d="M0-120.1L0-120.1"/>
<g id="middlegroup" transform="translate(0,0)">
</g>
<path class="st1" d="M3,1.1h176v210.6H3V1.1"/>
<g>
	<rect x="23.9" y="23.7" class="st2" width="132.1" height="50"/>
	<rect x="22" y="21.7" class="st3" width="132.1" height="50"/>
</g>
<g transform="translate(20 9)">
	<g>
		<path class="st4" d="M26.8,51.7c-7.2,0-13-5.8-13-13s5.8-13,13-13c6.4,0,11.9,4.7,12.9,11h2c-1.1-8.2-8.7-14-16.9-12.9
			s-14,8.7-12.9,16.9s8.7,14,16.9,12.9c6.7-0.9,12-6.2,12.9-12.9h-2C38.6,47.1,33.2,51.7,26.8,51.7z M33.8,34.7l-7-4l-7,4v8l3.2,1.8
			c0.2-0.6,0.5-1.2,1-1.7l-2.2-1.3v-3.7l5,2.9l5-2.9v3.7l-4.1,2.4c-1-0.5-2.2-0.1-2.7,0.9s-0.1,2.2,0.9,2.7s2.2,0.1,2.7-0.9
			c0.1-0.3,0.2-0.6,0.2-0.9v-0.1l5-2.9V34.7L33.8,34.7z M26.8,38.4l-4.7-2.7l4.7-2.7l4.7,2.7L26.8,38.4z"/>
	</g>
	<g class="st5">
		<path class="st6" d="M54.1,33.7l2.2,8.4h0.1l2.3-8.4h1.2l2.3,8.4h0.1l2.2-8.4h1.3l-2.9,10h-1.3l-2.3-8.3l0,0L57,43.7h-1.3l-2.9-10
			H54.1z"/>
		<path class="st6" d="M73.9,33.7v1H68V38h5.6v1H68v3.7h6.2v1h-7.3v-10H73.9z"/>
		<path class="st6" d="M80.2,33.7c0.9,0,1.7,0.2,2.2,0.7c0.5,0.4,0.8,1.1,0.8,1.8c0,0.6-0.2,1.1-0.4,1.5c-0.3,0.4-0.7,0.6-1.2,0.8
			c0.7,0.1,1.2,0.4,1.5,0.8c0.4,0.4,0.6,1,0.6,1.6c0,1-0.4,1.7-1,2.2c-0.6,0.4-1.4,0.6-2.4,0.6h-4.4v-10
			C75.9,33.7,80.2,33.7,80.2,33.7z M76.8,38.1h3c0.7,0,1.2-0.2,1.6-0.4c0.4-0.3,0.6-0.7,0.6-1.3s-0.2-1-0.5-1.3s-0.9-0.4-1.6-0.4
			h-3.1V38.1z M76.8,42.8H80c0.7,0,1.2-0.1,1.7-0.4c0.5-0.3,0.7-0.8,0.7-1.4s-0.2-1.1-0.6-1.4c-0.4-0.3-1-0.4-1.8-0.4h-3.2
			C76.8,39.2,76.8,42.8,76.8,42.8z"/>
		<path class="st6" d="M85.7,45.2l-0.8-0.7c0.6-1.3,0.8-2.9,0.9-4.8V33h4.1v10.9c0,0.8-0.4,1.3-1.2,1.3h-1.1l-0.2-0.9
			c0.4,0,0.7,0.1,1.1,0.1s0.5-0.3,0.5-0.8v-3.2h-2.3C86.6,42.3,86.3,43.9,85.7,45.2z M89,33.8h-2.3v2.4H89V33.8z M86.7,39.4H89v-2.3
			h-2.3V39.4z M92,45.2h-1V32.9h5.7c0,1.7-0.1,2.9-0.3,3.4c-0.2,0.6-0.7,0.9-1.6,0.9h-1.1l-0.3-0.9c0.2,0,0.5,0,0.9,0
			c0.3,0,0.6,0,0.7-0.1c0.2-0.1,0.3-0.2,0.4-0.4c0.1-0.3,0.2-1,0.2-2.1H92v4.2h4.8v0.9c-0.3,1.4-0.7,2.7-1.4,3.7
			c0.6,0.6,1.4,1.2,2.2,1.7l-0.5,0.9c-0.9-0.5-1.7-1.1-2.3-1.7c-0.6,0.7-1.3,1.3-2.2,1.7l-0.5-0.8c0.8-0.4,1.5-1,2-1.7
			c-0.9-1.1-1.5-2.3-1.8-3.7H92V45.2z M94.7,41.9c0.5-0.8,0.9-1.8,1.1-2.9h-2.7C93.5,40,94,41,94.7,41.9z"/>
		<path class="st6" d="M104,32.4c-0.2,0.4-0.3,0.7-0.5,1.1h6.1v0.8c-0.9,1-2,1.9-3.3,2.6c1.6,0.7,3.3,1.1,5.3,1.3l-0.5,0.9
			c-2.2-0.3-4.2-0.8-5.9-1.7c-1.7,0.8-3.7,1.4-6,1.7l-0.5-1c2-0.3,3.8-0.7,5.4-1.3c-0.8-0.5-1.5-1-2.2-1.6c-0.5,0.5-1.1,0.9-1.8,1.3
			l-0.6-0.8c1.7-1,2.8-2.1,3.4-3.5L104,32.4z M105.3,38.5c0,0.6-0.1,1.1-0.1,1.6h4.9c0,2.4-0.2,3.8-0.6,4.2
			c-0.4,0.5-1.1,0.7-2.1,0.7c-0.4,0-1,0-1.6-0.1l-0.3-0.9l1.7,0.1c0.8,0,1.4-0.2,1.6-0.5s0.3-1.2,0.4-2.6H105
			c-0.1,0.4-0.3,0.7-0.4,1c-0.7,1.3-2.4,2.3-4.9,3.1L99,44.3c2.3-0.7,3.8-1.5,4.6-2.5c0.2-0.3,0.3-0.5,0.4-0.8h-4.2v-0.9h4.5
			c0.1-0.5,0.2-1,0.2-1.6H105.3z M108.1,34.4h-5.4l-0.2,0.2c0.8,0.7,1.7,1.3,2.6,1.8C106.3,35.8,107.3,35.2,108.1,34.4z"/>
		<path class="st6" d="M117.7,37.6c0.3-0.4,0.5-0.7,0.6-1.1l1,0.1c-0.1,0.4-0.3,0.7-0.5,1h3.6c-0.2-0.3-0.4-0.7-0.6-1l0.9-0.3
			c0.3,0.4,0.5,0.8,0.8,1.2h1.9v0.9h-3.8c0.9,0.8,2.3,1.5,4.1,2l-0.4,0.9c-0.4-0.1-0.7-0.2-1-0.3v4.1h-0.9v-0.6h-2.6v0.6h-0.9v-4.4
			h3.7c-1.3-0.6-2.4-1.4-3.1-2.2h-2.4c-0.8,0.9-1.8,1.6-3.2,2.2h3.5v4.4h-0.9v-0.6h-2.4v0.6h-0.9V41c-0.4,0.1-0.8,0.3-1.1,0.4
			l-0.5-0.8c1.8-0.5,3.2-1.2,4.1-2.1H113v-0.9C113,37.6,117.7,37.6,117.7,37.6z M118.4,32.8v3.4h-4.3v-3.4H118.4z M117.5,33.7H115
			v1.7h2.4L117.5,33.7L117.5,33.7z M117.6,43.7v-2.1h-2.4v2.1H117.6z M124.3,32.8v3.4H120v-3.4H124.3z M123.4,43.7v-2.1h-2.6v2.1
			H123.4z M123.4,33.7h-2.5v1.7h2.5V33.7z"/>
	</g>
</g>
<g>
	<rect x="23.9" y="83.7" class="st2" width="132.1" height="50"/>
	<rect x="22" y="81.7" class="st3" width="132.1" height="50"/>
</g>
<g transform="translate(20 9)">
	<g>
		<path class="st4" d="M28.5,111.7c-7.2,0-13-5.8-13-13s5.8-13,13-13c6.4,0,11.9,4.7,12.9,11h2c-1.1-8.2-8.7-14-16.9-12.9
			s-14,8.7-12.9,16.9s8.7,14,16.9,12.9c6.7-0.9,12-6.2,12.9-12.9h-2C40.4,107.1,34.9,111.7,28.5,111.7z M35.5,94.7l-7-4l-7,4v8
			l3.2,1.8c0.2-0.6,0.5-1.2,1-1.7l-2.2-1.3v-3.7l5,2.9l5-2.9v3.7l-4.1,2.4c-1-0.5-2.2-0.1-2.7,0.9s-0.1,2.2,0.9,2.7s2.2,0.1,2.7-0.9
			c0.1-0.3,0.2-0.6,0.2-0.9v-0.1l5-2.9V94.7L35.5,94.7z M28.5,98.4l-4.7-2.7l4.7-2.7l4.7,2.7L28.5,98.4z"/>
	</g>
	<g class="st5">
		<path class="st6" d="M57.8,100.2c-0.5,1.7-1.1,3.3-1.8,4.7l-0.9-0.4c0.7-1.5,1.3-3.1,1.8-4.7L57.8,100.2z M57.9,97.9l-0.7,0.7
			c-0.5-0.6-1.1-1.3-2-1.9l0.7-0.7C56.7,96.7,57.3,97.3,57.9,97.9z M57.8,94.3L57.1,95c-0.5-0.6-1.1-1.2-1.9-1.8l0.7-0.7
			C56.7,93.2,57.3,93.7,57.8,94.3z M58,95.5v-1h2c-0.2-0.8-0.4-1.5-0.6-2.1l1-0.2c0.2,0.7,0.4,1.4,0.6,2.3h1.6v1h-2.5v1
			c0,0.4,0,0.7,0,1.1h2.3c0,3.3-0.1,5.3-0.2,6.1c-0.1,0.9-0.5,1.3-1.3,1.3c-0.2,0-0.5,0-1-0.1l-0.2-0.9c0.4,0,0.8,0,1.1,0
			s0.4-0.3,0.5-0.8s0.2-2.1,0.2-4.7H60c-0.2,2.9-0.8,5.1-1.9,6.6l-0.7-0.7c1.1-1.7,1.7-4.3,1.7-8v-1L58,95.5L58,95.5z M62.7,97.5
			l-0.6-0.8c0.9-1.1,1.5-2.6,1.8-4.6l1,0.2c-0.1,0.7-0.3,1.3-0.4,1.9H68v1h-3.8C63.7,96.1,63.3,96.9,62.7,97.5z M67.5,96.7v0.9
			c-0.4,0.6-0.9,1.1-1.5,1.7v0.9h2v0.9h-2v2.5c0,0.9-0.4,1.3-1.1,1.3h-1.2l-0.2-0.9c0.3,0,0.7,0,1.1,0c0.3,0,0.4-0.3,0.4-0.7v-2.2
			h-2.1v-0.9H65v-1c0.6-0.6,1-1.2,1.3-1.5h-2.7v-0.9h3.9V96.7z"/>
		<path class="st6" d="M72.5,98.6c0.4-1.2,0.7-2.5,0.9-3.9h-3.7v-1h4.7v0.9c-0.1,1.8-0.5,3.5-1.1,4.9c0.6,0.8,1.2,1.6,1.7,2.4
			l-0.7,0.7c-0.4-0.7-0.9-1.4-1.4-2.1c-0.8,1.4-1.8,2.7-3.1,3.7l-0.6-0.8c1.3-1.1,2.3-2.4,3-3.9c-0.8-1-1.6-1.9-2.5-2.9l0.7-0.7
			C71.1,96.8,71.8,97.7,72.5,98.6z M81.5,96.6l-3.8,0.6c0.1,0.7,0.1,1.3,0.2,1.8c0.1,0.7,0.3,1.2,0.4,1.8c0.8-0.9,1.4-1.9,2-3.1
			l0.8,0.5c-0.8,1.4-1.6,2.6-2.5,3.6c0.1,0.3,0.2,0.5,0.3,0.8c0.4,0.8,0.8,1.2,1.2,1.2c0.2-0.1,0.5-0.9,0.7-2.5l0.9,0.6
			c-0.2,0.8-0.4,1.5-0.6,2c-0.3,0.7-0.6,1-0.9,1c-0.6,0-1.1-0.4-1.7-1.3c-0.2-0.3-0.4-0.7-0.6-1.1c-0.9,0.8-1.9,1.5-2.9,1.9
			l-0.6-0.8c1.2-0.5,2.2-1.1,3.2-2c-0.2-0.6-0.4-1.2-0.5-1.8c-0.2-0.7-0.3-1.5-0.4-2.4l-1.8,0.3l-0.2-1l1.8-0.3
			c-0.1-1.2-0.2-2.5-0.2-4h1c0,1.4,0,2.7,0.1,3.9l3.7-0.6L81.5,96.6z M80.7,94.5l-0.8,0.6c-0.4-0.6-0.9-1.2-1.5-1.9l0.8-0.5
			C79.9,93.4,80.4,94,80.7,94.5z"/>
		<path class="st6" d="M84,105.2l-0.8-0.7c0.6-1.3,0.8-2.9,0.9-4.8V93h4.1v10.9c0,0.8-0.4,1.3-1.2,1.3h-1.1l-0.2-0.9
			c0.4,0,0.7,0.1,1.1,0.1s0.5-0.3,0.5-0.8v-3.2H85C85,102.3,84.6,103.9,84,105.2z M87.3,93.8H85v2.4h2.3V93.8z M85.1,99.4h2.3v-2.3
			h-2.3V99.4z M90.4,105.2h-1V92.9h5.7c0,1.7-0.1,2.9-0.3,3.4c-0.2,0.6-0.7,0.9-1.6,0.9h-1.1l-0.3-0.9c0.2,0,0.5,0,0.9,0
			c0.3,0,0.6,0,0.7-0.1c0.2-0.1,0.3-0.2,0.4-0.4c0.1-0.3,0.2-1,0.2-2.1h-3.7v4.2h4.8v0.9c-0.3,1.4-0.7,2.7-1.4,3.7
			c0.6,0.6,1.4,1.2,2.2,1.7l-0.5,0.9c-0.9-0.5-1.7-1.1-2.3-1.7c-0.6,0.7-1.3,1.3-2.2,1.7l-0.5-0.8c0.8-0.4,1.5-1,2-1.7
			c-0.9-1.1-1.5-2.3-1.8-3.7h-0.3v6.3C90.3,105.2,90.4,105.2,90.4,105.2z M93.1,101.9c0.5-0.8,0.9-1.8,1.1-2.9h-2.7
			C91.9,100,92.4,101,93.1,101.9z"/>
		<path class="st6" d="M102.3,92.4c-0.2,0.4-0.3,0.7-0.5,1.1h6.1v0.8c-0.9,1-2,1.9-3.3,2.6c1.6,0.7,3.3,1.1,5.3,1.3l-0.5,0.9
			c-2.2-0.3-4.2-0.8-5.9-1.7c-1.7,0.8-3.7,1.4-6,1.7l-0.5-1c2-0.3,3.8-0.7,5.4-1.3c-0.8-0.5-1.5-1-2.2-1.6c-0.5,0.5-1.1,0.9-1.8,1.3
			l-0.6-0.8c1.7-1,2.8-2.1,3.4-3.5L102.3,92.4z M103.7,98.5c0,0.6-0.1,1.1-0.1,1.6h4.9c0,2.4-0.2,3.8-0.6,4.2
			c-0.4,0.5-1.1,0.7-2.1,0.7c-0.4,0-1,0-1.6-0.1l-0.3-0.9l1.7,0.1c0.8,0,1.4-0.2,1.6-0.5s0.3-1.2,0.4-2.6h-4.1
			c-0.1,0.4-0.3,0.7-0.4,1c-0.7,1.3-2.4,2.3-4.9,3.1l-0.7-0.8c2.3-0.7,3.8-1.5,4.6-2.5c0.2-0.3,0.3-0.5,0.4-0.8h-4.2v-0.9h4.5
			c0.1-0.5,0.2-1,0.2-1.6L103.7,98.5L103.7,98.5z M106.5,94.4h-5.4l-0.2,0.2c0.8,0.7,1.7,1.3,2.6,1.8
			C104.7,95.8,105.6,95.2,106.5,94.4z"/>
		<path class="st6" d="M116,97.6c0.3-0.4,0.5-0.7,0.6-1.1l1,0.1c-0.1,0.4-0.3,0.7-0.5,1h3.6c-0.2-0.3-0.4-0.7-0.6-1l0.9-0.3
			c0.3,0.4,0.5,0.8,0.8,1.2h1.9v0.9h-3.8c0.9,0.8,2.3,1.5,4.1,2l-0.4,0.9c-0.4-0.1-0.7-0.2-1-0.3v4.1h-0.9v-0.6h-2.6v0.6h-0.9v-4.4
			h3.7c-1.3-0.6-2.4-1.4-3.1-2.2h-2.4c-0.8,0.9-1.8,1.6-3.2,2.2h3.5v4.4h-0.9v-0.6h-2.4v0.6h-0.9V101c-0.4,0.1-0.8,0.3-1.1,0.4
			l-0.5-0.8c1.8-0.5,3.2-1.2,4.1-2.1h-3.9v-0.9H116z M116.7,92.8v3.4h-4.3v-3.4H116.7z M115.8,93.7h-2.4v1.7h2.4V93.7z M115.9,103.7
			v-2.1h-2.4v2.1H115.9z M122.6,92.8v3.4h-4.4v-3.4H122.6z M121.7,103.7v-2.1h-2.6v2.1H121.7z M121.7,93.7h-2.5v1.7h2.5V93.7z"/>
	</g>
</g>
<g>
	<rect x="23.9" y="143.7" class="st2" width="132.1" height="50"/>
	<rect x="22" y="141.7" class="st3" width="132.1" height="50"/>
</g>
<g transform="translate(20 9)">
	<g>
		<path class="st4" d="M28.9,171.7c-7.2,0-13-5.8-13-13s5.8-13,13-13c6.4,0,11.9,4.7,12.9,11h2c-1.1-8.2-8.7-14-16.9-12.9
			s-14,8.7-12.9,16.9s8.7,14,16.9,12.9c6.7-0.9,12-6.2,12.9-12.9h-2C40.8,167.1,35.3,171.7,28.9,171.7z M35.9,154.7l-7-4l-7,4v8
			l3.2,1.8c0.2-0.6,0.5-1.2,1-1.7l-2.2-1.3v-3.7l5,2.9l5-2.9v3.7l-4.1,2.4c-1-0.5-2.2-0.1-2.7,0.9S27,167,28,167.5s2.2,0.1,2.7-0.9
			c0.1-0.3,0.2-0.6,0.2-0.9v-0.1l5-2.9V154.7z M28.9,158.4l-4.7-2.7l4.7-2.7l4.7,2.7L28.9,158.4z"/>
	</g>
	<g class="st5">
		<path class="st6" d="M60.2,153.7l3.9,10h-1.2l-1.1-2.8h-4.6l-1.1,2.8h-1.2l3.9-10H60.2z M61.4,160l-1.9-5h-0.1l-1.9,5H61.4z"/>
		<path class="st6" d="M69.2,153.7c2.3,0,3.4,1,3.4,2.9c0,2-1.2,3-3.5,3h-2.9v4.1h-1.1v-10H69.2z M66.3,158.7h2.9
			c0.8,0,1.4-0.2,1.8-0.5s0.6-0.8,0.6-1.5s-0.2-1.2-0.6-1.5s-1-0.5-1.8-0.5h-2.9V158.7z"/>
		<path class="st6" d="M78.2,153.7c2.3,0,3.4,1,3.4,2.9c0,2-1.2,3-3.5,3h-2.9v4.1h-1.1v-10H78.2z M75.3,158.7h2.9
			c0.8,0,1.4-0.2,1.8-0.5s0.6-0.8,0.6-1.5s-0.2-1.2-0.6-1.5s-1-0.5-1.8-0.5h-2.9V158.7z"/>
		<path class="st6" d="M83.6,165.2l-0.8-0.7c0.6-1.3,0.8-2.9,0.9-4.8V153h4.1v10.9c0,0.8-0.4,1.3-1.2,1.3h-1.1l-0.2-0.9
			c0.4,0,0.7,0.1,1.1,0.1s0.5-0.3,0.5-0.8v-3.2h-2.3C84.5,162.3,84.2,163.9,83.6,165.2z M86.9,153.8h-2.3v2.4h2.3V153.8z
			 M84.6,159.4h2.3v-2.3h-2.3V159.4z M89.9,165.2h-1v-12.3h5.7c0,1.7-0.1,2.9-0.3,3.4c-0.2,0.6-0.7,0.9-1.6,0.9h-1.1l-0.3-0.9
			c0.2,0,0.5,0,0.9,0c0.3,0,0.6,0,0.7-0.1c0.2-0.1,0.3-0.2,0.4-0.4c0.1-0.3,0.2-1,0.2-2.1h-3.7v4.2h4.8v0.9
			c-0.3,1.4-0.7,2.7-1.4,3.7c0.6,0.6,1.4,1.2,2.2,1.7l-0.5,0.9c-0.9-0.5-1.7-1.1-2.3-1.7c-0.6,0.7-1.3,1.3-2.2,1.7l-0.5-0.8
			c0.8-0.4,1.5-1,2-1.7c-0.9-1.1-1.5-2.3-1.8-3.7h-0.3v6.3L89.9,165.2L89.9,165.2z M92.7,161.9c0.5-0.8,0.9-1.8,1.1-2.9h-2.7
			C91.4,160,91.9,161,92.7,161.9z"/>
		<path class="st6" d="M101.9,152.4c-0.2,0.4-0.3,0.7-0.5,1.1h6.1v0.8c-0.9,1-2,1.9-3.3,2.6c1.6,0.7,3.3,1.1,5.3,1.3l-0.5,0.9
			c-2.2-0.3-4.2-0.8-5.9-1.7c-1.7,0.8-3.7,1.4-6,1.7l-0.5-1c2-0.3,3.8-0.7,5.4-1.3c-0.8-0.5-1.5-1-2.2-1.6c-0.5,0.5-1.1,0.9-1.8,1.3
			l-0.6-0.8c1.7-1,2.8-2.1,3.4-3.5L101.9,152.4z M103.3,158.5c0,0.6-0.1,1.1-0.1,1.6h4.9c0,2.4-0.2,3.8-0.6,4.2
			c-0.4,0.5-1.1,0.7-2.1,0.7c-0.4,0-1,0-1.6-0.1l-0.3-0.9l1.7,0.1c0.8,0,1.4-0.2,1.6-0.5s0.3-1.2,0.4-2.6h-4.1
			c-0.1,0.4-0.3,0.7-0.4,1.1c-0.7,1.3-2.4,2.3-4.9,3.1l-0.7-0.8c2.3-0.7,3.8-1.5,4.6-2.5c0.2-0.3,0.3-0.5,0.4-0.8h-4.2v-0.9h4.5
			c0.1-0.5,0.2-1,0.2-1.6h0.7V158.5z M106.1,154.4h-5.4l-0.2,0.2c0.8,0.7,1.7,1.3,2.6,1.8C104.2,155.8,105.2,155.2,106.1,154.4z"/>
		<path class="st6" d="M115.6,157.6c0.3-0.4,0.5-0.7,0.6-1.1l1,0.1c-0.1,0.4-0.3,0.7-0.5,1h3.6c-0.2-0.3-0.4-0.7-0.6-1l0.9-0.3
			c0.3,0.4,0.5,0.8,0.8,1.2h1.9v0.9h-3.8c0.9,0.8,2.3,1.5,4.1,2l-0.4,0.9c-0.4-0.1-0.7-0.2-1-0.3v4.1h-0.9v-0.6h-2.6v0.6h-0.9v-4.4
			h3.7c-1.3-0.6-2.4-1.4-3.1-2.2H116c-0.8,0.9-1.8,1.6-3.2,2.2h3.5v4.4h-0.9v-0.6H113v0.6h-0.9V161c-0.4,0.1-0.8,0.3-1.1,0.4
			l-0.5-0.8c1.8-0.5,3.2-1.2,4.1-2.1h-3.9v-0.9L115.6,157.6L115.6,157.6z M116.3,152.8v3.4H112v-3.4H116.3z M115.4,153.7H113v1.7
			h2.4V153.7z M115.5,163.7v-2.1h-2.4v2.1H115.5z M122.2,152.8v3.4h-4.4v-3.4H122.2z M121.3,163.7v-2.1h-2.6v2.1H121.3z
			 M121.3,153.7h-2.5v1.7h2.5V153.7z"/>
	</g>
</g>
<g>
	<rect x="23.4" y="281.9" class="st2" width="132.1" height="50"/>
	<rect x="21.5" y="279.9" class="st3" width="132.1" height="50"/>
</g>
<g transform="translate(20 9)">
	<g class="st5">
		<path class="st6" d="M37.3,296.1l-0.7,0.7c-0.6-0.7-1.3-1.4-2.3-2.1L35,294C35.9,294.7,36.6,295.4,37.3,296.1z M37.6,298.1
			c-0.7,1.8-1.5,3.5-2.3,5.1l-0.9-0.4c0.9-1.6,1.7-3.3,2.3-5L37.6,298.1z M37.8,292.8l-0.7,0.7c-0.6-0.7-1.4-1.4-2.4-2.1l0.7-0.7
			C36.3,291.4,37.1,292.1,37.8,292.8z M40.6,293.3l-0.8,0.4c-0.5-0.9-1-1.7-1.6-2.4l0.8-0.4C39.6,291.6,40.1,292.4,40.6,293.3z
			 M42.9,290.5v3.8h3v7.5c0,0.9-0.4,1.4-1.3,1.4H43l-0.3-1h1.6c0.4,0,0.7-0.2,0.7-0.7v-1.4h-5.1v3h-1v-8.9h3v-3.8h1V290.5z
			 M44.9,295.3h-5.1v1.6h5.1V295.3z M39.8,299.4h5.1v-1.6h-5.1V299.4z M46.5,291.2c-0.4,0.9-1,1.8-1.6,2.6l-0.8-0.4
			c0.7-0.9,1.2-1.7,1.6-2.6L46.5,291.2z"/>
		<path class="st6" d="M50.4,299.5c-0.3,1.3-0.8,2.4-1.4,3.3l-0.9-0.5c0.6-0.9,1-1.9,1.3-3L50.4,299.5z M53.2,291.5
			c0.2-0.4,0.3-0.7,0.4-1.1l1.1,0.1c-0.1,0.3-0.3,0.7-0.4,1h4.6v6.8h-8.8v-6.8H53.2z M57.9,293.5v-1.1h-6.8v1.1H57.9z M57.9,295.5
			v-1.1h-6.8v1.1H57.9z M57.9,296.3h-6.8v1.2h6.8V296.3z M52.6,303.1c-0.8,0-1.2-0.4-1.2-1.2v-2.7h1v2.5c0,0.3,0.2,0.5,0.5,0.5H56
			c0.3,0,0.5-0.1,0.7-0.2c0.2-0.2,0.3-0.7,0.4-1.7l1,0.3c-0.1,1.2-0.3,1.9-0.6,2.2c-0.3,0.2-0.7,0.3-1.2,0.3L52.6,303.1L52.6,303.1z
			 M56.1,300.7l-0.8,0.5c-0.4-0.6-1-1.3-1.7-2l0.7-0.5C55.1,299.5,55.7,300.1,56.1,300.7z M60.9,302l-0.8,0.6c-0.5-0.9-1.2-1.9-2-3
			l0.8-0.5C59.7,300.2,60.4,301.2,60.9,302z"/>
		<path class="st6" d="M69,290.4v2.5h5v6.6h-1v-0.9h-4v4.8h-1v-4.8h-4v0.9h-1v-6.6h5v-2.5H69z M68,297.7V294h-4v3.7H68z M73,297.7
			V294h-4v3.7H73z"/>
		<path class="st6" d="M77.8,292.8v10.5h-1v-10.5H77.8z M80.6,292.9l-0.9,0.5c-0.5-1-1.1-1.8-1.7-2.6l0.9-0.4
			C79.5,291.1,80.1,292,80.6,292.9z M85.1,294.3v6.5h-5.3v-6.5H85.1z M84.1,297.1v-1.9h-3.4v1.9H84.1z M84.1,298h-3.4v1.9h3.4V298z
			 M85.5,303.2l-0.3-0.9h1.2c0.4,0,0.6-0.3,0.6-0.9v-9.3h-5.4v-0.9H88v10.5c0,1-0.5,1.5-1.4,1.5L85.5,303.2L85.5,303.2z"/>
		<path class="st6" d="M95,295.8c0.3-0.4,0.5-0.7,0.6-1.1l1,0.1c-0.1,0.4-0.3,0.7-0.5,1h3.6c-0.2-0.3-0.4-0.7-0.6-1l0.9-0.3
			c0.3,0.4,0.5,0.8,0.8,1.2h1.9v0.9h-3.8c0.9,0.8,2.3,1.5,4.1,2l-0.4,0.9c-0.4-0.1-0.7-0.2-1-0.3v4.1h-0.9v-0.6H98v0.6h-0.9v-4.4
			h3.7c-1.3-0.6-2.4-1.4-3.1-2.2h-2.4c-0.8,0.9-1.8,1.6-3.2,2.2h3.5v4.4h-0.9v-0.6h-2.4v0.6h-0.9v-4.1c-0.4,0.1-0.8,0.3-1.1,0.4
			l-0.5-0.8c1.8-0.5,3.2-1.2,4.1-2.1H90v-0.9L95,295.8L95,295.8z M95.7,291v3.4h-4.3V291H95.7z M94.8,291.9h-2.4v1.7h2.4V291.9z
			 M94.9,301.9v-2.1h-2.4v2.1H94.9z M101.6,291v3.4h-4.4V291H101.6z M100.7,301.9v-2.1H98v2.1H100.7z M100.7,291.9h-2.5v1.7h2.5
			V291.9z"/>
	</g>
</g>
<g>
	<rect x="228.5" y="38.4" class="st7" width="170" height="293.2"/>
	<g>
		<g>
			<rect x="251" y="83.6" class="st2" width="127.4" height="50"/>
			<rect x="249.4" y="81.6" class="st3" width="127.4" height="50"/>
		</g>
		<g transform="translate(20 9)">
			<g class="st5">
				<path class="st6" d="M281.4,93.5c0.7,0.5,1.1,1.3,1.1,2.4h-1.1c-0.1-0.7-0.4-1.3-0.8-1.6c-0.4-0.4-1.1-0.5-1.9-0.5
					c-0.7,0-1.3,0.1-1.7,0.4c-0.5,0.3-0.7,0.7-0.7,1.3c0,0.5,0.3,0.9,0.9,1.2c0.3,0.1,0.9,0.3,1.8,0.6c1.3,0.4,2.2,0.7,2.6,1
					c0.8,0.5,1.2,1.2,1.2,2.1s-0.4,1.6-1.1,2.1s-1.6,0.7-2.8,0.7c-1.2,0-2.1-0.3-2.8-0.8c-0.8-0.6-1.2-1.5-1.3-2.7h1.1
					c0.1,0.9,0.4,1.5,0.9,1.9s1.1,0.6,2,0.6c0.8,0,1.5-0.2,2-0.5s0.8-0.7,0.8-1.3c0-0.6-0.3-1.1-1-1.5c-0.3-0.2-1-0.4-2.1-0.7
					c-1.2-0.4-2-0.6-2.3-0.8c-0.8-0.4-1.1-1.1-1.1-1.9c0-0.9,0.4-1.6,1.1-2s1.5-0.7,2.5-0.7C279.8,92.7,280.7,93,281.4,93.5z"/>
				<path class="st6" d="M286,95.7h1.8v0.9H286v4.6c0,0.3,0,0.5,0.2,0.6c0.1,0.1,0.3,0.2,0.5,0.2h0.9v0.9h-1.1c-0.6,0-1-0.2-1.3-0.5
					c-0.2-0.3-0.4-0.7-0.4-1.2v-4.6h-1.5v-0.9h1.5v-1.9l1.1-0.5L286,95.7L286,95.7z"/>
				<path class="st6" d="M294.8,96.6c0.6,0.7,0.9,1.6,0.9,2.7s-0.3,2-0.9,2.7c-0.7,0.8-1.5,1.1-2.6,1.1s-1.9-0.4-2.6-1.1
					c-0.6-0.7-0.9-1.6-0.9-2.7s0.3-2,0.9-2.7c0.6-0.8,1.5-1.1,2.6-1.1S294.2,95.9,294.8,96.6z M290.5,97.3c-0.4,0.5-0.6,1.2-0.6,2
					s0.2,1.5,0.6,2c0.4,0.6,1,0.9,1.8,0.9s1.4-0.3,1.8-0.9c0.4-0.5,0.6-1.2,0.6-2s-0.2-1.5-0.6-2c-0.4-0.6-1.1-0.9-1.8-0.9
					C291.5,96.4,290.9,96.7,290.5,97.3z"/>
				<path class="st6" d="M301.4,95.7v1.1c-0.4-0.1-0.7-0.2-1.1-0.2c-0.6,0-1,0.2-1.4,0.7s-0.6,1-0.6,1.7v3.8h-1.1v-7.2h1.1V97
					c0.2-0.4,0.4-0.8,0.8-1c0.4-0.3,0.8-0.5,1.3-0.5C300.8,95.5,301.1,95.6,301.4,95.7z"/>
				<path class="st6" d="M307.8,96.9c0.3-0.5,0.6-0.8,1-1s0.8-0.3,1.3-0.3c0.8,0,1.4,0.2,1.8,0.7s0.7,1.1,0.7,2v4.7h-1.1v-4.6
					c0-0.6-0.1-1.1-0.4-1.4s-0.7-0.5-1.3-0.5c-0.5,0-0.9,0.2-1.2,0.5c-0.3,0.4-0.5,0.8-0.5,1.4v4.5H307v-4.6c0-1.3-0.6-1.9-1.7-1.9
					c-0.5,0-0.9,0.2-1.3,0.6c-0.3,0.4-0.5,0.9-0.5,1.5v4.4h-1.1v-7.2h1.1v1c0.5-0.8,1.2-1.2,2-1.2C306.6,95.5,307.4,96,307.8,96.9z"
					/>
			</g>
		</g>
	</g>
	<g>
		<g>
			<rect x="251.5" y="203.6" class="st2" width="126.4" height="50"/>
			<rect x="249.9" y="201.6" class="st3" width="126.4" height="50"/>
		</g>
		<g transform="translate(20 9)">
			<g class="st5">
				<path class="st6" d="M286.4,212.9v1h-5.5v3.4h5.3v1h-5.3v4.7h-1.1v-10L286.4,212.9L286.4,212.9z"/>
				<path class="st6" d="M289,212.7v10.2h-1.1v-10.2H289z"/>
				<path class="st6" d="M292.5,213.2c0.2,0.1,0.3,0.3,0.3,0.6c0,0.2-0.1,0.4-0.3,0.6c-0.2,0.2-0.4,0.2-0.6,0.2s-0.4-0.1-0.6-0.2
					c-0.2-0.2-0.2-0.4-0.2-0.6c0-0.3,0.1-0.4,0.2-0.6c0.2-0.2,0.4-0.2,0.6-0.2S292.3,213,292.5,213.2z M292.5,215.7v7.2h-1.1v-7.2
					H292.5z"/>
				<path class="st6" d="M300.7,218.5v4.5h-1.1v-4.4c0-1.4-0.6-2.1-1.9-2.1c-0.5,0-0.9,0.2-1.3,0.5c-0.4,0.4-0.6,0.9-0.6,1.6v4.4
					h-1.1v-7.2h1.1v1.1c0.3-0.4,0.6-0.7,1-0.9s0.8-0.3,1.3-0.3C299.7,215.5,300.7,216.5,300.7,218.5z"/>
				<path class="st6" d="M303.5,212.7v6.3l3.6-3.4h1.5l-3.2,2.9l3.5,4.3h-1.4l-2.8-3.6l-1.1,1v2.6h-1.1v-10.2L303.5,212.7
					L303.5,212.7z"/>
			</g>
		</g>
	</g>
	<g>
		<g>
			<rect x="251.5" y="143.6" class="st2" width="127" height="50"/>
			<rect x="249.5" y="141.6" class="st3" width="127" height="50"/>
		</g>
		<g transform="translate(20 9)">
			<g class="st5">
				<path class="st6" d="M247.8,153.5c0.7,0.5,1.1,1.3,1.1,2.4h-1.1c-0.1-0.7-0.4-1.3-0.8-1.6c-0.4-0.4-1.1-0.5-1.9-0.5
					c-0.7,0-1.3,0.1-1.7,0.4c-0.5,0.3-0.7,0.7-0.7,1.3c0,0.5,0.3,0.9,0.9,1.2c0.3,0.1,0.9,0.3,1.8,0.6c1.3,0.4,2.2,0.7,2.6,1
					c0.8,0.5,1.2,1.2,1.2,2.1c0,0.9-0.4,1.6-1.1,2.1c-0.7,0.5-1.6,0.7-2.8,0.7s-2.1-0.3-2.8-0.8c-0.8-0.6-1.2-1.5-1.3-2.7h1.1
					c0.1,0.9,0.4,1.5,0.9,1.9s1.1,0.6,2,0.6c0.8,0,1.5-0.2,2-0.5s0.8-0.7,0.8-1.3s-0.3-1.1-1-1.5c-0.3-0.2-1-0.4-2.1-0.7
					c-1.2-0.4-2-0.6-2.3-0.8c-0.8-0.4-1.1-1.1-1.1-1.9c0-0.9,0.4-1.6,1.1-2c0.7-0.4,1.5-0.7,2.5-0.7
					C246.2,152.7,247.1,153,247.8,153.5z"/>
				<path class="st6" d="M256.4,156.7c0.5,0.7,0.8,1.6,0.8,2.7c0,1.1-0.3,1.9-0.8,2.6c-0.6,0.8-1.4,1.1-2.4,1.1s-1.8-0.5-2.4-1.5
					v4.1h-1.1v-10h1.1v1.2c0.5-0.9,1.3-1.4,2.4-1.4C254.9,155.5,255.8,155.9,256.4,156.7z M252.1,157.3c-0.4,0.5-0.5,1.2-0.5,2v0.1
					c0,0.8,0.2,1.5,0.6,2c0.4,0.5,0.9,0.8,1.6,0.8c0.8,0,1.4-0.3,1.8-0.8s0.5-1.2,0.5-2.1c0-0.9-0.2-1.5-0.5-2
					c-0.4-0.6-1-0.9-1.8-0.9C253,156.4,252.5,156.7,252.1,157.3z"/>
				<path class="st6" d="M264.1,156.3c0.4,0.5,0.6,1.1,0.6,2v4.7h-1.1v-1.2c-0.3,0.4-0.7,0.7-1.1,1c-0.5,0.3-1.1,0.4-1.8,0.4
					c-0.7,0-1.3-0.2-1.7-0.5c-0.4-0.4-0.7-0.9-0.7-1.5c0-0.8,0.3-1.4,1-1.9c0.6-0.4,1.4-0.6,2.5-0.6h1.7v-0.4c0-1.2-0.6-1.8-1.9-1.8
					c-0.5,0-1,0.1-1.3,0.3c-0.4,0.2-0.6,0.6-0.7,1l-1.1-0.1c0.2-0.8,0.5-1.3,1.1-1.7c0.5-0.3,1.2-0.5,2.1-0.5
					C262.8,155.5,263.6,155.8,264.1,156.3z M261.9,159.5c-1.6,0-2.4,0.6-2.4,1.6c0,0.3,0.1,0.6,0.4,0.8s0.6,0.3,1.1,0.3
					c0.7,0,1.3-0.2,1.8-0.7c0.5-0.4,0.8-0.9,0.8-1.5v-0.6L261.9,159.5z"/>
				<path class="st6" d="M270.6,155.7v1.1c-0.4-0.1-0.7-0.2-1.1-0.2c-0.6,0-1,0.2-1.4,0.7s-0.6,1-0.6,1.7v3.8h-1.1v-7.2h1.1v1.3
					c0.2-0.4,0.4-0.8,0.8-1c0.4-0.3,0.8-0.5,1.3-0.5C270,155.5,270.4,155.6,270.6,155.7z"/>
				<path class="st6" d="M272.7,152.7v6.3l3.6-3.4h1.5l-3.2,2.9l3.5,4.3h-1.4l-2.8-3.6l-1.1,1v2.6h-1.1v-10.2L272.7,152.7
					L272.7,152.7z"/>
				<path class="st6" d="M289.2,157.8h-1.1c-0.1-0.4-0.3-0.8-0.6-1c-0.3-0.2-0.8-0.3-1.3-0.3s-0.9,0.1-1.2,0.3
					c-0.3,0.2-0.5,0.4-0.5,0.8c0,0.3,0.2,0.6,0.6,0.8c0.3,0.1,0.8,0.3,1.5,0.5c0.9,0.2,1.5,0.4,1.9,0.7c0.6,0.4,0.9,0.9,0.9,1.5
					c0,1.5-1,2.2-3.1,2.2c-1.9,0-2.9-0.8-3.1-2.5h1.1c0.1,0.6,0.3,1,0.6,1.2c0.3,0.2,0.8,0.3,1.4,0.3c1.3,0,1.9-0.4,1.9-1.2
					c0-0.4-0.2-0.7-0.7-0.9c-0.2-0.1-0.8-0.3-1.5-0.5c-0.9-0.2-1.5-0.4-1.8-0.6c-0.6-0.3-0.8-0.8-0.8-1.4s0.3-1.1,0.8-1.5
					s1.2-0.5,2-0.5C288,155.5,289,156.2,289.2,157.8z"/>
				<path class="st6" d="M292.6,155.7h1.8v0.9h-1.8v4.6c0,0.3,0,0.5,0.2,0.6c0.1,0.1,0.3,0.2,0.5,0.2h0.9v0.9h-1.1
					c-0.6,0-1-0.2-1.3-0.5c-0.2-0.3-0.4-0.7-0.4-1.2v-4.6h-1.5v-0.9h1.5v-1.9l1.1-0.5L292.6,155.7L292.6,155.7z"/>
				<path class="st6" d="M299.9,155.7v1.1c-0.4-0.1-0.7-0.2-1.1-0.2c-0.6,0-1,0.2-1.4,0.7s-0.6,1-0.6,1.7v3.8h-1.1v-7.2h1.1v1.3
					c0.2-0.4,0.4-0.8,0.8-1c0.4-0.3,0.8-0.5,1.3-0.5C299.3,155.5,299.6,155.6,299.9,155.7z"/>
				<path class="st6" d="M306.4,156.7c0.5,0.7,0.8,1.7,0.8,3h-5.7c0.1,0.8,0.3,1.4,0.7,1.9c0.4,0.4,0.9,0.7,1.6,0.7
					c0.6,0,1.1-0.2,1.4-0.4c0.3-0.3,0.5-0.6,0.7-1.1h1.1c-0.2,0.7-0.5,1.3-1,1.7c-0.6,0.5-1.4,0.8-2.3,0.8c-1,0-1.9-0.4-2.5-1
					c-0.6-0.7-1-1.6-1-2.8c0-1.1,0.3-2,0.9-2.7c0.6-0.8,1.4-1.1,2.5-1.1C304.9,155.5,305.8,155.9,306.4,156.7z M302.3,157.1
					c-0.4,0.4-0.6,1-0.7,1.7h4.5c-0.1-1.6-0.9-2.3-2.3-2.3C303.2,156.4,302.6,156.7,302.3,157.1z"/>
				<path class="st6" d="M314,156.3c0.4,0.5,0.6,1.1,0.6,2v4.7h-1.1v-1.2c-0.3,0.4-0.7,0.7-1.1,1c-0.5,0.3-1.1,0.4-1.8,0.4
					c-0.7,0-1.3-0.2-1.7-0.5c-0.4-0.4-0.7-0.9-0.7-1.5c0-0.8,0.3-1.4,1-1.9c0.6-0.4,1.4-0.6,2.5-0.6h1.7v-0.4c0-1.2-0.6-1.8-1.9-1.8
					c-0.5,0-1,0.1-1.3,0.3c-0.4,0.2-0.6,0.6-0.7,1l-1.1-0.1c0.2-0.8,0.5-1.3,1.1-1.7c0.5-0.3,1.2-0.5,2.1-0.5
					C312.8,155.5,313.5,155.8,314,156.3z M311.9,159.5c-1.6,0-2.4,0.6-2.4,1.6c0,0.3,0.1,0.6,0.4,0.8s0.6,0.3,1.1,0.3
					c0.7,0,1.3-0.2,1.8-0.7c0.5-0.4,0.8-0.9,0.8-1.5v-0.6L311.9,159.5z"/>
				<path class="st6" d="M321.8,156.9c0.3-0.5,0.6-0.8,1-1s0.8-0.3,1.3-0.3c0.8,0,1.4,0.2,1.8,0.7s0.7,1.1,0.7,2v4.7h-1.1v-4.6
					c0-0.6-0.1-1.1-0.4-1.4c-0.3-0.3-0.7-0.5-1.3-0.5c-0.5,0-0.9,0.2-1.2,0.5c-0.3,0.4-0.5,0.8-0.5,1.4v4.5H321v-4.6
					c0-1.3-0.6-1.9-1.7-1.9c-0.5,0-0.9,0.2-1.3,0.6c-0.3,0.4-0.5,0.9-0.5,1.5v4.4h-1.1v-7.2h1.1v1c0.5-0.8,1.2-1.2,2-1.2
					C320.7,155.5,321.4,156,321.8,156.9z"/>
				<path class="st6" d="M329.9,153.2c0.2,0.1,0.3,0.3,0.3,0.6c0,0.2-0.1,0.4-0.3,0.6c-0.2,0.2-0.4,0.2-0.6,0.2s-0.4-0.1-0.6-0.2
					c-0.2-0.2-0.2-0.4-0.2-0.6c0-0.3,0.1-0.4,0.2-0.6c0.2-0.2,0.4-0.2,0.6-0.2S329.7,153,329.9,153.2z M329.8,155.7v7.2h-1.1v-7.2
					H329.8z"/>
				<path class="st6" d="M338,158.5v4.5h-1.1v-4.4c0-1.4-0.6-2.1-1.9-2.1c-0.5,0-0.9,0.2-1.3,0.5c-0.4,0.4-0.6,0.9-0.6,1.6v4.4H332
					v-7.2h1.1v1.1c0.3-0.4,0.6-0.7,1-0.9s0.8-0.3,1.3-0.3C337.1,155.5,338,156.5,338,158.5z"/>
				<path class="st6" d="M345.2,156.9v-1.2h1.1v6.7c0,2.3-1.1,3.5-3.3,3.5c-1,0-1.7-0.2-2.2-0.6c-0.5-0.4-0.8-1-1-1.8h1.1
					c0.1,0.5,0.3,0.9,0.6,1.1c0.3,0.2,0.8,0.4,1.5,0.4c1.5,0,2.2-0.8,2.2-2.4v-1.3c-0.5,1-1.3,1.5-2.4,1.5c-1,0-1.8-0.4-2.4-1
					c-0.6-0.7-0.9-1.5-0.9-2.6s0.3-1.9,0.9-2.6c0.6-0.7,1.4-1.1,2.4-1.1C343.8,155.5,344.7,156,345.2,156.9z M341.2,157.2
					c-0.4,0.5-0.6,1.1-0.6,1.9c0,0.8,0.2,1.4,0.5,1.9c0.4,0.5,1,0.8,1.8,0.8c0.7,0,1.3-0.3,1.7-0.8c0.4-0.5,0.6-1.1,0.6-1.9
					c0-0.8-0.2-1.5-0.6-1.9c-0.4-0.5-1-0.8-1.7-0.8C342.2,156.4,341.6,156.7,341.2,157.2z"/>
			</g>
		</g>
	</g>
	<g>
		<g>
			<rect x="251.2" y="263.6" class="st2" width="127" height="50"/>
			<rect x="249.2" y="261.6" class="st3" width="127" height="50"/>
		</g>
		<g transform="translate(20 9)">
			<g class="st5">
				<path class="st6" d="M270.5,272.9v4.3h5.8v-4.3h1.1v10h-1.1v-4.7h-5.8v4.7h-1.1v-10H270.5z"/>
				<path class="st6" d="M284.7,276.3c0.4,0.5,0.6,1.1,0.6,2v4.7h-1.1v-1.2c-0.3,0.4-0.7,0.7-1.1,1c-0.5,0.3-1.1,0.4-1.8,0.4
					c-0.7,0-1.3-0.2-1.7-0.5c-0.4-0.4-0.7-0.9-0.7-1.5c0-0.8,0.3-1.4,1-1.9c0.6-0.4,1.4-0.6,2.5-0.6h1.7v-0.4c0-1.2-0.6-1.8-1.9-1.8
					c-0.5,0-1,0.1-1.3,0.3c-0.4,0.2-0.6,0.6-0.7,1l-1.1-0.1c0.2-0.8,0.5-1.3,1.1-1.7c0.5-0.3,1.2-0.5,2.1-0.5
					C283.5,275.5,284.2,275.8,284.7,276.3z M282.6,279.5c-1.6,0-2.4,0.6-2.4,1.6c0,0.3,0.1,0.6,0.4,0.8c0.3,0.2,0.6,0.3,1.1,0.3
					c0.7,0,1.3-0.2,1.8-0.7c0.5-0.4,0.8-0.9,0.8-1.5v-0.6L282.6,279.5z"/>
				<path class="st6" d="M293.6,272.7v10.2h-1.1v-1.2c-0.5,0.9-1.3,1.4-2.4,1.4s-1.9-0.4-2.5-1.1c-0.5-0.7-0.8-1.6-0.8-2.7
					s0.3-1.9,0.8-2.6c0.6-0.8,1.4-1.2,2.4-1.2s1.8,0.5,2.4,1.5v-4.3L293.6,272.7L293.6,272.7z M288.5,277.3c-0.4,0.5-0.5,1.2-0.5,2
					c0,0.9,0.2,1.6,0.5,2.1c0.4,0.6,1,0.9,1.8,0.9c0.7,0,1.3-0.3,1.7-0.8c0.4-0.5,0.5-1.2,0.5-2v-0.1c0-0.8-0.2-1.5-0.6-2
					s-0.9-0.8-1.6-0.8C289.5,276.4,288.9,276.7,288.5,277.3z"/>
				<path class="st6" d="M301.1,276.6c0.6,0.7,0.9,1.6,0.9,2.7s-0.3,2-0.9,2.7c-0.7,0.8-1.5,1.1-2.6,1.1s-1.9-0.4-2.6-1.1
					c-0.6-0.7-0.9-1.6-0.9-2.7s0.3-2,0.9-2.7c0.6-0.8,1.5-1.1,2.6-1.1S300.5,275.9,301.1,276.6z M296.8,277.3
					c-0.4,0.5-0.6,1.2-0.6,2s0.2,1.5,0.6,2c0.4,0.6,1,0.9,1.8,0.9s1.4-0.3,1.8-0.9c0.4-0.5,0.6-1.2,0.6-2s-0.2-1.5-0.6-2
					c-0.4-0.6-1.1-0.9-1.8-0.9C297.8,276.4,297.2,276.7,296.8,277.3z"/>
				<path class="st6" d="M309.3,276.6c0.6,0.7,0.9,1.6,0.9,2.7s-0.3,2-0.9,2.7c-0.7,0.8-1.5,1.1-2.6,1.1s-1.9-0.4-2.6-1.1
					c-0.6-0.7-0.9-1.6-0.9-2.7s0.3-2,0.9-2.7c0.6-0.8,1.5-1.1,2.6-1.1S308.7,275.9,309.3,276.6z M305,277.3c-0.4,0.5-0.6,1.2-0.6,2
					s0.2,1.5,0.6,2c0.4,0.6,1,0.9,1.8,0.9s1.4-0.3,1.8-0.9c0.4-0.5,0.6-1.2,0.6-2s-0.2-1.5-0.6-2c-0.4-0.6-1.1-0.9-1.8-0.9
					C306,276.4,305.4,276.7,305,277.3z"/>
				<path class="st6" d="M317.6,276.7c0.5,0.7,0.8,1.6,0.8,2.7s-0.3,1.9-0.8,2.6c-0.6,0.8-1.4,1.1-2.4,1.1s-1.8-0.5-2.4-1.5v4.1
					h-1.1v-10h1.1v1.2c0.5-0.9,1.3-1.4,2.4-1.4C316.2,275.5,317,275.9,317.6,276.7z M313.3,277.3c-0.4,0.5-0.5,1.2-0.5,2v0.1
					c0,0.8,0.2,1.5,0.6,2s0.9,0.8,1.6,0.8c0.8,0,1.4-0.3,1.8-0.8s0.5-1.2,0.5-2.1s-0.2-1.5-0.5-2c-0.4-0.6-1-0.9-1.8-0.9
					C314.3,276.4,313.7,276.7,313.3,277.3z"/>
			</g>
		</g>
	</g>
	<g transform="translate(10 10)">
		<g class="st5">
			<path class="st8" d="M230.9,46.4h3c0,2.4-0.1,3.9-0.2,4.6c-0.2,0.8-0.9,1.2-2.1,1.3c-0.3,0-0.7,0-1-0.1l-0.3-0.9
				c0.3,0,0.7,0.1,1,0.1c0.8,0,1.3-0.3,1.4-0.8c0.1-0.5,0.2-1.7,0.2-3.3h-3.1l0.4-4h2.5v-2.2h-2.8v-0.9h3.7v4h-2.4L230.9,46.4z
				 M239.1,41.9c0.4-0.8,0.8-1.5,1.1-2.4l1,0.3c-0.3,0.8-0.7,1.4-1.1,2h1.8v5.6h-3v1.4h3.6v0.9h-3.6v2.7h-1v-2.7h-3.5v-0.9h3.5v-1.4
				H235v-5.6h4.1V41.9z M237.8,41.5l-0.9,0.4c-0.3-0.7-0.7-1.4-1.1-1.9l0.9-0.3C237.1,40.2,237.5,40.8,237.8,41.5z M237.9,44.3v-1.6
				h-2v1.6H237.9z M237.9,45.1h-2v1.5h2V45.1z M238.9,44.3h2.1v-1.6h-2.1V44.3z M241,45.1h-2.1v1.5h2.1V45.1z"/>
			<path class="st8" d="M245,42.4c0,1.4-0.2,2.7-0.5,4l-0.8-0.2c0.3-1.2,0.5-2.5,0.5-3.8H245z M246.7,39.7v12.7h-1V39.7H246.7z
				 M248.5,44.4c0.5-1.2,0.8-2.5,0.8-3.9l0.9,0.1c0,0.6-0.1,1.1-0.2,1.7h2v-2.6h1v2.6h3.1v1H253v3.4h2.8v1H253v3.4h3.4v1h-8.5v-1h4
				v-3.4h-3.2v-1h3.2v-3.4h-2.2c-0.3,1-0.6,2-1.1,2.8l-0.7-0.7c0.2-0.3,0.3-0.6,0.4-0.9l-0.7,0.2c-0.2-0.9-0.5-1.7-0.8-2.5l0.7-0.2
				C248,42.7,248.2,43.5,248.5,44.4z"/>
			<path class="st8" d="M259.6,41.1l3.7,8.5l0,0l3.7-8.5h1.4v10h-1.1v-8l0,0l-3.5,8h-1l-3.5-8l0,0v8h-1.1v-10H259.6z"/>
			<path class="st8" d="M275.8,44.4c0.4,0.5,0.6,1.1,0.6,2v4.7h-1.1v-1.2c-0.3,0.4-0.7,0.7-1.1,1c-0.5,0.3-1.1,0.4-1.8,0.4
				c-0.7,0-1.3-0.2-1.7-0.5c-0.4-0.4-0.7-0.9-0.7-1.5c0-0.8,0.3-1.4,1-1.9c0.6-0.4,1.4-0.6,2.5-0.6h1.7v-0.4c0-1.2-0.6-1.8-1.9-1.8
				c-0.5,0-1,0.1-1.3,0.3c-0.4,0.2-0.6,0.6-0.7,1l-1.1-0.1c0.2-0.8,0.5-1.3,1.1-1.7c0.5-0.3,1.2-0.5,2.1-0.5
				C274.5,43.6,275.3,43.9,275.8,44.4z M273.6,47.6c-1.6,0-2.4,0.6-2.4,1.6c0,0.3,0.1,0.6,0.4,0.8s0.6,0.3,1.1,0.3
				c0.7,0,1.3-0.2,1.8-0.7c0.5-0.4,0.8-0.9,0.8-1.5v-0.6L273.6,47.6z"/>
			<path class="st8" d="M284.1,44.8c0.5,0.7,0.8,1.6,0.8,2.7c0,1.1-0.3,1.9-0.8,2.6c-0.6,0.8-1.4,1.1-2.4,1.1s-1.8-0.5-2.4-1.5v4.1
				h-1.1v-10h1.1V45c0.5-0.9,1.3-1.4,2.4-1.4C282.7,43.6,283.5,44,284.1,44.8z M279.8,45.4c-0.4,0.5-0.5,1.2-0.5,2v0.1
				c0,0.8,0.2,1.5,0.6,2s0.9,0.8,1.6,0.8c0.8,0,1.4-0.3,1.8-0.8s0.5-1.2,0.5-2.1c0-0.9-0.2-1.5-0.5-2c-0.4-0.6-1-0.9-1.8-0.9
				C280.8,44.6,280.2,44.8,279.8,45.4z"/>
			<path class="st8" d="M290.8,41.1c1,0,1.8,0.2,2.4,0.7s0.9,1.2,0.9,2.1c0,0.6-0.2,1.1-0.5,1.5s-0.8,0.7-1.4,0.9l0,0
				c1,0.2,1.5,0.8,1.6,1.8l0.2,1.5c0.1,0.6,0.2,1.1,0.5,1.5h-1.2c-0.2-0.3-0.4-0.8-0.4-1.3l-0.1-1.3c-0.1-0.6-0.3-1-0.6-1.3
				c-0.3-0.3-0.8-0.4-1.4-0.4h-3v4.3h-1.1v-10H290.8z M287.7,45.8h3c0.7,0,1.3-0.2,1.7-0.5c0.4-0.3,0.5-0.8,0.5-1.4
				c0-0.6-0.2-1.1-0.5-1.4c-0.4-0.3-0.9-0.5-1.7-0.5h-3V45.8z"/>
			<path class="st8" d="M301.4,44.8c0.5,0.7,0.8,1.7,0.8,3h-5.7c0.1,0.8,0.3,1.4,0.7,1.9c0.4,0.4,0.9,0.7,1.6,0.7
				c0.6,0,1.1-0.2,1.4-0.4c0.3-0.3,0.5-0.6,0.7-1.1h1.1c-0.2,0.7-0.5,1.3-1,1.7c-0.6,0.5-1.4,0.8-2.3,0.8c-1,0-1.9-0.4-2.5-1
				c-0.6-0.7-1-1.6-1-2.8c0-1.1,0.3-2,0.9-2.7c0.6-0.8,1.4-1.1,2.5-1.1C300,43.6,300.9,44,301.4,44.8z M297.3,45.2
				c-0.4,0.4-0.6,1-0.7,1.7h4.5c-0.1-1.6-0.9-2.3-2.3-2.3C298.2,44.6,297.7,44.8,297.3,45.2z"/>
			<path class="st8" d="M310.1,40.9v10.2H309v-1.2c-0.5,0.9-1.3,1.4-2.4,1.4s-1.9-0.4-2.5-1.1c-0.5-0.7-0.8-1.6-0.8-2.7
				c0-1.1,0.3-1.9,0.8-2.6c0.6-0.8,1.4-1.2,2.4-1.2s1.8,0.5,2.4,1.5v-4.3C308.9,40.9,310.1,40.9,310.1,40.9z M305,45.4
				c-0.4,0.5-0.5,1.2-0.5,2c0,0.9,0.2,1.6,0.5,2.1c0.4,0.6,1,0.9,1.8,0.9c0.7,0,1.3-0.3,1.7-0.8c0.4-0.5,0.5-1.2,0.5-2v-0.1
				c0-0.8-0.2-1.5-0.6-2s-0.9-0.8-1.6-0.8C306,44.6,305.4,44.8,305,45.4z"/>
			<path class="st8" d="M312.9,43.8v4.4c0,0.7,0.1,1.2,0.4,1.5s0.8,0.5,1.4,0.5c0.5,0,0.9-0.2,1.3-0.6c0.4-0.4,0.6-0.9,0.7-1.5v-4.4
				h1.1v7.2h-1.1V50c-0.6,0.9-1.4,1.3-2.4,1.3c-1.8,0-2.6-1-2.6-3v-4.5H312.9z"/>
			<path class="st8" d="M324.9,44.3c0.6,0.4,0.9,1.1,1,2h-1.1c-0.1-0.6-0.3-1-0.7-1.3c-0.4-0.3-0.8-0.4-1.4-0.4
				c-0.7,0-1.3,0.3-1.7,0.8c-0.4,0.5-0.6,1.2-0.6,2.1c0,0.9,0.2,1.6,0.6,2.1s0.9,0.8,1.7,0.8c1.2,0,1.9-0.6,2.1-1.9h1.1
				c-0.2,0.9-0.5,1.6-1.1,2.1c-0.5,0.5-1.3,0.7-2.2,0.7c-1.1,0-1.9-0.4-2.5-1.1c-0.6-0.7-0.9-1.6-0.9-2.7s0.3-2,0.9-2.7
				c0.6-0.8,1.5-1.1,2.5-1.1C323.7,43.6,324.4,43.8,324.9,44.3z"/>
			<path class="st8" d="M332.9,44.8c0.5,0.7,0.8,1.7,0.8,3H328c0.1,0.8,0.3,1.4,0.7,1.9c0.4,0.4,0.9,0.7,1.6,0.7
				c0.6,0,1.1-0.2,1.4-0.4c0.3-0.3,0.5-0.6,0.7-1.1h1.1c-0.2,0.7-0.5,1.3-1,1.7c-0.6,0.5-1.4,0.8-2.3,0.8c-1,0-1.9-0.4-2.5-1
				c-0.6-0.7-1-1.6-1-2.8c0-1.1,0.3-2,0.9-2.7c0.6-0.8,1.4-1.1,2.5-1.1C331.4,43.6,332.3,44,332.9,44.8z M328.8,45.2
				c-0.4,0.4-0.6,1-0.7,1.7h4.5c-0.1-1.6-0.9-2.3-2.3-2.3C329.7,44.6,329.1,44.8,328.8,45.2z"/>
		</g>
	</g>
</g>
<g>
	<g id="DashRectGroup19" transform="translate(429,450)">
		<rect x="239.1" y="-337.9" class="st9" width="159.5" height="154"/>
		<path class="st1" d="M239.1-337.9h159.5v154H239.1V-337.9"/>
		<g transform="translate(10 10)">
		</g>
	</g>
	<g>
		<rect x="689.2" y="134.1" class="st2" width="118.5" height="50"/>
		<rect x="687.4" y="132.1" class="st3" width="118.5" height="50"/>
	</g>
	<g transform="translate(20 9)">
		<g>
			<title>Product Icons【32】</title>
			<g id="_编组__1_">
				<path id="_复合路径__1_" class="st4" d="M693.1,154.5c-3.9-0.1-6.9-3.3-6.9-7.1c0.1-3,2-5.6,4.9-6.6v2.1
					c-2.5,1.1-3.7,4-2.6,6.6c1.1,2.5,4,3.7,6.6,2.6c1.2-0.5,2.2-1.5,2.7-2.8l2.2-0.4C699.4,152.2,696.4,154.5,693.1,154.5z
					 M699.5,147l-5.5,1.5h-2v-7.9h2c2.5,0.4,4.6,2.1,5.5,4.4c0.1,0.3,0.2,0.6,0.2,0.9l0,0l0.2,1L699.5,147z M694.4,143.2v3.8l3.6-1
					C697.3,144.6,695.9,143.5,694.4,143.2z M680,138.5L680,138.5c-1.1,0-2-0.9-2-2l0,0c0-1.1,0.9-2,2-2l0,0c1.1,0,2,0.9,2,2l0,0
					C682,137.6,681.1,138.5,680,138.5z M707,137.5h-26v-2h26V137.5z M707,152.5h-2v-17h2V152.5z M706,156.5L706,156.5
					c1.1,0,2,0.9,2,2l0,0c0,1.1-0.9,2-2,2l0,0c-1.1,0-2-0.9-2-2l0,0C704,157.4,704.9,156.5,706,156.5z M679,157.5h26v2h-26V157.5z
					 M679,142.5h2v17h-2V142.5z"/>
			</g>
		</g>
		<g class="st5">
			<path class="st6" d="M724.7,143.1c1,0,1.8,0.2,2.4,0.7c0.6,0.5,0.9,1.2,0.9,2.1c0,0.6-0.2,1.1-0.5,1.5s-0.8,0.7-1.4,0.9l0,0
				c1,0.2,1.5,0.8,1.6,1.8l0.2,1.5c0.1,0.6,0.2,1.1,0.5,1.5h-1.2c-0.2-0.3-0.4-0.8-0.4-1.3l-0.1-1.3c-0.1-0.6-0.3-1-0.6-1.3
				s-0.8-0.4-1.4-0.4h-3v4.3h-1.1v-10H724.7z M721.6,147.8h3c0.7,0,1.3-0.2,1.7-0.5c0.3-0.3,0.5-0.8,0.5-1.4c0-0.6-0.2-1.1-0.5-1.4
				c-0.4-0.3-0.9-0.5-1.7-0.5h-3V147.8z"/>
			<path class="st6" d="M735.2,146.4c0.4,0.5,0.6,1.1,0.6,2v4.7h-1.1v-1.2c-0.3,0.4-0.7,0.7-1.1,1c-0.5,0.3-1.1,0.4-1.8,0.4
				s-1.3-0.2-1.7-0.5c-0.4-0.4-0.7-0.9-0.7-1.5c0-0.8,0.3-1.4,1-1.9c0.6-0.4,1.4-0.6,2.5-0.6h1.7v-0.4c0-1.2-0.6-1.8-1.9-1.8
				c-0.5,0-1,0.1-1.3,0.3c-0.4,0.2-0.6,0.6-0.7,1l-1.1-0.1c0.2-0.8,0.5-1.3,1.1-1.7c0.5-0.3,1.2-0.5,2.1-0.5
				C733.9,145.6,734.7,145.9,735.2,146.4z M733,149.6c-1.6,0-2.4,0.6-2.4,1.6c0,0.3,0.1,0.6,0.4,0.8c0.3,0.2,0.6,0.3,1.1,0.3
				c0.7,0,1.3-0.2,1.8-0.7c0.5-0.4,0.8-0.9,0.8-1.5v-0.6L733,149.6z"/>
			<path class="st6" d="M738,145.8l2.2,5.7l2.1-5.7h1.2l-4,10h-1.2l1.2-2.9l-2.9-7.1H738z"/>
			<path class="st6" d="M748.2,143.1c1.6,0,2.8,0.4,3.6,1.4c0.7,0.8,1.1,2.1,1.1,3.6s-0.4,2.8-1.2,3.6c-0.8,0.9-2,1.4-3.6,1.4h-3.5
				v-10H748.2z M745.8,152.1h2.1c1.3,0,2.3-0.4,2.9-1c0.6-0.7,0.9-1.7,0.9-3s-0.3-2.3-0.9-3c-0.6-0.7-1.6-1-2.9-1h-2.3v8H745.8z"/>
			<path class="st6" d="M759.8,146.4c0.4,0.5,0.6,1.1,0.6,2v4.7h-1.1v-1.2c-0.3,0.4-0.7,0.7-1.1,1c-0.5,0.3-1.1,0.4-1.8,0.4
				s-1.3-0.2-1.7-0.5c-0.4-0.4-0.7-0.9-0.7-1.5c0-0.8,0.3-1.4,1-1.9c0.6-0.4,1.4-0.6,2.5-0.6h1.7v-0.4c0-1.2-0.6-1.8-1.9-1.8
				c-0.5,0-1,0.1-1.3,0.3c-0.4,0.2-0.6,0.6-0.7,1l-1.1-0.1c0.2-0.8,0.5-1.3,1.1-1.7c0.5-0.3,1.2-0.5,2.1-0.5
				C758.6,145.6,759.3,145.9,759.8,146.4z M757.7,149.6c-1.6,0-2.4,0.6-2.4,1.6c0,0.3,0.1,0.6,0.4,0.8c0.3,0.2,0.6,0.3,1.1,0.3
				c0.7,0,1.3-0.2,1.8-0.7c0.5-0.4,0.8-0.9,0.8-1.5v-0.6L757.7,149.6z"/>
			<path class="st6" d="M764.1,145.8h1.8v0.9h-1.8v4.6c0,0.3,0,0.5,0.2,0.6c0.1,0.1,0.3,0.2,0.5,0.2h0.9v0.9h-1.1
				c-0.6,0-1-0.2-1.3-0.5c-0.2-0.3-0.4-0.7-0.4-1.2v-4.6h-1.5v-0.9h1.5V144l1.1-0.5L764.1,145.8L764.1,145.8z"/>
			<path class="st6" d="M772.6,146.4c0.4,0.5,0.6,1.1,0.6,2v4.7h-1.1v-1.2c-0.3,0.4-0.7,0.7-1.1,1c-0.5,0.3-1.1,0.4-1.8,0.4
				s-1.3-0.2-1.7-0.5c-0.4-0.4-0.7-0.9-0.7-1.5c0-0.8,0.3-1.4,1-1.9c0.6-0.4,1.4-0.6,2.5-0.6h1.7v-0.4c0-1.2-0.6-1.8-1.9-1.8
				c-0.5,0-1,0.1-1.3,0.3c-0.4,0.2-0.6,0.6-0.7,1l-1.1-0.1c0.2-0.8,0.5-1.3,1.1-1.7c0.5-0.3,1.2-0.5,2.1-0.5
				C771.4,145.6,772.1,145.9,772.6,146.4z M770.5,149.6c-1.6,0-2.4,0.6-2.4,1.6c0,0.3,0.1,0.6,0.4,0.8c0.3,0.2,0.6,0.3,1.1,0.3
				c0.7,0,1.3-0.2,1.8-0.7c0.5-0.4,0.8-0.9,0.8-1.5v-0.6L770.5,149.6z"/>
		</g>
	</g>
	<g>
		<rect x="690" y="196.1" class="st2" width="118.5" height="50"/>
		<rect x="688.3" y="194.1" class="st3" width="118.5" height="50"/>
	</g>
	<g class="st5">
		<path class="st6" d="M746.3,214.9c0.9,0,1.7,0.2,2.2,0.7c0.5,0.4,0.8,1.1,0.8,1.8c0,0.6-0.2,1.1-0.4,1.5c-0.3,0.4-0.7,0.6-1.2,0.8
			c0.7,0.1,1.2,0.4,1.5,0.8s0.6,1,0.6,1.6c0,1-0.3,1.7-1,2.2c-0.6,0.4-1.4,0.6-2.4,0.6H742v-10L746.3,214.9L746.3,214.9z M743,219.3
			h3c0.7,0,1.2-0.2,1.6-0.4c0.4-0.3,0.6-0.7,0.6-1.3s-0.2-1-0.5-1.3c-0.4-0.3-0.9-0.4-1.6-0.4H743V219.3z M743,224h3.2
			c0.7,0,1.2-0.1,1.7-0.4c0.5-0.3,0.7-0.8,0.7-1.4s-0.2-1.1-0.6-1.4c-0.4-0.3-1-0.4-1.8-0.4H743V224z"/>
		<path class="st6" d="M752.5,214.9v10h-1.1v-10H752.5z"/>
	</g>
	<g>
		<g>
			<g>
				<g>
					<g>
						<g>
							<g>
								<g>
									<g>
										<g>
											<g>
												<g>
													<g>
														<g>
															<g>
																<g>
																	<g>
																		<g>
																			<g>
																				<g>
																					<g>
																						<g>
																							<g>
																								<g>
																									<g>
																										<g>
																											<g>
																												<path class="st10" d="M712.9,227.3c2.8,0,5-2.2,5-5s-2.2-5-5-5s-5,2.2-5,5S710.1,227.3,712.9,227.3
																													L712.9,227.3z M717.9,222.3c2.2,0,4-1.8,4-4s-1.8-4-4-4s-4,1.8-4,4S715.6,222.3,717.9,222.3
																													L717.9,222.3z"/>
																											</g>
																										</g>
																									</g>
																								</g>
																							</g>
																						</g>
																					</g>
																				</g>
																			</g>
																		</g>
																	</g>
																</g>
															</g>
														</g>
													</g>
												</g>
											</g>
										</g>
									</g>
								</g>
							</g>
						</g>
					</g>
				</g>
			</g>
		</g>
		<path class="st4" d="M702,211.5L702,211.5c-1.1,0-2-0.9-2-2l0,0c0-1.1,0.9-2,2-2l0,0c1.1,0,2,0.9,2,2l0,0
			C704,210.6,703.1,211.5,702,211.5z"/>
		<rect x="703" y="208.5" class="st4" width="26" height="2"/>
		<rect x="727" y="208.5" class="st4" width="2" height="17"/>
		<path class="st4" d="M728,229.5L728,229.5c1.1,0,2,0.9,2,2l0,0c0,1.1-0.9,2-2,2l0,0c-1.1,0-2-0.9-2-2l0,0
			C726,230.4,726.9,229.5,728,229.5z"/>
		<rect x="701" y="230.5" class="st4" width="26" height="2"/>
		<rect x="701" y="215.5" class="st4" width="2" height="17"/>
	</g>
</g>
<rect x="699.9" y="206.6" class="st11" width="30" height="27"/>
<g id="textgroup" transform="translate(0,0)">
</g>
<g id="assistantgroup" transform="translate(0,0)">
</g>
<g>
	<g class="st5">
		<path class="st12" d="M102.5,239.2l3.4,8.6h-1.1l-0.9-2.4H100l-0.9,2.4H98l3.4-8.6H102.5z M103.6,244.5l-1.6-4.3l0,0l-1.6,4.3
			H103.6z"/>
		<path class="st12" d="M110.3,239.2c2,0,3,0.8,3,2.5s-1,2.5-3,2.5h-2.5v3.5h-1v-8.6h3.5V239.2z M107.7,243.4h2.5
			c0.7,0,1.2-0.1,1.5-0.4c0.3-0.3,0.5-0.7,0.5-1.3s-0.2-1-0.5-1.2c-0.3-0.3-0.8-0.4-1.5-0.4h-2.5V243.4z"/>
		<path class="st12" d="M115.5,239.2v8.6h-1v-8.6H115.5z"/>
		<path class="st12" d="M122,237.9l-4.2,11h-0.9l4.3-11H122z"/>
		<path class="st12" d="M128.5,239.7c0.6,0.5,0.9,1.1,1,2h-1c-0.1-0.6-0.3-1.1-0.7-1.4c-0.4-0.3-0.9-0.5-1.6-0.5
			c-0.6,0-1.1,0.1-1.5,0.3s-0.6,0.6-0.6,1.1c0,0.4,0.2,0.8,0.7,1c0.2,0.1,0.7,0.3,1.6,0.5c1.1,0.3,1.9,0.6,2.2,0.8
			c0.7,0.4,1.1,1,1.1,1.8c0,0.7-0.3,1.3-0.9,1.8c-0.6,0.4-1.4,0.6-2.4,0.6s-1.8-0.2-2.4-0.6c-0.7-0.5-1-1.3-1.1-2.4h1
			c0.1,0.7,0.3,1.3,0.8,1.6c0.4,0.3,1,0.5,1.7,0.5s1.3-0.1,1.7-0.4c0.4-0.3,0.6-0.6,0.6-1.1s-0.3-1-0.9-1.3
			c-0.2-0.1-0.9-0.3-1.8-0.6c-1-0.3-1.7-0.6-2-0.7c-0.7-0.4-1-0.9-1-1.7c0-0.7,0.3-1.3,0.9-1.7s1.3-0.6,2.2-0.6
			C127.2,239,127.9,239.2,128.5,239.7z"/>
		<path class="st12" d="M134,239.2c1.4,0,2.4,0.4,3.1,1.2c0.6,0.7,1,1.8,1,3.1s-0.3,2.4-1,3.1c-0.7,0.8-1.8,1.2-3.1,1.2h-3v-8.6H134
			z M131.9,246.9h1.8c1.1,0,2-0.3,2.5-0.9c0.5-0.6,0.8-1.4,0.8-2.5c0-1.2-0.3-2-0.7-2.6c-0.5-0.6-1.3-0.9-2.5-0.9h-1.9L131.9,246.9
			L131.9,246.9z"/>
		<path class="st12" d="M146.2,239.2l-3.9,3.7l4.4,4.9h-1.3l-3.8-4.3l-1.3,1.3v3h-1v-8.6h1v4.5l4.6-4.5L146.2,239.2L146.2,239.2z"/>
	</g>
</g>
<g>
	<path class="st1" d="M448.6,50.8h169v273.6h-169L448.6,50.8"/>
	<g>
		<g>
			<rect x="470" y="73.5" class="st2" width="128" height="50"/>
			<rect x="468" y="71.5" class="st3" width="128" height="50"/>
		</g>
		<g>
			<rect x="470" y="254.3" class="st2" width="128" height="50"/>
			<rect x="468" y="252.3" class="st3" width="128" height="50"/>
		</g>
		<g class="st5">
			<path class="st6" d="M518.2,271.8l3.7,8.5l0,0l3.7-8.5h1.4v10h-1.1v-8l0,0l-3.5,8h-1l-3.5-8l0,0v8h-1.1v-10H518.2z"/>
			<path class="st6" d="M534.8,275.4c0.6,0.7,0.9,1.6,0.9,2.7s-0.3,2-0.9,2.7c-0.7,0.8-1.5,1.1-2.6,1.1s-1.9-0.4-2.6-1.1
				c-0.6-0.7-0.9-1.6-0.9-2.7s0.3-2,0.9-2.7c0.6-0.8,1.5-1.1,2.6-1.1S534.2,274.7,534.8,275.4z M530.4,276.1c-0.4,0.5-0.6,1.2-0.6,2
				s0.2,1.5,0.6,2c0.4,0.6,1,0.9,1.8,0.9s1.4-0.3,1.8-0.9c0.4-0.5,0.6-1.2,0.6-2s-0.2-1.5-0.6-2c-0.4-0.6-1-0.9-1.8-0.9
				C531.5,275.3,530.9,275.6,530.4,276.1z"/>
			<path class="st6" d="M543.3,277.3v4.5h-1.1v-4.4c0-1.4-0.6-2.1-1.9-2.1c-0.5,0-0.9,0.2-1.3,0.5c-0.4,0.4-0.6,0.9-0.6,1.6v4.4
				h-1.1v-7.2h1.1v1.1c0.3-0.4,0.6-0.7,1-0.9s0.8-0.3,1.3-0.3C542.4,274.3,543.3,275.3,543.3,277.3z"/>
			<path class="st6" d="M550.4,275.8v-1.2h1.1v6.7c0,2.3-1.1,3.5-3.3,3.5c-1,0-1.7-0.2-2.2-0.6s-0.8-1-1-1.8h1.1
				c0.1,0.5,0.3,0.9,0.6,1.1s0.8,0.4,1.5,0.4c1.5,0,2.2-0.8,2.2-2.4v-1.3c-0.5,1-1.3,1.5-2.4,1.5c-1,0-1.8-0.4-2.4-1
				c-0.6-0.7-0.9-1.5-0.9-2.6s0.3-1.9,0.9-2.6c0.6-0.7,1.4-1.1,2.4-1.1C549.1,274.3,549.9,274.8,550.4,275.8z M546.5,276
				c-0.4,0.5-0.6,1.1-0.6,1.9s0.2,1.4,0.5,1.9c0.4,0.5,1,0.8,1.8,0.8c0.7,0,1.3-0.3,1.7-0.8s0.6-1.1,0.6-1.9s-0.2-1.5-0.6-1.9
				c-0.4-0.5-1-0.8-1.7-0.8C547.4,275.3,546.9,275.5,546.5,276z"/>
			<path class="st6" d="M559.1,275.4c0.6,0.7,0.9,1.6,0.9,2.7s-0.3,2-0.9,2.7c-0.7,0.8-1.5,1.1-2.6,1.1s-1.9-0.4-2.6-1.1
				c-0.6-0.7-0.9-1.6-0.9-2.7s0.3-2,0.9-2.7c0.6-0.8,1.5-1.1,2.6-1.1S558.5,274.7,559.1,275.4z M554.7,276.1c-0.4,0.5-0.6,1.2-0.6,2
				s0.2,1.5,0.6,2c0.4,0.6,1,0.9,1.8,0.9s1.4-0.3,1.8-0.9c0.4-0.5,0.6-1.2,0.6-2s-0.2-1.5-0.6-2c-0.4-0.6-1.1-0.9-1.8-0.9
				C555.8,275.3,555.2,275.6,554.7,276.1z"/>
			<path class="st6" d="M565.2,271.8c1.6,0,2.8,0.4,3.6,1.4c0.7,0.8,1.1,2.1,1.1,3.6s-0.4,2.8-1.2,3.6c-0.8,0.9-2,1.4-3.6,1.4h-3.5
				v-10H565.2z M562.8,280.8h2.1c1.3,0,2.3-0.4,2.9-1c0.6-0.7,0.9-1.7,0.9-3s-0.3-2.3-0.9-3c-0.6-0.7-1.6-1-2.9-1h-2.3v8H562.8z"/>
			<path class="st6" d="M576,271.8c0.9,0,1.7,0.2,2.2,0.7c0.5,0.4,0.8,1.1,0.8,1.8c0,0.6-0.2,1.1-0.4,1.5c-0.3,0.4-0.7,0.6-1.2,0.8
				c0.7,0.1,1.2,0.4,1.5,0.8c0.4,0.4,0.6,1,0.6,1.6c0,1-0.4,1.7-1,2.2c-0.6,0.4-1.4,0.6-2.4,0.6h-4.4v-10H576z M572.7,276.1h3
				c0.7,0,1.2-0.2,1.6-0.4c0.4-0.3,0.6-0.7,0.6-1.3s-0.2-1-0.5-1.3c-0.4-0.3-0.9-0.4-1.6-0.4h-3.1V276.1z M572.7,280.8h3.2
				c0.7,0,1.2-0.1,1.7-0.4s0.7-0.8,0.7-1.4s-0.2-1.1-0.6-1.4c-0.4-0.3-1-0.4-1.8-0.4h-3.2L572.7,280.8L572.7,280.8z"/>
		</g>
		<g>
			<g>
				<g>
					<path class="st4" d="M494,263.5c-6.6,0-12,2.2-12,5s5.4,5,12,5s12-2.2,12-5S500.6,263.5,494,263.5z M494,271.5
						c-5.5,0-10-1.3-10-3s4.5-3,10-3s10,1.3,10,3S499.5,271.5,494,271.5z"/>
				</g>
			</g>
			<rect x="482" y="268.5" class="st4" width="2" height="18"/>
			<rect x="504" y="268.5" class="st4" width="2" height="4"/>
			<path class="st8" d="M505,278.3c1.9,1.9,4,4.3,4,6.2c0,1.2-0.3,2.2-0.9,2.8c-0.7,0.7-1.8,1.1-3.1,1.1s-2.4-0.4-3.1-1.1
				s-1-1.6-0.9-2.8C501,282.6,503.1,280.3,505,278.3 M505,275.5c-2.5,2.5-5.9,5.7-6,9c-0.1,4,2.7,6,6,6s6.1-2,6-6
				C510.9,281.2,507.5,278,505,275.5L505,275.5z"/>
			<rect x="504" y="277.5" class="st8" width="2" height="15"/>
			<g>
				<path class="st4" d="M497.6,280.3c-1.1,0.1-2.3,0.2-3.6,0.2c-5.5,0-10-1.3-10-3h-2c0,2.8,5.4,5,12,5c0.9,0,1.8,0,2.6-0.1
					C496.9,281.7,497.2,281,497.6,280.3z"/>
			</g>
			<g>
				<path class="st4" d="M496.7,289.4c-0.9,0.1-1.8,0.1-2.7,0.1c-5.5,0-10-1.3-10-3h-2c0,2.8,5.4,5,12,5c1.3,0,2.6-0.1,3.8-0.3
					C497.4,290.7,497,290.1,496.7,289.4z"/>
			</g>
		</g>
		<g>
			<rect x="470" y="193.3" class="st2" width="128" height="50"/>
			<rect x="468" y="191.3" class="st3" width="128" height="50"/>
		</g>
		<g class="st5">
			<path class="st6" d="M517.9,212.3v4.3h5.8v-4.3h1.1v10h-1.1v-4.7h-5.8v4.7h-1.1v-10H517.9z"/>
			<path class="st6" d="M527.8,212.1v4.3c0.6-1,1.4-1.5,2.4-1.5s1.8,0.4,2.4,1.2c0.5,0.7,0.8,1.6,0.8,2.6c0,1.1-0.3,2-0.8,2.7
				c-0.6,0.8-1.4,1.1-2.5,1.1s-1.9-0.5-2.4-1.4v1.2h-1.1v-10.2L527.8,212.1L527.8,212.1z M528.4,216.6c-0.4,0.5-0.6,1.2-0.6,2v0.1
				c0,0.8,0.2,1.5,0.5,2c0.4,0.6,1,0.8,1.7,0.8c0.8,0,1.4-0.3,1.8-0.9c0.3-0.5,0.5-1.2,0.5-2.1c0-0.9-0.2-1.5-0.5-2
				c-0.4-0.6-1-0.8-1.8-0.8C529.3,215.8,528.8,216,528.4,216.6z"/>
			<path class="st6" d="M540.4,215.7c0.4,0.5,0.6,1.1,0.6,2v4.7h-1.1v-1.2c-0.3,0.4-0.7,0.7-1.1,1c-0.5,0.3-1.1,0.4-1.8,0.4
				s-1.3-0.2-1.7-0.5c-0.4-0.4-0.7-0.9-0.7-1.5c0-0.8,0.3-1.4,1-1.9c0.6-0.4,1.4-0.6,2.5-0.6h1.7v-0.4c0-1.2-0.6-1.8-1.9-1.8
				c-0.5,0-1,0.1-1.3,0.3c-0.4,0.2-0.6,0.6-0.7,1l-1.1-0.1c0.2-0.8,0.5-1.3,1.1-1.7c0.5-0.3,1.2-0.5,2.1-0.5
				C539.1,214.8,539.9,215.1,540.4,215.7z M538.2,218.8c-1.6,0-2.4,0.6-2.4,1.6c0,0.3,0.1,0.6,0.4,0.8c0.3,0.2,0.6,0.3,1.1,0.3
				c0.7,0,1.3-0.2,1.8-0.7c0.5-0.4,0.8-0.9,0.8-1.5v-0.6L538.2,218.8z"/>
			<path class="st6" d="M548.3,217.1h-1.1c-0.1-0.4-0.3-0.8-0.6-1s-0.8-0.3-1.3-0.3s-0.9,0.1-1.2,0.3s-0.5,0.4-0.5,0.8
				c0,0.3,0.2,0.6,0.6,0.8c0.3,0.1,0.8,0.3,1.5,0.5c0.9,0.2,1.5,0.4,1.9,0.7c0.6,0.4,0.9,0.9,0.9,1.5c0,1.5-1,2.2-3.1,2.2
				c-1.9,0-2.9-0.8-3.1-2.5h1.1c0.1,0.6,0.3,1,0.6,1.2s0.8,0.3,1.4,0.3c1.3,0,1.9-0.4,1.9-1.2c0-0.4-0.2-0.7-0.7-0.9
				c-0.2-0.1-0.8-0.3-1.5-0.5c-0.9-0.2-1.5-0.4-1.8-0.6c-0.6-0.3-0.8-0.8-0.8-1.4s0.3-1.1,0.8-1.5s1.2-0.5,2-0.5
				C547.1,214.8,548.1,215.6,548.3,217.1z"/>
			<path class="st6" d="M555.4,216c0.5,0.7,0.8,1.7,0.8,3h-5.7c0.1,0.8,0.3,1.4,0.7,1.9c0.4,0.4,0.9,0.7,1.6,0.7
				c0.6,0,1.1-0.2,1.4-0.4c0.3-0.3,0.5-0.6,0.7-1.1h1.1c-0.2,0.7-0.5,1.3-1,1.7c-0.6,0.5-1.4,0.8-2.3,0.8c-1,0-1.9-0.4-2.5-1
				c-0.6-0.7-1-1.6-1-2.8c0-1.1,0.3-2,0.9-2.7c0.6-0.8,1.4-1.1,2.5-1.1C554,214.8,554.9,215.2,555.4,216z M551.3,216.4
				c-0.4,0.4-0.6,1-0.7,1.7h4.5c-0.1-1.6-0.9-2.3-2.3-2.3C552.2,215.8,551.7,216,551.3,216.4z"/>
		</g>
		<g>
			<rect x="470" y="133.3" class="st2" width="128" height="50"/>
			<rect x="468" y="131.3" class="st3" width="128" height="50"/>
		</g>
		<g class="st5">
			<path class="st6" d="M524.5,153c0.8,0.6,1.2,1.4,1.3,2.4h-1.1c-0.1-0.7-0.5-1.3-1.1-1.7c-0.5-0.4-1.2-0.6-2-0.6
				c-1.2,0-2.1,0.4-2.7,1.2c-0.6,0.8-0.9,1.8-0.9,3c0,1.2,0.3,2.2,0.9,3c0.6,0.8,1.5,1.2,2.7,1.2c0.8,0,1.5-0.2,2-0.6
				c0.6-0.4,1-1.1,1.2-2h1.1c-0.2,1.2-0.7,2.1-1.6,2.7c-0.8,0.6-1.7,0.9-2.8,0.9c-1.6,0-2.7-0.5-3.6-1.5c-0.8-0.9-1.1-2.1-1.1-3.6
				s0.4-2.7,1.1-3.7c0.8-1.1,2-1.6,3.6-1.6C522.8,152.1,523.7,152.4,524.5,153z"/>
			<path class="st6" d="M535.5,153.6c0.8,1,1.2,2.2,1.2,3.7s-0.4,2.7-1.2,3.7c-0.9,1-2.1,1.5-3.6,1.5s-2.7-0.5-3.5-1.5
				s-1.2-2.2-1.2-3.7s0.4-2.7,1.2-3.7c0.9-1,2-1.5,3.6-1.5C533.4,152.1,534.6,152.6,535.5,153.6z M529.2,154.3
				c-0.6,0.8-0.9,1.8-0.9,3c0,1.2,0.3,2.2,0.9,3c0.6,0.8,1.6,1.2,2.7,1.2s2.1-0.4,2.7-1.1c0.6-0.8,0.9-1.8,0.9-3
				c0-1.3-0.3-2.3-0.9-3c-0.6-0.8-1.5-1.1-2.7-1.1S529.9,153.5,529.2,154.3z"/>
			<path class="st6" d="M544.3,152.9c0.7,0.5,1.1,1.3,1.1,2.4h-1.1c-0.1-0.7-0.4-1.3-0.8-1.6c-0.4-0.4-1.1-0.5-1.9-0.5
				c-0.7,0-1.3,0.1-1.7,0.4c-0.5,0.3-0.7,0.7-0.7,1.3c0,0.5,0.3,0.9,0.9,1.2c0.3,0.1,0.9,0.3,1.8,0.6c1.3,0.4,2.2,0.7,2.6,1
				c0.8,0.5,1.2,1.2,1.2,2.1c0,0.9-0.4,1.6-1.1,2.1c-0.7,0.5-1.6,0.7-2.8,0.7s-2.1-0.3-2.8-0.8c-0.8-0.6-1.2-1.5-1.3-2.7h1.1
				c0.1,0.9,0.4,1.5,0.9,1.9s1.1,0.6,2,0.6c0.8,0,1.5-0.2,2-0.5c0.5-0.3,0.8-0.7,0.8-1.3s-0.3-1.1-1-1.5c-0.3-0.2-1-0.4-2.1-0.7
				c-1.2-0.4-2-0.6-2.3-0.8c-0.8-0.4-1.1-1.1-1.1-1.9c0-0.9,0.4-1.6,1.1-2c0.7-0.4,1.5-0.7,2.5-0.7
				C542.8,152.1,543.7,152.3,544.3,152.9z"/>
		</g>
		<g>
			<polygon class="st4" points="508,164.2 496,171.1 484,164.2 484,150.5 496,143.6 508,150.5 508,150.5 510,149.3 496,141.3 
				482,149.3 482,165.3 496,173.3 510,165.3 510,153.3 508,154.4 			"/>
			<path class="st4" d="M496,149.3l-7,4v8l7,4l7-4v-8L496,149.3z M495,162.4l-4-2.3v-3.7l4,2.3V162.4z M491.3,154.3l4.7-2.7l4.7,2.7
				L496,157L491.3,154.3z M501,160.1l-4,2.3v-3.7l4-2.3V160.1z"/>
		</g>
		<path class="st4" d="M494.6,100.3H494c-5.5,0-10-1.3-10-3V91c2.2,1.4,5.8,2.3,10,2.3s7.9-0.9,10-2.2v4.5c0.7,0.2,1.4,0.5,2,0.8
			v-8.1c0-2.8-5.4-5-12-5s-12,2.2-12,5v18h2v-6.2c2,1.3,5.3,2.1,9.2,2.2c0.3-0.3,0.7-0.6,1.1-0.9C494.3,101,494.4,100.6,494.6,100.3
			z M494,85.3c5.5,0,10,1.3,10,3s-4.5,3-10,3s-10-1.4-10-3C484,86.6,488.5,85.3,494,85.3z M484,106.3h-2c0,2.5,4.4,4.6,10.2,4.9
			c-0.4-0.7-0.7-1.4-1-2.1C487.1,108.8,484,107.7,484,106.3z M507,103.4L507,103.4c0-2.9-2.2-5.1-5-5.1s-5,2.2-5,5v0.1
			c-2.1,0.6-3.4,2.8-2.9,4.9c0.5,1.8,2,3,3.9,3h8c2.2,0,4-1.8,4-4C510,105.5,508.8,103.9,507,103.4z M506,109.3h-8c-1.1,0-2-0.9-2-2
			c0-0.9,0.6-1.7,1.5-1.9l1.5-0.4v-1.8c0-1.6,1.4-2.9,3-2.9s2.9,1.3,3,2.9v1.8l1.5,0.4c0.9,0.2,1.5,1,1.5,1.9
			C508,108.4,507.1,109.3,506,109.3z"/>
		<g>
			<path class="st6" d="M524.9,91.9v1h-3.5v9h-1.1v-9h-3.5v-1H524.9z"/>
			<path class="st6" d="M531.7,95.6c0.5,0.7,0.8,1.7,0.8,3h-5.7c0.1,0.8,0.3,1.4,0.7,1.9c0.4,0.4,0.9,0.7,1.6,0.7
				c0.6,0,1.1-0.2,1.4-0.4c0.3-0.3,0.5-0.6,0.7-1.1h1.1c-0.2,0.7-0.5,1.3-1,1.7c-0.6,0.5-1.4,0.8-2.3,0.8c-1,0-1.9-0.4-2.5-1
				c-0.6-0.7-1-1.6-1-2.8c0-1.1,0.3-2,0.9-2.7c0.6-0.8,1.4-1.1,2.5-1.1C530.2,94.5,531.1,94.9,531.7,95.6z M527.5,96
				c-0.4,0.4-0.6,1-0.7,1.7h4.5c-0.1-1.6-0.9-2.3-2.3-2.3C528.4,95.4,527.9,95.6,527.5,96z"/>
			<path class="st6" d="M539.9,97.4v4.5h-1.1v-4.4c0-1.4-0.6-2.1-1.9-2.1c-0.5,0-0.9,0.2-1.3,0.5c-0.4,0.4-0.6,0.9-0.6,1.6v4.4h-1.1
				v-7.2h1.1v1.1c0.3-0.4,0.6-0.7,1-0.9c0.4-0.2,0.8-0.3,1.3-0.3C539,94.5,539.9,95.5,539.9,97.4z"/>
			<path class="st6" d="M546.9,95.1c0.6,0.4,0.9,1.1,1,2h-1.1c-0.1-0.6-0.3-1-0.7-1.3s-0.8-0.4-1.4-0.4c-0.7,0-1.3,0.3-1.7,0.8
				s-0.6,1.2-0.6,2.1s0.2,1.6,0.6,2.1c0.4,0.5,0.9,0.8,1.7,0.8c1.2,0,1.9-0.6,2.1-1.9h1.1c-0.2,0.9-0.5,1.6-1.1,2.1
				c-0.5,0.5-1.3,0.7-2.2,0.7c-1.1,0-1.9-0.4-2.5-1.1s-0.9-1.6-0.9-2.7s0.3-2,0.9-2.7c0.6-0.8,1.5-1.1,2.5-1.1
				C545.7,94.5,546.4,94.7,546.9,95.1z"/>
			<path class="st6" d="M554.9,95.6c0.5,0.7,0.8,1.7,0.8,3H550c0.1,0.8,0.3,1.4,0.7,1.9c0.4,0.4,0.9,0.7,1.6,0.7
				c0.6,0,1.1-0.2,1.4-0.4c0.3-0.3,0.5-0.6,0.7-1.1h1.1c-0.2,0.7-0.5,1.3-1,1.7c-0.6,0.5-1.4,0.8-2.3,0.8c-1,0-1.9-0.4-2.5-1
				c-0.6-0.7-1-1.6-1-2.8c0-1.1,0.3-2,0.9-2.7c0.6-0.8,1.4-1.1,2.5-1.1C553.5,94.5,554.3,94.9,554.9,95.6z M550.8,96
				c-0.4,0.4-0.6,1-0.7,1.7h4.5c-0.1-1.6-0.9-2.3-2.3-2.3C551.7,95.4,551.2,95.6,550.8,96z"/>
			<path class="st6" d="M563.2,97.4v4.5h-1.1v-4.4c0-1.4-0.6-2.1-1.9-2.1c-0.5,0-0.9,0.2-1.3,0.5c-0.4,0.4-0.6,0.9-0.6,1.6v4.4h-1.1
				v-7.2h1.1v1.1c0.3-0.4,0.6-0.7,1-0.9c0.4-0.2,0.8-0.3,1.3-0.3C562.3,94.5,563.2,95.5,563.2,97.4z"/>
			<path class="st6" d="M566.8,94.7h1.8v0.9h-1.8v4.6c0,0.3,0,0.5,0.2,0.6c0.1,0.1,0.3,0.2,0.5,0.2h0.9v0.9h-1.1
				c-0.6,0-1-0.2-1.3-0.5c-0.2-0.3-0.3-0.7-0.3-1.2v-4.6h-1.5v-0.9h1.5v-1.9l1.1-0.5L566.8,94.7L566.8,94.7z"/>
			<path class="st6" d="M573.6,91.9c1.6,0,2.8,0.4,3.6,1.4c0.7,0.8,1.1,2.1,1.1,3.6s-0.4,2.8-1.2,3.6c-0.8,0.9-2,1.4-3.6,1.4H570
				v-10H573.6z M571.2,100.9h2.1c1.3,0,2.3-0.4,2.9-1c0.6-0.7,0.9-1.7,0.9-3s-0.3-2.3-0.9-3c-0.6-0.7-1.6-1-2.9-1H571v8H571.2z"/>
			<path class="st6" d="M584.4,91.9c0.9,0,1.7,0.2,2.2,0.7c0.5,0.4,0.8,1.1,0.8,1.8c0,0.6-0.2,1.1-0.4,1.5c-0.3,0.4-0.7,0.6-1.2,0.8
				c0.7,0.1,1.2,0.4,1.5,0.8c0.4,0.4,0.6,1,0.6,1.6c0,1-0.4,1.7-1,2.2c-0.6,0.4-1.4,0.6-2.4,0.6h-4.4v-10H584.4z M581,96.3h3
				c0.7,0,1.2-0.2,1.6-0.4c0.4-0.3,0.6-0.7,0.6-1.3c0-0.6-0.2-1-0.5-1.3c-0.4-0.3-0.9-0.4-1.6-0.4H581V96.3z M581,100.9h3.2
				c0.7,0,1.2-0.1,1.7-0.4s0.7-0.8,0.7-1.4s-0.2-1.1-0.6-1.4c-0.4-0.3-1-0.4-1.8-0.4H581V100.9L581,100.9z"/>
		</g>
		<g>
			<g>
				<g>
					<path class="st4" d="M494,203.5c-6.6,0-12,2.2-12,5s5.4,5,12,5s12-2.2,12-5S500.6,203.5,494,203.5z M494,211.5
						c-5.5,0-10-1.3-10-3s4.5-3,10-3s10,1.3,10,3S499.5,211.5,494,211.5z"/>
				</g>
			</g>
			<rect x="482" y="208.5" class="st4" width="2" height="18"/>
			<rect x="504" y="208.4" class="st4" width="2" height="6"/>
			<rect x="496" y="218.5" class="st4" width="2" height="13"/>
			<rect x="496" y="223.5" class="st4" width="12" height="2"/>
			<rect x="506" y="223.5" class="st4" width="2" height="8"/>
			<rect x="506" y="218.5" class="st4" width="2" height="3"/>
			<g>
				<path class="st4" d="M492,220.4c-4.6-0.3-8-1.5-8-2.9h-2c0,2.5,4.3,4.5,10,4.9V220.4z"/>
			</g>
			<g>
				<path class="st4" d="M492,229.4c-4.6-0.3-8-1.5-8-2.9h-2c0,2.5,4.3,4.5,10,4.9V229.4z"/>
			</g>
		</g>
	</g>
</g>
<g>
	<polygon class="st12" points="413.5,184.6 408.5,189.1 413.5,193.6 	"/>
	<polygon class="st12" points="432,193.6 437,189.1 432,184.6 	"/>
	<line class="st13" x1="434.5" y1="189.1" x2="410.5" y2="189.1"/>
</g>
<g>
	<polygon class="st12" points="652.7,193.6 657.7,189.1 652.7,184.6 	"/>
	<line class="st13" x1="655.2" y1="189.1" x2="617.6" y2="189.1"/>
</g>
<g>
	<polygon class="st12" points="87.6,263.2 92.1,268.2 96.6,263.2 	"/>
	<rect x="91.6" y="212.3" class="st12" width="1" height="53.4"/>
</g>
<g>
	<g class="st5">
		<path class="st12" d="M182.4,292.2c2,0,3,0.8,3,2.5s-1,2.5-3,2.5h-2.5v3.5h-1v-8.6h3.5V292.2z M179.8,296.4h2.5
			c0.7,0,1.2-0.1,1.5-0.4s0.5-0.7,0.5-1.3c0-0.6-0.2-1-0.5-1.2c-0.3-0.3-0.8-0.4-1.5-0.4h-2.5V296.4z"/>
		<path class="st12" d="M191.4,295.4c0.5,0.6,0.8,1.4,0.8,2.3s-0.3,1.7-0.8,2.3c-0.6,0.6-1.3,1-2.2,1s-1.7-0.3-2.2-1
			c-0.5-0.6-0.8-1.4-0.8-2.3s0.3-1.7,0.8-2.3c0.6-0.6,1.3-1,2.2-1C190.1,294.4,190.9,294.7,191.4,295.4z M187.7,296
			c-0.3,0.5-0.5,1-0.5,1.7s0.2,1.2,0.5,1.7c0.4,0.5,0.9,0.8,1.5,0.8s1.2-0.3,1.5-0.8s0.5-1,0.5-1.7s-0.2-1.3-0.5-1.7
			c-0.4-0.5-0.9-0.8-1.5-0.8C188.6,295.2,188,295.5,187.7,296z"/>
		<path class="st12" d="M194.6,292.1v8.7h-0.9v-8.7H194.6z"/>
		<path class="st12" d="M197.4,292.1v8.7h-0.9v-8.7H197.4z"/>
	</g>
</g>
<g>
	<polygon class="st12" points="213.5,313.8 218.5,309.3 213.5,304.8 	"/>
	<rect x="156" y="308.8" class="st12" width="60" height="1"/>
</g>
</svg>
