<?xml version="1.0" encoding="utf-8"?>
<!-- Generator: Adobe Illustrator 23.0.3, SVG Export Plug-In . SVG Version: 6.00 Build 0)  -->
<svg version="1.1" id="svgwrapper_svg" xmlns="http://www.w3.org/2000/svg" xmlns:xlink="http://www.w3.org/1999/xlink" x="0px"
	 y="0px" width="830px" height="254px" viewBox="0 0 830 254" style="enable-background:new 0 0 830 254;" xml:space="preserve">
<g>
	<path style="fill:#BABABA;" d="M830,0h-5v1h5V0L830,0z M820,0h-5v1h5V0L820,0z M810,0h-5v1h5V0L810,0z M800,0h-5v1h5V0L800,0z
		 M790,0h-5v1h5V0L790,0z M780,0h-5v1h5V0L780,0z M770,0h-5v1h5V0L770,0z M760,0h-5v1h5V0L760,0z M750,0h-5v1h5V0L750,0z M740,0h-5
		v1h5V0L740,0z M730,0h-5v1h5V0L730,0z M720,0h-5v1h5V0L720,0z M710,0h-5v1h5V0L710,0z M700,0h-5v1h5V0L700,0z M690,0h-5v1h5V0
		L690,0z M680,0h-5v1h5V0L680,0z M670,0h-5v1h5V0L670,0z M660,0h-5v1h5V0L660,0z M650,0h-5v1h5V0L650,0z M640,0h-5v1h5V0L640,0z
		 M630,0h-5v1h5V0L630,0z M620,0h-5v1h5V0L620,0z M610,0h-5v1h5V0L610,0z M600,0h-5v1h5V0L600,0z M590,0h-5v1h5V0L590,0z M580,0h-5
		v1h5V0L580,0z M570,0h-5v1h5V0L570,0z M560,0h-5v1h5V0L560,0z M550,0h-5v1h5V0L550,0z M540,0h-5v1h5V0L540,0z M530,0h-5v1h5V0
		L530,0z M520,0h-5v1h5V0L520,0z M510,0h-5v1h5V0L510,0z M500,0h-5v1h5V0L500,0z M490,0h-5v1h5V0L490,0z M480,0h-5v1h5V0L480,0z
		 M470,0h-5v1h5V0L470,0z M460,0h-5v1h5V0L460,0z M450,0h-5v1h5V0L450,0z M440,0h-5v1h5V0L440,0z M430,0h-5v1h5V0L430,0z M420,0h-5
		v1h5V0L420,0z M410,0h-5v1h5V0L410,0z M400,0h-5v1h5V0L400,0z M390,0h-5v1h5V0L390,0z M380,0h-5v1h5V0L380,0z M370,0h-5v1h5V0
		L370,0z M360,0h-5v1h5V0L360,0z M350,0h-5v1h5V0L350,0z M340,0h-5v1h5V0L340,0z M330,0h-5v1h5V0L330,0z M323,2h-1v5h1V2L323,2z
		 M323,12h-1v5h1V12L323,12z M323,22h-1v5h1V22L323,22z M323,32h-1v5h1V32L323,32z M323,42h-1v5h1V42L323,42z M323,52h-1v5h1V52
		L323,52z M323,62h-1v5h1V62L323,62z M323,72h-1v5h1V72L323,72z M323,82h-1v5h1V82L323,82z M323,92h-1v5h1V92L323,92z M323,102h-1v5
		h1V102L323,102z M323,112h-1v5h1V112L323,112z M332,116h-5v1h5V116L332,116z M342,116h-5v1h5V116L342,116z M352,116h-5v1h5V116
		L352,116z M362,116h-5v1h5V116L362,116z M372,116h-5v1h5V116L372,116z M382,116h-5v1h5V116L382,116z M392,116h-5v1h5V116L392,116z
		 M402,116h-5v1h5V116L402,116z M412,116h-5v1h5V116L412,116z M422,116h-5v1h5V116L422,116z M432,116h-5v1h5V116L432,116z M442,116
		h-5v1h5V116L442,116z M452,116h-5v1h5V116L452,116z M462,116h-5v1h5V116L462,116z M472,116h-5v1h5V116L472,116z M482,116h-5v1h5
		V116L482,116z M492,116h-5v1h5V116L492,116z M502,116h-5v1h5V116L502,116z M512,116h-5v1h5V116L512,116z M522,116h-5v1h5V116
		L522,116z M532,116h-5v1h5V116L532,116z M542,116h-5v1h5V116L542,116z M552,116h-5v1h5V116L552,116z M562,116h-5v1h5V116L562,116z
		 M572,116h-5v1h5V116L572,116z M582,116h-5v1h5V116L582,116z M592,116h-5v1h5V116L592,116z M602,116h-5v1h5V116L602,116z M612,116
		h-5v1h5V116L612,116z M622,116h-5v1h5V116L622,116z M632,116h-5v1h5V116L632,116z M642,116h-5v1h5V116L642,116z M652,116h-5v1h5
		V116L652,116z M662,116h-5v1h5V116L662,116z M672,116h-5v1h5V116L672,116z M682,116h-5v1h5V116L682,116z M692,116h-5v1h5V116
		L692,116z M702,116h-5v1h5V116L702,116z M712,116h-5v1h5V116L712,116z M722,116h-5v1h5V116L722,116z M732,116h-5v1h5V116L732,116z
		 M742,116h-5v1h5V116L742,116z M752,116h-5v1h5V116L752,116z M762,116h-5v1h5V116L762,116z M772,116h-5v1h5V116L772,116z M782,116
		h-5v1h5V116L782,116z M792,116h-5v1h5V116L792,116z M802,116h-5v1h5V116L802,116z M812,116h-5v1h5V116L812,116z M822,116h-5v1h5
		V116L822,116z M830,115h-1v1h-2v1h3V115L830,115z M830,105h-1v5h1V105L830,105z M830,95h-1v5h1V95L830,95z M830,85h-1v5h1V85
		L830,85z M830,75h-1v5h1V75L830,75z M830,65h-1v5h1V65L830,65z M830,55h-1v5h1V55L830,55z M830,45h-1v5h1V45L830,45z M830,35h-1v5
		h1V35L830,35z M830,25h-1v5h1V25L830,25z M830,15h-1v5h1V15L830,15z M830,5h-1v5h1V5L830,5z"/>
</g>
<g transform="translate(10 10)">
	<g style="enable-background:new    ;">
		<path style="fill:#444444;" d="M341.1,7v1h-5.9v3.3h5.6v1h-5.6V16h6.2v1H334V7H341.1z"/>
		<path style="fill:#444444;" d="M343.6,9.8l1.9,2.6l1.9-2.6h1.3l-2.6,3.4L349,17h-1.3l-2.2-3l-2.2,3H342l2.9-3.8l-2.6-3.4H343.6z"
			/>
		<path style="fill:#444444;" d="M355.8,10.7c0.5,0.7,0.8,1.6,0.8,2.7c0,1.1-0.3,1.9-0.8,2.6c-0.6,0.8-1.4,1.1-2.4,1.1
			s-1.8-0.5-2.4-1.5v4.1h-1.1v-10h1.1v1.2c0.5-0.9,1.3-1.4,2.4-1.4C354.4,9.6,355.2,9.9,355.8,10.7z M351.5,11.3
			c-0.4,0.5-0.5,1.2-0.5,2v0.1c0,0.8,0.2,1.5,0.6,2c0.4,0.5,0.9,0.8,1.6,0.8c0.8,0,1.4-0.3,1.8-0.8c0.4-0.5,0.5-1.2,0.5-2.1
			c0-0.9-0.2-1.5-0.5-2c-0.4-0.6-1-0.9-1.8-0.9C352.5,10.5,351.9,10.8,351.5,11.3z"/>
		<path style="fill:#444444;" d="M362.3,9.7v1.1c-0.4-0.1-0.7-0.2-1.1-0.2c-0.6,0-1,0.2-1.4,0.7c-0.4,0.5-0.6,1-0.6,1.7V17h-1.1V9.8
			h1.1V11c0.2-0.4,0.4-0.8,0.8-1c0.4-0.3,0.8-0.5,1.3-0.5C361.7,9.6,362,9.6,362.3,9.7z"/>
		<path style="fill:#444444;" d="M368.8,10.7c0.5,0.7,0.8,1.7,0.8,3H364c0.1,0.8,0.3,1.4,0.7,1.9c0.4,0.4,0.9,0.7,1.6,0.7
			c0.6,0,1.1-0.2,1.4-0.4c0.3-0.3,0.5-0.6,0.7-1.1h1.1c-0.2,0.7-0.5,1.3-1,1.7c-0.6,0.5-1.4,0.8-2.3,0.8c-1,0-1.9-0.4-2.5-1
			c-0.6-0.7-1-1.6-1-2.8c0-1.1,0.3-2,0.9-2.7c0.6-0.8,1.4-1.1,2.5-1.1C367.4,9.6,368.3,10,368.8,10.7z M364.7,11.1
			c-0.4,0.4-0.6,1-0.7,1.7h4.5c-0.1-1.6-0.9-2.3-2.3-2.3C365.6,10.5,365.1,10.7,364.7,11.1z"/>
		<path style="fill:#444444;" d="M376.5,11.8h-1.1c-0.1-0.4-0.3-0.8-0.6-1c-0.3-0.2-0.8-0.3-1.3-0.3c-0.5,0-0.9,0.1-1.2,0.3
			c-0.3,0.2-0.5,0.4-0.5,0.8c0,0.3,0.2,0.6,0.6,0.8c0.3,0.1,0.8,0.3,1.5,0.5c0.9,0.2,1.5,0.4,1.9,0.7c0.6,0.4,0.9,0.9,0.9,1.5
			c0,1.5-1,2.2-3.1,2.2c-1.9,0-2.9-0.8-3.1-2.5h1.1c0.1,0.6,0.3,1,0.6,1.2c0.3,0.2,0.8,0.3,1.4,0.3c1.3,0,1.9-0.4,1.9-1.2
			c0-0.4-0.2-0.7-0.7-0.9c-0.2-0.1-0.8-0.3-1.5-0.5c-0.9-0.2-1.5-0.4-1.8-0.6c-0.6-0.3-0.8-0.8-0.8-1.4s0.3-1.1,0.8-1.5
			c0.5-0.4,1.2-0.5,2-0.5C375.4,9.6,376.3,10.3,376.5,11.8z"/>
		<path style="fill:#444444;" d="M383.6,11.8h-1.1c-0.1-0.4-0.3-0.8-0.6-1c-0.3-0.2-0.8-0.3-1.3-0.3c-0.5,0-0.9,0.1-1.2,0.3
			c-0.3,0.2-0.5,0.4-0.5,0.8c0,0.3,0.2,0.6,0.6,0.8c0.3,0.1,0.8,0.3,1.5,0.5c0.9,0.2,1.5,0.4,1.9,0.7c0.6,0.4,0.9,0.9,0.9,1.5
			c0,1.5-1,2.2-3.1,2.2c-1.9,0-2.9-0.8-3.1-2.5h1.1c0.1,0.6,0.3,1,0.6,1.2c0.3,0.2,0.8,0.3,1.4,0.3c1.3,0,1.9-0.4,1.9-1.2
			c0-0.4-0.2-0.7-0.7-0.9c-0.2-0.1-0.8-0.3-1.5-0.5c-0.9-0.2-1.5-0.4-1.8-0.6c-0.6-0.3-0.8-0.8-0.8-1.4s0.3-1.1,0.8-1.5
			c0.5-0.4,1.2-0.5,2-0.5C382.4,9.6,383.4,10.3,383.6,11.8z"/>
		<path style="fill:#444444;" d="M386.7,15.6c0.2,0.2,0.3,0.4,0.3,0.6c0,0.2-0.1,0.4-0.3,0.6c-0.2,0.2-0.4,0.3-0.6,0.3
			c-0.3,0-0.4-0.1-0.6-0.3c-0.2-0.2-0.3-0.4-0.3-0.6c0-0.3,0.1-0.4,0.3-0.6c0.2-0.2,0.4-0.3,0.6-0.3
			C386.3,15.3,386.6,15.4,386.7,15.6z"/>
		<path style="fill:#444444;" d="M390.5,9.8v8.1c0,1.3-0.7,1.9-2,1.9h-0.7v-0.9h0.6c0.7,0,1-0.4,1-1v-8H390.5z M390.5,7.3
			c0.2,0.1,0.2,0.3,0.2,0.6c0,0.2-0.1,0.4-0.2,0.6c-0.2,0.2-0.4,0.2-0.6,0.2s-0.4-0.1-0.6-0.2c-0.2-0.2-0.2-0.4-0.2-0.6
			c0-0.3,0.1-0.4,0.2-0.6c0.2-0.2,0.4-0.2,0.6-0.2S390.3,7.1,390.5,7.3z"/>
		<path style="fill:#444444;" d="M398.1,11.8H397c-0.1-0.4-0.3-0.8-0.6-1c-0.3-0.2-0.8-0.3-1.3-0.3c-0.5,0-0.9,0.1-1.2,0.3
			c-0.3,0.2-0.5,0.4-0.5,0.8c0,0.3,0.2,0.6,0.6,0.8c0.3,0.1,0.8,0.3,1.5,0.5c0.9,0.2,1.5,0.4,1.9,0.7c0.6,0.4,0.9,0.9,0.9,1.5
			c0,1.5-1,2.2-3.1,2.2c-1.9,0-2.9-0.8-3.1-2.5h1.1c0.1,0.6,0.3,1,0.6,1.2c0.3,0.2,0.8,0.3,1.4,0.3c1.3,0,1.9-0.4,1.9-1.2
			c0-0.4-0.2-0.7-0.7-0.9c-0.2-0.1-0.8-0.3-1.5-0.5c-0.9-0.2-1.5-0.4-1.8-0.6c-0.6-0.3-0.8-0.8-0.8-1.4s0.3-1.1,0.8-1.5
			c0.5-0.4,1.2-0.5,2-0.5C396.9,9.6,397.9,10.3,398.1,11.8z"/>
	</g>
</g>
<g>
	<polygon style="fill:#878787;" points="613,67 617,70 613,73 	"/>
	<line style="fill:none;stroke:#878787;stroke-miterlimit:10;" x1="615" y1="70" x2="567" y2="70"/>
</g>
<g id="RectEndPoint6_1_" transform="translate(1,150)">
	<rect x="1" y="-46" style="opacity:0.6;fill:#BBBBBB;enable-background:new    ;" width="178" height="50"/>
	<g>
		<rect x="-0.5" y="-47.5" style="fill:#FFFFFF;" width="177" height="49"/>
		<path style="fill:#E5E5E5;" d="M176-47V1H0v-48H176 M177-48H-1V2h178V-48L177-48z"/>
	</g>
	<g transform="translate(20 9)">
		<g>
			<g>
				<path style="fill:#878787;" d="M9-45.9v21h30v-21H9z M37-26.9H11v-17h26V-26.9z M28-23.9h-2v2h-4v-2h-2v2h-5v2h18v-2h-5V-23.9z"
					/>
			</g>
		</g>
		<g style="enable-background:new    ;">
			<path style="fill:#444444;" d="M51.4-37l2.2,8.4h0.1l2.3-8.4h1.2l2.3,8.4h0.1l2.2-8.4H63l-2.9,10h-1.3l-2.3-8.3h0L54.2-27h-1.3
				l-2.9-10H51.4z"/>
			<path style="fill:#444444;" d="M69.5-33.3c0.5,0.7,0.8,1.7,0.8,3h-5.7c0.1,0.8,0.3,1.4,0.7,1.9c0.4,0.4,0.9,0.7,1.6,0.7
				c0.6,0,1.1-0.2,1.4-0.4c0.3-0.3,0.5-0.6,0.7-1.1h1.1c-0.2,0.7-0.5,1.3-1,1.7c-0.6,0.5-1.4,0.8-2.3,0.8c-1,0-1.9-0.4-2.5-1
				c-0.6-0.7-1-1.6-1-2.8c0-1.1,0.3-2,0.9-2.7c0.6-0.8,1.4-1.1,2.5-1.1C68-34.4,68.9-34,69.5-33.3z M65.3-32.9
				c-0.4,0.4-0.6,1-0.7,1.7h4.5c-0.1-1.6-0.9-2.3-2.3-2.3C66.3-33.5,65.7-33.3,65.3-32.9z"/>
			<path style="fill:#444444;" d="M72.8-37.2v4.3c0.6-1,1.4-1.5,2.4-1.5c1,0,1.8,0.4,2.4,1.2c0.5,0.7,0.8,1.6,0.8,2.6
				c0,1.1-0.3,2-0.8,2.7c-0.6,0.8-1.4,1.1-2.5,1.1c-1.1,0-1.9-0.5-2.4-1.4v1.2h-1.1v-10.2H72.8z M73.4-32.7c-0.4,0.5-0.6,1.2-0.6,2
				v0.1c0,0.8,0.2,1.5,0.5,2c0.4,0.6,1,0.8,1.7,0.8c0.8,0,1.4-0.3,1.8-0.9c0.3-0.5,0.5-1.2,0.5-2.1c0-0.9-0.2-1.5-0.5-2
				c-0.4-0.6-1-0.8-1.8-0.8C74.3-33.5,73.7-33.3,73.4-32.7z"/>
			<path style="fill:#444444;" d="M91.8-36.3c0.8,0.6,1.2,1.4,1.3,2.4H92c-0.1-0.7-0.5-1.3-1.1-1.7c-0.5-0.4-1.2-0.6-2-0.6
				c-1.2,0-2.1,0.4-2.7,1.2c-0.6,0.8-0.9,1.8-0.9,3c0,1.2,0.3,2.2,0.9,3c0.6,0.8,1.5,1.2,2.7,1.2c0.8,0,1.5-0.2,2-0.6
				c0.6-0.4,1-1.1,1.2-2h1.1c-0.2,1.2-0.7,2.1-1.6,2.7c-0.8,0.6-1.7,0.9-2.8,0.9c-1.6,0-2.7-0.5-3.6-1.5c-0.8-0.9-1.1-2.1-1.1-3.6
				c0-1.5,0.4-2.7,1.1-3.7c0.8-1.1,2-1.6,3.6-1.6C90.1-37.2,91-36.9,91.8-36.3z"/>
			<path style="fill:#444444;" d="M96-37.2V-27h-1.1v-10.2H96z"/>
			<path style="fill:#444444;" d="M99.5-36.7c0.2,0.1,0.3,0.3,0.3,0.6c0,0.2-0.1,0.4-0.3,0.6c-0.2,0.2-0.4,0.2-0.6,0.2
				s-0.4-0.1-0.6-0.2c-0.2-0.2-0.2-0.4-0.2-0.6c0-0.3,0.1-0.4,0.2-0.6c0.2-0.2,0.4-0.2,0.6-0.2S99.4-36.9,99.5-36.7z M99.5-34.2v7.2
				h-1.1v-7.2H99.5z"/>
			<path style="fill:#444444;" d="M107.2-33.3c0.5,0.7,0.8,1.7,0.8,3h-5.7c0.1,0.8,0.3,1.4,0.7,1.9c0.4,0.4,0.9,0.7,1.6,0.7
				c0.6,0,1.1-0.2,1.4-0.4c0.3-0.3,0.5-0.6,0.7-1.1h1.1c-0.2,0.7-0.5,1.3-1,1.7c-0.6,0.5-1.4,0.8-2.3,0.8c-1,0-1.9-0.4-2.5-1
				c-0.6-0.7-1-1.6-1-2.8c0-1.1,0.3-2,0.9-2.7c0.6-0.8,1.4-1.1,2.5-1.1C105.7-34.4,106.6-34,107.2-33.3z M103-32.9
				c-0.4,0.4-0.6,1-0.7,1.7h4.5c-0.1-1.6-0.9-2.3-2.3-2.3C104-33.5,103.4-33.3,103-32.9z"/>
			<path style="fill:#444444;" d="M115.5-31.5v4.5h-1.1v-4.4c0-1.4-0.6-2.1-1.9-2.1c-0.5,0-0.9,0.2-1.3,0.5
				c-0.4,0.4-0.6,0.9-0.6,1.6v4.4h-1.1v-7.2h1.1v1.1c0.3-0.4,0.6-0.7,1-0.9c0.4-0.2,0.8-0.3,1.3-0.3
				C114.5-34.4,115.5-33.4,115.5-31.5z"/>
			<path style="fill:#444444;" d="M119.1-34.2h1.8v0.9h-1.8v4.6c0,0.3,0,0.5,0.2,0.6c0.1,0.1,0.3,0.2,0.5,0.2h0.9v0.9h-1.1
				c-0.6,0-1-0.2-1.3-0.5c-0.2-0.3-0.4-0.7-0.4-1.2v-4.6h-1.5v-0.9h1.5v-1.9l1.1-0.5V-34.2z"/>
		</g>
	</g>
</g>
<g id="ShadowBasicRect4_2_" transform="translate(418,150)">
	<rect x="-73" y="33" style="opacity:0.6;fill:#BBBBBB;enable-background:new    ;" width="222" height="50"/>
	<g>
		<rect x="-74.5" y="31.5" style="fill:#FFFFFF;" width="221" height="49"/>
		<path style="fill:#E5E5E5;" d="M146,32v48H-74V32H146 M147,31H-75v50h222V31L147,31z"/>
	</g>
	<g transform="translate(20 9)">
		<g>
			<g>
				<g>
					<path style="fill-rule:evenodd;clip-rule:evenodd;fill:#00A4FF;" d="M-61,43v8l7,4l7-4v-8l-7-4L-61,43z M-55,52.1l-4-2.3v-3.7
						l4,2.3V52.1z M-49,49.8l-4,2.3v-3.7l4-2.3V49.8z M-54,46.7l-4.7-2.7l4.7-2.7l4.7,2.7L-54,46.7z M-42,53.8l-12,6.9l-12-6.9V40.2
						l12-6.9l12,6.9l0,0l2-1.2l-14-8l-14,8v16l14,8l14-8V43l-2,1.1V53.8z"/>
				</g>
			</g>
		</g>
		<g style="enable-background:new    ;">
			<path style="fill:#444444;" d="M-19.9,42.7c0.8,0.6,1.2,1.4,1.3,2.4h-1.1c-0.1-0.7-0.5-1.3-1.1-1.7c-0.5-0.4-1.2-0.6-2-0.6
				c-1.2,0-2.1,0.4-2.7,1.2c-0.6,0.8-0.9,1.8-0.9,3c0,1.2,0.3,2.2,0.9,3c0.6,0.8,1.5,1.2,2.7,1.2c0.8,0,1.5-0.2,2-0.6
				c0.6-0.4,1-1.1,1.2-2h1.1c-0.2,1.2-0.7,2.1-1.6,2.7c-0.8,0.6-1.7,0.9-2.8,0.9c-1.6,0-2.7-0.5-3.6-1.5c-0.8-0.9-1.1-2.1-1.1-3.6
				c0-1.5,0.4-2.7,1.1-3.7c0.8-1.1,2-1.6,3.6-1.6C-21.6,41.8-20.6,42.1-19.9,42.7z"/>
			<path style="fill:#444444;" d="M-15.6,41.8V52h-1.1V41.8H-15.6z"/>
			<path style="fill:#444444;" d="M-7.8,45.7c0.6,0.7,0.9,1.6,0.9,2.7c0,1.1-0.3,2-0.9,2.7c-0.7,0.8-1.5,1.1-2.6,1.1
				c-1.1,0-1.9-0.4-2.6-1.1c-0.6-0.7-0.9-1.6-0.9-2.7c0-1.1,0.3-2,0.9-2.7c0.6-0.8,1.5-1.1,2.6-1.1C-9.3,44.6-8.5,44.9-7.8,45.7z
				 M-12.2,46.4c-0.4,0.5-0.6,1.2-0.6,2c0,0.8,0.2,1.5,0.6,2c0.4,0.6,1,0.9,1.8,0.9c0.8,0,1.4-0.3,1.8-0.9c0.4-0.5,0.6-1.2,0.6-2
				c0-0.8-0.2-1.5-0.6-2c-0.4-0.6-1.1-0.9-1.8-0.9C-11.2,45.5-11.8,45.8-12.2,46.4z"/>
			<path style="fill:#444444;" d="M-4.3,44.8v4.4c0,0.7,0.1,1.2,0.4,1.5c0.3,0.3,0.8,0.5,1.4,0.5c0.5,0,0.9-0.2,1.3-0.6
				c0.4-0.4,0.6-0.9,0.7-1.5v-4.4h1.1V52h-1.1v-1.1c-0.6,0.9-1.4,1.3-2.4,1.3c-1.8,0-2.6-1-2.6-3v-4.5H-4.3z"/>
			<path style="fill:#444444;" d="M8.9,41.8V52H7.8v-1.2c-0.5,0.9-1.3,1.4-2.4,1.4c-1.1,0-1.9-0.4-2.5-1.1c-0.5-0.7-0.8-1.6-0.8-2.7
				c0-1.1,0.3-1.9,0.8-2.6c0.6-0.8,1.4-1.2,2.4-1.2s1.8,0.5,2.4,1.5v-4.3H8.9z M3.8,46.3c-0.4,0.5-0.5,1.2-0.5,2
				c0,0.9,0.2,1.6,0.5,2.1c0.4,0.6,1,0.9,1.8,0.9c0.7,0,1.3-0.3,1.7-0.8c0.4-0.5,0.5-1.2,0.5-2v-0.1c0-0.8-0.2-1.5-0.6-2
				c-0.4-0.5-0.9-0.8-1.6-0.8C4.8,45.5,4.2,45.8,3.8,46.3z"/>
			<path style="fill:#444444;" d="M23.3,43.3c0.8,1,1.2,2.2,1.2,3.7c0,1.5-0.4,2.7-1.2,3.7c-0.9,1-2.1,1.5-3.6,1.5
				c-1.5,0-2.7-0.5-3.5-1.5c-0.8-1-1.2-2.2-1.2-3.7c0-1.5,0.4-2.7,1.2-3.7c0.9-1,2-1.5,3.6-1.5C21.3,41.8,22.4,42.3,23.3,43.3z
				 M17.1,44c-0.6,0.8-0.9,1.8-0.9,3c0,1.2,0.3,2.2,0.9,3c0.6,0.8,1.6,1.2,2.7,1.2c1.1,0,2.1-0.4,2.7-1.1c0.6-0.8,0.9-1.8,0.9-3
				c0-1.3-0.3-2.3-0.9-3c-0.6-0.8-1.5-1.1-2.7-1.1S17.7,43.2,17.1,44z"/>
			<path style="fill:#444444;" d="M27.1,41.8v4.3c0.6-1,1.4-1.5,2.4-1.5c1,0,1.8,0.4,2.4,1.2c0.5,0.7,0.8,1.6,0.8,2.6
				c0,1.1-0.3,2-0.8,2.7c-0.6,0.8-1.4,1.1-2.5,1.1c-1.1,0-1.9-0.5-2.4-1.4V52H26V41.8H27.1z M27.7,46.3c-0.4,0.5-0.6,1.2-0.6,2v0.1
				c0,0.8,0.2,1.5,0.5,2c0.4,0.6,1,0.8,1.7,0.8c0.8,0,1.4-0.3,1.8-0.9c0.3-0.5,0.5-1.2,0.5-2.1c0-0.9-0.2-1.5-0.5-2
				c-0.4-0.6-1-0.8-1.8-0.8C28.6,45.5,28.1,45.7,27.7,46.3z"/>
			<path style="fill:#444444;" d="M35.8,44.8v8.1c0,1.3-0.7,1.9-2,1.9h-0.7v-0.9h0.6c0.7,0,1-0.4,1-1v-8H35.8z M35.9,42.3
				c0.2,0.1,0.2,0.3,0.2,0.6c0,0.2-0.1,0.4-0.2,0.6c-0.2,0.2-0.4,0.2-0.6,0.2s-0.4-0.1-0.6-0.2c-0.2-0.2-0.2-0.4-0.2-0.6
				c0-0.3,0.1-0.4,0.2-0.6c0.2-0.2,0.4-0.2,0.6-0.2S35.7,42.1,35.9,42.3z"/>
			<path style="fill:#444444;" d="M43.6,45.7c0.5,0.7,0.8,1.7,0.8,3h-5.7c0.1,0.8,0.3,1.4,0.7,1.9c0.4,0.4,0.9,0.7,1.6,0.7
				c0.6,0,1.1-0.2,1.4-0.4c0.3-0.3,0.5-0.6,0.7-1.1h1.1c-0.2,0.7-0.5,1.3-1,1.7c-0.6,0.5-1.4,0.8-2.3,0.8c-1,0-1.9-0.4-2.5-1
				c-0.6-0.7-1-1.6-1-2.8c0-1.1,0.3-2,0.9-2.7c0.6-0.8,1.4-1.1,2.5-1.1C42.1,44.6,43,45,43.6,45.7z M39.4,46.1
				c-0.4,0.4-0.6,1-0.7,1.7h4.5c-0.1-1.6-0.9-2.3-2.3-2.3C40.3,45.5,39.8,45.7,39.4,46.1z"/>
			<path style="fill:#444444;" d="M51,45.2c0.6,0.4,0.9,1.1,1,2h-1.1c-0.1-0.6-0.3-1-0.7-1.3c-0.4-0.3-0.8-0.4-1.4-0.4
				c-0.7,0-1.3,0.3-1.7,0.8c-0.4,0.5-0.6,1.2-0.6,2.1c0,0.9,0.2,1.6,0.6,2.1c0.4,0.5,0.9,0.8,1.7,0.8c1.2,0,1.9-0.6,2.1-1.9h1.1
				c-0.2,0.9-0.5,1.6-1.1,2.1c-0.5,0.5-1.3,0.7-2.2,0.7c-1.1,0-1.9-0.4-2.5-1.1c-0.6-0.7-0.9-1.6-0.9-2.7s0.3-2,0.9-2.7
				c0.6-0.8,1.5-1.1,2.5-1.1C49.7,44.6,50.4,44.8,51,45.2z"/>
			<path style="fill:#444444;" d="M55.3,44.8h1.8v0.9h-1.8v4.6c0,0.3,0,0.5,0.2,0.6c0.1,0.1,0.3,0.2,0.5,0.2h0.9V52h-1.1
				c-0.6,0-1-0.2-1.3-0.5c-0.2-0.3-0.4-0.7-0.4-1.2v-4.6h-1.5v-0.9h1.5v-1.9l1.1-0.5V44.8z"/>
			<path style="fill:#444444;" d="M69.2,42.6c0.7,0.5,1.1,1.3,1.1,2.4h-1.1c-0.1-0.7-0.4-1.3-0.8-1.6c-0.4-0.4-1.1-0.5-1.9-0.5
				c-0.7,0-1.3,0.1-1.7,0.4c-0.5,0.3-0.7,0.7-0.7,1.3c0,0.5,0.3,0.9,0.9,1.2c0.3,0.1,0.9,0.3,1.8,0.6c1.3,0.4,2.2,0.7,2.6,1
				c0.8,0.5,1.2,1.2,1.2,2.1c0,0.9-0.3,1.6-1.1,2.1c-0.7,0.5-1.6,0.7-2.8,0.7c-1.2,0-2.1-0.3-2.8-0.8c-0.8-0.6-1.2-1.5-1.3-2.7h1.1
				c0.1,0.9,0.4,1.5,0.9,1.9c0.5,0.4,1.1,0.6,2,0.6c0.8,0,1.5-0.2,2-0.5c0.5-0.3,0.8-0.7,0.8-1.3c0-0.6-0.3-1.1-1-1.5
				c-0.3-0.2-1-0.4-2.1-0.7c-1.2-0.4-2-0.6-2.3-0.8c-0.8-0.4-1.1-1.1-1.1-1.9c0-0.9,0.4-1.6,1.1-2c0.7-0.4,1.5-0.7,2.5-0.7
				C67.6,41.8,68.5,42.1,69.2,42.6z"/>
			<path style="fill:#444444;" d="M73.8,44.8h1.8v0.9h-1.8v4.6c0,0.3,0,0.5,0.2,0.6c0.1,0.1,0.3,0.2,0.5,0.2h0.9V52h-1.1
				c-0.6,0-1-0.2-1.3-0.5c-0.2-0.3-0.3-0.7-0.3-1.2v-4.6h-1.5v-0.9h1.5v-1.9l1.1-0.5V44.8z"/>
			<path style="fill:#444444;" d="M82.6,45.7c0.6,0.7,0.9,1.6,0.9,2.7c0,1.1-0.3,2-0.9,2.7c-0.7,0.8-1.5,1.1-2.6,1.1
				c-1.1,0-1.9-0.4-2.6-1.1c-0.6-0.7-0.9-1.6-0.9-2.7c0-1.1,0.3-2,0.9-2.7c0.6-0.8,1.5-1.1,2.6-1.1C81.1,44.6,82,44.9,82.6,45.7z
				 M78.3,46.4c-0.4,0.5-0.6,1.2-0.6,2c0,0.8,0.2,1.5,0.6,2c0.4,0.6,1,0.9,1.8,0.9c0.8,0,1.4-0.3,1.8-0.9c0.4-0.5,0.6-1.2,0.6-2
				c0-0.8-0.2-1.5-0.6-2c-0.4-0.6-1.1-0.9-1.8-0.9C79.3,45.5,78.7,45.8,78.3,46.4z"/>
			<path style="fill:#444444;" d="M89.2,44.7v1.1c-0.4-0.1-0.7-0.2-1.1-0.2c-0.6,0-1,0.2-1.4,0.7c-0.4,0.5-0.6,1-0.6,1.7V52H85v-7.2
				h1.1V46c0.2-0.4,0.4-0.8,0.8-1c0.4-0.3,0.8-0.5,1.3-0.5C88.6,44.6,88.9,44.6,89.2,44.7z"/>
			<path style="fill:#444444;" d="M95.6,46v-1.2h1.1v6.7c0,2.3-1.1,3.5-3.3,3.5c-1,0-1.7-0.2-2.2-0.6c-0.5-0.4-0.8-1-1-1.8h1.1
				c0.1,0.5,0.3,0.9,0.6,1.1c0.3,0.2,0.8,0.4,1.5,0.4c1.5,0,2.2-0.8,2.2-2.4v-1.3c-0.5,1-1.3,1.5-2.4,1.5c-1,0-1.8-0.4-2.4-1
				c-0.6-0.7-0.9-1.5-0.9-2.6c0-1.1,0.3-1.9,0.9-2.6c0.6-0.7,1.4-1.1,2.4-1.1C94.2,44.6,95,45,95.6,46z M91.6,46.3
				c-0.4,0.5-0.6,1.1-0.6,1.9c0,0.8,0.2,1.4,0.5,1.9c0.4,0.5,1,0.8,1.8,0.8c0.7,0,1.3-0.3,1.7-0.8c0.4-0.5,0.6-1.1,0.6-1.9
				c0-0.8-0.2-1.5-0.6-1.9c-0.4-0.5-1-0.8-1.7-0.8C92.6,45.5,92,45.7,91.6,46.3z"/>
			<path style="fill:#444444;" d="M104,45.7c0.5,0.7,0.8,1.7,0.8,3h-5.7c0.1,0.8,0.3,1.4,0.7,1.9c0.4,0.4,0.9,0.7,1.6,0.7
				c0.6,0,1.1-0.2,1.4-0.4c0.3-0.3,0.5-0.6,0.7-1.1h1.1c-0.2,0.7-0.5,1.3-1,1.7c-0.6,0.5-1.4,0.8-2.3,0.8c-1,0-1.9-0.4-2.5-1
				c-0.6-0.7-1-1.6-1-2.8c0-1.1,0.3-2,0.9-2.7c0.6-0.8,1.4-1.1,2.5-1.1C102.6,44.6,103.4,45,104,45.7z M99.9,46.1
				c-0.4,0.4-0.6,1-0.7,1.7h4.5c-0.1-1.6-0.9-2.3-2.3-2.3C100.8,45.5,100.3,45.7,99.9,46.1z"/>
		</g>
	</g>
</g>
<g id="ShadowBasicRect3_1_" transform="translate(180,95)">
	<g>
		<rect x="165" y="-49" style="opacity:0.6;fill:#BBBBBB;enable-background:new    ;" width="222" height="50"/>
		<g>
			<rect x="163.5" y="-50.5" style="fill:#FFFFFF;" width="221" height="49"/>
			<path style="fill:#E5E5E5;" d="M384-50v48H164v-48H384 M385-51H163v50h222V-51L385-51z"/>
		</g>
	</g>
	<g transform="translate(20 9)">
		<g>
			<g>
				<path style="fill:#00A4FF;" d="M207-22c-7.2,0-13-5.8-13-13c0-7.2,5.8-13,13-13c6.4,0,11.9,4.7,12.9,11h2
					c-1.1-8.2-8.7-14-16.9-12.9c-8.2,1.1-14,8.7-12.9,16.9s8.7,14,16.9,12.9c6.7-0.9,12-6.2,12.9-12.9h-2
					C218.8-26.7,213.4-22,207-22z"/>
				<rect x="199" y="-40" style="fill:#00A4FF;" width="16" height="2"/>
				<rect x="199" y="-29" style="fill:#00A4FF;" width="16" height="2"/>
				<rect x="199" y="-40" style="fill:#00A4FF;" width="2" height="3"/>
				<rect x="199" y="-30" style="fill:#00A4FF;" width="2" height="3"/>
				<rect x="213" y="-30" style="fill:#00A4FF;" width="2" height="3"/>
				<rect x="213" y="-40" style="fill:#00A4FF;" width="2" height="3"/>
				<rect x="202" y="-44" style="fill:#00A4FF;" width="2" height="4"/>
				<rect x="210" y="-44" style="fill:#00A4FF;" width="2" height="4"/>
				<rect x="200" y="-36" style="fill:#00A4FF;" width="2" height="5"/>
				<rect x="203" y="-36" style="fill:#00A4FF;" width="2" height="5"/>
				<rect x="201" y="-36" style="fill:#00A4FF;" width="3" height="1"/>
				<rect x="201" y="-34" style="fill:#00A4FF;" width="3" height="1"/>
				<rect x="207" y="-36" style="fill:#00A4FF;" width="4" height="1"/>
				<rect x="206" y="-34" style="fill:#00A4FF;" width="4" height="1"/>
				<rect x="206" y="-36" style="fill:#00A4FF;" width="2" height="5"/>
				<rect x="209" y="-36" style="fill:#00A4FF;" width="2" height="3"/>
				<rect x="212" y="-36" style="fill:#00A4FF;" width="2" height="5"/>
			</g>
		</g>
		<g style="enable-background:new    ;">
			<path style="fill:#444444;" d="M238.3-40l3.9,10H241l-1.1-2.8h-4.6l-1.1,2.8H233l3.9-10H238.3z M239.5-33.8l-1.9-5h-0.1l-1.9,5
				H239.5z"/>
			<path style="fill:#444444;" d="M247.3-40c2.3,0,3.4,1,3.4,2.9c0,2-1.2,3-3.5,3h-2.9v4.1h-1.1v-10H247.3z M244.4-35.1h2.9
				c0.8,0,1.4-0.2,1.8-0.5c0.4-0.3,0.6-0.8,0.6-1.5c0-0.7-0.2-1.2-0.6-1.5c-0.4-0.3-1-0.5-1.8-0.5h-2.9V-35.1z"/>
			<path style="fill:#444444;" d="M253.4-40v10h-1.1v-10H253.4z"/>
			<path style="fill:#444444;" d="M267.4-39.3c0.7,0.6,1.1,1.4,1.3,2.5h-1.1c-0.2-0.8-0.5-1.3-1-1.7c-0.5-0.4-1.3-0.6-2.1-0.6
				c-1.1,0-1.9,0.4-2.6,1.1c-0.6,0.8-1,1.8-1,3.1c0,1.3,0.3,2.3,0.9,3c0.7,0.8,1.6,1.2,2.9,1.2c0.5,0,1.1-0.1,1.6-0.2
				c0.5-0.1,0.9-0.3,1.3-0.6v-2.5h-3.1v-1h4.3v4.1c-0.5,0.4-1.1,0.7-1.8,0.9c-0.7,0.2-1.5,0.3-2.3,0.3c-1.6,0-2.8-0.5-3.7-1.5
				c-0.8-0.9-1.2-2.2-1.2-3.6c0-1.5,0.4-2.7,1.2-3.7c0.9-1.1,2-1.6,3.5-1.6C265.7-40.2,266.7-39.9,267.4-39.3z"/>
			<path style="fill:#444444;" d="M276-36.6c0.4,0.5,0.6,1.1,0.6,2v4.7h-1.1v-1.2c-0.3,0.4-0.7,0.7-1.1,1c-0.5,0.3-1.1,0.4-1.8,0.4
				c-0.7,0-1.3-0.2-1.7-0.5c-0.4-0.4-0.7-0.9-0.7-1.5c0-0.8,0.3-1.4,1-1.9c0.6-0.4,1.4-0.6,2.5-0.6l1.7,0v-0.4
				c0-1.2-0.6-1.8-1.9-1.8c-0.5,0-1,0.1-1.3,0.3c-0.4,0.2-0.6,0.6-0.7,1l-1.1-0.1c0.2-0.8,0.5-1.3,1.1-1.7c0.5-0.3,1.2-0.5,2.1-0.5
				C274.7-37.4,275.5-37.2,276-36.6z M273.8-33.4c-1.6,0-2.4,0.6-2.4,1.6c0,0.3,0.1,0.6,0.4,0.8c0.3,0.2,0.6,0.3,1.1,0.3
				c0.7,0,1.3-0.2,1.8-0.7c0.5-0.4,0.8-0.9,0.8-1.5v-0.6L273.8-33.4z"/>
			<path style="fill:#444444;" d="M280.3-37.2h1.8v0.9h-1.8v4.6c0,0.3,0,0.5,0.2,0.6c0.1,0.1,0.3,0.2,0.5,0.2h0.9v0.9h-1.1
				c-0.6,0-1-0.2-1.3-0.5c-0.2-0.3-0.4-0.7-0.4-1.2v-4.6h-1.5v-0.9h1.5v-1.9l1.1-0.5V-37.2z"/>
			<path style="fill:#444444;" d="M288.9-36.3c0.5,0.7,0.8,1.7,0.8,3H284c0.1,0.8,0.3,1.4,0.7,1.9c0.4,0.4,0.9,0.7,1.6,0.7
				c0.6,0,1.1-0.2,1.4-0.4c0.3-0.3,0.5-0.6,0.7-1.1h1.1c-0.2,0.7-0.5,1.3-1,1.7c-0.6,0.5-1.4,0.8-2.3,0.8c-1,0-1.9-0.4-2.5-1
				c-0.6-0.7-1-1.6-1-2.8c0-1.1,0.3-2,0.9-2.7c0.6-0.8,1.4-1.1,2.5-1.1C287.4-37.4,288.3-37,288.9-36.3z M284.8-35.9
				c-0.4,0.4-0.6,1-0.7,1.7h4.5c-0.1-1.6-0.9-2.3-2.3-2.3C285.7-36.5,285.1-36.3,284.8-35.9z"/>
			<path style="fill:#444444;" d="M291.5-37.2l1.8,5.9l1.7-5.9h1.1l1.7,5.9l1.8-5.9h1.2l-2.5,7.2h-1.1l-1.7-5.8l-1.7,5.8h-1.1
				l-2.5-7.2H291.5z"/>
			<path style="fill:#444444;" d="M307.1-36.6c0.4,0.5,0.6,1.1,0.6,2v4.7h-1.1v-1.2c-0.3,0.4-0.7,0.7-1.1,1
				c-0.5,0.3-1.1,0.4-1.8,0.4c-0.7,0-1.3-0.2-1.7-0.5c-0.4-0.4-0.7-0.9-0.7-1.5c0-0.8,0.3-1.4,1-1.9c0.6-0.4,1.4-0.6,2.5-0.6l1.7,0
				v-0.4c0-1.2-0.6-1.8-1.9-1.8c-0.5,0-1,0.1-1.3,0.3c-0.4,0.2-0.6,0.6-0.7,1l-1.1-0.1c0.2-0.8,0.5-1.3,1.1-1.7
				c0.5-0.3,1.2-0.5,2.1-0.5C305.8-37.4,306.6-37.2,307.1-36.6z M304.9-33.4c-1.6,0-2.4,0.6-2.4,1.6c0,0.3,0.1,0.6,0.4,0.8
				c0.3,0.2,0.6,0.3,1.1,0.3c0.7,0,1.3-0.2,1.8-0.7c0.5-0.4,0.8-0.9,0.8-1.5v-0.6L304.9-33.4z"/>
			<path style="fill:#444444;" d="M309.9-37.2l2.2,5.7l2.1-5.7h1.2l-4,10h-1.2l1.2-2.9l-2.9-7.1H309.9z"/>
		</g>
	</g>
</g>
<g id="ShadowBasicRect4" transform="translate(346,76)">
	<rect x="275" y="-30" style="opacity:0.6;fill:#BBBBBB;enable-background:new    ;" width="188" height="50"/>
	<g>
		<rect x="273.5" y="-31.5" style="fill:#FFFFFF;" width="187" height="49"/>
		<path style="fill:#E5E5E5;" d="M460-31v48H274v-48H460 M461-32H273v50h188V-32L461-32z"/>
	</g>
	<g transform="translate(20 9)">
		<g>
			<path id="XMLID_1_" style="fill:#00A4FF;" d="M337.8-14c-1,6.2-6.3,11-12.8,11c-7.2,0-13-5.8-13-13s5.8-13,13-13
				c6.5,0,11.9,4.8,12.8,11h2c-0.9-7.3-7.2-13-14.8-13c-8.3,0-15,6.7-15,15s6.7,15,15,15c7.6,0,13.9-5.7,14.9-13H337.8z"/>
			<g>
				<path id="XMLID_2190_" style="fill:#00A4FF;" d="M318-14l5,3v2l-5-3V-14z"/>
				<path id="XMLID_2183_" style="fill:#00A4FF;" d="M318-18l5-3v-2l-5,3V-18z"/>
				<path id="XMLID_2182_" style="fill:#00A4FF;" d="M318-20h2v8h-2V-20z"/>
			</g>
			<g>
				<path id="XMLID_2191_" style="fill:#00A4FF;" d="M330-20h2v8h-2V-20z"/>
				<path id="XMLID_2181_" style="fill:#00A4FF;" d="M332-12l-5,3v-2l5-3V-12z"/>
				<path id="XMLID_2180_" style="fill:#00A4FF;" d="M332-20l-5-3v2l5,3V-20z"/>
			</g>
			<polygon id="XMLID_2168_" style="fill:#00A4FF;" points="325,-13 323,-13 325,-19 327,-19 			"/>
		</g>
		<g style="enable-background:new    ;">
			<path style="fill:#444444;" d="M358-20.4c0.7,0.5,1.1,1.3,1.1,2.4H358c-0.1-0.7-0.4-1.3-0.8-1.6c-0.4-0.4-1.1-0.5-1.9-0.5
				c-0.7,0-1.3,0.1-1.7,0.4c-0.5,0.3-0.7,0.7-0.7,1.3c0,0.5,0.3,0.9,0.9,1.2c0.3,0.1,0.9,0.3,1.8,0.6c1.3,0.4,2.2,0.7,2.6,1
				c0.8,0.5,1.2,1.2,1.2,2.1c0,0.9-0.3,1.6-1.1,2.1c-0.7,0.5-1.6,0.7-2.8,0.7c-1.2,0-2.1-0.3-2.8-0.8c-0.8-0.6-1.2-1.5-1.3-2.7h1.1
				c0.1,0.9,0.4,1.5,0.9,1.9c0.5,0.4,1.1,0.6,2,0.6c0.8,0,1.5-0.2,2-0.5c0.5-0.3,0.8-0.7,0.8-1.3c0-0.6-0.3-1.1-1-1.5
				c-0.3-0.2-1-0.4-2.1-0.7c-1.2-0.4-2-0.6-2.3-0.8c-0.8-0.4-1.1-1.1-1.1-1.9c0-0.9,0.4-1.6,1.1-2c0.7-0.4,1.5-0.7,2.5-0.7
				C356.5-21.2,357.4-20.9,358-20.4z"/>
			<path style="fill:#444444;" d="M368-20.3c0.8,0.6,1.2,1.4,1.3,2.4h-1.1c-0.1-0.7-0.5-1.3-1.1-1.7c-0.5-0.4-1.2-0.6-2-0.6
				c-1.2,0-2.1,0.4-2.7,1.2c-0.6,0.8-0.9,1.8-0.9,3c0,1.2,0.3,2.2,0.9,3c0.6,0.8,1.5,1.2,2.7,1.2c0.8,0,1.5-0.2,2-0.6
				c0.6-0.4,1-1.1,1.2-2h1.1c-0.2,1.2-0.7,2.1-1.6,2.7c-0.8,0.6-1.7,0.9-2.8,0.9c-1.6,0-2.7-0.5-3.6-1.5c-0.8-0.9-1.1-2.1-1.1-3.6
				c0-1.5,0.4-2.7,1.1-3.7c0.8-1.1,2-1.6,3.6-1.6C366.3-21.2,367.2-20.9,368-20.3z"/>
			<path style="fill:#444444;" d="M377.7-21v1h-5.5v3.4h5.3v1h-5.3v4.7H371v-10H377.7z"/>
		</g>
	</g>
</g>
<g>
	<g>
		<path style="fill:#878787;" d="M242.9,55.4c1.4,0,2.4,0.4,3.1,1.2c0.6,0.7,1,1.8,1,3.1c0,1.3-0.3,2.4-1,3.1
			c-0.7,0.8-1.8,1.2-3.1,1.2h-3v-8.6H242.9z M240.8,63.1h1.8c1.1,0,2-0.3,2.5-0.9c0.5-0.6,0.8-1.4,0.8-2.5c0-1.2-0.3-2-0.7-2.6
			c-0.5-0.6-1.3-0.9-2.5-0.9h-1.9V63.1z"/>
		<path style="fill:#878787;" d="M248.6,57.8l1.9,4.9l1.8-4.9h1.1l-3.4,8.6h-1l1.1-2.5l-2.5-6.1H248.6z"/>
		<path style="fill:#878787;" d="M259.4,60.2V64h-1v-3.7c0-1.2-0.6-1.8-1.6-1.8c-0.4,0-0.8,0.2-1.1,0.5c-0.3,0.3-0.5,0.8-0.6,1.3V64
			h-1v-6.2h1v0.9c0.2-0.3,0.5-0.6,0.8-0.8c0.3-0.2,0.7-0.3,1.1-0.3C258.6,57.6,259.4,58.5,259.4,60.2z"/>
		<path style="fill:#878787;" d="M265.5,58.3c0.4,0.4,0.6,1,0.6,1.7v4h-0.9v-1c-0.2,0.3-0.6,0.6-0.9,0.8c-0.5,0.3-1,0.4-1.5,0.4
			c-0.6,0-1.1-0.2-1.5-0.5c-0.4-0.3-0.6-0.7-0.6-1.2c0-0.7,0.3-1.2,0.9-1.6c0.5-0.3,1.2-0.5,2.2-0.5l1.5,0V60c0-1-0.5-1.6-1.6-1.6
			c-0.5,0-0.8,0.1-1.1,0.3c-0.3,0.2-0.5,0.5-0.6,0.9l-0.9-0.1c0.1-0.6,0.5-1.1,1-1.5c0.5-0.3,1-0.4,1.8-0.4
			C264.5,57.6,265.1,57.9,265.5,58.3z M263.7,61c-1.4,0-2.1,0.5-2.1,1.4c0,0.3,0.1,0.5,0.3,0.7c0.2,0.2,0.6,0.3,0.9,0.3
			c0.6,0,1.1-0.2,1.6-0.6c0.4-0.4,0.7-0.8,0.7-1.3V61L263.7,61z"/>
		<path style="fill:#878787;" d="M272.2,58.8c0.2-0.4,0.5-0.7,0.9-0.9c0.3-0.2,0.7-0.3,1.1-0.3c0.6,0,1.2,0.2,1.6,0.6
			c0.4,0.4,0.6,1,0.6,1.7V64h-1v-3.9c0-0.6-0.1-1-0.3-1.2c-0.2-0.3-0.6-0.4-1.2-0.4c-0.4,0-0.8,0.1-1,0.5c-0.3,0.3-0.4,0.7-0.4,1.2
			V64h-1v-3.9c0-1.1-0.5-1.6-1.4-1.6c-0.4,0-0.8,0.2-1.1,0.5c-0.3,0.3-0.4,0.8-0.4,1.2V64h-1v-6.2h1v0.8c0.5-0.7,1.1-1,1.8-1
			C271.2,57.6,271.9,58,272.2,58.8z"/>
		<path style="fill:#878787;" d="M279.1,55.7c0.1,0.1,0.2,0.3,0.2,0.5c0,0.2-0.1,0.4-0.2,0.5c-0.1,0.1-0.3,0.2-0.5,0.2
			s-0.4-0.1-0.5-0.2c-0.1-0.1-0.2-0.3-0.2-0.5c0-0.2,0.1-0.4,0.2-0.5c0.1-0.1,0.3-0.2,0.5-0.2S279,55.5,279.1,55.7z M279.1,57.8V64
			h-1v-6.2H279.1z"/>
		<path style="fill:#878787;" d="M285.4,58.2c0.5,0.4,0.8,0.9,0.9,1.7h-0.9c-0.1-0.5-0.3-0.8-0.6-1.1c-0.3-0.2-0.7-0.3-1.2-0.3
			c-0.6,0-1.1,0.2-1.4,0.7c-0.3,0.4-0.5,1-0.5,1.8c0,0.8,0.2,1.4,0.5,1.8c0.3,0.4,0.8,0.7,1.4,0.7c1.1,0,1.7-0.5,1.8-1.6h1
			c-0.1,0.8-0.4,1.4-0.9,1.8c-0.5,0.4-1.1,0.6-1.8,0.6c-0.9,0-1.7-0.3-2.2-0.9c-0.5-0.6-0.7-1.4-0.7-2.3s0.2-1.7,0.7-2.3
			c0.5-0.7,1.3-1,2.2-1C284.4,57.6,285,57.8,285.4,58.2z"/>
		<path style="fill:#878787;" d="M296,58.2c0.5,0.4,0.8,0.9,0.9,1.7h-0.9c-0.1-0.5-0.3-0.8-0.6-1.1c-0.3-0.2-0.7-0.3-1.2-0.3
			c-0.6,0-1.1,0.2-1.4,0.7c-0.3,0.4-0.5,1-0.5,1.8c0,0.8,0.2,1.4,0.5,1.8c0.3,0.4,0.8,0.7,1.4,0.7c1.1,0,1.7-0.5,1.8-1.6h1
			c-0.1,0.8-0.4,1.4-0.9,1.8c-0.5,0.4-1.1,0.6-1.8,0.6c-0.9,0-1.7-0.3-2.2-0.9c-0.5-0.6-0.7-1.4-0.7-2.3s0.2-1.7,0.7-2.3
			c0.5-0.7,1.3-1,2.2-1C294.9,57.6,295.5,57.8,296,58.2z"/>
		<path style="fill:#878787;" d="M302.7,58.3c0.4,0.4,0.6,1,0.6,1.7v4h-0.9v-1c-0.2,0.3-0.6,0.6-0.9,0.8c-0.5,0.3-1,0.4-1.5,0.4
			c-0.6,0-1.1-0.2-1.5-0.5c-0.4-0.3-0.6-0.7-0.6-1.2c0-0.7,0.3-1.2,0.9-1.6c0.5-0.3,1.2-0.5,2.2-0.5l1.5,0V60c0-1-0.5-1.6-1.6-1.6
			c-0.5,0-0.8,0.1-1.1,0.3c-0.3,0.2-0.5,0.5-0.6,0.9l-0.9-0.1c0.1-0.6,0.5-1.1,1-1.5c0.5-0.3,1-0.4,1.8-0.4
			C301.6,57.6,302.3,57.9,302.7,58.3z M300.9,61c-1.4,0-2.1,0.5-2.1,1.4c0,0.3,0.1,0.5,0.3,0.7c0.2,0.2,0.6,0.3,0.9,0.3
			c0.6,0,1.1-0.2,1.6-0.6c0.4-0.4,0.7-0.8,0.7-1.3V61L300.9,61z"/>
		<path style="fill:#878787;" d="M305.9,55.3V64h-0.9v-8.7H305.9z"/>
		<path style="fill:#878787;" d="M308.7,55.3V64h-0.9v-8.7H308.7z"/>
		<path style="fill:#878787;" d="M315.1,59.6h-0.9c-0.1-0.4-0.2-0.7-0.5-0.8c-0.3-0.2-0.6-0.3-1.1-0.3c-0.4,0-0.8,0.1-1,0.2
			c-0.3,0.2-0.4,0.4-0.4,0.6c0,0.3,0.2,0.5,0.5,0.7c0.2,0.1,0.7,0.2,1.3,0.4c0.7,0.2,1.3,0.4,1.6,0.6c0.5,0.3,0.7,0.7,0.7,1.3
			c0,1.3-0.9,1.9-2.6,1.9c-1.6,0-2.5-0.7-2.7-2.1h0.9c0.1,0.5,0.3,0.8,0.5,1.1c0.3,0.2,0.7,0.3,1.2,0.3c1.1,0,1.7-0.4,1.7-1.1
			c0-0.3-0.2-0.6-0.6-0.8c-0.2-0.1-0.6-0.2-1.3-0.4c-0.7-0.2-1.2-0.4-1.5-0.6c-0.5-0.3-0.7-0.7-0.7-1.2c0-0.5,0.2-0.9,0.7-1.2
			c0.4-0.3,1-0.5,1.7-0.5C314.1,57.6,315,58.3,315.1,59.6z"/>
	</g>
</g>
<g>
	<g>
		<path style="fill:#878787;" d="M245,193.9c0.6,0.5,0.9,1.1,1,2h-1c-0.1-0.6-0.3-1.1-0.7-1.4c-0.4-0.3-0.9-0.5-1.6-0.5
			c-0.6,0-1.1,0.1-1.5,0.3c-0.4,0.2-0.6,0.6-0.6,1.1c0,0.4,0.2,0.8,0.7,1c0.2,0.1,0.7,0.3,1.6,0.5c1.1,0.3,1.9,0.6,2.2,0.8
			c0.7,0.4,1.1,1,1.1,1.8c0,0.7-0.3,1.3-0.9,1.8c-0.6,0.4-1.4,0.6-2.4,0.6c-1,0-1.8-0.2-2.4-0.6c-0.7-0.5-1-1.3-1.1-2.4h1
			c0.1,0.7,0.3,1.3,0.8,1.6c0.4,0.3,1,0.5,1.7,0.5c0.7,0,1.3-0.1,1.7-0.4c0.4-0.3,0.6-0.6,0.6-1.1c0-0.5-0.3-1-0.9-1.3
			c-0.2-0.1-0.9-0.3-1.8-0.6c-1-0.3-1.7-0.6-2-0.7c-0.7-0.4-1-0.9-1-1.7c0-0.7,0.3-1.3,0.9-1.7c0.6-0.4,1.3-0.6,2.2-0.6
			C243.7,193.3,244.5,193.5,245,193.9z"/>
		<path style="fill:#878787;" d="M249,195.8h1.5v0.8H249v3.9c0,0.2,0,0.4,0.1,0.5c0.1,0.1,0.2,0.2,0.5,0.2h0.8v0.8h-0.9
			c-0.5,0-0.9-0.1-1.1-0.4c-0.2-0.2-0.3-0.6-0.3-1.1v-3.9h-1.2v-0.8h1.2v-1.6l0.9-0.4V195.8z"/>
		<path style="fill:#878787;" d="M256.3,196.3c0.4,0.4,0.6,1,0.6,1.7v4h-0.9v-1c-0.2,0.3-0.6,0.6-0.9,0.8c-0.5,0.3-1,0.4-1.5,0.4
			c-0.6,0-1.1-0.2-1.5-0.5c-0.4-0.3-0.6-0.7-0.6-1.2c0-0.7,0.3-1.2,0.9-1.6c0.5-0.3,1.2-0.5,2.2-0.5l1.5,0V198c0-1-0.5-1.6-1.6-1.6
			c-0.5,0-0.8,0.1-1.1,0.3c-0.3,0.2-0.5,0.5-0.6,0.9l-0.9-0.1c0.1-0.6,0.5-1.1,1-1.5c0.5-0.3,1-0.4,1.8-0.4
			C255.2,195.6,255.8,195.9,256.3,196.3z M254.4,199c-1.4,0-2.1,0.5-2.1,1.4c0,0.3,0.1,0.5,0.3,0.7c0.2,0.2,0.6,0.3,0.9,0.3
			c0.6,0,1.1-0.2,1.6-0.6c0.4-0.4,0.7-0.8,0.7-1.3V199L254.4,199z"/>
		<path style="fill:#878787;" d="M260,195.8h1.5v0.8H260v3.9c0,0.2,0,0.4,0.1,0.5c0.1,0.1,0.2,0.2,0.5,0.2h0.8v0.8h-0.9
			c-0.5,0-0.9-0.1-1.1-0.4c-0.2-0.2-0.3-0.6-0.3-1.1v-3.9h-1.2v-0.8h1.2v-1.6l0.9-0.4V195.8z"/>
		<path style="fill:#878787;" d="M263.9,193.7c0.1,0.1,0.2,0.3,0.2,0.5c0,0.2-0.1,0.4-0.2,0.5c-0.1,0.1-0.3,0.2-0.5,0.2
			s-0.4-0.1-0.5-0.2c-0.1-0.1-0.2-0.3-0.2-0.5c0-0.2,0.1-0.4,0.2-0.5c0.1-0.1,0.3-0.2,0.5-0.2S263.7,193.5,263.9,193.7z
			 M263.8,195.8v6.2h-1v-6.2H263.8z"/>
		<path style="fill:#878787;" d="M270.1,196.2c0.5,0.4,0.8,0.9,0.9,1.7h-0.9c-0.1-0.5-0.3-0.8-0.6-1.1c-0.3-0.2-0.7-0.3-1.2-0.3
			c-0.6,0-1.1,0.2-1.4,0.7c-0.3,0.4-0.5,1-0.5,1.8c0,0.8,0.2,1.4,0.5,1.8c0.3,0.4,0.8,0.7,1.4,0.7c1.1,0,1.7-0.5,1.8-1.6h1
			c-0.1,0.8-0.4,1.4-0.9,1.8c-0.5,0.4-1.1,0.6-1.8,0.6c-0.9,0-1.7-0.3-2.2-0.9c-0.5-0.6-0.7-1.4-0.7-2.3s0.2-1.7,0.7-2.3
			c0.5-0.7,1.3-1,2.2-1C269.1,195.6,269.7,195.8,270.1,196.2z"/>
		<path style="fill:#878787;" d="M280.7,196.2c0.5,0.4,0.8,0.9,0.9,1.7h-0.9c-0.1-0.5-0.3-0.8-0.6-1.1c-0.3-0.2-0.7-0.3-1.2-0.3
			c-0.6,0-1.1,0.2-1.4,0.7c-0.3,0.4-0.5,1-0.5,1.8c0,0.8,0.2,1.4,0.5,1.8c0.3,0.4,0.8,0.7,1.4,0.7c1.1,0,1.7-0.5,1.8-1.6h1
			c-0.1,0.8-0.4,1.4-0.9,1.8c-0.5,0.4-1.1,0.6-1.8,0.6c-0.9,0-1.7-0.3-2.2-0.9c-0.5-0.6-0.7-1.4-0.7-2.3s0.2-1.7,0.7-2.3
			c0.5-0.7,1.3-1,2.2-1C279.6,195.6,280.2,195.8,280.7,196.2z"/>
		<path style="fill:#878787;" d="M287.7,196.6c0.5,0.6,0.8,1.4,0.8,2.3c0,0.9-0.3,1.7-0.8,2.3c-0.6,0.6-1.3,1-2.2,1
			c-0.9,0-1.7-0.3-2.2-1c-0.5-0.6-0.8-1.4-0.8-2.3c0-0.9,0.3-1.7,0.8-2.3c0.6-0.6,1.3-1,2.2-1C286.4,195.6,287.2,195.9,287.7,196.6z
			 M284,197.2c-0.3,0.5-0.5,1-0.5,1.7c0,0.7,0.2,1.2,0.5,1.7c0.4,0.5,0.9,0.8,1.5,0.8c0.6,0,1.2-0.3,1.5-0.8c0.3-0.5,0.5-1,0.5-1.7
			c0-0.7-0.2-1.3-0.5-1.7c-0.4-0.5-0.9-0.8-1.5-0.8C284.9,196.4,284.3,196.7,284,197.2z"/>
		<path style="fill:#878787;" d="M295,198.2v3.8h-1v-3.7c0-1.2-0.6-1.8-1.6-1.8c-0.4,0-0.8,0.2-1.1,0.5c-0.3,0.3-0.5,0.8-0.6,1.3
			v3.7h-1v-6.2h1v0.9c0.2-0.3,0.5-0.6,0.8-0.8c0.3-0.2,0.7-0.3,1.1-0.3C294.2,195.6,295,196.5,295,198.2z"/>
		<path style="fill:#878787;" d="M298.1,195.8h1.5v0.8h-1.5v3.9c0,0.2,0,0.4,0.1,0.5c0.1,0.1,0.2,0.2,0.5,0.2h0.8v0.8h-0.9
			c-0.5,0-0.9-0.1-1.1-0.4c-0.2-0.2-0.3-0.6-0.3-1.1v-3.9H296v-0.8h1.2v-1.6l0.9-0.4V195.8z"/>
		<path style="fill:#878787;" d="M305.6,196.6c0.5,0.6,0.7,1.5,0.7,2.5h-4.9c0,0.7,0.2,1.2,0.6,1.6s0.8,0.6,1.4,0.6
			c0.5,0,0.9-0.1,1.2-0.4c0.3-0.2,0.5-0.5,0.6-1h1c-0.1,0.6-0.4,1.1-0.8,1.5c-0.5,0.5-1.2,0.7-2,0.7c-0.9,0-1.6-0.3-2.1-0.9
			c-0.6-0.6-0.8-1.4-0.8-2.4c0-0.9,0.3-1.7,0.8-2.3c0.5-0.6,1.2-1,2.1-1C304.3,195.6,305.1,196,305.6,196.6z M302,197
			c-0.3,0.4-0.5,0.8-0.6,1.5h3.9c-0.1-1.3-0.8-2-2-2C302.8,196.4,302.3,196.6,302,197z"/>
		<path style="fill:#878787;" d="M312.6,198.2v3.8h-1v-3.7c0-1.2-0.6-1.8-1.6-1.8c-0.4,0-0.8,0.2-1.1,0.5c-0.3,0.3-0.5,0.8-0.6,1.3
			v3.7h-1v-6.2h1v0.9c0.2-0.3,0.5-0.6,0.8-0.8c0.3-0.2,0.7-0.3,1.1-0.3C311.8,195.6,312.6,196.5,312.6,198.2z"/>
		<path style="fill:#878787;" d="M315.8,195.8h1.5v0.8h-1.5v3.9c0,0.2,0,0.4,0.1,0.5c0.1,0.1,0.2,0.2,0.5,0.2h0.8v0.8h-0.9
			c-0.5,0-0.9-0.1-1.1-0.4c-0.2-0.2-0.3-0.6-0.3-1.1v-3.9h-1.2v-0.8h1.2v-1.6l0.9-0.4V195.8z"/>
	</g>
</g>
<polygon style="fill:#878787;" points="337,67 341,70 337,73 "/>
<polygon style="fill:#878787;" points="337,204 341,207 337,210 "/>
<line style="fill:none;stroke:#878787;stroke-miterlimit:10;" x1="180" y1="128" x2="228" y2="128"/>
<polyline style="fill:none;stroke:#878787;stroke-miterlimit:10;" points="339,70 228.1,70 228.1,207 339,207 "/>
<g>
	<path style="fill:#BABABA;" d="M588,137h-5v1h4v5h1V137L588,137z M578,137h-5v1h5V137L578,137z M568,137h-5v1h5V137L568,137z
		 M558,137h-5v1h5V137L558,137z M548,137h-5v1h5V137L548,137z M538,137h-5v1h5V137L538,137z M528,137h-5v1h5V137L528,137z M518,137
		h-5v1h5V137L518,137z M508,137h-5v1h5V137L508,137z M498,137h-5v1h5V137L498,137z M488,137h-5v1h5V137L488,137z M478,137h-5v1h5
		V137L478,137z M468,137h-5v1h5V137L468,137z M458,137h-5v1h5V137L458,137z M448,137h-5v1h5V137L448,137z M438,137h-5v1h5V137
		L438,137z M428,137h-5v1h5V137L428,137z M418,137h-5v1h5V137L418,137z M408,137h-5v1h5V137L408,137z M398,137h-5v1h5V137L398,137z
		 M388,137h-5v1h5V137L388,137z M378,137h-5v1h5V137L378,137z M368,137h-5v1h5V137L368,137z M358,137h-5v1h5V137L358,137z M348,137
		h-5v1h5V137L348,137z M338,137h-5v1h5V137L338,137z M328,137h-5v1h5V137L328,137z M323,141h-1v5h1V141L323,141z M323,151h-1v5h1
		V151L323,151z M323,161h-1v5h1V161L323,161z M323,171h-1v5h1V171L323,171z M323,181h-1v5h1V181L323,181z M323,191h-1v5h1V191
		L323,191z M323,201h-1v5h1V201L323,201z M323,211h-1v5h1V211L323,211z M323,221h-1v5h1V221L323,221z M323,231h-1v5h1V231L323,231z
		 M323,241h-1v5h1V241L323,241z M323,251h-1v3h1l0,0l0,0l0,0l0,0c0.5,0,1,0,1,0v-1h-1V251L323,251z M334,253h-5v1h5V253L334,253z
		 M344,253h-5v1h5V253L344,253z M354,253h-5v1h5V253L354,253z M364,253h-5v1h5V253L364,253z M374,253h-5v1h5V253L374,253z M384,253
		h-5v1h5V253L384,253z M394,253h-5v1h5V253L394,253z M404,253h-5v1h5V253L404,253z M414,253h-5v1h5V253L414,253z M424,253h-5v1h5
		V253L424,253z M434,253h-5v1h5V253L434,253z M444,253h-5v1h5V253L444,253z M454,253h-5v1h5V253L454,253z M464,253h-5v1h5V253
		L464,253z M474,253h-5v1h5V253L474,253z M484,253h-5v1h5V253L484,253z M494,253h-5v1h5V253L494,253z M504,253h-5v1h5V253L504,253z
		 M514,253h-5v1h5V253L514,253z M524,253h-5v1h5V253L524,253z M534,253h-5v1h5V253L534,253z M544,253h-5v1h5V253L544,253z M554,253
		h-5v1h5V253L554,253z M564,253h-5v1h5V253L564,253z M574,253h-5v1h5V253L574,253z M584,253h-5v1h5V253L584,253z M588,248h-1v5h1
		V248L588,248z M588,238h-1v5h1V238L588,238z M588,228h-1v5h1V228L588,228z M588,218h-1v5h1V218L588,218z M588,208h-1v5h1V208
		L588,208z M588,198h-1v5h1V198L588,198z M588,188h-1v5h1V188L588,188z M588,178h-1v5h1V178L588,178z M588,168h-1v5h1V168L588,168z
		 M588,158h-1v5h1V158L588,158z M588,148h-1v5h1V148L588,148z"/>
</g>
<g transform="translate(10 10)">
	<g style="enable-background:new    ;">
		<path style="fill:#444444;" d="M334.3,144l3.1,8.8h0l3.1-8.8h1.3l-3.7,10h-1.4l-3.7-10H334.3z"/>
		<path style="fill:#444444;" d="M343.9,146.8v4.4c0,0.7,0.1,1.2,0.4,1.5c0.3,0.3,0.8,0.5,1.4,0.5c0.5,0,0.9-0.2,1.3-0.6
			c0.4-0.4,0.6-0.9,0.7-1.5v-4.4h1.1v7.2h-1.1v-1.1c-0.6,0.9-1.4,1.3-2.4,1.3c-1.8,0-2.6-1-2.6-3v-4.5H343.9z"/>
		<path style="fill:#444444;" d="M356.3,147.7c0.5,0.7,0.8,1.7,0.8,3h-5.7c0.1,0.8,0.3,1.4,0.7,1.9c0.4,0.4,0.9,0.7,1.6,0.7
			c0.6,0,1.1-0.2,1.4-0.4c0.3-0.3,0.5-0.6,0.7-1.1h1.1c-0.2,0.7-0.5,1.3-1,1.7c-0.6,0.5-1.4,0.8-2.3,0.8c-1,0-1.9-0.4-2.5-1
			c-0.6-0.7-1-1.6-1-2.8c0-1.1,0.3-2,0.9-2.7c0.6-0.8,1.4-1.1,2.5-1.1C354.8,146.6,355.7,147,356.3,147.7z M352.1,148.1
			c-0.4,0.4-0.6,1-0.7,1.7h4.5c-0.1-1.6-0.9-2.3-2.3-2.3C353,147.5,352.5,147.7,352.1,148.1z"/>
		<path style="fill:#444444;" d="M360,152.6c0.2,0.2,0.3,0.4,0.3,0.6c0,0.2-0.1,0.4-0.3,0.6c-0.2,0.2-0.4,0.3-0.6,0.3
			c-0.3,0-0.4-0.1-0.6-0.3c-0.2-0.2-0.3-0.4-0.3-0.6c0-0.3,0.1-0.4,0.3-0.6c0.2-0.2,0.4-0.3,0.6-0.3
			C359.6,152.3,359.8,152.4,360,152.6z"/>
		<path style="fill:#444444;" d="M363.7,146.8v8.1c0,1.3-0.7,1.9-2,1.9H361v-0.9h0.6c0.7,0,1-0.4,1-1v-8H363.7z M363.8,144.3
			c0.2,0.1,0.2,0.3,0.2,0.6c0,0.2-0.1,0.4-0.2,0.6c-0.2,0.2-0.4,0.2-0.6,0.2s-0.4-0.1-0.6-0.2c-0.2-0.2-0.2-0.4-0.2-0.6
			c0-0.3,0.1-0.4,0.2-0.6c0.2-0.2,0.4-0.2,0.6-0.2S363.6,144.1,363.8,144.3z"/>
		<path style="fill:#444444;" d="M371.4,148.8h-1.1c-0.1-0.4-0.3-0.8-0.6-1c-0.3-0.2-0.8-0.3-1.3-0.3c-0.5,0-0.9,0.1-1.2,0.3
			c-0.3,0.2-0.5,0.4-0.5,0.8c0,0.3,0.2,0.6,0.6,0.8c0.3,0.1,0.8,0.3,1.5,0.5c0.9,0.2,1.5,0.4,1.9,0.7c0.6,0.4,0.9,0.9,0.9,1.5
			c0,1.5-1,2.2-3.1,2.2c-1.9,0-2.9-0.8-3.1-2.5h1.1c0.1,0.6,0.3,1,0.6,1.2c0.3,0.2,0.8,0.3,1.4,0.3c1.3,0,1.9-0.4,1.9-1.2
			c0-0.4-0.2-0.7-0.7-0.9c-0.2-0.1-0.8-0.3-1.5-0.5c-0.9-0.2-1.5-0.4-1.8-0.6c-0.6-0.3-0.8-0.8-0.8-1.4s0.3-1.1,0.8-1.5
			c0.5-0.4,1.2-0.5,2-0.5C370.2,146.6,371.2,147.3,371.4,148.8z"/>
	</g>
</g>
</svg>
