<?xml version="1.0" encoding="utf-8"?>
<!-- Generator: Adobe Illustrator 23.0.3, SVG Export Plug-In . SVG Version: 6.00 Build 0)  -->
<svg version="1.1" id="图层_1" xmlns="http://www.w3.org/2000/svg" xmlns:xlink="http://www.w3.org/1999/xlink" x="0px" y="0px"
	 width="48px" height="48px" viewBox="0 0 48 48" style="enable-background:new 0 0 48 48;" xml:space="preserve">
<style type="text/css">
	.st0{fill:#334966;}
	.st1{fill-rule:evenodd;clip-rule:evenodd;fill:#00A4FF;}
</style>
<title>画板 1</title>
<path class="st0" d="M4.8,34.8l5.1,0.6l-4.2,4.2C-2.9,29.5-1.7,14.3,8.4,5.7c9-7.6,22.1-7.6,31,0L38,7.2c-9.3-7.8-23.2-6.5-31,2.8
	C1.2,17,0.3,26.9,4.8,34.8z M43.2,13.3l-5.1-0.6l4.2-4.2c8.6,10.1,7.3,25.3-2.8,33.8c-9,7.6-22.1,7.6-31,0L9.9,41
	c9.3,7.8,23.2,6.5,31-2.8C46.7,31.2,47.6,21.3,43.2,13.3L43.2,13.3z"/>
<path id="Combined-Shape-Copy" class="st1" d="M17,33.6c-3.9,0-7-3.1-7-7s3.1-7,7-7c0.1,0,0.2,0,0.3,0c0.9-2.9,3.5-5,6.7-5
	c3.9,0,7,3.1,7,7c0,0,0,0.1,0,0.1c0.3-0.1,0.7-0.1,1-0.1c3.3,0,6,2.7,6,6s-2.7,6-6,6c-0.3,0-0.7,0-1-0.1v0.1H17z"/>
</svg>
