<?xml version="1.0" encoding="UTF-8"?>
<svg width="32px" height="32px" viewBox="0 0 32 32" version="1.1" xmlns="http://www.w3.org/2000/svg" xmlns:xlink="http://www.w3.org/1999/xlink">
    <!-- Generator: Sketch 52.6 (67491) - http://www.bohemiancoding.com/sketch -->
    <title>云数据仓库套件 Sparkling-32px</title>
    <desc>Created with Sketch.</desc>
    <g id="云数据仓库套件-Sparkling-32px" stroke="none" stroke-width="1" fill="none" fill-rule="evenodd">
        <rect id="Rectangle-Copy" fill="#444444" opacity="0" x="0" y="0" width="32" height="32"></rect>
        <g id="Group-13" transform="translate(1.000000, 3.000000)" fill="#7C848E">
            <path d="M29.7081,23.0078 C29.3081,22.4078 28.7081,22.0078 28.0081,22.0078 C27.3081,22.0078 26.6071,22.4078 26.3081,23.0078 L3.0081,23.0078 L3.0081,8.0078 L1.0081,8.0078 L1.0081,25.0078 L26.3081,25.0078 C26.9081,26.0078 28.1071,26.3078 29.0081,25.7078 C30.0081,25.2078 30.3081,24.0078 29.7081,23.0078" id="Fill-1"></path>
            <path d="M3.0079,3.708 C3.3079,3.608 3.5079,3.308 3.7079,3.008 L27.0079,3.008 L27.0079,18.008 L29.0079,18.008 L29.0079,1.008 L3.7079,1.008 C3.2079,0.008 1.9079,-0.292 1.0079,0.308 C0.0079,0.808 -0.2921,2.008 0.3079,3.008 C0.9079,4.008 2.0079,4.308 3.0079,3.708" id="Fill-3"></path>
            <path d="M13.9078,9.1079 L12.7078,9.3079 L12.9078,10.5079 L13.0078,10.6079 C19.4078,15.3079 20.9078,16.2079 21.0078,16.2079 L22.5078,17.1079 L21.3078,15.8079 C20.6078,15.0079 19.7078,14.1079 13.9078,9.1079" id="Fill-5"></path>
            <path d="M10.108,16.208 L10.008,16.208 L9.008,17.008 L10.008,18.008 L10.108,18.008 C14.508,17.908 16.608,17.708 18.108,17.508 C18.608,17.508 19.008,17.408 19.508,17.408 L21.308,17.308 L22.308,17.408 L20.708,16.808 C20.208,16.607 18.408,16.008 8.608,13.008 L8.508,13.008 L7.108,13.808 L7.908,15.008 L8.008,15.008 C12.808,15.908 15.608,16.508 17.408,16.808 L17.308,16.808 C15.808,16.708 13.608,16.508 10.108,16.208" id="Fill-7"></path>
            <path d="M18.1075,21.6075 C20.0075,20.2085 21.7085,18.9085 22.2085,18.5075 L23.2085,17.7085 L21.9085,18.1075 C20.9085,18.4085 19.3075,18.9085 17.2085,19.4085 L17.1075,19.4085 L16.3075,21.0075 L18.0075,21.6075 L18.1075,21.6075 Z" id="Fill-9"></path>
            <path d="M22.8077,16.708 L22.4087,14.607 C22.4087,14.508 22.3077,14.308 22.3077,14.008 C22.1077,13.008 21.8077,10.708 20.7077,5.508 L20.7077,5.408 L19.3077,4.608 L18.4087,6.008 L18.4087,6.108 C20.6077,12.108 21.2077,13.408 21.6077,14.308 L22.8077,16.708 Z" id="Fill-11"></path>
        </g>
    </g>
</svg>