<?xml version="1.0" encoding="utf-8"?>
<!-- Generator: Adobe Illustrator 16.0.0, SVG Export Plug-In . SVG Version: 6.00 Build 0)  -->
<!DOCTYPE svg PUBLIC "-//W3C//DTD SVG 1.1//EN" "http://www.w3.org/Graphics/SVG/1.1/DTD/svg11.dtd">
<svg version="1.1" id="svgwrapper_svg" xmlns="http://www.w3.org/2000/svg" xmlns:xlink="http://www.w3.org/1999/xlink" x="0px"
	 y="0px" width="830px" height="393.5px" viewBox="0 0 830 393.5" enable-background="new 0 0 830 393.5" xml:space="preserve">
<path display="none" fill="none" stroke="#999999" d="M421.5,383L298,377"/>
<g id="DashRectGroup5" transform="translate(9,17)">
	<path fill="none" stroke="#BABABA" stroke-dasharray="5" d="M-4-15h295v266H-4V-15"/>
	<g transform="translate(10 10)">
		<g enable-background="new    ">
			<path fill="#444444" d="M7.704-10.772V0.386H6.682v-0.868h-7.364v0.868h-1.022v-11.158h2.996
				c0.327-0.597,0.555-1.166,0.686-1.708L3-12.34c-0.159,0.56-0.378,1.083-0.658,1.567H7.704z M-0.682-7.72h7.364v-2.086h-7.364
				V-7.72z M-0.682-4.654h7.364v-2.142h-7.364V-4.654z M-0.682-1.448h7.364V-3.73h-7.364V-1.448z"/>
			<path fill="#444444" d="M10.952-10.702v-0.979h4.844v0.979h-2.212c-0.196,1.111-0.485,2.166-0.868,3.164h2.59v6.342h-2.408v1.106
				h-0.924v-5.853c-0.29,0.532-0.611,1.036-0.966,1.513l-0.532-0.868c1.083-1.559,1.801-3.36,2.156-5.404H10.952z M12.898-2.078
				h1.47v-4.563h-1.47V-2.078z M20.808-5.942H18.61c-0.112,2.885-0.947,5.003-2.506,6.356l-0.742-0.672
				c1.428-1.204,2.184-3.099,2.268-5.685h-1.526v-0.966h1.54v-3.878h-1.232v-0.952h6.649v0.952h-1.287v3.878h1.666v0.966h-1.666
				v6.314h-0.967V-5.942z M20.808-10.786h-2.184v3.878h2.184V-10.786z"/>
			<path fill="#444444" d="M24.588-8.154h2.926v5.838c0.448-0.41,0.798-0.741,1.051-0.993l0.252,0.993
				c-0.7,0.71-1.434,1.34-2.198,1.891l-0.393-0.896c0.206-0.177,0.309-0.368,0.309-0.574v-5.292h-1.946V-8.154z M26.296-12.27
				c0.887,0.699,1.629,1.399,2.227,2.1l-0.687,0.7c-0.56-0.672-1.307-1.377-2.24-2.114L26.296-12.27z M36.894-11.892v10.976
				c0,0.831-0.42,1.246-1.26,1.246H34.29l-0.238-0.924c0.467,0.027,0.896,0.042,1.288,0.042c0.401,0,0.603-0.233,0.603-0.7v-9.73
				h-5.67v6.776C30.244-2.312,29.81-0.776,28.97,0.4l-0.742-0.687c0.7-1.026,1.064-2.314,1.093-3.864v-7.741H36.894z M31-9.316h1.61
				v-1.105h0.951v1.105h1.624v0.826h-1.624v1.316h1.862v0.84h-4.647v-0.84h1.834V-8.49H31V-9.316z M31.224-5.34h3.725v3.57h-3.725
				V-5.34z M34.08-2.596V-4.5h-1.988v1.904H34.08z"/>
			<path fill="#444444" d="M40.842-7.874v1.092c-0.056,2.968-0.56,5.349-1.512,7.141l-0.756-0.673
				c0.812-1.559,1.231-3.714,1.26-6.468v-4.563h5.39c-0.177-0.383-0.354-0.714-0.531-0.994l1.063-0.168
				c0.178,0.373,0.341,0.761,0.49,1.162h4.802v0.952H40.842v1.596h2.353v-1.134h0.979v1.134h3.71v-1.148h0.98v1.148h2.155v0.924
				h-2.155v2.184h-5.67v-2.184H40.842z M41.655-4.738h8.204v0.742c-0.803,0.98-1.76,1.797-2.87,2.45
				c1.26,0.532,2.721,0.91,4.382,1.134l-0.435,0.868c-1.95-0.327-3.584-0.821-4.899-1.484c-1.438,0.682-3.071,1.177-4.9,1.484
				l-0.434-0.882c1.651-0.243,3.099-0.625,4.34-1.148c-1.045-0.653-1.89-1.418-2.534-2.296h-0.854V-4.738z M43.573-3.87
				c0.644,0.729,1.446,1.344,2.408,1.848c0.979-0.522,1.834-1.138,2.562-1.848H43.573z M44.174-7.874v1.33h3.71v-1.33H44.174z"/>
			<path fill="#444444" d="M56.97-3.002c-0.942,1.139-2.118,2.137-3.527,2.996l-0.631-0.813c1.372-0.812,2.521-1.75,3.444-2.813
				L56.97-3.002z M56.914,0.358l-0.224-0.994c0.56,0.046,1.04,0.069,1.441,0.069c0.346,0,0.519-0.173,0.519-0.518v-3.43
				c-1.615,0.103-3.076,0.182-4.383,0.237l-0.279-0.896c0.279-0.028,0.573-0.089,0.882-0.182c1.147-0.505,2.436-1.288,3.864-2.353
				c-0.98,0.075-2.292,0.163-3.935,0.266l-0.21-0.896c0.215-0.028,0.443-0.089,0.687-0.182c0.709-0.355,1.535-1.046,2.478-2.072
				c-1.186,0.056-2.45,0.084-3.794,0.084l-0.294-0.882c4.022,0,7.364-0.294,10.024-0.882l0.489,0.854
				c-1.493,0.346-3.211,0.593-5.151,0.742c-0.85,0.989-1.731,1.782-2.646,2.38c0.989-0.047,2.123-0.126,3.402-0.238
				c0.541-0.429,1.189-0.984,1.946-1.666l0.924,0.462c-2.361,2.082-4.424,3.584-6.188,4.509c2.361-0.131,4.316-0.29,5.866-0.477
				c-0.448-0.578-0.813-1.031-1.092-1.357l0.756-0.463c1.157,1.354,2.039,2.521,2.646,3.5L63.83-3.45
				c-0.233-0.41-0.537-0.891-0.91-1.441c-0.84,0.093-1.923,0.195-3.248,0.308v3.752c0,0.793-0.396,1.19-1.189,1.19H56.914z
				 M61.59-3.73c1.409,1.018,2.59,2.045,3.542,3.08l-0.714,0.715c-0.858-0.99-2.025-2.04-3.5-3.15L61.59-3.73z"/>
			<path fill="#444444" d="M70.074-12.074c-0.7,1.792-1.414,3.221-2.143,4.284c0.411-0.056,1.027-0.158,1.849-0.308
				c0.252-0.477,0.509-0.976,0.77-1.498l0.91,0.35c-1.232,2.324-2.254,3.99-3.066,4.998c0.999-0.252,1.983-0.593,2.954-1.021v0.938
				c-1.428,0.598-2.837,1.013-4.228,1.246L66.84-4.01c0.159-0.075,0.313-0.178,0.462-0.309c0.561-0.588,1.214-1.535,1.96-2.842
				c-0.971,0.178-1.735,0.309-2.296,0.393L66.7-7.692c0.158-0.064,0.308-0.195,0.448-0.392c0.736-1.241,1.391-2.702,1.96-4.382
				L70.074-12.074z M71.348-1.826c-1.325,0.663-2.781,1.186-4.367,1.568l-0.127-1.008c1.728-0.383,3.225-0.892,4.494-1.526V-1.826z
				 M73.939-5.746c-0.065,1.755-0.285,3.052-0.658,3.893c-0.411,0.867-1.088,1.609-2.03,2.226l-0.644-0.798
				c0.83-0.532,1.418-1.152,1.764-1.862c0.336-0.728,0.532-1.881,0.588-3.458H73.939z M71.6-7.216
				c0.168-0.057,0.233-0.079,0.196-0.07c0.467-0.345,1.078-1.246,1.834-2.702h-2.394v-0.966h3.569
				c-0.187-0.513-0.396-0.994-0.63-1.442l1.022-0.168c0.214,0.495,0.42,1.032,0.616,1.61h3.149v0.966H74.68
				c-0.606,1.204-1.152,2.091-1.638,2.66c1.372-0.121,2.669-0.28,3.892-0.476c-0.326-0.477-0.657-0.929-0.993-1.358l0.77-0.476
				c0.98,1.251,1.717,2.319,2.212,3.206l-0.784,0.546C77.951-6.24,77.737-6.6,77.494-6.964c-1.68,0.271-3.57,0.485-5.67,0.644
				L71.6-7.216z M76.962,0.148c-0.84,0-1.26-0.406-1.26-1.219v-4.802h0.966v4.634c0,0.289,0.107,0.448,0.322,0.477h0.91
				c0.308-0.028,0.489-0.196,0.546-0.504c0.064-0.458,0.098-1.064,0.098-1.82l0.868,0.308c0,1.316-0.094,2.133-0.28,2.45
				c-0.187,0.289-0.583,0.448-1.189,0.477H76.962z"/>
		</g>
	</g>
</g>
<g id="DashRectGroup16" transform="translate(363,15)">
	<path fill="none" stroke="#BABABA" stroke-dasharray="5" d="M-49-14h349.586v268H-49V-14"/>
	<g transform="translate(10 10)">
		<g enable-background="new    ">
			<path fill="#444444" d="M-48.23-10.696h12.446v0.994h-6.076v2.114c1.736,0.868,3.5,1.876,5.292,3.023l-0.602,0.896
				c-1.839-1.223-3.402-2.175-4.69-2.856v7.952h-1.022v-11.13h-5.348V-10.696z"/>
			<path fill="#444444" d="M-33.432-10.304h2.73v-1.177h0.98v1.177h2.534v0.924h-2.534v1.288h3.36
				c-0.056-1.055-0.084-2.193-0.084-3.416h0.98c0,1.27,0.028,2.408,0.084,3.416h3.528v0.91h-3.473
				c0.084,1.288,0.201,2.305,0.351,3.052c0.074,0.364,0.158,0.747,0.252,1.147c0.504-0.998,0.909-2.165,1.218-3.5l0.896,0.406
				c-0.447,1.755-1.021,3.22-1.722,4.396c0.093,0.279,0.215,0.564,0.364,0.854c0.364,0.691,0.658,1.036,0.882,1.036
				c0.224-0.019,0.42-0.766,0.588-2.24l0.868,0.462c-0.309,1.867-0.752,2.801-1.33,2.801c-0.476,0-0.989-0.425-1.54-1.274
				c-0.168-0.261-0.304-0.514-0.406-0.756c-0.719,0.933-1.544,1.656-2.478,2.17L-27.93,0.56c1.018-0.568,1.881-1.386,2.59-2.449
				c-0.215-0.663-0.392-1.34-0.532-2.03c-0.215-0.989-0.359-2.077-0.434-3.262h-7.854v-0.91h3.458V-9.38h-2.73V-10.304z
				 M-27.188-0.56c-0.112,0.009-0.467,0.051-1.064,0.126l-1.12,0.14v1.652h-0.994v-1.555c-0.793,0.075-1.857,0.164-3.192,0.267
				l-0.126-0.938c0.961-0.056,2.067-0.135,3.318-0.238v-1.245h-2.73l-0.196-0.826c0.401-0.485,0.765-1.069,1.092-1.75h-1.54v-0.896
				h1.932c0.093-0.224,0.224-0.578,0.392-1.063l0.966,0.182c-0.112,0.308-0.224,0.603-0.336,0.882h3.668v0.896h-4.06
				c-0.299,0.625-0.63,1.199-0.994,1.722h1.806v-1.092h0.994v1.092h2.128v0.854h-2.128v1.147c0.775-0.084,1.502-0.168,2.184-0.252
				V-0.56z M-24.025-11.326c0.719,0.803,1.261,1.489,1.624,2.059l-0.756,0.531c-0.392-0.634-0.938-1.334-1.638-2.1L-24.025-11.326z"
				/>
			<path fill="#444444" d="M-17.99-11.396h1.036v2.437h2.87c0,4.583-0.07,7.415-0.21,8.498c-0.14,1.157-0.836,1.736-2.086,1.736
				l-1.064-0.057l-0.252-0.924c0.598,0.037,0.989,0.056,1.177,0.056c0.736,0,1.161-0.4,1.273-1.203
				c0.084-0.784,0.14-3.16,0.168-7.127h-1.876v0.267c-0.047,4.19-0.961,7.257-2.744,9.198l-0.812-0.729
				c1.651-1.745,2.492-4.568,2.52-8.47V-7.98h-2.226V-8.96h2.226V-11.396z M-8.302-9.674V1.19h-0.98V0.266h-2.52V1.19h-0.98V-9.674
				H-8.302z M-11.802-0.714h2.52v-7.98h-2.52V-0.714z"/>
			<path fill="#444444" d="M2.926,1.148c-0.476,0-1.312-0.01-2.506-0.028c-0.905-0.019-1.638-0.103-2.198-0.252
				c-0.541-0.159-1.036-0.5-1.483-1.022c-0.196-0.232-0.378-0.35-0.546-0.35c-0.336,0-0.883,0.644-1.639,1.932l-0.756-0.686
				C-5.474-0.425-4.825-1.139-4.256-1.4v-4.256h-1.988V-6.58h2.926v5.236c0.121,0.093,0.238,0.2,0.351,0.321
				c0.336,0.402,0.7,0.696,1.092,0.883c0.438,0.195,1.073,0.308,1.904,0.336c0.989,0.019,1.908,0.027,2.758,0.027
				c0.429,0,1.101-0.009,2.016-0.027C5.567,0.177,6.09,0.158,6.37,0.14L6.132,1.148H2.926z M-5.237-11.214
				C-4.266-10.486-3.453-9.758-2.8-9.03l-0.714,0.7c-0.598-0.709-1.4-1.451-2.408-2.226L-5.237-11.214z M-2.031-10.29h3.557v-1.134
				h0.938v1.134h3.542v0.924H2.464v1.162h3.024v3.57H2.464v4.326H1.526v-3.92c-0.719,1.269-1.825,2.343-3.318,3.22l-0.63-0.798
				c1.549-0.803,2.65-1.745,3.304-2.828h-2.38v-3.57h3.024v-1.162h-3.557V-10.29z M1.526-5.53v-1.792H-0.56v1.792H1.526z
				 M4.564-5.53v-1.792H2.464v1.792H4.564z M3.57-4.186C4.522-3.43,5.343-2.646,6.034-1.834L5.362-1.176
				C4.793-1.913,3.975-2.711,2.912-3.57L3.57-4.186z"/>
			<path fill="#444444" d="M16.926,1.316l-0.266-0.98l1.344,0.042c0.393,0,0.588-0.191,0.588-0.574v-9.702H9.408V1.372H8.414
				v-12.236h11.172V0.028c0,0.858-0.415,1.288-1.246,1.288H16.926z M13.594-1.778c-0.401-0.634-0.845-1.307-1.33-2.016
				c-0.494,1.362-1.105,2.539-1.834,3.528L9.786-1.05c0.728-1.036,1.33-2.264,1.806-3.683c-0.644-0.858-1.302-1.675-1.974-2.449
				l0.63-0.603c0.56,0.588,1.115,1.251,1.666,1.988c0.271-1.008,0.49-2.063,0.658-3.164l0.924,0.168
				c-0.224,1.438-0.519,2.753-0.882,3.948c0.616,0.84,1.166,1.638,1.651,2.394L13.594-1.778z M17.696-1.134
				c-0.401-0.69-0.873-1.466-1.414-2.324c-0.561,1.372-1.218,2.548-1.975,3.528L13.664-0.7c0.793-1.073,1.446-2.319,1.96-3.738
				c-0.69-1.017-1.33-1.885-1.918-2.604l0.63-0.602C14.905-7,15.456-6.295,15.988-5.53c0.289-0.971,0.536-2.1,0.742-3.388
				l0.951,0.168c-0.252,1.55-0.588,2.954-1.008,4.214c0.588,0.896,1.157,1.806,1.708,2.73L17.696-1.134z"/>
			<path fill="#444444" d="M25.074-11.102c-0.7,1.819-1.4,3.257-2.101,4.312c0.579-0.084,1.186-0.182,1.82-0.294l0.742-1.498
				l0.868,0.322c-1.195,2.352-2.189,4.036-2.982,5.054c0.999-0.215,1.983-0.499,2.954-0.854v0.909
				c-1.466,0.514-2.842,0.859-4.13,1.036l-0.266-0.91c0.187-0.084,0.336-0.182,0.447-0.294c0.532-0.588,1.157-1.535,1.876-2.842
				c-0.774,0.141-1.535,0.267-2.281,0.378l-0.253-0.924c0.159-0.074,0.299-0.2,0.421-0.378c0.736-1.26,1.386-2.721,1.945-4.382
				L25.074-11.102z M26.641-0.434c-1.334,0.513-2.897,0.942-4.689,1.287L21.826-0.14c1.82-0.309,3.425-0.724,4.815-1.246V-0.434z
				 M29.834-11.284c-0.084,0.29-0.215,0.658-0.392,1.106h3.794v0.728c-0.514,1.157-1.256,2.18-2.227,3.066
				c0.98,0.719,2.161,1.273,3.542,1.666l-0.574,0.826c-1.483-0.448-2.721-1.073-3.71-1.876c-1.026,0.765-2.221,1.414-3.584,1.945
				l-0.615-0.812c1.381-0.514,2.538-1.11,3.472-1.792c-0.504-0.504-0.957-1.083-1.358-1.736c-0.392,0.467-0.812,0.882-1.26,1.246
				L26.334-7.7c1.241-1.017,2.086-2.272,2.534-3.766L29.834-11.284z M33.236-3.85v5.166h-0.967V0.714h-3.821v0.603h-0.966V-3.85
				H33.236z M28.448-0.21h3.821v-2.716h-3.821V-0.21z M28.727-8.876c0.43,0.719,0.938,1.344,1.526,1.876
				c0.803-0.69,1.433-1.451,1.89-2.282H28.98L28.727-8.876z"/>
		</g>
	</g>
</g>
<g id="BlueRectGroup17" transform="translate(383,60)">
	<rect x="-49" y="-15" fill="#CEE3FF" width="185.478" height="202"/>
</g>
<g id="Link25" transform="translate(0,0)">
	<path fill="none" stroke="#888888" d="M613.5,170.5v-16l0,0v-17"/>
	<g transform="translate(0, -0.5)">
		<polygon fill="#888888" points="618,142.5 613.5,136.5 609,142.5 		"/>
	</g>
	<path fill="none" stroke="#FF0000" stroke-width="15" stroke-opacity="0" d="M613.5,170.5v-16"/>
	<path fill="none" stroke="#FF0000" stroke-width="15" stroke-opacity="0" d="M613.5,154.5L613.5,154.5"/>
	<path fill="none" stroke="#FF0000" stroke-width="15" stroke-opacity="0" d="M613.5,154.5v-17"/>
</g>
<g id="Link26" transform="translate(0,0)">
	<path fill="none" stroke="#888888" d="M643.823,103.5h17l0,0h17"/>
	<g transform="translate(0.5, 0)">
		<polygon fill="#888888" points="672.823,108 678.823,103.5 672.823,99 		"/>
	</g>
	<path fill="none" stroke="#FF0000" stroke-width="15" stroke-opacity="0" d="M643.823,103.5h17"/>
	<path fill="none" stroke="#FF0000" stroke-width="15" stroke-opacity="0" d="M660.823,103.5L660.823,103.5"/>
	<path fill="none" stroke="#FF0000" stroke-width="15" stroke-opacity="0" d="M660.823,103.5h17"/>
</g>
<g id="Link27" transform="translate(0,0)">
	<path fill="none" stroke="#888888" d="M751.823,97V70l0,0V54"/>
	<g transform="translate(0, 0.5)">
		<polygon fill="#888888" points="756.323,58 751.823,52 747.323,58 		"/>
	</g>
	<path fill="none" stroke="#FF0000" stroke-width="15" stroke-opacity="0" d="M751.823,97V70"/>
	<path fill="none" stroke="#FF0000" stroke-width="15" stroke-opacity="0" d="M751.823,70L751.823,70"/>
	<path fill="none" stroke="#FF0000" stroke-width="15" stroke-opacity="0" d="M751.823,70V54"/>
</g>
<g id="Link7" transform="translate(0,0)">
	<path fill="none" stroke="#888888" d="M145.5,76.5h15v67h14"/>
	<g transform="translate(0.5, 0)">
		<polygon fill="#888888" points="169.5,148 175.5,143.5 169.5,139 		"/>
	</g>
	<path fill="none" stroke="#FF0000" stroke-width="15" stroke-opacity="0" d="M145.5,76.5h15"/>
	<path fill="none" stroke="#FF0000" stroke-width="15" stroke-opacity="0" d="M160.5,76.5v67"/>
	<path fill="none" stroke="#FF0000" stroke-width="15" stroke-opacity="0" d="M160.5,143.5h14"/>
</g>
<g id="Link8" transform="translate(0,0)">
	<path fill="none" stroke="#888888" d="M145.5,143.5h15l0,0h14"/>
	<g transform="translate(0.5, 0)">
		<polygon fill="#888888" points="169.5,148 175.5,143.5 169.5,139 		"/>
	</g>
	<path fill="none" stroke="#FF0000" stroke-width="15" stroke-opacity="0" d="M145.5,143.5h15"/>
	<path fill="none" stroke="#FF0000" stroke-width="15" stroke-opacity="0" d="M160.5,143.5L160.5,143.5"/>
	<path fill="none" stroke="#FF0000" stroke-width="15" stroke-opacity="0" d="M160.5,143.5h14"/>
</g>
<g id="Link9" transform="translate(0,0)">
	<path fill="none" stroke="#888888" d="M145.5,208.5h15v-65h14"/>
	<g transform="translate(0.5, 0)">
		<polygon fill="#888888" points="169.5,148 175.5,143.5 169.5,139 		"/>
	</g>
	<path fill="none" stroke="#FF0000" stroke-width="15" stroke-opacity="0" d="M145.5,208.5h15"/>
	<path fill="none" stroke="#FF0000" stroke-width="15" stroke-opacity="0" d="M160.5,208.5v-65"/>
	<path fill="none" stroke="#FF0000" stroke-width="15" stroke-opacity="0" d="M160.5,143.5h14"/>
</g>
<g id="Link28" transform="translate(0,0)">
	<path fill="none" stroke="#888888" d="M432.5,340.5v-105"/>
	<g transform="translate(0, -0.5)">
		<polygon fill="#888888" points="437,240.5 432.5,234.5 428,240.5 		"/>
	</g>
	<path fill="none" stroke="#FF0000" stroke-width="15" stroke-opacity="0" d="M432.5,340.5v-105"/>
</g>
<g id="Link29" transform="translate(0,0)">
	<path fill="none" stroke="#888888" d="M227.5,343.583V180.5"/>
	<g transform="translate(0, -0.5)">
		<polygon fill="#888888" points="232,185.5 227.5,179.5 223,185.5 		"/>
	</g>
	<path fill="none" stroke="#FF0000" stroke-width="15" stroke-opacity="0" d="M227.5,343.583V180.5"/>
</g>
<g id="Link30" transform="translate(0,0)">
	<path fill="none" stroke="#888888" d="M392.605,362.5H289.126"/>
	<path fill="none" stroke="#888888" d="M400.126,367.5"/>
	<g transform="translate(-0.5, 0)">
		<polygon fill="#888888" points="294.126,358 288.126,362.5 294.126,367 		"/>
	</g>
	<path fill="none" stroke="#FF0000" stroke-width="15" stroke-opacity="0" d="M392.605,362.5H289.126"/>
</g>
<g id="RectEndPoint1" transform="translate(31,67)">
	<rect x="-7" y="-13" opacity="0.6" fill="#BBBBBB" enable-background="new    " width="124" height="50"/>
	<rect x="-9" y="-15" fill="#FFFFFF" stroke="#E5E5E5" width="124" height="50"/>
	<g transform="translate(20 9)">
		<g enable-background="new    ">
			<path fill="#444444" d="M-0.908-2.33h1.022v1.554C0.068,0.447-0.133,1.52-0.488,2.444h4.564v0.938h-4.998
				C-1.034,3.588-1.183,3.816-1.37,4.068c1.923,0.69,3.715,1.54,5.376,2.548l-0.56,0.868c-1.783-1.13-3.588-2.035-5.418-2.717
				C-3.101,5.869-4.87,6.747-7.278,7.4l-0.546-0.854c2.585-0.69,4.382-1.596,5.39-2.716l0.322-0.448h-6.006V2.444h6.524
				c0.411-0.915,0.64-1.988,0.686-3.221V-2.33z M3.712-3.982v2.801H2.69v-1.862h-9.38v1.932h-1.022v-2.87h5.32
				c-0.196-0.55-0.396-1.026-0.602-1.428l1.064-0.168c0.168,0.401,0.345,0.934,0.532,1.596H3.712z M-5.99-0.356
				c1.073,0.421,2.03,0.915,2.87,1.484l-0.518,0.798c-0.933-0.672-1.885-1.185-2.856-1.54L-5.99-0.356z M-5.15-2.484
				c0.98,0.374,1.913,0.854,2.8,1.442l-0.504,0.798C-3.797-0.916-4.725-1.425-5.64-1.77L-5.15-2.484z"/>
			<path fill="#444444" d="M10.18-4.388V5.93H9.2V4.992H7.128v1.273h-0.98V-4.388H10.18z M7.128-0.258H9.2v-3.206H7.128V-0.258z
				 M7.128,4.054H9.2V0.68H7.128V4.054z M12.938,7.26l-0.21-0.979c1.083,0.037,1.857,0.056,2.324,0.056
				c0.411,0,0.616-0.22,0.616-0.658v-7.574h-4.844v-0.966h4.844v-2.464h1.022v2.464h1.722v0.966h-1.722V5.93
				c0,0.887-0.435,1.33-1.303,1.33H12.938z M12.196-0.216c0.887,1.344,1.554,2.492,2.002,3.443l-0.84,0.589
				c-0.513-1.093-1.176-2.264-1.988-3.515L12.196-0.216z"/>
			<path fill="#444444" d="M22.025-5.2c-0.065,0.317-0.173,0.775-0.322,1.372h2.114v0.952h-2.408
				C21.1-1.924,20.74-1.047,20.33-0.244l-0.798-0.504c0.709-1.428,1.218-2.978,1.525-4.648L22.025-5.2z M20.75-1.042h2.828v0.91
				H22.43v1.75h1.54v0.938h-1.54v3.263c0.393-0.196,0.798-0.462,1.219-0.799l0.168,0.868c-0.71,0.504-1.476,0.901-2.297,1.19
				l-0.378-0.84c0.215-0.104,0.322-0.252,0.322-0.448V2.556H19.91V1.618h1.554v-1.75H20.75V-1.042z M32.441,6.21l-0.267,0.952
				h-1.946c-0.279,0-0.699-0.01-1.26-0.028c-0.635-0.009-1.199-0.093-1.693-0.252c-0.477-0.168-0.878-0.443-1.204-0.826
				c-0.178-0.205-0.332-0.308-0.462-0.308c-0.252,0-0.682,0.541-1.288,1.624l-0.603-0.756c0.598-0.905,1.088-1.475,1.471-1.708
				V0.162h-1.135v-0.896h2.059v5.698c0.056,0.037,0.103,0.084,0.14,0.14c0.28,0.364,0.635,0.645,1.064,0.841
				c0.42,0.148,0.891,0.237,1.414,0.266c0.709,0.019,1.236,0.028,1.581,0.028C30.835,6.238,31.544,6.229,32.441,6.21z M24.81-5.144
				c0.663,0.867,1.157,1.604,1.484,2.212L25.538-2.4c-0.354-0.681-0.845-1.441-1.47-2.281L24.81-5.144z M26.77,2.458h2.618V0.736
				h-2.296l-0.195-0.84c0.476-0.775,0.909-1.731,1.302-2.87h-1.4v-0.883h1.666l0.42-1.582l0.896,0.211
				c-0.094,0.42-0.215,0.877-0.364,1.371h2.674v0.883h-2.954c-0.383,1.11-0.779,2.053-1.189,2.827h1.441v-1.89h0.938v1.89h1.638
				v0.883h-1.638v1.722h2.03v0.896h-2.03v2.324h-0.938V3.354H26.77V2.458z"/>
			<path fill="#444444" d="M34.275-4.878h4.312v4.396h-1.4v2.255h1.456v0.951h-1.456v2.604c0.757-0.243,1.349-0.443,1.778-0.603
				v1.009c-1.446,0.541-3.149,1.045-5.11,1.512l-0.279-0.98l0.742-0.168V1.016h0.896v4.858l1.036-0.266v-6.091h-1.974V-4.878z
				 M37.62-1.406v-2.548h-2.366v2.548H37.62z M42.198-5.284c-0.104,0.327-0.229,0.668-0.378,1.022h3.472v0.728
				c-0.476,1.167-1.172,2.203-2.086,3.108c0.934,0.766,2.049,1.349,3.346,1.75L45.978,2.15c-1.381-0.448-2.543-1.093-3.485-1.933
				c-0.952,0.766-2.082,1.429-3.389,1.988l-0.602-0.813c1.278-0.513,2.38-1.134,3.304-1.861c-0.494-0.541-0.919-1.134-1.273-1.778
				c-0.336,0.393-0.742,0.779-1.218,1.162l-0.603-0.798c1.232-0.971,2.072-2.165,2.521-3.584L42.198-5.284z M45.264,2.164v5.194
				h-0.966V6.742H40.77v0.616h-0.966V2.164H45.264z M40.77,5.818h3.528V3.074H40.77V5.818z M41.107-3.016
				c0.392,0.756,0.858,1.404,1.399,1.945c0.729-0.709,1.302-1.475,1.722-2.296h-2.884L41.107-3.016z"/>
			<path fill="#444444" d="M58.817,2.136v3.893h1.498v0.91H47.644v-0.91h1.568V2.136H58.817z M48.611-4.794h0.993v5.712h-0.993
				V-4.794z M50.178,6.028h1.862V3.06h-1.862V6.028z M51.508-5.48h1.022v6.916h-1.022V-5.48z M53.006,6.028h1.96V3.06h-1.96V6.028z
				 M55.456-2.792c-0.457,1.148-1.022,2.091-1.694,2.828l-0.644-0.784c0.998-1.194,1.671-2.795,2.016-4.802l1.036,0.196
				c-0.103,0.522-0.229,1.05-0.378,1.581h4.172v0.98H55.456z M55.932,6.028h1.918V3.06h-1.918V6.028z M56.926-1.84
				c0.766,0.961,1.34,1.792,1.723,2.492l-0.841,0.573c-0.429-0.793-0.993-1.646-1.693-2.562L56.926-1.84z"/>
			<path fill="#444444" d="M62.05,7.274l-0.21-0.98c0.504,0.037,0.868,0.056,1.092,0.056c0.364,0,0.546-0.2,0.546-0.602V2.36
				c-0.56,0.205-1.119,0.401-1.68,0.588L61.546,1.94c0.663-0.168,1.307-0.364,1.932-0.589v-3.136H61.77V-2.75h1.708v-2.674h1.036
				v2.674h1.162v0.966h-1.162v2.716c0.485-0.224,0.892-0.424,1.219-0.602v1.021c-0.542,0.262-0.948,0.453-1.219,0.574V6
				c0,0.85-0.41,1.274-1.231,1.274H62.05z M69.666,2.906h-3.262V1.968h7.476v0.938h-3.206v3.038h3.725v0.979h-8.555V5.944h3.822
				V2.906z M70.044-5.592c0.262,0.56,0.495,1.125,0.7,1.693h3.29v2.646h-0.938v-1.736h-5.88v1.736h-0.952v-2.646h3.473
				c-0.233-0.588-0.472-1.096-0.714-1.525L70.044-5.592z M69.624-1.77c-0.653,1.399-1.498,2.459-2.534,3.178l-0.728-0.63
				c1.055-0.729,1.848-1.694,2.38-2.898L69.624-1.77z M71.445-2.148c0.849,0.878,1.619,1.876,2.31,2.996l-0.882,0.448
				c-0.71-1.186-1.47-2.212-2.282-3.08L71.445-2.148z"/>
		</g>
	</g>
</g>
<g id="RectEndPoint2" transform="translate(31,199)">
	<rect x="-7" y="-13" opacity="0.6" fill="#BBBBBB" enable-background="new    " width="124" height="50"/>
	<rect x="-9" y="-15" fill="#FFFFFF" stroke="#E5E5E5" width="124" height="50"/>
	<g transform="translate(20 9)">
		<g enable-background="new    ">
			<path fill="#444444" d="M-8.09-4.066h3.234v-1.357h1.022v1.357h3.668v-1.357h1.022v1.357H4.09v0.98H0.856v1.33h-1.022v-1.33
				h-3.668v1.316h-1.022v-1.316H-8.09V-4.066z M-3.498-0.076h-3.976v-0.966h10.43C2.882,1.301,2.825,2.696,2.788,3.144
				C2.732,3.909,2.583,4.418,2.34,4.67c-0.252,0.28-0.7,0.42-1.344,0.42c-0.598,0-1.092,0.01-1.484,0.028l-0.28-1.008l1.526,0.014
				c0.364,0,0.63-0.093,0.798-0.28c0.177-0.205,0.285-0.667,0.322-1.386c0.028-0.682,0.051-1.526,0.07-2.534h-4.424v7.435h-1.022
				V-0.076z"/>
			<path fill="#444444" d="M8.29,4.194C7.749,5.426,7.137,6.48,6.456,7.358L5.63,6.756c0.7-0.821,1.302-1.811,1.806-2.968
				L8.29,4.194z M11.272-5.41h0.994v1.358h5.432V-3.1h-5.432v1.777h4.466v4.494H7.464v-4.494h3.808V-5.41z M15.724,2.234V-0.37
				H8.472v2.604H15.724z M10.488,4.194c0.28,0.914,0.532,1.918,0.756,3.01l-1.008,0.224C10.04,6.252,9.811,5.239,9.55,4.39
				L10.488,4.194z M13.414,4.054c0.411,0.934,0.774,1.975,1.092,3.122L13.512,7.4c-0.28-1.195-0.63-2.245-1.05-3.15L13.414,4.054z
				 M16.284,3.774c0.858,1.129,1.54,2.151,2.044,3.065l-0.84,0.588c-0.477-0.924-1.148-1.969-2.017-3.136L16.284,3.774z"/>
			<path fill="#444444" d="M22.766-5.354h0.994V7.358h-0.994V2.486c-0.849,0.905-1.806,1.75-2.869,2.533l-0.309-1.05
				c1.167-0.774,2.227-1.666,3.178-2.674V-5.354z M20.722-3.968c0.532,1.11,0.994,2.31,1.387,3.598l-0.883,0.406
				c-0.429-1.372-0.914-2.604-1.456-3.696L20.722-3.968z M28.618-5.396c0,1.027-0.015,2.269-0.042,3.725h3.416v0.966h-3.304
				c0.606,3.155,1.871,5.581,3.794,7.28L31.796,7.33c-1.764-1.661-2.954-3.771-3.57-6.328c-0.588,2.529-1.685,4.653-3.29,6.37
				l-0.672-0.756c1.876-2.101,2.954-4.541,3.234-7.322h-2.814v-0.966h2.87c0.047-1.802,0.07-3.043,0.07-3.725H28.618z M30.172-5.158
				c0.729,0.813,1.307,1.55,1.736,2.212l-0.784,0.561c-0.392-0.653-0.971-1.414-1.736-2.282L30.172-5.158z"/>
			<path fill="#444444" d="M40.504-5.466c-0.047,0.438-0.136,0.938-0.266,1.498h5.403v0.966h-4.479
				c0.681,1.55,2.417,2.758,5.208,3.626l-0.532,0.868C42.74,0.4,40.84-1.098,40.14-3.002h-0.21
				c-0.308,0.821-0.723,1.526-1.246,2.114c-0.065,0.065-0.111,0.116-0.14,0.153c0.579,0.401,1.26,0.962,2.044,1.681l-0.7,0.7
				c-0.672-0.673-1.344-1.274-2.016-1.807c-0.905,0.672-2.212,1.237-3.92,1.694L33.56,0.61c1.979-0.504,3.416-1.223,4.313-2.156
				c0.373-0.393,0.69-0.877,0.952-1.456h-4.592v-0.966h4.941c0.159-0.522,0.267-1.055,0.322-1.597L40.504-5.466z M35.996,2.92
				c-0.336,1.447-0.808,2.707-1.414,3.78l-0.868-0.546c0.598-1.046,1.026-2.193,1.288-3.444L35.996,2.92z M38.46,7.106
				c-0.942,0-1.414-0.467-1.414-1.4V2.668h1.036v2.828c0,0.42,0.229,0.63,0.686,0.63h2.982c0.299,0,0.509-0.084,0.63-0.252
				c0.168-0.196,0.28-0.774,0.336-1.736l0.952,0.309c-0.094,1.241-0.285,2.006-0.574,2.296c-0.261,0.242-0.648,0.364-1.162,0.364
				H38.46z M40.308,2.206c0.504,0.747,0.934,1.53,1.288,2.352l-0.924,0.406c-0.411-0.979-0.826-1.806-1.246-2.478L40.308,2.206z
				 M44.494,2.5c0.672,1.036,1.26,2.156,1.764,3.36l-0.924,0.405c-0.541-1.307-1.144-2.459-1.806-3.458L44.494,2.5z"/>
			<path fill="#444444" d="M58.817,2.136v3.893h1.498v0.91H47.644v-0.91h1.568V2.136H58.817z M48.611-4.794h0.993v5.712h-0.993
				V-4.794z M50.178,6.028h1.862V3.06h-1.862V6.028z M51.508-5.48h1.022v6.916h-1.022V-5.48z M53.006,6.028h1.96V3.06h-1.96V6.028z
				 M55.456-2.792c-0.457,1.148-1.022,2.091-1.694,2.828l-0.644-0.784c0.998-1.194,1.671-2.795,2.016-4.802l1.036,0.196
				c-0.103,0.522-0.229,1.05-0.378,1.581h4.172v0.98H55.456z M55.932,6.028h1.918V3.06h-1.918V6.028z M56.926-1.84
				c0.766,0.961,1.34,1.792,1.723,2.492l-0.841,0.573c-0.429-0.793-0.993-1.646-1.693-2.562L56.926-1.84z"/>
			<path fill="#444444" d="M62.05,7.274l-0.21-0.98c0.504,0.037,0.868,0.056,1.092,0.056c0.364,0,0.546-0.2,0.546-0.602V2.36
				c-0.56,0.205-1.119,0.401-1.68,0.588L61.546,1.94c0.663-0.168,1.307-0.364,1.932-0.589v-3.136H61.77V-2.75h1.708v-2.674h1.036
				v2.674h1.162v0.966h-1.162v2.716c0.485-0.224,0.892-0.424,1.219-0.602v1.021c-0.542,0.262-0.948,0.453-1.219,0.574V6
				c0,0.85-0.41,1.274-1.231,1.274H62.05z M69.666,2.906h-3.262V1.968h7.476v0.938h-3.206v3.038h3.725v0.979h-8.555V5.944h3.822
				V2.906z M70.044-5.592c0.262,0.56,0.495,1.125,0.7,1.693h3.29v2.646h-0.938v-1.736h-5.88v1.736h-0.952v-2.646h3.473
				c-0.233-0.588-0.472-1.096-0.714-1.525L70.044-5.592z M69.624-1.77c-0.653,1.399-1.498,2.459-2.534,3.178l-0.728-0.63
				c1.055-0.729,1.848-1.694,2.38-2.898L69.624-1.77z M71.445-2.148c0.849,0.878,1.619,1.876,2.31,2.996l-0.882,0.448
				c-0.71-1.186-1.47-2.212-2.282-3.08L71.445-2.148z"/>
		</g>
	</g>
</g>
<g id="RectEndPoint3" transform="translate(31,134)">
	<rect x="-7" y="-13" opacity="0.6" fill="#BBBBBB" enable-background="new    " width="124" height="50"/>
	<rect x="-9" y="-15" fill="#FFFFFF" stroke="#E5E5E5" width="124" height="50"/>
	<g transform="translate(20 9)">
		<g enable-background="new    ">
			<path fill="#444444" d="M-5.808-5.452h0.98v0.896h2.198v0.84h-2.198v0.924h1.876v0.812h-1.876v0.952h2.45v0.84h-5.936v-0.84
				h2.506V-1.98h-1.96v-0.812h1.96v-0.924h-2.296v-0.84h2.296V-5.452z M-6.872,5.118v2.254h-0.966v-6.65h4.97V6.14
				c0,0.784-0.35,1.177-1.05,1.177h-0.714L-4.87,6.42l0.658,0.042c0.261,0,0.392-0.173,0.392-0.518V5.118H-6.872z M-3.82,2.584
				V1.548h-3.052v1.036H-3.82z M-6.872,3.368v0.966h3.052V3.368H-6.872z M3.754,3.914H1.206v2.198c0,0.793-0.406,1.189-1.218,1.189
				h-1.344l-0.21-0.952c0.466,0.047,0.868,0.07,1.204,0.07c0.401,0,0.602-0.182,0.602-0.546v-1.96h-2.128v-0.98H0.24V1.296h-2.506
				V0.372H0.24v-1.568h-2.114v-0.868L-2-1.966l-0.63-0.742c1.055-0.737,1.909-1.685,2.562-2.842l0.952,0.21L0.45-4.598h2.786v0.699
				c-0.438,0.72-0.849,1.298-1.232,1.736h1.75v2.534h0.742v0.924H3.754V3.914z M-0.152-3.758C-0.628-3.16-1.16-2.629-1.748-2.162
				h2.576c0.42-0.467,0.84-0.998,1.26-1.596H-0.152z M1.206-1.196v1.568h1.596v-1.568H1.206z M1.206,1.296v1.638h1.596V1.296H1.206z
				"/>
			<path fill="#444444" d="M12.504-5.466c-0.047,0.438-0.135,0.938-0.266,1.498h5.404v0.966h-4.479
				c0.681,1.55,2.417,2.758,5.208,3.626l-0.532,0.868C14.74,0.4,12.84-1.098,12.14-3.002h-0.21
				c-0.308,0.821-0.724,1.526-1.246,2.114c-0.065,0.065-0.112,0.116-0.14,0.153c0.579,0.401,1.26,0.962,2.044,1.681l-0.7,0.7
				c-0.672-0.673-1.344-1.274-2.016-1.807C8.967,0.512,7.66,1.077,5.952,1.534L5.56,0.61c1.979-0.504,3.416-1.223,4.312-2.156
				c0.373-0.393,0.69-0.877,0.952-1.456H6.232v-0.966h4.942c0.159-0.522,0.266-1.055,0.322-1.597L12.504-5.466z M7.996,2.92
				C7.66,4.367,7.189,5.627,6.582,6.7L5.714,6.154C6.311,5.108,6.741,3.961,7.002,2.71L7.996,2.92z M10.46,7.106
				c-0.943,0-1.414-0.467-1.414-1.4V2.668h1.036v2.828c0,0.42,0.229,0.63,0.686,0.63h2.982c0.299,0,0.509-0.084,0.63-0.252
				c0.168-0.196,0.28-0.774,0.336-1.736l0.952,0.309c-0.094,1.241-0.285,2.006-0.574,2.296c-0.261,0.242-0.648,0.364-1.162,0.364
				H10.46z M12.308,2.206c0.504,0.747,0.933,1.53,1.288,2.352l-0.924,0.406c-0.411-0.979-0.826-1.806-1.246-2.478L12.308,2.206z
				 M16.494,2.5c0.672,1.036,1.26,2.156,1.764,3.36l-0.924,0.405c-0.541-1.307-1.144-2.459-1.806-3.458L16.494,2.5z"/>
			<path fill="#444444" d="M26.504-5.41c0,1.055-0.033,2.091-0.098,3.108c0.784,3.808,2.809,6.715,6.076,8.722l-0.658,0.882
				c-2.865-1.876-4.793-4.396-5.782-7.56c-0.84,3.043-2.818,5.567-5.936,7.574L19.49,6.42c3.845-2.361,5.833-5.563,5.964-9.604
				l0.028-2.227H26.504z"/>
			<path fill="#444444" d="M39.538-3.506h-4.872v-0.98H45.46v0.98h-4.886v9.268h5.487v0.98H33.924v-0.98h5.614V-3.506z"/>
			<path fill="#444444" d="M56.954,7.148c-0.467,0-1.288-0.01-2.464-0.028c-0.896-0.019-1.624-0.103-2.185-0.252
				c-0.551-0.168-1.04-0.509-1.47-1.022c-0.196-0.232-0.378-0.35-0.546-0.35c-0.336,0-0.896,0.644-1.68,1.932l-0.757-0.686
				c0.757-1.186,1.424-1.899,2.003-2.143V0.344h-2.003V-0.58h2.94v5.236c0.103,0.074,0.215,0.182,0.336,0.321
				c0.346,0.411,0.705,0.705,1.078,0.883c0.429,0.195,1.055,0.308,1.876,0.336c0.971,0.019,1.881,0.027,2.73,0.027
				c0.42,0,1.087-0.009,2.002-0.027c0.756-0.02,1.273-0.038,1.554-0.057l-0.238,1.009H56.954z M48.792-5.214
				c0.98,0.756,1.773,1.479,2.38,2.17L50.445-2.33c-0.551-0.672-1.33-1.414-2.338-2.226L48.792-5.214z M51.76-1.532h8.26v0.938
				h-4.409c-0.775,1.96-1.466,3.351-2.072,4.172c1.895-0.168,3.453-0.393,4.676-0.672c-0.289-0.653-0.658-1.4-1.105-2.24L57.934,0.4
				c0.729,1.241,1.396,2.721,2.002,4.438L59.04,5.076c-0.103-0.299-0.257-0.729-0.462-1.288c-1.55,0.336-3.607,0.602-6.174,0.798
				l-0.267-0.882c0.561-0.168,1.382-1.601,2.464-4.298H51.76V-1.532z M52.684-4.878h6.343v0.938h-6.343V-4.878z"/>
			<path fill="#444444" d="M66.531,5.566c-1.382,0.531-2.959,0.966-4.732,1.302L61.672,5.86c1.857-0.309,3.477-0.729,4.858-1.261
				V5.566z M64.962-5.102c-0.653,1.782-1.32,3.22-2.002,4.312c0.653-0.093,1.236-0.196,1.75-0.308
				c0.14-0.289,0.396-0.841,0.771-1.652l0.882,0.336c-1.186,2.427-2.156,4.148-2.912,5.166c0.924-0.224,1.843-0.536,2.758-0.938
				v0.924C64.818,3.308,63.501,3.694,62.26,3.9l-0.279-0.925c0.177-0.064,0.331-0.158,0.462-0.279
				c0.484-0.561,1.082-1.517,1.792-2.87c-0.906,0.177-1.647,0.313-2.227,0.406l-0.252-0.925c0.159-0.074,0.299-0.2,0.42-0.378
				c0.69-1.269,1.298-2.739,1.82-4.41L64.962-5.102z M68.49,6.644v0.729h-0.98v-8.274c-0.383,0.653-0.808,1.293-1.273,1.918
				l-0.309-1.021c1.111-1.661,1.895-3.463,2.353-5.404l0.966,0.196c-0.205,0.793-0.438,1.517-0.7,2.17h2.548
				c-0.224-0.756-0.49-1.479-0.798-2.17l0.98-0.267c0.336,0.906,0.583,1.671,0.741,2.297l-0.378,0.14h2.534v0.952h-2.226v1.903
				h1.987V0.75h-1.987v1.904h1.987v0.924h-1.987v2.128h2.506v0.938H68.49z M70.968-2.092H68.49v1.903h2.478V-2.092z M68.49,0.75
				v1.904h2.478V0.75H68.49z M68.49,3.578v2.128h2.478V3.578H68.49z"/>
		</g>
	</g>
</g>
<g id="RectEndPoint6" transform="translate(189,136)">
	<rect x="-7" y="-20" opacity="0.6" fill="#BBBBBB" enable-background="new    " width="98.016" height="60"/>
	<rect x="-9" y="-22" fill="#FFFFFF" stroke="#E5E5E5" width="98.016" height="60"/>
	<g transform="translate(20 9)">
		<g enable-background="new    ">
			<path fill="#444444" d="M-0.741-13.282c0.7,0.569,1.139,1.4,1.316,2.492h-1.148c-0.149-0.746-0.486-1.325-1.008-1.736
				c-0.542-0.429-1.255-0.644-2.142-0.644c-1.083,0-1.946,0.383-2.59,1.147c-0.635,0.747-0.952,1.77-0.952,3.066
				c0,1.26,0.308,2.254,0.924,2.982c0.663,0.774,1.643,1.162,2.94,1.162c0.504,0,1.026-0.075,1.568-0.225
				c0.467-0.131,0.887-0.317,1.26-0.56v-2.548h-3.136v-0.994h4.27v4.088C0.104-4.677-0.48-4.373-1.189-4.14
				c-0.728,0.224-1.503,0.336-2.324,0.336c-1.586,0-2.814-0.504-3.682-1.513c-0.812-0.942-1.218-2.155-1.218-3.64
				c0-1.493,0.401-2.716,1.204-3.668c0.849-1.045,2.011-1.568,3.486-1.568C-2.463-14.192-1.469-13.889-0.741-13.282z"/>
			<path fill="#444444" d="M8.499-13.422c0.663,0.532,1.045,1.325,1.148,2.38H8.513c-0.122-0.719-0.401-1.255-0.84-1.61
				c-0.439-0.354-1.069-0.531-1.89-0.531c-0.756,0-1.335,0.121-1.736,0.363c-0.476,0.28-0.714,0.705-0.714,1.274
				c0,0.504,0.285,0.91,0.854,1.218c0.243,0.14,0.854,0.351,1.834,0.63c1.316,0.393,2.184,0.714,2.604,0.966
				c0.831,0.505,1.246,1.209,1.246,2.114c0,0.878-0.35,1.568-1.05,2.072C8.112-4.051,7.169-3.804,5.993-3.804
				c-1.176,0-2.1-0.252-2.772-0.756C2.437-5.167,2.003-6.081,1.919-7.304h1.134c0.103,0.868,0.406,1.507,0.91,1.918
				c0.476,0.373,1.152,0.56,2.03,0.56c0.821,0,1.484-0.154,1.988-0.462c0.504-0.308,0.756-0.728,0.756-1.26
				c0-0.625-0.332-1.115-0.994-1.47C7.491-8.167,6.786-8.41,5.629-8.746C4.453-9.101,3.688-9.371,3.333-9.558
				c-0.765-0.448-1.148-1.093-1.148-1.933c0-0.877,0.369-1.554,1.106-2.029c0.663-0.448,1.512-0.673,2.548-0.673
				C6.978-14.192,7.864-13.936,8.499-13.422z"/>
			<path fill="#444444" d="M11.327-13.996h1.134v9.002h5.782V-4h-6.917V-13.996z"/>
			<path fill="#444444" d="M19.559-13.996h4.466c0.934,0,1.671,0.224,2.212,0.672c0.532,0.448,0.799,1.064,0.799,1.849
				c0,0.56-0.149,1.045-0.448,1.456c-0.309,0.363-0.714,0.63-1.218,0.798c0.644,0.111,1.152,0.383,1.525,0.812
				c0.373,0.43,0.561,0.971,0.561,1.624c0,0.98-0.346,1.708-1.036,2.185C25.822-4.2,25.014-4,23.997-4h-4.438V-13.996z
				 M20.707-13.03v3.402h3.038c0.69,0,1.223-0.145,1.596-0.434c0.373-0.299,0.56-0.733,0.56-1.303c0-0.56-0.182-0.979-0.546-1.26
				C25-12.895,24.468-13.03,23.759-13.03H20.707z M20.707-8.676v3.71h3.191c0.672,0,1.228-0.131,1.666-0.393
				c0.495-0.308,0.742-0.788,0.742-1.441c0-0.635-0.215-1.11-0.644-1.428c-0.393-0.299-0.98-0.448-1.765-0.448H20.707z"/>
		</g>
		<g enable-background="new    ">
			<path fill="#444444" d="M-8.413,5.388h2.926v5.838c0.448-0.41,0.798-0.741,1.05-0.993l0.252,0.993
				c-0.7,0.71-1.433,1.34-2.198,1.891l-0.392-0.896c0.205-0.177,0.308-0.368,0.308-0.574V6.354h-1.946V5.388z M-6.705,1.272
				c0.887,0.699,1.629,1.399,2.226,2.1l-0.686,0.7c-0.56-0.672-1.307-1.377-2.24-2.114L-6.705,1.272z M3.893,1.65v10.976
				c0,0.831-0.42,1.246-1.26,1.246H1.289l-0.238-0.924c0.467,0.027,0.896,0.042,1.288,0.042c0.401,0,0.602-0.233,0.602-0.7V2.56
				h-5.67v6.776c-0.028,1.895-0.462,3.43-1.302,4.606l-0.742-0.687c0.7-1.026,1.064-2.314,1.092-3.864V1.65H3.893z M-2.001,4.226
				h1.61V3.12h0.952v1.105h1.624v0.826H0.561v1.316h1.862v0.84h-4.648v-0.84h1.834V5.052h-1.61V4.226z M-1.777,8.202h3.724v3.57
				h-3.724V8.202z M1.079,10.946V9.042h-1.988v1.904H1.079z"/>
			<path fill="#444444" d="M7.841,5.668V6.76c-0.056,2.968-0.56,5.349-1.512,7.141l-0.756-0.673c0.812-1.559,1.232-3.714,1.26-6.468
				V2.196h5.39c-0.178-0.383-0.355-0.714-0.532-0.994l1.064-0.168c0.177,0.373,0.341,0.761,0.49,1.162h4.802v0.952H7.841v1.596
				h2.352V3.61h0.98v1.134h3.71V3.596h0.98v1.148h2.155v0.924h-2.155v2.184h-5.67V5.668H7.841z M8.653,8.804h8.205v0.742
				c-0.803,0.98-1.76,1.797-2.871,2.45c1.26,0.532,2.721,0.91,4.382,1.134l-0.435,0.868c-1.95-0.327-3.583-0.821-4.899-1.484
				c-1.438,0.682-3.071,1.177-4.9,1.484l-0.434-0.882c1.652-0.243,3.099-0.625,4.34-1.148c-1.045-0.653-1.89-1.418-2.534-2.296
				H8.653V8.804z M10.571,9.672c0.644,0.729,1.447,1.344,2.408,1.848c0.98-0.522,1.834-1.138,2.562-1.848H10.571z M11.173,5.668
				v1.33h3.71v-1.33H11.173z"/>
			<path fill="#444444" d="M23.969,10.54c-0.942,1.139-2.118,2.137-3.527,2.996l-0.631-0.813c1.372-0.812,2.521-1.75,3.444-2.813
				L23.969,10.54z M23.913,13.9l-0.224-0.994c0.56,0.046,1.04,0.069,1.441,0.069c0.346,0,0.519-0.173,0.519-0.518v-3.43
				c-1.615,0.103-3.076,0.182-4.383,0.237L20.988,8.37c0.279-0.028,0.573-0.089,0.882-0.182c1.147-0.505,2.436-1.288,3.864-2.353
				c-0.98,0.075-2.292,0.163-3.935,0.266l-0.21-0.896c0.215-0.028,0.443-0.089,0.687-0.182c0.709-0.355,1.535-1.046,2.478-2.072
				c-1.186,0.056-2.45,0.084-3.794,0.084l-0.294-0.882c4.022,0,7.364-0.294,10.024-0.882l0.489,0.854
				c-1.493,0.346-3.211,0.593-5.151,0.742c-0.85,0.989-1.731,1.782-2.646,2.38c0.989-0.047,2.123-0.126,3.402-0.238
				c0.541-0.429,1.189-0.984,1.946-1.666l0.924,0.462c-2.361,2.082-4.424,3.584-6.188,4.509c2.361-0.131,4.316-0.29,5.866-0.477
				C28.883,7.26,28.519,6.807,28.24,6.48l0.756-0.463c1.157,1.354,2.039,2.521,2.646,3.5l-0.812,0.574
				c-0.233-0.41-0.537-0.891-0.91-1.441c-0.84,0.093-1.923,0.195-3.248,0.308v3.752c0,0.793-0.396,1.19-1.189,1.19H23.913z
				 M28.589,9.812c1.409,1.018,2.59,2.045,3.542,3.08l-0.714,0.715c-0.858-0.99-2.025-2.04-3.5-3.15L28.589,9.812z"/>
			<path fill="#444444" d="M37.073,1.468c-0.7,1.792-1.414,3.221-2.143,4.284c0.411-0.056,1.027-0.158,1.849-0.308
				c0.252-0.477,0.509-0.976,0.77-1.498l0.91,0.35c-1.232,2.324-2.254,3.99-3.066,4.998c0.999-0.252,1.983-0.593,2.954-1.021V9.21
				c-1.428,0.598-2.837,1.013-4.228,1.246l-0.28-0.924c0.159-0.075,0.313-0.178,0.462-0.309c0.561-0.588,1.214-1.535,1.96-2.842
				C35.29,6.56,34.526,6.69,33.965,6.774L33.699,5.85c0.158-0.064,0.308-0.195,0.448-0.392c0.736-1.241,1.391-2.702,1.96-4.382
				L37.073,1.468z M38.347,11.716c-1.325,0.663-2.781,1.186-4.367,1.568l-0.127-1.008c1.728-0.383,3.225-0.892,4.494-1.526V11.716z
				 M40.938,7.796c-0.065,1.755-0.285,3.052-0.658,3.893c-0.411,0.867-1.088,1.609-2.03,2.226l-0.644-0.798
				c0.83-0.532,1.418-1.152,1.764-1.862c0.336-0.728,0.532-1.881,0.588-3.458H40.938z M38.599,6.326
				c0.168-0.057,0.233-0.079,0.196-0.07c0.467-0.345,1.078-1.246,1.834-2.702h-2.394V2.588h3.569
				c-0.187-0.513-0.396-0.994-0.63-1.442l1.022-0.168c0.214,0.495,0.42,1.032,0.616,1.61h3.149v0.966h-4.284
				c-0.606,1.204-1.152,2.091-1.638,2.66c1.372-0.121,2.669-0.28,3.892-0.476C43.607,5.262,43.276,4.81,42.94,4.38l0.77-0.476
				c0.98,1.251,1.717,2.319,2.212,3.206l-0.784,0.546c-0.187-0.354-0.401-0.714-0.644-1.078c-1.68,0.271-3.57,0.485-5.67,0.644
				L38.599,6.326z M43.961,13.69c-0.84,0-1.26-0.406-1.26-1.219V7.67h0.966v4.634c0,0.289,0.107,0.448,0.322,0.477h0.91
				c0.308-0.028,0.489-0.196,0.546-0.504c0.064-0.458,0.098-1.064,0.098-1.82l0.868,0.308c0,1.316-0.094,2.133-0.28,2.45
				c-0.187,0.289-0.583,0.448-1.189,0.477H43.961z"/>
		</g>
	</g>
</g>
<rect x="350.5" y="77" fill="none" width="152.478" height="62"/>
<rect x="362.5" y="89" opacity="0.6" fill="#BBBBBB" enable-background="new    " width="140.478" height="50"/>
<rect x="360.5" y="87" fill="#FFFFFF" stroke="#E5E5E5" width="140.478" height="50"/>
<rect x="357.5" y="84" opacity="0.6" fill="#BBBBBB" enable-background="new    " width="140.478" height="50"/>
<rect x="355.5" y="82" fill="#FFFFFF" stroke="#E5E5E5" width="140.478" height="50"/>
<rect x="352.5" y="79" opacity="0.6" fill="#BBBBBB" enable-background="new    " width="140.478" height="50"/>
<rect x="350.5" y="77" fill="#FFFFFF" stroke="#E5E5E5" width="140.478" height="50"/>
<g transform="translate(20 9)">
	<g enable-background="new    ">
		<path fill="#444444" d="M402.734,99.148c-0.485,0-1.354-0.01-2.604-0.028c-0.961-0.019-1.727-0.103-2.295-0.252
			c-0.579-0.168-1.098-0.509-1.555-1.022c-0.195-0.232-0.387-0.35-0.574-0.35c-0.354,0-0.919,0.653-1.693,1.96l-0.756-0.687
			c0.765-1.203,1.433-1.927,2.002-2.17v-4.228h-2.016v-0.98h2.982v5.265c0.149,0.111,0.271,0.219,0.364,0.321
			c0.363,0.393,0.746,0.687,1.147,0.883c0.438,0.177,1.102,0.279,1.988,0.308c1.026,0.019,1.987,0.028,2.884,0.028l1.876-0.015
			c0.71-0.019,1.194-0.037,1.456-0.056l-0.252,1.022H402.734z M394.222,86.786c0.961,0.737,1.759,1.456,2.394,2.156l-0.728,0.741
			c-0.57-0.699-1.358-1.446-2.366-2.239L394.222,86.786z M400.129,86.576h1.022v2.226h4.046c-0.027,3.864-0.238,6.174-0.63,6.931
			c-0.411,0.765-1.11,1.147-2.101,1.147c-0.27,0-0.597-0.014-0.979-0.042l-0.266-0.952c0.541,0.038,0.877,0.057,1.008,0.057
			c0.84-0.019,1.372-0.359,1.597-1.022c0.205-0.662,0.326-2.38,0.363-5.152h-3.052c-0.14,3.268-1.209,5.671-3.206,7.21l-0.77-0.686
			c1.856-1.372,2.842-3.547,2.953-6.524h-2.646v-0.966h2.659V86.576z"/>
		<path fill="#444444" d="M410.293,86.898c-0.652,1.829-1.32,3.294-2.002,4.396c0.486-0.074,1.06-0.182,1.723-0.322
			c0.373-0.783,0.648-1.372,0.826-1.764l0.882,0.322c-1.147,2.389-2.109,4.125-2.884,5.208c0.84-0.215,1.656-0.495,2.449-0.84v0.896
			c-1.287,0.56-2.52,0.938-3.695,1.134l-0.28-0.952c0.187-0.084,0.345-0.182,0.476-0.294c0.485-0.56,1.068-1.483,1.75-2.771
			c-0.484,0.112-1.213,0.262-2.184,0.448l-0.266-0.98c0.177-0.084,0.326-0.224,0.447-0.42c0.682-1.26,1.279-2.739,1.793-4.438
			L410.293,86.898z M411.358,97.524c-1.204,0.504-2.576,0.924-4.115,1.26l-0.127-0.98c1.643-0.308,3.057-0.719,4.242-1.231V97.524z
			 M412.506,90.216l1.484-3.738l0.965,0.154l-0.35,0.84h4.004v0.406l-1.176,3.192h2.254v0.882h-3.752
			c-0.233,0.28-0.49,0.532-0.77,0.756c0.457,0.43,0.84,0.924,1.147,1.484c0.802-0.374,1.597-0.967,2.38-1.778l0.615,0.602
			c-0.438,0.477-0.895,0.892-1.371,1.246c0.484,1.587,1.176,2.744,2.072,3.473l-0.686,0.783c-0.896-0.896-1.582-2.174-2.059-3.836
			c-0.234,0.122-0.434,0.22-0.602,0.294c0.215,0.579,0.33,1.209,0.35,1.891c0,0.896-0.107,1.521-0.322,1.876
			c-0.242,0.383-0.783,0.574-1.624,0.574h-0.771l-0.321-0.841h0.966c0.477-0.019,0.77-0.116,0.883-0.294
			c0.148-0.242,0.223-0.681,0.223-1.315l-0.041-0.574c-1.214,1.055-2.586,1.862-4.116,2.422l-0.56-0.798
			c1.754-0.588,3.252-1.419,4.494-2.492c-0.113-0.336-0.238-0.644-0.379-0.924c-0.934,0.812-2.029,1.447-3.29,1.904l-0.504-0.729
			c1.315-0.438,2.44-1.045,3.374-1.819c-0.158-0.225-0.346-0.443-0.561-0.658c-0.689,0.41-1.483,0.779-2.379,1.105l-0.49-0.798
			c1.549-0.476,2.632-0.994,3.248-1.554h-3.066V91.07h4.676l0.322-0.854H412.506z M417.071,89.432l0.42-1.147h-3.221l-0.462,1.147
			H417.071z"/>
		<path fill="#444444" d="M421.41,87.934h3.232v-1.357h1.023v1.357h3.668v-1.357h1.021v1.357h3.234v0.98h-3.234v1.33h-1.021v-1.33
			h-3.668v1.316h-1.023v-1.316h-3.232V87.934z M426.002,91.924h-3.977v-0.966h10.43c-0.074,2.343-0.131,3.738-0.168,4.186
			c-0.055,0.766-0.205,1.274-0.447,1.526c-0.252,0.28-0.701,0.42-1.344,0.42c-0.598,0-1.092,0.01-1.484,0.028l-0.279-1.008
			l1.525,0.014c0.363,0,0.629-0.093,0.797-0.28c0.178-0.205,0.285-0.667,0.322-1.386c0.029-0.682,0.051-1.526,0.07-2.534h-4.424
			v7.435h-1.021V91.924z"/>
		<path fill="#444444" d="M437.789,96.194c-0.541,1.231-1.152,2.286-1.834,3.164l-0.826-0.603c0.701-0.821,1.303-1.811,1.807-2.968
			L437.789,96.194z M440.772,86.59h0.994v1.358h5.432V88.9h-5.432v1.777h4.467v4.494h-9.27v-4.494h3.809V86.59z M445.223,94.234
			V91.63h-7.252v2.604H445.223z M439.989,96.194c0.279,0.914,0.531,1.918,0.756,3.01l-1.008,0.224
			c-0.197-1.176-0.426-2.188-0.688-3.038L439.989,96.194z M442.914,96.054c0.41,0.934,0.773,1.975,1.092,3.122l-0.994,0.225
			c-0.279-1.195-0.631-2.245-1.051-3.15L442.914,96.054z M445.783,95.774c0.859,1.129,1.541,2.151,2.045,3.065l-0.84,0.588
			c-0.477-0.924-1.148-1.969-2.018-3.136L445.783,95.774z"/>
	</g>
</g>
<rect x="350.5" y="170" fill="none" width="152.478" height="62"/>
<rect x="362.5" y="182" opacity="0.6" fill="#BBBBBB" enable-background="new    " width="140.478" height="50"/>
<rect x="360.5" y="180" fill="#FFFFFF" stroke="#E5E5E5" width="140.478" height="50"/>
<rect x="357.5" y="177" opacity="0.6" fill="#BBBBBB" enable-background="new    " width="140.478" height="50"/>
<rect x="355.5" y="175" fill="#FFFFFF" stroke="#E5E5E5" width="140.478" height="50"/>
<rect x="352.5" y="172" opacity="0.6" fill="#BBBBBB" enable-background="new    " width="140.478" height="50"/>
<rect x="350.5" y="170" fill="#FFFFFF" stroke="#E5E5E5" width="140.478" height="50"/>
<g transform="translate(20 9)">
	<g enable-background="new    ">
		<path fill="#444444" d="M402.734,192.148c-0.485,0-1.354-0.01-2.604-0.028c-0.961-0.019-1.727-0.103-2.295-0.252
			c-0.579-0.168-1.098-0.509-1.555-1.022c-0.195-0.232-0.387-0.35-0.574-0.35c-0.354,0-0.919,0.653-1.693,1.96l-0.756-0.687
			c0.765-1.203,1.433-1.927,2.002-2.17v-4.228h-2.016v-0.98h2.982v5.265c0.149,0.111,0.271,0.219,0.364,0.321
			c0.363,0.393,0.746,0.687,1.147,0.883c0.438,0.177,1.102,0.279,1.988,0.308c1.026,0.019,1.987,0.028,2.884,0.028l1.876-0.015
			c0.71-0.019,1.194-0.037,1.456-0.056l-0.252,1.022H402.734z M394.222,179.786c0.961,0.737,1.759,1.456,2.394,2.156l-0.728,0.741
			c-0.57-0.699-1.358-1.446-2.366-2.239L394.222,179.786z M400.129,179.576h1.022v2.226h4.046c-0.027,3.864-0.238,6.174-0.63,6.931
			c-0.411,0.765-1.11,1.147-2.101,1.147c-0.27,0-0.597-0.014-0.979-0.042l-0.266-0.952c0.541,0.038,0.877,0.057,1.008,0.057
			c0.84-0.019,1.372-0.359,1.597-1.022c0.205-0.662,0.326-2.38,0.363-5.152h-3.052c-0.14,3.268-1.209,5.671-3.206,7.21l-0.77-0.686
			c1.856-1.372,2.842-3.547,2.953-6.524h-2.646v-0.966h2.659V179.576z"/>
		<path fill="#444444" d="M410.293,179.898c-0.652,1.829-1.32,3.294-2.002,4.396c0.486-0.074,1.06-0.182,1.723-0.322
			c0.373-0.783,0.648-1.372,0.826-1.764l0.882,0.322c-1.147,2.389-2.109,4.125-2.884,5.208c0.84-0.215,1.656-0.495,2.449-0.84v0.896
			c-1.287,0.56-2.52,0.938-3.695,1.134l-0.28-0.952c0.187-0.084,0.345-0.182,0.476-0.294c0.485-0.56,1.068-1.483,1.75-2.771
			c-0.484,0.112-1.213,0.262-2.184,0.448l-0.266-0.98c0.177-0.084,0.326-0.224,0.447-0.42c0.682-1.26,1.279-2.739,1.793-4.438
			L410.293,179.898z M411.358,190.524c-1.204,0.504-2.576,0.924-4.115,1.26l-0.127-0.98c1.643-0.308,3.057-0.719,4.242-1.231
			V190.524z M412.506,183.216l1.484-3.738l0.965,0.154l-0.35,0.84h4.004v0.406l-1.176,3.192h2.254v0.882h-3.752
			c-0.233,0.28-0.49,0.532-0.77,0.756c0.457,0.43,0.84,0.924,1.147,1.484c0.802-0.374,1.597-0.967,2.38-1.778l0.615,0.602
			c-0.438,0.477-0.895,0.892-1.371,1.246c0.484,1.587,1.176,2.744,2.072,3.473l-0.686,0.783c-0.896-0.896-1.582-2.174-2.059-3.836
			c-0.234,0.122-0.434,0.22-0.602,0.294c0.215,0.579,0.33,1.209,0.35,1.891c0,0.896-0.107,1.521-0.322,1.876
			c-0.242,0.383-0.783,0.574-1.624,0.574h-0.771l-0.321-0.841h0.966c0.477-0.019,0.77-0.116,0.883-0.294
			c0.148-0.242,0.223-0.681,0.223-1.315l-0.041-0.574c-1.214,1.055-2.586,1.862-4.116,2.422l-0.56-0.798
			c1.754-0.588,3.252-1.419,4.494-2.492c-0.113-0.336-0.238-0.644-0.379-0.924c-0.934,0.812-2.029,1.447-3.29,1.904l-0.504-0.729
			c1.315-0.438,2.44-1.045,3.374-1.819c-0.158-0.225-0.346-0.443-0.561-0.658c-0.689,0.41-1.483,0.779-2.379,1.105l-0.49-0.798
			c1.549-0.476,2.632-0.994,3.248-1.554h-3.066v-0.882h4.676l0.322-0.854H412.506z M417.071,182.432l0.42-1.147h-3.221l-0.462,1.147
			H417.071z"/>
		<path fill="#444444" d="M421.41,180.934h3.232v-1.357h1.023v1.357h3.668v-1.357h1.021v1.357h3.234v0.98h-3.234v1.33h-1.021v-1.33
			h-3.668v1.316h-1.023v-1.316h-3.232V180.934z M426.002,184.924h-3.977v-0.966h10.43c-0.074,2.343-0.131,3.738-0.168,4.186
			c-0.055,0.766-0.205,1.274-0.447,1.526c-0.252,0.28-0.701,0.42-1.344,0.42c-0.598,0-1.092,0.01-1.484,0.028l-0.279-1.008
			l1.525,0.014c0.363,0,0.629-0.093,0.797-0.28c0.178-0.205,0.285-0.667,0.322-1.386c0.029-0.682,0.051-1.526,0.07-2.534h-4.424
			v7.435h-1.021V184.924z"/>
		<path fill="#444444" d="M437.789,189.194c-0.541,1.231-1.152,2.286-1.834,3.164l-0.826-0.603c0.701-0.821,1.303-1.811,1.807-2.968
			L437.789,189.194z M440.772,179.59h0.994v1.358h5.432v0.952h-5.432v1.777h4.467v4.494h-9.27v-4.494h3.809V179.59z
			 M445.223,187.234v-2.604h-7.252v2.604H445.223z M439.989,189.194c0.279,0.914,0.531,1.918,0.756,3.01l-1.008,0.224
			c-0.197-1.176-0.426-2.188-0.688-3.038L439.989,189.194z M442.914,189.054c0.41,0.934,0.773,1.975,1.092,3.122l-0.994,0.225
			c-0.279-1.195-0.631-2.245-1.051-3.15L442.914,189.054z M445.783,188.774c0.859,1.129,1.541,2.151,2.045,3.065l-0.84,0.588
			c-0.477-0.924-1.148-1.969-2.018-3.136L445.783,188.774z"/>
	</g>
</g>
<g id="RectEndPoint18" transform="translate(607,98)">
	<rect x="-47" y="-19" opacity="0.6" fill="#BBBBBB" enable-background="new    " width="86.321" height="50"/>
	<rect x="-49" y="-21" fill="#FFFFFF" stroke="#E5E5E5" width="86.321" height="50"/>
	<g transform="translate(20 9)">
		<g enable-background="new    ">
			<path fill="#444444" d="M-42.518-11.494h1.036v2.521h5.025v6.58h-1.008v-0.883h-4.018v4.774h-1.036v-4.774h-4.004v0.883h-1.008
				v-6.58h5.012V-11.494z M-46.522-4.256h4.004v-3.738h-4.004V-4.256z M-41.482-4.256h4.018v-3.738h-4.018V-4.256z"/>
			<path fill="#444444" d="M-33.614-9.114h0.979V1.414h-0.979V-9.114z M-31.584-11.564c0.662,0.794,1.231,1.639,1.707,2.534
				l-0.896,0.477c-0.542-0.999-1.12-1.867-1.735-2.604L-31.584-11.564z M-30.717-7.644h5.32v6.523h-5.32V-7.644z M-29.764-4.83
				h3.431v-1.918h-3.431V-4.83z M-26.334-2.016v-1.918h-3.431v1.918H-26.334z M-25.004,1.288l-0.252-0.938l1.217,0.028
				c0.43,0,0.645-0.285,0.645-0.854V-9.8h-5.432v-0.938h6.412v10.542c0,0.989-0.473,1.484-1.414,1.484H-25.004z"/>
			<path fill="#444444" d="M-19.642-7.728c0.951,0.719,1.73,1.409,2.338,2.071L-17.99-4.97c-0.578-0.672-1.357-1.372-2.338-2.101
				L-19.642-7.728z M-17.109-3.612c-0.662,1.812-1.371,3.468-2.127,4.971l-0.938-0.42c0.887-1.681,1.619-3.313,2.197-4.9
				L-17.109-3.612z M-19.39-11.158c0.998,0.729,1.838,1.442,2.52,2.143l-0.686,0.686c-0.625-0.681-1.465-1.404-2.52-2.17
				L-19.39-11.158z M-14.265-8.652h1.986c0.16-0.41,0.289-0.849,0.393-1.315h-3.373v4.074c-0.057,3.033-0.588,5.46-1.598,7.279
				l-0.756-0.672c0.879-1.587,1.336-3.789,1.373-6.607v-4.984h8.4v0.91h-3.094c-0.094,0.448-0.221,0.887-0.379,1.315h2.73v4.914
				h-2.324v3.962c0,0.757-0.369,1.135-1.105,1.135h-1.178l-0.209-0.91c0.4,0.046,0.752,0.069,1.051,0.069
				c0.316,0,0.475-0.177,0.475-0.531v-3.725h-2.393V-8.652z M-13.019-2.548c-0.365,1.241-0.869,2.314-1.514,3.22l-0.811-0.504
				c0.662-0.887,1.139-1.857,1.428-2.912L-13.019-2.548z M-13.371-6.566h3.893v-1.287h-3.893V-6.566z M-9.478-4.55v-1.26h-3.893
				v1.26H-9.478z M-9.156-2.814c0.578,0.98,1.078,2.012,1.498,3.095l-0.854,0.378C-8.931-0.471-9.427-1.53-9.996-2.52L-9.156-2.814z
				"/>
		</g>
	</g>
</g>
<g id="RectEndPoint19" transform="translate(608,186)">
	<rect x="-47" y="-14" opacity="0.6" fill="#BBBBBB" enable-background="new    " width="85" height="62"/>
	<rect x="-49" y="-16" fill="#FFFFFF" stroke="#E5E5E5" width="85" height="62"/>
	<g transform="translate(20 9)">
		<g enable-background="new    ">
			<path fill="#444444" d="M-44.814-3.084c-0.7,0.729-1.568,1.414-2.604,2.059L-48.09-1.81c1.054-0.598,1.949-1.251,2.688-1.96
				L-44.814-3.084z M-41.412,1.088c-0.196,1.773-0.621,2.969-1.274,3.584c-0.737,0.766-2.361,1.246-4.872,1.442l-0.393-0.896
				c2.231-0.131,3.701-0.513,4.41-1.147c0.635-0.606,1.008-1.629,1.121-3.066L-41.412,1.088z M-47.348-6.401
				c0.878,0.279,1.652,0.606,2.324,0.979l-0.532,0.813c-0.729-0.43-1.488-0.775-2.281-1.036L-47.348-6.401z M-37.52-0.466v4.158
				h-1.008v-3.22h-6.986v3.331h-1.008v-4.27H-37.52z M-41.846-6.611c-0.149,0.41-0.271,0.709-0.364,0.896h5.643v0.602
				c-0.168,0.7-0.393,1.382-0.672,2.045l-0.967-0.295c0.225-0.41,0.426-0.9,0.603-1.47h-2.38c-0.057,0.336-0.141,0.645-0.252,0.924
				c0.729,1.074,2.17,1.815,4.326,2.227l-0.364,0.896c-2.054-0.42-3.509-1.185-4.368-2.296c-0.178,0.271-0.363,0.509-0.561,0.714
				c-0.699,0.653-1.824,1.162-3.373,1.526l-0.379-0.896c1.382-0.298,2.376-0.709,2.982-1.231c0.514-0.477,0.854-1.097,1.021-1.862
				h-1.791c-0.393,0.504-0.854,0.966-1.387,1.386l-0.588-0.783c0.905-0.663,1.531-1.498,1.877-2.507L-41.846-6.611z M-41.09,3.65
				c1.811,0.476,3.467,1.05,4.969,1.722l-0.545,0.84c-1.615-0.765-3.263-1.362-4.942-1.792L-41.09,3.65z"/>
			<path fill="#444444" d="M-33.642-2.985c0.952,0.719,1.731,1.409,2.338,2.071l-0.686,0.687c-0.579-0.672-1.358-1.372-2.338-2.101
				L-33.642-2.985z M-31.108,1.13c-0.663,1.812-1.372,3.468-2.128,4.971l-0.938-0.42c0.886-1.681,1.619-3.313,2.197-4.9
				L-31.108,1.13z M-33.39-6.416c0.998,0.729,1.839,1.442,2.52,2.143l-0.686,0.686c-0.625-0.681-1.465-1.404-2.52-2.17L-33.39-6.416
				z M-28.266-3.91h1.988c0.158-0.41,0.289-0.849,0.392-1.315h-3.373v4.074c-0.057,3.033-0.589,5.46-1.597,7.279l-0.756-0.672
				c0.877-1.587,1.335-3.789,1.372-6.607v-4.984h8.4v0.91h-3.094c-0.094,0.448-0.221,0.887-0.379,1.315h2.73v4.914h-2.324v3.962
				c0,0.757-0.369,1.135-1.106,1.135h-1.176l-0.21-0.91c0.401,0.046,0.751,0.069,1.05,0.069c0.317,0,0.476-0.177,0.476-0.531V1.004
				h-2.394V-3.91z M-27.02,2.194c-0.364,1.241-0.868,2.314-1.513,3.22l-0.812-0.504c0.663-0.887,1.139-1.857,1.429-2.912
				L-27.02,2.194z M-27.371-1.824h3.893v-1.287h-3.893V-1.824z M-23.478,0.192v-1.26h-3.893v1.26H-23.478z M-23.156,1.928
				c0.578,0.98,1.078,2.012,1.498,3.095L-22.511,5.4c-0.42-1.129-0.916-2.188-1.484-3.178L-23.156,1.928z"/>
			<path fill="#444444" d="M-18.886-4.357c0.42,0.401,0.766,0.751,1.037,1.05c0.494-0.541,0.955-1.167,1.385-1.876h-3.527v-0.938
				h4.605v0.798c-0.561,1.009-1.186,1.896-1.875,2.66c0.213,0.252,0.443,0.532,0.686,0.84h1.596v0.616
				c-0.215,1.064-0.486,1.918-0.813,2.563l-0.826-0.322c0.281-0.588,0.51-1.228,0.688-1.918h-1.484v5.852
				c0,0.737-0.355,1.106-1.064,1.106h-1.344l-0.195-0.91c0.465,0.047,0.871,0.07,1.217,0.07c0.289,0,0.434-0.168,0.434-0.504v-5.614
				h-2.016v-0.938h2.717c-0.57-0.672-1.223-1.362-1.961-2.071L-18.886-4.357z M-11.621-1.908h0.98v2.521
				c-0.037,1.493-0.373,2.684-1.008,3.57c-0.615,0.82-1.615,1.47-2.996,1.945l-0.547-0.854c1.346-0.439,2.277-1.018,2.801-1.736
				c0.484-0.774,0.742-1.75,0.77-2.926V-1.908z M-14.533-6.122h6.889v0.952h-2.842c-0.066,0.485-0.158,1.008-0.279,1.568h2.645
				v6.594h-0.951v-5.698h-4.047v5.698h-0.951v-6.594h2.338c0.111-0.495,0.195-1.018,0.252-1.568h-3.053V-6.122z M-10.109,2.992
				c1.037,0.812,1.904,1.624,2.605,2.436l-0.701,0.7C-8.82,5.344-9.67,4.509-10.752,3.622L-10.109,2.992z"/>
		</g>
		<g enable-background="new    ">
			<path fill="#444444" d="M-43.68,16.656c-0.569,0.299-1.106,0.564-1.61,0.798v4.074c0,0.867-0.415,1.302-1.246,1.302h-1.26
				l-0.224-0.98c0.522,0.037,0.9,0.057,1.134,0.057c0.383,0,0.574-0.21,0.574-0.63v-3.389c-0.662,0.252-1.288,0.472-1.876,0.658
				l-0.252-1.008c0.7-0.178,1.409-0.396,2.128-0.658v-3.234h-1.918V12.68h1.918v-2.534h1.021v2.534h1.555v0.966h-1.555v2.814
				c0.467-0.215,1.004-0.49,1.61-0.826V16.656z M-43.709,21.374h4.313c0.635-1.876,1.199-4.256,1.693-7.14l0.967,0.252
				c-0.448,2.575-0.994,4.872-1.639,6.888h2.744v0.979h-8.078V21.374z M-43.344,12.358h3.234c-0.168-0.653-0.397-1.349-0.687-2.086
				l1.022-0.169c0.252,0.682,0.472,1.434,0.657,2.255h3.164v0.966h-7.392V12.358z M-41.734,14.388
				c0.447,1.773,0.84,3.794,1.176,6.063l-0.938,0.238c-0.299-2.017-0.687-4.019-1.162-6.007L-41.734,14.388z"/>
			<path fill="#444444" d="M-34.133,11.868h1.988v-1.82h1.021v1.82h1.709v0.979h-1.709v2.128c0.514-0.14,1.064-0.303,1.652-0.489
				v0.979c-0.401,0.121-0.951,0.271-1.652,0.448v2.226c0,0.813-0.392,1.219-1.176,1.219H-33.6l-0.224-0.967
				c0.447,0.047,0.84,0.07,1.176,0.07s0.504-0.191,0.504-0.574v-1.722c-0.467,0.103-1.176,0.247-2.128,0.434l-0.237-0.951
				c0.681-0.094,1.469-0.238,2.365-0.435v-2.366h-1.988V11.868z M-31.711,20.212c-0.494,1.064-1.087,2.002-1.777,2.814l-0.826-0.603
				c0.662-0.719,1.25-1.591,1.764-2.618L-31.711,20.212z M-29.554,20.156c0.309,0.858,0.569,1.73,0.784,2.618l-1.022,0.224
				c-0.177-1.008-0.415-1.89-0.713-2.646L-29.554,20.156z M-23.619,18.756c-0.559-0.728-0.84-2.104-0.84-4.13v-1.722h-1.848
				c-0.01,1.092-0.135,2.071-0.378,2.939c0.606,0.448,1.218,0.98,1.835,1.597l-0.561,0.854c-0.467-0.476-1.004-0.971-1.61-1.484
				c-0.458,1.093-1.13,1.988-2.017,2.688l-0.741-0.658c0.868-0.662,1.517-1.549,1.946-2.66c-0.448-0.316-0.901-0.606-1.358-0.868
				l0.532-0.783c0.438,0.261,0.807,0.494,1.105,0.699c0.158-0.709,0.248-1.483,0.266-2.323h-1.623v-0.98h1.623V10.09h0.98v1.834
				h2.842v2.702c0,1.605,0.145,2.716,0.434,3.332c0.113,0.271,0.225,0.406,0.336,0.406c0.104,0,0.197-0.168,0.281-0.504
				c0.084-0.364,0.139-0.896,0.168-1.597l0.77,0.393c-0.074,1.213-0.219,1.983-0.434,2.31c-0.178,0.262-0.373,0.393-0.588,0.393
				C-22.937,19.34-23.31,19.139-23.619,18.756z M-26.656,19.96c0.42,0.858,0.783,1.787,1.092,2.786l-1.008,0.224
				c-0.28-1.083-0.625-2.016-1.036-2.8L-26.656,19.96z M-23.926,19.638c0.82,1.018,1.459,1.933,1.918,2.744l-0.826,0.588
				c-0.486-0.877-1.121-1.814-1.904-2.813L-23.926,19.638z"/>
		</g>
	</g>
</g>
<g id="ShadowBasicRect21" transform="translate(757,98)">
	<rect x="-71.677" y="-19" opacity="0.6" fill="#BBBBBB" enable-background="new    " width="138" height="50"/>
	<rect x="-73.677" y="-21" fill="#FFFFFF" stroke="#E5E5E5" width="138" height="50"/>
	<g transform="translate(20 9)">
		<g>
			<g id="__">
				<g id="__2">
					<path id="__" fill="#00A4FF" d="M-64.677-9v8l7,4l7-4v-8l-7-4L-64.677-9z M-58.677,0.13l-4-2.29v-3.7l4,2.29V0.13z
						 M-52.677-2.16l-4,2.29v-3.7l4-2.29V-2.16z M-57.677-5.3L-62.398-8l4.721-2.7l4.723,2.7L-57.677-5.3z M-45.677,1.84l-12,6.86
						l-12-6.86v-13.68l12-6.86l12,6.86l0,0l2-1.16l-14-8l-14,8V3l14,8l14-8V-9l-2,1.14V1.84z"/>
				</g>
			</g>
		</g>
		<g enable-background="new    ">
			<path fill="#444444" d="M-30.011-7.812c0.793,0.858,1.609,1.814,2.45,2.869c0.522-1.26,0.831-2.632,0.924-4.115h-3.836v-0.98
				h4.746v0.742c-0.075,1.923-0.472,3.654-1.19,5.194c0.578,0.774,1.12,1.563,1.624,2.365l-0.728,0.729
				c-0.402-0.672-0.863-1.377-1.387-2.114c-0.766,1.335-1.797,2.539-3.094,3.612l-0.588-0.882c1.316-1.009,2.338-2.198,3.066-3.57
				c-0.756-1.018-1.643-2.091-2.66-3.22L-30.011-7.812z M-24.244-6.104c0.953,1.166,1.676,2.188,2.17,3.065l-0.797,0.561
				c-0.561-0.971-1.274-1.993-2.143-3.066L-24.244-6.104z M-25-8.722h4.061v-2.744h1.008v2.744h1.554v0.966h-1.554v7.7
				c0,0.942-0.48,1.414-1.441,1.414h-2.199l-0.209-0.994c0.812,0.046,1.498,0.069,2.058,0.069c0.522,0,0.784-0.247,0.784-0.741
				v-7.448H-25V-8.722z"/>
			<path fill="#444444" d="M-15.367-8.19c-0.29,0.159-0.607,0.313-0.953,0.463l-0.629-0.771c1.875-0.774,3.401-1.782,4.578-3.024
				l1.049,0.238c-0.316,0.336-0.56,0.588-0.728,0.756h4.452v0.672c-0.43,0.448-0.877,0.846-1.344,1.19h3.653v3.122h-5.614
				c0.785,0.644,1.367,1.32,1.75,2.03c1.391-0.438,2.544-0.985,3.459-1.639l0.657,0.756C-5.708-3.948-6.45-3.556-7.261-3.22
				c0.588,1.204,1.614,2.268,3.08,3.191l-0.672,0.84c-1.54-1.129-2.628-2.365-3.262-3.71l-0.658,0.21
				C-8.615-2.24-8.521-1.74-8.494-1.19c0,0.952-0.191,1.619-0.574,2.002c-0.363,0.317-0.979,0.519-1.848,0.603
				c-0.308,0.028-0.639,0.042-0.994,0.042l-0.308-0.924l1.19-0.015c0.447-0.027,0.816-0.149,1.105-0.363
				C-9.651-0.07-9.515-0.518-9.515-1.19c0-0.214-0.023-0.438-0.07-0.672c-1.605,1.186-3.757,2.146-6.453,2.885l-0.505-0.868
				c2.912-0.756,5.147-1.727,6.706-2.912c-0.111-0.28-0.266-0.569-0.462-0.868c-1.372,1.008-3.243,1.834-5.614,2.478l-0.49-0.854
				c2.437-0.588,4.313-1.335,5.629-2.24c-0.252-0.28-0.519-0.532-0.799-0.756c-1.092,0.821-2.59,1.396-4.494,1.722l-0.392-0.84
				c1.736-0.28,3.095-0.756,4.074-1.428h-2.981V-8.19z M-10.229-8.666c0.401-0.261,0.854-0.616,1.358-1.064h-4.103
				c-0.43,0.346-0.942,0.7-1.54,1.064H-10.229z M-11.447-6.384c0.363-0.448,0.629-0.929,0.797-1.442h-3.723v1.442H-11.447z
				 M-6.281-6.384v-1.442h-3.36c-0.159,0.551-0.369,1.031-0.63,1.442H-6.281z"/>
			<path fill="#444444" d="M-2.599-10.01h3.808c0.205-0.551,0.369-1.046,0.49-1.484l1.022,0.126
				c-0.159,0.542-0.304,0.994-0.435,1.358h7.168v0.979H1.908C1.395-7.845,0.756-6.738-0.01-5.712v7.126h-0.979v-5.922
				c-0.495,0.541-0.994,1.036-1.498,1.483l-0.631-0.798c1.699-1.493,3.006-3.229,3.921-5.208h-3.402V-10.01z M1.082-3.5h4.061
				v-1.302c0.821-0.457,1.582-0.984,2.281-1.582H2.16v-0.938h6.552v0.938C7.938-5.665,7.083-4.998,6.151-4.382V-3.5h3.5v0.966h-3.5
				v2.646c0,0.83-0.416,1.246-1.246,1.246h-1.75L2.889,0.406c0.672,0.019,1.208,0.027,1.609,0.027c0.43,0,0.645-0.215,0.645-0.644
				v-2.324H1.082V-3.5z"/>
			<path fill="#444444" d="M12.198-6.398c-0.317,0.532-0.667,1.051-1.05,1.555l-0.336-1.078c1.11-1.614,1.908-3.453,2.394-5.517
				l0.91,0.421c-0.243,0.905-0.556,1.811-0.938,2.716v9.716h-0.98V-6.398z M13.739-7.084h2.534v5.936
				c0.308-0.326,0.69-0.76,1.147-1.302l0.238,0.994c-0.663,0.84-1.409,1.629-2.24,2.366l-0.405-0.924
				c0.195-0.168,0.294-0.351,0.294-0.546v-5.587h-1.568V-7.084z M15.069-10.878c0.84,0.719,1.526,1.414,2.058,2.086L16.384-8.05
				c-0.504-0.69-1.171-1.409-2.002-2.156L15.069-10.878z M17.84-9.8h1.681v-1.61h0.91v1.61h1.582v0.826
				c0.279-0.561,0.546-1.135,0.798-1.723l0.84,0.435c-0.458,1.139-1.008,2.188-1.652,3.149h1.61v0.924h-2.296
				c-0.411,0.495-0.826,0.934-1.246,1.316h2.855v6.244h-0.951V0.784h-2.618v0.588h-0.938V-3.64c-0.224,0.131-0.56,0.308-1.008,0.531
				l-0.504-0.798c1.204-0.551,2.263-1.311,3.178-2.282h-2.548v-0.924h1.988v-1.806H17.84V-9.8z M21.971-2.478V-3.99h-2.618v1.513
				H21.971z M19.353-1.638v1.54h2.618v-1.54H19.353z M20.851-7.112c0.41-0.56,0.788-1.162,1.134-1.806h-1.554v1.806H20.851z"/>
		</g>
	</g>
</g>
<g id="RectEndPoint10" transform="translate(197,353)">
	<rect x="-19" y="-13" opacity="0.6" fill="#BBBBBB" enable-background="new    " width="108.813" height="50"/>
	<rect x="-21" y="-15" fill="#FFFFFF" stroke="#E5E5E5" width="108.813" height="50"/>
	<g transform="translate(20 9)">
		<g enable-background="new    ">
			<path fill="#444444" d="M-19.992-3.996h1.134v9.002h5.782V6h-6.916V-3.996z"/>
			<path fill="#444444" d="M-6.076-0.314c0.616,0.71,0.924,1.61,0.924,2.702c0,1.073-0.304,1.965-0.91,2.674
				c-0.653,0.757-1.521,1.135-2.604,1.135c-1.083,0-1.946-0.378-2.59-1.135c-0.616-0.699-0.924-1.591-0.924-2.674
				c0-1.092,0.308-1.992,0.924-2.702c0.634-0.746,1.498-1.119,2.59-1.119C-7.574-1.434-6.711-1.061-6.076-0.314z M-10.458,0.386
				c-0.383,0.523-0.574,1.19-0.574,2.002c0,0.803,0.191,1.466,0.574,1.988c0.42,0.588,1.017,0.882,1.792,0.882
				c0.756,0,1.358-0.294,1.806-0.882c0.382-0.541,0.574-1.204,0.574-1.988c0-0.793-0.191-1.46-0.574-2.002
				c-0.448-0.588-1.05-0.882-1.806-0.882C-9.441-0.496-10.038-0.202-10.458,0.386z"/>
			<path fill="#444444" d="M1.582-0.804C2.133-0.375,2.473,0.283,2.604,1.17H1.498C1.405,0.61,1.181,0.19,0.826-0.09
				c-0.355-0.271-0.822-0.406-1.4-0.406c-0.7,0-1.256,0.266-1.666,0.798c-0.392,0.514-0.588,1.214-0.588,2.101
				c0,0.896,0.191,1.591,0.574,2.086c0.382,0.513,0.938,0.77,1.666,0.77c1.241,0,1.946-0.625,2.114-1.876h1.12
				C2.478,4.325,2.119,5.029,1.568,5.496s-1.269,0.7-2.156,0.7c-1.083,0-1.927-0.364-2.534-1.093
				c-0.569-0.681-0.854-1.577-0.854-2.688s0.285-2.011,0.854-2.702c0.616-0.765,1.465-1.147,2.548-1.147
				C0.323-1.434,1.041-1.224,1.582-0.804z"/>
			<path fill="#444444" d="M9.408-0.622c0.429,0.485,0.644,1.144,0.644,1.974V6h-1.05V4.782c-0.29,0.401-0.663,0.728-1.12,0.979
				C7.331,6.051,6.734,6.196,6.09,6.196c-0.729,0-1.307-0.188-1.736-0.561C3.906,5.253,3.682,4.745,3.682,4.11
				c0-0.925,0.369-1.597,1.106-2.017c0.597-0.354,1.399-0.532,2.407-0.532l1.736-0.014V1.31c0-1.213-0.63-1.819-1.89-1.819
				c-0.588,0-1.046,0.121-1.372,0.363c-0.364,0.253-0.588,0.626-0.672,1.12H3.892c0.112-0.83,0.467-1.446,1.064-1.848
				c0.522-0.373,1.241-0.56,2.155-0.56C8.139-1.434,8.904-1.163,9.408-0.622z M8.932,2.43L7.266,2.444
				c-1.624,0-2.436,0.551-2.436,1.651c0,0.355,0.13,0.645,0.392,0.868c0.271,0.215,0.64,0.322,1.106,0.322
				c0.728,0,1.349-0.225,1.861-0.672C8.685,4.166,8.932,3.648,8.932,3.06V2.43z"/>
			<path fill="#444444" d="M12.012-4.192h1.106V6h-1.106V-4.192z"/>
			<path fill="#444444" d="M19.879-3.996h3.584c1.587,0,2.781,0.457,3.584,1.372c0.747,0.85,1.12,2.058,1.12,3.626
				c0,1.54-0.401,2.749-1.204,3.626C26.123,5.543,24.919,6,23.352,6h-3.473V-3.996z M21.028-3.002v8.008h2.128
				c1.297,0,2.277-0.345,2.939-1.036c0.626-0.681,0.938-1.67,0.938-2.968c0-1.335-0.289-2.328-0.868-2.982
				c-0.616-0.681-1.577-1.021-2.884-1.021H21.028z"/>
			<path fill="#444444" d="M29.764-3.996h1.204l5.656,8.134h0.042v-8.134h1.147V6h-1.176l-5.684-8.218h-0.042V6h-1.148V-3.996z"/>
			<path fill="#444444" d="M45.85-3.422c0.662,0.532,1.045,1.325,1.147,2.38h-1.134c-0.121-0.719-0.401-1.255-0.84-1.61
				c-0.438-0.354-1.069-0.531-1.891-0.531c-0.756,0-1.334,0.121-1.735,0.363c-0.477,0.28-0.714,0.705-0.714,1.274
				c0,0.504,0.284,0.91,0.854,1.218c0.243,0.14,0.854,0.351,1.834,0.63c1.316,0.393,2.185,0.714,2.604,0.966
				c0.83,0.505,1.246,1.209,1.246,2.114c0,0.878-0.351,1.568-1.051,2.072c-0.709,0.495-1.651,0.742-2.827,0.742
				c-1.177,0-2.101-0.252-2.772-0.756c-0.784-0.607-1.218-1.521-1.302-2.744h1.134c0.103,0.868,0.406,1.507,0.91,1.918
				c0.476,0.373,1.152,0.56,2.03,0.56c0.82,0,1.483-0.154,1.987-0.462s0.756-0.728,0.756-1.26c0-0.625-0.331-1.115-0.993-1.47
				c-0.253-0.149-0.957-0.393-2.114-0.729c-1.176-0.354-1.941-0.625-2.296-0.812c-0.766-0.448-1.148-1.093-1.148-1.933
				c0-0.877,0.369-1.554,1.106-2.029c0.662-0.448,1.512-0.673,2.548-0.673C44.328-4.192,45.215-3.936,45.85-3.422z"/>
		</g>
	</g>
</g>
<g id="RectEndPoint13" transform="translate(421.5,358)">
	<rect x="-37" y="-18" opacity="0.6" fill="#BBBBBB" enable-background="new    " width="120" height="50"/>
	<rect x="-39" y="-20" fill="#FFFFFF" stroke="#E5E5E5" width="120" height="50"/>
	<g transform="translate(20 9)">
		<g>
			<g>
				<path fill="#878787" d="M-27-14.87c2.209,0,4,1.791,4,4c0,2.21-1.791,4-4,4c-2.213,0-4-1.79-4-4
					C-31-13.079-29.213-14.87-27-14.87 M-27-16.87c-3.314,0-6,2.687-6,6s2.686,6,6,6c3.313,0,6-2.687,6-6S-23.686-16.87-27-16.87z"
					/>
				<path fill="#878787" d="M-23-0.87c3.313,0,6,2.688,6,6v1h-20v-1c0-3.313,2.686-6,6-6H-23 M-23-2.87h-8c-4.422,0-8,3.582-8,8v3
					h24v-3C-15,0.712-18.582-2.87-23-2.87z"/>
				<path fill="#878787" d="M-14-2.88h-3c0.757,0.569,1.431,1.242,2,2h1c2.209,0,4,1.79,4,4v1h-3c0,0.33,0,0.659,0,1v1h5v-3
					C-8-0.193-10.686-2.88-14-2.88z"/>
				<path fill="#878787" d="M-18-15.88c-0.814,0.005-1.615,0.211-2.33,0.601c0.363,0.557,0.659,1.158,0.88,1.789
					c1.438-0.816,3.271-0.311,4.089,1.131c0.815,1.442,0.311,3.272-1.131,4.091c-0.918,0.521-2.041,0.521-2.958,0
					c-0.221,0.631-0.517,1.231-0.88,1.788c0.715,0.393,1.516,0.599,2.33,0.604c2.761,0,5-2.239,5-5
					C-13-13.643-15.239-15.88-18-15.88z"/>
			</g>
		</g>
		<g enable-background="new    ">
			<path fill="#444444" d="M5.926-2.178C5.767-0.377,5.244,1.107,4.358,2.274l-0.77-0.687c0.896-1.25,1.357-2.832,1.386-4.746v-6.72
				h10.43V0.608c0,0.979-0.489,1.47-1.47,1.47h-1.609l-0.267-0.994c0.747,0.037,1.265,0.056,1.554,0.056
				c0.514,0,0.77-0.294,0.77-0.882v-2.436h-3.807v4.102H9.537v-4.102H5.926z M9.537-8.898H5.982v2.408h3.556V-8.898z M5.982-5.552
				v2.45h3.556v-2.45H5.982z M14.381-6.49v-2.408h-3.807v2.408H14.381z M14.381-3.102v-2.45h-3.807v2.45H14.381z"/>
			<path fill="#444444" d="M20.192-4.012c-0.074,2.511-0.737,4.667-1.988,6.468l-0.742-0.672c1.13-1.559,1.709-3.599,1.736-6.118
				v-4.382h4.564c-0.262-0.616-0.532-1.162-0.813-1.638l1.078-0.169c0.252,0.532,0.504,1.135,0.756,1.807h4.424v4.704H20.192z
				 M28.186-7.722h-7.994v2.729h7.994V-7.722z"/>
		</g>
	</g>
</g>
<g id="ShadowBasicRect22" transform="translate(757,186)">
	<rect x="-71.677" y="-184" opacity="0.6" fill="#BBBBBB" enable-background="new    " width="138" height="50"/>
	<rect x="-73.677" y="-186" fill="#FFFFFF" stroke="#E5E5E5" width="138" height="50"/>
	<g transform="translate(20 9)">
		<g>
			<path fill="#00A4FF" d="M-57.677-157c-7.18,0.008-13.007-5.805-13.016-12.985c-0.009-7.18,5.806-13.007,12.984-13.015
				c6.412-0.007,11.872,4.663,12.858,11h2c-1.104-8.21-8.655-13.971-16.865-12.866c-8.211,1.104-13.971,8.656-12.863,16.866
				c1.104,8.21,8.652,13.971,16.863,12.866c6.697-0.901,11.968-6.169,12.866-12.866h-2C-45.832-161.674-51.275-157.007-57.677-157z
				 M-50.677-174l-7-4l-7,4v8l3.199,1.83c0.185-0.645,0.529-1.233,1-1.71l-2.199-1.28v-3.7l5,2.86l5-2.86v3.7l-4.141,2.36
				c-0.997-0.475-2.19-0.052-2.666,0.945c-0.475,0.998-0.051,2.191,0.946,2.666s2.188,0.051,2.665-0.946
				c0.129-0.271,0.192-0.566,0.192-0.866v-0.14l5-2.86L-50.677-174L-50.677-174z M-57.677-170.3l-4.721-2.7l4.721-2.7l4.723,2.7
				L-57.677-170.3z"/>
		</g>
		<g enable-background="new    ">
			<path fill="#444444" d="M-28.752-168.178c-0.158,1.801-0.682,3.285-1.568,4.452l-0.77-0.687c0.896-1.25,1.357-2.832,1.387-4.746
				v-6.72h10.43v10.486c0,0.979-0.49,1.47-1.471,1.47h-1.609l-0.266-0.994c0.746,0.037,1.264,0.056,1.553,0.056
				c0.514,0,0.771-0.294,0.771-0.882v-2.436h-3.808v4.102h-1.036v-4.102H-28.752z M-25.139-174.898h-3.556v2.408h3.556V-174.898z
				 M-28.695-171.552v2.45h3.556v-2.45H-28.695z M-20.296-172.49v-2.408h-3.808v2.408H-20.296z M-20.296-169.102v-2.45h-3.808v2.45
				H-20.296z"/>
			<path fill="#444444" d="M-14.486-170.012c-0.074,2.511-0.736,4.667-1.987,6.468l-0.742-0.672c1.13-1.559,1.708-3.599,1.736-6.118
				v-4.382h4.563c-0.262-0.616-0.531-1.162-0.812-1.638l1.077-0.169c0.252,0.532,0.505,1.135,0.757,1.807h4.424v4.704H-14.486z
				 M-6.492-173.722h-7.994v2.729h7.994V-173.722z"/>
			<path fill="#444444" d="M-2.319-172.728c0.951,0.719,1.73,1.409,2.338,2.071l-0.687,0.687c-0.578-0.672-1.357-1.372-2.338-2.101
				L-2.319-172.728z M0.214-168.612c-0.662,1.812-1.372,3.468-2.128,4.971l-0.938-0.42c0.887-1.681,1.619-3.313,2.198-4.9
				L0.214-168.612z M-2.067-176.158c0.998,0.729,1.838,1.442,2.52,2.143l-0.686,0.686c-0.626-0.681-1.466-1.404-2.521-2.17
				L-2.067-176.158z M3.057-173.652h1.987c0.159-0.41,0.289-0.849,0.393-1.315H2.063v4.074c-0.057,3.033-0.588,5.46-1.597,7.279
				l-0.756-0.672c0.878-1.587,1.335-3.789,1.372-6.607v-4.984h8.4v0.91H6.389c-0.094,0.448-0.22,0.887-0.378,1.315H8.74v4.914H6.416
				v3.962c0,0.757-0.368,1.135-1.105,1.135H4.134l-0.21-0.91c0.401,0.046,0.752,0.069,1.051,0.069c0.316,0,0.476-0.177,0.476-0.531
				v-3.725H3.057V-173.652z M4.303-167.548c-0.364,1.241-0.868,2.314-1.513,3.22l-0.812-0.504c0.662-0.887,1.139-1.857,1.428-2.912
				L4.303-167.548z M3.952-171.566h3.893v-1.287H3.952V-171.566z M7.845-169.55v-1.26H3.952v1.26H7.845z M8.166-167.814
				c0.579,0.98,1.078,2.012,1.498,3.095l-0.854,0.378c-0.42-1.129-0.915-2.188-1.484-3.178L8.166-167.814z"/>
			<path fill="#444444" d="M16.384-165.7c-1.567,0.458-3.28,0.84-5.138,1.148l-0.238-0.966c1.027-0.141,2.04-0.322,3.038-0.547
				c0.43-1.922,0.747-4.036,0.952-6.342l0.98,0.141c-0.233,2.212-0.565,4.204-0.994,5.978c0.56-0.149,1.026-0.28,1.399-0.392V-165.7
				z M11.107-174.114h2.268c-0.149-0.69-0.35-1.376-0.602-2.058l1.021-0.168c0.196,0.644,0.378,1.386,0.546,2.226h2.269v0.98h-5.502
				V-174.114z M12.38-172.294c0.346,1.671,0.649,3.537,0.91,5.6l-0.84,0.21c-0.243-1.876-0.56-3.719-0.952-5.529L12.38-172.294z
				 M19.044-176.452h1.036v2.464h3.515v0.98H20.08v2.729h2.828v6.595h-0.979v-0.925h-3.948v0.938h-0.966v-6.608h2.029V-176.452z
				 M17.981-165.546h3.948v-3.851h-3.948V-165.546z"/>
		</g>
	</g>
</g>
<g id="Link26_1_" transform="translate(0,0)">
	<path fill="none" stroke="#888888" d="M520.306,102.636h17l0,0h17"/>
	<g transform="translate(0.5, 0)">
		<polygon fill="#888888" points="549.306,107.136 555.306,102.636 549.306,98.136 		"/>
	</g>
	<path fill="none" stroke="#FF0000" stroke-width="15" stroke-opacity="0" d="M520.306,102.636h17"/>
	<path fill="none" stroke="#FF0000" stroke-width="15" stroke-opacity="0" d="M537.306,102.636L537.306,102.636"/>
	<path fill="none" stroke="#FF0000" stroke-width="15" stroke-opacity="0" d="M537.306,102.636h17"/>
</g>
<g id="Link26_2_" transform="translate(0,0)">
	<path fill="none" stroke="#888888" d="M521.806,199.766h17l0,0h17"/>
	<g transform="translate(0.5, 0)">
		<polygon fill="#888888" points="525.806,195.266 519.806,199.766 525.806,204.266 		"/>
	</g>
	<path fill="none" stroke="#FF0000" stroke-width="15" stroke-opacity="0" d="M538.806,199.766h17"/>
	<path fill="none" stroke="#FF0000" stroke-width="15" stroke-opacity="0" d="M538.806,199.766L538.806,199.766"/>
	<path fill="none" stroke="#FF0000" stroke-width="15" stroke-opacity="0" d="M521.806,199.766h17"/>
</g>
<g>
	<g>
		<path fill="#00A4FF" d="M398.83,108.84l-12,6.855l-12-6.855V95.161l12-6.857l12,6.857v-0.019l2-1.142l-14-8l-14,8v16l14,8l14-8V98
			l-2,1.142V108.84z M379.83,106l7,4v-8l-7-4V106z M381.83,101.446l3,1.714v3.395l-3-1.715V101.446z M394.83,106v-8l-7-4v2.302
			l5,2.857v5.698L394.83,106z M390.83,108v-8l-7-4v2.302l5,2.857v5.698L390.83,108z"/>
	</g>
</g>
<g>
	<g>
		<path fill="#00A4FF" d="M398.5,202.34l-12,6.855l-12-6.855v-13.679l12-6.856l12,6.856v-0.019l2-1.143l-14-8l-14,8v16l14,8l14-8
			v-12l-2,1.143V202.34z M379.5,199.5l7,4v-8l-7-4V199.5z M381.5,194.945l3,1.715v3.395l-3-1.715V194.945z M394.5,199.5v-8l-7-4
			v2.302l5,2.857v5.698L394.5,199.5z M390.5,201.5v-8l-7-4v2.302l5,2.857v5.698L390.5,201.5z"/>
	</g>
</g>
</svg>
