<?xml version="1.0" encoding="utf-8"?>
<!-- Generator: Adobe Illustrator 23.0.1, SVG Export Plug-In . SVG Version: 6.00 Build 0)  -->
<!DOCTYPE svg PUBLIC "-//W3C//DTD SVG 1.1//EN" "http://www.w3.org/Graphics/SVG/1.1/DTD/svg11.dtd" [
	<!ENTITY ns_extend "http://ns.adobe.com/Extensibility/1.0/">
	<!ENTITY ns_ai "http://ns.adobe.com/AdobeIllustrator/10.0/">
	<!ENTITY ns_graphs "http://ns.adobe.com/Graphs/1.0/">
	<!ENTITY ns_vars "http://ns.adobe.com/Variables/1.0/">
	<!ENTITY ns_imrep "http://ns.adobe.com/ImageReplacement/1.0/">
	<!ENTITY ns_sfw "http://ns.adobe.com/SaveForWeb/1.0/">
	<!ENTITY ns_custom "http://ns.adobe.com/GenericCustomNamespace/1.0/">
	<!ENTITY ns_adobe_xpath "http://ns.adobe.com/XPath/1.0/">
]>
<svg version="1.1" xmlns:x="&ns_extend;" xmlns:i="&ns_ai;" xmlns:graph="&ns_graphs;"
	 xmlns="http://www.w3.org/2000/svg" xmlns:xlink="http://www.w3.org/1999/xlink" x="0px" y="0px" width="830px" height="509px"
	 viewBox="0 0 830 509" style="enable-background:new 0 0 830 509;" xml:space="preserve">
<style type="text/css">
	.st0{fill:#BABABA;}
	.st1{opacity:0.6;}
	.st2{fill:#BBBBBB;}
	.st3{fill:#FFFFFF;}
	.st4{fill:#E5E5E5;}
	.st5{fill:#878787;}
	.st6{fill:none;stroke:#878787;stroke-miterlimit:10;}
	.st7{fill:#00A4FF;}
	.st8{fill:#444444;}
	.st9{enable-background:new    ;}
</style>
<metadata>
	<sfw  xmlns="&ns_sfw;">
		<slices></slices>
		<sliceSourceBounds  bottomLeftOrigin="true" height="491.9" width="734.9" x="29.8" y="8"></sliceSourceBounds>
		<optimizationSettings>
			<targetSettings  fileFormat="PNG24Format" targetSettingsID="0">
				<PNG24Format  filtered="false" interlaced="false" matteColor="#FFFFFF" noMatteColor="false" transparency="true">
					</PNG24Format>
			</targetSettings>
		</optimizationSettings>
	</sfw>
</metadata>
<g id="图层_2">
</g>
<g id="图层_1">
	<g>
		<path class="st0" d="M393.7,384.8c-1.3-0.2-2.6-0.4-4-0.7l0.2-1c1.3,0.2,2.6,0.5,3.9,0.7L393.7,384.8z M437.7,384.3l-0.2-1
			c1.3-0.2,2.6-0.5,3.9-0.7l0.2,1C440.3,383.8,439,384,437.7,384.3z M385.8,383.3c-1.3-0.3-2.6-0.6-3.9-0.9l0.2-1
			c1.3,0.3,2.6,0.6,3.9,0.9L385.8,383.3z M445.5,382.6l-0.2-1c1.3-0.3,2.6-0.6,3.9-1l0.3,1C448.1,382,446.8,382.3,445.5,382.6z
			 M378,381.4c-1.3-0.4-2.6-0.7-3.9-1.1l0.3-1c1.3,0.4,2.5,0.8,3.8,1.1L378,381.4z M453.3,380.6l-0.3-1c1.3-0.4,2.5-0.8,3.8-1.2
			l0.3,0.9C455.8,379.8,454.6,380.2,453.3,380.6z M370.3,379c-1.3-0.4-2.5-0.9-3.8-1.4l0.4-0.9c1.2,0.5,2.5,0.9,3.8,1.4L370.3,379z
			 M460.9,378l-0.3-0.9c1.2-0.5,2.5-0.9,3.7-1.4l0.4,0.9C463.4,377.1,462.2,377.5,460.9,378z M362.8,376.2c-1.2-0.5-2.5-1-3.7-1.6
			l0.4-0.9c1.2,0.5,2.4,1.1,3.7,1.6L362.8,376.2z M468.3,375l-0.4-0.9c1.2-0.5,2.4-1.1,3.6-1.6l0.4,0.9
			C470.8,373.9,469.6,374.5,468.3,375z M355.5,372.9c-1.2-0.6-2.4-1.2-3.6-1.8l0.5-0.9c1.2,0.6,2.4,1.2,3.6,1.8L355.5,372.9z
			 M475.6,371.6l-0.5-0.9c1.2-0.6,2.4-1.2,3.5-1.9l0.5,0.9C477.9,370.4,476.8,371,475.6,371.6z M348.3,369.2c-1.2-0.7-2.3-1.3-3.5-2
			l0.5-0.9c1.1,0.7,2.3,1.3,3.5,2L348.3,369.2z M482.6,367.7l-0.5-0.9c1.1-0.7,2.3-1.4,3.4-2.1l0.5,0.8
			C484.9,366.4,483.7,367.1,482.6,367.7z M341.4,365.1c-1.1-0.7-2.2-1.5-3.4-2.2l0.6-0.8c1.1,0.7,2.2,1.5,3.3,2.2L341.4,365.1z
			 M489.4,363.5l-0.6-0.8c1.1-0.7,2.2-1.5,3.3-2.3l0.6,0.8C491.6,362,490.5,362.7,489.4,363.5z M334.8,360.5
			c-1.1-0.8-2.2-1.6-3.2-2.4l0.6-0.8c1.1,0.8,2.1,1.6,3.2,2.4L334.8,360.5z M495.9,358.8l-0.6-0.8c1.1-0.8,2.1-1.6,3.1-2.5l0.6,0.8
			C498,357.2,497,358,495.9,358.8z M328.4,355.6c-1-0.9-2.1-1.7-3.1-2.6l0.7-0.8c1,0.9,2,1.7,3,2.6L328.4,355.6z M502.1,353.8
			l-0.7-0.8c1-0.9,2-1.7,3-2.6l0.7,0.7C504.1,352,503.1,352.9,502.1,353.8z M322.4,350.4c-1-0.9-2-1.8-2.9-2.8l0.7-0.7
			c0.9,0.9,1.9,1.8,2.9,2.7L322.4,350.4z M508.1,348.4l-0.7-0.7c1-0.9,1.9-1.9,2.8-2.8l0.7,0.7C510,346.5,509,347.4,508.1,348.4z
			 M316.7,344.7c-0.9-1-1.8-1.9-2.7-2.9l0.7-0.7c0.9,1,1.8,2,2.7,2.9L316.7,344.7z M513.7,342.6l-0.7-0.7c0.9-1,1.8-2,2.7-3l0.8,0.7
			C515.5,340.6,514.6,341.6,513.7,342.6z M290.1,304.9c-0.5-1.2-1-2.5-1.5-3.7l0.9-0.4c0.5,1.2,1,2.5,1.5,3.7L290.1,304.9z
			 M539.4,302.1l-0.9-0.4c0.5-1.2,1-2.5,1.5-3.7l0.9,0.3C540.4,299.6,539.9,300.9,539.4,302.1z M287.2,297.5
			c-0.5-1.3-0.9-2.5-1.3-3.8l0.9-0.3c0.4,1.3,0.9,2.5,1.3,3.8L287.2,297.5z M542.2,294.6l-0.9-0.3c0.4-1.3,0.8-2.5,1.2-3.8l1,0.3
			C543,292,542.6,293.3,542.2,294.6z M284.7,289.9c-0.4-1.3-0.7-2.6-1.1-3.9l1-0.3c0.3,1.3,0.7,2.6,1.1,3.8L284.7,289.9z
			 M544.5,286.9l-1-0.3c0.4-1.3,0.7-2.6,1-3.9l1,0.2C545.2,284.3,544.9,285.6,544.5,286.9z M282.6,282.1c-0.3-1.3-0.6-2.6-0.9-3.9
			l1-0.2c0.3,1.3,0.5,2.6,0.8,3.9L282.6,282.1z M546.4,279.1l-1-0.2c0.3-1.3,0.5-2.6,0.8-3.9l1,0.2
			C546.9,276.5,546.7,277.8,546.4,279.1z M281,274.2c-0.2-1.3-0.4-2.6-0.6-4l1-0.1c0.2,1.3,0.4,2.6,0.6,3.9L281,274.2z M547.8,271.2
			l-1-0.1c0.2-1.3,0.4-2.6,0.5-3.9l1,0.1C548.2,268.5,548,269.9,547.8,271.2z M279.9,266.3c-0.1-1.3-0.3-2.7-0.4-4l1-0.1
			c0.1,1.3,0.2,2.6,0.4,4L279.9,266.3z M548.8,263.2l-1-0.1c0.1-1.3,0.2-2.6,0.3-4l1,0.1C549,260.5,548.9,261.9,548.8,263.2z
			 M279.2,258.3c-0.1-1.3-0.1-2.7-0.1-4h1c0,1.3,0.1,2.7,0.1,4H279.2z M549.2,255.2h-1c0-1.3,0.1-2.7,0.1-4h1
			C549.3,252.5,549.3,253.9,549.2,255.2z M280,250.3h-1c0-1.3,0-2.7,0.1-4h1C280.1,247.6,280,248.9,280,250.3z M548.3,249
			c0-1.3-0.1-2.7-0.1-4h1c0.1,1.3,0.1,2.7,0.1,4H548.3z M280.3,242.3l-1-0.1c0.1-1.3,0.2-2.7,0.3-4l1,0.1
			C280.5,239.6,280.4,241,280.3,242.3z M547.9,241c-0.1-1.3-0.2-2.7-0.4-4l1-0.1c0.1,1.3,0.3,2.7,0.4,4L547.9,241z M281.1,234.4
			l-1-0.1c0.2-1.3,0.4-2.7,0.6-4l1,0.2C281.4,231.7,281.2,233,281.1,234.4z M547.1,233.1c-0.2-1.3-0.4-2.6-0.6-3.9l1-0.2
			c0.2,1.3,0.4,2.6,0.6,4L547.1,233.1z M282.3,226.5l-1-0.2c0.2-1.3,0.5-2.6,0.8-3.9l1,0.2C282.8,223.9,282.5,225.2,282.3,226.5z
			 M545.8,225.3c-0.3-1.3-0.5-2.6-0.8-3.9l1-0.2c0.3,1.3,0.6,2.6,0.8,3.9L545.8,225.3z M284,218.7l-1-0.2c0.3-1.3,0.7-2.6,1-3.9
			l1,0.3C284.7,216.1,284.3,217.4,284,218.7z M544,217.5c-0.3-1.3-0.7-2.6-1.1-3.8l1-0.3c0.4,1.3,0.7,2.6,1.1,3.9L544,217.5z
			 M286.1,211l-1-0.3c0.4-1.3,0.8-2.6,1.3-3.8l0.9,0.3C287,208.5,286.5,209.8,286.1,211z M541.8,209.8c-0.4-1.3-0.8-2.5-1.3-3.8
			l0.9-0.3c0.4,1.3,0.9,2.5,1.3,3.8L541.8,209.8z M288.8,203.5l-0.9-0.4c0.5-1.3,1-2.5,1.5-3.7l0.9,0.4
			C289.7,201,289.2,202.2,288.8,203.5z M539.1,202.3c-0.5-1.2-1-2.5-1.5-3.7l0.9-0.4c0.5,1.2,1,2.5,1.5,3.7L539.1,202.3z
			 M308.3,168.8l-0.8-0.6c0.8-1.1,1.7-2.1,2.5-3.1l0.8,0.6C309.9,166.8,309.1,167.8,308.3,168.8z M519.4,168c-0.8-1-1.7-2.1-2.5-3.1
			l0.8-0.6c0.9,1,1.7,2.1,2.5,3.1L519.4,168z M313.4,162.7l-0.8-0.7c0.9-1,1.8-2,2.7-3l0.7,0.7C315.1,160.7,314.2,161.7,313.4,162.7
			z M514.3,161.9c-0.9-1-1.8-2-2.7-2.9l0.7-0.7c0.9,1,1.8,2,2.7,3L514.3,161.9z M318.8,156.9l-0.7-0.7c0.9-1,1.9-1.9,2.9-2.8
			l0.7,0.7C320.7,155,319.7,155.9,318.8,156.9z M508.8,156.1c-0.9-0.9-1.9-1.9-2.9-2.8l0.7-0.7c1,0.9,1.9,1.8,2.9,2.8L508.8,156.1z
			 M324.6,151.4l-0.7-0.7c1-0.9,2-1.8,3-2.6l0.6,0.8C326.5,149.6,325.5,150.5,324.6,151.4z M503,150.7c-1-0.9-2-1.7-3-2.6l0.6-0.8
			c1,0.9,2,1.7,3,2.6L503,150.7z M330.6,146.2l-0.6-0.8c1-0.8,2.1-1.7,3.2-2.5l0.6,0.8C332.7,144.6,331.7,145.4,330.6,146.2z
			 M496.9,145.6c-1-0.8-2.1-1.6-3.2-2.4l0.6-0.8c1.1,0.8,2.1,1.6,3.2,2.4L496.9,145.6z M337,141.5l-0.6-0.8c1.1-0.8,2.2-1.5,3.3-2.3
			l0.6,0.8C339.2,139.9,338.1,140.7,337,141.5z M490.4,140.8c-1.1-0.8-2.2-1.5-3.3-2.2l0.5-0.8c1.1,0.7,2.2,1.5,3.3,2.2L490.4,140.8
			z M343.6,137.1l-0.5-0.9c1.1-0.7,2.3-1.4,3.4-2.1l0.5,0.9C345.9,135.7,344.8,136.4,343.6,137.1z M483.8,136.5
			c-1.1-0.7-2.3-1.4-3.4-2l0.5-0.9c1.2,0.7,2.3,1.3,3.5,2L483.8,136.5z M350.5,133.1l-0.5-0.9c1.2-0.6,2.4-1.3,3.6-1.9l0.4,0.9
			C352.9,131.8,351.7,132.4,350.5,133.1z M476.8,132.5c-1.2-0.6-2.4-1.2-3.6-1.8l0.4-0.9c1.2,0.6,2.4,1.2,3.6,1.8L476.8,132.5z
			 M357.6,129.5l-0.4-0.9c1.2-0.6,2.4-1.1,3.7-1.6l0.4,0.9C360,128.4,358.8,129,357.6,129.5z M469.6,129c-1.2-0.6-2.4-1.1-3.7-1.6
			l0.4-0.9c1.2,0.5,2.5,1.1,3.7,1.6L469.6,129z M364.9,126.4l-0.4-0.9c1.2-0.5,2.5-1,3.8-1.4l0.3,0.9
			C367.4,125.4,366.1,125.9,364.9,126.4z M462.3,125.9c-1.2-0.5-2.5-0.9-3.8-1.4l0.3-0.9c1.3,0.4,2.5,0.9,3.8,1.4L462.3,125.9z
			 M372.4,123.7l-0.3-1c1.3-0.4,2.5-0.8,3.8-1.2l0.3,1C374.9,122.9,373.7,123.3,372.4,123.7z M454.7,123.3c-1.3-0.4-2.5-0.8-3.8-1.1
			l0.3-1c1.3,0.4,2.6,0.8,3.8,1.2L454.7,123.3z M380.1,121.4l-0.3-1c1.3-0.3,2.6-0.7,3.9-1l0.2,1
			C382.6,120.8,381.3,121.1,380.1,121.4z M447.1,121.1c-1.3-0.3-2.6-0.6-3.9-0.9l0.2-1c1.3,0.3,2.6,0.6,3.9,0.9L447.1,121.1z
			 M438.9,119.2c-1.3-0.2-2.6-0.5-3.9-0.7l0.2-1c1.3,0.2,2.6,0.4,4,0.7L438.9,119.2z M387.8,119.6l-0.2-1c1.3-0.3,2.6-0.5,3.9-0.7
			l0.2,1C390.4,119.1,389.1,119.4,387.8,119.6z"/>
	</g>
	<g id="图层_1_1_">
		<g class="st1">
			<rect x="315.5" y="11.1" class="st2" width="202.5" height="50"/>
		</g>
		<rect x="313.8" y="9.6" class="st3" width="201.5" height="49"/>
		<path class="st4" d="M515,10.1v48H314.5v-48L515,10.1 M516,9.1H313.5v50H516V9.1z"/>
		<g>
			<polygon class="st5" points="129.2,149.5 134.2,154.5 139.2,149.5 			"/>
			<line class="st6" x1="134.2" y1="149.5" x2="134.2" y2="91.6"/>
		</g>
		<g>
			<polygon class="st5" points="660.5,147.8 665.5,152.8 670.5,147.8 			"/>
			<line class="st6" x1="665.5" y1="147.8" x2="665.5" y2="91.2"/>
		</g>
		<g>
			<line class="st6" x1="233.8" y1="182.6" x2="282.3" y2="182.6"/>
		</g>
		<g>
			<line class="st6" x1="222.8" y1="322.3" x2="286.3" y2="322.3"/>
		</g>
		<line class="st6" x1="415.5" y1="102.1" x2="415.5" y2="61.1"/>
		<g class="st1">
			<rect x="364.6" y="226.6" class="st2" width="103.5" height="50"/>
		</g>
		<rect x="363.1" y="225.1" class="st3" width="102.5" height="49"/>
		<path class="st4" d="M465.1,225.6v48H363.6v-48H465.1 M466.1,224.6H362.6v50h103.5V224.6z"/>
		<rect x="375.1" y="233.6" class="st3" width="32" height="32"/>
		<path class="st7" d="M389.7,262.4c-7.2,0-13-5.8-13-13c0-7.2,5.8-13,13-13c6.4,0,11.9,4.7,12.9,11h2c-1.1-8.2-8.7-14-16.9-12.9
			c-8.2,1.1-14,8.7-12.9,16.9c1.1,8.2,8.7,14,16.9,12.9c6.7-0.9,12-6.2,12.9-12.9h-2C401.6,257.7,396.1,262.4,389.7,262.4z"/>
		<path class="st7" d="M398.7,252c-0.8-0.8-2-0.8-2.8,0s-0.8,2,0,2.8l0,0l0.1,0.1c-0.1,0.2-0.1,0.4-0.3,0.6
			c-0.7,0.7-2.3,0.5-4.3-0.5c0.7-0.5,1.4-1.1,2-1.8c0.3-0.3,0.6-0.6,0.8-0.9l0,0l0.2-0.2c0.2-0.3,0.5-0.6,0.7-0.9l0,0
			c0.5-0.6,0.9-1.2,1.3-1.9l0,0c1.8-3.1,2.2-6,0.6-7.5c-0.7-0.7-1.7-1-2.6-1c-1.7,0.1-3.4,0.7-4.9,1.6c-3.1-1.9-6-2.2-7.5-0.6
			c-0.8,0.9-1.1,2-0.9,3.2c-0.5,0.6-0.4,1.5,0.2,2c0.1,0.1,0.2,0.2,0.3,0.2l0,0c0.7,0.4,1.6,0,2-0.7c0.3-0.6,0.1-1.3-0.3-1.7
			c-0.1-0.1-0.2-0.1-0.3-0.2c-0.1-0.5,0.1-1,0.4-1.4c0.3-0.3,0.8-0.4,1.2-0.4c1.1,0.1,2.1,0.4,3,0.9c-0.7,0.5-1.4,1.1-2,1.8
			c-0.6,0.6-1.2,1.3-1.8,2l0,0c-0.4,0.6-0.8,1.1-1.2,1.8l-0.1,0.1l0,0c-1.8,3.1-2.2,6-0.6,7.5c0.7,0.7,1.7,1,2.6,1
			c1.7-0.1,3.4-0.7,4.9-1.6c1.5,1,3.1,1.5,4.9,1.6c1,0,1.9-0.3,2.6-1c0.4-0.4,0.7-1,0.9-1.6c1-0.4,1.6-1.5,1.2-2.6
			C399,252.4,398.9,252.2,398.7,252L398.7,252z M394.5,242.9c0.4,0,0.9,0.1,1.2,0.4c0.7,0.7,0.5,2.3-0.5,4.3
			c-1.1-1.4-2.4-2.7-3.8-3.8C392.4,243.3,393.4,243,394.5,242.9z M384.7,255.9c-0.4,0-0.9-0.1-1.2-0.4c-0.7-0.7-0.5-2.3,0.5-4.3
			c1.1,1.4,2.3,2.7,3.8,3.8C386.8,255.5,385.8,255.8,384.7,255.9L384.7,255.9z M387.2,251.8c-0.7-0.8-1.4-1.6-2-2.4
			c0.6-0.9,1.3-1.7,2-2.4s1.6-1.4,2.4-2c1.7,1.2,3.2,2.7,4.5,4.5c-1.2,1.7-2.7,3.2-4.5,4.5C388.7,253.3,387.9,252.6,387.2,251.8
			L387.2,251.8z"/>
		<path class="st8" d="M425.9,247.4v1h-6.7c-0.9,2-2,3.8-3.4,5.5c2.5-0.1,5-0.4,7.5-0.7c-0.5-0.9-1.1-1.8-1.7-2.8l0.8-0.5
			c1.1,1.6,2.1,3.3,3,5.1l-0.9,0.6c-0.2-0.5-0.5-1-0.7-1.5c-2.8,0.4-5.9,0.6-9.3,0.9l-0.3-1c0.1,0,0.2-0.1,0.2-0.1
			c0.9-0.7,2.1-2.5,3.6-5.5h-4.7v-1H425.9z M424.7,243.5v1h-10v-1H424.7z"/>
		<path class="st8" d="M432.8,243.2v0.9h-0.9v7.7l0.9-0.3v1l-0.9,0.3v2.8h-1v-2.5c-1.1,0.3-2.3,0.6-3.5,0.8l-0.2-1l0.9-0.1v-8.6
			h-0.9v-0.9L432.8,243.2z M431,246.2v-2.1h-1.9v2.1H431z M431,249.1v-2h-1.9v2H431z M431,252.1V250h-1.9v2.5
			C429.7,252.4,430.3,252.3,431,252.1L431,252.1z M436.5,245.7c0.5-1,1-2,1.4-3l0.9,0.4c-0.4,0.9-0.8,1.8-1.3,2.7h2.1v1h-2.9v0.4
			c0,0.7,0,1.3-0.1,2h3.2v1H437c0.5,1.9,1.6,3.5,3.1,4.7l-0.7,0.7c-1.4-1.3-2.4-2.9-3-4.7c-0.4,2-1.6,3.7-3.2,4.8l-0.6-0.8
			c1.6-1.1,2.7-2.8,3-4.7h-2.7v-1h2.8c0.1-0.6,0.1-1.1,0.1-1.8v-0.6H433v-1L436.5,245.7z M435.8,245l-0.8,0.5
			c-0.4-0.8-0.8-1.5-1.3-2.2l0.8-0.5C434.9,243.5,435.4,244.2,435.8,245L435.8,245z"/>
		<path class="st8" d="M450.5,255.4l-0.3-1h1.3c0.3,0,0.5-0.2,0.6-0.4v-0.1v-9.6H443v11.2h-1v-12.2h11.2v10.9
			c0.1,0.6-0.3,1.2-0.9,1.3c-0.1,0-0.2,0-0.3,0L450.5,255.4z M445.9,250.3c-0.4,1.3-1.1,2.4-1.8,3.5l-0.6-0.8
			c0.8-1.1,1.4-2.4,1.8-3.7c-0.7-0.9-1.3-1.7-2-2.4l0.6-0.6c0.6,0.6,1.2,1.3,1.7,2c0.3-1,0.5-2.1,0.7-3.2l0.9,0.2
			c-0.2,1.4-0.5,2.7-0.9,4c0.5,0.7,1.1,1.5,1.6,2.4l-0.7,0.7C446.8,251.6,446.3,250.9,445.9,250.3L445.9,250.3z M449.9,250.6
			c-0.5,1.3-1.2,2.4-2,3.5l-0.6-0.8c0.8-1.1,1.5-2.4,2-3.7c-0.6-1-1.3-1.8-1.9-2.6l0.6-0.6c0.6,0.7,1.1,1.4,1.6,2.1
			c0.3-1.1,0.6-2.2,0.7-3.4l1,0.2c-0.2,1.4-0.6,2.8-1,4.2c0.5,0.8,1.1,1.7,1.7,2.7l-0.7,0.7C450.8,252.1,450.4,251.4,449.9,250.6
			L449.9,250.6z"/>
		<g class="st1">
			<rect x="604" y="41.4" class="st2" width="120.7" height="50"/>
		</g>
		<rect x="602.5" y="39.9" class="st3" width="119.7" height="49"/>
		<path class="st4" d="M721.7,40.4v48H603v-48H721.7 M722.7,39.4H602v50h120.7V39.4z"/>
		<rect x="615.5" y="48.4" class="st3" width="12" height="32"/>
		<path class="st5" d="M640,54.4c2.2,0,4,1.8,4,4s-1.8,4-4,4s-4-1.8-4-4S637.8,54.4,640,54.4 M640,52.4c-3.3,0-6,2.7-6,6s2.7,6,6,6
			s6-2.7,6-6S643.3,52.4,640,52.4z"/>
		<path class="st5" d="M644,68.4c3.3,0,6,2.7,6,6v1h-20v-1c0-3.3,2.7-6,6-6H644 M644,66.4h-8c-4.4,0-8,3.6-8,8v3h24v-3
			C652,70,648.4,66.4,644,66.4z"/>
		<path class="st5" d="M653,66.4h-3c0.8,0.6,1.4,1.2,2,2h1c2.2,0,4,1.8,4,4v1h-3c0,0.3,0.1,0.7,0,1v1h5v-3
			C659,69.1,656.3,66.4,653,66.4z"/>
		<path class="st5" d="M649,53.4c-0.8,0-1.6,0.2-2.3,0.6c0.4,0.6,0.7,1.2,0.9,1.8c0.4-0.3,0.9-0.4,1.5-0.4c1.7,0,3,1.3,3,3
			s-1.3,3-3,3c-0.5,0-1-0.1-1.5-0.4c-0.2,0.6-0.5,1.2-0.9,1.8c0.7,0.4,1.5,0.6,2.3,0.6c2.8,0,5-2.2,5-5S651.8,53.4,649,53.4z"/>
		<g class="st1">
			<rect x="73.1" y="41.6" class="st2" width="121" height="50"/>
		</g>
		<rect x="71.6" y="40.1" class="st3" width="120" height="49"/>
		<path class="st4" d="M191.1,40.6v48h-119v-48H191.1 M192.1,39.6h-121v50h121V39.6z"/>
		<rect x="85.1" y="48.6" class="st3" width="27" height="32"/>
		<g>
			<path class="st5" d="M107.6,64.6c3.3,0,6-2.7,6-6s-2.7-6-6-6s-6,2.7-6,6S104.3,64.6,107.6,64.6z M107.6,54.6c2.2,0,4,1.8,4,4
				s-1.8,4-4,4s-4-1.8-4-4S105.4,54.6,107.6,54.6z"/>
			<path class="st5" d="M112.1,66.6h-8c-4.4,0-8,3.6-8,8v3h24v-3C120.1,70.2,116.5,66.6,112.1,66.6z M118.1,75.6h-20v-1
				c0-3.3,2.7-6,6-6h8c3.3,0,6,2.7,6,6V75.6z"/>
			<path class="st5" d="M121.1,66.6h-3c0.8,0.6,1.4,1.2,2,2h1c2.2,0,4,1.8,4,4v1h-3c0,0.3,0.1,0.7,0,1v1h5v-3
				C127.1,69.3,124.4,66.6,121.1,66.6z"/>
			<path class="st5" d="M116.1,55.6c1.7,0,3,1.3,3,3s-1.3,3-3,3c-0.5,0-1-0.1-1.5-0.4c-0.2,0.6-0.5,1.2-0.9,1.8
				c0.7,0.4,1.5,0.6,2.3,0.6c2.8,0,5-2.2,5-5s-2.2-5-5-5c-0.8,0-1.6,0.2-2.3,0.6c0.4,0.6,0.7,1.2,0.9,1.8
				C115.1,55.8,115.6,55.6,116.1,55.6z"/>
		</g>
		<g id="_编组_5">
			<g id="_编组_2-6">
				<path id="_复合路径_5" class="st7" d="M341,48.1c-7.2,0-13-5.8-13-13s5.8-13,13-13c6.4,0,11.9,4.7,12.9,11h2
					c-1.1-8.2-8.7-14-16.9-12.9c-8.2,1.1-14,8.7-12.9,16.9s8.7,14,16.9,12.9c6.7-0.9,12-6.2,12.9-12.9h-2
					C352.8,43.4,347.4,48.1,341,48.1z M341,27.1c-2.8,0-5,2.2-5,5v1h-1v9h12v-9h-1v-1C346,29.3,343.8,27.1,341,27.1z M338,32.1
					c0-1.7,1.3-3,3-3s3,1.3,3,3v1h-6V32.1z M345,40.1h-8v-5h8V40.1z"/>
			</g>
		</g>
		<g class="st9">
			<path class="st8" d="M367.5,33.1l-0.7,0.7c-0.5-0.7-1.3-1.5-2.2-2.2l0.7-0.6C366.1,31.7,366.9,32.4,367.5,33.1z M367.8,35.6
				c-0.6,1.7-1.3,3.2-2.1,4.7l-1-0.4c0.8-1.5,1.5-3,2.1-4.6L367.8,35.6z M367.9,29.9l-0.7,0.7c-0.6-0.7-1.3-1.4-2.3-2.2l0.7-0.7
				C366.5,28.5,367.3,29.2,367.9,29.9z M371.1,34.5v1.1c0,1.3-0.2,2.4-0.6,3.1c-0.4,0.7-1,1.3-1.9,1.7l-0.5-0.9
				c0.8-0.4,1.3-0.9,1.7-1.5c0.3-0.6,0.4-1.5,0.5-2.5v-1.1h0.8V34.5z M372.2,28.9c-0.2-0.5-0.5-0.9-0.7-1.2l1.1-0.2
				c0.2,0.4,0.5,0.9,0.7,1.4h3.5v1h-1.2c-0.3,1-1,1.9-1.9,2.6c1,0.4,2.2,0.7,3.7,0.9l-0.4,0.9c-1.7-0.2-3.1-0.6-4.2-1.2
				c-1.1,0.6-2.6,1-4.3,1.3l-0.4-0.9c1.5-0.2,2.8-0.5,3.8-1c-1-0.7-1.6-1.6-2.1-2.6h-1.2v-1C368.6,28.9,372.2,28.9,372.2,28.9z
				 M372.7,32c1-0.6,1.6-1.3,1.9-2.1h-3.9C371.1,30.7,371.8,31.4,372.7,32z M375.3,34.5v5.9h-1v-5.9H375.3z"/>
			<path class="st8" d="M384.4,28.9l0.2-1.4l1,0.1c0,0.4-0.1,0.9-0.1,1.3h5.6v1h-5.8c-0.1,0.5-0.2,1-0.3,1.4h5.3V39
				c0,0.9-0.4,1.3-1.2,1.3h-1.4l-0.3-1h1.3c0.4,0,0.6-0.2,0.6-0.6v-6.6h-9v8.2h-1v-9.1h4.6c0.1-0.5,0.2-1,0.3-1.4h-5.7v-1
				L384.4,28.9L384.4,28.9z M384.1,34.4h1.5c0.3-0.6,0.6-1.2,0.8-1.8l0.9,0.3c-0.3,0.5-0.5,1-0.8,1.5h1.6v0.9h-2.8v1.5h3.2v0.9h-3.2
				v2.5h-1v-2.5h-3.2v-0.9h3.2v-1.5h-2.8v-0.9h1.5c-0.2-0.5-0.5-1-0.8-1.4l0.9-0.3C383.6,33.1,383.8,33.7,384.1,34.4z"/>
			<path class="st8" d="M396.9,29c2.3,0,3.4,1,3.4,2.9c0,2-1.2,3-3.5,3H394V39h-1.1V29H396.9z M394,33.9h2.9c0.8,0,1.4-0.2,1.8-0.5
				s0.6-0.8,0.6-1.5s-0.2-1.2-0.6-1.5s-1-0.5-1.8-0.5H394V33.9z"/>
			<path class="st8" d="M409.7,30.3c0.8,1,1.2,2.2,1.2,3.7s-0.4,2.7-1.2,3.7c-0.9,1-2.1,1.5-3.6,1.5s-2.7-0.5-3.5-1.5
				s-1.2-2.2-1.2-3.7s0.4-2.7,1.2-3.7c0.9-1,2-1.5,3.6-1.5C407.7,28.8,408.9,29.3,409.7,30.3z M403.5,31c-0.6,0.8-0.9,1.8-0.9,3
				s0.3,2.2,0.9,3s1.6,1.2,2.7,1.2s2.1-0.4,2.7-1.1c0.6-0.8,0.9-1.8,0.9-3c0-1.3-0.3-2.3-0.9-3c-0.6-0.8-1.5-1.1-2.7-1.1
				S404.1,30.2,403.5,31z"/>
			<path class="st8" d="M416.7,29c2.3,0,3.4,1,3.4,2.9c0,2-1.2,3-3.5,3h-2.9V39h-1.1V29H416.7z M413.7,33.9h2.9
				c0.8,0,1.4-0.2,1.8-0.5s0.6-0.8,0.6-1.5s-0.2-1.2-0.6-1.5s-1-0.5-1.8-0.5h-2.9V33.9z"/>
			<path class="st8" d="M423.8,37.2c-0.5,1.2-1.1,2.3-1.8,3.2l-0.8-0.6c0.7-0.8,1.3-1.8,1.8-3L423.8,37.2z M427.8,27.6V29h5.4v1
				h-5.4v1.8h4.5v4.5H423v-4.5h3.8v-4.1L427.8,27.6L427.8,27.6z M431.3,32.6H424v2.6h7.3V32.6z M426.8,40.2l-1,0.2
				c-0.2-1.1-0.4-2.2-0.7-3l0.9-0.2C426.3,38.1,426.6,39.1,426.8,40.2z M430.1,40.2l-1,0.2c-0.3-1.2-0.6-2.2-1.1-3.2l1-0.2
				C429.4,38,429.8,39.1,430.1,40.2z M433.9,39.8l-0.8,0.6c-0.5-1-1.2-2-2-3.1l0.8-0.5C432.7,37.9,433.4,39,433.9,39.8z"/>
			<path class="st8" d="M435.6,40.3l-0.2-1c0.4,0,0.7,0.1,1.1,0.1s0.6-0.2,0.6-0.5v-3.4c-0.6,0.2-1.1,0.4-1.7,0.6l-0.3-1
				c0.7-0.2,1.3-0.4,2-0.6v-3.1h-1.7v-1h1.7v-2.6h1v2.6h1.2v1h-1.2v2.7c0.4-0.2,0.8-0.4,1.2-0.6v1c-0.4,0.2-0.8,0.4-1.2,0.6v4.1
				c0,0.8-0.4,1.2-1.2,1.2L435.6,40.3L435.6,40.3z M443.5,33.5c-0.1,0.4-0.3,0.7-0.5,1.1h4.8v1h-1.5c-0.2,1-0.6,1.9-1.3,2.6
				c1,0.4,1.9,0.9,2.8,1.4l-0.5,0.8c-0.8-0.5-1.8-1-2.9-1.6c-0.9,0.7-2.4,1.2-4.4,1.6l-0.4-0.9c1.6-0.3,2.9-0.7,3.8-1.2
				c-0.9-0.4-1.8-0.8-2.7-1.2c0.4-0.6,0.7-1.1,1-1.7h-1.9v-1h2.4c0.2-0.4,0.4-0.8,0.5-1.2L443.5,33.5z M443,32h1.4
				c0.4-0.7,0.7-1.4,1-2.2l1,0.3c-0.3,0.7-0.6,1.3-0.9,1.9h2.3v1H440v-1h2.1c-0.3-0.6-0.6-1.2-0.9-1.7l0.8-0.4
				C442.3,30.6,442.6,31.2,443,32z M444.3,28.8h3.1v0.9h-7.2v-0.9h3.1c-0.2-0.4-0.3-0.8-0.5-1.2l1-0.2
				C444,27.9,444.1,28.3,444.3,28.8z M442.6,35.5c-0.3,0.4-0.5,0.9-0.8,1.2c0.8,0.3,1.6,0.6,2.4,1c0.6-0.6,1-1.3,1.3-2.2H442.6z"/>
			<path class="st8" d="M452.6,28.1l0.8-0.5c1.2,0.9,2.3,2.5,3.2,4.7c1.3,3.3,3.1,5.7,5.3,7.1l-0.6,0.8c-2.3-1.4-4.1-3.9-5.6-7.6
				c-0.1-0.2-0.2-0.4-0.2-0.6c-0.9,3.6-2.9,6.3-5.8,8.2l-0.6-0.9c3-2,4.9-4.8,5.8-8.5C454.3,29.6,453.5,28.7,452.6,28.1z"/>
			<path class="st8" d="M464.1,40.4l-0.8-0.7c0.6-1.3,0.8-2.9,0.9-4.8v-6.7h4.1v10.9c0,0.8-0.4,1.3-1.2,1.3H466l-0.2-0.9
				c0.4,0,0.7,0.1,1.1,0.1s0.5-0.3,0.5-0.8v-3.2h-2.3C465,37.6,464.7,39.2,464.1,40.4z M467.4,29.1h-2.3v2.4h2.3V29.1z M465.1,34.7
				h2.3v-2.3h-2.3V34.7z M470.4,40.4h-1V28.1h5.7c0,1.7-0.1,2.9-0.3,3.4c-0.2,0.6-0.7,0.9-1.6,0.9h-1.1l-0.3-0.9c0.2,0,0.5,0,0.9,0
				c0.3,0,0.6,0,0.7-0.1c0.2-0.1,0.3-0.2,0.4-0.4c0.1-0.3,0.2-1,0.2-2.1h-3.7v4.2h4.8V34c-0.3,1.4-0.7,2.7-1.4,3.7
				c0.6,0.6,1.4,1.2,2.2,1.7l-0.5,0.9c-0.9-0.5-1.7-1.1-2.3-1.7c-0.6,0.7-1.3,1.3-2.2,1.7l-0.5-0.8c0.8-0.4,1.5-1,2-1.7
				c-0.9-1.1-1.5-2.3-1.8-3.7h-0.3L470.4,40.4L470.4,40.4z M473.1,37.1c0.5-0.8,0.9-1.8,1.1-2.9h-2.7
				C471.9,35.3,472.4,36.3,473.1,37.1z"/>
			<path class="st8" d="M477.9,29l3.1,8.8l0,0l3.1-8.8h1.3l-3.7,10h-1.4l-3.7-10H477.9z"/>
			<path class="st8" d="M490.6,29c2.3,0,3.4,1,3.4,2.9c0,2-1.2,3-3.5,3h-2.9V39h-1.1V29H490.6z M487.7,33.9h2.9
				c0.8,0,1.4-0.2,1.8-0.5s0.6-0.8,0.6-1.5s-0.2-1.2-0.6-1.5s-1-0.5-1.8-0.5h-2.9V33.9z"/>
			<path class="st8" d="M502.6,29.7c0.8,0.6,1.2,1.4,1.3,2.4h-1.1c-0.1-0.7-0.5-1.3-1.1-1.7c-0.5-0.4-1.2-0.6-2-0.6
				c-1.2,0-2.1,0.4-2.7,1.2c-0.6,0.8-0.9,1.8-0.9,3c0,1.2,0.3,2.2,0.9,3s1.5,1.2,2.7,1.2c0.8,0,1.5-0.2,2-0.6c0.6-0.4,1-1.1,1.2-2
				h1.1c-0.2,1.2-0.7,2.1-1.6,2.7c-0.8,0.6-1.7,0.9-2.8,0.9c-1.6,0-2.7-0.5-3.6-1.5c-0.8-0.9-1.1-2.1-1.1-3.6s0.4-2.7,1.1-3.7
				c0.8-1.1,2-1.6,3.6-1.6C500.9,28.8,501.8,29.1,502.6,29.7z"/>
		</g>
		<g>
			<g class="st1">
				<rect x="72.8" y="158.1" class="st2" width="161" height="50"/>
			</g>
			<rect x="71.1" y="156.6" class="st3" width="160" height="49"/>
			<path class="st4" d="M230.8,157.1v48h-159v-48H230.8 M231.8,156.1h-161v50h161V156.1z"/>
			<g id="_编组_5_1_">
				<g id="_编组_2-6_1_">
					<path id="_复合路径_5_1_" class="st7" d="M95.3,195c-7.2,0-13-5.8-13-13s5.8-13,13-13c6.4,0,11.9,4.7,12.9,11h2
						c-1.1-8.2-8.7-14-16.9-12.9s-14,8.7-12.9,16.9s8.7,14,16.9,12.9c6.7-0.9,12-6.2,12.9-12.9h-2C107.2,190.3,101.7,195,95.3,195z
						 M95.3,174c-2.8,0-5,2.2-5,5v1h-1v9h12v-9h-1v-1C100.3,176.2,98.1,174,95.3,174z M92.3,179c0-1.7,1.3-3,3-3s3,1.3,3,3v1h-6V179
						z M99.3,187h-8v-5h8V187z"/>
				</g>
			</g>
			<g class="st9">
				<path class="st8" d="M126.3,176h5.1v1H121v3.1c-0.1,3.1-0.5,5.5-1.4,7.4l-0.8-0.7c0.8-1.6,1.2-3.8,1.2-6.6V176h5.2
					c-0.2-0.5-0.5-1.1-0.8-1.5l1.1-0.2C125.8,174.8,126,175.3,126.3,176z"/>
				<path class="st8" d="M135,178.1c-0.2,1.4-0.5,2.8-1,4.1l-0.9-0.3c0.5-1.3,0.9-2.6,1.1-4L135,178.1z M136.9,174.7v4.3
					c0,3.8-0.9,6.6-2.7,8.4l-0.7-0.7c1.6-1.6,2.4-4.2,2.4-7.7v-4.3H136.9z M139.4,181.7l-0.8,0.4c-0.4-1.3-1-2.5-1.5-3.5l0.8-0.3
					C138.4,179.2,138.9,180.4,139.4,181.7z M140.8,175v11.9h-1V175H140.8z M143.2,181.5l-0.8,0.4c-0.4-1.3-1-2.5-1.5-3.5l0.8-0.3
					C142.3,179.1,142.8,180.3,143.2,181.5z M144.7,174.6v12.8h-1v-12.8H144.7z"/>
				<path class="st8" d="M147.2,187.2l-0.2-1c0.4,0,0.7,0.1,1.1,0.1c0.4,0,0.6-0.2,0.6-0.5v-3.4c-0.6,0.2-1.1,0.4-1.7,0.6l-0.3-1
					c0.7-0.2,1.3-0.4,2-0.6v-3.1H147v-1h1.7v-2.6h1v2.6h1.2v1h-1.2v2.7c0.4-0.2,0.8-0.4,1.2-0.6v1c-0.4,0.2-0.8,0.4-1.2,0.6v4.1
					c0,0.8-0.4,1.2-1.2,1.2h-1.3V187.2z M155.2,180.4c-0.1,0.4-0.3,0.7-0.5,1.1h4.8v1H158c-0.2,1-0.6,1.9-1.3,2.6
					c1,0.4,1.9,0.9,2.8,1.4l-0.5,0.8c-0.8-0.5-1.8-1-2.9-1.6c-0.9,0.7-2.4,1.2-4.4,1.6l-0.4-0.9c1.6-0.3,2.9-0.7,3.8-1.2
					c-0.9-0.4-1.8-0.8-2.7-1.2c0.4-0.6,0.7-1.1,1-1.7h-1.9v-1h2.4c0.2-0.4,0.4-0.8,0.5-1.2L155.2,180.4z M154.6,178.9h1.4
					c0.4-0.7,0.7-1.4,1-2.2l1,0.3c-0.3,0.7-0.6,1.3-0.9,1.9h2.3v1h-7.8v-1h2.1c-0.3-0.6-0.6-1.2-0.9-1.7l0.8-0.4
					C153.9,177.5,154.3,178.2,154.6,178.9z M155.9,175.7h3.1v0.9h-7.2v-0.9h3.1c-0.2-0.4-0.3-0.8-0.5-1.2l1.1-0.2
					C155.6,174.8,155.7,175.2,155.9,175.7z M154.2,182.5c-0.3,0.4-0.5,0.9-0.8,1.2c0.8,0.3,1.6,0.6,2.4,1c0.6-0.6,1.1-1.3,1.3-2.2
					H154.2z"/>
				<path class="st8" d="M164.2,175l0.8-0.5c1.2,0.9,2.3,2.5,3.2,4.7c1.3,3.3,3.1,5.7,5.3,7.1l-0.6,0.8c-2.3-1.4-4.1-3.9-5.6-7.6
					c-0.1-0.2-0.2-0.4-0.2-0.6c-0.9,3.6-2.9,6.3-5.8,8.2l-0.6-0.9c3-2,4.9-4.8,5.8-8.5C165.9,176.6,165.1,175.7,164.2,175z"/>
				<path class="st8" d="M177.5,184.1c-0.5,1.2-1.1,2.3-1.8,3.2l-0.8-0.6c0.7-0.8,1.3-1.8,1.8-3L177.5,184.1z M181.4,174.5v1.4h5.4
					v1h-5.4v1.8h4.5v4.5h-9.3v-4.5h3.8v-4.1L181.4,174.5L181.4,174.5z M184.9,179.6h-7.3v2.6h7.3V179.6z M180.4,187.1l-1,0.2
					c-0.2-1.1-0.4-2.2-0.7-3l0.9-0.2C179.9,185,180.2,186.1,180.4,187.1z M183.7,187.1l-1,0.2c-0.3-1.2-0.6-2.2-1.1-3.2l1-0.2
					C183,184.9,183.4,186,183.7,187.1z M187.5,186.8l-0.8,0.6c-0.5-1-1.2-2-2-3.1l0.8-0.5C186.3,184.9,187,185.9,187.5,186.8z"/>
				<path class="st8" d="M189.5,175.9l3.1,8.8l0,0l3.1-8.8h1.3l-3.7,10h-1.4l-3.7-10H189.5z"/>
				<path class="st8" d="M202.2,175.9c2.3,0,3.4,1,3.4,2.9c0,2-1.2,3-3.5,3h-2.9v4.1h-1.1v-10H202.2z M199.3,180.8h2.9
					c0.8,0,1.4-0.2,1.8-0.5c0.4-0.3,0.6-0.8,0.6-1.5s-0.2-1.2-0.6-1.5c-0.4-0.3-1-0.5-1.8-0.5h-2.9V180.8z"/>
				<path class="st8" d="M214.2,176.6c0.8,0.6,1.2,1.4,1.3,2.4h-1.1c-0.1-0.7-0.5-1.3-1.1-1.7c-0.5-0.4-1.2-0.6-2-0.6
					c-1.2,0-2.1,0.4-2.7,1.2c-0.6,0.8-0.9,1.8-0.9,3s0.3,2.2,0.9,3c0.6,0.8,1.5,1.2,2.7,1.2c0.8,0,1.5-0.2,2-0.6
					c0.6-0.4,1-1.1,1.2-2h1.1c-0.2,1.2-0.7,2.1-1.6,2.7c-0.8,0.6-1.7,0.9-2.8,0.9c-1.6,0-2.7-0.5-3.6-1.5c-0.8-0.9-1.1-2.1-1.1-3.6
					s0.4-2.7,1.1-3.7c0.8-1.1,2-1.6,3.6-1.6C212.5,175.7,213.5,176,214.2,176.6z"/>
			</g>
		</g>
		<g>
			<g class="st1">
				<rect x="31.8" y="299.8" class="st2" width="191" height="50"/>
			</g>
			<rect x="30.1" y="298.3" class="st3" width="190" height="49"/>
			<path class="st4" d="M219.8,298.8v48h-189v-48H219.8 M220.8,297.8h-191v50h191V297.8z"/>
			<g id="_编组_5_4_">
				<g id="_编组_2-6_4_">
					<path id="_复合路径_5_4_" class="st7" d="M54.3,336.7c-7.2,0-13-5.8-13-13s5.8-13,13-13c6.4,0,11.9,4.7,12.9,11h2
						c-1.1-8.2-8.7-14-16.9-12.9s-14,8.7-12.9,16.9c1.1,8.2,8.7,14,16.9,12.9c6.7-0.9,12-6.2,12.9-12.9h-2
						C66.2,332,60.7,336.7,54.3,336.7z M54.3,315.7c-2.8,0-5,2.2-5,5v1h-1v9h12v-9h-1v-1C59.3,317.9,57.1,315.7,54.3,315.7z
						 M51.3,320.7c0-1.7,1.3-3,3-3s3,1.3,3,3v1h-6V320.7z M58.3,328.7h-8v-5h8V328.7z"/>
				</g>
			</g>
			<g class="st9">
				<path class="st8" d="M118.4,329h-1v-0.8h-6.2v0.8h-1v-6.1h3.5v-2.8c-1,1.4-2.7,2.5-5.3,3.6l-0.6-0.9c2.4-0.8,4.1-1.7,5-2.7h-4.6
					v-1h5.6v-1.3c-1.3,0.1-2.8,0.1-4.3,0.1l-0.3-0.9c3.9,0,7-0.3,9.6-0.8l0.5,0.8c-1.3,0.3-2.8,0.5-4.5,0.7v1.4h5.4v1h-4.5
					c1,1.1,2.6,2,4.8,2.7l-0.4,0.9c-0.6-0.2-1.2-0.5-1.7-0.7V329z M117.4,325.2v-1.4h-6.2v1.4H117.4z M117.4,327.4V326h-6.2v1.3h6.2
					V327.4z M114.7,322.9h3.6c-1.6-0.8-2.8-1.7-3.6-2.8V322.9z"/>
				<path class="st8" d="M124.9,321.9l-0.7,0.7c-0.6-0.6-1.3-1.3-2.3-2l0.7-0.7C123.5,320.6,124.3,321.2,124.9,321.9z M124.9,324.4
					c-0.6,1.7-1.2,3.2-1.9,4.6l-1-0.4c0.8-1.5,1.4-3,2-4.6L124.9,324.4z M125.3,318.6l-0.7,0.7c-0.6-0.7-1.4-1.4-2.5-2.1l0.7-0.7
					C123.8,317.2,124.7,317.9,125.3,318.6z M127.7,317.7v-1.5h1v1.5h2.4v-1.5h1v1.5h1.8v0.9H132v1.7h2.2v0.9h-2.3
					c0.6,1,1.5,1.7,2.7,2.3l-0.4,0.9c-0.8-0.4-1.4-0.9-1.9-1.4v2.9H128v1.3c0,0.4,0.2,0.5,0.6,0.6h3.8c0.3,0,0.5-0.1,0.6-0.3
					c0.1-0.2,0.2-0.6,0.2-1.3l1,0.3c-0.1,0.7-0.2,1.2-0.3,1.5c-0.2,0.5-0.6,0.7-1.2,0.7h-4.4c-0.8,0-1.2-0.4-1.2-1.1v-4.2
					c-0.5,0.4-1,0.9-1.6,1.2l-0.5-0.9c1.4-0.8,2.3-1.7,2.8-2.6h-2.2v-0.9h2.2v-1.7H126v-0.9h1.7V317.7z M132.1,322.7
					c-0.4-0.5-0.8-1-1.1-1.5h-2.3c-0.2,0.5-0.5,1.1-0.9,1.5H132.1z M131.4,325.1v-1.5H128v1.5H131.4z M131,320.3v-1.7h-2.4v1.7H131z
					"/>
				<path class="st8" d="M136.2,328.9l-0.2-1c0.4,0,0.7,0.1,1.1,0.1c0.4,0,0.6-0.2,0.6-0.5V324c-0.6,0.2-1.1,0.4-1.7,0.6l-0.3-1
					c0.7-0.2,1.3-0.4,2-0.6v-3.1H136v-1h1.7v-2.6h1v2.6h1.2v1h-1.2v2.7c0.4-0.2,0.8-0.4,1.2-0.6v1c-0.4,0.2-0.8,0.4-1.2,0.6v4.1
					c0,0.8-0.4,1.2-1.2,1.2L136.2,328.9L136.2,328.9z M144.2,322.1c-0.1,0.4-0.3,0.7-0.5,1.1h4.8v1H147c-0.2,1-0.6,1.9-1.3,2.6
					c1,0.4,1.9,0.9,2.8,1.4L148,329c-0.8-0.5-1.8-1-2.9-1.6c-0.9,0.7-2.4,1.2-4.4,1.6l-0.4-0.9c1.6-0.3,2.9-0.7,3.8-1.2
					c-0.9-0.4-1.8-0.8-2.7-1.2c0.4-0.6,0.7-1.1,1-1.7h-1.9v-1h2.4c0.2-0.4,0.4-0.8,0.5-1.2L144.2,322.1z M143.6,320.6h1.4
					c0.4-0.7,0.7-1.4,1-2.2l1,0.3c-0.3,0.7-0.6,1.3-0.9,1.9h2.3v1h-7.8v-1h2.1c-0.3-0.6-0.6-1.2-0.9-1.7l0.8-0.4
					C142.9,319.2,143.3,319.9,143.6,320.6z M144.9,317.4h3.1v0.9h-7.2v-0.9h3.1c-0.2-0.4-0.3-0.8-0.5-1.2l1.1-0.2
					C144.6,316.5,144.7,316.9,144.9,317.4z M143.2,324.2c-0.3,0.4-0.5,0.9-0.8,1.2c0.8,0.3,1.6,0.6,2.4,1c0.6-0.6,1.1-1.3,1.3-2.2
					H143.2z"/>
				<path class="st8" d="M153.2,316.7l0.8-0.5c1.2,0.9,2.3,2.5,3.2,4.7c1.3,3.3,3.1,5.7,5.3,7.1l-0.6,0.8c-2.3-1.4-4.1-3.9-5.6-7.6
					c-0.1-0.2-0.2-0.4-0.2-0.6c-0.9,3.6-2.9,6.3-5.8,8.2l-0.6-0.9c3-2,4.9-4.8,5.8-8.5C154.9,318.3,154.1,317.4,153.2,316.7z"/>
				<path class="st8" d="M164.7,329.1l-0.8-0.7c0.6-1.3,0.8-2.9,0.9-4.8v-6.7h4.1v10.9c0,0.8-0.4,1.3-1.2,1.3h-1.1l-0.2-0.9
					c0.4,0,0.7,0.1,1.1,0.1c0.4,0,0.5-0.3,0.5-0.8v-3.2h-2.3C165.6,326.2,165.3,327.8,164.7,329.1z M168,317.7h-2.3v2.4h2.3V317.7z
					 M165.7,323.3h2.3V321h-2.3V323.3z M171,329h-1v-12.3h5.7c0,1.7-0.1,2.9-0.3,3.4c-0.2,0.6-0.7,0.9-1.6,0.9h-1.1l-0.3-0.9
					c0.2,0,0.5,0,0.9,0c0.3,0,0.6,0,0.7-0.1c0.2-0.1,0.3-0.2,0.4-0.4c0.1-0.3,0.2-1,0.2-2.1H171v4.2h4.8v0.9
					c-0.3,1.4-0.7,2.7-1.4,3.7c0.6,0.6,1.4,1.2,2.2,1.7l-0.5,0.9c-0.9-0.5-1.7-1.1-2.3-1.7c-0.6,0.7-1.3,1.3-2.2,1.7l-0.5-0.8
					c0.8-0.4,1.5-1,2-1.7c-0.9-1.1-1.5-2.3-1.8-3.7H171V329z M173.7,325.7c0.5-0.8,0.9-1.8,1.1-2.9h-2.7
					C172.5,323.9,173,324.9,173.7,325.7z"/>
				<path class="st8" d="M178.5,317.6l3.1,8.8l0,0l3.1-8.8h1.3l-3.7,10h-1.4l-3.7-10H178.5z"/>
				<path class="st8" d="M191.2,317.6c2.3,0,3.4,1,3.4,2.9c0,2-1.2,3-3.5,3h-2.9v4.1h-1.1v-10H191.2z M188.3,322.5h2.9
					c0.8,0,1.4-0.2,1.8-0.5c0.4-0.3,0.6-0.8,0.6-1.5s-0.2-1.2-0.6-1.5c-0.4-0.3-1-0.5-1.8-0.5h-2.9V322.5z"/>
				<path class="st8" d="M203.2,318.3c0.8,0.6,1.2,1.4,1.3,2.4h-1.1c-0.1-0.7-0.5-1.3-1.1-1.7c-0.5-0.4-1.2-0.6-2-0.6
					c-1.2,0-2.1,0.4-2.7,1.2c-0.6,0.8-0.9,1.8-0.9,3s0.3,2.2,0.9,3c0.6,0.8,1.5,1.2,2.7,1.2c0.8,0,1.5-0.2,2-0.6
					c0.6-0.4,1-1.1,1.2-2h1.1c-0.2,1.2-0.7,2.1-1.6,2.7c-0.8,0.6-1.7,0.9-2.8,0.9c-1.6,0-2.7-0.5-3.6-1.5c-0.8-0.9-1.1-2.1-1.1-3.6
					s0.4-2.7,1.1-3.7c0.8-1.1,2-1.6,3.6-1.6C201.5,317.4,202.5,317.7,203.2,318.3z"/>
				<path class="st8" d="M88.8,316.4v2.3h4.7v6.1h-0.9V324h-3.7v4.4h-1V324h-3.7v0.8h-0.9v-6.1h4.7v-2.3H88.8z M87.8,323.1v-3.5
					h-3.7v3.5H87.8z M92.5,323.1v-3.5h-3.7v3.5H92.5z"/>
				<path class="st8" d="M106.6,328.4h-0.9v-0.6h-8.8v0.6H96v-11.3h10.7V328.4z M105.7,326.9v-9h-8.8v9H105.7z M104.5,319.1v0.8
					h-2.7v1.9h2.3v0.8h-2.3v2.1h3.1v0.9h-7.2v-0.9h3.1v-2.1h-2.3v-0.8h2.3V320h-2.7v-0.8H104.5z M104.2,324.4l-0.7,0.3
					c-0.3-0.6-0.5-1.1-0.9-1.5l0.7-0.2C103.6,323.4,103.9,323.9,104.2,324.4z"/>
			</g>
		</g>
		<g>
			<g class="st1">
				<rect x="603.7" y="158.4" class="st2" width="161" height="50"/>
			</g>
			<rect x="602" y="156.9" class="st3" width="160" height="49"/>
			<path class="st4" d="M761.7,157.4v48h-159v-48H761.7 M762.7,156.4h-161v50h161V156.4z"/>
			<g id="_编组_5_3_">
				<g id="_编组_2-6_3_">
					<path id="_复合路径_5_3_" class="st7" d="M626.2,195.3c-7.2,0-13-5.8-13-13s5.8-13,13-13c6.4,0,11.9,4.7,12.9,11h2
						c-1.1-8.2-8.7-14-16.9-12.9s-14,8.7-12.9,16.9s8.7,14,16.9,12.9c6.7-0.9,12-6.2,12.9-12.9h-2
						C638,190.6,632.6,195.3,626.2,195.3z M626.2,174.3c-2.8,0-5,2.2-5,5v1h-1v9h12v-9h-1v-1C631.2,176.5,628.9,174.3,626.2,174.3z
						 M623.2,179.3c0-1.7,1.3-3,3-3s3,1.3,3,3v1h-6V179.3z M630.2,187.3h-8v-5h8V187.3z"/>
				</g>
			</g>
			<g class="st9">
				<path class="st8" d="M654.7,174.9v12.7h-1v-2.4c-1.1,0.5-2.4,1-3.7,1.3l-0.2-1c1.4-0.3,2.7-0.8,3.9-1.3v-4.5H650v-1h3.7v-3.9
					L654.7,174.9L654.7,174.9z M658.4,187.4c-0.9,0-1.3-0.5-1.3-1.4v-11.2h1v4.7c1.2-0.4,2.4-1.1,3.5-1.9l0.6,0.8
					c-1.5,0.9-2.8,1.5-4.1,2v5.4c0,0.4,0.2,0.6,0.5,0.6h1.8c0.3,0,0.5-0.1,0.7-0.3c0.1-0.3,0.2-1.1,0.2-2.5l1,0.3
					c-0.1,1.6-0.2,2.6-0.4,3c-0.2,0.3-0.6,0.5-1.2,0.5L658.4,187.4L658.4,187.4z"/>
				<path class="st8" d="M670.6,182.1c-0.1,0.4-0.1,0.7-0.2,1h5.4v1h-4.9c1,1.3,2.8,2.2,5.6,2.6l-0.5,1c-3.1-0.6-5.1-1.8-6-3.4
					c-0.3,0.6-0.7,1.1-1.2,1.5c-0.9,0.8-2.5,1.5-4.8,1.9l-0.4-1c2-0.4,3.5-0.9,4.4-1.6c0.4-0.3,0.7-0.6,0.9-1h-4.6v-1h5.1
					c0.1-0.4,0.2-0.7,0.3-1.1L670.6,182.1z M667.5,176.2c-0.2-0.5-0.4-0.9-0.7-1.3l1.1-0.2c0.2,0.4,0.4,0.9,0.6,1.5h2.9
					c0.2-0.5,0.4-1,0.5-1.5l1.1,0.1c-0.1,0.5-0.3,0.9-0.6,1.4h3.1v0.9h-5.1v1.3h4.4v0.9h-4.4v1.4h5.6v0.9h-12.2v-0.9h5.6v-1.4H665
					v-0.9h4.4v-1.3h-5.1v-0.9H667.5z"/>
				<path class="st8" d="M678.1,187.5l-0.2-1c0.4,0,0.7,0.1,1.1,0.1c0.4,0,0.6-0.2,0.6-0.5v-3.4c-0.6,0.2-1.1,0.4-1.7,0.6l-0.3-1
					c0.7-0.2,1.3-0.4,2-0.6v-3.1h-1.7v-1h1.7V175h1v2.6h1.2v1h-1.2v2.7c0.4-0.2,0.8-0.4,1.2-0.6v1c-0.4,0.2-0.8,0.4-1.2,0.6v4.1
					c0,0.8-0.4,1.2-1.2,1.2h-1.3L678.1,187.5L678.1,187.5z M686,180.7c-0.1,0.4-0.3,0.7-0.5,1.1h4.8v1h-1.5c-0.2,1-0.6,1.9-1.3,2.6
					c1,0.4,1.9,0.9,2.8,1.4l-0.5,0.8c-0.8-0.5-1.8-1-2.9-1.6c-0.9,0.7-2.4,1.2-4.4,1.6l-0.4-0.9c1.6-0.3,2.9-0.7,3.8-1.2
					c-0.9-0.4-1.8-0.8-2.7-1.2c0.4-0.6,0.7-1.1,1-1.7h-1.9v-1h2.4c0.2-0.4,0.4-0.8,0.5-1.2L686,180.7z M685.4,179.3h1.4
					c0.4-0.7,0.7-1.4,1-2.2l1,0.3c-0.3,0.7-0.6,1.3-0.9,1.9h2.3v1h-7.8v-1h2.1c-0.3-0.6-0.6-1.2-0.9-1.7l0.8-0.4
					C684.8,177.8,685.1,178.5,685.4,179.3z M686.7,176.1h3.1v0.9h-7.2v-0.9h3.1c-0.2-0.4-0.3-0.8-0.5-1.2l1-0.2
					C686.4,175.1,686.6,175.6,686.7,176.1z M685,182.8c-0.3,0.4-0.5,0.9-0.8,1.2c0.8,0.3,1.6,0.6,2.4,1c0.6-0.6,1.1-1.3,1.3-2.2H685
					z"/>
				<path class="st8" d="M695.1,175.4l0.8-0.5c1.2,0.9,2.3,2.5,3.2,4.7c1.3,3.3,3.1,5.7,5.3,7.1l-0.6,0.8c-2.3-1.4-4.1-3.9-5.6-7.6
					c-0.1-0.2-0.2-0.4-0.2-0.6c-0.9,3.6-2.9,6.3-5.8,8.2l-0.6-0.9c3-2,4.9-4.8,5.8-8.5C696.7,176.9,696,176,695.1,175.4z"/>
				<path class="st8" d="M706.5,187.7l-0.8-0.7c0.6-1.3,0.8-2.9,0.9-4.8v-6.7h4.1v10.9c0,0.8-0.4,1.3-1.2,1.3h-1.1l-0.2-0.9
					c0.4,0,0.7,0.1,1.1,0.1c0.4,0,0.5-0.3,0.5-0.8v-3.2h-2.3C707.5,184.8,707.1,186.4,706.5,187.7z M709.8,176.3h-2.3v2.4h2.3V176.3
					z M707.6,181.9h2.3v-2.3h-2.3V181.9z M712.9,187.7h-1v-12.3h5.7c0,1.7-0.1,2.9-0.3,3.4c-0.2,0.6-0.7,0.9-1.6,0.9h-1.1l-0.3-0.9
					c0.2,0,0.5,0,0.9,0c0.3,0,0.6,0,0.7-0.1c0.2-0.1,0.3-0.2,0.4-0.4c0.1-0.3,0.2-1,0.2-2.1h-3.7v4.2h4.8v0.9
					c-0.3,1.4-0.7,2.7-1.4,3.7c0.6,0.6,1.4,1.2,2.2,1.7l-0.5,0.9c-0.9-0.5-1.7-1.1-2.3-1.7c-0.6,0.7-1.3,1.3-2.2,1.7l-0.5-0.8
					c0.8-0.4,1.5-1,2-1.7c-0.9-1.1-1.5-2.3-1.8-3.7h-0.3L712.9,187.7L712.9,187.7z M715.6,184.4c0.5-0.8,0.9-1.8,1.1-2.9H714
					C714.4,182.6,714.9,183.5,715.6,184.4z"/>
				<path class="st8" d="M720.3,176.3l3.1,8.8l0,0l3.1-8.8h1.3l-3.7,10h-1.4l-3.7-10H720.3z"/>
				<path class="st8" d="M733,176.3c2.3,0,3.4,1,3.4,2.9c0,2-1.2,3-3.5,3H730v4.1h-1v-10H733z M730.1,181.2h2.9
					c0.8,0,1.4-0.2,1.8-0.5c0.4-0.3,0.6-0.8,0.6-1.5s-0.2-1.2-0.6-1.5c-0.4-0.3-1-0.5-1.8-0.5h-2.9V181.2z"/>
				<path class="st8" d="M745.1,176.9c0.8,0.6,1.2,1.4,1.3,2.4h-1.1c-0.1-0.7-0.5-1.3-1.1-1.7c-0.5-0.4-1.2-0.6-2-0.6
					c-1.2,0-2.1,0.4-2.7,1.2c-0.6,0.8-0.9,1.8-0.9,3s0.3,2.2,0.9,3c0.6,0.8,1.5,1.2,2.7,1.2c0.8,0,1.5-0.2,2-0.6
					c0.6-0.4,1-1.1,1.2-2h1.1c-0.2,1.2-0.7,2.1-1.6,2.7c-0.8,0.6-1.7,0.9-2.8,0.9c-1.6,0-2.7-0.5-3.6-1.5c-0.8-0.9-1.1-2.1-1.1-3.6
					s0.4-2.7,1.1-3.7c0.8-1.1,2-1.6,3.6-1.6C743.4,176.1,744.3,176.4,745.1,176.9z"/>
			</g>
		</g>
		<g class="st9">
			<path class="st5" d="M114.2,104.1c-0.3,1.1-0.6,2-1,2.8l-0.7-0.3c0.4-0.7,0.7-1.7,1-2.8L114.2,104.1z M115.1,98.4
				c-0.2-0.4-0.4-0.8-0.6-1.1l0.9-0.1c0.2,0.4,0.4,0.8,0.5,1.2h2.2v0.8h-5.5v-0.8H115.1z M117.5,100.2v3h-1.7v3.9c0,0.6-0.3,1-0.9,1
				H114l-0.2-0.8c0.3,0,0.6,0.1,0.8,0.1c0.3,0,0.4-0.2,0.4-0.4v-3.7h-1.8v-3L117.5,100.2L117.5,100.2z M116.7,101H114v1.5h2.7V101z
				 M117.9,106.1l-0.7,0.3c-0.2-0.8-0.5-1.5-0.8-2.3l0.7-0.2C117.5,104.7,117.7,105.4,117.9,106.1z M121.6,108
				c-0.6,0-0.9-0.3-0.9-0.9v-6.2H120c-0.1,3.3-0.8,5.7-2.2,7.2l-0.6-0.5c1.3-1.4,1.9-3.6,2-6.7H118V100h1.2v-2.8h0.8v2.8h3v0.8h-1.6
				v6.1c0,0.2,0.1,0.3,0.3,0.3h0.3c0.1,0,0.3-0.1,0.3-0.3c0.1-0.2,0.1-0.9,0.2-2l0.7,0.2c-0.1,1.3-0.2,2.1-0.3,2.4
				c-0.2,0.3-0.4,0.4-0.7,0.4L121.6,108L121.6,108z M122.8,99.2l-0.6,0.4c-0.3-0.5-0.8-1.1-1.3-1.8l0.6-0.4
				C122.1,98.1,122.5,98.7,122.8,99.2z"/>
		</g>
		<g class="st9">
			<path class="st5" d="M118.4,122.4c-0.8,0-1.4-0.1-1.9-0.2s-0.9-0.4-1.3-0.9c-0.2-0.2-0.3-0.3-0.5-0.3c-0.3,0-0.8,0.6-1.4,1.7
				l-0.6-0.6c0.6-1,1.2-1.6,1.7-1.8v-3.6h-1.7v-0.8h2.5v4.5c0.1,0.1,0.2,0.2,0.3,0.3c0.3,0.3,0.6,0.6,0.9,0.8
				c0.4,0.2,0.9,0.3,1.6,0.3c0.6,0,1.4,0,2.3,0c0.6,0,1.2,0,1.8,0c0.6,0,1,0,1.4,0l-0.2,0.9h-2.8
				C119.9,122.4,119.1,122.4,118.4,122.4z M115.5,113.7l-0.6,0.6c-0.5-0.6-1.1-1.3-2-2l0.6-0.6C114.3,112.4,115,113.1,115.5,113.7z
				 M117.8,115.8c-0.1,1.9-0.6,3.5-1.4,4.7l-0.6-0.6c0.7-1.1,1.1-2.5,1.2-4.4v-3.1c1.8,0,3.5-0.3,5-0.7l0.4,0.8
				c-1.4,0.4-2.9,0.6-4.6,0.6v1.9h5.3v0.8H121v5h-0.8v-5C120.2,115.8,117.8,115.8,117.8,115.8z"/>
		</g>
		<g class="st9">
			<path class="st5" d="M112.9,136.9l-0.2-0.8c0.3,0,0.6,0,0.9,0s0.5-0.2,0.5-0.5v-3c-0.5,0.2-1,0.4-1.5,0.5l-0.2-0.9
				c0.6-0.1,1.1-0.3,1.7-0.5V129h-1.5v-0.8h1.5v-2.3h0.9v2.3h1v0.8h-1v2.3c0.3-0.2,0.7-0.3,1-0.5v0.9c-0.3,0.2-0.7,0.3-1,0.5v3.5
				c0,0.7-0.4,1-1.1,1h-1C112.9,136.7,112.9,136.9,112.9,136.9z M119.7,131.1c-0.1,0.3-0.3,0.6-0.4,0.9h4.1v0.8h-1.3
				c-0.2,0.9-0.6,1.6-1.1,2.3c0.8,0.4,1.6,0.8,2.4,1.2l-0.5,0.7c-0.7-0.4-1.5-0.9-2.5-1.3c-0.8,0.6-2.1,1-3.8,1.4l-0.3-0.8
				c1.4-0.3,2.5-0.6,3.2-1c-0.7-0.3-1.5-0.7-2.4-1c0.3-0.5,0.6-1,0.9-1.4h-1.6V132h2.1c0.2-0.4,0.3-0.7,0.4-1L119.7,131.1z
				 M119.2,129.8h1.2c0.3-0.6,0.6-1.2,0.9-1.9l0.8,0.3c-0.2,0.6-0.5,1.1-0.8,1.6h1.9v0.8h-6.7v-0.8h1.8c-0.2-0.5-0.5-1-0.7-1.4
				l0.7-0.3C118.7,128.6,118.9,129.2,119.2,129.8z M120.3,127.1h2.7v0.8h-6.2v-0.8h2.6c-0.1-0.4-0.3-0.7-0.4-1l0.9-0.1
				C120.1,126.3,120.2,126.7,120.3,127.1z M118.9,132.9c-0.2,0.4-0.4,0.7-0.7,1.1c0.7,0.3,1.4,0.5,2,0.8c0.5-0.5,0.9-1.1,1.1-1.9
				L118.9,132.9L118.9,132.9z"/>
		</g>
		<g class="st9">
			<path class="st5" d="M115.5,140.9l0.7-0.5c1.1,0.7,2,2.1,2.7,4c1.1,2.9,2.6,4.9,4.5,6.1l-0.5,0.7c-1.9-1.2-3.5-3.4-4.8-6.5
				c-0.1-0.2-0.1-0.4-0.2-0.5c-0.8,3.1-2.4,5.4-5,7l-0.5-0.7c2.6-1.7,4.2-4.1,5-7.3C116.9,142.2,116.3,141.4,115.5,140.9z"/>
		</g>
		<g class="st9">
			<path class="st5" d="M679.4,104.4c-0.3,1.1-0.6,2-1,2.8l-0.7-0.3c0.4-0.7,0.7-1.7,1-2.8L679.4,104.4z M680.2,98.8
				c-0.2-0.4-0.4-0.8-0.6-1.1l0.9-0.1c0.2,0.4,0.4,0.8,0.5,1.2h2.2v0.8h-5.5v-0.8H680.2z M682.7,100.6v3H681v3.9c0,0.6-0.3,1-0.9,1
				h-0.9l-0.2-0.8c0.3,0,0.6,0.1,0.8,0.1c0.3,0,0.4-0.2,0.4-0.4v-3.7h-1.8v-3L682.7,100.6L682.7,100.6z M681.9,101.3h-2.7v1.5h2.7
				V101.3z M683.1,106.4l-0.7,0.3c-0.2-0.8-0.5-1.5-0.8-2.3l0.7-0.2C682.6,105,682.9,105.7,683.1,106.4z M686.8,108.4
				c-0.6,0-0.9-0.3-0.9-0.9v-6.2h-0.7c-0.1,3.3-0.8,5.7-2.2,7.2l-0.6-0.5c1.3-1.4,1.9-3.6,2-6.7h-1.2v-0.8h1.2v-2.8h0.8v2.8h3v0.8
				h-1.6v6.1c0,0.2,0.1,0.3,0.3,0.3h0.3c0.1,0,0.3-0.1,0.3-0.3c0.1-0.2,0.1-0.9,0.2-2l0.7,0.2c-0.1,1.3-0.2,2.1-0.3,2.4
				c-0.2,0.3-0.4,0.4-0.7,0.4H686.8z M688,99.5l-0.6,0.4c-0.3-0.5-0.8-1.1-1.3-1.8l0.6-0.4C687.2,98.4,687.7,99,688,99.5z"/>
		</g>
		<g class="st9">
			<path class="st5" d="M683.6,122.7c-0.8,0-1.4-0.1-1.9-0.2s-0.9-0.4-1.3-0.9c-0.2-0.2-0.3-0.3-0.5-0.3c-0.3,0-0.8,0.6-1.4,1.7
				l-0.6-0.6c0.6-1,1.2-1.6,1.7-1.8V117h-1.7v-0.8h2.5v4.5c0.1,0.1,0.2,0.2,0.3,0.3c0.3,0.3,0.6,0.6,0.9,0.8
				c0.4,0.2,0.9,0.3,1.6,0.3c0.6,0,1.4,0,2.3,0c0.6,0,1.2,0,1.8,0s1,0,1.4,0l-0.2,0.9h-2.8C685,122.8,684.3,122.7,683.6,122.7z
				 M680.7,114l-0.6,0.6c-0.5-0.6-1.1-1.3-2-2l0.6-0.6C679.5,112.8,680.2,113.4,680.7,114z M683,116.1c-0.1,1.9-0.6,3.5-1.4,4.7
				l-0.6-0.6c0.7-1.1,1.1-2.5,1.2-4.4v-3.1c1.8,0,3.5-0.3,5-0.7l0.4,0.8c-1.4,0.4-2.9,0.6-4.6,0.6v1.9h5.3v0.8h-2.1v5h-0.8v-5
				C685.4,116.1,683,116.1,683,116.1z"/>
		</g>
		<g class="st9">
			<path class="st5" d="M678.1,137.2l-0.2-0.8c0.3,0,0.6,0,0.9,0c0.3,0,0.5-0.2,0.5-0.5v-3c-0.5,0.2-1,0.4-1.5,0.5l-0.2-0.9
				c0.6-0.1,1.1-0.3,1.7-0.5v-2.7h-1.5v-0.8h1.5v-2.3h0.9v2.3h1v0.8h-1v2.3c0.3-0.2,0.7-0.3,1-0.5v0.9c-0.3,0.2-0.7,0.3-1,0.5v3.5
				c0,0.7-0.4,1-1.1,1h-1L678.1,137.2L678.1,137.2z M684.9,131.4c-0.1,0.3-0.3,0.6-0.4,0.9h4.1v0.8h-1.3c-0.2,0.9-0.6,1.6-1.1,2.3
				c0.8,0.4,1.6,0.8,2.4,1.2l-0.5,0.7c-0.7-0.4-1.5-0.9-2.5-1.3c-0.8,0.6-2.1,1-3.8,1.4l-0.3-0.8c1.4-0.3,2.5-0.6,3.2-1
				c-0.7-0.3-1.5-0.7-2.4-1c0.3-0.5,0.6-1,0.9-1.4h-1.6v-0.8h2.1c0.2-0.4,0.3-0.7,0.4-1L684.9,131.4z M684.4,130.2h1.2
				c0.3-0.6,0.6-1.2,0.9-1.9l0.8,0.3c-0.2,0.6-0.5,1.1-0.8,1.6h1.9v0.8h-6.7v-0.8h1.8c-0.2-0.5-0.5-1-0.7-1.4l0.7-0.3
				C683.8,128.9,684.1,129.5,684.4,130.2z M685.5,127.4h2.7v0.8H682v-0.8h2.6c-0.1-0.4-0.3-0.7-0.4-1l0.9-0.1
				C685.2,126.6,685.4,127,685.5,127.4z M684,133.2c-0.2,0.4-0.4,0.7-0.7,1.1c0.7,0.3,1.4,0.5,2,0.8c0.5-0.5,0.9-1.1,1.1-1.9
				L684,133.2L684,133.2z"/>
		</g>
		<g class="st9">
			<path class="st5" d="M680.7,141.2l0.7-0.5c1.1,0.7,2,2.1,2.7,4c1.1,2.9,2.6,4.9,4.5,6.1l-0.5,0.7c-1.9-1.2-3.5-3.4-4.8-6.5
				c-0.1-0.2-0.1-0.4-0.2-0.5c-0.8,3.1-2.4,5.4-5,7l-0.5-0.7c2.6-1.7,4.2-4.1,5-7.3C682.1,142.5,681.4,141.8,680.7,141.2z"/>
		</g>
		<g>
			<line class="st6" x1="545" y1="322.3" x2="601.5" y2="322.3"/>
		</g>
		<g>
			<g class="st1">
				<rect x="603.5" y="299.8" class="st2" width="91" height="50"/>
			</g>
			<rect x="601.8" y="298.3" class="st3" width="90" height="49"/>
			<path class="st4" d="M691.5,298.8v48h-89v-48H691.5 M692.5,297.8h-91v50h91V297.8z"/>
			<g id="_编组_5_5_">
				<g id="_编组_2-6_5_">
					<path id="_复合路径_5_5_" class="st7" d="M626,336.7c-7.2,0-13-5.8-13-13s5.8-13,13-13c6.4,0,11.9,4.7,12.9,11h2
						c-1.1-8.2-8.7-14-16.9-12.9s-14,8.7-12.9,16.9s8.7,14,16.9,12.9c6.7-0.9,12-6.2,12.9-12.9h-2C637.8,332,632.4,336.7,626,336.7z
						 M626,315.7c-2.8,0-5,2.2-5,5v1h-1v9h12v-9h-1v-1C631,317.9,628.8,315.7,626,315.7z M623,320.7c0-1.7,1.3-3,3-3s3,1.3,3,3v1h-6
						V320.7z M630,328.7h-8v-5h8V328.7z"/>
				</g>
			</g>
			<g class="st9">
				<path class="st8" d="M651.8,326.2c0.2,0.2,0.2,0.4,0.2,0.6c0,0.3-0.1,0.4-0.2,0.6c-0.2,0.2-0.4,0.2-0.6,0.2s-0.4-0.1-0.6-0.2
					c-0.2-0.2-0.3-0.4-0.3-0.6s0.1-0.4,0.3-0.6s0.3-0.2,0.6-0.2C651.4,325.9,651.6,326,651.8,326.2z M656.5,326.2
					c0.2,0.2,0.2,0.4,0.2,0.6c0,0.3-0.1,0.4-0.2,0.6c-0.2,0.2-0.4,0.2-0.6,0.2c-0.2,0-0.4-0.1-0.6-0.2c-0.2-0.2-0.2-0.4-0.2-0.6
					s0.1-0.4,0.2-0.6c0.2-0.2,0.4-0.2,0.6-0.2C656.1,325.9,656.3,326,656.5,326.2z M661.1,326.2c0.2,0.2,0.3,0.4,0.3,0.6
					c0,0.3-0.1,0.4-0.3,0.6s-0.4,0.2-0.6,0.2c-0.2,0-0.4-0.1-0.6-0.2c-0.2-0.2-0.2-0.4-0.2-0.6s0.1-0.4,0.2-0.6
					c0.2-0.2,0.4-0.2,0.6-0.2C660.7,325.9,660.9,326,661.1,326.2z"/>
				<path class="st8" d="M665.8,326.2c0.2,0.2,0.2,0.4,0.2,0.6c0,0.3-0.1,0.4-0.2,0.6c-0.2,0.2-0.4,0.2-0.6,0.2s-0.4-0.1-0.6-0.2
					c-0.2-0.2-0.3-0.4-0.3-0.6s0.1-0.4,0.3-0.6s0.3-0.2,0.6-0.2C665.4,325.9,665.6,326,665.8,326.2z M670.5,326.2
					c0.2,0.2,0.2,0.4,0.2,0.6c0,0.3-0.1,0.4-0.2,0.6c-0.2,0.2-0.4,0.2-0.6,0.2c-0.2,0-0.4-0.1-0.6-0.2c-0.2-0.2-0.2-0.4-0.2-0.6
					s0.1-0.4,0.2-0.6c0.2-0.2,0.4-0.2,0.6-0.2C670.1,325.9,670.3,326,670.5,326.2z M675.1,326.2c0.2,0.2,0.3,0.4,0.3,0.6
					c0,0.3-0.1,0.4-0.3,0.6s-0.4,0.2-0.6,0.2c-0.2,0-0.4-0.1-0.6-0.2c-0.2-0.2-0.2-0.4-0.2-0.6s0.1-0.4,0.2-0.6
					c0.2-0.2,0.4-0.2,0.6-0.2C674.7,325.9,674.9,326,675.1,326.2z"/>
			</g>
		</g>
		<g>
			<line class="st6" x1="545.2" y1="182.9" x2="601.7" y2="182.9"/>
		</g>
		<g class="st1">
			<rect x="313" y="451" class="st2" width="197.5" height="50"/>
		</g>
		<rect x="311.3" y="449.5" class="st3" width="196.5" height="49"/>
		<path class="st4" d="M507.5,450v48H312v-48H507.5 M508.5,449H311v50h197.5V449z"/>
		<g>
			<line class="st6" x1="415.5" y1="449" x2="415.5" y2="408.3"/>
		</g>
		<g id="_编组_5_2_">
			<g id="_编组_2-6_2_">
				<path id="_复合路径_5_2_" class="st7" d="M338.5,487.9c-7.2,0-13-5.8-13-13s5.8-13,13-13c6.4,0,11.9,4.7,12.9,11h2
					c-1.1-8.2-8.7-14-16.9-12.9c-8.2,1.1-14,8.7-12.9,16.9c1.1,8.2,8.7,14,16.9,12.9c6.7-0.9,12-6.2,12.9-12.9h-2
					C350.3,483.2,344.9,487.9,338.5,487.9z M338.5,466.9c-2.8,0-5,2.2-5,5v1h-1v9h12v-9h-1v-1C343.5,469.1,341.3,466.9,338.5,466.9z
					 M335.5,471.9c0-1.7,1.3-3,3-3s3,1.3,3,3v1h-6V471.9z M342.5,479.9h-8v-5h8V479.9z"/>
			</g>
		</g>
		<g class="st9">
			<path class="st8" d="M140.7,60.1v-0.9h4.6v0.9h-1.8v3.2h1.5v0.9h-1.5v3.2c0.6-0.2,1.2-0.5,1.8-0.7v1c-1.3,0.6-2.7,1.1-4.4,1.7
				l-0.3-1c0.6-0.2,1.3-0.4,1.9-0.6v-3.5h-1.6v-0.9h1.6v-3.2L140.7,60.1L140.7,60.1z M145.5,63.9v-1h7.5v1h-2v5.4
				c0,0.4,0.2,0.6,0.5,0.6h0.4c0.2,0,0.3-0.1,0.4-0.2c0.1-0.1,0.2-0.8,0.3-2l0.9,0.3c-0.1,1.4-0.2,2.2-0.4,2.4
				c-0.2,0.2-0.5,0.4-1,0.4h-0.9c-0.4,0-0.7-0.1-0.9-0.4s-0.3-0.6-0.3-0.9v-5.6h-1.7v1c0,2.7-1.3,4.8-3.6,6l-0.8-0.7
				c2.2-1.1,3.4-2.9,3.4-5.4v-1L145.5,63.9L145.5,63.9z M152.5,59v1H146v-1H152.5z"/>
			<path class="st8" d="M162.3,65.8c0.2,0.7,0.4,1.4,0.4,2.2c0,1.1-0.2,1.9-0.4,2.3c-0.3,0.5-1.1,0.7-2.3,0.7h-0.5l-0.3-0.9h0.7
				c0.8,0,1.3-0.1,1.6-0.4s0.4-0.9,0.4-1.8c0-0.3,0-0.5-0.1-0.7c-1.6,1.2-3.6,2.2-6.1,3l-0.5-0.9c2.8-0.8,4.9-1.8,6.5-3.1
				c-0.1-0.4-0.2-0.7-0.4-1.1c-1.3,1-3.1,1.9-5.4,2.5l-0.5-0.9c2.4-0.6,4.2-1.4,5.4-2.4c-0.2-0.3-0.4-0.5-0.6-0.7
				c-0.1,0.1-0.2,0.1-0.3,0.2c-1,0.4-2.2,0.9-3.8,1.3l-0.5-0.8c1.3-0.3,2.6-0.7,3.6-1.1c0.5-0.2,1-0.4,1.4-0.7h-3.7v-0.9h8.4v0.9
				H162c-0.4,0.3-0.8,0.5-1.1,0.7c0.5,0.5,0.9,1.1,1.2,1.6c1.3-0.4,2.5-0.9,3.7-1.7l0.7,0.7c-0.7,0.5-1.5,0.9-2.4,1.2
				c0.7,1.8,1.7,3.2,3.2,4.2l-0.7,0.8c-1.5-1.2-2.6-2.8-3.3-4.7C162.9,65.6,162.6,65.7,162.3,65.8z M161.6,59.4h5.3v2.4h-1v-1.5
				h-9.8v1.5h-1v-2.4h5.5c-0.2-0.4-0.3-0.8-0.5-1.1l1-0.2C161.3,58.4,161.5,58.9,161.6,59.4z"/>
			<path class="st8" d="M173.3,59.6l3.9,10H176l-1.1-2.8h-4.6l-1.1,2.8H168l3.9-10H173.3z M174.5,65.8l-1.9-5h-0.1l-1.9,5H174.5z"/>
		</g>
		<g class="st9">
			<path class="st8" d="M672.6,60.5v-0.9h4.6v0.9h-1.8v3.2h1.5v0.9h-1.5v3.2c0.6-0.2,1.2-0.5,1.8-0.7v1c-1.3,0.6-2.7,1.1-4.4,1.7
				l-0.3-1c0.6-0.2,1.3-0.4,1.9-0.6v-3.5h-1.6v-0.9h1.6v-3.2L672.6,60.5L672.6,60.5z M677.3,64.2v-1h7.5v1h-2v5.4
				c0,0.4,0.2,0.6,0.5,0.6h0.4c0.2,0,0.3-0.1,0.4-0.2c0.1-0.1,0.2-0.8,0.3-2l0.9,0.3c-0.1,1.4-0.2,2.2-0.4,2.4
				c-0.2,0.2-0.5,0.4-1,0.4H683c-0.4,0-0.7-0.1-0.9-0.4s-0.3-0.6-0.3-0.9v-5.6h-1.7v1c0,2.7-1.3,4.8-3.6,6l-0.8-0.7
				c2.2-1.1,3.4-2.9,3.4-5.4v-1L677.3,64.2L677.3,64.2z M684.4,59.3v1h-6.6v-1H684.4z"/>
			<path class="st8" d="M694.2,66.1c0.2,0.7,0.3,1.4,0.4,2.2c0,1.1-0.2,1.9-0.4,2.3c-0.3,0.5-1.1,0.7-2.3,0.7h-0.5l-0.3-0.9h0.7
				c0.8,0,1.3-0.1,1.6-0.4s0.4-0.9,0.4-1.8c0-0.3,0-0.5-0.1-0.7c-1.6,1.2-3.6,2.2-6.2,3l-0.5-0.9c2.8-0.8,4.9-1.8,6.5-3.1
				c-0.1-0.4-0.2-0.7-0.4-1.1c-1.3,1-3.1,1.9-5.4,2.5l-0.5-0.9c2.4-0.6,4.2-1.4,5.4-2.4c-0.2-0.3-0.4-0.5-0.6-0.7
				c-0.1,0.1-0.2,0.1-0.3,0.2c-1,0.4-2.2,0.9-3.8,1.3l-0.5-0.8c1.3-0.3,2.6-0.7,3.6-1.1c0.5-0.2,1-0.4,1.4-0.7h-3.7V62h8.4v1h-3.2
				c-0.4,0.3-0.8,0.5-1.1,0.7c0.5,0.5,0.9,1.1,1.2,1.6c1.3-0.4,2.5-0.9,3.7-1.7l0.7,0.7c-0.7,0.5-1.5,0.9-2.4,1.2
				c0.7,1.8,1.7,3.2,3.2,4.2l-0.7,0.8c-1.5-1.2-2.6-2.8-3.3-4.7C694.8,66,694.5,66,694.2,66.1z M693.5,59.7h5.3v2.4h-1v-1.5H688v1.5
				h-1v-2.4h5.5c-0.2-0.4-0.3-0.8-0.5-1.1l1-0.2C693.2,58.8,693.3,59.2,693.5,59.7z"/>
			<path class="st8" d="M705.3,59.9c0.9,0,1.7,0.2,2.2,0.7c0.5,0.4,0.8,1.1,0.8,1.8c0,0.6-0.2,1.1-0.4,1.5c-0.3,0.4-0.7,0.6-1.2,0.8
				c0.7,0.1,1.2,0.4,1.5,0.8c0.4,0.4,0.6,1,0.6,1.6c0,1-0.4,1.7-1,2.2c-0.6,0.4-1.4,0.6-2.4,0.6H701v-10H705.3z M702,64.3h3
				c0.7,0,1.2-0.2,1.6-0.4c0.4-0.3,0.6-0.7,0.6-1.3s-0.2-1-0.5-1.3s-0.9-0.4-1.6-0.4H702V64.3z M702,69h3.2c0.7,0,1.2-0.1,1.7-0.4
				s0.7-0.8,0.7-1.4s-0.2-1.1-0.6-1.4c-0.4-0.3-1-0.4-1.8-0.4H702V69z"/>
		</g>
		<g>
			<path class="st0" d="M416,102.1c-8.3,0-15,6.7-15,15s6.7,15,15,15s15-6.7,15-15S424.3,102.1,416,102.1z M416,130.1
				c-7.2,0-13-5.8-13-13s5.8-13,13-13s13,5.8,13,13S423.1,130.1,416,130.1z"/>
			<polygon class="st0" points="418.7,111 417,111 417,106.1 415,106.1 415,111 413.2,111 416,115.7 			"/>
			<polygon class="st0" points="422.1,116.1 422.1,114.3 417.3,117.1 422.1,119.8 422.1,118.1 427,118.1 427,116.1 			"/>
			<polygon class="st0" points="413.3,123.2 415,123.2 415,128.1 417,128.1 417,123.2 418.7,123.2 416,118.4 			"/>
			<polygon class="st0" points="414.6,117.1 409.9,114.4 409.9,116.1 405,116.1 405,118.1 409.9,118.1 409.9,119.8 			"/>
		</g>
		<g>
			<path class="st0" d="M530,167.6c-8.3,0-15,6.7-15,15s6.7,15,15,15s15-6.7,15-15S538.3,167.6,530,167.6z M530,195.6
				c-7.2,0-13-5.8-13-13s5.8-13,13-13s13,5.8,13,13S537.1,195.6,530,195.6z"/>
			<polygon class="st0" points="532.7,176.5 531,176.5 531,171.6 529,171.6 529,176.5 527.2,176.5 530,181.2 			"/>
			<polygon class="st0" points="536.1,181.6 536.1,179.8 531.3,182.6 536.1,185.3 536.1,183.6 541,183.6 541,181.6 			"/>
			<polygon class="st0" points="527.3,188.7 529,188.7 529,193.6 531,193.6 531,188.7 532.7,188.7 530,183.9 			"/>
			<polygon class="st0" points="528.6,182.6 523.9,179.9 523.9,181.6 519,181.6 519,183.6 523.9,183.6 523.9,185.3 			"/>
		</g>
		<g>
			<path class="st0" d="M297,167.6c-8.3,0-15,6.7-15,15s6.7,15,15,15s15-6.7,15-15S305.3,167.6,297,167.6z M297,195.6
				c-7.2,0-13-5.8-13-13s5.8-13,13-13s13,5.8,13,13S304.1,195.6,297,195.6z"/>
			<polygon class="st0" points="299.7,176.5 298,176.5 298,171.6 296,171.6 296,176.5 294.2,176.5 297,181.2 			"/>
			<polygon class="st0" points="303.1,181.6 303.1,179.8 298.3,182.6 303.1,185.3 303.1,183.6 308,183.6 308,181.6 			"/>
			<polygon class="st0" points="294.3,188.7 296,188.7 296,193.6 298,193.6 298,188.7 299.7,188.7 297,183.9 			"/>
			<polygon class="st0" points="295.6,182.6 290.9,179.9 290.9,181.6 286,181.6 286,183.6 290.9,183.6 290.9,185.3 			"/>
		</g>
		<g>
			<path class="st0" d="M530,307.9c-8.3,0-15,6.7-15,15s6.7,15,15,15s15-6.7,15-15S538.3,307.9,530,307.9z M530,335.9
				c-7.2,0-13-5.8-13-13s5.8-13,13-13s13,5.8,13,13S537.1,335.9,530,335.9z"/>
			<polygon class="st0" points="532.7,316.8 531,316.8 531,311.9 529,311.9 529,316.8 527.2,316.8 530,321.5 			"/>
			<polygon class="st0" points="536.1,321.8 536.1,320.1 531.3,322.8 536.1,325.6 536.1,323.8 541,323.8 541,321.8 			"/>
			<polygon class="st0" points="527.3,328.9 529,328.9 529,333.9 531,333.9 531,328.9 532.7,328.9 530,324.2 			"/>
			<polygon class="st0" points="528.6,322.9 523.9,320.1 523.9,321.9 519,321.9 519,323.9 523.9,323.9 523.9,325.6 			"/>
		</g>
		<g>
			<path class="st0" d="M301.5,307.9c-8.3,0-15,6.7-15,15s6.7,15,15,15s15-6.7,15-15S309.8,307.9,301.5,307.9z M301.5,335.9
				c-7.2,0-13-5.8-13-13s5.8-13,13-13s13,5.8,13,13S308.6,335.9,301.5,335.9z"/>
			<polygon class="st0" points="304.2,316.8 302.5,316.8 302.5,311.9 300.5,311.9 300.5,316.8 298.7,316.8 301.5,321.5 			"/>
			<polygon class="st0" points="307.6,321.8 307.6,320.1 302.8,322.8 307.6,325.6 307.6,323.8 312.5,323.8 312.5,321.8 			"/>
			<polygon class="st0" points="298.8,328.9 300.5,328.9 300.5,333.9 302.5,333.9 302.5,328.9 304.2,328.9 301.5,324.2 			"/>
			<polygon class="st0" points="300.1,322.9 295.4,320.1 295.4,321.9 290.5,321.9 290.5,323.9 295.4,323.9 295.4,325.6 			"/>
		</g>
		<g>
			<polygon class="st5" points="409.5,341.6 414.5,346.6 419.5,341.6 			"/>
			<polygon class="st5" points="419.5,288.7 414.5,283.7 409.5,288.7 			"/>
			<line class="st6" x1="414.5" y1="341.6" x2="414.5" y2="284.4"/>
		</g>
		<g>
			<polygon class="st5" points="409.5,210.9 414.5,215.9 419.5,210.9 			"/>
			<polygon class="st5" points="419.5,163.1 414.5,158.1 409.5,163.1 			"/>
			<line class="st6" x1="414.5" y1="210.9" x2="414.5" y2="158.7"/>
		</g>
		<g>
			<polygon class="st5" points="511,195.8 511.4,188.8 504.4,188.3 			"/>
			<polygon class="st5" points="473.6,214.5 473.2,221.5 480.3,222 			"/>
			<line class="st6" x1="477.1" y1="218.3" x2="507.7" y2="192.1"/>
		</g>
		<g>
			<polygon class="st5" points="350.4,222 357.4,221.5 357,214.5 			"/>
			<polygon class="st5" points="326.3,188.3 319.2,188.8 319.6,195.8 			"/>
			<line class="st6" x1="353.7" y1="218.2" x2="323.1" y2="192"/>
		</g>
		<g>
			<polygon class="st5" points="504.4,316.5 511.4,316 511,309 			"/>
			<polygon class="st5" points="480.3,282.8 473.2,283.3 473.6,290.3 			"/>
			<line class="st6" x1="507.7" y1="312.7" x2="477.1" y2="286.5"/>
		</g>
		<g>
			<polygon class="st5" points="357,290.3 357.4,283.3 350.4,282.8 			"/>
			<polygon class="st5" points="319.6,309 319.2,316 326.3,316.5 			"/>
			<line class="st6" x1="323.1" y1="312.8" x2="353.7" y2="286.6"/>
		</g>
		<g>
			<path class="st0" d="M415.6,370.6c-8.3,0-15,6.7-15,15s6.7,15,15,15s15-6.7,15-15C430.6,377.4,423.9,370.6,415.6,370.6z
				 M415.6,398.6c-7.2,0-13-5.8-13-13s5.8-13,13-13s13,5.8,13,13S422.8,398.6,415.6,398.6z"/>
			<polygon class="st0" points="418.4,379.5 416.6,379.5 416.6,374.6 414.6,374.6 414.6,379.5 412.9,379.5 415.6,384.3 			"/>
			<polygon class="st0" points="421.7,384.6 421.7,382.9 417,385.6 421.7,388.4 421.7,386.6 426.6,386.6 426.6,384.6 			"/>
			<polygon class="st0" points="412.9,391.7 414.7,391.7 414.7,396.6 416.7,396.6 416.7,391.7 418.4,391.7 415.7,387 			"/>
			<polygon class="st0" points="414.3,385.7 409.6,382.9 409.6,384.7 404.6,384.7 404.6,386.7 409.6,386.7 409.6,388.4 			"/>
		</g>
	</g>
	<g>
		<path class="st8" d="M370.2,467.9v2.3h4.7v6.1h-0.9v-0.8h-3.7v4.4h-1v-4.4h-3.7v0.8h-0.9v-6.1h4.7v-2.3H370.2z M369.2,474.6v-3.5
			h-3.7v3.5H369.2z M373.9,474.6v-3.5h-3.7v3.5H373.9z"/>
		<path class="st8" d="M388,479.9h-0.9v-0.6h-8.8v0.6h-0.9v-11.3H388V479.9z M387.1,478.4v-9h-8.8v9H387.1z M385.9,470.6v0.8h-2.7
			v1.9h2.3v0.8h-2.3v2.1h3.1v0.9h-7.2v-0.9h3.1v-2.1h-2.3v-0.8h2.3v-1.9h-2.7v-0.8H385.9z M385.6,475.9l-0.7,0.3
			c-0.3-0.6-0.5-1.1-0.9-1.5l0.7-0.2C385,474.9,385.3,475.4,385.6,475.9z"/>
		<path class="st8" d="M399.6,479.9h-0.9v-0.7h-5.8v0.7H392v-5.7h3.3v-2.6c-0.9,1.3-2.5,2.4-5,3.3l-0.5-0.8c2.2-0.7,3.8-1.6,4.6-2.5
			h-4.3v-0.9h5.2v-1.2c-1.2,0.1-2.6,0.1-4,0.1l-0.3-0.8c3.6,0,6.5-0.3,8.9-0.7l0.4,0.8c-1.2,0.3-2.6,0.5-4.1,0.6v1.3h5.1v0.9h-4.2
			c0.9,1.1,2.4,1.9,4.4,2.5l-0.4,0.9c-0.6-0.2-1.1-0.4-1.6-0.7V479.9z M398.7,476.3V475h-5.8v1.3H398.7z M398.7,478.4v-1.2h-5.8v1.2
			H398.7z M396.2,474.2h3.3c-1.5-0.7-2.6-1.6-3.3-2.6V474.2z"/>
		<path class="st8" d="M405.7,473.3L405,474c-0.5-0.6-1.2-1.2-2.2-1.9l0.7-0.6C404.4,472.1,405.1,472.7,405.7,473.3z M405.6,475.6
			c-0.5,1.5-1.1,3-1.7,4.3l-0.9-0.4c0.7-1.4,1.3-2.8,1.8-4.2L405.6,475.6z M406.1,470.2l-0.7,0.7c-0.6-0.6-1.3-1.3-2.3-2l0.7-0.6
			C404.7,468.9,405.5,469.6,406.1,470.2z M408.3,469.4V468h0.9v1.4h2.2V468h0.9v1.4h1.7v0.8h-1.7v1.5h2.1v0.9h-2.1
			c0.5,0.9,1.4,1.6,2.5,2.1l-0.4,0.8c-0.7-0.4-1.3-0.8-1.8-1.3v2.7h-4v1.2c0,0.3,0.2,0.5,0.6,0.5h3.5c0.3,0,0.4-0.1,0.5-0.3
			c0.1-0.2,0.2-0.6,0.2-1.2l0.9,0.3c-0.1,0.6-0.2,1.1-0.3,1.4c-0.2,0.4-0.5,0.7-1.1,0.7h-4.1c-0.8,0-1.2-0.4-1.2-1.1v-3.9
			c-0.5,0.4-1,0.8-1.5,1.1l-0.5-0.8c1.3-0.7,2.1-1.5,2.6-2.4h-2.1v-0.9h2v-1.5h-1.5v-0.8H408.3z M412.3,474.1
			c-0.4-0.4-0.8-0.9-1-1.4h-2.2c-0.2,0.5-0.5,1-0.9,1.4H412.3z M411.7,476.2v-1.4h-3.1v1.4H411.7z M411.4,471.8v-1.5h-2.2v1.5H411.4
			z"/>
		<path class="st8" d="M418.2,475.3c-0.5,1.6-1,3-1.6,4.4l-0.9-0.4c0.7-1.4,1.2-2.9,1.7-4.4L418.2,475.3z M418.3,473.2l-0.7,0.7
			c-0.4-0.6-1.1-1.2-1.8-1.8l0.6-0.6C417.2,472.1,417.8,472.6,418.3,473.2z M418.3,469.9l-0.7,0.7c-0.4-0.5-1-1.1-1.8-1.7l0.7-0.6
			C417.2,468.8,417.8,469.3,418.3,469.9z M418.4,470.9V470h1.8c-0.2-0.7-0.4-1.4-0.6-2l0.9-0.2c0.2,0.6,0.4,1.3,0.5,2.1h1.5v0.9
			h-2.3v0.9c0,0.4,0,0.7,0,1h2.1c0,3-0.1,4.9-0.2,5.6c-0.1,0.8-0.5,1.2-1.2,1.2c-0.2,0-0.5,0-0.9-0.1l-0.2-0.8c0.4,0,0.8,0,1.1,0
			c0.3,0,0.4-0.3,0.5-0.8c0.1-0.5,0.1-1.9,0.2-4.4h-1.3c-0.2,2.7-0.8,4.7-1.7,6.1l-0.7-0.6c1-1.5,1.6-4,1.6-7.4v-0.9H418.4z
			 M422.8,472.8l-0.6-0.7c0.8-1,1.4-2.5,1.6-4.2l0.9,0.2c-0.1,0.6-0.3,1.2-0.4,1.7h3.2v0.9h-3.5
			C423.7,471.6,423.3,472.3,422.8,472.8z M427.2,472.1v0.8c-0.4,0.5-0.9,1.1-1.4,1.6v0.8h1.8v0.8h-1.8v2.4c0,0.8-0.3,1.2-1,1.2h-1.2
			l-0.2-0.9c0.3,0,0.7,0,1.1,0c0.3,0,0.4-0.2,0.4-0.7v-2h-2v-0.8h2v-0.9c0.5-0.6,0.9-1.1,1.2-1.4h-2.5v-0.8H427.2z"/>
		<path class="st8" d="M431.9,473.8c0.4-1.1,0.7-2.3,0.8-3.6h-3.5v-0.9h4.4v0.9c-0.1,1.7-0.5,3.2-1,4.6c0.6,0.8,1.1,1.5,1.6,2.2
			l-0.7,0.7c-0.4-0.6-0.8-1.3-1.3-2c-0.7,1.3-1.7,2.5-2.9,3.4l-0.6-0.7c1.2-1,2.1-2.2,2.8-3.6c-0.7-0.9-1.5-1.8-2.3-2.7l0.7-0.6
			C430.6,472.2,431.3,473,431.9,473.8z M440.2,471.9l-3.5,0.6c0.1,0.6,0.1,1.2,0.2,1.7c0.1,0.6,0.2,1.2,0.4,1.7
			c0.7-0.8,1.3-1.8,1.9-2.8l0.8,0.5c-0.7,1.3-1.5,2.4-2.3,3.3c0.1,0.3,0.2,0.5,0.3,0.7c0.4,0.8,0.8,1.1,1.1,1.2
			c0.2-0.1,0.4-0.8,0.7-2.3l0.8,0.5c-0.2,0.8-0.4,1.4-0.6,1.9c-0.3,0.6-0.5,0.9-0.8,0.9c-0.5,0-1.1-0.4-1.6-1.2
			c-0.2-0.3-0.4-0.6-0.5-1c-0.9,0.8-1.8,1.4-2.7,1.7l-0.6-0.8c1.1-0.4,2.1-1.1,2.9-1.9c-0.2-0.5-0.3-1.1-0.5-1.7
			c-0.2-0.6-0.3-1.4-0.4-2.2l-1.7,0.3L434,472l1.7-0.3c-0.1-1.1-0.1-2.4-0.1-3.7h0.9c0,1.3,0,2.5,0.1,3.6l3.5-0.6L440.2,471.9z
			 M439.6,470l-0.8,0.5c-0.3-0.5-0.8-1.1-1.4-1.8l0.8-0.5C438.8,469,439.2,469.6,439.6,470z"/>
		<path class="st8" d="M444.6,473.3L444,474c-0.5-0.6-1.2-1.3-2.2-2l0.6-0.6C443.3,472.1,444,472.7,444.6,473.3z M444.8,475.2
			c-0.6,1.6-1.2,3.2-1.9,4.6l-0.9-0.4c0.8-1.5,1.4-3,2-4.5L444.8,475.2z M445,470.2l-0.6,0.6c-0.6-0.6-1.4-1.3-2.3-2l0.6-0.6
			C443.6,468.9,444.4,469.6,445,470.2z M449.3,470.6c0.2-0.4,0.3-0.8,0.4-1.2h-3.1v3.8c-0.1,2.8-0.5,5.1-1.5,6.8l-0.7-0.6
			c0.8-1.5,1.2-3.5,1.3-6.1v-4.6h7.8v0.8h-2.9c-0.1,0.4-0.2,0.8-0.4,1.2h2.5v4.6h-2.2v3.7c0,0.7-0.4,1.1-1,1.1h-1.1l-0.2-0.8
			c0.3,0,0.7,0.1,1,0.1c0.3,0,0.4-0.2,0.4-0.5v-3.5h-2.2v-4.6H449.3z M448.6,476.2c-0.3,1.1-0.8,2.1-1.4,3l-0.8-0.5
			c0.6-0.8,1.1-1.7,1.3-2.7L448.6,476.2z M451.9,472.5v-1.2h-3.6v1.2H451.9z M451.9,473.2h-3.6v1.2h3.6V473.2z M453.6,478.9
			l-0.8,0.4c-0.4-1.1-0.9-2.1-1.4-3l0.8-0.3C452.7,476.9,453.2,477.8,453.6,478.9z"/>
		<path class="st8" d="M459.8,477.9c-1.5,0.4-3.1,0.8-4.8,1.1l-0.2-0.9c1-0.1,1.9-0.3,2.8-0.5c0.4-1.8,0.7-3.8,0.9-5.9l0.9,0.1
			c-0.2,2-0.5,3.8-0.9,5.6c0.4-0.1,0.9-0.2,1.3-0.4V477.9z M457,470.1c-0.2-0.7-0.4-1.3-0.6-1.9l0.9-0.2c0.2,0.6,0.4,1.3,0.5,2.1
			h2.1v0.9h-5.1v-0.9H457z M457,477l-0.8,0.2c-0.2-1.8-0.5-3.5-0.9-5.1l0.8-0.3C456.4,473.3,456.7,475.1,457,477z M463.3,468v2.3
			h3.3v0.9h-3.3v2.5h2.6v6.1H465V479h-3.7v0.9h-0.9v-6.1h1.9V468H463.3z M465,478.1v-3.6h-3.7v3.6H465z"/>
		<path class="st8" d="M468.4,469.3l2.9,8.1h0l2.9-8.1h1.2l-3.4,9.3h-1.3l-3.4-9.3H468.4z"/>
		<path class="st8" d="M480.2,469.3c2.1,0,3.2,0.9,3.2,2.7c0,1.8-1.1,2.8-3.2,2.8h-2.7v3.8h-1.1v-9.3H480.2z M477.5,473.9h2.7
			c0.8,0,1.3-0.2,1.7-0.5c0.4-0.3,0.5-0.8,0.5-1.4c0-0.6-0.2-1.1-0.5-1.4c-0.4-0.3-0.9-0.5-1.7-0.5h-2.7V473.9z"/>
		<path class="st8" d="M491.4,470c0.7,0.5,1.1,1.3,1.2,2.2h-1c-0.1-0.7-0.5-1.2-1-1.6c-0.5-0.4-1.1-0.5-1.8-0.5
			c-1.1,0-1.9,0.4-2.5,1.1c-0.5,0.7-0.8,1.6-0.8,2.8c0,1.2,0.3,2.1,0.8,2.8c0.6,0.7,1.4,1.1,2.5,1.1c0.7,0,1.4-0.2,1.9-0.6
			c0.5-0.4,0.9-1,1.1-1.8h1c-0.2,1.1-0.7,1.9-1.5,2.5c-0.7,0.6-1.6,0.8-2.6,0.8c-1.4,0-2.5-0.5-3.3-1.4c-0.7-0.9-1-2-1-3.4
			s0.4-2.5,1.1-3.4c0.8-1,1.9-1.5,3.3-1.5C489.8,469.1,490.7,469.4,491.4,470z"/>
	</g>
</g>
</svg>
