<?xml version="1.0" encoding="utf-8"?>
<!-- Generator: Adobe Illustrator 21.0.0, SVG Export Plug-In . SVG Version: 6.00 Build 0)  -->
<svg version="1.1" id="svgwrapper_svg" xmlns="http://www.w3.org/2000/svg" xmlns:xlink="http://www.w3.org/1999/xlink" x="0px"
	 y="0px" width="830px" height="260px" viewBox="0 0 830 260" style="enable-background:new 0 0 830 260;" xml:space="preserve">
<style type="text/css">
	.st0{display:none;fill:none;stroke:#999999;}
	.st1{fill-opacity:0;}
	.st2{fill:#BABABA;}
	.st3{enable-background:new    ;}
	.st4{fill:#444444;}
	.st5{fill:#888888;}
	.st6{fill:#FF0000;fill-opacity:0;}
	.st7{opacity:0.6;fill:#BBBBBB;enable-background:new    ;}
	.st8{fill:#FFFFFF;}
	.st9{fill:#E5E5E5;}
	.st10{fill:#00A4FF;}
	.st11{fill:#878787;}
</style>
<path class="st0" d="M410,179L410,179"/>
<g id="assistantgroup" transform="translate(0,0)">
</g>
<g>
	<g id="DashRectGroup3_2_" transform="translate(-3.0078125,68.5)">
		<rect x="5" y="-57" class="st1" width="124.3" height="182"/>
		<path class="st2" d="M125.5,175.5h-5v-1h5V175.5z M115.5,175.5h-5v-1h5V175.5z M105.5,175.5h-5v-1h5V175.5z M95.5,175.5h-5v-1h5
			V175.5z M85.5,175.5h-5v-1h5V175.5z M75.5,175.5h-5v-1h5V175.5z M65.5,175.5h-5v-1h5V175.5z M55.5,175.5h-5v-1h5V175.5z
			 M45.5,175.5h-5v-1h5V175.5z M35.5,175.5h-5v-1h5V175.5z M25.5,175.5h-5v-1h5V175.5z M15.5,175.5h-5v-1h5V175.5z M5.5,175.5h-1v-5
			h1L5.5,175.5z M129.8,173.8h-1v-5h1V173.8z M5.5,165.5h-1v-5h1V165.5z M129.8,163.8h-1v-5h1V163.8z M5.5,155.5h-1v-5h1V155.5z
			 M129.8,153.8h-1v-5h1V153.8z M5.5,145.5h-1v-5h1V145.5z M129.8,143.8h-1v-5h1V143.8z M5.5,135.5h-1v-5h1V135.5z M129.8,133.8h-1
			v-5h1V133.8z M5.5,125.5h-1v-5h1V125.5z M129.8,123.8h-1v-5h1V123.8z M5.5,115.5h-1v-5h1V115.5z M129.8,113.8h-1v-5h1V113.8z
			 M5.5,105.5h-1v-5h1V105.5z M129.8,103.8h-1v-5h1V103.8z M5.5,95.5h-1v-5h1V95.5z M129.8,93.8h-1v-5h1V93.8z M5.5,85.5h-1v-5h1
			V85.5z M129.8,83.8h-1v-5h1V83.8z M5.5,75.5h-1v-5h1V75.5z M129.8,73.8h-1v-5h1V73.8z M5.5,65.5h-1v-5h1V65.5z M129.8,63.8h-1v-5
			h1V63.8z M5.5,55.5h-1v-5h1V55.5z M129.8,53.8h-1v-5h1V53.8z M5.5,45.5h-1v-5h1V45.5z M129.8,43.8h-1v-5h1V43.8z M5.5,35.5h-1v-5
			h1V35.5z M129.8,33.8h-1v-5h1V33.8z M5.5,25.5h-1v-5h1V25.5z M129.8,23.8h-1v-5h1V23.8z M5.5,15.5h-1v-5h1V15.5z M129.8,13.8h-1
			v-5h1V13.8z M5.5,5.5h-1v-5h1V5.5z M129.8,3.8h-1v-5h1V3.8z M5.5-4.5h-1v-5h1V-4.5z M129.8-6.2h-1v-5h1V-6.2z M5.5-14.5h-1v-5h1
			V-14.5z M129.8-16.2h-1v-5h1V-16.2z M5.5-24.5h-1v-5h1V-24.5z M129.8-26.2h-1v-5h1V-26.2z M5.5-34.5h-1v-5h1V-34.5z M129.8-36.2
			h-1v-5h1V-36.2z M5.5-44.5h-1v-5h1V-44.5z M129.8-46.2h-1v-5h1V-46.2z M5.5-54.5h-1v-2.4H5v-0.5h5v1H5.5V-54.5z M129.8-56.2h-1
			v-0.2H125v-1h4.8V-56.2z M120-56.4h-5v-1h5V-56.4z M110-56.4h-5v-1h5V-56.4z M100-56.4h-5v-1h5V-56.4z M90-56.4h-5v-1h5V-56.4z
			 M80-56.4h-5v-1h5V-56.4z M70-56.4h-5v-1h5V-56.4z M60-56.4h-5v-1h5V-56.4z M50-56.4h-5v-1h5V-56.4z M40-56.4h-5v-1h5V-56.4z
			 M30-56.4h-5v-1h5V-56.4z M20-56.4h-5v-1h5V-56.4z"/>
		<g transform="translate(10 10)">
			<g class="st3">
				<path class="st4" d="M8.3-50.4c-0.7,0.4-1.4,0.8-2.1,1.1l-0.6-0.8c2.4-1.1,4.4-2.5,6-4.2h0.8c1.3,1.7,3.3,3,5.9,4.1l-0.6,0.8
					c-0.7-0.3-1.4-0.6-2.1-1v0.8h-3.2v2h5v0.9h-5v3.7h1.6c0.5-0.9,0.9-1.9,1.3-2.9l0.9,0.3c-0.4,1-0.7,1.9-1.2,2.6H18v1H6v-1h2.9
					c-0.3-0.9-0.7-1.7-1.1-2.5l0.9-0.3c0.4,0.8,0.8,1.7,1.2,2.8h1.6v-3.7h-5v-0.9h5v-2H8.3V-50.4z M15.5-50.5
					c-1.4-0.8-2.5-1.8-3.4-2.8c-1.1,1.1-2.2,2-3.5,2.8H15.5z"/>
				<path class="st4" d="M19.8-53.9h6.6v0.9h-6.6V-53.9z M24.1-41.7l-0.3-0.9l1,0c0.3,0,0.4-0.1,0.4-0.3v-4.5h-4.4v5.8H20v-6.6h6.1
					v5.5c0,0.7-0.3,1-1,1H24.1z M20.6-52.1h5v3h-5V-52.1z M21.4-45.1h1.8c0.3-0.6,0.5-1.2,0.7-1.9l0.7,0.2c-0.2,0.6-0.4,1.2-0.6,1.6
					h0.8v0.8h-1.3v2.5h-0.8v-2.5h-1.3V-45.1z M24.7-49.9v-1.4h-3.2v1.4H24.7z M22.2-46.8c0.2,0.4,0.5,0.9,0.6,1.5l-0.6,0.2
					c-0.2-0.5-0.4-1-0.7-1.5L22.2-46.8z M26.8-52h2v-2.4h0.9v2.4h2v5.6h-2v3.1l1.3-0.3c-0.2-0.7-0.4-1.3-0.5-1.7l0.8-0.3
					c0.4,1.1,0.8,2.2,1,3.6l-0.9,0.2l-0.2-1c-1.4,0.4-2.9,0.7-4.5,0.9l-0.2-0.9c0.6-0.1,1.3-0.2,2.2-0.3v-3.3h-2V-52z M28.9-47.3
					v-3.8h-1.2v3.8H28.9z M30.9-47.3v-3.8h-1.2v3.8H30.9z"/>
				<path class="st4" d="M38.5-54.5h1l-5,12.9h-1L38.5-54.5z"/>
				<path class="st4" d="M46.5-51.5h-4.3v1.9h-1v-2.7h5.2v-0.9h-4.7V-54h10.3v0.8h-4.7v0.9h5.2v2.7h-1v-1.9h-4.3v2.5
					c1.4,1,3.3,1.9,5.9,2.6l-0.5,0.8c-2.4-0.7-4.4-1.7-5.8-2.8c-1.6,1.2-3.6,2.1-5.9,2.8l-0.6-0.8c2.4-0.7,4.4-1.6,6-2.6V-51.5z
					 M42.9-49.4h2.9v0.7h-2.9V-49.4z M42.9-50.8h2.9v0.7h-2.9V-50.8z M46.4-47.5c0.6,0.4,1.2,0.8,1.7,1.2l-0.3,0.4h3v0.7
					c-0.9,0.8-1.8,1.5-2.7,2.1c0.6,0.3,1.3,0.5,2,0.9l-0.5,0.8c-1.8-0.9-3.6-1.6-5.5-2.1l0.5-0.7c1,0.3,1.8,0.6,2.5,0.8
					c0.8-0.4,1.6-1,2.4-1.6H43v-0.8h4.2c-0.5-0.4-1-0.8-1.5-1.1L46.4-47.5z M48.2-49.4h2.9v0.7h-2.9V-49.4z M48.2-50.8H51v0.7h-2.8
					V-50.8z"/>
				<path class="st4" d="M56.5-50.8c-0.5,0.6-1.1,1.1-1.7,1.7l-0.3-1c1.5-1.3,2.5-2.8,3.1-4.4l1,0.2c-0.2,0.4-0.4,0.8-0.6,1.2h3.5
					c-0.2-0.5-0.4-0.9-0.7-1.3l1-0.2c0.2,0.4,0.4,0.9,0.6,1.5h4.1v0.8h-4.3v1H66v0.8h-3.6v1H66v0.8h-3.7v1h4.5v0.9H56.5V-50.8z
					 M65.9-45.6v4.1h-1v-0.7h-7.4v0.7h-1v-4.1H65.9z M61.4-51.2v-1h-3.8l-0.1,0.2v0.9H61.4z M61.4-49.4v-1h-3.9v1H61.4z M61.4-47.6
					v-1h-3.9v1H61.4z M57.5-43.1h7.4v-1.6h-7.4V-43.1z"/>
				<path class="st4" d="M70.8-52.6c-0.4,0.7-0.8,1.3-1.2,1.8l-0.9-0.5c0.8-1,1.5-2.1,1.8-3.3l1,0.2c-0.1,0.4-0.2,0.7-0.4,1h3.6v0.9
					h-2.5c0.4,0.5,0.7,0.9,0.9,1.4l-0.9,0.3c-0.3-0.7-0.7-1.2-1.1-1.7H70.8z M70.3-50.3h4.1v-0.9h1v0.9h4.1v0.9h-4.1v1.3h5.7v0.9
					h-2.7v1.4h2.1v0.9h-2.1v2.1c0,0.8-0.4,1.2-1.2,1.2h-2l-0.2-1c0.7,0,1.4,0.1,1.9,0.1c0.4,0,0.6-0.2,0.6-0.5v-1.9h-7.9v-0.9h7.9
					v-1.4h-8.7V-48h5.7v-1.3h-4.1V-50.3z M71.9-44.5c0.8,0.8,1.4,1.4,1.8,2L72.9-42c-0.4-0.6-1.1-1.3-1.9-2L71.9-44.5z M76.5-52.6
					c-0.3,0.5-0.6,1-0.9,1.5l-0.8-0.5c0.7-0.9,1.2-1.9,1.5-3l1,0.2c-0.1,0.3-0.2,0.7-0.3,1h4.1v0.9h-2.5c0.4,0.5,0.7,0.9,0.9,1.4
					l-0.9,0.3c-0.3-0.6-0.7-1.2-1.1-1.7H76.5z"/>
				<path class="st4" d="M86.1-54.3c1,1.1,1.9,2.3,2.8,3.5l-0.7,0.7c-0.9-1.3-1.7-2.4-2.4-3.3c-0.8,1.4-1.7,2.7-2.8,3.9l-0.6-0.8
					c1-1.1,2-2.5,2.9-4.1H86.1z M83.3-48.2h5v0.8c-0.6,1.3-1.3,2.4-2.1,3.4c0.6,0.5,1.1,1.1,1.5,1.6L87-41.7c-0.8-1.1-2-2.2-3.5-3.4
					l0.7-0.6c0.4,0.3,0.9,0.7,1.4,1.1c0.6-0.7,1.1-1.6,1.7-2.7h-3.9V-48.2z M85.6-51.3c0.6,0.8,1.1,1.5,1.4,2.2l-0.7,0.5
					c-0.3-0.7-0.8-1.4-1.4-2.2L85.6-51.3z M91.5-49.5h1v2.4c0,1.5-0.3,2.7-0.9,3.6c-0.5,0.8-1.4,1.5-2.6,2l-0.5-0.9
					c1.1-0.4,1.9-1,2.4-1.8c0.4-0.8,0.6-1.7,0.7-3V-49.5z M88.6-53.8h6.6v1h-2.8c-0.1,0.6-0.2,1.1-0.3,1.5h2.6v6.6h-1v-5.7h-3.6v5.8
					h-1v-6.7h2c0.1-0.5,0.2-1,0.3-1.5h-2.9V-53.8z M93-44.7c0.9,0.8,1.7,1.6,2.4,2.5l-0.7,0.7c-0.6-0.8-1.4-1.6-2.4-2.5L93-44.7z"/>
				<path class="st4" d="M96.8-50.7h1.4v-3.7h1v3.7h1.3v1h-1.3v4.2c0.4-0.2,0.8-0.4,1.3-0.6v1c-1.1,0.6-2.3,1.1-3.6,1.5l-0.3-1
					c0.6-0.1,1.1-0.3,1.5-0.4v-4.6h-1.4V-50.7z M104.7-44.5c-1.4,0.5-2.9,1-4.5,1.3l-0.2-1c1.6-0.3,3.2-0.7,4.7-1.3V-44.5z
					 M100.5-52.5h5c0-0.4,0-1,0-1.9h1c0,0.9,0,1.5,0,1.9h1.4c-0.2-0.6-0.4-1.1-0.6-1.4l0.9-0.2c0.2,0.5,0.4,1,0.5,1.6h0.7v1h-2.9
					c0,2.2,0.1,3.9,0.3,5.3c0.6-1.2,1-2.6,1.3-4.1l0.9,0.4c-0.5,2.1-1.1,3.9-1.9,5.3c0.3,1.3,0.6,2,1,2.1c0.3,0,0.5-0.7,0.8-2.1
					l0.8,0.6c-0.4,1.7-1,2.5-1.6,2.5c-0.5,0-0.9-0.4-1.2-1.1c-0.2-0.3-0.3-0.7-0.4-1c-0.7,0.9-1.5,1.6-2.3,2.1l-0.6-0.8
					c1.1-0.6,1.9-1.5,2.7-2.6c-0.1-0.3-0.1-0.7-0.2-1.2c-0.2-1.4-0.3-3.2-0.3-5.3h-5V-52.5z M101-50.2h3.6v3.9H101V-50.2z
					 M103.7-47.1v-2.3h-1.8v2.3H103.7z"/>
			</g>
		</g>
	</g>
	<g>
		<g>
			<g id="bottomgroup" transform="translate(0,0)">
				<g id="DashRectGroup15" transform="translate(614.8966522216797,68.5)">
					<rect x="3" y="-29" class="st1" width="210.2" height="182"/>
					<path class="st2" d="M213.7,153.5h-3.3v-1h2.3v-1.7h1V153.5z M205.4,153.5h-5v-1h5V153.5z M195.4,153.5h-5v-1h5V153.5z
						 M185.4,153.5h-5v-1h5V153.5z M175.4,153.5h-5v-1h5V153.5z M165.4,153.5h-5v-1h5V153.5z M155.4,153.5h-5v-1h5V153.5z
						 M145.4,153.5h-5v-1h5V153.5z M135.4,153.5h-5v-1h5V153.5z M125.4,153.5h-5v-1h5V153.5z M115.4,153.5h-5v-1h5V153.5z
						 M105.4,153.5h-5v-1h5V153.5z M95.4,153.5h-5v-1h5V153.5z M85.4,153.5h-5v-1h5V153.5z M75.4,153.5h-5v-1h5V153.5z M65.4,153.5
						h-5v-1h5V153.5z M55.4,153.5h-5v-1h5V153.5z M45.4,153.5h-5v-1h5V153.5z M35.4,153.5h-5v-1h5V153.5z M25.4,153.5h-5v-1h5V153.5
						z M15.4,153.5h-5v-1h5V153.5z M5.4,153.5H2.5v-3.1h1v2.1h1.9V153.5z M213.7,145.8h-1v-5h1V145.8z M3.5,145.4h-1v-5h1V145.4z
						 M213.7,135.8h-1v-5h1V135.8z M3.5,135.4h-1v-5h1V135.4z M213.7,125.8h-1v-5h1V125.8z M3.5,125.4h-1v-5h1V125.4z M213.7,115.8
						h-1v-5h1V115.8z M3.5,115.4h-1v-5h1V115.4z M213.7,105.8h-1v-5h1V105.8z M3.5,105.4h-1v-5h1V105.4z M213.7,95.8h-1v-5h1V95.8z
						 M3.5,95.4h-1v-5h1V95.4z M213.7,85.8h-1v-5h1V85.8z M3.5,85.4h-1v-5h1V85.4z M213.7,75.8h-1v-5h1V75.8z M3.5,75.4h-1v-5h1
						V75.4z M213.7,65.8h-1v-5h1V65.8z M3.5,65.4h-1v-5h1V65.4z M213.7,55.8h-1v-5h1V55.8z M3.5,55.4h-1v-5h1V55.4z M213.7,45.8h-1
						v-5h1V45.8z M3.5,45.4h-1v-5h1V45.4z M213.7,35.8h-1v-5h1V35.8z M3.5,35.4h-1v-5h1V35.4z M213.7,25.8h-1v-5h1V25.8z M3.5,25.4
						h-1v-5h1V25.4z M213.7,15.8h-1v-5h1V15.8z M3.5,15.4h-1v-5h1V15.4z M213.7,5.8h-1v-5h1V5.8z M3.5,5.4h-1v-5h1V5.4z M213.7-4.2
						h-1v-5h1V-4.2z M3.5-4.6h-1v-5h1V-4.6z M213.7-14.2h-1v-5h1V-14.2z M3.5-14.6h-1v-5h1V-14.6z M213.7-24.2h-1V-29h0.3v-0.5h0.7
						V-24.2z M3.5-24.6h-1V-29H3v-0.5h5v1H3.5V-24.6z M208-28.5h-5v-1h5V-28.5z M198-28.5h-5v-1h5V-28.5z M188-28.5h-5v-1h5V-28.5z
						 M178-28.5h-5v-1h5V-28.5z M168-28.5h-5v-1h5V-28.5z M158-28.5h-5v-1h5V-28.5z M148-28.5h-5v-1h5V-28.5z M138-28.5h-5v-1h5
						V-28.5z M128-28.5h-5v-1h5V-28.5z M118-28.5h-5v-1h5V-28.5z M108-28.5h-5v-1h5V-28.5z M98-28.5h-5v-1h5V-28.5z M88-28.5h-5v-1
						h5V-28.5z M78-28.5h-5v-1h5V-28.5z M68-28.5h-5v-1h5V-28.5z M58-28.5h-5v-1h5V-28.5z M48-28.5h-5v-1h5V-28.5z M38-28.5h-5v-1h5
						V-28.5z M28-28.5h-5v-1h5V-28.5z M18-28.5h-5v-1h5V-28.5z"/>
					<g transform="translate(10 10)">
						<g class="st3">
							<path class="st4" d="M8.9-25.7c-0.7,1.2-1.3,2.2-2,2.9c-0.7,0.8-1.6,1.6-2.8,2.4l-0.5-0.9c1-0.6,1.8-1.3,2.6-2.2
								c0.7-0.8,1.3-1.7,1.9-2.8L8.9-25.7z M5.6-19.9v-1h8.5c0,1.7-0.1,3.1-0.3,4.3c-0.1,1.1-0.4,1.8-0.7,2.2s-0.8,0.6-1.6,0.7H9
								l-0.3-1c0.8,0,1.6,0,2.4,0s1.3-0.3,1.5-1c0.2-0.7,0.4-2.1,0.5-4.3H9.4C9-18.4,8.6-17.1,8-16.2c-0.7,1-1.7,1.9-3.1,2.6
								l-0.6-0.8c1.3-0.7,2.2-1.5,2.8-2.3c0.6-0.8,1-1.9,1.3-3.2C8.4-19.9,5.6-19.9,5.6-19.9z M12.1-26.3c0.8,2.1,2.2,3.8,4.3,5.1
								l-0.7,0.8c-2.1-1.4-3.6-3.2-4.5-5.4L12.1-26.3z"/>
							<path class="st4" d="M20.9-13.6h-1v-7.2c-0.5,1.4-1.1,2.7-1.9,3.9L17.6-18c1.1-1.4,1.8-2.9,2.3-4.7h-2v-1h2v-2.7h1v2.7h1.9v1
								h-1.9v0.8c0.7,0.7,1.4,1.5,2,2.3l-0.5,0.8c-0.5-0.8-1-1.5-1.5-2.1V-13.6z M29.9-25.5c-1.6,0.6-3.4,0.9-5.3,1v2.5h5.7v1h-2.1
								v7.4h-1V-21h-2.6v0.2c-0.1,3-0.8,5.4-2.1,7.1l-0.7-0.7c1.2-1.5,1.8-3.7,1.9-6.4v-4.5c2.1-0.1,4.1-0.4,5.8-1L29.9-25.5z"/>
							<path class="st4" d="M38.4-26.5c0.3,0.4,0.5,0.9,0.7,1.5h5.1v1H33.9v3.1c-0.1,3.1-0.5,5.6-1.4,7.4l-0.8-0.7
								c0.8-1.6,1.2-3.8,1.2-6.7V-25H38c-0.2-0.4-0.5-0.9-0.8-1.3L38.4-26.5z M34.1-15.2H40c0.9-2,1.6-4.5,2.3-7.4l1,0.3
								c-0.6,2.7-1.3,5.1-2.2,7.1h3v1h-9.9L34.1-15.2L34.1-15.2z M35.7-21.9c0.5,1.5,1.1,3.2,1.5,5.1l-1,0.2
								c-0.4-1.8-0.9-3.5-1.4-5.1L35.7-21.9z M38.4-22.9c0.5,1.5,0.9,3.3,1.3,5.3l-1,0.2c-0.3-1.8-0.7-3.6-1.2-5.2L38.4-22.9z"/>
							<path class="st4" d="M47.9-18.2c-0.2,1.8-0.7,3.3-1.6,4.5l-0.8-0.7c0.9-1.2,1.4-2.8,1.4-4.7v-6.7h10.4v10.5
								c0,1-0.5,1.5-1.5,1.5h-1.6l-0.3-1c0.7,0,1.3,0.1,1.6,0.1c0.5,0,0.8-0.3,0.8-0.9V-18h-3.8v4.1h-1V-18h-3.6
								C47.9-18,47.9-18.2,47.9-18.2z M51.5-24.9H48v2.4h3.6L51.5-24.9L51.5-24.9z M48-21.6v2.5h3.6v-2.5H48z M56.4-22.5v-2.4h-3.8
								v2.4H56.4z M56.4-19.1v-2.5h-3.8v2.5H56.4z"/>
						</g>
					</g>
				</g>
			</g>
			<g id="middlegroup" transform="translate(0,0)">
				<g id="Link25" transform="translate(0,0)">
					<rect x="585" y="130" class="st5" width="27.5" height="1"/>
					<g transform="translate(0.5, 0)">
						<polygon class="st5" points="607.5,135 613.5,130.5 607.5,126 						"/>
					</g>
					<rect x="585" y="123" class="st6" width="27.5" height="15"/>
				</g>
				<g id="Link24" transform="translate(0,0)">
					<rect x="349.5" y="130" class="st5" width="69.5" height="1"/>
					<g transform="translate(0.5, 0)">
						<polygon class="st5" points="414,135 420,130.5 414,126 						"/>
					</g>
				</g>
				<g id="Link27" transform="translate(0,0)">
					<rect x="127" y="130" class="st5" width="65.5" height="1"/>
					<g transform="translate(0.5, 0)">
						<polygon class="st5" points="187.5,135 193.5,130.5 187.5,126 						"/>
					</g>
					<rect x="127" y="123" class="st6" width="65.5" height="15"/>
				</g>
			</g>
			<g id="maingroup" transform="translate(0,0)">
				<g id="ShadowBasicRect4" transform="translate(414.5078125,134.5)">
					<rect x="11.5" y="-27" class="st7" width="161" height="50"/>
					<g>
						<rect x="9.5" y="-29" class="st8" width="161" height="50"/>
						<path class="st9" d="M171,21.5H9v-51h162V21.5z M10,20.5h160v-49H10V20.5z"/>
					</g>
					<g transform="translate(20 9)">
						<path class="st10" d="M9.5-21.5c-1.1,0-2-0.9-2-2s0.9-2,2-2c0.7,0,1.4,0.4,1.7,1h23.3h2v2v15h-2v-15H11.2
							C10.9-21.9,10.2-21.5,9.5-21.5z M35.5-3.5c-0.7,0-1.4,0.4-1.7,1H10.5v-15h-2v17h1h1h23.3c0.3,0.6,1,1,1.7,1c1.1,0,2-0.9,2-2
							S36.6-3.5,35.5-3.5z M22.5-16.5l7,4v8h-14v-8L22.5-16.5z M27.5-11.3l-5-2.9l-5,2.9v4.8h10V-11.3z M31.5-15.5l-9-5l-9,5v2.4
							l9-5l9,5V-15.5z"/>
						<g transform="translate(20 9)">
							<g class="st3">
								<path class="st4" d="M36.6-26.1c0.6,0.5,0.9,1.2,1,2.1h-1c-0.1-0.6-0.4-1.1-0.8-1.5s-1-0.5-1.7-0.5s-1.2,0.1-1.6,0.3
									c-0.4,0.3-0.6,0.6-0.6,1.1s0.3,0.8,0.8,1.1c0.2,0.1,0.8,0.3,1.7,0.6c1.2,0.4,2,0.6,2.3,0.9c0.7,0.5,1.1,1.1,1.1,1.9
									s-0.3,1.4-0.9,1.9c-0.6,0.4-1.5,0.7-2.6,0.7s-1.9-0.2-2.5-0.7c-0.7-0.5-1.1-1.4-1.2-2.5h1c0.1,0.8,0.4,1.4,0.8,1.7
									c0.4,0.3,1,0.5,1.8,0.5c0.7,0,1.3-0.1,1.8-0.4s0.7-0.7,0.7-1.1c0-0.6-0.3-1-0.9-1.3c-0.2-0.1-0.9-0.4-1.9-0.7
									c-1.1-0.3-1.8-0.6-2.1-0.7c-0.7-0.4-1-1-1-1.7c0-0.8,0.3-1.4,1-1.8c0.6-0.4,1.4-0.6,2.3-0.6C35.2-26.8,36-26.6,36.6-26.1z"
									/>
								<path class="st4" d="M44.5-21.6v4h-1v-3.9c0-1.3-0.6-1.9-1.7-1.9c-0.5,0-0.8,0.2-1.2,0.5c-0.3,0.3-0.5,0.8-0.6,1.4v3.9h-1
									v-6.5h1v1c0.2-0.4,0.5-0.6,0.9-0.8c0.4-0.2,0.7-0.3,1.2-0.3C43.7-24.3,44.5-23.4,44.5-21.6z"/>
								<path class="st4" d="M51.3-23.3c0.6,0.6,0.8,1.5,0.8,2.4c0,1-0.3,1.8-0.8,2.4c-0.6,0.7-1.4,1-2.3,1c-1,0-1.8-0.3-2.3-1
									c-0.6-0.6-0.8-1.4-0.8-2.4s0.3-1.8,0.8-2.4c0.6-0.7,1.4-1,2.3-1S50.7-24,51.3-23.3z M47.3-22.7c-0.3,0.5-0.5,1.1-0.5,1.8
									c0,0.7,0.2,1.3,0.5,1.8c0.4,0.5,0.9,0.8,1.6,0.8c0.7,0,1.2-0.3,1.6-0.8c0.3-0.5,0.5-1.1,0.5-1.8c0-0.7-0.2-1.3-0.5-1.8
									c-0.4-0.5-0.9-0.8-1.6-0.8C48.3-23.5,47.7-23.2,47.3-22.7z"/>
								<path class="st4" d="M52.7-24.1h1.1l1.9,5.3l1.9-5.3h1.1l-2.5,6.5h-1L52.7-24.1z"/>
								<path class="st4" d="M64.4-23.6c0.4,0.4,0.6,1,0.6,1.8v4.2h-0.9v-1.1c-0.3,0.4-0.6,0.7-1,0.9c-0.5,0.3-1,0.4-1.6,0.4
									c-0.7,0-1.2-0.2-1.6-0.5c-0.4-0.3-0.6-0.8-0.6-1.4c0-0.8,0.3-1.4,1-1.8c0.5-0.3,1.3-0.5,2.2-0.5h1.6v-0.2
									c0-1.1-0.6-1.6-1.7-1.6c-0.5,0-0.9,0.1-1.2,0.3c-0.3,0.2-0.5,0.6-0.6,1h-1c0.1-0.7,0.4-1.3,1-1.7c0.5-0.3,1.1-0.5,1.9-0.5
									C63.3-24.3,64-24.1,64.4-23.6z M64-20.8h-1.5c-1.5,0-2.2,0.5-2.2,1.5c0,0.3,0.1,0.6,0.4,0.8c0.2,0.2,0.6,0.3,1,0.3
									c0.7,0,1.2-0.2,1.7-0.6c0.4-0.4,0.7-0.9,0.7-1.4L64-20.8L64-20.8z"/>
								<path class="st4" d="M69.6-22l-0.3,0.7H72v0.8c-0.3,0.8-0.7,1.5-1.4,2.1c0.6,0.3,1.2,0.5,1.7,0.8l-0.5,0.7
									c-0.6-0.3-1.2-0.7-1.9-1c-0.9,0.6-1.9,1-3.2,1.4l-0.4-0.8c1.1-0.3,1.9-0.6,2.7-1L67.2-19c0.4-0.6,0.6-1.1,0.9-1.6h-1.5v-0.8
									h1.9c0.2-0.6,0.3-0.9,0.3-0.8L69.6-22z M66.6-25.5h2.5v-2.4H70v2.4h2.3v0.8H70v0.1c0.7,0.3,1.4,0.7,2.1,1.2l-0.5,0.7
									c-0.6-0.5-1.2-0.9-1.6-1.2v1.6h-0.8v-2.4c-0.4,1-1.2,1.8-2.3,2.6l-0.4-0.7c1-0.6,1.7-1.2,2-1.9h-1.8L66.6-25.5L66.6-25.5z
									 M67.6-27.7c0.3,0.5,0.6,1,0.8,1.6l-0.7,0.3c-0.3-0.6-0.5-1.1-0.9-1.6L67.6-27.7z M71.2-20.5H69c-0.2,0.4-0.4,0.8-0.7,1.2
									c0.5,0.2,1,0.4,1.4,0.5C70.4-19.2,70.9-19.8,71.2-20.5z M72.1-27.4c-0.3,0.6-0.6,1.1-1,1.6l-0.7-0.4
									c0.4-0.6,0.7-1.1,0.9-1.6L72.1-27.4z M73.5-23.1c-0.2,0.6-0.5,1.1-0.7,1.6l-0.6-0.7c0.7-1.4,1.3-3.3,1.5-5.7l0.9,0.2
									c-0.1,0.5-0.2,1.1-0.3,1.8h3.3v0.9h-0.8c-0.1,2.1-0.4,3.9-1.1,5.4c0.7,1.1,1.4,2,2.3,2.6l-0.5,0.8c-0.9-0.6-1.6-1.4-2.3-2.5
									c-0.6,1-1.4,1.9-2.3,2.5L72.4-17c1-0.7,1.8-1.6,2.3-2.6C74.3-20.7,73.8-21.9,73.5-23.1z M74.1-25.1
									c-0.1,0.3-0.1,0.5-0.2,0.7c0.3,1.4,0.7,2.7,1.2,3.8c0.5-1.3,0.8-2.8,0.8-4.4h-1.8V-25.1z"/>
								<path class="st4" d="M79.4-16.5l-0.2-0.9c0.4,0,0.7,0.1,1,0.1s0.5-0.2,0.5-0.6V-21c-0.6,0.2-1.1,0.4-1.5,0.5L79-21.3
									c0.6-0.1,1.1-0.3,1.7-0.5v-2.9h-1.5v-0.9h1.5V-28h0.9v2.4h1.2v0.9h-1.2v2.5c0.4-0.2,0.8-0.4,1.2-0.6v0.9
									c-0.3,0.1-0.7,0.3-1.2,0.6v3.7c0,0.7-0.4,1.1-1.1,1.1C80.5-16.5,79.4-16.5,79.4-16.5z M84.3-22.1c-0.2,2.2-0.6,4.1-1.5,5.7
									L82.1-17c0.9-1.7,1.3-3.8,1.4-6.5v-4h6.7v3.1h-2.4v1.5h2.7v0.8h-2.7v1.6h2.1v4.1H89V-17h-3.4v0.6h-0.8v-4.1h2.1v-1.6H84.3z
									 M86.9-24.4h-2.5v1.5h2.5V-24.4z M89.2-26.6h-4.9v1.4h4.9V-26.6z M85.6-17.8H89v-1.9h-3.4V-17.8z"/>
								<path class="st4" d="M97.7-27.9c1.6,1.9,3.4,3.4,5.5,4.5l-0.5,0.8c-2.1-1.1-3.9-2.6-5.3-4.5c-1.4,1.7-3.2,3.2-5.4,4.5
									l-0.5-0.8c2.2-1.2,4-2.7,5.5-4.5H97.7z M99.6-22.6h-4.4v4.4c0,0.5,0.3,0.7,0.8,0.7h3.7c0.7,0,1.2-0.1,1.3-0.4
									c0.2-0.3,0.3-0.8,0.4-1.7l0.8,0.3c-0.1,1.2-0.3,2-0.7,2.3c-0.3,0.2-0.9,0.4-1.7,0.4h-4.3c-0.9,0-1.4-0.4-1.4-1.3v-5.5h6.3
									v2.9c0,0.8-0.4,1.2-1.1,1.2c-0.6,0-1.2,0-1.8,0l-0.2-0.9c0.6,0.1,1.2,0.1,1.7,0.1c0.3,0,0.5-0.2,0.5-0.7L99.6-22.6
									L99.6-22.6z"/>
								<path class="st4" d="M110.4-28c0.2,0.4,0.5,0.8,0.6,1.2h4.5v0.9h-9.4v2.9c-0.1,2.8-0.5,5-1.3,6.7l-0.7-0.7
									c0.7-1.4,1.1-3.5,1.1-6v-3.8h4.7c-0.2-0.4-0.4-0.7-0.7-1L110.4-28z M110.5-25.4c-0.1,0.2-0.2,0.6-0.3,1h4.9v0.8h-5.2
									c-0.4,0.8-0.7,1.5-1.1,2.2h2.4v-1.5h0.9v1.5h2.8v0.8H112v1.4h3.8v0.8H112v2h-0.9v-2h-4.6v-0.8h4.6v-1.4h-3.3l-0.2-0.8
									c0.5-0.6,0.9-1.3,1.3-2.2H107v-0.8h2.2c0.1-0.4,0.3-0.8,0.4-1.2L110.5-25.4z"/>
							</g>
						</g>
					</g>
				</g>
				<g id="ShadowBasicRect8" transform="translate(632,112)">
					<rect x="5" y="-27" class="st7" width="176" height="50"/>
					<g>
						<rect x="3" y="-29" class="st8" width="176" height="50"/>
						<path class="st9" d="M179.5,21.5H2.5v-51h177V21.5z M3.5,20.5h175v-49H3.5V20.5z"/>
					</g>
					<g transform="translate(20 9)">
						<g>
							<title  xmlns="http://www.w3.org/2000/svg">Product Icons【32】</title>
							<g id="_编组_">
								<path id="_复合路径_" class="st10" d="M32,0c-0.7,0-1.4-0.4-1.7-1H5v-17h2v15h23.3c0.6-1,1.8-1.3,2.7-0.7
									C34-3.2,34.3-2,33.8-1C33.4-0.4,32.7,0,32,0z M17.9-17.9c1.6-2.3,4.7-2.8,7-1.2s2.8,4.7,1.2,7c-0.8,1.2-2.1,1.9-3.5,2.1
									c-1,3.2-4.4,5-7.6,4s-5-4.4-4-7.6C12-16.7,14.9-18.4,17.9-17.9z M19-15c0,1.3,0.8,2.4,2,2.8c-0.1-1.3-0.8-2.6-1.9-3.2
									C19-15.3,19-15.1,19-15z M25-15c0-1.7-1.3-3-3-3c-0.7,0-1.5,0.3-2,0.8c1.8,1,2.9,2.9,3,5C24.2-12.6,25-13.7,25-15z M13-12
									c0,2.2,1.8,4,4,4c1.5,0,2.9-0.9,3.6-2.2c-2.5-0.7-4-3.2-3.5-5.8H17C14.8-16,13-14.2,13-12z M31-23H7.7C7.2-22,6-21.7,5-22.3
									C4-22.8,3.7-24,4.3-25S6-26.3,7-25.7c0.3,0.2,0.6,0.4,0.7,0.7H33v17h-2V-23z"/>
							</g>
						</g>
						<g class="st3">
							<path class="st4" d="M52.1-19.6c0.2,0.5,0.4,0.9,0.5,1.3h5.6v1h-3c-0.2,0.6-0.5,1.1-0.8,1.7h3.1v7.5c0,1-0.4,1.5-1.2,1.5
								h-1.4l-0.3-0.9H56c0.4,0,0.6-0.3,0.6-0.8v-6.4h-9v8h-1v-8.9h3c-0.2-0.6-0.4-1.1-0.7-1.7H46v-1h5.7c-0.2-0.4-0.3-0.8-0.5-1.1
								L52.1-19.6z M51.3-13.8c-0.8,1-1.8,1.8-3,2.5l-0.6-0.8c1.1-0.6,2.1-1.4,2.9-2.3L51.3-13.8z M49.4-11.8h5.2v3.4h-5.2V-11.8z
								 M53.3-15.6c0.3-0.6,0.6-1.1,0.8-1.7h-4.2c0.2,0.5,0.4,1,0.7,1.7C50.6-15.6,53.3-15.6,53.3-15.6z M53.6-9.2v-1.6h-3.3v1.6
								H53.6z M53.4-14.5c1.2,0.8,2.1,1.6,2.9,2.4l-0.8,0.7c-0.7-0.8-1.7-1.6-2.8-2.5L53.4-14.5z"/>
							<path class="st4" d="M64-19.3h1v11.1h2v-11.1h1v11.1h4.2v1H59.8v-1H64V-19.3z M61-16.8c0.7,1.9,1.4,4.1,2,6.5L62-10
								c-0.5-2.2-1.1-4.4-1.9-6.5L61-16.8z M71.8-16.5c-0.6,2.4-1.3,4.6-2.1,6.4l-0.9-0.3c0.8-1.7,1.5-3.8,2.1-6.3L71.8-16.5z"/>
							<path class="st4" d="M75.6-17.5c-0.3,0.5-0.7,1-1.1,1.3L73.9-17c0.7-0.6,1.2-1.5,1.7-2.6l0.9,0.2c-0.1,0.3-0.2,0.6-0.4,0.9h4
								v0.9H78c0,0.5-0.1,0.9-0.1,1.4h2.6v0.9h-2.8c-0.1,0.2-0.1,0.3-0.1,0.4c1.1,0.5,2,1.1,2.7,1.6l-0.7,0.7
								c-0.6-0.5-1.3-1.1-2.3-1.6c-0.6,1-1.5,1.8-2.9,2.4l-0.7-0.8c1.4-0.6,2.4-1.4,2.9-2.4l0.1-0.3h-2.8v-0.9H77
								c0.1-0.4,0.1-0.8,0.2-1.4h-1.6V-17.5z M84.7-12.4v5.8h-1v-0.6h-6.9v0.6h-1v-5.8H84.7z M76.7-10.2h6.9v-1.3h-6.9V-10.2z
								 M76.7-8.1h6.9v-1.2h-6.9V-8.1z M81.1-18.5h4.6v5.1h-4.6V-18.5z M84.7-14.3v-3.3h-2.6v3.3H84.7z"/>
							<path class="st4" d="M92.7-18.4c0.9,1.2,1.5,2.2,2,3l-0.8,0.6c-0.1-0.3-0.3-0.6-0.5-0.9c-1.4,0.2-3.2,0.4-5.4,0.5L87.7-16
								c0.2,0,0.3-0.1,0.5-0.3c0.9-0.9,1.6-1.9,2.2-3l1,0.3c-0.7,1.3-1.4,2.2-2.1,2.9c1.2-0.1,2.5-0.2,3.7-0.3c-0.3-0.5-0.6-1-1-1.4
								L92.7-18.4z M89.5-9.2v2.7h-1v-7.9h5.2v6.6c0,0.8-0.4,1.2-1.2,1.2h-1.2l-0.3-1h1.1c0.4,0,0.5-0.2,0.5-0.5v-1.1H89.5z
								 M92.8-12.2v-1.3h-3.3v1.3H92.8z M89.5-11.4v1.3h3.3v-1.3H89.5z M96.3-13.4c-0.9,0-1.3-0.5-1.3-1.4v-4.7h1v1.9
								c1.5-0.2,2.8-0.5,3.8-0.7l0.3,0.9c-1.2,0.3-2.6,0.6-4.1,0.8v1.7c0,0.5,0.2,0.7,0.6,0.7h1.8c0.3,0,0.5-0.1,0.6-0.2
								c0.1-0.2,0.2-0.7,0.3-1.6l0.9,0.3c-0.1,1.1-0.3,1.8-0.5,2.1c-0.2,0.2-0.6,0.3-1.1,0.3L96.3-13.4L96.3-13.4z M96-8.2
								c0,0.3,0.2,0.5,0.5,0.5h1.8c0.3,0,0.5-0.1,0.6-0.2c0.1-0.2,0.2-0.7,0.3-1.6l0.9,0.3c-0.1,1.1-0.3,1.8-0.5,2.1
								c-0.2,0.2-0.6,0.3-1.1,0.3h-2.3C95.5-6.8,95-7.2,95-8v-4.8h1v1.7c1.4-0.1,2.7-0.4,3.8-0.7l0.3,0.9c-1.2,0.4-2.6,0.6-4.1,0.7
								C96-10.2,96-8.2,96-8.2z"/>
							<path class="st4" d="M106.9-18.7c-0.7,1.2-1.3,2.2-2,2.9c-0.7,0.8-1.6,1.6-2.8,2.4l-0.5-0.9c1-0.6,1.8-1.3,2.6-2.2
								c0.7-0.8,1.3-1.7,1.9-2.8L106.9-18.7z M103.6-12.9v-1h8.5c0,1.7-0.1,3.1-0.3,4.3c-0.1,1.1-0.4,1.8-0.7,2.2
								c-0.3,0.4-0.8,0.6-1.6,0.7H107l-0.3-1c0.8,0,1.6,0,2.4,0s1.3-0.3,1.5-1s0.4-2.1,0.5-4.3h-3.7c-0.3,1.5-0.8,2.8-1.4,3.7
								c-0.7,1-1.7,1.9-3.1,2.6l-0.6-0.8c1.3-0.7,2.2-1.5,2.8-2.3c0.6-0.8,1-1.9,1.3-3.2h-2.8C103.6-13,103.6-12.9,103.6-12.9z
								 M110.1-19.3c0.8,2.1,2.2,3.8,4.3,5.1l-0.7,0.8c-2.1-1.4-3.6-3.2-4.5-5.4L110.1-19.3z"/>
							<path class="st4" d="M118.9-6.6h-1v-7.2c-0.5,1.4-1.1,2.7-1.9,3.9l-0.4-1.1c1.1-1.4,1.8-2.9,2.3-4.7h-2v-1h2v-2.7h1v2.7h1.9
								v1h-1.9v0.8c0.7,0.7,1.4,1.5,2,2.3l-0.5,0.8c-0.5-0.8-1-1.5-1.5-2.1V-6.6z M127.9-18.5c-1.6,0.6-3.4,0.9-5.3,1v2.5h5.7v1
								h-2.1v7.4h-1V-14h-2.6v0.2c-0.1,3-0.8,5.4-2.1,7.1l-0.7-0.7c1.2-1.5,1.8-3.7,1.9-6.4v-4.5c2.1-0.1,4.1-0.4,5.8-1L127.9-18.5z
								"/>
							<path class="st4" d="M130-18h4.5c0.9,0,1.7,0.2,2.2,0.7c0.5,0.4,0.8,1.1,0.8,1.8c0,0.6-0.1,1-0.4,1.5
								c-0.3,0.4-0.7,0.6-1.2,0.8c0.6,0.1,1.2,0.4,1.5,0.8c0.4,0.4,0.6,1,0.6,1.6c0,1-0.3,1.7-1,2.2c-0.6,0.4-1.4,0.6-2.4,0.6H130
								V-18z M131.2-17v3.4h3c0.7,0,1.2-0.1,1.6-0.4c0.4-0.3,0.6-0.7,0.6-1.3s-0.2-1-0.5-1.3c-0.4-0.3-0.9-0.4-1.6-0.4H131.2z
								 M131.2-12.7V-9h3.2c0.7,0,1.2-0.1,1.7-0.4c0.5-0.3,0.7-0.8,0.7-1.4c0-0.6-0.2-1.1-0.6-1.4c-0.4-0.3-1-0.4-1.8-0.4h-3.2
								L131.2-12.7L131.2-12.7z"/>
							<path class="st4" d="M139.6-18h1.1v10h-1.1V-18z"/>
						</g>
					</g>
				</g>
				<g id="ShadowBasicRect10" transform="translate(632,180)">
					<rect x="5" y="-27" class="st7" width="176" height="50"/>
					<g>
						<rect x="3" y="-29" class="st8" width="176" height="50"/>
						<path class="st9" d="M179.5,21.5H2.5v-51h177V21.5z M3.5,20.5h175v-49H3.5V20.5z"/>
					</g>
					<g transform="translate(60.89665222167969,9)">
						<g class="st3">
							<path class="st4" d="M8-19.3h1v11.1h2v-11.1h1v11.1h4.2v1H3.8v-1H8V-19.3z M5-16.8c0.7,1.9,1.4,4.1,2,6.5L6-10
								c-0.5-2.2-1.1-4.4-1.9-6.5L5-16.8z M15.8-16.5c-0.6,2.4-1.3,4.6-2.1,6.4l-0.9-0.3c0.8-1.7,1.5-3.8,2.1-6.3L15.8-16.5z"/>
							<path class="st4" d="M22.8-19.3c-0.1,0.3-0.3,0.7-0.5,1.1h6.1v0.8c-0.9,1-2,1.9-3.3,2.6c1.6,0.7,3.4,1.1,5.3,1.3L30-12.6
								c-2.2-0.3-4.2-0.8-5.9-1.7c-1.7,0.8-3.7,1.4-6,1.7l-0.5-1c2-0.3,3.8-0.7,5.3-1.3c-0.8-0.4-1.5-1-2.2-1.6
								c-0.6,0.5-1.1,0.9-1.8,1.3L18.3-16c1.7-1,2.8-2.2,3.4-3.5L22.8-19.3z M24.2-13.2c0,0.5,0,1-0.1,1.6H29c0,2.4-0.2,3.8-0.6,4.2
								c-0.4,0.5-1.1,0.7-2.1,0.7c-0.2,0-0.8,0-1.6-0.1l-0.3-0.9L26-7.6c0.8,0,1.4-0.2,1.6-0.5c0.2-0.3,0.3-1.2,0.4-2.6h-4.1
								c-0.1,0.3-0.3,0.7-0.4,1c-0.7,1.3-2.4,2.3-4.9,3.1l-0.7-0.8c2.3-0.7,3.8-1.5,4.5-2.5c0.2-0.3,0.3-0.6,0.4-0.8h-4.2v-0.9H23
								c0.1-0.5,0.2-1,0.2-1.6C23.2-13.2,24.2-13.2,24.2-13.2z M27-17.3h-5.3l-0.2,0.2c0.8,0.7,1.6,1.3,2.6,1.8
								C25.1-15.9,26.1-16.5,27-17.3z"/>
							<path class="st4" d="M38.4-19.5c0.3,0.4,0.5,0.9,0.7,1.5h5.1v1H33.9v3.1c-0.1,3.1-0.5,5.6-1.4,7.4l-0.8-0.7
								c0.8-1.6,1.2-3.8,1.2-6.7V-18H38c-0.2-0.4-0.5-0.9-0.8-1.3L38.4-19.5z M34.1-8.2H40c0.9-2,1.6-4.5,2.3-7.4l1,0.3
								c-0.6,2.7-1.3,5.1-2.2,7.1h3v1h-9.9L34.1-8.2L34.1-8.2z M35.7-14.9c0.5,1.5,1.1,3.2,1.5,5.1l-1,0.2c-0.4-1.8-0.9-3.5-1.4-5.1
								L35.7-14.9z M38.4-15.9c0.5,1.5,0.9,3.3,1.3,5.3l-1,0.2c-0.3-1.8-0.7-3.6-1.2-5.2L38.4-15.9z"/>
							<path class="st4" d="M47.9-11.2c-0.2,1.8-0.7,3.3-1.6,4.5l-0.8-0.7c0.9-1.2,1.4-2.8,1.4-4.7v-6.7h10.4v10.5
								c0,1-0.5,1.5-1.5,1.5h-1.6l-0.3-1c0.7,0,1.3,0.1,1.6,0.1c0.5,0,0.8-0.3,0.8-0.9V-11h-3.8v4.1h-1V-11h-3.6
								C47.9-11,47.9-11.2,47.9-11.2z M51.5-17.9H48v2.4h3.6L51.5-17.9L51.5-17.9z M48-14.6v2.5h3.6v-2.5H48z M56.4-15.5v-2.4h-3.8
								v2.4H56.4z M56.4-12.1v-2.5h-3.8v2.5H56.4z"/>
						</g>
					</g>
				</g>
				<g id="RectEndPoint22" transform="translate(218.496875,205)">
					<rect x="-2" y="-27" class="st7" width="118.2" height="50"/>
					<g>
						<rect x="-4" y="-29" class="st8" width="118.2" height="50"/>
						<path class="st9" d="M114.7,21.5H-4.5v-51h119.2V21.5z M-3.5,20.5h117.2v-49H-3.5V20.5z"/>
					</g>
					<g transform="translate(20 9)">
						<g class="st3">
							<path class="st4" d="M-3-18h4.1c2.3,0,3.4,1,3.4,2.9c0,2-1.2,3-3.5,3h-2.9V-8H-3V-18z M-1.8-17v3.9H1c0.8,0,1.4-0.2,1.8-0.5
								s0.6-0.8,0.6-1.5s-0.2-1.2-0.6-1.5C2.4-16.8,1.8-17,1-17H-1.8z"/>
							<path class="st4" d="M11.7-14.3c0.6,0.7,0.9,1.6,0.9,2.7s-0.3,2-0.9,2.7C11-8.2,10.2-7.8,9.1-7.8s-2-0.4-2.6-1.1
								s-0.9-1.6-0.9-2.7s0.3-2,0.9-2.7s1.5-1.1,2.6-1.1S11-15.1,11.7-14.3z M7.3-13.6c-0.4,0.5-0.6,1.2-0.6,2s0.2,1.5,0.6,2
								c0.4,0.6,1,0.9,1.8,0.9s1.4-0.3,1.8-0.9c0.4-0.5,0.6-1.2,0.6-2s-0.2-1.5-0.6-2c-0.4-0.6-1.1-0.9-1.8-0.9
								C8.3-14.5,7.7-14.2,7.3-13.6z"/>
							<path class="st4" d="M19.6-13.2h-1.1c-0.1-0.5-0.3-0.8-0.6-1c-0.3-0.2-0.8-0.3-1.3-0.3s-0.9,0.1-1.2,0.3S15-13.8,15-13.5
								s0.2,0.6,0.6,0.8c0.2,0.1,0.7,0.3,1.5,0.5c0.9,0.2,1.5,0.4,1.9,0.7c0.6,0.4,0.9,0.9,0.9,1.5c0,1.5-1,2.2-3.1,2.2
								c-1.9,0-2.9-0.8-3.1-2.5h1.1c0.1,0.6,0.3,1,0.6,1.2s0.8,0.3,1.4,0.3c1.3,0,1.9-0.4,1.9-1.2c0-0.4-0.2-0.7-0.7-0.9
								c-0.2-0.1-0.7-0.3-1.5-0.5c-0.9-0.2-1.5-0.4-1.8-0.6c-0.6-0.3-0.8-0.8-0.8-1.4c0-0.6,0.3-1.1,0.8-1.5s1.2-0.5,2-0.5
								C18.4-15.4,19.4-14.7,19.6-13.2z"/>
							<path class="st4" d="M23.1-17.6v2.3h1.8v0.9h-1.8v4.6c0,0.3,0.1,0.5,0.2,0.6S23.6-9,23.8-9h0.9v1h-1.1c-0.6,0-1-0.2-1.3-0.5
								C22.1-8.7,22-9.1,22-9.7v-4.6h-1.5v-0.9H22v-1.9L23.1-17.6z"/>
							<path class="st4" d="M31.5-14v-1.2h1.1v6.7c0,2.3-1.1,3.5-3.3,3.5c-1,0-1.7-0.2-2.2-0.6s-0.8-1-1-1.8h1.1
								c0.1,0.5,0.3,0.9,0.6,1.1c0.3,0.2,0.8,0.4,1.5,0.4c1.5,0,2.2-0.8,2.2-2.4v-1.3c-0.5,1-1.3,1.5-2.4,1.5c-1,0-1.8-0.3-2.4-1
								s-0.9-1.5-0.9-2.6s0.3-1.9,0.9-2.6c0.6-0.7,1.4-1.1,2.4-1.1C30.2-15.4,31-15,31.5-14z M27.6-13.7c-0.4,0.5-0.6,1.1-0.6,1.9
								c0,0.8,0.2,1.4,0.5,1.9c0.4,0.5,1,0.8,1.8,0.8c0.7,0,1.3-0.3,1.7-0.8c0.4-0.5,0.6-1.1,0.6-1.9c0-0.8-0.2-1.5-0.6-1.9
								c-0.4-0.5-1-0.8-1.7-0.8C28.5-14.5,28-14.2,27.6-13.7z"/>
							<path class="st4" d="M38.5-15.3v1.1c-0.3-0.1-0.7-0.2-1.1-0.2c-0.6,0-1,0.2-1.4,0.7s-0.6,1-0.6,1.7v4h-1.1v-7.2h1.1v1.3
								c0.2-0.4,0.4-0.8,0.8-1c0.4-0.3,0.8-0.5,1.3-0.5S38.3-15.4,38.5-15.3z"/>
							<path class="st4" d="M45.1-14.3c0.5,0.7,0.8,1.7,0.8,3h-5.7c0.1,0.8,0.3,1.5,0.7,1.9s0.9,0.7,1.6,0.7c0.6,0,1.1-0.1,1.4-0.4
								c0.3-0.2,0.5-0.6,0.7-1.1h1.1c-0.2,0.7-0.5,1.3-1,1.7c-0.6,0.5-1.4,0.8-2.3,0.8c-1,0-1.9-0.3-2.5-1s-1-1.6-1-2.8
								c0-1.1,0.3-2,0.9-2.7c0.6-0.8,1.4-1.1,2.5-1.1C43.6-15.4,44.5-15,45.1-14.3z M40.9-13.9c-0.4,0.4-0.6,1-0.7,1.7h4.5
								c-0.1-1.5-0.9-2.3-2.3-2.3C41.8-14.5,41.3-14.3,40.9-13.9z"/>
							<path class="st4" d="M53.4-17.4c0.7,0.5,1,1.3,1.1,2.4h-1.1c-0.1-0.7-0.4-1.3-0.8-1.6c-0.4-0.4-1.1-0.5-1.9-0.5
								c-0.8,0-1.3,0.1-1.7,0.4c-0.5,0.3-0.7,0.7-0.7,1.3c0,0.5,0.3,0.9,0.9,1.2c0.2,0.1,0.9,0.4,1.8,0.6c1.3,0.4,2.2,0.7,2.6,1
								c0.8,0.5,1.2,1.2,1.2,2.1c0,0.9-0.4,1.6-1.1,2.1C53-7.9,52-7.7,50.9-7.7c-1.2,0-2.1-0.3-2.8-0.8c-0.8-0.6-1.2-1.5-1.3-2.7H48
								c0.1,0.9,0.4,1.5,0.9,1.9s1.2,0.6,2,0.6s1.5-0.2,2-0.5s0.8-0.7,0.8-1.3s-0.3-1.1-1-1.5c-0.3-0.1-1-0.4-2.1-0.7
								c-1.2-0.4-1.9-0.6-2.3-0.8c-0.8-0.4-1.1-1.1-1.1-1.9c0-0.9,0.4-1.6,1.1-2c0.7-0.4,1.5-0.7,2.5-0.7
								C51.9-18.2,52.8-17.9,53.4-17.4z"/>
							<path class="st4" d="M64.2-16.7c0.8,1,1.2,2.2,1.2,3.7s-0.4,2.7-1.2,3.7l-0.1,0.1c0.3,0.4,0.7,0.9,1.1,1.6L64.5-7
								c-0.5-0.7-0.8-1.2-1.1-1.6c-0.8,0.5-1.7,0.8-2.7,0.8c-1.5,0-2.7-0.5-3.5-1.5C56.4-10.2,56-11.5,56-13s0.4-2.8,1.2-3.7
								c0.9-1,2.1-1.5,3.6-1.5S63.3-17.7,64.2-16.7z M57.9-16c-0.6,0.8-0.9,1.8-0.9,3s0.3,2.2,0.9,3c0.6,0.8,1.5,1.2,2.7,1.2
								c0.8,0,1.5-0.2,2.1-0.6c-0.6-0.7-1.1-1.4-1.7-2l0.7-0.7c0.6,0.7,1.2,1.3,1.7,1.9c0.6-0.7,0.8-1.7,0.8-2.9
								c0-1.3-0.3-2.3-0.9-3c-0.6-0.8-1.5-1.1-2.7-1.1C59.5-17.2,58.5-16.8,57.9-16z"/>
							<path class="st4" d="M67-18h1.1v9h5.8v1H67V-18z"/>
						</g>
					</g>
				</g>
				<g id="RectEndPoint20" transform="translate(218.7,144)">
					<rect x="-2" y="-27" class="st7" width="118" height="50"/>
					<g>
						<rect x="-4" y="-29" class="st8" width="118" height="50"/>
						<path class="st9" d="M114.5,21.5h-119v-51h119V21.5z M-3.5,20.5h117v-49h-117V20.5z"/>
					</g>
					<g transform="translate(37.8046875,9)">
						<g class="st3">
							<path class="st4" d="M4.9-16.7c0.8,1,1.2,2.2,1.2,3.7s-0.4,2.7-1.2,3.7C4-8.3,2.8-7.8,1.3-7.8s-2.7-0.5-3.5-1.5
								C-3-10.2-3.4-11.5-3.4-13s0.4-2.8,1.2-3.7c0.9-1,2.1-1.5,3.6-1.5S4.1-17.7,4.9-16.7z M-1.3-16c-0.6,0.8-0.9,1.8-0.9,3
								s0.3,2.2,0.9,3s1.5,1.2,2.7,1.2c1.1,0,2-0.4,2.7-1.1C4.7-10.7,5-11.7,5-13s-0.3-2.3-0.9-3c-0.6-0.8-1.5-1.1-2.7-1.1
								C0.2-17.2-0.7-16.8-1.3-16z"/>
							<path class="st4" d="M11.8-15.3v1.1c-0.3-0.1-0.7-0.2-1.1-0.2c-0.6,0-1,0.2-1.4,0.7s-0.6,1-0.6,1.7v4H7.6v-7.2h1.1v1.3
								c0.2-0.4,0.4-0.8,0.8-1c0.4-0.3,0.8-0.5,1.3-0.5C11.2-15.4,11.5-15.4,11.8-15.3z"/>
							<path class="st4" d="M18.2-14.6c0.4,0.5,0.6,1.1,0.6,2V-8h-1v-1.2c-0.3,0.4-0.7,0.7-1.1,1c-0.6,0.3-1.1,0.4-1.8,0.4
								S13.6-8,13.2-8.4c-0.4-0.4-0.7-0.9-0.7-1.5c0-0.9,0.4-1.6,1.1-2c0.6-0.4,1.4-0.5,2.4-0.5h1.7v-0.2c0-1.2-0.6-1.8-1.9-1.8
								c-0.6,0-1,0.1-1.4,0.4c-0.4,0.3-0.6,0.6-0.7,1.1h-1.1c0.1-0.8,0.5-1.4,1.1-1.8c0.5-0.4,1.2-0.6,2.2-0.6
								C16.9-15.4,17.7-15.2,18.2-14.6z M17.7-11.6H16c-1.6,0-2.4,0.6-2.4,1.7c0,0.4,0.1,0.6,0.4,0.9c0.3,0.2,0.6,0.3,1.1,0.3
								c0.7,0,1.3-0.2,1.9-0.7c0.5-0.4,0.7-1,0.7-1.6V-11.6z"/>
							<path class="st4" d="M25.8-14.8c0.5,0.4,0.9,1.1,1,2h-1.1c-0.1-0.6-0.3-1-0.7-1.3c-0.4-0.3-0.8-0.4-1.4-0.4
								c-0.7,0-1.3,0.3-1.7,0.8c-0.4,0.5-0.6,1.2-0.6,2.1s0.2,1.6,0.6,2.1s0.9,0.8,1.7,0.8c1.2,0,1.9-0.6,2.1-1.9h1.1
								c-0.2,0.9-0.5,1.6-1.1,2.1s-1.3,0.7-2.2,0.7c-1.1,0-1.9-0.4-2.5-1.1c-0.6-0.7-0.9-1.6-0.9-2.7s0.3-2,0.9-2.7
								c0.6-0.8,1.5-1.1,2.5-1.1C24.6-15.4,25.3-15.2,25.8-14.8z"/>
							<path class="st4" d="M28.4-18.2h1.1V-8h-1.1V-18.2z"/>
							<path class="st4" d="M37.1-14.3c0.5,0.7,0.8,1.7,0.8,3h-5.7c0.1,0.8,0.3,1.5,0.7,1.9s0.9,0.7,1.6,0.7c0.6,0,1.1-0.1,1.4-0.4
								c0.3-0.2,0.5-0.6,0.7-1.1h1.1c-0.2,0.7-0.5,1.3-1,1.7c-0.6,0.5-1.4,0.8-2.3,0.8c-1,0-1.9-0.3-2.5-1c-0.6-0.7-1-1.6-1-2.8
								c0-1.1,0.3-2,0.9-2.7c0.6-0.8,1.4-1.1,2.5-1.1C35.6-15.4,36.5-15,37.1-14.3z M32.9-13.9c-0.4,0.4-0.6,1-0.7,1.7h4.5
								c-0.1-1.5-0.9-2.3-2.3-2.3C33.9-14.5,33.3-14.3,32.9-13.9z"/>
						</g>
					</g>
				</g>
				<g id="RectEndPoint19" transform="translate(218.7,80)">
					<rect x="-2" y="-27" class="st7" width="118" height="50"/>
					<g>
						<rect x="-4" y="-29" class="st8" width="118" height="50"/>
						<path class="st9" d="M114.5,21.5h-119v-51h119V21.5z M-3.5,20.5h117v-49h-117V20.5z"/>
					</g>
					<g transform="translate(44.2265625,9)">
						<g class="st3">
							<path class="st4" d="M4.1-17.3c0.8,0.6,1.2,1.4,1.3,2.4h-1c-0.1-0.7-0.5-1.3-1.1-1.7c-0.5-0.4-1.2-0.6-2-0.6
								c-1.2,0-2.1,0.4-2.7,1.2c-0.6,0.8-0.9,1.8-0.9,3c0,1.3,0.3,2.2,0.9,3s1.5,1.2,2.7,1.2c0.8,0,1.5-0.2,2-0.6
								c0.6-0.5,1-1.1,1.2-2h1.1C5.4-10.3,4.9-9.3,4-8.7C3.3-8.1,2.3-7.8,1.3-7.8c-1.5,0-2.7-0.5-3.6-1.5c-0.7-1-1.1-2.2-1.1-3.7
								s0.4-2.7,1.1-3.7c0.8-1.1,2-1.6,3.6-1.6C2.4-18.2,3.4-17.9,4.1-17.3z"/>
							<path class="st4" d="M7.2-18h3.6c1.6,0,2.8,0.5,3.6,1.4c0.7,0.8,1.1,2.1,1.1,3.6s-0.4,2.7-1.2,3.6c-0.8,0.9-2,1.4-3.6,1.4
								H7.2V-18z M8.3-17v8h2.1c1.3,0,2.3-0.3,2.9-1c0.6-0.7,0.9-1.7,0.9-3s-0.3-2.3-0.9-3c-0.6-0.7-1.6-1-2.9-1H8.3z"/>
							<path class="st4" d="M17.1-18h4.5c0.9,0,1.7,0.2,2.2,0.7c0.5,0.4,0.8,1.1,0.8,1.8c0,0.6-0.2,1-0.4,1.5
								c-0.3,0.4-0.7,0.6-1.2,0.8c0.6,0.1,1.2,0.4,1.5,0.8c0.4,0.4,0.6,1,0.6,1.6c0,1-0.3,1.7-1,2.2C23.3-8.2,22.5-8,21.5-8h-4.4
								V-18z M18.2-17v3.4h3c0.7,0,1.2-0.1,1.6-0.4c0.4-0.3,0.6-0.7,0.6-1.3s-0.2-1-0.5-1.3C22.5-16.9,22-17,21.3-17H18.2z
								 M18.2-12.7V-9h3.2c0.7,0,1.2-0.1,1.7-0.4c0.5-0.3,0.7-0.8,0.7-1.4c0-0.6-0.2-1.1-0.6-1.4c-0.4-0.3-1-0.4-1.8-0.4h-3.2
								C18.2-12.6,18.2-12.7,18.2-12.7z"/>
						</g>
					</g>
				</g>
			</g>
			<g id="textgroup" transform="translate(0,0)">
				<g id="Textbasic28" transform="translate(360,134.5)">
					<g transform="translate(0 0)">
						<g class="st3">
							<path class="st11" d="M9.7-12.3l-0.2-0.9h1.6c0.3,0,0.5-0.2,0.5-0.5V-22H3.7v9.7H2.8v-10.5h9.6v9.3c0,0.8-0.3,1.2-1,1.2
								C11.4-12.3,9.7-12.3,9.7-12.3z M4.4-20.6h6.2v0.8H4.4V-20.6z M5.1-18.5h4.8v3.9H5.1V-18.5z M9.1-15.4v-2.3H5.9v2.3
								C5.9-15.4,9.1-15.4,9.1-15.4z"/>
							<path class="st11" d="M19.1-23.3H20v1.5h3.6v0.8H20v1.7h4.8v0.8H20v3.6h-0.9v-3.6h-5v-0.8H16v-3h0.9v3h2.2V-23.3z M17.7-17.5
								c-0.7,1.1-1.6,2.1-2.7,2.9l-0.5-0.7c1-0.8,1.9-1.7,2.6-2.8L17.7-17.5z M23.8-17.3c-1.5,3.3-4.4,5-8.7,5l-0.3-0.8
								c4.2,0,6.9-1.5,8.2-4.6L23.8-17.3z"/>
							<path class="st11" d="M31.1-21.6h-4.2v-0.8h9.3v0.8H32v7.9h4.7v0.8H26.3v-0.8h4.8C31.1-13.7,31.1-21.6,31.1-21.6z"/>
							<path class="st11" d="M47.1-22.8v7.3h1.7v0.8h-3.6c1.2,0.5,2.4,1,3.4,1.6l-0.5,0.7c-1.2-0.8-2.3-1.4-3.5-1.8l0.4-0.6h-3.4
								l0.6,0.5c-0.9,0.7-2.1,1.3-3.4,1.9L38.4-13c1.3-0.5,2.4-1.1,3.3-1.7h-3.5v-0.8h1.7v-7.3H47.1z M40.8-20.9h5.4V-22h-5.4V-20.9
								z M40.8-19.1h5.4v-1.1h-5.4V-19.1z M40.8-17.3h5.4v-1.1h-5.4V-17.3z M40.8-15.5h5.4v-1.1h-5.4V-15.5z"/>
						</g>
					</g>
				</g>
				<g id="Textbasic29" transform="translate(370,159)">
					<g transform="translate(0 0)">
						<g class="st3">
							<path class="st11" d="M4.4-19.6h6.1v0.9H5.4v2.9h4.8v0.9H5.4v3.1h5.3v0.9H4.4C4.4-10.9,4.4-19.6,4.4-19.6z"/>
							<path class="st11" d="M11.4-19.6h7v0.9h-3v7.7h-1v-7.7h-3V-19.6z"/>
							<path class="st11" d="M19.4-19.6h1v7.7h5v0.9h-5.9v-8.6C19.5-19.6,19.4-19.6,19.4-19.6z"/>
						</g>
					</g>
				</g>
			</g>
			<g>
				<path class="st10" d="M669,169v2h-2v-2H669 M671,167h-6v6h6V167L671,167z"/>
				<path class="st10" d="M677,169v2h-2v-2H677 M679,167h-6v6h6V167L679,167z"/>
				<path class="st10" d="M669,177v2h-2v-2H669 M671,175h-6v6h6V175L671,175z"/>
				<path class="st10" d="M677,177v2h-2v-2H677 M679,175h-6v6h6V175L679,175z"/>
				<path class="st10" d="M672,162c6.6,0,12,5.4,12,12s-5.4,12-12,12s-12-5.4-12-12S665.4,162,672,162 M672,160c-7.7,0-14,6.3-14,14
					s6.3,14,14,14s14-6.3,14-14S679.7,160,672,160L672,160z"/>
			</g>
		</g>
		<g id="DashRectGroup3_1_" transform="translate(2.9921875,68.5)">
			<path class="st2" d="M347.1,175.9h-1.5v-1h0.5v-3.5h1V175.9z M340.6,175.9h-5v-1h5V175.9z M330.6,175.9h-5v-1h5V175.9z
				 M320.6,175.9h-5v-1h5V175.9z M310.6,175.9h-5v-1h5V175.9z M300.6,175.9h-5v-1h5V175.9z M290.6,175.9h-5v-1h5V175.9z
				 M280.6,175.9h-5v-1h5V175.9z M270.6,175.9h-5v-1h5V175.9z M260.6,175.9h-5v-1h5V175.9z M250.6,175.9h-5v-1h5V175.9z
				 M240.6,175.9h-5v-1h5V175.9z M230.6,175.9h-5v-1h5V175.9z M220.6,175.9h-5v-1h5V175.9z M210.6,175.9h-5v-1h5V175.9z
				 M200.6,175.9h-5v-1h5V175.9z M195.4,171.1h-1v-5h1V171.1z M347.1,166.4h-1v-5h1V166.4z M195.4,161.1h-1v-5h1V161.1z
				 M347.1,156.4h-1v-5h1V156.4z M195.4,151.1h-1v-5h1V151.1z M347.1,146.4h-1v-5h1V146.4z M195.4,141.1h-1v-5h1V141.1z
				 M347.1,136.4h-1v-5h1V136.4z M195.4,131.1h-1v-5h1V131.1z M347.1,126.4h-1v-5h1V126.4z M195.4,121.1h-1v-5h1V121.1z
				 M347.1,116.4h-1v-5h1V116.4z M195.4,111.1h-1v-5h1V111.1z M347.1,106.4h-1v-5h1V106.4z M195.4,101.1h-1v-5h1V101.1z M347.1,96.4
				h-1v-5h1V96.4z M195.4,91.1h-1v-5h1V91.1z M347.1,86.4h-1v-5h1V86.4z M195.4,81.1h-1v-5h1V81.1z M347.1,76.4h-1v-5h1V76.4z
				 M195.4,71.1h-1v-5h1V71.1z M347.1,66.4h-1v-5h1V66.4z M195.4,61.1h-1v-5h1V61.1z M347.1,56.4h-1v-5h1V56.4z M195.4,51.1h-1v-5h1
				V51.1z M347.1,46.4h-1v-5h1V46.4z M195.4,41.1h-1v-5h1V41.1z M347.1,36.4h-1v-5h1V36.4z M195.4,31.1h-1v-5h1V31.1z M347.1,26.4
				h-1v-5h1V26.4z M195.4,21.1h-1v-5h1V21.1z M347.1,16.4h-1v-5h1V16.4z M195.4,11.1h-1v-5h1V11.1z M347.1,6.4h-1v-5h1V6.4z
				 M195.4,1.1h-1v-5h1V1.1z M347.1-3.6h-1v-5h1V-3.6z M195.4-8.9h-1v-5h1V-8.9z M347.1-13.6h-1v-5h1V-13.6z M195.4-18.9h-1v-5h1
				V-18.9z M347.1-23.6h-1v-5h1V-23.6z M195.4-28.9h-1v-5h1V-28.9z M347.1-33.6h-1v-5h1V-33.6z M195.4-38.9h-1v-5h1V-38.9z
				 M347.1-43.6h-1v-5h1V-43.6z M195.4-48.9h-1v-5h1V-48.9z M347.1-53.6h-1v-2.8h-1.2v-1h2.2V-53.6z M339.9-56.4h-5v-1h5V-56.4z
				 M329.9-56.4h-5v-1h5V-56.4z M319.9-56.4h-5v-1h5V-56.4z M309.9-56.4h-5v-1h5V-56.4z M299.9-56.4h-5v-1h5V-56.4z M289.9-56.4h-5
				v-1h5V-56.4z M279.9-56.4h-5v-1h5V-56.4z M269.9-56.4h-5v-1h5V-56.4z M259.9-56.4h-5v-1h5V-56.4z M249.9-56.4h-5v-1h5V-56.4z
				 M239.9-56.4h-5v-1h5V-56.4z M229.9-56.4h-5v-1h5V-56.4z M219.9-56.4h-5v-1h5V-56.4z M209.9-56.4h-5v-1h5V-56.4z M199.9-56.4h-5
				v-1h5V-56.4z"/>
			<g transform="translate(10 10)">
				<g class="st3">
					<path class="st4" d="M201.4-45.7c0.6,0.6,1.1,1.2,1.5,1.8c1.5-0.7,2.8-1.6,3.7-2.9h-4.1c-1.3,0.6-2.7,1-4.4,1.3l-0.6-0.9
						c3-0.3,5.3-1.2,6.8-2.8l0.9,0.5c-0.4,0.4-0.7,0.7-1.1,1h3.8v0.8c-2,3.3-5.7,5-11.1,5.1l-0.4-1c2.2,0,4.1-0.3,5.7-0.8
						c-0.5-0.7-1-1.2-1.5-1.7L201.4-45.7z M202.8-54c-0.3,0.3-0.5,0.5-0.8,0.8h4v0.8c-1.5,2.7-4.3,4.2-8.4,4.5l-0.4-0.9
						c1.3-0.1,2.4-0.3,3.4-0.6c-0.4-0.5-0.9-1-1.4-1.5l0.9-0.4c0.5,0.5,1,1,1.4,1.5c1.5-0.6,2.6-1.5,3.4-2.6h-4.1
						c-1.1,0.6-2.4,1.1-3.9,1.5l-0.6-0.9c2.5-0.5,4.4-1.4,5.6-2.7L202.8-54z"/>
					<path class="st4" d="M210.4-50.7c1,0.7,1.7,1.4,2.3,2.1L212-48c-0.6-0.7-1.4-1.4-2.3-2.1L210.4-50.7z M212.9-46.6
						c-0.7,1.8-1.4,3.5-2.1,5l-0.9-0.4c0.9-1.7,1.6-3.3,2.2-4.9L212.9-46.6z M210.6-54.2c1,0.7,1.8,1.4,2.5,2.1l-0.7,0.7
						c-0.6-0.7-1.5-1.4-2.5-2.2L210.6-54.2z M215.7-51.7h2c0.2-0.4,0.3-0.8,0.4-1.3h-3.4v4.1c-0.1,3-0.6,5.5-1.6,7.3l-0.8-0.7
						c0.9-1.6,1.3-3.8,1.4-6.6v-5h8.4v0.9H219c-0.1,0.4-0.2,0.9-0.4,1.3h2.7v4.9H219v4c0,0.8-0.4,1.1-1.1,1.1h-1.2l-0.2-0.9
						c0.4,0,0.8,0.1,1,0.1c0.3,0,0.5-0.2,0.5-0.5v-3.7h-2.4v-5H215.7z M217-45.6c-0.4,1.2-0.9,2.3-1.5,3.2l-0.8-0.5
						c0.7-0.9,1.1-1.9,1.4-2.9L217-45.6z M216.6-49.6h3.9v-1.3h-3.9V-49.6z M220.5-47.6v-1.3h-3.9v1.3H220.5z M220.8-45.8
						c0.6,1,1.1,2,1.5,3.1l-0.9,0.4c-0.4-1.1-0.9-2.2-1.5-3.2L220.8-45.8z"/>
					<path class="st4" d="M228-54.3h1v11.1h2v-11.1h1v11.1h4.2v1h-12.4v-1h4.2V-54.3z M225-51.8c0.7,1.9,1.4,4.1,2,6.5l-1,0.3
						c-0.5-2.2-1.1-4.4-1.9-6.5L225-51.8z M235.8-51.5c-0.6,2.4-1.3,4.6-2.1,6.4l-0.9-0.3c0.8-1.7,1.5-3.8,2.1-6.3L235.8-51.5z"/>
					<path class="st4" d="M242.8-54.3c-0.1,0.3-0.3,0.7-0.5,1.1h6.1v0.8c-0.9,1-2,1.9-3.3,2.6c1.6,0.7,3.4,1.1,5.3,1.3l-0.5,0.9
						c-2.2-0.3-4.2-0.8-5.9-1.7c-1.7,0.8-3.7,1.4-6,1.7l-0.5-1c2-0.3,3.8-0.7,5.3-1.3c-0.8-0.4-1.5-1-2.2-1.6
						c-0.6,0.5-1.1,0.9-1.8,1.3l-0.6-0.8c1.7-1,2.8-2.2,3.4-3.5L242.8-54.3z M244.2-48.3c0,0.5,0,1-0.1,1.6h4.9
						c0,2.4-0.2,3.8-0.6,4.2c-0.4,0.5-1.1,0.7-2.1,0.7c-0.2,0-0.8,0-1.6-0.1l-0.3-0.9l1.7,0.1c0.8,0,1.4-0.2,1.6-0.5
						c0.2-0.3,0.3-1.2,0.4-2.6H244c-0.1,0.3-0.3,0.7-0.4,1c-0.7,1.3-2.4,2.3-4.9,3.1l-0.7-0.8c2.3-0.7,3.8-1.5,4.5-2.5
						c0.2-0.3,0.3-0.6,0.4-0.8h-4.2v-0.9h4.5c0.1-0.5,0.2-1,0.2-1.6H244.2z M247-52.3h-5.3l-0.2,0.2c0.8,0.7,1.6,1.3,2.6,1.8
						C245.1-50.9,246.1-51.6,247-52.3z"/>
					<path class="st4" d="M255.2-47.8l-0.3,0.8h2.9v0.9c-0.3,0.9-0.8,1.7-1.5,2.4c0.7,0.3,1.3,0.6,1.9,0.9l-0.5,0.8
						c-0.6-0.4-1.4-0.7-2.1-1.1c-0.9,0.6-2.1,1.2-3.5,1.6l-0.5-0.9c1.2-0.3,2.1-0.7,2.9-1.1l-1.9-0.8c0.4-0.6,0.7-1.2,1-1.7H252
						v-0.9h2.1c0.2-0.7,0.3-0.9,0.3-0.9H255.2z M251.9-51.8h2.7v-2.7h0.9v2.7h2.5v0.9h-2.5v0.2c0.8,0.4,1.5,0.8,2.3,1.3l-0.5,0.8
						c-0.7-0.6-1.3-1-1.8-1.3v1.8h-0.9v-2.7c-0.5,1.1-1.3,2-2.5,2.9l-0.5-0.8c1.1-0.6,1.8-1.3,2.3-2.1h-2V-51.8z M253-54.1
						c0.4,0.6,0.7,1.1,0.9,1.7l-0.8,0.4c-0.3-0.7-0.6-1.3-1-1.8L253-54.1z M256.9-46.2h-2.4c-0.2,0.5-0.5,0.9-0.8,1.3
						c0.6,0.2,1.1,0.4,1.6,0.6C256.1-44.8,256.6-45.4,256.9-46.2z M258-53.8c-0.3,0.6-0.6,1.2-1.1,1.8l-0.8-0.4
						c0.4-0.6,0.8-1.2,1-1.8L258-53.8z M259.5-49.1c-0.2,0.6-0.5,1.2-0.8,1.7l-0.6-0.8c0.8-1.6,1.4-3.7,1.7-6.3l1,0.2
						c-0.1,0.6-0.2,1.2-0.3,2h3.7v1h-0.9c-0.1,2.3-0.5,4.3-1.2,6c0.7,1.2,1.6,2.2,2.6,2.8l-0.6,0.9c-1-0.7-1.8-1.6-2.5-2.8
						c-0.7,1.1-1.5,2.1-2.6,2.8l-0.5-0.9c1.1-0.8,2-1.7,2.6-2.9C260.4-46.5,259.9-47.7,259.5-49.1z M260.2-51.3
						c-0.1,0.3-0.2,0.6-0.2,0.7c0.3,1.6,0.8,3,1.4,4.2c0.5-1.4,0.8-3.1,0.9-4.9H260.2z"/>
					<path class="st4" d="M266.1-41.7l-0.2-1c0.4,0,0.8,0.1,1.1,0.1c0.4,0,0.5-0.2,0.5-0.6v-3.4c-0.7,0.2-1.2,0.4-1.7,0.6l-0.3-1
						c0.6-0.1,1.3-0.3,1.9-0.6v-3.2h-1.7v-1h1.7v-2.6h1v2.6h1.3v1h-1.3v2.8c0.4-0.2,0.9-0.4,1.3-0.6v1c-0.3,0.1-0.7,0.4-1.3,0.6v4.1
						c0,0.8-0.4,1.2-1.2,1.2C267.2-41.7,266.1-41.7,266.1-41.7z M271.5-47.9c-0.2,2.4-0.7,4.5-1.6,6.3l-0.8-0.7
						c1-1.8,1.5-4.2,1.5-7.2v-4.4h7.4v3.4h-2.6v1.7h3v0.9h-3v1.7h2.4v4.6h-0.9v-0.7h-3.8v0.7H272v-4.6h2.3v-1.7H271.5z M274.3-50.5
						h-2.8v1.7h2.8V-50.5z M277-52.9h-5.4v1.6h5.4V-52.9z M272.9-43.2h3.8v-2.1h-3.8V-43.2z"/>
				</g>
			</g>
		</g>
	</g>
	<g>
		<rect x="19.2" y="53" class="st7" width="91.8" height="50"/>
		<g>
			<rect x="17.2" y="51" class="st8" width="91.8" height="50"/>
			<path class="st9" d="M109.5,101.5H16.7v-51h92.8V101.5z M17.7,100.5h90.8v-49H17.7V100.5z"/>
		</g>
		<g transform="translate(20 9)">
			<g class="st3">
				<path class="st4" d="M32.5,60.8c-0.1,0.5-0.3,1-0.4,1.4h2.6v1h-2.9c-0.4,1-0.8,1.9-1.3,2.6l-0.8-0.5c0.9-1.4,1.5-2.9,1.9-4.6
					L32.5,60.8z M31.1,65h3.3v0.9H33v1.8h1.9v0.9H33v3.3c0.6-0.2,1.3-0.5,1.9-0.9l0.2,0.9c-0.9,0.5-1.9,0.9-3.1,1.2l-0.4-0.9
					c0.3-0.1,0.4-0.2,0.4-0.4v-3.2H30v-0.9H32v-1.8h-0.9V65z M36.1,61.1c0.4,0.7,0.9,1.5,1.3,2.4l-0.8,0.4c-0.4-0.9-0.8-1.7-1.3-2.4
					L36.1,61.1z M38.2,60.6h1v3.9h2.6V72c0,0.9-0.4,1.4-1.2,1.4h-1.4l-0.3-1l1.3,0c0.4,0,0.5-0.2,0.5-0.7v-1.5h-4.3v3.1h-1v-8.9h2.7
					V60.6z M40.9,67v-1.6h-4.3V67H40.9z M36.6,67.9v1.5h4.3v-1.5H36.6z M42.2,61.4c-0.3,0.8-0.8,1.7-1.3,2.5l-0.8-0.4
					c0.5-0.8,1-1.6,1.3-2.5L42.2,61.4z"/>
				<path class="st4" d="M45.6,64.2c-0.5,0.6-1.1,1.1-1.7,1.7l-0.3-1c1.5-1.3,2.5-2.8,3.1-4.4l1,0.2c-0.2,0.4-0.4,0.8-0.6,1.2h3.5
					c-0.2-0.5-0.4-0.9-0.7-1.3l1-0.2c0.2,0.4,0.4,0.9,0.6,1.5h4.1v0.8h-4.3v1h3.6v0.8h-3.6v1h3.7v0.8h-3.7v1h4.5v0.9H45.6V64.2z
					 M55,69.4v4.1h-1v-0.7h-7.4v0.7h-1v-4.1H55z M50.4,63.8v-1h-3.8l-0.1,0.2v0.9H50.4z M50.4,65.6v-1h-3.9v1H50.4z M50.4,67.4v-1
					h-3.9v1H50.4z M46.6,71.9H54v-1.6h-7.4V71.9z"/>
			</g>
		</g>
	</g>
	<g>
		<rect x="19.2" y="117" class="st7" width="91.8" height="50"/>
		<g>
			<rect x="17.2" y="115" class="st8" width="91.8" height="50"/>
			<path class="st9" d="M109.5,165.5H16.7v-51h92.8V165.5z M17.7,164.5h90.8v-49H17.7V164.5z"/>
		</g>
		<g class="st3">
			<path class="st4" d="M53.3,137.2c-0.7,0.7-1.6,1.4-2.6,2.1l-0.7-0.8c1.1-0.6,2-1.3,2.7-2L53.3,137.2z M56.7,141.3
				c-0.2,1.8-0.6,3-1.3,3.6c-0.7,0.8-2.4,1.2-4.9,1.4l-0.4-0.9c2.2-0.1,3.7-0.5,4.4-1.1c0.6-0.6,1-1.6,1.1-3.1L56.7,141.3z
				 M50.7,133.9c0.9,0.3,1.7,0.6,2.3,1l-0.5,0.8c-0.7-0.4-1.5-0.8-2.3-1L50.7,133.9z M60.6,139.8v4.2h-1v-3.2h-7v3.3h-1v-4.3H60.6z
				 M56.2,133.6c-0.1,0.4-0.3,0.7-0.4,0.9h5.6v0.6c-0.2,0.7-0.4,1.4-0.7,2l-1-0.3c0.2-0.4,0.4-0.9,0.6-1.5h-2.4
				c-0.1,0.3-0.1,0.6-0.3,0.9c0.7,1.1,2.2,1.8,4.3,2.2l-0.4,0.9c-2.1-0.4-3.5-1.2-4.4-2.3c-0.2,0.3-0.4,0.5-0.6,0.7
				c-0.7,0.7-1.8,1.2-3.4,1.5l-0.4-0.9c1.4-0.3,2.4-0.7,3-1.2c0.5-0.5,0.9-1.1,1-1.9h-1.8c-0.4,0.5-0.9,1-1.4,1.4l-0.6-0.8
				c0.9-0.7,1.5-1.5,1.9-2.5L56.2,133.6z M57,143.9c1.8,0.5,3.5,1,5,1.7l-0.5,0.8c-1.6-0.8-3.3-1.4-4.9-1.8L57,143.9z"/>
			<path class="st4" d="M70.1,133.4c0.2,0.5,0.5,1,0.7,1.6h4.9v1h-2.4c-0.2,0.8-0.4,1.5-0.7,2.1H76v1H65.9v2.1
				c-0.1,2.2-0.6,3.9-1.5,5.2l-0.8-0.7c0.8-1.1,1.2-2.6,1.3-4.6v-3h2.9l-0.6-2.1h-2.6v-1h5.1c-0.2-0.5-0.4-1-0.7-1.4L70.1,133.4z
				 M68.8,138.1h2.8c0.3-0.7,0.6-1.4,0.7-2.1h-4.1L68.8,138.1z"/>
		</g>
	</g>
	<g>
		<rect x="19.2" y="178" class="st7" width="91.8" height="50"/>
		<g>
			<rect x="17.2" y="176" class="st8" width="91.8" height="50"/>
			<path class="st9" d="M109.5,226.5H16.7v-51h92.8V226.5z M17.7,225.5h90.8v-49H17.7V225.5z"/>
		</g>
		<g class="st3">
			<path class="st4" d="M44.4,199.5c-0.5,0.7-1,1.3-1.5,1.8l-0.3-1.1c1.5-1.7,2.6-3.6,3.3-5.8l1,0.4c-0.4,1.1-0.8,2.1-1.4,3.1v9.4
				h-1V199.5z M46.9,197.5h1.8v-2.9h1v2.9h2.5v-2.9h1v2.9h1.9v1h-1.9v3.3h2.3v1h-9v-1h2.2v-3.3h-1.8V197.5z M50,203.8
				c-0.7,1.4-1.6,2.6-2.6,3.6l-0.9-0.6c1-1,1.9-2.1,2.5-3.4L50,203.8z M49.7,201.8h2.5v-3.3h-2.5V201.8z M52.6,203.2
				c1.1,1.3,2,2.4,2.7,3.5l-0.9,0.6c-0.6-1-1.5-2.2-2.6-3.6L52.6,203.2z"/>
			<path class="st4" d="M63.4,194.4c0.3,0.4,0.5,0.9,0.7,1.5h5.1v1H58.9v3.1c-0.1,3.1-0.5,5.6-1.4,7.4l-0.8-0.7
				c0.8-1.6,1.2-3.8,1.2-6.7v-4.1h5.2c-0.2-0.4-0.5-0.9-0.8-1.3L63.4,194.4z M59.2,205.8H65c0.9-2,1.6-4.5,2.3-7.4l1,0.3
				c-0.6,2.7-1.3,5.1-2.2,7.1h3v1h-9.9V205.8z M60.7,199.1c0.6,1.5,1.1,3.2,1.5,5.1l-1,0.2c-0.4-1.8-0.9-3.5-1.4-5.1L60.7,199.1z
				 M63.4,198.1c0.5,1.5,0.9,3.3,1.3,5.3l-1,0.2c-0.3-1.8-0.7-3.6-1.2-5.2L63.4,198.1z"/>
			<path class="st4" d="M73.1,194.8c-0.1,0.3-0.2,0.8-0.3,1.4h2.1v1h-2.4c-0.3,1-0.7,1.8-1.1,2.6l-0.8-0.5c0.7-1.4,1.2-3,1.5-4.6
				L73.1,194.8z M71.8,198.9h2.8v0.9h-1.1v1.8H75v0.9h-1.5v3.3c0.4-0.2,0.8-0.5,1.2-0.8l0.2,0.9c-0.7,0.5-1.5,0.9-2.3,1.2l-0.4-0.8
				c0.2-0.1,0.3-0.3,0.3-0.4v-3.2H71v-0.9h1.6v-1.8h-0.7V198.9z M83.5,206.2l-0.3,1h-1.9c-0.3,0-0.7,0-1.3,0c-0.6,0-1.2-0.1-1.7-0.3
				c-0.5-0.2-0.9-0.4-1.2-0.8c-0.2-0.2-0.3-0.3-0.5-0.3c-0.3,0-0.7,0.5-1.3,1.6l-0.6-0.8c0.6-0.9,1.1-1.5,1.5-1.7v-4.7h-1.1v-0.9
				h2.1v5.7c0.1,0,0.1,0.1,0.1,0.1c0.3,0.4,0.6,0.6,1.1,0.8c0.4,0.1,0.9,0.2,1.4,0.3c0.7,0,1.2,0,1.6,0
				C81.9,206.2,82.6,206.2,83.5,206.2z M75.9,194.8c0.7,0.9,1.2,1.6,1.5,2.2l-0.8,0.5c-0.4-0.7-0.8-1.4-1.5-2.3L75.9,194.8z
				 M77.8,202.4h2.6v-1.7h-2.3l-0.2-0.8c0.5-0.8,0.9-1.7,1.3-2.9h-1.4v-0.9h1.7l0.4-1.6l0.9,0.2c-0.1,0.4-0.2,0.9-0.4,1.4h2.7v0.9
				h-3c-0.4,1.1-0.8,2.1-1.2,2.8h1.4v-1.9h0.9v1.9H83v0.9h-1.6v1.7h2v0.9h-2v2.3h-0.9v-2.3h-2.6V202.4z"/>
		</g>
	</g>
	<g class="st3">
		<path class="st11" d="M140.5,118.7c0.5,0.5,0.9,1,1.3,1.5c1.3-0.6,2.4-1.4,3.1-2.5h-3.6c-1.1,0.5-2.3,0.9-3.8,1.1l-0.5-0.8
			c2.6-0.3,4.5-1.1,5.8-2.4l0.7,0.4c-0.3,0.3-0.6,0.6-0.9,0.8h3.3v0.7c-1.7,2.8-4.9,4.3-9.5,4.4l-0.3-0.8c1.9,0,3.5-0.2,4.8-0.7
			c-0.4-0.6-0.9-1.1-1.3-1.5L140.5,118.7z M141.7,111.6c-0.2,0.2-0.4,0.5-0.7,0.7h3.4v0.7c-1.3,2.3-3.7,3.6-7.2,3.9l-0.4-0.8
			c1.1-0.1,2.1-0.2,2.9-0.5c-0.4-0.5-0.8-0.9-1.2-1.2l0.8-0.4c0.5,0.4,0.9,0.9,1.2,1.3c1.2-0.5,2.2-1.3,2.9-2.2H140
			c-0.9,0.6-2,1-3.3,1.3l-0.5-0.8c2.1-0.4,3.7-1.2,4.8-2.3L141.7,111.6z"/>
		<path class="st11" d="M151.7,120.6c-1.2,0.5-2.5,0.8-4.1,1.1l-0.1-0.9c1.6-0.3,3-0.6,4.2-1.1V120.6z M150.4,111.5
			c-0.6,1.5-1.1,2.8-1.7,3.7c0.6-0.1,1.1-0.2,1.5-0.3c0.1-0.2,0.3-0.7,0.7-1.4l0.8,0.3c-1,2.1-1.8,3.6-2.5,4.4
			c0.8-0.2,1.6-0.5,2.4-0.8v0.8c-1.2,0.5-2.3,0.8-3.4,1l-0.2-0.8c0.2-0.1,0.3-0.1,0.4-0.2c0.4-0.5,0.9-1.3,1.5-2.5
			c-0.8,0.2-1.4,0.3-1.9,0.3l-0.2-0.8c0.1-0.1,0.3-0.2,0.4-0.3c0.6-1.1,1.1-2.3,1.6-3.8L150.4,111.5z M153.4,121.6v0.6h-0.8v-7.1
			c-0.3,0.6-0.7,1.1-1.1,1.6l-0.3-0.9c1-1.4,1.6-3,2-4.6l0.8,0.2c-0.2,0.7-0.4,1.3-0.6,1.9h2.2c-0.2-0.6-0.4-1.3-0.7-1.9l0.8-0.2
			c0.3,0.8,0.5,1.4,0.6,2l-0.3,0.1h2.2v0.8h-1.9v1.6h1.7v0.8h-1.7v1.6h1.7v0.8h-1.7v1.8h2.1v0.8H153.4z M155.5,114.1h-2.1v1.6h2.1
			V114.1z M153.4,116.5v1.6h2.1v-1.6H153.4z M153.4,118.9v1.8h2.1v-1.8H153.4z"/>
		<path class="st11" d="M162.6,116.9l-0.2,0.7h2.5v0.7c-0.3,0.8-0.7,1.5-1.3,2c0.6,0.2,1.1,0.5,1.6,0.8l-0.5,0.7
			c-0.6-0.3-1.2-0.6-1.8-0.9c-0.8,0.6-1.8,1-3,1.3l-0.4-0.7c1-0.3,1.8-0.6,2.5-1l-1.7-0.7c0.3-0.6,0.6-1,0.8-1.5h-1.4v-0.8h1.8
			c0.2-0.6,0.3-0.8,0.3-0.8L162.6,116.9z M159.8,113.5h2.3v-2.3h0.8v2.3h2.2v0.8h-2.2v0.1c0.7,0.3,1.3,0.7,2,1.1l-0.4,0.7
			c-0.6-0.5-1.1-0.9-1.5-1.2v1.6h-0.8v-2.3c-0.4,0.9-1.1,1.8-2.1,2.5l-0.4-0.7c0.9-0.5,1.6-1.1,1.9-1.8h-1.7V113.5z M160.7,111.5
			c0.3,0.5,0.6,1,0.8,1.5l-0.7,0.3c-0.2-0.6-0.5-1.1-0.8-1.5L160.7,111.5z M164.1,118.3h-2c-0.2,0.4-0.4,0.8-0.6,1.1
			c0.5,0.2,0.9,0.3,1.4,0.5C163.4,119.5,163.8,118.9,164.1,118.3z M165,111.7c-0.2,0.5-0.6,1.1-0.9,1.6l-0.6-0.3
			c0.4-0.5,0.7-1.1,0.9-1.5L165,111.7z M166.3,115.8c-0.2,0.5-0.4,1-0.7,1.5l-0.5-0.7c0.7-1.4,1.2-3.2,1.4-5.4l0.8,0.1
			c-0.1,0.5-0.1,1.1-0.3,1.7h3.2v0.8h-0.8c0,2-0.4,3.7-1.1,5.1c0.6,1.1,1.4,1.9,2.2,2.4l-0.5,0.7c-0.8-0.6-1.5-1.4-2.1-2.4
			c-0.6,1-1.3,1.8-2.2,2.4l-0.5-0.7c0.9-0.6,1.7-1.5,2.2-2.5C167,118,166.6,117,166.3,115.8z M166.9,113.9c-0.1,0.3-0.1,0.5-0.2,0.6
			c0.3,1.4,0.7,2.6,1.2,3.6c0.5-1.2,0.7-2.6,0.8-4.2H166.9z"/>
		<path class="st11" d="M171.9,122.1l-0.2-0.8c0.3,0,0.6,0.1,0.9,0.1c0.3,0,0.5-0.2,0.5-0.5v-2.9c-0.6,0.2-1,0.4-1.4,0.5l-0.2-0.8
			c0.5-0.1,1.1-0.3,1.6-0.5v-2.7h-1.4v-0.8h1.4v-2.3h0.8v2.3h1.2v0.8H174v2.4c0.4-0.2,0.8-0.3,1.1-0.5v0.9c-0.2,0.1-0.6,0.3-1.1,0.5
			v3.5c0,0.7-0.3,1.1-1,1.1H171.9z M176.6,116.8c-0.1,2-0.6,3.9-1.4,5.4l-0.7-0.6c0.8-1.6,1.3-3.6,1.3-6.2v-3.8h6.3v2.9h-2.3v1.4
			h2.6v0.8h-2.6v1.5h2v3.9h-0.8v-0.6h-3.3v0.6H177v-3.9h2v-1.5H176.6z M179,114.6h-2.4l0,1.4h2.4V114.6z M181.3,112.5h-4.6v1.3h4.6
			V112.5z M177.8,120.8h3.3V119h-3.3V120.8z"/>
	</g>
	<g transform="translate(0 0)">
		<g class="st3">
			<path class="st11" d="M148.2,141.4c0.8,0.6,1.6,1.2,2.2,1.8l-0.6,0.6c-0.5-0.6-1.3-1.2-2.2-1.8L148.2,141.4z M150.5,145.2
				c-0.6,1.4-1.2,2.8-1.8,4l-0.9-0.4c0.7-1.3,1.4-2.6,1.9-3.9L150.5,145.2z M148.5,138.4c0.9,0.6,1.7,1.2,2.4,1.9l-0.6,0.6
				c-0.6-0.6-1.4-1.2-2.4-1.9L148.5,138.4z M152.5,147.9h5.8v0.9h-6.7v-10.1h6.6v0.8h-5.7V147.9z"/>
			<path class="st11" d="M159.9,138.6h5.4v0.7h-0.9v3.1c0.4-0.1,0.7-0.1,0.8-0.1v0.6l-0.8,0.1v0.8h-0.8v-0.7c-1.4,0.2-2.7,0.3-4,0.4
				l-0.1-0.7l1.2-0.1v-3.5h-0.9V138.6z M163.2,145.7c-0.4,0.3-0.8,0.6-1.2,0.9c-0.4,0.2-1,0.5-1.7,0.7l-0.4-0.7
				c0.6-0.1,1.1-0.3,1.6-0.6c0.4-0.2,0.8-0.5,1.1-0.7L163.2,145.7z M164.1,147c-0.5,0.4-1,0.8-1.5,1.1c-0.5,0.3-1.2,0.6-2.2,0.9
				l-0.4-0.7c0.7-0.2,1.4-0.4,2-0.8c0.5-0.3,1-0.6,1.5-1L164.1,147z M164.7,145c-1.2,0.1-2.5,0.2-3.7,0.2l-0.3-0.7
				c3.2,0,5.8-0.4,7.9-1.1l0.4,0.7c-0.7,0.3-1.4,0.5-2.3,0.6c0.2,0.6,0.4,1.1,0.8,1.6c0.7-0.4,1.3-0.8,1.7-1.3l0.5,0.6
				c-0.4,0.4-1,0.8-1.7,1.2c0.6,0.6,1.4,1.1,2.3,1.5l-0.4,0.7c-2-1-3.3-2.4-3.8-4.2l-0.6,0.1v4.2h-0.8V145z M161.6,140h2.2v-0.7
				h-2.2V140z M161.6,141.3h2.2v-0.7h-2.2V141.3z M161.6,142.8l2.2-0.2v-0.6h-2.2V142.8z M166.2,140.2c0.7,0.5,1.3,0.9,1.8,1.2
				c0.4-0.5,0.7-1,1-1.6h-3.3V139h4.1v0.6c-0.3,0.9-0.7,1.6-1.2,2.2c0.6,0.4,1.1,0.8,1.4,1.2l-0.6,0.6c-0.4-0.4-0.8-0.8-1.4-1.2
				c-0.6,0.6-1.4,1-2.2,1.3l-0.3-0.7c0.7-0.2,1.3-0.6,1.9-1.1c-0.6-0.4-1.2-0.8-1.8-1.2L166.2,140.2z"/>
		</g>
	</g>
</g>
</svg>
