<?xml version="1.0" encoding="utf-8"?>
<!-- Generator: Adobe Illustrator 23.0.1, SVG Export Plug-In . SVG Version: 6.00 Build 0)  -->
<!DOCTYPE svg PUBLIC "-//W3C//DTD SVG 1.1//EN" "http://www.w3.org/Graphics/SVG/1.1/DTD/svg11.dtd" [
	<!ENTITY ns_extend "http://ns.adobe.com/Extensibility/1.0/">
	<!ENTITY ns_ai "http://ns.adobe.com/AdobeIllustrator/10.0/">
	<!ENTITY ns_graphs "http://ns.adobe.com/Graphs/1.0/">
	<!ENTITY ns_vars "http://ns.adobe.com/Variables/1.0/">
	<!ENTITY ns_imrep "http://ns.adobe.com/ImageReplacement/1.0/">
	<!ENTITY ns_sfw "http://ns.adobe.com/SaveForWeb/1.0/">
	<!ENTITY ns_custom "http://ns.adobe.com/GenericCustomNamespace/1.0/">
	<!ENTITY ns_adobe_xpath "http://ns.adobe.com/XPath/1.0/">
]>
<svg version="1.1" id="图层_1" xmlns:x="&ns_extend;" xmlns:i="&ns_ai;" xmlns:graph="&ns_graphs;"
	 xmlns="http://www.w3.org/2000/svg" xmlns:xlink="http://www.w3.org/1999/xlink" x="0px" y="0px" width="830px" height="413.7px"
	 viewBox="0 0 830 413.7" style="enable-background:new 0 0 830 413.7;" xml:space="preserve">
<style type="text/css">
	.st0{fill:#878787;}
	.st1{fill:none;stroke:#878787;stroke-miterlimit:10;}
	.st2{fill:#CEE3FF;}
	.st3{opacity:0.6;}
	.st4{fill:#BBBBBB;}
	.st5{fill:#FFFFFF;}
	.st6{fill:#E5E5E5;}
	.st7{fill:#CB3333;fill-opacity:0;}
	.st8{fill:#444444;}
	.st9{fill:#00A4FF;}
	.st10{fill:#FFFFFF;stroke:#E5E5E5;}
</style>
<metadata>
	<sfw  xmlns="&ns_sfw;">
		<slices></slices>
		<sliceSourceBounds  bottomLeftOrigin="true" height="401" width="679" x="88" y="7.7"></sliceSourceBounds>
	</sfw>
</metadata>
<g>
	<polygon class="st0" points="182.5,213 177.5,208 172.5,213 	"/>
	<line class="st1" x1="177.5" y1="243" x2="177.5" y2="213"/>
</g>
<g>
	<polygon class="st0" points="433,213 428,208 423,213 	"/>
	<line class="st1" x1="428" y1="243" x2="428" y2="213"/>
</g>
<g>
	<polygon class="st0" points="689,213 684,208 679,213 	"/>
	<line class="st1" x1="684" y1="243" x2="684" y2="213"/>
</g>
<g>
	<g>
		<rect x="329.5" y="308" class="st2" width="196" height="98"/>
	</g>
	<g>
		<g class="st3">
			<rect x="352.5" y="347" class="st4" width="157" height="50"/>
		</g>
		<g>
			<rect x="351" y="345.5" class="st5" width="156" height="49"/>
			<path class="st6" d="M506.5,346v48h-155v-48H506.5 M507.5,345h-157v50h157V345L507.5,345z"/>
		</g>
		<g class="st3">
			<rect x="350.6" y="345" class="st4" width="153.9" height="47"/>
		</g>
		<g>
			<rect x="346" y="340.5" class="st5" width="156" height="49"/>
			<path class="st6" d="M501.5,341v48h-155v-48H501.5 M502.5,340h-157v50h157V340L502.5,340z"/>
		</g>
		<g class="st3">
			<rect x="345.5" y="340" class="st4" width="154" height="47"/>
		</g>
		<g>
			<rect x="341" y="335.5" class="st5" width="156" height="49"/>
			<path class="st6" d="M496.5,336v48h-155v-48H496.5 M497.5,335h-157v50h157V335L497.5,335z"/>
		</g>
		<rect x="360.5" y="344" class="st7" width="32" height="32"/>
		<g>
			<path class="st8" d="M405.7,361.2c-0.6,1.8-1.1,3.4-1.8,4.8l-0.9-0.4c0.7-1.5,1.3-3.1,1.8-4.8L405.7,361.2z M403.8,357.2
				c0.8,0.7,1.5,1.3,2.1,1.9l-0.7,0.7c-0.5-0.7-1.2-1.3-2-2L403.8,357.2z M403.9,353.6c0.8,0.6,1.4,1.2,2,1.8l-0.7,0.7
				c-0.5-0.6-1.1-1.2-2-1.9L403.9,353.6z M407.1,356.6H406v-1h2c-0.1-0.7-0.4-1.4-0.6-2.1l1-0.2c0.2,0.7,0.4,1.4,0.6,2.3h1.6v1h-2.5
				v1c0,0.3,0,0.6,0,1.1h2.3c0,3.2-0.1,5.2-0.2,6c-0.1,0.9-0.5,1.3-1.3,1.3l-1-0.1l-0.2-0.9c0.6,0,1,0,1.1,0c0.3,0,0.4-0.3,0.5-0.8
				c0.1-0.5,0.2-2.1,0.2-4.7H408c-0.2,2.9-0.8,5.1-1.9,6.6l-0.7-0.7c1.1-1.7,1.7-4.3,1.7-8L407.1,356.6
				C407.1,356.6,407.1,356.6,407.1,356.6z M412.1,356.4c-0.4,0.9-0.8,1.7-1.3,2.3l-0.6-0.8c0.9-1.1,1.5-2.6,1.8-4.6l1,0.2
				c-0.1,0.6-0.3,1.2-0.4,1.9h3.5v1L412.1,356.4L412.1,356.4z M411.7,357.9h3.8v0.9c-0.4,0.6-0.9,1.1-1.5,1.7v0.9h1.9v0.9H414v2.5
				c0,0.9-0.4,1.3-1.1,1.3h-1.2l-0.2-0.9c0.4,0,0.8,0,1.1,0c0.3,0,0.4-0.3,0.4-0.8v-2.2h-2.1v-0.9h2.1v-1c0.6-0.6,1-1.1,1.3-1.5
				h-2.7L411.7,357.9L411.7,357.9z"/>
			<path class="st8" d="M418.3,357.1c0.8,0.9,1.6,1.8,2.2,2.6c0.4-1.2,0.7-2.5,0.9-3.9h-3.7v-1h4.7v0.9c-0.1,1.8-0.5,3.5-1.1,4.9
				c0.6,0.9,1.2,1.7,1.7,2.4l-0.7,0.7c-0.4-0.7-0.9-1.5-1.4-2.1c-0.8,1.4-1.8,2.7-3.1,3.7l-0.6-0.8c1.3-1.1,2.3-2.4,3-3.8
				c-0.8-1.1-1.7-2-2.5-2.9L418.3,357.1z M429.3,356.7l0.2,1l-3.8,0.6c0,0.6,0.1,1.2,0.2,1.8c0.1,0.6,0.2,1.2,0.4,1.8
				c0.8-0.9,1.4-1.9,2-3.1l0.8,0.5c-0.8,1.4-1.6,2.6-2.5,3.6c0.1,0.3,0.2,0.6,0.3,0.8c0.4,0.8,0.8,1.2,1.2,1.2
				c0.2-0.1,0.5-0.9,0.7-2.5l0.9,0.6c-0.2,0.8-0.4,1.5-0.6,2c-0.3,0.7-0.6,1-0.9,1c-0.6,0-1.1-0.4-1.7-1.3c-0.2-0.4-0.4-0.7-0.6-1.1
				c-0.9,0.8-1.9,1.5-2.9,1.9l-0.6-0.8c1.2-0.5,2.2-1.2,3.2-2c-0.2-0.6-0.4-1.2-0.5-1.8c-0.2-0.6-0.3-1.4-0.4-2.4l-1.8,0.3l-0.2-1
				l1.8-0.3c-0.1-1.2-0.2-2.6-0.2-4h1c0,1.4,0,2.7,0.1,3.9L429.3,356.7z M427.2,353.8c0.7,0.7,1.2,1.4,1.5,1.8l-0.8,0.6
				c-0.4-0.6-0.9-1.2-1.5-1.9L427.2,353.8z"/>
			<path class="st8" d="M431.9,357.1c1,0.7,1.7,1.4,2.3,2.1l-0.7,0.7c-0.6-0.7-1.4-1.4-2.3-2.1L431.9,357.1z M434.4,361.2
				c-0.7,1.8-1.4,3.5-2.1,5l-0.9-0.4c0.9-1.7,1.6-3.3,2.2-4.9L434.4,361.2z M432.1,353.7c1,0.7,1.8,1.4,2.5,2.1l-0.7,0.7
				c-0.6-0.7-1.5-1.4-2.5-2.2L432.1,353.7z M437.2,356.2h2c0.2-0.4,0.3-0.9,0.4-1.3h-3.4v4.1c-0.1,3-0.6,5.5-1.6,7.3l-0.8-0.7
				c0.9-1.6,1.3-3.8,1.4-6.6v-5h8.4v0.9h-3.1c-0.1,0.4-0.2,0.9-0.4,1.3h2.7v4.9h-2.3v4c0,0.8-0.4,1.1-1.1,1.1h-1.2l-0.2-0.9
				c0.4,0,0.8,0.1,1.1,0.1c0.3,0,0.5-0.2,0.5-0.5v-3.7h-2.4L437.2,356.2L437.2,356.2z M438.5,362.3c-0.4,1.2-0.9,2.3-1.5,3.2
				l-0.8-0.5c0.7-0.9,1.1-1.9,1.4-2.9L438.5,362.3z M438.1,358.3h3.9V357h-3.9V358.3z M442,360.3V359h-3.9v1.3H442z M442.3,362
				c0.6,1,1.1,2,1.5,3.1l-0.9,0.4c-0.4-1.1-0.9-2.2-1.5-3.2L442.3,362z"/>
			<path class="st8" d="M450.6,364.2c-1.6,0.5-3.3,0.8-5.1,1.1l-0.2-1c1-0.1,2-0.3,3-0.5c0.4-1.9,0.7-4,1-6.3l1,0.1
				c-0.2,2.2-0.6,4.2-1,6c0.6-0.1,1-0.3,1.4-0.4L450.6,364.2L450.6,364.2L450.6,364.2z M445.3,355.7h2.3c-0.1-0.7-0.3-1.4-0.6-2.1
				l1-0.2c0.2,0.6,0.4,1.4,0.5,2.2h2.3v1h-5.5V355.7z M446.6,357.6c0.3,1.7,0.6,3.5,0.9,5.6l-0.8,0.2c-0.2-1.9-0.6-3.7-1-5.5
				L446.6,357.6z M453.2,353.4h1v2.5h3.5v1h-3.5v2.7h2.8v6.6h-1v-0.9h-3.9v0.9h-1v-6.6h2V353.4z M452.2,364.3h3.9v-3.9h-3.9V364.3z"
				/>
			<path class="st8" d="M460.8,356.9c-0.3,0.4-0.7,0.8-1.2,1.2l-0.6-0.8c1.2-1.1,2.2-2.4,2.8-3.9l0.9,0.2c-0.1,0.3-0.3,0.7-0.5,1.1
				h3c-0.2-0.5-0.4-0.9-0.6-1.2l1-0.2c0.2,0.4,0.4,0.8,0.6,1.4h4.5v0.8h-4.5v1h3.9v0.8h-3.9v0.9h3.9v0.8h-3.9v1h4.7v0.9h-10.3
				L460.8,356.9L460.8,356.9z M459.5,362.9v-0.9h5.6v-0.7h1v0.7h5.5v0.9h-4.2c1,0.9,2.4,1.6,4.4,2.2l-0.4,0.9c-2.3-0.8-4-1.8-4.9-3
				H466v3.4h-1v-3.4h-0.3c-0.9,1.2-2.5,2.2-4.9,3.1l-0.5-0.9c2.1-0.7,3.6-1.4,4.5-2.2L459.5,362.9L459.5,362.9z M465.4,356.5v-1
				h-3.6l-0.1,0.1v0.8H465.4L465.4,356.5z M465.4,358.2v-0.9h-3.6v0.9H465.4z M465.4,360v-1h-3.6v1H465.4z"/>
			<path class="st8" d="M478.5,359.8h-2.9c-0.1,0.5-0.3,0.9-0.4,1.4h3.7v5H478v-0.8h-2.2v0.8h-0.9V362c-0.4,0.8-0.8,1.5-1.4,2.1
				l-0.5-0.8c0.8-0.9,1.3-2,1.7-3.5h-1.1v-0.9h1.3c0.1-0.6,0.2-1.1,0.2-1.6h-1.9v-0.9h2c0-0.7,0.1-1.2,0.1-1.6h-1.6V354h4.8v2.5h0.8
				v0.9h-0.8L478.5,359.8L478.5,359.8z M475.8,364.4h2.2v-2.4h-2.2V364.4z M476.1,357.4c0,0.4-0.1,0.9-0.2,1.6h1.8v-1.6H476.1z
				 M476.3,354.8c0,0.4,0,1-0.1,1.6h1.4v-1.6H476.3z M482.2,357.1h-2.5v-1h1.7c-0.4-0.8-0.8-1.6-1.2-2.2l0.9-0.4
				c0.4,0.7,0.8,1.4,1.2,2.2l-0.8,0.4h1.6c0.4-0.9,0.8-1.8,1-2.7l1,0.3c-0.3,0.9-0.6,1.7-1,2.4h1.6v1h-2.3v2h2v0.9h-2v2h2.6v1h-2.6
				v3.2h-1V363h-2.6v-1h2.6v-2h-2.2v-0.9h2.2L482.2,357.1L482.2,357.1z"/>
		</g>
		<g id="XMLID_326_">
			<g>
				<path class="st9" d="M376.5,373c-7.2,0-13-5.8-13-13s5.8-13,13-13c6.5,0,11.9,4.8,12.8,11h2c-1-7.3-7.2-13-14.9-13
					c-8.3,0-15,6.7-15,15s6.7,15,15,15c7.6,0,13.9-5.7,14.9-13h-2C388.4,368.2,383,373,376.5,373z M383.5,356l-7-4l-7,4v8l3.2,1.8
					c0.2-0.7,0.6-1.2,1-1.7l-2.2-1.3v-3.7l5,2.9l5-2.9v3.7l-4.1,2.4c-0.3-0.1-0.6-0.2-0.9-0.2c-1.1,0-2,0.9-2,2s0.9,2,2,2s2-0.9,2-2
					c0,0,0-0.1,0-0.1l5-2.9V356z M376.5,359.7l-4.7-2.7l4.7-2.7l4.7,2.7L376.5,359.7z"/>
			</g>
		</g>
	</g>
	<g>
		<path class="st8" d="M347.9,315.8v2.4h4.7v6h-0.7v-0.9h-4v4.5h-0.7v-4.5h-4v0.9h-0.7v-6h4.7v-2.4H347.9z M347.1,322.6v-3.7h-4v3.7
			H347.1z M351.9,322.6v-3.7h-4v3.7H351.9z"/>
		<path class="st8" d="M365.8,327.7H365v-0.6H356v0.6h-0.7v-11.2h10.5V327.7z M365,326.4v-9.2H356v9.2H365z M363.7,318.6v0.7h-2.9
			v2.1h2.5v0.6h-2.5v2.3h3.2v0.6h-7.2v-0.6h3.2V322h-2.5v-0.6h2.5v-2.1h-2.9v-0.7H363.7z M363.3,323.8l-0.6,0.2
			c-0.3-0.6-0.6-1.1-0.9-1.6l0.6-0.2C362.7,322.8,363,323.3,363.3,323.8z"/>
		<path class="st8" d="M373.9,319.3v2.8h3.4v5.6h-0.7V327h-6v0.7h-0.7v-5.6h3.3v-2.8h-0.1c-0.9,1.3-2.5,2.4-5.1,3.4l-0.4-0.6
			c2.4-0.8,4-1.7,4.8-2.7H368v-0.7h5.2v-1.5c-1.3,0.1-2.7,0.1-4.2,0.1l-0.2-0.6c3.6,0,6.6-0.3,8.9-0.8l0.3,0.6
			c-1.2,0.3-2.6,0.5-4.2,0.6v1.5h5.1v0.7h-4.4c1,1.2,2.5,2.1,4.6,2.7l-0.3,0.6C376.6,321.8,374.9,320.7,373.9,319.3L373.9,319.3z
			 M376.6,324.3v-1.5h-6v1.5H376.6z M376.6,326.3v-1.4h-6v1.4H376.6z"/>
		<path class="st8" d="M383.4,321.2l-0.5,0.5c-0.5-0.6-1.3-1.2-2.2-1.9l0.5-0.5C382.1,320,382.8,320.6,383.4,321.2z M383.4,323.4
			c-0.5,1.5-1.1,3-1.8,4.3l-0.7-0.3c0.7-1.4,1.4-2.8,1.9-4.3L383.4,323.4z M383.8,318.1l-0.5,0.5c-0.6-0.6-1.4-1.3-2.3-2l0.5-0.5
			C382.4,316.8,383.2,317.5,383.8,318.1z M386.2,317.3v-1.4h0.7v1.4h2.4v-1.4h0.7v1.4h1.7v0.7H390v1.7h2.1v0.7h-2.3
			c0.5,1,1.4,1.8,2.7,2.4l-0.3,0.6c-1.5-0.8-2.5-1.8-3-3h-2.3c-0.2,0.6-0.6,1.1-1,1.6h4.4v2.8h-4v1.5c0,0.4,0.2,0.6,0.6,0.6h3.6
			c0.3,0,0.5-0.1,0.6-0.3c0.1-0.2,0.2-0.6,0.2-1.3l0.7,0.2c-0.1,0.6-0.1,1.1-0.3,1.4c-0.2,0.4-0.5,0.6-1.1,0.6h-4
			c-0.7,0-1.1-0.3-1.1-1v-4.1c-0.5,0.5-1.1,0.9-1.7,1.3l-0.4-0.6c1.4-0.8,2.3-1.7,2.7-2.7H384v-0.7h2.1V318h-1.6v-0.7H386.2z
			 M389.6,324.2v-1.6h-3.3v1.6H389.6z M389.3,319.7V318h-2.4v1.7H389.3z"/>
		<path class="st8" d="M399,319.3c0.1-0.8,0.2-1.6,0.2-2.5v-1h0.7v0.8c0,0.9-0.1,1.8-0.2,2.6h5.5v0.7H400c0.9,3.1,2.7,5.4,5.4,7
			l-0.4,0.6c-2.7-1.7-4.6-4.1-5.5-7.2c-0.7,3.4-2.5,5.8-5.4,7.3l-0.4-0.6c2.8-1.4,4.6-3.8,5.3-7.1h-5v-0.7H399z"/>
		<path class="st8" d="M417.9,316.4v0.7h-9.5v9.4h9.9v0.7h-10.6v-10.8H417.9z M413.6,321.4c0.8-1,1.5-2.1,2-3.4l0.6,0.3
			c-0.6,1.4-1.3,2.6-2.1,3.6c1.1,1,2,2,2.9,2.9l-0.5,0.5c-0.8-1-1.8-1.9-2.8-2.9c-1.2,1.3-2.5,2.3-4.1,2.9l-0.4-0.6
			c1.5-0.6,2.8-1.5,3.9-2.8c-1.1-0.9-2.2-1.9-3.5-2.9l0.5-0.5C411.4,319.5,412.5,320.4,413.6,321.4z"/>
	</g>
</g>
<g>
	<rect x="88" y="62" class="st2" width="179" height="146"/>
</g>
<g>
	<g class="st3">
		<rect x="100" y="94" class="st4" width="157" height="50"/>
	</g>
	<g>
		<rect x="98.5" y="92.5" class="st5" width="156" height="49"/>
		<path class="st6" d="M254,93v48H99V93H254 M255,92H98v50h157V92L255,92z"/>
	</g>
	<g>
		<path class="st8" d="M161,123.1l-0.2-1c0.5,0,0.9,0.1,1.1,0.1c0.4,0,0.5-0.2,0.5-0.6v-3.4c-0.4,0.1-1,0.4-1.7,0.6l-0.3-1
			c0.6-0.2,1.3-0.4,2-0.6v-3.1h-1.7v-1h1.7v-2.6h1v2.6h1.2v1h-1.2v2.7c0.4-0.2,0.8-0.4,1.2-0.6v1c-0.4,0.2-0.8,0.4-1.2,0.6v4.1
			c0,0.8-0.4,1.3-1.2,1.3L161,123.1L161,123.1z M169,116.3c-0.1,0.4-0.3,0.7-0.5,1.1h4.8v1h-1.5c-0.2,1-0.6,1.9-1.3,2.6
			c1,0.5,1.9,0.9,2.8,1.4l-0.5,0.8c-0.8-0.5-1.8-1-2.9-1.6c-0.9,0.7-2.4,1.2-4.4,1.6l-0.4-0.9c1.7-0.3,2.9-0.7,3.8-1.2
			c-0.7-0.3-1.6-0.7-2.7-1.2c0.4-0.6,0.7-1.1,1-1.7h-1.9v-1h2.4c0.2-0.4,0.4-0.8,0.5-1.2L169,116.3z M167.4,112.8
			c0.3,0.6,0.7,1.3,1,2.1h1.4c0.4-0.7,0.7-1.4,1-2.2l1,0.3c-0.3,0.7-0.6,1.3-0.9,1.9h2.3v1h-7.8v-1h2.1c-0.3-0.7-0.6-1.2-0.9-1.7
			L167.4,112.8z M169.3,110.3c0.1,0.4,0.3,0.8,0.5,1.3h3.1v0.9h-7.2v-0.9h3.1c-0.1-0.4-0.3-0.8-0.5-1.2L169.3,110.3z M168,118.4
			c-0.3,0.5-0.5,0.9-0.8,1.2c0.8,0.3,1.6,0.6,2.4,1c0.6-0.6,1.1-1.3,1.3-2.2H168z"/>
		<path class="st8" d="M178.1,111l0.8-0.5c1.2,0.9,2.3,2.4,3.2,4.7c1.3,3.4,3.1,5.7,5.3,7.1l-0.6,0.8c-2.3-1.4-4.1-3.9-5.6-7.6
			c-0.1-0.3-0.2-0.5-0.2-0.6c-0.9,3.6-2.9,6.3-5.8,8.2l-0.6-0.9c3-2,4.9-4.8,5.8-8.5C179.7,112.5,179,111.6,178.1,111z"/>
		<path class="st8" d="M190.5,118.5c-0.1,2-0.4,3.6-1,4.8l-0.8-0.7c0.6-1.2,0.8-2.9,0.9-4.8V111h4.1v10.9c0,0.9-0.4,1.3-1.2,1.3
			h-1.1l-0.2-0.9c0.5,0,0.9,0.1,1.1,0.1c0.4,0,0.5-0.3,0.5-0.8v-3.2H190.5L190.5,118.5z M192.8,114.3v-2.4h-2.3v2.4H192.8z
			 M190.5,115.2v2.3h2.3v-2.3H190.5z M195.9,117.1v6.2h-1V111h5.7c0,1.7-0.1,2.9-0.3,3.4c-0.2,0.6-0.7,0.9-1.6,0.9h-1.1l-0.3-0.9
			l0.9,0c0.3,0,0.6,0,0.7-0.1c0.2-0.1,0.3-0.2,0.4-0.4c0.1-0.3,0.2-1,0.2-2.1h-3.7v4.2h4.8v0.9c-0.3,1.4-0.7,2.7-1.4,3.7
			c0.6,0.6,1.4,1.2,2.2,1.7l-0.5,0.9c-0.9-0.5-1.6-1.1-2.3-1.7c-0.6,0.7-1.3,1.3-2.2,1.7l-0.5-0.8c0.8-0.4,1.5-1,2-1.7
			c-0.9-1.1-1.5-2.3-1.8-3.7L195.9,117.1L195.9,117.1z M197.1,117.1c0.3,1.1,0.8,2,1.5,2.9c0.5-0.8,0.9-1.8,1.1-2.9H197.1z"/>
	</g>
	<g id="XMLID_280_">
		<g>
			<path class="st9" d="M134,130c-7.2,0-13-5.8-13-13s5.8-13,13-13c6.5,0,11.9,4.8,12.8,11h2c-1-7.3-7.2-13-14.9-13
				c-8.3,0-15,6.7-15,15s6.7,15,15,15c7.6,0,13.9-5.7,14.9-13h-2C145.9,125.2,140.5,130,134,130z M141,113l-7-4l-7,4v8l3.2,1.8
				c0.2-0.7,0.6-1.2,1-1.7l-2.2-1.3v-3.7l5,2.9l5-2.9v3.7l-4.1,2.4c-0.3-0.1-0.6-0.2-0.9-0.2c-1.1,0-2,0.9-2,2c0,1.1,0.9,2,2,2
				s2-0.9,2-2c0,0,0-0.1,0-0.1l5-2.9V113z M134,116.7l-4.7-2.7l4.7-2.7l4.7,2.7L134,116.7z"/>
		</g>
	</g>
</g>
<g class="st3">
	<rect x="91" y="7" class="st4" width="177" height="50"/>
</g>
<rect x="89.5" y="5.5" class="st10" width="176" height="49"/>
<g>
	<g>
		<path class="st0" d="M121,19c2.2,0,4,1.8,4,4s-1.8,4-4,4s-4-1.8-4-4S118.8,19,121,19 M121,17c-3.3,0-6,2.7-6,6s2.7,6,6,6
			s6-2.7,6-6S124.3,17,121,17L121,17z"/>
	</g>
	<g>
		<path class="st0" d="M125,33c3.3,0,6,2.7,6,6v1h-20v-1c0-3.3,2.7-6,6-6H125 M125,31h-8c-4.4,0-8,3.6-8,8v3h24v-3
			C133,34.6,129.4,31,125,31L125,31z"/>
	</g>
	<path class="st0" d="M134,31h-3c0.8,0.6,1.4,1.2,2,2h1c2.2,0,4,1.8,4,4v1h-3c0,0.3,0,0.7,0,1v1h5v-3C140,33.7,137.3,31,134,31z"/>
	<path class="st0" d="M130,18c-0.8,0-1.6,0.2-2.3,0.6c0.4,0.6,0.7,1.2,0.9,1.8c0.4-0.2,0.9-0.4,1.4-0.4c1.7,0,3,1.3,3,3s-1.3,3-3,3
		c-0.5,0-1-0.1-1.4-0.4c-0.2,0.6-0.5,1.2-0.9,1.8c0.7,0.4,1.5,0.6,2.3,0.6c2.8,0,5-2.2,5-5S132.8,18,130,18z"/>
</g>
<g class="st3">
	<rect x="340" y="7" class="st4" width="177" height="50"/>
</g>
<g>
	<rect x="338.5" y="5.5" class="st5" width="176" height="49"/>
	<path class="st6" d="M514,6v48H339V6H514 M515,5H338v50h177V5L515,5z"/>
</g>
<g>
	<g>
		<path class="st0" d="M370,19c2.2,0,4,1.8,4,4s-1.8,4-4,4s-4-1.8-4-4S367.8,19,370,19 M370,17c-3.3,0-6,2.7-6,6s2.7,6,6,6
			s6-2.7,6-6S373.3,17,370,17L370,17z"/>
	</g>
	<g>
		<path class="st0" d="M374,33c3.3,0,6,2.7,6,6v1h-20v-1c0-3.3,2.7-6,6-6H374 M374,31h-8c-4.4,0-8,3.6-8,8v3h24v-3
			C382,34.6,378.4,31,374,31L374,31z"/>
	</g>
	<path class="st0" d="M383,31h-3c0.8,0.6,1.4,1.2,2,2h1c2.2,0,4,1.8,4,4v1h-3c0,0.3,0,0.7,0,1v1h5v-3C389,33.7,386.3,31,383,31z"/>
	<path class="st0" d="M379,18c-0.8,0-1.6,0.2-2.3,0.6c0.4,0.6,0.7,1.2,0.9,1.8c0.4-0.2,0.9-0.4,1.4-0.4c1.7,0,3,1.3,3,3s-1.3,3-3,3
		c-0.5,0-1-0.1-1.4-0.4c-0.2,0.6-0.5,1.2-0.9,1.8c0.7,0.4,1.5,0.6,2.3,0.6c2.8,0,5-2.2,5-5S381.8,18,379,18z"/>
</g>
<g class="st3">
	<rect x="588" y="7" class="st4" width="177" height="50"/>
</g>
<g>
	<rect x="586.5" y="5.5" class="st5" width="176" height="49"/>
	<path class="st6" d="M762,6v48H587V6H762 M763,5H586v50h177V5L763,5z"/>
</g>
<g>
	<g>
		<path class="st0" d="M618,19c2.2,0,4,1.8,4,4s-1.8,4-4,4s-4-1.8-4-4S615.8,19,618,19 M618,17c-3.3,0-6,2.7-6,6s2.7,6,6,6
			s6-2.7,6-6S621.3,17,618,17L618,17z"/>
	</g>
	<g>
		<path class="st0" d="M622,33c3.3,0,6,2.7,6,6v1h-20v-1c0-3.3,2.7-6,6-6H622 M622,31h-8c-4.4,0-8,3.6-8,8v3h24v-3
			C630,34.6,626.4,31,622,31L622,31z"/>
	</g>
	<path class="st0" d="M631,31h-3c0.8,0.6,1.4,1.2,2,2h1c2.2,0,4,1.8,4,4v1h-3c0,0.3,0,0.7,0,1v1h5v-3C637,33.7,634.3,31,631,31z"/>
	<path class="st0" d="M627,18c-0.8,0-1.6,0.2-2.3,0.6c0.4,0.6,0.7,1.2,0.9,1.8c0.4-0.2,0.9-0.4,1.4-0.4c1.7,0,3,1.3,3,3s-1.3,3-3,3
		c-0.5,0-1-0.1-1.4-0.4c-0.2,0.6-0.5,1.2-0.9,1.8c0.7,0.4,1.5,0.6,2.3,0.6c2.8,0,5-2.2,5-5S629.8,18,627,18z"/>
</g>
<g>
	<g class="st3">
		<rect x="100" y="150" class="st4" width="157" height="50"/>
	</g>
	<g>
		<rect x="98.5" y="148.5" class="st5" width="156" height="49"/>
		<path class="st6" d="M254,149v48H99v-48H254 M255,148H98v50h157V148L255,148z"/>
	</g>
	<g>
		<path class="st8" d="M163.2,174.2c-0.6,1.8-1.1,3.4-1.8,4.8l-0.9-0.4c0.7-1.5,1.3-3.1,1.8-4.8L163.2,174.2z M161.3,170.2
			c0.8,0.7,1.5,1.3,2.1,1.9l-0.7,0.7c-0.5-0.7-1.2-1.3-2-2L161.3,170.2z M161.4,166.6c0.8,0.6,1.4,1.2,2,1.8l-0.7,0.7
			c-0.5-0.6-1.1-1.2-2-1.9L161.4,166.6z M164.6,169.6h-1.1v-1h2c-0.1-0.7-0.4-1.4-0.6-2.1l1-0.2c0.2,0.7,0.4,1.4,0.6,2.3h1.6v1h-2.5
			v1c0,0.3,0,0.6,0,1.1h2.3c0,3.2-0.1,5.2-0.2,6c-0.1,0.9-0.5,1.3-1.3,1.3l-1-0.1l-0.2-0.9c0.6,0,1,0,1.1,0c0.3,0,0.4-0.3,0.5-0.8
			c0.1-0.5,0.2-2.1,0.2-4.7h-1.4c-0.2,2.9-0.8,5.1-1.9,6.6l-0.7-0.7c1.1-1.7,1.7-4.3,1.7-8L164.6,169.6
			C164.6,169.6,164.6,169.6,164.6,169.6z M169.6,169.4c-0.4,0.9-0.8,1.7-1.3,2.3l-0.6-0.8c0.9-1.1,1.5-2.6,1.8-4.6l1,0.2
			c-0.1,0.6-0.3,1.2-0.4,1.9h3.5v1L169.6,169.4L169.6,169.4z M169.2,170.9h3.8v0.9c-0.4,0.6-0.9,1.1-1.5,1.7v0.9h1.9v0.9h-1.9v2.5
			c0,0.9-0.4,1.3-1.1,1.3h-1.2l-0.2-0.9c0.4,0,0.8,0,1.1,0c0.3,0,0.4-0.3,0.4-0.8v-2.2h-2.1v-0.9h2.1v-1c0.6-0.6,1-1.1,1.3-1.5h-2.7
			L169.2,170.9L169.2,170.9z"/>
		<path class="st8" d="M175.8,170.1c0.8,0.9,1.6,1.8,2.2,2.6c0.4-1.2,0.7-2.5,0.9-3.9h-3.7v-1h4.7v0.9c-0.1,1.8-0.5,3.5-1.1,4.9
			c0.6,0.8,1.2,1.7,1.7,2.4l-0.7,0.7c-0.4-0.7-0.9-1.5-1.4-2.1c-0.8,1.4-1.8,2.7-3.1,3.7l-0.6-0.8c1.3-1.1,2.3-2.4,3-3.9
			c-0.8-1.1-1.7-2-2.5-2.9L175.8,170.1z M186.8,169.7l0.2,1l-3.8,0.6c0,0.6,0.1,1.2,0.2,1.8c0.1,0.6,0.2,1.2,0.4,1.8
			c0.8-0.9,1.4-1.9,2-3.1l0.8,0.5c-0.8,1.4-1.6,2.6-2.5,3.6c0.1,0.3,0.2,0.6,0.3,0.8c0.4,0.8,0.8,1.2,1.2,1.2
			c0.2-0.1,0.5-0.9,0.7-2.5l0.9,0.6c-0.2,0.8-0.4,1.5-0.6,2c-0.3,0.7-0.6,1-0.9,1c-0.6,0-1.1-0.4-1.7-1.3c-0.2-0.4-0.4-0.7-0.6-1.1
			c-0.9,0.8-1.9,1.5-2.9,1.9l-0.6-0.8c1.2-0.5,2.2-1.2,3.2-2c-0.2-0.6-0.4-1.2-0.5-1.8c-0.2-0.6-0.3-1.4-0.4-2.4l-1.8,0.3l-0.2-1
			l1.8-0.3c-0.1-1.2-0.2-2.6-0.2-4h1c0,1.4,0,2.7,0.1,3.9L186.8,169.7z M184.7,166.8c0.7,0.7,1.2,1.4,1.5,1.8l-0.8,0.6
			c-0.4-0.6-0.9-1.2-1.5-1.9L184.7,166.8z"/>
		<path class="st8" d="M191,166.5h1v2.4h2.9c0,4.6-0.1,7.4-0.2,8.5c-0.1,1.2-0.8,1.7-2.1,1.7l-1.1-0.1l-0.3-0.9c0.6,0,1,0.1,1.2,0.1
			c0.7,0,1.2-0.4,1.3-1.2c0.1-0.8,0.1-3.2,0.2-7.1H192v0.3c0,4.2-1,7.3-2.7,9.2l-0.8-0.7c1.7-1.7,2.5-4.6,2.5-8.5v-0.3h-2.2v-1h2.2
			V166.5L191,166.5z M200.7,168.2V179h-1v-0.9h-2.5v0.9h-1v-10.9H200.7z M197.2,177.1h2.5v-8h-2.5V177.1z"/>
		<path class="st8" d="M211.9,179c-0.5,0-1.3,0-2.5,0c-0.9,0-1.6-0.1-2.2-0.3c-0.5-0.2-1-0.5-1.5-1c-0.2-0.2-0.4-0.4-0.5-0.4
			c-0.3,0-0.9,0.6-1.6,1.9l-0.8-0.7c0.7-1.2,1.4-1.9,1.9-2.1v-4.3h-2v-0.9h2.9v5.2c0.1,0.1,0.2,0.2,0.4,0.3c0.3,0.4,0.7,0.7,1.1,0.9
			c0.4,0.2,1.1,0.3,1.9,0.3c1,0,1.9,0,2.8,0c0.4,0,1.1,0,2,0c0.8,0,1.3,0,1.6-0.1l-0.2,1L211.9,179L211.9,179L211.9,179z
			 M203.8,166.6c1,0.7,1.8,1.5,2.4,2.2l-0.7,0.7c-0.6-0.7-1.4-1.5-2.4-2.2L203.8,166.6z M207,167.6h3.6v-1.1h0.9v1.1h3.5v0.9h-3.5
			v1.2h3v3.6h-3v4.3h-0.9v-3.9c-0.7,1.3-1.8,2.3-3.3,3.2l-0.6-0.8c1.5-0.8,2.7-1.7,3.3-2.8h-2.4v-3.6h3v-1.2H207V167.6z
			 M210.5,172.3v-1.8h-2.1v1.8H210.5z M213.6,172.3v-1.8h-2.1v1.8H213.6z M212.6,173.7c1,0.8,1.8,1.5,2.5,2.4l-0.7,0.7
			c-0.6-0.7-1.4-1.5-2.5-2.4L212.6,173.7z"/>
		<path class="st8" d="M218.3,169.9c-0.3,0.4-0.7,0.8-1.2,1.2l-0.6-0.8c1.2-1.1,2.2-2.4,2.8-3.9l0.9,0.2c-0.1,0.3-0.3,0.7-0.5,1.1h3
			c-0.2-0.5-0.4-0.9-0.6-1.2l1-0.2c0.2,0.4,0.4,0.8,0.6,1.4h4.5v0.8h-4.5v1h3.9v0.8h-3.9v0.9h3.9v0.8h-3.9v1h4.7v0.9h-10.3
			L218.3,169.9L218.3,169.9z M217,175.9v-0.9h5.6v-0.7h1v0.7h5.5v0.9h-4.2c1,0.9,2.4,1.6,4.4,2.2l-0.4,0.9c-2.3-0.8-4-1.8-4.9-3
			h-0.3v3.4h-1v-3.4h-0.3c-0.9,1.2-2.5,2.2-4.9,3.1l-0.5-0.9c2.1-0.7,3.6-1.4,4.5-2.2H217L217,175.9z M222.9,169.5v-1h-3.6l-0.1,0.1
			v0.8H222.9L222.9,169.5z M222.9,171.2v-0.9h-3.6v0.9H222.9z M222.9,173v-1h-3.6v1H222.9z"/>
		<path class="st8" d="M236,172.8h-2.9c-0.1,0.5-0.3,0.9-0.4,1.4h3.7v5h-0.9v-0.8h-2.2v0.8h-0.9V175c-0.4,0.8-0.8,1.5-1.4,2.1
			l-0.5-0.8c0.8-0.9,1.3-2,1.7-3.5h-1.1v-0.9h1.3c0.1-0.6,0.2-1.1,0.2-1.6h-1.9v-0.9h2c0-0.7,0.1-1.2,0.1-1.6h-1.6V167h4.8v2.5h0.8
			v0.9H236L236,172.8C236,172.8,236,172.8,236,172.8z M233.3,177.4h2.2v-2.4h-2.2V177.4z M233.6,170.4c0,0.4-0.1,0.9-0.2,1.6h1.8
			v-1.6H233.6z M233.8,167.8c0,0.4,0,1-0.1,1.6h1.4v-1.6H233.8z M239.7,170.1h-2.5v-1h1.7c-0.4-0.9-0.8-1.6-1.2-2.2l0.9-0.4
			c0.4,0.7,0.8,1.4,1.2,2.2l-0.8,0.4h1.6c0.4-0.9,0.8-1.8,1-2.7l1,0.3c-0.3,0.9-0.6,1.7-1,2.4h1.6v1h-2.3v2h2v0.9h-2v2h2.6v1h-2.6
			v3.2h-1V176h-2.6v-1h2.6v-2h-2.2v-0.9h2.2L239.7,170.1L239.7,170.1z"/>
	</g>
	<g id="XMLID_342_">
		<g>
			<path class="st9" d="M134,186c-7.2,0-13-5.8-13-13c0-7.2,5.8-13,13-13c6.5,0,11.9,4.8,12.8,11h2c-1-7.3-7.2-13-14.9-13
				c-8.3,0-15,6.7-15,15c0,8.3,6.7,15,15,15c7.6,0,13.9-5.7,14.9-13h-2C145.9,181.2,140.5,186,134,186z M141,169l-7-4l-7,4v8
				l3.2,1.8c0.2-0.7,0.6-1.2,1-1.7l-2.2-1.3v-3.7l5,2.9l5-2.9v3.7l-4.1,2.4c-0.3-0.1-0.6-0.2-0.9-0.2c-1.1,0-2,0.9-2,2
				c0,1.1,0.9,2,2,2s2-0.9,2-2c0,0,0-0.1,0-0.1l5-2.9V169z M134,172.7l-4.7-2.7l4.7-2.7l4.7,2.7L134,172.7z"/>
		</g>
	</g>
</g>
<g>
	<rect x="338" y="62" class="st2" width="179" height="146"/>
</g>
<g>
	<rect x="588" y="62" class="st2" width="179" height="146"/>
</g>
<g>
	<polygon class="st0" points="423,303 428,308 433,303 	"/>
	<line class="st1" x1="428" y1="279" x2="428" y2="303"/>
</g>
<line class="st1" x1="177.5" y1="294" x2="177.5" y2="279"/>
<line class="st1" x1="684" y1="294" x2="684" y2="279"/>
<line class="st1" x1="177" y1="294" x2="685" y2="294"/>
<g>
	<g class="st3">
		<rect x="349" y="94" class="st4" width="157" height="50"/>
	</g>
	<g>
		<rect x="347.5" y="92.5" class="st5" width="156" height="49"/>
		<path class="st6" d="M503,93v48H348V93H503 M504,92H347v50h157V92L504,92z"/>
	</g>
	<g>
		<path class="st8" d="M410,123.1l-0.2-1c0.5,0,0.9,0.1,1.1,0.1c0.4,0,0.5-0.2,0.5-0.6v-3.4c-0.4,0.1-1,0.4-1.7,0.6l-0.3-1
			c0.6-0.2,1.3-0.4,2-0.6v-3.1h-1.7v-1h1.7v-2.6h1v2.6h1.2v1h-1.2v2.7c0.4-0.2,0.8-0.4,1.2-0.6v1c-0.4,0.2-0.8,0.4-1.2,0.6v4.1
			c0,0.8-0.4,1.3-1.2,1.3L410,123.1L410,123.1z M418,116.3c-0.1,0.4-0.3,0.7-0.5,1.1h4.8v1h-1.5c-0.2,1-0.6,1.9-1.3,2.6
			c1,0.5,1.9,0.9,2.8,1.4l-0.5,0.8c-0.8-0.5-1.8-1-2.9-1.6c-0.9,0.7-2.4,1.2-4.4,1.6l-0.4-0.9c1.7-0.3,2.9-0.7,3.8-1.2
			c-0.7-0.3-1.6-0.7-2.7-1.2c0.4-0.6,0.7-1.1,1-1.7h-1.9v-1h2.4c0.2-0.4,0.4-0.8,0.5-1.2L418,116.3z M416.4,112.8
			c0.3,0.6,0.7,1.3,1,2.1h1.4c0.4-0.7,0.7-1.4,1-2.2l1,0.3c-0.3,0.7-0.6,1.3-0.9,1.9h2.3v1h-7.8v-1h2.1c-0.3-0.7-0.6-1.2-0.9-1.7
			L416.4,112.8z M418.3,110.3c0.1,0.4,0.3,0.8,0.5,1.3h3.1v0.9h-7.2v-0.9h3.1c-0.1-0.4-0.3-0.8-0.5-1.2L418.3,110.3z M417,118.4
			c-0.3,0.5-0.5,0.9-0.8,1.2c0.8,0.3,1.6,0.6,2.4,1c0.6-0.6,1.1-1.3,1.3-2.2H417z"/>
		<path class="st8" d="M427.1,111l0.8-0.5c1.2,0.9,2.3,2.4,3.2,4.7c1.3,3.4,3.1,5.7,5.3,7.1l-0.6,0.8c-2.3-1.4-4.1-3.9-5.6-7.6
			c-0.1-0.3-0.2-0.5-0.2-0.6c-0.9,3.6-2.9,6.3-5.8,8.2l-0.6-0.9c3-2,4.9-4.8,5.8-8.5C428.7,112.5,428,111.6,427.1,111z"/>
		<path class="st8" d="M439.5,118.5c-0.1,2-0.4,3.6-1,4.8l-0.8-0.7c0.6-1.2,0.8-2.9,0.9-4.8V111h4.1v10.9c0,0.9-0.4,1.3-1.2,1.3
			h-1.1l-0.2-0.9c0.5,0,0.9,0.1,1.1,0.1c0.4,0,0.5-0.3,0.5-0.8v-3.2H439.5L439.5,118.5z M441.8,114.3v-2.4h-2.3v2.4H441.8z
			 M439.5,115.2v2.3h2.3v-2.3H439.5z M444.9,117.1v6.2h-1V111h5.7c0,1.7-0.1,2.9-0.3,3.4c-0.2,0.6-0.7,0.9-1.6,0.9h-1.1l-0.3-0.9
			l0.9,0c0.3,0,0.6,0,0.7-0.1c0.2-0.1,0.3-0.2,0.4-0.4c0.1-0.3,0.2-1,0.2-2.1h-3.7v4.2h4.8v0.9c-0.3,1.4-0.7,2.7-1.4,3.7
			c0.6,0.6,1.4,1.2,2.2,1.7l-0.5,0.9c-0.9-0.5-1.6-1.1-2.3-1.7c-0.6,0.7-1.3,1.3-2.2,1.7l-0.5-0.8c0.8-0.4,1.5-1,2-1.7
			c-0.9-1.1-1.5-2.3-1.8-3.7L444.9,117.1L444.9,117.1z M446.1,117.1c0.3,1.1,0.8,2,1.5,2.9c0.5-0.8,0.9-1.8,1.1-2.9H446.1z"/>
	</g>
	<g id="XMLID_535_">
		<g>
			<path class="st9" d="M383,130c-7.2,0-13-5.8-13-13s5.8-13,13-13c6.5,0,11.9,4.8,12.8,11h2c-1-7.3-7.2-13-14.9-13
				c-8.3,0-15,6.7-15,15s6.7,15,15,15c7.6,0,13.9-5.7,14.9-13h-2C394.9,125.2,389.5,130,383,130z M390,113l-7-4l-7,4v8l3.2,1.8
				c0.2-0.7,0.6-1.2,1-1.7l-2.2-1.3v-3.7l5,2.9l5-2.9v3.7l-4.1,2.4c-0.3-0.1-0.6-0.2-0.9-0.2c-1.1,0-2,0.9-2,2c0,1.1,0.9,2,2,2
				s2-0.9,2-2c0,0,0-0.1,0-0.1l5-2.9V113z M383,116.7l-4.7-2.7l4.7-2.7l4.7,2.7L383,116.7z"/>
		</g>
	</g>
</g>
<g>
	<g class="st3">
		<rect x="349" y="150" class="st4" width="157" height="50"/>
	</g>
	<g>
		<rect x="347.5" y="148.5" class="st5" width="156" height="49"/>
		<path class="st6" d="M503,149v48H348v-48H503 M504,148H347v50h157V148L504,148z"/>
	</g>
	<g>
		<path class="st8" d="M412.2,174.2c-0.6,1.8-1.1,3.4-1.8,4.8l-0.9-0.4c0.7-1.5,1.3-3.1,1.8-4.8L412.2,174.2z M410.3,170.2
			c0.8,0.7,1.5,1.3,2.1,1.9l-0.7,0.7c-0.5-0.7-1.2-1.3-2-2L410.3,170.2z M410.4,166.6c0.8,0.6,1.4,1.2,2,1.8l-0.7,0.7
			c-0.5-0.6-1.1-1.2-2-1.9L410.4,166.6z M413.6,169.6h-1.1v-1h2c-0.1-0.7-0.4-1.4-0.6-2.1l1-0.2c0.2,0.7,0.4,1.4,0.6,2.3h1.6v1h-2.5
			v1c0,0.3,0,0.6,0,1.1h2.3c0,3.2-0.1,5.2-0.2,6c-0.1,0.9-0.5,1.3-1.3,1.3l-1-0.1l-0.2-0.9c0.6,0,1,0,1.1,0c0.3,0,0.4-0.3,0.5-0.8
			c0.1-0.5,0.2-2.1,0.2-4.7h-1.4c-0.2,2.9-0.8,5.1-1.9,6.6l-0.7-0.7c1.1-1.7,1.7-4.3,1.7-8L413.6,169.6
			C413.6,169.6,413.6,169.6,413.6,169.6z M418.6,169.4c-0.4,0.9-0.8,1.7-1.3,2.3l-0.6-0.8c0.9-1.1,1.5-2.6,1.8-4.6l1,0.2
			c-0.1,0.6-0.3,1.2-0.4,1.9h3.5v1L418.6,169.4L418.6,169.4z M418.2,170.9h3.8v0.9c-0.4,0.6-0.9,1.1-1.5,1.7v0.9h1.9v0.9h-1.9v2.5
			c0,0.9-0.4,1.3-1.1,1.3h-1.2l-0.2-0.9c0.4,0,0.8,0,1.1,0c0.3,0,0.4-0.3,0.4-0.8v-2.2h-2.1v-0.9h2.1v-1c0.6-0.6,1-1.1,1.3-1.5h-2.7
			L418.2,170.9L418.2,170.9z"/>
		<path class="st8" d="M424.8,170.1c0.8,0.9,1.6,1.8,2.2,2.6c0.4-1.2,0.7-2.5,0.9-3.9h-3.7v-1h4.7v0.9c-0.1,1.8-0.5,3.5-1.1,4.9
			c0.6,0.8,1.2,1.7,1.7,2.4l-0.7,0.7c-0.4-0.7-0.9-1.5-1.4-2.1c-0.8,1.4-1.8,2.7-3.1,3.7l-0.6-0.8c1.3-1.1,2.3-2.4,3-3.9
			c-0.8-1.1-1.7-2-2.5-2.9L424.8,170.1z M435.8,169.7l0.2,1l-3.8,0.6c0,0.6,0.1,1.2,0.2,1.8c0.1,0.6,0.2,1.2,0.4,1.8
			c0.8-0.9,1.4-1.9,2-3.1l0.8,0.5c-0.8,1.4-1.6,2.6-2.5,3.6c0.1,0.3,0.2,0.6,0.3,0.8c0.4,0.8,0.8,1.2,1.2,1.2
			c0.2-0.1,0.5-0.9,0.7-2.5l0.9,0.6c-0.2,0.8-0.4,1.5-0.6,2c-0.3,0.7-0.6,1-0.9,1c-0.6,0-1.1-0.4-1.7-1.3c-0.2-0.4-0.4-0.7-0.6-1.1
			c-0.9,0.8-1.9,1.5-2.9,1.9l-0.6-0.8c1.2-0.5,2.2-1.2,3.2-2c-0.2-0.6-0.4-1.2-0.5-1.8c-0.2-0.6-0.3-1.4-0.4-2.4l-1.8,0.3l-0.2-1
			l1.8-0.3c-0.1-1.2-0.2-2.6-0.2-4h1c0,1.4,0,2.7,0.1,3.9L435.8,169.7z M433.7,166.8c0.7,0.7,1.2,1.4,1.5,1.8l-0.8,0.6
			c-0.4-0.6-0.9-1.2-1.5-1.9L433.7,166.8z"/>
		<path class="st8" d="M440,166.5h1v2.4h2.9c0,4.6-0.1,7.4-0.2,8.5c-0.1,1.2-0.8,1.7-2.1,1.7l-1.1-0.1l-0.3-0.9c0.6,0,1,0.1,1.2,0.1
			c0.7,0,1.2-0.4,1.3-1.2c0.1-0.8,0.1-3.2,0.2-7.1H441v0.3c0,4.2-1,7.3-2.7,9.2l-0.8-0.7c1.7-1.7,2.5-4.6,2.5-8.5v-0.3h-2.2v-1h2.2
			V166.5z M449.7,168.2V179h-1v-0.9h-2.5v0.9h-1v-10.9H449.7z M446.2,177.1h2.5v-8h-2.5V177.1z"/>
		<path class="st8" d="M460.9,179c-0.5,0-1.3,0-2.5,0c-0.9,0-1.6-0.1-2.2-0.3c-0.5-0.2-1-0.5-1.5-1c-0.2-0.2-0.4-0.4-0.5-0.4
			c-0.3,0-0.9,0.6-1.6,1.9l-0.8-0.7c0.7-1.2,1.4-1.9,1.9-2.1v-4.3h-2v-0.9h2.9v5.2c0.1,0.1,0.2,0.2,0.4,0.3c0.3,0.4,0.7,0.7,1.1,0.9
			c0.4,0.2,1.1,0.3,1.9,0.3c1,0,1.9,0,2.8,0c0.4,0,1.1,0,2,0c0.8,0,1.3,0,1.6-0.1l-0.2,1L460.9,179L460.9,179L460.9,179z
			 M452.8,166.6c1,0.7,1.8,1.5,2.4,2.2l-0.7,0.7c-0.6-0.7-1.4-1.5-2.4-2.2L452.8,166.6z M456,167.6h3.6v-1.1h0.9v1.1h3.5v0.9h-3.5
			v1.2h3v3.6h-3v4.3h-0.9v-3.9c-0.7,1.3-1.8,2.3-3.3,3.2l-0.6-0.8c1.5-0.8,2.7-1.7,3.3-2.8h-2.4v-3.6h3v-1.2H456V167.6L456,167.6z
			 M459.5,172.3v-1.8h-2.1v1.8H459.5z M462.6,172.3v-1.8h-2.1v1.8H462.6z M461.6,173.7c1,0.8,1.8,1.5,2.5,2.4l-0.7,0.7
			c-0.6-0.7-1.4-1.5-2.5-2.4L461.6,173.7z"/>
		<path class="st8" d="M467.3,169.9c-0.3,0.4-0.7,0.8-1.2,1.2l-0.6-0.8c1.2-1.1,2.2-2.4,2.8-3.9l0.9,0.2c-0.1,0.3-0.3,0.7-0.5,1.1h3
			c-0.2-0.5-0.4-0.9-0.6-1.2l1-0.2c0.2,0.4,0.4,0.8,0.6,1.4h4.5v0.8h-4.5v1h3.9v0.8h-3.9v0.9h3.9v0.8h-3.9v1h4.7v0.9h-10.3
			L467.3,169.9L467.3,169.9z M466,175.9v-0.9h5.6v-0.7h1v0.7h5.5v0.9h-4.2c1,0.9,2.4,1.6,4.4,2.2l-0.4,0.9c-2.3-0.8-4-1.8-4.9-3
			h-0.3v3.4h-1v-3.4h-0.3c-0.9,1.2-2.5,2.2-4.9,3.1l-0.5-0.9c2.1-0.7,3.6-1.4,4.5-2.2H466L466,175.9z M471.9,169.5v-1h-3.6l-0.1,0.1
			v0.8H471.9L471.9,169.5z M471.9,171.2v-0.9h-3.6v0.9H471.9z M471.9,173v-1h-3.6v1H471.9z"/>
		<path class="st8" d="M485,172.8h-2.9c-0.1,0.5-0.3,0.9-0.4,1.4h3.7v5h-0.9v-0.8h-2.2v0.8h-0.9V175c-0.4,0.8-0.8,1.5-1.4,2.1
			l-0.5-0.8c0.8-0.9,1.3-2,1.7-3.5h-1.1v-0.9h1.3c0.1-0.6,0.2-1.1,0.2-1.6h-1.9v-0.9h2c0-0.7,0.1-1.2,0.1-1.6h-1.6V167h4.8v2.5h0.8
			v0.9H485L485,172.8L485,172.8z M482.3,177.4h2.2v-2.4h-2.2V177.4z M482.6,170.4c0,0.4-0.1,0.9-0.2,1.6h1.8v-1.6H482.6z
			 M482.8,167.8c0,0.4,0,1-0.1,1.6h1.4v-1.6H482.8z M488.7,170.1h-2.5v-1h1.7c-0.4-0.9-0.8-1.6-1.2-2.2l0.9-0.4
			c0.4,0.7,0.8,1.4,1.2,2.2l-0.8,0.4h1.6c0.4-0.9,0.8-1.8,1-2.7l1,0.3c-0.3,0.9-0.6,1.7-1,2.4h1.6v1h-2.3v2h2v0.9h-2v2h2.6v1h-2.6
			v3.2h-1V176h-2.6v-1h2.6v-2h-2.2v-0.9h2.2L488.7,170.1L488.7,170.1z"/>
	</g>
	<g id="XMLID_91_">
		<g>
			<path class="st9" d="M383,186c-7.2,0-13-5.8-13-13c0-7.2,5.8-13,13-13c6.5,0,11.9,4.8,12.8,11h2c-1-7.3-7.2-13-14.9-13
				c-8.3,0-15,6.7-15,15c0,8.3,6.7,15,15,15c7.6,0,13.9-5.7,14.9-13h-2C394.9,181.2,389.5,186,383,186z M390,169l-7-4l-7,4v8
				l3.2,1.8c0.2-0.7,0.6-1.2,1-1.7l-2.2-1.3v-3.7l5,2.9l5-2.9v3.7l-4.1,2.4c-0.3-0.1-0.6-0.2-0.9-0.2c-1.1,0-2,0.9-2,2
				c0,1.1,0.9,2,2,2s2-0.9,2-2c0,0,0-0.1,0-0.1l5-2.9V169z M383,172.7l-4.7-2.7l4.7-2.7l4.7,2.7L383,172.7z"/>
		</g>
	</g>
</g>
<g>
	<g class="st3">
		<rect x="600" y="94" class="st4" width="157" height="50"/>
	</g>
	<g>
		<rect x="598.5" y="92.5" class="st5" width="156" height="49"/>
		<path class="st6" d="M754,93v48H599V93H754 M755,92H598v50h157V92L755,92z"/>
	</g>
	<g>
		<path class="st8" d="M661,123.1l-0.2-1c0.5,0,0.9,0.1,1.1,0.1c0.4,0,0.5-0.2,0.5-0.6v-3.4c-0.4,0.1-1,0.4-1.7,0.6l-0.3-1
			c0.6-0.2,1.3-0.4,2-0.6v-3.1h-1.7v-1h1.7v-2.6h1v2.6h1.2v1h-1.2v2.7c0.4-0.2,0.8-0.4,1.2-0.6v1c-0.4,0.2-0.8,0.4-1.2,0.6v4.1
			c0,0.8-0.4,1.3-1.2,1.3L661,123.1L661,123.1z M669,116.3c-0.1,0.4-0.3,0.7-0.5,1.1h4.8v1h-1.5c-0.2,1-0.6,1.9-1.3,2.6
			c1,0.5,1.9,0.9,2.8,1.4l-0.5,0.8c-0.8-0.5-1.8-1-2.9-1.6c-0.9,0.7-2.4,1.2-4.4,1.6l-0.4-0.9c1.7-0.3,2.9-0.7,3.8-1.2
			c-0.7-0.3-1.6-0.7-2.7-1.2c0.4-0.6,0.7-1.1,1-1.7h-1.9v-1h2.4c0.2-0.4,0.4-0.8,0.5-1.2L669,116.3z M667.4,112.8
			c0.3,0.6,0.7,1.3,1,2.1h1.4c0.4-0.7,0.7-1.4,1-2.2l1,0.3c-0.3,0.7-0.6,1.3-0.9,1.9h2.3v1h-7.8v-1h2.1c-0.3-0.7-0.6-1.2-0.9-1.7
			L667.4,112.8z M669.3,110.3c0.1,0.4,0.3,0.8,0.5,1.3h3.1v0.9h-7.2v-0.9h3.1c-0.1-0.4-0.3-0.8-0.5-1.2L669.3,110.3z M668,118.4
			c-0.3,0.5-0.5,0.9-0.8,1.2c0.8,0.3,1.6,0.6,2.4,1c0.6-0.6,1.1-1.3,1.3-2.2H668z"/>
		<path class="st8" d="M678.1,111l0.8-0.5c1.2,0.9,2.3,2.4,3.2,4.7c1.3,3.4,3.1,5.7,5.3,7.1l-0.6,0.8c-2.3-1.4-4.1-3.9-5.6-7.6
			c-0.1-0.3-0.2-0.5-0.2-0.6c-0.9,3.6-2.9,6.3-5.8,8.2l-0.6-0.9c3-2,4.9-4.8,5.8-8.5C679.7,112.5,679,111.6,678.1,111z"/>
		<path class="st8" d="M690.5,118.5c-0.1,2-0.4,3.6-1,4.8l-0.8-0.7c0.6-1.2,0.8-2.9,0.9-4.8V111h4.1v10.9c0,0.9-0.4,1.3-1.2,1.3
			h-1.1l-0.2-0.9c0.5,0,0.9,0.1,1.1,0.1c0.4,0,0.5-0.3,0.5-0.8v-3.2H690.5L690.5,118.5z M692.8,114.3v-2.4h-2.3v2.4H692.8z
			 M690.5,115.2v2.3h2.3v-2.3H690.5z M695.9,117.1v6.2h-1V111h5.7c0,1.7-0.1,2.9-0.3,3.4c-0.2,0.6-0.7,0.9-1.6,0.9h-1.1l-0.3-0.9
			l0.9,0c0.3,0,0.6,0,0.7-0.1c0.2-0.1,0.3-0.2,0.4-0.4c0.1-0.3,0.2-1,0.2-2.1h-3.7v4.2h4.8v0.9c-0.3,1.4-0.7,2.7-1.4,3.7
			c0.6,0.6,1.4,1.2,2.2,1.7l-0.5,0.9c-0.9-0.5-1.6-1.1-2.3-1.7c-0.6,0.7-1.3,1.3-2.2,1.7l-0.5-0.8c0.8-0.4,1.5-1,2-1.7
			c-0.9-1.1-1.5-2.3-1.8-3.7L695.9,117.1L695.9,117.1z M697.1,117.1c0.3,1.1,0.8,2,1.5,2.9c0.5-0.8,0.9-1.8,1.1-2.9H697.1z"/>
	</g>
	<g id="XMLID_585_">
		<g>
			<path class="st9" d="M634,130c-7.2,0-13-5.8-13-13s5.8-13,13-13c6.5,0,11.9,4.8,12.8,11h2c-1-7.3-7.2-13-14.9-13
				c-8.3,0-15,6.7-15,15s6.7,15,15,15c7.6,0,13.9-5.7,14.9-13h-2C645.9,125.2,640.5,130,634,130z M641,113l-7-4l-7,4v8l3.2,1.8
				c0.2-0.7,0.6-1.2,1-1.7l-2.2-1.3v-3.7l5,2.9l5-2.9v3.7l-4.1,2.4c-0.3-0.1-0.6-0.2-0.9-0.2c-1.1,0-2,0.9-2,2c0,1.1,0.9,2,2,2
				s2-0.9,2-2c0,0,0-0.1,0-0.1l5-2.9V113z M634,116.7l-4.7-2.7l4.7-2.7l4.7,2.7L634,116.7z"/>
		</g>
	</g>
</g>
<g>
	<g class="st3">
		<rect x="600" y="150" class="st4" width="157" height="50"/>
	</g>
	<g>
		<rect x="598.5" y="148.5" class="st5" width="156" height="49"/>
		<path class="st6" d="M754,149v48H599v-48H754 M755,148H598v50h157V148L755,148z"/>
	</g>
	<g>
		<path class="st8" d="M663.2,174.2c-0.6,1.8-1.1,3.4-1.8,4.8l-0.9-0.4c0.7-1.5,1.3-3.1,1.8-4.8L663.2,174.2z M661.3,170.2
			c0.8,0.7,1.5,1.3,2.1,1.9l-0.7,0.7c-0.5-0.7-1.2-1.3-2-2L661.3,170.2z M661.4,166.6c0.8,0.6,1.4,1.2,2,1.8l-0.7,0.7
			c-0.5-0.6-1.1-1.2-2-1.9L661.4,166.6z M664.6,169.6h-1.1v-1h2c-0.1-0.7-0.4-1.4-0.6-2.1l1-0.2c0.2,0.7,0.4,1.4,0.6,2.3h1.6v1h-2.5
			v1c0,0.3,0,0.6,0,1.1h2.3c0,3.2-0.1,5.2-0.2,6c-0.1,0.9-0.5,1.3-1.3,1.3l-1-0.1l-0.2-0.9c0.6,0,1,0,1.1,0c0.3,0,0.4-0.3,0.5-0.8
			c0.1-0.5,0.2-2.1,0.2-4.7h-1.4c-0.2,2.9-0.8,5.1-1.9,6.6l-0.7-0.7c1.1-1.7,1.7-4.3,1.7-8L664.6,169.6
			C664.6,169.6,664.6,169.6,664.6,169.6z M669.6,169.4c-0.4,0.9-0.8,1.7-1.3,2.3l-0.6-0.8c0.9-1.1,1.5-2.6,1.8-4.6l1,0.2
			c-0.1,0.6-0.3,1.2-0.4,1.9h3.5v1L669.6,169.4L669.6,169.4z M669.2,170.9h3.8v0.9c-0.4,0.6-0.9,1.1-1.5,1.7v0.9h1.9v0.9h-1.9v2.5
			c0,0.9-0.4,1.3-1.1,1.3h-1.2l-0.2-0.9c0.4,0,0.8,0,1.1,0c0.3,0,0.4-0.3,0.4-0.8v-2.2h-2.1v-0.9h2.1v-1c0.6-0.6,1-1.1,1.3-1.5h-2.7
			L669.2,170.9L669.2,170.9z"/>
		<path class="st8" d="M675.8,170.1c0.8,0.9,1.6,1.8,2.2,2.6c0.4-1.2,0.7-2.5,0.9-3.9h-3.7v-1h4.7v0.9c-0.1,1.8-0.5,3.5-1.1,4.9
			c0.6,0.8,1.2,1.7,1.7,2.4l-0.7,0.7c-0.4-0.7-0.9-1.5-1.4-2.1c-0.8,1.4-1.8,2.7-3.1,3.7l-0.6-0.8c1.3-1.1,2.3-2.4,3-3.9
			c-0.8-1.1-1.7-2-2.5-2.9L675.8,170.1z M686.8,169.7l0.2,1l-3.8,0.6c0,0.6,0.1,1.2,0.2,1.8c0.1,0.6,0.2,1.2,0.4,1.8
			c0.8-0.9,1.4-1.9,2-3.1l0.8,0.5c-0.8,1.4-1.6,2.6-2.5,3.6c0.1,0.3,0.2,0.6,0.3,0.8c0.4,0.8,0.8,1.2,1.2,1.2
			c0.2-0.1,0.5-0.9,0.7-2.5l0.9,0.6c-0.2,0.8-0.4,1.5-0.6,2c-0.3,0.7-0.6,1-0.9,1c-0.6,0-1.1-0.4-1.7-1.3c-0.2-0.4-0.4-0.7-0.6-1.1
			c-0.9,0.8-1.9,1.5-2.9,1.9l-0.6-0.8c1.2-0.5,2.2-1.2,3.2-2c-0.2-0.6-0.4-1.2-0.5-1.8c-0.2-0.6-0.3-1.4-0.4-2.4l-1.8,0.3l-0.2-1
			l1.8-0.3c-0.1-1.2-0.2-2.6-0.2-4h1c0,1.4,0,2.7,0.1,3.9L686.8,169.7z M684.7,166.8c0.7,0.7,1.2,1.4,1.5,1.8l-0.8,0.6
			c-0.4-0.6-0.9-1.2-1.5-1.9L684.7,166.8z"/>
		<path class="st8" d="M691,166.5h1v2.4h2.9c0,4.6-0.1,7.4-0.2,8.5c-0.1,1.2-0.8,1.7-2.1,1.7l-1.1-0.1l-0.3-0.9c0.6,0,1,0.1,1.2,0.1
			c0.7,0,1.2-0.4,1.3-1.2c0.1-0.8,0.1-3.2,0.2-7.1H692v0.3c0,4.2-1,7.3-2.7,9.2l-0.8-0.7c1.7-1.7,2.5-4.6,2.5-8.5v-0.3h-2.2v-1h2.2
			V166.5z M700.7,168.2V179h-1v-0.9h-2.5v0.9h-1v-10.9H700.7z M697.2,177.1h2.5v-8h-2.5V177.1z"/>
		<path class="st8" d="M711.9,179c-0.5,0-1.3,0-2.5,0c-0.9,0-1.6-0.1-2.2-0.3c-0.5-0.2-1-0.5-1.5-1c-0.2-0.2-0.4-0.4-0.5-0.4
			c-0.3,0-0.9,0.6-1.6,1.9l-0.8-0.7c0.7-1.2,1.4-1.9,1.9-2.1v-4.3h-2v-0.9h2.9v5.2c0.1,0.1,0.2,0.2,0.4,0.3c0.3,0.4,0.7,0.7,1.1,0.9
			c0.4,0.2,1.1,0.3,1.9,0.3c1,0,1.9,0,2.8,0c0.4,0,1.1,0,2,0c0.8,0,1.3,0,1.6-0.1l-0.2,1L711.9,179L711.9,179L711.9,179z
			 M703.8,166.6c1,0.7,1.8,1.5,2.4,2.2l-0.7,0.7c-0.6-0.7-1.4-1.5-2.4-2.2L703.8,166.6z M707,167.6h3.6v-1.1h0.9v1.1h3.5v0.9h-3.5
			v1.2h3v3.6h-3v4.3h-0.9v-3.9c-0.7,1.3-1.8,2.3-3.3,3.2l-0.6-0.8c1.5-0.8,2.7-1.7,3.3-2.8h-2.4v-3.6h3v-1.2H707V167.6z
			 M710.5,172.3v-1.8h-2.1v1.8H710.5z M713.6,172.3v-1.8h-2.1v1.8H713.6z M712.6,173.7c1,0.8,1.8,1.5,2.5,2.4l-0.7,0.7
			c-0.6-0.7-1.4-1.5-2.4-2.4L712.6,173.7z"/>
		<path class="st8" d="M718.3,169.9c-0.3,0.4-0.7,0.8-1.2,1.2l-0.6-0.8c1.2-1.1,2.2-2.4,2.8-3.9l0.9,0.2c-0.1,0.3-0.3,0.7-0.5,1.1h3
			c-0.2-0.5-0.4-0.9-0.6-1.2l1-0.2c0.2,0.4,0.4,0.8,0.6,1.4h4.5v0.8h-4.5v1h3.9v0.8h-3.9v0.9h3.9v0.8h-3.9v1h4.7v0.9h-10.3
			L718.3,169.9L718.3,169.9z M717,175.9v-0.9h5.6v-0.7h1v0.7h5.5v0.9h-4.2c1,0.9,2.4,1.6,4.4,2.2l-0.4,0.9c-2.3-0.8-4-1.8-4.9-3
			h-0.3v3.4h-1v-3.4h-0.3c-0.9,1.2-2.5,2.2-4.9,3.1l-0.5-0.9c2.1-0.7,3.6-1.4,4.5-2.2H717L717,175.9z M722.9,169.5v-1h-3.6l-0.1,0.1
			v0.8H722.9L722.9,169.5z M722.9,171.2v-0.9h-3.6v0.9H722.9z M722.9,173v-1h-3.6v1H722.9z"/>
		<path class="st8" d="M736,172.8h-2.9c-0.1,0.5-0.3,0.9-0.4,1.4h3.7v5h-0.9v-0.8h-2.2v0.8h-0.9V175c-0.4,0.8-0.8,1.5-1.4,2.1
			l-0.5-0.8c0.8-0.9,1.3-2,1.7-3.5h-1.1v-0.9h1.3c0.1-0.6,0.2-1.1,0.2-1.6h-1.9v-0.9h2c0-0.7,0.1-1.2,0.1-1.6h-1.6V167h4.8v2.5h0.8
			v0.9H736L736,172.8C736,172.8,736,172.8,736,172.8z M733.3,177.4h2.2v-2.4h-2.2V177.4z M733.6,170.4c0,0.4-0.1,0.9-0.2,1.6h1.8
			v-1.6H733.6z M733.8,167.8c0,0.4,0,1-0.1,1.6h1.4v-1.6H733.8z M739.7,170.1h-2.5v-1h1.7c-0.4-0.9-0.8-1.6-1.2-2.2l0.9-0.4
			c0.4,0.7,0.8,1.4,1.2,2.2l-0.8,0.4h1.6c0.4-0.9,0.8-1.8,1.1-2.7l1,0.3c-0.3,0.9-0.6,1.7-1,2.4h1.6v1h-2.3v2h2v0.9h-2v2h2.6v1h-2.6
			v3.2h-1V176h-2.6v-1h2.6v-2h-2.2v-0.9h2.2L739.7,170.1L739.7,170.1z"/>
	</g>
	<g id="XMLID_567_">
		<g>
			<path class="st9" d="M634,186c-7.2,0-13-5.8-13-13c0-7.2,5.8-13,13-13c6.5,0,11.9,4.8,12.8,11h2c-1-7.3-7.2-13-14.9-13
				c-8.3,0-15,6.7-15,15c0,8.3,6.7,15,15,15c7.6,0,13.9-5.7,14.9-13h-2C645.9,181.2,640.5,186,634,186z M641,169l-7-4l-7,4v8
				l3.2,1.8c0.2-0.7,0.6-1.2,1-1.7l-2.2-1.3v-3.7l5,2.9l5-2.9v3.7l-4.1,2.4c-0.3-0.1-0.6-0.2-0.9-0.2c-1.1,0-2,0.9-2,2
				c0,1.1,0.9,2,2,2s2-0.9,2-2c0,0,0-0.1,0-0.1l5-2.9V169z M634,172.7l-4.7-2.7l4.7-2.7l4.7,2.7L634,172.7z"/>
		</g>
	</g>
</g>
<g>
	<path class="st8" d="M159.3,30c-0.1,0.4-0.1,0.8-0.2,1h5.4v1h-4.9c1,1.3,2.8,2.2,5.6,2.6l-0.5,1c-3.1-0.6-5.1-1.8-6-3.4
		c-0.3,0.6-0.7,1.1-1.2,1.5c-0.9,0.8-2.5,1.5-4.8,1.9l-0.4-1c2-0.4,3.5-0.9,4.4-1.6c0.4-0.3,0.7-0.6,0.9-1h-4.6v-1h5.1
		c0.1-0.4,0.2-0.8,0.3-1.1L159.3,30z M153,24.1h3.2c-0.2-0.5-0.4-0.9-0.7-1.3l1.1-0.2c0.2,0.4,0.4,0.9,0.6,1.5h2.9
		c0.2-0.5,0.4-1,0.5-1.5l1.1,0.1c-0.1,0.5-0.3,0.9-0.6,1.4h3.1v0.9h-5.1v1.3h4.4v0.9h-4.4v1.4h5.6v0.9h-12.2v-0.9h5.6v-1.4h-4.4
		v-0.9h4.4v-1.3H153L153,24.1L153,24.1z"/>
	<path class="st8" d="M167,26.3c0.9,0.7,1.6,1.5,2.2,2.2l-0.7,0.7c-0.5-0.7-1.3-1.5-2.2-2.3L167,26.3z M169.2,30.9
		c-0.5,1.6-1.1,3.2-1.7,4.6l-1-0.4c0.7-1.4,1.2-2.9,1.7-4.5L169.2,30.9z M167.3,23c0.9,0.7,1.7,1.4,2.4,2.1l-0.7,0.7
		c-0.6-0.7-1.3-1.4-2.3-2.2L167.3,23z M171.6,22.9h1v4.2c0,3.9-0.9,6.7-2.5,8.5l-0.8-0.7c1.5-1.6,2.3-4.2,2.4-7.8V22.9z M171,26.6
		c-0.1,1.3-0.4,2.6-0.8,3.8l-0.8-0.3c0.4-1.2,0.7-2.4,0.9-3.7L171,26.6z M173.5,26.5c0.3,1.1,0.5,2.2,0.7,3.5l-0.6,0.3
		c-0.2-1.3-0.4-2.5-0.7-3.6L173.5,26.5z M174.6,23.2h0.9v11.9h-0.9V23.2z M176.3,26.4c0.3,1.1,0.6,2.2,0.9,3.5l-0.6,0.3
		c-0.2-1.2-0.5-2.4-0.8-3.5L176.3,26.4z M177.6,22.8h1v12.8h-1V22.8z"/>
	<path class="st8" d="M182.2,24.7h-1.8v-0.9h4.5v0.9h-1.8v3.2h1.5v0.9h-1.5v3.2c0.5-0.2,1.1-0.4,1.8-0.7v1c-1.3,0.6-2.8,1.2-4.4,1.7
		l-0.3-1c0.8-0.2,1.4-0.4,1.9-0.6v-3.5h-1.6v-0.9h1.6L182.2,24.7L182.2,24.7z M187,28.5h-1.8v-1h7.5v1h-2v5.3c0,0.4,0.2,0.6,0.5,0.6
		h0.4c0.2,0,0.3-0.1,0.4-0.2c0.1-0.1,0.2-0.8,0.3-2l0.9,0.3c-0.1,1.4-0.2,2.2-0.4,2.4c-0.2,0.2-0.5,0.4-1,0.4h-0.9
		c-0.4,0-0.7-0.1-0.9-0.4c-0.2-0.2-0.3-0.6-0.3-0.9v-5.6H188v1c0,2.7-1.3,4.8-3.6,6l-0.8-0.7c2.2-1.1,3.4-2.9,3.4-5.4V28.5L187,28.5
		z M185.6,23.5h6.6v1h-6.6V23.5z"/>
	<path class="st8" d="M202,30.3c0.2,0.7,0.4,1.4,0.4,2.2c0,1.1-0.1,1.9-0.4,2.3c-0.3,0.5-1.1,0.7-2.3,0.7h-0.5l-0.3-0.9h0.7
		c0.8,0,1.3-0.1,1.6-0.4c0.3-0.3,0.4-0.9,0.4-1.8c0-0.3,0-0.5-0.1-0.7c-1.6,1.2-3.6,2.2-6.1,3l-0.5-0.9c2.8-0.8,5-1.9,6.5-3.1
		c-0.1-0.4-0.3-0.8-0.4-1.1c-1.3,1-3.1,1.9-5.4,2.5l-0.5-0.9c2.4-0.6,4.2-1.4,5.4-2.4c-0.1-0.2-0.3-0.5-0.6-0.7l-0.3,0.2
		c-1,0.4-2.2,0.9-3.8,1.3l-0.5-0.8c1.4-0.3,2.6-0.7,3.6-1.1c0.6-0.3,1.1-0.5,1.4-0.7h-3.7v-0.9h8.4v0.9h-3.2
		c-0.5,0.3-0.9,0.6-1.1,0.7c0.5,0.5,0.9,1.1,1.2,1.6c1.3-0.4,2.5-0.9,3.7-1.7l0.7,0.7c-0.8,0.5-1.6,0.9-2.4,1.2
		c0.7,1.8,1.7,3.2,3.2,4.2l-0.7,0.8c-1.5-1.2-2.6-2.8-3.3-4.7L202,30.3z M200.8,22.6c0.1,0.3,0.3,0.8,0.5,1.3h5.3v2.4h-1v-1.5h-9.8
		v1.5h-1V24h5.5c-0.1-0.4-0.3-0.8-0.5-1.1L200.8,22.6z"/>
</g>
<g>
	<path class="st8" d="M105.5,77.9c0,0.4-0.1,0.8-0.3,1.2h5.6v0.7h-5.1c1,1.4,2.9,2.4,5.8,2.9l-0.4,0.7c-3.1-0.6-5.2-1.9-6.1-3.6
		c-0.3,0.7-0.7,1.2-1.3,1.7c-0.9,0.8-2.5,1.5-4.7,2l-0.3-0.7c2.1-0.4,3.5-1,4.4-1.7c0.4-0.3,0.7-0.8,1-1.2h-4.8v-0.7h5.2
		c0.1-0.4,0.3-0.9,0.3-1.3L105.5,77.9z M99.4,72.1h3.3c-0.2-0.5-0.4-1-0.7-1.4l0.8-0.1c0.3,0.5,0.5,1,0.7,1.6h3.1
		c0.3-0.5,0.5-1,0.6-1.6l0.8,0.1c-0.1,0.5-0.3,1-0.6,1.5h3.3v0.7h-5.2v1.6h4.5v0.7h-4.5v1.6h5.7v0.7H98.9v-0.7h5.7v-1.6h-4.5v-0.7
		h4.5v-1.6h-5.2L99.4,72.1L99.4,72.1z"/>
	<path class="st8" d="M113.2,74.3c0.9,0.8,1.6,1.5,2.2,2.2l-0.5,0.5c-0.5-0.7-1.3-1.5-2.2-2.3L113.2,74.3z M115.4,78.7
		c-0.5,1.6-1.1,3.1-1.7,4.6L113,83c0.6-1.4,1.2-3,1.7-4.5L115.4,78.7z M113.5,71c0.9,0.7,1.7,1.5,2.4,2.2l-0.5,0.5
		c-0.6-0.7-1.3-1.4-2.4-2.2L113.5,71z M118,70.8h0.7V75c0,3.9-0.9,6.7-2.6,8.5l-0.6-0.5c1.6-1.7,2.4-4.3,2.4-8V70.8z M117.2,74.5
		c-0.1,1.3-0.4,2.6-0.8,3.8l-0.6-0.2c0.4-1.2,0.7-2.4,0.9-3.7L117.2,74.5z M119.7,74.4c0.3,1.1,0.5,2.2,0.8,3.5l-0.5,0.2
		c-0.2-1.3-0.5-2.4-0.7-3.5L119.7,74.4z M121,71.1h0.7V83H121V71.1z M122.6,74.4c0.4,1.2,0.7,2.3,0.9,3.5l-0.5,0.2
		c-0.3-1.3-0.6-2.5-0.9-3.5L122.6,74.4z M124.1,70.7h0.7v12.7h-0.7V70.7z"/>
	<path class="st8" d="M126.9,74.4h5.5c0.1-0.8,0.2-1.7,0.2-2.7v-1.1h0.8v0.9c0,1-0.1,2-0.2,2.8h5.9v0.8h-5.6c1,3.3,2.9,5.8,5.9,7.6
		l-0.5,0.6c-2.9-1.8-4.9-4.4-6-7.7c-0.8,3.6-2.7,6.2-5.9,7.8l-0.5-0.6c3.1-1.5,5-4.1,5.7-7.6h-5.4C126.9,75.2,126.9,74.4,126.9,74.4
		z"/>
	<path class="st8" d="M141.8,71.2h11V72h-10.3v10.1h10.7v0.7h-11.4V71.2z M144.5,73.5c1.3,0.9,2.5,1.9,3.7,3
		c0.9-1.1,1.6-2.3,2.2-3.7l0.7,0.4c-0.7,1.5-1.4,2.8-2.3,3.9c1.2,1.1,2.2,2.1,3.1,3.2l-0.6,0.6c-0.9-1-1.9-2.1-3.1-3.1
		c-1.3,1.4-2.7,2.4-4.4,3.2l-0.4-0.7c1.6-0.7,3-1.7,4.2-3c-1.3-1.1-2.5-2.1-3.8-3.1L144.5,73.5z"/>
</g>
<g>
	<path class="st8" d="M348.3,71.5h11.5v0.7h-3.9V82h4.3v0.7h-12.3V82h4.3v-9.8h-3.8V71.5L348.3,71.5z M349.3,74.5
		c0.7,1.6,1.3,3.3,1.8,5.4l-0.7,0.2c-0.5-1.8-1.1-3.5-1.8-5.3L349.3,74.5z M352.9,82h2.3v-9.8h-2.3V82z M359.3,74.5
		c-0.5,2.1-1.1,4-1.9,5.6l-0.7-0.2c0.7-1.4,1.3-3.3,1.9-5.5L359.3,74.5z"/>
	<path class="st8" d="M361.9,73.7h5.5c0.1-0.7,0.1-1.5,0.1-2.4v-0.6h0.8v0.5c0,0.8,0,1.6-0.1,2.5h6v0.8h-5.7c1,3.6,3,6.4,6,8.3
		l-0.5,0.6c-3-1.9-5-4.7-6.1-8.2c-0.4,1.7-1,3.2-1.8,4.5c0.7,0.7,1.6,1.6,2.5,2.8l-0.5,0.5c-0.8-1.1-1.6-2-2.4-2.7
		c-1,1.3-2.2,2.4-3.7,3.1l-0.5-0.6c3.2-1.6,5.1-4.4,5.7-8.3h-5.4V73.7z"/>
	<path class="st8" d="M375.9,74.4h5.5c0.1-0.8,0.2-1.7,0.2-2.7v-1.1h0.8v0.9c0,1-0.1,2-0.2,2.8h5.9v0.8h-5.6c1,3.3,2.9,5.8,5.9,7.6
		l-0.5,0.6c-2.9-1.8-4.9-4.4-6-7.7c-0.8,3.6-2.7,6.2-5.9,7.8l-0.5-0.6c3.1-1.5,5-4.1,5.7-7.6h-5.4L375.9,74.4L375.9,74.4z"/>
	<path class="st8" d="M390.8,71.2h11V72h-10.3v10.1h10.7v0.7h-11.4L390.8,71.2L390.8,71.2z M393.5,73.5c1.3,0.9,2.5,1.9,3.7,3
		c0.9-1.1,1.6-2.3,2.2-3.7l0.7,0.4c-0.7,1.5-1.4,2.8-2.3,3.9c1.2,1.1,2.2,2.1,3.1,3.2l-0.6,0.6c-0.9-1-1.9-2.1-3.1-3.1
		c-1.3,1.4-2.7,2.4-4.4,3.2l-0.4-0.7c1.6-0.7,3-1.7,4.2-3c-1.3-1.1-2.5-2.1-3.8-3.1L393.5,73.5z"/>
</g>
<g>
	<path class="st8" d="M402.9,23.5h11.5v1h-3.8V34h4.2v1h-12.4v-1h4.2v-9.4h-3.7V23.5z M404.1,26.6c0.7,1.5,1.3,3.3,1.8,5.4l-0.9,0.2
		c-0.5-1.8-1.1-3.6-1.8-5.3L404.1,26.6z M407.6,34h2v-9.4h-2V34z M414.1,26.7c-0.5,2.1-1.1,4-1.9,5.6l-0.9-0.3
		c0.7-1.4,1.3-3.2,1.8-5.5L414.1,26.7z"/>
	<path class="st8" d="M416.5,25.7h5.4c0.1-0.7,0.1-1.5,0.1-2.2v-0.7h1v0.5c0,0.8,0,1.6-0.1,2.4h5.9v1h-5.6c1,3.5,3,6.2,5.9,8.1
		l-0.6,0.8c-2.9-1.8-4.8-4.5-5.9-7.8c-0.4,1.5-0.9,2.9-1.7,4c0.7,0.7,1.5,1.5,2.4,2.7l-0.7,0.7c-0.7-1-1.5-1.8-2.2-2.6
		c-1,1.2-2.2,2.2-3.6,3l-0.6-0.8c3.1-1.6,5-4.2,5.6-8h-5.3L416.5,25.7L416.5,25.7z"/>
	<path class="st8" d="M432.2,24.7h-1.8v-0.9h4.6v0.9h-1.8v3.2h1.5v0.9h-1.5v3.2c0.5-0.2,1.1-0.4,1.8-0.7v1c-1.3,0.6-2.8,1.2-4.4,1.7
		l-0.3-1c0.8-0.2,1.4-0.4,1.9-0.6v-3.5h-1.6v-0.9h1.6V24.7z M437,28.5h-1.8v-1h7.5v1h-2v5.3c0,0.4,0.2,0.6,0.5,0.6h0.4
		c0.2,0,0.3-0.1,0.4-0.2c0.1-0.1,0.2-0.8,0.3-2l0.9,0.3c-0.1,1.4-0.2,2.2-0.4,2.4c-0.2,0.2-0.5,0.4-1,0.4h-0.9
		c-0.4,0-0.7-0.1-0.9-0.4c-0.2-0.2-0.3-0.6-0.3-0.9v-5.6H438v1c0,2.7-1.3,4.8-3.6,6l-0.8-0.7c2.2-1.1,3.4-2.9,3.4-5.4L437,28.5
		C437,28.5,437,28.5,437,28.5z M435.6,23.5h6.6v1h-6.6V23.5z"/>
	<path class="st8" d="M452,30.3c0.2,0.7,0.4,1.4,0.4,2.2c0,1.1-0.2,1.9-0.4,2.3c-0.3,0.5-1.1,0.7-2.3,0.7h-0.5l-0.3-0.9h0.7
		c0.8,0,1.3-0.1,1.6-0.4c0.3-0.3,0.4-0.9,0.4-1.8c0-0.3,0-0.5-0.1-0.7c-1.6,1.2-3.6,2.2-6.1,3l-0.5-0.9c2.8-0.8,5-1.9,6.5-3.1
		c-0.1-0.4-0.3-0.8-0.4-1.1c-1.3,1-3.1,1.9-5.4,2.5l-0.5-0.9c2.4-0.6,4.2-1.4,5.4-2.4c-0.1-0.2-0.3-0.5-0.6-0.7l-0.3,0.2
		c-1,0.4-2.2,0.9-3.8,1.3l-0.5-0.8c1.4-0.3,2.6-0.7,3.6-1.1c0.6-0.3,1.1-0.5,1.4-0.7h-3.7v-0.9h8.4v0.9h-3.2
		c-0.5,0.3-0.9,0.6-1.1,0.7c0.5,0.5,0.9,1.1,1.2,1.6c1.3-0.4,2.5-0.9,3.7-1.7l0.7,0.7c-0.8,0.5-1.6,0.9-2.4,1.2
		c0.7,1.8,1.7,3.2,3.2,4.2l-0.7,0.8c-1.5-1.2-2.6-2.8-3.3-4.7L452,30.3z M450.8,22.6c0.2,0.3,0.3,0.8,0.5,1.3h5.3v2.4h-1v-1.5h-9.8
		v1.5h-1V24h5.5c-0.1-0.4-0.3-0.8-0.5-1.1L450.8,22.6z"/>
</g>
<g>
	<path class="st8" d="M655.3,22.7h1v2.5h5v6.6h-1v-0.9h-4v4.8h-1v-4.8h-4v0.9h-1v-6.6h5L655.3,22.7L655.3,22.7z M651.3,29.9h4v-3.7
		h-4V29.9z M656.3,29.9h4v-3.7h-4V29.9z"/>
	<path class="st8" d="M675.6,23.4v12.2h-1v-0.6h-9.5v0.6h-1V23.4H675.6z M665.1,34h9.5v-9.7h-9.5V34z M666.3,25.6h6.9v0.9h-2.9v2
		h2.5v0.9h-2.5v2.2h3.3v0.9h-7.7v-0.9h3.3v-2.2h-2.5v-0.9h2.5v-2h-3L666.3,25.6L666.3,25.6z M672,29.7c0.4,0.5,0.7,1,0.9,1.5
		l-0.8,0.4c-0.3-0.6-0.6-1.2-0.9-1.6L672,29.7z"/>
	<path class="st8" d="M679.3,24.7h-1.8v-0.9h4.6v0.9h-1.8v3.2h1.5v0.9h-1.5v3.2c0.5-0.2,1.1-0.4,1.8-0.7v1c-1.3,0.6-2.8,1.2-4.4,1.7
		l-0.3-1c0.8-0.2,1.4-0.4,1.9-0.6v-3.5h-1.6v-0.9h1.6L679.3,24.7L679.3,24.7z M684.1,28.5h-1.8v-1h7.5v1h-2v5.3
		c0,0.4,0.2,0.6,0.5,0.6h0.4c0.2,0,0.3-0.1,0.4-0.2c0.1-0.1,0.2-0.8,0.3-2l0.9,0.3c-0.1,1.4-0.2,2.2-0.4,2.4c-0.2,0.2-0.5,0.4-1,0.4
		h-0.9c-0.4,0-0.7-0.1-0.9-0.4c-0.2-0.2-0.3-0.6-0.3-0.9v-5.6h-1.7v1c0,2.7-1.3,4.8-3.6,6l-0.8-0.7c2.2-1.1,3.4-2.9,3.4-5.4
		L684.1,28.5C684.1,28.5,684.1,28.5,684.1,28.5z M682.8,23.5h6.6v1h-6.6V23.5z"/>
	<path class="st8" d="M699.1,30.3c0.2,0.7,0.4,1.4,0.4,2.2c0,1.1-0.1,1.9-0.4,2.3c-0.3,0.5-1.1,0.7-2.3,0.7h-0.5l-0.3-0.9h0.7
		c0.8,0,1.3-0.1,1.6-0.4c0.3-0.3,0.4-0.9,0.4-1.8c0-0.3,0-0.5-0.1-0.7c-1.6,1.2-3.6,2.2-6.1,3l-0.5-0.9c2.8-0.8,5-1.9,6.5-3.1
		c-0.1-0.4-0.3-0.8-0.4-1.1c-1.3,1-3.1,1.9-5.4,2.5l-0.5-0.9c2.4-0.6,4.2-1.4,5.4-2.4c-0.1-0.2-0.3-0.5-0.6-0.7l-0.3,0.2
		c-1,0.4-2.2,0.9-3.8,1.3l-0.5-0.8c1.4-0.3,2.6-0.7,3.6-1.1c0.6-0.3,1.1-0.5,1.4-0.7h-3.7v-0.9h8.4v0.9h-3.2
		c-0.5,0.3-0.9,0.6-1.1,0.7c0.5,0.5,0.9,1.1,1.2,1.6c1.3-0.4,2.5-0.9,3.7-1.7l0.7,0.7c-0.8,0.5-1.6,0.9-2.4,1.2
		c0.7,1.8,1.7,3.2,3.2,4.2l-0.7,0.8c-1.5-1.2-2.6-2.8-3.3-4.7L699.1,30.3z M698,22.6c0.1,0.3,0.3,0.8,0.5,1.3h5.3v2.4h-1v-1.5h-9.8
		v1.5h-1V24h5.5c-0.1-0.4-0.3-0.8-0.5-1.1L698,22.6z"/>
</g>
<g>
	<path class="st8" d="M604.9,70.6h0.8v2.6h5.1v6.4H610v-0.9h-4.3v4.8h-0.8v-4.8h-4.3v0.9h-0.8v-6.4h5.1L604.9,70.6L604.9,70.6z
		 M600.7,77.9h4.3v-4h-4.3V77.9z M605.7,77.9h4.3v-4h-4.3V77.9z"/>
	<path class="st8" d="M625,71.4v12h-0.8v-0.7h-9.8v0.7h-0.8v-12H625z M614.4,82h9.8v-9.9h-9.8V82z M615.9,73.6h6.9v0.7h-3.1v2.2h2.6
		v0.7h-2.6v2.4h3.5v0.7h-7.7v-0.7h3.5v-2.4h-2.6v-0.7h2.6v-2.2h-3.1V73.6z M621.4,77.6c0.4,0.5,0.7,1,1,1.6l-0.6,0.3
		c-0.3-0.7-0.6-1.2-1-1.7L621.4,77.6z"/>
	<path class="st8" d="M627.2,74.4h5.5c0.1-0.8,0.2-1.7,0.2-2.7v-1.1h0.8v0.9c0,1-0.1,2-0.2,2.8h5.9v0.8h-5.6c1,3.3,2.9,5.8,5.9,7.6
		l-0.5,0.6c-2.9-1.8-4.9-4.4-6-7.7c-0.8,3.6-2.7,6.2-5.9,7.8l-0.5-0.6c3.1-1.5,5-4.1,5.7-7.6h-5.4L627.2,74.4L627.2,74.4z"/>
	<path class="st8" d="M642.1,71.2h11V72h-10.3v10.1h10.7v0.7h-11.4L642.1,71.2L642.1,71.2z M644.8,73.5c1.3,0.9,2.5,1.9,3.7,3
		c0.9-1.1,1.6-2.3,2.2-3.7l0.7,0.4c-0.7,1.5-1.4,2.8-2.3,3.9c1.2,1.1,2.2,2.1,3.1,3.2l-0.6,0.6c-0.9-1-1.9-2.1-3.1-3.1
		c-1.3,1.4-2.7,2.4-4.4,3.2l-0.4-0.7c1.6-0.7,3-1.7,4.2-3c-1.3-1.1-2.5-2.1-3.8-3.1L644.8,73.5z"/>
</g>
<g>
	<g class="st3">
		<rect x="105.5" y="232" class="st4" width="148" height="50"/>
	</g>
	<g>
		<rect x="104" y="230.5" class="st5" width="147" height="49"/>
		<path class="st6" d="M250.5,231v48h-146v-48L250.5,231 M251.5,230h-148v50h148V230L251.5,230z"/>
	</g>
	<g>
		<path id="XMLID_718_" class="st9" d="M149.8,258c-1,6.2-6.3,11-12.8,11c-7.2,0-13-5.8-13-13s5.8-13,13-13c6.5,0,11.9,4.8,12.8,11
			h2c-1-7.3-7.2-13-14.9-13c-8.3,0-15,6.7-15,15s6.7,15,15,15c7.6,0,13.9-5.7,14.9-13C151.9,258,149.8,258,149.8,258z"/>
		<path id="XMLID_685_" class="st9" d="M136.9,248c-0.7,0-1.4,0.1-2,0.3c0.5,0.5,0.8,1.1,1,1.8c0.3-0.1,0.7-0.1,1.1-0.1
			c1.3,0,2.5,0.4,3.5,1.1l-2.1,2.1c-0.8-0.7-1.6-1.3-2.4-1.8c-0.1,0.7-0.3,1.4-0.7,1.9c0.5,0.4,1.1,0.8,1.7,1.3l-1.4,1.4
			c-0.5-0.6-1-1.1-1.3-1.7c-0.6,0.4-1.2,0.6-2,0.7c0.5,0.8,1.1,1.6,1.9,2.4l-2.1,2.1c-0.7-1-1.1-2.2-1.1-3.5c0-0.4,0-0.8,0.1-1.1
			c-0.7-0.2-1.3-0.5-1.8-1c-0.2,0.7-0.3,1.4-0.3,2.1c0,4.4,3.6,8,8,8c0.7,0,1.4-0.1,2-0.3c-0.5-0.5-0.8-1.1-1-1.8
			c-0.3,0.1-0.7,0.1-1.1,0.1c-1.3,0-2.5-0.4-3.5-1.1l2.1-2.1c0.8,0.7,1.6,1.3,2.4,1.8c0.1-0.7,0.3-1.4,0.7-1.9
			c-0.5-0.4-1.1-0.8-1.7-1.3l1.4-1.4c0.5,0.6,1,1.1,1.3,1.7c0.6-0.4,1.2-0.6,2-0.7c-0.5-0.8-1.1-1.6-1.9-2.4l2.1-2.1
			c0.7,1,1.1,2.2,1.1,3.5c0,0.4,0,0.8-0.1,1.1c0.7,0.2,1.3,0.5,1.8,1c0.2-0.7,0.3-1.4,0.3-2.1C144.9,251.6,141.3,248,136.9,248z"/>
		<g id="XMLID_622_">
			<circle id="XMLID_671_" class="st9" cx="132" cy="251" r="2"/>
			<circle id="XMLID_655_" class="st9" cx="141.9" cy="261" r="2"/>
		</g>
	</g>
	<g>
		<path class="st8" d="M167.7,251.2c0.8,0.9,1.6,1.8,2.5,2.9c0.5-1.3,0.8-2.6,0.9-4.1h-3.8v-1h4.7v0.7c-0.1,1.9-0.5,3.7-1.2,5.2
			c0.6,0.8,1.1,1.6,1.6,2.4l-0.7,0.7c-0.4-0.7-0.9-1.4-1.4-2.1c-0.8,1.3-1.8,2.5-3.1,3.6l-0.6-0.9c1.3-1,2.3-2.2,3.1-3.6
			c-0.8-1-1.6-2.1-2.7-3.2L167.7,251.2z M173.5,252.9c1,1.2,1.7,2.2,2.2,3.1l-0.8,0.6c-0.6-1-1.3-2-2.1-3.1L173.5,252.9z
			 M172.8,250.3h4.1v-2.7h1v2.7h1.6v1h-1.6v7.7c0,0.9-0.5,1.4-1.4,1.4h-2.2l-0.2-1c0.8,0,1.5,0.1,2.1,0.1c0.5,0,0.8-0.2,0.8-0.7
			v-7.4h-4.1L172.8,250.3L172.8,250.3z"/>
		<path class="st8" d="M182.8,249.5c-0.4,0.7-0.8,1.3-1.2,1.8l-0.9-0.5c0.8-1,1.5-2.1,1.8-3.3l1,0.2c-0.1,0.4-0.2,0.7-0.3,1h3.6v0.9
			h-2.5c0.4,0.5,0.7,0.9,0.9,1.4l-0.9,0.3c-0.3-0.7-0.7-1.2-1.1-1.7H182.8z M182.4,251.8h4.1v-0.9h1v0.9h4.1v0.9h-4.1v1.3h5.7v0.9
			h-2.7v1.4h2.1v0.9h-2.1v2.1c0,0.8-0.4,1.2-1.2,1.2h-2l-0.2-1c0.7,0,1.4,0.1,1.9,0.1c0.4,0,0.6-0.2,0.6-0.5v-1.9h-7.9v-0.9h7.9
			v-1.4h-8.7V254h5.7v-1.3h-4.1V251.8z M183.9,257.5c0.8,0.8,1.4,1.4,1.8,2L185,260c-0.4-0.6-1.1-1.3-1.9-2L183.9,257.5z
			 M188.6,249.4c-0.3,0.5-0.6,1-0.9,1.5l-0.8-0.5c0.7-0.9,1.2-1.9,1.5-3l1,0.2c-0.1,0.3-0.2,0.7-0.3,1h4.1v0.9h-2.5
			c0.4,0.5,0.7,0.9,0.9,1.4l-0.9,0.3c-0.3-0.6-0.7-1.2-1.1-1.7L188.6,249.4L188.6,249.4z"/>
		<path class="st8" d="M204,260.2c-0.5,0-1.3,0-2.5,0c-0.9,0-1.6-0.1-2.2-0.3c-0.5-0.2-1-0.5-1.5-1c-0.2-0.2-0.4-0.4-0.5-0.4
			c-0.3,0-0.9,0.6-1.7,1.9l-0.8-0.7c0.7-1.2,1.4-1.9,2-2.1v-4.3h-2v-0.9h2.9v5.2c0.1,0.1,0.2,0.2,0.3,0.3c0.3,0.4,0.7,0.7,1.1,0.9
			c0.4,0.2,1,0.3,1.9,0.3c1,0,1.9,0,2.7,0c0.4,0,1.1,0,2,0c0.8,0,1.3,0,1.6-0.1l-0.2,1L204,260.2L204,260.2z M195.9,247.8
			c1,0.8,1.8,1.5,2.4,2.2l-0.7,0.7c-0.6-0.7-1.3-1.4-2.3-2.2L195.9,247.8z M198.8,249h2.3c0.2-0.6,0.4-1.1,0.6-1.5l1,0.2
			c-0.2,0.5-0.3,0.9-0.5,1.3h4.9v0.9h-5.3c-0.4,0.9-0.9,1.8-1.4,2.5h2.3v-1.7h1v1.7h3.1v0.9h-3.1v1.7h3.7v1h-3.7v2.6h-1V256h-3.9v-1
			h3.9v-1.7h-3.2l-0.2-0.9c0.6-0.7,1.1-1.5,1.5-2.5h-1.8L198.8,249L198.8,249z"/>
		<path class="st8" d="M209.1,260.3l-0.2-1c0.5,0,0.9,0.1,1.1,0.1c0.4,0,0.5-0.2,0.5-0.6v-3.4c-0.4,0.1-1,0.4-1.7,0.6l-0.3-1
			c0.6-0.2,1.3-0.4,2-0.6v-3.1h-1.7v-1h1.7v-2.6h1v2.6h1.2v1h-1.2v2.7c0.4-0.2,0.8-0.4,1.2-0.6v1c-0.4,0.2-0.8,0.4-1.2,0.6v4.1
			c0,0.9-0.4,1.3-1.2,1.3L209.1,260.3L209.1,260.3z M217.1,253.5c-0.1,0.4-0.3,0.7-0.5,1.1h4.8v1h-1.5c-0.2,1-0.6,1.9-1.3,2.6
			c1,0.5,1.9,0.9,2.8,1.4l-0.5,0.8c-0.8-0.5-1.8-1-2.9-1.6c-0.9,0.7-2.4,1.2-4.4,1.6l-0.4-0.9c1.7-0.3,2.9-0.7,3.8-1.2
			c-0.7-0.3-1.6-0.7-2.7-1.2c0.4-0.6,0.7-1.1,1-1.7h-1.9v-1h2.4c0.2-0.4,0.4-0.8,0.5-1.2L217.1,253.5z M215.5,250
			c0.3,0.6,0.7,1.3,1,2.1h1.4c0.4-0.7,0.7-1.4,1-2.2l1,0.3c-0.3,0.7-0.6,1.3-0.9,1.9h2.3v1h-7.8v-1h2.1c-0.3-0.7-0.6-1.2-0.9-1.7
			L215.5,250z M217.3,247.5c0.1,0.4,0.3,0.8,0.5,1.3h3.1v0.9h-7.2v-0.9h3.1c-0.1-0.4-0.3-0.8-0.5-1.2L217.3,247.5z M216.1,255.6
			c-0.3,0.5-0.5,0.9-0.8,1.2c0.8,0.3,1.6,0.6,2.4,1c0.6-0.6,1-1.3,1.3-2.2C218.9,255.6,216.1,255.6,216.1,255.6z"/>
	</g>
</g>
<g>
	<g class="st3">
		<rect x="354.2" y="232" class="st4" width="148" height="50"/>
	</g>
	<g>
		<rect x="352.7" y="230.5" class="st5" width="147" height="49"/>
		<path class="st6" d="M499.2,231v48h-146v-48L499.2,231 M500.2,230h-148v50h148V230L500.2,230z"/>
	</g>
	<g>
		<path id="XMLID_5_" class="st9" d="M398.5,258c-1,6.2-6.3,11-12.8,11c-7.2,0-13-5.8-13-13s5.8-13,13-13c6.5,0,11.9,4.8,12.8,11h2
			c-1-7.3-7.2-13-14.9-13c-8.3,0-15,6.7-15,15s6.7,15,15,15c7.6,0,13.9-5.7,14.9-13C400.5,258,398.5,258,398.5,258z"/>
		<path id="XMLID_4_" class="st9" d="M385.6,248c-0.7,0-1.4,0.1-2,0.3c0.5,0.5,0.8,1.1,1,1.8c0.3-0.1,0.7-0.1,1.1-0.1
			c1.3,0,2.5,0.4,3.5,1.1l-2.1,2.1c-0.8-0.7-1.6-1.3-2.4-1.8c-0.1,0.7-0.3,1.4-0.7,1.9c0.5,0.4,1.1,0.8,1.7,1.3l-1.4,1.4
			c-0.5-0.6-1-1.1-1.3-1.7c-0.6,0.4-1.2,0.6-2,0.7c0.5,0.8,1.1,1.6,1.9,2.4l-2.1,2.1c-0.7-1-1.1-2.2-1.1-3.5c0-0.4,0-0.8,0.1-1.1
			c-0.7-0.2-1.3-0.5-1.8-1c-0.2,0.7-0.3,1.4-0.3,2.1c0,4.4,3.6,8,8,8c0.7,0,1.4-0.1,2-0.3c-0.5-0.5-0.8-1.1-1-1.8
			c-0.3,0.1-0.7,0.1-1.1,0.1c-1.3,0-2.5-0.4-3.5-1.1l2.1-2.1c0.8,0.7,1.6,1.3,2.4,1.8c0.1-0.7,0.3-1.4,0.7-1.9
			c-0.5-0.4-1.1-0.8-1.7-1.3l1.4-1.4c0.5,0.6,1,1.1,1.3,1.7c0.6-0.4,1.2-0.6,2-0.7c-0.5-0.8-1.1-1.6-1.9-2.4l2.1-2.1
			c0.7,1,1.1,2.2,1.1,3.5c0,0.4,0,0.8-0.1,1.1c0.7,0.2,1.3,0.5,1.8,1c0.2-0.7,0.3-1.4,0.3-2.1C393.6,251.6,390,248,385.6,248z"/>
		<g id="XMLID_1_">
			<circle id="XMLID_3_" class="st9" cx="380.6" cy="251" r="2"/>
			<circle id="XMLID_2_" class="st9" cx="390.6" cy="261" r="2"/>
		</g>
	</g>
	<g>
		<path class="st8" d="M416.4,251.2c0.8,0.9,1.6,1.8,2.5,2.9c0.5-1.3,0.8-2.6,0.9-4.1h-3.8v-1h4.7v0.7c-0.1,1.9-0.5,3.7-1.2,5.2
			c0.6,0.8,1.1,1.6,1.6,2.4l-0.7,0.7c-0.4-0.7-0.9-1.4-1.4-2.1c-0.8,1.3-1.8,2.5-3.1,3.6l-0.6-0.9c1.3-1,2.3-2.2,3.1-3.6
			c-0.8-1-1.6-2.1-2.7-3.2L416.4,251.2z M422.2,252.9c1,1.2,1.7,2.2,2.2,3.1l-0.8,0.6c-0.6-1-1.3-2-2.1-3.1L422.2,252.9z
			 M421.4,250.3h4.1v-2.7h1v2.7h1.6v1h-1.6v7.7c0,0.9-0.5,1.4-1.4,1.4h-2.2l-0.2-1c0.8,0,1.5,0.1,2.1,0.1c0.5,0,0.8-0.2,0.8-0.7
			v-7.4h-4.1L421.4,250.3L421.4,250.3z"/>
		<path class="st8" d="M431.5,249.5c-0.4,0.7-0.8,1.3-1.2,1.8l-0.9-0.5c0.8-1,1.5-2.1,1.8-3.3l1,0.2c-0.1,0.4-0.2,0.7-0.3,1h3.6v0.9
			H433c0.4,0.5,0.7,0.9,0.9,1.4l-0.9,0.3c-0.3-0.7-0.7-1.2-1.1-1.7H431.5z M431.1,251.8h4.1v-0.9h1v0.9h4.1v0.9h-4.1v1.3h5.7v0.9
			h-2.7v1.4h2.1v0.9h-2.1v2.1c0,0.8-0.4,1.2-1.2,1.2h-2l-0.2-1c0.7,0,1.4,0.1,1.9,0.1c0.4,0,0.6-0.2,0.6-0.5v-1.9h-7.9v-0.9h7.9
			v-1.4h-8.7V254h5.7v-1.3h-4.1V251.8z M432.6,257.5c0.8,0.8,1.4,1.4,1.8,2l-0.8,0.5c-0.4-0.6-1.1-1.3-1.9-2L432.6,257.5z
			 M437.2,249.4c-0.3,0.5-0.6,1-0.9,1.5l-0.8-0.5c0.7-0.9,1.2-1.9,1.5-3l1,0.2c-0.1,0.3-0.2,0.7-0.3,1h4.1v0.9h-2.5
			c0.4,0.5,0.7,0.9,0.9,1.4l-0.9,0.3c-0.3-0.6-0.7-1.2-1.1-1.7L437.2,249.4L437.2,249.4z"/>
		<path class="st8" d="M452.7,260.2c-0.5,0-1.3,0-2.5,0c-0.9,0-1.6-0.1-2.2-0.3c-0.5-0.2-1-0.5-1.5-1c-0.2-0.2-0.4-0.4-0.5-0.4
			c-0.3,0-0.9,0.6-1.7,1.9l-0.8-0.7c0.7-1.2,1.4-1.9,2-2.1v-4.3h-2v-0.9h2.9v5.2c0.1,0.1,0.2,0.2,0.3,0.3c0.3,0.4,0.7,0.7,1.1,0.9
			c0.4,0.2,1,0.3,1.9,0.3c1,0,1.9,0,2.7,0c0.4,0,1.1,0,2,0c0.8,0,1.3,0,1.6-0.1l-0.2,1L452.7,260.2L452.7,260.2z M444.5,247.8
			c1,0.8,1.8,1.5,2.4,2.2l-0.7,0.7c-0.6-0.7-1.3-1.4-2.3-2.2L444.5,247.8z M447.5,249h2.3c0.2-0.6,0.4-1.1,0.6-1.5l1,0.2
			c-0.2,0.5-0.3,0.9-0.5,1.3h4.9v0.9h-5.3c-0.4,0.9-0.9,1.8-1.4,2.5h2.3v-1.7h1v1.7h3.1v0.9h-3.1v1.7h3.7v1h-3.7v2.6h-1V256h-3.9v-1
			h3.9v-1.7H448l-0.2-0.9c0.6-0.7,1.1-1.5,1.5-2.5h-1.8L447.5,249L447.5,249z"/>
		<path class="st8" d="M457.8,260.3l-0.2-1c0.5,0,0.9,0.1,1.1,0.1c0.4,0,0.5-0.2,0.5-0.6v-3.4c-0.4,0.1-1,0.4-1.7,0.6l-0.3-1
			c0.6-0.2,1.3-0.4,2-0.6v-3.1h-1.7v-1h1.7v-2.6h1v2.6h1.2v1h-1.2v2.7c0.4-0.2,0.8-0.4,1.2-0.6v1c-0.4,0.2-0.8,0.4-1.2,0.6v4.1
			c0,0.9-0.4,1.3-1.2,1.3L457.8,260.3L457.8,260.3z M465.7,253.5c-0.1,0.4-0.3,0.7-0.5,1.1h4.8v1h-1.5c-0.2,1-0.6,1.9-1.3,2.6
			c1,0.5,1.9,0.9,2.8,1.4l-0.5,0.8c-0.8-0.5-1.8-1-2.9-1.6c-0.9,0.7-2.4,1.2-4.4,1.6l-0.4-0.9c1.7-0.3,2.9-0.7,3.8-1.2
			c-0.7-0.3-1.6-0.7-2.7-1.2c0.4-0.6,0.7-1.1,1-1.7h-1.9v-1h2.4c0.2-0.4,0.4-0.8,0.5-1.2L465.7,253.5z M464.1,250
			c0.3,0.6,0.7,1.3,1,2.1h1.4c0.4-0.7,0.7-1.4,1-2.2l1,0.3c-0.3,0.7-0.6,1.3-0.9,1.9h2.3v1H462v-1h2.1c-0.3-0.7-0.6-1.2-0.9-1.7
			L464.1,250z M466,247.5c0.1,0.4,0.3,0.8,0.5,1.3h3.1v0.9h-7.2v-0.9h3.1c-0.1-0.4-0.3-0.8-0.5-1.2L466,247.5z M464.7,255.6
			c-0.3,0.5-0.5,0.9-0.8,1.2c0.8,0.3,1.6,0.6,2.4,1c0.6-0.6,1-1.3,1.3-2.2C467.6,255.6,464.7,255.6,464.7,255.6z"/>
	</g>
</g>
<g>
	<g class="st3">
		<rect x="604.8" y="232" class="st4" width="148" height="50"/>
	</g>
	<g>
		<rect x="603.3" y="230.5" class="st5" width="147" height="49"/>
		<path class="st6" d="M749.8,231v48h-146v-48L749.8,231 M750.8,230h-148v50h148V230L750.8,230z"/>
	</g>
	<g>
		<path id="XMLID_10_" class="st9" d="M649.1,258c-1,6.2-6.3,11-12.8,11c-7.2,0-13-5.8-13-13s5.8-13,13-13c6.5,0,11.9,4.8,12.8,11h2
			c-1-7.3-7.2-13-14.9-13c-8.3,0-15,6.7-15,15s6.7,15,15,15c7.6,0,13.9-5.7,14.9-13C651.1,258,649.1,258,649.1,258z"/>
		<path id="XMLID_9_" class="st9" d="M636.2,248c-0.7,0-1.4,0.1-2,0.3c0.5,0.5,0.8,1.1,1,1.8c0.3-0.1,0.7-0.1,1.1-0.1
			c1.3,0,2.5,0.4,3.5,1.1l-2.1,2.1c-0.8-0.7-1.6-1.3-2.4-1.8c-0.1,0.7-0.3,1.4-0.7,1.9c0.5,0.4,1.1,0.8,1.7,1.3l-1.4,1.4
			c-0.5-0.6-1-1.1-1.3-1.7c-0.6,0.4-1.2,0.6-2,0.7c0.5,0.8,1.1,1.6,1.9,2.4l-2.1,2.1c-0.7-1-1.1-2.2-1.1-3.5c0-0.4,0-0.8,0.1-1.1
			c-0.7-0.2-1.3-0.5-1.8-1c-0.2,0.7-0.3,1.4-0.3,2.1c0,4.4,3.6,8,8,8c0.7,0,1.4-0.1,2-0.3c-0.5-0.5-0.8-1.1-1-1.8
			c-0.3,0.1-0.7,0.1-1.1,0.1c-1.3,0-2.5-0.4-3.5-1.1l2.1-2.1c0.8,0.7,1.6,1.3,2.4,1.8c0.1-0.7,0.3-1.4,0.7-1.9
			c-0.5-0.4-1.1-0.8-1.7-1.3l1.4-1.4c0.5,0.6,1,1.1,1.3,1.7c0.6-0.4,1.2-0.6,2-0.7c-0.5-0.8-1.1-1.6-1.9-2.4l2.1-2.1
			c0.7,1,1.1,2.2,1.1,3.5c0,0.4,0,0.8-0.1,1.1c0.7,0.2,1.3,0.5,1.8,1c0.2-0.7,0.3-1.4,0.3-2.1C644.2,251.6,640.6,248,636.2,248z"/>
		<g id="XMLID_6_">
			<circle id="XMLID_8_" class="st9" cx="631.2" cy="251" r="2"/>
			<circle id="XMLID_7_" class="st9" cx="641.2" cy="261" r="2"/>
		</g>
	</g>
	<g>
		<path class="st8" d="M667,251.2c0.8,0.9,1.6,1.8,2.5,2.9c0.5-1.3,0.8-2.6,0.9-4.1h-3.8v-1h4.7v0.7c-0.1,1.9-0.5,3.7-1.2,5.2
			c0.6,0.8,1.1,1.6,1.6,2.4L671,258c-0.4-0.7-0.9-1.4-1.4-2.1c-0.8,1.3-1.8,2.5-3.1,3.6l-0.6-0.9c1.3-1,2.3-2.2,3.1-3.6
			c-0.8-1-1.6-2.1-2.7-3.2L667,251.2z M672.8,252.9c1,1.2,1.7,2.2,2.2,3.1l-0.8,0.6c-0.6-1-1.3-2-2.1-3.1L672.8,252.9z M672,250.3
			h4.1v-2.7h1v2.7h1.6v1h-1.6v7.7c0,0.9-0.5,1.4-1.4,1.4h-2.2l-0.2-1c0.8,0,1.5,0.1,2.1,0.1c0.5,0,0.8-0.2,0.8-0.7v-7.4H672
			L672,250.3L672,250.3z"/>
		<path class="st8" d="M682.1,249.5c-0.4,0.7-0.8,1.3-1.2,1.8l-0.9-0.5c0.8-1,1.5-2.1,1.8-3.3l1,0.2c-0.1,0.4-0.2,0.7-0.3,1h3.6v0.9
			h-2.4c0.4,0.5,0.7,0.9,0.9,1.4l-0.9,0.3c-0.3-0.7-0.7-1.2-1.1-1.7H682.1z M681.7,251.8h4.1v-0.9h1v0.9h4.1v0.9h-4.1v1.3h5.7v0.9
			h-2.7v1.4h2.1v0.9h-2.1v2.1c0,0.8-0.4,1.2-1.2,1.2h-2l-0.2-1c0.7,0,1.4,0.1,1.9,0.1c0.4,0,0.6-0.2,0.6-0.5v-1.9H681v-0.9h7.9v-1.4
			h-8.7V254h5.7v-1.3h-4.1L681.7,251.8L681.7,251.8z M683.2,257.5c0.8,0.8,1.4,1.4,1.8,2l-0.8,0.5c-0.4-0.6-1.1-1.3-1.9-2
			L683.2,257.5z M687.9,249.4c-0.3,0.5-0.6,1-0.9,1.5l-0.8-0.5c0.7-0.9,1.2-1.9,1.5-3l1,0.2c-0.1,0.3-0.2,0.7-0.3,1h4.1v0.9h-2.5
			c0.4,0.5,0.7,0.9,0.9,1.4l-0.9,0.3c-0.3-0.6-0.7-1.2-1.1-1.7L687.9,249.4L687.9,249.4z"/>
		<path class="st8" d="M703.3,260.2c-0.5,0-1.3,0-2.5,0c-0.9,0-1.6-0.1-2.2-0.3c-0.5-0.2-1-0.5-1.5-1c-0.2-0.2-0.4-0.4-0.5-0.4
			c-0.3,0-0.9,0.6-1.7,1.9l-0.8-0.7c0.7-1.2,1.4-1.9,2-2.1v-4.3h-2v-0.9h2.9v5.2c0.1,0.1,0.2,0.2,0.3,0.3c0.3,0.4,0.7,0.7,1.1,0.9
			c0.4,0.2,1,0.3,1.9,0.3c1,0,1.9,0,2.7,0c0.4,0,1.1,0,2,0c0.8,0,1.3,0,1.6-0.1l-0.2,1L703.3,260.2L703.3,260.2z M695.1,247.8
			c1,0.8,1.8,1.5,2.4,2.2l-0.7,0.7c-0.6-0.7-1.3-1.4-2.3-2.2L695.1,247.8z M698.1,249h2.3c0.2-0.6,0.4-1.1,0.6-1.5l1,0.2
			c-0.2,0.5-0.3,0.9-0.5,1.3h4.9v0.9H701c-0.4,0.9-0.9,1.8-1.4,2.5h2.3v-1.7h1v1.7h3.1v0.9h-3.1v1.7h3.7v1h-3.7v2.6h-1V256H698v-1
			h3.9v-1.7h-3.2l-0.2-0.9c0.6-0.7,1.1-1.5,1.5-2.5h-1.8V249z"/>
		<path class="st8" d="M708.4,260.3l-0.2-1c0.5,0,0.9,0.1,1.1,0.1c0.4,0,0.5-0.2,0.5-0.6v-3.4c-0.4,0.1-1,0.4-1.7,0.6l-0.3-1
			c0.6-0.2,1.3-0.4,2-0.6v-3.1h-1.7v-1h1.7v-2.6h1v2.6h1.2v1h-1.2v2.7c0.4-0.2,0.8-0.4,1.2-0.6v1c-0.4,0.2-0.8,0.4-1.2,0.6v4.1
			c0,0.9-0.4,1.3-1.2,1.3L708.4,260.3L708.4,260.3z M716.3,253.5c-0.1,0.4-0.3,0.7-0.5,1.1h4.8v1h-1.5c-0.2,1-0.6,1.9-1.3,2.6
			c1,0.5,1.9,0.9,2.8,1.4l-0.5,0.8c-0.8-0.5-1.8-1-2.9-1.6c-0.9,0.7-2.4,1.2-4.4,1.6l-0.4-0.9c1.7-0.3,2.9-0.7,3.8-1.2
			c-0.7-0.3-1.6-0.7-2.7-1.2c0.4-0.6,0.7-1.1,1-1.7h-1.9v-1h2.4c0.2-0.4,0.4-0.8,0.5-1.2L716.3,253.5z M714.8,250
			c0.3,0.6,0.7,1.3,1,2.1h1.4c0.4-0.7,0.7-1.4,1-2.2l1,0.3c-0.3,0.7-0.6,1.3-0.9,1.9h2.3v1h-7.8v-1h2.1c-0.3-0.7-0.6-1.2-0.9-1.7
			L714.8,250z M716.6,247.5c0.1,0.4,0.3,0.8,0.5,1.3h3.1v0.9H713v-0.9h3.1c-0.1-0.4-0.3-0.8-0.5-1.2L716.6,247.5z M715.4,255.6
			c-0.3,0.5-0.5,0.9-0.8,1.2c0.8,0.3,1.6,0.6,2.4,1c0.6-0.6,1.1-1.3,1.3-2.2C718.2,255.6,715.4,255.6,715.4,255.6z"/>
	</g>
</g>
</svg>
