<?xml version="1.0" encoding="utf-8"?>
<!-- Generator: Adobe Illustrator 22.1.0, SVG Export Plug-In . SVG Version: 6.00 Build 0)  -->
<svg version="1.1" id="图层_1" xmlns="http://www.w3.org/2000/svg" xmlns:xlink="http://www.w3.org/1999/xlink" x="0px" y="0px"
	 width="830px" height="226px" viewBox="0 0 830 226" style="enable-background:new 0 0 830 226;" xml:space="preserve">
<style type="text/css">
	.st0{fill:#888888;}
	.st1{display:none;fill:none;stroke:#999999;}
	.st2{enable-background:new    ;}
	.st3{fill:#444444;}
	.st4{opacity:0.6;enable-background:new    ;}
	.st5{fill:#BBBBBB;}
	.st6{fill:#FFFFFF;}
	.st7{fill:#E5E5E5;}
	.st8{fill:#00A4FF;}
</style>
<g>
	<g>
		<rect x="414.8" y="126.8" class="st0" width="1" height="21.3"/>
	</g>
	<g transform="translate(-0.5, 0)">
		<g>
			<polygon class="st0" points="411.8,146.4 415.8,151.8 419.8,146.4 			"/>
		</g>
	</g>
</g>
<path class="st1" d="M0,0L0,0"/>
<g id="middlegroup" transform="translate(0,0)">
</g>
<g id="textgroup" transform="translate(0,0)">
</g>
<g id="assistantgroup" transform="translate(0,0)">
</g>
<g class="st2">
	<path class="st3" d="M24.8,20.9v1H12.3v-1H24.8z"/>
	<path class="st3" d="M29.7,22.1C28.9,24,28,25.8,27,27.5l-0.9-0.4c1-1.8,1.9-3.5,2.7-5.4L29.7,22.1z M29.6,18.6l-0.8,0.6
		c-0.6-0.9-1.5-1.8-2.5-2.9l0.8-0.5C28.2,16.8,29,17.8,29.6,18.6z M34.7,19.2c0,0.8,0,1.5-0.1,2.1c0.8,2.5,2.3,4.5,4.4,5.9L38.4,28
		c-1.8-1.4-3.2-3.1-4.1-5.1c-0.1,0.4-0.2,0.7-0.3,1c-0.6,1.7-2,3.1-4.1,4.1l-0.7-0.8c1.9-0.9,3.2-2.1,3.8-3.5
		c0.4-1.2,0.7-2.7,0.7-4.5H34.7z M30.6,21.4l-0.8-0.6c1.1-1.4,1.9-3.3,2.2-5.7l1,0.2c-0.1,0.7-0.2,1.4-0.4,2h5.9V18
		c-0.3,1.2-0.7,2.4-1.1,3.5l-1-0.3c0.4-0.9,0.8-1.8,1.1-2.9h-5.1C31.9,19.5,31.3,20.6,30.6,21.4z"/>
	<path class="st3" d="M52,16v1h-2.3v3.7h3.1v1h-3.1v6.2h-1v-6.2h-4c-0.1,1.4-0.4,2.6-0.8,3.6c-0.5,1.2-1.4,2.1-2.6,2.7l-0.5-0.9
		c1.1-0.6,1.9-1.5,2.4-2.6c0.3-0.8,0.5-1.8,0.6-2.9h-3.2v-1h3.3c0-0.2,0-0.4,0-0.5v-3.2h-2.5v-1L52,16L52,16z M44.7,20.2
		c0,0.2,0,0.3,0,0.5h4V17h-4V20.2z"/>
	<path class="st3" d="M56.3,15.5l1,0.2l-0.8,2.8H59c0.3-1.1,0.5-2.2,0.7-3.4l1,0.1c-0.2,1.2-0.4,2.3-0.7,3.3h6.6v1h-6.8
		c-0.2,0.6-0.3,1.1-0.5,1.6H65V22c-0.4,1.2-1.1,2.3-2.3,3.3c1.1,0.7,2.5,1.3,4.1,1.8L66.3,28c-1.8-0.7-3.3-1.4-4.5-2.1
		c-1.1,0.8-2.6,1.5-4.3,2.2l-0.5-1c1.6-0.6,2.9-1.2,3.9-1.9c-1.1-0.8-1.9-1.8-2.3-2.7c-1,2.2-2.3,4-3.9,5.3l-0.5-0.9
		c2-1.8,3.5-4.2,4.5-7.4h-3.5L56.3,15.5z M61.7,24.6c1-0.8,1.8-1.7,2.1-2.6h-4.5C59.8,22.9,60.6,23.8,61.7,24.6z M65.5,17.4
		l-0.7,0.7c-0.6-0.7-1.4-1.5-2.5-2.4L63,15C64,15.9,64.8,16.7,65.5,17.4z"/>
	<path class="st3" d="M75.5,25.6c1.6-0.7,2.8-1.6,3.7-2.9H75c-1.2,0.6-2.7,1-4.4,1.3L70,23.1c3.1-0.3,5.3-1.2,6.8-2.8l0.9,0.5
		c-0.3,0.3-0.7,0.7-1.1,1h3.8v0.8c-2,3.3-5.7,5-11.1,5.1l-0.4-1c2.2,0,4.1-0.3,5.7-0.8c-0.5-0.6-1-1.2-1.5-1.7l0.9-0.4
		C74.5,24.4,75,25,75.5,25.6z M75.4,15.5c-0.3,0.3-0.5,0.5-0.8,0.8h4v0.8c-1.5,2.7-4.3,4.2-8.4,4.5l-0.4-0.9
		c1.3-0.1,2.4-0.3,3.4-0.6c-0.4-0.5-0.9-1-1.4-1.5l0.9-0.4c0.5,0.5,1,1,1.4,1.5c1.5-0.6,2.6-1.5,3.4-2.6h-4.1
		c-1.1,0.6-2.4,1.1-3.9,1.5l-0.6-0.9c2.5-0.5,4.4-1.4,5.6-2.7L75.4,15.5z"/>
	<path class="st3" d="M86.6,25.8c-1.3,0.5-2.7,0.9-4.2,1.2l-0.3-1c0.8-0.1,1.6-0.3,2.4-0.5c0.3-2,0.6-4.2,0.7-6.5l0.9,0.1
		c-0.2,2.2-0.4,4.2-0.8,6.1c0.4-0.1,0.8-0.3,1.1-0.4v1H86.6z M84,17.4c-0.2-0.7-0.4-1.4-0.6-2l1-0.2c0.2,0.6,0.4,1.4,0.6,2.2h1.6v1
		h-4.4v-1H84z M84.1,24.7L83.3,25c-0.2-1.9-0.5-3.7-0.8-5.5l0.8-0.3C83.6,20.8,83.9,22.7,84.1,24.7z M94.9,19.9v0.9h-3.7
		c-0.1,0.5-0.2,0.9-0.4,1.3h3.7v4.7c0,0.7-0.3,1.1-0.9,1.1H93L92.7,27h0.6c0.2,0,0.3-0.1,0.3-0.4V23h-1.3v4.6h-0.9V23h-1.1v4.6h-0.9
		V23h-1.2v4.8h-0.9v-5.7h2.5c0.2-0.4,0.3-0.9,0.4-1.3h-3.3v-0.9H94.9z M93.2,15.7h1v3h-6.7v-3h1v2.1h1.9v-2.7h1v2.7h1.9v-2.1H93.2z"
		/>
	<path class="st3" d="M103,27.6c-0.9,0-1.6-0.1-2.2-0.3c-0.5-0.2-1-0.5-1.5-1c-0.2-0.2-0.4-0.3-0.5-0.3c-0.3,0-0.9,0.6-1.7,1.9
		l-0.8-0.7c0.8-1.2,1.4-1.9,2-2.2v-4.3h-2V20h2.9v5.2c0.1,0.1,0.2,0.2,0.3,0.3c0.3,0.4,0.7,0.7,1.1,0.9c0.4,0.2,1.1,0.3,1.9,0.3
		c0.7,0,1.7,0,2.8,0c0.7,0,1.3,0,2,0s1.2,0,1.6-0.1l-0.2,0.9h-3.3C104.7,27.7,103.9,27.6,103,27.6z M99.7,17.5L99,18.2
		c-0.6-0.7-1.4-1.4-2.4-2.2l0.7-0.7C98.2,16,99,16.7,99.7,17.5z M104,19v-2c-1,0.1-2.1,0.2-3.3,0.2l-0.3-0.9c2.9,0,5.3-0.4,7.3-1.1
		l0.5,0.8c-0.9,0.4-2,0.7-3.2,0.9V19h3.7v0.9H105v1.7h2.7v4.1h-6.4v-4.1h2.7v-1.7h-3.6V19H104z M106.7,22.5h-4.5v2.3h4.5V22.5z"/>
	<path class="st3" d="M110.9,27.8l-0.8-0.7c0.9-1.2,1.4-2.8,1.4-4.7v-6.7H122v10.5c0,1-0.5,1.5-1.5,1.5h-1.6l-0.3-1
		c0.6,0,1.1,0.1,1.6,0.1s0.8-0.3,0.8-0.9v-2.4h-3.8v4.1h-1v-4.1h-3.6C112.3,25.2,111.8,26.7,110.9,27.8z M112.5,16.7v2.4h3.6v-2.4
		H112.5z M112.5,22.4h3.6V20h-3.6V22.4z M120.9,16.7h-3.8v2.4h3.8V16.7z M120.9,20h-3.8v2.5h3.8V20z"/>
</g>
<g>
	<g>
		<rect x="309.9" y="95.7" class="st0" width="1" height="31.3"/>
	</g>
	<g>
		<g>
			<g id="XMLID_12_" class="st4">
				<g id="XMLID_13_">
					<rect x="226.6" y="45.8" class="st5" width="170" height="50"/>
				</g>
			</g>
			<g id="XMLID_9_">
				<g id="XMLID_11_">
					<rect x="224.6" y="43.8" class="st6" width="170" height="50"/>
				</g>
				<g id="XMLID_10_">
					<path class="st7" d="M395.1,94.3h-171v-51h171V94.3z M225.1,93.3h169v-49h-169V93.3z"/>
				</g>
			</g>
		</g>
		<g>
			<g>
				<g>
					<path class="st8" d="M278.5,66.6c0-3.9,3.8-7,8.5-7c3.4,0,6.3,1.6,7.7,4h2.2c-1.4-3.5-5.3-6-9.9-6c-5.8,0-10.5,4-10.5,9
						c0,2.5,1.1,4.7,3,6.3v3.7l2.9-1.9c1,0.4,2,0.7,3.1,0.8v-2C281.5,72.9,278.5,70.1,278.5,66.6z"/>
				</g>
				<g>
					<circle class="st8" cx="288.5" cy="63.6" r="1"/>
				</g>
				<g>
					<circle class="st8" cx="283.5" cy="63.6" r="1"/>
				</g>
				<g>
					<circle class="st8" cx="292.5" cy="70.6" r="1"/>
				</g>
				<g>
					<circle class="st8" cx="297.5" cy="70.6" r="1"/>
				</g>
				<g>
					<path class="st8" d="M295.5,64.6c-5,0-9,3.4-9,7.5s4,7.5,9,7.5c1,0,1.9-0.1,2.8-0.4l3.2,2.4v-3.9c1.8-1.4,3-3.4,3-5.6
						C304.5,68,300.5,64.6,295.5,64.6z M295.5,77.6c-3.9,0-7-2.5-7-5.5s3.1-5.5,7-5.5s7,2.5,7,5.5S299.4,77.6,295.5,77.6z"/>
				</g>
			</g>
			<g class="st2">
				<path class="st3" d="M319.9,63c-0.6,1.5-1.6,2.8-2.9,4l-0.3-1c1.1-1,1.8-2.1,2.3-3.4L319.9,63z M320,66.7
					c-0.2,0.5-0.4,1.1-0.7,1.5v7.1h-0.9v-5.8c-0.4,0.5-0.8,0.9-1.3,1.3l-0.3-1c1.1-1.1,1.9-2.3,2.4-3.6L320,66.7z M323.1,73.7
					c0.1-0.1,0.2-0.2,0.3-0.4v-2.5h-1.5v0.6c0,1.8-0.5,3.1-1.3,3.9l-0.7-0.6c0.7-0.8,1.1-1.8,1.1-3.3v-1.5h3.3V73
					c0.4-0.3,0.8-0.7,1.2-1.1l0.2,0.9c-0.7,0.8-1.4,1.4-2.2,1.8L323.1,73.7z M324.8,67.8v0.9h-4.4v-0.9H324.8z M323.1,62.5v3.2h1
					v-2.4h0.8v3.3h-4.5v-3.3h0.8v2.4h1v-3.2C322.2,62.5,323.1,62.5,323.1,62.5z M326.1,68.1c-0.3,0.7-0.5,1.3-0.8,1.8l-0.6-0.7
					c0.8-1.7,1.4-3.9,1.7-6.7l0.9,0.2c-0.1,0.8-0.2,1.5-0.3,2.1h2.6v0.9H329c-0.1,2.4-0.4,4.4-1.1,6.1c0.5,1.1,1.1,2,1.8,2.7
					l-0.6,0.9c-0.7-0.6-1.2-1.5-1.7-2.6c-0.5,1-1.2,1.9-2,2.6l-0.5-0.8c0.9-0.7,1.6-1.7,2.1-2.9C326.7,70.6,326.3,69.4,326.1,68.1z
					 M326.5,66.7c0.2,1.5,0.5,2.7,0.9,3.8c0.4-1.4,0.6-3,0.7-4.8h-1.4C326.7,66,326.6,66.4,326.5,66.7z"/>
				<path class="st3" d="M331,69.3l-0.3-1.1c1.4-1.7,2.4-3.6,3-5.8l0.9,0.4c-0.3,1.1-0.7,2.1-1.2,3v9.5h-1v-7.9
					C332,68.2,331.5,68.8,331,69.3z M338.9,64.4c-0.2-0.6-0.4-1.1-0.7-1.6l1-0.3c0.3,0.6,0.5,1.2,0.7,1.7l-0.5,0.2h4.4v1h-9.1v-1
					H338.9z M342.7,75.4h-1v-0.8h-5.2v0.8h-1v-4.9h7.1v4.9H342.7z M342.5,66.5v0.9h-6.6v-0.9H342.5z M342.5,68.5v0.9h-6.6v-0.9
					H342.5z M341.8,73.7v-2.2h-5.2v2.2H341.8z"/>
			</g>
		</g>
	</g>
</g>
<g>
	<rect x="101.5" y="126" class="st0" width="627.7" height="1"/>
</g>
<g>
	<g>
		<rect x="100.7" y="95.7" class="st0" width="1" height="31.3"/>
	</g>
	<g>
		<g>
			<g id="XMLID_158_" class="st4">
				<g id="XMLID_269_">
					<rect x="17.4" y="45.8" class="st5" width="170" height="50"/>
				</g>
			</g>
			<g id="XMLID_157_">
				<g id="XMLID_270_">
					<rect x="15.4" y="43.8" class="st6" width="170" height="50"/>
				</g>
				<g id="XMLID_271_">
					<path class="st7" d="M185.9,94.3h-171v-51h171V94.3z M15.9,93.3h169v-49h-169C15.9,44.3,15.9,93.3,15.9,93.3z"/>
				</g>
			</g>
		</g>
		<g>
			<g id="XMLID_150_">
				<g id="XMLID_151_">
					<g id="XMLID_152_">
						<g id="XMLID_264_">
							<path class="st8" d="M71.4,56v25h30V56H71.4z M99.4,79h-26V64h26V79z M99.4,62h-26v-4h26V62z M78.4,59h-4v2h4V59z"/>
						</g>
					</g>
				</g>
			</g>
			<g class="st2">
				<path class="st3" d="M114.6,64.8v4.3h5.8v-4.3h1.1v10h-1.1v-4.7h-5.8v4.7h-1.1v-10H114.6z"/>
				<path class="st3" d="M129.8,64.8v1h-4.9l-0.3,3.3h0.1c0.3-0.3,0.6-0.6,1.1-0.8c0.4-0.2,0.8-0.2,1.3-0.2c1,0,1.7,0.3,2.3,0.9
					c0.6,0.6,0.9,1.5,0.9,2.5s-0.4,1.8-1.1,2.5c-0.7,0.6-1.5,0.9-2.5,0.9c-0.9,0-1.6-0.2-2.3-0.7c-0.7-0.5-1.1-1.3-1.1-2.2h1.1
					c0.1,0.6,0.3,1.1,0.8,1.5c0.4,0.3,0.9,0.4,1.5,0.4c0.7,0,1.3-0.2,1.7-0.7c0.4-0.4,0.7-1,0.7-1.7c0-0.8-0.2-1.4-0.6-1.8
					c-0.4-0.4-1-0.7-1.7-0.7c-0.5,0-0.9,0.1-1.3,0.3c-0.4,0.2-0.7,0.5-0.9,0.9h-1.1l0.5-5.5L129.8,64.8L129.8,64.8z"/>
			</g>
		</g>
	</g>
</g>
<g>
	<g>
		<rect x="519.1" y="95.7" class="st0" width="1" height="31.3"/>
	</g>
	<g>
		<g>
			<g id="XMLID_148_" class="st4">
				<g id="XMLID_259_">
					<rect x="435.8" y="45.8" class="st5" width="170" height="50"/>
				</g>
			</g>
			<g id="XMLID_147_">
				<g id="XMLID_260_">
					<rect x="433.8" y="43.8" class="st6" width="170" height="50"/>
				</g>
				<g id="XMLID_261_">
					<path class="st7" d="M604.3,94.3h-171v-51h171V94.3z M434.3,93.3h169v-49h-169V93.3z"/>
				</g>
			</g>
		</g>
		<g>
			<g id="XMLID_140_">
				<g id="XMLID_141_">
					<g id="XMLID_142_">
						<g id="XMLID_246_">
							<path class="st8" d="M478.1,56v25h30V56H478.1z M506.1,79h-26V64h26V79z M506.1,62h-26v-4h26V62z M485.1,59h-4v2h4V59z"/>
						</g>
					</g>
				</g>
			</g>
			<g class="st2">
				<path class="st3" d="M523.1,66.3c-0.7,2.8-1.6,4.9-2.6,6.4l-0.9-0.8c1.1-1.5,1.9-3.5,2.5-6L523.1,66.3z M523.2,75.1L523,74
					c0.7,0.1,1.4,0.1,2,0.1c0.5,0,0.8-0.3,0.8-0.8V62.6h1v11c0,1-0.5,1.5-1.4,1.5H523.2z M532.6,72.1l-0.9,0.6
					c-0.6-2-1.5-4.2-2.6-6.6l0.9-0.6C531.1,68,532,70.2,532.6,72.1z"/>
				<path class="st3" d="M535.9,66.2v-2c-0.6,0.1-1.2,0.2-1.8,0.2l-0.2-1c1.8-0.2,3.3-0.5,4.7-0.9l0.3,1c-0.6,0.2-1.3,0.3-2,0.5v2.2
					h1.8v1h-1.8v0.7c0.7,0.6,1.3,1.4,2,2.2l-0.6,0.8c-0.6-0.9-1-1.6-1.4-2.1v6.3h-1v-6.3c-0.5,1.4-1.1,2.6-1.9,3.7l-0.4-1.1
					c1.1-1.2,1.8-2.7,2.3-4.3H534v-1h1.9V66.2z M546.1,68.3v0.9H543V71h2.6v0.9H543v1.9h3.4v1h-7.9v-1h3.4v-1.9h-2.5V71h2.5v-1.8
					H539v-0.9C539,68.3,546.1,68.3,546.1,68.3z M545.5,62.9v4h-5.8v-4H545.5z M544.5,63.8h-3.8V66h3.8V63.8z"/>
				<path class="st3" d="M555.2,63.6h5.1v0.9H550v3.6c-0.1,3-0.5,5.3-1.5,7.1l-0.8-0.7c0.8-1.6,1.2-3.7,1.2-6.5v-4.5h5.3
					c-0.2-0.4-0.4-0.7-0.6-1.1l1-0.2C554.8,62.7,555,63.1,555.2,63.6z M555.2,68.2c0.8-0.5,1.6-1.1,2.3-1.7h-6.2v-0.9h7.4v0.7
					c-0.9,0.9-1.8,1.7-2.8,2.4c0.2,0.1,0.4,0.3,0.6,0.4l-0.2,0.2h3.6v0.8c-0.6,1.1-1.2,2-1.9,2.8l-0.8-0.6c0.6-0.6,1.1-1.2,1.6-2
					h-3.2V74c0,0.8-0.4,1.2-1.2,1.2h-2.1l-0.2-1c0.7,0,1.3,0.1,1.9,0.1c0.4,0,0.6-0.2,0.6-0.6v-3.5h-4.1v-0.9h5
					c-0.7-0.5-1.7-1.1-2.8-1.6l0.6-0.6C554.1,67.5,554.7,67.8,555.2,68.2z"/>
			</g>
		</g>
	</g>
</g>
<g>
	<g>
		<rect x="728.3" y="95.7" class="st0" width="1" height="31.3"/>
	</g>
	<g>
		<g>
			<g id="XMLID_137_" class="st4">
				<g id="XMLID_241_">
					<rect x="645" y="45.8" class="st5" width="170" height="50"/>
				</g>
			</g>
			<g id="XMLID_136_">
				<g id="XMLID_242_">
					<rect x="643" y="43.8" class="st6" width="170" height="50"/>
				</g>
				<g id="XMLID_243_">
					<path class="st7" d="M813.5,94.3h-171v-51h171V94.3z M643.5,93.3h169v-49h-169V93.3L643.5,93.3z"/>
				</g>
			</g>
		</g>
		<g>
			<g id="XMLID_128_">
				<g id="XMLID_129_">
					<g id="XMLID_130_">
						<g id="XMLID_85_">
							<path class="st8" d="M696.7,54v30h22V54H696.7z M716.7,82h-18V56h18V82z M705.7,81h4v-2h-4V81z M716.7,76h-18v2h18V76z"/>
						</g>
					</g>
				</g>
			</g>
			<g class="st2">
				<path class="st3" d="M738.9,65.3l3.9,10h-1.2l-1.1-2.8h-4.6l-1.1,2.8h-1.2l3.9-10H738.9z M740.2,71.6l-1.9-5h-0.1l-1.9,5H740.2z
					"/>
				<path class="st3" d="M747.9,65.3c2.3,0,3.4,1,3.4,2.9c0,2-1.2,3-3.5,3H745v4.1h-1.1v-10H747.9z M745,70.2h2.9
					c0.8,0,1.4-0.2,1.8-0.5c0.4-0.3,0.6-0.8,0.6-1.5s-0.2-1.2-0.6-1.5c-0.4-0.3-1-0.5-1.8-0.5H745V70.2z"/>
				<path class="st3" d="M756.9,65.3c2.3,0,3.4,1,3.4,2.9c0,2-1.2,3-3.5,3H754v4.1h-1.1v-10H756.9z M754,70.2h2.9
					c0.8,0,1.4-0.2,1.8-0.5c0.4-0.3,0.6-0.8,0.6-1.5s-0.2-1.2-0.6-1.5c-0.4-0.3-1-0.5-1.8-0.5H754V70.2z"/>
			</g>
		</g>
	</g>
</g>
<g>
	<g id="XMLID_8_" class="st4">
		<g id="XMLID_19_">
			<rect x="332" y="165.8" class="st5" width="170" height="50"/>
		</g>
	</g>
	<g id="XMLID_5_">
		<g id="XMLID_7_">
			<rect x="330" y="163.8" class="st6" width="170" height="50"/>
		</g>
		<g id="XMLID_6_">
			<path class="st7" d="M500.5,214.3h-171v-51h171V214.3z M330.5,213.3h169v-49h-169V213.3z"/>
		</g>
	</g>
</g>
<g class="st2">
	<path class="st3" d="M372.9,182.6c-0.7,1.8-1.4,3.2-2.1,4.3c0.6-0.1,1.2-0.2,1.8-0.3c0.3-0.5,0.5-1,0.8-1.5l0.9,0.4
		c-1.2,2.3-2.3,4-3.1,5c1-0.3,2-0.6,3-1v0.9c-1.5,0.6-2.9,1-4.2,1.2l-0.3-0.9c0.2-0.1,0.3-0.2,0.5-0.3c0.5-0.6,1.2-1.5,2-2.8
		c-0.8,0.1-1.5,0.3-2.3,0.4l-0.3-0.9c0.2-0.1,0.3-0.2,0.4-0.4c0.8-1.3,1.4-2.7,2-4.4L372.9,182.6z M374.2,192.8
		c-1.3,0.6-2.7,1.2-4.4,1.6l-0.1-1c1.7-0.4,3.2-0.9,4.5-1.5V192.8z M376.7,188.9c-0.1,1.8-0.3,3.1-0.7,3.9c-0.4,0.9-1.1,1.6-2,2.2
		l-0.6-0.8c0.8-0.5,1.4-1.1,1.8-1.9c0.3-0.7,0.5-1.9,0.6-3.5h0.9V188.9z M374.4,187.4c0.1,0,0.1-0.1,0.2-0.1
		c0.5-0.4,1.1-1.2,1.8-2.7H374v-1h3.6c-0.2-0.5-0.4-1-0.6-1.4l1-0.2c0.2,0.5,0.4,1,0.6,1.6h3.2v1h-4.3c-0.6,1.2-1.2,2.1-1.6,2.7
		c1.3-0.1,2.6-0.3,3.9-0.5c-0.3-0.4-0.6-0.9-1-1.4l0.8-0.5c1,1.2,1.7,2.3,2.2,3.2l-0.8,0.5c-0.2-0.4-0.4-0.7-0.6-1.1
		c-1.7,0.3-3.6,0.5-5.7,0.6L374.4,187.4z M379.8,194.8c-0.8,0-1.3-0.4-1.3-1.2v-4.8h1v4.6c0,0.3,0.1,0.4,0.3,0.5h0.9
		c0.3,0,0.5-0.2,0.5-0.5c0.1-0.4,0.1-1,0.1-1.8l0.9,0.3c0,1.3-0.1,2.1-0.3,2.5c-0.2,0.3-0.6,0.4-1.2,0.5h-0.9V194.8z"/>
	<path class="st3" d="M396.1,188v1h-12.6v-1H396.1z"/>
	<path class="st3" d="M409.3,183v1H407v3.7h3.1v1H407v6.2h-1v-6.2h-4c-0.1,1.4-0.4,2.6-0.8,3.6c-0.5,1.2-1.4,2.1-2.6,2.7l-0.5-0.9
		c1.1-0.6,1.9-1.5,2.4-2.6c0.3-0.8,0.5-1.8,0.6-2.9h-3.2v-1h3.3c0-0.2,0-0.4,0-0.5V184h-2.5v-1H409.3z M402,187.2c0,0.2,0,0.3,0,0.5
		h4V184h-4V187.2z"/>
	<path class="st3" d="M414.3,184.3c-0.3-0.7-0.6-1.3-0.9-1.9l1-0.3c0.4,0.8,0.7,1.6,0.9,2.2h2.1v1H414v1.3c0,0.3,0,0.5,0,0.8h2.7
		c0,3.4-0.1,5.5-0.2,6.3s-0.7,1.2-1.7,1.2c-0.2,0-0.5,0-1-0.1l-0.2-0.9c0.4,0,0.7,0,1.1,0c0.5,0,0.8-0.2,0.9-0.7s0.2-2.2,0.2-5H414
		c-0.2,3-0.8,5.2-1.8,6.7l-0.8-0.7c1.1-1.6,1.7-4.2,1.8-7.8v-1.3h-1.5v-1h2.6V184.3z M417.6,188.5l-0.6-0.7c1.1-1.4,1.8-3.3,2.2-5.7
		l1,0.2c-0.1,0.7-0.3,1.4-0.5,2h4.1v1h-1c-0.1,2.4-0.6,4.4-1.6,6c0.9,1.3,1.9,2.2,3.1,2.9l-0.6,0.9c-1.2-0.7-2.3-1.7-3.1-2.9
		c-0.8,1.1-1.9,2.1-3.2,2.8l-0.6-0.9c1.3-0.7,2.4-1.7,3.2-2.8c-0.7-1.1-1.2-2.4-1.7-3.8C418.1,187.8,417.9,188.2,417.6,188.5z
		 M419,186.4c0.4,1.5,1,2.9,1.6,4c0.8-1.4,1.2-3.2,1.3-5.1h-2.4C419.3,185.7,419.1,186,419,186.4z"/>
	<path class="st3" d="M428.3,195h-1v-6.9c-0.4,1.3-1,2.6-1.6,3.7l-0.4-1.1c1-1.4,1.6-3,2-4.8h-1.8v-1h1.8v-2.7h1v2.7h1.5v1h-1.5v0.9
		c0.6,0.7,1.2,1.5,1.8,2.4l-0.5,0.8c-0.5-0.9-0.9-1.6-1.2-2.1L428.3,195L428.3,195z M438,182.7v1h-6.4v10.1h6.7v1h-7.6v-12h7.3
		V182.7z M437.6,185v0.9h-2.1v2.3h1.8v0.9h-1.8v2.5h2.3v0.9h-5.5v-0.9h2.3v-2.5h-1.8v-0.9h1.8v-2.3h-2.1V185H437.6z"/>
	<path class="st3" d="M442.9,182.2v1.3h2.7c0,2.4-0.2,3.8-0.4,4.3c-0.3,0.5-0.8,0.7-1.5,0.7c-0.2,0-0.5,0-0.8-0.1l-0.3-0.9l0.8,0.1
		c0.5,0,0.8-0.2,1-0.5c0.1-0.3,0.2-1.2,0.2-2.7h-1.8c-0.3,2-1.1,3.4-2.6,4.4l-0.7-0.7c1.3-0.8,2.1-2.1,2.4-3.8h-2v-0.9h2.1v-1.3
		L442.9,182.2L442.9,182.2z M445.3,189.8v-1.1h1v1.1h5.6v1h-4.7c1,1.1,2.6,2.1,4.8,3l-0.7,0.9c-2.4-1.2-4-2.5-5-3.9h-0.1v4.3h-1
		v-4.3h-0.1c-1,1.6-2.7,2.9-5.1,3.9l-0.6-0.9c2.2-0.8,3.8-1.8,4.8-3h-4.7v-1H445.3z M451.3,183.2v4.8h-4.5v-4.8H451.3z M450.4,184.1
		h-2.6v3h2.6V184.1z"/>
</g>
</svg>
