<svg xmlns="http://www.w3.org/2000/svg" width="48" height="48" viewBox="0 0 48 48">
  <g fill="none" transform="translate(2 3)">
    <path stroke="#334966" stroke-width="2" d="M1.03140813,1.06696537 L1.03140231,27.04533 L1.00971652,33.2854056 L7.85751888,24.9892374 L33.9432177,25.0091134 L34.0158888,1.00197816 L1.03140813,1.06696537 Z"/>
    <path stroke="#334966" stroke-width="2" d="M11.0314081,8.06690751 L11.0314023,34.04533 L11.0097165,40.2854056 L17.8575305,31.9892234 L42.9432178,32.0090837 L43.0158887,8.00203642 L11.0314081,8.06690751 Z" transform="matrix(-1 0 0 1 54.019 0)"/>
    <rect width="23" height="17" x="10" y="7" fill="#00A4FF"/>
    <path fill="#334966" d="M16,9 L16,13 L14,13 L14,9 L10,9 L10,7 L16,7 L16,9 Z" transform="rotate(-90 13 10)"/>
  </g>
</svg>
