<?xml version="1.0" encoding="utf-8"?>
<!-- Generator: Adobe Illustrator 22.1.0, SVG Export Plug-In . SVG Version: 6.00 Build 0)  -->
<svg version="1.1" id="图层_1" xmlns="http://www.w3.org/2000/svg" xmlns:xlink="http://www.w3.org/1999/xlink" x="0px" y="0px"
	 width="810px" height="702.3px" viewBox="0 0 810 702.3" style="enable-background:new 0 0 810 702.3;" xml:space="preserve">
<style type="text/css">
	.st0{fill:#EAEBEC;}
	.st1{opacity:0.6;enable-background:new    ;}
	.st2{fill:#BBBBBB;}
	.st3{fill:#FFFFFF;}
	.st4{fill:#E5E5E5;}
	.st5{fill:#00A4FF;}
	.st6{fill:#444444;}
	.st7{fill:#878787;}
	.st8{fill:#BABABA;}
	.st9{fill:#00A3FF;}
	.st10{fill:#00C5D9;}
	.st11{fill:#006EFF;}
</style>
<rect x="159.3" y="48.4" class="st0" width="478" height="73"/>
<g class="st1">
	<rect x="317" y="61.3" class="st2" width="165" height="50"/>
</g>
<g>
	<rect x="315" y="59.3" class="st3" width="165" height="50"/>
	<path class="st4" d="M480.5,109.8h-166v-51h166V109.8z M315.5,108.8h164v-49h-164V108.8z"/>
</g>
<g>
	<g id="_复合路径__2_">
		<path class="st5" d="M366.6,87.3c0,1.1-0.9,2-2,2c-0.2,0-0.4,0-0.6-0.1l-3.4,2v0.1c0,1.1-0.9,2-2,2s-2-0.9-2-2v-0.1l-3.4-2
			c-0.2,0.1-0.4,0.1-0.6,0.1c-1.1,0-2-0.9-2-2c0-0.7,0.4-1.3,1-1.7V82c-1-0.5-1.3-1.7-0.8-2.7s1.7-1.3,2.7-0.8
			c0.2,0.1,0.4,0.2,0.5,0.4l2.6-1.5v-0.1c0-1.1,0.9-2,2-2s2,0.9,2,2c0,0.1,0,0.1,0,0.2l2.6,1.5c0.7-0.8,2-0.9,2.8-0.1
			c0.8,0.7,0.9,2,0.1,2.8c-0.1,0.2-0.3,0.3-0.5,0.4v3.5C366.2,85.9,366.6,86.6,366.6,87.3z M353.6,82.5v3.1c0.2,0.1,0.4,0.3,0.5,0.5
			l2.6-1.7L353.6,82.5z M357.6,79L357.6,79l-3,1.7l0,0l3,1.8V79z M357.6,86.2l-2.8,1.8l2.7,1.6l0.1-0.1V86.2L357.6,86.2z
			 M363.6,85.6v-3.3l-3.1,2l2.7,1.6C363.3,85.8,363.5,85.7,363.6,85.6z M359.6,89.6l0.1,0.1l2.9-1.8l-3-1.8V89.6z M359.7,79
			l-0.1,0.1v3.5l2.9-1.9L359.7,79z M371.4,82.3c-1.1-7.1-7.8-11.9-14.8-10.8c-7.1,1.1-11.9,7.8-10.8,14.8
			c1.1,7.1,7.8,11.9,14.8,10.8c5.6-0.9,10-5.3,10.8-10.8h2c-1.1,8.2-8.7,14-16.9,12.9s-14-8.7-12.9-16.9s8.7-14,16.9-12.9
			c6.7,0.9,12,6.2,12.9,12.9H371.4z"/>
	</g>
	<g>
		<g>
			<path class="st6" d="M384,89.7l-0.7-0.7c0.5-1.6,0.7-3.2,0.7-4.8v-6.8h3.6v11.1c0.1,0.5-0.3,1-0.9,1.1c-0.1,0-0.2,0-0.3,0h-1
				l-0.2-0.9c0.3,0,0.6,0,0.9,0s0.5-0.2,0.5-0.6V85h-1.7C384.9,86.6,384.6,88.2,384,89.7z M386.6,78.4H385v2.4h1.6V78.4z M385,84.1
				h1.6v-2.3H385V84.1z M389.5,78.8c-0.2-0.5-0.4-0.9-0.7-1.3l0.9-0.3c0.3,0.5,0.6,1.1,0.7,1.6h0.7c0.2-0.7,0.3-1.3,0.4-2l1,0.1
				c-0.1,0.6-0.2,1.3-0.4,1.9h1.1c0.3-0.5,0.6-1.1,0.8-1.7l0.9,0.3c-0.2,0.5-0.5,0.9-0.8,1.4h1.2v0.8h-3.5c-0.1,0.4-0.3,0.8-0.5,1.1
				h4.4v0.8h-2.1c0.7,0.8,1.6,1.4,2.5,1.7l-0.4,0.9c-0.6-0.3-1.1-0.6-1.6-0.9v0.1c-0.1,0.8-0.2,1.5-0.4,2h1.5c0,2.3-0.2,3.6-0.5,3.9
				c-0.5,0.3-1.1,0.5-1.7,0.4h-0.6l-0.2-0.9h0.9c0.3,0,0.7,0,1-0.2c0.3-0.8,0.4-1.6,0.3-2.4h-5.2c0.2-0.7,0.4-1.4,0.6-2.1l0.9,0.1
				c-0.1,0.4-0.2,0.8-0.3,1.2h2.6c0.2-0.5,0.3-1.1,0.3-1.7h-3.7v-0.3c-0.4,0.4-0.9,0.7-1.4,1l-0.5-0.8c0.8-0.5,1.6-1.1,2.2-1.8h-1.7
				v-0.8h2.3c0.2-0.4,0.4-0.7,0.5-1.1h-2.4V79L389.5,78.8z M393.2,87.1V88h-5v-0.9H393.2z M393.8,83c-0.5-0.4-0.9-0.8-1.2-1.3h-1.8
				c-0.3,0.5-0.7,0.9-1.1,1.3H393.8z"/>
		</g>
		<g>
			<path class="st6" d="M400.1,81.2v6.2c0.5-0.4,0.9-0.8,1.4-1.4l0.3,1.1c-0.8,0.8-1.7,1.5-2.6,2.2l-0.4-0.9
				c0.2-0.2,0.3-0.4,0.3-0.6v-5.5h-1.9v-1L400.1,81.2z M401.1,79.2l-0.7,0.7c-0.7-0.8-1.5-1.5-2.3-2.2l0.7-0.7
				C399.7,77.6,400.4,78.4,401.1,79.2L401.1,79.2z M403.5,82.4v-3.8h-1.9v-1h6.4v4.3c-0.1,2,0.1,4,0.6,5.9c0.2,0.4,0.4,0.7,0.5,0.7
				s0.1-0.2,0.1-0.5s0.1-1,0.1-1.7l0.8,0.4c0,0.9-0.1,1.7-0.3,2.6c-0.1,0.3-0.3,0.4-0.5,0.4c-0.6-0.1-1.1-0.4-1.4-1
				c-0.7-1.2-1-3.4-1-6.7v-3.3h-2.6v3.8h1.9v1h-1.9v6.4h-1v-6.6h-2.1v-1L403.5,82.4z"/>
		</g>
		<g>
			<path class="st6" d="M423.4,78.3c0.8,0,1.6,0.2,2.2,0.7c0.5,0.5,0.8,1.1,0.8,1.8c0,0.5-0.1,1-0.5,1.5c-0.3,0.4-0.7,0.7-1.2,0.8
				c0.6,0.1,1.1,0.4,1.5,0.8c0.4,0.5,0.6,1,0.6,1.6c0.1,0.9-0.3,1.7-1,2.2c-0.7,0.4-1.6,0.6-2.4,0.6H419v-10L423.4,78.3L423.4,78.3z
				 M420.1,82.7h3c0.6,0,1.1-0.1,1.6-0.4c0.4-0.3,0.6-0.8,0.6-1.3s-0.2-1-0.5-1.3c-0.5-0.3-1-0.5-1.6-0.4h-3L420.1,82.7z
				 M420.1,87.3h3.2c0.6,0,1.2-0.1,1.7-0.4s0.8-0.9,0.7-1.4c0-0.6-0.2-1.1-0.6-1.4c-0.5-0.3-1.1-0.5-1.8-0.4h-3.2L420.1,87.3
				L420.1,87.3z"/>
		</g>
		<g>
			<path class="st6" d="M433.7,81.7c0.5,0.6,0.7,1.3,0.6,2v4.6h-1v-1.2c-0.3,0.4-0.7,0.8-1.1,1c-0.6,0.3-1.2,0.5-1.8,0.4
				c-0.6,0-1.2-0.2-1.7-0.6c-0.4-0.4-0.7-0.9-0.7-1.5c0-0.8,0.3-1.5,1-1.9c0.8-0.4,1.6-0.7,2.5-0.6h1.7v-0.4c0-1.2-0.6-1.8-1.9-1.8
				c-0.5,0-0.9,0.1-1.3,0.3c-0.4,0.2-0.6,0.6-0.7,1l-1.1-0.1c0.1-0.7,0.5-1.3,1.1-1.7s1.4-0.5,2.1-0.5
				C432.3,80.8,433.1,81.1,433.7,81.7z M431.6,84.9c-1.6,0-2.4,0.6-2.4,1.6c0,0.3,0.1,0.6,0.4,0.8c0.3,0.2,0.7,0.3,1.1,0.3
				c0.7,0,1.3-0.2,1.8-0.7c0.5-0.4,0.8-0.9,0.8-1.5v-0.6L431.6,84.9z"/>
		</g>
		<g>
			<path class="st6" d="M441.5,81.7c0.5,0.6,0.7,1.3,0.6,2v4.6h-1v-1.2c-0.3,0.4-0.7,0.8-1.1,1c-0.6,0.3-1.2,0.5-1.8,0.4
				c-0.6,0-1.2-0.2-1.7-0.6c-0.4-0.4-0.7-0.9-0.7-1.5c0-0.8,0.3-1.5,1-1.9c0.8-0.4,1.6-0.7,2.5-0.6h1.7v-0.4c0-1.2-0.6-1.8-1.9-1.8
				c-0.5,0-0.9,0.1-1.3,0.3c-0.4,0.2-0.6,0.6-0.7,1l-1.1-0.1c0.1-0.7,0.5-1.3,1.1-1.7s1.4-0.5,2.1-0.5
				C440.1,80.8,440.9,81.1,441.5,81.7z M439.4,84.9c-1.6,0-2.4,0.6-2.4,1.6c0,0.3,0.1,0.6,0.4,0.8c0.3,0.2,0.7,0.3,1.1,0.3
				c0.7,0,1.3-0.2,1.8-0.7c0.5-0.4,0.8-0.9,0.8-1.5v-0.6L439.4,84.9z"/>
		</g>
		<g>
			<path class="st6" d="M450.1,78.9c0.7,0.6,1.1,1.5,1.1,2.4h-1.1c-0.1-0.6-0.4-1.2-0.8-1.6c-0.6-0.4-1.2-0.6-1.9-0.5
				c-0.6,0-1.2,0.1-1.7,0.4c-0.7,0.4-0.9,1.2-0.5,1.9c0.2,0.3,0.4,0.5,0.7,0.6c0.6,0.3,1.2,0.5,1.8,0.6c0.9,0.2,1.8,0.6,2.6,1
				s1.3,1.2,1.2,2.1c0,0.8-0.4,1.6-1,2.1c-0.8,0.5-1.8,0.8-2.8,0.7c-1,0.1-2-0.2-2.8-0.8c-0.8-0.7-1.3-1.7-1.3-2.7h1.1
				c0,0.7,0.4,1.4,0.9,1.9c0.6,0.4,1.3,0.6,2,0.6s1.4-0.1,2-0.5c0.5-0.2,0.8-0.7,0.8-1.3s-0.4-1.2-1-1.5c-0.7-0.3-1.4-0.6-2.1-0.7
				c-0.8-0.2-1.6-0.5-2.3-0.8c-0.7-0.4-1.2-1.1-1.1-1.9c0-0.8,0.4-1.6,1.1-2c0.8-0.5,1.7-0.7,2.5-0.7
				C448.3,78.1,449.3,78.4,450.1,78.9z"/>
		</g>
		<g>
			<path class="st6" d="M418,78.4v1h-3.5v9h-1.1v-9h-3.5v-1H418z"/>
		</g>
	</g>
</g>
<rect x="160.8" y="629.4" class="st2" width="156" height="50"/>
<rect x="158.8" y="627.4" class="st3" width="156" height="50"/>
<path class="st4" d="M315.3,677.9h-157v-51h157V677.9z M159.3,676.9h155v-49h-155V676.9z"/>
<rect x="327.3" y="569.4" class="st2" width="156" height="50"/>
<rect x="492.9" y="569.4" class="st2" width="146" height="50"/>
<rect x="160.8" y="569.4" class="st2" width="156" height="50"/>
<rect x="327.3" y="629.4" class="st2" width="156" height="50"/>
<rect x="492.9" y="629.4" class="st2" width="146" height="50"/>
<rect x="325.3" y="567.4" class="st3" width="156" height="50"/>
<path class="st4" d="M481.8,617.9h-157v-51h157V617.9z M325.8,616.9h155v-49h-155V616.9z"/>
<rect x="490.9" y="567.4" class="st3" width="146" height="50"/>
<path class="st4" d="M637.4,617.9h-147v-51h147V617.9L637.4,617.9z M491.4,616.9h145v-49h-145V616.9L491.4,616.9z"/>
<rect x="159.4" y="262.4" class="st0" width="478" height="130"/>
<rect x="159.4" y="422.4" class="st0" width="478" height="70"/>
<rect x="161.4" y="159.4" class="st0" width="476" height="70"/>
<rect x="665.2" y="64.4" class="st2" width="141" height="50"/>
<rect x="665.2" y="334.4" class="st2" width="141" height="50"/>
<rect x="172.4" y="434.7" class="st2" width="145" height="50"/>
<rect x="18.5" y="59.4" class="st2" width="108.8" height="50"/>
<rect x="322.4" y="273.4" class="st2" width="145" height="50"/>
<rect x="172.4" y="333.4" class="st2" width="138" height="50"/>
<rect x="322.4" y="333.4" class="st2" width="145" height="50"/>
<rect x="479.3" y="333.4" class="st2" width="148" height="50"/>
<rect x="328.4" y="434.7" class="st2" width="145" height="50"/>
<rect x="484.4" y="434.7" class="st2" width="145" height="50"/>
<path class="st5" d="M23.2,32v3.1h1V32c0.8-0.3,1.2-1.1,0.9-1.9c-0.3-0.8-1.1-1.2-1.9-0.9c-0.8,0.3-1.2,1.1-0.9,1.9
	C22.4,31.5,22.7,31.8,23.2,32z M28.2,27.1v-2c-0.3-2.5-2.5-4.3-5-4c-2.1,0.2-3.7,1.9-4,4v2h-2v10h13v-10H28.2z M20.2,25.6
	c0-1.9,1.6-3.5,3.5-3.5s3.5,1.6,3.5,3.5v1.5h-7V25.6L20.2,25.6z M29.2,36.1h-11v-8h11V36.1z"/>
<polygon class="st7" points="735.4,312.3 740.4,320.5 745.4,312.3 "/>
<rect x="739.9" y="123.6" class="st7" width="1" height="190.7"/>
<polygon class="st7" points="134.3,627.4 139.3,632.4 134.3,637.4 "/>
<polygon class="st7" points="137.3,632.9 58.8,632.9 58.8,132.4 59.8,132.4 59.8,631.9 137.3,631.9 "/>
<rect x="663.2" y="62.4" class="st3" width="141" height="50"/>
<path class="st4" d="M804.7,112.9h-142v-51h142V112.9z M663.7,111.9h140v-49h-140V111.9z"/>
<g>
	<path class="st6" d="M727.8,84.1l-0.9-0.6c0.8-0.8,1.4-1.8,1.8-2.9l1,0.2c-0.1,0.3-0.2,0.6-0.3,0.9h3.8v0.9h-2.3
		c0.3,0.4,0.5,0.8,0.8,1.2l-0.9,0.3c-0.3-0.5-0.6-1.1-0.9-1.6h-0.8C728.7,83.1,728.3,83.6,727.8,84.1z M739.2,87.1h-1v-1.7h-9.9v1.7
		h-1v-2.5h5.5c-0.1-0.3-0.3-0.6-0.4-0.9l1-0.2l-0.1-0.1c0.6-0.8,1.1-1.8,1.4-2.8l1,0.2c-0.1,0.3-0.2,0.6-0.3,0.8h4v0.9h-2.5
		c0.3,0.3,0.5,0.7,0.7,1.1l-0.9,0.3c-0.2-0.5-0.5-1-0.9-1.4h-0.9c-0.3,0.5-0.5,0.9-0.8,1.3l-0.8-0.5c0.2,0.3,0.3,0.7,0.5,1.1h5.3
		L739.2,87.1z M737.2,89h-7v1h7.6v3.6h-1V93h-6.6v0.6h-1v-7.3h8V89z M736.2,88.2V87h-6v1.1L736.2,88.2z M736.9,92.1v-1.3h-6.6v1.3
		H736.9z"/>
</g>
<g>
	<path class="st6" d="M742.6,85.9v-3.3h-1.7v-1h4.5v1h-1.7v3.3h1.5v1h-1.5v3.2c0.5-0.2,1-0.4,1.5-0.6v1c-1.4,0.6-2.7,1-4.2,1.3
		l-0.2-1c0.6-0.1,1.2-0.2,1.8-0.4v-3.5h-1.5v-1H742.6z M752.9,81.3v6.5H750v1.6h3.2v1H750v1.8h3.7v1h-8.4v-1h3.8v-1.9h-3.2v-0.9h3.2
		v-1.7h-2.9v-6.5L752.9,81.3L752.9,81.3z M749,84.1v-1.9h-2v1.9H749z M749,84.9h-2v1.9h2V84.9z M750,84.1h2v-1.9h-2V84.1z
		 M751.9,84.9h-2v1.9h2V84.9z"/>
</g>
<g>
	<path class="st6" d="M761.9,87.7c-0.2,2.1-0.6,3.4-1.3,4.2c-0.7,0.8-2.4,1.4-5,1.7l-0.4-0.9c2.3-0.1,3.8-0.6,4.5-1.4
		c0.8-1.1,1.2-2.3,1.2-3.7L761.9,87.7z M765.9,91h-1v-4.3h-7.4v4.5h-1v-5.4h9.4V91z M765.1,81.2v3.5h-7.8v-3.5H765.1z M764.1,82.1
		h-5.8v1.7h5.8V82.1z M767.2,92.7l-0.5,0.8c-1.6-0.8-3.3-1.5-5-2l0.5-0.8C763.9,91.3,765.6,92,767.2,92.7L767.2,92.7z"/>
</g>
<rect x="684.2" y="71.4" class="st3" width="32" height="32"/>
<path class="st7" d="M696.2,76.4c2.2,0,4,1.8,4,4s-1.8,4-4,4s-4-1.8-4-4C692.2,78.2,694,76.4,696.2,76.4 M696.2,74.4
	c-3.3,0-6,2.7-6,6s2.7,6,6,6s6-2.7,6-6C702.2,77.1,699.5,74.4,696.2,74.4z"/>
<path class="st7" d="M700.2,90.4c3.3,0,6,2.7,6,6v1h-20v-1c0-3.3,2.7-6,6-6H700.2 M700.2,88.4h-8c-4.4,0-8,3.6-8,8v3h24v-3
	C708.2,92,704.6,88.4,700.2,88.4z"/>
<path class="st7" d="M709.2,88.4h-3c0.8,0.6,1.4,1.2,2,2h1c2.2,0,4,1.8,4,4v1h-3c0,0.3,0,0.7,0,1v1h5v-3
	C715.2,91.1,712.5,88.4,709.2,88.4z"/>
<path class="st7" d="M705.2,75.3c-0.8,0-1.6,0.2-2.3,0.6c0.4,0.6,0.7,1.2,0.9,1.8c0.4-0.3,0.9-0.4,1.5-0.4c1.7,0,3,1.3,3,3
	s-1.3,3-3,3c-0.5,0-1-0.1-1.5-0.4c-0.2,0.6-0.5,1.2-0.9,1.8c0.7,0.4,1.5,0.6,2.3,0.6c2.8,0,5-2.2,5-5S708,75.3,705.2,75.3z"/>
<path class="st8" d="M400.4,247.9h-5v-1h5V247.9z M390.4,247.9h-5v-1h5V247.9z M380.4,247.9h-5v-1h5V247.9z M370.4,247.9h-5v-1h5
	V247.9z M360.4,247.9h-5v-1h5V247.9z M350.4,247.9h-5v-1h5V247.9z M340.4,247.9h-5v-1h5V247.9z M330.4,247.9h-5v-1h5V247.9z
	 M320.4,247.9h-5v-1h5V247.9z M310.4,247.9h-5v-1h5V247.9z M300.4,247.9h-5v-1h5V247.9z M290.4,247.9h-5v-1h5V247.9z M280.4,247.9
	h-5v-1h5V247.9z M270.4,247.9h-5v-1h5V247.9z M260.4,247.9h-5v-1h5V247.9z M250.4,247.9h-5v-1h5V247.9z M240.4,247.9h-5v-1h5V247.9z
	 M230.4,247.9h-5v-1h5V247.9z"/>
<path class="st8" d="M138.3,131.9h-6v-1h6V131.9z M128.3,131.9h-6v-1h6V131.9z M118.3,131.9h-6v-1h6V131.9z M108.3,131.9h-6v-1h6
	V131.9z M98.3,131.9h-6v-1h6V131.9z M88.3,131.9h-6v-1h6V131.9z M78.3,131.9h-6v-1h6V131.9z M68.3,131.9h-6v-1h6V131.9z M58.3,131.9
	h-6v-1h6V131.9z M48.3,131.9h-6v-1h6V131.9z M38.3,131.9h-6v-1h6V131.9z M28.3,131.9h-6v-1h6V131.9z M18.3,131.9h-6v-1h6V131.9z
	 M8.3,131.9H6.8v-5.5h1v4.5h0.5V131.9z M138.8,127.4h-1v-6h1V127.4z M7.8,122.4h-1v-6h1V122.4z M138.8,117.4h-1v-6h1V117.4z
	 M7.8,112.4h-1v-6h1V112.4z M138.8,107.4h-1v-6h1V107.4z M7.8,102.4h-1v-6h1V102.4z M138.8,97.4h-1v-6h1V97.4z M7.8,92.4h-1v-6h1
	V92.4z M138.8,87.4h-1v-6h1V87.4z M7.8,82.4h-1v-6h1V82.4z M138.8,77.4h-1v-6h1V77.4z M7.8,72.4h-1v-6h1V72.4z M138.8,67.4h-1v-6h1
	V67.4z M7.8,62.4h-1v-6h1V62.4z M138.8,57.4h-1v-6h1V57.4z M7.8,52.4h-1v-6h1V52.4z M138.8,47.4h-1v-6h1V47.4z M7.8,42.4h-1v-6h1
	V42.4z M138.8,37.4h-1v-6h1V37.4z M7.8,32.4h-1v-6h1V32.4z M138.8,27.4h-1v-6h1V27.4z M7.8,22.4h-1v-6h1V22.4z M138.8,17.4h-1v-4.5
	h-0.5v-1h1.5V17.4z M133.3,12.9h-6v-1h6V12.9z M123.3,12.9h-6v-1h6V12.9z M113.3,12.9h-6v-1h6V12.9z M103.3,12.9h-6v-1h6V12.9z
	 M93.3,12.9h-6v-1h6V12.9z M83.3,12.9h-6v-1h6V12.9z M73.3,12.9h-6v-1h6V12.9z M63.3,12.9h-6v-1h6V12.9z M53.3,12.9h-6v-1h6V12.9z
	 M43.3,12.9h-6v-1h6V12.9z M33.3,12.9h-6v-1h6V12.9z M23.3,12.9h-6v-1h6V12.9z M13.3,12.9h-6v-1h6V12.9z"/>
<path class="st8" d="M647.7,502.9h-6v-1h6V502.9z M637.7,502.9h-6v-1h6V502.9z M627.7,502.9h-6v-1h6V502.9z M617.7,502.9h-6v-1h6
	V502.9z M607.7,502.9h-6v-1h6V502.9z M597.7,502.9h-6v-1h6V502.9z M587.7,502.9h-6v-1h6V502.9z M577.7,502.9h-6v-1h6V502.9z
	 M567.7,502.9h-6v-1h6V502.9z M557.7,502.9h-6v-1h6V502.9z M547.7,502.9h-6v-1h6V502.9z M537.7,502.9h-6v-1h6V502.9z M527.7,502.9
	h-6v-1h6V502.9z M517.7,502.9h-6v-1h6V502.9z M507.7,502.9h-6v-1h6V502.9z M497.7,502.9h-6v-1h6V502.9z M487.7,502.9h-6v-1h6V502.9z
	 M477.7,502.9h-6v-1h6V502.9z M467.7,502.9h-6v-1h6V502.9z M457.7,502.9h-6v-1h6V502.9z M447.7,502.9h-6v-1h6V502.9z M437.7,502.9
	h-6v-1h6V502.9z M427.7,502.9h-6v-1h6V502.9z M417.7,502.9h-6v-1h6V502.9z M407.7,502.9h-6v-1h6V502.9z M397.7,502.9h-6v-1h6V502.9z
	 M387.7,502.9h-6v-1h6V502.9z M377.7,502.9h-6v-1h6V502.9z M367.7,502.9h-6v-1h6V502.9z M357.7,502.9h-6v-1h6V502.9z M347.7,502.9
	h-6v-1h6V502.9z M337.7,502.9h-6v-1h6V502.9z M327.7,502.9h-6v-1h6V502.9z M317.7,502.9h-6v-1h6V502.9z M307.7,502.9h-6v-1h6V502.9z
	 M297.7,502.9h-6v-1h6V502.9z M287.7,502.9h-6v-1h6V502.9z M277.7,502.9h-6v-1h6V502.9z M267.7,502.9h-6v-1h6V502.9z M257.7,502.9
	h-6v-1h6V502.9z M247.7,502.9h-6v-1h6V502.9z M237.7,502.9h-6v-1h6V502.9z M227.7,502.9h-6v-1h6V502.9z M217.7,502.9h-6v-1h6V502.9z
	 M207.7,502.9h-6v-1h6V502.9z M197.7,502.9h-6v-1h6V502.9z M187.7,502.9h-6v-1h6V502.9z M177.7,502.9h-6v-1h6V502.9z M167.7,502.9
	h-6v-1h6V502.9z M157.7,502.9h-6v-1h6V502.9z M149.3,501.4h-1v-6h1V501.4z M648.7,498.9h-1v-6h1V498.9z M149.3,491.4h-1v-6h1V491.4z
	 M648.7,488.9h-1v-6h1V488.9z M149.3,481.4h-1v-6h1V481.4z M648.7,478.9h-1v-6h1V478.9z M149.3,471.4h-1v-6h1V471.4z M648.7,468.9
	h-1v-6h1V468.9z M149.3,461.4h-1v-6h1V461.4z M648.7,458.9h-1v-6h1V458.9z M149.3,451.4h-1v-6h1V451.4z M648.7,448.9h-1v-6h1V448.9z
	 M149.3,441.4h-1v-6h1V441.4z M648.7,438.9h-1v-6h1V438.9z M149.3,431.4h-1v-6h1V431.4z M648.7,428.9h-1v-6h1V428.9z M149.3,421.4
	h-1v-6h1V421.4z M648.7,418.9h-1v-6h1V418.9z M149.3,411.4h-1v-6h1V411.4z M648.7,408.9h-1v-6h1V408.9z M149.3,401.4h-1v-6h1V401.4z
	 M648.7,398.9h-1v-6h1V398.9z M149.3,391.4h-1v-6h1V391.4z M648.7,388.9h-1v-6h1V388.9z M149.3,381.4h-1v-6h1V381.4z M648.7,378.9
	h-1v-6h1V378.9z M149.3,371.4h-1v-6h1V371.4z M648.7,368.9h-1v-6h1V368.9z M149.3,361.4h-1v-6h1V361.4z M648.7,358.9h-1v-6h1V358.9z
	 M149.3,351.4h-1v-6h1V351.4z M648.7,348.9h-1v-6h1V348.9z M149.3,341.4h-1v-6h1V341.4z M648.7,338.9h-1v-6h1V338.9z M149.3,331.4
	h-1v-6h1V331.4z M648.7,328.9h-1v-6h1V328.9z M149.3,321.4h-1v-6h1V321.4z M648.7,318.9h-1v-6h1V318.9z M149.3,311.4h-1v-6h1V311.4z
	 M648.7,308.9h-1v-6h1V308.9z M149.3,301.4h-1v-6h1V301.4z M648.7,298.9h-1v-6h1V298.9z M149.3,291.4h-1v-6h1V291.4z M648.7,288.9
	h-1v-6h1V288.9z M149.3,281.4h-1v-6h1V281.4z M648.7,278.9h-1v-6h1V278.9z M149.3,271.4h-1v-6h1V271.4z M648.7,268.9h-1v-6h1V268.9z
	 M149.3,261.4h-1v-6h1V261.4z M648.7,258.9h-1v-6h1V258.9z M149.3,251.4h-1v-6h1V251.4z M648.7,248.9h-1v-6h1V248.9z M149.3,241.4
	h-1v-6h1V241.4z M648.7,238.9h-1v-6h1V238.9z M149.3,231.4h-1v-6h1V231.4z M648.7,228.9h-1v-6h1V228.9z M149.3,221.4h-1v-6h1V221.4z
	 M648.7,218.9h-1v-6h1V218.9z M149.3,211.4h-1v-6h1V211.4z M648.7,208.9h-1v-6h1V208.9z M149.3,201.4h-1v-6h1V201.4z M648.7,198.9
	h-1v-6h1V198.9z M149.3,191.4h-1v-6h1V191.4z M648.7,188.9h-1v-6h1V188.9z M149.3,181.4h-1v-6h1V181.4z M648.7,178.9h-1v-6h1V178.9z
	 M149.3,171.4h-1v-6h1V171.4z M648.7,168.9h-1v-6h1V168.9z M149.3,161.4h-1v-6h1V161.4z M648.7,158.9h-1v-6h1V158.9z M149.3,151.4
	h-1v-6h1V151.4z M648.7,148.9h-1v-6h1V148.9z M149.3,141.4h-1v-6h1V141.4z M648.7,138.9h-1v-6h1V138.9z M149.3,131.4h-1v-6h1V131.4z
	 M648.7,128.9h-1v-6h1V128.9z M149.3,121.4h-1v-6h1V121.4z M648.7,118.9h-1v-6h1V118.9z M149.3,111.4h-1v-6h1V111.4z M648.7,108.9
	h-1v-6h1V108.9z M149.3,101.4h-1v-6h1V101.4z M648.7,98.9h-1v-6h1V98.9z M149.3,91.4h-1v-6h1V91.4z M648.7,88.9h-1v-6h1V88.9z
	 M149.3,81.4h-1v-6h1V81.4z M648.7,78.9h-1v-6h1V78.9z M149.3,71.4h-1v-6h1V71.4z M648.7,68.9h-1v-6h1V68.9z M149.3,61.4h-1v-6h1
	V61.4z M648.7,58.9h-1v-6h1V58.9z M149.3,51.4h-1v-6h1V51.4z M648.7,48.9h-1v-6h1V48.9z M149.3,41.4h-1v-6h1V41.4z M648.7,38.9h-1
	v-6h1V38.9z M149.3,31.4h-1v-6h1V31.4z M648.7,28.9h-1v-6h1V28.9z M149.3,21.4h-1v-6h1V21.4z M648.7,18.9h-1v-6h1V18.9z M644.8,12.9
	h-6v-1h6V12.9z M634.8,12.9h-6v-1h6V12.9z M624.8,12.9h-6v-1h6V12.9z M614.8,12.9h-6v-1h6V12.9z M604.8,12.9h-6v-1h6V12.9z
	 M594.8,12.9h-6v-1h6V12.9z M584.8,12.9h-6v-1h6V12.9z M574.8,12.9h-6v-1h6V12.9z M564.8,12.9h-6v-1h6V12.9z M554.8,12.9h-6v-1h6
	V12.9z M544.8,12.9h-6v-1h6V12.9z M534.8,12.9h-6v-1h6V12.9z M524.8,12.9h-6v-1h6V12.9z M514.8,12.9h-6v-1h6V12.9z M504.8,12.9h-6
	v-1h6V12.9z M494.8,12.9h-6v-1h6V12.9z M484.8,12.9h-6v-1h6V12.9z M474.8,12.9h-6v-1h6V12.9z M464.8,12.9h-6v-1h6V12.9z M454.8,12.9
	h-6v-1h6V12.9z M444.8,12.9h-6v-1h6V12.9z M434.8,12.9h-6v-1h6V12.9z M424.8,12.9h-6v-1h6V12.9z M414.8,12.9h-6v-1h6V12.9z
	 M404.8,12.9h-6v-1h6V12.9z M394.8,12.9h-6v-1h6V12.9z M384.8,12.9h-6v-1h6V12.9z M374.8,12.9h-6v-1h6V12.9z M364.8,12.9h-6v-1h6
	V12.9z M354.8,12.9h-6v-1h6V12.9z M344.8,12.9h-6v-1h6V12.9z M334.8,12.9h-6v-1h6V12.9z M324.8,12.9h-6v-1h6V12.9z M314.8,12.9h-6
	v-1h6V12.9z M304.8,12.9h-6v-1h6V12.9z M294.8,12.9h-6v-1h6V12.9z M284.8,12.9h-6v-1h6V12.9z M274.8,12.9h-6v-1h6V12.9z M264.8,12.9
	h-6v-1h6V12.9z M254.8,12.9h-6v-1h6V12.9z M244.8,12.9h-6v-1h6V12.9z M234.8,12.9h-6v-1h6V12.9z M224.8,12.9h-6v-1h6V12.9z
	 M214.8,12.9h-6v-1h6V12.9z M204.8,12.9h-6v-1h6V12.9z M194.8,12.9h-6v-1h6V12.9z M184.8,12.9h-6v-1h6V12.9z M174.8,12.9h-6v-1h6
	V12.9z M164.8,12.9h-6v-1h6V12.9z M154.8,12.9h-6v-1h6V12.9z"/>
<path class="st8" d="M647.3,690.4h-6.5v-1h6v0.5h0.5V690.4z M636.8,690.4h-6v-1h6V690.4z M636.8,690.4h-6v-1h6V690.4z M626.8,690.4
	h-6v-1h6V690.4z M616.8,690.4h-6v-1h6V690.4z M606.8,690.4h-6v-1h6V690.4z M596.8,690.4h-6v-1h6V690.4z M586.8,690.4h-6v-1h6V690.4z
	 M576.8,690.4h-6v-1h6V690.4z M566.8,690.4h-6v-1h6V690.4z M556.8,690.4h-6v-1h6V690.4z M546.8,690.4h-6v-1h6V690.4z M536.8,690.4
	h-6v-1h6V690.4z M526.8,690.4h-6v-1h6V690.4z M516.8,690.4h-6v-1h6V690.4z M506.8,690.4h-6v-1h6V690.4z M496.8,690.4h-6v-1h6V690.4z
	 M486.8,690.4h-6v-1h6V690.4z M476.8,690.4h-6v-1h6V690.4z M466.8,690.4h-6v-1h6V690.4z M456.8,690.4h-6v-1h6V690.4z M446.8,690.4
	h-6v-1h6V690.4z M436.8,690.4h-6v-1h6V690.4z M426.8,690.4h-6v-1h6V690.4z M416.8,690.4h-6v-1h6V690.4z M406.8,690.4h-6v-1h6V690.4z
	 M396.8,690.4h-6v-1h6V690.4z M386.8,690.4h-6v-1h6V690.4z M376.8,690.4h-6v-1h6V690.4z M366.8,690.4h-6v-1h6V690.4z M356.8,690.4
	h-6v-1h6V690.4z M346.8,690.4h-6v-1h6V690.4z M336.8,690.4h-6v-1h6V690.4z M326.8,690.4h-6v-1h6V690.4z M316.8,690.4h-6v-1h6V690.4z
	 M306.8,690.4h-6v-1h6V690.4z M296.8,690.4h-6v-1h6V690.4z M286.8,690.4h-6v-1h6V690.4z M276.8,690.4h-6v-1h6V690.4z M266.8,690.4
	h-6v-1h6V690.4z M256.8,690.4h-6v-1h6V690.4z M246.8,690.4h-6v-1h6V690.4z M236.8,690.4h-6v-1h6V690.4z M226.8,690.4h-6v-1h6V690.4z
	 M216.8,690.4h-6v-1h6V690.4z M206.8,690.4h-6v-1h6V690.4z M196.8,690.4h-6v-1h6V690.4z M186.8,690.4h-6v-1h6V690.4z M176.8,690.4
	h-6v-1h6V690.4z M166.8,690.4h-6v-1h6V690.4z M156.8,690.4h-6v-1h6V690.4z M149.3,687.9h-1v-6h1V687.9z M647.3,685.9h-1v-6h1V685.9z
	 M149.3,677.9h-1v-6h1V677.9z M647.3,675.9h-1v-6h1V675.9z M149.3,667.9h-1v-6h1V667.9z M647.3,665.9h-1v-6h1V665.9z M149.3,657.9
	h-1v-6h1V657.9z M647.3,655.9h-1v-6h1V655.9z M149.3,647.9h-1v-6h1V647.9z M647.3,645.9h-1v-6h1V645.9z M149.3,637.9h-1v-6h1V637.9z
	 M647.3,635.9h-1v-6h1V635.9z M149.3,627.9h-1v-6h1V627.9z M647.3,625.9h-1v-6h1V625.9z M149.3,617.9h-1v-6h1V617.9z M647.3,615.9
	h-1v-6h1V615.9z M149.3,607.9h-1v-6h1V607.9z M647.3,605.9h-1v-6h1V605.9z M149.3,597.9h-1v-6h1V597.9z M647.3,595.9h-1v-6h1V595.9z
	 M149.3,587.9h-1v-6h1V587.9z M647.3,585.9h-1v-6h1V585.9z M149.3,577.9h-1v-6h1V577.9z M647.3,575.9h-1v-6h1V575.9z M149.3,567.9
	h-1v-6h1V567.9z M647.3,565.9h-1v-6h1V565.9z M149.3,557.9h-1v-6h1V557.9z M647.3,555.9h-1v-6h1V555.9z M149.3,547.9h-1v-6h1V547.9z
	 M647.3,545.9h-1v-6h1V545.9z M149.3,537.9h-1v-6h1V537.9z M647.3,535.9h-1v-6h1V535.9z M644.8,528.4h-6v-1h6V528.4z M634.8,528.4
	h-6v-1h6V528.4z M634.8,528.4h-6v-1h6V528.4z M624.8,528.4h-6v-1h6V528.4z M614.8,528.4h-6v-1h6V528.4z M604.8,528.4h-6v-1h6V528.4z
	 M594.8,528.4h-6v-1h6V528.4z M584.8,528.4h-6v-1h6V528.4z M574.8,528.4h-6v-1h6V528.4z M564.8,528.4h-6v-1h6V528.4z M554.8,528.4
	h-6v-1h6V528.4z M544.8,528.4h-6v-1h6V528.4z M534.8,528.4h-6v-1h6V528.4z M524.8,528.4h-6v-1h6V528.4z M514.8,528.4h-6v-1h6V528.4z
	 M504.8,528.4h-6v-1h6V528.4z M494.8,528.4h-6v-1h6V528.4z M484.8,528.4h-6v-1h6V528.4z M474.8,528.4h-6v-1h6V528.4z M464.8,528.4
	h-6v-1h6V528.4z M454.8,528.4h-6v-1h6V528.4z M444.8,528.4h-6v-1h6V528.4z M434.8,528.4h-6v-1h6V528.4z M424.8,528.4h-6v-1h6V528.4z
	 M414.8,528.4h-6v-1h6V528.4z M404.8,528.4h-6v-1h6V528.4z M394.8,528.4h-6v-1h6V528.4z M384.8,528.4h-6v-1h6V528.4z M374.8,528.4
	h-6v-1h6V528.4z M364.8,528.4h-6v-1h6V528.4z M354.8,528.4h-6v-1h6V528.4z M344.8,528.4h-6v-1h6V528.4z M334.8,528.4h-6v-1h6V528.4z
	 M324.8,528.4h-6v-1h6V528.4z M314.8,528.4h-6v-1h6V528.4z M304.8,528.4h-6v-1h6V528.4z M294.8,528.4h-6v-1h6V528.4z M284.8,528.4
	h-6v-1h6V528.4z M274.8,528.4h-6v-1h6V528.4z M264.8,528.4h-6v-1h6V528.4z M254.8,528.4h-6v-1h6V528.4z M244.8,528.4h-6v-1h6V528.4z
	 M234.8,528.4h-6v-1h6V528.4z M224.8,528.4h-6v-1h6V528.4z M214.8,528.4h-6v-1h6V528.4z M204.8,528.4h-6v-1h6V528.4z M194.8,528.4
	h-6v-1h6V528.4z M184.8,528.4h-6v-1h6V528.4z M174.8,528.4h-6v-1h6V528.4z M164.8,528.4h-6v-1h6V528.4z M154.8,528.4h-6v-0.5h-0.5
	v-0.6h6.5V528.4z"/>
<g>
	<path class="st6" d="M37.7,35.7l-0.2-1c0.4,0,0.7,0.1,1.1,0.1c0.3,0,0.5-0.1,0.6-0.4v-0.1v-3.4c-0.6,0.2-1.1,0.4-1.7,0.6l-0.2-1
		c0.7-0.2,1.3-0.4,2-0.6v-3.1h-1.8v-1h1.7v-2.6h1v2.6h1.2v1h-1.1v2.6l1.2-0.6v1c-0.4,0.2-0.8,0.4-1.2,0.6v4c0.1,0.6-0.3,1.1-0.9,1.2
		c-0.1,0-0.2,0-0.3,0L37.7,35.7z M45.6,28.9c-0.1,0.4-0.3,0.7-0.5,1.1h4.8v1h-1.5c-0.2,1-0.6,1.9-1.3,2.6c1,0.5,1.9,0.9,2.8,1.4
		l-0.5,0.8c-0.9-0.6-1.9-1.1-2.9-1.6c-1.3,0.8-2.8,1.4-4.4,1.6l-0.4-0.9c1.3-0.2,2.6-0.6,3.8-1.2c-0.8-0.4-1.8-0.8-2.8-1.2
		c0.4-0.6,0.7-1.1,1-1.6h-1.9v-1h2.4c0.2-0.4,0.4-0.8,0.5-1.2L45.6,28.9z M45,27.4h1.4c0.4-0.7,0.7-1.5,1-2.2l1,0.3
		c-0.3,0.7-0.6,1.3-0.9,1.9h2.3v1h-7.9v-1H44c-0.3-0.6-0.5-1.1-0.8-1.7l0.8-0.4C44.4,26,44.8,26.7,45,27.4z M46.4,24.2h3.1v0.9h-7.2
		v-0.9h3.1c-0.2-0.4-0.3-0.8-0.5-1.2l1-0.2C46.1,23.3,46.2,23.7,46.4,24.2L46.4,24.2z M44.7,30.9c-0.2,0.4-0.5,0.9-0.8,1.2
		c0.8,0.3,1.6,0.6,2.3,1c0.6-0.6,1.1-1.4,1.3-2.2H44.7z"/>
</g>
<g>
	<path class="st6" d="M54.7,23.5l0.8-0.5c1.5,1.2,2.6,2.9,3.2,4.7c1.3,3.4,3.1,5.7,5.3,7.1l-0.6,0.8c-2.3-1.4-4.1-3.9-5.6-7.6
		c-0.1-0.2-0.2-0.4-0.2-0.6c-0.8,3.4-2.9,6.3-5.8,8.2l-0.6-0.9c3-2,5.1-5,5.8-8.5C56.5,25.1,55.7,24.2,54.7,23.5z"/>
</g>
<g>
	<path class="st6" d="M77.4,23.5v1H67.3v9.8h10.5v1H66.3V23.5H77.4z M72.9,28.7c0.8-1.1,1.5-2.3,2.1-3.5l0.9,0.5
		c-0.6,1.3-1.3,2.6-2.2,3.7c1.1,1,2.1,2,3,3l-0.9,0.8c-0.9-1.1-1.9-2.1-2.9-3c-1.2,1.3-2.6,2.3-4.3,3L68,32.3
		c1.5-0.6,2.9-1.6,4.1-2.8c-1.1-1-2.3-2-3.7-3l0.7-0.7C70.5,26.8,71.7,27.8,72.9,28.7z"/>
</g>
<g>
	<path class="st6" d="M80,24.4l3.1,8.8l0,0l3.2-8.8h1.3l-3.8,10h-1.4l-3.7-10H80z"/>
</g>
<g>
	<path class="st6" d="M92.7,24.4c2.3,0,3.4,1,3.4,2.9c0,2-1.2,3-3.5,3h-2.9v4.1h-1.1v-10H92.7z M89.7,29.3h2.9
		c0.6,0,1.3-0.1,1.8-0.5c0.4-0.4,0.6-0.9,0.6-1.5c0.1-0.6-0.2-1.1-0.6-1.5c-0.5-0.4-1.1-0.5-1.8-0.5h-2.9V29.3z"/>
</g>
<g>
	<path class="st6" d="M104.7,25.1c0.7,0.6,1.2,1.4,1.3,2.4h-1.1c-0.1-0.7-0.5-1.3-1.1-1.7c-0.6-0.4-1.3-0.6-2-0.6
		c-1-0.1-2,0.4-2.7,1.2c-0.6,0.9-0.9,1.9-0.9,3c-0.1,1.1,0.2,2.1,0.9,3c0.7,0.8,1.7,1.2,2.7,1.2c1.6,0.1,3-1,3.2-2.6h1.1
		c-0.5,2.5-2.9,4.1-5.4,3.5c-1-0.2-1.8-0.7-2.5-1.4c-0.8-1-1.2-2.3-1.1-3.6c-0.1-1.3,0.3-2.6,1.2-3.7s2.2-1.6,3.6-1.5
		C102.9,24.2,103.9,24.5,104.7,25.1z"/>
</g>
<rect x="663.2" y="332.4" class="st3" width="141" height="50"/>
<path class="st4" d="M804.7,382.9h-142v-51h142V382.9z M663.7,381.9h140v-49h-140V381.9z"/>
<g>
	<path class="st6" d="M723.6,355.8l-0.7-0.7c0.5-1.6,0.7-3.2,0.7-4.8v-6.8h3.6v11.1c0.1,0.5-0.3,1-0.9,1.1c-0.1,0-0.2,0-0.3,0h-1
		l-0.2-0.9c0.3,0,0.6,0,0.9,0s0.5-0.2,0.5-0.6V351h-1.7C724.5,352.7,724.2,354.3,723.6,355.8z M726.2,344.4h-1.7v2.4h1.7V344.4z
		 M724.5,350.1h1.7v-2.3h-1.7V350.1z M729.1,344.9c-0.2-0.5-0.4-0.9-0.7-1.3l0.9-0.3c0.3,0.5,0.6,1.1,0.7,1.6h0.7
		c0.2-0.7,0.3-1.3,0.4-2l1,0.1c-0.1,0.6-0.2,1.3-0.4,1.9h1.1c0.3-0.5,0.6-1.1,0.8-1.7l0.9,0.3c-0.2,0.5-0.5,0.9-0.8,1.4h1.2v0.8
		h-3.5c-0.1,0.4-0.3,0.8-0.5,1.1h4.4v0.9h-2.2c0.7,0.8,1.5,1.4,2.5,1.7l-0.4,0.9c-0.6-0.3-1.1-0.6-1.6-0.9v0.1
		c-0.1,0.8-0.2,1.5-0.3,2h1.5c0,2.3-0.2,3.6-0.5,3.9c-0.5,0.3-1.1,0.5-1.7,0.4H732l-0.2-0.9h0.9c0.3,0,0.7,0,1-0.2
		c0.3-0.8,0.4-1.6,0.3-2.4h-5.3c0.2-0.7,0.4-1.4,0.6-2.1l0.9,0.1c-0.1,0.4-0.2,0.8-0.3,1.2h2.6c0.2-0.5,0.3-1.1,0.3-1.6h-3.7v-0.5
		c-0.4,0.4-0.9,0.7-1.4,1l-0.5-0.8c0.8-0.5,1.6-1.1,2.2-1.9h-1.7v-0.9h2.3c0.2-0.4,0.4-0.7,0.5-1.1h-2.4v-0.8H729.1z M732.8,353.2
		v0.9h-5v-0.9H732.8z M733.3,349c-0.4-0.4-0.8-0.8-1.1-1.3h-1.8c-0.3,0.5-0.7,0.9-1.1,1.3H733.3z"/>
</g>
<g>
	<path class="st6" d="M739.7,347.2v6.2c0.5-0.4,0.9-0.8,1.4-1.4l0.3,1.1c-0.8,0.8-1.7,1.5-2.6,2.2l-0.4-0.9c0.2-0.2,0.3-0.4,0.3-0.6
		v-5.5h-1.9v-1L739.7,347.2z M740.7,345.2l-0.7,0.7c-0.7-0.8-1.5-1.5-2.3-2.2l0.7-0.7C739.2,343.7,740,344.4,740.7,345.2
		L740.7,345.2z M743,348.4v-3.8h-1.8v-1h6.4v4.3c-0.1,2,0.1,4,0.6,5.9c0.2,0.5,0.3,0.7,0.5,0.7s0.1-0.2,0.2-0.5
		c0.1-0.3,0.1-1,0.1-1.7l0.8,0.4c0,0.9-0.1,1.7-0.3,2.6c-0.1,0.3-0.3,0.4-0.5,0.4c-0.6-0.1-1.1-0.4-1.4-1c-0.7-1.2-1-3.4-1-6.7v-3.3
		H744v3.9h1.9v1H744v6.4h-1v-6.6h-2.1v-1C740.9,348.4,743,348.4,743,348.4z"/>
</g>
<g>
	<path class="st6" d="M766,344.4c0.8,0,1.6,0.2,2.2,0.7c0.5,0.5,0.8,1.1,0.8,1.9c0,0.5-0.1,1-0.5,1.5c-0.3,0.4-0.7,0.7-1.2,0.8
		c0.6,0.1,1.1,0.4,1.5,0.8c0.4,0.5,0.6,1,0.6,1.6c0.1,0.9-0.3,1.7-1,2.2c-0.7,0.4-1.6,0.6-2.4,0.6h-4.4v-10L766,344.4L766,344.4
		L766,344.4z M762.7,348.8h3c0.6,0,1.1-0.1,1.6-0.4c0.4-0.3,0.6-0.8,0.6-1.3s-0.2-1-0.5-1.3c-0.5-0.3-1.1-0.4-1.6-0.4h-3
		L762.7,348.8L762.7,348.8z M762.7,353.4h3.2c0.6,0,1.2-0.1,1.7-0.4c0.5-0.3,0.8-0.9,0.7-1.4c0-0.6-0.2-1.1-0.6-1.4
		c-0.5-0.3-1.1-0.5-1.8-0.5h-3.2L762.7,353.4L762.7,353.4z"/>
</g>
<g>
	<path class="st6" d="M776.3,347.8c0.5,0.6,0.7,1.3,0.6,2v4.6h-1v-1.2c-0.3,0.4-0.7,0.8-1.1,1c-0.6,0.3-1.2,0.5-1.8,0.5
		s-1.2-0.2-1.7-0.5c-0.4-0.4-0.7-0.9-0.7-1.5c0-0.8,0.3-1.5,1-1.9c0.8-0.4,1.6-0.7,2.5-0.6h1.7v-0.4c0-1.2-0.6-1.8-1.9-1.8
		c-0.5,0-0.9,0.1-1.3,0.3s-0.6,0.6-0.7,1l-1.1-0.1c0.1-0.7,0.5-1.3,1.1-1.7c0.6-0.4,1.4-0.5,2.1-0.5
		C774.9,346.9,775.7,347.2,776.3,347.8z M774.2,350.9c-1.6,0-2.4,0.6-2.4,1.6c0,0.3,0.1,0.6,0.4,0.8s0.7,0.3,1.1,0.3
		c0.7,0,1.3-0.2,1.8-0.7c0.5-0.4,0.8-0.9,0.8-1.5v-0.6L774.2,350.9z"/>
</g>
<g>
	<path class="st6" d="M784.2,347.8c0.5,0.6,0.7,1.3,0.6,2v4.6h-1.1v-1.2c-0.3,0.4-0.7,0.8-1.1,1c-0.6,0.3-1.2,0.5-1.8,0.5
		s-1.2-0.2-1.7-0.5c-0.4-0.4-0.7-0.9-0.7-1.5c0-0.8,0.3-1.5,1-1.9c0.8-0.4,1.6-0.7,2.5-0.6h1.7v-0.4c0-1.2-0.6-1.8-1.9-1.8
		c-0.5,0-0.9,0.1-1.3,0.3s-0.6,0.6-0.7,1l-1.1-0.1c0.1-0.7,0.5-1.3,1.1-1.7c0.6-0.4,1.4-0.5,2.1-0.5
		C782.7,346.9,783.5,347.2,784.2,347.8z M782,350.9c-1.6,0-2.4,0.6-2.4,1.6c0,0.3,0.1,0.6,0.4,0.8s0.7,0.3,1.1,0.3
		c0.7,0,1.3-0.2,1.8-0.7c0.5-0.4,0.8-0.9,0.8-1.5v-0.6L782,350.9z"/>
</g>
<g>
	<path class="st6" d="M792.7,345c0.7,0.6,1.1,1.5,1.2,2.4h-1.2c-0.1-0.6-0.4-1.2-0.8-1.6c-0.5-0.4-1.2-0.6-1.9-0.5
		c-0.6,0-1.2,0.1-1.7,0.4c-0.7,0.4-0.9,1.2-0.5,1.9c0.2,0.3,0.4,0.5,0.7,0.6c0.6,0.3,1.2,0.5,1.8,0.6c0.9,0.2,1.8,0.6,2.6,1
		c0.8,0.4,1.3,1.2,1.2,2.1c0,0.8-0.4,1.6-1,2.1c-0.8,0.5-1.8,0.8-2.8,0.7c-1,0.1-2-0.2-2.8-0.8c-0.8-0.7-1.3-1.7-1.3-2.8h1.1
		c0,0.7,0.4,1.4,0.9,1.9c0.6,0.4,1.3,0.6,2,0.6s1.4-0.1,2-0.5c0.5-0.2,0.8-0.7,0.8-1.3s-0.4-1.2-1-1.5c-0.7-0.3-1.4-0.6-2.1-0.7
		c-0.8-0.2-1.6-0.5-2.3-0.8c-0.7-0.4-1.2-1.1-1.2-1.9s0.4-1.6,1.1-2c0.8-0.5,1.7-0.7,2.5-0.7C791,344.2,791.9,344.4,792.7,345z"/>
</g>
<g>
	<path class="st6" d="M725.4,365.1c0,2.6-0.6,5.2-1.9,7.5l-0.7-0.8c1.1-2.1,1.7-4.4,1.7-6.7v-4.2c3.3,0,6.5-0.4,9.7-1l0.5,0.9
		c-3,0.6-6.1,0.9-9.2,1v2h10.1v1h-10.1L725.4,365.1L725.4,365.1z M734.4,372.6h-1v-0.7h-5.7v0.7h-1v-5.9h7.7V372.6z M733.4,371v-3.3
		h-5.7v3.3H733.4z"/>
</g>
<g>
	<path class="st6" d="M737.3,364.4c1.2-0.4,2.8-2,4.6-4.6l1,0.4c-1.1,1.6-2.3,3-3.8,4.3c2.7-0.1,5.2-0.3,7.7-0.5
		c-0.5-0.7-1.1-1.4-1.6-2.1l0.9-0.4c1.2,1.5,2.4,3,3.4,4.6l-1,0.5c-0.3-0.6-0.7-1.1-1-1.7c-3,0.3-6.2,0.5-9.9,0.6L737.3,364.4z
		 M747.9,372.6h-1v-0.7h-7.3v0.7h-1v-5.8h9.4L747.9,372.6z M746.9,371v-3.2h-7.3v3.2H746.9z"/>
</g>
<g>
	<path class="st6" d="M762,371.2h1.5v0.9h-12.7v-0.9h1.6v-3.9h9.6V371.2L762,371.2z M752.8,360.4v5.7h-1v-5.7
		C751.8,360.4,752.8,360.4,752.8,360.4z M755.2,371.2v-3h-1.9v3H755.2z M755.7,359.7v6.9h-1v-6.9H755.7z M758.2,371.2v-3h-2v3H758.2
		z M757,365.2l-0.6-0.8c1.1-1.4,1.8-3.1,2-4.8l1,0.2c-0.1,0.6-0.2,1.1-0.4,1.6h4.2v1h-4.5C758.3,363.5,757.7,364.4,757,365.2
		L757,365.2z M761.1,371.2v-3h-1.9v3H761.1z M761.9,365.8l-0.8,0.6c-0.5-0.9-1.1-1.8-1.7-2.6l0.8-0.5
		C760.8,364.1,761.3,365,761.9,365.8L761.9,365.8z"/>
</g>
<g>
	<path class="st6" d="M765.2,372.5l-0.2-1c0.4,0,0.7,0.1,1.1,0.1c0.3,0,0.5-0.1,0.5-0.4c0-0.1,0-0.1,0-0.2v-3.5
		c-0.6,0.2-1.1,0.4-1.7,0.6l-0.2-1c0.7-0.2,1.3-0.4,1.9-0.6v-3.1h-1.7v-1h1.7v-2.7h1v2.7h1.2v1h-1.1v2.7c0.4-0.2,0.8-0.4,1.2-0.6v1
		l-1.2,0.6v4.1c0.1,0.6-0.3,1.1-0.9,1.2c-0.1,0-0.2,0-0.3,0L765.2,372.5z M769.6,368.1v-0.9h7.5v0.9h-3.2v3.1h3.7v1H769v-1h3.8v-3.1
		H769.6z M773.9,361.3h3.3v2.6h-0.9v-1.7h-5.9v1.7h-1v-2.6h3.5c-0.2-0.5-0.4-1-0.7-1.5l1-0.2C773.5,360.2,773.7,360.7,773.9,361.3
		L773.9,361.3z M772.8,363.4c-0.5,1.3-1.4,2.4-2.5,3.2l-0.7-0.6c1-0.7,1.9-1.7,2.4-2.9L772.8,363.4z M777,366l-0.9,0.5
		c-0.6-1.1-1.4-2.1-2.3-3.1l0.8-0.4C775.5,363.9,776.3,365,777,366L777,366z"/>
</g>
<rect x="170.4" y="432.7" class="st3" width="145" height="50"/>
<path class="st4" d="M315.9,483.2h-146v-51h146V483.2L315.9,483.2z M170.9,482.2h144v-49h-144V482.2z"/>
<g>
	<path class="st6" d="M218.8,457.9l-0.9-0.2c0.5-1.5,0.8-3.1,0.9-4.7l0.9,0.1c0,0.6-0.1,1.2-0.2,1.8h1V452h1v2.9h1.2v1h-1.2v3.4
		c0.4-0.2,0.8-0.4,1.1-0.6v1c-0.4,0.2-0.7,0.4-1.1,0.6v4.6h-1v-4.2c-0.7,0.3-1.4,0.5-2.2,0.8l-0.2-1c0.8-0.2,1.6-0.4,2.4-0.8v-3.8
		h-1.1C219.2,456.6,219,457.3,218.8,457.9z M225.4,452.2c-0.1,0.7-0.3,1.4-0.5,2h5.4c0,4.7-0.1,7.6-0.2,8.7c-0.1,1.1-1,1.9-2.1,1.9
		h-0.1h-1.1l-0.2-0.9c0.4,0,0.8,0.1,1.1,0.1c0.7,0.1,1.4-0.5,1.5-1.2v-0.1c0.1-0.8,0.1-3.2,0.2-7.3h-1c-0.2,1.9-0.6,3.8-1.3,5.5
		c-0.7,1.5-1.6,2.8-2.9,3.9l-0.6-0.8c1.1-1,2-2.2,2.6-3.5c0.6-1.7,1-3.4,1.2-5.1h-1.1c-0.6,3.1-1.6,5.3-3.2,6.6l-0.7-0.8
		c1.6-1.6,2.7-3.7,3-5.9h-1c-0.3,0.8-0.8,1.5-1.3,2.2l-0.7-0.6c1-1.4,1.7-3.1,1.9-4.8L225.4,452.2z"/>
</g>
<g>
	<path class="st6" d="M233.8,457.2v-3.3h-1.7v-1h4.5v1h-1.7v3.3h1.5v1h-1.5v3.2c0.5-0.2,1-0.4,1.5-0.6v1c-1.4,0.6-2.7,1-4.2,1.3
		l-0.2-1c0.6-0.1,1.2-0.2,1.8-0.4v-3.5h-1.5v-1H233.8z M244.1,452.5v6.5h-2.9v1.6h3.1v1h-3.1v1.8h3.7v1h-8.4v-1h3.8v-1.8h-3.2v-1
		h3.2V459h-2.9v-6.5C237.4,452.5,244.1,452.5,244.1,452.5z M240.2,455.3v-1.9h-2v1.9H240.2z M240.2,456.2h-2v1.9h2V456.2z
		 M241.2,455.3h2v-1.9h-2V455.3z M243.1,456.2h-2v1.9h2V456.2z"/>
</g>
<g>
	<path class="st6" d="M248.3,454.7V452h1v2.7h1.7v1h-1.7v0.7c0.6,0.7,1.3,1.4,2,2.2l-0.6,0.9c-0.5-0.9-1-1.6-1.4-2.1v7.4h-1v-7.1
		c-0.5,1.3-1.1,2.6-1.9,3.8l-0.4-1.1c1.1-1.4,1.9-3,2.3-4.7h-2v-1L248.3,454.7L248.3,454.7z M251.7,461.3c0.2-1.1,0.3-2.3,0.3-3.5
		v-5.3h4.5v10.6c0,0.2,0.1,0.4,0.3,0.4h0.5c0.1,0,0.3,0,0.4-0.1c0.1-0.1,0.2-0.2,0.2-0.4c0.1-0.8,0.1-1.6,0.1-2.4l0.9,0.3
		c0,0.8,0,1.5-0.1,2.3c0,0.4-0.2,0.7-0.4,1c-0.3,0.2-0.7,0.3-1,0.2h-0.6c-0.9,0-1.3-0.4-1.3-1.2v-9.7h-2.6v4.4
		c0,1.3-0.1,2.6-0.4,3.9c-0.2,1.1-0.7,2.2-1.3,3.1l-0.8-0.7C251,463.3,251.4,462.3,251.7,461.3z"/>
</g>
<g>
	<path class="st6" d="M265.9,451.9l-5,12.9h-1l5-12.9H265.9z"/>
</g>
<g>
	<path class="st6" d="M279.7,456.7v1H273c-0.9,2-2,3.8-3.4,5.5c2.5-0.1,5-0.4,7.5-0.7c-0.5-0.9-1.1-1.8-1.7-2.8l0.8-0.5
		c1.1,1.6,2.1,3.3,3,5.1l-0.9,0.6c-0.2-0.5-0.5-1-0.7-1.5c-2.8,0.4-5.9,0.6-9.3,0.9l-0.3-1c0.1,0,0.2-0.1,0.2-0.1
		c0.9-0.7,2.1-2.5,3.6-5.5h-4.7v-1H279.7z M278.5,452.8v1h-10v-1H278.5z"/>
</g>
<g>
	<path class="st6" d="M281.7,455.3v-1h5.3c-0.2-0.7-0.5-1.4-0.9-2.1l1-0.3c0.3,0.7,0.6,1.4,0.8,2.2l-0.5,0.2h5.8v1h-5.3v3.3h4.5v0.9
		h-4.5v3.8h5.7v1h-12.4v-1h5.7v-3.8h-4.5v-0.9h4.5v-3.3H281.7L281.7,455.3z"/>
</g>
<g>
	<path class="st6" d="M297.3,454.7V452h1v2.7h1.7v1h-1.7v0.7c0.6,0.7,1.3,1.4,2,2.2l-0.6,0.9c-0.5-0.9-1-1.6-1.4-2.1v7.4h-1v-7.1
		c-0.5,1.3-1.1,2.6-1.9,3.8l-0.4-1.1c1.1-1.4,1.9-3,2.3-4.7h-2v-1L297.3,454.7L297.3,454.7z M300.7,461.3c0.2-1.1,0.3-2.3,0.3-3.5
		v-5.3h4.5v10.6c0,0.2,0.1,0.4,0.3,0.4h0.5c0.1,0,0.3,0,0.4-0.1c0.1-0.1,0.2-0.2,0.2-0.4c0.1-0.8,0.1-1.6,0.1-2.4l0.9,0.3
		c0,0.8,0,1.5-0.1,2.3c0,0.4-0.2,0.7-0.4,1c-0.3,0.2-0.7,0.3-1,0.2h-0.6c-0.9,0-1.3-0.4-1.3-1.2v-9.7h-2.6v4.4
		c0,1.3-0.1,2.6-0.4,3.9c-0.2,1.1-0.7,2.2-1.3,3.1l-0.8-0.7C300,463.3,300.4,462.3,300.7,461.3z"/>
</g>
<g>
	<g>
		<path class="st6" d="M261,23.4v1.4h-9.9v9.1h10.3v1.4h-11.7V23.4H261z M256.6,28.4c0.7-1,1.4-2.1,1.8-3.2l1.3,0.7
			c-0.5,1.2-1.2,2.4-2,3.5c1,0.9,1.9,1.8,2.7,2.7l-1.1,1.1c-0.8-1-1.6-1.9-2.5-2.7c-1.1,1.2-2.5,2.1-4,2.8l-1-1.3
			c1.4-0.6,2.7-1.4,3.8-2.5c-1.1-0.9-2.2-1.9-3.5-2.9l1.1-1C254.4,26.6,255.5,27.5,256.6,28.4z"/>
	</g>
	<g>
		<path class="st6" d="M264.3,26.5V23h1.4v3.5h1.5v1.4h-1.5V32c0.6-0.2,1.2-0.5,1.7-0.7v1.5c-1.4,0.6-2.9,1.2-4.4,1.6l-0.4-1.5
			c0.5-0.1,1.1-0.2,1.6-0.4v-4.6h-1.4v-1.4C262.8,26.5,264.3,26.5,264.3,26.5z M267.3,35.9l-0.9-1.2c1.7-0.9,2.9-2.5,3.4-4.4h-2.6
			v-1.4h2.9c0.1-0.6,0.1-1.2,0.1-1.8v-0.9h-2.4v-1.4h2.4v-2h1.4v2h3v4.1h1.1v1.4H272c0.8,1.8,2.1,3.3,3.8,4.4l-1,1.2
			c-1.7-1.2-3-2.8-3.8-4.7C270.4,33.2,269.1,34.9,267.3,35.9L267.3,35.9z M271.6,26.8c0,0.7,0,1.5-0.1,2.2h1.7v-2.7h-1.6L271.6,26.8
			L271.6,26.8z"/>
	</g>
	<g>
		<path class="st6" d="M279.5,23.2c-0.1,0.4-0.2,0.8-0.2,1.1h1.8v1.4h-2.2c-0.2,0.5-0.4,1-0.5,1.5h2.6v1.3h-1v1.3h1.4v1.3H280v2.6
			c0.3-0.2,0.6-0.4,0.9-0.7l0.2,1.3c-0.8,0.5-1.6,0.9-2.4,1.2l-0.5-1.2c0.2-0.1,0.4-0.3,0.4-0.5v-2.7h-1.4v-1.3h1.4v-1.3h-0.5v-0.7
			l-0.2,0.4l-1.1-0.7c0.7-1.4,1.2-3,1.4-4.6L279.5,23.2z M289.9,34.2l-0.4,1.4h-2h-1.3c-0.6,0-1.1-0.1-1.7-0.2
			c-0.5-0.2-0.9-0.4-1.2-0.8c-0.1-0.2-0.3-0.3-0.5-0.3s-0.5,0.5-1.1,1.6l-0.8-1.1c0.4-0.6,0.8-1.2,1.3-1.6v-4.4h-0.9v-1.3h2.3v5.8
			c0.3,0.3,0.6,0.6,1,0.8c0.5,0.2,0.9,0.2,1.4,0.3h1.6C288.4,34.3,289.2,34.3,289.9,34.2L289.9,34.2z M283.7,25.4l-1.1,0.8
			c-0.4-0.8-0.9-1.6-1.4-2.3l1.1-0.7C282.8,23.9,283.3,24.6,283.7,25.4z M286.6,30.6v-1.3h-2.1l-0.3-1.2c0.5-0.8,0.8-1.6,1.1-2.5
			h-1.2v-1.3h1.6c0.1-0.5,0.2-0.9,0.4-1.4l1.3,0.3c-0.1,0.4-0.2,0.8-0.3,1.1h2.5v1.3h-2.8c-0.3,0.8-0.6,1.6-1,2.4h0.9v-1.7h1.3V28
			h1.4v1.3H288v1.3h1.8v1.3H288v2h-1.3v-2h-2.4v-1.3C284.3,30.6,286.6,30.6,286.6,30.6z"/>
	</g>
	<g>
		<path class="st6" d="M297.7,35.6c-0.8,0-1.5-0.1-2.2-0.2c-0.6-0.2-1.1-0.5-1.5-1c-0.2-0.2-0.4-0.4-0.5-0.4s-0.8,0.6-1.5,1.9
			l-1.1-1c0.4-0.8,1.1-1.6,1.8-2.1v-3.9h-1.9v-1.3h3.2v5.3l0.1,0.1c0.3,0.3,0.6,0.6,1,0.8c0.3,0.1,0.5,0.2,0.8,0.3l-0.7-1.2
			c1-0.2,2-0.6,3-1c-0.4-0.4-0.8-0.8-1.3-1.2l0.9-0.9c0.5,0.4,1,0.9,1.5,1.4c0.7-0.5,1.3-1.1,1.8-1.9h-3.5c-0.7,0.6-1.4,1.2-2.2,1.7
			l-0.9-1.1c1.2-0.6,2.3-1.5,3.1-2.6h-2.5v-3.9h7.8v4.1h-4.6l0.8,0.2l-0.4,0.6h3.8v1.1c-0.7,2.3-2.9,3.9-6.6,4.8
			c0.3,0,0.7,0.1,1,0.1c0.8,0,1.8,0,2.8,0h2.1l1.6-0.1l-0.4,1.4h-3.2L297.7,35.6L297.7,35.6z M294.6,25.2l-1,1
			c-0.7-0.8-1.5-1.6-2.3-2.3l1-0.9C293.1,23.7,293.9,24.4,294.6,25.2L294.6,25.2z M297.8,24.6h-1v1.6h1V24.6z M299.8,24.6h-1v1.6h1
			V24.6z M302,24.6h-1v1.6h1V24.6z"/>
	</g>
	<g>
		<path class="st6" d="M308.9,26.8v1.9h1.4V30h-1.4v1.5l1.6-0.3v1.3c-0.5,0.1-1,0.2-1.6,0.4v3h-1.4v-2.7c-0.8,0.1-1.6,0.2-2.4,0.4
			l-0.2-1.4c0.9-0.1,1.8-0.2,2.6-0.4v-1.7h-2.1l-0.3-1.3c0.4-0.9,0.7-1.7,0.9-2.7h-1v-1.4h1.3c0.1-0.6,0.2-1.2,0.4-1.8l1.4,0.2
			c-0.1,0.6-0.2,1.1-0.3,1.6h2.8v1.4h-3.1c-0.2,0.9-0.5,1.8-0.9,2.6h1v-1.9H308.9L308.9,26.8z M310.3,28.4v-1.3h7.4v1.3h-0.9v4.5
			l1.1-0.2v1.2l-1.1,0.2v1.7h-1.4v-1.4c-1.6,0.2-3.3,0.4-5.2,0.6l-0.2-1.3l1.2-0.1v-5.2L310.3,28.4L310.3,28.4z M317,23.3v3.2h-5.8
			v-3.2H317z M315.6,24.5h-3v1h3V24.5z M312.6,28.4v0.8h2.8v-0.8H312.6z M315.4,31.3v-0.9h-2.8v0.9H315.4z M315.4,33.1v-0.7h-2.8v1
			L315.4,33.1z"/>
	</g>
	<g>
		<path class="st6" d="M321.7,28.2c0.1,2.6-0.5,5.3-1.7,7.6l-1.1-1c1-2.1,1.4-4.4,1.3-6.7v-4.8h10.6v3.9h-9.2L321.7,28.2z
			 M321.7,24.7v1.2h7.7v-1.2H321.7z M331.4,30.4v1.3h-5.3c-0.6,0.9-1.2,1.7-1.9,2.5c1.5-0.1,3-0.3,4.5-0.5c-0.3-0.4-0.6-0.7-0.9-1.1
			l1.1-0.7c0.9,1,1.8,2,2.5,3.1l-1.2,0.8c-0.2-0.3-0.4-0.7-0.7-1c-2.2,0.3-4.6,0.5-7.1,0.7l-0.3-1.2c0.1,0,0.2-0.1,0.3-0.1
			c0.9-0.7,1.6-1.5,2.1-2.5h-2.7v-1.3L331.4,30.4L331.4,30.4z M330.5,28.1v1.3h-7.7v-1.3H330.5z"/>
	</g>
	<g>
		<path class="st6" d="M334.2,24.4l2.8,8.1l0,0l2.8-8.1h1.8l-3.6,10h-2l-3.6-10H334.2z"/>
	</g>
	<g>
		<path class="st6" d="M346.7,24.4c2.4,0,3.6,1,3.6,3.1s-1.2,3.1-3.7,3.1h-2.5v3.8h-1.6v-10H346.7L346.7,24.4z M344.1,29.2h2.4
			c0.6,0,1.1-0.1,1.6-0.4c0.4-0.3,0.5-0.8,0.5-1.3s-0.2-1-0.5-1.3c-0.5-0.3-1-0.4-1.6-0.4h-2.4V29.2z"/>
	</g>
	<g>
		<path class="st6" d="M358.9,25.1c0.7,0.6,1.2,1.5,1.3,2.4h-1.6c-0.1-0.6-0.5-1.1-0.9-1.4c-0.5-0.3-1.1-0.5-1.7-0.4
			c-0.9-0.1-1.8,0.3-2.4,1.1c-0.5,0.8-0.8,1.7-0.7,2.7c-0.1,1,0.2,1.9,0.7,2.7c1.1,1.1,2.8,1.3,4.2,0.5c0.5-0.4,0.9-1,1-1.7h1.6
			c-0.2,1.1-0.7,2.1-1.6,2.8c-0.8,0.6-1.8,0.9-2.8,0.9c-1.4,0.1-2.8-0.5-3.7-1.6c-0.8-1.1-1.1-2.3-1-3.6c-0.1-1.3,0.3-2.6,1.1-3.6
			c0.9-1.1,2.3-1.7,3.7-1.6C357.1,24.2,358.1,24.5,358.9,25.1z"/>
	</g>
</g>
<g>
	<rect x="237.3" y="21.4" class="st7" width="1" height="18"/>
</g>
<g>
	<g>
		<g>
			<path class="st9" d="M182.5,28.6c-1.1-1.1-2.6-1.7-4.1-1.7c-1.3,0-2.6,0.5-3.6,1.3c-0.5,0.4-0.9,0.8-1.5,1.4l-9,8.7
				c0.5,0.1,1.1,0.1,1.6,0.1h10.9c0.8,0,1.4,0,2,0c1.4-0.1,2.7-0.6,3.6-1.6C184.7,34.6,184.8,30.9,182.5,28.6
				C182.6,28.6,182.5,28.6,182.5,28.6z M180.9,35.1c-0.7,0.6-1.6,1-2.5,1c-0.6,0-1.3,0-1.6,0h-7l5-4.9c0.2-0.2,0.8-0.7,1.2-1.1
				c0.7-0.7,1.5-1,2.5-1c1.9,0,3.5,1.6,3.5,3.5C181.9,33.6,181.5,34.5,180.9,35.1L180.9,35.1z"/>
		</g>
		<g>
			<path class="st10" d="M168.5,28c-1-0.8-2.2-1.2-3.5-1.2c-3.2,0-5.8,2.6-5.7,5.8c0,1.5,0.6,3,1.7,4.1c0.9,0.9,2,1.4,3.2,1.6
				l2.2-2.2h-1.3c-0.9,0-1.8-0.4-2.5-1c-1.4-1.4-1.4-3.6,0-5c0.7-0.7,1.5-1,2.5-1c0.9,0,1.7,0.4,2.4,1c0.5,0.4,1.5,1.3,1.9,1.7
				l1.6-1.6C170.2,29.5,169.2,28.5,168.5,28z"/>
		</g>
		<g>
			<path class="st11" d="M179,25.5c-1.4-4-5.8-6.1-9.9-4.7c-2.7,0.9-4.6,3.3-5,6.1c0.3-0.1,0.7-0.1,1-0.1c0.4,0,0.9,0,1.3,0.1l0,0
				c0.6-3,3.5-4.9,6.5-4.2c1.7,0.4,3.1,1.5,3.9,3.1 M176.8,25.8c0.7-0.2,1.4-0.3,2.2-0.2c0.1,0.1,0.1,0,0.1-0.1L176.8,25.8z"/>
		</g>
	</g>
	<g>
		<g>
			<path d="M212.6,23.4h-7.3v1.1h2.2v3.9H205v1h2.5v6.5h1.2v-6.5h2.8v6.4h2.2v-1h-1L212.6,23.4z M208.6,28.3v-3.8h2.8v3.9
				L208.6,28.3z"/>
		</g>
		<g>
			<rect x="192.2" y="33" width="5.8" height="1.1"/>
		</g>
		<g>
			<path d="M188.3,31c0,1.6-0.1,3.2-0.5,4.7c0,0.1,0,0.1,0.1,0.1h1.1c0.3-1.4,0.4-2.9,0.4-4.3h1.5v3.3h-1c-0.1,0-0.1,0-0.1,0.1
				l0.3,1h1.9V23.5h-3.6L188.3,31z M189.3,30.5V28h1.5v2.5H189.3z M190.8,24.5V27h-1.5v-2.5H190.8z"/>
		</g>
		<g>
			<path d="M198.4,27.8h1.4v-1h-4.1c0.1-0.3,0.2-0.7,0.3-1h3.6v-1h-1l0.4-1.3c0-0.1,0-0.1-0.1-0.1H198l-0.4,1.4h-1.3
				c0.1-0.6,0.2-1.2,0.3-1.9c0-0.1,0-0.1-0.1-0.1h-1c-0.1,0.7-0.2,1.4-0.4,1.9h-0.6l-0.5-1.4h-0.9c0,0-0.1,0-0.1,0.1l0.4,1.3h-1v1
				h2.3c-0.1,0.3-0.2,0.7-0.4,1h-2.2v1h1.7c-0.4,0.6-1,1.2-1.6,1.6v1c0,0.1,0,0.1,0.2,0c0.3-0.2,0.7-0.4,1-0.6h4v1.4h-3.1v-0.9
				c0,0,0-0.1-0.1-0.1h-1l-0.1,1.8c0,0,0,0.1,0.1,0.1h5.4v2.6h-2.4c-0.1,0-0.1,0-0.1,0.1l0.3,1h3.4v-4.6h-1.4v-1.7
				c0.4,0.4,0.9,0.8,1.4,1.1c0.2,0.1,0.2,0,0.2,0v-1.1C199.4,29,198.8,28.4,198.4,27.8z M197.1,27.8c0.2,0.4,0.5,0.8,0.8,1.1h-3.5
				c0.3-0.3,0.6-0.7,0.8-1.1H197.1z"/>
		</g>
		<g>
			<path d="M206,32.2l-2,1.5v-6.9h-2.7V28h1.6v6.6l-0.6,0.5l0.6,0.9l3.2-2.4L206,32.2C206,32.3,206,32.2,206,32.2z"/>
		</g>
		<g>
			<path d="M203,25.8h1.3c0,0,0.1,0,0.1-0.1l0,0l-1.6-2.5h-1.3h-0.1c0,0,0,0,0,0.1L203,25.8z"/>
		</g>
		<g>
			<rect x="216.1" y="23.7" width="9.2" height="1.2"/>
		</g>
		<g>
			<path d="M219.4,29.3h7.2v-1.2h-11.8v1.2h3.3l-2.4,6.3v0.1l0,0h10.2c0,0,0.1,0,0.1-0.1l0,0l-1.5-4h-1.3c0,0-0.1,0-0.1,0.1l0,0
				l1.1,2.8h-6.8L219.4,29.3z"/>
		</g>
	</g>
</g>
<g>
	<g>
		<path class="st6" d="M250.5,542v-1.1h1.5v1.1h4.6v-1.1h1.5v1.1h2.3v1.4h-2.3v5.9h2.6v1.4H248v-1.4h2.6v-5.9h-2.3V542H250.5
			L250.5,542z M253.2,551.7c-1.3,0.9-2.7,1.6-4.1,2.2l-0.9-1.2c1.4-0.5,2.8-1.1,4-1.9L253.2,551.7z M256.6,544.5v-1.1H252v1.1H256.6
			z M256.6,546.9v-1.1H252v1.1H256.6z M256.6,549.3v-1.2H252v1.2H256.6z M260.5,552.6l-0.8,1.3c-1.3-0.8-2.7-1.4-4.1-1.9l0.7-1.1
			C257.7,551.3,259.1,551.9,260.5,552.6L260.5,552.6z"/>
	</g>
	<g>
		<path class="st6" d="M266,541.4c-0.3,1-0.7,2-1.2,2.9v9.6h-1.4v-7.3c-0.4,0.5-0.8,0.9-1.2,1.4l-0.5-1.5c1.4-1.7,2.4-3.6,3-5.7
			L266,541.4z M268,553.6c-1.2,0-1.8-0.6-1.8-1.8v-5.1l-1.1,0.3v-1.5l1.1-0.3v-3h1.5v2.5l1.6-0.5v-3.3h1.5v2.9l3-1
			c0.1,1.9,0,3.8-0.2,5.7c-0.1,0.7-0.8,1-1.9,1h-0.1l-0.4-1.4h0.9c0.1,0,0.2-0.2,0.3-0.5s0.1-1.2,0.1-2.9l-1.6,0.5v5.5h-1.5v-5.1
			l-1.6,0.5v5.3c0,0.3,0.2,0.6,0.5,0.6h0.1h4.1c0.2,0,0.5-0.1,0.6-0.3c0.2-0.6,0.3-1.3,0.2-2l1.4,0.5c0,0.9-0.2,1.8-0.5,2.7
			c-0.4,0.3-0.9,0.5-1.5,0.5L268,553.6z"/>
	</g>
	<g>
		<path class="st6" d="M277,553.9l-1.1-1c0.6-1.4,0.9-3,0.9-4.6v-6.9h4.5v11c0,1-0.5,1.5-1.3,1.5h-1.2l-0.4-1.3
			c0.4,0,0.7,0.1,1.1,0.1c0.4,0,0.4-0.2,0.4-0.7v-2.7H278C278,550.9,277.6,552.4,277,553.9z M279.9,542.7h-1.8v2h1.8V542.7z
			 M278.1,547.9h1.8V546h-1.8V547.9z M283.4,553.9H282v-12.5h6c0,1.2,0,2.5-0.3,3.7c-0.2,0.6-0.7,0.9-1.6,0.9h-1.2l-0.4-1.2h0.9
			c0.2,0,0.4,0,0.6-0.1c0.2-0.1,0.3-0.2,0.3-0.3c0.1-0.5,0.2-1.1,0.1-1.7h-3.2v3.8h4.7v1.2c-0.2,1.2-0.6,2.4-1.2,3.4
			c0.6,0.5,1.2,1,1.9,1.4l-0.7,1.2c-0.7-0.4-1.4-0.9-2-1.5c-0.6,0.6-1.3,1.1-2,1.5l-0.7-1.1L283.4,553.9z M283.4,552.7
			c0.6-0.4,1.2-0.8,1.7-1.4c-0.8-1-1.3-2.2-1.6-3.5h-0.1L283.4,552.7L283.4,552.7z M286,550.1c0.4-0.7,0.7-1.5,0.9-2.3h-2.1
			C285.1,548.6,285.5,549.4,286,550.1L286,550.1z"/>
	</g>
	<g>
		<path class="st6" d="M295.3,541.1c-0.1,0.3-0.3,0.6-0.4,0.9h6v1.2c-0.9,1-1.9,1.8-3,2.4c1.6,0.5,3.2,0.9,4.9,1l-0.7,1.4
			c-2-0.2-4-0.7-5.9-1.5c-1.9,0.8-3.8,1.3-5.8,1.6l-0.7-1.4c1.7-0.2,3.3-0.6,4.9-1.1c-0.6-0.4-1.2-0.8-1.7-1.2
			c-0.5,0.4-1,0.7-1.5,1.1l-0.9-1.2c1.4-0.7,2.6-1.9,3.3-3.4L295.3,541.1z M296.7,547.2c0,0.5,0,0.9-0.1,1.4h4.8
			c0,2.5-0.2,4-0.6,4.5c-0.5,0.6-1.3,0.8-2.1,0.7c-0.5,0-1.1,0-1.8-0.1l-0.4-1.3l1.8,0.1c0.7,0,1.1-0.2,1.2-0.4
			c0.3-0.7,0.4-1.4,0.3-2.2h-3.7c-0.1,0.3-0.2,0.6-0.4,0.9c-0.7,1.2-2.3,2.3-4.9,3.1l-1-1.2c2.3-0.7,3.8-1.5,4.4-2.4
			c0.1-0.2,0.2-0.3,0.3-0.5h-3.7v-1.3h4.3c0.1-0.4,0.1-0.9,0.1-1.4L296.7,547.2z M298.7,543.3H294l0,0c0.7,0.6,1.5,1.1,2.4,1.5
			C297.1,544.4,298,543.9,298.7,543.3L298.7,543.3z"/>
	</g>
</g>
<g>
	<rect x="236.3" y="539.4" class="st7" width="1" height="18"/>
</g>
<g>
	<g>
		<g>
			<path class="st9" d="M181.5,546.6c-1.1-1.1-2.6-1.7-4.1-1.7c-1.3,0-2.6,0.5-3.6,1.3c-0.5,0.4-0.9,0.8-1.5,1.4l-9,8.7
				c0.5,0.1,1.1,0.1,1.6,0.1h10.9c0.8,0,1.4,0,2,0c1.4-0.1,2.7-0.6,3.6-1.6C183.7,552.6,183.8,548.9,181.5,546.6
				C181.6,546.6,181.5,546.6,181.5,546.6z M179.9,553.1c-0.7,0.6-1.6,1-2.5,1c-0.6,0-1.3,0-1.6,0h-7l5-4.8c0.2-0.2,0.8-0.7,1.2-1.1
				c0.7-0.7,1.5-1,2.5-1c1.9,0,3.5,1.6,3.5,3.5C180.9,551.6,180.5,552.5,179.9,553.1L179.9,553.1z"/>
		</g>
		<g>
			<path class="st10" d="M167.5,546c-1-0.8-2.2-1.2-3.5-1.2c-3.2,0-5.8,2.6-5.7,5.8c0,1.5,0.6,3,1.7,4.1c0.9,0.9,2,1.4,3.2,1.6
				l2.2-2.2h-1.3c-0.9,0-1.8-0.4-2.5-1c-1.4-1.4-1.4-3.6,0-5c0.7-0.7,1.5-1,2.5-1c0.9,0,1.7,0.4,2.4,1c0.5,0.4,1.5,1.3,1.9,1.7
				l1.6-1.6C169.2,547.5,168.2,546.5,167.5,546z"/>
		</g>
		<g>
			<path class="st11" d="M178,543.6c-1.4-4-5.8-6.1-9.9-4.7c-2.7,0.9-4.6,3.3-5,6.1c0.3-0.1,0.7-0.1,1-0.1c0.4,0,0.9,0,1.3,0.2l0,0
				c0.6-3,3.5-4.9,6.5-4.2c1.7,0.4,3.1,1.5,3.9,3.1 M175.8,543.8c0.7-0.2,1.4-0.3,2.2-0.2c0.1,0,0.1,0,0.1-0.1L175.8,543.8z"/>
		</g>
	</g>
	<g>
		<g>
			<path d="M211.6,541.4h-7.3v1.1h2.2v3.9H204v1h2.5v6.5h1.2v-6.5h2.8v6.4h2.2v-1.1h-1L211.6,541.4z M207.6,546.3v-3.8h2.8v3.9
				L207.6,546.3z"/>
		</g>
		<g>
			<rect x="191.2" y="551" width="5.8" height="1.1"/>
		</g>
		<g>
			<path d="M187.3,549c0,1.6-0.1,3.2-0.5,4.7c0,0.1,0,0.2,0.1,0.2h1.1c0.3-1.4,0.4-2.9,0.4-4.3h1.5v3.3h-1c-0.1,0-0.1,0-0.1,0.1
				l0.3,1h1.9v-12.4h-3.6L187.3,549z M188.3,548.5V546h1.5v2.5H188.3z M189.8,542.5v2.5h-1.5v-2.5H189.8L189.8,542.5z"/>
		</g>
		<g>
			<path d="M197.4,545.8h1.4v-1h-4.1c0.1-0.3,0.2-0.7,0.3-1h3.6v-1h-1l0.4-1.3c0-0.1,0-0.1-0.1-0.1H197l-0.4,1.4h-1.3
				c0.1-0.5,0.2-1.2,0.3-1.8c0-0.1,0-0.1-0.1-0.1h-1c-0.1,0.7-0.2,1.4-0.4,2h-0.6l-0.4-1.4h-0.9c0,0-0.1,0-0.1,0.1l0.4,1.3h-1v1h2.3
				c-0.1,0.3-0.2,0.7-0.4,1h-2.2v1h1.7c-0.4,0.6-1,1.2-1.7,1.6v1c0,0.1,0,0.1,0.2,0c0.3-0.2,0.7-0.4,1-0.6h4v1.4h-3.1v-0.9
				c0,0,0-0.1-0.1-0.1h-1l-0.1,1.8c0,0,0,0.1,0.1,0.1h5.4v2.6h-2.4c-0.1,0-0.1,0-0.1,0.1l0.3,1h3.4v-4.6h-1.3v-1.9
				c0.4,0.4,0.9,0.8,1.4,1.1c0.2,0.1,0.2,0,0.2,0v-1C198.4,547,197.8,546.4,197.4,545.8z M196.1,545.8c0.2,0.4,0.5,0.8,0.8,1.1h-3.5
				c0.3-0.3,0.6-0.7,0.8-1.1H196.1z"/>
		</g>
		<g>
			<path d="M205,550.2l-2,1.5v-6.9h-2.7v1.2h1.6v6.6l-0.6,0.5l0.6,0.8l3.2-2.4L205,550.2C205,550.3,205,550.2,205,550.2z"/>
		</g>
		<g>
			<path d="M202,543.8h1.3c0,0,0.1,0,0.1-0.1l0,0l-1.6-2.5h-1.3h-0.1c0,0,0,0,0,0.1L202,543.8z"/>
		</g>
		<g>
			<rect x="215.1" y="541.7" width="9.2" height="1.2"/>
		</g>
		<g>
			<path d="M218.4,547.3h7.2v-1.2h-11.8v1.2h3.3l-2.4,6.3v0.1l0,0h10.2c0,0,0.1,0,0.1-0.1l0,0l-1.5-4h-1.3c0,0-0.1,0-0.1,0.1l0,0
				l1.1,2.8h-6.8L218.4,547.3z"/>
		</g>
	</g>
</g>
<rect x="16.5" y="57.4" class="st3" width="108.8" height="50"/>
<path class="st4" d="M125.8,107.9H16v-51h109.8V107.9z M17,106.9h107.8v-49H17V106.9L17,106.9z"/>
<g>
	<path class="st6" d="M31.7,88.5l-0.8-0.7c0.9-1.4,1.4-3.1,1.4-4.8v-6.6h10.4v10.5c0.1,0.7-0.4,1.4-1.1,1.5c-0.1,0-0.2,0-0.4,0h-1.6
		l-0.3-1c0.6,0,1.1,0.1,1.6,0.1s0.8-0.3,0.8-0.9v-2.4h-3.8v4.1h-1.1v-4.1h-3.6C33.1,85.7,32.6,87.2,31.7,88.5z M33.3,77.4v2.4h3.5
		v-2.4H33.3z M33.3,83.2h3.5v-2.5h-3.5V83.2z M41.7,77.4h-3.8v2.4h3.8V77.4z M41.7,80.7h-3.8v2.4h3.8V80.7z"/>
</g>
<g>
	<path class="st6" d="M45.5,88.7L44.8,88c1.2-1.8,1.8-3.9,1.7-6.1v-4.4h4.6c-0.2-0.6-0.5-1.1-0.8-1.6l1.1-0.2
		c0.3,0.5,0.5,1.1,0.8,1.8h4.4v4.7h-9C47.5,84.6,46.8,86.8,45.5,88.7z M47.5,78.5v2.7h8v-2.7H47.5z"/>
</g>
<g>
	<path class="st6" d="M64.3,76v11.1h2V76h1v11.1h4.2v1H59.1v-1h4.2V76H64.3z M62.3,85l-0.9,0.2c-0.5-2.2-1.1-4.4-1.9-6.5l0.8-0.3
		C61.1,80.6,61.8,82.8,62.3,85L62.3,85z M71.2,78.7c-0.5,2.2-1.2,4.3-2.1,6.4l-0.9-0.3c0.9-2,1.7-4.1,2.1-6.3L71.2,78.7z"/>
</g>
<g>
	<path class="st6" d="M78.1,75.9c-0.2,0.4-0.3,0.7-0.5,1.1h6.1v0.8c-0.9,1.1-2,1.9-3.3,2.6c1.7,0.7,3.5,1.1,5.3,1.3l-0.5,0.9
		c-2.1-0.2-4.1-0.8-5.9-1.7c-1.9,0.8-3.9,1.4-6,1.7l-0.5-1c1.8-0.2,3.6-0.6,5.4-1.3c-0.8-0.5-1.5-1-2.2-1.6
		c-0.5,0.5-1.1,0.9-1.8,1.3l-0.6-0.8c1.5-0.8,2.7-2,3.4-3.5L78.1,75.9z M79.5,82c0,0.5,0,1.1-0.1,1.6h4.9c0,2.4-0.2,3.8-0.6,4.2
		c-0.6,0.5-1.3,0.8-2.1,0.7c-0.4,0-1,0-1.6-0.1l-0.2-0.9l1.7,0.1c0.8,0,1.4-0.2,1.6-0.5c0.3-0.8,0.4-1.7,0.4-2.6h-4.2
		c-0.1,0.4-0.3,0.7-0.4,1.1c-0.7,1.3-2.3,2.3-4.9,3.1l-0.7-0.8c2.3-0.7,3.8-1.5,4.6-2.6c0.2-0.3,0.3-0.5,0.4-0.8h-4.2v-0.9h4.4
		c0.1-0.5,0.2-1.1,0.2-1.6H79.5L79.5,82z M82.3,77.9H77l-0.2,0.2c0.8,0.7,1.7,1.3,2.6,1.8C80.4,79.4,81.4,78.7,82.3,77.9L82.3,77.9z
		"/>
</g>
<g>
	<path class="st6" d="M91.3,85.2c-1,1.2-2.2,2.2-3.5,3l-0.7-0.8c1.3-0.7,2.5-1.7,3.4-2.8L91.3,85.2z M91.2,88.6l-0.2-1
		c0.5,0,1,0.1,1.4,0.1c0.3,0,0.5-0.1,0.5-0.4v-0.1v-3.4c-1.3,0.1-2.8,0.2-4.4,0.2l-0.3-0.9c0.3,0,0.6-0.1,0.9-0.2
		c1.4-0.6,2.7-1.4,3.9-2.3c-1.2,0.1-2.5,0.2-3.9,0.3L88.9,80c0.2,0,0.5-0.1,0.7-0.2c0.9-0.5,1.8-1.2,2.5-2.1
		c-1.2,0.1-2.4,0.1-3.8,0.1L88,76.9c3.4,0.1,6.7-0.2,10-0.9l0.5,0.9c-1.7,0.4-3.4,0.6-5.2,0.7c-0.8,0.9-1.7,1.7-2.7,2.4
		c1.1-0.1,2.2-0.1,3.4-0.2c0.6-0.5,1.3-1.1,1.9-1.7l0.9,0.5c-1.9,1.7-3.9,3.2-6.1,4.5c2.3-0.1,4.2-0.3,5.9-0.5
		c-0.3-0.4-0.7-0.9-1.1-1.4l0.8-0.5c1,1.1,1.9,2.3,2.7,3.5l-0.8,0.6c-0.3-0.5-0.6-1-0.9-1.4c-1,0.1-2,0.2-3.2,0.3v3.7
		c0.1,0.6-0.3,1.1-0.9,1.2c-0.1,0-0.2,0-0.3,0L91.2,88.6L91.2,88.6z M99.4,87.6l-0.7,0.7c-1.1-1.2-2.2-2.2-3.5-3.2l0.7-0.6
		C97.2,85.4,98.4,86.5,99.4,87.6L99.4,87.6z"/>
</g>
<g>
	<path class="st6" d="M104.4,76.2c-0.6,1.5-1.3,2.9-2.1,4.3c0.6-0.1,1.2-0.2,1.8-0.3c0.2-0.5,0.5-1,0.8-1.5l0.9,0.3
		c-0.9,1.8-1.9,3.4-3.1,5c1-0.3,2-0.6,3-1v0.9c-1.4,0.6-2.8,1-4.2,1.2l-0.3-0.9c0.2-0.1,0.3-0.2,0.5-0.3c0.8-0.9,1.4-1.8,2-2.8
		c-0.8,0.1-1.5,0.3-2.3,0.4l-0.3-0.9c0.2-0.1,0.3-0.2,0.4-0.4c0.8-1.4,1.5-2.9,2-4.4L104.4,76.2z M105.6,86.4
		c-1.4,0.7-2.9,1.2-4.4,1.6l-0.1-1c1.6-0.3,3.1-0.8,4.5-1.5V86.4z M108.2,82.5c0,1.3-0.2,2.6-0.7,3.9c-0.4,0.9-1.1,1.7-2,2.2
		l-0.6-0.8c0.7-0.4,1.4-1.1,1.8-1.9c0.4-1.1,0.6-2.3,0.6-3.5h0.9L108.2,82.5L108.2,82.5z M105.9,81l0.2-0.1c0.8-0.8,1.4-1.7,1.8-2.7
		h-2.4v-1h3.6c-0.2-0.5-0.4-1-0.6-1.4l1-0.2c0.2,0.5,0.4,1,0.6,1.6h3.2v1H109c-0.4,0.9-1,1.8-1.6,2.7c1.3-0.1,2.6-0.3,3.9-0.5
		c-0.3-0.4-0.6-0.9-1-1.4l0.8-0.5c0.8,1,1.6,2.1,2.2,3.2l-0.8,0.6c-0.2-0.4-0.4-0.7-0.6-1.1c-1.7,0.3-3.6,0.5-5.7,0.6L105.9,81z
		 M111.3,88.4c-0.6,0.1-1.2-0.3-1.3-0.9c0-0.1,0-0.2,0-0.3v-4.8h1V87c0,0.3,0.1,0.4,0.3,0.5h0.9c0.3,0,0.5-0.2,0.6-0.5
		c0.1-0.6,0.1-1.2,0.1-1.8l0.9,0.3c0.1,0.8,0,1.7-0.3,2.4c-0.3,0.3-0.7,0.5-1.2,0.5H111.3L111.3,88.4z"/>
</g>
<rect x="320.4" y="271.4" class="st3" width="145" height="50"/>
<path class="st4" d="M465.9,321.9h-146v-51h146V321.9z M320.9,320.9h144v-49h-144V320.9z"/>
<rect x="170.4" y="331.4" class="st3" width="138" height="50"/>
<path class="st4" d="M308.9,381.9h-139v-51h139V381.9L308.9,381.9z M170.9,380.9h137v-49h-137V380.9z"/>
<rect x="158.8" y="567.4" class="st3" width="156" height="50"/>
<path class="st4" d="M315.3,617.9h-157v-51h157V617.9z M159.3,616.9h155v-49h-155V616.9z"/>
<rect x="325.3" y="627.4" class="st3" width="156" height="50"/>
<path class="st4" d="M481.8,677.9h-157v-51h157V677.9z M325.8,676.9h155v-49h-155V676.9z"/>
<rect x="490.9" y="627.4" class="st3" width="146" height="50"/>
<path class="st4" d="M637.4,677.9h-147v-51h147V677.9L637.4,677.9z M491.4,676.9h145v-49h-145V676.9L491.4,676.9z"/>
<polygon class="st7" points="301.4,92.5 306.4,87.5 301.4,82.5 "/>
<rect x="128.3" y="86.6" class="st7" width="175" height="1"/>
<path class="st8" d="M221.9,247.4h-1v-5h1V247.4z M221.9,237.4h-1v-4h1V237.4z"/>
<g>
	<path class="st8" d="M576.4,145.9h-5v-1h5V145.9z M566.4,145.9h-5v-1h5V145.9z M556.4,145.9h-5v-1h5V145.9z M546.4,145.9h-5v-1h5
		V145.9z M536.4,145.9h-5v-1h5V145.9z M526.4,145.9h-5v-1h5V145.9z M516.4,145.9h-5v-1h5V145.9z M506.4,145.9h-5v-1h5V145.9z
		 M496.4,145.9h-5v-1h5V145.9z M486.4,145.9h-5v-1h5V145.9z M476.4,145.9h-5v-1h5V145.9z M466.4,145.9h-5v-1h5V145.9z M456.4,145.9
		h-5v-1h5V145.9z M446.4,145.9h-5v-1h5V145.9z M436.4,145.9h-5v-1h5V145.9z M426.4,145.9h-5v-1h5V145.9z M416.4,145.9h-5v-1h5V145.9
		z M406.4,145.9h-5v-1h5V145.9z M396.4,145.9h-5v-1h5V145.9z M386.4,145.9h-5v-1h5V145.9z M376.4,145.9h-5v-1h5V145.9z M366.4,145.9
		h-5v-1h5V145.9z M356.4,145.9h-5v-1h5V145.9z M346.4,145.9h-5v-1h5V145.9z M336.4,145.9h-5v-1h5V145.9z M326.4,145.9h-5v-1h5V145.9
		z M316.4,145.9h-5v-1h5V145.9z M306.4,145.9h-5v-1h5V145.9z M296.4,145.9h-5v-1h5V145.9z M286.4,145.9h-5v-1h5V145.9z M276.4,145.9
		h-5v-1h5V145.9z M266.4,145.9h-5v-1h5V145.9z M256.4,145.9h-5v-1h5V145.9z M246.4,145.9h-5v-1h5V145.9z M236.4,145.9h-5v-1h5V145.9
		z M226.4,145.9h-4v-1h4V145.9z"/>
</g>
<g>
	<path class="st8" d="M400.9,156.5h-1v-5h1V156.5z M400.9,146.5h-1v-5h1V146.5z M400.9,136.5h-1v-5h1V136.5z"/>
</g>
<path class="st8" d="M399.9,258.4h-1v-5h1V258.4z M399.9,248.4h-1v-1h1V248.4z"/>
<path class="st8" d="M239.9,416.4h-1v-5h1V416.4z M239.9,406.4h-1v-5h1V406.4z"/>
<path class="st8" d="M393.4,416.4h-1v-5h1V416.4z M393.4,406.4h-1v-5h1V406.4z"/>
<path class="st8" d="M551.8,416.4h-1v-5h1V416.4z M551.8,406.4h-1v-5h1V406.4z"/>
<path class="st8" d="M576.9,157.4h-1v-5h1V157.4z M576.9,147.4h-1v-2.1h1V147.4z"/>
<path class="st8" d="M222.9,157.4h-1v-5h1V157.4z M222.9,147.4h-1v-2.1h1V147.4z"/>
<g>
	<g>
		<path class="st6" d="M240,351.3c1.3-0.1,2.7,0.4,3.6,1.4c0.8,1,1.2,2.3,1.1,3.6c0.1,1.3-0.4,2.6-1.2,3.6c-1,1-2.3,1.5-3.6,1.4
			h-3.5v-10C236.4,351.3,240,351.3,240,351.3z M237.5,360.3h2.1c1.1,0.1,2.1-0.3,2.9-1c0.7-0.8,1-1.9,0.9-3c0.1-1.1-0.2-2.1-0.9-3
			c-0.8-0.7-1.8-1.1-2.9-1h-2.2L237.5,360.3z"/>
	</g>
	<g>
		<path class="st6" d="M252,354.9c1.2,1.6,1.2,3.8,0,5.4c-0.7,0.8-1.6,1.2-2.6,1.1c-1,0-1.9-0.4-2.6-1.1c-0.6-0.7-1-1.7-0.9-2.7
			c0-1,0.3-1.9,0.9-2.7c1.3-1.4,3.6-1.5,5-0.1C251.9,354.8,251.9,354.9,252,354.9L252,354.9z M247.6,355.6c-0.8,1.2-0.8,2.8,0,4
			c0.4,0.6,1.1,0.9,1.8,0.9s1.4-0.3,1.8-0.9c0.8-1.2,0.8-2.8,0-4c-0.4-0.6-1.1-0.9-1.8-0.9S248,355.1,247.6,355.6L247.6,355.6z"/>
	</g>
	<g>
		<path class="st6" d="M259.6,354.4c0.6,0.5,0.9,1.2,1,2h-1.1c-0.1-0.5-0.3-0.9-0.7-1.3c-0.4-0.3-0.9-0.4-1.4-0.4
			c-0.7,0-1.3,0.3-1.7,0.8c-0.4,0.6-0.6,1.4-0.6,2.1c0,0.7,0.2,1.5,0.6,2.1c0.4,0.5,1,0.8,1.7,0.8c1.1,0.1,2-0.7,2.1-1.7v-0.1h1.1
			c-0.1,0.8-0.5,1.6-1.1,2.1s-1.4,0.7-2.2,0.7c-1,0.1-1.9-0.3-2.5-1c-0.6-0.8-0.9-1.7-0.9-2.7s0.3-1.9,0.9-2.7
			c0.6-0.8,1.6-1.2,2.5-1.1C258.2,353.8,259,354,259.6,354.4z"/>
	</g>
	<g>
		<path class="st6" d="M263.1,351.1v6.3l3.6-3.4h1.5l-3.2,2.9l3.5,4.3h-1.4l-2.8-3.6l-1.1,1v2.6h-1.1V351L263.1,351.1z"/>
	</g>
	<g>
		<path class="st6" d="M275,355c0.6,0.9,0.9,1.9,0.8,3h-5.7c0,0.7,0.2,1.3,0.7,1.9c0.4,0.5,1,0.7,1.6,0.7c0.5,0,1-0.1,1.4-0.5
			c0.3-0.3,0.6-0.7,0.7-1.1h1.1c-0.1,0.7-0.5,1.3-1,1.7c-0.6,0.5-1.5,0.8-2.3,0.8c-0.9,0-1.8-0.3-2.5-1c-1.2-1.6-1.2-3.9,0-5.5
			c0.6-0.8,1.5-1.2,2.5-1.1C273.4,353.8,274.4,354.2,275,355z M270.9,355.4c-0.4,0.5-0.7,1.1-0.7,1.7h4.5c-0.1-1.6-0.9-2.3-2.3-2.3
			C271.9,354.7,271.3,355,270.9,355.4z"/>
	</g>
	<g>
		<path class="st6" d="M281.4,354v1.1c-0.4-0.1-0.7-0.2-1.1-0.1c-0.6,0-1.1,0.3-1.4,0.7c-0.4,0.5-0.6,1.1-0.6,1.7v3.8h-1.1V354h1.1
			v1.3c0.2-0.4,0.4-0.7,0.8-1c0.4-0.3,0.8-0.5,1.3-0.5C280.7,353.8,281,353.9,281.4,354z"/>
	</g>
</g>
<g id="_编组__2_">
	<g id="_编组_2_2_">
		<g>
			<path class="st5" d="M225.2,358.4c-1.1,7.1-7.8,11.9-14.8,10.8c-7.1-1.1-11.9-7.8-10.8-14.8s7.8-11.9,14.8-10.8
				c5.6,0.9,10,5.3,10.8,10.8h2c-1.1-8.2-8.7-14-16.9-12.9c-8.2,1.1-14,8.7-12.9,16.9c1.1,8.2,8.7,14,16.9,12.9
				c6.7-0.9,12-6.2,12.9-12.9H225.2z"/>
		</g>
	</g>
	<g id="_编组_3_2_">
		<g id="_复合路径_2_2_">
			<path class="st5" d="M205.4,352.4v3h6V349L205.4,352.4z M209.4,353.4h-1.7l1.7-1V353.4z"/>
		</g>
		<g id="_复合路径_3_2_">
			<path class="st5" d="M213.4,349v6.4h6v-3L213.4,349z M215.4,352.4l1.7,1h-1.7V352.4z"/>
		</g>
		<g id="_复合路径_4_2_">
			<path class="st5" d="M219.4,360.4v-3h-6v6.4L219.4,360.4z M215.4,359.4h1.7l-1.7,1V359.4z"/>
		</g>
		<g id="_复合路径_5_2_">
			<path class="st5" d="M211.4,363.8v-6.4h-6v3L211.4,363.8z M209.4,360.4l-1.7-1h1.7V360.4z"/>
		</g>
	</g>
</g>
<rect x="320.4" y="331.4" class="st3" width="145" height="50"/>
<path class="st4" d="M465.9,381.9h-146v-51h146V381.9z M320.9,380.9h144v-49h-144V380.9z"/>
<g>
	<g>
		<path class="st6" d="M393.5,351.3c1.3-0.1,2.7,0.4,3.6,1.4c0.8,1,1.2,2.3,1.1,3.6c0.1,1.3-0.4,2.6-1.2,3.6c-1,1-2.3,1.5-3.6,1.4
			h-3.5v-10H393.5L393.5,351.3z M391,360.3h2.1c1.1,0.1,2.1-0.3,2.9-1c0.7-0.8,1-1.9,0.9-3c0.1-1.1-0.2-2.1-0.9-3
			c-0.8-0.7-1.8-1.1-2.9-1h-2.2L391,360.3L391,360.3z"/>
	</g>
	<g>
		<path class="st6" d="M405.5,354.9c1.2,1.6,1.2,3.8,0,5.4c-0.7,0.8-1.6,1.2-2.6,1.1c-1,0-1.9-0.4-2.6-1.1c-0.6-0.7-1-1.7-0.9-2.7
			c0-1,0.3-1.9,0.9-2.7c1.3-1.4,3.6-1.5,5-0.1C405.4,354.8,405.4,354.9,405.5,354.9L405.5,354.9z M401.1,355.6c-0.8,1.2-0.8,2.8,0,4
			c0.4,0.6,1.1,0.9,1.8,0.9s1.4-0.3,1.8-0.9c0.8-1.2,0.8-2.8,0-4c-0.4-0.6-1.1-0.9-1.8-0.9S401.5,355.1,401.1,355.6L401.1,355.6z"/>
	</g>
	<g>
		<path class="st6" d="M413.1,354.4c0.6,0.5,0.9,1.2,1,2H413c-0.1-0.5-0.3-0.9-0.7-1.3c-0.4-0.3-0.9-0.4-1.4-0.4
			c-0.7,0-1.3,0.3-1.7,0.8c-0.4,0.6-0.6,1.4-0.6,2.1c0,0.7,0.2,1.5,0.6,2.1c0.4,0.5,1,0.8,1.7,0.8c1.1,0.1,2-0.7,2.1-1.7v-0.1h1.1
			c-0.1,0.8-0.5,1.6-1.1,2.1s-1.4,0.7-2.2,0.7c-1,0.1-1.9-0.3-2.5-1c-0.6-0.8-0.9-1.7-0.9-2.7s0.3-1.9,0.9-2.7
			c0.6-0.8,1.6-1.2,2.5-1.1C411.7,353.8,412.5,354,413.1,354.4z"/>
	</g>
	<g>
		<path class="st6" d="M416.6,351.1v6.3l3.6-3.4h1.5l-3.2,2.9l3.5,4.3h-1.4l-2.8-3.6l-1.1,1v2.6h-1.1V351L416.6,351.1z"/>
	</g>
	<g>
		<path class="st6" d="M428.5,355c0.6,0.9,0.9,1.9,0.8,3h-5.7c0,0.7,0.2,1.3,0.7,1.9c0.4,0.5,1,0.7,1.6,0.7c0.5,0,1-0.1,1.4-0.5
			c0.3-0.3,0.6-0.7,0.7-1.1h1.1c-0.1,0.7-0.5,1.3-1,1.7c-0.6,0.5-1.5,0.8-2.3,0.8c-0.9,0-1.8-0.3-2.5-1c-1.2-1.6-1.2-3.9,0-5.5
			c0.6-0.8,1.5-1.2,2.5-1.1C426.9,353.8,427.9,354.2,428.5,355z M424.4,355.4c-0.4,0.5-0.7,1.1-0.7,1.7h4.5
			c-0.1-1.6-0.9-2.3-2.3-2.3C425.4,354.7,424.8,355,424.4,355.4z"/>
	</g>
	<g>
		<path class="st6" d="M434.9,354v1.1c-0.4-0.1-0.7-0.2-1.1-0.1c-0.6,0-1.1,0.3-1.4,0.7c-0.4,0.5-0.6,1.1-0.6,1.7v3.8h-1.1V354h1.1
			v1.3c0.2-0.4,0.4-0.7,0.8-1c0.4-0.3,0.8-0.5,1.3-0.5C434.2,353.8,434.5,353.9,434.9,354z"/>
	</g>
</g>
<g id="_编组_4_2_">
	<g id="_编组_5_2_">
		<g>
			<path class="st5" d="M378.7,358.4c-1.1,7.1-7.8,11.9-14.8,10.8c-7.1-1.1-11.9-7.8-10.8-14.8c1.1-7.1,7.8-11.9,14.8-10.8
				c5.6,0.9,10,5.3,10.8,10.8h2c-1.1-8.2-8.7-14-16.9-12.9c-8.2,1.1-14,8.7-12.9,16.9c1.1,8.2,8.7,14,16.9,12.9
				c6.7-0.9,12-6.2,12.9-12.9H378.7z"/>
		</g>
	</g>
	<g id="_编组_6_2_">
		<g id="_复合路径_6_2_">
			<path class="st5" d="M358.9,352.4v3h6V349L358.9,352.4z M362.9,353.4h-1.7l1.7-1V353.4z"/>
		</g>
		<g id="_复合路径_7_2_">
			<path class="st5" d="M366.9,349v6.4h6v-3L366.9,349z M368.9,352.4l1.7,1h-1.7V352.4z"/>
		</g>
		<g id="_复合路径_8_2_">
			<path class="st5" d="M372.9,360.4v-3h-6v6.4L372.9,360.4z M368.9,359.4h1.7l-1.7,1V359.4z"/>
		</g>
		<g id="_复合路径_9_2_">
			<path class="st5" d="M364.9,363.8v-6.4h-6v3L364.9,363.8z M362.9,360.4l-1.7-1h1.7V360.4z"/>
		</g>
	</g>
</g>
<rect x="477.3" y="331.4" class="st3" width="148" height="50"/>
<path class="st4" d="M625.8,381.9h-149v-51h149V381.9L625.8,381.9z M477.9,380.9h147v-49h-147V380.9z"/>
<rect x="172.4" y="170.6" class="st2" width="138" height="50"/>
<rect x="322.4" y="170.6" class="st2" width="145" height="50"/>
<rect x="479.3" y="170.6" class="st2" width="148" height="50"/>
<rect x="170.4" y="168.6" class="st3" width="138" height="50"/>
<path class="st4" d="M308.9,219.1h-139v-51h139V219.1L308.9,219.1z M170.9,218.1h137v-49h-137V218.1z"/>
<rect x="320.4" y="168.6" class="st3" width="145" height="50"/>
<path class="st4" d="M465.9,219.1h-146v-51h146V219.1z M320.9,218.1h144v-49h-144V218.1z"/>
<rect x="477.3" y="168.6" class="st3" width="148" height="50"/>
<path class="st4" d="M625.8,219.1h-149v-51h149V219.1L625.8,219.1z M477.9,218.1h147v-49h-147V218.1z"/>
<g>
	<g>
		<path class="st6" d="M552,351.3c1.3-0.1,2.7,0.4,3.6,1.4c0.8,1,1.2,2.3,1.1,3.6c0.1,1.3-0.4,2.6-1.2,3.6c-1,1-2.3,1.5-3.6,1.4
			h-3.5v-10C548.4,351.3,552,351.3,552,351.3z M549.6,360.3h2.1c1.1,0.1,2.1-0.3,2.9-1c0.7-0.8,1-1.9,0.9-3c0.1-1.1-0.2-2.1-0.9-3
			c-0.8-0.7-1.8-1.1-2.9-1h-2.2L549.6,360.3L549.6,360.3z"/>
	</g>
	<g>
		<path class="st6" d="M564,354.9c1.2,1.6,1.2,3.8,0,5.4c-0.7,0.8-1.6,1.2-2.6,1.1c-1,0-1.9-0.4-2.6-1.1c-0.6-0.7-1-1.7-0.9-2.7
			c0-1,0.3-1.9,0.9-2.7c1.3-1.4,3.6-1.5,5-0.1C563.9,354.8,563.9,354.9,564,354.9L564,354.9z M559.6,355.6c-0.8,1.2-0.8,2.8,0,4
			c0.4,0.6,1.1,0.9,1.8,0.9s1.4-0.3,1.8-0.9c0.8-1.2,0.8-2.8,0-4c-0.4-0.6-1.1-0.9-1.8-0.9S560,355.1,559.6,355.6L559.6,355.6z"/>
	</g>
	<g>
		<path class="st6" d="M571.6,354.4c0.6,0.5,0.9,1.2,1,2h-1.1c-0.1-0.5-0.3-0.9-0.7-1.3c-0.4-0.3-0.9-0.4-1.4-0.4
			c-0.7,0-1.3,0.3-1.7,0.8c-0.4,0.6-0.6,1.4-0.6,2.1c0,0.7,0.2,1.5,0.6,2.1c0.4,0.5,1,0.8,1.7,0.8c1.1,0.1,2-0.7,2.1-1.7v-0.1h1.1
			c-0.1,0.8-0.5,1.6-1.1,2.1s-1.4,0.7-2.2,0.7c-1,0.1-1.9-0.3-2.5-1c-0.6-0.8-0.9-1.7-0.8-2.7c0-1,0.3-1.9,0.8-2.7
			c0.6-0.8,1.6-1.2,2.5-1.1C570.2,353.8,571,354,571.6,354.4z"/>
	</g>
	<g>
		<path class="st6" d="M575.1,351.1v6.3l3.6-3.4h1.5l-3.2,2.9l3.5,4.3h-1.4l-2.8-3.6l-1.2,1v2.6H574V351L575.1,351.1z"/>
	</g>
	<g>
		<path class="st6" d="M587,355c0.6,0.9,0.9,1.9,0.8,3h-5.7c0,0.7,0.2,1.3,0.7,1.9c0.4,0.5,1,0.7,1.6,0.7c0.5,0,1-0.1,1.4-0.5
			c0.3-0.3,0.6-0.7,0.7-1.1h1.1c-0.1,0.7-0.5,1.3-1,1.7c-0.6,0.5-1.5,0.8-2.3,0.8c-0.9,0-1.8-0.3-2.5-1c-1.2-1.6-1.2-3.9,0-5.5
			c0.6-0.8,1.5-1.2,2.5-1.1C585.4,353.8,586.4,354.2,587,355z M582.9,355.4c-0.4,0.5-0.7,1.1-0.7,1.7h4.5c-0.1-1.6-0.9-2.3-2.3-2.3
			C583.9,354.7,583.3,355,582.9,355.4z"/>
	</g>
	<g>
		<path class="st6" d="M593.4,354v1.1c-0.4-0.1-0.7-0.2-1.1-0.1c-0.6,0-1.1,0.3-1.4,0.7c-0.4,0.5-0.6,1.1-0.6,1.7v3.8h-1.1V354h1.1
			v1.3c0.2-0.4,0.4-0.7,0.8-1c0.4-0.3,0.8-0.5,1.3-0.5C592.7,353.8,593,353.9,593.4,354z"/>
	</g>
</g>
<g id="_编组_7_2_">
	<g id="_编组_8_2_">
		<g>
			<path class="st5" d="M537.2,358.4c-1.1,7.1-7.8,11.9-14.8,10.8c-7.1-1.1-11.9-7.8-10.8-14.8c1.1-7.1,7.8-11.9,14.8-10.8
				c5.6,0.9,10,5.3,10.8,10.8h2c-1.1-8.2-8.7-14-16.9-12.9c-8.2,1.1-14,8.7-12.9,16.9c1.1,8.2,8.7,14,16.9,12.9
				c6.7-0.9,12-6.2,12.9-12.9H537.2z"/>
		</g>
	</g>
	<g id="_编组_9_2_">
		<g id="_复合路径_10_2_">
			<path class="st5" d="M517.4,352.4v3h6V349L517.4,352.4z M521.4,353.4h-1.7l1.7-1V353.4z"/>
		</g>
		<g id="_复合路径_11_2_">
			<path class="st5" d="M525.4,349v6.4h6v-3L525.4,349z M527.4,352.4l1.7,1h-1.7V352.4z"/>
		</g>
		<g id="_复合路径_12_2_">
			<path class="st5" d="M531.4,360.4v-3h-6v6.4L531.4,360.4z M527.4,359.4h1.7l-1.7,1V359.4z"/>
		</g>
		<g id="_复合路径_13_2_">
			<path class="st5" d="M523.4,363.8v-6.4h-6v3L523.4,363.8z M521.4,360.4l-1.7-1h1.7V360.4z"/>
		</g>
	</g>
</g>
<g>
	<path class="st5" d="M194.4,470.4c-7.2,0-13-5.8-13-13s5.8-13,13-13c6.4,0,11.9,4.7,12.9,11h2c-1.1-8.2-8.7-14-16.9-12.9
		c-8.2,1.1-14,8.7-12.9,16.9s8.7,14,16.9,12.9c6.7-0.9,12-6.2,12.9-12.9h-2C206.2,465.7,200.8,470.4,194.4,470.4z M201.4,453.4l-7-4
		l-7,4v2l2,1.1l0,0l5,2.9l5-2.9l0,0l2-1.1V453.4z M194.4,457.1l-4.7-2.7l4.7-2.7l4.7,2.7L194.4,457.1z M187.4,457.7v3.7l7,4l7-4
		v-3.7l-2,1.1v1.4l-5,2.9l-5-2.9v-1.4L187.4,457.7z"/>
</g>
<rect x="326.4" y="432.7" class="st3" width="145" height="50"/>
<path class="st4" d="M471.9,483.2h-146v-51h146V483.2z M326.9,482.2h144v-49h-144V482.2z"/>
<g>
	<path class="st6" d="M374.8,457.9l-0.9-0.2c0.5-1.5,0.8-3.1,0.9-4.7l0.9,0.1c0,0.6-0.1,1.2-0.2,1.8h1V452h1v2.9h1.2v1h-1.2v3.4
		c0.4-0.2,0.8-0.4,1.1-0.6v1c-0.4,0.2-0.7,0.4-1.1,0.6v4.6h-1v-4.2c-0.7,0.3-1.4,0.5-2.2,0.8l-0.2-1c0.8-0.2,1.6-0.4,2.4-0.8v-3.8
		h-1.1C375.2,456.6,375,457.3,374.8,457.9z M381.4,452.2c-0.1,0.7-0.3,1.4-0.5,2h5.4c0,4.7-0.1,7.6-0.2,8.7c-0.1,1.1-1,1.9-2.1,1.9
		h-0.1h-1l-0.2-0.9c0.5,0,0.8,0.1,1.1,0.1c0.7,0.1,1.4-0.5,1.5-1.2v-0.1c0.1-0.8,0.1-3.2,0.2-7.3h-1c-0.2,1.9-0.6,3.8-1.3,5.5
		c-0.7,1.5-1.6,2.8-2.9,3.9l-0.6-0.8c1.1-1,2-2.2,2.6-3.5c0.6-1.7,1-3.4,1.2-5.1h-1.1c-0.6,3.1-1.6,5.3-3.2,6.6l-0.7-0.8
		c1.6-1.6,2.7-3.7,3-5.9h-1c-0.3,0.8-0.8,1.5-1.3,2.2l-0.7-0.6c1-1.4,1.7-3.1,1.9-4.8L381.4,452.2z"/>
</g>
<g>
	<path class="st6" d="M389.8,457.2v-3.3h-1.7v-1h4.5v1h-1.7v3.3h1.5v1h-1.5v3.2c0.5-0.2,1-0.4,1.5-0.6v1c-1.4,0.6-2.7,1-4.2,1.3
		l-0.2-1c0.6-0.1,1.2-0.2,1.8-0.4v-3.5h-1.5v-1H389.8z M400.1,452.5v6.5h-2.9v1.6h3.1v1h-3.1v1.8h3.7v1h-8.4v-1h3.8v-1.8h-3.2v-1
		h3.2V459h-2.9v-6.5C393.4,452.5,400.1,452.5,400.1,452.5z M396.2,455.3v-1.9h-2v1.9H396.2z M396.2,456.2h-2v1.9h2V456.2z
		 M397.2,455.3h2v-1.9h-2V455.3z M399.1,456.2h-2v1.9h2V456.2z"/>
</g>
<g>
	<path class="st6" d="M404.3,454.7V452h1v2.7h1.7v1h-1.7v0.7c0.6,0.7,1.3,1.4,2,2.2l-0.6,0.9c-0.5-0.9-1-1.6-1.4-2.1v7.4h-1v-7.1
		c-0.5,1.3-1.1,2.6-1.9,3.8l-0.4-1.1c1.1-1.4,1.9-3,2.3-4.7h-2v-1L404.3,454.7L404.3,454.7z M407.7,461.3c0.2-1.1,0.3-2.3,0.3-3.5
		v-5.3h4.5v10.6c0,0.2,0.1,0.4,0.3,0.4h0.5c0.1,0,0.3,0,0.4-0.1c0.1-0.1,0.2-0.2,0.2-0.4c0.1-0.8,0.1-1.6,0.1-2.4l0.9,0.3
		c0,0.8,0,1.5-0.1,2.3c0,0.4-0.2,0.7-0.4,1c-0.3,0.2-0.7,0.3-1,0.2h-0.6c-0.9,0-1.3-0.4-1.3-1.2v-9.7h-2.6v4.4
		c0,1.3-0.1,2.6-0.4,3.9c-0.2,1.1-0.7,2.2-1.3,3.1l-0.8-0.7C407,463.3,407.4,462.3,407.7,461.3z"/>
</g>
<g>
	<path class="st6" d="M421.9,451.9l-5,12.9h-1l5-12.9H421.9z"/>
</g>
<g>
	<path class="st6" d="M435.7,456.7v1H429c-0.9,2-2,3.8-3.4,5.5c2.5-0.1,5-0.4,7.5-0.7c-0.5-0.9-1.1-1.8-1.7-2.8l0.8-0.5
		c1.1,1.6,2.1,3.3,3,5.1l-0.9,0.6c-0.2-0.5-0.5-1-0.7-1.5c-2.8,0.4-5.9,0.6-9.3,0.9l-0.3-1c0.1,0,0.2-0.1,0.2-0.1
		c0.9-0.7,2.1-2.5,3.6-5.5h-4.7v-1H435.7z M434.5,452.8v1h-10v-1H434.5z"/>
</g>
<g>
	<path class="st6" d="M437.7,455.3v-1h5.3c-0.2-0.7-0.5-1.4-0.9-2.1l1-0.3c0.3,0.7,0.6,1.4,0.8,2.2l-0.5,0.2h5.8v1h-5.3v3.3h4.5v0.9
		h-4.5v3.8h5.7v1h-12.4v-1h5.7v-3.8h-4.5v-0.9h4.5v-3.3H437.7L437.7,455.3z"/>
</g>
<g>
	<path class="st6" d="M453.3,454.7V452h1v2.7h1.7v1h-1.7v0.7c0.6,0.7,1.3,1.4,2,2.2l-0.6,0.9c-0.5-0.9-1-1.6-1.4-2.1v7.4h-1v-7.1
		c-0.5,1.3-1.1,2.6-1.9,3.8l-0.4-1.1c1.1-1.4,1.9-3,2.3-4.7h-2v-1L453.3,454.7L453.3,454.7z M456.7,461.3c0.2-1.1,0.3-2.3,0.3-3.5
		v-5.3h4.5v10.6c0,0.2,0.1,0.4,0.3,0.4h0.5c0.1,0,0.3,0,0.4-0.1c0.1-0.1,0.2-0.2,0.2-0.4c0.1-0.8,0.1-1.6,0.1-2.4l0.9,0.3
		c0,0.8,0,1.5-0.1,2.3c0,0.4-0.2,0.7-0.4,1c-0.3,0.2-0.7,0.3-1,0.2h-0.6c-0.9,0-1.3-0.4-1.3-1.2v-9.7h-2.6v4.4
		c0,1.3-0.1,2.6-0.4,3.9c-0.2,1.1-0.7,2.2-1.3,3.1l-0.8-0.7C456,463.3,456.4,462.3,456.7,461.3z"/>
</g>
<g>
	<path class="st5" d="M350.4,470.4c-7.2,0-13-5.8-13-13s5.8-13,13-13c6.4,0,11.9,4.7,12.9,11h2c-1.1-8.2-8.7-14-16.9-12.9
		c-8.2,1.1-14,8.7-12.9,16.9s8.7,14,16.9,12.9c6.7-0.9,12-6.2,12.9-12.9h-2C362.2,465.7,356.8,470.4,350.4,470.4z M357.4,453.4l-7-4
		l-7,4v2l2,1.1l0,0l5,2.9l5-2.9l0,0l2-1.1V453.4z M350.4,457.1l-4.7-2.7l4.7-2.7l4.7,2.7L350.4,457.1z M343.4,457.7v3.7l7,4l7-4
		v-3.7l-2,1.1v1.4l-5,2.9l-5-2.9v-1.4L343.4,457.7z"/>
</g>
<rect x="482.4" y="432.7" class="st3" width="145" height="50"/>
<path class="st4" d="M627.8,483.2h-146v-51h146V483.2L627.8,483.2z M482.9,482.2h144v-49h-144V482.2z"/>
<g>
	<path class="st6" d="M530.7,457.9l-0.9-0.2c0.5-1.5,0.8-3.1,0.9-4.7l0.9,0.1c0,0.6-0.1,1.2-0.2,1.8h1V452h1v2.9h1.2v1h-1.2v3.4
		c0.4-0.2,0.8-0.4,1.1-0.6v1c-0.4,0.2-0.7,0.4-1.1,0.6v4.6h-1v-4.2c-0.7,0.3-1.4,0.5-2.2,0.8l-0.2-1c0.8-0.2,1.6-0.4,2.4-0.8v-3.8
		h-1.2C531.1,456.6,530.9,457.3,530.7,457.9z M537.3,452.2c-0.2,0.7-0.3,1.4-0.5,2h5.4c0,4.7-0.1,7.6-0.2,8.7
		c-0.1,1.1-1,1.9-2.1,1.9h-0.1h-1l-0.2-0.9c0.5,0,0.8,0.1,1.2,0.1c0.7,0.1,1.4-0.5,1.5-1.2v-0.1c0.1-0.8,0.2-3.2,0.2-7.3h-1
		c-0.2,1.9-0.6,3.8-1.3,5.5c-0.7,1.5-1.6,2.8-2.9,3.9l-0.6-0.8c1.1-1,2-2.2,2.6-3.5c0.6-1.7,1-3.4,1.2-5.1h-1.1
		c-0.6,3.1-1.6,5.3-3.2,6.6l-0.7-0.8c1.6-1.6,2.7-3.7,3-5.9h-1c-0.3,0.8-0.8,1.5-1.3,2.2l-0.7-0.6c1-1.4,1.7-3.1,1.9-4.8
		L537.3,452.2z"/>
</g>
<g>
	<path class="st6" d="M545.7,457.2v-3.3H544v-1h4.5v1h-1.7v3.3h1.5v1h-1.5v3.2c0.5-0.2,1-0.4,1.5-0.6v1c-1.4,0.6-2.7,1-4.2,1.3
		l-0.2-1c0.6-0.1,1.2-0.2,1.8-0.4v-3.5h-1.5v-1H545.7z M556,452.5v6.5h-2.9v1.6h3.2v1h-3.2v1.8h3.7v1h-8.4v-1h3.8v-1.8H549v-1h3.2
		V459h-2.9v-6.5C549.3,452.5,556,452.5,556,452.5z M552.1,455.3v-1.9h-2v1.9H552.1z M552.1,456.2h-2v1.9h2V456.2z M553.1,455.3h2
		v-1.9h-2V455.3z M555,456.2h-2v1.9h2V456.2z"/>
</g>
<g>
	<path class="st6" d="M560.2,454.7V452h1v2.7h1.7v1h-1.7v0.7c0.6,0.7,1.3,1.4,2,2.2l-0.6,0.9c-0.5-0.9-1-1.6-1.4-2.1v7.4h-1v-7.1
		c-0.5,1.3-1.1,2.6-1.9,3.8l-0.4-1.1c1.1-1.4,1.9-3,2.3-4.7h-2v-1L560.2,454.7L560.2,454.7z M563.6,461.3c0.2-1.1,0.3-2.3,0.3-3.5
		v-5.3h4.5v10.6c0,0.2,0.1,0.4,0.3,0.4h0.5c0.1,0,0.3,0,0.4-0.1c0.1-0.1,0.2-0.2,0.2-0.4c0.1-0.8,0.1-1.6,0.1-2.4l0.9,0.3
		c0,0.8,0,1.5-0.1,2.3c0,0.4-0.2,0.7-0.4,1c-0.3,0.2-0.7,0.3-1,0.2h-0.6c-0.9,0-1.3-0.4-1.3-1.2v-9.7h-2.6v4.4
		c0,1.3-0.1,2.6-0.4,3.9c-0.2,1.1-0.7,2.2-1.3,3.1l-0.8-0.7C562.9,463.3,563.3,462.3,563.6,461.3z"/>
</g>
<g>
	<path class="st6" d="M577.8,451.9l-5,12.9h-1l5-12.9H577.8z"/>
</g>
<g>
	<path class="st6" d="M591.6,456.7v1h-6.7c-0.9,2-2,3.8-3.4,5.5c2.5-0.1,5-0.4,7.5-0.7c-0.5-0.9-1.1-1.8-1.7-2.8l0.8-0.5
		c1.1,1.6,2.1,3.3,3,5.1l-0.9,0.6c-0.2-0.5-0.5-1-0.7-1.5c-2.8,0.4-5.9,0.6-9.3,0.9l-0.3-1c0.1,0,0.2-0.1,0.2-0.1
		c0.9-0.7,2.1-2.5,3.6-5.5H579v-1H591.6z M590.4,452.8v1h-10v-1H590.4z"/>
</g>
<g>
	<path class="st6" d="M593.6,455.3v-1h5.3c-0.2-0.7-0.5-1.4-0.9-2.1l1-0.3c0.3,0.7,0.6,1.4,0.8,2.2l-0.5,0.2h5.8v1h-5.3v3.3h4.5v0.9
		h-4.5v3.8h5.7v1h-12.4v-1h5.7v-3.8h-4.5v-0.9h4.5v-3.3H593.6L593.6,455.3z"/>
</g>
<g>
	<path class="st6" d="M609.2,454.7V452h1v2.7h1.7v1h-1.7v0.7c0.6,0.7,1.3,1.4,2,2.2l-0.6,0.9c-0.5-0.9-1-1.6-1.4-2.1v7.4h-1v-7.1
		c-0.5,1.3-1.1,2.6-1.9,3.8l-0.4-1.1c1.1-1.4,1.9-3,2.3-4.7h-2v-1L609.2,454.7L609.2,454.7z M612.6,461.3c0.2-1.1,0.3-2.3,0.3-3.5
		v-5.3h4.5v10.6c0,0.2,0.1,0.4,0.3,0.4h0.5c0.1,0,0.3,0,0.4-0.1c0.1-0.1,0.2-0.2,0.2-0.4c0.1-0.8,0.1-1.6,0.1-2.4l0.9,0.3
		c0,0.8,0,1.5-0.1,2.3c0,0.4-0.2,0.7-0.4,1c-0.3,0.2-0.7,0.3-1,0.2h-0.6c-0.9,0-1.3-0.4-1.3-1.2v-9.7h-2.6v4.4
		c0,1.3-0.1,2.6-0.4,3.9c-0.2,1.1-0.7,2.2-1.3,3.1l-0.8-0.7C611.9,463.3,612.3,462.3,612.6,461.3z"/>
</g>
<g>
	<path class="st5" d="M506.3,470.4c-7.2,0-13-5.8-13-13s5.8-13,13-13c6.4,0,11.9,4.7,12.9,11h2c-1.1-8.2-8.7-14-16.9-12.9
		c-8.2,1.1-14,8.7-12.9,16.9s8.7,14,16.9,12.9c6.7-0.9,12-6.2,12.9-12.9h-2C518.1,465.7,512.7,470.4,506.3,470.4z M513.3,453.4l-7-4
		l-7,4v2l2,1.1l0,0l5,2.9l5-2.9l0,0l2-1.1V453.4z M506.3,457.1l-4.7-2.7l4.7-2.7l4.7,2.7L506.3,457.1z M499.3,457.7v3.7l7,4l7-4
		v-3.7l-2,1.1v1.4l-5,2.9l-5-2.9v-1.4L499.3,457.7z"/>
</g>
<g>
	<g>
		<path class="st6" d="M402.6,588.1c0.7,3.7,2.9,6.8,6.1,8.7l-0.7,0.9c-2.8-1.8-4.8-4.4-5.8-7.6c-0.9,3.2-3.1,5.9-5.9,7.6l-0.6-0.9
			c3.9-2.4,5.9-5.6,6-9.6c0-1,0-1.7,0-2.2h1C402.7,586.2,402.7,587.2,402.6,588.1z"/>
	</g>
	<g>
		<path class="st6" d="M410.9,586.9v-1h10.8v1h-4.9v9.3h5.5v1h-12.2v-1h5.6v-9.3L410.9,586.9L410.9,586.9z"/>
	</g>
	<g>
		<path class="st6" d="M424.7,588.2l-0.6-0.8c0.7-0.7,1.3-1.6,1.7-2.6l0.9,0.2c-0.1,0.3-0.2,0.6-0.4,0.9h4v0.9h-2.1
			c0,0.5-0.1,0.9-0.1,1.4h2.6v0.9h-2.8c0,0.1-0.1,0.3-0.1,0.4c0.9,0.5,1.8,1,2.7,1.6l-0.7,0.7c-0.7-0.6-1.5-1.2-2.3-1.6
			c-0.7,1.1-1.7,2-2.9,2.4l-0.7-0.8c1.2-0.4,2.2-1.3,2.9-2.4l0.1-0.3h-2.8v-0.9h3.1c0.1-0.4,0.1-0.9,0.1-1.4h-1.4
			C425.5,587.4,425.1,587.8,424.7,588.2z M434.9,597.9h-1v-0.6H427v0.6h-1v-5.8h9L434.9,597.9z M433.9,594.2v-1.3H427v1.3H433.9z
			 M433.9,596.3v-1.2H427v1.2H433.9z M435.9,585.9v5.1h-4.6v-5.1H435.9z M434.9,586.8h-2.6v3.3h2.6V586.8z"/>
	</g>
	<g>
		<path class="st6" d="M444.9,588.9l-0.8,0.6c-0.2-0.3-0.3-0.6-0.5-0.9c-1.8,0.3-3.6,0.4-5.4,0.5l-0.3-0.8c0.2-0.1,0.3-0.1,0.5-0.3
			c0.9-0.9,1.6-1.9,2.2-3l1,0.3c-0.5,1.1-1.3,2.1-2.1,2.9c1.2-0.1,2.4-0.2,3.7-0.3c-0.3-0.5-0.6-0.9-1-1.4l0.8-0.5
			C443.6,586.9,444.3,587.9,444.9,588.9z M439.7,597.9h-1V590h5.2v6.6c0,0.8-0.4,1.2-1.2,1.2h-1.1l-0.2-1h1c0.3,0,0.5-0.1,0.5-0.4
			v-0.1v-1.1h-3.2V597.9z M442.9,590.9h-3.2v1.4h3.2V590.9z M439.7,594.4h3.2v-1.3h-3.2V594.4z M446.5,591.1c-0.9,0-1.3-0.5-1.3-1.4
			V585h1v1.8c1.5-0.2,2.8-0.5,3.8-0.7l0.3,0.9c-1.3,0.3-2.7,0.6-4.1,0.8v1.8c0,0.5,0.2,0.7,0.6,0.7h1.8c0.2,0,0.4-0.1,0.6-0.2
			c0.2-0.5,0.3-1,0.3-1.6l0.9,0.3c0,0.7-0.2,1.5-0.5,2.1c-0.3,0.2-0.7,0.4-1.1,0.3L446.5,591.1z M446.2,596.3c0,0.3,0.2,0.4,0.5,0.4
			h1.9c0.2,0,0.4-0.1,0.6-0.2c0.2-0.5,0.3-1,0.3-1.6l0.9,0.3c0,0.7-0.2,1.4-0.5,2.1c-0.3,0.2-0.7,0.4-1.1,0.3h-2.4
			c-0.8,0-1.2-0.4-1.2-1.1v-5h1v1.7c1.3-0.1,2.5-0.4,3.8-0.7l0.3,0.9c-1.3,0.4-2.7,0.6-4.1,0.7V596.3z"/>
	</g>
</g>
<g id="_编组_13_2_">
	<g>
		<path class="st5" d="M364.2,599.4h2c0-1.7,1.3-3,3-3h4c1.7,0,3,1.3,3,3h2c0-2.8-2.2-5-5-5h-4C366.4,594.4,364.2,596.6,364.2,599.4
			z M359.9,582.4h23.3v15h2v-17h-25.3c-0.6-1-1.8-1.3-2.7-0.7c-1,0.6-1.3,1.8-0.7,2.7c0.6,1,1.8,1.3,2.7,0.7
			C359.5,583,359.7,582.7,359.9,582.4z M384.2,601.4c-0.7,0-1.4,0.4-1.7,1h-23.3v-15h-2v17h25.3c0.6,1,1.8,1.3,2.7,0.7
			s1.3-1.8,0.7-2.7C385.6,601.8,384.9,601.4,384.2,601.4z M375.2,589.4c0-2.2-1.8-4-4-4s-4,1.8-4,4c0,2.2,1.8,4,4,4
			S375.2,591.6,375.2,589.4z M369.2,589.4c0-1.1,0.9-2,2-2s2,0.9,2,2c0,1.1-0.9,2-2,2S369.2,590.5,369.2,589.4z"/>
	</g>
</g>
<g>
	<g>
		<path class="st6" d="M226.9,588.7c0.1-0.8,0.2-1.7,0.2-2.5v-1.1h1v0.9c0,0.9-0.1,1.8-0.2,2.8h5.8v1h-5.5c0.9,3.1,3,5.7,5.8,7.3
			l-0.6,0.8c-2.8-1.7-4.8-4.3-5.8-7.3c-0.7,3.2-2.8,5.9-5.8,7.4l-0.6-0.8c2.9-1.4,5-4.2,5.6-7.4h-5.3v-1L226.9,588.7z"/>
	</g>
	<g>
		<path class="st6" d="M238.8,591.6c-0.1,0.3-0.2,0.5-0.3,0.8h2.9v0.8c-0.3,0.9-0.8,1.7-1.5,2.4c0.7,0.3,1.3,0.6,1.9,1l-0.5,0.8
			c-0.7-0.4-1.4-0.8-2.2-1.1c-1.1,0.7-2.2,1.2-3.5,1.5l-0.5-0.8c1-0.3,2.1-0.6,3-1.2c-0.6-0.3-1.3-0.5-2-0.8c0.4-0.6,0.7-1.2,1-1.8
			h-1.6v-0.8h2c0.1-0.3,0.2-0.6,0.3-0.9L238.8,591.6z M238.3,587.7V585h0.9v2.7h2.5v0.9h-2.5v0.2c0.8,0.4,1.5,0.8,2.3,1.3l-0.5,0.8
			c-0.7-0.6-1.3-1-1.8-1.3v1.8h-0.9v-2.7c-0.5,1.2-1.4,2.2-2.5,2.9l-0.5-0.8c0.9-0.5,1.7-1.2,2.3-2.1h-2v-0.9L238.3,587.7z
			 M237.5,587l-0.7,0.3c-0.3-0.6-0.6-1.2-0.9-1.8l0.8-0.3C237,585.8,237.2,586.4,237.5,587z M240.6,593.3h-2.4
			c-0.2,0.5-0.5,0.9-0.8,1.3c0.6,0.2,1.1,0.4,1.6,0.6C239.7,594.7,240.2,594,240.6,593.3L240.6,593.3z M241.6,585.5
			c-0.3,0.6-0.7,1.2-1.1,1.8l-0.7-0.4c0.4-0.5,0.8-1.1,1.1-1.8L241.6,585.5z M243.1,590.3c-0.2,0.6-0.5,1.2-0.8,1.7l-0.6-0.8
			c0.9-2,1.5-4.1,1.7-6.3l1,0.2c-0.1,0.7-0.2,1.4-0.3,2h3.7v1h-0.9c0,2.1-0.5,4.1-1.3,6c0.6,1.2,1.5,2.1,2.6,2.9l-0.5,0.8
			c-1-0.8-1.9-1.7-2.5-2.8c-0.7,1.1-1.5,2.1-2.6,2.8l-0.5-0.8c1.1-0.7,2-1.7,2.6-2.9C243.9,592.9,243.4,591.6,243.1,590.3
			L243.1,590.3z M243.6,588.8c0.3,1.5,0.7,2.9,1.4,4.2c0.6-1.6,0.9-3.3,0.9-5h-2.1L243.6,588.8z"/>
	</g>
	<g>
		<path class="st6" d="M249.7,597.7l-0.2-1c0.4,0,0.7,0.1,1.1,0.1s0.5-0.2,0.5-0.6v-3.4c-0.6,0.2-1.1,0.4-1.6,0.6l-0.2-1
			c0.6-0.2,1.3-0.3,1.9-0.6v-3.2h-1.7v-1h1.7v-2.7h1v2.7h1.3v1h-1.4v2.8c0.5-0.2,0.9-0.4,1.3-0.6v1c-0.4,0.2-0.9,0.4-1.3,0.6v4.1
			c0,0.8-0.4,1.2-1.2,1.2L249.7,597.7L249.7,597.7z M253.4,597.8l-0.8-0.7c1.1-2.2,1.6-4.7,1.5-7.2v-4.4h7.4v3.4h-2.6v1.7h3v0.9h-3
			v1.7h2.4v4.6h-0.9v-0.7h-3.8v0.7h-0.9v-4.6h2.3v-1.7h-2.9C255,593.7,254.4,595.8,253.4,597.8L253.4,597.8z M255.2,588.9v1
			c0,0.2,0,0.5,0,0.7h2.8v-1.7H255.2z M255.2,586.5v1.5h5.4v-1.5H255.2z M260.3,596.2v-2.1h-3.8v2.1H260.3z"/>
	</g>
	<g>
		<path class="st6" d="M268.5,585.8c-0.5,1-1.2,2-2,2.9c-0.8,0.9-1.8,1.7-2.8,2.4l-0.5-0.9c1-0.6,1.8-1.3,2.6-2.2
			c0.7-0.8,1.3-1.8,1.9-2.8L268.5,585.8z M265.2,591.5v-1h8.6c0,1.4-0.1,2.8-0.3,4.3c-0.1,0.8-0.3,1.6-0.8,2.2
			c-0.5,0.4-1.1,0.7-1.7,0.7h-2.4l-0.3-1c0.8,0,1.5,0,2.2,0c0.7,0.1,1.4-0.3,1.8-1c0.4-1.4,0.6-2.8,0.5-4.3H269
			c-0.2,1.3-0.7,2.5-1.4,3.6c-0.8,1.1-1.9,2-3.1,2.6l-0.6-0.8c1.1-0.5,2-1.3,2.8-2.3c0.7-1,1.1-2.1,1.3-3.2L265.2,591.5z M276,590.2
			l-0.7,0.8c-2-1.3-3.6-3.2-4.5-5.4l0.9-0.5C272.5,587.2,274,589,276,590.2L276,590.2z"/>
	</g>
	<g>
		<path class="st6" d="M280.5,597.8h-1v-7.2c-0.4,1.4-1.1,2.7-1.9,3.9l-0.5-1.1c1.1-1.4,1.8-3,2.3-4.7h-2v-1h2v-2.8h1v2.8h1.9v1
			h-1.9v0.7c0.7,0.7,1.3,1.5,2,2.3l-0.5,0.8c-0.5-0.7-0.9-1.4-1.5-2.1L280.5,597.8z M289.5,585.9c-1.7,0.6-3.5,0.9-5.3,1v2.5h5.7v1
			h-2.1v7.4h-1v-7.4h-2.7v0.2c0,2.5-0.7,5-2.1,7.1l-0.7-0.7c1.3-1.9,1.9-4.1,1.9-6.4v-4.5c2,0,3.9-0.3,5.8-1L289.5,585.9z"/>
	</g>
</g>
<g id="_复合路径_14_2_">
	<path class="st5" d="M211.6,605.4c-0.7,0-1.4-0.4-1.7-1h-25.3v-17h2v15h23.3c0.6-1,1.8-1.3,2.7-0.7s1.3,1.8,0.7,2.7
		C213,605,212.3,605.4,211.6,605.4z M201.6,589.4h5v9h1v2h-19v-2h1v-5h5v5h1v-12h5v12h1V589.4z M203.6,598.4h1v-7h-1V598.4z
		 M192.6,595.4h-1v3h1V595.4z M197.6,588.4v10h1v-10H197.6z M210.6,582.4h-23.3c-0.6,1-1.8,1.3-2.7,0.7c-1-0.6-1.3-1.8-0.7-2.7
		c0.6-1,1.8-1.3,2.7-0.7c0.3,0.2,0.6,0.4,0.7,0.7h25.3v17h-2V582.4z"/>
</g>
<g>
	<g>
		<path class="st6" d="M574.5,590.9v1h-6.7c-0.9,2-2,3.8-3.4,5.5c2.5-0.1,5-0.4,7.5-0.7c-0.5-0.9-1.1-1.8-1.7-2.8l0.8-0.5
			c1.1,1.6,2.1,3.3,3,5.1l-0.9,0.6c-0.2-0.5-0.5-1-0.7-1.5c-2.8,0.4-5.9,0.6-9.3,0.9l-0.3-1c0.1,0,0.2-0.1,0.2-0.1
			c0.9-0.7,2.1-2.5,3.6-5.5h-4.7v-1H574.5z M573.3,587v1h-10v-1H573.3z"/>
	</g>
	<g>
		<path class="st6" d="M580,591.4c0.4-0.8,0.8-1.5,1.2-2.3l1,0.3c-0.4,0.7-0.7,1.4-1,2h7.2v1h-2.8c-0.5,1.3-1.1,2.5-2,3.5
			c1.5,0.6,3,1.4,4.4,2.2l-0.7,0.9c-1.4-0.8-2.9-1.6-4.5-2.3c-1.7,1.5-4,2.2-6.2,2.2L576,598c2.1,0.1,4.1-0.5,5.8-1.7
			c-1.3-0.6-2.6-1-3.9-1.5c0.5-0.8,1-1.6,1.4-2.3h-3.4v-1L580,591.4z M588,590.6h-1v-2h-9.6v2h-1v-3h5.3c-0.2-0.4-0.4-0.9-0.6-1.3
			l1.1-0.2c0.2,0.5,0.4,1,0.6,1.5h5.2V590.6z M579.4,594.4c1.1,0.3,2.2,0.7,3.2,1.2c0.8-0.9,1.4-2,1.8-3.1h-3.9
			C580.2,593.1,579.8,593.8,579.4,594.4L579.4,594.4z"/>
	</g>
	<g>
		<path class="st6" d="M596.6,586.2c1.7,1.8,3.8,3.3,6.1,4.4l-0.5,0.9c-2.3-1.1-4.3-2.5-6-4.3c-1.7,1.8-3.7,3.3-6,4.4l-0.5-0.9
			c2.3-1.1,4.4-2.6,6.1-4.4L596.6,586.2z M600.1,590.6v1h-3.4v2.4h4v1h-4v2.5h5.3v1h-11.6v-1h5.3v-2.6h-4.1v-1h4.1v-2.3h-3.4v-1
			H600.1L600.1,590.6z"/>
	</g>
</g>
<g>
	<g id="_编组_14_2_">
		<g>
			<path class="st5" d="M549.2,583.9v9.2c-0.1,1.7-0.6,3.4-1.4,4.8c-1.8,3.4-5.1,5.7-9.6,6.9c-10.7-2.7-11-11.4-11-11.7v-13.2h24v-2
				h-26V593c0,0,0.1,10.8,13,13.8c12.9-3,13-13.8,13-13.8v-9.2L549.2,583.9L549.2,583.9z"/>
		</g>
	</g>
	<g id="_编组_15_2_">
		<g>
			<path class="st5" d="M543.7,588.9v-1l0,0c0-2.8-2.2-5-5-5s-5,2.2-5,5l0,0v1h-1v9h12v-9H543.7z M538.7,584.9c1.7,0,3,1.3,3,3l0,0
				v1h-6v-1l0,0C535.7,586.2,537,584.9,538.7,584.9z M542.7,595.9h-8v-5h8V595.9z"/>
		</g>
	</g>
</g>
<path class="st5" d="M706.2,360.4c0,1.1-0.9,2-2,2c-0.2,0-0.4,0-0.6-0.1l-3.4,2v0.1c0,1.1-0.9,2-2,2s-2-0.9-2-2v-0.1l-3.4-2
	c-0.2,0.1-0.4,0.1-0.6,0.1c-1.1,0-2-0.9-2-2c0-0.7,0.4-1.3,1-1.7v-3.5c-1-0.5-1.3-1.7-0.8-2.7s1.7-1.3,2.7-0.8
	c0.2,0.1,0.4,0.2,0.5,0.4l2.6-1.5v-0.1c0-1.1,0.9-2,2-2s2,0.9,2,2v0.1l2.6,1.5c0.7-0.8,2-0.9,2.8-0.1c0.8,0.7,0.9,2,0.1,2.8
	c-0.2,0.2-0.3,0.3-0.5,0.4v3.5C705.8,359,706.2,359.7,706.2,360.4z M693.2,355.6v3.1c0.2,0.1,0.4,0.3,0.5,0.5l2.6-1.7L693.2,355.6z
	 M697.2,352.1L697.2,352.1l-3,1.7l0,0l3,1.8V352.1z M697.2,359.3l-2.8,1.8l2.7,1.6l0.1-0.1L697.2,359.3L697.2,359.3z M703.2,358.7
	v-3.3l-3.1,2l2.7,1.6C702.9,358.9,703,358.8,703.2,358.7L703.2,358.7z M699.2,362.7L699.2,362.7l3-1.7l-3-1.8V362.7z M699.3,352.1
	L699.3,352.1l-0.1,3.6l2.9-1.9L699.3,352.1z M711,355.4c-1.1-7.1-7.8-11.9-14.8-10.8c-7.1,1.1-11.9,7.8-10.8,14.8
	c1.1,7.1,7.8,11.9,14.8,10.8c5.6-0.9,10-5.3,10.8-10.8h2c-1.1,8.2-8.7,14-16.9,12.9c-8.2-1.1-14-8.7-12.9-16.9
	c1.1-8.2,8.7-14,16.9-12.9c6.7,0.9,12,6.2,12.9,12.9H711z"/>
<path class="st8" d="M663.2,356.9h-5v-1h5V356.9z M653.2,356.9h5v-1h-5V356.9z M653.2,356.9h-5v-1h5V356.9z"/>
<g>
	<g>
		<path class="st6" d="M232.8,657.8h-1v-0.9h-7.4v0.9h-1v-11.2h3c0.3-0.5,0.5-1.1,0.7-1.7l1,0.1c-0.2,0.5-0.4,1.1-0.7,1.6h5.4V657.8
			z M231.8,649.7v-2.1h-7.4v2.1H231.8z M231.8,652.8v-2.1h-7.4v2.1H231.8z M231.8,656v-2.3h-7.4v2.3H231.8z"/>
	</g>
	<g>
		<path class="st6" d="M242,649.7v1h-3.2c-0.4,1.6-0.9,3.1-1.5,4.6c1.1-0.2,2.2-0.6,3.3-1c-0.4-0.8-0.7-1.4-1.1-2.1l0.9-0.4
			c0.7,1.3,1.3,2.6,1.9,3.9l-0.9,0.5c-0.1-0.4-0.3-0.7-0.4-1c-1.6,0.6-3.2,1-4.9,1.3l-0.2-1l0.2-0.1c0.8-1.5,1.3-3.1,1.7-4.7h-2v-1
			H242L242,649.7z M241.4,646v1h-5.1v-1H241.4z M245.1,645v2.5h3.1c0,4.6-0.1,7.5-0.2,8.5c-0.1,0.9-0.9,1.6-1.8,1.6h-0.1h-1.3
			l-0.2-0.9c0.5,0,1,0.1,1.4,0.1c0.6,0,1-0.4,1-1.1s0.1-3.2,0.2-7.2h-2.1v0.2c0,4.1-1,7.2-2.9,9.1l-0.8-0.7c1.8-1.7,2.7-4.5,2.7-8.4
			v-0.2h-1.7v-1h1.7V645H245.1L245.1,645z"/>
	</g>
	<g>
		<path class="st6" d="M254.9,645.3c-0.5,1.2-1.1,2.3-1.9,3.3v9.2h-1v-8c-0.6,0.7-1.3,1.4-2.1,2l-0.3-1c1.9-1.6,3.4-3.6,4.3-5.9
			L254.9,645.3z M257.7,657.6c-0.7,0.1-1.4-0.4-1.5-1.1c0-0.1,0-0.2,0-0.4v-4.3c-0.6,0.3-1.2,0.6-1.8,0.9l-0.5-1
			c0.8-0.4,1.5-0.7,2.2-1.2v-5.6h1v5c1.4-0.9,2.7-2.1,3.9-3.3l0.7,0.8c-1.4,1.4-2.9,2.7-4.6,3.7v4.7c0,0.4,0.2,0.7,0.7,0.7h2.3
			c0.3,0,0.6-0.1,0.8-0.3c0.2-0.8,0.3-1.6,0.3-2.4l0.9,0.3c0,1-0.1,2-0.5,2.9c-0.4,0.4-0.9,0.6-1.4,0.5L257.7,657.6z"/>
	</g>
	<g>
		<path class="st6" d="M270.6,657.5c-0.7,0-1.5-0.1-2.2-0.2c-0.6-0.2-1.1-0.5-1.5-1c-0.1-0.2-0.3-0.3-0.5-0.3
			c-0.3,0-0.9,0.6-1.7,1.9l-0.8-0.7c0.5-0.9,1.2-1.6,2-2.1v-4.3h-2v-0.9h2.9v5.2c0.1,0.1,0.2,0.2,0.3,0.3c0.3,0.4,0.7,0.7,1.1,0.9
			c0.6,0.2,1.2,0.3,1.9,0.3s1.6,0,2.7,0h2.1c0.7,0,1.2,0,1.6-0.1l-0.2,1H273H270.6L270.6,657.5z M267.3,647.3l-0.7,0.7
			c-0.7-0.8-1.5-1.6-2.4-2.2l0.7-0.7C265.7,645.8,266.5,646.5,267.3,647.3L267.3,647.3z M276.3,649v1h-4.4c-0.5,1.5-1.2,2.9-2.1,4.2
			c1.5-0.2,3-0.4,4.5-0.7c-0.3-0.8-0.7-1.5-1.1-2.3l0.8-0.3c0.8,1.4,1.5,2.9,2,4.4l-0.9,0.2c-0.1-0.4-0.3-0.9-0.5-1.2
			c-2,0.4-4,0.7-6,0.9l-0.2-0.9c0.6-0.2,1.4-1.6,2.5-4.4H268v-1L276.3,649z M275.3,645.8v0.9h-6.4v-0.9H275.3z"/>
	</g>
	<g>
		<path class="st6" d="M282.6,656c-1.5,0.6-3.1,1-4.7,1.3l-0.1-1c1.7-0.3,3.3-0.7,4.9-1.3L282.6,656z M281,645.3
			c-0.5,1.5-1.2,2.9-2,4.3c0.6-0.1,1.2-0.2,1.8-0.3l0.8-1.7l0.9,0.3c-0.8,1.8-1.8,3.5-2.9,5.2c0.9-0.2,1.9-0.5,2.8-0.9v0.9
			c-1.3,0.5-2.6,0.9-4,1.2l-0.3-0.9c0.2-0.1,0.3-0.2,0.5-0.3c0.7-0.9,1.3-1.9,1.8-2.9c-0.7,0.1-1.5,0.3-2.2,0.4l-0.2-0.9
			c0.2-0.1,0.3-0.2,0.4-0.4c0.7-1.4,1.4-2.9,1.8-4.4L281,645.3z M284.6,657.8h-1v-8.3c-0.4,0.7-0.8,1.3-1.3,1.9l-0.3-1
			c1.1-1.6,1.9-3.5,2.4-5.4l1,0.2c-0.2,0.7-0.5,1.5-0.8,2.2h2.5c-0.2-0.7-0.5-1.5-0.8-2.2l1-0.3c0.3,0.8,0.6,1.6,0.7,2.3l-0.4,0.1
			h2.5v1h-2.2v1.9h2v0.9h-2v1.9h2v0.9h-2v2.1h2.6v0.9h-6L284.6,657.8L284.6,657.8z M284.6,648.3v1.9h2.5v-1.9H284.6z M284.6,653.1
			h2.5v-1.9h-2.5V653.1z M284.6,656.1h2.5V654h-2.5V656.1z"/>
	</g>
</g>
<g>
	<path class="st5" d="M185.1,642.4h4v-2h-6v24h6v-2h-4V642.4z M207.1,640.4v2h4v20h-4v2h6v-24H207.1z M189.1,647.4h15v-2h-15V647.4z
		 M207.1,645.4h-2v2h2V645.4z M193.1,650.4h11v-2h-11V650.4z M197.1,653.4h7v-2h-7V653.4z M193.1,656.4h11v-2h-11V656.4z
		 M189.1,659.4h15v-2h-15V659.4z M207.1,657.4h-2v2h2V657.4z"/>
</g>
<g id="_编组_19_2_">
	<g id="_路径_2_2_">
		<polygon class="st5" points="375.3,653.4 381.3,656.4 381.3,654.4 375.3,651.4 		"/>
	</g>
</g>
<g>
	<g>
		<g>
			<path class="st6" d="M402.9,646.4c1.3-0.1,2.7,0.4,3.6,1.4c0.8,1,1.2,2.3,1.1,3.6c0.1,1.3-0.4,2.6-1.2,3.6c-1,1-2.3,1.5-3.6,1.4
				h-3.5v-10H402.9z M400.5,655.4h2.1c1.1,0.1,2.1-0.3,2.9-1c0.7-0.8,1-1.9,0.9-3c0.1-1.1-0.2-2.1-0.9-3c-0.8-0.7-1.8-1.1-2.9-1
				h-2.2L400.5,655.4L400.5,655.4z"/>
		</g>
		<g>
			<path class="st6" d="M414.7,650.2c0.6,0.9,0.9,1.9,0.8,3h-5.7c0,0.7,0.2,1.3,0.7,1.9c0.4,0.5,1,0.7,1.6,0.7c0.5,0,1-0.1,1.4-0.5
				c0.3-0.3,0.6-0.7,0.7-1.1h1.1c-0.1,0.7-0.5,1.3-1,1.7c-0.6,0.5-1.5,0.8-2.3,0.8c-0.9,0-1.8-0.3-2.5-1c-1.2-1.6-1.2-3.9,0-5.5
				c0.6-0.8,1.5-1.2,2.5-1.1C413.1,649,414.1,649.4,414.7,650.2z M410.5,650.6c-0.4,0.5-0.7,1.1-0.7,1.7h4.5
				c-0.1-1.5-0.9-2.3-2.3-2.3C411.5,649.9,410.9,650.1,410.5,650.6z"/>
		</g>
		<g>
			<path class="st6" d="M417.3,649.2l2.1,5.8l2.1-5.8h1.2l-2.7,7.2h-1.2l-2.7-7.2H417.3z"/>
		</g>
		<g>
			<path class="st6" d="M431.7,647.7c1.6,2.2,1.6,5.2,0,7.4c-1.9,2-5.1,2-7.1,0l0,0c-1.6-2.2-1.6-5.2,0-7.4
				C426.5,645.7,429.6,645.7,431.7,647.7C431.6,647.7,431.6,647.7,431.7,647.7L431.7,647.7z M425.4,648.4c-1.2,1.8-1.2,4.2,0,6
				c0.7,0.8,1.7,1.2,2.7,1.2s2-0.4,2.7-1.2c0.7-0.9,1-1.9,0.9-3c0-1.1-0.3-2.1-0.9-3c-1.4-1.5-3.8-1.6-5.2-0.2
				C425.5,648.3,425.4,648.3,425.4,648.4L425.4,648.4z"/>
		</g>
		<g>
			<path class="st6" d="M440.3,650.1c0.6,0.8,0.9,1.7,0.8,2.7c0,0.9-0.3,1.9-0.8,2.7c-0.6,0.8-1.5,1.2-2.4,1.2c-1,0-2-0.6-2.4-1.5
				v4.1h-1.1v-10h1v1.2c0.5-0.9,1.4-1.4,2.4-1.4C438.8,649,439.7,649.4,440.3,650.1z M436,650.8c-0.4,0.6-0.6,1.3-0.5,2v0.1
				c0,0.7,0.2,1.4,0.6,2c0.4,0.5,1,0.8,1.6,0.8c0.7,0,1.4-0.3,1.8-0.8c0.4-0.6,0.6-1.3,0.5-2.1c0-0.7-0.2-1.4-0.5-2
				c-0.4-0.6-1.1-0.9-1.8-0.9C437,649.9,436.3,650.2,436,650.8z"/>
		</g>
		<g>
			<path class="st6" d="M448.1,651.2H447c-0.1-0.4-0.3-0.8-0.6-1c-0.4-0.2-0.9-0.4-1.3-0.3c-0.4,0-0.8,0.1-1.2,0.3
				c-0.3,0.1-0.5,0.4-0.5,0.8c0,0.3,0.2,0.6,0.6,0.8c0.5,0.2,1,0.4,1.5,0.5c0.7,0.1,1.3,0.4,1.9,0.7c0.5,0.3,0.9,0.9,0.9,1.5
				c0,1.5-1,2.2-3.1,2.2s-2.9-0.8-3.1-2.5h1.1c0,0.5,0.3,0.9,0.6,1.2c0.4,0.3,0.9,0.4,1.4,0.3c1.3,0,2-0.4,2-1.2
				c0-0.4-0.3-0.8-0.7-0.9c-0.5-0.2-1-0.3-1.5-0.5c-0.6-0.1-1.2-0.3-1.8-0.6c-0.5-0.3-0.8-0.8-0.8-1.4s0.3-1.2,0.8-1.5
				c0.6-0.4,1.3-0.6,2-0.5C446.9,649,447.9,649.7,448.1,651.2z"/>
		</g>
	</g>
	<g id="_编组_16_2_">
		<g id="_编组_17_2_">
			<g>
				<path class="st5" d="M388.3,658.4v-18h-30v24h30v-2h-28v-15h26v11H388.3z M360.3,645.4v-3h26v3H360.3z"/>
			</g>
		</g>
	</g>
	<g id="_路径__2_">
		<polygon class="st5" points="371.3,653.4 365.3,656.4 365.3,654.4 371.3,651.4 		"/>
	</g>
	<g id="_编组_18_2_">
		<g>
			<polygon class="st5" points="365.3,656.4 371.3,659.4 371.3,657.4 365.3,654.4 			"/>
		</g>
	</g>
	<g id="_编组_20_2_">
		<g>
			<polygon class="st5" points="381.3,656.4 375.3,659.4 375.3,657.4 381.3,654.4 			"/>
		</g>
	</g>
</g>
<path class="st6" d="M760.1,344.6v1h-3.5v9h-1.1v-9H752v-1C752,344.6,760.1,344.6,760.1,344.6z"/>
<g>
	<path class="st6" d="M374,188.3h4.3c1.2,0,2,0.4,2.5,1.1c0.3,0.4,0.4,0.9,0.4,1.4c0,0.6-0.2,1.2-0.5,1.6c-0.2,0.2-0.5,0.4-0.8,0.6
		c0.5,0.2,0.9,0.4,1.2,0.7c0.5,0.4,0.7,1,0.7,1.8c0,0.6-0.2,1.2-0.6,1.8c-0.6,0.8-1.6,1.2-2.9,1.2H374V188.3L374,188.3z
		 M377.8,192.5c0.6,0,1-0.1,1.4-0.2c0.5-0.3,0.8-0.7,0.8-1.4s-0.3-1.1-0.8-1.3c-0.3-0.1-0.8-0.2-1.4-0.2h-2.5v3.1L377.8,192.5
		L377.8,192.5z M378.3,197.2c0.8,0,1.4-0.2,1.8-0.7c0.2-0.3,0.3-0.7,0.3-1.1c0-0.7-0.3-1.2-1-1.5c-0.3-0.1-0.8-0.2-1.4-0.2h-2.7v3.5
		C375.3,197.2,378.3,197.2,378.3,197.2z"/>
</g>
<g>
	<path class="st6" d="M390.4,189c0.7,0.7,1.1,1.4,1.2,2.3h-1.3c-0.1-0.6-0.4-1.2-0.9-1.5s-1.1-0.6-1.9-0.6c-1,0-1.8,0.3-2.4,1
		s-0.9,1.8-0.9,3.2c0,1.2,0.3,2.1,0.8,2.9c0.5,0.7,1.3,1.1,2.4,1.1c1,0,1.7-0.4,2.2-1.2c0.3-0.4,0.5-0.9,0.6-1.6h1.3
		c-0.1,1.1-0.5,1.9-1.2,2.7c-0.8,0.9-1.9,1.3-3.2,1.3c-1.2,0-2.1-0.4-2.9-1.1c-1-0.9-1.5-2.4-1.5-4.3c0-1.5,0.4-2.7,1.2-3.6
		c0.8-1,2-1.5,3.5-1.5C388.8,188,389.8,188.3,390.4,189z"/>
</g>
<g>
	<path class="st6" d="M401.7,189.7c0.7,0.9,1,2,1,3.4c0,1.5-0.4,2.7-1.1,3.7c-0.9,1.2-2.2,1.8-3.8,1.8c-1.5,0-2.8-0.5-3.6-1.5
		s-1.2-2.2-1.2-3.7c0-1.4,0.3-2.5,1-3.5c0.9-1.2,2.1-1.9,3.8-1.9C399.6,188,400.9,188.6,401.7,189.7z M400.5,196.1
		c0.5-0.9,0.8-1.8,0.8-3s-0.3-2.1-0.9-2.9c-0.6-0.7-1.5-1.1-2.5-1.1s-1.9,0.4-2.5,1.1s-1,1.8-1,3.2c0,1.1,0.3,2.1,0.8,2.8
		c0.6,0.8,1.5,1.1,2.7,1.1C399.1,197.4,400,197,400.5,196.1z"/>
</g>
<g>
	<path class="st6" d="M405.2,195.1c0,0.6,0.2,1,0.4,1.4c0.4,0.7,1.2,1,2.3,1c0.5,0,0.9-0.1,1.3-0.2c0.8-0.3,1.2-0.8,1.2-1.5
		c0-0.5-0.2-0.9-0.5-1.2c-0.3-0.2-0.9-0.4-1.6-0.6l-1.3-0.3c-0.9-0.2-1.5-0.4-1.8-0.7c-0.6-0.4-0.9-1-0.9-1.9s0.3-1.6,0.9-2.2
		c0.6-0.6,1.5-0.9,2.6-0.9c1,0,1.9,0.3,2.6,0.8s1.1,1.3,1.1,2.4h-1.3c-0.1-0.5-0.2-1-0.4-1.2c-0.4-0.5-1.1-0.8-2-0.8
		c-0.8,0-1.3,0.2-1.7,0.5c-0.3,0.3-0.5,0.7-0.5,1.2s0.2,0.9,0.6,1.1c0.3,0.1,0.9,0.3,1.8,0.5l1.4,0.3c0.7,0.2,1.2,0.4,1.5,0.6
		c0.6,0.5,0.9,1.2,0.9,2c0,1.1-0.4,1.9-1.2,2.4s-1.7,0.7-2.8,0.7c-1.2,0-2.2-0.3-2.9-1c-0.7-0.6-1-1.5-1-2.6h1.3L405.2,195.1
		L405.2,195.1z"/>
</g>
<path id="XMLID_674_" class="st6" d="M560.8,651.8c0.2,0.1,0.3,0.3,0.3,0.6c0,0.3-0.1,0.4-0.3,0.6s-0.4,0.2-0.6,0.2
	c-0.2,0-0.4-0.1-0.6-0.2c-0.2-0.2-0.3-0.4-0.3-0.6c0-0.2,0.1-0.4,0.3-0.6s0.4-0.2,0.6-0.2C560.4,651.6,560.6,651.6,560.8,651.8z"/>
<path id="XMLID_676_" class="st6" d="M564.5,651.8c0.2,0.1,0.3,0.3,0.3,0.6c0,0.3-0.1,0.4-0.3,0.6s-0.4,0.2-0.6,0.2
	c-0.2,0-0.4-0.1-0.6-0.2c-0.2-0.2-0.3-0.4-0.3-0.6c0-0.2,0.1-0.4,0.3-0.6s0.4-0.2,0.6-0.2S564.3,651.6,564.5,651.8z"/>
<path id="XMLID_678_" class="st6" d="M568.2,651.8c0.2,0.1,0.3,0.3,0.3,0.6c0,0.3-0.1,0.4-0.3,0.6s-0.4,0.2-0.6,0.2
	c-0.2,0-0.4-0.1-0.6-0.2c-0.2-0.2-0.3-0.4-0.3-0.6c0-0.2,0.1-0.4,0.3-0.6s0.4-0.2,0.6-0.2S568,651.6,568.2,651.8z"/>
<path id="XMLID_9_" class="st6" d="M548.2,193c0.2,0.1,0.3,0.3,0.3,0.6s-0.1,0.4-0.3,0.6s-0.4,0.2-0.6,0.2c-0.2,0-0.4-0.1-0.6-0.2
	c-0.2-0.2-0.3-0.4-0.3-0.6s0.1-0.4,0.3-0.6s0.4-0.2,0.6-0.2S548,192.8,548.2,193z"/>
<path id="XMLID_8_" class="st6" d="M551.9,193c0.2,0.1,0.3,0.3,0.3,0.6s-0.1,0.4-0.3,0.6s-0.4,0.2-0.6,0.2c-0.2,0-0.4-0.1-0.6-0.2
	c-0.2-0.2-0.3-0.4-0.3-0.6s0.1-0.4,0.3-0.6s0.4-0.2,0.6-0.2S551.7,192.8,551.9,193z"/>
<path id="XMLID_7_" class="st6" d="M555.6,193c0.2,0.1,0.3,0.3,0.3,0.6s-0.1,0.4-0.3,0.6s-0.4,0.2-0.6,0.2c-0.2,0-0.4-0.1-0.6-0.2
	c-0.2-0.2-0.3-0.4-0.3-0.6s0.1-0.4,0.3-0.6s0.4-0.2,0.6-0.2S555.4,192.8,555.6,193z"/>
<g>
	<path class="st6" d="M363.4,290.6h1.5l-4.5,4.3l5.2,5.7H364l-4.4-5l-1.6,1.5v3.5h-1.1v-10h1.1v5.2L363.4,290.6z"/>
	<path class="st6" d="M366.4,293.3h1.1v4.4c0,0.7,0.1,1.2,0.4,1.5c0.3,0.3,0.8,0.5,1.4,0.5c0.5,0,0.9-0.2,1.3-0.6
		c0.4-0.4,0.6-0.9,0.7-1.5v-4.3h1.1v7.2h-1.1v-1.1c-0.6,0.9-1.4,1.3-2.4,1.3c-1.8,0-2.6-1-2.6-3L366.4,293.3L366.4,293.3z"/>
	<path class="st6" d="M374.3,290.4h1.1v4.3c0.6-1,1.4-1.5,2.4-1.5s1.8,0.4,2.4,1.2c0.5,0.7,0.8,1.6,0.8,2.6c0,1.1-0.3,2-0.8,2.7
		c-0.6,0.8-1.4,1.1-2.5,1.1s-1.9-0.5-2.4-1.4v1.2h-1V290.4z M376,294.8c-0.4,0.5-0.6,1.2-0.6,2v0.1c0,0.8,0.2,1.5,0.5,2
		c0.4,0.6,1,0.8,1.7,0.8c0.8,0,1.4-0.3,1.8-0.9c0.3-0.5,0.5-1.2,0.5-2.1s-0.2-1.5-0.5-2c-0.4-0.6-1-0.8-1.8-0.8
		C376.9,294,376.4,294.3,376,294.8z"/>
	<path class="st6" d="M388.1,294.3c0.5,0.7,0.8,1.7,0.8,3h-5.7c0.1,0.8,0.3,1.5,0.7,1.9s0.9,0.7,1.6,0.7c0.6,0,1.1-0.1,1.4-0.4
		c0.3-0.2,0.5-0.6,0.7-1.1h1.1c-0.2,0.7-0.5,1.3-1,1.7c-0.6,0.5-1.4,0.8-2.3,0.8c-1,0-1.9-0.3-2.5-1c-0.6-0.7-1-1.6-1-2.8
		c0-1.1,0.3-2,0.9-2.7c0.6-0.8,1.4-1.1,2.5-1.1C386.6,293.1,387.5,293.5,388.1,294.3z M383.9,294.7c-0.4,0.4-0.6,1-0.7,1.7h4.5
		c-0.1-1.5-0.9-2.3-2.3-2.3C384.8,294.1,384.3,294.3,383.9,294.7z"/>
	<path class="st6" d="M394.4,293.3v1.1c-0.3-0.1-0.7-0.2-1.1-0.2c-0.6,0-1,0.2-1.4,0.7s-0.6,1-0.6,1.7v3.8h-1.1v-7.1h1.1v1.3
		c0.2-0.4,0.4-0.8,0.8-1c0.4-0.3,0.8-0.5,1.3-0.5C393.8,293.1,394.2,293.2,394.4,293.3z"/>
	<path class="st6" d="M401.4,296.1v4.5h-1.1v-4.4c0-1.4-0.6-2.1-1.9-2.1c-0.5,0-0.9,0.2-1.3,0.5c-0.4,0.4-0.6,0.9-0.6,1.6v4.4h-1.1
		v-7.3h1.1v1.1c0.3-0.4,0.6-0.7,1-0.9c0.4-0.2,0.8-0.3,1.3-0.3C400.5,293.1,401.4,294.1,401.4,296.1z"/>
	<path class="st6" d="M408.8,294.3c0.5,0.7,0.8,1.7,0.8,3h-5.7c0.1,0.8,0.3,1.5,0.7,1.9s0.9,0.7,1.6,0.7c0.6,0,1.1-0.1,1.4-0.4
		c0.3-0.2,0.5-0.6,0.7-1.1h1.1c-0.2,0.7-0.5,1.3-1,1.7c-0.6,0.5-1.4,0.8-2.3,0.8c-1,0-1.9-0.3-2.5-1c-0.6-0.7-1-1.6-1-2.8
		c0-1.1,0.3-2,0.9-2.7c0.6-0.8,1.4-1.1,2.5-1.1C407.3,293.1,408.2,293.5,408.8,294.3z M404.6,294.7c-0.4,0.4-0.6,1-0.7,1.7h4.5
		c-0.1-1.5-0.9-2.3-2.3-2.3C405.5,294.1,405,294.3,404.6,294.7z"/>
	<path class="st6" d="M412.9,291v2.3h1.8v0.9h-1.8v4.6c0,0.3,0.1,0.5,0.2,0.6c0.1,0.1,0.3,0.2,0.5,0.2h0.9v0.9h-1.1
		c-0.6,0-1-0.2-1.3-0.5c-0.2-0.3-0.4-0.7-0.4-1.2v-4.5h-1.5v-1h1.5v-1.9L412.9,291z"/>
	<path class="st6" d="M421.5,294.3c0.5,0.7,0.8,1.7,0.8,3h-5.7c0.1,0.8,0.3,1.5,0.7,1.9s0.9,0.7,1.6,0.7c0.6,0,1.1-0.1,1.4-0.4
		c0.3-0.2,0.5-0.6,0.7-1.1h1.1c-0.2,0.7-0.5,1.3-1,1.7c-0.6,0.5-1.4,0.8-2.3,0.8c-1,0-1.9-0.3-2.5-1c-0.6-0.7-1-1.6-1-2.8
		c0-1.1,0.3-2,0.9-2.7c0.6-0.8,1.4-1.1,2.5-1.1C420.1,293.1,420.9,293.5,421.5,294.3z M417.4,294.7c-0.4,0.4-0.6,1-0.7,1.7h4.5
		c-0.1-1.5-0.9-2.3-2.3-2.3C418.3,294.1,417.8,294.3,417.4,294.7z"/>
	<path class="st6" d="M429.2,295.4h-1.1c-0.1-0.5-0.3-0.8-0.6-1c-0.3-0.2-0.8-0.3-1.3-0.3s-0.9,0.1-1.2,0.3
		c-0.3,0.2-0.5,0.4-0.5,0.8c0,0.3,0.2,0.6,0.6,0.8c0.2,0.1,0.7,0.3,1.5,0.5c0.9,0.2,1.5,0.4,1.9,0.7c0.6,0.4,0.9,0.9,0.9,1.5
		c0,1.5-1,2.2-3.1,2.2c-1.9,0-2.9-0.8-3.1-2.5h1.1c0.1,0.6,0.3,1,0.6,1.2c0.3,0.2,0.8,0.3,1.4,0.3c1.3,0,1.9-0.4,1.9-1.2
		c0-0.4-0.2-0.7-0.7-0.9c-0.2-0.1-0.7-0.3-1.5-0.5c-0.9-0.2-1.5-0.4-1.8-0.6c-0.6-0.3-0.8-0.8-0.8-1.4s0.3-1.1,0.8-1.5
		s1.2-0.5,2-0.5C428,293.1,429,293.9,429.2,295.4z"/>
</g>
<g>
	<path class="st6" d="M201.1,187.8h1.1v4.3h5.8v-4.3h1.1v10H208v-4.7h-5.8v4.7h-1.1V187.8z"/>
	<path class="st6" d="M210.3,190.5h1.2l2.2,5.7l2.1-5.7h1.2l-4,10h-1.2l1.2-2.9L210.3,190.5z"/>
	<path class="st6" d="M224,191.5c0.6,0.7,0.8,1.6,0.8,2.7c0,1.1-0.3,1.9-0.8,2.6c-0.6,0.8-1.4,1.1-2.4,1.1s-1.8-0.5-2.4-1.5v4.1H218
		v-10h1v1.2c0.5-0.9,1.3-1.4,2.4-1.4C222.5,190.3,223.4,190.7,224,191.5z M219.7,192.1c-0.4,0.5-0.5,1.2-0.5,2v0.1
		c0,0.8,0.2,1.5,0.6,2c0.4,0.5,0.9,0.8,1.6,0.8c0.8,0,1.4-0.3,1.8-0.8c0.4-0.5,0.5-1.2,0.5-2.1c0-0.8-0.2-1.5-0.5-2
		c-0.4-0.6-1-0.9-1.8-0.9C220.6,191.2,220,191.5,219.7,192.1z"/>
	<path class="st6" d="M231.8,191.5c0.5,0.7,0.8,1.7,0.8,3H227c0.1,0.8,0.3,1.5,0.7,1.9s0.9,0.7,1.6,0.7c0.6,0,1.1-0.1,1.4-0.4
		c0.3-0.2,0.5-0.6,0.7-1.1h1.1c-0.2,0.7-0.5,1.3-1,1.7c-0.6,0.5-1.4,0.8-2.3,0.8c-1,0-1.9-0.3-2.5-1s-1-1.6-1-2.8
		c0-1.1,0.3-2,0.9-2.7c0.6-0.8,1.4-1.1,2.5-1.1C230.4,190.3,231.3,190.7,231.8,191.5z M227.7,191.9c-0.4,0.4-0.6,1-0.7,1.7h4.5
		c-0.1-1.5-0.9-2.3-2.3-2.3C228.6,191.3,228.1,191.5,227.7,191.9z"/>
	<path class="st6" d="M238.2,190.5v1.1c-0.3-0.1-0.7-0.2-1.1-0.2c-0.6,0-1,0.2-1.4,0.7s-0.6,1-0.6,1.7v3.8H234v-7.2h1.1v1.3
		c0.2-0.4,0.4-0.8,0.8-1c0.4-0.3,0.8-0.5,1.3-0.5C237.6,190.3,237.9,190.4,238.2,190.5z"/>
	<path class="st6" d="M239.3,187.6h1.1v10.2h-1.1V187.6z"/>
	<path class="st6" d="M248,191.5c0.5,0.7,0.8,1.7,0.8,3h-5.7c0.1,0.8,0.3,1.5,0.7,1.9s0.9,0.7,1.6,0.7c0.6,0,1.1-0.1,1.4-0.4
		c0.3-0.2,0.5-0.6,0.7-1.1h1.1c-0.2,0.7-0.5,1.3-1,1.7c-0.6,0.5-1.4,0.8-2.3,0.8c-1,0-1.9-0.3-2.5-1s-1-1.6-1-2.8
		c0-1.1,0.3-2,0.9-2.7c0.6-0.8,1.4-1.1,2.5-1.1C246.6,190.3,247.4,190.7,248,191.5z M243.9,191.9c-0.4,0.4-0.6,1-0.7,1.7h4.5
		c-0.1-1.5-0.9-2.3-2.3-2.3C244.8,191.3,244.3,191.5,243.9,191.9z"/>
	<path class="st6" d="M255.5,187.6h1.1v10.2h-1v-1.2c-0.5,0.9-1.3,1.4-2.4,1.4c-1.1,0-1.9-0.4-2.5-1.1c-0.5-0.7-0.8-1.6-0.8-2.7
		c0-1.1,0.3-1.9,0.8-2.6c0.6-0.8,1.4-1.2,2.4-1.2s1.8,0.5,2.4,1.5V187.6z M251.6,192.1c-0.4,0.5-0.5,1.2-0.5,2
		c0,0.9,0.2,1.6,0.5,2.1c0.4,0.6,1,0.9,1.8,0.9c0.7,0,1.3-0.3,1.7-0.8s0.5-1.2,0.5-2v-0.1c0-0.8-0.2-1.5-0.6-2
		c-0.4-0.5-0.9-0.8-1.6-0.8C252.6,191.2,252,191.5,251.6,192.1z"/>
	<path class="st6" d="M263.8,191.8v-1.2h1.1v6.7c0,2.3-1.1,3.5-3.3,3.5c-1,0-1.7-0.2-2.2-0.6c-0.5-0.4-0.8-1-1-1.8h1.1
		c0.1,0.5,0.3,0.9,0.6,1.1c0.3,0.2,0.8,0.4,1.5,0.4c1.5,0,2.2-0.8,2.2-2.4v-1.3c-0.5,1-1.3,1.5-2.4,1.5c-1,0-1.8-0.3-2.4-1
		c-0.6-0.7-0.9-1.5-0.9-2.6s0.3-1.9,0.9-2.6c0.6-0.7,1.4-1.1,2.4-1.1C262.5,190.3,263.3,190.8,263.8,191.8z M259.8,192
		c-0.4,0.5-0.6,1.1-0.6,1.9c0,0.8,0.2,1.4,0.5,1.9c0.4,0.5,1,0.8,1.8,0.8c0.7,0,1.3-0.3,1.7-0.8s0.6-1.1,0.6-1.9
		c0-0.8-0.2-1.5-0.6-1.9c-0.4-0.5-1-0.8-1.7-0.8S260.2,191.5,259.8,192z"/>
	<path class="st6" d="M272.3,191.5c0.5,0.7,0.8,1.7,0.8,3h-5.7c0.1,0.8,0.3,1.5,0.7,1.9s0.9,0.7,1.6,0.7c0.6,0,1.1-0.1,1.4-0.4
		c0.3-0.2,0.5-0.6,0.7-1.1h1.1c-0.2,0.7-0.5,1.3-1,1.7c-0.6,0.5-1.4,0.8-2.3,0.8c-1,0-1.9-0.3-2.5-1s-1-1.6-1-2.8
		c0-1.1,0.3-2,0.9-2.7c0.6-0.8,1.4-1.1,2.5-1.1C270.8,190.3,271.7,190.7,272.3,191.5z M268.1,191.9c-0.4,0.4-0.6,1-0.7,1.7h4.5
		c-0.1-1.5-0.9-2.3-2.3-2.3C269,191.3,268.5,191.5,268.1,191.9z"/>
	<path class="st6" d="M278.6,190.5v1.1c-0.3-0.1-0.7-0.2-1.1-0.2c-0.6,0-1,0.2-1.4,0.7s-0.6,1-0.6,1.7v3.8h-1.1v-7.2h1.1v1.3
		c0.2-0.4,0.4-0.8,0.8-1c0.4-0.3,0.8-0.5,1.3-0.5C278,190.3,278.3,190.4,278.6,190.5z"/>
</g>
</svg>
