<?xml version="1.0" encoding="UTF-8"?>
<svg width="246px" height="404px" viewBox="0 0 246 404" version="1.1" xmlns="http://www.w3.org/2000/svg" xmlns:xlink="http://www.w3.org/1999/xlink">
    <!-- Generator: Sketch 58 (84663) - https://sketch.com -->
    <title>编组</title>
    <desc>Created with Sketch.</desc>
    <defs>
        <rect id="path-1" x="19" y="0" width="202" height="396" rx="16"></rect>
        <filter x="-2.7%" y="-1.4%" width="105.4%" height="103.3%" filterUnits="objectBoundingBox" id="filter-2">
            <feOffset dx="0" dy="2" in="SourceAlpha" result="shadowOffsetOuter1"></feOffset>
            <feGaussianBlur stdDeviation="1.5" in="shadowOffsetOuter1" result="shadowBlurOuter1"></feGaussianBlur>
            <feColorMatrix values="0 0 0 0 0   0 0 0 0 0   0 0 0 0 0  0 0 0 0.2 0" type="matrix" in="shadowBlurOuter1" result="shadowMatrixOuter1"></feColorMatrix>
            <feOffset dx="0" dy="0" in="SourceAlpha" result="shadowOffsetOuter2"></feOffset>
            <feGaussianBlur stdDeviation="1.5" in="shadowOffsetOuter2" result="shadowBlurOuter2"></feGaussianBlur>
            <feColorMatrix values="0 0 0 0 0   0 0 0 0 0   0 0 0 0 0  0 0 0 0.25 0" type="matrix" in="shadowBlurOuter2" result="shadowMatrixOuter2"></feColorMatrix>
            <feMerge>
                <feMergeNode in="shadowMatrixOuter1"></feMergeNode>
                <feMergeNode in="shadowMatrixOuter2"></feMergeNode>
            </feMerge>
        </filter>
        <rect id="path-3" x="0" y="0" width="183" height="325" rx="6"></rect>
        <polygon id="path-5" points="1.06395349 21.8614865 181.936047 21.8614865 181.936047 22.8614865 1.06395349 22.8614865"></polygon>
        <polygon id="path-7" points="1.85477278e-05 0.0287777108 26.966885 0.0287777108 26.966885 30.9924181 1.85477278e-05 30.9924181"></polygon>
        <rect id="path-9" x="0" y="127" width="240" height="44" rx="2"></rect>
        <filter x="-2.3%" y="-12.5%" width="104.6%" height="129.5%" filterUnits="objectBoundingBox" id="filter-10">
            <feOffset dx="0" dy="2" in="SourceAlpha" result="shadowOffsetOuter1"></feOffset>
            <feGaussianBlur stdDeviation="1.5" in="shadowOffsetOuter1" result="shadowBlurOuter1"></feGaussianBlur>
            <feColorMatrix values="0 0 0 0 0   0 0 0 0 0   0 0 0 0 0  0 0 0 0.173997962 0" type="matrix" in="shadowBlurOuter1" result="shadowMatrixOuter1"></feColorMatrix>
            <feOffset dx="0" dy="0" in="SourceAlpha" result="shadowOffsetOuter2"></feOffset>
            <feGaussianBlur stdDeviation="1.5" in="shadowOffsetOuter2" result="shadowBlurOuter2"></feGaussianBlur>
            <feColorMatrix values="0 0 0 0 0   0 0 0 0 0   0 0 0 0 0  0 0 0 0.154495018 0" type="matrix" in="shadowBlurOuter2" result="shadowMatrixOuter2"></feColorMatrix>
            <feMerge>
                <feMergeNode in="shadowMatrixOuter1"></feMergeNode>
                <feMergeNode in="shadowMatrixOuter2"></feMergeNode>
            </feMerge>
        </filter>
    </defs>
    <g id="页面-1" stroke="none" stroke-width="1" fill="none" fill-rule="evenodd">
        <g id="2.2微信注册页-点击其它登录方式滑动" transform="translate(-617.000000, -336.000000)">
            <g id="编组" transform="translate(620.000000, 339.000000)">
                <g id="Rectangle">
                    <use fill="black" fill-opacity="1" filter="url(#filter-2)" xlink:href="#path-1"></use>
                    <use fill="#FFFFFF" fill-rule="evenodd" xlink:href="#path-1"></use>
                </g>
                <rect id="Rectangle" stroke="#E5E5E5" fill="#FFFFFF" fill-rule="nonzero" x="103.5" y="15.5" width="35" height="5" rx="2.5"></rect>
                <ellipse id="Oval" stroke="#E5E5E5" fill="#FFFFFF" fill-rule="nonzero" cx="119.0625" cy="375" rx="14.0625" ry="15"></ellipse>
                <g id="Bitmap" transform="translate(29.000000, 28.000000)">
                    <mask id="mask-4" fill="white">
                        <use xlink:href="#path-3"></use>
                    </mask>
                    <rect stroke="#E5E5E5" x="0.5" y="0.5" width="182" height="324" rx="6"></rect>
                    <mask id="mask-6" fill="white">
                        <use xlink:href="#path-5"></use>
                    </mask>
                    <use id="Mask" fill="#E5E5E5" fill-rule="nonzero" xlink:href="#path-5"></use>
                </g>
                <rect id="Rectangle-Copy-2" fill="#F7F8FA" fill-rule="nonzero" x="30" y="135" width="181" height="85"></rect>
                <rect id="Rectangle-Copy-2" fill="#F7F8FA" fill-rule="nonzero" x="30" y="240" width="181" height="85"></rect>
                <g id="Group-14" transform="translate(45.000000, 71.000000)">
                    <path d="M12.1482949,25 L12.1482949,25.5101518 L13.1642309,25.5101518 L13.1642309,27.3702692 L12,27.3702692 L12,27.8805073 L13.1642309,27.8805073 L13.1642309,31 L13.7013459,31 L13.7013459,27.8805073 L14.9857155,27.8805073 L14.9857155,30.9345163 L16,30.9345163 L16,30.4241919 L15.5228305,30.4241919 L15.5228305,25 L12.1482949,25 Z M13.7013459,27.3702692 L14.9857155,27.3702692 L14.9857155,25.5101518 L13.7013459,25.5101518 L13.7013459,27.3702692 Z" id="Fill-1" fill="#000000"></path>
                    <polygon id="Fill-2" fill="#000000" points="6 28.8565005 9 28.8565005 9 28.1434995 6 28.1434995"></polygon>
                    <g id="Group-13">
                        <mask id="mask-8" fill="white">
                            <use xlink:href="#path-7"></use>
                        </mask>
                        <g id="Clip-4"></g>
                        <path d="M4.12864808,26.3835211 L4.90779094,26.3835211 L4.90779094,25.0724639 L4.12864808,25.0724639 L4.12864808,26.3835211 Z M4.12864808,28.2020633 L4.90779094,28.2020633 L4.90779094,26.8805482 L4.12864808,26.8805482 L4.12864808,28.2020633 Z M3.57237282,28.434003 C3.57237282,29.4380482 3.49052613,30.200256 3.32212892,30.8755331 C3.30444251,30.9380934 3.32354007,30.9549006 3.35656098,30.9549006 L3.91434146,30.9549006 C4.10061324,30.0271416 4.12497909,29.2574639 4.12808362,28.698997 L4.90779094,28.698997 L4.90779094,30.4156687 L4.35414983,30.4156687 C4.32714983,30.4156687 4.30626481,30.4331295 4.32056446,30.4714127 L4.47296864,30.9678795 L5.46312544,30.9678795 L5.46312544,24.520253 L3.57237282,24.520253 L3.57237282,28.434003 Z" id="Fill-3" fill="#000000" mask="url(#mask-8)"></path>
                        <path d="M8.20616551,26.7585931 C8.33947213,26.9762467 8.48293902,27.166075 8.63110976,27.3328401 L6.80997387,27.3328401 C6.95137108,27.1709304 7.08815854,26.9820358 7.21572648,26.7585931 L8.20616551,26.7585931 Z M8.88728049,26.7585931 L9.63415505,26.7585931 L9.63415505,26.2616593 L7.45778571,26.2616593 C7.52345122,26.102831 7.58262544,25.9326111 7.63634321,25.7481051 L9.4977439,25.7481051 L9.4977439,25.251078 L8.95247561,25.251078 C9.04316551,24.944066 9.15031882,24.5816834 9.15662195,24.5606744 C9.16744077,24.5239786 9.1479669,24.5097858 9.12397735,24.5097858 L8.65030139,24.5097858 L8.43072648,25.251078 L7.761277,25.251078 C7.8237439,24.9637678 7.87812021,24.6455509 7.92760453,24.2884907 C7.93334321,24.2471262 7.91095296,24.2389093 7.88329443,24.2389093 L7.34414111,24.2389093 C7.2890122,24.6183792 7.23134321,24.9453732 7.15749303,25.251078 L6.82907143,25.251078 L6.60959059,24.5097858 L6.13591463,24.5097858 C6.11192509,24.5097858 6.09245122,24.5239786 6.10327003,24.5606744 C6.10947909,24.5816834 6.2166324,24.944066 6.30741638,25.251078 L5.77644774,25.251078 L5.77644774,25.7481051 L7.01647213,25.7481051 C6.96604704,25.905066 6.89200871,26.0898521 6.81270209,26.2616593 L5.64003659,26.2616593 L5.64003659,26.7585931 L6.52087631,26.7585931 C6.16573693,27.2589816 5.78613763,27.489334 5.63467422,27.5813069 L5.63467422,28.1497648 C5.63467422,28.1784304 5.65753484,28.2088702 5.74803659,28.1577949 C5.91267073,28.0651684 6.08840592,27.9603099 6.26639895,27.8297738 L8.33853136,27.8297738 L8.3210331,28.5739605 L6.68513415,28.5739605 L6.70997038,28.1290358 C6.70997038,28.1098009 6.69595296,28.0954214 6.67600871,28.0954214 L6.15284843,28.0954214 L6.10016551,29.0373732 C6.10016551,29.0566081 6.114277,29.0709877 6.13412718,29.0709877 L8.95652091,29.0709877 L8.95652091,30.4147256 L7.68451045,30.4147256 C7.65751045,30.4147256 7.63662544,30.4320931 7.65092509,30.4702828 L7.80332927,30.9669364 L9.56848955,30.9669364 L9.56848955,28.5739605 L8.87759059,28.5739605 L8.90026307,27.6076383 C9.15869164,27.8461142 9.42088328,28.0235238 9.65927352,28.1577949 C9.74977526,28.2088702 9.77254181,28.1785238 9.77254181,28.1498581 L9.77254181,27.5813069 C9.62126655,27.489334 9.24223171,27.2585148 8.88728049,26.7585931 L8.88728049,26.7585931 Z" id="Fill-5" fill="#000000" mask="url(#mask-8)"></path>
                        <path d="M12.847522,29.071912 C12.8372676,29.079662 12.3181526,29.4700566 11.8156892,29.8479392 L11.8156892,26.2582886 L10.3859122,26.2582886 L10.3859122,26.8657765 L11.2078599,26.8657765 L11.2078599,30.3050024 C11.0119923,30.4523458 10.8792502,30.5522554 10.8792502,30.5522554 L11.2149157,30.9924181 L12.9026509,29.7232855 L12.9026509,29.0978699 C12.9026509,29.0679904 12.8694418,29.0554783 12.847522,29.071912" id="Fill-6" fill="#000000" mask="url(#mask-8)"></path>
                        <path d="M11.2885495,25.7145654 L11.9572463,25.7145654 C11.9868805,25.7145654 11.9990164,25.6826316 11.9859397,25.6628364 C11.9738038,25.6443485 11.1423544,24.3840864 11.1423544,24.3840864 L10.4735634,24.3840864 C10.4481627,24.3840864 10.4299118,24.4131256 10.4438352,24.434228 C10.4577585,24.4554238 11.2885495,25.7145654 11.2885495,25.7145654" id="Fill-7" fill="#000000" mask="url(#mask-8)"></path>
                        <polygon id="Fill-8" fill="#000000" mask="url(#mask-8)" points="18.1418362 25.2611717 22.9713554 25.2611717 22.9713554 24.6537771 18.1418362 24.6537771"></polygon>
                        <path d="M19.8934401,27.556647 L23.6515202,27.556647 L23.6515202,26.9492524 L17.4615585,26.9492524 L17.4615585,27.556647 L19.1789279,27.556647 C18.8241648,28.4809512 17.9340115,30.8008157 17.9278965,30.8175295 C17.9182066,30.8445145 17.9359871,30.8644964 17.9594122,30.8644964 L23.2984505,30.8644964 C23.3236631,30.8644964 23.3381509,30.8398458 23.3292136,30.8163157 C23.323569,30.801656 22.5331369,28.7390355 22.5331369,28.7390355 L21.8685794,28.7390355 C21.8432728,28.7390355 21.8282206,28.7633127 21.8366875,28.785162 C21.8450603,28.8071982 22.3999244,30.2571018 22.3999244,30.2571018 L18.8599139,30.2571018 L19.8934401,27.556647 Z" id="Fill-9" fill="#000000" mask="url(#mask-8)"></path>
                        <path d="M25.1788735,8.83676476 C24.0500477,7.69434006 22.4767098,6.97443042 20.7276366,6.97424367 C19.2156366,6.97424367 17.913992,7.4916262 16.777546,8.41014127 C16.2820443,8.81052681 15.7623648,9.28990633 15.1086261,9.92017741 C14.7838735,10.2331654 5.36943449,19.2999184 5.36943449,19.2999184 C5.86296063,19.3696684 6.54172369,19.3904907 7.14691882,19.3942256 C7.71391882,19.3977738 18.5307585,19.3967467 18.9835495,19.3967467 C19.8949641,19.3967467 20.4880233,19.3957196 21.1251105,19.3494997 C22.586215,19.2436142 23.9665077,18.7118521 25.0822568,17.624331 C27.5599537,15.209319 27.597208,11.2898732 25.1788735,8.83676476 M23.3693091,15.8866503 C22.8891418,16.3582798 22.0326679,16.8938702 20.6266923,16.9413039 C19.9765286,16.9632467 19.21733,16.9656744 18.8699049,16.9656744 C18.49087,16.9656744 15.1476679,16.9656744 11.3153613,16.9656744 C14.063999,14.3160148 16.4616366,12.0046473 16.7336122,11.7425479 C16.9828213,11.5022979 17.5432359,10.9701623 18.0266017,10.5382166 C19.0876923,9.58982199 20.0431348,9.39896657 20.7186052,9.40522259 C21.7772498,9.41512018 22.7400303,9.84417139 23.428201,10.536816 C24.9003125,12.030325 24.8655042,14.4170449 23.3693091,15.8866503" id="Fill-10" fill="#00A3FF" mask="url(#mask-8)"></path>
                        <path d="M9.98949199,8.25372199 C8.88286829,7.43175512 7.64387875,6.97226416 6.23931429,6.97421875 C4.49024111,6.97421875 2.91680906,7.69422801 1.78798328,8.83674608 C-0.630257143,11.2898545 -0.593002787,15.2093937 1.88469408,17.6243123 C2.87946063,18.5939027 4.08458258,19.121463 5.36976376,19.2995262 L7.79374286,16.9650021 C7.40181951,16.9634148 6.83933519,16.9580925 6.34016446,16.9412852 C4.93428293,16.8938515 4.07780906,16.3583545 3.59754774,15.8866316 C2.10135261,14.4170262 2.06654425,12.0303063 3.53874983,10.5367973 C4.22692056,9.84415271 5.18970105,9.41510151 6.24825157,9.40529729 C6.91158606,9.40258946 7.81189965,9.59381837 8.82915052,10.430725 C9.31477422,10.8302702 10.3929868,11.7710081 10.8660042,12.1943636 C10.8900878,12.2159328 10.9190634,12.2178937 10.9472864,12.1949238 L12.6163003,10.5786286 C12.6451819,10.5508033 12.6434885,10.5132672 12.6149833,10.4876828 C11.8123213,9.76749307 10.67437,8.7598997 9.98949199,8.25372199" id="Fill-11" fill="#00C8DC" mask="url(#mask-8)"></path>
                        <path d="M21.3838777,5.57124157 C20.2321913,2.34247952 17.1309544,0.0287777108 13.4834143,0.0287777108 C9.29935505,0.0287777108 5.83206585,3.08246446 5.20410418,7.06036205 C5.54061638,7.00405783 5.88634808,6.97427169 6.23932369,6.97427169 C6.73049791,6.97361807 7.20097526,7.03048253 7.65310767,7.13851566 C7.66195087,7.14028976 7.67079408,7.14131687 7.67954321,7.14346446 C8.24644913,4.45776265 10.6386303,2.46274458 13.4834143,2.46274458 C15.8526408,2.46274458 17.9312645,3.88118133 18.8682679,5.89095241 C18.883038,5.92260602 18.9079683,5.93306386 18.9335571,5.92615422 C19.6382854,5.73389819 20.4832819,5.62213012 21.2993969,5.68188916 C21.3788916,5.68777169 21.4094666,5.6433259 21.3838777,5.57124157" id="Fill-12" fill="#006EFF" mask="url(#mask-8)"></path>
                    </g>
                </g>
                <g id="Rectangle">
                    <use fill="black" fill-opacity="1" filter="url(#filter-10)" xlink:href="#path-9"></use>
                    <use fill="#FFFFFF" fill-rule="evenodd" xlink:href="#path-9"></use>
                </g>
                <text id="腾讯云助手" font-family="PingFangSC-Regular, PingFang SC" font-size="12" font-weight="normal" fill="#333333">
                    <tspan x="80" y="83">腾讯云助手</tspan>
                </text>
                <path d="M77.14,323.96 L75.81,323.96 L75.61,323.24 L76.91,323.27 C77.16,323.27 77.29,323.12 77.29,322.82 L77.29,315.92 L70.71,315.92 L70.71,323.99 L69.99,323.99 L69.99,315.22 L78.01,315.22 L78.01,322.98 C78.01,323.63 77.72,323.96 77.14,323.96 Z M71.44,317.07 L76.57,317.07 L76.57,317.74 L71.44,317.74 L71.44,317.07 Z M72,318.82 L76.01,318.82 L76.01,322.04 L72,322.04 L72,318.82 Z M75.31,321.4 L75.31,319.47 L72.7,319.47 L72.7,321.4 L75.31,321.4 Z M81.74,316.06 L80.13,316.06 L80.13,315.44 L83.56,315.44 C83.47,315.22 83.37,315.03 83.27,314.86 L84.04,314.74 C84.14,314.95 84.25,315.18 84.35,315.44 L87.87,315.44 L87.87,316.06 L86.24,316.06 L85.85,316.85 L88.34,316.85 L88.34,317.48 L79.66,317.48 L79.66,316.85 L82.06,316.85 L81.74,316.06 Z M82.81,316.85 L85.1,316.85 L85.49,316.06 L82.49,316.06 L82.81,316.85 Z M80.8,318.07 L87.2,318.07 L87.2,321.03 L80.8,321.03 L80.8,318.07 Z M86.5,320.47 L86.5,319.81 L81.5,319.81 L81.5,320.47 L86.5,320.47 Z M81.5,319.28 L86.5,319.28 L86.5,318.64 L81.5,318.64 L81.5,319.28 Z M80.4,321.5 L81.1,321.64 C80.86,322.44 80.54,323.13 80.12,323.71 L79.5,323.32 C79.91,322.77 80.21,322.16 80.4,321.5 Z M85.37,323.84 L82.93,323.84 C82.25,323.84 81.92,323.53 81.92,322.91 L81.92,321.59 L82.66,321.59 L82.66,322.76 C82.66,323.04 82.82,323.19 83.14,323.19 L85.24,323.19 C85.46,323.19 85.61,323.15 85.69,323.07 C85.81,322.97 85.89,322.66 85.93,322.16 L86.61,322.38 C86.54,323.07 86.4,323.49 86.2,323.65 C86.02,323.77 85.75,323.84 85.37,323.84 Z M84.11,321.22 C84.53,321.64 84.86,322.02 85.08,322.35 L84.48,322.77 C84.24,322.41 83.92,322.02 83.5,321.6 L84.11,321.22 Z M87.25,321.41 C87.81,322.08 88.25,322.66 88.55,323.16 L87.95,323.58 C87.63,323.03 87.21,322.43 86.67,321.77 L87.25,321.41 Z M92.77,315.92 C93.68,316.97 94.38,317.89 94.86,318.67 L94.25,319.09 C93.74,318.25 93.05,317.32 92.17,316.29 L92.77,315.92 Z M96.21,320.82 C95.55,322.03 94.49,323.06 93.03,323.9 L92.55,323.31 C94.25,322.33 95.38,321.11 95.93,319.63 C96.35,318.38 96.56,316.79 96.57,314.86 L97.32,314.86 C97.32,316.76 97.11,318.36 96.69,319.68 C96.64,319.83 96.59,319.98 96.53,320.13 C97.35,321.17 98.04,322.21 98.6,323.25 L98.05,323.8 C97.58,322.86 96.97,321.87 96.21,320.82 Z M90.29,322.86 L90.05,322.18 C90.23,322.04 90.32,321.86 90.32,321.63 L90.32,315.12 L91.06,315.12 L91.06,321.8 C91.84,321.48 92.61,321.09 93.38,320.63 L93.58,321.33 C92.56,321.92 91.46,322.43 90.29,322.86 Z M103.16,314.83 L103.9,314.83 L103.9,317.92 L107.61,317.92 L107.61,318.62 L103.9,318.62 L103.9,322.9 L108.46,322.9 L108.46,323.6 L99.56,323.6 L99.56,322.9 L103.16,322.9 L103.16,314.83 Z M118.34,317.89 L118.34,319.79 L117.76,319.79 L117.76,320.21 C117.42,321.01 116.86,321.71 116.1,322.3 C116.79,322.71 117.63,323.06 118.62,323.34 L118.2,323.98 C117.1,323.65 116.19,323.24 115.47,322.74 C114.65,323.24 113.64,323.64 112.46,323.96 L112.08,323.29 C113.17,323.03 114.1,322.7 114.86,322.28 C114.18,321.7 113.69,321.02 113.4,320.25 L112.99,320.25 L112.99,319.79 L112.51,319.79 L112.51,317.89 L116.4,317.89 C116.77,317.3 117.08,316.66 117.34,315.97 L118.01,316.22 C117.73,316.88 117.44,317.44 117.14,317.89 L118.34,317.89 Z M114.1,320.25 C114.4,320.87 114.86,321.41 115.49,321.89 C116.15,321.42 116.66,320.87 117.01,320.25 L114.1,320.25 Z M113.2,319.59 L117.64,319.59 L117.64,318.58 L113.2,318.58 L113.2,319.59 Z M115.27,316.1 C115.55,316.58 115.77,317.02 115.93,317.42 L115.33,317.64 C115.15,317.17 114.92,316.71 114.65,316.26 L115.27,316.1 Z M113.52,316.14 C113.8,316.61 114.02,317.04 114.17,317.43 L113.57,317.65 C113.39,317.19 113.17,316.75 112.9,316.31 L113.52,316.14 Z M117.94,314.88 L118.28,315.48 C116.87,315.75 114.99,315.89 112.65,315.89 L112.44,315.24 C114.65,315.24 116.48,315.12 117.94,314.88 Z M110.59,323.89 L109.74,323.89 L109.59,323.2 C109.85,323.23 110.1,323.25 110.34,323.25 C110.52,323.25 110.62,323.16 110.62,322.98 L110.62,320.48 C110.28,320.61 109.95,320.73 109.61,320.84 L109.44,320.13 C109.84,320.03 110.24,319.9 110.62,319.76 L110.62,317.36 L109.51,317.36 L109.51,316.67 L110.62,316.67 L110.62,314.84 L111.33,314.84 L111.33,316.67 L112.26,316.67 L112.26,317.36 L111.33,317.36 L111.33,319.46 C111.63,319.32 111.92,319.16 112.22,319 L112.22,319.73 C111.93,319.89 111.63,320.04 111.33,320.18 L111.33,323.16 C111.33,323.64 111.08,323.89 110.59,323.89 Z M121.87,318.79 L121.87,323.96 L121.15,323.96 L121.15,318.77 C120.79,319.83 120.3,320.78 119.69,321.63 L119.37,320.82 C120.19,319.84 120.78,318.73 121.13,317.48 L119.58,317.48 L119.58,316.79 L121.15,316.79 L121.15,314.84 L121.87,314.84 L121.87,316.79 L123.19,316.79 L123.19,317.48 L121.87,317.48 L121.87,318.05 C122.37,318.53 122.88,319.08 123.39,319.68 L122.98,320.29 C122.55,319.67 122.18,319.17 121.87,318.79 Z M127.23,316.13 L124.53,316.13 C124.65,317.67 125.07,319.05 125.8,320.27 C126.52,319.07 126.99,317.69 127.23,316.13 Z M125.38,320.91 C124.49,319.47 123.97,317.88 123.83,316.13 L123.43,316.13 L123.43,315.44 L127.93,315.44 L127.93,316.12 C127.64,317.99 127.07,319.6 126.23,320.94 C126.87,321.84 127.67,322.66 128.65,323.39 L128.16,323.97 C127.22,323.23 126.43,322.42 125.81,321.55 C125.11,322.5 124.25,323.3 123.24,323.96 L122.78,323.38 C123.83,322.68 124.7,321.86 125.38,320.91 Z M130.86,321.81 C131.08,321.81 131.27,321.9 131.41,322.09 C131.54,322.27 131.61,322.5 131.61,322.79 C131.61,323.23 131.48,323.62 131.22,323.96 C130.96,324.28 130.61,324.5 130.19,324.61 L130.19,324.12 C130.45,324.03 130.66,323.88 130.82,323.68 C130.97,323.47 131.04,323.25 131.04,323.01 C131,323.03 130.92,323.05 130.82,323.05 C130.65,323.05 130.51,322.99 130.39,322.87 C130.27,322.75 130.21,322.6 130.21,322.43 C130.21,322.24 130.27,322.09 130.39,321.98 C130.51,321.86 130.66,321.81 130.86,321.81 Z M142.03,314.72 C142.36,315.22 142.68,315.77 142.98,316.37 L142.33,316.69 C142.03,316.07 141.71,315.52 141.37,315.04 L142.03,314.72 Z M145.37,317.41 L142.8,317.41 L142.8,318.38 C142.79,318.88 142.76,319.34 142.71,319.76 L145.37,319.76 L145.37,317.41 Z M145.37,320.45 L142.61,320.45 C142.49,321.07 142.32,321.6 142.11,322.05 C141.69,322.9 141.01,323.56 140.06,324.03 L139.64,323.37 C140.54,322.91 141.18,322.29 141.54,321.51 C141.67,321.19 141.78,320.84 141.86,320.45 L139.55,320.45 L139.55,319.76 L141.97,319.76 C142.03,319.33 142.06,318.87 142.07,318.38 L142.07,317.41 L139.96,317.41 L139.96,316.72 L145.01,316.72 C145.39,316.1 145.71,315.43 145.99,314.72 L146.76,315 C146.48,315.64 146.17,316.22 145.83,316.72 L148.07,316.72 L148.07,317.41 L146.11,317.41 L146.11,319.76 L148.46,319.76 L148.46,320.45 L146.11,320.45 L146.11,323.95 L145.37,323.95 L145.37,320.45 Z M152.3,315.23 L157.89,315.23 L157.89,315.9 L155.17,315.9 C155.07,316.35 154.96,316.77 154.82,317.16 L158.33,317.16 L158.33,317.85 L156.23,317.85 C156.75,318.66 157.55,319.3 158.63,319.76 L158.32,320.39 C156.99,319.74 156.05,318.89 155.5,317.85 L154.54,317.85 C154.44,318.05 154.34,318.23 154.24,318.41 C153.73,319.18 152.97,319.87 151.97,320.48 L151.52,319.91 C152.47,319.39 153.18,318.76 153.66,318.04 C153.7,317.97 153.74,317.91 153.78,317.85 L151.84,317.85 L151.84,317.16 L154.1,317.16 C154.26,316.76 154.37,316.34 154.45,315.9 L152.3,315.9 L152.3,315.23 Z M152.91,320.51 L153.51,320.8 C153.14,321.82 152.71,322.71 152.22,323.46 L151.63,323.04 C152.12,322.33 152.55,321.49 152.91,320.51 Z M150.17,314.98 C150.79,315.41 151.32,315.84 151.74,316.28 L151.25,316.77 C150.87,316.36 150.34,315.92 149.67,315.46 L150.17,314.98 Z M149.93,317.37 C150.57,317.86 151.1,318.35 151.53,318.84 L151.04,319.33 C150.65,318.87 150.12,318.37 149.44,317.85 L149.93,317.37 Z M150.84,320.13 L151.47,320.38 C151.07,321.64 150.62,322.83 150.14,323.95 L149.47,323.65 C149.99,322.51 150.45,321.33 150.84,320.13 Z M154.22,324.01 L153.29,324.01 L153.14,323.33 C153.43,323.36 153.71,323.38 153.97,323.38 C154.17,323.38 154.28,323.24 154.28,322.98 L154.28,319.32 L154.97,319.32 L154.97,323.15 C154.97,323.72 154.72,324.01 154.22,324.01 Z M157.31,320.27 C157.78,321.16 158.19,322.11 158.53,323.12 L157.89,323.4 C157.52,322.3 157.12,321.32 156.68,320.48 L157.31,320.27 Z M155.99,320.63 C156.41,321.51 156.77,322.45 157.08,323.45 L156.44,323.74 C156.12,322.64 155.77,321.68 155.38,320.84 L155.99,320.63 Z M168.11,316.32 L168.11,323.85 L167.41,323.85 L167.41,323.18 L165.53,323.18 L165.53,323.85 L164.84,323.85 L164.84,316.32 L168.11,316.32 Z M165.53,322.49 L167.41,322.49 L167.41,317.01 L165.53,317.01 L165.53,322.49 Z M161.16,314.86 L161.88,314.86 L161.88,316.88 L163.92,316.88 C163.92,320 163.87,321.93 163.77,322.67 C163.67,323.49 163.18,323.91 162.3,323.91 C162.15,323.91 161.9,323.89 161.54,323.87 L161.36,323.21 C161.68,323.23 161.96,323.25 162.2,323.25 C162.71,323.25 163.01,322.96 163.09,322.39 C163.15,321.87 163.19,320.26 163.21,317.58 L161.88,317.58 C161.84,320.53 161.18,322.68 159.9,324.04 L159.37,323.57 C160.53,322.32 161.13,320.32 161.16,317.58 L159.56,317.58 L159.56,316.88 L161.16,316.88 L161.16,314.86 Z" id="同意以上授权，并添加" fill="#FFFFFF" fill-rule="nonzero"></path>
                <path d="M36.9998572,38 C38.1043497,38 39,38.8954286 39,40 C39,41.1045714 38.1046354,42 36.9998572,42 C35.8953646,42 35,41.1048571 35,40 C35,38.8954286 35.8956503,38 36.9998572,38 L36.9998572,38 Z" id="Shape" fill="#000000"></path>
                <path d="M43,38 C44.1045714,38 45,38.8954286 45,40 C45,41.1045714 44.1045714,42 43,42 C41.8954286,42 41,41.1048571 41,40 C41,38.8954286 41.8954286,38 43,38 L43,38 Z" id="Shape" fill="#000000"></path>
                <path d="M48.9998572,38 C50.1045075,38 51,38.8954286 51,40 C51,41.1045714 50.1045075,42 48.9998572,42 C47.8954926,42 47.0000001,41.1048571 47.0000001,40 C46.9997143,38.8954286 47.8952069,38 48.9998572,38 L48.9998572,38 Z" id="Shape" fill="#000000"></path>
                <path d="M55,38 C56.1045714,38 57,38.8954286 57,40 C57,41.1045714 56.1048571,42 55,42 C53.8954286,42 53,41.1048571 53,40 C53,38.8954286 53.8954286,38 55,38 L55,38 Z" id="Shape" fill="#000000"></path>
                <path d="M62.75,40 C62.75,39.0335038 61.9664403,38.25 60.9998572,38.25 C60.0332462,38.25 59.2497501,39.0335175 59.2500001,40 C59.2500001,40.9667433 60.0332354,41.75 60.9998572,41.75 C61.9664403,41.75 62.75,40.9664962 62.75,40 Z" id="Shape" stroke="#000000" stroke-width="0.5"></path>
                <path d="M188,36.4910052 C188,36.2198305 188.22788,36 188.491005,36 L194,36 L194,42 L188.491005,42 C188.219831,42 188,41.7721195 188,41.5089948 L188,36.4910052 Z" id="Shape" fill="#000000"></path>
                <path d="M188.888889,35.25 C188.548697,35.25 188.25,35.61665 188.25,36.0908595 L188.25,41.9087769 C188.25,42.3833032 188.548666,42.75 188.888889,42.75 L203.111111,42.75 C203.451155,42.75 203.75,42.3831682 203.75,41.9087769 L203.75,36.0908595 C203.75,35.61665 203.451303,35.25 203.111111,35.25 L188.888889,35.25 Z" id="Shape" stroke="#000000" stroke-width="0.5"></path>
                <path d="M166.398539,39.2991396 L167.208453,39.2991396 C168.115734,39.2991396 168.677805,39.8497684 168.677805,40.733951 C168.677805,41.5704831 168.080328,42.1687624 167.239434,42.1687624 C166.416243,42.1687624 165.840894,41.6446062 165.770082,40.8292522 L165,40.8292522 C165.057535,42.1369954 165.951538,43 167.248285,43 C168.509626,43 169.49657,42.0205162 169.49657,40.7604236 C169.49657,39.7174057 168.969905,38.9973527 168.102456,38.8649901 L168.102456,38.780278 C168.801726,38.5790867 169.222173,37.9119788 169.222173,37.0013236 C169.222173,35.8894772 168.332596,35 167.217305,35 C166.000221,35 165.208011,35.8153541 165.128347,37.1389808 L165.902855,37.1389808 C165.969241,36.3183322 166.451649,35.8312376 167.186324,35.8312376 C167.921,35.8312376 168.412259,36.3500993 168.412259,37.1283918 C168.412259,37.9225678 167.898871,38.4837856 167.173047,38.4837856 L166.398539,38.4837856 L166.398539,39.2991396 Z M172.882275,43 C174.205576,43 175.112857,41.9410986 175.112857,40.3898081 C175.112857,38.8861681 174.263111,37.8325612 173.050454,37.8325612 C172.461828,37.8325612 172.010401,38.049636 171.700597,38.4837856 L171.629785,38.4837856 L171.811241,36.0324289 L174.749945,36.0324289 L174.749945,35.1800132 L171.18721,35.1800132 L170.837575,39.5109199 L171.585528,39.5109199 C171.846647,38.9655857 172.324629,38.6532098 172.904404,38.6532098 C173.740872,38.6532098 174.31622,39.3679682 174.31622,40.4162806 C174.31622,41.464593 173.745298,42.1634679 172.891126,42.1634679 C172.138748,42.1634679 171.589954,41.6128392 171.519141,40.7868961 L170.735782,40.7868961 C170.806594,42.1052283 171.674043,43 172.882275,43 Z M183.641292,42.2746525 C183.2474,42.2746525 182.98628,41.8140304 182.98628,41.109861 C182.98628,40.4056916 183.242974,39.950364 183.641292,39.950364 C184.039611,39.950364 184.291879,40.3951026 184.291879,41.109861 C184.291879,41.8087359 184.030759,42.2746525 183.641292,42.2746525 Z M183.641292,42.9523494 C184.437929,42.9523494 185,42.1899404 185,41.109861 C185,40.0297816 184.437929,39.2726671 183.641292,39.2726671 C182.844656,39.2726671 182.278159,40.0350761 182.278159,41.109861 C182.278159,42.1899404 182.844656,42.9523494 183.641292,42.9523494 Z M179.945784,38.7273329 C180.742421,38.7273329 181.304492,37.9649239 181.304492,36.8848445 C181.304492,35.8047651 180.742421,35.0476506 179.945784,35.0476506 C179.149148,35.0476506 178.582651,35.8100596 178.582651,36.8848445 C178.582651,37.9649239 179.149148,38.7273329 179.945784,38.7273329 Z M179.874972,42.8199868 L182.065723,39.2356056 L184.544147,35.1800132 L183.738659,35.1800132 L181.499225,38.8385175 L179.060633,42.8199868 L179.874972,42.8199868 Z M179.945784,38.049636 C179.551892,38.049636 179.290772,37.5890139 179.290772,36.8848445 C179.290772,36.180675 179.547466,35.7253475 179.945784,35.7253475 C180.344103,35.7253475 180.596371,36.170086 180.596371,36.8848445 C180.596371,37.5837194 180.335251,38.049636 179.945784,38.049636 Z" id="35-%" fill="#000000"></path>
                <text id="关注" font-family="PingFangSC-Regular, PingFang SC" font-size="14" font-weight="normal" fill="#00A4FF">
                    <tspan x="106" y="154">关注</tspan>
                </text>
                <text id="关注后可接收腾讯云重要通知" font-family="PingFangSC-Regular, PingFang SC" font-size="9" font-weight="normal" fill="#9B9B9B">
                    <tspan x="80" y="102">关注后可接收腾讯云重要通知</tspan>
                </text>
            </g>
        </g>
    </g>
</svg>