<?xml version="1.0" encoding="UTF-8"?>
<svg width="48px" height="48px" viewBox="0 0 48 48" version="1.1" xmlns="http://www.w3.org/2000/svg" xmlns:xlink="http://www.w3.org/1999/xlink">
    <!-- Generator: Sketch 56.3 (81716) - https://sketch.com -->
    <title>快速响应</title>
    <desc>Created with Sketch.</desc>
    <g id="快速响应" stroke="none" stroke-width="1" fill="none" fill-rule="evenodd">
        <g id="1541158294526-48x48" transform="translate(3.000000, 0.000000)">
            <path d="M3.70710678,7.70710678 L6.64283352,10.6428335 L5.95431427,11.3498173 C2.16013566,15.2457475 0,20.4512962 0,26 C0,37.5979797 9.4020203,47 21,47 C32.5979797,47 42,37.5979797 42,26 C42,20.2728506 39.697755,14.9140416 35.6845219,10.9878326 L34.9618294,10.2808113 L36.6061316,8.63650911 L34.95839,10.2842507 L34.2582126,9.71353923 C30.5391698,6.68216423 25.8999089,5 21,5 C15.9218389,5 11.1256315,6.80744258 7.3478343,10.0427003 L6.6447838,10.6447838 L3.70710678,7.70710678 Z" id="Combined-Shape" stroke="#334966" stroke-width="2"></path>
            <rect id="Rectangle-56" fill="#334966" fill-rule="nonzero" x="15" y="0" width="12" height="2"></rect>
            <rect id="Rectangle-56-Copy" fill="#334966" fill-rule="nonzero" x="20" y="0" width="2" height="5"></rect>
            <circle id="Oval-22" fill="#00A4FF" fill-rule="nonzero" cx="21" cy="26" r="10"></circle>
            <path d="M19.6378269,23.3263668 C20.0465965,23.1176891 20.5095544,23 21,23 C22.6568542,23 24,24.3431458 24,26 C24,27.6568542 22.6568542,29 21,29 C19.3431458,29 18,27.6568542 18,26 C18,25.5643512 18.0928598,25.1503909 18.2598657,24.7768328 L11.0659063,17.5828733 L12.4801198,16.1686598 L19.6378269,23.3263668 Z" id="Combined-Shape" fill="#334966" fill-rule="nonzero"></path>
            <path d="M5,26 L7,26 C7,33.7319865 13.2680135,40 21,40 C28.7319865,40 35,33.7319865 35,26 C35,18.2680135 28.7319865,12 21,12 L21,10 C29.836556,10 37,17.163444 37,26 C37,34.836556 29.836556,42 21,42 C12.163444,42 5,34.836556 5,26 Z" id="Combined-Shape" fill="#334966" fill-rule="nonzero"></path>
        </g>
    </g>
</svg>