<?xml version="1.0" encoding="UTF-8"?>
<svg width="32px" height="32px" viewBox="0 0 32 32" version="1.1" xmlns="http://www.w3.org/2000/svg" xmlns:xlink="http://www.w3.org/1999/xlink">
    <!-- Generator: Sketch 52.6 (67491) - http://www.bohemiancoding.com/sketch -->
    <title>中间件-32px</title>
    <desc>Created with Sketch.</desc>
    <g id="中间件-32px" stroke="none" stroke-width="1" fill="none" fill-rule="evenodd">
        <rect id="Rectangle-Copy" fill="#444444" opacity="0" x="0" y="0" width="32" height="32"></rect>
        <g id="image-4" transform="translate(2.000000, 2.000000)" fill="#888888" fill-rule="nonzero">
            <path d="M2,19 L2,23 L5,26 L23,26 L26,23 L26,5 L28,5 L28,24 L24,28 L4,28 L0,24 L0,19 L0,4 L4,0 L28,0 L28,2 L5,2 L2,5 L2,19 Z M21,13 L19,13 L19,9 L9,9 L9,11 L18,11 L18,13 L17,14 L19,14 L21,14 L21,16 L21,20 L19,20 L19,18 L19,16 L10,16 L10,14 L11,13 L9,13 L8,13 L7,13 L7,7 L21,7 L21,13 Z M13,13 L12,14 L15,14 L16,13 L13,13 Z M7,14 L9,14 L9,18 L14,18 L16,18 L19,22 L17,22 L15.5,20 L7,20 L7,14 Z" id="Combined-Shape"></path>
        </g>
    </g>
</svg>