<?xml version="1.0" encoding="UTF-8"?>
<svg width="48px" height="48px" viewBox="0 0 48 48" version="1.1" xmlns="http://www.w3.org/2000/svg" xmlns:xlink="http://www.w3.org/1999/xlink">
    <!-- Generator: Sketch 52.2 (67145) - http://www.bohemiancoding.com/sketch -->
    <title>团队-48x48</title>
    <desc>Created with Sketch.</desc>
    <g id="团队-48x48" stroke="none" stroke-width="1" fill="none" fill-rule="evenodd">
        <g id="自然的美妆效果-01" transform="translate(0.000000, 2.000000)" fill-rule="nonzero">
            <g id="Combined-Shape" transform="translate(0.000000, 22.000000)" fill="#334966">
                <path d="M11.252,0 C11.0841551,0.65340269 10.9994855,1.32538402 11,2 L4,2 C2.8954305,2 2,2.8954305 2,4 L2,18 L11,18 L11,20 L0,20 L0,4 C-2.705415e-16,1.790861 1.790861,0 4,0 L11.252,0 Z" id="Shape"></path>
            </g>
            <g id="Combined-Shape-2" transform="translate(36.000000, 22.000000)" fill="#334966">
                <path d="M0.748,0 L8,0 C10.209139,0 12,1.790861 12,4 L12,20 L1,20 L1,18 L10,18 L10,4 C10,2.8954305 9.1045695,2 8,2 L1,2 C1.00050386,1.32538469 0.91583438,0.653404692 0.748,0 Z" id="Shape"></path>
            </g>
            <path d="M35,44 L13,44 L13,24 C13.0038574,20.6878906 15.6878906,18.0038574 19,18 L29,18 C32.3121094,18.0038574 34.9961426,20.6878906 35,24 L35,44 Z M15,42 L33,42 L33,24 C33,21.790861 31.209139,20 29,20 L19,20 C16.790861,20 15,21.790861 15,24 L15,42 Z" id="Shape" fill="#334966"></path>
            <g id="Oval-14-Copy" transform="translate(3.000000, 10.000000)" fill="#00A4FF">
                <circle id="Oval" cx="5" cy="5" r="5"></circle>
            </g>
            <g id="Oval-14-Copy-2" transform="translate(35.000000, 10.000000)" fill="#00A4FF">
                <circle id="Oval" cx="5" cy="5" r="5"></circle>
            </g>
            <g id="Oval-14" transform="translate(16.000000, 0.000000)" fill="#334966">
                <path d="M8,16 C3.581722,16 0,12.418278 0,8 C0,3.581722 3.581722,8.8817842e-16 8,0 C12.418278,-8.8817842e-16 16,3.581722 16,8 C15.9950401,12.4162219 12.4162219,15.9950401 8,16 Z M8,2 C4.6862915,2 2,4.6862915 2,8 C2,11.3137085 4.6862915,14 8,14 C11.3137085,14 14,11.3137085 14,8 C13.9961426,4.6878906 11.3121094,2.00385738 8,2 Z" id="Shape"></path>
            </g>
        </g>
    </g>
</svg>