<?xml version="1.0" encoding="UTF-8"?>
<svg width="32px" height="32px" viewBox="0 0 32 32" version="1.1" xmlns="http://www.w3.org/2000/svg" xmlns:xlink="http://www.w3.org/1999/xlink">
    <!-- Generator: Sketch 52.6 (67491) - http://www.bohemiancoding.com/sketch -->
    <title>敏感数据处理-32px</title>
    <desc>Created with Sketch.</desc>
    <g id="敏感数据处理-32px" stroke="none" stroke-width="1" fill="none" fill-rule="evenodd">
        <rect id="Rectangle-Copy" fill="#444444" opacity="0" x="0" y="0" width="32" height="32"></rect>
        <g id="Group-2" transform="translate(3.000000, 2.000000)" fill="#00A4FF">
            <path d="M24,6 L24,15.2 C24,15.2 24,17.5 22.6,20 C20.8,23.4 17.5,25.7 13,26.9 C2.3,24.3 2,15.6 2,15.2 L2,2 L22,2 L24,2 L26,2 L26,0 L0,0 L0,15.2 C0,15.2 0.1,26 13,29 C25.9,26 26,15.2 26,15.2 L26,6 L24,6 Z" id="Shape" fill-rule="nonzero"></path>
            <g id="Group" transform="translate(3.000000, 4.800585)">
                <path d="M19.3951976,7.15834309 C18.6993897,8.63634543 17.6250553,10.2691298 16.5233594,11.2544647 L15.0730106,9.67628558 C15.9427705,8.87570098 16.4068353,8.32842827 17.0446592,7.15834309 C15.9427705,5.03981457 13.000715,2.90953946 10.6396148,2.90953946 C10.0017909,2.90953946 9.30598297,3.03270632 8.72614306,3.15587318 L7.79839919,1.49266745 C8.72614306,1.18475029 9.65388692,1 10.6396148,1 C14.4085743,1 17.6556778,3.46333723 19.3951976,7.15834309 Z" id="Shape" fill-rule="nonzero"></path>
                <path d="M11.6921684,14.9202153 C10.8224085,15.2281324 9.68332664,15.3166862 8.69759878,15.3166862 C4.9866233,15.3166862 1.73951976,12.8533489 0,9.15834309 C0.695807902,7.68034074 1.62355177,6.3870887 2.72524762,5.4017538 L4.5370235,6.26392184 C3.66726363,7.06450644 2.85548774,7.9882579 2.21766383,9.15834309 C3.89919959,12.2375146 5.96368993,13.3864409 8.97885751,13.3864409 C9.61668142,13.3864409 10.3124893,13.2632741 10.8923292,13.1401072 L11.6921684,14.9202153 Z" id="Shape" fill-rule="nonzero"></path>
                <path d="M14,8.1994154 L12,8.1994154 C12,7.0948459 11.1045695,6.1994154 10,6.1994154 L10,4.1994154 C12.209139,4.1994154 14,5.9902764 14,8.1994154 Z M5,8.1994154 L7,8.1994154 C7,9.3039849 7.8954305,10.1994154 9,10.1994154 L9,12.1994154 C6.790861,12.1994154 5,10.4085544 5,8.1994154 Z" id="Oval-94" fill-rule="nonzero"></path>
                <polygon id="Rectangle-195" transform="translate(8.872077, 7.793754) rotate(-45.000000) translate(-8.872077, -7.793754) " points="8.19148228 -0.935051641 10.1914823 -0.935051641 9.55267197 16.5225598 7.55267197 16.5225598"></polygon>
            </g>
        </g>
    </g>
</svg>