<?xml version="1.0" encoding="utf-8"?>
<!-- Generator: Adobe Illustrator 22.1.0, SVG Export Plug-In . SVG Version: 6.00 Build 0)  -->
<svg version="1.1" id="svgwrapper_svg" xmlns="http://www.w3.org/2000/svg" xmlns:xlink="http://www.w3.org/1999/xlink" x="0px"
	 y="0px" width="671.3px" height="361px" viewBox="0 0 671.3 361" style="enable-background:new 0 0 671.3 361;"
	 xml:space="preserve">
<style type="text/css">
	.st0{display:none;fill:none;stroke:#999999;}
	.st1{fill:#EAEBEC;}
	.st2{fill:none;stroke:#888888;}
	.st3{fill:#888888;}
	.st4{fill:none;stroke:#FF0000;stroke-width:15;stroke-opacity:0;}
	.st5{opacity:0.6;fill:#BBBBBB;enable-background:new    ;}
	.st6{fill:#FFFFFF;stroke:#E5E5E5;}
	.st7{fill:#00A4FF;}
	.st8{enable-background:new    ;}
	.st9{fill:#444444;}
</style>
<path class="st0" d="M166.4,209.5l28.6,11.3"/>
<g id="bottomgroup" transform="translate(0,0)">
	<g id="GrayRectGroup2" transform="translate(193,41)">
		<rect x="-6.7" y="-40" class="st1" width="485" height="360"/>
		<g transform="translate(10 10)">
		</g>
	</g>
</g>
<g id="middlegroup" transform="translate(0,0)">
	<g id="Link18" transform="translate(0,0)">
		<path class="st2" d="M159.7,180.5h21.1"/>
		<g transform="translate(0.5, 0)">
			<polygon class="st3" points="175.8,185 181.8,180.5 175.8,176 			"/>
		</g>
		<path class="st4" d="M159.7,180.5h21.1"/>
	</g>
</g>
<g id="ShadowBasicRect1" transform="translate(13,195)">
	<rect x="-4.7" y="-38" class="st5" width="153.4" height="50"/>
	<rect x="-6.7" y="-40" class="st6" width="153.4" height="50"/>
	<g transform="translate(20 9)">
		<g>
			<path id="OCR文字识别" class="st7" d="M22.3-11c-0.7,0-1.4-0.4-1.7-1H-4.7v-17h2v15h23.3c0.6-1,1.8-1.3,2.7-0.7
				c1,0.6,1.3,1.8,0.7,2.7C23.7-11.4,23.1-11,22.3-11z M13.3-26h2c1.1,0,2,0.9,2,2h-6C11.3-25.1,12.2-26,13.3-26z M15.3-21h-4
				c0-1.1,0.9-2,2-2h2v-1h2v3l0,0v1l0,0c0,1.1-0.9,2-2,2h-2c-1.1,0-2-0.9-2-2l0,0v-1h2v1h2L15.3-21L15.3-21z M3.3-28h3
				c1.1,0,2,0.9,2,2h-7C1.3-27.1,2.2-28,3.3-28z M1.3-18v-8h2v3h3v-3h2v8h-2v-3h-3v3H1.3z M21.3-34H-1.9c-0.6,1-1.8,1.3-2.7,0.7
				S-6-35-5.4-36s1.8-1.3,2.7-0.7c0.3,0.2,0.6,0.4,0.7,0.7h25.3v17h-2V-34z"/>
		</g>
		<g class="st8">
			<path class="st9" d="M37.9-20.3c1.2-0.3,2.5-0.6,3.9-1l0.3,0.9c-1.7,0.5-3.4,0.9-5.2,1.2L36.5-20c0.3-0.1,0.4-0.4,0.4-0.6v-8.7
				c1.7-0.3,3.3-0.7,4.7-1.1l0.6,0.8c-1.3,0.4-2.7,0.8-4.4,1.1v3.1h4v1h-4v4.1H37.9z M45.5-19.5l-0.3-1h1.3c0.4,0,0.6-0.2,0.6-0.6
				v-7.6h-3.2v11.1h-1v-12.1h5.2v8.8c0,0.9-0.4,1.4-1.3,1.4C46.8-19.5,45.5-19.5,45.5-19.5z"/>
			<path class="st9" d="M51.8-24.9c0,2.8-0.4,5.3-1.3,7.3l-0.7-0.7c0.7-1.7,1.1-3.9,1.1-6.6v-5h6.8v3.4h-5.8L51.8-24.9L51.8-24.9z
				 M51.8-28.9v1.6h4.9v-1.6H51.8z M55.5-25.9v1.4h2.2v4.5c0,0.8-0.4,1.1-1.1,1.1H56l-0.2-0.9h0.6c0.3,0,0.4-0.2,0.4-0.5v-3.4h-1.3
				v6h-0.9v-6h-1.3v4.8h-0.9v-5.7h2.2V-26L55.5-25.9L55.5-25.9z M58.9-17.7l-0.2-1c0.7,0,1.3,0.1,1.9,0.1c0.4,0,0.6-0.2,0.6-0.7
				v-11.1h1V-19c0,0.9-0.4,1.3-1.3,1.3H58.9z M59.7-29.2v8.7h-0.9v-8.7H59.7z"/>
			<path class="st9" d="M64.2-23.3l-0.3-1c1.5-1.8,2.5-3.8,3.2-6.1L68-30c-0.4,1.2-0.8,2.3-1.4,3.3v9.2h-1v-7.6
				C65.2-24.5,64.7-23.9,64.2-23.3z M71.4-28v-2.4h1v2.4h3.8v1h-2.9c0.6,2.3,1.8,4.4,3.4,6.2L76-20c-1.7-2.1-2.9-4.4-3.5-7h-0.2v5.6
				h2.2v1h-2.2v2.9h-1v-2.9h-2.1v-1h2.1V-27h-0.2c-0.7,2.9-1.9,5.3-3.6,7.2L67-20.7c1.6-1.6,2.7-3.7,3.3-6.3h-2.7v-1H71.4z"/>
			<path class="st9" d="M86.3-27.7c0.8,1,1.2,2.2,1.2,3.7s-0.4,2.7-1.2,3.7c-0.9,1-2.1,1.5-3.6,1.5s-2.7-0.5-3.5-1.5S78-22.5,78-24
				s0.4-2.7,1.2-3.7c0.9-1,2-1.5,3.6-1.5C84.2-29.2,85.4-28.7,86.3-27.7z M80-27c-0.6,0.8-0.9,1.8-0.9,3s0.3,2.2,0.9,3
				s1.6,1.2,2.7,1.2s2.1-0.4,2.7-1.1c0.6-0.8,0.9-1.8,0.9-3c0-1.3-0.3-2.3-0.9-3c-0.6-0.8-1.5-1.1-2.7-1.1S80.7-27.8,80-27z"/>
			<path class="st9" d="M96.2-28.3c0.8,0.6,1.2,1.4,1.3,2.4h-1.1c-0.1-0.7-0.5-1.3-1.1-1.7c-0.5-0.4-1.2-0.6-2-0.6
				c-1.2,0-2.1,0.4-2.7,1.2c-0.6,0.8-0.9,1.8-0.9,3s0.3,2.2,0.9,3s1.5,1.2,2.7,1.2c0.8,0,1.5-0.2,2-0.6c0.6-0.4,1-1.1,1.2-2h1.1
				c-0.2,1.2-0.7,2.1-1.6,2.7c-0.8,0.6-1.7,0.9-2.8,0.9c-1.6,0-2.7-0.5-3.6-1.5c-0.8-0.9-1.1-2.1-1.1-3.6s0.4-2.7,1.1-3.7
				c0.8-1.1,2-1.6,3.6-1.6C94.5-29.2,95.4-28.9,96.2-28.3z"/>
			<path class="st9" d="M103.6-29c1,0,1.8,0.2,2.4,0.7s0.9,1.2,0.9,2.1c0,0.6-0.2,1.1-0.5,1.5s-0.8,0.7-1.4,0.9l0,0
				c1,0.2,1.5,0.8,1.6,1.8l0.2,1.5c0.1,0.6,0.2,1.1,0.5,1.5h-1.2c-0.2-0.3-0.4-0.8-0.4-1.3l-0.1-1.3c-0.1-0.6-0.3-1-0.6-1.3
				c-0.3-0.3-0.8-0.4-1.4-0.4h-3v4.3h-1.1v-10C99.5-29,103.6-29,103.6-29z M100.4-24.3h3c0.7,0,1.3-0.2,1.7-0.5
				c0.3-0.3,0.5-0.8,0.5-1.4s-0.2-1.1-0.5-1.4c-0.4-0.3-0.9-0.5-1.7-0.5h-3V-24.3z"/>
		</g>
	</g>
</g>
<g id="RectEndPoint4" transform="translate(222,327)">
	<rect x="-4.7" y="-38" class="st5" width="97" height="50"/>
	<rect x="-6.7" y="-40" class="st6" width="97" height="50"/>
	<g transform="translate(20 9)">
		<g class="st8">
			<path class="st9" d="M-2.5-29.5v-0.9h1v0.9h3.7v-0.9h1v0.9h3.2v0.9H3.2v0.8h-1v-0.8h-3.7v0.8h-1v-0.8h-3.2v-0.9H-2.5z M6-24.6H5
				v-1.8h-9.3v1.8h-1v-2.7H6V-24.6z M5.2-17.6h-1v-0.6h-7.6v0.6h-1v-4h9.6C5.2-21.6,5.2-17.6,5.2-17.6z M4.2-19v-1.7h-7.6v1.7H4.2z
				 M3.9-25.3v2.8h-7v-2.8H3.9z M2.9-24.5h-5.1v1.3h5.1V-24.5z"/>
			<path class="st9" d="M13.3-30.3v11.1h2v-11.1h1v11.1h4.2v1H8.1v-1h4.2v-11.1H13.3z M11.3-21.3L10.4-21c-0.5-2.2-1.1-4.4-1.9-6.5
				l0.9-0.3C10.1-25.9,10.7-23.7,11.3-21.3z M20.2-27.5c-0.6,2.4-1.3,4.6-2.1,6.4l-0.9-0.3c0.8-1.7,1.5-3.8,2.1-6.3L20.2-27.5z"/>
			<path class="st9" d="M22.3-17.7l-0.2-1c0.4,0,0.8,0.1,1.2,0.1c0.4,0,0.6-0.2,0.6-0.6v-3.4c-0.6,0.2-1.2,0.4-1.8,0.6l-0.3-1
				c0.7-0.2,1.4-0.4,2-0.6v-3.2H22v-1h1.8v-2.6h1v2.6h1.3v1h-1.3v2.8c0.5-0.2,0.9-0.4,1.4-0.7v1c-0.5,0.2-0.9,0.4-1.4,0.6v4.1
				c0,0.8-0.4,1.2-1.3,1.2h-1.2V-17.7z M32.1-18.8c-0.3-0.8-0.4-2.3-0.4-4.7V-27h-2v1.5c0,0.8-0.1,1.5-0.2,2.2
				c0.7,0.5,1.3,1,1.9,1.5l-0.6,0.9c-0.5-0.5-1-0.9-1.5-1.3c-0.5,2-1.4,3.5-2.7,4.7l-0.8-0.7c1.3-1.1,2.1-2.6,2.5-4.7
				c-0.6-0.4-1.2-0.8-1.8-1.1l0.5-0.8c0.5,0.3,0.9,0.5,1.4,0.8c0-0.5,0.1-1,0.1-1.5V-27h-1.8v-1h1.8v-2.4h1v2.4h3v4.5
				c0,2,0.1,3.3,0.2,3.8c0.1,0.6,0.3,0.8,0.5,0.8c0.1,0,0.3-0.3,0.4-0.8c0.1-0.4,0.2-1,0.3-1.7l0.9,0.4c-0.2,1.3-0.4,2.2-0.6,2.6
				c-0.2,0.4-0.5,0.6-0.8,0.6C32.8-17.7,32.4-18.1,32.1-18.8z"/>
			<path class="st9" d="M38.4-20.6c-0.3,1.2-0.7,2.2-1.1,3.1l-0.9-0.3c0.4-0.8,0.8-1.8,1.2-3L38.4-20.6z M40.7-29.9v8.4h-4v-8.4
				H40.7z M39.8-26.2V-29h-2.1v2.8H39.8z M39.8-25.3h-2.1v2.9h2.1V-25.3z M41.5-17.8l-1,0.2c-0.2-1.1-0.4-2-0.6-2.9l0.9-0.2
				C41.1-19.8,41.3-18.8,41.5-17.8z M41.6-28.9v-0.9H48c0,1.6-0.1,2.6-0.3,3.1c-0.2,0.6-0.7,1-1.5,1c-0.3,0-0.7,0-1,0l-0.3-0.9
				c0.5,0,0.9,0.1,1.2,0.1c0.4,0,0.7-0.2,0.8-0.7c0.1-0.3,0.1-0.8,0.2-1.6h-2.5c-0.2,1.5-1.1,2.6-2.9,3.3l-0.5-0.8
				c1.5-0.5,2.3-1.4,2.5-2.5h-2.1C41.6-28.8,41.6-28.9,41.6-28.9z M47.7-25.2v3.7h-5.9v-3.7H47.7z M46.7-24.3h-3.9v1.9h3.9V-24.3z
				 M44.8-17.8l-1,0.2c-0.3-1.1-0.6-2.1-1-3l0.9-0.2C44.2-19.9,44.5-18.9,44.8-17.8z M48.5-18.1l-0.8,0.6c-0.4-0.9-1.1-1.9-1.8-3
				l0.8-0.5C47.5-19.9,48.1-18.9,48.5-18.1z"/>
		</g>
	</g>
</g>
<rect x="217.3" y="157" class="st5" width="97" height="50"/>
<rect x="215.3" y="155" class="st6" width="97" height="50"/>
<g transform="translate(20 9)">
	<g class="st8">
		<path class="st9" d="M225.2,164.8c-0.1,0.5-0.3,0.9-0.4,1.4h2.7v1h-3c-0.4,1-0.8,1.8-1.3,2.6l-0.8-0.5c0.9-1.4,1.5-2.9,1.8-4.7
			L225.2,164.8z M227.2,168.9v0.9h-1.5v1.8h1.9v0.9h-1.9v3.3c0.5-0.2,1-0.4,1.6-0.7l0.2,0.9c-0.8,0.4-1.7,0.8-2.8,1l-0.4-0.8
			c0.3-0.1,0.5-0.2,0.5-0.4v-3.2h-2.1v-0.9h2.1v-1.8h-0.9V169h3.3L227.2,168.9L227.2,168.9z M235.1,172.4c-0.6,0.8-1.3,1.3-2.1,1.7
			c0.5,0.9,1.3,1.7,2.3,2.3l-0.5,0.9c-2.1-1.5-3.4-3.6-3.9-6.2h-1.6v4.9c0.8-0.2,1.6-0.5,2.4-0.9l0.2,0.9c-1,0.4-2.2,0.8-3.7,1.2
			l-0.2-0.8c0.2-0.1,0.3-0.2,0.3-0.3v-10.9h5.9v5.9h-2.4c0.2,0.9,0.4,1.6,0.8,2.3c0.6-0.4,1.2-0.9,1.9-1.6L235.1,172.4z M233.4,166
			h-4v1.6h4V166z M229.4,170.1h4v-1.6h-4V170.1z"/>
		<path class="st9" d="M240.6,165.1c-0.8,1.6-2,2.9-3.8,4.1l-0.3-1c1.5-1,2.5-2.2,3.2-3.5L240.6,165.1z M241.1,168.3
			c-0.4,0.8-0.9,1.5-1.5,2.2v6.9h-1v-5.8c-0.6,0.5-1.2,1-1.8,1.5l-0.3-1.1c1.7-1.2,3-2.6,3.7-4.1L241.1,168.3z M249.1,169v1h-2.3
			v6.1c0,0.8-0.5,1.2-1.4,1.2h-2.1l-0.2-1c0.7,0,1.3,0.1,1.9,0.1c0.4,0,0.7-0.2,0.7-0.5V170h-4.4v-1H249.1z M248.6,165.5v1h-6.7v-1
			H248.6z"/>
		<path class="st9" d="M256.8,164.6v1.7h4.6v1h-4.6v2.1h6.4v1h-6.4v1.4c1.7,0.7,3.3,1.6,5,2.6l-0.6,0.9c-1.8-1.1-3.2-1.9-4.4-2.5
			v4.6h-1v-7h-5v-1h5v-4.8C255.8,164.6,256.8,164.6,256.8,164.6z"/>
	</g>
</g>
<g id="RectEndPoint13" transform="translate(505,327)">
	<rect x="-4.7" y="-38" class="st5" width="140" height="50"/>
	<rect x="-6.7" y="-40" class="st6" width="140" height="50"/>
	<g transform="translate(64.4609375,9)">
		<g class="st8">
			<path class="st9" d="M-4.2-20.4C-4-20.2-4-20.1-4-19.8c0,0.2-0.1,0.4-0.3,0.6c-0.2,0.2-0.4,0.3-0.6,0.3c-0.3,0-0.4-0.1-0.6-0.3
				c-0.2-0.2-0.3-0.4-0.3-0.6c0-0.3,0.1-0.4,0.3-0.6c0.2-0.2,0.3-0.3,0.6-0.3C-4.6-20.7-4.4-20.6-4.2-20.4z"/>
			<path class="st9" d="M-0.5-20.4c0.2,0.2,0.3,0.4,0.3,0.6s-0.1,0.4-0.3,0.6s-0.4,0.3-0.6,0.3c-0.3,0-0.4-0.1-0.6-0.3
				C-1.9-19.4-2-19.6-2-19.8c0-0.3,0.1-0.4,0.3-0.6s0.4-0.3,0.6-0.3C-0.9-20.7-0.7-20.6-0.5-20.4z"/>
			<path class="st9" d="M3.2-20.4c0.2,0.2,0.3,0.4,0.3,0.6s-0.1,0.4-0.3,0.6C3-19,2.8-18.9,2.6-18.9c-0.3,0-0.4-0.1-0.6-0.3
				c-0.2-0.2-0.3-0.4-0.3-0.6c0-0.3,0.1-0.4,0.3-0.6s0.3-0.3,0.6-0.3C2.8-20.7,3-20.6,3.2-20.4z"/>
		</g>
	</g>
</g>
<rect x="500.3" y="223" class="st5" width="140" height="50"/>
<rect x="498.3" y="221" class="st6" width="140" height="50"/>
<g id="RectEndPoint15" transform="translate(505,195)">
	<rect x="-4.7" y="-38" class="st5" width="140" height="50"/>
	<rect x="-6.7" y="-40" class="st6" width="140" height="50"/>
	<g transform="translate(28,9)">
		<g class="st8">
			<path class="st9" d="M-0.2-22.5v-0.9h1v0.9h5.4v0.9H1.8c1,1,2.6,1.9,4.9,2.7l-0.7,1c-2.4-1.1-4.1-2.3-5.1-3.6H0.8v3.9h-1v-3.9
				h-0.1c-1.1,1.5-2.8,2.7-5.1,3.6l-0.6-1c2.2-0.7,3.8-1.6,4.8-2.7h-4.4v-0.9H-0.2z M-2.5-29.5v-0.9h1v0.9h3.8v-0.9h1v0.9h3.2v0.9
				H3.2v1h-1v-1h-3.8v1h-1v-1h-3.2v-0.9H-2.5z M5.5-26.7C2.9-26.3-0.4-26-4.6-26L-5-26.9c4,0,7.3-0.2,9.9-0.6L5.5-26.7z M-2.4-23.4
				L-3.2-23c-0.3-0.8-0.7-1.5-1-2.2l0.9-0.3C-3-24.9-2.6-24.2-2.4-23.4z M1-23.9l-0.9,0.2c-0.2-0.6-0.4-1.2-0.7-1.7l0.8-0.3
				C0.5-25.2,0.8-24.6,1-23.9z M5-25.6c-0.5,0.9-1,1.6-1.7,2.3l-0.7-0.5c0.6-0.6,1.2-1.3,1.6-2.1L5-25.6z"/>
			<path class="st9" d="M15.5-28.3c0.4-0.7,0.9-1.5,1.2-2.3l1,0.3c-0.3,0.7-0.7,1.4-1.1,1.9h2.7v5.8h-4.4v1.3h5.7v1h-5.7v2.7h-1
				v-2.7H8.1v-1h5.7v-1.3H9.4v-5.8L15.5-28.3L15.5-28.3z M13.8-25.8v-1.5h-3.4v1.5H13.8z M13.8-25h-3.4v1.6h3.4
				C13.8-23.4,13.8-25,13.8-25z M13.2-28.7l-0.8,0.4c-0.4-0.7-0.9-1.3-1.3-1.8l0.9-0.4C12.4-29.9,12.8-29.3,13.2-28.7z M14.8-25.8
				h3.4v-1.5h-3.4C14.8-27.3,14.8-25.8,14.8-25.8z M18.2-25h-3.4v1.6h3.4V-25z"/>
			<path class="st9" d="M24.4-20.6c-0.3,1.2-0.7,2.2-1.1,3.1l-0.9-0.3c0.4-0.8,0.8-1.8,1.2-3L24.4-20.6z M26.7-29.9v8.4h-4v-8.4
				H26.7z M25.8-26.2V-29h-2.1v2.8H25.8z M25.8-25.3h-2.1v2.9h2.1V-25.3z M27.5-17.8l-1,0.2c-0.2-1.1-0.4-2-0.6-2.9l0.9-0.2
				C27.1-19.8,27.3-18.8,27.5-17.8z M27.6-28.9v-0.9H34c0,1.6-0.1,2.6-0.3,3.1c-0.2,0.6-0.7,1-1.5,1c-0.3,0-0.7,0-1,0l-0.3-0.9
				c0.5,0,0.9,0.1,1.2,0.1c0.4,0,0.7-0.2,0.8-0.7c0.1-0.3,0.1-0.8,0.2-1.6h-2.5c-0.2,1.5-1.1,2.6-2.9,3.3l-0.5-0.8
				c1.5-0.5,2.3-1.4,2.5-2.5h-2.1C27.6-28.8,27.6-28.9,27.6-28.9z M33.7-25.2v3.7h-5.9v-3.7H33.7z M32.7-24.3h-3.9v1.9h3.9V-24.3z
				 M30.8-17.8l-1,0.2c-0.3-1.1-0.6-2.1-1-3l0.9-0.2C30.2-19.9,30.5-18.9,30.8-17.8z M34.5-18.1l-0.8,0.6c-0.4-0.9-1.1-1.9-1.8-3
				l0.8-0.5C33.5-19.9,34.1-18.9,34.5-18.1z"/>
			<path class="st9" d="M39.7-24.9c0,0.5,0,1-0.1,1.5h6.5v5.9h-1v-4.9h-5.6c-0.3,2.1-1.1,3.7-2.3,4.8l-0.8-0.7
				c1.5-1.4,2.2-3.6,2.2-6.6V-30h1v3.3h4.1v-3.7h1v3.7h3.2v1h-8.2C39.7-25.7,39.7-24.9,39.7-24.9z"/>
			<path class="st9" d="M52.9-26.2v6.2c0.4-0.4,0.9-0.9,1.4-1.4l0.3,1.1c-0.8,0.8-1.7,1.5-2.6,2.2L51.7-19c0.2-0.2,0.3-0.4,0.3-0.6
				v-5.6h-2v-1H52.9z M54-28.2l-0.7,0.7c-0.6-0.7-1.4-1.4-2.4-2.1l0.7-0.7C52.6-29.6,53.3-28.9,54-28.2z M57.8-21.8
				c-0.7,1.6-1.5,3.1-2.5,4.3l-0.9-0.6c1-1.1,1.8-2.5,2.5-4L57.8-21.8z M61.9-29.6v6.5h-6.4v-6.5H61.9z M60.9-28.6h-4.4v4.6h4.4
				V-28.6z M62.9-18.2L62-17.6c-0.6-1.3-1.4-2.6-2.5-4.2l0.8-0.5C61.4-20.7,62.3-19.4,62.9-18.2z"/>
			<path class="st9" d="M64.7-25.4v-4.5h6v4.5H68c0,0.6-0.1,1.2-0.1,1.7h3c0,2.4-0.1,3.9-0.2,4.5c-0.1,0.9-0.8,1.4-2,1.4
				c-0.2,0-0.5,0-1,0l-0.2-0.9c0.4,0,0.8,0.1,1,0.1c0.7,0,1.1-0.3,1.2-0.9c0.1-0.4,0.1-1.4,0.2-3.2h-2.1c-0.2,0.9-0.3,1.6-0.6,2.1
				c-0.5,1.2-1.4,2.2-2.6,3.1L64-18.3c1.1-0.7,1.8-1.6,2.3-2.7c0.2-0.4,0.3-1,0.5-1.7h-2.5v-0.9h2.6c0.1-0.5,0.1-1.1,0.1-1.7
				L64.7-25.4L64.7-25.4z M69.7-29h-4v2.6h4V-29z M73.2-29.2v8.7h-1v-8.7H73.2z M72.8-17.7l-0.2-1c0.7,0,1.3,0.1,1.9,0.1
				c0.4,0,0.7-0.3,0.7-0.8v-11h1v11.3c0,0.9-0.4,1.4-1.3,1.4C74.9-17.7,72.8-17.7,72.8-17.7z"/>
		</g>
	</g>
</g>
<g id="RectEndPoint16" transform="translate(504.34375,129)">
	<rect x="-4.7" y="-38" class="st5" width="140.7" height="50"/>
	<rect x="-6.7" y="-40" class="st6" width="140.7" height="50"/>
	<g transform="translate(20,9)">
		<g class="st8">
			<path class="st9" d="M-4.5-29v6.2c0,1,0.2,1.7,0.7,2.2s1.2,0.8,2.2,0.8s1.7-0.3,2.2-0.8c0.4-0.5,0.7-1.2,0.7-2.2V-29h1.1v6.2
				c0,1.3-0.3,2.3-1,3s-1.7,1.1-3,1.1s-2.3-0.4-3-1c-0.7-0.7-1-1.7-1-3V-29H-4.5z"/>
			<path class="st9" d="M11.6-28.3c0.7,0.6,1.1,1.4,1.3,2.5h-1.1c-0.2-0.8-0.5-1.3-1-1.7c-0.5-0.4-1.3-0.6-2.1-0.6
				c-1.1,0-1.9,0.4-2.6,1.1c-0.6,0.8-1,1.8-1,3.1c0,1.3,0.3,2.3,0.9,3c0.7,0.8,1.6,1.2,2.9,1.2c0.5,0,1.1-0.1,1.6-0.2
				s0.9-0.3,1.3-0.6V-23H8.6v-1h4.3v4.1c-0.5,0.4-1.1,0.7-1.8,0.9c-0.7,0.2-1.5,0.3-2.3,0.3c-1.6,0-2.8-0.5-3.7-1.5
				c-0.8-0.9-1.2-2.2-1.2-3.6c0-1.5,0.4-2.7,1.2-3.7c0.9-1.1,2-1.6,3.5-1.6C9.9-29.2,10.9-28.9,11.6-28.3z"/>
			<path class="st9" d="M21.9-28.3c0.8,0.6,1.2,1.4,1.3,2.4h-1.1c-0.1-0.7-0.5-1.3-1.1-1.7c-0.5-0.4-1.2-0.6-2-0.6
				c-1.2,0-2.1,0.4-2.7,1.2c-0.6,0.8-0.9,1.8-0.9,3s0.3,2.2,0.9,3c0.6,0.8,1.5,1.2,2.7,1.2c0.8,0,1.5-0.2,2-0.6c0.6-0.4,1-1.1,1.2-2
				h1.1c-0.2,1.2-0.7,2.1-1.6,2.7c-0.8,0.6-1.7,0.9-2.8,0.9c-1.6,0-2.7-0.5-3.6-1.5c-0.8-0.9-1.1-2.1-1.1-3.6s0.4-2.7,1.1-3.7
				c0.8-1.1,2-1.6,3.6-1.6C20.2-29.2,21.2-28.9,21.9-28.3z"/>
			<path class="st9" d="M29.8-19.7c-0.9,0.9-2.4,1.6-4.6,2.1l-0.4-0.9c1.9-0.4,3.3-1,4.2-1.8c0.3-0.3,0.6-0.7,0.9-1.1H25v-0.9h5.3
				c0.1-0.4,0.2-0.9,0.3-1.3h1c-0.1,0.5-0.2,0.9-0.3,1.3H37v0.9h-5.3c1.3,1.4,3.2,2.4,5.5,3l-0.5,0.9c-2.6-0.7-4.6-1.9-5.9-3.6
				C30.5-20.6,30.2-20.1,29.8-19.7z M31.5-24.2h-1v-2.5h-0.1c-0.8,1.3-2.4,2.4-4.8,3.3l-0.5-0.9c2.2-0.7,3.7-1.5,4.4-2.4h-4.4v-0.9
				h5.4v-2.8h1v2.8h5.4v0.9h-5.4v0.3c1.9,0.6,3.6,1.2,5.2,2l-0.5,0.8c-1.5-0.9-3.1-1.6-4.6-2.1L31.5-24.2L31.5-24.2z M28.7-28.3
				l-0.9,0.2c-0.3-0.6-0.6-1.3-1.1-1.9l0.9-0.3C28-29.7,28.3-29,28.7-28.3z M35.3-30.1c-0.3,0.8-0.7,1.4-1.2,2l-0.8-0.3
				c0.4-0.5,0.8-1.1,1.1-1.9L35.3-30.1z"/>
			<path class="st9" d="M50.7-17.6h-1v-0.6h-9.5v0.6h-1v-12.2h11.4v12.2C50.6-17.6,50.7-17.6,50.7-17.6z M49.7-19.1V-29h-9.5v9.9
				H49.7z M44.5-28.5c-0.1,0.3-0.2,0.5-0.4,0.8h3.7v0.7c-0.4,0.7-1,1.4-1.8,2c0.9,0.4,2,0.8,3.2,1.1l-0.5,0.8
				c-1.4-0.4-2.5-0.8-3.5-1.4c-1.1,0.6-2.4,1-4,1.4L40.8-24c1.4-0.3,2.7-0.6,3.6-1.1c-0.5-0.4-1-0.8-1.4-1.2
				c-0.4,0.4-0.9,0.8-1.4,1.1L41-25.9c1.3-0.8,2.1-1.7,2.6-2.7L44.5-28.5z M47.9-20.2l-0.3,0.8c-1.7-0.7-3.5-1.2-5.4-1.6l0.4-0.8
				C44.4-21.4,46.2-20.9,47.9-20.2z M47-22.4l-0.5,0.7c-1-0.6-2-1-3-1.4l0.5-0.7C45.1-23.3,46.1-22.9,47-22.4z M46.9-27h-3.2
				c-0.1,0.1-0.1,0.1-0.1,0.2c0.5,0.5,1.1,0.9,1.7,1.3C46-25.9,46.5-26.4,46.9-27z"/>
			<path class="st9" d="M52.8-23.7l-0.3-1.1c1.3-1.7,2.2-3.6,2.8-5.7l0.9,0.4c-0.3,1-0.6,1.9-1.1,2.8v9.7h-1v-7.9
				C53.8-24.9,53.3-24.3,52.8-23.7z M56.3-26.8l-0.6-0.8c1.4-0.8,2.5-1.8,3.4-3l1,0.2c-0.2,0.3-0.4,0.5-0.6,0.8H63v0.7
				c-0.4,0.5-0.7,0.9-1.1,1.2h2.6v3.1h-4.2l0,0c0.6,0.6,1.1,1.3,1.4,2c1-0.4,1.8-0.9,2.4-1.6l0.7,0.8c-0.4,0.4-0.9,0.7-1.4,1
				c0.4,1.3,1.1,2.4,2.1,3.4l-0.7,0.8c-1-1.1-1.8-2.4-2.2-3.8c-0.2,0.1-0.4,0.2-0.6,0.3c0.1,0.5,0.2,1,0.3,1.5c0,1-0.2,1.6-0.5,2
				c-0.3,0.3-0.8,0.5-1.5,0.6c-0.3,0-0.5,0-0.8,0l-0.3-0.9c0.4,0,0.7,0,1,0s0.6-0.1,0.8-0.4c0.2-0.2,0.3-0.7,0.3-1.3
				c0-0.2,0-0.3,0-0.5c-1.2,1.1-2.8,2-4.7,2.7L56-18.9c2.2-0.7,3.9-1.6,5.1-2.7c-0.1-0.3-0.2-0.6-0.3-0.9c-1,0.9-2.4,1.7-4.2,2.3
				L56.1-21c1.8-0.6,3.3-1.3,4.3-2.1c-0.2-0.3-0.4-0.5-0.6-0.7c-0.8,0.8-2,1.3-3.3,1.6L56.1-23c1.3-0.3,2.4-0.8,3.1-1.5h-2.3V-27
				C56.7-27,56.5-26.9,56.3-26.8z M61.9-28.7h-3c-0.4,0.4-0.8,0.8-1.2,1.1h3.1C61.1-28,61.5-28.4,61.9-28.7z M60.4-26.8h-2.5v1.4h2
				C60.1-25.8,60.3-26.3,60.4-26.8z M63.6-26.8h-2.2c-0.1,0.5-0.3,1-0.5,1.4h2.7V-26.8z"/>
			<path class="st9" d="M69.6-26.2v6.2c0.4-0.4,0.9-0.9,1.4-1.4l0.3,1.1c-0.8,0.8-1.7,1.5-2.6,2.2L68.3-19c0.2-0.2,0.3-0.4,0.3-0.6
				v-5.6h-2v-1H69.6z M70.6-28.2l-0.7,0.7c-0.6-0.7-1.4-1.4-2.4-2.1l0.7-0.7C69.2-29.6,70-28.9,70.6-28.2z M74.5-21.8
				c-0.7,1.6-1.5,3.1-2.5,4.3l-0.9-0.6c1-1.1,1.8-2.5,2.5-4L74.5-21.8z M78.5-29.6v6.5h-6.4v-6.5H78.5z M77.5-28.6h-4.4v4.6h4.4
				V-28.6z M79.5-18.2l-0.9,0.6c-0.6-1.3-1.4-2.6-2.5-4.2l0.8-0.5C78.1-20.7,78.9-19.4,79.5-18.2z"/>
			<path class="st9" d="M81.4-25.4v-4.5h6v4.5h-2.7c0,0.6-0.1,1.2-0.1,1.7h3c0,2.4-0.1,3.9-0.2,4.5c-0.1,0.9-0.8,1.4-2,1.4
				c-0.2,0-0.5,0-1,0L84-18.7c0.4,0,0.8,0.1,1,0.1c0.7,0,1.1-0.3,1.2-0.9c0.1-0.4,0.1-1.4,0.2-3.2h-2.1c-0.2,0.9-0.3,1.6-0.6,2.1
				c-0.5,1.2-1.4,2.2-2.6,3.1l-0.6-0.8c1.1-0.7,1.8-1.6,2.3-2.7c0.2-0.4,0.3-1,0.5-1.7h-2.5v-0.9h2.6c0.1-0.5,0.1-1.1,0.1-1.7
				L81.4-25.4L81.4-25.4z M86.3-29h-4v2.6h4V-29z M89.9-29.2v8.7h-1v-8.7H89.9z M89.5-17.7l-0.2-1c0.7,0,1.3,0.1,1.9,0.1
				c0.4,0,0.7-0.3,0.7-0.8v-11h1v11.3c0,0.9-0.4,1.4-1.3,1.4C91.6-17.7,89.5-17.7,89.5-17.7z"/>
		</g>
	</g>
</g>
<g id="RectEndPoint17" transform="translate(505,63)">
	<rect x="-4.7" y="-38" class="st5" width="140" height="50"/>
	<rect x="-6.7" y="-40" class="st6" width="140" height="50"/>
	<g transform="translate(35,9)">
		<g class="st8">
			<path class="st9" d="M-2.8-30.2c-0.6,1.6-1.7,3-3.1,4.2l-0.3-1c1.2-1.1,2-2.3,2.5-3.6L-2.8-30.2z M-2.5-26.5
				c-0.3,0.8-0.7,1.5-1.2,2.1v6.7h-0.9v-5.6c-0.4,0.4-0.8,0.8-1.2,1.2L-6.1-23c1.3-1.1,2.2-2.4,2.8-3.9L-2.5-26.5z M-0.4-22.8v-1.4
				h1v1.4h2v0.9h-2v2C1.4-20,2.2-20.2,3-20.4v0.9c-1.7,0.4-3.6,0.8-5.6,1l-0.2-1c0.8-0.1,1.6-0.2,2.4-0.3v-2.1h-2v-0.9H-0.4z
				 M-0.4-28.4v-1.8h1v1.8h1.9v0.9H0.6v1.9h2.2v-0.6h4v0.9H5.5v6.3c0,0.9-0.4,1.3-1.1,1.3H2.7l-0.2-0.9c0.5,0,1.1,0.1,1.5,0.1
				c0.3,0,0.5-0.2,0.5-0.7v-6.1H2.9v0.6h-5.4v-0.9h2.2v-1.9h-1.9v-0.9H-0.4z M6.6-29.5v0.9H3.1v-0.9H6.6z"/>
			<path class="st9" d="M12.1-19.7c-0.9,0.8-2.1,1.5-3.6,2L8-18.6c1.5-0.5,2.7-1.1,3.5-1.8L12.1-19.7z M19-30v4h-4.3
				c0.1,0.3,0.2,0.5,0.4,0.8h5.5v0.8H8.2v-0.8h5.7c-0.1-0.3-0.3-0.6-0.4-0.8H9.7v-4H19z M18.8-23.6v2.8H15v2c0,0.8-0.4,1.2-1.1,1.2
				h-1.7l-0.2-1c0.5,0,1.1,0.1,1.5,0.1c0.3,0,0.4-0.2,0.4-0.5v-1.8h-4v-2.8C9.9-23.6,18.8-23.6,18.8-23.6z M18-28.4v-0.8h-7.3v0.8
				H18z M18-27.7h-7.3v0.8H18V-27.7z M17.8-22.8h-6.9v1.2h6.9V-22.8z M20.7-18.7l-0.4,0.9c-1.3-0.7-2.6-1.3-4-1.7l0.4-0.8
				C18.1-19.9,19.4-19.4,20.7-18.7z"/>
			<path class="st9" d="M29.4-29.1h5.2v1H24.2v3.1c0,3.1-0.5,5.5-1.5,7.4L22-18.3c0.8-1.6,1.3-3.8,1.3-6.7v-4h5.1
				c-0.2-0.5-0.4-0.9-0.7-1.3l1.1-0.2C29-30.1,29.2-29.6,29.4-29.1z M29.7-27.5v1.7h4.6v1h-4.6v2h3.7v5.2h-1v-0.7h-5.9v0.7h-1v-5.2
				h3.2v-4.7H29.7z M32.4-19.3v-2.6h-5.9v2.6H32.4z"/>
			<path class="st9" d="M36.4-17.8l-0.2-1c0.4,0,0.8,0.1,1.1,0.1c0.4,0,0.6-0.2,0.6-0.6v-3.4c-0.6,0.2-1.2,0.5-1.8,0.7l-0.3-1.1
				c0.7-0.2,1.4-0.4,2.1-0.6v-3.2h-1.8v-1h1.8v-2.6h1v2.6h1.7v1h-1.7v2.8c0.5-0.2,1-0.5,1.5-0.8v1c-0.5,0.3-1,0.5-1.5,0.8v4.1
				c0,0.8-0.4,1.2-1.2,1.2H36.4z M41.2-28.9v-1h7c0,2.6-0.2,4.2-0.5,4.8c-0.3,0.5-0.8,0.8-1.5,0.8c-0.3,0-0.7,0-1.1-0.1l-0.2-0.9
				c0.4,0,0.8,0.1,1.1,0.1c0.5,0,0.8-0.2,1-0.6c0.1-0.4,0.2-1.4,0.3-3.1h-2.6c-0.2,1.2-0.5,2.1-0.9,2.8c-0.5,0.8-1.2,1.5-2.2,2.1
				L41-24.8c0.8-0.5,1.5-1.1,1.9-1.8c0.4-0.6,0.6-1.4,0.8-2.4L41.2-28.9L41.2-28.9z M48-17.6h-1v-0.6h-4.5v0.6h-1v-5.8H48V-17.6z
				 M47-19.2v-3.3h-4.5v3.3H47z"/>
			<path class="st9" d="M54.2-30.3v3.7H55v0.9h-3.2v0.7c0,0.5,0,0.9,0,1.3h2.6v5.8h-1v-4.9h-1.7c-0.2,2.3-0.6,4-1.2,5.2l-0.7-0.6
				c0.7-1.4,1-3.7,1-6.8v-5h1v3.5h1.5v-3.7L54.2-30.3L54.2-30.3z M57.8-29.2c0.2-0.4,0.3-0.9,0.4-1.4l1,0.1
				c-0.1,0.4-0.3,0.8-0.4,1.2H62v5.9h-3.2l-0.2,0.3c-0.4,0.7-1.1,1.3-2,1.7h2.7v-1.5h1v1.5h2.4v1h-2.4v2.6h-1v-2.6H55v-1h1.4
				L56-21.9c0.8-0.4,1.4-0.8,1.7-1.4h-2.1v-5.9C55.6-29.2,57.8-29.2,57.8-29.2z M58.4-26.7v-1.6h-1.8v1.6H58.4z M58.4-25.8h-1.8v1.7
				h1.5C58.3-24.7,58.3-25.2,58.4-25.8z M61.1-25.8h-1.8c0,0.6-0.1,1.2-0.2,1.7h2V-25.8z M59.3-26.7h1.8v-1.6h-1.8V-26.7z"/>
		</g>
	</g>
</g>
<g id="RectEndPoint12" transform="translate(356,63)">
	<rect x="-4.7" y="-38" class="st5" width="110.4" height="50"/>
	<rect x="-6.7" y="-40" class="st6" width="110.4" height="50"/>
	<g transform="translate(26,9)">
		<g class="st8">
			<path class="st9" d="M0.8-17.9c-0.9,0-1.7-0.1-2.2-0.3c-0.6-0.2-1.1-0.5-1.5-1c-0.2-0.2-0.4-0.3-0.5-0.3c-0.3,0-0.9,0.6-1.7,1.9
				l-0.8-0.7c0.7-1.2,1.4-1.9,2-2.1v-4.3h-2v-0.9H-3v5.2c0.1,0.1,0.2,0.2,0.4,0.3c0.3,0.4,0.7,0.7,1.1,0.9c0.4,0.2,1.1,0.3,1.9,0.3
				c0.7,0,1.7,0,2.8,0c0.6,0,1.3,0,2,0s1.2,0,1.6-0.1l-0.2,1H3.3C2.5-17.9,1.7-17.9,0.8-17.9z M-2.5-28l-0.7,0.7
				c-0.6-0.7-1.4-1.4-2.4-2.2l0.7-0.7C-3.9-29.5-3.1-28.8-2.5-28z M2.4-27.8c0.7-0.4,1.4-0.8,2-1.3h-6.2V-30h7.6v0.7
				c-0.9,0.8-1.8,1.4-2.8,2l0.2,0.2H6v6.3c0,0.7-0.4,1.1-1.2,1.1H3.7l-0.2-0.9h1.1c0.3,0,0.5-0.2,0.5-0.5v-1H2.7v2.4H1.8v-2.4h-2.3
				v2.5h-1v-7.5H2c-0.5-0.4-1.1-0.8-1.8-1.1l0.6-0.6C1.4-28.5,1.9-28.2,2.4-27.8z M1.8-26.3h-2.3v1.3h2.3V-26.3z M-0.5-23h2.3v-1.2
				h-2.3V-23z M5.1-26.3H2.7v1.3h2.4C5.1-25,5.1-26.3,5.1-26.3z M2.7-23h2.4v-1.2H2.7V-23z"/>
			<path class="st9" d="M8.7-17.7l-0.8-0.7c0.9-1.2,1.4-2.8,1.4-4.7v-6.7h10.4v10.5c0,1-0.5,1.5-1.5,1.5h-1.6l-0.3-1
				c0.6,0,1.1,0.1,1.6,0.1s0.8-0.3,0.8-0.9V-22h-3.8v4.1h-1V-22h-3.6C10.1-20.4,9.6-18.9,8.7-17.7z M10.3-28.9v2.4h3.6v-2.4H10.3z
				 M10.3-23.1h3.6v-2.5h-3.6C10.3-25.6,10.3-23.1,10.3-23.1z M18.7-28.9h-3.8v2.4h3.8V-28.9z M18.7-25.6h-3.8v2.5h3.8V-25.6z"/>
			<path class="st9" d="M30.3-27.7c0.8,1,1.2,2.2,1.2,3.7s-0.4,2.7-1.2,3.7c-0.9,1-2.1,1.5-3.6,1.5s-2.7-0.5-3.5-1.5S22-22.5,22-24
				s0.4-2.7,1.2-3.7c0.9-1,2-1.5,3.6-1.5C28.2-29.2,29.4-28.7,30.3-27.7z M24-27c-0.6,0.8-0.9,1.8-0.9,3s0.3,2.2,0.9,3
				s1.6,1.2,2.7,1.2s2.1-0.4,2.7-1.1c0.6-0.8,0.9-1.8,0.9-3c0-1.3-0.3-2.3-0.9-3c-0.6-0.8-1.5-1.1-2.7-1.1S24.7-27.8,24-27z"/>
			<path class="st9" d="M40.2-28.3c0.8,0.6,1.2,1.4,1.3,2.4h-1.1c-0.1-0.7-0.5-1.3-1.1-1.7c-0.5-0.4-1.2-0.6-2-0.6
				c-1.2,0-2.1,0.4-2.7,1.2c-0.6,0.8-0.9,1.8-0.9,3s0.3,2.2,0.9,3c0.6,0.8,1.5,1.2,2.7,1.2c0.8,0,1.5-0.2,2-0.6c0.6-0.4,1-1.1,1.2-2
				h1.1c-0.2,1.2-0.7,2.1-1.6,2.7c-0.8,0.6-1.7,0.9-2.8,0.9c-1.6,0-2.7-0.5-3.6-1.5c-0.8-0.9-1.1-2.1-1.1-3.6s0.4-2.7,1.1-3.7
				c0.8-1.1,2-1.6,3.6-1.6C38.5-29.2,39.4-28.9,40.2-28.3z"/>
			<path class="st9" d="M47.6-29c1,0,1.8,0.2,2.4,0.7c0.6,0.5,0.9,1.2,0.9,2.1c0,0.6-0.2,1.1-0.5,1.5C50-24.3,49.6-24,49-23.9l0,0
				c1,0.2,1.5,0.8,1.6,1.8l0.2,1.5c0.1,0.6,0.2,1.1,0.5,1.5h-1.2c-0.2-0.3-0.4-0.8-0.4-1.3l-0.1-1.3c-0.1-0.6-0.3-1-0.6-1.3
				s-0.8-0.4-1.4-0.4h-3v4.3h-1.1v-10L47.6-29L47.6-29z M44.4-24.3h3c0.7,0,1.3-0.2,1.7-0.5c0.3-0.3,0.5-0.8,0.5-1.4
				s-0.2-1.1-0.5-1.4c-0.4-0.3-0.9-0.5-1.7-0.5h-3V-24.3z"/>
		</g>
	</g>
</g>
<g id="RectEndPoint11" transform="translate(356.390625,129)">
	<rect x="-4.7" y="-38" class="st5" width="110" height="50"/>
	<rect x="-6.7" y="-40" class="st6" width="110" height="50"/>
	<g transform="translate(34,9)">
		<g class="st8">
			<path class="st9" d="M0.4-30.4C0.3-30,0.2-29.6,0-29.3h4.1v6.2c0.7-0.8,1.3-1.7,1.6-2.5l0.9,0.5c-0.7,1.3-1.5,2.4-2.5,3.3v3
				c0,0.8-0.4,1.2-1.1,1.2H1.5l-0.3-1h1.4c0.3,0,0.4-0.2,0.4-0.5V-21c-0.3,0.2-0.6,0.4-0.9,0.6c-1.9,1.1-4.3,1.9-7.2,2.5l-0.4-0.9
				c3.7-0.6,6.3-1.6,7.9-2.8l0.2-0.2h-8.2v-0.9h1.7v-6.6H-1c0.2-0.4,0.3-0.9,0.4-1.3L0.4-30.4z M3.1-27.1v-1.3h-6v1.3H3.1z
				 M3.1-24.9v-1.3h-6v1.3H3.1z M3.1-22.7v-1.4h-6v1.4H3.1z"/>
			<path class="st9" d="M12-30c-0.4,1.1-0.8,2.1-1.4,3v9.5h-1v-7.9c-0.5,0.6-1,1.2-1.5,1.8l-0.3-1c1.5-1.7,2.6-3.6,3.3-5.7L12-30z
				 M15.1-29.9c-0.8,2.4-1.9,4.2-3.2,5.5l-0.8-0.7c1.3-1.3,2.4-3,3.1-5.2L15.1-29.9z M12.7-24v-1h6.2c0,3-0.1,4.8-0.2,5.5
				c-0.1,1.1-0.7,1.6-1.7,1.6c-0.3,0-0.8,0-1.5,0l-0.2-1c0.6,0,1.1,0.1,1.6,0.1s0.8-0.4,0.9-1.1c0.1-0.4,0.1-1.8,0.2-4.1h-2.5
				c-0.2,1.5-0.6,2.8-1,3.7c-0.5,1-1.2,1.9-2.2,2.7l-0.6-0.8c0.9-0.7,1.5-1.4,2-2.3c0.4-0.8,0.7-1.9,0.9-3.2h-1.9
				C12.7-23.9,12.7-24,12.7-24z M20.7-25.5L20-24.7c-1.7-1.4-2.8-3.2-3.4-5.3l0.9-0.5C18.1-28.4,19.2-26.8,20.7-25.5z"/>
			<path class="st9" d="M24.9-26.2v6.1c0.4-0.4,0.9-0.8,1.4-1.3l0.3,1.1c-0.8,0.8-1.7,1.5-2.6,2.1l-0.4-0.9c0.2-0.2,0.3-0.4,0.3-0.6
				v-5.4h-2v-1h3C24.9-26.1,24.9-26.2,24.9-26.2z M26-28.1l-0.7,0.7c-0.6-0.7-1.3-1.4-2.3-2.2l0.7-0.7C24.6-29.6,25.3-28.9,26-28.1z
				 M26.7-28.8v-1h7.9v1h-2.9v3.9h2.7v0.9h-2.7v4.8h3.2v1h-8.6v-1h1.4v-7.4h1v7.4h2v-9.7h-4V-28.8z"/>
		</g>
	</g>
</g>
<g id="RectEndPoint10" transform="translate(356.390625,195)">
	<rect x="-4.7" y="-38" class="st5" width="110" height="50"/>
	<rect x="-6.7" y="-40" class="st6" width="110" height="50"/>
	<g transform="translate(20,9)">
		<g class="st8">
			<path class="st9" d="M-4.1-20.3c1.2-0.3,2.5-0.6,3.9-1L0-20.4c-1.7,0.5-3.4,0.9-5.2,1.2L-5.5-20c0.3-0.1,0.4-0.4,0.4-0.6v-8.7
				c1.7-0.3,3.3-0.7,4.7-1.1l0.6,0.8c-1.3,0.4-2.7,0.8-4.4,1.1v3.1h4v1h-4v4.1H-4.1z M3.5-19.5l-0.3-1h1.3c0.4,0,0.6-0.2,0.6-0.6
				v-7.6H1.9v11.1h-1v-12.1h5.2v8.8c0,0.9-0.4,1.4-1.3,1.4C4.8-19.5,3.5-19.5,3.5-19.5z"/>
			<path class="st9" d="M9.8-24.9c0,2.8-0.4,5.3-1.3,7.3l-0.7-0.7c0.7-1.7,1.1-3.9,1.1-6.6v-5h6.8v3.4H9.8V-24.9z M9.8-28.9v1.6h4.9
				v-1.6H9.8z M13.5-25.9v1.4h2.2v4.5c0,0.8-0.4,1.1-1.1,1.1H14l-0.2-0.9h0.6c0.3,0,0.4-0.2,0.4-0.5v-3.4h-1.3v6h-0.9v-6h-1.3v4.8
				h-0.9v-5.7h2.2V-26L13.5-25.9L13.5-25.9z M16.9-17.7l-0.2-1c0.7,0,1.3,0.1,1.9,0.1c0.4,0,0.6-0.2,0.6-0.7v-11.1h1V-19
				c0,0.9-0.4,1.3-1.3,1.3H16.9z M17.7-29.2v8.7h-0.9v-8.7H17.7z"/>
			<path class="st9" d="M22.2-23.3l-0.3-1c1.5-1.8,2.5-3.8,3.2-6.1L26-30c-0.4,1.2-0.8,2.3-1.4,3.3v9.2h-1v-7.6
				C23.2-24.5,22.7-23.9,22.2-23.3z M29.4-28v-2.4h1v2.4h3.8v1h-2.9c0.6,2.3,1.8,4.4,3.4,6.2L34-20c-1.7-2.1-2.9-4.4-3.5-7h-0.2v5.6
				h2.2v1h-2.2v2.9h-1v-2.9h-2.1v-1h2.1V-27h-0.2c-0.7,2.9-1.9,5.3-3.6,7.2L25-20.7c1.6-1.6,2.7-3.7,3.3-6.3h-2.7v-1H29.4z"/>
			<path class="st9" d="M42-28.1c-0.4-0.7-0.8-1.4-1.4-2.1l1-0.4c0.5,0.7,1,1.5,1.5,2.5h5.4v1h-2.2c-0.7,2.2-1.7,4.1-3.1,5.6
				c1.5,1.3,3.3,2.3,5.6,3.1l-0.5,0.8c-2.3-0.9-4.2-1.9-5.7-3.2c-1.6,1.5-3.6,2.5-6,3.2L36-18.4c2.4-0.6,4.3-1.6,5.8-3
				c-1.6-1.6-2.7-3.5-3.4-5.6h-2.2v-1H42V-28.1z M42.5-22.1c1.2-1.4,2.2-3,2.7-4.9h-5.8C40-25.2,41-23.5,42.5-22.1z"/>
			<path class="st9" d="M53.1-17.7h-1v-7c-0.5,1.3-1,2.5-1.8,3.6l-0.4-1.1c1-1.4,1.8-2.9,2.2-4.6h-1.9v-1H52v-2.7h1v2.7h1.7v1H53
				v0.8c0.6,0.7,1.3,1.5,1.9,2.3l-0.6,0.8c-0.5-0.9-1-1.5-1.4-2.1v7.3C52.9-17.7,53.1-17.7,53.1-17.7z M58.2-25.6v-4.9h1v4.9h2.9v8
				h-1v-0.6h-6.3v-1h6.3v-2.3h-5.7v-1h5.7v-2.2h-6v-1h3.1V-25.6z M57.2-26.8l-0.9,0.4c-0.4-1.1-0.9-2-1.4-2.9l0.9-0.4
				C56.3-28.8,56.8-27.8,57.2-26.8z M62.5-29.3c-0.4,1-0.9,2-1.5,3l-0.9-0.4c0.6-1,1.1-2,1.5-3L62.5-29.3z"/>
		</g>
	</g>
</g>
<g id="RectEndPoint9" transform="translate(356.390625,261)">
	<rect x="-4.7" y="-38" class="st5" width="110" height="50"/>
	<rect x="-6.7" y="-40" class="st6" width="110" height="50"/>
	<g transform="translate(20,9)">
		<g class="st8">
			<path class="st9" d="M1.5-29h5.1v1H-3.8v3.1c-0.1,3.1-0.5,5.5-1.4,7.4L-6-18.2c0.8-1.6,1.2-3.8,1.2-6.6V-29h5.2
				c-0.2-0.5-0.5-1.1-0.8-1.5l1.1-0.2C1-30.2,1.2-29.6,1.5-29z"/>
			<path class="st9" d="M9-25.7l-0.6-0.8c1.3-1,2.1-2.3,2.6-3.7l1,0.1c-0.2,0.6-0.4,1.1-0.7,1.7H14v-2h1v2h4.6v1H15v2.3h5.6v1H8v-1
				h6v-2.3h-3.3C10.2-26.9,9.6-26.3,9-25.7z M18.9-17.6h-1v-0.7h-7.1v0.7h-1v-5.2h9.1V-17.6z M17.9-19.3v-2.5h-7.1v2.5H17.9z"/>
			<path class="st9" d="M34.1-17.6h-1v-0.6h-9.5v0.6h-1v-12.2H34L34.1-17.6L34.1-17.6z M33.1-19.1V-29h-9.5v9.9H33.1z M27.9-28.5
				c-0.1,0.3-0.2,0.5-0.4,0.8h3.7v0.7c-0.4,0.7-1,1.4-1.8,2c0.9,0.4,2,0.8,3.2,1.1l-0.5,0.8c-1.4-0.4-2.5-0.8-3.5-1.4
				c-1.1,0.6-2.4,1-4,1.4L24.2-24c1.4-0.3,2.7-0.6,3.6-1.1c-0.5-0.4-1-0.8-1.4-1.2c-0.4,0.4-0.9,0.8-1.4,1.1l-0.6-0.7
				c1.3-0.8,2.1-1.7,2.6-2.7L27.9-28.5z M31.2-20.2l-0.3,0.8c-1.7-0.7-3.5-1.2-5.4-1.6l0.4-0.8C27.7-21.4,29.5-20.9,31.2-20.2z
				 M30.3-22.4l-0.5,0.7c-1-0.6-2-1-3-1.4l0.5-0.7C28.4-23.3,29.4-22.9,30.3-22.4z M30.2-27H27c-0.1,0.1-0.1,0.1-0.1,0.2
				c0.5,0.5,1.1,0.9,1.7,1.3C29.3-25.9,29.8-26.4,30.2-27z"/>
			<path class="st9" d="M42-28.1c-0.4-0.7-0.8-1.4-1.4-2.1l1-0.4c0.5,0.7,1,1.5,1.5,2.5h5.4v1h-2.2c-0.7,2.2-1.7,4.1-3.1,5.6
				c1.5,1.3,3.3,2.3,5.6,3.1l-0.5,0.8c-2.3-0.9-4.2-1.9-5.7-3.2c-1.6,1.5-3.6,2.5-6,3.2L36-18.4c2.4-0.6,4.3-1.6,5.8-3
				c-1.6-1.6-2.7-3.5-3.4-5.6h-2.2v-1H42V-28.1z M42.5-22.1c1.2-1.4,2.2-3,2.7-4.9h-5.8C40-25.2,41-23.5,42.5-22.1z"/>
			<path class="st9" d="M60.1-26.5v0.9c-0.9,0.6-1.9,1.3-3.1,1.9v0.9h5.5v1H57v3c0,0.8-0.4,1.2-1.2,1.2h-1.7l-0.2-0.9
				c0.5,0,1,0,1.6,0c0.4,0,0.5-0.2,0.5-0.6v-2.6h-5.9v-1H56v-1.4c1.1-0.6,2-1.1,2.6-1.4h-6v-0.9h7.5V-26.5z M62.3-25.9h-1V-28h-9.9
				v2.2h-1V-29h5.5c-0.2-0.5-0.4-1-0.6-1.4l1.1-0.2c0.2,0.5,0.4,1,0.6,1.6h5.3V-25.9z"/>
		</g>
	</g>
</g>
<g id="RectEndPoint8" transform="translate(356.390625,327)">
	<rect x="-4.7" y="-38" class="st5" width="110" height="50"/>
	<rect x="-6.7" y="-40" class="st6" width="110" height="50"/>
	<g transform="translate(27,9)">
		<g class="st8">
			<path class="st9" d="M-5.8-21.7l-0.3-1.1c1.9-1.6,3.1-3.2,3.8-4.7h-3.4v-1h2.2c-0.2-0.6-0.5-1.2-0.8-1.8l1-0.3
				c0.3,0.7,0.6,1.4,0.8,1.9l-0.4,0.2h1.8v0.9c-0.4,1-0.9,2-1.7,3c0.8,0.5,1.5,1,2.1,1.6l-0.6,0.9c-0.5-0.6-1-1-1.5-1.4v5.9h-1v-5.8
				C-4.5-22.9-5.1-22.3-5.8-21.7z M3.2-27.9v2.7c-0.1,2.1-0.4,3.8-1.1,5s-1.8,2.1-3.3,2.7l-0.5-0.9c1.5-0.6,2.5-1.5,3.1-2.5
				c0.5-1.1,0.8-2.5,0.9-4.3v-2.7C2.3-27.9,3.2-27.9,3.2-27.9z M5.7-22.1h-1v-6.8h-4v6.8h-1v-7.7h6V-22.1z M4-17.8
				c-0.8,0-1.1-0.4-1.1-1.2v-3.1h1v2.9c0,0.3,0.2,0.5,0.5,0.5h0.9c0.2,0,0.4-0.1,0.4-0.2c0.1-0.2,0.2-0.7,0.2-1.6l0.9,0.3
				c-0.1,1.1-0.2,1.9-0.5,2.1c-0.2,0.2-0.5,0.3-1,0.3C5.3-17.8,4-17.8,4-17.8z"/>
			<path class="st9" d="M11.8-30.4v1.7h1.9v1h-1.9v1.6h2.1v1h-6v-1h0.8v-3.1h1v3.1h1.1v-4.2h1V-30.4z M10-23.7
				c-0.3,1.3-0.8,2.3-1.3,3L8-21.3C8.5-22,8.9-22.9,9.1-24L10-23.7z M14-23.9c-0.6,3.1-2.4,5.2-5.4,6.2L8-18.6
				c2.8-0.9,4.5-2.7,5.1-5.4L14-23.9z M11.7-24.7v3.7h-1v-3.7H11.7z M17.8-25.6v2.5c0,1.5-0.3,2.7-0.9,3.6c-0.6,0.8-1.5,1.5-2.8,1.9
				l-0.6-0.9c1.2-0.4,2.1-1,2.6-1.7c0.5-0.8,0.7-1.7,0.7-2.9v-2.5H17.8z M20.7-29.9v1h-2.8c0,0.5-0.1,1-0.2,1.5h2.5v6.7h-1v-5.7
				h-3.6v5.7h-1v-6.7h2.1c0.1-0.5,0.1-1,0.2-1.5h-2.7v-1C14.2-29.9,20.7-29.9,20.7-29.9z M20.8-18.3l-0.7,0.7
				c-0.6-0.8-1.4-1.6-2.4-2.5l0.7-0.6C19.4-19.9,20.2-19.1,20.8-18.3z"/>
			<path class="st9" d="M32.1-26.5v0.9c-0.9,0.6-1.9,1.3-3.1,1.9v0.9h5.5v1H29v3c0,0.8-0.4,1.2-1.2,1.2h-1.7l-0.2-0.9
				c0.5,0,1,0,1.6,0c0.4,0,0.5-0.2,0.5-0.6v-2.6h-5.9v-1H28v-1.4c1.1-0.6,2-1.1,2.6-1.4h-6v-0.9h7.5V-26.5z M34.3-25.9h-1V-28h-9.9
				v2.2h-1V-29h5.5c-0.2-0.5-0.4-1-0.6-1.4l1.1-0.2c0.2,0.5,0.4,1,0.6,1.6h5.3V-25.9z"/>
			<path class="st9" d="M39.2-20.3v2.3h-1v-2.8c-0.6,0.3-1.2,0.6-1.9,0.8L36-20.8c1.5-0.5,2.7-1,3.5-1.7h-3.2v-0.8h4
				c0.2-0.2,0.3-0.5,0.4-0.7h-2.9v-3.7h1.6v-0.9h-3.3v-0.8h3.3v-0.9h1v0.9h3.8v-0.9h1v0.9h3.3v0.8h-3.3v0.9h1.6v3.7h-5.2
				c-0.1,0.3-0.2,0.5-0.4,0.7h7.1v0.8h-3c0.8,0.7,1.9,1.2,3.4,1.6l-0.4,0.8c-0.6-0.2-1.2-0.4-1.7-0.7v1.7c0,0.7-0.4,1.1-1.2,1.1
				h-1.1l-0.2-0.8h1c0.4,0,0.5-0.2,0.5-0.5v-1h-2.9v2.7h-1v-2.7H39.2z M45.9-26.3v-0.8h-7.1v0.8H45.9z M45.9-25.6h-7.1v0.8h7.1
				V-25.6z M42.8-22v1H46c-0.8-0.4-1.3-0.9-1.8-1.5h-3.6c-0.5,0.5-1.1,1-1.8,1.5h3.1v-1H42.8z M40.4-28.7v0.9h3.8v-0.9H40.4z"/>
		</g>
	</g>
</g>
<g id="RectEndPoint5" transform="translate(222,261)">
	<rect x="-4.7" y="-38" class="st5" width="97" height="50"/>
	<rect x="-6.7" y="-40" class="st6" width="97" height="50"/>
	<g transform="translate(34.5,9)">
		<g class="st8">
			<path class="st9" d="M-1.7-17.6h-1v-4.9c-0.9,0.3-1.8,0.5-2.8,0.8l-0.5-1c2.4-0.5,4.4-1.1,6.1-2c-0.6-0.5-1.5-1.1-2.5-1.7
				l0.9-0.5c1.1,0.7,1.9,1.2,2.5,1.8c1.4-0.9,2.5-1.8,3.1-3h-5.2c-1,0.9-2.2,1.7-3.6,2.4l-0.7-0.9c2.4-1,4-2.3,4.8-3.8l1.1,0.1
				c-0.2,0.4-0.5,0.8-0.8,1.2h5.5v0.9c-1,1.9-2.8,3.5-5.4,4.7h5.8v5.9h-1v-0.8h-6.3C-1.7-18.4-1.7-17.6-1.7-17.6z M4.6-22.6h-6.3
				v3.2h6.3V-22.6z"/>
			<path class="st9" d="M11.7-24.9c0,0.5,0,1-0.1,1.5h6.5v5.9h-1v-4.9h-5.6c-0.3,2.1-1.1,3.7-2.3,4.8l-0.8-0.7
				c1.5-1.4,2.2-3.6,2.2-6.6V-30h1v3.3h4.1v-3.7h1v3.7h3.2v1h-8.3v0.8C11.6-24.9,11.7-24.9,11.7-24.9z"/>
		</g>
	</g>
</g>
<g id="RectEndPoint3" transform="translate(222,129)">
	<rect x="-4.7" y="-38" class="st5" width="97" height="50"/>
	<rect x="-6.7" y="-40" class="st6" width="97" height="50"/>
	<g transform="translate(34.5,9)">
		<g class="st8">
			<path class="st9" d="M-2.1-28.6c0.3-0.6,0.5-1.2,0.8-1.9l1,0.2c-0.2,0.6-0.5,1.1-0.7,1.7h7.1v1h-7.6c-0.6,1.2-1.3,2.2-2.1,3.2H0
				v-2.1h1v2.1h4.3v0.9H1v2.1h5.3v1H1v3H0v-3h-5.6v-1H0v-2.1h-4.7l-0.2-0.9c0.8-0.8,1.6-1.9,2.3-3.2h-2.8v-1
				C-5.4-28.6-2.1-28.6-2.1-28.6z"/>
			<path class="st9" d="M12.2-30.3v3.7H13v0.9H9.8v0.7c0,0.5,0,0.9,0,1.3h2.6v5.8h-1v-4.9H9.7c-0.2,2.3-0.6,4-1.2,5.2l-0.7-0.6
				c0.7-1.4,1-3.7,1-6.8v-5h1v3.5h1.5v-3.7L12.2-30.3L12.2-30.3z M15.8-29.2c0.2-0.4,0.4-0.9,0.4-1.4l1,0.1
				c-0.1,0.4-0.3,0.8-0.4,1.2H20v5.9h-3.2l-0.2,0.3c-0.4,0.7-1.1,1.3-2,1.7h2.7v-1.5h1v1.5h2.4v1h-2.4v2.6h-1v-2.6H13v-1h1.4
				L14-21.9c0.8-0.4,1.4-0.8,1.7-1.4h-2.1v-5.9C13.6-29.2,15.8-29.2,15.8-29.2z M16.4-26.7v-1.6h-1.8v1.6H16.4z M16.4-25.8h-1.8v1.7
				h1.5C16.3-24.7,16.3-25.2,16.4-25.8z M19.1-25.8h-1.8c0,0.6-0.1,1.2-0.2,1.7h2V-25.8z M17.3-26.7h1.8v-1.6h-1.8V-26.7z"/>
		</g>
	</g>
</g>
<g id="RectEndPoint7" transform="translate(222,63)">
	<rect x="-4.7" y="-38" class="st5" width="97" height="50"/>
	<rect x="-6.7" y="-40" class="st6" width="97" height="50"/>
	<g transform="translate(27.5,9)">
		<g class="st8">
			<path class="st9" d="M-2.6-30.5v1h2.8c0,1.9-0.2,3-0.4,3.4c-0.3,0.4-0.7,0.6-1.4,0.6c-0.3,0-0.6,0-0.9,0l-0.2-0.8
				c0.4,0,0.7,0,1,0.1c0.4,0,0.7-0.1,0.8-0.4c0.1-0.2,0.2-0.9,0.2-1.9h-1.9C-2.9-27-3.7-25.8-5.1-25l-0.7-0.7c1.2-0.6,2-1.6,2.2-2.8
				h-2v-0.9h2.1v-1h0.9C-2.6-30.4-2.6-30.5-2.6-30.5z M3.2-20.5v0.9h-8.9v-0.9H3.2z M-4.5-24.1V-25h8.8v0.5
				c-0.2,0.8-0.4,1.5-0.6,2.1H6c0,2.5-0.3,3.9-0.8,4.3c-0.4,0.3-1.2,0.4-2.5,0.4h-1l-0.3-0.9c0.4,0,0.9,0,1.3,0
				c0.9,0,1.5-0.1,1.8-0.3C4.8-19,5-19.9,5-21.5h-8.5c0.4-0.8,0.7-1.6,0.9-2.2l1,0.1c-0.2,0.4-0.4,0.9-0.5,1.2h4.9
				c0.2-0.5,0.4-1.1,0.5-1.7H-4.5z M5.8-29.6v3.8H1.4v-3.8H5.8z M4.9-28.7H2.3v2.1h2.6C4.9-26.6,4.9-28.7,4.9-28.7z"/>
			<path class="st9" d="M11.4-21c-1,0.3-2.2,0.6-3.4,0.8l-0.1-1c1.4-0.2,2.5-0.4,3.6-0.7v0.9C11.5-21,11.4-21,11.4-21z M8.1-28.8
				v-0.9h4.6L12-24h1c0,3.2-0.2,5.1-0.4,5.6c-0.3,0.5-0.9,0.7-1.8,0.7c-0.4,0-0.7,0-1.1,0l-0.3-0.9c0.5,0.1,0.9,0.1,1.1,0.1
				c0.7,0,1.1-0.2,1.3-0.7c0.1-0.4,0.2-1.7,0.2-3.9H8.3L9-27.9h0.9L9.4-24H11l0.6-4.8H8.1z M16.6-28.4v-2h1v2h2.7v4.8h-2.7v0.3
				c0,1.2-0.2,2.2-0.6,3c1.1,0.9,2.5,1.5,4,1.6l-0.3,0.9c-1.6-0.1-3.1-0.7-4.3-1.7c-0.6,0.8-1.5,1.4-2.8,1.8l-0.5-0.9
				c1.2-0.4,2.1-1,2.6-1.6c-0.7-0.7-1.3-1.5-1.8-2.4l0.8-0.5c0.4,0.8,0.9,1.5,1.5,2c0.3-0.7,0.4-1.4,0.4-2.3v-0.3H14v-4.8h2.6V-28.4
				z M16.6-27.5h-1.7v3h1.7V-27.5z M19.3-27.5h-1.8v3h1.8V-27.5z"/>
			<path class="st9" d="M24.9-26.2v6.1c0.4-0.4,0.9-0.8,1.4-1.3l0.3,1.1c-0.8,0.8-1.7,1.5-2.6,2.1l-0.4-0.9c0.2-0.2,0.3-0.4,0.3-0.6
				v-5.4h-2v-1h3C24.9-26.1,24.9-26.2,24.9-26.2z M26-28.1l-0.7,0.7c-0.6-0.7-1.3-1.4-2.3-2.2l0.7-0.7C24.6-29.6,25.3-28.9,26-28.1z
				 M26.7-28.8v-1h7.9v1h-2.9v3.9h2.7v0.9h-2.7v4.8h3.2v1h-8.6v-1h1.4v-7.4h1v7.4h2v-9.7h-4V-28.8z"/>
		</g>
	</g>
</g>
<g id="textgroup" transform="translate(0,0)">
</g>
<g id="assistantgroup" transform="translate(0,0)">
</g>
<g>
	<path class="st9" d="M551.9,240.1c-0.8,1.6-2,2.9-3.8,4.1l-0.3-1c1.5-1,2.5-2.2,3.2-3.5L551.9,240.1z M552.6,243.3
		c-0.4,0.8-0.9,1.5-1.5,2.2v6.9h-1v-5.8c-0.6,0.5-1.2,1-1.8,1.5l-0.3-1c1.7-1.2,3-2.6,3.7-4.1L552.6,243.3z M560.5,244v1h-2.3v6.1
		c0,0.8-0.5,1.2-1.4,1.2h-2.1l-0.2-1c0.7,0,1.3,0.1,1.9,0.1c0.4,0,0.7-0.2,0.7-0.5V245h-4.4v-1H560.5z M559.9,240.5v1h-6.7v-1H559.9
		z"/>
	<path class="st9" d="M565.3,249.1c-1,0.3-2.2,0.6-3.4,0.8l-0.1-1c1.4-0.2,2.5-0.4,3.6-0.7V249.1z M562,241.2v-0.9h4.6l-0.7,5.8h1
		c0,3.2-0.2,5.1-0.4,5.6c-0.3,0.5-0.9,0.7-1.8,0.7c-0.4,0-0.7,0-1.1,0l-0.3-0.9c0.5,0.1,0.9,0.1,1.1,0.1c0.7,0,1.1-0.2,1.3-0.7
		c0.1-0.4,0.2-1.7,0.2-3.9h-3.7l0.7-4.8l0.9,0l-0.6,3.8h1.6l0.6-4.8H562z M570.5,241.6v-2h1v2h2.7v4.8h-2.7v0.3c0,1.2-0.2,2.2-0.6,3
		c1.1,0.9,2.5,1.5,4,1.6l-0.3,0.9c-1.6-0.1-3.1-0.7-4.3-1.7c-0.6,0.8-1.5,1.4-2.8,1.8l-0.5-0.9c1.2-0.4,2.1-1,2.6-1.6
		c-0.7-0.7-1.3-1.5-1.8-2.4l0.8-0.5c0.4,0.8,0.9,1.5,1.5,2c0.3-0.7,0.4-1.4,0.4-2.3v-0.3h-2.6v-4.8H570.5z M570.5,242.5h-1.7v3h1.7
		V242.5z M573.2,242.5h-1.8v3h1.8V242.5z"/>
	<path class="st9" d="M578.9,243.9v6.1c0.4-0.4,0.9-0.8,1.4-1.3l0.3,1.1c-0.8,0.8-1.7,1.5-2.6,2.1l-0.4-0.9c0.2-0.2,0.3-0.4,0.3-0.6
		v-5.4h-2v-1H578.9z M579.9,241.9l-0.7,0.7c-0.6-0.7-1.3-1.4-2.3-2.2l0.7-0.7C578.5,240.4,579.3,241.2,579.9,241.9z M580.6,241.2v-1
		h7.9v1h-2.9v3.9h2.7v0.9h-2.7v4.8h3.2v1h-8.6v-1h1.4v-7.4h1v7.4h2v-9.7H580.6z"/>
</g>
</svg>
