<?xml version="1.0" encoding="UTF-8"?>
<svg width="32px" height="32px" viewBox="0 0 32 32" version="1.1" xmlns="http://www.w3.org/2000/svg" xmlns:xlink="http://www.w3.org/1999/xlink">
    <!-- Generator: Sketch 52.2 (67145) - http://www.bohemiancoding.com/sketch -->
    <title>腾讯云 TStack</title>
    <desc>Created with Sketch.</desc>
    <g id="腾讯云-TStack" stroke="none" stroke-width="1" fill="none" fill-rule="evenodd">
        <g id="Group-21-Copy-2">
            <rect id="Rectangle-Copy-5" fill-rule="nonzero" x="0" y="0" width="32" height="32"></rect>
            <g id="97dc741249d0a8b5e397856b2a288266" fill="#00A4FF">
                <path d="M16,2 C23.7319865,2 30,8.2680135 30,16 C30,23.7319865 23.7319865,30 16,30 C8.2680135,30 2,23.7319865 2,16 C2.00881727,8.27166868 8.27166868,2.00881727 16,2 Z M16,1.33226763e-15 C7.163444,-5.41083001e-16 1.082166e-15,7.163444 0,16 C-1.082166e-15,24.836556 7.163444,32 16,32 C24.836556,32 32,24.836556 32,16 C32,11.7565362 30.3142906,7.68687356 27.3137085,4.6862915 C24.3131264,1.68570945 20.2434638,2.5983722e-16 16,1.33226763e-15 Z" id="Shape" fill-rule="nonzero"></path>
                <rect id="Rectangle" x="11.979" y="17.021" width="8" height="2"></rect>
                <g id="Group" transform="translate(7.000000, 8.000000)">
                    <rect id="Rectangle" x="8" y="12.985" width="2" height="2"></rect>
                    <path d="M14.464,6.093 C14.4837797,5.90330663 14.4937929,5.71272171 14.494,5.522 C14.494,2.48443388 12.0315661,0.022 8.994,0.022 C5.95643388,0.022 3.494,2.48443388 3.494,5.522 C3.49421376,5.71574159 3.50456123,5.9093394 3.525,6.102 C1.3017525,6.61658752 -0.18433539,8.71386541 0.0671395014,10.9819902 C0.318614393,13.250115 2.22802664,14.970922 4.51,14.986 L4.533,14.986 L6,14.986 L6,12.986 L4.436,12.986 C3.18595732,12.9373959 2.16427501,11.9723028 2.04459774,10.7270533 C1.92492047,9.48180373 2.74409507,8.33979124 3.962,8.054 L5.7,7.665 L5.514,5.894 C5.5008418,5.77043433 5.49416598,5.64626417 5.494,5.522 C5.494,3.58900338 7.06100338,2.022 8.994,2.022 C10.9269966,2.022 12.494,3.58900338 12.494,5.522 C12.4939389,5.64424488 12.4875972,5.7664059 12.475,5.888 L12.291,7.669 L14.041,8.048 C15.2718601,8.33104694 16.098292,9.48767375 15.9672292,10.7438405 C15.8361664,12.0000072 14.7887783,12.9611281 13.526,12.984 L13.311,12.984 L12,12.984 L12,14.984 L13.54,14.984 C15.8225591,14.9542088 17.7212015,13.220067 17.9571665,10.9495419 C18.1931316,8.6790169 16.6916545,6.59151658 14.464,6.093 Z" id="Path"></path>
                </g>
            </g>
        </g>
    </g>
</svg>