<?xml version="1.0" encoding="UTF-8"?>
<svg width="32px" height="32px" viewBox="0 0 32 32" version="1.1" xmlns="http://www.w3.org/2000/svg" xmlns:xlink="http://www.w3.org/1999/xlink">
    <!-- Generator: Sketch 52.2 (67145) - http://www.bohemiancoding.com/sketch -->
    <title>腾讯云 TBDS</title>
    <desc>Created with Sketch.</desc>
    <g id="腾讯云-TBDS" stroke="none" stroke-width="1" fill="none" fill-rule="evenodd">
        <g id="Group-5-Copy">
            <rect id="Rectangle" fill-rule="nonzero" x="0" y="0" width="32" height="32"></rect>
            <g id="Group-4" transform="translate(1.000000, 3.000000)">
                <path d="M27.9886219,26 C27.278699,25.9957131 26.6243016,25.6150891 26.2693467,25 L1,25 L1,8 L2.99915717,8 L2.99915717,23 L26.2693467,23 C26.7552074,22.1581503 27.7757764,21.7877158 28.68819,22.1220358 C29.6006038,22.4563558 30.1405959,23.3985996 29.9680219,24.3552416 C29.7954477,25.3118835 28.9602907,26.0058471 27.9886219,26 Z" id="_复合路径_-path" fill="#00A4FF"></path>
                <path d="M27.0008307,3.00018082 L3.73050062,3.00018082 C3.27808294,3.78411685 2.35575002,4.16631841 1.48174618,3.93203247 C0.607742338,3.69774653 1.10976184e-16,2.90539218 0,2.00018082 C-1.10976284e-16,1.09496946 0.607742338,0.302615105 1.48174618,0.0683291662 C2.35575002,-0.165956773 3.27808294,0.216244788 3.73050062,1.00018082 L29,1.00018082 L29,18.0001808 L27.0008307,18.0001808 L27.0008307,3.00018082 Z" id="_复合路径_-path" fill="#00A4FF"></path>
                <g id="Group-3" transform="translate(8.000000, 6.000000)" fill-rule="nonzero">
                    <path d="M11.0003662,10 L13.3263688,10 C12.2029049,12.3649473 9.79239596,14 7,14 C3.13400675,14 4.7783999e-13,10.8659932 4.7783999e-13,7 C4.7783999e-13,4.20760404 1.63505267,1.7970951 4,0.673631164 L4,2.99963381 C2.7855533,3.91184014 2,5.36418217 2,7 C2,9.76142375 4.23857625,12 7,12 C8.63581783,12 10.0881599,11.2144467 11.0003662,10 Z" id="Combined-Shape" fill="#00A4FF"></path>
                    <path d="M7,1 L7,7 L13,7 C13,3.6862915 10.3137085,1 7,1 Z" id="Combined-Shape" stroke="#00A4FF" stroke-width="2"></path>
                </g>
            </g>
        </g>
    </g>
</svg>