<?xml version="1.0" encoding="utf-8"?>
<!-- Generator: Adobe Illustrator 21.1.0, SVG Export Plug-In . SVG Version: 6.00 Build 0)  -->
<svg version="1.1" id="图层_1" xmlns="http://www.w3.org/2000/svg" xmlns:xlink="http://www.w3.org/1999/xlink" x="0px" y="0px"
	 viewBox="0 0 48 48" style="enable-background:new 0 0 48 48;" xml:space="preserve">
<style type="text/css">
	.st0{fill:#00A4FF;}
	.st1{fill:#334966;stroke:#334966;stroke-width:0.2445;stroke-miterlimit:10;}
	.st2{fill:none;stroke:#334966;stroke-width:2;stroke-linecap:round;stroke-miterlimit:10;}
</style>
<path class="st0" d="M26.7,21.5V10.8c0,0,8.4-1,10.3,10.8L26.7,21.5z"/>
<title>企业组织-48px</title>
<desc>Created with Sketch.</desc>
<g>
	<g>
		<g>
			<path class="st1" d="M45.1,19.2l-2.6,0c-0.4-1.7-1.1-3.3-2-4.8l1.9-1.9c0.7-0.7,0.7-1.8,0-2.5l-4.3-4.3c-0.7-0.7-1.8-0.7-2.5,0
				l-1.9,1.9c-1.5-0.9-3.1-1.6-4.8-2V2.9c0-1-0.8-1.8-1.8-1.8H21c-1,0-1.8,0.8-1.8,1.8l0,2.6c-1.7,0.4-3.3,1.1-4.8,2l-1.9-1.9
				c-0.7-0.7-1.8-0.7-2.5,0L5.6,9.9c-0.7,0.7-0.7,1.8,0,2.5l1.9,1.9c-0.9,1.5-1.6,3.1-2,4.8H2.9c-1,0-1.8,0.8-1.8,1.8V27
				c0,1,0.8,1.8,1.8,1.8l2.7,0c0.4,1.7,1.1,3.3,2,4.8l-1.9,1.9c-0.7,0.7-0.7,1.8,0,2.5l4.3,4.3c0.7,0.7,1.8,0.7,2.5,0l1.9-1.9
				c1.5,0.9,3.1,1.6,4.8,2v2.7c0,1,0.8,1.8,1.8,1.8H27c1,0,1.8-0.8,1.8-1.8l0-2.7c1.7-0.4,3.3-1.1,4.8-2l1.9,1.9
				c0.7,0.7,1.8,0.7,2.5,0l4.3-4.3c0.7-0.7,0.7-1.8,0-2.5l-1.9-1.9c0.9-1.5,1.6-3.1,2-4.8h2.7c1,0,1.8-0.8,1.8-1.8V21
				C46.9,20,46.1,19.2,45.1,19.2z M45.1,27h-2.7c-0.8,0-1.5,0.5-1.7,1.3c-0.4,1.5-1,3-1.8,4.4c-0.4,0.7-0.3,1.6,0.3,2.2l1.9,1.9
				l-4.3,4.3l-1.9-1.9c-0.6-0.6-1.5-0.7-2.2-0.3c-1.4,0.8-2.8,1.4-4.4,1.8c-0.8,0.2-1.3,0.9-1.3,1.7v2.7H21v-2.7
				c0-0.8-0.5-1.5-1.3-1.7c-1.5-0.4-3-1-4.4-1.8c-0.3-0.2-0.6-0.2-0.9-0.2c-0.5,0-0.9,0.2-1.3,0.5l-1.9,1.9l-4.3-4.3l1.9-1.9
				c0.6-0.6,0.7-1.5,0.3-2.2c-0.8-1.4-1.4-2.8-1.8-4.4C7.1,27.6,6.3,27,5.5,27H2.9V21h2.7c0.8,0,1.5-0.5,1.7-1.3
				c0.4-1.5,1-3,1.8-4.4c0.4-0.7,0.3-1.6-0.3-2.2l-1.9-1.9l4.3-4.3l1.9,1.9c0.6,0.6,1.5,0.7,2.2,0.3c1.4-0.8,2.8-1.4,4.4-1.8
				C20.4,7,21,6.3,21,5.5V2.9H27v2.6c0,0.8,0.5,1.5,1.3,1.7c1.5,0.4,3,1,4.4,1.8c0.7,0.4,1.6,0.3,2.2-0.3l1.9-1.9l4.3,4.3l-1.9,1.9
				c-0.6,0.6-0.7,1.5-0.3,2.2c0.8,1.4,1.4,2.8,1.8,4.4c0.2,0.8,0.9,1.3,1.7,1.3h2.6V27z"/>
		</g>
	</g>
	<g>
		<g>
			<path class="st1" d="M36.3,16.1c-0.3-0.4-0.8-0.5-1.2-0.3c-0.4,0.3-0.5,0.8-0.3,1.2c1.2,1.9,1.9,4,2.1,6.2H24.7V11.2
				c1.7,0.1,3.4,0.6,4.9,1.3c0.4,0.2,1,0,1.2-0.4c0.2-0.4,0-1-0.4-1.2c-2.1-1-4.3-1.6-6.6-1.6c-0.5,0-0.9,0.4-0.9,0.9v1.5
				c-6.5,0.5-11.6,5.9-11.6,12.5c0,6.9,5.6,12.5,12.5,12.5c6.6,0,12-5.1,12.5-11.6h1.5c0.5,0,0.9-0.4,0.9-0.9
				C38.6,21.3,37.8,18.5,36.3,16.1z M22.9,13.6v8.5l-6-6C18.5,14.7,20.6,13.7,22.9,13.6z M23.8,34.9c-5.9,0-10.7-4.8-10.7-10.7
				c0-2.6,1-5,2.5-6.9l7.5,7.5c0,0,0,0,0,0c0.2,0.2,0.4,0.3,0.6,0.3h10.7C34,30.6,29.4,34.9,23.8,34.9z"/>
		</g>
	</g>
</g>
<path class="st2" d="M35.6,16.8c-0.2-0.4-0.5-0.7-0.7-1.1c-1.5-1.9-3.6-3.3-4.9-4"/>
</svg>
