<?xml version="1.0" encoding="UTF-8"?>
<svg width="48px" height="48px" viewBox="0 0 48 48" version="1.1" xmlns="http://www.w3.org/2000/svg" xmlns:xlink="http://www.w3.org/1999/xlink">
    <!-- Generator: Sketch 53 (72520) - https://sketchapp.com -->
    <title>课程授权</title>
    <desc>Created with Sketch.</desc>
    <g id="课程授权" stroke="none" stroke-width="1" fill="none" fill-rule="evenodd">
        <g id="1541402499386-48x48">
            <rect id="矩形" x="0" y="0" width="48" height="48"></rect>
            <g id="编组" transform="translate(1.000000, 3.000000)">
                <polygon id="路径" stroke="#FFFFFF" stroke-width="2" points="0 0 0 41 20.3027756 41 23 42.7981496 25.6972244 41 46 41 46 0 26.3027756 0 23 2.20185043 19.6972244 0"></polygon>
                <polygon id="路径" fill="#FFFFFF" fill-rule="nonzero" opacity="0.5" points="23 10 26 7 39 7 39 31 36 34 23 34"></polygon>
                <polygon id="路径" fill="#FFFFFF" fill-rule="nonzero" points="7 20 29 20 29 22 7 22"></polygon>
                <polygon id="路径" fill="#FFFFFF" fill-rule="nonzero" points="7 27 29 27 29 29 7 29"></polygon>
                <rect id="矩形" fill="#FFFFFF" fill-rule="nonzero" x="7" y="13" width="12" height="2"></rect>
            </g>
        </g>
    </g>
</svg>