<?xml version="1.0" encoding="UTF-8"?>
<svg width="48px" height="48px" viewBox="0 0 48 48" version="1.1" xmlns="http://www.w3.org/2000/svg" xmlns:xlink="http://www.w3.org/1999/xlink">
    <!-- Generator: Sketch 53 (72520) - https://sketchapp.com -->
    <title>云上实践</title>
    <desc>Created with Sketch.</desc>
    <g id="云上实践" stroke="none" stroke-width="1" fill="none" fill-rule="evenodd">
        <g id="1541159461412-48x48">
            <rect id="矩形" x="0" y="0" width="48" height="48"></rect>
            <rect id="Rectangle-23" stroke="#FFFFFF" stroke-width="2" x="1" y="5" width="46" height="38"></rect>
            <path d="M15,36 C11.1340068,36 8,32.8659932 8,29 C8,25.1340068 11.1340068,22 15,22 C15.0965182,22 15.1925801,22.0019534 15.2881485,22.0058229 C16.1468327,19.1113422 18.8268511,17 22,17 C25.8659932,17 29,20.1340068 29,24 C29,24.0277177 28.9998389,24.0553978 28.9995176,24.0830394 C29.3248781,24.0284269 29.6591193,24 30,24 C33.3137085,24 36,26.6862915 36,30 C36,33.3137085 33.3137085,36 30,36 C29.6592878,36 29.3252085,35.9716012 29,35.9170416 L29,36 L15,36 Z" id="Combined-Shape-Copy" fill-opacity="0.5" fill="#FFFFFF" fill-rule="nonzero"></path>
            <polygon id="Combined-Shape" fill="#FFFFFF" fill-rule="nonzero" points="34 16 34 12 36 12 36 16 40 16 40 18 36 18 36 22 34 22 34 18 30 18 30 16"></polygon>
        </g>
    </g>
</svg>