<svg id="图层_1" data-name="图层 1" xmlns="http://www.w3.org/2000/svg" viewBox="0 0 48 48"><defs><style>.cls-1{fill:#00a4ff;}</style></defs><title>48x48</title><path class="cls-1" d="M42,5h2V3H4V27.83C4,41.63,23.9,47,24,47h0c.1,0,20-5.37,20-19.17V11H42V27.83C42,38.8,27,44,24,44.91,21,44,6,38.8,6,27.83V5H42Z"/><path class="cls-1" d="M28,24.87l.07-.13a4.22,4.22,0,0,0,.26-.67.14.14,0,0,1,0-.07h4.92a2,2,0,1,0,0-2H28.36a4,4,0,0,0-1.42-2.16L29.29,14A2,2,0,0,0,29,10a2,2,0,0,0-1.57,3.23l-2.32,5.82A4.07,4.07,0,0,0,24.5,19a4,4,0,0,0-2.43.84L16,14.4a1.75,1.75,0,0,0,0-.4,2,2,0,1,0-2,2,1.8,1.8,0,0,0,.62-.11l6.21,5.52A4,4,0,0,0,20.5,23h0a3.89,3.89,0,0,0,.32,1.56l-4.16,3.56A2.08,2.08,0,0,0,16,28a2,2,0,1,0,2,2,2.22,2.22,0,0,0,0-.37l4.08-3.49.09.06c.09.07.19.13.3.2l.36.2.23.1a3.82,3.82,0,0,0,1.47.3A4,4,0,0,0,26,26.7l4.14,5.51A2.1,2.1,0,0,0,30,33a2,2,0,1,0,2-2l-.23,0-4.16-5.54.05-.06A3.94,3.94,0,0,0,28,24.87ZM24.5,25a2,2,0,1,1,2-2A2,2,0,0,1,24.5,25Z"/></svg>