<?xml version="1.0" encoding="UTF-8"?>
<svg width="32px" height="32px" viewBox="0 0 32 32" version="1.1" xmlns="http://www.w3.org/2000/svg" xmlns:xlink="http://www.w3.org/1999/xlink">
    <!-- Generator: Sketch 52.6 (67491) - http://www.bohemiancoding.com/sketch -->
    <title>游戏服务-32px</title>
    <desc>Created with Sketch.</desc>
    <g id="游戏服务-32px" stroke="none" stroke-width="1" fill="none" fill-rule="evenodd">
        <rect id="Rectangle-Copy" fill="#444444" opacity="0" x="0" y="0" width="32" height="32"></rect>
        <g id="image-2" transform="translate(0.000000, 3.000000)" fill="#00A4FF">
            <path d="M0,0 L0,2 L30,2 L30,20 L32,20 L32,0 L0,0 Z M2,6 L0,6 L0,26 L32,26 L32,24 L2,24 L2,6 Z M10,8 L10,12 L6,12 L6,14 L10,14 L10,18 L12,18 L12,14 L16,14 L16,12 L12,12 L12,8 L10,8 Z M20,12 L20,14 L22,14 L22,12 L20,12 Z M24,12 L24,14 L26,14 L26,12 L24,12 Z" id="Shape"></path>
        </g>
    </g>
</svg>