<?xml version="1.0" encoding="utf-8"?>
<!-- Generator: Adobe Illustrator 22.0.0, SVG Export Plug-In . SVG Version: 6.00 Build 0)  -->
<svg version="1.1" id="图层_1" xmlns="http://www.w3.org/2000/svg" xmlns:xlink="http://www.w3.org/1999/xlink" x="0px" y="0px"
	 width="48px" height="48px" viewBox="0 0 48 48" style="enable-background:new 0 0 48 48;" xml:space="preserve">
<path style="fill:#00A4FF;" d="M24.766,46.046l-0.294-0.088C3.936,39.797,4.718,26.487,4.761,25.923L4.758,2H44.25v2H6.758v22
	C6.722,26.569,6.139,38.245,24.75,43.953C42.551,38.201,42.758,26.122,42.758,26V10h2v16c0,0.561-0.224,13.804-19.698,19.953
	L24.766,46.046z"/>
<path style="fill:#00A4FF;" d="M19.009,27.119h-4.987c-1.049,0-1.903-0.854-1.903-1.903V14.092h2v11.027h4.792V14.092h2v11.124
	C20.912,26.266,20.059,27.119,19.009,27.119z"/>
<path style="fill:#00A4FF;" d="M28.545,27.119h-4.083c-1.049,0-1.903-0.854-1.903-1.903v-9.318c0-1.049,0.854-1.903,1.903-1.903
	h4.083v2h-3.986v9.125h3.986V27.119z"/>
<path style="fill:#00A4FF;" d="M35.588,27.062h-4.083v-2h3.986v-9.125h-3.986v-2h4.083c1.05,0,1.903,0.854,1.903,1.903v9.318
	C37.491,26.209,36.638,27.062,35.588,27.062z"/>
<rect x="30.072" y="13.95" style="fill:#00A4FF;" width="2" height="13.1"/>
<rect x="23.848" y="19.701" style="fill:#00A4FF;" width="4.515" height="2"/>
<rect x="31.072" y="19.428" style="fill:#00A4FF;" width="5.419" height="2"/>
<rect x="15.516" y="14" style="fill:#00A4FF;" width="2" height="11.739"/>
</svg>
