<?xml version="1.0" encoding="UTF-8"?>
<svg width="16px" height="16px" viewBox="0 0 16 16" version="1.1" xmlns="http://www.w3.org/2000/svg" xmlns:xlink="http://www.w3.org/1999/xlink">
    <!-- Generator: Sketch 52.6 (67491) - http://www.bohemiancoding.com/sketch -->
    <title>智能机器人</title>
    <desc>Created with Sketch.</desc>
    <g id="智能机器人" stroke="none" stroke-width="1" fill="none" fill-rule="evenodd">
        <rect id="Rectangle" fill-rule="nonzero" x="0" y="0" width="16" height="16"></rect>
        <path d="M9,2 L9,4 L16,4 L16,16 L0,16 L0,4 L7,4 L7,2 L6,2 L6,0 L10,0 L10,2 L9,2 Z M2,6 L2,14 L14,14 L14,6 L2,6 Z M4,9 L6,9 L6,11 L4,11 L4,9 Z M10,9 L12,9 L12,11 L10,11 L10,9 Z" id="Combined-Shape" fill="#00A4FF" fill-rule="nonzero"></path>
    </g>
</svg>