<?xml version="1.0" encoding="utf-8"?>
<!-- Generator: Adobe Illustrator 19.0.0, SVG Export Plug-In . SVG Version: 6.00 Build 0)  -->
<svg version="1.1" id="图层_1" xmlns="http://www.w3.org/2000/svg" xmlns:xlink="http://www.w3.org/1999/xlink" x="0px" y="0px"
	 viewBox="330 -50 820 260" style="enable-background:new 330 -50 820 260;" xml:space="preserve">
<style type="text/css">
	.st0{display:none;opacity:5.000000e-02;}
	.st1{display:inline;}
	.st2{display:none;opacity:0.5;fill:none;stroke:#000000;stroke-miterlimit:10;enable-background:new    ;}
	.st3{display:none;opacity:0.2;enable-background:new    ;}
	.st4{fill:url(#SVGID_1_);}
	.st5{opacity:0.2;}
	.st6{fill:url(#SVGID_2_);}
	.st7{fill:url(#SVGID_3_);}
	.st8{fill:url(#SVGID_4_);}
	.st9{fill:url(#SVGID_5_);}
	.st10{fill:url(#SVGID_6_);}
	.st11{fill:url(#SVGID_7_);}
	.st12{fill:url(#SVGID_8_);}
	.st13{fill:#C2C5CA;}
	.st14{fill:#333333;}
</style>
<g class="st0">
	<rect x="330" y="-52" class="st1" width="820" height="2"/>
	<rect x="330" y="-32" class="st1" width="820" height="2"/>
	<rect x="330" y="-12" class="st1" width="820" height="2"/>
	<rect x="331" y="8" class="st1" width="820" height="2"/>
	<rect x="331" y="28" class="st1" width="820" height="2"/>
	<rect x="331" y="48" class="st1" width="820" height="2"/>
	<polygon class="st1" points="331,68 330,68 330,70 331,70 1150,70 1151,70 1151,68 1150,68 	"/>
	<rect x="330" y="88" class="st1" width="820" height="2"/>
	<rect x="330" y="108" class="st1" width="820" height="2"/>
	<rect x="330" y="128" class="st1" width="820" height="2"/>
	<rect x="331" y="148" class="st1" width="820" height="2"/>
	<rect x="331" y="168" class="st1" width="820" height="2"/>
	<rect x="331" y="188" class="st1" width="820" height="2"/>
	<rect x="331" y="208" class="st1" width="820" height="2"/>
</g>
<g class="st0">
	<rect x="349" y="-89" class="st1" width="2" height="299"/>
	<rect x="369" y="-89" class="st1" width="2" height="299"/>
	<rect x="389" y="-89" class="st1" width="2" height="299"/>
	<rect x="409" y="-89" class="st1" width="2" height="299"/>
	<rect x="429" y="-87" class="st1" width="2" height="297"/>
	<rect x="449" y="-87" class="st1" width="2" height="297"/>
	<rect x="469" y="-87" class="st1" width="2" height="297"/>
	<polygon class="st1" points="489,208.4 489,210 491,210 491,208.4 491,-89 489,-89 	"/>
	<rect x="509" y="-89" class="st1" width="2" height="299"/>
	<rect x="529" y="-89" class="st1" width="2" height="299"/>
	<rect x="549" y="-89" class="st1" width="2" height="299"/>
	<rect x="569" y="-87" class="st1" width="2" height="297"/>
	<rect x="589" y="-87" class="st1" width="2" height="297"/>
	<rect x="609" y="-87" class="st1" width="2" height="297"/>
	<rect x="629" y="-87" class="st1" width="2" height="297"/>
	<rect x="649" y="-88" class="st1" width="2" height="298"/>
	<rect x="669" y="-88" class="st1" width="2" height="298"/>
	<rect x="689" y="-88" class="st1" width="2" height="298"/>
	<rect x="709" y="-88" class="st1" width="2" height="298"/>
	<rect x="729" y="-87" class="st1" width="2" height="297"/>
	<rect x="749" y="-87" class="st1" width="2" height="297"/>
	<rect x="769" y="-87" class="st1" width="2" height="297"/>
	<polygon class="st1" points="789,209.2 789,210 791,210 791,209.2 791,-88 789,-88 	"/>
	<rect x="809" y="-88" class="st1" width="2" height="298"/>
	<rect x="829" y="-88" class="st1" width="2" height="298"/>
	<rect x="849" y="-88" class="st1" width="2" height="298"/>
	<rect x="869" y="-87" class="st1" width="2" height="297"/>
	<rect x="889" y="-87" class="st1" width="2" height="297"/>
	<rect x="909" y="-87" class="st1" width="2" height="297"/>
	<rect x="929" y="-87" class="st1" width="2" height="297"/>
	<rect x="949" y="-87" class="st1" width="2" height="297"/>
	<rect x="969" y="-87" class="st1" width="2" height="297"/>
	<polygon class="st1" points="989,209.2 989,210 991,210 991,209.2 991,-88 989,-88 	"/>
	<rect x="1009" y="-88" class="st1" width="2" height="298"/>
	<rect x="1029" y="-88" class="st1" width="2" height="298"/>
	<rect x="1049" y="-88" class="st1" width="2" height="298"/>
	<rect x="1069" y="-87" class="st1" width="2" height="297"/>
	<rect x="1089" y="-87" class="st1" width="2" height="297"/>
	<rect x="1109" y="-87" class="st1" width="2" height="297"/>
	<rect x="1129" y="-87" class="st1" width="2" height="297"/>
	<rect x="1149" y="-87" class="st1" width="2" height="297"/>
</g>
<path class="st2" d="M370.5-10.5h140v140h-140V-10.5z"/>
<path class="st2" d="M570-12h140v140H570V-12z"/>
<path class="st2" d="M770-11h140v140H770V-11z"/>
<path class="st2" d="M970-11h140v140H970V-11z"/>
<rect x="330" y="-51" class="st3" width="820" height="40"/>
<rect x="1110" y="-50" class="st3" width="40" height="260"/>
<rect x="330" y="170" class="st3" width="820" height="40"/>
<rect x="330" y="-50" class="st3" width="40" height="260"/>
<g>
	<g>
		
			<linearGradient id="SVGID_1_" gradientUnits="userSpaceOnUse" x1="487.3163" y1="53.2362" x2="389.8158" y2="150.7368" gradientTransform="matrix(1 0 0 -1 0 160)">
			<stop  offset="0" style="stop-color:#0063FF"/>
			<stop  offset="1" style="stop-color:#00C8DE"/>
		</linearGradient>
		<path class="st4" d="M471.1,27.7L471.1,27.7v-0.1V3h-65v39h65V27.7z M470.1,41h-63v-3.7l0.2,0.3l16.6-10.5l13,10.2l0.1-0.1
			l0.6,0.8L459.3,21l10.6,8.2l0.2-0.2V41z M470.1,26.8l-11.2-8.7l-1.2,1.6l0,0l-20,15.7l-14-11l-0.5,0.7l-16.1,10.2V4h63L470.1,26.8
			L470.1,26.8z M401.1,118h75V63h-75C401.1,63,401.1,118,401.1,118z M402.1,64h73v53h-73C402.1,117,402.1,64,402.1,64z M436.2,92.4
			l7-4.5l-7-4.7V92.4z M438.2,76.1c-6.6,0-11.9,5.3-11.9,11.9c0,6.6,5.3,11.9,11.9,11.9c6.6,0,11.9-5.3,11.9-11.9
			C450.1,81.4,444.8,76.1,438.2,76.1z M438.2,98.4c-5.7,0-10.4-4.6-10.4-10.4s4.6-10.4,10.4-10.4c5.7,0,10.4,4.6,10.4,10.4
			S443.9,98.4,438.2,98.4z M401.1-2v55h75V-2H401.1z M475.1,52h-73V-1h73V52z M418.1,20.9c3.3,0,6-2.7,6-6c0-3.3-2.7-6-6-6
			c-3.3,0-6,2.7-6,6C412.1,18.2,414.8,20.9,418.1,20.9z M417.9,11c2.2,0,3.9,1.8,3.9,3.9c0,2.2-1.8,3.9-3.9,3.9
			c-2.2,0-3.9-1.8-3.9-3.9S415.8,11,417.9,11z M406.1,107h65V68h-65C406.1,68,406.1,107,406.1,107z M407.1,69h63v37h-63
			C407.1,106,407.1,69,407.1,69z M411,109.1h-2v1.9h-2.9v1h2.9v1.7h2V112h60.1v-1H411V109.1z"/>
	</g>
</g>
<g class="st5">
	<g>
		
			<linearGradient id="SVGID_2_" gradientUnits="userSpaceOnUse" x1="484.2552" y1="56.2852" x2="392.7548" y2="147.7858" gradientTransform="matrix(1 0 0 -1 0 160)">
			<stop  offset="0" style="stop-color:#0063FF"/>
			<stop  offset="1" style="stop-color:#00C8DE"/>
		</linearGradient>
		<path class="st6" d="M404,1v49h69V1C473,1,404,1,404,1z M418.5,19.6c-2.5,0-4.5-2-4.5-4.5s2-4.5,4.5-4.5c2.5,0,4.5,2,4.5,4.5
			S421,19.6,418.5,19.6z M404,115h69V66h-69C404,66,404,115,404,115z M438,76.6c6.3,0,11.4,5.1,11.4,11.4s-5.1,11.4-11.4,11.4
			c-6.3,0-11.4-5.1-11.4-11.4S431.7,76.6,438,76.6z"/>
	</g>
</g>
<g class="st5">
	<g>
		
			<linearGradient id="SVGID_3_" gradientUnits="userSpaceOnUse" x1="676.077" y1="61.511" x2="604.4675" y2="133.1205" gradientTransform="matrix(1 0 0 -1 0 160)">
			<stop  offset="0" style="stop-color:#0063FF"/>
			<stop  offset="1" style="stop-color:#00C8DE"/>
		</linearGradient>
		<path class="st7" d="M633.3,61.9l7.3,4l7.3-4l-7.3-4L633.3,61.9z M632.5,70.9l6.9,3.8v-6.6l-6.9-4V70.9z M641.9,74.8l6.9-3.7V64
			l-6.9,4.1V74.8z M599.6,31.7l9.9,72h61.3l10.2-72C681.1,31.7,599.6,31.7,599.6,31.7z M640.6,46.8l-18.3,9.9v19.9l18.3,9.9
			l18.3-9.9V62.3l2.7-1.2v17.2l-21,11.4l-21-11.4V55.3l21-11.4l21,11.4l-2.7,1.5L640.6,46.8z M651.1,61v11.4l-10.5,5.7l-10.5-5.7V61
			l10.5-5.7L651.1,61z"/>
	</g>
</g>
<g>
	<g>
		
			<linearGradient id="SVGID_4_" gradientUnits="userSpaceOnUse" x1="681.4847" y1="58.9988" x2="592.9077" y2="147.5757" gradientTransform="matrix(1 0 0 -1 0 160)">
			<stop  offset="0" style="stop-color:#0063FF"/>
			<stop  offset="1" style="stop-color:#00C8DE"/>
		</linearGradient>
		<path class="st8" d="M679.8,28l3.8-8.1L646.4,2.7l-3.6,7.8l-5.6-15.3l-42.4,15.4l6.3,17.4h-6.9l11.2,80h69l11.8-80H679.8z
			 M646.9,4.1l35.2,16.4l-3.5,7.5h-14.7c0.3-0.4,0.5-0.8,0.7-1.2c1.5-3.3,0.1-7.1-3.2-8.6c-3.3-1.5-7.1-0.1-8.6,3.2
			c-1.1,2.3-0.7,4.8,0.8,6.7h-17.7l-0.1-0.1L646.9,4.1z M663.7,26.4c-0.3,0.6-0.7,1.2-1.2,1.6h-7.4c-1.7-1.6-2.2-4-1.2-6.2
			c1.3-2.7,4.5-3.9,7.2-2.6C663.8,20.5,665,23.7,663.7,26.4z M634.6,28H606l4.7-6l10.2,2.9l0-0.1l0.2,0.2l8.1-13l11.1,3.5L634.6,28z
			 M596.3,11.3l40.2-14.6L642,12l-1.1,2.3l-12.3-3.9l-0.2,0.5l-7.9,12.6l-10.5-2.9l-0.1,0.3l-5.6,7.1h-2.1L596.3,11.3z M673.4,107.1
			h-66.8l-10.9-78h89.1L673.4,107.1z M649.4,60.1l-0.4,2.1c-0.1,0.6-0.2,1.1-0.2,1.5c0,1.2,0.5,1.8,2.1,1.8h2.9c0.7,0,1,0,1,0.5
			c0,0.2,0,0.6-0.2,1.3l-0.2,1c-0.3,1.4-0.5,1.5-1.7,1.5h-5l0.4,2.2h4.6c1.3,0,2.2-0.1,2.9-0.5c0.7-0.5,1.1-1.3,1.3-2.5l0.4-2
			c0.1-0.4,0.3-1.6,0.3-2.1c0-1.5-1.1-1.7-2.7-1.7h-2.5c-0.5,0-0.8-0.1-0.8-0.4c0-0.2,0.1-0.6,0.2-1.1l0.2-1.2
			c0.2-1,0.4-1.2,1.3-1.2h4.8l0.9-2.2H653C650.6,57.2,649.8,57.8,649.4,60.1z M642.7,57.1h-3.3c-0.9,0-2,0-2.8,0.6
			c-0.8,0.6-1.3,1.6-1.6,3.2l-1,5.9c-0.2,1.2-0.3,1.8-0.3,2.4c0,2.2,1.2,2.9,3.9,2.9h3.3c0.9,0,1.9,0,2.8-0.6
			c0.9-0.6,1.3-1.6,1.6-3.2l1.1-6c0.2-1.2,0.3-1.8,0.3-2.4C646.6,57.8,645.5,57.1,642.7,57.1z M643.6,63.3l-0.7,4.2
			c-0.4,1.9-0.6,2.6-2.2,2.6h-1.9c-1.6,0-2.3-0.2-2.3-1.2c0-0.5,0.2-1.5,0.4-2.8l0.7-4.2c0.4-2,0.6-2.6,2.2-2.6h1.9
			c1.6,0,2.3,0.2,2.3,1.2C644,61,643.8,62,643.6,63.3z M625.7,57.8c-0.9,0.6-1.3,1.6-1.6,3.2l-1,5.7c-0.2,1.2-0.3,1.8-0.3,2.4
			c0,2.2,1.2,2.9,3.9,2.9h3.8l0.9-2.2h-3.6c-1.6,0-2.3-0.2-2.3-1.2c0-0.5,0.2-1.5,0.4-2.8l0.7-3.9c0.4-1.9,0.6-2.6,2.2-2.6h3.7
			l0.9-2.2h-4.9C627.5,57.2,626.5,57.2,625.7,57.8z M607,18.9c2-0.7,3.1-3,2.3-5c-0.7-2-3-3.1-5-2.3c-2,0.7-3.1,3-2.3,5
			C602.8,18.6,605,19.7,607,18.9z M604.7,12.7c1.4-0.5,3,0.2,3.5,1.6c0.5,1.4-0.2,3-1.6,3.5c-1.4,0.5-3-0.2-3.5-1.6
			S603.3,13.2,604.7,12.7z M656.8,25.8l4.5-0.6l-2.4-3.9L656.8,25.8z"/>
	</g>
</g>
<g>
	<g>
		
			<linearGradient id="SVGID_5_" gradientUnits="userSpaceOnUse" x1="875.7183" y1="70.9972" x2="799.5178" y2="147.1976" gradientTransform="matrix(1 0 0 -1 0 160)">
			<stop  offset="0" style="stop-color:#0063FF"/>
			<stop  offset="1" style="stop-color:#00C8DE"/>
		</linearGradient>
		<path class="st9" d="M813.2,76l1.4,0.5c0.6-1.6,1.2-2.6,1.2-2.6l-1.3-0.8C814.4,73.2,813.8,74.2,813.2,76z M824.9,55.6l-1.2-0.9
			c-0.6,0.8-0.9,1.3-0.9,1.3l1.3,0.8C824,56.8,824.3,56.3,824.9,55.6z M828.6,50.8l-1.1-1c-0.8,0.9-1.4,1.7-2,2.4l1.2,0.9
			C827.2,52.5,827.9,51.7,828.6,50.8z M847,35.1l-0.8-1.3c-0.9,0.5-1.8,1.1-2.6,1.7l0.8,1.2C845.3,36.2,846.1,35.6,847,35.1z
			 M831.7,45.3c-0.8,0.8-1.5,1.5-2.2,2.2l1.1,1c0.7-0.7,1.4-1.4,2.1-2.2L831.7,45.3z M827.3,60.3l1.1,1c0,0,0.4-0.4,1.1-1l-1-1.1
			C827.7,59.9,827.3,60.3,827.3,60.3z M830.9,57.3l0.9,1.2c0.8-0.6,1.7-1.2,2.5-1.8l-0.8-1.3C832.6,56,831.7,56.6,830.9,57.3z
			 M836.2,53.8l0.8,1.3c0.9-0.5,1.8-1,2.7-1.5l-0.7-1.3C838,52.7,837.1,53.2,836.2,53.8z M836.3,41.2c-0.8,0.7-1.6,1.4-2.3,2.1
			l1,1.1c0.7-0.7,1.5-1.3,2.3-2L836.3,41.2z M879.7,48.1l0.7-1.3c-0.1,0-0.5-0.3-1.5-0.6l-0.5,1.4C879.3,47.9,879.7,48.1,879.7,48.1
			z M873.9,50.8l-1.4-0.4c-0.3,1-0.6,1.9-0.9,2.8l1.4,0.5C873.4,52.8,873.7,51.8,873.9,50.8z M866.8,64.1l1.3,0.7
			c0.5-0.9,1-1.8,1.4-2.7l-1.3-0.7C867.8,62.3,867.3,63.2,866.8,64.1z M883.8,34.4c1.1,2.3,2,4.7,2.7,7.1c0.3-0.1,0.7-0.2,1.1-0.2
			c-0.7-2.6-1.7-5.1-2.8-7.5C884.4,34,884.1,34.2,883.8,34.4z M872.1,30c1.6,1.6,3.7,2.4,5.6,2.4s4-0.8,5.6-2.4
			c3.2-3.2,3.2-8.3,0-11.2c-1.6-1.6-3.5-2.4-5.6-2.4s-4,0.8-5.6,2.4C868.9,22,868.9,27.1,872.1,30z M874.5,21.2
			c1.4-0.9,2.8-1.4,3.3-1.4c0.9,0,2.3,0,3.3,1.4c1.9,1.9,1.9,4.7,0,6.5c-0.9,1.4-2.3,1.4-3.3,1.4c-0.9,0-2.3,0-3.3-1.4
			c-1.4-0.9-1.4-2.3-1.4-3.3S873.1,22.1,874.5,21.2z M872,56.6l-1.4-0.5c-0.4,0.9-0.7,1.8-1.1,2.7l1.4,0.6
			C871.3,58.5,871.7,57.5,872,56.6z M852.4,32.4l-0.6-1.4c-1,0.4-1.9,0.8-2.8,1.3l0.7,1.3C850.5,33.2,851.4,32.8,852.4,32.4z
			 M857.1,47.6l-0.3-1.5c-1,0.2-2.1,0.4-3.1,0.7l0.4,1.5C855.1,48,856.1,47.8,857.1,47.6z M851.1,49l-0.4-1.4c-1,0.3-2,0.6-3,1
			l0.5,1.4C849.1,49.6,850.1,49.3,851.1,49z M869,46.3l0.4,0l0-1.5l-0.4,0c-0.9,0-1.8,0-2.8,0.1l0.1,1.5
			C867.2,46.4,868.1,46.3,869,46.3z M858.1,30.4l-0.4-1.4c-1,0.3-2,0.6-3,0.9l0.5,1.4C856.1,31,857.1,30.7,858.1,30.4z M820.8,59.3
			c-3.8,0-6.9,3.1-6.9,6.9s3.1,6.9,6.9,6.9c3.8,0,6.9-3.1,6.9-6.9S824.7,59.3,820.8,59.3z M820.8,70c-2.1,0-3.8-1.7-3.8-3.8
			s1.7-3.8,3.8-3.8c2.1,0,3.8,1.7,3.8,3.8S823,70,820.8,70z M840.2,6.8c10.9,0,20.9,3.6,28.9,9.6c0.3-0.3,0.5-0.6,0.8-0.8
			c-8.3-6.3-18.6-10-29.8-10c-11.8,0-22.6,4.1-31,11c0.3,0.3,0.6,0.6,0.9,0.9C818.2,10.8,828.7,6.8,840.2,6.8z M874.2,41.7l1.5,0.2
			c0.1-1,0.2-2,0.3-3l-1.5-0.1C874.4,39.7,874.3,40.7,874.2,41.7z M876,35.4l-1.5,0.1c0,0,0,0.1,0,0.4l1.5,0
			C876.1,35.5,876,35.4,876,35.4z M868.4,29.1l0.1-1.5c0,0-0.6,0-1.6,0l0,1.5C867.9,29.1,868.4,29.1,868.4,29.1z M813.8,79.3
			l-1.5-0.3l-0.1,0.4c-0.2,0.9-0.3,1.8-0.3,2.7l1.5,0c0-0.9,0.1-1.7,0.2-2.4L813.8,79.3z M813.8,85.7c0,0-0.1-0.3-0.1-0.7l-1.5,0.2
			c0.1,0.5,0.2,0.8,0.2,0.8L813.8,85.7z M841.1,37.3c-0.8,0.6-1.7,1.3-2.4,1.9l0.9,1.2c0.8-0.6,1.6-1.2,2.4-1.9L841.1,37.3z
			 M840.2,103.1c-6.2,0-12.1-1.2-17.5-3.3c-0.2,0.3-0.3,0.7-0.5,1c5.6,2.2,11.6,3.4,18,3.4c27.1,0,49.1-21.9,49.3-49
			c-0.3,0.1-0.7,0.1-1.1,0.1C888.2,81.7,866.7,103.1,840.2,103.1z M802.4,30.5c1.6,0,3.3-0.7,4.7-2c2.7-2.7,2.7-6.9,0-9.4
			c-1.3-1.3-2.9-2-4.7-2c-1.8,0-3.3,0.7-4.7,2c-2.7,2.7-2.7,6.9,0,9.4C799.1,29.8,800.9,30.5,802.4,30.5z M799.7,21.1
			c1.2-0.8,2.3-1.2,2.7-1.2c0.8,0,1.9,0,2.7,1.2c1.6,1.6,1.6,3.9,0,5.4c-0.8,1.2-1.9,1.2-2.7,1.2c-0.8,0-1.9,0-2.7-1.2
			c-1.2-0.8-1.2-1.9-1.2-2.7S798.5,21.8,799.7,21.1z M823.2,92.6c0,0,1.1-0.2,3-0.6l-0.3-1.5c-1.8,0.4-2.9,0.5-2.9,0.5L823.2,92.6z
			 M797.7,32.3c-0.4-0.2-0.7-0.4-1-0.7c-3.7,6.9-5.8,14.8-5.8,23.2c0,13.8,5.7,26.3,14.9,35.3c0.2-0.3,0.4-0.6,0.7-0.9
			c-8.9-8.7-14.4-20.9-14.4-34.3C792.1,46.8,794.1,39.1,797.7,32.3z M813.9,88.9c-1.8,0-3.3,0.7-4.7,2c-2.7,2.7-2.7,6.9,0,9.4
			c1.3,1.3,3.1,2,4.7,2c1.6,0,3.3-0.7,4.7-2c2.7-2.7,2.7-6.9,0-9.4C817.2,89.6,815.7,88.9,813.9,88.9z M816.6,98.4
			c-0.8,1.2-1.9,1.2-2.7,1.2s-1.9,0-2.7-1.2c-1.2-0.8-1.2-1.9-1.2-2.7c0-0.8,0-1.9,1.2-2.7c1.2-0.8,2.3-1.2,2.7-1.2
			c0.8,0,1.9,0,2.7,1.2C818.2,94.5,818.2,96.8,816.6,98.4z M891.7,44.9c-1-1-2.1-1.4-3.4-1.4c-1.3,0-2.4,0.5-3.4,1.4
			c-1.9,1.9-1.9,5,0,6.7c1,1,2.2,1.4,3.4,1.4s2.4-0.5,3.4-1.4C893.6,49.7,893.6,46.7,891.7,44.9z M888.3,50.4c-1.2,0-2.1-1-2.1-2.1
			s1-2.1,2.1-2.1s2.1,1,2.1,2.1S889.5,50.4,888.3,50.4z M845.6,83.9l0.7,1.3c0.9-0.5,1.8-0.9,2.7-1.4l-0.7-1.3
			C847.4,83,846.5,83.4,845.6,83.9z M850.8,81l0.8,1.3c0.9-0.5,1.7-1.1,2.5-1.7l-0.9-1.2C852.5,79.9,851.6,80.5,850.8,81z M860,73.7
			l1.1,1c0.7-0.7,1.4-1.5,2-2.3l-1.2-0.9C861.3,72.2,860.7,72.9,860,73.7z M855.6,77.6l0.9,1.2c0.8-0.6,1.6-1.3,2.3-2l-1-1.1
			C857.2,76.4,856.4,77,855.6,77.6z M840.2,86.3l0.6,1.4c0.9-0.4,1.9-0.8,2.8-1.2l-0.6-1.4C842,85.5,841.1,85.9,840.2,86.3z
			 M876.1,54c0-2.4-0.2-4.8-0.7-7.2c0,0,0,0,0.1,0l0.3-1.5c-0.2,0-0.4-0.1-0.6-0.1c0-0.1,0.1-0.3,0.1-0.4l-0.3-0.1
			c-4.1-15.5-18.2-27-35-27c-14.3,0-26.6,8.3-32.5,20.3l-1.1,0.4c0.1,0.4,0.3,0.8,0.4,1.2c-1.9,4.4-2.9,9.2-2.9,14.3
			c0,17.1,11.8,31.4,27.8,35.2c-1,0.3-1.9,0.5-2.8,0.7l0.4,1.5c0.9-0.2,1.9-0.5,2.9-0.8l-0.4-1.4c2.7,0.6,5.4,1,8.3,1
			C860,90.2,876.1,74,876.1,54z M837.5,88.9c0.1,0,0.3-0.1,0.4-0.1l-0.5-1.4c-1,0.3-1.9,0.7-2.8,1l0.1,0.3
			c-16.9-2.5-29.8-17.1-29.8-34.6c0-4.5,0.9-8.9,2.4-12.9c0,0.1,0.1,0.2,0.1,0.3l1.4-0.5c-0.2-0.6-0.4-1.2-0.6-1.8
			c5.6-11.9,17.7-20.1,31.7-20.1c9,0,17.2,3.4,23.4,9c-0.8,0.1-1.7,0.2-2.5,0.4l0.3,1.5c1-0.2,2-0.3,3-0.5l-0.1-0.8
			c4.7,4.4,8.2,10.1,9.8,16.5c0,0,0,0.1,0,0.1c-0.4,0-0.7-0.1-1.1-0.1l-0.1,1.5c0.3,0,0.6,0.1,0.9,0.1c-0.1,0.3-0.1,0.6-0.2,1
			l1.1,0.2c0.4,2,0.6,4.1,0.6,6.2c0,19.3-15.7,35-35,35C839.1,89,838.3,88.9,837.5,88.9z M841.8,50.9l0.6,1.4
			c0.9-0.4,1.9-0.8,2.8-1.2l-0.6-1.4C843.7,50,842.8,50.4,841.8,50.9z M860,45.6l0.2,1.5c1-0.2,2.1-0.3,3.1-0.4l-0.2-1.5
			C862.1,45.3,861,45.4,860,45.6z M866.6,67.4l-1.3-0.8c-0.5,0.8-1.1,1.7-1.6,2.5l1.2,0.9C865.5,69.1,866.1,68.3,866.6,67.4z
			 M816.7,56.8c0,0-0.6-0.9-1.6-2.5l-1.3,0.8c1,1.6,1.6,2.5,1.6,2.6L816.7,56.8z M806.1,32.4l-1.4,0.4c0.2,0.6,0.4,1.6,0.8,2.9
			l1.4-0.4C806.5,33.9,806.2,32.9,806.1,32.4z M812.3,49.1l-1.3,0.7c0.5,1,1,1.9,1.4,2.7l1.3-0.7C813.2,50.9,812.8,50,812.3,49.1z
			 M810.3,44.6c-0.1-0.3-0.3-0.7-0.4-1l-1.4,0.6c0.1,0.3,0.3,0.7,0.4,1c0.3,0.6,0.5,1.2,0.8,1.8l1.4-0.6
			C810.8,45.8,810.5,45.2,810.3,44.6z"/>
	</g>
</g>
<g class="st5">
	<g>
		
			<linearGradient id="SVGID_6_" gradientUnits="userSpaceOnUse" x1="871.9662" y1="73.8779" x2="809.9505" y2="135.8935" gradientTransform="matrix(1 0 0 -1 0 160)">
			<stop  offset="0" style="stop-color:#0063FF"/>
			<stop  offset="1" style="stop-color:#00C8DE"/>
		</linearGradient>
		<path class="st10" d="M825.7,38.9l1.1-1.8l-2.9-3.4l-3.6,1.2l-0.8,0.7l3.3,1L825.7,38.9z M841,11.3c-24.2,0-43.8,19.6-43.8,43.9
			c0,24.2,19.6,43.9,43.8,43.9c24.2,0,43.8-19.6,43.8-43.9C884.8,30.9,865.2,11.3,841,11.3z M819.7,33.6l4.6-1.5l4,4.9l-2.4,4
			l-3.9-3.4l-5.4-1.5L819.7,33.6z M827.4,78.4l-5.4,4l-2.3-7.5l-2.3-2.3l-3-2.3l-4.3-10l-0.8-4.3l-4.3-1.9l0.5-1.2l5,2.2l0.9,4.9
			l4,9.4l2.8,2.1l2.6,2.6l1.8,6l3.8-2.8l2-3.1c-0.2-1.1-1-6.1-2.4-9.3c0.2,0.5,0.3,1.1,0.3,1.6c0,2.7-2.2,4.8-4.8,4.8
			c-2.7,0-4.8-2.2-4.8-4.8c0-2,1.2-3.7,2.9-4.4c-0.6,0.1-1.1,0.2-1.4,0.3l-2,2.8l-2.1-6.9l5.8,0.2l2.5-1.4l1.7-4.1l-1.4-1.9
			l-1.9,1.4l-2.9-1.3l2.2-4.1l-4.3-6l-8.2,2.6l-0.4-1.3l9.1-2.9l5.4,7.5l-1.9,3.5l0.9,0.4l2.3-1.7l2.7,3.6l-2.1,5.2l-3.2,1.8
			l-4.3-0.1l0.8,2.5l0.7-1l0.2-0.1c0.3-0.1,6.9-2.1,9.1,1.9c2,3.6,3.1,10.8,3.1,11.1l0,0.2L827.4,78.4z M873.9,53.2l-6.5-0.4
			l-3.2-4.1l-3.5,0.2l2.4,2.8l-4.1,1.4l-1.1,2.6l2.4,5.1l0,0.2c0,0.1-0.3,10.5-0.3,11.4c0,0.4,0,1.3-6.7,3.7l-0.8,0.3l-0.5-8
			l-7.5-2.7l-4.8-5.7l3.7-5.6l-2-3.2l-3-2.6l-2.8-7l0.1-0.3c0.2-0.3,3.7-6.9,6.2-9.3c2.5-2.5,16.8-6.9,18.4-7.4l0.4,1.3
			c-4.3,1.3-16,5.2-17.9,7.1c-2.1,2.1-5.1,7.5-5.8,8.7l2.4,6.1l2.9,2.6l2.5,4l-3.6,5.5l3.9,4.7l8,2.8l0.5,7.1
			c2.2-0.8,4.5-1.9,4.9-2.3c0-1.4,0.3-9.8,0.3-11.1l-2.5-5.3l1.6-3.6l2.8-1l-2.8-3.4l6.8-0.5l3.3,4.2l4.6,0.3L873,49l1.9-1l0.6,1.2
			l-1.3,0.7L873.9,53.2z M824,62.4c0.9,0.5,1.6,1.2,2,2.1c-0.1-0.2-0.2-0.5-0.3-0.7C825.3,63.1,824.7,62.7,824,62.4z"/>
	</g>
</g>
<g class="st5">
	<g>
		
			<linearGradient id="SVGID_7_" gradientUnits="userSpaceOnUse" x1="1085.416" y1="59.5" x2="994.416" y2="150.5" gradientTransform="matrix(1 0 0 -1 0 160)">
			<stop  offset="0" style="stop-color:#0063FF"/>
			<stop  offset="1" style="stop-color:#00C8DE"/>
		</linearGradient>
		<path class="st11" d="M996.9,7v96h86V7H996.9z M1002,39h38v3h-38V39z M1025.1,47v3h-23v-3H1025.1z M1025,90h-23v-3h23V90z
			 M1040,82h-38v-3h38V82z M1040,75h-38v-3h38V75z M1040,35h-38v-3h38V35z M1074.7,89.5h-25l0-18l25,0V89.5z M1074.8,49.6h-25l0-18
			l25,0V49.6z"/>
	</g>
</g>
<g>
	<g>
		
			<linearGradient id="SVGID_8_" gradientUnits="userSpaceOnUse" x1="1089.6042" y1="55.2123" x2="990.6007" y2="154.2157" gradientTransform="matrix(1 0 0 -1 0 160)">
			<stop  offset="0" style="stop-color:#0063FF"/>
			<stop  offset="1" style="stop-color:#00C8DE"/>
		</linearGradient>
		<path class="st12" d="M1055.1,78c1.1,0,2-0.9,2-2s-0.9-2-2-2s-2,0.9-2,2S1054,78,1055.1,78z M1076.2,30h-28v20.1h28V30z
			 M1074.1,48.3h-24v-16h24V48.3z M1060.2,36.3v7.3l5-3.4L1060.2,36.3z M1008.9,12c1.2,0,2.1-1,2.1-2.1c0-1.2-1-2.1-2.1-2.1
			s-2.1,1-2.1,2.1S1007.8,12,1008.9,12z M1076.2,70h-28v20.1h28V70z M1074.1,88.3h-24v-3l0.2,0.4l6.9-4l5.7,3.9l0,0l0,0l0.1,0.1
			l0.1-0.2l8.7-6.4l2.3,2.2L1074.1,88.3L1074.1,88.3z M1074.1,78.4l-2.2-2.1l-0.7,0.7l0,0l-8.3,6.1l-6-4.1l-0.5,0.8l-6.4,3.7V72.3
			h24L1074.1,78.4L1074.1,78.4z M1001.9,12c1.2,0,2.1-1,2.1-2.1c0-1.2-1-2.1-2.1-2.1s-2.1,1-2.1,2.1S1000.8,12,1001.9,12z
			 M993.1,3.3v104h94V3.3H993.1z M1086.1,16.3v90h-92V16.2l0.1,0.1L1086.1,16.3l-0.1-1h-91.9v-11h92V16.3z M1015.9,12
			c1.2,0,2.1-1,2.1-2.1c0-1.2-1-2.1-2.1-2.1s-2.1,1-2.1,2.1S1014.8,12,1015.9,12z"/>
	</g>
</g>
<g>
	<g>
		<path class="st13" d="M711,60h8v-2h-8V60z M723,60h8v-2h-8V60z M735,60h8v-2h-8V60z M747,60h8v-2h-8V60z M759,54.8V63l9.2-4.2
			L759,54.8z"/>
	</g>
</g>
<g>
	<g>
		<path class="st13" d="M911.1,60.3h8v-2h-8V60.3z M923.1,60.3h8v-2h-8V60.3z M935.1,60.3h8v-2h-8V60.3z M947.1,60.3h8v-2h-8V60.3z
			 M959.1,55.1v8.2l9.2-4.2L959.1,55.1z"/>
	</g>
</g>
<g>
	<g>
		<path class="st13" d="M511.3,29.9h8v-2h-8V29.9z M523.3,29.9h8v-2h-8V29.9z M535.3,29.9h8v-2h-8V29.9z M547.3,29.9h8v-2h-8V29.9z
			 M559.3,24.7V33l9.2-4.2L559.3,24.7z"/>
	</g>
</g>
<g>
	<g>
		<path class="st13" d="M511.1,90h8v-2h-8V90z M523.1,90h8v-2h-8V90z M535.1,90h8v-2h-8V90z M547.1,90h8v-2h-8V90z M559.1,84.8V93
			l9.2-4.2L559.1,84.8z"/>
	</g>
</g>
<g>
	<g>
		<path class="st14" d="M993.9,159.9h3.3v-1h-3.3v-2.6h-1v2.6h-3.2v1h3.2v3.9h-3.8v1h8.8v-1h-4V159.9z M997.9,155.3v-1h-7
			c0.2-0.5,0.4-1.1,0.7-1.9l-1-0.1c-0.2,0.6-0.4,1.3-0.7,2h-4.1v1h3.6c-1,1.9-2.3,3.5-4.1,5l0.6,0.8c0.5-0.4,1.1-1,1.7-1.5v5.7h1
			v-6.9c0.8-1,1.4-2,2-3.1L997.9,155.3L997.9,155.3z M1000.1,165.2h1V154h9.2v9.7c0,0.4-0.2,0.6-0.6,0.6l-1.3,0l0.3,1h1.4
			c0.8,0,1.2-0.4,1.2-1.3V153h-11.2L1000.1,165.2L1000.1,165.2z M1010.1,162.1c-0.6-0.9-1.1-1.8-1.7-2.7c0.4-1.3,0.8-2.7,1-4.2
			l-1-0.2c-0.2,1.3-0.5,2.4-0.7,3.4c-0.5-0.8-1.1-1.5-1.7-2.1l-0.6,0.6c0.6,0.7,1.2,1.6,1.9,2.6c-0.5,1.4-1.2,2.7-2,3.7l0.6,0.8
			c0.8-1,1.4-2.2,2-3.5c0.5,0.9,1,1.6,1.4,2.3L1010.1,162.1z M1004.3,159c0.4-1.2,0.7-2.5,0.9-3.9l-0.9-0.2
			c-0.2,1.1-0.4,2.2-0.7,3.2c-0.6-0.7-1.1-1.4-1.7-2l-0.6,0.6c0.7,0.8,1.3,1.6,2,2.4c-0.5,1.4-1.1,2.6-1.8,3.7l0.6,0.8
			c0.7-1,1.3-2.2,1.8-3.5c0.5,0.7,0.9,1.4,1.3,2l0.7-0.7C1005.4,160.7,1004.9,159.9,1004.3,159z M1018.3,156.6l-1-0.1
			c-0.2,2.3-0.5,4.4-1,6.3c-1,0.2-2,0.4-3,0.5l0.2,1c1.9-0.3,3.6-0.7,5.1-1.1v-1c-0.4,0.1-0.8,0.2-1.4,0.4
			C1017.8,160.8,1018.1,158.8,1018.3,156.6z M1016.1,152.5l-1,0.2c0.3,0.7,0.5,1.4,0.6,2.1h-2.3v1h5.5v-1h-2.3
			C1016.5,153.9,1016.3,153.2,1016.1,152.5z M1022.4,152.4h-1v6.2h-2v6.6h1v-0.9h3.9v0.9h1v-6.6h-2.8v-2.7h3.5v-1h-3.5L1022.4,152.4
			L1022.4,152.4z M1024.3,159.5v3.9h-3.9v-3.9H1024.3z M1014.7,156.6l-0.9,0.3c0.4,1.8,0.7,3.7,1,5.5l0.8-0.2
			C1015.4,160.1,1015.1,158.3,1014.7,156.6z M1033.5,157.7h5.2v-1h-5.2v-4.3h-1v11.3h-5v1h12.5v-1h-6.4V157.7L1033.5,157.7z
			 M1048.2,162h4.2v-0.9h-4.2v-1.7h4.7v-1h-10.4v1h4.7v1.7h-4.2v0.9h4.2v1.8h-5.5v1h12v-1h-5.5L1048.2,162L1048.2,162z M1052,153
			h-8.5v4.1h8.5V153z M1051,156.2h-6.6v-2.2h6.6V156.2z M1064.3,155h-1v3.4c0,1.5-0.3,2.8-0.9,3.8c-0.6,0.9-1.7,1.7-3.2,2.3l0.5,0.9
			c1.6-0.6,2.7-1.4,3.4-2.4c0.7-1.1,1.1-2.6,1.1-4.5V155z M1060,161.1c-0.6,0.3-1.2,0.5-1.8,0.7v-3.2h1.6v-1h-1.6v-3.3h1.8v-1h-4.6
			v1h1.8v3.3h-1.6v1h1.6v3.5c-0.6,0.2-1.2,0.3-1.9,0.4l0.2,1c1.6-0.4,3.1-0.9,4.5-1.4V161.1z M1067,163.9c-0.1,0.1-0.3,0.2-0.5,0.2
			h-1c-0.3,0-0.4-0.1-0.4-0.4v-3h-1v3.2c0,0.8,0.4,1.2,1.1,1.2h1.5c0.4,0,0.8-0.1,1-0.3c0.2-0.3,0.4-1,0.5-2.1l-0.9-0.3
			C1067.2,163.2,1067.1,163.7,1067,163.9z M1061.7,154h4.2v6.8h1V153h-6.2v7.7h1L1061.7,154L1061.7,154z M1076.4,152.4h-1
			c0,0.8,0,1.5-0.1,2.3h-5.1v10.6h1v-9.6h4c-0.1,0.6-0.2,1.2-0.4,1.8c-0.5,1.6-1.5,2.8-3.1,3.9l0.7,0.8c1.6-1.1,2.7-2.4,3.3-4
			c1.3,1.4,2.4,2.6,3.2,3.8l0.8-0.8c-1-1.4-2.2-2.7-3.7-4.1c0.1-0.4,0.2-0.9,0.3-1.5h4v7.8c0,0.5-0.2,0.7-0.7,0.7l-2.1-0.1l0.3,1
			h2.2c0.9,0,1.4-0.5,1.4-1.4v-9h-4.9C1076.4,153.9,1076.4,153.1,1076.4,152.4z M1084.9,154.6h9.5v1.6h1v-2.5h-5.1
			c-0.2-0.5-0.3-0.9-0.5-1.2l-1.1,0.2c0.2,0.3,0.3,0.7,0.5,1.1h-5.3v2.6h1L1084.9,154.6L1084.9,154.6z M1090.7,155.8
			c1.8,0.9,3.2,1.8,4.2,2.7l0.7-0.7c-1.1-0.8-2.5-1.7-4.3-2.6L1090.7,155.8z M1088.7,155.7l-0.7-0.6c-1.2,1-2.6,1.8-4.3,2.5l0.6,0.8
			C1086,157.7,1087.5,156.8,1088.7,155.7z M1090.1,156.8h-0.8c-1.4,1.5-3.4,2.8-5.9,3.7l0.5,0.8c0.7-0.3,1.2-0.5,1.7-0.7v4.6h1v-0.6
			h6.3v0.6h1v-4.6c0.5,0.2,1,0.4,1.6,0.7l0.5-0.8C1093.2,159.5,1091.2,158.3,1090.1,156.8z M1092.9,163.8h-6.3v-2.2h6.3V163.8z
			 M1085.7,160.6c1.6-0.8,2.9-1.7,4-2.9c1,1.1,2.3,2.1,4,2.9H1085.7z M597.8,158.4h5.2v-1h-5.2v-4.3h-1v11.3h-5v1h12.5v-1h-6.4
			L597.8,158.4L597.8,158.4z M608.7,153.1c-0.7,2.2-1.8,4.1-3.3,5.7l0.3,1.1c0.5-0.5,1-1.1,1.5-1.8v7.8h1v-9.4
			c0.5-0.9,1-1.9,1.4-3.1L608.7,153.1z M613.4,155.9h4.5v-1h-4.2l0.4-1.7l-1-0.1l-0.4,1.8h-2.7v1h2.5c-0.1,0.6-0.3,1.1-0.5,1.6h-2.6
			v1h2.3c-0.3,0.9-0.7,1.8-1,2.7h6c-0.7,0.9-1.5,1.7-2.6,2.4c-0.8-0.4-1.7-0.8-2.5-1.1l-0.5,0.8c1.8,0.7,3.6,1.6,5.3,2.8l0.6-0.9
			c-0.6-0.4-1.3-0.8-1.9-1.1c1.3-1,2.2-2,2.8-2.9v-0.9h-5.8c0.3-0.7,0.5-1.3,0.7-1.8h5.9v-1h-5.5C613,157.1,613.2,156.6,613.4,155.9
			z M626.5,162.1h4.6v-1h-4.6v-1.6h-1v1.6h-4.7v1h4.7v2.3h-5.6v1h12.3v-1h-5.6L626.5,162.1L626.5,162.1z M620.6,158.3l0.3,0.9
			c3.1-0.2,6-0.5,8.8-0.9c0.4,0.5,0.7,0.9,1,1.4l0.8-0.6c-0.7-1-1.7-2.2-3-3.6l-0.8,0.5c0.4,0.5,0.9,1,1.3,1.5
			c-2.1,0.3-4.3,0.6-6.6,0.7c1.1-0.9,2.1-2,2.9-3.4h6.6v-1h-11.6v1h3.9C623.1,156.4,621.9,157.6,620.6,158.3z M638.9,155.3v-0.7
			h-4.7v1h3.8c-0.1,1.5-0.4,2.9-0.9,4.1c-0.8-1.1-1.7-2-2.5-2.9l-0.7,0.6c1,1.1,1.9,2.2,2.7,3.2c-0.7,1.4-1.8,2.6-3.1,3.6l0.6,0.9
			c1.3-1.1,2.3-2.3,3.1-3.6c0.5,0.7,1,1.4,1.4,2.1l0.7-0.7c-0.5-0.8-1-1.6-1.6-2.4C638.5,158.9,638.8,157.2,638.9,155.3z
			 M642.6,161.5c-0.5-0.9-1.2-1.9-2.2-3.1l-0.8,0.6c0.9,1.1,1.6,2.1,2.1,3.1L642.6,161.5z M644.7,153.1h-1v2.7h-4.1v1h4.1v7.4
			c0,0.5-0.3,0.7-0.8,0.7c-0.6,0-1.2,0-2.1-0.1l0.2,1h2.2c1,0,1.4-0.5,1.4-1.4v-7.7h1.6v-1h-1.6L644.7,153.1L644.7,153.1z
			 M657.4,161.3c0.8-0.3,1.6-0.7,2.2-1.2l-0.7-0.8c-0.9,0.7-2.1,1.2-3.5,1.6c-0.4-0.7-1-1.4-1.8-2h5.6v-3.1h-3.7
			c0.5-0.3,0.9-0.7,1.3-1.2V154h-4.5c0.2-0.2,0.4-0.4,0.7-0.8l-1-0.2c-1.2,1.2-2.7,2.2-4.6,3l0.6,0.8c0.3-0.1,0.7-0.3,1-0.5v2.6h3
			c-1,0.7-2.3,1.1-4.1,1.4l0.4,0.8c1.9-0.3,3.4-0.9,4.5-1.7c0.3,0.2,0.5,0.5,0.8,0.8c-1.3,0.9-3.2,1.7-5.6,2.2l0.5,0.9
			c2.4-0.6,4.2-1.5,5.6-2.5c0.2,0.3,0.4,0.6,0.5,0.9c-1.6,1.2-3.8,2.2-6.7,2.9l0.5,0.9c2.7-0.7,4.8-1.7,6.5-2.9
			c0,0.2,0.1,0.5,0.1,0.7c0,0.7-0.1,1.1-0.4,1.3c-0.3,0.2-0.7,0.3-1.1,0.4l-1.2,0l0.3,0.9c0.4,0,0.7,0,1,0c0.9-0.1,1.5-0.3,1.8-0.6
			c0.4-0.4,0.6-1.1,0.6-2c0-0.6-0.1-1.1-0.3-1.5l0.7-0.2c0.6,1.3,1.7,2.6,3.3,3.7l0.7-0.8C659,163.6,658,162.5,657.4,161.3z
			 M658.4,156.7v1.4h-4c0.3-0.4,0.5-0.9,0.6-1.4H658.4z M651.7,154.8h4.1c-0.5,0.4-1,0.8-1.4,1.1h-4.3
			C650.7,155.5,651.3,155.2,651.7,154.8z M650.3,158.2v-1.4h3.7c-0.2,0.5-0.4,1-0.8,1.4H650.3z M670.8,160.2c0.9-0.6,1.8-1.3,2.6-2
			v-0.9h-6.6v0.9h5.3c-0.7,0.6-1.5,1.1-2.3,1.6v1.3h-4.1v1h4.1v2.3c0,0.4-0.2,0.6-0.6,0.6c-0.4,0-0.9,0-1.6,0l0.3,1h1.8
			c0.8,0,1.2-0.4,1.2-1.2V162h3.5v-1h-3.5V160.2z M674.1,155.5v-1h-7.2c0.1-0.4,0.3-0.8,0.4-1.4l-1-0.1c-0.1,0.4-0.3,0.9-0.5,1.5
			h-3.8v1h3.4c-0.9,2-2.2,3.7-3.9,5.2l0.6,0.8c0.5-0.4,1-0.9,1.5-1.5v5.9h1v-7.1c0.8-1,1.4-2.1,1.9-3.3L674.1,155.5L674.1,155.5z
			 M681,156.5l0.7-0.7c-0.5-0.7-1.2-1.4-2.1-2.1l-0.7,0.7C679.9,155.1,680.5,155.8,681,156.5z M680.9,163.4v-5.9h-2.5v0.9h1.6v5.6
			c0,0.2-0.1,0.4-0.3,0.5l0.4,0.9c0.8-0.7,1.6-1.5,2.2-2.4l-0.2-1C681.6,162.7,681.2,163.1,680.9,163.4z M687.5,153.9
			c-0.3,0.6-0.5,1.2-0.8,1.7v-0.8h-1.6v-1.6h-0.9v1.6h-1.7v0.9h1.7v1.8h-2v0.9h2.5c-0.9,1-2,1.7-3.2,2.3l0.5,0.8
			c0.4-0.2,0.8-0.4,1-0.5v5h0.9v-0.6h2.6v0.6h1v-6.2h-2.9c0.4-0.4,0.8-0.8,1.2-1.3h2.3v-0.9h-1.6c0.6-1,1.2-2,1.7-3.1L687.5,153.9z
			 M686.6,164.5H684v-1.5h2.6V164.5z M686.6,160.6v1.5H684v-1.5H686.6z M685.5,157.4h-0.4v-1.8h1.6
			C686.3,156.3,685.9,156.9,685.5,157.4z M677.9,153.1c-0.5,2.1-1.3,3.9-2.4,5.5l0.3,1.1c0.4-0.5,0.7-1,1-1.6v7.8h1v-9.7
			c0.4-0.9,0.7-1.8,0.9-2.7L677.9,153.1z M806.9,153.1c-1.6,1.8-3.7,3.3-6.1,4.4l0.5,0.9c2.5-1.3,4.5-2.7,6-4.4
			c1.7,1.8,3.6,3.2,6,4.3l0.5-0.9c-2.3-1.1-4.3-2.5-6.1-4.4L806.9,153.1L806.9,153.1z M807.8,161.9h4v-1h-4v-2.4h3.4v-1h-7.8v1h3.4
			v2.4h-4.1v1h4.1v2.6h-5.3v1h11.7v-1h-5.3V161.9z M819.4,161.3c-0.5,0.3-1,0.5-1.7,0.8v-2.9h1.4v-1h-1.4V155h1.7v-0.9H815v0.9h1.8
			v3.3h-1.6v1h1.6v3.2c-0.6,0.2-1.3,0.4-2,0.6l0.3,1c1.6-0.5,3.1-1.1,4.4-1.7L819.4,161.3L819.4,161.3z M824.9,160.6
			c0.7-0.7,1.4-1.6,2-2.6l-0.8-0.6c-0.5,0.8-1.1,1.6-1.7,2.3c-0.3-0.6-0.5-1.3-0.8-2v-1.3h3.3v-1h-0.8l0.5-0.5
			c-0.5-0.6-1.1-1.2-1.9-1.7l-0.6,0.6c0.7,0.6,1.3,1.2,1.8,1.7h-2.4v-2.4h-1v2.4h-3.2v1h3.2v3c-1.1,1.7-2.3,3-3.8,3.9l0.5,0.9
			c1.2-0.9,2.3-2.1,3.2-3.4v3.5c0,0.3-0.2,0.5-0.6,0.5c-0.4,0-0.8,0-1.3-0.1l0.2,1h1.5c0.8,0,1.2-0.4,1.2-1.2V160
			c0.8,1.8,1.8,3.4,3.2,4.7l0.7-0.8C826.5,163,825.6,161.9,824.9,160.6z M821.9,160c-0.3-0.7-0.8-1.5-1.5-2.4l-0.8,0.5
			c0.7,0.9,1.2,1.7,1.6,2.4L821.9,160z M836,153.1h-1c0,0.8,0,1.5-0.1,2.3h-5.1v10.6h1v-9.6h4c-0.1,0.6-0.2,1.2-0.4,1.8
			c-0.5,1.6-1.5,2.8-3.1,3.9l0.7,0.8c1.6-1.1,2.7-2.4,3.3-4c1.3,1.4,2.4,2.6,3.2,3.8l0.8-0.8c-1-1.4-2.2-2.7-3.7-4.1
			c0.1-0.4,0.2-0.9,0.3-1.5h4v7.8c0,0.5-0.2,0.7-0.7,0.7l-2.1-0.1l0.3,1h2.2c0.9,0,1.4-0.5,1.4-1.4v-9h-4.9
			C835.9,154.5,836,153.8,836,153.1z M848.2,156.4l-0.7-0.6c-1.2,1-2.6,1.8-4.3,2.5l0.6,0.8C845.6,158.3,847,157.4,848.2,156.4z
			 M849.6,157.5h-0.8c-1.4,1.5-3.4,2.8-5.9,3.7l0.5,0.8c0.7-0.3,1.2-0.5,1.7-0.7v4.6h1v-0.6h6.3v0.6h1v-4.6c0.5,0.2,1,0.4,1.6,0.7
			l0.5-0.8C852.7,160.2,850.8,158.9,849.6,157.5z M852.4,164.4h-6.3v-2.2h6.3V164.4z M845.2,161.3c1.6-0.8,2.9-1.7,4-2.9
			c1,1.1,2.3,2.1,4,2.9H845.2z M850.2,156.4c1.8,0.9,3.2,1.8,4.2,2.7l0.7-0.7c-1.1-0.8-2.5-1.7-4.3-2.6L850.2,156.4z M844.5,155.2
			h9.5v1.6h1v-2.5h-5.1c-0.2-0.5-0.3-0.9-0.5-1.2l-1.1,0.2c0.2,0.3,0.3,0.7,0.5,1.1h-5.3v2.6h1L844.5,155.2L844.5,155.2z
			 M865.3,153.2l-0.9,0.5c0.8,2.2,2.3,4,4.5,5.4l0.7-0.8C867.6,157,866.1,155.3,865.3,153.2z M858.9,159.6h2.7
			c-0.3,1.4-0.7,2.5-1.3,3.2c-0.6,0.8-1.6,1.6-2.8,2.3l0.6,0.8c1.4-0.8,2.4-1.7,3.1-2.6c0.6-0.9,1-2.1,1.4-3.7h3.7
			c-0.1,2.2-0.2,3.6-0.5,4.3c-0.3,0.7-0.8,1-1.5,1c-0.7,0-1.5,0-2.4,0l0.3,1h2.6c0.7,0,1.2-0.3,1.6-0.7c0.3-0.4,0.6-1.1,0.7-2.2
			c0.1-1.1,0.2-2.6,0.3-4.3h-8.5L858.9,159.6L858.9,159.6z M860.2,156.8c0.7-0.7,1.3-1.7,2-2.9l-0.9-0.5c-0.6,1.1-1.2,2-1.9,2.8
			c-0.7,0.9-1.6,1.6-2.6,2.2l0.5,0.9C858.6,158.4,859.5,157.6,860.2,156.8z M881.6,159.9V159h-5.7c0.2-0.4,0.3-0.9,0.5-1.6h6.8v-1
			h-6.6c0.3-1.1,0.5-2.2,0.7-3.3l-1-0.1c-0.2,1.2-0.4,2.3-0.7,3.4h-2.5l0.8-2.8l-1-0.2l-1.1,3.9h3.5c-1,3.1-2.5,5.6-4.5,7.4l0.5,0.9
			c1.6-1.3,2.9-3.1,3.9-5.3c0.5,1,1.2,1.9,2.3,2.7c-1.1,0.7-2.4,1.3-3.9,1.9l0.5,0.9c1.7-0.7,3.1-1.4,4.3-2.2
			c1.2,0.8,2.7,1.5,4.5,2.1l0.5-0.9c-1.6-0.6-3-1.2-4.1-1.8C880.4,162.2,881.2,161.1,881.6,159.9z M878.4,162.6
			c-1.1-0.8-1.9-1.7-2.4-2.6h4.5C880.2,160.9,879.5,161.8,878.4,162.6z M881.5,156.1l0.7-0.7c-0.7-0.8-1.5-1.6-2.5-2.3l-0.7,0.7
			C880.1,154.6,880.9,155.4,881.5,156.1z M399,165.5h1v-2.3h3.1v0.8c0,0.3-0.1,0.5-0.4,0.5l-0.7,0l0.2,0.9h0.7c0.7,0,1-0.4,1-1.2
			v-5.4h-5C399,158.8,399,165.5,399,165.5z M399.9,159.7h3.1v1h-3.1V159.7z M399.9,161.5h3.1v1h-3.1V161.5z M402,156.1h1.9v-0.8H402
			v-0.9h2.2v-0.8H402v-0.9h-1v0.9h-2.3v0.8h2.3v0.9h-2v0.8h2v1h-2.5v0.8h5.9v-0.8H402L402,156.1L402,156.1z M410.5,155.9h-1.8
			c0.4-0.4,0.8-1,1.2-1.7v-0.7h-2.8l0.4-0.7l-1-0.2c-0.7,1.2-1.5,2.1-2.6,2.8l0.6,0.7l0.1-0.1v0.9h2.1v1.6h-2.5v0.9h2.5v1.6h-2.1v1
			h2.1v2c0,0.4-0.2,0.5-0.6,0.5c-0.3,0-0.7,0-1.2-0.1l0.2,1h1.3c0.8,0,1.2-0.4,1.2-1.2V162h2.5v-2.6h0.7v-0.9h-0.7L410.5,155.9
			L410.5,155.9z M407.6,155.9H405c0.6-0.5,1.1-1,1.6-1.6h2.2C408.5,154.9,408,155.5,407.6,155.9z M409.6,161H408v-1.6h1.6V161z
			 M409.6,158.5H408v-1.6h1.6V158.5z M422.3,160.9c0.7,1,1.3,2.2,1.8,3.5l0.9-0.4c-0.5-1.2-1.1-2.3-1.8-3.4L422.3,160.9z M421.2,164
			c-0.1,0.2-0.3,0.3-0.6,0.3h-3c-0.5,0-0.7-0.2-0.7-0.6v-2.8h-1v3c0,0.9,0.5,1.4,1.4,1.4h3.5c0.5,0,0.9-0.1,1.2-0.4
			c0.3-0.3,0.5-1.1,0.6-2.3l-1-0.3C421.5,163.2,421.3,163.8,421.2,164z M420,155.1h4.5v-1H419c0.1-0.6,0.2-1.1,0.3-1.5l-1-0.1
			c-0.1,0.5-0.2,1.1-0.3,1.6H413v1h4.6c-0.3,0.6-0.6,1.1-1,1.5c-0.9,0.9-2.3,1.7-4.3,2.2l0.4,0.9c1.7-0.5,3-1,3.9-1.7
			c0.7,0.5,1.3,1.1,2,1.8l0.7-0.7c-0.8-0.7-1.5-1.3-2-1.7c0,0,0.1-0.1,0.1-0.2c0.5-0.6,0.9-1.3,1.2-2.1h0.2c0.7,1.9,2.6,3.4,5.7,4.5
			l0.5-0.9C422.4,157.9,420.6,156.7,420,155.1z M412.5,164.3l0.9,0.5c0.6-1.1,1.1-2.3,1.4-3.8l-1-0.2
			C413.5,162.1,413.1,163.2,412.5,164.3z M419.1,160.3l-0.9,0.3c0.4,0.7,0.8,1.5,1.2,2.5l0.9-0.4C420,161.8,419.6,161.1,419.1,160.3
			z M437.2,162.3c-0.6-0.9-1.1-1.8-1.7-2.7c0.4-1.3,0.8-2.7,1-4.2l-1-0.2c-0.2,1.3-0.5,2.4-0.7,3.4c-0.5-0.8-1.1-1.5-1.7-2.1
			l-0.6,0.6c0.6,0.7,1.2,1.6,1.9,2.6c-0.5,1.4-1.2,2.7-2,3.7l0.6,0.8c0.8-1,1.4-2.2,2-3.5c0.5,0.9,1,1.6,1.4,2.3L437.2,162.3z
			 M427.2,165.5h1v-11.3h9.2v9.7c0,0.4-0.2,0.6-0.6,0.6l-1.3,0l0.3,1h1.4c0.8,0,1.2-0.4,1.2-1.3v-10.9h-11.2V165.5z M431.4,159.3
			c0.4-1.2,0.7-2.5,0.9-3.9l-0.9-0.2c-0.2,1.1-0.4,2.2-0.7,3.2c-0.6-0.7-1.1-1.4-1.7-2l-0.6,0.6c0.7,0.8,1.3,1.6,2,2.4
			c-0.5,1.4-1.1,2.6-1.8,3.7l0.6,0.8c0.7-1,1.3-2.2,1.8-3.5c0.5,0.7,0.9,1.4,1.3,2l0.7-0.7C432.6,160.9,432,160.1,431.4,159.3z
			 M449.6,152.7h-1v6.2h-2v6.6h1v-0.9h3.9v0.9h1v-6.6h-2.8v-2.7h3.5v-1h-3.5V152.7z M451.4,159.7v3.9h-3.9v-3.9H451.4z M443.3,152.8
			l-1,0.2c0.3,0.7,0.5,1.4,0.6,2.1h-2.3v1h5.5v-1h-2.3C443.6,154.2,443.5,153.4,443.3,152.8z M445.5,156.8l-1-0.1
			c-0.2,2.3-0.5,4.4-1,6.3c-1,0.2-2,0.4-3,0.5l0.2,1c1.9-0.3,3.6-0.7,5.1-1.1v-1c-0.4,0.1-0.8,0.2-1.4,0.4
			C444.9,161,445.2,159.1,445.5,156.8z M441.9,156.8l-0.9,0.3c0.4,1.8,0.7,3.7,1,5.5l0.8-0.2C442.5,160.4,442.2,158.5,441.9,156.8z
			 M461.5,152.6h-1c0,0.8,0,1.5-0.1,2.3h-5.1v10.6h1v-9.6h4c-0.1,0.6-0.2,1.2-0.4,1.8c-0.5,1.6-1.5,2.8-3.1,3.9l0.7,0.8
			c1.6-1.1,2.7-2.4,3.3-4c1.3,1.4,2.4,2.6,3.2,3.8l0.8-0.8c-1-1.4-2.2-2.7-3.7-4.1c0.1-0.4,0.2-0.9,0.3-1.5h4v7.8
			c0,0.5-0.2,0.7-0.7,0.7l-2.1-0.1l0.3,1h2.2c0.9,0,1.4-0.5,1.4-1.4v-9h-4.9C461.5,154.1,461.5,153.3,461.5,152.6z M470.1,154.8h9.5
			v1.6h1v-2.5h-5.1c-0.2-0.5-0.3-0.9-0.5-1.2l-1.1,0.2c0.2,0.3,0.3,0.7,0.5,1.1h-5.3v2.6h1V154.8L470.1,154.8z M475.2,157.1h-0.8
			c-1.4,1.5-3.4,2.8-5.9,3.7l0.5,0.8c0.7-0.3,1.2-0.5,1.7-0.7v4.6h1v-0.6h6.3v0.6h1v-4.6c0.5,0.2,1,0.4,1.6,0.7l0.5-0.8
			C478.3,159.7,476.3,158.5,475.2,157.1z M478,164h-6.3v-2.2h6.3V164z M470.8,160.9c1.6-0.8,2.9-1.7,4-2.9c1,1.1,2.3,2.1,4,2.9
			H470.8z M473.8,156l-0.7-0.6c-1.2,1-2.6,1.8-4.3,2.5l0.6,0.8C471.1,157.9,472.6,157,473.8,156z M475.8,156
			c1.8,0.9,3.2,1.8,4.2,2.7l0.7-0.7c-1.1-0.8-2.5-1.7-4.3-2.6L475.8,156z"/>
	</g>
</g>
</svg>
