<svg xmlns="http://www.w3.org/2000/svg" height="640" width="830" viewBox="0 0 920 640" id="svgwrapper_svg" oncontextmenu="return false;" preserveAspectRatio="xMinYMin meet"><style>        g#assistantgroup rect.outer {fill: none;stroke: #1abc9c;stroke-dasharray: 2,4;stroke-width: 1px;}        rect.selection {stroke: gray;stroke-dasharray: 4px;stroke-opacity: 0.5; fill: transparent;}        svg *::selection {background : transparent;}</style><defs g_shapeid="109" id="svg_defs"><marker id="end-arrow" viewBox="0 -5 10 10" refX="6" markerWidth="10" markerHeight="10" orient="auto"><path d="M5,5L10 0 5 -5z" fill="#999999"/></marker><marker id="start-arrow" viewBox="0 -5 10 10" refX="4" markerWidth="10" markerHeight="10" orient="auto"><path d="M5,5L10 0 5 -5z" fill="#000"/></marker></defs><path d="M 0, 0 L 0, 0" style="fill: none; stroke: rgb(153, 153, 153); stroke-width: 1px; display: none;"/><g transform="translate(0,0)" id="bottomgroup"><g transform="translate(16.2578125,142)" id="DashRectGroup5" type="shape"><rect x="0" y="0" width="200" height="400" style="opacity: 0;"/><path d="M0 0 H 200 V 400 H 0 V 0 " fill="none" stroke="#bababa" stroke-width="1" stroke-dasharray="5" stroke-dashoffset="0"/><g transform="translate(10 10)" class="content"><text transform="translate(0 14)" style="isolation: isolate;font-size: 14px;fill: #444;font-family: PingFang-SC-Medium, PingFang SC, MicrosoftYaHei, Microsoft YaHei">推流SDK</text></g></g><g transform="translate(267.609375,142)" id="QcloudGroup6" type="shape"><rect overflow="visible" width="403" height="400" fill="#eaebec"/><g transform="translate(0 0)" class="content"><g><g><path d="M33.23,18.19a5.74,5.74,0,0,0-4.11-1.73,5.62,5.62,0,0,0-3.64,1.33c-.46.37-.94.82-1.54,1.4l-9,8.72a13.46,13.46,0,0,0,1.64.09H29.51a5.68,5.68,0,0,0,3.65-1.6,5.77,5.77,0,0,0,.12-8.16Zm-1.67,6.55a3.65,3.65,0,0,1-2.53,1H20.41l5-4.85c.23-.22.75-.72,1.19-1.12a3.59,3.59,0,0,1,2.48-1,3.51,3.51,0,0,1,2.45,6Z" style="fill: #00a3ff"/>  <path d="M19.21,17.64a5.63,5.63,0,0,0-3.46-1.19,5.77,5.77,0,0,0-4,9.9A5.61,5.61,0,0,0,15,27.91l2.24-2.17H15.9a3.65,3.65,0,0,1-2.53-1,3.51,3.51,0,0,1,2.45-6,3.65,3.65,0,0,1,2.38,1c.46.38,1.51,1.3,1.92,1.67l1.62-1.58C20.94,19.09,19.86,18.12,19.21,17.64Z" style="fill: #00c5d9"/>  <path d="M29.72,15.15A7.73,7.73,0,0,0,14.8,16.53a5.75,5.75,0,0,1,1-.08,5.52,5.52,0,0,1,1.3.15h0a5.47,5.47,0,0,1,10.3-1.15,6.63,6.63,0,0,1,2.18-.23C29.72,15.26,29.75,15.22,29.72,15.15Z" style="fill: #006eff"/></g><g>  <path d="M63.27,13H55.94v1.1h2.21V18H55.61v1h2.53v6.49h1.17V19H62.1v6.36h2.21v-1h-1Zm-4,4.93V14.1h2.79V18Z"/>  <rect x="42.92" y="22.56" width="5.79" height="1.06"/>  <path d="M39,20.6a19.25,19.25,0,0,1-.48,4.7c0,.12,0,.15.07.15h1.06A22.18,22.18,0,0,0,40,21.1h1.49v3.3h-1s-.09,0-.06.11l.29,1h1.89V13.07H39Zm1-.45V17.61h1.49v2.54Zm1.49-6v2.52H40V14.13Z"/>  <path d="M49.12,17.37h1.43v-1H46.39a9.7,9.7,0,0,0,.34-1h3.55v-1h-1L49.67,13c0-.07,0-.1-.06-.1h-.9l-.42,1.43H47c.12-.55.22-1.16.32-1.85,0-.08,0-.1-.08-.1h-1c-.11.73-.22,1.36-.36,1.95h-.63L44.77,13h-.9s-.08,0-.06.1l.39,1.33h-1v1h2.37a9.22,9.22,0,0,1-.39,1H42.92v1H44.6A5.46,5.46,0,0,1,42.91,19v1c0,.06,0,.11.22,0a9.62,9.62,0,0,0,1-.63h4V20.8H44.92L45,20a.06.06,0,0,0-.06-.06h-1l-.1,1.81a.06.06,0,0,0,.06.06h5.39V24.4H46.82s-.09,0-.06.11l.29,1h3.37v-4.6H49.1V19a7.69,7.69,0,0,0,1.45,1.06c.17.1.22,0,.22,0V19A5.47,5.47,0,0,1,49.12,17.37Zm-1.3,0a7.75,7.75,0,0,0,.81,1.1H45.15a6.77,6.77,0,0,0,.77-1.1Z"/>  <path d="M56.68,21.82l-2,1.49v-6.9H52v1.17h1.57v6.61l-.63.48.64.85,3.22-2.44v-1.2a.07.07,0,1,0-.12-.06Z"/>  <path d="M53.7,15.37H55a.06.06,0,0,0,0-.1l-1.61-2.46H52.15a.06.06,0,0,0-.06.1Z"/>  <rect x="66.78" y="13.33" width="9.22" height="1.17"/>  <path d="M70.12,18.91H77.3V17.74H65.48v1.17h3.28l-2.39,6.27a.06.06,0,0,0,0,.08H76.62a.07.07,0,0,0,.06-.08h0l-1.52-4H73.89a.06.06,0,0,0-.06.09l1.08,2.83H68.15Z"/></g></g></g></g><g transform="translate(715.5487976074219,142)" id="DashRectGroup23" type="shape"><rect x="0" y="0" width="180" height="400" style="opacity: 0;"/><path d="M0 0 H 180 V 400 H 0 V 0 " fill="none" stroke="#bababa" stroke-width="1" stroke-dasharray="5" stroke-dashoffset="0"/><g transform="translate(10 10)" class="content"><text transform="translate(0 14)" style="isolation: isolate;font-size: 14px;fill: #444;font-family: PingFang-SC-Medium, PingFang SC, MicrosoftYaHei, Microsoft YaHei">播放SDK</text></g></g></g><g transform="translate(0,0)" id="middlegroup"><g transform="translate(0,0)" id="Link40" type="link" startshape="RectEndPoint39" startedge="SM" endshape="DashRectGroup5" endedge="NM"><path d="M 116.5 57.5 L 116.5 97.5 L 116.5 97.5 L 116.5 136.5" style="stroke: #888888;stroke-width: 1px;fill:none;"/><g transform="translate(0, 0.5)"><polygon points="112 131.5 116.5 137.5 121 131.5 112 131.5" style="fill:#888888;fill-rule: evenodd" class="endarrow"/></g><path d="M 116.5 57.5 L 116.5 97.5" style="stroke-width: 15px;stroke:red;fill:none;stroke-opacity:0" class="outer" index="0"/><path d="M 116.5 97.5 L 116.5 97.5" style="stroke-width: 15px;stroke:red;fill:none;stroke-opacity:0" class="outer" index="1"/><path d="M 116.5 97.5 L 116.5 136.5" style="stroke-width: 15px;stroke:red;fill:none;stroke-opacity:0" class="outer" index="2"/></g><g transform="translate(0,0)" id="Link42" type="link" startshape="DashRectGroup23" startedge="NM" endshape="RectEndPoint41" endedge="SM"><path d="M 805.5 141.5 L 805.5 102.5 L 805.5 102.5 L 805.5 62.5" style="stroke: #888888;stroke-width: 1px;fill:none;"/><g transform="translate(0, -0.5)"><polygon points="810 67.5 805.5 61.5 801 67.5 810 67.5" style="fill:#888888;fill-rule: evenodd" class="endarrow"/></g><path d="M 805.5 141.5 L 805.5 102.5" style="stroke-width: 15px;stroke:red;fill:none;stroke-opacity:0" class="outer" index="0"/><path d="M 805.5 102.5 L 805.5 102.5" style="stroke-width: 15px;stroke:red;fill:none;stroke-opacity:0" class="outer" index="1"/><path d="M 805.5 102.5 L 805.5 62.5" style="stroke-width: 15px;stroke:red;fill:none;stroke-opacity:0" class="outer" index="2"/></g><g transform="translate(0,0)" id="Link48" type="link" startshape="QcloudGroup6" startedge="NM" endshape="RectEndPoint31" endedge="SM"><path d="M 457.5 142.5 L 457.5 69.5" style="stroke: #888888;stroke-width: 1px;fill:none;"/><g transform="translate(0, -0.5)"><polygon points="462 74.5 457.5 68.5 453 74.5 462 74.5" style="fill:#888888;fill-rule: evenodd" class="endarrow"/></g><path d="M 457.5 142.5 L 457.5 69.5" style="stroke-width: 15px;stroke:red;fill:none;stroke-opacity:0" class="outer" index="0"/></g><g transform="translate(0,0)" id="Link49" type="link" startshape="RectEndPoint31" startedge="SM" endshape="QcloudGroup6" endedge="NM"><path d="M 467.5 64.5 L 467.5 137.5" style="stroke: #888888;stroke-width: 1px;fill:none;"/><g transform="translate(0, 0.5)"><polygon points="463 132.5 467.5 138.5 472 132.5 463 132.5" style="fill:#888888;fill-rule: evenodd" class="endarrow"/></g><path d="M 467.5 64.5 L 467.5 137.5" style="stroke-width: 15px;stroke:red;fill:none;stroke-opacity:0" class="outer" index="0"/></g><g transform="translate(0,0)" id="Link105" type="link" startshape="DashRectGroup5" startedge="SM" endshape="ShadowBasicRect98" endedge="NM"><path d="M 116.5 541.5 L 116.5 579.5 L 116.5 579.5 L 116.5 616.5" style="stroke: #888888;stroke-width: 1px;fill:none;"/><g transform="translate(0, 0.5)"><polygon points="112 611.5 116.5 617.5 121 611.5 112 611.5" style="fill:#888888;fill-rule: evenodd" class="endarrow"/></g><path d="M 116.5 541.5 L 116.5 579.5" style="stroke-width: 15px;stroke:red;fill:none;stroke-opacity:0" class="outer" index="0"/><path d="M 116.5 579.5 L 116.5 579.5" style="stroke-width: 15px;stroke:red;fill:none;stroke-opacity:0" class="outer" index="1"/><path d="M 116.5 579.5 L 116.5 616.5" style="stroke-width: 15px;stroke:red;fill:none;stroke-opacity:0" class="outer" index="2"/></g><g transform="translate(0,0)" id="Link108" type="link" startshape="ShadowBasicRect68" startedge="SM" endshape="ShadowBasicRect86" endedge="SM"><path d="M 380.5 671.5 L 380.5 701.5 L 805.5 701.5 L 805.5 670.5" stroke-dasharray="6,4" style="stroke: rgb(136, 136, 136); stroke-width: 1px; fill: none;"/><g transform="translate(0, -0.5)"><polygon points="810 675.5 805.5 669.5 801 675.5 810 675.5" style="fill: rgb(136, 136, 136); fill-rule: evenodd;" class="endarrow"/></g><path d="M 380.5 671.5 L 380.5 701.5" style="stroke-width: 15px;stroke:red;fill:none;stroke-opacity:0" class="outer" index="0"/><path d="M 380.5 701.5 L 805.5 701.5" style="stroke-width: 15px; stroke: red; fill: none; stroke-opacity: 0; cursor: ns-resize;" class="outer" index="1"/><path d="M 805.5 701.5 L 805.5 670.5" style="stroke-width: 15px;stroke:red;fill:none;stroke-opacity:0" class="outer" index="2"/></g><g transform="translate(0,0)" id="Link109" type="link" startshape="ShadowBasicRect86" startedge="NM" endshape="DashRectGroup23" endedge="SM"><path d="M 805.5 615.5 L 805.5 581.5 L 805.5 581.5 L 805.5 546.5" style="stroke: rgb(136, 136, 136); stroke-width: 1px; fill: none;"/><g transform="translate(0, -0.5)"><polygon points="810 551.5 805.5 545.5 801 551.5 810 551.5" style="fill: rgb(136, 136, 136); fill-rule: evenodd;" class="endarrow"/></g><path d="M 805.5 615.5 L 805.5 581.5" style="stroke-width: 15px;stroke:red;fill:none;stroke-opacity:0" class="outer" index="0"/><path d="M 805.5 581.5 L 805.5 581.5" style="stroke-width: 15px;stroke:red;fill:none;stroke-opacity:0" class="outer" index="1"/><path d="M 805.5 581.5 L 805.5 546.5" style="stroke-width: 15px; stroke: red; fill: none; stroke-opacity: 0; cursor: ew-resize;" class="outer" index="2"/></g><g transform="translate(0,0)" id="Link71" type="link" startshape="ShadowBasicRect37" startedge="SM" endshape="ShadowBasicRect68" endedge="NM"><path d="M 377.5 475.5 L 377.5 546.5 L 377.5 546.5 L 377.5 616.5" stroke-dasharray="6,4" style="stroke: rgb(136, 136, 136); stroke-width: 1px; fill: none;"/><g transform="translate(0, 0.5)"><polygon points="373 611.5 377.5 617.5 382 611.5 373 611.5" style="fill: rgb(136, 136, 136); fill-rule: evenodd;" class="endarrow"/></g><path d="M 377.5 475.5 L 377.5 546.5" style="stroke-width: 15px; stroke: red; fill: none; stroke-opacity: 0; cursor: ew-resize;" class="outer" index="0"/><path d="M 377.5 546.5 L 377.5 546.5" style="stroke-width: 15px;stroke:red;fill:none;stroke-opacity:0" class="outer" index="1"/><path d="M 377.5 546.5 L 377.5 616.5" style="stroke-width: 15px; stroke: red; fill: none; stroke-opacity: 0; cursor: ew-resize;" class="outer" index="2"/></g><g transform="translate(0,0)" id="Link70" type="link" startshape="RectEndPoint61" startedge="SM" endshape="ShadowBasicRect37" endedge="NM"><path d="M 377.5 369.5 L 377.5 395.5 L 377.5 395.5 L 377.5 420.5" stroke-dasharray="6,4" style="stroke: #888888;stroke-width: 1px;fill:none;"/><g transform="translate(0, 0.5)"><polygon points="373 415.5 377.5 421.5 382 415.5 373 415.5" style="fill:#888888;fill-rule: evenodd" class="endarrow"/></g><path d="M 377.5 369.5 L 377.5 395.5" style="stroke-width: 15px;stroke:red;fill:none;stroke-opacity:0" class="outer" index="0"/><path d="M 377.5 395.5 L 377.5 395.5" style="stroke-width: 15px;stroke:red;fill:none;stroke-opacity:0" class="outer" index="1"/><path d="M 377.5 395.5 L 377.5 420.5" style="stroke-width: 15px;stroke:red;fill:none;stroke-opacity:0" class="outer" index="2"/></g><g transform="translate(0,0)" id="Link65" type="link" startshape="RectEndPoint63" startedge="SM" endshape="ShadowBasicRect13" endedge="NM"><path d="M 562.5 369.5 L 562.5 420.5" style="stroke: #888888;stroke-width: 1px;fill:none;"/><g transform="translate(0, 0.5)"><polygon points="558 415.5 562.5 421.5 567 415.5 558 415.5" style="fill:#888888;fill-rule: evenodd" class="endarrow"/></g><path d="M 562.5 369.5 L 562.5 420.5" style="stroke-width: 15px;stroke:red;fill:none;stroke-opacity:0" class="outer" index="0"/></g><g transform="translate(0,0)" id="Link77" type="link" startshape="ShadowBasicRect13" startedge="NM" endshape="RectEndPoint63" endedge="SM"><path d="M 572.5 425.5 L 572.5 374.5" style="stroke: #888888;stroke-width: 1px;fill:none;"/><g transform="translate(0, -0.5)"><polygon points="577 379.5 572.5 373.5 568 379.5 577 379.5" style="fill:#888888;fill-rule: evenodd" class="endarrow"/></g><path d="M 572.5 425.5 L 572.5 374.5" style="stroke-width: 15px;stroke:red;fill:none;stroke-opacity:0" class="outer" index="0"/></g><g transform="translate(0,0)" id="Link80" type="link" startshape="ShadowBasicRect16" startedge="SM" endshape="ShadowBasicRect15" endedge="NM"><path d="M 466.5 255.5 L 466.5 315.5" style="stroke: #888888;stroke-width: 1px;fill:none;"/><g transform="translate(0, 0.5)"><polygon points="462 310.5 466.5 316.5 471 310.5 462 310.5" style="fill:#888888;fill-rule: evenodd" class="endarrow"/></g><path d="M 466.5 255.5 L 466.5 315.5" style="stroke-width: 15px;stroke:red;fill:none;stroke-opacity:0" class="outer" index="0"/></g><g transform="translate(0,0)" id="Link81" type="link" startshape="ShadowBasicRect15" startedge="NM" endshape="ShadowBasicRect16" endedge="SM"><path d="M 476.5 320.5 L 476.5 260.5" style="stroke: #888888;stroke-width: 1px;fill:none;"/><g transform="translate(0, -0.5)"><polygon points="481 265.5 476.5 259.5 472 265.5 481 265.5" style="fill:#888888;fill-rule: evenodd" class="endarrow"/></g><path d="M 476.5 320.5 L 476.5 260.5" style="stroke-width: 15px;stroke:red;fill:none;stroke-opacity:0" class="outer" index="0"/></g><g transform="translate(0,0)" id="Link94" type="link" startshape="ShadowBasicRect15" startedge="EM" endshape="ShadowBasicRect86" endedge="WM"><path d="M 638.5 344.5 L 677.5 344.5 L 677.5 640.5 L 716.5 640.5" style="stroke: rgb(136, 136, 136); stroke-width: 1px; fill: none;"/><g transform="translate(0.5, 0)"><polygon points="711.5 645 717.5 640.5 711.5 636 711.5 645" style="fill: rgb(136, 136, 136); fill-rule: evenodd;" class="endarrow"/></g><path d="M 638.5 344.5 L 677.5 344.5" style="stroke-width: 15px;stroke:red;fill:none;stroke-opacity:0" class="outer" index="0"/><path d="M 677.5 344.5 L 677.5 640.5" style="stroke-width: 15px; stroke: red; fill: none; stroke-opacity: 0; cursor: ew-resize;" class="outer" index="1"/><path d="M 677.5 640.5 L 716.5 640.5" style="stroke-width: 15px;stroke:red;fill:none;stroke-opacity:0" class="outer" index="2"/></g><g transform="translate(0,0)" id="Link107" type="link" startshape="ShadowBasicRect98" startedge="EM" endshape="ShadowBasicRect15" endedge="WM"><path d="M 198.5 646.5 L 250.5 646.5 L 250.5 345.5 L 302.5 345.5" style="stroke: rgb(136, 136, 136); stroke-width: 1px; fill: none;"/><g transform="translate(0.5, 0)"><polygon points="297.5 350 303.5 345.5 297.5 341 297.5 350" style="fill: rgb(136, 136, 136); fill-rule: evenodd;" class="endarrow"/></g><path d="M 198.5 646.5 L 250.5 646.5" style="stroke-width: 15px;stroke:red;fill:none;stroke-opacity:0" class="outer" index="0"/><path d="M 250.5 646.5 L 250.5 345.5" style="stroke-width: 15px; stroke: red; fill: none; stroke-opacity: 0; cursor: ew-resize;" class="outer" index="1"/><path d="M 250.5 345.5 L 302.5 345.5" style="stroke-width: 15px;stroke:red;fill:none;stroke-opacity:0" class="outer" index="2"/></g></g><g transform="translate(0,0)" id="maingroup"><g transform="translate(50.0546875,207)" id="RectEndPoint1" type="shape" style="cursor: auto;"><rect transform="translate(2 2)" width="134.515625" height="50" style="fill: #bbb;opacity:0.6"/><rect width="134.515625" height="50" style="fill: #fff; stroke-width:1px;shape-rendering: crispEdges; stroke:#e5e5e5"/><g transform="translate(20 9)" class="content"><g style="fill:#00a4ff;" class="logo"><g> <path d="M5,1.13v30H27v-30Zm20,28H7v-26H25Zm-11-1h4v-2H14Zm11-5H7v2H25Z" style="fill: #878787"/></g></g><text transform="translate(42 21)" style="isolation: isolate;font-size: 14px;fill: #444;font-family: PingFang-SC-Medium, PingFang SC, MicrosoftYaHei, Microsoft YaHei">手机直播</text></g></g><g transform="translate(53.09375,316)" id="RectEndPoint2" type="shape" style="cursor: auto;"><rect transform="translate(2 2)" width="128.4375" height="50" style="fill: #bbb;opacity:0.6"/><rect width="128.4375" height="50" style="fill: #fff; stroke-width:1px;shape-rendering: crispEdges; stroke:#e5e5e5"/><g transform="translate(20 9)" class="content"><g style="fill:#00a4ff;" class="logo"><g> <path d="M1,2.13v21H31v-21Zm28,19H3v-17H29Zm-9,3H18v2H14v-2H12v2H7v2H25v-2H20Z" style="fill: #878787"/></g></g><text transform="translate(42 21)" style="isolation: isolate;font-size: 14px;fill: #444;font-family: PingFang-SC-Medium, PingFang SC, MicrosoftYaHei, Microsoft YaHei">PC直播</text></g></g><g transform="translate(34.0546875,426)" id="RectEndPoint3" type="shape" style="cursor: auto;"><rect transform="translate(2 2)" width="166.515625" height="50" style="fill: #bbb;opacity:0.6"/><rect width="166.515625" height="50" style="fill: #fff; stroke-width:1px;shape-rendering: crispEdges; stroke:#e5e5e5"/><g transform="translate(20 9)" class="content"><g style="fill:#00a4ff;" class="logo"><g><path d="M29,12.12v8H3v-8H29m2-2H1v12H31Z" style="fill: #878787"/><polygon points="7 15.13 5 15.13 5 17.13 7 17.13 7 15.13 7 15.13" style="fill: #878787"/><polygon points="10 15.13 8 15.13 8 17.13 10 17.13 10 15.13 10 15.13" style="fill: #878787"/><polygon points="13 15.13 11 15.13 11 17.13 13 17.13 13 15.13 13 15.13" style="fill: #878787"/></g></g><text transform="translate(42 21)" style="isolation: isolate;font-size: 14px;fill: #444;font-family: PingFang-SC-Medium, PingFang SC, MicrosoftYaHei, Microsoft YaHei">视频拍摄设备</text></g></g><g transform="translate(498.50841522216797,426)" id="ShadowBasicRect13" type="shape" style="cursor: move;"><rect transform="translate(2 2)" width="139.60095977783203" height="50" style="fill: #bbb;opacity:0.6"/><rect width="139.60095977783203" height="50" style="fill: #fff;stroke-width:1px;shape-rendering: crispEdges; stroke:#e5e5e5"/><g transform="translate(20 9)" class="content"><g style="fill:#00a4ff;" class="logo"><svg id="图层_1" data-name="图层 1" xmlns="http://www.w3.org/2000/svg" width="32" height="32" viewBox="0 0 32 32">
  <defs>
    <style>
      .cls-1 {
        fill: #00a4ff;
        fill-rule: evenodd;
      }
    </style>
  </defs>
  <title>Product Icons【32】</title>
  <g id="_编组_" data-name="&lt;编组&gt;">
    <g id="_编组_2" data-name="&lt;编组&gt;">
      <path id="_复合路径_" data-name="&lt;复合路径&gt;" class="cls-1" d="M13.51,9.9a.51.51,0,0,0-.51.51v8.18a.5.5,0,0,0,.51.51.5.5,0,0,0,.27-.08l6.54-4.09a.5.5,0,0,0,0-.86L13.77,10A.5.5,0,0,0,13.51,9.9ZM15,13.11l2.23,1.39L15,15.89ZM30,3H2V29H30V9H28V23H4V5H30ZM28,25v2H4V25Z"/>
    </g>
  </g>
</svg>
</g><text transform="translate(42 21)" style="isolation: isolate;font-size: 14px;fill: #444;font-family: PingFang-SC-Medium, PingFang SC, MicrosoftYaHei, Microsoft YaHei">直播转码</text></g></g><g transform="translate(404.109375,207)" id="ShadowBasicRect16" type="shape" style="cursor: auto;"><rect transform="translate(2 2)" width="138" height="50" style="fill: #bbb;opacity:0.6"/><rect width="138" height="50" style="fill: #fff;stroke-width:1px;shape-rendering: crispEdges; stroke:#e5e5e5"/><g transform="translate(20 9)" class="content"><g style="fill:#00a4ff;" class="logo"><svg id="图层_1" data-name="图层 1" xmlns="http://www.w3.org/2000/svg" width="32" height="32" viewBox="0 0 32 32">
  <defs>
    <style>
      .cls-1 {
        fill: #00a4ff;
      }
    </style>
  </defs>
  <title>Product Icons【32】</title>
  <g id="_编组_" data-name="&lt;编组&gt;">
    <g id="_编组_2" data-name="&lt;编组&gt;">
      <path id="_复合路径_" data-name="&lt;复合路径&gt;" class="cls-1" d="M20.24,27.31a2,2,0,1,0,2.83,0A2,2,0,0,0,20.24,27.31ZM25.9,6.1A14,14,0,1,0,13.54,29.77l.34-.34L15.35,28l6.31-6.31a8,8,0,1,0-11.31,0,8.08,8.08,0,0,0,.76.66l.66-.66.77-.77,3-3a2,2,0,1,0-1.41-1.41l-3,3a6,6,0,1,1,9.13.77L16.51,24l-3.6,3.6a11.85,11.85,0,0,1-5.4-3.09,12,12,0,1,1,17,0l-.71.71,1.41,1.41.71-.71A14,14,0,0,0,25.9,6.1Z"/>
    </g>
  </g>
</svg>
</g><text transform="translate(42 21)" style="isolation: isolate;font-size: 14px;fill: #444;font-family: PingFang-SC-Medium, PingFang SC, MicrosoftYaHei, Microsoft YaHei">智能处理</text></g></g><g transform="translate(735.2050476074219,425)" id="RectEndPoint25" type="shape" style="cursor: move;"><rect transform="translate(2 2)" width="138.515625" height="50" style="fill: #bbb;opacity:0.6"/><rect width="138.515625" height="50" style="fill: #fff; stroke-width:1px;shape-rendering: crispEdges; stroke:#e5e5e5"/><g transform="translate(20 9)" class="content"><g style="fill:#00a4ff;" class="logo"><g> <path d="M1,2.13v21H31v-21Zm28,19H3v-17H29Zm-9,3H18v2H14v-2H12v2H7v2H25v-2H20Z" style="fill: #878787"/></g></g><text transform="translate(42 21)" style="isolation: isolate;font-size: 14px;fill: #444;font-family: PingFang-SC-Medium, PingFang SC, MicrosoftYaHei, Microsoft YaHei">电视观看</text></g></g><g transform="translate(729.2909851074219,320)" id="RectEndPoint26" type="shape" style="cursor: auto;"><rect transform="translate(2 2)" width="152.515625" height="50" style="fill: #bbb;opacity:0.6"/><rect width="152.515625" height="50" style="fill: #fff; stroke-width:1px;shape-rendering: crispEdges; stroke:#e5e5e5"/><g transform="translate(20 9)" class="content"><g style="fill:#00a4ff;" class="logo"><g><path d="M1,3.13v25H31v-25Zm28,23H3v-15H29Zm0-17H3v-4H29Zm-21-3H4v2H8Z" style="fill: #878787"/></g></g><text transform="translate(42 21)" style="isolation: isolate;font-size: 14px;fill: #444;font-family: PingFang-SC-Medium, PingFang SC, MicrosoftYaHei, Microsoft YaHei">浏览器观看</text></g></g><g transform="translate(737.2050476074219,213)" id="RectEndPoint27" type="shape" style="cursor: move;"><rect transform="translate(2 2)" width="134.515625" height="50" style="fill: #bbb;opacity:0.6"/><rect width="134.515625" height="50" style="fill: #fff; stroke-width:1px;shape-rendering: crispEdges; stroke:#e5e5e5"/><g transform="translate(20 9)" class="content"><g style="fill:#00a4ff;" class="logo"><g> <path d="M5,1.13v30H27v-30Zm20,28H7v-26H25Zm-11-1h4v-2H14Zm11-5H7v2H25Z" style="fill: #878787"/></g></g><text transform="translate(42 21)" style="isolation: isolate;font-size: 14px;fill: #444;font-family: PingFang-SC-Medium, PingFang SC, MicrosoftYaHei, Microsoft YaHei">手机观看</text></g></g><g transform="translate(384.7025260925293,15)" id="RectEndPoint31" type="shape"><rect transform="translate(2 2)" width="153.515625" height="50" style="fill: #bbb;opacity:0.6"/><rect width="153.515625" height="50" style="fill: #fff; stroke-width:1px;shape-rendering: crispEdges; stroke:#e5e5e5"/><g transform="translate(20 9)" class="content"><g style="fill:#00a4ff;" class="logo"><g><path d="M12,5.13a4,4,0,1,1-4,4,4,4,0,0,1,4-4m0-2a6,6,0,1,0,6,6A6,6,0,0,0,12,3.13Z" style="fill: #878787"/><path d="M16,19.13a6,6,0,0,1,6,6v1H2v-1a6,6,0,0,1,6-6h8m0-2H8a8,8,0,0,0-8,8v3H24v-3A8,8,0,0,0,16,17.13Z" style="fill: #878787"/><path d="M25,17.12H22a10.06,10.06,0,0,1,2,2h1a4,4,0,0,1,4,4v1H26c0,.33,0,.66,0,1v1h5v-3a6,6,0,0,0-6-6Z" style="fill: #878787"/><path d="M21,4.12a4.94,4.94,0,0,0-2.33.6,8,8,0,0,1,.88,1.79,3,3,0,1,1,0,5.22,8,8,0,0,1-.88,1.79,4.94,4.94,0,0,0,2.33.6,5,5,0,0,0,0-10Z" style="fill: #878787"/></g></g><text transform="translate(42 21)" style="isolation: isolate;font-size: 14px;fill: #444;font-family: PingFang-SC-Medium, PingFang SC, MicrosoftYaHei, Microsoft YaHei">管理控制台</text></g></g><g transform="translate(308.109375,426)" id="ShadowBasicRect37" type="shape" style="cursor: auto;"><rect transform="translate(2 2)" width="139.60095977783203" height="50" style="fill: #bbb;opacity:0.6"/><rect width="139.60095977783203" height="50" style="fill: #fff;stroke-width:1px;shape-rendering: crispEdges; stroke:#e5e5e5"/><g transform="translate(20 9)" class="content"><g style="fill:#00a4ff;" class="logo"><svg id="图层_1" data-name="图层 1" xmlns="http://www.w3.org/2000/svg" width="32" height="32" viewBox="0 0 32 32">
  <defs>
    <style>
      .cls-1 {
        fill: #00a4ff;
      }
    </style>
  </defs>
  <title>Product Icons【32】</title>
  <g id="_编组_" data-name="&lt;编组&gt;">
    <path class="cls-1" d="M8.79,2H8.44A4.26,4.26,0,0,0,4,5.44c-.82,3.86-2.25,14.18-.2,21.9C4.31,29.23,5.93,30,8.13,30c6.63,0,18.52-7.07,20.8-12.07C31.74,11.77,15.3,3.57,8.79,2Zm18.29,15.1C24.94,21.82,13.32,28,8.13,28c-2.05,0-2.27-.8-2.37-1.18-1.86-7-.67-16.79.23-21A2.18,2.18,0,0,1,8.44,4h.05c5.24,1.31,16.16,6.74,18.4,11.26A2,2,0,0,1,27.08,17.11ZM12.77,12a.5.5,0,0,0-.27-.08.51.51,0,0,0-.51.51v8.18a.5.5,0,0,0,.51.51.5.5,0,0,0,.27-.08l6.54-4.09a.5.5,0,0,0,0-.86ZM14,17.88V15.1l2.23,1.39Z"/>
  </g>
</svg>
</g><text transform="translate(42 21)" style="isolation: isolate;font-size: 14px;fill: #444;font-family: PingFang-SC-Medium, PingFang SC, MicrosoftYaHei, Microsoft YaHei">直播录制</text></g></g><g transform="translate(56.2578125,8)" id="RectEndPoint39" type="shape"><rect transform="translate(2 2)" width="120" height="50" style="fill: #bbb;opacity:0.6"/><rect width="120" height="50" style="fill: #fff; stroke-width:1px;shape-rendering: crispEdges; stroke:#e5e5e5"/><g transform="translate(20 9)" class="content"><g style="fill:#00a4ff;" class="logo"><g><path d="M12,5.13a4,4,0,1,1-4,4,4,4,0,0,1,4-4m0-2a6,6,0,1,0,6,6A6,6,0,0,0,12,3.13Z" style="fill: #878787"/><path d="M16,19.13a6,6,0,0,1,6,6v1H2v-1a6,6,0,0,1,6-6h8m0-2H8a8,8,0,0,0-8,8v3H24v-3A8,8,0,0,0,16,17.13Z" style="fill: #878787"/><path d="M25,17.12H22a10.06,10.06,0,0,1,2,2h1a4,4,0,0,1,4,4v1H26c0,.33,0,.66,0,1v1h5v-3a6,6,0,0,0-6-6Z" style="fill: #878787"/><path d="M21,4.12a4.94,4.94,0,0,0-2.33.6,8,8,0,0,1,.88,1.79,3,3,0,1,1,0,5.22,8,8,0,0,1-.88,1.79,4.94,4.94,0,0,0,2.33.6,5,5,0,0,0,0-10Z" style="fill: #878787"/></g></g><text transform="translate(42 21)" style="isolation: isolate;font-size: 14px;fill: #444;font-family: PingFang-SC-Medium, PingFang SC, MicrosoftYaHei, Microsoft YaHei">主播</text></g></g><g transform="translate(745.5487976074219,8)" id="RectEndPoint41" type="shape"><rect transform="translate(2 2)" width="120" height="50" style="fill: #bbb;opacity:0.6"/><rect width="120" height="50" style="fill: #fff; stroke-width:1px;shape-rendering: crispEdges; stroke:#e5e5e5"/><g transform="translate(20 9)" class="content"><g style="fill:#00a4ff;" class="logo"><g><path d="M12,5.13a4,4,0,1,1-4,4,4,4,0,0,1,4-4m0-2a6,6,0,1,0,6,6A6,6,0,0,0,12,3.13Z" style="fill: #878787"/><path d="M16,19.13a6,6,0,0,1,6,6v1H2v-1a6,6,0,0,1,6-6h8m0-2H8a8,8,0,0,0-8,8v3H24v-3A8,8,0,0,0,16,17.13Z" style="fill: #878787"/><path d="M25,17.12H22a10.06,10.06,0,0,1,2,2h1a4,4,0,0,1,4,4v1H26c0,.33,0,.66,0,1v1h5v-3a6,6,0,0,0-6-6Z" style="fill: #878787"/><path d="M21,4.12a4.94,4.94,0,0,0-2.33.6,8,8,0,0,1,.88,1.79,3,3,0,1,1,0,5.22,8,8,0,0,1-.88,1.79,4.94,4.94,0,0,0,2.33.6,5,5,0,0,0,0-10Z" style="fill: #878787"/></g></g><text transform="translate(42 21)" style="isolation: isolate;font-size: 14px;fill: #444;font-family: PingFang-SC-Medium, PingFang SC, MicrosoftYaHei, Microsoft YaHei">观众</text></g></g><g transform="translate(329.409854888916,320)" id="RectEndPoint61" type="shape" style="cursor: move;"><rect transform="translate(2 2)" width="97" height="50" style="fill: #bbb;opacity:0.6"/><rect width="97" height="50" style="fill: #fff; stroke-width:1px;shape-rendering: crispEdges; stroke:#e5e5e5"/><g transform="translate(20 9)" class="content"><g style="fill:#00a4ff;" class="logo"/><text transform="translate(0 21)" style="isolation: isolate;font-size: 14px;fill: #444;font-family: PingFang-SC-Medium, PingFang SC, MicrosoftYaHei, Microsoft YaHei">云服务器</text></g></g><g transform="translate(518.5,320)" id="RectEndPoint63" type="shape" style="cursor: move;"><rect transform="translate(2 2)" width="97" height="50" style="fill: #bbb;opacity:0.6"/><rect width="97" height="50" style="fill: #fff; stroke-width:1px;shape-rendering: crispEdges; stroke:#e5e5e5"/><g transform="translate(20 9)" class="content"><g style="fill:#00a4ff;" class="logo"/><text transform="translate(0 21)" style="isolation: isolate;font-size: 14px;fill: #444;font-family: PingFang-SC-Medium, PingFang SC, MicrosoftYaHei, Microsoft YaHei">云服务器</text></g></g><g transform="translate(289.9789695739746,622)" id="ShadowBasicRect68" type="shape"><rect transform="translate(2 2)" width="181.58534240722656" height="50" style="fill: #bbb;opacity:0.6"/><rect width="181.58534240722656" height="50" style="fill: #fff;stroke-width:1px;shape-rendering: crispEdges; stroke:#e5e5e5"/><g transform="translate(20 9)" class="content"><g style="fill:#00a4ff;" class="logo"><svg id="图层_1" data-name="图层 1" xmlns="http://www.w3.org/2000/svg" width="32" height="32" viewBox="0 0 32 32">
  <defs>
    <style>
      .cls-1 {
        fill: #00a4ff;
        fill-rule: evenodd;
      }
    </style>
  </defs>
  <title>Product Icons【32】</title>
  <g id="_编组_" data-name="&lt;编组&gt;">
    <g id="_编组_2" data-name="&lt;编组&gt;">
      <path id="_复合路径_" data-name="&lt;复合路径&gt;" class="cls-1" d="M26,13.15c0-.05,0-.1,0-.15A10,10,0,1,0,6,13c0,.05,0,.1,0,.15A7.5,7.5,0,0,0,7,28v0h7V26H7.45l-.32,0A5.5,5.5,0,0,1,6.4,15.11L8,14.78l0-1.66C8,13.07,8,13,8,13a8,8,0,0,1,16,0c0,.05,0,.11,0,.16l0,1.66,1.63.33A5.5,5.5,0,0,1,24.87,26l-.26,0H18v2h7v0a7.5,7.5,0,0,0,1-14.83Zm-5.68,3.92L13.77,13a.5.5,0,0,0-.27-.08.51.51,0,0,0-.51.51v8.18a.5.5,0,0,0,.51.51.5.5,0,0,0,.27-.08l6.54-4.09A.5.5,0,0,0,20.32,17.07ZM15,18.89V16.11l2.23,1.39Z"/>
    </g>
  </g>
</svg>
</g><text transform="translate(42 21)" style="isolation: isolate;font-size: 14px;fill: #444;font-family: PingFang-SC-Medium, PingFang SC, MicrosoftYaHei, Microsoft YaHei">腾讯云点播存储</text></g></g><g transform="translate(308.109375,320)" id="ShadowBasicRect15" type="shape" style="cursor: auto;"><rect transform="translate(2 2)" width="330" height="50" style="fill: #bbb;opacity:0.6"/><rect width="330" height="50" style="fill: #fff;stroke-width:1px;shape-rendering: crispEdges; stroke:#e5e5e5"/><g transform="translate(116.5,12)" class="content"><g style="fill:#00a4ff;" class="logo"><svg id="图层_1" data-name="图层 1" xmlns="http://www.w3.org/2000/svg" width="32" height="32" viewBox="0 0 32 32">
  <defs>
    <style>
      .cls-1 {
        fill: #00a4ff;
        fill-rule: evenodd;
      }
    </style>
  </defs>
  <title>Product Icons【32】</title>
  <g id="_编组_" data-name="&lt;编组&gt;">
    <g id="_编组_2" data-name="&lt;编组&gt;">
      <path id="_复合路径_" data-name="&lt;复合路径&gt;" class="cls-1" d="M13.51,9.9a.51.51,0,0,0-.51.51v8.18a.5.5,0,0,0,.51.51.5.5,0,0,0,.27-.08l6.54-4.09a.5.5,0,0,0,0-.86L13.77,10A.5.5,0,0,0,13.51,9.9ZM15,13.11l2.23,1.39L15,15.89ZM30,3H2V29H30V9H28V23H4V5H30ZM28,25v2H4V25Z"/>
    </g>
  </g>
</svg>
</g><text transform="translate(42 21)" style="isolation: isolate;font-size: 14px;fill: #444;font-family: PingFang-SC-Medium, PingFang SC, MicrosoftYaHei, Microsoft YaHei">直播源站</text></g></g><g transform="translate(721.12451171875,616)" id="ShadowBasicRect86" type="shape"><rect transform="translate(2 2)" width="168.84857177734375" height="50" style="fill: #bbb;opacity:0.6"/><rect width="168.84857177734375" height="50" style="fill: #fff;stroke-width:1px;shape-rendering: crispEdges; stroke:#e5e5e5"/><g transform="translate(20 9)" class="content"><g style="fill:#00a4ff;" class="logo"> <path d="M16,29A13,13,0,1,1,28.83,14h2a15,15,0,1,0,0,4h-2A13,13,0,0,1,16,29Zm7-17L16,8,9,12v8l3.2,1.83a4,4,0,0,1,1-1.71L11,18.84v-3.7L16,18l5-2.86v3.7L16.86,21.2A2,2,0,1,0,18,23v-.14L23,20Zm-7,3.7L11.28,13,16,10.3,20.72,13Z" style="fill: #00a4ff"/></g><text transform="translate(42 21)" style="isolation: isolate;font-size: 14px;fill: #444;font-family: PingFang-SC-Medium, PingFang SC, MicrosoftYaHei, Microsoft YaHei">CDN分发节点</text></g></g><g transform="translate(925.0487976074219,689)" id="RectEndPoint89" type="shape"><rect transform="translate(2 2)" width="165" height="49" style="fill: #bbb;opacity:0.6"/><rect width="165" height="49" style="fill: #fff; stroke-width:1px;shape-rendering: crispEdges; stroke:#e5e5e5"/><g transform="translate(20 9)" class="content"><g style="fill:#00a4ff;" class="logo"/><text transform="translate(0 21)" style="isolation: isolate;font-size: 14px;fill: #444;font-family: PingFang-SC-Medium, PingFang SC, MicrosoftYaHei, Microsoft YaHei">云服务器</text></g></g><g transform="translate(34.0546875,622)" id="ShadowBasicRect98" type="shape"><rect transform="translate(2 2)" width="164.40625" height="50" style="fill: #bbb;opacity:0.6"/><rect width="164.40625" height="50" style="fill: #fff;stroke-width:1px;shape-rendering: crispEdges; stroke:#e5e5e5"/><g transform="translate(20 9)" class="content"><g style="fill:#00a4ff;" class="logo"><svg id="图层_1" data-name="图层 1" xmlns="http://www.w3.org/2000/svg" width="32" height="32" viewBox="0 0 32 32">
  <defs>
    <style>
      .cls-1 {
        fill: #00a4ff;
      }
    </style>
  </defs>
  <title>Product Icons【32】</title>
  <g>
    <g>
      <g id="_编组_" data-name="&lt;编组&gt;">
        <polygon class="cls-1" points="28 22.84 16 29.7 4 22.84 4 9.16 16 2.3 28 9.16 28 9.14 30 8 16 0 2 8 2 24 16 32 30 24 30 12 28 13.14 28 22.84"/>
      </g>
      <g>
        <polygon class="cls-1" points="11 13.16 11.73 12.74 12 12.59 12 12.59 16 10.3 21 13.16 21 16.83 23 15.68 23 12 16 8 9 12 9 14.31 11 13.16 11 13.16"/>
        <polygon class="cls-1" points="21 18.83 21 18.84 16 21.7 11 18.84 11 15.16 9 16.31 9 20 16 24 23 20 23 17.68 21 18.83"/>
      </g>
    </g>
    <path class="cls-1" d="M14,13.88v4.23a.5.5,0,0,0,.76.43l3.53-2.12a.5.5,0,0,0,0-.86l-3.53-2.12A.5.5,0,0,0,14,13.88Z"/>
  </g>
</svg>
</g><text transform="translate(42 21)" style="isolation: isolate;font-size: 14px;fill: #444;font-family: PingFang-SC-Medium, PingFang SC, MicrosoftYaHei, Microsoft YaHei">上行加速节点</text></g></g><g transform="translate(289.9789695739746,720)" id="Rects101" type="shape"><rect width="164" height="62" style="fill: none;opacity:0"/><rect x="12" y="12" width="152" height="50" style="fill: #bbb;opacity:0.6"/><rect x="10" y="10" width="152" height="50" style="fill: #fff;stroke-width:1px;shape-rendering: crispEdges; stroke:#e5e5e5"/><rect x="7" y="7" width="152" height="50" style="fill: #bbb;opacity:0.6"/><rect x="5" y="5" width="152" height="50" style="fill: #fff;stroke-width:1px;shape-rendering: crispEdges; stroke:#e5e5e5"/><rect x="2" y="2" width="152" height="50" style="fill: #bbb;opacity:0.6"/><rect width="152" height="50" style="fill: #fff;stroke-width:1px;shape-rendering: crispEdges; stroke:#e5e5e5"/><g transform="translate(20 9)" class="content"><g style="fill:#00a4ff;" class="logo"><path d="M16,29A13,13,0,1,1,28.83,14h2a15,15,0,1,0,0,4h-2A13,13,0,0,1,16,29Zm7-17L16,8,9,12v8l3.2,1.83a4,4,0,0,1,1-1.71L11,18.84v-3.7L16,18l5-2.86v3.7L16.86,21.2A2,2,0,1,0,18,23v-.14L23,20Zm-7,3.7L11.28,13,16,10.3,20.72,13Z" style="fill: #00a4ff"/></g><text transform="translate(42 21)" style="isolation: isolate;font-size: 14px;fill: #444;font-family: PingFang-SC-Medium, PingFang SC, MicrosoftYaHei, Microsoft YaHei">上行加速节点</text></g></g></g><g transform="translate(0,0)" id="textgroup"><g transform="translate(127.97896957397461,579)" id="Textbasic21" type="shape"><rect overflow="visible" opacity="0.5" width="80" height="20" fill="#CEE3FF" style="opacity:0"/><g transform="translate(0 0)" class="content"><text transform="translate(0 14)" fill="#878787" style="font-size: 12px;font-family: PingFang-SC-Medium, PingFang SC, MicrosoftYaHei, Microsoft YaHei">RTMP</text></g></g><g transform="translate(815,584)" id="Textbasic35" type="shape"><rect overflow="visible" opacity="0.5" width="87.109375" height="20" fill="#CEE3FF" style="opacity:0"/><g transform="translate(0 0)" class="content"><text transform="translate(0 14)" fill="#878787" style="font-size: 12px;font-family: PingFang-SC-Medium, PingFang SC, MicrosoftYaHei, Microsoft YaHei">FLV/RTMP/HLS</text></g></g><g transform="translate(483,80)" id="Textbasic50" type="shape"><rect overflow="visible" opacity="0.5" width="80" height="20" fill="#CEE3FF" style="opacity:0"/><g transform="translate(0 0)" class="content"><text transform="translate(0 14)" fill="#878787" style="font-size: 12px;font-family: PingFang-SC-Medium, PingFang SC, MicrosoftYaHei, Microsoft YaHei">API接口</text></g></g><g transform="translate(209.9789695739746,652)" id="Textbasic58" type="shape"><rect overflow="visible" opacity="0.5" width="80" height="20" fill="#CEE3FF" style="opacity:0"/><g transform="translate(0 0)" class="content"><text transform="translate(0 14)" fill="#878787" style="font-size: 12px;font-family: PingFang-SC-Medium, PingFang SC, MicrosoftYaHei, Microsoft YaHei">直播推流</text></g></g><g transform="translate(384.7025260925293,584)" id="Textbasic73" type="shape"><rect overflow="visible" opacity="0.5" width="80" height="20" fill="#CEE3FF" style="opacity:0"/><g transform="translate(0 0)" class="content"><text transform="translate(0 14)" fill="#878787" style="font-size: 12px;font-family: PingFang-SC-Medium, PingFang SC, MicrosoftYaHei, Microsoft YaHei">点播转码</text></g></g><g transform="translate(542.2181510925293,679)" id="Textbasic74" type="shape"><rect overflow="visible" opacity="0.5" width="80" height="20" fill="#CEE3FF" style="opacity:0"/><g transform="translate(0 0)" class="content"><text transform="translate(0 14)" fill="#878787" style="font-size: 12px;font-family: PingFang-SC-Medium, PingFang SC, MicrosoftYaHei, Microsoft YaHei">点播流</text></g></g><g transform="translate(409.11718368530273,717)" id="Textbasic76" type="shape"><rect overflow="visible" opacity="0.5" width="80" height="20" fill="#CEE3FF" style="opacity:0"/><g transform="translate(0 0)" class="content"><text transform="translate(0 14)" fill="#878787" style="font-size: 12px;font-family: PingFang-SC-Medium, PingFang SC, MicrosoftYaHei, Microsoft YaHei">直播推流</text></g></g></g><g transform="translate(0,0)" id="assistantgroup"/></svg>