<?xml version="1.0" encoding="utf-8"?>
<!-- Generator: Adobe Illustrator 22.1.0, SVG Export Plug-In . SVG Version: 6.00 Build 0)  -->
<svg version="1.1" id="图层_1" xmlns="http://www.w3.org/2000/svg" xmlns:xlink="http://www.w3.org/1999/xlink" x="0px" y="0px"
	 width="48px" height="48px" viewBox="0 0 48 48" style="enable-background:new 0 0 48 48;" xml:space="preserve">
<style type="text/css">
	.st0{fill:#00A4FF;}
	.st1{fill-rule:evenodd;clip-rule:evenodd;fill:#00A4FF;}
	.st2{fill-rule:evenodd;clip-rule:evenodd;fill:none;stroke:#00A4FF;stroke-width:2;stroke-miterlimit:10;}
	.st3{fill-rule:evenodd;clip-rule:evenodd;fill:url(#SVGID_1_);}
	.st4{fill-rule:evenodd;clip-rule:evenodd;fill:url(#SVGID_2_);}
	.st5{fill-rule:evenodd;clip-rule:evenodd;fill:url(#SVGID_3_);}
	.st6{fill-rule:evenodd;clip-rule:evenodd;fill:url(#SVGID_4_);}
	.st7{fill:url(#SVGID_5_);}
	.st8{fill-rule:evenodd;clip-rule:evenodd;fill:url(#SVGID_6_);}
	.st9{fill-rule:evenodd;clip-rule:evenodd;fill:url(#SVGID_7_);}
	.st10{fill:url(#SVGID_8_);}
	.st11{fill:url(#SVGID_9_);}
	.st12{fill:url(#SVGID_10_);}
	.st13{fill:url(#SVGID_11_);}
	.st14{fill:url(#SVGID_12_);}
	.st15{fill:url(#SVGID_13_);}
</style>
<rect x="25.4" y="29" transform="matrix(0.7071 0.7071 -0.7071 0.7071 29.383 -10.916)" class="st1" width="5" height="2"/>
<rect x="26.8" y="27.2" transform="matrix(-0.7071 0.7071 -0.7071 -0.7071 74.1838 25.7574)" class="st1" width="10" height="2"/>
<path class="st0" d="M42,10v15c0,0.1-0.3,14.6-18,18.9C6.5,39.7,6,25.6,6,25.1V4h38V2H4v23.1c0,0,0.2,16.4,20,20.9
	c19.8-4.6,20-20.9,20-20.9V10H42z"/>
<path class="st0" d="M24,8c-3.3,0-6,2.7-6,6s2.7,6,6,6s6-2.7,6-6S27.3,8,24,8z M24,18c-2.2,0-4-1.8-4-4s1.8-4,4-4s4,1.8,4,4
	S26.2,18,24,18z"/>
<path class="st0" d="M30.1,24.5l1.5-1.5c-1-0.6-2.3-1-3.6-1h-8c-3.9,0-7,3.1-7,7v2h2v-2c0-2.8,2.2-5,5-5h8
	C28.7,24,29.4,24.2,30.1,24.5z"/>
</svg>
