<?xml version="1.0" encoding="utf-8"?>
<!-- Generator: Adobe Illustrator 19.0.0, SVG Export Plug-In . SVG Version: 6.00 Build 0)  -->
<svg version="1.1" id="图层_1" xmlns="http://www.w3.org/2000/svg" xmlns:xlink="http://www.w3.org/1999/xlink" x="0px" y="0px"
	 viewBox="330 -70 820 300" style="enable-background:new 330 -70 820 300;" xml:space="preserve">
<style type="text/css">
	.st0{display:none;opacity:5.000000e-02;}
	.st1{display:inline;}
	.st2{display:none;opacity:0.5;fill:none;stroke:#000000;stroke-miterlimit:10;enable-background:new    ;}
	.st3{display:none;opacity:0.2;enable-background:new    ;}
	.st4{opacity:0.2;}
	.st5{fill:url(#SVGID_1_);}
	.st6{fill:url(#SVGID_2_);}
	.st7{fill:url(#SVGID_3_);}
	.st8{fill:url(#SVGID_4_);}
	.st9{fill:#C2C5CA;}
	.st10{fill:url(#SVGID_5_);}
	.st11{fill:url(#SVGID_6_);}
	.st12{fill:url(#SVGID_7_);}
	.st13{fill:url(#SVGID_8_);}
	.st14{fill:#333333;}
</style>
<g class="st0">
	<rect x="330" y="-52" class="st1" width="820" height="2"/>
	<rect x="330" y="-32" class="st1" width="820" height="2"/>
	<rect x="330" y="-12" class="st1" width="820" height="2"/>
	<rect x="330" y="8" class="st1" width="820" height="2"/>
	<rect x="331" y="28" class="st1" width="820" height="2"/>
	<rect x="331" y="48" class="st1" width="820" height="2"/>
	<rect x="331" y="68" class="st1" width="820" height="2"/>
	<polygon class="st1" points="331,88 330,88 330,90 331,90 1150,90 1151,90 1151,88 1150,88 	"/>
	<rect x="330" y="108" class="st1" width="820" height="2"/>
	<rect x="330" y="128" class="st1" width="820" height="2"/>
	<rect x="330" y="148" class="st1" width="820" height="2"/>
	<rect x="331" y="168" class="st1" width="820" height="2"/>
	<rect x="331" y="188" class="st1" width="820" height="2"/>
	<rect x="331" y="208" class="st1" width="820" height="2"/>
	<rect x="331" y="228" class="st1" width="820" height="2"/>
</g>
<g class="st0">
	<rect x="349" y="-69" class="st1" width="2" height="299"/>
	<rect x="369" y="-69" class="st1" width="2" height="299"/>
	<rect x="389" y="-69" class="st1" width="2" height="299"/>
	<rect x="409" y="-69" class="st1" width="2" height="299"/>
	<rect x="429" y="-67" class="st1" width="2" height="297"/>
	<rect x="449" y="-67" class="st1" width="2" height="297"/>
	<rect x="469" y="-67" class="st1" width="2" height="297"/>
	<polygon class="st1" points="489,228.4 489,230 491,230 491,228.4 491,-69 489,-69 	"/>
	<rect x="509" y="-69" class="st1" width="2" height="299"/>
	<rect x="529" y="-69" class="st1" width="2" height="299"/>
	<rect x="549" y="-69" class="st1" width="2" height="299"/>
	<rect x="569" y="-67" class="st1" width="2" height="297"/>
	<rect x="589" y="-67" class="st1" width="2" height="297"/>
	<rect x="609" y="-67" class="st1" width="2" height="297"/>
	<rect x="629" y="-67" class="st1" width="2" height="297"/>
	<rect x="649" y="-68" class="st1" width="2" height="298"/>
	<rect x="669" y="-68" class="st1" width="2" height="298"/>
	<rect x="689" y="-68" class="st1" width="2" height="298"/>
	<rect x="709" y="-68" class="st1" width="2" height="298"/>
	<rect x="729" y="-67" class="st1" width="2" height="297"/>
	<rect x="749" y="-67" class="st1" width="2" height="297"/>
	<rect x="769" y="-67" class="st1" width="2" height="297"/>
	<polygon class="st1" points="789,229.2 789,230 791,230 791,229.2 791,-68 789,-68 	"/>
	<rect x="809" y="-68" class="st1" width="2" height="298"/>
	<rect x="829" y="-68" class="st1" width="2" height="298"/>
	<rect x="849" y="-68" class="st1" width="2" height="298"/>
	<rect x="869" y="-67" class="st1" width="2" height="297"/>
	<rect x="889" y="-67" class="st1" width="2" height="297"/>
	<rect x="909" y="-67" class="st1" width="2" height="297"/>
	<rect x="929" y="-67" class="st1" width="2" height="297"/>
	<rect x="949" y="-67" class="st1" width="2" height="297"/>
	<rect x="969" y="-67" class="st1" width="2" height="297"/>
	<polygon class="st1" points="989,229.2 989,230 991,230 991,229.2 991,-68 989,-68 	"/>
	<rect x="1009" y="-68" class="st1" width="2" height="298"/>
	<rect x="1029" y="-68" class="st1" width="2" height="298"/>
	<rect x="1049" y="-68" class="st1" width="2" height="298"/>
	<rect x="1069" y="-67" class="st1" width="2" height="297"/>
	<rect x="1089" y="-67" class="st1" width="2" height="297"/>
	<rect x="1109" y="-67" class="st1" width="2" height="297"/>
	<rect x="1129" y="-67" class="st1" width="2" height="297"/>
	<rect x="1149" y="-67" class="st1" width="2" height="297"/>
</g>
<path class="st2" d="M370.5-10.5h140v140h-140V-10.5z"/>
<path class="st2" d="M570-12h140v140H570V-12z"/>
<path class="st2" d="M770-11h140v140H770V-11z"/>
<path class="st2" d="M970-31h140v180H970V-31z"/>
<rect x="330" y="-70" class="st3" width="820" height="40"/>
<rect x="1110" y="-70" class="st3" width="40" height="300"/>
<rect x="330" y="190" class="st3" width="820" height="40"/>
<rect x="330" y="-70" class="st3" width="40" height="300"/>
<g class="st4">
	<g>
		
			<linearGradient id="SVGID_1_" gradientUnits="userSpaceOnUse" x1="676.077" y1="61.136" x2="604.4675" y2="132.7455" gradientTransform="matrix(1 0 0 -1 0 160)">
			<stop  offset="0" style="stop-color:#0063FF"/>
			<stop  offset="1" style="stop-color:#00C8DE"/>
		</linearGradient>
		<path class="st5" d="M641.9,75.1l6.9-3.7v-7.1l-6.9,4.1V75.1z M632.5,71.3l6.9,3.8v-6.6l-6.9-4V71.3z M599.6,32.1l9.9,72h61.3
			l10.2-72C681.1,32.1,599.6,32.1,599.6,32.1z M640.6,47.2l-18.3,9.9v19.9l18.3,9.9l18.3-9.9V62.6l2.7-1.2v17.2l-21,11.4l-21-11.4
			V55.7l21-11.4l21,11.4l-2.7,1.5L640.6,47.2z M651.1,61.4v11.4l-10.5,5.7l-10.5-5.7V61.4l10.5-5.7L651.1,61.4z M633.3,62.3l7.3,4
			l7.3-4l-7.3-4L633.3,62.3z"/>
	</g>
</g>
<g>
	<g>
		
			<linearGradient id="SVGID_2_" gradientUnits="userSpaceOnUse" x1="681.4847" y1="58.9987" x2="592.9078" y2="147.5758" gradientTransform="matrix(1 0 0 -1 0 160)">
			<stop  offset="0" style="stop-color:#0063FF"/>
			<stop  offset="1" style="stop-color:#00C8DE"/>
		</linearGradient>
		<path class="st6" d="M642.7,57.1h-3.3c-0.9,0-2,0-2.8,0.6c-0.8,0.6-1.3,1.6-1.6,3.2l-1,5.9c-0.2,1.2-0.3,1.8-0.3,2.4
			c0,2.2,1.2,2.9,3.9,2.9h3.3c0.9,0,1.9,0,2.8-0.6c0.9-0.6,1.3-1.6,1.6-3.2l1.1-6c0.2-1.2,0.3-1.8,0.3-2.4
			C646.6,57.8,645.5,57.1,642.7,57.1z M643.6,63.3l-0.7,4.2c-0.4,1.9-0.6,2.6-2.2,2.6h-1.9c-1.6,0-2.3-0.2-2.3-1.2
			c0-0.5,0.2-1.5,0.4-2.8l0.7-4.2c0.4-2,0.6-2.6,2.2-2.6h1.9c1.6,0,2.3,0.2,2.3,1.2C644,61,643.8,62,643.6,63.3z M649.4,60.1
			l-0.4,2.1c-0.1,0.6-0.2,1.1-0.2,1.5c0,1.2,0.5,1.8,2.1,1.8h2.9c0.7,0,1,0,1,0.5c0,0.2,0,0.6-0.2,1.3l-0.2,1
			c-0.3,1.4-0.5,1.5-1.7,1.5h-5l0.4,2.2h4.6c1.3,0,2.2-0.1,2.9-0.5c0.7-0.5,1.1-1.3,1.3-2.5l0.4-2c0.1-0.4,0.3-1.6,0.3-2.1
			c0-1.5-1.1-1.7-2.7-1.7h-2.5c-0.5,0-0.8-0.1-0.8-0.4c0-0.2,0.1-0.6,0.2-1.1l0.2-1.2c0.2-1,0.4-1.2,1.3-1.2h4.8l0.9-2.2H653
			C650.6,57.2,649.8,57.8,649.4,60.1z M679.8,28l3.8-8.1L646.4,2.7l-3.6,7.8l-5.6-15.3l-42.4,15.4l6.3,17.4h-6.9l11.2,80h69l11.8-80
			L679.8,28L679.8,28z M646.9,4.1l35.2,16.4l-3.5,7.5h-14.7c0.3-0.4,0.5-0.8,0.7-1.2c1.5-3.3,0.1-7.1-3.2-8.6
			c-3.3-1.5-7.1-0.1-8.6,3.2c-1.1,2.3-0.7,4.8,0.8,6.7h-17.7l-0.1-0.1L646.9,4.1z M663.7,26.4c-0.3,0.6-0.7,1.2-1.2,1.6h-7.4
			c-1.7-1.6-2.2-4-1.2-6.2c1.3-2.7,4.5-3.9,7.2-2.6C663.8,20.5,665,23.7,663.7,26.4z M634.6,28H606l4.7-6l10.2,2.9l0-0.1l0.2,0.2
			l8.1-13l11.1,3.5L634.6,28z M596.3,11.3l40.2-14.6L642,12l-1.1,2.3l-12.3-3.9l-0.2,0.5l-7.9,12.6l-10.5-2.9l-0.1,0.3l-5.6,7.1
			h-2.1L596.3,11.3z M673.4,107.1h-66.8l-10.9-78h89.1L673.4,107.1z M625.7,57.8c-0.9,0.6-1.3,1.6-1.6,3.2l-1,5.7
			c-0.2,1.2-0.3,1.8-0.3,2.4c0,2.2,1.2,2.9,3.9,2.9h3.8l0.9-2.2h-3.6c-1.6,0-2.3-0.2-2.3-1.2c0-0.5,0.2-1.5,0.4-2.8l0.7-3.9
			c0.4-1.9,0.6-2.6,2.2-2.6h3.7l0.9-2.2h-4.9C627.5,57.2,626.5,57.2,625.7,57.8z M607,18.9c2-0.7,3.1-3,2.3-5c-0.7-2-3-3.1-5-2.3
			c-2,0.7-3.1,3-2.3,5C602.8,18.6,605,19.7,607,18.9z M604.7,12.7c1.4-0.5,3,0.2,3.5,1.6c0.5,1.4-0.2,3-1.6,3.5
			c-1.4,0.5-3-0.2-3.5-1.6S603.3,13.2,604.7,12.7z M656.8,25.8l4.5-0.6l-2.4-3.9L656.8,25.8z"/>
	</g>
</g>
<g>
	<g>
		
			<linearGradient id="SVGID_3_" gradientUnits="userSpaceOnUse" x1="875.7183" y1="70.9972" x2="799.5178" y2="147.1976" gradientTransform="matrix(1 0 0 -1 0 160)">
			<stop  offset="0" style="stop-color:#0063FF"/>
			<stop  offset="1" style="stop-color:#00C8DE"/>
		</linearGradient>
		<path class="st7" d="M824.9,55.6l-1.2-0.9c-0.6,0.8-0.9,1.3-0.9,1.3l1.3,0.8C824,56.8,824.3,56.3,824.9,55.6z M836.2,53.8l0.8,1.3
			c0.9-0.5,1.8-1,2.7-1.5l-0.7-1.3C838,52.7,837.1,53.2,836.2,53.8z M830.9,57.3l0.9,1.2c0.8-0.6,1.7-1.2,2.5-1.8l-0.8-1.3
			C832.6,56,831.7,56.6,830.9,57.3z M828.6,50.8l-1.1-1c-0.8,0.9-1.4,1.7-2,2.4l1.2,0.9C827.2,52.5,827.9,51.7,828.6,50.8z
			 M847,35.1l-0.8-1.3c-0.9,0.5-1.8,1.1-2.6,1.7l0.8,1.2C845.3,36.2,846.1,35.6,847,35.1z M831.7,45.3c-0.8,0.8-1.5,1.5-2.2,2.2
			l1.1,1c0.7-0.7,1.4-1.4,2.1-2.2L831.7,45.3z M827.3,60.3l1.1,1c0,0,0.4-0.4,1.1-1l-1-1.1C827.7,59.9,827.3,60.3,827.3,60.3z
			 M836.3,41.2c-0.8,0.7-1.6,1.4-2.3,2.1l1,1.1c0.7-0.7,1.5-1.3,2.3-2L836.3,41.2z M820.8,59.3c-3.8,0-6.9,3.1-6.9,6.9
			s3.1,6.9,6.9,6.9c3.8,0,6.9-3.1,6.9-6.9S824.7,59.3,820.8,59.3z M820.8,70c-2.1,0-3.8-1.7-3.8-3.8s1.7-3.8,3.8-3.8
			c2.1,0,3.8,1.7,3.8,3.8S823,70,820.8,70z M813.2,76l1.4,0.5c0.6-1.6,1.2-2.6,1.2-2.6l-1.3-0.8C814.4,73.2,813.8,74.2,813.2,76z
			 M866.8,64.1l1.3,0.7c0.5-0.9,1-1.8,1.4-2.7l-1.3-0.7C867.8,62.3,867.3,63.2,866.8,64.1z M873.9,50.8l-1.4-0.4
			c-0.3,1-0.6,1.9-0.9,2.8l1.4,0.5C873.4,52.8,873.7,51.8,873.9,50.8z M879.7,48.1l0.7-1.3c-0.1,0-0.5-0.3-1.5-0.6l-0.5,1.4
			C879.3,47.9,879.7,48.1,879.7,48.1z M872.1,30c1.6,1.6,3.7,2.4,5.6,2.4s4-0.8,5.6-2.4c3.2-3.2,3.2-8.3,0-11.2
			c-1.6-1.6-3.5-2.4-5.6-2.4s-4,0.8-5.6,2.4C868.9,22,868.9,27.1,872.1,30z M874.5,21.2c1.4-0.9,2.8-1.4,3.3-1.4
			c0.9,0,2.3,0,3.3,1.4c1.9,1.9,1.9,4.7,0,6.5c-0.9,1.4-2.3,1.4-3.3,1.4c-0.9,0-2.3,0-3.3-1.4c-1.4-0.9-1.4-2.3-1.4-3.3
			S873.1,22.1,874.5,21.2z M883.8,34.4c1.1,2.3,2,4.7,2.7,7.1c0.3-0.1,0.7-0.2,1.1-0.2c-0.7-2.6-1.7-5.1-2.8-7.5
			C884.4,34,884.1,34.2,883.8,34.4z M872,56.6l-1.4-0.5c-0.4,0.9-0.7,1.8-1.1,2.7l1.4,0.6C871.3,58.5,871.7,57.5,872,56.6z
			 M857.1,47.6l-0.3-1.5c-1,0.2-2.1,0.4-3.1,0.7l0.4,1.5C855.1,48,856.1,47.8,857.1,47.6z M851.1,49l-0.4-1.4c-1,0.3-2,0.6-3,1
			l0.5,1.4C849.1,49.6,850.1,49.3,851.1,49z M858.1,30.4l-0.4-1.4c-1,0.3-2,0.6-3,0.9l0.5,1.4C856.1,31,857.1,30.7,858.1,30.4z
			 M869,46.3l0.4,0l0-1.5l-0.4,0c-0.9,0-1.8,0-2.8,0.1l0.1,1.5C867.2,46.4,868.1,46.3,869,46.3z M852.4,32.4l-0.6-1.4
			c-1,0.4-1.9,0.8-2.8,1.3l0.7,1.3C850.5,33.2,851.4,32.8,852.4,32.4z M841.1,37.3c-0.8,0.6-1.7,1.3-2.4,1.9l0.9,1.2
			c0.8-0.6,1.6-1.2,2.4-1.9L841.1,37.3z M868.4,29.1l0.1-1.5c0,0-0.6,0-1.6,0l0,1.5C867.9,29.1,868.4,29.1,868.4,29.1z M876,35.4
			l-1.5,0.1c0,0,0,0.1,0,0.4l1.5,0C876.1,35.5,876,35.4,876,35.4z M813.8,85.7c0,0-0.1-0.3-0.1-0.7l-1.5,0.2
			c0.1,0.5,0.2,0.8,0.2,0.8L813.8,85.7z M813.8,79.3l-1.5-0.3l-0.1,0.4c-0.2,0.9-0.3,1.8-0.3,2.7l1.5,0c0-0.9,0.1-1.7,0.2-2.4
			L813.8,79.3z M840.2,6.8c10.9,0,20.9,3.6,28.9,9.6c0.3-0.3,0.5-0.6,0.8-0.8c-8.3-6.3-18.6-10-29.8-10c-11.8,0-22.6,4.1-31,11
			c0.3,0.3,0.6,0.6,0.9,0.9C818.2,10.8,828.7,6.8,840.2,6.8z M813.9,88.9c-1.8,0-3.3,0.7-4.7,2c-2.7,2.7-2.7,6.9,0,9.4
			c1.3,1.3,3.1,2,4.7,2c1.6,0,3.3-0.7,4.7-2c2.7-2.7,2.7-6.9,0-9.4C817.2,89.6,815.7,88.9,813.9,88.9z M816.6,98.4
			c-0.8,1.2-1.9,1.2-2.7,1.2s-1.9,0-2.7-1.2c-1.2-0.8-1.2-1.9-1.2-2.7c0-0.8,0-1.9,1.2-2.7c1.2-0.8,2.3-1.2,2.7-1.2
			c0.8,0,1.9,0,2.7,1.2C818.2,94.5,818.2,96.8,816.6,98.4z M840.2,103.1c-6.2,0-12.1-1.2-17.5-3.3c-0.2,0.3-0.3,0.7-0.5,1
			c5.6,2.2,11.6,3.4,18,3.4c27.1,0,49.1-21.9,49.3-49c-0.3,0.1-0.7,0.1-1.1,0.1C888.2,81.7,866.7,103.1,840.2,103.1z M891.7,44.9
			c-1-1-2.1-1.4-3.4-1.4c-1.3,0-2.4,0.5-3.4,1.4c-1.9,1.9-1.9,5,0,6.7c1,1,2.2,1.4,3.4,1.4s2.4-0.5,3.4-1.4
			C893.6,49.7,893.6,46.7,891.7,44.9z M888.3,50.4c-1.2,0-2.1-1-2.1-2.1s1-2.1,2.1-2.1s2.1,1,2.1,2.1S889.5,50.4,888.3,50.4z
			 M802.4,30.5c1.6,0,3.3-0.7,4.7-2c2.7-2.7,2.7-6.9,0-9.4c-1.3-1.3-2.9-2-4.7-2c-1.8,0-3.3,0.7-4.7,2c-2.7,2.7-2.7,6.9,0,9.4
			C799.1,29.8,800.9,30.5,802.4,30.5z M799.7,21.1c1.2-0.8,2.3-1.2,2.7-1.2c0.8,0,1.9,0,2.7,1.2c1.6,1.6,1.6,3.9,0,5.4
			c-0.8,1.2-1.9,1.2-2.7,1.2c-0.8,0-1.9,0-2.7-1.2c-1.2-0.8-1.2-1.9-1.2-2.7S798.5,21.8,799.7,21.1z M823.2,92.6c0,0,1.1-0.2,3-0.6
			l-0.3-1.5c-1.8,0.4-2.9,0.5-2.9,0.5L823.2,92.6z M797.7,32.3c-0.4-0.2-0.7-0.4-1-0.7c-3.7,6.9-5.8,14.8-5.8,23.2
			c0,13.8,5.7,26.3,14.9,35.3c0.2-0.3,0.4-0.6,0.7-0.9c-8.9-8.7-14.4-20.9-14.4-34.3C792.1,46.8,794.1,39.1,797.7,32.3z M874.2,41.7
			l1.5,0.2c0.1-1,0.2-2,0.3-3l-1.5-0.1C874.4,39.7,874.3,40.7,874.2,41.7z M850.8,81l0.8,1.3c0.9-0.5,1.7-1.1,2.5-1.7l-0.9-1.2
			C852.5,79.9,851.6,80.5,850.8,81z M855.6,77.6l0.9,1.2c0.8-0.6,1.6-1.3,2.3-2l-1-1.1C857.2,76.4,856.4,77,855.6,77.6z M845.6,83.9
			l0.7,1.3c0.9-0.5,1.8-0.9,2.7-1.4l-0.7-1.3C847.4,83,846.5,83.4,845.6,83.9z M840.2,86.3l0.6,1.4c0.9-0.4,1.9-0.8,2.8-1.2
			l-0.6-1.4C842,85.5,841.1,85.9,840.2,86.3z M841.8,50.9l0.6,1.4c0.9-0.4,1.9-0.8,2.8-1.2l-0.6-1.4C843.7,50,842.8,50.4,841.8,50.9
			z M860,73.7l1.1,1c0.7-0.7,1.4-1.5,2-2.3l-1.2-0.9C861.3,72.2,860.7,72.9,860,73.7z M860,45.6l0.2,1.5c1-0.2,2.1-0.3,3.1-0.4
			l-0.2-1.5C862.1,45.3,861,45.4,860,45.6z M866.6,67.4l-1.3-0.8c-0.5,0.8-1.1,1.7-1.6,2.5l1.2,0.9
			C865.5,69.1,866.1,68.3,866.6,67.4z M876.1,54c0-2.4-0.2-4.8-0.7-7.2c0,0,0,0,0.1,0l0.3-1.5c-0.2,0-0.4-0.1-0.6-0.1
			c0-0.1,0.1-0.3,0.1-0.4l-0.3-0.1c-4.1-15.5-18.2-27-35-27c-14.3,0-26.6,8.3-32.5,20.3l-1.1,0.4c0.1,0.4,0.3,0.8,0.4,1.2
			c-1.9,4.4-2.9,9.2-2.9,14.3c0,17.1,11.8,31.4,27.8,35.2c-1,0.3-1.9,0.5-2.8,0.7l0.4,1.5c0.9-0.2,1.9-0.5,2.9-0.8l-0.4-1.4
			c2.7,0.6,5.4,1,8.3,1C860,90.2,876.1,74,876.1,54z M837.5,88.9c0.1,0,0.3-0.1,0.4-0.1l-0.5-1.4c-1,0.3-1.9,0.7-2.8,1l0.1,0.3
			c-16.9-2.5-29.8-17.1-29.8-34.6c0-4.5,0.9-8.9,2.4-12.9c0,0.1,0.1,0.2,0.1,0.3l1.4-0.5c-0.2-0.6-0.4-1.2-0.6-1.8
			c5.6-11.9,17.7-20.1,31.7-20.1c9,0,17.2,3.4,23.4,9c-0.8,0.1-1.7,0.2-2.5,0.4l0.3,1.5c1-0.2,2-0.3,3-0.5l-0.1-0.8
			c4.7,4.4,8.2,10.1,9.8,16.5c0,0,0,0.1,0,0.1c-0.4,0-0.7-0.1-1.1-0.1l-0.1,1.5c0.3,0,0.6,0.1,0.9,0.1c-0.1,0.3-0.1,0.6-0.2,1
			l1.1,0.2c0.4,2,0.6,4.1,0.6,6.2c0,19.3-15.7,35-35,35C839.1,89,838.3,88.9,837.5,88.9z M816.7,56.8c0,0-0.6-0.9-1.6-2.5l-1.3,0.8
			c1,1.6,1.6,2.5,1.6,2.6L816.7,56.8z M810.3,44.6c-0.1-0.3-0.3-0.7-0.4-1l-1.4,0.6c0.1,0.3,0.3,0.7,0.4,1c0.3,0.6,0.5,1.2,0.8,1.8
			l1.4-0.6C810.8,45.8,810.5,45.2,810.3,44.6z M812.3,49.1l-1.3,0.7c0.5,1,1,1.9,1.4,2.7l1.3-0.7C813.2,50.9,812.8,50,812.3,49.1z
			 M806.1,32.4l-1.4,0.4c0.2,0.6,0.4,1.6,0.8,2.9l1.4-0.4C806.5,33.9,806.2,32.9,806.1,32.4z"/>
	</g>
</g>
<g class="st4">
	<g>
		
			<linearGradient id="SVGID_4_" gradientUnits="userSpaceOnUse" x1="871.9661" y1="73.8779" x2="809.9506" y2="135.8935" gradientTransform="matrix(1 0 0 -1 0 160)">
			<stop  offset="0" style="stop-color:#0063FF"/>
			<stop  offset="1" style="stop-color:#00C8DE"/>
		</linearGradient>
		<path class="st8" d="M825.7,38.9l1.1-1.8l-2.9-3.4l-3.6,1.2l-0.8,0.7l3.3,1L825.7,38.9z M841,11.3c-24.2,0-43.8,19.6-43.8,43.9
			c0,24.2,19.6,43.9,43.8,43.9c24.2,0,43.8-19.6,43.8-43.9C884.8,30.9,865.2,11.3,841,11.3z M819.7,33.6l4.6-1.5l4,4.9l-2.4,4
			l-3.9-3.4l-5.4-1.5L819.7,33.6z M827.4,78.4l-5.4,4l-2.3-7.5l-2.3-2.3l-3-2.3l-4.3-10l-0.8-4.3l-4.3-1.9l0.5-1.2l5,2.2l0.9,4.9
			l4,9.4l2.8,2.1l2.6,2.6l1.8,6l3.8-2.8l2-3.1c-0.2-1.1-1-6.1-2.4-9.3c0.2,0.5,0.3,1.1,0.3,1.6c0,2.7-2.2,4.8-4.8,4.8
			c-2.7,0-4.8-2.2-4.8-4.8c0-2,1.2-3.7,2.9-4.4c-0.6,0.1-1.1,0.2-1.4,0.3l-2,2.8l-2.1-6.9l5.8,0.2l2.5-1.4l1.7-4.1l-1.4-1.9
			l-1.9,1.4l-2.9-1.3l2.2-4.1l-4.3-6l-8.2,2.6l-0.4-1.3l9.1-2.9l5.4,7.5l-1.9,3.5l0.9,0.4l2.3-1.7l2.7,3.6l-2.1,5.2l-3.2,1.8
			l-4.3-0.1l0.8,2.5l0.7-1l0.2-0.1c0.3-0.1,6.9-2.1,9.1,1.9c2,3.6,3.1,10.8,3.1,11.1l0,0.2L827.4,78.4z M873.9,53.2l-6.5-0.4
			l-3.2-4.1l-3.5,0.2l2.4,2.8l-4.1,1.4l-1.1,2.6l2.4,5l0,0.2c0,0.1-0.3,10.5-0.3,11.4c0,0.4,0,1.3-6.7,3.7l-0.8,0.3l-0.5-8l-7.5-2.7
			l-4.8-5.7l3.7-5.6l-2-3.2l-3-2.6l-2.8-7l0.1-0.3c0.2-0.3,3.7-6.9,6.2-9.3c2.5-2.5,16.8-6.9,18.4-7.4l0.4,1.3
			c-4.3,1.3-16,5.2-17.9,7.1c-2.1,2.1-5.1,7.5-5.8,8.7l2.4,6.1l2.9,2.6l2.5,4l-3.6,5.5l3.9,4.7l8,2.8l0.5,7.1
			c2.2-0.8,4.5-1.9,4.9-2.3c0-1.4,0.3-9.8,0.3-11.1l-2.5-5.3l1.6-3.6l2.8-1l-2.8-3.4l6.8-0.5l3.3,4.2l4.6,0.3L873,49l1.9-1l0.6,1.2
			l-1.3,0.7L873.9,53.2z M824,62.4c0.9,0.5,1.6,1.2,2,2.1c-0.1-0.2-0.2-0.5-0.3-0.7C825.3,63.1,824.7,62.7,824,62.4z"/>
	</g>
</g>
<g>
	<g>
		<path class="st9" d="M712.6,60.7h8v-2h-8V60.7z M748.6,60.7h8v-2h-8V60.7z M760.6,55.5v8.2l9.2-4.2L760.6,55.5z M740.1,57.9l-1-1
			l-0.6,0.6l1.5,1.5l0,0l0.6,0.6l2.1-2.1l-0.6-0.6l-1.2,1.2V53h-0.4v-0.1h-5.9v0.8h5.5V57.9z M732.6,50h-6.7v6.7h6.7V50z
			 M731.1,55.4h-3.8v-3.9h3.8V55.4z M737,68.1h6.8v-6.7H737V68.1z M738.5,62.7h3.9v4h-3.9V62.7z M729.6,59.8l1,1l0.6-0.6l-1.5-1.5
			l0,0l-0.6-0.6l-2.1,2.1l0.6,0.6l1.2-1.2v5.3h0.4V65h5.9v-0.8h-5.5L729.6,59.8L729.6,59.8z"/>
	</g>
</g>
<g>
	<g>
		<path class="st9" d="M912.2,58.7h8v-2h-8V58.7z M924.2,58.7h8v-2h-8V58.7z M936.2,58.7h8v-2h-8V58.7z M948.2,58.7h8v-2h-8V58.7z
			 M960.3,53.5v8.2l9.2-4.2L960.3,53.5z"/>
	</g>
</g>
<g>
	<g>
		<path class="st9" d="M511,63h8v-2h-8V63z M523,63h8v-2h-8V63z M535,63h8v-2h-8V63z M547,63h8v-2h-8V63z M559,57.8V66l9.2-4.2
			L559,57.8z"/>
	</g>
</g>
<g class="st4">
	<g>
		
			<linearGradient id="SVGID_5_" gradientUnits="userSpaceOnUse" x1="460.6375" y1="81.3185" x2="421.4605" y2="120.4955" gradientTransform="matrix(1 0 0 -1 0 160)">
			<stop  offset="0" style="stop-color:#0063FF"/>
			<stop  offset="1" style="stop-color:#00C8DE"/>
		</linearGradient>
		<path class="st10" d="M424,37v44.2h34.1V37C458.1,37,424,37,424,37z M436.1,63c-0.2,1-0.4,1.6-0.9,2c-0.5,0.3-1.1,0.4-1.7,0.4
			h-1.5c-1.7,0-2.4-0.5-2.4-1.8c0-0.3,0-0.8,0.2-1.5l1-5.6h1.6l-0.9,5.1c-0.1,0.8-0.2,1.4-0.2,1.7c0,0.7,0.4,0.8,1.4,0.8h0.7
			c1,0,1.1-0.4,1.3-1.6l1.1-6h1.6L436.1,63z M440.7,64h1.8l0.6-3.6h1.6l-0.5,2.6c-0.2,1.2-0.4,1.7-0.8,2c-0.4,0.3-0.9,0.3-1.7,0.3
			H440c-1.7,0-2.4-0.5-2.4-1.8c0-0.3,0-0.8,0.2-1.5l0.6-3.3c0.2-1,0.4-1.6,1-2c0.5-0.3,1.1-0.4,1.7-0.4h4l-0.5,1.3h-3.3
			c-1,0-1.1,0.4-1.3,1.6l-0.4,2.2c-0.1,0.8-0.2,1.4-0.2,1.7C439.3,63.9,439.7,64,440.7,64z M451.6,57.8h-2.3c-1,0-1.1,0.4-1.3,1.6
			l-0.4,2.1c-0.1,0.8-0.2,1.4-0.2,1.7c0,0.6,0.4,0.8,1.4,0.8h2.2l-0.6,1.3h-2.3c-1.7,0-2.4-0.5-2.4-1.8c0-0.4,0-0.8,0.2-1.5l0.6-3.2
			c0.2-1,0.4-1.6,1-2c0.5-0.3,1.1-0.4,1.7-0.4h3L451.6,57.8z"/>
	</g>
</g>
<g>
	<g>
		
			<linearGradient id="SVGID_6_" gradientUnits="userSpaceOnUse" x1="466.7498" y1="73.7347" x2="415.2783" y2="125.2063" gradientTransform="matrix(1 0 0 -1 0 160)">
			<stop  offset="0" style="stop-color:#0063FF"/>
			<stop  offset="1" style="stop-color:#00C8DE"/>
		</linearGradient>
		<path class="st11" d="M440.9,84c-1.2,0-2.3,1-2.3,2.3c0,1.2,1,2.3,2.3,2.3s2.3-1,2.3-2.3C443.2,85.1,442.2,84,440.9,84z M441,87.7
			c-0.8,0-1.4-0.6-1.4-1.4s0.6-1.4,1.4-1.4c0.8,0,1.4,0.6,1.4,1.4S441.8,87.7,441,87.7z M420,30v61h42V30H420z M461,90H421V31H461
			V90z M440,66h2.1v-1H440V66z M449,69H433v2H449V69z M442,62H440v2h2.1V62z M440,54.4V61h2.1v-6.5l2.6,2.5l1.4-1.5l-5.1-4.9l0,0
			l0,0l-5.1,4.9l1.4,1.5L440,54.4z"/>
	</g>
</g>
<g>
	<g>
		<path class="st9" d="M913,9h8V7h-8V9z M925,9h8V7h-8V9z M937,9h8V7h-8V9z M949,9h8V7h-8V9z M961,3.8V12l9.2-4.2L961,3.8z"/>
	</g>
</g>
<g>
	<g>
		<path class="st9" d="M912,111h8v-2h-8V111z M924,111h8v-2h-8V111z M936,111h8v-2h-8V111z M948,111h8v-2h-8V111z M960,105.8v8.2
			l9.2-4.2L960,105.8z"/>
	</g>
</g>
<g class="st4">
	<g>
		
			<linearGradient id="SVGID_7_" gradientUnits="userSpaceOnUse" x1="1080.0205" y1="56.0185" x2="1000.4995" y2="135.5395" gradientTransform="matrix(1 0 0 -1 0 160)">
			<stop  offset="0" style="stop-color:#0063FF"/>
			<stop  offset="1" style="stop-color:#00C8DE"/>
		</linearGradient>
		<path class="st12" d="M1050-6H1031v24l19.1,0L1050-6L1050-6z M1033.8-2.3h12.9V9.5h-12.9V-2.3z M1039,17h-5.1v-1.9h5.1V17z
			 M1047,14H1034v-2h12.9V14z M1056,45h-31V70h31V45z M1040,67.1h-7v-2h7V67.1z M1047,62.9h-14v-2h14V62.9z M1047.5,58.1h-15V48h15
			V58.1z M1048.1,102v22h11.9v-22H1048.1z M1020,124h26.9V102H1020V124z M1030,121.9h-7V120h7V121.9z M1043,118.9h-20V117h20V118.9z
			 M1022.5,105.5l21.7,0v9.7l-21.7-0.1V105.5z"/>
	</g>
</g>
<g>
	<g>
		
			<linearGradient id="SVGID_8_" gradientUnits="userSpaceOnUse" x1="1083.5345" y1="53.5235" x2="996.823" y2="140.235" gradientTransform="matrix(1 0 0 -1 0 160)">
			<stop  offset="0" style="stop-color:#0063FF"/>
			<stop  offset="1" style="stop-color:#00C8DE"/>
		</linearGradient>
		<path class="st13" d="M1048-3.1h-15.1V11h15.1V-3.1z M1035-1.1h10.8l0,2.4l-4.9,4l-2.6-2.2l-3.3,2.5L1035-1.1z M1034.9,9V8
			l3.3-2.4l2.7,2.2l4.9-4l0,5.1H1034.9z M1036.9-0.1c-0.5,0-1,0.4-1,1c0,0.6,0.4,1,1,1c0.6,0,1-0.4,1-1
			C1037.9,0.3,1037.5-0.1,1036.9-0.1z M1037.9,19.9v1h5l0-1H1037.9z M1052.9-11.2h-25.1V24h25.1V-11.2z M1051.8,22.9h-22.9v-33h22.9
			V22.9z M1017,91.8V127h46V91.8H1017z M1062,126h-44v-25.9h44V126z M1062,99h-44v-6h44V99z M1061.9,41.9h-43V73h43V41.9z
			 M1061,71.8h-41.1V43h41.1V71.8z M1027,109.9c0.5,0,1-0.4,1-1c0-0.6-0.4-1-1-1s-1,0.4-1,1C1026,109.5,1026.4,109.9,1027,109.9z
			 M1044.9,104h-22.8V116h22.8V104z M1026.7,114l5-2.8l3.4,2.8H1026.7z M1043,114h-7.6l6.5-4.4l1,1.1V114z M1043,107.8l-0.7-0.8
			l-6.9,4.7l-3.5-2.9l-7.8,4.5v-7h19V107.8z M1047.9,46.9h-16v12.1h16V46.9z M1045.9,56.9H1034v0l4-2.9l2.4,2.2l4.8-3.7l0.8,0.8
			V56.9z M1045.9,50.5l-0.7-0.7l-4.8,3.7l-2.3-2.2l-4.1,3V49h11.9V50.5z M1056.3,98.5l1.6-1.6l1.6,1.6l0.7-0.7l-1.6-1.6l1.4-1.4
			l-0.7-0.7l-1.4,1.4l-1.4-1.4l-0.7,0.7l1.4,1.4l-1.6,1.6L1056.3,98.5z M1036,52c0.6,0,1-0.5,1-1s-0.4-1-1-1c-0.6,0-1,0.5-1,1
			C1035,51.5,1035.4,52,1036,52z M1058.9,55.7l-1,0v4.2h1V55.7z"/>
	</g>
</g>
<g>
	<g>
		<path class="st14" d="M985.2,180.6h3.3v-1h-3.3V177h-1v2.6h-3.2v1h3.2v3.9h-3.8v1h8.8v-1h-4L985.2,180.6L985.2,180.6z M989.1,176
			v-1h-7c0.2-0.5,0.4-1.1,0.7-1.9l-1-0.1c-0.2,0.6-0.4,1.3-0.7,2h-4.1v1h3.6c-1,1.9-2.3,3.5-4.1,5l0.6,0.8c0.5-0.4,1.1-1,1.6-1.5
			v5.7h1V179c0.8-1,1.4-2,2-3.1L989.1,176L989.1,176z M993,185.9h1v-0.7h5.9v0.7h1v-5.3H993V185.9z M994,181.6h5.9v2.7H994V181.6z
			 M1000.7,175v-0.8h-5.3c0.2-0.3,0.4-0.6,0.6-1l-1-0.2c-1,1.6-2.2,3-3.7,4l0.6,0.8c0.7-0.5,1.4-1.1,2-1.7c0.6,0.7,1.3,1.4,2.1,1.9
			c-1.5,0.9-3.4,1.5-5.5,1.8l0.4,0.9c2.3-0.4,4.3-1.1,5.9-2.2c1.6,1,3.6,1.7,5.9,2.1l0.4-0.9c-2.1-0.3-4-0.9-5.5-1.7
			C998.9,177.1,999.9,176.2,1000.7,175z M996.9,177.5c-0.9-0.6-1.7-1.3-2.3-2.1c0.1-0.1,0.1-0.2,0.2-0.3h4.7
			C998.8,176,997.9,176.8,996.9,177.5z M1015.2,173.5l-0.9-0.3c-0.3,0.7-0.6,1.4-1,1.9l0.9,0.3
			C1014.5,174.9,1014.9,174.2,1015.2,173.5z M1008.6,175.2c-0.3-0.7-0.7-1.3-1.2-1.8l-0.9,0.3c0.5,0.6,0.9,1.1,1.2,1.8L1008.6,175.2
			z M1016.9,182v-0.9h-5.7c0.1-0.5,0.2-0.9,0.3-1.3h-1c-0.1,0.5-0.2,0.9-0.3,1.3h-5.2v0.9h4.8c-0.2,0.4-0.5,0.7-0.9,1.1
			c-0.8,0.8-2.2,1.4-4.2,1.8l0.4,0.9c2.1-0.5,3.7-1.2,4.6-2.1c0.4-0.4,0.8-0.9,1.1-1.5c1.3,1.7,3.2,3,5.8,3.7l0.5-0.9
			c-2.3-0.6-4.1-1.5-5.4-3L1016.9,182L1016.9,182z M1005.5,180c2.4-0.9,3.9-2,4.8-3.2h0.1v2.5h1v-1.5c1.6,0.5,3.1,1.2,4.7,2.1
			l0.5-0.8c-1.5-0.7-3.3-1.4-5.2-1.9v-0.3h5.4v-0.9h-5.4V173h-1v2.8h-5.4v0.9h4.4c-0.8,0.9-2.3,1.6-4.4,2.4L1005.5,180z
			 M1018.7,185.3c1.7-0.3,3.1-0.7,4.4-1.2v-1c-1.3,0.5-2.9,0.9-4.5,1.1L1018.7,185.3z M1030.2,175.2v-0.8h-4
			c0.1-0.4,0.3-0.8,0.4-1.2l-1-0.1c-0.4,1.6-1.3,2.9-2.5,4l0.6,0.8c0.4-0.4,0.8-0.8,1.2-1.3c0.5,0.6,1.1,1.2,1.7,1.7
			c-1.1,0.9-2.4,1.5-3.8,2l0.5,0.9c1.5-0.5,2.9-1.3,4-2.2c1.1,0.8,2.2,1.5,3.5,2.1l0.5-0.9c-1.2-0.5-2.3-1.1-3.3-1.8
			C1028.9,177.4,1029.6,176.4,1030.2,175.2z M1027.3,177.6c-0.7-0.6-1.3-1.2-1.8-1.8l0.3-0.5h3.3
			C1028.5,176.2,1027.9,177,1027.3,177.6z M1025.9,180.5l-0.5,0.8c1.3,0.4,2.6,0.9,3.9,1.6l0.5-0.8
			C1028.6,181.5,1027.4,181,1025.9,180.5z M1023.7,183.8c2.1,0.5,4.1,1.2,6.2,2.1l0.5-0.8c-1.8-0.8-3.8-1.5-6.1-2.1L1023.7,183.8z
			 M1021,178.2c-0.7,1.4-1.3,2.3-1.9,2.9c-0.1,0.1-0.3,0.2-0.4,0.3l0.3,0.9c1.1-0.2,2.3-0.5,3.5-1v-0.9c-0.8,0.3-1.6,0.6-2.4,0.8
			c0.8-1,1.8-2.9,3.1-5.4l-0.9-0.3c-0.4,0.9-0.7,1.5-0.9,1.8c-0.7,0.1-1.3,0.2-1.8,0.3c0.7-1.1,1.4-2.5,2.1-4.2l-0.9-0.4
			c-0.6,1.6-1.2,3.1-2,4.3c-0.1,0.2-0.2,0.3-0.4,0.4l0.2,0.9C1019.2,178.5,1020,178.4,1021,178.2z M1044.5,173.6h-1v2.1h-1.9v-2.7
			h-1v2.7h-1.9v-2.1h-1v3h6.7L1044.5,173.6L1044.5,173.6z M1037.2,178.8h3.3c-0.1,0.4-0.2,0.9-0.4,1.3h-2.5v5.7h0.9V181h1.2v4.6h0.9
			V181h1.1v4.6h0.9V181h1.3v3.6c0,0.3-0.1,0.4-0.3,0.4l-0.6,0l0.2,0.9h0.6c0.6,0,0.9-0.4,0.9-1v-4.7h-3.7c0.2-0.5,0.3-0.9,0.4-1.3
			h3.7v-0.9h-8L1037.2,178.8L1037.2,178.8z M1036.5,177.1l-0.9-0.1c-0.2,2.3-0.4,4.5-0.7,6.5c-0.8,0.2-1.6,0.4-2.4,0.5l0.3,1
			c1.6-0.4,3-0.8,4.2-1.2v-1c0.1,0-0.3,0.1-1.1,0.4C1036.1,181.2,1036.4,179.2,1036.5,177.1z M1034.7,173.2l-1,0.2
			c0.2,0.6,0.4,1.2,0.6,2h-1.8v1h4.4v-1h-1.6C1035.1,174.6,1034.9,173.8,1034.7,173.2z M1033.6,177.2l-0.8,0.3
			c0.3,1.7,0.6,3.6,0.8,5.5l0.8-0.2C1034.2,180.6,1033.9,178.7,1033.6,177.2z M1048.7,179.4l0.7-0.7c-0.6-0.7-1.3-1.4-2.2-2.2
			l-0.7,0.7C1047.4,178,1048.1,178.7,1048.7,179.4z M1054,176.4h0.6v-1h-1.8c-0.3-1-0.5-1.8-0.7-2.3l-1,0.2c0.2,0.6,0.5,1.3,0.7,2.1
			h-2v1h3.1c-0.2,1.3-0.4,2.5-0.7,3.5c-0.5-0.8-1-1.6-1.5-2.3l-0.8,0.5c0.7,1.1,1.4,2.1,1.9,3c0,0.1-0.1,0.2-0.2,0.5
			c-0.6,1.3-1.5,2.5-2.7,3.6l0.6,0.8c1.2-1.1,2.2-2.4,2.9-3.8c0.5,0.8,0.9,1.7,1.3,2.6l0.8-0.6c-0.4-0.9-1-1.9-1.7-3.2
			C1053.5,179.7,1053.8,178.2,1054,176.4z M1048.9,176.2l0.7-0.7c-0.6-0.8-1.4-1.5-2.3-2.2l-0.7,0.7
			C1047.7,174.7,1048.4,175.5,1048.9,176.2z M1048.8,180.5c-0.6,1.7-1.3,3.4-2.1,5l0.9,0.4c0.8-1.5,1.5-3.2,2.1-5L1048.8,180.5z
			 M1057.7,184.2c0,0.4-0.2,0.7-0.6,0.7c-0.3,0-0.9,0-1.7-0.1l0.2,1h1.8c0.8,0,1.2-0.4,1.2-1.3v-11.4h-1V184.2z M1056.4,174.3h-0.9
			v8.7h0.9V174.3z M1065.3,173.1h-1v4.5h1V173.1z M1062.5,173.6h-1v3.6h1V173.6z M1064,179.1h5.5v4.1h1v-5h-7.5v5h1V179.1z
			 M1071.3,177.9l0.6-0.7c-0.7-0.7-1.5-1.2-2.3-1.7l-0.6,0.6C1069.8,176.6,1070.5,177.2,1071.3,177.9z M1068.4,175h4.5v-0.9h-4.1
			l0.3-0.9l-1-0.3c-0.5,1.4-1.2,2.6-2.1,3.5l0.8,0.7C1067.4,176.6,1067.9,175.9,1068.4,175z M1071.8,184.5c-0.1,0.2-0.4,0.2-0.6,0.2
			h-2.2c-0.4,0-0.6-0.2-0.6-0.6v-2.5h-1v2.7c0,0.9,0.4,1.3,1.3,1.3h2.7c0.5,0,0.9-0.1,1.2-0.3c0.3-0.3,0.5-1,0.6-2.2l-0.9-0.3
			C1072.1,183.8,1071.9,184.3,1071.8,184.5z M1066.2,181c-0.1,1.1-0.4,1.9-1.2,2.6c-0.8,0.6-2.2,1.1-4.2,1.5l0.6,0.9
			c2-0.4,3.4-1,4.3-1.7c0.9-0.8,1.4-1.9,1.4-3.3v-1h-1V181z M1081.6,173h-1c0,0.8,0,1.5-0.1,2.3h-5.1v10.6h1v-9.6h4
			c-0.1,0.6-0.2,1.2-0.4,1.8c-0.5,1.5-1.5,2.8-3.1,3.9l0.7,0.8c1.6-1.1,2.7-2.4,3.3-4c1.3,1.4,2.4,2.6,3.2,3.8l0.8-0.8
			c-1-1.4-2.2-2.7-3.7-4.1c0.1-0.4,0.2-0.9,0.3-1.5h4v7.8c0,0.5-0.2,0.7-0.7,0.7l-2.1-0.1l0.3,1h2.2c0.9,0,1.4-0.5,1.4-1.4v-9h-4.9
			C1081.6,174.5,1081.6,173.7,1081.6,173z M1090.1,175.2h9.5v1.6h1v-2.5h-5.1c-0.2-0.5-0.3-0.9-0.5-1.2l-1.1,0.2
			c0.2,0.3,0.3,0.7,0.5,1.1h-5.3v2.6h1L1090.1,175.2L1090.1,175.2z M1093.9,176.3l-0.7-0.6c-1.2,1-2.6,1.8-4.3,2.5l0.6,0.8
			C1091.2,178.3,1092.7,177.4,1093.9,176.3z M1095.3,177.5h-0.8c-1.4,1.5-3.4,2.8-5.9,3.7l0.5,0.8c0.7-0.3,1.2-0.5,1.7-0.7v4.6h1
			v-0.6h6.3v0.6h1v-4.6c0.5,0.2,1,0.4,1.6,0.7l0.5-0.8C1098.4,180.1,1096.4,178.9,1095.3,177.5z M1098.1,184.4h-6.3v-2.2h6.3V184.4z
			 M1090.9,181.3c1.6-0.8,2.9-1.7,4-2.9c1,1.1,2.3,2.1,4,2.9H1090.9z M1095.9,176.4c1.8,0.9,3.2,1.8,4.2,2.7l0.7-0.7
			c-1.1-0.9-2.5-1.7-4.3-2.6L1095.9,176.4z M809.6,181.7h4v-1h-4v-2.4h3.4v-1h-7.8v1h3.4v2.4h-4.1v1h4.1v2.6h-5.3v1h11.7v-1h-5.3
			V181.7z M808.7,172.9c-1.6,1.8-3.7,3.3-6.1,4.4l0.5,0.9c2.5-1.2,4.5-2.7,6-4.4c1.7,1.8,3.6,3.2,5.9,4.3l0.5-0.9
			c-2.3-1.1-4.3-2.5-6.1-4.4L808.7,172.9L808.7,172.9z M823.7,179.8c-0.3-0.7-0.9-1.5-1.5-2.4l-0.8,0.5c0.7,0.9,1.2,1.7,1.6,2.4
			L823.7,179.8z M826.7,180.4c0.7-0.7,1.4-1.6,2-2.6l-0.8-0.6c-0.5,0.8-1.1,1.6-1.7,2.3c-0.3-0.6-0.5-1.3-0.8-2v-1.3h3.3v-1h-0.8
			l0.5-0.5c-0.5-0.6-1.1-1.2-1.9-1.7l-0.6,0.6c0.7,0.6,1.3,1.2,1.8,1.7h-2.4v-2.4h-1v2.4h-3.2v1h3.2v3c-1.1,1.7-2.3,3-3.8,3.9
			l0.5,0.9c1.2-0.9,2.3-2.1,3.2-3.4v3.5c0,0.3-0.2,0.5-0.6,0.5c-0.4,0-0.8,0-1.3-0.1l0.2,1h1.5c0.8,0,1.2-0.4,1.2-1.2v-4.6
			c0.8,1.8,1.8,3.4,3.2,4.7l0.7-0.8C828.3,182.8,827.4,181.7,826.7,180.4z M821.2,181.1c-0.5,0.3-1,0.5-1.7,0.8V179h1.4v-1h-1.4
			v-3.3h1.7v-0.9h-4.4v0.9h1.7v3.3h-1.6v1h1.6v3.2c-0.6,0.2-1.3,0.4-2,0.6l0.3,1c1.6-0.5,3.1-1.1,4.4-1.7V181.1z M837.7,172.8h-1
			c0,0.8,0,1.5-0.1,2.3h-5.1v10.6h1v-9.6h4c-0.1,0.6-0.2,1.2-0.4,1.8c-0.5,1.5-1.5,2.8-3.1,3.9l0.7,0.8c1.6-1.1,2.7-2.4,3.3-4
			c1.3,1.4,2.4,2.6,3.2,3.8l0.8-0.8c-1-1.4-2.2-2.7-3.7-4.1c0.1-0.4,0.2-0.9,0.3-1.5h4v7.8c0,0.5-0.2,0.7-0.7,0.7l-2.1-0.1l0.3,1
			h2.2c0.9,0,1.4-0.5,1.4-1.4v-9h-4.9C837.7,174.3,837.7,173.5,837.7,172.8z M852,176.2c1.8,0.9,3.2,1.8,4.2,2.7l0.7-0.7
			c-1.1-0.8-2.5-1.7-4.3-2.6L852,176.2z M850,176.2l-0.7-0.6c-1.2,1-2.6,1.8-4.3,2.5l0.6,0.8C847.4,178.1,848.8,177.2,850,176.2z
			 M846.3,175h9.5v1.6h1v-2.5h-5.1c-0.2-0.5-0.3-0.9-0.5-1.2l-1.1,0.2c0.2,0.3,0.3,0.7,0.5,1.1h-5.3v2.6h1L846.3,175L846.3,175z
			 M851.4,177.3h-0.8c-1.4,1.5-3.4,2.8-5.9,3.7l0.5,0.8c0.7-0.3,1.2-0.5,1.7-0.7v4.6h1v-0.6h6.3v0.6h1v-4.6c0.5,0.2,1,0.4,1.6,0.7
			l0.5-0.8C854.5,179.9,852.6,178.7,851.4,177.3z M854.2,184.2H848V182h6.3V184.2z M847,181.1c1.6-0.8,2.9-1.7,4-2.9
			c1,1.1,2.3,2.1,4,2.9H847z M862,176.6c0.7-0.7,1.3-1.7,2-2.9l-0.9-0.5c-0.5,1.1-1.2,2-1.9,2.8c-0.7,0.9-1.6,1.6-2.6,2.2l0.5,0.9
			C860.4,178.1,861.3,177.3,862,176.6z M867.1,173l-0.9,0.5c0.8,2.2,2.3,4,4.5,5.4l0.7-0.8C869.3,176.8,867.9,175.1,867.1,173z
			 M860.6,179.4h2.7c-0.3,1.4-0.7,2.5-1.3,3.2c-0.6,0.8-1.6,1.6-2.8,2.3l0.6,0.8c1.4-0.8,2.4-1.7,3.1-2.6c0.6-0.9,1-2.1,1.4-3.7h3.7
			c-0.1,2.2-0.2,3.6-0.5,4.3c-0.3,0.7-0.8,1-1.5,1c-0.7,0-1.5,0-2.4,0l0.3,1h2.6c0.7,0,1.2-0.3,1.6-0.7c0.3-0.4,0.6-1.1,0.7-2.2
			c0.2-1.1,0.2-2.6,0.3-4.3h-8.5L860.6,179.4L860.6,179.4z M883.3,179.6v-0.9h-5.7c0.2-0.4,0.3-0.9,0.5-1.6h6.8v-1h-6.5
			c0.3-1.1,0.5-2.2,0.7-3.3l-1-0.1c-0.2,1.2-0.4,2.3-0.7,3.4h-2.5l0.8-2.8l-1-0.2l-1.1,3.9h3.5c-1,3.1-2.5,5.6-4.5,7.4l0.5,0.9
			c1.6-1.3,2.9-3.1,3.9-5.3c0.5,1,1.2,1.9,2.3,2.7c-1.1,0.7-2.4,1.3-3.9,1.9l0.5,0.9c1.7-0.7,3.1-1.4,4.3-2.2
			c1.2,0.8,2.7,1.5,4.5,2.1l0.5-0.9c-1.6-0.6-3-1.2-4.1-1.8C882.2,181.9,883,180.9,883.3,179.6z M880.2,182.3
			c-1.1-0.8-1.9-1.7-2.4-2.6h4.5C881.9,180.6,881.2,181.5,880.2,182.3z M883.2,175.9l0.7-0.7c-0.7-0.8-1.5-1.6-2.5-2.3l-0.7,0.7
			C881.8,174.4,882.7,175.2,883.2,175.9z M610.5,175.5v-1h-7.2c0.1-0.4,0.3-0.8,0.4-1.4l-1-0.1c-0.1,0.4-0.3,0.9-0.5,1.5h-3.8v1h3.4
			c-0.9,2-2.2,3.7-3.9,5.2l0.6,0.8c0.5-0.4,1-0.9,1.5-1.5v5.9h1v-7.1c0.8-1,1.4-2.1,1.9-3.3L610.5,175.5L610.5,175.5z M607.2,180.1
			c0.9-0.6,1.8-1.3,2.6-2v-0.9h-6.5v0.9h5.3c-0.7,0.6-1.5,1.1-2.3,1.6v1.3h-4.1v1h4.1v2.3c0,0.4-0.2,0.6-0.6,0.6c-0.4,0-0.9,0-1.6,0
			l0.3,1h1.8c0.8,0,1.2-0.4,1.2-1.2V182h3.5v-1h-3.5L607.2,180.1L607.2,180.1z M618.9,182.1h4.6v-1h-4.6v-1.6h-1v1.6h-4.7v1h4.7v2.3
			h-5.6v1h12.3v-1h-5.6L618.9,182.1L618.9,182.1z M613,178.3l0.3,0.9c3.1-0.2,6-0.5,8.8-0.9c0.4,0.5,0.7,0.9,1,1.4l0.8-0.6
			c-0.7-1-1.7-2.2-3-3.6L620,176c0.4,0.5,0.9,1,1.3,1.5c-2.1,0.3-4.3,0.6-6.6,0.7c1.1-0.9,2.1-2,2.9-3.4h6.6v-1h-11.6v1h3.9
			C615.5,176.3,614.3,177.5,613,178.3z M637.1,173.1h-1v2.7h-4.1v1h4.1v7.4c0,0.5-0.3,0.7-0.8,0.7c-0.6,0-1.2,0-2.1-0.1l0.2,1h2.2
			c1,0,1.4-0.5,1.4-1.4v-7.7h1.6v-1h-1.6L637.1,173.1L637.1,173.1z M635,181.5c-0.5-0.9-1.2-1.9-2.2-3.1l-0.8,0.6
			c0.9,1.1,1.6,2.1,2.1,3.1L635,181.5z M631.3,175.2v-0.7h-4.7v1h3.8c-0.1,1.5-0.4,2.9-0.9,4.1c-0.8-1.1-1.7-2-2.4-2.9l-0.7,0.6
			c1,1.1,1.9,2.2,2.7,3.2c-0.7,1.4-1.7,2.6-3.1,3.6l0.6,0.9c1.3-1.1,2.3-2.3,3.1-3.6c0.5,0.7,1,1.4,1.4,2.1l0.7-0.7
			c-0.5-0.8-1-1.6-1.6-2.4C630.9,178.9,631.3,177.2,631.3,175.2z M649.8,181.3c0.8-0.3,1.6-0.7,2.2-1.2l-0.7-0.8
			c-0.9,0.7-2.1,1.2-3.5,1.6c-0.4-0.7-1-1.4-1.8-2h5.6v-3.1h-3.7c0.5-0.3,0.9-0.7,1.3-1.2V174H645c0.2-0.2,0.4-0.4,0.7-0.8l-1.1-0.2
			c-1.2,1.2-2.7,2.2-4.6,3l0.6,0.8c0.3-0.1,0.7-0.3,1-0.5v2.6h3c-1,0.7-2.3,1.1-4.1,1.4l0.4,0.8c1.9-0.3,3.4-0.9,4.5-1.7
			c0.3,0.2,0.5,0.5,0.8,0.8c-1.3,0.9-3.2,1.7-5.6,2.2l0.5,0.9c2.4-0.6,4.2-1.5,5.6-2.5c0.2,0.3,0.4,0.6,0.5,0.9
			c-1.6,1.2-3.8,2.2-6.7,2.9l0.5,0.9c2.7-0.7,4.8-1.7,6.5-2.9c0,0.2,0.1,0.5,0.1,0.7c0,0.7-0.1,1.1-0.4,1.3
			c-0.3,0.2-0.7,0.3-1.1,0.4l-1.2,0l0.3,0.9c0.4,0,0.7,0,1,0c0.9-0.1,1.5-0.3,1.8-0.6c0.4-0.4,0.6-1.1,0.6-2c0-0.6-0.1-1-0.3-1.5
			l0.7-0.2c0.6,1.3,1.7,2.6,3.3,3.7l0.7-0.8C651.4,183.6,650.4,182.5,649.8,181.3z M650.8,176.7v1.4h-4c0.3-0.4,0.5-0.9,0.6-1.4
			H650.8z M644.1,174.8h4.1c-0.5,0.4-1,0.8-1.4,1.1h-4.3C643.1,175.5,643.7,175.1,644.1,174.8z M642.7,178.1v-1.4h3.7
			c-0.2,0.5-0.4,1-0.8,1.4H642.7z M663.2,180.1c0.9-0.6,1.8-1.3,2.6-2v-0.9h-6.5v0.9h5.3c-0.7,0.6-1.5,1.1-2.3,1.6v1.3h-4.1v1h4.1
			v2.3c0,0.4-0.2,0.6-0.6,0.6c-0.4,0-0.9,0-1.6,0l0.3,1h1.7c0.8,0,1.2-0.4,1.2-1.2V182h3.5v-1h-3.5L663.2,180.1L663.2,180.1z
			 M666.5,175.5v-1h-7.2c0.1-0.4,0.3-0.8,0.4-1.4l-1-0.1c-0.1,0.4-0.3,0.9-0.5,1.5h-3.8v1h3.4c-0.9,2-2.2,3.7-3.9,5.2l0.6,0.8
			c0.5-0.4,1-0.9,1.5-1.5v5.9h1v-7.1c0.8-1,1.4-2.1,1.9-3.3L666.5,175.5L666.5,175.5z M679.9,173.8c-0.3,0.6-0.5,1.2-0.8,1.7v-0.8
			h-1.6v-1.6h-0.9v1.6h-1.7v0.9h1.7v1.8h-2v0.9h2.5c-0.9,1-2,1.7-3.2,2.3l0.5,0.8c0.4-0.2,0.8-0.4,1-0.5v5h0.9v-0.6h2.6v0.6h1v-6.2
			h-2.9c0.4-0.4,0.8-0.8,1.2-1.3h2.3v-0.9h-1.6c0.6-1,1.2-2,1.7-3.1L679.9,173.8z M679,184.4h-2.6v-1.5h2.6V184.4z M679,180.5v1.5
			h-2.6v-1.5H679z M677.9,177.4h-0.4v-1.8h1.6C678.7,176.3,678.3,176.9,677.9,177.4z M673.4,176.5l0.7-0.7c-0.5-0.7-1.2-1.4-2.1-2.1
			l-0.7,0.7C672.3,175.1,672.9,175.8,673.4,176.5z M670.3,173.1c-0.5,2.1-1.3,3.9-2.4,5.5l0.3,1.1c0.4-0.5,0.7-1,1.1-1.6v7.8h1v-9.7
			c0.4-0.9,0.7-1.8,0.9-2.7L670.3,173.1z M673.3,183.4v-5.9h-2.5v0.9h1.6v5.6c0,0.2-0.1,0.4-0.3,0.5l0.4,0.9
			c0.8-0.7,1.6-1.5,2.2-2.4l-0.2-1C674,182.6,673.6,183.1,673.3,183.4z M400.4,179c0,1.9-0.5,3.5-1.4,4.7l0.8,0.7
			c0.9-1.2,1.4-2.6,1.6-4.5h3.6v4.1h1v-4.1h3.8v2.4c0,0.6-0.3,0.9-0.8,0.9c-0.3,0-0.8,0-1.6-0.1l0.3,1h1.6c1,0,1.5-0.5,1.5-1.5
			v-10.5h-10.4V179z M406,173.2h3.8v2.4H406V173.2z M406,176.6h3.8v2.4H406V176.6z M401.4,173.2h3.6v2.4h-3.6V173.2z M401.4,176.6
			h3.6v2.4h-3.6V176.6z M419.5,171.6l-1.1,0.2c0.3,0.5,0.6,1,0.8,1.6h-4.6v4.4c0,2.5-0.6,4.6-1.7,6.1l0.7,0.7c1.2-1.8,1.9-4,2-6.5h9
			v-4.7h-4.4C420,172.7,419.7,172.1,419.5,171.6z M423.6,177.1h-8v-2.7h8V177.1z M434.1,171.6h-1c0,0.8,0,1.5-0.1,2.3h-5.1v10.6h1
			v-9.6h4c-0.1,0.6-0.2,1.2-0.4,1.8c-0.5,1.5-1.5,2.8-3.1,3.9l0.7,0.8c1.6-1.1,2.7-2.4,3.3-4c1.3,1.4,2.4,2.6,3.2,3.8l0.8-0.8
			c-1-1.4-2.2-2.7-3.7-4.1c0.1-0.4,0.2-0.9,0.3-1.5h4v7.8c0,0.5-0.2,0.7-0.7,0.7l-2.1-0.1l0.3,1h2.2c0.9,0,1.4-0.5,1.4-1.4v-9H434
			C434.1,173.1,434.1,172.3,434.1,171.6z M447.8,176.1H447c-1.4,1.5-3.4,2.8-5.9,3.7l0.5,0.8c0.7-0.3,1.2-0.5,1.7-0.7v4.6h1v-0.6
			h6.3v0.6h1v-4.6c0.5,0.2,1,0.4,1.6,0.7l0.5-0.8C450.9,178.7,448.9,177.5,447.8,176.1z M450.6,183h-6.3v-2.2h6.3V183z M443.4,179.9
			c1.6-0.8,2.9-1.7,4-2.9c1,1.1,2.3,2.1,4,2.9H443.4z M442.7,173.8h9.5v1.6h1v-2.5h-5.1c-0.2-0.5-0.3-0.9-0.5-1.2l-1.1,0.2
			c0.2,0.3,0.3,0.7,0.5,1.1h-5.3v2.6h1L442.7,173.8L442.7,173.8z M448.4,175c1.8,0.9,3.2,1.8,4.2,2.7l0.7-0.7
			c-1.1-0.8-2.5-1.7-4.3-2.6L448.4,175z M446.4,175l-0.7-0.6c-1.2,1-2.6,1.8-4.3,2.5l0.6,0.8C443.8,176.9,445.2,176,446.4,175z
			 M461.3,177h5.2v-1h-5.2v-4.3h-1V183h-5v1h12.5v-1h-6.4L461.3,177L461.3,177z M476.8,174.4h4.5v-1H477l0.4-1.7l-1-0.1l-0.4,1.8
			h-2.7v1h2.5c-0.1,0.6-0.3,1.1-0.5,1.6h-2.6v1h2.3c-0.3,0.9-0.7,1.8-1,2.7h6c-0.7,0.9-1.5,1.7-2.6,2.4c-0.8-0.4-1.7-0.8-2.5-1.1
			l-0.5,0.8c1.8,0.7,3.6,1.6,5.3,2.8l0.6-0.9c-0.6-0.4-1.3-0.8-1.9-1.1c1.3-1,2.2-2,2.8-2.9v-0.9h-5.8c0.3-0.7,0.5-1.3,0.7-1.8h5.9
			v-1h-5.5C476.4,175.7,476.6,175.1,476.8,174.4z M472.2,171.7c-0.7,2.2-1.8,4.1-3.3,5.7l0.3,1.1c0.5-0.5,1-1.1,1.5-1.8v7.8h1v-9.4
			c0.5-0.9,1-1.9,1.4-3.1L472.2,171.7z"/>
	</g>
</g>
</svg>
