<?xml version="1.0" encoding="UTF-8"?>
<svg width="48px" height="48px" viewBox="0 0 48 48" version="1.1" xmlns="http://www.w3.org/2000/svg" xmlns:xlink="http://www.w3.org/1999/xlink">
    <!-- Generator: Sketch 51.2 (57519) - http://www.bohemiancoding.com/sketch -->
    <title>集成管理-48x48</title>
    <desc>Created with Sketch.</desc>
    <defs></defs>
    <g id="集成管理-48x48" stroke="none" stroke-width="1" fill="none" fill-rule="evenodd">
        <g id="Group" transform="translate(1.000000, 1.000000)">
            <polygon id="Fill-2" fill="#00A4FF" points="6 13 23 4 40 13 23 21.7 12.7 16.3"></polygon>
            <polygon id="Fill-3" fill="#00A4FF" points="38 23 36 22 32 24 34 25"></polygon>
            <path d="M23,32.7002 L12.7,27.3002 L4.3,23.0002 L12.7,18.5992 L23,24.0002 L33.3,18.5992 L41.7,23.0002 L23,32.7002 Z M41.7,34.0002 L23,43.7002 L4.3,34.0002 L12.7,29.5992 L23,35.0002 L33.3,29.5992 L41.7,34.0002 Z M4.3,12.0002 L23,2.3002 L41.7,12.0002 L23,21.7002 L12.7,16.3002 L4.3,12.0002 Z M35.5,17.5002 L46,12.0002 L23,0.0002 L0,12.0002 L10.5,17.5002 L0,23.0002 L10.5,28.5002 L0,34.0002 L23,46.0002 L46,34.0002 L35.5,28.5002 L46,23.0002 L35.5,17.5002 Z" id="Fill-4" fill="#334966"></path>
            <polygon id="Fill-5" fill="#00A4FF" points="34 36 38 34 36 33 32 35"></polygon>
        </g>
    </g>
</svg>