<?xml version="1.0" encoding="utf-8"?>
<!-- Generator: Adobe Illustrator 22.1.0, SVG Export Plug-In . SVG Version: 6.00 Build 0)  -->
<svg version="1.1" id="svgwrapper_svg" xmlns="http://www.w3.org/2000/svg" xmlns:xlink="http://www.w3.org/1999/xlink" x="0px"
	 y="0px" width="807px" height="214.3px" viewBox="0 0 807 214.3" style="enable-background:new 0 0 807 214.3;"
	 xml:space="preserve">
<style type="text/css">
	.st0{display:none;fill:none;stroke:#999999;}
	.st1{fill:#888888;}
	.st2{fill:#FF0000;fill-opacity:0;}
	.st3{opacity:0.6;fill:#BBBBBB;enable-background:new    ;}
	.st4{fill:#FFFFFF;}
	.st5{fill:#E5E5E5;}
	.st6{fill:#878787;}
	.st7{enable-background:new    ;}
	.st8{fill:#444444;}
	.st9{fill:#00A4FF;}
	.st10{fill:#CEE3FF;fill-opacity:0;}
</style>
<path class="st0" d="M0,0L0,0"/>
<g id="bottomgroup" transform="translate(0,0)">
</g>
<g id="middlegroup" transform="translate(0,0)">
	<g id="Link7" transform="translate(0,0)">
		<rect x="521.1" y="102.6" class="st1" width="103.1" height="1"/>
		<g transform="translate(0.5, 0)">
			<polygon class="st1" points="619.3,107.6 625.3,103.1 619.3,98.6 			"/>
		</g>
		<rect x="521.1" y="95.6" class="st2" width="103.1" height="15"/>
	</g>
	<g id="Link8" transform="translate(0,0)">
		<rect x="526.1" y="112.6" class="st1" width="103.1" height="1"/>
		<g transform="translate(-0.5, 0)">
			<polygon class="st1" points="531.2,108.6 525.1,113.1 531.2,117.6 			"/>
		</g>
		<rect x="526.1" y="105.6" class="st2" width="103.1" height="15"/>
	</g>
	<g id="Link9" transform="translate(0,0)">
		<polygon class="st1" points="74.1,83.1 73.1,83.1 73.1,28.5 147.7,28.5 147.7,29.5 74.1,29.5 		"/>
		<g transform="translate(0.5, 0)">
			<polygon class="st1" points="142.7,33.5 148.7,29 142.7,24.5 			"/>
		</g>
		<rect x="66.1" y="29" class="st2" width="15" height="54.1"/>
		<rect x="73.6" y="21.5" class="st2" width="74.1" height="15"/>
	</g>
	<g id="Link10" transform="translate(0,0)">
		<polygon class="st1" points="144.7,185.7 73.1,185.7 73.1,133.2 74.1,133.2 74.1,184.7 144.7,184.7 		"/>
		<g transform="translate(0.5, 0)">
			<polygon class="st1" points="139.7,189.7 145.7,185.2 139.7,180.7 			"/>
		</g>
		<rect x="66.1" y="133.2" class="st2" width="15" height="52.1"/>
		<rect x="73.6" y="177.7" class="st2" width="71.1" height="15"/>
	</g>
	<g id="Link11" transform="translate(0,0)">
		<polygon class="st1" points="349.9,108.6 312.4,108.6 312.4,29.5 272.8,29.5 272.8,28.5 313.4,28.5 313.4,107.6 349.9,107.6 		"/>
		<g transform="translate(0.5, 0)">
			<polygon class="st1" points="344.9,112.6 350.9,108.1 344.9,103.6 			"/>
		</g>
		<rect x="272.8" y="21.5" class="st2" width="39" height="15"/>
		<rect x="311.9" y="100.6" class="st2" width="38" height="15"/>
	</g>
	<g id="Link12" transform="translate(0,0)">
		<polygon class="st1" points="313.4,184.7 275.8,184.7 275.8,183.7 312.4,183.7 312.4,107.6 349.9,107.6 349.9,108.6 313.4,108.6 
					"/>
		<g transform="translate(0.5, 0)">
			<polygon class="st1" points="344.9,112.6 350.9,108.1 344.9,103.6 			"/>
		</g>
		<rect x="275.8" y="176.7" class="st2" width="37" height="15"/>
		<rect x="305.4" y="108.1" class="st2" width="15" height="76.1"/>
		<rect x="312.9" y="100.6" class="st2" width="37" height="15"/>
	</g>
</g>
<g id="maingroup" transform="translate(0,0)">
	<g id="RectEndPoint1" transform="translate(8,188)">
		<rect x="8" y="-102.4" class="st3" width="120.2" height="50.1"/>
		<g>
			<rect x="6" y="-104.4" class="st4" width="120.2" height="50.1"/>
			<path class="st5" d="M126.7-53.8H5.5v-51.1h121.2V-53.8z M6.5-54.8h119.2v-49.1H6.5V-54.8z"/>
		</g>
		<g transform="translate(20 9)">
			<g>
				<g>
					<path class="st6" d="M18-99.2c2.2,0,4,1.8,4,4s-1.8,4-4,4s-4-1.8-4-4C14-97.5,15.8-99.2,18-99.2 M18-101.2c-3.3,0-6,2.7-6,6
						s2.7,6,6,6s6-2.7,6-6C24-98.6,21.4-101.2,18-101.2z"/>
					<path class="st6" d="M22-85.2c3.3,0,6,2.7,6,6v1H8v-1c0-3.3,2.7-6,6-6H22 M22-87.2h-8c-4.4,0-8,3.6-8,8v3h24v-3
						C30.1-83.6,26.5-87.2,22-87.2z"/>
					<path class="st6" d="M31.1-87.2h-3c0.8,0.6,1.4,1.2,2,2h1c2.2,0,4,1.8,4,4v1h-3c0,0.3,0,0.7,0,1v1h5v-3
						C37.1-84.6,34.4-87.2,31.1-87.2z"/>
					<path class="st6" d="M27.1-100.3c-0.8,0-1.6,0.2-2.3,0.6c0.4,0.6,0.7,1.2,0.9,1.8c1.4-0.8,3.3-0.3,4.1,1.1
						c0.8,1.4,0.3,3.3-1.1,4.1c-0.9,0.5-2,0.5-3,0c-0.2,0.6-0.5,1.2-0.9,1.8c0.7,0.4,1.5,0.6,2.3,0.6c2.8,0,5-2.2,5-5
						S29.8-100.3,27.1-100.3z"/>
				</g>
			</g>
			<g class="st7">
				<path class="st8" d="M49.4-82.1l-0.8-0.7c0.9-1.2,1.4-2.8,1.4-4.8v-6.7h10.4v10.5c0,1-0.5,1.5-1.5,1.5h-1.6l-0.3-1
					c0.6,0,1.1,0.1,1.6,0.1s0.8-0.3,0.8-0.9v-2.4h-3.8v4.1h-1v-4.1H51C50.9-84.7,50.3-83.3,49.4-82.1z M51.1-93.3v2.4h3.6v-2.4H51.1
					z M51.1-87.5h3.6V-90h-3.6V-87.5z M59.5-93.3h-3.8v2.4h3.8V-93.3z M59.5-89.9h-3.8v2.5h3.8V-89.9z"/>
				<path class="st8" d="M63.3-81.9l-0.7-0.7c1.1-1.6,1.7-3.6,1.7-6.1v-4.4h4.6c-0.3-0.6-0.5-1.1-0.8-1.6l1.1-0.2
					c0.3,0.5,0.5,1.1,0.8,1.8h4.4v4.7h-9C65.2-85.9,64.6-83.7,63.3-81.9z M65.3-92.1v2.7h8v-2.7H65.3z"/>
			</g>
		</g>
	</g>
	<g id="RectEndPoint3" transform="translate(146.6015625,109)">
		<rect x="8.2" y="-102.5" class="st3" width="120.2" height="50.1"/>
		<g>
			<rect x="6.2" y="-104.5" class="st4" width="120.2" height="50.1"/>
			<path class="st5" d="M126.8-53.9H5.7V-105h121.2L126.8-53.9L126.8-53.9z M6.7-54.9h119.2V-104H6.7V-54.9z"/>
		</g>
		<g transform="translate(20 9)">
			<g>
				<g>
					<path class="st6" d="M11.2-103.4v30h22v-30H11.2z M31.2-75.3h-18v-26h18V-75.3z M20.2-76.3h4v-2h-4V-76.3z M31.2-81.3h-18v2h18
						V-81.3z"/>
				</g>
			</g>
			<g class="st7">
				<path class="st8" d="M53.5-93.5l3.9,10h-1.2l-1.1-2.8h-4.6l-1.1,2.8h-1.2l3.9-10H53.5z M54.8-87.2l-1.9-5h-0.1l-1.9,5H54.8z"/>
				<path class="st8" d="M62.6-93.5c2.3,0,3.4,1,3.4,2.9c0,2-1.2,3-3.5,3h-2.9v4.1h-1.1v-10H62.6z M59.6-88.5h2.9
					c0.8,0,1.4-0.2,1.8-0.5s0.6-0.8,0.6-1.5s-0.2-1.2-0.6-1.5s-1-0.5-1.8-0.5h-2.9C59.6-92.5,59.6-88.5,59.6-88.5z"/>
				<path class="st8" d="M71.6-93.5c2.3,0,3.4,1,3.4,2.9c0,2-1.2,3-3.5,3h-2.9v4.1h-1.1v-10H71.6z M68.6-88.5h2.9
					c0.8,0,1.4-0.2,1.8-0.5s0.6-0.8,0.6-1.5s-0.2-1.2-0.6-1.5s-1-0.5-1.8-0.5h-2.9V-88.5z"/>
			</g>
		</g>
	</g>
	<g id="RectEndPoint4" transform="translate(143.3984375,264)">
		<rect x="8.2" y="-102.3" class="st3" width="126.6" height="50.1"/>
		<g>
			<rect x="6.2" y="-104.3" class="st4" width="126.6" height="50.1"/>
			<path class="st5" d="M133.2-53.7H5.7v-51.1h127.6v51.1H133.2z M6.7-54.7h125.6v-49.1H6.7V-54.7z"/>
		</g>
		<g transform="translate(20 9)">
			<g>
				<g>
					<path class="st6" d="M7.2-102.2v21h30v-21H7.2z M35.2-83.1h-26v-17h26V-83.1z M26.2-80.1h-2v2h-4v-2h-2v2h-5v2h18v-2h-5V-80.1z
						"/>
				</g>
			</g>
			<g class="st7">
				<path class="st8" d="M49.6-93.3l2.2,8.4h0.1l2.3-8.4h1.2l2.3,8.4h0.1l2.2-8.4h1.3l-2.9,10h-1.3l-2.3-8.3l0,0l-2.3,8.3h-1.3
					l-2.9-10H49.6z"/>
				<path class="st8" d="M69.4-93.3v1h-5.9v3.4h5.6v1h-5.6v3.7h6.2v1h-7.3v-10L69.4-93.3L69.4-93.3z"/>
				<path class="st8" d="M75.7-93.3c0.9,0,1.7,0.2,2.2,0.7c0.5,0.4,0.8,1.1,0.8,1.9c0,0.6-0.2,1.1-0.4,1.5c-0.3,0.4-0.7,0.6-1.2,0.8
					c0.7,0.1,1.2,0.4,1.5,0.8c0.4,0.4,0.6,1,0.6,1.6c0,1-0.4,1.7-1,2.2c-0.6,0.4-1.4,0.6-2.4,0.6h-4.4v-10L75.7-93.3L75.7-93.3z
					 M72.4-88.9h3c0.7,0,1.2-0.2,1.6-0.4c0.4-0.3,0.6-0.7,0.6-1.3c0-0.6-0.2-1-0.5-1.3c-0.4-0.3-0.9-0.4-1.6-0.4h-3.1V-88.9z
					 M72.4-84.2h3.2c0.7,0,1.2-0.1,1.7-0.4S78-85.4,78-86s-0.2-1.1-0.6-1.4s-1-0.4-1.8-0.4h-3.2C72.4-87.8,72.4-84.2,72.4-84.2z"/>
				<path class="st8" d="M84.7-84c-1.3,0.5-2.7,0.9-4.2,1.2l-0.3-1c0.8-0.1,1.6-0.3,2.4-0.5c0.3-2,0.6-4.2,0.7-6.5l0.9,0.1
					c-0.2,2.2-0.4,4.2-0.8,6.1c0.4-0.1,0.8-0.3,1.2-0.4v1H84.7z M82.1-92.4c-0.2-0.7-0.4-1.4-0.6-2l1-0.2c0.2,0.6,0.4,1.4,0.6,2.2
					h1.6v1h-4.4v-1H82.1z M82.3-85.1l-0.8,0.2c-0.2-1.9-0.5-3.7-0.8-5.5l0.8-0.3C81.8-89,82-87.1,82.3-85.1z M93-89.9v0.9h-3.7
					c-0.1,0.5-0.2,0.9-0.4,1.3h3.7v4.7c0,0.7-0.3,1.1-0.9,1.1h-0.6l-0.2-0.9h0.6c0.2,0,0.3-0.1,0.3-0.4v-3.6h-1.3v4.6h-0.9v-4.6
					h-1.1v4.6h-0.9v-4.6h-1.2v4.9h-0.9v-5.7H88c0.2-0.4,0.3-0.9,0.4-1.3h-3.3v-0.9L93-89.9L93-89.9z M91.4-94.1h1v3h-6.7v-3h1v2.1
					h1.9v-2.7h1v2.7h1.9v-2.1H91.4z"/>
			</g>
		</g>
	</g>
	<g id="ShadowBasicRect5" transform="translate(349,188)">
		<rect x="8.4" y="-102.4" class="st3" width="165.2" height="50.1"/>
		<g>
			<rect x="6.4" y="-104.4" class="st4" width="165.2" height="50.1"/>
			<path class="st5" d="M172.2-53.8H5.9v-51.1h166.2v51.1H172.2z M6.9-54.8h164.2v-49.1H6.9V-54.8z"/>
		</g>
		<g transform="translate(20 9)">
			<g>
				<path class="st9" d="M22.5-75.3c-7.2,0-13-5.8-13-13s5.8-13,13-13c6.4,0,11.9,4.7,12.9,11h2c-1.1-8.2-8.7-14-16.9-12.9
					s-14,8.7-12.9,16.9s8.7,14,16.9,12.9c6.7-0.9,12-6.2,12.9-12.9h-2C34.3-80,28.9-75.4,22.5-75.3z M29.5-92.4l-7-4l-7,4v8l3.2,1.8
					c0.2-0.6,0.5-1.2,1-1.7l-2.2-1.3v-3.7l5,2.9l5-2.9v3.7l-4.1,2.4c-1-0.5-2.2-0.1-2.7,0.9s-0.1,2.2,0.9,2.7s2.2,0.1,2.7-0.9
					c0.1-0.3,0.2-0.6,0.2-0.9v-0.1l5-2.9V-92.4z M22.5-88.7l-4.7-2.7l4.7-2.7l4.7,2.7L22.5-88.7z"/>
			</g>
			<g class="st7">
				<path class="st8" d="M61-94v1h-2.3v3.7h3.1v1h-3.1v6.2h-1v-6.2h-4.1c-0.1,1.4-0.4,2.6-0.8,3.6c-0.5,1.2-1.4,2.1-2.7,2.7
					l-0.5-0.9c1.1-0.6,1.9-1.5,2.4-2.6c0.3-0.8,0.5-1.8,0.6-2.9h-3.2v-1h3.3c0-0.2,0-0.4,0-0.5V-93h-2.6v-1H61z M53.7-89.8
					c0,0.2,0,0.3,0,0.5h4V-93h-4V-89.8z"/>
				<path class="st8" d="M65.3-94.4l1,0.2l-0.8,2.8H68c0.3-1.1,0.5-2.2,0.7-3.4l1,0.1c-0.2,1.2-0.4,2.3-0.7,3.3h6.6v1h-6.8
					c-0.2,0.6-0.3,1.1-0.5,1.6H74v0.9c-0.4,1.2-1.1,2.3-2.3,3.3c1.1,0.7,2.5,1.3,4.2,1.9L75.2-82c-1.8-0.7-3.3-1.4-4.5-2.1
					c-1.1,0.8-2.6,1.5-4.3,2.2l-0.4-1c1.6-0.6,2.9-1.2,3.9-1.9c-1.1-0.8-1.9-1.8-2.3-2.7c-1,2.2-2.3,4-3.9,5.3l-0.5-0.9
					c2-1.8,3.5-4.2,4.5-7.4h-3.5L65.3-94.4z M70.7-85.3c1-0.8,1.8-1.7,2.1-2.7h-4.5C68.8-87,69.6-86.1,70.7-85.3z M74.5-92.5
					l-0.7,0.7c-0.6-0.7-1.4-1.5-2.5-2.4l0.7-0.7C73-94,73.8-93.3,74.5-92.5z"/>
				<path class="st8" d="M82.4-93.4v-1.5h1v1.5h3.3v0.9h-3.3v1.7h1.8c1.3-0.9,2.5-2,3.5-3.2l0.8,0.6c-0.8,1-1.7,1.9-2.7,2.6h3v1
					h-4.3c-0.2,0.1-0.4,0.3-0.6,0.4c-0.6,0.4-1.4,0.8-2.2,1.2H88v6.3h-1v-0.6h-6.1v0.6h-1v-5.2c-0.8,0.3-1.5,0.5-2.4,0.8l-0.4-0.9
					c2.4-0.6,4.6-1.4,6.6-2.6h-6.4v-1h5.1v-1.7h-3.8v-0.9C78.6-93.4,82.4-93.4,82.4-93.4z M87-87.4h-6.1v1.5H87V-87.4z M80.9-83.5
					H87V-85h-6.1V-83.5z"/>
				<path class="st8" d="M92.1-81.9l-0.8-0.7c0.6-1.3,0.8-2.9,0.9-4.9v-6.7h4.1v10.9c0,0.8-0.4,1.3-1.2,1.3H94l-0.2-0.9
					c0.4,0,0.7,0.1,1.1,0.1s0.5-0.3,0.5-0.8v-3.2h-2.3C93-84.8,92.7-83.2,92.1-81.9z M95.4-93.3h-2.3v2.4h2.3V-93.3z M93.1-87.7h2.3
					V-90h-2.3V-87.7z M98.4-81.9h-1v-12.3h5.7c0,1.7-0.1,2.9-0.3,3.5c-0.2,0.6-0.7,0.9-1.6,0.9h-1.1l-0.3-0.9c0.2,0,0.5,0,0.9,0
					c0.3,0,0.6,0,0.7-0.1c0.2-0.1,0.3-0.2,0.4-0.4c0.1-0.3,0.2-1,0.2-2.1h-3.7v4.2h4.8v0.9c-0.3,1.4-0.7,2.7-1.4,3.7
					c0.6,0.6,1.4,1.2,2.2,1.7l-0.5,0.9c-0.9-0.5-1.7-1.1-2.3-1.7c-0.6,0.7-1.3,1.3-2.2,1.7l-0.5-0.8c0.8-0.4,1.5-1,2-1.7
					c-0.9-1.1-1.5-2.3-1.8-3.7h-0.3v6.2H98.4z M101.1-85.2c0.5-0.8,0.9-1.8,1.2-2.9h-2.7C99.9-87.1,100.4-86.1,101.1-85.2z"/>
				<path class="st8" d="M110.4-94.7c-0.2,0.4-0.3,0.7-0.5,1.1h6.1v0.8c-0.9,1-2,1.9-3.3,2.7c1.6,0.7,3.4,1.1,5.3,1.3l-0.5,0.9
					c-2.2-0.3-4.2-0.8-5.9-1.7c-1.7,0.8-3.7,1.4-6,1.7l-0.5-1c2-0.3,3.8-0.7,5.4-1.3c-0.8-0.5-1.5-1-2.2-1.6
					c-0.5,0.5-1.1,0.9-1.8,1.3l-0.6-0.8c1.7-1,2.8-2.1,3.4-3.5L110.4-94.7z M111.8-88.6c0,0.6-0.1,1.1-0.1,1.6h4.9
					c0,2.4-0.2,3.8-0.6,4.2c-0.4,0.5-1.1,0.7-2.1,0.7c-0.4,0-1,0-1.6-0.1l-0.3-0.9l1.7,0.1c0.8,0,1.4-0.2,1.6-0.5s0.3-1.2,0.4-2.6
					h-4.2c-0.1,0.4-0.3,0.7-0.4,1.1c-0.7,1.3-2.4,2.3-4.9,3.1l-0.7-0.8c2.3-0.7,3.8-1.5,4.6-2.6c0.2-0.3,0.3-0.5,0.4-0.8h-4.2V-87
					h4.5c0.1-0.5,0.2-1,0.2-1.6H111.8z M114.6-92.7h-5.4l-0.2,0.2c0.8,0.7,1.7,1.3,2.6,1.8C112.8-91.3,113.7-91.9,114.6-92.7z"/>
				<path class="st8" d="M124.1-89.5c0.3-0.4,0.5-0.7,0.6-1.1l1,0.1c-0.1,0.4-0.3,0.7-0.5,1h3.6c-0.2-0.4-0.4-0.7-0.6-1l0.9-0.3
					c0.3,0.4,0.5,0.8,0.8,1.2h1.9v0.9H128c0.9,0.8,2.3,1.5,4.1,2l-0.4,0.9c-0.4-0.1-0.7-0.2-1-0.4v4.1h-0.9v-0.6h-2.6v0.6h-0.9v-4.4
					h3.7c-1.3-0.6-2.4-1.4-3.1-2.2h-2.4c-0.8,0.9-1.8,1.6-3.2,2.2h3.5v4.4H124v-0.6h-2.4v0.6h-0.9v-4.1c-0.4,0.1-0.8,0.3-1.1,0.4
					l-0.5-0.8c1.8-0.5,3.2-1.2,4.2-2.1h-3.9v-0.9h4.7V-89.5z M124.8-94.3v3.4h-4.3v-3.4H124.8z M123.9-93.4h-2.4v1.7h2.4V-93.4z
					 M124-83.4v-2.1h-2.4v2.1H124z M130.8-94.3v3.4h-4.4v-3.4H130.8z M129.8-83.4v-2.1h-2.6v2.1H129.8z M129.8-93.4h-2.5v1.7h2.5
					V-93.4z"/>
			</g>
		</g>
	</g>
	<g id="ShadowBasicRect6" transform="translate(623,188)">
		<rect x="8.8" y="-102.4" class="st3" width="165.2" height="50.1"/>
		<g>
			<rect x="6.8" y="-104.4" class="st4" width="165.2" height="50.1"/>
			<path class="st5" d="M172.5-53.8H6.3v-51.1h166.2V-53.8z M7.3-54.8h164.2v-49.1H7.3V-54.8z"/>
		</g>
		<g transform="translate(20 9)">
			<g>
				<path class="st9" d="M22.8-75.3c-7.2,0-13-5.8-13-13s5.8-13,13-13c6.4,0,11.9,4.7,12.9,11h2c-1.1-8.2-8.7-14-16.9-12.9
					s-14,8.7-12.9,16.9s8.7,14,16.9,12.9c6.7-0.9,12-6.2,12.9-12.9h-2C34.7-80,29.2-75.4,22.8-75.3z M29.8-92.4l-7-4l-7,4v8l3.2,1.8
					c0.2-0.6,0.5-1.2,1-1.7l-2.2-1.3v-3.7l5,2.9l5-2.9v3.7l-4.1,2.4c-1-0.5-2.2-0.1-2.7,0.9s-0.1,2.2,0.9,2.7s2.2,0.1,2.7-0.9
					c0.1-0.3,0.2-0.6,0.2-0.9v-0.1l5-2.9V-92.4z M22.8-88.7l-4.7-2.7l4.7-2.7l4.7,2.7L22.8-88.7z"/>
			</g>
			<g class="st7">
				<path class="st8" d="M52.4-89.6L52.4-89.6c-0.1,3.2-0.8,5.7-2.1,7.6l-0.7-0.7c1.1-1.6,1.8-3.9,1.9-6.7v-4.3
					c3.5,0,6.7-0.3,9.5-0.9l0.5,0.9c-2.7,0.5-5.6,0.8-8.9,0.9v2.4H61v0.9c-0.5,1.8-1.5,3.3-2.9,4.6c1.2,0.8,2.7,1.6,4.4,2.2L62-81.8
					c-1.8-0.7-3.3-1.6-4.6-2.5c-1.3,1-2.9,1.8-4.8,2.5L52-82.7c1.8-0.6,3.3-1.4,4.5-2.3c-1.5-1.3-2.5-2.8-3-4.5L52.4-89.6L52.4-89.6
					z M59.8-89.6h-5.5c0.5,1.5,1.4,2.8,2.8,4C58.4-86.8,59.3-88.1,59.8-89.6z"/>
				<path class="st8" d="M66.2-84.5c-0.5,1-1.2,1.9-1.9,2.7l-0.8-0.6c0.7-0.7,1.3-1.5,1.9-2.5L66.2-84.5z M65.5-94.7v1.5h2.8v-1.5h1
					v1.5h0.8v0.9h-0.8v6h1v0.9h-6.7v-0.9h1v-6h-0.8v-0.9h0.8v-1.5H65.5z M65.5-92.2v1.4h2.8v-1.4H65.5z M68.3-88.5v-1.4h-2.8v1.4
					H68.3z M68.3-86.2v-1.4h-2.8v1.4H68.3z M69.6-83.1l-0.8,0.5c-0.3-0.6-0.8-1.2-1.4-1.9l0.8-0.5C68.7-84.3,69.2-83.7,69.6-83.1z
					 M72.3-94.6c-0.1,0.7-0.2,1.3-0.3,1.9h3.9v0.6c-0.2,1.2-0.5,2.4-0.8,3.6l-1-0.3c0.3-0.9,0.6-1.9,0.8-3h-3.1
					c-0.3,1.2-0.7,2.2-1.3,3l-0.8-0.6c0.8-1.3,1.4-3.1,1.6-5.4L72.3-94.6z M73.4-90.7c0,0.7,0,1.4-0.1,2.1c0.6,2.5,1.7,4.4,3.1,5.9
					L75.8-82c-1.2-1.3-2.1-2.8-2.7-4.7L72.9-86c-0.4,1.7-1.2,3-2.6,4.1l-0.7-0.8c1.2-0.9,1.9-2.1,2.3-3.5c0.3-1.2,0.4-2.7,0.4-4.5
					C72.3-90.7,73.4-90.7,73.4-90.7z"/>
				<path class="st8" d="M80.5-90.5v6.2c0.4-0.4,0.9-0.9,1.5-1.4l0.3,1.1c-0.8,0.8-1.7,1.5-2.6,2.2l-0.4-0.9
					c0.2-0.2,0.3-0.4,0.3-0.6v-5.6h-2v-1C77.6-90.5,80.5-90.5,80.5-90.5z M81.5-92.6l-0.7,0.7c-0.6-0.6-1.3-1.3-2.3-2.1l0.7-0.7
					C80.1-93.9,80.9-93.3,81.5-92.6z M82-88.7l-0.6-0.8c1.3-1.3,2.1-3.1,2.5-5.3l1,0.2c-0.1,0.6-0.3,1.2-0.5,1.8H90v1h-4.2v2.4h3.7
					v1h-3.7v2.4H90v1h-4.1v3.3h-1v-10h-0.8C83.5-90.7,82.8-89.6,82-88.7z"/>
				<path class="st8" d="M92.5-81.9l-0.8-0.7c0.6-1.3,0.8-2.9,0.9-4.9v-6.7h4.1v10.9c0,0.8-0.4,1.3-1.2,1.3h-1.1l-0.2-0.9
					c0.4,0,0.7,0.1,1.1,0.1s0.5-0.3,0.5-0.8v-3.2h-2.3C93.4-84.8,93-83.2,92.5-81.9z M95.7-93.3h-2.3v2.4h2.3V-93.3z M93.5-87.7h2.3
					V-90h-2.3V-87.7z M98.8-81.9h-1v-12.3h5.7c0,1.7-0.1,2.9-0.3,3.5c-0.2,0.6-0.7,0.9-1.6,0.9h-1.1l-0.3-0.9c0.2,0,0.5,0,0.9,0
					c0.3,0,0.6,0,0.7-0.1c0.2-0.1,0.3-0.2,0.4-0.4c0.1-0.3,0.2-1,0.2-2.1h-3.7v4.2h4.8v0.9c-0.3,1.4-0.7,2.7-1.4,3.7
					c0.6,0.6,1.4,1.2,2.2,1.7l-0.5,0.9c-0.9-0.5-1.7-1.1-2.3-1.7c-0.6,0.7-1.3,1.3-2.2,1.7l-0.5-0.8c0.8-0.4,1.5-1,2-1.7
					c-0.9-1.1-1.5-2.3-1.8-3.7h-0.3v6.2H98.8z M101.5-85.2c0.5-0.8,0.9-1.8,1.2-2.9H100C100.3-87.1,100.8-86.1,101.5-85.2z"/>
				<path class="st8" d="M110.8-94.7c-0.2,0.4-0.3,0.7-0.5,1.1h6.1v0.8c-0.9,1-2,1.9-3.3,2.7c1.6,0.7,3.4,1.1,5.3,1.3l-0.5,0.9
					c-2.2-0.3-4.2-0.8-5.9-1.7c-1.7,0.8-3.7,1.4-6,1.7l-0.5-1c2-0.3,3.8-0.7,5.4-1.3c-0.8-0.5-1.5-1-2.2-1.6
					c-0.5,0.5-1.1,0.9-1.8,1.3l-0.6-0.8c1.7-1,2.8-2.1,3.4-3.5L110.8-94.7z M112.1-88.6c0,0.6-0.1,1.1-0.1,1.6h4.9
					c0,2.4-0.2,3.8-0.6,4.2c-0.4,0.5-1.1,0.7-2.1,0.7c-0.4,0-1,0-1.6-0.1l-0.3-0.9L114-83c0.8,0,1.4-0.2,1.6-0.5s0.3-1.2,0.4-2.6
					h-4.2c-0.1,0.4-0.3,0.7-0.4,1.1c-0.7,1.3-2.4,2.3-4.9,3.1l-0.7-0.8c2.3-0.7,3.8-1.5,4.6-2.6c0.2-0.3,0.3-0.5,0.4-0.8h-4.2V-87
					h4.5c0.1-0.5,0.2-1,0.2-1.6H112.1z M114.9-92.7h-5.4l-0.2,0.2c0.8,0.7,1.7,1.3,2.6,1.8C113.1-91.3,114.1-91.9,114.9-92.7z"/>
				<path class="st8" d="M124.5-89.5c0.3-0.4,0.5-0.7,0.6-1.1l1,0.1c-0.1,0.4-0.3,0.7-0.5,1h3.6c-0.2-0.4-0.4-0.7-0.6-1l0.9-0.3
					c0.3,0.4,0.5,0.8,0.8,1.2h1.9v0.9h-3.8c0.9,0.8,2.3,1.5,4.1,2l-0.4,0.9c-0.4-0.1-0.7-0.2-1-0.4v4.1h-0.9v-0.6h-2.6v0.6h-0.9
					v-4.4h3.7c-1.3-0.6-2.4-1.4-3.1-2.2h-2.4c-0.8,0.9-1.8,1.6-3.2,2.2h3.5v4.4h-0.9v-0.6H122v0.6h-0.9v-4.1
					c-0.4,0.1-0.8,0.3-1.1,0.4l-0.5-0.8c1.8-0.5,3.2-1.2,4.2-2.1h-3.9v-0.9h4.7V-89.5z M125.2-94.3v3.4h-4.3v-3.4H125.2z
					 M124.3-93.4h-2.4v1.7h2.4V-93.4z M124.4-83.4v-2.1H122v2.1H124.4z M131.1-94.3v3.4h-4.4v-3.4H131.1z M130.1-83.4v-2.1h-2.6v2.1
					H130.1z M130.2-93.4h-2.5v1.7h2.5V-93.4z"/>
			</g>
		</g>
	</g>
</g>
<g id="textgroup" transform="translate(0,0)">
	<g id="Textbasic13" transform="translate(75,264)">
		<rect x="6.1" y="-104.3" class="st10" width="80.1" height="20"/>
		<g transform="translate(0 0)">
			<g class="st7">
				<path class="st6" d="M6.8-94.1L6.5-95c1.2-1.5,2.1-3.2,2.6-5.1l0.8,0.4c-0.3,0.8-0.6,1.6-0.9,2.4v8.3H8.1v-6.8
					C7.7-95.3,7.3-94.7,6.8-94.1z M11.7-98.7v-1.3h0.9v1.3h2.2v-1.3h0.8v1.3h1.7v0.8h-1.7v1.5h2v0.8H9.7v-0.8h1.9v-1.5H10v-0.8H11.7
					z M16.5-89.2h-0.8v-0.5h-4.1v0.5h-0.8v-5.5h5.8v5.5H16.5z M15.7-92.6v-1.3h-4.1v1.3H15.7z M15.7-90.5v-1.3h-4.1v1.3H15.7z
					 M14.7-96.4v-1.5h-2.2v1.5H14.7z"/>
				<path class="st6" d="M19.1-96.7l-0.3-0.8c1.4-0.8,2.5-1.6,3.1-2.6l0.7,0.3c-0.3,0.5-0.7,1-1.2,1.4v2.9h-0.9v-2.2
					C20.2-97.3,19.6-97,19.1-96.7z M24.7-93.6c-0.2,1.6-0.5,2.6-1.1,3.1c-0.6,0.7-2,1.1-4.2,1.3L19-89.9c1.9-0.1,3.2-0.4,3.8-1
					c0.6-0.5,0.9-1.4,1-2.7H24.7z M28-91.3h-0.9v-2.8h-5.8v2.9h-0.9V-95H28V-91.3z M29-98.2l-3.4,0.6c0.1,0.2,0.2,0.3,0.3,0.5
					c0.6,0.6,1.2,0.9,1.9,0.9c0.1,0,0.3-0.1,0.4-0.2c0.1-0.2,0.2-0.6,0.3-1l0.8,0.3c-0.2,0.7-0.4,1.2-0.5,1.4
					c-0.2,0.2-0.4,0.3-0.7,0.3c-1,0-1.8-0.4-2.6-1.1c-0.3-0.3-0.5-0.6-0.8-1L22.2-97L22-97.8l2.3-0.4c-0.3-0.6-0.5-1.2-0.7-1.9
					l0.9-0.1c0.2,0.7,0.4,1.3,0.6,1.8l3.7-0.7L29-98.2z M29.2-89.8l-0.5,0.7c-1.4-0.7-2.8-1.3-4.2-1.7l0.4-0.7
					C26.5-91,27.9-90.4,29.2-89.8z M27.7-99.3l-0.5,0.5c-0.3-0.3-0.8-0.6-1.4-1l0.5-0.5C26.8-99.9,27.3-99.6,27.7-99.3z"/>
				<path class="st6" d="M36.6-100.1v1.8h3.8v6.7h-0.9v-0.7h-3v3.1h-0.9v-3.1h-3v0.8h-0.9v-6.8h3.9v-1.8H36.6z M35.7-95.7v-1.8h-3
					v1.8H35.7z M35.7-93.1v-1.8h-3v1.8H35.7z M39.5-95.7v-1.8h-3v1.8H39.5z M39.5-93.1v-1.8h-3v1.8H39.5z"/>
				<path class="st6" d="M45.2-96.4v5.3c0.4-0.3,0.7-0.7,1.1-1.1l0.2,0.9c-0.7,0.7-1.4,1.3-2.1,1.9l-0.3-0.8
					c0.2-0.2,0.3-0.3,0.3-0.6v-4.8h-1.7v-0.8H45.2z M46.1-98.1l-0.6,0.6c-0.5-0.6-1.2-1.2-2.1-1.8l0.6-0.6
					C44.9-99.4,45.6-98.7,46.1-98.1z M50.3-100.1v0.8h3v0.7h-3v0.8h2.5v0.7h-2.5v0.8h3.3v0.7h-7.3v-0.7h3.2v-0.8h-2.4v-0.7h2.4v-0.8
					h-2.9v-0.7h2.9v-0.8H50.3z M48-89.1h-0.8v-5.7h5.5v4.7c0,0.6-0.3,1-1,1h-1l-0.2-0.8h1c0.3,0,0.4-0.1,0.4-0.4V-91H48V-89.1z
					 M51.9-94.1H48v0.9h3.9V-94.1z M48-91.7h3.9v-0.9H48V-91.7z"/>
			</g>
		</g>
	</g>
	<g id="Textbasic14" transform="translate(528,218)">
		<rect x="6.7" y="-104.4" class="st10" width="84.1" height="20"/>
		<g transform="translate(0 0)">
			<g class="st7">
				<path class="st6" d="M9.5-91.4c-0.5,0.9-1,1.7-1.6,2.3l-0.7-0.5c0.6-0.6,1.1-1.3,1.6-2.1L9.5-91.4z M8.9-100v1.3h2.4v-1.3h0.8
					v1.3h0.7v0.8h-0.7v5.1H13v0.8H7.2v-0.8H8v-5.1H7.4v-0.8h0.7v-1.3H8.9z M8.9-97.9v1.2h2.4v-1.2H8.9z M11.3-94.7V-96H8.9v1.2h2.4
					V-94.7z M11.3-92.8V-94H8.9v1.2H11.3z M12.4-90.1l-0.7,0.5c-0.3-0.5-0.7-1-1.2-1.6l0.6-0.4C11.7-91.1,12.1-90.6,12.4-90.1z
					 M14.7-100c-0.1,0.6-0.2,1.2-0.3,1.7h3.3v0.5c-0.2,1-0.4,2.1-0.7,3.1l-0.8-0.2c0.3-0.8,0.5-1.6,0.6-2.6h-2.6
					c-0.3,1-0.6,1.9-1.1,2.5l-0.7-0.5c0.7-1.1,1.2-2.7,1.4-4.6L14.7-100z M15.7-96.6c0,0.6,0,1.2-0.1,1.8c0.5,2.1,1.4,3.8,2.7,5
					l-0.6,0.7c-1-1.1-1.8-2.4-2.3-4l-0.1,0.5c-0.3,1.4-1.1,2.6-2.2,3.5l-0.6-0.7c1-0.8,1.6-1.8,1.9-3c0.2-1,0.4-2.3,0.4-3.8H15.7z"
					/>
				<path class="st6" d="M21.8-96.5v5.3c0.4-0.3,0.8-0.7,1.2-1.2l0.2,0.9c-0.7,0.7-1.5,1.3-2.2,1.9l-0.3-0.8
					c0.2-0.2,0.3-0.3,0.3-0.5v-4.8h-1.7v-0.8H21.8z M22.6-98.2L22-97.6c-0.5-0.6-1.1-1.1-2-1.8l0.6-0.6
					C21.4-99.4,22.1-98.8,22.6-98.2z M23-95l-0.6-0.7c1.1-1.1,1.8-2.6,2.2-4.6l0.9,0.1c-0.1,0.5-0.3,1-0.4,1.5h4.8v0.8h-3.6v2.1h3.1
					v0.8h-3.1v2h3.5v0.8h-3.5v2.8h-0.9V-98h-0.7C24.4-96.6,23.8-95.7,23-95z"/>
				<path class="st6" d="M35.8-99.4c-0.6,1-1.1,1.8-1.7,2.5c-0.6,0.7-1.4,1.4-2.4,2.1l-0.5-0.8c0.8-0.5,1.6-1.1,2.2-1.8
					c0.6-0.7,1.1-1.5,1.6-2.4L35.8-99.4z M33-94.5v-0.8h7.2c0,1.5-0.1,2.7-0.2,3.6c-0.1,0.9-0.3,1.6-0.6,1.9s-0.7,0.5-1.3,0.6h-2.2
					l-0.2-0.9c0.7,0,1.4,0,2,0s1.1-0.3,1.3-0.8c0.2-0.6,0.3-1.8,0.4-3.7h-3c-0.3,1.3-0.7,2.4-1.2,3.1c-0.6,0.9-1.5,1.6-2.8,2.3
					l-0.6-0.7c1.1-0.6,1.9-1.3,2.5-2c0.5-0.7,0.9-1.6,1.1-2.7L33-94.5L33-94.5z M42.1-95.7L41.6-95c-1.9-1.2-3.2-2.8-3.9-4.6
					l0.7-0.4C39.1-98.2,40.3-96.7,42.1-95.7z"/>
				<path class="st6" d="M52.4-99.7v4.8c0,2,0.1,3.2,0.2,3.8c0.1,0.5,0.3,0.8,0.5,0.8s0.3-0.6,0.4-1.6l0.8,0.4
					c-0.1,0.9-0.3,1.5-0.5,1.8s-0.4,0.4-0.6,0.4c-0.6,0-1-0.4-1.2-1.1c-0.3-0.7-0.4-2.2-0.4-4.5v-4h-6v3.8c0,2.3-0.5,4.3-1.5,5.9
					l-0.7-0.6c0.8-1.4,1.3-3.2,1.3-5.3v-4.7L52.4-99.7L52.4-99.7z M48.7-94.9c0.5-0.9,0.9-1.9,1.2-2.9l0.9,0.1
					c-0.4,1.3-0.8,2.5-1.4,3.5c0.7,1,1.4,2,1.9,2.9l-0.8,0.5c-0.5-0.8-1-1.7-1.6-2.6c-0.7,1.1-1.6,2-2.7,2.8l-0.6-0.7
					c1.1-0.8,2-1.8,2.7-2.8C47.5-95,46.8-96,46-97l0.7-0.4C47.4-96.5,48.1-95.7,48.7-94.9z"/>
				<path class="st6" d="M59.3-99.6v0.7c-0.4,1.1-0.8,2.2-1.3,3.4c0.7,1.1,1.1,2,1.2,2.9c0,0.5-0.1,0.9-0.4,1.1
					c-0.3,0.3-0.9,0.4-1.7,0.4L56.9-92c0.2,0,0.3,0,0.5,0c0.4,0,0.7-0.1,0.8-0.2s0.2-0.3,0.2-0.5c0-0.8-0.4-1.8-1.2-2.8
					c0.5-1.2,1-2.4,1.3-3.4h-1.9v9.7h-0.8v-10.5h3.5V-99.6z M59.3-95.4L58.8-96c1.4-1,2.6-2.4,3.3-4.1H63c0.6,1.5,1.8,2.9,3.4,4
					l-0.5,0.7c-0.5-0.4-1-0.8-1.4-1.2v0.7h-3.7v-0.7C60.3-96.1,59.8-95.7,59.3-95.4z M63.2-90.4c0.6-1.3,1.1-2.9,1.5-4.8l0.8,0.2
					c-0.4,1.7-0.9,3.2-1.4,4.5h2v0.8H59v-0.8h4.2V-90.4z M61.5-91.3l-0.8,0.2c-0.3-1.2-0.7-2.3-1.1-3.4l0.7-0.3
					C60.8-93.7,61.2-92.5,61.5-91.3z M62.6-99.2c-0.5,1-1.1,1.9-1.8,2.6h3.6C63.6-97.4,63-98.3,62.6-99.2z M63.2-91.8l-0.7,0.2
					c-0.2-1.2-0.6-2.2-0.9-3.3l0.7-0.2C62.6-94.2,62.9-93.1,63.2-91.8z"/>
				<path class="st6" d="M69.8-96.5v5.2c0.3-0.3,0.6-0.7,0.9-1l0.2,0.9c-0.6,0.7-1.3,1.3-2,1.9l-0.3-0.8c0.2-0.2,0.3-0.3,0.3-0.6
					v-4.8h-1.7v-0.8C67.2-96.5,69.8-96.5,69.8-96.5z M70.6-98.2L70-97.6c-0.5-0.6-1.1-1.2-1.9-1.8l0.6-0.6
					C69.5-99.4,70.1-98.8,70.6-98.2z M71.5-97.1v-0.8h3.8c0.4-0.7,0.7-1.5,1-2.3l0.8,0.3c-0.3,0.7-0.6,1.4-1,2h1.8v0.8h-2.8v1.7h2.5
					v0.8h-2.5v1.8h3.1v0.8h-3.1v2.7h-0.9V-92h-3.1v-0.8h3.1v-1.8h-2.5v-0.8h2.5v-1.7H71.5z M74-98.3l-0.7,0.4
					c-0.4-0.7-0.8-1.3-1.2-1.9l0.7-0.3C73.3-99.6,73.7-99,74-98.3z"/>
				<path class="st6" d="M80.3-97.8c0,1.2-0.2,2.4-0.4,3.4l-0.7-0.2c0.2-1,0.4-2.1,0.4-3.3L80.3-97.8z M81.7-100.1v10.9h-0.8v-10.9
					H81.7z M87.1-100.2v0.8h2.8v0.7h-2.8v0.8h2.4v0.7h-2.4v0.8h3.1v0.7H83v-0.2l-0.5,0.1c-0.2-0.8-0.4-1.5-0.7-2.2l0.6-0.2
					c0.2,0.5,0.5,1.2,0.7,1.8v-0.1h3.2v-0.8h-2.4V-98h2.4v-0.8h-2.8v-0.7h2.8v-0.8L87.1-100.2L87.1-100.2z M84.8-89.2H84v-5.7h5.5
					v4.7c0,0.6-0.3,1-1,1h-0.9L87.2-90h0.9c0.3,0,0.4-0.2,0.4-0.4v-0.7h-3.8v1.9H84.8z M88.6-94.2h-3.8v0.9h3.8V-94.2z M84.8-91.8
					h3.8v-0.8h-3.8V-91.8z"/>
			</g>
		</g>
	</g>
	<g id="Textbasic15" transform="translate(548,188)">
		<rect x="6.7" y="-104.4" class="st10" width="80.1" height="20"/>
		<g transform="translate(0 0)">
			<g class="st7">
				<path class="st6" d="M9.8-92.1c-0.8,0.3-1.7,0.5-2.7,0.7L7-92.2c1.1-0.2,2-0.4,2.8-0.7V-92.1z M7.4-98.8v-0.8h3.8l-0.6,4.9h0.7
					c0,2.7-0.1,4.3-0.3,4.7c-0.2,0.4-0.7,0.6-1.5,0.6c-0.3,0-0.6,0-0.9,0l-0.2-0.8c0.4,0,0.7,0.1,0.9,0.1c0.6,0,0.9-0.2,1-0.6
					s0.2-1.5,0.2-3.3H7.4L8-98h0.8l-0.5,3.3h1.4l0.5-4.2L7.4-98.8L7.4-98.8z M11.7-95.4l-0.5-0.7c1.3-1,2.4-2.4,3.1-4.1h0.8
					c0.6,1.5,1.7,2.9,3.1,4l-0.5,0.7c-0.5-0.4-1-0.8-1.4-1.3v0.7h-3.4v-0.7C12.6-96.2,12.2-95.7,11.7-95.4z M15.5-90.4
					c0.5-1.3,0.9-2.9,1.2-4.7l0.8,0.2c-0.3,1.7-0.7,3.2-1.2,4.5h1.8v0.8h-6.6v-0.8H15.5z M13.7-91.4L13-91.2c-0.3-1.2-0.6-2.3-1-3.4
					l0.7-0.3C13.1-93.8,13.4-92.7,13.7-91.4z M14.8-99.3c-0.5,1-1,1.9-1.6,2.6h3.3C15.7-97.5,15.2-98.4,14.8-99.3z M15.4-91.9
					l-0.8,0.2c-0.2-1.1-0.5-2.2-0.9-3.2l0.7-0.2C14.9-94.2,15.2-93.1,15.4-91.9z"/>
				<path class="st6" d="M21.8-96.5v5.2c0.4-0.3,0.8-0.7,1.2-1.2l0.2,0.9c-0.7,0.7-1.4,1.3-2.2,1.8l-0.3-0.8
					c0.2-0.1,0.3-0.3,0.3-0.5v-4.7h-1.7v-0.8L21.8-96.5L21.8-96.5z M22.7-98.2l-0.6,0.6c-0.5-0.6-1.2-1.2-2-1.9l0.6-0.6
					C21.5-99.4,22.1-98.8,22.7-98.2z M23.3-98.8v-0.9H30v0.9h-2.5v3.4h2.3v0.8h-2.3v4.2h2.7v0.9h-7.3v-0.9h1.2v-6.4H25v6.4h1.7v-8.3
					L23.3-98.8L23.3-98.8z"/>
			</g>
		</g>
	</g>
	<g id="Textbasic16" transform="translate(277,114)">
		<rect x="6.3" y="-104.5" class="st10" width="80.1" height="20"/>
		<g transform="translate(0 0)">
			<g class="st7">
				<path class="st6" d="M9.5-92.2c-0.8,0.3-1.7,0.5-2.7,0.7l-0.1-0.8c1.1-0.2,2-0.4,2.8-0.7V-92.2z M7-98.9v-0.8h3.8l-0.6,4.9H11
					c0,2.7-0.1,4.3-0.3,4.7c-0.2,0.4-0.7,0.6-1.5,0.6c-0.3,0-0.6,0-0.9,0L8-90.2c0.4,0,0.7,0.1,0.9,0.1c0.6,0,0.9-0.2,1-0.6
					s0.2-1.5,0.2-3.3h-3l0.6-4.1h0.8L8-94.8h1.4L9.9-99L7-98.9L7-98.9z M11.4-95.5l-0.5-0.7c1.3-1,2.4-2.4,3.1-4.1h0.8
					c0.6,1.5,1.7,2.9,3.1,4l-0.5,0.7c-0.5-0.4-1-0.8-1.4-1.3v0.7h-3.4v-0.7C12.3-96.3,11.9-95.8,11.4-95.5z M15.2-90.5
					c0.5-1.3,0.9-2.9,1.2-4.7l0.8,0.2c-0.3,1.7-0.7,3.2-1.2,4.5h1.8v0.8h-6.6v-0.8H15.2z M13.4-91.5l-0.7,0.2
					c-0.3-1.2-0.6-2.3-1-3.4l0.7-0.3C12.8-93.9,13.1-92.8,13.4-91.5z M14.4-99.4c-0.5,1-1,1.9-1.6,2.6h3.3
					C15.4-97.6,14.8-98.5,14.4-99.4z M15.1-92l-0.8,0.2c-0.2-1.1-0.5-2.2-0.9-3.2l0.7-0.2C14.5-94.3,14.8-93.2,15.1-92z"/>
				<path class="st6" d="M21.5-96.6v5.2c0.4-0.3,0.8-0.7,1.2-1.2l0.2,0.9c-0.7,0.7-1.4,1.3-2.2,1.8l-0.3-0.8
					c0.2-0.1,0.3-0.3,0.3-0.5v-4.7H19v-0.8L21.5-96.6L21.5-96.6z M22.3-98.3l-0.6,0.6c-0.5-0.6-1.2-1.2-2-1.9l0.6-0.6
					C21.1-99.5,21.8-98.9,22.3-98.3z M23-98.9v-0.9h6.7v0.9h-2.5v3.4h2.3v0.8h-2.3v4.2h2.7v0.9h-7.3v-0.9h1.2v-6.4h0.8v6.4h1.7v-8.3
					L23-98.9L23-98.9z"/>
			</g>
		</g>
	</g>
	<g id="Textbasic17" transform="translate(277,269)">
		<rect x="6.3" y="-104.3" class="st10" width="80.1" height="20"/>
		<g transform="translate(0 0)">
			<g class="st7">
				<path class="st6" d="M9.5-92c-0.8,0.3-1.7,0.5-2.7,0.7l-0.1-0.8c1.1-0.2,2-0.4,2.8-0.7V-92z M7-98.7v-0.8h3.8l-0.6,4.9H11
					c0,2.7-0.1,4.3-0.3,4.7c-0.2,0.4-0.7,0.6-1.5,0.6c-0.3,0-0.6,0-0.9,0L8-90c0.5,0,0.8,0,0.9,0c0.6,0,0.9-0.2,1-0.6
					s0.2-1.5,0.2-3.3h-3L7.7-98h0.8L8-94.6h1.4l0.5-4.2L7-98.7L7-98.7z M11.4-95.3L10.9-96c1.3-1,2.4-2.4,3.1-4.1h0.8
					c0.6,1.5,1.7,2.9,3.1,4l-0.5,0.7c-0.5-0.4-1-0.8-1.4-1.3v0.7h-3.4v-0.7C12.3-96.1,11.9-95.6,11.4-95.3z M15.2-90.3
					c0.5-1.3,0.9-2.9,1.2-4.7l0.8,0.2c-0.3,1.7-0.7,3.2-1.2,4.5h1.8v0.8h-6.6v-0.8H15.2z M13.4-91.3l-0.7,0.2
					c-0.3-1.2-0.6-2.3-1-3.4l0.7-0.3C12.8-93.7,13.1-92.6,13.4-91.3z M14.4-99.2c-0.5,1-1,1.9-1.6,2.6h3.3
					C15.4-97.4,14.8-98.3,14.4-99.2z M15.1-91.8l-0.8,0.2c-0.2-1.1-0.5-2.2-0.9-3.2l0.7-0.2C14.5-94.1,14.8-93,15.1-91.8z"/>
				<path class="st6" d="M21.5-96.4v5.2c0.4-0.3,0.8-0.7,1.2-1.2l0.2,0.9c-0.7,0.7-1.4,1.3-2.2,1.8l-0.3-0.8
					c0.2-0.1,0.3-0.3,0.3-0.5v-4.7H19v-0.8L21.5-96.4L21.5-96.4z M22.3-98.1l-0.6,0.6c-0.5-0.6-1.2-1.2-2-1.9l0.6-0.6
					C21.1-99.3,21.8-98.7,22.3-98.1z M23-98.7v-0.9h6.7v0.9h-2.5v3.4h2.3v0.8h-2.3v4.2h2.7v0.9h-7.3v-0.9h1.2v-6.4h0.8v6.4h1.7v-8.3
					L23-98.7L23-98.7z"/>
			</g>
		</g>
	</g>
</g>
</svg>
