<?xml version="1.0" encoding="utf-8"?>
<!-- Generator: Adobe Illustrator 22.1.0, SVG Export Plug-In . SVG Version: 6.00 Build 0)  -->
<svg version="1.1" id="svgwrapper_svg" xmlns="http://www.w3.org/2000/svg" xmlns:xlink="http://www.w3.org/1999/xlink" x="0px"
	 y="0px" width="830px" height="561.7px" viewBox="0 0 830 561.7" style="enable-background:new 0 0 830 561.7;"
	 xml:space="preserve">
<style type="text/css">
	.st0{fill:none;stroke:#999999;}
	.st1{fill:#888888;}
	.st2{fill:none;stroke:#FF0000;stroke-width:15;stroke-opacity:0;}
	.st3{opacity:0;fill:#FF0000;}
	.st4{opacity:0.6;fill:#BBBBBB;enable-background:new    ;}
	.st5{fill:#FFFFFF;}
	.st6{fill:#E5E5E5;}
	.st7{enable-background:new    ;}
	.st8{fill:#444444;}
	.st9{fill:#CEE3FF;}
	.st10{fill:#2277DA;}
	.st11{fill:#00A4FF;}
	.st12{fill:none;stroke:#878787;stroke-miterlimit:10;}
	.st13{fill:#BABABA;}
</style>
<path class="st0" d="M-344.6-1415.3L-344.6-1415.3"/>
<g id="assistantgroup" transform="translate(0,0)">
</g>
<g id="Link14_1_" transform="translate(0,0)">
	<polygon class="st1" points="224.9,438.4 224.9,439.4 174.4,439.4 174.4,259.8 175.4,259.8 175.4,438.4 	"/>
	<g transform="translate(0, 0.5)">
		<polygon class="st1" points="220.4,442.9 226.4,438.4 220.4,433.9 		"/>
	</g>
	<path class="st2" d="M174.9,284.9"/>
	<rect x="167.4" y="284.9" class="st3" width="15" height="154"/>
	<rect x="174.9" y="431.4" class="st3" width="50" height="15"/>
</g>
<g id="Link16_1_" transform="translate(0,0)">
	<polygon class="st1" points="224.9,156.4 224.9,157.4 175.4,157.4 175.4,298.3 139.9,298.3 139.9,297.3 174.4,297.3 174.4,156.4 	
		"/>
	<g transform="translate(0, 0.5)">
		<polygon class="st1" points="220.4,160.9 226.4,156.4 220.4,151.9 		"/>
	</g>
	<rect x="167.4" y="156.9" class="st3" width="15" height="111"/>
	<path class="st2" d="M224.9,156.9"/>
</g>
<g id="ShadowBasicRect6_2_" transform="translate(485,236)">
	<rect x="-465.4" y="37.8" class="st4" width="86.4" height="50"/>
	<g>
		<rect x="-467.4" y="35.8" class="st5" width="86.4" height="50"/>
		<path class="st6" d="M-380.5,86.3h-87.4v-51h87.4V86.3z M-466.9,85.3h85.4v-49h-85.4V85.3z"/>
	</g>
	<g transform="translate(20 9)">
		<g class="st7">
			<path class="st8" d="M-464.3,58l-0.2-1c0.4,0,0.7,0.1,1.1,0.1c0.4,0,0.6-0.2,0.6-0.5v-3.4c-0.6,0.2-1.1,0.4-1.7,0.6l-0.3-1
				c0.7-0.2,1.3-0.4,2-0.6V49h-1.7v-1h1.7v-2.6h1V48h1.2v1h-1.2v2.7c0.4-0.2,0.8-0.4,1.2-0.6v1c-0.4,0.2-0.8,0.4-1.2,0.6v4.1
				c0,0.8-0.4,1.2-1.2,1.2H-464.3z M-456.4,51.2c-0.1,0.4-0.3,0.7-0.5,1.1h4.8v1h-1.5c-0.2,1-0.6,1.9-1.3,2.6c1,0.4,1.9,0.9,2.8,1.4
				l-0.5,0.8c-0.8-0.5-1.8-1-2.9-1.6c-0.9,0.7-2.4,1.2-4.4,1.6l-0.4-0.9c1.6-0.3,2.9-0.7,3.8-1.2c-0.9-0.4-1.8-0.8-2.7-1.2
				c0.4-0.6,0.7-1.1,1-1.7h-1.9v-1h2.4c0.2-0.4,0.4-0.8,0.5-1.2L-456.4,51.2z M-457,49.8h1.4c0.4-0.7,0.7-1.4,1-2.2l1,0.3
				c-0.3,0.7-0.6,1.3-0.9,1.9h2.3v1h-7.8v-1h2.1c-0.3-0.6-0.6-1.2-0.9-1.7l0.8-0.4C-457.6,48.3-457.3,49-457,49.8z M-455.6,46.6h3.1
				v0.9h-7.2v-0.9h3.1c-0.2-0.4-0.3-0.8-0.5-1.2l1.1-0.2C-456,45.6-455.8,46.1-455.6,46.6z M-457.4,53.3c-0.3,0.4-0.5,0.9-0.8,1.2
				c0.8,0.3,1.6,0.6,2.4,1c0.6-0.6,1.1-1.3,1.3-2.2H-457.4z"/>
			<path class="st8" d="M-447.3,45.9l0.8-0.5c1.2,0.9,2.3,2.5,3.2,4.7c1.3,3.3,3.1,5.7,5.3,7.1l-0.6,0.8c-2.3-1.4-4.1-3.9-5.6-7.6
				c-0.1-0.2-0.2-0.4-0.2-0.6c-0.9,3.6-2.9,6.3-5.8,8.2l-0.6-0.9c3-2,4.9-4.8,5.8-8.5C-445.6,47.4-446.4,46.5-447.3,45.9z"/>
			<path class="st8" d="M-434.2,50.5c0,2.9-0.6,5.4-1.7,7.5l-0.7-0.7c1-1.8,1.5-4.1,1.5-6.9v-4.6h10.2v3.5h-9.2V50.5z M-434.2,46.8
				v1.6h8.2v-1.6H-434.2z M-424.3,53v0.9h-5.4c-0.9,1.4-1.6,2.4-2.3,3c1.8-0.1,3.7-0.3,5.4-0.6c-0.4-0.5-0.8-0.9-1.2-1.4l0.7-0.5
				c1.1,1.2,2,2.3,2.7,3.2l-0.8,0.6c-0.2-0.4-0.5-0.7-0.8-1.1c-2.2,0.3-4.7,0.5-7.3,0.7l-0.2-0.9c0.1,0,0.2-0.1,0.2-0.1
				c0.6-0.4,1.4-1.3,2.4-2.9h-3.1V53H-424.3z M-425.2,50.7v0.9h-7.6v-0.9H-425.2z"/>
		</g>
	</g>
</g>
<g>
	<polygon class="st9" points="624.8,153.6 242.6,152.7 242.2,50 624.4,50.9 	"/>
	<g>
		<g>
			<path class="st10" d="M257.7,65.8c0.1-0.5,0.2-0.9,0.4-1.4l-3.3,0l0-1.2l3.6,0c0.1-0.5,0.2-1.1,0.3-1.6l1.4,0.1
				c-0.1,0.5-0.2,1-0.3,1.5l5.9,0l0,1.2l-6.1,0c-0.1,0.5-0.2,1-0.3,1.4l7.3,0l0,1.3l-7.6,0c-0.2,0.6-0.3,1.1-0.5,1.6l6.5,0l0,1.1
				c-0.6,0.9-1.6,1.9-3,2.9c0.8,0.3,1.5,0.6,2.2,0.9l-0.7,1.1c-2.1-1-4.2-1.8-6.4-2.3l0.7-1c1,0.3,1.9,0.5,2.8,0.8
				c1.2-0.8,2.1-1.5,2.8-2.3l-6.8,0c0.3-0.9,0.7-1.8,0.9-2.8l-3.6,0l0-1.3L257.7,65.8z"/>
			<path class="st10" d="M268.6,74.5l-1-0.9c0.8-1.2,1.3-2.7,1.3-4.6l0-6.9l10.7,0l0,10.5c0,1-0.6,1.6-1.6,1.6l-1.6,0l-0.3-1.3
				c0.5,0,1.1,0.1,1.5,0.1c0.4,0,0.7-0.3,0.7-0.8l0-2.1l-3.5,0l0,4l-1.3,0l0-4l-3.3,0C270,71.9,269.5,73.4,268.6,74.5z M270.2,68.9
				l3.2,0l0-2.1l-3.2,0L270.2,68.9z M270.3,63.4l0,2.1l3.2,0l0-2.1L270.3,63.4z M278.3,66.8l-3.5,0l0,2.1l3.5,0L278.3,66.8z
				 M278.3,63.5l-3.5,0l0,2.1l3.5,0L278.3,63.5z"/>
			<path class="st10" d="M282.3,71.1l-0.5-1.5c1.3-1.6,2.3-3.3,2.8-5.1l1.3,0.3c-0.2,0.8-0.5,1.5-0.9,2.3l0,7.5l-1.3,0l0-5.3
				C283.3,70,282.8,70.6,282.3,71.1z M294,65l-1.4,0l0-0.9l-9,0l0,1.7l-1.3,0l0-3l5.2,0c-0.2-0.3-0.4-0.7-0.6-0.9l1.4-0.2
				c0.2,0.4,0.4,0.7,0.6,1.2l5.1,0L294,65z M293.3,74.6l-1.3,0l0-0.4l-4.1,0l0,0.5l-1.3,0l0-7l2.2,0c0.1-0.3,0.1-0.6,0.2-1l-2.9,0
				l0-1.2l7.6,0l0,1.2l-3.3,0c-0.1,0.3-0.1,0.7-0.2,1l3.1,0L293.3,74.6z M292,73l0-1.6l-4.1,0l0,1.6L292,73z M292.1,70.2l0-1.5
				l-4.1,0l0,1.5L292.1,70.2z"/>
			<path class="st10" d="M296.3,65.3l0-1.3l5.1,0c-0.2-0.7-0.5-1.3-0.8-2l1.3-0.3c0.3,0.8,0.6,1.6,0.8,2.3l0,0l5.2,0l0,1.3l-5.1,0
				l0,2.9l4.4,0l0,1.2l-4.4,0l0,3.4l5.6,0l0,1.3l-12.5,0l0-1.3l5.6,0l0-3.4l-4.4,0l0-1.2l4.4,0l0-2.9L296.3,65.3z"/>
			<path class="st10" d="M311.8,64.4l0-2.6l1.3,0l0,2.6l1.6,0l0,1.3l-1.6,0l0,0.6c0.6,0.6,1.3,1.3,1.9,2.1l-0.8,1.2
				c-0.4-0.8-0.8-1.4-1.1-1.9l0,7l-1.3,0l0-6.6c-0.5,1.2-1,2.4-1.7,3.4l-0.6-1.4c1-1.3,1.7-2.7,2.2-4.3l-1.9,0l0-1.3L311.8,64.4z
				 M315.2,71.2c0.2-0.8,0.3-2,0.3-3.5l0-5.3l4.8,0l0,10.6c0,0.2,0.1,0.2,0.2,0.2h0.4c0.1,0,0.2,0,0.3-0.1c0.1-0.1,0.1-0.2,0.1-0.3
				c0.1-0.2,0.1-1,0.1-2.5l1.2,0.4c0,1.1,0,1.8-0.1,2.4c-0.1,0.5-0.2,0.9-0.4,1.1c-0.2,0.2-0.6,0.3-1.1,0.3l-0.6,0
				c-1,0-1.5-0.5-1.5-1.3l0-9.5l-2.1,0l0,4.1c0,1.6-0.1,2.9-0.4,4c-0.2,1.1-0.7,2.2-1.4,3.2l-1.1-1C314.5,73,314.9,72.1,315.2,71.2z
				"/>
			<path class="st10" d="M327.5,63.3l0,10l-1.5,0l0-8.2c-0.6,0.6-1.4,1-2.3,1.3l0-1.5c0.4-0.1,0.9-0.3,1.4-0.6
				c0.5-0.3,0.9-0.6,1.3-1L327.5,63.3z"/>
		</g>
	</g>
</g>
<g id="RectEndPoint8_34_" transform="translate(380,418)">
	<rect x="-121.3" y="-328.4" class="st4" width="104" height="50"/>
	<g>
		<rect x="-123.3" y="-330.4" class="st5" width="104" height="50"/>
		<g>
			<g>
				<path class="st8" d="M-62.7-308.7c0.7,0.6,1.2,1.4,1.3,2.4h-1.5c-0.2-0.7-0.5-1.2-1-1.5c-0.5-0.3-1.1-0.5-1.8-0.5
					c-1.1,0-1.9,0.4-2.4,1.1c-0.5,0.7-0.8,1.6-0.8,2.8c0,1.2,0.3,2.1,0.8,2.8c0.5,0.7,1.4,1.1,2.5,1.1c0.7,0,1.3-0.2,1.8-0.5
					c0.5-0.4,0.9-1,1.1-1.8h1.5c-0.2,1.2-0.7,2.1-1.6,2.7c-0.8,0.6-1.7,0.9-2.8,0.9c-1.6,0-2.9-0.5-3.7-1.6
					c-0.7-0.9-1.1-2.1-1.1-3.6c0-1.5,0.4-2.7,1.1-3.6c0.8-1.1,2-1.6,3.6-1.6C-64.5-309.6-63.5-309.3-62.7-308.7z"/>
				<path class="st8" d="M-59-309.4l2.8,8.3h0l2.8-8.3h1.7l-3.6,10h-1.8l-3.6-10H-59z"/>
				<path class="st8" d="M-48.8-309.4l3.5,8h0l3.5-8h1.8v10h-1.5v-7.1h-0.1l-3.1,7.1h-1.3l-3.1-7.1h-0.1v7.1h-1.5v-10H-48.8z"/>
				<path class="st8" d="M-34.6-309.4v10h-1.5v-8.2c-0.6,0.6-1.4,1-2.3,1.3v-1.5c0.4-0.1,0.9-0.3,1.4-0.6c0.5-0.3,0.9-0.6,1.3-1
					H-34.6z"/>
			</g>
		</g>
		<path class="st6" d="M-18.8-279.9h-105v-51h105V-279.9z M-122.8-280.9h103v-49h-103V-280.9z"/>
	</g>
	<g transform="translate(20 9)">
		<g>
			<title  xmlns="http://www.w3.org/2000/svg">Product Icons【32】</title>
			<g id="_编组__30_">
				<g id="_编组_2_29_">
					<path id="_复合路径__29_" class="st11" d="M-113.3-301.4c-7.2,0-13-5.8-13-13c0-7.2,5.8-13,13-13c6.4,0,11.9,4.7,12.9,11h2
						c-1.1-8.2-8.7-14-16.9-12.9c-8.2,1.1-14,8.7-12.9,16.9c1.1,8.2,8.7,14,16.9,12.9c6.7-0.9,12-6.2,12.9-12.9h-2
						C-101.4-306.1-106.8-301.4-113.3-301.4z M-106.3-318.4l-7-4l-7,4v8l3.2,1.8c0.2-0.6,0.5-1.2,1-1.7l-2.2-1.3v-3.7l5,2.9l5-2.9
						v3.7l-4.1,2.4c-1-0.5-2.2-0.1-2.7,0.9c-0.5,1-0.1,2.2,0.9,2.7c1,0.5,2.2,0.1,2.7-0.9c0.1-0.3,0.2-0.6,0.2-0.9c0,0,0-0.1,0-0.1
						l5-2.9V-318.4z M-113.3-314.7l-4.7-2.7l4.7-2.7l4.7,2.7L-113.3-314.7z"/>
				</g>
			</g>
		</g>
	</g>
</g>
<g id="RectEndPoint8_33_" transform="translate(380,418)">
	<rect x="0.7" y="-328.4" class="st4" width="104" height="50"/>
	<g>
		<rect x="-1.3" y="-330.4" class="st5" width="104" height="50"/>
		<g>
			<g>
				<path class="st8" d="M59.3-308.7c0.7,0.6,1.2,1.4,1.3,2.4h-1.5c-0.2-0.7-0.5-1.2-1-1.5c-0.5-0.3-1.1-0.5-1.8-0.5
					c-1.1,0-1.9,0.4-2.4,1.1c-0.5,0.7-0.8,1.6-0.8,2.8c0,1.2,0.3,2.1,0.8,2.8c0.5,0.7,1.4,1.1,2.5,1.1c0.7,0,1.3-0.2,1.8-0.5
					c0.5-0.4,0.9-1,1.1-1.8h1.5c-0.2,1.2-0.7,2.1-1.6,2.7c-0.8,0.6-1.7,0.9-2.8,0.9c-1.6,0-2.9-0.5-3.7-1.6
					c-0.7-0.9-1.1-2.1-1.1-3.6c0-1.5,0.4-2.7,1.1-3.6c0.8-1.1,2-1.6,3.6-1.6C57.5-309.6,58.5-309.3,59.3-308.7z"/>
				<path class="st8" d="M63-309.4l2.8,8.3h0l2.8-8.3h1.7l-3.6,10h-1.8l-3.6-10H63z"/>
				<path class="st8" d="M73.2-309.4l3.5,8h0l3.5-8H82v10h-1.5v-7.1h-0.1l-3.1,7.1h-1.3l-3.1-7.1h-0.1v7.1h-1.5v-10H73.2z"/>
				<path class="st8" d="M89.7-308.8c0.6,0.6,0.9,1.3,0.9,2.2c0,0.9-0.3,1.7-1,2.4c-0.4,0.4-1.1,0.9-2.1,1.6
					c-1.1,0.7-1.7,1.3-1.9,1.9h5v1.3h-6.9c0-1,0.3-1.9,1-2.6c0.4-0.4,1.1-1,2.3-1.8c0.7-0.5,1.1-0.9,1.4-1.1
					c0.4-0.5,0.7-1.1,0.7-1.6c0-0.6-0.2-1-0.5-1.3c-0.3-0.3-0.8-0.4-1.4-0.4c-0.6,0-1.1,0.2-1.4,0.6c-0.3,0.4-0.5,1-0.5,1.8h-1.5
					c0-1.1,0.3-2,1-2.7c0.6-0.7,1.5-1.1,2.6-1.1C88.3-309.6,89.1-309.3,89.7-308.8z"/>
			</g>
		</g>
		<path class="st6" d="M103.2-279.9h-105v-51h105V-279.9z M-0.8-280.9h103v-49h-103V-280.9z"/>
	</g>
	<g transform="translate(20 9)">
		<g>
			<title  xmlns="http://www.w3.org/2000/svg">Product Icons【32】</title>
			<g id="_编组__29_">
				<g id="_编组_2_28_">
					<path id="_复合路径__28_" class="st11" d="M8.7-301.4c-7.2,0-13-5.8-13-13c0-7.2,5.8-13,13-13c6.4,0,11.9,4.7,12.9,11h2
						c-1.1-8.2-8.7-14-16.9-12.9c-8.2,1.1-14,8.7-12.9,16.9s8.7,14,16.9,12.9c6.7-0.9,12-6.2,12.9-12.9h-2
						C20.6-306.1,15.2-301.4,8.7-301.4z M15.7-318.4l-7-4l-7,4v8l3.2,1.8c0.2-0.6,0.5-1.2,1-1.7l-2.2-1.3v-3.7l5,2.9l5-2.9v3.7
						l-4.1,2.4c-1-0.5-2.2-0.1-2.7,0.9c-0.5,1-0.1,2.2,0.9,2.7c1,0.5,2.2,0.1,2.7-0.9c0.1-0.3,0.2-0.6,0.2-0.9c0,0,0-0.1,0-0.1
						l5-2.9V-318.4z M8.7-314.7L4-317.4l4.7-2.7l4.7,2.7L8.7-314.7z"/>
				</g>
			</g>
		</g>
	</g>
</g>
<g id="RectEndPoint8_32_" transform="translate(380,418)">
	<rect x="124.9" y="-328.4" class="st4" width="104" height="50"/>
	<g>
		<rect x="122.9" y="-330.4" class="st5" width="104" height="50"/>
		<g>
			<g>
				<path class="st8" d="M183.5-308.7c0.7,0.6,1.2,1.4,1.3,2.4h-1.5c-0.2-0.7-0.5-1.2-1-1.5c-0.5-0.3-1.1-0.5-1.8-0.5
					c-1.1,0-1.9,0.4-2.4,1.1c-0.5,0.7-0.8,1.6-0.8,2.8c0,1.2,0.3,2.1,0.8,2.8c0.5,0.7,1.4,1.1,2.5,1.1c0.7,0,1.3-0.2,1.8-0.5
					c0.5-0.4,0.9-1,1.1-1.8h1.5c-0.2,1.2-0.7,2.1-1.6,2.7c-0.8,0.6-1.7,0.9-2.8,0.9c-1.6,0-2.9-0.5-3.7-1.6
					c-0.7-0.9-1.1-2.1-1.1-3.6c0-1.5,0.4-2.7,1.1-3.6c0.8-1.1,2-1.6,3.6-1.6C181.7-309.6,182.7-309.3,183.5-308.7z"/>
				<path class="st8" d="M187.2-309.4l2.8,8.3h0l2.8-8.3h1.7l-3.6,10h-1.8l-3.6-10H187.2z"/>
				<path class="st8" d="M197.4-309.4l3.5,8h0l3.5-8h1.8v10h-1.5v-7.1h-0.1l-3.1,7.1h-1.3l-3.1-7.1h-0.1v7.1h-1.5v-10H197.4z"/>
				<path class="st8" d="M213.9-308.9c0.6,0.5,0.9,1.2,0.9,2c0,1.1-0.6,1.8-1.7,2.2c0.6,0.2,1,0.5,1.3,0.8c0.3,0.4,0.5,0.9,0.5,1.5
					c0,0.9-0.3,1.7-1,2.3c-0.7,0.6-1.6,0.9-2.6,0.9c-1,0-1.8-0.3-2.5-0.8c-0.7-0.6-1.1-1.4-1.2-2.6h1.5c0,0.7,0.2,1.2,0.7,1.6
					c0.4,0.3,0.8,0.5,1.4,0.5c0.6,0,1.2-0.2,1.6-0.6c0.3-0.3,0.5-0.7,0.5-1.2c0-0.6-0.2-1-0.5-1.3c-0.3-0.3-0.8-0.4-1.5-0.4h-0.7
					v-1.1h0.7c0.6,0,1.1-0.1,1.4-0.4c0.3-0.3,0.5-0.7,0.5-1.2s-0.2-0.9-0.4-1.1c-0.3-0.3-0.8-0.4-1.4-0.4c-0.6,0-1.1,0.2-1.4,0.5
					c-0.3,0.3-0.5,0.8-0.6,1.4H208c0.1-1,0.4-1.8,1.1-2.3c0.6-0.6,1.4-0.8,2.4-0.8C212.5-309.6,213.3-309.3,213.9-308.9z"/>
			</g>
		</g>
		<path class="st6" d="M227.4-279.9h-105v-51h105V-279.9z M123.4-280.9h103v-49h-103V-280.9z"/>
	</g>
	<g transform="translate(20 9)">
		<g>
			<title  xmlns="http://www.w3.org/2000/svg">Product Icons【32】</title>
			<g id="_编组__28_">
				<g id="_编组_2_27_">
					<path id="_复合路径__27_" class="st11" d="M132.9-301.4c-7.2,0-13-5.8-13-13c0-7.2,5.8-13,13-13c6.4,0,11.9,4.7,12.9,11h2
						c-1.1-8.2-8.7-14-16.9-12.9c-8.2,1.1-14,8.7-12.9,16.9s8.7,14,16.9,12.9c6.7-0.9,12-6.2,12.9-12.9h-2
						C144.8-306.1,139.4-301.4,132.9-301.4z M139.9-318.4l-7-4l-7,4v8l3.2,1.8c0.2-0.6,0.5-1.2,1-1.7l-2.2-1.3v-3.7l5,2.9l5-2.9v3.7
						l-4.1,2.4c-1-0.5-2.2-0.1-2.7,0.9c-0.5,1-0.1,2.2,0.9,2.7c1,0.5,2.2,0.1,2.7-0.9c0.1-0.3,0.2-0.6,0.2-0.9c0,0,0-0.1,0-0.1
						l5-2.9V-318.4z M132.9-314.7l-4.7-2.7l4.7-2.7l4.7,2.7L132.9-314.7z"/>
				</g>
			</g>
		</g>
	</g>
</g>
<g>
	<polygon class="st9" points="624.8,267.8 242.6,266.9 242.2,164.2 624.4,165.1 	"/>
	<g>
		<g>
			<path class="st10" d="M257.7,180c0.1-0.5,0.2-0.9,0.4-1.4l-3.3,0l0-1.2l3.6,0c0.1-0.5,0.2-1.1,0.3-1.6l1.4,0.1
				c-0.1,0.5-0.2,1-0.3,1.5l5.9,0l0,1.2l-6.1,0c-0.1,0.5-0.2,1-0.3,1.4l7.3,0l0,1.3l-7.6,0c-0.2,0.6-0.3,1.1-0.5,1.6l6.5,0l0,1.1
				c-0.6,1-1.6,1.9-3,2.9c0.8,0.3,1.5,0.6,2.2,0.9l-0.7,1.1c-2.1-1-4.2-1.8-6.4-2.3l0.7-1c1,0.3,1.9,0.5,2.8,0.8
				c1.2-0.8,2.1-1.5,2.8-2.3l-6.8,0c0.3-0.9,0.7-1.8,0.9-2.8l-3.6,0l0-1.3L257.7,180z"/>
			<path class="st10" d="M268.6,188.7l-1-0.9c0.8-1.2,1.3-2.7,1.3-4.6l0-6.9l10.7,0l0,10.5c0,1-0.6,1.6-1.6,1.6l-1.6,0l-0.3-1.3
				c0.5,0,1.1,0.1,1.5,0.1c0.4,0,0.7-0.3,0.7-0.8l0-2.1l-3.5,0l0,4l-1.3,0l0-4l-3.3,0C270,186.1,269.5,187.6,268.6,188.7z
				 M270.2,183.1l3.2,0l0-2.1l-3.2,0L270.2,183.1z M270.3,177.6l0,2.1l3.2,0l0-2.1L270.3,177.6z M278.3,181l-3.5,0l0,2.1l3.5,0
				L278.3,181z M278.3,177.7l-3.5,0l0,2.1l3.5,0L278.3,177.7z"/>
			<path class="st10" d="M282.3,185.3l-0.5-1.5c1.3-1.6,2.3-3.3,2.8-5.1l1.3,0.3c-0.2,0.8-0.5,1.5-0.9,2.3l0,7.5l-1.3,0l0-5.3
				C283.3,184.1,282.8,184.7,282.3,185.3z M294,179.2l-1.4,0l0-0.9l-9,0l0,1.7l-1.3,0l0-3l5.2,0c-0.2-0.3-0.4-0.7-0.6-0.9l1.4-0.2
				c0.2,0.4,0.4,0.7,0.6,1.2l5.1,0L294,179.2z M293.3,188.8l-1.3,0l0-0.4l-4.1,0l0,0.5l-1.3,0l0-7l2.2,0c0.1-0.3,0.1-0.6,0.2-1
				l-2.9,0l0-1.2l7.6,0l0,1.2l-3.3,0c-0.1,0.3-0.1,0.7-0.2,1l3.1,0L293.3,188.8z M292,187.2l0-1.6l-4.1,0l0,1.6L292,187.2z
				 M292.1,184.4l0-1.5l-4.1,0l0,1.5L292.1,184.4z"/>
			<path class="st10" d="M296.3,179.5l0-1.3l5.1,0c-0.2-0.7-0.5-1.3-0.8-2l1.3-0.3c0.3,0.8,0.6,1.6,0.8,2.3l0,0l5.2,0l0,1.3l-5.1,0
				l0,2.9l4.4,0l0,1.2l-4.4,0l0,3.4l5.6,0l0,1.3l-12.5,0l0-1.3l5.6,0l0-3.4l-4.4,0l0-1.2l4.4,0l0-2.9L296.3,179.5z"/>
			<path class="st10" d="M311.8,178.6l0-2.6l1.3,0l0,2.6l1.6,0l0,1.3l-1.6,0l0,0.6c0.6,0.6,1.3,1.3,1.9,2.1l-0.8,1.2
				c-0.4-0.8-0.8-1.4-1.1-1.9l0,7l-1.3,0l0-6.6c-0.5,1.2-1,2.4-1.7,3.4l-0.6-1.4c1-1.3,1.7-2.7,2.2-4.3l-1.9,0l0-1.3L311.8,178.6z
				 M315.2,185.4c0.2-0.8,0.3-2,0.3-3.5l0-5.3l4.8,0l0,10.6c0,0.2,0.1,0.2,0.2,0.2l0.4,0c0.1,0,0.2,0,0.3-0.1
				c0.1-0.1,0.1-0.2,0.1-0.3c0.1-0.2,0.1-1,0.1-2.5l1.2,0.4c0,1.1,0,1.8-0.1,2.4c-0.1,0.5-0.2,0.9-0.4,1.1c-0.2,0.2-0.6,0.3-1.1,0.3
				l-0.6,0c-1,0-1.5-0.5-1.5-1.3l0-9.5l-2.1,0l0,4.1c0,1.6-0.1,2.9-0.4,4c-0.2,1.1-0.7,2.2-1.4,3.2l-1.1-1
				C314.5,187.2,314.9,186.3,315.2,185.4z"/>
			<path class="st10" d="M329.8,178.2c0.6,0.6,0.9,1.3,0.9,2.2c0,0.9-0.3,1.7-1,2.4c-0.4,0.4-1.1,0.9-2.1,1.6
				c-1.1,0.7-1.7,1.3-1.9,1.9l5,0l0,1.3l-6.9,0c0-1,0.3-1.9,1-2.6c0.4-0.4,1.1-1,2.3-1.8c0.7-0.5,1.2-0.9,1.4-1.1
				c0.4-0.5,0.7-1,0.7-1.6c0-0.6-0.2-1-0.5-1.3s-0.8-0.4-1.4-0.4c-0.6,0-1.1,0.2-1.4,0.6c-0.3,0.4-0.5,1-0.5,1.8l-1.5,0
				c0-1.1,0.3-2,1-2.7c0.6-0.7,1.5-1.1,2.6-1.1C328.4,177.3,329.2,177.6,329.8,178.2z"/>
		</g>
	</g>
</g>
<g id="RectEndPoint8_31_" transform="translate(380,418)">
	<rect x="-121.3" y="-214.2" class="st4" width="104" height="50"/>
	<g>
		<rect x="-123.3" y="-216.2" class="st5" width="104" height="50"/>
		<g>
			<g>
				<path class="st8" d="M-62.7-194.5c0.7,0.6,1.2,1.4,1.3,2.4h-1.5c-0.2-0.7-0.5-1.2-1-1.5c-0.5-0.3-1.1-0.5-1.8-0.5
					c-1.1,0-1.9,0.4-2.4,1.1c-0.5,0.7-0.8,1.6-0.8,2.8c0,1.2,0.3,2.1,0.8,2.8c0.5,0.7,1.4,1.1,2.5,1.1c0.7,0,1.3-0.2,1.8-0.5
					c0.5-0.4,0.9-1,1.1-1.8h1.5c-0.2,1.2-0.7,2.1-1.6,2.7c-0.8,0.6-1.7,0.9-2.8,0.9c-1.6,0-2.9-0.5-3.7-1.6
					c-0.7-0.9-1.1-2.1-1.1-3.6c0-1.5,0.4-2.7,1.1-3.6c0.8-1.1,2-1.6,3.6-1.6C-64.5-195.4-63.5-195.1-62.7-194.5z"/>
				<path class="st8" d="M-59-195.2l2.8,8.3h0l2.8-8.3h1.7l-3.6,10h-1.8l-3.6-10H-59z"/>
				<path class="st8" d="M-48.8-195.2l3.5,8h0l3.5-8h1.8v10h-1.5v-7.1h-0.1l-3.1,7.1h-1.3l-3.1-7.1h-0.1v7.1h-1.5v-10H-48.8z"/>
				<path class="st8" d="M-34.6-195.2v10h-1.5v-8.2c-0.6,0.6-1.4,1-2.3,1.3v-1.5c0.4-0.1,0.9-0.3,1.4-0.6c0.5-0.3,0.9-0.6,1.3-1
					H-34.6z"/>
			</g>
		</g>
		<path class="st6" d="M-18.8-165.7h-105v-51h105V-165.7z M-122.8-166.7h103v-49h-103V-166.7z"/>
	</g>
	<g transform="translate(20 9)">
		<g>
			<title  xmlns="http://www.w3.org/2000/svg">Product Icons【32】</title>
			<g id="_编组__27_">
				<g id="_编组_2_26_">
					<path id="_复合路径__26_" class="st11" d="M-113.3-187.2c-7.2,0-13-5.8-13-13s5.8-13,13-13c6.4,0,11.9,4.7,12.9,11h2
						c-1.1-8.2-8.7-14-16.9-12.9c-8.2,1.1-14,8.7-12.9,16.9c1.1,8.2,8.7,14,16.9,12.9c6.7-0.9,12-6.2,12.9-12.9h-2
						C-101.4-191.9-106.8-187.2-113.3-187.2z M-106.3-204.2l-7-4l-7,4v8l3.2,1.8c0.2-0.6,0.5-1.2,1-1.7l-2.2-1.3v-3.7l5,2.9l5-2.9
						v3.7l-4.1,2.4c-1-0.5-2.2-0.1-2.7,0.9s-0.1,2.2,0.9,2.7s2.2,0.1,2.7-0.9c0.1-0.3,0.2-0.6,0.2-0.9c0,0,0-0.1,0-0.1l5-2.9V-204.2
						z M-113.3-200.5l-4.7-2.7l4.7-2.7l4.7,2.7L-113.3-200.5z"/>
				</g>
			</g>
		</g>
	</g>
</g>
<g id="RectEndPoint8_30_" transform="translate(380,418)">
	<rect x="0.7" y="-214.2" class="st4" width="104" height="50"/>
	<g>
		<rect x="-1.3" y="-216.2" class="st5" width="104" height="50"/>
		<g>
			<g>
				<path class="st8" d="M59.3-194.5c0.7,0.6,1.2,1.4,1.3,2.4h-1.5c-0.2-0.7-0.5-1.2-1-1.5c-0.5-0.3-1.1-0.5-1.8-0.5
					c-1.1,0-1.9,0.4-2.4,1.1c-0.5,0.7-0.8,1.6-0.8,2.8c0,1.2,0.3,2.1,0.8,2.8c0.5,0.7,1.4,1.1,2.5,1.1c0.7,0,1.3-0.2,1.8-0.5
					c0.5-0.4,0.9-1,1.1-1.8h1.5c-0.2,1.2-0.7,2.1-1.6,2.7c-0.8,0.6-1.7,0.9-2.8,0.9c-1.6,0-2.9-0.5-3.7-1.6
					c-0.7-0.9-1.1-2.1-1.1-3.6c0-1.5,0.4-2.7,1.1-3.6c0.8-1.1,2-1.6,3.6-1.6C57.5-195.4,58.5-195.1,59.3-194.5z"/>
				<path class="st8" d="M63-195.2l2.8,8.3h0l2.8-8.3h1.7l-3.6,10h-1.8l-3.6-10H63z"/>
				<path class="st8" d="M73.2-195.2l3.5,8h0l3.5-8H82v10h-1.5v-7.1h-0.1l-3.1,7.1h-1.3l-3.1-7.1h-0.1v7.1h-1.5v-10H73.2z"/>
				<path class="st8" d="M89.7-194.6c0.6,0.6,0.9,1.3,0.9,2.2c0,0.9-0.3,1.7-1,2.4c-0.4,0.4-1.1,0.9-2.1,1.6
					c-1.1,0.7-1.7,1.3-1.9,1.9h5v1.3h-6.9c0-1,0.3-1.9,1-2.6c0.4-0.4,1.1-1,2.3-1.8c0.7-0.5,1.1-0.9,1.4-1.1
					c0.4-0.5,0.7-1.1,0.7-1.6c0-0.6-0.2-1-0.5-1.3c-0.3-0.3-0.8-0.4-1.4-0.4c-0.6,0-1.1,0.2-1.4,0.6c-0.3,0.4-0.5,1-0.5,1.8h-1.5
					c0-1.1,0.3-2,1-2.7c0.6-0.7,1.5-1.1,2.6-1.1C88.3-195.4,89.1-195.1,89.7-194.6z"/>
			</g>
		</g>
		<path class="st6" d="M103.2-165.7h-105v-51h105V-165.7z M-0.8-166.7h103v-49h-103V-166.7z"/>
	</g>
	<g transform="translate(20 9)">
		<g>
			<title  xmlns="http://www.w3.org/2000/svg">Product Icons【32】</title>
			<g id="_编组__26_">
				<g id="_编组_2_25_">
					<path id="_复合路径__25_" class="st11" d="M8.7-187.2c-7.2,0-13-5.8-13-13c0-7.2,5.8-13,13-13c6.4,0,11.9,4.7,12.9,11h2
						c-1.1-8.2-8.7-14-16.9-12.9c-8.2,1.1-14,8.7-12.9,16.9c1.1,8.2,8.7,14,16.9,12.9c6.7-0.9,12-6.2,12.9-12.9h-2
						C20.6-191.9,15.2-187.2,8.7-187.2z M15.7-204.2l-7-4l-7,4v8l3.2,1.8c0.2-0.6,0.5-1.2,1-1.7l-2.2-1.3v-3.7l5,2.9l5-2.9v3.7
						L9.6-195c-1-0.5-2.2-0.1-2.7,0.9c-0.5,1-0.1,2.2,0.9,2.7s2.2,0.1,2.7-0.9c0.1-0.3,0.2-0.6,0.2-0.9c0,0,0-0.1,0-0.1l5-2.9
						V-204.2z M8.7-200.5L4-203.2l4.7-2.7l4.7,2.7L8.7-200.5z"/>
				</g>
			</g>
		</g>
	</g>
</g>
<g id="RectEndPoint8_29_" transform="translate(380,418)">
	<rect x="124.9" y="-214.2" class="st4" width="104" height="50"/>
	<g>
		<rect x="122.9" y="-216.2" class="st5" width="104" height="50"/>
		<g>
			<g>
				<path class="st8" d="M183.5-194.5c0.7,0.6,1.2,1.4,1.3,2.4h-1.5c-0.2-0.7-0.5-1.2-1-1.5c-0.5-0.3-1.1-0.5-1.8-0.5
					c-1.1,0-1.9,0.4-2.4,1.1c-0.5,0.7-0.8,1.6-0.8,2.8c0,1.2,0.3,2.1,0.8,2.8c0.5,0.7,1.4,1.1,2.5,1.1c0.7,0,1.3-0.2,1.8-0.5
					c0.5-0.4,0.9-1,1.1-1.8h1.5c-0.2,1.2-0.7,2.1-1.6,2.7c-0.8,0.6-1.7,0.9-2.8,0.9c-1.6,0-2.9-0.5-3.7-1.6
					c-0.7-0.9-1.1-2.1-1.1-3.6c0-1.5,0.4-2.7,1.1-3.6c0.8-1.1,2-1.6,3.6-1.6C181.7-195.4,182.7-195.1,183.5-194.5z"/>
				<path class="st8" d="M187.2-195.2l2.8,8.3h0l2.8-8.3h1.7l-3.6,10h-1.8l-3.6-10H187.2z"/>
				<path class="st8" d="M197.4-195.2l3.5,8h0l3.5-8h1.8v10h-1.5v-7.1h-0.1l-3.1,7.1h-1.3l-3.1-7.1h-0.1v7.1h-1.5v-10H197.4z"/>
				<path class="st8" d="M213.9-194.7c0.6,0.5,0.9,1.2,0.9,2c0,1.1-0.6,1.8-1.7,2.2c0.6,0.2,1,0.5,1.3,0.8c0.3,0.4,0.5,0.9,0.5,1.5
					c0,0.9-0.3,1.7-1,2.3c-0.7,0.6-1.6,0.9-2.6,0.9c-1,0-1.8-0.3-2.5-0.8c-0.7-0.6-1.1-1.4-1.2-2.6h1.5c0,0.7,0.2,1.2,0.7,1.6
					c0.4,0.3,0.8,0.5,1.4,0.5c0.6,0,1.2-0.2,1.6-0.6c0.3-0.3,0.5-0.7,0.5-1.2c0-0.6-0.2-1-0.5-1.3c-0.3-0.3-0.8-0.4-1.5-0.4h-0.7
					v-1.1h0.7c0.6,0,1.1-0.1,1.4-0.4c0.3-0.3,0.5-0.7,0.5-1.2s-0.2-0.9-0.4-1.1c-0.3-0.3-0.8-0.4-1.4-0.4c-0.6,0-1.1,0.2-1.4,0.5
					c-0.3,0.3-0.5,0.8-0.6,1.4H208c0.1-1,0.4-1.8,1.1-2.3c0.6-0.6,1.4-0.8,2.4-0.8C212.5-195.4,213.3-195.2,213.9-194.7z"/>
			</g>
		</g>
		<path class="st6" d="M227.4-165.7h-105v-51h105V-165.7z M123.4-166.7h103v-49h-103V-166.7z"/>
	</g>
	<g transform="translate(20 9)">
		<g>
			<title  xmlns="http://www.w3.org/2000/svg">Product Icons【32】</title>
			<g id="_编组__25_">
				<g id="_编组_2_24_">
					<path id="_复合路径__24_" class="st11" d="M132.9-187.2c-7.2,0-13-5.8-13-13s5.8-13,13-13c6.4,0,11.9,4.7,12.9,11h2
						c-1.1-8.2-8.7-14-16.9-12.9c-8.2,1.1-14,8.7-12.9,16.9c1.1,8.2,8.7,14,16.9,12.9c6.7-0.9,12-6.2,12.9-12.9h-2
						C144.8-191.9,139.4-187.2,132.9-187.2z M139.9-204.2l-7-4l-7,4v8l3.2,1.8c0.2-0.6,0.5-1.2,1-1.7l-2.2-1.3v-3.7l5,2.9l5-2.9v3.7
						l-4.1,2.4c-1-0.5-2.2-0.1-2.7,0.9s-0.1,2.2,0.9,2.7s2.2,0.1,2.7-0.9c0.1-0.3,0.2-0.6,0.2-0.9c0,0,0-0.1,0-0.1l5-2.9V-204.2z
						 M132.9-200.5l-4.7-2.7l4.7-2.7l4.7,2.7L132.9-200.5z"/>
				</g>
			</g>
		</g>
	</g>
</g>
<line class="st12" x1="106" y1="297.8" x2="140" y2="297.8"/>
<g>
	<path class="st13" d="M634,39.6h-6v1h6V39.6L634,39.6z M624,39.6h-6v1h6V39.6L624,39.6z M614,39.6h-6v1h6V39.6L614,39.6z M604,39.6
		h-6v1h6V39.6L604,39.6z M594,39.6h-6v1h6V39.6L594,39.6z M584,39.6h-6v1h6V39.6L584,39.6z M574,39.6h-6v1h6V39.6L574,39.6z
		 M564,39.6h-6v1h6V39.6L564,39.6z M554,39.6h-6v1h6V39.6L554,39.6z M544,39.6h-6v1h6V39.6L544,39.6z M534,39.6h-6v1h6V39.6
		L534,39.6z M524,39.6h-6v1h6V39.6L524,39.6z M514,39.6h-6v1h6V39.6L514,39.6z M504,39.6h-6v1h6V39.6L504,39.6z M494,39.6h-6v1h6
		V39.6L494,39.6z M484,39.6h-6v1h6V39.6L484,39.6z M474,39.6h-6v1h6V39.6L474,39.6z M464,39.6h-6v1h6V39.6L464,39.6z M454,39.6h-6v1
		h6V39.6L454,39.6z M444,39.6h-6v1h6V39.6L444,39.6z M434,39.6h-6v1h6V39.6L434,39.6z M424,39.6h-6v1h6V39.6L424,39.6z M414,39.6h-6
		v1h6V39.6L414,39.6z M404,39.6h-6v1h6V39.6L404,39.6z M394,39.6h-6v1h6V39.6L394,39.6z M384,39.6h-6v1h6V39.6L384,39.6z M374,39.6
		h-6v1h6V39.6L374,39.6z M364,39.6h-6v1h6V39.6L364,39.6z M354,39.6h-6v1h6V39.6L354,39.6z M344,39.6h-6v1h6V39.6L344,39.6z
		 M334,39.6h-6v1h6V39.6L334,39.6z M324,39.6h-6v1h6V39.6L324,39.6z M314,39.6h-6v1h6V39.6L314,39.6z M304,39.6h-6v1h6V39.6
		L304,39.6z M294,39.6h-6v1h6V39.6L294,39.6z M284,39.6h-6v1h6V39.6L284,39.6z M274,39.6h-6v1h6V39.6L274,39.6z M264,39.6h-6v1h6
		V39.6L264,39.6z M254,39.6h-6v1h6V39.6L254,39.6z M244,39.6h-6v1h6V39.6L244,39.6z M234.2,39.6h-1v1l0,0c0,1.5,0,4.2,0,4.2h1V39.6
		L234.2,39.6z M234.2,48.8h-1v6h1V48.8L234.2,48.8z M234.2,58.8h-1v6h1V58.8L234.2,58.8z M234.2,68.8h-1v6h1V68.8L234.2,68.8z
		 M234.2,78.8h-1v6h1V78.8L234.2,78.8z M234.2,88.8h-1v6h1V88.8L234.2,88.8z M234.2,98.8h-1v6h1V98.8L234.2,98.8z M234.2,108.8h-1v6
		h1V108.8L234.2,108.8z M234.2,118.8h-1v6h1V118.8L234.2,118.8z M234.2,128.8h-1v6h1V128.8L234.2,128.8z M234.2,138.8h-1v6h1V138.8
		L234.2,138.8z M234.2,148.8h-1v6h1V148.8L234.2,148.8z M234.2,158.8h-1v6h1V158.8L234.2,158.8z M234.2,168.8h-1v6h1V168.8
		L234.2,168.8z M234.2,178.8h-1v6h1V178.8L234.2,178.8z M234.2,188.8h-1v6h1V188.8L234.2,188.8z M234.2,198.8h-1v6h1V198.8
		L234.2,198.8z M234.2,208.8h-1v6h1V208.8L234.2,208.8z M234.2,218.8h-1v6h1V218.8L234.2,218.8z M234.2,228.8h-1v6h1V228.8
		L234.2,228.8z M234.2,238.8h-1v6h1V238.8L234.2,238.8z M234.2,248.8h-1v6h1V248.8L234.2,248.8z M234.2,258.8h-1v6h1V258.8
		L234.2,258.8z M234.2,268.8h-1v6h1V268.8L234.2,268.8z M239.3,277.7h-6v1h6V277.7L239.3,277.7z M249.3,277.7h-6v1h6V277.7
		L249.3,277.7z M259.3,277.7h-6v1h6V277.7L259.3,277.7z M269.3,277.7h-6v1h6V277.7L269.3,277.7z M279.3,277.7h-6v1h6V277.7
		L279.3,277.7z M289.3,277.7h-6v1h6V277.7L289.3,277.7z M299.3,277.7h-6v1h6V277.7L299.3,277.7z M309.3,277.7h-6v1h6V277.7
		L309.3,277.7z M319.3,277.7h-6v1h6V277.7L319.3,277.7z M329.3,277.7h-6v1h6V277.7L329.3,277.7z M339.3,277.7h-6v1h6V277.7
		L339.3,277.7z M349.3,277.7h-6v1h6V277.7L349.3,277.7z M359.3,277.7h-6v1h6V277.7L359.3,277.7z M369.3,277.7h-6v1h6V277.7
		L369.3,277.7z M379.3,277.7h-6v1h6V277.7L379.3,277.7z M389.3,277.7h-6v1h6V277.7L389.3,277.7z M399.3,277.7h-6v1h6V277.7
		L399.3,277.7z M409.3,277.7h-6v1h6V277.7L409.3,277.7z M419.3,277.7h-6v1h6V277.7L419.3,277.7z M429.3,277.7h-6v1h6V277.7
		L429.3,277.7z M439.3,277.7h-6v1h6V277.7L439.3,277.7z M449.3,277.7h-6v1h6V277.7L449.3,277.7z M459.3,277.7h-6v1h6V277.7
		L459.3,277.7z M469.3,277.7h-6v1h6V277.7L469.3,277.7z M479.3,277.7h-6v1h6V277.7L479.3,277.7z M489.3,277.7h-6v1h6V277.7
		L489.3,277.7z M499.3,277.7h-6v1h6V277.7L499.3,277.7z M509.3,277.7h-6v1h6V277.7L509.3,277.7z M519.3,277.7h-6v1h6V277.7
		L519.3,277.7z M529.3,277.7h-6v1h6V277.7L529.3,277.7z M539.3,277.7h-6v1h6V277.7L539.3,277.7z M549.3,277.7h-6v1h6V277.7
		L549.3,277.7z M559.3,277.7h-6v1h6V277.7L559.3,277.7z M569.3,277.7h-6v1h6V277.7L569.3,277.7z M579.3,277.7h-6v1h6V277.7
		L579.3,277.7z M589.3,277.7h-6v1h6V277.7L589.3,277.7z M599.3,277.7h-6v1h6V277.7L599.3,277.7z M609.3,277.7h-6v1h6V277.7
		L609.3,277.7z M619.3,277.7h-6v1h6V277.7L619.3,277.7z M629.3,277.7h-6v1h6V277.7L629.3,277.7z M634,273.3h-1v5.4h0.4l0,0H633h0.4
		l0,0h0.6V273.3L634,273.3z M634,263.3h-1v6h1V263.3L634,263.3z M634,253.3h-1v6h1V253.3L634,253.3z M634,243.3h-1v6h1V243.3
		L634,243.3z M634,233.3h-1v6h1V233.3L634,233.3z M634,223.3h-1v6h1V223.3L634,223.3z M634,213.3h-1v6h1V213.3L634,213.3z
		 M634,203.3h-1v6h1V203.3L634,203.3z M634,193.3h-1v6h1V193.3L634,193.3z M634,183.3h-1v6h1V183.3L634,183.3z M634,173.3h-1v6h1
		V173.3L634,173.3z M634,163.3h-1v6h1V163.3L634,163.3z M634,153.3h-1v6h1V153.3L634,153.3z M634,143.3h-1v6h1V143.3L634,143.3z
		 M634,133.3h-1v6h1V133.3L634,133.3z M634,123.3h-1v6h1V123.3L634,123.3z M634,113.3h-1v6h1V113.3L634,113.3z M634,103.3h-1v6h1
		V103.3L634,103.3z M634,93.3h-1v6h1V93.3L634,93.3z M634,83.3h-1v6h1V83.3L634,83.3z M634,73.3h-1v6h1V73.3L634,73.3z M634,63.3h-1
		v6h1V63.3L634,63.3z M634,53.3h-1v6h1V53.3L634,53.3z M634,43.3h-1v6h1V43.3L634,43.3z"/>
</g>
<g>
	<polygon class="st9" points="624.8,432.5 242.6,431.6 242.2,328.9 624.4,329.8 	"/>
	<g>
		<g>
			<path class="st10" d="M257.7,344.6c0.1-0.5,0.2-0.9,0.4-1.4l-3.3,0l0-1.2l3.6,0c0.1-0.5,0.2-1.1,0.3-1.6l1.4,0.1
				c-0.1,0.5-0.2,1-0.3,1.5l5.9,0l0,1.2l-6.1,0c-0.1,0.5-0.2,1-0.3,1.4l7.3,0l0,1.3l-7.6,0c-0.2,0.6-0.3,1.1-0.5,1.6l6.5,0l0,1.1
				c-0.6,1-1.6,1.9-3,2.9c0.8,0.3,1.5,0.6,2.2,0.9l-0.7,1.1c-2.1-1-4.2-1.8-6.4-2.3l0.7-1c1,0.3,1.9,0.5,2.8,0.8
				c1.2-0.8,2.1-1.5,2.8-2.3l-6.8,0c0.3-0.9,0.7-1.8,0.9-2.8l-3.6,0l0-1.3L257.7,344.6z"/>
			<path class="st10" d="M268.6,353.4l-1-0.9c0.8-1.2,1.3-2.7,1.3-4.6l0-6.9l10.7,0l0,10.5c0,1-0.6,1.6-1.6,1.6l-1.6,0l-0.3-1.3
				c0.5,0,1.1,0.1,1.5,0.1c0.4,0,0.7-0.3,0.7-0.8l0-2.1l-3.5,0l0,4l-1.3,0l0-4l-3.3,0C270,350.8,269.5,352.2,268.6,353.4z
				 M270.2,347.8l3.2,0l0-2.1l-3.2,0L270.2,347.8z M270.3,342.3l0,2.1l3.2,0l0-2.1L270.3,342.3z M278.3,345.6l-3.5,0l0,2.1l3.5,0
				L278.3,345.6z M278.3,342.3l-3.5,0l0,2.1l3.5,0L278.3,342.3z"/>
			<path class="st10" d="M282.3,350l-0.5-1.5c1.3-1.6,2.3-3.3,2.8-5.1l1.3,0.3c-0.2,0.8-0.5,1.5-0.9,2.3l0,7.5l-1.3,0l0-5.3
				C283.3,348.8,282.8,349.4,282.3,350z M294,343.8l-1.4,0l0-0.9l-9,0l0,1.7l-1.3,0l0-3l5.2,0c-0.2-0.3-0.4-0.7-0.6-0.9l1.4-0.2
				c0.2,0.4,0.4,0.7,0.6,1.2l5.1,0L294,343.8z M293.3,353.5l-1.3,0l0-0.4l-4.1,0l0,0.5l-1.3,0l0-7l2.2,0c0.1-0.3,0.1-0.6,0.2-1
				l-2.9,0l0-1.2l7.6,0l0,1.2l-3.3,0c-0.1,0.3-0.1,0.7-0.2,1l3.1,0L293.3,353.5z M292,351.8l0-1.6l-4.1,0l0,1.6L292,351.8z
				 M292.1,349.1l0-1.5l-4.1,0l0,1.5L292.1,349.1z"/>
			<path class="st10" d="M296.3,344.2l0-1.3l5.1,0c-0.2-0.7-0.5-1.3-0.8-2l1.3-0.3c0.3,0.8,0.6,1.6,0.8,2.3l0,0l5.2,0l0,1.3l-5.1,0
				l0,2.9l4.4,0l0,1.2l-4.4,0l0,3.4l5.6,0l0,1.3l-12.5,0l0-1.3l5.6,0l0-3.4l-4.4,0l0-1.2l4.4,0l0-2.9L296.3,344.2z"/>
			<path class="st10" d="M311.8,343.3l0-2.6l1.3,0l0,2.6l1.6,0l0,1.3l-1.6,0l0,0.6c0.6,0.6,1.3,1.3,1.9,2.1l-0.8,1.2
				c-0.4-0.8-0.8-1.4-1.1-1.9l0,7l-1.3,0l0-6.6c-0.5,1.2-1,2.4-1.7,3.4l-0.6-1.4c1-1.3,1.7-2.7,2.2-4.3l-1.9,0l0-1.3L311.8,343.3z
				 M315.2,350c0.2-0.8,0.3-2,0.3-3.5l0-5.3l4.8,0l0,10.6c0,0.2,0.1,0.2,0.2,0.2l0.4,0c0.1,0,0.2,0,0.3-0.1c0.1-0.1,0.1-0.2,0.1-0.3
				c0.1-0.2,0.1-1,0.1-2.5l1.2,0.4c0,1.1,0,1.8-0.1,2.4c-0.1,0.5-0.2,0.9-0.4,1.1c-0.2,0.2-0.6,0.3-1.1,0.3l-0.6,0
				c-1,0-1.5-0.5-1.5-1.3l0-9.5l-2.1,0l0,4.1c0,1.6-0.1,2.9-0.4,4c-0.2,1.1-0.7,2.2-1.4,3.2l-1.1-1C314.5,351.9,314.9,351,315.2,350
				z"/>
			<path class="st10" d="M327.5,342.2l0,10l-1.5,0l0-8.2c-0.6,0.6-1.4,1-2.3,1.3l0-1.5c0.4-0.1,0.9-0.3,1.4-0.6
				c0.5-0.3,0.9-0.6,1.3-1L327.5,342.2z"/>
		</g>
	</g>
</g>
<g id="RectEndPoint8_28_" transform="translate(380,418)">
	<rect x="-121.3" y="-49.5" class="st4" width="104" height="50"/>
	<g>
		<rect x="-123.3" y="-51.5" class="st5" width="104" height="50"/>
		<g>
			<g>
				<path class="st8" d="M-62.7-29.8c0.7,0.6,1.2,1.4,1.3,2.4h-1.5c-0.2-0.7-0.5-1.2-1-1.5c-0.5-0.3-1.1-0.5-1.8-0.5
					c-1.1,0-1.9,0.4-2.4,1.1c-0.5,0.7-0.8,1.6-0.8,2.8c0,1.2,0.3,2.1,0.8,2.8c0.5,0.7,1.4,1.1,2.5,1.1c0.7,0,1.3-0.2,1.8-0.5
					c0.5-0.4,0.9-1,1.1-1.8h1.5c-0.2,1.2-0.7,2.1-1.6,2.7c-0.8,0.6-1.7,0.9-2.8,0.9c-1.6,0-2.9-0.5-3.7-1.6
					c-0.7-0.9-1.1-2.1-1.1-3.6c0-1.5,0.4-2.7,1.1-3.6c0.8-1.1,2-1.6,3.6-1.6C-64.5-30.7-63.5-30.4-62.7-29.8z"/>
				<path class="st8" d="M-59-30.5l2.8,8.3h0l2.8-8.3h1.7l-3.6,10h-1.8l-3.6-10H-59z"/>
				<path class="st8" d="M-48.8-30.5l3.5,8h0l3.5-8h1.8v10h-1.5v-7.1h-0.1l-3.1,7.1h-1.3l-3.1-7.1h-0.1v7.1h-1.5v-10H-48.8z"/>
				<path class="st8" d="M-34.6-30.5v10h-1.5v-8.2c-0.6,0.6-1.4,1-2.3,1.3V-29c0.4-0.1,0.9-0.3,1.4-0.6c0.5-0.3,0.9-0.6,1.3-1H-34.6
					z"/>
			</g>
		</g>
		<path class="st6" d="M-18.8-1h-105v-51h105V-1z M-122.8-2h103v-49h-103V-2z"/>
	</g>
	<g transform="translate(20 9)">
		<g>
			<title  xmlns="http://www.w3.org/2000/svg">Product Icons【32】</title>
			<g id="_编组__24_">
				<g id="_编组_2_23_">
					<path id="_复合路径__23_" class="st11" d="M-113.3-22.5c-7.2,0-13-5.8-13-13s5.8-13,13-13c6.4,0,11.9,4.7,12.9,11h2
						c-1.1-8.2-8.7-14-16.9-12.9s-14,8.7-12.9,16.9c1.1,8.2,8.7,14,16.9,12.9c6.7-0.9,12-6.2,12.9-12.9h-2
						C-101.4-27.2-106.8-22.5-113.3-22.5z M-106.3-39.5l-7-4l-7,4v8l3.2,1.8c0.2-0.6,0.5-1.2,1-1.7l-2.2-1.3v-3.7l5,2.9l5-2.9v3.7
						l-4.1,2.4c-1-0.5-2.2-0.1-2.7,0.9c-0.5,1-0.1,2.2,0.9,2.7s2.2,0.1,2.7-0.9c0.1-0.3,0.2-0.6,0.2-0.9c0,0,0-0.1,0-0.1l5-2.9
						V-39.5z M-113.3-35.8l-4.7-2.7l4.7-2.7l4.7,2.7L-113.3-35.8z"/>
				</g>
			</g>
		</g>
	</g>
</g>
<g id="RectEndPoint8_27_" transform="translate(380,418)">
	<rect x="0.7" y="-49.5" class="st4" width="104" height="50"/>
	<g>
		<rect x="-1.3" y="-51.5" class="st5" width="104" height="50"/>
		<g>
			<g>
				<path class="st8" d="M59.3-29.8c0.7,0.6,1.2,1.4,1.3,2.4h-1.5c-0.2-0.7-0.5-1.2-1-1.5c-0.5-0.3-1.1-0.5-1.8-0.5
					c-1.1,0-1.9,0.4-2.4,1.1c-0.5,0.7-0.8,1.6-0.8,2.8c0,1.2,0.3,2.1,0.8,2.8c0.5,0.7,1.4,1.1,2.5,1.1c0.7,0,1.3-0.2,1.8-0.5
					c0.5-0.4,0.9-1,1.1-1.8h1.5c-0.2,1.2-0.7,2.1-1.6,2.7c-0.8,0.6-1.7,0.9-2.8,0.9c-1.6,0-2.9-0.5-3.7-1.6
					c-0.7-0.9-1.1-2.1-1.1-3.6c0-1.5,0.4-2.7,1.1-3.6c0.8-1.1,2-1.6,3.6-1.6C57.5-30.7,58.5-30.4,59.3-29.8z"/>
				<path class="st8" d="M63-30.5l2.8,8.3h0l2.8-8.3h1.7l-3.6,10h-1.8l-3.6-10H63z"/>
				<path class="st8" d="M73.2-30.5l3.5,8h0l3.5-8H82v10h-1.5v-7.1h-0.1l-3.1,7.1h-1.3L73-27.7h-0.1v7.1h-1.5v-10H73.2z"/>
				<path class="st8" d="M89.7-29.9c0.6,0.6,0.9,1.3,0.9,2.2c0,0.9-0.3,1.7-1,2.4c-0.4,0.4-1.1,0.9-2.1,1.6
					c-1.1,0.7-1.7,1.3-1.9,1.9h5v1.3h-6.9c0-1,0.3-1.9,1-2.6c0.4-0.4,1.1-1,2.3-1.8c0.7-0.5,1.1-0.9,1.4-1.1
					c0.4-0.5,0.7-1.1,0.7-1.6c0-0.6-0.2-1-0.5-1.3c-0.3-0.3-0.8-0.4-1.4-0.4c-0.6,0-1.1,0.2-1.4,0.6c-0.3,0.4-0.5,1-0.5,1.8h-1.5
					c0-1.1,0.3-2,1-2.7c0.6-0.7,1.5-1.1,2.6-1.1C88.3-30.7,89.1-30.5,89.7-29.9z"/>
			</g>
		</g>
		<path class="st6" d="M103.2-1h-105v-51h105V-1z M-0.8-2h103v-49h-103V-2z"/>
	</g>
	<g transform="translate(20 9)">
		<g>
			<title  xmlns="http://www.w3.org/2000/svg">Product Icons【32】</title>
			<g id="_编组__23_">
				<g id="_编组_2_22_">
					<path id="_复合路径__22_" class="st11" d="M8.7-22.5c-7.2,0-13-5.8-13-13c0-7.2,5.8-13,13-13c6.4,0,11.9,4.7,12.9,11h2
						c-1.1-8.2-8.7-14-16.9-12.9s-14,8.7-12.9,16.9s8.7,14,16.9,12.9c6.7-0.9,12-6.2,12.9-12.9h-2C20.6-27.2,15.2-22.5,8.7-22.5z
						 M15.7-39.5l-7-4l-7,4v8l3.2,1.8c0.2-0.6,0.5-1.2,1-1.7l-2.2-1.3v-3.7l5,2.9l5-2.9v3.7l-4.1,2.4c-1-0.5-2.2-0.1-2.7,0.9
						c-0.5,1-0.1,2.2,0.9,2.7s2.2,0.1,2.7-0.9c0.1-0.3,0.2-0.6,0.2-0.9c0,0,0-0.1,0-0.1l5-2.9V-39.5z M8.7-35.8L4-38.5l4.7-2.7
						l4.7,2.7L8.7-35.8z"/>
				</g>
			</g>
		</g>
	</g>
</g>
<g id="RectEndPoint8_26_" transform="translate(380,418)">
	<rect x="124.9" y="-49.5" class="st4" width="104" height="50"/>
	<g>
		<rect x="122.9" y="-51.5" class="st5" width="104" height="50"/>
		<g>
			<g>
				<path class="st8" d="M183.5-29.8c0.7,0.6,1.2,1.4,1.3,2.4h-1.5c-0.2-0.7-0.5-1.2-1-1.5c-0.5-0.3-1.1-0.5-1.8-0.5
					c-1.1,0-1.9,0.4-2.4,1.1c-0.5,0.7-0.8,1.6-0.8,2.8c0,1.2,0.3,2.1,0.8,2.8c0.5,0.7,1.4,1.1,2.5,1.1c0.7,0,1.3-0.2,1.8-0.5
					c0.5-0.4,0.9-1,1.1-1.8h1.5c-0.2,1.2-0.7,2.1-1.6,2.7c-0.8,0.6-1.7,0.9-2.8,0.9c-1.6,0-2.9-0.5-3.7-1.6
					c-0.7-0.9-1.1-2.1-1.1-3.6c0-1.5,0.4-2.7,1.1-3.6c0.8-1.1,2-1.6,3.6-1.6C181.7-30.7,182.7-30.4,183.5-29.8z"/>
				<path class="st8" d="M187.2-30.5l2.8,8.3h0l2.8-8.3h1.7l-3.6,10h-1.8l-3.6-10H187.2z"/>
				<path class="st8" d="M197.4-30.5l3.5,8h0l3.5-8h1.8v10h-1.5v-7.1h-0.1l-3.1,7.1h-1.3l-3.1-7.1h-0.1v7.1h-1.5v-10H197.4z"/>
				<path class="st8" d="M213.9-30c0.6,0.5,0.9,1.2,0.9,2c0,1.1-0.6,1.8-1.7,2.2c0.6,0.2,1,0.5,1.3,0.8c0.3,0.4,0.5,0.9,0.5,1.5
					c0,0.9-0.3,1.7-1,2.3c-0.7,0.6-1.6,0.9-2.6,0.9c-1,0-1.8-0.3-2.5-0.8c-0.7-0.6-1.1-1.4-1.2-2.6h1.5c0,0.7,0.2,1.2,0.7,1.6
					c0.4,0.3,0.8,0.5,1.4,0.5c0.6,0,1.2-0.2,1.6-0.6c0.3-0.3,0.5-0.7,0.5-1.2c0-0.6-0.2-1-0.5-1.3c-0.3-0.3-0.8-0.4-1.5-0.4h-0.7
					v-1.1h0.7c0.6,0,1.1-0.1,1.4-0.4c0.3-0.3,0.5-0.7,0.5-1.2s-0.2-0.9-0.4-1.1c-0.3-0.3-0.8-0.4-1.4-0.4c-0.6,0-1.1,0.2-1.4,0.5
					c-0.3,0.3-0.5,0.8-0.6,1.4H208c0.1-1,0.4-1.8,1.1-2.3c0.6-0.6,1.4-0.8,2.4-0.8C212.5-30.7,213.3-30.5,213.9-30z"/>
			</g>
		</g>
		<path class="st6" d="M227.4-1h-105v-51h105V-1z M123.4-2h103v-49h-103V-2z"/>
	</g>
	<g transform="translate(20 9)">
		<g>
			<title  xmlns="http://www.w3.org/2000/svg">Product Icons【32】</title>
			<g id="_编组__22_">
				<g id="_编组_2_21_">
					<path id="_复合路径__21_" class="st11" d="M132.9-22.5c-7.2,0-13-5.8-13-13s5.8-13,13-13c6.4,0,11.9,4.7,12.9,11h2
						c-1.1-8.2-8.7-14-16.9-12.9c-8.2,1.1-14,8.7-12.9,16.9s8.7,14,16.9,12.9c6.7-0.9,12-6.2,12.9-12.9h-2
						C144.8-27.2,139.4-22.5,132.9-22.5z M139.9-39.5l-7-4l-7,4v8l3.2,1.8c0.2-0.6,0.5-1.2,1-1.7l-2.2-1.3v-3.7l5,2.9l5-2.9v3.7
						l-4.1,2.4c-1-0.5-2.2-0.1-2.7,0.9c-0.5,1-0.1,2.2,0.9,2.7s2.2,0.1,2.7-0.9c0.1-0.3,0.2-0.6,0.2-0.9c0,0,0-0.1,0-0.1l5-2.9
						V-39.5z M132.9-35.8l-4.7-2.7l4.7-2.7l4.7,2.7L132.9-35.8z"/>
				</g>
			</g>
		</g>
	</g>
</g>
<g>
	<polygon class="st9" points="624.8,546.7 242.6,545.8 242.2,443.1 624.4,444 	"/>
	<g>
		<g>
			<path class="st10" d="M257.7,458.8c0.1-0.5,0.2-0.9,0.4-1.4l-3.3,0l0-1.2l3.6,0c0.1-0.5,0.2-1.1,0.3-1.6l1.4,0.1
				c-0.1,0.5-0.2,1-0.3,1.5l5.9,0l0,1.2l-6.1,0c-0.1,0.5-0.2,1-0.3,1.4l7.3,0l0,1.3l-7.6,0c-0.2,0.6-0.3,1.1-0.5,1.6l6.5,0l0,1.1
				c-0.6,1-1.6,1.9-3,2.9c0.8,0.3,1.5,0.6,2.2,0.9l-0.7,1.1c-2.1-1-4.2-1.8-6.4-2.3l0.7-1c1,0.3,1.9,0.5,2.8,0.8
				c1.2-0.8,2.1-1.5,2.8-2.3l-6.8,0c0.3-0.9,0.7-1.8,0.9-2.8l-3.6,0l0-1.3L257.7,458.8z"/>
			<path class="st10" d="M268.6,467.5l-1-0.9c0.8-1.2,1.3-2.7,1.3-4.6l0-6.9l10.7,0l0,10.5c0,1-0.6,1.6-1.6,1.6l-1.6,0l-0.3-1.3
				c0.5,0,1.1,0.1,1.5,0.1c0.4,0,0.7-0.3,0.7-0.8l0-2.1l-3.5,0l0,4l-1.3,0l0-4l-3.3,0C270,464.9,269.5,466.4,268.6,467.5z
				 M270.2,461.9l3.2,0l0-2.1l-3.2,0L270.2,461.9z M270.3,456.5l0,2.1l3.2,0l0-2.1L270.3,456.5z M278.3,459.8l-3.5,0l0,2.1l3.5,0
				L278.3,459.8z M278.3,456.5l-3.5,0l0,2.1l3.5,0L278.3,456.5z"/>
			<path class="st10" d="M282.3,464.2l-0.5-1.5c1.3-1.6,2.3-3.3,2.8-5.1l1.3,0.3c-0.2,0.8-0.5,1.5-0.9,2.3l0,7.5l-1.3,0l0-5.3
				C283.3,463,282.8,463.6,282.3,464.2z M294,458l-1.4,0l0-0.9l-9,0l0,1.7l-1.3,0l0-3l5.2,0c-0.2-0.3-0.4-0.7-0.6-0.9l1.4-0.2
				c0.2,0.4,0.4,0.7,0.6,1.2l5.1,0L294,458z M293.3,467.7l-1.3,0l0-0.4l-4.1,0l0,0.5l-1.3,0l0-7l2.2,0c0.1-0.3,0.1-0.6,0.2-1l-2.9,0
				l0-1.2l7.6,0l0,1.2l-3.3,0c-0.1,0.3-0.1,0.7-0.2,1l3.1,0L293.3,467.7z M292,466l0-1.6l-4.1,0l0,1.6L292,466z M292.1,463.3l0-1.5
				l-4.1,0l0,1.5L292.1,463.3z"/>
			<path class="st10" d="M296.3,458.4l0-1.3l5.1,0c-0.2-0.7-0.5-1.3-0.8-2l1.3-0.3c0.3,0.8,0.6,1.6,0.8,2.3l0,0l5.2,0l0,1.3l-5.1,0
				l0,2.9l4.4,0l0,1.2l-4.4,0l0,3.4l5.6,0l0,1.3l-12.5,0l0-1.3l5.6,0l0-3.4l-4.4,0l0-1.2l4.4,0l0-2.9L296.3,458.4z"/>
			<path class="st10" d="M311.8,457.5l0-2.6l1.3,0l0,2.6l1.6,0l0,1.3l-1.6,0l0,0.6c0.6,0.6,1.3,1.3,1.9,2.1l-0.8,1.2
				c-0.4-0.8-0.8-1.4-1.1-1.9l0,7l-1.3,0l0-6.6c-0.5,1.2-1,2.4-1.7,3.4l-0.6-1.4c1-1.3,1.7-2.7,2.2-4.3l-1.9,0l0-1.3L311.8,457.5z
				 M315.2,464.2c0.2-0.8,0.3-2,0.3-3.5l0-5.3l4.8,0l0,10.6c0,0.2,0.1,0.2,0.2,0.2l0.4,0c0.1,0,0.2,0,0.3-0.1
				c0.1-0.1,0.1-0.2,0.1-0.3c0.1-0.2,0.1-1,0.1-2.5l1.2,0.4c0,1.1,0,1.8-0.1,2.4c-0.1,0.5-0.2,0.9-0.4,1.1c-0.2,0.2-0.6,0.3-1.1,0.3
				l-0.6,0c-1,0-1.5-0.5-1.5-1.3l0-9.5l-2.1,0l0,4.1c0,1.6-0.1,2.9-0.4,4c-0.2,1.1-0.7,2.2-1.4,3.2l-1.1-1
				C314.5,466.1,314.9,465.2,315.2,464.2z"/>
			<path class="st10" d="M329.8,457c0.6,0.6,0.9,1.3,0.9,2.2c0,0.9-0.3,1.7-1,2.4c-0.4,0.4-1.1,0.9-2.1,1.6
				c-1.1,0.7-1.7,1.3-1.9,1.9l5,0l0,1.3l-6.9,0c0-1,0.3-1.9,1-2.6c0.4-0.4,1.1-1,2.3-1.8c0.7-0.5,1.2-0.9,1.4-1.1
				c0.4-0.5,0.7-1,0.7-1.6c0-0.6-0.2-1-0.5-1.3s-0.8-0.4-1.4-0.4c-0.6,0-1.1,0.2-1.4,0.6c-0.3,0.4-0.5,1-0.5,1.8l-1.5,0
				c0-1.1,0.3-2,1-2.7c0.6-0.7,1.5-1.1,2.6-1.1C328.4,456.2,329.2,456.5,329.8,457z"/>
		</g>
	</g>
</g>
<g id="RectEndPoint8_25_" transform="translate(380,418)">
	<rect x="-121.3" y="64.7" class="st4" width="104" height="50"/>
	<g>
		<rect x="-123.3" y="62.7" class="st5" width="104" height="50"/>
		<g>
			<g>
				<path class="st8" d="M-62.7,84.4c0.7,0.6,1.2,1.4,1.3,2.4h-1.5c-0.2-0.7-0.5-1.2-1-1.5c-0.5-0.3-1.1-0.5-1.8-0.5
					c-1.1,0-1.9,0.4-2.4,1.1c-0.5,0.7-0.8,1.6-0.8,2.8c0,1.2,0.3,2.1,0.8,2.8c0.5,0.7,1.4,1.1,2.5,1.1c0.7,0,1.3-0.2,1.8-0.5
					c0.5-0.4,0.9-1,1.1-1.8h1.5c-0.2,1.2-0.7,2.1-1.6,2.7c-0.8,0.6-1.7,0.9-2.8,0.9c-1.6,0-2.9-0.5-3.7-1.6
					c-0.7-0.9-1.1-2.1-1.1-3.6c0-1.5,0.4-2.7,1.1-3.6c0.8-1.1,2-1.6,3.6-1.6C-64.5,83.5-63.5,83.8-62.7,84.4z"/>
				<path class="st8" d="M-59,83.7l2.8,8.3h0l2.8-8.3h1.7l-3.6,10h-1.8l-3.6-10H-59z"/>
				<path class="st8" d="M-48.8,83.7l3.5,8h0l3.5-8h1.8v10h-1.5v-7.1h-0.1l-3.1,7.1h-1.3l-3.1-7.1h-0.1v7.1h-1.5v-10H-48.8z"/>
				<path class="st8" d="M-34.6,83.7v10h-1.5v-8.2c-0.6,0.6-1.4,1-2.3,1.3v-1.5c0.4-0.1,0.9-0.3,1.4-0.6c0.5-0.3,0.9-0.6,1.3-1
					H-34.6z"/>
			</g>
		</g>
		<path class="st6" d="M-18.8,113.2h-105v-51h105V113.2z M-122.8,112.2h103v-49h-103V112.2z"/>
	</g>
	<g transform="translate(20 9)">
		<g>
			<title  xmlns="http://www.w3.org/2000/svg">Product Icons【32】</title>
			<g id="_编组__21_">
				<g id="_编组_2_20_">
					<path id="_复合路径__20_" class="st11" d="M-113.3,91.7c-7.2,0-13-5.8-13-13s5.8-13,13-13c6.4,0,11.9,4.7,12.9,11h2
						c-1.1-8.2-8.7-14-16.9-12.9s-14,8.7-12.9,16.9c1.1,8.2,8.7,14,16.9,12.9c6.7-0.9,12-6.2,12.9-12.9h-2
						C-101.4,87-106.8,91.6-113.3,91.7z M-106.3,74.7l-7-4l-7,4v8l3.2,1.8c0.2-0.6,0.5-1.2,1-1.7l-2.2-1.3v-3.7l5,2.9l5-2.9v3.7
						l-4.1,2.4c-1-0.5-2.2-0.1-2.7,0.9c-0.5,1-0.1,2.2,0.9,2.7s2.2,0.1,2.7-0.9c0.1-0.3,0.2-0.6,0.2-0.9c0,0,0-0.1,0-0.1l5-2.9V74.7
						z M-113.3,78.4l-4.7-2.7l4.7-2.7l4.7,2.7L-113.3,78.4z"/>
				</g>
			</g>
		</g>
	</g>
</g>
<g id="RectEndPoint8_24_" transform="translate(380,418)">
	<rect x="0.7" y="64.7" class="st4" width="104" height="50"/>
	<g>
		<rect x="-1.3" y="62.7" class="st5" width="104" height="50"/>
		<g>
			<g>
				<path class="st8" d="M59.3,84.4c0.7,0.6,1.2,1.4,1.3,2.4h-1.5c-0.2-0.7-0.5-1.2-1-1.5c-0.5-0.3-1.1-0.5-1.8-0.5
					c-1.1,0-1.9,0.4-2.4,1.1c-0.5,0.7-0.8,1.6-0.8,2.8c0,1.2,0.3,2.1,0.8,2.8c0.5,0.7,1.4,1.1,2.5,1.1c0.7,0,1.3-0.2,1.8-0.5
					c0.5-0.4,0.9-1,1.1-1.8h1.5c-0.2,1.2-0.7,2.1-1.6,2.7c-0.8,0.6-1.7,0.9-2.8,0.9c-1.6,0-2.9-0.5-3.7-1.6
					c-0.7-0.9-1.1-2.1-1.1-3.6c0-1.5,0.4-2.7,1.1-3.6c0.8-1.1,2-1.6,3.6-1.6C57.5,83.5,58.5,83.8,59.3,84.4z"/>
				<path class="st8" d="M63,83.7l2.8,8.3h0l2.8-8.3h1.7l-3.6,10h-1.8l-3.6-10H63z"/>
				<path class="st8" d="M73.2,83.7l3.5,8h0l3.5-8H82v10h-1.5v-7.1h-0.1l-3.1,7.1h-1.3L73,86.5h-0.1v7.1h-1.5v-10H73.2z"/>
				<path class="st8" d="M89.7,84.3c0.6,0.6,0.9,1.3,0.9,2.2c0,0.9-0.3,1.7-1,2.4c-0.4,0.4-1.1,0.9-2.1,1.6
					c-1.1,0.7-1.7,1.3-1.9,1.9h5v1.3h-6.9c0-1,0.3-1.9,1-2.6c0.4-0.4,1.1-1,2.3-1.8c0.7-0.5,1.1-0.9,1.4-1.1
					c0.4-0.5,0.7-1.1,0.7-1.6c0-0.6-0.2-1-0.5-1.3c-0.3-0.3-0.8-0.4-1.4-0.4c-0.6,0-1.1,0.2-1.4,0.6c-0.3,0.4-0.5,1-0.5,1.8h-1.5
					c0-1.1,0.3-2,1-2.7c0.6-0.7,1.5-1.1,2.6-1.1C88.3,83.5,89.1,83.7,89.7,84.3z"/>
			</g>
		</g>
		<path class="st6" d="M103.2,113.2h-105v-51h105V113.2z M-0.8,112.2h103v-49h-103V112.2z"/>
	</g>
	<g transform="translate(20 9)">
		<g>
			<title  xmlns="http://www.w3.org/2000/svg">Product Icons【32】</title>
			<g id="_编组__20_">
				<g id="_编组_2_19_">
					<path id="_复合路径__19_" class="st11" d="M8.7,91.7c-7.2,0-13-5.8-13-13c0-7.2,5.8-13,13-13c6.4,0,11.9,4.7,12.9,11h2
						c-1.1-8.2-8.7-14-16.9-12.9s-14,8.7-12.9,16.9s8.7,14,16.9,12.9c6.7-0.9,12-6.2,12.9-12.9h-2C20.6,87,15.2,91.6,8.7,91.7z
						 M15.7,74.7l-7-4l-7,4v8l3.2,1.8c0.2-0.6,0.5-1.2,1-1.7l-2.2-1.3v-3.7l5,2.9l5-2.9v3.7l-4.1,2.4c-1-0.5-2.2-0.1-2.7,0.9
						c-0.5,1-0.1,2.2,0.9,2.7s2.2,0.1,2.7-0.9c0.1-0.3,0.2-0.6,0.2-0.9c0,0,0-0.1,0-0.1l5-2.9V74.7z M8.7,78.4L4,75.7L8.7,73
						l4.7,2.7L8.7,78.4z"/>
				</g>
			</g>
		</g>
	</g>
</g>
<g id="RectEndPoint8_23_" transform="translate(380,418)">
	<rect x="124.9" y="64.7" class="st4" width="104" height="50"/>
	<g>
		<rect x="122.9" y="62.7" class="st5" width="104" height="50"/>
		<g>
			<g>
				<path class="st8" d="M183.5,84.4c0.7,0.6,1.2,1.4,1.3,2.4h-1.5c-0.2-0.7-0.5-1.2-1-1.5c-0.5-0.3-1.1-0.5-1.8-0.5
					c-1.1,0-1.9,0.4-2.4,1.1c-0.5,0.7-0.8,1.6-0.8,2.8c0,1.2,0.3,2.1,0.8,2.8c0.5,0.7,1.4,1.1,2.5,1.1c0.7,0,1.3-0.2,1.8-0.5
					c0.5-0.4,0.9-1,1.1-1.8h1.5c-0.2,1.2-0.7,2.1-1.6,2.7c-0.8,0.6-1.7,0.9-2.8,0.9c-1.6,0-2.9-0.5-3.7-1.6
					c-0.7-0.9-1.1-2.1-1.1-3.6c0-1.5,0.4-2.7,1.1-3.6c0.8-1.1,2-1.6,3.6-1.6C181.7,83.5,182.7,83.8,183.5,84.4z"/>
				<path class="st8" d="M187.2,83.7l2.8,8.3h0l2.8-8.3h1.7l-3.6,10h-1.8l-3.6-10H187.2z"/>
				<path class="st8" d="M197.4,83.7l3.5,8h0l3.5-8h1.8v10h-1.5v-7.1h-0.1l-3.1,7.1h-1.3l-3.1-7.1h-0.1v7.1h-1.5v-10H197.4z"/>
				<path class="st8" d="M213.9,84.2c0.6,0.5,0.9,1.2,0.9,2c0,1.1-0.6,1.8-1.7,2.2c0.6,0.2,1,0.5,1.3,0.8c0.3,0.4,0.5,0.9,0.5,1.5
					c0,0.9-0.3,1.7-1,2.3c-0.7,0.6-1.6,0.9-2.6,0.9c-1,0-1.8-0.3-2.5-0.8c-0.7-0.6-1.1-1.4-1.2-2.6h1.5c0,0.7,0.2,1.2,0.7,1.6
					c0.4,0.3,0.8,0.5,1.4,0.5c0.6,0,1.2-0.2,1.6-0.6c0.3-0.3,0.5-0.7,0.5-1.2c0-0.6-0.2-1-0.5-1.3c-0.3-0.3-0.8-0.4-1.5-0.4h-0.7
					v-1.1h0.7c0.6,0,1.1-0.1,1.4-0.4c0.3-0.3,0.5-0.7,0.5-1.2s-0.2-0.9-0.4-1.1c-0.3-0.3-0.8-0.4-1.4-0.4c-0.6,0-1.1,0.2-1.4,0.5
					c-0.3,0.3-0.5,0.8-0.6,1.4H208c0.1-1,0.4-1.8,1.1-2.3c0.6-0.6,1.4-0.8,2.4-0.8C212.5,83.5,213.3,83.7,213.9,84.2z"/>
			</g>
		</g>
		<path class="st6" d="M227.4,113.2h-105v-51h105V113.2z M123.4,112.2h103v-49h-103V112.2z"/>
	</g>
	<g transform="translate(20 9)">
		<g>
			<title  xmlns="http://www.w3.org/2000/svg">Product Icons【32】</title>
			<g id="_编组__19_">
				<g id="_编组_2_18_">
					<path id="_复合路径__18_" class="st11" d="M132.9,91.7c-7.2,0-13-5.8-13-13s5.8-13,13-13c6.4,0,11.9,4.7,12.9,11h2
						c-1.1-8.2-8.7-14-16.9-12.9c-8.2,1.1-14,8.7-12.9,16.9s8.7,14,16.9,12.9c6.7-0.9,12-6.2,12.9-12.9h-2
						C144.8,87,139.4,91.6,132.9,91.7z M139.9,74.7l-7-4l-7,4v8l3.2,1.8c0.2-0.6,0.5-1.2,1-1.7l-2.2-1.3v-3.7l5,2.9l5-2.9v3.7
						l-4.1,2.4c-1-0.5-2.2-0.1-2.7,0.9c-0.5,1-0.1,2.2,0.9,2.7s2.2,0.1,2.7-0.9c0.1-0.3,0.2-0.6,0.2-0.9c0,0,0-0.1,0-0.1l5-2.9V74.7
						z M132.9,78.4l-4.7-2.7l4.7-2.7l4.7,2.7L132.9,78.4z"/>
				</g>
			</g>
		</g>
	</g>
</g>
<g>
	<path class="st13" d="M634,318.4h-6v1h6V318.4L634,318.4z M624,318.4h-6v1h6V318.4L624,318.4z M614,318.4h-6v1h6V318.4L614,318.4z
		 M604,318.4h-6v1h6V318.4L604,318.4z M594,318.4h-6v1h6V318.4L594,318.4z M584,318.4h-6v1h6V318.4L584,318.4z M574,318.4h-6v1h6
		V318.4L574,318.4z M564,318.4h-6v1h6V318.4L564,318.4z M554,318.4h-6v1h6V318.4L554,318.4z M544,318.4h-6v1h6V318.4L544,318.4z
		 M534,318.4h-6v1h6V318.4L534,318.4z M524,318.4h-6v1h6V318.4L524,318.4z M514,318.4h-6v1h6V318.4L514,318.4z M504,318.4h-6v1h6
		V318.4L504,318.4z M494,318.4h-6v1h6V318.4L494,318.4z M484,318.4h-6v1h6V318.4L484,318.4z M474,318.4h-6v1h6V318.4L474,318.4z
		 M464,318.4h-6v1h6V318.4L464,318.4z M454,318.4h-6v1h6V318.4L454,318.4z M444,318.4h-6v1h6V318.4L444,318.4z M434,318.4h-6v1h6
		V318.4L434,318.4z M424,318.4h-6v1h6V318.4L424,318.4z M414,318.4h-6v1h6V318.4L414,318.4z M404,318.4h-6v1h6V318.4L404,318.4z
		 M394,318.4h-6v1h6V318.4L394,318.4z M384,318.4h-6v1h6V318.4L384,318.4z M374,318.4h-6v1h6V318.4L374,318.4z M364,318.4h-6v1h6
		V318.4L364,318.4z M354,318.4h-6v1h6V318.4L354,318.4z M344,318.4h-6v1h6V318.4L344,318.4z M334,318.4h-6v1h6V318.4L334,318.4z
		 M324,318.4h-6v1h6V318.4L324,318.4z M314,318.4h-6v1h6V318.4L314,318.4z M304,318.4h-6v1h6V318.4L304,318.4z M294,318.4h-6v1h6
		V318.4L294,318.4z M284,318.4h-6v1h6V318.4L284,318.4z M274,318.4h-6v1h6V318.4L274,318.4z M264,318.4h-6v1h6V318.4L264,318.4z
		 M254,318.4h-6v1h6V318.4L254,318.4z M244,318.4h-6v1h6V318.4L244,318.4z M234.2,318.4h-1v1l0,0c0,1.5,0,4.2,0,4.2h1V318.4
		L234.2,318.4z M234.2,327.6h-1v6h1V327.6L234.2,327.6z M234.2,337.6h-1v6h1V337.6L234.2,337.6z M234.2,347.6h-1v6h1V347.6
		L234.2,347.6z M234.2,357.6h-1v6h1V357.6L234.2,357.6z M234.2,367.6h-1v6h1V367.6L234.2,367.6z M234.2,377.6h-1v6h1V377.6
		L234.2,377.6z M234.2,387.6h-1v6h1V387.6L234.2,387.6z M234.2,397.6h-1v6h1V397.6L234.2,397.6z M234.2,407.6h-1v6h1V407.6
		L234.2,407.6z M234.2,417.6h-1v6h1V417.6L234.2,417.6z M234.2,427.6h-1v6h1V427.6L234.2,427.6z M234.2,437.6h-1v6h1V437.6
		L234.2,437.6z M234.2,447.6h-1v6h1V447.6L234.2,447.6z M234.2,457.6h-1v6h1V457.6L234.2,457.6z M234.2,467.6h-1v6h1V467.6
		L234.2,467.6z M234.2,477.6h-1v6h1V477.6L234.2,477.6z M234.2,487.6h-1v6h1V487.6L234.2,487.6z M234.2,497.6h-1v6h1V497.6
		L234.2,497.6z M234.2,507.6h-1v6h1V507.6L234.2,507.6z M234.2,517.6h-1v6h1V517.6L234.2,517.6z M234.2,527.6h-1v6h1V527.6
		L234.2,527.6z M234.2,537.6h-1v6h1V537.6L234.2,537.6z M234.2,547.6h-1v6h1V547.6L234.2,547.6z M239.3,556.5h-6v1h6V556.5
		L239.3,556.5z M249.3,556.5h-6v1h6V556.5L249.3,556.5z M259.3,556.5h-6v1h6V556.5L259.3,556.5z M269.3,556.5h-6v1h6V556.5
		L269.3,556.5z M279.3,556.5h-6v1h6V556.5L279.3,556.5z M289.3,556.5h-6v1h6V556.5L289.3,556.5z M299.3,556.5h-6v1h6V556.5
		L299.3,556.5z M309.3,556.5h-6v1h6V556.5L309.3,556.5z M319.3,556.5h-6v1h6V556.5L319.3,556.5z M329.3,556.5h-6v1h6V556.5
		L329.3,556.5z M339.3,556.5h-6v1h6V556.5L339.3,556.5z M349.3,556.5h-6v1h6V556.5L349.3,556.5z M359.3,556.5h-6v1h6V556.5
		L359.3,556.5z M369.3,556.5h-6v1h6V556.5L369.3,556.5z M379.3,556.5h-6v1h6V556.5L379.3,556.5z M389.3,556.5h-6v1h6V556.5
		L389.3,556.5z M399.3,556.5h-6v1h6V556.5L399.3,556.5z M409.3,556.5h-6v1h6V556.5L409.3,556.5z M419.3,556.5h-6v1h6V556.5
		L419.3,556.5z M429.3,556.5h-6v1h6V556.5L429.3,556.5z M439.3,556.5h-6v1h6V556.5L439.3,556.5z M449.3,556.5h-6v1h6V556.5
		L449.3,556.5z M459.3,556.5h-6v1h6V556.5L459.3,556.5z M469.3,556.5h-6v1h6V556.5L469.3,556.5z M479.3,556.5h-6v1h6V556.5
		L479.3,556.5z M489.3,556.5h-6v1h6V556.5L489.3,556.5z M499.3,556.5h-6v1h6V556.5L499.3,556.5z M509.3,556.5h-6v1h6V556.5
		L509.3,556.5z M519.3,556.5h-6v1h6V556.5L519.3,556.5z M529.3,556.5h-6v1h6V556.5L529.3,556.5z M539.3,556.5h-6v1h6V556.5
		L539.3,556.5z M549.3,556.5h-6v1h6V556.5L549.3,556.5z M559.3,556.5h-6v1h6V556.5L559.3,556.5z M569.3,556.5h-6v1h6V556.5
		L569.3,556.5z M579.3,556.5h-6v1h6V556.5L579.3,556.5z M589.3,556.5h-6v1h6V556.5L589.3,556.5z M599.3,556.5h-6v1h6V556.5
		L599.3,556.5z M609.3,556.5h-6v1h6V556.5L609.3,556.5z M619.3,556.5h-6v1h6V556.5L619.3,556.5z M629.3,556.5h-6v1h6V556.5
		L629.3,556.5z M634,552.2h-1v5.4h0.4l0,0H633h0.4l0,0h0.6V552.2L634,552.2z M634,542.2h-1v6h1V542.2L634,542.2z M634,532.2h-1v6h1
		V532.2L634,532.2z M634,522.2h-1v6h1V522.2L634,522.2z M634,512.2h-1v6h1V512.2L634,512.2z M634,502.2h-1v6h1V502.2L634,502.2z
		 M634,492.2h-1v6h1V492.2L634,492.2z M634,482.2h-1v6h1V482.2L634,482.2z M634,472.2h-1v6h1V472.2L634,472.2z M634,462.2h-1v6h1
		V462.2L634,462.2z M634,452.2h-1v6h1V452.2L634,452.2z M634,442.2h-1v6h1V442.2L634,442.2z M634,432.2h-1v6h1V432.2L634,432.2z
		 M634,422.2h-1v6h1V422.2L634,422.2z M634,412.2h-1v6h1V412.2L634,412.2z M634,402.2h-1v6h1V402.2L634,402.2z M634,392.2h-1v6h1
		V392.2L634,392.2z M634,382.2h-1v6h1V382.2L634,382.2z M634,372.2h-1v6h1V372.2L634,372.2z M634,362.2h-1v6h1V362.2L634,362.2z
		 M634,352.2h-1v6h1V352.2L634,352.2z M634,342.2h-1v6h1V342.2L634,342.2z M634,332.2h-1v6h1V332.2L634,332.2z M634,322.2h-1v6h1
		V322.2L634,322.2z"/>
</g>
<g>
	<g>
		<path class="st8" d="M240.2,13.2v11h1.5v-11h1.5v11h4v1.4h-12.5v-1.4h4v-11H240.2z M238.1,22.2l-1.3,0.3c-0.5-2.2-1.1-4.3-1.8-6.3
			l1.2-0.4C236.9,17.7,237.6,19.8,238.1,22.2z M247,16.2c-0.5,2.4-1.2,4.5-2,6.3l-1.3-0.5c0.8-1.6,1.5-3.7,2-6.2L247,16.2z"/>
		<path class="st8" d="M254,13.3c-0.1,0.3-0.3,0.6-0.4,0.9h6v1.2c-0.8,1-1.8,1.8-3,2.4c1.5,0.5,3.1,0.9,4.9,1l-0.7,1.4
			c-2.2-0.3-4.1-0.8-5.9-1.6c-1.7,0.7-3.6,1.3-5.8,1.6l-0.7-1.4c1.8-0.2,3.4-0.6,4.9-1.1c-0.6-0.4-1.2-0.8-1.7-1.2
			c-0.5,0.4-1,0.7-1.5,1.1l-0.9-1.2c1.6-0.9,2.7-2.1,3.3-3.4L254,13.3z M255.4,19.4c0,0.5,0,0.9-0.1,1.4h4.8c0,2.5-0.2,4-0.6,4.5
			c-0.4,0.5-1.1,0.7-2.1,0.7c-0.5,0-1.1,0-1.8-0.1l-0.4-1.3c0.7,0,1.3,0.1,1.8,0.1c0.7,0,1.1-0.2,1.2-0.4c0.2-0.3,0.3-1,0.3-2.2
			h-3.7c-0.1,0.3-0.3,0.6-0.4,0.9c-0.7,1.2-2.3,2.3-4.9,3.1l-1-1.2c2.3-0.7,3.8-1.5,4.4-2.4c0.1-0.2,0.2-0.3,0.3-0.4h-3.8v-1.3h4.3
			c0.1-0.4,0.1-0.9,0.1-1.4H255.4z M257.4,15.6h-4.7l0,0c0.7,0.6,1.5,1.1,2.4,1.5C255.9,16.7,256.7,16.2,257.4,15.6z"/>
		<path class="st8" d="M267.7,14.6l3.8,10h-1.8l-0.9-2.5h-4.2l-0.9,2.5H262l3.8-10H267.7z M268.4,20.8l-1.6-4.4h-0.1l-1.6,4.4H268.4
			z"/>
	</g>
</g>
<g>
	<g>
		<path class="st8" d="M240.2,295.9v11h1.5v-11h1.5v11h4v1.4h-12.5v-1.4h4v-11H240.2z M238.1,305l-1.3,0.3c-0.5-2.2-1.1-4.3-1.8-6.3
			l1.2-0.4C236.9,300.4,237.6,302.5,238.1,305z M247,298.9c-0.5,2.4-1.2,4.5-2,6.3l-1.3-0.5c0.8-1.6,1.5-3.7,2-6.2L247,298.9z"/>
		<path class="st8" d="M254,296c-0.1,0.3-0.3,0.6-0.4,0.9h6v1.2c-0.8,1-1.8,1.8-3,2.4c1.5,0.5,3.1,0.9,4.9,1l-0.7,1.4
			c-2.2-0.3-4.1-0.8-5.9-1.6c-1.7,0.7-3.6,1.3-5.8,1.6l-0.7-1.4c1.8-0.2,3.4-0.6,4.9-1.1c-0.6-0.4-1.2-0.8-1.7-1.2
			c-0.5,0.4-1,0.7-1.5,1.1l-0.9-1.2c1.6-0.9,2.7-2.1,3.3-3.4L254,296z M255.4,302.2c0,0.5,0,0.9-0.1,1.4h4.8c0,2.5-0.2,4-0.6,4.5
			c-0.4,0.5-1.1,0.7-2.1,0.7c-0.5,0-1.1,0-1.8-0.1l-0.4-1.3c0.7,0,1.3,0.1,1.8,0.1c0.7,0,1.1-0.2,1.2-0.4c0.2-0.3,0.3-1,0.3-2.2
			h-3.7c-0.1,0.3-0.3,0.6-0.4,0.9c-0.7,1.2-2.3,2.3-4.9,3.1l-1-1.2c2.3-0.7,3.8-1.5,4.4-2.4c0.1-0.2,0.2-0.3,0.3-0.4h-3.8v-1.3h4.3
			c0.1-0.4,0.1-0.9,0.1-1.4H255.4z M257.4,298.3h-4.7l0,0c0.7,0.6,1.5,1.1,2.4,1.5C255.9,299.4,256.7,298.9,257.4,298.3z"/>
		<path class="st8" d="M267.6,297.4c1,0,1.8,0.2,2.3,0.7c0.5,0.4,0.8,1.1,0.8,1.8c0,0.6-0.1,1-0.4,1.4c-0.3,0.4-0.6,0.6-1.1,0.8
			c0.7,0.1,1.1,0.4,1.5,0.8c0.3,0.4,0.5,0.9,0.5,1.6c0,1-0.3,1.8-1,2.2c-0.6,0.4-1.4,0.6-2.5,0.6H263v-10H267.6z M264.6,301.6h2.5
			c0.7,0,1.2-0.1,1.5-0.4c0.3-0.2,0.4-0.6,0.4-1.1c0-0.5-0.2-0.8-0.4-1c-0.3-0.2-0.8-0.3-1.5-0.3h-2.5V301.6z M264.6,306h2.7
			c0.6,0,1.1-0.1,1.5-0.3c0.4-0.3,0.7-0.6,0.7-1.2c0-0.6-0.2-1-0.5-1.2c-0.3-0.3-0.9-0.4-1.6-0.4h-2.8V306z"/>
	</g>
</g>
<g>
	<g>
		<path class="st8" d="M658.2,292.8v11h1.5v-11h1.5v11h4v1.4h-12.5v-1.4h4v-11H658.2z M656.1,301.8l-1.3,0.3
			c-0.5-2.2-1.1-4.3-1.8-6.3l1.2-0.4C654.9,297.3,655.6,299.4,656.1,301.8z M665,295.8c-0.5,2.4-1.2,4.5-2,6.3l-1.3-0.5
			c0.8-1.6,1.5-3.7,2-6.2L665,295.8z"/>
		<path class="st8" d="M672,292.9c-0.1,0.3-0.3,0.6-0.4,0.9h6v1.2c-0.8,1-1.8,1.8-3,2.4c1.5,0.5,3.1,0.9,4.9,1l-0.7,1.4
			c-2.2-0.3-4.1-0.8-5.9-1.6c-1.7,0.7-3.6,1.3-5.8,1.6l-0.7-1.4c1.8-0.2,3.4-0.6,4.9-1.1c-0.6-0.4-1.2-0.8-1.7-1.2
			c-0.5,0.4-1,0.7-1.5,1.1l-0.9-1.2c1.6-0.9,2.7-2.1,3.3-3.4L672,292.9z M673.4,299c0,0.5,0,0.9-0.1,1.4h4.8c0,2.5-0.2,4-0.6,4.5
			c-0.4,0.5-1.1,0.7-2.1,0.7c-0.5,0-1.1,0-1.8-0.1l-0.4-1.3c0.7,0,1.3,0.1,1.8,0.1c0.7,0,1.1-0.2,1.2-0.4c0.2-0.3,0.3-1,0.3-2.2
			h-3.7c-0.1,0.3-0.3,0.6-0.4,0.9c-0.7,1.2-2.3,2.3-4.9,3.1l-1-1.2c2.3-0.7,3.8-1.5,4.4-2.4c0.1-0.2,0.2-0.3,0.3-0.4h-3.8v-1.3h4.3
			c0.1-0.4,0.1-0.9,0.1-1.4H673.4z M675.4,295.2h-4.7l0,0c0.7,0.6,1.5,1.1,2.4,1.5C673.9,296.3,674.7,295.8,675.4,295.2z"/>
		<path class="st8" d="M681.7,298.8l-1.3-0.4c0.4-1.5,0.6-3,0.6-4.7l1.3,0.1c0,0.5-0.1,1.1-0.1,1.6h0.6v-2.8h1.4v2.8h1v1.4h-1v2.8
			c0.3-0.1,0.6-0.3,0.9-0.4v1.4c-0.3,0.1-0.6,0.3-0.9,0.4v4.6h-1.4v-4c-0.6,0.2-1.3,0.4-1.9,0.6l-0.3-1.4c0.8-0.2,1.5-0.4,2.3-0.6
			v-3.3h-0.8C682,297.6,681.9,298.2,681.7,298.8z M688.2,293c-0.1,0.6-0.3,1.2-0.4,1.8h5.3c0,4.9-0.1,7.9-0.2,9
			c-0.2,1.2-1,1.8-2.4,1.8c-0.2,0-0.6,0-1.1-0.1l-0.3-1.3c0.4,0,0.8,0.1,1.2,0.1c0.7,0,1.2-0.4,1.3-1.2c0.1-0.7,0.1-3,0.2-6.9h-0.5
			c-0.3,2.2-0.7,4-1.2,5.4c-0.6,1.5-1.6,2.8-2.9,4l-0.9-1.2c1.1-1,2-2.2,2.6-3.5c0.5-1.2,0.9-2.8,1.1-4.7h-0.7
			c-0.6,3-1.6,5.2-3.2,6.5l-0.9-1.1c1.3-1.1,2.3-3,2.8-5.4h-0.6c-0.4,0.8-0.8,1.5-1.2,2.1l-1.1-0.9c0.9-1.1,1.5-2.7,1.8-4.7
			L688.2,293z"/>
		<path class="st8" d="M696.2,297.8v-2.9h-1.5v-1.4h4.6v1.4h-1.5v2.9h1.4v1.4h-1.4v2.6c0.4-0.2,0.9-0.3,1.3-0.5v1.4
			c-1.3,0.5-2.7,0.9-4.1,1.3l-0.4-1.4c0.6-0.1,1.1-0.2,1.7-0.3v-3.1h-1.3v-1.4H696.2z M706.8,293.2v6.8H704v1.3h3v1.4h-3v1.3h3.5
			v1.4H699v-1.4h3.6v-1.3h-3v-1.4h3V300h-2.9v-6.8H706.8z M702.5,295.9v-1.5h-1.5v1.5H702.5z M702.5,297.2h-1.5v1.5h1.5V297.2z
			 M704,295.9h1.4v-1.5H704V295.9z M705.4,297.2H704v1.5h1.4V297.2z"/>
		<path class="st8" d="M713.1,293.2v1.1c-0.3,1.2-0.6,2.5-1,3.8c0.6,1.3,0.9,2.4,1,3.4c0,0.7-0.1,1.2-0.3,1.5
			c-0.4,0.4-1,0.5-1.8,0.6l-0.5-1.5c0.3,0.1,0.6,0.1,0.8,0.1c0.2,0,0.3-0.1,0.4-0.2c0.1-0.1,0.1-0.3,0.1-0.5c0-0.9-0.3-2-1-3.2
			c0.4-1.4,0.8-2.7,1-3.8h-1.3v11.2H709v-12.5H713.1z M718.7,305.6l-0.4-1.3l1,0c0.3,0,0.4-0.1,0.4-0.4V300h-5.1v5.6h-1.3v-6.9h7.7
			v5.5c0,0.9-0.4,1.3-1.3,1.3H718.7z M721.2,293.2v1.3h-7.7v-1.3H721.2z M720.5,295v3.2h-6.4V295H720.5z M717.3,302
			c0.2-0.6,0.4-1.3,0.6-1.9l1.2,0.4c-0.2,0.5-0.4,1-0.6,1.5h0.8v1.1h-1.5v2.4h-1.3v-2.4H715V302H717.3z M716.9,301.7l-1.1,0.3
			c-0.1-0.5-0.3-1-0.5-1.4l1.1-0.4C716.5,300.6,716.7,301.1,716.9,301.7z M719.1,296.2h-3.7v0.9h3.7V296.2z"/>
		<path class="st8" d="M729.9,293.7h5.2v1.3h-12.1v-1.3h5.4c-0.1-0.3-0.3-0.5-0.4-0.8l1.5-0.3C729.6,292.9,729.7,293.3,729.9,293.7z
			 M732.2,295.5h1.4v4h-4.5c-0.1,0.2-0.2,0.4-0.2,0.7h5.6v4.2c0,0.9-0.5,1.4-1.4,1.4H732l-0.4-1.4l1,0.1c0.3,0,0.5-0.1,0.5-0.4v-2.5
			h-1.8c0.4,0.7,0.8,1.5,1.2,2.3l-1.2,0.6c-0.1-0.2-0.2-0.4-0.3-0.6c-1.1,0.2-2.8,0.4-5,0.7l-0.3-1.3c0.3,0,0.4-0.1,0.5-0.2
			c0.3-0.4,0.5-0.9,0.7-1.4H725v4.2h-1.4v-5.6h4l0.2-0.7h-3.3v-4h1.4v2.8h0.9l-0.6-0.9c0.7-0.2,1.3-0.4,1.9-0.6
			c-0.6-0.3-1.1-0.5-1.7-0.7l0.6-0.9c0.8,0.3,1.6,0.6,2.3,0.9c0.5-0.3,0.9-0.6,1.4-1l1,0.6c-0.4,0.4-0.8,0.7-1.2,1
			c0.5,0.2,1,0.5,1.4,0.8l-0.6,0.9h0.9V295.5z M727,298.3h4c-0.6-0.4-1.2-0.7-1.7-1C728.7,297.6,728,297.9,727,298.3z M728.4,301.5
			c-0.2,0.6-0.5,1.1-0.7,1.5c1-0.1,1.9-0.2,2.9-0.4c-0.2-0.4-0.4-0.8-0.7-1.1H728.4z"/>
		<path class="st8" d="M740.1,303.6c0.4,0.5,0.9,1,1.3,1.5l-1,0.8c-0.4-0.5-0.8-1-1.2-1.5c-0.5-0.5-1-1-1.6-1.5l0.9-0.8
			C739.1,302.5,739.6,303,740.1,303.6z"/>
		<path class="st8" d="M754.3,296.6c-0.7,0.7-1.6,1.3-2.6,2l-1-1.1c1.1-0.6,2-1.2,2.7-1.8L754.3,296.6z M757.8,300.7
			c-0.2,1.8-0.6,3-1.3,3.5c-0.7,0.7-2.4,1.2-5,1.4l-0.6-1.3c2.2-0.1,3.6-0.4,4.3-1c0.6-0.5,1-1.5,1.1-2.8L757.8,300.7z M754.1,293.9
			l-0.8,1.2c-0.7-0.5-1.5-0.8-2.3-1.1l0.7-1.1C752.6,293.1,753.4,293.5,754.1,293.9z M761.6,303.1h-1.5v-2.8h-6.3v3h-1.5v-4.4h9.2
			V303.1z M757.4,292.8c-0.1,0.3-0.2,0.5-0.3,0.8h5.4v0.9c-0.2,0.7-0.4,1.4-0.6,2l-1.4-0.4c0.2-0.3,0.4-0.8,0.5-1.2h-1.9
			c-0.1,0.3-0.1,0.5-0.2,0.7c0.7,1,2.1,1.6,4.2,2l-0.5,1.3c-2-0.4-3.4-1.1-4.3-2.1c-0.1,0.2-0.3,0.3-0.4,0.5
			c-0.6,0.7-1.8,1.2-3.4,1.6l-0.5-1.3c1.3-0.3,2.2-0.6,2.8-1.1c0.4-0.4,0.7-0.9,0.9-1.5h-1.4c-0.4,0.5-0.8,0.9-1.3,1.3l-0.9-1.1
			c0.9-0.6,1.4-1.4,1.8-2.4L757.4,292.8z M763,304.6l-0.8,1.2c-1.6-0.7-3.2-1.3-4.9-1.7l0.7-1.1C759.9,303.4,761.5,304,763,304.6z"
			/>
		<path class="st8" d="M767.8,298.4l-1,1c-0.5-0.6-1.3-1.3-2.3-2.1l1-0.9C766.4,297,767.2,297.7,767.8,298.4z M768,300.7
			c-0.6,1.8-1.3,3.4-2,5l-1.4-0.6c0.8-1.6,1.5-3.2,2.1-4.9L768,300.7z M768.3,295.1l-1,1c-0.6-0.7-1.4-1.4-2.5-2.2l1-0.9
			C766.7,293.6,767.6,294.4,768.3,295.1z M772.6,295.4c0.1-0.3,0.2-0.7,0.3-1H770v3.5c-0.1,3.2-0.6,5.8-1.6,7.8l-1.1-1
			c0.8-1.6,1.3-3.9,1.3-6.8v-4.8h8.6v1.3h-3c-0.1,0.3-0.2,0.7-0.3,1h2.6v5.2h-2.2v3.6c0,0.9-0.4,1.4-1.3,1.4h-1.2l-0.3-1.3
			c0.3,0.1,0.7,0.1,1,0.1c0.3,0,0.4-0.2,0.4-0.5v-3.3h-2.3v-5.2H772.6z M772.2,301.7c-0.3,1.3-0.8,2.3-1.4,3.3l-1.2-0.7
			c0.6-0.9,1.1-1.8,1.3-2.8L772.2,301.7z M775.3,297.5v-1H772v1H775.3z M775.3,298.6H772v0.9h3.3V298.6z M777.5,304.4l-1.2,0.5
			c-0.4-1.2-0.9-2.3-1.3-3.2l1.2-0.4C776.6,302.3,777.1,303.3,777.5,304.4z"/>
		<path class="st8" d="M783.9,293.6c-0.6,0.9-1.1,1.6-1.7,2.2c0.1,0.1,0.1,0.3,0.2,0.4c0.4,1.1,0.6,2.7,0.7,4.8
			c0,2.3-0.3,3.7-0.8,4.1c-0.3,0.3-0.8,0.4-1.3,0.4c-0.5,0-0.9,0-1.2,0l-0.4-1.4c0.5,0.1,0.9,0.1,1.3,0.1c0.4,0,0.6-0.1,0.7-0.2
			c0.3-0.3,0.4-1.4,0.4-3.1c0-0.3,0-0.7,0-1c-0.6,0.9-1.4,1.6-2.2,2.2l-0.8-1.2c1.2-0.8,2.2-1.7,2.9-2.8c-0.1-0.5-0.2-1-0.3-1.3
			c0,0,0,0,0,0c-0.5,0.4-1.1,0.8-1.7,1.1l-0.8-1.3c0.6-0.3,1.2-0.7,1.8-1.1c-0.4-0.6-0.9-1.1-1.4-1.6l1.1-0.9c0.5,0.5,0.9,1,1.3,1.5
			c0.4-0.5,0.8-1,1.2-1.6L783.9,293.6z M786.5,294.9v-2.2h1.5v2.2h2.7v6H788v2.6c0.5-0.1,1-0.2,1.5-0.3c-0.2-0.5-0.3-1.1-0.5-1.6
			l1.2-0.4c0.5,1.2,0.9,2.5,1.2,4.1l-1.3,0.3c-0.1-0.4-0.2-0.8-0.3-1.2c-1.3,0.3-3.4,0.6-6.3,0.8l-0.2-1.5c1.2-0.1,2.2-0.1,3.2-0.2
			V301h-2.7v-6H786.5z M786.5,296.3h-1.3v3.3h1.3V296.3z M789.3,296.3h-1.3v3.3h1.3V296.3z"/>
		<path class="st8" d="M798.5,301.9v-0.4l2.5-1h-7.1v-1.3h10v1c-1.1,0.5-2.4,1-3.9,1.6h5.4v1.3H800v0.9c0,1-0.5,1.5-1.5,1.5h-1.9
			l-0.4-1.3c0.7,0.1,1.3,0.1,1.8,0.1c0.4,0,0.6-0.3,0.6-0.7v-0.5h-6v-1.3H798.5z M799.6,293.7h5.5v1.4h-12.3v-1.4h5.1
			c-0.2-0.3-0.3-0.5-0.5-0.8l1.7-0.3C799.3,293,799.5,293.3,799.6,293.7z M803.4,295.6v3.1h-8.8v-3.1H803.4z M802,296.8h-6v0.7h6
			V296.8z"/>
	</g>
</g>
</svg>
