<?xml version="1.0" encoding="UTF-8"?>
<svg width="48px" height="48px" viewBox="0 0 48 48" version="1.1" xmlns="http://www.w3.org/2000/svg" xmlns:xlink="http://www.w3.org/1999/xlink">
    <!-- Generator: Sketch 52.2 (67145) - http://www.bohemiancoding.com/sketch -->
    <title>高效搜索-48x48</title>
    <desc>Created with Sketch.</desc>
    <g id="高效搜索-48x48" stroke="none" stroke-width="1" fill="none" fill-rule="evenodd">
        <g id="高效搜索-48x48-01" fill-rule="nonzero">
            <path d="M30.494,4 L48,4 L48,48 L4,48 L4,30.494 C4.64030845,30.9496138 5.30825723,31.365078 6,31.738 L6,46 L46,46 L46,6 L31.737,6 C31.3644015,5.30828339 30.9492717,4.64033518 30.494,4 Z" id="Combined-Shape" fill="#334966"></path>
            <path d="M28.7,12.1 C29.6831151,16.7353981 28.2547556,21.5534975 24.9041266,24.9041266 C21.5534975,28.2547556 16.7353981,29.6831151 12.1,28.7 C12.9871308,36.4947797 19.730765,42.2893599 27.5702684,41.9930863 C35.4097719,41.6968126 41.6968126,35.4097719 41.9930863,27.5702684 C42.2893599,19.730765 36.4947797,12.9871308 28.7,12.1 Z" id="Shape" fill="#00A4FF"></path>
            <path d="M15,30 C6.71572875,30 1.01453063e-15,23.2842712 0,15 C-1.01453063e-15,6.71572875 6.71572875,1.52179594e-15 15,0 C23.2842712,-1.52179594e-15 30,6.71572875 30,15 C29.9906315,23.2803876 23.2803876,29.9906315 15,30 Z M15,2 C7.82029825,2 2,7.82029825 2,15 C2,22.1797017 7.82029825,28 15,28 C22.1797017,28 28,22.1797017 28,15 C27.9922839,7.82349679 22.1765032,2.00771608 15,2 Z" id="Shape" fill="#334966"></path>
            <rect id="Rectangle" fill="#334966" transform="translate(29.604025, 29.603646) rotate(-45.000000) translate(-29.604025, -29.603646) " x="28.6040247" y="22.6791464" width="2" height="13.849"></rect>
            <rect id="Rectangle-20" fill="#00A4FF" x="9" y="11" width="6" height="2"></rect>
            <rect id="Rectangle-20-Copy" fill="#00A4FF" x="9" y="17" width="12" height="2"></rect>
        </g>
    </g>
</svg>