<?xml version="1.0" encoding="UTF-8"?>
<svg width="32px" height="32px" viewBox="0 0 32 32" version="1.1" xmlns="http://www.w3.org/2000/svg" xmlns:xlink="http://www.w3.org/1999/xlink">
    <!-- Generator: Sketch 52.6 (67491) - http://www.bohemiancoding.com/sketch -->
    <title>数据库安全治理中心-32px-灰</title>
    <desc>Created with Sketch.</desc>
    <g id="数据库安全治理中心-32px-灰" stroke="none" stroke-width="1" fill="none" fill-rule="evenodd">
        <rect id="Rectangle-Copy" fill="#444444" opacity="0" x="0" y="0" width="32" height="32"></rect>
        <g id="32x32" transform="translate(3.000000, 2.000000)" fill="#7C848E">
            <path d="M26,0 L0,0 L0,15.23 C0,15.23 0.1,26 13,29 C25.9,26 26,15.23 26,15.23 L26,6 L24,6 L24,15.22 C23.888649,16.9187276 23.4110552,18.5732489 22.6,20.07 C20.79,23.5 17.53,25.81 13,27 C2.32,24.25 2,15.59 2,15.23 L2,2 L26,2 L26,0 Z" id="Path"></path>
            <path d="M18.28,14 C18.6351046,14.6150891 19.2897779,14.9957131 20,15 C21.1045695,15 22,14.1045695 22,13 C22,11.8954305 21.1045695,11 20,11 C19.2897779,11.0042869 18.6351046,11.3849109 18.28,12 L16.83,12 C16.6191127,11.2734028 16.206481,10.621514 15.64,10.12 L16.76,7.83 C17.6689283,7.76865855 18.4215562,7.1008284 18.5905979,6.20565339 C18.7596397,5.31047839 18.3023772,4.41417666 17.4784097,4.02560108 C16.6544422,3.6370255 15.6719932,3.85437233 15.0888234,4.55424835 C14.5056536,5.25412437 14.469135,6.25966511 15,7 L13.9,9.25 C12.9199775,9.02244457 11.8898139,9.18755789 11.03,9.71 L7.83,6.71 C7.87020852,6.55998562 7.89038373,6.40530902 7.89,6.25 C7.89,5.1454305 6.9945695,4.25 5.89,4.25 C4.7854305,4.25 3.89,5.1454305 3.89,6.25 C3.89,7.3545695 4.7854305,8.25 5.89,8.25 C6.07993513,8.24609277 6.26840525,8.21580293 6.45,8.16 L9.61,11.16 C9.24698875,11.7647512 9.05034244,12.4547382 9.04,13.16 C9.04646668,13.5889701 9.12071669,14.0142201 9.26,14.42 L7.55,16.13 C7.37339814,16.0619647 7.18837363,16.0182316 7,16 C5.8954305,16 5,16.8954305 5,18 C5,19.1045695 5.8954305,20 7,20 C8.1045695,20 9,19.1045695 9,18 C8.9977719,17.827765 8.97426026,17.6564659 8.93,17.49 L10.34,16.07 C11.0743812,16.7176758 12.020823,17.073481 13,17.07 C13.4643128,17.0652456 13.92435,16.9806799 14.36,16.82 L15.44,18.43 C15.0470201,19.2320445 15.2334642,20.1974363 15.8968382,20.7954693 C16.5602122,21.3935023 17.5397011,21.4792015 18.2968491,21.0054553 C19.0539971,20.531709 19.4052565,19.6133629 19.1575291,18.7552605 C18.9098016,17.8971582 18.1231413,17.3073206 17.23,17.31 L17.1,17.31 L16,15.71 C16.4316361,15.2210799 16.7371754,14.6340325 16.89,14 L18.28,14 Z M13,15.1 C11.8954305,15.1 11,14.2045695 11,13.1 C11,11.9954305 11.8954305,11.1 13,11.1 C14.1045695,11.1 15,11.9954305 15,13.1 C15,14.2045695 14.1045695,15.1 13,15.1 Z" id="Shape" fill-rule="nonzero"></path>
        </g>
    </g>
</svg>