<?xml version="1.0" encoding="UTF-8"?>
<svg width="48px" height="48px" viewBox="0 0 48 48" version="1.1" xmlns="http://www.w3.org/2000/svg" xmlns:xlink="http://www.w3.org/1999/xlink">
    <!-- Generator: Sketch 52.6 (67491) - http://www.bohemiancoding.com/sketch -->
    <title>快速入门-48px</title>
    <desc>Created with Sketch.</desc>
    <g id="快速入门-48px" stroke="none" stroke-width="1" fill="none" fill-rule="evenodd">
        <rect id="Rectangle-Copy" fill="#444444" opacity="0" x="0" y="0" width="48" height="48"></rect>
        <g id="event-translate" transform="translate(2.000000, 3.000000)">
            <polygon id="Rectangle-57" fill="#00A4FF" points="29 1 37 1 37 14 33 11 29 14"></polygon>
            <polygon id="Fill-17" fill="#334966" fill-rule="nonzero" points="13 15 23 15 23 13 13 13"></polygon>
            <polygon id="Fill-18" fill="#334966" fill-rule="nonzero" points="13 22 37 22 37 20 13 20"></polygon>
            <path d="M8,1 L8,41 L42,41 L42,1 L8,1 Z M44,-1 L44,43 L6,43 L6,-1 L44,-1 Z" id="Rectangle-7" fill="#334966" fill-rule="nonzero"></path>
            <rect id="Rectangle-22" fill="#334966" fill-rule="nonzero" x="0" y="16" width="2" height="27"></rect>
            <rect id="Rectangle-23" fill="#334966" fill-rule="nonzero" x="0" y="41" width="11" height="2"></rect>
            <rect id="Rectangle-26" fill="#334966" fill-rule="nonzero" x="0" y="16" width="4" height="2"></rect>
            <rect id="Rectangle" fill="#00A4FF" fill-rule="nonzero" x="17" y="31" width="18" height="5"></rect>
            <path d="M14,28 L14,36 L36,36 L36,28 L14,28 Z" id="Rectangle" stroke="#334966" stroke-width="2" fill-rule="nonzero"></path>
        </g>
    </g>
</svg>