<?xml version="1.0" encoding="UTF-8"?>
<svg width="32px" height="32px" viewBox="0 0 32 32" version="1.1" xmlns="http://www.w3.org/2000/svg" xmlns:xlink="http://www.w3.org/1999/xlink">
    <!-- Generator: Sketch 52.6 (67491) - http://www.bohemiancoding.com/sketch -->
    <title>催收机器人 CR-32px</title>
    <desc>Created with Sketch.</desc>
    <g id="催收机器人-CR-32px" stroke="none" stroke-width="1" fill="none" fill-rule="evenodd">
        <rect id="Rectangle-Copy" fill="#444444" opacity="0" x="0" y="0" width="32" height="32"></rect>
        <g id="Group" transform="translate(0.000000, 2.000000)">
            <g id="XMLID_62_" transform="translate(5.000000, 12.000000)" fill="#7C848E" fill-rule="nonzero">
                <rect id="XMLID_6_" x="0" y="0" width="2" height="6"></rect>
            </g>
            <g id="XMLID_112_" transform="translate(21.000000, 12.000000)" fill="#7C848E" fill-rule="nonzero">
                <rect id="XMLID_5_" x="0" y="0" width="2" height="6"></rect>
            </g>
            <g id="XMLID_109_" transform="translate(9.000000, 10.000000)" fill="#7C848E" fill-rule="nonzero">
                <rect id="XMLID_4_" x="0" y="0" width="2" height="10"></rect>
            </g>
            <g id="XMLID_111_" transform="translate(17.000000, 10.000000)" fill="#7C848E" fill-rule="nonzero">
                <rect id="XMLID_3_" x="0" y="0" width="2" height="10"></rect>
            </g>
            <g id="XMLID_110_" transform="translate(13.000000, 8.000000)" fill="#7C848E" fill-rule="nonzero">
                <rect id="XMLID_2_" x="0" y="0" width="2" height="14"></rect>
            </g>
            <g id="XMLID_35_" transform="translate(13.000000, 12.000000)" fill="#7C848E" fill-rule="nonzero">
                <circle id="Oval" cx="16" cy="2" r="2"></circle>
                <circle id="Oval-Copy" cx="2" cy="16" r="2"></circle>
            </g>
            <path d="M15,28 C20.9184582,28 25.9757265,24.2670886 28,19 M29,14 C29,6.2680135 22.7319865,0 15,0 C7.2680135,0 1,6.2680135 1,14" id="Oval-34" stroke="#7C848E" stroke-width="2"></path>
            <rect id="Rectangle-97" fill="#7C848E" x="0" y="14" width="7" height="2"></rect>
        </g>
    </g>
</svg>