<?xml version="1.0" encoding="utf-8"?>
<!-- Generator: Adobe Illustrator 22.1.0, SVG Export Plug-In . SVG Version: 6.00 Build 0)  -->
<svg version="1.1" id="svgwrapper_svg" xmlns="http://www.w3.org/2000/svg" xmlns:xlink="http://www.w3.org/1999/xlink" x="0px"
	 y="0px" width="830px" height="251.3px" viewBox="0 0 830 251.3" style="enable-background:new 0 0 830 251.3;"
	 xml:space="preserve">
<style type="text/css">
	.st0{fill:none;stroke:#999999;}
	.st1{fill:#888888;}
	.st2{fill:none;stroke:#FF0000;stroke-width:15;stroke-opacity:0;}
	.st3{fill:#FF0000;fill-opacity:0;}
	.st4{fill:none;stroke:#878787;stroke-miterlimit:10;}
	.st5{fill:#BABABA;}
	.st6{fill:#444444;}
	.st7{fill:#CEE3FF;}
	.st8{opacity:0.6;fill:#BBBBBB;enable-background:new    ;}
	.st9{fill:#FFFFFF;}
	.st10{fill:#E5E5E5;}
	.st11{fill:#00A4FF;}
	.st12{fill:#2277DA;}
</style>
<path class="st0" d="M-1231.1-1415.3L-1231.1-1415.3"/>
<g id="assistantgroup" transform="translate(0,0)">
</g>
<g>
	<g id="Link14_2_" transform="translate(0,0)">
		<polygon class="st1" points="538.9,177.7 538.9,178.7 488.4,178.7 488.4,92.1 489.4,92.1 489.4,177.7 		"/>
		<g transform="translate(0, 0.5)">
			<polygon class="st1" points="534.4,182.2 540.4,177.7 534.4,173.2 			"/>
		</g>
		<path class="st2" d="M488.9,117.2"/>
		<rect x="481.4" y="117.2" class="st3" width="15" height="61"/>
		<rect x="488.9" y="228.7" class="st3" width="50" height="35"/>
	</g>
	<g id="Link16_2_" transform="translate(0,0)">
		<polygon class="st1" points="538.9,78.7 538.9,79.7 489.4,79.7 489.4,130.6 453.9,130.6 453.9,129.6 488.4,129.6 488.4,78.7 		"/>
		<g transform="translate(0, 0.5)">
			<polygon class="st1" points="534.4,83.2 540.4,78.7 534.4,74.2 			"/>
		</g>
		<rect x="481.4" y="79.2" class="st3" width="15" height="21"/>
		<path class="st2" d="M538.9,79.2"/>
	</g>
	<line class="st4" x1="420" y1="130.1" x2="454" y2="130.1"/>
	<g>
		<path class="st5" d="M674.1,4.6h-6v1h6V4.6L674.1,4.6z M664.1,4.6h-6v1h6V4.6L664.1,4.6z M654.1,4.6h-6v1h6V4.6L654.1,4.6z
			 M644.1,4.6h-6v1h6V4.6L644.1,4.6z M634.1,4.6h-6v1h6V4.6L634.1,4.6z M624.1,4.6h-6v1h6V4.6L624.1,4.6z M614.1,4.6h-6v1h6V4.6
			L614.1,4.6z M604.1,4.6h-6v1h6V4.6L604.1,4.6z M594.1,4.6h-6v1h6V4.6L594.1,4.6z M584.1,4.6h-6v1h6V4.6L584.1,4.6z M574.1,4.6h-6
			v1h6V4.6L574.1,4.6z M564.1,4.6h-6v1h6V4.6L564.1,4.6z M554.1,4.6h-6v1h6V4.6L554.1,4.6z M544.1,4.6h-6v1h6V4.6L544.1,4.6z
			 M534.1,4.6h-6v1h6V4.6L534.1,4.6z M524.1,4.6h-6v1h6V4.6L524.1,4.6z M514.1,4.6h-6v1h6V4.6L514.1,4.6z M504.1,4.6h-6v1h6V4.6
			L504.1,4.6z M494.1,4.6h-6v1h6V4.6L494.1,4.6z M484.1,4.6h-6v1h6V4.6L484.1,4.6z M474.1,4.6h-6v1h6V4.6L474.1,4.6z M464.1,4.6h-6
			v1h6V4.6L464.1,4.6z M454.1,4.6h-6v1h6V4.6L454.1,4.6z M444.1,4.6h-6v1h6V4.6L444.1,4.6z M434.1,4.6h-6v1h6V4.6L434.1,4.6z
			 M424.1,4.6h-6v1h6V4.6L424.1,4.6z M414.1,4.6h-6v1h6V4.6L414.1,4.6z M404.1,4.6h-6v1h6V4.6L404.1,4.6z M394.1,4.6h-6v1h6V4.6
			L394.1,4.6z M384.1,4.6h-6v1h6V4.6L384.1,4.6z M374.1,4.6h-6v1h6V4.6L374.1,4.6z M364.1,4.6h-6v1h6V4.6L364.1,4.6z M354.1,4.6h-6
			v1h6V4.6L354.1,4.6z M344.1,4.6h-6v1h6V4.6L344.1,4.6z M334.1,4.6h-6v1h6V4.6L334.1,4.6z M324.1,4.6h-6v1h6V4.6L324.1,4.6z
			 M314.1,4.6h-6v1h6V4.6L314.1,4.6z M304.1,4.6h-6v1h6V4.6L304.1,4.6z M294.1,4.6h-6v1h6V4.6L294.1,4.6z M284.1,4.6h-6v1h6V4.6
			L284.1,4.6z M274.1,4.6h-6v1h6V4.6L274.1,4.6z M264.1,4.6h-6v1h6V4.6L264.1,4.6z M254.1,4.6h-6v1h6V4.6L254.1,4.6z M244.1,4.6h-6
			v1h6V4.6L244.1,4.6z M234.1,4.6h-6v1h6V4.6L234.1,4.6z M224.1,4.6h-6v1h6V4.6L224.1,4.6z M214.1,4.6h-6v1h6V4.6L214.1,4.6z
			 M204.1,4.6h-6v1h6V4.6L204.1,4.6z M194.1,4.6h-6v1h6V4.6L194.1,4.6z M184.1,4.6h-6v1h6V4.6L184.1,4.6z M174.1,4.6h-6v1h6V4.6
			L174.1,4.6z M164.1,4.6h-6v1h6V4.6L164.1,4.6z M154.1,4.6h-6v1h6V4.6L154.1,4.6z M147.7,7.1h-1v6h1V7.1L147.7,7.1z M147.7,17.1h-1
			v6h1V17.1L147.7,17.1z M147.7,27.1h-1v6h1V27.1L147.7,27.1z M147.7,37.1h-1v6h1V37.1L147.7,37.1z M147.7,47.1h-1v6h1V47.1
			L147.7,47.1z M147.7,57.1h-1v6h1V57.1L147.7,57.1z M147.7,67.1h-1v6h1V67.1L147.7,67.1z M147.7,77.1h-1v6h1V77.1L147.7,77.1z
			 M147.7,87.1h-1v6h1V87.1L147.7,87.1z M147.7,97.1h-1v6h1V97.1L147.7,97.1z M147.7,107.1h-1v6h1V107.1L147.7,107.1z M147.7,117.1
			h-1v6h1V117.1L147.7,117.1z M147.7,127.1h-1v6h1V127.1L147.7,127.1z M147.7,137.1h-1v6h1V137.1L147.7,137.1z M147.7,147.1h-1v6h1
			V147.1L147.7,147.1z M147.7,157.1h-1v6h1V157.1L147.7,157.1z M147.7,167.1h-1v6h1V167.1L147.7,167.1z M147.7,177.1h-1v6h1V177.1
			L147.7,177.1z M147.7,187.1h-1v6h1V187.1L147.7,187.1z M147.7,197.1h-1v6h1V197.1L147.7,197.1z M147.7,207.1h-1v6h1V207.1
			L147.7,207.1z M147.7,217.1h-1v6h1V217.1L147.7,217.1z M147.7,227.1h-1v6h1V227.1L147.7,227.1z M147.7,237.1h-1v6h1V237.1
			L147.7,237.1z M152.2,246.6h-5.5v0.5l0,0v-0.5v0.5l0,0v0.5h1l0,0l0,0l0,0l0,0c1.6,0,4.5,0,4.5,0V246.6L152.2,246.6z M162.2,246.6
			h-6v1h6V246.6L162.2,246.6z M172.2,246.6h-6v1h6V246.6L172.2,246.6z M182.2,246.6h-6v1h6V246.6L182.2,246.6z M192.2,246.6h-6v1h6
			V246.6L192.2,246.6z M202.2,246.6h-6v1h6V246.6L202.2,246.6z M212.2,246.6h-6v1h6V246.6L212.2,246.6z M222.2,246.6h-6v1h6V246.6
			L222.2,246.6z M232.2,246.6h-6v1h6V246.6L232.2,246.6z M242.2,246.6h-6v1h6V246.6L242.2,246.6z M252.2,246.6h-6v1h6V246.6
			L252.2,246.6z M262.2,246.6h-6v1h6V246.6L262.2,246.6z M272.2,246.6h-6v1h6V246.6L272.2,246.6z M282.2,246.6h-6v1h6V246.6
			L282.2,246.6z M292.2,246.6h-6v1h6V246.6L292.2,246.6z M302.2,246.6h-6v1h6V246.6L302.2,246.6z M312.2,246.6h-6v1h6V246.6
			L312.2,246.6z M322.2,246.6h-6v1h6V246.6L322.2,246.6z M332.2,246.6h-6v1h6V246.6L332.2,246.6z M342.2,246.6h-6v1h6V246.6
			L342.2,246.6z M352.2,246.6h-6v1h6V246.6L352.2,246.6z M362.2,246.6h-6v1h6V246.6L362.2,246.6z M372.2,246.6h-6v1h6V246.6
			L372.2,246.6z M382.2,246.6h-6v1h6V246.6L382.2,246.6z M392.2,246.6h-6v1h6V246.6L392.2,246.6z M402.2,246.6h-6v1h6V246.6
			L402.2,246.6z M412.2,246.6h-6v1h6V246.6L412.2,246.6z M422.2,246.6h-6v1h6V246.6L422.2,246.6z M432.2,246.6h-6v1h6V246.6
			L432.2,246.6z M442.2,246.6h-6v1h6V246.6L442.2,246.6z M452.2,246.6h-6v1h6V246.6L452.2,246.6z M462.2,246.6h-6v1h6V246.6
			L462.2,246.6z M472.2,246.6h-6v1h6V246.6L472.2,246.6z M482.2,246.6h-6v1h6V246.6L482.2,246.6z M492.2,246.6h-6v1h6V246.6
			L492.2,246.6z M502.2,246.6h-6v1h6V246.6L502.2,246.6z M512.2,246.6h-6v1h6V246.6L512.2,246.6z M522.2,246.6h-6v1h6V246.6
			L522.2,246.6z M532.2,246.6h-6v1h6V246.6L532.2,246.6z M542.2,246.6h-6v1h6V246.6L542.2,246.6z M552.2,246.6h-6v1h6V246.6
			L552.2,246.6z M562.2,246.6h-6v1h6V246.6L562.2,246.6z M572.2,246.6h-6v1h6V246.6L572.2,246.6z M582.2,246.6h-6v1h6V246.6
			L582.2,246.6z M592.2,246.6h-6v1h6V246.6L592.2,246.6z M602.2,246.6h-6v1h6V246.6L602.2,246.6z M612.2,246.6h-6v1h6V246.6
			L612.2,246.6z M622.2,246.6h-6v1h6V246.6L622.2,246.6z M632.2,246.6h-6v1h6V246.6L632.2,246.6z M642.2,246.6h-6v1h6V246.6
			L642.2,246.6z M652.2,246.6h-6v1h6V246.6L652.2,246.6z M662.2,246.6h-6v1h6V246.6L662.2,246.6z M672.2,246.6h-6v1h6V246.6
			L672.2,246.6z M682.2,246.6h-6v1h6V246.6L682.2,246.6z M684.1,239.5h-1v6h1V239.5L684.1,239.5z M684.1,229.5h-1v6h1V229.5
			L684.1,229.5z M684.1,219.5h-1v6h1V219.5L684.1,219.5z M684.1,209.5h-1v6h1V209.5L684.1,209.5z M684.1,199.5h-1v6h1V199.5
			L684.1,199.5z M684.1,189.5h-1v6h1V189.5L684.1,189.5z M684.1,179.5h-1v6h1V179.5L684.1,179.5z M684.1,169.5h-1v6h1V169.5
			L684.1,169.5z M684.1,159.5h-1v6h1V159.5L684.1,159.5z M684.1,149.5h-1v6h1V149.5L684.1,149.5z M684.1,139.5h-1v6h1V139.5
			L684.1,139.5z M684.1,129.5h-1v6h1V129.5L684.1,129.5z M684.1,119.5h-1v6h1V119.5L684.1,119.5z M684.1,109.5h-1v6h1V109.5
			L684.1,109.5z M684.1,99.5h-1v6h1V99.5L684.1,99.5z M684.1,89.5h-1v6h1V89.5L684.1,89.5z M684.1,79.5h-1v6h1V79.5L684.1,79.5z
			 M684.1,69.5h-1v6h1V69.5L684.1,69.5z M684.1,59.5h-1v6h1V59.5L684.1,59.5z M684.1,49.5h-1v6h1V49.5L684.1,49.5z M684.1,39.5h-1v6
			h1V39.5L684.1,39.5z M684.1,29.5h-1v6h1V29.5L684.1,29.5z M684.1,19.5h-1v6h1V19.5L684.1,19.5z M684.1,9.5h-1v6h1V9.5L684.1,9.5z
			 M684.1,4.6h-6v1h6V4.6L684.1,4.6z"/>
	</g>
	<g>
		<g>
			<path class="st6" d="M172.2,21.9c-0.2,0.2-0.3,0.5-0.5,0.7h4.9v1.2c-0.5,0.7-1.2,1.3-2.1,1.9c1.4,0.4,2.9,0.7,4.6,0.8l-0.3,1.3
				c-2.2-0.1-4.2-0.6-5.8-1.3c-1.6,0.7-3.7,1.2-6.2,1.6l-0.6-1.3c2.1-0.3,3.8-0.7,5.2-1.1c-0.5-0.3-1-0.7-1.5-1.1
				c-0.5,0.4-1.1,0.8-1.6,1.2l-0.9-1.1c1.2-0.7,2.3-1.7,3.3-3L172.2,21.9z M178.6,23.1h-1.5v-1.6h-8.8v1.6h-1.5v-2.9h5
				c-0.1-0.3-0.3-0.5-0.4-0.7l1.6-0.3c0.1,0.3,0.3,0.6,0.4,1h5.2V23.1z M177.1,32.3h-1.4v-0.5h-5.5v0.5h-1.4v-4.6h8.3L177.1,32.3
				L177.1,32.3z M175.6,30.5V29h-5.5v1.5H175.6z M174.9,23.8h-3.8c0.6,0.4,1.2,0.8,1.9,1.2C173.8,24.6,174.4,24.2,174.9,23.8z"/>
			<path class="st6" d="M181.2,32.3l-1.1-1c1-1.5,1.6-3.4,1.6-5.8v-4.7h4.5c-0.2-0.5-0.5-1-0.7-1.4l1.6-0.3c0.2,0.5,0.4,1.1,0.7,1.7
				h4.4v5.1h-9C183.1,28.4,182.4,30.5,181.2,32.3z M183.2,22.3v2.2h7.5v-2.2H183.2z"/>
			<path class="st6" d="M206.7,32.3h-1.4v-0.5h-9v0.5h-1.4V19.7h11.9v12.6C206.8,32.3,206.7,32.3,206.7,32.3z M205.3,30.5V21h-9v9.5
				H205.3z M200,22.2v-0.8h1.4v0.8h3.1v1.2h-3.1v0.7h2.5v1.2h-2.5V26h3.3c0,1.6-0.2,2.6-0.4,3s-0.8,0.6-1.6,0.6
				c-0.2,0-0.4,0-0.6-0.1l-0.4-1.2c0.3,0,0.6,0.1,0.8,0.1c0.3,0,0.5-0.1,0.6-0.2s0.1-0.4,0.1-1h-1.9V30H200v-2.8h-3.2V26h3.2v-0.7
				h-2.4v-1.2h2.4v-0.7h-3v-1.2C197,22.2,200,22.2,200,22.2z"/>
			<path class="st6" d="M209.6,23.5l-1.3-0.8c0.9-1.1,1.5-2.2,1.9-3.4l1.4,0.3c-0.1,0.3-0.2,0.6-0.3,0.9h3.4v1.3h-1.9
				c0.2,0.3,0.4,0.7,0.5,1l-1.3,0.5c-0.2-0.5-0.5-1-0.7-1.5h-0.6C210.4,22.4,210,23,209.6,23.5z M212.7,24.8c0-0.3,0-0.6,0-1v-0.7
				h1.5v0.4c0,0.4,0,0.9-0.1,1.3h4c-0.6-0.4-1.3-0.8-2-1l0.7-1c0.9,0.4,1.8,0.8,2.5,1.4l-0.4,0.7h1.9v1.4h-4.3v2.4
				c1-0.6,1.8-1.3,2.5-2.1l1.1,0.8c-0.8,1-1.6,1.7-2.5,2.3c-0.3,0.2-0.6,0.4-1,0.5v0.2c0,0.3,0.1,0.4,0.4,0.4h2.1
				c0.2,0,0.4-0.1,0.5-0.2c0.1-0.2,0.2-0.7,0.3-1.5l1.3,0.4c-0.1,1.3-0.3,2-0.6,2.3c-0.3,0.2-0.7,0.3-1.2,0.3h-2.8
				c-0.9,0-1.4-0.4-1.5-1.3c-0.6,0.3-1.3,0.5-2,0.8l-0.6-1.3c0.9-0.2,1.7-0.5,2.5-0.9v-3.2h-1c-0.6,2.9-2.1,4.9-4.7,6.1l-0.9-1.2
				c2.2-1,3.6-2.6,4.1-4.9h-3.7v-1.4C208.8,24.8,212.7,24.8,212.7,24.8z M215.7,23.3l-1.2-0.8c0.8-1,1.3-2.1,1.6-3.3l1.4,0.3
				c-0.1,0.3-0.2,0.6-0.3,0.8h3.9v1.3h-1.7c0.3,0.4,0.5,0.8,0.7,1.1l-1.3,0.5c-0.3-0.6-0.5-1.1-0.9-1.6h-1.2
				C216.3,22.3,216,22.8,215.7,23.3z"/>
		</g>
	</g>
	<g>
		<g>
			<polygon class="st7" points="420.5,181.4 165.3,180.5 164.9,77.8 420.1,78.7 			"/>
		</g>
		<g id="RectEndPoint8_1_" transform="translate(380,418)">
			<rect x="-198.6" y="-300.6" class="st8" width="104" height="50"/>
			<g>
				<rect x="-200.6" y="-302.6" class="st9" width="104" height="50"/>
				<g>
					<g>
						<path class="st6" d="M-140-280.9c0.7,0.6,1.2,1.4,1.3,2.4h-1.5c-0.2-0.7-0.5-1.2-1-1.5s-1.1-0.5-1.8-0.5
							c-1.1,0-1.9,0.4-2.4,1.1s-0.8,1.6-0.8,2.8c0,1.2,0.3,2.1,0.8,2.8c0.5,0.7,1.4,1.1,2.5,1.1c0.7,0,1.3-0.2,1.8-0.5
							c0.5-0.4,0.9-1,1.1-1.8h1.5c-0.2,1.2-0.7,2.1-1.6,2.7c-0.8,0.6-1.7,0.9-2.8,0.9c-1.6,0-2.9-0.5-3.7-1.6
							c-0.7-0.9-1.1-2.1-1.1-3.6s0.4-2.7,1.1-3.6c0.8-1.1,2-1.6,3.6-1.6C-141.8-281.8-140.8-281.5-140-280.9z"/>
						<path class="st6" d="M-136.3-281.6l2.8,8.3l0,0l2.8-8.3h1.7l-3.6,10h-1.8l-3.6-10H-136.3z"/>
						<path class="st6" d="M-126.1-281.6l3.5,8l0,0l3.5-8h1.8v10h-1.5v-7.1h-0.1l-3.1,7.1h-1.3l-3.1-7.1h-0.1v7.1h-1.5v-10H-126.1z"
							/>
						<path class="st6" d="M-111.9-281.6v10h-1.5v-8.2c-0.6,0.6-1.4,1-2.3,1.3v-1.5c0.4-0.1,0.9-0.3,1.4-0.6c0.5-0.3,0.9-0.6,1.3-1
							L-111.9-281.6L-111.9-281.6z"/>
					</g>
				</g>
				<path class="st10" d="M-96.1-252.1h-105v-51h105C-96.1-303.1-96.1-252.1-96.1-252.1z M-200.1-253.1h103v-49h-103V-253.1z"/>
			</g>
			<g transform="translate(20 9)">
				<g>
					<title  xmlns="http://www.w3.org/2000/svg">Product Icons【32】</title>
					<g id="_编组__1_">
						<g id="_编组_2_1_">
							<path id="_复合路径__1_" class="st11" d="M-190.6-273.6c-7.2,0-13-5.8-13-13s5.8-13,13-13c6.4,0,11.9,4.7,12.9,11h2
								c-1.1-8.2-8.7-14-16.9-12.9s-14,8.7-12.9,16.9s8.7,14,16.9,12.9c6.7-0.9,12-6.2,12.9-12.9h-2
								C-178.7-278.3-184.1-273.7-190.6-273.6z M-183.6-290.6l-7-4l-7,4v8l3.2,1.8c0.2-0.6,0.5-1.2,1-1.7l-2.2-1.3v-3.7l5,2.9l5-2.9
								v3.7l-4.1,2.4c-1-0.5-2.2-0.1-2.7,0.9s-0.1,2.2,0.9,2.7s2.2,0.1,2.7-0.9c0.1-0.3,0.2-0.6,0.2-0.9v-0.1l5-2.9L-183.6-290.6
								L-183.6-290.6z M-190.6-286.9l-4.7-2.7l4.7-2.7l4.7,2.7L-190.6-286.9z"/>
						</g>
					</g>
				</g>
			</g>
		</g>
		<g id="RectEndPoint8_12_" transform="translate(380,418)">
			<rect x="-76.6" y="-300.6" class="st8" width="104" height="50"/>
			<g>
				<rect x="-78.6" y="-302.6" class="st9" width="104" height="50"/>
				<g>
					<g>
						<path class="st6" d="M-18-280.9c0.7,0.6,1.2,1.4,1.3,2.4h-1.5c-0.2-0.7-0.5-1.2-1-1.5s-1.1-0.5-1.8-0.5
							c-1.1,0-1.9,0.4-2.4,1.1s-0.8,1.6-0.8,2.8c0,1.2,0.3,2.1,0.8,2.8c0.5,0.7,1.4,1.1,2.5,1.1c0.7,0,1.3-0.2,1.8-0.5
							c0.5-0.4,0.9-1,1.1-1.8h1.5c-0.2,1.2-0.7,2.1-1.6,2.7c-0.8,0.6-1.7,0.9-2.8,0.9c-1.6,0-2.9-0.5-3.7-1.6
							c-0.7-0.9-1.1-2.1-1.1-3.6s0.4-2.7,1.1-3.6c0.8-1.1,2-1.6,3.6-1.6C-19.8-281.8-18.8-281.5-18-280.9z"/>
						<path class="st6" d="M-14.3-281.6l2.8,8.3l0,0l2.8-8.3H-7l-3.6,10h-1.8l-3.6-10H-14.3z"/>
						<path class="st6" d="M-4.1-281.6l3.5,8l0,0l3.5-8h1.8v10H3.2v-7.1H3.1L0-271.6h-1.3l-3.1-7.1h-0.1v7.1H-6v-10H-4.1z"/>
						<path class="st6" d="M12.4-281c0.6,0.6,0.9,1.3,0.9,2.2c0,0.9-0.3,1.7-1,2.4c-0.4,0.4-1.1,0.9-2.1,1.6
							c-1.1,0.7-1.7,1.3-1.9,1.9h5v1.3H6.5c0-1,0.3-1.9,1-2.6c0.4-0.4,1.1-1,2.3-1.8c0.7-0.5,1.1-0.9,1.4-1.1
							c0.4-0.5,0.7-1.1,0.7-1.6c0-0.6-0.2-1-0.5-1.3s-0.8-0.4-1.4-0.4c-0.6,0-1.1,0.2-1.4,0.6c-0.3,0.4-0.5,1-0.5,1.8H6.5
							c0-1.1,0.3-2,1-2.7c0.6-0.7,1.5-1.1,2.6-1.1C11-281.8,11.8-281.6,12.4-281z"/>
					</g>
				</g>
				<path class="st10" d="M25.9-252.1h-105v-51h105C25.9-303.1,25.9-252.1,25.9-252.1z M-78.1-253.1h103v-49h-103V-253.1z"/>
			</g>
			<g transform="translate(20 9)">
				<g>
					<title  xmlns="http://www.w3.org/2000/svg">Product Icons【32】</title>
					<g id="_编组__8_">
						<g id="_编组_2_7_">
							<path id="_复合路径__7_" class="st11" d="M-68.6-273.6c-7.2,0-13-5.8-13-13s5.8-13,13-13c6.4,0,11.9,4.7,12.9,11h2
								c-1.1-8.2-8.7-14-16.9-12.9s-14,8.7-12.9,16.9c1.1,8.2,8.7,14,16.9,12.9c6.7-0.9,12-6.2,12.9-12.9h-2
								C-56.7-278.3-62.1-273.7-68.6-273.6z M-61.6-290.6l-7-4l-7,4v8l3.2,1.8c0.2-0.6,0.5-1.2,1-1.7l-2.2-1.3v-3.7l5,2.9l5-2.9v3.7
								l-4.1,2.4c-1-0.5-2.2-0.1-2.7,0.9s-0.1,2.2,0.9,2.7s2.2,0.1,2.7-0.9c0.1-0.3,0.2-0.6,0.2-0.9v-0.1l5-2.9V-290.6z
								 M-68.6-286.9l-4.7-2.7l4.7-2.7l4.7,2.7L-68.6-286.9z"/>
						</g>
					</g>
				</g>
			</g>
		</g>
		<g id="RectEndPoint8_13_" transform="translate(380,418)">
			<rect x="173.4" y="-363.1" class="st8" width="100" height="50"/>
			<g>
				<rect x="171.4" y="-365.1" class="st9" width="100" height="50"/>
				<g>
					<g>
						<path class="st6" d="M231.9-343.4c0.7,0.6,1.2,1.4,1.3,2.4h-1.5c-0.2-0.7-0.5-1.2-1-1.5s-1.1-0.5-1.8-0.5
							c-1.1,0-1.9,0.4-2.4,1.1s-0.8,1.6-0.8,2.8c0,1.2,0.3,2.1,0.8,2.8c0.5,0.7,1.4,1.1,2.5,1.1c0.7,0,1.3-0.2,1.8-0.5
							c0.5-0.4,0.9-1,1.1-1.8h1.5c-0.2,1.2-0.7,2.1-1.6,2.7c-0.8,0.6-1.7,0.9-2.8,0.9c-1.6,0-2.9-0.5-3.7-1.6
							c-0.7-0.9-1.1-2.1-1.1-3.6s0.4-2.7,1.1-3.6c0.8-1.1,2-1.6,3.6-1.6C230.2-344.3,231.1-344,231.9-343.4z"/>
						<path class="st6" d="M239.5-344.1c1,0,1.7,0.2,2.3,0.7c0.5,0.4,0.8,1.1,0.8,1.8c0,0.6-0.1,1-0.4,1.4c-0.3,0.4-0.7,0.6-1.2,0.8
							c0.7,0.1,1.2,0.4,1.5,0.8s0.5,1,0.5,1.6c0,1-0.3,1.7-1,2.2c-0.6,0.4-1.4,0.6-2.5,0.6h-4.6v-10h4.6L239.5-344.1L239.5-344.1z
							 M236.4-339.8h2.6c0.7,0,1.2-0.1,1.5-0.4s0.5-0.6,0.5-1.2c0-0.5-0.2-0.9-0.5-1.1s-0.8-0.3-1.5-0.3h-2.7L236.4-339.8
							L236.4-339.8z M236.4-335.3h2.8c0.6,0,1.1-0.1,1.5-0.3c0.4-0.3,0.7-0.7,0.7-1.3c0-0.6-0.2-1-0.5-1.3c-0.4-0.3-0.9-0.4-1.6-0.4
							h-2.9V-335.3z"/>
						<path class="st6" d="M250.8-343.5c0.7,0.5,1.1,1.3,1.2,2.4h-1.5c-0.1-0.6-0.4-1.1-0.8-1.4c-0.4-0.3-1-0.4-1.7-0.4
							s-1.2,0.1-1.5,0.3c-0.4,0.2-0.6,0.6-0.6,1.1c0,0.4,0.2,0.8,0.7,1.1c0.2,0.1,0.8,0.3,1.7,0.6c1.3,0.4,2.2,0.7,2.6,1
							c0.9,0.5,1.3,1.2,1.3,2.2c0,0.9-0.4,1.6-1.1,2.1c-0.7,0.5-1.7,0.8-2.9,0.8s-2.2-0.3-2.9-0.7c-0.8-0.6-1.3-1.5-1.4-2.8h1.5
							c0.1,0.8,0.4,1.4,0.8,1.7c0.4,0.3,1,0.5,1.9,0.5c0.8,0,1.4-0.1,1.8-0.4s0.7-0.6,0.7-1.1c0-0.6-0.3-1-1-1.3
							c-0.2-0.1-0.9-0.3-2-0.7c-1.2-0.4-2-0.7-2.3-0.8c-0.8-0.5-1.1-1.1-1.1-2s0.4-1.6,1.1-2.1c0.7-0.5,1.6-0.7,2.6-0.7
							C249.2-344.3,250.1-344,250.8-343.5z"/>
					</g>
				</g>
				<path class="st10" d="M271.9-314.6h-101v-51h101V-314.6z M171.9-315.6h99v-49h-99V-315.6z"/>
			</g>
			<g id="_编组_">
				<g id="_编组_2">
					<path id="_复合路径_" class="st11" d="M193.4-332.1h14v-15h-14V-332.1z M205.4-334.1h-1v-2h1V-334.1z M195.4-345.1h10v7
						h-10V-345.1z M195.4-336.1h7v2h-7V-336.1z M200.4-327.1c-7.2,0-13-5.8-13-13s5.8-13,13-13c6.4,0,11.9,4.7,12.9,11h2
						c-1.1-8.2-8.7-14-16.9-12.9s-14,8.7-12.9,16.9s8.7,14,16.9,12.9c6.7-0.9,12-6.2,12.9-12.9h-2
						C212.3-331.8,206.8-327.1,200.4-327.1z"/>
				</g>
			</g>
		</g>
		<g id="RectEndPoint8_14_" transform="translate(380,418)">
			<rect x="173.4" y="-263.1" class="st8" width="110" height="50"/>
			<g>
				<rect x="171.4" y="-265.1" class="st9" width="110" height="50"/>
				<g>
					<g>
						<path class="st6" d="M228.1-238.9c-0.1,0.2-0.2,0.4-0.2,0.7h2.9v1.1c-0.3,0.8-0.7,1.6-1.3,2.2c0.6,0.3,1.1,0.5,1.7,0.8l-0.7,1
							c-0.5-0.3-1.2-0.7-2-1c-0.9,0.6-2.1,1.1-3.5,1.4l-0.6-1.1c1.1-0.3,2-0.6,2.7-1c-0.6-0.2-1.2-0.5-1.8-0.7
							c0.3-0.6,0.6-1.1,0.9-1.7h-1.5v-1.1h2c0.1-0.3,0.2-0.6,0.3-0.8L228.1-238.9z M227.2-243v-2.6h1.2v2.6h2.4v1.2h-2.4v0.1
							c0.7,0.3,1.5,0.7,2.3,1.1l-0.7,1.1c-0.6-0.5-1.1-0.9-1.6-1.2v1.6h-1.2v-2.4c-0.5,1-1.2,1.9-2.3,2.6l-0.7-1.1
							c1-0.6,1.7-1.2,2.1-1.8h-1.8v-1.2L227.2-243L227.2-243z M226.7-243.7l-1,0.4c-0.3-0.7-0.6-1.3-0.9-1.8l1-0.4
							C226.2-244.8,226.4-244.3,226.7-243.7z M229.5-237.1h-2.2c-0.2,0.4-0.4,0.8-0.6,1.1c0.5,0.2,1,0.3,1.4,0.5
							C228.7-235.9,229.2-236.5,229.5-237.1z M230.8-244.9c-0.3,0.6-0.6,1.2-1.1,1.8l-0.9-0.5c0.4-0.6,0.8-1.2,1.1-1.7L230.8-244.9z
							 M232.2-239.7c-0.2,0.5-0.4,1-0.7,1.4l-0.8-1c0.8-1.5,1.3-3.6,1.6-6.2l1.3,0.2c-0.1,0.6-0.2,1.2-0.3,1.8h3.6v1.3H236
							c-0.1,2.3-0.5,4.2-1.3,5.8c0.7,1.2,1.5,2.1,2.5,2.7l-0.7,1.1c-0.9-0.7-1.7-1.5-2.4-2.6c-0.7,1-1.5,1.9-2.5,2.6l-0.7-1.1
							c1-0.7,1.9-1.6,2.5-2.7C233-237.4,232.6-238.5,232.2-239.7z M232.9-241.6c0.3,1.5,0.7,2.7,1.2,3.8c0.5-1.3,0.7-2.8,0.8-4.5
							H233C233-242,232.9-241.8,232.9-241.6z"/>
						<path class="st6" d="M238.8-232.8l-0.3-1.3c0.3,0.1,0.7,0.1,1,0.1s0.5-0.2,0.5-0.5v-3c-0.5,0.2-1,0.4-1.5,0.5l-0.3-1.3
							c0.6-0.1,1.2-0.3,1.8-0.5v-2.9h-1.6v-1.3h1.6v-2.5h1.3v2.5h1.2v1.3h-1.2v2.4c0.4-0.2,0.8-0.4,1.2-0.6v1.3
							c-0.4,0.2-0.8,0.4-1.2,0.6v3.9c0,0.9-0.4,1.4-1.3,1.4L238.8-232.8L238.8-232.8z M242.7-232.6l-1-0.9c0.9-1.8,1.4-4.1,1.4-7
							v-4.6h7.6v3.6h-2.5v1.4h2.9v1.2h-2.9v1.4h2.3v4.8h-1.2v-0.6H246v0.6h-1.2v-4.8h2.2v-1.4h-2.5
							C244.2-236.5,243.6-234.4,242.7-232.6z M244.4-241.5v0.9c0,0.2,0,0.3,0,0.5h2.5v-1.4H244.4z M244.4-243.9v1.2h5v-1.2H244.4z
							 M249.2-234.4v-1.8h-3.3v1.8H249.2z"/>
						<path class="st6" d="M260-244.4h5v1.3h-10.3v3c0,3.1-0.5,5.6-1.4,7.5l-1.1-1c0.7-1.6,1.1-3.7,1.1-6.5v-4.3h5.2
							c-0.2-0.4-0.4-0.7-0.6-1l1.5-0.3C259.6-245.3,259.8-244.9,260-244.4z M259.4-242.6c-0.1,0.3-0.2,0.6-0.3,0.9h5.3v1.2h-5.7
							c-0.3,0.8-0.7,1.5-1.1,2.1h2.2v-1.5h1.3v1.5h3v1.2h-3v1.3h4.1v1.2H261v2.1h-1.3v-2.1h-4.9v-1.2h4.9v-1.3h-3.5l-0.3-1.2
							c0.5-0.6,0.9-1.3,1.3-2.2h-1.9v-1.2h2.4c0.1-0.4,0.3-0.8,0.4-1.2L259.4-242.6z"/>
					</g>
				</g>
				<path class="st10" d="M281.9-214.6h-111v-51h111V-214.6z M171.9-215.6h109v-49h-109V-215.6z"/>
			</g>
		</g>
	</g>
	<g id="XMLID_584_">
		<g>
			<path class="st11" d="M567.4,186.9h-2c0,2.5,4.4,4.6,10.2,4.9c-0.4-0.6-0.7-1.3-1-2.1C570.5,189.4,567.4,188.3,567.4,186.9z
				 M578,180.9c-0.2,0-0.4,0-0.6,0c-5.5,0-10-1.3-10-3v-6.2c2.1,1.3,5.8,2.2,10,2.2s7.9-0.9,10-2.2v4.5c0.7,0.2,1.4,0.5,2,0.8v-8.1
				c0-2.8-5.4-5-12-5s-12,2.2-12,5v18h2v-6.2c2,1.3,5.3,2.1,9.2,2.2c0.3-0.3,0.7-0.6,1.1-0.9C577.8,181.6,577.9,181.3,578,180.9z
				 M577.4,165.9c5.5,0,10,1.3,10,3s-4.5,3-10,3s-10-1.3-10-3C567.4,167.3,571.9,165.9,577.4,165.9z M590.4,184.1V184
				c0-2.8-2.2-5-5-5s-5,2.2-5,5v0.1c-1.7,0.4-3,2-3,3.9c0,2.2,1.8,4,4,4h8c2.2,0,4-1.8,4-4C593.4,186.1,592.2,184.5,590.4,184.1z
				 M589.4,189.9h-8c-1.1,0-2-0.9-2-2c0-0.9,0.6-1.7,1.5-1.9l1.5-0.4V184c0-0.1,0-0.1,0-0.2c0-1.6,1.4-2.9,3-2.9s2.9,1.3,3,2.9
				c0,0.1,0,0.1,0,0.2v1.6l1.5,0.4c0.9,0.2,1.5,1,1.5,1.9C591.4,189,590.5,189.9,589.4,189.9z"/>
		</g>
	</g>
</g>
<g>
	<path class="st12" d="M184,95.5c0.1-0.4,0.2-0.9,0.3-1.3H181v-1.4h3.6c0.1-0.5,0.2-1.1,0.3-1.6l1.5,0.1c-0.1,0.5-0.2,1-0.3,1.5h5.8
		v1.4h-6.1c-0.1,0.4-0.2,0.9-0.3,1.3h7.2v1.4h-7.6c-0.2,0.5-0.3,1-0.5,1.4h6.4v1.3c-0.6,0.9-1.6,1.8-2.9,2.8
		c0.7,0.3,1.4,0.5,2.1,0.8l-0.8,1.3c-2.1-1-4.2-1.7-6.4-2.3l0.8-1.1c1,0.2,1.9,0.5,2.7,0.8c1.1-0.7,2.1-1.4,2.7-2.1h-6.7
		c0.3-0.9,0.6-1.8,0.9-2.8H180v-1.4h4V95.5z"/>
	<path class="st12" d="M195,104.3l-1.1-1c0.8-1.2,1.2-2.7,1.3-4.5v-6.9H206v10.6c0,1.1-0.6,1.6-1.7,1.6h-1.6l-0.4-1.4
		c0.6,0.1,1.1,0.1,1.5,0.1s0.6-0.3,0.6-0.8v-1.9h-3.3v4h-1.5v-4h-3.2C196.4,101.7,195.9,103.1,195,104.3z M196.6,93.3v2h3.1v-2
		H196.6z M196.6,98.6h3.1v-2h-3.1V98.6z M204.5,93.3h-3.3v2h3.3V93.3z M204.5,96.6h-3.3v2h3.3V96.6z"/>
	<path class="st12" d="M208.7,100.9l-0.5-1.6c1.3-1.5,2.2-3.2,2.7-5.1l1.4,0.3c-0.2,0.8-0.5,1.5-0.8,2.2v7.6H210v-5.1
		C209.6,99.8,209.2,100.4,208.7,100.9z M220.3,94.6h-1.5v-0.8H210v1.6h-1.5v-3h5.2c-0.2-0.3-0.4-0.6-0.6-0.9l1.6-0.3
		c0.2,0.3,0.4,0.7,0.5,1.1h5.1V94.6z M219.7,104.3h-1.4v-0.4h-3.9v0.4H213v-7.1h2.2c0.1-0.3,0.1-0.6,0.2-0.8h-2.9V95h7.6v1.4h-3.3
		l-0.2,0.8h3.1L219.7,104.3L219.7,104.3z M218.3,99.9v-1.4h-3.9v1.4H218.3z M218.3,102.6v-1.5h-3.9v1.5H218.3z"/>
	<path class="st12" d="M222.6,95v-1.4h5c-0.2-0.7-0.5-1.3-0.8-1.9l1.4-0.4c0.3,0.8,0.6,1.6,0.8,2.3h5.2V95h-5.1v2.8h4.4v1.4h-4.4
		v3.3h5.5v1.4h-12.5v-1.4h5.5v-3.3h-4.4v-1.4h4.4V95H222.6z"/>
	<path class="st12" d="M238.1,94v-2.6h1.5V94h1.6v1.4h-1.6v0.5c0.6,0.6,1.2,1.3,1.9,2l-0.9,1.3c-0.4-0.7-0.7-1.3-1-1.8v6.9h-1.5V98
		c-0.4,1.1-1,2.2-1.6,3.2l-0.6-1.6c1-1.2,1.7-2.6,2.2-4.2h-1.8V94H238.1z M241.4,100.7c0.2-0.8,0.3-2,0.3-3.6v-5.3h4.9v10.6
		c0,0.1,0,0.2,0.1,0.2h0.4c0.1,0,0.2,0,0.3-0.1s0.1-0.1,0.1-0.2c0.1-0.2,0.1-1.1,0.1-2.5l1.3,0.4c0,1.1,0,1.9-0.1,2.4
		s-0.2,0.9-0.4,1.1s-0.6,0.3-1.1,0.3h-0.6c-1.1,0-1.6-0.5-1.6-1.4v-9.4h-2v4c0,1.6-0.1,2.9-0.4,4c-0.2,1.1-0.7,2.2-1.3,3.2l-1.2-1.1
		C240.8,102.6,241.2,101.7,241.4,100.7z"/>
</g>
<g>
	<path class="st12" d="M255,93.2v10h-1.6v-8c-0.6,0.5-1.4,1-2.3,1.2v-1.6c0.4-0.1,0.9-0.3,1.4-0.6c0.5-0.3,0.9-0.6,1.3-1H255z"/>
</g>
</svg>
