<?xml version="1.0" encoding="UTF-8"?>
<svg width="32px" height="32px" viewBox="0 0 32 32" version="1.1" xmlns="http://www.w3.org/2000/svg" xmlns:xlink="http://www.w3.org/1999/xlink">
    <!-- Generator: Sketch 60.1 (88133) - https://sketch.com -->
    <title>产品icon-32x32</title>
    <desc>Created with Sketch.</desc>
    <g id="产品icon-32x32" stroke="none" stroke-width="1" fill="none" fill-rule="evenodd">
        <path d="M16,0 C24.1593067,0 30.8921342,6.10748377 31.8762383,14.0002073 L29.8582451,14.0001595 C28.8878544,7.21549345 23.0529991,2 16,2 C8.2680135,2 2,8.2680135 2,16 C2,23.7319865 8.2680135,30 16,30 C23.052652,30 28.8872801,24.7850199 29.8581018,18.0008423 L31.8761139,18.0007904 C30.8915668,25.8930309 24.1589629,32 16,32 C7.163444,32 1.77635684e-15,24.836556 1.77635684e-15,16 C1.77635684e-15,7.163444 7.163444,0 16,0 Z M20,7 L24,11 L24,25 L8,25 L8,7 L20,7 Z M18,9 L10,9 L10,23 L22,23 L22,13 L18,13 L18,9 Z M14,18 L14,20 L12,20 L12,18 L14,18 Z M20,18 L20,20 L15,20 L15,18 L20,18 Z M14,14 L14,16 L12,16 L12,14 L14,14 Z M20,14 L20,16 L15,16 L15,14 L20,14 Z M20,9.829 L20,11 L21.171,11 L20,9.829 Z" id="形状结合" fill="#00A4FF" fill-rule="nonzero"></path>
    </g>
</svg>