<svg xmlns="http://www.w3.org/2000/svg" width="32" height="32" viewBox="0 0 32 32">
  <g fill="#FFF" fill-rule="evenodd">
    <path d="M28 26C27.2897779 25.9957131 26.6351046 25.6150891 26.28 25L1 25 1 8 3 8 3 23 26.28 23C26.7660656 22.1581503 27.7870648 21.7877158 28.6998631 22.1220358 29.6126615 22.4563558 30.1528813 23.3985996 29.9802345 24.3552416 29.8075876 25.3118835 28.9720785 26.0058471 28 26zM27.0120508 3.00018082L3.73205081 3.00018082C3.27944513 3.78411685 2.35672894 4.16631841 1.48236191 3.93203247.607994882 3.69774653 1.11022302e-16 2.90539218 0 2.00018082-1.11022302e-16 1.09496946.607994882.302615105 1.48236191.0683291662 2.35672894-.165956773 3.27944513.216244788 3.73205081 1.00018082L29.0120508 1.00018082 29.0120508 18.0001808 27.0120508 18.0001808 27.0120508 3.00018082z" transform="translate(1 3)"/>
    <g transform="translate(6 7)">
      <path fill-rule="nonzero" d="M4.7829573,3.41232913 L5.7933575,5.16239361 C4.67960004,6.09353113 4,7.4849784 4,9 C4,10.0654693 4.33294212,11.0765898 4.93884335,11.9176134 L2.63515051,11.9176134 C2.22736209,11.0294693 2,10.0412863 2,9 C2,6.71751607 3.09242895,4.6901826 4.7829573,3.41232913 Z M8.5930661,2.01163115 C8.72772632,2.00391236 8.86340627,2 9,2 C12.8659932,2 16,5.13400675 16,9 C16,12.8659932 12.8659932,16 9,16 C7.09269493,16 5.36355437,15.237187 4.10101726,14 L9,14 C11.7614237,14 14,11.7614237 14,9 C14,6.50236973 12.1686891,4.43246504 9.77557084,4.05978945 L8.59306636,2.0116316 Z"/>
      <rect width="9" height="2" x="1" y="14"/>
      <path d="M15.6769742,13.7719524 L16.3400416,13.7719524 L16.0220721,13.4539829 C16.5096003,12.992977 16.9685916,12.5075617 17.3965163,12 L20.1684687,14.7719524 L16.6329348,18.3074863 L15.2187212,16.8932727 L16.3400416,15.7719524 L13,15.7719524 C13.9600244,15.1789715 14.8560654,14.5089797 15.6769742,13.7719524 Z"/>
      <path d="M10.0355339,4.03553391 L13.0355339,4.03553391 L13.0355339,6.03553391 L8.03553391,6.03553391 L8.03553391,4.03553391 L8.03553391,1.03553391 L10.0355339,1.03553391 L10.0355339,4.03553391 Z" transform="rotate(45 10.536 3.536)"/>
    </g>
  </g>
</svg>
