<?xml version="1.0" encoding="UTF-8"?>
<svg width="48px" height="48px" viewBox="0 0 48 48" version="1.1" xmlns="http://www.w3.org/2000/svg" xmlns:xlink="http://www.w3.org/1999/xlink">
    <!-- Generator: Sketch 52.5 (67469) - http://www.bohemiancoding.com/sketch -->
    <title>4</title>
    <desc>Created with Sketch.</desc>
    <g id="4" stroke="none" stroke-width="1" fill="none" fill-rule="evenodd">
        <g id="Group-5">
            <path d="M5.53595396,35.7366958 L10.5940377,36.2987051 L6.40948415,40.4832587 C-1.58277356,31.0537332 -1.1307314,16.9107759 7.76561062,8.01443388 C16.6619526,-0.88190814 30.80491,-1.3339503 40.2344355,6.65830741 L38.8148914,8.07785148 C30.1716017,0.863564521 17.2946418,1.31382984 9.17982418,9.42864745 C2.05242545,16.5560462 0.837802042,27.3571725 5.53595396,35.7366958 Z M43.9363928,14.2332974 L38.878309,13.6712881 L43.0628626,9.48673454 C51.0551203,18.91626 50.6030781,33.0592174 41.7067361,41.9555594 C32.8103941,50.8519014 18.6674368,51.3039436 9.23791128,43.3116858 L10.6574553,41.8921418 C19.3007451,49.1064287 32.177705,48.6561634 40.2925226,40.5413458 C47.4199213,33.4139471 48.6345447,22.6128207 43.9363928,14.2332974 Z" id="Combined-Shape" fill="#334966" fill-rule="nonzero"></path>
            <rect id="Rectangle-76" fill="#00A4FF" x="15.7361734" y="15.9849966" width="18" height="4"></rect>
            <rect id="Rectangle-76-Copy" fill="#00A4FF" x="15.7361734" y="22.9849966" width="18" height="4"></rect>
            <rect id="Rectangle-76-Copy-2" fill="#00A4FF" x="15.7361734" y="29.9849966" width="18" height="4"></rect>
        </g>
    </g>
</svg>