<?xml version="1.0" encoding="utf-8"?>
<!-- Generator: Adobe Illustrator 19.0.0, SVG Export Plug-In . SVG Version: 6.00 Build 0)  -->
<svg version="1.1" id="组_1_拷贝" xmlns="http://www.w3.org/2000/svg" xmlns:xlink="http://www.w3.org/1999/xlink" x="0px"
	 y="0px" width="48px" height="48px" viewBox="-55 41 48 48" style="enable-background:new -55 41 48 48;" xml:space="preserve">
<style type="text/css">
	.st0{fill:#00A4FF;}
</style>
<g>
	<g id="XMLID_178_">
		<circle id="XMLID_180_" class="st0" cx="-52" cy="48.167" r="3"/>
	</g>
	<g id="XMLID_183_">
		<circle id="XMLID_185_" class="st0" cx="-10" cy="82.167" r="3"/>
	</g>
	<rect id="XMLID_174_" x="-50" y="47.167" class="st0" width="40" height="2"/>
	<rect id="XMLID_177_" x="-53" y="81.167" class="st0" width="43" height="2"/>
	<rect id="XMLID_181_" x="-11" y="47.167" class="st0" width="2" height="28"/>
	<rect id="XMLID_182_" x="-53" y="55.167" class="st0" width="2" height="27"/>
</g>
<g>
	<path class="st0" d="M-27,63.167h3c1.105,0,2,0.895,2,2h-7C-29,64.062-28.105,63.167-27,63.167z"/>
	<path class="st0" d="M-24,68.167h-5c0-1.105,0.895-2,2-2h3v-1h2v3l0,0v1l0,0c0,1.105-0.895,2-2,2h-3c-1.105,0-2-0.895-2-2l0,0v-1h2
		v1h3V68.167L-24,68.167z"/>
	<path class="st0" d="M-38,59.167h4c1.105,0,2,0.895,2,2h-8C-40,60.062-39.105,59.167-38,59.167z"/>
	<polygon class="st0" points="-40,71.167 -40,61.167 -38,61.167 -38,66.167 -34,66.167 -34,61.167 -32,61.167 -32,71.167 
		-34,71.167 -34,68.167 -38,68.167 -38,71.167 	"/>
</g>
</svg>
