<?xml version="1.0" encoding="UTF-8"?>
<svg width="32px" height="32px" viewBox="0 0 32 32" version="1.1" xmlns="http://www.w3.org/2000/svg" xmlns:xlink="http://www.w3.org/1999/xlink">
    <!-- Generator: Sketch 52.6 (67491) - http://www.bohemiancoding.com/sketch -->
    <title>企业邮箱-32px</title>
    <desc>Created with Sketch.</desc>
    <g id="企业邮箱-32px" stroke="none" stroke-width="1" fill="none" fill-rule="evenodd">
        <rect id="Rectangle-Copy" fill="#444444" opacity="0" x="0" y="0" width="32" height="32"></rect>
        <g id="Group" transform="translate(1.000000, 4.000000)" fill="#00A4FF">
            <path d="M30,18.021 L28,18.021 L28,7 L2,7 L2,22 L28,22 L28,21.992 L30,21.992 L30,24 L0,24 L0,0 L30,0 L30,18.021 Z M2,5 L28,5 L28,2 L2,2 L2,5 Z" id="Combined-Shape"></path>
            <path d="M11,11.4086545 L11,17 L20,17 L20,11.4086545 L15.5,14.4339007 L11,11.4086545 Z M11,9 L15.5,12.0301999 L20,9 L21.2997875,9 L22,9 L22,19 L21,19 L9,19 L9,17 L9,9 L9.69898197,9 L11,9 Z" id="Combined-Shape"></path>
        </g>
    </g>
</svg>