<?xml version="1.0" encoding="utf-8"?>
<!-- Generator: Adobe Illustrator 21.0.0, SVG Export Plug-In . SVG Version: 6.00 Build 0)  -->
<svg version="1.1" id="图层_1" xmlns="http://www.w3.org/2000/svg" xmlns:xlink="http://www.w3.org/1999/xlink" x="0px" y="0px"
	 width="48px" height="48px" viewBox="0 0 48 48" style="enable-background:new 0 0 48 48;" xml:space="preserve">
<style type="text/css">
	.st0{fill:#00A4FF;}
	.st1{fill:#334966;}
</style>
<path class="st0" d="M37.3,27.9c-5.3,0-9.6,4.3-9.6,9.6c0,5.3,4.3,9.6,9.6,9.6c5.3,0,9.6-4.3,9.6-9.6C46.8,32.2,42.6,27.9,37.3,27.9
	z M37.8,40.2L37.8,40.2l-1.4,1.4L35,40.2l-2.8-2.8l1.4-1.4l2.8,2.8l4.7-4.7l1.4,1.4L37.8,40.2z"/>
<g>
	<path class="st1" d="M37.3,48c-5.8,0-10.6-4.7-10.6-10.6s4.7-10.6,10.6-10.6s10.6,4.7,10.6,10.6S43.1,48,37.3,48z M37.3,28.9
		c-4.7,0-8.6,3.8-8.6,8.6s3.8,8.6,8.6,8.6s8.6-3.8,8.6-8.6S42,28.9,37.3,28.9z"/>
</g>
<g id="Rectangle-2_1_" transform="translate(38.000000, 4.000000)">
	<rect id="Rectangle-path_12_" x="-8.6" y="0.3" class="st1" width="2" height="2"/>
</g>
<g id="Rectangle-2-Copy-2_1_" transform="translate(34.000000, 4.000000)">
	<rect id="Rectangle-path_11_" x="-8.6" y="0.3" class="st1" width="2" height="2"/>
</g>
<g id="Rectangle-2-Copy_1_" transform="translate(42.000000, 4.000000)">
	<rect id="Rectangle-path_10_" x="-8.6" y="0.3" class="st1" width="2" height="2"/>
</g>
<g id="Rectangle-2_2_" transform="translate(38.000000, 4.000000)">
	<rect id="Rectangle-path_16_" x="-4.6" y="11.2" class="st1" width="2" height="2"/>
</g>
<g id="Rectangle-2-Copy-2_2_" transform="translate(34.000000, 4.000000)">
	<rect id="Rectangle-path_15_" x="-4.6" y="11.2" class="st1" width="2" height="2"/>
</g>
<g id="Rectangle-2-Copy_2_" transform="translate(42.000000, 4.000000)">
	<rect id="Rectangle-path_7_" x="-4.6" y="11.2" class="st1" width="2" height="2"/>
</g>
<g id="Combined-Shape_2_">
	<g id="Shape_3_">
		<polygon class="st1" points="5.2,33.5 0.2,33.5 0.2,1 39.4,1 39.4,13.1 37.4,13.1 37.4,3 2.2,3 2.2,31.5 5.2,31.5 		"/>
	</g>
</g>
<g id="Rectangle_2_" transform="translate(0.000000, 8.000000)">
	<g id="Rectangle-path_17_">
		<rect x="1.2" y="-0.2" class="st1" width="37.3" height="2"/>
	</g>
</g>
<g id="Combined-Shape_3_">
	<g id="Shape_5_">
		<polygon class="st1" points="24.9,44.3 4.2,44.3 4.2,11.8 43.5,11.8 43.5,23.9 41.5,23.9 41.5,13.8 6.2,13.8 6.2,42.3 24.9,42.3 
					"/>
	</g>
</g>
<g id="Rectangle_3_" transform="translate(0.000000, 8.000000)">
	<g id="Rectangle-path_21_">
		<rect x="5.2" y="10.6" class="st1" width="37.3" height="2"/>
	</g>
</g>
<g id="Rectangle-4_3_" transform="translate(7.000000, 17.000000)">
	<g id="Rectangle-path_20_">
		<rect x="2.4" y="9.2" class="st0" width="10.2" height="2"/>
	</g>
</g>
<g id="Rectangle-4-Copy_3_" transform="translate(7.000000, 23.000000)">
	<g id="Rectangle-path_19_">
		<rect x="2.4" y="8.3" class="st0" width="10.2" height="2"/>
	</g>
</g>
<g id="Rectangle-4-Copy-2_3_" transform="translate(7.000000, 29.000000)">
	<g id="Rectangle-path_18_">
		<rect x="2.4" y="7.3" class="st0" width="10.2" height="2"/>
	</g>
</g>
</svg>
