<?xml version="1.0" encoding="UTF-8"?>
<svg width="48px" height="48px" viewBox="0 0 48 48" version="1.1" xmlns="http://www.w3.org/2000/svg" xmlns:xlink="http://www.w3.org/1999/xlink">
    <!-- Generator: Sketch 53.2 (72643) - https://sketchapp.com -->
    <title>大数据</title>
    <desc>Created with Sketch.</desc>
    <g id="大数据" stroke="none" stroke-width="1" fill="none" fill-rule="evenodd">
        <rect id="Rectangle-Copy" fill="#444444" opacity="0" x="0" y="0" width="48" height="48"></rect>
        <g id="Group" transform="translate(0.000000, 4.000000)">
            <path d="M2,2 L2,38 L46,38 L46,2 L2,2 Z M0,0 L48,0 L48,40 L0,40 L0,0 Z" id="Rectangle-34" fill="#334966" fill-rule="nonzero"></path>
            <circle id="Oval-16" fill="#00A4FF" cx="21.5" cy="21.5" r="9.5"></circle>
            <path d="M10,10.1659169 L10,20 L19.8340831,20 C18.9910462,14.9749903 15.0250097,11.0089538 10,10.1659169 Z M8,8 C15.7319865,8 22,14.2680135 22,22 L8,22 L8,8 Z" id="Combined-Shape" fill="#334966" fill-rule="nonzero" transform="translate(15.000000, 15.000000) scale(-1, 1) translate(-15.000000, -15.000000) "></path>
            <rect id="Rectangle-35" fill="#334966" x="36" y="8" width="4" height="2"></rect>
            <rect id="Rectangle-35-Copy" fill="#00A4FF" x="36" y="15" width="4" height="2"></rect>
            <rect id="Rectangle-35-Copy-2" fill="#00A4FF" x="36" y="22" width="4" height="2"></rect>
            <rect id="Rectangle-35-Copy-3" fill="#334966" x="8" y="30" width="32" height="2"></rect>
        </g>
    </g>
</svg>