<?xml version="1.0" encoding="utf-8"?>
<!-- Generator: Adobe Illustrator 22.1.0, SVG Export Plug-In . SVG Version: 6.00 Build 0)  -->
<svg version="1.1" id="svgwrapper_svg" xmlns="http://www.w3.org/2000/svg" xmlns:xlink="http://www.w3.org/1999/xlink" x="0px"
	 y="0px" width="830px" height="361.2px" viewBox="0 0 830 361.2" style="enable-background:new 0 0 830 361.2;"
	 xml:space="preserve">
<style type="text/css">
	.st0{fill:none;stroke:#999999;}
	.st1{fill:#BABABA;}
	.st2{fill:#D2E3FC;}
	.st3{fill:#4CA3F8;}
	.st4{fill:#888888;}
	.st5{fill:none;stroke:#FF0000;stroke-width:15;stroke-opacity:0;}
	.st6{fill:#FF0000;fill-opacity:0;}
	.st7{opacity:0.6;fill:#BBBBBB;enable-background:new    ;}
	.st8{fill:#FFFFFF;}
	.st9{fill:#444444;}
	.st10{fill:#E5E5E5;}
	.st11{fill:#878787;}
</style>
<path class="st0" d="M-344.6-2363.8L-344.6-2363.8"/>
<g id="assistantgroup" transform="translate(0,0)">
</g>
<g>
	<path class="st1" d="M183.1,82.1h-6v1h6V82.1L183.1,82.1z M173.1,82.1h-6v1h6V82.1L173.1,82.1z M163.1,82.1h-6v1h6V82.1L163.1,82.1
		z M153.1,82.1h-6v1h6V82.1L153.1,82.1z M143.1,82.1h-6v1h6V82.1L143.1,82.1z M133.1,82.1h-6v1h6V82.1L133.1,82.1z M123.1,82.1h-6v1
		h6V82.1L123.1,82.1z M113.1,82.1h-6v1h6V82.1L113.1,82.1z M103.1,82.1h-6v1h6V82.1L103.1,82.1z M93.1,82.1h-6v1h6V82.1L93.1,82.1z
		 M83.1,82.1h-6v1h6V82.1L83.1,82.1z M73.1,82.1h-6v1h6V82.1L73.1,82.1z M63.1,82.1h-6v1h6V82.1L63.1,82.1z M53.1,82.1h-6v1h6V82.1
		L53.1,82.1z M43.1,82.1h-6v1h6V82.1L43.1,82.1z M33.1,82.1h-6v1h6V82.1L33.1,82.1z M23.1,82.1h-5.3v1h5.3L23.1,82.1L23.1,82.1z
		 M18.8,86.8h-1v6h1V86.8L18.8,86.8z M18.8,96.8h-1v6h1V96.8L18.8,96.8z M18.8,106.8h-1v6h1V106.8L18.8,106.8z M18.8,116.8h-1v6h1
		V116.8L18.8,116.8z M18.8,126.8h-1v6h1V126.8L18.8,126.8z M18.8,136.8h-1v6h1V136.8L18.8,136.8z M18.8,146.8h-1v6h1V146.8
		L18.8,146.8z M18.8,156.8h-1v6h1V156.8L18.8,156.8z M18.8,166.8h-1v6h1V166.8L18.8,166.8z M18.8,176.8h-1v6h1V176.8L18.8,176.8z
		 M18.8,186.8h-1v6h1V186.8L18.8,186.8z M18.8,196.8h-1v6h1V196.8L18.8,196.8z M18.8,206.8h-1v6h1V206.8L18.8,206.8z M18.8,216.8h-1
		v6h1V216.8L18.8,216.8z M18.8,226.8h-1v6h1V226.8L18.8,226.8z M18.8,236.8h-1v6h1V236.8L18.8,236.8z M18.8,246.8h-1v6h1V246.8
		L18.8,246.8z M18.8,256.8h-1v6h1V256.8L18.8,256.8z M18.8,266.8h-1v6h1V266.8L18.8,266.8z M18.8,276.8h-1v6h1V276.8L18.8,276.8z
		 M25.2,284.5h-6v1h6V284.5L25.2,284.5z M35.2,284.5h-6v1h6V284.5L35.2,284.5z M45.2,284.5h-6v1h6V284.5L45.2,284.5z M55.2,284.5h-6
		v1h6V284.5L55.2,284.5z M65.2,284.5h-6v1h6V284.5L65.2,284.5z M75.2,284.5h-6v1h6V284.5L75.2,284.5z M85.2,284.5h-6v1h6V284.5
		L85.2,284.5z M95.2,284.5h-6v1h6V284.5L95.2,284.5z M105.2,284.5h-6v1h6V284.5L105.2,284.5z M115.2,284.5h-6v1h6V284.5L115.2,284.5
		z M125.2,284.5h-6v1h6V284.5L125.2,284.5z M135.2,284.5h-6v1h6V284.5L135.2,284.5z M145.2,284.5h-6v1h6V284.5L145.2,284.5z
		 M155.2,284.5h-6v1h6V284.5L155.2,284.5z M165.2,284.5h-6v1h6V284.5L165.2,284.5z M175.2,284.5h-6v1h6V284.5L175.2,284.5z
		 M183.1,283.4h-1v1.1h-2.9v1h3.9V283.4L183.1,283.4z M183.1,273.4h-1v6h1V273.4L183.1,273.4z M183.1,263.4h-1v6h1V263.4
		L183.1,263.4z M183.1,253.4h-1v6h1V253.4L183.1,253.4z M183.1,243.4h-1v6h1V243.4L183.1,243.4z M183.1,233.4h-1v6h1V233.4
		L183.1,233.4z M183.1,223.4h-1v6h1V223.4L183.1,223.4z M183.1,213.4h-1v6h1V213.4L183.1,213.4z M183.1,203.4h-1v6h1V203.4
		L183.1,203.4z M183.1,193.4h-1v6h1V193.4L183.1,193.4z M183.1,183.4h-1v6h1V183.4L183.1,183.4z M183.1,173.4h-1v6h1V173.4
		L183.1,173.4z M183.1,163.4h-1v6h1V163.4L183.1,163.4z M183.1,153.4h-1v6h1V153.4L183.1,153.4z M183.1,143.4h-1v6h1V143.4
		L183.1,143.4z M183.1,133.4h-1v6h1V133.4L183.1,133.4z M183.1,123.4h-1v6h1V123.4L183.1,123.4z M183.1,113.4h-1v6h1V113.4
		L183.1,113.4z M183.1,103.4h-1v6h1V103.4L183.1,103.4z M183.1,93.4h-1v6h1V93.4L183.1,93.4z M183.1,83.4h-1v6h1V83.4L183.1,83.4z"
		/>
</g>
<g>
	<polygon class="st2" points="437.4,112.6 280.2,111.7 279.7,9 436.9,9.9 	"/>
	<g>
		<g>
			<path class="st3" d="M292.3,33.5l-0.7-1.1c2.6-0.7,4.4-1.5,5.3-2.6l0.2-0.3h-5.4v-1.3h6.1c0.3-0.8,0.5-1.8,0.6-2.8v-1.7h1.3v1.7
				c0,1-0.2,2-0.5,2.8h4.4v1.3h-4.9c-0.1,0.1-0.1,0.2-0.2,0.3c1.9,0.8,3.7,1.7,5.3,2.7l-0.7,1.1c-1.7-1.2-3.5-2.1-5.3-2.9
				C296.6,31.9,294.8,32.9,292.3,33.5z M303.5,24.7h-1.3V23h-9.1v1.7h-1.3v-2.9h5.3c-0.2-0.4-0.3-0.8-0.5-1.1l1.4-0.2
				c0.2,0.4,0.3,0.8,0.5,1.3h5.1L303.5,24.7z M296.4,27l-0.7,1c-0.9-0.7-1.8-1.2-2.7-1.5l0.7-1C294.7,25.9,295.6,26.4,296.4,27z
				 M297.8,25l-0.7,1c-0.9-0.6-1.8-1.2-2.7-1.5l0.7-1C296.1,23.9,297,24.4,297.8,25z"/>
			<path class="st3" d="M305.5,27.6l-0.4-1.4c1.2-1.6,2-3.5,2.6-5.7l1.3,0.6c-0.3,1.1-0.7,2.1-1.2,3v9.4h-1.3v-7.2
				C306.1,26.8,305.8,27.2,305.5,27.6z M313.7,21.4v1.3h-2.4c-0.1,0.6-0.2,1.2-0.3,1.7h2.5v1.1c-0.5,3.9-1.9,6.5-4.2,8.1l-0.7-1.2
				c1.1-0.7,1.9-1.7,2.5-2.9c-0.5-0.5-1-0.9-1.5-1.3c-0.3,0.4-0.5,0.9-0.9,1.3l-0.7-1.3c1-1.3,1.7-3.2,1.9-5.5h-1v-1.3H313.7z
				 M311.6,28.2c0.3-0.8,0.5-1.7,0.6-2.6h-1.6c-0.2,0.5-0.4,1.1-0.6,1.6C310.7,27.4,311.2,27.8,311.6,28.2z M315.4,21.9v8.7h-1.2
				v-8.7L315.4,21.9z M314.7,33.5l-0.3-1.3c0.5,0.1,0.9,0.1,1.4,0.1c0.4,0,0.5-0.2,0.5-0.5V20.7h1.3v11.4c0,0.9-0.5,1.4-1.4,1.4
				H314.7z"/>
			<path class="st3" d="M324.7,21.6c-0.6,1.1-1.3,2.1-2,2.8c-0.7,0.8-1.6,1.6-2.8,2.4l-0.7-1.2c0.9-0.5,1.7-1.2,2.5-2.1
				c0.6-0.7,1.3-1.6,1.8-2.7L324.7,21.6z M321.3,27.4v-1.3h8.5c-0.1,1.8-0.2,3.2-0.3,4.4c-0.1,1.1-0.4,1.9-0.7,2.3
				c-0.3,0.4-0.8,0.7-1.6,0.7h-2.6l-0.4-1.3c0.8,0,1.6,0.1,2.3,0.1c0.7,0,1.2-0.3,1.4-0.9c0.2-0.6,0.4-1.9,0.5-3.9h-3.2
				c-0.3,1.5-0.8,2.6-1.4,3.5c-0.7,1-1.8,1.9-3.2,2.7l-0.9-1.1c1.3-0.7,2.2-1.4,2.9-2.2c0.5-0.7,0.9-1.7,1.2-2.9L321.3,27.4z
				 M332.1,25.8l-0.9,1c-2.2-1.4-3.7-3.2-4.5-5.4l1.2-0.7C328.6,22.9,330,24.5,332.1,25.8z"/>
			<path class="st3" d="M337.1,21.1c-0.7,1.6-1.4,2.9-2.2,3.9c0.5-0.1,1.1-0.1,1.6-0.2c0.3-0.5,0.6-1,0.9-1.6l1.2,0.5
				c-1.2,2.2-2.3,3.8-3.1,4.8c0.9-0.2,1.9-0.5,2.8-0.9v1.2c-1.6,0.6-3.1,1-4.5,1.1l-0.3-1.2c0.2-0.1,0.4-0.2,0.6-0.4
				c0.5-0.5,1-1.2,1.7-2.3c-0.7,0.1-1.5,0.2-2.2,0.3l-0.3-1.2c0.2-0.1,0.4-0.3,0.6-0.5c0.8-1.2,1.4-2.5,2-4L337.1,21.1z M338.2,31.5
				c-1.3,0.7-2.9,1.2-4.6,1.6l-0.2-1.3c1.8-0.4,3.4-0.9,4.8-1.5L338.2,31.5z M344.9,31.9h1.1v1.3h-8.2v-1.3h1.1V21.4h5.9L344.9,31.9
				z M343.6,31.9v-2.3h-3.3v2.3H343.6z M343.6,28.3V26h-3.3v2.3H343.6z M343.6,24.8v-2.2h-3.3v2.2H343.6z"/>
		</g>
	</g>
</g>
<g id="Link14_5_" transform="translate(0,0)">
	<polygon class="st4" points="605.8,74.6 605.8,73.6 637.3,73.6 637.3,195.1 636.3,195.1 636.3,74.6 	"/>
	<g transform="translate(0, 0.5)">
		<polygon class="st4" points="610.3,69.1 604.3,73.6 610.3,78.1 		"/>
	</g>
	<path class="st5" d="M636.8,126.1"/>
	<rect x="630.3" y="74.1" class="st6" width="14" height="52"/>
	<rect x="605.8" y="66.6" class="st6" width="31" height="15"/>
</g>
<g id="Link16_13_" transform="translate(0,0)">
	<polygon class="st4" points="605.8,198.6 605.8,197.6 636.3,197.6 636.3,134.7 703.8,134.7 703.8,135.7 637.3,135.7 637.3,198.6 	
		"/>
	<g transform="translate(0, 0.5)">
		<polygon class="st4" points="610.3,193.1 604.3,197.6 610.3,202.1 		"/>
	</g>
	<rect x="630.3" y="187.1" class="st6" width="14" height="11"/>
	<path class="st5" d="M605.8,198.1"/>
</g>
<g id="RectEndPoint8_37_" transform="translate(380,418)">
	<rect x="117.4" y="-369.2" class="st7" width="100" height="50"/>
	<g>
		<rect x="115.4" y="-371.2" class="st8" width="100" height="50"/>
		<g>
			<g>
				<path class="st9" d="M134.6-346.9l-0.8-1.1c1.2-1,2.1-2.2,2.5-3.7l1.3,0.2c-0.2,0.5-0.4,1.1-0.6,1.5h2.4v-1.9h1.3v1.9h4.5v1.3
					h-4.5v1.9h5.5v1.3h-12.7v-1.3h5.9v-1.9h-3.1C135.8-347.9,135.2-347.4,134.6-346.9z M144.6-338.8h-1.3v-0.7h-6.7v0.7h-1.3v-5.3
					h9.4L144.6-338.8L144.6-338.8z M143.2-340.7v-2.1h-6.7v2.1H143.2z"/>
				<path class="st9" d="M149.4-351.2v-0.6h1.1v0.6h1.3v-0.6h1.1v0.6h1.6v1h-1.6v0.5h-1.1v-0.5h-1.3v0.5h-0.8l-0.1,0.2h4.4v0.6
					c0.7-0.8,1.2-1.7,1.5-2.9l1.2,0.2c-0.1,0.2-0.1,0.4-0.2,0.6h3.2v1.1h-0.8c-0.2,0.9-0.5,1.6-1,2.2c0.6,0.3,1.3,0.6,2.1,0.8
					l-0.6,1.1c-0.9-0.3-1.7-0.7-2.3-1.1c-0.7,0.5-1.5,0.8-2.4,1.1l-0.5-1.1c0.8-0.2,1.5-0.4,2-0.7c-0.3-0.3-0.6-0.7-0.8-1.1
					c-0.2,0.3-0.5,0.6-0.8,0.8l-0.6-0.8c0,1.2-0.2,2-0.4,2.3c-0.1,0.1-0.1,0.2-0.2,0.2l0.6-0.1c0.1,0.2,0.3,0.5,0.4,0.8h5.4v0.9
					h-12.1v-0.9h5.5c-0.1-0.2-0.2-0.3-0.3-0.4c-0.2,0-0.3,0.1-0.5,0.1H152l-0.1-0.3H149v-1.7c-0.2,0.3-0.5,0.6-0.8,0.8l-0.7-0.9
					c0.6-0.5,1-1.2,1.2-2l0.7,0.1v-0.4h-1.6v-1L149.4-351.2L149.4-351.2z M158.9-338.7h-1.3v-0.4h-7.3v0.4H149v-2.8h9.8L158.9-338.7
					L158.9-338.7z M152.3-346.7c0.3,0,0.4-0.1,0.5-0.4c0.1-0.2,0.1-0.8,0.1-1.6h-3.5c-0.1,0.2-0.2,0.3-0.3,0.4h2.9v1.5h0.3V-346.7z
					 M158.4-344v0.8h-8.9v-0.8H158.4z M158.4-342.8v0.8h-8.9v-0.8H158.4z M151-347.5h-1.1v0.6h1.1V-347.5z M157.6-339.9v-0.7h-7.3
					v0.7H157.6z M156.2-349.7c0.2,0.5,0.5,1,1,1.4c0.4-0.4,0.6-1,0.8-1.6h-1.7L156.2-349.7z"/>
				<path class="st9" d="M162.6-348.1l-1.1-0.7c0.9-0.9,1.5-1.9,1.8-3l1.3,0.3c-0.1,0.3-0.2,0.6-0.4,0.9h3.3v1.2h-2.1
					c0.3,0.4,0.5,0.8,0.7,1.2l-1.2,0.4c-0.3-0.6-0.6-1.1-0.9-1.7h-0.5C163.3-349,163-348.5,162.6-348.1z M167.2-347.7v-0.8h1.2
					l-0.7-0.5c0.6-0.9,1.1-1.8,1.3-2.9l1.3,0.3c-0.1,0.3-0.2,0.6-0.3,0.9h4v1.2h-2.4c0.3,0.4,0.5,0.8,0.7,1.2l-1.2,0.4
					c-0.3-0.6-0.5-1.1-0.9-1.7h-0.8c-0.2,0.4-0.5,0.9-0.7,1.2l-0.3-0.2v0.8h5.5v1.2h-5.5v0.8h4.6v2.7c0,0.8-0.4,1.2-1.3,1.2h-1
					l-0.3-1.2l0.9,0.1c0.2,0,0.3-0.1,0.3-0.4v-1.3h-3.3v1.1c1.5,1.3,3.4,2.3,5.9,3.1l-0.7,1.2c-2-0.8-3.7-1.8-5.2-3.1v3.3H167v-3.3
					c-1.4,1.3-3,2.3-4.8,3.1l-0.8-1.2c2.2-0.8,4-1.8,5.6-3.2v-1.1h-3.1v2.7h-1.3v-3.8h4.4v-0.8h-5.5v-1.2h5.7V-347.7z"/>
				<path class="st9" d="M187.3-338.9H186v-0.5h-3v0.5h-1.3v-5.3c-0.2,0.1-0.3,0.1-0.5,0.2l-0.5-0.7v4.6h-1.1v-0.5H177v0.5h-1.2
					v-10.8h4.9v2.5c0.8-0.8,1.6-2,2.2-3.4l1.3,0.3c-0.1,0.3-0.3,0.6-0.4,0.9h3.7v1c-0.4,1.1-1.1,2-1.9,2.8c0.8,0.6,1.8,1.1,2.9,1.5
					l-0.6,1.2c-1.3-0.6-2.3-1.2-3.2-1.9c-0.8,0.6-1.8,1.2-2.9,1.7h5.6v5.4H187.3z M177-349.6v3.3h0.7v-3.3H177z M177-341.7h0.7v-3.4
					H177V-341.7z M179.6-349.6h-0.8v3.3h0.8V-349.6z M179.6-345.2h-0.8v3.4h0.8V-345.2z M180.7-345.2c1.1-0.4,2.1-1,2.9-1.6
					c-0.5-0.5-0.9-1-1.2-1.5c-0.3,0.4-0.6,0.7-1,1.1l-0.7-0.8V-345.2z M186-340.7v-2.3h-3v2.3H186z M185.9-349.2h-2.8
					c0,0,0,0.1-0.1,0.1c0.4,0.6,0.9,1.2,1.4,1.7C185.1-348,185.6-348.6,185.9-349.2z"/>
				<path class="st9" d="M194.4-350.2l3.9,10h-1.6l-0.9-2.6h-4.3l-0.9,2.6H189l3.9-10H194.4z M195.3-344.1l-1.7-4.5h-0.1l-1.7,4.5
					H195.3z"/>
			</g>
		</g>
		<path class="st10" d="M215.9-320.7h-101v-51h101V-320.7z M115.9-321.7h99v-49h-99C115.9-370.7,115.9-321.7,115.9-321.7z"/>
	</g>
</g>
<g id="RectEndPoint8_40_" transform="translate(380,418)">
	<rect x="326.2" y="-307.4" class="st7" width="109" height="50"/>
	<g>
		<rect x="324.2" y="-309.4" class="st8" width="109" height="50"/>
		<g>
			<g>
				<path class="st9" d="M339.1-277l-1-0.9c0.5-1,0.8-2.2,0.8-3.7v-4.1l-0.8-0.9c0.8-0.8,1.6-2,2.2-3.5l1.2,0.3
					c-0.1,0.3-0.2,0.5-0.3,0.7h2.5v0.9c-0.3,0.5-0.5,1-0.8,1.4h1.5v8.4c0,0.8-0.4,1.2-1.1,1.2h-0.7l-0.3-1.1c0.2,0,0.4,0,0.6,0
					s0.3-0.2,0.3-0.5v-1.6h-1.1v3H341v-3h-1C339.8-278.9,339.5-277.9,339.1-277z M341.5-286.7c0.2-0.4,0.5-0.8,0.7-1.2h-1.6
					c-0.3,0.4-0.5,0.8-0.8,1.2H341.5z M340-285.5v1.5h1.1v-1.5H340z M340-281.4h1.1v-1.6H340V-281.4z M343.3-285.5h-1.1v1.5h1.1
					V-285.5z M343.3-282.9h-1.1v1.6h1.1V-282.9z M347.2-287.5v-2.3h1.3v2.3h2.2v5.9h-2.2v2.7c0.4-0.1,0.7-0.2,1.1-0.2
					c-0.2-0.5-0.3-1-0.5-1.5l1.1-0.3c0.4,1.1,0.7,2.3,1.1,3.7l-1.1,0.3c-0.1-0.3-0.1-0.7-0.2-1c-1.5,0.3-3.1,0.6-4.8,0.9l-0.3-1.2
					c0.8-0.1,1.6-0.2,2.4-0.3v-2.9H345v-5.9h2.2V-287.5z M347.3-286.3h-1v3.5h1V-286.3z M349.5-286.3h-1v3.5h1V-286.3z"/>
				<path class="st9" d="M354.2-289.5l1.3,0.2l-0.7,2.6h2.1c0.3-1,0.5-2.1,0.6-3.3l1.4,0.2c-0.2,1.1-0.4,2.1-0.6,3.1h6.4v1.3H358
					c-0.1,0.5-0.3,0.9-0.4,1.3h5.6v1.1c-0.4,1.1-1.1,2.2-2.1,3.1c1.1,0.6,2.4,1.1,3.9,1.6l-0.7,1.3c-1.7-0.6-3.1-1.3-4.3-2
					c-1.1,0.8-2.5,1.5-4.1,2.1l-0.7-1.3c1.4-0.5,2.6-1.1,3.6-1.7c-0.9-0.7-1.6-1.5-2-2.3c-1,2.1-2.3,3.7-3.8,5l-0.7-1.2
					c1.9-1.7,3.4-4,4.3-7h-3.4L354.2-289.5z M359.9-280.6c0.9-0.7,1.5-1.5,1.9-2.3h-4.1C358.2-282.1,358.9-281.3,359.9-280.6z
					 M363.7-287.7l-1,1c-0.6-0.7-1.3-1.5-2.4-2.3l0.9-0.9C362.2-289.2,363.1-288.5,363.7-287.7z"/>
				<path class="st9" d="M372-289.7c-0.2,0.3-0.4,0.5-0.5,0.8h5.3v1c-0.8,0.9-1.7,1.7-2.7,2.4c1.5,0.6,3.2,1,5.1,1.2l-0.6,1.2
					c-2.3-0.3-4.2-0.9-5.8-1.7c-1.7,0.8-3.6,1.4-5.9,1.8l-0.6-1.2c1.9-0.3,3.7-0.7,5.1-1.3c-0.7-0.4-1.3-0.9-1.8-1.4
					c-0.5,0.5-1.1,0.9-1.7,1.3l-0.9-1c1.4-0.8,2.6-2,3.6-3.4L372-289.7z M370.6-279.9c-0.9,1-1.9,1.9-3.2,2.6l-0.9-1.1
					c1.2-0.6,2.3-1.4,3.1-2.3L370.6-279.9z M372.1-282.6v-1.2h1.3v1.2h4.5v1.3h-4.5v2.9c0,1-0.5,1.4-1.5,1.4h-1.5l-0.3-1.3
					c0.5,0.1,1,0.1,1.4,0.1s0.6-0.2,0.6-0.6v-2.5h-4.7v-1.3H372.1z M372.7-286.1c0.9-0.5,1.7-1,2.3-1.6h-4.5l-0.1,0.1
					C371.1-287.1,371.8-286.6,372.7-286.1z M374.6-279.9l0.9-0.8c0.9,0.5,1.9,1.4,3.2,2.5l-1,1C376.8-278.2,375.7-279.1,374.6-279.9
					z"/>
				<path class="st9" d="M384.5-289.4c-0.4,1.1-0.8,2.2-1.4,3.1v9.3h-1.3v-7.4c-0.4,0.5-0.8,1-1.2,1.4l-0.4-1.4
					c1.4-1.6,2.4-3.5,3.1-5.7L384.5-289.4z M386.9-288.8c-0.1,0.6-0.2,1.2-0.4,1.8h1.7v-2.8h1.3v2.8h3.1v1.3h-3.1v3h3.6v1.3h-3.6
					v4.4h-1.3v-4.4h-4v-1.3h4v-3H386c-0.4,0.9-0.8,1.7-1.3,2.4l-0.9-1.1c0.8-1.2,1.4-2.8,1.7-4.6L386.9-288.8z"/>
				<path class="st9" d="M397.4-277h-1.3v-6.3c-0.4,1.1-0.8,2.1-1.4,3.1l-0.6-1.5c0.9-1.2,1.5-2.6,2-4.1v-0.1h-1.5v-1.2h1.5v-2.6
					h1.3v2.6h1.4v1.2h-1.4v0.8c0.6,0.7,1.2,1.4,1.8,2.3l-0.7,1c-0.4-0.8-0.8-1.4-1.1-1.9L397.4-277L397.4-277z M402.1-278.9
					c-0.6,0.8-1.8,1.5-3.4,1.9l-0.5-1.1c1.3-0.4,2.3-0.9,2.9-1.6c0.1-0.1,0.2-0.2,0.2-0.3h-3v-1.2h3.6c0.1-0.3,0.2-0.5,0.2-0.8h-2.9
					v-4.4h6.9v4.4h-2.8l-0.2,0.8h3.9v1.2h-3.2c0.8,0.8,1.9,1.4,3.4,2l-0.9,1.1c-1.7-0.7-2.9-1.7-3.7-2.8
					C402.4-279.4,402.2-279.1,402.1-278.9z M400.5-288.8v-1h1.2v1h1.9v-1h1.3v1h2.1v1.2h-2.1v0.9h-1.3v-0.9h-1.9v0.9h-1.2v-0.9h-1.9
					v-1.2H400.5z M404.9-284.7v-0.7h-4.5v0.7H404.9z M404.9-283.7h-4.5v0.7h4.5V-283.7z"/>
				<path class="st9" d="M410.3-287.3v-2.6h1.3v2.6h1.6v1.3h-1.6v0.6c0.6,0.6,1.2,1.3,1.8,2l-0.8,1.1c-0.4-0.7-0.7-1.3-1.1-1.8v7
					h-1.3v-6.4c-0.4,1.2-0.9,2.3-1.5,3.3l-0.6-1.5c1-1.3,1.6-2.7,2.1-4.4h-1.8v-1.3L410.3-287.3L410.3-287.3z M420.8-288.6
					c-1.8,0.5-3.7,0.8-5.8,0.9v1.8h5.4v1c-0.1,1.8-0.7,3.4-1.6,4.8c0.7,0.8,1.5,1.4,2.5,2l-0.7,1.2c-1-0.6-1.9-1.3-2.6-2.1
					c-0.8,0.8-1.7,1.6-2.7,2.2l-0.9-1c1.1-0.7,2-1.4,2.8-2.2c-0.8-1.3-1.4-2.8-1.7-4.5H415v1.1c-0.1,2.7-0.7,4.9-1.8,6.6l-1-1
					c0.9-1.3,1.3-3.2,1.4-5.6v-5.4c2.4,0,4.6-0.4,6.4-1L420.8-288.6z M419.2-284.7h-2.6c0.2,1.3,0.7,2.4,1.3,3.4
					C418.6-282.3,419-283.4,419.2-284.7z"/>
			</g>
		</g>
		<path class="st10" d="M433.7-258.9h-110v-51h110V-258.9z M324.7-259.9h108v-49h-108V-259.9z"/>
	</g>
</g>
<g id="RectEndPoint8_38_" transform="translate(380,418)">
	<rect x="117.4" y="-244.6" class="st7" width="100" height="50"/>
	<g>
		<rect x="115.4" y="-246.6" class="st8" width="100" height="50"/>
		<g>
			<g>
				<path class="st9" d="M134.6-222.2l-0.8-1.1c1.2-1,2.1-2.2,2.5-3.7l1.3,0.2c-0.2,0.5-0.4,1.1-0.6,1.5h2.4v-1.9h1.3v1.9h4.5v1.3
					h-4.5v1.9h5.5v1.3h-12.7v-1.3h5.9v-1.9h-3.1C135.8-223.3,135.2-222.7,134.6-222.2z M144.6-214.2h-1.3v-0.7h-6.7v0.7h-1.3v-5.3
					h9.4L144.6-214.2L144.6-214.2z M143.2-216.1v-2.1h-6.7v2.1H143.2z"/>
				<path class="st9" d="M149.4-226.6v-0.6h1.1v0.6h1.3v-0.6h1.1v0.6h1.6v1h-1.6v0.5h-1.1v-0.5h-1.3v0.5h-0.8l-0.1,0.2h4.4v0.6
					c0.7-0.8,1.2-1.7,1.5-2.9l1.2,0.2c-0.1,0.2-0.1,0.4-0.2,0.6h3.2v1.1h-0.8c-0.2,0.9-0.5,1.6-1,2.2c0.6,0.3,1.3,0.6,2.1,0.8
					l-0.6,1.1c-0.9-0.3-1.7-0.7-2.3-1.1c-0.7,0.5-1.5,0.8-2.4,1.1l-0.5-1.1c0.8-0.2,1.5-0.4,2-0.7c-0.3-0.3-0.6-0.7-0.8-1.1
					c-0.2,0.3-0.5,0.6-0.8,0.8l-0.6-0.8c0,1.2-0.2,2-0.4,2.3c-0.1,0.1-0.1,0.2-0.2,0.2l0.6-0.1c0.1,0.2,0.3,0.5,0.4,0.8h5.4v0.9
					h-12.1v-0.9h5.5c-0.1-0.2-0.2-0.3-0.3-0.4c-0.2,0-0.3,0.1-0.5,0.1H152l-0.1-0.3H149v-1.7c-0.2,0.3-0.5,0.6-0.8,0.8l-0.7-0.9
					c0.6-0.5,1-1.2,1.2-2l0.7,0.1v-0.4h-1.6v-1L149.4-226.6L149.4-226.6z M158.9-214h-1.3v-0.4h-7.3v0.4H149v-2.8h9.8L158.9-214
					L158.9-214z M152.3-222c0.3,0,0.4-0.1,0.5-0.4c0.1-0.2,0.1-0.8,0.1-1.6h-3.5c-0.1,0.2-0.2,0.3-0.3,0.4h2.9v1.5h0.3V-222z
					 M158.4-219.4v0.8h-8.9v-0.8H158.4z M158.4-218.1v0.8h-8.9v-0.8H158.4z M151-222.8h-1.1v0.6h1.1V-222.8z M157.6-215.3v-0.7h-7.3
					v0.7H157.6z M156.2-225.1c0.2,0.5,0.5,1,1,1.4c0.4-0.4,0.6-1,0.8-1.6h-1.7L156.2-225.1z"/>
				<path class="st9" d="M162.6-223.5l-1.1-0.7c0.9-0.9,1.5-1.9,1.8-3l1.3,0.3c-0.1,0.3-0.2,0.6-0.4,0.9h3.3v1.2h-2.1
					c0.3,0.4,0.5,0.8,0.7,1.2l-1.2,0.4c-0.3-0.6-0.6-1.1-0.9-1.7h-0.5C163.3-224.4,163-223.9,162.6-223.5z M167.2-223v-0.8h1.2
					l-0.7-0.5c0.6-0.9,1.1-1.8,1.3-2.9l1.3,0.3c-0.1,0.3-0.2,0.6-0.3,0.9h4v1.2h-2.4c0.3,0.4,0.5,0.8,0.7,1.2l-1.2,0.4
					c-0.3-0.6-0.5-1.1-0.9-1.7h-0.8c-0.2,0.4-0.5,0.9-0.7,1.2l-0.3-0.2v0.8h5.5v1.2h-5.5v0.8h4.6v2.7c0,0.8-0.4,1.2-1.3,1.2h-1
					l-0.3-1.2l0.9,0.1c0.2,0,0.3-0.1,0.3-0.4v-1.3h-3.3v1.1c1.5,1.3,3.4,2.3,5.9,3.1l-0.7,1.2c-2-0.8-3.7-1.8-5.2-3.1v3.3H167v-3.3
					c-1.4,1.3-3,2.3-4.8,3.1l-0.8-1.2c2.2-0.8,4-1.8,5.6-3.2v-1.1h-3.1v2.7h-1.3v-3.8h4.4v-0.8h-5.5v-1.2h5.7V-223z"/>
				<path class="st9" d="M187.3-214.2H186v-0.5h-3v0.5h-1.3v-5.3c-0.2,0.1-0.3,0.1-0.5,0.2l-0.5-0.7v4.6h-1.1v-0.5H177v0.5h-1.2
					v-10.8h4.9v2.5c0.8-0.8,1.6-2,2.2-3.4l1.3,0.3c-0.1,0.3-0.3,0.6-0.4,0.9h3.7v1c-0.4,1.1-1.1,2-1.9,2.8c0.8,0.6,1.8,1.1,2.9,1.5
					l-0.6,1.2c-1.3-0.6-2.3-1.2-3.2-1.9c-0.8,0.6-1.8,1.2-2.9,1.7h5.6v5.4H187.3z M177-225v3.3h0.7v-3.3H177z M177-217.1h0.7v-3.4
					H177V-217.1z M179.6-225h-0.8v3.3h0.8V-225z M179.6-220.5h-0.8v3.4h0.8V-220.5z M180.7-220.5c1.1-0.4,2.1-1,2.9-1.6
					c-0.5-0.5-0.9-1-1.2-1.5c-0.3,0.4-0.6,0.7-1,1.1l-0.7-0.8V-220.5z M186-216v-2.3h-3v2.3H186z M185.9-224.6h-2.8
					c0,0,0,0.1-0.1,0.1c0.4,0.6,0.9,1.2,1.4,1.7C185.1-223.3,185.6-223.9,185.9-224.6z"/>
				<path class="st9" d="M194.4-225.6c1,0,1.7,0.2,2.3,0.7c0.5,0.4,0.8,1.1,0.8,1.8c0,0.6-0.1,1-0.4,1.4c-0.3,0.4-0.7,0.6-1.2,0.8
					c0.7,0.1,1.2,0.4,1.5,0.8s0.5,1,0.5,1.6c0,1-0.3,1.7-1,2.2c-0.6,0.4-1.4,0.6-2.5,0.6h-4.6v-10L194.4-225.6L194.4-225.6z
					 M191.4-221.3h2.6c0.7,0,1.2-0.1,1.5-0.4c0.3-0.3,0.5-0.6,0.5-1.2c0-0.5-0.2-0.9-0.5-1.1c-0.3-0.2-0.8-0.3-1.5-0.3h-2.7
					L191.4-221.3L191.4-221.3z M191.4-216.8h2.8c0.6,0,1.1-0.1,1.5-0.3c0.4-0.3,0.7-0.7,0.7-1.3s-0.2-1-0.5-1.3
					c-0.4-0.3-0.9-0.4-1.6-0.4h-2.9V-216.8z"/>
			</g>
		</g>
		<path class="st10" d="M215.9-196.1h-101v-51h101V-196.1z M115.9-197.1h99v-49h-99C115.9-246.1,115.9-197.1,115.9-197.1z"/>
	</g>
</g>
<g id="RectEndPoint8_39_" transform="translate(380,418)">
	<rect x="117.4" y="-125.8" class="st7" width="100" height="50"/>
	<g>
		<rect x="115.4" y="-127.8" class="st8" width="100" height="50"/>
		<g>
			<g>
				<path class="st9" d="M134.6-103.4l-0.8-1.1c1.2-1,2.1-2.2,2.5-3.7l1.3,0.2c-0.2,0.5-0.4,1.1-0.6,1.5h2.4v-1.9h1.3v1.9h4.5v1.3
					h-4.5v1.9h5.5v1.3h-12.7v-1.3h5.9v-1.9h-3.1C135.8-104.5,135.2-103.9,134.6-103.4z M144.6-95.4h-1.3V-96h-6.7v0.7h-1.3v-5.3h9.4
					L144.6-95.4L144.6-95.4z M143.2-97.3v-2.1h-6.7v2.1H143.2z"/>
				<path class="st9" d="M149.4-107.8v-0.6h1.1v0.6h1.3v-0.6h1.1v0.6h1.6v1h-1.6v0.5h-1.1v-0.5h-1.3v0.5h-0.8l-0.1,0.2h4.4v0.6
					c0.7-0.8,1.2-1.7,1.5-2.9l1.2,0.2c-0.1,0.2-0.1,0.4-0.2,0.6h3.2v1.1h-0.8c-0.2,0.9-0.5,1.6-1,2.2c0.6,0.3,1.3,0.6,2.1,0.8
					l-0.6,1.1c-0.9-0.3-1.7-0.7-2.3-1.1c-0.7,0.5-1.5,0.8-2.4,1.1l-0.5-1.1c0.8-0.2,1.5-0.4,2-0.7c-0.3-0.3-0.6-0.7-0.8-1.1
					c-0.2,0.3-0.5,0.6-0.8,0.8l-0.6-0.8c0,1.2-0.2,2-0.4,2.3c-0.1,0.1-0.1,0.2-0.2,0.2l0.6-0.1c0.1,0.2,0.3,0.5,0.4,0.8h5.4v0.9
					h-12.1v-0.9h5.5c-0.1-0.2-0.2-0.3-0.3-0.4c-0.2,0-0.3,0.1-0.5,0.1H152l-0.1-0.3H149v-1.7c-0.2,0.3-0.5,0.6-0.8,0.8l-0.7-0.9
					c0.6-0.5,1-1.2,1.2-2l0.7,0.1v-0.4h-1.6v-1C147.8-107.8,149.4-107.8,149.4-107.8z M158.9-95.2h-1.3v-0.4h-7.3v0.4H149V-98h9.8
					L158.9-95.2L158.9-95.2z M152.3-103.2c0.3,0,0.4-0.1,0.5-0.4c0.1-0.2,0.1-0.8,0.1-1.6h-3.5c-0.1,0.2-0.2,0.3-0.3,0.4h2.9v1.5
					L152.3-103.2L152.3-103.2z M158.4-100.6v0.8h-8.9v-0.8H158.4z M158.4-99.3v0.8h-8.9v-0.8H158.4z M151-104h-1.1v0.6h1.1V-104z
					 M157.6-96.5v-0.7h-7.3v0.7H157.6z M156.2-106.3c0.2,0.5,0.5,1,1,1.4c0.4-0.4,0.6-1,0.8-1.6h-1.7L156.2-106.3z"/>
				<path class="st9" d="M162.6-104.7l-1.1-0.7c0.9-0.9,1.5-1.9,1.8-3l1.3,0.3c-0.1,0.3-0.2,0.6-0.4,0.9h3.3v1.2h-2.1
					c0.3,0.4,0.5,0.8,0.7,1.2l-1.2,0.4c-0.3-0.6-0.6-1.1-0.9-1.7h-0.5C163.3-105.6,163-105.1,162.6-104.7z M167.2-104.2v-0.8h1.2
					l-0.7-0.5c0.6-0.9,1.1-1.8,1.3-2.9l1.3,0.3c-0.1,0.3-0.2,0.6-0.3,0.9h4v1.2h-2.4c0.3,0.4,0.5,0.8,0.7,1.2l-1.2,0.4
					c-0.3-0.6-0.5-1.1-0.9-1.7h-0.8c-0.2,0.4-0.5,0.9-0.7,1.2l-0.3-0.2v0.8h5.5v1.2h-5.5v0.8h4.6v2.7c0,0.8-0.4,1.2-1.3,1.2h-1
					l-0.3-1.2l0.9,0.1c0.2,0,0.3-0.1,0.3-0.4v-1.3h-3.3v1.1c1.5,1.3,3.4,2.3,5.9,3.1l-0.7,1.2c-2-0.8-3.7-1.8-5.2-3.1v3.3H167v-3.3
					c-1.4,1.3-3,2.3-4.8,3.1l-0.8-1.2c2.2-0.8,4-1.8,5.6-3.2v-1.1h-3.1v2.7h-1.3v-3.8h4.4v-0.8h-5.5v-1.2h5.7V-104.2z"/>
				<path class="st9" d="M187.3-95.5H186V-96h-3v0.5h-1.3v-5.3c-0.2,0.1-0.3,0.1-0.5,0.2l-0.5-0.7v4.6h-1.1v-0.5H177v0.5h-1.2v-10.8
					h4.9v2.5c0.8-0.8,1.6-2,2.2-3.4l1.3,0.3c-0.1,0.3-0.3,0.6-0.4,0.9h3.7v1c-0.4,1.1-1.1,2-1.9,2.8c0.8,0.6,1.8,1.1,2.9,1.5
					l-0.6,1.2c-1.3-0.6-2.3-1.2-3.2-1.9c-0.8,0.6-1.8,1.2-2.9,1.7h5.6v5.4H187.3z M177-106.2v3.3h0.7v-3.3H177z M177-98.3h0.7v-3.4
					H177V-98.3z M179.6-106.2h-0.8v3.3h0.8V-106.2z M179.6-101.7h-0.8v3.4h0.8V-101.7z M180.7-101.7c1.1-0.4,2.1-1,2.9-1.6
					c-0.5-0.5-0.9-1-1.2-1.5c-0.3,0.4-0.6,0.7-1,1.1l-0.7-0.8V-101.7z M186-97.2v-2.3h-3v2.3H186z M185.9-105.8h-2.8
					c0,0,0,0.1-0.1,0.1c0.4,0.6,0.9,1.2,1.4,1.7C185.1-104.6,185.6-105.2,185.9-105.8z"/>
				<path class="st9" d="M197.1-106.1c0.7,0.6,1.2,1.4,1.3,2.4h-1.5c-0.2-0.7-0.5-1.2-1-1.5s-1.1-0.5-1.8-0.5
					c-1.1,0-1.9,0.4-2.4,1.1s-0.8,1.6-0.8,2.8c0,1.2,0.3,2.1,0.8,2.8c0.5,0.7,1.4,1.1,2.5,1.1c0.7,0,1.3-0.2,1.8-0.5
					c0.5-0.4,0.9-1,1.1-1.8h1.5c-0.2,1.2-0.7,2.1-1.6,2.7c-0.8,0.6-1.7,0.9-2.8,0.9c-1.6,0-2.9-0.5-3.7-1.6
					c-0.7-0.9-1.1-2.1-1.1-3.6s0.4-2.7,1.1-3.6c0.8-1.1,2-1.6,3.6-1.6C195.3-107,196.3-106.7,197.1-106.1z"/>
			</g>
		</g>
		<path class="st10" d="M215.9-77.3h-101v-51h101V-77.3z M115.9-78.3h99v-49h-99C115.9-127.3,115.9-78.3,115.9-78.3z"/>
	</g>
</g>
<g id="Link14_2_" transform="translate(0,0)">
	<polygon class="st4" points="272,314.6 272,315.6 239.5,315.6 239.5,75 240.5,75 240.5,314.6 	"/>
	<g transform="translate(0, 0.5)">
		<polygon class="st4" points="267.5,319.1 273.5,314.6 267.5,310.1 		"/>
	</g>
	<path class="st5" d="M240,95.1"/>
	<rect x="232.5" y="95.1" class="st6" width="15" height="220"/>
	<rect x="240" y="307.6" class="st6" width="32" height="15"/>
</g>
<g id="Link16_4_" transform="translate(0,0)">
	<polygon class="st4" points="272,71.6 272,72.6 240.5,72.6 240.5,184.5 183,184.5 183,183.5 239.5,183.5 239.5,71.6 	"/>
	<g transform="translate(0, 0.5)">
		<polygon class="st4" points="267.5,76.1 273.5,71.6 267.5,67.1 		"/>
	</g>
	<rect x="232.5" y="72.1" class="st6" width="15" height="11"/>
	<path class="st5" d="M272,72.1"/>
</g>
<g id="Link16_2_" transform="translate(0,0)">
	<polyline class="st4" points="239.5,183.3 273,183.3 273,184.3 239.5,184.3 	"/>
	<g transform="translate(0, 0.5)">
		<polygon class="st4" points="268.5,187.8 274.5,183.3 268.5,178.8 		"/>
	</g>
	<path class="st5" d="M273,183.8"/>
</g>
<g id="RectEndPoint8_1_" transform="translate(380,418)">
	<rect x="-347.2" y="-320.6" class="st7" width="61" height="50"/>
	<g>
		<rect x="-349.2" y="-322.6" class="st8" width="61" height="50"/>
		<g>
			<g>
				<path class="st9" d="M-330-290.1l-0.7-1.1c2.6-0.7,4.4-1.6,5.3-2.6l0.2-0.3h-5.4v-1.3h6.1c0.3-0.8,0.5-1.8,0.6-2.8v-1.7h1.3v1.7
					c0,1-0.2,2-0.5,2.8h4.4v1.3h-4.9c-0.1,0.1-0.1,0.2-0.2,0.3c1.9,0.8,3.7,1.7,5.3,2.7l-0.7,1.1c-1.7-1.2-3.5-2.1-5.3-2.8
					C-325.7-291.7-327.6-290.8-330-290.1z M-318.9-299h-1.3v-1.7h-9.1v1.7h-1.3v-2.9h5.3c-0.2-0.4-0.3-0.8-0.5-1.1l1.4-0.2
					c0.2,0.4,0.3,0.8,0.5,1.3h5.1v2.9H-318.9z M-325.9-296.6l-0.7,1c-0.9-0.7-1.8-1.2-2.7-1.5l0.7-1
					C-327.7-297.7-326.7-297.2-325.9-296.6z M-324.6-298.6l-0.7,1.1c-0.9-0.6-1.8-1.2-2.7-1.5l0.7-1
					C-326.3-299.7-325.4-299.2-324.6-298.6z"/>
				<path class="st9" d="M-316.8-296.1l-0.4-1.4c1.2-1.6,2-3.5,2.6-5.7l1.3,0.6c-0.3,1.1-0.7,2.1-1.2,3.1v9.4h-1.3v-7.2
					C-316.2-296.9-316.5-296.5-316.8-296.1z M-308.6-302.3v1.3h-2.4c-0.1,0.6-0.2,1.2-0.3,1.7h2.5v1.1c-0.4,3.9-1.9,6.6-4.2,8.1
					l-0.7-1.2c1.1-0.7,1.9-1.7,2.5-2.9c-0.5-0.5-1-0.9-1.5-1.2c-0.3,0.4-0.5,0.9-0.9,1.3l-0.7-1.3c1-1.3,1.7-3.2,1.9-5.5h-1v-1.3
					h4.8V-302.3z M-310.7-295.5c0.3-0.8,0.5-1.7,0.6-2.6h-1.6c-0.2,0.5-0.3,1.1-0.5,1.6C-311.6-296.3-311.1-295.9-310.7-295.5z
					 M-307-301.8v8.7h-1.2v-8.7H-307z M-307.7-290.2l-0.3-1.3c0.5,0.1,0.9,0.1,1.4,0.1c0.4,0,0.5-0.2,0.5-0.5V-303h1.3v11.4
					c0,0.9-0.5,1.4-1.4,1.4H-307.7z"/>
			</g>
		</g>
		<path class="st10" d="M-287.7-272.1h-62v-51h62V-272.1z M-348.7-273.1h60v-49h-60V-273.1z"/>
	</g>
</g>
<g id="RectEndPoint8_19_" transform="translate(380,418)">
	<rect x="-86.7" y="-369.2" class="st7" width="61" height="50"/>
	<g>
		<rect x="-88.7" y="-371.2" class="st8" width="61" height="50"/>
		<g>
			<g>
				<path class="st9" d="M-69.5-338.8l-0.7-1.1c2.6-0.7,4.4-1.6,5.3-2.6l0.2-0.3h-5.4v-1.3h6.1c0.3-0.8,0.5-1.8,0.6-2.8v-1.7h1.3
					v1.7c0,1-0.2,2-0.5,2.8h4.4v1.3h-4.9c-0.1,0.1-0.1,0.2-0.2,0.3c1.9,0.8,3.7,1.7,5.3,2.7l-0.7,1.1c-1.7-1.2-3.5-2.1-5.3-2.8
					C-65.2-340.4-67-339.4-69.5-338.8z M-58.3-347.6h-1.3v-1.7h-9.1v1.7H-70v-2.9h5.3c-0.2-0.4-0.3-0.8-0.5-1.1l1.4-0.2
					c0.2,0.4,0.3,0.8,0.5,1.3h5.1v2.9H-58.3z M-65.4-345.3l-0.7,1c-0.9-0.7-1.8-1.2-2.7-1.5l0.7-1
					C-67.1-346.4-66.2-345.9-65.4-345.3z M-64-347.3l-0.7,1.1c-0.9-0.6-1.8-1.2-2.7-1.5l0.7-1C-65.8-348.4-64.8-347.9-64-347.3z"/>
				<path class="st9" d="M-56.3-344.8l-0.4-1.4c1.2-1.6,2-3.5,2.6-5.7l1.3,0.6c-0.3,1.1-0.7,2.1-1.2,3.1v9.4h-1.3v-7.2
					C-55.7-345.6-56-345.2-56.3-344.8z M-48.1-351v1.3h-2.4c-0.1,0.6-0.2,1.2-0.3,1.7h2.5v1.1c-0.4,3.9-1.9,6.6-4.2,8.1l-0.7-1.2
					c1.1-0.7,1.9-1.7,2.5-2.9c-0.5-0.5-1-0.9-1.5-1.2c-0.3,0.4-0.5,0.9-0.9,1.3l-0.7-1.3c1-1.3,1.7-3.2,1.9-5.5h-1v-1.3h4.8V-351z
					 M-50.2-344.2c0.3-0.8,0.5-1.7,0.6-2.6h-1.6c-0.2,0.5-0.3,1.1-0.5,1.6C-51.1-344.9-50.6-344.6-50.2-344.2z M-46.4-350.4v8.7
					h-1.2v-8.7H-46.4z M-47.1-338.9l-0.3-1.3c0.5,0.1,0.9,0.1,1.4,0.1c0.4,0,0.5-0.2,0.5-0.5v-11.1h1.3v11.4c0,0.9-0.5,1.4-1.4,1.4
					H-47.1z"/>
			</g>
		</g>
		<path class="st10" d="M-27.2-320.7h-62v-51h62C-27.2-371.7-27.2-320.7-27.2-320.7z M-88.2-321.7h60v-49h-60V-321.7z"/>
	</g>
</g>
<g id="RectEndPoint8_20_" transform="translate(380,418)">
	<rect x="-13.8" y="-369.2" class="st7" width="61" height="50"/>
	<g>
		<rect x="-15.8" y="-371.2" class="st8" width="61" height="50"/>
		<g>
			<g>
				<path class="st9" d="M3.3-338.8l-0.7-1.1c2.6-0.7,4.4-1.6,5.3-2.6l0.2-0.3H2.7v-1.3h6.1c0.3-0.8,0.5-1.8,0.6-2.8v-1.7h1.3v1.7
					c0,1-0.2,2-0.5,2.8h4.4v1.3H9.7c-0.1,0.1-0.1,0.2-0.2,0.3c1.9,0.8,3.7,1.7,5.3,2.7l-0.7,1.1c-1.7-1.2-3.5-2.1-5.3-2.8
					C7.7-340.4,5.8-339.4,3.3-338.8z M14.5-347.6h-1.3v-1.7H4.1v1.7H2.8v-2.9h5.3c-0.2-0.4-0.3-0.8-0.5-1.1l1.4-0.2
					c0.2,0.4,0.3,0.8,0.5,1.3h5.1v2.9H14.5z M7.5-345.3l-0.7,1c-0.9-0.7-1.8-1.2-2.7-1.5l0.7-1C5.7-346.4,6.6-345.9,7.5-345.3z
					 M8.8-347.3l-0.7,1.1c-0.9-0.6-1.8-1.2-2.7-1.5l0.7-1C7.1-348.4,8-347.9,8.8-347.3z"/>
				<path class="st9" d="M16.5-344.8l-0.4-1.4c1.2-1.6,2-3.5,2.6-5.7l1.3,0.6c-0.3,1.1-0.7,2.1-1.2,3.1v9.4h-1.3v-7.2
					C17.2-345.6,16.8-345.2,16.5-344.8z M24.7-351v1.3h-2.4c-0.1,0.6-0.2,1.2-0.3,1.7h2.5v1.1c-0.4,3.9-1.9,6.6-4.2,8.1l-0.7-1.2
					c1.1-0.7,1.9-1.7,2.5-2.9c-0.5-0.5-1-0.9-1.5-1.2c-0.3,0.4-0.5,0.9-0.9,1.3l-0.7-1.3c1-1.3,1.7-3.2,1.9-5.5h-1v-1.3h4.8V-351z
					 M22.7-344.2c0.3-0.8,0.5-1.7,0.6-2.6h-1.6c-0.2,0.5-0.3,1.1-0.5,1.6C21.7-344.9,22.2-344.6,22.7-344.2z M26.4-350.4v8.7h-1.2
					v-8.7H26.4z M25.7-338.9l-0.3-1.3c0.5,0.1,0.9,0.1,1.4,0.1c0.4,0,0.5-0.2,0.5-0.5v-11.1h1.3v11.4c0,0.9-0.5,1.4-1.4,1.4H25.7z"
					/>
			</g>
		</g>
		<path class="st10" d="M45.7-320.7h-62v-51h62V-320.7z M-15.3-321.7h60v-49h-60C-15.3-370.7-15.3-321.7-15.3-321.7z"/>
	</g>
</g>
<g>
	<polygon class="st2" points="437.4,235.1 280.2,234.2 279.7,131.5 436.9,132.4 	"/>
	<g>
		<g>
			<path class="st3" d="M292.3,156l-0.7-1.1c2.6-0.7,4.4-1.5,5.3-2.6l0.2-0.3h-5.4v-1.3h6.1c0.3-0.8,0.5-1.8,0.6-2.8v-1.7h1.3v1.7
				c0,1-0.2,2-0.5,2.8h4.4v1.3h-4.9c-0.1,0.1-0.1,0.2-0.2,0.3c1.9,0.8,3.7,1.7,5.3,2.7l-0.7,1.1c-1.7-1.2-3.5-2.1-5.3-2.9
				C296.6,154.5,294.8,155.4,292.3,156z M303.5,147.2h-1.3v-1.7h-9.1v1.7h-1.3v-2.9h5.3c-0.2-0.4-0.3-0.8-0.5-1.1l1.4-0.2
				c0.2,0.4,0.3,0.8,0.5,1.3h5.1L303.5,147.2z M296.4,149.5l-0.7,1c-0.9-0.7-1.8-1.2-2.7-1.5l0.7-1
				C294.7,148.4,295.6,148.9,296.4,149.5z M297.8,147.5l-0.7,1c-0.9-0.6-1.8-1.2-2.7-1.5l0.7-1C296.1,146.5,297,147,297.8,147.5z"/>
			<path class="st3" d="M305.5,150.1l-0.4-1.4c1.2-1.6,2-3.5,2.6-5.7l1.3,0.6c-0.3,1.1-0.7,2.1-1.2,3v9.4h-1.3v-7.2
				C306.1,149.3,305.8,149.7,305.5,150.1z M313.7,143.9v1.3h-2.4c-0.1,0.6-0.2,1.2-0.3,1.7h2.5v1.1c-0.5,3.9-1.9,6.5-4.2,8.1
				l-0.7-1.2c1.1-0.7,1.9-1.7,2.5-2.9c-0.5-0.5-1-0.9-1.5-1.3c-0.3,0.4-0.5,0.9-0.9,1.3l-0.7-1.3c1-1.3,1.7-3.2,1.9-5.5h-1v-1.3
				L313.7,143.9z M311.6,150.7c0.3-0.8,0.5-1.7,0.6-2.6h-1.6c-0.2,0.5-0.4,1.1-0.6,1.6C310.7,149.9,311.2,150.3,311.6,150.7z
				 M315.4,144.4v8.7h-1.2v-8.7H315.4z M314.7,156l-0.3-1.3c0.5,0.1,0.9,0.1,1.4,0.1c0.4,0,0.5-0.2,0.5-0.5v-11.1h1.3v11.4
				c0,0.9-0.5,1.4-1.4,1.4L314.7,156z"/>
			<path class="st3" d="M324.7,144.1c-0.6,1.1-1.3,2.1-2,2.8c-0.7,0.8-1.6,1.5-2.8,2.4l-0.7-1.2c0.9-0.5,1.7-1.2,2.5-2.1
				c0.6-0.7,1.3-1.6,1.8-2.7L324.7,144.1z M321.3,149.9v-1.3h8.5c-0.1,1.8-0.2,3.2-0.3,4.4c-0.1,1.1-0.4,1.9-0.7,2.3
				c-0.3,0.4-0.8,0.7-1.6,0.7h-2.6l-0.4-1.3c0.8,0,1.6,0.1,2.3,0.1c0.7,0,1.2-0.3,1.4-0.9c0.2-0.6,0.4-1.9,0.5-3.9h-3.2
				c-0.3,1.5-0.8,2.6-1.4,3.5c-0.7,1-1.8,1.9-3.2,2.7l-0.9-1.1c1.3-0.7,2.2-1.4,2.9-2.2c0.5-0.7,0.9-1.7,1.2-2.9L321.3,149.9z
				 M332.1,148.3l-0.9,1c-2.2-1.4-3.7-3.2-4.5-5.4l1.2-0.7C328.6,145.4,330,147,332.1,148.3z"/>
			<path class="st3" d="M337.1,143.7c-0.7,1.6-1.4,2.9-2.2,3.9c0.5-0.1,1.1-0.1,1.6-0.2c0.3-0.5,0.6-1,0.9-1.6l1.2,0.5
				c-1.2,2.2-2.3,3.8-3.1,4.8c0.9-0.2,1.9-0.5,2.8-0.9v1.2c-1.6,0.6-3.1,1-4.5,1.1l-0.3-1.2c0.2-0.1,0.4-0.2,0.6-0.4
				c0.5-0.5,1-1.2,1.7-2.3c-0.7,0.1-1.5,0.2-2.2,0.3l-0.3-1.2c0.2-0.1,0.4-0.3,0.6-0.5c0.8-1.2,1.4-2.5,2-4L337.1,143.7z M338.2,154
				c-1.3,0.7-2.9,1.2-4.6,1.6l-0.2-1.3c1.8-0.4,3.4-0.9,4.8-1.5L338.2,154z M344.9,154.4h1.1v1.3h-8.2v-1.3h1.1v-10.5h5.9
				L344.9,154.4z M343.6,154.4v-2.3h-3.3v2.3H343.6z M343.6,150.9v-2.3h-3.3v2.3H343.6z M343.6,147.3v-2.2h-3.3v2.2H343.6z"/>
		</g>
	</g>
</g>
<g id="RectEndPoint8_22_" transform="translate(380,418)">
	<rect x="-86.7" y="-246.7" class="st7" width="61" height="50"/>
	<g>
		<rect x="-88.7" y="-248.7" class="st8" width="61" height="50"/>
		<g>
			<g>
				<path class="st9" d="M-69.5-216.3l-0.7-1.1c2.6-0.7,4.4-1.6,5.3-2.6l0.2-0.3h-5.4v-1.3h6.1c0.3-0.8,0.5-1.8,0.6-2.8v-1.7h1.3
					v1.7c0,1-0.2,2-0.5,2.8h4.4v1.3h-4.9c-0.1,0.1-0.1,0.2-0.2,0.3c1.9,0.8,3.7,1.7,5.3,2.7l-0.7,1.1c-1.7-1.2-3.5-2.1-5.3-2.8
					C-65.2-217.8-67-216.9-69.5-216.3z M-58.3-225.1h-1.3v-1.7h-9.1v1.7H-70v-2.9h5.3c-0.2-0.4-0.3-0.8-0.5-1.1l1.4-0.2
					c0.2,0.4,0.3,0.8,0.5,1.3h5.1v2.9H-58.3z M-65.4-222.8l-0.7,1c-0.9-0.7-1.8-1.2-2.7-1.5l0.7-1
					C-67.1-223.9-66.2-223.4-65.4-222.8z M-64-224.8l-0.7,1.1c-0.9-0.6-1.8-1.2-2.7-1.5l0.7-1C-65.8-225.8-64.8-225.4-64-224.8z"/>
				<path class="st9" d="M-56.3-222.3l-0.4-1.4c1.2-1.6,2-3.5,2.6-5.7l1.3,0.6c-0.3,1.1-0.7,2.1-1.2,3.1v9.4h-1.3v-7.2
					C-55.7-223-56-222.6-56.3-222.3z M-48.1-228.5v1.3h-2.4c-0.1,0.6-0.2,1.2-0.3,1.7h2.5v1.1c-0.4,3.9-1.9,6.6-4.2,8.1l-0.7-1.2
					c1.1-0.7,1.9-1.7,2.5-2.9c-0.5-0.5-1-0.9-1.5-1.2c-0.3,0.4-0.5,0.9-0.9,1.3l-0.7-1.3c1-1.3,1.7-3.2,1.9-5.5h-1v-1.3h4.8V-228.5z
					 M-50.2-221.7c0.3-0.8,0.5-1.7,0.6-2.6h-1.6c-0.2,0.5-0.3,1.1-0.5,1.6C-51.1-222.4-50.6-222.1-50.2-221.7z M-46.4-227.9v8.7
					h-1.2v-8.7H-46.4z M-47.1-216.4l-0.3-1.3c0.5,0.1,0.9,0.1,1.4,0.1c0.4,0,0.5-0.2,0.5-0.5v-11.1h1.3v11.4c0,0.9-0.5,1.4-1.4,1.4
					L-47.1-216.4L-47.1-216.4z"/>
			</g>
		</g>
		<path class="st10" d="M-27.2-198.2h-62v-51h62C-27.2-249.2-27.2-198.2-27.2-198.2z M-88.2-199.2h60v-49h-60V-199.2z"/>
	</g>
</g>
<g id="RectEndPoint8_21_" transform="translate(380,418)">
	<rect x="-13.8" y="-246.7" class="st7" width="61" height="50"/>
	<g>
		<rect x="-15.8" y="-248.7" class="st8" width="61" height="50"/>
		<g>
			<g>
				<path class="st9" d="M3.3-216.3l-0.7-1.1c2.6-0.7,4.4-1.6,5.3-2.6l0.2-0.3H2.7v-1.3h6.1c0.3-0.8,0.5-1.8,0.6-2.8v-1.7h1.3v1.7
					c0,1-0.2,2-0.5,2.8h4.4v1.3H9.7c-0.1,0.1-0.1,0.2-0.2,0.3c1.9,0.8,3.7,1.7,5.3,2.7l-0.7,1.1c-1.7-1.2-3.5-2.1-5.3-2.8
					C7.7-217.8,5.8-216.9,3.3-216.3z M14.5-225.1h-1.3v-1.7H4.1v1.7H2.8v-2.9h5.3c-0.2-0.4-0.3-0.8-0.5-1.1l1.4-0.2
					c0.2,0.4,0.3,0.8,0.5,1.3h5.1v2.9H14.5z M7.5-222.8l-0.7,1c-0.9-0.7-1.8-1.2-2.7-1.5l0.7-1C5.7-223.9,6.6-223.4,7.5-222.8z
					 M8.8-224.8l-0.7,1.1c-0.9-0.6-1.8-1.2-2.7-1.5l0.7-1C7.1-225.8,8-225.4,8.8-224.8z"/>
				<path class="st9" d="M16.5-222.3l-0.4-1.4c1.2-1.6,2-3.5,2.6-5.7l1.3,0.6c-0.3,1.1-0.7,2.1-1.2,3.1v9.4h-1.3v-7.2
					C17.2-223,16.8-222.6,16.5-222.3z M24.7-228.5v1.3h-2.4c-0.1,0.6-0.2,1.2-0.3,1.7h2.5v1.1c-0.4,3.9-1.9,6.6-4.2,8.1l-0.7-1.2
					c1.1-0.7,1.9-1.7,2.5-2.9c-0.5-0.5-1-0.9-1.5-1.2c-0.3,0.4-0.5,0.9-0.9,1.3l-0.7-1.3c1-1.3,1.7-3.2,1.9-5.5h-1v-1.3h4.8V-228.5z
					 M22.7-221.7c0.3-0.8,0.5-1.7,0.6-2.6h-1.6c-0.2,0.5-0.3,1.1-0.5,1.6C21.7-222.4,22.2-222.1,22.7-221.7z M26.4-227.9v8.7h-1.2
					v-8.7H26.4z M25.7-216.4l-0.3-1.3c0.5,0.1,0.9,0.1,1.4,0.1c0.4,0,0.5-0.2,0.5-0.5v-11.1h1.3v11.4c0,0.9-0.5,1.4-1.4,1.4
					L25.7-216.4L25.7-216.4z"/>
			</g>
		</g>
		<path class="st10" d="M45.7-198.2h-62v-51h62V-198.2z M-15.3-199.2h60v-49h-60C-15.3-248.2-15.3-199.2-15.3-199.2z"/>
	</g>
</g>
<g>
	<polygon class="st2" points="437.4,356 280.2,355.1 279.7,252.4 436.9,253.3 	"/>
	<g>
		<g>
			<path class="st3" d="M292.3,276.9l-0.7-1.1c2.6-0.7,4.4-1.5,5.3-2.6l0.2-0.3h-5.4v-1.3h6.1c0.3-0.8,0.5-1.8,0.6-2.8v-1.7h1.3v1.7
				c0,1-0.2,2-0.5,2.8h4.4v1.3h-4.9c-0.1,0.1-0.1,0.2-0.2,0.3c1.9,0.8,3.7,1.7,5.3,2.7l-0.7,1.1c-1.7-1.2-3.5-2.1-5.3-2.9
				C296.6,275.4,294.8,276.3,292.3,276.9z M303.5,268.1h-1.3v-1.7h-9.1v1.7h-1.3v-2.9h5.3c-0.2-0.4-0.3-0.8-0.5-1.1l1.4-0.2
				c0.2,0.4,0.3,0.8,0.5,1.3h5.1L303.5,268.1z M296.4,270.4l-0.7,1c-0.9-0.7-1.8-1.2-2.7-1.5l0.7-1
				C294.7,269.4,295.6,269.9,296.4,270.4z M297.8,268.5l-0.7,1c-0.9-0.6-1.8-1.2-2.7-1.5l0.7-1C296.1,267.4,297,267.9,297.8,268.5z"
				/>
			<path class="st3" d="M305.5,271l-0.4-1.4c1.2-1.6,2-3.5,2.6-5.7l1.3,0.6c-0.3,1.1-0.7,2.1-1.2,3v9.4h-1.3v-7.2
				C306.1,270.2,305.8,270.6,305.5,271z M313.7,264.8v1.3h-2.4c-0.1,0.6-0.2,1.2-0.3,1.7h2.5v1.1c-0.5,3.9-1.9,6.5-4.2,8.1l-0.7-1.2
				c1.1-0.7,1.9-1.7,2.5-2.9c-0.5-0.5-1-0.9-1.5-1.3c-0.3,0.4-0.5,0.9-0.9,1.3l-0.7-1.3c1-1.3,1.7-3.2,1.9-5.5h-1v-1.3L313.7,264.8z
				 M311.6,271.6c0.3-0.8,0.5-1.7,0.6-2.6h-1.6c-0.2,0.5-0.4,1.1-0.6,1.6C310.7,270.9,311.2,271.2,311.6,271.6z M315.4,265.4v8.7
				h-1.2v-8.7H315.4z M314.7,276.9l-0.3-1.3c0.5,0.1,0.9,0.1,1.4,0.1c0.4,0,0.5-0.2,0.5-0.5v-11.1h1.3v11.4c0,0.9-0.5,1.4-1.4,1.4
				H314.7z"/>
			<path class="st3" d="M324.7,265.1c-0.6,1.1-1.3,2.1-2,2.8c-0.7,0.8-1.6,1.5-2.8,2.4l-0.7-1.2c0.9-0.5,1.7-1.2,2.5-2.1
				c0.6-0.7,1.3-1.6,1.8-2.7L324.7,265.1z M321.3,270.8v-1.3h8.5c-0.1,1.8-0.2,3.2-0.3,4.4c-0.1,1.1-0.4,1.9-0.7,2.3
				c-0.3,0.4-0.8,0.7-1.6,0.7h-2.6l-0.4-1.3c0.8,0,1.6,0.1,2.3,0.1c0.7,0,1.2-0.3,1.4-0.9c0.2-0.6,0.4-1.9,0.5-3.9h-3.2
				c-0.3,1.5-0.8,2.6-1.4,3.5c-0.7,1-1.8,1.9-3.2,2.7l-0.9-1.1c1.3-0.7,2.2-1.4,2.9-2.2c0.5-0.7,0.9-1.7,1.2-2.9L321.3,270.8z
				 M332.1,269.2l-0.9,1c-2.2-1.4-3.7-3.2-4.5-5.4l1.2-0.7C328.6,266.3,330,268,332.1,269.2z"/>
			<path class="st3" d="M337.1,264.6c-0.7,1.6-1.4,2.9-2.2,3.9c0.5-0.1,1.1-0.1,1.6-0.2c0.3-0.5,0.6-1,0.9-1.6l1.2,0.5
				c-1.2,2.2-2.3,3.8-3.1,4.8c0.9-0.2,1.9-0.5,2.8-0.9v1.2c-1.6,0.6-3.1,1-4.5,1.1l-0.3-1.2c0.2-0.1,0.4-0.2,0.6-0.4
				c0.5-0.5,1-1.2,1.7-2.3c-0.7,0.1-1.5,0.2-2.2,0.3l-0.3-1.2c0.2-0.1,0.4-0.3,0.6-0.5c0.8-1.2,1.4-2.5,2-4L337.1,264.6z
				 M338.2,274.9c-1.3,0.7-2.9,1.2-4.6,1.6l-0.2-1.3c1.8-0.4,3.4-0.9,4.8-1.5L338.2,274.9z M344.9,275.3h1.1v1.3h-8.2v-1.3h1.1
				v-10.5h5.9L344.9,275.3z M343.6,275.3V273h-3.3v2.3H343.6z M343.6,271.8v-2.3h-3.3v2.3H343.6z M343.6,268.2V266h-3.3v2.2H343.6z"
				/>
		</g>
	</g>
</g>
<g id="RectEndPoint8_36_" transform="translate(380,418)">
	<rect x="-86.7" y="-125.8" class="st7" width="61" height="50"/>
	<g>
		<rect x="-88.7" y="-127.8" class="st8" width="61" height="50"/>
		<g>
			<g>
				<path class="st9" d="M-69.5-95.3l-0.7-1.1c2.6-0.7,4.4-1.6,5.3-2.6l0.2-0.3h-5.4v-1.3h6.1c0.3-0.8,0.5-1.8,0.6-2.8v-1.7h1.3v1.7
					c0,1-0.2,2-0.5,2.8h4.4v1.3h-4.9c-0.1,0.1-0.1,0.2-0.2,0.3c1.9,0.8,3.7,1.7,5.3,2.7l-0.7,1.1c-1.7-1.2-3.5-2.1-5.3-2.8
					C-65.2-96.9-67-96-69.5-95.3z M-58.3-104.2h-1.3v-1.7h-9.1v1.7H-70v-2.9h5.3c-0.2-0.4-0.3-0.8-0.5-1.1l1.4-0.2
					c0.2,0.4,0.3,0.8,0.5,1.3h5.1v2.9H-58.3z M-65.4-101.9l-0.7,1c-0.9-0.7-1.8-1.2-2.7-1.5l0.7-1
					C-67.1-102.9-66.2-102.4-65.4-101.9z M-64-103.8l-0.7,1.1c-0.9-0.6-1.8-1.2-2.7-1.5l0.7-1C-65.8-104.9-64.8-104.4-64-103.8z"/>
				<path class="st9" d="M-56.3-101.3l-0.4-1.4c1.2-1.6,2-3.5,2.6-5.7l1.3,0.6c-0.3,1.1-0.7,2.1-1.2,3.1v9.4h-1.3v-7.2
					C-55.7-102.1-56-101.7-56.3-101.3z M-48.1-107.6v1.3h-2.4c-0.1,0.6-0.2,1.2-0.3,1.7h2.5v1.1c-0.4,3.9-1.9,6.6-4.2,8.1l-0.7-1.2
					c1.1-0.7,1.9-1.7,2.5-2.9c-0.5-0.5-1-0.9-1.5-1.2c-0.3,0.4-0.5,0.9-0.9,1.3l-0.7-1.3c1-1.3,1.7-3.2,1.9-5.5h-1v-1.3L-48.1-107.6
					L-48.1-107.6z M-50.2-100.7c0.3-0.8,0.5-1.7,0.6-2.6h-1.6c-0.2,0.5-0.3,1.1-0.5,1.6C-51.1-101.5-50.6-101.1-50.2-100.7z
					 M-46.4-107v8.7h-1.2v-8.7H-46.4z M-47.1-95.5l-0.3-1.3c0.5,0.1,0.9,0.1,1.4,0.1c0.4,0,0.5-0.2,0.5-0.5v-11.1h1.3v11.4
					c0,0.9-0.5,1.4-1.4,1.4H-47.1z"/>
			</g>
		</g>
		<path class="st10" d="M-27.2-77.3h-62v-51h62C-27.2-128.3-27.2-77.3-27.2-77.3z M-88.2-78.3h60v-49h-60V-78.3z"/>
	</g>
</g>
<g id="RectEndPoint8_35_" transform="translate(380,418)">
	<rect x="-13.8" y="-125.8" class="st7" width="61" height="50"/>
	<g>
		<rect x="-15.8" y="-127.8" class="st8" width="61" height="50"/>
		<g>
			<g>
				<path class="st9" d="M3.3-95.3l-0.7-1.1C5.2-97.2,7-98,7.9-99.1l0.2-0.3H2.7v-1.3h6.1c0.3-0.8,0.5-1.8,0.6-2.8v-1.7h1.3v1.7
					c0,1-0.2,2-0.5,2.8h4.4v1.3H9.7c-0.1,0.1-0.1,0.2-0.2,0.3c1.9,0.8,3.7,1.7,5.3,2.7l-0.7,1.1c-1.7-1.2-3.5-2.1-5.3-2.8
					C7.7-96.9,5.8-96,3.3-95.3z M14.5-104.2h-1.3v-1.7H4.1v1.7H2.8v-2.9h5.3c-0.2-0.4-0.3-0.8-0.5-1.1l1.4-0.2
					c0.2,0.4,0.3,0.8,0.5,1.3h5.1v2.9H14.5z M7.5-101.9l-0.7,1c-0.9-0.7-1.8-1.2-2.7-1.5l0.7-1C5.7-102.9,6.6-102.4,7.5-101.9z
					 M8.8-103.8l-0.7,1.1c-0.9-0.6-1.8-1.2-2.7-1.5l0.7-1C7.1-104.9,8-104.4,8.8-103.8z"/>
				<path class="st9" d="M16.5-101.3l-0.4-1.4c1.2-1.6,2-3.5,2.6-5.7l1.3,0.6c-0.3,1.1-0.7,2.1-1.2,3.1v9.4h-1.3v-7.2
					C17.2-102.1,16.8-101.7,16.5-101.3z M24.7-107.6v1.3h-2.4c-0.1,0.6-0.2,1.2-0.3,1.7h2.5v1.1c-0.4,3.9-1.9,6.6-4.2,8.1l-0.7-1.2
					c1.1-0.7,1.9-1.7,2.5-2.9c-0.5-0.5-1-0.9-1.5-1.2c-0.3,0.4-0.5,0.9-0.9,1.3l-0.7-1.3c1-1.3,1.7-3.2,1.9-5.5h-1v-1.3L24.7-107.6
					L24.7-107.6z M22.7-100.7c0.3-0.8,0.5-1.7,0.6-2.6h-1.6c-0.2,0.5-0.3,1.1-0.5,1.6C21.7-101.5,22.2-101.1,22.7-100.7z M26.4-107
					v8.7h-1.2v-8.7H26.4z M25.7-95.5l-0.3-1.3c0.5,0.1,0.9,0.1,1.4,0.1c0.4,0,0.5-0.2,0.5-0.5v-11.1h1.3v11.4c0,0.9-0.5,1.4-1.4,1.4
					H25.7z"/>
			</g>
		</g>
		<path class="st10" d="M45.7-77.3h-62v-51h62V-77.3z M-15.3-78.3h60v-49h-60C-15.3-127.3-15.3-78.3-15.3-78.3z"/>
	</g>
</g>
<g id="RectEndPoint8_6_" transform="translate(380,418)">
	<rect x="-273.1" y="-320.6" class="st7" width="61" height="50"/>
	<g>
		<rect x="-275.1" y="-322.6" class="st8" width="61" height="50"/>
		<g>
			<g>
				<path class="st9" d="M-255.9-290.1l-0.7-1.1c2.6-0.7,4.4-1.6,5.3-2.6l0.2-0.3h-5.4v-1.3h6.1c0.3-0.8,0.5-1.8,0.6-2.8v-1.7h1.3
					v1.7c0,1-0.2,2-0.5,2.8h4.4v1.3h-4.9c-0.1,0.1-0.1,0.2-0.2,0.3c1.9,0.8,3.7,1.7,5.3,2.7l-0.7,1.1c-1.7-1.2-3.5-2.1-5.3-2.8
					C-251.6-291.7-253.4-290.8-255.9-290.1z M-244.7-299h-1.3v-1.7h-9.1v1.7h-1.3v-2.9h5.3c-0.2-0.4-0.3-0.8-0.5-1.1l1.4-0.2
					c0.2,0.4,0.3,0.8,0.5,1.3h5.1v2.9H-244.7z M-251.8-296.6l-0.7,1c-0.9-0.7-1.8-1.2-2.7-1.5l0.7-1
					C-253.5-297.7-252.6-297.2-251.8-296.6z M-250.4-298.6l-0.7,1.1c-0.9-0.6-1.8-1.2-2.7-1.5l0.7-1
					C-252.2-299.7-251.3-299.2-250.4-298.6z"/>
				<path class="st9" d="M-242.7-296.1l-0.4-1.4c1.2-1.6,2-3.5,2.6-5.7l1.3,0.6c-0.3,1.1-0.7,2.1-1.2,3.1v9.4h-1.3v-7.2
					C-242.1-296.9-242.4-296.5-242.7-296.1z M-234.5-302.3v1.3h-2.4c-0.1,0.6-0.2,1.2-0.3,1.7h2.5v1.1c-0.4,3.9-1.9,6.6-4.2,8.1
					l-0.7-1.2c1.1-0.7,1.9-1.7,2.5-2.9c-0.5-0.5-1-0.9-1.5-1.2c-0.3,0.4-0.5,0.9-0.9,1.3l-0.7-1.3c1-1.3,1.7-3.2,1.9-5.5h-1v-1.3
					h4.8V-302.3z M-236.6-295.5c0.3-0.8,0.5-1.7,0.6-2.6h-1.6c-0.2,0.5-0.3,1.1-0.5,1.6C-237.5-296.3-237-295.9-236.6-295.5z
					 M-232.9-301.8v8.7h-1.2v-8.7H-232.9z M-233.5-290.2l-0.3-1.3c0.5,0.1,0.9,0.1,1.4,0.1c0.4,0,0.5-0.2,0.5-0.5V-303h1.3v11.4
					c0,0.9-0.5,1.4-1.4,1.4H-233.5z"/>
			</g>
		</g>
		<path class="st10" d="M-213.6-272.1h-62v-51h62V-272.1z M-274.6-273.1h60v-49h-60V-273.1z"/>
	</g>
</g>
<g id="RectEndPoint8_11_" transform="translate(380,418)">
	<rect x="-347.2" y="-257.6" class="st7" width="61" height="50"/>
	<g>
		<rect x="-349.2" y="-259.6" class="st8" width="61" height="50"/>
		<g>
			<g>
				<path class="st9" d="M-330-227.1l-0.7-1.1c2.6-0.7,4.4-1.6,5.3-2.6l0.2-0.3h-5.4v-1.3h6.1c0.3-0.8,0.5-1.8,0.6-2.8v-1.7h1.3v1.7
					c0,1-0.2,2-0.5,2.8h4.4v1.3h-4.9c-0.1,0.1-0.1,0.2-0.2,0.3c1.9,0.8,3.7,1.7,5.3,2.7l-0.7,1.1c-1.7-1.2-3.5-2.1-5.3-2.8
					C-325.7-228.7-327.6-227.8-330-227.1z M-318.9-236h-1.3v-1.7h-9.1v1.7h-1.3v-2.9h5.3c-0.2-0.4-0.3-0.8-0.5-1.1l1.4-0.2
					c0.2,0.4,0.3,0.8,0.5,1.3h5.1v2.9H-318.9z M-325.9-233.6l-0.7,1c-0.9-0.7-1.8-1.2-2.7-1.5l0.7-1
					C-327.7-234.7-326.7-234.2-325.9-233.6z M-324.6-235.6l-0.7,1.1c-0.9-0.6-1.8-1.2-2.7-1.5l0.7-1
					C-326.3-236.7-325.4-236.2-324.6-235.6z"/>
				<path class="st9" d="M-316.8-233.1l-0.4-1.4c1.2-1.6,2-3.5,2.6-5.7l1.3,0.6c-0.3,1.1-0.7,2.1-1.2,3.1v9.4h-1.3v-7.2
					C-316.2-233.9-316.5-233.5-316.8-233.1z M-308.6-239.3v1.3h-2.4c-0.1,0.6-0.2,1.2-0.3,1.7h2.5v1.1c-0.4,3.9-1.9,6.6-4.2,8.1
					l-0.7-1.2c1.1-0.7,1.9-1.7,2.5-2.9c-0.5-0.5-1-0.9-1.5-1.2c-0.3,0.4-0.5,0.9-0.9,1.3l-0.7-1.3c1-1.3,1.7-3.2,1.9-5.5h-1v-1.3
					h4.8V-239.3z M-310.7-232.5c0.3-0.8,0.5-1.7,0.6-2.6h-1.6c-0.2,0.5-0.3,1.1-0.5,1.6C-311.6-233.3-311.1-232.9-310.7-232.5z
					 M-307-238.8v8.7h-1.2v-8.7H-307z M-307.7-227.2l-0.3-1.3c0.5,0.1,0.9,0.1,1.4,0.1c0.4,0,0.5-0.2,0.5-0.5V-240h1.3v11.4
					c0,0.9-0.5,1.4-1.4,1.4L-307.7-227.2L-307.7-227.2z"/>
			</g>
		</g>
		<path class="st10" d="M-287.7-209.1h-62v-51h62V-209.1z M-348.7-210.1h60v-49h-60V-210.1z"/>
	</g>
</g>
<g id="RectEndPoint8_7_" transform="translate(380,418)">
	<rect x="-273.1" y="-257.6" class="st7" width="61" height="50"/>
	<g>
		<rect x="-275.1" y="-259.6" class="st8" width="61" height="50"/>
		<g>
			<g>
				<path class="st9" d="M-255.9-227.1l-0.7-1.1c2.6-0.7,4.4-1.6,5.3-2.6l0.2-0.3h-5.4v-1.3h6.1c0.3-0.8,0.5-1.8,0.6-2.8v-1.7h1.3
					v1.7c0,1-0.2,2-0.5,2.8h4.4v1.3h-4.9c-0.1,0.1-0.1,0.2-0.2,0.3c1.9,0.8,3.7,1.7,5.3,2.7l-0.7,1.1c-1.7-1.2-3.5-2.1-5.3-2.8
					C-251.6-228.7-253.4-227.8-255.9-227.1z M-244.7-236h-1.3v-1.7h-9.1v1.7h-1.3v-2.9h5.3c-0.2-0.4-0.3-0.8-0.5-1.1l1.4-0.2
					c0.2,0.4,0.3,0.8,0.5,1.3h5.1v2.9H-244.7z M-251.8-233.6l-0.7,1c-0.9-0.7-1.8-1.2-2.7-1.5l0.7-1
					C-253.5-234.7-252.6-234.2-251.8-233.6z M-250.4-235.6l-0.7,1.1c-0.9-0.6-1.8-1.2-2.7-1.5l0.7-1
					C-252.2-236.7-251.3-236.2-250.4-235.6z"/>
				<path class="st9" d="M-242.7-233.1l-0.4-1.4c1.2-1.6,2-3.5,2.6-5.7l1.3,0.6c-0.3,1.1-0.7,2.1-1.2,3.1v9.4h-1.3v-7.2
					C-242.1-233.9-242.4-233.5-242.7-233.1z M-234.5-239.3v1.3h-2.4c-0.1,0.6-0.2,1.2-0.3,1.7h2.5v1.1c-0.4,3.9-1.9,6.6-4.2,8.1
					l-0.7-1.2c1.1-0.7,1.9-1.7,2.5-2.9c-0.5-0.5-1-0.9-1.5-1.2c-0.3,0.4-0.5,0.9-0.9,1.3l-0.7-1.3c1-1.3,1.7-3.2,1.9-5.5h-1v-1.3
					h4.8V-239.3z M-236.6-232.5c0.3-0.8,0.5-1.7,0.6-2.6h-1.6c-0.2,0.5-0.3,1.1-0.5,1.6C-237.5-233.3-237-232.9-236.6-232.5z
					 M-232.9-238.8v8.7h-1.2v-8.7H-232.9z M-233.5-227.2l-0.3-1.3c0.5,0.1,0.9,0.1,1.4,0.1c0.4,0,0.5-0.2,0.5-0.5V-240h1.3v11.4
					c0,0.9-0.5,1.4-1.4,1.4L-233.5-227.2L-233.5-227.2z"/>
			</g>
		</g>
		<path class="st10" d="M-213.6-209.1h-62v-51h62V-209.1z M-274.6-210.1h60v-49h-60V-210.1z"/>
	</g>
</g>
<g id="RectEndPoint8_18_" transform="translate(380,418)">
	<rect x="-347.2" y="-194.6" class="st7" width="61" height="50"/>
	<g>
		<rect x="-349.2" y="-196.6" class="st8" width="61" height="50"/>
		<g>
			<g>
				<path class="st9" d="M-330-164.1l-0.7-1.1c2.6-0.7,4.4-1.6,5.3-2.6l0.2-0.3h-5.4v-1.3h6.1c0.3-0.8,0.5-1.8,0.6-2.8v-1.7h1.3v1.7
					c0,1-0.2,2-0.5,2.8h4.4v1.3h-4.9c-0.1,0.1-0.1,0.2-0.2,0.3c1.9,0.8,3.7,1.7,5.3,2.7l-0.7,1.1c-1.7-1.2-3.5-2.1-5.3-2.8
					C-325.7-165.7-327.6-164.8-330-164.1z M-318.9-173h-1.3v-1.7h-9.1v1.7h-1.3v-2.9h5.3c-0.2-0.4-0.3-0.8-0.5-1.1l1.4-0.2
					c0.2,0.4,0.3,0.8,0.5,1.3h5.1v2.9H-318.9z M-325.9-170.6l-0.7,1c-0.9-0.7-1.8-1.2-2.7-1.5l0.7-1
					C-327.7-171.7-326.7-171.2-325.9-170.6z M-324.6-172.6l-0.7,1.1c-0.9-0.6-1.8-1.2-2.7-1.5l0.7-1
					C-326.3-173.7-325.4-173.2-324.6-172.6z"/>
				<path class="st9" d="M-316.8-170.1l-0.4-1.4c1.2-1.6,2-3.5,2.6-5.7l1.3,0.6c-0.3,1.1-0.7,2.1-1.2,3.1v9.4h-1.3v-7.2
					C-316.2-170.9-316.5-170.5-316.8-170.1z M-308.6-176.3v1.3h-2.4c-0.1,0.6-0.2,1.2-0.3,1.7h2.5v1.1c-0.4,3.9-1.9,6.6-4.2,8.1
					l-0.7-1.2c1.1-0.7,1.9-1.7,2.5-2.9c-0.5-0.5-1-0.9-1.5-1.2c-0.3,0.4-0.5,0.9-0.9,1.3l-0.7-1.3c1-1.3,1.7-3.2,1.9-5.5h-1v-1.3
					h4.8V-176.3z M-310.7-169.5c0.3-0.8,0.5-1.7,0.6-2.6h-1.6c-0.2,0.5-0.3,1.1-0.5,1.6C-311.6-170.3-311.1-169.9-310.7-169.5z
					 M-307-175.8v8.7h-1.2v-8.7H-307z M-307.7-164.2l-0.3-1.3c0.5,0.1,0.9,0.1,1.4,0.1c0.4,0,0.5-0.2,0.5-0.5V-177h1.3v11.4
					c0,0.9-0.5,1.4-1.4,1.4L-307.7-164.2L-307.7-164.2z"/>
			</g>
		</g>
		<path class="st10" d="M-287.7-146.1h-62v-51h62V-146.1z M-348.7-147.1h60v-49h-60V-147.1z"/>
	</g>
</g>
<g id="RectEndPoint8_12_" transform="translate(380,418)">
	<rect x="-273.1" y="-194.6" class="st7" width="61" height="50"/>
	<g>
		<rect x="-275.1" y="-196.6" class="st8" width="61" height="50"/>
		<g>
			<g>
				<path class="st9" d="M-255.9-164.1l-0.7-1.1c2.6-0.7,4.4-1.6,5.3-2.6l0.2-0.3h-5.4v-1.3h6.1c0.3-0.8,0.5-1.8,0.6-2.8v-1.7h1.3
					v1.7c0,1-0.2,2-0.5,2.8h4.4v1.3h-4.9c-0.1,0.1-0.1,0.2-0.2,0.3c1.9,0.8,3.7,1.7,5.3,2.7l-0.7,1.1c-1.7-1.2-3.5-2.1-5.3-2.8
					C-251.6-165.7-253.4-164.8-255.9-164.1z M-244.7-173h-1.3v-1.7h-9.1v1.7h-1.3v-2.9h5.3c-0.2-0.4-0.3-0.8-0.5-1.1l1.4-0.2
					c0.2,0.4,0.3,0.8,0.5,1.3h5.1v2.9H-244.7z M-251.8-170.6l-0.7,1c-0.9-0.7-1.8-1.2-2.7-1.5l0.7-1
					C-253.5-171.7-252.6-171.2-251.8-170.6z M-250.4-172.6l-0.7,1.1c-0.9-0.6-1.8-1.2-2.7-1.5l0.7-1
					C-252.2-173.7-251.3-173.2-250.4-172.6z"/>
				<path class="st9" d="M-242.7-170.1l-0.4-1.4c1.2-1.6,2-3.5,2.6-5.7l1.3,0.6c-0.3,1.1-0.7,2.1-1.2,3.1v9.4h-1.3v-7.2
					C-242.1-170.9-242.4-170.5-242.7-170.1z M-234.5-176.3v1.3h-2.4c-0.1,0.6-0.2,1.2-0.3,1.7h2.5v1.1c-0.4,3.9-1.9,6.6-4.2,8.1
					l-0.7-1.2c1.1-0.7,1.9-1.7,2.5-2.9c-0.5-0.5-1-0.9-1.5-1.2c-0.3,0.4-0.5,0.9-0.9,1.3l-0.7-1.3c1-1.3,1.7-3.2,1.9-5.5h-1v-1.3
					h4.8V-176.3z M-236.6-169.5c0.3-0.8,0.5-1.7,0.6-2.6h-1.6c-0.2,0.5-0.3,1.1-0.5,1.6C-237.5-170.3-237-169.9-236.6-169.5z
					 M-232.9-175.8v8.7h-1.2v-8.7H-232.9z M-233.5-164.2l-0.3-1.3c0.5,0.1,0.9,0.1,1.4,0.1c0.4,0,0.5-0.2,0.5-0.5V-177h1.3v11.4
					c0,0.9-0.5,1.4-1.4,1.4L-233.5-164.2L-233.5-164.2z"/>
			</g>
		</g>
		<path class="st10" d="M-213.6-146.1h-62v-51h62V-146.1z M-274.6-147.1h60v-49h-60V-147.1z"/>
	</g>
</g>
<g>
	<g>
		<path class="st11" d="M204.7,168c-0.6,1-1.1,1.8-1.7,2.4c-0.6,0.7-1.4,1.4-2.4,2.1l-0.5-0.8c0.8-0.5,1.6-1.1,2.2-1.8
			c0.6-0.7,1.1-1.5,1.6-2.4L204.7,168z M201.9,172.9V172h7.2c0,1.5-0.1,2.7-0.2,3.6c-0.1,0.9-0.3,1.6-0.6,1.9
			c-0.3,0.3-0.7,0.5-1.3,0.6h-2.2l-0.2-0.9c0.7,0,1.4,0,2,0s1.1-0.3,1.3-0.8c0.2-0.6,0.3-1.8,0.4-3.7h-3c-0.3,1.3-0.7,2.4-1.2,3.1
			c-0.6,0.9-1.5,1.6-2.8,2.3l-0.6-0.7c1.1-0.6,1.9-1.3,2.5-2c0.5-0.7,0.9-1.6,1.1-2.7h-2.4V172.9z M211,171.7l-0.6,0.7
			c-1.9-1.2-3.2-2.7-3.9-4.6l0.7-0.4C208,169.2,209.2,170.7,211,171.7z"/>
		<path class="st11" d="M215.3,167.6c-0.6,1.5-1.3,2.7-2,3.6c0.6,0,1.1-0.1,1.7-0.2c0.3-0.4,0.5-0.9,0.8-1.4l0.8,0.3
			c-1.2,2.1-2.1,3.5-2.9,4.4c0.9-0.2,1.8-0.5,2.7-0.8v0.8c-1.3,0.5-2.6,0.8-3.8,1l-0.2-0.8c0.2-0.1,0.3-0.2,0.4-0.3
			c0.5-0.5,1.1-1.3,1.7-2.4c-0.7,0.1-1.4,0.2-2.1,0.3l-0.2-0.8c0.1,0,0.3-0.2,0.4-0.3c0.7-1.1,1.3-2.3,1.8-3.6L215.3,167.6z
			 M216.3,176.4c-1.1,0.5-2.4,1-3.9,1.3l-0.1-0.9c1.5-0.3,2.9-0.7,4-1.2V176.4z M222,177h1v0.8h-6.9V177h1v-9.2h4.9V177z
			 M221.2,170.8v-2.2H218v2.2H221.2z M221.2,173.9v-2.3H218v2.3H221.2z M221.2,177v-2.3H218v2.3H221.2z"/>
	</g>
</g>
<g>
	<g>
		<path class="st11" d="M458,52.3c-0.5,1.6-1,2.8-1.5,3.8c0.4-0.1,0.9-0.1,1.3-0.2c0.2-0.5,0.4-1,0.6-1.5l0.8,0.3
			c-0.9,2-1.7,3.5-2.3,4.4c0.6-0.2,1.2-0.4,1.8-0.6v0.8c-1,0.4-1.9,0.7-2.8,0.8l-0.2-0.8c0.1-0.1,0.3-0.1,0.4-0.2
			c0.4-0.5,0.8-1.3,1.4-2.4c-0.6,0.1-1.1,0.2-1.7,0.3l-0.2-0.7c0.1-0.1,0.2-0.2,0.3-0.3c0.5-1.1,1-2.4,1.3-3.9L458,52.3z
			 M458.9,61.4c-1,0.4-2,0.8-3.3,1.1l-0.1-0.9c1.3-0.3,2.4-0.6,3.4-1.1V61.4z M460.4,55.9v-1.7h-1.3v-0.8h1.3v-1.3h0.8v1.3h1.2v0.8
			h-1.2v1.7h1.1v0.8h-1.1v0.7c0,0.3,0,0.7,0,1h1.4v0.8h-1.5c-0.3,1.7-0.9,2.9-1.9,3.8l-0.6-0.6c0.9-0.8,1.4-1.8,1.7-3.2h-1.2v-0.8
			h1.3c0-0.3,0-0.6,0-1v-0.7h-1.1v-0.8H460.4z M466,52.5v0.6c-0.3,1.3-0.6,2.4-1,3.5c0.8,1.3,1.2,2.3,1.2,3.1c0,0.6-0.1,1-0.4,1.2
			s-0.8,0.4-1.5,0.4l-0.2-0.8c0.3,0,0.5,0,0.7,0c0.3,0,0.5-0.1,0.6-0.2c0.1-0.1,0.1-0.3,0.1-0.7c0-0.8-0.4-1.8-1.2-3.1
			c0.3-0.9,0.7-2.1,1-3.3h-1.5v9.7H463V52.5H466z"/>
		<path class="st11" d="M476.5,55.5v0.8h-3v2.1h3.6v0.8h-3.6v2.5c0.8,0.1,1.8,0.2,3,0.2c0.6,0,1.2,0,1.9-0.1l-0.2,0.9h-1.3
			c-2.4,0-4.2-0.2-5.2-0.7c-0.8-0.4-1.4-0.9-1.9-1.7c-0.5,1-1,1.9-1.7,2.6l-0.6-0.7c1.2-1.2,1.9-2.9,2.3-4.9l0.8,0.1
			c-0.1,0.7-0.3,1.4-0.6,2.1c0.6,1,1.3,1.7,2.2,2c0.1,0,0.2,0.1,0.3,0.1v-5.2h-3.1v-0.8L476.5,55.5L476.5,55.5z M477.8,55.7H477V54
			h-8.1v1.8H468v-2.6h4.6c-0.2-0.4-0.4-0.8-0.6-1.2l0.9-0.1c0.2,0.4,0.4,0.8,0.6,1.3h4.4v2.5H477.8z"/>
	</g>
</g>
<g>
	<g>
		<path class="st11" d="M648.3,120.7l-0.5-0.7c1.1-0.9,1.8-1.9,2.2-3.2l0.9,0.1c-0.2,0.5-0.3,1-0.6,1.4h2.3v-1.7h0.9v1.7h3.9v0.8
			h-3.9v1.9h4.8v0.9h-10.8V121h5.1v-1.9h-2.9C649.4,119.7,648.9,120.2,648.3,120.7z M656.9,127.6H656V127h-6.1v0.6H649v-4.4h7.8v4.4
			H656.9z M656,126.2V124h-6.1v2.1L656,126.2L656,126.2z"/>
		<path class="st11" d="M661.3,117.1v-0.5h0.7v0.5h1.3v-0.5h0.7v0.5h1.4v0.6H664v0.5h-0.7v-0.5H662v0.5h-0.6c0,0.1-0.1,0.2-0.1,0.3
			h3.8c0,1.4-0.1,2.2-0.3,2.6c0,0.1-0.1,0.2-0.2,0.2l0.5-0.1c0.1,0.2,0.2,0.5,0.3,0.8h4.7v0.6h-10.3V122h4.9
			c-0.1-0.2-0.2-0.4-0.3-0.5c-0.2,0-0.3,0.1-0.5,0.1h-0.5l-0.1-0.3h-2.4v-1.6h2.6v1.4h0.3c0.3,0,0.4-0.1,0.5-0.3
			c0.1-0.2,0.1-0.7,0.1-1.5H661c-0.3,0.5-0.6,1-1,1.3l-0.5-0.6c0.6-0.5,0.9-1.1,1.2-1.8l0.6,0.1v-0.4h-1.5v-0.6h1.5V117.1z
			 M669.1,127.7h-0.8v-0.4h-6.6v0.4h-0.8v-2.3h8.3v2.3H669.1z M668.7,123.2v0.5h-7.5v-0.5H668.7z M668.7,124.3v0.5h-7.5v-0.5H668.7z
			 M662.7,120.1h-1.2v0.7h1.2V120.1z M668.3,126.8V126h-6.6v0.8H668.3z M665.6,119.8l-0.5-0.6c0.7-0.7,1.2-1.6,1.4-2.7l0.8,0.1
			c-0.1,0.2-0.1,0.5-0.2,0.7h2.9v0.7h-0.7c-0.2,0.8-0.5,1.5-1,2.1c0.5,0.3,1.2,0.6,1.9,0.8l-0.4,0.7c-0.8-0.3-1.5-0.6-2.1-1
			c-0.6,0.4-1.3,0.8-2.1,0.9l-0.3-0.7c0.7-0.2,1.4-0.4,1.8-0.7c-0.4-0.4-0.7-0.7-0.9-1.2C666.1,119.3,665.8,119.6,665.6,119.8z
			 M666.7,118.3c0.2,0.5,0.5,1,1,1.4c0.4-0.5,0.7-1,0.9-1.6h-1.7C666.8,118.1,666.8,118.2,666.7,118.3z"/>
		<path class="st11" d="M673.5,118.4v-1.6h0.9v1.6h1.6v0.8h-1.6v2h1.8v0.8h-1.8c0,0.3-0.1,0.6-0.1,0.9c0.7,0.6,1.4,1.4,2.1,2.2
			l-0.5,0.7c-0.7-0.9-1.2-1.6-1.7-2.1c-0.3,1.7-1,3-2,4l-0.6-0.6c1.2-1.1,1.8-2.8,2-5.1h-1.8v-0.8h1.9v-2H672v-0.8H673.5z
			 M679.5,118.9v2.1c0,1.8-0.3,3.2-1,4.3c-0.6,1-1.6,1.8-2.9,2.3l-0.5-0.7c1.3-0.5,2.2-1.3,2.8-2.2c0.5-0.9,0.8-2.2,0.8-3.7v-2.1
			L679.5,118.9L679.5,118.9z M681.5,123.7h-0.8v-5.8h-3.2v5.8h-0.8v-6.6h4.9v6.6H681.5z M680.2,127.5c-0.6,0-0.9-0.3-0.9-1v-2.7h0.8
			v2.5c0,0.3,0.1,0.4,0.4,0.4h0.6c0.2,0,0.3-0.1,0.4-0.2c0.1-0.2,0.2-0.6,0.2-1.4l0.7,0.2c-0.1,1-0.2,1.6-0.4,1.8
			c-0.2,0.2-0.5,0.3-0.9,0.3L680.2,127.5L680.2,127.5z"/>
		<path class="st11" d="M687.1,118.7v3.8c0,1.4-0.3,2.5-0.8,3.4c-0.5,0.8-1.3,1.4-2.4,1.8l-0.5-0.8c1.1-0.4,1.8-1,2.3-1.6
			c0.4-0.7,0.6-1.6,0.6-2.8v-3.8H687.1z M689.2,124.5h-0.8V118H685v6.7h-0.8v-7.5h5.1L689.2,124.5L689.2,124.5z M689.7,126.9
			l-0.6,0.6c-0.5-0.7-1.2-1.4-2.1-2.1l0.6-0.6C688.5,125.5,689.2,126.2,689.7,126.9z M691.4,117.7v7.5h-0.8v-7.5H691.4z
			 M691.1,127.5l-0.2-0.8c0.5,0,1,0,1.5,0c0.4,0,0.6-0.2,0.6-0.6v-9.5h0.9v9.7c0,0.8-0.4,1.2-1.2,1.2
			C692.7,127.5,691.1,127.5,691.1,127.5z"/>
	</g>
</g>
<g id="Link16_14_" transform="translate(0,0)">
	<rect x="605.8" y="316.3" class="st4" width="98" height="1"/>
	<g transform="translate(0, 0.5)">
		<polygon class="st4" points="610.3,311.8 604.3,316.3 610.3,320.8 		"/>
	</g>
	<rect x="630.3" y="305.8" class="st6" width="14" height="11"/>
	<path class="st5" d="M605.8,316.8"/>
</g>
<g id="RectEndPoint8_41_" transform="translate(380,418)">
	<rect x="326.2" y="-125.7" class="st7" width="109" height="50"/>
	<g>
		<rect x="324.2" y="-127.7" class="st8" width="109" height="50"/>
		<g>
			<g>
				<path class="st9" d="M339.1-95.3l-1-0.9c0.5-1,0.8-2.2,0.8-3.7v-4.1l-0.8-0.9c0.8-0.8,1.6-2,2.2-3.5l1.2,0.3
					c-0.1,0.3-0.2,0.5-0.3,0.7h2.5v0.9c-0.3,0.5-0.5,1-0.8,1.4h1.5v8.4c0,0.8-0.4,1.2-1.1,1.2h-0.7l-0.3-1.1c0.2,0,0.4,0,0.6,0
					s0.3-0.2,0.3-0.5v-1.6h-1.1v3H341v-3h-1C339.8-97.3,339.5-96.2,339.1-95.3z M341.5-105c0.2-0.4,0.5-0.8,0.7-1.2h-1.6
					c-0.3,0.4-0.5,0.8-0.8,1.2H341.5z M340-103.8v1.5h1.1v-1.5H340z M340-99.7h1.1v-1.6H340V-99.7z M343.3-103.8h-1.1v1.5h1.1
					V-103.8z M343.3-101.2h-1.1v1.6h1.1V-101.2z M347.2-105.8v-2.3h1.3v2.3h2.2v5.9h-2.2v2.7c0.4-0.1,0.7-0.2,1.1-0.2
					c-0.2-0.5-0.3-1-0.5-1.5l1.1-0.3c0.4,1.1,0.7,2.3,1.1,3.7l-1.1,0.3c-0.1-0.3-0.1-0.7-0.2-1c-1.5,0.3-3.1,0.6-4.8,0.9l-0.3-1.2
					c0.8-0.1,1.6-0.2,2.4-0.3v-2.9H345v-5.9h2.2V-105.8z M347.3-104.6h-1v3.5h1V-104.6z M349.5-104.6h-1v3.5h1V-104.6z"/>
				<path class="st9" d="M354.2-107.8l1.3,0.2l-0.7,2.6h2.1c0.3-1,0.5-2.1,0.6-3.3l1.4,0.2c-0.2,1.1-0.4,2.1-0.6,3.1h6.4v1.3H358
					c-0.1,0.5-0.3,0.9-0.4,1.3h5.6v1.1c-0.4,1.1-1.1,2.2-2.1,3.1c1.1,0.6,2.4,1.1,3.9,1.6l-0.7,1.3c-1.7-0.6-3.1-1.3-4.3-2
					c-1.1,0.8-2.5,1.5-4.1,2.1l-0.7-1.3c1.4-0.5,2.6-1.1,3.6-1.7c-0.9-0.7-1.6-1.5-2-2.3c-1,2.1-2.3,3.7-3.8,5l-0.7-1.2
					c1.9-1.7,3.4-4,4.3-7h-3.4L354.2-107.8z M359.9-98.9c0.9-0.7,1.5-1.5,1.9-2.3h-4.1C358.2-100.4,358.9-99.6,359.9-98.9z
					 M363.7-106l-1,1c-0.6-0.7-1.3-1.5-2.4-2.3l0.9-0.9C362.2-107.5,363.1-106.8,363.7-106z"/>
				<path class="st9" d="M372-108.1c-0.2,0.3-0.4,0.5-0.5,0.8h5.3v1c-0.8,0.9-1.7,1.7-2.7,2.4c1.5,0.6,3.2,1,5.1,1.2l-0.6,1.2
					c-2.3-0.3-4.2-0.9-5.8-1.7c-1.7,0.8-3.6,1.4-5.9,1.8l-0.6-1.2c1.9-0.3,3.7-0.7,5.1-1.3c-0.7-0.4-1.3-0.9-1.8-1.4
					c-0.5,0.5-1.1,0.9-1.7,1.3l-0.9-1c1.4-0.8,2.6-2,3.6-3.4L372-108.1z M370.6-98.2c-0.9,1-1.9,1.9-3.2,2.6l-0.9-1.1
					c1.2-0.6,2.3-1.4,3.1-2.3L370.6-98.2z M372.1-100.9v-1.2h1.3v1.2h4.5v1.3h-4.5v2.9c0,1-0.5,1.4-1.5,1.4h-1.5l-0.3-1.3
					c0.5,0.1,1,0.1,1.4,0.1s0.6-0.2,0.6-0.6v-2.5h-4.7v-1.3H372.1z M372.7-104.4c0.9-0.5,1.7-1,2.3-1.6h-4.5l-0.1,0.1
					C371.1-105.4,371.8-104.9,372.7-104.4z M374.6-98.2l0.9-0.8c0.9,0.5,1.9,1.4,3.2,2.5l-1,1C376.8-96.6,375.7-97.4,374.6-98.2z"/>
				<path class="st9" d="M384.5-107.7c-0.4,1.1-0.8,2.2-1.4,3.1v9.3h-1.3v-7.4c-0.4,0.5-0.8,1-1.2,1.4l-0.4-1.4
					c1.4-1.6,2.4-3.5,3.1-5.7L384.5-107.7z M386.9-107.1c-0.1,0.6-0.2,1.2-0.4,1.8h1.7v-2.8h1.3v2.8h3.1v1.3h-3.1v3h3.6v1.3h-3.6
					v4.4h-1.3v-4.4h-4v-1.3h4v-3H386c-0.4,0.9-0.8,1.7-1.3,2.4l-0.9-1.1c0.8-1.2,1.4-2.8,1.7-4.6L386.9-107.1z"/>
				<path class="st9" d="M397.4-95.3h-1.3v-6.3c-0.4,1.1-0.8,2.1-1.4,3.1l-0.6-1.5c0.9-1.2,1.5-2.6,2-4.1v-0.1h-1.5v-1.2h1.5v-2.6
					h1.3v2.6h1.4v1.2h-1.4v0.8c0.6,0.7,1.2,1.4,1.8,2.3l-0.7,1.1c-0.4-0.8-0.8-1.4-1.1-1.9L397.4-95.3L397.4-95.3z M402.1-97.2
					c-0.6,0.8-1.8,1.5-3.4,1.9l-0.5-1.1c1.3-0.4,2.3-0.9,2.9-1.6c0.1-0.1,0.2-0.2,0.2-0.3h-3v-1.2h3.6c0.1-0.3,0.2-0.5,0.2-0.8h-2.9
					v-4.4h6.9v4.4h-2.8l-0.2,0.8h3.9v1.2h-3.2c0.8,0.8,1.9,1.4,3.4,2l-0.9,1.1c-1.7-0.7-2.9-1.7-3.7-2.8
					C402.4-97.7,402.2-97.4,402.1-97.2z M400.5-107.1v-1h1.2v1h1.9v-1h1.3v1h2.1v1.2h-2.1v0.9h-1.3v-0.9h-1.9v0.9h-1.2v-0.9h-1.9
					v-1.2H400.5z M404.9-103v-0.7h-4.5v0.7H404.9z M404.9-102h-4.5v0.7h4.5V-102z"/>
				<path class="st9" d="M410.3-105.6v-2.6h1.3v2.6h1.6v1.3h-1.6v0.6c0.6,0.6,1.2,1.3,1.8,2l-0.8,1.1c-0.4-0.7-0.7-1.3-1.1-1.8v7
					h-1.3v-6.4c-0.4,1.2-0.9,2.3-1.5,3.3l-0.6-1.5c1-1.3,1.6-2.7,2.1-4.4h-1.8v-1.3h1.9V-105.6z M420.8-106.9
					c-1.8,0.5-3.7,0.8-5.8,0.9v1.8h5.4v1c-0.1,1.8-0.7,3.4-1.6,4.8c0.7,0.8,1.5,1.4,2.5,2l-0.7,1.2c-1-0.6-1.9-1.3-2.6-2.1
					c-0.8,0.8-1.7,1.6-2.7,2.2l-0.9-1c1.1-0.7,2-1.4,2.8-2.2c-0.8-1.3-1.4-2.8-1.7-4.5H415v1.1c-0.1,2.7-0.7,4.9-1.8,6.6l-1-1
					c0.9-1.3,1.3-3.2,1.4-5.6v-5.4c2.4,0,4.6-0.4,6.4-1L420.8-106.9z M419.2-103h-2.6c0.2,1.3,0.7,2.4,1.3,3.4
					C418.6-100.6,419-101.7,419.2-103z"/>
			</g>
		</g>
		<path class="st10" d="M433.7-77.2h-110v-51h110V-77.2z M324.7-78.2h108v-49h-108V-78.2z"/>
	</g>
</g>
<g>
	<g>
		<path class="st11" d="M634.3,302.4l-0.5-0.7c1.1-0.9,1.8-1.9,2.2-3.2l0.9,0.1c-0.2,0.5-0.3,1-0.6,1.4h2.3v-1.7h0.9v1.7h3.9v0.8
			h-3.9v1.9h4.8v0.9h-10.8v-0.9h5.1v-1.9h-2.9C635.4,301.4,634.9,301.9,634.3,302.4z M642.9,309.3H642v-0.6h-6.1v0.6H635v-4.4h7.8
			v4.4H642.9z M642,307.9v-2.1h-6.1v2.1H642z"/>
		<path class="st11" d="M647.3,298.8v-0.5h0.7v0.5h1.3v-0.5h0.7v0.5h1.4v0.6H650v0.5h-0.7v-0.5H648v0.5h-0.6c0,0.1-0.1,0.2-0.1,0.3
			h3.8c0,1.4-0.1,2.2-0.3,2.6c0,0.1-0.1,0.2-0.2,0.2l0.5-0.1c0.1,0.2,0.2,0.5,0.3,0.8h4.7v0.6h-10.3v-0.6h4.9
			c-0.1-0.2-0.2-0.4-0.3-0.5c-0.2,0-0.3,0.1-0.5,0.1h-0.5l-0.1-0.3h-2.4v-1.6h2.6v1.4h0.3c0.3,0,0.4-0.1,0.5-0.3
			c0.1-0.2,0.1-0.7,0.1-1.5H647c-0.3,0.5-0.6,1-1,1.3l-0.5-0.6c0.6-0.5,0.9-1.1,1.2-1.8l0.6,0.1v-0.4h-1.5V299h1.5V298.8z
			 M655.1,309.4h-0.8V309h-6.6v0.4h-0.8v-2.3h8.3v2.3H655.1z M654.7,304.9v0.5h-7.5v-0.5H654.7z M654.7,306v0.5h-7.5V306H654.7z
			 M648.7,301.8h-1.2v0.7h1.2V301.8z M654.3,308.5v-0.8h-6.6v0.8H654.3z M651.6,301.5l-0.5-0.6c0.7-0.7,1.2-1.6,1.4-2.7l0.8,0.1
			c-0.1,0.2-0.1,0.5-0.2,0.7h2.9v0.7h-0.7c-0.2,0.8-0.5,1.5-1,2.1c0.5,0.3,1.2,0.6,1.9,0.8l-0.4,0.7c-0.8-0.3-1.5-0.6-2.1-1
			c-0.6,0.4-1.3,0.8-2.1,0.9l-0.3-0.7c0.7-0.2,1.4-0.4,1.8-0.7c-0.4-0.4-0.7-0.7-0.9-1.2C652.1,301,651.8,301.3,651.6,301.5z
			 M652.7,300c0.2,0.5,0.5,1,1,1.4c0.4-0.5,0.7-1,0.9-1.6h-1.7C652.8,299.8,652.8,299.9,652.7,300z"/>
		<path class="st11" d="M659.5,300.1v-1.6h0.9v1.6h1.6v0.8h-1.6v2h1.8v0.8h-1.8c0,0.3-0.1,0.6-0.1,0.9c0.7,0.6,1.4,1.4,2.1,2.2
			l-0.5,0.7c-0.7-0.9-1.2-1.6-1.7-2.1c-0.3,1.7-1,3-2,4l-0.6-0.6c1.2-1.1,1.8-2.8,2-5.1h-1.8v-0.8h1.9v-2H658v-0.8H659.5z
			 M665.5,300.6v2.1c0,1.8-0.3,3.2-1,4.3c-0.6,1-1.6,1.8-2.9,2.3l-0.5-0.7c1.3-0.5,2.2-1.3,2.8-2.2c0.5-0.9,0.8-2.2,0.8-3.7v-2.1
			L665.5,300.6L665.5,300.6z M667.5,305.4h-0.8v-5.8h-3.2v5.8h-0.8v-6.6h4.9v6.6H667.5z M666.2,309.2c-0.6,0-0.9-0.3-0.9-1v-2.7h0.8
			v2.5c0,0.3,0.1,0.4,0.4,0.4h0.6c0.2,0,0.3-0.1,0.4-0.2c0.1-0.2,0.2-0.6,0.2-1.4l0.7,0.2c-0.1,1-0.2,1.6-0.4,1.8
			c-0.2,0.2-0.5,0.3-0.9,0.3h-0.9V309.2z"/>
		<path class="st11" d="M673.1,300.4v3.8c0,1.4-0.3,2.5-0.8,3.4c-0.5,0.8-1.3,1.4-2.4,1.8l-0.5-0.8c1.1-0.4,1.8-1,2.3-1.6
			c0.4-0.7,0.6-1.6,0.6-2.8v-3.8H673.1z M675.2,306.2h-0.8v-6.5H671v6.7h-0.8v-7.5h5.1L675.2,306.2L675.2,306.2z M675.7,308.6
			l-0.6,0.6c-0.5-0.7-1.2-1.4-2.1-2.1l0.6-0.6C674.5,307.2,675.2,307.9,675.7,308.6z M677.4,299.4v7.5h-0.8v-7.5H677.4z
			 M677.1,309.2l-0.2-0.8c0.5,0,1,0,1.5,0c0.4,0,0.6-0.2,0.6-0.6v-9.5h0.9v9.7c0,0.8-0.4,1.2-1.2,1.2L677.1,309.2L677.1,309.2z"/>
	</g>
</g>
<g>
	<g>
		<path class="st11" d="M458,175.9c-0.5,1.6-1,2.8-1.5,3.8c0.4-0.1,0.9-0.1,1.3-0.2c0.2-0.5,0.4-1,0.6-1.5l0.8,0.3
			c-0.9,2-1.7,3.5-2.3,4.4c0.6-0.2,1.2-0.4,1.8-0.6v0.8c-1,0.4-1.9,0.7-2.8,0.8l-0.2-0.8c0.1-0.1,0.3-0.1,0.4-0.2
			c0.4-0.5,0.8-1.3,1.4-2.4c-0.6,0.1-1.1,0.2-1.7,0.3l-0.2-0.7c0.1-0.1,0.2-0.2,0.3-0.3c0.5-1.1,1-2.4,1.3-3.9L458,175.9z
			 M458.9,185c-1,0.4-2,0.8-3.3,1.1l-0.1-0.9c1.3-0.3,2.4-0.6,3.4-1.1V185z M460.4,179.5v-1.7h-1.3V177h1.3v-1.3h0.8v1.3h1.2v0.8
			h-1.2v1.7h1.1v0.8h-1.1v0.7c0,0.3,0,0.7,0,1h1.4v0.8h-1.5c-0.3,1.7-0.9,2.9-1.9,3.8l-0.6-0.6c0.9-0.8,1.4-1.8,1.7-3.2h-1.2V182
			h1.3c0-0.3,0-0.6,0-1v-0.7h-1.1v-0.8H460.4z M466,176.1v0.6c-0.3,1.3-0.6,2.4-1,3.5c0.8,1.3,1.2,2.3,1.2,3.1c0,0.6-0.1,1-0.4,1.2
			s-0.8,0.4-1.5,0.4l-0.2-0.8c0.3,0,0.5,0,0.7,0c0.3,0,0.5-0.1,0.6-0.2c0.1-0.1,0.1-0.3,0.1-0.7c0-0.8-0.4-1.8-1.2-3.1
			c0.3-0.9,0.7-2.1,1-3.3h-1.5v9.7H463v-10.4H466z"/>
		<path class="st11" d="M476.5,179.2v0.8h-3v2.1h3.6v0.8h-3.6v2.5c0.8,0.1,1.8,0.2,3,0.2c0.6,0,1.2,0,1.9-0.1l-0.2,0.9h-1.3
			c-2.4,0-4.2-0.2-5.2-0.7c-0.8-0.4-1.4-0.9-1.9-1.7c-0.5,1-1,1.9-1.7,2.6l-0.6-0.7c1.2-1.2,1.9-2.9,2.3-4.9l0.8,0.1
			c-0.1,0.7-0.3,1.4-0.6,2.1c0.6,1,1.3,1.7,2.2,2c0.1,0,0.2,0.1,0.3,0.1V180h-3.1v-0.8H476.5z M477.8,179.4H477v-1.8h-8.1v1.8H468
			v-2.6h4.6c-0.2-0.4-0.4-0.8-0.6-1.2l0.9-0.1c0.2,0.4,0.4,0.8,0.6,1.3h4.4v2.6H477.8z"/>
	</g>
</g>
<g>
	<g>
		<path class="st11" d="M458,296.6c-0.5,1.6-1,2.8-1.5,3.8c0.4-0.1,0.9-0.1,1.3-0.2c0.2-0.5,0.4-1,0.6-1.5l0.8,0.3
			c-0.9,2-1.7,3.5-2.3,4.4c0.6-0.2,1.2-0.4,1.8-0.6v0.8c-1,0.4-1.9,0.7-2.8,0.8l-0.2-0.8c0.1-0.1,0.3-0.1,0.4-0.2
			c0.4-0.5,0.8-1.3,1.4-2.4c-0.6,0.1-1.1,0.2-1.7,0.3l-0.2-0.7c0.1-0.1,0.2-0.2,0.3-0.3c0.5-1.1,1-2.4,1.3-3.9L458,296.6z
			 M458.9,305.7c-1,0.4-2,0.8-3.3,1.1l-0.1-0.9c1.3-0.3,2.4-0.6,3.4-1.1V305.7z M460.4,300.2v-1.7h-1.3v-0.8h1.3v-1.3h0.8v1.3h1.2
			v0.8h-1.2v1.7h1.1v0.8h-1.1v0.7c0,0.3,0,0.7,0,1h1.4v0.8h-1.5c-0.3,1.7-0.9,2.9-1.9,3.8l-0.6-0.6c0.9-0.8,1.4-1.8,1.7-3.2h-1.2
			v-0.8h1.3c0-0.3,0-0.6,0-1V301h-1.1v-0.8H460.4z M466,296.8v0.6c-0.3,1.3-0.6,2.4-1,3.5c0.8,1.3,1.2,2.3,1.2,3.1
			c0,0.6-0.1,1-0.4,1.2s-0.8,0.4-1.5,0.4l-0.2-0.8c0.3,0,0.5,0,0.7,0c0.3,0,0.5-0.1,0.6-0.2s0.1-0.3,0.1-0.7c0-0.8-0.4-1.8-1.2-3.1
			c0.3-0.9,0.7-2.1,1-3.3h-1.5v9.7H463v-10.4L466,296.8L466,296.8z"/>
		<path class="st11" d="M476.5,299.8v0.8h-3v2.1h3.6v0.8h-3.6v2.5c0.8,0.1,1.8,0.2,3,0.2c0.6,0,1.2,0,1.9-0.1l-0.2,0.9h-1.3
			c-2.4,0-4.2-0.2-5.2-0.7c-0.8-0.4-1.4-0.9-1.9-1.7c-0.5,1-1,1.9-1.7,2.6l-0.6-0.7c1.2-1.2,1.9-2.9,2.3-4.9l0.8,0.1
			c-0.1,0.7-0.3,1.4-0.6,2.1c0.6,1,1.3,1.7,2.2,2c0.1,0,0.2,0.1,0.3,0.1v-5.2h-3.1v-0.8L476.5,299.8L476.5,299.8z M477.8,300.1H477
			v-1.8h-8.1v1.8H468v-2.6h4.6c-0.2-0.4-0.4-0.8-0.6-1.2l0.9-0.1c0.2,0.4,0.4,0.8,0.6,1.3h4.4v2.6H477.8z"/>
	</g>
</g>
<g id="Link16_7_" transform="translate(0,0)">
	<polyline class="st4" points="445.9,72 486.4,72 486.4,73 445.9,73 	"/>
	<g transform="translate(0, 0.5)">
		<polygon class="st4" points="481.9,76.5 487.9,72 481.9,67.5 		"/>
	</g>
	<g transform="translate(0, 0.5)">
		<polygon class="st4" points="449.9,67.5 443.9,72 449.9,76.5 		"/>
	</g>
	<path class="st5" d="M486.4,72.5"/>
</g>
<g id="Link16_11_" transform="translate(0,0)">
	<polyline class="st4" points="445.9,193.8 486.4,193.8 486.4,194.8 445.9,194.8 	"/>
	<g transform="translate(0, 0.5)">
		<polygon class="st4" points="481.9,198.3 487.9,193.8 481.9,189.3 		"/>
	</g>
	<g transform="translate(0, 0.5)">
		<polygon class="st4" points="449.9,189.3 443.9,193.8 449.9,198.3 		"/>
	</g>
	<path class="st5" d="M486.4,194.3"/>
</g>
<g id="Link16_12_" transform="translate(0,0)">
	<polyline class="st4" points="445.9,315.5 486.4,315.5 486.4,316.5 445.9,316.5 	"/>
	<g transform="translate(0, 0.5)">
		<polygon class="st4" points="481.9,320 487.9,315.5 481.9,311 		"/>
	</g>
	<g transform="translate(0, 0.5)">
		<polygon class="st4" points="449.9,311 443.9,315.5 449.9,320 		"/>
	</g>
	<path class="st5" d="M486.4,316"/>
</g>
</svg>
