<?xml version="1.0" encoding="UTF-8"?>
<svg width="48px" height="48px" viewBox="0 0 48 48" version="1.1" xmlns="http://www.w3.org/2000/svg" xmlns:xlink="http://www.w3.org/1999/xlink">
    <!-- Generator: Sketch 52.6 (67491) - http://www.bohemiancoding.com/sketch -->
    <title>海量的运营经验-48px</title>
    <desc>Created with Sketch.</desc>
    <g id="海量的运营经验-48px" stroke="none" stroke-width="1" fill="none" fill-rule="evenodd">
        <rect id="Rectangle-Copy" fill="#444444" opacity="0" x="0" y="0" width="48" height="48"></rect>
        <g id="1547630320366-48x48" transform="translate(3.000000, 2.000000)">
            <polyline id="Path" fill="#00A4FF" points="9.2 32.5 9.2 43.5 5.2 43.5 5.2 32.5 9.2 32.5"></polyline>
            <polyline id="Path" fill="#00A4FF" points="20.2 22.5 20.2 43.5 16.2 43.5 16.2 22.5 20.2 22.5"></polyline>
            <polyline id="Path" fill="#00A4FF" points="31.2 27.5 31.2 43.5 27.2 43.5 27.2 27.5 31.2 27.5"></polyline>
            <polyline id="Path" fill="#00A4FF" points="42.2 18.5 42.2 43.5 38.2 43.5 38.2 18.5 42.2 18.5"></polyline>
            <path d="M7.2,30.5 L7.2,41.5 L3.2,41.5 L3.2,30.5 L7.2,30.5 Z M9.2,28.5 L1.2,28.5 L1.2,43.5 L9.2,43.5 L9.2,28.5 Z" id="Shape" fill="#334966" fill-rule="nonzero"></path>
            <path d="M18.2,20.5 L18.2,41.5 L14.2,41.5 L14.2,20.5 L18.2,20.5 Z M20.2,18.5 L12.2,18.5 L12.2,43.5 L20.2,43.5 L20.2,18.5 Z" id="Shape" fill="#334966" fill-rule="nonzero"></path>
            <path d="M29.2,25.5 L29.2,41.5 L25.2,41.5 L25.2,25.5 L29.2,25.5 Z M31.2,23.5 L23.2,23.5 L23.2,43.5 L31.2,43.5 L31.2,23.5 Z" id="Shape" fill="#334966" fill-rule="nonzero"></path>
            <path d="M40.2,16.5 L40.2,41.5 L36.2,41.5 L36.2,16.5 L40.2,16.5 Z M42.2,14.5 L34.2,14.5 L34.2,43.5 L42.2,43.5 L42.2,14.5 Z" id="Shape" fill="#334966" fill-rule="nonzero"></path>
            <rect id="Rectangle" fill="#334966" x="34.2" y="0.5" width="8" height="2"></rect>
            <rect id="Rectangle" fill="#334966" x="40.2" y="0.5" width="2" height="8"></rect>
            <polygon id="Path" fill="#334966" points="1.9 23.2 0.5 21.8 16.1 6.2 27.1 14.2 40.5 0.8 41.9 2.2 27.3 16.8 16.3 8.8"></polygon>
        </g>
    </g>
</svg>