<?xml version="1.0" encoding="UTF-8"?>
<svg width="48px" height="48px" viewBox="0 0 48 48" version="1.1" xmlns="http://www.w3.org/2000/svg" xmlns:xlink="http://www.w3.org/1999/xlink">
    <!-- Generator: Sketch 52.5 (67469) - http://www.bohemiancoding.com/sketch -->
    <title>集成管理</title>
    <desc>Created with Sketch.</desc>
    <g id="集成管理" stroke="none" stroke-width="1" fill="none" fill-rule="evenodd">
        <g id="Group">
            <polygon id="Fill-2" fill="#00A4FF" points="7 14 24 5 41 14 24 22.7 13.7 17.3"></polygon>
            <polygon id="Fill-3" fill="#00A4FF" points="39 24 37 23 33 25 35 26"></polygon>
            <path d="M24,33.7002 L13.7,28.3002 L5.3,24.0002 L13.7,19.5992 L24,25.0002 L34.3,19.5992 L42.7,24.0002 L24,33.7002 Z M42.7,35.0002 L24,44.7002 L5.3,35.0002 L13.7,30.5992 L24,36.0002 L34.3,30.5992 L42.7,35.0002 Z M5.3,13.0002 L24,3.3002 L42.7,13.0002 L24,22.7002 L13.7,17.3002 L5.3,13.0002 Z M36.5,18.5002 L47,13.0002 L24,1.0002 L1,13.0002 L11.5,18.5002 L1,24.0002 L11.5,29.5002 L1,35.0002 L24,47.0002 L47,35.0002 L36.5,29.5002 L47,24.0002 L36.5,18.5002 Z" id="Fill-4" fill="#334966"></path>
            <polygon id="Fill-5" fill="#00A4FF" points="35 37 39 35 37 34 33 36"></polygon>
        </g>
    </g>
</svg>