<?xml version="1.0" encoding="UTF-8"?>
<svg width="48px" height="48px" viewBox="0 0 48 48" version="1.1" xmlns="http://www.w3.org/2000/svg" xmlns:xlink="http://www.w3.org/1999/xlink">
    <!-- Generator: Sketch 52.6 (67491) - http://www.bohemiancoding.com/sketch -->
    <title>iPhone 8 Plus</title>
    <desc>Created with Sketch.</desc>
    <g id="iPhone-8-Plus" stroke="none" stroke-width="1" fill="none" fill-rule="evenodd">
        <g id="Group-7" transform="translate(0.000000, -1.000000)">
            <path d="M17.8006291,31.7498685 L17.8006291,18.7498685 L14.2010023,18.7498685 C13.9958256,18.7498685 13.8006291,18.9589518 13.8006291,19.2498685 L13.8006291,31.2498685 C13.8006291,31.5407851 13.9958256,31.7498685 14.2010023,31.7498685 L17.8006291,31.7498685 Z" id="Shape-Copy-21" stroke="#7B848E" stroke-width="2" fill-rule="nonzero"></path>
            <path d="M34.1495061,31.8425198 L34.1495061,18.8425198 L30.5498792,18.8425198 C30.3447026,18.8425198 30.1495061,19.0516032 30.1495061,19.3425198 L30.1495061,31.3425198 C30.1495061,31.6334365 30.3447026,31.8425198 30.5498792,31.8425198 L34.1495061,31.8425198 Z" id="Shape-Copy-22" stroke="#7B848E" stroke-width="2" fill-rule="nonzero" transform="translate(32.149506, 25.342520) scale(-1, 1) translate(-32.149506, -25.342520) "></path>
            <circle id="Oval-Copy-8" fill="#7B848E" fill-rule="nonzero" cx="19.8006291" cy="25.2037259" r="1.5"></circle>
            <circle id="Oval-Copy-9" fill="#7B848E" fill-rule="nonzero" cx="28.1495061" cy="25.2037259" r="1.5"></circle>
            <circle id="Oval-Copy-10" fill="#7B848E" fill-rule="nonzero" cx="23.9750676" cy="25.2037259" r="1.5"></circle>
            <path d="M24.1043478,46.9613516 C12,46.9613516 2.08695652,37.0483081 2.08695652,24.9439603 C2.08695652,12.8396124 12,2.92656896 24.1043478,2.92656896 C35.1652174,2.92656896 44.3478261,11.1700472 45.8086957,21.8135255 L47.8956522,21.8135255 C46.3304348,10.0222211 36.3130435,0.943960267 24.1043478,0.943960267 C10.8521739,0.943960267 0.104347826,11.6917864 0.104347826,24.9439603 C0.104347826,38.1961342 10.8521739,48.9439603 24.1043478,48.9439603 C36.3130435,48.9439603 46.3304348,39.8656994 47.8956522,28.074395 L45.8086957,28.074395 C44.3478261,38.7178733 35.1652174,46.9613516 24.1043478,46.9613516 Z" id="Path" fill="#7B848E"></path>
        </g>
    </g>
</svg>