<?xml version="1.0" encoding="utf-8"?>
<!-- Generator: Adobe Illustrator 22.1.0, SVG Export Plug-In . SVG Version: 6.00 Build 0)  -->
<svg version="1.1" id="图层_1" xmlns="http://www.w3.org/2000/svg" xmlns:xlink="http://www.w3.org/1999/xlink" x="0px" y="0px"
	 viewBox="0 0 32 32" style="enable-background:new 0 0 32 32;" xml:space="preserve">
<style type="text/css">
	.st0{fill:#444444;fill-opacity:0;}
	.st1{fill:#FFFFFF;}
</style>
<title>通用文字识别-32px备份</title>
<desc>Created with Sketch.</desc>
<g id="通用文字识别-32px备份">
	<rect id="Rectangle-Copy" y="0" class="st0" width="32" height="32"/>
	<path id="形状结合备份" class="st1" d="M27.3,26c0.3-0.6,1-1,1.7-1c1.1,0,2,0.9,2,2s-0.9,2-2,2c-0.7,0-1.4-0.4-1.7-1H2v-2V11
		h2v15H27.3z M4.7,4H30v2v15h-2V6H4.7C4.4,6.6,3.7,7,3,7C1.9,7,1,6.1,1,5s0.9-2,2-2C3.7,3,4.4,3.4,4.7,4z M25,15.4h-4.8v-1l-1.5,0
		l0,5.3h1.5l0,4.9h-8l0-4.9h1.4v-5.3l-1.4,0v0.9l-4.8,0v-2l0-5.4H25l0,5.4L25,15.4z M23,10H9.4l0,3.4l0.8,0v-1l5.4,0v9.3h-1.4l0,0.9
		h4l0-0.9h-1.5l0-9.3l5.4,0v1H23L23,10z"/>
</g>
</svg>
