<?xml version="1.0" encoding="utf-8"?>
<!-- Generator: Adobe Illustrator 23.0.3, SVG Export Plug-In . SVG Version: 6.00 Build 0)  -->
<svg version="1.1" id="svgwrapper_svg" xmlns="http://www.w3.org/2000/svg" xmlns:xlink="http://www.w3.org/1999/xlink" x="0px"
	 y="0px" width="830px" height="170px" viewBox="0 0 830 170" style="enable-background:new 0 0 830 170;" xml:space="preserve">
<g>
	<g>
		<rect x="419" y="1.5" style="fill:#CEE3FF;" width="411" height="167"/>
		<g>
			<g>
				<rect x="433" y="106.5" style="opacity:0.6;fill:#BBBBBB;enable-background:new    ;" width="119" height="50"/>
				<g>
					<rect x="431.5" y="105" style="fill:#FFFFFF;" width="118" height="49"/>
					<path style="fill:#E5E5E5;" d="M549,105.5v48H432v-48H549 M550,104.5H431v50h119V104.5L550,104.5z"/>
				</g>
			</g>
			<g>
				<g transform="translate(20 9)">
					<g style="enable-background:new    ;">
						<path style="fill:#444444;" d="M447.1,118.7v6.1c0.4-0.4,0.9-0.8,1.4-1.3l0.3,1.1c-0.8,0.8-1.7,1.5-2.6,2.1l-0.4-0.9
							c0.2-0.2,0.3-0.4,0.3-0.6v-5.4h-2v-1H447.1z M448.1,116.8l-0.7,0.7c-0.6-0.7-1.3-1.4-2.3-2.2l0.7-0.7
							C446.7,115.3,447.5,116,448.1,116.8z M448.9,116.1v-1h7.9v1h-2.9v3.9h2.7v0.9h-2.7v4.8h3.2v1h-8.6v-1h1.4v-7.4h1v7.4h2v-9.7
							H448.9z"/>
						<path style="fill:#444444;" d="M464.2,114.4v2.5h4.1v0.5l-0.3,3.3h2c0,2.7-0.2,4.3-0.7,4.7c-0.2,0.2-0.5,0.4-0.8,0.4
							c-0.3,0.1-0.6,0.1-0.9,0.1h-0.9l-0.3-1c0.5,0,0.9,0,1.4,0c0.4,0,0.7-0.1,0.9-0.3c0.2-0.2,0.3-1.2,0.3-3h-4.8v5.7h-1v-5.7h-5
							v-1h5v-2.8h-4.2v-1h4.2v-2.5H464.2z M467.1,120.6l0.3-2.8h-3.1v2.8H467.1z M470.6,116.3l-0.5,0.8c-0.9-0.8-1.9-1.5-2.8-2
							l0.5-0.8C468.8,115,469.8,115.6,470.6,116.3z"/>
						<path style="fill:#444444;" d="M477.3,125.2c-0.9,0.9-2.4,1.6-4.6,2.1l-0.4-0.9c1.9-0.4,3.3-1,4.2-1.8
							c0.3-0.3,0.6-0.7,0.9-1.1h-4.8v-0.9h5.3c0.1-0.4,0.2-0.9,0.3-1.3h1c-0.1,0.5-0.2,0.9-0.3,1.3h5.7v0.9h-5.3
							c1.3,1.4,3.2,2.4,5.5,3l-0.5,0.9c-2.6-0.7-4.6-1.9-5.9-3.6C478,124.3,477.7,124.7,477.3,125.2z M479,120.7h-1v-2.5h-0.1
							c-0.8,1.3-2.4,2.4-4.8,3.3l-0.5-0.9c2.2-0.7,3.7-1.5,4.4-2.4h-4.4v-0.9h5.4v-2.8h1v2.8h5.4v0.9H479v0.3c1.9,0.6,3.6,1.2,5.2,2
							l-0.5,0.8c-1.5-0.9-3.1-1.6-4.6-2.1V120.7z M476.2,116.6l-0.9,0.2c-0.3-0.6-0.6-1.3-1.1-1.9l0.9-0.3
							C475.5,115.2,475.9,115.9,476.2,116.6z M482.8,114.8c-0.3,0.8-0.7,1.4-1.2,2l-0.8-0.3c0.4-0.5,0.8-1.1,1.1-1.9L482.8,114.8z"
							/>
						<path style="fill:#444444;" d="M492.1,123.5v-1.2h1v1.2h4.8v0.9h-4.8v1.6h5.6v0.9h-12.3V126h5.7v-1.6h-4.9v-0.9H492.1z
							 M493.4,115.1v0.9H492v2.1h1.7v0.9H492v3.1h-1V119h-1.8c-0.2,1.4-0.7,2.5-1.6,3.2l-0.8-0.7c0.8-0.6,1.2-1.4,1.4-2.6h-1.7v-0.9
							h1.8V116h-1.4v-0.9H493.4z M489.2,118.1h1.8V116h-1.8V118.1z M495.5,115.4v4.8h-1v-4.8H495.5z M495,122.2l-0.2-1
							c0.6,0,1.2,0.1,1.8,0.1c0.3,0,0.5-0.2,0.5-0.6v-6.1h1v6.3c0,0.9-0.4,1.3-1.1,1.3H495z"/>
					</g>
				</g>
			</g>
		</g>
		<g>
			<g>
				<rect x="433" y="42.5" style="opacity:0.6;fill:#BBBBBB;enable-background:new    ;" width="119" height="50"/>
				<g>
					<rect x="431.5" y="41" style="fill:#FFFFFF;" width="118" height="49"/>
					<path style="fill:#E5E5E5;" d="M549,41.5v48H432v-48H549 M550,40.5H431v50h119V40.5L550,40.5z"/>
				</g>
			</g>
			<g>
				<g transform="translate(20 9)">
					<g style="enable-background:new    ;">
						<path style="fill:#444444;" d="M448.3,55.7c0.4-0.8,0.8-1.5,1.2-2.3l1,0.3c-0.4,0.7-0.7,1.4-1.1,2h7.2v1h-2.8
							c-0.6,1.5-1.2,2.6-2,3.5c1.4,0.6,2.9,1.3,4.4,2.2l-0.7,0.9c-1.5-0.9-3-1.7-4.5-2.3c-1.6,1.4-3.6,2.1-6.2,2.2l-0.6-0.9
							c2.4,0,4.3-0.6,5.8-1.7c-1.3-0.6-2.6-1.1-3.9-1.5c0.5-0.8,1-1.6,1.4-2.3h-3.4v-1H448.3z M456.3,54.8h-1v-2h-9.6v2h-1v-3h5.3
							c-0.2-0.5-0.4-0.9-0.6-1.3l1.1-0.2c0.2,0.4,0.4,0.9,0.6,1.5h5.2V54.8z M447.7,58.6c1.1,0.3,2.1,0.7,3.2,1.2
							c0.8-0.8,1.4-1.9,1.8-3.1h-3.9C448.5,57.4,448.1,58.1,447.7,58.6z"/>
						<path style="fill:#444444;" d="M464.9,50.5c1.8,1.8,3.8,3.3,6.1,4.4l-0.5,0.9c-2.3-1.1-4.3-2.6-6-4.3c-1.5,1.7-3.5,3.2-6,4.4
							l-0.5-0.9c2.5-1.2,4.5-2.7,6.1-4.4H464.9z M468.4,54.9v1H465v2.4h4v1h-4v2.6h5.3v1h-11.7v-1h5.3v-2.6h-4.1v-1h4.1v-2.4h-3.4
							v-1H468.4z"/>
						<path style="fill:#444444;" d="M475.1,54.7v6.2c0.4-0.4,0.9-0.8,1.4-1.4l0.3,1.1c-0.8,0.8-1.7,1.5-2.6,2.2l-0.4-0.9
							c0.2-0.2,0.3-0.4,0.3-0.6v-5.6h-2.1v-1H475.1z M476.2,52.8l-0.7,0.7c-0.6-0.7-1.4-1.4-2.4-2.2l0.7-0.7
							C474.7,51.3,475.5,52,476.2,52.8z M484.5,51.1v1h-3.3v5.3h3.7v1h-3.7v5h-1v-5h-3.7v-1h3.7V52h-3.3v-1H484.5z M479.1,56.4
							l-0.9,0.2c-0.3-1.2-0.7-2.4-1.1-3.5l0.9-0.3C478.4,53.9,478.8,55,479.1,56.4z M484.1,53c-0.3,1.4-0.7,2.5-1.1,3.6l-0.9-0.3
							c0.4-0.9,0.8-2.1,1.1-3.5L484.1,53z"/>
						<path style="fill:#444444;" d="M490.4,61.3c-1.2,0.5-2.6,0.9-4.2,1.2l-0.1-1c1.6-0.3,3.1-0.7,4.3-1.2V61.3z M489.6,50.8
							c-0.7,1.8-1.5,3.2-2.2,4.2c0.7-0.1,1.3-0.2,2-0.3c0.3-0.5,0.5-1,0.8-1.5l0.9,0.3c-1.3,2.3-2.4,3.9-3.3,4.9c1-0.2,2-0.4,3-0.7
							v0.9c-1.5,0.4-2.9,0.7-4.3,0.9l-0.3-0.9c0.2-0.1,0.3-0.2,0.5-0.3c0.6-0.5,1.2-1.4,2-2.7c-0.8,0.1-1.6,0.2-2.4,0.3l-0.3-0.9
							c0.2-0.1,0.3-0.2,0.4-0.4c0.8-1.2,1.5-2.7,2.1-4.3L489.6,50.8z M491.1,52v-1h6.1v0.6c-0.2,1.3-0.4,2.3-0.7,3.2h1.8v0.6
							c-0.3,1.9-0.9,3.6-1.9,4.9c0.7,0.8,1.6,1.5,2.6,2.1l-0.6,0.8c-1-0.6-1.8-1.4-2.5-2.2c-0.8,0.9-1.9,1.6-3.1,2.2l-0.6-0.9
							c1.2-0.6,2.2-1.3,3-2.1c-0.8-1.1-1.5-2.4-1.9-3.9c-0.4,3-1.3,5.2-2.8,6.8l-0.7-0.7c1.8-2,2.7-5.3,2.8-9.8V52H491.1z
							 M497.4,55.8h-1.9c0.3-0.9,0.5-2.1,0.8-3.8h-2.7v0.8c0,0.5,0,1,0,1.5c0.4,2,1.1,3.8,2.3,5.3C496.5,58.5,497.1,57.2,497.4,55.8
							z"/>
					</g>
				</g>
			</g>
		</g>
		<g>
			<g transform="translate(20 9)">
				<g style="enable-background:new    ;">
					<path style="fill:#00A4FF;" d="M414.6,9.3v6.1c0.4-0.4,0.9-0.8,1.4-1.3l0.3,1.1c-0.8,0.8-1.7,1.5-2.6,2.1l-0.4-0.9
						c0.2-0.2,0.3-0.4,0.3-0.6v-5.4h-2v-1H414.6z M415.6,7.4L415,8.1c-0.6-0.7-1.3-1.4-2.3-2.2l0.7-0.7C414.2,5.9,415,6.6,415.6,7.4
						z M416.4,6.7v-1h7.9v1h-2.9v3.9h2.7v0.9h-2.7v4.8h3.2v1h-8.6v-1h1.4V9h1v7.4h2V6.7H416.4z"/>
					<path style="fill:#00A4FF;" d="M431.7,5v2.5h4.1v0.5l-0.3,3.3h2c0,2.7-0.2,4.3-0.7,4.7c-0.2,0.2-0.5,0.4-0.8,0.4
						c-0.3,0.1-0.6,0.1-0.9,0.1h-0.9l-0.3-1c0.5,0,0.9,0,1.4,0c0.4,0,0.7-0.1,0.9-0.3c0.2-0.2,0.3-1.2,0.3-3h-4.8v5.7h-1v-5.7h-5v-1
						h5V8.4h-4.2v-1h4.2V5H431.7z M434.6,11.2l0.3-2.8h-3.1v2.8H434.6z M438.1,6.9l-0.5,0.8c-0.9-0.8-1.9-1.5-2.8-2l0.5-0.8
						C436.3,5.6,437.3,6.2,438.1,6.9z"/>
					<path style="fill:#00A4FF;" d="M450.8,16.5h1.5v0.9h-12.7v-0.9h1.6v-3.9h9.6V16.5z M441.6,5.7v5.7h-1V5.7H441.6z M444,16.5v-3
						h-1.9v3H444z M444.5,5v6.9h-1V5H444.5z M447,16.5v-3h-2v3H447z M445.8,10.5l-0.6-0.8c1-1.2,1.7-2.8,2-4.8l1,0.2
						c-0.1,0.6-0.2,1.1-0.4,1.6h4.2v1h-4.5C447,8.8,446.5,9.8,445.8,10.5z M449.9,16.5v-3h-1.9v3H449.9z M450.7,11.1l-0.8,0.6
						c-0.4-0.8-1-1.6-1.7-2.6l0.8-0.5C449.7,9.6,450.3,10.4,450.7,11.1z"/>
					<path style="fill:#00A4FF;" d="M454.1,17.8l-0.2-1c0.4,0,0.7,0.1,1.1,0.1c0.4,0,0.5-0.2,0.5-0.5v-3.4c-0.6,0.2-1.1,0.4-1.7,0.6
						l-0.3-1c0.7-0.2,1.3-0.4,1.9-0.6V8.7h-1.7v-1h1.7V5.1h1v2.7h1.2v1h-1.2v2.7c0.4-0.2,0.8-0.4,1.2-0.6v1
						c-0.4,0.2-0.8,0.4-1.2,0.6v4.1c0,0.8-0.4,1.2-1.2,1.2H454.1z M458.4,13.4v-0.9h7.5v0.9h-3.2v3.1h3.7v1h-8.6v-1h3.8v-3.1H458.4z
						 M462.7,6.6h3.3v2.6h-0.9V7.5h-5.9v1.7h-1V6.6h3.5c-0.2-0.6-0.5-1.1-0.7-1.5l1-0.2C462.3,5.4,462.5,6,462.7,6.6z M461.6,8.7
						c-0.6,1.4-1.5,2.5-2.5,3.2l-0.7-0.6c1.1-0.7,1.8-1.7,2.4-2.9L461.6,8.7z M465.8,11.3l-0.9,0.4c-0.7-1.1-1.4-2.2-2.3-3.1
						l0.9-0.4C464.3,9.2,465.1,10.3,465.8,11.3z"/>
					<path style="fill:#00A4FF;" d="M468.1,17.8l-0.2-1c0.4,0,0.8,0.1,1.1,0.1c0.3,0,0.5-0.2,0.5-0.5v-3.4c-0.5,0.2-1.1,0.4-1.6,0.6
						l-0.2-1c0.6-0.2,1.2-0.4,1.9-0.6V8.7h-1.7v-1h1.7V5.1h1v2.6h1.4v1h-1.4v2.7c0.4-0.2,0.8-0.4,1.2-0.6v1
						c-0.4,0.2-0.8,0.4-1.2,0.6v4.1c0,0.8-0.4,1.2-1.2,1.2H468.1z M480.1,11.4v0.9h-3.5v1.6h2.9v0.9h-2.9v1.8c0.6,0.1,1.2,0.1,2,0.1
						c0.7,0,1.4,0,1.9-0.1l-0.3,1c-0.6,0-1.1,0-1.5,0c-1.8,0-3.1-0.2-3.8-0.5c-0.5-0.3-1-0.8-1.4-1.6c-0.3,0.9-0.8,1.7-1.4,2.4
						l-0.7-0.6c1.1-1.3,1.7-2.7,1.8-4.3l0.9,0.1c0,0.5-0.1,1-0.2,1.5c0.4,0.9,1,1.5,1.6,1.8c0.1,0,0.2,0.1,0.3,0.1v-4.1H472v-0.9
						H480.1z M479.1,5.5v4.9H473V5.5H479.1z M478.1,7.6V6.4H474v1.2H478.1z M478.1,8.4H474v1.2h4.1V8.4z"/>
					<path style="fill:#00A4FF;" d="M481.8,11.8l-0.3-1.1c1.5-1.7,2.6-3.7,3.3-5.8l1,0.4c-0.4,1.1-0.8,2.1-1.4,3.1v9.4h-1v-7.8
						C482.8,10.7,482.3,11.3,481.8,11.8z M487.6,8V5.1h1V8h2.5V5.1h1V8h1.9v1h-1.9v3.3h2.3v1h-9v-1h2.2V9h-1.8V8H487.6z M488.9,14.3
						c-0.7,1.4-1.6,2.6-2.6,3.6l-0.9-0.6c1-0.9,1.8-2.1,2.5-3.4L488.9,14.3z M491.1,12.3V9h-2.5v3.3H491.1z M494.3,17.2l-0.9,0.6
						c-0.6-1.1-1.5-2.3-2.6-3.6l0.8-0.5C492.7,15.1,493.6,16.3,494.3,17.2z"/>
					<path style="fill:#00A4FF;" d="M496.5,17.9l-0.8-0.7c0.6-1.3,0.8-2.9,0.9-4.8V5.7h4.1v10.9c0,0.8-0.4,1.3-1.2,1.3h-1.1
						l-0.2-0.9c0.4,0,0.7,0.1,1.1,0.1c0.3,0,0.5-0.3,0.5-0.8v-3.2h-2.3C497.5,15.1,497.1,16.7,496.5,17.9z M499.8,6.6h-2.3v2.4h2.3
						V6.6z M497.5,12.2h2.3V9.8h-2.3V12.2z M502.9,17.9h-1V5.6h5.7c0,1.7-0.1,2.9-0.3,3.4c-0.2,0.6-0.7,0.9-1.6,0.9h-1.1l-0.3-0.9
						c0.2,0,0.5,0,0.9,0c0.3,0,0.6,0,0.7-0.1c0.2-0.1,0.3-0.2,0.4-0.4c0.1-0.3,0.2-1,0.2-2.1h-3.7v4.2h4.8v0.9
						c-0.3,1.4-0.7,2.7-1.4,3.7c0.6,0.6,1.4,1.2,2.2,1.7l-0.5,0.9c-0.9-0.5-1.7-1.1-2.3-1.7c-0.6,0.7-1.3,1.3-2.2,1.7l-0.5-0.8
						c0.8-0.4,1.5-1,2-1.7c-0.9-1.1-1.5-2.3-1.8-3.7h-0.3V17.9z M505.6,14.6c0.5-0.8,0.9-1.8,1.1-2.9h-2.7
						C504.4,12.8,504.9,13.8,505.6,14.6z"/>
					<path style="fill:#00A4FF;" d="M514.8,5.2c-0.2,0.4-0.3,0.7-0.5,1.1h6.1V7c-0.9,1-2,1.9-3.3,2.6c1.6,0.7,3.3,1.1,5.3,1.3
						l-0.5,0.9c-2.2-0.3-4.2-0.8-5.9-1.7c-1.7,0.8-3.7,1.4-6,1.7l-0.5-1c2-0.3,3.8-0.7,5.4-1.3c-0.8-0.5-1.5-1-2.2-1.6
						c-0.5,0.5-1.1,0.9-1.8,1.3l-0.6-0.8c1.7-1,2.8-2.1,3.4-3.5L514.8,5.2z M516.2,11.2c0,0.6-0.1,1.1-0.1,1.6h4.9
						c0,2.4-0.2,3.8-0.6,4.2c-0.4,0.5-1.1,0.7-2.1,0.7c-0.4,0-1,0-1.6-0.1l-0.3-0.9l1.7,0.1c0.8,0,1.4-0.2,1.6-0.5
						c0.2-0.3,0.3-1.2,0.4-2.6h-4.1c-0.1,0.4-0.3,0.7-0.4,1c-0.7,1.3-2.4,2.3-4.9,3.1l-0.7-0.8c2.3-0.7,3.8-1.5,4.6-2.5
						c0.2-0.3,0.3-0.5,0.4-0.8h-4.2v-0.9h4.5c0.1-0.5,0.2-1,0.2-1.6H516.2z M519,7.2h-5.4l-0.2,0.2c0.8,0.7,1.7,1.3,2.6,1.8
						C517.2,8.6,518.1,7.9,519,7.2z"/>
				</g>
			</g>
		</g>
		<g>
			<g>
				<rect x="566" y="106.5" style="opacity:0.6;fill:#BBBBBB;enable-background:new    ;" width="119" height="50"/>
				<g>
					<rect x="564.5" y="105" style="fill:#FFFFFF;" width="118" height="49"/>
					<path style="fill:#E5E5E5;" d="M682,105.5v48H565v-48H682 M683,104.5H564v50h119V104.5L683,104.5z"/>
				</g>
			</g>
			<g>
				<g transform="translate(20 9)">
					<g style="enable-background:new    ;">
						<path style="fill:#444444;" d="M582.2,116.5c0.7,0.5,1.1,1.3,1.1,2.4h-1.1c-0.1-0.7-0.4-1.3-0.8-1.6c-0.4-0.4-1.1-0.5-1.9-0.5
							c-0.7,0-1.3,0.1-1.7,0.4c-0.5,0.3-0.7,0.7-0.7,1.3c0,0.5,0.3,0.9,0.9,1.2c0.3,0.1,0.9,0.3,1.8,0.6c1.3,0.4,2.2,0.7,2.6,1
							c0.8,0.5,1.2,1.2,1.2,2.1c0,0.9-0.4,1.6-1.1,2.1c-0.7,0.5-1.6,0.7-2.8,0.7c-1.2,0-2.1-0.3-2.8-0.8c-0.8-0.6-1.2-1.5-1.3-2.7
							h1.1c0.1,0.9,0.4,1.5,0.9,1.9c0.5,0.4,1.1,0.6,2,0.6c0.8,0,1.5-0.2,2-0.5c0.5-0.3,0.8-0.7,0.8-1.3c0-0.6-0.3-1.1-1-1.5
							c-0.3-0.2-1-0.4-2.1-0.7c-1.2-0.4-2-0.6-2.3-0.8c-0.8-0.4-1.1-1.1-1.1-1.9c0-0.9,0.4-1.6,1.1-2c0.7-0.4,1.5-0.7,2.5-0.7
							C580.7,115.7,581.6,116,582.2,116.5z"/>
						<path style="fill:#444444;" d="M591.1,116.5c0.7,0.5,1.1,1.3,1.1,2.4h-1.1c-0.1-0.7-0.4-1.3-0.8-1.6c-0.4-0.4-1.1-0.5-1.9-0.5
							c-0.7,0-1.3,0.1-1.7,0.4c-0.5,0.3-0.7,0.7-0.7,1.3c0,0.5,0.3,0.9,0.9,1.2c0.3,0.1,0.9,0.3,1.8,0.6c1.3,0.4,2.2,0.7,2.6,1
							c0.8,0.5,1.2,1.2,1.2,2.1c0,0.9-0.4,1.6-1.1,2.1c-0.7,0.5-1.6,0.7-2.8,0.7c-1.2,0-2.1-0.3-2.8-0.8c-0.8-0.6-1.2-1.5-1.3-2.7
							h1.1c0.1,0.9,0.4,1.5,0.9,1.9c0.5,0.4,1.1,0.6,2,0.6c0.8,0,1.5-0.2,2-0.5c0.5-0.3,0.8-0.7,0.8-1.3c0-0.6-0.3-1.1-1-1.5
							c-0.3-0.2-1-0.4-2.1-0.7c-1.2-0.4-2-0.6-2.3-0.8c-0.8-0.4-1.1-1.1-1.1-1.9c0-0.9,0.4-1.6,1.1-2c0.7-0.4,1.5-0.7,2.5-0.7
							C589.5,115.7,590.4,116,591.1,116.5z"/>
						<path style="fill:#444444;" d="M595,115.9v9h5.8v1h-6.9v-10H595z"/>
						<path style="fill:#444444;" d="M609.2,120l-0.7,0.7c-0.5-0.6-1.2-1.3-2.1-1.9l0.7-0.6C607.9,118.7,608.6,119.3,609.2,120z
							 M609,122.2c-0.5,1.7-1,3.4-1.6,4.9l-0.9-0.4c0.6-1.6,1.2-3.2,1.6-4.9L609,122.2z M609.7,116.5l-0.7,0.7
							c-0.5-0.6-1.2-1.2-2.1-1.9l0.7-0.6C608.4,115.3,609.1,115.9,609.7,116.5z M611.2,120.2c0,2.8-0.5,5.2-1.6,7.1l-0.7-0.7
							c0.9-1.7,1.4-3.8,1.4-6.5V115h8.2v3.1h-7.3V120.2z M611.2,115.9v1.4h6.4v-1.4H611.2z M618.9,119.2v0.9h-3.3v1.1h3.1v5
							c0,0.6-0.3,1-0.9,1h-1.1l-0.2-0.8l1,0c0.3,0,0.4-0.2,0.4-0.5v-4h-2.3v5.1h-0.9V122h-2.2v5.2h-0.8v-6h3v-1.1h-3.2v-0.9H618.9z
							 M614.5,125.5L614,126c-0.3-0.4-0.7-0.8-1.2-1.2l0.5-0.5C613.8,124.7,614.2,125.1,614.5,125.5z M614.6,123.6l-0.5,0.5
							c-0.3-0.4-0.7-0.8-1.2-1.2l0.5-0.5C613.8,122.9,614.2,123.2,614.6,123.6z M617.6,125.4l-0.5,0.5c-0.3-0.4-0.7-0.8-1.2-1.2
							l0.5-0.5C616.9,124.6,617.3,125,617.6,125.4z M617.7,123.6l-0.5,0.5c-0.3-0.4-0.7-0.7-1.2-1.1l0.5-0.5
							C616.9,122.8,617.4,123.2,617.7,123.6z"/>
						<path style="fill:#444444;" d="M623.5,120l-0.7,0.7c-0.6-0.6-1.3-1.3-2.3-2.1l0.7-0.7C622.1,118.6,622.9,119.3,623.5,120z
							 M623.7,122.2c-0.7,1.8-1.4,3.4-2.3,5l-1-0.4c0.9-1.6,1.7-3.2,2.3-4.9L623.7,122.2z M623.8,116.6l-0.7,0.7
							c-0.6-0.6-1.4-1.3-2.4-2l0.7-0.7C622.3,115.3,623.1,116,623.8,116.6z M629.5,127.2l-0.3-1l1.7,0c0.5,0,0.8-0.2,0.8-0.6V116
							h-6.3v11.3h-1V115h8.3v10.9c0,0.9-0.5,1.3-1.4,1.3H629.5z M630.9,117.5v0.9h-4.7v-0.9H630.9z M630.5,119.8v4.7h-3.9v-4.7
							H630.5z M629.6,120.7h-2.1v3h2.1V120.7z"/>
					</g>
				</g>
			</g>
		</g>
		<g>
			<g>
				<rect x="566" y="42.5" style="opacity:0.6;fill:#BBBBBB;enable-background:new    ;" width="119" height="50"/>
				<g>
					<rect x="564.5" y="41" style="fill:#FFFFFF;" width="118" height="49"/>
					<path style="fill:#E5E5E5;" d="M682,41.5v48H565v-48H682 M683,40.5H564v50h119V40.5L683,40.5z"/>
				</g>
			</g>
			<g>
				<g transform="translate(20 9)">
					<g style="enable-background:new    ;">
						<path style="fill:#444444;" d="M580.1,54.7v6.1c0.4-0.4,0.9-0.8,1.4-1.3l0.3,1.1c-0.8,0.8-1.7,1.5-2.6,2.1l-0.4-0.9
							c0.2-0.2,0.3-0.4,0.3-0.6v-5.4h-2v-1H580.1z M581.1,52.8l-0.7,0.7c-0.6-0.7-1.3-1.4-2.3-2.2l0.7-0.7
							C579.7,51.3,580.5,52,581.1,52.8z M581.9,52.1v-1h7.9v1h-2.9V56h2.7V57h-2.7v4.8h3.2v1h-8.6v-1h1.4v-7.4h1v7.4h2v-9.7H581.9z"
							/>
						<path style="fill:#444444;" d="M597.2,50.4v2.5h4.1v0.5l-0.3,3.3h2c0,2.7-0.2,4.3-0.7,4.7c-0.2,0.2-0.5,0.4-0.8,0.4
							c-0.3,0.1-0.6,0.1-0.9,0.1h-0.9l-0.3-1c0.5,0,0.9,0,1.4,0c0.4,0,0.7-0.1,0.9-0.3c0.2-0.2,0.3-1.2,0.3-3h-4.8v5.7h-1v-5.7h-5
							v-1h5v-2.8h-4.2v-1h4.2v-2.5H597.2z M600.1,56.6l0.3-2.8h-3.1v2.8H600.1z M603.6,52.3l-0.5,0.8c-0.9-0.8-1.9-1.5-2.8-2
							l0.5-0.8C601.8,51,602.8,51.6,603.6,52.3z"/>
						<path style="fill:#444444;" d="M610.7,63.1h-1v-0.7h-3v0.7h-1V57h4.9V63.1z M609.7,61.4V58h-3v3.4H609.7z M615.4,51v4.6h-7.7
							V51H615.4z M614.3,52h-5.7v2.7h5.7V52z M617.2,63.1h-1v-0.7h-3.1v0.7h-1V57h5.1V63.1z M616.2,61.4V58h-3.1v3.4H616.2z"/>
						<path style="fill:#444444;" d="M623.4,50.6v3.7h0.8v0.9h-3.2V56c0,0.5,0,0.9,0,1.3h2.6v5.8h-1v-4.9h-1.7
							c-0.2,2.3-0.6,4-1.2,5.2l-0.7-0.6c0.7-1.4,1-3.7,1-6.8v-5.1h1v3.5h1.5v-3.7H623.4z M627,51.7c0.2-0.4,0.4-0.9,0.4-1.4l1,0.1
							c-0.1,0.4-0.3,0.8-0.4,1.2h3.1v5.9h-3.2l-0.2,0.3c-0.4,0.7-1.1,1.3-2,1.7h2.7v-1.5h1v1.5h2.4v1h-2.4v2.6h-1v-2.6h-4.3v-1h1.4
							l-0.4-0.6c0.8-0.4,1.4-0.8,1.7-1.4h-2.1v-5.9H627z M627.5,54.2v-1.6h-1.8v1.6H627.5z M627.5,55.1h-1.8v1.7h1.5
							C627.4,56.2,627.5,55.7,627.5,55.1z M630.2,55.1h-1.8c0,0.6-0.1,1.2-0.2,1.7h2V55.1z M628.5,54.2h1.8v-1.6h-1.8V54.2z"/>
					</g>
				</g>
			</g>
		</g>
		<g>
			<g>
				<rect x="699" y="106.5" style="opacity:0.6;fill:#BBBBBB;enable-background:new    ;" width="119" height="50"/>
				<g>
					<rect x="697.5" y="105" style="fill:#FFFFFF;" width="118" height="49"/>
					<path style="fill:#E5E5E5;" d="M815,105.5v48H698v-48H815 M816,104.5H697v50h119V104.5L816,104.5z"/>
				</g>
			</g>
			<g>
				<g transform="translate(20 9)">
					<g style="enable-background:new    ;">
						<path style="fill:#444444;" d="M716.9,114.4c1.8,2.1,3.8,3.7,6.2,4.9l-0.5,1c-2.3-1.3-4.3-2.9-6-4.9c-1.5,1.9-3.5,3.5-6,4.9
							l-0.5-1c2.5-1.3,4.6-2.9,6.2-4.9H716.9z M720.9,127.3h-1v-0.8h-6.9v0.8h-1v-5.6h8.9V127.3z M720.1,118.9v1h-7.3v-1H720.1z
							 M719.9,125.5v-2.9h-6.9v2.9H719.9z"/>
						<path style="fill:#444444;" d="M726.5,116.5v-1.9h1v1.9h1.9v1h-1.9v2.3h2.1v1h-2.1c0,0.4-0.1,0.7-0.1,1
							c0.8,0.7,1.6,1.6,2.4,2.5l-0.6,0.9c-0.8-1.1-1.5-1.9-2-2.5c-0.4,2-1.2,3.5-2.3,4.6l-0.7-0.7c1.4-1.3,2.1-3.3,2.3-5.9h-2.1v-1
							h2.2v-2.3h-2v-1H726.5z M733.5,117.1v2.5c0,2.1-0.4,3.8-1.1,5c-0.7,1.1-1.8,2.1-3.4,2.7l-0.5-0.9c1.5-0.6,2.6-1.5,3.2-2.5
							c0.6-1.1,0.9-2.5,0.9-4.3v-2.5H733.5z M735.9,122.7h-1V116h-3.7v6.8h-1V115h5.7V122.7z M734.3,127.1c-0.7,0-1.1-0.4-1.1-1.2
							v-3.2h0.9v2.9c0,0.3,0.1,0.5,0.4,0.5h0.7c0.2,0,0.4-0.1,0.5-0.2c0.1-0.2,0.2-0.7,0.3-1.6l0.9,0.3c-0.1,1.1-0.3,1.8-0.5,2.1
							c-0.2,0.2-0.5,0.3-1,0.3H734.3z"/>
						<path style="fill:#444444;" d="M749.3,125.9h1.5v0.9h-12.7v-0.9h1.6V122h9.6V125.9z M740.1,115.1v5.7h-1v-5.7H740.1z
							 M742.5,125.9v-3h-1.9v3H742.5z M743,114.4v6.9h-1v-6.9H743z M745.5,125.9v-3h-2v3H745.5z M744.3,119.9l-0.6-0.8
							c1-1.2,1.7-2.8,2-4.8l1,0.2c-0.1,0.6-0.2,1.1-0.4,1.6h4.2v1H746C745.5,118.2,745,119.2,744.3,119.9z M748.4,125.9v-3h-1.9v3
							H748.4z M749.2,120.5l-0.8,0.6c-0.4-0.8-1-1.6-1.7-2.6l0.8-0.5C748.2,119,748.8,119.8,749.2,120.5z"/>
						<path style="fill:#444444;" d="M754.7,120.2l-0.7,0.7c-0.5-0.6-1.1-1.3-1.9-2l0.7-0.6C753.5,118.9,754.2,119.5,754.7,120.2z
							 M754.9,122.3c-0.5,1.7-1.1,3.3-1.8,4.8l-0.9-0.4c0.7-1.6,1.3-3.2,1.8-4.8L754.9,122.3z M755,116.6l-0.7,0.7
							c-0.5-0.6-1.1-1.2-2-1.9l0.7-0.7C753.8,115.4,754.5,116,755,116.6z M758.3,117v4.4c0,1.6-0.3,2.9-0.8,3.8
							c-0.5,0.9-1.2,1.6-2.3,2.1l-0.5-0.8c1-0.5,1.7-1.1,2.1-1.9c0.4-0.8,0.6-1.9,0.6-3.2V117H758.3z M760.2,123.7h-0.9V116h-2.9
							v7.8h-0.9v-8.6h4.7V123.7z M760.9,126.6l-0.7,0.7c-0.5-0.7-1.2-1.5-2.1-2.4l0.6-0.6C759.6,125.1,760.3,125.9,760.9,126.6z
							 M762.2,115.7v8.7h-0.9v-8.7H762.2z M761.7,127.2l-0.2-0.9c0.5,0,1,0.1,1.4,0.1c0.3,0,0.5-0.2,0.5-0.6v-11.2h1V126
							c0,0.8-0.4,1.2-1.1,1.2H761.7z"/>
					</g>
				</g>
			</g>
		</g>
		<g>
			<g>
				<rect x="699" y="42.5" style="opacity:0.6;fill:#BBBBBB;enable-background:new    ;" width="119" height="50"/>
				<g>
					<rect x="697.5" y="41" style="fill:#FFFFFF;" width="118" height="49"/>
					<path style="fill:#E5E5E5;" d="M815,41.5v48H698v-48H815 M816,40.5H697v50h119V40.5L816,40.5z"/>
				</g>
			</g>
			<g>
				<g transform="translate(20 9)">
					<g style="enable-background:new    ;">
						<path style="fill:#444444;" d="M706.1,54.7v6.1c0.4-0.4,0.9-0.8,1.4-1.3l0.3,1.1c-0.8,0.8-1.7,1.5-2.6,2.1l-0.4-0.9
							c0.2-0.2,0.3-0.4,0.3-0.6v-5.4h-2v-1H706.1z M707.1,52.8l-0.7,0.7c-0.6-0.7-1.3-1.4-2.3-2.2l0.7-0.7
							C705.7,51.3,706.5,52,707.1,52.8z M707.9,52.1v-1h7.9v1h-2.9V56h2.7V57h-2.7v4.8h3.2v1h-8.6v-1h1.4v-7.4h1v7.4h2v-9.7H707.9z"
							/>
						<path style="fill:#444444;" d="M723.2,50.4v2.5h4.1v0.5l-0.3,3.3h2c0,2.7-0.2,4.3-0.7,4.7c-0.2,0.2-0.5,0.4-0.8,0.4
							c-0.3,0.1-0.6,0.1-0.9,0.1h-0.9l-0.3-1c0.5,0,0.9,0,1.4,0c0.4,0,0.7-0.1,0.9-0.3c0.2-0.2,0.3-1.2,0.3-3h-4.8v5.7h-1v-5.7h-5
							v-1h5v-2.8h-4.2v-1h4.2v-2.5H723.2z M726.1,56.6l0.3-2.8h-3.1v2.8H726.1z M729.6,52.3l-0.5,0.8c-0.9-0.8-1.9-1.5-2.8-2
							l0.5-0.8C727.8,51,728.8,51.6,729.6,52.3z"/>
						<path style="fill:#444444;" d="M735.4,60.3v3h-1v-7.3c-0.8,1-1.7,1.9-2.7,2.7l-0.7-0.9c1.8-1.4,3.1-3,4.1-4.8h-3.7v-1h4.2
							c0.2-0.5,0.4-1.1,0.6-1.6l1,0.1c-0.2,0.5-0.3,1-0.5,1.5h7v1h-7.4c-0.3,0.6-0.6,1.1-0.9,1.6h6.5v7.6c0,0.7-0.4,1-1.2,1.1h-1.6
							l-0.3-0.9c0.5,0,1,0.1,1.5,0.1c0.4,0,0.5-0.2,0.5-0.5v-1.6H735.4z M735.4,57h5.6v-1.5h-5.6V57z M735.4,57.9v1.5h5.6v-1.5
							H735.4z"/>
						<path style="fill:#444444;" d="M748.7,58.4c0.3-0.6,0.6-1.3,0.8-2.1l0.9,0.4c-0.3,0.9-0.6,1.7-1,2.4c0.6,0.6,1.1,1.2,1.7,1.8
							l-0.7,0.8c-0.5-0.6-1-1.1-1.5-1.7c-0.9,1.3-2,2.4-3.3,3.1l-0.6-0.9c1.3-0.7,2.4-1.7,3.2-3c-0.6-0.6-1.2-1.1-1.8-1.6L747,57
							C747.6,57.4,748.2,57.9,748.7,58.4z M748,54c-0.6,1.3-1.3,2.4-2.1,3.3l-0.8-0.6c0.8-0.9,1.5-1.9,2-3.2L748,54z M749.1,51.9
							h2.6v1h-6.5v-1h2.9c-0.2-0.5-0.4-1-0.7-1.4l1-0.2C748.7,50.8,748.9,51.3,749.1,51.9z M748.9,54.1l0.6-0.6
							c0.6,0.4,1.2,1.1,1.9,2l-0.7,0.7C750.1,55.3,749.5,54.7,748.9,54.1z M752.7,56c-0.3,0.5-0.5,1-0.8,1.4l-0.6-0.8
							c1-1.5,1.7-3.6,2-6.2l1,0.2c-0.1,0.8-0.3,1.5-0.4,2.2h3.9v1h-1.2c-0.1,2.2-0.6,4.1-1.5,5.7c0.8,1.3,1.8,2.3,2.9,3l-0.6,0.9
							c-1.1-0.7-2.1-1.7-2.9-3c-0.9,1.2-2,2.2-3.4,3l-0.6-0.9c1.5-0.8,2.6-1.8,3.5-3C753.5,58.4,753.1,57.2,752.7,56z M753.3,54.7
							c0.3,1.4,0.8,2.7,1.3,3.7c0.7-1.4,1.1-2.9,1.1-4.7h-2.1C753.5,54,753.4,54.4,753.3,54.7z"/>
						<path style="fill:#444444;" d="M761.8,60.6c-0.5,1-1.1,1.9-1.8,2.6l-0.8-0.6c0.7-0.7,1.3-1.5,1.8-2.5L761.8,60.6z M761.2,50.5
							v1.6h2.7v-1.5h1v1.5h0.8V53h-0.8v5.9h0.9v1h-6.6v-1h1V53h-0.9v-0.9h0.9v-1.6H761.2z M761.2,53v1.4h2.7V53H761.2z M764,56.7
							v-1.4h-2.7v1.4H764z M764,58.9v-1.4h-2.7v1.4H764z M765.2,62.4c0.9-1.3,1.4-2.9,1.4-4.9V51h4.7v11c0,0.8-0.4,1.2-1.2,1.2h-1.5
							l-0.3-1c0.5,0,1,0.1,1.4,0.1c0.4,0,0.5-0.2,0.5-0.6v-2.9h-2.7c-0.2,1.8-0.8,3.4-1.7,4.6l-0.8-0.7
							C765.1,62.6,765.2,62.6,765.2,62.4l-0.8,0.6c-0.4-0.7-0.9-1.5-1.5-2.3l0.8-0.5C764.4,61.1,764.9,61.8,765.2,62.4z M767.6,57.5
							c0,0.1,0,0.2,0,0.4h2.7v-2.5h-2.6V57.5z M770.3,51.9h-2.6v2.5h2.6V51.9z"/>
					</g>
				</g>
			</g>
		</g>
	</g>
	<g>
		<g>
			<rect x="2" y="61" style="opacity:0.6;fill:#BBBBBB;enable-background:new    ;" width="119" height="50"/>
			<g>
				<rect x="0.5" y="59.5" style="fill:#FFFFFF;" width="118" height="49"/>
				<path style="fill:#E5E5E5;" d="M118,60v48H1V60H118 M119,59H0v50h119V59L119,59z"/>
			</g>
		</g>
		<g>
			<g>
				<g transform="translate(20 9)">
					<g style="enable-background:new    ;">
						<path style="fill:#444444;" d="M48.9,81.7L48.1,81c0.9-1.2,1.4-2.8,1.4-4.7v-6.7h10.4V80c0,1-0.5,1.5-1.5,1.5h-1.6l-0.3-1
							c0.6,0,1.1,0.1,1.6,0.1c0.5,0,0.8-0.3,0.8-0.9v-2.4h-3.8v4.1h-1v-4.1h-3.6C50.3,79,49.8,80.5,48.9,81.7z M50.5,70.5v2.4H54
							v-2.4H50.5z M50.5,76.3H54v-2.5h-3.6V76.3z M58.9,70.5h-3.8v2.4h3.8V70.5z M58.9,73.8h-3.8v2.5h3.8V73.8z"/>
						<path style="fill:#444444;" d="M62.7,81.9L62,81.2c1.1-1.6,1.7-3.6,1.7-6.1v-4.4h4.6c-0.3-0.6-0.5-1.1-0.8-1.6l1.1-0.2
							c0.3,0.5,0.5,1.1,0.8,1.8h4.4v4.7h-9C64.6,77.9,64,80,62.7,81.9z M64.7,71.7v2.7h8v-2.7H64.7z"/>
					</g>
				</g>
			</g>
			<g transform="translate(20 9)">
				<g>
					<g>
						<path style="fill:#878787;" d="M17.5,65.5c2.2,0,4,1.8,4,4s-1.8,4-4,4s-4-1.8-4-4S15.3,65.5,17.5,65.5 M17.5,63.5
							c-3.3,0-6,2.7-6,6s2.7,6,6,6s6-2.7,6-6S20.8,63.5,17.5,63.5z"/>
						<path style="fill:#878787;" d="M21.5,79.5c3.3,0,6,2.7,6,6v1h-20v-1c0-3.3,2.7-6,6-6H21.5 M21.5,77.5h-8c-4.4,0-8,3.6-8,8v3
							h24v-3C29.5,81.1,25.9,77.5,21.5,77.5z"/>
						<path style="fill:#878787;" d="M30.5,77.5h-3c0.8,0.6,1.4,1.2,2,2h1c2.2,0,4,1.8,4,4v1h-3c0,0.3,0,0.7,0,1v1h5v-3
							C36.5,80.2,33.8,77.5,30.5,77.5z"/>
						<path style="fill:#878787;" d="M26.5,64.5c-0.8,0-1.6,0.2-2.3,0.6c0.4,0.6,0.7,1.2,0.9,1.8c1.4-0.8,3.3-0.3,4.1,1.1
							c0.8,1.4,0.3,3.3-1.1,4.1c-0.9,0.5-2,0.5-3,0c-0.2,0.6-0.5,1.2-0.9,1.8c0.7,0.4,1.5,0.6,2.3,0.6c2.8,0,5-2.2,5-5
							C31.5,66.7,29.3,64.5,26.5,64.5z"/>
					</g>
				</g>
			</g>
		</g>
	</g>
	<g>
		<g>
			<rect x="196" y="60.9" style="opacity:0.6;fill:#BBBBBB;enable-background:new    ;" width="150" height="50"/>
			<g>
				<rect x="194.5" y="59.4" style="fill:#FFFFFF;" width="149" height="49"/>
				<path style="fill:#E5E5E5;" d="M343,59.9v48H195v-48H343 M344,58.9H194v50h150V58.9L344,58.9z"/>
			</g>
		</g>
		<g>
			<g>
				<g transform="translate(20 9)">
					<g style="enable-background:new    ;">
						<path style="fill:#444444;" d="M244.2,73.2v6.1c0.4-0.4,0.9-0.8,1.4-1.3l0.3,1.1c-0.8,0.8-1.7,1.5-2.6,2.1l-0.4-0.9
							c0.2-0.2,0.3-0.4,0.3-0.6v-5.4h-2v-1H244.2z M245.2,71.2l-0.7,0.7c-0.6-0.7-1.3-1.4-2.3-2.2l0.7-0.7
							C243.8,69.8,244.6,70.5,245.2,71.2z M246,70.6v-1h7.9v1h-2.9v3.9h2.7v0.9h-2.7v4.8h3.2v1h-8.6v-1h1.4v-7.4h1v7.4h2v-9.7H246z"
							/>
						<path style="fill:#444444;" d="M261.4,68.8v2.5h4.1v0.5l-0.3,3.3h2c0,2.7-0.2,4.3-0.7,4.7c-0.2,0.2-0.5,0.4-0.8,0.4
							c-0.3,0.1-0.6,0.1-0.9,0.1h-0.9l-0.3-1c0.5,0,0.9,0,1.4,0c0.4,0,0.7-0.1,0.9-0.3c0.2-0.2,0.3-1.2,0.4-3h-4.8v5.7h-1V76h-5v-1
							h5v-2.8h-4.2v-1h4.2v-2.5H261.4z M264.2,75.1l0.3-2.8h-3.1v2.8H264.2z M267.7,70.8l-0.5,0.8c-0.9-0.8-1.9-1.5-2.8-2l0.5-0.8
							C265.9,69.4,266.9,70.1,267.7,70.8z"/>
						<path style="fill:#444444;" d="M280.5,80.4h1.5v0.9h-12.7v-0.9h1.6v-3.9h9.6V80.4z M271.2,69.5v5.7h-1v-5.7H271.2z
							 M273.7,80.4v-3h-1.9v3H273.7z M274.2,68.9v6.9h-1v-6.9H274.2z M276.6,80.4v-3h-2v3H276.6z M275.4,74.4l-0.6-0.8
							c1-1.2,1.7-2.8,2-4.8l1,0.2c-0.1,0.6-0.2,1.1-0.4,1.6h4.2v1h-4.5C276.6,72.7,276.1,73.6,275.4,74.4z M279.5,80.4v-3h-1.9v3
							H279.5z M280.3,75l-0.8,0.6c-0.4-0.8-1-1.6-1.7-2.6l0.8-0.5C279.3,73.5,279.9,74.3,280.3,75z"/>
						<path style="fill:#444444;" d="M283.7,81.6l-0.2-1c0.4,0,0.7,0.1,1.1,0.1c0.4,0,0.5-0.2,0.5-0.5v-3.4
							c-0.6,0.2-1.1,0.4-1.7,0.6l-0.3-1c0.7-0.2,1.3-0.4,1.9-0.6v-3.1h-1.7v-1h1.7v-2.7h1v2.7h1.2v1h-1.2v2.7
							c0.4-0.2,0.8-0.4,1.2-0.6v1c-0.4,0.2-0.8,0.4-1.2,0.6v4.1c0,0.8-0.4,1.2-1.2,1.2H283.7z M288.1,77.2v-0.9h7.5v0.9h-3.2v3.1
							h3.7v1h-8.6v-1h3.8v-3.1H288.1z M292.4,70.4h3.3v2.6h-0.9v-1.7h-5.9v1.7h-1v-2.6h3.5c-0.2-0.6-0.5-1.1-0.7-1.5l1-0.2
							C291.9,69.3,292.2,69.8,292.4,70.4z M291.3,72.6c-0.6,1.4-1.5,2.5-2.5,3.2l-0.7-0.6c1.1-0.7,1.9-1.7,2.4-2.9L291.3,72.6z
							 M295.4,75.2l-0.9,0.4c-0.7-1.1-1.4-2.2-2.3-3.1l0.9-0.4C294,73.1,294.7,74.1,295.4,75.2z"/>
					</g>
				</g>
			</g>
			<g transform="translate(20 9)">
				<g>
					<g>
						<path style="fill:#878787;" d="M211,65.4c2.2,0,4,1.8,4,4s-1.8,4-4,4c-2.2,0-4-1.8-4-4S208.8,65.4,211,65.4 M211,63.4
							c-3.3,0-6,2.7-6,6s2.7,6,6,6s6-2.7,6-6S214.3,63.4,211,63.4z"/>
						<path style="fill:#878787;" d="M215,79.4c3.3,0,6,2.7,6,6v1h-20v-1c0-3.3,2.7-6,6-6H215 M215,77.4h-8c-4.4,0-8,3.6-8,8v3h24
							v-3C223,81,219.4,77.4,215,77.4z"/>
						<path style="fill:#878787;" d="M224,77.4h-3c0.8,0.6,1.4,1.2,2,2h1c2.2,0,4,1.8,4,4v1h-3c0,0.3,0,0.7,0,1v1h5v-3
							C230,80.1,227.3,77.4,224,77.4z"/>
						<path style="fill:#878787;" d="M220,64.4c-0.8,0-1.6,0.2-2.3,0.6c0.4,0.6,0.7,1.2,0.9,1.8c1.4-0.8,3.3-0.3,4.1,1.1
							c0.8,1.4,0.3,3.3-1.1,4.1c-0.9,0.5-2,0.5-3,0c-0.2,0.6-0.5,1.2-0.9,1.8c0.7,0.4,1.5,0.6,2.3,0.6c2.8,0,5-2.2,5-5
							C225,66.7,222.8,64.4,220,64.4z"/>
					</g>
				</g>
			</g>
		</g>
	</g>
	<g>
		<polygon style="fill:#878787;" points="186,81.9 190,84.9 186,87.9 		"/>
		<line style="fill:none;stroke:#878787;stroke-miterlimit:10;" x1="188" y1="84.9" x2="121" y2="84.9"/>
	</g>
	<g>
		<polygon style="fill:#878787;" points="411,81.9 415,84.9 411,87.9 		"/>
		<line style="fill:none;stroke:#878787;stroke-miterlimit:10;" x1="413" y1="84.9" x2="346" y2="84.9"/>
	</g>
</g>
</svg>
