<?xml version="1.0" encoding="utf-8"?>
<!-- Generator: Adobe Illustrator 23.0.3, SVG Export Plug-In . SVG Version: 6.00 Build 0)  -->
<svg version="1.1" id="图层_1" xmlns="http://www.w3.org/2000/svg" xmlns:xlink="http://www.w3.org/1999/xlink" x="0px" y="0px"
	 width="48px" height="48px" viewBox="0 0 48 48" style="enable-background:new 0 0 48 48;" xml:space="preserve">
<style type="text/css">
	.st0{fill:none;stroke:#334966;stroke-width:2;}
	.st1{fill-rule:evenodd;clip-rule:evenodd;fill:#334966;}
	.st2{fill-rule:evenodd;clip-rule:evenodd;fill:#00A4FF;}
</style>
<title>内核优化-48x48</title>
<desc>Created with Sketch.</desc>
<g id="内核优化-48x48">
	<path id="Rectangle-86" class="st0" d="M5,10.41v27.17L10.41,43h27.17L43,37.59V10.41L37.59,5H10.41L5,10.41z"/>
	<rect id="Rectangle-87" x="23" class="st1" width="2" height="6"/>
	<rect id="Rectangle-87-Copy-3" x="23" y="42" class="st1" width="2" height="6"/>
	<rect id="Rectangle-87-Copy" x="29" class="st1" width="2" height="6"/>
	<rect id="Rectangle-87-Copy-4" x="29" y="42" class="st1" width="2" height="6"/>
	<rect id="Rectangle-87-Copy-6" y="17" class="st1" width="6" height="2"/>
	<rect id="Rectangle-87-Copy-9" x="42" y="17" class="st1" width="6" height="2"/>
	<rect id="Rectangle-87-Copy-7" y="23" class="st1" width="6" height="2"/>
	<rect id="Rectangle-87-Copy-10" x="42" y="23" class="st1" width="6" height="2"/>
	<rect id="Rectangle-87-Copy-8" y="29" class="st1" width="6" height="2"/>
	<rect id="Rectangle-87-Copy-11" x="42" y="29" class="st1" width="6" height="2"/>
	<rect id="Rectangle-87-Copy-2" x="17" class="st1" width="2" height="6"/>
	<rect id="Rectangle-87-Copy-5" x="17" y="42" class="st1" width="2" height="6"/>
	<rect id="Rectangle-88" x="14" y="14" class="st2" width="20" height="20"/>
</g>
</svg>
