<?xml version="1.0" encoding="UTF-8"?>
<svg width="48px" height="48px" viewBox="0 0 48 48" version="1.1" xmlns="http://www.w3.org/2000/svg" xmlns:xlink="http://www.w3.org/1999/xlink">
    <!-- Generator: Sketch 52.6 (67491) - http://www.bohemiancoding.com/sketch -->
    <title>灵活-48px</title>
    <desc>Created with Sketch.</desc>
    <g id="灵活-48px" stroke="none" stroke-width="1" fill="none" fill-rule="evenodd">
        <rect id="Rectangle-Copy" fill="#444444" opacity="0" x="0" y="0" width="48" height="48"></rect>
        <g id="0d4d728eb8c1868e08ff64807ebbad87" transform="translate(2.000000, 2.000000)">
            <path d="M21,21 L21,27 L21,27.2072715 C20.5176139,27.0708219 20.0138018,27 19.5,27 C16.4624339,27 14,29.4624339 14,32.5 C14,35.5375661 16.4624339,38 19.5,38 C20.0138018,38 20.5176139,37.9291781 21,37.7927285 L21,38 L21,43 L23,43 L23,44 L17,44 L15.2422255,44 C14.4426804,44 8.5573196,44 7.75777452,44 L6,44 L0,44 L0,21 L6,21 L6.20727147,21 C6.07082188,20.5176139 6,20.0138018 6,19.5 C6,16.4624339 8.4624339,14 11.5,14 C14.5375661,14 17,16.4624339 17,19.5 C17,20.0138018 16.9291781,20.5176139 16.7927285,21 L17,21 L21,21 Z" id="Combined-Shape" fill="#00A4FF"></path>
            <g id="Group">
                <rect id="Rectangle" stroke="#334966" stroke-width="2" x="1" y="1" width="42" height="42"></rect>
                <path d="M21,6 L21,0 L23,0 L23,6 L23,6.20727147 C23.4823861,6.07082188 23.9861982,6 24.5,6 C27.5375661,6 30,8.46243388 30,11.5 C30,14.5375661 27.5375661,17 24.5,17 C23.9861982,17 23.4823861,16.9291781 23,16.7927285 L23,17 L23,23 L21,23 L21,17 L21,15.2422255 C21,14.4426804 21.8918308,13.9664623 22.5562596,14.4112169 C23.1270472,14.79329 23.7968449,15 24.5,15 C26.4329966,15 28,13.4329966 28,11.5 C28,9.56700338 26.4329966,8 24.5,8 C23.7968449,8 23.1270472,8.20670998 22.5562596,8.58878311 C21.8918308,9.03353769 21,8.55731955 21,7.75777452 L21,6 Z" id="Combined-Shape" fill="#334966"></path>
                <path d="M28,20 L28,14 L30,14 L30,20 L30,20.2072715 C30.4823861,20.0708219 30.9861982,20 31.5,20 C34.5375661,20 37,22.4624339 37,25.5 C37,28.5375661 34.5375661,31 31.5,31 C30.9861982,31 30.4823861,30.9291781 30,30.7927285 L30,31 L30,37 L28,37 L28,31 L28,29.2422255 C28,28.4426804 28.8918308,27.9664623 29.5562596,28.4112169 C30.1270472,28.79329 30.7968449,29 31.5,29 C33.4329966,29 35,27.4329966 35,25.5 C35,23.5670034 33.4329966,22 31.5,22 C30.7968449,22 30.1270472,22.20671 29.5562596,22.5887831 C28.8918308,23.0335377 28,22.5573196 28,21.7577745 L28,20 Z" id="Combined-Shape" fill="#334966" transform="translate(32.500000, 25.500000) rotate(90.000000) translate(-32.500000, -25.500000) "></path>
                <path d="M7,13 L7,7 L9,7 L9,13 L9,13.2072715 C9.48238612,13.0708219 9.98619816,13 10.5,13 C13.5375661,13 16,15.4624339 16,18.5 C16,21.5375661 13.5375661,24 10.5,24 C9.98619816,24 9.48238612,23.9291781 9,23.7927285 L9,24 L9,30 L7,30 L7,24 L7,22.2422255 C7,21.4426804 7.89183078,20.9664623 8.55625958,21.4112169 C9.12704715,21.79329 9.79684494,22 10.5,22 C12.4329966,22 14,20.4329966 14,18.5 C14,16.5670034 12.4329966,15 10.5,15 C9.79684494,15 9.12704715,15.20671 8.55625958,15.5887831 C7.89183078,16.0335377 7,15.5573196 7,14.7577745 L7,13 Z" id="Combined-Shape" fill="#334966" transform="translate(11.500000, 18.500000) rotate(-90.000000) translate(-11.500000, -18.500000) "></path>
                <path d="M14,25 L14,20 L16,20 L16,25 L16,25.2072715 C16.4823861,25.0708219 16.9861982,25 17.5,25 C20.5375661,25 23,27.4624339 23,30.5 C23,33.5375661 20.5375661,36 17.5,36 C16.9861982,36 16.4823861,35.9291781 16,35.7927285 L16,36 L16,43 L14,43 L14,36 L14,34.2422255 C14,33.4426804 14.8918308,32.9664623 15.5562596,33.4112169 C16.1270472,33.79329 16.7968449,34 17.5,34 C19.4329966,34 21,32.4329966 21,30.5 C21,28.5670034 19.4329966,27 17.5,27 C16.7968449,27 16.1270472,27.20671 15.5562596,27.5887831 C14.8918308,28.0335377 14,27.5573196 14,26.7577745 L14,25 Z" id="Combined-Shape" fill="#334966" transform="translate(18.500000, 31.500000) rotate(-180.000000) translate(-18.500000, -31.500000) "></path>
            </g>
        </g>
    </g>
</svg>