<?xml version="1.0" encoding="UTF-8"?>
<svg width="830px" height="173px" viewBox="0 0 830 173" version="1.1" xmlns="http://www.w3.org/2000/svg" xmlns:xlink="http://www.w3.org/1999/xlink">
    <!-- Generator: Sketch 54.1 (76490) - https://sketchapp.com -->
    <title>自动构建</title>
    <desc>Created with Sketch.</desc>
    <defs>
        <rect id="path-1" x="0" y="0" width="190" height="50"></rect>
        <filter x="-1.1%" y="-2.0%" width="102.1%" height="108.0%" filterUnits="objectBoundingBox" id="filter-2">
            <feOffset dx="0" dy="1" in="SourceAlpha" result="shadowOffsetOuter1"></feOffset>
            <feGaussianBlur stdDeviation="0.5" in="shadowOffsetOuter1" result="shadowBlurOuter1"></feGaussianBlur>
            <feColorMatrix values="0 0 0 0 0   0 0 0 0 0   0 0 0 0 0  0 0 0 0.35 0" type="matrix" in="shadowBlurOuter1"></feColorMatrix>
        </filter>
        <rect id="path-3" x="0" y="0" width="190" height="50"></rect>
        <filter x="-1.1%" y="-2.0%" width="102.1%" height="108.0%" filterUnits="objectBoundingBox" id="filter-4">
            <feOffset dx="0" dy="1" in="SourceAlpha" result="shadowOffsetOuter1"></feOffset>
            <feGaussianBlur stdDeviation="0.5" in="shadowOffsetOuter1" result="shadowBlurOuter1"></feGaussianBlur>
            <feColorMatrix values="0 0 0 0 0   0 0 0 0 0   0 0 0 0 0  0 0 0 0.35 0" type="matrix" in="shadowBlurOuter1"></feColorMatrix>
        </filter>
        <path d="M61.32,19.808 C62.426,19.808 63.364,20.102 64.12,20.69 C64.876,21.278 65.324,22.076 65.464,23.07 L64.358,23.07 C64.218,22.342 63.854,21.782 63.294,21.39 C62.748,21.012 62.09,20.83 61.306,20.83 C60.144,20.83 59.248,21.236 58.618,22.048 C58.03,22.804 57.736,23.798 57.736,25.044 C57.736,26.29 58.016,27.284 58.604,28.012 C59.22,28.782 60.102,29.174 61.278,29.174 C62.076,29.174 62.748,28.964 63.308,28.544 C63.896,28.096 64.302,27.438 64.498,26.57 L65.604,26.57 C65.38,27.732 64.862,28.642 64.036,29.286 C63.266,29.888 62.342,30.196 61.278,30.196 C59.724,30.196 58.534,29.678 57.708,28.656 C56.952,27.732 56.588,26.528 56.588,25.044 C56.588,23.56 56.966,22.342 57.736,21.39 C58.576,20.326 59.78,19.808 61.32,19.808 Z M71.568,19.808 C73.052,19.808 74.242,20.298 75.11,21.306 C75.922,22.258 76.342,23.49 76.342,25.016 C76.342,26.528 75.922,27.746 75.11,28.698 C74.242,29.692 73.052,30.196 71.554,30.196 C70.056,30.196 68.88,29.692 68.012,28.698 C67.186,27.746 66.78,26.514 66.78,25.016 C66.78,23.504 67.186,22.272 68.012,21.32 C68.88,20.312 70.056,19.808 71.568,19.808 Z M71.568,20.83 C70.42,20.83 69.51,21.222 68.852,22.02 C68.236,22.776 67.928,23.77 67.928,25.016 C67.928,26.248 68.236,27.242 68.852,27.998 C69.496,28.782 70.406,29.174 71.554,29.174 C72.702,29.174 73.612,28.782 74.256,28.026 C74.872,27.27 75.194,26.276 75.194,25.016 C75.194,23.742 74.872,22.734 74.256,21.978 C73.612,21.208 72.716,20.83 71.568,20.83 Z M77.938,20.004 L81.522,20.004 C83.104,20.004 84.294,20.452 85.106,21.376 C85.848,22.216 86.226,23.434 86.226,25.002 C86.226,26.542 85.82,27.76 85.022,28.628 C84.182,29.538 82.978,30 81.41,30 L77.938,30 L77.938,20.004 Z M79.086,20.998 L79.086,29.006 L81.214,29.006 C82.516,29.006 83.496,28.656 84.154,27.97 C84.77,27.298 85.092,26.304 85.092,25.002 C85.092,23.658 84.798,22.664 84.224,22.02 C83.608,21.334 82.656,20.998 81.34,20.998 L79.086,20.998 Z M87.906,20.004 L89.04,20.004 L89.04,30 L87.906,30 L87.906,20.004 Z M91.14,20.004 L92.344,20.004 L98,28.138 L98.042,28.138 L98.042,20.004 L99.19,20.004 L99.19,30 L98.014,30 L92.33,21.782 L92.288,21.782 L92.288,30 L91.14,30 L91.14,20.004 Z M105.476,19.808 C106.722,19.808 107.716,20.102 108.458,20.718 C109.158,21.292 109.592,22.118 109.774,23.21 L108.626,23.21 C108.472,22.454 108.136,21.88 107.618,21.474 C107.072,21.04 106.358,20.83 105.476,20.83 C104.384,20.83 103.53,21.208 102.886,21.978 C102.242,22.734 101.934,23.756 101.934,25.044 C101.934,26.304 102.242,27.298 102.858,28.026 C103.516,28.796 104.496,29.188 105.798,29.188 C106.344,29.188 106.862,29.104 107.366,28.964 C107.856,28.824 108.276,28.628 108.626,28.404 L108.626,25.856 L105.49,25.856 L105.49,24.862 L109.76,24.862 L109.76,28.95 C109.284,29.342 108.696,29.636 108.01,29.86 C107.282,30.084 106.512,30.196 105.686,30.196 C104.104,30.196 102.872,29.692 102.004,28.684 C101.192,27.746 100.786,26.528 100.786,25.044 C100.786,23.56 101.178,22.342 101.99,21.376 C102.844,20.326 104.006,19.808 105.476,19.808 Z M124.138,18.604 L125.132,18.604 L125.132,20.06 L128.002,20.06 L128.002,20.97 L125.132,20.97 L125.132,22.608 L128.534,22.608 L128.534,23.56 L120.89,23.56 L120.89,22.608 L124.138,22.608 L124.138,20.97 L121.394,20.97 L121.394,20.06 L124.138,20.06 L124.138,18.604 Z M120.666,25.352 L125.818,25.352 L125.818,24.274 L126.826,24.274 L126.826,25.352 L128.548,25.352 L128.548,26.29 L126.826,26.29 L126.826,30.056 C126.826,30.882 126.406,31.302 125.594,31.302 L123.732,31.302 L123.508,30.322 C124.11,30.35 124.684,30.378 125.23,30.378 C125.622,30.378 125.818,30.182 125.818,29.804 L125.818,26.29 L120.666,26.29 L120.666,25.352 Z M117.67,31.274 L116.438,31.274 L116.228,30.308 C116.606,30.35 116.97,30.378 117.32,30.378 C117.684,30.378 117.88,30.168 117.88,29.762 L117.88,26.444 C117.334,26.64 116.788,26.822 116.256,26.99 L116.004,25.982 C116.648,25.828 117.264,25.646 117.88,25.422 L117.88,22.216 L116.158,22.216 L116.158,21.25 L117.88,21.25 L117.88,18.744 L118.874,18.744 L118.874,21.25 L120.33,21.25 L120.33,22.216 L118.874,22.216 L118.874,25.03 C119.378,24.806 119.868,24.568 120.344,24.316 L120.344,25.352 C119.868,25.604 119.378,25.828 118.874,26.038 L118.874,30.014 C118.874,30.854 118.468,31.274 117.67,31.274 Z M122.122,26.948 C122.85,27.802 123.41,28.558 123.802,29.202 L123.004,29.762 C122.584,29.062 122.024,28.292 121.31,27.438 L122.122,26.948 Z M134.372,28.446 L134.372,29.398 C133.154,29.902 131.782,30.308 130.242,30.616 L130.116,29.636 C131.74,29.342 133.154,28.95 134.372,28.446 Z M132.244,18.562 L133.196,18.94 C132.552,20.676 131.894,22.076 131.222,23.126 C131.796,23.056 132.37,22.958 132.958,22.846 C133.21,22.384 133.462,21.894 133.728,21.376 L134.652,21.726 C133.434,23.966 132.426,25.576 131.642,26.528 C132.482,26.36 133.336,26.122 134.176,25.814 L134.176,26.724 C132.86,27.172 131.614,27.466 130.424,27.634 L130.144,26.71 C130.326,26.654 130.48,26.556 130.606,26.43 C131.11,25.898 131.726,25.016 132.454,23.77 C131.74,23.896 131.012,24.008 130.284,24.12 L130.032,23.196 C130.186,23.14 130.326,23.014 130.452,22.832 C131.138,21.586 131.74,20.158 132.244,18.562 Z M135.366,19.458 L138.18,19.458 L138.18,18.534 L139.16,18.534 L139.16,19.458 L142.17,19.458 L142.17,20.368 L139.16,20.368 L139.16,21.642 L142.366,21.642 L142.366,22.272 C142.17,23.168 141.904,24.05 141.568,24.918 L140.602,24.638 C140.896,24.022 141.134,23.322 141.33,22.566 L134.932,22.566 L134.932,21.642 L138.18,21.642 L138.18,20.368 L135.366,20.368 L135.366,19.458 Z M134.624,26.682 L138.502,26.682 C138.544,26.374 138.572,26.052 138.586,25.73 L138.586,23.14 L139.566,23.14 L139.566,25.73 C139.552,26.066 139.524,26.374 139.496,26.682 L142.758,26.682 L142.758,27.606 L139.314,27.606 C139.244,27.858 139.174,28.082 139.09,28.306 C140.462,28.95 141.722,29.706 142.856,30.574 L142.296,31.442 C141.12,30.462 139.93,29.664 138.726,29.048 C138.642,29.188 138.544,29.314 138.46,29.44 C137.774,30.294 136.668,30.966 135.128,31.456 L134.568,30.574 C136.066,30.126 137.102,29.524 137.69,28.768 C137.942,28.418 138.138,28.026 138.278,27.606 L134.624,27.606 L134.624,26.682 Z M135.17,24.4 C135.94,24.764 136.64,25.226 137.284,25.758 L136.808,26.5 C136.122,25.912 135.422,25.436 134.694,25.086 L135.17,24.4 Z M136.248,22.958 C136.962,23.294 137.62,23.728 138.222,24.232 L137.746,24.946 C137.102,24.386 136.458,23.938 135.8,23.63 L136.248,22.958 Z M148.61,27.998 L144.298,27.998 L144.298,27.088 L149.87,27.088 L149.87,26.36 L150.878,26.36 L150.878,27.088 L156.366,27.088 L156.366,27.998 L152.124,27.998 C153.076,28.894 154.546,29.608 156.52,30.14 L156.086,31.036 C153.762,30.252 152.124,29.244 151.144,27.998 L150.878,27.998 L150.878,31.414 L149.87,31.414 L149.87,27.998 L149.604,27.998 C148.722,29.188 147.084,30.224 144.69,31.092 L144.158,30.224 C146.314,29.566 147.798,28.824 148.61,27.998 Z M145.67,22.048 C145.306,22.468 144.914,22.86 144.494,23.252 L143.92,22.468 C145.166,21.348 146.09,20.032 146.706,18.52 L147.644,18.758 C147.504,19.136 147.336,19.5 147.168,19.85 L150.192,19.85 C149.996,19.416 149.8,19.01 149.576,18.646 L150.612,18.478 C150.808,18.884 150.99,19.346 151.172,19.85 L155.694,19.85 L155.694,20.69 L151.242,20.69 L151.242,21.642 L155.176,21.642 L155.176,22.426 L151.242,22.426 L151.242,23.35 L155.176,23.35 L155.176,24.134 L151.242,24.134 L151.242,25.128 L155.96,25.128 L155.96,25.982 L145.67,25.982 L145.67,22.048 Z M150.248,25.128 L150.248,24.134 L146.608,24.134 L146.608,25.128 L150.248,25.128 Z M150.248,23.35 L150.248,22.426 L146.608,22.426 L146.608,23.35 L150.248,23.35 Z M150.248,21.642 L150.248,20.69 L146.678,20.69 L146.608,20.802 L146.608,21.642 L150.248,21.642 Z M167.748,18.52 C168.42,19.024 168.994,19.542 169.47,20.06 L168.826,20.704 L170.534,20.704 L170.534,21.67 L166.222,21.67 C166.32,23.406 166.502,24.778 166.754,25.786 C166.838,26.136 166.936,26.458 167.034,26.766 C167.734,25.646 168.294,24.33 168.728,22.832 L169.638,23.224 C169.078,25.072 168.35,26.64 167.454,27.9 C167.65,28.348 167.86,28.74 168.084,29.062 C168.546,29.734 168.924,30.07 169.204,30.07 C169.456,30.056 169.694,29.328 169.904,27.886 L170.814,28.39 C170.478,30.252 170.002,31.19 169.372,31.19 C168.784,31.19 168.154,30.77 167.482,29.93 C167.23,29.594 166.992,29.202 166.782,28.768 C165.802,29.916 164.654,30.77 163.338,31.358 L162.778,30.518 C164.178,29.888 165.368,28.964 166.334,27.746 C166.138,27.228 165.956,26.668 165.802,26.066 C165.494,24.89 165.298,23.42 165.186,21.67 L160.384,21.67 L160.384,23.994 L163.814,23.994 C163.786,26.36 163.674,27.886 163.492,28.572 C163.31,29.174 162.876,29.482 162.176,29.51 C161.84,29.51 161.434,29.482 160.986,29.454 L160.678,28.544 C161.224,28.572 161.686,28.586 162.064,28.586 C162.372,28.572 162.568,28.362 162.652,27.97 C162.736,27.494 162.778,26.486 162.806,24.946 L160.384,24.946 L160.384,25.366 C160.328,27.872 159.768,29.888 158.732,31.4 L157.962,30.714 C158.858,29.426 159.32,27.648 159.362,25.366 L159.362,20.704 L165.144,20.704 C165.116,20.004 165.102,19.29 165.102,18.534 L166.138,18.534 C166.138,19.318 166.152,20.032 166.18,20.704 L168.798,20.704 C168.378,20.2 167.818,19.682 167.104,19.136 L167.748,18.52 Z" id="path-5"></path>
        <rect id="path-6" x="0.5" y="-1.42108547e-14" width="150" height="50"></rect>
        <filter x="-1.3%" y="-2.0%" width="102.7%" height="108.0%" filterUnits="objectBoundingBox" id="filter-7">
            <feOffset dx="0" dy="1" in="SourceAlpha" result="shadowOffsetOuter1"></feOffset>
            <feGaussianBlur stdDeviation="0.5" in="shadowOffsetOuter1" result="shadowBlurOuter1"></feGaussianBlur>
            <feColorMatrix values="0 0 0 0 0   0 0 0 0 0   0 0 0 0 0  0 0 0 0.35 0" type="matrix" in="shadowBlurOuter1"></feColorMatrix>
        </filter>
        <path d="M58.684,21.278 C58.432,21.838 58.138,22.3 57.802,22.664 L56.99,22.076 C57.69,21.32 58.138,20.284 58.334,18.954 L59.286,19.108 C59.216,19.556 59.132,19.962 59.02,20.34 L60.644,20.34 L60.644,18.604 L61.652,18.604 L61.652,20.34 L64.27,20.34 L64.27,21.278 L61.652,21.278 L61.652,23.084 L64.676,23.084 L64.676,24.022 L61.652,24.022 L61.652,25.492 L64.382,25.492 L64.382,29.188 C64.382,30.014 63.962,30.434 63.122,30.434 L62.38,30.434 L62.128,29.482 L62.814,29.524 C63.206,29.524 63.416,29.342 63.416,28.978 L63.416,26.43 L61.652,26.43 L61.652,31.414 L60.644,31.414 L60.644,26.43 L58.866,26.43 L58.866,30.532 L57.886,30.532 L57.886,25.492 L60.644,25.492 L60.644,24.022 L57.256,24.022 L57.256,23.084 L60.644,23.084 L60.644,21.278 L58.684,21.278 Z M65.502,19.864 L66.482,19.864 L66.482,28.516 L65.502,28.516 L65.502,19.864 Z M68.064,31.274 L66.006,31.274 L65.782,30.308 C66.454,30.35 67.098,30.378 67.714,30.378 C68.134,30.378 68.358,30.154 68.358,29.706 L68.358,18.604 L69.352,18.604 L69.352,29.958 C69.352,30.826 68.918,31.274 68.064,31.274 Z M73.636,19.15 L81.35,19.15 L81.35,23.728 L73.636,23.728 L73.636,19.15 Z M80.342,22.776 L80.342,20.102 L74.644,20.102 L74.644,22.776 L80.342,22.776 Z M76.702,25.114 L76.702,31.19 L75.722,31.19 L75.722,30.476 L72.768,30.476 L72.768,31.19 L71.774,31.19 L71.774,25.114 L76.702,25.114 Z M72.768,29.524 L75.722,29.524 L75.722,26.08 L72.768,26.08 L72.768,29.524 Z M83.212,25.114 L83.212,31.19 L82.204,31.19 L82.204,30.476 L79.138,30.476 L79.138,31.19 L78.144,31.19 L78.144,25.114 L83.212,25.114 Z M79.138,29.524 L82.204,29.524 L82.204,26.08 L79.138,26.08 L79.138,29.524 Z M88.56,18.716 L89.54,18.716 L89.54,22.426 L90.366,22.426 L90.366,23.42 L87.062,23.42 L87.062,24.134 C87.062,24.568 87.048,24.988 87.034,25.394 L89.722,25.394 L89.722,31.344 L88.728,31.344 L88.728,26.36 L86.978,26.36 C86.81,28.46 86.432,30.056 85.83,31.176 L85.074,30.504 C85.718,29.174 86.054,27.046 86.068,24.134 L86.068,18.996 L87.062,18.996 L87.062,22.426 L88.56,22.426 L88.56,18.716 Z M92.088,23.574 L92.088,25.114 C92.032,27.718 91.57,29.79 90.73,31.33 L90.03,30.588 C90.73,29.272 91.108,27.438 91.164,25.114 L91.164,19.556 C93.362,19.528 95.35,19.234 97.114,18.674 L97.618,19.584 C95.966,20.06 94.118,20.34 92.088,20.424 L92.088,22.622 L97.268,22.622 L97.268,23.476 C96.946,25.422 96.33,27.06 95.434,28.39 C96.12,29.314 96.96,30.014 97.954,30.518 L97.45,31.4 C96.4,30.854 95.518,30.126 94.818,29.202 C94.048,30.098 93.124,30.84 92.06,31.414 L91.57,30.518 C92.62,29.944 93.502,29.216 94.23,28.348 C93.432,27.046 92.872,25.45 92.55,23.574 L92.088,23.574 Z M93.46,23.574 C93.768,25.1 94.23,26.402 94.846,27.494 C95.546,26.374 96.036,25.058 96.288,23.574 L93.46,23.574 Z M99.508,21.138 L104.982,21.138 L104.982,18.604 L106.018,18.604 L106.018,21.138 L111.478,21.138 L111.478,22.104 L106.914,22.104 C107.852,24.33 109.532,26.318 111.94,28.068 L111.254,28.936 C108.79,26.92 107.082,24.638 106.13,22.104 L106.018,22.104 L106.018,27.564 L109.014,27.564 L109.014,28.53 L106.018,28.53 L106.018,31.4 L104.982,31.4 L104.982,28.53 L102.098,28.53 L102.098,27.564 L104.982,27.564 L104.982,22.104 L104.884,22.104 C103.848,24.946 102.084,27.284 99.592,29.118 L99.018,28.18 C101.37,26.612 103.05,24.582 104.086,22.104 L99.508,22.104 L99.508,21.138 Z M119.976,18.45 C120.228,18.856 120.466,19.304 120.69,19.808 L125.73,19.808 L125.73,20.788 L115.356,20.788 L115.356,23.98 C115.3,27.074 114.838,29.552 113.942,31.4 L113.116,30.658 C113.886,29.062 114.292,26.836 114.32,23.98 L114.32,19.808 L119.584,19.808 C119.36,19.374 119.108,18.982 118.856,18.646 L119.976,18.45 Z M119.066,21.18 L120.032,21.404 C119.906,21.796 119.78,22.16 119.654,22.524 L125.114,22.524 L125.114,23.406 L119.304,23.406 C118.912,24.302 118.492,25.1 118.044,25.8 L120.662,25.8 L120.662,24.106 L121.67,24.106 L121.67,25.8 L124.792,25.8 L124.792,26.71 L121.67,26.71 L121.67,28.278 L125.856,28.278 L125.856,29.202 L121.67,29.202 L121.67,31.414 L120.662,31.414 L120.662,29.202 L115.608,29.202 L115.608,28.278 L120.662,28.278 L120.662,26.71 L116.994,26.71 L116.784,25.842 C117.316,25.184 117.806,24.372 118.24,23.406 L116.126,23.406 L116.126,22.524 L118.604,22.524 C118.758,22.09 118.912,21.642 119.066,21.18 Z" id="path-8"></path>
        <path d="M214.032,10.624 L214.032,20.188 L213.156,20.188 L213.156,19.444 L206.844,19.444 L206.844,20.188 L205.968,20.188 L205.968,10.624 L208.536,10.624 C208.8,10.144 209.004,9.664 209.124,9.16 L210,9.28 C209.868,9.76 209.676,10.216 209.436,10.624 L214.032,10.624 Z M206.844,18.616 L213.156,18.616 L213.156,16.66 L206.844,16.66 L206.844,18.616 Z M206.844,15.868 L213.156,15.868 L213.156,14.032 L206.844,14.032 L206.844,15.868 Z M206.844,13.24 L213.156,13.24 L213.156,11.452 L206.844,11.452 L206.844,13.24 Z M217.08,10.036 L221.424,10.036 L221.424,10.864 L217.08,10.864 L217.08,10.036 Z M216.612,13.276 L221.88,13.276 L221.88,14.116 L219.108,14.116 C218.628,15.94 218.208,17.236 217.848,18.028 C218.796,17.836 219.744,17.56 220.68,17.212 C220.368,16.564 220.068,15.976 219.756,15.424 L220.488,15.064 C221.064,16.096 221.604,17.212 222.108,18.424 L221.364,18.808 C221.244,18.496 221.124,18.208 221.004,17.932 C219.732,18.388 218.34,18.748 216.852,19.012 L216.648,18.196 C216.732,18.172 216.792,18.148 216.84,18.124 C217.2,17.632 217.68,16.3 218.28,14.116 L216.612,14.116 L216.612,13.276 Z M223.68,9.232 L224.544,9.232 L224.544,11.656 L227.16,11.656 C227.16,15.412 227.1,17.728 226.992,18.616 C226.872,19.588 226.284,20.08 225.252,20.08 C225.048,20.08 224.7,20.068 224.196,20.044 L224.004,19.276 C224.436,19.3 224.82,19.324 225.144,19.324 C225.732,19.324 226.08,18.976 226.176,18.292 C226.248,17.656 226.296,15.724 226.32,12.496 L224.544,12.496 L224.544,12.64 C224.508,16.096 223.668,18.628 222.036,20.224 L221.388,19.66 C222.888,18.208 223.656,15.868 223.68,12.64 L223.68,12.496 L222.06,12.496 L222.06,11.656 L223.68,11.656 L223.68,9.232 Z M234.372,11.296 L236.292,11.296 L236.292,9.244 L237.12,9.244 L237.12,11.296 L239.064,11.296 L239.064,16.12 L237.12,16.12 L237.12,18.748 C237.528,18.664 237.936,18.58 238.332,18.484 C238.176,17.98 238.008,17.488 237.828,17.02 L238.536,16.792 C238.896,17.704 239.22,18.748 239.508,19.924 L238.764,20.104 C238.692,19.792 238.608,19.48 238.536,19.192 C237.216,19.516 235.812,19.792 234.312,20.008 L234.108,19.204 C234.852,19.12 235.584,19.024 236.292,18.904 L236.292,16.12 L234.372,16.12 L234.372,11.296 Z M238.26,15.328 L238.26,12.088 L237.084,12.088 L237.084,15.328 L238.26,15.328 Z M236.328,15.328 L236.328,12.088 L235.176,12.088 L235.176,15.328 L236.328,15.328 Z M229.86,15.028 L229.86,16.312 C229.86,16.408 229.848,16.492 229.848,16.588 L231,16.588 L231,15.028 L229.86,15.028 Z M229.812,17.32 C229.716,18.46 229.452,19.42 229.044,20.2 L228.42,19.636 C228.864,18.772 229.092,17.68 229.104,16.36 L229.104,12.652 C229.044,12.712 228.984,12.772 228.936,12.832 L228.42,12.208 C229.188,11.428 229.836,10.408 230.34,9.148 L231.12,9.328 C231.024,9.592 230.916,9.856 230.796,10.096 L233.004,10.096 L233.004,10.696 C232.74,11.224 232.488,11.68 232.224,12.052 L233.664,12.052 L233.664,19.24 C233.664,19.816 233.388,20.104 232.848,20.104 L232.224,20.104 L232.032,19.408 C232.248,19.42 232.44,19.432 232.62,19.432 C232.824,19.432 232.932,19.276 232.932,18.976 L232.932,17.32 L231.72,17.32 L231.72,19.984 L231,19.984 L231,17.32 L229.812,17.32 Z M232.932,16.588 L232.932,15.028 L231.72,15.028 L231.72,16.588 L232.932,16.588 Z M232.932,14.284 L232.932,12.796 L231.72,12.796 L231.72,14.284 L232.932,14.284 Z M229.62,12.052 L231.336,12.052 C231.588,11.692 231.84,11.272 232.092,10.804 L230.436,10.804 C230.184,11.26 229.908,11.668 229.62,12.052 Z M231,12.796 L229.86,12.796 L229.86,14.284 L231,14.284 L231,12.796 Z M241.392,12.88 L242.34,9.544 L243.192,9.688 L242.508,12.052 L244.608,12.052 C244.848,11.116 245.04,10.144 245.184,9.112 L246.06,9.22 C245.904,10.228 245.712,11.164 245.496,12.052 L251.112,12.052 L251.112,12.88 L245.268,12.88 C245.124,13.36 244.98,13.816 244.812,14.248 L249.72,14.248 L249.72,14.992 C249.396,16.024 248.748,16.96 247.764,17.8 C248.736,18.376 249.924,18.904 251.316,19.384 L250.872,20.188 C249.336,19.624 248.064,19.012 247.056,18.352 C246.072,19.048 244.848,19.672 243.396,20.236 L242.94,19.432 C244.284,18.94 245.4,18.4 246.3,17.812 C245.364,17.092 244.704,16.312 244.308,15.472 C243.432,17.368 242.304,18.868 240.936,19.984 L240.492,19.192 C242.244,17.656 243.528,15.556 244.368,12.88 L241.392,12.88 Z M244.956,15.04 C245.364,15.856 246.048,16.612 247.008,17.308 C247.896,16.612 248.508,15.856 248.844,15.04 L244.956,15.04 Z M248.076,9.208 C248.94,9.868 249.648,10.528 250.224,11.188 L249.612,11.8 C249.108,11.164 248.4,10.492 247.5,9.772 L248.076,9.208 Z" id="path-9"></path>
        <path d="M386.032,73.624 L386.032,83.188 L385.156,83.188 L385.156,82.444 L378.844,82.444 L378.844,83.188 L377.968,83.188 L377.968,73.624 L380.536,73.624 C380.8,73.144 381.004,72.664 381.124,72.16 L382,72.28 C381.868,72.76 381.676,73.216 381.436,73.624 L386.032,73.624 Z M378.844,81.616 L385.156,81.616 L385.156,79.66 L378.844,79.66 L378.844,81.616 Z M378.844,78.868 L385.156,78.868 L385.156,77.032 L378.844,77.032 L378.844,78.868 Z M378.844,76.24 L385.156,76.24 L385.156,74.452 L378.844,74.452 L378.844,76.24 Z M389.08,73.036 L393.424,73.036 L393.424,73.864 L389.08,73.864 L389.08,73.036 Z M388.612,76.276 L393.88,76.276 L393.88,77.116 L391.108,77.116 C390.628,78.94 390.208,80.236 389.848,81.028 C390.796,80.836 391.744,80.56 392.68,80.212 C392.368,79.564 392.068,78.976 391.756,78.424 L392.488,78.064 C393.064,79.096 393.604,80.212 394.108,81.424 L393.364,81.808 C393.244,81.496 393.124,81.208 393.004,80.932 C391.732,81.388 390.34,81.748 388.852,82.012 L388.648,81.196 C388.732,81.172 388.792,81.148 388.84,81.124 C389.2,80.632 389.68,79.3 390.28,77.116 L388.612,77.116 L388.612,76.276 Z M395.68,72.232 L396.544,72.232 L396.544,74.656 L399.16,74.656 C399.16,78.412 399.1,80.728 398.992,81.616 C398.872,82.588 398.284,83.08 397.252,83.08 C397.048,83.08 396.7,83.068 396.196,83.044 L396.004,82.276 C396.436,82.3 396.82,82.324 397.144,82.324 C397.732,82.324 398.08,81.976 398.176,81.292 C398.248,80.656 398.296,78.724 398.32,75.496 L396.544,75.496 L396.544,75.64 C396.508,79.096 395.668,81.628 394.036,83.224 L393.388,82.66 C394.888,81.208 395.656,78.868 395.68,75.64 L395.68,75.496 L394.06,75.496 L394.06,74.656 L395.68,74.656 L395.68,72.232 Z M406.3,72.184 L407.152,72.292 C407.056,72.868 406.936,73.42 406.792,73.948 L411.004,73.948 C411.004,78.1 410.932,80.668 410.812,81.628 C410.668,82.6 410.104,83.092 409.108,83.092 C408.856,83.092 408.424,83.08 407.812,83.056 L407.62,82.276 C408.148,82.3 408.592,82.324 408.976,82.324 C409.552,82.324 409.9,82 410.008,81.376 C410.116,80.68 410.176,78.472 410.188,74.752 L406.54,74.752 C406.204,75.676 405.796,76.504 405.316,77.224 L404.764,76.504 C405.508,75.328 406.024,73.888 406.3,72.184 Z M405.316,80.608 L405.16,79.9 C405.496,79.72 406.084,78.436 406.936,76.036 L407.692,76.312 C407.104,77.908 406.636,79.024 406.288,79.66 C407.008,79.516 407.668,79.372 408.244,79.228 C408.076,78.724 407.896,78.268 407.728,77.86 L408.448,77.608 C408.856,78.544 409.216,79.552 409.528,80.62 L408.772,80.956 C408.664,80.572 408.556,80.212 408.46,79.876 C407.548,80.128 406.492,80.368 405.316,80.608 Z M403.276,77.08 L403.276,83.152 L402.424,83.152 L402.424,77.044 C402.016,78.268 401.488,79.372 400.816,80.368 L400.444,79.432 C401.344,78.244 401.98,76.888 402.364,75.376 L400.684,75.376 L400.684,74.548 L402.424,74.548 L402.424,72.208 L403.276,72.208 L403.276,74.548 L404.752,74.548 L404.752,75.376 L403.276,75.376 L403.276,76.132 C403.828,76.708 404.392,77.344 404.968,78.052 L404.488,78.784 C404.02,78.088 403.612,77.512 403.276,77.08 Z M422.488,77.116 L419.92,77.116 L419.92,78.076 L422.728,78.076 L422.728,78.784 L419.92,78.784 L419.92,79.78 L423.076,79.78 L423.076,80.512 L419.92,80.512 L419.92,81.7 L419.08,81.7 L419.08,80.512 L416.356,80.512 L416.356,79.78 L419.08,79.78 L419.08,78.784 L416.728,78.784 L416.728,78.076 L419.08,78.076 L419.08,77.116 L416.98,77.116 L416.98,76.396 L419.08,76.396 L419.08,75.436 L416.392,75.436 L416.392,74.716 L419.08,74.716 L419.08,73.768 L416.98,73.768 L416.98,73.048 L419.08,73.048 L419.08,72.172 L419.92,72.172 L419.92,73.048 L422.488,73.048 L422.488,74.716 L423.292,74.716 L423.292,75.436 L422.488,75.436 L422.488,77.116 Z M419.92,73.768 L419.92,74.716 L421.648,74.716 L421.648,73.768 L419.92,73.768 Z M419.92,75.436 L419.92,76.396 L421.648,76.396 L421.648,75.436 L419.92,75.436 Z M419.356,82.132 C420.676,82.132 422.032,82.108 423.424,82.072 L423.28,82.9 L419.728,82.9 C417.568,82.9 416.02,82.588 415.084,81.964 C414.928,81.844 414.796,81.736 414.676,81.616 C414.292,82.18 413.812,82.672 413.26,83.092 L412.696,82.36 C413.26,81.952 413.728,81.472 414.112,80.92 C413.644,80.248 413.26,79.396 412.972,78.364 L413.692,78.1 C413.932,78.952 414.22,79.648 414.532,80.176 C414.94,79.324 415.18,78.328 415.252,77.188 L413.032,77.188 L413.032,76.516 C413.728,75.628 414.376,74.668 414.952,73.636 L412.984,73.636 L412.984,72.82 L415.924,72.82 L415.924,73.528 C415.324,74.632 414.724,75.58 414.148,76.396 L416.032,76.396 L416.032,76.912 C415.984,78.496 415.66,79.84 415.084,80.944 C415.276,81.148 415.468,81.304 415.672,81.424 C416.488,81.88 417.724,82.108 419.356,82.132 Z" id="path-10"></path>
    </defs>
    <g id="介绍页配图设计" stroke="none" stroke-width="1" fill="none" fill-rule="evenodd">
        <g id="应用场景复制（SVG转曲）" transform="translate(-1211.000000, -210.000000)">
            <g id="流程1-copy-2复制" transform="translate(1211.000000, 211.000000)">
                <g id="ce55d0acbf344d121aee68366e8d65ee-copy-2" transform="translate(177.000000, 0.000000)">
                    <g id="XMLID_25_">
                        <g id="分组-copy">
                            <g id="XMLID_134_">
                                <use fill="black" fill-opacity="1" filter="url(#filter-2)" xlink:href="#path-1"></use>
                                <use fill="#FFFFFF" fill-rule="evenodd" xlink:href="#path-1"></use>
                            </g>
                            <path d="M51.61,18.842 C52.604,19.57 53.444,20.284 54.13,20.984 L53.444,21.67 C52.828,20.998 51.988,20.27 50.924,19.5 L51.61,18.842 Z M51.358,22.272 C52.282,22.972 53.066,23.658 53.696,24.344 L53.01,25.03 C52.45,24.372 51.68,23.672 50.672,22.93 L51.358,22.272 Z M52.982,26.052 L53.85,26.388 C53.234,28.152 52.534,29.804 51.764,31.358 L50.826,30.938 C51.666,29.342 52.38,27.718 52.982,26.052 Z M56.734,21.348 L58.722,21.348 C58.89,20.914 59.016,20.48 59.114,20.032 L55.74,20.032 L55.74,24.106 C55.684,27.13 55.152,29.566 54.144,31.386 L53.388,30.714 C54.256,29.132 54.718,26.934 54.76,24.106 L54.76,19.122 L63.16,19.122 L63.16,20.032 L60.066,20.032 C59.968,20.494 59.842,20.928 59.688,21.348 L62.418,21.348 L62.418,26.262 L60.094,26.262 L60.094,30.224 C60.094,30.98 59.716,31.358 58.988,31.358 L57.812,31.358 L57.602,30.448 C57.966,30.49 58.316,30.518 58.652,30.518 C58.96,30.518 59.128,30.336 59.128,29.986 L59.128,26.262 L56.734,26.262 L56.734,21.348 Z M61.522,25.45 L61.522,24.19 L57.63,24.19 L57.63,25.45 L61.522,25.45 Z M57.63,23.434 L61.522,23.434 L61.522,22.146 L57.63,22.146 L57.63,23.434 Z M57.084,27.256 L57.98,27.452 C57.616,28.684 57.112,29.762 56.468,30.672 L55.656,30.168 C56.314,29.286 56.79,28.32 57.084,27.256 Z M61.844,27.186 C62.418,28.152 62.922,29.188 63.342,30.28 L62.488,30.658 C62.04,29.454 61.536,28.404 61.004,27.48 L61.844,27.186 Z M69.292,23.476 L69.292,30.672 L68.368,30.672 L68.368,29.874 L66.856,29.874 L66.856,30.938 L65.918,30.938 L65.918,25.24 C65.638,25.744 65.33,26.234 64.994,26.71 L64.49,25.898 C65.554,24.274 66.254,22.412 66.59,20.326 L64.882,20.326 L64.882,19.346 L69.656,19.346 L69.656,20.326 L67.542,20.326 C67.346,21.446 67.08,22.496 66.716,23.476 L69.292,23.476 Z M66.856,28.964 L68.368,28.964 L68.368,24.4 L66.856,24.4 L66.856,28.964 Z M71.182,21.082 L72.176,21.152 L71.56,24.68 L74.528,24.68 L75.228,20.102 L70.3,20.102 L70.3,19.15 L76.32,19.15 L75.55,24.68 L77.034,24.68 C77.034,28.068 76.838,30.014 76.474,30.546 C76.082,31.05 75.284,31.316 74.052,31.316 C73.66,31.316 73.24,31.302 72.792,31.274 L72.512,30.294 C73.128,30.35 73.562,30.378 73.814,30.378 C74.892,30.378 75.536,30.14 75.746,29.692 C75.97,29.216 76.082,27.858 76.082,25.618 L70.426,25.618 L71.182,21.082 Z M69.992,27.396 L75.116,27.396 L75.116,28.348 L69.992,28.348 L69.992,27.396 Z M84.636,18.618 L85.364,18.618 C87.1,20.718 89.116,22.37 91.412,23.574 L90.908,24.47 C88.598,23.21 86.624,21.572 85,19.528 C83.488,21.46 81.514,23.126 79.05,24.54 L78.546,23.63 C80.982,22.286 83.012,20.62 84.636,18.618 Z M87.422,24.512 L82.508,24.512 L82.508,29.44 C82.508,29.958 82.76,30.224 83.292,30.224 L87.548,30.224 C88.346,30.224 88.836,30.084 89.032,29.804 C89.228,29.496 89.382,28.88 89.48,27.956 L90.418,28.264 C90.278,29.636 90.04,30.462 89.69,30.77 C89.354,31.022 88.738,31.162 87.814,31.162 L82.886,31.162 C81.948,31.162 81.486,30.7 81.486,29.776 L81.486,23.588 L88.43,23.588 L88.43,26.822 C88.416,27.69 88.01,28.152 87.226,28.194 C86.526,28.194 85.854,28.18 85.21,28.152 L84.944,27.186 C85.644,27.242 86.274,27.27 86.862,27.27 C87.226,27.27 87.422,27.018 87.422,26.514 L87.422,24.512 Z M99.476,18.45 C99.728,18.856 99.966,19.304 100.19,19.808 L105.23,19.808 L105.23,20.788 L94.856,20.788 L94.856,23.98 C94.8,27.074 94.338,29.552 93.442,31.4 L92.616,30.658 C93.386,29.062 93.792,26.836 93.82,23.98 L93.82,19.808 L99.084,19.808 C98.86,19.374 98.608,18.982 98.356,18.646 L99.476,18.45 Z M98.566,21.18 L99.532,21.404 C99.406,21.796 99.28,22.16 99.154,22.524 L104.614,22.524 L104.614,23.406 L98.804,23.406 C98.412,24.302 97.992,25.1 97.544,25.8 L100.162,25.8 L100.162,24.106 L101.17,24.106 L101.17,25.8 L104.292,25.8 L104.292,26.71 L101.17,26.71 L101.17,28.278 L105.356,28.278 L105.356,29.202 L101.17,29.202 L101.17,31.414 L100.162,31.414 L100.162,29.202 L95.108,29.202 L95.108,28.278 L100.162,28.278 L100.162,26.71 L96.494,26.71 L96.284,25.842 C96.816,25.184 97.306,24.372 97.74,23.406 L95.626,23.406 L95.626,22.524 L98.104,22.524 C98.258,22.09 98.412,21.642 98.566,21.18 Z M113.532,18.422 L114.512,18.422 C113.938,19.346 113.49,20.312 113.182,21.32 C112.762,22.552 112.566,23.756 112.566,24.96 C112.566,26.15 112.762,27.368 113.182,28.6 C113.49,29.594 113.938,30.56 114.512,31.498 L113.532,31.498 C112.916,30.588 112.44,29.622 112.09,28.614 C111.67,27.41 111.474,26.192 111.474,24.974 C111.474,23.728 111.67,22.51 112.09,21.306 C112.44,20.284 112.916,19.318 113.532,18.422 Z M120.602,19.808 C121.848,19.808 122.842,20.102 123.584,20.718 C124.284,21.292 124.718,22.118 124.9,23.21 L123.752,23.21 C123.598,22.454 123.262,21.88 122.744,21.474 C122.198,21.04 121.484,20.83 120.602,20.83 C119.51,20.83 118.656,21.208 118.012,21.978 C117.368,22.734 117.06,23.756 117.06,25.044 C117.06,26.304 117.368,27.298 117.984,28.026 C118.642,28.796 119.622,29.188 120.924,29.188 C121.47,29.188 121.988,29.104 122.492,28.964 C122.982,28.824 123.402,28.628 123.752,28.404 L123.752,25.856 L120.616,25.856 L120.616,24.862 L124.886,24.862 L124.886,28.95 C124.41,29.342 123.822,29.636 123.136,29.86 C122.408,30.084 121.638,30.196 120.812,30.196 C119.23,30.196 117.998,29.692 117.13,28.684 C116.318,27.746 115.912,26.528 115.912,25.044 C115.912,23.56 116.304,22.342 117.116,21.376 C117.97,20.326 119.132,19.808 120.602,19.808 Z M127.588,20.032 C127.826,20.032 128.022,20.102 128.19,20.27 C128.358,20.41 128.442,20.606 128.442,20.858 C128.442,21.096 128.358,21.292 128.19,21.46 C128.022,21.614 127.826,21.698 127.588,21.698 C127.35,21.698 127.154,21.614 126.986,21.46 C126.818,21.292 126.748,21.096 126.748,20.858 C126.748,20.606 126.818,20.41 126.986,20.27 C127.154,20.102 127.35,20.032 127.588,20.032 Z M127.028,22.762 L128.148,22.762 L128.148,30 L127.028,30 L127.028,22.762 Z M132.18,20.424 L132.18,22.762 L133.972,22.762 L133.972,23.7 L132.18,23.7 L132.18,28.306 C132.18,28.572 132.222,28.768 132.334,28.88 C132.432,28.992 132.614,29.062 132.866,29.062 L133.79,29.062 L133.79,30 L132.698,30 C132.11,30 131.676,29.846 131.424,29.538 C131.186,29.258 131.074,28.852 131.074,28.306 L131.074,23.7 L129.618,23.7 L129.618,22.762 L131.074,22.762 L131.074,20.886 L132.18,20.424 Z M139.838,18.52 L140.832,18.52 L135.876,31.4 L134.868,31.4 L139.838,18.52 Z M145.718,19.808 C146.838,19.808 147.734,20.06 148.378,20.578 C149.05,21.11 149.428,21.908 149.526,22.958 L148.392,22.958 C148.266,22.23 147.986,21.698 147.552,21.348 C147.104,20.984 146.474,20.816 145.662,20.816 C144.92,20.816 144.346,20.928 143.926,21.18 C143.45,21.46 143.212,21.88 143.212,22.454 C143.212,22.958 143.492,23.364 144.066,23.672 C144.318,23.812 144.934,24.022 145.9,24.302 C147.216,24.694 148.084,25.016 148.504,25.268 C149.33,25.772 149.75,26.472 149.75,27.382 C149.75,28.25 149.4,28.95 148.7,29.454 C148,29.944 147.062,30.196 145.872,30.196 C144.696,30.196 143.772,29.944 143.1,29.44 C142.316,28.838 141.882,27.928 141.798,26.696 L142.932,26.696 C143.03,27.564 143.338,28.208 143.842,28.614 C144.304,28.978 144.976,29.174 145.872,29.174 C146.684,29.174 147.356,29.02 147.86,28.712 C148.364,28.404 148.616,27.984 148.616,27.452 C148.616,26.822 148.28,26.332 147.622,25.982 C147.342,25.814 146.628,25.576 145.508,25.254 C144.304,24.89 143.534,24.61 143.212,24.442 C142.442,23.994 142.064,23.35 142.064,22.51 C142.064,21.642 142.428,20.956 143.17,20.48 C143.828,20.032 144.682,19.808 145.718,19.808 Z M150.268,20.004 L151.528,20.004 L154.65,28.754 L154.692,28.754 L157.814,20.004 L159.074,20.004 L155.378,30 L153.964,30 L150.268,20.004 Z M160.152,20.004 L161.356,20.004 L167.012,28.138 L167.054,28.138 L167.054,20.004 L168.202,20.004 L168.202,30 L167.026,30 L161.342,21.782 L161.3,21.782 L161.3,30 L160.152,30 L160.152,20.004 Z M170.022,18.422 L171.002,18.422 C171.604,19.318 172.08,20.284 172.444,21.306 C172.85,22.51 173.06,23.728 173.06,24.974 C173.06,26.192 172.85,27.41 172.444,28.614 C172.08,29.622 171.604,30.588 171.002,31.498 L170.022,31.498 C170.582,30.56 171.03,29.594 171.352,28.6 C171.758,27.368 171.968,26.15 171.968,24.96 C171.968,23.756 171.758,22.552 171.352,21.32 C171.03,20.312 170.582,19.346 170.022,18.422 Z" id="源码仓库(Git/SVN)" fill="#444444" fill-rule="nonzero"></path>
                            <g id="Group-22" transform="translate(20.000000, 15.000000)" stroke="#00A4FF" stroke-width="2">
                                <ellipse id="Oval" cx="10" cy="4" rx="9" ry="4"></ellipse>
                                <path d="M1,4 L1,18" id="Line-5"></path>
                                <path d="M19,4 L19,18" id="Line-5-Copy"></path>
                                <path d="M1,18 C1,20.209139 5.02943725,22 10,22 L10,22 C14.9705627,22 19,20.209139 19,18" id="Path"></path>
                            </g>
                        </g>
                    </g>
                    <g id="分组-13" transform="translate(274.000000, 0.000000)">
                        <g id="XMLID_110_">
                            <use fill="black" fill-opacity="1" filter="url(#filter-4)" xlink:href="#path-3"></use>
                            <use fill="#FFFFFF" fill-rule="evenodd" xlink:href="#path-3"></use>
                        </g>
                        <g id="CODING持续集成" fill-rule="nonzero">
                            <use fill="#000000" xlink:href="#path-5"></use>
                            <use fill="#444444" xlink:href="#path-5"></use>
                        </g>
                        <path d="M36.5146628,28.5365029 L33,25 L36.5146628,21.4646015 C37.4538123,20.5199114 38.7019795,20 40.0293255,20 C41.3566716,20 42.6048387,20.5199114 43.5439883,21.4646015 C44.4831378,22.4092916 45,23.6648224 45,25 C45,26.3351759 44.4831378,27.5907066 43.5439883,28.5353967 C42.6048387,29.4800868 41.3566716,29.998892 40.0293255,29.9999982 C38.7019795,30.0011044 37.4538123,29.4800868 36.5146628,28.5365029 Z M25.9706745,20 C27.2980205,20 28.5461877,20.5199115 29.4853372,21.4646018 L33,25 L29.4853372,28.5353982 C28.5461877,29.4800885 27.2980205,30 25.9706745,30 C24.6433284,30 23.3951613,29.4800885 22.4560117,28.5353982 C21.5168622,27.590708 21,26.335177 21,25 C21,23.664823 21.5168622,22.409292 22.4560117,21.4646018 C23.3951613,20.5199115 24.6433284,20 25.9706745,20 Z" id="Combined-Shape" stroke="#00A4FF" stroke-width="2"></path>
                    </g>
                    <g id="分组-13复制" transform="translate(294.000000, 120.000000)">
                        <g id="XMLID_110_">
                            <use fill="black" fill-opacity="1" filter="url(#filter-7)" xlink:href="#path-6"></use>
                            <use fill="#FFFFFF" fill-rule="evenodd" xlink:href="#path-6"></use>
                        </g>
                        <g id="制品版本库" fill-rule="nonzero">
                            <use fill="#000000" xlink:href="#path-8"></use>
                            <use fill="#444444" xlink:href="#path-8"></use>
                        </g>
                        <g id="Group-19" transform="translate(21.500000, 13.000000)" stroke="#00A4FF" stroke-width="2">
                            <rect id="Rectangle" x="7" y="0" width="10" height="10"></rect>
                            <rect id="Rectangle-Copy-2" x="0" y="14" width="10" height="10"></rect>
                            <rect id="Rectangle-Copy-3" x="14" y="14" width="10" height="10"></rect>
                        </g>
                    </g>
                    <g id="XMLID_54_-Copy-2" transform="translate(364.000000, 50.000000)">
                        <polygon id="XMLID_56_" fill="#878787" points="0 55 5.5 60 11 55"></polygon>
                        <path d="M5.5,0 L5.5,55" id="XMLID_55_" stroke="#878787"></path>
                    </g>
                    <g id="分组-30-copy" transform="translate(191.000000, 21.000000)" fill="#878787">
                        <polygon id="XMLID_22_" transform="translate(70.500000, 4.500000) rotate(-360.000000) translate(-70.500000, -4.500000) " points="68 9 73 4.5 68 -2.84217094e-14"></polygon>
                        <rect id="XMLID_10_" transform="translate(36.000000, 4.500000) rotate(-180.000000) translate(-36.000000, -4.500000) " x="0" y="4" width="72" height="1"></rect>
                    </g>
                    <g id="自动触发" fill-rule="nonzero" fill="#878787">
                        <use xlink:href="#path-9"></use>
                        <use xlink:href="#path-9"></use>
                    </g>
                    <g id="自动构建" fill-rule="nonzero" fill="#878787">
                        <use xlink:href="#path-10"></use>
                        <use xlink:href="#path-10"></use>
                    </g>
                </g>
            </g>
        </g>
    </g>
</svg>