<?xml version="1.0" encoding="UTF-8"?>
<svg width="32px" height="32px" viewBox="0 0 32 32" version="1.1" xmlns="http://www.w3.org/2000/svg" xmlns:xlink="http://www.w3.org/1999/xlink">
    <!-- Generator: Sketch 52.6 (67491) - http://www.bohemiancoding.com/sketch -->
    <title>腾讯计费（米大师）-32px</title>
    <desc>Created with Sketch.</desc>
    <g id="腾讯计费（米大师）-32px" stroke="none" stroke-width="1" fill="none" fill-rule="evenodd">
        <rect id="Rectangle-Copy" fill="#444444" opacity="0" x="0" y="0" width="32" height="32"></rect>
        <g id="Group" transform="translate(5.000000, 1.000000)" fill="#7C848E" fill-rule="nonzero">
            <g id="_编组_">
                <path d="M22,24 L22,0 L0,0 L0,30 L22,30 L22,28 L2,28 L2,2 L20,2 L20,24 L22,24 Z M13,24 L13,22 L9,22 L9,24 L13,24 Z" id="Shape"></path>
            </g>
            <g id="移动服务-腾讯计费-16px" transform="translate(3.000000, 3.000000)" stroke="#7C848E">
                <path d="M6.711,1.708 C6.968,1.708 7.223,1.777 7.447,1.907 L13.553,5.431 C13.895,5.628 14.139,5.947 14.241,6.327 C14.253,6.372 14.262,6.417 14.27,6.463 C14.013,6.27 13.757,6.121 13.505,6.017 C13.241,5.909 12.969,5.853 12.696,5.853 C11.616,5.853 10.885,6.685 10.477,7.254 L10.372,7.198 C10.113,7.063 9.846,6.923 9.699,6.827 C9.278,6.548 8.697,6.382 8.146,6.382 C7.171,6.382 6.346,6.865 5.82,7.743 C5.445,8.371 4.491,9.948 3.683,11.283 L2.447,10.569 C1.741,10.162 1.499,9.256 1.906,8.551 L5.43,2.446 C5.693,1.991 6.184,1.708 6.711,1.708 Z M9.353,10.232 C9.405,10.232 9.553,10.253 9.818,10.444 C10.087,10.638 10.247,10.749 10.377,10.839 L10.562,10.967 C10.842,11.167 11.159,11.274 11.477,11.274 C11.634,11.274 11.786,11.25 11.928,11.201 L10.57,13.555 C10.307,14.011 9.816,14.294 9.29,14.294 C9.033,14.294 8.778,14.225 8.553,14.095 L7.268,13.354 C8.104,11.881 8.726,10.85 8.975,10.527 C9.057,10.416 9.219,10.232 9.353,10.232 Z M6.711,0.708 C5.855,0.708 5.023,1.152 4.564,1.947 L1.04,8.051 C0.356,9.236 0.762,10.751 1.947,11.435 L4.032,12.639 C4.898,11.208 6.22,9.024 6.679,8.256 C7.078,7.588 7.642,7.381 8.146,7.381 C8.563,7.381 8.94,7.522 9.151,7.661 C9.414,7.834 9.861,8.054 10.24,8.258 C10.397,8.343 10.548,8.383 10.678,8.383 C10.833,8.383 10.958,8.326 11.029,8.225 C11.272,7.875 11.861,6.853 12.699,6.853 C12.835,6.853 12.978,6.88 13.127,6.941 C13.748,7.197 14.342,7.844 14.733,8.341 L14.961,7.947 C15.646,6.762 15.239,5.247 14.054,4.563 L7.948,1.04 C7.558,0.815 7.132,0.708 6.711,0.708 Z M13.271,8.43 C13.118,8.43 12.981,8.452 12.875,8.505 C12.48,8.7 12.105,9.614 11.882,10.005 C11.775,10.192 11.63,10.274 11.477,10.274 C11.367,10.274 11.251,10.231 11.143,10.154 C10.959,10.023 10.81,9.927 10.405,9.634 C10.036,9.367 9.685,9.233 9.354,9.233 C8.927,9.233 8.534,9.459 8.182,9.917 C7.727,10.508 6.532,12.614 5.911,13.725 L8.054,14.961 C8.444,15.187 8.87,15.294 9.291,15.294 C10.146,15.294 10.979,14.85 11.437,14.055 L14.527,8.703 C14.137,8.566 13.652,8.43 13.271,8.43 Z" id="Shape"></path>
            </g>
        </g>
    </g>
</svg>