<?xml version="1.0" encoding="utf-8"?>
<!-- Generator: Adobe Illustrator 19.0.0, SVG Export Plug-In . SVG Version: 6.00 Build 0)  -->
<svg version="1.1" id="图层_1" xmlns="http://www.w3.org/2000/svg" xmlns:xlink="http://www.w3.org/1999/xlink" x="0px" y="0px"
	 width="830px" height="592.667px" viewBox="0 0 830 592.667" style="enable-background:new 0 0 830 592.667;" xml:space="preserve"
	>
<style type="text/css">
	.st0{fill:#CEE3FF;}
	.st1{fill:#BABABA;}
	.st2{enable-background:new    ;}
	.st3{fill:#444444;}
	.st4{opacity:0.6;enable-background:new    ;}
	.st5{fill:#BBBBBB;}
	.st6{fill:#FFFFFF;}
	.st7{fill:#E5E5E5;}
	.st8{fill:#878787;}
	.st9{fill:#00A4FF;}
	.st10{fill-rule:evenodd;clip-rule:evenodd;fill:#878787;}
	.st11{fill:#999999;}
</style>
<g id="XMLID_122_">
	<path id="XMLID_822_" class="st0" d="M95,357.515h640v116.998H95V357.515"/>
</g>
<g id="XMLID_37_">
	<path id="XMLID_844_" class="st1" d="M139.5,323h-5.002v-1l5.002,0.002V323z M129.498,323h-5v-1h5V323z M119.498,323h-5v-1h5V323z
		 M109.498,323h-5v-1h5V323z M99.498,323h-5v-1h5V323z M89.498,323h-5v-1h5V323z M79.498,323h-5v-1h5V323z M69.498,323h-5v-1h5V323z
		 M59.498,323h-5v-1h5V323z M49.498,323h-5v-1h5V323z M39.498,323h-5v-1h5V323z M29.498,323h-5v-1h5V323z M19.498,323h-5v-1h5V323z
		 M9.498,323h-5v-1h5V323z M2.502,319.996h-1v-5h1V319.996z M139.5,317.002h-1v-5h1V317.002z M2.502,309.996h-1v-5h1V309.996z
		 M139.5,307.002h-1v-5h1V307.002z M2.502,299.996h-1v-5h1V299.996z M139.5,297.002h-1v-5h1V297.002z M2.502,289.996h-1v-5h1
		V289.996z M139.5,287.002h-1v-5h1V287.002z M2.502,279.996h-1v-5h1V279.996z M139.5,277.002h-1v-5h1V277.002z M2.502,269.996h-1v-5
		h1V269.996z M139.5,267.002h-1v-5h1V267.002z M2.502,259.996h-1v-5h1V259.996z M139.5,257.002h-1v-5h1V257.002z M2.502,249.996h-1
		v-5h1V249.996z M139.5,247.002h-1v-5h1V247.002z M2.502,239.996h-1v-5h1V239.996z M139.5,237.002h-1v-5h1V237.002z M2.502,229.996
		h-1v-5h1V229.996z M139.5,227.002h-1v-5h1V227.002z M2.502,219.996h-1v-5h1V219.996z M139.5,217.002h-1v-5h1V217.002z
		 M2.502,209.996h-1v-5h1V209.996z M139.5,207.002h-1v-5h1V207.002z M2.502,199.996h-1v-5h1V199.996z M139.5,197.002h-1v-5h1
		V197.002z M2.502,189.996h-1v-5h1V189.996z M139.5,187.002h-1v-5h1V187.002z M2.502,179.996h-1v-5h1V179.996z M139.5,177.002h-1v-5
		h1V177.002z M2.502,169.996h-1v-5h1V169.996z M139.5,167.002h-1v-5h1V167.002z M2.502,159.996h-1v-5h1V159.996z M139.5,157.002h-1
		v-5h1V157.002z M2.502,149.996h-1v-5h1V149.996z M139.5,147.002h-1v-5h1V147.002z M2.502,139.996h-1v-5h1V139.996z M139.5,137.002
		h-1v-5h1V137.002z M2.502,129.996h-1v-5h1V129.996z M139.5,127.002h-1v-5h1V127.002z M2.502,119.996h-1v-5h1V119.996z
		 M139.5,117.002h-1v-5h1V117.002z M2.502,109.996h-1v-5h1V109.996z M139.5,107.002h-1v-5h1V107.002z M2.502,99.996h-1v-5h1V99.996z
		 M139.5,97.002h-1v-5h1V97.002z M2.502,89.996h-1V89h0.5v-0.5h5v1h-4.5V89.996z M137.002,89.5h-5v-1h5V89.5z M127.002,89.5h-5v-1h5
		V89.5z M117.002,89.5h-5v-1h5V89.5z M107.002,89.5h-5v-1h5V89.5z M97.002,89.5h-5v-1h5V89.5z M87.002,89.5h-5v-1h5V89.5z
		 M77.002,89.5h-5v-1h5V89.5z M67.002,89.5h-5v-1h5V89.5z M57.002,89.5h-5v-1h5V89.5z M47.002,89.5h-5v-1h5V89.5z M37.002,89.5h-5
		v-1h5V89.5z M27.002,89.5h-5v-1h5V89.5z M17.002,89.5h-5v-1h5V89.5z"/>
</g>
<g id="XMLID_36_" class="st2">
	<path id="XMLID_823_" class="st3" d="M19.545,99.856c1.783,1.961,3.827,3.5,6.132,4.62l-0.546,0.967
		c-2.296-1.177-4.28-2.739-5.95-4.69c-1.512,1.82-3.514,3.388-6.006,4.704l-0.532-0.966c2.445-1.223,4.503-2.768,6.174-4.635H19.545
		z M19.069,103.552h1.022v3.15h3.822v0.966h-3.822v3.444h4.83v0.979H13.273v-0.979h2.114v-5.544h0.994v5.544h2.688V103.552z"/>
	<path id="XMLID_826_" class="st3" d="M31.151,99.955h1.022v11.13h1.988v-11.13h1.022v11.13h4.2v0.979H26.979v-0.979h4.172V99.955z
		 M28.183,102.474c0.737,1.923,1.391,4.093,1.96,6.511l-0.924,0.237c-0.504-2.239-1.134-4.396-1.89-6.468L28.183,102.474z
		 M39.005,102.754c-0.56,2.445-1.265,4.578-2.114,6.398l-0.91-0.322c0.821-1.661,1.531-3.771,2.128-6.328L39.005,102.754z"/>
	<path id="XMLID_830_" class="st3" d="M42.925,101.705c-0.355,0.579-0.728,1.083-1.12,1.512l-0.882-0.56
		c0.831-0.859,1.446-1.829,1.848-2.912l0.966,0.21l-0.35,0.868h3.752v0.882h-2.352c0.336,0.448,0.593,0.85,0.77,1.204l-0.924,0.35
		c-0.243-0.513-0.546-1.031-0.91-1.554H42.925z M53.117,103.651v2.533h-0.98v-1.666h-9.912v1.666h-0.98v-2.533h5.544
		c-0.14-0.337-0.285-0.64-0.434-0.91l0.98-0.168l-0.084-0.057c0.663-0.83,1.148-1.75,1.456-2.758l0.966,0.21
		c-0.112,0.336-0.215,0.621-0.308,0.854h4.046v0.882h-2.492c0.308,0.411,0.542,0.774,0.7,1.092l-0.896,0.336
		c-0.252-0.504-0.546-0.979-0.882-1.428h-0.882c-0.224,0.43-0.509,0.877-0.854,1.344l-0.756-0.462
		c0.177,0.373,0.327,0.728,0.448,1.064H53.117z M51.185,105.344v2.744h-6.986v0.966h7.63v3.599h-0.994v-0.589h-6.636v0.574h-1.008
		v-7.294H51.185z M44.199,107.277h6.006v-1.12h-6.006V107.277z M44.199,111.168h6.636v-1.302h-6.636V111.168z"/>
	<path id="XMLID_836_" class="st3" d="M55.091,104.995h1.498v-3.304h-1.694v-0.952h4.41v0.952h-1.68v3.304h1.526v0.979h-1.526v3.137
		c0.56-0.196,1.12-0.42,1.68-0.673v0.967c-1.279,0.56-2.726,1.045-4.34,1.456l-0.252-0.967c0.588-0.121,1.213-0.271,1.876-0.447
		v-3.473h-1.498V104.995z M60.131,100.361h6.734v6.481h-2.856v1.708h3.08v0.938h-3.08v1.777h3.528v0.967h-8.064v-0.967h3.528v-1.777
		h-3.108v-0.938h3.108v-1.708h-2.87V100.361z M61.097,103.174h1.904v-1.918h-1.904V103.174z M63.001,105.947v-1.904h-1.904v1.904
		H63.001z M64.009,101.256v1.918h1.89v-1.918H64.009z M65.899,105.947v-1.904h-1.89v1.904H65.899z"/>
</g>
<g id="XMLID_40_" class="st4">
	<rect id="XMLID_817_" x="25.486" y="125.997" class="st5" width="91.997" height="50"/>
</g>
<g id="XMLID_39_">
	<rect id="XMLID_818_" x="23.486" y="123.997" class="st6" width="91.997" height="50"/>
	<path id="XMLID_819_" class="st7" d="M115.983,174.497H22.986v-51h92.997V174.497z M23.986,173.497h90.997v-49H23.986V173.497z"/>
</g>
<g id="XMLID_42_" class="st4">
	<rect id="XMLID_812_" x="25.486" y="186.998" class="st5" width="91.997" height="50"/>
</g>
<g id="XMLID_41_">
	<rect id="XMLID_813_" x="23.486" y="184.998" class="st6" width="91.997" height="50"/>
	<path id="XMLID_814_" class="st7" d="M115.983,235.498H22.986v-51h92.997V235.498z M23.986,234.498h90.997v-49H23.986V234.498z"/>
</g>
<g id="XMLID_45_" class="st4">
	<rect id="XMLID_807_" x="25.486" y="246.999" class="st5" width="91.997" height="50"/>
</g>
<g id="XMLID_44_">
	<rect id="XMLID_808_" x="23.486" y="244.998" class="st6" width="91.997" height="50"/>
	<path id="XMLID_809_" class="st7" d="M115.983,295.498H22.986v-51h92.997V295.498z M23.986,294.498h90.997v-49H23.986V294.498z"/>
</g>
<g id="XMLID_96_">
	<g id="XMLID_99_">
		<circle class="st8" cx="56.485" cy="269.998" r="2"/>
	</g>
	<g id="XMLID_98_">
		<circle class="st8" cx="71.485" cy="269.998" r="2"/>
	</g>
	<g id="XMLID_97_">
		<circle class="st8" cx="86.485" cy="269.998" r="2"/>
	</g>
</g>
<g id="XMLID_71_">
	<g id="XMLID_74_">
		<circle class="st8" cx="246.485" cy="532.015" r="2"/>
	</g>
	<g id="XMLID_73_">
		<circle class="st8" cx="261.485" cy="532.015" r="2"/>
	</g>
	<g id="XMLID_72_">
		<circle class="st8" cx="276.485" cy="532.015" r="2"/>
	</g>
</g>
<g id="XMLID_22_" class="st4">
	<rect id="XMLID_806_" x="193.497" y="181.75" class="st5" width="142" height="50"/>
</g>
<g id="XMLID_21_" class="st4">
	<rect id="XMLID_805_" x="345.498" y="181.75" class="st5" width="142" height="50"/>
</g>
<g id="XMLID_20_" class="st4">
	<rect id="XMLID_602_" x="497.499" y="181.75" class="st5" width="142" height="50"/>
</g>
<g id="XMLID_19_">
	<rect id="XMLID_801_" x="191.497" y="179.75" class="st6" width="142" height="50"/>
	<path id="XMLID_802_" class="st7" d="M333.997,230.25h-143v-51h143V230.25z M191.997,229.25h141v-49h-141V229.25z"/>
</g>
<g id="XMLID_18_" class="st2">
	<path id="XMLID_772_" class="st3" d="M237.087,200.23c-0.336,0.513-0.714,0.961-1.134,1.344l-0.602-0.756
		c0.663-0.607,1.227-1.475,1.694-2.604l0.91,0.196c-0.122,0.336-0.248,0.644-0.378,0.924h4.004v0.896h-2.114
		c-0.028,0.494-0.07,0.947-0.126,1.357h2.632v0.924h-2.842c-0.065,0.215-0.103,0.346-0.112,0.393
		c1.064,0.531,1.96,1.078,2.688,1.638l-0.714,0.714c-0.579-0.522-1.344-1.063-2.296-1.624c-0.56,0.98-1.536,1.792-2.926,2.437
		l-0.672-0.826c1.447-0.645,2.403-1.442,2.87-2.395l0.14-0.336h-2.814v-0.924h3.066c0.075-0.364,0.126-0.816,0.154-1.357H237.087z
		 M246.173,205.396v5.781h-1.022v-0.63h-6.93v0.63h-1.008v-5.781H246.173z M238.221,207.566h6.93v-1.274h-6.93V207.566z
		 M238.221,209.652h6.93v-1.204h-6.93V209.652z M242.561,199.264h4.606v5.124h-4.606V199.264z M246.187,203.492v-3.332h-2.646v3.332
		H246.187z"/>
	<path id="XMLID_779_" class="st3" d="M254.195,199.306c0.868,1.177,1.521,2.161,1.96,2.954l-0.826,0.588
		c-0.149-0.308-0.317-0.615-0.504-0.924c-1.447,0.233-3.234,0.406-5.362,0.519l-0.28-0.841c0.168-0.046,0.322-0.135,0.462-0.266
		c0.887-0.914,1.605-1.923,2.156-3.024l0.952,0.295c-0.653,1.26-1.363,2.239-2.128,2.939c1.241-0.074,2.487-0.191,3.738-0.35
		c-0.317-0.485-0.635-0.952-0.952-1.4L254.195,199.306z M250.975,208.504v2.674h-0.966v-7.896h5.236v6.565
		c0,0.821-0.392,1.232-1.176,1.232h-1.162l-0.252-0.952l1.078,0.042c0.355,0,0.532-0.178,0.532-0.532v-1.134H250.975z
		 M254.265,205.508v-1.344h-3.29v1.344H254.265z M250.975,206.348v1.303h3.29v-1.303H250.975z M257.807,204.388
		c-0.868,0-1.302-0.466-1.302-1.399v-4.677h0.994v1.862c1.512-0.233,2.772-0.48,3.78-0.742l0.322,0.883
		c-1.232,0.308-2.6,0.569-4.102,0.783v1.681c0,0.467,0.196,0.699,0.588,0.699h1.834c0.28,0,0.476-0.069,0.588-0.21
		c0.13-0.177,0.224-0.694,0.28-1.554l0.938,0.294c-0.093,1.111-0.271,1.797-0.532,2.059c-0.234,0.215-0.593,0.321-1.078,0.321
		H257.807z M257.527,209.526c0,0.336,0.182,0.504,0.546,0.504h1.834c0.28,0,0.476-0.07,0.588-0.21
		c0.14-0.178,0.238-0.705,0.294-1.582l0.924,0.294c-0.093,1.129-0.271,1.824-0.532,2.086c-0.233,0.215-0.598,0.322-1.092,0.322
		h-2.296c-0.84,0-1.26-0.401-1.26-1.204v-4.774h0.994v1.722c1.409-0.14,2.66-0.378,3.752-0.714l0.322,0.896
		c-1.213,0.354-2.571,0.602-4.074,0.742V209.526z"/>
	<path id="XMLID_786_" class="st3" d="M265.899,198.536c-0.14,0.532-0.271,0.984-0.392,1.357h2.562v0.952h-2.898
		c-0.392,0.999-0.831,1.876-1.316,2.632l-0.826-0.518c0.868-1.4,1.498-2.94,1.89-4.62L265.899,198.536z M264.499,202.722h3.332v0.91
		h-1.456v1.765h1.932v0.938h-1.932v3.29c0.625-0.224,1.265-0.527,1.918-0.91l0.168,0.896c-0.896,0.494-1.918,0.896-3.066,1.204
		l-0.42-0.868c0.28-0.104,0.42-0.243,0.42-0.42v-3.192h-1.932v-0.938h1.932v-1.765h-0.896V202.722z M269.497,198.886
		c0.429,0.682,0.854,1.466,1.274,2.353l-0.812,0.405c-0.411-0.904-0.849-1.688-1.316-2.352L269.497,198.886z M271.667,198.354h0.994
		v3.879h2.632v7.476c0,0.905-0.406,1.358-1.218,1.358h-1.4l-0.266-0.967l1.344,0.042c0.354,0,0.532-0.219,0.532-0.657v-1.471h-4.27
		v3.095h-1.008v-8.876h2.66V198.354z M274.285,204.738v-1.555h-4.27v1.555H274.285z M270.015,205.606v1.54h4.27v-1.54H270.015z
		 M275.657,199.152c-0.346,0.84-0.793,1.671-1.344,2.491l-0.826-0.42c0.541-0.821,0.984-1.643,1.33-2.464L275.657,199.152z"/>
	<path id="XMLID_794_" class="st3" d="M279.031,201.952c-0.504,0.588-1.055,1.139-1.652,1.651l-0.308-0.993
		c1.456-1.335,2.487-2.786,3.094-4.354l0.98,0.196c-0.177,0.438-0.364,0.85-0.56,1.231h3.472c-0.206-0.466-0.434-0.896-0.686-1.287
		l1.036-0.169c0.214,0.421,0.424,0.906,0.63,1.456h4.074v0.841h-4.256v1.021h3.64v0.798h-3.64v0.98h3.668v0.798h-3.668v1.05h4.48
		v0.854h-10.304V201.952z M288.439,207.118v4.088h-0.994v-0.687h-7.42v0.687h-0.994v-4.088H288.439z M283.861,201.546v-1.021h-3.766
		l-0.098,0.153v0.868H283.861z M283.861,203.324v-0.98h-3.864v0.98H283.861z M283.861,205.172v-1.05h-3.864v1.05H283.861z
		 M280.025,209.624h7.42v-1.638h-7.42V209.624z"/>
</g>
<g id="XMLID_17_">
	<rect id="XMLID_768_" x="343.498" y="179.75" class="st6" width="142" height="50"/>
	<path id="XMLID_769_" class="st7" d="M485.998,230.25h-143v-51h143V230.25z M343.998,229.25h141v-49h-141V229.25z"/>
</g>
<g id="XMLID_16_" class="st2">
	<path id="XMLID_749_" class="st3" d="M389.087,200.23c-0.336,0.513-0.714,0.961-1.134,1.344l-0.602-0.756
		c0.663-0.607,1.227-1.475,1.694-2.604l0.91,0.196c-0.122,0.336-0.248,0.644-0.378,0.924h4.004v0.896h-2.114
		c-0.028,0.494-0.07,0.947-0.126,1.357h2.632v0.924h-2.842c-0.065,0.215-0.103,0.346-0.112,0.393
		c1.064,0.531,1.96,1.078,2.688,1.638l-0.714,0.714c-0.579-0.522-1.344-1.063-2.296-1.624c-0.56,0.98-1.536,1.792-2.926,2.437
		l-0.672-0.826c1.447-0.645,2.403-1.442,2.87-2.395l0.14-0.336h-2.814v-0.924h3.066c0.075-0.364,0.126-0.816,0.154-1.357H389.087z
		 M398.173,205.396v5.781h-1.022v-0.63h-6.93v0.63h-1.008v-5.781H398.173z M390.222,207.566h6.93v-1.274h-6.93V207.566z
		 M390.222,209.652h6.93v-1.204h-6.93V209.652z M394.562,199.264h4.606v5.124h-4.606V199.264z M398.188,203.492v-3.332h-2.646v3.332
		H398.188z"/>
	<path id="XMLID_756_" class="st3" d="M406.196,199.306c0.868,1.177,1.521,2.161,1.96,2.954l-0.826,0.588
		c-0.149-0.308-0.317-0.615-0.504-0.924c-1.447,0.233-3.234,0.406-5.362,0.519l-0.28-0.841c0.168-0.046,0.322-0.135,0.462-0.266
		c0.887-0.914,1.605-1.923,2.156-3.024l0.952,0.295c-0.653,1.26-1.363,2.239-2.128,2.939c1.241-0.074,2.487-0.191,3.738-0.35
		c-0.317-0.485-0.635-0.952-0.952-1.4L406.196,199.306z M402.976,208.504v2.674h-0.966v-7.896h5.236v6.565
		c0,0.821-0.392,1.232-1.176,1.232h-1.162l-0.252-0.952l1.078,0.042c0.355,0,0.532-0.178,0.532-0.532v-1.134H402.976z
		 M406.266,205.508v-1.344h-3.29v1.344H406.266z M402.976,206.348v1.303h3.29v-1.303H402.976z M409.808,204.388
		c-0.868,0-1.302-0.466-1.302-1.399v-4.677h0.994v1.862c1.512-0.233,2.772-0.48,3.78-0.742l0.322,0.883
		c-1.232,0.308-2.6,0.569-4.102,0.783v1.681c0,0.467,0.196,0.699,0.588,0.699h1.834c0.28,0,0.476-0.069,0.588-0.21
		c0.13-0.177,0.224-0.694,0.28-1.554l0.938,0.294c-0.093,1.111-0.271,1.797-0.532,2.059c-0.234,0.215-0.593,0.321-1.078,0.321
		H409.808z M409.527,209.526c0,0.336,0.182,0.504,0.546,0.504h1.834c0.28,0,0.476-0.07,0.588-0.21
		c0.14-0.178,0.238-0.705,0.294-1.582l0.924,0.294c-0.093,1.129-0.271,1.824-0.532,2.086c-0.233,0.215-0.598,0.322-1.092,0.322
		h-2.296c-0.84,0-1.26-0.401-1.26-1.204v-4.774h0.994v1.722c1.409-0.14,2.66-0.378,3.752-0.714l0.322,0.896
		c-1.213,0.354-2.571,0.602-4.074,0.742V209.526z"/>
	<path id="XMLID_763_" class="st3" d="M417.872,201.896c-0.561,1.269-1.274,2.338-2.143,3.205l-0.644-0.825
		c1.326-1.382,2.217-3.239,2.674-5.572l1.022,0.182c-0.149,0.719-0.332,1.396-0.547,2.03h2.996v-2.492h1.022v2.492h4.605v0.98
		h-4.605v3.233h4.326v0.98h-4.326v3.556h5.502v1.008h-12.334v-1.008h5.81v-3.556h-4.115v-0.98h4.115v-3.233H417.872z"/>
	<path id="XMLID_765_" class="st3" d="M435.525,198.13c0.233,0.504,0.453,1.046,0.658,1.624h4.914v0.966h-2.436
		c-0.178,0.775-0.406,1.484-0.687,2.128h3.416v0.967H431.34v2.071c-0.056,2.193-0.564,3.943-1.526,5.25l-0.77-0.686
		c0.821-1.102,1.246-2.623,1.273-4.564v-3.038h2.87l-0.588-2.128h-2.562v-0.966h5.124c-0.178-0.476-0.406-0.956-0.687-1.442
		L435.525,198.13z M434.182,202.848h2.828c0.326-0.699,0.556-1.409,0.687-2.128h-4.103L434.182,202.848z"/>
</g>
<g id="XMLID_15_">
	<rect id="XMLID_745_" x="495.498" y="179.75" class="st6" width="142" height="50"/>
	<path id="XMLID_746_" class="st7" d="M637.998,230.25h-143v-51h143V230.25z M495.998,229.25h141v-49h-141V229.25z"/>
</g>
<g id="XMLID_14_" class="st2">
	<path id="XMLID_603_" class="st3" d="M541.088,200.23c-0.336,0.513-0.714,0.961-1.134,1.344l-0.602-0.756
		c0.662-0.607,1.227-1.475,1.693-2.604l0.91,0.196c-0.121,0.336-0.247,0.644-0.378,0.924h4.004v0.896h-2.113
		c-0.028,0.494-0.07,0.947-0.126,1.357h2.632v0.924h-2.843c-0.065,0.215-0.103,0.346-0.111,0.393
		c1.063,0.531,1.96,1.078,2.688,1.638l-0.714,0.714c-0.579-0.522-1.344-1.063-2.296-1.624c-0.56,0.98-1.535,1.792-2.926,2.437
		l-0.672-0.826c1.446-0.645,2.403-1.442,2.87-2.395l0.14-0.336h-2.814v-0.924h3.066c0.074-0.364,0.126-0.816,0.154-1.357H541.088z
		 M550.174,205.396v5.781h-1.021v-0.63h-6.93v0.63h-1.009v-5.781H550.174z M542.223,207.566h6.93v-1.274h-6.93V207.566z
		 M542.223,209.652h6.93v-1.204h-6.93V209.652z M546.563,199.264h4.605v5.124h-4.605V199.264z M550.188,203.492v-3.332h-2.646v3.332
		H550.188z"/>
	<path id="XMLID_728_" class="st3" d="M558.196,199.306c0.868,1.177,1.521,2.161,1.96,2.954l-0.826,0.588
		c-0.149-0.308-0.317-0.615-0.504-0.924c-1.446,0.233-3.233,0.406-5.362,0.519l-0.279-0.841c0.168-0.046,0.321-0.135,0.462-0.266
		c0.887-0.914,1.605-1.923,2.156-3.024l0.951,0.295c-0.653,1.26-1.362,2.239-2.128,2.939c1.241-0.074,2.487-0.191,3.738-0.35
		c-0.317-0.485-0.635-0.952-0.952-1.4L558.196,199.306z M554.977,208.504v2.674h-0.966v-7.896h5.235v6.565
		c0,0.821-0.392,1.232-1.176,1.232h-1.162l-0.252-0.952l1.078,0.042c0.354,0,0.532-0.178,0.532-0.532v-1.134H554.977z
		 M558.267,205.508v-1.344h-3.29v1.344H558.267z M554.977,206.348v1.303h3.29v-1.303H554.977z M561.809,204.388
		c-0.868,0-1.303-0.466-1.303-1.399v-4.677h0.994v1.862c1.513-0.233,2.772-0.48,3.78-0.742l0.322,0.883
		c-1.232,0.308-2.6,0.569-4.103,0.783v1.681c0,0.467,0.196,0.699,0.588,0.699h1.834c0.28,0,0.477-0.069,0.589-0.21
		c0.13-0.177,0.224-0.694,0.279-1.554l0.938,0.294c-0.094,1.111-0.271,1.797-0.532,2.059c-0.233,0.215-0.593,0.321-1.078,0.321
		H561.809z M561.528,209.526c0,0.336,0.182,0.504,0.546,0.504h1.834c0.28,0,0.477-0.07,0.588-0.21
		c0.141-0.178,0.238-0.705,0.294-1.582l0.924,0.294c-0.093,1.129-0.271,1.824-0.531,2.086c-0.233,0.215-0.598,0.322-1.093,0.322
		h-2.296c-0.84,0-1.26-0.401-1.26-1.204v-4.774h0.994v1.722c1.409-0.14,2.66-0.378,3.752-0.714l0.322,0.896
		c-1.214,0.354-2.571,0.602-4.074,0.742V209.526z"/>
	<path id="XMLID_735_" class="st3" d="M569.032,206.348c-0.084,1.951-0.415,3.561-0.994,4.83l-0.756-0.7
		c0.551-1.25,0.835-2.864,0.854-4.844v-6.72h4.088v10.906c0,0.858-0.393,1.288-1.177,1.288h-1.119l-0.238-0.896
		c0.522,0.037,0.882,0.056,1.078,0.056c0.354,0,0.531-0.257,0.531-0.77v-3.15H569.032z M571.3,202.19v-2.366h-2.254v2.366H571.3z
		 M569.046,203.1v2.339h2.254V203.1H569.046z M574.353,204.962v6.202H573.4V198.9h5.67c0,1.735-0.084,2.884-0.252,3.443
		c-0.168,0.579-0.69,0.868-1.568,0.868h-1.134l-0.266-0.868l0.938,0.015c0.309,0,0.556-0.023,0.742-0.07
		c0.168-0.056,0.294-0.191,0.378-0.406c0.094-0.289,0.154-0.975,0.182-2.058h-3.737v4.242h4.76v0.854
		c-0.262,1.438-0.719,2.665-1.372,3.682c0.616,0.607,1.358,1.157,2.226,1.652l-0.504,0.854c-0.877-0.505-1.643-1.078-2.296-1.723
		c-0.616,0.719-1.339,1.298-2.17,1.736l-0.532-0.813c0.794-0.429,1.471-0.979,2.03-1.651c-0.896-1.092-1.498-2.324-1.806-3.696
		H574.353z M575.557,204.962c0.289,1.073,0.793,2.044,1.512,2.912c0.513-0.831,0.896-1.801,1.147-2.912H575.557z"/>
	<path id="XMLID_741_" class="st3" d="M586.336,198.41c-0.14,0.336-0.317,0.69-0.531,1.063h6.104v0.813
		c-0.896,1.036-1.988,1.918-3.276,2.646c1.587,0.672,3.351,1.106,5.292,1.303l-0.462,0.938c-2.212-0.252-4.186-0.812-5.922-1.68
		c-1.717,0.793-3.71,1.362-5.978,1.708l-0.462-0.952c2.024-0.28,3.808-0.729,5.348-1.344c-0.766-0.448-1.493-0.976-2.184-1.582
		c-0.551,0.494-1.135,0.929-1.75,1.302l-0.616-0.813c1.698-0.97,2.837-2.15,3.416-3.542L586.336,198.41z M587.666,204.5
		c0,0.504-0.047,1.036-0.14,1.596h4.928c-0.027,2.371-0.242,3.785-0.644,4.242c-0.411,0.467-1.111,0.7-2.101,0.7
		c-0.233,0-0.779-0.019-1.638-0.056l-0.252-0.91l1.652,0.069c0.83-0.009,1.357-0.187,1.582-0.531
		c0.214-0.336,0.34-1.204,0.378-2.604h-4.145c-0.103,0.346-0.252,0.695-0.448,1.05c-0.719,1.27-2.361,2.311-4.928,3.122
		l-0.672-0.826c2.306-0.672,3.822-1.521,4.55-2.548c0.196-0.289,0.341-0.555,0.435-0.798h-4.172v-0.91h4.451
		c0.112-0.504,0.168-1.036,0.168-1.596H587.666z M590.466,200.426h-5.348l-0.182,0.225c0.774,0.681,1.638,1.269,2.59,1.764
		C588.637,201.863,589.617,201.201,590.466,200.426z"/>
</g>
<g id="XMLID_13_">
	<path id="XMLID_604_" class="st1" d="M659.995,253.248h-2.514v-1h1.514v-2.486h1V253.248z M652.481,253.248h-5v-1h5V253.248z
		 M642.481,253.248h-5v-1h5V253.248z M632.481,253.248h-5v-1h5V253.248z M622.481,253.248h-5v-1h5V253.248z M612.481,253.248h-5v-1
		h5V253.248z M602.481,253.248h-5v-1h5V253.248z M592.481,253.248h-5v-1h5V253.248z M582.481,253.248h-5v-1h5V253.248z
		 M572.481,253.248h-5v-1h5V253.248z M562.481,253.248h-5v-1h5V253.248z M552.481,253.248h-5v-1h5V253.248z M542.481,253.248h-5v-1
		h5V253.248z M532.481,253.248h-5v-1h5V253.248z M522.481,253.248h-5v-1h5V253.248z M512.481,253.248h-5v-1h5V253.248z
		 M502.481,253.248h-5v-1h5V253.248z M492.481,253.248h-5v-1h5V253.248z M482.481,253.248h-5v-1h5V253.248z M472.481,253.248h-5v-1
		h5V253.248z M462.481,253.248h-5v-1h5V253.248z M452.481,253.248h-5v-1h5V253.248z M442.481,253.248h-5v-1h5V253.248z
		 M432.481,253.248h-5v-1h5V253.248z M422.481,253.248h-5v-1h5V253.248z M412.481,253.248h-5v-1h5V253.248z M402.481,253.248h-5v-1
		h5V253.248z M392.481,253.248h-5v-1h5V253.248z M382.481,253.248h-5v-1h5V253.248z M372.481,253.248h-5v-1h5V253.248z
		 M362.481,253.248h-5v-1h5V253.248z M352.481,253.248h-5v-1h5V253.248z M342.481,253.248h-5v-1h5V253.248z M332.481,253.248h-5v-1
		h5V253.248z M322.481,253.248h-5v-1h5V253.248z M312.481,253.248h-5v-1h5V253.248z M302.481,253.248h-5v-1h5V253.248z
		 M292.481,253.248h-5v-1h5V253.248z M282.481,253.248h-5v-1h5V253.248z M272.481,253.248h-5v-1h5V253.248z M262.481,253.248h-5v-1
		h5V253.248z M252.481,253.248h-5v-1h5V253.248z M242.48,253.248h-5v-1h5V253.248z M232.48,253.248h-5v-1h5V253.248z
		 M222.48,253.248h-5v-1h5V253.248z M212.48,253.248h-5v-1h5V253.248z M202.48,253.248h-5v-1h5V253.248z M192.48,253.248h-5v-1h5
		V253.248z M182.48,253.248h-5v-1h5V253.248z M172.48,253.248h-2.476v-3.524h1v2.524h1.476V253.248z M659.995,244.762h-1v-5h1
		V244.762z M171.005,244.724h-1v-5h1V244.724z M659.995,234.762h-1v-5h1V234.762z M171.005,234.724h-1v-5h1V234.724z
		 M659.995,224.762h-1v-5h1V224.762z M171.005,224.724h-1v-5h1V224.724z M659.995,214.762h-1v-5h1V214.762z M171.005,214.724h-1v-5
		h1V214.724z M659.995,204.762h-1v-5h1V204.762z M171.005,204.724h-1v-5h1V204.724z M659.995,194.762h-1v-5h1V194.762z
		 M171.005,194.724h-1v-5h1V194.724z M659.995,184.762h-1v-5h1V184.762z M171.005,184.724h-1v-5h1V184.724z M659.995,174.762h-1v-5
		h1V174.762z M171.005,174.724h-1v-5h1V174.724z M659.995,164.762h-1v-5h1V164.762z M171.005,164.724h-1v-5h1V164.724z
		 M655.505,159.252h-5v-1h5V159.252z M645.505,159.252h-5v-1h5V159.252z M635.505,159.252h-5v-1h5V159.252z M625.505,159.252h-5v-1
		h5V159.252z M615.505,159.252h-5v-1h5V159.252z M605.505,159.252h-5v-1h5V159.252z M595.505,159.252h-5v-1h5V159.252z
		 M585.505,159.252h-5v-1h5V159.252z M575.505,159.252h-5v-1h5V159.252z M565.505,159.252h-5v-1h5V159.252z M555.505,159.252h-5v-1
		h5V159.252z M545.505,159.252h-5v-1h5V159.252z M535.505,159.252h-5v-1h5V159.252z M525.505,159.252h-5v-1h5V159.252z
		 M515.505,159.252h-5v-1h5V159.252z M505.505,159.252h-5v-1h5V159.252z M495.505,159.252h-5v-1h5V159.252z M485.505,159.252h-5v-1
		h5V159.252z M475.505,159.252h-5v-1h5V159.252z M465.505,159.252h-5v-1h5V159.252z M455.505,159.252h-5v-1h5V159.252z
		 M445.505,159.252h-5v-1h5V159.252z M435.505,159.252h-5v-1h5V159.252z M425.505,159.252h-5v-1h5V159.252z M415.505,159.252h-5v-1
		h5V159.252z M405.505,159.252h-5v-1h5V159.252z M395.505,159.252h-5v-1h5V159.252z M385.505,159.252h-5v-1h5V159.252z
		 M375.505,159.252h-5v-1h5V159.252z M365.505,159.252h-5v-1h5V159.252z M355.505,159.252h-5v-1h5V159.252z M345.505,159.252h-5v-1
		h5V159.252z M335.505,159.252h-5v-1h5V159.252z M325.505,159.252h-5v-1h5V159.252z M315.505,159.252h-5v-1h5V159.252z
		 M305.505,159.252h-5v-1h5V159.252z M295.505,159.252h-5v-1h5V159.252z M285.505,159.252h-5v-1h5V159.252z M275.505,159.252h-5v-1
		h5V159.252z M265.505,159.252h-5v-1h5V159.252z M255.505,159.252h-5v-1h5V159.252z M245.505,159.252h-5v-1h5V159.252z
		 M235.505,159.252h-5v-1h5V159.252z M225.505,159.252h-5v-1h5V159.252z M215.505,159.252h-5v-1h5V159.252z M205.505,159.252h-5v-1
		h5V159.252z M195.505,159.252h-5v-1h5V159.252z M185.505,159.252h-5v-1h5V159.252z M175.505,159.252h-5v-1h5V159.252z"/>
</g>
<g id="XMLID_11_" class="st4">
	<rect id="XMLID_601_" x="117.001" y="403.515" class="st5" width="142" height="50"/>
</g>
<g id="XMLID_10_" class="st4">
	<rect id="XMLID_600_" x="269.002" y="403.515" class="st5" width="142" height="50"/>
</g>
<g id="XMLID_9_" class="st4">
	<rect id="XMLID_599_" x="421.003" y="403.515" class="st5" width="142" height="50"/>
</g>
<g id="XMLID_1_" class="st4">
	<rect id="XMLID_581_" x="573.003" y="403.515" class="st5" width="142" height="50"/>
</g>
<g id="XMLID_124_">
	<rect id="XMLID_595_" x="115.001" y="401.515" class="st6" width="142" height="50"/>
	<path id="XMLID_596_" class="st7" d="M257.501,452.015h-143v-51h143V452.015z M115.501,451.015h141v-49h-141V451.015z"/>
</g>
<g id="XMLID_123_" class="st2">
	<path id="XMLID_582_" class="st3" d="M164.54,422.009h-4.872v-0.98h10.794v0.98h-4.886v9.268h5.488v0.98h-12.138v-0.98h5.614
		V422.009z"/>
	<path id="XMLID_584_" class="st3" d="M176.972,420.217h1.022v11.13h1.988v-11.13h1.022v11.13h4.2v0.979h-12.404v-0.979h4.172
		V420.217z M174.003,422.736c0.737,1.923,1.391,4.093,1.96,6.511l-0.924,0.237c-0.504-2.239-1.134-4.396-1.89-6.468L174.003,422.736
		z M184.826,423.017c-0.56,2.445-1.265,4.578-2.114,6.398l-0.91-0.322c0.821-1.661,1.531-3.771,2.128-6.328L184.826,423.017z"/>
	<path id="XMLID_588_" class="st3" d="M189.739,423.997h0.994v2.058h1.764v0.91h-1.764v1.89c0.793-0.158,1.451-0.303,1.974-0.434
		v0.966c-0.485,0.131-1.144,0.28-1.974,0.448v3.08h-0.994v-2.898c-0.942,0.159-1.899,0.299-2.87,0.42l-0.126-0.979
		c1.092-0.131,2.09-0.271,2.996-0.42v-2.072h-2.562l-0.21-0.896c0.401-0.84,0.775-1.861,1.12-3.065h-1.316v-0.98h1.582
		c0.233-1.008,0.378-1.656,0.434-1.946l0.966,0.154c-0.224,1.008-0.359,1.605-0.406,1.792h3.388v0.98h-3.654
		c-0.355,1.194-0.709,2.212-1.064,3.052h1.722V423.997z M196.235,424.15c0,0.878-0.047,1.76-0.14,2.646
		c0.672,2.221,1.806,3.985,3.402,5.292l-0.714,0.826c-1.298-1.195-2.292-2.651-2.982-4.368l-0.07,0.294
		c-0.448,1.68-1.456,3.052-3.024,4.116l-0.672-0.813c1.353-0.924,2.254-2.086,2.702-3.486c0.345-1.194,0.523-2.696,0.532-4.508
		H196.235z M195.102,420.118c-0.093,0.729-0.215,1.438-0.364,2.129h4.354v0.644c-0.271,1.288-0.602,2.487-0.994,3.598l-1.008-0.279
		c0.392-0.915,0.709-1.913,0.952-2.996H194.5c-0.336,1.11-0.756,2.016-1.26,2.716l-0.826-0.588c0.877-1.307,1.442-3.099,1.694-5.376
		L195.102,420.118z"/>
	<path id="XMLID_592_" class="st3" d="M204.622,420.427c-0.364,1.102-0.826,2.151-1.386,3.149v9.353h-0.994v-7.813
		c-0.448,0.616-0.938,1.204-1.47,1.765l-0.322-1.078c1.465-1.661,2.539-3.598,3.22-5.811L204.622,420.427z M207.016,421.043
		c-0.112,0.719-0.266,1.381-0.462,1.987h2.058v-2.912h1.008v2.912h3.22v0.98h-3.22v3.374h3.738v0.966h-3.738v4.508h-1.008v-4.508
		h-4.116v-0.966h4.116v-3.374h-2.38c-0.345,0.924-0.779,1.75-1.302,2.478l-0.644-0.84c0.849-1.278,1.428-2.855,1.736-4.731
		L207.016,421.043z"/>
</g>
<g id="XMLID_70_" class="st4">
	<rect id="XMLID_556_" x="143.003" y="509.015" class="st5" width="91.997" height="50"/>
</g>
<g id="XMLID_69_">
	<rect id="XMLID_577_" x="141.003" y="507.015" class="st6" width="91.997" height="50"/>
	<path id="XMLID_578_" class="st7" d="M233.5,557.515h-92.997v-51H233.5V557.515z M141.502,556.515H232.5v-49h-90.997V556.515z"/>
</g>
<g id="XMLID_61_" class="st2">
	<path id="XMLID_557_" class="st3" d="M166.297,530.574c-0.495,0.654-1.003,1.251-1.526,1.792l-0.336-1.063
		c1.521-1.698,2.632-3.645,3.332-5.838l0.952,0.434c-0.364,1.102-0.826,2.133-1.386,3.094v9.423h-1.036V530.574z M168.79,528.559
		h1.806v-2.926h1.036v2.926h2.506v-2.926h1.022v2.926h1.862v0.98h-1.862v3.275h2.254v0.966h-9.016v-0.966h2.198v-3.275h-1.806
		V528.559z M171.939,534.831c-0.719,1.362-1.582,2.552-2.59,3.569l-0.868-0.63c1.008-0.961,1.853-2.086,2.534-3.374L171.939,534.831
		z M171.631,532.814h2.506v-3.275h-2.506V532.814z M174.558,534.299c1.139,1.27,2.039,2.422,2.702,3.458l-0.896,0.616
		c-0.635-1.046-1.512-2.235-2.632-3.57L174.558,534.299z"/>
	<path id="XMLID_563_" class="st3" d="M185.365,525.465c0.271,0.448,0.518,0.934,0.742,1.456h5.124v0.979h-10.374v3.122
		c-0.056,3.09-0.537,5.554-1.442,7.393l-0.826-0.742c0.793-1.615,1.204-3.831,1.232-6.65v-4.102h5.194
		c-0.224-0.448-0.476-0.868-0.756-1.26L185.365,525.465z M181.124,536.833h5.838c0.868-1.997,1.624-4.457,2.268-7.378l0.994,0.266
		c-0.607,2.726-1.33,5.096-2.17,7.112h2.954v0.979h-9.884V536.833z M182.649,530.141c0.551,1.466,1.055,3.178,1.512,5.138
		l-0.952,0.238c-0.392-1.82-0.873-3.519-1.442-5.096L182.649,530.141z M185.352,529.146c0.466,1.521,0.9,3.29,1.302,5.307
		l-0.966,0.224c-0.308-1.82-0.714-3.57-1.218-5.25L185.352,529.146z"/>
	<path id="XMLID_568_" class="st3" d="M199.085,525.437c0.196,0.467,0.359,0.896,0.49,1.288h5.628v0.98h-3.024
		c-0.224,0.551-0.495,1.115-0.812,1.693h3.108v7.477c0,0.979-0.411,1.47-1.232,1.47h-1.428l-0.252-0.924l1.358,0.042
		c0.392,0,0.588-0.271,0.588-0.813v-6.355h-9.044v8.021H193.5v-8.918h2.954c-0.196-0.56-0.443-1.124-0.742-1.693h-2.912v-0.98h5.698
		c-0.178-0.42-0.35-0.788-0.518-1.106L199.085,525.437z M198.259,531.177c-0.793,0.961-1.783,1.802-2.968,2.52l-0.644-0.84
		c1.148-0.644,2.114-1.414,2.898-2.31L198.259,531.177z M196.397,533.263h5.194v3.444h-5.194V533.263z M200.275,529.398
		c0.299-0.578,0.564-1.143,0.798-1.693h-4.242c0.224,0.476,0.448,1.04,0.672,1.693H200.275z M200.625,535.811v-1.638h-3.262v1.638
		H200.625z M200.359,530.532c1.167,0.822,2.133,1.624,2.898,2.408l-0.756,0.742c-0.709-0.803-1.652-1.638-2.828-2.506
		L200.359,530.532z"/>
	<path id="XMLID_575_" class="st3" d="M211.056,527.019v9.996h-1.148v-8.596c-0.616,0.635-1.4,1.092-2.352,1.372v-1.148
		c0.438-0.121,0.905-0.326,1.4-0.616c0.457-0.279,0.858-0.615,1.204-1.008H211.056z"/>
</g>
<g id="XMLID_77_" class="st4">
	<rect id="XMLID_531_" x="290.486" y="509.015" class="st5" width="91.997" height="50"/>
</g>
<g id="XMLID_76_">
	<rect id="XMLID_552_" x="288.485" y="507.015" class="st6" width="91.997" height="50"/>
	<path id="XMLID_553_" class="st7" d="M380.982,557.515h-92.997v-51h92.997V557.515z M288.985,556.515h90.997v-49h-90.997V556.515z"
		/>
</g>
<g id="XMLID_75_" class="st2">
	<path id="XMLID_532_" class="st3" d="M311.867,530.574c-0.495,0.654-1.003,1.251-1.526,1.792l-0.336-1.063
		c1.521-1.698,2.632-3.645,3.332-5.838l0.952,0.434c-0.364,1.102-0.826,2.133-1.386,3.094v9.423h-1.036V530.574z M314.359,528.559
		h1.806v-2.926h1.036v2.926h2.506v-2.926h1.022v2.926h1.862v0.98h-1.862v3.275h2.254v0.966h-9.016v-0.966h2.198v-3.275h-1.806
		V528.559z M317.509,534.831c-0.719,1.362-1.582,2.552-2.59,3.569l-0.868-0.63c1.008-0.961,1.853-2.086,2.534-3.374L317.509,534.831
		z M317.201,532.814h2.506v-3.275h-2.506V532.814z M320.127,534.299c1.139,1.27,2.039,2.422,2.702,3.458l-0.896,0.616
		c-0.635-1.046-1.512-2.235-2.632-3.57L320.127,534.299z"/>
	<path id="XMLID_538_" class="st3" d="M330.935,525.465c0.271,0.448,0.518,0.934,0.742,1.456h5.124v0.979h-10.374v3.122
		c-0.056,3.09-0.537,5.554-1.442,7.393l-0.826-0.742c0.793-1.615,1.204-3.831,1.232-6.65v-4.102h5.194
		c-0.224-0.448-0.476-0.868-0.756-1.26L330.935,525.465z M326.693,536.833h5.838c0.868-1.997,1.624-4.457,2.268-7.378l0.994,0.266
		c-0.607,2.726-1.33,5.096-2.17,7.112h2.954v0.979h-9.884V536.833z M328.219,530.141c0.551,1.466,1.055,3.178,1.512,5.138
		l-0.952,0.238c-0.392-1.82-0.873-3.519-1.442-5.096L328.219,530.141z M330.921,529.146c0.466,1.521,0.9,3.29,1.302,5.307
		l-0.966,0.224c-0.308-1.82-0.714-3.57-1.218-5.25L330.921,529.146z"/>
	<path id="XMLID_543_" class="st3" d="M344.655,525.437c0.196,0.467,0.359,0.896,0.49,1.288h5.628v0.98h-3.024
		c-0.224,0.551-0.495,1.115-0.812,1.693h3.108v7.477c0,0.979-0.411,1.47-1.232,1.47h-1.428l-0.252-0.924l1.358,0.042
		c0.392,0,0.588-0.271,0.588-0.813v-6.355h-9.044v8.021h-0.966v-8.918h2.954c-0.196-0.56-0.443-1.124-0.742-1.693h-2.912v-0.98
		h5.698c-0.178-0.42-0.35-0.788-0.518-1.106L344.655,525.437z M343.829,531.177c-0.793,0.961-1.783,1.802-2.968,2.52l-0.644-0.84
		c1.148-0.644,2.114-1.414,2.898-2.31L343.829,531.177z M341.967,533.263h5.194v3.444h-5.194V533.263z M345.845,529.398
		c0.299-0.578,0.564-1.143,0.798-1.693h-4.242c0.224,0.476,0.448,1.04,0.672,1.693H345.845z M346.195,535.811v-1.638h-3.262v1.638
		H346.195z M345.929,530.532c1.167,0.822,2.133,1.624,2.898,2.408l-0.756,0.742c-0.709-0.803-1.652-1.638-2.828-2.506
		L345.929,530.532z"/>
	<path id="XMLID_550_" class="st3" d="M358.529,532.563v4.452h-1.12v-4.368c0-1.409-0.635-2.114-1.904-2.114
		c-0.504,0-0.938,0.183-1.302,0.547c-0.383,0.383-0.597,0.905-0.644,1.567v4.368h-1.12v-7.238h1.12v1.064
		c0.252-0.411,0.574-0.719,0.966-0.924c0.392-0.225,0.826-0.336,1.302-0.336C357.628,529.581,358.529,530.574,358.529,532.563z"/>
</g>
<g id="XMLID_86_">
	<g id="XMLID_89_">
		<circle class="st8" cx="551.485" cy="532.015" r="2"/>
	</g>
	<g id="XMLID_88_">
		<circle class="st8" cx="566.485" cy="532.015" r="2"/>
	</g>
	<g id="XMLID_87_">
		<circle class="st8" cx="581.485" cy="532.015" r="2"/>
	</g>
</g>
<g id="XMLID_85_" class="st4">
	<rect id="XMLID_506_" x="448.003" y="509.015" class="st5" width="91.997" height="50"/>
</g>
<g id="XMLID_84_">
	<rect id="XMLID_527_" x="446.003" y="507.015" class="st6" width="91.997" height="50"/>
	<path id="XMLID_528_" class="st7" d="M538.499,557.515h-92.996v-51h92.996V557.515z M446.503,556.515h90.996v-49h-90.996V556.515z"
		/>
</g>
<g id="XMLID_83_" class="st2">
	<path id="XMLID_507_" class="st3" d="M471.297,530.574c-0.494,0.654-1.003,1.251-1.525,1.792l-0.336-1.063
		c1.521-1.698,2.632-3.645,3.332-5.838l0.951,0.434c-0.363,1.102-0.825,2.133-1.386,3.094v9.423h-1.036V530.574z M473.789,528.559
		h1.807v-2.926h1.035v2.926h2.507v-2.926h1.021v2.926h1.862v0.98h-1.862v3.275h2.254v0.966h-9.016v-0.966h2.198v-3.275h-1.807
		V528.559z M476.939,534.831c-0.719,1.362-1.582,2.552-2.59,3.569l-0.868-0.63c1.008-0.961,1.853-2.086,2.534-3.374L476.939,534.831
		z M476.631,532.814h2.507v-3.275h-2.507V532.814z M479.558,534.299c1.139,1.27,2.039,2.422,2.701,3.458l-0.896,0.616
		c-0.635-1.046-1.512-2.235-2.632-3.57L479.558,534.299z"/>
	<path id="XMLID_513_" class="st3" d="M490.365,525.465c0.271,0.448,0.518,0.934,0.742,1.456h5.124v0.979h-10.374v3.122
		c-0.057,3.09-0.537,5.554-1.442,7.393l-0.826-0.742c0.794-1.615,1.204-3.831,1.232-6.65v-4.102h5.194
		c-0.225-0.448-0.477-0.868-0.757-1.26L490.365,525.465z M486.123,536.833h5.838c0.868-1.997,1.624-4.457,2.269-7.378l0.994,0.266
		c-0.607,2.726-1.33,5.096-2.171,7.112h2.954v0.979h-9.884V536.833z M487.649,530.141c0.551,1.466,1.055,3.178,1.512,5.138
		l-0.952,0.238c-0.392-1.82-0.873-3.519-1.441-5.096L487.649,530.141z M490.352,529.146c0.466,1.521,0.9,3.29,1.302,5.307
		l-0.966,0.224c-0.309-1.82-0.714-3.57-1.219-5.25L490.352,529.146z"/>
	<path id="XMLID_518_" class="st3" d="M504.085,525.437c0.196,0.467,0.359,0.896,0.49,1.288h5.628v0.98h-3.023
		c-0.225,0.551-0.495,1.115-0.813,1.693h3.108v7.477c0,0.979-0.411,1.47-1.232,1.47h-1.428l-0.252-0.924l1.357,0.042
		c0.393,0,0.588-0.271,0.588-0.813v-6.355h-9.044v8.021h-0.966v-8.918h2.954c-0.196-0.56-0.443-1.124-0.742-1.693h-2.912v-0.98
		h5.698c-0.178-0.42-0.35-0.788-0.518-1.106L504.085,525.437z M503.259,531.177c-0.793,0.961-1.782,1.802-2.968,2.52l-0.644-0.84
		c1.147-0.644,2.113-1.414,2.897-2.31L503.259,531.177z M501.397,533.263h5.193v3.444h-5.193V533.263z M505.275,529.398
		c0.299-0.578,0.564-1.143,0.798-1.693h-4.242c0.225,0.476,0.448,1.04,0.672,1.693H505.275z M505.625,535.811v-1.638h-3.262v1.638
		H505.625z M505.359,530.532c1.166,0.822,2.133,1.624,2.897,2.408l-0.756,0.742c-0.709-0.803-1.651-1.638-2.828-2.506
		L505.359,530.532z"/>
	<path id="XMLID_525_" class="st3" d="M516.056,527.019v9.996h-1.148v-8.596c-0.616,0.635-1.4,1.092-2.352,1.372v-1.148
		c0.438-0.121,0.904-0.326,1.399-0.616c0.457-0.279,0.858-0.615,1.204-1.008H516.056z"/>
</g>
<g id="XMLID_81_" class="st4">
	<rect id="XMLID_385_" x="595.485" y="509.015" class="st5" width="91.997" height="50"/>
</g>
<g id="XMLID_80_">
	<rect id="XMLID_502_" x="593.485" y="507.015" class="st6" width="91.997" height="50"/>
	<path id="XMLID_503_" class="st7" d="M685.982,557.515h-92.997v-51h92.997V557.515z M593.985,556.515h90.997v-49h-90.997V556.515z"
		/>
</g>
<g id="XMLID_78_" class="st2">
	<path id="XMLID_482_" class="st3" d="M616.867,530.574c-0.495,0.654-1.004,1.251-1.526,1.792l-0.336-1.063
		c1.521-1.698,2.632-3.645,3.332-5.838l0.952,0.434c-0.364,1.102-0.826,2.133-1.386,3.094v9.423h-1.036V530.574z M619.359,528.559
		h1.806v-2.926h1.036v2.926h2.506v-2.926h1.022v2.926h1.861v0.98h-1.861v3.275h2.254v0.966h-9.017v-0.966h2.198v-3.275h-1.806
		V528.559z M622.509,534.831c-0.719,1.362-1.582,2.552-2.59,3.569l-0.868-0.63c1.008-0.961,1.853-2.086,2.534-3.374L622.509,534.831
		z M622.201,532.814h2.506v-3.275h-2.506V532.814z M625.127,534.299c1.139,1.27,2.039,2.422,2.702,3.458l-0.896,0.616
		c-0.635-1.046-1.512-2.235-2.632-3.57L625.127,534.299z"/>
	<path id="XMLID_488_" class="st3" d="M635.935,525.465c0.271,0.448,0.519,0.934,0.742,1.456h5.124v0.979h-10.374v3.122
		c-0.056,3.09-0.536,5.554-1.441,7.393l-0.826-0.742c0.793-1.615,1.204-3.831,1.231-6.65v-4.102h5.194
		c-0.224-0.448-0.476-0.868-0.756-1.26L635.935,525.465z M631.693,536.833h5.838c0.868-1.997,1.624-4.457,2.268-7.378l0.994,0.266
		c-0.606,2.726-1.33,5.096-2.17,7.112h2.954v0.979h-9.884V536.833z M633.219,530.141c0.551,1.466,1.055,3.178,1.513,5.138
		l-0.952,0.238c-0.393-1.82-0.873-3.519-1.442-5.096L633.219,530.141z M635.921,529.146c0.467,1.521,0.9,3.29,1.302,5.307
		l-0.966,0.224c-0.308-1.82-0.714-3.57-1.218-5.25L635.921,529.146z"/>
	<path id="XMLID_493_" class="st3" d="M649.655,525.437c0.195,0.467,0.359,0.896,0.49,1.288h5.628v0.98h-3.024
		c-0.224,0.551-0.495,1.115-0.812,1.693h3.107v7.477c0,0.979-0.411,1.47-1.231,1.47h-1.429l-0.252-0.924l1.358,0.042
		c0.392,0,0.588-0.271,0.588-0.813v-6.355h-9.044v8.021h-0.966v-8.918h2.954c-0.196-0.56-0.443-1.124-0.742-1.693h-2.912v-0.98
		h5.698c-0.178-0.42-0.351-0.788-0.519-1.106L649.655,525.437z M648.829,531.177c-0.794,0.961-1.783,1.802-2.968,2.52l-0.645-0.84
		c1.148-0.644,2.114-1.414,2.898-2.31L648.829,531.177z M646.967,533.263h5.194v3.444h-5.194V533.263z M650.845,529.398
		c0.299-0.578,0.564-1.143,0.798-1.693h-4.241c0.224,0.476,0.447,1.04,0.672,1.693H650.845z M651.195,535.811v-1.638h-3.263v1.638
		H651.195z M650.929,530.532c1.167,0.822,2.133,1.624,2.898,2.408l-0.756,0.742c-0.71-0.803-1.652-1.638-2.828-2.506
		L650.929,530.532z"/>
	<path id="XMLID_500_" class="st3" d="M663.529,532.563v4.452h-1.12v-4.368c0-1.409-0.635-2.114-1.904-2.114
		c-0.504,0-0.938,0.183-1.302,0.547c-0.383,0.383-0.598,0.905-0.645,1.567v4.368h-1.119v-7.238h1.119v1.064
		c0.253-0.411,0.574-0.719,0.967-0.924c0.392-0.225,0.825-0.336,1.302-0.336C662.628,529.581,663.529,530.574,663.529,532.563z"/>
</g>
<g id="XMLID_4_">
	<rect id="XMLID_478_" x="267.002" y="401.515" class="st6" width="142" height="50"/>
	<path id="XMLID_479_" class="st7" d="M409.502,452.015h-143v-51h143V452.015z M267.502,451.015h141v-49h-141V451.015z"/>
</g>
<g id="XMLID_3_" class="st2">
	<path id="XMLID_459_" class="st3" d="M313.376,423.661c-0.56,1.269-1.274,2.338-2.142,3.205l-0.644-0.825
		c1.325-1.382,2.217-3.239,2.674-5.572l1.022,0.182c-0.149,0.719-0.332,1.396-0.546,2.03h2.996v-2.492h1.022v2.492h4.606v0.98
		h-4.606v3.233h4.326v0.98h-4.326v3.556h5.502v1.008h-12.334v-1.008h5.81v-3.556h-4.116v-0.98h4.116v-3.233H313.376z"/>
	<path id="XMLID_461_" class="st3" d="M331.03,419.895c0.233,0.504,0.453,1.046,0.658,1.624h4.914v0.966h-2.436
		c-0.177,0.775-0.406,1.484-0.686,2.128h3.416v0.967h-10.052v2.071c-0.056,2.193-0.564,3.943-1.526,5.25l-0.77-0.686
		c0.821-1.102,1.246-2.623,1.274-4.564v-3.038h2.87l-0.588-2.128h-2.562v-0.966h5.124c-0.177-0.476-0.406-0.956-0.686-1.442
		L331.03,419.895z M329.686,424.612h2.828c0.326-0.699,0.555-1.409,0.686-2.128h-4.102L329.686,424.612z"/>
	<path id="XMLID_464_" class="st3" d="M338.632,424.389h2.926v6.216c0.579-0.485,1.12-0.966,1.624-1.441l0.28,1.063
		c-0.859,0.803-1.792,1.535-2.8,2.198l-0.392-0.896c0.205-0.205,0.308-0.415,0.308-0.63v-5.544h-1.946V424.389z M340.2,420.287
		c0.924,0.719,1.703,1.428,2.338,2.128l-0.686,0.699c-0.588-0.699-1.372-1.423-2.352-2.17L340.2,420.287z M343.602,426.026h6.664
		v0.924c-0.448,1.326-1.181,2.46-2.198,3.402c0.933,0.645,2.095,1.223,3.486,1.736l-0.546,0.868
		c-1.502-0.607-2.725-1.274-3.668-2.002c-1.092,0.82-2.473,1.488-4.144,2.002l-0.56-0.854c1.559-0.467,2.861-1.068,3.906-1.806
		c-1.055-0.971-1.778-2.067-2.17-3.29h-0.77V426.026z M344.68,420.623h4.704v3.023c0,0.354,0.182,0.532,0.546,0.532h1.288v0.924
		h-1.54c-0.858,0-1.288-0.415-1.288-1.246v-2.282h-2.716v0.49c0,1.475-0.719,2.623-2.156,3.444l-0.672-0.771
		c1.222-0.606,1.834-1.46,1.834-2.562V420.623z M345.324,427.007c0.364,1.018,1.008,1.923,1.932,2.716
		c0.905-0.793,1.577-1.698,2.016-2.716H345.324z"/>
	<path id="XMLID_470_" class="st3" d="M358.134,420.133c-0.168,0.28-0.387,0.593-0.658,0.938h5.698v0.771
		c-0.849,1.045-1.899,1.95-3.15,2.716c1.484,0.635,3.271,1.092,5.362,1.372l-0.434,0.896c-2.306-0.354-4.266-0.933-5.88-1.735
		c-1.708,0.85-3.719,1.465-6.034,1.848l-0.434-0.882c2.072-0.289,3.901-0.789,5.488-1.498c-0.831-0.494-1.573-1.078-2.226-1.75
		c-0.579,0.532-1.237,1.031-1.974,1.498l-0.644-0.784c1.577-0.914,2.875-2.118,3.892-3.612L358.134,420.133z M363.426,426.811v6.104
		h-0.966v-0.616h-6.888v0.616h-0.966v-6.104H363.426z M355.572,429.135h2.954v-1.484h-2.954V429.135z M355.572,431.431h2.954v-1.484
		h-2.954V431.431z M356.468,422.232c0.691,0.7,1.545,1.321,2.562,1.862c1.12-0.616,2.086-1.33,2.898-2.142h-5.18L356.468,422.232z
		 M359.478,427.65v1.484h2.982v-1.484H359.478z M359.478,431.431h2.982v-1.484h-2.982V431.431z"/>
</g>
<g id="XMLID_6_">
	<rect id="XMLID_455_" x="419.003" y="401.515" class="st6" width="142" height="50"/>
	<path id="XMLID_456_" class="st7" d="M561.503,452.015h-143v-51h143V452.015z M419.503,451.015h141v-49h-141V451.015z"/>
</g>
<g id="XMLID_5_" class="st2">
	<path id="XMLID_435_" class="st3" d="M465.377,423.661c-0.561,1.269-1.274,2.338-2.143,3.205l-0.644-0.825
		c1.325-1.382,2.217-3.239,2.674-5.572l1.022,0.182c-0.149,0.719-0.332,1.396-0.547,2.03h2.996v-2.492h1.022v2.492h4.605v0.98
		h-4.605v3.233h4.326v0.98h-4.326v3.556h5.502v1.008h-12.334v-1.008h5.81v-3.556h-4.115v-0.98h4.115v-3.233H465.377z"/>
	<path id="XMLID_437_" class="st3" d="M483.03,419.895c0.233,0.504,0.453,1.046,0.658,1.624h4.914v0.966h-2.436
		c-0.178,0.775-0.406,1.484-0.687,2.128h3.416v0.967h-10.052v2.071c-0.056,2.193-0.564,3.943-1.526,5.25l-0.77-0.686
		c0.821-1.102,1.246-2.623,1.273-4.564v-3.038h2.87l-0.588-2.128h-2.562v-0.966h5.124c-0.178-0.476-0.406-0.956-0.687-1.442
		L483.03,419.895z M481.687,424.612h2.828c0.326-0.699,0.556-1.409,0.687-2.128h-4.103L481.687,424.612z"/>
	<path id="XMLID_440_" class="st3" d="M501.818,427.65v3.893h1.498v0.91h-12.67v-0.91h1.568v-3.893H501.818z M491.612,420.721h0.994
		v5.712h-0.994V420.721z M493.181,431.543h1.862v-2.969h-1.862V431.543z M494.511,420.034h1.021v6.916h-1.021V420.034z
		 M496.009,431.543h1.96v-2.969h-1.96V431.543z M498.459,422.723c-0.458,1.148-1.022,2.091-1.694,2.828l-0.644-0.784
		c0.998-1.194,1.67-2.795,2.016-4.802l1.036,0.196c-0.103,0.522-0.229,1.05-0.378,1.581h4.172v0.98H498.459z M498.935,431.543h1.918
		v-2.969h-1.918V431.543z M499.929,423.675c0.766,0.961,1.339,1.792,1.722,2.492l-0.84,0.573c-0.43-0.793-0.994-1.646-1.694-2.562
		L499.929,423.675z"/>
	<path id="XMLID_449_" class="st3" d="M505.053,432.789l-0.21-0.98c0.504,0.037,0.868,0.056,1.092,0.056
		c0.364,0,0.546-0.2,0.546-0.602v-3.388c-0.56,0.205-1.12,0.401-1.68,0.588l-0.252-1.008c0.662-0.168,1.307-0.364,1.932-0.589
		v-3.136h-1.708v-0.966h1.708v-2.674h1.036v2.674h1.162v0.966h-1.162v2.716c0.485-0.224,0.892-0.424,1.218-0.602v1.021
		c-0.541,0.262-0.947,0.453-1.218,0.574v4.074c0,0.85-0.411,1.274-1.231,1.274H505.053z M512.669,428.421h-3.263v-0.938h7.477v0.938
		h-3.206v3.038h3.724v0.979h-8.554v-0.979h3.822V428.421z M513.047,419.923c0.261,0.56,0.494,1.125,0.7,1.693h3.29v2.646h-0.938
		v-1.736h-5.88v1.736h-0.952v-2.646h3.472c-0.233-0.588-0.471-1.096-0.714-1.525L513.047,419.923z M512.627,423.745
		c-0.653,1.399-1.498,2.459-2.534,3.178l-0.729-0.63c1.055-0.729,1.849-1.694,2.381-2.898L512.627,423.745z M514.446,423.366
		c0.85,0.878,1.619,1.876,2.311,2.996l-0.882,0.448c-0.71-1.186-1.471-2.212-2.282-3.08L514.446,423.366z"/>
</g>
<g id="XMLID_8_">
	<rect id="XMLID_431_" x="571.003" y="401.515" class="st6" width="142" height="50"/>
	<path id="XMLID_432_" class="st7" d="M713.503,452.015h-143v-51h143V452.015z M571.503,451.015h141v-49h-141V451.015z"/>
</g>
<g id="XMLID_7_" class="st2">
	<path id="XMLID_415_" class="st3" d="M620.541,422.009h-4.872v-0.98h10.794v0.98h-4.886v9.268h5.488v0.98h-12.139v-0.98h5.614
		V422.009z"/>
	<path id="XMLID_417_" class="st3" d="M632.974,420.217h1.021v11.13h1.988v-11.13h1.021v11.13h4.2v0.979h-12.404v-0.979h4.173
		V420.217z M630.005,422.736c0.737,1.923,1.391,4.093,1.96,6.511l-0.924,0.237c-0.504-2.239-1.134-4.396-1.89-6.468L630.005,422.736
		z M640.827,423.017c-0.56,2.445-1.265,4.578-2.114,6.398l-0.91-0.322c0.821-1.661,1.531-3.771,2.129-6.328L640.827,423.017z"/>
	<path id="XMLID_421_" class="st3" d="M649.031,419.895c0.233,0.504,0.452,1.046,0.658,1.624h4.914v0.966h-2.437
		c-0.177,0.775-0.406,1.484-0.686,2.128h3.416v0.967h-10.053v2.071c-0.056,2.193-0.564,3.943-1.525,5.25l-0.771-0.686
		c0.821-1.102,1.246-2.623,1.274-4.564v-3.038h2.87l-0.588-2.128h-2.563v-0.966h5.124c-0.177-0.476-0.406-0.956-0.686-1.442
		L649.031,419.895z M647.688,424.612h2.828c0.326-0.699,0.555-1.409,0.686-2.128H647.1L647.688,424.612z"/>
	<path id="XMLID_424_" class="st3" d="M662.205,426.629v6.076h-0.979v-0.715h-2.954v0.715h-0.994v-6.076H662.205z M658.271,431.039
		h2.954v-3.444h-2.954V431.039z M659.14,420.665h7.714v4.577h-7.714V420.665z M665.845,424.291v-2.675h-5.697v2.675H665.845z
		 M668.715,426.629v6.076h-1.008v-0.715h-3.065v0.715h-0.994v-6.076H668.715z M664.642,431.039h3.065v-3.444h-3.065V431.039z"/>
</g>
<g id="XMLID_152_">
	<path id="XMLID_401_" class="st9" d="M107.139,372.235c-0.168,0.756-0.355,1.438-0.56,2.044l-0.882-0.252
		c0.522-1.465,0.821-3.023,0.896-4.676l0.882,0.07c-0.028,0.625-0.084,1.236-0.168,1.834h0.98v-2.912h0.98v2.912h1.176v0.979h-1.176
		v3.36c0.383-0.178,0.756-0.364,1.12-0.561v0.952c-0.243,0.131-0.616,0.317-1.12,0.561v4.62h-0.98v-4.2
		c-0.793,0.308-1.526,0.569-2.198,0.784l-0.238-0.98c0.84-0.196,1.652-0.448,2.436-0.756v-3.78H107.139z M113.159,368.567
		c-0.159,0.775-0.332,1.447-0.518,2.017h5.432c0,4.676-0.07,7.56-0.21,8.651c-0.149,1.232-0.905,1.849-2.268,1.849
		c-0.196,0-0.546-0.015-1.05-0.042l-0.238-0.91c0.597,0.037,0.98,0.056,1.148,0.056c0.859,0,1.349-0.448,1.47-1.344
		c0.093-0.747,0.154-3.174,0.182-7.28h-0.952c-0.308,2.353-0.733,4.2-1.274,5.544c-0.653,1.475-1.61,2.786-2.87,3.935l-0.616-0.799
		c1.157-1.045,2.035-2.221,2.632-3.527c0.541-1.298,0.947-3.015,1.218-5.152h-1.092c-0.56,3.043-1.624,5.26-3.192,6.65l-0.658-0.756
		c1.437-1.223,2.422-3.188,2.954-5.895h-0.966c-0.373,0.887-0.798,1.624-1.274,2.212l-0.742-0.63c0.896-1.12,1.54-2.729,1.932-4.83
		L113.159,368.567z"/>
	<path id="XMLID_404_" class="st9" d="M119.823,368.903h5.572v0.938h-0.91v7.686c0.214-0.074,0.527-0.177,0.938-0.308v0.979
		c-0.355,0.112-0.667,0.206-0.938,0.28v2.758h-0.966v-2.492c-1.297,0.327-2.455,0.584-3.472,0.771l-0.252-0.952l0.882-0.14v-8.582
		h-0.854V368.903z M121.643,371.899h1.876v-2.058h-1.876V371.899z M121.643,374.812h1.876v-2.002h-1.876V374.812z M121.643,378.241
		c0.719-0.158,1.344-0.303,1.876-0.434v-2.072h-1.876V378.241z M125.619,371.382h3.486c0.542-0.962,0.999-1.97,1.372-3.024
		l0.924,0.351c-0.43,1.082-0.859,1.974-1.288,2.674h2.086v0.952h-2.87v0.42c0,0.653-0.037,1.315-0.112,1.987h3.22v0.967h-2.898
		c0.336,1.54,1.372,3.107,3.108,4.703l-0.7,0.742c-1.605-1.596-2.613-3.173-3.024-4.731c-0.542,2.155-1.615,3.752-3.22,4.788
		l-0.602-0.799c1.577-0.951,2.581-2.52,3.01-4.703h-2.702v-0.967h2.842c0.065-0.615,0.103-1.204,0.112-1.764v-0.644h-2.744V371.382z
		 M127.005,368.441c0.56,0.821,0.994,1.55,1.302,2.185l-0.756,0.518c-0.317-0.662-0.756-1.4-1.316-2.212L127.005,368.441z"/>
	<path id="XMLID_411_" class="st9" d="M143.105,381.084l-0.266-0.98l1.344,0.042c0.392,0,0.588-0.191,0.588-0.574v-9.702h-9.184
		v11.271h-0.994v-12.236h11.172v10.893c0,0.858-0.416,1.288-1.246,1.288H143.105z M139.773,377.989
		c-0.402-0.634-0.845-1.307-1.33-2.016c-0.495,1.362-1.106,2.539-1.834,3.528l-0.644-0.784c0.728-1.036,1.33-2.264,1.806-3.683
		c-0.644-0.858-1.302-1.675-1.974-2.449l0.63-0.603c0.56,0.588,1.115,1.251,1.666,1.988c0.271-1.008,0.49-2.063,0.658-3.164
		l0.924,0.168c-0.224,1.438-0.518,2.753-0.882,3.948c0.616,0.84,1.167,1.638,1.652,2.394L139.773,377.989z M143.875,378.634
		c-0.401-0.69-0.873-1.466-1.414-2.324c-0.56,1.372-1.218,2.548-1.974,3.528l-0.644-0.771c0.793-1.073,1.446-2.319,1.96-3.738
		c-0.691-1.017-1.33-1.885-1.918-2.604l0.63-0.602c0.569,0.644,1.12,1.349,1.652,2.113c0.29-0.971,0.537-2.1,0.742-3.388
		l0.952,0.168c-0.252,1.55-0.588,2.954-1.008,4.214c0.588,0.896,1.157,1.806,1.708,2.73L143.875,378.634z"/>
</g>
<g id="XMLID_38_" class="st2">
	<path id="XMLID_393_" class="st3" d="M58.808,144.001h7.084v0.994h-5.936v3.346h5.6v0.994h-5.6v3.668h6.174v0.994h-7.322V144.001z"
		/>
	<path id="XMLID_395_" class="st3" d="M67.726,144.001h4.312c0.999,0,1.783,0.229,2.352,0.687c0.597,0.485,0.896,1.185,0.896,2.1
		c0,0.551-0.154,1.045-0.462,1.484c-0.327,0.438-0.779,0.728-1.358,0.867v0.028c0.952,0.215,1.484,0.821,1.596,1.82l0.154,1.54
		c0.056,0.606,0.233,1.097,0.532,1.47h-1.246c-0.233-0.345-0.369-0.789-0.406-1.33l-0.126-1.33c-0.056-0.597-0.266-1.021-0.63-1.273
		c-0.327-0.243-0.808-0.364-1.442-0.364h-3.024v4.298h-1.148V144.001z M68.874,144.995v3.71h3.024c0.728,0,1.292-0.173,1.694-0.518
		c0.354-0.327,0.532-0.779,0.532-1.358c0-0.616-0.172-1.073-0.518-1.372c-0.364-0.308-0.934-0.462-1.708-0.462H68.874z"/>
	<path id="XMLID_398_" class="st3" d="M77.189,144.001h4.088c2.296,0,3.444,0.98,3.444,2.94c0,1.979-1.153,2.968-3.458,2.968h-2.926
		v4.088h-1.148V144.001z M78.337,144.995v3.92h2.87c0.793,0,1.391-0.163,1.792-0.49c0.383-0.326,0.574-0.821,0.574-1.483
		c0-0.682-0.196-1.167-0.588-1.456c-0.383-0.327-0.976-0.49-1.778-0.49H78.337z"/>
</g>
<g id="XMLID_35_" class="st2">
	<path id="XMLID_386_" class="st3" d="M63.603,205.688c0.756,0.588,1.204,1.381,1.344,2.38h-1.106
		c-0.14-0.719-0.495-1.279-1.064-1.681c-0.542-0.373-1.204-0.56-1.988-0.56c-1.158,0-2.054,0.406-2.688,1.218
		c-0.588,0.756-0.882,1.755-0.882,2.996c0,1.26,0.29,2.249,0.868,2.968c0.616,0.775,1.507,1.162,2.674,1.162
		c0.793,0,1.47-0.21,2.03-0.63c0.597-0.457,0.994-1.115,1.19-1.974h1.106c-0.224,1.176-0.747,2.081-1.568,2.716
		c-0.775,0.606-1.694,0.91-2.758,0.91c-1.549,0-2.739-0.514-3.57-1.54c-0.747-0.915-1.12-2.119-1.12-3.612s0.383-2.711,1.148-3.654
		c0.831-1.055,2.025-1.582,3.584-1.582C61.914,204.806,62.847,205.1,63.603,205.688z"/>
	<path id="XMLID_388_" class="st3" d="M66.683,205.002h4.312c0.999,0,1.783,0.229,2.352,0.687c0.597,0.485,0.896,1.185,0.896,2.1
		c0,0.551-0.154,1.045-0.462,1.484c-0.327,0.438-0.779,0.728-1.358,0.867v0.028c0.952,0.215,1.484,0.821,1.596,1.82l0.154,1.54
		c0.056,0.606,0.233,1.097,0.532,1.47h-1.246c-0.233-0.345-0.369-0.789-0.406-1.33l-0.126-1.33c-0.056-0.597-0.266-1.021-0.63-1.273
		c-0.327-0.243-0.808-0.364-1.442-0.364h-3.024v4.298h-1.148V205.002z M67.831,205.996v3.71h3.024c0.728,0,1.292-0.173,1.694-0.518
		c0.354-0.327,0.532-0.779,0.532-1.358c0-0.616-0.172-1.073-0.518-1.372c-0.364-0.308-0.934-0.462-1.708-0.462H67.831z"/>
	<path id="XMLID_391_" class="st3" d="M76.146,205.002h1.428l3.724,8.526h0.042l3.71-8.526h1.428v9.996h-1.148v-7.952h-0.042
		l-3.458,7.952h-1.036l-3.458-7.952h-0.042v7.952h-1.148V205.002z"/>
</g>
<g id="XMLID_59_">
	<g id="XMLID_30_">
		<g id="XMLID_26_" class="st4">
			<rect id="XMLID_364_" x="554.504" y="5.667" class="st5" width="142" height="50"/>
		</g>
		<g id="XMLID_25_">
			<rect id="XMLID_381_" x="552.504" y="3.667" class="st6" width="142" height="50"/>
			<path id="XMLID_382_" class="st7" d="M695.004,54.167h-143v-51h143V54.167z M553.004,53.167h141v-49h-141V53.167z"/>
		</g>
		<g id="XMLID_24_" class="st2">
			<path id="XMLID_365_" class="st3" d="M603.357,25.911h5.446c0.103-0.774,0.163-1.619,0.182-2.534v-1.134h1.036v0.91
				c0,0.896-0.061,1.815-0.182,2.758h5.81v0.979h-5.516c0.979,3.164,2.907,5.601,5.782,7.309l-0.63,0.812
				c-2.819-1.735-4.751-4.181-5.797-7.336c-0.867,3.397-2.795,5.876-5.781,7.435l-0.63-0.841c2.977-1.465,4.829-3.924,5.558-7.378
				h-5.278V25.911z"/>
			<path id="XMLID_367_" class="st3" d="M620.76,28.837l-0.28,0.771h2.912v0.854c-0.308,0.915-0.816,1.708-1.526,2.38
				c0.663,0.28,1.293,0.588,1.891,0.924l-0.546,0.813c-0.645-0.383-1.354-0.747-2.128-1.092c-0.943,0.644-2.109,1.162-3.5,1.554
				l-0.49-0.868c1.166-0.308,2.146-0.69,2.939-1.147l-1.945-0.784c0.392-0.645,0.709-1.219,0.952-1.723h-1.639v-0.909h2.059
				c0.232-0.653,0.34-0.947,0.321-0.883L620.76,28.837z M617.441,24.917h2.73v-2.674h0.938v2.674h2.548v0.882h-2.548v0.154
				c0.766,0.383,1.54,0.812,2.324,1.288l-0.518,0.784c-0.7-0.561-1.303-1.009-1.807-1.345v1.82h-0.938v-2.66
				c-0.458,1.092-1.293,2.049-2.506,2.87l-0.49-0.812c1.082-0.635,1.834-1.335,2.254-2.101h-1.988V24.917z M618.506,22.537
				c0.364,0.569,0.662,1.144,0.896,1.722l-0.784,0.364c-0.289-0.663-0.606-1.265-0.951-1.806L618.506,22.537z M622.439,30.517
				h-2.366c-0.233,0.477-0.485,0.92-0.756,1.33c0.561,0.196,1.088,0.393,1.582,0.588C621.6,31.866,622.113,31.227,622.439,30.517z
				 M623.531,22.831c-0.289,0.635-0.648,1.241-1.077,1.82l-0.757-0.406c0.448-0.635,0.794-1.236,1.036-1.806L623.531,22.831z
				 M625.044,27.591c-0.243,0.616-0.519,1.19-0.826,1.723l-0.63-0.771c0.83-1.577,1.386-3.691,1.666-6.342l0.979,0.168
				c-0.065,0.579-0.168,1.246-0.308,2.002h3.696v0.966h-0.91c-0.057,2.333-0.472,4.331-1.246,5.992
				c0.737,1.231,1.601,2.18,2.59,2.842l-0.574,0.854c-0.961-0.673-1.797-1.592-2.506-2.759c-0.682,1.12-1.55,2.059-2.604,2.814
				l-0.532-0.854c1.092-0.756,1.955-1.73,2.59-2.926C625.879,30.2,625.417,28.963,625.044,27.591z M625.716,25.337
				c-0.094,0.336-0.159,0.583-0.196,0.742c0.346,1.587,0.803,2.981,1.372,4.186c0.541-1.418,0.84-3.061,0.896-4.928H625.716z"/>
			<path id="XMLID_375_" class="st3" d="M631.609,34.941l-0.21-0.952c0.401,0.046,0.756,0.069,1.064,0.069
				c0.354,0,0.532-0.205,0.532-0.615v-3.416c-0.654,0.242-1.204,0.434-1.652,0.573l-0.252-0.979c0.635-0.149,1.27-0.341,1.904-0.574
				v-3.164h-1.681v-0.966h1.681v-2.646h0.979v2.646h1.344v0.966h-1.344v2.758c0.448-0.195,0.882-0.405,1.302-0.63v0.994
				c-0.289,0.149-0.723,0.354-1.302,0.616v4.074c0,0.83-0.392,1.246-1.176,1.246H631.609z M636.985,28.753
				c-0.168,2.39-0.714,4.494-1.638,6.314l-0.784-0.7c0.989-1.849,1.493-4.247,1.512-7.196v-4.382h7.379v3.402h-2.633v1.651h2.996
				v0.91h-2.996v1.722h2.353v4.593h-0.938v-0.687h-3.794v0.687h-0.938v-4.593h2.338v-1.722H636.985z M639.842,26.191h-2.786
				l-0.014,1.651h2.8V26.191z M642.474,23.727h-5.418v1.555h5.418V23.727z M638.441,33.485h3.794v-2.114h-3.794V33.485z"/>
		</g>
	</g>
	<g id="XMLID_23_">
		<g id="XMLID_29_" class="st4">
			<rect id="XMLID_354_" x="135.496" y="5.667" class="st5" width="142" height="50"/>
		</g>
		<g id="XMLID_28_">
			<rect id="XMLID_360_" x="133.496" y="3.667" class="st6" width="142" height="50"/>
			<path id="XMLID_361_" class="st7" d="M275.996,54.167h-143v-51h143V54.167z M133.996,53.167h141v-49h-141V53.167z"/>
		</g>
		<g id="XMLID_27_" class="st2">
			<path id="XMLID_355_" class="st3" d="M202.172,23.671h1.33l3.934,9.996h-1.246l-1.064-2.8h-4.592l-1.064,2.8h-1.232
				L202.172,23.671z M200.898,29.901h3.864l-1.89-4.998h-0.056L200.898,29.901z"/>
			<path id="XMLID_358_" class="st3" d="M208.527,23.671h1.134v9.996h-1.134V23.671z"/>
		</g>
	</g>
	<g id="XMLID_31_">
		<g id="XMLID_187_" class="st4">
			<rect id="XMLID_349_" x="319.498" y="5.667" class="st5" width="195.004" height="50"/>
		</g>
		<g id="XMLID_186_">
			<rect id="XMLID_350_" x="317.498" y="3.667" class="st6" width="195.004" height="50"/>
			<path id="XMLID_351_" class="st7" d="M513.002,54.167H316.998v-51h196.004V54.167z M317.998,53.167h194.004v-49H317.998V53.167z"
				/>
		</g>
		<g id="XMLID_112_">
			<g id="XMLID_113_">
				<path id="XMLID_193_" class="st9" d="M383.28,31.667c0,1.1-0.9,2-2,2c-0.2,0-0.4,0-0.6-0.1l-3.4,2v0.1c0,1.1-0.9,2-2,2
					s-2-0.9-2-2v-0.1l-3.4-2c-0.2,0.1-0.4,0.1-0.6,0.1c-1.1,0-2-0.9-2-2c0-0.7,0.4-1.4,1-1.7v-3.6c-0.6-0.3-1-1-1-1.7
					c0-1.1,0.9-2,2-2c0.6,0,1.1,0.2,1.4,0.6l2.6-1.5v-0.1c0-1.1,0.9-2,2-2s2,0.9,2,2c0,0.1,0,0.1,0,0.1l2.6,1.5
					c0.4-0.4,0.9-0.6,1.4-0.6c1.1,0,2,0.9,2,2c0,0.7-0.4,1.4-1,1.7v3.5C382.88,30.267,383.28,30.967,383.28,31.667z M370.28,26.867
					v3.1c0.2,0.1,0.4,0.3,0.5,0.5l2.6-1.7L370.28,26.867z M374.28,23.367c0,0-0.1,0-0.1-0.1l-3,1.8l0,0l3.1,1.8V23.367z
					 M374.28,30.567l-2.8,1.8l2.7,1.6c0,0,0.1,0,0.1-0.1V30.567z M380.28,29.967v-3.3l-3.1,2l2.7,1.6
					C379.98,30.167,380.08,30.067,380.28,29.967z M376.28,33.967c0,0,0.1,0,0.1,0.1l2.9-1.8l-3-1.8V33.967z M376.38,23.367
					c0,0-0.1,0-0.1,0.1v3.5l2.9-1.9L376.38,23.367z M388.08,26.667c-1-6.2-6.3-11-12.8-11c-7.2,0-13,5.8-13,13s5.8,13,13,13
					c6.5,0,11.9-4.8,12.8-11h2c-1,7.3-7.2,13-14.9,13c-8.3,0-15-6.7-15-15s6.7-15,15-15c7.6,0,13.9,5.7,14.9,13H388.08z"/>
			</g>
		</g>
		<g id="XMLID_111_" class="st2">
			<path id="XMLID_327_" class="st3" d="M401.418,23.671h8.19v0.994h-3.528v9.002h-1.134v-9.002h-3.528V23.671z"/>
			<path id="XMLID_329_" class="st3" d="M410.854,23.671h4.466c0.933,0,1.67,0.224,2.212,0.672c0.531,0.448,0.798,1.064,0.798,1.849
				c0,0.56-0.149,1.045-0.448,1.456c-0.308,0.363-0.714,0.63-1.218,0.798c0.644,0.111,1.152,0.383,1.526,0.812
				c0.373,0.43,0.56,0.971,0.56,1.624c0,0.98-0.346,1.708-1.036,2.185c-0.598,0.401-1.404,0.602-2.422,0.602h-4.438V23.671z
				 M412.002,24.637v3.402h3.038c0.691,0,1.223-0.145,1.596-0.434c0.373-0.299,0.561-0.733,0.561-1.303
				c0-0.56-0.183-0.979-0.546-1.26c-0.355-0.271-0.887-0.406-1.596-0.406H412.002z M412.002,28.991v3.71h3.192
				c0.672,0,1.227-0.131,1.666-0.393c0.494-0.308,0.741-0.788,0.741-1.441c0-0.635-0.215-1.11-0.644-1.428
				c-0.392-0.299-0.98-0.448-1.764-0.448H412.002z"/>
			<path id="XMLID_333_" class="st3" d="M425.638,27.045c0.43,0.485,0.645,1.144,0.645,1.974v4.648h-1.05v-1.218
				c-0.29,0.401-0.663,0.728-1.12,0.979c-0.551,0.289-1.148,0.435-1.792,0.435c-0.729,0-1.308-0.188-1.736-0.561
				c-0.448-0.383-0.672-0.891-0.672-1.525c0-0.925,0.368-1.597,1.105-2.017c0.598-0.354,1.4-0.532,2.408-0.532l1.736-0.014v-0.238
				c0-1.213-0.63-1.819-1.89-1.819c-0.589,0-1.046,0.121-1.372,0.363c-0.364,0.253-0.589,0.626-0.673,1.12h-1.105
				c0.112-0.83,0.467-1.446,1.063-1.848c0.523-0.373,1.241-0.56,2.156-0.56C424.368,26.233,425.134,26.504,425.638,27.045z
				 M425.162,30.097l-1.666,0.015c-1.624,0-2.437,0.551-2.437,1.651c0,0.355,0.131,0.645,0.393,0.868
				c0.271,0.215,0.639,0.322,1.105,0.322c0.729,0,1.349-0.225,1.862-0.672c0.495-0.448,0.742-0.966,0.742-1.555V30.097z"/>
			<path id="XMLID_336_" class="st3" d="M433.464,27.045c0.429,0.485,0.644,1.144,0.644,1.974v4.648h-1.05v-1.218
				c-0.289,0.401-0.663,0.728-1.12,0.979c-0.551,0.289-1.147,0.435-1.792,0.435c-0.728,0-1.307-0.188-1.736-0.561
				c-0.447-0.383-0.672-0.891-0.672-1.525c0-0.925,0.369-1.597,1.106-2.017c0.597-0.354,1.4-0.532,2.408-0.532l1.735-0.014v-0.238
				c0-1.213-0.63-1.819-1.89-1.819c-0.588,0-1.045,0.121-1.372,0.363c-0.364,0.253-0.588,0.626-0.672,1.12h-1.106
				c0.112-0.83,0.467-1.446,1.064-1.848c0.522-0.373,1.241-0.56,2.156-0.56C432.194,26.233,432.96,26.504,433.464,27.045z
				 M432.987,30.097l-1.666,0.015c-1.624,0-2.436,0.551-2.436,1.651c0,0.355,0.131,0.645,0.392,0.868
				c0.271,0.215,0.64,0.322,1.106,0.322c0.728,0,1.349-0.225,1.862-0.672c0.494-0.448,0.741-0.966,0.741-1.555V30.097z"/>
			<path id="XMLID_339_" class="st3" d="M442.003,24.245c0.663,0.532,1.046,1.325,1.148,2.38h-1.134
				c-0.122-0.719-0.401-1.255-0.84-1.61c-0.439-0.354-1.069-0.531-1.891-0.531c-0.756,0-1.335,0.121-1.735,0.363
				c-0.477,0.28-0.715,0.705-0.715,1.274c0,0.504,0.285,0.91,0.854,1.218c0.242,0.14,0.854,0.351,1.834,0.63
				c1.316,0.393,2.184,0.714,2.604,0.966c0.831,0.505,1.246,1.209,1.246,2.114c0,0.878-0.35,1.568-1.05,2.072
				c-0.709,0.495-1.651,0.742-2.828,0.742c-1.176,0-2.1-0.252-2.771-0.756c-0.784-0.607-1.218-1.521-1.302-2.744h1.134
				c0.103,0.868,0.405,1.507,0.91,1.918c0.476,0.373,1.152,0.56,2.029,0.56c0.821,0,1.484-0.154,1.988-0.462s0.756-0.728,0.756-1.26
				c0-0.625-0.331-1.115-0.994-1.47c-0.252-0.149-0.956-0.393-2.113-0.729c-1.177-0.354-1.941-0.625-2.297-0.812
				c-0.765-0.448-1.147-1.093-1.147-1.933c0-0.877,0.368-1.554,1.105-2.029c0.663-0.448,1.513-0.673,2.549-0.673
				C440.482,23.475,441.368,23.731,442.003,24.245z"/>
			<path id="XMLID_341_" class="st3" d="M445.181,22.859h11.313v0.979h-5.208v5.292h5.74v0.966h-5.74v4.956h-1.036v-4.956h-5.628
				v-0.966h5.628v-5.292h-5.068V22.859z M446.889,24.735c0.542,0.998,1.046,2.067,1.513,3.206l-0.938,0.462
				c-0.467-1.186-0.971-2.254-1.512-3.206L446.889,24.735z M455.751,25.099c-0.411,1.074-0.966,2.156-1.666,3.248l-0.896-0.462
				c0.69-1.11,1.236-2.184,1.638-3.22L455.751,25.099z"/>
			<path id="XMLID_345_" class="st3" d="M458.957,26.849c1.232-0.42,2.758-1.969,4.578-4.647l1.036,0.35
				c-1.261,1.792-2.525,3.211-3.794,4.256c2.51-0.103,5.059-0.274,7.644-0.518c-0.569-0.803-1.115-1.507-1.638-2.114l0.91-0.434
				c1.194,1.391,2.314,2.939,3.359,4.647l-0.979,0.477c-0.178-0.299-0.523-0.854-1.036-1.666c-2.865,0.261-6.16,0.462-9.884,0.602
				L458.957,26.849z M469.499,29.243v5.838h-1.022v-0.7h-7.308v0.7h-1.021v-5.838H469.499z M461.169,33.415h7.308v-3.206h-7.308
				V33.415z"/>
		</g>
	</g>
	<g id="XMLID_32_">
		<rect id="XMLID_326_" x="277" y="28" class="st8" width="40" height="1"/>
	</g>
	<g id="XMLID_33_">
		<rect id="XMLID_325_" x="514" y="28" class="st8" width="38" height="1"/>
	</g>
</g>
<g id="XMLID_34_">
	<rect id="XMLID_214_" x="414" y="56" class="st8" width="1" height="103"/>
</g>
<g id="XMLID_60_">
	<path id="XMLID_311_" class="st9" d="M415,357h-1v-5h1V357z M415,347h-1v-5h1V347z M415,337h-1v-5h1V337z M415,327h-1v-5h1V327z
		 M415,317h-1v-5h1V317z M415,307h-1v-5h1V307z M415,297h-1v-5h1V297z M415,287h-1v-5h1V287z M415,277h-1v-5h1V277z M415,267h-1v-5
		h1V267z M415,257h-1v-5h1V257z M415,247h-1v-5h1V247z M415,237h-1v-5h1V237z"/>
</g>
<g id="XMLID_62_">
	<g id="XMLID_58_">
		<path id="XMLID_215_" class="st1" d="M828.5,323h-5.002v-1l5.002,0.002V323z M818.498,323h-5v-1h5V323z M808.498,323h-5v-1h5V323z
			 M798.498,323h-5v-1h5V323z M788.498,323h-5v-1h5V323z M778.498,323h-5v-1h5V323z M768.498,323h-5v-1h5V323z M758.498,323h-5v-1h5
			V323z M748.498,323h-5v-1h5V323z M738.498,323h-5v-1h5V323z M728.498,323h-5v-1h5V323z M718.498,323h-5v-1h5V323z M708.498,323h-5
			v-1h5V323z M698.498,323h-5v-1h5V323z M691.502,319.996h-1v-5h1V319.996z M828.5,317.002h-1v-5h1V317.002z M691.502,309.996h-1v-5
			h1V309.996z M828.5,307.002h-1v-5h1V307.002z M691.502,299.996h-1v-5h1V299.996z M828.5,297.002h-1v-5h1V297.002z
			 M691.502,289.996h-1v-5h1V289.996z M828.5,287.002h-1v-5h1V287.002z M691.502,279.996h-1v-5h1V279.996z M828.5,277.002h-1v-5h1
			V277.002z M691.502,269.996h-1v-5h1V269.996z M828.5,267.002h-1v-5h1V267.002z M691.502,259.996h-1v-5h1V259.996z M828.5,257.002
			h-1v-5h1V257.002z M691.502,249.996h-1v-5h1V249.996z M828.5,247.002h-1v-5h1V247.002z M691.502,239.996h-1v-5h1V239.996z
			 M828.5,237.002h-1v-5h1V237.002z M691.502,229.996h-1v-5h1V229.996z M828.5,227.002h-1v-5h1V227.002z M691.502,219.996h-1v-5h1
			V219.996z M828.5,217.002h-1v-5h1V217.002z M691.502,209.996h-1v-5h1V209.996z M828.5,207.002h-1v-5h1V207.002z M691.502,199.996
			h-1v-5h1V199.996z M828.5,197.002h-1v-5h1V197.002z M691.502,189.996h-1v-5h1V189.996z M828.5,187.002h-1v-5h1V187.002z
			 M691.502,179.996h-1v-5h1V179.996z M828.5,177.002h-1v-5h1V177.002z M691.502,169.996h-1v-5h1V169.996z M828.5,167.002h-1v-5h1
			V167.002z M691.502,159.996h-1v-5h1V159.996z M828.5,157.002h-1v-5h1V157.002z M691.502,149.996h-1v-5h1V149.996z M828.5,147.002
			h-1v-5h1V147.002z M691.502,139.996h-1v-5h1V139.996z M828.5,137.002h-1v-5h1V137.002z M691.502,129.996h-1v-5h1V129.996z
			 M828.5,127.002h-1v-5h1V127.002z M691.502,119.996h-1v-5h1V119.996z M828.5,117.002h-1v-5h1V117.002z M691.502,109.996h-1v-5h1
			V109.996z M828.5,107.002h-1v-5h1V107.002z M691.502,99.996h-1v-5h1V99.996z M828.5,97.002h-1v-5h1V97.002z M691.502,89.996h-1V89
			h0.5v-0.5h5v1h-4.5V89.996z M826.002,89.5h-5v-1h5V89.5z M816.002,89.5h-5v-1h5V89.5z M806.002,89.5h-5v-1h5V89.5z M796.002,89.5
			h-5v-1h5V89.5z M786.002,89.5h-5v-1h5V89.5z M776.002,89.5h-5v-1h5V89.5z M766.002,89.5h-5v-1h5V89.5z M756.002,89.5h-5v-1h5V89.5
			z M746.002,89.5h-5v-1h5V89.5z M736.002,89.5h-5v-1h5V89.5z M726.002,89.5h-5v-1h5V89.5z M716.002,89.5h-5v-1h5V89.5z
			 M706.002,89.5h-5v-1h5V89.5z"/>
	</g>
	<g id="XMLID_57_" class="st2">
		<path id="XMLID_194_" class="st3" d="M708.545,99.856c1.783,1.961,3.827,3.5,6.133,4.62l-0.546,0.967
			c-2.297-1.177-4.28-2.739-5.95-4.69c-1.513,1.82-3.515,3.388-6.006,4.704l-0.532-0.966c2.445-1.223,4.503-2.768,6.174-4.635
			H708.545z M708.069,103.552h1.022v3.15h3.821v0.966h-3.821v3.444h4.83v0.979h-11.648v-0.979h2.114v-5.544h0.994v5.544h2.688
			V103.552z"/>
		<path id="XMLID_197_" class="st3" d="M720.151,99.955h1.022v11.13h1.987v-11.13h1.022v11.13h4.2v0.979h-12.404v-0.979h4.172
			V99.955z M717.184,102.474c0.737,1.923,1.391,4.093,1.96,6.511l-0.924,0.237c-0.504-2.239-1.135-4.396-1.891-6.468
			L717.184,102.474z M728.006,102.754c-0.561,2.445-1.266,4.578-2.114,6.398l-0.91-0.322c0.821-1.661,1.53-3.771,2.128-6.328
			L728.006,102.754z"/>
		<path id="XMLID_201_" class="st3" d="M731.926,101.705c-0.355,0.579-0.729,1.083-1.12,1.512l-0.882-0.56
			c0.83-0.859,1.446-1.829,1.848-2.912l0.966,0.21l-0.35,0.868h3.752v0.882h-2.353c0.336,0.448,0.593,0.85,0.771,1.204l-0.924,0.35
			c-0.243-0.513-0.547-1.031-0.91-1.554H731.926z M742.117,103.651v2.533h-0.979v-1.666h-9.912v1.666h-0.98v-2.533h5.544
			c-0.14-0.337-0.284-0.64-0.434-0.91l0.979-0.168l-0.084-0.057c0.663-0.83,1.148-1.75,1.456-2.758l0.967,0.21
			c-0.112,0.336-0.215,0.621-0.309,0.854h4.046v0.882h-2.492c0.309,0.411,0.542,0.774,0.7,1.092l-0.896,0.336
			c-0.252-0.504-0.546-0.979-0.882-1.428h-0.883c-0.224,0.43-0.509,0.877-0.854,1.344l-0.756-0.462
			c0.177,0.373,0.326,0.728,0.448,1.064H742.117z M740.186,105.344v2.744h-6.986v0.966h7.63v3.599h-0.994v-0.589h-6.636v0.574
			h-1.008v-7.294H740.186z M733.199,107.277h6.006v-1.12h-6.006V107.277z M733.199,111.168h6.636v-1.302h-6.636V111.168z"/>
		<path id="XMLID_207_" class="st3" d="M744.092,104.995h1.498v-3.304h-1.694v-0.952h4.41v0.952h-1.681v3.304h1.526v0.979h-1.526
			v3.137c0.561-0.196,1.12-0.42,1.681-0.673v0.967c-1.279,0.56-2.726,1.045-4.34,1.456l-0.252-0.967
			c0.588-0.121,1.213-0.271,1.876-0.447v-3.473h-1.498V104.995z M749.132,100.361h6.733v6.481h-2.855v1.708h3.08v0.938h-3.08v1.777
			h3.527v0.967h-8.063v-0.967h3.527v-1.777h-3.107v-0.938h3.107v-1.708h-2.869V100.361z M750.098,103.174h1.903v-1.918h-1.903
			V103.174z M752.001,105.947v-1.904h-1.903v1.904H752.001z M753.01,101.256v1.918h1.89v-1.918H753.01z M754.899,105.947v-1.904
			h-1.89v1.904H754.899z"/>
	</g>
	<g id="XMLID_56_" class="st4">
		<rect id="XMLID_178_" x="714.486" y="125.997" class="st5" width="91.997" height="50"/>
	</g>
	<g id="XMLID_55_">
		<rect id="XMLID_189_" x="712.486" y="123.997" class="st6" width="91.997" height="50"/>
		<path id="XMLID_190_" class="st7" d="M804.983,174.497h-92.997v-51h92.997V174.497z M712.986,173.497h90.997v-49h-90.997V173.497z
			"/>
	</g>
	<g id="XMLID_54_" class="st2">
		<path id="XMLID_179_" class="st3" d="M745.808,144.001h7.084v0.994h-5.936v3.346h5.6v0.994h-5.6v3.668h6.174v0.994h-7.322V144.001
			z"/>
		<path id="XMLID_181_" class="st3" d="M754.726,144.001h4.313c0.998,0,1.782,0.229,2.352,0.687c0.598,0.485,0.896,1.185,0.896,2.1
			c0,0.551-0.154,1.045-0.462,1.484c-0.327,0.438-0.779,0.728-1.358,0.867v0.028c0.952,0.215,1.484,0.821,1.597,1.82l0.153,1.54
			c0.057,0.606,0.233,1.097,0.532,1.47h-1.246c-0.233-0.345-0.369-0.789-0.406-1.33l-0.126-1.33
			c-0.056-0.597-0.266-1.021-0.63-1.273c-0.326-0.243-0.808-0.364-1.441-0.364h-3.024v4.298h-1.148V144.001z M755.874,144.995v3.71
			h3.024c0.728,0,1.292-0.173,1.693-0.518c0.354-0.327,0.532-0.779,0.532-1.358c0-0.616-0.173-1.073-0.518-1.372
			c-0.364-0.308-0.934-0.462-1.708-0.462H755.874z"/>
		<path id="XMLID_184_" class="st3" d="M764.189,144.001h4.089c2.296,0,3.443,0.98,3.443,2.94c0,1.979-1.152,2.968-3.458,2.968
			h-2.926v4.088h-1.148V144.001z M765.338,144.995v3.92h2.87c0.793,0,1.391-0.163,1.792-0.49c0.383-0.326,0.574-0.821,0.574-1.483
			c0-0.682-0.196-1.167-0.588-1.456c-0.383-0.327-0.976-0.49-1.778-0.49H765.338z"/>
	</g>
	<g id="XMLID_53_" class="st4">
		<rect id="XMLID_166_" x="714.486" y="186.998" class="st5" width="91.997" height="50"/>
	</g>
	<g id="XMLID_52_">
		<rect id="XMLID_174_" x="712.486" y="184.998" class="st6" width="91.997" height="50"/>
		<path id="XMLID_175_" class="st7" d="M804.983,235.498h-92.997v-51h92.997V235.498z M712.986,234.498h90.997v-49h-90.997V234.498z
			"/>
	</g>
	<g id="XMLID_51_" class="st2">
		<path id="XMLID_167_" class="st3" d="M750.604,205.688c0.756,0.588,1.203,1.381,1.344,2.38h-1.106
			c-0.14-0.719-0.495-1.279-1.063-1.681c-0.542-0.373-1.205-0.56-1.988-0.56c-1.158,0-2.054,0.406-2.688,1.218
			c-0.589,0.756-0.883,1.755-0.883,2.996c0,1.26,0.289,2.249,0.868,2.968c0.616,0.775,1.507,1.162,2.674,1.162
			c0.794,0,1.47-0.21,2.03-0.63c0.598-0.457,0.994-1.115,1.189-1.974h1.106c-0.224,1.176-0.747,2.081-1.567,2.716
			c-0.775,0.606-1.695,0.91-2.759,0.91c-1.55,0-2.739-0.514-3.569-1.54c-0.747-0.915-1.121-2.119-1.121-3.612
			s0.383-2.711,1.148-3.654c0.83-1.055,2.025-1.582,3.584-1.582C748.914,204.806,749.847,205.1,750.604,205.688z"/>
		<path id="XMLID_169_" class="st3" d="M753.683,205.002h4.312c0.999,0,1.783,0.229,2.353,0.687c0.597,0.485,0.896,1.185,0.896,2.1
			c0,0.551-0.153,1.045-0.461,1.484c-0.327,0.438-0.779,0.728-1.358,0.867v0.028c0.952,0.215,1.483,0.821,1.597,1.82l0.153,1.54
			c0.056,0.606,0.233,1.097,0.532,1.47h-1.246c-0.233-0.345-0.369-0.789-0.406-1.33l-0.126-1.33
			c-0.056-0.597-0.267-1.021-0.63-1.273c-0.326-0.243-0.808-0.364-1.441-0.364h-3.025v4.298h-1.147V205.002z M754.83,205.996v3.71
			h3.025c0.728,0,1.292-0.173,1.693-0.518c0.354-0.327,0.531-0.779,0.531-1.358c0-0.616-0.172-1.073-0.518-1.372
			c-0.363-0.308-0.934-0.462-1.707-0.462H754.83z"/>
		<path id="XMLID_172_" class="st3" d="M763.146,205.002h1.428l3.725,8.526h0.042l3.71-8.526h1.428v9.996h-1.148v-7.952h-0.041
			l-3.459,7.952h-1.035l-3.458-7.952h-0.042v7.952h-1.148V205.002z"/>
	</g>
	<g id="XMLID_50_" class="st4">
		<rect id="XMLID_126_" x="714.486" y="246.999" class="st5" width="91.997" height="50"/>
	</g>
	<g id="XMLID_49_">
		<rect id="XMLID_162_" x="712.486" y="244.998" class="st6" width="91.997" height="50"/>
		<path id="XMLID_163_" class="st7" d="M804.983,295.498h-92.997v-51h92.997V295.498z M712.986,294.498h90.997v-49h-90.997V294.498z
			"/>
	</g>
	<g id="XMLID_43_">
		<g id="XMLID_48_">
			<circle class="st8" cx="743.485" cy="269.998" r="2"/>
		</g>
		<g id="XMLID_47_">
			<circle class="st8" cx="758.485" cy="269.998" r="2"/>
		</g>
		<g id="XMLID_46_">
			<circle class="st8" cx="773.485" cy="269.998" r="2"/>
		</g>
	</g>
</g>
<g id="XMLID_63_">
	<g id="XMLID_65_">
		<rect id="XMLID_161_" x="139" y="206.25" class="st8" width="18.976" height="1"/>
	</g>
	<g id="XMLID_64_">
		<polygon class="st10" points="155.976,211.25 160.976,206.75 155.976,202.25 		"/>
	</g>
</g>
<g id="XMLID_12_">
	<g id="XMLID_91_">
		<rect id="XMLID_160_" x="186.501" y="487.038" class="st8" width="1" height="18.977"/>
	</g>
	<g id="XMLID_90_">
		<polygon class="st10" points="191.501,489.038 187.001,484.038 182.501,489.038 		"/>
	</g>
</g>
<g id="XMLID_93_">
	<g id="XMLID_95_">
		<rect id="XMLID_159_" x="333.984" y="487.038" class="st8" width="1" height="18.977"/>
	</g>
	<g id="XMLID_94_">
		<polygon class="st10" points="338.984,489.038 334.484,484.038 329.984,489.038 		"/>
	</g>
</g>
<g id="XMLID_100_">
	<g id="XMLID_102_">
		<rect id="XMLID_158_" x="491.501" y="474.551" class="st8" width="1" height="18.976"/>
	</g>
	<g id="XMLID_101_">
		<polygon class="st10" points="487.501,491.526 492.001,496.526 496.501,491.526 		"/>
	</g>
</g>
<g id="XMLID_103_">
	<g id="XMLID_105_">
		<rect id="XMLID_157_" x="638.983" y="474.551" class="st8" width="1" height="18.976"/>
	</g>
	<g id="XMLID_104_">
		<polygon class="st10" points="634.984,491.526 639.484,496.526 643.984,491.526 		"/>
	</g>
</g>
<g id="XMLID_66_">
	<g id="XMLID_68_">
		<rect id="XMLID_155_" x="659.033" y="206.25" class="st8" width="18.976" height="1"/>
	</g>
	<g id="XMLID_67_">
		<polygon class="st10" points="676.009,211.25 681.009,206.75 676.009,202.25 		"/>
	</g>
</g>
<g id="XMLID_130_">
	<path id="XMLID_129_" class="st11" d="M389.59,581.106c-0.336,0.513-0.714,0.961-1.134,1.344l-0.602-0.756
		c0.663-0.607,1.227-1.475,1.694-2.604l0.91,0.196c-0.122,0.336-0.248,0.644-0.378,0.924h4.004v0.896h-2.114
		c-0.028,0.494-0.07,0.947-0.126,1.357h2.632v0.924h-2.842c-0.065,0.215-0.103,0.346-0.112,0.393
		c1.064,0.531,1.96,1.078,2.688,1.638l-0.714,0.714c-0.579-0.522-1.344-1.063-2.296-1.624c-0.56,0.98-1.536,1.792-2.926,2.437
		l-0.672-0.826c1.447-0.645,2.403-1.442,2.87-2.395l0.14-0.336h-2.814v-0.924h3.066c0.075-0.364,0.126-0.816,0.154-1.357H389.59z
		 M398.676,586.272v5.781h-1.022v-0.63h-6.93v0.63h-1.008v-5.781H398.676z M390.724,588.442h6.93v-1.274h-6.93V588.442z
		 M390.724,590.528h6.93v-1.204h-6.93V590.528z M395.064,580.14h4.606v5.124h-4.606V580.14z M398.69,584.368v-3.332h-2.646v3.332
		H398.69z"/>
	<path id="XMLID_137_" class="st11" d="M406.698,580.182c0.868,1.177,1.521,2.161,1.96,2.954l-0.826,0.588
		c-0.149-0.308-0.317-0.615-0.504-0.924c-1.447,0.233-3.234,0.406-5.362,0.519l-0.28-0.841c0.168-0.046,0.322-0.135,0.462-0.266
		c0.887-0.914,1.605-1.923,2.156-3.024l0.952,0.295c-0.653,1.26-1.363,2.239-2.128,2.939c1.241-0.074,2.487-0.191,3.738-0.35
		c-0.317-0.485-0.635-0.952-0.952-1.4L406.698,580.182z M403.478,589.38v2.674h-0.966v-7.896h5.236v6.565
		c0,0.821-0.392,1.232-1.176,1.232h-1.162l-0.252-0.952l1.078,0.042c0.355,0,0.532-0.178,0.532-0.532v-1.134H403.478z
		 M406.768,586.384v-1.344h-3.29v1.344H406.768z M403.478,587.224v1.303h3.29v-1.303H403.478z M410.31,585.264
		c-0.868,0-1.302-0.466-1.302-1.399v-4.677h0.994v1.862c1.512-0.233,2.772-0.48,3.78-0.742l0.322,0.883
		c-1.232,0.308-2.6,0.569-4.102,0.783v1.681c0,0.467,0.196,0.699,0.588,0.699h1.834c0.28,0,0.476-0.069,0.588-0.21
		c0.13-0.177,0.224-0.694,0.28-1.554l0.938,0.294c-0.093,1.111-0.271,1.797-0.532,2.059c-0.234,0.215-0.593,0.321-1.078,0.321
		H410.31z M410.03,590.402c0,0.336,0.182,0.504,0.546,0.504h1.834c0.28,0,0.476-0.07,0.588-0.21c0.14-0.178,0.238-0.705,0.294-1.582
		l0.924,0.294c-0.093,1.129-0.271,1.824-0.532,2.086c-0.233,0.215-0.598,0.322-1.092,0.322h-2.296c-0.84,0-1.26-0.401-1.26-1.204
		v-4.774h0.994v1.722c1.409-0.14,2.66-0.378,3.752-0.714l0.322,0.896c-1.213,0.354-2.571,0.602-4.074,0.742V590.402z"/>
	<path id="XMLID_144_" class="st11" d="M417.184,581.904c-0.252,0.56-0.545,1.021-0.882,1.386l-0.812-0.588
		c0.699-0.756,1.148-1.797,1.344-3.122l0.952,0.154c-0.075,0.476-0.163,0.887-0.267,1.231h1.625v-1.736h1.008v1.736h2.617v0.938
		h-2.617v1.806h3.023v0.938h-3.023v1.47h2.729v3.696c0,0.83-0.42,1.245-1.26,1.245h-0.742l-0.252-0.951l0.687,0.042
		c0.4,0,0.602-0.183,0.602-0.547v-2.548h-1.764v4.984h-1.008v-4.984h-1.778v4.103h-0.979v-5.04h2.758v-1.47h-3.389v-0.938h3.389
		v-1.806H417.184z M424.002,580.49h0.98v8.651h-0.98V580.49z M424.506,591.9l-0.224-0.967c0.747,0.047,1.39,0.07,1.932,0.07
		c0.429,0,0.644-0.224,0.644-0.672v-11.103h0.994v11.354c0,0.877-0.43,1.316-1.287,1.316H424.506z"/>
	<path id="XMLID_148_" class="st11" d="M438.898,591.774c-0.467,0-1.298-0.01-2.492-0.028c-0.906-0.019-1.639-0.103-2.198-0.252
		c-0.532-0.168-1.022-0.509-1.47-1.022c-0.196-0.232-0.379-0.35-0.547-0.35c-0.363,0-0.933,0.653-1.707,1.96l-0.742-0.687
		c0.766-1.203,1.433-1.927,2.002-2.17v-4.256h-1.988v-0.924h2.926v5.236c0.104,0.074,0.215,0.182,0.336,0.321
		c0.336,0.402,0.7,0.696,1.092,0.883c0.439,0.195,1.074,0.308,1.904,0.336c0.971,0.019,1.886,0.027,2.744,0.027
		c0.439,0,1.135-0.009,2.086-0.027c0.784-0.02,1.32-0.038,1.61-0.057l-0.252,1.009H438.898z M430.777,579.3
		c0.925,0.747,1.718,1.517,2.381,2.311l-0.7,0.699c-0.606-0.765-1.396-1.554-2.366-2.365L430.777,579.3z M435.496,581.806
		c-0.252,0.514-0.523,0.98-0.813,1.4l-0.84-0.519c0.7-0.951,1.204-2.006,1.512-3.163l0.91,0.195
		c-0.111,0.42-0.238,0.808-0.377,1.162h1.777v-1.68h0.966v1.68h2.87v0.924h-2.87v1.792h3.599v0.91h-8.568v-0.91h4.004v-1.792
		H435.496z M434.824,585.656h6.355v3.962h-6.355V585.656z M440.214,588.68v-2.086h-4.424v2.086H440.214z"/>
</g>
</svg>
