<?xml version="1.0" encoding="UTF-8"?>
<svg width="777px" height="553px" viewBox="0 0 777 553" version="1.1" xmlns="http://www.w3.org/2000/svg" xmlns:xlink="http://www.w3.org/1999/xlink">
    <!-- Generator: Sketch 52.5 (67469) - http://www.bohemiancoding.com/sketch -->
    <title>iPhone XR Copy 2</title>
    <desc>Created with Sketch.</desc>
    <g id="iPhone-XR-Copy-2" stroke="none" stroke-width="1" fill="none" fill-rule="evenodd">
        <g id="Group-20" transform="translate(0.000000, 9.000000)">
            <path d="M317.142578,0.798828125 L317.142578,164.986328 L0.998046875,164.986328 L0.998046875,0.798828125 L317.142578,0.798828125 Z" id="Path-Copy-23" stroke="#BABABA" stroke-dasharray="5"></path>
            <path d="M317.142578,184.794922 L317.142578,348.982422 L0.998046875,348.982422 L0.998046875,184.794922 L317.142578,184.794922 Z" id="Path-Copy-24" stroke="#BABABA" stroke-dasharray="5"></path>
            <path d="M317.142578,368.927734 L317.142578,533.115234 L0.998046875,533.115234 L0.998046875,368.927734 L317.142578,368.927734 Z" id="Path-Copy-25" stroke="#BABABA" stroke-dasharray="5"></path>
            <g id="Group-18-Copy-5" transform="translate(397.546875, 93.701172)">
                <g id="BlueRectGroup8-Copy" transform="translate(0.251953, 0.921875)" fill="#CEE3FF">
                    <polygon id="Rectangle" points="5.11396481e-15 9.20135279e-15 169.439453 0 169.439453 329.078125 -5.96855898e-13 329.078125"></polygon>
                </g>
                <g id="RectEndPoint12-Copy-2" transform="translate(21.691406, 184.992188)">
                    <rect id="Rectangle" fill="#BBBBBB" opacity="0.6" x="2" y="2" width="126" height="50"></rect>
                    <rect id="Rectangle" stroke="#E5E5E5" fill="#FFFFFF" x="0" y="0" width="126" height="50"></rect>
                    <g id="Group" transform="translate(35.000000, 15.000000)" fill="#444444" font-family="PingFangSC-Regular, PingFang SC" font-size="14" font-weight="normal">
                        <text id="数据中心">
                            <tspan x="0" y="15">数据中心</tspan>
                        </text>
                    </g>
                </g>
                <g id="RectEndPoint12-Copy-7" transform="translate(21.691406, 256.992188)">
                    <rect id="Rectangle" fill="#BBBBBB" opacity="0.6" x="2" y="2" width="126" height="50"></rect>
                    <rect id="Rectangle" stroke="#E5E5E5" fill="#FFFFFF" x="0" y="0" width="126" height="50"></rect>
                    <g id="Group" transform="translate(35.000000, 15.000000)" fill="#444444" font-family="PingFangSC-Regular, PingFang SC" font-size="14" font-weight="normal">
                        <text id="算法仓库">
                            <tspan x="0" y="15">算法仓库</tspan>
                        </text>
                    </g>
                </g>
                <g id="RectEndPoint13-Copy-2" transform="translate(21.691406, 112.992188)">
                    <rect id="Rectangle" fill="#BBBBBB" opacity="0.6" x="2" y="2" width="125" height="50"></rect>
                    <rect id="Rectangle" stroke="#E5E5E5" fill="#FFFFFF" x="0" y="0" width="125" height="50"></rect>
                    <g id="Group" transform="translate(32.500000, 15.000000)" fill="#444444" font-family="PingFangSC-Regular, PingFang SC" font-size="14" font-weight="normal">
                        <text id="AI-工作室">
                            <tspan x="0" y="15">AI 工作室</tspan>
                        </text>
                    </g>
                </g>
                <g id="RectEndPoint14-Copy-2" transform="translate(21.691406, 40.992188)">
                    <rect id="Rectangle" fill="#BBBBBB" opacity="0.6" x="2" y="2" width="126" height="50"></rect>
                    <rect id="Rectangle" stroke="#E5E5E5" fill="#FFFFFF" x="0" y="0" width="126" height="50"></rect>
                    <g id="Group" transform="translate(35.000000, 15.000000)" fill="#444444" font-family="PingFangSC-Regular, PingFang SC" font-size="14" font-weight="normal">
                        <text id="设备中心">
                            <tspan x="0" y="15">设备中心</tspan>
                        </text>
                    </g>
                </g>
                <g id="Textbasic21-Copy" transform="translate(32.125000, 10.462979)">
                    <rect id="Rectangle" fill="#CEE3FF" opacity="0" x="0" y="0" width="80" height="20"></rect>
                    <g id="Group" transform="translate(0.000000, 1.000000)" fill="#00A4FF" font-family="PingFangSC-Regular, PingFang SC" font-size="12" font-weight="normal">
                        <text id="云智天枢平台">
                            <tspan x="0" y="13">云智天枢平台</tspan>
                        </text>
                    </g>
                </g>
                <g id="Group-19-Copy" transform="translate(8.087891, 11.872070)" fill-rule="nonzero">
                    <g id="Group-2" transform="translate(8.123202, 8.766055) rotate(-45.000000) translate(-8.123202, -8.766055) translate(2.395929, 3.038782)">
                        <path d="M1.75454502,10.0249023 L1.75454502,4.29762962 C1.75454502,2.18890603 3.46400324,0.479447798 5.57272683,0.479447798 L5.57272683,0.479447798 C7.68145042,0.479447798 9.39090865,2.18890603 9.39090865,4.29762962 L9.39090865,10.0249023" id="Path-Copy-8" stroke="#00A4FF" stroke-width="1.6"></path>
                        <circle id="Oval-Copy-14" fill="#00A4FF" cx="1.75454502" cy="9.51654523" r="1.59090909"></circle>
                        <circle id="Oval-Copy-15" fill="#00A4FF" cx="9.39090865" cy="9.51654523" r="1.59090909"></circle>
                    </g>
                    <g id="Group-2-Copy" transform="translate(12.612948, 8.237548) scale(-1, -1) rotate(-45.000000) translate(-12.612948, -8.237548) translate(6.885675, 2.510276)">
                        <path d="M1.75454502,10.0249023 L1.75454502,4.29762962 C1.75454502,2.18890603 3.46400324,0.479447798 5.57272683,0.479447798 L5.57272683,0.479447798 C7.68145042,0.479447798 9.39090865,2.18890603 9.39090865,4.29762962 L9.39090865,10.0249023" id="Path-Copy-8" stroke="#00A4FF" stroke-width="1.6"></path>
                        <circle id="Oval-Copy-14" fill="#00A4FF" cx="1.75454502" cy="9.51654523" r="1.59090909"></circle>
                        <circle id="Oval-Copy-15" fill="#00A4FF" cx="9.39090865" cy="9.51654523" r="1.59090909"></circle>
                    </g>
                </g>
            </g>
            <g id="GrayRectGroup9-Copy-6" transform="translate(607.767578, 123.177734)" fill="#EAEBEC">
                <polygon id="Rectangle" points="1.76247905e-15 0 168.496094 0 168.496094 266.494141 -5.96855898e-13 266.494141"></polygon>
            </g>
            <g id="Link17-Copy-5" transform="translate(317.142578, 83.677734)">
                <polyline id="Shape" stroke="#888888" points="0.5 0.86328125 39.5 0.86328125 39.5 185.5 78.5 185.5"></polyline>
                <g id="Group" transform="translate(73.500000, 181.000000)" fill="#888888">
                    <polygon id="Path" points="0.5 9 6.5 4.5 0.5 0"></polygon>
                </g>
                <path d="M39.5,44.5 L39.5,185.5" id="Path" stroke-opacity="0" stroke="#FF0000" stroke-width="15"></path>
                <path d="M39.5,185.5 L78.5,185.5" id="Path" stroke-opacity="0" stroke="#FF0000" stroke-width="15"></path>
            </g>
            <polyline id="Shape-Copy-3" stroke="#888888" points="317.642578 450.300781 356.642578 450.300781 356.642578 269.177734 395.642578 269.177734"></polyline>
            <g id="Group-Copy-7" transform="translate(390.642578, 264.677734)" fill="#888888">
                <polygon id="Path" points="0.5 9 6.5 4.5 0.5 0"></polygon>
            </g>
            <path d="M356.642578,410.177734 L356.642578,269.177734" id="Path-Copy-26" stroke-opacity="0" stroke="#FF0000" stroke-width="15"></path>
            <path d="M356.642578,269.177734 L395.642578,269.177734" id="Path-Copy-27" stroke-opacity="0" stroke="#FF0000" stroke-width="15"></path>
            <g id="Group-19-Copy-6" transform="translate(568.546875, 263.888672)">
                <path d="M0.138671875,5.421875 L39.1386719,5.421875" id="Path" stroke="#888888"></path>
                <g id="Group" transform="translate(34.138672, 0.921875)" fill="#888888">
                    <polygon id="Path" points="0.5 9 6.5 4.5 0.5 0"></polygon>
                </g>
                <path d="M0.138671875,5.421875 L39.1386719,5.421875" id="Path" stroke-opacity="0" stroke="#FF0000" stroke-width="15"></path>
            </g>
            <path d="M588.970703,410.177734 L627.970703,410.177734" id="Path-Copy-28" stroke-opacity="0" stroke="#FF0000" stroke-width="15"></path>
            <g id="RectEndPoint13-Copy-23" transform="translate(170.142578, 204.927734)">
                <rect id="Rectangle" fill="#BBBBBB" opacity="0.6" x="2" y="2" width="125" height="50"></rect>
                <rect id="Rectangle" stroke="#E5E5E5" fill="#FFFFFF" x="0" y="0" width="125" height="50"></rect>
                <g id="Group" transform="translate(33.000000, 15.000000)" fill="#444444" font-family="PingFangSC-Regular, PingFang SC" font-size="14" font-weight="normal">
                    <text id="NAS数据">
                        <tspan x="0" y="15">NAS数据</tspan>
                    </text>
                </g>
            </g>
            <g id="RectEndPoint13-Copy-24" transform="translate(170.142578, 389.060547)">
                <rect id="Rectangle" fill="#BBBBBB" opacity="0.6" x="2" y="2" width="125" height="50"></rect>
                <rect id="Rectangle" stroke="#E5E5E5" fill="#FFFFFF" x="0" y="0" width="125" height="50"></rect>
                <g id="Group" transform="translate(33.000000, 15.000000)" fill="#444444" font-family="PingFangSC-Regular, PingFang SC" font-size="14" font-weight="normal">
                    <text id="物体识别">
                        <tspan x="0.5" y="15">物体识别</tspan>
                    </text>
                </g>
            </g>
            <g id="RectEndPoint13-Copy-25" transform="translate(628.263672, 244.991211)">
                <rect id="Rectangle" fill="#BBBBBB" opacity="0.6" x="2" y="2" width="125" height="50"></rect>
                <rect id="Rectangle" stroke="#E5E5E5" fill="#FFFFFF" x="0" y="0" width="125" height="50"></rect>
                <g id="Group" transform="translate(20.000000, 15.000000)" fill="#444444" font-family="PingFangSC-Regular, PingFang SC" font-size="14" font-weight="normal">
                    <text id="故障自动开单">
                        <tspan x="0.5" y="15">故障自动开单</tspan>
                    </text>
                </g>
            </g>
            <g id="RectEndPoint13-Copy-26" transform="translate(628.263672, 317.203125)">
                <rect id="Rectangle" fill="#BBBBBB" opacity="0.6" x="2" y="2" width="125" height="50"></rect>
                <rect id="Rectangle" stroke="#E5E5E5" fill="#FFFFFF" x="0" y="0" width="125" height="50"></rect>
                <g id="Group" transform="translate(19.000000, 15.000000)" fill="#444444" font-family="PingFangSC-Regular, PingFang SC" font-size="14" font-weight="normal">
                    <text id="其他更多功能">
                        <tspan x="0" y="15">其他更多功能</tspan>
                    </text>
                </g>
            </g>
            <g id="RectEndPoint14-Copy-32" transform="translate(22.871094, 92.931641)">
                <polygon id="Rectangle" fill="#BBBBBB" opacity="0.6" points="2 2 274.271484 2 274.271484 52 2 52"></polygon>
                <polygon id="Rectangle" stroke="#E5E5E5" fill="#FFFFFF" points="0 -1.38555833e-13 272.5 -2.27373675e-13 272.5 50 0 50"></polygon>
                <g id="Group" transform="translate(94.250000, 15.000000)" fill="#444444" font-family="PingFangSC-Regular, PingFang SC" font-size="14" font-weight="normal">
                    <text id="其他智能终端">
                        <tspan x="0" y="15">其他智能终端</tspan>
                    </text>
                </g>
            </g>
            <g id="RectEndPoint14-Copy-33" transform="translate(22.871094, 22.757812)">
                <polygon id="Rectangle" fill="#BBBBBB" opacity="0.6" points="2 2 274.271484 2 274.271484 52 2 52"></polygon>
                <polygon id="Rectangle" stroke="#E5E5E5" fill="#FFFFFF" points="0 -1.38555833e-13 272.5 -2.27373675e-13 272.5 50 0 50"></polygon>
                <g id="Group" transform="translate(94.250000, 15.000000)" fill="#444444" font-family="PingFangSC-Regular, PingFang SC" font-size="14" font-weight="normal">
                    <text id="工业摄像头">
                        <tspan x="0" y="15">工业摄像头</tspan>
                    </text>
                </g>
            </g>
            <g id="RectEndPoint14-Copy-34" transform="translate(22.871094, 276.927734)">
                <polygon id="Rectangle" fill="#BBBBBB" opacity="0.6" points="2 2 274.271484 2 274.271484 52 2 52"></polygon>
                <polygon id="Rectangle" stroke="#E5E5E5" fill="#FFFFFF" points="0 -1.38555833e-13 272.5 -2.27373675e-13 272.5 50 0 50"></polygon>
                <g id="Group" transform="translate(94.250000, 15.000000)" fill="#444444" font-family="PingFangSC-Regular, PingFang SC" font-size="14" font-weight="normal">
                    <text id="其他类型数据">
                        <tspan x="0" y="15">其他类型数据</tspan>
                    </text>
                </g>
            </g>
            <g id="RectEndPoint14-Copy-35" transform="translate(22.871094, 461.060547)">
                <polygon id="Rectangle" fill="#BBBBBB" opacity="0.6" points="2 2 274.271484 2 274.271484 52 2 52"></polygon>
                <polygon id="Rectangle" stroke="#E5E5E5" fill="#FFFFFF" points="0 -1.38555833e-13 272.5 -2.27373675e-13 272.5 50 0 50"></polygon>
                <g id="Group" transform="translate(94.250000, 15.000000)" fill="#444444" font-family="PingFangSC-Regular, PingFang SC" font-size="14" font-weight="normal">
                    <text id="其他智能算法">
                        <tspan x="0" y="15">其他智能算法</tspan>
                    </text>
                </g>
            </g>
            <g id="RectEndPoint14-Copy-36" transform="translate(22.142578, 204.927734)">
                <rect id="Rectangle" fill="#BBBBBB" opacity="0.6" x="2" y="2" width="126" height="50"></rect>
                <rect id="Rectangle" stroke="#E5E5E5" fill="#FFFFFF" x="0" y="0" width="126" height="50"></rect>
                <g id="Group" transform="translate(33.000000, 15.000000)" fill="#444444" font-family="PingFangSC-Regular, PingFang SC" font-size="14" font-weight="normal">
                    <text id="MES数据">
                        <tspan x="0" y="15">MES数据</tspan>
                    </text>
                </g>
            </g>
            <g id="RectEndPoint14-Copy-37" transform="translate(22.142578, 389.060547)">
                <rect id="Rectangle" fill="#BBBBBB" opacity="0.6" x="2" y="2" width="126" height="50"></rect>
                <rect id="Rectangle" stroke="#E5E5E5" fill="#FFFFFF" x="0" y="0" width="126" height="50"></rect>
                <g id="Group" transform="translate(34.000000, 15.000000)" fill="#444444" font-family="PingFangSC-Regular, PingFang SC" font-size="14" font-weight="normal">
                    <text id="缺陷识别">
                        <tspan x="0.5" y="15">缺陷识别</tspan>
                    </text>
                </g>
            </g>
            <g id="RectEndPoint14-Copy-38" transform="translate(628.263672, 172.936523)">
                <rect id="Rectangle" fill="#BBBBBB" opacity="0.6" x="2" y="2" width="126" height="50"></rect>
                <rect id="Rectangle" stroke="#E5E5E5" fill="#FFFFFF" x="0" y="0" width="126" height="50"></rect>
                <g id="Group" transform="translate(21.000000, 15.000000)" fill="#444444" font-family="PingFangSC-Regular, PingFang SC" font-size="14" font-weight="normal">
                    <text id="产品缺陷检测">
                        <tspan x="0" y="15">产品缺陷检测</tspan>
                    </text>
                </g>
            </g>
            <g id="Textbasic22-Copy-6" transform="translate(625.767578, 132.936523)">
                <rect id="Rectangle" fill="#CEE3FF" opacity="0" x="0" y="0" width="102" height="20"></rect>
                <g id="Group" transform="translate(0.000000, 1.000000)" fill="#878787" font-family="PingFangSC-Regular, PingFang SC" font-size="12" font-weight="normal">
                    <text id="产品质量检测应用">
                        <tspan x="0" y="13">产品质量检测应用</tspan>
                    </text>
                </g>
            </g>
            <path d="M356.642578,269.177734 L317.769531,269.177734" id="Path-10-Copy-3" stroke="#979797" fill-rule="nonzero"></path>
        </g>
    </g>
</svg>