<?xml version="1.0" encoding="utf-8"?>
<!-- Generator: Adobe Illustrator 23.0.3, SVG Export Plug-In . SVG Version: 6.00 Build 0)  -->
<svg version="1.1" id="图层_1" xmlns="http://www.w3.org/2000/svg" xmlns:xlink="http://www.w3.org/1999/xlink" x="0px" y="0px"
	 width="32px" height="32px" viewBox="0 0 32 32" style="enable-background:new 0 0 32 32;" xml:space="preserve">
<style type="text/css">
	.投影{fill:none;}
	.外发光_x0020_5_x0020_pt{fill:none;}
	.蓝色霓虹灯{fill:none;stroke:#8AACDA;stroke-width:7;stroke-linecap:round;stroke-linejoin:round;}
	.铬黄色高光{fill:url(#SVGID_1_);stroke:#FFFFFF;stroke-width:0.3629;stroke-miterlimit:1;}
	.摇摆_GS{fill:#FFDD00;}
	.阿莉莎_GS{fill:#A6D0E4;}
	.st0{fill:#00A4FF;}
</style>
<linearGradient id="SVGID_1_" gradientUnits="userSpaceOnUse" x1="0" y1="0" x2="6.123234e-17" y2="-1">
	<stop  offset="0" style="stop-color:#656565"/>
	<stop  offset="0.618" style="stop-color:#1B1B1B"/>
	<stop  offset="0.6292" style="stop-color:#545454"/>
	<stop  offset="0.9831" style="stop-color:#3E3E3E"/>
</linearGradient>
<path class="st0" d="M15.7,28H6V4h14.6L26,9.4v5.7c0.7,0.1,1.4,0.3,2,0.5V8.6L21.4,2H4v28h12.8C16.3,29.4,16,28.7,15.7,28z"/>
<g>
	<rect x="8" y="11" class="st0" width="11" height="2"/>
</g>
<g>
	<rect x="8" y="17" class="st0" width="7" height="2"/>
</g>
<g>
	<path class="st0" d="M24.5,32c-4.1,0-7.5-3.4-7.5-7.5s3.4-7.5,7.5-7.5s7.5,3.4,7.5,7.5S28.6,32,24.5,32z M24.5,19
		c-3,0-5.5,2.5-5.5,5.5s2.5,5.5,5.5,5.5s5.5-2.5,5.5-5.5S27.5,19,24.5,19z"/>
</g>
<g>
	<polygon class="st0" points="26.2,28.9 23.2,24.9 22.6,26 20,26 20,24 21.4,24 22.8,21.1 25.8,25.1 26.4,24 29,24 29,26 27.6,26 	
		"/>
</g>
</svg>
