<?xml version="1.0" encoding="utf-8"?>
<!-- Generator: Adobe Illustrator 23.0.2, SVG Export Plug-In . SVG Version: 6.00 Build 0)  -->
<svg version="1.1" id="图层_1" xmlns="http://www.w3.org/2000/svg" xmlns:xlink="http://www.w3.org/1999/xlink" x="0px" y="0px"
	 width="32px" height="32px" viewBox="0 0 32 32" style="enable-background:new 0 0 32 32;" xml:space="preserve">
<style type="text/css">
	.st0{fill-rule:evenodd;clip-rule:evenodd;fill:#FFFFFF;}
	.st1{fill:#FFFFFF;}
</style>
<g>
	<g id="Group-15" transform="translate(1.000000, 2.000000)">
		<rect id="Rectangle-78" x="2" y="2" class="st0" width="28" height="2"/>
		<rect id="Rectangle-78-Copy" y="24" class="st0" width="29" height="2"/>
		<rect id="Rectangle-79" y="9" class="st0" width="2" height="17"/>
		<rect id="Rectangle-79-Copy" x="28" y="2" class="st0" width="2" height="17"/>
		<circle id="Oval-30" class="st0" cx="1" cy="3" r="2"/>
		<circle id="Oval-30-Copy" class="st0" cx="29" cy="25" r="2"/>
	</g>
	<g>
		<rect id="Rectangle-path" x="18.7" y="7.9" class="st1" width="1.6" height="7"/>
		<rect id="Rectangle-path_15_" x="14.1" y="7.9" class="st1" width="1.6" height="7"/>
		<rect id="Rectangle-path_16_" x="11.7" y="7.9" class="st1" width="6" height="1.6"/>
	</g>
	<g>
		<rect id="Rectangle-path_11_" x="6.5" y="22.3" class="st1" width="5" height="1.6"/>
		<rect id="Rectangle-path_14_" x="6.5" y="19.6" class="st1" width="5" height="1.6"/>
		<rect id="Rectangle-path_13_" x="6.5" y="16.9" class="st1" width="1.6" height="7"/>
		<rect id="Rectangle-path_12_" x="6.5" y="16.9" class="st1" width="5" height="1.6"/>
		<rect id="Rectangle-path_30_" x="20.5" y="22.3" class="st1" width="5" height="1.6"/>
		<rect id="Rectangle-path_29_" x="20.5" y="19.6" class="st1" width="5" height="1.6"/>
		<rect id="Rectangle-path_10_" x="20.5" y="16.9" class="st1" width="1.6" height="4"/>
		<rect id="Rectangle-path_31_" x="23.9" y="19.9" class="st1" width="1.6" height="4"/>
		<rect id="Rectangle-path_9_" x="20.5" y="16.9" class="st1" width="5" height="1.6"/>
		<rect id="Rectangle-path_28_" x="12.5" y="16.9" class="st1" width="1.6" height="7"/>
		<rect id="Rectangle-path_27_" x="15.2" y="16.9" class="st1" width="1.6" height="7"/>
		<rect id="Rectangle-path_26_" x="12.5" y="16.9" class="st1" width="7" height="1.6"/>
		<rect id="Rectangle-path_25_" x="17.9" y="17.6" class="st1" width="1.6" height="6.3"/>
	</g>
</g>
</svg>
