<svg xmlns="http://www.w3.org/2000/svg" width="32" height="32" viewBox="0 0 32 32">
  <title>05棋牌</title>
  <g>
    <path d="M27,7.5v9.2a11.583,11.583,0,0,1-1.4,4.8c-1.8,3.4-5.1,5.7-9.6,6.9C5.3,25.8,5,17.1,5,16.7V3.5H29v-2H3V16.7s.1,10.8,13,13.8c12.9-3,13-13.8,13-13.8V7.5Z" style="fill: #fff"/>
    <path d="M22.373,20.3H9.673V7.6h12.7Zm-11-1.7h9.3V9.3h-9.3Z" style="fill: #fff"/>
    <rect x="10.523" y="13.018" width="11" height="1.7" style="fill: #fff"/>
    <rect x="10.523" y="13.018" width="11" height="1.7" transform="translate(2.155 29.89) rotate(-90)" style="fill: #fff"/>
    <circle cx="16.023" cy="13.868" r="2.5" style="fill: #fff"/>
  </g>
</svg>
