<?xml version="1.0" encoding="UTF-8"?>
<svg width="48px" height="48px" viewBox="0 0 48 48" version="1.1" xmlns="http://www.w3.org/2000/svg" xmlns:xlink="http://www.w3.org/1999/xlink">
    <!-- Generator: Sketch 52.2 (67145) - http://www.bohemiancoding.com/sketch -->
    <title>发起呼叫-48x48</title>
    <desc>Created with Sketch.</desc>
    <g id="发起呼叫-48x48" stroke="none" stroke-width="1" fill="none" fill-rule="evenodd">
        <circle id="Oval-18" fill="#00A4FF" cx="25" cy="23" r="10"></circle>
        <path d="M28.3864748,33.3442514 L24.5787105,37.152146 C24.5787105,37.152146 20.7719479,34.8473677 16.9661871,31.0394731 C13.1594245,27.2315785 10.8553314,23.4236839 10.8553314,23.4236839 L14.662094,19.6157892 L7.04756702,12 L3.24080444,15.8078946 L1.738135,17.3110109 C-0.766314064,19.8162047 3.24080444,28.0332405 11.6567551,36.350484 C20.0707022,44.6677275 28.1861189,48.7762454 30.690568,46.2710516 L32.1932374,44.7679353 L36,40.9600407 L28.3864748,33.3442514 Z" id="Stroke-1" stroke="#334966" stroke-width="2"></path>
        <path d="M25,0.0223226788 C25.3314775,0.00749369946 25.6648636,0 26,0 C38.1502645,0 48,9.8497355 48,22 C48,22.3351364 47.9925063,22.6685225 47.9776773,23 L45.975435,23 C45.9917477,22.6687221 46,22.3353248 46,22 C46,10.954305 37.045695,2 26,2 C25.6646752,2 25.3312779,2.00825234 25,2.02456501 L25,0.0223226788 Z M24,8.03280455 C24.3305236,8.01104935 24.6639714,8 25,8 C33.2842712,8 40,14.7157288 40,23 C40,23.3360286 39.9889506,23.6694764 39.9671954,24 L37.9621104,24 C37.9872171,23.6699584 38,23.336472 38,23 C38,15.8202983 32.1797017,10 25,10 C24.663528,10 24.3300416,10.0127829 24,10.0378896 L24,8.03280455 Z M23,16.0618938 C23.3275942,16.0210433 23.6613397,16 24,16 C28.418278,16 32,19.581722 32,24 C32,24.3386603 31.9789567,24.6724058 31.9381062,25 L29.9170416,25 C29.9716012,24.6747915 30,24.3407122 30,24 C30,20.6862915 27.3137085,18 24,18 C23.6592878,18 23.3252085,18.0283988 23,18.0829584 L23,16.0618938 Z" id="Combined-Shape" fill="#334966" fill-rule="nonzero"></path>
    </g>
</svg>