<?xml version="1.0" encoding="UTF-8"?>
<svg width="48px" height="48px" viewBox="0 0 48 48" version="1.1" xmlns="http://www.w3.org/2000/svg" xmlns:xlink="http://www.w3.org/1999/xlink">
    <!-- Generator: Sketch 52.5 (67469) - http://www.bohemiancoding.com/sketch -->
    <title>沙龙</title>
    <desc>Created with Sketch.</desc>
    <g id="沙龙" stroke="none" stroke-width="1" fill="none" fill-rule="evenodd">
        <g id="Group">
            <path d="M24,0 C10.745,0 0,10.745 0,24 C0,37.255 10.745,48 24,48 C37.255,48 48,37.255 48,24 C48,10.745 37.255,0 24,0 M24,2 C36.131,2 46,11.869 46,24 C46,36.131 36.131,46 24,46 C11.869,46 2,36.131 2,24 C2,11.869 11.869,2 24,2" id="Fill-1-Copy" fill="#334966"></path>
            <circle id="Oval-49-Copy-5" fill="#00A4FF" cx="24" cy="16" r="5"></circle>
            <circle id="Oval-49-Copy-6" fill="#00A4FF" cx="14" cy="26" r="4"></circle>
            <circle id="Oval-49-Copy-7" fill="#00A4FF" cx="31" cy="32" r="4"></circle>
            <circle id="Oval-49-Copy-8" stroke="#334966" stroke-width="2" cx="29" cy="16" r="4"></circle>
            <circle id="Oval-49-Copy-9" stroke="#334966" stroke-width="2" cx="27" cy="32" r="3"></circle>
            <circle id="Oval-49-Copy-10" stroke="#334966" stroke-width="2" cx="14" cy="26" r="3"></circle>
            <path d="M16,25.0889492 L26,18" id="Path-6-Copy" stroke="#334966" stroke-width="2"></path>
            <path d="M16,28 L24,30.9110508" id="Path-6-Copy-2" stroke="#334966" stroke-width="2"></path>
        </g>
    </g>
</svg>