<svg id="图层_1" data-name="图层 1" xmlns="http://www.w3.org/2000/svg" width="759.5" height="306.833" viewBox="0 0 759.5 306.833">
  <title>应用场景图04</title>
  <g id="bottomgroup">
    <g id="GrayRectGroup28">
      <rect x="275.5" y="145.833" width="303" height="161" style="fill: #eaebec"/>
      <g>
        <path d="M327.869,174.739l-.448-1.429a15.051,15.051,0,0,0,3.193-5.533l1.261.589a16.434,16.434,0,0,1-1.387,3.025V180.8h-1.345v-7.479C328.751,173.8,328.317,174.277,327.869,174.739Zm3.88-.238-.953-1.148a17.1,17.1,0,0,0,2.97-5.617l1.345.295q-.3.882-.616,1.681h5.771v1.3h-4.5v2H339.7V174.3h-3.937v2.059h3.964v1.274h-3.964V180.8h-1.345v-9.791h-.5a17.442,17.442,0,0,1-2.172,3.491Z" transform="translate(-41.5 -9.5)" style="fill: #444"/>
        <path d="M347.149,167.959v11.01h1.681v-11.01h1.331v11.01h4.09v1.3H341.756v-1.3h4.062v-11.01Zm-2.073,9.007-1.219.308a51.461,51.461,0,0,0-1.821-6.373l1.135-.364A50.036,50.036,0,0,1,345.076,176.966Zm8.881-6.065a30.652,30.652,0,0,1-2.06,6.317l-1.19-.42a30.5,30.5,0,0,0,2.073-6.233Z" transform="translate(-41.5 -9.5)" style="fill: #444"/>
        <path d="M356.863,171.335l-1.163-.729a7.949,7.949,0,0,0,1.737-2.83l1.274.28c-.084.238-.182.477-.266.7h3.529v1.163h-2.1a8.583,8.583,0,0,1,.644,1.009l-1.218.462a12.743,12.743,0,0,0-.812-1.471h-.617A11.664,11.664,0,0,1,356.863,171.335Zm11.164,2.941h-1.3v-1.555h-9.441v1.555h-1.3V171.6H361.4a6.356,6.356,0,0,0-.364-.756l1.177-.2-.238-.154a8.183,8.183,0,0,0,1.4-2.7l1.274.28c-.084.237-.154.462-.238.686h3.895v1.163h-2.283a8.487,8.487,0,0,1,.56.9l-1.177.435a10.166,10.166,0,0,0-.8-1.331h-.715a9.152,9.152,0,0,1-.8,1.289l-.673-.435c.112.252.21.532.322.826h5.281Zm-1.934,2.017h-6.821v.743h7.479v3.739h-1.33v-.5h-6.149v.49h-1.331v-7.41h8.152Zm-1.3-1.064v-.812h-5.519v.813Zm.631,3.866v-1.009h-6.149V179.1Z" transform="translate(-41.5 -9.5)" style="fill: #444"/>
        <path d="M371.255,172.918v-2.984h-1.583v-1.261h4.5v1.261H372.6v2.984h1.415v1.288H372.6v2.76c.519-.2,1.022-.393,1.527-.616v1.274a31.916,31.916,0,0,1-4.286,1.429l-.322-1.274c.588-.112,1.162-.238,1.736-.393v-3.18h-1.387v-1.288Zm10.534-4.609v6.71h-2.8v1.415h2.956v1.232h-2.956v1.442h3.4v1.275h-8.125v-1.275h3.4v-1.442h-2.983v-1.232h2.983v-1.415h-2.815v-6.71Zm-4.118,2.788v-1.611H376.13V171.1Zm0,1.148H376.13v1.6h1.541Zm1.316-1.148h1.527v-1.611h-1.527Zm1.527,1.148h-1.527v1.6h1.527Z" transform="translate(-41.5 -9.5)" style="fill: #444"/>
      </g>
    </g>
    <g id="BlueRectGroup6">
      <rect x="288.5" y="185.5" width="278" height="110" style="fill: #cee3ff"/>
      <g>
        <g>
          <path d="M347.5,207a1.538,1.538,0,0,0-1.5,1.5,1.412,1.412,0,0,0,1,1.4V212h1v-2.1a1.5,1.5,0,0,0,1-1.4A1.538,1.538,0,0,0,347.5,207Z" transform="translate(-41.5 -9.5)" style="fill: #00a4ff"/>
          <circle cx="306" cy="211" r="1.5" style="fill: #00a4ff"/>
          <path d="M343.3,210.2a1.5,1.5,0,0,0-2.056.521q-.023.039-.044.079a1.408,1.408,0,0,0,.476,1.933q.06.036.124.067a.349.349,0,0,1,.2.1V215h1v-2.1a.758.758,0,0,0,.4-.2l1.7,1,.5-.9-1.7-.9A1.511,1.511,0,0,0,343.3,210.2Z" transform="translate(-41.5 -9.5)" style="fill: #00a4ff"/>
          <circle cx="352.501" cy="217.502" r="1.5" transform="matrix(0.5, -0.866, 0.866, 0.5, -53.615, 404.52)" style="fill: #00a4ff"/>
          <circle cx="342.5" cy="217.498" r="1.5" transform="translate(-104.363 190.896) rotate(-30.001)" style="fill: #00a4ff"/>
          <path d="M352,212.9V215h1v-2.1a.349.349,0,0,0,.2-.1,1.458,1.458,0,0,0-1.5-2.5,1.43,1.43,0,0,0-.7,1.7l-1.6.8.5.9,1.7-1A.758.758,0,0,0,352,212.9Z" transform="translate(-41.5 -9.5)" style="fill: #00a4ff"/>
          <path d="M347.5,213a1.538,1.538,0,0,0-1.5,1.5,1.412,1.412,0,0,0,1,1.4V218h1v-2.1a1.5,1.5,0,0,0,1-1.4A1.538,1.538,0,0,0,347.5,213Z" transform="translate(-41.5 -9.5)" style="fill: #00a4ff"/>
        </g>
        <g>
          <path d="M365.763,214.784c-.406.168-.812.321-1.2.476v3.712c0,.925-.448,1.387-1.317,1.387h-1.2l-.28-1.3a6.354,6.354,0,0,0,1.022.084.441.441,0,0,0,.49-.5V215.7c-.448.14-.9.266-1.331.378l-.308-1.274c.546-.112,1.093-.238,1.639-.393v-3.138H361.8V210h1.471v-2.479h1.289V210h1.274v1.274H364.56V214c.406-.14.812-.308,1.2-.476Zm1.863,3.838a10.717,10.717,0,0,0,1.639-.6l.238,1.219a23.828,23.828,0,0,1-3.432,1.064l-.336-1.232a.769.769,0,0,0,.575-.785V207.6h1.316v3.979h1.793v1.288h-1.793Zm3.684,1.652c-.911,0-1.359-.49-1.359-1.456V207.556h1.317v3.979a10.621,10.621,0,0,0,2.2-1.064l.771,1.078a19.37,19.37,0,0,1-2.97,1.3v5.673q0,.505.462.5h.574a.58.58,0,0,0,.546-.322,6.4,6.4,0,0,0,.266-2.144l1.2.393a6.225,6.225,0,0,1-.588,2.886,1.524,1.524,0,0,1-1.191.434Z" transform="translate(-41.5 -9.5)" style="fill: #00a4ff"/>
          <path d="M388.308,211.87v.952H375.7v-.952ZM387,213.4v3.643h-4.357v.616h4.636v.854h-4.636v.658h5.66v1.009H375.7v-1.009h5.631v-.658H376.75v-.854h4.581v-.616h-4.3V213.4Zm-.3-5.673v3.559h-9.371v-3.559Zm-5.378,7.13v-.672h-3.04v.672Zm0,.729h-3.04v.673h3.04Zm4.1-6.457V208.5h-6.822v.631Zm0,.756h-6.822v.645h6.822Zm-2.788,4.973h3.1v-.672h-3.1Zm3.1.729h-3.1v.673h3.1Z" transform="translate(-41.5 -9.5)" style="fill: #00a4ff"/>
          <path d="M392.811,211.688v5.967c.447-.364.91-.784,1.4-1.247l.35,1.359a20.289,20.289,0,0,1-2.885,2.255l-.5-1.19a.9.9,0,0,0,.364-.715v-5.154h-1.961v-1.274Zm.924-1.989-.91.924a13.65,13.65,0,0,0-2.325-2.087l.924-.91a16.232,16.232,0,0,1,2.31,2.074Zm3.908,1.9v-4.1h1.373v4.1h3.474v1.317h-3.474v7.55h-1.373v-7.55h-3.67V211.6Z" transform="translate(-41.5 -9.5)" style="fill: #00a4ff"/>
          <path d="M410.816,210.651l-1.022-.658a7.423,7.423,0,0,0,1.471-2.563l1.274.28c-.084.21-.154.42-.224.616h3.768v1.121H414a5.924,5.924,0,0,1,.477.728l-1.079.393a11.38,11.38,0,0,0-.7-1.12h-.925a8.433,8.433,0,0,1-.854,1.2h3.908v5.688h-1.639v.729h3.067v1.162h-3.067v2.241h-1.3v-2.241h-3.727a3.214,3.214,0,0,1-.546.938,4.79,4.79,0,0,1-2.367,1.289l-.687-1.051a4.285,4.285,0,0,0,1.989-.994,1.148,1.148,0,0,0,.126-.183h-2.913v-1.162h3.319l.028-.295v-.434h-1.751v-5.687Zm-5.926.336-1.106-.7a8.16,8.16,0,0,0,1.808-2.886l1.261.28c-.1.252-.2.477-.28.7h3.249V209.5h-1.555a7.535,7.535,0,0,1,.435.658l-1.093.393a8.353,8.353,0,0,0-.672-1.051h-.953a9.667,9.667,0,0,1-1.093,1.487Zm8.629,1.289v-.616h-6.863v.616Zm0,1.484v-.574h-6.863v.574Zm0,.925h-6.863v.645h6.863Zm-5.1,2.087c0,.1-.014.2-.014.295h3.474v-.729h-3.46Z" transform="translate(-41.5 -9.5)" style="fill: #00a4ff"/>
        </g>
      </g>
    </g>
  </g>
  <g id="middlegroup">
    <g id="Link29">
      <rect x="120" y="225.5" width="154" height="1" style="fill: #888"/>
      <polygon points="269.5 230.5 275.5 226 269.5 221.5 269.5 230.5" style="fill: #888"/>
      <g style="opacity: 0">
        <rect x="120" y="218.5" width="77" height="15" style="fill: red"/>
      </g>
      <g style="opacity: 0">
        <rect x="197" y="218.5" width="77" height="15" style="fill: red"/>
      </g>
    </g>
    <g id="Link30">
      <rect x="578" y="225.5" width="106" height="1" style="fill: #888"/>
      <polygon points="679.5 230.5 685.5 226 679.5 221.5 679.5 230.5" style="fill: #888"/>
      <g style="opacity: 0">
        <rect x="578" y="218.5" width="53" height="15" style="fill: red"/>
      </g>
      <g style="opacity: 0">
        <rect x="631" y="218.5" width="53" height="15" style="fill: red"/>
      </g>
    </g>
    <g id="Link31">
      <rect x="412.5" y="50" width="1" height="91" style="fill: #888"/>
      <polygon points="408.5 136.5 413 142.5 417.5 136.5 408.5 136.5" style="fill: #888"/>
      <g style="opacity: 0">
        <rect x="405.5" y="50" width="15" height="91" style="fill: red"/>
      </g>
    </g>
    <g id="Link32">
      <rect x="445.5" y="55" width="1" height="91" style="fill: #888"/>
      <polygon points="450.5 59.5 446 53.5 441.5 59.5 450.5 59.5" style="fill: #888"/>
      <g style="opacity: 0">
        <rect x="438.5" y="55" width="15" height="91" style="fill: red"/>
      </g>
    </g>
  </g>
  <g id="maingroup">
    <g id="RectEndPoint2">
      <g style="opacity: 0.6000000238418579">
        <rect x="2.5" y="202.833" width="120" height="50" style="fill: #bbb"/>
      </g>
      <g>
        <rect x="0.5" y="200.833" width="120" height="50" style="fill: #fff"/>
        <path d="M162.5,260.833H41.5v-51h121Zm-120-1h119v-49H42.5Z" transform="translate(-41.5 -9.5)" style="fill: #e5e5e5"/>
      </g>
      <g>
        <g>
          <path d="M74,224.463a4,4,0,1,1-4,4,4,4,0,0,1,4-4m0-2a6,6,0,1,0,6,6A6,6,0,0,0,74,222.463Z" transform="translate(-41.5 -9.5)" style="fill: #878787"/>
          <path d="M78,238.463a6,6,0,0,1,6,6v1H64v-1a6,6,0,0,1,6-6h8m0-2H70a8,8,0,0,0-8,8v3H86v-3A8,8,0,0,0,78,236.463Z" transform="translate(-41.5 -9.5)" style="fill: #878787"/>
          <path d="M87,236.453H84a10.06,10.06,0,0,1,2,2h1a4,4,0,0,1,4,4v1H88v2h5v-3A6,6,0,0,0,87,236.453Z" transform="translate(-41.5 -9.5)" style="fill: #878787"/>
          <path d="M83,223.453a4.94,4.94,0,0,0-2.33.6,8,8,0,0,1,.88,1.79,3,3,0,1,1,0,5.22,8,8,0,0,1-.88,1.79,4.94,4.94,0,0,0,2.33.6,5,5,0,0,0,0-10Z" transform="translate(-41.5 -9.5)" style="fill: #878787"/>
        </g>
        <g>
          <path d="M105.541,241.678l-1.023-.91a8.04,8.04,0,0,0,1.3-4.581v-6.863h10.744v10.548a1.418,1.418,0,0,1-1.611,1.583H113.34l-.351-1.3c.546.042,1.051.069,1.527.069.448,0,.687-.28.687-.826v-2.087h-3.474V241.3h-1.345v-3.992H107.1A8.417,8.417,0,0,1,105.541,241.678Zm1.625-11.066v2.1h3.222v-2.1Zm0,5.464h3.222v-2.144h-3.222Zm8.041-5.464h-3.474v2.1h3.474Zm0,3.32h-3.474v2.144h3.474Z" transform="translate(-41.5 -9.5)" style="fill: #444"/>
          <path d="M119.387,241.846l-.98-.9a10.235,10.235,0,0,0,1.625-5.911v-4.58h4.5a11.5,11.5,0,0,0-.756-1.5l1.429-.225c.238.519.462,1.093.687,1.724h4.44v4.986H121.34A11.872,11.872,0,0,1,119.387,241.846Zm1.961-10.085v2.381h7.635v-2.381Z" transform="translate(-41.5 -9.5)" style="fill: #444"/>
        </g>
      </g>
    </g>
    <g id="RectEndPoint7">
      <g style="opacity: 0.6000000238418579">
        <rect x="380.5" y="2.5" width="96" height="50" style="fill: #bbb"/>
      </g>
      <g>
        <rect x="378.5" y="0.5" width="96" height="50" style="fill: #fff"/>
        <path d="M516.5,60.5h-97V9.5h97Zm-96-1h95v-49h-95Z" transform="translate(-41.5 -9.5)" style="fill: #e5e5e5"/>
      </g>
      <g>
        <path d="M444.286,32.3a12.749,12.749,0,0,1-2.605,1.989l-.882-1.022a13.907,13.907,0,0,0,2.7-1.877Zm3.474,4.146c-.2,1.793-.63,2.983-1.274,3.558-.7.742-2.353,1.219-4.973,1.442l-.519-1.2c2.2-.112,3.643-.448,4.343-1.022a4.246,4.246,0,0,0,1.093-2.886Zm-3.711-6.752-.715,1.078a10.443,10.443,0,0,0-2.27-1.064l.658-.994a12.431,12.431,0,0,1,2.327.976Zm7.535,9.217H450.24V35.952h-6.514v3.1H442.4V34.719h9.188ZM447.313,28.63a6.422,6.422,0,0,1-.3.784h5.491v.8a16.136,16.136,0,0,1-.616,2.031l-1.275-.379a6.343,6.343,0,0,0,.533-1.288h-2.045a6.51,6.51,0,0,1-.211.784c.742.994,2.144,1.681,4.217,2.059l-.477,1.163a7.407,7.407,0,0,1-4.286-2.171,5.5,5.5,0,0,1-.435.532,7.274,7.274,0,0,1-3.39,1.568l-.49-1.19a6.544,6.544,0,0,0,2.857-1.162,3.306,3.306,0,0,0,.952-1.583h-1.526A6.93,6.93,0,0,1,445,31.9l-.783-1.036a4.79,4.79,0,0,0,1.793-2.409Zm5.672,11.822-.728,1.106a27.216,27.216,0,0,0-4.9-1.736l.673-1.009a32.075,32.075,0,0,1,4.954,1.635Z" transform="translate(-41.5 -9.5)" style="fill: #444"/>
        <path d="M457.8,34.215l-.9.91a14.319,14.319,0,0,0-2.325-2.1l.9-.854A17.371,17.371,0,0,1,457.8,34.215Zm.183,2.228a47.66,47.66,0,0,1-2.031,4.958l-1.247-.546a38.188,38.188,0,0,0,2.13-4.86Zm.252-5.575-.91.9a15.856,15.856,0,0,0-2.494-2.171l.9-.854a20.037,20.037,0,0,1,2.5,2.124Zm4.4.378a10.638,10.638,0,0,0,.309-1.078h-3.012v3.67a17.076,17.076,0,0,1-1.6,7.62l-1.008-.9a15.229,15.229,0,0,0,1.33-6.724V28.99h8.559v1.177H464.2a9.255,9.255,0,0,1-.309,1.078h2.62v5.113H464.27v3.726c0,.868-.42,1.316-1.246,1.316h-1.178l-.279-1.2a6.451,6.451,0,0,0,1.021.084c.281,0,.421-.168.421-.5V36.358h-2.3V31.245Zm-.519,6.22a10.34,10.34,0,0,1-1.456,3.25l-1.065-.673a8.482,8.482,0,0,0,1.345-2.829Zm3.235-4.146V32.268h-3.474v1.051Zm0,.967h-3.474v1.022h3.474Zm2.088,5.925-1.121.49a21.251,21.251,0,0,0-1.387-3.18l1.106-.378a20.469,20.469,0,0,1,1.4,3.066Z" transform="translate(-41.5 -9.5)" style="fill: #444"/>
        <path d="M469.863,32l-1.163-.729a7.949,7.949,0,0,0,1.737-2.83l1.274.28c-.084.238-.182.477-.266.7h3.529v1.163h-2.1a8.582,8.582,0,0,1,.644,1.009l-1.218.462a12.743,12.743,0,0,0-.812-1.471h-.617A11.664,11.664,0,0,1,469.863,32Zm11.164,2.941h-1.3V33.389h-9.441v1.555h-1.3V32.268H474.4a6.357,6.357,0,0,0-.364-.756l1.177-.2-.238-.154a8.183,8.183,0,0,0,1.4-2.7l1.274.28c-.084.237-.154.462-.238.686h3.895v1.163h-2.283a8.487,8.487,0,0,1,.56.9l-1.177.435a10.166,10.166,0,0,0-.8-1.331h-.715a9.152,9.152,0,0,1-.8,1.289l-.673-.435c.112.252.21.532.322.826h5.281Zm-1.934,2.017h-6.821V37.7h7.479v3.739h-1.33v-.5h-6.149v.49h-1.331v-7.41h8.152Zm-1.3-1.064v-.812h-5.519V35.9Zm.631,3.866V38.753h-6.149v1.009Z" transform="translate(-41.5 -9.5)" style="fill: #444"/>
        <path d="M484.255,33.585V30.6h-1.583V29.34h4.5V30.6H485.6v2.984h1.415v1.288H485.6v2.76c.519-.2,1.022-.393,1.527-.616V38.29a31.916,31.916,0,0,1-4.286,1.429l-.322-1.274c.588-.112,1.162-.238,1.736-.393v-3.18h-1.387V33.585Zm10.534-4.609v6.71h-2.8V37.1h2.956v1.232h-2.956v1.442h3.4v1.275h-8.125V39.775h3.4V38.333h-2.983V37.1h2.983V35.686h-2.815v-6.71Zm-4.118,2.788V30.152H489.13v1.611Zm0,1.148H489.13v1.6h1.541Zm1.316-1.148h1.527V30.152h-1.527Zm1.527,1.148h-1.527v1.6h1.527Z" transform="translate(-41.5 -9.5)" style="fill: #444"/>
      </g>
    </g>
    <g id="RectEndPoint12">
      <g style="opacity: 0.6000000238418579">
        <rect x="302.5" y="233" width="73" height="50" style="fill: #bbb"/>
      </g>
      <g>
        <rect x="300.5" y="231" width="73" height="50" style="fill: #fff"/>
        <path d="M415.5,291h-74V240h74Zm-73-1h72V241h-72Z" transform="translate(-41.5 -9.5)" style="fill: #e5e5e5"/>
      </g>
      <g>
        <path d="M390.8,267.5a13,13,0,1,1,0-4h2a14.642,14.642,0,1,0,.1,4Z" transform="translate(-41.5 -9.5)" style="fill: #00a4ff"/>
        <circle cx="336.5" cy="249" r="2" style="fill: #00a4ff"/>
        <circle cx="336.5" cy="256" r="2" style="fill: #00a4ff"/>
        <circle cx="336.5" cy="263" r="2" style="fill: #00a4ff"/>
        <circle cx="330.5" cy="260" r="2" style="fill: #00a4ff"/>
        <circle cx="330.5" cy="252" r="2" style="fill: #00a4ff"/>
        <circle cx="342.5" cy="260" r="2" style="fill: #00a4ff"/>
        <circle cx="342.5" cy="252" r="2" style="fill: #00a4ff"/>
        <path d="M376.2,263.1l-3.2-2.6-1,2,3,2.5A3.149,3.149,0,0,1,376.2,263.1Z" transform="translate(-41.5 -9.5)" style="fill: #00a4ff"/>
        <path d="M381,265l3-2.5-1-2-3.2,2.6A3.149,3.149,0,0,1,381,265Z" transform="translate(-41.5 -9.5)" style="fill: #00a4ff"/>
        <path d="M378,262.5a2.959,2.959,0,0,1,1,.2v-3.2h-2v3.2A2.959,2.959,0,0,1,378,262.5Z" transform="translate(-41.5 -9.5)" style="fill: #00a4ff"/>
        <path d="M372,266.5a2.958,2.958,0,0,1,1,.2v-4.2h-2v4.2A2.958,2.958,0,0,1,372,266.5Z" transform="translate(-41.5 -9.5)" style="fill: #00a4ff"/>
        <path d="M384,266.5a2.958,2.958,0,0,1,1,.2v-4.2h-2v4.2A2.958,2.958,0,0,1,384,266.5Z" transform="translate(-41.5 -9.5)" style="fill: #00a4ff"/>
        <path d="M378,269.5a2.958,2.958,0,0,1,1,.2v-3.2h-2v3.2A2.958,2.958,0,0,1,378,269.5Z" transform="translate(-41.5 -9.5)" style="fill: #00a4ff"/>
      </g>
    </g>
    <g id="RectEndPoint13">
      <g style="opacity: 0.6000000238418579">
        <rect x="393" y="233" width="73" height="50" style="fill: #bbb"/>
      </g>
      <g>
        <rect x="391" y="231" width="73" height="50" style="fill: #fff"/>
        <path d="M506,291H432V240h74Zm-73-1h72V241H433Z" transform="translate(-41.5 -9.5)" style="fill: #e5e5e5"/>
      </g>
      <g>
        <path d="M481.3,267.5a13,13,0,1,1,0-4h2a14.642,14.642,0,1,0,.1,4Z" transform="translate(-41.5 -9.5)" style="fill: #00a4ff"/>
        <circle cx="427" cy="249" r="2" style="fill: #00a4ff"/>
        <circle cx="427" cy="256" r="2" style="fill: #00a4ff"/>
        <circle cx="427" cy="263" r="2" style="fill: #00a4ff"/>
        <circle cx="421" cy="260" r="2" style="fill: #00a4ff"/>
        <circle cx="421" cy="252" r="2" style="fill: #00a4ff"/>
        <circle cx="433" cy="260" r="2" style="fill: #00a4ff"/>
        <circle cx="433" cy="252" r="2" style="fill: #00a4ff"/>
        <path d="M466.7,263.1l-3.2-2.6-1,2,3,2.5A3.149,3.149,0,0,1,466.7,263.1Z" transform="translate(-41.5 -9.5)" style="fill: #00a4ff"/>
        <path d="M471.5,265l3-2.5-1-2-3.2,2.6A3.149,3.149,0,0,1,471.5,265Z" transform="translate(-41.5 -9.5)" style="fill: #00a4ff"/>
        <path d="M468.5,262.5a2.959,2.959,0,0,1,1,.2v-3.2h-2v3.2A2.959,2.959,0,0,1,468.5,262.5Z" transform="translate(-41.5 -9.5)" style="fill: #00a4ff"/>
        <path d="M462.5,266.5a2.958,2.958,0,0,1,1,.2v-4.2h-2v4.2A2.958,2.958,0,0,1,462.5,266.5Z" transform="translate(-41.5 -9.5)" style="fill: #00a4ff"/>
        <path d="M474.5,266.5a2.958,2.958,0,0,1,1,.2v-4.2h-2v4.2A2.958,2.958,0,0,1,474.5,266.5Z" transform="translate(-41.5 -9.5)" style="fill: #00a4ff"/>
        <path d="M468.5,269.5a2.958,2.958,0,0,1,1,.2v-3.2h-2v3.2A2.958,2.958,0,0,1,468.5,269.5Z" transform="translate(-41.5 -9.5)" style="fill: #00a4ff"/>
      </g>
    </g>
    <g id="RectEndPoint16">
      <g style="opacity: 0.6000000238418579">
        <rect x="476.5" y="233" width="73" height="50" style="fill: #bbb"/>
      </g>
      <g>
        <rect x="474.5" y="231" width="73" height="50" style="fill: #fff"/>
        <path d="M589.5,291h-74V240h74Zm-73-1h72V241h-72Z" transform="translate(-41.5 -9.5)" style="fill: #e5e5e5"/>
      </g>
      <g>
        <path d="M564.8,267.5a13,13,0,1,1,0-4h2a14.642,14.642,0,1,0,.1,4Z" transform="translate(-41.5 -9.5)" style="fill: #00a4ff"/>
        <circle cx="510.5" cy="249" r="2" style="fill: #00a4ff"/>
        <circle cx="510.5" cy="256" r="2" style="fill: #00a4ff"/>
        <circle cx="510.5" cy="263" r="2" style="fill: #00a4ff"/>
        <circle cx="504.5" cy="260" r="2" style="fill: #00a4ff"/>
        <circle cx="504.5" cy="252" r="2" style="fill: #00a4ff"/>
        <circle cx="516.5" cy="260" r="2" style="fill: #00a4ff"/>
        <circle cx="516.5" cy="252" r="2" style="fill: #00a4ff"/>
        <path d="M550.2,263.1l-3.2-2.6-1,2,3,2.5A3.149,3.149,0,0,1,550.2,263.1Z" transform="translate(-41.5 -9.5)" style="fill: #00a4ff"/>
        <path d="M555,265l3-2.5-1-2-3.2,2.6A3.149,3.149,0,0,1,555,265Z" transform="translate(-41.5 -9.5)" style="fill: #00a4ff"/>
        <path d="M552,262.5a2.959,2.959,0,0,1,1,.2v-3.2h-2v3.2A2.959,2.959,0,0,1,552,262.5Z" transform="translate(-41.5 -9.5)" style="fill: #00a4ff"/>
        <path d="M546,266.5a2.958,2.958,0,0,1,1,.2v-4.2h-2v4.2A2.958,2.958,0,0,1,546,266.5Z" transform="translate(-41.5 -9.5)" style="fill: #00a4ff"/>
        <path d="M558,266.5a2.958,2.958,0,0,1,1,.2v-4.2h-2v4.2A2.958,2.958,0,0,1,558,266.5Z" transform="translate(-41.5 -9.5)" style="fill: #00a4ff"/>
        <path d="M552,269.5a2.958,2.958,0,0,1,1,.2v-3.2h-2v3.2A2.958,2.958,0,0,1,552,269.5Z" transform="translate(-41.5 -9.5)" style="fill: #00a4ff"/>
      </g>
    </g>
    <g id="RectEndPoint26">
      <g style="opacity: 0.6000000238418579">
        <rect x="691.5" y="203.833" width="68" height="49" style="fill: #bbb"/>
      </g>
      <g>
        <rect x="689.5" y="201.833" width="68" height="49" style="fill: #fff"/>
        <path d="M799.5,260.833h-69v-50h69Zm-68-1h67v-48h-67Z" transform="translate(-41.5 -9.5)" style="fill: #e5e5e5"/>
      </g>
      <g>
        <path d="M764.153,236.473v1.274h-3.824v2.928c0,.42.168.645.532.645h1.766a.4.4,0,0,0,.363-.28,7.639,7.639,0,0,0,.182-1.766l1.262.393a5.67,5.67,0,0,1-.519,2.521,1.342,1.342,0,0,1-1.051.393h-2.423c-.967,0-1.443-.547-1.443-1.625v-3.208h-2.1v.042a5.294,5.294,0,0,1-1.148,3.306,6.882,6.882,0,0,1-3.361,1.779l-.756-1.19a6.5,6.5,0,0,0,3.081-1.457,4.093,4.093,0,0,0,.868-2.437v-.042h-3.711v-1.274Zm-.126-1.934h-1.359v-2.017h-9.357v2.017h-1.357v-3.306h5.238a8.8,8.8,0,0,0-.477-1.135l1.5-.252a14.213,14.213,0,0,1,.476,1.387h5.338Zm-2.088-.672v1.274h-7.928v-1.274Z" transform="translate(-41.5 -9.5)" style="fill: #444"/>
        <path d="M777.215,231.234l-.645.645h1.681v1.274h-4.174a21.073,21.073,0,0,0,.5,3.853c.056.238.126.476.2.7a16.752,16.752,0,0,0,1.471-3.544l1.219.519a17.026,17.026,0,0,1-2.129,4.594,6.506,6.506,0,0,0,.462.854c.42.617.757.938.98.938q.274,0,.546-2.059l1.205.645c-.351,1.933-.868,2.913-1.541,2.913a2.716,2.716,0,0,1-1.933-1.246,6.2,6.2,0,0,1-.6-.925,9.525,9.525,0,0,1-3.264,2.4l-.756-1.121a9.063,9.063,0,0,0,3.4-2.619,15.068,15.068,0,0,1-.519-1.639,21.192,21.192,0,0,1-.6-4.259h-4.512V235.2h3.433a20.922,20.922,0,0,1-.378,4.8,1.4,1.4,0,0,1-1.43.9c-.336,0-.729-.027-1.162-.069l-.406-1.2c.561.028,1.022.056,1.415.056.252-.014.406-.168.49-.476a19.6,19.6,0,0,0,.153-2.746h-2.115v.084a11.348,11.348,0,0,1-1.694,6.233l-1.009-.9a9.714,9.714,0,0,0,1.373-5.337v-4.664h5.771c-.028-.658-.028-1.345-.028-2.06h1.345c0,.729.027,1.415.057,2.06h2.156a10.515,10.515,0,0,0-1.442-1.316l.841-.812A11.538,11.538,0,0,1,777.215,231.234Z" transform="translate(-41.5 -9.5)" style="fill: #444"/>
      </g>
    </g>
  </g>
  <g id="textgroup">
    <g id="Textbasic9">
      <g style="opacity: 0">
        <rect x="165.5" y="202" width="80" height="20" style="fill: #cee3ff"/>
      </g>
      <g>
        <path d="M207.912,226.627l-.252-1.1a8.709,8.709,0,0,0,.923.06.358.358,0,0,0,.408-.4V222.6c-.408.156-.827.3-1.247.443l-.276-1.151a13.7,13.7,0,0,0,1.523-.455v-2.471h-1.355v-1.092h1.355V215.7h1.151v2.171h1.116v1.092h-1.116v1.99c.312-.144.612-.3.912-.468v1.164c-.312.155-.612.312-.912.455v3.37a1.026,1.026,0,0,1-1.163,1.151Zm10.278-5.637v1.02h-2.878v1.1h2.363v1.008h-2.363v1.271a14.156,14.156,0,0,0,1.559.084,16.214,16.214,0,0,0,1.655-.071l-.312,1.1c-.468,0-.888-.013-1.271-.024a8.575,8.575,0,0,1-3.274-.443,2.991,2.991,0,0,1-1.14-1.151,7.87,7.87,0,0,1-1.079,1.835l-.852-.731a6.362,6.362,0,0,0,1.439-3.587l1.008.12a8.117,8.117,0,0,1-.168,1.235,2.681,2.681,0,0,0,1.235,1.344l.108.036V222.01h-2.927v-1.02Zm-.72-4.953v4.33h-5.4v-4.33Zm-1.115,1.728v-.8h-3.178v.8Zm0,.863h-3.178v.815h3.178Z" transform="translate(-41.5 -9.5)" style="fill: #878787"/>
        <path d="M227.935,220.967a11.316,11.316,0,0,1-2,2.746,13.734,13.734,0,0,0,4.569,1.955l-.708,1.067a14.283,14.283,0,0,1-4.749-2.243,13.04,13.04,0,0,1-4.786,2.291l-.7-1.056a13.122,13.122,0,0,0,4.558-2,10.4,10.4,0,0,1-2.039-2.59l.983-.564A8.553,8.553,0,0,0,225.006,223a9.08,9.08,0,0,0,1.871-2.494Zm-4.174-1.991a13.607,13.607,0,0,1-3.382,3.118l-.744-.959a13.1,13.1,0,0,0,3.3-2.891Zm.66-1.979a9.352,9.352,0,0,0-.66-1.2l1.271-.216A12,12,0,0,1,225.68,217h4.666v1.091H219.66V217Zm5.913,4.329-.84.84a21.156,21.156,0,0,0-3.3-3.179l.779-.755a24.447,24.447,0,0,1,3.361,3.094Z" transform="translate(-41.5 -9.5)" style="fill: #878787"/>
        <path d="M231.743,221.566l-.384-1.224a12.9,12.9,0,0,0,2.735-4.737l1.079.5a14.125,14.125,0,0,1-1.187,2.591v8.06h-1.151v-6.4C232.5,220.763,232.127,221.17,231.743,221.566Zm3.322-.2-.815-.983a14.626,14.626,0,0,0,2.543-4.81l1.151.252c-.168.5-.348.983-.528,1.439h4.941v1.115h-3.85v1.715h3.37v1.1h-3.37v1.763H241.9v1.092h-3.4v2.711h-1.151v-8.384h-.432a14.942,14.942,0,0,1-1.857,2.986Z" transform="translate(-41.5 -9.5)" style="fill: #878787"/>
        <path d="M248.265,215.762v9.427H249.7v-9.427h1.14v9.427h3.5V226.3h-10.7v-1.115h3.479v-9.427Zm-1.774,7.711-1.044.265a44.043,44.043,0,0,0-1.559-5.457l.972-.312a42.909,42.909,0,0,1,1.63,5.5Zm7.6-5.192a26.305,26.305,0,0,1-1.763,5.409l-1.02-.36a26.116,26.116,0,0,0,1.775-5.337Z" transform="translate(-41.5 -9.5)" style="fill: #878787"/>
      </g>
    </g>
    <g id="Textbasic24">
      <g style="opacity: 0">
        <rect x="364.5" y="81.5" width="80" height="20" style="fill: #cee3ff"/>
      </g>
      <g>
        <path d="M409.166,98.739v4.917c.24-.251.492-.516.756-.8l.312,1.2a15.273,15.273,0,0,1-2.039,1.823l-.432-1.02a.8.8,0,0,0,.3-.612V99.834h-1.607V98.742Zm.876-1.715-.78.792a11.571,11.571,0,0,0-1.979-1.775l.8-.779A15.082,15.082,0,0,1,410.042,97.024Zm1.907,5a8.551,8.551,0,0,0-1.643-1.127l.54-.792a8.47,8.47,0,0,1,1.787,1.151l-.5.768H413.6a5.068,5.068,0,0,0,.084-.743V99.062h1.1v2.219c-.012.264-.036.5-.06.743h2.78v1.056h-3.011c-.036.108-.072.2-.108.3a18.015,18.015,0,0,1,3.226,1.955l-.635.972a16.208,16.208,0,0,0-3.035-2.063c-.072.1-.132.192-.2.288a5.948,5.948,0,0,1-3.046,1.763l-.612-.947a5.613,5.613,0,0,0,2.794-1.523,4.1,4.1,0,0,0,.42-.743h-3.046v-1.056Zm1.4-6.164v-.792h1.115v.792h2.615v1.031h-2.615v.815h2.842v.72a16.508,16.508,0,0,1-.792,2.278l-1.1-.312a8.94,8.94,0,0,0,.684-1.631h-5.865V97.705h3.118V96.89h-2.626V95.859Zm.168,4.1-.54.815a7.028,7.028,0,0,0-1.643-1.127l.516-.756a8.052,8.052,0,0,1,1.67,1.071Z" transform="translate(-41.5 -9.5)" style="fill: #878787"/>
        <path d="M421.777,100.851c-.071.191-.131.371-.2.552h2.435v.959a4.424,4.424,0,0,1-1.14,1.9c.48.216.947.432,1.4.671l-.611.912c-.468-.276-1.032-.564-1.679-.864a10.158,10.158,0,0,1-2.975,1.235l-.553-.971a11.562,11.562,0,0,0,2.315-.792c-.5-.216-1.02-.42-1.571-.636.288-.479.552-.947.779-1.391H418.73V101.4h1.7c.084-.24.168-.456.239-.672Zm-.743-3.467V95.178h1.044v2.206h2.086v1h-2.086v.06c.635.264,1.283.576,1.942.924l-.6.9c-.527-.42-.972-.756-1.343-1v1.343h-1.044V98.585a5.686,5.686,0,0,1-1.979,2.267l-.563-.924a5.083,5.083,0,0,0,1.787-1.547h-1.512v-1Zm-.468-.552-.887.408a9.045,9.045,0,0,0-.792-1.523l.947-.312A10.585,10.585,0,0,1,420.566,96.832Zm2.387,5.59h-1.822a10.5,10.5,0,0,1-.54.947c.419.144.815.287,1.2.443A3.949,3.949,0,0,0,422.953,102.422Zm1.188-6.645a8.6,8.6,0,0,1-.912,1.5l-.839-.444a8.607,8.607,0,0,0,.852-1.486Zm1.164,4.377a10.457,10.457,0,0,1-.6,1.212l-.72-.888a15.556,15.556,0,0,0,1.367-5.325l1.115.192c-.071.552-.144,1.067-.239,1.559h3.046V98h-.684a13,13,0,0,1-1.055,4.977,7.149,7.149,0,0,0,2.11,2.268l-.659.959a7.683,7.683,0,0,1-2-2.183,8.313,8.313,0,0,1-2.135,2.255l-.6-.972a6.7,6.7,0,0,0,2.135-2.351,16.138,16.138,0,0,1-1.086-2.8Zm.551-1.619a16.591,16.591,0,0,0,1.043,3.238A12.671,12.671,0,0,0,427.536,98H426c-.049.192-.1.371-.145.539Z" transform="translate(-41.5 -9.5)" style="fill: #878787"/>
        <path d="M430.959,106.127l-.239-1.079a5.556,5.556,0,0,0,.875.084c.265,0,.408-.168.408-.479v-2.566c-.432.155-.852.3-1.271.443l-.288-1.127a14.5,14.5,0,0,0,1.56-.456V98.465H430.66V97.373H432V95.2h1.1v2.171h1.056v1.092H433.1v2.051c.336-.156.684-.324,1.02-.5v1.115c-.348.168-.684.336-1.02.492v3.322c0,.791-.384,1.187-1.128,1.187Zm3.371.12-.888-.791a13.073,13.073,0,0,0,1.223-5.973v-3.91h6.489v3.106H438.97v1.2h2.471v1.043H438.97v1.235h1.93v4.078h-1.056v-.516H437v.516h-1.055v-4.078h1.918v-1.235h-2.158a14.27,14.27,0,0,1-1.375,5.325Zm1.438-7.567v.8c0,.132-.012.264-.012.4h2.11v-1.2Zm0-2.063v1.044h4.282V96.617Zm4.078,8.1V103.17H437v1.547Z" transform="translate(-41.5 -9.5)" style="fill: #878787"/>
      </g>
    </g>
    <g id="Textbasic25">
      <g style="opacity: 0">
        <rect x="457.75" y="81.5" width="80" height="20" style="fill: #cee3ff"/>
      </g>
      <g>
        <path d="M503.76,95.178v5.241a6.621,6.621,0,0,1-2.843,5.816l-.852-.743a5.621,5.621,0,0,0,2.555-5.073V95.178Zm-2.5,1.139v5.9h-1.14v-5.9Zm9.007-.3v9.931h-1.15v-.623h-5v-1.116h5v-3.082h-4.462v-1.091h4.462v-2.9h-4.773V96.02Z" transform="translate(-41.5 -9.5)" style="fill: #878787"/>
        <path d="M514.572,106.188h-1.14v-5.565a14.2,14.2,0,0,1-1.331,2.783l-.492-1.235a10.419,10.419,0,0,0,1.8-3.658H511.9V97.42h1.535V95.178h1.14V97.42H515.9v1.092h-1.331v.552c.539.575,1.079,1.211,1.619,1.883l-.66.959c-.359-.6-.684-1.115-.959-1.535Zm3.574-7.916-.984.492a18.1,18.1,0,0,0-1.223-2.423l1.008-.492a24.255,24.255,0,0,1,1.2,2.422Zm.6.96V95.178h1.163v4.054h2.446v7h-1.127V105.8h-5.205v-1.115h5.205v-1.644H516.5v-1.079h4.726v-1.631H516.2v-1.1Zm3.922-2.986a14.584,14.584,0,0,1-1.248,2.53l-.971-.5a14.446,14.446,0,0,0,1.211-2.507Z" transform="translate(-41.5 -9.5)" style="fill: #878787"/>
        <path d="M527.028,100.851c-.072.191-.132.371-.2.552h2.435v.959a4.424,4.424,0,0,1-1.14,1.9c.479.216.947.432,1.4.671l-.611.912c-.468-.276-1.031-.564-1.68-.864a10.151,10.151,0,0,1-2.974,1.235l-.552-.971a11.574,11.574,0,0,0,2.314-.792c-.5-.216-1.02-.42-1.571-.636.288-.479.552-.947.779-1.391h-1.247V101.4h1.7c.084-.24.168-.456.24-.672Zm-.744-3.467V95.178h1.044v2.206h2.087v1h-2.087v.06c.636.264,1.283.576,1.942.924l-.6.9c-.527-.42-.972-.756-1.343-1v1.343h-1.044V98.585a5.686,5.686,0,0,1-1.979,2.267l-.563-.924a5.07,5.07,0,0,0,1.786-1.547h-1.511v-1Zm-.468-.552-.888.408a8.975,8.975,0,0,0-.791-1.523l.947-.312A10.589,10.589,0,0,1,525.816,96.832Zm2.387,5.59H526.38a10.5,10.5,0,0,1-.539.947c.42.144.815.287,1.2.443a3.949,3.949,0,0,0,1.159-1.39Zm1.188-6.645a8.719,8.719,0,0,1-.911,1.5l-.84-.444a8.671,8.671,0,0,0,.852-1.486Zm1.163,4.377a10.3,10.3,0,0,1-.6,1.212l-.72-.888a15.556,15.556,0,0,0,1.367-5.325l1.116.192c-.072.552-.145,1.067-.24,1.559h3.046V98h-.684a12.986,12.986,0,0,1-1.055,4.977,7.149,7.149,0,0,0,2.11,2.268l-.659.959a7.667,7.667,0,0,1-2-2.183,8.328,8.328,0,0,1-2.135,2.255l-.6-.972a6.725,6.725,0,0,0,2.135-2.351A16.135,16.135,0,0,1,530.554,100.154Zm.552-1.619a16.586,16.586,0,0,0,1.044,3.238A12.7,12.7,0,0,0,532.786,98H531.25q-.073.287-.145.539Z" transform="translate(-41.5 -9.5)" style="fill: #878787"/>
        <path d="M536.209,106.127l-.239-1.079a5.556,5.556,0,0,0,.875.084c.265,0,.408-.168.408-.479v-2.566c-.432.155-.852.3-1.271.443l-.288-1.127a14.5,14.5,0,0,0,1.56-.456V98.465H535.91V97.373h1.344V95.2h1.1v2.171h1.056v1.092h-1.056v2.051c.336-.156.684-.324,1.02-.5v1.115c-.348.168-.684.336-1.02.492v3.322c0,.791-.384,1.187-1.128,1.187Zm3.371.12-.888-.791a13.073,13.073,0,0,0,1.223-5.973v-3.91H546.4v3.106h-2.184v1.2h2.471v1.043h-2.471v1.235h1.932v4.078H545.1v-.516h-2.843v.516H541.2v-4.078h1.918v-1.235H540.96a14.27,14.27,0,0,1-1.38,5.325Zm1.438-7.567v.8c0,.132-.012.264-.012.4h2.11v-1.2Zm0-2.063v1.044H545.3V96.617Zm4.078,8.1V103.17h-2.843v1.547Z" transform="translate(-41.5 -9.5)" style="fill: #878787"/>
      </g>
    </g>
  </g>
</svg>
