<svg xmlns="http://www.w3.org/2000/svg" viewBox="0 0 48 48"><defs><style>.cls-1{fill:#00a4ff;}.cls-2{fill:none;stroke:#334966;stroke-width:2px;}</style></defs><title>画板 16</title><g id="icon"><path class="cls-1" d="M26.5,15.41a17.79,17.79,0,0,1-9.17,3.44V29.4A13.39,13.39,0,0,0,26.5,39.75,13.39,13.39,0,0,0,35.67,29.4V18.85A17.79,17.79,0,0,1,26.5,15.41Z"/><circle class="cls-2" cx="24" cy="24" r="22"/><path class="cls-2" d="M24,11.83a17.81,17.81,0,0,1-9.17,3.43V25.81A13.4,13.4,0,0,0,24,36.17a13.4,13.4,0,0,0,9.17-10.36V15.26A17.81,17.81,0,0,1,24,11.83Z"/><polyline id="Path-2" class="cls-2" points="19.76 24 22.59 26.83 28.24 21.17"/></g></svg>