<?xml version="1.0" encoding="utf-8"?>
<!-- Generator: Adobe Illustrator 22.0.0, SVG Export Plug-In . SVG Version: 6.00 Build 0)  -->
<svg version="1.1" id="图层_1" xmlns="http://www.w3.org/2000/svg" xmlns:xlink="http://www.w3.org/1999/xlink" x="0px" y="0px"
	 width="830px" height="337.562px" viewBox="0 0 830 337.562" style="enable-background:new 0 0 830 337.562;" xml:space="preserve"
	>
<title>03操作日志归档</title>
<rect x="317.669" y="125.812" style="fill:#CEE3FF;" width="193.833" height="89.5"/>
<g>
	<path style="fill:none;stroke:#888888;" d="M634.002,71.312v91h-146"/>
	<polygon style="fill:#888888;" points="492.502,157.812 486.502,162.312 492.502,166.812 	"/>
	<path style="fill:none;stroke:#FF0000;stroke-width:15;stroke-opacity:0;" d="M627.002,162.312h-139"/>
</g>
<g>
	<path style="fill:none;stroke:#888888;" d="M414.002,71.312v36l0,0v35"/>
	<polygon style="fill:#888888;" points="409.502,137.812 414.002,143.812 418.502,137.812 	"/>
	<path style="fill:none;stroke:#FF0000;stroke-width:15;stroke-opacity:0;" d="M414.002,71.312v36"/>
	<path style="fill:none;stroke:#FF0000;stroke-width:15;stroke-opacity:0;" d="M414.002,107.312v35"/>
</g>
<g>
	<path style="fill:none;stroke:#888888;" d="M634.002,265.312v-86h-146"/>
	<polygon style="fill:#888888;" points="492.502,174.812 486.502,179.312 492.502,183.812 	"/>
	<path style="fill:none;stroke:#FF0000;stroke-width:15;stroke-opacity:0;" d="M634.002,265.312v-86"/>
	<path style="fill:none;stroke:#FF0000;stroke-width:15;stroke-opacity:0;" d="M634.002,179.312h-146"/>
</g>
<g>
	<path style="fill:none;stroke:#888888;" d="M199.002,71.312v91h141"/>
	<polygon style="fill:#888888;" points="335.502,166.812 341.502,162.312 335.502,157.812 	"/>
	<path style="fill:none;stroke:#FF0000;stroke-width:15;stroke-opacity:0;" d="M199.002,71.312v91"/>
	<path style="fill:none;stroke:#FF0000;stroke-width:15;stroke-opacity:0;" d="M199.002,162.312h141"/>
</g>
<g>
	<path style="fill:none;stroke:#888888;" d="M199.002,265.312v-86h141"/>
	<polygon style="fill:#888888;" points="335.502,183.812 341.502,179.312 335.502,174.812 	"/>
</g>
<rect x="132.502" y="23.812" style="opacity:0.6;fill:#BBBBBB;enable-background:new    ;" width="138" height="50"/>
<rect x="130.502" y="21.812" style="fill:#FFFFFF;stroke:#E5E5E5;" width="138" height="50"/>
<path style="fill:#00A4FF;" d="M165.102,49.812h-0.6c-5.52,0-10-1.36-10-3v-6.26c2.15,1.35,5.82,2.26,10,2.26s7.85-0.89,10-2.24
	v4.49c0.701,0.181,1.374,0.457,2,0.82v-8.07c0-2.76-5.37-5-12-5s-12,2.22-12,5v18h2v-6.26c2,1.26,5.34,2.11,9.16,2.26
	c0.328-0.321,0.686-0.609,1.07-0.86C164.827,50.564,164.95,50.183,165.102,49.812z M164.502,34.812c5.52,0,10,1.34,10,3
	s-4.48,3-10,3s-10-1.36-10-3S158.982,34.812,164.502,34.812z M154.502,55.812h-2c0,2.51,4.44,4.58,10.23,4.94
	c-0.444-0.627-0.782-1.323-1-2.06C157.582,58.323,154.502,57.162,154.502,55.812z M177.502,52.952v-0.14c0-2.761-2.239-5-5-5
	s-5,2.239-5,5v0.14c-2.132,0.579-3.391,2.776-2.812,4.908c0.468,1.725,2.025,2.93,3.812,2.952h8
	c2.209-0.026,3.978-1.839,3.952-4.048C180.432,54.977,179.227,53.421,177.502,52.952z M176.502,58.812h-8
	c-1.104-0.037-1.969-0.961-1.933-2.065c0.029-0.865,0.611-1.614,1.443-1.855l1.55-0.4v-1.77c0-1.657,1.343-3,3-3
	c1.657,0,3,1.343,3,3v1.77l1.55,0.4c1.061,0.308,1.671,1.418,1.363,2.478C178.222,58.244,177.411,58.836,176.502,58.812z"/>
<g style="enable-background:new    ;">
	<path style="fill:#444444;" d="M196.76,46.979c-0.098,0.267-0.196,0.519-0.28,0.771h2.914v0.854
		c-0.308,0.925-0.812,1.709-1.527,2.382c0.659,0.28,1.289,0.588,1.891,0.924l-0.546,0.812c-0.616-0.364-1.316-0.729-2.129-1.092
		c-0.938,0.644-2.101,1.162-3.502,1.555l-0.49-0.869c1.148-0.308,2.129-0.686,2.941-1.148c-0.616-0.252-1.261-0.519-1.947-0.784
		c0.364-0.603,0.686-1.177,0.952-1.723h-1.639V47.75h2.059c0.112-0.308,0.224-0.602,0.322-0.882L196.76,46.979z M196.172,43.058
		v-2.675h0.938v2.675h2.549v0.883h-2.549v0.154c0.756,0.378,1.541,0.812,2.325,1.288l-0.518,0.784
		c-0.701-0.56-1.303-1.008-1.807-1.345v1.821h-0.938v-2.661c-0.462,1.106-1.303,2.059-2.507,2.871l-0.49-0.812
		c1.079-0.63,1.835-1.33,2.255-2.101h-1.989v-0.883H196.172z M195.401,42.399l-0.784,0.364c-0.294-0.687-0.616-1.289-0.953-1.807
		l0.84-0.28C194.841,41.209,195.149,41.783,195.401,42.399z M198.441,48.661h-2.368c-0.224,0.462-0.476,0.91-0.756,1.33
		c0.532,0.183,1.064,0.379,1.583,0.589C197.587,50.02,198.105,49.39,198.441,48.661z M199.534,40.971
		c-0.28,0.616-0.63,1.219-1.079,1.821l-0.756-0.406c0.434-0.616,0.785-1.219,1.037-1.808L199.534,40.971z M201.046,45.733
		c-0.252,0.645-0.532,1.219-0.826,1.723l-0.63-0.771c0.826-1.568,1.387-3.684,1.667-6.346l0.98,0.169
		c-0.084,0.714-0.196,1.387-0.308,2.003h3.698v0.966h-0.91c-0.056,2.34-0.477,4.343-1.247,5.996
		c0.729,1.218,1.583,2.171,2.592,2.843l-0.575,0.854c-0.98-0.687-1.807-1.61-2.507-2.759c-0.686,1.12-1.555,2.059-2.605,2.815
		l-0.532-0.854c1.093-0.757,1.961-1.737,2.591-2.928C201.887,48.353,201.425,47.12,201.046,45.733z M201.523,44.221
		c0.35,1.597,0.812,2.997,1.373,4.188c0.546-1.429,0.84-3.067,0.896-4.931h-2.073C201.649,43.73,201.579,43.982,201.523,44.221z"/>
	<path style="fill:#444444;" d="M207.608,53.087l-0.21-0.952c0.364,0.042,0.729,0.07,1.064,0.07c0.35,0,0.532-0.211,0.532-0.617
		v-3.417c-0.56,0.21-1.106,0.406-1.653,0.574l-0.252-0.98c0.644-0.154,1.289-0.351,1.905-0.574v-3.166h-1.681v-0.967h1.681V40.41
		h0.98v2.647h1.345v0.967h-1.345v2.76c0.448-0.196,0.883-0.406,1.303-0.631v0.995c-0.434,0.224-0.868,0.42-1.303,0.616v4.076
		c0,0.826-0.392,1.246-1.176,1.246H207.608z M211.349,53.213l-0.785-0.7c0.995-1.849,1.499-4.258,1.513-7.2v-4.384h7.382v3.403
		h-2.633v1.653h2.998v0.91h-2.998v1.724h2.353v4.594h-0.938v-0.686h-3.796v0.686h-0.938v-4.594h2.339v-1.724h-2.858
		C212.819,49.291,212.273,51.393,211.349,53.213z M213.058,44.332v0.98c0,0.225-0.014,0.449-0.014,0.673h2.802v-1.653H213.058z
		 M213.058,41.867v1.555h5.421v-1.555H213.058z M218.24,51.631v-2.115h-3.796v2.115H218.24z"/>
	<path style="fill:#444444;" d="M228.696,41.615h5.043v0.98h-10.38v3.193c-0.056,3.096-0.518,5.575-1.415,7.424l-0.827-0.742
		c0.771-1.597,1.177-3.824,1.205-6.682v-4.174h5.267c-0.225-0.435-0.477-0.827-0.729-1.163l1.121-0.196
		C228.234,40.662,228.473,41.11,228.696,41.615z M228.038,43.212c-0.126,0.393-0.252,0.757-0.378,1.12h5.463v0.883h-5.813
		c-0.393,0.896-0.812,1.695-1.261,2.396h2.619v-1.695h1.009v1.695h3.124v0.91h-3.124v1.569h4.188v0.924h-4.188v2.214h-1.009v-2.214
		h-5.056V50.09h5.056v-1.569h-3.67l-0.21-0.868c0.532-0.658,1.022-1.471,1.457-2.438h-2.115v-0.883h2.479
		c0.154-0.434,0.308-0.882,0.462-1.345L228.038,43.212z"/>
</g>
<rect x="347.502" y="23.812" style="opacity:0.6;fill:#BBBBBB;enable-background:new    ;" width="138" height="50"/>
<rect x="345.502" y="21.812" style="fill:#FFFFFF;stroke:#E5E5E5;" width="138" height="50"/>
<path style="fill:#00A4FF;" d="M374.502,42.812v8l7,4l7-4v-8l-7-4L374.502,42.812z M380.502,51.942l-4-2.29v-3.7l4,2.29V51.942z
	 M386.502,49.652l-4,2.29v-3.7l4-2.29V49.652z M381.502,46.512l-4.72-2.7l4.72-2.7l4.72,2.7L381.502,46.512z M393.502,53.652
	l-12,6.86l-12-6.86v-13.68l12-6.86l12,6.86l0,0l2-1.16l-14-8l-14,8v16l14,8l14-8v-12l-2,1.14V53.652z"/>
<g style="enable-background:new    ;">
	<path style="fill:#444444;" d="M411.62,46.868c0.519-1.261,0.827-2.634,0.925-4.118h-3.838v-0.98h4.749v0.742
		c-0.07,1.904-0.462,3.642-1.19,5.196c0.588,0.785,1.134,1.583,1.625,2.367l-0.729,0.729c-0.42-0.7-0.883-1.4-1.387-2.115
		c-0.771,1.345-1.807,2.55-3.096,3.614l-0.588-0.883c1.317-1.008,2.339-2.199,3.067-3.571c-0.784-1.051-1.681-2.13-2.661-3.222
		l0.672-0.631C410.051,44.949,410.864,45.915,411.62,46.868z M417.111,48.772l-0.799,0.561c-0.56-0.967-1.274-1.989-2.143-3.067
		l0.771-0.561C415.879,46.854,416.607,47.876,417.111,48.772z M418.246,43.086V40.34h1.009v2.746h1.555v0.967h-1.555v7.704
		c0,0.938-0.49,1.414-1.443,1.414h-2.199l-0.21-0.994c0.729,0.042,1.415,0.07,2.06,0.07c0.518,0,0.784-0.253,0.784-0.743v-7.451
		h-4.062v-0.967H418.246z"/>
	<path style="fill:#444444;" d="M422.861,44.08l-0.631-0.771c1.877-0.771,3.404-1.778,4.581-3.025l1.05,0.238
		c-0.238,0.252-0.476,0.504-0.729,0.757h4.455v0.672c-0.448,0.462-0.896,0.854-1.345,1.19h3.655v3.124h-5.616
		c0.771,0.63,1.358,1.303,1.751,2.031c1.372-0.435,2.535-0.98,3.459-1.639l0.659,0.756c-0.673,0.448-1.415,0.841-2.228,1.177
		c0.588,1.204,1.611,2.27,3.082,3.193l-0.673,0.841c-1.526-1.121-2.619-2.354-3.264-3.712c-0.224,0.07-0.448,0.14-0.658,0.21
		c0.168,0.477,0.252,0.98,0.28,1.499c0,0.952-0.196,1.625-0.574,2.003c-0.351,0.309-0.967,0.519-1.85,0.603
		c-0.308,0.027-0.63,0.042-0.994,0.042l-0.309-0.925c0.477,0,0.869-0.014,1.191-0.014c0.448-0.028,0.826-0.154,1.106-0.364
		c0.266-0.225,0.406-0.673,0.406-1.345c0-0.238-0.028-0.463-0.07-0.673c-1.597,1.177-3.754,2.144-6.458,2.886l-0.504-0.868
		c2.899-0.757,5.141-1.723,6.71-2.914c-0.126-0.308-0.28-0.588-0.463-0.868c-1.372,1.009-3.249,1.835-5.616,2.479l-0.49-0.854
		c2.423-0.589,4.3-1.331,5.631-2.241c-0.252-0.28-0.519-0.532-0.799-0.757c-1.093,0.827-2.591,1.401-4.496,1.724l-0.393-0.841
		c1.737-0.28,3.096-0.757,4.076-1.429h-2.983v-2.647C423.505,43.786,423.183,43.94,422.861,44.08z M430.312,42.077h-4.104
		c-0.477,0.378-0.995,0.729-1.541,1.064h4.286C429.416,42.834,429.864,42.47,430.312,42.077z M428.534,43.982h-3.727v1.442h2.928
		C428.1,44.977,428.366,44.501,428.534,43.982z M432.904,43.982h-3.361c-0.154,0.532-0.364,1.022-0.631,1.442h3.992V43.982z"/>
	<path style="fill:#444444;" d="M440.391,41.797c0.182-0.49,0.351-0.98,0.49-1.484l1.022,0.126c-0.14,0.462-0.28,0.91-0.435,1.358
		h7.172v0.98h-7.55c-0.519,1.205-1.162,2.312-1.919,3.32v7.13h-0.98v-5.926c-0.476,0.519-0.966,1.009-1.499,1.485l-0.63-0.799
		c1.709-1.499,3.012-3.235,3.922-5.211h-3.403v-0.98H440.391z M444.327,48.311v-1.303c0.798-0.448,1.555-0.967,2.283-1.583h-5.268
		v-0.938h6.556v0.938c-0.756,0.7-1.61,1.373-2.563,2.003v0.883h3.502v0.967h-3.502v2.647c0,0.826-0.42,1.246-1.246,1.246h-1.751
		l-0.267-0.952c0.505,0.014,1.037,0.028,1.611,0.028c0.42,0,0.645-0.225,0.645-0.645v-2.325h-4.062v-0.967H444.327z"/>
	<path style="fill:#444444;" d="M450.328,46.966l-0.336-1.078c1.106-1.611,1.905-3.446,2.396-5.52l0.91,0.42
		c-0.252,0.953-0.574,1.863-0.938,2.718v9.722h-0.98v-7.816C451.057,45.943,450.707,46.462,450.328,46.966z M455.455,44.725v5.939
		c0.364-0.393,0.742-0.826,1.148-1.303l0.238,0.994c-0.7,0.883-1.457,1.667-2.241,2.367l-0.406-0.924
		c0.196-0.168,0.294-0.351,0.294-0.547v-5.589h-1.568v-0.938H455.455z M456.31,43.016l-0.742,0.742
		c-0.49-0.672-1.163-1.4-2.003-2.157l0.687-0.672C455.062,41.629,455.749,42.315,456.31,43.016z M458.705,42.007v-1.61h0.91v1.61
		h1.583v0.827c0.28-0.561,0.546-1.135,0.799-1.724l0.84,0.435c-0.476,1.177-1.036,2.228-1.652,3.151h1.61v0.925h-2.297
		c-0.393,0.477-0.812,0.925-1.247,1.316h2.857v6.248h-0.952v-0.589h-2.619v0.589h-0.938v-5.015
		c-0.337,0.195-0.673,0.364-1.009,0.532l-0.504-0.799c1.19-0.546,2.255-1.303,3.18-2.283h-2.55v-0.925h1.989V42.89h-1.681v-0.883
		H458.705z M461.156,47.82h-2.619v1.513h2.619V47.82z M458.537,51.715h2.619v-1.541h-2.619V51.715z M461.17,42.89h-1.555v1.807h0.42
		C460.441,44.137,460.82,43.534,461.17,42.89z"/>
</g>
<rect x="560.502" y="23.812" style="opacity:0.6;fill:#BBBBBB;enable-background:new    ;" width="138" height="50"/>
<rect x="558.502" y="21.812" style="fill:#FFFFFF;stroke:#E5E5E5;" width="138" height="50"/>
<g>
	<polygon style="fill:#00A4FF;" points="599.502,46.652 594.502,49.512 589.502,46.652 589.502,46.643 587.502,45.503 
		587.502,47.812 594.502,51.812 601.502,47.812 601.502,45.503 599.502,46.643 	"/>
	<path style="fill:#00A4FF;" d="M594.502,37.812l-7,4v2l2,1.14l5,2.86l5-2.86l2-1.14v-2L594.502,37.812z M594.502,45.512l-4.72-2.7
		l4.72-2.7l4.72,2.7L594.502,45.512z"/>
	<polygon style="fill:#00A4FF;" points="606.502,53.652 594.502,60.512 582.502,53.652 582.502,39.973 594.502,33.113 
		606.502,39.973 606.502,39.952 608.502,38.812 594.502,30.812 580.502,38.812 580.502,54.812 594.502,62.812 608.502,54.812 
		608.502,42.812 606.502,43.952 	"/>
	<polygon style="fill:#00A4FF;" points="599.502,50.652 594.502,53.512 589.502,50.652 589.502,50.643 587.502,49.503 
		587.502,51.812 594.502,55.812 601.502,51.812 601.502,49.503 599.502,50.643 	"/>
</g>
<g style="enable-background:new    ;">
	<path style="fill:#444444;" d="M627.198,42.735c-0.379-0.742-0.841-1.442-1.401-2.101l1.009-0.364
		c0.532,0.672,1.009,1.499,1.457,2.465h5.351v1.009h-2.186c-0.686,2.213-1.723,4.076-3.096,5.561
		c1.485,1.261,3.349,2.298,5.59,3.124l-0.547,0.841c-2.325-0.869-4.23-1.947-5.743-3.25c-1.597,1.471-3.586,2.55-5.967,3.235
		l-0.532-0.882c2.353-0.631,4.286-1.625,5.799-2.998c-1.625-1.597-2.745-3.474-3.376-5.631h-2.157v-1.009H627.198z M627.632,48.675
		c1.247-1.358,2.157-2.998,2.746-4.931h-5.827C625.152,45.635,626.175,47.274,627.632,48.675z"/>
	<path style="fill:#444444;" d="M639.125,40.719c-0.364,1.106-0.827,2.157-1.387,3.151v9.357h-0.995v-7.816
		c-0.448,0.616-0.938,1.204-1.471,1.765l-0.322-1.078c1.485-1.682,2.55-3.628,3.222-5.813L639.125,40.719z M641.52,41.335
		c-0.111,0.7-0.266,1.373-0.462,1.989h2.06V40.41h1.008v2.914h3.222v0.98h-3.222v3.376h3.74v0.966h-3.74v4.511h-1.008v-4.511h-4.118
		v-0.966h4.118v-3.376h-2.382c-0.35,0.924-0.784,1.751-1.303,2.479l-0.645-0.841c0.854-1.289,1.429-2.871,1.737-4.734L641.52,41.335
		z"/>
	<path style="fill:#444444;" d="M653.391,41.797c0.182-0.49,0.351-0.98,0.49-1.484l1.022,0.126c-0.14,0.462-0.28,0.91-0.435,1.358
		h7.172v0.98h-7.55c-0.519,1.205-1.162,2.312-1.919,3.32v7.13h-0.98v-5.926c-0.476,0.519-0.966,1.009-1.499,1.485l-0.63-0.799
		c1.709-1.499,3.012-3.235,3.922-5.211h-3.403v-0.98H653.391z M657.327,48.311v-1.303c0.798-0.448,1.555-0.967,2.283-1.583h-5.268
		v-0.938h6.556v0.938c-0.756,0.7-1.61,1.373-2.563,2.003v0.883h3.502v0.967h-3.502v2.647c0,0.826-0.42,1.246-1.246,1.246h-1.751
		l-0.267-0.952c0.505,0.014,1.037,0.028,1.611,0.028c0.42,0,0.645-0.225,0.645-0.645v-2.325h-4.062v-0.967H657.327z"/>
	<path style="fill:#444444;" d="M663.328,46.966l-0.336-1.078c1.106-1.611,1.905-3.446,2.396-5.52l0.91,0.42
		c-0.252,0.953-0.574,1.863-0.938,2.718v9.722h-0.98v-7.816C664.057,45.943,663.707,46.462,663.328,46.966z M668.455,44.725v5.939
		c0.364-0.393,0.742-0.826,1.148-1.303l0.238,0.994c-0.7,0.883-1.457,1.667-2.241,2.367l-0.406-0.924
		c0.196-0.168,0.294-0.351,0.294-0.547v-5.589h-1.568v-0.938H668.455z M669.31,43.016l-0.742,0.742
		c-0.49-0.672-1.163-1.4-2.003-2.157l0.687-0.672C668.062,41.629,668.749,42.315,669.31,43.016z M671.705,42.007v-1.61h0.91v1.61
		h1.583v0.827c0.28-0.561,0.546-1.135,0.799-1.724l0.84,0.435c-0.476,1.177-1.036,2.228-1.652,3.151h1.61v0.925h-2.297
		c-0.393,0.477-0.812,0.925-1.247,1.316h2.857v6.248h-0.952v-0.589h-2.619v0.589h-0.938v-5.015
		c-0.337,0.195-0.673,0.364-1.009,0.532l-0.504-0.799c1.19-0.546,2.255-1.303,3.18-2.283h-2.55v-0.925h1.989V42.89h-1.681v-0.883
		H671.705z M674.156,47.82h-2.619v1.513h2.619V47.82z M671.537,51.715h2.619v-1.541h-2.619V51.715z M674.17,42.89h-1.555v1.807h0.42
		C673.441,44.137,673.82,43.534,674.17,42.89z"/>
</g>
<rect x="347.502" y="146.812" style="opacity:0.6;fill:#BBBBBB;enable-background:new    ;" width="138" height="50"/>
<rect x="345.502" y="144.812" style="fill:#FFFFFF;stroke:#E5E5E5;" width="138" height="50"/>
<path style="fill:#00A4FF;" d="M393.502,176.673l-11.89,6.83l-12.11-6.84v-13.69l12-6.85l12,6.86l0,0l2-1.17l-14-8l-14,8v16l14.11,8
	l13.89-8v-12l-2,1.14V176.673z M388.502,166.122v-0.19l-7-4.05l-7,4v5.93l2-1.17l0,0l5.27-3l1,0.59l-6.11,3.52l1.84,1.17l0,0
	l2.14,1.29l0.8,0.49l0,0l5.06-2.89v1.1l-5.23,3l-4.85-2.84v-0.14l-1.92,1.06l7,4l7-4v-5.66l-2,1.11l-5.25,3l-1-0.59l6.25-3.47
	l-2-1.18l0,0l-2.71-1.62l-0.18-0.1l0,0v-0.07l-5.11,2.91v-1.17l5-2.86l5,2.52v0.41L388.502,166.122z"/>
<g style="enable-background:new    ;">
	<path style="fill:#444444;" d="M412.643,163.383v6.079c-0.056,3.081-1.19,5.322-3.417,6.737l-0.757-0.658
		c2.073-1.261,3.138-3.292,3.166-6.079v-6.079H412.643z M409.673,164.685v6.864h-1.009v-6.864H409.673z M420.249,164.461v11.444
		h-1.022v-0.854h-6.094v-0.995h6.094v-3.922h-5.449v-0.967h5.449v-3.726h-5.785v-0.98H420.249z"/>
	<path style="fill:#444444;" d="M425.229,176.157h-1.022v-7.018c-0.463,1.345-1.051,2.549-1.779,3.642l-0.435-1.093
		c1.037-1.345,1.766-2.885,2.199-4.608h-1.891v-0.966h1.905v-2.731h1.022v2.731h1.667v0.966h-1.667v0.812
		c0.644,0.687,1.288,1.471,1.946,2.34l-0.574,0.84c-0.532-0.854-0.98-1.541-1.372-2.059V176.157z M430.411,168.229v-4.86h1.022v4.86
		h2.886v7.984h-1.009v-0.588h-6.275v-0.98h6.275v-2.27h-5.673v-0.952h5.673v-2.214h-6.023v-0.98H430.411z M429.416,167.053
		l-0.868,0.434c-0.448-1.078-0.938-2.031-1.442-2.871l0.882-0.435C428.492,165.049,428.968,166.016,429.416,167.053z
		 M434.711,164.503c-0.392,1.036-0.896,2.031-1.513,3.012l-0.868-0.448c0.616-1.009,1.12-2.003,1.484-2.983L434.711,164.503z"/>
	<path style="fill:#444444;" d="M440.391,164.797c0.182-0.49,0.351-0.98,0.49-1.484l1.022,0.126c-0.14,0.462-0.28,0.91-0.435,1.358
		h7.172v0.98h-7.55c-0.519,1.205-1.162,2.312-1.919,3.32v7.13h-0.98v-5.926c-0.476,0.519-0.966,1.009-1.499,1.485l-0.63-0.799
		c1.709-1.499,3.012-3.235,3.922-5.211h-3.403v-0.98H440.391z M444.327,171.311v-1.303c0.798-0.448,1.555-0.967,2.283-1.583h-5.268
		v-0.938h6.556v0.938c-0.756,0.7-1.61,1.373-2.563,2.003v0.883h3.502v0.967h-3.502v2.647c0,0.826-0.42,1.246-1.246,1.246h-1.751
		l-0.267-0.952c0.505,0.014,1.037,0.028,1.611,0.028c0.42,0,0.645-0.225,0.645-0.645v-2.325h-4.062v-0.967H444.327z"/>
	<path style="fill:#444444;" d="M450.328,169.966l-0.336-1.078c1.106-1.611,1.905-3.446,2.396-5.52l0.91,0.42
		c-0.252,0.953-0.574,1.863-0.938,2.718v9.722h-0.98v-7.816C451.057,168.943,450.707,169.462,450.328,169.966z M455.455,167.725
		v5.939c0.364-0.393,0.742-0.826,1.148-1.303l0.238,0.994c-0.7,0.883-1.457,1.667-2.241,2.367l-0.406-0.924
		c0.196-0.168,0.294-0.351,0.294-0.547v-5.589h-1.568v-0.938H455.455z M456.31,166.016l-0.742,0.742
		c-0.49-0.672-1.163-1.4-2.003-2.157l0.687-0.672C455.062,164.629,455.749,165.315,456.31,166.016z M458.705,165.007v-1.61h0.91
		v1.61h1.583v0.827c0.28-0.561,0.546-1.135,0.799-1.724l0.84,0.435c-0.476,1.177-1.036,2.228-1.652,3.151h1.61v0.925h-2.297
		c-0.393,0.477-0.812,0.925-1.247,1.316h2.857v6.248h-0.952v-0.589h-2.619v0.589h-0.938v-5.015
		c-0.337,0.195-0.673,0.364-1.009,0.532l-0.504-0.799c1.19-0.546,2.255-1.303,3.18-2.283h-2.55v-0.925h1.989v-1.807h-1.681v-0.883
		H458.705z M461.156,170.82h-2.619v1.513h2.619V170.82z M458.537,174.715h2.619v-1.541h-2.619V174.715z M461.17,165.89h-1.555v1.807
		h0.42C460.441,167.137,460.82,166.534,461.17,165.89z"/>
</g>
<rect x="132.502" y="267.312" style="opacity:0.6;fill:#BBBBBB;enable-background:new    ;" width="141.996" height="50"/>
<rect x="130.502" y="265.312" style="fill:#FFFFFF;stroke:#E5E5E5;" width="141.996" height="50"/>
<path style="fill:#00A4FF;" d="M166.502,297.312c-3.865-0.067-6.945-3.254-6.878-7.12c0.052-3.004,2.015-5.64,4.878-6.55v2.1
	c-2.534,1.098-3.697,4.042-2.599,6.576c1.098,2.534,4.042,3.697,6.576,2.599c1.236-0.536,2.203-1.547,2.683-2.805l2.2-0.4
	C172.697,294.972,169.829,297.313,166.502,297.312z"/>
<path style="fill:#00A4FF;" d="M173.292,288.712c-0.589-2.832-2.919-4.972-5.79-5.32h-2v7.92h2l5.5-1.46l0.52-0.14L173.292,288.712z
	 M167.502,289.253v-3.83c1.572,0.318,2.896,1.37,3.56,2.83L167.502,289.253z"/>
<g style="enable-background:new    ;">
	<path style="fill:#444444;" d="M198.805,287.553c0.112-0.812,0.168-1.653,0.182-2.536v-1.134h1.037v0.91
		c0,0.98-0.07,1.891-0.182,2.76h5.813v0.98h-5.519c0.98,3.165,2.914,5.603,5.785,7.312l-0.63,0.812
		c-2.815-1.737-4.749-4.174-5.799-7.34c-0.869,3.403-2.801,5.883-5.785,7.438l-0.63-0.84c2.984-1.471,4.833-3.937,5.561-7.382
		h-5.281v-0.98H198.805z"/>
	<path style="fill:#444444;" d="M210.76,290.479c-0.098,0.267-0.196,0.519-0.28,0.771h2.914v0.854
		c-0.308,0.925-0.812,1.709-1.527,2.382c0.659,0.28,1.289,0.588,1.891,0.924l-0.546,0.812c-0.616-0.364-1.316-0.729-2.129-1.092
		c-0.938,0.644-2.101,1.162-3.502,1.555l-0.49-0.869c1.148-0.308,2.129-0.686,2.941-1.148c-0.616-0.252-1.261-0.519-1.947-0.784
		c0.364-0.603,0.686-1.177,0.952-1.723h-1.639v-0.911h2.059c0.112-0.308,0.224-0.602,0.322-0.882L210.76,290.479z M210.172,286.558
		v-2.675h0.938v2.675h2.549v0.883h-2.549v0.154c0.756,0.378,1.541,0.812,2.325,1.288l-0.518,0.784
		c-0.701-0.56-1.303-1.008-1.807-1.345v1.821h-0.938v-2.661c-0.462,1.106-1.303,2.059-2.507,2.871l-0.49-0.812
		c1.079-0.63,1.835-1.33,2.255-2.101h-1.989v-0.883H210.172z M209.401,285.899l-0.784,0.364c-0.294-0.687-0.616-1.289-0.953-1.807
		l0.84-0.28C208.841,284.709,209.149,285.283,209.401,285.899z M212.441,292.161h-2.368c-0.224,0.462-0.476,0.91-0.756,1.33
		c0.532,0.183,1.064,0.379,1.583,0.589C211.587,293.52,212.105,292.89,212.441,292.161z M213.534,284.471
		c-0.28,0.616-0.63,1.219-1.079,1.821l-0.756-0.406c0.434-0.616,0.785-1.219,1.037-1.808L213.534,284.471z M215.046,289.233
		c-0.252,0.645-0.532,1.219-0.826,1.723l-0.63-0.771c0.826-1.568,1.387-3.684,1.667-6.346l0.98,0.169
		c-0.084,0.714-0.196,1.387-0.308,2.003h3.698v0.966h-0.91c-0.056,2.34-0.477,4.343-1.247,5.996
		c0.729,1.218,1.583,2.171,2.592,2.843l-0.575,0.854c-0.98-0.687-1.807-1.61-2.507-2.759c-0.686,1.12-1.555,2.059-2.605,2.815
		l-0.532-0.854c1.093-0.757,1.961-1.737,2.591-2.928C215.887,291.853,215.425,290.62,215.046,289.233z M215.523,287.721
		c0.35,1.597,0.812,2.997,1.373,4.188c0.546-1.429,0.84-3.067,0.896-4.931h-2.073C215.649,287.23,215.579,287.482,215.523,287.721z"
		/>
	<path style="fill:#444444;" d="M221.608,296.587l-0.21-0.952c0.364,0.042,0.729,0.07,1.064,0.07c0.35,0,0.532-0.211,0.532-0.617
		v-3.417c-0.56,0.21-1.106,0.406-1.653,0.574l-0.252-0.98c0.644-0.154,1.289-0.351,1.905-0.574v-3.166h-1.681v-0.967h1.681v-2.647
		h0.98v2.647h1.345v0.967h-1.345v2.76c0.448-0.196,0.883-0.406,1.303-0.631v0.995c-0.434,0.224-0.868,0.42-1.303,0.616v4.076
		c0,0.826-0.392,1.246-1.176,1.246H221.608z M225.349,296.713l-0.784-0.7c0.994-1.849,1.498-4.258,1.513-7.2v-4.384h7.382v3.403
		h-2.634v1.653h2.998v0.91h-2.998v1.724h2.354v4.594h-0.938v-0.686h-3.796v0.686h-0.938v-4.594h2.339v-1.724h-2.857
		C226.819,292.791,226.273,294.893,225.349,296.713z M227.058,287.832v0.98c0,0.225-0.014,0.449-0.014,0.673h2.801v-1.653H227.058z
		 M227.058,285.367v1.555h5.421v-1.555H227.058z M232.24,295.131v-2.115h-3.796v2.115H232.24z"/>
	<path style="fill:#444444;" d="M240.441,284.652c-0.645,1.177-1.303,2.157-1.976,2.914c-0.7,0.799-1.639,1.597-2.801,2.409
		l-0.547-0.883c0.952-0.56,1.821-1.274,2.592-2.171c0.687-0.784,1.316-1.709,1.877-2.773L240.441,284.652z M237.136,290.396v-0.966
		h8.502c-0.042,1.751-0.14,3.165-0.28,4.258c-0.14,1.064-0.364,1.821-0.7,2.241c-0.322,0.406-0.84,0.631-1.568,0.673h-2.605
		l-0.267-0.967c0.841,0.028,1.625,0.042,2.382,0.042c0.784,0,1.288-0.336,1.54-0.98c0.238-0.673,0.393-2.102,0.477-4.301h-3.74
		c-0.336,1.556-0.798,2.773-1.387,3.67c-0.686,0.98-1.723,1.863-3.109,2.647l-0.616-0.798c1.247-0.7,2.186-1.457,2.815-2.27
		c0.588-0.812,1.009-1.905,1.289-3.25H237.136z M247.879,289.037l-0.672,0.799c-2.129-1.387-3.628-3.18-4.469-5.379l0.868-0.477
		C244.405,286.123,245.834,287.805,247.879,289.037z"/>
	<path style="fill:#444444;" d="M252.368,296.671h-0.995v-7.157c-0.476,1.429-1.106,2.717-1.891,3.88l-0.435-1.106
		c1.065-1.373,1.821-2.941,2.27-4.707h-1.989v-0.966h2.045v-2.746h0.995v2.746h1.891v0.966h-1.891v0.757
		c0.658,0.687,1.331,1.457,2.017,2.325l-0.546,0.798c-0.561-0.868-1.051-1.555-1.471-2.072V296.671z M261.403,284.821
		c-1.598,0.574-3.376,0.91-5.337,1.008v2.521h5.687v0.967h-2.087v7.368h-1.009v-7.368h-2.591v0.154
		c-0.099,2.983-0.812,5.364-2.13,7.13l-0.714-0.743c1.148-1.54,1.779-3.67,1.863-6.387v-4.497c2.156-0.056,4.09-0.406,5.812-1.05
		L261.403,284.821z"/>
</g>
<rect x="560.502" y="267.312" style="opacity:0.6;fill:#BBBBBB;enable-background:new    ;" width="138.996" height="50"/>
<rect x="558.502" y="265.312" style="fill:#FFFFFF;stroke:#E5E5E5;" width="138.996" height="50"/>
<path style="fill:#00A4FF;" d="M587.502,298.312h14v-15h-14V298.312z M599.502,296.312h-1v-2h1V296.312z M589.502,285.312h10v7h-10
	V285.312z M589.502,294.312h7v2h-7V294.312z M594.502,303.312c-7.18,0.008-13.007-5.805-13.015-12.985s5.805-13.007,12.985-13.015
	c6.413-0.008,11.874,4.663,12.86,11h2c-1.105-8.21-8.656-13.971-16.866-12.866c-8.21,1.105-13.971,8.656-12.866,16.866
	c1.105,8.21,8.656,13.971,16.866,12.866c6.697-0.901,11.965-6.169,12.866-12.866h-2
	C606.347,298.638,600.904,303.305,594.502,303.312z"/>
<g style="enable-background:new    ;">
	<path style="fill:#444444;" d="M633.81,288.589v1.009h-6.724c-1.289,2.647-2.424,4.482-3.376,5.519
		c2.521-0.14,5.028-0.378,7.536-0.714c-0.504-0.896-1.064-1.821-1.681-2.773l0.812-0.505c1.288,1.934,2.283,3.628,2.983,5.057
		l-0.896,0.631c-0.225-0.49-0.463-0.98-0.729-1.485c-2.844,0.364-5.939,0.645-9.301,0.869l-0.267-1.022
		c0.112-0.028,0.183-0.07,0.238-0.099c0.896-0.672,2.087-2.493,3.558-5.477h-4.721v-1.009H633.81z M632.562,284.681v0.98h-9.974
		v-0.98H632.562z"/>
	<path style="fill:#444444;" d="M635.455,285.619v-0.952h4.552v0.952h-2.059c-0.196,1.121-0.463,2.171-0.826,3.151h2.689v6.317
		h-2.479v1.135h-0.938v-5.785c-0.28,0.505-0.574,0.995-0.883,1.443l-0.532-0.841c1.009-1.568,1.667-3.376,2.003-5.421H635.455z
		 M638.872,294.206v-4.539h-1.54v4.539H638.872z M647.711,284.429v0.91h-3.151v1.247h2.731v5.505h-2.787
		c-0.099,0.952-0.351,1.751-0.771,2.409c1.204,0.771,2.633,1.205,4.286,1.303l-0.252,0.91c-1.766-0.111-3.292-0.616-4.595-1.513
		c-0.672,0.631-1.625,1.135-2.886,1.527l-0.519-0.812c1.163-0.351,2.046-0.784,2.634-1.303c-0.546-0.463-1.036-0.995-1.484-1.583
		l0.7-0.49c0.406,0.532,0.854,1.009,1.358,1.415c0.309-0.532,0.519-1.163,0.616-1.863h-2.661v-5.505h2.718v-1.247h-3.152v-0.91
		H647.711z M643.649,287.454h-1.793v1.471h1.793V287.454z M641.856,291.236h1.793v-1.484h-1.793V291.236z M646.381,287.454h-1.821
		v1.471h1.821V287.454z M644.56,291.236h1.821v-1.484h-1.821V291.236z"/>
	<path style="fill:#444444;" d="M660.296,295.425h1.541v0.91h-12.593v-0.91h1.472v-3.166h9.58V295.425z M651.78,287.931v-3.18h2.675
		c0.21-0.336,0.364-0.687,0.477-1.037l1.009,0.141c-0.112,0.322-0.267,0.616-0.448,0.896h4.146v3.18h1.835v0.938h-1.835v1.709
		c0,0.729-0.406,1.093-1.204,1.093h-1.079l-0.238-0.911c0.364,0.028,0.715,0.042,1.022,0.042c0.337,0,0.519-0.196,0.519-0.574
		v-1.358h-5.981c-0.195,1.219-0.784,2.228-1.75,3.012l-0.771-0.687c0.84-0.645,1.345-1.429,1.541-2.325h-2.06v-0.938H651.78z
		 M653.559,295.425v-2.256h-1.877v2.256H653.559z M658.657,285.661h-5.911v2.27h5.911V285.661z M656.668,290.732l-0.602,0.714
		c-0.589-0.588-1.331-1.148-2.228-1.652l0.532-0.645C655.268,289.625,656.024,290.144,656.668,290.732z M656.851,287.23
		l-0.574,0.672c-0.519-0.504-1.177-0.98-1.976-1.429l0.519-0.603C655.604,286.277,656.276,286.726,656.851,287.23z M656.444,295.425
		v-2.256h-1.919v2.256H656.444z M659.33,295.425v-2.256h-1.919v2.256H659.33z"/>
</g>
<g style="enable-background:new    ;">
	<path style="fill:#878787;" d="M179.391,90.797c0.182-0.49,0.35-0.98,0.49-1.484l1.022,0.126c-0.14,0.462-0.28,0.91-0.434,1.358
		h7.172v0.98h-7.55c-0.518,1.205-1.163,2.312-1.919,3.32v7.13h-0.98v-5.926c-0.476,0.519-0.966,1.009-1.499,1.485l-0.63-0.799
		c1.708-1.499,3.011-3.235,3.922-5.211h-3.404v-0.98H179.391z M183.327,97.311v-1.303c0.798-0.448,1.555-0.967,2.283-1.583h-5.267
		v-0.938h6.555v0.938c-0.756,0.7-1.611,1.373-2.563,2.003v0.883h3.501v0.967h-3.501v2.647c0,0.826-0.42,1.246-1.247,1.246h-1.75
		l-0.267-0.952c0.504,0.014,1.037,0.028,1.611,0.028c0.42,0,0.644-0.225,0.644-0.645v-2.325h-4.062v-0.967H183.327z"/>
</g>
<g style="enable-background:new    ;">
	<path style="fill:#878787;" d="M178.228,116.557h-1.022v-7.018c-0.462,1.345-1.051,2.549-1.779,3.642l-0.434-1.093
		c1.037-1.345,1.765-2.885,2.199-4.608H175.3v-0.966h1.905v-2.731h1.022v2.731h1.667v0.966h-1.667v0.812
		c0.644,0.687,1.289,1.471,1.947,2.34l-0.574,0.84c-0.532-0.854-0.98-1.541-1.373-2.059V116.557z M183.411,108.628v-4.86h1.022v4.86
		h2.886v7.984h-1.008v-0.588h-6.275v-0.98h6.275v-2.27h-5.673v-0.952h5.673v-2.214h-6.023v-0.98H183.411z M182.416,107.453
		l-0.868,0.434c-0.448-1.078-0.938-2.031-1.443-2.871l0.882-0.435C181.492,105.449,181.968,106.416,182.416,107.453z
		 M187.711,104.903c-0.392,1.036-0.896,2.031-1.513,3.012l-0.869-0.448c0.617-1.009,1.121-2.003,1.485-2.983L187.711,104.903z"/>
</g>
<g style="enable-background:new    ;">
	<path style="fill:#878787;" d="M429.975,102.144h-1.022v-1.064h-6.626v1.078h-1.009V89.929h8.657V102.144z M428.952,94.901v-3.992
		h-6.626v3.992H428.952z M428.952,100.098v-4.216h-6.626v4.216H428.952z"/>
</g>
<g style="enable-background:new    ;">
	<path style="fill:#878787;" d="M421.472,111.584c-0.322,1.625-0.771,3.012-1.358,4.188l-0.869-0.532
		c0.575-1.177,0.981-2.466,1.233-3.866L421.472,111.584z M426.024,103.74v1.836h5.463v0.98h-5.463v2.156h4.553v0.967h-10.114v-0.967
		h4.524v-2.156h-5.477v-0.98h5.477v-1.836H426.024z M423.909,116.319c-0.925,0-1.373-0.504-1.373-1.513v-3.88h1.037v3.684
		c0,0.477,0.21,0.729,0.658,0.729h3.039c0.322,0,0.547-0.098,0.687-0.294c0.196-0.225,0.322-0.925,0.379-2.073l0.952,0.322
		c-0.112,1.429-0.309,2.312-0.603,2.619c-0.252,0.267-0.672,0.406-1.232,0.406H423.909z M427.061,113.364l-0.924,0.406
		c-0.393-1.065-0.812-2.018-1.289-2.83l0.952-0.322C426.276,111.472,426.696,112.383,427.061,113.364z M431.865,114.946
		l-0.925,0.406c-0.546-1.526-1.148-2.871-1.793-4.034l0.939-0.308C430.759,112.243,431.361,113.545,431.865,114.946z"/>
</g>
<g style="enable-background:new    ;">
	<path style="fill:#878787;" d="M652.97,102.144h-1.022v-1.064h-6.625v1.078h-1.009V89.929h8.656V102.144z M651.947,94.901v-3.992
		h-6.625v3.992H651.947z M651.947,100.098v-4.216h-6.625v4.216H651.947z"/>
</g>
<g style="enable-background:new    ;">
	<path style="fill:#878787;" d="M644.468,111.584c-0.322,1.625-0.771,3.012-1.359,4.188l-0.868-0.532
		c0.574-1.177,0.98-2.466,1.232-3.866L644.468,111.584z M649.02,103.74v1.836h5.463v0.98h-5.463v2.156h4.553v0.967h-10.113v-0.967
		h4.524v-2.156h-5.477v-0.98h5.477v-1.836H649.02z M646.904,116.319c-0.924,0-1.372-0.504-1.372-1.513v-3.88h1.036v3.684
		c0,0.477,0.21,0.729,0.658,0.729h3.04c0.322,0,0.546-0.098,0.687-0.294c0.196-0.225,0.322-0.925,0.378-2.073l0.952,0.322
		c-0.111,1.429-0.308,2.312-0.602,2.619c-0.253,0.267-0.673,0.406-1.233,0.406H646.904z M650.057,113.364l-0.925,0.406
		c-0.393-1.065-0.812-2.018-1.289-2.83l0.953-0.322C649.272,111.472,649.692,112.383,650.057,113.364z M654.861,114.946
		l-0.925,0.406c-0.546-1.526-1.148-2.871-1.793-4.034l0.938-0.308C653.755,112.243,654.356,113.545,654.861,114.946z"/>
</g>
<g style="enable-background:new    ;">
	<path style="fill:#878787;" d="M185.974,235.677h-1.022v-1.064h-6.625v1.078h-1.009v-12.229h8.657V235.677z M184.952,228.435
		v-3.992h-6.625v3.992H184.952z M184.952,233.631v-4.216h-6.625v4.216H184.952z"/>
</g>
<g style="enable-background:new    ;">
	<path style="fill:#878787;" d="M177.472,245.118c-0.322,1.625-0.771,3.012-1.359,4.188l-0.869-0.532
		c0.575-1.177,0.981-2.466,1.233-3.866L177.472,245.118z M182.024,237.273v1.836h5.463v0.98h-5.463v2.156h4.553v0.967h-10.114
		v-0.967h4.524v-2.156h-5.477v-0.98h5.477v-1.836H182.024z M179.909,249.852c-0.924,0-1.373-0.504-1.373-1.513v-3.88h1.037v3.684
		c0,0.477,0.21,0.729,0.658,0.729h3.04c0.322,0,0.546-0.098,0.687-0.294c0.196-0.225,0.322-0.925,0.378-2.073l0.952,0.322
		c-0.112,1.429-0.308,2.312-0.602,2.619c-0.252,0.267-0.672,0.406-1.233,0.406H179.909z M183.061,246.897l-0.924,0.406
		c-0.393-1.065-0.812-2.018-1.289-2.83l0.953-0.322C182.276,245.005,182.696,245.917,183.061,246.897z M187.865,248.479
		l-0.925,0.406c-0.546-1.526-1.148-2.871-1.793-4.034l0.939-0.308C186.759,245.776,187.361,247.079,187.865,248.479z"/>
</g>
<g style="enable-background:new    ;">
	<path style="fill:#878787;" d="M652.97,198.477h-1.022v-1.064h-6.625v1.078h-1.009v-12.229h8.656V198.477z M651.947,191.234v-3.992
		h-6.625v3.992H651.947z M651.947,196.431v-4.216h-6.625v4.216H651.947z"/>
</g>
<g style="enable-background:new    ;">
	<path style="fill:#878787;" d="M644.468,207.917c-0.322,1.625-0.771,3.012-1.359,4.188l-0.868-0.532
		c0.574-1.177,0.98-2.466,1.232-3.866L644.468,207.917z M649.02,200.073v1.836h5.463v0.98h-5.463v2.156h4.553v0.967h-10.113v-0.967
		h4.524v-2.156h-5.477v-0.98h5.477v-1.836H649.02z M646.904,212.652c-0.924,0-1.372-0.504-1.372-1.513v-3.88h1.036v3.684
		c0,0.477,0.21,0.729,0.658,0.729h3.04c0.322,0,0.546-0.098,0.687-0.294c0.196-0.225,0.322-0.925,0.378-2.073l0.952,0.322
		c-0.111,1.429-0.308,2.312-0.602,2.619c-0.253,0.267-0.673,0.406-1.233,0.406H646.904z M650.057,209.697l-0.925,0.406
		c-0.393-1.065-0.812-2.018-1.289-2.83l0.953-0.322C649.272,207.805,649.692,208.716,650.057,209.697z M654.861,211.279
		l-0.925,0.406c-0.546-1.526-1.148-2.871-1.793-4.034l0.938-0.308C653.755,208.576,654.356,209.878,654.861,211.279z"/>
</g>
<g style="enable-background:new    ;">
	<path style="fill:#878787;" d="M643.36,231.661c-0.042,1.4-0.21,2.745-0.504,4.006l-0.826-0.238
		c0.308-1.204,0.49-2.479,0.532-3.823L643.36,231.661z M645.056,228.943v12.747h-0.994v-12.747H645.056z M647.101,234.393
		l-0.826,0.21c-0.252-1.064-0.574-2.101-0.967-3.082l0.757-0.252C646.456,232.18,646.793,233.216,647.101,234.393z M649.622,231.045
		v-2.115h0.98v2.115h2.983v4.202h1.107v0.98h-3.824c0.868,1.919,2.241,3.474,4.132,4.65l-0.687,0.784
		c-1.904-1.316-3.291-2.97-4.174-4.958c-0.631,2.241-1.877,3.88-3.754,4.944l-0.616-0.826c1.793-0.953,2.969-2.479,3.502-4.595
		h-2.858v-0.98h3.054c0.099-0.645,0.154-1.331,0.154-2.045v-1.219h-2.549v-0.938H649.622z M650.603,232.992
		c0,0.798-0.056,1.555-0.154,2.255h2.157v-3.264h-2.003V232.992z"/>
</g>
<g style="enable-background:new    ;">
	<path style="fill:#878787;" d="M644.523,253.121c-0.309,1.177-0.687,2.199-1.148,3.096l-0.925-0.322
		c0.448-0.798,0.841-1.807,1.177-3.012L644.523,253.121z M646.891,243.862v8.376h-4.021v-8.376H646.891z M645.924,247.574v-2.802
		h-2.072v2.802H645.924z M645.924,248.484h-2.072v2.857h2.072V248.484z M647.647,255.951l-0.967,0.224
		c-0.183-1.093-0.393-2.045-0.631-2.871l0.925-0.211C647.227,253.975,647.451,254.927,647.647,255.951z M647.745,244.8v-0.938h6.443
		c-0.027,1.61-0.14,2.647-0.322,3.109c-0.21,0.631-0.714,0.953-1.513,0.98c-0.308,0-0.658-0.014-1.051-0.042l-0.279-0.882
		c0.476,0.027,0.882,0.056,1.218,0.056c0.421-0.014,0.687-0.238,0.771-0.673c0.084-0.266,0.126-0.798,0.154-1.61h-2.451
		c-0.196,1.526-1.148,2.647-2.886,3.348l-0.532-0.841c1.457-0.532,2.27-1.358,2.451-2.507H647.745z M653.895,248.568v3.67h-5.883
		v-3.67H653.895z M652.914,249.464h-3.908v1.892h3.908V249.464z M650.953,255.922l-0.967,0.224c-0.266-1.12-0.588-2.101-0.967-2.955
		l0.938-0.21C650.337,253.877,650.673,254.858,650.953,255.922z M654.679,255.614l-0.812,0.574c-0.448-0.896-1.05-1.891-1.807-2.969
		l0.784-0.477C653.643,253.835,654.259,254.801,654.679,255.614z"/>
</g>
<g>
	<path style="fill:none;stroke:#00A4FF;stroke-width:2;stroke-miterlimit:10;" d="M173.602,302.277
		c-6.506,4.186-15.174,2.304-19.36-4.202c-2.197-3.415-2.804-7.616-1.663-11.513"/>
	<path style="fill:none;stroke:#00A4FF;stroke-width:2;stroke-miterlimit:10;" d="M158.431,278.737
		c6.505-4.185,15.172-2.305,19.357,4.2c2.341,3.639,2.869,8.156,1.43,12.237"/>
	<circle style="fill:#00A4FF;" cx="158.882" cy="279.146" r="2.439"/>
	<circle style="fill:#00A4FF;" cx="173.351" cy="301.905" r="2.439"/>
</g>
<g>
	<rect x="98" y="0.52" style="fill-opacity:0;" width="633" height="336.54"/>
	<path style="fill:none;stroke:#BABABA;stroke-dasharray:5;" d="M98,0.52h634v336.542H98V0.52"/>
</g>
</svg>
