<svg id="图层_1" data-name="图层 1" xmlns="http://www.w3.org/2000/svg" width="48" height="48" viewBox="0 0 48 48">
  <title>自然的美妆效果</title>
  <g id="团队-48x48">
    <g id="Combined-Shape">
      <path d="M11.252,24A8.014,8.014,0,0,0,11,26H4a2,2,0,0,0-2,2V42h9v2H0V28a4,4,0,0,1,4-4Z" style="fill: #334966"/>
    </g>
    <g id="Combined-Shape-2" data-name="Combined-Shape">
      <path d="M36.748,24H44a4,4,0,0,1,4,4V44H37V42h9V28a2,2,0,0,0-2-2H37A8.015,8.015,0,0,0,36.748,24Z" style="fill: #334966"/>
    </g>
    <path d="M35,46H13V26a6.007,6.007,0,0,1,6-6H29a6.007,6.007,0,0,1,6,6ZM15,44H33V26a4,4,0,0,0-4-4H19a4,4,0,0,0-4,4Z" style="fill: #334966"/>
    <g id="Oval-14-Copy">
      <circle cx="8" cy="17" r="5" style="fill: #00a4ff"/>
    </g>
    <g id="Oval-14-Copy-2">
      <circle cx="40" cy="17" r="5" style="fill: #00a4ff"/>
    </g>
    <g id="Oval-14">
      <path d="M24,18a8,8,0,1,1,8-8A8.009,8.009,0,0,1,24,18ZM24,4a6,6,0,1,0,6,6A6.007,6.007,0,0,0,24,4Z" style="fill: #334966"/>
    </g>
  </g>
</svg>
