<?xml version="1.0" encoding="utf-8"?>
<!-- Generator: Adobe Illustrator 21.0.0, SVG Export Plug-In . SVG Version: 6.00 Build 0)  -->
<svg version="1.1" id="图层_1" xmlns="http://www.w3.org/2000/svg" xmlns:xlink="http://www.w3.org/1999/xlink" x="0px" y="0px"
	 viewBox="0 0 830 336" style="enable-background:new 0 0 830 336;" xml:space="preserve">
<style type="text/css">
	.st0{display:none;fill:none;stroke:#999999;}
	.st1{fill:#EAEBEC;}
	.st2{enable-background:new    ;}
	.st3{fill:#444444;}
	.st4{fill:none;stroke:#888888;}
	.st5{fill:#888888;}
	.st6{fill:none;stroke:#FF0000;stroke-width:15;stroke-opacity:0;}
	.st7{opacity:0.6;fill:#BBBBBB;enable-background:new    ;}
	.st8{fill:#FFFFFF;stroke:#E5E5E5;}
	.st9{fill:#00A4FF;}
</style>
<path class="st0" d="M0-124L0-124"/>
<g id="bottomgroup" transform="translate(0,0)">
	<g id="GrayRectGroup10" transform="translate(5.5,124)">
		<rect x="-6" y="-124" class="st1" width="226" height="336"/>
		<g class="st2">
			<path class="st3" d="M10.2-109c-0.2,0.3-0.4,0.6-0.6,0.9h5.2v0.8c-0.6,0.8-1.4,1.5-2.5,2.1c1.5,0.6,3.2,1,5.1,1.1l-0.2,0.9
				c-2.2-0.2-4.2-0.7-6-1.5c-1.7,0.8-3.7,1.3-6.3,1.8l-0.4-0.9c2.3-0.4,4.1-0.8,5.6-1.4c-0.7-0.4-1.4-0.9-2-1.4
				c-0.5,0.5-1.1,0.9-1.8,1.3L5.8-106c1.4-0.8,2.5-1.8,3.4-3.2L10.2-109z M16.7-107.7h-1v-1.7H6.3v1.7h-1v-2.6h5.1
				c-0.2-0.4-0.3-0.7-0.5-1l1.1-0.2c0.2,0.3,0.3,0.7,0.5,1.1h5.2V-107.7z M15.1-98.6h-1v-0.6h-6v0.6h-1v-4.4h8V-98.6z M14.1-100.1
				v-2h-6v2H14.1z M13.5-107.2H8.8l0,0c0.7,0.6,1.6,1.1,2.4,1.6C12.2-106.1,13-106.6,13.5-107.2z"/>
			<path class="st3" d="M19.2-98.5l-0.7-0.7c1.1-1.6,1.7-3.6,1.7-6.1v-4.4h4.6c-0.3-0.6-0.5-1.1-0.8-1.6l1.1-0.2
				c0.3,0.5,0.5,1.1,0.8,1.8h4.4v4.7h-9C21.1-102.5,20.5-100.4,19.2-98.5z M21.2-108.7v2.7h8v-2.7H21.2z"/>
			<path class="st3" d="M34.2-110v10h-1.1v-10H34.2z"/>
			<path class="st3" d="M39.9-110c1.6,0,2.8,0.4,3.6,1.4c0.7,0.8,1.1,2.1,1.1,3.6c0,1.5-0.4,2.8-1.2,3.6c-0.8,0.9-2,1.4-3.6,1.4
				h-3.5v-10H39.9z M37.5-101h2.1c1.3,0,2.3-0.4,2.9-1c0.6-0.7,0.9-1.7,0.9-3c0-1.3-0.3-2.3-0.9-3c-0.6-0.7-1.6-1-2.9-1h-2.3V-101z"
				/>
			<path class="st3" d="M53.3-109.3c0.8,0.6,1.2,1.4,1.3,2.4h-1.1c-0.1-0.7-0.5-1.3-1.1-1.7c-0.5-0.4-1.2-0.6-2-0.6
				c-1.2,0-2.1,0.4-2.7,1.2c-0.6,0.8-0.9,1.8-0.9,3c0,1.2,0.3,2.2,0.9,3c0.6,0.8,1.5,1.2,2.7,1.2c0.8,0,1.5-0.2,2-0.6
				c0.6-0.4,1-1.1,1.2-2h1.1c-0.2,1.2-0.7,2.1-1.6,2.7c-0.8,0.6-1.7,0.9-2.8,0.9c-1.6,0-2.7-0.5-3.6-1.5c-0.8-0.9-1.1-2.1-1.1-3.6
				c0-1.5,0.4-2.7,1.1-3.7c0.8-1.1,2-1.6,3.6-1.6C51.6-110.2,52.6-109.9,53.3-109.3z"/>
		</g>
	</g>
</g>
<g id="Link11" transform="translate(0,0)">
	<path class="st4" d="M228.5,167.5h8l0,0h8"/>
	<g transform="translate(0.5, 0)">
		<polygon class="st5" points="239.5,172 245.5,167.5 239.5,163 		"/>
	</g>
	<path class="st6" d="M228.5,167.5h8"/>
	<path class="st6" d="M236.5,167.5L236.5,167.5"/>
	<path class="st6" d="M236.5,167.5h8"/>
</g>
<g id="Link21" transform="translate(0,0)">
	<path class="st4" d="M418,167.5h7l0,0h7.8"/>
	<g transform="translate(0.5, 0)">
		<polygon class="st5" points="428.8,172 433.5,167.5 428.8,163 		"/>
	</g>
	<path class="st6" d="M418,167.5h7"/>
	<path class="st6" d="M425,167.5L425,167.5"/>
	<path class="st6" d="M425,167.5h7.8"/>
</g>
<g id="Link27" transform="translate(0,0)">
	<path class="st4" d="M611,167.5h9.8v-81h9.8"/>
	<g transform="translate(0.5, 0)">
		<polygon class="st5" points="626.1,91 631.5,86.5 626.1,82 		"/>
	</g>
	<path class="st6" d="M611,167.5h9.8"/>
	<path class="st6" d="M620.8,167.5v-81"/>
	<path class="st6" d="M620.8,86.5h9.8"/>
</g>
<g id="Link25" transform="translate(0,0)">
	<path class="st4" d="M614,167.5h8.9l0,0h8.9"/>
	<g transform="translate(0.5, 0)">
		<polygon class="st5" points="627.6,172 632.5,167.5 627.6,163 		"/>
	</g>
	<path class="st6" d="M614,167.5h8.9"/>
	<path class="st6" d="M622.9,167.5L622.9,167.5"/>
	<path class="st6" d="M622.9,167.5h8.9"/>
</g>
<g id="Link26" transform="translate(0,0)">
	<path class="st4" d="M611,167.5h9.8v75h9.8"/>
	<g transform="translate(0.5, 0)">
		<polygon class="st5" points="626.1,247 631.5,242.5 626.1,238 		"/>
	</g>
	<path class="st6" d="M611,167.5h9.8"/>
	<path class="st6" d="M620.8,167.5v75"/>
	<path class="st6" d="M620.8,242.5h9.8"/>
</g>
<g id="RectEndPoint3" transform="translate(12.5,267)">
	<rect x="-4" y="-122" class="st7" width="212" height="50"/>
	<rect x="-6" y="-124" class="st8" width="212" height="50"/>
	<g class="st2">
		<path class="st3" d="M35.7-92.6h-1v-0.6h-9.5v0.6h-1v-12.2h11.4V-92.6z M34.7-94.1v-9.9h-9.5v9.9H34.7z M29.6-103.5
			c-0.1,0.3-0.2,0.5-0.4,0.8h3.7v0.7c-0.4,0.7-1,1.4-1.8,2c0.9,0.4,2,0.8,3.2,1.1l-0.5,0.8c-1.4-0.4-2.5-0.8-3.5-1.4
			c-1.1,0.6-2.4,1-4,1.4L25.8-99c1.4-0.3,2.7-0.6,3.6-1.1c-0.5-0.4-1-0.8-1.4-1.2c-0.4,0.4-0.9,0.8-1.4,1.1l-0.6-0.7
			c1.3-0.8,2.1-1.7,2.6-2.7L29.6-103.5z M32.9-95.2l-0.3,0.8c-1.7-0.7-3.5-1.2-5.4-1.6l0.4-0.8C29.4-96.4,31.2-95.9,32.9-95.2z
			 M32-97.4l-0.5,0.7c-1-0.6-2-1-3-1.4l0.5-0.7C30.1-98.3,31.1-97.9,32-97.4z M31.9-102h-3.2c-0.1,0.1-0.1,0.1-0.1,0.2
			c0.5,0.5,1.1,0.9,1.7,1.3C31-100.9,31.5-101.4,31.9-102z"/>
		<path class="st3" d="M41.3-99.9c0,0.5,0,1-0.1,1.5h6.5v5.9h-1v-4.9h-5.6c-0.3,2.1-1.1,3.7-2.3,4.8l-0.8-0.7
			c1.5-1.4,2.2-3.6,2.2-6.6v-5.1h1v3.3h4.1v-3.7h1v3.7h3.2v1h-8.3V-99.9z"/>
		<path class="st3" d="M55-94.6c0.5,0.5,0.9,1,1.2,1.4l-0.7,0.6c-0.3-0.5-0.7-1-1.2-1.4c-0.5-0.6-1-1-1.6-1.4l0.6-0.6
			C54-95.6,54.5-95.1,55-94.6z"/>
		<path class="st3" d="M71.6-104.1c-0.2-0.5-0.4-0.9-0.7-1.3l1.1-0.2c0.2,0.4,0.4,0.9,0.6,1.5h4.9v0.9h-2.2
			c-0.2,0.8-0.5,1.5-0.9,2.2h3.7v0.9H65.8v-0.9h3.6c-0.2-0.8-0.5-1.6-0.8-2.2h-2.2v-0.9H71.6z M76.4-92.6h-1v-0.6h-6.6v0.6h-1v-6.2
			h8.7V-92.6z M75.4-96.5V-98h-6.6v1.5H75.4z M75.4-94.1v-1.5h-6.6v1.5H75.4z M70.4-100.9h3c0.4-0.7,0.7-1.5,0.8-2.2h-4.6
			C70-102.5,70.2-101.7,70.4-100.9z"/>
		<path class="st3" d="M79.9-96.7l-0.3-1.1c1.9-1.6,3.1-3.2,3.8-4.7h-3.4v-1h2.2c-0.2-0.6-0.5-1.2-0.8-1.8l1-0.3
			c0.3,0.7,0.6,1.4,0.8,1.9l-0.4,0.2h1.8v0.9c-0.4,1-0.9,2-1.7,3c0.8,0.5,1.5,1,2.1,1.6l-0.6,0.9c-0.5-0.6-1-1-1.5-1.4v5.9h-1v-5.8
			C81.1-97.9,80.5-97.3,79.9-96.7z M88.8-102.9v2.7c-0.1,2.1-0.4,3.8-1.1,5c-0.7,1.2-1.8,2.1-3.3,2.7l-0.5-0.9
			c1.5-0.6,2.5-1.5,3.1-2.5c0.5-1.1,0.8-2.5,0.9-4.3v-2.7H88.8z M91.4-97.1h-1v-6.8h-3.9v6.8h-1v-7.7h6V-97.1z M89.7-92.8
			c-0.8,0-1.1-0.4-1.1-1.2v-3.1h1v2.9c0,0.3,0.2,0.5,0.5,0.5h0.9c0.2,0,0.4-0.1,0.4-0.2c0.1-0.2,0.2-0.7,0.2-1.6l0.9,0.3
			c-0.1,1.1-0.2,1.9-0.5,2.1c-0.2,0.2-0.5,0.3-1,0.3H89.7z"/>
		<path class="st3" d="M97.5-105.4v1.7h1.9v1h-1.9v1.6h2.1v1h-5.9v-1h0.8v-3.1h1v3.1h1.1v-4.2H97.5z M95.7-98.7
			c-0.3,1.3-0.8,2.3-1.3,3l-0.7-0.6c0.5-0.7,0.9-1.6,1.1-2.7L95.7-98.7z M99.7-98.9c-0.6,3.1-2.4,5.2-5.4,6.2l-0.6-0.9
			c2.8-0.9,4.5-2.7,5.1-5.4L99.7-98.9z M97.4-99.7v3.7h-1v-3.7H97.4z M103.5-100.6v2.5c0,1.5-0.4,2.7-0.9,3.6
			c-0.6,0.8-1.5,1.5-2.8,1.9l-0.6-0.9c1.2-0.4,2.1-1,2.6-1.7c0.5-0.8,0.7-1.7,0.7-2.9v-2.5H103.5z M106.3-104.9v1h-2.8
			c0,0.5-0.1,1-0.2,1.5h2.5v6.7h-1v-5.7h-3.6v5.7h-1v-6.7h2.1c0.1-0.5,0.1-1,0.2-1.5h-2.7v-1H106.3z M106.5-93.3l-0.7,0.7
			c-0.6-0.8-1.4-1.6-2.4-2.5l0.7-0.6C105-94.9,105.8-94.1,106.5-93.3z"/>
		<path class="st3" d="M113.5-101.3v-0.9h1v0.9h4.1v0.9h-4.1v1.4h5.7v0.9h-2.7v1.3h2.1v0.9h-2.1v2.2c0,0.8-0.4,1.2-1.2,1.2h-2
			l-0.2-1c0.7,0,1.3,0.1,1.9,0.1c0.4,0,0.6-0.2,0.6-0.5v-2h-7.9v-0.9h7.9v-1.3h-8.7v-0.9h5.7v-1.4h-4.2v-0.9H113.5z M108.7-101.8
			l-0.9-0.5c0.8-1,1.4-2,1.8-3.2l1,0.2c-0.1,0.3-0.2,0.6-0.3,0.9h3.6v0.9h-2.4c0.4,0.5,0.7,0.9,0.9,1.4l-0.9,0.3
			c-0.3-0.6-0.6-1.1-1-1.7h-0.6C109.5-102.9,109.1-102.3,108.7-101.8z M112.7-93.6l-0.8,0.5c-0.4-0.6-1-1.3-1.8-2l0.8-0.5
			C111.7-94.8,112.3-94.2,112.7-93.6z M114.7-102.3l-0.8-0.5c0.6-0.8,1.1-1.7,1.3-2.7l1,0.2c-0.1,0.3-0.2,0.6-0.3,0.9h4v0.9h-2.5
			c0.4,0.5,0.7,1,0.9,1.4l-0.9,0.3c-0.3-0.6-0.6-1.1-1.1-1.7h-0.8C115.3-103.1,115-102.7,114.7-102.3z"/>
		<path class="st3" d="M124.2-105.4c-0.1,1-0.3,1.8-0.4,2.6h2.3v0.6c-0.1,2.2-0.5,4.1-1.2,5.8c0.6,0.5,1.1,1,1.5,1.4l-0.7,0.8
			c-0.3-0.4-0.7-0.8-1.2-1.3c-0.6,1.1-1.4,2.1-2.3,2.9l-0.6-0.8c0.9-0.8,1.7-1.7,2.2-2.8c-0.6-0.5-1.2-1.1-1.9-1.7
			c0.3-1.2,0.6-2.5,0.8-3.9h-1.1v-1h1.2c0.1-0.9,0.3-1.8,0.4-2.7L124.2-105.4z M125.2-101.8h-1.5c-0.3,1.5-0.5,2.7-0.8,3.7
			c0.4,0.4,0.9,0.7,1.3,1.1C124.7-98.5,125.1-100,125.2-101.8z M131.9-104.1v-1.3h1v1.3h1.2v0.9h-1.2v4.3h-2.1v1.2h3.6v0.9h-2.6
			c0.6,1,1.5,1.9,2.8,2.8l-0.7,0.9c-1.3-1.1-2.3-2.3-2.8-3.6h-0.2v4.1h-1v-4.1h-0.1c-0.7,1.5-1.7,2.7-3.1,3.6l-0.5-0.9
			c1.3-0.7,2.3-1.6,2.9-2.7h-2.7v-0.9h3.6V-99h-2.1v-4.3h-1.3v-0.9h1.3v-1.3h1v1.3H131.9z M131.9-102v-1.3h-3.2v1.3H131.9z
			 M131.9-101.1h-3.2v1.3h3.2V-101.1z"/>
		<path class="st3" d="M135.8-98.3l-0.3-1c1.5-1.8,2.5-3.8,3.2-6.1l0.9,0.4c-0.4,1.2-0.8,2.3-1.4,3.3v9.2h-1v-7.6
			C136.8-99.5,136.3-98.9,135.8-98.3z M143.1-103v-2.4h1v2.4h3.8v1H145c0.6,2.3,1.8,4.4,3.4,6.2l-0.7,0.8c-1.7-2.1-2.9-4.4-3.5-7
			h-0.2v5.6h2.2v1h-2.2v2.9h-1v-2.9h-2.1v-1h2.1v-5.6h-0.2c-0.7,2.9-1.9,5.3-3.6,7.2l-0.5-0.9c1.6-1.6,2.7-3.7,3.3-6.3h-2.7v-1
			H143.1z"/>
		<path class="st3" d="M153.2-98.8c-0.1,0.3-0.2,0.5-0.3,0.8h2.9v0.8c-0.3,0.9-0.8,1.7-1.6,2.4c0.7,0.3,1.3,0.6,1.9,1l-0.5,0.8
			c-0.6-0.4-1.3-0.7-2.2-1.1c-0.9,0.6-2.1,1.2-3.5,1.6l-0.5-0.8c1.1-0.3,2.1-0.7,3-1.1c-0.6-0.3-1.3-0.5-1.9-0.8
			c0.4-0.6,0.7-1.2,1-1.8h-1.7V-98h2c0.1-0.3,0.2-0.6,0.3-0.9L153.2-98.8z M152.7-102.8v-2.7h0.9v2.7h2.5v0.9h-2.5v0.2
			c0.8,0.4,1.5,0.8,2.3,1.3l-0.5,0.8c-0.7-0.6-1.3-1-1.8-1.3v1.8h-0.9v-2.7c-0.5,1.1-1.3,2.1-2.5,2.9l-0.5-0.8
			c1.1-0.6,1.8-1.3,2.3-2.1h-2v-0.9H152.7z M151.9-103.4l-0.7,0.3c-0.3-0.7-0.6-1.3-0.9-1.8l0.8-0.3
			C151.4-104.6,151.6-104,151.9-103.4z M155-97.2h-2.4c-0.2,0.5-0.5,0.9-0.8,1.3c0.6,0.2,1.1,0.4,1.6,0.6
			C154.1-95.8,154.6-96.4,155-97.2z M156-104.9c-0.3,0.6-0.6,1.2-1.1,1.8l-0.7-0.4c0.4-0.6,0.8-1.2,1.1-1.8L156-104.9z M157.5-100.1
			c-0.3,0.6-0.5,1.2-0.8,1.7l-0.6-0.8c0.8-1.6,1.4-3.7,1.7-6.3l1,0.2c-0.1,0.7-0.2,1.4-0.3,2h3.7v1h-0.9c-0.1,2.3-0.5,4.3-1.3,6
			c0.7,1.3,1.6,2.2,2.6,2.9l-0.5,0.8c-1-0.7-1.8-1.7-2.5-2.8c-0.7,1.1-1.5,2.1-2.6,2.8l-0.5-0.8c1.1-0.8,1.9-1.7,2.6-2.9
			C158.4-97.4,157.9-98.7,157.5-100.1z M158-101.6c0.4,1.6,0.8,3.1,1.4,4.2c0.5-1.4,0.8-3.1,0.9-5h-2.1L158-101.6z"/>
		<path class="st3" d="M164.1-92.7l-0.2-1c0.4,0,0.7,0.1,1.1,0.1c0.4,0,0.5-0.2,0.5-0.6v-3.4c-0.6,0.2-1.1,0.4-1.7,0.6l-0.3-1
			c0.6-0.2,1.3-0.4,1.9-0.6v-3.2h-1.7v-1h1.7v-2.6h1v2.6h1.3v1h-1.3v2.8c0.4-0.2,0.9-0.4,1.3-0.6v1c-0.4,0.2-0.9,0.4-1.3,0.6v4.1
			c0,0.8-0.4,1.2-1.2,1.2H164.1z M167.8-92.6l-0.8-0.7c1-1.8,1.5-4.3,1.5-7.2v-4.4h7.4v3.4h-2.6v1.7h3v0.9h-3v1.7h2.4v4.6h-0.9v-0.7
			h-3.8v0.7H170v-4.6h2.3v-1.7h-2.9C169.3-96.5,168.8-94.4,167.8-92.6z M169.6-101.5v1c0,0.2,0,0.4,0,0.7h2.8v-1.7H169.6z
			 M169.6-103.9v1.6h5.4v-1.6H169.6z M174.7-94.2v-2.1h-3.8v2.1H174.7z"/>
	</g>
</g>
<g id="RectEndPoint4" transform="translate(12.5,344)">
	<rect x="-4" y="-122" class="st7" width="212" height="50"/>
	<rect x="-6" y="-124" class="st8" width="212" height="50"/>
	<g class="st2">
		<path class="st3" d="M21.6-105v1H11.5v9.9h10.6v1H10.6V-105H21.6z M13.2-99.7l-0.8-0.7c0.9-0.8,1.6-1.9,2.1-3.1l0.9,0.3
			c-0.1,0.4-0.3,0.8-0.4,1.1h5.6v0.9h-3v0.8c0,0.4,0,0.8-0.1,1.2h4v1h-4.2c-0.2,0.7-0.5,1.2-0.9,1.8c-0.7,0.9-1.8,1.6-3.5,2.1
			l-0.5-0.9c1.6-0.5,2.6-1.1,3.3-1.9c0.2-0.3,0.4-0.7,0.6-1.1h-3.8v-1h4c0.1-0.4,0.1-0.8,0.1-1.2v-0.8h-2.1
			C14.1-100.7,13.7-100.2,13.2-99.7z M21.5-95.4l-0.6,0.8c-1.2-1-2.5-1.8-3.7-2.4l0.5-0.7C19.1-97.1,20.3-96.3,21.5-95.4z"/>
		<path class="st3" d="M25.9-99.8v-4.5h4.8c-0.2-0.4-0.3-0.8-0.5-1.1l1-0.2c0.2,0.4,0.3,0.8,0.4,1.3H36v1H27v3.5
			c-0.1,3-0.7,5.3-1.9,7.1l-0.8-0.7c0.8-1.2,1.3-2.8,1.5-4.8c-0.6,0.5-1.3,1-2.1,1.5l-0.3-1c0.9-0.5,1.7-1.1,2.5-1.7
			C25.9-99.5,25.9-99.6,25.9-99.8z M25.7-100.4l-0.8,0.3c-0.4-1-0.8-1.9-1.2-2.7l0.8-0.3C24.9-102.2,25.3-101.3,25.7-100.4z
			 M35.4-101.9v1c-0.9,0.8-1.9,1.6-3,2.4v4.6c0,0.9-0.5,1.3-1.4,1.3h-1.7l-0.2-0.9c0.5,0,1,0,1.5,0c0.5,0,0.8-0.3,0.8-0.8v-4.8
			c0.9-0.5,1.8-1.1,2.6-1.9h-6v-1H35.4z"/>
		<path class="st3" d="M41-94.6c0.5,0.5,0.9,1,1.2,1.4l-0.7,0.6c-0.3-0.5-0.7-1-1.2-1.4c-0.5-0.6-1-1-1.6-1.4l0.6-0.6
			C40-95.6,40.5-95.1,41-94.6z"/>
		<path class="st3" d="M55.2-102.8v4.3c0,1.6-0.3,2.9-0.8,3.8c-0.5,0.9-1.3,1.6-2.4,2.1l-0.5-0.9c1.1-0.5,1.8-1.1,2.2-1.9
			c0.4-0.8,0.6-1.9,0.6-3.2v-4.3H55.2z M57.2-96.1h-0.9v-7.8h-3.1v7.9h-0.9v-8.9h5V-96.1z M57.7-93.5L57-92.8
			c-0.5-0.7-1.1-1.4-1.9-2.2l0.6-0.6C56.5-94.9,57.1-94.2,57.7-93.5z M58-101.7v-0.9h3.7v-2.8h1v2.8h1.6v0.9h-1.6v7.7
			c0,0.9-0.4,1.3-1.1,1.3h-1.8l-0.2-1c0.6,0,1.1,0.1,1.7,0.1c0.3,0,0.5-0.2,0.5-0.7v-6.4c-0.8,2.5-2.1,4.5-3.8,6.2l-0.5-0.9
			c1.8-1.6,3.1-3.7,4-6.3H58z"/>
		<path class="st3" d="M70.8-105.3c-0.2,0.4-0.3,0.7-0.5,1.1h6.1v0.8c-0.9,1-2,1.9-3.3,2.6c1.6,0.7,3.3,1.1,5.3,1.3L78-98.6
			c-2.2-0.3-4.2-0.8-5.9-1.7c-1.7,0.8-3.7,1.4-6,1.7l-0.5-1c2-0.3,3.8-0.7,5.4-1.3c-0.8-0.5-1.5-1-2.2-1.6c-0.5,0.5-1.1,0.9-1.8,1.3
			l-0.6-0.8c1.7-1,2.8-2.1,3.4-3.5L70.8-105.3z M72.2-99.3c0,0.6-0.1,1.1-0.1,1.6H77c0,2.4-0.2,3.8-0.6,4.2
			c-0.4,0.5-1.1,0.7-2.1,0.7c-0.4,0-1,0-1.6-0.1l-0.3-0.9l1.7,0.1c0.8,0,1.4-0.2,1.6-0.5c0.2-0.3,0.3-1.2,0.4-2.6h-4.1
			c-0.1,0.4-0.3,0.7-0.4,1c-0.7,1.3-2.4,2.3-4.9,3.1l-0.7-0.8c2.3-0.7,3.8-1.5,4.6-2.5c0.2-0.3,0.3-0.5,0.4-0.8h-4.2v-0.9H71
			c0.1-0.5,0.2-1,0.2-1.6H72.2z M75-103.3h-5.4l-0.2,0.2c0.8,0.7,1.7,1.3,2.6,1.8C73.2-101.9,74.1-102.6,75-103.3z"/>
		<path class="st3" d="M83-94.6c0.5,0.5,0.9,1,1.2,1.4l-0.7,0.6c-0.3-0.5-0.7-1-1.2-1.4c-0.5-0.6-1-1-1.6-1.4l0.6-0.6
			C82-95.6,82.5-95.1,83-94.6z"/>
		<path class="st3" d="M104.5-92.7h-1v-1.1h-6.6v1.1h-1v-12.2h8.7V-92.7z M103.4-99.9v-4h-6.6v4H103.4z M103.4-94.7v-4.2h-6.6v4.2
			H103.4z"/>
		<path class="st3" d="M110-97.6c-0.3,1.6-0.8,3-1.4,4.2l-0.9-0.5c0.6-1.2,1-2.5,1.2-3.9L110-97.6z M114.5-105.5v1.8h5.5v1h-5.5v2.2
			h4.6v1H109v-1h4.5v-2.2H108v-1h5.5v-1.8H114.5z M112.4-92.9c-0.9,0-1.4-0.5-1.4-1.5v-3.9h1v3.7c0,0.5,0.2,0.7,0.7,0.7h3
			c0.3,0,0.5-0.1,0.7-0.3c0.2-0.2,0.3-0.9,0.4-2.1l1,0.3c-0.1,1.4-0.3,2.3-0.6,2.6c-0.3,0.3-0.7,0.4-1.2,0.4H112.4z M115.6-95.8
			l-0.9,0.4c-0.4-1.1-0.8-2-1.3-2.8l1-0.3C114.8-97.7,115.2-96.8,115.6-95.8z M120.4-94.3l-0.9,0.4c-0.5-1.5-1.1-2.9-1.8-4l0.9-0.3
			C119.3-97,119.9-95.7,120.4-94.3z"/>
		<path class="st3" d="M127.5-101.3v-0.9h1v0.9h4.1v0.9h-4.1v1.4h5.7v0.9h-2.7v1.3h2.1v0.9h-2.1v2.2c0,0.8-0.4,1.2-1.2,1.2h-2
			l-0.2-1c0.7,0,1.3,0.1,1.9,0.1c0.4,0,0.6-0.2,0.6-0.5v-2h-7.9v-0.9h7.9v-1.3h-8.7v-0.9h5.7v-1.4h-4.2v-0.9H127.5z M122.7-101.8
			l-0.9-0.5c0.8-1,1.4-2,1.8-3.2l1,0.2c-0.1,0.3-0.2,0.6-0.3,0.9h3.6v0.9h-2.4c0.4,0.5,0.7,0.9,0.9,1.4l-0.9,0.3
			c-0.3-0.6-0.6-1.1-1-1.7h-0.6C123.5-102.9,123.1-102.3,122.7-101.8z M126.7-93.6l-0.8,0.5c-0.4-0.6-1-1.3-1.8-2l0.8-0.5
			C125.7-94.8,126.3-94.2,126.7-93.6z M128.7-102.3l-0.8-0.5c0.6-0.8,1.1-1.7,1.3-2.7l1,0.2c-0.1,0.3-0.2,0.6-0.3,0.9h4v0.9h-2.5
			c0.4,0.5,0.7,1,0.9,1.4l-0.9,0.3c-0.3-0.6-0.6-1.1-1.1-1.7h-0.8C129.3-103.1,129-102.7,128.7-102.3z"/>
		<path class="st3" d="M141-105.3v11.1h2v-11.1h1v11.1h4.2v1h-12.4v-1h4.2v-11.1H141z M139-96.3L138-96c-0.5-2.2-1.1-4.4-1.9-6.5
			l0.9-0.3C137.7-100.9,138.4-98.7,139-96.3z M147.8-102.5c-0.6,2.4-1.3,4.6-2.1,6.4l-0.9-0.3c0.8-1.7,1.5-3.8,2.1-6.3L147.8-102.5z
			"/>
		<path class="st3" d="M154.8-105.3c-0.2,0.4-0.3,0.7-0.5,1.1h6.1v0.8c-0.9,1-2,1.9-3.3,2.6c1.6,0.7,3.3,1.1,5.3,1.3l-0.5,0.9
			c-2.2-0.3-4.2-0.8-5.9-1.7c-1.7,0.8-3.7,1.4-6,1.7l-0.5-1c2-0.3,3.8-0.7,5.4-1.3c-0.8-0.5-1.5-1-2.2-1.6c-0.5,0.5-1.1,0.9-1.8,1.3
			l-0.6-0.8c1.7-1,2.8-2.1,3.4-3.5L154.8-105.3z M156.2-99.3c0,0.6-0.1,1.1-0.1,1.6h4.9c0,2.4-0.2,3.8-0.6,4.2
			c-0.4,0.5-1.1,0.7-2.1,0.7c-0.4,0-1,0-1.6-0.1l-0.3-0.9l1.7,0.1c0.8,0,1.4-0.2,1.6-0.5c0.2-0.3,0.3-1.2,0.4-2.6h-4.1
			c-0.1,0.4-0.3,0.7-0.4,1c-0.7,1.3-2.4,2.3-4.9,3.1l-0.7-0.8c2.3-0.7,3.8-1.5,4.6-2.5c0.2-0.3,0.3-0.5,0.4-0.8h-4.2v-0.9h4.5
			c0.1-0.5,0.2-1,0.2-1.6H156.2z M159-103.3h-5.4l-0.2,0.2c0.8,0.7,1.7,1.3,2.6,1.8C157.2-101.9,158.1-102.6,159-103.3z"/>
		<path class="st3" d="M167.2-98.8c-0.1,0.3-0.2,0.5-0.3,0.8h2.9v0.8c-0.3,0.9-0.8,1.7-1.6,2.4c0.7,0.3,1.3,0.6,1.9,1l-0.5,0.8
			c-0.6-0.4-1.3-0.7-2.2-1.1c-0.9,0.6-2.1,1.2-3.5,1.6l-0.5-0.8c1.1-0.3,2.1-0.7,3-1.1c-0.6-0.3-1.3-0.5-1.9-0.8
			c0.4-0.6,0.7-1.2,1-1.8h-1.7V-98h2c0.1-0.3,0.2-0.6,0.3-0.9L167.2-98.8z M166.7-102.8v-2.7h0.9v2.7h2.5v0.9h-2.5v0.2
			c0.8,0.4,1.5,0.8,2.3,1.3l-0.5,0.8c-0.7-0.6-1.3-1-1.8-1.3v1.8h-0.9v-2.7c-0.5,1.1-1.3,2.1-2.5,2.9l-0.5-0.8
			c1.1-0.6,1.8-1.3,2.3-2.1h-2v-0.9H166.7z M165.9-103.4l-0.7,0.3c-0.3-0.7-0.6-1.3-0.9-1.8l0.8-0.3
			C165.4-104.6,165.6-104,165.9-103.4z M169-97.2h-2.4c-0.2,0.5-0.5,0.9-0.8,1.3c0.6,0.2,1.1,0.4,1.6,0.6
			C168.1-95.8,168.6-96.4,169-97.2z M170-104.9c-0.3,0.6-0.6,1.2-1.1,1.8l-0.7-0.4c0.4-0.6,0.8-1.2,1.1-1.8L170-104.9z M171.5-100.1
			c-0.3,0.6-0.5,1.2-0.8,1.7l-0.6-0.8c0.8-1.6,1.4-3.7,1.7-6.3l1,0.2c-0.1,0.7-0.2,1.4-0.3,2h3.7v1h-0.9c-0.1,2.3-0.5,4.3-1.3,6
			c0.7,1.3,1.6,2.2,2.6,2.9l-0.5,0.8c-1-0.7-1.8-1.7-2.5-2.8c-0.7,1.1-1.5,2.1-2.6,2.8l-0.5-0.8c1.1-0.8,1.9-1.7,2.6-2.9
			C172.4-97.4,171.9-98.7,171.5-100.1z M172-101.6c0.4,1.6,0.8,3.1,1.4,4.2c0.5-1.4,0.8-3.1,0.9-5h-2.1L172-101.6z"/>
		<path class="st3" d="M178.1-92.7l-0.2-1c0.4,0,0.7,0.1,1.1,0.1c0.4,0,0.5-0.2,0.5-0.6v-3.4c-0.6,0.2-1.1,0.4-1.7,0.6l-0.3-1
			c0.6-0.2,1.3-0.4,1.9-0.6v-3.2h-1.7v-1h1.7v-2.6h1v2.6h1.3v1h-1.3v2.8c0.4-0.2,0.9-0.4,1.3-0.6v1c-0.4,0.2-0.9,0.4-1.3,0.6v4.1
			c0,0.8-0.4,1.2-1.2,1.2H178.1z M181.8-92.6l-0.8-0.7c1-1.8,1.5-4.3,1.5-7.2v-4.4h7.4v3.4h-2.6v1.7h3v0.9h-3v1.7h2.4v4.6h-0.9v-0.7
			h-3.8v0.7H184v-4.6h2.3v-1.7h-2.9C183.3-96.5,182.8-94.4,181.8-92.6z M183.6-101.5v1c0,0.2,0,0.4,0,0.7h2.8v-1.7H183.6z
			 M183.6-103.9v1.6h5.4v-1.6H183.6z M188.7-94.2v-2.1h-3.8v2.1H188.7z"/>
	</g>
</g>
<g id="ShadowBasicRect6" transform="translate(253,267)">
	<rect x="1" y="-122" class="st7" width="160.1" height="50"/>
	<rect x="-1" y="-124" class="st8" width="160.1" height="50"/>
	<g transform="translate(20 9)">
		<g>
			<title>画板</title>
			<desc>Created with Sketch.</desc>
			<g id="画板">
				<g id="云数据迁移" transform="translate(2.000000, 0.000000)">
					<path id="Combined-Shape" class="st9" d="M14-113v-2h-2v2h-1c-0.6,0-1-0.4-1-1v-2c0-0.6,0.4-1,1-1h4c0.6,0,1,0.4,1,1v2
						c0,0.6-0.4,1-1,1H14z"/>
					<rect id="Rectangle-6" x="7" y="-113" class="st9" width="2" height="12"/>
					<rect id="Rectangle-6-Copy" x="17" y="-113" class="st9" width="2" height="12"/>
					<rect id="Rectangle-7" x="7" y="-114" class="st9" width="12" height="2"/>
					<rect id="Rectangle-7-Copy-2" x="7" y="-110" class="st9" width="12" height="2"/>
					<circle id="Oval-4" class="st9" cx="10" cy="-101" r="1"/>
					<circle id="Oval-4-Copy" class="st9" cx="16" cy="-101" r="1"/>
					<rect id="Rectangle-7-Copy" x="7" y="-103" class="st9" width="12" height="2"/>
					<polygon id="XMLID_7_-path" class="st9" points="25,-101.1 13,-94.3 1,-101.1 1,-114.8 13,-121.7 25,-114.8 27,-116 13,-124 
						-1,-116 -1,-100 13,-92 27,-100 27,-112 25,-110.8 					"/>
				</g>
			</g>
		</g>
		<g class="st2">
			<path class="st3" d="M42.4-101.6l-0.7-0.7c0.4-1.3,0.7-2.9,0.7-4.8v-6.8h3.6v11.1c0,0.7-0.4,1.1-1.1,1.1h-1l-0.2-0.9
				c0.3,0,0.6,0,0.9,0c0.3,0,0.5-0.2,0.5-0.6v-3.2h-1.7C43.2-104.4,42.9-102.9,42.4-101.6z M45-112.9h-1.7v2.4H45V-112.9z
				 M43.3-107.3H45v-2.3h-1.7V-107.3z M47.9-112.5c-0.2-0.5-0.4-0.9-0.7-1.3l0.9-0.3c0.3,0.4,0.5,1,0.7,1.6h0.7
				c0.2-0.6,0.3-1.3,0.4-2l1,0.1c-0.1,0.7-0.2,1.3-0.4,1.9h1.1c0.3-0.5,0.6-1.1,0.8-1.7l0.9,0.3c-0.3,0.5-0.5,1-0.8,1.4h1.2v0.8
				h-3.5c-0.1,0.4-0.3,0.8-0.5,1.1h4.4v0.9H52c0.6,0.7,1.4,1.3,2.6,1.7l-0.4,0.9c-0.6-0.3-1.1-0.6-1.6-0.9v0.1
				c-0.1,0.8-0.2,1.5-0.4,2h1.5c0,2.3-0.2,3.6-0.5,3.9c-0.3,0.3-0.8,0.4-1.7,0.4h-0.6l-0.3-0.9c0.3,0,0.6,0,0.9,0
				c0.5,0,0.8-0.1,1-0.2c0.2-0.2,0.3-1,0.3-2.4h-5.2c0.3-0.8,0.5-1.5,0.6-2.1l0.9,0.1c-0.1,0.4-0.2,0.8-0.3,1.2h2.6
				c0.1-0.5,0.3-1,0.3-1.7h-3.7v-0.5c-0.4,0.4-0.9,0.7-1.4,1l-0.5-0.8c0.9-0.5,1.6-1.1,2.2-1.8h-1.7v-0.9h2.3
				c0.2-0.4,0.4-0.7,0.5-1.1h-2.4v-0.8H47.9z M51.6-104.2v0.9h-5v-0.9H51.6z M52.1-108.4c-0.5-0.4-0.8-0.9-1.1-1.3h-1.8
				c-0.3,0.5-0.7,0.9-1.1,1.3H52.1z"/>
			<path class="st3" d="M58.5-110.2v6.2c0.4-0.4,0.9-0.8,1.4-1.4l0.3,1.1c-0.8,0.8-1.7,1.5-2.6,2.2l-0.4-0.9
				c0.2-0.2,0.3-0.4,0.3-0.6v-5.5h-1.9v-1H58.5z M59.5-112.1l-0.7,0.7c-0.6-0.7-1.3-1.4-2.3-2.2l0.7-0.7
				C58.1-113.6,58.9-112.9,59.5-112.1z M61.9-109v-3.8H60v-1h6.4v4.3c0,2.8,0.2,4.7,0.6,5.9c0.2,0.4,0.4,0.7,0.5,0.7
				c0.1,0,0.1-0.2,0.2-0.5c0-0.4,0.1-1,0.1-1.7l0.8,0.4c-0.1,1.3-0.2,2.2-0.3,2.6c-0.1,0.3-0.3,0.4-0.5,0.4c-0.5,0-1-0.3-1.4-1
				c-0.7-1.2-1-3.4-1-6.7v-3.3h-2.6v3.8h1.9v1h-1.9v6.4h-1v-6.4h-2.1v-1H61.9z"/>
			<path class="st3" d="M82.3-109.7v1h-6.7c-1.3,2.6-2.4,4.5-3.4,5.5c2.5-0.1,5-0.4,7.5-0.7c-0.5-0.9-1.1-1.8-1.7-2.8l0.8-0.5
				c1.3,1.9,2.3,3.6,3,5.1l-0.9,0.6c-0.2-0.5-0.5-1-0.7-1.5c-2.8,0.4-5.9,0.6-9.3,0.9l-0.3-1c0.1,0,0.2-0.1,0.2-0.1
				c0.9-0.7,2.1-2.5,3.6-5.5h-4.7v-1H82.3z M81.1-113.6v1h-10v-1H81.1z"/>
			<path class="st3" d="M95.8-112.3c0.8,0.6,1.2,1.4,1.3,2.4H96c-0.1-0.7-0.5-1.3-1.1-1.7c-0.5-0.4-1.2-0.6-2-0.6
				c-1.2,0-2.1,0.4-2.7,1.2c-0.6,0.8-0.9,1.8-0.9,3c0,1.2,0.3,2.2,0.9,3c0.6,0.8,1.5,1.2,2.7,1.2c0.8,0,1.5-0.2,2-0.6
				c0.6-0.4,1-1.1,1.2-2h1.1c-0.2,1.2-0.7,2.1-1.6,2.7c-0.8,0.6-1.7,0.9-2.8,0.9c-1.6,0-2.7-0.5-3.6-1.5c-0.8-0.9-1.1-2.1-1.1-3.6
				c0-1.5,0.4-2.7,1.1-3.7c0.8-1.1,2-1.6,3.6-1.6C94.1-113.2,95-112.9,95.8-112.3z"/>
			<path class="st3" d="M102.4-113c1.6,0,2.8,0.4,3.6,1.4c0.7,0.8,1.1,2.1,1.1,3.6c0,1.5-0.4,2.8-1.2,3.6c-0.8,0.9-2,1.4-3.6,1.4
				h-3.5v-10H102.4z M100-104h2.1c1.3,0,2.3-0.4,2.9-1c0.6-0.7,0.9-1.7,0.9-3c0-1.3-0.3-2.3-0.9-3c-0.6-0.7-1.6-1-2.9-1H100V-104z"
				/>
			<path class="st3" d="M110.2-113l3.7,8.5h0l3.7-8.5h1.4v10h-1.1v-8h0l-3.5,8h-1l-3.5-8h0v8h-1.1v-10H110.2z"/>
		</g>
	</g>
</g>
<g id="ShadowBasicRect8" transform="translate(438,267)">
	<rect x="1" y="-122" class="st7" width="170.4" height="50"/>
	<rect x="-1" y="-124" class="st8" width="170.4" height="50"/>
	<g transform="translate(20,9)">
		<g>
			<title>Product Icons【32】</title>
			<g id="_编组_">
				<g id="_编组_2">
					<path id="_复合路径_" class="st9" d="M8-112v8l7,4l7-4v-8l-7-4L8-112z M14-102.9l-4-2.3v-3.7l4,2.3V-102.9z M20-105.2
						l-4,2.3v-3.7l4-2.3V-105.2z M15-108.3l-4.7-2.7l4.7-2.7l4.7,2.7L15-108.3z M27-101.2l-12,6.9l-12-6.9v-13.7l12-6.9l12,6.9l0,0
						l2-1.2l-14-8l-14,8v16l14,8l14-8v-12l-2,1.1V-101.2z"/>
				</g>
			</g>
		</g>
		<g class="st2">
			<path class="st3" d="M45.1-107.9c0.5-1.3,0.8-2.6,0.9-4.1h-3.8v-1H47v0.7c-0.1,1.9-0.5,3.6-1.2,5.2c0.6,0.8,1.1,1.6,1.6,2.4
				l-0.7,0.7c-0.4-0.7-0.9-1.4-1.4-2.1c-0.8,1.3-1.8,2.5-3.1,3.6l-0.6-0.9c1.3-1,2.3-2.2,3.1-3.6c-0.8-1.1-1.7-2.1-2.7-3.2l0.7-0.6
				C43.5-109.9,44.4-108.9,45.1-107.9z M50.6-106l-0.8,0.6c-0.6-1-1.3-2-2.1-3.1l0.8-0.6C49.4-108,50.1-106.9,50.6-106z M51.7-111.7
				v-2.7h1v2.7h1.6v1h-1.6v7.7c0,0.9-0.5,1.4-1.4,1.4h-2.2l-0.2-1c0.7,0,1.4,0.1,2.1,0.1c0.5,0,0.8-0.3,0.8-0.7v-7.5h-4.1v-1H51.7z"
				/>
			<path class="st3" d="M56.4-110.7l-0.6-0.8c1.9-0.8,3.4-1.8,4.6-3l1.1,0.2c-0.2,0.3-0.5,0.5-0.7,0.8h4.5v0.7
				c-0.4,0.5-0.9,0.9-1.3,1.2h3.6v3.1h-5.6c0.8,0.6,1.4,1.3,1.8,2c1.4-0.4,2.5-1,3.5-1.6l0.7,0.8c-0.7,0.4-1.4,0.8-2.2,1.2
				C66-105,67-104,68.5-103l-0.7,0.8c-1.5-1.1-2.6-2.4-3.3-3.7c-0.2,0.1-0.5,0.2-0.7,0.2c0.2,0.5,0.3,1,0.3,1.5c0,1-0.2,1.6-0.6,2
				c-0.4,0.3-1,0.5-1.8,0.6c-0.3,0-0.6,0-1,0l-0.3-0.9c0.5,0,0.9,0,1.2,0c0.4,0,0.8-0.2,1.1-0.4c0.3-0.2,0.4-0.7,0.4-1.3
				c0-0.2,0-0.5-0.1-0.7c-1.6,1.2-3.8,2.1-6.5,2.9l-0.5-0.9c2.9-0.8,5.1-1.7,6.7-2.9c-0.1-0.3-0.3-0.6-0.5-0.9
				c-1.4,1-3.2,1.8-5.6,2.5l-0.5-0.9c2.4-0.6,4.3-1.3,5.6-2.2c-0.3-0.3-0.5-0.5-0.8-0.8c-1.1,0.8-2.6,1.4-4.5,1.7l-0.4-0.8
				c1.7-0.3,3.1-0.8,4.1-1.4h-3v-2.6C57-111,56.7-110.9,56.4-110.7z M63.8-112.7h-4.1c-0.5,0.4-1,0.7-1.5,1.1h4.3
				C62.9-112,63.4-112.3,63.8-112.7z M62-110.8h-3.7v1.4h2.9C61.6-109.8,61.9-110.3,62-110.8z M66.4-110.8H63
				c-0.2,0.5-0.4,1-0.6,1.4h4V-110.8z"/>
			<path class="st3" d="M73.9-113c0.2-0.5,0.3-1,0.5-1.5l1,0.1c-0.1,0.5-0.3,0.9-0.4,1.4h7.2v1h-7.5c-0.5,1.2-1.2,2.3-1.9,3.3v7.1
				h-1v-5.9c-0.5,0.5-1,1-1.5,1.5l-0.6-0.8c1.7-1.5,3-3.2,3.9-5.2h-3.4v-1H73.9z M77.8-106.5v-1.3c0.8-0.4,1.6-1,2.3-1.6h-5.3v-0.9
				h6.6v0.9c-0.8,0.7-1.6,1.4-2.6,2v0.9h3.5v1h-3.5v2.6c0,0.8-0.4,1.2-1.2,1.2h-1.8l-0.3-1c0.5,0,1,0,1.6,0c0.4,0,0.6-0.2,0.6-0.6
				v-2.3h-4.1v-1H77.8z"/>
			<path class="st3" d="M83.8-107.8l-0.3-1.1c1.1-1.6,1.9-3.4,2.4-5.5l0.9,0.4c-0.3,1-0.6,1.9-0.9,2.7v9.7h-1v-7.8
				C84.6-108.9,84.2-108.4,83.8-107.8z M89-110.1v5.9c0.4-0.4,0.7-0.8,1.1-1.3l0.2,1c-0.7,0.9-1.5,1.7-2.2,2.4l-0.4-0.9
				c0.2-0.2,0.3-0.4,0.3-0.5v-5.6h-1.6v-0.9H89z M89.8-111.8l-0.7,0.7c-0.5-0.7-1.2-1.4-2-2.2l0.7-0.7
				C88.6-113.2,89.2-112.5,89.8-111.8z M92.2-112.8v-1.6h0.9v1.6h1.6v0.8c0.3-0.6,0.5-1.1,0.8-1.7l0.8,0.4c-0.5,1.2-1,2.2-1.7,3.2
				h1.6v0.9H94c-0.4,0.5-0.8,0.9-1.2,1.3h2.9v6.2h-1v-0.6H92v0.6h-0.9v-5c-0.3,0.2-0.7,0.4-1,0.5l-0.5-0.8c1.2-0.5,2.3-1.3,3.2-2.3
				h-2.5v-0.9h2v-1.8h-1.7v-0.9H92.2z M94.7-107H92v1.5h2.6V-107z M92-103.1h2.6v-1.5H92V-103.1z M94.7-111.9h-1.6v1.8h0.4
				C93.9-110.7,94.3-111.3,94.7-111.9z"/>
			<path class="st3" d="M109.8-112.3c0.8,0.6,1.2,1.4,1.3,2.4H110c-0.1-0.7-0.5-1.3-1.1-1.7c-0.5-0.4-1.2-0.6-2-0.6
				c-1.2,0-2.1,0.4-2.7,1.2c-0.6,0.8-0.9,1.8-0.9,3c0,1.2,0.3,2.2,0.9,3c0.6,0.8,1.5,1.2,2.7,1.2c0.8,0,1.5-0.2,2-0.6
				c0.6-0.4,1-1.1,1.2-2h1.1c-0.2,1.2-0.7,2.1-1.6,2.7c-0.8,0.6-1.7,0.9-2.8,0.9c-1.6,0-2.7-0.5-3.6-1.5c-0.8-0.9-1.1-2.1-1.1-3.6
				c0-1.5,0.4-2.7,1.1-3.7c0.8-1.1,2-1.6,3.6-1.6C108.1-113.2,109-112.9,109.8-112.3z"/>
			<path class="st3" d="M120.8-111.7c0.8,1,1.2,2.2,1.2,3.7c0,1.5-0.4,2.7-1.2,3.7c-0.9,1-2.1,1.5-3.6,1.5c-1.5,0-2.7-0.5-3.5-1.5
				c-0.8-1-1.2-2.2-1.2-3.7c0-1.5,0.4-2.7,1.2-3.7c0.9-1,2-1.5,3.6-1.5C118.7-113.2,119.9-112.7,120.8-111.7z M114.5-111
				c-0.6,0.8-0.9,1.8-0.9,3c0,1.2,0.3,2.2,0.9,3c0.6,0.8,1.6,1.2,2.7,1.2s2.1-0.4,2.7-1.1c0.6-0.8,0.9-1.8,0.9-3
				c0-1.3-0.3-2.3-0.9-3c-0.6-0.8-1.5-1.1-2.7-1.1S115.2-111.8,114.5-111z"/>
			<path class="st3" d="M129.6-112.4c0.7,0.5,1.1,1.3,1.1,2.4h-1.1c-0.1-0.7-0.4-1.3-0.8-1.6c-0.4-0.4-1.1-0.5-1.9-0.5
				c-0.7,0-1.3,0.1-1.7,0.4c-0.5,0.3-0.7,0.7-0.7,1.3c0,0.5,0.3,0.9,0.9,1.2c0.3,0.1,0.9,0.3,1.8,0.6c1.3,0.4,2.2,0.7,2.6,1
				c0.8,0.5,1.2,1.2,1.2,2.1c0,0.9-0.3,1.6-1.1,2.1c-0.7,0.5-1.6,0.7-2.8,0.7c-1.2,0-2.1-0.3-2.8-0.8c-0.8-0.6-1.2-1.5-1.3-2.7h1.1
				c0.1,0.9,0.4,1.5,0.9,1.9c0.5,0.4,1.1,0.6,2,0.6c0.8,0,1.5-0.2,2-0.5c0.5-0.3,0.8-0.7,0.8-1.3c0-0.6-0.3-1.1-1-1.5
				c-0.3-0.2-1-0.4-2.1-0.7c-1.2-0.4-2-0.6-2.3-0.8c-0.8-0.4-1.1-1.1-1.1-1.9c0-0.9,0.4-1.6,1.1-2c0.7-0.4,1.5-0.7,2.5-0.7
				C128.1-113.2,129-112.9,129.6-112.4z"/>
		</g>
	</g>
</g>
<g id="ShadowBasicRect13" transform="translate(634.1766967773438,186)">
	<rect x="2" y="-122" class="st7" width="190" height="50"/>
	<rect x="0" y="-124" class="st8" width="190" height="50"/>
	<g transform="translate(20,12.000018119812012)">
		<g>
			<title>Product Icons【32】</title>
			<g id="_编组__1_">
				<g id="_编组_2_1_">
					<path id="_复合路径__1_" class="st9" d="M4.7-118H28v15h2v-17H4.7c-0.6-1-1.8-1.3-2.7-0.7S0.7-119,1.3-118s1.8,1.3,2.7,0.7
						C4.3-117.4,4.5-117.7,4.7-118z M29-99c-0.7,0-1.4,0.4-1.7,1H4v-15H2v17h25.3c0.6,1,1.8,1.3,2.7,0.7c1-0.6,1.3-1.8,0.7-2.7
						C30.4-98.6,29.7-99,29-99z M19-104v-8h-2l-1.5,4l-1.5-4h-2v8h2v-3l1.5,3l1.5-3v3H19z M11-110v-2H6v8h5v-2H8v-1h3v-2H8v-1H11z
						 M26-110c0-1.1-0.8-2-1.9-2H24h-4v8h2v-3h1.1l1.1,3h2.4l-1.3-3.5c0.4-0.4,0.7-0.9,0.6-1.5L26-110L26-110z M24-109h-2v-1h2V-109
						z"/>
				</g>
			</g>
		</g>
		<g class="st2">
			<path class="st3" d="M43.8-107.6h3c0,2.4-0.1,3.9-0.2,4.6c-0.2,0.8-0.9,1.2-2.1,1.3c-0.3,0-0.7,0-1-0.1l-0.3-0.9
				c0.3,0,0.7,0.1,1,0.1c0.8,0,1.3-0.3,1.4-0.8c0.1-0.5,0.2-1.7,0.2-3.3h-3.1l0.4-4h2.5v-2.2H43v-0.9h3.7v4h-2.6L43.8-107.6z
				 M52-112.2c0.4-0.8,0.8-1.5,1.1-2.4l1,0.3c-0.3,0.8-0.7,1.4-1.1,2h1.8v5.6h-3v1.4h3.6v0.9h-3.6v2.7h-1v-2.7h-3.5v-0.9h3.5v-1.4
				h-2.9v-5.6H52z M50.6-112.6l-0.9,0.4c-0.3-0.7-0.7-1.4-1.1-1.9l0.9-0.3C50-113.9,50.3-113.3,50.6-112.6z M50.8-109.8v-1.6h-2v1.6
				H50.8z M50.8-108.9h-2v1.5h2V-108.9z M51.8-109.8h2.1v-1.6h-2.1V-109.8z M53.9-108.9h-2.1v1.5h2.1V-108.9z"/>
			<path class="st3" d="M57.8-111.7c0,1.4-0.2,2.7-0.5,4l-0.8-0.2c0.3-1.2,0.5-2.5,0.5-3.8L57.8-111.7z M59.6-114.4v12.7h-1v-12.7
				H59.6z M61.4-109.7c0.5-1.2,0.8-2.5,0.8-3.9l0.9,0.1c0,0.6-0.1,1.1-0.2,1.7h2v-2.6h1v2.6H69v1H66v3.4h2.8v1H66v3.4h3.4v1h-8.5v-1
				h4v-3.4h-3.2v-1h3.2v-3.4h-2.2c-0.3,1-0.6,2-1.1,2.8l-0.7-0.7c0.2-0.3,0.3-0.6,0.4-0.9l-0.7,0.2c-0.2-0.9-0.5-1.7-0.8-2.5
				l0.7-0.2C60.9-111.3,61.1-110.6,61.4-109.7z"/>
			<path class="st3" d="M72.4-113l3.7,8.5h0l3.7-8.5h1.4v10h-1.1v-8h0l-3.5,8h-1l-3.5-8h0v8H71v-10H72.4z"/>
			<path class="st3" d="M88.7-109.6c0.4,0.5,0.6,1.1,0.6,2v4.7h-1.1v-1.2c-0.3,0.4-0.7,0.7-1.1,1c-0.5,0.3-1.1,0.4-1.8,0.4
				c-0.7,0-1.3-0.2-1.7-0.5c-0.4-0.4-0.7-0.9-0.7-1.5c0-0.8,0.3-1.4,1-1.9c0.6-0.4,1.4-0.6,2.5-0.6l1.7,0v-0.4
				c0-1.2-0.6-1.8-1.9-1.8c-0.5,0-1,0.1-1.3,0.3c-0.4,0.2-0.6,0.6-0.7,1l-1.1-0.1c0.2-0.8,0.5-1.3,1.1-1.7c0.5-0.3,1.2-0.5,2.1-0.5
				C87.4-110.4,88.2-110.2,88.7-109.6z M86.5-106.4c-1.6,0-2.4,0.6-2.4,1.6c0,0.3,0.1,0.6,0.4,0.8c0.3,0.2,0.6,0.3,1.1,0.3
				c0.7,0,1.3-0.2,1.8-0.7c0.5-0.4,0.8-0.9,0.8-1.5v-0.6L86.5-106.4z"/>
			<path class="st3" d="M97-109.3c0.5,0.7,0.8,1.6,0.8,2.7c0,1.1-0.3,1.9-0.8,2.6c-0.6,0.8-1.4,1.1-2.4,1.1c-1,0-1.8-0.5-2.4-1.5
				v4.1H91v-10h1.1v1.2c0.5-0.9,1.3-1.4,2.4-1.4C95.5-110.4,96.4-110.1,97-109.3z M92.7-108.7c-0.4,0.5-0.5,1.2-0.5,2v0.1
				c0,0.8,0.2,1.5,0.6,2c0.4,0.5,0.9,0.8,1.6,0.8c0.8,0,1.4-0.3,1.8-0.8c0.4-0.5,0.5-1.2,0.5-2.1c0-0.9-0.2-1.5-0.5-2
				c-0.4-0.6-1-0.9-1.8-0.9C93.6-109.5,93.1-109.2,92.7-108.7z"/>
			<path class="st3" d="M103.7-113c1,0,1.8,0.2,2.4,0.7c0.6,0.5,0.9,1.2,0.9,2.1c0,0.6-0.2,1.1-0.5,1.5c-0.3,0.4-0.8,0.7-1.4,0.9v0
				c1,0.2,1.5,0.8,1.6,1.8l0.2,1.5c0.1,0.6,0.2,1.1,0.5,1.5h-1.2c-0.2-0.3-0.4-0.8-0.4-1.3l-0.1-1.3c-0.1-0.6-0.3-1-0.6-1.3
				c-0.3-0.3-0.8-0.4-1.4-0.4h-3v4.3h-1.1v-10H103.7z M100.5-108.3h3c0.7,0,1.3-0.2,1.7-0.5c0.3-0.3,0.5-0.8,0.5-1.4
				c0-0.6-0.2-1.1-0.5-1.4c-0.4-0.3-0.9-0.5-1.7-0.5h-3V-108.3z"/>
			<path class="st3" d="M109.8-110.2v4.4c0,0.7,0.1,1.2,0.4,1.5c0.3,0.3,0.8,0.5,1.4,0.5c0.5,0,0.9-0.2,1.3-0.6
				c0.4-0.4,0.6-0.9,0.7-1.5v-4.4h1.1v7.2h-1.1v-1.1c-0.6,0.9-1.4,1.3-2.4,1.3c-1.8,0-2.6-1-2.6-3v-4.5H109.8z"/>
			<path class="st3" d="M123-113.2v10.2H122v-1.2c-0.5,0.9-1.3,1.4-2.4,1.4c-1.1,0-1.9-0.4-2.5-1.1c-0.5-0.7-0.8-1.6-0.8-2.7
				c0-1.1,0.3-1.9,0.8-2.6c0.6-0.8,1.4-1.2,2.4-1.2c1,0,1.8,0.5,2.4,1.5v-4.3H123z M118-108.7c-0.4,0.5-0.5,1.2-0.5,2
				c0,0.9,0.2,1.6,0.5,2.1c0.4,0.6,1,0.9,1.8,0.9c0.7,0,1.3-0.3,1.7-0.8c0.4-0.5,0.5-1.2,0.5-2v-0.1c0-0.8-0.2-1.5-0.6-2
				c-0.4-0.5-0.9-0.8-1.6-0.8C118.9-109.5,118.3-109.2,118-108.7z"/>
			<path class="st3" d="M125.9-110.2v4.4c0,0.7,0.1,1.2,0.4,1.5c0.3,0.3,0.8,0.5,1.4,0.5c0.5,0,0.9-0.2,1.3-0.6
				c0.4-0.4,0.6-0.9,0.7-1.5v-4.4h1.1v7.2h-1.1v-1.1c-0.6,0.9-1.4,1.3-2.4,1.3c-1.8,0-2.6-1-2.6-3v-4.5H125.9z"/>
			<path class="st3" d="M137.9-109.8c0.6,0.4,0.9,1.1,1,2h-1.1c-0.1-0.6-0.3-1-0.7-1.3c-0.4-0.3-0.8-0.4-1.4-0.4
				c-0.7,0-1.3,0.3-1.7,0.8c-0.4,0.5-0.6,1.2-0.6,2.1c0,0.9,0.2,1.6,0.6,2.1c0.4,0.5,0.9,0.8,1.7,0.8c1.2,0,1.9-0.6,2.1-1.9h1.1
				c-0.2,0.9-0.5,1.6-1.1,2.1c-0.5,0.5-1.3,0.7-2.2,0.7c-1.1,0-1.9-0.4-2.5-1.1c-0.6-0.7-0.9-1.6-0.9-2.7s0.3-2,0.9-2.7
				c0.6-0.8,1.5-1.1,2.5-1.1C136.6-110.4,137.3-110.2,137.9-109.8z"/>
			<path class="st3" d="M145.9-109.3c0.5,0.7,0.8,1.7,0.8,3H141c0.1,0.8,0.3,1.4,0.7,1.9s0.9,0.7,1.6,0.7c0.6,0,1.1-0.2,1.4-0.4
				c0.3-0.3,0.5-0.6,0.7-1.1h1.1c-0.2,0.7-0.5,1.3-1,1.7c-0.6,0.5-1.4,0.8-2.3,0.8c-1,0-1.9-0.4-2.5-1c-0.6-0.7-1-1.6-1-2.8
				c0-1.1,0.3-2,0.9-2.7c0.6-0.8,1.4-1.1,2.5-1.1C144.4-110.4,145.3-110,145.9-109.3z M141.7-108.9c-0.4,0.4-0.6,1-0.7,1.7h4.5
				c-0.1-1.6-0.9-2.3-2.3-2.3C142.6-109.5,142.1-109.3,141.7-108.9z"/>
		</g>
	</g>
</g>
<g id="ShadowBasicRect14" transform="translate(634.1766967773438,267)">
	<rect x="2" y="-122" class="st7" width="190" height="50"/>
	<rect x="0" y="-124" class="st8" width="190" height="50"/>
	<g transform="translate(20,10)">
		<g>
			<g>
				<g>
					<g>
						<path class="st9" d="M28.8-106c-1,6.2-6.3,11-12.8,11c-7.2,0-13-5.8-13-13s5.8-13,13-13c6.5,0,11.9,4.8,12.8,11h2
							c-0.9-7.3-7.2-13-14.8-13c-8.3,0-15,6.7-15,15s6.7,15,15,15c7.6,0,13.9-5.7,14.9-13H28.8z"/>
					</g>
				</g>
				<circle class="st9" cx="16" cy="-115" r="2"/>
				<circle class="st9" cx="16" cy="-108" r="2"/>
				<circle class="st9" cx="16" cy="-101" r="2"/>
				<circle class="st9" cx="10" cy="-104" r="2"/>
				<circle class="st9" cx="10" cy="-112" r="2"/>
				<circle class="st9" cx="22" cy="-104" r="2"/>
				<circle class="st9" cx="22" cy="-112" r="2"/>
				<path class="st9" d="M14.2-110.4L11-113l-1,2l3,2.5C13.2-109.3,13.6-110,14.2-110.4z"/>
				<path class="st9" d="M19-108.5l3-2.5l-1-2l-3.2,2.6C18.4-110,18.8-109.3,19-108.5z"/>
				<path class="st9" d="M16-111c0.4,0,0.7,0.1,1,0.2v-3.2h-2v3.2C15.3-110.9,15.6-111,16-111z"/>
				<path class="st9" d="M10-107c0.4,0,0.7,0.1,1,0.2v-4.2H9v4.2C9.3-106.9,9.6-107,10-107z"/>
				<path class="st9" d="M22-107c0.4,0,0.7,0.1,1,0.2v-4.2h-2v4.2C21.3-106.9,21.6-107,22-107z"/>
				<path class="st9" d="M16-104c0.4,0,0.7,0.1,1,0.2v-3.2h-2v3.2C15.3-103.9,15.6-104,16-104z"/>
			</g>
		</g>
		<g class="st2">
			<path class="st3" d="M46.8-107.4c-0.4,0.2-0.9,0.4-1.4,0.5v3.9c0,0.8-0.4,1.2-1.1,1.2h-1.2l-0.2-1c0.4,0,0.7,0.1,1.1,0.1
				c0.3,0,0.5-0.2,0.5-0.5v-3.3c-0.5,0.2-1,0.3-1.5,0.4l-0.2-1c0.6-0.1,1.2-0.3,1.8-0.4v-3.4h-1.6v-1h1.6v-2.6h1v2.6h1.4v1h-1.4v3.1
				c0.5-0.2,0.9-0.4,1.4-0.5V-107.4z M48.4-103c0.7-0.2,1.3-0.4,1.8-0.7l0.2,0.9c-0.9,0.4-2,0.7-3.2,1l-0.3-0.9
				c0.3-0.1,0.5-0.3,0.5-0.6v-11h1v4h2v1h-2V-103z M52.3-101.8c-0.8,0-1.2-0.4-1.2-1.3v-11.3h1v4.2c0.8-0.3,1.7-0.7,2.5-1.2l0.6,0.8
				c-1.1,0.6-2.1,1.1-3,1.4v5.8c0,0.4,0.2,0.6,0.5,0.6h0.7c0.3,0,0.5-0.1,0.7-0.3c0.2-0.3,0.3-1,0.4-2.3l0.9,0.3
				c-0.1,1.5-0.3,2.5-0.6,2.8c-0.3,0.3-0.6,0.4-1.2,0.4H52.3z"/>
			<path class="st3" d="M69.3-110v0.8H56.7v-0.8H69.3z M67.9-108.6v3.6h-4.4v0.8h4.7v0.7h-4.7v0.8h5.8v0.8H56.7v-0.8h5.7v-0.8h-4.7
				v-0.7h4.7v-0.8h-4.3v-3.6H67.9z M67.6-114.2v3.5h-9.1v-3.5H67.6z M62.5-107.1v-0.9h-3.4v0.9H62.5z M62.5-106.5h-3.4v0.9h3.4
				V-106.5z M66.6-112.8v-0.8h-7.2v0.8H66.6z M66.6-112.2h-7.2v0.8h7.2V-112.2z M63.5-107.1h3.4v-0.9h-3.4V-107.1z M66.9-106.5h-3.4
				v0.9h3.4V-106.5z"/>
			<path class="st3" d="M73.7-110.2v6.2c0.5-0.4,1.1-0.9,1.7-1.5l0.3,1c-0.9,0.8-1.8,1.6-2.8,2.2l-0.4-0.9c0.2-0.2,0.3-0.4,0.3-0.6
				v-5.6h-2.1v-1H73.7z M74.7-112.1l-0.7,0.7c-0.6-0.7-1.4-1.4-2.4-2.2l0.7-0.7C73.2-113.6,74-112.9,74.7-112.1z M78.8-110.2v-4.2h1
				v4.2h3.6v1h-3.6v7.7h-1v-7.7H75v-1H78.8z"/>
			<path class="st3" d="M95.7-111.3v5.5H94v0.9h3.2v0.9H94v2.4h-1v-2.4h-4c-0.1,0.4-0.3,0.8-0.6,1.1c-0.5,0.5-1.3,1-2.3,1.3
				l-0.5-0.8c1-0.3,1.7-0.6,2.1-1c0.1-0.2,0.2-0.3,0.3-0.5h-3.2v-0.9h3.4c0-0.1,0-0.3,0-0.4v-0.5h-1.8v-5.5H95.7z M85.7-111.1
				l-0.8-0.5c0.9-0.9,1.5-1.9,1.8-2.9l1,0.2c-0.1,0.3-0.2,0.6-0.4,0.8h3.5v0.9H89c0.2,0.3,0.4,0.6,0.6,0.9l-0.8,0.3
				c-0.2-0.4-0.5-0.8-0.8-1.2h-1.1C86.6-112.1,86.2-111.6,85.7-111.1z M94.7-109.7v-0.8h-7.3v0.8H94.7z M94.7-108.2v-0.8h-7.3v0.8
				H94.7z M94.7-107.4h-7.3v0.9h7.3V-107.4z M89.3-105.2c0,0.1,0,0.3,0,0.4H93v-0.9h-3.8V-105.2z M91.7-111.4l-0.8-0.5
				c0.7-0.8,1.2-1.7,1.5-2.6l1,0.2l-0.3,0.8h4v0.9h-2.3c0.3,0.3,0.4,0.6,0.6,0.9l-0.8,0.3c-0.2-0.4-0.5-0.8-0.8-1.2h-1.1
				C92.4-112.2,92.1-111.8,91.7-111.4z"/>
		</g>
	</g>
</g>
<g id="ShadowBasicRect19" transform="translate(634.1766967773438,344)">
	<rect x="2" y="-122" class="st7" width="190" height="50"/>
	<rect x="0" y="-124" class="st8" width="190" height="50"/>
	<g transform="translate(20,11.999981880187988)">
		<g>
			<title>Product Icons【32】</title>
			<g id="_编组__2_">
				<path id="_复合路径__2_" class="st9" d="M29-95c-0.7,0-1.4-0.4-1.7-1H2v-17h2v15h23.3c0.6-1,1.8-1.3,2.7-0.7
					c1,0.6,1.3,1.8,0.7,2.7C30.4-95.4,29.7-95,29-95z M16-101c-3.9-0.1-6.9-3.3-6.9-7.1c0.1-3,2-5.6,4.9-6.6v2.1
					c-2.5,1.1-3.7,4-2.6,6.6s4,3.7,6.6,2.6c1.2-0.5,2.2-1.5,2.7-2.8l2.2-0.4C22.2-103.3,19.3-101,16-101z M22.5-108.5L17-107h-2
					v-7.9h2c2.5,0.4,4.6,2.1,5.5,4.4c0.1,0.3,0.2,0.6,0.2,0.9l0,0l0.2,1L22.5-108.5z M17-112.9v3.8l3.6-1
					C19.9-111.5,18.6-112.6,17-112.9z M28-118H4.7c-0.6,1-1.8,1.3-2.7,0.7S0.7-119,1.3-120s1.8-1.3,2.7-0.7c0.3,0.2,0.6,0.4,0.7,0.7
					H30v17h-2V-118z"/>
			</g>
		</g>
		<g class="st2">
			<path class="st3" d="M48.3-110.8c0.1-0.8,0.2-1.7,0.2-2.5v-1.1h1v0.9c0,1-0.1,1.9-0.2,2.8h5.8v1h-5.5c1,3.2,2.9,5.6,5.8,7.3
				l-0.6,0.8c-2.8-1.7-4.7-4.2-5.8-7.3c-0.9,3.4-2.8,5.9-5.8,7.4l-0.6-0.8c3-1.5,4.8-3.9,5.6-7.4h-5.3v-1H48.3z"/>
			<path class="st3" d="M60.2-107.8c-0.1,0.3-0.2,0.5-0.3,0.8h2.9v0.8c-0.3,0.9-0.8,1.7-1.6,2.4c0.7,0.3,1.3,0.6,1.9,1l-0.5,0.8
				c-0.6-0.4-1.3-0.7-2.2-1.1c-0.9,0.6-2.1,1.2-3.5,1.6l-0.5-0.8c1.1-0.3,2.1-0.7,3-1.1c-0.6-0.3-1.3-0.5-1.9-0.8
				c0.4-0.6,0.7-1.2,1-1.8h-1.7v-0.9h2c0.1-0.3,0.2-0.6,0.3-0.9L60.2-107.8z M59.7-111.8v-2.7h0.9v2.7h2.5v0.9h-2.5v0.2
				c0.8,0.4,1.5,0.8,2.3,1.3l-0.5,0.8c-0.7-0.6-1.3-1-1.8-1.3v1.8h-0.9v-2.7c-0.5,1.1-1.3,2.1-2.5,2.9l-0.5-0.8
				c1.1-0.6,1.8-1.3,2.3-2.1h-2v-0.9H59.7z M58.9-112.4l-0.7,0.3c-0.3-0.7-0.6-1.3-0.9-1.8l0.8-0.3C58.4-113.6,58.6-113,58.9-112.4z
				 M62-106.2h-2.4c-0.2,0.5-0.5,0.9-0.8,1.3c0.6,0.2,1.1,0.4,1.6,0.6C61.1-104.8,61.6-105.4,62-106.2z M63-113.9
				c-0.3,0.6-0.6,1.2-1.1,1.8l-0.7-0.4c0.4-0.6,0.8-1.2,1.1-1.8L63-113.9z M64.5-109.1c-0.3,0.6-0.5,1.2-0.8,1.7l-0.6-0.8
				c0.8-1.6,1.4-3.7,1.7-6.3l1,0.2c-0.1,0.7-0.2,1.4-0.3,2h3.7v1h-0.9c-0.1,2.3-0.5,4.3-1.3,6c0.7,1.3,1.6,2.2,2.6,2.9l-0.5,0.8
				c-1-0.7-1.8-1.7-2.5-2.8c-0.7,1.1-1.5,2.1-2.6,2.8l-0.5-0.8c1.1-0.8,1.9-1.7,2.6-2.9C65.4-106.4,64.9-107.7,64.5-109.1z
				 M65-110.6c0.4,1.6,0.8,3.1,1.4,4.2c0.5-1.4,0.8-3.1,0.9-5h-2.1L65-110.6z"/>
			<path class="st3" d="M71.1-101.7l-0.2-1c0.4,0,0.7,0.1,1.1,0.1c0.3,0,0.5-0.2,0.5-0.6v-3.4c-0.6,0.2-1.1,0.4-1.7,0.6l-0.3-1
				c0.6-0.2,1.3-0.4,1.9-0.6v-3.2h-1.7v-1h1.7v-2.6h1v2.6h1.3v1h-1.3v2.8c0.4-0.2,0.9-0.4,1.3-0.6v1c-0.4,0.2-0.9,0.4-1.3,0.6v4.1
				c0,0.8-0.4,1.2-1.2,1.2H71.1z M74.8-101.6l-0.8-0.7c1-1.8,1.5-4.3,1.5-7.2v-4.4H83v3.4h-2.6v1.7h3v0.9h-3v1.7h2.4v4.6h-0.9v-0.7
				h-3.8v0.7H77v-4.6h2.3v-1.7h-2.9C76.3-105.5,75.8-103.4,74.8-101.6z M76.6-110.5v1c0,0.2,0,0.4,0,0.7h2.8v-1.7H76.6z M76.6-112.9
				v1.6H82v-1.6H76.6z M81.7-103.2v-2.1h-3.8v2.1H81.7z"/>
			<path class="st3" d="M88.4-114.3c-0.1,0.7-0.3,1.4-0.4,2h3.1v0.9c-0.4,2.5-1.1,4.5-2.2,6.2c0.3,0.5,0.7,0.9,1.1,1.2
				c1.1,0.8,2.8,1.2,5.2,1.2c0.7,0,1.5,0,2.2-0.1l-0.2,1.1h-1.5c-2.9,0-5-0.5-6.3-1.4c-0.4-0.3-0.7-0.7-1.1-1.1
				c-0.9,1.1-1.9,2-3.1,2.7l-0.5-1c1.2-0.7,2.2-1.6,3-2.7c-0.5-0.9-0.9-2-1.2-3.2c-0.4,0.7-0.8,1.2-1.2,1.8l-0.7-0.9
				c1.3-1.7,2.2-3.9,2.7-6.7L88.4-114.3z M88.3-106.3c0.8-1.4,1.4-3.1,1.8-5h-2.4c-0.2,0.5-0.3,1-0.5,1.5
				C87.5-108.4,87.9-107.2,88.3-106.3z M94-114.4v3.6c1.1,0.8,2.3,1.8,3.5,2.9l-0.6,0.9c-1.1-1.1-2.1-2.1-2.9-2.7v5.8h-1v-10.4H94z"
				/>
			<path class="st3" d="M100.4-109.2v-3.3h-1.7v-1h4.5v1h-1.7v3.3h1.5v1h-1.5v3.2c0.5-0.2,1-0.4,1.5-0.6v1c-1.3,0.5-2.7,1-4.2,1.3
				l-0.3-1c0.6-0.1,1.2-0.3,1.8-0.4v-3.5h-1.5v-1H100.4z M110.7-113.9v6.5h-2.9v1.7h3.2v1h-3.2v1.8h3.7v1H103v-1h3.8v-1.8h-3.2v-1
				h3.2v-1.7h-2.9v-6.5H110.7z M106.8-111.1v-1.9h-2v1.9H106.8z M106.8-110.2h-2v1.9h2V-110.2z M107.8-111.1h1.9v-1.9h-1.9V-111.1z
				 M109.7-110.2h-1.9v1.9h1.9V-110.2z"/>
		</g>
	</g>
</g>
<g id="RectEndPoint2" transform="translate(12.5,191)">
	<rect x="-4" y="-122" class="st7" width="212" height="50"/>
	<rect x="-6" y="-124" class="st8" width="212" height="50"/>
	<g class="st2">
		<path class="st3" d="M62.2-105.5v0.9h2.2v0.8h-2.2v1h1.9v0.8h-1.9v1h2.4v0.9h-5.9v-0.9h2.5v-1h-2v-0.8h2v-1h-2.3v-0.8h2.3v-0.9
			H62.2z M60.3-92.6h-1v-6.7h4.7v5.6c0,0.7-0.3,1-1,1h-0.9l-0.2-0.9l0.8,0c0.2,0,0.4-0.1,0.4-0.3v-1h-2.8V-92.6z M63.1-98.5h-2.8v1
			h2.8V-98.5z M60.3-95.7h2.8v-1h-2.8V-95.7z M67.8-105.3c-0.1,0.3-0.3,0.5-0.4,0.7h2.8v0.7c-0.4,0.7-0.9,1.3-1.3,1.8h1.7v2.5h0.7
			v0.9h-0.7v2.6h-2.5v2.2c0,0.8-0.4,1.2-1.2,1.2h-1.4l-0.2-1c0.4,0,0.8,0.1,1.2,0.1c0.4,0,0.5-0.2,0.5-0.5v-2h-2.1v-1h2.1v-1.6h-2.5
			v-0.9h2.5v-1.6h-2v-0.9c-0.1,0.1-0.1,0.1-0.2,0.2l-0.6-0.7c1-0.7,1.9-1.7,2.5-2.9L67.8-105.3z M67.8-102.2c0.4-0.5,0.9-1,1.3-1.6
			h-2.2c-0.5,0.6-1,1.1-1.6,1.6H67.8z M68.2-99.6h1.6v-1.6h-1.6V-99.6z M68.2-97.1h1.6v-1.6h-1.6V-97.1z"/>
		<path class="st3" d="M79.5-105.5c-0.1,0.5-0.2,1-0.3,1.5h5.4v1h-4.5c0.7,1.6,2.4,2.8,5.2,3.6l-0.5,0.9c-3.1-1.1-5-2.6-5.7-4.5
			h-0.2c-0.3,0.8-0.7,1.5-1.2,2.1c-0.1,0.1-0.1,0.1-0.1,0.2c0.6,0.4,1.3,1,2,1.7l-0.7,0.7c-0.7-0.7-1.3-1.3-2-1.8
			c-0.9,0.7-2.2,1.2-3.9,1.7l-0.4-0.9c2-0.5,3.4-1.2,4.3-2.2c0.4-0.4,0.7-0.9,1-1.5h-4.6v-1h4.9c0.2-0.5,0.3-1,0.3-1.6L79.5-105.5z
			 M75-97.1c-0.3,1.5-0.8,2.7-1.4,3.8l-0.9-0.5c0.6-1,1-2.2,1.3-3.4L75-97.1z M77.4-92.9c-0.9,0-1.3-0.5-1.3-1.4v-3h1v2.8
			c0,0.4,0.2,0.6,0.6,0.6h3.1c0.3,0,0.5-0.1,0.6-0.3c0.2-0.2,0.3-0.8,0.3-1.7l1,0.3c-0.1,1.3-0.3,2-0.6,2.3
			c-0.3,0.2-0.6,0.4-1.2,0.4H77.4z M80.6-95.4L79.7-95c-0.4-0.9-0.8-1.8-1.2-2.5l0.9-0.3C79.8-97.1,80.2-96.3,80.6-95.4z M85.3-94.1
			l-0.9,0.4c-0.5-1.3-1.1-2.5-1.8-3.5l1-0.3C84.2-96.5,84.8-95.3,85.3-94.1z"/>
		<path class="st3" d="M95.9-92.7l-0.3-1l1.3,0c0.4,0,0.6-0.2,0.6-0.6v-9.7h-9.2v11.3h-1v-12.2h11.2V-94c0,0.9-0.4,1.3-1.2,1.3H95.9
			z M91.3-97.8c-0.5,1.4-1.1,2.5-1.8,3.5l-0.6-0.8c0.7-1,1.3-2.3,1.8-3.7c-0.7-0.9-1.3-1.7-2-2.5l0.6-0.6c0.5,0.5,1.1,1.2,1.7,2
			c0.3-1,0.5-2,0.7-3.2l0.9,0.2c-0.2,1.4-0.5,2.8-0.9,4c0.5,0.7,1.1,1.5,1.7,2.4l-0.7,0.7C92.1-96.5,91.7-97.2,91.3-97.8z
			 M95.3-97.5c-0.6,1.4-1.2,2.5-2,3.5l-0.6-0.8c0.8-1.1,1.4-2.3,2-3.7c-0.6-1-1.3-1.8-1.9-2.6l0.6-0.6c0.5,0.6,1.1,1.3,1.7,2.1
			c0.3-1.1,0.5-2.2,0.7-3.4l1,0.2c-0.3,1.6-0.6,3-1,4.2c0.5,0.8,1.1,1.7,1.7,2.7l-0.7,0.7C96.2-96,95.7-96.7,95.3-97.5z"/>
		<path class="st3" d="M106.1-94.7c-1.6,0.5-3.3,0.8-5.1,1.1l-0.2-1c1-0.1,2-0.3,3-0.5c0.4-2,0.8-4.1,1-6.3l1,0.1
			c-0.2,2.2-0.5,4.1-1,6c0.5-0.1,0.9-0.3,1.4-0.4V-94.7z M103.1-103.1c-0.2-0.8-0.4-1.4-0.6-2.1l1-0.2c0.2,0.6,0.4,1.4,0.5,2.2h2.3
			v1h-5.5v-1H103.1z M103-95.7l-0.8,0.2c-0.3-1.9-0.6-3.8-1-5.5l0.9-0.3C102.4-99.7,102.7-97.8,103-95.7z M109.8-105.5v2.5h3.5v1
			h-3.5v2.7h2.8v6.6h-1v-0.9h-4v0.9h-1v-6.6h2v-6.2H109.8z M111.6-94.5v-3.9h-4v3.9H111.6z"/>
		<path class="st3" d="M114.8-98.7l-0.3-1.1c1.4-1.7,2.4-3.6,3-5.8l0.9,0.4c-0.3,1.1-0.7,2.1-1.2,3v9.5h-1v-7.9
			C115.7-99.8,115.3-99.2,114.8-98.7z M122.6-103.6c-0.2-0.6-0.4-1.1-0.7-1.6l1-0.3c0.3,0.6,0.5,1.2,0.7,1.7l-0.5,0.2h4.4v1h-9.1v-1
			H122.6z M126.5-92.6h-1v-0.8h-5.2v0.8h-1v-4.9h7.1V-92.6z M126.2-101.5v0.9h-6.6v-0.9H126.2z M126.2-99.5v0.9h-6.6v-0.9H126.2z
			 M125.5-94.3v-2.2h-5.2v2.2H125.5z"/>
		<path class="st3" d="M130.9-96.4c-0.3,1.3-0.8,2.4-1.4,3.3l-0.9-0.5c0.6-0.9,1-1.9,1.3-3L130.9-96.4z M133.8-104.4
			c0.2-0.4,0.3-0.7,0.4-1.1l1.1,0.1c-0.1,0.3-0.3,0.7-0.4,1h4.6v6.8h-8.8v-6.8H133.8z M138.5-102.4v-1.1h-6.8v1.1H138.5z
			 M138.5-100.4v-1.1h-6.8v1.1H138.5z M138.5-99.6h-6.8v1.2h6.8V-99.6z M133.1-92.8c-0.8,0-1.2-0.4-1.2-1.2v-2.7h1v2.5
			c0,0.3,0.2,0.5,0.5,0.5h3.1c0.3,0,0.5-0.1,0.7-0.2c0.2-0.2,0.3-0.7,0.4-1.7l1,0.3c-0.1,1.2-0.3,1.9-0.6,2.2
			c-0.3,0.2-0.7,0.3-1.2,0.3H133.1z M136.6-95.3l-0.8,0.5c-0.4-0.6-1-1.3-1.7-2l0.7-0.5C135.6-96.5,136.2-95.8,136.6-95.3z
			 M141.4-93.9l-0.8,0.6c-0.5-0.9-1.2-1.9-2-3l0.8-0.5C140.3-95.7,141-94.7,141.4-93.9z"/>
	</g>
</g>
<g id="textgroup" transform="translate(0,0)">
</g>
<g id="assistantgroup" transform="translate(0,0)">
</g>
</svg>
