<?xml version="1.0" encoding="UTF-8"?>
<svg width="820px" height="144px" viewBox="0 0 820 144" version="1.1" xmlns="http://www.w3.org/2000/svg" xmlns:xlink="http://www.w3.org/1999/xlink">
    <!-- Generator: Sketch 59.1 (86144) - https://sketch.com -->
    <title>高效的运营工具_820*144</title>
    <desc>Created with Sketch.</desc>
    <defs>
        <linearGradient x1="95.5361053%" y1="74.637675%" x2="4.46473684%" y2="25.362325%" id="linearGradient-1">
            <stop stop-color="#0063FF" offset="0%"></stop>
            <stop stop-color="#00C8DE" offset="100%"></stop>
        </linearGradient>
        <linearGradient x1="96.1313928%" y1="83.6692742%" x2="3.85399262%" y2="16.3196338%" id="linearGradient-2">
            <stop stop-color="#0063FF" offset="0.00263935811%"></stop>
            <stop stop-color="#00C8DE" offset="100%"></stop>
        </linearGradient>
        <linearGradient x1="96.1435715%" y1="84.9139566%" x2="3.85399262%" y2="15.0837592%" id="linearGradient-3">
            <stop stop-color="#0063FF" offset="0.00263935811%"></stop>
            <stop stop-color="#00C8DE" offset="100%"></stop>
        </linearGradient>
        <linearGradient x1="95.5361053%" y1="81.8152482%" x2="4.46473684%" y2="18.1847518%" id="linearGradient-4">
            <stop stop-color="#0063FF" offset="0%"></stop>
            <stop stop-color="#00C8DE" offset="100%"></stop>
        </linearGradient>
        <linearGradient x1="96.1435715%" y1="83.6781629%" x2="3.85399262%" y2="16.3196338%" id="linearGradient-5">
            <stop stop-color="#0063FF" offset="0.00263935811%"></stop>
            <stop stop-color="#00C8DE" offset="100%"></stop>
        </linearGradient>
        <linearGradient x1="70.394008%" y1="105.434543%" x2="29.6063692%" y2="-5.43454303%" id="linearGradient-6">
            <stop stop-color="#0063FF" offset="0%"></stop>
            <stop stop-color="#00C8DE" offset="100%"></stop>
        </linearGradient>
        <linearGradient x1="73.7397331%" y1="104.541539%" x2="26.2539998%" y2="-4.5566262%" id="linearGradient-7">
            <stop stop-color="#0063FF" offset="0.00263935811%"></stop>
            <stop stop-color="#00C8DE" offset="100%"></stop>
        </linearGradient>
        <linearGradient x1="95.5361053%" y1="86.9411258%" x2="4.46473684%" y2="13.0588742%" id="linearGradient-8">
            <stop stop-color="#0063FF" offset="0%"></stop>
            <stop stop-color="#00C8DE" offset="100%"></stop>
        </linearGradient>
        <linearGradient x1="96.1386998%" y1="88.4231443%" x2="3.85399262%" y2="11.5702847%" id="linearGradient-9">
            <stop stop-color="#0063FF" offset="0.00263935811%"></stop>
            <stop stop-color="#00C8DE" offset="100%"></stop>
        </linearGradient>
        <linearGradient x1="96.1313928%" y1="83.1657109%" x2="3.85399262%" y2="16.823363%" id="linearGradient-10">
            <stop stop-color="#0063FF" offset="0.00263935811%"></stop>
            <stop stop-color="#00C8DE" offset="100%"></stop>
        </linearGradient>
    </defs>
    <g id="高效的运营工具_820*144" stroke="none" stroke-width="1" fill="none" fill-rule="evenodd">
        <rect id="矩形" fill="#D8D8D8" opacity="0" x="0" y="0" width="820" height="120"></rect>
        <g id="出行大数据" transform="translate(350.000000, 0.000000)">
            <rect id="矩形备份" fill="#9B9B9B" opacity="0" x="0" y="0" width="120" height="120"></rect>
            <g id="灵活车源司机管理" transform="translate(4.000000, 16.000000)">
                <path d="M103,5 C103.552285,5 104,5.44771525 104,6 L104.000391,49.5642194 C99.9732169,46.0963978 94.7314284,44 89,44 C76.2974508,44 66,54.2974508 66,67 C66,68.3644771 66.1188175,69.7012029 66.3466704,71.0003953 L6,71 C5.44771525,71 5,70.5522847 5,70 L5,6 C5,5.44771525 5.44771525,5 6,5 L103,5 Z" id="形状结合" fill="url(#linearGradient-1)" fill-rule="nonzero" opacity="0.2"></path>
                <g id="编组-6" transform="translate(18.000000, 11.000000)" fill="#FFFFFF">
                    <path d="M6.28,35.86 L6.28,54.48 L1.38,54.48 L1.38,35.86 L6.28,35.86 Z M22.94,24.1 L22.94,54.48 L18.04,54.48 L18.04,24.1 L22.94,24.1 Z M38.62,28.02 L38.62,54.48 L33.72,54.48 L33.72,28.02 L38.62,28.02 Z M55.28,38.8 L55.2803532,39.2102333 C53.2780073,41.085723 51.6113485,43.3152664 50.3802387,45.7990017 L50.38,38.8 L55.28,38.8 Z M71.94,18.22 L71.9405516,33.0188813 C71.628594,33.0063339 71.3150367,33 71,33 C69.6498307,33 68.3268337,33.1163388 67.0404868,33.3395387 L67.04,18.22 L71.94,18.22 Z M69.09,1.13686838e-13 C70.9843367,1.13686838e-13 72.52,1.53566331 72.52,3.43 C72.52,5.32433669 70.9843367,6.86 69.09,6.86 C68.6791845,6.86 68.2852376,6.78777704 67.9201637,6.65533556 L55.6980182,22.965354 C55.8032165,23.2947276 55.86,23.6457326 55.86,24.01 C55.86,25.9043367 54.3243367,27.44 52.43,27.44 C50.5356633,27.44 49,25.9043367 49,24.01 C49,23.6153465 49.0666521,23.2362605 49.1893135,22.8833845 L37.8654703,15.9457032 C37.2859258,16.3935452 36.5590798,16.66 35.77,16.66 C33.8756633,16.66 32.34,15.1243367 32.34,13.23 C32.34,12.8522277 32.401072,12.4887194 32.5138814,12.1488099 L22.5979793,6.74987766 C21.9719082,7.42063848 21.0799277,7.84 20.09,7.84 C19.46548,7.84 18.8799431,7.67309305 18.3755631,7.38145273 L6.49330099,17.5652761 C6.7278647,18.0295177 6.86,18.5543279 6.86,19.11 C6.86,21.0043367 5.32433669,22.54 3.43,22.54 C1.53566331,22.54 -7.10542736e-15,21.0043367 -7.10542736e-15,19.11 C-7.10542736e-15,17.2156633 1.53566331,15.68 3.43,15.68 C4.05452003,15.68 4.64005686,15.8469069 5.14443691,16.1385473 L17.026699,5.95472386 C16.7921353,5.49048234 16.66,4.9656721 16.66,4.41 C16.66,2.51566331 18.1956633,0.98 20.09,0.98 C21.9843367,0.98 23.52,2.51566331 23.52,4.41 C23.52,4.60895827 23.5030603,4.80396006 23.4705445,4.99364177 L33.6476114,10.5353118 C34.231493,10.0748027 34.9686547,9.8 35.77,9.8 C37.6643367,9.8 39.2,11.3356633 39.2,13.23 C39.2,13.6220225 39.1342337,13.9986844 39.0131322,14.3495545 L50.3405406,21.2896624 C50.9190963,20.8446172 51.6436458,20.58 52.43,20.58 C53.2118114,20.58 53.9325301,20.8415686 54.5094178,21.2819674 L66.3451661,5.48722398 C65.914924,4.91409387 65.66,4.20181728 65.66,3.43 C65.66,1.53566331 67.1956633,1.13686838e-13 69.09,1.13686838e-13 Z M52.43,22.54 C51.6181414,22.54 50.96,23.1981414 50.96,24.01 C50.96,24.8218586 51.6181414,25.48 52.43,25.48 C53.2418586,25.48 53.9,24.8218586 53.9,24.01 C53.9,23.1981414 53.2418586,22.54 52.43,22.54 Z M3.43,17.64 C2.61814142,17.64 1.96,18.2981414 1.96,19.11 C1.96,19.9218586 2.61814142,20.58 3.43,20.58 C4.24185858,20.58 4.9,19.9218586 4.9,19.11 C4.9,18.2981414 4.24185858,17.64 3.43,17.64 Z M35.77,11.76 C34.9581414,11.76 34.3,12.4181414 34.3,13.23 C34.3,14.0418586 34.9581414,14.7 35.77,14.7 C36.5818586,14.7 37.24,14.0418586 37.24,13.23 C37.24,12.4181414 36.5818586,11.76 35.77,11.76 Z M20.09,2.94 C19.2781414,2.94 18.62,3.59814142 18.62,4.41 C18.62,5.22185858 19.2781414,5.88 20.09,5.88 C20.9018586,5.88 21.56,5.22185858 21.56,4.41 C21.56,3.59814142 20.9018586,2.94 20.09,2.94 Z M69.09,1.96 C68.2781414,1.96 67.62,2.61814142 67.62,3.43 C67.62,4.24185858 68.2781414,4.9 69.09,4.9 C69.9018586,4.9 70.56,4.24185858 70.56,3.43 C70.56,2.61814142 69.9018586,1.96 69.09,1.96 Z" id="形状结合" fill-rule="nonzero"></path>
                    <circle id="椭圆形" cx="71" cy="56" r="19"></circle>
                </g>
                <g id="线框"></g>
                <g id="主要元素" fill="url(#linearGradient-3)" fill-rule="nonzero">
                    <path d="M89,46 C100.59798,46 110,55.4020203 110,67 C110,78.5979797 100.59798,88 89,88 C77.4020203,88 68,78.5979797 68,67 C68,55.4020203 77.4020203,46 89,46 Z M107,-5.68434189e-14 C107.552285,-5.69448719e-14 108,0.44771525 108,1 L108.00024,54.0349505 C107.691545,53.5834313 107.367175,53.1434777 107.027914,52.7158738 L107.027027,1.98823529 C107.027027,1.43595054 106.579312,0.988235294 106.027027,0.988235294 L1.97297297,0.988235294 C1.46013713,0.988235294 1.03746581,1.37427548 0.979700704,1.87161417 L0.972972973,1.98823529 L0.972972973,74.0117647 C0.972972973,74.5246005 1.35901316,74.9472719 1.85635185,75.005037 L1.97297297,75.0117647 L67.4337658,75.0115411 C67.5576938,75.3450108 67.689135,75.6748275 67.8278836,76.0007853 L64.48,76 L69.675,85 L74.6818985,85.0009059 C75.1201636,85.3499692 75.5714636,85.6833631 76.0349505,86.0002398 L28,86 L28,85 L39.324,85 L44.519,76 L1,76 C0.44771525,76 2.13839174e-14,75.5522847 2.13162821e-14,75 L2.13162821e-14,1 C2.12486467e-14,0.44771525 0.44771525,-5.67419658e-14 1,-5.68434189e-14 L107,-5.68434189e-14 Z M89,48 C78.5065898,48 70,56.5065898 70,67 C70,77.4934102 78.5065898,86 89,86 C99.4934102,86 108,77.4934102 108,67 C108,56.5065898 99.4934102,48 89,48 Z M63.324,76 L45.675,76 L40.479,85 L68.52,85 L63.324,76 Z M96.58,57 L98.45082,63.86 L101.48,63.86 L101.48,66.8 L99.52,66.8 L99.52,75.62 L96.58,75.62 L96.58,77.58 L92.66,77.58 L92.66,75.62 L84.82,75.62 L84.82,77.58 L80.9,77.58 L80.9,75.62 L77.96,75.62 L77.96,66.8 L76,66.8 L76,63.86 L79.02918,63.86 L80.9,57 L96.58,57 Z M97.56,67.78 L79.92,67.78 L79.92,73.66 L97.56,73.66 L97.56,67.78 Z M95.6,69.74 L95.6,71.7 L90.7,71.7 L90.7,69.74 L95.6,69.74 Z M86.78,69.74 L86.78,71.7 L81.88,71.7 L81.88,69.74 L86.78,69.74 Z M95.0829602,58.96 L82.3970398,58.96 L80.5261308,65.82 L96.9538692,65.82 L95.0829602,58.96 Z" id="形状结合"></path>
                </g>
            </g>
        </g>
        <g id="灵活车源司机管理" transform="translate(180.000000, 0.000000)">
            <rect id="矩形备份" fill="#9B9B9B" opacity="0" x="0" y="0" width="120" height="120"></rect>
            <g transform="translate(4.000000, 16.000000)">
                <path d="M103,5 C103.552285,5 104,5.44771525 104,6 L104.000964,48.0243641 C100.302618,45.4856167 95.824801,44 91,44 C78.2974508,44 68,54.2974508 68,67 C68,71.824801 69.4856167,76.3026177 72.0243641,80.0009641 L6,80 C5.44771525,80 5,79.5522847 5,79 L5,6 C5,5.44771525 5.44771525,5 6,5 L103,5 Z" id="面" fill="url(#linearGradient-4)" fill-rule="nonzero" opacity="0.2"></path>
                <g id="白色辅助" transform="translate(14.000000, 11.000000)" fill="#FFFFFF">
                    <rect id="矩形" x="42" y="7" width="34" height="7"></rect>
                    <rect id="矩形备份-8" x="42" y="19" width="34" height="7"></rect>
                    <path d="M54,56 C54,57.7175128 54.1882556,59.3910561 54.5452578,61.001121 L-4.97379915e-14,61 L-4.97379915e-14,54 L54.0857224,54.0003346 C54.0289666,54.6593392 54,55.3262868 54,56 Z M55.4293039,48.0004754 L-4.97379915e-14,48 L-4.97379915e-14,41 L59.563454,41.0004974 C57.7980246,43.0508975 56.3880843,45.4161138 55.4293039,48.0004754 Z" id="形状结合"></path>
                    <g id="sijiguanli" transform="translate(2.000000, 0.000000)" fill-rule="nonzero">
                        <path d="M7.06105496,16.7394393 C10.9659708,14.9501559 14.7247487,15.248359 14.8708867,15.248359 C17.0281063,15.248359 18.8675599,15.6016553 20.1987371,15.9462067 L20.1987371,15.9462067 L14.0747068,24.6425507 C8.31028863,25.0566731 5.72628268,29.6279549 5.79740834,32.4106981 L5.79740834,32.4106981 L2.12539988,32.4106981 C1.84293769,32.2021146 1.11668499,30.9739661 0.267096,29.353849 C-0.444114054,27.8586332 0.505624921,26.4264967 1.02871809,25.6070241 L1.15412639,25.4075079 C1.82807127,24.2345497 4.10759068,20.7088088 5.59423377,18.2901474 C6.56550727,16.7891561 7.06105496,16.7394393 7.06105496,16.7394393 Z M21.4410395,16.3014141 C21.6972668,16.3808637 21.9104495,16.4498517 22.0761503,16.5007992 C23.6222591,16.97795 24.4482367,18.7537922 24.7123993,19.2170807 C24.9140515,19.5707657 27.428033,23.5088153 28.5578818,25.4472165 C29.361997,26.8702805 30.0742254,27.5943631 29.4201348,29.2643912 C27.665151,32.4462933 27.3091016,32.4107151 27.3091016,32.4107151 L27.3091016,32.4107151 L23.9492558,32.4055807 C23.9492558,29.3402457 21.1773628,24.972268 15.5731718,24.634 L15.5731718,24.634 Z M14.8411539,26.6997214 C18.7082721,26.6997214 21.8432105,29.2072899 21.8432105,32.4106657 L21.8432105,32.4106657 L7.83906489,32.4106657 C7.83906489,29.2072899 10.9740033,26.6997214 14.8411539,26.6997214 Z M14.844328,0.0266883241 C18.5082069,0.0266883241 21.489072,3.21859849 21.489072,7.14184639 C21.489072,11.0650943 18.5082069,14.2569721 14.844328,14.2569721 C11.1804815,14.2569721 8.19961633,11.0650943 8.19961633,7.14184639 C8.19961633,3.21859849 11.181194,0.0266883241 14.844328,0.0266883241 Z" id="形状结合"></path>
                    </g>
                </g>
                <g id="线框"></g>
                <g id="主要元素">
                    <circle id="椭圆形" fill="#FFFFFF" cx="91" cy="67" r="21"></circle>
                    <path d="M91,46 C102.59798,46 112,55.4020203 112,67 C112,78.5979797 102.59798,88 91,88 C79.4020203,88 70,78.5979797 70,67 C70,55.4020203 79.4020203,46 91,46 Z M91,48 C80.5065898,48 72,56.5065898 72,67 C72,77.4934102 80.5065898,86 91,86 C101.49341,86 110,77.4934102 110,67 C110,56.5065898 101.49341,48 91,48 Z M107,0 C107.552285,-1.01453063e-16 108,0.44771525 108,1 L108.000718,51.5086262 C107.686618,51.1641207 107.362187,50.8291975 107.027916,50.5043467 L107.027027,1.98823529 C107.027027,1.43595054 106.579312,0.988235294 106.027027,0.988235294 L1.97297297,0.988235294 C1.46013713,0.988235294 1.03746581,1.37427548 0.979700704,1.87161417 L0.972972973,1.98823529 L0.972972973,82.0117647 C0.972972973,82.5246005 1.35901316,82.9472719 1.85635185,83.005037 L1.97297297,83.0117647 L74.4887264,83.0118276 C74.8184583,83.3517794 75.1585961,83.6815807 75.5086262,84.0007177 L1,84 C0.44771525,84 2.13839174e-14,83.5522847 2.13162821e-14,83 L2.13162821e-14,1 C2.12486467e-14,0.44771525 0.44771525,1.01453063e-16 1,0 L107,0 Z M94.1136425,54 L94.8955074,54.2470333 C96.7434778,54.830907 98.476077,55.8529548 99.9380195,57.2040316 L100.552915,57.7722966 L100.094556,58.4782958 C99.460791,59.4544684 99.4046751,60.6933559 99.9851816,61.6868449 C100.586156,62.7153635 101.580547,63.2673043 102.769547,63.2673043 L103.58592,63.2673043 L103.778199,64.463125 C103.925552,65.4317117 104,66.2075837 104,66.9982648 L103.999269,67.1412579 C103.996805,67.3771995 103.987983,67.6057704 103.970828,67.8949217 L103.879441,69.267813 C103.873236,69.3864718 103.869589,69.4852105 103.867756,69.5808701 L103.866255,70.7292254 L102.903292,70.7292254 C101.714292,70.7292254 100.719901,71.2811662 100.154278,72.2435573 C99.6151811,73.3507014 99.6438841,74.618071 100.228301,75.5182338 L100.685534,76.2224986 L100.0735,76.7908905 C98.6216674,78.1391972 96.9021156,79.1481816 95.033449,79.7481596 L94.2490772,80 L93.882759,79.2476918 C93.3769946,78.209003 92.3730321,77.5960239 91.1337449,77.5960239 C89.8944576,77.5960239 88.8904952,78.209003 88.3847308,79.2476918 L88.0201023,79.9965296 L87.2382374,79.7494963 C85.390267,79.1656226 83.6576678,78.1435748 82.1957253,76.792498 L81.58083,76.224233 L82.039189,75.5182338 C82.6316023,74.6057539 82.6316023,73.3652595 82.0148184,72.3096847 C81.4138438,71.2811662 80.4194532,70.7292254 79.2304527,70.7292254 L78.4140795,70.7292254 L78.2218012,69.5334046 C78.0744476,68.5648179 78,67.7889459 78,66.9982648 C78,66.2075837 78.0744476,65.4317117 78.2218012,64.463125 L78.4140795,63.2673043 L79.2304527,63.2673043 C80.4599338,63.2673043 81.5651501,62.6853084 82.1132116,61.7529723 C82.6523087,60.6458282 82.6236056,59.3784586 82.039189,58.4782958 L81.58083,57.7722966 L82.1957253,57.2040316 C83.7210746,55.7943565 85.3146401,54.8125444 87.1044926,54.2470333 L87.8863575,54 L88.2509859,54.7488378 C88.7567503,55.7875266 89.7607128,56.4005057 91,56.4005057 C92.2392872,56.4005057 93.2432497,55.7875266 93.7490141,54.7488378 L94.1136425,54 Z M95.0245686,56.3751425 L94.8754951,56.5700918 C93.9548181,57.7129197 92.5672173,58.3689879 91,58.3689879 C89.3467532,58.3689879 87.8933835,57.6389155 86.9771567,56.3775193 C85.9512792,56.7909478 84.990229,57.3840204 84.0505486,58.1687676 C84.6162495,59.554806 84.5292799,61.2080779 83.802054,62.6961667 C82.9970435,64.0738758 81.6163341,64.9441428 80.0658366,65.1744045 C79.9722636,65.861898 79.9259259,66.4352446 79.9259259,66.9982648 C79.9259259,67.5617805 79.9723452,68.1356408 80.0660838,68.8239406 C81.5679463,69.0552917 82.8591308,69.9155208 83.6683092,71.3003629 C84.4982496,72.7207375 84.6311318,74.3981821 84.0525169,75.8229204 C84.983703,76.5816402 86.0190645,77.1922112 87.1091762,77.6213871 C88.0253032,76.3585313 89.4794599,75.6275417 91.1337449,75.6275417 C92.787265,75.6275417 94.2408419,76.3578555 95.1570425,77.619636 C96.2594452,77.1844877 97.2908422,76.5790394 98.2154999,75.8242267 C97.6513885,74.438913 97.738828,72.7871867 98.4654357,71.3003629 C99.2114238,70.0236659 100.367076,69.1928449 101.719794,68.8895963 L101.975687,68.8389396 L102.055869,67.6422033 L102.071357,67.2441946 L102.074074,66.9982648 L102.070202,66.715163 C102.057287,66.2402834 102.012032,65.7461722 101.933916,65.172589 C100.432054,64.9412379 99.1408692,64.0810088 98.3316908,62.6961667 C97.5136807,61.2962099 97.4519955,59.6159419 98.0740435,58.16776 C97.2608833,57.5062521 96.3684702,56.9576533 95.4296605,56.5440645 L95.0245686,56.3751425 Z M91,61.8939445 C93.8064952,61.8939445 95.9753086,64.1209917 95.9753086,66.9982648 C95.9753086,69.8755379 93.8064952,72.1025851 91,72.1025851 C88.1935048,72.1025851 86.0246914,69.8755379 86.0246914,66.9982648 C86.0246914,64.1209917 88.1935048,61.8939445 91,61.8939445 Z M91,63.8624268 C89.2591701,63.8624268 87.9506173,65.2061149 87.9506173,66.9982648 C87.9506173,68.7904147 89.2591701,70.1341028 91,70.1341028 C92.7408299,70.1341028 94.0493827,68.7904147 94.0493827,66.9982648 C94.0493827,65.2061149 92.7408299,63.8624268 91,63.8624268 Z" id="形状结合" fill="url(#linearGradient-5)" fill-rule="nonzero"></path>
                </g>
            </g>
        </g>
        <g id="合规分账解决方案" transform="translate(520.000000, 0.000000)">
            <rect id="矩形备份-3" fill="#9B9B9B" opacity="0" x="0" y="0" width="120" height="120"></rect>
            <g transform="translate(23.000000, 9.000000)">
                <g id="线" transform="translate(1.000000, 1.000000)"></g>
                <g id="面" transform="translate(5.374854, 5.340674)" fill="url(#linearGradient-6)" fill-rule="nonzero" opacity="0.2">
                    <path d="M28.9946397,-1.42108547e-14 C29.0755202,-1.42108547e-14 29.1564006,0.00649247083 29.237281,0.0194774125 C30.6538614,0.347913666 31.0678436,1.05724534 32.3008252,2.30131969 C33.5338068,3.54539403 34.532825,3.41295298 36.7286386,1.92873303 C38.9244523,0.444513072 40.729829,0.0113895566 42.1447689,0.629362483 C43.9708689,1.48946499 45.0128885,2.50494549 45.2708277,3.67580399 C45.4788264,4.58048697 45.4788264,5.28540758 45.2708277,5.79056583 L41.249392,16.5953854 C40.779259,19.4042954 40.9639777,22.3220874 41.8035481,25.3487612 C42.9005761,28.5598674 44.3817905,30.9982578 46.2471914,32.6639324 C52.9891272,37.788907 56.8072856,44.0614176 57.7016668,51.4814642 C57.8476085,52.6922391 57.949624,54.055832 57.979926,55.5246662 C54.6413523,53.5343031 50.7390147,52.3908 46.5695977,52.3908 C34.2455844,52.3908 24.2549977,62.3813867 24.2549977,74.7054 C24.2549977,79.0937651 25.5217514,83.1862641 27.7095429,86.6371808 C1.7783732,85.9237539 -0.931136537,63.377759 0.212100726,52.1609798 L0.287612648,51.4814642 C1.18199385,44.0614176 5.00015232,37.788907 11.7420881,32.6639324 C13.607489,30.9982578 15.0887034,28.5598674 16.1857314,25.3487612 C16.9759153,22.500127 17.1860229,19.7479418 16.8160544,17.0922057 L16.7398875,16.5953854 L12.7184518,5.79056583 C12.5104531,5.28540758 12.5104531,4.58048697 12.7184518,3.67580399 C12.976391,2.50494549 14.0184106,1.48946499 15.8445106,0.629362483 C17.2594505,0.0113895566 19.0648272,0.444513072 21.2606408,1.92873303 C22.9795349,3.42119848 24.4554727,3.54539403 25.6884543,2.30131969 C26.9214359,1.05724534 27.3354181,0.347913666 28.7519984,0.0194774125 C28.8328789,0.00649247083 28.9137593,-1.42108547e-14 28.9946397,-1.42108547e-14 Z" id="形状结合"></path>
                </g>
                <g id="白色辅助" transform="translate(5.746224, 49.969874)" fill="#FFFFFF" fill-rule="nonzero">
                    <g id="编组-7" transform="translate(18.324028, 7.500000) scale(-1, 1) translate(-18.324028, -7.500000) translate(10.824028, 0.000000)">
                        <path d="M7.11632641,12.4660764 C6.99334693,12.4674266 6.87131708,12.4443399 6.75735241,12.3981014 C5.00926114,11.7034539 3.89612518,9.974354 3.98749762,8.0955221 C4.07887005,6.21669021 5.35453735,4.60376393 7.16178479,4.08202172 C8.96903222,3.56027951 10.9080582,4.24514185 11.9867304,5.78618843 C12.212064,6.06844462 12.2619598,6.45250487 12.1162286,6.78296852 C11.9704974,7.11343217 11.6532644,7.33559226 11.2928903,7.35955711 C10.9325162,7.38352196 10.5886595,7.20532428 10.4004534,6.89706743 C9.79831836,6.03125383 8.71120685,5.64569558 7.69810201,5.93864331 C6.68499716,6.23159105 5.97142058,7.13783331 5.92428701,8.19138835 C5.87715345,9.2449434 6.50695505,10.2112852 7.48985341,10.5935294 C7.92349927,10.7649132 8.17389521,11.2205437 8.08610266,11.6784887 C7.9983101,12.1364337 7.59716238,12.4671569 7.13087941,12.4660764 L7.11632641,12.4660764 Z" id="路径"></path>
                        <path d="M3.12395341,14.9109194 C2.86298808,14.911143 2.61293611,14.8062261 2.43026041,14.6198594 C-0.682921121,11.4077649 -0.821887669,6.34806238 2.11029091,2.96992989 C5.04246948,-0.408202603 10.0714275,-0.982208465 13.6894314,1.64828543 C14.123451,1.9630836 14.220099,2.57012032 13.9053009,3.00413991 C13.5905027,3.4381595 12.983466,3.53480757 12.5494464,3.22000943 C9.74423204,1.11882945 5.79207617,1.54309724 3.49676885,4.1918232 C1.20146153,6.84054916 1.34366586,10.812868 3.82249741,13.2906854 C4.00467869,13.4726642 4.10704412,13.7196019 4.10704412,13.9771019 C4.10704412,14.234602 4.00467869,14.4815397 3.82249741,14.6635184 C3.6315579,14.8351672 3.38036448,14.9241315 3.12395341,14.9109194 L3.12395341,14.9109194 Z" id="路径"></path>
                    </g>
                    <path d="M15.7684747,8.73219713 C16.1568021,8.72257553 16.5287986,8.8882107 16.7811696,9.18310978 C17.0342857,9.47767789 17.1409207,9.87051348 17.0714325,10.2524169 L17.0714325,10.2524169 L14.671926,23.3288839 C14.5828903,23.8185884 14.2193628,24.2132741 13.7381308,24.3427152 C13.2568988,24.4721564 12.7440512,24.3131969 12.420776,23.9343951 L12.420776,23.9343951 L9.88581348,20.9776964 L2.77671027,27.3774078 C1.29071449,24.1682268 0.434458058,20.7531853 1.2619695e-05,17.4882804 L3.88704715,13.9756671 L1.51334176,11.2057751 C1.18756543,10.8276184 1.10967015,10.2956318 1.31338289,9.84015393 C1.51727758,9.38685284 1.96405332,9.09107408 2.46153386,9.08004403 L2.46153386,9.08004403 Z" id="形状结合"></path>
                </g>
                <g id="主要元素" transform="translate(0.570252, 0.671874)">
                    <g transform="translate(31.000000, 59.000000)" fill="#FFFFFF" id="椭圆形">
                        <circle cx="20.3742" cy="20.3742" r="20.3742"></circle>
                    </g>
                    <g id="编组-8" transform="translate(44.582800, 67.731800)"></g>
                    <path d="M51.3742,59 C62.6265599,59 71.7484,68.1218401 71.7484,79.3742 C71.7484,90.6265599 62.6265599,99.7484 51.3742,99.7484 C40.1218401,99.7484 31,90.6265599 31,79.3742 C31,68.1218401 40.1218401,59 51.3742,59 Z M51.3742,60.9404 C41.1934934,60.9404 32.9404,69.1934934 32.9404,79.3742 C32.9404,89.5549066 41.1934934,97.808 51.3742,97.808 C61.5549066,97.808 69.808,89.5549066 69.808,79.3742 C69.808,69.1934934 61.5549066,60.9404 51.3742,60.9404 Z M34.5803136,0.353833175 L34.7323899,0.377327392 L35.0708823,0.456343294 C36.8630978,0.901755522 37.8749435,1.51422742 39.2322811,2.88403447 C42.7879085,0.525857631 45.9592893,0.101614646 48.7091494,1.30281667 C51.9856517,2.84442484 53.7824085,4.91242659 54.3340242,7.38250692 C54.7471379,9.19101495 54.6534882,10.7463871 54.1419626,12.0480266 L53.4133914,13.7533313 L52.9166992,14.9387923 C51.4378148,18.501909 50.5787438,20.8973334 50.3468293,22.0921604 L50.3084115,22.3179014 C50.0168141,24.3640836 50.1775057,26.5028043 50.7762145,28.7125019 C51.4288345,30.595138 52.6955069,32.199413 54.6301255,33.9875415 C61.2491996,39.9621076 65.895001,47.7812186 66.8407948,55.6277988 C67.1534484,58.221664 67.2480116,60.8901905 67.1120235,63.5542866 C66.808501,63.2525793 66.4969524,62.9598602 66.1771983,62.6761852 C66.2537415,60.3440617 66.1512505,58.014461 65.8775668,55.7439022 C64.962516,48.1523738 60.4373356,40.5362739 53.9758276,34.7038862 C51.9295584,32.8126097 50.5767375,31.0992253 49.8497177,28.9984823 C49.6652014,28.3188169 49.51962,27.6468978 49.4132137,26.9826286 L37.8687961,26.9824304 L37.8661988,26.9932474 L37.8261073,26.9824304 L30.9648529,26.9824304 L30.9252012,26.9932474 L30.9221641,26.9824304 L18.2704702,26.9829537 C18.1538206,27.6635057 17.9786041,28.3389441 17.7389553,29.030268 C16.9097544,31.4222945 16.4313209,32.2962127 14.6660643,34.2265942 L14.1969937,34.7326892 C6.82220757,40.3839822 2.72592223,47.3651103 1.71921517,55.7578931 L1.6403223,56.4676689 C0.61791418,66.4540028 2.82755541,77.2356826 8.89403233,84.5088232 C14.3743861,91.0792568 22.501622,94.7195919 33.8104777,94.7195919 C34.2640914,94.7195919 34.7125947,94.7137165 35.156021,94.7020122 C35.460066,95.0227312 35.7735167,95.3352484 36.0959812,95.638284 C35.3480255,95.6728756 34.5863848,95.6897919 33.8104777,95.6897919 C22.2195473,95.6897919 13.8176004,91.9264088 8.14898254,85.1302642 C1.89001841,77.6263493 -0.371459024,66.5917409 0.675612643,56.3646848 L0.755435385,55.6465435 C1.7942935,46.9855625 6.02795085,39.7703169 13.5472945,34.0166532 C15.3916991,32.0404673 15.8914561,31.2963545 16.6246657,29.2714419 L16.8222711,28.7124975 C17.1333814,27.8150259 17.3273387,26.9466121 17.4185453,26.0497038 L17.4172,26.0132 C17.5329913,24.8880484 17.4827455,23.7172834 17.299828,22.3873361 L17.2597851,22.1486064 L17.2001207,21.8720257 C16.8759216,20.4930945 15.9111323,17.879753 14.3110091,14.060765 L13.4504112,12.0331952 C12.9449959,10.7463871 12.8513462,9.19101495 13.2639405,7.38480594 C13.8137887,4.922667 15.5967934,2.85189015 18.8010596,1.34287157 C21.5008735,0.161814082 24.5125021,0.481635191 27.8914045,2.57916869 L28.2092543,2.78102905 L28.5208933,2.53723029 C29.9684822,1.42845295 31.3230688,0.724934924 32.6338739,0.424864265 L33.0698072,0.385297481 L33.4674012,0.354608293 C34.0107181,0.317719511 34.3272899,0.321161027 34.5803136,0.353833175 Z M55.9646361,67.7318 L57.7086561,68.5824154 L53.4708022,77.2698362 L58.1656,77.2699676 L58.1656,79.2103676 L52.3434298,79.2102362 L52.3434298,82.1208362 L58.1656,82.1209676 L58.1656,84.0613676 L52.3434298,84.0612362 L52.3444,90.8527676 L50.404,90.8527676 L50.4030298,84.0612362 L44.5828,84.0613676 L44.5828,82.1209676 L50.4030298,82.1208362 L50.4030298,79.2102362 L44.5828,79.2103676 L44.5828,77.2699676 L49.2766276,77.2698362 L45.0397439,68.5824154 L46.7837639,67.7318 L51.3742,77.1417698 L55.9646361,67.7318 Z M33.4963859,1.32250033 L32.7896467,1.38032336 C31.5303485,1.6722935 30.11346,2.46169462 28.5475914,3.75620678 L28.2677065,3.98758919 L27.9668454,3.78422759 C24.5990631,1.50783693 21.7328979,1.11928534 19.2021854,2.22616324 C16.270756,3.60688162 14.6923466,5.44004199 14.210297,7.59856251 C13.8395837,9.22145251 13.9212714,10.5781553 14.3476689,11.6644337 L15.0549236,13.3265328 L15.7283205,14.9440991 C17.2603708,18.6730018 18.1017083,21.0971189 18.2609798,22.2551418 C18.4487531,23.620395 18.5037912,24.8385388 18.3971677,26.013134 L30.6621505,26.0122304 L28.6652451,18.5589763 L29.6023863,18.3078701 L31.6663075,26.0122304 L37.1246527,26.0122304 L40.1934386,14.5593051 L41.1305799,14.8104114 L38.1288097,26.0122304 L49.2850789,26.0120046 C49.1498359,24.7051657 49.1701508,23.4284252 49.3479156,22.181023 C49.5424475,20.8159631 50.6568069,17.7553905 52.6993433,12.9520864 L53.24503,11.67851 C53.6772126,10.5781553 53.7589003,9.22145251 53.3876677,7.59626349 C52.9042607,5.43163814 51.3130129,3.60016976 48.3084687,2.18630894 C45.8560788,1.11523126 42.9834575,1.51862709 39.6316387,3.78422759 C39.5889066,3.81311155 39.5450855,3.84748952 39.496796,3.88963928 L39.1471008,4.19487285 L38.6212882,3.64618504 C37.2753927,2.2709028 36.3836228,1.74890524 34.5635661,1.33278157 L34.5073663,1.32350408 C34.3091706,1.29139448 34.0375607,1.28567703 33.4963859,1.32250033 Z" id="形状结合" fill="url(#linearGradient-7)" fill-rule="nonzero"></path>
                </g>
            </g>
        </g>
        <g id="底层能力支持" transform="translate(690.000000, 0.000000)">
            <rect id="矩形备份-4" fill="#9B9B9B" opacity="0" x="0" y="0" width="120" height="120"></rect>
            <g id="编组-13" transform="translate(7.000000, 16.000000)">
                <g id="编组-9" transform="translate(4.000000, 4.000000)">
                    <path d="M83.4548453,0.704 L92.9024,26.0141157 L92.9032646,46.215481 C89.616405,44.2012014 85.7502091,43.04 81.6128,43.04 C69.6622417,43.04 59.9744,52.7278417 59.9744,64.6784 C59.9744,68.8158091 61.1356014,72.682005 63.149881,75.9688646 L0.704,75.968 L0.704,26.0141157 L10.1515547,0.704 L83.4548453,0.704 Z" id="形状结合" fill="url(#linearGradient-8)" fill-rule="nonzero" opacity="0.2"></path>
                    <g id="编组-11" transform="translate(9.171200, 33.632000)" fill="#FFFFFF">
                        <path d="M12.55968,23.9503577 C12.08928,24.4207577 11.47776,24.6559577 10.86624,24.6559577 C10.25472,24.6559577 9.6432,24.4207577 9.1728,23.9503577 L0.7056,15.4831577 C-0.2352,14.5423577 -0.2352,13.0370777 0.7056,12.1433177 L9.1728,3.67611769 C9.59616,3.25275769 10.20768,2.97051769 10.86624,2.97051769 C11.5248,2.97051769 12.08928,3.20571769 12.55968,3.67611769 C12.98304,4.09947769 13.26528,4.71099769 13.26528,5.36955769 C13.26528,5.98107769 13.03008,6.59259769 12.55968,7.06299769 L5.78592,13.8367577 L12.55968,20.6105177 C13.45344,21.5042777 13.45344,23.0095577 12.55968,23.9503577 Z" id="路径"></path>
                        <path d="M26.5776,3.11163769 L19.85088,25.8789977 C19.56864,26.8668377 18.62784,27.5724377 17.54592,27.5724377 C17.31072,27.5724377 17.07552,27.5253977 16.84032,27.4783577 C16.2288,27.2901977 15.71136,26.8668377 15.42912,26.3023577 C15.14688,25.7378777 15.0528,25.0793177 15.24096,24.4677977 L22.01472,1.70043769 C22.39104,0.430357686 23.70816,-0.275242314 24.97824,0.101077686 C25.58976,0.289237686 26.1072,0.712597686 26.38944,1.27707769 C26.67168,1.84155769 26.76576,2.50011769 26.5776,3.11163769 L26.5776,3.11163769 Z" id="路径"></path>
                        <path d="M42.71232,15.4831577 L34.24512,23.9503577 C33.77472,24.4207577 33.1632,24.6559577 32.55168,24.6559577 C31.94016,24.6559577 31.32864,24.4207577 30.85824,23.9503577 C29.91744,23.0095577 29.91744,21.5042777 30.85824,20.6105177 L37.632,13.8367577 L30.85824,7.06299769 C30.43488,6.63963769 30.15264,6.02811769 30.15264,5.36955769 C30.15264,4.75803769 30.38784,4.14651769 30.85824,3.67611769 C31.2816,3.25275769 31.89312,2.97051769 32.55168,2.97051769 C33.1632,2.97051769 33.77472,3.20571769 34.24512,3.67611769 L42.71232,12.1433177 C43.65312,13.0370777 43.65312,14.5423577 42.71232,15.4831577 Z" id="路径"></path>
                    </g>
                </g>
                <g id="编组-12" transform="translate(65.856000, 48.921600)">
                    <g id="主要元素" fill="#FFFFFF">
                        <g id="椭圆形">
                            <circle cx="19.7568" cy="19.7568" r="19.7568"></circle>
                        </g>
                    </g>
                    <g id="编组-10" transform="translate(11.289600, 8.467200)"></g>
                </g>
                <path d="M85.6128,48.9216 C96.5241793,48.9216 105.3696,57.7670207 105.3696,68.6784 C105.3696,79.5897793 96.5241793,88.4352 85.6128,88.4352 C74.7014207,88.4352 65.856,79.5897793 65.856,68.6784 C65.856,57.7670207 74.7014207,48.9216 85.6128,48.9216 Z M85.6128,50.8032 C75.7405996,50.8032 67.7376,58.8061996 67.7376,68.6784 C67.7376,78.5506004 75.7405996,86.5536 85.6128,86.5536 C95.4850004,86.5536 103.488,78.5506004 103.488,68.6784 C103.488,58.8061996 95.4850004,50.8032 85.6128,50.8032 Z M101.6064,84.672 L100.186722,84.6730061 L100.187,84.672 L101.6064,84.672 Z M90.72,-2.84217094e-14 L101.6064,29.1648 L101.607406,54.1044785 C101.303638,53.7712904 100.9896,53.4476289 100.665792,53.1339946 L100.6656,30.1056 L0.9398592,30.1056 L0.9398592,83.7312 L70.0683946,83.731392 C70.3820213,84.0551924 70.7056748,84.3692233 71.0388544,84.6729841 L-7.10542736e-15,84.672 L-7.10542736e-15,29.1648 L10.8864,-2.84217094e-14 L90.72,-2.84217094e-14 Z M101.607406,83.2523215 L101.606,84.051 L101.606945,83.2528275 C101.607099,83.2526588 101.607252,83.2524902 101.607406,83.2523215 Z M86.0832,57.3888 L95.0208,67.7376 L89.376,67.7376 L89.376,79.968 L82.7904,79.968 L82.7904,67.7376 L77.1456,67.7376 L86.0832,57.3888 Z M86.0832,60.2675375 L81.2568005,65.856 L84.6716,65.8558 L84.672,78.0864 L87.4944,78.0864 L87.4936,65.8558 L90.9095995,65.856 L86.0832,60.2675375 Z M94.6322496,13.1712 L6.9732096,13.1712 L1.0028928,29.1648 L100.602566,29.1648 L94.6322496,13.1712 Z M90.0669691,0.9408 L11.5394309,0.9408 L7.324128,12.2304 L94.2813312,12.2304 L90.0669691,0.9408 Z" id="形状结合" fill="url(#linearGradient-9)" fill-rule="nonzero"></path>
            </g>
        </g>
        <g id="高效调度系统" transform="translate(10.000000, 0.000000)">
            <rect id="底色" fill="#9B9B9B" opacity="0" x="0" y="0" width="120" height="120"></rect>
            <g transform="translate(4.000000, 16.000000)">
                <path d="M103,5 C103.552285,5 104,5.44771525 104,6 L104.000964,48.0243641 C100.302618,45.4856167 95.824801,44 91,44 C78.2974508,44 68,54.2974508 68,67 C68,71.824801 69.4856167,76.3026177 72.0243641,80.0009641 L6,80 C5.44771525,80 5,79.5522847 5,79 L5,6 C5,5.44771525 5.44771525,5 6,5 L103,5 Z" id="面" fill="url(#linearGradient-4)" fill-rule="nonzero" opacity="0.2"></path>
                <path d="M72.0000213,9 C76.9706936,9 81.0000106,13.1448649 81.0000106,18.2577932 C81.0014652,19.6302759 80.7048566,20.9841428 80.1337205,22.2210639 L79.9711673,22.5554327 L77.0194961,27.533132 C79.4189261,29.1513553 81,31.8945414 81,35.0000569 C81,39.9626021 76.9624881,44 71.9999426,44 C70.0900518,44 68.3172199,43.402016 66.8588283,42.3834493 L39.1706912,60.4444034 C38.6167172,60.8068951 37.9669702,60.9999994 37.3025483,60.9999994 C37.1840711,60.9999994 37.065842,60.9938873 36.9483652,60.9817642 C36.8265547,60.9940181 36.7030997,61.0001262 36.5790211,60.9999993 C35.6177705,60.9999993 34.6612636,60.6290163 33.9752676,59.9027348 L20.808,45.961 L13.1243906,54.845466 C12.4634686,55.6093888 11.5390025,55.9999993 10.6099676,55.9999993 C10.5108763,56.0001055 10.4121964,55.9957301 10.3141961,55.9869756 C10.2039986,55.9951944 10.0917818,55.9999987 9.97827982,55.9999987 L5,55.999 L5,49.998 L8.421,49.999 L17.8024387,39.1544767 C18.5416598,38.2999377 19.610651,37.9126058 20.6471353,38.0165113 L20.706026,38.0102007 C21.7575318,37.9322632 22.8340405,38.3015013 23.585708,39.0973718 L37.301,53.62 L63.1701272,36.7467784 C63.0585192,36.1815684 63,35.5975175 63,35.0000569 C63,31.8945414 64.581029,29.1513553 66.9804254,27.533132 L64.0288646,22.5554327 C63.3515675,21.2301465 62.9984345,19.7550471 63.0000213,18.2577932 C63.0000213,13.1448649 67.0294685,9 72.0000213,9 Z M69.3282311,31.4938269 C68.2724907,32.3002681 67.5901681,33.5719718 67.5901681,35.0000569 C67.5901681,37.4316983 69.5684158,39.4098311 71.9999426,39.4098311 C74.4314694,39.4098311 76.4098319,37.4316983 76.4098319,35.0000569 C76.4098319,33.5724303 75.7279078,32.3010846 74.6727133,31.4946038 L72.0000213,36 L69.3282311,31.4938269 Z M72.000016,12.375 C68.893352,12.375 66.3750193,14.8934773 66.3750193,18 C66.3750193,21.1066658 68.8934951,23.625 72.000016,23.625 C75.1066799,23.625 77.6250126,21.1066658 77.6250126,18 C77.6250126,14.8933342 75.1066799,12.375 72.000016,12.375 Z M72.5767592,14.4465741 C73.8462862,14.6526229 74.9094509,15.5202991 75.3657694,16.7227574 C75.8220879,17.9252156 75.6022346,19.279774 74.7890261,20.2761834 C73.9758176,21.2725927 72.6927996,21.7594748 71.4232726,21.5534259 C70.1537456,21.347377 69.0905809,20.4797008 68.6342625,19.2772426 C68.177944,18.0747843 68.3977973,16.720226 69.2110058,15.7238167 C70.0242143,14.7274073 71.3072322,14.2405252 72.5767592,14.4465741 Z" id="白色辅助" fill="#FFFFFF" fill-rule="nonzero"></path>
                <g id="主要元素">
                    <circle id="椭圆形" fill="#FFFFFF" cx="91" cy="67" r="21"></circle>
                    <path d="M91,46 C102.59798,46 112,55.4020203 112,67 C112,78.5979797 102.59798,88 91,88 C79.4020203,88 70,78.5979797 70,67 C70,55.4020203 79.4020203,46 91,46 Z M91,48 C80.5065898,48 72,56.5065898 72,67 C72,77.4934102 80.5065898,86 91,86 C101.49341,86 110,77.4934102 110,67 C110,56.5065898 101.49341,48 91,48 Z M107,0 C107.552285,-1.01453063e-16 108,0.44771525 108,1 L108.000718,51.5086262 C107.686618,51.1641207 107.362187,50.8291975 107.027916,50.5043467 L107.027027,1.98823529 C107.027027,1.43595054 106.579312,0.988235294 106.027027,0.988235294 L1.97297297,0.988235294 C1.46013713,0.988235294 1.03746581,1.37427548 0.979700704,1.87161417 L0.972972973,1.98823529 L0.972972973,82.0117647 C0.972972973,82.5246005 1.35901316,82.9472719 1.85635185,83.005037 L1.97297297,83.0117647 L74.4887264,83.0118276 C74.8184583,83.3517794 75.1585961,83.6815807 75.5086262,84.0007177 L1,84 C0.44771525,84 -7.03779198e-15,83.5522847 -7.10542736e-15,83 L-7.10542736e-15,1 C-7.17306273e-15,0.44771525 0.44771525,1.01453063e-16 1,0 L107,0 Z M95,71 L95,78 L93,78 L93,71 L95,71 Z M88,71 L88,78 L86,78 L86,71 L88,71 Z M83,60 C85.7614237,60 88,62.2385763 88,65 C88,65.7113108 87.8514665,66.3879297 87.5837237,67.0005324 L85.2353163,67.0008825 C85.7108261,66.4700206 86,65.7687804 86,65 C86,63.3431458 84.6568542,62 83,62 C81.3431458,62 80,63.3431458 80,65 C80,66.5976809 81.24892,67.9036609 82.8237272,67.9949073 L83,68 L99.999,68 L100,65.9404907 L103.016387,69 L100,72.0032967 L99.999,70 L83,70 C80.2385763,70 78,67.7614237 78,65 C78,62.2385763 80.2385763,60 83,60 Z M94,55 L97,60 L95,60 L95,67 L93,67 L93,60 L91,60 L94,55 Z" id="形状结合" fill="url(#linearGradient-5)" fill-rule="nonzero"></path>
                </g>
                <g id="线框"></g>
            </g>
        </g>
        <path d="M35.37,130.042 L34.264,130.238 C34.432,130.56 34.6,130.91 34.74,131.302 L29,131.302 L29,132.226 L41.362,132.226 L41.362,131.302 L35.818,131.302 C35.678,130.84 35.524,130.42 35.37,130.042 Z M39.122,142.922 C40.144,142.922 40.662,142.474 40.662,141.592 L40.662,136.692 L29.714,136.692 L29.714,142.964 L30.68,142.964 L30.68,137.574 L39.696,137.574 L39.696,141.382 C39.696,141.83 39.402,142.054 38.828,142.054 L37.708,142.012 L37.946,142.922 L39.122,142.922 Z M31.282,133.136 L31.282,135.852 L39.108,135.852 L39.108,133.136 L31.282,133.136 Z M38.128,135.068 L32.262,135.068 L32.262,133.92 L38.128,133.92 L38.128,135.068 Z M32.444,138.47 L32.444,141.27 L37.946,141.27 L37.946,138.47 L32.444,138.47 Z M37.05,140.514 L33.354,140.514 L33.354,139.226 L37.05,139.226 L37.05,140.514 Z M44.778,133.22 C44.204,134.466 43.518,135.53 42.734,136.412 L43.546,137 C44.344,136.048 45.044,134.942 45.646,133.654 L44.778,133.22 Z M48.46,135.824 L49.118,135.152 C48.376,134.256 47.732,133.584 47.172,133.136 L46.556,133.738 C47.186,134.326 47.816,135.012 48.46,135.824 Z M44.722,136.664 L44.092,137.378 C44.68,137.854 45.282,138.386 45.87,138.974 C45.044,140.248 43.98,141.242 42.678,141.956 L43.294,142.852 C44.638,142.082 45.73,141.032 46.598,139.716 C47.074,140.22 47.578,140.766 48.082,141.368 L48.796,140.57 C48.264,139.954 47.704,139.366 47.116,138.792 C47.494,138.064 47.816,137.252 48.068,136.384 L47.2,136.02 C46.976,136.748 46.696,137.434 46.374,138.078 C45.842,137.588 45.296,137.112 44.722,136.664 Z M46.164,130.028 L45.114,130.196 C45.366,130.63 45.604,131.106 45.814,131.61 L42.944,131.61 L42.944,132.576 L49.426,132.576 L49.426,131.61 L46.794,131.61 C46.584,131.022 46.374,130.504 46.164,130.028 Z M51.274,133.374 L53.36,133.374 C53.304,135.152 52.926,136.72 52.254,138.092 C51.722,137.028 51.288,135.782 50.952,134.354 C51.064,134.046 51.162,133.71 51.274,133.374 Z M51.708,139.044 C50.882,140.29 49.72,141.298 48.236,142.082 L48.81,142.992 C50.21,142.194 51.358,141.186 52.24,139.982 C53.024,141.242 53.976,142.236 55.096,142.95 L55.684,142.068 C54.564,141.382 53.598,140.388 52.8,139.1 C53.71,137.504 54.2,135.6 54.284,133.374 L55.474,133.374 L55.474,132.394 L51.54,132.394 C51.694,131.722 51.834,131.008 51.946,130.224 L50.938,130.056 C50.602,132.674 49.93,134.746 48.95,136.286 L49.594,137.056 C49.874,136.636 50.154,136.188 50.406,135.684 C50.756,136.916 51.19,138.036 51.708,139.044 Z M63.188,133.248 L63.188,134.074 L64.798,134.074 L64.798,135.39 L62.964,135.39 L62.964,136.23 L67.612,136.23 L67.612,135.39 L65.75,135.39 L65.75,134.074 L67.374,134.074 L67.374,133.248 L65.75,133.248 L65.75,132.142 L64.798,132.142 L64.798,133.248 L63.188,133.248 Z M63.412,137.224 L63.412,140.794 L67.136,140.794 L67.136,137.224 L63.412,137.224 Z M66.268,139.968 L64.28,139.968 L64.28,138.064 L66.268,138.064 L66.268,139.968 Z M69.082,130.686 L61.508,130.686 L61.508,138.414 C61.48,139.968 61.144,141.256 60.472,142.278 L61.214,142.964 C62.026,141.788 62.432,140.248 62.46,138.358 L62.46,131.596 L68.13,131.596 L68.13,141.312 C68.13,141.774 67.92,142.012 67.528,142.012 C67.136,142.012 66.702,141.998 66.24,141.97 L66.478,142.894 L67.822,142.894 C68.662,142.894 69.082,142.474 69.082,141.648 L69.082,130.686 Z M58.484,130.294 L57.784,130.98 C58.722,131.722 59.464,132.422 60.024,133.094 L60.71,132.394 C60.108,131.694 59.366,130.994 58.484,130.294 Z M56.776,134.41 L56.776,135.376 L58.722,135.376 L58.722,140.668 C58.722,140.892 58.61,141.074 58.414,141.242 L58.806,142.138 C59.59,141.578 60.318,140.948 61.004,140.248 L60.752,139.254 C60.388,139.618 60.038,139.94 59.702,140.248 L59.702,134.41 L56.776,134.41 Z M73.842,137.826 L73.842,138.694 L74.696,138.694 C75.34,139.576 76.194,140.346 77.23,140.99 C75.97,141.522 74.514,141.9 72.89,142.138 L73.324,143.02 C75.172,142.712 76.81,142.208 78.224,141.536 C79.554,142.208 81.192,142.698 83.124,143.02 L83.558,142.152 C81.892,141.928 80.436,141.55 79.176,141.018 C80.31,140.346 81.262,139.52 82.046,138.568 L82.046,137.826 L73.842,137.826 Z M75.76,138.694 L80.73,138.694 C80.002,139.408 79.148,140.024 78.168,140.542 C77.202,140.038 76.404,139.422 75.76,138.694 Z M73.03,134.69 L75.382,134.69 L75.382,136.874 L81.052,136.874 L81.052,134.69 L83.208,134.69 L83.208,133.766 L81.052,133.766 L81.052,132.618 L80.072,132.618 L80.072,133.766 L76.362,133.766 L76.362,132.632 L75.382,132.632 L75.382,133.766 L73.03,133.766 L73.03,132.17 L83.236,132.17 L83.236,131.218 L78.434,131.218 C78.28,130.798 78.112,130.406 77.944,130.056 L76.88,130.224 C77.076,130.532 77.244,130.854 77.412,131.218 L72.022,131.218 L72.022,135.782 C71.994,138.54 71.574,140.696 70.762,142.25 L71.518,142.922 C72.47,141.13 72.974,138.75 73.03,135.782 L73.03,134.69 Z M76.362,134.69 L80.072,134.69 L80.072,136.02 L76.362,136.02 L76.362,134.69 Z M90.67,142.922 C91.454,142.922 91.86,142.516 91.86,141.732 L91.86,137.98 L92.8614694,137.895673 C93.6708571,137.824857 94.418,137.752 95.108,137.672 C95.444,138.162 95.752,138.638 96.018,139.114 L96.83,138.54 C96.214,137.546 95.332,136.384 94.184,135.04 L93.428,135.502 C93.806,135.95 94.17,136.412 94.52,136.86 C92.896,137.056 90.936,137.21 88.654,137.336 C90.418,136.412 92.476,134.914 94.842,132.828 L93.918,132.366 C93.246,132.968 92.602,133.528 91.972,134.032 C90.824,134.13 89.69,134.214 88.57,134.27 C89.466,133.682 90.348,132.898 91.216,131.89 C93.204,131.736 94.912,131.484 96.368,131.148 L95.878,130.294 C93.218,130.882 89.872,131.176 85.854,131.176 L86.148,132.058 C87.492,132.058 88.752,132.03 89.942,131.974 C88.99,133.01 88.164,133.696 87.464,134.046 C87.254,134.13 87.03,134.2 86.778,134.228 L86.988,135.124 L89.02325,134.99625 C89.6795,134.9525 90.313,134.907 90.922,134.858 C89.494,135.922 88.206,136.706 87.058,137.21 C86.792,137.294 86.498,137.364 86.176,137.392 L86.456,138.288 L88.4216735,138.191388 C89.2654286,138.146 90.07,138.098 90.838,138.05 L90.838,141.48 C90.838,141.816 90.656,141.998 90.32,141.998 C89.858,141.998 89.382,141.97 88.878,141.928 L89.102,142.922 L90.67,142.922 Z M93.778,138.834 L93.106,139.478 C94.59,140.598 95.752,141.648 96.606,142.628 L97.32,141.914 C96.368,140.878 95.192,139.856 93.778,138.834 Z M88.444,138.932 C87.52,139.996 86.372,140.934 85,141.746 L85.63,142.558 C87.03,141.704 88.206,140.71 89.158,139.562 L88.444,138.932 Z M103.536,139.772 C102.248,140.416 100.75,140.92 99.042,141.298 L99.168,142.306 C100.792,141.914 102.248,141.382 103.536,140.738 L103.536,139.772 Z M101.296,130.098 C100.736,131.75 100.092,133.206 99.336,134.48 C99.196,134.676 99.056,134.802 98.888,134.872 L99.154,135.796 C99.924,135.684 100.694,135.544 101.45,135.404 C100.68,136.748 100.022,137.686 99.49,138.246 C99.364,138.358 99.21,138.47 99.028,138.554 L99.308,139.478 C100.652,139.254 102.066,138.848 103.536,138.232 L103.536,137.294 C102.542,137.728 101.562,138.064 100.582,138.316 C101.394,137.308 102.416,135.642 103.648,133.318 L102.738,132.968 L102.34775,133.738 C102.22,133.9865 102.094,134.228 101.968,134.466 C101.352,134.578 100.736,134.69 100.12,134.774 C100.848,133.71 101.562,132.282 102.262,130.49 L101.296,130.098 Z M104.012,136.244 C106.056,136.09 107.946,135.88 109.682,135.6 C109.92,135.964 110.13,136.314 110.326,136.678 L111.11,136.132 C110.592,135.208 109.85,134.144 108.898,132.926 L108.128,133.402 C108.478,133.85 108.814,134.312 109.122,134.76 C107.834,134.97 106.532,135.124 105.23,135.236 C105.706,134.676 106.252,133.794 106.868,132.576 L111.152,132.576 L111.152,131.61 L108.002,131.61 C107.806,131.022 107.596,130.476 107.386,130 L106.364,130.168 C106.588,130.602 106.798,131.078 106.994,131.61 L103.424,131.61 L103.424,132.576 L105.818,132.576 C105.062,134.032 104.46,134.928 103.984,135.278 C103.928,135.292 103.872,135.32 103.788,135.348 L104.012,136.244 Z M105.146,136.818 C105.09,138.4 104.894,139.548 104.558,140.276 C104.208,140.99 103.62,141.606 102.794,142.138 L103.438,142.936 C104.39,142.32 105.062,141.578 105.468,140.71 C105.832,139.884 106.056,138.582 106.126,136.818 L105.146,136.818 Z M110.13,142.712 L109.15,142.712 C108.31,142.712 107.89,142.306 107.89,141.494 L107.89,136.692 L108.856,136.692 L108.856,141.326 C108.856,141.62 108.954,141.774 109.178,141.802 L110.088,141.802 C110.396,141.774 110.578,141.606 110.634,141.298 C110.69,140.906 110.732,140.304 110.732,139.478 L111.6,139.786 L111.594807,140.2862 C111.572373,141.313058 111.477733,141.969067 111.32,142.236 C111.138,142.516 110.746,142.684 110.13,142.712 Z" id="高效调度系统" fill="#333333" fill-rule="nonzero"></path>
        <path d="M186.61,132.842 L186.61,133.724 L194.59,133.724 L194.59,135.04 L186.008,135.04 L186.008,135.95 L195.598,135.95 L195.598,130.602 L186.232,130.602 L186.232,131.512 L194.59,131.512 L194.59,132.842 L186.61,132.842 Z M187.632,136.986 C187.184,137.98 186.638,138.834 185.994,139.548 L186.792,140.108 C187.436,139.352 188.01,138.456 188.5,137.42 L187.632,136.986 Z M191.58,136.454 L190.572,136.454 C190.558,137.294 190.488,137.938 190.348,138.4 C189.76,140.094 187.982,141.298 185,141.998 L185.42,142.936 C188.388,142.166 190.278,140.934 191.09,139.226 C191.958,140.976 193.96,142.208 197.11,142.922 L197.516,141.998 C194.254,141.326 192.238,139.982 191.468,137.994 C191.538,137.532 191.58,137.014 191.58,136.454 Z M195.234,136.874 C194.758,137.826 194.198,138.638 193.554,139.324 L194.366,139.898 C195.038,139.17 195.612,138.302 196.116,137.294 L195.234,136.874 Z M202.332,134.144 L202.332,135.11 L206.336,135.11 L206.336,137.28 L203.27,137.28 L203.27,142.922 L204.264,142.922 L204.264,142.152 L209.514,142.152 L209.514,142.894 L210.508,142.894 L210.508,137.28 L207.358,137.28 L207.358,135.11 L211.39,135.11 L211.39,134.144 L207.358,134.144 L207.358,131.82 C208.632,131.638 209.752,131.372 210.732,131.022 L210.242,130.154 C208.226,130.84 205.678,131.19 202.626,131.19 L202.934,132.1 C204.138,132.1 205.272,132.044 206.336,131.946 L206.336,134.144 L202.332,134.144 Z M204.264,141.2 L204.264,138.232 L209.514,138.232 L209.514,141.2 L204.264,141.2 Z M199.798,130.266 L199.112,130.924 C200.12,131.596 200.918,132.212 201.492,132.8 L202.178,132.114 C201.534,131.498 200.736,130.882 199.798,130.266 Z M199.476,133.612 L198.776,134.298 C199.798,135.026 200.596,135.726 201.184,136.384 L201.884,135.684 C201.24,134.984 200.428,134.298 199.476,133.612 Z M201.128,137.336 C200.54,139.03 199.826,140.682 199.014,142.306 L200.022,142.74 C200.75,141.172 201.422,139.478 202.038,137.686 L201.128,137.336 Z M213.252,131.876 L213.252,132.856 L216.052,132.856 C215.366,134.116 214.61,135.18 213.798,136.02 L214.022,136.944 L218.684,136.944 L218.684,139.002 L213.042,139.002 L213.042,139.982 L218.684,139.982 L218.684,142.992 L219.706,142.992 L219.706,139.982 L225.012,139.982 L225.012,139.002 L219.706,139.002 L219.706,136.944 L224.018,136.944 L224.018,136.02 L219.706,136.02 L219.706,133.962 L218.684,133.962 L218.684,136.02 L215.072,136.02 C215.828,135.096 216.514,134.046 217.144,132.856 L224.774,132.856 L224.774,131.876 L217.634,131.876 C217.872,131.344 218.11,130.798 218.334,130.224 L217.326,130 C217.074,130.658 216.808,131.288 216.542,131.876 L213.252,131.876 Z M227.63,130.35 L226.944,131.008 C228.008,131.778 228.848,132.506 229.464,133.178 L230.15,132.492 C229.464,131.792 228.624,131.078 227.63,130.35 Z M227.378,133.78 L226.692,134.438 C227.7,135.18 228.47,135.88 229.03,136.538 L229.716,135.852 C229.086,135.166 228.302,134.48 227.378,133.78 Z M229.002,137.56 C228.4,139.226 227.686,140.85 226.846,142.446 L227.784,142.866 C228.554,141.312 229.254,139.66 229.87,137.896 L229.002,137.56 Z M232.754,132.856 L232.754,137.77 L235.148,137.77 L235.148,141.494 C235.148,141.844 234.98,142.026 234.672,142.026 C234.336,142.026 233.986,141.998 233.622,141.956 L233.832,142.866 L235.008,142.866 C235.736,142.866 236.114,142.488 236.114,141.732 L236.114,137.77 L238.438,137.77 L238.438,132.856 L235.708,132.856 C235.862,132.436 235.988,132.002 236.086,131.54 L239.18,131.54 L239.18,130.63 L230.78,130.63 L230.78,135.614 C230.738,138.442 230.276,140.64 229.408,142.222 L230.164,142.894 C231.172,141.074 231.704,138.638 231.76,135.614 L231.76,131.54 L235.134,131.54 C235.036,131.988 234.91,132.422 234.742,132.856 L232.754,132.856 Z M237.542,136.958 L233.65,136.958 L233.65,135.698 L237.542,135.698 L237.542,136.958 Z M233.65,134.942 L233.65,133.654 L237.542,133.654 L237.542,134.942 L233.65,134.942 Z M233.104,138.764 C232.81,139.828 232.334,140.794 231.676,141.676 L232.488,142.18 C233.132,141.27 233.636,140.192 234,138.96 L233.104,138.764 Z M237.864,138.694 L237.024,138.988 C237.556,139.912 238.06,140.962 238.508,142.166 L239.362,141.788 C238.942,140.696 238.438,139.66 237.864,138.694 Z M242.092,136.048 L242.092,140.36 L248.266,140.36 L248.266,136.048 L242.092,136.048 Z M247.3,139.464 L243.072,139.464 L243.072,136.958 L247.3,136.958 L247.3,139.464 Z M250.702,142.81 C251.654,142.81 252.13,142.306 252.13,141.312 L252.13,130.658 L241.602,130.658 L241.602,131.638 L251.122,131.638 L251.122,141.032 C251.122,141.592 250.898,141.872 250.478,141.872 L248.518,141.844 L248.77,142.81 L250.702,142.81 Z M241.042,133.416 L241.042,134.326 L249.652,134.326 L249.652,133.416 L241.042,133.416 Z M254.832,132.814 L254.832,133.78 L256.876,133.78 C256.414,135.53 255.644,137.084 254.566,138.442 L255,139.534 C255.784,138.386 256.428,137.126 256.918,135.726 L256.918,142.838 L257.926,142.838 L257.926,135.46 C258.318,136.006 258.78,136.72 259.312,137.602 L259.9,136.734 C259.228,135.908 258.57,135.166 257.926,134.494 L257.926,133.78 L259.662,133.78 L259.662,132.814 L257.926,132.814 L257.926,130.084 L256.918,130.084 L256.918,132.814 L254.832,132.814 Z M259.004,142.222 L259.83,142.964 C260.488,141.956 260.936,140.92 261.174,139.828 C261.426,138.792 261.552,137.504 261.552,135.964 L261.552,131.61 L264.044,131.61 L264.044,141.354 C264.044,142.166 264.492,142.572 265.388,142.572 L265.962,142.572 C266.41,142.572 266.746,142.488 266.97,142.334 C267.194,142.138 267.334,141.802 267.39,141.298 C267.446,140.766 267.488,140.01 267.488,139.002 L266.564,138.708 L266.559184,139.449104 C266.547685,140.275365 266.516612,140.811012 266.477005,141.067085 L266.466,141.13 C266.438,141.326 266.368,141.452 266.256,141.536 C266.158,141.592 266.032,141.62 265.864,141.62 L265.388,141.62 C265.164,141.62 265.066,141.494 265.066,141.256 L265.066,130.658 L260.544,130.658 L260.544,135.964 C260.544,137.406 260.446,138.554 260.264,139.408 C260.026,140.402 259.606,141.34 259.004,142.222 Z M279.024,135.6 L271.03,135.6 L271.03,142.894 L272.038,142.894 L272.038,142.32 L278.674,142.32 L278.674,142.908 L279.668,142.908 L279.668,139.31 L272.038,139.31 L272.038,138.344 L279.024,138.344 L279.024,135.6 Z M272.038,141.424 L272.038,140.122 L278.674,140.122 L278.674,141.424 L272.038,141.424 Z M272.038,137.532 L272.038,136.412 L278.044,136.412 L278.044,137.532 L272.038,137.532 Z M280.956,133.906 L275.636,133.906 C275.496,133.514 275.342,133.164 275.188,132.842 L275.944,133.304 C276.252,132.884 276.546,132.436 276.798,131.96 L277.68,131.96 C278.016,132.408 278.31,132.884 278.562,133.388 L279.458,133.052 C279.29,132.716 279.052,132.352 278.758,131.96 L281.25,131.96 L281.25,131.078 L277.204,131.078 C277.316,130.798 277.414,130.518 277.512,130.224 L276.546,130.014 C276.238,131.022 275.762,131.932 275.09,132.772 L275.174,132.828 L274.194,132.996 C274.348,133.276 274.488,133.57 274.628,133.906 L269.084,133.906 L269.084,136.44 L270.064,136.44 L270.064,134.774 L279.976,134.774 L279.976,136.44 L280.956,136.44 L280.956,133.906 Z M270.764,131.96 L271.562,131.96 C271.912,132.464 272.22,132.982 272.472,133.514 L273.396,133.164 C273.2,132.786 272.934,132.38 272.626,131.96 L274.978,131.96 L274.978,131.078 L271.226,131.078 L271.46037,130.509704 C271.499778,130.412222 271.538667,130.312667 271.576,130.21 L270.61,130 C270.218,131.064 269.602,132.044 268.762,132.912 L269.644,133.472 C270.064,133.01 270.428,132.506 270.764,131.96 Z M287.844,130.63 L287.844,137.098 L290.77,137.098 L290.77,138.75 L287.606,138.75 L287.606,139.702 L290.77,139.702 L290.77,141.522 L287.018,141.522 L287.018,142.488 L295.446,142.488 L295.446,141.522 L291.778,141.522 L291.778,139.702 L294.928,139.702 L294.928,138.75 L291.778,138.75 L291.778,137.098 L294.69,137.098 L294.69,130.63 L287.844,130.63 Z M293.724,136.202 L291.778,136.202 L291.778,134.312 L293.724,134.312 L293.724,136.202 Z M290.77,136.202 L288.81,136.202 L288.81,134.312 L290.77,134.312 L290.77,136.202 Z M288.81,133.43 L288.81,131.526 L290.77,131.526 L290.77,133.43 L288.81,133.43 Z M291.778,131.526 L293.724,131.526 L293.724,133.43 L291.778,133.43 L291.778,131.526 Z M282.902,135.264 L284.428,135.264 L284.428,131.946 L282.706,131.946 L282.706,130.994 L287.172,130.994 L287.172,131.946 L285.464,131.946 L285.464,135.264 L287.004,135.264 L287.004,136.23 L285.464,136.23 L285.464,139.408 C285.996,139.226 286.5,139.03 287.004,138.806 L287.004,139.786 C285.716,140.318 284.33,140.766 282.846,141.13 L282.594,140.164 C283.21,140.052 283.826,139.912 284.428,139.744 L284.428,136.23 L282.902,136.23 L282.902,135.264 Z" id="灵活车源司机管理" fill="#333333" fill-rule="nonzero"></path>
        <path d="M372.282,134.998 L369.006,134.998 L369.006,130.112 L367.97,130.112 L367.97,134.998 L364.694,134.998 L364.694,131.176 L363.686,131.176 L363.686,135.978 L367.97,135.978 L367.97,141.116 L364.022,141.116 L364.022,137.294 L363,137.294 L363,142.866 L364.022,142.866 L364.022,142.082 L372.954,142.082 L372.954,142.866 L373.976,142.866 L373.976,137.294 L372.954,137.294 L372.954,141.116 L369.006,141.116 L369.006,135.978 L373.29,135.978 L373.29,131.176 L372.282,131.176 L372.282,134.998 Z M381.438,131.022 L381.438,132.016 L388.144,132.016 L388.144,131.022 L381.438,131.022 Z M381.06,134.578 L381.06,135.572 L385.47,135.572 L385.47,141.438 C385.47,141.802 385.232,141.984 384.784,141.984 C384.168,141.984 383.538,141.956 382.866,141.914 L383.076,142.908 L385.134,142.908 C386.03,142.908 386.492,142.502 386.492,141.69 L386.492,135.572 L388.76,135.572 L388.76,134.578 L381.06,134.578 Z M379.226,130.252 C378.568,131.568 377.518,132.744 376.062,133.78 L376.356,134.788 C378.092,133.598 379.352,132.226 380.136,130.672 L379.226,130.252 Z M379.884,133.444 C379.1,134.998 377.854,136.37 376.146,137.574 L376.44,138.582 C377.112,138.12 377.714,137.63 378.274,137.126 L378.274,142.964 L379.268,142.964 L379.268,136.104 C379.884,135.404 380.388,134.648 380.794,133.864 L379.884,133.444 Z M390.342,133.808 L390.342,134.788 L395.62,134.788 C394.892,138.232 393.044,140.696 390.062,142.166 L390.692,143.006 C393.674,141.452 395.606,138.974 396.474,135.572 C397.524,138.736 399.456,141.172 402.27,142.908 L402.9,142.096 C400.03,140.388 398.098,137.952 397.118,134.788 L402.634,134.788 L402.634,133.808 L396.824,133.808 C396.936,132.94 397.006,132.03 397.006,131.05 L397.006,130.14 L395.97,130.14 L395.97,131.274 C395.956,132.156 395.9,132.996 395.788,133.808 L390.342,133.808 Z M412.7,133.234 L414.772,133.234 C414.716,135.124 414.422,136.776 413.876,138.19 C413.316,137.014 412.868,135.6 412.518,133.962 L412.7,133.234 Z M413.414,139.198 C412.77,140.388 411.916,141.354 410.824,142.11 L411.342,142.95 C412.392,142.194 413.26,141.256 413.932,140.136 C414.632,141.312 415.472,142.264 416.452,142.964 L416.998,142.138 C415.99,141.452 415.136,140.486 414.408,139.226 C415.192,137.574 415.626,135.572 415.696,133.234 L416.606,133.234 L416.606,132.268 L412.91,132.268 L413.042608,131.502816 C413.10712,131.10768 413.1676,130.6944 413.218,130.266 L412.238,130.098 C411.958,132.758 411.398,134.872 410.572,136.44 L411.202,137.21 C411.496,136.706 411.776,136.132 412.028,135.488 C412.406,136.888 412.868,138.12 413.414,139.198 Z M406.778,136.636 C406.68,136.916 406.568,137.21 406.442,137.518 L404.398,137.518 L404.398,138.4 L406.05,138.4 C405.77,138.96 405.448,139.534 405.084,140.15 C405.77,140.402 406.414,140.668 407.03,140.934 C406.218,141.396 405.224,141.774 404.076,142.082 L404.552,142.922 C405.952,142.53 407.114,142.012 408.038,141.368 C408.864,141.732 409.578,142.11 410.194,142.474 L410.74,141.69 C410.124,141.354 409.48,141.046 408.808,140.738 C409.536,140.066 410.054,139.268 410.362,138.344 L410.362,137.518 L407.436,137.518 C407.52,137.266 407.618,137.014 407.716,136.748 L406.778,136.636 Z M407.884,140.346 C407.38,140.136 406.848,139.94 406.288,139.744 C406.568,139.324 406.82,138.876 407.044,138.4 L409.452,138.4 C409.116,139.128 408.584,139.786 407.884,140.346 Z M405.504,130.392 L404.706,130.658 C405.042,131.19 405.35,131.792 405.644,132.478 L406.372,132.142 C406.12,131.526 405.84,130.938 405.504,130.392 Z M409.76,130.35 C409.508,130.938 409.144,131.526 408.696,132.128 L409.41,132.492 C409.858,131.904 410.208,131.302 410.488,130.686 L409.76,130.35 Z M404.426,132.814 L404.426,133.696 L406.414,133.696 C405.994,134.466 405.238,135.166 404.16,135.796 L404.65,136.608 C405.854,135.796 406.694,134.844 407.156,133.738 L407.156,136.398 L408.094,136.398 L408.094,134.578 C408.598,134.914 409.2,135.362 409.9,135.922 L410.418,135.138 C409.634,134.662 408.85,134.228 408.094,133.85 L408.094,133.696 L410.642,133.696 L410.642,132.814 L408.094,132.814 L408.094,130.14 L407.156,130.14 L407.156,132.814 L404.426,132.814 Z M419.784,142.838 C420.568,142.838 420.96,142.418 420.96,141.606 L420.96,137.518 C421.394,137.322 421.828,137.126 422.262,136.902 L422.262,135.908 C421.842,136.132 421.408,136.342 420.96,136.538 L420.96,133.78 L422.304,133.78 L422.304,132.814 L420.96,132.814 L420.96,130.168 L419.98,130.168 L419.98,132.814 L418.3,132.814 L418.3,133.78 L419.98,133.78 L419.98,136.944 C419.364,137.168 418.72,137.364 418.076,137.518 L418.328,138.498 C418.874,138.33 419.42,138.134 419.98,137.924 L419.98,141.354 C419.98,141.746 419.798,141.956 419.448,141.956 C419.112,141.956 418.748,141.928 418.384,141.886 L418.594,142.838 L419.784,142.838 Z M423.97,136.65 L426.826,136.65 L426.826,138.372 L424.488,138.372 L424.488,142.964 L425.426,142.964 L425.426,142.278 L429.22,142.278 L429.22,142.964 L430.158,142.964 L430.158,138.372 L427.806,138.372 L427.806,136.65 L430.802,136.65 L430.802,135.74 L427.806,135.74 L427.806,134.088 L430.438,134.088 L430.438,130.686 L423.06,130.686 L423.06,135.068 C423.046,138.008 422.542,140.416 421.548,142.264 L422.332,142.964 C423.256,141.144 423.802,139.044 423.97,136.65 Z M426.826,134.088 L426.826,135.74 L424.026,135.74 L424.04,135.068 L424.04,135.068 L424.04,134.088 L426.826,134.088 Z M425.426,141.382 L425.426,139.268 L429.22,139.268 L429.22,141.382 L425.426,141.382 Z M429.458,131.624 L429.458,133.178 L424.04,133.178 L424.04,131.624 L429.458,131.624 Z M437.97,142.922 C438.754,142.922 439.16,142.516 439.16,141.732 L439.16,137.98 L440.161469,137.895673 C440.970857,137.824857 441.718,137.752 442.408,137.672 C442.744,138.162 443.052,138.638 443.318,139.114 L444.13,138.54 C443.514,137.546 442.632,136.384 441.484,135.04 L440.728,135.502 C441.106,135.95 441.47,136.412 441.82,136.86 C440.196,137.056 438.236,137.21 435.954,137.336 C437.718,136.412 439.776,134.914 442.142,132.828 L441.218,132.366 C440.546,132.968 439.902,133.528 439.272,134.032 C438.124,134.13 436.99,134.214 435.87,134.27 C436.766,133.682 437.648,132.898 438.516,131.89 C440.504,131.736 442.212,131.484 443.668,131.148 L443.178,130.294 C440.518,130.882 437.172,131.176 433.154,131.176 L433.448,132.058 C434.792,132.058 436.052,132.03 437.242,131.974 C436.29,133.01 435.464,133.696 434.764,134.046 C434.554,134.13 434.33,134.2 434.078,134.228 L434.288,135.124 L436.32325,134.99625 C436.9795,134.9525 437.613,134.907 438.222,134.858 C436.794,135.922 435.506,136.706 434.358,137.21 C434.092,137.294 433.798,137.364 433.476,137.392 L433.756,138.288 L435.721673,138.191388 C436.565429,138.146 437.37,138.098 438.138,138.05 L438.138,141.48 C438.138,141.816 437.956,141.998 437.62,141.998 C437.158,141.998 436.682,141.97 436.178,141.928 L436.402,142.922 L437.97,142.922 Z M441.078,138.834 L440.406,139.478 C441.89,140.598 443.052,141.648 443.906,142.628 L444.62,141.914 C443.668,140.878 442.492,139.856 441.078,138.834 Z M435.744,138.932 C434.82,139.996 433.672,140.934 432.3,141.746 L432.93,142.558 C434.33,141.704 435.506,140.71 436.458,139.562 L435.744,138.932 Z M450.836,139.772 C449.548,140.416 448.05,140.92 446.342,141.298 L446.468,142.306 C448.092,141.914 449.548,141.382 450.836,140.738 L450.836,139.772 Z M448.596,130.098 C448.036,131.75 447.392,133.206 446.636,134.48 C446.496,134.676 446.356,134.802 446.188,134.872 L446.454,135.796 C447.224,135.684 447.994,135.544 448.75,135.404 C447.98,136.748 447.322,137.686 446.79,138.246 C446.664,138.358 446.51,138.47 446.328,138.554 L446.608,139.478 C447.952,139.254 449.366,138.848 450.836,138.232 L450.836,137.294 C449.842,137.728 448.862,138.064 447.882,138.316 C448.694,137.308 449.716,135.642 450.948,133.318 L450.038,132.968 L449.64775,133.738 C449.52,133.9865 449.394,134.228 449.268,134.466 C448.652,134.578 448.036,134.69 447.42,134.774 C448.148,133.71 448.862,132.282 449.562,130.49 L448.596,130.098 Z M451.312,136.244 C453.356,136.09 455.246,135.88 456.982,135.6 C457.22,135.964 457.43,136.314 457.626,136.678 L458.41,136.132 C457.892,135.208 457.15,134.144 456.198,132.926 L455.428,133.402 C455.778,133.85 456.114,134.312 456.422,134.76 C455.134,134.97 453.832,135.124 452.53,135.236 C453.006,134.676 453.552,133.794 454.168,132.576 L458.452,132.576 L458.452,131.61 L455.302,131.61 C455.106,131.022 454.896,130.476 454.686,130 L453.664,130.168 C453.888,130.602 454.098,131.078 454.294,131.61 L450.724,131.61 L450.724,132.576 L453.118,132.576 C452.362,134.032 451.76,134.928 451.284,135.278 C451.228,135.292 451.172,135.32 451.088,135.348 L451.312,136.244 Z M452.446,136.818 C452.39,138.4 452.194,139.548 451.858,140.276 C451.508,140.99 450.92,141.606 450.094,142.138 L450.738,142.936 C451.69,142.32 452.362,141.578 452.768,140.71 C453.132,139.884 453.356,138.582 453.426,136.818 L452.446,136.818 Z M457.43,142.712 L456.45,142.712 C455.61,142.712 455.19,142.306 455.19,141.494 L455.19,136.692 L456.156,136.692 L456.156,141.326 C456.156,141.62 456.254,141.774 456.478,141.802 L457.388,141.802 C457.696,141.774 457.878,141.606 457.934,141.298 C457.99,140.906 458.032,140.304 458.032,139.478 L458.9,139.786 L458.894807,140.2862 C458.872373,141.313058 458.777733,141.969067 458.62,142.236 C458.438,142.516 458.046,142.684 457.43,142.712 Z" id="出行大数据系统" fill="#333333" fill-rule="nonzero"></path>
        <path d="M530.202,130.042 C528.55,131.988 526.492,133.612 524,134.928 L524.532,135.894 C527.024,134.494 529.04,132.856 530.566,130.952 C532.218,132.968 534.206,134.606 536.544,135.866 L537.09,134.9 C534.766,133.724 532.708,132.1 530.93,130.042 L530.202,130.042 Z M534.99,137.238 L526.142,137.238 L526.142,142.88 L527.122,142.88 L527.122,142.04 L534.01,142.04 L534.01,142.88 L534.99,142.88 L534.99,137.238 Z M527.122,141.074 L527.122,138.19 L534.01,138.19 L534.01,141.074 L527.122,141.074 Z M526.926,134.494 L526.926,135.46 L534.206,135.46 L534.206,134.494 L526.926,134.494 Z M538.56,132.086 L538.56,133.052 L540.562,133.052 L540.562,135.362 L538.364,135.362 L538.364,136.342 L540.506,136.342 C540.31,138.988 539.54,140.962 538.182,142.278 L538.924,142.936 C540.072,141.83 540.842,140.29 541.248,138.316 C541.794,138.918 542.466,139.744 543.25,140.808 L543.81,139.94 C542.998,138.988 542.186,138.134 541.402,137.392 C541.444,137.056 541.486,136.706 541.514,136.342 L543.628,136.342 L543.628,135.362 L541.57,135.362 L541.57,133.052 L543.432,133.052 L543.432,132.086 L541.57,132.086 L541.57,130.168 L540.562,130.168 L540.562,132.086 L538.56,132.086 Z M549.928,130.644 L544.258,130.644 L544.258,138.33 L545.224,138.33 L545.224,131.582 L548.962,131.582 L548.962,138.33 L549.928,138.33 L549.928,130.644 Z M549.55,142.712 C549.998,142.712 550.32,142.6 550.544,142.39 C550.768,142.138 550.936,141.438 551.02,140.29 L550.152,140.01 L550.121602,140.415935 C550.066833,141.045611 549.991,141.440333 549.886,141.592 C549.788,141.732 549.62,141.802 549.382,141.802 L548.668,141.802 C548.36,141.802 548.22,141.648 548.22,141.34 L548.22,138.4 L547.31,138.4 L547.31,141.55 C547.31,142.32 547.66,142.712 548.388,142.712 L549.55,142.712 Z M546.638,132.744 L546.638,135.222 C546.596,136.986 546.288,138.428 545.714,139.534 C545.098,140.598 544.02,141.452 542.48,142.082 L543.012,142.936 C544.58,142.278 545.728,141.368 546.428,140.22 C547.142,138.974 547.52,137.308 547.548,135.222 L547.548,132.744 L546.638,132.744 Z M556.62,130.35 C556.06,131.414 555.444,132.324 554.772,133.108 C554.002,133.99 553.134,134.704 552.182,135.25 L552.728,136.132 C553.89,135.348 554.828,134.55 555.528,133.738 C556.186,132.996 556.844,132.044 557.502,130.882 L556.62,130.35 Z M557.082,136.594 C556.788,137.91 556.354,138.974 555.766,139.786 C555.108,140.626 554.128,141.396 552.84,142.096 L553.484,142.936 C554.912,142.138 555.99,141.242 556.704,140.234 C557.306,139.338 557.768,138.12 558.104,136.594 L561.59,136.594 L561.565086,137.258121 C561.486493,139.067463 561.339474,140.262737 561.114,140.864 C560.876,141.508 560.386,141.83 559.63,141.83 C558.902,141.83 558.132,141.816 557.32,141.788 L557.6,142.782 L560.148,142.782 C560.848,142.74 561.352,142.516 561.66,142.11 C561.982,141.69 562.206,140.934 562.346,139.87 L562.411398,139.303 C562.512833,138.311333 562.577,137.086333 562.612,135.628 L554.254,135.628 L554.254,136.594 L557.082,136.594 Z M560.568,130.168 L559.7,130.658 C560.554,132.87 562.066,134.676 564.236,136.076 L564.908,135.278 C562.822,134.032 561.38,132.324 560.568,130.168 Z M571.544,130.616 L566.7,130.616 L566.7,139.408 L567.624,139.408 L567.624,131.554 L570.648,131.554 L570.648,139.408 L571.544,139.408 L571.544,130.616 Z M568.674,132.576 L568.674,137.126 C568.646,138.4 568.464,139.436 568.128,140.248 C567.764,141.018 567.106,141.634 566.182,142.096 L566.728,142.936 C567.708,142.446 568.408,141.76 568.842,140.892 C569.29,139.954 569.514,138.694 569.542,137.126 L569.542,132.576 L568.674,132.576 Z M570.018,139.8 L569.374,140.43 C570.172,141.27 570.802,142.068 571.25,142.824 L571.964,142.11 C571.446,141.354 570.802,140.584 570.018,139.8 Z M575.352,136.832 C576.024,139.436 577.032,141.424 578.348,142.768 L579.034,141.984 C577.816,140.78 576.878,139.072 576.234,136.832 L578.768,136.832 L578.768,135.852 L574.12,135.852 L574.12,130.07 L573.14,130.07 L573.14,135.852 L572.132,135.852 L572.132,136.832 L573.14,136.832 L573.14,141.536 C573.14,141.732 573.028,141.872 572.818,141.97 L573.238,142.866 C574.358,142.516 575.338,142.068 576.206,141.522 L576.024,140.626 C575.38,141.032 574.736,141.354 574.12,141.592 L574.12,136.832 L575.352,136.832 Z M577.788,130.7 C576.892,132.198 575.814,133.318 574.554,134.046 L575.1,134.83 C576.416,134.074 577.578,132.898 578.558,131.33 L577.788,130.7 Z M587.882,137.574 L589.534,137.574 L589.534,139.282 L586.482,139.282 L586.482,140.192 L589.534,140.192 L589.534,142.936 L590.514,142.936 L590.514,140.192 L592.894,140.192 L592.894,139.282 L590.514,139.282 L590.514,137.574 L592.6,137.574 L592.6,136.664 L590.514,136.664 L590.514,135.362 L589.534,135.362 L589.534,136.664 L588.246,136.664 C588.33,136.342 588.414,135.992 588.498,135.614 L587.658,135.46 C587.448,136.58 587.042,137.462 586.426,138.134 L587.014,138.848 C587.35,138.484 587.63,138.064 587.882,137.574 Z M588.456,131.792 C588.358,132.254 588.204,132.66 587.994,133.024 C587.686,133.528 587.21,133.976 586.58,134.34 L587.168,135.11 C587.882,134.634 588.428,134.088 588.792,133.5 C589.058,133.01 589.268,132.436 589.408,131.792 L591.466,131.792 L591.451089,132.23034 C591.420107,132.984568 591.369077,133.466615 591.298,133.668 C591.2,133.906 590.962,134.032 590.57,134.046 L589.366,133.976 L589.366,133.976 L589.604,134.816 L590.34992,134.860352 C590.50224,134.86752 590.6456,134.872 590.78,134.872 C591.382,134.872 591.802,134.676 592.054,134.312 C592.306,133.934 592.432,132.8 592.432,130.896 L586.594,130.896 L586.594,131.792 L588.456,131.792 Z M581.848,136.846 L583.122,136.846 L583.122,138.68 L581.834,138.68 L581.848,138.358 L581.848,138.358 L581.848,136.846 Z M581.792,139.534 L583.122,139.534 L583.122,142.698 L583.934,142.698 L583.934,139.534 L585.236,139.534 L585.236,141.48 C585.236,141.816 585.082,141.998 584.774,141.998 C584.55,141.998 584.298,141.97 584.032,141.942 L584.27,142.782 L585.068,142.782 C585.74,142.782 586.09,142.446 586.09,141.788 L586.09,133.388 L584.41,133.388 C584.718,132.954 585.04,132.422 585.348,131.806 L585.348,131.106 L582.856,131.106 L583.09037,130.516963 C583.129778,130.415333 583.168667,130.312667 583.206,130.21 L582.296,130 C581.75,131.456 581.064,132.632 580.224,133.528 L580.84,134.27 C580.882,134.214 580.924,134.172 580.98,134.116 L580.98,138.414 C580.966,140.01 580.686,141.34 580.154,142.376 L580.84,143.006 C581.344,142.082 581.666,140.92 581.792,139.534 Z M583.388,133.388 L581.568,133.388 C581.876,132.94 582.184,132.464 582.464,131.932 L584.284,131.932 C583.976,132.478 583.682,132.968 583.388,133.388 Z M585.236,138.68 L583.934,138.68 L583.934,136.846 L585.236,136.846 L585.236,138.68 Z M585.236,136.006 L583.934,136.006 L583.934,134.256 L585.236,134.256 L585.236,136.006 Z M583.122,134.256 L583.122,136.006 L581.848,136.006 L581.848,134.256 L583.122,134.256 Z M598.578,132.156 L598.578,133.122 L601.406,133.122 L601.406,134.284 C601.392,134.984 601.336,135.642 601.238,136.272 L598.004,136.272 L598.004,137.224 L601.028,137.224 C600.44,139.45 599.096,141.06 596.996,142.04 L597.64,142.88 C599.824,141.76 601.266,139.996 601.938,137.588 C602.848,139.702 604.318,141.452 606.362,142.838 L607.034,142.068 C605.018,140.85 603.562,139.24 602.666,137.224 L606.824,137.224 L606.824,136.272 L605.578,136.272 L605.578,132.156 L602.372,132.156 L602.372,130.07 L601.406,130.07 L601.406,132.156 L598.578,132.156 Z M602.372,133.122 L604.598,133.122 L604.598,136.272 L602.218,136.272 C602.316,135.572 602.372,134.844 602.372,134.06 L602.372,133.122 Z M595.162,130.532 L594.336,131.05 C595.246,132.254 595.96,133.332 596.492,134.312 L597.318,133.738 C596.814,132.814 596.1,131.75 595.162,130.532 Z M596.59,136.328 C595.932,138.288 595.148,140.22 594.252,142.096 L595.204,142.516 C596.044,140.696 596.8,138.75 597.472,136.678 L596.59,136.328 Z M608.476,132.128 L608.476,133.094 L612.382,133.094 L612.355037,133.846044 C612.340346,134.208815 612.321333,134.634 612.298,135.124 C612.228,136.454 611.962,137.658 611.486,138.736 C610.996,139.814 610.002,140.976 608.518,142.236 L609.246,142.936 C610.478,141.942 611.43,140.85 612.116,139.646 C612.62,138.722 612.97,137.7 613.152,136.566 L618.052,136.566 L618.029545,137.820113 C618.00191,139.05955 617.962235,139.910353 617.898,140.36 C617.73,141.34 617.296,141.844 616.582,141.872 L615.889184,141.864286 C615.552857,141.857429 615.178,141.846 614.762,141.83 L615.07,142.74 L615.938,142.7785 C616.2075,142.789 616.456,142.796 616.68,142.796 C617.786,142.754 618.472,142.138 618.752,140.948 C618.934,140.164 619.046,138.386 619.074,135.614 L613.264,135.614 L613.39,133.094 L620.768,133.094 L620.768,132.128 L615.532,132.128 C615.196,131.302 614.832,130.588 614.44,130 L613.488,130.35 C613.894,130.91 614.23,131.512 614.51,132.128 L608.476,132.128 Z M627.614,132.296 C627.334,132.688 627.026,133.094 626.704,133.5 L623.008,133.5 L623.008,134.312 L626.046,134.312 L624.996,135.516 L624.996,135.516 C625.962,135.698 626.928,135.908 627.908,136.16 C626.676,136.552 624.996,136.748 622.868,136.748 L623.414,137.574 C625.794,137.546 627.712,137.182 629.182,136.496 C630.596,136.874 632.01,137.308 633.41,137.812 L633.998,137.042 C632.696,136.608 631.422,136.23 630.19,135.922 C630.764,135.502 631.296,134.97 631.8,134.312 L634.152,134.312 L634.152,133.5 L627.81,133.5 L628.524,132.562 L628.524,132.562 L627.614,132.296 Z M629.07,135.642 C628.188,135.418 627.32,135.236 626.466,135.096 L626.80025,134.73025 C626.9175,134.599 627.04,134.459 627.166,134.312 L630.722,134.312 C630.302,134.816 629.742,135.25 629.07,135.642 Z M634.194,131.162 L629.112,131.162 C628.944,130.742 628.776,130.35 628.58,130 L627.53,130.168 C627.74,130.476 627.936,130.798 628.118,131.162 L622.938,131.162 L622.938,133.136 L623.89,133.136 L623.89,132.016 L633.242,132.016 L633.242,133.136 L634.194,133.136 L634.194,131.162 Z M622.574,138.386 L628.076,138.386 L628.076,137.294 L629.112,137.294 L629.112,138.386 L634.572,138.386 L634.572,139.282 L630.022,139.282 C631.03,140.248 632.612,141.018 634.754,141.592 L634.32,142.474 C631.884,141.676 630.148,140.626 629.112,139.338 L629.112,142.866 L628.076,142.866 L628.076,139.296 C627.18,140.556 625.472,141.648 622.952,142.572 L622.392,141.676 C624.716,140.976 626.312,140.178 627.18,139.282 L622.574,139.282 L622.574,138.386 Z" id="合规分账解决方案" fill="#333333" fill-rule="nonzero"></path>
        <path d="M704.786,130 L704.142,130.616 C704.856,131.162 705.416,131.68 705.836,132.184 L703.218,132.184 C703.19,131.512 703.176,130.798 703.176,130.014 L702.14,130.014 C702.14,130.77 702.154,131.484 702.182,132.184 L696.4,132.184 L696.4,136.846 C696.358,139.128 695.896,140.906 695,142.194 L695.77,142.88 C696.806,141.368 697.366,139.352 697.422,136.846 L697.422,136.426 L699.844,136.426 L699.818082,137.544507 C699.790613,138.465769 699.7516,139.100933 699.69,139.45 C699.606,139.842 699.41,140.052 699.102,140.066 L698.60808,140.05928 C698.34096,140.05256 698.0436,140.0408 697.716,140.024 L698.024,140.934 L698.778992,140.978352 C698.934,140.98552 699.0796,140.99 699.214,140.99 C699.914,140.962 700.348,140.654 700.53,140.052 L700.582486,139.821 C700.73356,139.0524 700.8268,137.6034 700.852,135.474 L697.422,135.474 L697.422,133.15 L702.224,133.15 C702.336,134.9 702.532,136.37 702.84,137.546 C702.994,138.148 703.176,138.708 703.372,139.226 C702.406,140.444 701.216,141.368 699.816,141.998 L700.376,142.838 C701.692,142.25 702.84,141.396 703.82,140.248 C704.03,140.682 704.268,141.074 704.52,141.41 C705.192,142.25 705.822,142.67 706.41,142.67 C707.04,142.67 707.516,141.732 707.852,139.87 L706.942,139.366 L706.870982,139.820222 C706.678938,140.960963 706.466,141.537556 706.242,141.55 C705.962,141.55 705.584,141.214 705.122,140.542 C704.898,140.22 704.688,139.828 704.492,139.38 C705.388,138.12 706.116,136.552 706.676,134.704 L705.766,134.312 C705.332,135.81 704.772,137.126 704.072,138.246 C703.974,137.938 703.876,137.616 703.792,137.266 C703.54,136.258 703.358,134.886 703.26,133.15 L707.572,133.15 L707.572,132.184 L705.864,132.184 L706.508,131.54 C706.032,131.022 705.458,130.504 704.786,130 Z M709.896,132.366 L709.896,134.662 L714.628,134.662 L714.628,132.366 L709.896,132.366 Z M713.704,133.99 L710.806,133.99 L710.806,133.024 L713.704,133.024 L713.704,133.99 Z M714.964,137.658 L714.964,136.888 L714.1912,137.004704 C713.788,137.06216 713.3596,137.1176 712.906,137.168 L712.906,136.762 L714.488,135.908 L714.488,135.264 L709.574,135.264 L709.574,136.034 L713.172,136.034 L711.94,136.678 L711.94,137.252 L711.015481,137.317333 C710.379778,137.357778 709.704667,137.392 708.986,137.42 L709.112,138.204 L710.118963,138.143852 C710.770222,138.101333 711.38,138.054667 711.94,138.008 L711.94,138.624 C711.94,138.932 711.744,139.086 711.38,139.086 C711.114,139.086 710.75,139.058 710.288,139.002 L710.526,139.87 L711.688,139.87 C712.5,139.87 712.906,139.534 712.906,138.862 L712.906,137.924 L713.666667,137.83637 C714.148889,137.776222 714.581333,137.714 714.964,137.658 Z M720.69,139.366 C720.956,139.338 721.18,139.212 721.348,138.974 C721.558,138.638 721.726,137.966 721.866,136.958 L721.082,136.594 L721.034,137.027388 C720.994,137.359429 720.954,137.618 720.914,137.798 C720.844,138.092 720.746,138.246 720.606,138.274 C720.466,138.26 720.354,137.994 720.256,137.476 C720.186,136.972 720.158,136.286 720.158,135.404 C720.158,134.382 720.2,133.276 720.312,132.072 L718.128,132.072 L718.128,130.042 L717.148,130.042 L717.148,132.072 L715.552,132.072 L715.552,133.038 L717.12,133.038 C717.078,133.85 716.966,134.606 716.798,135.306 C716.462,134.97 716.112,134.662 715.748,134.41 L715.16,135.082 C715.608,135.46 716.056,135.88 716.49,136.328 C716.056,137.504 715.398,138.456 714.502,139.198 L715.258,139.856 C716.098,139.156 716.742,138.26 717.218,137.182 C717.568,137.63 717.918,138.134 718.254,138.68 L718.982,137.966 C718.534,137.294 718.072,136.678 717.596,136.146 C717.876,135.222 718.044,134.186 718.1,133.038 L719.318,133.038 C719.262,133.92 719.248,134.704 719.248,135.39 C719.248,136.286 719.304,137.056 719.416,137.7 C719.542,138.288 719.71,138.708 719.934,138.96 C720.172,139.226 720.424,139.366 720.69,139.366 Z M712.262,130.014 L711.24,130.196 C711.366,130.406 711.492,130.644 711.618,130.91 L709,130.91 L709,131.722 L715.44,131.722 L715.44,130.91 L712.626,130.91 C712.514,130.574 712.388,130.28 712.262,130.014 Z M710.876,140.122 C710.344,140.934 709.728,141.648 709,142.25 L709.826,142.838 C710.554,142.194 711.184,141.424 711.716,140.528 L710.876,140.122 Z M713.942,140.206 L712.976,140.402 C713.2,141.144 713.382,142.012 713.536,142.992 L714.544,142.754 C714.362,141.844 714.166,140.99 713.942,140.206 Z M716.91,140.08 L715.944,140.276 C716.266,141.046 716.532,141.942 716.742,142.964 L717.75,142.74 C717.498,141.788 717.218,140.892 716.91,140.08 Z M719.57,139.73 L718.73,140.262 C719.528,141.242 720.158,142.138 720.62,142.95 L721.46,142.362 C721.012,141.606 720.382,140.738 719.57,139.73 Z M730.112,139.828 L729.37,140.29 C730.014,141.158 730.532,141.956 730.896,142.67 L731.694,142.11 C731.33,141.466 730.812,140.696 730.112,139.828 Z M727.634,137.616 L731.008,137.616 C731.162,138.358 731.33,138.974 731.498,139.45 C731.89,140.514 732.338,141.34 732.856,141.9 C733.332,142.432 733.808,142.712 734.256,142.712 C734.774,142.712 735.236,141.886 735.642,140.248 L734.802,139.702 L734.723223,140.146227 C734.539281,141.116656 734.354,141.6235 734.158,141.648 C733.892,141.648 733.57,141.41 733.206,140.948 C732.828,140.43 732.506,139.702 732.24,138.778 C732.142,138.442 732.044,138.064 731.96,137.616 L735.194,137.616 L735.194,136.664 L731.792,136.664 L731.708327,136.063347 C731.639143,135.541714 731.572,134.966 731.512,134.326 C732.632,134.186 733.71,134.032 734.732,133.836 L734.214,132.996 C731.834,133.444 729.3,133.752 726.64,133.892 L726.64,141.298 C726.64,141.494 726.5,141.62 726.234,141.69 L726.458,142.6 L727.258625,142.411219 C728.030375,142.222875 728.7155,142.0365 729.314,141.858 L729.132,140.92 C728.642,141.088 728.138,141.242 727.634,141.382 L727.634,137.616 Z M730.532,134.438 C730.616,135.25 730.728,135.992 730.84,136.664 L727.634,136.664 L727.634,134.69 C728.614,134.62 729.58,134.536 730.532,134.438 Z M729.762,130.014 L728.712,130.182 C728.964,130.518 729.188,130.896 729.384,131.302 L724.204,131.302 L724.204,135.46 C724.176,138.316 723.77,140.542 723,142.138 L723.756,142.81 C724.68,140.962 725.156,138.512 725.212,135.46 L725.212,132.282 L735.572,132.282 L735.572,131.302 L730.42,131.302 C730.21,130.826 729.986,130.406 729.762,130.014 Z M740.906,135.404 L740.906,136.3 L748.508,136.3 L748.508,135.404 L740.906,135.404 Z M739.926,137.686 L739.926,138.61 L742.978,138.61 L742.639139,139.142798 C741.809654,140.410962 741.113529,141.200824 740.57,141.522 L740.439333,141.58837 C740.414444,141.599778 740.388,141.610667 740.36,141.62 L740.584,142.474 C743.216,142.306 745.652,142.068 747.878,141.76 C748.158,142.124 748.41,142.488 748.634,142.852 L749.446,142.278 C748.83,141.382 747.934,140.318 746.786,139.1 L746.044,139.562 C746.464,140.038 746.87,140.5 747.248,140.962 C745.456,141.228 743.636,141.424 741.802,141.564 C742.446,140.962 743.188,139.982 744.056,138.61 L749.418,138.61 L749.418,137.686 L739.926,137.686 Z M747.71,131.54 L747.71,133.164 L739.492,133.164 L739.492,131.54 L747.71,131.54 Z M739.492,134.074 L748.69,134.074 L748.69,130.602 L738.498,130.602 L738.498,135.236 C738.484,138.05 737.994,140.346 737.028,142.124 L737.756,142.782 C738.904,140.682 739.478,138.162 739.492,135.236 L739.492,134.074 Z M752.876,138.078 L756.11,138.078 L756.11,139.38 L752.876,139.38 L752.876,138.078 Z M756.11,137.238 L752.876,137.238 L752.876,135.88 L756.11,135.88 L756.11,137.238 Z M752.876,140.234 L756.11,140.234 L756.11,141.368 C756.11,141.718 755.928,141.9 755.578,141.9 L754.528,141.858 L754.78,142.81 L755.9,142.81 C756.684,142.81 757.076,142.39 757.076,141.578 L757.076,134.998 L751.91,134.998 L751.91,142.908 L752.876,142.908 L752.876,140.234 Z M761.99,136.16 C762.48,136.16 762.844,136.048 763.068,135.838 C763.32,135.586 763.502,134.886 763.6,133.738 L762.662,133.444 L762.631537,133.848963 C762.576444,134.475722 762.498667,134.862667 762.382,135.026 C762.27,135.166 762.074,135.25 761.794,135.25 L759.96,135.25 C759.582,135.25 759.4,135.026 759.4,134.578 L759.4,132.828 C760.94,132.604 762.298,132.338 763.474,132.044 L763.152,131.162 C762.186,131.414 760.94,131.666 759.4,131.904 L759.4,130.084 L758.406,130.084 L758.406,134.788 C758.406,135.698 758.826,136.16 759.68,136.16 L761.99,136.16 Z M759.4,139.324 C760.856,139.198 762.214,138.96 763.474,138.596 L763.152,137.7 C762.046,138.036 760.8,138.274 759.4,138.414 L759.4,136.692 L758.406,136.692 L758.406,141.55 C758.406,142.292 758.812,142.67 759.652,142.67 L762.032,142.67 C762.536,142.67 762.9,142.558 763.124,142.348 C763.39,142.096 763.572,141.41 763.656,140.276 L762.746,139.996 C762.69,140.85 762.592,141.368 762.438,141.564 C762.326,141.69 762.116,141.76 761.836,141.76 L759.932,141.76 C759.568,141.76 759.4,141.606 759.4,141.326 L759.4,139.324 Z M756.068,131.036 L755.284,131.526 C755.62,132.002 755.942,132.478 756.236,132.926 C754.92,133.094 753.674,133.206 752.498,133.276 C753.282,132.562 753.982,131.582 754.626,130.336 L753.674,130.042 C753.114,131.162 752.386,132.17 751.518,133.066 C751.392,133.178 751.238,133.276 751.056,133.332 L751.336,134.172 C753.408,134.06 755.2,133.892 756.698,133.654 C756.88,133.962 757.048,134.27 757.202,134.578 L758.028,133.99 C757.566,133.15 756.908,132.17 756.068,131.036 Z M770.208,130.084 L770.208,131.484 C770.194,131.96 770.18,132.436 770.152,132.912 L765.994,132.912 L765.994,133.892 L770.068,133.892 C769.9,135.53 769.592,136.93 769.13,138.092 C768.402,139.716 767.114,141.032 765.28,142.012 L765.826,142.866 C767.702,141.914 769.046,140.584 769.886,138.876 C770.488,137.532 770.894,135.88 771.104,133.892 L775.528,133.892 L775.494131,135.032427 C775.40247,137.700269 775.24576,139.48864 775.024,140.388 C774.772,141.354 774.254,141.844 773.456,141.844 C772.952,141.844 772.406,141.83 771.846,141.802 L772.126,142.782 L773.96,142.782 C774.688,142.726 775.22,142.432 775.556,141.872 C775.892,141.284 776.13,140.248 776.27,138.778 C776.41,137.28 776.494,135.32 776.55,132.912 L771.188,132.912 C771.216,132.45 771.23,131.974 771.244,131.484 L771.244,130.084 L770.208,130.084 Z M784.824,130.042 L784.824,131.876 L779.378,131.876 L779.378,132.856 L784.824,132.856 L784.824,134.998 L780.442,134.998 L780.442,135.936 L781.52,135.936 C781.744,136.692 782.108,137.406 782.612,138.05 C783.158,138.75 783.802,139.38 784.53,139.926 C783.018,140.822 781.198,141.522 779.07,142.026 L779.644,142.922 C781.87,142.32 783.774,141.522 785.37,140.514 C786.07,140.962 786.854,141.368 787.708,141.732 C788.786,142.18 789.934,142.572 791.138,142.894 L791.726,142.012 C790.592,141.732 789.528,141.41 788.534,141.032 C787.694,140.696 786.924,140.318 786.224,139.926 C787.708,138.806 788.842,137.462 789.626,135.894 L789.626,134.998 L785.86,134.998 L785.86,132.856 L791.362,132.856 L791.362,131.876 L785.86,131.876 L785.86,130.042 L784.824,130.042 Z M785.356,139.38 C784.74,138.96 784.18,138.47 783.69,137.91 C783.158,137.336 782.766,136.678 782.514,135.936 L788.492,135.936 C787.764,137.28 786.714,138.428 785.356,139.38 Z M801.176,130.084 L801.176,131.54 L798.432,131.54 L798.432,132.45 L801.176,132.45 L801.176,134.088 L797.928,134.088 L797.928,135.04 L805.572,135.04 L805.572,134.088 L802.17,134.088 L802.17,132.45 L805.04,132.45 L805.04,131.54 L802.17,131.54 L802.17,130.084 L801.176,130.084 Z M797.704,136.832 L797.704,137.77 L802.856,137.77 L802.856,141.284 C802.856,141.662 802.66,141.858 802.268,141.858 C801.722,141.858 801.148,141.83 800.546,141.802 L800.77,142.782 L802.632,142.782 C803.444,142.782 803.864,142.362 803.864,141.536 L803.864,137.77 L805.586,137.77 L805.586,136.832 L803.864,136.832 L803.864,135.754 L802.856,135.754 L802.856,136.832 L797.704,136.832 Z M794.708,142.754 C795.506,142.754 795.912,142.334 795.912,141.494 L795.912,137.518 C796.416,137.308 796.906,137.084 797.382,136.832 L797.382,135.796 C796.906,136.048 796.416,136.286 795.912,136.51 L795.912,133.696 L797.368,133.696 L797.368,132.73 L795.912,132.73 L795.912,130.224 L794.918,130.224 L794.918,132.73 L793.196,132.73 L793.196,133.696 L794.918,133.696 L794.918,136.902 C794.302,137.126 793.686,137.308 793.042,137.462 L793.294,138.47 C793.826,138.302 794.372,138.12 794.918,137.924 L794.918,141.242 C794.918,141.648 794.722,141.858 794.358,141.858 C794.008,141.858 793.644,141.83 793.266,141.788 L793.476,142.754 L794.708,142.754 Z M799.16,138.428 C799.888,139.282 800.448,140.038 800.84,140.682 L800.042,141.242 C799.622,140.542 799.062,139.772 798.348,138.918 L799.16,138.428 Z" id="成熟底层能力支持" fill="#333333" fill-rule="nonzero"></path>
    </g>
</svg>