<?xml version="1.0" encoding="utf-8"?>
<!-- Generator: Adobe Illustrator 22.0.0, SVG Export Plug-In . SVG Version: 6.00 Build 0)  -->
<svg version="1.1" id="图层_1" xmlns="http://www.w3.org/2000/svg" xmlns:xlink="http://www.w3.org/1999/xlink" x="0px" y="0px"
	 width="920px" height="281.4px" viewBox="0 0 920 281.4" style="enable-background:new 0 0 920 281.4;" xml:space="preserve">
<style type="text/css">
	.st0{fill:#CEE3FF;}
	.st1{fill:#FFFFFF;}
	.st2{fill:#444444;}
	.st3{font-family:'PingFang-SC-Medium';}
	.st4{font-size:14px;}
	.st5{fill:#878787;}
	.st6{fill:none;stroke:#878787;stroke-miterlimit:10;}
	.st7{fill:#BABABA;}
	.st8{font-family:'PingFang-SC-Regular';}
	.st9{font-size:12px;}
	.st10{fill:#00A4FF;}
</style>
<rect x="198.7" y="51.8" class="st0" width="278.8" height="199.3"/>
<g>
	<g>
		
			<image style="overflow:visible;enable-background:new    ;" width="148" height="57" xlink:href="A97442CB.png"  transform="matrix(1 0 0 1 9.5002 76.8693)">
		</image>
		<g>
			<rect x="13.5" y="79.6" class="st1" width="140" height="50"/>
		</g>
	</g>
	<text transform="matrix(1 0 0 1 37.6638 109.1506)" class="st2 st3 st4">黑客&amp;恶意爬虫</text>
</g>
<g>
	<polygon class="st5" points="203.3,188.1 208.3,192.6 203.3,197.1 	"/>
	<line class="st6" x1="180.2" y1="192.6" x2="207.2" y2="192.6"/>
	<line class="st6" x1="167.9" y1="192.6" x2="180.3" y2="192.6"/>
</g>
<g>
	<polygon class="st5" points="203.3,103.2 208.3,107.7 203.3,112.2 	"/>
	<line class="st6" x1="180.3" y1="107.7" x2="207.3" y2="107.7"/>
	<line class="st6" x1="167" y1="107.7" x2="180.4" y2="107.7"/>
</g>
<g>
	<g>
		
			<image style="overflow:visible;enable-background:new    ;" width="147" height="57" xlink:href="A97442CC.png"  transform="matrix(1 0 0 1 8.5002 163.8693)">
		</image>
		<g>
			<rect x="12.8" y="166.2" class="st1" width="139.3" height="50"/>
		</g>
	</g>
	<text transform="matrix(1 0 0 1 86.9543 196.1642)" class="st2 st3 st4">用户</text>
	<g>
		<path class="st5" d="M57,180.3c2.2,0,4,1.8,4,4s-1.8,4-4,4c-2.2,0-4-1.8-4-4S54.8,180.3,57,180.3 M57,178.3c-3.3,0-6,2.7-6,6
			s2.7,6,6,6s6-2.7,6-6S60.3,178.3,57,178.3L57,178.3z"/>
	</g>
	<g>
		<path class="st5" d="M61,194.3c3.3,0,6,2.7,6,6v1H47v-1c0-3.3,2.7-6,6-6H61 M61,192.3h-8c-4.4,0-8,3.6-8,8v3h24v-3
			C69,195.9,65.4,192.3,61,192.3L61,192.3z"/>
	</g>
	<path class="st5" d="M70,192.3h-3c0.8,0.6,1.4,1.2,2,2h1c2.2,0,4,1.8,4,4v1h-3.1c0,0.3,0.1,0.7,0.1,1v1h5v-3
		C76,195,73.3,192.3,70,192.3z"/>
	<path class="st5" d="M66,179.3c-0.8,0-1.6,0.2-2.3,0.6c0.4,0.6,0.7,1.2,0.9,1.8c0.4-0.2,0.9-0.4,1.4-0.4c1.7,0,3,1.3,3,3
		s-1.3,3-3,3c-0.5,0-1-0.1-1.4-0.4c-0.2,0.6-0.5,1.2-0.9,1.8c0.7,0.4,1.5,0.6,2.3,0.6c2.8,0,5-2.2,5-5S68.7,179.3,66,179.3z"/>
</g>
<g>
	<path class="st7" d="M738.3,0.3h-6v1h6V0.3L738.3,0.3z M728.3,0.3h-6v1h6V0.3L728.3,0.3z M718.3,0.3h-6v1h6V0.3L718.3,0.3z
		 M708.3,0.3h-6v1h6V0.3L708.3,0.3z M698.3,0.3h-6v1h6V0.3L698.3,0.3z M688.3,0.3h-6v1h6V0.3L688.3,0.3z M678.3,0.3h-6v1h6V0.3
		L678.3,0.3z M668.3,0.3h-6v1h6V0.3L668.3,0.3z M658.3,0.3h-6v1h6V0.3L658.3,0.3z M648.3,0.3h-6v1h6V0.3L648.3,0.3z M638.3,0.3h-6v1
		h6V0.3L638.3,0.3z M628.3,0.3h-6v1h6V0.3L628.3,0.3z M618.3,0.3h-6v1h6V0.3L618.3,0.3z M608.3,0.3h-6v1h6V0.3L608.3,0.3z
		 M598.3,0.3h-6v1h6V0.3L598.3,0.3z M588.3,0.3h-6v1h6V0.3L588.3,0.3z M578.3,0.3h-6v1h6V0.3L578.3,0.3z M568.3,0.3h-6v1h6V0.3
		L568.3,0.3z M558.3,0.3h-6v1h6V0.3L558.3,0.3z M548.3,0.3h-6v1h6V0.3L548.3,0.3z M538.3,0.3h-6v1h6V0.3L538.3,0.3z M528.3,0.3h-6v1
		h6V0.3L528.3,0.3z M518.3,0.3h-6v1h6V0.3L518.3,0.3z M508.3,0.3h-6v1h6V0.3L508.3,0.3z M498.3,0.3h-6v1h6V0.3L498.3,0.3z
		 M488.3,0.3h-6v1h6V0.3L488.3,0.3z M478.3,0.3h-6v1h6V0.3L478.3,0.3z M468.3,0.3h-6v1h6V0.3L468.3,0.3z M458.3,0.3h-6v1h6V0.3
		L458.3,0.3z M448.3,0.3h-6v1h6V0.3L448.3,0.3z M438.3,0.3h-6v1h6V0.3L438.3,0.3z M428.3,0.3h-6v1h6V0.3L428.3,0.3z M418.3,0.3h-6v1
		h6V0.3L418.3,0.3z M408.3,0.3h-6v1h6V0.3L408.3,0.3z M398.3,0.3h-6v1h6V0.3L398.3,0.3z M388.3,0.3h-6v1h6V0.3L388.3,0.3z
		 M378.3,0.3h-6v1h6V0.3L378.3,0.3z M368.3,0.3h-6v1h6V0.3L368.3,0.3z M358.3,0.3h-6v1h6V0.3L358.3,0.3z M348.3,0.3h-6v1h6V0.3
		L348.3,0.3z M338.3,0.3h-6v1h6V0.3L338.3,0.3z M328.3,0.3h-6v1h6V0.3L328.3,0.3z M318.3,0.3h-6v1h6V0.3L318.3,0.3z M308.3,0.3h-6v1
		h6V0.3L308.3,0.3z M298.3,0.3h-6v1h6V0.3L298.3,0.3z M288.3,0.3h-6v1h6V0.3L288.3,0.3z M278.3,0.3h-6v1h6V0.3L278.3,0.3z
		 M268.3,0.3h-6v1h6V0.3L268.3,0.3z M258.3,0.3h-6v1h6V0.3L258.3,0.3z M248.3,0.3h-6v1h6V0.3L248.3,0.3z M238.3,0.3h-6v1h6V0.3
		L238.3,0.3z M228.3,0.3h-6v1h6V0.3L228.3,0.3z M218.3,0.3h-6v1h6V0.3L218.3,0.3z M208.3,0.3h-6v1h6V0.3L208.3,0.3z M198.3,0.3h-6v1
		h6V0.3L198.3,0.3z M188.3,0.3h-6v1h6V0.3L188.3,0.3z M180.6,1.7h-1v6h1V1.7L180.6,1.7z M180.6,11.7h-1v6h1V11.7L180.6,11.7z
		 M180.6,21.7h-1v6h1V21.7L180.6,21.7z M180.6,31.7h-1v6h1V31.7L180.6,31.7z M180.6,41.7h-1v6h1V41.7L180.6,41.7z M180.6,51.7h-1v6
		h1V51.7L180.6,51.7z M180.6,61.7h-1v6h1V61.7L180.6,61.7z M180.6,71.7h-1v6h1V71.7L180.6,71.7z M180.6,81.7h-1v6h1V81.7L180.6,81.7
		z M180.6,91.7h-1v6h1V91.7L180.6,91.7z M180.6,101.7h-1v6h1V101.7L180.6,101.7z M180.6,111.7h-1v6h1V111.7L180.6,111.7z
		 M180.6,121.7h-1v6h1V121.7L180.6,121.7z M180.6,131.7h-1v6h1V131.7L180.6,131.7z M180.6,141.7h-1v6h1V141.7L180.6,141.7z
		 M180.6,151.7h-1v6h1V151.7L180.6,151.7z M180.6,161.7h-1v6h1V161.7L180.6,161.7z M180.6,171.7h-1v6h1V171.7L180.6,171.7z
		 M180.6,181.7h-1v6h1V181.7L180.6,181.7z M180.6,191.7h-1v6h1V191.7L180.6,191.7z M180.6,201.7h-1v6h1V201.7L180.6,201.7z
		 M180.6,211.7h-1v6h1V211.7L180.6,211.7z M180.6,221.7h-1v6h1V221.7L180.6,221.7z M180.6,231.7h-1v6h1V231.7L180.6,231.7z
		 M180.6,241.7h-1v6h1V241.7L180.6,241.7z M180.6,251.7h-1v6h1V251.7L180.6,251.7z M180.6,261.7h-1v6h1V261.7L180.6,261.7z
		 M180.6,271.7h-1v6h1V271.7L180.6,271.7z M186.9,279.4h-6v1h6V279.4L186.9,279.4z M196.9,279.4h-6v1h6V279.4L196.9,279.4z
		 M206.9,279.4h-6v1h6V279.4L206.9,279.4z M216.9,279.4h-6v1h6V279.4L216.9,279.4z M226.9,279.4h-6v1h6V279.4L226.9,279.4z
		 M236.9,279.4h-6v1h6V279.4L236.9,279.4z M246.9,279.4h-6v1h6V279.4L246.9,279.4z M256.9,279.4h-6v1h6V279.4L256.9,279.4z
		 M266.9,279.4h-6v1h6V279.4L266.9,279.4z M276.9,279.4h-6v1h6V279.4L276.9,279.4z M286.9,279.4h-6v1h6V279.4L286.9,279.4z
		 M296.9,279.4h-6v1h6V279.4L296.9,279.4z M306.9,279.4h-6v1h6V279.4L306.9,279.4z M316.9,279.4h-6v1h6V279.4L316.9,279.4z
		 M326.9,279.4h-6v1h6V279.4L326.9,279.4z M336.9,279.4h-6v1h6V279.4L336.9,279.4z M346.9,279.4h-6v1h6V279.4L346.9,279.4z
		 M356.9,279.4h-6v1h6V279.4L356.9,279.4z M366.9,279.4h-6v1h6V279.4L366.9,279.4z M376.9,279.4h-6v1h6V279.4L376.9,279.4z
		 M386.9,279.4h-6v1h6V279.4L386.9,279.4z M396.9,279.4h-6v1h6V279.4L396.9,279.4z M406.9,279.4h-6v1h6V279.4L406.9,279.4z
		 M416.9,279.4h-6v1h6V279.4L416.9,279.4z M426.9,279.4h-6v1h6V279.4L426.9,279.4z M436.9,279.4h-6v1h6V279.4L436.9,279.4z
		 M446.9,279.4h-6v1h6V279.4L446.9,279.4z M456.9,279.4h-6v1h6V279.4L456.9,279.4z M466.9,279.4h-6v1h6V279.4L466.9,279.4z
		 M476.9,279.4h-6v1h6V279.4L476.9,279.4z M486.9,279.4h-6v1h6V279.4L486.9,279.4z M496.9,279.4h-6v1h6V279.4L496.9,279.4z
		 M506.9,279.4h-6v1h6V279.4L506.9,279.4z M516.9,279.4h-6v1h6V279.4L516.9,279.4z M526.9,279.4h-6v1h6V279.4L526.9,279.4z
		 M536.9,279.4h-6v1h6V279.4L536.9,279.4z M546.9,279.4h-6v1h6V279.4L546.9,279.4z M556.9,279.4h-6v1h6V279.4L556.9,279.4z
		 M566.9,279.4h-6v1h6V279.4L566.9,279.4z M576.9,279.4h-6v1h6V279.4L576.9,279.4z M586.9,279.4h-6v1h6V279.4L586.9,279.4z
		 M596.9,279.4h-6v1h6V279.4L596.9,279.4z M606.9,279.4h-6v1h6V279.4L606.9,279.4z M616.9,279.4h-6v1h6V279.4L616.9,279.4z
		 M626.9,279.4h-6v1h6V279.4L626.9,279.4z M636.9,279.4h-6v1h6V279.4L636.9,279.4z M646.9,279.4h-6v1h6V279.4L646.9,279.4z
		 M656.9,279.4h-6v1h6V279.4L656.9,279.4z M666.9,279.4h-6v1h6V279.4L666.9,279.4z M676.9,279.4h-6v1h6V279.4L676.9,279.4z
		 M686.9,279.4h-6v1h6V279.4L686.9,279.4z M696.9,279.4h-6v1h6V279.4L696.9,279.4z M706.9,279.4h-6v1h6V279.4L706.9,279.4z
		 M716.9,279.4h-6v1h6V279.4L716.9,279.4z M726.9,279.4h-6v1h6V279.4L726.9,279.4z M736.9,279.4h-6v1h6V279.4L736.9,279.4z
		 M738.3,271.8h-1v6h1V271.8L738.3,271.8z M738.3,261.8h-1v6h1V261.8L738.3,261.8z M738.3,251.8h-1v6h1V251.8L738.3,251.8z
		 M738.3,241.8h-1v6h1V241.8L738.3,241.8z M738.3,231.8h-1v6h1V231.8L738.3,231.8z M738.3,221.8h-1v6h1V221.8L738.3,221.8z
		 M738.3,211.8h-1v6h1V211.8L738.3,211.8z M738.3,201.8h-1v6h1V201.8L738.3,201.8z M738.3,191.8h-1v6h1V191.8L738.3,191.8z
		 M738.3,181.8h-1v6h1V181.8L738.3,181.8z M738.3,171.8h-1v6h1V171.8L738.3,171.8z M738.3,161.8h-1v6h1V161.8L738.3,161.8z
		 M738.3,151.8h-1v6h1V151.8L738.3,151.8z M738.3,141.8h-1v6h1V141.8L738.3,141.8z M738.3,131.8h-1v6h1V131.8L738.3,131.8z
		 M738.3,121.8h-1v6h1V121.8L738.3,121.8z M738.3,111.8h-1v6h1V111.8L738.3,111.8z M738.3,101.8h-1v6h1V101.8L738.3,101.8z
		 M738.3,91.8h-1v6h1V91.8L738.3,91.8z M738.3,81.8h-1v6h1V81.8L738.3,81.8z M738.3,71.8h-1v6h1V71.8L738.3,71.8z M738.3,61.8h-1v6
		h1V61.8L738.3,61.8z M738.3,51.8h-1v6h1V51.8L738.3,51.8z M738.3,41.8h-1v6h1V41.8L738.3,41.8z M738.3,31.8h-1v6h1V31.8L738.3,31.8
		z M738.3,21.8h-1v6h1V21.8L738.3,21.8z M738.3,11.8h-1v6h1V11.8L738.3,11.8z M738.3,1.8h-1v6h1V1.8L738.3,1.8z"/>
	<text transform="matrix(1 0 0 1 189.6375 22.3322)" class="st2 st8 st4">安全加速网络</text>
</g>
<g>
	
		<image style="overflow:visible;enable-background:new    ;" width="132" height="58" xlink:href="A97442CD.png"  transform="matrix(1 0 0 1 590.5002 166.8693)">
	</image>
	<g>
		<rect x="594.7" y="169.9" class="st1" width="124" height="50"/>
	</g>
</g>
<text transform="matrix(1 0 0 1 629.7229 199.8048)" class="st2 st3 st4">高防节点</text>
<g>
	
		<image style="overflow:visible;enable-background:new    ;" width="132" height="58" xlink:href="A97442CF.png"  transform="matrix(1 0 0 1 779.5002 122.8693)">
	</image>
	<g>
		<rect x="783.2" y="125.9" class="st1" width="124" height="50"/>
	</g>
</g>
<text transform="matrix(1 0 0 1 818.2161 155.7775)" class="st2 st3 st4">用户源站</text>
<g>
	
		<image style="overflow:visible;enable-background:new    ;" width="132" height="58" xlink:href="A97442CA.png"  transform="matrix(1 0 0 1 589.5002 76.8693)">
	</image>
	<g>
		<rect x="593.4" y="80.5" class="st1" width="124" height="50"/>
	</g>
</g>
<text transform="matrix(1 0 0 1 628.3684 110.3927)" class="st2 st3 st4">WAF集群</text>
<g>
	<polygon class="st5" points="580.6,190.4 585.6,194.9 580.6,199.4 	"/>
	<line class="st6" x1="544.8" y1="194.9" x2="584.5" y2="194.9"/>
	<line class="st6" x1="491.8" y1="194.9" x2="544.9" y2="194.9"/>
</g>
<g>
	<polygon class="st5" points="770.4,145.7 775.4,150.2 770.4,154.7 	"/>
	<line class="st6" x1="747.3" y1="150.2" x2="774.3" y2="150.2"/>
</g>
<g>
	<polygon class="st5" points="578.9,102 583.9,106.5 578.9,111 	"/>
	<line class="st6" x1="543.1" y1="106.5" x2="582.8" y2="106.5"/>
	<line class="st6" x1="490.1" y1="106.5" x2="543.2" y2="106.5"/>
</g>
<text transform="matrix(1 0 0 1 497.9797 94.9797)" class="st5 st8 st9">恶意访问过滤</text>
<text transform="matrix(1 0 0 1 495.7756 182.923)" class="st5 st8 st9">DDoS攻击清洗</text>
<g>
	
		<image style="overflow:visible;enable-background:new    ;" width="122" height="58" xlink:href="A97442D8.png"  transform="matrix(1 0 0 1 339.5002 162.8693)">
	</image>
	<g>
		<rect x="343.4" y="166.3" class="st1" width="115" height="50"/>
	</g>
</g>
<text transform="matrix(1 0 0 1 390.4622 196.2326)" class="st2 st3 st4">安全节点</text>
<g>
	<path class="st10" d="M379.1,188v10.8l-12,6.9l-12-6.9v-14.3l12-6.9l11.6,6.6l1.6-1.1l-13.2-7.5l-14,8v16l14,8l14-8v-13L379.1,188z
		 M367.1,190.7c-1.1,0-2,0.9-2,2c0,0.8,0.4,1.4,1,1.7v1.2h2v-1.2c0.6-0.4,1-1,1-1.7C369.1,191.6,368.2,190.7,367.1,190.7z
		 M375.1,188.8c0-1.1-0.9-2-2-2c-0.2,0-0.4,0-0.5,0.1l-3.5-2c0,0,0-0.1,0-0.1c0-1.1-0.9-2-2-2s-2,0.9-2,2c0,0,0,0.1,0,0.1l-3.4,2
		c-0.2-0.1-0.4-0.1-0.6-0.1c-1.1,0-2,0.9-2,2c0,0.8,0.4,1.4,1,1.7v2.5c-0.6,0.3-1,1-1,1.7c0,1.1,0.9,2,2,2c0.2,0,0.5,0,0.7-0.1
		l3.3,1.9c0,0.1,0,0.1,0,0.2c0,1.1,0.9,2,2,2s2-0.9,2-2c0-0.1,0-0.1,0-0.2l3.4-1.9c0.2,0.1,0.4,0.1,0.6,0.1c1.1,0,2-0.9,2-2
		c0-0.7-0.4-1.4-1-1.7v-2.5C374.7,190.1,375.1,189.5,375.1,188.8z M372.1,193c-0.6,0.3-1,1-1,1.7c0,0.2,0,0.4,0.1,0.6l-3,1.7
		c0,0-0.1,0-0.1-0.1v-0.3h-2v0.3c0,0-0.1,0-0.1,0.1l-3-1.7c0.1-0.2,0.1-0.4,0.1-0.6c0-0.7-0.4-1.4-1-1.7v-2l2,1.3v-2l-1.2-0.8
		c0.1-0.3,0.2-0.5,0.2-0.8c0-0.2,0-0.5-0.1-0.7l2.9-1.7c0.3,0.2,0.7,0.4,1.2,0.4c0.4,0,0.9-0.1,1.2-0.4l2.9,1.7
		c-0.1,0.2-0.1,0.5-0.1,0.7c0,0.3,0.1,0.6,0.2,0.8l-1.2,0.8v2l2-1.3L372.1,193L372.1,193z"/>
</g>
<g>
	
		<image style="overflow:visible;enable-background:new    ;" width="122" height="57" xlink:href="A97442D9.png"  transform="matrix(1 0 0 1 211.5002 162.8693)">
	</image>
	<g>
		<rect x="215.4" y="165.8" class="st1" width="115" height="50"/>
	</g>
</g>
<text transform="matrix(1 0 0 1 262.4622 195.7326)" class="st2 st3 st4">安全节点</text>
<g>
	<path class="st10" d="M251.1,187.5v10.8l-12,6.9l-12-6.9v-14.3l12-6.9l11.6,6.6l1.6-1.1l-13.2-7.5l-14,8v16l14,8l14-8v-13
		L251.1,187.5z M239.1,190.2c-1.1,0-2,0.9-2,2c0,0.8,0.4,1.4,1,1.7v1.2h2V194c0.6-0.4,1-1,1-1.7
		C241.1,191.1,240.2,190.2,239.1,190.2z M247.1,188.3c0-1.1-0.9-2-2-2c-0.2,0-0.4,0-0.5,0.1l-3.5-2c0,0,0-0.1,0-0.1c0-1.1-0.9-2-2-2
		s-2,0.9-2,2c0,0,0,0.1,0,0.1l-3.4,2c-0.2-0.1-0.4-0.1-0.6-0.1c-1.1,0-2,0.9-2,2c0,0.8,0.4,1.4,1,1.7v2.5c-0.6,0.3-1,1-1,1.7
		c0,1.1,0.9,2,2,2c0.2,0,0.5,0,0.7-0.1l3.3,1.9c0,0.1,0,0.1,0,0.2c0,1.1,0.9,2,2,2s2-0.9,2-2c0-0.1,0-0.1,0-0.2l3.4-1.9
		c0.2,0.1,0.4,0.1,0.6,0.1c1.1,0,2-0.9,2-2c0-0.7-0.4-1.4-1-1.7V190C246.7,189.6,247.1,189,247.1,188.3z M244.1,192.5
		c-0.6,0.3-1,1-1,1.7c0,0.2,0,0.4,0.1,0.6l-3,1.7c0,0-0.1,0-0.1-0.1v-0.3h-2v0.3c0,0-0.1,0-0.1,0.1l-3-1.7c0.1-0.2,0.1-0.4,0.1-0.6
		c0-0.7-0.4-1.4-1-1.7v-2l2,1.3v-2l-1.2-0.8c0.1-0.3,0.2-0.5,0.2-0.8c0-0.2-0.1-0.5-0.1-0.7l2.9-1.7c0.3,0.2,0.7,0.4,1.2,0.4
		c0.4,0,0.9-0.1,1.2-0.4l2.9,1.7c-0.1,0.2-0.1,0.5-0.1,0.7c0,0.3,0.1,0.6,0.2,0.8l-1.2,0.8v2l2-1.3L244.1,192.5L244.1,192.5z"/>
</g>
<g>
	
		<image style="overflow:visible;enable-background:new    ;" width="122" height="57" xlink:href="A97442DA.png"  transform="matrix(1 0 0 1 339.5002 79.8693)">
	</image>
	<g>
		<rect x="342.9" y="82.8" class="st1" width="115" height="50"/>
	</g>
</g>
<text transform="matrix(1 0 0 1 389.9622 112.7326)" class="st2 st3 st4">安全节点</text>
<g>
	<path class="st10" d="M378.6,104.5v10.8l-12,6.9l-12-6.9v-14.3l12-6.9l11.6,6.6l1.6-1.1l-13.2-7.5l-14,8v16l14,8l14-8v-13
		L378.6,104.5z M366.6,107.2c-1.1,0-2,0.9-2,2c0,0.8,0.4,1.4,1,1.7v1.2h2V111c0.6-0.4,1-1,1-1.7
		C368.6,108.1,367.7,107.2,366.6,107.2z M374.6,105.3c0-1.1-0.9-2-2-2c-0.2,0-0.4,0-0.5,0.1l-3.5-2c0,0,0-0.1,0-0.1c0-1.1-0.9-2-2-2
		s-2,0.9-2,2c0,0,0,0.1,0,0.1l-3.4,2c-0.2-0.1-0.4-0.1-0.6-0.1c-1.1,0-2,0.9-2,2c0,0.8,0.4,1.4,1,1.7v2.5c-0.6,0.3-1,1-1,1.7
		c0,1.1,0.9,2,2,2c0.2,0,0.5,0,0.7-0.1l3.3,1.9c0,0.1,0,0.1,0,0.2c0,1.1,0.9,2,2,2s2-0.9,2-2c0-0.1,0-0.1,0-0.2l3.4-1.9
		c0.2,0.1,0.4,0.1,0.6,0.1c1.1,0,2-0.9,2-2c0-0.7-0.4-1.4-1-1.7V107C374.2,106.6,374.6,106,374.6,105.3z M371.6,109.5
		c-0.6,0.3-1,1-1,1.7c0,0.2,0,0.4,0.1,0.6l-3,1.7c0,0-0.1,0-0.1-0.1v-0.3h-2v0.3c0,0-0.1,0-0.1,0.1l-3-1.7c0.1-0.2,0.1-0.4,0.1-0.6
		c0-0.7-0.4-1.4-1-1.7v-2l2,1.3v-2l-1.2-0.8c0.1-0.3,0.2-0.5,0.2-0.8c0-0.2,0-0.5-0.1-0.7l2.9-1.7c0.3,0.2,0.7,0.4,1.2,0.4
		c0.4,0,0.9-0.1,1.2-0.4l2.9,1.7c-0.1,0.2-0.1,0.5-0.1,0.7c0,0.3,0.1,0.6,0.2,0.8l-1.2,0.8v2l2-1.3L371.6,109.5L371.6,109.5z"/>
</g>
<g>
	<g>
		
			<image style="overflow:visible;enable-background:new    ;" width="123" height="58" xlink:href="A97442DB.png"  transform="matrix(1 0 0 1 211.5002 78.8693)">
		</image>
		<g>
			<rect x="215.9" y="82.3" class="st1" width="115" height="50"/>
		</g>
	</g>
	<text transform="matrix(1 0 0 1 262.9622 112.2326)" class="st2 st3 st4">安全节点</text>
	<g>
		<path class="st10" d="M251.6,104v10.8l-12,6.9l-12-6.9v-14.3l12-6.9l11.6,6.6l1.6-1.1l-13.2-7.5l-14,8v16l14,8l14-8v-13L251.6,104
			z M239.6,106.7c-1.1,0-2,0.9-2,2c0,0.8,0.4,1.4,1,1.7v1.2h2v-1.2c0.6-0.4,1-1,1-1.7C241.6,107.6,240.7,106.7,239.6,106.7z
			 M247.6,104.8c0-1.1-0.9-2-2-2c-0.2,0-0.4,0-0.5,0.1l-3.5-2c0,0,0-0.1,0-0.1c0-1.1-0.9-2-2-2s-2,0.9-2,2c0,0,0,0.1,0,0.1l-3.4,2
			c-0.2-0.1-0.4-0.1-0.6-0.1c-1.1,0-2,0.9-2,2c0,0.8,0.4,1.4,1,1.7v2.5c-0.6,0.3-1,1-1,1.7c0,1.1,0.9,2,2,2c0.2,0,0.5,0,0.7-0.1
			l3.3,1.9c0,0.1,0,0.1,0,0.2c0,1.1,0.9,2,2,2s2-0.9,2-2c0-0.1,0-0.1,0-0.2l3.4-1.9c0.2,0.1,0.4,0.1,0.6,0.1c1.1,0,2-0.9,2-2
			c0-0.7-0.4-1.4-1-1.7v-2.5C247.2,106.1,247.6,105.5,247.6,104.8z M244.6,109c-0.6,0.3-1,1-1,1.7c0,0.2,0,0.4,0.1,0.6l-3,1.7
			c0,0-0.1,0-0.1-0.1v-0.3h-2v0.3c0,0-0.1,0-0.1,0.1l-3-1.7c0.1-0.2,0.1-0.4,0.1-0.6c0-0.7-0.4-1.4-1-1.7v-2l2,1.3v-2l-1.2-0.8
			c0.1-0.3,0.2-0.5,0.2-0.8c0-0.2-0.1-0.5-0.1-0.7l2.9-1.7c0.3,0.2,0.7,0.4,1.2,0.4c0.4,0,0.9-0.1,1.2-0.4l2.9,1.7
			c-0.1,0.2-0.1,0.5-0.1,0.7c0,0.3,0.1,0.6,0.2,0.8l-1.2,0.8v2l2-1.3L244.6,109L244.6,109z"/>
	</g>
</g>
</svg>
