<?xml version="1.0" encoding="UTF-8"?>
<svg width="48px" height="48px" viewBox="0 0 48 48" version="1.1" xmlns="http://www.w3.org/2000/svg" xmlns:xlink="http://www.w3.org/1999/xlink">
    <!-- Generator: Sketch 52.2 (67145) - http://www.bohemiancoding.com/sketch -->
    <title>异常崩溃检测-48x48</title>
    <desc>Created with Sketch.</desc>
    <g id="异常崩溃检测-48x48" stroke="none" stroke-width="1" fill="none" fill-rule="evenodd">
        <g id="异常崩溃检测-48x48-01" transform="translate(2.000000, 0.000000)" fill-rule="nonzero">
            <g id="Combined-Shape" fill="#334966">
                <path d="M25.259,0 L23.986,2 L2,2 L2,46 L38,46 L38,26 L40,26 L40,48 L0,48 L0,0 L25.259,0 Z M22.077,5 L20.8,7 L7,7 L7,36 L33,36 L33,26 L35,26 L35,38 L5,38 L5,5 L22.077,5 Z M17,41 L23,41 L23,43 L17,43 L17,41 Z" id="Shape"></path>
            </g>
            <path d="M30,0 L16,22 L44,22 L30,0 Z M31,18 L29,18 L29,16 L31,16 L31,18 Z M29,15 L29,10 L31,10 L31,15 L29,15 Z" id="Shape" fill="#00A4FF"></path>
            <g id="Rectangle-44" transform="translate(16.000000, 0.000000)" fill="#334966">
                <path d="M28,22 L0,22 L14,0 L28,22 Z M3.644,20 L24.357,20 L14,3.726 L3.644,20 Z" id="Shape"></path>
            </g>
        </g>
    </g>
</svg>