<?xml version="1.0" encoding="utf-8"?>
<!-- Generator: Adobe Illustrator 21.1.0, SVG Export Plug-In . SVG Version: 6.00 Build 0)  -->
<svg version="1.1" id="svgwrapper_svg" xmlns="http://www.w3.org/2000/svg" xmlns:xlink="http://www.w3.org/1999/xlink" x="0px"
	 y="0px" viewBox="0 0 830 561" style="enable-background:new 0 0 830 561;" xml:space="preserve">
<style type="text/css">
	.st0{display:none;fill:none;stroke:#999999;}
	.st1{fill-opacity:0;}
	.st2{fill:none;stroke:#BABABA;stroke-dasharray:5;}
	.st3{enable-background:new    ;}
	.st4{fill:#444444;}
	.st5{fill:none;stroke:#888888;}
	.st6{fill:#888888;}
	.st7{fill:none;stroke:#FF0000;stroke-width:15;stroke-opacity:0;}
	.st8{opacity:0.6;fill:#BBBBBB;enable-background:new    ;}
	.st9{fill:#FFFFFF;stroke:#E5E5E5;}
</style>
<path class="st0" d="M0-5.9L0-5.9"/>
<g id="bottomgroup" transform="translate(0,0)">
	<g id="DashRectGroup30" transform="translate(415.5,131.5)">
		<rect y="-5.9" class="st1" width="161" height="308"/>
		<path class="st2" d="M0-5.9h161v308H0V-5.9"/>
		<g transform="translate(10 10)">
			<g class="st3">
				<path class="st4" d="M12.1-1.8l-0.6,0.6h1.7v1H8.9C9,1.5,9.2,2.9,9.4,3.9c0.1,0.3,0.2,0.7,0.3,1c0.7-1.1,1.3-2.4,1.7-3.9
					l0.9,0.4C11.8,3.2,11,4.7,10.1,6c0.2,0.4,0.4,0.8,0.6,1.2c0.5,0.7,0.8,1,1.1,1c0.3,0,0.5-0.7,0.7-2.2l0.9,0.5
					c-0.3,1.9-0.8,2.8-1.4,2.8c-0.6,0-1.2-0.4-1.9-1.3C9.9,7.7,9.7,7.3,9.5,6.9C8.5,8,7.3,8.9,6,9.5L5.4,8.6C6.8,8,8,7.1,9,5.9
					C8.8,5.3,8.6,4.8,8.5,4.2C8.2,3,8,1.5,7.9-0.2H3.1v2.3h3.4c0,2.4-0.1,3.9-0.3,4.6C6,7.3,5.5,7.6,4.8,7.6c-0.3,0-0.7,0-1.2-0.1
					L3.3,6.7c0.5,0,1,0,1.4,0c0.3,0,0.5-0.2,0.6-0.6c0.1-0.5,0.1-1.5,0.2-3H3.1v0.4C3,6,2.4,8,1.4,9.5L0.6,8.8C1.5,7.5,2,5.8,2,3.5
					v-4.7h5.8c0-0.7,0-1.4,0-2.2h1c0,0.8,0,1.5,0,2.2h2.6c-0.4-0.5-1-1-1.7-1.6l0.6-0.6C11.1-2.9,11.7-2.4,12.1-1.8z"/>
				<path class="st4" d="M21.6,3.7c-0.2,2.1-0.6,3.4-1.3,4.2c-0.7,0.9-2.4,1.4-5,1.7L15,8.6c2.3-0.1,3.8-0.6,4.5-1.4
					c0.6-0.7,1-1.9,1.1-3.7L21.6,3.7z M25.7,7h-1V2.7h-7.4v4.5h-1V1.8h9.4V7z M24.9-2.8v3.5h-7.7v-3.5H24.9z M23.9-1.9h-5.8v1.7h5.8
					V-1.9z M27,8.7l-0.5,0.8c-1.6-0.8-3.3-1.5-5-2L22,6.8C23.8,7.4,25.5,8,27,8.7z"/>
				<path class="st4" d="M32-0.8v4.6c0,1.6-0.3,2.8-0.7,3.8c-0.4,0.9-1.1,1.6-2.1,2l-0.5-0.8c0.9-0.5,1.6-1.1,1.9-1.8
					c0.3-0.8,0.5-1.8,0.5-3.1v-4.6H32z M34,6h-0.9v-7.9h-3V6h-0.9v-8.8H34V6z M34.4,8.7l-0.7,0.7c-0.4-0.8-1.1-1.6-1.9-2.4l0.6-0.6
					C33.2,7.2,33.9,8,34.4,8.7z M36.6,3.4v4.8c0.6-0.2,1.3-0.6,1.9-1l0.2,0.9c-0.9,0.5-1.8,1-3,1.3l-0.4-0.9
					c0.2-0.1,0.3-0.2,0.3-0.4V3.4h-1v-1h1v-5.8h1v5.8h4.7v1h-2.5c0.6,2.2,1.6,3.9,2.8,5.2l-0.7,0.8c-1.3-1.3-2.3-3.3-3-5.9H36.6z
					 M41-2.1c-1,1.6-2.1,2.7-3.5,3.5L37,0.7c1.3-0.7,2.3-1.8,3.2-3.3L41-2.1z"/>
				<path class="st4" d="M42.7,3.1v-1h12.6v1h-8.4l-0.5,1.6h6.8c-0.1,2.2-0.3,3.6-0.6,4c-0.3,0.4-1,0.6-1.9,0.6
					c-0.7,0-1.3,0-1.9-0.1l-0.3-0.9c0.7,0.1,1.4,0.1,2,0.1c0.8,0,1.2-0.2,1.4-0.5c0.2-0.3,0.3-1.1,0.4-2.4h-7l0.7-2.5H42.7z
					 M53.1-2.8V1h-8.2v-3.8H53.1z M52.1-1.9h-6.1v2h6.1V-1.9z"/>
			</g>
		</g>
	</g>
	<g id="DashRectGroup31" transform="translate(18,237)">
		<rect y="-5.9" class="st1" width="163" height="104"/>
		<path class="st2" d="M0-5.9h163v104H0V-5.9"/>
		<g transform="translate(10 10)">
			<g class="st3">
				<path class="st4" d="M5,0.8V2C4.7,1.8,4.3,1.8,4,1.8c-0.6,0-1,0.2-1.4,0.7C2.2,3,2,3.6,2,4.3v3.8H0.9V0.9H2v1.3
					c0.2-0.4,0.4-0.8,0.8-1C3.1,0.8,3.5,0.7,4,0.7C4.4,0.7,4.8,0.7,5,0.8z"/>
				<path class="st4" d="M11.8,1.8c0.6,0.7,0.9,1.6,0.9,2.7c0,1.1-0.3,2-0.9,2.7c-0.7,0.8-1.5,1.1-2.6,1.1c-1.1,0-1.9-0.4-2.6-1.1
					C6,6.5,5.7,5.6,5.7,4.5c0-1.1,0.3-2,0.9-2.7C7.3,1,8.1,0.7,9.2,0.7C10.3,0.7,11.2,1,11.8,1.8z M7.4,2.5C7,3,6.8,3.7,6.8,4.5
					c0,0.8,0.2,1.5,0.6,2c0.4,0.6,1,0.9,1.8,0.9c0.8,0,1.4-0.3,1.8-0.9c0.4-0.5,0.6-1.2,0.6-2c0-0.8-0.2-1.5-0.6-2
					C10.6,1.9,10,1.6,9.2,1.6C8.4,1.6,7.8,1.9,7.4,2.5z"/>
				<path class="st4" d="M20,1.8c0.6,0.7,0.9,1.6,0.9,2.7c0,1.1-0.3,2-0.9,2.7c-0.7,0.8-1.5,1.1-2.6,1.1c-1.1,0-1.9-0.4-2.6-1.1
					c-0.6-0.7-0.9-1.6-0.9-2.7c0-1.1,0.3-2,0.9-2.7c0.6-0.8,1.5-1.1,2.6-1.1C18.5,0.7,19.4,1,20,1.8z M15.6,2.5
					c-0.4,0.5-0.6,1.2-0.6,2c0,0.8,0.2,1.5,0.6,2c0.4,0.6,1,0.9,1.8,0.9c0.8,0,1.4-0.3,1.8-0.9c0.4-0.5,0.6-1.2,0.6-2
					c0-0.8-0.2-1.5-0.6-2c-0.4-0.6-1.1-0.9-1.8-0.9C16.6,1.6,16,1.9,15.6,2.5z"/>
				<path class="st4" d="M24.3,0.9h1.8v0.9h-1.8v4.6c0,0.3,0,0.5,0.2,0.6c0.1,0.1,0.3,0.2,0.5,0.2h0.9v0.9h-1.1
					c-0.6,0-1-0.2-1.3-0.5c-0.2-0.3-0.4-0.7-0.4-1.2V1.8h-1.5V0.9h1.5V-1l1.1-0.5V0.9z"/>
				<path class="st4" d="M30.5-0.8v4.6c0,1.6-0.3,2.8-0.7,3.8c-0.4,0.9-1.1,1.6-2.1,2l-0.5-0.8c0.9-0.5,1.6-1.1,1.9-1.8
					c0.3-0.8,0.5-1.8,0.5-3.1v-4.6H30.5z M32.5,6h-0.9v-7.9h-3V6h-0.9v-8.8h4.8V6z M32.9,8.7l-0.7,0.7c-0.4-0.8-1.1-1.6-1.9-2.4
					l0.6-0.6C31.7,7.2,32.4,8,32.9,8.7z M35,3.4v4.8c0.6-0.2,1.3-0.6,1.9-1l0.2,0.9c-0.9,0.5-1.8,1-3,1.3l-0.4-0.9
					c0.2-0.1,0.3-0.2,0.3-0.4V3.4h-1v-1h1v-5.8h1v5.8h4.7v1h-2.5c0.6,2.2,1.6,3.9,2.8,5.2l-0.7,0.8C38,8,37,6.1,36.3,3.4H35z
					 M39.5-2.1c-1,1.6-2.1,2.7-3.5,3.5l-0.5-0.8c1.3-0.7,2.3-1.8,3.2-3.3L39.5-2.1z"/>
				<path class="st4" d="M41.2,3.1v-1h12.6v1h-8.4l-0.5,1.6h6.8c-0.1,2.2-0.3,3.6-0.6,4c-0.3,0.4-1,0.6-1.9,0.6
					c-0.7,0-1.3,0-1.9-0.1L47,8.4c0.7,0.1,1.4,0.1,2,0.1c0.8,0,1.2-0.2,1.4-0.5c0.2-0.3,0.3-1.1,0.4-2.4h-7l0.7-2.5H41.2z M51.6-2.8
					V1h-8.2v-3.8H51.6z M50.6-1.9h-6.1v2h6.1V-1.9z"/>
			</g>
		</g>
	</g>
	<g id="DashRectGroup41" transform="translate(240.9765625,131.5)">
		<rect x="0" y="-5.9" class="st1" width="150" height="308"/>
		<path class="st2" d="M0-5.9h150v308H0V-5.9"/>
		<g transform="translate(10 10)">
			<g class="st3">
				<path class="st4" d="M4.3-2.9C3.5-1.2,2.8,0.2,2,1.2C2.7,1.2,3.3,1.1,4,1c0.3-0.5,0.6-1.1,0.9-1.7l0.9,0.4
					C4.5,2,3.4,3.7,2.5,4.8c1-0.2,2.1-0.5,3.1-0.9v0.9c-1.5,0.5-3,0.9-4.4,1.1L1,4.9c0.2-0.1,0.3-0.2,0.5-0.3c0.6-0.5,1.2-1.5,2-2.8
					C2.6,2,1.8,2.1,1,2.2L0.7,1.3C0.9,1.2,1,1.1,1.2,0.9C2-0.3,2.7-1.7,3.3-3.3L4.3-2.9z M5.5,7.3C4.2,7.9,2.7,8.4,1,8.8l-0.1-1
					C2.6,7.5,4.2,7,5.5,6.4V7.3z M12.2,8h1.2v1H5.3V8h1.2V-2.7h5.7V8z M11.2,0.8v-2.5H7.5v2.5H11.2z M11.2,4.4V1.8H7.5v2.6H11.2z
					 M11.2,8V5.4H7.5V8H11.2z"/>
				<path class="st4" d="M18.2-3c-0.8,1.8-1.5,3.3-2.3,4.4c0.7-0.1,1.3-0.2,2-0.3c0.3-0.6,0.6-1.1,1-1.8l0.9,0.3
					c-1.3,2.4-2.4,4.1-3.3,5.1c1-0.2,2-0.5,3.1-0.9v0.9c-1.5,0.6-3,1-4.4,1.2l-0.3-0.9c0.2-0.1,0.4-0.2,0.5-0.3
					c0.6-0.5,1.2-1.4,2-2.7c-0.8,0.1-1.7,0.3-2.5,0.4l-0.3-0.9c0.2-0.1,0.3-0.2,0.4-0.4c0.8-1.3,1.6-2.8,2.2-4.5L18.2-3z M19.5,7.7
					c-1.4,0.5-3,0.9-4.7,1.3l-0.1-1c1.8-0.3,3.5-0.7,4.9-1.2V7.7z M22.5,5.3C21.8,6.9,21,8.3,20,9.5l-0.9-0.6c0.9-1.1,1.7-2.5,2.4-4
					L22.5,5.3z M26.6-2.5v6.6h-6.3v-6.6H26.6z M25.6-1.6h-4.3v4.7h4.3V-1.6z M27.5,8.9l-0.9,0.6c-0.6-1.3-1.4-2.6-2.4-4.2l0.8-0.5
					C26.2,6.4,27,7.8,27.5,8.9z"/>
				<path class="st4" d="M36.2-1.1c0.4-0.7,0.9-1.5,1.2-2.3l1,0.3c-0.3,0.7-0.7,1.4-1.1,1.9h2.7v5.8h-4.4v1.3h5.7v1h-5.7v2.7h-1V6.9
					h-5.7v-1h5.7V4.6h-4.4v-5.8H36.2z M34.5,1.3v-1.5h-3.4v1.5H34.5z M34.5,2.1h-3.4v1.6h3.4V2.1z M33.9-1.6l-0.8,0.4
					c-0.4-0.7-0.9-1.3-1.3-1.8l0.9-0.4C33.1-2.8,33.5-2.2,33.9-1.6z M35.5,1.3h3.4v-1.5h-3.4V1.3z M38.9,2.1h-3.4v1.6h3.4V2.1z"/>
				<path class="st4" d="M55,1.6v1h-3.9v5.2c0,0.4,0.2,0.6,0.6,0.6h1.6c0.3,0,0.5-0.1,0.6-0.3c0.2-0.3,0.3-1,0.3-2.3l0.9,0.3
					c-0.1,1.5-0.3,2.5-0.6,2.8c-0.2,0.3-0.6,0.4-1.1,0.4h-2c-0.9,0-1.3-0.4-1.3-1.3V2.5h-2.5v0.2c0,1.8-0.4,3.3-1.1,4.4
					c-0.7,1-1.8,1.8-3.4,2.4l-0.5-0.9c1.5-0.6,2.6-1.3,3.2-2.2c0.6-1,0.9-2.2,0.9-3.7V2.5H43v-1H55z M53.8-2.6v1h-9.7v-1H53.8z"/>
			</g>
		</g>
	</g>
</g>
<g id="middlegroup" transform="translate(0,0)">
	<g id="Link39" transform="translate(0,0)">
		<path class="st5" d="M180.5,282.6h38v-90h38"/>
		<g transform="translate(0.5, 0)">
			<polygon class="st6" points="251.5,197.1 257.5,192.6 251.5,188.1 			"/>
		</g>
		<path class="st7" d="M180.5,282.6h38"/>
		<path class="st7" d="M218.5,282.6v-90"/>
		<path class="st7" d="M218.5,192.6h38"/>
	</g>
	<g id="Link40" transform="translate(0,0)">
		<path class="st5" d="M180.5,282.6h38v106h37"/>
		<g transform="translate(0.5, 0)">
			<polygon class="st6" points="250.5,393.1 256.5,388.6 250.5,384.1 			"/>
		</g>
		<path class="st7" d="M180.5,282.6h38"/>
		<path class="st7" d="M218.5,282.6v106"/>
		<path class="st7" d="M218.5,388.6h37"/>
	</g>
	<g id="Link47" transform="translate(0,0)">
		<path class="st5" d="M370.5,190.6h36l0,0h36"/>
		<g transform="translate(0.5, 0)">
			<polygon class="st6" points="437.5,195.1 443.5,190.6 437.5,186.1 			"/>
		</g>
		<path class="st7" d="M370.5,190.6h36"/>
		<path class="st7" d="M406.5,190.6L406.5,190.6"/>
		<path class="st7" d="M406.5,190.6h36"/>
	</g>
	<g id="Link49" transform="translate(0,0)">
		<path class="st5" d="M370.5,190.6h36v66h36"/>
		<g transform="translate(0.5, 0)">
			<polygon class="st6" points="437.5,261.1 443.5,256.6 437.5,252.1 			"/>
		</g>
		<path class="st7" d="M370.5,190.6h36"/>
		<path class="st7" d="M406.5,190.6v66"/>
		<path class="st7" d="M406.5,256.6h36"/>
	</g>
	<g id="Link50" transform="translate(0,0)">
		<path class="st5" d="M370.5,389.6h36v-63h36"/>
		<g transform="translate(0.5, 0)">
			<polygon class="st6" points="437.5,331.1 443.5,326.6 437.5,322.1 			"/>
		</g>
		<path class="st7" d="M370.5,389.6h36"/>
		<path class="st7" d="M406.5,389.6v-63"/>
		<path class="st7" d="M406.5,326.6h36"/>
	</g>
	<g id="Link51" transform="translate(0,0)">
		<path class="st5" d="M370.5,389.6h36l0,0h36"/>
		<g transform="translate(0.5, 0)">
			<polygon class="st6" points="437.5,394.1 443.5,389.6 437.5,385.1 			"/>
		</g>
		<path class="st7" d="M370.5,389.6h36"/>
		<path class="st7" d="M406.5,389.6L406.5,389.6"/>
		<path class="st7" d="M406.5,389.6h36"/>
	</g>
	<g id="Link52" transform="translate(0,0)">
		<path class="st5" d="M370.5,389.6h36v89h36"/>
		<g transform="translate(0.5, 0)">
			<polygon class="st6" points="437.5,483.1 443.5,478.6 437.5,474.1 			"/>
		</g>
		<path class="st7" d="M370.5,389.6h36"/>
		<path class="st7" d="M406.5,389.6v89"/>
		<path class="st7" d="M406.5,478.6h36"/>
	</g>
	<g id="Link56" transform="translate(0,0)">
		<path class="st5" d="M544.5,478.6h45v-78h45"/>
		<g transform="translate(0.5, 0)">
			<polygon class="st6" points="629.5,405.1 635.5,400.6 629.5,396.1 			"/>
		</g>
		<path class="st7" d="M544.5,478.6h45"/>
		<path class="st7" d="M589.5,478.6v-78"/>
		<path class="st7" d="M589.5,400.6h45"/>
	</g>
	<g id="Link57" transform="translate(0,0)">
		<path class="st5" d="M544.5,478.6h45l0,0h45"/>
		<g transform="translate(0.5, 0)">
			<polygon class="st6" points="629.5,483.1 635.5,478.6 629.5,474.1 			"/>
		</g>
		<path class="st7" d="M544.5,478.6h45"/>
		<path class="st7" d="M589.5,478.6L589.5,478.6"/>
		<path class="st7" d="M589.5,478.6h45"/>
	</g>
	<g id="Link58" transform="translate(0,0)">
		<path class="st5" d="M544.5,478.6h45v50h45"/>
		<g transform="translate(0.5, 0)">
			<polygon class="st6" points="629.5,533.1 635.5,528.6 629.5,524.1 			"/>
		</g>
		<path class="st7" d="M544.5,478.6h45"/>
		<path class="st7" d="M589.5,478.6v50"/>
		<path class="st7" d="M589.5,528.6h45"/>
	</g>
	<g id="Link48" transform="translate(0,0)">
		<path class="st5" d="M370.5,190.6h36v-111h36"/>
		<g transform="translate(0.5, 0)">
			<polygon class="st6" points="437.5,84.1 443.5,79.6 437.5,75.1 			"/>
		</g>
		<path class="st7" d="M370.5,190.6h36"/>
		<path class="st7" d="M406.5,190.6v-111"/>
		<path class="st7" d="M406.5,79.6h36"/>
	</g>
	<g id="Link53" transform="translate(0,0)">
		<path class="st5" d="M544.5,79.6h45v-50h45"/>
		<g transform="translate(0.5, 0)">
			<polygon class="st6" points="629.5,34.1 635.5,29.6 629.5,25.1 			"/>
		</g>
		<path class="st7" d="M544.5,79.6h45"/>
		<path class="st7" d="M589.5,79.6v-50"/>
		<path class="st7" d="M589.5,29.6h45"/>
	</g>
	<g id="Link54" transform="translate(0,0)">
		<path class="st5" d="M544.5,79.6h45l0,0h45"/>
		<g transform="translate(0.5, 0)">
			<polygon class="st6" points="629.5,84.1 635.5,79.6 629.5,75.1 			"/>
		</g>
		<path class="st7" d="M544.5,79.6h45"/>
		<path class="st7" d="M589.5,79.6L589.5,79.6"/>
		<path class="st7" d="M589.5,79.6h45"/>
	</g>
	<g id="Link55" transform="translate(0,0)">
		<path class="st5" d="M544.5,79.6h45v82h45"/>
		<g transform="translate(0.5, 0)">
			<polygon class="st6" points="629.5,166.1 635.5,161.6 629.5,157.1 			"/>
		</g>
		<path class="st7" d="M544.5,79.6h45"/>
		<path class="st7" d="M589.5,79.6v82"/>
		<path class="st7" d="M589.5,161.6h45"/>
	</g>
</g>
<g id="maingroup" transform="translate(0,0)">
	<g id="RectEndPoint1" transform="translate(26,272)">
		<rect x="2" y="-3.9" class="st8" width="124" height="50"/>
		<rect y="-5.9" class="st9" width="124" height="50"/>
		<g transform="translate(20 9)">
			<g class="st3">
				<path class="st4" d="M3,12.1c-0.4,1.5-0.9,2.7-1.5,3.8l-0.9-0.5c0.6-1.1,1.1-2.2,1.4-3.5L3,12.1z M8,6.1
					c0.6-0.8,1.1-1.7,1.5-2.6l1,0.4C10,4.8,9.5,5.5,9.1,6.1h2.3v4.6H2.6V6.1H8z M5.8,5.7L5,6.1C4.5,5.3,4,4.6,3.5,4l0.9-0.4
					C4.8,4.2,5.4,4.9,5.8,5.7z M10.4,7.1H3.6v2.7h6.8V7.1z M5.4,16.3c-0.9,0-1.3-0.5-1.3-1.4V12h1v2.7c0,0.4,0.2,0.7,0.6,0.7h3.1
					c0.3,0,0.5-0.1,0.6-0.3c0.2-0.2,0.3-0.8,0.3-1.8l1,0.3c-0.1,1.3-0.3,2-0.6,2.3c-0.3,0.2-0.6,0.3-1.2,0.3H5.4z M8.6,13.6L7.7,14
					c-0.4-0.9-0.8-1.7-1.3-2.5l0.9-0.3C7.8,12,8.3,12.8,8.6,13.6z M13.3,15l-0.9,0.4c-0.5-1.3-1.1-2.5-1.7-3.5l1-0.3
					C12.3,12.7,12.9,13.8,13.3,15z"/>
				<path class="st4" d="M17.6,8.9H19c0.4-0.8,0.8-1.6,1-2.5L21,6.7c-0.3,0.8-0.6,1.5-1,2.1h1.7v1h-7v-1h1.9c-0.3-0.7-0.5-1.4-0.9-2
					l0.9-0.3C17,7.2,17.3,8,17.6,8.9z M17.8,5c-0.2-0.5-0.3-0.9-0.5-1.3l1-0.2C18.5,4,18.6,4.5,18.8,5h2.9v1H15V5H17.8z M21.1,16.4
					h-1v-0.8h-3.6v0.8h-1v-5.3h5.6V16.4z M20.1,14.7v-2.6h-3.6v2.6H20.1z M27,4.3V5c-0.4,1.5-0.9,2.8-1.4,4.1
					c1.1,1.3,1.6,2.4,1.6,3.2c0,0.9-0.2,1.5-0.5,1.8c-0.4,0.3-1.2,0.5-2.3,0.5L24,13.6c0.4,0,0.7,0.1,1,0.1c0.5,0,0.8-0.1,1-0.3
					c0.1-0.2,0.2-0.5,0.2-1c0-0.8-0.6-1.9-1.7-3.2C25,8,25.4,6.7,25.9,5.2h-2.5v11.3h-1V4.3H27z"/>
				<path class="st4" d="M32.2,6.3v4.3c0,1.6-0.3,2.9-0.8,3.8c-0.5,0.9-1.3,1.6-2.4,2.1l-0.5-0.9c1.1-0.5,1.8-1.1,2.2-1.9
					c0.4-0.8,0.6-1.9,0.6-3.2V6.3H32.2z M34.2,13h-0.9V5.2h-3.1v7.9h-0.9V4.2h5V13z M34.7,15.6L34,16.3c-0.5-0.7-1.1-1.4-1.9-2.2
					l0.6-0.6C33.5,14.2,34.1,14.9,34.7,15.6z M35,7.4V6.5h3.7V3.7h1v2.8h1.6v0.9h-1.6v7.7c0,0.9-0.4,1.3-1.1,1.3h-1.8l-0.2-1
					c0.6,0,1.1,0.1,1.7,0.1c0.3,0,0.5-0.2,0.5-0.7V8.4c-0.8,2.5-2.1,4.5-3.8,6.2l-0.5-0.9c1.8-1.6,3.1-3.7,4-6.3H35z"/>
				<path class="st4" d="M47.8,3.8c-0.2,0.4-0.3,0.7-0.5,1.1h6.1v0.8c-0.9,1-2,1.9-3.3,2.6c1.6,0.7,3.3,1.1,5.3,1.3L55,10.5
					c-2.2-0.3-4.2-0.8-5.9-1.7c-1.7,0.8-3.7,1.4-6,1.7l-0.5-1c2-0.3,3.8-0.7,5.4-1.3c-0.8-0.5-1.5-1-2.2-1.6C45.2,7.2,44.7,7.6,44,8
					l-0.6-0.8c1.7-1,2.8-2.1,3.4-3.5L47.8,3.8z M49.2,9.9c0,0.6-0.1,1.1-0.1,1.6H54c0,2.4-0.2,3.8-0.6,4.2c-0.4,0.5-1.1,0.7-2.1,0.7
					c-0.4,0-1,0-1.6-0.1l-0.3-0.9l1.7,0.1c0.8,0,1.4-0.2,1.6-0.5c0.2-0.3,0.3-1.2,0.4-2.6h-4.1c-0.1,0.4-0.3,0.7-0.4,1
					c-0.7,1.3-2.4,2.3-4.9,3.1l-0.7-0.8c2.3-0.7,3.8-1.5,4.6-2.5c0.2-0.3,0.3-0.5,0.4-0.8h-4.2v-0.9H48c0.1-0.5,0.2-1,0.2-1.6H49.2z
					 M52,5.8h-5.4L46.4,6c0.8,0.7,1.7,1.3,2.6,1.8C50.2,7.2,51.1,6.5,52,5.8z"/>
				<path class="st4" d="M60,6.2v4.6c0,1.6-0.3,2.8-0.7,3.8c-0.4,0.9-1.1,1.6-2.1,2l-0.5-0.8c0.9-0.5,1.6-1.1,1.9-1.8
					c0.3-0.8,0.5-1.8,0.5-3.1V6.2H60z M62,13h-0.9V5.2h-3V13h-0.9V4.2H62V13z M62.4,15.7l-0.7,0.7c-0.4-0.8-1.1-1.6-1.9-2.4l0.6-0.6
					C61.2,14.2,61.9,15,62.4,15.7z M64.6,10.4v4.8c0.6-0.2,1.3-0.6,1.9-1l0.2,0.9c-0.9,0.5-1.8,1-3,1.3l-0.4-0.9
					c0.2-0.1,0.3-0.2,0.3-0.4v-4.7h-1v-1h1V3.7h1v5.8h4.7v1h-2.5c0.6,2.2,1.6,3.9,2.8,5.2l-0.7,0.8c-1.3-1.3-2.3-3.3-3-5.9H64.6z
					 M69,4.9c-1,1.6-2.1,2.7-3.5,3.5L65,7.7c1.3-0.7,2.3-1.8,3.2-3.3L69,4.9z"/>
				<path class="st4" d="M70.7,10.1v-1h12.6v1h-8.4l-0.5,1.6h6.8c-0.1,2.2-0.3,3.6-0.6,4c-0.3,0.4-1,0.6-1.9,0.6
					c-0.7,0-1.3,0-1.9-0.1l-0.3-0.9c0.7,0.1,1.4,0.1,2,0.1c0.8,0,1.2-0.2,1.4-0.5c0.2-0.3,0.3-1.1,0.4-2.4h-7l0.7-2.5H70.7z
					 M81.1,4.2V8h-8.2V4.2H81.1z M80.1,5.1h-6.1v2h6.1V5.1z"/>
			</g>
		</g>
	</g>
	<g id="RectEndPoint2" transform="translate(261.4765625,172)">
		<rect x="2" y="-3.9" class="st8" width="109" height="50"/>
		<rect x="0" y="-5.9" class="st9" width="109" height="50"/>
		<g transform="translate(20 9)">
			<g class="st3">
				<path class="st4" d="M6.5,6.2V5.3H1V4.5h5.5V3.6h1v0.8H13v0.9H7.5v0.9h4.1v2.7H7.5v0.9h4.3v1.9h1.5v0.8h-1.5v1.8H7.5v0.9
					c0,0.8-0.4,1.2-1.2,1.2H4.5l-0.2-1c0.6,0,1.1,0.1,1.6,0.1c0.4,0,0.6-0.2,0.6-0.5v-0.7H1.9v-0.8h4.6v-1H0.6v-0.8h5.9v-1.1H1.9
					V9.8h4.6V8.9H2.4V6.2H6.5z M6.5,7H3.4v1.2h3.1V7z M10.6,7H7.5v1.2h3.1V7z M7.5,11.7h3.4v-1.1H7.5V11.7z M7.5,12.5v1h3.4v-1H7.5z
					"/>
				<path class="st4" d="M20,3.8v11.1h2V3.8h1v11.1h4.2v1H14.8v-1H19V3.8H20z M18,12.8L17,13.1c-0.5-2.2-1.1-4.4-1.9-6.5L16,6.3
					C16.7,8.2,17.4,10.4,18,12.8z M26.8,6.6c-0.6,2.4-1.3,4.6-2.1,6.4l-0.9-0.3c0.8-1.7,1.5-3.8,2.1-6.3L26.8,6.6z"/>
				<path class="st4" d="M41.3,9.5v1H28.7v-1H41.3z"/>
				<path class="st4" d="M45.6,8.9H47c0.4-0.8,0.8-1.6,1-2.5L49,6.7c-0.3,0.8-0.6,1.5-1,2.1h1.7v1h-7v-1h1.9c-0.3-0.7-0.5-1.4-0.9-2
					l0.9-0.3C45,7.2,45.3,8,45.6,8.9z M45.8,5c-0.2-0.5-0.3-0.9-0.5-1.3l1-0.2C46.5,4,46.6,4.5,46.8,5h2.9v1H43V5H45.8z M49.1,16.4
					h-1v-0.8h-3.6v0.8h-1v-5.3h5.6V16.4z M48.1,14.7v-2.6h-3.6v2.6H48.1z M55,4.3V5c-0.4,1.5-0.9,2.8-1.4,4.1
					c1.1,1.3,1.6,2.4,1.6,3.2c0,0.9-0.2,1.5-0.5,1.8c-0.4,0.3-1.2,0.5-2.3,0.5L52,13.6c0.4,0,0.7,0.1,1,0.1c0.5,0,0.8-0.1,1-0.3
					c0.1-0.2,0.2-0.5,0.2-1c0-0.8-0.6-1.9-1.7-3.2C53,8,53.4,6.7,53.9,5.2h-2.5v11.3h-1V4.3H55z"/>
			</g>
		</g>
	</g>
	<g id="RectEndPoint3" transform="translate(260.984375,371)">
		<rect x="2" y="-3.9" class="st8" width="110" height="50"/>
		<rect y="-5.9" class="st9" width="110" height="50"/>
		<g transform="translate(20 9)">
			<g class="st3">
				<path class="st4" d="M5,3.8c1.2,1.3,2.4,2.6,3.5,4.1L7.8,8.6C6.6,7,5.6,5.7,4.7,4.7c-1,1.5-2.2,3-3.6,4.2L0.5,8.2
					c1.4-1.2,2.6-2.7,3.7-4.4H5z M3,9.1v5.8c0,0.3,0.2,0.5,0.5,0.5h2.7c0.5,0,0.8-0.1,0.9-0.4c0.1-0.3,0.2-0.8,0.3-1.6l1,0.3
					c-0.1,1.2-0.3,1.9-0.5,2.2c-0.2,0.2-0.7,0.3-1.3,0.3H3.2c-0.8,0-1.2-0.4-1.2-1.1v-7h5v3.7c0,0.8-0.4,1.1-1.2,1.2
					c-0.5,0-1.1,0-1.5,0l-0.3-1c0.5,0.1,1,0.1,1.4,0.1C5.8,12.2,6,12,6,11.6V9.1H3z M9.5,16.4l-0.2-1c0.7,0,1.4,0.1,2,0.1
					c0.4,0,0.5-0.2,0.5-0.6V3.7h1v11.4c0,0.8-0.4,1.3-1.2,1.3H9.5z M10.3,4.9v8.7h-1V4.9H10.3z"/>
				<path class="st4" d="M16.8,12.4c-0.4,1.4-0.9,2.6-1.5,3.7l-0.8-0.5c0.7-1,1.1-2.1,1.4-3.4L16.8,12.4z M16.3,8.1
					c-0.2-0.6-0.5-1.1-0.7-1.6l0.9-0.3c0.3,0.5,0.5,1.1,0.7,1.9h1.5c0.3-0.6,0.5-1.3,0.7-1.9l0.9,0.3c-0.2,0.6-0.5,1.1-0.7,1.6h1.6
					V9h-2.7v1.6H21v0.9h-2.5v4c0,0.8-0.4,1.1-1.2,1.1h-0.8l-0.2-0.9c0.2,0,0.4,0.1,0.6,0.1c0.4,0,0.5-0.2,0.5-0.5v-3.7h-2.6v-0.9
					h2.6V9h-2.8V8.1H16.3z M17.5,4.9c-0.2-0.4-0.4-0.9-0.6-1.2l1-0.2c0.2,0.4,0.4,0.9,0.6,1.4h2.6v0.9h-6.3V4.9H17.5z M20.9,14.6
					l-0.8,0.3c-0.3-0.9-0.6-1.8-1-2.6l0.8-0.2C20.4,13,20.7,13.9,20.9,14.6z M27,4.7c-1.2,0.5-2.6,0.8-4.1,0.9v2.5h4.5v1H26v7.5h-1
					V9.1h-2.1v1.7c-0.1,2.4-0.6,4.3-1.6,5.8l-0.7-0.8c0.8-1.2,1.3-2.9,1.3-5v-6c1.7,0,3.2-0.4,4.6-0.9L27,4.7z"/>
				<path class="st4" d="M29.5,16.5L29,15.7c2.6-0.7,4.4-1.6,5.5-2.7c0.2-0.2,0.3-0.4,0.4-0.6h-5.8v-1h6.3c0.4-0.9,0.6-1.9,0.6-3
					V6.8h1v1.7c0,1.1-0.2,2.1-0.5,3h4.5v1H36c-0.1,0.2-0.3,0.4-0.4,0.6c2,0.8,3.8,1.7,5.5,2.8l-0.5,0.9c-1.8-1.2-3.6-2.2-5.5-2.9
					C33.9,14.9,32.1,15.9,29.5,16.5z M40.7,7.7h-1V6h-9.4v1.8h-1V5h5.3c-0.2-0.5-0.4-0.9-0.6-1.3l1-0.2C35.3,4,35.4,4.5,35.6,5h5.1
					V7.7z M33.8,10.2L33.2,11c-0.9-0.7-1.8-1.2-2.8-1.6L31,8.7C32,9.1,32.9,9.6,33.8,10.2z M35.1,8.3l-0.5,0.8
					c-0.9-0.7-1.9-1.2-2.9-1.6l0.5-0.8C33.3,7.1,34.2,7.6,35.1,8.3z"/>
				<path class="st4" d="M45.7,13.1c-0.9,0.3-2,0.6-3.1,0.9l-0.1-1c1.2-0.2,2.3-0.5,3.2-0.8V13.1z M42.8,5.2V4.3h4.4l-0.7,5.8h0.9
					c0,3.2-0.1,5-0.4,5.5c-0.3,0.5-0.9,0.7-1.7,0.7c-0.3,0-0.7,0-1,0L44,15.4c0.5,0.1,0.8,0.1,1,0.1c0.7,0,1.1-0.2,1.2-0.6
					c0.1-0.4,0.2-1.7,0.2-3.9h-3.6l0.7-4.8l0.9,0.1l-0.6,3.9h1.7l0.6-4.8H42.8z M47.9,9.3l-0.5-0.8c1.6-1.2,2.8-2.8,3.6-4.7h0.9
					c0.7,1.8,1.9,3.3,3.7,4.7L55,9.3c-0.6-0.5-1.1-1-1.6-1.5v0.9h-3.9V7.8C49,8.3,48.4,8.8,47.9,9.3z M52.3,15.1
					c0.5-1.5,1-3.3,1.4-5.5l1,0.2c-0.4,2-0.9,3.8-1.4,5.3h2.1v1h-7.6v-1H52.3z M50.2,13.9l-0.9,0.2c-0.3-1.4-0.7-2.7-1.2-3.9L49,9.9
					C49.5,11.1,49.9,12.4,50.2,13.9z M51.4,4.7c-0.6,1.2-1.2,2.2-1.9,3h3.9C52.5,6.8,51.9,5.8,51.4,4.7z M52.2,13.3l-0.9,0.2
					c-0.3-1.3-0.6-2.6-1-3.8l0.9-0.3C51.6,10.6,51.9,11.9,52.2,13.3z"/>
				<path class="st4" d="M67.6,7.3v0.9h-5.8c-0.7,1-1.4,1.7-1.9,2.1c2-0.1,4-0.2,5.9-0.3c-0.4-0.4-0.8-0.8-1.2-1.1l0.6-0.6
					c1.1,1,2.1,1.9,2.9,2.8l-0.7,0.7c-0.3-0.4-0.5-0.7-0.9-1c-1,0.1-2,0.1-3.1,0.2v1.6H68v0.9h-4.5v1.8h5.6v1H56.9v-1h5.6v-1.8H58
					v-0.9h4.4V11c-1.3,0.1-2.7,0.1-4,0.2l-0.2-0.9c0.1,0,0.2-0.1,0.2-0.1c0.6-0.3,1.3-0.9,2.2-2.1h-2.3V7.3H67.6z M63.6,5h5.2v2.7
					h-1V5.9h-9.7v1.8h-1V5h5.4c-0.2-0.4-0.4-0.9-0.7-1.2l1.1-0.2C63.2,4,63.4,4.5,63.6,5z"/>
			</g>
		</g>
	</g>
	<g id="RectEndPoint7" transform="translate(447.5,238)">
		<rect x="2" y="-3.9" class="st8" width="97" height="50"/>
		<rect y="-5.9" class="st9" width="97" height="50"/>
		<g transform="translate(20 9)">
			<g class="st3">
				<path class="st4" d="M1,5.4v-1h4.8v1H3.6C3.4,6.5,3.1,7.6,2.7,8.6h2.6v6.3H2.9V16H2v-5.9c-0.3,0.5-0.6,1-1,1.5l-0.5-0.9
					c1.1-1.6,1.8-3.4,2.2-5.4H1z M4.4,14V9.5H2.9V14H4.4z M8.6,10.2c-0.1,2.9-0.9,5-2.5,6.4l-0.7-0.7c1.4-1.2,2.2-3.1,2.3-5.7H6.1
					v-1h1.5V5.3H6.4v-1h6.7v1h-1.3v3.9h1.7v1h-1.7v6.3h-1v-6.3H8.6z M8.6,5.3v3.9h2.2V5.3H8.6z"/>
				<path class="st4" d="M16.7,4.1l1,0.2L16.9,7h2.5c0.3-1.1,0.5-2.2,0.7-3.4l1,0.1C20.9,4.9,20.7,6,20.4,7H27v1h-6.8
					c-0.2,0.6-0.3,1.1-0.5,1.6h5.7v0.9c-0.4,1.2-1.1,2.3-2.3,3.3c1.1,0.7,2.5,1.3,4.1,1.8l-0.5,0.9c-1.8-0.7-3.3-1.4-4.5-2.1
					c-1.1,0.8-2.6,1.5-4.3,2.2l-0.5-0.9c1.6-0.6,2.9-1.2,3.9-1.9C20.3,12.9,19.5,12,19,11c-1,2.2-2.3,4-3.9,5.3l-0.5-0.9
					c2-1.8,3.5-4.2,4.5-7.4h-3.5L16.7,4.1z M22.2,13.1c1-0.8,1.8-1.7,2.1-2.6h-4.5C20.3,11.4,21.1,12.3,22.2,13.1z M25.9,6l-0.7,0.7
					c-0.6-0.7-1.4-1.5-2.5-2.4l0.7-0.7C24.4,4.4,25.3,5.2,25.9,6z"/>
				<path class="st4" d="M32.3,4.1c-0.8,1.7-1.5,3.1-2.3,4.2c0.7-0.1,1.3-0.2,2-0.3c0.3-0.5,0.6-1.1,0.9-1.7l0.9,0.4
					c-1.3,2.4-2.5,4.1-3.3,5.1c1-0.2,2.1-0.5,3.1-0.9v0.9c-1.5,0.5-3,0.9-4.4,1.1L29,11.9c0.2-0.1,0.3-0.2,0.5-0.3
					c0.6-0.5,1.2-1.5,2-2.8C30.6,9,29.8,9.1,29,9.2l-0.3-0.9c0.2-0.1,0.3-0.2,0.4-0.4c0.8-1.2,1.5-2.6,2.2-4.2L32.3,4.1z M33.5,14.3
					c-1.3,0.6-2.8,1.1-4.5,1.5l-0.1-1c1.8-0.4,3.3-0.8,4.7-1.4V14.3z M40.2,15h1.2v1h-8.1v-1h1.2V4.3h5.7V15z M39.2,7.8V5.3h-3.7
					v2.5H39.2z M39.2,11.4V8.8h-3.7v2.6H39.2z M39.2,15v-2.7h-3.7V15H39.2z"/>
			</g>
		</g>
	</g>
	<g id="RectEndPoint8" transform="translate(447.5,172)">
		<rect x="2" y="-3.9" class="st8" width="97" height="50"/>
		<rect y="-5.9" class="st9" width="97" height="50"/>
		<g transform="translate(20 9)">
			<g class="st3">
				<path class="st4" d="M7.5,16.2c-0.9,0-1.6-0.1-2.2-0.3c-0.5-0.2-1-0.5-1.5-1c-0.2-0.2-0.4-0.3-0.5-0.3c-0.3,0-0.9,0.6-1.7,1.9
					l-0.8-0.7c0.8-1.2,1.4-1.9,2-2.1V9.5h-2V8.5h2.9v5.3C3.9,13.9,4,14,4.1,14.1c0.3,0.4,0.7,0.7,1.1,0.9c0.4,0.2,1.1,0.3,1.9,0.3
					c0.7,0,1.6,0,2.7,0c0.7,0,1.4,0,2.1,0c0.7,0,1.2,0,1.6-0.1l-0.3,1H9.9C9.1,16.3,8.3,16.2,7.5,16.2z M4.1,6L3.4,6.7
					C2.8,6,2,5.3,1,4.5l0.7-0.7C2.7,4.5,3.5,5.3,4.1,6z M13.2,7.6v1H8.8c-0.8,2-1.5,3.4-2.1,4.2c1.8-0.2,3.3-0.4,4.5-0.7
					c-0.3-0.8-0.7-1.5-1.1-2.3l0.8-0.3c0.8,1.3,1.4,2.8,2,4.4l-0.9,0.2c-0.1-0.4-0.3-0.9-0.5-1.2c-1.5,0.4-3.6,0.7-6.1,0.9L5.3,13
					c0.6-0.2,1.4-1.6,2.5-4.4H4.9v-1H13.2z M12.1,4.5v0.9H5.7V4.5H12.1z"/>
				<path class="st4" d="M19.5,14.7c-1.4,0.5-3,1-4.7,1.3l-0.1-1c1.8-0.3,3.5-0.7,4.9-1.3V14.7z M18,4c-0.7,1.8-1.3,3.2-2,4.3
					c0.6-0.1,1.2-0.2,1.8-0.3c0.3-0.5,0.5-1.1,0.8-1.7l0.9,0.3c-1.2,2.4-2.1,4.1-2.9,5.2c0.9-0.2,1.8-0.5,2.8-0.9v0.9
					c-1.4,0.6-2.7,1-4,1.2L15,12.1c0.2-0.1,0.3-0.2,0.5-0.3c0.5-0.6,1.1-1.5,1.8-2.9c-0.7,0.1-1.5,0.3-2.2,0.4l-0.3-0.9
					c0.2-0.1,0.3-0.2,0.4-0.4c0.7-1.3,1.3-2.8,1.8-4.4L18,4z M21.5,16.5h-1V8.2c-0.4,0.7-0.8,1.3-1.3,1.9l-0.3-1
					c1.1-1.7,1.9-3.4,2.4-5.4l1,0.2c-0.2,0.8-0.4,1.5-0.7,2.2h2.5c-0.2-0.7-0.5-1.5-0.8-2.2l1-0.3c0.3,0.8,0.6,1.6,0.7,2.3l-0.4,0.1
					h2.5v1H25v1.9h2v0.9h-2v1.9h2v0.9h-2v2.1h2.5v0.9h-6V16.5z M21.5,7v1.9H24V7H21.5z M21.5,11.8H24V9.9h-2.5V11.8z M21.5,14.8H24
					v-2.1h-2.5V14.8z"/>
				<path class="st4" d="M32.3,4.1c-0.8,1.7-1.5,3.1-2.3,4.2c0.7-0.1,1.3-0.2,2-0.3c0.3-0.5,0.6-1.1,0.9-1.7l0.9,0.4
					c-1.3,2.4-2.5,4.1-3.3,5.1c1-0.2,2.1-0.5,3.1-0.9v0.9c-1.5,0.5-3,0.9-4.4,1.1L29,11.9c0.2-0.1,0.3-0.2,0.5-0.3
					c0.6-0.5,1.2-1.5,2-2.8C30.6,9,29.8,9.1,29,9.2l-0.3-0.9c0.2-0.1,0.3-0.2,0.4-0.4c0.8-1.2,1.5-2.6,2.2-4.2L32.3,4.1z M33.5,14.3
					c-1.3,0.6-2.8,1.1-4.5,1.5l-0.1-1c1.8-0.4,3.3-0.8,4.7-1.4V14.3z M40.2,15h1.2v1h-8.1v-1h1.2V4.3h5.7V15z M39.2,7.8V5.3h-3.7
					v2.5H39.2z M39.2,11.4V8.8h-3.7v2.6H39.2z M39.2,15v-2.7h-3.7V15H39.2z"/>
			</g>
		</g>
	</g>
	<g id="RectEndPoint9" transform="translate(447.5,371)">
		<rect x="2" y="-3.9" class="st8" width="97" height="50"/>
		<rect y="-5.9" class="st9" width="97" height="50"/>
		<g transform="translate(20 9)">
			<g class="st3">
				<path class="st4" d="M5,3.8c1.2,1.3,2.4,2.6,3.5,4.1L7.8,8.6C6.6,7,5.6,5.7,4.7,4.7c-1,1.5-2.2,3-3.6,4.2L0.5,8.2
					c1.4-1.2,2.6-2.7,3.7-4.4H5z M3,9.1v5.8c0,0.3,0.2,0.5,0.5,0.5h2.7c0.5,0,0.8-0.1,0.9-0.4c0.1-0.3,0.2-0.8,0.3-1.6l1,0.3
					c-0.1,1.2-0.3,1.9-0.5,2.2c-0.2,0.2-0.7,0.3-1.3,0.3H3.2c-0.8,0-1.2-0.4-1.2-1.1v-7h5v3.7c0,0.8-0.4,1.1-1.2,1.2
					c-0.5,0-1,0-1.5,0l-0.3-1c0.5,0.1,1,0.1,1.4,0.1C5.8,12.2,6,12,6,11.6V9.1H3z M9.5,16.4l-0.2-1c0.7,0,1.4,0.1,2,0.1
					c0.3,0,0.5-0.2,0.5-0.6V3.7h1v11.4c0,0.8-0.4,1.3-1.2,1.3H9.5z M10.3,4.9v8.7h-1V4.9H10.3z"/>
				<path class="st4" d="M16.8,12.4c-0.4,1.4-0.9,2.6-1.5,3.7l-0.8-0.5c0.7-1,1.1-2.1,1.4-3.4L16.8,12.4z M16.3,8.1
					c-0.2-0.6-0.5-1.1-0.7-1.6l0.9-0.3c0.3,0.5,0.5,1.1,0.7,1.9h1.5c0.3-0.6,0.5-1.3,0.7-1.9l0.9,0.3c-0.2,0.6-0.5,1.1-0.7,1.6h1.6
					V9h-2.7v1.6H21v0.9h-2.5v4c0,0.8-0.4,1.1-1.2,1.1h-0.8l-0.2-0.9c0.2,0,0.4,0.1,0.6,0.1c0.4,0,0.5-0.2,0.5-0.5v-3.7h-2.6v-0.9
					h2.6V9h-2.8V8.1H16.3z M17.5,4.9c-0.2-0.4-0.4-0.9-0.6-1.2l1-0.2c0.2,0.4,0.4,0.9,0.6,1.4h2.6v0.9h-6.3V4.9H17.5z M20.9,14.6
					l-0.8,0.3c-0.3-0.9-0.6-1.8-1-2.6l0.8-0.2C20.4,13,20.7,13.9,20.9,14.6z M27,4.7c-1.2,0.5-2.6,0.8-4.1,0.9v2.5h4.5v1H26v7.5h-1
					V9.1h-2.1v1.7c-0.1,2.4-0.6,4.3-1.6,5.8l-0.7-0.8c0.8-1.2,1.3-2.9,1.3-5v-6c1.7,0,3.2-0.4,4.6-0.9L27,4.7z"/>
				<path class="st4" d="M41.3,9.5v1H28.7v-1H41.3z"/>
				<path class="st4" d="M46.3,4.1c-0.8,1.7-1.5,3.1-2.3,4.2c0.7-0.1,1.3-0.2,2-0.3c0.3-0.5,0.6-1.1,0.9-1.7l0.9,0.4
					c-1.3,2.4-2.5,4.1-3.3,5.1c1-0.2,2.1-0.5,3.1-0.9v0.9c-1.5,0.5-3,0.9-4.4,1.1L43,11.9c0.2-0.1,0.3-0.2,0.5-0.3
					c0.6-0.5,1.2-1.5,2-2.8C44.6,9,43.8,9.1,43,9.2l-0.3-0.9c0.2-0.1,0.3-0.2,0.4-0.4c0.8-1.2,1.5-2.6,2.2-4.2L46.3,4.1z M47.5,14.3
					c-1.3,0.6-2.8,1.1-4.5,1.5l-0.1-1c1.8-0.4,3.3-0.8,4.7-1.4V14.3z M54.2,15h1.2v1h-8.1v-1h1.2V4.3h5.7V15z M53.2,7.8V5.3h-3.7
					v2.5H53.2z M53.2,11.4V8.8h-3.7v2.6H53.2z M53.2,15v-2.7h-3.7V15H53.2z"/>
			</g>
		</g>
	</g>
	<g id="RectEndPoint10" transform="translate(447.5,308)">
		<rect x="2" y="-3.9" class="st8" width="97" height="50"/>
		<rect y="-5.9" class="st9" width="97" height="50"/>
		<g transform="translate(20 9)">
			<g class="st3">
				<path class="st4" d="M5,3.8c1.2,1.3,2.4,2.6,3.5,4.1L7.8,8.6C6.6,7,5.6,5.7,4.7,4.7c-1,1.5-2.2,3-3.6,4.2L0.5,8.2
					c1.4-1.2,2.6-2.7,3.7-4.4H5z M3,9.1v5.8c0,0.3,0.2,0.5,0.5,0.5h2.7c0.5,0,0.8-0.1,0.9-0.4c0.1-0.3,0.2-0.8,0.3-1.6l1,0.3
					c-0.1,1.2-0.3,1.9-0.5,2.2c-0.2,0.2-0.7,0.3-1.3,0.3H3.2c-0.8,0-1.2-0.4-1.2-1.1v-7h5v3.7c0,0.8-0.4,1.1-1.2,1.2
					c-0.5,0-1,0-1.5,0l-0.3-1c0.5,0.1,1,0.1,1.4,0.1C5.8,12.2,6,12,6,11.6V9.1H3z M9.5,16.4l-0.2-1c0.7,0,1.4,0.1,2,0.1
					c0.3,0,0.5-0.2,0.5-0.6V3.7h1v11.4c0,0.8-0.4,1.3-1.2,1.3H9.5z M10.3,4.9v8.7h-1V4.9H10.3z"/>
				<path class="st4" d="M16.8,12.4c-0.4,1.4-0.9,2.6-1.5,3.7l-0.8-0.5c0.7-1,1.1-2.1,1.4-3.4L16.8,12.4z M16.3,8.1
					c-0.2-0.6-0.5-1.1-0.7-1.6l0.9-0.3c0.3,0.5,0.5,1.1,0.7,1.9h1.5c0.3-0.6,0.5-1.3,0.7-1.9l0.9,0.3c-0.2,0.6-0.5,1.1-0.7,1.6h1.6
					V9h-2.7v1.6H21v0.9h-2.5v4c0,0.8-0.4,1.1-1.2,1.1h-0.8l-0.2-0.9c0.2,0,0.4,0.1,0.6,0.1c0.4,0,0.5-0.2,0.5-0.5v-3.7h-2.6v-0.9
					h2.6V9h-2.8V8.1H16.3z M17.5,4.9c-0.2-0.4-0.4-0.9-0.6-1.2l1-0.2c0.2,0.4,0.4,0.9,0.6,1.4h2.6v0.9h-6.3V4.9H17.5z M20.9,14.6
					l-0.8,0.3c-0.3-0.9-0.6-1.8-1-2.6l0.8-0.2C20.4,13,20.7,13.9,20.9,14.6z M27,4.7c-1.2,0.5-2.6,0.8-4.1,0.9v2.5h4.5v1H26v7.5h-1
					V9.1h-2.1v1.7c-0.1,2.4-0.6,4.3-1.6,5.8l-0.7-0.8c0.8-1.2,1.3-2.9,1.3-5v-6c1.7,0,3.2-0.4,4.6-0.9L27,4.7z"/>
				<path class="st4" d="M41.3,9.5v1H28.7v-1H41.3z"/>
				<path class="st4" d="M46.3,4.1c-0.8,1.7-1.5,3.1-2.3,4.2c0.7-0.1,1.3-0.2,2-0.3c0.3-0.5,0.6-1.1,0.9-1.7l0.9,0.4
					c-1.3,2.4-2.5,4.1-3.3,5.1c1-0.2,2.1-0.5,3.1-0.9v0.9c-1.5,0.5-3,0.9-4.4,1.1L43,11.9c0.2-0.1,0.3-0.2,0.5-0.3
					c0.6-0.5,1.2-1.5,2-2.8C44.6,9,43.8,9.1,43,9.2l-0.3-0.9c0.2-0.1,0.3-0.2,0.4-0.4c0.8-1.2,1.5-2.6,2.2-4.2L46.3,4.1z M47.5,14.3
					c-1.3,0.6-2.8,1.1-4.5,1.5l-0.1-1c1.8-0.4,3.3-0.8,4.7-1.4V14.3z M54.2,15h1.2v1h-8.1v-1h1.2V4.3h5.7V15z M53.2,7.8V5.3h-3.7
					v2.5H53.2z M53.2,11.4V8.8h-3.7v2.6H53.2z M53.2,15v-2.7h-3.7V15H53.2z"/>
			</g>
		</g>
	</g>
	<g id="RectEndPoint11" transform="translate(447.5,460)">
		<rect x="2" y="-3.9" class="st8" width="97" height="50"/>
		<rect y="-5.9" class="st9" width="97" height="50"/>
		<g transform="translate(20 9)">
			<g class="st3">
				<path class="st4" d="M4.3,4.1C3.5,5.8,2.8,7.2,2,8.2C2.7,8.2,3.3,8.1,4,8c0.3-0.5,0.6-1.1,0.9-1.7l0.9,0.4
					C4.5,9,3.4,10.7,2.5,11.8c1-0.2,2.1-0.5,3.1-0.9v0.9c-1.5,0.5-3,0.9-4.4,1.1L1,11.9c0.2-0.1,0.3-0.2,0.5-0.3
					c0.6-0.5,1.2-1.5,2-2.8C2.6,9,1.8,9.1,1,9.2L0.7,8.3C0.9,8.2,1,8.1,1.2,7.9C2,6.7,2.7,5.3,3.3,3.7L4.3,4.1z M5.5,14.3
					c-1.3,0.6-2.8,1.1-4.5,1.5l-0.1-1c1.8-0.4,3.3-0.8,4.7-1.4V14.3z M12.2,15h1.2v1H5.3v-1h1.2V4.3h5.7V15z M11.2,7.8V5.3H7.5v2.5
					H11.2z M11.2,11.4V8.8H7.5v2.6H11.2z M11.2,15v-2.7H7.5V15H11.2z"/>
				<path class="st4" d="M18.2,4c-0.8,1.8-1.5,3.3-2.3,4.4c0.7-0.1,1.3-0.2,2-0.3c0.3-0.6,0.6-1.1,1-1.8l0.9,0.3
					c-1.3,2.4-2.4,4.1-3.3,5.1c1-0.2,2-0.5,3.1-0.9v0.9c-1.5,0.6-3,1-4.4,1.2l-0.3-0.9c0.2-0.1,0.3-0.2,0.5-0.3
					c0.6-0.5,1.2-1.4,2-2.7c-0.8,0.1-1.7,0.3-2.5,0.4l-0.3-0.9c0.2-0.1,0.3-0.2,0.4-0.4c0.8-1.3,1.6-2.8,2.2-4.5L18.2,4z M19.5,14.7
					c-1.4,0.5-3,0.9-4.7,1.3l-0.1-1c1.8-0.3,3.5-0.7,4.9-1.2V14.7z M22.5,12.3c-0.7,1.6-1.5,3.1-2.4,4.2l-0.9-0.6
					c0.9-1.1,1.7-2.5,2.4-4L22.5,12.3z M26.6,4.5v6.6h-6.3V4.5H26.6z M25.6,5.4h-4.3v4.7h4.3V5.4z M27.5,15.9l-0.9,0.6
					c-0.6-1.3-1.4-2.6-2.4-4.2l0.8-0.5C26.2,13.4,27,14.8,27.5,15.9z"/>
				<path class="st4" d="M36.2,5.9c0.4-0.7,0.9-1.5,1.2-2.3l1,0.3c-0.3,0.7-0.7,1.4-1.1,1.9h2.7v5.8h-4.4v1.3h5.7v1h-5.7v2.7h-1
					v-2.7h-5.7v-1h5.7v-1.3h-4.4V5.9H36.2z M34.5,8.3V6.7h-3.4v1.5H34.5z M34.5,9.1h-3.4v1.6h3.4V9.1z M33.9,5.4l-0.8,0.4
					c-0.4-0.7-0.9-1.3-1.3-1.8l0.9-0.4C33.1,4.2,33.5,4.8,33.9,5.4z M35.5,8.3h3.4V6.7h-3.4V8.3z M38.9,9.1h-3.4v1.6h3.4V9.1z"/>
				<path class="st4" d="M55,8.6v1h-3.9v5.2c0,0.4,0.2,0.6,0.6,0.6h1.6c0.3,0,0.5-0.1,0.6-0.3c0.2-0.3,0.3-1,0.3-2.3l0.9,0.3
					c-0.1,1.5-0.3,2.5-0.6,2.8c-0.2,0.3-0.6,0.4-1.1,0.4h-2c-0.9,0-1.3-0.4-1.3-1.3V9.5h-2.5v0.2c0,1.8-0.4,3.3-1.1,4.4
					c-0.7,1-1.8,1.8-3.4,2.4l-0.5-0.9c1.5-0.6,2.6-1.3,3.2-2.2c0.6-1,0.9-2.2,0.9-3.7V9.5H43v-1H55z M53.8,4.5v1h-9.7v-1H53.8z"/>
			</g>
		</g>
	</g>
	<g id="RectEndPoint18" transform="translate(640,11)">
		<rect x="2" y="-3.9" class="st8" width="110" height="50"/>
		<rect y="-5.9" class="st9" width="110" height="50"/>
		<g transform="translate(20 9)">
			<g class="st3">
				<path class="st4" d="M1.4,16.5l-0.7-0.7c0.4-1.3,0.7-2.9,0.7-4.8V4.2h3.6v11.1c0,0.7-0.4,1.1-1.1,1.1h-1l-0.2-0.9
					c0.3,0,0.6,0,0.9,0C3.8,15.6,4,15.4,4,15v-3.2H2.3C2.2,13.7,1.9,15.2,1.4,16.5z M4,5.2H2.3v2.4H4V5.2z M2.3,10.9H4V8.5H2.3V10.9
					z M6.9,5.6C6.7,5.1,6.5,4.7,6.2,4.3L7,4c0.3,0.4,0.5,1,0.7,1.6h0.7c0.2-0.6,0.3-1.3,0.4-2l1,0.1C9.8,4.4,9.7,5,9.5,5.6h1.1
					c0.3-0.5,0.6-1.1,0.8-1.7l0.9,0.3c-0.3,0.5-0.5,1-0.8,1.4h1.2v0.8H9.2C9.1,6.8,8.9,7.2,8.8,7.6h4.4v0.9H11
					c0.6,0.7,1.4,1.3,2.6,1.7L13.1,11c-0.6-0.3-1.1-0.6-1.6-0.9v0.1c-0.1,0.8-0.2,1.5-0.3,2h1.5c0,2.3-0.2,3.6-0.5,3.9
					c-0.3,0.3-0.8,0.4-1.7,0.4H9.7l-0.3-0.9c0.3,0,0.6,0,0.9,0c0.5,0,0.8-0.1,1-0.2c0.2-0.2,0.3-1,0.3-2.4H6.5
					c0.3-0.8,0.5-1.5,0.6-2.1L8,11c-0.1,0.4-0.2,0.8-0.3,1.2h2.6c0.1-0.5,0.3-1,0.3-1.7H6.8v-0.5c-0.4,0.4-0.9,0.7-1.4,1L5,10.3
					c0.9-0.5,1.6-1.1,2.2-1.8H5.4V7.6h2.3c0.2-0.4,0.4-0.7,0.5-1.1H5.8V5.6H6.9z M10.6,13.9v0.9h-5v-0.9H10.6z M11.1,9.7
					c-0.5-0.4-0.8-0.9-1.1-1.3H8.3C7.9,8.9,7.6,9.4,7.2,9.7H11.1z"/>
				<path class="st4" d="M17.5,8v6.2c0.4-0.4,0.9-0.8,1.4-1.4l0.3,1.1c-0.8,0.8-1.7,1.5-2.6,2.2l-0.4-0.9c0.2-0.2,0.3-0.4,0.3-0.6
					V8.9h-1.9V8H17.5z M18.5,6l-0.7,0.7c-0.6-0.7-1.3-1.4-2.3-2.2l0.7-0.7C17.1,4.5,17.9,5.2,18.5,6z M20.9,9.2V5.3H19v-1h6.4v4.3
					c0,2.8,0.2,4.7,0.6,5.9c0.2,0.4,0.3,0.7,0.5,0.7c0.1,0,0.1-0.2,0.2-0.5c0-0.4,0.1-1,0.1-1.7l0.8,0.4c-0.1,1.3-0.2,2.2-0.3,2.6
					c-0.1,0.3-0.3,0.4-0.5,0.4c-0.5,0-1-0.3-1.4-1c-0.7-1.2-1-3.4-1-6.7V5.3h-2.6v3.8h1.9v1h-1.9v6.4h-1v-6.4h-2.1v-1H20.9z"/>
				<path class="st4" d="M41.3,8.4v1h-6.7c-1.3,2.6-2.4,4.5-3.4,5.5c2.5-0.1,5-0.4,7.5-0.7c-0.5-0.9-1.1-1.8-1.7-2.8l0.8-0.5
					c1.3,1.9,2.3,3.6,3,5.1L40,16.6c-0.2-0.5-0.5-1-0.7-1.5c-2.8,0.4-5.9,0.6-9.3,0.9l-0.3-1c0.1,0,0.2-0.1,0.2-0.1
					c0.9-0.7,2.1-2.5,3.6-5.5h-4.7v-1H41.3z M40.1,4.5v1h-10v-1H40.1z"/>
				<path class="st4" d="M46,6.2v4.6c0,1.6-0.3,2.8-0.7,3.8c-0.4,0.9-1.1,1.6-2.1,2l-0.5-0.8c0.9-0.5,1.6-1.1,1.9-1.8
					c0.3-0.8,0.5-1.8,0.5-3.1V6.2H46z M48,13h-0.9V5.2h-3V13h-0.9V4.2H48V13z M48.4,15.7l-0.7,0.7c-0.4-0.8-1.1-1.6-1.9-2.4l0.6-0.6
					C47.2,14.2,47.9,15,48.4,15.7z M50.6,10.4v4.8c0.6-0.2,1.3-0.6,1.9-1l0.2,0.9c-0.9,0.5-1.8,1-3,1.3l-0.4-0.9
					c0.2-0.1,0.3-0.2,0.3-0.4v-4.7h-1v-1h1V3.7h1v5.8h4.7v1h-2.5c0.6,2.2,1.6,3.9,2.8,5.2l-0.7,0.8c-1.3-1.3-2.3-3.3-3-5.9H50.6z
					 M55,4.9c-1,1.6-2.1,2.7-3.5,3.5L51,7.7c1.3-0.7,2.3-1.8,3.2-3.3L55,4.9z"/>
				<path class="st4" d="M56.7,10.1v-1h12.6v1h-8.4l-0.5,1.6h6.8c-0.1,2.2-0.3,3.6-0.6,4c-0.3,0.4-1,0.6-1.9,0.6
					c-0.7,0-1.3,0-1.9-0.1l-0.3-0.9c0.7,0.1,1.4,0.1,2,0.1c0.8,0,1.2-0.2,1.4-0.5c0.2-0.3,0.3-1.1,0.4-2.4h-7l0.7-2.5H56.7z
					 M67.1,4.2V8h-8.2V4.2H67.1z M66.1,5.1h-6.1v2h6.1V5.1z"/>
			</g>
		</g>
	</g>
	<g id="RectEndPoint19" transform="translate(640,142.5)">
		<rect x="2" y="-3.9" class="st8" width="110" height="50"/>
		<rect y="-5.9" class="st9" width="110" height="50"/>
		<g transform="translate(20 9)">
			<g class="st3">
				<path class="st4" d="M1.4,16.5l-0.7-0.7c0.4-1.3,0.7-2.9,0.7-4.8V4.2h3.6v11.1c0,0.7-0.4,1.1-1.1,1.1h-1l-0.2-0.9
					c0.3,0,0.6,0,0.9,0C3.8,15.6,4,15.4,4,15v-3.2H2.3C2.2,13.7,1.9,15.2,1.4,16.5z M4,5.2H2.3v2.4H4V5.2z M2.3,10.9H4V8.5H2.3V10.9
					z M6.9,5.6C6.7,5.1,6.5,4.7,6.2,4.3L7,4c0.3,0.4,0.5,1,0.7,1.6h0.7c0.2-0.6,0.3-1.3,0.4-2l1,0.1C9.8,4.4,9.7,5,9.5,5.6h1.1
					c0.3-0.5,0.6-1.1,0.8-1.7l0.9,0.3c-0.3,0.5-0.5,1-0.8,1.4h1.2v0.8H9.2C9.1,6.8,8.9,7.2,8.8,7.6h4.4v0.9H11
					c0.6,0.7,1.4,1.3,2.6,1.7L13.1,11c-0.6-0.3-1.1-0.6-1.6-0.9v0.1c-0.1,0.8-0.2,1.5-0.3,2h1.5c0,2.3-0.2,3.6-0.5,3.9
					c-0.3,0.3-0.8,0.4-1.7,0.4H9.7l-0.3-0.9c0.3,0,0.6,0,0.9,0c0.5,0,0.8-0.1,1-0.2c0.2-0.2,0.3-1,0.3-2.4H6.5
					c0.3-0.8,0.5-1.5,0.6-2.1L8,11c-0.1,0.4-0.2,0.8-0.3,1.2h2.6c0.1-0.5,0.3-1,0.3-1.7H6.8v-0.5c-0.4,0.4-0.9,0.7-1.4,1L5,10.3
					c0.9-0.5,1.6-1.1,2.2-1.8H5.4V7.6h2.3c0.2-0.4,0.4-0.7,0.5-1.1H5.8V5.6H6.9z M10.6,13.9v0.9h-5v-0.9H10.6z M11.1,9.7
					c-0.5-0.4-0.8-0.9-1.1-1.3H8.3C7.9,8.9,7.6,9.4,7.2,9.7H11.1z"/>
				<path class="st4" d="M17.5,8v6.2c0.4-0.4,0.9-0.8,1.4-1.4l0.3,1.1c-0.8,0.8-1.7,1.5-2.6,2.2l-0.4-0.9c0.2-0.2,0.3-0.4,0.3-0.6
					V8.9h-1.9V8H17.5z M18.5,6l-0.7,0.7c-0.6-0.7-1.3-1.4-2.3-2.2l0.7-0.7C17.1,4.5,17.9,5.2,18.5,6z M20.9,9.2V5.3H19v-1h6.4v4.3
					c0,2.8,0.2,4.7,0.6,5.9c0.2,0.4,0.3,0.7,0.5,0.7c0.1,0,0.1-0.2,0.2-0.5c0-0.4,0.1-1,0.1-1.7l0.8,0.4c-0.1,1.3-0.2,2.2-0.3,2.6
					c-0.1,0.3-0.3,0.4-0.5,0.4c-0.5,0-1-0.3-1.4-1c-0.7-1.2-1-3.4-1-6.7V5.3h-2.6v3.8h1.9v1h-1.9v6.4h-1v-6.4h-2.1v-1H20.9z"/>
				<path class="st4" d="M41.3,8.4v1h-6.7c-1.3,2.6-2.4,4.5-3.4,5.5c2.5-0.1,5-0.4,7.5-0.7c-0.5-0.9-1.1-1.8-1.7-2.8l0.8-0.5
					c1.3,1.9,2.3,3.6,3,5.1L40,16.6c-0.2-0.5-0.5-1-0.7-1.5c-2.8,0.4-5.9,0.6-9.3,0.9l-0.3-1c0.1,0,0.2-0.1,0.2-0.1
					c0.9-0.7,2.1-2.5,3.6-5.5h-4.7v-1H41.3z M40.1,4.5v1h-10v-1H40.1z"/>
				<path class="st4" d="M46,6.2v4.6c0,1.6-0.3,2.8-0.7,3.8c-0.4,0.9-1.1,1.6-2.1,2l-0.5-0.8c0.9-0.5,1.6-1.1,1.9-1.8
					c0.3-0.8,0.5-1.8,0.5-3.1V6.2H46z M48,13h-0.9V5.2h-3V13h-0.9V4.2H48V13z M48.4,15.7l-0.7,0.7c-0.4-0.8-1.1-1.6-1.9-2.4l0.6-0.6
					C47.2,14.2,47.9,15,48.4,15.7z M50.6,10.4v4.8c0.6-0.2,1.3-0.6,1.9-1l0.2,0.9c-0.9,0.5-1.8,1-3,1.3l-0.4-0.9
					c0.2-0.1,0.3-0.2,0.3-0.4v-4.7h-1v-1h1V3.7h1v5.8h4.7v1h-2.5c0.6,2.2,1.6,3.9,2.8,5.2l-0.7,0.8c-1.3-1.3-2.3-3.3-3-5.9H50.6z
					 M55,4.9c-1,1.6-2.1,2.7-3.5,3.5L51,7.7c1.3-0.7,2.3-1.8,3.2-3.3L55,4.9z"/>
				<path class="st4" d="M56.7,10.1v-1h12.6v1h-8.4l-0.5,1.6h6.8c-0.1,2.2-0.3,3.6-0.6,4c-0.3,0.4-1,0.6-1.9,0.6
					c-0.7,0-1.3,0-1.9-0.1l-0.3-0.9c0.7,0.1,1.4,0.1,2,0.1c0.8,0,1.2-0.2,1.4-0.5c0.2-0.3,0.3-1.1,0.4-2.4h-7l0.7-2.5H56.7z
					 M67.1,4.2V8h-8.2V4.2H67.1z M66.1,5.1h-6.1v2h6.1V5.1z"/>
			</g>
		</g>
	</g>
	<g id="RectEndPoint20" transform="translate(640,80)">
		<rect x="2" y="-3.9" class="st8" width="110" height="50"/>
		<rect y="-5.9" class="st9" width="110" height="50"/>
		<g transform="translate(20 9)">
			<g class="st3">
				<path class="st4" d="M1.4,16.5l-0.7-0.7c0.4-1.3,0.7-2.9,0.7-4.8V4.2h3.6v11.1c0,0.7-0.4,1.1-1.1,1.1h-1l-0.2-0.9
					c0.3,0,0.6,0,0.9,0C3.8,15.6,4,15.4,4,15v-3.2H2.3C2.2,13.7,1.9,15.2,1.4,16.5z M4,5.2H2.3v2.4H4V5.2z M2.3,10.9H4V8.5H2.3V10.9
					z M6.9,5.6C6.7,5.1,6.5,4.7,6.2,4.3L7,4c0.3,0.4,0.5,1,0.7,1.6h0.7c0.2-0.6,0.3-1.3,0.4-2l1,0.1C9.8,4.4,9.7,5,9.5,5.6h1.1
					c0.3-0.5,0.6-1.1,0.8-1.7l0.9,0.3c-0.3,0.5-0.5,1-0.8,1.4h1.2v0.8H9.2C9.1,6.8,8.9,7.2,8.8,7.6h4.4v0.9H11
					c0.6,0.7,1.4,1.3,2.6,1.7L13.1,11c-0.6-0.3-1.1-0.6-1.6-0.9v0.1c-0.1,0.8-0.2,1.5-0.3,2h1.5c0,2.3-0.2,3.6-0.5,3.9
					c-0.3,0.3-0.8,0.4-1.7,0.4H9.7l-0.3-0.9c0.3,0,0.6,0,0.9,0c0.5,0,0.8-0.1,1-0.2c0.2-0.2,0.3-1,0.3-2.4H6.5
					c0.3-0.8,0.5-1.5,0.6-2.1L8,11c-0.1,0.4-0.2,0.8-0.3,1.2h2.6c0.1-0.5,0.3-1,0.3-1.7H6.8v-0.5c-0.4,0.4-0.9,0.7-1.4,1L5,10.3
					c0.9-0.5,1.6-1.1,2.2-1.8H5.4V7.6h2.3c0.2-0.4,0.4-0.7,0.5-1.1H5.8V5.6H6.9z M10.6,13.9v0.9h-5v-0.9H10.6z M11.1,9.7
					c-0.5-0.4-0.8-0.9-1.1-1.3H8.3C7.9,8.9,7.6,9.4,7.2,9.7H11.1z"/>
				<path class="st4" d="M17.5,8v6.2c0.4-0.4,0.9-0.8,1.4-1.4l0.3,1.1c-0.8,0.8-1.7,1.5-2.6,2.2l-0.4-0.9c0.2-0.2,0.3-0.4,0.3-0.6
					V8.9h-1.9V8H17.5z M18.5,6l-0.7,0.7c-0.6-0.7-1.3-1.4-2.3-2.2l0.7-0.7C17.1,4.5,17.9,5.2,18.5,6z M20.9,9.2V5.3H19v-1h6.4v4.3
					c0,2.8,0.2,4.7,0.6,5.9c0.2,0.4,0.3,0.7,0.5,0.7c0.1,0,0.1-0.2,0.2-0.5c0-0.4,0.1-1,0.1-1.7l0.8,0.4c-0.1,1.3-0.2,2.2-0.3,2.6
					c-0.1,0.3-0.3,0.4-0.5,0.4c-0.5,0-1-0.3-1.4-1c-0.7-1.2-1-3.4-1-6.7V5.3h-2.6v3.8h1.9v1h-1.9v6.4h-1v-6.4h-2.1v-1H20.9z"/>
				<path class="st4" d="M41.3,8.4v1h-6.7c-1.3,2.6-2.4,4.5-3.4,5.5c2.5-0.1,5-0.4,7.5-0.7c-0.5-0.9-1.1-1.8-1.7-2.8l0.8-0.5
					c1.3,1.9,2.3,3.6,3,5.1L40,16.6c-0.2-0.5-0.5-1-0.7-1.5c-2.8,0.4-5.9,0.6-9.3,0.9l-0.3-1c0.1,0,0.2-0.1,0.2-0.1
					c0.9-0.7,2.1-2.5,3.6-5.5h-4.7v-1H41.3z M40.1,4.5v1h-10v-1H40.1z"/>
				<path class="st4" d="M46,6.2v4.6c0,1.6-0.3,2.8-0.7,3.8c-0.4,0.9-1.1,1.6-2.1,2l-0.5-0.8c0.9-0.5,1.6-1.1,1.9-1.8
					c0.3-0.8,0.5-1.8,0.5-3.1V6.2H46z M48,13h-0.9V5.2h-3V13h-0.9V4.2H48V13z M48.4,15.7l-0.7,0.7c-0.4-0.8-1.1-1.6-1.9-2.4l0.6-0.6
					C47.2,14.2,47.9,15,48.4,15.7z M50.6,10.4v4.8c0.6-0.2,1.3-0.6,1.9-1l0.2,0.9c-0.9,0.5-1.8,1-3,1.3l-0.4-0.9
					c0.2-0.1,0.3-0.2,0.3-0.4v-4.7h-1v-1h1V3.7h1v5.8h4.7v1h-2.5c0.6,2.2,1.6,3.9,2.8,5.2l-0.7,0.8c-1.3-1.3-2.3-3.3-3-5.9H50.6z
					 M55,4.9c-1,1.6-2.1,2.7-3.5,3.5L51,7.7c1.3-0.7,2.3-1.8,3.2-3.3L55,4.9z"/>
				<path class="st4" d="M56.7,10.1v-1h12.6v1h-8.4l-0.5,1.6h6.8c-0.1,2.2-0.3,3.6-0.6,4c-0.3,0.4-1,0.6-1.9,0.6
					c-0.7,0-1.3,0-1.9-0.1l-0.3-0.9c0.7,0.1,1.4,0.1,2,0.1c0.8,0,1.2-0.2,1.4-0.5c0.2-0.3,0.3-1.1,0.4-2.4h-7l0.7-2.5H56.7z
					 M67.1,4.2V8h-8.2V4.2H67.1z M66.1,5.1h-6.1v2h6.1V5.1z"/>
			</g>
		</g>
	</g>
	<g id="RectEndPoint21" transform="translate(640,510)">
		<rect x="2" y="-3.9" class="st8" width="110" height="50"/>
		<rect y="-5.9" class="st9" width="110" height="50"/>
		<g transform="translate(20 9)">
			<g class="st3">
				<path class="st4" d="M1.4,16.5l-0.7-0.7c0.4-1.3,0.7-2.9,0.7-4.8V4.2h3.6v11.1c0,0.7-0.4,1.1-1.1,1.1h-1l-0.2-0.9
					c0.3,0,0.6,0,0.9,0C3.8,15.6,4,15.4,4,15v-3.2H2.3C2.2,13.7,1.9,15.2,1.4,16.5z M4,5.2H2.3v2.4H4V5.2z M2.3,10.9H4V8.5H2.3V10.9
					z M6.9,5.6C6.7,5.1,6.5,4.7,6.2,4.3L7,4c0.3,0.4,0.5,1,0.7,1.6h0.7c0.2-0.6,0.3-1.3,0.4-2l1,0.1C9.8,4.4,9.7,5,9.5,5.6h1.1
					c0.3-0.5,0.6-1.1,0.8-1.7l0.9,0.3c-0.3,0.5-0.5,1-0.8,1.4h1.2v0.8H9.2C9.1,6.8,8.9,7.2,8.8,7.6h4.4v0.9H11
					c0.6,0.7,1.4,1.3,2.6,1.7L13.1,11c-0.6-0.3-1.1-0.6-1.6-0.9v0.1c-0.1,0.8-0.2,1.5-0.3,2h1.5c0,2.3-0.2,3.6-0.5,3.9
					c-0.3,0.3-0.8,0.4-1.7,0.4H9.7l-0.3-0.9c0.3,0,0.6,0,0.9,0c0.5,0,0.8-0.1,1-0.2c0.2-0.2,0.3-1,0.3-2.4H6.5
					c0.3-0.8,0.5-1.5,0.6-2.1L8,11c-0.1,0.4-0.2,0.8-0.3,1.2h2.6c0.1-0.5,0.3-1,0.3-1.7H6.8v-0.5c-0.4,0.4-0.9,0.7-1.4,1L5,10.3
					c0.9-0.5,1.6-1.1,2.2-1.8H5.4V7.6h2.3c0.2-0.4,0.4-0.7,0.5-1.1H5.8V5.6H6.9z M10.6,13.9v0.9h-5v-0.9H10.6z M11.1,9.7
					c-0.5-0.4-0.8-0.9-1.1-1.3H8.3C7.9,8.9,7.6,9.4,7.2,9.7H11.1z"/>
				<path class="st4" d="M17.5,8v6.2c0.4-0.4,0.9-0.8,1.4-1.4l0.3,1.1c-0.8,0.8-1.7,1.5-2.6,2.2l-0.4-0.9c0.2-0.2,0.3-0.4,0.3-0.6
					V8.9h-1.9V8H17.5z M18.5,6l-0.7,0.7c-0.6-0.7-1.3-1.4-2.3-2.2l0.7-0.7C17.1,4.5,17.9,5.2,18.5,6z M20.9,9.2V5.3H19v-1h6.4v4.3
					c0,2.8,0.2,4.7,0.6,5.9c0.2,0.4,0.3,0.7,0.5,0.7c0.1,0,0.1-0.2,0.2-0.5c0-0.4,0.1-1,0.1-1.7l0.8,0.4c-0.1,1.3-0.2,2.2-0.3,2.6
					c-0.1,0.3-0.3,0.4-0.5,0.4c-0.5,0-1-0.3-1.4-1c-0.7-1.2-1-3.4-1-6.7V5.3h-2.6v3.8h1.9v1h-1.9v6.4h-1v-6.4h-2.1v-1H20.9z"/>
				<path class="st4" d="M41.3,8.4v1h-6.7c-1.3,2.6-2.4,4.5-3.4,5.5c2.5-0.1,5-0.4,7.5-0.7c-0.5-0.9-1.1-1.8-1.7-2.8l0.8-0.5
					c1.3,1.9,2.3,3.6,3,5.1L40,16.6c-0.2-0.5-0.5-1-0.7-1.5c-2.8,0.4-5.9,0.6-9.3,0.9l-0.3-1c0.1,0,0.2-0.1,0.2-0.1
					c0.9-0.7,2.1-2.5,3.6-5.5h-4.7v-1H41.3z M40.1,4.5v1h-10v-1H40.1z"/>
				<path class="st4" d="M46,6.2v4.6c0,1.6-0.3,2.8-0.7,3.8c-0.4,0.9-1.1,1.6-2.1,2l-0.5-0.8c0.9-0.5,1.6-1.1,1.9-1.8
					c0.3-0.8,0.5-1.8,0.5-3.1V6.2H46z M48,13h-0.9V5.2h-3V13h-0.9V4.2H48V13z M48.4,15.7l-0.7,0.7c-0.4-0.8-1.1-1.6-1.9-2.4l0.6-0.6
					C47.2,14.2,47.9,15,48.4,15.7z M50.6,10.4v4.8c0.6-0.2,1.3-0.6,1.9-1l0.2,0.9c-0.9,0.5-1.8,1-3,1.3l-0.4-0.9
					c0.2-0.1,0.3-0.2,0.3-0.4v-4.7h-1v-1h1V3.7h1v5.8h4.7v1h-2.5c0.6,2.2,1.6,3.9,2.8,5.2l-0.7,0.8c-1.3-1.3-2.3-3.3-3-5.9H50.6z
					 M55,4.9c-1,1.6-2.1,2.7-3.5,3.5L51,7.7c1.3-0.7,2.3-1.8,3.2-3.3L55,4.9z"/>
				<path class="st4" d="M56.7,10.1v-1h12.6v1h-8.4l-0.5,1.6h6.8c-0.1,2.2-0.3,3.6-0.6,4c-0.3,0.4-1,0.6-1.9,0.6
					c-0.7,0-1.3,0-1.9-0.1l-0.3-0.9c0.7,0.1,1.4,0.1,2,0.1c0.8,0,1.2-0.2,1.4-0.5c0.2-0.3,0.3-1.1,0.4-2.4h-7l0.7-2.5H56.7z
					 M67.1,4.2V8h-8.2V4.2H67.1z M66.1,5.1h-6.1v2h6.1V5.1z"/>
			</g>
		</g>
	</g>
	<g id="RectEndPoint22" transform="translate(640,382)">
		<rect x="2" y="-3.9" class="st8" width="110" height="50"/>
		<rect y="-5.9" class="st9" width="110" height="50"/>
		<g transform="translate(20 9)">
			<g class="st3">
				<path class="st4" d="M1.4,16.5l-0.7-0.7c0.4-1.3,0.7-2.9,0.7-4.8V4.2h3.6v11.1c0,0.7-0.4,1.1-1.1,1.1h-1l-0.2-0.9
					c0.3,0,0.6,0,0.9,0C3.8,15.6,4,15.4,4,15v-3.2H2.3C2.2,13.7,1.9,15.2,1.4,16.5z M4,5.2H2.3v2.4H4V5.2z M2.3,10.9H4V8.5H2.3V10.9
					z M6.9,5.6C6.7,5.1,6.5,4.7,6.2,4.3L7,4c0.3,0.4,0.5,1,0.7,1.6h0.7c0.2-0.6,0.3-1.3,0.4-2l1,0.1C9.8,4.4,9.7,5,9.5,5.6h1.1
					c0.3-0.5,0.6-1.1,0.8-1.7l0.9,0.3c-0.3,0.5-0.5,1-0.8,1.4h1.2v0.8H9.2C9.1,6.8,8.9,7.2,8.8,7.6h4.4v0.9H11
					c0.6,0.7,1.4,1.3,2.6,1.7L13.1,11c-0.6-0.3-1.1-0.6-1.6-0.9v0.1c-0.1,0.8-0.2,1.5-0.3,2h1.5c0,2.3-0.2,3.6-0.5,3.9
					c-0.3,0.3-0.8,0.4-1.7,0.4H9.7l-0.3-0.9c0.3,0,0.6,0,0.9,0c0.5,0,0.8-0.1,1-0.2c0.2-0.2,0.3-1,0.3-2.4H6.5
					c0.3-0.8,0.5-1.5,0.6-2.1L8,11c-0.1,0.4-0.2,0.8-0.3,1.2h2.6c0.1-0.5,0.3-1,0.3-1.7H6.8v-0.5c-0.4,0.4-0.9,0.7-1.4,1L5,10.3
					c0.9-0.5,1.6-1.1,2.2-1.8H5.4V7.6h2.3c0.2-0.4,0.4-0.7,0.5-1.1H5.8V5.6H6.9z M10.6,13.9v0.9h-5v-0.9H10.6z M11.1,9.7
					c-0.5-0.4-0.8-0.9-1.1-1.3H8.3C7.9,8.9,7.6,9.4,7.2,9.7H11.1z"/>
				<path class="st4" d="M17.5,8v6.2c0.4-0.4,0.9-0.8,1.4-1.4l0.3,1.1c-0.8,0.8-1.7,1.5-2.6,2.2l-0.4-0.9c0.2-0.2,0.3-0.4,0.3-0.6
					V8.9h-1.9V8H17.5z M18.5,6l-0.7,0.7c-0.6-0.7-1.3-1.4-2.3-2.2l0.7-0.7C17.1,4.5,17.9,5.2,18.5,6z M20.9,9.2V5.3H19v-1h6.4v4.3
					c0,2.8,0.2,4.7,0.6,5.9c0.2,0.4,0.3,0.7,0.5,0.7c0.1,0,0.1-0.2,0.2-0.5c0-0.4,0.1-1,0.1-1.7l0.8,0.4c-0.1,1.3-0.2,2.2-0.3,2.6
					c-0.1,0.3-0.3,0.4-0.5,0.4c-0.5,0-1-0.3-1.4-1c-0.7-1.2-1-3.4-1-6.7V5.3h-2.6v3.8h1.9v1h-1.9v6.4h-1v-6.4h-2.1v-1H20.9z"/>
				<path class="st4" d="M41.3,8.4v1h-6.7c-1.3,2.6-2.4,4.5-3.4,5.5c2.5-0.1,5-0.4,7.5-0.7c-0.5-0.9-1.1-1.8-1.7-2.8l0.8-0.5
					c1.3,1.9,2.3,3.6,3,5.1L40,16.6c-0.2-0.5-0.5-1-0.7-1.5c-2.8,0.4-5.9,0.6-9.3,0.9l-0.3-1c0.1,0,0.2-0.1,0.2-0.1
					c0.9-0.7,2.1-2.5,3.6-5.5h-4.7v-1H41.3z M40.1,4.5v1h-10v-1H40.1z"/>
				<path class="st4" d="M46,6.2v4.6c0,1.6-0.3,2.8-0.7,3.8c-0.4,0.9-1.1,1.6-2.1,2l-0.5-0.8c0.9-0.5,1.6-1.1,1.9-1.8
					c0.3-0.8,0.5-1.8,0.5-3.1V6.2H46z M48,13h-0.9V5.2h-3V13h-0.9V4.2H48V13z M48.4,15.7l-0.7,0.7c-0.4-0.8-1.1-1.6-1.9-2.4l0.6-0.6
					C47.2,14.2,47.9,15,48.4,15.7z M50.6,10.4v4.8c0.6-0.2,1.3-0.6,1.9-1l0.2,0.9c-0.9,0.5-1.8,1-3,1.3l-0.4-0.9
					c0.2-0.1,0.3-0.2,0.3-0.4v-4.7h-1v-1h1V3.7h1v5.8h4.7v1h-2.5c0.6,2.2,1.6,3.9,2.8,5.2l-0.7,0.8c-1.3-1.3-2.3-3.3-3-5.9H50.6z
					 M55,4.9c-1,1.6-2.1,2.7-3.5,3.5L51,7.7c1.3-0.7,2.3-1.8,3.2-3.3L55,4.9z"/>
				<path class="st4" d="M56.7,10.1v-1h12.6v1h-8.4l-0.5,1.6h6.8c-0.1,2.2-0.3,3.6-0.6,4c-0.3,0.4-1,0.6-1.9,0.6
					c-0.7,0-1.3,0-1.9-0.1l-0.3-0.9c0.7,0.1,1.4,0.1,2,0.1c0.8,0,1.2-0.2,1.4-0.5c0.2-0.3,0.3-1.1,0.4-2.4h-7l0.7-2.5H56.7z
					 M67.1,4.2V8h-8.2V4.2H67.1z M66.1,5.1h-6.1v2h6.1V5.1z"/>
			</g>
		</g>
	</g>
	<g id="RectEndPoint23" transform="translate(640,445)">
		<rect x="2" y="-3.9" class="st8" width="110" height="50"/>
		<rect y="-5.9" class="st9" width="110" height="50"/>
		<g transform="translate(20 9)">
			<g class="st3">
				<path class="st4" d="M1.4,16.5l-0.7-0.7c0.4-1.3,0.7-2.9,0.7-4.8V4.2h3.6v11.1c0,0.7-0.4,1.1-1.1,1.1h-1l-0.2-0.9
					c0.3,0,0.6,0,0.9,0C3.8,15.6,4,15.4,4,15v-3.2H2.3C2.2,13.7,1.9,15.2,1.4,16.5z M4,5.2H2.3v2.4H4V5.2z M2.3,10.9H4V8.5H2.3V10.9
					z M6.9,5.6C6.7,5.1,6.5,4.7,6.2,4.3L7,4c0.3,0.4,0.5,1,0.7,1.6h0.7c0.2-0.6,0.3-1.3,0.4-2l1,0.1C9.8,4.4,9.7,5,9.5,5.6h1.1
					c0.3-0.5,0.6-1.1,0.8-1.7l0.9,0.3c-0.3,0.5-0.5,1-0.8,1.4h1.2v0.8H9.2C9.1,6.8,8.9,7.2,8.8,7.6h4.4v0.9H11
					c0.6,0.7,1.4,1.3,2.6,1.7L13.1,11c-0.6-0.3-1.1-0.6-1.6-0.9v0.1c-0.1,0.8-0.2,1.5-0.3,2h1.5c0,2.3-0.2,3.6-0.5,3.9
					c-0.3,0.3-0.8,0.4-1.7,0.4H9.7l-0.3-0.9c0.3,0,0.6,0,0.9,0c0.5,0,0.8-0.1,1-0.2c0.2-0.2,0.3-1,0.3-2.4H6.5
					c0.3-0.8,0.5-1.5,0.6-2.1L8,11c-0.1,0.4-0.2,0.8-0.3,1.2h2.6c0.1-0.5,0.3-1,0.3-1.7H6.8v-0.5c-0.4,0.4-0.9,0.7-1.4,1L5,10.3
					c0.9-0.5,1.6-1.1,2.2-1.8H5.4V7.6h2.3c0.2-0.4,0.4-0.7,0.5-1.1H5.8V5.6H6.9z M10.6,13.9v0.9h-5v-0.9H10.6z M11.1,9.7
					c-0.5-0.4-0.8-0.9-1.1-1.3H8.3C7.9,8.9,7.6,9.4,7.2,9.7H11.1z"/>
				<path class="st4" d="M17.5,8v6.2c0.4-0.4,0.9-0.8,1.4-1.4l0.3,1.1c-0.8,0.8-1.7,1.5-2.6,2.2l-0.4-0.9c0.2-0.2,0.3-0.4,0.3-0.6
					V8.9h-1.9V8H17.5z M18.5,6l-0.7,0.7c-0.6-0.7-1.3-1.4-2.3-2.2l0.7-0.7C17.1,4.5,17.9,5.2,18.5,6z M20.9,9.2V5.3H19v-1h6.4v4.3
					c0,2.8,0.2,4.7,0.6,5.9c0.2,0.4,0.3,0.7,0.5,0.7c0.1,0,0.1-0.2,0.2-0.5c0-0.4,0.1-1,0.1-1.7l0.8,0.4c-0.1,1.3-0.2,2.2-0.3,2.6
					c-0.1,0.3-0.3,0.4-0.5,0.4c-0.5,0-1-0.3-1.4-1c-0.7-1.2-1-3.4-1-6.7V5.3h-2.6v3.8h1.9v1h-1.9v6.4h-1v-6.4h-2.1v-1H20.9z"/>
				<path class="st4" d="M41.3,8.4v1h-6.7c-1.3,2.6-2.4,4.5-3.4,5.5c2.5-0.1,5-0.4,7.5-0.7c-0.5-0.9-1.1-1.8-1.7-2.8l0.8-0.5
					c1.3,1.9,2.3,3.6,3,5.1L40,16.6c-0.2-0.5-0.5-1-0.7-1.5c-2.8,0.4-5.9,0.6-9.3,0.9l-0.3-1c0.1,0,0.2-0.1,0.2-0.1
					c0.9-0.7,2.1-2.5,3.6-5.5h-4.7v-1H41.3z M40.1,4.5v1h-10v-1H40.1z"/>
				<path class="st4" d="M46,6.2v4.6c0,1.6-0.3,2.8-0.7,3.8c-0.4,0.9-1.1,1.6-2.1,2l-0.5-0.8c0.9-0.5,1.6-1.1,1.9-1.8
					c0.3-0.8,0.5-1.8,0.5-3.1V6.2H46z M48,13h-0.9V5.2h-3V13h-0.9V4.2H48V13z M48.4,15.7l-0.7,0.7c-0.4-0.8-1.1-1.6-1.9-2.4l0.6-0.6
					C47.2,14.2,47.9,15,48.4,15.7z M50.6,10.4v4.8c0.6-0.2,1.3-0.6,1.9-1l0.2,0.9c-0.9,0.5-1.8,1-3,1.3l-0.4-0.9
					c0.2-0.1,0.3-0.2,0.3-0.4v-4.7h-1v-1h1V3.7h1v5.8h4.7v1h-2.5c0.6,2.2,1.6,3.9,2.8,5.2l-0.7,0.8c-1.3-1.3-2.3-3.3-3-5.9H50.6z
					 M55,4.9c-1,1.6-2.1,2.7-3.5,3.5L51,7.7c1.3-0.7,2.3-1.8,3.2-3.3L55,4.9z"/>
				<path class="st4" d="M56.7,10.1v-1h12.6v1h-8.4l-0.5,1.6h6.8c-0.1,2.2-0.3,3.6-0.6,4c-0.3,0.4-1,0.6-1.9,0.6
					c-0.7,0-1.3,0-1.9-0.1l-0.3-0.9c0.7,0.1,1.4,0.1,2,0.1c0.8,0,1.2-0.2,1.4-0.5c0.2-0.3,0.3-1.1,0.4-2.4h-7l0.7-2.5H56.7z
					 M67.1,4.2V8h-8.2V4.2H67.1z M66.1,5.1h-6.1v2h6.1V5.1z"/>
			</g>
		</g>
	</g>
	<g id="RectEndPoint6" transform="translate(447.5,61)">
		<rect x="2" y="-3.9" class="st8" width="97" height="50"/>
		<rect y="-5.9" class="st9" width="97" height="50"/>
		<g transform="translate(20 9)">
			<g class="st3">
				<path class="st4" d="M4.3,4.1C3.5,5.8,2.8,7.2,2,8.2C2.7,8.2,3.3,8.1,4,8c0.3-0.5,0.6-1.1,0.9-1.7l0.9,0.4
					C4.5,9,3.4,10.7,2.5,11.8c1-0.2,2.1-0.5,3.1-0.9v0.9c-1.5,0.5-3,0.9-4.4,1.1L1,11.9c0.2-0.1,0.3-0.2,0.5-0.3
					c0.6-0.5,1.2-1.5,2-2.8C2.6,9,1.8,9.1,1,9.2L0.7,8.3C0.9,8.2,1,8.1,1.2,7.9C2,6.7,2.7,5.3,3.3,3.7L4.3,4.1z M5.5,14.3
					c-1.3,0.6-2.8,1.1-4.5,1.5l-0.1-1c1.8-0.4,3.3-0.8,4.7-1.4V14.3z M12.2,15h1.2v1H5.3v-1h1.2V4.3h5.7V15z M11.2,7.8V5.3H7.5v2.5
					H11.2z M11.2,11.4V8.8H7.5v2.6H11.2z M11.2,15v-2.7H7.5V15H11.2z"/>
				<path class="st4" d="M18.2,4c-0.8,1.8-1.5,3.3-2.3,4.4c0.7-0.1,1.3-0.2,2-0.3c0.3-0.6,0.6-1.1,1-1.8l0.9,0.3
					c-1.3,2.4-2.4,4.1-3.3,5.1c1-0.2,2-0.5,3.1-0.9v0.9c-1.5,0.6-3,1-4.4,1.2l-0.3-0.9c0.2-0.1,0.3-0.2,0.5-0.3
					c0.6-0.5,1.2-1.4,2-2.7c-0.8,0.1-1.7,0.3-2.5,0.4l-0.3-0.9c0.2-0.1,0.3-0.2,0.4-0.4c0.8-1.3,1.6-2.8,2.2-4.5L18.2,4z M19.5,14.7
					c-1.4,0.5-3,0.9-4.7,1.3l-0.1-1c1.8-0.3,3.5-0.7,4.9-1.2V14.7z M22.5,12.3c-0.7,1.6-1.5,3.1-2.4,4.2l-0.9-0.6
					c0.9-1.1,1.7-2.5,2.4-4L22.5,12.3z M26.6,4.5v6.6h-6.3V4.5H26.6z M25.6,5.4h-4.3v4.7h4.3V5.4z M27.5,15.9l-0.9,0.6
					c-0.6-1.3-1.4-2.6-2.4-4.2l0.8-0.5C26.2,13.4,27,14.8,27.5,15.9z"/>
				<path class="st4" d="M36.2,5.9c0.4-0.7,0.9-1.5,1.2-2.3l1,0.3c-0.3,0.7-0.7,1.4-1.1,1.9h2.7v5.8h-4.4v1.3h5.7v1h-5.7v2.7h-1
					v-2.7h-5.7v-1h5.7v-1.3h-4.4V5.9H36.2z M34.5,8.3V6.7h-3.4v1.5H34.5z M34.5,9.1h-3.4v1.6h3.4V9.1z M33.9,5.4l-0.8,0.4
					c-0.4-0.7-0.9-1.3-1.3-1.8l0.9-0.4C33.1,4.2,33.5,4.8,33.9,5.4z M35.5,8.3h3.4V6.7h-3.4V8.3z M38.9,9.1h-3.4v1.6h3.4V9.1z"/>
				<path class="st4" d="M55,8.6v1h-3.9v5.2c0,0.4,0.2,0.6,0.6,0.6h1.6c0.3,0,0.5-0.1,0.6-0.3c0.2-0.3,0.3-1,0.3-2.3l0.9,0.3
					c-0.1,1.5-0.3,2.5-0.6,2.8c-0.2,0.3-0.6,0.4-1.1,0.4h-2c-0.9,0-1.3-0.4-1.3-1.3V9.5h-2.5v0.2c0,1.8-0.4,3.3-1.1,4.4
					c-0.7,1-1.8,1.8-3.4,2.4l-0.5-0.9c1.5-0.6,2.6-1.3,3.2-2.2c0.6-1,0.9-2.2,0.9-3.7V9.5H43v-1H55z M53.8,4.4v1h-9.7v-1H53.8z"/>
			</g>
		</g>
	</g>
</g>
<g id="textgroup" transform="translate(0,0)">
</g>
<g id="assistantgroup" transform="translate(0,0)">
</g>
</svg>
