<?xml version="1.0" encoding="UTF-8"?>
<svg width="830px" height="175px" viewBox="0 0 830 175" version="1.1" xmlns="http://www.w3.org/2000/svg" xmlns:xlink="http://www.w3.org/1999/xlink">
    <!-- Generator: Sketch 54.1 (76490) - https://sketchapp.com -->
    <title>制品库质量管控</title>
    <desc>Created with Sketch.</desc>
    <defs>
        <rect id="path-1" x="0" y="0" width="159" height="50"></rect>
        <filter x="-1.3%" y="-2.0%" width="102.5%" height="108.0%" filterUnits="objectBoundingBox" id="filter-2">
            <feOffset dx="0" dy="1" in="SourceAlpha" result="shadowOffsetOuter1"></feOffset>
            <feGaussianBlur stdDeviation="0.5" in="shadowOffsetOuter1" result="shadowBlurOuter1"></feGaussianBlur>
            <feColorMatrix values="0 0 0 0 0   0 0 0 0 0   0 0 0 0 0  0 0 0 0.35 0" type="matrix" in="shadowBlurOuter1"></feColorMatrix>
        </filter>
        <rect id="path-3" x="26" y="0" width="67" height="50"></rect>
        <filter x="-3.0%" y="-2.0%" width="106.0%" height="108.0%" filterUnits="objectBoundingBox" id="filter-4">
            <feOffset dx="0" dy="1" in="SourceAlpha" result="shadowOffsetOuter1"></feOffset>
            <feGaussianBlur stdDeviation="0.5" in="shadowOffsetOuter1" result="shadowBlurOuter1"></feGaussianBlur>
            <feColorMatrix values="0 0 0 0 0   0 0 0 0 0   0 0 0 0 0  0 0 0 0.35 0" type="matrix" in="shadowBlurOuter1"></feColorMatrix>
        </filter>
        <rect id="path-5" x="0" y="-1.42108547e-14" width="130" height="50"></rect>
        <filter x="-1.5%" y="-2.0%" width="103.1%" height="108.0%" filterUnits="objectBoundingBox" id="filter-6">
            <feOffset dx="0" dy="1" in="SourceAlpha" result="shadowOffsetOuter1"></feOffset>
            <feGaussianBlur stdDeviation="0.5" in="shadowOffsetOuter1" result="shadowBlurOuter1"></feGaussianBlur>
            <feColorMatrix values="0 0 0 0 0   0 0 0 0 0   0 0 0 0 0  0 0 0 0.35 0" type="matrix" in="shadowBlurOuter1"></feColorMatrix>
        </filter>
        <path d="M57.512,18.856 C58.296,19.472 58.954,20.102 59.486,20.718 L58.828,21.39 C58.352,20.802 57.68,20.172 56.826,19.514 L57.512,18.856 Z M57.288,22.3 C58.044,22.972 58.688,23.63 59.206,24.302 L58.548,24.96 C58.072,24.33 57.428,23.658 56.602,22.944 L57.288,22.3 Z M58.52,26.066 L59.374,26.402 C58.842,28.11 58.24,29.72 57.596,31.232 L56.672,30.84 C57.372,29.286 57.988,27.69 58.52,26.066 Z M64.736,19.248 L64.736,27.788 L63.84,27.788 L63.84,20.116 L60.942,20.116 L60.942,27.872 L60.046,27.872 L60.046,19.248 L64.736,19.248 Z M63.238,28.446 C64.092,29.202 64.806,29.972 65.38,30.728 L64.708,31.4 C64.204,30.658 63.518,29.874 62.622,29.034 L63.238,28.446 Z M61.978,21.082 L62.818,21.082 L62.818,25.52 C62.79,27.116 62.538,28.39 62.062,29.342 C61.6,30.21 60.844,30.91 59.808,31.414 L59.276,30.574 C60.284,30.098 60.984,29.468 61.376,28.684 C61.74,27.872 61.95,26.822 61.978,25.52 L61.978,21.082 Z M67.76,31.288 L66.22,31.288 L66.01,30.35 C66.5,30.392 66.976,30.42 67.424,30.42 C67.746,30.42 67.914,30.224 67.914,29.86 L67.914,18.646 L68.866,18.646 L68.866,30.098 C68.866,30.882 68.488,31.288 67.76,31.288 Z M65.842,19.794 L66.724,19.794 L66.724,28.53 L65.842,28.53 L65.842,19.794 Z M76.58,25.198 L75.264,25.198 L75.264,24.26 L78.89,24.26 L78.89,25.198 L77.574,25.198 L77.574,28.992 C78.19,28.852 78.806,28.698 79.394,28.53 L79.394,29.468 C78.176,29.818 76.86,30.112 75.46,30.35 L75.208,29.398 C75.67,29.342 76.132,29.272 76.58,29.188 L76.58,25.198 Z M81.886,31.19 C81.41,31.19 80.976,30.826 80.612,30.098 C80.192,29.258 79.884,28.124 79.688,26.668 C79.534,25.436 79.436,23.896 79.38,22.062 L74.942,22.062 L74.942,21.082 L79.352,21.082 C79.324,20.27 79.324,19.416 79.324,18.52 L80.304,18.52 C80.304,19.43 80.304,20.284 80.332,21.082 L83.118,21.082 L83.118,22.062 L80.346,22.062 C80.416,24.47 80.57,26.318 80.794,27.634 C81.102,29.23 81.466,30.042 81.886,30.098 C82.166,30.042 82.46,29.188 82.74,27.522 L83.538,28.166 C83.076,30.182 82.53,31.19 81.886,31.19 Z M81.508,18.506 C82.11,19.178 82.572,19.766 82.908,20.27 L82.208,20.76 C81.858,20.214 81.382,19.612 80.794,18.94 L81.508,18.506 Z M72.268,18.702 C73.164,19.416 73.906,20.13 74.522,20.858 L73.836,21.558 C73.276,20.872 72.52,20.144 71.568,19.388 L72.268,18.702 Z M70.588,22.846 L73.528,22.846 L73.528,28.95 C73.948,28.544 74.368,28.096 74.816,27.606 L75.082,28.67 C74.312,29.51 73.5,30.252 72.632,30.896 L72.24,30 C72.436,29.832 72.548,29.636 72.548,29.426 L72.548,23.812 L70.588,23.812 L70.588,22.846 Z M89.012,22.762 L92.806,22.762 L92.806,18.548 L93.842,18.548 L93.842,22.762 L97.44,22.762 L97.44,23.77 L93.842,23.77 L93.842,31.428 L92.806,31.428 L92.806,23.77 L89.012,23.77 L89.012,22.762 Z M86.268,18.702 C87.22,19.416 88.018,20.13 88.662,20.858 L87.976,21.558 C87.388,20.872 86.576,20.144 85.568,19.388 L86.268,18.702 Z M84.63,22.846 L87.654,22.846 L87.654,29.076 C88.158,28.656 88.718,28.18 89.306,27.62 L89.558,28.656 C88.69,29.496 87.752,30.238 86.758,30.896 L86.366,29.986 C86.576,29.818 86.688,29.622 86.688,29.398 L86.688,23.812 L84.63,23.812 L84.63,22.846 Z M107.002,19.78 L107.982,19.78 L107.982,28.516 L107.002,28.516 L107.002,19.78 Z M109.494,31.274 L107.478,31.274 L107.254,30.308 C107.926,30.35 108.556,30.378 109.144,30.378 C109.578,30.378 109.802,30.154 109.802,29.72 L109.802,18.604 L110.81,18.604 L110.81,29.972 C110.81,30.84 110.362,31.274 109.494,31.274 Z M105.602,21.684 L105.756,22.664 L101.696,23.294 C101.78,24.05 101.878,24.722 102.004,25.338 C102.13,25.94 102.27,26.472 102.424,26.948 C103.25,26.01 103.95,24.904 104.524,23.63 L105.406,24.092 C104.706,25.66 103.838,26.99 102.816,28.054 C102.956,28.404 103.11,28.712 103.264,28.992 C103.782,29.818 104.258,30.238 104.678,30.252 C104.93,30.21 105.182,29.482 105.462,28.054 L106.316,28.6 C106.12,29.328 105.91,29.93 105.686,30.42 C105.406,31.008 105.084,31.316 104.734,31.316 C104.09,31.316 103.446,30.868 102.802,29.972 C102.55,29.608 102.312,29.202 102.102,28.74 C101.206,29.496 100.226,30.112 99.148,30.56 L98.546,29.65 C99.722,29.188 100.772,28.544 101.682,27.704 C101.486,27.186 101.318,26.626 101.164,26.01 C100.968,25.282 100.828,24.428 100.716,23.448 L98.896,23.728 L98.742,22.748 L100.618,22.454 C100.506,21.306 100.45,20.018 100.45,18.59 L101.486,18.59 C101.486,19.962 101.528,21.194 101.612,22.3 L105.602,21.684 Z M103.334,18.534 C103.866,19.164 104.356,19.85 104.832,20.592 L103.978,21.012 C103.516,20.242 103.026,19.556 102.508,18.94 L103.334,18.534 Z" id="path-7"></path>
        <polygon id="path-8" points="0 0 104 1.77635684e-13 104 50 0 50"></polygon>
        <filter x="-1.9%" y="-2.0%" width="103.8%" height="108.0%" filterUnits="objectBoundingBox" id="filter-9">
            <feOffset dx="0" dy="1" in="SourceAlpha" result="shadowOffsetOuter1"></feOffset>
            <feGaussianBlur stdDeviation="0.5" in="shadowOffsetOuter1" result="shadowBlurOuter1"></feGaussianBlur>
            <feColorMatrix values="0 0 0 0 0   0 0 0 0 0   0 0 0 0 0  0 0 0 0.35 0" type="matrix" in="shadowBlurOuter1"></feColorMatrix>
        </filter>
        <path d="M56.812,20.228 L62.594,20.228 C62.342,19.654 62.062,19.136 61.754,18.66 L62.874,18.464 C63.154,18.996 63.434,19.584 63.686,20.228 L69.202,20.228 L69.202,21.194 L56.812,21.194 L56.812,20.228 Z M65.212,21.614 C66.766,22.846 68.068,24.064 69.118,25.296 L68.376,26.038 C67.452,24.862 66.164,23.616 64.526,22.272 L65.212,21.614 Z M65.352,24.232 L66.276,24.638 C65.604,25.926 64.792,27.032 63.826,27.97 C65.338,29.062 67.172,29.874 69.356,30.434 L68.726,31.372 C66.458,30.728 64.568,29.832 63.056,28.656 C61.488,29.916 59.584,30.84 57.344,31.428 L56.728,30.504 C58.94,29.944 60.774,29.104 62.244,27.984 C61.222,27.06 60.382,25.996 59.724,24.82 L60.592,24.33 C61.208,25.478 62.02,26.472 63.014,27.326 C63.966,26.43 64.75,25.408 65.352,24.232 Z M60.704,21.628 L61.432,22.272 C60.368,23.658 59.052,24.876 57.484,25.912 L56.84,25.058 C58.366,24.078 59.654,22.944 60.704,21.628 Z M73.71,18.436 L74.648,18.884 C74.34,19.864 73.948,20.774 73.5,21.642 L73.5,31.428 L72.492,31.428 L72.492,23.308 C71.988,24.05 71.414,24.75 70.784,25.422 L70.476,24.372 C71.96,22.65 73.038,20.676 73.71,18.436 Z M74.942,21.6 L80.304,21.6 L80.304,18.59 L81.312,18.59 L81.312,21.6 L83.328,21.6 L83.328,22.58 L81.312,22.58 L81.312,29.888 C81.312,30.84 80.864,31.316 79.996,31.316 L77.966,31.316 L77.742,30.322 C78.4,30.364 79.03,30.392 79.646,30.392 C80.08,30.392 80.304,30.14 80.304,29.636 L80.304,22.58 L74.942,22.58 L74.942,21.6 Z M76.23,24.106 C77.294,25.366 78.12,26.472 78.694,27.41 L77.84,28.012 C77.238,26.99 76.426,25.856 75.404,24.61 L76.23,24.106 Z" id="path-10"></path>
        <rect id="path-11" x="0" y="0" width="190" height="50"></rect>
        <filter x="-1.1%" y="-2.0%" width="102.1%" height="108.0%" filterUnits="objectBoundingBox" id="filter-12">
            <feOffset dx="0" dy="1" in="SourceAlpha" result="shadowOffsetOuter1"></feOffset>
            <feGaussianBlur stdDeviation="0.5" in="shadowOffsetOuter1" result="shadowBlurOuter1"></feGaussianBlur>
            <feColorMatrix values="0 0 0 0 0   0 0 0 0 0   0 0 0 0 0  0 0 0 0.35 0" type="matrix" in="shadowBlurOuter1"></feColorMatrix>
        </filter>
        <path d="M61.32,19.808 C62.426,19.808 63.364,20.102 64.12,20.69 C64.876,21.278 65.324,22.076 65.464,23.07 L64.358,23.07 C64.218,22.342 63.854,21.782 63.294,21.39 C62.748,21.012 62.09,20.83 61.306,20.83 C60.144,20.83 59.248,21.236 58.618,22.048 C58.03,22.804 57.736,23.798 57.736,25.044 C57.736,26.29 58.016,27.284 58.604,28.012 C59.22,28.782 60.102,29.174 61.278,29.174 C62.076,29.174 62.748,28.964 63.308,28.544 C63.896,28.096 64.302,27.438 64.498,26.57 L65.604,26.57 C65.38,27.732 64.862,28.642 64.036,29.286 C63.266,29.888 62.342,30.196 61.278,30.196 C59.724,30.196 58.534,29.678 57.708,28.656 C56.952,27.732 56.588,26.528 56.588,25.044 C56.588,23.56 56.966,22.342 57.736,21.39 C58.576,20.326 59.78,19.808 61.32,19.808 Z M71.568,19.808 C73.052,19.808 74.242,20.298 75.11,21.306 C75.922,22.258 76.342,23.49 76.342,25.016 C76.342,26.528 75.922,27.746 75.11,28.698 C74.242,29.692 73.052,30.196 71.554,30.196 C70.056,30.196 68.88,29.692 68.012,28.698 C67.186,27.746 66.78,26.514 66.78,25.016 C66.78,23.504 67.186,22.272 68.012,21.32 C68.88,20.312 70.056,19.808 71.568,19.808 Z M71.568,20.83 C70.42,20.83 69.51,21.222 68.852,22.02 C68.236,22.776 67.928,23.77 67.928,25.016 C67.928,26.248 68.236,27.242 68.852,27.998 C69.496,28.782 70.406,29.174 71.554,29.174 C72.702,29.174 73.612,28.782 74.256,28.026 C74.872,27.27 75.194,26.276 75.194,25.016 C75.194,23.742 74.872,22.734 74.256,21.978 C73.612,21.208 72.716,20.83 71.568,20.83 Z M77.938,20.004 L81.522,20.004 C83.104,20.004 84.294,20.452 85.106,21.376 C85.848,22.216 86.226,23.434 86.226,25.002 C86.226,26.542 85.82,27.76 85.022,28.628 C84.182,29.538 82.978,30 81.41,30 L77.938,30 L77.938,20.004 Z M79.086,20.998 L79.086,29.006 L81.214,29.006 C82.516,29.006 83.496,28.656 84.154,27.97 C84.77,27.298 85.092,26.304 85.092,25.002 C85.092,23.658 84.798,22.664 84.224,22.02 C83.608,21.334 82.656,20.998 81.34,20.998 L79.086,20.998 Z M87.906,20.004 L89.04,20.004 L89.04,30 L87.906,30 L87.906,20.004 Z M91.14,20.004 L92.344,20.004 L98,28.138 L98.042,28.138 L98.042,20.004 L99.19,20.004 L99.19,30 L98.014,30 L92.33,21.782 L92.288,21.782 L92.288,30 L91.14,30 L91.14,20.004 Z M105.476,19.808 C106.722,19.808 107.716,20.102 108.458,20.718 C109.158,21.292 109.592,22.118 109.774,23.21 L108.626,23.21 C108.472,22.454 108.136,21.88 107.618,21.474 C107.072,21.04 106.358,20.83 105.476,20.83 C104.384,20.83 103.53,21.208 102.886,21.978 C102.242,22.734 101.934,23.756 101.934,25.044 C101.934,26.304 102.242,27.298 102.858,28.026 C103.516,28.796 104.496,29.188 105.798,29.188 C106.344,29.188 106.862,29.104 107.366,28.964 C107.856,28.824 108.276,28.628 108.626,28.404 L108.626,25.856 L105.49,25.856 L105.49,24.862 L109.76,24.862 L109.76,28.95 C109.284,29.342 108.696,29.636 108.01,29.86 C107.282,30.084 106.512,30.196 105.686,30.196 C104.104,30.196 102.872,29.692 102.004,28.684 C101.192,27.746 100.786,26.528 100.786,25.044 C100.786,23.56 101.178,22.342 101.99,21.376 C102.844,20.326 104.006,19.808 105.476,19.808 Z M124.138,18.604 L125.132,18.604 L125.132,20.06 L128.002,20.06 L128.002,20.97 L125.132,20.97 L125.132,22.608 L128.534,22.608 L128.534,23.56 L120.89,23.56 L120.89,22.608 L124.138,22.608 L124.138,20.97 L121.394,20.97 L121.394,20.06 L124.138,20.06 L124.138,18.604 Z M120.666,25.352 L125.818,25.352 L125.818,24.274 L126.826,24.274 L126.826,25.352 L128.548,25.352 L128.548,26.29 L126.826,26.29 L126.826,30.056 C126.826,30.882 126.406,31.302 125.594,31.302 L123.732,31.302 L123.508,30.322 C124.11,30.35 124.684,30.378 125.23,30.378 C125.622,30.378 125.818,30.182 125.818,29.804 L125.818,26.29 L120.666,26.29 L120.666,25.352 Z M117.67,31.274 L116.438,31.274 L116.228,30.308 C116.606,30.35 116.97,30.378 117.32,30.378 C117.684,30.378 117.88,30.168 117.88,29.762 L117.88,26.444 C117.334,26.64 116.788,26.822 116.256,26.99 L116.004,25.982 C116.648,25.828 117.264,25.646 117.88,25.422 L117.88,22.216 L116.158,22.216 L116.158,21.25 L117.88,21.25 L117.88,18.744 L118.874,18.744 L118.874,21.25 L120.33,21.25 L120.33,22.216 L118.874,22.216 L118.874,25.03 C119.378,24.806 119.868,24.568 120.344,24.316 L120.344,25.352 C119.868,25.604 119.378,25.828 118.874,26.038 L118.874,30.014 C118.874,30.854 118.468,31.274 117.67,31.274 Z M122.122,26.948 C122.85,27.802 123.41,28.558 123.802,29.202 L123.004,29.762 C122.584,29.062 122.024,28.292 121.31,27.438 L122.122,26.948 Z M134.372,28.446 L134.372,29.398 C133.154,29.902 131.782,30.308 130.242,30.616 L130.116,29.636 C131.74,29.342 133.154,28.95 134.372,28.446 Z M132.244,18.562 L133.196,18.94 C132.552,20.676 131.894,22.076 131.222,23.126 C131.796,23.056 132.37,22.958 132.958,22.846 C133.21,22.384 133.462,21.894 133.728,21.376 L134.652,21.726 C133.434,23.966 132.426,25.576 131.642,26.528 C132.482,26.36 133.336,26.122 134.176,25.814 L134.176,26.724 C132.86,27.172 131.614,27.466 130.424,27.634 L130.144,26.71 C130.326,26.654 130.48,26.556 130.606,26.43 C131.11,25.898 131.726,25.016 132.454,23.77 C131.74,23.896 131.012,24.008 130.284,24.12 L130.032,23.196 C130.186,23.14 130.326,23.014 130.452,22.832 C131.138,21.586 131.74,20.158 132.244,18.562 Z M135.366,19.458 L138.18,19.458 L138.18,18.534 L139.16,18.534 L139.16,19.458 L142.17,19.458 L142.17,20.368 L139.16,20.368 L139.16,21.642 L142.366,21.642 L142.366,22.272 C142.17,23.168 141.904,24.05 141.568,24.918 L140.602,24.638 C140.896,24.022 141.134,23.322 141.33,22.566 L134.932,22.566 L134.932,21.642 L138.18,21.642 L138.18,20.368 L135.366,20.368 L135.366,19.458 Z M134.624,26.682 L138.502,26.682 C138.544,26.374 138.572,26.052 138.586,25.73 L138.586,23.14 L139.566,23.14 L139.566,25.73 C139.552,26.066 139.524,26.374 139.496,26.682 L142.758,26.682 L142.758,27.606 L139.314,27.606 C139.244,27.858 139.174,28.082 139.09,28.306 C140.462,28.95 141.722,29.706 142.856,30.574 L142.296,31.442 C141.12,30.462 139.93,29.664 138.726,29.048 C138.642,29.188 138.544,29.314 138.46,29.44 C137.774,30.294 136.668,30.966 135.128,31.456 L134.568,30.574 C136.066,30.126 137.102,29.524 137.69,28.768 C137.942,28.418 138.138,28.026 138.278,27.606 L134.624,27.606 L134.624,26.682 Z M135.17,24.4 C135.94,24.764 136.64,25.226 137.284,25.758 L136.808,26.5 C136.122,25.912 135.422,25.436 134.694,25.086 L135.17,24.4 Z M136.248,22.958 C136.962,23.294 137.62,23.728 138.222,24.232 L137.746,24.946 C137.102,24.386 136.458,23.938 135.8,23.63 L136.248,22.958 Z M148.61,27.998 L144.298,27.998 L144.298,27.088 L149.87,27.088 L149.87,26.36 L150.878,26.36 L150.878,27.088 L156.366,27.088 L156.366,27.998 L152.124,27.998 C153.076,28.894 154.546,29.608 156.52,30.14 L156.086,31.036 C153.762,30.252 152.124,29.244 151.144,27.998 L150.878,27.998 L150.878,31.414 L149.87,31.414 L149.87,27.998 L149.604,27.998 C148.722,29.188 147.084,30.224 144.69,31.092 L144.158,30.224 C146.314,29.566 147.798,28.824 148.61,27.998 Z M145.67,22.048 C145.306,22.468 144.914,22.86 144.494,23.252 L143.92,22.468 C145.166,21.348 146.09,20.032 146.706,18.52 L147.644,18.758 C147.504,19.136 147.336,19.5 147.168,19.85 L150.192,19.85 C149.996,19.416 149.8,19.01 149.576,18.646 L150.612,18.478 C150.808,18.884 150.99,19.346 151.172,19.85 L155.694,19.85 L155.694,20.69 L151.242,20.69 L151.242,21.642 L155.176,21.642 L155.176,22.426 L151.242,22.426 L151.242,23.35 L155.176,23.35 L155.176,24.134 L151.242,24.134 L151.242,25.128 L155.96,25.128 L155.96,25.982 L145.67,25.982 L145.67,22.048 Z M150.248,25.128 L150.248,24.134 L146.608,24.134 L146.608,25.128 L150.248,25.128 Z M150.248,23.35 L150.248,22.426 L146.608,22.426 L146.608,23.35 L150.248,23.35 Z M150.248,21.642 L150.248,20.69 L146.678,20.69 L146.608,20.802 L146.608,21.642 L150.248,21.642 Z M167.748,18.52 C168.42,19.024 168.994,19.542 169.47,20.06 L168.826,20.704 L170.534,20.704 L170.534,21.67 L166.222,21.67 C166.32,23.406 166.502,24.778 166.754,25.786 C166.838,26.136 166.936,26.458 167.034,26.766 C167.734,25.646 168.294,24.33 168.728,22.832 L169.638,23.224 C169.078,25.072 168.35,26.64 167.454,27.9 C167.65,28.348 167.86,28.74 168.084,29.062 C168.546,29.734 168.924,30.07 169.204,30.07 C169.456,30.056 169.694,29.328 169.904,27.886 L170.814,28.39 C170.478,30.252 170.002,31.19 169.372,31.19 C168.784,31.19 168.154,30.77 167.482,29.93 C167.23,29.594 166.992,29.202 166.782,28.768 C165.802,29.916 164.654,30.77 163.338,31.358 L162.778,30.518 C164.178,29.888 165.368,28.964 166.334,27.746 C166.138,27.228 165.956,26.668 165.802,26.066 C165.494,24.89 165.298,23.42 165.186,21.67 L160.384,21.67 L160.384,23.994 L163.814,23.994 C163.786,26.36 163.674,27.886 163.492,28.572 C163.31,29.174 162.876,29.482 162.176,29.51 C161.84,29.51 161.434,29.482 160.986,29.454 L160.678,28.544 C161.224,28.572 161.686,28.586 162.064,28.586 C162.372,28.572 162.568,28.362 162.652,27.97 C162.736,27.494 162.778,26.486 162.806,24.946 L160.384,24.946 L160.384,25.366 C160.328,27.872 159.768,29.888 158.732,31.4 L157.962,30.714 C158.858,29.426 159.32,27.648 159.362,25.366 L159.362,20.704 L165.144,20.704 C165.116,20.004 165.102,19.29 165.102,18.534 L166.138,18.534 C166.138,19.318 166.152,20.032 166.18,20.704 L168.798,20.704 C168.378,20.2 167.818,19.682 167.104,19.136 L167.748,18.52 Z" id="path-13"></path>
        <path d="M204.06,8.432 L205.14,8.432 L207.816,15.932 L207.852,15.932 L210.528,8.432 L211.608,8.432 L208.44,17 L207.228,17 L204.06,8.432 Z M214.428,8.432 L215.196,8.432 L215.196,17 L214.212,17 L214.212,9.632 C213.672,10.184 213,10.568 212.196,10.808 L212.196,9.824 C212.58,9.716 212.988,9.548 213.396,9.308 C213.804,9.044 214.14,8.756 214.428,8.432 Z M218.064,15.572 C218.256,15.572 218.436,15.644 218.58,15.788 C218.724,15.932 218.796,16.1 218.796,16.316 C218.796,16.52 218.724,16.688 218.58,16.832 C218.436,16.976 218.256,17.048 218.064,17.048 C217.848,17.048 217.68,16.976 217.548,16.832 C217.404,16.688 217.332,16.52 217.332,16.316 C217.332,16.1 217.404,15.932 217.548,15.788 C217.68,15.644 217.848,15.572 218.064,15.572 Z M223.248,8.264 C224.268,8.264 225.036,8.708 225.564,9.62 C226.02,10.388 226.248,11.42 226.248,12.716 C226.248,14.012 226.02,15.044 225.564,15.812 C225.036,16.712 224.268,17.168 223.248,17.168 C222.216,17.168 221.448,16.712 220.932,15.812 C220.476,15.044 220.248,14.012 220.248,12.716 C220.248,11.42 220.476,10.388 220.932,9.62 C221.448,8.708 222.216,8.264 223.248,8.264 Z M223.248,9.104 C222.48,9.104 221.928,9.512 221.592,10.34 C221.352,10.916 221.232,11.708 221.232,12.716 C221.232,13.712 221.352,14.504 221.592,15.092 C221.928,15.908 222.48,16.328 223.248,16.328 C224.016,16.328 224.568,15.908 224.904,15.092 C225.144,14.504 225.276,13.712 225.276,12.716 C225.276,11.708 225.144,10.916 224.904,10.34 C224.568,9.512 224.016,9.104 223.248,9.104 Z M234.324,7.328 L235.164,7.328 L235.164,10.508 L235.872,10.508 L235.872,11.36 L233.04,11.36 L233.04,11.972 C233.04,12.344 233.028,12.704 233.016,13.052 L235.32,13.052 L235.32,18.152 L234.468,18.152 L234.468,13.88 L232.968,13.88 C232.824,15.68 232.5,17.048 231.984,18.008 L231.336,17.432 C231.888,16.292 232.176,14.468 232.188,11.972 L232.188,7.568 L233.04,7.568 L233.04,10.508 L234.324,10.508 L234.324,7.328 Z M237.348,11.492 L237.348,12.812 C237.3,15.044 236.904,16.82 236.184,18.14 L235.584,17.504 C236.184,16.376 236.508,14.804 236.556,12.812 L236.556,8.048 C238.44,8.024 240.144,7.772 241.656,7.292 L242.088,8.072 C240.672,8.48 239.088,8.72 237.348,8.792 L237.348,10.676 L241.788,10.676 L241.788,11.408 C241.512,13.076 240.984,14.48 240.216,15.62 C240.804,16.412 241.524,17.012 242.376,17.444 L241.944,18.2 C241.044,17.732 240.288,17.108 239.688,16.316 C239.028,17.084 238.236,17.72 237.324,18.212 L236.904,17.444 C237.804,16.952 238.56,16.328 239.184,15.584 C238.5,14.468 238.02,13.1 237.744,11.492 L237.348,11.492 Z M238.524,11.492 C238.788,12.8 239.184,13.916 239.712,14.852 C240.312,13.892 240.732,12.764 240.948,11.492 L238.524,11.492 Z M243.708,9.404 L248.4,9.404 L248.4,7.232 L249.288,7.232 L249.288,9.404 L253.968,9.404 L253.968,10.232 L250.056,10.232 C250.86,12.14 252.3,13.844 254.364,15.344 L253.776,16.088 C251.664,14.36 250.2,12.404 249.384,10.232 L249.288,10.232 L249.288,14.912 L251.856,14.912 L251.856,15.74 L249.288,15.74 L249.288,18.2 L248.4,18.2 L248.4,15.74 L245.928,15.74 L245.928,14.912 L248.4,14.912 L248.4,10.232 L248.316,10.232 C247.428,12.668 245.916,14.672 243.78,16.244 L243.288,15.44 C245.304,14.096 246.744,12.356 247.632,10.232 L243.708,10.232 L243.708,9.404 Z M264.876,8.624 L264.876,18.188 L264,18.188 L264,17.444 L257.688,17.444 L257.688,18.188 L256.812,18.188 L256.812,8.624 L259.38,8.624 C259.644,8.144 259.848,7.664 259.968,7.16 L260.844,7.28 C260.712,7.76 260.52,8.216 260.28,8.624 L264.876,8.624 Z M257.688,16.616 L264,16.616 L264,14.66 L257.688,14.66 L257.688,16.616 Z M257.688,13.868 L264,13.868 L264,12.032 L257.688,12.032 L257.688,13.868 Z M257.688,11.24 L264,11.24 L264,9.452 L257.688,9.452 L257.688,11.24 Z M267.924,8.036 L272.268,8.036 L272.268,8.864 L267.924,8.864 L267.924,8.036 Z M267.456,11.276 L272.724,11.276 L272.724,12.116 L269.952,12.116 C269.472,13.94 269.052,15.236 268.692,16.028 C269.64,15.836 270.588,15.56 271.524,15.212 C271.212,14.564 270.912,13.976 270.6,13.424 L271.332,13.064 C271.908,14.096 272.448,15.212 272.952,16.424 L272.208,16.808 C272.088,16.496 271.968,16.208 271.848,15.932 C270.576,16.388 269.184,16.748 267.696,17.012 L267.492,16.196 C267.576,16.172 267.636,16.148 267.684,16.124 C268.044,15.632 268.524,14.3 269.124,12.116 L267.456,12.116 L267.456,11.276 Z M274.524,7.232 L275.388,7.232 L275.388,9.656 L278.004,9.656 C278.004,13.412 277.944,15.728 277.836,16.616 C277.716,17.588 277.128,18.08 276.096,18.08 C275.892,18.08 275.544,18.068 275.04,18.044 L274.848,17.276 C275.28,17.3 275.664,17.324 275.988,17.324 C276.576,17.324 276.924,16.976 277.02,16.292 C277.092,15.656 277.14,13.724 277.164,10.496 L275.388,10.496 L275.388,10.64 C275.352,14.096 274.512,16.628 272.88,18.224 L272.232,17.66 C273.732,16.208 274.5,13.868 274.524,10.64 L274.524,10.496 L272.904,10.496 L272.904,9.656 L274.524,9.656 L274.524,7.232 Z M285.216,9.296 L287.136,9.296 L287.136,7.244 L287.964,7.244 L287.964,9.296 L289.908,9.296 L289.908,14.12 L287.964,14.12 L287.964,16.748 C288.372,16.664 288.78,16.58 289.176,16.484 C289.02,15.98 288.852,15.488 288.672,15.02 L289.38,14.792 C289.74,15.704 290.064,16.748 290.352,17.924 L289.608,18.104 C289.536,17.792 289.452,17.48 289.38,17.192 C288.06,17.516 286.656,17.792 285.156,18.008 L284.952,17.204 C285.696,17.12 286.428,17.024 287.136,16.904 L287.136,14.12 L285.216,14.12 L285.216,9.296 Z M289.104,13.328 L289.104,10.088 L287.928,10.088 L287.928,13.328 L289.104,13.328 Z M287.172,13.328 L287.172,10.088 L286.02,10.088 L286.02,13.328 L287.172,13.328 Z M280.704,13.028 L280.704,14.312 C280.704,14.408 280.692,14.492 280.692,14.588 L281.844,14.588 L281.844,13.028 L280.704,13.028 Z M280.656,15.32 C280.56,16.46 280.296,17.42 279.888,18.2 L279.264,17.636 C279.708,16.772 279.936,15.68 279.948,14.36 L279.948,10.652 C279.888,10.712 279.828,10.772 279.78,10.832 L279.264,10.208 C280.032,9.428 280.68,8.408 281.184,7.148 L281.964,7.328 C281.868,7.592 281.76,7.856 281.64,8.096 L283.848,8.096 L283.848,8.696 C283.584,9.224 283.332,9.68 283.068,10.052 L284.508,10.052 L284.508,17.24 C284.508,17.816 284.232,18.104 283.692,18.104 L283.068,18.104 L282.876,17.408 C283.092,17.42 283.284,17.432 283.464,17.432 C283.668,17.432 283.776,17.276 283.776,16.976 L283.776,15.32 L282.564,15.32 L282.564,17.984 L281.844,17.984 L281.844,15.32 L280.656,15.32 Z M283.776,14.588 L283.776,13.028 L282.564,13.028 L282.564,14.588 L283.776,14.588 Z M283.776,12.284 L283.776,10.796 L282.564,10.796 L282.564,12.284 L283.776,12.284 Z M280.464,10.052 L282.18,10.052 C282.432,9.692 282.684,9.272 282.936,8.804 L281.28,8.804 C281.028,9.26 280.752,9.668 280.464,10.052 Z M281.844,10.796 L280.704,10.796 L280.704,12.284 L281.844,12.284 L281.844,10.796 Z M292.236,10.88 L293.184,7.544 L294.036,7.688 L293.352,10.052 L295.452,10.052 C295.692,9.116 295.884,8.144 296.028,7.112 L296.904,7.22 C296.748,8.228 296.556,9.164 296.34,10.052 L301.956,10.052 L301.956,10.88 L296.112,10.88 C295.968,11.36 295.824,11.816 295.656,12.248 L300.564,12.248 L300.564,12.992 C300.24,14.024 299.592,14.96 298.608,15.8 C299.58,16.376 300.768,16.904 302.16,17.384 L301.716,18.188 C300.18,17.624 298.908,17.012 297.9,16.352 C296.916,17.048 295.692,17.672 294.24,18.236 L293.784,17.432 C295.128,16.94 296.244,16.4 297.144,15.812 C296.208,15.092 295.548,14.312 295.152,13.472 C294.276,15.368 293.148,16.868 291.78,17.984 L291.336,17.192 C293.088,15.656 294.372,13.556 295.212,10.88 L292.236,10.88 Z M295.8,13.04 C296.208,13.856 296.892,14.612 297.852,15.308 C298.74,14.612 299.352,13.856 299.688,13.04 L295.8,13.04 Z M298.92,7.208 C299.784,7.868 300.492,8.528 301.068,9.188 L300.456,9.8 C299.952,9.164 299.244,8.492 298.344,7.772 L298.92,7.208 Z" id="path-14"></path>
        <path d="M184.16,126.636 L184.16,127.692 C184.1,130.332 183.584,132.444 182.6,134.028 L182,133.392 C182.816,132.024 183.26,130.116 183.332,127.692 L183.332,123.936 C186.5,123.912 189.356,123.66 191.888,123.204 L192.32,123.984 C189.896,124.392 187.172,124.62 184.16,124.668 L184.16,125.844 L188.168,125.844 C188.228,125.484 188.276,125.112 188.312,124.752 L189.176,124.86 C189.14,125.196 189.092,125.532 189.044,125.844 L192.848,125.844 L192.848,126.636 L188.912,126.636 C188.84,127.044 188.756,127.416 188.66,127.776 L191.744,127.776 L191.744,131.856 L190.916,131.856 L190.916,128.568 L186.176,128.568 L186.176,131.904 L185.348,131.904 L185.348,127.776 L187.784,127.776 C187.88,127.392 187.964,127.02 188.036,126.636 L184.16,126.636 Z M189.236,131.58 C190.568,132.084 191.78,132.684 192.872,133.392 L192.392,134.124 C191.228,133.332 190.028,132.696 188.804,132.228 L189.236,131.58 Z M188.348,129.048 L189.188,129.108 C189.044,130.524 188.612,131.616 187.892,132.36 C187.148,133.104 186.008,133.704 184.484,134.136 L184.016,133.344 C185.432,132.984 186.476,132.492 187.148,131.844 C187.82,131.196 188.216,130.26 188.348,129.048 Z M194.276,125.484 L195.776,125.484 L195.776,123.144 L196.628,123.144 L196.628,125.484 L197.864,125.484 L197.864,126.312 L196.628,126.312 L196.628,126.924 C197.108,127.452 197.6,128.052 198.104,128.724 L197.612,129.456 C197.228,128.772 196.904,128.208 196.628,127.776 L196.628,134.076 L195.776,134.076 L195.776,128.184 C195.392,129.384 194.912,130.464 194.312,131.448 L193.94,130.5 C194.78,129.276 195.392,127.884 195.752,126.312 L194.276,126.312 L194.276,125.484 Z M199.628,126.636 C199.172,127.116 198.704,127.524 198.2,127.884 L197.732,127.152 C199.148,126.132 200.252,124.8 201.02,123.156 L201.812,123.156 C202.46,124.668 203.564,125.988 205.136,127.128 L204.668,127.86 C204.152,127.488 203.684,127.092 203.276,126.672 L203.276,127.404 L199.628,127.404 L199.628,126.636 Z M203.216,126.612 C202.46,125.832 201.86,124.968 201.416,124.008 C200.888,125.028 200.3,125.892 199.652,126.612 L203.216,126.612 Z M198.008,132.936 L202.16,132.936 C202.652,131.652 203.084,130.08 203.456,128.208 L204.284,128.424 C203.948,130.116 203.516,131.616 203.012,132.936 L204.884,132.936 L204.884,133.776 L198.008,133.776 L198.008,132.936 Z M199.352,128.532 C199.688,129.54 199.976,130.704 200.228,132.024 L199.472,132.228 C199.232,131.028 198.944,129.888 198.608,128.784 L199.352,128.532 Z M201.2,128.1 C201.512,129.072 201.788,130.188 202.028,131.448 L201.236,131.652 C201.032,130.5 200.768,129.396 200.456,128.34 L201.2,128.1 Z M206.456,123.756 L216.656,123.756 L216.656,124.608 L212.744,124.608 C212.528,125.1 212.276,125.58 212,126.036 L212,134.16 L211.112,134.16 L211.112,127.308 C209.984,128.712 208.508,129.96 206.684,131.052 L206.12,130.296 C208.832,128.736 210.728,126.84 211.784,124.608 L206.456,124.608 L206.456,123.756 Z M213.512,126.984 C214.892,128.076 216.044,129.168 216.98,130.26 L216.32,130.932 C215.48,129.876 214.34,128.76 212.888,127.572 L213.512,126.984 Z M219.068,123.324 C219.896,123.948 220.592,124.572 221.156,125.196 L220.544,125.796 C220.04,125.196 219.356,124.56 218.48,123.888 L219.068,123.324 Z M226.088,133.92 C225.428,133.92 224.708,133.908 223.94,133.896 C223.16,133.884 222.524,133.812 222.044,133.68 C221.564,133.536 221.132,133.236 220.76,132.804 C220.592,132.6 220.436,132.504 220.292,132.504 C220.004,132.504 219.524,133.056 218.864,134.16 L218.216,133.572 C218.852,132.564 219.416,131.952 219.908,131.736 L219.908,128.088 L218.204,128.088 L218.204,127.296 L220.712,127.296 L220.712,131.784 C220.808,131.856 220.904,131.94 221.012,132.06 C221.3,132.408 221.612,132.66 221.948,132.816 C222.332,132.984 222.872,133.08 223.592,133.104 C224.228,133.116 225.02,133.128 225.968,133.128 C226.52,133.128 227.096,133.116 227.684,133.104 C228.26,133.092 228.704,133.08 229.016,133.056 L228.812,133.92 L226.088,133.92 Z M223.94,124.476 C224.444,124.776 224.912,125.076 225.32,125.376 C225.944,125.052 226.52,124.692 227.048,124.284 L221.72,124.284 L221.72,123.552 L228.212,123.552 L228.212,124.176 C227.492,124.8 226.712,125.34 225.872,125.796 L226.064,125.952 L228.44,125.952 L228.44,131.316 C228.44,131.928 228.104,132.24 227.432,132.24 L226.436,132.24 L226.244,131.508 L227.192,131.544 C227.48,131.544 227.624,131.4 227.624,131.136 L227.624,130.236 L225.608,130.236 L225.608,132.3 L224.804,132.3 L224.804,130.236 L222.8,130.236 L222.8,132.336 L221.984,132.336 L221.984,125.952 L224.984,125.952 C224.528,125.628 224,125.304 223.412,124.992 L223.94,124.476 Z M222.8,128.472 L222.8,129.528 L224.804,129.528 L224.804,128.472 L222.8,128.472 Z M225.608,128.472 L225.608,129.528 L227.624,129.528 L227.624,128.472 L225.608,128.472 Z M227.624,127.752 L227.624,126.672 L225.608,126.672 L225.608,127.752 L227.624,127.752 Z M224.804,127.752 L224.804,126.672 L222.8,126.672 L222.8,127.752 L224.804,127.752 Z M231.032,123.3 C231.848,123.936 232.532,124.572 233.084,125.196 L232.46,125.832 C231.968,125.22 231.296,124.56 230.432,123.864 L231.032,123.3 Z M238.328,133.92 C237.644,133.92 236.9,133.908 236.096,133.896 C235.28,133.884 234.62,133.812 234.128,133.68 C233.624,133.536 233.18,133.236 232.796,132.804 C232.628,132.6 232.46,132.504 232.304,132.504 C232.016,132.504 231.524,133.056 230.852,134.184 L230.204,133.608 C230.852,132.576 231.416,131.952 231.92,131.736 L231.92,128.1 L230.192,128.1 L230.192,127.284 L232.748,127.284 L232.748,131.784 C232.844,131.856 232.952,131.94 233.06,132.06 C233.372,132.396 233.696,132.648 234.044,132.816 C234.428,132.972 235.004,133.056 235.748,133.08 C236.408,133.092 237.236,133.104 238.22,133.104 C238.748,133.104 239.276,133.092 239.828,133.092 C240.368,133.08 240.788,133.068 241.076,133.044 L240.86,133.92 L238.328,133.92 Z M237.968,132.312 L236.264,132.312 L236.072,131.484 C236.624,131.52 237.164,131.544 237.668,131.544 C238.004,131.544 238.184,131.376 238.184,131.052 L238.184,125.952 L233.648,125.952 L233.648,125.1 L238.184,125.1 L238.184,123.156 L239.06,123.156 L239.06,125.1 L240.836,125.1 L240.836,125.952 L239.06,125.952 L239.06,131.256 C239.06,131.952 238.688,132.312 237.968,132.312 Z M234.956,127.02 C235.724,127.908 236.312,128.688 236.72,129.36 L236.024,129.84 C235.592,129.12 235.016,128.328 234.284,127.452 L234.956,127.02 Z M243.788,131.508 C244.052,131.508 244.28,131.616 244.448,131.844 C244.604,132.06 244.688,132.336 244.688,132.684 C244.688,133.212 244.532,133.68 244.22,134.088 C243.908,134.472 243.488,134.736 242.984,134.868 L242.984,134.28 C243.296,134.172 243.548,133.992 243.74,133.752 C243.92,133.5 244.004,133.236 244.004,132.948 C243.956,132.972 243.86,132.996 243.74,132.996 C243.536,132.996 243.368,132.924 243.224,132.78 C243.08,132.636 243.008,132.456 243.008,132.252 C243.008,132.024 243.08,131.844 243.224,131.712 C243.368,131.568 243.548,131.508 243.788,131.508 Z M256.796,128.448 L257.6,125.82 L258.404,125.94 L257.828,127.68 L259.388,127.68 C259.58,126.984 259.724,126.264 259.844,125.508 L260.672,125.616 C260.552,126.348 260.396,127.032 260.228,127.68 L264.692,127.68 L264.692,128.448 L260,128.448 C259.88,128.832 259.748,129.192 259.604,129.528 L263.732,129.528 L263.732,130.224 C263.456,131.004 262.88,131.712 262.016,132.36 C262.784,132.768 263.708,133.14 264.788,133.476 L264.404,134.172 C263.192,133.752 262.172,133.296 261.356,132.804 C260.564,133.284 259.592,133.728 258.44,134.124 L258.044,133.428 C259.064,133.092 259.928,132.72 260.636,132.336 C259.94,131.808 259.424,131.256 259.088,130.668 C258.344,132.072 257.42,133.188 256.304,134.028 L255.896,133.296 C257.36,132.12 258.452,130.5 259.148,128.448 L256.796,128.448 Z M259.628,130.26 C259.964,130.86 260.528,131.424 261.296,131.928 C262.052,131.412 262.58,130.86 262.88,130.26 L259.628,130.26 Z M262.28,125.496 C262.868,125.904 263.36,126.312 263.768,126.72 L263.192,127.296 C262.832,126.9 262.352,126.48 261.74,126.024 L262.28,125.496 Z M260.06,123.06 C260.24,123.396 260.408,123.78 260.576,124.2 L264.848,124.2 L264.848,125.04 L255.992,125.04 L255.992,127.8 C255.944,130.416 255.524,132.516 254.72,134.088 L254.048,133.488 C254.744,132.12 255.116,130.224 255.14,127.8 L255.14,124.2 L259.676,124.2 C259.508,123.84 259.34,123.504 259.148,123.204 L260.06,123.06 Z M273.62,125.412 C274.652,126.492 275.444,127.44 275.996,128.256 L275.276,128.76 C275.036,128.4 274.76,128.016 274.46,127.632 C272.228,127.896 269.948,128.076 267.608,128.16 L267.38,127.488 C268.316,126.816 269.12,125.988 269.792,125.004 L266.624,125.004 L266.624,124.188 L271.292,124.188 C271.124,123.816 270.944,123.468 270.752,123.156 L271.652,123 C271.832,123.36 272,123.756 272.168,124.188 L276.5,124.188 L276.5,125.004 L270.752,125.004 C270.176,125.916 269.504,126.708 268.724,127.368 C270.512,127.296 272.24,127.164 273.92,126.972 C273.596,126.6 273.26,126.228 272.912,125.844 L273.62,125.412 Z M269.12,128.652 L269.996,128.652 L269.996,130.056 L273.116,130.056 L273.116,128.652 L273.992,128.652 L273.992,130.056 L276.968,130.056 L276.968,130.896 L273.992,130.896 L273.992,134.112 L273.116,134.112 L273.116,130.896 L269.96,130.896 C269.804,132.336 269.132,133.416 267.944,134.136 L267.296,133.56 C268.34,132.972 268.94,132.084 269.084,130.896 L266.144,130.896 L266.144,130.056 L269.12,130.056 L269.12,128.652 Z" id="path-15"></path>
        <path d="M518.876,123.3 C519.68,123.924 520.352,124.548 520.904,125.172 L520.304,125.772 C519.812,125.172 519.14,124.536 518.288,123.864 L518.876,123.3 Z M525.848,133.896 C525.2,133.896 524.48,133.884 523.712,133.872 C522.944,133.86 522.308,133.788 521.828,133.656 C521.36,133.512 520.94,133.212 520.568,132.78 C520.4,132.576 520.244,132.48 520.1,132.48 C519.8,132.48 519.32,133.032 518.648,134.16 L518,133.572 C518.648,132.552 519.212,131.928 519.716,131.712 L519.716,128.064 L518.012,128.064 L518.012,127.272 L520.52,127.272 L520.52,131.76 C520.616,131.832 520.712,131.928 520.808,132.036 C521.096,132.384 521.408,132.636 521.744,132.792 C522.116,132.96 522.656,133.056 523.376,133.08 C524,133.092 524.792,133.104 525.728,133.104 C526.304,133.104 526.892,133.092 527.492,133.08 C528.068,133.068 528.524,133.056 528.848,133.032 L528.632,133.896 L525.848,133.896 Z M524.816,123.072 L525.656,123.072 L525.656,124.608 L528.056,124.608 L528.056,125.436 L525.656,125.436 L525.656,127.152 L528.476,127.152 L528.476,127.992 L526.46,127.992 L526.46,131.208 C526.46,131.424 526.58,131.544 526.844,131.544 L527.276,131.544 C527.444,131.544 527.564,131.508 527.66,131.436 C527.804,131.328 527.9,130.848 527.948,129.996 L528.704,130.248 C528.632,131.244 528.5,131.832 528.32,132.024 C528.152,132.192 527.864,132.288 527.456,132.3 L526.592,132.3 C526.28,132.3 526.052,132.216 525.896,132.048 C525.728,131.88 525.656,131.664 525.656,131.4 L525.656,127.992 L524.444,127.992 C524.408,128.82 524.288,129.54 524.084,130.14 C523.772,131.052 523.04,131.808 521.912,132.396 L521.348,131.712 C522.32,131.232 522.956,130.632 523.268,129.912 C523.472,129.384 523.592,128.736 523.628,127.992 L521.696,127.992 L521.696,127.152 L524.816,127.152 L524.816,125.436 L522.872,125.436 C522.656,125.892 522.416,126.3 522.152,126.684 L521.396,126.216 C522.044,125.316 522.512,124.32 522.8,123.24 L523.628,123.408 C523.508,123.828 523.376,124.224 523.232,124.608 L524.816,124.608 L524.816,123.072 Z M534.32,123.588 L540.008,123.588 L540.008,124.308 C539.66,125.244 539.036,126.024 538.124,126.672 C538.892,127.032 539.828,127.284 540.92,127.428 L540.608,128.196 C539.288,128.016 538.184,127.668 537.32,127.164 C536.48,127.62 535.472,127.98 534.308,128.268 L533.9,127.536 C534.92,127.296 535.808,127.008 536.552,126.648 C535.796,126.036 535.256,125.28 534.92,124.368 L534.32,124.368 L534.32,123.588 Z M535.772,124.368 C536.096,125.112 536.612,125.736 537.32,126.216 C538.136,125.7 538.724,125.088 539.096,124.368 L535.772,124.368 Z M531.308,134.004 L530.264,134.004 L530.084,133.164 C530.396,133.188 530.708,133.212 531.008,133.212 C531.32,133.212 531.488,133.044 531.488,132.732 L531.488,129.852 C531.008,130.02 530.528,130.176 530.048,130.32 L529.832,129.456 C530.396,129.324 530.948,129.168 531.488,128.988 L531.488,126.24 L530.024,126.24 L530.024,125.412 L531.488,125.412 L531.488,123.144 L532.376,123.144 L532.376,125.412 L533.72,125.412 L533.72,126.24 L532.376,126.24 L532.376,128.664 C532.832,128.472 533.288,128.256 533.744,128.028 L533.744,128.904 C533.3,129.12 532.844,129.324 532.376,129.516 L532.376,132.96 C532.376,133.656 532.016,134.004 531.308,134.004 Z M534.524,129.132 L536.924,129.132 L536.924,128.076 L537.764,128.076 L537.764,129.132 L540.128,129.132 L540.128,129.924 L537.764,129.924 L537.764,131.292 L540.74,131.292 L540.74,132.096 L537.764,132.096 L537.764,133.992 L536.924,133.992 L536.924,132.096 L533.912,132.096 L533.912,131.292 L536.924,131.292 L536.924,129.924 L534.524,129.924 L534.524,129.132 Z M547.52,123.036 C547.652,123.36 547.784,123.72 547.904,124.116 L552.656,124.116 L552.656,124.908 L542.06,124.908 L542.06,124.116 L546.98,124.116 C546.86,123.78 546.716,123.48 546.572,123.204 L547.52,123.036 Z M550.736,134.076 L549.728,134.076 L549.524,133.296 L550.484,133.332 C550.976,133.332 551.228,133.14 551.228,132.756 L551.228,129.492 L543.5,129.492 L543.5,134.112 L542.672,134.112 L542.672,128.736 L552.056,128.736 L552.056,132.936 C552.056,133.692 551.612,134.076 550.736,134.076 Z M544.016,125.688 L550.724,125.688 L550.724,128.016 L544.016,128.016 L544.016,125.688 Z M549.884,127.344 L549.884,126.36 L544.856,126.36 L544.856,127.344 L549.884,127.344 Z M545.012,130.26 L549.728,130.26 L549.728,132.66 L545.012,132.66 L545.012,130.26 Z M548.96,132.012 L548.96,130.908 L545.792,130.908 L545.792,132.012 L548.96,132.012 Z M555.968,126.612 L555.968,127.668 C555.908,130.308 555.392,132.42 554.408,134.004 L553.808,133.368 C554.624,132 555.068,130.092 555.14,127.668 L555.14,123.912 C558.308,123.888 561.164,123.636 563.696,123.18 L564.128,123.96 C561.704,124.368 558.98,124.596 555.968,124.644 L555.968,125.82 L559.976,125.82 C560.036,125.46 560.084,125.088 560.12,124.728 L560.984,124.836 C560.948,125.172 560.9,125.508 560.852,125.82 L564.656,125.82 L564.656,126.612 L560.72,126.612 C560.648,127.02 560.564,127.392 560.468,127.752 L563.552,127.752 L563.552,131.832 L562.724,131.832 L562.724,128.544 L557.984,128.544 L557.984,131.88 L557.156,131.88 L557.156,127.752 L559.592,127.752 C559.688,127.368 559.772,126.996 559.844,126.612 L555.968,126.612 Z M561.044,131.556 C562.376,132.06 563.588,132.66 564.68,133.368 L564.2,134.1 C563.036,133.308 561.836,132.672 560.612,132.204 L561.044,131.556 Z M560.156,129.024 L560.996,129.084 C560.852,130.5 560.42,131.592 559.7,132.336 C558.956,133.08 557.816,133.68 556.292,134.112 L555.824,133.32 C557.24,132.96 558.284,132.468 558.956,131.82 C559.628,131.172 560.024,130.236 560.156,129.024 Z M567.2,128.136 L575.552,128.136 L575.552,131.196 L571.784,131.196 L571.784,131.868 L575.852,131.868 L575.852,132.444 L571.784,132.444 L571.784,133.152 L576.728,133.152 L576.728,133.824 L566,133.824 L566,133.152 L570.92,133.152 L570.92,132.444 L566.9,132.444 L566.9,131.868 L570.92,131.868 L570.92,131.196 L567.2,131.196 L567.2,128.136 Z M574.724,130.656 L574.724,129.924 L571.784,129.924 L571.784,130.656 L574.724,130.656 Z M570.92,130.656 L570.92,129.924 L568.028,129.924 L568.028,130.656 L570.92,130.656 Z M568.028,129.42 L570.92,129.42 L570.92,128.676 L568.028,128.676 L568.028,129.42 Z M571.784,128.676 L571.784,129.42 L574.724,129.42 L574.724,128.676 L571.784,128.676 Z M567.464,123.3 L575.3,123.3 L575.3,126.264 L567.464,126.264 L567.464,123.3 Z M574.46,125.748 L574.46,125.04 L568.304,125.04 L568.304,125.748 L574.46,125.748 Z M568.304,124.524 L574.46,124.524 L574.46,123.828 L568.304,123.828 L568.304,124.524 Z M565.988,126.888 L576.74,126.888 L576.74,127.536 L565.988,127.536 L565.988,126.888 Z M579.236,125.436 C579.02,125.916 578.768,126.312 578.48,126.624 L577.784,126.12 C578.384,125.472 578.768,124.584 578.936,123.444 L579.752,123.576 C579.692,123.96 579.62,124.308 579.524,124.632 L580.916,124.632 L580.916,123.144 L581.78,123.144 L581.78,124.632 L584.024,124.632 L584.024,125.436 L581.78,125.436 L581.78,126.984 L584.372,126.984 L584.372,127.788 L581.78,127.788 L581.78,129.048 L584.12,129.048 L584.12,132.216 C584.12,132.924 583.76,133.284 583.04,133.284 L582.404,133.284 L582.188,132.468 L582.776,132.504 C583.112,132.504 583.292,132.348 583.292,132.036 L583.292,129.852 L581.78,129.852 L581.78,134.124 L580.916,134.124 L580.916,129.852 L579.392,129.852 L579.392,133.368 L578.552,133.368 L578.552,129.048 L580.916,129.048 L580.916,127.788 L578.012,127.788 L578.012,126.984 L580.916,126.984 L580.916,125.436 L579.236,125.436 Z M585.08,124.224 L585.92,124.224 L585.92,131.64 L585.08,131.64 L585.08,124.224 Z M587.276,134.004 L585.512,134.004 L585.32,133.176 C585.896,133.212 586.448,133.236 586.976,133.236 C587.336,133.236 587.528,133.044 587.528,132.66 L587.528,123.144 L588.38,123.144 L588.38,132.876 C588.38,133.62 588.008,134.004 587.276,134.004 Z M592.052,123.612 L598.664,123.612 L598.664,127.536 L592.052,127.536 L592.052,123.612 Z M597.8,126.72 L597.8,124.428 L592.916,124.428 L592.916,126.72 L597.8,126.72 Z M594.68,128.724 L594.68,133.932 L593.84,133.932 L593.84,133.32 L591.308,133.32 L591.308,133.932 L590.456,133.932 L590.456,128.724 L594.68,128.724 Z M591.308,132.504 L593.84,132.504 L593.84,129.552 L591.308,129.552 L591.308,132.504 Z M600.26,128.724 L600.26,133.932 L599.396,133.932 L599.396,133.32 L596.768,133.32 L596.768,133.932 L595.916,133.932 L595.916,128.724 L600.26,128.724 Z M596.768,132.504 L599.396,132.504 L599.396,129.552 L596.768,129.552 L596.768,132.504 Z M607.772,123.012 C607.988,123.36 608.192,123.744 608.384,124.176 L612.704,124.176 L612.704,125.016 L603.812,125.016 L603.812,127.752 C603.764,130.404 603.368,132.528 602.6,134.112 L601.892,133.476 C602.552,132.108 602.9,130.2 602.924,127.752 L602.924,124.176 L607.436,124.176 C607.244,123.804 607.028,123.468 606.812,123.18 L607.772,123.012 Z M606.992,125.352 L607.82,125.544 C607.712,125.88 607.604,126.192 607.496,126.504 L612.176,126.504 L612.176,127.26 L607.196,127.26 C606.86,128.028 606.5,128.712 606.116,129.312 L608.36,129.312 L608.36,127.86 L609.224,127.86 L609.224,129.312 L611.9,129.312 L611.9,130.092 L609.224,130.092 L609.224,131.436 L612.812,131.436 L612.812,132.228 L609.224,132.228 L609.224,134.124 L608.36,134.124 L608.36,132.228 L604.028,132.228 L604.028,131.436 L608.36,131.436 L608.36,130.092 L605.216,130.092 L605.036,129.348 C605.492,128.784 605.912,128.088 606.284,127.26 L604.472,127.26 L604.472,126.504 L606.596,126.504 C606.728,126.132 606.86,125.748 606.992,125.352 Z M614.06,124.536 L619.016,124.536 C618.8,124.044 618.56,123.6 618.296,123.192 L619.256,123.024 C619.496,123.48 619.736,123.984 619.952,124.536 L624.68,124.536 L624.68,125.364 L614.06,125.364 L614.06,124.536 Z M621.26,125.724 C622.592,126.78 623.708,127.824 624.608,128.88 L623.972,129.516 C623.18,128.508 622.076,127.44 620.672,126.288 L621.26,125.724 Z M621.38,127.968 L622.172,128.316 C621.596,129.42 620.9,130.368 620.072,131.172 C621.368,132.108 622.94,132.804 624.812,133.284 L624.272,134.088 C622.328,133.536 620.708,132.768 619.412,131.76 C618.068,132.84 616.436,133.632 614.516,134.136 L613.988,133.344 C615.884,132.864 617.456,132.144 618.716,131.184 C617.84,130.392 617.12,129.48 616.556,128.472 L617.3,128.052 C617.828,129.036 618.524,129.888 619.376,130.62 C620.192,129.852 620.864,128.976 621.38,127.968 Z M617.396,125.736 L618.02,126.288 C617.108,127.476 615.98,128.52 614.636,129.408 L614.084,128.676 C615.392,127.836 616.496,126.864 617.396,125.736 Z M628.544,123 L629.348,123.384 C629.084,124.224 628.748,125.004 628.364,125.748 L628.364,134.136 L627.5,134.136 L627.5,127.176 C627.068,127.812 626.576,128.412 626.036,128.988 L625.772,128.088 C627.044,126.612 627.968,124.92 628.544,123 Z M629.6,125.712 L634.196,125.712 L634.196,123.132 L635.06,123.132 L635.06,125.712 L636.788,125.712 L636.788,126.552 L635.06,126.552 L635.06,132.816 C635.06,133.632 634.676,134.04 633.932,134.04 L632.192,134.04 L632,133.188 C632.564,133.224 633.104,133.248 633.632,133.248 C634.004,133.248 634.196,133.032 634.196,132.6 L634.196,126.552 L629.6,126.552 L629.6,125.712 Z M630.704,127.86 C631.616,128.94 632.324,129.888 632.816,130.692 L632.084,131.208 C631.568,130.332 630.872,129.36 629.996,128.292 L630.704,127.86 Z" id="path-16"></path>
        <path d="M447.032,67.624 L447.032,77.188 L446.156,77.188 L446.156,76.444 L439.844,76.444 L439.844,77.188 L438.968,77.188 L438.968,67.624 L441.536,67.624 C441.8,67.144 442.004,66.664 442.124,66.16 L443,66.28 C442.868,66.76 442.676,67.216 442.436,67.624 L447.032,67.624 Z M439.844,75.616 L446.156,75.616 L446.156,73.66 L439.844,73.66 L439.844,75.616 Z M439.844,72.868 L446.156,72.868 L446.156,71.032 L439.844,71.032 L439.844,72.868 Z M439.844,70.24 L446.156,70.24 L446.156,68.452 L439.844,68.452 L439.844,70.24 Z M450.08,67.036 L454.424,67.036 L454.424,67.864 L450.08,67.864 L450.08,67.036 Z M449.612,70.276 L454.88,70.276 L454.88,71.116 L452.108,71.116 C451.628,72.94 451.208,74.236 450.848,75.028 C451.796,74.836 452.744,74.56 453.68,74.212 C453.368,73.564 453.068,72.976 452.756,72.424 L453.488,72.064 C454.064,73.096 454.604,74.212 455.108,75.424 L454.364,75.808 C454.244,75.496 454.124,75.208 454.004,74.932 C452.732,75.388 451.34,75.748 449.852,76.012 L449.648,75.196 C449.732,75.172 449.792,75.148 449.84,75.124 C450.2,74.632 450.68,73.3 451.28,71.116 L449.612,71.116 L449.612,70.276 Z M456.68,66.232 L457.544,66.232 L457.544,68.656 L460.16,68.656 C460.16,72.412 460.1,74.728 459.992,75.616 C459.872,76.588 459.284,77.08 458.252,77.08 C458.048,77.08 457.7,77.068 457.196,77.044 L457.004,76.276 C457.436,76.3 457.82,76.324 458.144,76.324 C458.732,76.324 459.08,75.976 459.176,75.292 C459.248,74.656 459.296,72.724 459.32,69.496 L457.544,69.496 L457.544,69.64 C457.508,73.096 456.668,75.628 455.036,77.224 L454.388,76.66 C455.888,75.208 456.656,72.868 456.68,69.64 L456.68,69.496 L455.06,69.496 L455.06,68.656 L456.68,68.656 L456.68,66.232 Z M465.164,66.112 L465.968,66.484 C465.548,67.492 465.008,68.428 464.36,69.316 L464.36,77.224 L463.496,77.224 L463.496,70.372 C462.956,70.96 462.368,71.524 461.732,72.052 L461.456,71.152 C463.16,69.688 464.396,68.008 465.164,66.112 Z M470.696,77.008 L468.404,77.008 C467.564,77.008 467.144,76.576 467.144,75.736 L467.144,72.076 C466.64,72.364 466.124,72.628 465.596,72.88 L465.212,72.064 C465.884,71.752 466.532,71.428 467.144,71.068 L467.144,66.256 L468.008,66.256 L468.008,70.54 C469.268,69.7 470.372,68.74 471.32,67.672 L471.92,68.356 C470.804,69.556 469.496,70.624 468.008,71.56 L468.008,75.616 C468.008,75.988 468.2,76.18 468.608,76.18 L470.552,76.18 C470.864,76.18 471.104,76.072 471.248,75.88 C471.38,75.688 471.464,74.992 471.512,73.804 L472.316,74.068 C472.232,75.448 472.088,76.288 471.884,76.576 C471.668,76.864 471.272,77.008 470.696,77.008 Z M474.296,66.448 C474.968,66.976 475.532,67.516 475.988,68.044 L475.424,68.62 C475.016,68.116 474.44,67.576 473.708,67.012 L474.296,66.448 Z M474.104,69.4 C474.752,69.976 475.304,70.54 475.748,71.116 L475.184,71.68 C474.776,71.14 474.224,70.564 473.516,69.952 L474.104,69.4 Z M475.16,72.628 L475.892,72.916 C475.436,74.38 474.92,75.76 474.368,77.056 L473.576,76.72 C474.176,75.388 474.704,74.02 475.16,72.628 Z M480.488,66.784 L480.488,74.104 L479.72,74.104 L479.72,67.528 L477.236,67.528 L477.236,74.176 L476.468,74.176 L476.468,66.784 L480.488,66.784 Z M479.204,74.668 C479.936,75.316 480.548,75.976 481.04,76.624 L480.464,77.2 C480.032,76.564 479.444,75.892 478.676,75.172 L479.204,74.668 Z M478.124,68.356 L478.844,68.356 L478.844,72.16 C478.82,73.528 478.604,74.62 478.196,75.436 C477.8,76.18 477.152,76.78 476.264,77.212 L475.808,76.492 C476.672,76.084 477.272,75.544 477.608,74.872 C477.92,74.176 478.1,73.276 478.124,72.16 L478.124,68.356 Z M483.08,77.104 L481.76,77.104 L481.58,76.3 C482,76.336 482.408,76.36 482.792,76.36 C483.068,76.36 483.212,76.192 483.212,75.88 L483.212,66.268 L484.028,66.268 L484.028,76.084 C484.028,76.756 483.704,77.104 483.08,77.104 Z M481.436,67.252 L482.192,67.252 L482.192,74.74 L481.436,74.74 L481.436,67.252 Z M490.64,71.884 L489.512,71.884 L489.512,71.08 L492.62,71.08 L492.62,71.884 L491.492,71.884 L491.492,75.136 C492.02,75.016 492.548,74.884 493.052,74.74 L493.052,75.544 C492.008,75.844 490.88,76.096 489.68,76.3 L489.464,75.484 C489.86,75.436 490.256,75.376 490.64,75.304 L490.64,71.884 Z M495.188,77.02 C494.78,77.02 494.408,76.708 494.096,76.084 C493.736,75.364 493.472,74.392 493.304,73.144 C493.172,72.088 493.088,70.768 493.04,69.196 L489.236,69.196 L489.236,68.356 L493.016,68.356 C492.992,67.66 492.992,66.928 492.992,66.16 L493.832,66.16 C493.832,66.94 493.832,67.672 493.856,68.356 L496.244,68.356 L496.244,69.196 L493.868,69.196 C493.928,71.26 494.06,72.844 494.252,73.972 C494.516,75.34 494.828,76.036 495.188,76.084 C495.428,76.036 495.68,75.304 495.92,73.876 L496.604,74.428 C496.208,76.156 495.74,77.02 495.188,77.02 Z M494.864,66.148 C495.38,66.724 495.776,67.228 496.064,67.66 L495.464,68.08 C495.164,67.612 494.756,67.096 494.252,66.52 L494.864,66.148 Z M486.944,66.316 C487.712,66.928 488.348,67.54 488.876,68.164 L488.288,68.764 C487.808,68.176 487.16,67.552 486.344,66.904 L486.944,66.316 Z M485.504,69.868 L488.024,69.868 L488.024,75.1 C488.384,74.752 488.744,74.368 489.128,73.948 L489.356,74.86 C488.696,75.58 488,76.216 487.256,76.768 L486.92,76 C487.088,75.856 487.184,75.688 487.184,75.508 L487.184,70.696 L485.504,70.696 L485.504,69.868 Z M448.592,90.864 C448.484,92.088 448.316,92.892 448.088,93.264 C447.86,93.624 447.404,93.816 446.732,93.816 L443.624,93.816 C442.88,93.816 442.508,93.432 442.508,92.664 L442.508,87.42 L446.78,87.42 L446.78,84.624 L441.932,84.624 L441.932,83.784 L447.608,83.784 L447.608,88.248 L443.348,88.248 L443.348,92.352 C443.348,92.76 443.552,92.976 443.96,92.988 L446.576,92.988 C447.044,92.988 447.344,92.82 447.476,92.496 C447.596,92.172 447.68,91.536 447.74,90.576 L448.592,90.864 Z M438.944,83.316 C439.76,83.928 440.444,84.54 440.996,85.164 L440.408,85.764 C439.904,85.176 439.208,84.552 438.344,83.904 L438.944,83.316 Z M437.54,86.868 L440.132,86.868 L440.132,92.268 C440.6,91.908 441.104,91.476 441.632,90.996 L441.848,91.908 C441.08,92.604 440.252,93.216 439.388,93.768 L439.052,92.988 C439.22,92.844 439.304,92.676 439.304,92.484 L439.304,87.696 L437.54,87.696 L437.54,86.868 Z M451.064,83.652 L457.988,83.652 L457.988,87.552 L460.148,87.552 L460.148,88.332 L455.36,88.332 L455.36,89.7 C455.648,90.036 455.948,90.348 456.284,90.648 C457.136,90.168 457.88,89.484 458.504,88.596 L459.164,89.148 C458.492,90.012 457.736,90.672 456.872,91.128 C457.808,91.86 458.912,92.508 460.184,93.06 L459.752,93.828 C457.904,92.964 456.44,91.908 455.36,90.66 L455.36,93.132 C455.36,93.852 455.036,94.212 454.412,94.212 L453.032,94.212 L452.852,93.396 C453.296,93.432 453.716,93.456 454.124,93.456 C454.364,93.456 454.496,93.276 454.496,92.928 L454.496,90.732 C453.26,91.86 451.784,92.868 450.08,93.78 L449.732,92.976 C451.58,92.1 453.164,91.056 454.496,89.832 L454.496,88.332 L449.864,88.332 L449.864,87.552 L457.112,87.552 L457.112,86.388 L451.472,86.388 L451.472,85.632 L457.112,85.632 L457.112,84.432 L451.064,84.432 L451.064,83.652 Z M451.16,88.788 C451.892,89.292 452.504,89.808 452.996,90.312 L452.444,90.876 C451.988,90.396 451.376,89.88 450.584,89.34 L451.16,88.788 Z M465.644,88.02 L465.644,88.872 C465.188,89.1 464.732,89.316 464.264,89.508 L464.264,93.084 C464.264,93.804 463.916,94.164 463.22,94.164 L462.104,94.164 L461.912,93.336 C462.26,93.372 462.596,93.396 462.92,93.396 C463.244,93.396 463.412,93.216 463.412,92.88 L463.412,89.856 C462.86,90.06 462.284,90.252 461.708,90.432 L461.492,89.58 C462.152,89.424 462.788,89.232 463.412,89.016 L463.412,86.232 L461.672,86.232 L461.672,85.404 L463.412,85.404 L463.412,83.232 L464.264,83.232 L464.264,85.404 L465.608,85.404 L465.608,86.232 L464.264,86.232 L464.264,88.68 C464.732,88.476 465.188,88.26 465.644,88.02 Z M467.12,88.776 L467.12,94.2 L466.304,94.2 L466.304,83.688 L471.572,83.688 C471.572,85.02 471.5,85.908 471.368,86.352 C471.224,86.784 470.768,87.012 470,87.012 L469.136,87.012 L468.896,86.256 C469.088,86.256 469.316,86.268 469.604,86.268 C469.892,86.268 470.12,86.244 470.264,86.22 C470.396,86.172 470.504,86.088 470.588,85.944 C470.672,85.716 470.72,85.224 470.744,84.48 L467.12,84.48 L467.12,87.984 L471.68,87.984 L471.68,88.728 C471.44,90 471.02,91.092 470.396,91.992 C470.972,92.544 471.68,93.048 472.52,93.516 L471.944,94.176 C471.152,93.672 470.468,93.156 469.916,92.604 C469.34,93.264 468.632,93.804 467.816,94.212 L467.396,93.456 C468.164,93.072 468.812,92.58 469.34,91.98 C468.512,90.996 468.008,89.928 467.816,88.776 L467.12,88.776 Z M468.596,88.776 C468.764,89.712 469.16,90.576 469.808,91.356 C470.288,90.624 470.636,89.76 470.852,88.776 L468.596,88.776 Z M482.948,89.772 L482.948,94.188 L482.072,94.188 L482.072,93.552 L476,93.552 L476,94.188 L475.124,94.188 L475.124,89.772 L482.948,89.772 Z M476,92.736 L482.072,92.736 L482.072,90.6 L476,90.6 L476,92.736 Z M475.844,85.716 C475.436,86.268 474.956,86.784 474.392,87.252 L473.876,86.568 C474.956,85.704 475.7,84.636 476.084,83.376 L476.948,83.472 C476.792,83.976 476.6,84.444 476.36,84.888 L478.712,84.888 L478.712,83.184 L479.588,83.184 L479.588,84.888 L483.512,84.888 L483.512,85.716 L479.588,85.716 L479.588,87.66 L484.424,87.66 L484.424,88.512 L473.576,88.512 L473.576,87.66 L478.712,87.66 L478.712,85.716 L475.844,85.716 Z" id="path-17"></path>
        <path d="M378.872,77.524 C378.656,78.004 378.404,78.4 378.116,78.712 L377.42,78.208 C378.02,77.56 378.404,76.672 378.572,75.532 L379.388,75.664 C379.328,76.048 379.256,76.396 379.16,76.72 L380.552,76.72 L380.552,75.232 L381.416,75.232 L381.416,76.72 L383.66,76.72 L383.66,77.524 L381.416,77.524 L381.416,79.072 L384.008,79.072 L384.008,79.876 L381.416,79.876 L381.416,81.136 L383.756,81.136 L383.756,84.304 C383.756,85.012 383.396,85.372 382.676,85.372 L382.04,85.372 L381.824,84.556 L382.412,84.592 C382.748,84.592 382.928,84.436 382.928,84.124 L382.928,81.94 L381.416,81.94 L381.416,86.212 L380.552,86.212 L380.552,81.94 L379.028,81.94 L379.028,85.456 L378.188,85.456 L378.188,81.136 L380.552,81.136 L380.552,79.876 L377.648,79.876 L377.648,79.072 L380.552,79.072 L380.552,77.524 L378.872,77.524 Z M384.716,76.312 L385.556,76.312 L385.556,83.728 L384.716,83.728 L384.716,76.312 Z M386.912,86.092 L385.148,86.092 L384.956,85.264 C385.532,85.3 386.084,85.324 386.612,85.324 C386.972,85.324 387.164,85.132 387.164,84.748 L387.164,75.232 L388.016,75.232 L388.016,84.964 C388.016,85.708 387.644,86.092 386.912,86.092 Z M391.688,75.7 L398.3,75.7 L398.3,79.624 L391.688,79.624 L391.688,75.7 Z M397.436,78.808 L397.436,76.516 L392.552,76.516 L392.552,78.808 L397.436,78.808 Z M394.316,80.812 L394.316,86.02 L393.476,86.02 L393.476,85.408 L390.944,85.408 L390.944,86.02 L390.092,86.02 L390.092,80.812 L394.316,80.812 Z M390.944,84.592 L393.476,84.592 L393.476,81.64 L390.944,81.64 L390.944,84.592 Z M399.896,80.812 L399.896,86.02 L399.032,86.02 L399.032,85.408 L396.404,85.408 L396.404,86.02 L395.552,86.02 L395.552,80.812 L399.896,80.812 Z M396.404,84.592 L399.032,84.592 L399.032,81.64 L396.404,81.64 L396.404,84.592 Z M406.472,77.98 C405.92,76.972 405.26,76.204 404.492,75.652 L405.212,75.196 C406.28,75.94 407.18,77.296 407.924,79.24 C409.052,82.108 410.552,84.136 412.448,85.324 L411.908,86.02 C409.964,84.844 408.38,82.66 407.144,79.492 C407.072,79.3 407.012,79.132 406.952,78.988 C406.16,82.048 404.504,84.4 401.984,86.032 L401.468,85.3 C404.036,83.62 405.704,81.172 406.472,77.98 Z M419.408,75.1 C419.624,75.448 419.828,75.832 420.02,76.264 L424.34,76.264 L424.34,77.104 L415.448,77.104 L415.448,79.84 C415.4,82.492 415.004,84.616 414.236,86.2 L413.528,85.564 C414.188,84.196 414.536,82.288 414.56,79.84 L414.56,76.264 L419.072,76.264 C418.88,75.892 418.664,75.556 418.448,75.268 L419.408,75.1 Z M418.628,77.44 L419.456,77.632 C419.348,77.968 419.24,78.28 419.132,78.592 L423.812,78.592 L423.812,79.348 L418.832,79.348 C418.496,80.116 418.136,80.8 417.752,81.4 L419.996,81.4 L419.996,79.948 L420.86,79.948 L420.86,81.4 L423.536,81.4 L423.536,82.18 L420.86,82.18 L420.86,83.524 L424.448,83.524 L424.448,84.316 L420.86,84.316 L420.86,86.212 L419.996,86.212 L419.996,84.316 L415.664,84.316 L415.664,83.524 L419.996,83.524 L419.996,82.18 L416.852,82.18 L416.672,81.436 C417.128,80.872 417.548,80.176 417.92,79.348 L416.108,79.348 L416.108,78.592 L418.232,78.592 C418.364,78.22 418.496,77.836 418.628,77.44 Z" id="path-18"></path>
    </defs>
    <g id="介绍页配图设计" stroke="none" stroke-width="1" fill="none" fill-rule="evenodd">
        <g id="应用场景复制（SVG转曲）" transform="translate(-201.000000, -1710.000000)">
            <g id="流程1-copy-2复制-5" transform="translate(201.000000, 1711.000000)">
                <g id="ce55d0acbf344d121aee68366e8d65ee-copy-2" transform="translate(28.000000, 1.000000)">
                    <g id="XMLID_25_">
                        <g id="分组-copy">
                            <g id="XMLID_134_">
                                <use fill="black" fill-opacity="1" filter="url(#filter-2)" xlink:href="#path-1"></use>
                                <use fill="#FFFFFF" fill-rule="evenodd" xlink:href="#path-1"></use>
                            </g>
                            <path d="M68.754,21.908 L68.908,22.874 L64.288,23.462 C64.372,24.358 64.484,25.128 64.624,25.772 C64.96,27.228 65.422,28.348 66.024,29.16 C66.57,29.916 67.088,30.294 67.564,30.308 C67.942,30.294 68.222,29.398 68.418,27.634 L69.3,28.138 C69.118,29.286 68.88,30.14 68.572,30.7 C68.32,31.106 67.998,31.316 67.62,31.33 C66.934,31.33 66.22,30.882 65.492,30 C64.694,29.02 64.106,27.746 63.714,26.178 C63.532,25.478 63.392,24.624 63.294,23.588 L60.256,23.98 L60.102,23.014 L63.21,22.608 C63.112,21.432 63.056,20.074 63.042,18.534 L64.078,18.534 C64.078,20.032 64.12,21.348 64.204,22.482 L68.754,21.908 Z M58.352,23.546 C57.876,24.19 57.344,24.792 56.784,25.38 L56.462,24.33 C58.002,22.636 59.108,20.69 59.808,18.506 L60.746,18.954 C60.382,20.018 59.934,21.026 59.388,21.964 L59.388,31.428 L58.352,31.428 L58.352,23.546 Z M65.604,18.632 C66.458,19.346 67.186,20.06 67.774,20.76 L67.074,21.446 C66.57,20.76 65.856,20.032 64.96,19.262 L65.604,18.632 Z M75.292,23.476 L75.292,30.672 L74.368,30.672 L74.368,29.874 L72.856,29.874 L72.856,30.938 L71.918,30.938 L71.918,25.24 C71.638,25.744 71.33,26.234 70.994,26.71 L70.49,25.898 C71.554,24.274 72.254,22.412 72.59,20.326 L70.882,20.326 L70.882,19.346 L75.656,19.346 L75.656,20.326 L73.542,20.326 C73.346,21.446 73.08,22.496 72.716,23.476 L75.292,23.476 Z M72.856,28.964 L74.368,28.964 L74.368,24.4 L72.856,24.4 L72.856,28.964 Z M77.182,21.082 L78.176,21.152 L77.56,24.68 L80.528,24.68 L81.228,20.102 L76.3,20.102 L76.3,19.15 L82.32,19.15 L81.55,24.68 L83.034,24.68 C83.034,28.068 82.838,30.014 82.474,30.546 C82.082,31.05 81.284,31.316 80.052,31.316 C79.66,31.316 79.24,31.302 78.792,31.274 L78.512,30.294 C79.128,30.35 79.562,30.378 79.814,30.378 C80.892,30.378 81.536,30.14 81.746,29.692 C81.97,29.216 82.082,27.858 82.082,25.618 L76.426,25.618 L77.182,21.082 Z M75.992,27.396 L81.116,27.396 L81.116,28.348 L75.992,28.348 L75.992,27.396 Z M88.06,18.716 L89.04,18.716 L89.04,22.426 L89.866,22.426 L89.866,23.42 L86.562,23.42 L86.562,24.134 C86.562,24.568 86.548,24.988 86.534,25.394 L89.222,25.394 L89.222,31.344 L88.228,31.344 L88.228,26.36 L86.478,26.36 C86.31,28.46 85.932,30.056 85.33,31.176 L84.574,30.504 C85.218,29.174 85.554,27.046 85.568,24.134 L85.568,18.996 L86.562,18.996 L86.562,22.426 L88.06,22.426 L88.06,18.716 Z M91.588,23.574 L91.588,25.114 C91.532,27.718 91.07,29.79 90.23,31.33 L89.53,30.588 C90.23,29.272 90.608,27.438 90.664,25.114 L90.664,19.556 C92.862,19.528 94.85,19.234 96.614,18.674 L97.118,19.584 C95.466,20.06 93.618,20.34 91.588,20.424 L91.588,22.622 L96.768,22.622 L96.768,23.476 C96.446,25.422 95.83,27.06 94.934,28.39 C95.62,29.314 96.46,30.014 97.454,30.518 L96.95,31.4 C95.9,30.854 95.018,30.126 94.318,29.202 C93.548,30.098 92.624,30.84 91.56,31.414 L91.07,30.518 C92.12,29.944 93.002,29.216 93.73,28.348 C92.932,27.046 92.372,25.45 92.05,23.574 L91.588,23.574 Z M92.96,23.574 C93.268,25.1 93.73,26.402 94.346,27.494 C95.046,26.374 95.536,25.058 95.788,23.574 L92.96,23.574 Z M99.008,21.138 L104.482,21.138 L104.482,18.604 L105.518,18.604 L105.518,21.138 L110.978,21.138 L110.978,22.104 L106.414,22.104 C107.352,24.33 109.032,26.318 111.44,28.068 L110.754,28.936 C108.29,26.92 106.582,24.638 105.63,22.104 L105.518,22.104 L105.518,27.564 L108.514,27.564 L108.514,28.53 L105.518,28.53 L105.518,31.4 L104.482,31.4 L104.482,28.53 L101.598,28.53 L101.598,27.564 L104.482,27.564 L104.482,22.104 L104.384,22.104 C103.348,24.946 101.584,27.284 99.092,29.118 L98.518,28.18 C100.87,26.612 102.55,24.582 103.586,22.104 L99.008,22.104 L99.008,21.138 Z M113.624,22.86 L114.73,18.968 L115.724,19.136 L114.926,21.894 L117.376,21.894 C117.656,20.802 117.88,19.668 118.048,18.464 L119.07,18.59 C118.888,19.766 118.664,20.858 118.412,21.894 L124.964,21.894 L124.964,22.86 L118.146,22.86 C117.978,23.42 117.81,23.952 117.614,24.456 L123.34,24.456 L123.34,25.324 C122.962,26.528 122.206,27.62 121.058,28.6 C122.192,29.272 123.578,29.888 125.202,30.448 L124.684,31.386 C122.892,30.728 121.408,30.014 120.232,29.244 C119.084,30.056 117.656,30.784 115.962,31.442 L115.43,30.504 C116.998,29.93 118.3,29.3 119.35,28.614 C118.258,27.774 117.488,26.864 117.026,25.884 C116.004,28.096 114.688,29.846 113.092,31.148 L112.574,30.224 C114.618,28.432 116.116,25.982 117.096,22.86 L113.624,22.86 Z M117.782,25.38 C118.258,26.332 119.056,27.214 120.176,28.026 C121.212,27.214 121.926,26.332 122.318,25.38 L117.782,25.38 Z M121.422,18.576 C122.43,19.346 123.256,20.116 123.928,20.886 L123.214,21.6 C122.626,20.858 121.8,20.074 120.75,19.234 L121.422,18.576 Z M133.406,22.244 L134.372,22.244 L134.372,23.952 L138.32,23.952 L138.32,28.656 C138.32,29.524 137.872,29.972 137.004,29.972 L135.688,29.972 L135.436,29.034 L136.682,29.062 C137.13,29.062 137.354,28.852 137.354,28.446 L137.354,24.89 L134.372,24.89 L134.372,31.4 L133.406,31.4 L133.406,24.89 L130.41,24.89 L130.41,30.07 L129.444,30.07 L129.444,24.708 C128.744,25.422 127.988,26.094 127.162,26.724 L126.518,25.884 C128.296,24.568 129.696,23.07 130.718,21.362 L126.98,21.362 L126.98,20.382 L131.25,20.382 C131.558,19.766 131.81,19.15 132.02,18.506 L133.042,18.632 C132.846,19.248 132.622,19.836 132.37,20.382 L139.16,20.382 L139.16,21.362 L131.88,21.362 C131.376,22.286 130.788,23.154 130.116,23.952 L133.406,23.952 L133.406,22.244 Z" id="代码版本发布" fill="#444444" fill-rule="nonzero"></path>
                            <g id="Group-7" transform="translate(32.727922, 24.727922) rotate(45.000000) translate(-32.727922, -24.727922) translate(25.727922, 13.727922)" stroke="#00A4FF" stroke-width="2">
                                <polygon id="Rectangle" points="0 7 7 0 14 7 14 22 0 22"></polygon>
                                <rect id="Rectangle" x="4" y="7" width="6" height="6" rx="3"></rect>
                            </g>
                        </g>
                    </g>
                    <g id="XMLID_25_复制" transform="translate(20.000000, 120.000000)">
                        <g id="分组-copy">
                            <g id="XMLID_134_">
                                <use fill="black" fill-opacity="1" filter="url(#filter-4)" xlink:href="#path-3"></use>
                                <use fill="#FFFFFF" fill-rule="evenodd" xlink:href="#path-3"></use>
                            </g>
                            <path d="M49.206,24.356 L50.144,21.29 L51.082,21.43 L50.41,23.46 L52.23,23.46 C52.454,22.648 52.622,21.808 52.762,20.926 L53.728,21.052 C53.588,21.906 53.406,22.704 53.21,23.46 L58.418,23.46 L58.418,24.356 L52.944,24.356 C52.804,24.804 52.65,25.224 52.482,25.616 L57.298,25.616 L57.298,26.428 C56.976,27.338 56.304,28.164 55.296,28.92 C56.192,29.396 57.27,29.83 58.53,30.222 L58.082,31.034 C56.668,30.544 55.478,30.012 54.526,29.438 C53.602,29.998 52.468,30.516 51.124,30.978 L50.662,30.166 C51.852,29.774 52.86,29.34 53.686,28.892 C52.874,28.276 52.272,27.632 51.88,26.946 C51.012,28.584 49.934,29.886 48.632,30.866 L48.156,30.012 C49.864,28.64 51.138,26.75 51.95,24.356 L49.206,24.356 Z M52.51,26.47 C52.902,27.17 53.56,27.828 54.456,28.416 C55.338,27.814 55.954,27.17 56.304,26.47 L52.51,26.47 Z M55.604,20.912 C56.29,21.388 56.864,21.864 57.34,22.34 L56.668,23.012 C56.248,22.55 55.688,22.06 54.974,21.528 L55.604,20.912 Z M53.014,18.07 C53.224,18.462 53.42,18.91 53.616,19.4 L58.6,19.4 L58.6,20.38 L48.268,20.38 L48.268,23.6 C48.212,26.652 47.722,29.102 46.784,30.936 L46,30.236 C46.812,28.64 47.246,26.428 47.274,23.6 L47.274,19.4 L52.566,19.4 C52.37,18.98 52.174,18.588 51.95,18.238 L53.014,18.07 Z M68.834,20.814 C70.038,22.074 70.962,23.18 71.606,24.132 L70.766,24.72 C70.486,24.3 70.164,23.852 69.814,23.404 C67.21,23.712 64.55,23.922 61.82,24.02 L61.554,23.236 C62.646,22.452 63.584,21.486 64.368,20.338 L60.672,20.338 L60.672,19.386 L66.118,19.386 C65.922,18.952 65.712,18.546 65.488,18.182 L66.538,18 C66.748,18.42 66.944,18.882 67.14,19.386 L72.194,19.386 L72.194,20.338 L65.488,20.338 C64.816,21.402 64.032,22.326 63.122,23.096 C65.208,23.012 67.224,22.858 69.184,22.634 C68.806,22.2 68.414,21.766 68.008,21.318 L68.834,20.814 Z M63.584,24.594 L64.606,24.594 L64.606,26.232 L68.246,26.232 L68.246,24.594 L69.268,24.594 L69.268,26.232 L72.74,26.232 L72.74,27.212 L69.268,27.212 L69.268,30.964 L68.246,30.964 L68.246,27.212 L64.564,27.212 C64.382,28.892 63.598,30.152 62.212,30.992 L61.456,30.32 C62.674,29.634 63.374,28.598 63.542,27.212 L60.112,27.212 L60.112,26.232 L63.584,26.232 L63.584,24.594 Z" id="废弃" fill="#444444" fill-rule="nonzero"></path>
                        </g>
                    </g>
                    <g id="分组-13复制" transform="translate(355.000000, 120.000000)">
                        <g id="编组-14" transform="translate(10.000000, 0.000000)">
                            <g id="XMLID_110_">
                                <use fill="black" fill-opacity="1" filter="url(#filter-6)" xlink:href="#path-5"></use>
                                <use fill="#FFFFFF" fill-rule="evenodd" xlink:href="#path-5"></use>
                            </g>
                            <g id="测试计划" fill-rule="nonzero">
                                <use fill="#000000" xlink:href="#path-7"></use>
                                <use fill="#444444" xlink:href="#path-7"></use>
                            </g>
                            <g id="分组-39" transform="translate(20.000000, 15.000000)" fill-rule="nonzero">
                                <rect id="矩形" stroke="#00A4FF" stroke-width="2" x="1" y="1" width="24" height="18"></rect>
                                <rect id="矩形" fill="#00A4FF" x="4" y="22" width="18" height="2"></rect>
                                <path d="M4.99842981,6.50989196 L14.8560043,6.49010804" id="路径-6" stroke="#00A4FF" stroke-width="2"></path>
                                <path d="M4.99842981,11.509892 L19.5795213,11.509892" id="路径-6复制" stroke="#00A4FF" stroke-width="2"></path>
                            </g>
                        </g>
                    </g>
                    <g id="分组-13复制-5" transform="translate(670.000000, 120.000000)">
                        <g id="XMLID_110_">
                            <use fill="black" fill-opacity="1" filter="url(#filter-9)" xlink:href="#path-8"></use>
                            <use fill="#FFFFFF" fill-rule="evenodd" xlink:href="#path-8"></use>
                        </g>
                        <g id="交付" fill-rule="nonzero">
                            <use fill="#000000" xlink:href="#path-10"></use>
                            <use fill="#444444" xlink:href="#path-10"></use>
                        </g>
                        <g id="分组-5" transform="translate(20.000000, 12.000000)" fill="#00A4FF" fill-rule="nonzero">
                            <path d="M12.8,2.5 C15,2.5 16.8,4.3 16.8,6.5 C16.8,8.7 15,10.5 12.8,10.5 C10.6,10.5 8.8,8.7 8.8,6.5 C8.8,4.3 10.6,2.5 12.8,2.5 L12.8,2.5 Z M12.8,0.5 C9.5,0.5 6.8,3.2 6.8,6.5 C6.8,9.8 9.5,12.5 12.8,12.5 C16.1,12.5 18.8,9.8 18.8,6.5 C18.8,3.2 16.1,0.5 12.8,0.5 L12.8,0.5 Z" id="XMLID_21_"></path>
                            <path d="M22.8,22.5 L22.8199454,23.016982 L2.81994541,23.016982 L2.8,22.5 C2.8,19.2 5.47085727,16.0474081 8.77085727,16.0474081 L16.7708573,16.0474081 C20.0708573,16.0474081 22.8,19.2 22.8,22.5 Z M8.81797533,14.0247469 C4.41797533,14.0247469 0.942180619,18.006108 0.942180619,22.406108 L1.03431394,25.0036211 L25.0343139,25.0036211 L24.8,22.5 C24.8,18.1 21.2179753,14.0247469 16.8179753,14.0247469 L8.81797533,14.0247469 Z" id="XMLID_32_"></path>
                        </g>
                    </g>
                    <g id="分组-13复制-4" transform="translate(335.000000, 0.000000)">
                        <g id="XMLID_110_">
                            <use fill="black" fill-opacity="1" filter="url(#filter-12)" xlink:href="#path-11"></use>
                            <use fill="#FFFFFF" fill-rule="evenodd" xlink:href="#path-11"></use>
                        </g>
                        <g id="CODING持续集成" fill-rule="nonzero">
                            <use fill="#000000" xlink:href="#path-13"></use>
                            <use fill="#444444" xlink:href="#path-13"></use>
                        </g>
                        <path d="M36.5146628,28.5365029 L33,25 L36.5146628,21.4646015 C37.4538123,20.5199114 38.7019795,20 40.0293255,20 C41.3566716,20 42.6048387,20.5199114 43.5439883,21.4646015 C44.4831378,22.4092916 45,23.6648224 45,25 C45,26.3351759 44.4831378,27.5907066 43.5439883,28.5353967 C42.6048387,29.4800868 41.3566716,29.998892 40.0293255,29.9999982 C38.7019795,30.0011044 37.4538123,29.4800868 36.5146628,28.5365029 Z M25.9706745,20 C27.2980205,20 28.5461877,20.5199115 29.4853372,21.4646018 L33,25 L29.4853372,28.5353982 C28.5461877,29.4800885 27.2980205,30 25.9706745,30 C24.6433284,30 23.3951613,29.4800885 22.4560117,28.5353982 C21.5168622,27.590708 21,26.335177 21,25 C21,23.664823 21.5168622,22.409292 22.4560117,21.4646018 C23.3951613,20.5199115 24.6433284,20 25.9706745,20 Z" id="Combined-Shape" stroke="#00A4FF" stroke-width="2"></path>
                    </g>
                    <g id="XMLID_54_-Copy-2" transform="translate(426.000000, 50.000000)">
                        <polygon id="XMLID_56_" fill="#878787" points="0 55 4.5 60 9 55"></polygon>
                        <path d="M4.5,0 L4.5,55" id="XMLID_55_" stroke="#878787"></path>
                    </g>
                    <g id="分组-30-copy" transform="translate(159.000000, 21.000000)">
                        <polygon id="XMLID_22_" fill="#878787" transform="translate(163.500000, 4.500000) rotate(-360.000000) translate(-163.500000, -4.500000) " points="161 9 166 4.5 161 0"></polygon>
                        <path d="M161,4 L0.537623131,4" id="直线-3" stroke="#878787" stroke-linecap="square"></path>
                    </g>
                    <g id="分组-30-copy复制-2" transform="translate(495.000000, 141.000000)">
                        <polygon id="XMLID_22_" fill="#878787" transform="translate(162.500000, 4.500000) rotate(-360.000000) translate(-162.500000, -4.500000) " points="160 9 165 4.5 160 0"></polygon>
                        <path d="M160,4 L0.659418374,4" id="直线-3" stroke="#878787" stroke-linecap="square"></path>
                    </g>
                    <g id="分组-30-copy复制" transform="translate(244.000000, 145.500000) rotate(-180.000000) translate(-244.000000, -145.500000) translate(123.000000, 141.000000)">
                        <polygon id="XMLID_22_" fill="#878787" transform="translate(239.500000, 4.500000) rotate(-360.000000) translate(-239.500000, -4.500000) " points="237 9 242 4.5 237 0"></polygon>
                        <path d="M237,4 L0.5,4" id="直线-3" stroke="#878787" stroke-linecap="square"></path>
                    </g>
                    <g id="V1.0版本自动触发" fill-rule="nonzero" fill="#878787">
                        <use xlink:href="#path-14"></use>
                        <use xlink:href="#path-14"></use>
                    </g>
                    <g id="质检不通过，废弃" fill-rule="nonzero" fill="#878787">
                        <use xlink:href="#path-15"></use>
                        <use xlink:href="#path-15"></use>
                    </g>
                    <g id="选择高质量制品库交付" fill-rule="nonzero" fill="#878787">
                        <use xlink:href="#path-16"></use>
                        <use xlink:href="#path-16"></use>
                    </g>
                    <g id="自动化测试记录报告" fill-rule="nonzero" fill="#878787">
                        <use xlink:href="#path-17"></use>
                        <use xlink:href="#path-17"></use>
                    </g>
                    <g id="制品入库" fill-rule="nonzero" fill="#878787">
                        <use xlink:href="#path-18"></use>
                        <use xlink:href="#path-18"></use>
                    </g>
                </g>
            </g>
        </g>
    </g>
</svg>