<?xml version="1.0" encoding="utf-8"?>
<!-- Generator: Adobe Illustrator 22.1.0, SVG Export Plug-In . SVG Version: 6.00 Build 0)  -->
<svg version="1.1" id="svgwrapper_svg" xmlns="http://www.w3.org/2000/svg" xmlns:xlink="http://www.w3.org/1999/xlink" x="0px"
	 y="0px" width="810px" height="195.5px" viewBox="0 0 810 195.5" style="enable-background:new 0 0 810 195.5;"
	 xml:space="preserve">
<style type="text/css">
	.st0{display:none;fill:none;stroke:#999999;}
	.st1{fill:#EAEBEC;}
	.st2{enable-background:new    ;}
	.st3{fill:#444444;}
	.st4{fill:none;stroke:#888888;}
	.st5{fill:#888888;}
	.st6{fill:none;stroke:#FF0000;stroke-width:15;stroke-opacity:0;}
	.st7{opacity:0.6;fill:#BBBBBB;enable-background:new    ;}
	.st8{fill:#FFFFFF;stroke:#E5E5E5;}
</style>
<path class="st0" d="M489,114.5l61,1"/>
<g id="bottomgroup" transform="translate(0,0)">
	<g id="GrayRectGroup1" transform="translate(14,16)">
		<rect x="62" y="-9.5" class="st1" width="143" height="182"/>
		<g transform="translate(10 10)">
			<g class="st2">
				<path class="st3" d="M63.1-3l-0.3-1c1.7-0.9,2.9-1.9,3.6-3l0.8,0.4C67-6,66.5-5.5,66-4.9v3.4h-1v-2.6C64.4-3.7,63.8-3.3,63.1-3z
					 M69.7,0.7c-0.2,1.8-0.6,3-1.3,3.7c-0.7,0.8-2.4,1.3-4.9,1.5L63.1,5c2.3-0.1,3.7-0.5,4.5-1.2c0.6-0.6,1-1.7,1.1-3.2L69.7,0.7z
					 M73.6,3.3h-1V0h-6.7v3.4h-1v-4.3h8.8v4.2H73.6z M74.7-4.7l-4,0.7c0.1,0.2,0.3,0.4,0.4,0.5c0.7,0.7,1.4,1.1,2.2,1.1
					c0.2,0,0.3-0.1,0.4-0.2c0.1-0.2,0.3-0.6,0.4-1.2l1,0.4c-0.2,0.8-0.4,1.3-0.6,1.6c-0.2,0.3-0.5,0.4-0.9,0.4c-1.1,0-2.1-0.4-3-1.2
					c-0.3-0.3-0.6-0.7-0.9-1.1l-3,0.5l-0.2-0.9l2.7-0.5c-0.3-0.6-0.6-1.4-0.8-2.2l1.1-0.1c0.2,0.8,0.4,1.5,0.7,2.1l4.3-0.8L74.7-4.7
					z M75,5l-0.6,0.9c-1.6-0.8-3.2-1.5-4.9-2L70,3.1C71.8,3.7,73.5,4.3,75,5z M73.2-6l-0.6,0.6c-0.4-0.3-0.9-0.7-1.6-1.1l0.6-0.6
					C72.2-6.7,72.7-6.3,73.2-6z"/>
				<path class="st3" d="M86.4-6.7c-0.3,0.6-0.6,1.1-1,1.5h3.8v1H76.7v-1h3.8c-0.3-0.6-0.6-1.1-0.9-1.6L80.7-7
					c0.3,0.5,0.6,1.1,0.9,1.8h2.7c0.4-0.6,0.8-1.2,1.1-1.8L86.4-6.7z M80.5,5.8l-0.3-1h1.1c0.4,0,0.5-0.2,0.5-0.7V2.9h-3.1V6h-1v-9
					h5.1v7.5c0,1-0.4,1.4-1.2,1.4L80.5,5.8L80.5,5.8z M81.8-0.5v-1.6h-3.1v1.6C78.7-0.5,81.8-0.5,81.8-0.5z M81.8,2V0.4h-3.1V2H81.8
					z M85.3-2.4v6h-1v-6H85.3z M85.2,5.8l-0.2-1c0.6,0,1.2,0.1,1.7,0.1c0.4,0,0.6-0.2,0.6-0.6v-7.7h1v8c0,0.9-0.4,1.3-1.2,1.3h-1.9
					V5.8z"/>
			</g>
		</g>
	</g>
	<g id="GrayRectGroup7" transform="translate(210,16)">
		<rect x="122" y="-9.5" class="st1" width="143" height="182"/>
		<g transform="translate(10 10)">
			<g class="st2">
				<path class="st3" d="M123.1-3l-0.3-1c1.7-0.9,2.9-1.9,3.6-3l0.8,0.4C127-6,126.5-5.5,126-4.9v3.4h-1v-2.6
					C124.4-3.7,123.8-3.3,123.1-3z M129.7,0.7c-0.2,1.8-0.6,3-1.3,3.7c-0.7,0.8-2.4,1.3-4.9,1.5L123.1,5c2.3-0.1,3.7-0.5,4.5-1.2
					c0.6-0.6,1-1.7,1.1-3.2L129.7,0.7z M133.6,3.3h-1V0h-6.7v3.4h-1v-4.3h8.8v4.2H133.6z M134.7-4.7l-4,0.7c0.1,0.2,0.3,0.4,0.4,0.5
					c0.7,0.7,1.4,1.1,2.2,1.1c0.2,0,0.3-0.1,0.4-0.2c0.1-0.2,0.3-0.6,0.4-1.2l1,0.4c-0.2,0.8-0.4,1.3-0.6,1.6
					c-0.2,0.3-0.5,0.4-0.9,0.4c-1.1,0-2.1-0.4-3-1.2c-0.3-0.3-0.6-0.7-0.9-1.1l-3,0.5l-0.2-0.9l2.7-0.5c-0.3-0.6-0.6-1.4-0.8-2.2
					l1.1-0.1c0.2,0.8,0.4,1.5,0.7,2.1l4.3-0.8L134.7-4.7z M135,5l-0.6,0.9c-1.6-0.8-3.2-1.5-4.9-2l0.5-0.8
					C131.8,3.7,133.5,4.3,135,5z M133.2-6l-0.6,0.6c-0.4-0.3-0.9-0.7-1.6-1.1l0.6-0.6C132.2-6.7,132.7-6.3,133.2-6z"/>
				<path class="st3" d="M143.5-7v2.5h5v6.6h-1V1.2h-4V6h-1V1.2h-4v0.9h-1v-6.6h5V-7H143.5z M142.5,0.2v-3.7h-4v3.7
					C138.5,0.2,142.5,0.2,142.5,0.2z M147.5,0.2v-3.7h-4v3.7C143.5,0.2,147.5,0.2,147.5,0.2z"/>
			</g>
		</g>
	</g>
	<g id="GrayRectGroup10" transform="translate(409,16)">
		<rect x="182" y="-9.5" class="st1" width="143" height="182"/>
		<g transform="translate(10 10)">
			<g class="st2">
				<path class="st3" d="M183.1-3l-0.3-1c1.7-0.9,2.9-1.9,3.6-3l0.8,0.4C187-6,186.5-5.5,186-4.9v3.4h-1v-2.6
					C184.4-3.7,183.8-3.3,183.1-3z M189.7,0.7c-0.2,1.8-0.6,3-1.3,3.7c-0.7,0.8-2.4,1.3-4.9,1.5L183.1,5c2.3-0.1,3.7-0.5,4.5-1.2
					c0.6-0.6,1-1.7,1.1-3.2L189.7,0.7z M193.6,3.3h-1V0h-6.7v3.4h-1v-4.3h8.8v4.2H193.6z M194.7-4.7l-4,0.7c0.1,0.2,0.3,0.4,0.4,0.5
					c0.7,0.7,1.4,1.1,2.2,1.1c0.2,0,0.3-0.1,0.4-0.2c0.1-0.2,0.3-0.6,0.4-1.2l1,0.4c-0.2,0.8-0.4,1.3-0.6,1.6
					c-0.2,0.3-0.5,0.4-0.9,0.4c-1.1,0-2.1-0.4-3-1.2c-0.3-0.3-0.6-0.7-0.9-1.1l-3,0.5l-0.2-0.9l2.7-0.5c-0.3-0.6-0.6-1.4-0.8-2.2
					l1.1-0.1c0.2,0.8,0.4,1.5,0.7,2.1l4.3-0.8L194.7-4.7z M195,5l-0.6,0.9c-1.6-0.8-3.2-1.5-4.9-2l0.5-0.8
					C191.8,3.7,193.5,4.3,195,5z M193.2-6l-0.6,0.6c-0.4-0.3-0.9-0.7-1.6-1.1l0.6-0.6C192.2-6.7,192.7-6.3,193.2-6z"/>
				<path class="st3" d="M199.2-1.6c-0.1,3.1-0.7,5.6-1.9,7.5l-0.7-0.8c1-1.6,1.6-3.9,1.7-6.7v-4.2c3.6,0,6.8-0.4,9.7-1l0.5,0.9
					c-2.7,0.6-5.8,0.9-9.2,1v2h10.1v1h-10.1v0.3H199.2z M208.2,5.9h-1V5.2h-5.7v0.7h-1V0h7.7V5.9z M207.2,4.3V0.9h-5.7v3.3h5.7V4.3z
					"/>
			</g>
		</g>
	</g>
</g>
<g id="middlegroup" transform="translate(0,0)">
	<g id="Link13" transform="translate(0,0)">
		<path class="st4" d="M218.5,97h24l0,0h84"/>
		<g transform="translate(0.5, 0)">
			<polygon class="st5" points="321.5,101.5 327.5,97 321.5,92.5 			"/>
		</g>
		<path class="st6" d="M218.5,97h24"/>
		<path class="st6" d="M242.5,97L242.5,97"/>
		<path class="st6" d="M242.5,97h84"/>
	</g>
	<g id="Link14" transform="translate(0,0)">
		<path class="st4" d="M474.5,97h26l0,0h85"/>
		<g transform="translate(0.5, 0)">
			<polygon class="st5" points="580.5,101.5 586.5,97 580.5,92.5 			"/>
		</g>
		<path class="st6" d="M474.5,97h26"/>
		<path class="st6" d="M500.5,97L500.5,97"/>
		<path class="st6" d="M500.5,97h85"/>
	</g>
</g>
<g id="maingroup" transform="translate(0,0)">
	<g id="RectEndPoint2" transform="translate(37,60)">
		<rect x="64" y="-7.5" class="st7" width="97" height="50"/>
		<rect x="62" y="-9.5" class="st8" width="97" height="50"/>
		<g transform="translate(27.5,9)">
			<g class="st2">
				<path class="st3" d="M66.8,2.5c-0.4-0.8-0.9-1.5-1.4-2.1L66.3,0c0.5,0.6,1,1.4,1.4,2.1L67,2.4h3.2c0.5-0.8,0.9-1.6,1.3-2.5
					l1,0.3c-0.4,0.8-0.8,1.5-1.2,2.2h3.1v1h-4.8v2h4.1v1h-4.1v2.1h5.7v1h-5.7V13h-1V9.6h-5.7v-1h5.7V6.5h-4.1v-1h4.1v-2h-4.8v-1
					H66.8z"/>
				<path class="st3" d="M82.8,12.7c-0.9,0-1.4-0.5-1.4-1.5V8.8l-4.8,0.5v-1l4.8-0.5V5.5l-3.7,0.4v-1l3.7-0.4V2.2
					c-1.2,0.1-2.4,0.2-3.7,0.3l-0.3-0.9c3.8-0.2,7-0.6,9.6-1.3l0.5,0.8c-1.6,0.4-3.3,0.7-5,0.9v2.3l5.3-0.6v1l-5.3,0.6v2.3L88.9,7v1
					l-6.4,0.6V11c0,0.5,0.2,0.8,0.7,0.8H87c0.4,0,0.7-0.1,0.8-0.3c0.2-0.2,0.4-0.8,0.4-1.7l1,0.3c-0.1,1.2-0.3,2-0.7,2.3
					c-0.3,0.2-0.7,0.3-1.3,0.3C87.2,12.7,82.8,12.7,82.8,12.7z"/>
				<path class="st3" d="M100.6,4.8v3.9H99v2.5c0,0.4,0.2,0.6,0.5,0.6h2.1c0.2,0,0.4-0.1,0.5-0.3s0.2-0.8,0.2-1.8l1,0.3
					c-0.1,1.3-0.3,2-0.5,2.3c-0.2,0.2-0.5,0.3-1,0.3h-2.6c-0.8,0-1.2-0.4-1.2-1.3V8.7h-1.8c-0.4,1.2-0.8,2.1-1.3,2.6
					c-0.6,0.7-1.8,1.2-3.7,1.6L90.8,12c1.6-0.2,2.6-0.7,3.2-1.3c0.4-0.4,0.7-1.1,1-2h-1.7V4.8H100.6z M97.5,0v2.5h1.8
					c0.5-0.7,0.9-1.4,1.3-2.2l1,0.3c-0.3,0.7-0.7,1.3-1.1,1.8h2.3v3h-1v-2h-9.5v2h-1v-3h2.3c-0.3-0.6-0.6-1.2-0.9-1.8l0.9-0.4
					c0.4,0.6,0.7,1.3,1,2.2h1.9V0H97.5z M99.7,5.8h-5.3v2h5.3V5.8z"/>
			</g>
		</g>
	</g>
	<g id="RectEndPoint3" transform="translate(37,127)">
		<rect x="64" y="-7.5" class="st7" width="97" height="50"/>
		<rect x="62" y="-9.5" class="st8" width="97" height="50"/>
		<g transform="translate(34.5,9)">
			<g class="st2">
				<path class="st3" d="M64.5,5.6c0,2.8-0.4,5.3-1.3,7.3l-0.7-0.7c0.7-1.7,1.1-3.9,1.1-6.6v-5h6.8V4h-5.8L64.5,5.6L64.5,5.6z
					 M64.5,1.6v1.6h4.9V1.6H64.5z M68.1,4.6V6h2.2v4.5c0,0.8-0.4,1.1-1.1,1.1h-0.6l-0.2-0.9H69c0.3,0,0.4-0.2,0.4-0.5V6.8h-1.3v6
					h-0.9v-6H66v4.8h-0.9V5.9h2.2V4.6H68.1z M71.5,12.8l-0.2-1c0.7,0,1.3,0.1,1.9,0.1c0.4,0,0.6-0.2,0.6-0.7V0.1h1v11.4
					c0,0.9-0.4,1.3-1.3,1.3H71.5z M72.4,1.3V10h-0.9V1.3H72.4z"/>
				<path class="st3" d="M84.2,2.2c0.4-0.7,0.9-1.5,1.2-2.3l1,0.3c-0.3,0.7-0.7,1.4-1.1,1.9H88V8h-4.4v1.3h5.7v1h-5.7V13h-1v-2.7
					h-5.7v-1h5.7V8h-4.4V2.2H84.2z M82.5,4.7V3.1h-3.4v1.5L82.5,4.7L82.5,4.7z M82.5,5.5h-3.4v1.6h3.4V5.5z M81.9,1.8l-0.8,0.4
					c-0.4-0.7-0.9-1.3-1.3-1.8L80.7,0C81.1,0.6,81.5,1.2,81.9,1.8z M83.5,4.7h3.4V3.1h-3.4V4.7z M86.9,5.5h-3.4v1.6h3.4V5.5z"/>
			</g>
		</g>
	</g>
	<g id="RectEndPoint8" transform="translate(233,60)">
		<rect x="124" y="-7.5" class="st7" width="97" height="50"/>
		<rect x="122" y="-9.5" class="st8" width="97" height="50"/>
		<g transform="translate(20.5,9)">
			<g class="st2">
				<path class="st3" d="M122.8,6.8l-0.3-1.1c1.4-1.7,2.4-3.6,3-5.8l0.9,0.4c-0.3,1.1-0.7,2.1-1.2,3v9.5h-1V5.1
					C123.7,5.7,123.3,6.3,122.8,6.8z M130.6,1.9c-0.2-0.6-0.4-1.1-0.7-1.6l1-0.3c0.3,0.6,0.5,1.2,0.7,1.7L131,1.9h4.4v1h-9.1v-1
					C126.3,1.9,130.6,1.9,130.6,1.9z M134.5,12.9h-1v-0.8h-5.2v0.8h-1V8h7.1L134.5,12.9L134.5,12.9z M134.2,4v0.9h-6.6V4H134.2z
					 M134.2,6v0.9h-6.6V6H134.2z M133.5,11.2V9h-5.2v2.2H133.5z"/>
				<path class="st3" d="M138.9,9.1c-0.3,1.3-0.8,2.4-1.4,3.3l-0.9-0.5c0.6-0.9,1-1.9,1.3-3L138.9,9.1z M141.8,1.1
					c0.2-0.4,0.3-0.7,0.4-1.1l1.1,0.1c-0.1,0.3-0.3,0.7-0.4,1h4.6v6.8h-8.8V1.1H141.8z M146.5,3.1V2h-6.8v1.1H146.5z M146.5,5.1V3.9
					h-6.8V5L146.5,5.1L146.5,5.1z M146.5,5.9h-6.8v1.2h6.8V5.9z M141.1,12.7c-0.8,0-1.2-0.4-1.2-1.2V8.8h1v2.5
					c0,0.3,0.2,0.5,0.5,0.5h3.1c0.3,0,0.5-0.1,0.7-0.2c0.2-0.2,0.3-0.7,0.4-1.7l1,0.3c-0.1,1.2-0.3,1.9-0.6,2.2
					c-0.3,0.2-0.7,0.3-1.2,0.3C144.8,12.7,141.1,12.7,141.1,12.7z M144.6,10.2l-0.8,0.5c-0.4-0.6-1-1.3-1.7-2l0.7-0.5
					C143.6,9,144.2,9.7,144.6,10.2z M149.4,11.6l-0.8,0.6c-0.5-0.9-1.2-1.9-2-3l0.8-0.5C148.3,9.8,149,10.8,149.4,11.6z"/>
				<path class="st3" d="M153.7,12.9h-1v-7c-0.4,1.4-1,2.7-1.8,3.9l-0.4-1c1-1.5,1.7-3.1,2.1-5h-1.9v-1h1.9V0.1h1v2.7h1.7v1h-1.7
					v0.9c0.7,0.8,1.3,1.6,2,2.6L155,8.2c-0.6-1-1.1-1.8-1.5-2.4v7.1H153.7z M155.4,12.8l-0.5-0.9c3.3-1.1,5.8-3.2,7.4-6.2l0.9,0.4
					c-0.7,1.3-1.5,2.4-2.4,3.3c1,0.9,1.9,1.8,2.6,2.7l-0.7,0.7c-0.6-0.9-1.4-1.8-2.5-2.8C158.8,11.3,157.2,12.2,155.4,12.8z
					 M159.2,1.6c-0.2-0.5-0.4-1-0.7-1.4l1-0.2c0.2,0.4,0.4,1,0.6,1.6h3.1v0.9h-3.8c-0.8,1.4-1.4,2.3-2,2.9c0.9-0.1,1.8-0.1,2.6-0.2
					c0.4-0.5,0.7-1,1-1.6l0.8,0.4c-1.4,2.8-3.4,4.7-6.2,5.7l-0.5-0.8c1.7-0.6,3.1-1.5,4.3-2.8c-1,0.1-2,0.1-3.1,0.2L156,5.4
					c0.1,0,0.1-0.1,0.2-0.1c0.6-0.4,1.3-1.3,2.2-2.8h-2.7V1.6H159.2z"/>
				<path class="st3" d="M170.5,1.3V0h1v1.3h5.3v0.9h-4.3c1.1,1,2.7,1.8,4.9,2.4L177,5.5c-2.5-0.9-4.3-2-5.3-3.3h-0.1v2.6h-1V2.2
					h-0.1c-1.1,1.3-2.9,2.5-5.3,3.3l-0.5-0.9c2.2-0.6,3.9-1.5,5-2.5h-4.3V1.3H170.5z M177,11.6v0.9h-12v-0.9H177z M175.2,5.3v5.2
					h-8.4V5.3H175.2z M174.2,7.5V6.2h-6.4v1.3H174.2z M174.2,8.3h-6.4v1.2h6.4V8.3z"/>
			</g>
		</g>
	</g>
	<g id="RectEndPoint9" transform="translate(233,127)">
		<rect x="124" y="-7.5" class="st7" width="97" height="50"/>
		<rect x="122" y="-9.5" class="st8" width="97" height="50"/>
		<g transform="translate(20.5,9)">
			<g class="st2">
				<path class="st3" d="M129.9,10.5c1.6-0.7,2.8-1.6,3.7-2.9h-4.1c-1.2,0.6-2.7,1-4.4,1.3L124.5,8c3.1-0.3,5.3-1.2,6.8-2.8l0.9,0.5
					c-0.3,0.3-0.7,0.7-1.1,1h3.8v0.8c-2,3.3-5.7,5-11.1,5.1l-0.4-1c2.2,0,4.1-0.3,5.7-0.8c-0.5-0.6-1-1.2-1.5-1.7l0.9-0.4
					C128.9,9.3,129.5,9.9,129.9,10.5z M129.8,0.5c-0.3,0.3-0.5,0.5-0.8,0.8h4v0.8c-1.5,2.7-4.3,4.2-8.4,4.5l-0.4-0.9
					c1.3-0.1,2.4-0.3,3.4-0.6c-0.4-0.5-0.9-1-1.4-1.5l0.9-0.4c0.5,0.5,1,1,1.4,1.5c1.5-0.6,2.6-1.5,3.4-2.6h-4.1
					c-1.1,0.6-2.4,1.1-3.9,1.5l-0.6-0.9c2.5-0.5,4.4-1.4,5.6-2.7L129.8,0.5z"/>
				<path class="st3" d="M143.2,6.6c0.2-0.7,0.3-1.5,0.3-2.3V0.1h1v4.2c0,0.8-0.1,1.6-0.3,2.3h4.9v1H144c-0.1,0.3-0.2,0.6-0.3,0.8
					c2.1,1.2,4,2.5,5.4,3.7l-0.7,0.7c-1.3-1.1-3-2.4-5.1-3.7c-0.1,0.2-0.3,0.4-0.4,0.7c-1.1,1.3-2.8,2.3-5.3,3L137,12
					c2.4-0.7,4.1-1.7,5.1-2.9c0.3-0.5,0.6-1,0.8-1.6H137v-1L143.2,6.6L143.2,6.6z M141.3,4.9l-0.5,0.8c-1-0.8-2.1-1.4-3.2-1.9
					l0.5-0.8C139.2,3.6,140.3,4.2,141.3,4.9z M142.3,2.4l-0.5,0.8c-0.9-0.7-1.8-1.2-2.7-1.6l0.5-0.8C140.6,1.3,141.5,1.8,142.3,2.4z
					"/>
				<path class="st3" d="M150.8,7l-0.3-1.1c1.4-1.7,2.4-3.7,3-5.9l1,0.4c-0.3,1-0.7,1.9-1.1,2.8v9.7h-1V5
					C151.9,5.7,151.4,6.4,150.8,7z M156.5,1.7V0.1h1v1.5h2.5V0.1h1v1.5h2v0.9h-2v1.8h2.3v1h-9.1v-1h2.3V2.6h-1.9V1.7H156.5z
					 M162.2,12.8h-1v-0.6h-4.8v0.6h-1V6.4h6.7v6.4H162.2z M161.2,8.8V7.3h-4.8v1.5H161.2z M161.2,11.3V9.7h-4.8v1.5h4.8V11.3z
					 M160.1,4.3V2.6h-2.5v1.8L160.1,4.3L160.1,4.3z"/>
				<path class="st3" d="M166.6,9.1c-0.3,1.1-0.7,2-1.3,2.8l-0.8-0.5c0.6-0.8,1-1.6,1.2-2.5L166.6,9.1z M167.7,1.3V0.1h1v1.3h2.6
					v0.9h-2.6v1.2h2.3v0.9h-5.7V3.5h2.5V2.2h-3V1.3H167.7z M171.3,7.4v0.9h-2.7v3.5c0,0.7-0.4,1.1-1.2,1.1h-1.2L166,12
					c0.4,0,0.7,0.1,1.1,0.1c0.4,0,0.5-0.2,0.5-0.5V8.3h-2.9V7.4H171.3z M170.4,5.4v0.9h-4.8V5.4H170.4z M171.1,10.9l-0.8,0.4
					c-0.3-0.8-0.6-1.5-0.9-2.2l0.8-0.3C170.5,9.5,170.8,10.2,171.1,10.9z M174.4,4.3c0,0.9-0.1,1.8-0.1,2.6c0.6,2.2,1.7,4,3.2,5.3
					l-0.7,0.8c-1.2-1.2-2.1-2.6-2.8-4.3c0,0.1,0,0.2-0.1,0.3c-0.4,1.7-1.4,3-3,4.1l-0.6-0.7c1.3-0.9,2.2-2.1,2.6-3.5
					c0.3-1.2,0.5-2.7,0.5-4.5h1V4.3z M173.5,0.3c-0.1,0.7-0.2,1.4-0.3,2h3.7v0.6c-0.2,1.2-0.4,2.4-0.7,3.5l-0.9-0.3
					c0.3-0.9,0.5-1.8,0.7-3h-3c-0.3,1.2-0.7,2.1-1.3,2.9l-0.8-0.5c0.9-1.3,1.4-3.1,1.7-5.4L173.5,0.3z"/>
			</g>
		</g>
	</g>
	<g id="RectEndPoint11" transform="translate(432,60)">
		<rect x="184" y="-7.5" class="st7" width="97" height="50"/>
		<rect x="182" y="-9.5" class="st8" width="97" height="50"/>
		<g transform="translate(20.5,9)">
			<g class="st2">
				<path class="st3" d="M193.3,0.6v5.6c0,2.3,0.1,3.8,0.2,4.4c0.2,0.6,0.3,1,0.6,1c0.2,0,0.3-0.6,0.5-1.9l0.9,0.4
					c-0.2,1-0.3,1.8-0.5,2.2c-0.2,0.3-0.4,0.5-0.7,0.5c-0.7,0-1.1-0.4-1.5-1.3c-0.3-0.9-0.5-2.6-0.5-5.2V1.6h-7v4.5
					c0,2.7-0.6,5-1.7,6.8l-0.8-0.7c1-1.6,1.5-3.7,1.5-6.2V0.6H193.3z M189,6.2c0.6-1.1,1-2.2,1.3-3.4l1,0.2c-0.4,1.5-1,2.9-1.7,4.1
					c0.9,1.2,1.6,2.3,2.2,3.3l-0.9,0.6c-0.6-1-1.2-2-1.9-3c-0.9,1.3-1.9,2.3-3.1,3.2l-0.7-0.9c1.2-1,2.3-2,3.1-3.3
					c-0.8-1.1-1.6-2.2-2.5-3.3l0.8-0.5C187.5,4.3,188.3,5.2,189,6.2z"/>
				<path class="st3" d="M201.3,0.7v0.8c-0.4,1.3-0.9,2.6-1.5,4c0.9,1.2,1.3,2.4,1.4,3.4c0,0.6-0.1,1-0.4,1.3
					c-0.4,0.3-1.1,0.5-2,0.5l-0.3-1c0.2,0,0.4,0.1,0.5,0.1c0.5,0,0.8-0.1,1-0.2c0.2-0.1,0.2-0.3,0.2-0.6c0-1-0.5-2-1.4-3.2
					c0.6-1.5,1.1-2.8,1.5-4h-2.2v11.3h-1V0.7H201.3z M201.3,5.6l-0.5-0.8c1.7-1.2,3-2.8,3.9-4.7h0.9c0.8,1.8,2.1,3.3,4,4.7L209,5.6
					c-0.6-0.4-1.2-0.9-1.7-1.4V5H203V4.2C202.5,4.7,201.9,5.2,201.3,5.6z M205.9,11.4c0.7-1.5,1.2-3.4,1.7-5.5l1,0.3
					c-0.5,2-1,3.7-1.7,5.3h2.4v1H201v-1h4.9V11.4z M203.9,10.4l-0.9,0.2c-0.3-1.4-0.8-2.7-1.3-4l0.9-0.3
					C203.1,7.6,203.5,8.9,203.9,10.4z M205.1,1.1c-0.6,1.2-1.3,2.2-2.1,3h4.2C206.4,3.2,205.7,2.2,205.1,1.1z M205.9,9.8L205,10
					c-0.3-1.3-0.6-2.6-1.1-3.9l0.9-0.3C205.2,7,205.6,8.3,205.9,9.8z"/>
				<path class="st3" d="M213.2,3.4c0.5-0.5,1-1.2,1.4-1.9H211V0.6h4.6v0.8c-0.6,1-1.2,1.9-1.9,2.7c0.3,0.3,0.5,0.6,0.7,0.8h1.6v0.6
					c-0.2,1.1-0.5,1.9-0.8,2.6l-0.8-0.3c0.3-0.5,0.5-1.2,0.7-1.9h-1.5v5.9c0,0.7-0.4,1.1-1.1,1.1h-1.3L211,12c0.4,0,0.8,0.1,1.2,0.1
					c0.3,0,0.4-0.2,0.4-0.5V5.9h-2v-1h2.7c-0.5-0.6-1.2-1.3-2-2.1l0.7-0.5C212.5,2.8,212.8,3.1,213.2,3.4z M220.4,4.8v2.5
					c0,1.5-0.4,2.7-1,3.6c-0.6,0.8-1.6,1.5-3,1.9l-0.5-0.9c1.3-0.4,2.3-1,2.8-1.7c0.5-0.8,0.7-1.7,0.8-2.9V4.8H220.4z M223.4,0.6v1
					h-2.8c-0.1,0.5-0.2,1.1-0.3,1.6h2.6v6.6h-1V4h-4v5.7h-1V3.2h2.3c0.1-0.5,0.2-1,0.3-1.6h-3.1v-1H223.4z M223.5,12.2l-0.7,0.7
					c-0.6-0.8-1.5-1.6-2.5-2.5l0.6-0.6C221.9,10.6,222.8,11.4,223.5,12.2z"/>
				<path class="st3" d="M226.7,0.6V0h0.8v0.6h1.5V0h0.8v0.6h1.7v0.7h-1.7V2H229V1.4h-1.5V2h-0.7c0,0.1-0.1,0.2-0.1,0.3h4.4
					c0,1.6-0.1,2.6-0.3,3c-0.1,0.1-0.1,0.2-0.2,0.2l0.5-0.1c0.1,0.3,0.3,0.6,0.4,0.9h5.4V7H225V6.4h5.7c-0.1-0.2-0.2-0.4-0.4-0.6
					c-0.2,0.1-0.4,0.1-0.6,0.1h-0.6L229,5.5h-2.8V3.6h3v1.6h0.4c0.3,0,0.5-0.2,0.6-0.4c0.1-0.3,0.1-0.9,0.1-1.8h-3.8
					c-0.3,0.6-0.7,1.1-1.2,1.6l-0.5-0.7c0.7-0.5,1.1-1.2,1.3-2.1l0.7,0.1V1.4H225V0.6H226.7z M235.9,13h-1v-0.4h-7.7V13h-1v-2.7h9.7
					V13z M235.5,7.8v0.6h-8.8V7.8H235.5z M235.5,9v0.6h-8.8V9H235.5z M228.4,4.1h-1.5v0.8h1.5V4.1z M234.9,11.9V11h-7.7v0.9H234.9z
					 M231.7,3.8l-0.6-0.7c0.8-0.8,1.4-1.8,1.7-3.2l0.9,0.2c-0.1,0.3-0.1,0.5-0.2,0.8h3.3v0.8H236c-0.2,1-0.6,1.8-1.2,2.4
					c0.6,0.4,1.4,0.7,2.3,1l-0.5,0.8c-1-0.3-1.8-0.7-2.5-1.2c-0.7,0.5-1.5,0.9-2.5,1.1L231.4,5c0.9-0.2,1.6-0.5,2.2-0.9
					c-0.4-0.4-0.8-0.9-1-1.3C232.3,3.2,232.1,3.5,231.7,3.8z M233.1,2c0.2,0.6,0.6,1.2,1.1,1.6c0.5-0.5,0.8-1.2,1-1.9h-2
					C233.2,1.8,233.1,1.9,233.1,2z"/>
			</g>
		</g>
	</g>
	<g id="RectEndPoint12" transform="translate(432,127)">
		<rect x="184" y="-7.5" class="st7" width="97" height="50"/>
		<rect x="182" y="-9.5" class="st8" width="97" height="50"/>
		<g transform="translate(20.5,9)">
			<g class="st2">
				<path class="st3" d="M189.5,12.6c-0.9,0-1.6-0.1-2.2-0.3s-1-0.5-1.5-1c-0.2-0.2-0.4-0.3-0.5-0.3c-0.3,0-0.9,0.6-1.7,1.9
					l-0.8-0.7c0.8-1.2,1.4-1.9,2-2.1V5.8h-2.1V4.9h3v5.2c0.1,0.1,0.2,0.2,0.3,0.3c0.3,0.4,0.7,0.7,1.1,0.9s1.1,0.3,1.9,0.3
					c0.7,0,1.6,0,2.7,0c0.7,0,1.3,0,2,0s1.2,0,1.6-0.1l-0.2,1h-3.2C191.2,12.6,190.3,12.6,189.5,12.6z M186.2,2.5l-0.7,0.7
					c-0.6-0.7-1.4-1.4-2.4-2.2l0.7-0.7C184.7,1,185.5,1.7,186.2,2.5z M186.9,4l-0.5-0.8c1.6-0.8,3-1.8,4.2-3h0.7
					c1.3,1.2,2.7,2.2,4,3L194.8,4c-0.7-0.4-1.3-0.8-1.9-1.2v0.8h-4.5V3C188,3.3,187.5,3.6,186.9,4z M189,11l-0.2-0.8h0.7
					c0.3,0,0.4-0.2,0.4-0.5v-1h-1.6V11h-0.9V4.5h3.3v5.4c0,0.7-0.3,1.1-1,1.1H189z M189.9,6.3v-1h-1.6v1H189.9z M189.9,8V7h-1.6v1
					H189.9z M191,1.1c-0.7,0.6-1.4,1.1-2.1,1.6h4C192.2,2.2,191.6,1.7,191,1.1z M192.5,4.8v4.4h-0.8V4.8H192.5z M192.1,11l-0.2-0.9
					c0.4,0,0.8,0.1,1.2,0.1c0.3,0,0.5-0.2,0.5-0.5V4.3h0.9v5.5c0,0.7-0.3,1.1-1,1.1L192.1,11L192.1,11z"/>
				<path class="st3" d="M199.3,10.2c-0.5,1-1.1,1.9-1.8,2.6l-0.8-0.6c0.7-0.7,1.3-1.5,1.8-2.5L199.3,10.2z M198.7,0.1v1.6h2.7V0.1
					h1v1.5h0.8v0.9h-0.8v5.9h0.9v1h-6.6v-1h1V2.6h-0.9V1.7h0.9V0.1H198.7z M198.7,2.6V4h2.7V2.6H198.7z M201.5,6.3V4.9h-2.7v1.4
					H201.5z M201.5,8.5V7.2h-2.7v1.4L201.5,8.5L201.5,8.5z M202.7,12c0.9-1.3,1.4-2.9,1.4-4.9V0.6h4.7v11c0,0.8-0.4,1.2-1.2,1.2
					h-1.5l-0.3-1c0.5,0,1,0.1,1.4,0.1s0.5-0.2,0.5-0.6v-3H205c-0.2,1.8-0.8,3.4-1.7,4.6l-0.8-0.7C202.6,12.2,202.7,12.2,202.7,12
					l-0.8,0.6c-0.4-0.7-0.9-1.5-1.5-2.3l0.8-0.5C201.9,10.7,202.4,11.4,202.7,12z M205.1,7.1c0,0.1,0,0.2,0,0.4h2.7V4.9h-2.6
					L205.1,7.1L205.1,7.1z M207.8,1.5h-2.6V4h2.6V1.5z"/>
				<path class="st3" d="M210.9,7.1L210.5,6c1.3-1.7,2.3-3.7,2.9-5.9l0.9,0.4c-0.3,0.9-0.6,1.8-1,2.7v9.6h-1V5
					C211.9,5.7,211.4,6.4,210.9,7.1z M216.5,12.8h-0.9V7.4c-0.4,0.5-0.8,1-1.2,1.5l-0.6-0.7c1-1.1,1.8-2.5,2.5-4.2l0.9,0.2
					c-0.1,0.3-0.3,0.7-0.4,1h2.5c-0.2-0.4-0.4-0.8-0.7-1.1l1-0.2c0.2,0.4,0.4,0.8,0.7,1.3h2.7V6h-2.8v1.1h2.4V8h-2.4v1.2h2.5V10
					h-2.5v1.3h3.2v0.9h-6.8L216.5,12.8L216.5,12.8z M221.6,0.7h1v2.8h-7.4V0.8h1v1.8h2.2V0.1h1v2.5h2.2V0.7z M216.5,6v1.1h2.7V6
					H216.5z M216.5,9.2h2.7V8h-2.7V9.2z M216.5,11.3h2.7V10h-2.7V11.3z"/>
				<path class="st3" d="M225,9.3c0.2-0.1,0.3-0.2,0.3-0.3V1.3h1v7.6c0.7-0.2,1.4-0.4,2.1-0.7V0.1h1v12.7h-1V9.2
					c-1,0.4-2,0.7-3.1,0.9L225,9.3z M230.2,6.7l-0.6-0.8c1.1-1.5,1.9-3.4,2.3-5.9l1,0.2c-0.1,0.7-0.3,1.4-0.5,2h4.7v1H236
					c-0.1,2.3-0.7,4.3-1.7,5.9c0.9,1.1,2,2.2,3.2,3.1l-0.7,0.8c-1.2-0.9-2.3-1.9-3.2-3c-0.9,1.2-2.1,2.1-3.6,2.9l-0.6-0.9
					c1.5-0.7,2.6-1.7,3.5-2.8c-0.8-1.1-1.4-2.3-1.9-3.6C230.8,6,230.5,6.3,230.2,6.7z M231.7,4.4c0.5,1.4,1.1,2.6,2,3.8
					c0.8-1.4,1.3-3.1,1.4-5h-2.8C232,3.6,231.9,4,231.7,4.4z"/>
			</g>
		</g>
	</g>
</g>
<g id="textgroup" transform="translate(0,0)">
</g>
<g id="assistantgroup" transform="translate(0,0)">
</g>
</svg>
