<?xml version="1.0" encoding="utf-8"?>
<!-- Generator: Adobe Illustrator 21.0.0, SVG Export Plug-In . SVG Version: 6.00 Build 0)  -->
<svg version="1.1" id="图层_1" xmlns="http://www.w3.org/2000/svg" xmlns:xlink="http://www.w3.org/1999/xlink" x="0px" y="0px"
	 width="48px" height="48px" viewBox="0 0 48 48" style="enable-background:new 0 0 48 48;" xml:space="preserve">
<style type="text/css">
	.st0{fill:#00A4FF;}
	.st1{fill:#334966;}
</style>
<g>
	<path class="st1" d="M12,21v24H2V21H12 M14,19H0v28h14V19L14,19z"/>
</g>
<rect x="4" y="24" class="st0" width="6" height="2"/>
<rect x="4" y="28" class="st0" width="6" height="2"/>
<rect x="4" y="32" class="st0" width="6" height="2"/>
<g>
	<path class="st1" d="M46,21v24H36V21H46 M48,19H34v28h14V19L48,19z"/>
</g>
<rect x="38" y="24" class="st0" width="6" height="2"/>
<rect x="38" y="28" class="st0" width="6" height="2"/>
<rect x="38" y="32" class="st0" width="6" height="2"/>
<g>
	<path class="st1" d="M29,3v24H19V3H29 M31,1H17v28h14V1L31,1z"/>
</g>
<rect x="21" y="6" class="st0" width="6" height="2"/>
<rect x="21" y="10" class="st0" width="6" height="2"/>
<rect x="21" y="14" class="st0" width="6" height="2"/>
<rect x="1" y="7" class="st1" width="2" height="11"/>
<rect x="1" y="7" class="st1" width="15" height="2"/>
<rect x="32" y="7" class="st1" width="2" height="2"/>
<rect x="36" y="7" class="st1" width="2" height="2"/>
<rect x="40" y="7" class="st1" width="2" height="2"/>
<rect x="44" y="7" class="st1" width="2" height="2"/>
<rect x="45" y="7" class="st1" width="2" height="2"/>
<rect x="45" y="8" class="st1" width="2" height="2"/>
<rect x="45" y="12" class="st1" width="2" height="2"/>
<rect x="45" y="16" class="st1" width="2" height="2"/>
<rect x="31" y="37" class="st1" width="2" height="2"/>
<rect x="27" y="37" class="st1" width="2" height="2"/>
<rect x="23" y="37" class="st1" width="2" height="2"/>
<rect x="19" y="37" class="st1" width="2" height="2"/>
<rect x="15" y="37" class="st1" width="2" height="2"/>
</svg>
