<?xml version="1.0" encoding="UTF-8"?>
<svg width="16px" height="16px" viewBox="0 0 16 16" version="1.1" xmlns="http://www.w3.org/2000/svg" xmlns:xlink="http://www.w3.org/1999/xlink">
    <!-- Generator: Sketch 52.6 (67491) - http://www.bohemiancoding.com/sketch -->
    <title>量子技术</title>
    <desc>Created with Sketch.</desc>
    <g id="量子技术" stroke="none" stroke-width="1" fill="none" fill-rule="evenodd">
        <rect id="Rectangle" fill-rule="nonzero" x="0" y="0" width="16" height="16"></rect>
        <path d="M2.38281015,3.83033181 C2.14028353,3.44509383 2,2.98896974 2,2.5 C2,1.119 3.119,0 4.5,0 C5.881,0 7,1.119 7,2.5 C7,3.881 5.881,5 4.5,5 C4.34343528,5 4.19023801,4.98561763 4.04165697,4.95810165 L2.304,8 L5.161,13 L8,13 L8,15 L4,15 L0,8 L2.38281015,3.83033181 Z M13.6171899,12.1696682 C13.8597165,12.5549062 14,13.0110303 14,13.5 C14,14.881 12.881,16 11.5,16 C10.119,16 9,14.881 9,13.5 C9,12.119 10.119,11 11.5,11 C11.6565647,11 11.809762,11.0143824 11.958343,11.0418984 L13.696,8 L10.84,3 L8.004,3 L8.004,1 L12,1 L16,8 L13.6171899,12.1696682 Z M4.5,2 C4.224,2 4,2.224 4,2.5 C4,2.776 4.224,3 4.5,3 C4.776,3 5,2.776 5,2.5 C5,2.224 4.776,2 4.5,2 Z M11.5,13 C11.225,13 11,13.225 11,13.5 C11,13.775 11.225,14 11.5,14 C11.775,14 12,13.775 12,13.5 C12,13.225 11.775,13 11.5,13 Z" id="Combined-Shape" fill="#00A4FF"></path>
    </g>
</svg>