<?xml version="1.0" encoding="UTF-8"?>
<svg width="48px" height="48px" viewBox="0 0 48 48" version="1.1" xmlns="http://www.w3.org/2000/svg" xmlns:xlink="http://www.w3.org/1999/xlink">
    <!-- Generator: Sketch 52.2 (67145) - http://www.bohemiancoding.com/sketch -->
    <title>JSON</title>
    <desc>Created with Sketch.</desc>
    <defs>
        <polygon id="path-1" points="0 0 46 0 46 45.9995 0 45.9995"></polygon>
    </defs>
    <g id="JSON" stroke="none" stroke-width="1" fill="none" fill-rule="evenodd">
        <g id="Group-6" transform="translate(1.000000, 1.000000)">
            <g id="Group-3">
                <mask id="mask-2" fill="white">
                    <use xlink:href="#path-1"></use>
                </mask>
                <g id="Clip-2"></g>
                <path d="M23,44.0995 C20.547,44.0995 18.201,43.6605 16.011,42.8895 L16.014,42.8875 C15.955,42.8185 10.128,35.8465 9.491,28.6615 C9.123,24.5015 9.881,18.7985 13.113,15.2665 C14.829,13.3915 17.05,12.3935 19.71,12.2735 C17.717,14.5455 16.305,17.3125 15.671,20.2895 C14.811,24.5995 15.936,29.4895 18.47,32.5375 C20.385,34.8405 23,35.9995 26.041,35.9995 L26.196,35.9995 C29.683,35.9995 32.563,34.7355 34.757,32.2725 C38.374,28.2105 39.163,21.9015 38.696,17.3225 C38.211,12.5745 35.763,7.9205 33.867,4.9255 C39.991,8.6185 44.1,15.3215 44.1,22.9935 C44.1,34.6465 34.653,44.0995 23,44.0995 M23.794,33.8175 C22.315,33.4095 21.055,32.5745 20.008,31.3145 C17.838,28.7035 16.884,24.4315 17.63,20.6945 C18.296,17.5585 19.945,14.6795 22.281,12.4935 C23.894,12.8855 25.268,13.7615 26.373,15.1275 C28.508,17.7665 29.404,22.0525 28.608,25.7745 C27.89,28.8865 26.185,31.7085 23.794,33.8175 M1.9,22.9995 C1.938,11.3625 11.362,1.9375 23,1.8995 C25.544,1.8995 27.971,2.3725 30.23,3.1985 C31.28,4.5735 36.049,11.1215 36.706,17.5535 C37.131,21.7065 36.449,27.4195 33.264,30.9955 C31.501,32.9745 29.181,34.0115 26.372,34.0965 C28.414,31.8885 29.877,29.1685 30.561,26.2085 C31.479,21.9125 30.422,16.9535 27.928,13.8705 C26.013,11.5015 23.357,10.2495 20.25,10.2495 C16.763,10.2495 13.865,11.4825 11.638,13.9165 C7.967,17.9285 7.093,24.2545 7.499,28.8375 C7.927,33.6655 10.397,38.2675 12.282,41.1525 C6.075,37.4795 1.9,30.7355 1.9,22.9995 M23,-0.0005 C10.297,-0.0005 0,10.2965 0,22.9995 C0,35.7035 10.297,45.9995 23,45.9995 C35.703,45.9995 46,35.7035 46,22.9995 C46,10.2965 35.703,-0.0005 23,-0.0005" id="Fill-1" fill="#334966" mask="url(#mask-2)"></path>
            </g>
            <path d="M34.7568,32.2723 C32.5628,34.7353 29.6828,36.0003 26.1958,36.0003 L26.0408,36.0003 C22.9998,36.0003 20.3848,34.8403 18.4698,32.5383 C15.9358,29.4893 14.8108,24.5993 15.6708,20.2903 C16.3048,17.3133 17.7168,14.5453 19.7098,12.2733 C17.0498,12.3943 14.8288,13.3923 13.1128,15.2673 C9.8808,18.7983 9.1228,24.5013 9.4908,28.6623 C9.8548,32.7633 11.9078,36.7893 13.6148,39.5073 C16.3848,41.0853 19.5838,42.0003 22.9998,42.0003 C33.4928,42.0003 41.9998,33.4933 41.9998,23.0003 C41.9998,17.7223 39.8458,12.9513 36.3728,9.5083 C37.4768,11.8843 38.4158,14.5823 38.6958,17.3223 C39.1628,21.9013 38.3738,28.2103 34.7568,32.2723" id="Fill-4" fill="#00A4FF"></path>
        </g>
    </g>
</svg>