<?xml version="1.0" encoding="utf-8"?>
<!-- Generator: Adobe Illustrator 22.0.1, SVG Export Plug-In . SVG Version: 6.00 Build 0)  -->
<svg version="1.1" id="图层_1" xmlns="http://www.w3.org/2000/svg" xmlns:xlink="http://www.w3.org/1999/xlink" x="0px" y="0px"
	 width="32px" height="32px" viewBox="0 0 32 32" style="enable-background:new 0 0 32 32;" xml:space="preserve">
<style type="text/css">
	.st0{fill-rule:evenodd;clip-rule:evenodd;fill:#00A4FF;}
	.st1{fill:#00A4FF;}
</style>
<circle class="st0" cx="8" cy="16" r="2"/>
<circle class="st0" cx="24" cy="16" r="2"/>
<circle class="st0" cx="16" cy="21" r="2"/>
<circle class="st0" cx="16" cy="11" r="2"/>
<g>
	<path class="st1" d="M15,18.8v-5.6L10,16H6l11-6.2v12.4"/>
</g>
<g>
	<path class="st1" d="M22,16l-5-2.8v5.6l-2,3.4V9.8L26,16H22z"/>
</g>
<g id="XMLID_2_">
	<g>
		<path class="st1" d="M28.8,18c-1,6.2-6.3,11-12.8,11C8.8,29,3,23.2,3,16C3,8.8,8.8,3,16,3c6.5,0,11.9,4.8,12.8,11h2
			C29.9,6.7,23.6,1,16,1C7.7,1,1,7.7,1,16s6.7,15,15,15c7.6,0,13.9-5.7,14.9-13H28.8z"/>
	</g>
</g>
<g>
</g>
<g>
</g>
<g>
</g>
<g>
</g>
<g>
</g>
<g>
</g>
<g>
</g>
<g>
</g>
<g>
</g>
<g>
</g>
<g>
</g>
<g>
</g>
<g>
</g>
<g>
</g>
<g>
</g>
</svg>
