<?xml version="1.0" encoding="utf-8"?>
<!-- Generator: Adobe Illustrator 21.0.0, SVG Export Plug-In . SVG Version: 6.00 Build 0)  -->
<svg version="1.1" id="svgwrapper_svg" xmlns="http://www.w3.org/2000/svg" xmlns:xlink="http://www.w3.org/1999/xlink" x="0px"
	 y="0px" width="830px" height="110px" viewBox="0 0 830 110" style="enable-background:new 0 0 830 110;" xml:space="preserve">
<style type="text/css">
	.st0{display:none;fill:none;stroke:#999999;}
	.st1{fill:none;stroke:#888888;}
	.st2{fill:#888888;}
	.st3{fill:none;stroke:#FF0000;stroke-width:15;stroke-opacity:0;}
	.st4{opacity:0.6;fill:#BBBBBB;enable-background:new    ;}
	.st5{fill:#FFFFFF;stroke:#E5E5E5;}
	.st6{enable-background:new    ;}
	.st7{fill:#444444;}
	.st8{fill:#CEE3FF;fill-opacity:0;}
</style>
<path class="st0" d="M223,32h354"/>
<g id="bottomgroup" transform="translate(0,0)">
</g>
<g id="middlegroup" transform="translate(0,0)">
	<g id="Link13" transform="translate(0,0)">
		<path class="st1" d="M219.5,40h172l0,0h172"/>
		<g transform="translate(0.5, 0)">
			<polygon class="st2" points="558.5,44.5 564.5,40 558.5,35.5 			"/>
		</g>
		<path class="st3" d="M219.5,40h172"/>
		<path class="st3" d="M391.5,40L391.5,40"/>
		<path class="st3" d="M391.5,40h172"/>
	</g>
</g>
<g id="maingroup" transform="translate(0,0)">
	<g id="RectEndPoint5" transform="translate(86,42)">
		<rect x="39" y="-24.5" class="st4" width="97" height="50"/>
		<rect x="37" y="-26.5" class="st5" width="97" height="50"/>
		<g transform="translate(27,9)">
			<g class="st6">
				<path class="st7" d="M38-15.2v-1h4.8v1h-2.2c-0.2,1.1-0.5,2.2-0.9,3.2h2.6v6.3h-2.4v1.1H39v-5.9c-0.3,0.5-0.6,1-1,1.5l-0.5-0.9
					c1.1-1.6,1.8-3.4,2.2-5.4L38-15.2L38-15.2z M39.9-6.6h1.5v-4.6h-1.5V-6.6z M47.8-10.4h-2.2c-0.1,2.9-0.9,5-2.5,6.4l-0.7-0.7
					c1.4-1.2,2.2-3.1,2.3-5.7h-1.5v-1h1.5v-3.9h-1.2v-1h6.6v1h-1.3v3.9h1.7v1h-1.7v6.3h-1C47.8-4.1,47.8-10.4,47.8-10.4z M47.8-15.3
					h-2.2v3.9h2.2V-15.3z"/>
				<path class="st7" d="M52.6-12.6l1.1-3.9l1,0.2l-0.8,2.8h2.5c0.3-1.1,0.5-2.2,0.7-3.4l1,0.1c-0.2,1.1-0.4,2.2-0.7,3.3H64v1h-6.8
					c-0.2,0.7-0.4,1.2-0.5,1.6h5.7v0.9c-0.4,1.2-1.1,2.3-2.3,3.3c1.1,0.7,2.5,1.3,4.1,1.8L63.7-4c-1.8-0.7-3.3-1.4-4.5-2.1
					c-1.1,0.8-2.6,1.5-4.3,2.2l-0.5-0.9C56-5.4,57.3-6,58.3-6.7c-1.1-0.8-1.9-1.7-2.3-2.7c-1,2.2-2.3,4-3.9,5.3L51.6-5
					c2-1.8,3.5-4.2,4.5-7.4h-3.5V-12.6z M56.8-10.1c0.5,1,1.3,1.8,2.4,2.6c1-0.8,1.8-1.7,2.1-2.6H56.8z M60.4-16.9
					c1,0.7,1.8,1.5,2.5,2.3l-0.7,0.7c-0.6-0.7-1.4-1.5-2.5-2.4L60.4-16.9z"/>
				<path class="st7" d="M68.3-6.8c-0.5,1-1.2,1.9-1.8,2.6l-0.8-0.6c0.7-0.7,1.3-1.5,1.8-2.5L68.3-6.8z M66.8-16.9h1v1.6h2.7v-1.6h1
					v1.5h0.8v0.9h-0.8v6h0.9v1h-6.6v-1h1v-5.9h-0.9v-0.9h0.9V-16.9z M70.5-14.4h-2.7v1.4h2.7V-14.4z M67.7-10.7h2.7v-1.4h-2.7V-10.7
					z M67.7-8.5h2.7v-1.4h-2.7V-8.5z M70.2-7.2c0.6,0.8,1.1,1.5,1.5,2.2c0.9-1.3,1.4-2.9,1.4-4.9v-6.6h4.6v11c0,0.9-0.4,1.3-1.2,1.3
					H75l-0.3-1c0.7,0,1.2,0.1,1.4,0.1c0.4,0,0.5-0.2,0.5-0.7v-2.8h-2.7c-0.2,1.8-0.8,3.4-1.7,4.6l-0.8-0.7c0,0,0,0,0.1-0.1l-0.7,0.5
					c-0.4-0.7-0.9-1.5-1.5-2.3L70.2-7.2z M74.1-12.1v2.3v0.2h2.7v-2.5H74.1z M76.8-13v-2.5h-2.6v2.5H76.8z"/>
			</g>
		</g>
	</g>
	<g id="RectEndPoint7" transform="translate(532,42)">
		<rect x="39" y="-24.5" class="st4" width="97" height="50"/>
		<rect x="37" y="-26.5" class="st5" width="97" height="50"/>
		<g transform="translate(27.5,9)">
			<g class="st6">
				<path class="st7" d="M42.8-16.9h1v4.3H49v1h-5.2v6h6.4v1H37.8v-1h5V-16.9z"/>
				<path class="st7" d="M55-16.6c-0.7,1.8-1.4,3.3-2.2,4.4c0.5,0,1.2-0.1,1.9-0.2l0.8-1.6l0.9,0.3c-1.2,2.3-2.2,4-3.1,5
					c1-0.2,2-0.5,3-0.8v0.9c-1.5,0.5-2.9,0.8-4.2,1l-0.2-0.9c0.2-0.1,0.3-0.2,0.5-0.3c0.5-0.5,1.1-1.5,1.9-2.8
					c-0.5,0.1-1.3,0.2-2.3,0.3l-0.2-0.9c0.1-0.1,0.3-0.2,0.4-0.4c0.8-1.3,1.4-2.8,2-4.4L55-16.6z M56.6-5.9c-1.4,0.5-3,1-4.7,1.3
					l-0.1-1c1.8-0.3,3.4-0.7,4.8-1.3V-5.9z M63.4-14.5l0.1,0.9l-3.6,0.5c0,0.7,0.1,1.3,0.1,1.9l3.7-0.6l0.2,1l-3.8,0.6
					c0,0.2,0.1,0.5,0.1,0.7c0.1,0.7,0.3,1.3,0.5,1.9c0.8-0.7,1.4-1.5,2-2.4l0.8,0.5c-0.8,1.1-1.6,2-2.4,2.8l0.2,0.3
					c0.5,0.7,0.9,1,1.2,1c0.4,0,0.7-0.8,0.9-2.3l0.9,0.6c-0.4,1.9-1,2.8-1.7,2.8s-1.3-0.5-1.9-1.3c-0.1-0.2-0.2-0.4-0.3-0.5
					c-1,0.8-2.2,1.3-3.3,1.7l-0.6-0.8C57.8-5.6,59-6.2,60-7c-0.3-0.6-0.5-1.3-0.6-2c-0.1-0.3-0.1-0.6-0.2-1.1l-2.5,0.4l-0.1-1
					l2.5-0.4C59-11.7,59-12.3,59-13l-2,0.3l-0.3-0.8l2.1-0.3v-3.1h1v3L63.4-14.5z M61.4-17c0.7,0.7,1.3,1.3,1.7,1.7l-0.8,0.5
					c-0.4-0.5-0.9-1.1-1.7-1.8L61.4-17z"/>
				<path class="st7" d="M68.2-12v0.4c-0.1,3.1-0.7,5.6-1.9,7.5l-0.7-0.8c1-1.6,1.6-3.9,1.7-6.7v-4.2c3.6,0,6.8-0.4,9.7-1l0.5,0.9
					c-2.7,0.6-5.8,0.9-9.2,1v2h10.1v1H68.2V-12z M77.2-10v5.9h-1v-0.7h-5.7v0.7h-1V-10H77.2z M70.5-5.7h5.7V-9h-5.7V-5.7z"/>
			</g>
		</g>
	</g>
</g>
<g id="textgroup" transform="translate(0,0)">
	<g id="Textbasic10" transform="translate(98.5,103)">
		<rect x="37" y="-26.5" class="st8" width="80" height="20"/>
		<g transform="translate(0 0)">
			<g class="st6">
				<path class="st7" d="M38.2-22.9h2.2v-1h0.9v1h2.2v0.9h-2.3c0,0.4-0.1,0.8-0.1,1.2h2.5v0.9H41v0.3c0.9,0.5,1.8,1.1,2.7,1.8
					L43.2-17c-1-0.8-1.8-1.5-2.4-1.9c0,0.1-0.1,0.2-0.1,0.3c-0.5,0.9-1.3,1.6-2.4,2.1l-0.5-0.8c1.1-0.5,1.8-1.1,2.2-1.9
					c0.1-0.1,0.2-0.4,0.3-0.7h-2.4v-0.9h2.6c0.1-0.4,0.1-0.8,0.1-1.2h-2.2v-0.9H38.2z M48.5-17v5.9h-1v-0.6h-6.8v0.6h-1V-17H48.5z
					 M40.7-14.8h6.8v-1.3h-6.8V-14.8z M40.7-12.6h6.8v-1.3h-6.8V-12.6z M44.4-22.9h2.2v-1h0.9v1h2.4v0.9h-2.4c0,0.4-0.1,0.8-0.1,1.2
					h2.9v0.9h-2.7c0.6,0.9,1.5,1.7,2.8,2.4l-0.6,0.8c-1.3-0.8-2.2-1.7-2.8-2.7L46.8-19c-0.5,0.7-1.3,1.3-2.4,1.7l-0.5-0.8
					c1-0.4,1.7-0.9,2.2-1.5l0.2-0.3h-1.9v-0.9h2.2c0.1-0.4,0.1-0.8,0.1-1.2h-2.2L44.4-22.9L44.4-22.9z"/>
				<path class="st7" d="M53.4-19c-0.4,0.6-0.9,1.2-1.6,1.8l-0.3-1c1.5-1.7,2.6-3.6,3.3-5.8l0.9,0.5c-0.3,1-0.8,2-1.3,3v9.5h-1V-19z
					 M63.8-20.6l0.2,1L59.4-19c0.1,0.9,0.2,1.7,0.3,2.3c0.3,1.5,0.8,2.6,1.4,3.4c0.5,0.7,1.1,1.1,1.5,1.1s0.7-0.9,0.9-2.7l0.9,0.5
					c-0.2,1.2-0.4,2-0.7,2.6c-0.3,0.4-0.6,0.6-1,0.6c-0.7,0-1.4-0.4-2.1-1.3c-0.8-1-1.4-2.2-1.8-3.8c-0.2-0.7-0.3-1.6-0.4-2.6
					l-3,0.4l-0.2-1l3.1-0.4c-0.1-1.2-0.1-2.5-0.2-4.1h1c0,1.5,0,2.8,0.1,3.9L63.8-20.6z M60.6-23.9c0.9,0.7,1.6,1.4,2.2,2.1
					l-0.7,0.7c-0.5-0.7-1.2-1.4-2.1-2.2L60.6-23.9z"/>
				<path class="st7" d="M68.5-11.1h-1v-7c-0.4,1.3-1,2.5-1.7,3.7l-0.4-1.1c1-1.4,1.7-2.9,2.1-4.6h-1.8v-1.1h1.8v-2.7h1v2.8h1.4v0.9
					h-1.4v1c0.6,0.7,1.1,1.5,1.7,2.3l-0.5,0.8c-0.4-0.8-0.8-1.5-1.1-2L68.5-11.1L68.5-11.1z M70.8-20.5h6.6v4.3h-2.9
					c0,0.5-0.1,0.8-0.1,1.1h3.9v0.9h-3.6c0.8,0.9,2,1.7,3.6,2.3l-0.7,0.8c-1.7-0.7-2.9-1.6-3.7-2.7c0,0,0,0.1-0.1,0.1
					c-0.5,1-1.7,1.9-3.4,2.6l-0.6-0.8c1.6-0.5,2.6-1.2,3.2-2l0.1-0.2h-3.4V-15h3.7c0.1-0.3,0.1-0.6,0.2-1.1h-2.8
					C70.8-16.1,70.8-20.5,70.8-20.5z M69.9-22.7H72v-1.2h1v1.2h2.2v-1.2h1v1.2h2.2v0.9h-2.2v1h-1v-1H73v1h-1v-1h-2.1V-22.7z
					 M71.7-18.7h4.7v-1h-4.7V-18.7z M76.5-16.9v-1h-4.7v1H76.5z"/>
				<path class="st7" d="M80.1-11.3l-0.2-1c0.4,0,0.8,0.1,1.1,0.1c0.4,0,0.5-0.2,0.5-0.5v-3.4c-0.5,0.2-1,0.4-1.6,0.5l-0.2-1
					c0.6-0.2,1.3-0.3,1.8-0.5v-3.3h-1.7v-1h1.7v-2.5h1v2.6H84v1h-1.5v2.8c0.5-0.2,1-0.5,1.5-0.7v1c-0.5,0.2-1,0.5-1.5,0.7v4
					c0,0.8-0.4,1.2-1.2,1.2H80.1z M84.2-14.1c0.3-0.1,0.5-0.3,0.5-0.6v-8.4h1v8.5c0.6-0.3,1.3-0.6,1.9-0.9l0.3,0.9
					c-1.1,0.6-2.2,1-3.3,1.4L84.2-14.1z M91.1-23.7c0,2.6-0.2,4.9-0.6,6.7c-0.1,0.5-0.2,0.9-0.4,1.2c1,1.5,1.7,2.8,2.2,3.9l-0.8,0.6
					c-0.4-1-1.1-2.2-1.9-3.5c-0.7,1.4-1.7,2.6-3,3.7L86-11.9c1.7-1.4,2.8-3.1,3.4-5.2c0.4-1.8,0.6-4,0.6-6.7L91.1-23.7L91.1-23.7z
					 M87.3-22.2c0.7,1.1,1.2,2.3,1.7,3.5l-0.8,0.4c-0.5-1.4-1.1-2.6-1.7-3.6L87.3-22.2z"/>
				<path class="st7" d="M93.8-18.6h4.7c0.3-0.3,0.5-0.7,0.6-1.1l1,0.1c-0.1,0.3-0.3,0.6-0.5,1h3.6c-0.2-0.4-0.4-0.7-0.6-1l0.9-0.3
					c0.3,0.4,0.5,0.8,0.8,1.2h1.9v0.9h-3.8c0.9,0.9,2.3,1.5,4.1,2l-0.4,0.9c-0.2-0.1-0.5-0.2-1-0.3v4.1h-0.9v-0.6h-2.6v0.6h-0.9
					v-4.4h3.7c-1.3-0.6-2.3-1.3-3-2.2H99c-0.8,0.9-1.8,1.6-3.1,2.2h3.5v4.4h-0.9v-0.6H96v0.6h-0.9v-4.1L94-14.8l-0.5-0.8
					c1.8-0.5,3.2-1.2,4.1-2.1h-3.9v-0.9H93.8z M95-23.4h4.3v3.4H95V-23.4z M98.3-20.9v-1.6h-2.4v1.7h2.4V-20.9z M96-12.6h2.4v-2.1
					H96V-12.6z M100.8-23.4h4.4v3.4h-4.4V-23.4z M101.6-12.6h2.6v-2.1h-2.6V-12.6z M104.2-20.9v-1.6h-2.5v1.7h2.5V-20.9z"/>
			</g>
		</g>
	</g>
	<g id="Textbasic12" transform="translate(488.5,103)">
		<rect x="37" y="-26.5" class="st8" width="184" height="20"/>
		<g transform="translate(0 0)">
			<g class="st6">
				<path class="st7" d="M37.6-19.7h2.9v5.8c0.4-0.4,0.8-0.7,1.1-1l0.3,1c-0.7,0.7-1.4,1.3-2.2,1.9l-0.4-0.9
					c0.2-0.2,0.3-0.4,0.3-0.6v-5.2h-1.9L37.6-19.7L37.6-19.7z M39.3-23.8c0.9,0.7,1.6,1.4,2.2,2.1L40.8-21c-0.6-0.7-1.3-1.4-2.2-2.1
					L39.3-23.8z M49.9-23.4v11c0,0.8-0.4,1.2-1.3,1.2h-1.3l-0.2-0.9c0.5,0,0.9,0,1.3,0c0.4,0,0.6-0.2,0.6-0.7v-9.7h-5.7v6.8
					c0,1.9-0.5,3.4-1.3,4.6l-0.7-0.7c0.7-1,1.1-2.3,1.1-3.9v-7.7H49.9z M44-20.8h1.6v-1.1h1v1.1h1.6v0.8h-1.6v1.3h1.9v0.8h-4.6v-0.8
					h1.8V-20H44V-20.8z M44.2-16.8h3.7v3.6h-3.7V-16.8z M47.1-14.1V-16h-2v1.9H47.1z"/>
				<path class="st7" d="M51.6-19.7h2.9v6.2c0.3-0.3,0.8-0.8,1.3-1.3l0.3,1.1c-0.8,0.8-1.6,1.6-2.5,2.2l-0.4-1
					c0.2-0.2,0.3-0.4,0.3-0.6v-5.6h-2L51.6-19.7L51.6-19.7z M53.3-23.8c0.9,0.7,1.6,1.4,2.3,2.2l-0.7,0.7c-0.6-0.7-1.3-1.4-2.3-2.2
					L53.3-23.8z M61.6-12.4c-0.4-0.8-0.7-2-0.9-3.4c-0.1-1.2-0.3-2.7-0.3-4.6H56v-1h4.4c0-0.5,0-1.4,0-2.6h1c0,1.2,0,2,0,2.6h2.8v1
					h-2.8c0.1,2.4,0.2,4.2,0.4,5.6c0.3,1.6,0.7,2.4,1.1,2.5c0.3-0.1,0.6-0.9,0.9-2.6l0.8,0.6c-0.5,2-1,3-1.7,3
					C62.4-11.3,62-11.7,61.6-12.4z M57.6-17.3h-1.3v-0.9h3.6v0.9h-1.3v3.8c0.7-0.1,1.3-0.3,1.8-0.5v0.9c-1.2,0.3-2.5,0.6-3.9,0.9
					l-0.3-1c0.5-0.1,0.9-0.1,1.4-0.2V-17.3z M62.5-24c0.6,0.7,1.1,1.2,1.4,1.8l-0.7,0.5c-0.3-0.5-0.8-1.1-1.4-1.8L62.5-24z"/>
				<path class="st7" d="M67.9-15.7c-0.2,1.8-0.7,3.3-1.6,4.5l-0.8-0.7c0.9-1.3,1.4-2.8,1.4-4.7v-6.8h10.4v10.5c0,1-0.5,1.5-1.5,1.5
					h-1.6l-0.3-1c0.7,0,1.3,0.1,1.6,0.1c0.5,0,0.8-0.3,0.8-0.9v-2.4h-3.8v4.1h-1v-4.1h-3.6V-15.7z M71.5-22.4H68v2.4h3.6L71.5-22.4
					L71.5-22.4z M68-19.1v2.5h3.6v-2.5H68z M76.4-20v-2.4h-3.8v2.4H76.4z M76.4-16.6v-2.5h-3.8v2.5H76.4z"/>
				<path class="st7" d="M82.2-17.5c-0.1,2.5-0.7,4.7-2,6.5l-0.7-0.7c1.1-1.6,1.7-3.6,1.7-6.1v-4.4h4.6c-0.3-0.6-0.5-1.2-0.8-1.6
					l1-0.2c0.3,0.5,0.5,1.1,0.8,1.8h4.4v4.7H82.2z M90.2-21.2h-8v2.7h8V-21.2z"/>
				<path class="st7" d="M96.5-18.7v0.1c-0.1,3.1-0.8,5.6-2.1,7.4l-0.7-0.7c1.1-1.6,1.8-3.9,1.8-6.7v-4.3c3.5,0,6.7-0.3,9.5-0.9
					l0.5,0.9c-2.7,0.5-5.6,0.8-8.9,0.9v2.4h8.4v0.9c-0.5,1.8-1.5,3.3-2.9,4.6c1.2,0.8,2.7,1.6,4.4,2.2L106-11
					c-1.8-0.7-3.3-1.5-4.5-2.5c-1.3,1-2.9,1.8-4.8,2.5L96-11.9c1.8-0.6,3.3-1.4,4.5-2.3c-1.5-1.3-2.5-2.8-3-4.5H96.5z M103.9-18.7
					h-5.5c0.5,1.5,1.4,2.8,2.8,3.9C102.5-15.9,103.4-17.2,103.9-18.7z"/>
				<path class="st7" d="M109.6-20.6c-0.4,1.1-0.9,2.1-1.5,2.9l-0.6-0.8c0.9-1.3,1.6-3.1,1.9-5.3l1,0.2c-0.1,0.7-0.3,1.5-0.5,2.1
					h2.6v0.8c-0.4,0.9-0.8,1.6-1.2,2.1l-0.7-0.6c0.3-0.4,0.6-0.9,0.9-1.4H109.6z M109.5-18.8h1v6.1c0.6-0.3,1.2-0.8,1.8-1.3l0.2,0.9
					c-0.8,0.7-1.8,1.2-2.8,1.7l-0.4-0.9c0.2-0.1,0.3-0.3,0.3-0.6L109.5-18.8L109.5-18.8z M115.8-16.4h1v1.4c0,1.1-0.4,1.9-1,2.6
					c-0.6,0.6-1.6,1.1-3.1,1.4l-0.5-0.9c1.3-0.3,2.3-0.7,2.9-1.1c0.5-0.5,0.8-1.2,0.8-2v-1.4H115.8z M113.2-23.2h2.6V-24h1v0.8h2.6
					v2.7h-2.6v1h3.4v0.9h-7.8v-0.9h3.4v-0.9h-2.6V-23.2z M119.3-17.7v4.2h-0.9v-3.4h-4.2v3.3h-0.9v-4.1H119.3z M115.9-21.2v-1.2
					h-1.7v1.1L115.9-21.2L115.9-21.2z M117.3-13.5c1.1,0.4,2.1,1,3,1.6l-0.5,0.8c-1-0.7-2-1.3-3-1.7L117.3-13.5z M118.6-21.2v-1.2
					h-1.8v1.1L118.6-21.2L118.6-21.2z"/>
				<path class="st7" d="M126.7-21.5v9.5h-1v-0.8h-2.5v1.2h-1v-9.9h1.3c0.3-0.8,0.5-1.6,0.6-2.4l1,0.1c-0.2,0.9-0.4,1.7-0.7,2.3
					H126.7z M123.1-17.7h2.5v-2.9h-2.5C123.1-20.6,123.1-17.7,123.1-17.7z M123.1-13.7h2.5v-3.1h-2.5
					C123.1-16.8,123.1-13.7,123.1-13.7z M133.9-21.5c0,4.7-0.1,7.5-0.2,8.6c-0.1,1.1-0.8,1.6-2,1.6l-1.4-0.1l-0.2-0.9
					c0.6,0,1.1,0,1.5,0c0.7,0,1-0.4,1.1-1.1c0.1-0.8,0.1-3.2,0.2-7.2H129c-0.4,0.9-0.9,1.7-1.4,2.4l-0.6-0.7c1-1.4,1.6-3,2-5l1,0.1
					c-0.2,0.9-0.4,1.7-0.6,2.3H133.9z M129.1-18.3c1,1.1,1.7,2.1,2.3,3.1l-0.8,0.6c-0.6-0.9-1.3-2-2.3-3.1L129.1-18.3z"/>
				<path class="st7" d="M137-20c-0.1,0.7-0.3,1.4-0.5,2.1l-0.9-0.3c0.5-1.4,0.7-3,0.8-4.6l0.9,0.1c0,0.7-0.1,1.3-0.1,1.8h1.2v-3h1
					v2.9h1.2v1h-1.2v3.3c0.5-0.2,0.9-0.4,1.3-0.5v1c-0.4,0.2-0.8,0.3-1.3,0.5v4.6h-1v-4.3c-0.8,0.3-1.6,0.5-2.5,0.7l-0.2-1
					c1-0.2,1.9-0.4,2.7-0.7V-20H137z M144.1-23.9h1v1.5h2.6v0.9h-2.6v1.7h3.2v1h-7.4v-1h3.2v-1.7h-2.5v-0.9h2.5V-23.9z M141.2-17.2
					h4.4v-1h1v1h1.6v1h-1.6v3.7c0,0.8-0.4,1.3-1.2,1.3h-1.7l-0.2-1c0.7,0,1.2,0.1,1.5,0.1c0.4,0,0.5-0.2,0.5-0.6v-3.5h-4.4
					L141.2-17.2L141.2-17.2z M142.3-15.6c0.7,0.8,1.3,1.6,1.6,2.2l-0.8,0.6c-0.4-0.7-1-1.5-1.6-2.2L142.3-15.6z"/>
				<path class="st7" d="M151.9-19.8h8.2v1h-3.6v2.5h4.2v1h-4.2v2.8c1,0.1,2.2,0.2,3.6,0.2c0.7,0,1.4,0,2.2-0.1l-0.2,1h-1.6
					c-2.8,0-4.8-0.3-6.1-0.8c-0.9-0.4-1.7-1.1-2.3-2c-0.5,1.2-1.2,2.2-2,3l-0.6-0.8c1.3-1.4,2.2-3.3,2.7-5.8l1,0.2
					c-0.2,0.8-0.4,1.6-0.6,2.4c0.7,1.2,1.5,2,2.5,2.3l0.4,0.1v-6h-3.7v-1H151.9z M161.7-22.5v3h-1v-2.1h-9.5v2.1h-1v-3h5.3
					c-0.2-0.5-0.4-0.9-0.7-1.4l1.1-0.2c0.3,0.5,0.5,1,0.6,1.6H161.7z"/>
				<path class="st7" d="M163.8-21.2h2.1v-2.7h1v2.7h1.7v1h-1.7v0.7c0.7,0.7,1.3,1.4,2,2.2l-0.6,0.9c-0.5-0.9-1-1.6-1.4-2.1v7.4h-1
					v-7.2c-0.5,1.4-1.1,2.6-1.9,3.8l-0.4-1.1c1.1-1.4,1.9-2.9,2.3-4.7h-2v-0.9H163.8z M168-11.8c0.6-0.9,1-1.8,1.3-2.8
					c0.2-0.9,0.3-2,0.3-3.4v-5.3h4.5v10.6c0,0.3,0.1,0.4,0.3,0.4h0.5c0.2,0,0.3,0,0.4-0.1c0.1-0.1,0.2-0.2,0.2-0.4
					c0.1-0.3,0.1-1.1,0.1-2.4l0.9,0.3c0,0.9,0,1.7-0.1,2.3c-0.1,0.5-0.2,0.8-0.4,1s-0.6,0.2-1,0.2h-0.6c-0.9,0-1.3-0.4-1.3-1.2v-9.8
					h-2.5v4.4c0,1.5-0.1,2.8-0.4,3.9c-0.2,1.1-0.7,2.1-1.3,3.1L168-11.8z"/>
				<path class="st7" d="M178.6-14.9h4.9v-1.2h1v1.2h4.8v0.9h-4.8v1.6h5.6v0.9h-12.3v-0.9h5.7V-14h-4.9V-14.9z M178.3-23.3h6.6v0.9
					h-1.4v2.1h1.7v0.9h-1.7v3.1h-1v-3.1h-1.8c-0.2,1.4-0.7,2.5-1.6,3.2l-0.8-0.7c0.8-0.6,1.2-1.5,1.4-2.6H178v-0.8h1.8v-2.1h-1.4
					v-0.9H178.3z M180.7-22.4v2.1h1.8v-2.1H180.7z M186-23h1v4.8h-1V-23z M186.5-16.2l-0.2-1c0.7,0,1.3,0.1,1.8,0.1
					c0.3,0,0.5-0.2,0.5-0.6v-6.1h1v6.3c0,0.8-0.4,1.2-1.1,1.2L186.5-16.2L186.5-16.2z"/>
				<path class="st7" d="M192.3-21.6h1v10.5h-1V-21.6z M194.4-24c0.7,0.8,1.3,1.7,1.7,2.5l-0.9,0.5c-0.5-0.9-1.1-1.8-1.8-2.6
					L194.4-24z M195.5-19.6h5v5.3h-5V-19.6z M199.5-15.3v-3.3h-3v3.3H199.5z M200.6-11.2l-0.3-0.9h1.5c0.5,0,0.8-0.3,0.8-0.9v-9.1
					h-5.4v-1h6.5v10.4c0,1-0.5,1.6-1.6,1.6L200.6-11.2L200.6-11.2z"/>
				<path class="st7" d="M218.4-12.3l-0.2,1h-2.8c-3.4,0-5.4-0.2-6.3-0.5c-0.7-0.3-1.4-0.9-2-1.7c-0.3,0.9-0.6,1.7-1,2.5l-0.7-0.6
					c0.7-1.3,1.2-2.7,1.2-4.3l0.9,0.1c0,0.5-0.1,0.9-0.1,1.3c0.4,0.6,0.8,1,1.2,1.3v-3.4h-2.8v-1h5.9v0.9h-2.3v1.5h1.9v0.9h-1.9v1.5
					c0.1,0,0.2,0.1,0.2,0.1c0.8,0.3,2.7,0.4,5.5,0.4C216.5-12.3,217.5-12.3,218.4-12.3z M206.5-23.4h4.8v4.9h-4.8V-23.4z
					 M207.5-21.3h2.8v-1.3h-2.8V-21.3z M210.3-19.3v-1.2h-2.8v1.2H210.3z M214.6-19.8h0.9v2c0,1.3-0.3,2.4-0.8,3.2
					c-0.5,0.7-1.2,1.3-2.3,1.7l-0.5-0.9c1-0.4,1.7-0.9,2.1-1.5c0.4-0.7,0.6-1.5,0.6-2.6V-19.8z M212-23.4h6v0.9h-2.5
					c0,0.4-0.1,0.8-0.2,1.1h2.3v5.7h-0.9v-4.8h-3.4v4.8h-0.9v-5.6h2c0.1-0.3,0.1-0.7,0.2-1.1H212V-23.4z M216.1-15.6
					c0.9,0.7,1.6,1.3,2.2,2l-0.7,0.7c-0.5-0.7-1.3-1.4-2.1-2.1L216.1-15.6z"/>
			</g>
		</g>
	</g>
</g>
<g id="assistantgroup" transform="translate(0,0)">
</g>
</svg>
