<?xml version="1.0" encoding="utf-8"?>
<!-- Generator: Adobe Illustrator 21.0.2, SVG Export Plug-In . SVG Version: 6.00 Build 0)  -->
<svg version="1.1" id="svgwrapper_svg" xmlns="http://www.w3.org/2000/svg" xmlns:xlink="http://www.w3.org/1999/xlink" x="0px"
	 y="0px" viewBox="0 0 830 460" style="enable-background:new 0 0 830 460;" xml:space="preserve">
<style type="text/css">
	.st0{fill:#CEE3FF;}
	.st1{fill:none;stroke:#BABABA;stroke-dasharray:5;}
	.st2{fill:none;stroke:#888888;}
	.st3{fill:#888888;}
	.st4{fill:none;stroke:#FF0000;stroke-width:15;stroke-opacity:0;}
	.st5{opacity:0.6;fill:#BBBBBB;enable-background:new    ;}
	.st6{fill:#FFFFFF;stroke:#E5E5E5;}
	.st7{fill:#444444;}
	.st8{fill:#878787;}
	.st9{fill:#00A4FF;}
	.st10{fill:#FFFFFF;}
	.st11{fill:#E5E5E5;}
	.st12{opacity:0.6;}
	.st13{fill:#BBBBBB;}
	.st14{fill:none;}
	.st15{fill:none;stroke:#878787;stroke-miterlimit:10;}
</style>
<title>云API场景图_2</title>
<g id="BlueRectGroup17">
	<rect x="371.4" y="19.7" class="st0" width="444.4" height="92.8"/>
</g>
<g id="DashRectGroup5">
	<path class="st1" d="M105.4,0.5h724v459h-724L105.4,0.5"/>
</g>
<g id="Link30">
	<path class="st2" d="M116.8,229.3H93.2"/>
	<polygon class="st3" points="112.2,233.8 118.2,229.3 112.2,224.8 	"/>
	<path class="st4" d="M116.8,229.3H93.2"/>
</g>
<g id="Link30-2">
	<path class="st2" d="M230.1,229.3h-19.5"/>
	<polygon class="st3" points="225.6,233.8 231.6,229.3 225.6,224.8 	"/>
	<path class="st4" d="M230.1,229.3h-19.5"/>
</g>
<path class="st2" d="M348,229.3h-11.3"/>
<polygon class="st3" points="359.5,179.8 365.5,175.3 359.5,170.8 "/>
<polygon class="st3" points="359.5,290.4 365.5,285.9 359.5,281.4 "/>
<polygon class="st3" points="359.5,403 365.5,398.5 359.5,394 "/>
<polygon class="st3" points="359.5,70.6 365.5,66.1 359.5,61.6 "/>
<path class="st4" d="M348,229.3h-11.3"/>
<rect x="238.2" y="200.3" class="st5" width="98.8" height="60"/>
<rect x="236.2" y="198.3" class="st6" width="98.8" height="60"/>
<path class="st7" d="M283.5,225.8h-1.3V225h-7v0.8H274v-11.4h3c0.3-0.5,0.5-1,0.6-1.6l1.4,0.2c-0.1,0.5-0.3,1-0.6,1.4h5.2
	L283.5,225.8z M282.2,217.5v-1.8h-7v1.8H282.2z M282.2,220.6v-1.9h-7v1.8L282.2,220.6z M282.2,223.8v-2h-7v2H282.2z"/>
<path class="st7" d="M293,212.9c-0.1,0.3-0.2,0.7-0.4,1h4v5.9c0.6-0.6,1-1.4,1.3-2.2l1.1,0.7c-0.6,1.2-1.5,2.3-2.5,3.2v2.9
	c0,0.9-0.4,1.3-1.2,1.3h-1.5l-0.4-1.3l1.4,0.1c0.2,0,0.4-0.1,0.4-0.3c0,0,0,0,0-0.1v-1.5l-0.7,0.5c-2.2,1.2-4.6,2.1-7.1,2.4
	l-0.6-1.2c2.7-0.3,5.3-1.2,7.6-2.6h-7.7v-1.3h1.6v-6.6h2.8c0.2-0.4,0.3-0.8,0.4-1.2L293,212.9z M295.3,216.2v-1.1h-5.6v1.1H295.3z
	 M295.3,218.3v-1h-5.6v1H295.3z M295.3,220.5v-1.1h-5.6v1.1H295.3z"/>
<path class="st7" d="M313,219.4v1.1h-5.8l-0.4,0.8h5.4v3.1c0.1,0.6-0.4,1.2-1,1.3c0,0,0,0,0,0h-1.3l-0.3-1.1l0.9,0.1
	c0.3,0,0.5-0.2,0.5-0.4c0,0,0,0,0-0.1v-1.7h-1.9v3.1h-1.3v-3.1h-1.7v3.1h-1.3v-3.1H303v3.4h-1.3v-4.5h3.8l0.4-0.8h-5.3v-1.1
	L313,219.4z M312.2,213.3v1.1h-4.8v0.6h5.4v3h-1.3v-2h-4.1v3h-1.3v-3H302v2h-1.2v-3h5.4v-0.6h-4.8v-1.1H312.2z M305.6,216.6v0.8
	h-2.9v-0.8H305.6z M305.6,218v0.9h-2.9V218L305.6,218z M310.9,216.6v0.8H308v-0.8H310.9z M310.9,218v0.9h-3V218L310.9,218z"/>
<path class="st7" d="M320.1,215.3v-2.5h1.3v2.5h2.7c-0.5-0.6-1.1-1.1-1.7-1.6l0.9-0.8c0.7,0.5,1.4,1.1,2,1.7l-0.7,0.7h2.1v1.3h-5.2
	v0.8c0.3,0.7,0.7,1.4,1.2,2.1c0.9-0.7,1.7-1.5,2.4-2.5l1,0.9c-0.8,1-1.7,1.8-2.7,2.5c1.1,1.3,2.4,2.4,3.8,3.2l-0.9,1.1
	c-2-1.4-3.6-3.2-4.8-5.3v4.9c0.1,0.7-0.3,1.3-1,1.4h-2.2l-0.3-1.3c0.6,0.1,1.2,0.1,1.8,0.1c0.3,0,0.5-0.2,0.5-0.6v-3.3
	c-1.4,1.7-3,3.1-4.9,4.2l-0.7-1.2c2.1-1.2,4-2.7,5.6-4.6v-2.5h-5.6v-1.3L320.1,215.3z M318.6,219.8l-0.9,0.9
	c-0.7-0.9-1.5-1.7-2.3-2.5l0.9-0.9C317.1,218.1,317.9,218.9,318.6,219.8z"/>
<path class="st7" d="M258.4,229.6c1.5,2.2,3.6,3.9,6,5l-0.8,1.2c-2.3-1.1-4.3-2.8-5.8-5c-1.5,2.1-3.5,3.8-5.8,5l-0.8-1.2
	c2.4-1.1,4.5-2.8,6-5H258.4z M258.5,233.8v8.7h-1.3v-8.7H258.5z"/>
<path class="st7" d="M266.8,232.5c0,1.3-0.2,2.7-0.5,4l-1.1-0.3c0.3-1.2,0.5-2.5,0.5-3.8L266.8,232.5z M268.5,229.7v12.8h-1.4v-12.8
	H268.5z M270.1,234c0.4-1.1,0.6-2.2,0.6-3.4l1.2,0.2c0,0.5-0.1,1-0.1,1.5h1.6v-2.5h1.3v2.5h2.9v1.2h-2.9v3.1h2.8v1.3h-2.8v3h3.2v1.3
	h-8.5v-1.3h3.9v-3h-3.1v-1.3h3.1v-3.1h-1.9c-0.2,1-0.6,1.9-1.1,2.7l-1-0.9l0.3-0.6l-0.6,0.1c-0.2-0.8-0.4-1.7-0.7-2.5l1-0.3
	C269.7,232.7,269.9,233.3,270.1,234L270.1,234z"/>
<path class="st7" d="M284.6,230.1c-0.5,1.2-1.1,2.3-1.9,3.3v9.2h-1.3v-7.7c-0.6,0.6-1.2,1.2-1.9,1.7l-0.4-1.4
	c1.8-1.6,3.3-3.5,4.2-5.7L284.6,230.1z M287.4,242.4c-0.8,0.1-1.6-0.5-1.7-1.3v-4.3c-0.5,0.3-1,0.5-1.5,0.8l-0.6-1.3
	c0.7-0.3,1.4-0.7,2.1-1.1v-5.4h1.3v4.6c1.3-0.9,2.5-1.9,3.6-3.1l0.9,1c-1.4,1.4-2.9,2.6-4.5,3.7v4.6c0,0.4,0.2,0.6,0.7,0.6h2.1
	c0.3,0,0.5-0.1,0.7-0.3c0.2-0.7,0.3-1.5,0.3-2.2l1.2,0.4c0,1-0.1,2-0.5,2.9c-0.4,0.4-0.9,0.6-1.5,0.5L287.4,242.4z"/>
<path class="st7" d="M297.1,230.1c-0.6,1.4-1.3,2.7-2.1,4c0.5-0.1,1.1-0.1,1.6-0.2l0.9-1.6l1.2,0.4c-0.9,1.7-1.9,3.3-3.1,4.8
	c1-0.2,1.9-0.5,2.8-0.9v1.2c-1.5,0.5-3,0.9-4.5,1.2l-0.4-1.2c0.2-0.1,0.4-0.2,0.6-0.4c0.7-0.7,1.2-1.5,1.7-2.4l-2.2,0.3l-0.3-1.2
	c0.2-0.1,0.4-0.3,0.6-0.5c0.8-1.3,1.5-2.6,2-4L297.1,230.1z M298.4,240.4c-1.5,0.7-3,1.2-4.6,1.6l-0.2-1.3c1.7-0.3,3.3-0.8,4.8-1.5
	L298.4,240.4z M305.1,240.8h1.1v1.3H298v-1.3h1v-10.5h5.9v10.5H305.1z M303.8,233.7v-2.2h-3.3v2.2H303.8z M303.8,237.3V235h-3.3v2.3
	H303.8z M303.8,240.8v-2.3h-3.3v2.3H303.8z"/>
<path class="st7" d="M314.2,229.6c1.7,1.9,3.8,3.5,6.1,4.7l-0.7,1.3c-0.7-0.4-1.5-0.9-2.2-1.3v1H310v-1c-0.7,0.5-1.5,1-2.2,1.4
	l-0.7-1.3c2.3-1.2,4.4-2.8,6.1-4.7L314.2,229.6z M318.4,242.6h-1.3v-0.8h-6.5v0.8h-1.3v-5.8h9.1L318.4,242.6L318.4,242.6z M317,234
	c-1.2-0.9-2.3-2-3.3-3.1c-1,1.2-2.1,2.2-3.3,3.1H317z M317,240.6V238h-6.5v2.6H317z"/>
<g id="RectEndPoint13">
	<rect x="4.2" y="205.3" class="st5" width="90" height="50"/>
	<rect x="2.2" y="203.3" class="st6" width="90" height="50"/>
	<path class="st8" d="M24.2,217.5c2.2,0,4,1.8,4,4s-1.8,4-4,4s-4-1.8-4-4S22,217.5,24.2,217.5 M24.2,215.5c-3.3,0-6,2.7-6,6
		s2.7,6,6,6s6-2.7,6-6S27.6,215.5,24.2,215.5z"/>
	<path class="st8" d="M28.2,231.5c3.3,0,6,2.7,6,6v1h-20v-1c0-3.3,2.7-6,6-6H28.2 M28.2,229.5h-8c-4.4,0-8,3.6-8,8v3h24v-3
		C36.2,233.1,32.7,229.5,28.2,229.5z"/>
	<path class="st8" d="M37.2,229.5h-3c0.8,0.6,1.4,1.2,2,2h1c2.2,0,4,1.8,4,4v1h-3v2h5v-3C43.2,232.2,40.6,229.5,37.2,229.5
		L37.2,229.5z"/>
	<path class="st8" d="M33.2,216.5c-0.8,0-1.6,0.2-2.3,0.6c0.4,0.6,0.7,1.2,0.9,1.8c1.4-0.8,3.3-0.3,4.1,1.1c0.8,1.4,0.3,3.3-1.1,4.1
		l0,0c-0.9,0.5-2.1,0.5-3,0c-0.2,0.6-0.5,1.2-0.9,1.8c0.7,0.4,1.5,0.6,2.3,0.6c2.8,0,5-2.2,5-5S36,216.5,33.2,216.5L33.2,216.5z"/>
	<path class="st7" d="M55.8,234.7l-1-0.9c0.9-1.4,1.3-3,1.3-4.6v-6.9h10.8v10.6c0.1,0.8-0.4,1.5-1.1,1.6c0,0,0,0-0.1,0h-2l-0.3-1.3
		c0.5,0,1,0.1,1.5,0.1s0.7-0.3,0.7-0.8v-2.1H62v4h-1.3v-4h-3.3C57.2,231.9,56.6,233.4,55.8,234.7z M57.3,223.6v2.1h3.2v-2.1H57.3z
		 M57.3,229.1h3.2V227h-3.2V229.1z M65.3,223.6h-3.4v2.1h3.5L65.3,223.6z M65.3,226.9h-3.4v2.1h3.5L65.3,226.9z"/>
	<path class="st7" d="M69.7,234.9l-1-0.9c1.1-1.8,1.7-3.8,1.6-5.9v-4.5h4.5c-0.2-0.5-0.5-1-0.8-1.5l1.4-0.2c0.2,0.5,0.5,1.1,0.7,1.7
		h4.4v5h-9C71.5,230.8,70.9,233,69.7,234.9z M71.7,224.8v2.4h7.6v-2.4H71.7z"/>
</g>
<rect x="389.9" y="43.2" class="st5" width="118" height="50"/>
<rect x="387.9" y="41.2" class="st6" width="118" height="50"/>
<path class="st9" d="M413.9,79.2c-7.2,0-13-5.8-13-13c0-7.2,5.8-13,13-13c6.4,0,11.9,4.7,12.9,11h2c-1.1-8.2-8.7-14-16.9-12.9
	c-8.2,1.1-14,8.7-12.9,16.9c1.1,8.2,8.7,14,16.9,12.9c6.7-0.9,12-6.2,12.9-12.9h-2C425.7,74.5,420.3,79.2,413.9,79.2z M420.9,62.2
	l-7-4l-7,4v8l3.2,1.8c0.2-0.6,0.5-1.2,1-1.7l-2.2-1.3v-3.7l5,2.9l5-2.9V69l-4.1,2.4c-1-0.5-2.2-0.1-2.7,0.9S412,74.5,413,75
	c1,0.5,2.2,0.1,2.7-0.9c0.1-0.3,0.2-0.6,0.2-0.9v-0.1l5-2.9V62.2z M413.9,65.9l-4.7-2.7l4.7-2.7l4.7,2.7L413.9,65.9z"/>
<path class="st7" d="M453.2,64.3v1.3h-6.6c-0.8,1.9-1.9,3.6-3.2,5.2c2.3-0.1,4.6-0.4,6.9-0.7c-0.5-0.8-0.9-1.6-1.5-2.5l1.1-0.7
	c1.1,1.6,2.1,3.2,3,4.9l-1.2,0.8c-0.2-0.5-0.5-1-0.7-1.4c-2.8,0.4-5.9,0.7-9.2,0.9l-0.4-1.4c0.1,0,0.2-0.1,0.3-0.1
	c0.9-0.7,2-2.4,3.4-5.1h-4.6v-1.3h12.7L453.2,64.3z M452,60.4v1.3h-10.1v-1.3H452z"/>
<path class="st7" d="M455.5,72.7l-1-0.9c0.6-1.5,0.9-3.1,0.9-4.7v-6.9h4.4v11c0,1-0.4,1.4-1.3,1.4h-1.1l-0.3-1.2
	c0.4,0,0.7,0.1,1.1,0.1s0.5-0.2,0.5-0.8V68h-2C456.5,69.6,456.1,71.2,455.5,72.7z M458.5,61.4h-2v2.1h2V61.4z M456.5,66.7h2v-2h-2
	V66.7z M461.8,72.6h-1.2V60.2h5.9c0.1,1.2,0,2.4-0.2,3.6c-0.2,0.6-0.7,0.9-1.6,0.9h-1.2l-0.4-1.1h0.9c0.2,0,0.5,0,0.7-0.1
	c0.2-0.1,0.3-0.2,0.3-0.4c0.1-0.6,0.2-1.2,0.2-1.8h-3.4v4h4.7v1.1c-0.2,1.2-0.6,2.4-1.3,3.5c0.6,0.6,1.3,1.1,2,1.5l-0.6,1.1
	c-0.8-0.4-1.5-1-2.1-1.6c-0.6,0.6-1.3,1.2-2,1.6l-0.7-1L461.8,72.6z M461.8,71.5c0.7-0.4,1.3-0.9,1.9-1.5c-0.8-1.1-1.4-2.3-1.7-3.6
	h-0.2L461.8,71.5z M464.4,69c0.5-0.8,0.8-1.6,1-2.5h-2.2C463.5,67.4,463.9,68.3,464.4,69z"/>
<path class="st7" d="M473.9,59.8c-0.1,0.4-0.3,0.7-0.5,1h6v1.1c-0.9,1-1.9,1.8-3,2.5c1.6,0.6,3.3,1,5,1.1l-0.6,1.2
	c-2-0.2-4-0.8-5.9-1.6c-1.9,0.8-3.9,1.4-5.9,1.6l-0.6-1.3c1.7-0.2,3.4-0.6,5-1.2c-0.7-0.4-1.3-0.8-1.9-1.3c-0.5,0.4-1,0.8-1.6,1.1
	l-0.8-1.1c1.4-0.7,2.6-1.9,3.3-3.4L473.9,59.8z M475.1,66c0,0.5,0,0.9-0.1,1.4h4.8c0,2.4-0.2,3.9-0.6,4.4c-0.6,0.5-1.3,0.8-2.1,0.7
	c-0.6,0-1.1,0-1.7-0.1l-0.3-1.2l1.8,0.1c0.7,0,1.2-0.2,1.3-0.4c0.3-0.7,0.4-1.5,0.3-2.3h-3.8c-0.1,0.3-0.3,0.7-0.4,1
	c-0.7,1.3-2.3,2.3-4.9,3.1l-0.9-1.1c2.3-0.7,3.8-1.5,4.5-2.4l0.3-0.6h-3.9v-1.2h4.4c0.1-0.5,0.1-0.9,0.2-1.4H475.1z M477.4,62h-4.9
	l-0.1,0.1c0.8,0.6,1.6,1.1,2.4,1.6C475.8,63.3,476.7,62.7,477.4,62z"/>
<path class="st7" d="M494.1,60.2v3.6h-1.7c0.3,0.3,0.5,0.7,0.7,1.1h1.9v1.2h-3.5c1.1,0.8,2.4,1.4,3.7,1.7l-0.5,1.1l-0.8-0.3v4h-1.2
	V72h-2.3v0.6h-1.2V68h3.3c-1-0.5-1.9-1.1-2.6-1.9h-2.3c-0.8,0.8-1.7,1.5-2.7,1.9h3.1v4.6h-1.2V72h-2v0.6h-1.2v-4l-0.9,0.3l-0.6-1.1
	c1.3-0.3,2.6-0.9,3.7-1.7h-3.5v-1.2h4.7c0.2-0.3,0.4-0.7,0.6-1l1.3,0.1c-0.1,0.3-0.2,0.5-0.4,0.8h3.1c-0.2-0.3-0.3-0.5-0.5-0.8
	l1-0.3h-2.9v-3.6h4.9L494.1,60.2z M488.2,60.2v3.6h-4.5v-3.6H488.2z M487,61.3h-2.1v1.4h2.1V61.3z M487.2,71v-1.8h-2V71H487.2z
	 M492.9,71v-1.8h-2.3V71H492.9z M493,61.3h-2.2v1.4h2.2L493,61.3z"/>
<rect x="653.3" y="43.5" class="st5" width="145.4" height="49.8"/>
<rect x="651.5" y="41.2" class="st10" width="145" height="50"/>
<path class="st11" d="M797,91.7H651v-51h146V91.7z M652,90.7h144v-49H652V90.7z"/>
<g id="_编组_">
	<g id="_编组_2">
		<path id="_复合路径_" class="st9" d="M676,69.2h-0.6c-5.5,0-10-1.4-10-3v-6.3c2.2,1.4,5.8,2.3,10,2.3c3.5,0.1,6.9-0.6,10-2.2
			v4.5c0.7,0.2,1.4,0.5,2,0.8v-8.1c0-2.8-5.4-5-12-5s-12,2.2-12,5v18h2v-6.3c2,1.3,5.3,2.1,9.2,2.3c0.3-0.3,0.7-0.6,1.1-0.9
			C675.7,69.9,675.8,69.5,676,69.2z M675.4,54.2c5.5,0,10,1.3,10,3s-4.5,3-10,3s-10-1.4-10-3S670,54.2,675.4,54.2L675.4,54.2z
			 M665.4,75.2h-2c0,2.5,4.4,4.6,10.2,4.9c-0.5-0.6-0.8-1.3-1-2.1C668.5,77.7,665.5,76.6,665.4,75.2L665.4,75.2z M688.4,72.3
			L688.4,72.3c0-2.8-2.2-5-5-5c-2.8,0-5,2.2-5,4.9v0.1c-2.1,0.6-3.4,2.8-2.8,4.9c0.5,1.7,2,2.9,3.8,3h8c2.2,0,4-1.8,4-4
			C691.3,74.4,690.1,72.9,688.4,72.3L688.4,72.3z M687.4,78.2h-8c-1.1-0.1-2-1-1.9-2.1c0,0,0,0,0,0l0,0c0-0.9,0.6-1.6,1.4-1.9
			l1.5-0.4V72c0-1.7,1.3-3,3-3s3,1.3,3,3v1.8l1.6,0.4c1,0.3,1.7,1.3,1.4,2.4c0,0,0,0,0,0v0.1C689.1,77.6,688.4,78.2,687.4,78.2
			L687.4,78.2z"/>
	</g>
</g>
<path class="st7" d="M706.7,62.7l-0.9,0.4h2.9c0.5-0.9,1-1.8,1.3-2.8l1.3,0.3c-0.3,0.9-0.7,1.7-1.2,2.5h2.7v1.3h-4.6v0.4
	c0,0.6-0.1,1.3-0.2,1.9h5.6V68h-4.8c0.7,1.7,2.4,3,5.2,4l-0.8,1.3c-2.9-1.2-4.8-2.8-5.6-4.8c-0.2,0.6-0.5,1.2-0.9,1.8
	c-1.2,1.4-2.9,2.4-4.7,2.9l-0.7-1.2c1.7-0.4,3.3-1.3,4.4-2.7c0.3-0.4,0.5-0.8,0.7-1.3h-4.8v-1.3h5.2c0.1-0.6,0.2-1.3,0.2-1.9v-0.4
	h-4.6v-1.3h3c-0.4-0.8-0.9-1.5-1.5-2.2l1.2-0.6C705.7,61.1,706.2,61.9,706.7,62.7z"/>
<path class="st7" d="M719.7,69.9c-1,1.2-2.2,2.2-3.5,3l-0.8-1.1c1.3-0.7,2.4-1.7,3.4-2.8L719.7,69.9z M719.6,73.2l-0.3-1.3
	c0.5,0.1,0.9,0.1,1.4,0.1c0.2,0,0.4-0.1,0.5-0.3v-3.2c-1.3,0.1-2.8,0.2-4.3,0.2l-0.4-1.2c0.4,0,0.8-0.1,1.2-0.2
	c1.2-0.5,2.3-1.2,3.4-2c-1.1,0.1-2.3,0.2-3.6,0.2l-0.3-1.2c0.3,0,0.6-0.1,0.9-0.2c0.8-0.5,1.4-1,2-1.7c-1.1,0-2.3,0.1-3.5,0.1
	l-0.4-1.2c3.4,0.1,6.8-0.2,10.2-0.8l0.7,1.1c-1.7,0.4-3.5,0.6-5.3,0.7c-0.7,0.8-1.4,1.5-2.3,2.1l2.9-0.2c0.6-0.5,1.2-1,1.8-1.6
	l1.2,0.6c-1.8,1.6-3.7,3-5.8,4.3c2-0.1,3.6-0.3,5.1-0.4c-0.3-0.4-0.6-0.8-1-1.2l1-0.6c1,1.1,1.9,2.3,2.7,3.5l-1.1,0.7
	c-0.3-0.5-0.6-1-0.9-1.4l-3,0.3v3.5c0.1,0.7-0.3,1.3-1,1.4h-0.3L719.6,73.2z M727.9,72l-1,1c-1-1.2-2.2-2.2-3.4-3.1l0.9-0.9
	C725.6,69.9,726.8,70.9,727.9,72z"/>
<path class="st7" d="M735,69.2v-1h1.3v1h4.7v1.3h-4.7v1.3h5.4V73h-12.3v-1.3h5.6v-1.3h-4.8v-1.3L735,69.2L735,69.2z M736.6,60.9v1.2
	h-1.3v1.8h1.6v1.2h-1.6v3H734v-3h-1.6c-0.1,1.2-0.6,2.3-1.5,3.1l-1-0.9c0.7-0.6,1.1-1.3,1.2-2.2h-1.6v-1.2h1.7v-1.8h-1.3v-1.2
	L736.6,60.9z M732.5,63.9h1.5v-1.8h-1.5V63.9z M738.8,61.3v4.8h-1.3v-4.8H738.8z M738.2,68.2l-0.3-1.2c0.6,0.1,1.1,0.1,1.7,0.1
	c0.3,0,0.4-0.2,0.4-0.6v-5.9h1.3v6.2c0,1-0.4,1.5-1.3,1.5L738.2,68.2z"/>
<path class="st7" d="M747,67l-0.2,0.7h2.9v1.1c-0.3,0.8-0.7,1.6-1.3,2.2c0.6,0.2,1.2,0.5,1.7,0.8l-0.7,1c-0.6-0.4-1.3-0.7-2-1
	c-1.1,0.7-2.2,1.2-3.5,1.4l-0.6-1.1c0.9-0.2,1.8-0.6,2.7-1c-0.6-0.2-1.2-0.5-1.8-0.7c0.3-0.6,0.6-1.1,0.9-1.7h-1.5v-1.1h2
	c0.1-0.3,0.2-0.5,0.3-0.8L747,67z M746.2,62.9v-2.6h1.2v2.6h2.4v1.2h-2.4v0.1c0.7,0.3,1.5,0.7,2.3,1.1l-0.7,1.1
	c-0.5-0.4-1-0.8-1.6-1.2v1.6h-1.2v-2.4c-0.5,1.1-1.3,2-2.3,2.7l-0.7-1.1c0.8-0.5,1.5-1.1,2.1-1.8h-1.8V63L746.2,62.9L746.2,62.9z
	 M745.6,62.3l-1,0.4c-0.2-0.6-0.5-1.2-0.8-1.8l1-0.3C745.2,61.1,745.4,61.7,745.6,62.3z M748.5,68.8h-2.2c-0.2,0.4-0.4,0.7-0.6,1.1
	c0.5,0.2,1,0.3,1.4,0.5C747.7,70,748.1,69.4,748.5,68.8L748.5,68.8z M749.8,61c-0.3,0.6-0.7,1.2-1.1,1.8l-0.9-0.5
	c0.4-0.6,0.7-1.2,1-1.8L749.8,61z M751.2,66.2c-0.2,0.5-0.4,1-0.7,1.4l-0.8-1c0.9-2,1.4-4.1,1.6-6.2l1.3,0.2l-0.3,1.8h3.5v1.3H755
	c0,2-0.4,4-1.2,5.8c0.6,1.1,1.5,2,2.5,2.7l-0.7,1.1c-1-0.7-1.8-1.6-2.4-2.6c-0.7,1-1.5,1.9-2.5,2.6l-0.7-1.1c1-0.7,1.9-1.6,2.5-2.7
	C751.9,68.5,751.5,67.3,751.2,66.2L751.2,66.2z M751.8,64.3c0.3,1.3,0.7,2.6,1.2,3.8c0.5-1.5,0.7-3,0.8-4.5H752L751.8,64.3z"/>
<path class="st7" d="M757.8,73.2l-0.3-1.3c0.3,0.1,0.7,0.1,1,0.1c0.3,0,0.5-0.2,0.5-0.6v-3l-1.5,0.5l-0.3-1.3
	c0.6-0.1,1.2-0.3,1.8-0.5v-2.9h-1.6v-1.3h1.6v-2.5h1.3v2.5h1.2v1.3h-1.2v2.4l1.2-0.6v1.3l-1.2,0.6v3.9c0.1,0.7-0.4,1.3-1.1,1.4
	c-0.1,0-0.2,0-0.2,0L757.8,73.2z M761.7,73.3l-1-0.9c1-2.2,1.5-4.6,1.4-7v-4.6h7.6v3.6h-2.5v1.4h2.9V67h-2.9v1.4h2.3v4.8h-1.2v-0.6
	h-3.5v0.6h-1.2v-4.8h2.2V67h-2.5C763.1,69.2,762.6,71.3,761.7,73.3z M763.4,64.4v1.4h2.4v-1.4L763.4,64.4z M763.4,62v1.2h5V62
	L763.4,62z M768.1,71.5v-1.8h-3.3v1.8L768.1,71.5z"/>
<path class="st7" d="M779,61.5h5v1.3h-10.3v3c0.1,2.6-0.4,5.1-1.4,7.5l-1.1-1c0.8-2.1,1.2-4.3,1.1-6.5v-4.3h5.2
	c-0.2-0.3-0.4-0.7-0.6-1l1.5-0.2L779,61.5z M778.3,63.3l-0.3,0.9h5.3v1.2h-5.7c-0.3,0.7-0.7,1.4-1.1,2.1h2.2V66h1.3v1.5h3v1.2h-3V70
	h4v1.2h-4v2.1h-1.3v-2.1h-4.9V70h4.9v-1.3h-3.5l-0.3-1.2c0.5-0.7,1-1.4,1.3-2.2h-1.9v-1.1h2.4c0.1-0.4,0.3-0.8,0.4-1.2L778.3,63.3z"
	/>
<g id="ShadowBasicRect22">
	<rect x="122.8" y="205.3" class="st5" width="88" height="50"/>
	<rect x="120.8" y="203.3" class="st6" width="88" height="50"/>
	<path class="st7" d="M178.4,223.3l3.9,10h-1.6l-0.9-2.6h-4.3l-0.9,2.6H173l3.9-10H178.4z M179.2,229.5l-1.6-4.5h-0.1l-1.7,4.5
		H179.2z"/>
	<path class="st7" d="M187.4,223.3c2.4,0,3.6,1,3.6,3s-1.2,3.1-3.6,3.1h-2.7v3.9h-1.5v-10H187.4z M184.8,228.1h2.5
		c0.6,0,1.1-0.1,1.6-0.4c0.7-0.7,0.7-1.9,0-2.6c-0.5-0.3-1-0.5-1.6-0.4h-2.5V228.1z"/>
	<path class="st7" d="M193.9,223.3v10h-1.5v-10H193.9z"/>
</g>
<path class="st9" d="M162.2,226.1c-1.1-8.2-8.7-13.9-16.9-12.8s-13.9,8.7-12.8,16.9c0.9,6.7,6.2,11.9,12.8,12.8v-2
	c-7.1-1.1-11.9-7.8-10.8-14.8s7.8-11.9,14.8-10.8s11.9,7.8,10.8,14.8c-0.9,5.6-5.3,10-10.8,10.8v2c8.2-1,14-8.5,12.9-16.6
	C162.3,226.3,162.3,226.2,162.2,226.1z"/>
<path class="st9" d="M143.4,224.1h-2c-1.1,0-2,0.9-2,2v6h2v-2h2v2h2v-6C145.4,225,144.5,224.2,143.4,224.1z M141.4,228.1v-2h2v2
	H141.4z"/>
<rect x="153.4" y="224.1" class="st9" width="2" height="8"/>
<path class="st9" d="M150.4,224.1h-4v8h2v-2h2c1.1,0,2-0.9,2-2v-2C152.4,225,151.5,224.1,150.4,224.1z M150.4,228.1h-2v-2h2V228.1z"
	/>
<rect x="522" y="42.8" class="st5" width="117.8" height="49.8"/>
<rect x="519.8" y="40.7" class="st6" width="118" height="50"/>
<path class="st7" d="M583.5,63.5v6.4h-1v-5.4h-6.9V70h-1v-6.1c-0.4,0.3-0.9,0.6-1.3,0.9l-0.6-0.8c1.7-1,3.1-2.4,4.2-4.1l1,0.2
	c-0.2,0.4-0.5,0.7-0.6,1h4.6v0.7c-0.4,0.6-0.9,1.2-1.5,1.7L583.5,63.5z M578.6,65.2h1v1.9c0,1.4-0.5,2.7-1.5,3.6
	c-1.3,1-2.8,1.7-4.4,1.9l-0.5-0.9c1.5-0.2,3-0.8,4.2-1.8c0.7-0.8,1.2-1.8,1.2-2.9V65.2z M579.3,63.5c0.5-0.5,1-1,1.4-1.5h-4.1
	c-0.4,0.5-1,1.1-1.5,1.5H579.3z M579.9,69.5c1.8,0.6,3.5,1.4,5.1,2.4l-0.6,0.9c-1.5-1-3.2-1.9-5-2.5L579.9,69.5z"/>
<path class="st7" d="M587.5,61h2.7v-1.2h1V61h2.5v0.9h-2.5v1.3h3.4c-0.1-1.1-0.1-2.2-0.1-3.4h1c0,1.3,0,2.4,0.1,3.4h3.5v0.9h-3.5
	c0.1,1,0.2,2.1,0.4,3.1c0.1,0.4,0.2,0.7,0.3,1.1c0.5-1.1,0.9-2.3,1.2-3.5l0.9,0.4c-0.3,1.5-0.9,3-1.7,4.4c0.1,0.3,0.2,0.6,0.4,0.9
	c0.4,0.7,0.7,1,0.9,1s0.4-0.8,0.6-2.2l0.9,0.5c-0.3,1.9-0.8,2.8-1.3,2.8s-1-0.4-1.5-1.3c-0.2-0.2-0.3-0.5-0.4-0.8
	c-0.7,0.9-1.5,1.7-2.5,2.2l-0.5-0.8c1-0.6,1.9-1.4,2.6-2.4c-0.2-0.7-0.4-1.3-0.5-2c-0.2-1.1-0.4-2.2-0.4-3.3h-7.9v-1h3.5v-1.3h-2.7
	V61H587.5z M593.7,70.7c-0.4,0.1-0.7,0.1-1.1,0.1l-1.1,0.1v1.7h-1V71c-0.8,0.1-1.9,0.2-3.2,0.3l-0.1-0.9c1-0.1,2.1-0.1,3.3-0.2V69
	h-2.7l-0.2-0.8c0.4-0.6,0.8-1.2,1.1-1.8h-1.5v-0.9h1.8c0.1-0.2,0.2-0.6,0.4-1.1l1,0.2l-0.3,0.9h3.7v0.9h-4.1c-0.3,0.6-0.6,1.2-1,1.7
	h1.8V67h1v1.1h2.1V69h-2.1v1.1l2.2-0.3L593.7,70.7L593.7,70.7z M596.9,60c0.6,0.6,1.1,1.3,1.6,2.1l-0.8,0.5c-0.5-0.7-1-1.4-1.6-2.1
	L596.9,60z"/>
<path class="st7" d="M600.5,63.6h1.5v-3.7h1v3.7h1.4v1H603v4.7c0.7-0.2,1.4-0.4,2-0.7v1c-1.4,0.6-2.9,1-4.4,1.3l-0.3-1.1
	c0.6-0.1,1.2-0.2,1.7-0.3v-5h-1.5L600.5,63.6z M608.2,59.9l-0.6,2.1h5.1c0.1,3,0,5.9-0.3,8.9c-0.1,1-1,1.8-2,1.7h-0.1l-1.9-0.1
	l-0.3-1c1,0,1.7,0.1,2,0.1c0.7,0,1.2-0.4,1.3-1.1c0.1-0.8,0.2-3.3,0.2-7.6H607c-0.5,1-1.1,1.9-1.8,2.7l-0.7-0.9
	c1.2-1.5,2.1-3.2,2.4-5.1L608.2,59.9z M610.7,68.3c-1.4,0.9-2.9,1.7-4.5,2.2l-0.4-1c1.6-0.5,3.2-1.3,4.6-2.2L610.7,68.3z
	 M607.6,64.4c0.8,0.6,1.5,1.2,2.2,1.9l-0.7,0.7c-0.7-0.7-1.4-1.4-2.2-2L607.6,64.4z"/>
<path class="st7" d="M617.8,64c-0.3,0.7-0.6,1.3-1,1.9v6.9h-0.9v-5.7c-0.4,0.4-0.8,0.8-1.3,1.2l-0.3-0.9c1.2-1,2.1-2.3,2.7-3.7
	L617.8,64z M617.6,60.3c-0.7,1.5-1.7,2.9-3,4l-0.3-1c1.1-0.9,1.9-2.1,2.4-3.4L617.6,60.3z M618.2,63.1L618.2,63.1l-0.7-0.6
	c1-0.7,1.9-1.7,2.5-2.8l1,0.2c-0.1,0.3-0.3,0.6-0.5,0.8h2.2v0.7c-0.3,0.4-0.6,0.9-0.9,1.3h1.6v5h-2.1c0,0.3,0,0.7-0.1,1h2.8v0.9h-3
	l-0.1,0.2c0.9,0.5,1.8,1,2.6,1.7l-0.5,0.8c-0.7-0.7-1.5-1.3-2.4-1.8c-0.5,0.9-1.3,1.6-2.3,2l-0.6-0.7c0.9-0.4,1.7-1.1,2.2-2l0.1-0.2
	h-2.2v-0.9h2.4c0-0.3,0.1-0.6,0.1-1h-2.1L618.2,63.1L618.2,63.1z M620.7,62.8c0.3-0.4,0.6-0.7,0.9-1.1h-1.8
	c-0.3,0.4-0.7,0.8-1.1,1.1H620.7z M619,64.9h1.3v-1.4H619V64.9z M620.3,67v-1.4H619V67H620.3z M621.2,63.5v1.4h1.3v-1.4H621.2z
	 M622.5,67v-1.4h-1.3V67H622.5z M624.1,72.6l-0.2-0.9c0.3,0,0.6,0.1,0.8,0.1c0.2,0,0.5-0.2,0.5-0.4v-6.1h-1.5v-1h3.5v1h-1v6.2
	c0.1,0.5-0.3,1-0.9,1.1c0,0,0,0,0,0H624.1L624.1,72.6z M624,60.8h3v0.9h-3V60.8z"/>
<g id="_编组_2-2">
	<g id="_编组_3">
		<path class="st9" d="M548.8,63.7c-1.1,0-2,0.9-2,2c0,1.1,0.9,2,2,2s2-0.9,2-2c0,0,0,0,0,0C550.8,64.6,550,63.7,548.8,63.7z
			 M548.8,68.7c-1.1,0-2,0.9-2,2s0.9,2,2,2s2-0.9,2-2S550,68.7,548.8,68.7z M544.8,78.7c-7.2,0-13-5.9-12.9-13.1s5.9-13,13.1-12.9
			c6.4,0,11.8,4.7,12.8,11h2c-1.1-8.2-8.7-14-16.9-12.9c-8.2,1.1-14,8.7-12.9,16.9c1.1,8.2,8.7,14,16.9,12.9
			c6.7-0.9,12-6.2,12.9-12.9h-2C556.7,74,551.3,78.7,544.8,78.7z M548.8,58.7c-1.1,0-2,0.9-2,2s0.9,2,2,2s2-0.9,2-2
			S550,58.7,548.8,58.7z M544.8,61.7v-2h-6v12h6v-2h-4v-3h4v-2h-4v-3H544.8z"/>
	</g>
</g>
<g id="BlueRectGroup17-2">
	<rect x="371.4" y="239.1" class="st0" width="444.4" height="92.8"/>
</g>
<g id="BlueRectGroup17-3">
	<rect x="371.4" y="350" class="st0" width="444.4" height="92.8"/>
</g>
<rect x="389.9" y="262.5" class="st5" width="128" height="50"/>
<rect x="387.9" y="260.5" class="st6" width="128" height="50"/>
<path class="st9" d="M413.9,298.5c-7.2-0.1-12.9-6-12.8-13.2c0.1-7.2,6-12.9,13.2-12.8c6.3,0.1,11.7,4.7,12.7,11h2
	c-1.1-8.2-8.7-14-16.9-12.9c-8.2,1.1-14,8.7-12.9,16.9c1.1,8.2,8.7,14,16.9,12.9c6.7-0.9,12-6.2,12.9-12.9h-2
	C425.8,293.8,420.3,298.5,413.9,298.5z M420.9,281.5l-7-4l-7,4v8l3.2,1.8c0.2-0.6,0.5-1.2,1-1.7l-2.2-1.3v-3.7l5,2.9l5-2.9v3.7
	l-4.1,2.4c-1-0.5-2.2-0.1-2.7,0.9c-0.5,1-0.1,2.2,0.9,2.7c1,0.5,2.2,0.1,2.7-0.9c0.1-0.3,0.2-0.6,0.2-0.9v-0.1l5-2.9V281.5z
	 M413.9,285.2l-4.7-2.7l4.7-2.7l4.7,2.7L413.9,285.2z"/>
<path class="st7" d="M453.2,283.6v1.3h-6.6c-0.8,1.9-1.9,3.6-3.2,5.2c2.3-0.1,4.6-0.4,6.9-0.7c-0.5-0.8-0.9-1.6-1.5-2.5l1.1-0.7
	c1.1,1.6,2.1,3.3,3,5l-1.2,0.8c-0.2-0.5-0.5-1-0.7-1.4c-2.8,0.4-5.9,0.7-9.2,0.9l-0.4-1.4c0.1,0,0.2-0.1,0.3-0.1
	c0.9-0.7,2-2.4,3.4-5.1h-4.6v-1.3L453.2,283.6z M452,279.7v1.3h-10.1v-1.3H452z"/>
<path class="st7" d="M455.5,292l-1-0.9c0.6-1.5,0.9-3.1,0.9-4.7v-6.9h4.4v11c0,1-0.4,1.4-1.3,1.4h-1.1l-0.3-1.2
	c0.4,0,0.7,0.1,1.1,0.1s0.5-0.2,0.5-0.8v-2.8h-2C456.5,288.8,456.1,290.4,455.5,292z M458.5,280.7h-2v2.1h2V280.7z M456.5,286h2v-2
	h-2V286z M461.8,292h-1.2v-12.5h5.9c0.1,1.2,0,2.4-0.2,3.6c-0.2,0.6-0.7,0.9-1.6,0.9h-1.2l-0.4-1.1h0.9c0.2,0,0.5,0,0.7-0.1
	c0.2-0.1,0.3-0.2,0.3-0.4c0.1-0.6,0.2-1.2,0.2-1.8h-3.4v4h4.7v1.1c-0.2,1.2-0.6,2.4-1.3,3.5c0.6,0.6,1.3,1.1,2,1.5l-0.7,1.1
	c-0.8-0.4-1.5-1-2.1-1.6c-0.6,0.6-1.3,1.2-2,1.6l-0.7-1L461.8,292z M461.8,290.9c0.7-0.4,1.3-0.9,1.9-1.5c-0.8-1-1.4-2.2-1.7-3.5
	h-0.2L461.8,290.9L461.8,290.9z M464.4,288.3c0.5-0.8,0.8-1.6,1-2.5h-2.2C463.5,286.7,463.9,287.6,464.4,288.3z"/>
<path class="st7" d="M473.9,279.2c-0.1,0.4-0.3,0.7-0.5,1h6v1.1c-0.9,1-1.9,1.8-3,2.5c1.6,0.6,3.3,1,5,1.1l-0.6,1.2
	c-2-0.2-4-0.8-5.9-1.6c-1.9,0.8-3.9,1.4-5.9,1.6l-0.6-1.2c1.7-0.2,3.4-0.6,5-1.2c-0.7-0.4-1.3-0.8-1.9-1.3c-0.5,0.4-1,0.8-1.6,1.1
	l-0.8-1.1c1.5-0.7,2.6-2,3.3-3.5L473.9,279.2z M475.1,285.3c0,0.5,0,0.9-0.1,1.4h4.8c0,2.5-0.2,3.9-0.6,4.4
	c-0.6,0.5-1.3,0.8-2.1,0.7c-0.6,0-1.1,0-1.7-0.1l-0.3-1.2l1.8,0.1c0.7,0,1.2-0.2,1.3-0.5c0.3-0.7,0.4-1.5,0.3-2.3h-3.8
	c-0.1,0.3-0.3,0.7-0.4,1c-0.7,1.3-2.3,2.3-4.9,3.1l-0.9-1.1c2.3-0.7,3.8-1.5,4.5-2.5c0.1-0.2,0.2-0.3,0.3-0.5h-3.9v-1.2h4.4
	c0.1-0.5,0.1-0.9,0.1-1.4L475.1,285.3z M477.4,281.4h-4.9l-0.1,0.1c0.8,0.6,1.6,1.1,2.4,1.6C475.8,282.6,476.6,282,477.4,281.4z"/>
<path class="st7" d="M494.1,279.5v3.6h-1.7c0.3,0.3,0.5,0.7,0.7,1.1h1.9v1.2h-3.5c1.1,0.8,2.4,1.4,3.7,1.7l-0.5,1.1l-0.8-0.3v4h-1.2
	v-0.5h-2.3v0.5h-1.2v-4.6h3.3c-1-0.5-1.9-1.1-2.6-2h-2.3c-0.8,0.8-1.7,1.5-2.7,2h3.1v4.6h-1.2v-0.5h-2v0.5h-1.2v-4l-0.9,0.3
	l-0.6-1.1c1.3-0.3,2.6-0.9,3.7-1.7h-3.5v-1.2h4.7c0.2-0.3,0.4-0.7,0.6-1l1.3,0.1c-0.1,0.3-0.3,0.6-0.4,0.9h3.1
	c-0.2-0.3-0.3-0.5-0.5-0.8l1-0.3h-2.9v-3.7L494.1,279.5L494.1,279.5z M488.2,279.5v3.6h-4.5v-3.6H488.2z M487,280.6h-2.1v1.4h2.1
	L487,280.6z M487.2,290.3v-1.8h-2v1.8H487.2z M492.9,290.3v-1.8h-2.3v1.8H492.9z M493,280.6h-2.2v1.4h2.2L493,280.6z"/>
<g id="BlueRectGroup17-4">
	<rect x="371.4" y="129.1" class="st0" width="444.4" height="92.8"/>
</g>
<rect x="390.4" y="152.9" class="st5" width="148.4" height="49.8"/>
<rect x="388.5" y="150.5" class="st10" width="148" height="50"/>
<path class="st11" d="M537,201H388v-51h149V201z M389,200h147v-49H389V200z"/>
<g id="_编组_4">
	<g id="_编组_2-3">
		<path id="_复合路径_2" class="st9" d="M413,178.5h-0.6c-5.5,0-10-1.4-10-3v-6.3c2.2,1.4,5.8,2.3,10,2.3
			c3.5,0.1,6.9-0.6,10-2.2v4.5c0.7,0.2,1.4,0.5,2,0.8v-8.1c0-2.8-5.4-5-12-5s-12,2.2-12,5v18h2v-6.3c2,1.3,5.3,2.1,9.2,2.3
			c0.3-0.3,0.7-0.6,1.1-0.9C412.7,179.2,412.8,178.8,413,178.5z M412.4,163.5c5.5,0,10,1.3,10,3s-4.5,3-10,3s-10-1.4-10-3
			S406.9,163.5,412.4,163.5z M402.4,184.5h-2c0,2.5,4.4,4.6,10.2,4.9c-0.5-0.6-0.8-1.3-1-2.1C405.5,187,402.4,185.9,402.4,184.5
			L402.4,184.5z M425.4,181.6v-0.1c0-2.8-2.2-5-5-5s-5,2.2-5,5v0.1c-2.1,0.6-3.4,2.8-2.8,4.9c0.5,1.7,2,2.9,3.8,3h8c2.2,0,4-1.8,4-4
			C428.3,183.7,427.1,182.2,425.4,181.6z M424.4,187.5h-8c-1.1-0.1-2-1-1.9-2.1c0,0,0,0,0,0l0,0c0-0.9,0.6-1.6,1.4-1.9l1.5-0.4v-1.8
			c0-1.7,1.3-3,3-3s3,1.3,3,3v1.8l1.6,0.4c1,0.3,1.7,1.3,1.4,2.4c0,0,0,0,0,0v0.1C426.1,186.9,425.3,187.5,424.4,187.5z"/>
	</g>
</g>
<path class="st7" d="M446.6,172l-0.9,0.5h2.9c0.5-0.9,1-1.8,1.3-2.8l1.3,0.4c-0.3,0.9-0.7,1.7-1.1,2.5h2.7v1.3h-4.6v0.4
	c0,0.6-0.1,1.3-0.2,1.9h5.6v1.3h-4.9c0.7,1.7,2.4,3,5.2,4l-0.8,1.3c-2.9-1.2-4.8-2.8-5.6-4.8c-0.2,0.6-0.5,1.2-0.9,1.8
	c-1.2,1.4-2.9,2.4-4.7,2.9l-0.7-1.2c1.7-0.4,3.2-1.3,4.4-2.6c0.3-0.4,0.5-0.8,0.7-1.3h-4.8v-1.3h5.2c0.1-0.6,0.2-1.3,0.2-1.9V174
	h-4.6v-1.3h3c-0.4-0.8-0.9-1.5-1.5-2.2l1.2-0.6C445.7,170.5,446.2,171.2,446.6,172z"/>
<path class="st7" d="M459.6,179.3c-1,1.2-2.2,2.2-3.5,3l-0.8-1.1c1.3-0.7,2.4-1.6,3.4-2.7L459.6,179.3z M459.5,182.6l-0.3-1.3
	c0.5,0.1,0.9,0.1,1.4,0.1c0.2,0,0.4-0.1,0.5-0.3v-3.2c-1.3,0.1-2.8,0.1-4.3,0.2l-0.4-1.2c0.4,0,0.7-0.1,1.1-0.2
	c1.2-0.5,2.3-1.2,3.4-2c-1.1,0.1-2.3,0.2-3.6,0.2l-0.3-1.2c0.3,0,0.6-0.1,0.9-0.2c0.8-0.5,1.4-1,2-1.7c-1.1,0-2.3,0.1-3.5,0.1
	l-0.4-1.1c3.4,0,6.8-0.2,10.2-0.8l0.7,1.1c-1.7,0.4-3.5,0.6-5.3,0.7c-0.7,0.8-1.4,1.5-2.3,2.1l2.9-0.2c0.6-0.5,1.2-1,1.8-1.6
	l1.2,0.6c-1.8,1.6-3.7,3-5.8,4.3c2-0.1,3.6-0.3,5.1-0.4c-0.3-0.4-0.6-0.8-1-1.2l1-0.6c1,1.1,1.9,2.3,2.7,3.5l-1.1,0.7
	c-0.3-0.5-0.6-1-0.9-1.4c-0.9,0.1-1.9,0.2-3,0.3v3.5c0.1,0.7-0.3,1.3-1,1.4H461L459.5,182.6z M467.8,181.4l-1,1
	c-1-1.2-2.2-2.2-3.4-3.1l0.9-0.9C465.6,179.3,466.8,180.3,467.8,181.4L467.8,181.4z"/>
<path class="st7" d="M475,178.6v-1h1.3v1h4.7v1.2h-4.7v1.3h5.4v1.2h-12.3v-1.2h5.6v-1.3h-4.8v-1.2H475z M476.6,170.2v1.2h-1.3v1.8
	h1.6v1.2h-1.6v3H474v-3h-1.6c-0.1,1.2-0.6,2.3-1.5,3.1l-1-0.9c0.7-0.6,1.1-1.3,1.2-2.2h-1.6v-1.2h1.7v-1.8h-1.3v-1.2L476.6,170.2z
	 M472.5,173.2h1.5v-1.8h-1.5V173.2z M478.8,170.7v4.8h-1.3v-4.8H478.8z M478.2,177.6l-0.3-1.2c0.6,0.1,1.1,0.1,1.7,0.1
	c0.3,0,0.4-0.2,0.4-0.6V170h1.3v6.2c0,1-0.4,1.5-1.3,1.5L478.2,177.6z"/>
<path class="st7" d="M487,176.3l-0.2,0.7h2.9v1.1c-0.3,0.8-0.7,1.6-1.3,2.2c0.6,0.2,1.2,0.5,1.7,0.8l-0.7,1c-0.6-0.4-1.3-0.7-2-1
	c-1.1,0.7-2.3,1.1-3.5,1.4l-0.6-1.1c0.9-0.2,1.8-0.6,2.7-1c-0.6-0.2-1.2-0.5-1.8-0.7c0.3-0.6,0.6-1.1,0.9-1.7h-1.5v-1h2
	c0.1-0.3,0.2-0.5,0.3-0.8L487,176.3z M486.2,172.3v-2.6h1.2v2.6h2.4v1.2h-2.4v0.1c0.7,0.3,1.5,0.7,2.3,1.1l-0.7,1.1
	c-0.5-0.4-1-0.8-1.6-1.2v1.6h-1.2v-2.4c-0.5,1.1-1.3,2-2.3,2.6l-0.7-1.1c0.8-0.5,1.5-1.1,2.1-1.8h-1.8v-1.2L486.2,172.3L486.2,172.3
	z M485.6,171.6l-1,0.4l-0.9-1.8l1-0.4C485.1,170.4,485.4,171,485.6,171.6z M488.5,178.1h-2.2c-0.2,0.4-0.4,0.7-0.6,1.1
	c0.5,0.2,1,0.3,1.4,0.5C487.7,179.3,488.2,178.7,488.5,178.1L488.5,178.1z M489.8,170.3c-0.3,0.6-0.7,1.2-1.1,1.8l-0.9-0.5
	c0.4-0.5,0.8-1.1,1-1.7L489.8,170.3z M491.2,175.5c-0.2,0.5-0.4,1-0.7,1.4l-0.8-1c0.9-2,1.4-4.1,1.6-6.2l1.3,0.2l-0.3,1.8h3.5v1.3
	H495c0,2-0.5,4-1.3,5.8c0.6,1.1,1.5,2,2.5,2.7l-0.7,1.1c-1-0.7-1.8-1.6-2.4-2.6c-0.7,1-1.5,1.9-2.5,2.6l-0.7-1.1
	c1-0.7,1.9-1.6,2.5-2.7C491.9,177.7,491.5,176.6,491.2,175.5z M491.8,173.6c0.3,1.3,0.7,2.6,1.2,3.8c0.5-1.5,0.7-3,0.8-4.5H492
	L491.8,173.6z"/>
<path class="st7" d="M497.8,182.5l-0.3-1.3c0.3,0.1,0.7,0.1,1,0.1c0.3,0,0.5-0.2,0.5-0.6v-3l-1.5,0.5l-0.3-1.3
	c0.6-0.1,1.2-0.3,1.8-0.5v-3h-1.6v-1.3h1.6v-2.5h1.3v2.5h1.2v1.3h-1.2v2.4l1.2-0.6v1.3l-1.2,0.6v3.9c0.1,0.7-0.4,1.3-1.1,1.4
	c-0.1,0-0.2,0-0.2,0L497.8,182.5z M501.6,182.6l-1-0.9c1-2.2,1.5-4.6,1.4-7v-4.6h7.6v3.6h-2.5v1.4h2.9v1.2h-2.9v1.4h2.3v4.8h-1.2
	V182h-3.5v0.6h-1.2v-4.8h2.2v-1.4h-2.5C503.1,178.6,502.5,180.7,501.6,182.6L501.6,182.6z M503.4,173.8v1.4h2.4v-1.4H503.4z
	 M503.4,171.4v1.2h5v-1.2H503.4z M508.1,180.9V179h-3.4v1.8h3.4V180.9z"/>
<path class="st7" d="M519,170.8h5v1.3h-10.3v3c0.1,2.6-0.4,5.1-1.4,7.5l-1.1-1c0.8-2.1,1.2-4.3,1.1-6.5v-4.3h5.2
	c-0.2-0.3-0.4-0.7-0.6-1l1.5-0.2L519,170.8z M518.3,172.6l-0.3,0.9h5.3v1.2h-5.7c-0.3,0.7-0.7,1.4-1.1,2.1h2.2v-1.5h1.3v1.5h3v1.2
	h-3v1.3h4v1.2h-4v2.1h-1.3v-2.1h-4.9v-1.2h4.9V178h-3.5l-0.3-1.2c0.5-0.7,1-1.4,1.3-2.2h-1.9v-1.2h2.4c0.1-0.4,0.3-0.8,0.4-1.2
	L518.3,172.6z"/>
<g class="st12">
	<rect x="552.7" y="152" class="st13" width="168" height="50"/>
</g>
<rect x="551.2" y="150.5" class="st10" width="167" height="49"/>
<path class="st11" d="M717.7,151v48h-166v-48H717.7 M718.7,150h-168v50h168V150z"/>
<g id="_编组_5">
	<g id="_编组_6">
		<path class="st9" d="M586.8,188.3c-7.2-0.1-12.9-6-12.8-13.2c0.1-7.2,6-12.9,13.2-12.8c6.3,0.1,11.7,4.7,12.7,11h2
			c-1.1-8.2-8.7-14-16.9-12.9c-8.2,1.1-14,8.7-12.9,16.9c1.1,8.2,8.7,14,16.9,12.9c6.7-0.9,12-6.2,12.9-12.9h-2
			C598.8,183.6,593.3,188.3,586.8,188.3z"/>
	</g>
	<g id="_编组_7">
		<path id="_路径_" class="st9" d="M579.8,177.3l5,3v2l-5-3V177.3z"/>
		<path id="_路径_2" class="st9" d="M579.8,173.3l5-3v-2l-5,3V173.3z"/>
		<path id="_路径_3" class="st9" d="M579.8,171.3h2v8h-2V171.3z"/>
	</g>
	<g id="_编组_8">
		<path id="_路径_4" class="st9" d="M591.8,171.3h2v8h-2V171.3z"/>
		<path id="_路径_5" class="st9" d="M593.8,179.3l-5,3v-2l5-3V179.3z"/>
		<path id="_路径_6" class="st9" d="M593.8,171.3l-5-3v2l5,3V171.3z"/>
	</g>
	<polygon id="_路径_7" class="st9" points="586.8,178.3 584.8,178.3 586.8,172.3 588.8,172.3 	"/>
</g>
<path class="st7" d="M621.2,168.3v1.3h-4.9v0.9c0,0.7-0.1,1.5-0.2,2.2h6.2v1.3h-4.2v4.5c0,0.4,0.2,0.7,0.6,0.7h1.6
	c0.2,0,0.5-0.1,0.6-0.3c0.2-0.6,0.3-1.3,0.3-1.9l1.2,0.4c0,0.9-0.2,1.8-0.6,2.6c-0.4,0.3-0.8,0.4-1.3,0.4h-2.2
	c-0.8,0.1-1.4-0.5-1.5-1.3c0-0.1,0-0.2,0-0.3V174h-0.9c-0.2,1.1-0.6,2.1-1.1,3.1c-0.9,1.6-2.4,2.9-4.2,3.5l-0.7-1.2
	c1.7-0.6,3-1.8,3.9-3.4c0.3-0.7,0.5-1.4,0.7-2.1h-4.4v-1.3h4.6c0.1-0.7,0.1-1.4,0.2-2.2v-0.8H611v-1.3H621.2z"/>
<path class="st7" d="M625,180.7l-1-0.9c0.6-1.5,0.9-3.1,0.8-4.7v-6.9h4.4v11c0,1-0.4,1.4-1.3,1.4h-1.1l-0.3-1.2
	c0.4,0,0.7,0.1,1.1,0.1s0.5-0.2,0.5-0.8V176h-2C626,177.6,625.6,179.2,625,180.7z M628,169.4h-2v2.1h2V169.4z M626,174.7h2v-2h-2
	V174.7z M631.3,180.6H630v-12.4h6c0.1,1.2,0,2.4-0.2,3.6c-0.2,0.6-0.7,0.9-1.6,0.9h-1.1l-0.3-1.1h0.9c0.2,0,0.5,0,0.7-0.1
	c0.2-0.1,0.3-0.2,0.3-0.4c0.1-0.6,0.2-1.2,0.2-1.8h-3.4v4h4.7v1.1c-0.2,1.2-0.7,2.4-1.3,3.5c0.6,0.6,1.3,1.1,2,1.5l-0.7,1.1
	c-0.8-0.4-1.5-1-2.1-1.6c-0.6,0.6-1.3,1.2-2,1.6l-0.7-1L631.3,180.6z M631.3,179.5c0.7-0.4,1.3-0.9,1.9-1.5c-0.8-1-1.4-2.2-1.7-3.5
	h-0.2V179.5z M633.9,177c0.5-0.8,0.8-1.6,1-2.5h-2.2C633,175.4,633.4,176.2,633.9,177z"/>
<path class="st7" d="M643.2,167.9c-0.1,0.4-0.3,0.7-0.5,1h6v1.1c-0.9,1-1.9,1.8-3,2.5c1.6,0.6,3.3,1,5,1.1l-0.6,1.2
	c-2-0.2-4-0.8-5.9-1.6c-1.8,0.8-3.8,1.4-5.8,1.6l-0.6-1.2c1.7-0.2,3.4-0.6,5-1.2c-0.7-0.4-1.3-0.8-1.9-1.3c-0.5,0.4-1,0.8-1.6,1.1
	l-0.8-1.1c1.4-0.7,2.6-1.9,3.3-3.4L643.2,167.9z M644.5,174c0,0.5,0,0.9-0.1,1.4h4.8c0,2.4-0.2,3.9-0.6,4.4
	c-0.6,0.5-1.3,0.8-2.1,0.7c-0.6,0-1.1,0-1.7-0.1l-0.3-1.2l1.8,0.1c0.7,0,1.2-0.2,1.3-0.4c0.3-0.7,0.4-1.5,0.3-2.3h-3.8
	c-0.1,0.3-0.3,0.7-0.4,1c-0.7,1.3-2.3,2.3-4.9,3.1l-0.9-1.1c2.3-0.7,3.8-1.5,4.5-2.4l0.3-0.6h-4v-1.2h4.3c0.1-0.5,0.1-0.9,0.1-1.4
	H644.5z M646.8,170h-4.9l-0.1,0.1c0.8,0.6,1.6,1.1,2.4,1.6C645.2,171.3,646.1,170.7,646.8,170L646.8,170z"/>
<path class="st7" d="M663.5,168.2v3.6h-1.7c0.3,0.3,0.5,0.7,0.7,1.1h1.9v1.2H661c1.1,0.8,2.4,1.4,3.7,1.7l-0.5,1.1l-0.8-0.3v4h-1.2
	V180h-2.3v0.6h-1.2V176h3.3c-1-0.5-1.9-1.1-2.6-1.9h-2.3c-0.8,0.8-1.7,1.5-2.7,1.9h3.1v4.6h-1.2V180h-2v0.6H653v-4l-0.9,0.3
	l-0.6-1.1c1.3-0.3,2.6-0.9,3.7-1.7h-3.5V173h4.7c0.2-0.3,0.4-0.7,0.6-1l1.3,0.1c-0.1,0.3-0.3,0.6-0.4,0.9h3.1
	c-0.2-0.3-0.3-0.5-0.5-0.8l1-0.3h-2.9v-3.6L663.5,168.2z M657.6,168.2v3.6h-4.5v-3.6H657.6z M656.4,169.3h-2.1v1.4h2.1V169.3z
	 M656.5,179v-1.8h-2v1.8H656.5z M662.2,179v-1.8H660v1.8H662.2z M662.3,169.3h-2.2v1.4h2.2V169.3z"/>
<path class="st7" d="M678.7,172.3v1.3h-6.6c-0.8,1.9-1.9,3.6-3.2,5.2c2.3-0.1,4.6-0.4,6.9-0.7c-0.5-0.8-0.9-1.6-1.5-2.5l1.1-0.7
	c1.1,1.6,2.1,3.2,3,4.9l-1.2,0.8c-0.2-0.5-0.5-1-0.7-1.4c-2.8,0.4-5.9,0.7-9.2,0.9l-0.3-1.4c0.1,0,0.2-0.1,0.3-0.1
	c0.9-0.7,2-2.4,3.4-5.1h-4.5v-1.3L678.7,172.3z M677.4,168.4v1.3h-10.1v-1.3H677.4z"/>
<path class="st7" d="M692,170.8v9.9h-1.2V180h-8.9v0.7h-1.3v-9.9h1.3v8h8.9v-8H692z M681.9,176.2c1.4-0.8,2.8-1.8,4-2.9v-2.4
	c1.2-0.6,2.2-1.1,2.9-1.5H682v-1.2h8.8v1.2c-1.2,0.8-2.4,1.6-3.7,2.2v2c1.2,0.8,2.4,1.7,3.6,2.7l-0.8,1.2c-0.9-0.9-1.9-1.7-2.9-2.5
	v1.9c0,0.9-0.4,1.4-1.3,1.4h-1.3l-0.3-1.2h1.1c0.3,0,0.5-0.2,0.5-0.6v-1.7c-1.1,1-2.3,1.9-3.6,2.7L681.9,176.2z M685.2,173.2l-1,0.7
	c-0.6-0.7-1.2-1.4-1.9-2.1l1-0.6C684,171.8,684.6,172.5,685.2,173.2L685.2,173.2z M690.5,171.6c-0.5,0.9-1.2,1.7-2,2.3l-1-0.7
	c0.7-0.6,1.3-1.4,1.8-2.2L690.5,171.6z"/>
<path class="st7" d="M697.7,174.4l-0.2,0.7h2.9v1.1c-0.3,0.8-0.7,1.6-1.3,2.2c0.6,0.2,1.2,0.5,1.7,0.8l-0.7,1c-0.6-0.4-1.3-0.7-2-1
	c-1.1,0.7-2.3,1.1-3.5,1.4l-0.6-1.1c0.9-0.2,1.8-0.6,2.7-1c-0.6-0.2-1.2-0.5-1.8-0.7c0.3-0.6,0.6-1.1,0.9-1.7h-1.5V175h2
	c0.1-0.3,0.2-0.5,0.3-0.8L697.7,174.4z M696.9,170.3v-2.6h1.1v2.6h2.4v1.2H698c0.7,0.3,1.5,0.7,2.3,1.1l-0.7,1.1
	c-0.5-0.4-1-0.8-1.6-1.2v1.6h-1.2v-2.3c-0.5,1.1-1.3,2-2.3,2.6l-0.7-1.1c0.8-0.5,1.5-1.1,2.1-1.8h-1.8v-1.2L696.9,170.3L696.9,170.3
	z M696.3,169.6l-1,0.4l-0.9-1.8l1-0.4C695.7,168.4,696,169,696.3,169.6L696.3,169.6z M699.1,176.2h-2.2c-0.2,0.4-0.4,0.7-0.6,1.1
	c0.5,0.2,1,0.3,1.4,0.5C698.2,177.4,698.7,176.8,699.1,176.2L699.1,176.2z M700.5,168.4c-0.3,0.6-0.7,1.2-1.1,1.8l-0.9-0.5
	c0.4-0.5,0.8-1.1,1-1.7L700.5,168.4z M701.8,173.5c-0.2,0.5-0.4,1-0.7,1.4l-0.8-1c0.9-2,1.4-4.1,1.6-6.2l1.3,0.2l-0.3,1.8h3.6v1.3
	h-0.8c0,2-0.5,4-1.3,5.8c0.6,1.1,1.5,2,2.5,2.7l-0.7,1.1c-1-0.7-1.8-1.6-2.4-2.6c-0.7,1-1.5,1.9-2.5,2.6l-0.7-1.1
	c1-0.7,1.9-1.6,2.5-2.7C702.5,175.8,702.1,174.6,701.8,173.5L701.8,173.5z M702.4,171.6c0.3,1.3,0.7,2.6,1.3,3.9
	c0.5-1.5,0.7-3,0.8-4.5h-1.8C702.6,171.2,702.6,171.4,702.4,171.6z"/>
<g class="st12">
	<rect x="532" y="263" class="st13" width="134" height="50"/>
</g>
<rect x="530.5" y="261.5" class="st10" width="133" height="49"/>
<path class="st11" d="M663,262v48H531v-48H663 M664,261H530v50h134V261z"/>
<rect x="550" y="270" class="st14" width="32" height="32"/>
<g id="_编组_9">
	<path class="st9" d="M555.8,282v8l7,4l7-4v-8l-7-4L555.8,282z M561.8,291.1l-4-2.3v-3.7l4,2.3V291.1z M567.8,288.8l-4,2.3v-3.7
		l4-2.3V288.8z M562.8,285.7L558,283l4.7-2.7l4.7,2.7L562.8,285.7z M574.8,292.8l-12,6.9l-12-6.9v-13.7l12-6.9l12,6.9l0,0l2-1.1
		l-14-8l-14,8v16l14,8l14-8v-12l-2,1.1V292.8z"/>
</g>
<path class="st7" d="M594.2,285.3c0.5-1.2,0.7-2.4,0.8-3.7h-3.7v-1.3h4.9v1c0,1.8-0.4,3.5-1.1,5.1c0.5,0.7,1,1.4,1.5,2.2l-1,1
	c-0.4-0.7-0.8-1.3-1.2-1.9c-0.8,1.3-1.8,2.4-3,3.4l-0.8-1.2c1.2-0.9,2.2-2,3-3.3c-0.8-1.1-1.7-2.1-2.6-3.1l0.9-0.8
	C592.8,283.5,593.5,284.4,594.2,285.3z M599.8,287.3l-1,0.7c-0.6-1.1-1.3-2.1-2.1-3l1-0.7C598.5,285.3,599.2,286.3,599.8,287.3z
	 M600.6,281.6V279h1.4v2.6h1.4v1.3H602v7.4c0.1,0.8-0.5,1.5-1.3,1.6h-2.5l-0.3-1.3c0.7,0.1,1.3,0.1,2,0.1c0.7,0,0.8-0.2,0.8-0.7v-7
	h-3.9v-1.3L600.6,281.6z"/>
<path class="st7" d="M605.5,282.8l-0.8-1c1.7-0.7,3.2-1.6,4.5-2.9l1.4,0.3l-0.6,0.6h4.3v0.9c-0.3,0.4-0.7,0.7-1.1,1h3.4v3.3h-5.4
	c0.6,0.5,1.1,1.1,1.5,1.8c1.2-0.3,2.3-0.8,3.3-1.5l0.9,1c-0.7,0.4-1.4,0.8-2.2,1.1c0.7,1.2,1.8,2.2,3,2.9l-0.9,1.1
	c-1.3-1-2.4-2.2-3.2-3.6l-0.5,0.1c0.1,0.5,0.2,0.9,0.2,1.4c0.1,0.8-0.1,1.5-0.6,2.1c-0.6,0.4-1.3,0.6-2,0.6h-1l-0.4-1.2h1.3
	c0.4,0,0.7-0.1,1-0.3c0.3-0.3,0.4-0.8,0.3-1.2v-0.4c-1.9,1.2-4,2.2-6.2,2.7l-0.7-1.1c2.4-0.5,4.6-1.4,6.6-2.8
	c-0.1-0.2-0.2-0.5-0.3-0.7c-1.7,1.1-3.5,1.9-5.5,2.4l-0.7-1.1c1.9-0.4,3.8-1.1,5.5-2.1l-0.6-0.6c-1.4,0.9-2.9,1.4-4.5,1.6l-0.5-1.1
	c1.3-0.2,2.6-0.6,3.8-1.2h-2.7v-2.5L605.5,282.8z M612.5,280.9h-3.8c-0.4,0.3-0.8,0.6-1.2,0.8h3.9
	C611.9,281.5,612.2,281.2,612.5,280.9z M611,282.8h-3.3v1.1h2.7C610.6,283.6,610.8,283.2,611,282.8z M615.2,282.8h-3
	c-0.1,0.4-0.3,0.8-0.5,1.1h3.5V282.8z"/>
<path class="st7" d="M622.8,280.3c0.2-0.5,0.3-0.9,0.4-1.4l1.3,0.1c-0.1,0.4-0.2,0.8-0.4,1.2h7v1.3h-7.4c-0.5,1.2-1.1,2.3-1.9,3.3
	v7.1h-1.3v-5.5c-0.3,0.4-0.7,0.8-1.1,1.1l-0.8-1.1c1.6-1.4,2.8-3,3.7-4.9h-3.2v-1.3L622.8,280.3z M626.8,286.9v-1.1
	c0.8-0.4,1.5-0.9,2.1-1.5h-5v-1.2h6.7v1.2c-0.8,0.7-1.6,1.4-2.5,2v0.6h3.4v1.3H628v2.3c0.1,0.7-0.3,1.3-1,1.5h-2.1l-0.3-1.3h1.4
	c0.3,0,0.6-0.2,0.6-0.5v-2h-4v-1.3L626.8,286.9z"/>
<path class="st7" d="M633,285.8l-0.5-1.4c1.1-1.6,1.9-3.5,2.3-5.4l1.2,0.6c-0.2,0.9-0.6,1.8-0.9,2.7v9.7h-1.3v-7.4
	C633.6,285,633.3,285.4,633,285.8z M638.3,283.3v5.6c0.3-0.3,0.6-0.7,0.9-1.1l0.3,1.3c-0.7,0.9-1.5,1.7-2.3,2.5l-0.5-1.2
	c0.2-0.1,0.3-0.4,0.3-0.6v-5.2h-1.4v-1.2L638.3,283.3z M639.1,281.6l-1,1c-0.6-0.8-1.3-1.5-2-2.2l0.9-0.9
	C637.8,280.1,638.5,280.8,639.1,281.6z M641.2,280.6v-1.5h1.2v1.5h1.5v0.7c0.2-0.5,0.5-1,0.7-1.5l1.1,0.6c-0.4,1-0.9,2-1.5,3h1.3
	v1.2h-2.2c-0.3,0.4-0.7,0.7-1,1.1h2.6v6.4h-1.2v-0.5h-2.3v0.5h-1.2v-4.8c-0.2,0.1-0.5,0.3-0.7,0.4l-0.7-1c1.1-0.5,2.1-1.2,2.9-2
	h-2.2v-1.2h1.8V282h-1.6v-1.1L641.2,280.6z M643.6,286.7h-2.3v1.2h2.3V286.7z M641.4,290.2h2.3V289h-2.3V290.2z M643.7,281.7h-1.2
	v1.5h0.2C643.1,282.7,643.4,282.2,643.7,281.7z"/>
<rect x="391.9" y="373.5" class="st5" width="368" height="50"/>
<rect x="389.9" y="371.5" class="st6" width="368" height="50"/>
<polyline class="st15" points="361.4,398.5 348.4,398.5 348.4,65.8 360.4,65.8 "/>
<line class="st15" x1="348.4" y1="286" x2="361.9" y2="286"/>
<line class="st15" x1="348.4" y1="175.3" x2="361.9" y2="175.3"/>
<g>
	<path class="st7" d="M246.4,215.6V213h1.3v2.6h1.6v1.3h-1.6v0.6c0.6,0.7,1.2,1.4,1.9,2.3l-0.8,1.2c-0.4-0.8-0.8-1.5-1.1-2.1v6.9
		h-1.3v-6.4c-0.4,1.2-0.9,2.2-1.5,3.2l-0.6-1.4c0.9-1.3,1.6-2.7,2.1-4.3h-1.7v-1.3H246.4z M251.2,219.7v4.4c0.8-0.2,1.5-0.5,2.3-0.8
		l0.3,1.2c-1.1,0.4-2.4,0.9-4,1.3l-0.3-1.2c0.3-0.1,0.4-0.3,0.4-0.5v-10.6h6.4v6.2h-2.6c0.2,0.7,0.4,1.4,0.7,2
		c0.6-0.4,1.2-0.9,1.8-1.5l0.8,0.9c-0.6,0.7-1.3,1.2-2,1.6c0.6,0.8,1.4,1.4,2.3,2l-0.7,1.2c-2.3-1.5-3.7-3.6-4.1-6.1H251.2z
		 M255,214.6h-3.8v1.4h3.8V214.6z M251.2,218.5h3.8v-1.3h-3.8V218.5z"/>
	<path class="st7" d="M259,225.8l-0.3-1.3c0.4,0.1,0.7,0.1,1,0.1c0.3,0,0.5-0.2,0.5-0.5v-3c-0.5,0.2-1,0.4-1.5,0.5l-0.3-1.3
		c0.6-0.1,1.2-0.3,1.8-0.5v-2.9h-1.6v-1.3h1.6V213h1.3v2.5h1.2v1.3h-1.2v2.4c0.4-0.2,0.8-0.4,1.2-0.6v1.3c-0.4,0.2-0.8,0.4-1.2,0.6
		v3.9c0,0.9-0.4,1.4-1.3,1.4H259z M262.9,225.9l-1-0.9c0.9-1.8,1.4-4.1,1.4-7v-4.6h7.6v3.6h-2.5v1.4h2.9v1.2h-2.9v1.4h2.3v4.8h-1.2
		v-0.6H266v0.6h-1.2v-4.8h2.2v-1.4h-2.5C264.3,222,263.8,224.1,262.9,225.9z M264.6,217.1v0.9c0,0.2,0,0.3,0,0.5h2.5v-1.4H264.6z
		 M264.6,214.7v1.2h5v-1.2H264.6z M269.4,224.1v-1.8H266v1.8H269.4z"/>
</g>
<g>
	<path class="st7" d="M417.9,390.1v1.2h-5.4v1h4.3v5.8h-4.5c-0.2,0.8-0.4,1.5-0.7,2c1.9,0.8,4.2,1.2,6.8,1.2l-0.3,1.3
		c-2.8-0.1-5.2-0.6-7.3-1.6c-1,0.8-2.6,1.3-4.8,1.6l-0.6-1.2c1.8-0.1,3.1-0.4,4-1c-0.8-0.4-1.4-0.9-2.1-1.4l1-0.7
		c0.6,0.5,1.3,0.9,2,1.2c0.3-0.4,0.5-0.9,0.6-1.4h-4v-5.8h4.2v-1h-5.4v-1.2H417.9z M411.2,394.6v-1.2h-2.9v1.2H411.2z M411.2,396.1
		v-0.3h-2.9v1.2h2.9C411.2,396.6,411.2,396.3,411.2,396.1z M415.5,395.7h-3v0.3c0,0.3,0,0.6,0,0.9h3V395.7z M412.5,394.6h3v-1.2h-3
		V394.6z"/>
	<path class="st7" d="M426.8,390.2c-0.2,0.2-0.4,0.4-0.6,0.6h3.7v1c-1.5,2.7-4.3,4.2-8.4,4.6l-0.6-1.2c1.2-0.1,2.2-0.2,3.2-0.5
		c-0.4-0.5-0.8-0.9-1.2-1.3l1.1-0.5c0.5,0.4,0.9,0.9,1.3,1.4c1.3-0.5,2.3-1.3,3.1-2.3h-3.8c-1.1,0.6-2.4,1.1-3.8,1.4l-0.8-1.2
		c2.5-0.4,4.3-1.3,5.5-2.6L426.8,390.2z M426.9,399.9c1.4-0.6,2.5-1.4,3.3-2.5h-3.8c-1.2,0.6-2.6,1-4.3,1.3l-0.8-1.2
		c3.1-0.3,5.3-1.2,6.7-2.7l1.1,0.6c-0.3,0.3-0.5,0.5-0.8,0.7h3.6v1c-2,3.3-5.7,5-11.2,5.1l-0.5-1.3c2.1,0,3.9-0.2,5.5-0.7
		c-0.4-0.6-0.9-1.1-1.3-1.5l1.2-0.6C425.9,398.8,426.4,399.4,426.9,399.9z"/>
	<path class="st7" d="M444,393.7v1.3h-3.4v2.1h4v1.3h-4v2.6c1,0.1,2.1,0.2,3.5,0.2c0.7,0,1.4,0,2.2-0.1l-0.3,1.3h-1.3
		c-2.9,0-5.1-0.3-6.3-0.8c-0.9-0.4-1.6-1-2.2-1.8c-0.5,1.1-1.2,2.1-2,2.9l-0.9-1.1c1.3-1.4,2.2-3.2,2.7-5.5l1.3,0.2
		c-0.2,0.8-0.4,1.6-0.6,2.3c0.7,1.1,1.5,1.8,2.5,2.1l0.1,0v-5.7h-3.6v-1.3H444z M445.7,394.1h-1.3v-1.9h-9.1v2H434v-3.2h5.3
		c-0.2-0.4-0.4-0.9-0.6-1.2l1.4-0.2c0.2,0.4,0.4,0.9,0.6,1.4h5.1V394.1z"/>
	<path class="st7" d="M448.3,393.8l-1.1-0.8c0.7-0.7,1.1-1.7,1.3-3l1.2,0.2c-0.1,0.4-0.1,0.8-0.2,1.1h1.3v-1.7h1.3v1.7h2.5v1.2h-2.5
		v1.5h2.9v1.2h-2.9v1.2h2.7v3.7c0,0.9-0.5,1.4-1.4,1.4h-0.7l-0.3-1.2l0.6,0.1c0.4,0,0.6-0.2,0.6-0.5v-2.2h-1.4v4.9h-1.3v-4.9h-1.4v4
		h-1.3v-5.2h2.7v-1.2h-3.3V394h3.3v-1.5h-1.7C448.9,393.1,448.7,393.5,448.3,393.8z M457,390.9v8.6h-1.3v-8.6H457z M456.3,402.4
		l-0.3-1.3c0.7,0.1,1.3,0.1,1.9,0.1c0.4,0,0.5-0.2,0.5-0.6v-11h1.3V401c0,1-0.5,1.4-1.4,1.4H456.3z"/>
	<path class="st7" d="M466.8,390.1c-0.5,1.1-1.1,2.2-1.8,3.3v9.2h-1.3v-7.7c-0.6,0.6-1.2,1.2-1.8,1.7l-0.4-1.4
		c1.9-1.6,3.3-3.5,4.2-5.7L466.8,390.1z M469.6,402.3c-1.1,0-1.7-0.6-1.7-1.7v-3.9c-0.5,0.3-1,0.5-1.6,0.8l-0.6-1.3
		c0.8-0.3,1.5-0.7,2.2-1.1v-5.4h1.3v4.6c1.4-0.9,2.6-1.9,3.6-3.1l0.9,1.1c-1.3,1.4-2.8,2.6-4.6,3.7v4.5c0,0.4,0.2,0.6,0.7,0.6h2.1
		c0.3,0,0.6-0.1,0.7-0.3c0.1-0.2,0.2-1,0.3-2.2l1.2,0.4c-0.1,1.6-0.3,2.6-0.5,2.9c-0.3,0.3-0.8,0.5-1.5,0.5H469.6z"/>
	<path class="st7" d="M483.1,390.9h5v1.3h-10.3v2.9c0,3.1-0.5,5.6-1.4,7.5l-1.1-1c0.7-1.5,1.1-3.7,1.1-6.5v-4.2h5.1
		c-0.2-0.4-0.4-0.8-0.7-1.1l1.5-0.3C482.7,389.9,482.9,390.4,483.1,390.9z M483.7,400.7c0.8-2,1.5-4.4,2.2-7.2l1.3,0.4
		c-0.6,2.5-1.2,4.8-2,6.8h2.8v1.3h-10v-1.3H483.7z M481.2,399.3l-1.3,0.3c-0.4-1.8-0.8-3.4-1.4-5.1l1.1-0.4
		C480.2,395.7,480.7,397.4,481.2,399.3z M483.6,398.5l-1.3,0.3c-0.3-1.8-0.7-3.5-1.2-5.2l1.2-0.4
		C482.8,394.7,483.3,396.5,483.6,398.5z"/>
	<path class="st7" d="M490.4,402.5l-1-0.9c0.8-1.2,1.3-2.7,1.3-4.6v-6.9h10.7v10.5c0,1.1-0.5,1.6-1.6,1.6h-1.6l-0.4-1.3
		c0.5,0,1.1,0.1,1.5,0.1c0.4,0,0.7-0.3,0.7-0.8v-2.1h-3.5v4h-1.3v-4h-3.3C491.8,399.9,491.3,401.3,490.4,402.5z M492,391.4v2.1h3.2
		v-2.1H492z M492,396.9h3.2v-2.1H492V396.9z M500.1,391.4h-3.5v2.1h3.5V391.4z M500.1,394.7h-3.5v2.1h3.5V394.7z"/>
	<path class="st7" d="M505.1,393.4V390h1.3v3.4h1.6v1.3h-1.6v4.5c0.6-0.2,1.1-0.4,1.6-0.6v1.4c-1.3,0.5-2.8,1-4.3,1.3l-0.4-1.4
		c0.6-0.1,1.2-0.2,1.7-0.4v-4.9h-1.6v-1.3H505.1z M508.6,395.6v-1.2c1.6-0.9,3-1.8,4.3-2.8h-4.1v-1.2h6.1v1.1c-1.2,1.1-2.6,2-4.1,3
		h5.1c-0.1,3.4-0.3,5.5-0.5,6.5c-0.3,1-0.9,1.4-2,1.5c-0.5,0-0.9,0-1.3,0l-0.4-1.3c0.5,0.1,1,0.1,1.5,0.1c0.5,0,0.8-0.2,1-0.7
		c0.2-0.4,0.3-2,0.4-4.9h-0.7c-0.3,1.7-0.8,2.9-1.5,3.9c-0.7,1.1-1.8,2-3.3,2.9l-0.8-1c1.3-0.7,2.3-1.5,3-2.4c0.6-0.8,1-1.9,1.3-3.3
		h-0.9c-0.5,1.8-1.4,3.1-2.6,4.1l-0.8-1c1-0.8,1.8-1.8,2.2-3.1H508.6z"/>
	<path class="st7" d="M521.7,400.6c-0.9,0.8-2.1,1.4-3.5,1.9l-0.7-1.1c1.5-0.4,2.7-1,3.4-1.7L521.7,400.6z M528.6,390v4.2h-4.2
		c0.1,0.2,0.2,0.4,0.3,0.6h5.4v1.1h-12.5v-1.1h5.6c-0.1-0.2-0.2-0.4-0.4-0.6h-3.7V390H528.6z M528.5,396.5v3h-3.8v1.7
		c0,0.9-0.4,1.3-1.2,1.3h-1.7l-0.3-1.2c0.5,0.1,1.1,0.1,1.6,0.1c0.2,0,0.3-0.2,0.3-0.5v-1.4h-4v-3H528.5z M527.3,391.6V391h-6.9v0.6
		H527.3z M527.3,392.6h-6.9v0.6h6.9V392.6z M527.2,397.5h-6.5v0.9h6.5V397.5z M530.3,401.2l-0.5,1.2c-1.3-0.7-2.6-1.2-4-1.6l0.5-1.1
		C527.7,400.1,529,400.6,530.3,401.2z"/>
</g>
</svg>
