<?xml version="1.0" encoding="utf-8"?>
<!-- Generator: Adobe Illustrator 23.0.1, SVG Export Plug-In . SVG Version: 6.00 Build 0)  -->
<!DOCTYPE svg PUBLIC "-//W3C//DTD SVG 1.1//EN" "http://www.w3.org/Graphics/SVG/1.1/DTD/svg11.dtd" [
	<!ENTITY ns_extend "http://ns.adobe.com/Extensibility/1.0/">
	<!ENTITY ns_ai "http://ns.adobe.com/AdobeIllustrator/10.0/">
	<!ENTITY ns_graphs "http://ns.adobe.com/Graphs/1.0/">
	<!ENTITY ns_vars "http://ns.adobe.com/Variables/1.0/">
	<!ENTITY ns_imrep "http://ns.adobe.com/ImageReplacement/1.0/">
	<!ENTITY ns_sfw "http://ns.adobe.com/SaveForWeb/1.0/">
	<!ENTITY ns_custom "http://ns.adobe.com/GenericCustomNamespace/1.0/">
	<!ENTITY ns_adobe_xpath "http://ns.adobe.com/XPath/1.0/">
]>
<svg version="1.1" id="图层_1" xmlns:x="&ns_extend;" xmlns:i="&ns_ai;" xmlns:graph="&ns_graphs;"
	 xmlns="http://www.w3.org/2000/svg" xmlns:xlink="http://www.w3.org/1999/xlink" x="0px" y="0px" width="830px" height="530px"
	 viewBox="0 0 830 530" style="enable-background:new 0 0 830 530;" xml:space="preserve">
<style type="text/css">
	.st0{fill:#CEE3FF;}
	.st1{enable-background:new    ;}
	.st2{fill:#00A4FF;}
	.st3{opacity:0.6;fill:#BBBBBB;enable-background:new    ;}
	.st4{fill:#FFFFFF;}
	.st5{fill:#E5E5E5;}
	.st6{fill:#444444;}
	.st7{fill:#878787;}
	.st8{fill:none;stroke:#878787;stroke-miterlimit:10;}
</style>
<metadata>
	<sfw  xmlns="&ns_sfw;">
		<slices></slices>
		<sliceSourceBounds  bottomLeftOrigin="true" height="529" width="622" x="104" y="0.5"></sliceSourceBounds>
	</sfw>
</metadata>
<g>
	<g id="GrayRectGroup6_4_" transform="translate(669.5,130)">
		<rect x="-565.5" y="-129.5" class="st0" width="622" height="114"/>
	</g>
	<g transform="translate(20 9)">
		<g class="st1">
			<path class="st2" d="M106.1,9.1v11h1.7v-11h1.3v11h4.1v1.3h-12.5v-1.3h4.1v-11H106.1z M104.1,18.1l-1.2,0.3
				c-0.5-2.2-1.1-4.3-1.8-6.4l1.1-0.4C102.9,13.6,103.5,15.7,104.1,18.1z M113,12.1c-0.5,2.4-1.2,4.5-2.1,6.3l-1.2-0.4
				c0.8-1.6,1.5-3.7,2.1-6.2L113,12.1z"/>
			<path class="st2" d="M120,9.2c-0.1,0.3-0.3,0.7-0.5,1h6v1.1c-0.8,1-1.9,1.8-3.1,2.5c1.5,0.6,3.2,0.9,5,1.1l-0.6,1.2
				c-2.2-0.3-4.1-0.8-5.9-1.6c-1.7,0.8-3.6,1.3-5.9,1.6l-0.6-1.2c1.9-0.2,3.6-0.6,5-1.2c-0.7-0.4-1.3-0.8-1.9-1.3
				c-0.5,0.4-1,0.8-1.6,1.1l-0.8-1.1c1.6-0.9,2.7-2.1,3.3-3.4L120,9.2z M121.3,15.3c0,0.5,0,1-0.1,1.4h4.8c0,2.5-0.2,3.9-0.6,4.4
				s-1.1,0.7-2.1,0.7c-0.5,0-1.1,0-1.7-0.1l-0.3-1.2c0.7,0,1.3,0.1,1.8,0.1c0.7,0,1.2-0.2,1.3-0.4c0.2-0.3,0.3-1.1,0.3-2.3h-3.8
				c-0.1,0.3-0.3,0.7-0.4,1c-0.7,1.3-2.3,2.3-4.9,3.1l-0.9-1.1c2.3-0.7,3.8-1.5,4.5-2.5c0.1-0.2,0.2-0.4,0.3-0.5h-3.9v-1.2h4.3
				c0.1-0.4,0.1-0.9,0.1-1.4L121.3,15.3L121.3,15.3z M123.6,11.4h-4.9l-0.1,0.1c0.7,0.6,1.5,1.1,2.4,1.6
				C122,12.6,122.8,12,123.6,11.4z"/>
			<path class="st2" d="M135.5,21.7c-0.9,0-1.6-0.1-2.2-0.2c-0.6-0.2-1-0.5-1.5-1c-0.2-0.2-0.4-0.4-0.5-0.4c-0.3,0-0.8,0.6-1.5,1.9
				l-1-0.9c0.7-1.1,1.3-1.8,1.9-2.1v-4h-1.9v-1.2h3.1v5.3c0.1,0.1,0.1,0.1,0.2,0.2c0.3,0.4,0.7,0.7,1,0.8c0.4,0.2,1,0.3,1.8,0.4
				c0.8,0,1.7,0,2.8,0c0.7,0,1.4,0,2.1,0c0.7,0,1.2,0,1.6-0.1l-0.3,1.3h-3.2C137.2,21.7,136.3,21.7,135.5,21.7z M132.3,11.3l-1,0.9
				c-0.5-0.7-1.3-1.4-2.3-2.3l0.9-0.9C130.8,9.9,131.6,10.6,132.3,11.3z M141.3,12.9v1.3H137c-0.7,1.7-1.3,2.9-1.9,3.8
				c1.6-0.2,2.9-0.4,4-0.7c-0.3-0.7-0.6-1.4-1-2l1.1-0.4c0.7,1.3,1.4,2.7,2,4.4l-1.2,0.3c-0.1-0.4-0.3-0.8-0.4-1.2
				c-1.5,0.4-3.5,0.7-5.9,0.9l-0.3-1.1c0.6-0.2,1.4-1.5,2.4-4.1H133v-1.3C132.8,12.9,141.3,12.9,141.3,12.9z M140.3,9.7v1.2h-6.6
				V9.7H140.3z"/>
			<path class="st2" d="M146.1,9.4c-0.6,1.7-1.2,3-1.9,4.1c0.4-0.1,0.9-0.1,1.3-0.2c0.2-0.5,0.5-1.1,0.7-1.6l1.2,0.4
				c-1.1,2.2-1.9,3.9-2.7,4.9c0.8-0.2,1.6-0.5,2.5-0.9v1.2c-1.4,0.6-2.7,1-4,1.2l-0.4-1.2c0.2-0.1,0.4-0.2,0.6-0.4
				c0.4-0.5,0.9-1.3,1.5-2.4c-0.6,0.1-1.3,0.2-2,0.3l-0.3-1.2c0.2-0.1,0.4-0.3,0.6-0.5c0.6-1.3,1.1-2.7,1.6-4.2L146.1,9.4z
				 M147.5,20.2c-1.4,0.5-2.9,0.9-4.7,1.3l-0.2-1.3c1.9-0.3,3.5-0.7,4.9-1.2V20.2z M149.7,21.9h-1.3v-7.8c-0.3,0.5-0.7,1.1-1.1,1.6
				l-0.4-1.3c1.1-1.6,1.8-3.3,2.2-5.2l1.3,0.3c-0.2,0.7-0.4,1.3-0.6,2h2.2c-0.2-0.7-0.5-1.3-0.8-2l1.3-0.4c0.3,0.9,0.6,1.6,0.7,2.3
				h2v1.3h-2.1v1.6h1.8v1.2h-1.8v1.6h1.8v1.2h-1.8V20h2.4v1.2h-5.8L149.7,21.9L149.7,21.9z M149.7,12.6v1.6h2.2v-1.6H149.7z
				 M149.7,16.9h2.2v-1.6h-2.2V16.9z M149.7,20h2.2v-1.8h-2.2V20z"/>
			<path class="st2" d="M161.1,18.6c-1,1.1-2.1,2.1-3.5,3l-0.8-1.1c1.3-0.8,2.5-1.7,3.4-2.7L161.1,18.6z M160.9,21.9l-0.3-1.3
				c0.5,0.1,1,0.1,1.4,0.1c0.3,0,0.4-0.2,0.4-0.5v-3.1c-1.3,0.1-2.8,0.2-4.3,0.2l-0.4-1.2c0.4,0,0.8-0.1,1.1-0.2
				c1-0.4,2.2-1.1,3.4-2c-1.1,0.1-2.3,0.2-3.6,0.2l-0.3-1.2c0.3,0,0.6-0.1,0.9-0.2c0.6-0.3,1.2-0.9,2-1.7c-1.1,0-2.3,0.1-3.5,0.1
				l-0.4-1.1c4,0,7.4-0.3,10.2-0.8l0.7,1.1c-1.5,0.3-3.2,0.5-5.3,0.7c-0.7,0.8-1.5,1.5-2.3,2.1c1-0.1,2-0.1,2.9-0.2
				c0.6-0.5,1.2-1,1.8-1.6l1.2,0.6c-2.2,1.9-4.2,3.3-5.8,4.3c1.9-0.1,3.6-0.3,5.1-0.4c-0.3-0.4-0.6-0.8-1-1.2l1-0.6
				c1.2,1.3,2.1,2.5,2.7,3.5l-1.1,0.7c-0.3-0.4-0.5-0.9-0.9-1.4c-0.9,0.1-1.9,0.2-3,0.3v3.5c0,0.9-0.4,1.4-1.3,1.4h-1.3V21.9z
				 M169.2,20.7l-1,1c-0.8-1-2-2-3.4-3.1l0.9-0.9C167.1,18.7,168.3,19.7,169.2,20.7z"/>
			<path class="st2" d="M174.2,9.5c-0.7,1.7-1.3,3-2,4.1c0.5-0.1,1-0.1,1.4-0.2c0.2-0.4,0.5-0.9,0.7-1.5l1.2,0.4
				c-1.1,2.1-2.1,3.7-2.8,4.7c0.9-0.2,1.8-0.5,2.6-0.9v1.2c-1.5,0.6-3,1.1-4.3,1.3l-0.4-1.2c0.2-0.1,0.4-0.2,0.6-0.4
				c0.4-0.5,1-1.3,1.6-2.4c-0.6,0.1-1.3,0.2-2,0.3l-0.3-1.2c0.2-0.1,0.4-0.3,0.6-0.5c0.7-1.2,1.3-2.6,1.8-4.2L174.2,9.5z
				 M175.4,19.8c-1.3,0.6-2.7,1.2-4.4,1.6l-0.2-1.3c1.7-0.4,3.2-0.9,4.5-1.5L175.4,19.8L175.4,19.8z M178.1,15.7
				c-0.1,1.8-0.3,3.1-0.7,3.9c-0.4,0.9-1.1,1.6-2,2.3l-0.8-1.1c0.8-0.5,1.3-1.1,1.7-1.8c0.3-0.7,0.5-1.8,0.6-3.3
				C176.8,15.7,178.1,15.7,178.1,15.7z M175.5,14.1c0.1,0,0.2-0.1,0.3-0.1c0.4-0.3,1-1.1,1.6-2.4h-2.2v-1.3h3.4
				c-0.2-0.4-0.4-0.9-0.5-1.3l1.4-0.2c0.2,0.4,0.4,0.9,0.5,1.5h3.1v1.3h-4.3c-0.5,1-1,1.8-1.4,2.3c1.1-0.1,2.3-0.3,3.4-0.4
				c-0.3-0.4-0.6-0.8-0.8-1.1l1-0.6c0.9,1.2,1.6,2.2,2.1,3.1l-1,0.7c-0.2-0.3-0.4-0.6-0.6-1c-1.7,0.3-3.6,0.5-5.7,0.6L175.5,14.1z
				 M181,21.7c-1,0-1.5-0.4-1.5-1.3v-4.8h1.3v4.5c0,0.2,0.1,0.4,0.3,0.4h0.8c0.3,0,0.4-0.2,0.4-0.5c0-0.4,0.1-0.9,0.1-1.6l1.1,0.4
				c0,1.3-0.1,2.2-0.3,2.5s-0.6,0.4-1.3,0.5H181V21.7z"/>
		</g>
	</g>
	<g>
		<g>
			<rect x="122" y="48.5" class="st3" width="182" height="50"/>
			<g>
				<rect x="120.5" y="47" class="st4" width="181" height="49"/>
				<path class="st5" d="M301,47.5v48H121v-48H301 M302,46.5H120v50h182V46.5L302,46.5z"/>
			</g>
		</g>
		<g transform="translate(20 9)">
			<g class="st1">
				<path class="st6" d="M170.5,69.3h-1v-0.9h-7.4v0.9h-1V58.1h3c0.3-0.6,0.5-1.1,0.7-1.7l1,0.1c-0.2,0.6-0.4,1.1-0.7,1.6h5.4V69.3
					L170.5,69.3z M169.5,61.2v-2.1h-7.4v2.1H169.5z M169.5,64.2v-2.1h-7.4v2.1H169.5z M169.5,67.4v-2.3h-7.4v2.3H169.5z"/>
				<path class="st6" d="M174.1,59.8v-1h5.3c-0.2-0.7-0.5-1.5-0.9-2.1l1-0.3c0.4,0.8,0.6,1.5,0.8,2.2l-0.5,0.2h5.8v1h-5.2v3.3h4.5
					V64h-4.5v3.8h5.7v1h-12.4v-1h5.7V64h-4.5v-0.9h4.5v-3.3H174.1L174.1,59.8z"/>
				<path class="st6" d="M191.9,57.9c2.3,0,3.4,1,3.4,2.9c0,2-1.2,3-3.5,3H189v4.1h-1.1v-10H191.9z M189,62.8h2.9
					c0.8,0,1.4-0.2,1.8-0.5c0.4-0.3,0.6-0.8,0.6-1.5s-0.2-1.2-0.6-1.5c-0.4-0.3-1-0.5-1.8-0.5H189V62.8z"/>
				<path class="st6" d="M202.5,61.6c0.6,0.7,0.9,1.6,0.9,2.7s-0.3,2-0.9,2.7c-0.7,0.8-1.5,1.1-2.6,1.1s-1.9-0.4-2.6-1.1
					c-0.6-0.7-0.9-1.6-0.9-2.7s0.3-2,0.9-2.7c0.6-0.8,1.5-1.1,2.6-1.1C201,60.5,201.8,60.8,202.5,61.6z M198.1,62.3
					c-0.4,0.5-0.6,1.2-0.6,2s0.2,1.5,0.6,2c0.4,0.6,1,0.9,1.8,0.9s1.4-0.3,1.8-0.9c0.4-0.5,0.6-1.2,0.6-2c0-0.8-0.2-1.5-0.6-2
					c-0.4-0.6-1.1-0.9-1.8-0.9C199.1,61.4,198.5,61.7,198.1,62.3z"/>
				<path class="st6" d="M209,60.6v1.1c-0.4-0.1-0.7-0.2-1.1-0.2c-0.6,0-1,0.2-1.4,0.7s-0.6,1-0.6,1.7v3.8h-1.1v-7.2h1.1v1.3
					c0.2-0.4,0.4-0.8,0.8-1c0.4-0.3,0.8-0.5,1.3-0.5C208.4,60.5,208.8,60.5,209,60.6z"/>
				<path class="st6" d="M211.9,60.7h1.8v0.9h-1.8v4.6c0,0.3,0,0.5,0.2,0.6c0.1,0.1,0.3,0.2,0.5,0.2h0.9v0.9h-1.1
					c-0.6,0-1-0.2-1.3-0.5c-0.2-0.3-0.4-0.7-0.4-1.2v-4.6h-1.5v-0.9h1.5v-1.9l1.1-0.5L211.9,60.7L211.9,60.7z"/>
				<path class="st6" d="M220.4,61.3c0.4,0.5,0.6,1.1,0.6,2V68h-1v-1.2c-0.3,0.4-0.7,0.7-1.1,1c-0.5,0.3-1.1,0.4-1.8,0.4
					s-1.3-0.2-1.7-0.5c-0.4-0.4-0.7-0.9-0.7-1.5c0-0.8,0.3-1.4,1-1.9c0.6-0.4,1.4-0.6,2.5-0.6h1.7v-0.4c0-1.2-0.6-1.8-1.9-1.8
					c-0.5,0-1,0.1-1.3,0.3c-0.4,0.2-0.6,0.6-0.7,1l-1.1-0.1c0.2-0.8,0.5-1.3,1.1-1.7c0.5-0.3,1.2-0.5,2.1-0.5
					C219.1,60.5,219.9,60.7,220.4,61.3z M218.3,64.4c-1.6,0-2.4,0.6-2.4,1.6c0,0.3,0.1,0.6,0.4,0.8c0.3,0.2,0.6,0.3,1.1,0.3
					c0.7,0,1.3-0.2,1.8-0.7c0.5-0.4,0.8-0.9,0.8-1.5v-0.6L218.3,64.4z"/>
				<path class="st6" d="M224.1,57.7v10.2H223V57.7H224.1z"/>
			</g>
		</g>
	</g>
	<g>
		<g>
			<rect x="325" y="48.5" class="st3" width="182" height="50"/>
			<g>
				<rect x="323.5" y="47" class="st4" width="181" height="49"/>
				<path class="st5" d="M504,47.5v48H324v-48H504 M505,46.5H323v50h182V46.5L505,46.5z"/>
			</g>
		</g>
		<g transform="translate(20 9)">
			<g class="st1">
				<path class="st6" d="M353.8,56.6v11.1h2V56.6h1v11.1h4.2v1h-12.4v-1h4.2V56.6H353.8z M351.8,65.6l-0.9,0.2
					c-0.5-2.2-1.1-4.4-1.9-6.5l0.9-0.3C350.5,61,351.2,63.2,351.8,65.6z M360.6,59.4c-0.6,2.4-1.3,4.6-2.1,6.4l-0.9-0.3
					c0.8-1.7,1.5-3.8,2.1-6.3L360.6,59.4z"/>
				<path class="st6" d="M367.6,56.6c-0.2,0.4-0.3,0.7-0.5,1.1h6.1v0.8c-0.9,1-2,1.9-3.3,2.6c1.6,0.7,3.3,1.1,5.3,1.3l-0.5,0.9
					c-2.2-0.3-4.2-0.8-5.9-1.7c-1.7,0.8-3.7,1.4-6,1.7l-0.5-1c2-0.3,3.8-0.7,5.4-1.3c-0.8-0.5-1.5-1-2.2-1.6
					c-0.5,0.5-1.1,0.9-1.8,1.3l-0.6-0.8c1.7-1,2.8-2.1,3.4-3.5L367.6,56.6z M369,62.6c0,0.6-0.1,1.1-0.1,1.6h4.9
					c0,2.4-0.2,3.8-0.6,4.2c-0.4,0.5-1.1,0.7-2.1,0.7c-0.4,0-1,0-1.6-0.1l-0.3-0.9l1.7,0.1c0.8,0,1.4-0.2,1.6-0.5s0.3-1.2,0.4-2.6
					h-4.1c-0.1,0.4-0.3,0.7-0.4,1.1c-0.7,1.3-2.4,2.3-4.9,3.1l-0.7-0.8c2.3-0.7,3.8-1.5,4.6-2.5c0.2-0.3,0.3-0.5,0.4-0.8h-4.2v-0.9
					h4.5c0.1-0.5,0.2-1,0.2-1.6C368,62.6,369,62.6,369,62.6z M371.8,58.6h-5.4l-0.2,0.2c0.8,0.7,1.7,1.3,2.6,1.8
					C370,60,371,59.3,371.8,58.6z"/>
				<path class="st6" d="M377.4,59.9l-0.9-0.6c0.8-0.9,1.5-1.8,1.8-2.9l1,0.2c-0.1,0.3-0.2,0.6-0.4,0.9h3.8v0.9h-2.4
					c0.3,0.4,0.6,0.8,0.8,1.2l-0.9,0.4c-0.3-0.5-0.6-1.1-0.9-1.6h-0.8C378.2,58.9,377.9,59.4,377.4,59.9z M388.7,62.8h-1v-1.7h-9.9
					v1.7h-1v-2.5h5.5c-0.1-0.3-0.3-0.6-0.4-0.9l1-0.2l-0.1-0.1c0.7-0.8,1.1-1.8,1.5-2.8l1,0.2c-0.1,0.3-0.2,0.6-0.3,0.9h4v0.9h-2.5
					c0.3,0.4,0.5,0.8,0.7,1.1l-0.9,0.3c-0.3-0.5-0.5-1-0.9-1.4h-0.9c-0.3,0.5-0.5,0.9-0.9,1.3l-0.8-0.5c0.2,0.3,0.3,0.7,0.4,1.1h5.3
					v2.6H388.7z M386.8,64.7h-7v1h7.6v3.6h-1v-0.6h-6.6v0.6h-1V62h8V64.7z M385.8,63.9v-1.1h-6v1.1H385.8z M386.5,67.8v-1.3h-6.6
					v1.3H386.5L386.5,67.8z"/>
				<path class="st6" d="M392.2,61.6v-3.3h-1.7v-1h4.5v1h-1.7v3.3h1.5v1h-1.5v3.2c0.5-0.2,1-0.4,1.5-0.6v1c-1.3,0.5-2.7,1-4.2,1.3
					l-0.3-1c0.6-0.1,1.2-0.3,1.8-0.4v-3.5h-1.5v-1H392.2L392.2,61.6z M402.5,57v6.5h-2.9v1.7h3.2v1h-3.2V68h3.7v1h-8.4v-1h3.8v-1.8
					h-3.2v-1h3.2v-1.7h-2.9V57H402.5z M398.6,59.8v-1.9h-2v1.9H398.6z M398.6,60.7h-2v1.9h2V60.7z M399.6,59.8h1.9v-1.9h-1.9V59.8z
					 M401.5,60.7h-1.9v1.9h1.9V60.7z"/>
				<path class="st6" d="M408.9,57.9c2.3,0,3.4,1,3.4,2.9c0,2-1.2,3-3.5,3H406v4.1h-1.1v-10H408.9z M406,62.8h2.9
					c0.8,0,1.4-0.2,1.8-0.5s0.6-0.8,0.6-1.5s-0.2-1.2-0.6-1.5s-1-0.5-1.8-0.5H406V62.8z"/>
				<path class="st6" d="M419.5,61.6c0.6,0.7,0.9,1.6,0.9,2.7s-0.3,2-0.9,2.7c-0.7,0.8-1.5,1.1-2.6,1.1s-1.9-0.4-2.6-1.1
					c-0.6-0.7-0.9-1.6-0.9-2.7s0.3-2,0.9-2.7c0.6-0.8,1.5-1.1,2.6-1.1C418,60.5,418.8,60.8,419.5,61.6z M415.1,62.3
					c-0.4,0.5-0.6,1.2-0.6,2s0.2,1.5,0.6,2c0.4,0.6,1,0.9,1.8,0.9s1.4-0.3,1.8-0.9c0.4-0.5,0.6-1.2,0.6-2c0-0.8-0.2-1.5-0.6-2
					c-0.4-0.6-1-0.9-1.8-0.9S415.5,61.7,415.1,62.3z"/>
				<path class="st6" d="M426,60.6v1.1c-0.4-0.1-0.7-0.2-1.1-0.2c-0.6,0-1,0.2-1.4,0.7s-0.6,1-0.6,1.7v3.8h-1.1v-7.2h1.1v1.3
					c0.2-0.4,0.4-0.8,0.8-1c0.4-0.3,0.8-0.5,1.3-0.5C425.4,60.5,425.8,60.5,426,60.6z"/>
				<path class="st6" d="M428.9,60.7h1.8v0.9h-1.8v4.6c0,0.3,0,0.5,0.2,0.6c0.1,0.1,0.3,0.2,0.5,0.2h0.9v0.9h-1.1
					c-0.6,0-1-0.2-1.3-0.5c-0.2-0.3-0.4-0.7-0.4-1.2v-4.6h-1.5v-0.9h1.5v-1.9l1.1-0.5L428.9,60.7L428.9,60.7z"/>
				<path class="st6" d="M437.4,61.3c0.4,0.5,0.6,1.1,0.6,2V68h-1v-1.2c-0.3,0.4-0.7,0.7-1.1,1c-0.5,0.3-1.1,0.4-1.8,0.4
					c-0.7,0-1.3-0.2-1.7-0.5c-0.4-0.4-0.7-0.9-0.7-1.5c0-0.8,0.3-1.4,1-1.9c0.6-0.4,1.4-0.6,2.5-0.6h1.7v-0.4c0-1.2-0.6-1.8-1.9-1.8
					c-0.5,0-1,0.1-1.3,0.3c-0.4,0.2-0.6,0.6-0.7,1l-1.1-0.1c0.2-0.8,0.5-1.3,1.1-1.7c0.5-0.3,1.2-0.5,2.1-0.5
					C436.1,60.5,436.9,60.7,437.4,61.3z M435.3,64.4c-1.6,0-2.4,0.6-2.4,1.6c0,0.3,0.1,0.6,0.4,0.8c0.3,0.2,0.6,0.3,1.1,0.3
					c0.7,0,1.3-0.2,1.8-0.7c0.5-0.4,0.8-0.9,0.8-1.5v-0.6L435.3,64.4z"/>
				<path class="st6" d="M441.1,57.7v10.2H440V57.7H441.1z"/>
			</g>
		</g>
	</g>
	<g>
		<g>
			<rect x="528" y="48.5" class="st3" width="182" height="50"/>
			<g>
				<rect x="526.5" y="47" class="st4" width="181" height="49"/>
				<path class="st5" d="M707,47.5v48H527v-48H707 M708,46.5H526v50h182V46.5L708,46.5z"/>
			</g>
		</g>
		<g transform="translate(20 9)">
			<g class="st1">
				<path class="st6" d="M572.3,69c-0.9,0-1.6-0.1-2.2-0.3c-0.5-0.2-1-0.5-1.5-1c-0.2-0.2-0.4-0.3-0.5-0.3c-0.3,0-0.9,0.6-1.7,1.9
					l-0.8-0.7c0.8-1.2,1.4-1.9,2-2.1v-4.3h-2v-0.9h2.9v5.3c0.1,0.1,0.2,0.2,0.3,0.3c0.3,0.4,0.7,0.7,1.1,0.9
					c0.4,0.2,1.1,0.3,1.9,0.3c0.7,0,1.6,0,2.7,0c0.7,0,1.4,0,2.1,0c0.7,0,1.2,0,1.6-0.1l-0.3,1h-3.2C574,69,573.1,69,572.3,69z
					 M569,58.8l-0.7,0.7c-0.6-0.7-1.4-1.4-2.4-2.3l0.7-0.7C567.5,57.3,568.3,58.1,569,58.8z M578,60.4v1h-4.4
					c-0.8,2-1.5,3.4-2.1,4.2c1.8-0.2,3.3-0.4,4.5-0.7c-0.3-0.8-0.7-1.5-1.1-2.3l0.8-0.3c0.8,1.3,1.4,2.8,2,4.4l-0.9,0.2
					c-0.1-0.4-0.3-0.9-0.5-1.2c-1.5,0.4-3.6,0.7-6.1,0.9l-0.3-0.9c0.6-0.2,1.4-1.6,2.5-4.4h-2.9v-1L578,60.4L578,60.4z M577,57.2
					v0.9h-6.4v-0.9H577z"/>
				<path class="st6" d="M584.3,67.5c-1.4,0.5-3,1-4.7,1.3l-0.1-1c1.8-0.3,3.5-0.7,4.9-1.3L584.3,67.5L584.3,67.5z M582.8,56.8
					c-0.7,1.8-1.3,3.2-2,4.3c0.6-0.1,1.2-0.2,1.8-0.3c0.3-0.5,0.5-1.1,0.8-1.7l0.9,0.3c-1.2,2.4-2.1,4.1-2.9,5.2
					c0.9-0.2,1.8-0.5,2.8-0.9v0.9c-1.4,0.6-2.7,1-4,1.2l-0.3-0.9c0.2-0.1,0.3-0.2,0.5-0.3c0.5-0.6,1.1-1.5,1.8-2.9
					c-0.7,0.1-1.5,0.3-2.2,0.4l-0.3-0.9c0.2-0.1,0.3-0.2,0.4-0.4c0.7-1.3,1.3-2.8,1.8-4.4L582.8,56.8z M586.3,69.3h-1V61
					c-0.4,0.7-0.8,1.3-1.3,1.9l-0.3-1c1.1-1.7,1.9-3.4,2.4-5.4l1,0.2c-0.2,0.8-0.4,1.5-0.7,2.2h2.5c-0.2-0.7-0.5-1.5-0.8-2.2l1-0.3
					c0.3,0.8,0.6,1.6,0.7,2.3l-0.4,0.1h2.5v1h-2.2v1.9h2v0.9h-2v1.9h2v0.9h-2v2.1h2.5v0.9h-6L586.3,69.3L586.3,69.3z M586.3,59.8
					v1.9h2.5v-1.9H586.3z M586.3,64.5h2.5v-1.9h-2.5V64.5z M586.3,67.6h2.5v-2.1h-2.5V67.6z"/>
				<path class="st6" d="M597.9,57.9c2.3,0,3.4,1,3.4,2.9c0,2-1.2,3-3.5,3H595v4.1h-1.1v-10H597.9z M595,62.8h2.9
					c0.8,0,1.4-0.2,1.8-0.5c0.4-0.3,0.6-0.8,0.6-1.5s-0.2-1.2-0.6-1.5c-0.4-0.3-1-0.5-1.8-0.5H595V62.8z"/>
				<path class="st6" d="M608.5,61.6c0.6,0.7,0.9,1.6,0.9,2.7s-0.3,2-0.9,2.7c-0.7,0.8-1.5,1.1-2.6,1.1s-1.9-0.4-2.6-1.1
					c-0.6-0.7-0.9-1.6-0.9-2.7s0.3-2,0.9-2.7c0.6-0.8,1.5-1.1,2.6-1.1C607,60.5,607.8,60.8,608.5,61.6z M604.1,62.3
					c-0.4,0.5-0.6,1.2-0.6,2s0.2,1.5,0.6,2c0.4,0.6,1,0.9,1.8,0.9s1.4-0.3,1.8-0.9c0.4-0.5,0.6-1.2,0.6-2c0-0.8-0.2-1.5-0.6-2
					c-0.4-0.6-1-0.9-1.8-0.9S604.5,61.7,604.1,62.3z"/>
				<path class="st6" d="M615,60.6v1.1c-0.4-0.1-0.7-0.2-1.1-0.2c-0.6,0-1,0.2-1.4,0.7s-0.6,1-0.6,1.7v3.8h-1.1v-7.2h1.1v1.3
					c0.2-0.4,0.4-0.8,0.8-1c0.4-0.3,0.8-0.5,1.3-0.5C614.4,60.5,614.8,60.5,615,60.6z"/>
				<path class="st6" d="M617.9,60.7h1.8v0.9h-1.8v4.6c0,0.3,0,0.5,0.2,0.6c0.1,0.1,0.3,0.2,0.5,0.2h0.9v0.9h-1.1
					c-0.6,0-1-0.2-1.3-0.5c-0.2-0.3-0.4-0.7-0.4-1.2v-4.6h-1.5v-0.9h1.5v-1.9l1.1-0.5L617.9,60.7L617.9,60.7z"/>
				<path class="st6" d="M626.4,61.3c0.4,0.5,0.6,1.1,0.6,2V68h-1v-1.2c-0.3,0.4-0.7,0.7-1.1,1c-0.5,0.3-1.1,0.4-1.8,0.4
					s-1.3-0.2-1.7-0.5c-0.4-0.4-0.7-0.9-0.7-1.5c0-0.8,0.3-1.4,1-1.9c0.6-0.4,1.4-0.6,2.5-0.6h1.7v-0.4c0-1.2-0.6-1.8-1.9-1.8
					c-0.5,0-1,0.1-1.3,0.3c-0.4,0.2-0.6,0.6-0.7,1l-1.1-0.1c0.2-0.8,0.5-1.3,1.1-1.7c0.5-0.3,1.2-0.5,2.1-0.5
					C625.1,60.5,625.9,60.7,626.4,61.3z M624.3,64.4c-1.6,0-2.4,0.6-2.4,1.6c0,0.3,0.1,0.6,0.4,0.8c0.3,0.2,0.6,0.3,1.1,0.3
					c0.7,0,1.3-0.2,1.8-0.7c0.5-0.4,0.8-0.9,0.8-1.5v-0.6L624.3,64.4z"/>
				<path class="st6" d="M630.1,57.7v10.2H629V57.7H630.1z"/>
			</g>
		</g>
	</g>
	<g id="GrayRectGroup6_5_" transform="translate(669.5,130)">
		<rect x="-565.5" y="29.5" class="st0" width="622" height="114"/>
	</g>
	<g transform="translate(20 9)">
		<g class="st1">
			<path class="st2" d="M109,170.8c0.8,0.9,1.3,2.2,1.3,3.7s-0.4,2.8-1.3,3.7c-0.9,1-2.1,1.5-3.6,1.5s-2.7-0.5-3.6-1.5
				c-0.8-1-1.2-2.2-1.2-3.7s0.4-2.8,1.2-3.7c0.9-1,2.1-1.5,3.6-1.5S108.1,169.8,109,170.8z M102.9,171.7c-0.6,0.7-0.8,1.6-0.8,2.8
				s0.3,2.1,0.8,2.8c0.6,0.7,1.4,1.1,2.5,1.1s1.9-0.4,2.5-1c0.6-0.7,0.9-1.6,0.9-2.8s-0.3-2.1-0.9-2.8s-1.4-1-2.5-1
				C104.3,170.6,103.5,171,102.9,171.7z"/>
			<path class="st2" d="M117.8,173.2c0.6,0.7,0.8,1.6,0.8,2.7c0,1.1-0.3,1.9-0.8,2.6c-0.6,0.8-1.4,1.1-2.5,1.1
				c-0.9,0-1.6-0.4-2.2-1.3v3.8h-1.5v-10h1.4v0.9c0.5-0.7,1.3-1.1,2.2-1.1C116.4,172.1,117.2,172.4,117.8,173.2z M113.6,174
				c-0.3,0.4-0.5,1.1-0.5,1.8v0.1c0,0.8,0.2,1.4,0.6,1.9c0.3,0.4,0.8,0.7,1.3,0.7c0.7,0,1.3-0.2,1.6-0.7c0.3-0.4,0.5-1.1,0.5-1.9
				s-0.2-1.4-0.4-1.9c-0.3-0.5-0.9-0.8-1.6-0.8C114.4,173.3,113.9,173.5,113.6,174z"/>
			<path class="st2" d="M125.8,173.3c0.6,0.7,0.9,1.7,0.9,3h-5.5c0.1,0.7,0.2,1.2,0.6,1.6c0.3,0.4,0.8,0.6,1.4,0.6
				c0.5,0,0.9-0.1,1.3-0.4c0.3-0.2,0.5-0.5,0.7-0.9h1.5c-0.2,0.7-0.5,1.2-1,1.7c-0.6,0.5-1.4,0.8-2.4,0.8c-1.1,0-1.9-0.3-2.5-1
				c-0.7-0.7-1-1.6-1-2.8c0-1.1,0.3-2,1-2.7c0.6-0.7,1.5-1.1,2.5-1.1C124.3,172.1,125.2,172.5,125.8,173.3z M121.8,173.8
				c-0.3,0.3-0.5,0.8-0.6,1.4h3.9c-0.1-1.3-0.8-1.9-2-1.9C122.6,173.3,122.1,173.4,121.8,173.8z"/>
			<path class="st2" d="M134.3,175v4.5h-1.5v-4.3c0-1.2-0.6-1.8-1.7-1.8c-0.4,0-0.8,0.1-1.1,0.4c-0.3,0.3-0.5,0.8-0.6,1.4v4.4h-1.5
				v-7.2h1.5v0.9c0.3-0.4,0.6-0.6,1-0.8s0.8-0.3,1.2-0.3C133.4,172.1,134.3,173,134.3,175z"/>
			<path class="st2" d="M141.8,174.3h-1.4c-0.1-0.4-0.3-0.7-0.5-0.8c-0.3-0.2-0.6-0.3-1.1-0.3c-0.4,0-0.8,0.1-1,0.2
				c-0.3,0.1-0.4,0.4-0.4,0.6c0,0.3,0.2,0.5,0.6,0.6c0.3,0.1,0.7,0.3,1.5,0.4c0.8,0.2,1.4,0.4,1.8,0.7c0.6,0.4,0.9,0.9,0.9,1.5
				c0,1.5-1.1,2.3-3.2,2.3c-2,0-3.1-0.9-3.2-2.5h1.5c0.1,0.5,0.3,0.8,0.5,1c0.3,0.2,0.6,0.3,1.2,0.3c1.1,0,1.7-0.3,1.7-1
				c0-0.4-0.2-0.6-0.6-0.8c-0.2-0.1-0.7-0.3-1.5-0.4c-0.9-0.2-1.5-0.4-1.8-0.6c-0.6-0.4-0.8-0.8-0.8-1.5s0.3-1.2,0.8-1.5
				c0.5-0.4,1.3-0.6,2.1-0.6C140.6,172.1,141.6,172.8,141.8,174.3z"/>
			<path class="st2" d="M145.5,172.3h1.7v1.2h-1.7v4.2c0,0.2,0,0.3,0.1,0.4c0.1,0.1,0.2,0.1,0.4,0.1h1v1.2h-1.2
				c-0.6,0-1.1-0.2-1.4-0.5c-0.3-0.3-0.4-0.7-0.4-1.3v-4.2h-1.3v-1.2h1.3v-1.7l1.5-0.6L145.5,172.3L145.5,172.3z"/>
			<path class="st2" d="M153.9,172.9c0.4,0.5,0.7,1.1,0.7,2v4.6h-1.4v-1c-0.3,0.4-0.6,0.7-1.1,0.9s-1,0.4-1.7,0.4
				c-0.8,0-1.3-0.2-1.8-0.6c-0.5-0.4-0.7-0.9-0.7-1.5c0-0.8,0.3-1.4,1-1.9c0.6-0.4,1.4-0.6,2.5-0.7h1.6v-0.3c0-1-0.5-1.5-1.6-1.5
				c-0.5,0-0.8,0.1-1.1,0.3s-0.5,0.5-0.6,0.9l-1.5-0.1c0.2-0.8,0.5-1.4,1.2-1.7c0.5-0.3,1.3-0.5,2.2-0.5
				C152.6,172.1,153.4,172.3,153.9,172.9z M151.6,176.2c-1.4,0-2,0.5-2,1.4c0,0.3,0.1,0.5,0.4,0.7c0.2,0.2,0.5,0.3,0.9,0.3
				c0.6,0,1.2-0.2,1.6-0.6s0.7-0.9,0.7-1.4v-0.4H151.6z"/>
			<path class="st2" d="M161.7,172.7c0.6,0.4,0.9,1.1,1.1,2h-1.5c-0.1-0.5-0.3-0.9-0.6-1.1c-0.3-0.2-0.7-0.4-1.2-0.4
				c-0.6,0-1.1,0.2-1.4,0.7c-0.4,0.4-0.5,1.1-0.5,1.9s0.2,1.5,0.5,1.9s0.8,0.7,1.4,0.7c1.1,0,1.7-0.6,1.9-1.7h1.5
				c-0.2,1-0.5,1.7-1.1,2.2s-1.3,0.7-2.2,0.7c-1.1,0-2-0.4-2.6-1.1c-0.6-0.7-0.9-1.6-0.9-2.7c0-1.1,0.3-2,0.9-2.7
				c0.6-0.8,1.5-1.1,2.6-1.1C160.4,172.1,161.2,172.3,161.7,172.7z"/>
			<path class="st2" d="M165.6,169.3v5.9l3.1-3h1.9l-3.2,3l3.5,4.3H169l-2.6-3.3l-0.8,0.8v2.5h-1.5v-10.2H165.6L165.6,169.3z"/>
			<path class="st2" d="M188.9,172.6v1.3h-6.6c-1.2,2.4-2.3,4.1-3.2,5.2c2.3-0.1,4.6-0.4,6.9-0.7c-0.4-0.8-0.9-1.6-1.5-2.5l1.1-0.7
				c1.3,1.9,2.3,3.5,3,4.9l-1.2,0.8c-0.2-0.5-0.4-1-0.7-1.4c-2.8,0.4-5.9,0.7-9.2,0.9l-0.4-1.4c0.1,0,0.3-0.1,0.3-0.1
				c0.9-0.6,2-2.4,3.4-5.1h-4.5v-1.3h12.6V172.6z M187.7,168.7v1.3h-10.1v-1.3H187.7z"/>
			<path class="st2" d="M198.6,170.8c0.8,0.9,1.3,2.2,1.3,3.7s-0.4,2.8-1.3,3.7c-0.9,1-2.1,1.5-3.6,1.5s-2.7-0.5-3.6-1.5
				c-0.8-1-1.2-2.2-1.2-3.7s0.4-2.8,1.2-3.7c0.9-1,2.1-1.5,3.6-1.5S197.7,169.8,198.6,170.8z M192.5,171.7c-0.6,0.7-0.8,1.6-0.8,2.8
				s0.3,2.1,0.8,2.8c0.6,0.7,1.4,1.1,2.5,1.1s1.9-0.4,2.5-1c0.6-0.7,0.9-1.6,0.9-2.8s-0.3-2.1-0.9-2.8c-0.6-0.7-1.4-1-2.5-1
				C193.9,170.6,193.1,171,192.5,171.7z"/>
			<path class="st2" d="M207.6,170c0.7,0.5,1.1,1.3,1.2,2.4h-1.5c-0.1-0.6-0.4-1.1-0.8-1.4c-0.4-0.3-1-0.4-1.7-0.4s-1.2,0.1-1.5,0.3
				c-0.4,0.2-0.6,0.6-0.6,1.1c0,0.4,0.2,0.8,0.7,1.1c0.2,0.1,0.8,0.3,1.7,0.6c1.3,0.4,2.2,0.7,2.6,1c0.9,0.5,1.3,1.2,1.3,2.2
				c0,0.9-0.4,1.6-1.1,2.1c-0.7,0.5-1.7,0.8-2.9,0.8s-2.2-0.3-2.9-0.7c-0.8-0.6-1.3-1.5-1.4-2.8h1.5c0.1,0.8,0.4,1.4,0.8,1.7
				c0.4,0.3,1,0.5,1.9,0.5c0.8,0,1.4-0.1,1.8-0.4s0.7-0.6,0.7-1.1c0-0.6-0.3-1-1-1.3c-0.2-0.1-0.9-0.3-2-0.7c-1.2-0.4-2-0.7-2.3-0.8
				c-0.8-0.5-1.1-1.1-1.1-2s0.4-1.6,1.1-2.1c0.7-0.5,1.6-0.7,2.6-0.7C206,169.3,206.9,169.5,207.6,170z"/>
			<path class="st2" d="M217.2,175.3v1.2h-7.1v-1.2H217.2z"/>
			<path class="st2" d="M231.3,172.6v1.3h-6.6c-1.2,2.4-2.3,4.1-3.2,5.2c2.3-0.1,4.6-0.4,6.9-0.7c-0.4-0.8-0.9-1.6-1.5-2.5l1.1-0.7
				c1.3,1.9,2.3,3.5,3,4.9l-1.2,0.8c-0.2-0.5-0.4-1-0.7-1.4c-2.8,0.4-5.9,0.7-9.2,0.9l-0.4-1.4c0.1,0,0.3-0.1,0.3-0.1
				c0.9-0.6,2-2.4,3.4-5.1h-4.5v-1.3h12.6V172.6z M230,168.7v1.3h-10v-1.3H230z"/>
			<path class="st2" d="M235.4,169v-1h1.3v1h4.5v-1h1.3v1h2.4v1.1h-2.4v4.4h2.6v1.1h-2.7c0.7,0.7,1.7,1.2,2.9,1.7l-0.5,1.1
				c-1-0.4-1.8-0.9-2.4-1.4v1.1h-2.7v1.1h4.7v1.2h-10.8v-1.2h4.8v-1.1h-2.8V177c-0.6,0.5-1.4,1-2.2,1.4l-0.7-1.1
				c1.3-0.4,2.2-1,2.8-1.7h-2.7v-1.1h2.6v-4.4H233V169H235.4L235.4,169z M238.3,177v-1h1.3v1h2.7c-0.5-0.4-0.9-0.9-1.2-1.3h-4.3
				c-0.3,0.5-0.7,0.9-1.2,1.3H238.3z M241.2,170.9v-0.8h-4.5v0.8H241.2z M241.2,172.7v-0.8h-4.5v0.8H241.2z M241.2,174.5v-0.8h-4.5
				v0.8H241.2z"/>
			<path class="st2" d="M246.7,170v-1.3h4.8v1.3h-2c-0.2,1-0.4,2-0.7,2.9h2.5v7.6h-1.1v-0.8H249v0.9h-1.2v-5.7
				c-0.2,0.4-0.5,0.8-0.8,1.2l-0.7-1.1c1-1.5,1.6-3.2,1.9-5.1L246.7,170L246.7,170z M250.1,178.6V174H249v4.6H250.1z M257.5,169.2
				h1.2v4.8h-2.6v5h1.6v-4h1.2v6h-1.2v-0.8h-4.4v0.8h-1.2v-6h1.2v3.9h1.6v-5h-2.6v-4.8h1.2v3.6h1.4V168h1.2v4.7h1.4V169.2
				L257.5,169.2z"/>
			<path class="st2" d="M261.6,181l-1-0.9c0.6-1.2,0.8-2.8,0.9-4.7v-6.9h4.4v11c0,1-0.4,1.4-1.3,1.4h-1.1l-0.3-1.2
				c0.4,0,0.7,0.1,1.1,0.1c0.3,0,0.4-0.3,0.4-0.7v-2.8h-2C262.5,178.1,262.1,179.7,261.6,181z M264.6,169.7h-2v2.1h2V169.7z
				 M262.6,175h2v-2h-2V175z M268,181h-1.2v-12.4h5.9c0,1.8-0.1,3-0.3,3.6c-0.2,0.6-0.7,0.9-1.6,0.9h-1.2l-0.4-1.1
				c0.2,0,0.5,0,0.9,0c0.3,0,0.5,0,0.7-0.1c0.1,0,0.3-0.2,0.3-0.4c0.1-0.2,0.1-0.8,0.2-1.8H268v3.9h4.7v1.1
				c-0.3,1.4-0.7,2.6-1.3,3.5c0.6,0.5,1.2,1,2,1.5l-0.7,1.1c-0.8-0.5-1.5-1-2.1-1.6c-0.6,0.6-1.3,1.2-2,1.6l-0.7-1L268,181L268,181z
				 M268,179.9c0.7-0.4,1.3-0.9,1.9-1.5c-0.8-1-1.4-2.2-1.7-3.5H268V179.9z M270.6,177.3c0.4-0.7,0.7-1.6,1-2.5h-2.2
				C269.6,175.8,270,176.6,270.6,177.3z"/>
			<path class="st2" d="M279.9,168.2c-0.1,0.3-0.3,0.7-0.5,1h6v1.1c-0.8,1-1.9,1.8-3.1,2.5c1.5,0.6,3.2,0.9,5,1.1l-0.6,1.2
				c-2.2-0.3-4.1-0.8-5.9-1.6c-1.7,0.8-3.6,1.3-5.9,1.6l-0.6-1.2c1.9-0.2,3.6-0.6,5-1.2c-0.7-0.4-1.3-0.8-1.9-1.3
				c-0.5,0.4-1,0.8-1.6,1.1l-0.8-1.1c1.6-0.9,2.7-2.1,3.3-3.4L279.9,168.2z M281.2,174.3c0,0.5,0,1-0.1,1.4h4.8
				c0,2.5-0.2,3.9-0.6,4.4s-1.1,0.7-2.1,0.7c-0.5,0-1.1,0-1.7-0.1l-0.3-1.2c0.7,0,1.3,0.1,1.8,0.1c0.7,0,1.2-0.2,1.3-0.4
				c0.2-0.3,0.3-1.1,0.3-2.3h-3.8c-0.1,0.3-0.3,0.7-0.4,1c-0.7,1.3-2.3,2.3-4.9,3.1l-0.9-1.1c2.3-0.7,3.8-1.5,4.5-2.5
				c0.1-0.2,0.2-0.4,0.3-0.5h-3.9v-1.2h4.3c0.1-0.4,0.1-0.9,0.1-1.4H281.2L281.2,174.3z M283.5,170.4h-4.9l-0.1,0.1
				c0.7,0.6,1.5,1.1,2.4,1.6C281.9,171.6,282.7,171,283.5,170.4z"/>
		</g>
	</g>
	<g>
		<g>
			<rect x="122" y="207.5" class="st3" width="130" height="50"/>
			<g>
				<rect x="120.5" y="206" class="st4" width="129" height="49"/>
				<path class="st5" d="M249,206.5v48H121v-48H249 M250,205.5H120v50h130V205.5L250,205.5z"/>
			</g>
		</g>
		<g transform="translate(20 9)">
			<g class="st1">
				<path class="st6" d="M145,222.7c-0.9,0-1.3-0.4-1.3-1.2V221l-2.3,0.3l-0.1-0.8l2.4-0.3v-1.3h-3v3.6c0,2.3-0.4,4.3-1.3,5.9
					l-0.8-0.7c0.7-1.4,1.1-3.1,1.1-5.2v-4.6h4.5v-2.6h1v0.8h4.6v0.8h-4.6v0.9h5.6v0.5c-0.2,0.7-0.4,1.4-0.7,2.1l-1-0.3
					c0.2-0.4,0.4-0.9,0.6-1.4h-5.1v1.2l3.8-0.4l0.1,0.8l-3.9,0.4v0.4c0,0.4,0.2,0.6,0.5,0.6h3c0.3,0,0.6-0.1,0.7-0.1
					c0.2-0.1,0.3-0.5,0.4-1.1l0.9,0.3c-0.1,0.8-0.3,1.3-0.6,1.5s-0.7,0.2-1.2,0.2L145,222.7L145,222.7z M145.2,223.2v3.9h1.6v-3.9h1
					v3.9h3.4v0.9h-10.4v-0.9h3.4v-3.9H145.2z M143.5,226.2l-0.9,0.4c-0.4-1.1-0.8-2.1-1.3-2.9l0.9-0.3
					C142.7,224.3,143.2,225.2,143.5,226.2z M150.7,223.8c-0.4,1-0.9,1.9-1.6,2.8l-0.8-0.4c0.7-0.9,1.2-1.9,1.6-2.8L150.7,223.8z"/>
				<path class="st6" d="M153.1,228.1l-0.2-1c0.4,0,0.7,0.1,1.1,0.1s0.5-0.2,0.5-0.7v-3.3c-0.5,0.2-1.1,0.4-1.6,0.5l-0.2-1
					c0.6-0.1,1.2-0.3,1.8-0.5V219h-1.6v-1h1.6v-2.6h1v2.6h1.4v1h-1.4v2.9c0.5-0.2,1-0.5,1.5-0.8v1c-0.5,0.3-1,0.5-1.5,0.7v3.9
					c0,0.9-0.4,1.3-1.2,1.3L153.1,228.1L153.1,228.1z M157.1,225.6c0.3-0.2,0.5-0.4,0.5-0.7v-9h1v9.2c0.7-0.3,1.3-0.7,2-1.1l0.3,0.9
					c-1.1,0.6-2.2,1.1-3.4,1.6L157.1,225.6z M164.1,215.6c0,2.7-0.2,4.9-0.6,6.8c-0.1,0.5-0.3,1-0.4,1.4c1,1.5,1.8,2.8,2.4,3.9
					l-0.8,0.5c-0.5-1.1-1.2-2.2-2-3.5c-0.7,1.4-1.6,2.6-2.9,3.6l-0.6-0.8c1.7-1.4,2.8-3.1,3.3-5.2c0.4-1.8,0.6-4,0.6-6.8h1V215.6z
					 M162,220.7l-0.8,0.4c-0.5-1.4-1.1-2.6-1.7-3.7l0.8-0.3C161,218.2,161.5,219.4,162,220.7z"/>
				<path class="st6" d="M169.7,219.7v6.2c0.5-0.4,1.1-0.9,1.7-1.5l0.3,1c-0.9,0.8-1.8,1.6-2.8,2.2l-0.4-0.9
					c0.2-0.2,0.3-0.4,0.3-0.6v-5.6h-2.1v-1L169.7,219.7L169.7,219.7z M170.7,217.7l-0.7,0.7c-0.6-0.7-1.4-1.4-2.4-2.2l0.7-0.7
					C169.2,216.3,170,217,170.7,217.7z M174.8,219.7v-4.2h1v4.2h3.6v1h-3.6v7.7h-1v-7.7H171v-1H174.8z"/>
				<path class="st6" d="M191.7,218.6v5.5H190v0.9h3.2v0.9H190v2.4h-1V226h-4c-0.1,0.4-0.3,0.8-0.6,1.1c-0.5,0.5-1.3,1-2.3,1.3
					l-0.5-0.8c1-0.3,1.7-0.6,2.1-1.1c0.1-0.2,0.2-0.3,0.3-0.5h-3.2v-0.9h3.4c0-0.1,0-0.3,0-0.4v-0.5h-1.8v-5.5L191.7,218.6
					L191.7,218.6z M181.7,218.8l-0.8-0.5c0.9-0.9,1.5-1.9,1.8-2.9l1,0.2c-0.1,0.3-0.2,0.6-0.4,0.8h3.5v0.9H185
					c0.2,0.3,0.4,0.6,0.6,0.9l-0.8,0.3c-0.2-0.4-0.5-0.8-0.8-1.2h-1.1C182.6,217.8,182.2,218.3,181.7,218.8z M190.7,220.2v-0.8h-7.3
					v0.8H190.7z M190.7,221.7V221h-7.3v0.8h7.3V221.7z M190.7,222.5h-7.3v0.9h7.3V222.5z M185.3,224.7c0,0.1,0,0.3,0,0.4h3.8v-0.9
					h-3.8V224.7L185.3,224.7z M187.7,218.5l-0.8-0.5c0.7-0.8,1.2-1.7,1.5-2.6l1,0.2l-0.3,0.8h4v0.9h-2.3c0.3,0.3,0.4,0.6,0.6,0.9
					l-0.8,0.3c-0.2-0.4-0.5-0.8-0.8-1.2h-1.1C188.4,217.7,188.1,218.1,187.7,218.5z"/>
			</g>
		</g>
	</g>
	<g>
		<g>
			<rect x="274.7" y="207.5" class="st3" width="130" height="50"/>
			<g>
				<rect x="273.2" y="206" class="st4" width="129" height="49"/>
				<path class="st5" d="M401.7,206.5v48h-128v-48H401.7 M402.7,205.5h-130v50h130V205.5L402.7,205.5z"/>
			</g>
		</g>
		<g transform="translate(20 9)">
			<g class="st1">
				<path class="st6" d="M297.7,222.7c-0.9,0-1.3-0.4-1.3-1.2V221l-2.3,0.3l-0.1-0.8l2.4-0.3v-1.3h-3v3.6c0,2.3-0.4,4.3-1.3,5.9
					l-0.8-0.7c0.7-1.4,1.1-3.1,1.1-5.2v-4.6h4.5v-2.6h1v0.8h4.6v0.8h-4.6v0.9h5.6v0.5c-0.2,0.7-0.4,1.4-0.7,2.1l-1-0.3
					c0.2-0.4,0.4-0.9,0.6-1.4h-5.1v1.2l3.8-0.4l0.1,0.8l-3.9,0.4v0.4c0,0.4,0.2,0.6,0.5,0.6h3c0.3,0,0.6-0.1,0.7-0.1
					c0.2-0.1,0.3-0.5,0.4-1.1l0.9,0.3c-0.1,0.8-0.3,1.3-0.6,1.5c-0.3,0.2-0.7,0.2-1.2,0.2L297.7,222.7L297.7,222.7z M297.9,223.2
					v3.9h1.6v-3.9h1v3.9h3.4v0.9h-10.4v-0.9h3.4v-3.9H297.9z M296.2,226.2l-0.9,0.4c-0.4-1.1-0.8-2.1-1.3-2.9l0.9-0.3
					C295.4,224.3,295.9,225.2,296.2,226.2z M303.3,223.8c-0.4,1-0.9,1.9-1.6,2.8l-0.8-0.4c0.7-0.9,1.2-1.9,1.6-2.8L303.3,223.8z"/>
				<path class="st6" d="M305.7,228.1l-0.2-1c0.4,0,0.7,0.1,1.1,0.1c0.3,0,0.5-0.2,0.5-0.7v-3.3c-0.5,0.2-1.1,0.4-1.6,0.5l-0.2-1
					c0.6-0.1,1.2-0.3,1.8-0.5V219h-1.6v-1h1.6v-2.6h1v2.6h1.4v1h-1.4v2.9c0.5-0.2,1-0.5,1.5-0.8v1c-0.5,0.3-1,0.5-1.5,0.7v3.9
					c0,0.9-0.4,1.3-1.2,1.3L305.7,228.1L305.7,228.1z M309.7,225.6c0.3-0.2,0.5-0.4,0.5-0.7v-9h1v9.2c0.7-0.3,1.3-0.7,2-1.1l0.3,0.9
					c-1.1,0.6-2.2,1.1-3.4,1.6L309.7,225.6z M316.8,215.6c0,2.7-0.2,4.9-0.6,6.8c-0.1,0.5-0.3,1-0.4,1.4c1,1.5,1.8,2.8,2.4,3.9
					l-0.8,0.5c-0.5-1.1-1.2-2.2-2-3.5c-0.7,1.4-1.6,2.6-2.9,3.6l-0.6-0.8c1.7-1.4,2.8-3.1,3.3-5.2c0.4-1.8,0.6-4,0.6-6.8h1V215.6z
					 M314.6,220.7l-0.8,0.4c-0.5-1.4-1.1-2.6-1.7-3.7l0.8-0.3C313.6,218.2,314.2,219.4,314.6,220.7z"/>
				<path class="st6" d="M323.4,220.7c0.4-0.8,0.8-1.5,1.2-2.3l1,0.3c-0.4,0.7-0.7,1.4-1.1,2h7.2v1h-2.8c-0.6,1.5-1.2,2.6-2,3.5
					c1.4,0.6,2.9,1.3,4.4,2.2l-0.7,0.9c-1.5-0.9-3-1.7-4.5-2.3c-1.6,1.4-3.6,2.1-6.2,2.2l-0.6-0.9c2.4,0,4.3-0.6,5.8-1.7
					c-1.3-0.6-2.6-1.1-3.9-1.5c0.5-0.8,1-1.6,1.4-2.3h-3.4v-1L323.4,220.7L323.4,220.7z M331.5,219.8h-1v-2h-9.6v2h-1v-3h5.3
					c-0.2-0.5-0.4-0.9-0.6-1.3l1.1-0.2c0.2,0.4,0.4,0.9,0.6,1.5h5.2V219.8L331.5,219.8z M322.9,223.6c1.1,0.3,2.1,0.7,3.2,1.2
					c0.8-0.8,1.4-1.9,1.8-3.1H324C323.7,222.4,323.3,223.1,322.9,223.6z"/>
				<path class="st6" d="M340,215.5c1.8,1.9,3.8,3.3,6.1,4.4l-0.5,0.9c-2.3-1.1-4.3-2.6-6-4.3c-1.5,1.7-3.5,3.2-6,4.4l-0.5-0.9
					c2.5-1.2,4.5-2.7,6.1-4.4L340,215.5L340,215.5z M343.6,219.9v1h-3.4v2.4h4v1h-4v2.6h5.3v1h-11.7v-1h5.3v-2.6H335v-1h4.1v-2.4
					h-3.4v-1H343.6z"/>
			</g>
		</g>
	</g>
	<g>
		<g>
			<rect x="427.3" y="207.5" class="st3" width="130" height="50"/>
			<g>
				<rect x="425.8" y="206" class="st4" width="129" height="49"/>
				<path class="st5" d="M554.3,206.5v48h-128v-48H554.3 M555.3,205.5h-130v50h130V205.5L555.3,205.5z"/>
			</g>
		</g>
		<g transform="translate(20 9)">
			<g class="st1">
				<path class="st6" d="M450.3,222.7c-0.9,0-1.3-0.4-1.3-1.2V221l-2.3,0.3l-0.1-0.8l2.4-0.3v-1.3h-3v3.6c0,2.3-0.4,4.3-1.3,5.9
					l-0.8-0.7c0.7-1.4,1.1-3.1,1.1-5.2v-4.6h4.5v-2.6h1v0.8h4.6v0.8h-4.6v0.9h5.6v0.5c-0.2,0.7-0.4,1.4-0.7,2.1l-1-0.3
					c0.2-0.4,0.4-0.9,0.6-1.4h-5v1.2l3.8-0.4l0.1,0.8l-3.9,0.4v0.4c0,0.4,0.2,0.6,0.5,0.6h3c0.3,0,0.6-0.1,0.7-0.1
					c0.2-0.1,0.3-0.5,0.4-1.1l0.9,0.3c-0.1,0.8-0.3,1.3-0.6,1.5c-0.3,0.2-0.7,0.2-1.2,0.2L450.3,222.7L450.3,222.7z M450.5,223.2
					v3.9h1.6v-3.9h1v3.9h3.4v0.9h-10.4v-0.9h3.4v-3.9H450.5z M448.9,226.2l-0.9,0.4c-0.4-1.1-0.8-2.1-1.3-2.9l0.9-0.3
					C448.1,224.3,448.5,225.2,448.9,226.2z M456,223.8c-0.4,1-0.9,1.9-1.6,2.8l-0.8-0.4c0.7-0.9,1.2-1.9,1.6-2.8L456,223.8z"/>
				<path class="st6" d="M458.4,228.1l-0.2-1c0.4,0,0.7,0.1,1.1,0.1c0.3,0,0.5-0.2,0.5-0.7v-3.3c-0.5,0.2-1.1,0.4-1.6,0.5l-0.2-1
					c0.6-0.1,1.2-0.3,1.8-0.5V219h-1.6v-1h1.6v-2.6h1v2.6h1.4v1h-1.4v2.9c0.5-0.2,1-0.5,1.5-0.8v1c-0.5,0.3-1,0.5-1.5,0.7v3.9
					c0,0.9-0.4,1.3-1.2,1.3L458.4,228.1L458.4,228.1z M462.4,225.6c0.3-0.2,0.5-0.4,0.5-0.7v-9h1v9.2c0.7-0.3,1.3-0.7,2-1.1l0.3,0.9
					c-1.1,0.6-2.2,1.1-3.4,1.6L462.4,225.6z M469.5,215.6c0,2.7-0.2,4.9-0.6,6.8c-0.1,0.5-0.3,1-0.4,1.4c1,1.5,1.8,2.8,2.4,3.9
					l-0.8,0.5c-0.5-1.1-1.2-2.2-2-3.5c-0.7,1.4-1.6,2.6-2.9,3.6l-0.6-0.8c1.7-1.4,2.8-3.1,3.3-5.2c0.4-1.8,0.6-4,0.6-6.8h1V215.6z
					 M467.3,220.7l-0.8,0.4c-0.5-1.4-1.1-2.6-1.7-3.7l0.8-0.3C466.3,218.2,466.8,219.4,467.3,220.7z"/>
				<path class="st6" d="M476.2,216.9c0.2-0.5,0.4-1,0.5-1.5l1,0.1c-0.1,0.5-0.3,0.9-0.4,1.4h7.2v1H477c-0.5,1.2-1.2,2.3-1.9,3.3
					v7.1h-1v-5.9c-0.5,0.5-1,1-1.5,1.5l-0.6-0.8c1.7-1.5,3-3.2,3.9-5.2h-3.4v-1L476.2,216.9L476.2,216.9z M480.2,223.4v-1.3
					c0.8-0.4,1.6-1,2.3-1.6h-5.3v-0.9h6.6v0.9c-0.8,0.7-1.6,1.4-2.6,2v0.9h3.5v1h-3.5v2.6c0,0.8-0.4,1.2-1.2,1.2h-1.8l-0.3-1
					c0.5,0,1,0,1.6,0c0.4,0,0.6-0.2,0.6-0.6v-2.3H476v-1L480.2,223.4L480.2,223.4z"/>
				<path class="st6" d="M486.2,222l-0.3-1.1c1.1-1.6,1.9-3.4,2.4-5.5l0.9,0.4c-0.3,1-0.6,1.9-0.9,2.7v9.7h-1v-7.8
					C486.9,221,486.5,221.5,486.2,222z M491.3,219.8v5.9c0.4-0.4,0.7-0.8,1.1-1.3l0.2,1c-0.7,0.9-1.5,1.7-2.2,2.4l-0.4-0.9
					c0.2-0.2,0.3-0.4,0.3-0.5v-5.6h-1.6v-0.9L491.3,219.8L491.3,219.8z M492.1,218.1l-0.7,0.7c-0.5-0.7-1.2-1.4-2-2.2l0.7-0.7
					C490.9,216.7,491.6,217.4,492.1,218.1z M494.5,217.1v-1.6h0.9v1.6h1.6v0.8c0.3-0.6,0.5-1.1,0.8-1.7l0.8,0.4
					c-0.5,1.2-1,2.2-1.7,3.1h1.6v0.9h-2.3c-0.4,0.5-0.8,0.9-1.2,1.3h2.9v6.2h-1v-0.6h-2.6v0.6h-0.9v-5c-0.3,0.2-0.7,0.4-1,0.5
					l-0.5-0.8c1.2-0.5,2.3-1.3,3.2-2.3h-2.5v-0.9h2V218h-1.7v-0.9H494.5L494.5,217.1z M497,222.9h-2.6v1.5h2.6V222.9z M494.4,226.8
					h2.6v-1.5h-2.6V226.8z M497,218h-1.6v1.8h0.4C496.3,219.2,496.7,218.6,497,218z"/>
			</g>
		</g>
	</g>
	<g id="GrayRectGroup6_6_" transform="translate(669.5,130)">
		<rect x="-565.5" y="188.5" class="st0" width="469" height="114"/>
	</g>
	<g>
		<g>
			<rect x="122" y="366.5" class="st3" width="130" height="50"/>
			<g>
				<rect x="120.5" y="365" class="st4" width="129" height="49"/>
				<path class="st5" d="M249,365.5v48H121v-48H249 M250,364.5H120v50h130V364.5L250,364.5z"/>
			</g>
		</g>
		<g transform="translate(20 9)">
			<g class="st1">
				<path class="st6" d="M139.4,380.4l-0.9-0.3c0.5-1.5,0.8-3,0.9-4.7l0.9,0.1c0,0.6-0.1,1.2-0.2,1.8h1v-2.9h1v2.9h1.2v1h-1.2v3.4
					c0.4-0.2,0.8-0.4,1.1-0.6v1c-0.4,0.2-0.7,0.4-1.1,0.6v4.6h-1v-4.2c-0.7,0.3-1.4,0.5-2.2,0.8l-0.2-1c0.8-0.2,1.7-0.4,2.4-0.8
					v-3.8H140C139.8,379.1,139.6,379.7,139.4,380.4z M146,374.7c-0.2,0.7-0.3,1.4-0.5,2h5.4c0,4.7-0.1,7.6-0.2,8.7
					c-0.2,1.2-0.9,1.9-2.3,1.9c-0.2,0-0.5,0-1.1,0l-0.2-0.9c0.4,0,0.8,0.1,1.1,0.1c0.9,0,1.3-0.4,1.5-1.3c0.1-0.8,0.2-3.2,0.2-7.3
					h-1c-0.3,2.3-0.7,4.2-1.3,5.5c-0.6,1.5-1.6,2.8-2.9,3.9l-0.6-0.8c1.2-1.1,2-2.2,2.6-3.5c0.5-1.3,1-3,1.2-5.2H147
					c-0.6,3.1-1.6,5.3-3.2,6.7l-0.7-0.8c1.4-1.2,2.4-3.2,3-5.9h-1c-0.4,0.9-0.8,1.6-1.3,2.2l-0.7-0.6c0.9-1.1,1.5-2.7,1.9-4.8
					L146,374.7z"/>
				<path class="st6" d="M154.4,379.6v-3.3h-1.7v-1h4.5v1h-1.7v3.3h1.5v1h-1.5v3.2c0.5-0.2,1-0.4,1.5-0.6v1c-1.3,0.5-2.7,1-4.2,1.3
					l-0.3-1c0.6-0.1,1.2-0.3,1.8-0.4v-3.5h-1.5v-1H154.4L154.4,379.6z M164.7,375v6.5h-2.9v1.7h3.2v1h-3.2v1.8h3.7v1H157v-1h3.8
					v-1.8h-3.2v-1h3.2v-1.7h-2.9V375H164.7z M160.8,377.8v-1.9h-2v1.9H160.8z M160.8,378.7h-2v1.9h2V378.7z M161.8,377.8h1.9v-1.9
					h-1.9V377.8z M163.7,378.7h-1.9v1.9h1.9V378.7z"/>
				<path class="st6" d="M169.7,378.7v6.2c0.5-0.4,1.1-0.9,1.7-1.5l0.3,1c-0.9,0.8-1.8,1.6-2.8,2.2l-0.4-0.9
					c0.2-0.2,0.3-0.4,0.3-0.6v-5.6h-2.1v-1L169.7,378.7L169.7,378.7z M170.7,376.8l-0.7,0.7c-0.6-0.7-1.4-1.4-2.4-2.2l0.7-0.7
					C169.2,375.3,170,376,170.7,376.8z M174.8,378.7v-4.2h1v4.2h3.6v1h-3.6v7.7h-1v-7.7H171v-1H174.8z"/>
				<path class="st6" d="M191.7,377.6v5.5H190v0.9h3.2v0.9H190v2.4h-1V385h-4c-0.1,0.4-0.3,0.8-0.6,1.1c-0.5,0.5-1.3,1-2.3,1.3
					l-0.5-0.8c1-0.3,1.7-0.6,2.1-1.1c0.1-0.2,0.2-0.3,0.3-0.5h-3.2v-0.9h3.4c0-0.1,0-0.3,0-0.4v-0.5h-1.8v-5.5L191.7,377.6
					L191.7,377.6z M181.7,377.8l-0.8-0.5c0.9-0.9,1.5-1.9,1.8-2.9l1,0.2c-0.1,0.3-0.2,0.6-0.4,0.8h3.5v0.9H185
					c0.2,0.3,0.4,0.6,0.6,0.9l-0.8,0.3c-0.2-0.4-0.5-0.8-0.8-1.2h-1.1C182.6,376.8,182.2,377.3,181.7,377.8z M190.7,379.2v-0.8h-7.3
					v0.8H190.7z M190.7,380.7V380h-7.3v0.8L190.7,380.7L190.7,380.7z M190.7,381.5h-7.3v0.9h7.3V381.5z M185.3,383.7
					c0,0.1,0,0.3,0,0.4h3.8v-0.9h-3.8V383.7L185.3,383.7z M187.7,377.5l-0.8-0.5c0.7-0.8,1.2-1.7,1.5-2.6l1,0.2l-0.3,0.8h4v0.9h-2.3
					c0.3,0.3,0.4,0.6,0.6,0.9l-0.8,0.3c-0.2-0.4-0.5-0.8-0.8-1.2h-1.1C188.4,376.7,188.1,377.1,187.7,377.5z"/>
			</g>
		</g>
	</g>
	<g>
		<g>
			<rect x="427.3" y="366.5" class="st3" width="130" height="50"/>
			<g>
				<rect x="425.8" y="365" class="st4" width="129" height="49"/>
				<path class="st5" d="M554.3,365.5v48h-128v-48H554.3 M555.3,364.5h-130v50h130V364.5L555.3,364.5z"/>
			</g>
		</g>
		<g transform="translate(20 9)">
			<g class="st1">
				<path class="st6" d="M444.7,380.4l-0.9-0.3c0.5-1.5,0.8-3,0.9-4.7l0.9,0.1c0,0.6-0.1,1.2-0.2,1.8h1v-2.9h1v2.9h1.2v1h-1.2v3.4
					c0.4-0.2,0.8-0.4,1.1-0.6v1c-0.4,0.2-0.7,0.4-1.1,0.6v4.6h-1v-4.2c-0.7,0.3-1.4,0.5-2.2,0.8l-0.2-1c0.8-0.2,1.7-0.4,2.4-0.8
					v-3.8h-1.1C445.1,379.1,445,379.7,444.7,380.4z M451.3,374.7c-0.2,0.7-0.3,1.4-0.5,2h5.4c0,4.7-0.1,7.6-0.2,8.7
					c-0.2,1.2-0.9,1.9-2.3,1.9c-0.2,0-0.5,0-1.1,0l-0.2-0.9c0.4,0,0.8,0.1,1.1,0.1c0.9,0,1.3-0.4,1.5-1.3c0.1-0.8,0.2-3.2,0.2-7.3
					h-1c-0.3,2.3-0.7,4.2-1.3,5.5c-0.6,1.5-1.6,2.8-2.9,3.9l-0.6-0.8c1.2-1.1,2-2.2,2.6-3.5c0.5-1.3,1-3,1.2-5.2h-1.1
					c-0.6,3.1-1.6,5.3-3.2,6.7l-0.7-0.8c1.4-1.2,2.4-3.2,3-5.9h-1c-0.4,0.9-0.8,1.6-1.3,2.2l-0.7-0.6c0.9-1.1,1.5-2.7,1.9-4.8
					L451.3,374.7z"/>
				<path class="st6" d="M459.7,379.6v-3.3H458v-1h4.5v1h-1.7v3.3h1.5v1h-1.5v3.2c0.5-0.2,1-0.4,1.5-0.6v1c-1.3,0.5-2.7,1-4.2,1.3
					l-0.3-1c0.6-0.1,1.2-0.3,1.8-0.4v-3.5h-1.5v-1H459.7L459.7,379.6z M470,375v6.5h-2.9v1.7h3.2v1h-3.2v1.8h3.7v1h-8.4v-1h3.8v-1.8
					H463v-1h3.2v-1.7h-2.9V375H470z M466.1,377.8v-1.9h-2v1.9H466.1z M466.1,378.7h-2v1.9h2V378.7z M467.1,377.8h1.9v-1.9h-1.9
					V377.8z M469,378.7h-1.9v1.9h1.9V378.7z"/>
				<path class="st6" d="M476.2,375.9c0.2-0.5,0.4-1,0.5-1.5l1,0.1c-0.1,0.5-0.3,0.9-0.4,1.4h7.2v1H477c-0.5,1.2-1.2,2.3-1.9,3.3
					v7.1h-1v-5.9c-0.5,0.5-1,1-1.5,1.5l-0.6-0.8c1.7-1.5,3-3.2,3.9-5.2h-3.4v-1H476.2L476.2,375.9z M480.2,382.4v-1.3
					c0.8-0.4,1.6-1,2.3-1.6h-5.3v-0.9h6.6v0.9c-0.8,0.7-1.6,1.4-2.6,2v0.9h3.5v1h-3.5v2.6c0,0.8-0.4,1.2-1.2,1.2h-1.8l-0.3-1
					c0.5,0,1,0,1.6,0c0.4,0,0.6-0.2,0.6-0.6v-2.3H476v-1L480.2,382.4L480.2,382.4z"/>
				<path class="st6" d="M486.2,381l-0.3-1.1c1.1-1.6,1.9-3.4,2.4-5.5l0.9,0.4c-0.3,1-0.6,1.9-0.9,2.7v9.7h-1v-7.8
					C486.9,380,486.5,380.5,486.2,381z M491.3,378.8v5.9c0.4-0.4,0.7-0.8,1.1-1.3l0.2,1c-0.7,0.9-1.5,1.7-2.2,2.4l-0.4-0.9
					c0.2-0.2,0.3-0.4,0.3-0.5v-5.6h-1.6v-0.9L491.3,378.8L491.3,378.8z M492.1,377.1l-0.7,0.7c-0.5-0.7-1.2-1.4-2-2.2l0.7-0.7
					C490.9,375.7,491.6,376.4,492.1,377.1z M494.5,376.1v-1.6h0.9v1.6h1.6v0.8c0.3-0.6,0.5-1.1,0.8-1.7l0.8,0.4
					c-0.5,1.2-1,2.2-1.7,3.1h1.6v0.9h-2.3c-0.4,0.5-0.8,0.9-1.2,1.3h2.9v6.2h-1v-0.6h-2.6v0.6h-0.9v-5c-0.3,0.2-0.7,0.4-1,0.5
					l-0.5-0.8c1.2-0.5,2.3-1.3,3.2-2.3h-2.5v-0.9h2V377h-1.7v-0.9H494.5L494.5,376.1z M497,381.9h-2.6v1.5h2.6V381.9z M494.4,385.8
					h2.6v-1.5h-2.6V385.8z M497,377h-1.6v1.8h0.4C496.3,378.2,496.7,377.6,497,377z"/>
			</g>
		</g>
	</g>
	<g>
		<g>
			<rect x="580" y="207.5" class="st3" width="130" height="50"/>
			<g>
				<rect x="578.5" y="206" class="st4" width="129" height="49"/>
				<path class="st5" d="M707,206.5v48H579v-48H707 M708,205.5H578v50h130V205.5L708,205.5z"/>
			</g>
		</g>
		<g transform="translate(20 9)">
			<g class="st1">
				<path class="st6" d="M603,222.7c-0.9,0-1.3-0.4-1.3-1.2V221l-2.3,0.3l-0.1-0.8l2.4-0.3v-1.3h-3v3.6c0,2.3-0.4,4.3-1.3,5.9
					l-0.8-0.7c0.7-1.4,1.1-3.1,1.1-5.2v-4.6h4.5v-2.6h1v0.8h4.6v0.8h-4.6v0.9h5.6v0.5c-0.2,0.7-0.4,1.4-0.7,2.1l-1-0.3
					c0.2-0.4,0.4-0.9,0.6-1.4h-5.1v1.2l3.8-0.4l0.1,0.8l-3.9,0.4v0.4c0,0.4,0.2,0.6,0.5,0.6h3c0.3,0,0.6-0.1,0.7-0.1
					c0.2-0.1,0.3-0.5,0.4-1.1l0.9,0.3c-0.1,0.8-0.3,1.3-0.6,1.5s-0.7,0.2-1.2,0.2L603,222.7L603,222.7z M603.2,223.2v3.9h1.6v-3.9h1
					v3.9h3.4v0.9h-10.4v-0.9h3.4v-3.9H603.2z M601.5,226.2l-0.9,0.4c-0.4-1.1-0.8-2.1-1.3-2.9l0.9-0.3
					C600.7,224.3,601.2,225.2,601.5,226.2z M608.7,223.8c-0.4,1-0.9,1.9-1.6,2.8l-0.8-0.4c0.7-0.9,1.2-1.9,1.6-2.8L608.7,223.8z"/>
				<path class="st6" d="M611.1,228.1l-0.2-1c0.4,0,0.7,0.1,1.1,0.1c0.3,0,0.5-0.2,0.5-0.7v-3.3c-0.5,0.2-1.1,0.4-1.6,0.5l-0.2-1
					c0.6-0.1,1.2-0.3,1.8-0.5V219h-1.6v-1h1.6v-2.6h1v2.6h1.4v1h-1.4v2.9c0.5-0.2,1-0.5,1.5-0.8v1c-0.5,0.3-1,0.5-1.5,0.7v3.9
					c0,0.9-0.4,1.3-1.2,1.3L611.1,228.1L611.1,228.1z M615.1,225.6c0.3-0.2,0.5-0.4,0.5-0.7v-9h1v9.2c0.7-0.3,1.3-0.7,2-1.1l0.3,0.9
					c-1.1,0.6-2.2,1.1-3.4,1.6L615.1,225.6z M622.1,215.6c0,2.7-0.2,4.9-0.6,6.8c-0.1,0.5-0.3,1-0.4,1.4c1,1.5,1.8,2.8,2.4,3.9
					l-0.8,0.5c-0.5-1.1-1.2-2.2-2-3.5c-0.7,1.4-1.6,2.6-2.9,3.6l-0.6-0.8c1.7-1.4,2.8-3.1,3.3-5.2c0.4-1.8,0.6-4,0.6-6.8h1V215.6z
					 M620,220.7l-0.8,0.4c-0.5-1.4-1.1-2.6-1.7-3.7l0.8-0.3C619,218.2,619.5,219.4,620,220.7z"/>
				<path class="st6" d="M633.9,228.2l-0.3-1h1.3c0.4,0,0.6-0.2,0.6-0.6V217h-9.2v11.3h-1V216h11.2v10.9c0,0.9-0.4,1.3-1.2,1.3
					H633.9L633.9,228.2z M629.3,223.1c-0.5,1.4-1.1,2.5-1.8,3.5l-0.6-0.8c0.7-1,1.3-2.3,1.8-3.7c-0.7-0.9-1.3-1.7-2-2.5l0.6-0.6
					c0.5,0.5,1.1,1.2,1.7,2c0.3-1,0.5-2,0.7-3.2l0.9,0.2c-0.2,1.4-0.5,2.8-0.9,3.9c0.5,0.7,1.1,1.5,1.7,2.4l-0.7,0.7
					C630.1,224.4,629.7,223.7,629.3,223.1z M633.3,223.4c-0.6,1.4-1.2,2.6-2,3.5l-0.6-0.8c0.8-1.1,1.4-2.3,2-3.7
					c-0.6-1-1.3-1.8-1.9-2.6l0.6-0.6c0.5,0.6,1.1,1.3,1.7,2.1c0.3-1.1,0.5-2.2,0.7-3.4l1,0.2c-0.3,1.6-0.6,3-1,4.2
					c0.5,0.8,1.1,1.7,1.7,2.7l-0.7,0.7C634.2,224.9,633.7,224.2,633.3,223.4z"/>
				<path class="st6" d="M642.1,215.8c-0.7,1.8-1.4,3.2-2.1,4.3c0.6-0.1,1.2-0.2,1.8-0.3c0.2-0.5,0.5-1,0.7-1.5l0.9,0.3
					c-1.2,2.4-2.2,4-3,5.1c1-0.2,2-0.5,3-0.9v0.9c-1.4,0.5-2.8,0.9-4.1,1l-0.3-0.9c0.2-0.1,0.3-0.2,0.4-0.3c0.5-0.6,1.1-1.5,1.9-2.8
					c-0.8,0.1-1.5,0.3-2.3,0.4l-0.3-0.9c0.2-0.1,0.3-0.2,0.4-0.4c0.7-1.3,1.4-2.7,1.9-4.4L642.1,215.8z M643.6,226.5
					c-1.4,0.5-2.9,1-4.7,1.3l-0.1-1c1.8-0.3,3.4-0.7,4.8-1.2V226.5z M646.8,215.6c-0.1,0.4-0.3,0.8-0.4,1.1h3.8v0.7
					c-0.5,1.2-1.3,2.2-2.2,3.1c1,0.7,2.2,1.3,3.5,1.7L651,223c-1.5-0.4-2.7-1.1-3.7-1.9c-1,0.8-2.2,1.4-3.6,1.9l-0.6-0.8
					c1.3-0.5,2.5-1.1,3.5-1.8c-0.5-0.5-1-1.1-1.4-1.7c-0.4,0.4-0.8,0.9-1.3,1.2l-0.6-0.8c1.2-1,2.1-2.3,2.5-3.8L646.8,215.6z
					 M650.2,228.2h-1v-0.6h-3.8v0.6h-1V223h5.8V228.2L650.2,228.2z M649.3,226.7V224h-3.8v2.7H649.3z M647.3,219.9
					c0.8-0.7,1.4-1.4,1.9-2.3H646c-0.1,0.1-0.2,0.3-0.3,0.4C646.2,218.7,646.7,219.3,647.3,219.9z"/>
			</g>
		</g>
	</g>
	<g>
		<g>
			<polygon class="st7" points="207,144.5 212,149.5 217,144.5 			"/>
		</g>
		<g>
			<polygon class="st7" points="207,109.5 212,104.5 217,109.5 			"/>
			<line class="st8" x1="212" y1="109.5" x2="212" y2="144.5"/>
		</g>
	</g>
	<g>
		<g>
			<polygon class="st7" points="410,144.5 415,149.5 420,144.5 			"/>
		</g>
		<g>
			<polygon class="st7" points="410,109.5 415,104.5 420,109.5 			"/>
			<line class="st8" x1="415" y1="109.5" x2="415" y2="144.5"/>
		</g>
	</g>
	<g>
		<g>
			<polygon class="st7" points="210.7,353.5 215.7,358.5 220.7,353.5 			"/>
		</g>
		<g>
			<polygon class="st7" points="210.7,268.5 215.7,263.5 220.7,268.5 			"/>
			<line class="st8" x1="215.7" y1="268.5" x2="215.7" y2="353.5"/>
		</g>
	</g>
	<g>
		<g>
			<polygon class="st7" points="486,353.5 491,358.5 496,353.5 			"/>
		</g>
		<g>
			<polygon class="st7" points="486,268.5 491,263.5 496,268.5 			"/>
			<line class="st8" x1="491" y1="268.5" x2="491" y2="353.5"/>
		</g>
	</g>
	<g>
		<g>
			<polygon class="st7" points="639,466.5 644,471.5 649,466.5 			"/>
		</g>
		<g>
			<polygon class="st7" points="639,268.5 644,263.5 649,268.5 			"/>
			<line class="st8" x1="644" y1="268.5" x2="644" y2="466.5"/>
		</g>
	</g>
	<g>
		<g>
			<polygon class="st7" points="613,144.5 618,149.5 623,144.5 			"/>
		</g>
		<g>
			<polygon class="st7" points="613,109.5 618,104.5 623,109.5 			"/>
			<line class="st8" x1="618" y1="109.5" x2="618" y2="144.5"/>
		</g>
	</g>
	<g>
		<g>
			<rect x="106" y="479.5" class="st3" width="620" height="50"/>
			<g>
				<rect x="104.5" y="478" class="st4" width="619" height="49"/>
				<path class="st5" d="M723,478.5v48H105v-48H723 M724,477.5H104v50h620V477.5L724,477.5z"/>
			</g>
		</g>
	</g>
</g>
<g class="st1">
	<path class="st2" d="M132.1,335.8v5.2h-4.4v0.8h4.6v1.3h-4.6v0.7h5.4v1.3h-12.2v-1.3h5.4V343h-4.6v-1.3h4.6V341h-4.4v-5.2H132.1z
		 M123.3,345.8c-0.3,1-0.6,1.8-1.1,2.6l-1.3-0.5c0.4-0.6,0.8-1.5,1.1-2.5L123.3,345.8z M126.3,337.1h-3.1v2.7h3.1V337.1z
		 M125.7,339.3l-1.2,0.3c-0.2-0.6-0.4-1.3-0.7-1.9l1.2-0.4C125.2,337.9,125.5,338.5,125.7,339.3z M126.5,348.1l-1.4,0.3
		c-0.2-1-0.4-1.8-0.6-2.5l1.3-0.3C126,346.4,126.3,347.2,126.5,348.1z M129.7,348l-1.4,0.3c-0.2-1-0.5-1.8-0.9-2.5l1.3-0.3
		C129,346.3,129.4,347.1,129.7,348z M130.8,337.1h-3.1v2.7h3.1V337.1z M130.2,337.6c-0.2,0.8-0.5,1.4-0.8,2l-1.2-0.4
		c0.3-0.5,0.5-1.1,0.8-1.9L130.2,337.6z M133.1,347.6l-1.1,0.8c-0.4-0.7-0.9-1.5-1.6-2.4l1.1-0.7C132.2,346.2,132.7,347,133.1,347.6
		z"/>
	<path class="st2" d="M147.2,336.1v1.4h-6.5c-0.4,1.2-1,2.3-1.6,3.3h7.1v7.4h-1.5v-0.7h-5.4v0.7h-1.5v-5.6c-0.8,0.9-1.6,1.7-2.5,2.4
		l-0.9-1.5c2.2-1.6,3.7-3.6,4.7-6.1h-4.3v-1.4H147.2z M144.8,346.2v-3.9h-5.4v3.9H144.8z"/>
	<path class="st2" d="M154.8,337.6c0.6,0.6,0.9,1.3,0.9,2.2c0,0.9-0.3,1.7-1,2.4c-0.4,0.4-1.1,1-2.1,1.6c-1,0.7-1.6,1.3-1.9,1.8h4.9
		v1.4h-7c0-1,0.3-1.9,1-2.7c0.4-0.4,1.1-1,2.3-1.8c0.6-0.4,1.1-0.8,1.4-1.1c0.4-0.5,0.7-1,0.7-1.6c0-0.5-0.2-1-0.4-1.2
		c-0.3-0.3-0.7-0.4-1.3-0.4c-0.6,0-1.1,0.2-1.4,0.6c-0.3,0.4-0.5,1-0.5,1.8h-1.6c0-1.1,0.3-2,1-2.7c0.7-0.7,1.5-1.1,2.6-1.1
		C153.3,336.7,154.1,337,154.8,337.6z"/>
	<path class="st2" d="M159.1,345.1c0.2,0.2,0.3,0.5,0.3,0.8s-0.1,0.6-0.3,0.8c-0.2,0.2-0.5,0.3-0.8,0.3s-0.6-0.1-0.8-0.3
		c-0.2-0.2-0.3-0.5-0.3-0.8s0.1-0.6,0.3-0.8c0.2-0.2,0.5-0.3,0.8-0.3S158.9,344.9,159.1,345.1z"/>
	<path class="st2" d="M167.2,338.2c0.6,0.9,0.9,2.2,0.9,3.7s-0.3,2.8-0.9,3.7c-0.7,1-1.6,1.5-2.7,1.5c-1.2,0-2.1-0.5-2.7-1.5
		c-0.6-0.9-0.9-2.2-0.9-3.7s0.3-2.8,0.9-3.7c0.6-1,1.6-1.5,2.7-1.5C165.6,336.7,166.5,337.2,167.2,338.2z M162.8,339.4
		c-0.2,0.6-0.3,1.4-0.3,2.5c0,1,0.1,1.9,0.3,2.5c0.3,0.9,0.9,1.3,1.7,1.3c0.8,0,1.3-0.4,1.7-1.3c0.2-0.6,0.3-1.4,0.3-2.5
		c0-1.1-0.1-1.9-0.3-2.5c-0.3-0.9-0.9-1.3-1.7-1.3C163.7,338.1,163.1,338.5,162.8,339.4z"/>
	<path class="st2" d="M170,340.2l-0.9-1.1c1.1-1.1,2-2.3,2.6-3.7l1.4,0.3c-0.1,0.3-0.3,0.6-0.4,0.9h2.6c-0.2-0.4-0.4-0.7-0.6-1
		l1.5-0.3c0.2,0.4,0.4,0.8,0.5,1.3h4.4v1.2h-4.3v0.6h3.7v1.1h-3.7v0.6h3.7v1.1h-3.7v0.6h4.6v1.2h-10.5v-3.7
		C170.5,339.7,170.3,339.9,170,340.2z M169.6,345.1v-1.3h5.4v-0.5h1.5v0.5h5.3v1.3h-3.7c0.9,0.7,2.2,1.2,3.9,1.6l-0.6,1.3
		c-2.2-0.8-3.8-1.7-4.7-2.9h-0.1v3.3H175v-3.3h-0.1c-0.9,1.1-2.5,2.1-4.7,3l-0.8-1.3c1.8-0.5,3.1-1.1,3.9-1.7H169.6z M175.3,337.8
		h-3.2v0.6h3.2V337.8z M175.3,339.5h-3.2v0.6h3.2V339.5z M175.3,341.2h-3.2v0.6h3.2V341.2z"/>
	<path class="st2" d="M186,342.1c-0.1,0.3-0.2,0.6-0.3,1h3.5v5.2H188v-0.7h-1.7v0.8h-1.3v-3.5c-0.3,0.6-0.7,1.1-1.1,1.5l-0.8-1.2
		c0.7-0.7,1.2-1.8,1.6-3h-0.9v-1.2h1.2c0.1-0.4,0.1-0.8,0.2-1.2h-1.7v-1.3h1.8l0-1.2h-1.4v-1.2h5v2.5h0.7v1.3h-0.7v2.5H186z
		 M188,346.3v-1.9h-1.7v1.9H188z M186.3,340.8h1.3v-1.2h-1.1C186.4,340,186.3,340.4,186.3,340.8z M186.6,338.3h1v-1.2h-0.9
		C186.6,337.5,186.6,337.9,186.6,338.3z M189.8,339.3v-1.4h1.4c-0.3-0.7-0.6-1.4-1-1.9l1.2-0.6c0.4,0.6,0.7,1.3,1.1,2.1l-0.8,0.4
		h1.3c0.4-0.8,0.7-1.7,1-2.6l1.4,0.5c-0.3,0.8-0.6,1.5-0.9,2.2h1.3v1.4h-2.2v1.6h1.9v1.4h-1.9v1.6h2.5v1.4h-2.5v3.1h-1.4v-3.1h-2.5
		v-1.4h2.5v-1.6h-2v-1.4h2v-1.6H189.8z"/>
</g>
<g class="st1">
	<path class="st6" d="M370.1,498.2c-1,2.9-2.3,5.1-3.9,6.7l-1.2-1c1.7-1.6,2.9-3.7,3.7-6.2L370.1,498.2z M376.8,509.9l-1.4,0.6
		c-0.2-0.4-0.4-0.9-0.5-1.3c-2.4,0.4-5.1,0.6-8.1,0.8l-0.3-1.4c0.9-0.2,2.3-2.3,4.1-6.3l1.4,0.5c-1.1,2.3-2.2,4.2-3.4,5.8
		c1.9-0.1,3.7-0.3,5.5-0.6c-0.4-0.9-0.9-1.7-1.3-2.4l1.3-0.4C375.2,506.6,376.1,508.2,376.8,509.9z M378,503.7l-1,1.2
		c-2-1.7-3.4-4-4.2-6.7l1.3-0.7C374.8,500,376.1,502.1,378,503.7z"/>
	<path class="st6" d="M383.7,507.5v2.9h-1.4v-6.8c-0.7,0.8-1.5,1.5-2.3,2.2l-1-1.2c1.6-1.2,2.8-2.7,3.8-4.3h-3.4v-1.4h4.1
		c0.2-0.5,0.4-1,0.5-1.5l1.5,0.2c-0.1,0.4-0.3,0.9-0.4,1.3h6.7v1.4h-7.3c-0.2,0.4-0.4,0.8-0.7,1.2h6.3v7.6c0,0.8-0.5,1.2-1.4,1.2
		h-1.6l-0.4-1.3c0.5,0,1,0.1,1.5,0.1c0.3,0,0.5-0.2,0.5-0.5v-1.1H383.7z M383.7,503.9h5.1v-1.1h-5.1V503.9z M383.7,505.2v1.1h5.1
		v-1.1H383.7z"/>
	<path class="st6" d="M405.9,502v1.5h-6.6c-1.2,2.3-2.2,4-3.1,5c2.2-0.2,4.4-0.4,6.6-0.7c-0.4-0.8-0.9-1.6-1.4-2.4l1.2-0.7
		c1.3,1.9,2.2,3.5,2.9,4.9l-1.3,0.9c-0.2-0.5-0.4-0.9-0.7-1.4c-2.8,0.4-5.8,0.7-9.1,0.9l-0.4-1.5c0.2-0.1,0.3-0.1,0.3-0.2
		c0.8-0.6,1.9-2.3,3.3-5h-4.5V502H405.9z M404.6,498.2v1.4h-10.1v-1.4H404.6z"/>
	<path class="st6" d="M408.4,499l2.7,8.2h0l2.7-8.2h1.8l-3.6,10h-2l-3.6-10H408.4z"/>
	<path class="st6" d="M420.9,499c2.4,0,3.6,1,3.6,3.1c0,2.1-1.2,3.1-3.7,3.1h-2.5v3.8h-1.6v-10H420.9z M418.4,503.8h2.4
		c0.7,0,1.3-0.1,1.6-0.4c0.3-0.3,0.5-0.7,0.5-1.3s-0.2-1-0.5-1.3c-0.3-0.3-0.9-0.4-1.6-0.4h-2.4V503.8z"/>
	<path class="st6" d="M433.1,499.7c0.7,0.6,1.2,1.4,1.3,2.4h-1.6c-0.2-0.7-0.5-1.1-0.9-1.4c-0.4-0.3-1-0.4-1.7-0.4
		c-1.1,0-1.8,0.4-2.4,1.1c-0.5,0.6-0.7,1.5-0.7,2.7c0,1.2,0.2,2.1,0.7,2.7c0.5,0.7,1.3,1,2.4,1c0.7,0,1.3-0.2,1.8-0.5
		c0.5-0.4,0.8-1,1-1.7h1.6c-0.2,1.2-0.7,2.1-1.6,2.7c-0.8,0.6-1.7,0.9-2.8,0.9c-1.7,0-2.9-0.5-3.7-1.6c-0.7-0.9-1.1-2.1-1.1-3.6
		c0-1.5,0.4-2.7,1.1-3.6c0.8-1.1,2.1-1.6,3.7-1.6C431.4,498.8,432.4,499.1,433.1,499.7z"/>
	<path class="st6" d="M440.6,505.7c-0.5,1.2-1,2.3-1.6,3.2l-0.9-1.1c0.6-1,1.2-2.1,1.6-3.4c-0.6-0.8-1.1-1.5-1.7-2.2v8.4h-1.4V498
		h11.5v11c0,1-0.5,1.5-1.5,1.5h-1.4l-0.4-1.4l1.3,0.1c0.3,0,0.5-0.2,0.5-0.5V507l-0.9,0.9c-0.4-0.6-0.7-1.3-1.1-1.9
		c-0.5,1.2-1.1,2.3-1.8,3.2l-0.9-1.1c0.7-1,1.3-2.2,1.8-3.5c-0.6-0.8-1.1-1.6-1.8-2.4l0.9-0.9c0.4,0.5,0.9,1,1.3,1.7
		c0.2-0.9,0.4-1.9,0.6-2.9l1.4,0.2c-0.2,1.5-0.6,2.9-1,4.1c0.5,0.7,1,1.5,1.5,2.3v-7.5h-8.6v2.6l0.8-0.8c0.4,0.4,0.9,1,1.3,1.6
		c0.2-0.8,0.4-1.7,0.5-2.7l1.3,0.2c-0.2,1.4-0.5,2.7-0.8,3.8c0.5,0.6,1,1.4,1.5,2.1l-1,1C441.2,506.7,440.9,506.2,440.6,505.7z"/>
	<path class="st6" d="M453.4,498c-0.6,1.6-1.3,3-2,4l1.3-0.2l0.7-1.5l1.2,0.5c1.1-0.9,1.8-2,2.2-3.3l1.4,0.3
		c-0.1,0.3-0.2,0.6-0.3,0.8h3.6v1.1c-0.4,1.1-1.1,2-2,2.9c0.9,0.6,2,1.1,3.2,1.4l-0.8,1.2l-0.4-0.1v5.3h-1.4v-0.5h-3.2v0.5h-1.4
		v-5.3c-0.2,0.1-0.3,0.1-0.5,0.2l-0.9-1.2c1.3-0.4,2.4-1,3.3-1.6c-0.4-0.4-0.8-0.9-1.1-1.3c-0.3,0.4-0.7,0.7-1.1,1l-0.8-1
		c-1,1.9-1.8,3.4-2.5,4.3c0.8-0.2,1.7-0.4,2.5-0.8v1.3c-1.5,0.5-2.9,0.9-4.2,1.1l-0.4-1.3c0.3-0.1,0.5-0.3,0.7-0.4
		c0.4-0.4,0.9-1.2,1.5-2.3c-0.6,0.1-1.3,0.2-1.9,0.3l-0.4-1.3c0.2-0.1,0.4-0.3,0.6-0.5c0.6-1.2,1.2-2.6,1.7-4.1L453.4,498z
		 M454.8,508.8c-1.4,0.5-2.9,0.9-4.7,1.2l-0.2-1.4c1.8-0.3,3.5-0.7,4.8-1.2V508.8z M458.5,503.5c-0.8,0.6-1.8,1.1-2.8,1.6h5.8
		C460.3,504.6,459.3,504.1,458.5,503.5z M460.1,508.6v-2.2h-3.2v2.2H460.1z M458.4,501.7c0.6-0.5,1.1-1.1,1.5-1.8h-2.7
		c-0.1,0.1-0.1,0.2-0.1,0.2C457.5,500.7,457.9,501.2,458.4,501.7z"/>
</g>
</svg>
