<?xml version="1.0" encoding="utf-8"?>
<!-- Generator: Adobe Illustrator 19.0.0, SVG Export Plug-In . SVG Version: 6.00 Build 0)  -->
<svg version="1.1" id="图层_1" xmlns="http://www.w3.org/2000/svg" xmlns:xlink="http://www.w3.org/1999/xlink" x="0px" y="0px"
	 viewBox="330 -45 820 250" style="enable-background:new 330 -45 820 250;" xml:space="preserve">
<style type="text/css">
	.st0{opacity:0.3;fill:url(#SVGID_1_);enable-background:new    ;}
	.st1{fill:url(#SVGID_2_);}
	.st2{opacity:0.2;}
	.st3{fill:url(#SVGID_3_);}
	.st4{opacity:0.3;fill:url(#SVGID_4_);enable-background:new    ;}
	.st5{fill:url(#SVGID_5_);}
	.st6{fill:url(#SVGID_6_);}
	.st7{fill:url(#SVGID_7_);}
	.st8{fill:url(#SVGID_8_);}
	.st9{fill:#FFFFFF;}
	.st10{fill:url(#SVGID_9_);}
	.st11{fill:#333333;}
	.st12{fill:#C2C5CA;}
	.st13{fill:url(#SVGID_10_);}
	.st14{fill:url(#SVGID_11_);}
	.st15{fill:url(#SVGID_12_);}
</style>
<linearGradient id="SVGID_1_" gradientUnits="userSpaceOnUse" x1="1067" y1="143" x2="1024" y2="186" gradientTransform="matrix(1 0 0 -1 0 160)">
	<stop  offset="0" style="stop-color:#0063FF"/>
	<stop  offset="1" style="stop-color:#00C8DE"/>
</linearGradient>
<polygon class="st0" points="1062,10 1074,10 1074,-1 1080,-1 1080,-18 1016,-18 1016,14 1062,14 "/>
<g>
	<g>
		
			<linearGradient id="SVGID_2_" gradientUnits="userSpaceOnUse" x1="882.2593" y1="52.7407" x2="786.5" y2="148.5" gradientTransform="matrix(1 0 0 -1 0 160)">
			<stop  offset="0" style="stop-color:#0063FF"/>
			<stop  offset="1" style="stop-color:#00C8DE"/>
		</linearGradient>
		<path class="st1" d="M866.9,105H783V32h106v34.9c1,0.2,1,0.4,1,0.5V16H782v90h86.4C867.9,105,867.4,105,866.9,105z M783,17h106v14
			H783V17z M787,25h3v-3h-3V25z M793,25h3v-3h-3V25z M799,25h3v-3h-3V25z M853.9,71.5c2.6,0,4.7-2,5-4.5l11.6-6.9
			c0.9,0.9,2.1,1.4,3.5,1.4c2.8,0,5-2.2,5-5s-2.2-5-5-5s-5,2.2-5,5c0,0.7,0.1,1.3,0.4,1.9l-10.7,6.4c-0.7-1.9-2.5-3.3-4.7-3.3
			c-2,0-3.7,1.2-4.5,2.8l-16.9-10.9c0.3-0.6,0.4-1.3,0.4-1.9c0-2.8-2.2-5-5-5s-5,2.2-5,5c0,0.2,0,0.4,0.1,0.7l-16.7,8
			c-0.8-1.6-2.5-2.6-4.4-2.6c-2.8,0-5,2.2-5,5c0,2.8,2.2,5,5,5c2.8,0,5-2.2,5-5c0-0.1,0-0.3,0-0.4l16.8-8c0.9,1.5,2.5,2.4,4.3,2.4
			c1.3,0,2.6-0.5,3.5-1.4l17.5,11.3c0,0,0,0.1,0,0.1C848.9,69.3,851.1,71.5,853.9,71.5z M873.9,53.5c1.7,0,3,1.3,3,3s-1.3,3-3,3
			s-3-1.3-3-3S872.2,53.5,873.9,53.5z M853.9,63.5c1.7,0,3,1.3,3,3s-1.3,3-3,3s-3-1.3-3-3S852.2,63.5,853.9,63.5z M801.9,65.5
			c-1.7,0-3-1.3-3-3s1.3-3,3-3c1.7,0,3,1.3,3,3S803.5,65.5,801.9,65.5z M827.9,54.5c-1.7,0-3-1.3-3-3s1.3-3,3-3c1.7,0,3,1.3,3,3
			S829.5,54.5,827.9,54.5z M871,90.7c-0.8,0-1.5,0.7-1.5,1.5c0,0.8,0.7,1.5,1.5,1.5s1.5-0.7,1.5-1.5C872.5,91.4,871.8,90.7,871,90.7
			z M884.5,86c0-2.8-2.2-5-5-5s-5,2.2-5,5s2.2,5,5,5S884.5,88.8,884.5,86z M876.5,86c0-1.7,1.3-3,3-3s3,1.3,3,3s-1.3,3-3,3
			S876.5,87.7,876.5,86z M891.5,86c0-5.4-3.6-9.9-8.4-11.4c-0.6-1.1-1.7-1.8-3-1.8c-1.2,0-2.2,0.6-2.8,1.5
			c-5.5,1.1-9.8,5.9-9.8,11.8c0,1.5,0.3,2.9,0.8,4.2c0.4-0.6,1-1,1.7-1.3c-0.3-0.9-0.4-1.9-0.4-3c0-4.5,3-8.4,7.2-9.6
			c0.1,1.8,1.6,3.1,3.4,3.1c1.7,0,3-1.2,3.3-2.8c3.6,1.5,6.1,5.1,6.1,9.2c0,5.5-4.5,10-10,10c-2.1,0-4.1-0.7-5.7-1.8
			c-0.4,0.6-1,1-1.7,1.2c2,1.6,4.6,2.6,7.4,2.6C886.1,98,891.5,92.6,891.5,86z M880.1,77.6c-0.8,0-1.4-0.6-1.4-1.4
			c0-0.8,0.6-1.4,1.4-1.4c0.8,0,1.4,0.6,1.4,1.4C881.5,76.9,880.8,77.6,880.1,77.6z M895,82.8C895,82.8,895,82.7,895,82.8
			c-0.9,0-1.6,0.7-1.6,1.5c0,0.8,0.7,1.5,1.5,1.5s1.5-0.7,1.5-1.5c0-0.2-0.1-0.5-0.2-0.7c0,0,0-0.1,0-0.1
			C896.1,83,895.6,82.7,895,82.8C895.1,82.7,895,82.8,895,82.8z M894.4,87.5c-0.8,7.6-7.2,13.5-14.9,13.5c-8.3,0-15-6.7-15-15
			s6.7-15,15-15c6.5,0,12.1,4.2,14.1,10.1c0.4-0.2,0.9-0.3,1.4-0.3c0.2,0,0.4,0,0.6,0.1C893.5,74,887.1,69,879.5,69
			c-9.4,0-17,7.6-17,17s7.6,17,17,17c8.9,0,16.3-6.9,16.9-15.7c-0.4,0.2-0.9,0.3-1.4,0.3C894.8,87.6,894.6,87.5,894.4,87.5z"/>
	</g>
</g>
<g class="st2">
	<g>
		
			<linearGradient id="SVGID_3_" gradientUnits="userSpaceOnUse" x1="659.5785" y1="65.6355" x2="587.968" y2="137.246" gradientTransform="matrix(1 0 0 -1 0 160)">
			<stop  offset="0" style="stop-color:#0063FF"/>
			<stop  offset="1" style="stop-color:#00C8DE"/>
		</linearGradient>
		<path class="st3" d="M625.4,70.6l6.9-3.7v-7.1l-6.9,4.1V70.6z M616.8,57.8l7.3,4l7.3-4l-7.3-4L616.8,57.8z M616,66.8l6.9,3.8V64
			l-6.9-4V66.8z M583.1,27.6l9.9,72h61.3l10.2-72C664.6,27.6,583.1,27.6,583.1,27.6z M624.1,42.7l-18.3,9.9v19.9l18.3,9.9l18.3-9.9
			V58.1l2.7-1.2v17.2l-21,11.4l-21-11.4V51.2l21-11.4l21,11.4l-2.7,1.5L624.1,42.7z M634.6,56.9v11.4l-10.5,5.7l-10.5-5.7V56.9
			l10.5-5.7L634.6,56.9z"/>
	</g>
</g>
<linearGradient id="SVGID_4_" gradientUnits="userSpaceOnUse" x1="865.514" y1="61.986" x2="795.25" y2="132.25" gradientTransform="matrix(1 0 0 -1 0 160)">
	<stop  offset="0" style="stop-color:#0063FF"/>
	<stop  offset="1" style="stop-color:#00C8DE"/>
</linearGradient>
<path class="st4" d="M857.5,86.8c0-12.2,9.6-22.1,21.8-22.1c2.1,0,4.8,0.2,5.8,0.7V36h-98v65h75.5C859.4,97,857.5,92.1,857.5,86.8z"
	/>
<g>
	<g>
		
			<linearGradient id="SVGID_5_" gradientUnits="userSpaceOnUse" x1="664.9853" y1="63.4982" x2="576.4078" y2="152.0758" gradientTransform="matrix(1 0 0 -1 0 160)">
			<stop  offset="0" style="stop-color:#0063FF"/>
			<stop  offset="1" style="stop-color:#00C8DE"/>
		</linearGradient>
		<path class="st5" d="M632.9,55.6l-0.4,2.1c-0.1,0.6-0.2,1.1-0.2,1.5c0,1.2,0.5,1.8,2.1,1.8h2.9c0.7,0,1,0,1,0.5
			c0,0.2,0,0.6-0.2,1.3l-0.2,1c-0.3,1.4-0.5,1.5-1.7,1.5h-5l0.4,2.2h4.6c1.3,0,2.2-0.1,2.9-0.5c0.7-0.5,1.1-1.3,1.3-2.5l0.4-2
			c0.1-0.4,0.3-1.6,0.3-2.1c0-1.5-1.1-1.7-2.7-1.7h-2.5c-0.5,0-0.8-0.1-0.8-0.4c0-0.2,0.1-0.6,0.2-1.1l0.2-1.2
			c0.2-1,0.4-1.2,1.3-1.2h4.8l0.9-2.2h-5.8C634.1,52.7,633.3,53.3,632.9,55.6z M626.2,52.6H623c-0.9,0-2,0-2.8,0.6
			c-0.8,0.6-1.3,1.6-1.6,3.2l-1,5.9c-0.2,1.2-0.3,1.8-0.3,2.4c0,2.2,1.2,2.9,3.9,2.9h3.3c0.9,0,1.9,0,2.8-0.6
			c0.9-0.6,1.3-1.6,1.6-3.2l1.1-6c0.2-1.2,0.3-1.8,0.3-2.4C630.1,53.3,629,52.6,626.2,52.6z M627.1,58.8l-0.7,4.2
			c-0.4,1.9-0.6,2.6-2.2,2.6h-1.9c-1.6,0-2.3-0.2-2.3-1.2c0-0.5,0.2-1.5,0.4-2.8l0.7-4.2c0.4-2,0.6-2.6,2.2-2.6h1.9
			c1.6,0,2.3,0.2,2.3,1.2C627.5,56.5,627.3,57.5,627.1,58.8z M663.3,23.5l3.8-8.1L629.9-1.8L626.2,6l-5.6-15.3L578.2,6.1l6.3,17.4
			h-6.9l11.2,80h69l11.8-80H663.3z M630.4-0.4L665.6,16l-3.5,7.5h-14.7c0.3-0.4,0.5-0.8,0.7-1.2c1.5-3.3,0.1-7.1-3.2-8.6
			c-3.3-1.5-7.1-0.1-8.6,3.2c-1.1,2.3-0.7,4.8,0.8,6.7h-17.7l-0.1-0.1L630.4-0.4z M647.2,21.9c-0.3,0.6-0.7,1.2-1.2,1.6h-7.4
			c-1.7-1.6-2.2-4-1.2-6.2c1.3-2.7,4.5-3.9,7.2-2.6C647.3,16,648.5,19.2,647.2,21.9z M618.1,23.5h-28.5l4.7-6l10.2,2.9l0-0.1
			l0.2,0.2l8.1-13l11.1,3.5L618.1,23.5z M579.8,6.8L620-7.8l5.6,15.3l-1.1,2.3L612.2,6L612,6.5l-7.9,12.6l-10.5-3l-0.1,0.3l-5.6,7.1
			h-2.1L579.8,6.8z M656.9,102.6h-66.8l-10.9-78h89.1L656.9,102.6z M609.2,53.3c-0.9,0.6-1.3,1.6-1.6,3.2l-1,5.7
			c-0.2,1.2-0.3,1.8-0.3,2.4c0,2.2,1.2,2.9,3.9,2.9h3.8l0.9-2.2h-3.6c-1.6,0-2.3-0.2-2.3-1.2c0-0.5,0.2-1.5,0.4-2.8l0.7-3.9
			c0.4-1.9,0.6-2.6,2.2-2.6h3.7l0.9-2.2h-4.9C611,52.7,610,52.7,609.2,53.3z M590.5,14.4c2-0.7,3.1-3,2.3-5c-0.7-2-3-3.1-5-2.3
			s-3.1,3-2.3,5C586.3,14.1,588.5,15.2,590.5,14.4z M588.2,8.2c1.4-0.5,3,0.2,3.5,1.6s-0.2,3-1.6,3.5c-1.4,0.5-3-0.2-3.5-1.6
			C586.1,10.3,586.8,8.7,588.2,8.2z M640.2,21.3l4.5-0.6l-2.4-3.9L640.2,21.3z"/>
	</g>
</g>
<g class="st2">
	<g>
		
			<linearGradient id="SVGID_6_" gradientUnits="userSpaceOnUse" x1="465.722" y1="66.719" x2="379.217" y2="153.224" gradientTransform="matrix(1 0 0 -1 0 160)">
			<stop  offset="0" style="stop-color:#0063FF"/>
			<stop  offset="1" style="stop-color:#00C8DE"/>
		</linearGradient>
		<path class="st6" d="M384.6,1.4l-0.1,97.1h76v-97L384.6,1.4z M410.5,64c0,1.4-1.1,2.5-2.5,2.5s-2.5-1.1-2.5-2.5V33.1
			c0-1.4,1.1-2.5,2.5-2.5c1.4,0,2.5,1.1,2.5,2.5V64z M420.5,64c0,1.4-1.1,2.5-2.5,2.5s-2.5-1.1-2.5-2.5V42.1c0-1.4,1.1-2.5,2.5-2.5
			c1.4,0,2.5,1.1,2.5,2.5V64z M430.5,64c0,1.4-1.1,2.5-2.5,2.5c-1.4,0-2.5-1.1-2.5-2.5V37.1c0-1.4,1.1-2.5,2.5-2.5
			c1.4,0,2.5,1.1,2.5,2.5V64z M440.5,64c0,1.4-1.1,2.5-2.5,2.5c-1.4,0-2.5-1.1-2.5-2.5V47.1c0-1.4,1.1-2.5,2.5-2.5
			c1.4,0,2.5,1.1,2.5,2.5V64z"/>
	</g>
</g>
<g>
	<g>
		
			<linearGradient id="SVGID_7_" gradientUnits="userSpaceOnUse" x1="471.6937" y1="60.9167" x2="373.3408" y2="159.2698" gradientTransform="matrix(1 0 0 -1 0 160)">
			<stop  offset="0" style="stop-color:#0063FF"/>
			<stop  offset="1" style="stop-color:#00C8DE"/>
		</linearGradient>
		<path class="st7" d="M419.5,53.4h2.1v-2h-2.1V53.4z M419.5,57.4h2.1v-2h-2.1V57.4z M421.5,47.4h-2.1v2h2.1V47.4z M404.5,50.4h2.1
			v-2h-2.1V50.4z M404.5,38.4h2.1v-2h-2.1V38.4z M436.6,45.9c0.2-0.6,0.8-1,1.4-1c0.8,0,1.5,0.7,1.5,1.5v16.5c0,1.9,1.6,3.5,3.5,3.5
			c0.1,0,0.3,0,0.4,0h5.1v-2H443v0c-0.8,0-1.5-0.7-1.5-1.5v-0.5h0V46.4c0,0,0,0,0-0.1v-0.5h0c-0.3-1.7-1.7-3-3.5-3
			c-1.9,0-3.5,1.6-3.5,3.5v0.9h2.1C436.6,47.4,436.6,45.9,436.6,45.9z M404.5,46.4h2.1v-2h-2.1V46.4z M404.5,42.4h2.1v-2h-2.1V42.4z
			 M456.5,5.4h-67.9l-0.1,29.3v58.7h68L456.5,5.4L456.5,5.4z M455.5,92.4h-66.1l0.1-86h66V92.4z M403,66.4c2,0,3.5-1.6,3.5-3.5V52.3
			h-2v8h0v2.5c0,0.8-0.7,1.5-1.5,1.5v0h-5.5v2h5.1C402.7,66.4,402.8,66.4,403,66.4z M406.5,32.4c0-0.8,0.7-1.5,1.5-1.5
			s1.5,0.7,1.5,1.5v2.5h-0.1v27.9c0,1.9,1.6,3.5,3.5,3.5s3.5-1.6,3.5-3.5l-0.1-20.5h0v-0.9c0-0.8,0.7-1.5,1.5-1.5s1.5,0.7,1.5,1.5
			v0.5h-0.1v3.5h2.1v-3.9c0-1.9-1.6-3.5-3.5-3.5s-3.5,1.6-3.5,3.5v18.9h0.1l0,2.5c0,0.8-0.7,1.5-1.5,1.5s-1.5-0.7-1.5-1.5v-2.5h0.1
			V32.4c0-1.9-1.6-3.5-3.5-3.5s-3.5,1.6-3.5,3.5v1.9h2C406.5,34.4,406.5,32.4,406.5,32.4z M378.6-4.5l0,29.2v79.7h87.8V-4.5H378.6z
			 M465.5,103.4h-86v-107h86L465.5,103.4L465.5,103.4z M436.5,53.4h-2.1v2h2.1V53.4z M421.5,60.4L421.5,60.4l0.1-0.9h-2.1v3.4
			c0,1.9,1.6,3.5,3.5,3.5s3.5-1.6,3.5-3.5V40.9h-0.1v-4.5c0-0.8,0.7-1.5,1.5-1.5c0.8,0,1.5,0.7,1.5,1.5v5.5h-0.1v20.9
			c0,1.9,1.6,3.5,3.5,3.5c1.9,0,3.5-1.6,3.5-3.5v-1.4h-2.1v1h0.1v0.5c0,0.8-0.7,1.5-1.5,1.5c-0.8,0-1.5-0.7-1.5-1.5v-0.3h0.1V36.4
			c0-1.9-1.6-3.5-3.5-3.5c-1.9,0-3.5,1.6-3.5,3.5v26.1h0.1v0.3c0,0.8-0.7,1.5-1.5,1.5s-1.5-0.7-1.5-1.5L421.5,60.4L421.5,60.4z
			 M434.5,59.4h2.1v-2h-2.1V59.4z M436.5,49.4h-2.1v2h2.1V49.4z"/>
	</g>
</g>
<g class="st2">
	<g>
		
			<linearGradient id="SVGID_8_" gradientUnits="userSpaceOnUse" x1="1074.9811" y1="8.6171" x2="1023.41" y2="60.188" gradientTransform="matrix(1 0 0 -1 0 160)">
			<stop  offset="0" style="stop-color:#0063FF"/>
			<stop  offset="1" style="stop-color:#00C8DE"/>
		</linearGradient>
		<polygon class="st8" points="1020.3,102.9 1029.7,158 1068.3,158 1078.3,102.9 		"/>
	</g>
</g>
<g>
	<polygon class="st9" points="1060,136.9 1048,143.7 1036,136.9 1036,123.2 1048.7,116.3 1061.1,123.2 1063.3,122 1048.7,114 
		1034,122 1034,138 1048,146 1062,138 1062,126 1060,127.2 	"/>
	<path class="st9" d="M1041,126v8l7,4l7-4v-8l-7-4L1041,126z M1047,135.2l-4-2.3v-3.7l4,2.3V135.2z M1053,132.9l-4,2.3v-3.7l4-2.3
		V132.9z M1049.5,129.7l-4.7-2.7l4.7-2.7l4.7,2.7L1049.5,129.7z"/>
</g>
<linearGradient id="SVGID_9_" gradientUnits="userSpaceOnUse" x1="862.75" y1="101.75" x2="809.25" y2="155.25" gradientTransform="matrix(1 0 0 -1 0 160)">
	<stop  offset="0" style="stop-color:#0063FF"/>
	<stop  offset="1" style="stop-color:#00C8DE"/>
</linearGradient>
<rect x="783" y="31" class="st10" width="106" height="1"/>
<g>
	<rect x="798" y="81" class="st9" width="7" height="9"/>
	<rect x="812" y="75" class="st9" width="7" height="15"/>
	<rect x="826" y="71" class="st9" width="7" height="19"/>
	<rect x="839" y="76" class="st9" width="7" height="14"/>
	<rect x="853" y="85" class="st9" width="7" height="5"/>
</g>
<g>
	<path class="st11" d="M411.9,131.8l-0.3,0.8h2.9v0.9c-0.3,0.9-0.8,1.7-1.5,2.4c0.7,0.3,1.3,0.6,1.9,0.9l-0.5,0.8
		c-0.6-0.4-1.4-0.7-2.1-1.1c-0.9,0.6-2.1,1.2-3.5,1.6l-0.5-0.9c1.2-0.3,2.1-0.7,2.9-1.1l-1.9-0.8c0.4-0.6,0.7-1.2,1-1.7h-1.6v-0.9
		h2.1c0.2-0.7,0.3-0.9,0.3-0.9L411.9,131.8z M408.5,127.9h2.7v-2.7h0.9v2.7h2.5v0.9h-2.5v0.2c0.8,0.4,1.5,0.8,2.3,1.3L414,131
		c-0.7-0.6-1.3-1-1.8-1.3v1.8h-0.9v-2.7c-0.5,1.1-1.3,2-2.5,2.9l-0.5-0.8c1.1-0.6,1.8-1.3,2.3-2.1h-2
		C408.5,128.8,408.5,127.9,408.5,127.9z M409.6,125.5c0.4,0.6,0.7,1.1,0.9,1.7l-0.8,0.4c-0.3-0.7-0.6-1.3-1-1.8L409.6,125.5z
		 M413.5,133.5h-2.4c-0.2,0.5-0.5,0.9-0.8,1.3c0.6,0.2,1.1,0.4,1.6,0.6C412.7,134.9,413.2,134.2,413.5,133.5z M414.6,125.8
		c-0.3,0.6-0.6,1.2-1.1,1.8l-0.8-0.4c0.4-0.6,0.8-1.2,1-1.8L414.6,125.8z M416.1,130.6c-0.2,0.6-0.5,1.2-0.8,1.7l-0.6-0.8
		c0.8-1.6,1.4-3.7,1.7-6.3l1,0.2c-0.1,0.6-0.2,1.2-0.3,2h3.7v1h-0.9c-0.1,2.3-0.5,4.3-1.2,6c0.7,1.2,1.6,2.2,2.6,2.8l-0.6,0.9
		c-1-0.7-1.8-1.6-2.5-2.8c-0.7,1.1-1.5,2.1-2.6,2.8l-0.5-0.9c1.1-0.8,2-1.7,2.6-2.9C417,133.2,416.5,132,416.1,130.6z M416.8,128.3
		c-0.1,0.3-0.2,0.6-0.2,0.7c0.3,1.6,0.8,3,1.4,4.2c0.5-1.4,0.8-3.1,0.9-4.9L416.8,128.3L416.8,128.3z"/>
	<path class="st11" d="M422.7,138l-0.2-1c0.4,0,0.8,0.1,1.1,0.1c0.4,0,0.5-0.2,0.5-0.6V133c-0.7,0.2-1.2,0.4-1.7,0.6l-0.3-1
		c0.6-0.1,1.3-0.3,1.9-0.6v-3.2h-1.7v-1h1.7v-2.6h1v2.6h1.3v1h-1.3v2.8c0.4-0.2,0.9-0.4,1.3-0.6v1c-0.3,0.1-0.7,0.4-1.3,0.6v4.1
		c0,0.8-0.4,1.2-1.2,1.2L422.7,138L422.7,138z M428.1,131.8c-0.2,2.4-0.7,4.5-1.6,6.3l-0.8-0.7c1-1.9,1.5-4.2,1.5-7.2v-4.4h7.4v3.4
		h-2.6v1.6h3v0.9h-3v1.7h2.4v4.6h-0.9v-0.7h-3.8v0.7h-0.9v-4.6h2.3v-1.7L428.1,131.8L428.1,131.8z M430.9,129.2h-2.8l0,1.6h2.8
		V129.2z M433.6,126.7h-5.4v1.6h5.4V126.7z M429.5,136.5h3.8v-2.1h-3.8V136.5z"/>
</g>
<g>
	<path class="st11" d="M578.8,124.6h1v4.3h5.2v1h-5.2v6h6.4v1h-12.5v-1h5V124.6L578.8,124.6z"/>
	<path class="st11" d="M589.3,129.6c-0.5,0.7-1,1.2-1.5,1.8l-0.3-1.1c1.5-1.7,2.6-3.6,3.3-5.7l1,0.4c-0.4,1.1-0.8,2.1-1.4,3.1v9.4
		h-1V129.6z M591.8,126.4h2.7l0.4-1.8l1,0.1l-0.4,1.7h4.2v1h-4.5c-0.2,0.7-0.3,1.2-0.5,1.6h5.5v1h-5.9c-0.2,0.5-0.4,1.1-0.7,1.8h5.8
		v0.9c-0.6,1-1.5,2-2.8,2.9c0.6,0.3,1.3,0.7,1.9,1.1l-0.6,0.9c-1.7-1.2-3.5-2.1-5.3-2.8l0.5-0.8c0.9,0.3,1.7,0.7,2.5,1.1
		c1.1-0.7,2-1.5,2.6-2.4h-6c0.4-0.9,0.7-1.8,1-2.7h-2.3v-1h2.6c0.2-0.5,0.3-1.1,0.5-1.6h-2.5V126.4z"/>
	<path class="st11" d="M602.7,132.6h4.7v-1.6h1v1.6h4.6v1h-4.6v2.3h5.6v1h-12.3v-1h5.6v-2.3h-4.7V132.6z M602.1,125.3h11.6v1h-6.6
		c-0.8,1.4-1.8,2.5-2.9,3.4c2.3-0.1,4.5-0.4,6.6-0.7c-0.4-0.5-0.9-1-1.3-1.5l0.8-0.5c1.3,1.4,2.3,2.6,3,3.6l-0.8,0.6
		c-0.3-0.4-0.6-0.9-1-1.4c-2.8,0.4-5.7,0.7-8.8,0.9l-0.3-0.9c1.4-0.8,2.5-2,3.5-3.5h-3.9V125.3z"/>
	<path class="st11" d="M616.6,128.2c0.8,0.9,1.6,1.8,2.5,2.9c0.5-1.3,0.8-2.6,0.9-4.1h-3.8v-1h4.7v0.7c-0.1,1.9-0.5,3.7-1.2,5.2
		c0.6,0.8,1.1,1.6,1.6,2.4l-0.7,0.7c-0.4-0.7-0.9-1.4-1.4-2.1c-0.8,1.3-1.8,2.5-3.1,3.6l-0.6-0.9c1.3-1,2.3-2.2,3.1-3.6
		c-0.8-1-1.6-2.1-2.7-3.2L616.6,128.2z M622.4,129.9c1,1.2,1.7,2.2,2.2,3.1l-0.8,0.6c-0.6-1-1.3-2-2.1-3.1L622.4,129.9z
		 M621.6,127.3h4.1v-2.7h1v2.7h1.6v1h-1.6v7.7c0,0.9-0.5,1.4-1.4,1.4H623l-0.2-1c0.8,0,1.5,0.1,2.1,0.1c0.5,0,0.8-0.2,0.8-0.7v-7.4
		h-4.1L621.6,127.3L621.6,127.3z"/>
	<path class="st11" d="M631.2,127.8c-0.3,0.2-0.6,0.3-1,0.5l-0.6-0.8c1.9-0.8,3.4-1.8,4.6-3l1.1,0.2c-0.3,0.3-0.6,0.6-0.7,0.8h4.5
		v0.7c-0.4,0.4-0.9,0.8-1.3,1.2h3.7v3.1h-5.6c0.8,0.6,1.4,1.3,1.8,2c1.4-0.4,2.5-1,3.5-1.6l0.7,0.8c-0.7,0.4-1.4,0.8-2.2,1.2
		c0.6,1.2,1.6,2.3,3.1,3.2l-0.7,0.8c-1.5-1.1-2.6-2.4-3.3-3.7l-0.7,0.2c0.2,0.4,0.3,0.9,0.3,1.5c0,1-0.2,1.6-0.6,2
		c-0.4,0.3-1,0.5-1.8,0.6c-0.3,0-0.6,0-1,0l-0.3-0.9l1.2,0c0.4,0,0.8-0.1,1.1-0.4c0.3-0.2,0.4-0.7,0.4-1.3c0-0.2,0-0.4-0.1-0.7
		c-1.6,1.2-3.8,2.1-6.5,2.9l-0.5-0.9c2.9-0.8,5.1-1.7,6.7-2.9c-0.1-0.3-0.3-0.6-0.5-0.9c-1.4,1-3.2,1.8-5.6,2.5l-0.5-0.9
		c2.4-0.6,4.3-1.3,5.6-2.2c-0.3-0.3-0.5-0.5-0.8-0.8c-1.1,0.8-2.6,1.4-4.5,1.7l-0.4-0.8c1.7-0.3,3.1-0.8,4.1-1.4h-3L631.2,127.8
		L631.2,127.8z M636.4,127.3c0.4-0.3,0.9-0.6,1.4-1.1h-4.1c-0.4,0.3-0.9,0.7-1.5,1.1H636.4z M635.2,129.6c0.4-0.4,0.6-0.9,0.8-1.4
		h-3.7v1.4H635.2z M640.3,129.6v-1.4H637c-0.2,0.6-0.4,1-0.6,1.4H640.3z"/>
	<path class="st11" d="M644,126h3.8c0.2-0.6,0.4-1,0.5-1.5l1,0.1c-0.2,0.5-0.3,1-0.4,1.4h7.2v1h-7.5c-0.5,1.2-1.2,2.3-1.9,3.3v7.1
		h-1v-5.9c-0.5,0.5-1,1-1.5,1.5l-0.6-0.8c1.7-1.5,3-3.2,3.9-5.2H644L644,126L644,126z M647.7,132.5h4.1v-1.3c0.8-0.5,1.6-1,2.3-1.6
		h-5.3v-0.9h6.6v0.9c-0.8,0.7-1.6,1.4-2.6,2v0.9h3.5v1h-3.5v2.6c0,0.8-0.4,1.2-1.2,1.2h-1.8l-0.3-1c0.7,0,1.2,0,1.6,0
		c0.4,0,0.6-0.2,0.6-0.6v-2.3h-4.1V132.5z"/>
	<path class="st11" d="M658.8,129.6c-0.3,0.5-0.7,1.1-1,1.6l-0.3-1.1c1.1-1.6,1.9-3.5,2.4-5.5l0.9,0.4c-0.2,0.9-0.6,1.8-0.9,2.7v9.7
		h-1L658.8,129.6L658.8,129.6z M660.3,128.9h2.5v5.9c0.3-0.3,0.7-0.8,1.1-1.3l0.2,1c-0.7,0.8-1.4,1.6-2.2,2.4l-0.4-0.9
		c0.2-0.2,0.3-0.4,0.3-0.5v-5.6h-1.6L660.3,128.9L660.3,128.9z M661.7,125.1c0.8,0.7,1.5,1.4,2.1,2.1L663,128
		c-0.5-0.7-1.2-1.4-2-2.2L661.7,125.1z M664.4,126.2h1.7v-1.6h0.9v1.6h1.6v0.8c0.3-0.6,0.5-1.1,0.8-1.7l0.8,0.4
		c-0.5,1.1-1,2.2-1.7,3.1h1.6v0.9h-2.3c-0.4,0.5-0.8,0.9-1.2,1.3h2.9v6.2h-1v-0.6H666v0.6H665v-5c-0.2,0.1-0.6,0.3-1,0.5l-0.5-0.8
		c1.2-0.6,2.3-1.3,3.2-2.3h-2.5v-0.9h2v-1.8h-1.7V126.2z M668.6,133.5V132H666v1.5H668.6z M666,134.4v1.5h2.6v-1.5H666z
		 M667.5,128.9c0.4-0.6,0.8-1.2,1.1-1.8H667v1.8H667.5z"/>
</g>
<g>
	<path class="st11" d="M796.9,130.8l-0.3,0.8h2.9v0.9c-0.3,0.9-0.8,1.7-1.5,2.4c0.7,0.3,1.3,0.6,1.9,0.9l-0.5,0.8
		c-0.6-0.4-1.4-0.7-2.1-1.1c-0.9,0.6-2.1,1.2-3.5,1.6l-0.5-0.9c1.2-0.3,2.1-0.7,2.9-1.1l-1.9-0.8c0.4-0.6,0.7-1.2,1-1.7h-1.6v-0.9
		h2.1c0.2-0.7,0.3-0.9,0.3-0.9L796.9,130.8z M793.5,126.9h2.7v-2.7h0.9v2.7h2.5v0.9h-2.5v0.2c0.8,0.4,1.5,0.8,2.3,1.3L799,130
		c-0.7-0.6-1.3-1-1.8-1.3v1.8h-0.9v-2.7c-0.5,1.1-1.3,2-2.5,2.9l-0.5-0.8c1.1-0.6,1.8-1.3,2.3-2.1h-2L793.5,126.9L793.5,126.9z
		 M794.6,124.5c0.4,0.6,0.7,1.1,0.9,1.7l-0.8,0.4c-0.3-0.7-0.6-1.3-1-1.8L794.6,124.5z M798.5,132.5h-2.4c-0.2,0.5-0.5,0.9-0.8,1.3
		c0.6,0.2,1.1,0.4,1.6,0.6C797.7,133.9,798.2,133.2,798.5,132.5z M799.6,124.8c-0.3,0.6-0.6,1.2-1.1,1.8l-0.8-0.4
		c0.4-0.6,0.8-1.2,1-1.8L799.6,124.8z M801.1,129.6c-0.2,0.6-0.5,1.2-0.8,1.7l-0.6-0.8c0.8-1.6,1.4-3.7,1.7-6.3l1,0.2
		c-0.1,0.6-0.2,1.2-0.3,2h3.7v1h-0.9c-0.1,2.3-0.5,4.3-1.2,6c0.7,1.2,1.6,2.2,2.6,2.8l-0.6,0.9c-1-0.7-1.8-1.6-2.5-2.8
		c-0.7,1.1-1.6,2.1-2.6,2.8l-0.5-0.9c1.1-0.8,2-1.7,2.6-2.9C802,132.2,801.5,131,801.1,129.6z M801.8,127.3
		c-0.1,0.3-0.2,0.6-0.2,0.7c0.3,1.6,0.8,3,1.4,4.2c0.5-1.4,0.8-3.1,0.9-4.9L801.8,127.3L801.8,127.3z"/>
	<path class="st11" d="M807.7,137l-0.2-1c0.4,0,0.8,0.1,1.1,0.1c0.4,0,0.5-0.2,0.5-0.6V132c-0.7,0.2-1.2,0.4-1.7,0.6l-0.3-1
		c0.6-0.1,1.3-0.3,1.9-0.6v-3.2h-1.7v-1h1.7v-2.6h1v2.6h1.3v1h-1.3v2.8c0.4-0.2,0.9-0.4,1.3-0.6v1c-0.3,0.1-0.7,0.4-1.3,0.6v4.1
		c0,0.8-0.4,1.2-1.2,1.2L807.7,137L807.7,137z M813.1,130.8c-0.2,2.4-0.7,4.5-1.6,6.3l-0.8-0.7c1-1.9,1.5-4.2,1.5-7.2v-4.4h7.4v3.4
		h-2.6v1.6h3v0.9h-3v1.7h2.4v4.6h-0.9v-0.7h-3.8v0.7h-0.9v-4.6h2.3v-1.7L813.1,130.8L813.1,130.8z M815.9,128.2h-2.8l0,1.6h2.8
		V128.2L815.9,128.2z M818.6,125.7h-5.4v1.6h5.4V125.7z M814.5,135.5h3.8v-2.1h-3.8V135.5z"/>
	<path class="st11" d="M825,124.4c-0.1,0.7-0.3,1.4-0.4,2h3.1v0.9c-0.4,2.5-1.1,4.5-2.2,6.2c0.3,0.5,0.7,0.9,1.1,1.2
		c1.1,0.8,2.8,1.2,5.2,1.2c0.6,0,1.4,0,2.2-0.1l-0.2,1.1h-1.5c-2.9,0-5-0.5-6.3-1.4c-0.4-0.3-0.7-0.7-1.1-1.1
		c-0.9,1.1-1.9,2-3.1,2.7l-0.5-1c1.2-0.7,2.2-1.6,3-2.7c-0.5-0.9-0.9-2-1.2-3.2c-0.3,0.6-0.7,1.2-1.2,1.8l-0.7-0.9
		c1.3-1.6,2.2-3.9,2.7-6.7L825,124.4z M824.9,132.4c0.8-1.4,1.4-3.1,1.8-5h-2.4c-0.2,0.5-0.3,1-0.5,1.5
		C824.1,130.3,824.5,131.5,824.9,132.4z M829.5,124.3h1v3.6c1.1,0.8,2.3,1.8,3.5,2.9l-0.6,0.9c-1.2-1.2-2.1-2.1-2.9-2.7v5.8h-1
		V124.3z"/>
	<path class="st11" d="M835.5,129.4h1.5v-3.3h-1.7v-1h4.4v1H838v3.3h1.5v1H838v3.1c0.6-0.2,1.1-0.4,1.7-0.7v1
		c-1.3,0.6-2.7,1-4.3,1.5l-0.3-1c0.6-0.1,1.2-0.3,1.9-0.4v-3.5h-1.5V129.4z M840.5,124.8h6.7v6.5h-2.9v1.7h3.1v0.9h-3.1v1.8h3.5v1
		h-8.1v-1h3.5v-1.8h-3.1V133h3.1v-1.7h-2.9V124.8L840.5,124.8z M841.5,127.6h1.9v-1.9h-1.9L841.5,127.6L841.5,127.6z M843.4,130.4
		v-1.9h-1.9v1.9H843.4z M844.4,125.7v1.9h1.9v-1.9H844.4z M846.3,130.4v-1.9h-1.9v1.9H846.3z"/>
	<path class="st11" d="M855.1,124.2h1v2.5h5v6.6h-1v-0.9h-4v4.8h-1v-4.8h-4v0.9h-1v-6.6h5L855.1,124.2L855.1,124.2z M851.1,131.4h4
		v-3.7h-4V131.4z M856.1,131.4h4v-3.7h-4V131.4z"/>
	<path class="st11" d="M865.7,128.9c-0.4,2.4-1,4.5-1.7,6.2l-0.9-0.5c0.7-1.7,1.2-3.7,1.6-5.9L865.7,128.9z M868.3,136.6
		c-1,0-1.5-0.5-1.5-1.4v-8h1v7.8c0,0.4,0.3,0.6,0.8,0.6h2.6c0.3,0,0.6-0.1,0.7-0.4c0.2-0.3,0.3-1.3,0.4-3l1,0.3
		c-0.1,1.9-0.3,3.1-0.6,3.5c-0.3,0.4-0.7,0.5-1.2,0.5H868.3z M868.7,124.3c1.3,1.4,2.3,2.6,3,3.6l-0.8,0.6c-0.8-1.2-1.8-2.4-3-3.6
		L868.7,124.3z M873.8,128.2c0.9,1.8,1.7,3.7,2.3,5.8l-0.9,0.4c-0.7-2.2-1.5-4.2-2.4-5.9L873.8,128.2z"/>
</g>
<g>
	<path class="st11" d="M1024.9,175.9h1v2.6h1.6v1h-1.6v1.1c0.7,0.7,1.3,1.5,2.1,2.3l-0.6,0.9c-0.6-0.9-1.1-1.6-1.5-2.1v7h-1v-7
		c-0.4,1.3-1,2.6-1.7,3.7l-0.4-1.1c1-1.4,1.7-2.9,2.1-4.7h-1.7v-1h1.7V175.9L1024.9,175.9z M1030,182.5c-0.4,1.9-1.1,3.6-1.9,5.1
		l-0.9-0.6c0.9-1.4,1.5-3,1.9-4.7L1030,182.5z M1029.6,188.6l-0.2-0.9c0.6,0,1,0.1,1.3,0.1c0.4,0,0.6-0.2,0.6-0.6v-6h-3.4v-1h7.9v1
		h-3.4v6.2c0,0.8-0.4,1.2-1.2,1.2H1029.6z M1028.5,176.7h6.4v1h-6.4V176.7z M1034.1,182.2c0.6,1.6,1.1,3.3,1.5,5.1l-0.9,0.4
		c-0.5-1.9-1-3.7-1.5-5.2L1034.1,182.2z"/>
	<path class="st11" d="M1037.8,176.4c1,1.3,1.7,2.3,2.2,3.2l-0.8,0.6c-0.5-0.9-1.3-2-2.2-3.2L1037.8,176.4z M1040.1,182.8
		c-0.6,2-1.3,3.9-2.2,5.8l-1-0.4c0.9-2,1.6-3.9,2.2-5.8L1040.1,182.8z M1042.5,188v0.8h-1v-8.3c-0.4,0.6-0.8,1.3-1.3,1.9l-0.3-1.1
		c1.2-1.6,2.1-3.5,2.6-5.4l1,0.2c-0.2,0.8-0.5,1.5-0.8,2.2h3c-0.2-0.8-0.5-1.5-0.8-2.2l1-0.3c0.3,0.8,0.6,1.6,0.8,2.4l-0.4,0.1h3.2
		v1h-3v1.9h2.7v0.9h-2.7v1.9h2.7v0.9h-2.7v2.1h3.2v0.9L1042.5,188L1042.5,188z M1045.4,179.3h-2.9v1.9h2.9V179.3z M1042.5,182.1v1.9
		h2.9v-1.9H1042.5z M1042.5,185v2.1h2.9V185H1042.5z"/>
	<path class="st11" d="M1051.3,177.3h3.8c0.2-0.6,0.4-1,0.5-1.5l1,0.1c-0.2,0.5-0.3,1-0.4,1.4h7.2v1h-7.5c-0.5,1.2-1.2,2.3-1.9,3.3
		v7.1h-1v-5.9c-0.5,0.5-1,1-1.5,1.5l-0.6-0.8c1.7-1.5,3-3.2,3.9-5.2h-3.4L1051.3,177.3L1051.3,177.3z M1055,183.8h4.1v-1.3
		c0.8-0.5,1.6-1,2.3-1.6h-5.3V180h6.6v0.9c-0.8,0.7-1.6,1.4-2.6,2v0.9h3.5v1h-3.5v2.6c0,0.8-0.4,1.2-1.2,1.2h-1.8l-0.3-1
		c0.7,0,1.2,0,1.6,0c0.4,0,0.6-0.2,0.6-0.6v-2.3h-4.1L1055,183.8L1055,183.8z"/>
	<path class="st11" d="M1066.1,180.9c-0.3,0.5-0.7,1.1-1,1.6l-0.3-1.1c1.1-1.6,1.9-3.5,2.4-5.5l0.9,0.4c-0.2,0.9-0.6,1.8-0.9,2.7
		v9.7h-1V180.9z M1067.7,180.3h2.5v5.9c0.3-0.3,0.7-0.8,1.1-1.3l0.2,1c-0.7,0.8-1.4,1.6-2.2,2.4l-0.4-0.9c0.2-0.2,0.3-0.4,0.3-0.5
		v-5.6h-1.6V180.3z M1069,176.5c0.8,0.7,1.5,1.4,2.1,2.1l-0.7,0.7c-0.5-0.7-1.2-1.4-2-2.2L1069,176.5z M1071.8,177.5h1.7v-1.6h0.9
		v1.6h1.6v0.8c0.3-0.6,0.5-1.1,0.8-1.7l0.8,0.4c-0.5,1.1-1,2.2-1.7,3.1h1.6v0.9h-2.3c-0.4,0.5-0.8,0.9-1.2,1.3h2.9v6.2h-1v-0.6h-2.6
		v0.6h-0.9v-5c-0.2,0.1-0.6,0.3-1,0.5l-0.5-0.8c1.2-0.6,2.3-1.3,3.2-2.3h-2.5v-0.9h2v-1.8h-1.7V177.5L1071.8,177.5z M1075.9,184.9
		v-1.5h-2.6v1.5H1075.9z M1073.3,185.7v1.5h2.6v-1.5H1073.3z M1074.8,180.2c0.4-0.6,0.8-1.2,1.1-1.8h-1.6v1.8H1074.8z"/>
</g>
<g>
	<path class="st11" d="M1001.1,42.6h1v12.8h-1v-4.6c-0.9,0.8-1.8,1.5-2.6,2.1l-0.4-1c0.8-0.5,1.8-1.2,3-2.3V42.6z M999,44.2
		c0.6,0.9,1.2,1.9,1.7,3.1l-0.9,0.4c-0.5-1.2-1.1-2.2-1.7-3.1L999,44.2z M1005.7,44.5c-0.6,0.7-1.4,1.4-2.4,1.9l-0.6-0.8
		c1.5-0.8,2.5-1.8,3.1-3.1l1,0.2c-0.1,0.3-0.3,0.6-0.4,0.9h4.1v0.9c-0.8,2-3,3.5-6.6,4.3l-0.5-0.9c1.1-0.2,2-0.5,2.9-0.9
		c-0.4-0.4-0.8-0.7-1.3-1.1l0.7-0.5c0.5,0.4,1,0.8,1.5,1.2c1-0.6,1.8-1.3,2.3-2.1L1005.7,44.5L1005.7,44.5z M1003,49.4h5.3v-1.4h1
		v1.4h1.7v1h-1.7v3.8c0,0.8-0.4,1.3-1.3,1.3h-1.9l-0.2-1c0.7,0,1.2,0.1,1.7,0.1c0.5,0,0.7-0.2,0.7-0.6v-3.5h-5.3L1003,49.4
		L1003,49.4z M1004.8,50.9c0.8,0.8,1.4,1.6,1.8,2.2l-0.8,0.6c-0.4-0.7-1-1.5-1.8-2.3L1004.8,50.9z"/>
	<path class="st11" d="M1016,42.7c-0.1,0.7-0.3,1.4-0.4,2h3.1v0.9c-0.4,2.5-1.1,4.5-2.2,6.2c0.3,0.5,0.7,0.9,1.1,1.2
		c1.1,0.8,2.8,1.2,5.2,1.2c0.6,0,1.4,0,2.2-0.1l-0.2,1.1h-1.5c-2.9,0-5-0.5-6.3-1.4c-0.4-0.3-0.7-0.7-1.1-1.1
		c-0.9,1.1-1.9,2-3.1,2.7l-0.5-1c1.2-0.7,2.2-1.6,3-2.7c-0.5-0.9-0.9-2-1.2-3.2c-0.3,0.6-0.7,1.2-1.2,1.8l-0.7-0.9
		c1.3-1.7,2.2-3.9,2.7-6.7L1016,42.7z M1015.9,50.7c0.8-1.4,1.4-3.1,1.8-5h-2.4c-0.2,0.5-0.3,1-0.5,1.5
		C1015.1,48.6,1015.5,49.8,1015.9,50.7z M1020.5,42.6h1v3.6c1.1,0.8,2.3,1.8,3.5,2.9l-0.6,0.9c-1.2-1.2-2.1-2.1-2.9-2.7v5.8h-1V42.6
		z"/>
	<path class="st11" d="M1026.5,47.8h1.5v-3.3h-1.7v-1h4.4v1h-1.7v3.3h1.5v1h-1.5v3.1c0.6-0.2,1.1-0.4,1.7-0.7v1
		c-1.3,0.6-2.7,1-4.3,1.5l-0.3-1c0.6-0.1,1.2-0.3,1.9-0.4v-3.5h-1.5L1026.5,47.8L1026.5,47.8z M1031.5,43.1h6.7v6.5h-2.9v1.7h3.1
		v0.9h-3.1V54h3.5v1h-8.1v-1h3.5v-1.8h-3.1v-0.9h3.1v-1.7h-2.9V43.1z M1032.5,45.9h1.9V44h-1.9V45.9z M1034.4,48.7v-1.9h-1.9v1.9
		L1034.4,48.7L1034.4,48.7z M1035.4,44v1.9h1.9V44H1035.4z M1037.3,48.7v-1.9h-1.9v1.9L1037.3,48.7L1037.3,48.7z"/>
	<path class="st11" d="M1043.6,42.5c-0.2,1-0.3,2-0.5,2.7h2.4v0.6c-0.1,2.2-0.6,4.1-1.4,5.8c0.8,0.6,1.4,1.2,2,1.7l-0.7,0.8
		c-0.4-0.4-1-1-1.8-1.6c-0.7,1.2-1.6,2.2-2.7,3l-0.7-0.8c1.1-0.8,1.9-1.7,2.6-2.8c-0.6-0.4-1.3-1-2.2-1.6c0.4-1.2,0.8-2.5,1.1-4
		h-1.5v-1h1.7c0.2-0.8,0.4-1.8,0.5-2.8L1043.6,42.5z M1043.3,51c0.7-1.4,1.1-3,1.2-4.8h-1.6c-0.3,1.5-0.7,2.7-1,3.7L1043.3,51z
		 M1046,48.5h3.2v-1.8c0.8-0.7,1.5-1.5,2.2-2.4h-4.9v-1h6.1v1c-0.7,1-1.4,1.9-2.3,2.7v1.5h2.9v1h-2.9v4.5c0,0.9-0.4,1.3-1.1,1.3h-2
		l-0.3-1l1.9,0c0.3,0,0.5-0.2,0.5-0.7v-4.2h-3.2L1046,48.5L1046,48.5z"/>
	<path class="st11" d="M1059.3,45v9.5h-1v-0.8h-2.5v1.2h-1V45h1.3c0.3-0.8,0.5-1.6,0.6-2.4l1,0.1c-0.2,0.9-0.4,1.7-0.7,2.3H1059.3z
		 M1055.7,48.8h2.5v-2.9h-2.5V48.8z M1055.7,52.8h2.5v-3.1h-2.5V52.8z M1066.5,45c0,4.7-0.1,7.5-0.2,8.6c-0.1,1.1-0.8,1.6-2,1.6
		l-1.4-0.1l-0.2-0.9c0.6,0,1.1,0,1.5,0c0.7,0,1-0.4,1.1-1.1c0.1-0.8,0.1-3.2,0.2-7.2h-3.9c-0.4,0.9-0.9,1.7-1.4,2.4l-0.6-0.8
		c1-1.4,1.6-3,2-5l1,0.1c-0.2,0.9-0.4,1.7-0.6,2.3C1062,45,1066.5,45,1066.5,45z M1061.7,48.2c1,1.1,1.7,2.1,2.3,3.1l-0.8,0.6
		c-0.6-0.9-1.3-2-2.3-3.1L1061.7,48.2z"/>
	<path class="st11" d="M1071.9,49.2l-0.3,0.8h2.9v0.9c-0.3,0.9-0.8,1.7-1.5,2.4c0.7,0.3,1.3,0.6,1.9,0.9l-0.5,0.8
		c-0.6-0.4-1.4-0.7-2.1-1.1c-0.9,0.6-2.1,1.2-3.5,1.6l-0.5-0.9c1.2-0.3,2.1-0.7,2.9-1.1l-1.9-0.8c0.4-0.6,0.7-1.2,1-1.7h-1.6V50h2.1
		c0.2-0.7,0.3-0.9,0.3-0.9L1071.9,49.2z M1068.5,45.3h2.7v-2.7h0.9v2.7h2.5v0.9h-2.5v0.2c0.8,0.4,1.5,0.8,2.3,1.3l-0.5,0.8
		c-0.7-0.6-1.3-1-1.8-1.3v1.8h-0.9v-2.7c-0.5,1.1-1.3,2-2.5,2.9l-0.5-0.8c1.1-0.6,1.8-1.3,2.3-2.1h-2L1068.5,45.3L1068.5,45.3z
		 M1069.6,42.9c0.4,0.6,0.7,1.1,0.9,1.7l-0.8,0.4c-0.3-0.7-0.6-1.3-1-1.8L1069.6,42.9z M1073.5,50.9h-2.4c-0.2,0.5-0.5,0.9-0.8,1.3
		c0.6,0.2,1.1,0.4,1.6,0.6C1072.7,52.2,1073.2,51.6,1073.5,50.9z M1074.6,43.2c-0.3,0.6-0.6,1.2-1.1,1.8l-0.8-0.4
		c0.4-0.6,0.8-1.2,1-1.8L1074.6,43.2z M1076.1,47.9c-0.2,0.6-0.5,1.2-0.8,1.7l-0.6-0.8c0.8-1.6,1.4-3.7,1.7-6.3l1,0.2
		c-0.1,0.6-0.2,1.2-0.3,2h3.7v1h-0.9c-0.1,2.3-0.5,4.3-1.2,6c0.7,1.2,1.6,2.2,2.6,2.8l-0.6,0.9c-1-0.7-1.8-1.6-2.5-2.8
		c-0.7,1.1-1.6,2.1-2.6,2.8l-0.5-0.9c1.1-0.8,2-1.7,2.6-2.9C1077,50.5,1076.5,49.3,1076.1,47.9z M1076.8,45.7
		c-0.1,0.3-0.2,0.6-0.2,0.7c0.3,1.6,0.8,3,1.4,4.2c0.5-1.4,0.8-3.1,0.9-4.9C1078.9,45.7,1076.8,45.7,1076.8,45.7z"/>
	<path class="st11" d="M1082.7,55.3l-0.2-1c0.4,0,0.8,0.1,1.1,0.1c0.4,0,0.5-0.2,0.5-0.6v-3.4c-0.7,0.2-1.2,0.4-1.7,0.6l-0.3-1
		c0.6-0.1,1.3-0.3,1.9-0.6v-3.2h-1.7v-1h1.7v-2.6h1v2.6h1.3v1h-1.3V49c0.4-0.2,0.9-0.4,1.3-0.6v1c-0.3,0.1-0.7,0.4-1.3,0.6V54
		c0,0.8-0.4,1.2-1.2,1.2L1082.7,55.3L1082.7,55.3z M1088.1,49.1c-0.2,2.4-0.7,4.5-1.6,6.3l-0.8-0.7c1-1.8,1.5-4.2,1.5-7.2v-4.4h7.4
		v3.4h-2.6v1.7h3v0.9h-3v1.7h2.4v4.6h-0.9v-0.7h-3.8v0.7h-0.9v-4.6h2.3v-1.7L1088.1,49.1L1088.1,49.1z M1090.9,46.5h-2.8l0,1.7h2.8
		V46.5z M1093.6,44.1h-5.4v1.6h5.4V44.1z M1089.5,53.8h3.8v-2.1h-3.8V53.8z"/>
	<path class="st11" d="M1017.5,61.4c-0.7,1.2-1.3,2.2-2,2.9c-0.7,0.8-1.6,1.6-2.8,2.4l-0.5-0.9c1-0.6,1.8-1.3,2.6-2.2
		c0.7-0.8,1.3-1.7,1.9-2.8L1017.5,61.4z M1014.2,67.1v-1h8.5c0,1.7-0.1,3.1-0.3,4.3c-0.1,1.1-0.4,1.8-0.7,2.2
		c-0.3,0.4-0.8,0.6-1.6,0.7h-2.6l-0.3-1c0.8,0,1.6,0,2.4,0c0.8,0,1.3-0.3,1.5-1c0.2-0.7,0.4-2.1,0.5-4.3h-3.7
		c-0.3,1.6-0.8,2.8-1.4,3.7c-0.7,1-1.7,1.9-3.1,2.6l-0.6-0.8c1.3-0.7,2.2-1.5,2.8-2.3c0.6-0.8,1-1.9,1.3-3.2L1014.2,67.1
		L1014.2,67.1z M1020.7,60.7c0.8,2.1,2.2,3.8,4.3,5.1l-0.7,0.8c-2.1-1.4-3.6-3.2-4.5-5.4L1020.7,60.7z"/>
	<path class="st11" d="M1027.2,64.9l1.1-3.9l1,0.2l-0.8,2.8h2.4c0.3-1.1,0.5-2.2,0.7-3.4l1,0.1c-0.2,1.1-0.4,2.2-0.7,3.3h6.6v1h-6.8
		c-0.2,0.7-0.4,1.2-0.5,1.6h5.7v0.9c-0.4,1.2-1.1,2.3-2.3,3.3c1.1,0.7,2.5,1.3,4.1,1.8l-0.5,0.9c-1.8-0.7-3.3-1.4-4.5-2.1
		c-1.1,0.8-2.6,1.5-4.3,2.2l-0.5-0.9c1.6-0.6,2.9-1.2,3.9-1.9c-1.1-0.8-1.9-1.7-2.3-2.7c-1,2.2-2.3,4-3.9,5.3l-0.5-0.9
		c2-1.8,3.5-4.2,4.5-7.4L1027.2,64.9L1027.2,64.9z M1031.4,67.4c0.5,1,1.3,1.8,2.4,2.6c1-0.8,1.8-1.7,2.1-2.6H1031.4z M1035,60.6
		c1,0.7,1.8,1.5,2.5,2.3l-0.7,0.7c-0.6-0.7-1.4-1.5-2.5-2.4L1035,60.6z"/>
	<path class="st11" d="M1041.4,68.6h4.7v-1.6h1v1.6h4.6v1h-4.6v2.3h5.6v1h-12.3v-1h5.6v-2.3h-4.7L1041.4,68.6L1041.4,68.6z
		 M1040.8,61.3h11.6v1h-6.6c-0.8,1.4-1.8,2.5-2.9,3.4c2.3-0.1,4.5-0.4,6.6-0.7c-0.4-0.5-0.9-1-1.3-1.5l0.8-0.5
		c1.3,1.4,2.3,2.6,3,3.6l-0.8,0.6c-0.3-0.4-0.6-0.9-1-1.4c-2.8,0.4-5.7,0.7-8.8,0.9l-0.3-0.9c1.4-0.8,2.5-2,3.5-3.5h-3.9
		L1040.8,61.3L1040.8,61.3z"/>
	<path class="st11" d="M1056.5,68.8c-0.2,1.8-0.7,3.3-1.6,4.5l-0.8-0.7c0.9-1.2,1.4-2.8,1.4-4.7v-6.7h10.4v10.5c0,1-0.5,1.5-1.5,1.5
		h-1.6l-0.3-1c0.7,0,1.3,0.1,1.6,0.1c0.5,0,0.8-0.3,0.8-0.9v-2.4h-3.8v4.1h-1v-4.1L1056.5,68.8L1056.5,68.8z M1060.1,62.1h-3.6v2.4
		h3.6V62.1z M1056.6,65.5v2.4h3.6v-2.4H1056.6z M1065,64.5v-2.4h-3.8v2.4H1065z M1065,67.9v-2.4h-3.8v2.4H1065z"/>
	<path class="st11" d="M1070.8,67c-0.1,2.5-0.7,4.7-2,6.5l-0.7-0.7c1.1-1.6,1.7-3.6,1.7-6.1v-4.4h4.6c-0.3-0.6-0.5-1.2-0.8-1.6
		l1.1-0.2c0.3,0.5,0.5,1.1,0.8,1.8h4.4V67H1070.8z M1078.8,63.3h-8V66h8V63.3z"/>
</g>
<g>
	<g>
		<path class="st12" d="M498.8,55.6h8v-2h-8V55.6z M510.8,55.6h8v-2h-8V55.6z M522.8,55.6h8v-2h-8V55.6z M534.8,55.6h8v-2h-8V55.6z
			 M546.8,50.3v8.2l9.2-4.2L546.8,50.3z"/>
	</g>
</g>
<g>
	<g>
		<path class="st12" d="M701.8,55.6h8v-2h-8V55.6z M713.8,55.6h8v-2h-8V55.6z M725.8,55.6h8v-2h-8V55.6z M737.8,55.6h8v-2h-8V55.6z
			 M749.8,50.3v8.2l9.2-4.2L749.8,50.3z"/>
	</g>
</g>
<g>
	<g>
		<path class="st12" d="M922.8,5.5h8v-2h-8V5.5z M934.8,5.5h8v-2h-8V5.5z M946.8,5.5h8v-2h-8V5.5z M958.8,5.5h8v-2h-8V5.5z
			 M970.8,0.3v8.2l9.2-4.2L970.8,0.3z"/>
	</g>
</g>
<g>
	<g>
		<path class="st12" d="M924.8,134.6h8v-2h-8V134.6z M936.8,134.6h8v-2h-8V134.6z M948.8,134.6h8v-2h-8V134.6z M960.8,134.6h8v-2h-8
			V134.6z M972.8,129.3v8.2l9.2-4.2L972.8,129.3z"/>
	</g>
</g>
<g>
	<g>
		
			<linearGradient id="SVGID_10_" gradientUnits="userSpaceOnUse" x1="1079.4655" y1="5.5235" x2="1019.3555" y2="65.6335" gradientTransform="matrix(1 0 0 -1 0 160)">
			<stop  offset="0" style="stop-color:#0063FF"/>
			<stop  offset="1" style="stop-color:#00C8DE"/>
		</linearGradient>
		<path class="st13" d="M1042.3,123h-2.6l0.2,1h2c0.6,0,0.7,0.1,0.7,0.4c0,0.1-0.1,0.4-0.1,0.7v0h-1.5c-0.5,0-0.9,0-1.1,0.1
			c-0.5,0.1-0.7,0.4-0.9,1.2l-0.1,0.4c-0.1,0.5-0.1,0.8-0.1,0.9c0,0.8,0.6,1,1.3,1h3l0.6-3.7c0.1-0.4,0.1-0.7,0.1-1
			C1043.8,123.4,1043.4,123,1042.3,123z M1042,127.7h-1.6c-0.3,0-0.4-0.1-0.4-0.2c0-0.1,0-0.4,0.1-0.7l0-0.2
			c0.1-0.4,0.2-0.5,0.6-0.5h1.6L1042,127.7z M1048.3,123h-2.7l-1,5.7h1.2l0.8-4.6h1.2c0.7,0,0.8,0.1,0.8,0.4c0,0.2,0,0.4-0.1,0.9
			l-0.6,3.3h1.2l0.6-3.4c0.1-0.5,0.2-0.9,0.2-1.2C1050,123.3,1049.6,123,1048.3,123z M1037.2,121.4h-1.2l-0.3,1.7h-0.8l-0.2,1h0.8
			l-0.4,2.3c-0.1,0.5-0.2,0.9-0.2,1.2c0,0.9,0.6,1.2,1.7,1.2h0.7l0.4-1h-0.7c-0.6,0-0.9,0-0.9-0.4c0-0.2,0.1-0.5,0.1-1l0.4-2.3h1.6
			l0.2-1h-1.6L1037.2,121.4z M1029.5,122.6l-0.2,1.1c0,0.3-0.1,0.6-0.1,0.8c0,0.6,0.3,0.9,1.1,0.9h1.5c0.4,0,0.5,0,0.5,0.2
			c0,0.1,0,0.3-0.1,0.7l-0.1,0.5c-0.1,0.7-0.2,0.8-0.9,0.8h-2.5l0.2,1.1h2.3c0.7,0,1.1,0,1.5-0.2c0.4-0.2,0.6-0.7,0.7-1.3l0.2-1
			c0-0.2,0.1-0.8,0.1-1.1c0-0.7-0.5-0.9-1.4-0.9h-1.3c-0.3,0-0.4-0.1-0.4-0.2c0-0.1,0-0.3,0.1-0.6l0.1-0.6c0.1-0.5,0.2-0.6,0.6-0.6
			h2.4l0.5-1.1h-3C1030.1,121.1,1029.7,121.4,1029.5,122.6z M1054.9,123h-1.4c-0.9,0-1.4,0.1-1.7,0.4c-0.4,0.3-0.5,0.8-0.6,1.5
			l-0.2,1.3c-0.1,0.5-0.1,0.8-0.1,1.1c0,0.9,0.5,1.3,1.8,1.3h2.5l1.4-8h-1.2L1054.9,123z M1054.1,127.7h-1.1c-0.7,0-0.9-0.1-0.9-0.5
			c0-0.2,0.1-0.4,0.1-0.9l0.2-1.3c0.1-0.4,0.2-0.6,0.3-0.8c0.2-0.2,0.4-0.2,0.7-0.2h1.3L1054.1,127.7z M1063.2,124.9l-0.7,3.8h1.2
			l0.7-3.8c0.1-0.7,0.3-0.9,1-0.9h0.9l0.4-1h-1.4C1063.8,123,1063.5,123.3,1063.2,124.9z M1060.3,123h-2.6l0.2,1h2
			c0.6,0,0.7,0.1,0.7,0.4c0,0.1-0.1,0.4-0.1,0.7v0h-1.5c-0.5,0-0.9,0-1.1,0.1c-0.5,0.1-0.7,0.4-0.9,1.2l-0.1,0.4
			c-0.1,0.5-0.1,0.8-0.1,0.9c0,0.8,0.6,1,1.3,1h3l0.6-3.7c0.1-0.4,0.1-0.7,0.1-1C1061.9,123.4,1061.4,123,1060.3,123z M1060.1,127.7
			h-1.6c-0.3,0-0.4-0.1-0.4-0.2c0-0.1,0-0.4,0.1-0.7l0-0.2c0.1-0.4,0.2-0.5,0.6-0.5h1.6L1060.1,127.7z M1015,98.7l11.2,63h46
			l11.8-63H1015z M1071.6,160.7h-44.5l-10.7-61h66.5L1071.6,160.7z M1071.3,120.7l-0.4,2.3h-1.4c-0.9,0-1.4,0.1-1.7,0.4
			c-0.4,0.3-0.5,0.8-0.6,1.5l-0.2,1.3c-0.1,0.5-0.1,0.8-0.1,1.1c0,0.9,0.5,1.3,1.8,1.3h2.5l1.4-8H1071.3z M1070.1,127.7h-1.1
			c-0.7,0-0.9-0.1-0.9-0.5c0-0.2,0.1-0.4,0.1-0.9l0.2-1.3c0.1-0.4,0.2-0.6,0.3-0.8c0.2-0.2,0.4-0.2,0.7-0.2h1.3L1070.1,127.7z"/>
	</g>
</g>
<g>
	<g>
		
			<linearGradient id="SVGID_11_" gradientUnits="userSpaceOnUse" x1="1091.9403" y1="130.7743" x2="1074.1448" y2="148.5697" gradientTransform="matrix(1 0 0 -1 0 160)">
			<stop  offset="0" style="stop-color:#0063FF"/>
			<stop  offset="1" style="stop-color:#00C8DE"/>
		</linearGradient>
		<path class="st14" d="M1080.3,6.8v6h2v-4h13v13h-4.8v2h6.8v-17C1097.3,6.8,1080.3,6.8,1080.3,6.8z M1092.3,18.8v-7h-7v2h3.5
			l-13.5,12.8v-3.8h-2v7h7v-2h-3.4l13.4-12.5v3.5C1090.3,18.8,1092.3,18.8,1092.3,18.8z M1083.8,31.8h-13v-13h4.8v-2h-6.8v17h17v-6
			h-2V31.8z"/>
	</g>
</g>
<linearGradient id="SVGID_12_" gradientUnits="userSpaceOnUse" x1="1067.6345" y1="138.4635" x2="1010.6039" y2="195.494" gradientTransform="matrix(1 0 0 -1 0 160)">
	<stop  offset="0" style="stop-color:#0063FF"/>
	<stop  offset="1" style="stop-color:#00C8DE"/>
</linearGradient>
<path class="st15" d="M1084.6-1.4v-21.1h-73v49h50.1v1h-51.1v-6h-6v-51h75v6h6v22.1H1084.6z M1078.6-28.5h-73v49h5v-44h68V-28.5z
	 M1069.5-5.7c-2.5,0-4.5-2-4.5-4.5s2-4.5,4.5-4.5s4.5,2,4.5,4.5S1072-5.7,1069.5-5.7z M1069.5-13.7c-1.9,0-3.5,1.6-3.5,3.5
	c0,1.9,1.6,3.5,3.5,3.5c1.9,0,3.5-1.6,3.5-3.5C1073-12.1,1071.5-13.7,1069.5-13.7z M1015.6-18.5h65v17.1h-1v-16.1h-63V5l18.5-13.8
	l19.8,14.4l13.8-6.6l5,3.1v1.2l-5-3.1l-13.9,6.6l-19.7-14.3l-18.4,13.7l-0.2-0.2v7.6h45.1v1h-46.1L1015.6-18.5L1015.6-18.5z"/>
</svg>
