<?xml version="1.0" encoding="UTF-8"?>
<svg width="32px" height="32px" viewBox="0 0 32 32" version="1.1" xmlns="http://www.w3.org/2000/svg" xmlns:xlink="http://www.w3.org/1999/xlink">
    <!-- Generator: Sketch 52.6 (67491) - http://www.bohemiancoding.com/sketch -->
    <title>安全管理-32px</title>
    <desc>Created with Sketch.</desc>
    <g id="安全管理-32px" stroke="none" stroke-width="1" fill="none" fill-rule="evenodd">
        <rect id="Rectangle-Copy" fill="#444444" opacity="0" x="0" y="0" width="32" height="32"></rect>
        <g id="Group" transform="translate(3.000000, 2.000000)" fill="#00A4FF" fill-rule="nonzero">
            <path d="M24,6 L26,6 L26,15.2 C26,15.2 25.9,26 13,29 C0.1,26 0,15.2 0,15.2 L0,0 L26,0 L26,2 L24,2 L22,2 L2,2 L2,15.2 C2,15.6 2.3,24.3 13,26.9 C17.5,25.7 20.8,23.4 22.6,20 C24,17.5 24,15.2 24,15.2 L24,6 Z M9,6 L21,6 L21,8 L9,8 L9,6 Z M5,6 L7,6 L7,8 L5,8 L5,6 Z M9,11 L21,11 L21,13 L9,13 L9,11 Z M5,11 L7,11 L7,13 L5,13 L5,11 Z M9,16 L21,16 L21,18 L9,18 L9,16 Z M5,16 L7,16 L7,18 L5,18 L5,16 Z" id="Combined-Shape"></path>
        </g>
    </g>
</svg>