<?xml version="1.0" encoding="utf-8"?>
<!-- Generator: Adobe Illustrator 23.0.1, SVG Export Plug-In . SVG Version: 6.00 Build 0)  -->
<!DOCTYPE svg PUBLIC "-//W3C//DTD SVG 1.1//EN" "http://www.w3.org/Graphics/SVG/1.1/DTD/svg11.dtd" [
	<!ENTITY ns_extend "http://ns.adobe.com/Extensibility/1.0/">
	<!ENTITY ns_ai "http://ns.adobe.com/AdobeIllustrator/10.0/">
	<!ENTITY ns_graphs "http://ns.adobe.com/Graphs/1.0/">
	<!ENTITY ns_vars "http://ns.adobe.com/Variables/1.0/">
	<!ENTITY ns_imrep "http://ns.adobe.com/ImageReplacement/1.0/">
	<!ENTITY ns_sfw "http://ns.adobe.com/SaveForWeb/1.0/">
	<!ENTITY ns_custom "http://ns.adobe.com/GenericCustomNamespace/1.0/">
	<!ENTITY ns_adobe_xpath "http://ns.adobe.com/XPath/1.0/">
]>
<svg version="1.1" id="svgwrapper_svg" xmlns:x="&ns_extend;" xmlns:i="&ns_ai;" xmlns:graph="&ns_graphs;"
	 xmlns="http://www.w3.org/2000/svg" xmlns:xlink="http://www.w3.org/1999/xlink" x="0px" y="0px" width="830px" height="290px"
	 viewBox="0 0 830 290" style="enable-background:new 0 0 830 290;" xml:space="preserve">
<style type="text/css">
	.st0{fill:#CEE3FF;}
	.st1{fill:none;stroke:#888888;}
	.st2{fill:#888888;}
	.st3{opacity:0.6;fill:#BBBBBB;enable-background:new    ;}
	.st4{fill:#FFFFFF;stroke:#E5E5E5;}
	.st5{fill:none;stroke:#BABABA;stroke-dasharray:5;}
	.st6{fill:#00A4FF;}
	.st7{fill:#878787;}
	.st8{fill:#444444;}
	.st9{fill-rule:evenodd;clip-rule:evenodd;fill:#00A4FF;}
	.st10{fill:#EAEBEC;}
	.st11{enable-background:new    ;}
</style>
<metadata>
	<sfw  xmlns="&ns_sfw;">
		<slices></slices>
		<sliceSourceBounds  bottomLeftOrigin="true" height="258.2" width="638.1" x="96.6" y="14.9"></sliceSourceBounds>
	</sfw>
</metadata>
<g id="BlueRectGroup66" transform="translate(240.671875,42)">
	<rect x="-124.2" y="26" class="st0" width="122.3" height="70"/>
</g>
<g id="BlueRectGroup66_1_" transform="translate(240.671875,42)">
	<rect x="-124.2" y="117.4" class="st0" width="122.3" height="96.7"/>
</g>
<g id="Link68" transform="translate(0,0)">
	<path class="st1" d="M595.3,151h-211"/>
	<g transform="translate(0.5, 0)">
		<polygon class="st2" points="388.3,146.5 382.3,151 388.3,155.5 		"/>
	</g>
</g>
<rect x="124" y="79.1" class="st3" width="109.5" height="50"/>
<rect x="121.8" y="77.1" class="st4" width="109.5" height="50"/>
<path class="st5" d="M97.1,17.4h281.7v257.2H97.1V17.4"/>
<g>
	<rect x="597.7" y="132.3" class="st3" width="137" height="50"/>
	<rect x="596" y="130.3" class="st4" width="137" height="50"/>
	<g>
		<polygon class="st6" points="642.7,163.5 630.7,170.4 618.7,163.5 618.7,149.9 630.7,143 642.7,149.9 644.7,148.7 630.7,140.7 
			616.7,148.7 616.7,164.7 630.7,172.7 644.7,164.7 644.7,152.7 642.7,153.8 		"/>
		<polygon class="st6" points="630.7,164.7 636.7,161.2 634.7,160.1 631.7,161.8 631.7,158.1 635.7,155.8 635.7,158.3 637.7,159.5 
			637.7,152.7 631.7,149.3 631.7,151.6 635.4,153.7 630.7,156.4 625.9,153.7 629.7,151.6 629.7,149.3 623.7,152.7 623.7,159.5 
			625.7,158.4 625.7,155.8 629.7,158.1 629.7,161.8 626.7,160.1 624.7,161.3 		"/>
	</g>
</g>
<g>
	<path d="M183.2,97.1v1h-5.9v3.3h5.6v1h-5.6v3.7h6.2v1h-7.4v-10H183.2z"/>
	<path d="M186.5,97.1l3.7,8.5l0,0l3.7-8.5h1.4v10h-1.1v-8l0,0l-3.5,8h-1l-3.5-8l0,0v8h-1.1v-10H186.5z"/>
	<path d="M201.7,97.1c1,0,1.8,0.2,2.4,0.7s0.9,1.2,0.9,2.1c0,0.6-0.2,1.1-0.5,1.5s-0.8,0.7-1.4,0.9l0,0c1,0.2,1.5,0.8,1.6,1.8
		l0.2,1.5c0.1,0.6,0.2,1.1,0.5,1.5h-1.2c-0.2-0.3-0.4-0.8-0.4-1.3l-0.1-1.3c-0.1-0.6-0.3-1-0.6-1.3s-0.8-0.4-1.4-0.4h-3v4.3h-1.1
		v-10C197.6,97.1,201.7,97.1,201.7,97.1z M198.5,101.8h3c0.7,0,1.3-0.2,1.7-0.5s0.5-0.8,0.5-1.4s-0.2-1.1-0.5-1.4
		c-0.4-0.3-0.9-0.5-1.7-0.5h-3V101.8z"/>
</g>
<rect x="123.5" y="196.2" class="st3" width="109.5" height="50"/>
<rect x="121.4" y="194.2" class="st4" width="109.5" height="50"/>
<g>
	<path class="st7" d="M470.7,129.7c0.1-0.8,0.2-1.5,0.2-2.4v-1.1h1v0.8c0,0.9-0.1,1.8-0.2,2.6h5.4v0.9H472c0.9,2.9,2.7,5.2,5.4,6.8
		l-0.6,0.8c-2.6-1.6-4.4-3.9-5.4-6.8c-0.8,3.2-2.6,5.5-5.4,6.9l-0.6-0.8c2.8-1.4,4.5-3.7,5.2-6.9h-5v-0.9L470.7,129.7L470.7,129.7z"
		/>
	<path class="st7" d="M480.5,127.8v-1.3h0.9v1.3h2.5v-1.4h0.9v1.4h2.5v-1.3h0.9v1.3h2v0.9h-2v1.4h-0.9v-1.4h-2.5v1.4h-0.9v-1.4h-2.5
		v1.4h-0.9v-1.4h-1.9v-0.9C478.6,127.8,480.5,127.8,480.5,127.8z M489.7,133.3h-0.9v-1.6h-4v1.4h3.4v3.1c0,0.8-0.4,1.2-1.1,1.2h-1.2
		l-0.2-0.9l1.1,0.1c0.3,0,0.4-0.2,0.4-0.5v-2h-2.5v4.3h-0.9v-4.3h-2.4v3.4h-0.8v-4.2h3.3v-1.4h-4v1.7H479v-2.5h10.7V133.3z"/>
	<path class="st7" d="M497.6,133.4v0.9c-0.1,1.1-0.5,1.9-1.4,2.5s-2.3,1-4.3,1.4l-0.5-0.8c2-0.3,3.3-0.7,4.1-1.2
		c0.7-0.5,1.1-1.1,1.2-2v-0.9h0.9L497.6,133.4L497.6,133.4z M495.1,129.6v-0.8h0.9v0.8h2.9v-0.8h0.9v0.8h2v-1.4h-8.6v1.5h-0.9v-2.3
		h4.8c-0.2-0.3-0.4-0.7-0.7-0.9l1-0.2c0.2,0.3,0.4,0.7,0.6,1.1h4.7v2.4h-0.9v0.7h-2v1h-0.9v-1H496v1h-0.9v-1h-2v-0.9H495.1
		L495.1,129.6z M501.1,136h-0.9v-3.1h-5.7v3.1h-0.9v-4h7.6v4H501.1z M498.8,138.1c-0.7,0-1.1-0.4-1.1-1.1v-2.3h0.9v2.1
		c0,0.3,0.1,0.4,0.5,0.4h2.2c0.3,0,0.5-0.1,0.6-0.2c0.2-0.2,0.2-0.6,0.3-1.4l0.9,0.3c-0.1,1-0.3,1.6-0.5,1.9
		c-0.2,0.2-0.6,0.3-1.1,0.3H498.8L498.8,138.1z"/>
</g>
<g>
	<g>
		<path class="st8" d="M122.2,39c0.1-0.7,0.1-1.4,0.1-2.2v-1.1h1.2v0.8c0,0.9-0.1,1.7-0.2,2.5h5.3v1.2h-5c0.9,2.8,2.7,4.9,5.2,6.4
			l-0.8,1c-2.5-1.5-4.3-3.7-5.2-6.4c-0.9,3-2.6,5.2-5.3,6.6l-0.8-1c2.7-1.3,4.4-3.5,5.1-6.5H117V39H122.2z"/>
		<path class="st8" d="M133.5,41.9c-0.1,0.2-0.1,0.4-0.2,0.6h2.7v1c-0.2,0.8-0.6,1.5-1.2,2.1c0.5,0.2,1.1,0.5,1.5,0.8l-0.7,1
			c-0.5-0.3-1.1-0.6-1.8-0.9c-0.9,0.6-1.9,1-3.2,1.3l-0.6-1c1-0.2,1.8-0.5,2.5-0.9c-0.5-0.2-1.1-0.4-1.7-0.7
			c0.3-0.5,0.6-1.1,0.8-1.5h-1.4v-1.1h1.8c0.1-0.3,0.2-0.5,0.3-0.8L133.5,41.9z M132.7,38.1v-2.4h1.1v2.4h2.3v1.1h-2.3v0.1
			c0.7,0.3,1.4,0.6,2.1,1l-0.7,1c-0.6-0.5-1.1-0.8-1.5-1.1v1.5h-1.1v-2.2c-0.4,0.9-1.1,1.8-2.1,2.5l-0.6-1c0.9-0.5,1.5-1.1,1.9-1.7
			h-1.6v-1.1L132.7,38.1L132.7,38.1z M132.2,37.5l-0.9,0.4c-0.3-0.6-0.5-1.2-0.8-1.7l1-0.3C131.8,36.4,132,36.9,132.2,37.5z
			 M134.8,43.6h-2c-0.2,0.4-0.4,0.7-0.6,1.1c0.5,0.2,0.9,0.3,1.3,0.5C134.1,44.6,134.6,44.1,134.8,43.6z M136.1,36.3
			c-0.3,0.5-0.6,1.1-1,1.6l-0.9-0.4c0.4-0.5,0.7-1.1,1-1.6L136.1,36.3z M137.4,41.1c-0.2,0.5-0.4,0.9-0.6,1.3l-0.8-1
			c0.7-1.4,1.2-3.4,1.5-5.8l1.2,0.2c-0.1,0.6-0.2,1.2-0.3,1.7h3.3v1.2h-0.8c-0.1,2.1-0.5,3.9-1.2,5.4c0.6,1.1,1.4,1.9,2.3,2.5
			l-0.7,1c-0.8-0.6-1.6-1.4-2.2-2.4c-0.6,0.9-1.4,1.8-2.3,2.4l-0.6-1c1-0.7,1.7-1.5,2.3-2.5C138.1,43.3,137.7,42.3,137.4,41.1z
			 M138,39.4c0.3,1.4,0.7,2.5,1.1,3.5c0.4-1.2,0.7-2.6,0.7-4.1h-1.7C138.1,39,138,39.2,138,39.4z"/>
		<path class="st8" d="M143.5,47.6l-0.3-1.2c0.3,0.1,0.6,0.1,0.9,0.1c0.3,0,0.4-0.2,0.4-0.5v-2.8c-0.5,0.2-0.9,0.3-1.4,0.5l-0.3-1.2
			c0.6-0.1,1.1-0.3,1.7-0.5v-2.7H143v-1.2h1.5v-2.4h1.2v2.4h1.1v1.2h-1.1v2.2c0.4-0.2,0.7-0.4,1.1-0.5v1.2c-0.4,0.2-0.7,0.4-1.1,0.5
			v3.6c0,0.9-0.4,1.3-1.2,1.3C144.5,47.6,143.5,47.6,143.5,47.6z M147.1,47.7l-1-0.9c0.9-1.7,1.3-3.8,1.3-6.5v-4.2h7v3.4H152v1.3
			h2.7V42H152v1.3h2.1v4.4H153v-0.6h-3v0.6h-1.1v-4.4h2.1V42h-2.3C148.5,44.1,148,46.1,147.1,47.7z M148.7,39.5v0.9
			c0,0.1,0,0.3,0,0.4h2.3v-1.3C151,39.5,148.7,39.5,148.7,39.5z M148.7,37.3v1.1h4.6v-1.1H148.7z M153.1,46.1v-1.7H150v1.7H153.1z"
			/>
		<path class="st8" d="M161.1,36.6c-0.6,1.1-1.2,1.9-1.8,2.6c-0.6,0.7-1.5,1.4-2.6,2.2l-0.7-1.1c0.8-0.5,1.6-1.1,2.3-1.9
			c0.6-0.7,1.2-1.5,1.7-2.5L161.1,36.6z M157.9,42v-1.2h7.9c-0.1,1.7-0.1,3-0.3,4c-0.1,1-0.3,1.7-0.6,2.1c-0.3,0.4-0.8,0.6-1.4,0.7
			H161l-0.3-1.2c0.8,0,1.5,0.1,2.2,0.1c0.6,0,1.1-0.3,1.3-0.8c0.2-0.6,0.4-1.8,0.4-3.7h-2.9c-0.3,1.4-0.7,2.4-1.2,3.2
			c-0.7,0.9-1.7,1.8-3,2.5l-0.8-1c1.2-0.6,2.1-1.3,2.7-2.1c0.5-0.7,0.9-1.6,1.1-2.7h-2.6V42z M167.9,40.4l-0.8,1c-2-1.3-3.4-3-4.2-5
			l1.1-0.6C164.7,37.7,166,39.3,167.9,40.4z"/>
		<path class="st8" d="M172.2,47.7H171v-6.2c-0.4,1.2-0.9,2.2-1.6,3.2l-0.5-1.4c0.9-1.2,1.6-2.5,2-4h-1.7v-1.2h1.8v-2.4h1.2v2.4h1.7
			v1.2h-1.7v0.6c0.6,0.6,1.2,1.3,1.8,2l-0.7,1c-0.4-0.7-0.8-1.2-1.1-1.7V47.7z M180.5,36.8c-1.5,0.5-3.1,0.8-4.9,0.9v2.1h5.2V41H179
			v6.7h-1.2V41h-2.1c-0.1,2.8-0.8,5-2,6.7l-0.9-0.9c1.1-1.4,1.6-3.3,1.7-5.8v-4.3c2-0.1,3.8-0.4,5.4-0.9L180.5,36.8z"/>
		<path class="st8" d="M182.6,40.1l-0.7-0.9c1.1-1,1.9-2.2,2.5-3.5l1.2,0.3c-0.1,0.3-0.2,0.6-0.4,0.9h2.5c-0.2-0.4-0.4-0.7-0.5-1
			l1.3-0.2c0.2,0.4,0.3,0.8,0.5,1.2h4.1v1h-4v0.7h3.5v0.9h-3.5v0.6h3.5V41h-3.5v0.7h4.3v1h-9.7v-3.5
			C183.2,39.6,182.9,39.8,182.6,40.1z M182.3,44.7v-1.1h5.1V43h1.2v0.5h5v1.1H190c0.9,0.7,2.1,1.2,3.7,1.6l-0.5,1.1
			c-2.1-0.7-3.5-1.6-4.4-2.7h-0.2v3.1h-1.2v-3.1h-0.2c-0.8,1.1-2.3,2-4.4,2.8l-0.7-1.1c1.8-0.5,3-1.1,3.8-1.7h-3.6L182.3,44.7
			L182.3,44.7z M187.7,37.8h-3.1v0.7h3.1V37.8z M187.7,39.4h-3.1V40h3.1V39.4z M187.7,41h-3.1v0.7h3.1V41z"/>
		<path class="st8" d="M197.5,41.8c-0.1,0.3-0.2,0.7-0.3,1h3.3v4.8h-1.1v-0.7h-1.7v0.7h-1.1v-3.4c-0.3,0.6-0.7,1.1-1.1,1.5l-0.7-1
			c0.7-0.7,1.2-1.7,1.5-2.9h-0.9v-1.1h1.1c0.1-0.4,0.1-0.8,0.2-1.2h-1.6v-1.1h1.7c0-0.4,0-0.8,0.1-1.2h-1.4v-1.1h4.6v2.3h0.6v1.1
			h-0.6v2.3C200.1,41.8,197.5,41.8,197.5,41.8z M199.4,45.8v-1.9h-1.7v1.9H199.4z M197.8,40.8h1.3v-1.2H198
			C197.9,40,197.8,40.4,197.8,40.8z M198,38.4h1v-1.2h-1C198.1,37.6,198.1,38,198,38.4z M201.1,39.3v-1.2h1.3
			c-0.3-0.7-0.6-1.3-1-1.9l1-0.5c0.4,0.6,0.7,1.3,1.1,2l-0.7,0.4h1.2c0.4-0.8,0.7-1.6,0.9-2.5l1.2,0.4c-0.3,0.8-0.5,1.5-0.8,2.1h1.2
			v1.2h-2.1v1.6h1.8V42h-1.8v1.6h2.3v1.2h-2.3v2.9h-1.2v-2.9H201v-1.2h2.3V42h-1.9v-1.1h1.9v-1.6C203.3,39.3,201.1,39.3,201.1,39.3z
			"/>
	</g>
</g>
<g id="Link68_1_" transform="translate(0,0)">
	<path class="st1" d="M589.8,163.6h-211"/>
	<g transform="translate(0.5, 0)">
		<polygon class="st2" points="584.8,168.1 590.8,163.6 584.8,159.1 		"/>
	</g>
</g>
<g id="_编组_">
	<g id="_编组_2">
		<path id="_复合路径_" class="st9" d="M138.5,92.1h23.3v15h2v-17h-25.3c-0.6-1-1.8-1.3-2.7-0.7c-1,0.6-1.3,1.8-0.7,2.7
			c0.6,1,1.8,1.3,2.7,0.7C138,92.7,138.3,92.4,138.5,92.1z M162.7,111.1c-0.7,0-1.4,0.4-1.7,1h-23.3v-15h-2v17H161
			c0.6,1,1.8,1.3,2.7,0.7c1-0.6,1.3-1.8,0.7-2.7C164.1,111.5,163.5,111.1,162.7,111.1z M152.7,106.1v-8h-2l-1.5,4l-1.5-4h-2v8h2v-3
			l1.5,3l1.5-3v3H152.7z M144.7,100.1v-2h-5v8h5v-2h-3v-1h3v-2h-3v-1H144.7z M159.7,100.1c0-1.1-0.8-2-1.9-2h-0.1h-4v8h2v-3h1.1
			l1.2,3h2.4l-1.3-3.5c0.4-0.4,0.7-0.9,0.6-1.5V100.1z M157.7,101.1h-2v-1h2V101.1z"/>
	</g>
</g>
<rect x="259.3" y="68" class="st10" width="99.8" height="188"/>
<g>
	<g>
		<g>
			<rect x="267.9" y="196.6" class="st3" width="82.7" height="50"/>
			<rect x="266.6" y="194.6" class="st4" width="82.7" height="50"/>
		</g>
		<g transform="translate(20 9)">
			<g class="st11">
				<path class="st8" d="M276.7,206v4.3h5.8V206h1.1v10h-1.1v-4.7h-5.8v4.7h-1.1v-10H276.7z"/>
				<path class="st8" d="M287,206.2c0.2,0.1,0.3,0.3,0.3,0.6c0,0.2-0.1,0.4-0.3,0.6s-0.4,0.2-0.6,0.2s-0.4-0.1-0.6-0.2
					c-0.2-0.2-0.2-0.4-0.2-0.6c0-0.3,0.1-0.4,0.2-0.6c0.2-0.2,0.4-0.2,0.6-0.2S286.9,206.1,287,206.2z M287,208.7v7.2h-1.1v-7.2H287
					z"/>
				<path class="st8" d="M289.5,208.7l2.1,5.8l2.1-5.8h1.2l-2.7,7.2h-1.1l-2.7-7.2H289.5z"/>
				<path class="st8" d="M301.5,209.7c0.5,0.7,0.8,1.7,0.8,3h-5.7c0.1,0.8,0.3,1.4,0.7,1.9c0.4,0.4,0.9,0.7,1.6,0.7
					c0.6,0,1.1-0.2,1.4-0.4c0.3-0.3,0.5-0.6,0.7-1.1h1.1c-0.2,0.7-0.5,1.3-1,1.7c-0.6,0.5-1.4,0.8-2.3,0.8c-1,0-1.9-0.4-2.5-1
					c-0.6-0.7-1-1.6-1-2.8c0-1.1,0.3-2,0.9-2.7c0.6-0.8,1.4-1.1,2.5-1.1C300,208.5,300.9,208.9,301.5,209.7z M297.3,210.1
					c-0.4,0.4-0.6,1-0.7,1.7h4.5c-0.1-1.6-0.9-2.3-2.3-2.3C298.2,209.5,297.7,209.7,297.3,210.1z"/>
			</g>
		</g>
	</g>
	<g>
		<g>
			<rect x="268.6" y="138.3" class="st3" width="82.7" height="50"/>
			<rect x="267.2" y="136.3" class="st4" width="82.7" height="50"/>
		</g>
		<g transform="translate(20 9)">
			<g class="st11">
				<path class="st8" d="M277.6,148.3c0.7,0.5,1.1,1.3,1.1,2.4h-1.1c-0.1-0.7-0.4-1.3-0.8-1.6c-0.4-0.4-1.1-0.5-1.9-0.5
					c-0.7,0-1.3,0.1-1.7,0.4c-0.5,0.3-0.7,0.7-0.7,1.3c0,0.5,0.3,0.9,0.9,1.2c0.3,0.1,0.9,0.3,1.8,0.6c1.3,0.4,2.2,0.7,2.6,1
					c0.8,0.5,1.2,1.2,1.2,2.1c0,0.9-0.4,1.6-1.1,2.1s-1.6,0.7-2.8,0.7c-1.2,0-2.1-0.3-2.8-0.8c-0.8-0.6-1.2-1.5-1.3-2.7h1.1
					c0.1,0.9,0.4,1.5,0.9,1.9s1.1,0.6,2,0.6c0.8,0,1.5-0.2,2-0.5s0.8-0.7,0.8-1.3s-0.3-1.1-1-1.5c-0.3-0.2-1-0.4-2.1-0.7
					c-1.2-0.4-2-0.6-2.3-0.8c-0.8-0.4-1.1-1.1-1.1-1.9c0-0.9,0.4-1.6,1.1-2s1.5-0.7,2.5-0.7C276.1,147.5,277,147.7,277.6,148.3z"/>
				<path class="st8" d="M286.2,151.4c0.5,0.7,0.8,1.6,0.8,2.7c0,1.1-0.3,1.9-0.8,2.6c-0.6,0.8-1.4,1.1-2.4,1.1s-1.8-0.5-2.4-1.5
					v4.1h-1.1v-10h1.1v1.2c0.5-0.9,1.3-1.4,2.4-1.4C284.8,150.2,285.6,150.6,286.2,151.4z M281.9,152c-0.4,0.5-0.5,1.2-0.5,2v0.1
					c0,0.8,0.2,1.5,0.6,2s0.9,0.8,1.6,0.8c0.8,0,1.4-0.3,1.8-0.8s0.5-1.2,0.5-2.1c0-0.9-0.2-1.5-0.5-2c-0.4-0.6-1-0.9-1.8-0.9
					C282.9,151.2,282.3,151.4,281.9,152z"/>
				<path class="st8" d="M293.9,151.1c0.4,0.5,0.6,1.1,0.6,2v4.7h-1.1v-1.2c-0.3,0.4-0.7,0.7-1.1,1c-0.5,0.3-1.1,0.4-1.8,0.4
					c-0.7,0-1.3-0.2-1.7-0.5c-0.4-0.4-0.7-0.9-0.7-1.5c0-0.8,0.3-1.4,1-1.9c0.6-0.4,1.4-0.6,2.5-0.6h1.7v-0.4c0-1.2-0.6-1.8-1.9-1.8
					c-0.5,0-1,0.1-1.3,0.3c-0.4,0.2-0.6,0.6-0.7,1l-1.1-0.1c0.2-0.8,0.5-1.3,1.1-1.7c0.5-0.3,1.2-0.5,2.1-0.5
					C292.7,150.2,293.4,150.5,293.9,151.1z M291.8,154.2c-1.6,0-2.4,0.6-2.4,1.6c0,0.3,0.1,0.6,0.4,0.8s0.6,0.3,1.1,0.3
					c0.7,0,1.3-0.2,1.8-0.7c0.5-0.4,0.8-0.9,0.8-1.5v-0.5L291.8,154.2L291.8,154.2z"/>
				<path class="st8" d="M300.5,150.4v1.1c-0.4-0.1-0.7-0.2-1.1-0.2c-0.6,0-1,0.2-1.4,0.7s-0.6,1-0.6,1.7v3.8h-1.1v-7.2h1.1v1.3
					c0.2-0.4,0.4-0.8,0.8-1c0.4-0.3,0.8-0.5,1.3-0.5C299.9,150.2,300.2,150.3,300.5,150.4z"/>
				<path class="st8" d="M302.6,147.5v6.3l3.6-3.4h1.5l-3.2,2.9l3.5,4.3h-1.4l-2.8-3.6l-1.1,1v2.6h-1.1v-10.2L302.6,147.5
					L302.6,147.5z"/>
			</g>
		</g>
	</g>
	<g>
		<g>
			<rect x="269.2" y="79.9" class="st3" width="82.7" height="50"/>
			<rect x="267.9" y="77.9" class="st4" width="82.7" height="50"/>
		</g>
		<g transform="translate(20 9)">
			<g class="st11">
				<path class="st8" d="M266.7,89.3v4.3h5.8v-4.3h1.1v10h-1.1v-4.7h-5.8v4.7h-1.1v-10H266.7z"/>
				<path class="st8" d="M280.9,92.7c0.4,0.5,0.6,1.1,0.6,2v4.7h-1.1v-1.2c-0.3,0.4-0.7,0.7-1.1,1c-0.5,0.3-1.1,0.4-1.8,0.4
					c-0.7,0-1.3-0.2-1.7-0.5c-0.4-0.4-0.7-0.9-0.7-1.5c0-0.8,0.3-1.4,1-1.9c0.6-0.4,1.4-0.6,2.5-0.6h1.7v-0.4c0-1.2-0.6-1.8-1.9-1.8
					c-0.5,0-1,0.1-1.3,0.3c-0.4,0.2-0.6,0.6-0.7,1l-1.1-0.1c0.2-0.8,0.5-1.3,1.1-1.7c0.5-0.3,1.2-0.5,2.1-0.5
					C279.7,91.8,280.4,92.1,280.9,92.7z M278.8,95.8c-1.6,0-2.4,0.6-2.4,1.6c0,0.3,0.1,0.6,0.4,0.8c0.3,0.2,0.6,0.3,1.1,0.3
					c0.7,0,1.3-0.2,1.8-0.7c0.5-0.4,0.8-0.9,0.8-1.5v-0.5C280.5,95.8,278.8,95.8,278.8,95.8z"/>
				<path class="st8" d="M289.8,89.1v10.2h-1.1v-1.2c-0.5,0.9-1.3,1.4-2.4,1.4s-1.9-0.4-2.5-1.1c-0.5-0.7-0.8-1.6-0.8-2.7
					s0.3-1.9,0.8-2.6c0.6-0.8,1.4-1.2,2.4-1.2s1.8,0.5,2.4,1.5v-4.3C288.6,89.1,289.8,89.1,289.8,89.1z M284.7,93.6
					c-0.4,0.5-0.5,1.2-0.5,2c0,0.9,0.2,1.6,0.5,2.1c0.4,0.6,1,0.9,1.8,0.9c0.7,0,1.3-0.3,1.7-0.8s0.5-1.2,0.5-2v-0.1
					c0-0.8-0.2-1.5-0.6-2s-0.9-0.8-1.6-0.8C285.7,92.8,285.1,93,284.7,93.6z"/>
				<path class="st8" d="M297.3,93c0.6,0.7,0.9,1.6,0.9,2.7s-0.3,2-0.9,2.7c-0.7,0.8-1.5,1.1-2.6,1.1s-1.9-0.4-2.6-1.1
					c-0.6-0.7-0.9-1.6-0.9-2.7s0.3-2,0.9-2.7c0.6-0.8,1.5-1.1,2.6-1.1C295.8,91.8,296.7,92.2,297.3,93z M293,93.7
					c-0.4,0.5-0.6,1.2-0.6,2s0.2,1.5,0.6,2c0.4,0.6,1,0.9,1.8,0.9s1.4-0.3,1.8-0.9c0.4-0.5,0.6-1.2,0.6-2s-0.2-1.5-0.6-2
					c-0.4-0.6-1.1-0.9-1.8-0.9C294,92.8,293.4,93.1,293,93.7z"/>
				<path class="st8" d="M305.5,93c0.6,0.7,0.9,1.6,0.9,2.7s-0.3,2-0.9,2.7c-0.7,0.8-1.5,1.1-2.6,1.1s-1.9-0.4-2.6-1.1
					c-0.6-0.7-0.9-1.6-0.9-2.7s0.3-2,0.9-2.7c0.6-0.8,1.5-1.1,2.6-1.1C304,91.8,304.9,92.2,305.5,93z M301.2,93.7
					c-0.4,0.5-0.6,1.2-0.6,2s0.2,1.5,0.6,2c0.4,0.6,1,0.9,1.8,0.9s1.4-0.3,1.8-0.9c0.4-0.5,0.6-1.2,0.6-2s-0.2-1.5-0.6-2
					c-0.4-0.6-1.1-0.9-1.8-0.9C302.2,92.8,301.6,93.1,301.2,93.7z"/>
				<path class="st8" d="M313.9,93c0.5,0.7,0.8,1.6,0.8,2.7s-0.3,1.9-0.8,2.6c-0.6,0.8-1.4,1.1-2.4,1.1s-1.8-0.5-2.4-1.5v4.1H308V92
					h1.1v1.2c0.5-0.9,1.3-1.4,2.4-1.4C312.4,91.8,313.2,92.2,313.9,93z M309.6,93.6c-0.4,0.5-0.5,1.2-0.5,2v0.1c0,0.8,0.2,1.5,0.6,2
					s0.9,0.8,1.6,0.8c0.8,0,1.4-0.3,1.8-0.8s0.5-1.2,0.5-2.1s-0.2-1.5-0.5-2c-0.4-0.6-1-0.9-1.8-0.9C310.5,92.8,309.9,93,309.6,93.6
					z"/>
			</g>
		</g>
	</g>
</g>
<g>
	<path class="st6" d="M124.7,173v3.9h4.9V173h1.4v9.3h-1.4v-4.2h-4.9v4.2h-1.4V173H124.7z"/>
	<path class="st6" d="M137.9,176.2c0.4,0.4,0.6,1.1,0.6,1.9v4.3h-1.3v-0.9c-0.3,0.3-0.6,0.6-1,0.8s-1,0.3-1.6,0.3
		c-0.7,0-1.2-0.2-1.6-0.5c-0.4-0.4-0.6-0.8-0.6-1.4c0-0.8,0.3-1.3,0.9-1.7c0.5-0.4,1.3-0.6,2.3-0.6h1.5v-0.3c0-0.9-0.5-1.4-1.5-1.4
		c-0.4,0-0.8,0.1-1,0.2c-0.3,0.2-0.5,0.5-0.6,0.8l-1.4-0.1c0.1-0.7,0.5-1.3,1.1-1.6c0.5-0.3,1.2-0.5,2-0.5
		C136.7,175.4,137.4,175.7,137.9,176.2z M135.7,179.3c-1.3,0-1.9,0.5-1.9,1.3c0,0.3,0.1,0.5,0.3,0.6c0.2,0.2,0.5,0.3,0.8,0.3
		c0.6,0,1.1-0.2,1.5-0.5c0.4-0.4,0.6-0.8,0.6-1.3v-0.4L135.7,179.3z"/>
	<path class="st6" d="M146.3,172.9v9.5H145v-0.8c-0.5,0.6-1.2,1-2.1,1c-1,0-1.8-0.4-2.3-1.1c-0.5-0.7-0.8-1.5-0.8-2.5
		s0.2-1.8,0.8-2.5c0.5-0.7,1.3-1.1,2.3-1.1c0.8,0,1.5,0.4,2.1,1.2v-3.7L146.3,172.9L146.3,172.9z M141.7,177.2
		c-0.3,0.4-0.4,1-0.4,1.7s0.1,1.3,0.4,1.7c0.3,0.5,0.8,0.7,1.5,0.7c0.6,0,1.1-0.2,1.4-0.7c0.3-0.4,0.4-1,0.4-1.7v-0.1
		c0-0.7-0.2-1.3-0.5-1.8c-0.3-0.4-0.8-0.6-1.3-0.6C142.5,176.5,142,176.8,141.7,177.2z"/>
	<path class="st6" d="M153.4,176.4c0.6,0.7,0.9,1.5,0.9,2.5s-0.3,1.9-0.9,2.5c-0.6,0.7-1.4,1-2.5,1s-1.8-0.4-2.5-1
		c-0.6-0.7-0.9-1.5-0.9-2.5s0.3-1.9,0.9-2.5c0.6-0.7,1.4-1,2.4-1S152.8,175.8,153.4,176.4z M149.5,177.3c-0.3,0.4-0.5,1-0.5,1.7
		s0.1,1.2,0.5,1.7s0.8,0.8,1.5,0.8c0.6,0,1.1-0.3,1.5-0.8c0.3-0.4,0.5-1,0.5-1.7s-0.2-1.2-0.5-1.7c-0.4-0.5-0.9-0.8-1.5-0.8
		C150.3,176.5,149.8,176.8,149.5,177.3z"/>
	<path class="st6" d="M161.2,176.4c0.6,0.7,0.9,1.5,0.9,2.5s-0.3,1.9-0.9,2.5c-0.6,0.7-1.4,1-2.5,1s-1.8-0.4-2.5-1
		c-0.6-0.7-0.9-1.5-0.9-2.5s0.3-1.9,0.9-2.5c0.6-0.7,1.4-1,2.4-1S160.6,175.8,161.2,176.4z M157.2,177.3c-0.3,0.4-0.5,1-0.5,1.7
		s0.1,1.2,0.5,1.7s0.8,0.8,1.5,0.8c0.6,0,1.1-0.3,1.5-0.8c0.3-0.4,0.5-1,0.5-1.7s-0.2-1.2-0.5-1.7c-0.4-0.5-0.9-0.8-1.5-0.8
		C158.1,176.5,157.6,176.8,157.2,177.3z"/>
	<path class="st6" d="M169.1,176.5c0.5,0.7,0.8,1.5,0.8,2.5s-0.3,1.8-0.8,2.5s-1.3,1.1-2.3,1.1c-0.8,0-1.5-0.4-2.1-1.2v3.6h-1.4
		v-9.3h1.3v0.8c0.5-0.7,1.2-1,2.1-1C167.7,175.4,168.5,175.8,169.1,176.5z M165.2,177.3c-0.3,0.4-0.4,1-0.4,1.7v0.1
		c0,0.7,0.2,1.3,0.5,1.7s0.7,0.6,1.2,0.6c0.7,0,1.2-0.2,1.5-0.7c0.3-0.4,0.4-1,0.4-1.7s-0.1-1.3-0.4-1.7c-0.3-0.5-0.8-0.7-1.5-0.7
		C165.9,176.5,165.5,176.8,165.2,177.3z"/>
</g>
<g>
	<path d="M138.8,214c0.8,0.6,1.2,1.4,1.3,2.4H139c-0.1-0.7-0.5-1.3-1.1-1.7c-0.5-0.4-1.2-0.6-2-0.6c-1.2,0-2.1,0.4-2.7,1.2
		c-0.6,0.8-0.9,1.8-0.9,3s0.3,2.2,0.9,3c0.6,0.8,1.5,1.2,2.7,1.2c0.8,0,1.5-0.2,2-0.6c0.6-0.4,1-1.1,1.2-2h1.1
		c-0.2,1.2-0.7,2.1-1.6,2.7c-0.8,0.6-1.7,0.9-2.8,0.9c-1.6,0-2.7-0.5-3.6-1.5c-0.8-0.9-1.1-2.1-1.1-3.6s0.4-2.7,1.1-3.7
		c0.8-1.1,2-1.6,3.6-1.6C137.1,213.1,138,213.4,138.8,214z"/>
	<path d="M142.2,213.3l3.1,8.8l0,0l3.1-8.8h1.3l-3.7,10h-1.4l-3.7-10H142.2z"/>
	<path d="M152.2,213.3l3.7,8.5l0,0l3.7-8.5h1.4v10h-1v-8l0,0l-3.5,8h-1l-3.5-8l0,0v8h-1.1v-10H152.2z"/>
	<path d="M168.6,211.8l-5,12.9h-1l5-12.9H168.6z"/>
	<path d="M177.3,214c0.8,0.6,1.2,1.4,1.3,2.4h-1.1c-0.1-0.7-0.5-1.3-1.1-1.7c-0.5-0.4-1.2-0.6-2-0.6c-1.2,0-2.1,0.4-2.7,1.2
		c-0.6,0.8-0.9,1.8-0.9,3s0.3,2.2,0.9,3c0.6,0.8,1.5,1.2,2.7,1.2c0.8,0,1.5-0.2,2-0.6c0.6-0.4,1-1.1,1.2-2h1.1
		c-0.2,1.2-0.7,2.1-1.6,2.7c-0.8,0.6-1.7,0.9-2.8,0.9c-1.6,0-2.7-0.5-3.6-1.5c-0.8-0.9-1.1-2.1-1.1-3.6s0.4-2.7,1.1-3.7
		c0.8-1.1,2-1.6,3.6-1.6C175.6,213.1,176.5,213.4,177.3,214z"/>
	<path d="M184.4,213.3c2.3,0,3.4,1,3.4,2.9c0,2-1.2,3-3.5,3h-2.9v4.1h-1.1v-10H184.4z M181.5,218.2h2.9c0.8,0,1.4-0.2,1.8-0.5
		c0.4-0.3,0.6-0.8,0.6-1.5s-0.2-1.2-0.6-1.5c-0.4-0.3-1-0.5-1.8-0.5h-2.9V218.2z"/>
	<path d="M190.8,213.3l3.7,8.5l0,0l3.7-8.5h1.4v10h-1.1v-8l0,0l-3.5,8h-1l-3.5-8l0,0v8h-1.1v-10H190.8z"/>
	<path d="M207.3,213.9c0.6,0.5,0.9,1.2,0.9,2.1c0,0.9-0.3,1.7-1,2.4c-0.4,0.4-1,0.9-2.1,1.6c-1.3,0.9-2,1.6-2.2,2.3h5.3v1h-6.7
		c0-0.9,0.3-1.7,1-2.5c0.4-0.4,1.1-1.1,2.2-1.8c0.8-0.6,1.3-1,1.6-1.2c0.5-0.5,0.8-1.1,0.8-1.8c0-0.6-0.2-1.1-0.5-1.4
		s-0.9-0.5-1.5-0.5c-0.7,0-1.2,0.2-1.6,0.7c-0.4,0.4-0.6,1.1-0.6,2h-1.1c0-1.1,0.3-2,0.9-2.7c0.6-0.7,1.4-1,2.5-1
		C205.9,213.1,206.7,213.4,207.3,213.9z"/>
	<path d="M211.5,221.9c0.2,0.2,0.3,0.4,0.3,0.6c0,0.2-0.1,0.4-0.3,0.6c-0.2,0.2-0.4,0.3-0.6,0.3c-0.3,0-0.4-0.1-0.6-0.3
		c-0.2-0.2-0.3-0.4-0.3-0.6c0-0.3,0.1-0.4,0.3-0.6c0.2-0.2,0.4-0.3,0.6-0.3C211.1,221.6,211.4,221.7,211.5,221.9z"/>
	<path d="M219.7,214.7c0.5,0.9,0.8,2.1,0.8,3.6s-0.3,2.7-0.8,3.6c-0.6,1.1-1.5,1.6-2.7,1.6s-2.1-0.5-2.7-1.6
		c-0.5-0.9-0.8-2.1-0.8-3.6s0.3-2.7,0.8-3.6c0.6-1.1,1.5-1.6,2.7-1.6C218.2,213.1,219.1,213.6,219.7,214.7z M215,215.5
		c-0.3,0.7-0.4,1.6-0.4,2.8s0.1,2.1,0.4,2.8c0.4,1,1,1.4,1.9,1.4s1.5-0.5,1.9-1.4c0.3-0.7,0.4-1.6,0.4-2.8s-0.2-2.1-0.4-2.8
		c-0.4-1-1-1.4-1.9-1.4S215.4,214.6,215,215.5z"/>
</g>
<g>
	<path d="M664.8,152.4c0.8,0.6,1.2,1.4,1.3,2.4h-1.1c-0.1-0.7-0.5-1.3-1.1-1.7c-0.5-0.4-1.2-0.6-2-0.6c-1.2,0-2.1,0.4-2.7,1.2
		c-0.6,0.8-0.9,1.8-0.9,3s0.3,2.2,0.9,3c0.6,0.8,1.5,1.2,2.7,1.2c0.8,0,1.5-0.2,2-0.6c0.6-0.4,1-1.1,1.2-2h1.1
		c-0.2,1.2-0.7,2.1-1.6,2.7c-0.8,0.6-1.7,0.9-2.8,0.9c-1.6,0-2.7-0.5-3.6-1.5c-0.8-0.9-1.1-2.1-1.1-3.6c0-1.5,0.4-2.7,1.1-3.7
		c0.8-1.1,2-1.6,3.6-1.6C663.1,151.5,664.1,151.8,664.8,152.4z"/>
	<path d="M669,151.7v4.3h5.8v-4.3h1.1v10h-1.1V157H669v4.7h-1.1v-10H669z"/>
	<path d="M681.6,151.7c1.6,0,2.8,0.4,3.6,1.4c0.7,0.8,1.1,2.1,1.1,3.6c0,1.5-0.4,2.8-1.2,3.6c-0.8,0.9-2,1.4-3.6,1.4H678v-10H681.6z
		 M679.1,160.7h2.1c1.3,0,2.3-0.3,2.9-1c0.6-0.7,0.9-1.7,0.9-3c0-1.3-0.3-2.3-0.9-3c-0.6-0.7-1.6-1-2.9-1h-2.3V160.7z"/>
	<path d="M694.6,151.7v1H689v3.4h5.3v1H689v4.7h-1.1v-10H694.6z"/>
	<path d="M702,152.3c0.7,0.5,1,1.3,1.1,2.4H702c-0.1-0.7-0.4-1.3-0.8-1.6c-0.4-0.4-1.1-0.5-1.9-0.5c-0.7,0-1.3,0.1-1.7,0.4
		c-0.5,0.3-0.7,0.7-0.7,1.3c0,0.5,0.3,0.9,0.9,1.2c0.3,0.1,0.9,0.4,1.8,0.6c1.3,0.4,2.2,0.7,2.6,1c0.8,0.5,1.2,1.2,1.2,2.1
		c0,0.9-0.3,1.6-1.1,2.1c-0.7,0.5-1.6,0.7-2.8,0.7c-1.2,0-2.1-0.3-2.8-0.8c-0.8-0.6-1.2-1.5-1.3-2.7h1.1c0.1,0.9,0.4,1.5,0.9,1.9
		c0.5,0.4,1.1,0.6,2,0.6c0.8,0,1.5-0.2,2-0.5c0.5-0.3,0.8-0.7,0.8-1.3c0-0.6-0.3-1.1-1-1.5c-0.3-0.2-1-0.4-2.1-0.7
		c-1.2-0.4-2-0.6-2.3-0.8c-0.8-0.4-1.1-1.1-1.1-1.9c0-0.9,0.4-1.6,1.1-2c0.7-0.4,1.5-0.7,2.5-0.7C700.4,151.5,701.3,151.8,702,152.3
		z"/>
</g>
</svg>
