<?xml version="1.0" encoding="UTF-8"?>
<svg width="32px" height="32px" viewBox="0 0 32 32" version="1.1" xmlns="http://www.w3.org/2000/svg" xmlns:xlink="http://www.w3.org/1999/xlink">
    <!-- Generator: Sketch 52.6 (67491) - http://www.bohemiancoding.com/sketch -->
    <title>定制建模-32px</title>
    <desc>Created with Sketch.</desc>
    <g id="定制建模-32px" stroke="none" stroke-width="1" fill="none" fill-rule="evenodd">
        <rect id="Rectangle-Copy" fill="#444444" opacity="0" x="0" y="0" width="32" height="32"></rect>
        <g id="Group" transform="translate(3.000000, 2.000000)" fill="#7C848E">
            <path d="M24,6 L24,15.2 C24,15.2 24,17.5 22.6,20 C20.8,23.4 17.5,25.7 13,26.9 C2.3,24.3 2,15.6 2,15.2 L2,2 L22,2 L24,2 L26,2 L26,0 L0,0 L0,15.2 C0,15.2 0.1,26 13,29 C25.9,26 26,15.2 26,15.2 L26,6 L24,6 Z" id="Shape" fill-rule="nonzero"></path>
            <path d="M16.9679079,16.2908727 L16,15.7320508 L17,14 L18,14.5773503 L18,12 L14,14.29 L14,17.99 L16.9679079,16.2908727 Z M9.33239157,16.4627942 L12,17.99 L12,14.29 L8,12 L8,14.9226497 L9.59807621,14 L10.5980762,15.7320508 L9.33239157,16.4627942 Z M12,7.54 L8,9.7 L13,12.4 L18,9.7 L14,7.54 L14,9 L12,9 L12,7.54 Z M6,9 L13,5 L20,9 L20,17 L13,21 L6,17 L6,9 Z" id="Combined-Shape"></path>
        </g>
    </g>
</svg>