<svg xmlns="http://www.w3.org/2000/svg" width="48" height="48" viewBox="0 0 48 48">
  <g fill="none" fill-rule="evenodd" transform="translate(3)">
    <polygon stroke="#334966" stroke-width="2" points="21 1.152 1 12.58 1 35.42 21 46.848 41 35.42 41 12.58"/>
    <polygon fill="#00A4FF" points="21 11 32 17.5 32 30.5 21 37 10 30.5 10 17.5"/>
    <path fill="#334966" fill-rule="nonzero" d="M41.0077221,12.2635137 L40,12.8393549 L40,13.1606451 L41.0077221,13.7364863 L41.4285714,13 L41.0077221,12.2635137 Z M39.7188711,13 L21,2.30350221 L2.28112887,13 L21,23.6964978 L39.7188711,13 Z M2,13.1606451 L2,12.8393549 L0.99227788,12.2635137 L0.57142857,13 L0.99227788,13.7364863 L2,13.1606451 Z M22,25.4285714 L22,47 L20,47 L20,25.4285714 L0,14 L0,12 L21,0 L42,12 L42,14 L22,25.4285714 Z"/>
  </g>
</svg>
