<?xml version="1.0" encoding="UTF-8"?>
<svg width="48px" height="48px" viewBox="0 0 48 48" version="1.1" xmlns="http://www.w3.org/2000/svg" xmlns:xlink="http://www.w3.org/1999/xlink">
    <!-- Generator: Sketch 53.2 (72643) - https://sketchapp.com -->
    <title>特性2</title>
    <desc>Created with Sketch.</desc>
    <g id="特性2" stroke="none" stroke-width="1" fill="none" fill-rule="evenodd">
        <g id="1541159063469-48x48-copy" transform="translate(0.000000, 4.000000)">
            <path d="M2,2 L2,38 L46,38 L46,2 L2,2 Z M0,0 L48,0 L48,40 L0,40 L0,0 Z" id="Rectangle-34" fill="#334966" fill-rule="nonzero"></path>
            <circle id="Oval-16" fill="#00A4FF" fill-rule="nonzero" cx="21.5" cy="21.5" r="9.5"></circle>
            <path d="M9.0378896,9.0378896 L9.0378896,21 L21,21 C20.5144818,14.6175939 15.4202957,9.5234078 9.0378896,9.0378896 Z" id="Combined-Shape" stroke="#334966" stroke-width="2" transform="translate(15.018945, 15.018945) scale(-1, 1) translate(-15.018945, -15.018945) "></path>
            <rect id="Rectangle-35" fill="#334966" fill-rule="nonzero" x="36" y="8" width="4" height="2"></rect>
            <rect id="Rectangle-35-Copy" fill="#00A4FF" fill-rule="nonzero" x="36" y="15" width="4" height="2"></rect>
            <rect id="Rectangle-35-Copy-2" fill="#00A4FF" fill-rule="nonzero" x="36" y="22" width="4" height="2"></rect>
            <rect id="Rectangle-35-Copy-3" fill="#334966" fill-rule="nonzero" x="8" y="30" width="32" height="2"></rect>
        </g>
    </g>
</svg>