<?xml version="1.0" encoding="utf-8"?>
<!-- Generator: Adobe Illustrator 19.0.0, SVG Export Plug-In . SVG Version: 6.00 Build 0)  -->
<svg version="1.1" id="图层_1" xmlns="http://www.w3.org/2000/svg" xmlns:xlink="http://www.w3.org/1999/xlink" x="0px" y="0px"
	 viewBox="9 -12 32 32" style="enable-background:new 9 -12 32 32;" xml:space="preserve">
<style type="text/css">
	.st0{fill:none;}
	.st1{fill:#00A4FF;}
</style>
<g>
	<path class="st0" d="M-279.5-2217.5h-2v-2l0,0c0-4.4-3.6-8-8-8s-8,3.6-8,8l0,0v2h-2l0,0h-0.1v4h0.1v8h-0.1v4h20v-16H-279.5z
		 M-283.5-2205.5h-12v-8h12V-2205.5z M-283.5-2217.5h-12l0,0h2v-2c0-2.2,1.8-4,4-4s4,1.8,4,4v2H-283.5L-283.5-2217.5z
		 M-315.5-2239.5v30.5c0,0,0.2,21.6,26,27.5c25.8-5.9,26-27.5,26-27.5v-30.5H-315.5z M-267.5-2209.1c0,0-0.1,4.6-2.8,9.7
		c-3.6,6.9-10.1,11.5-19.2,13.8c-21.4-5.4-22-22.7-22-23.4v-26.5h44V-2209.1z"/>
</g>
<g>
	<g>
		<path class="st1" d="M27,13v-2h-4v2H27z M36,13v-24H14v30h22v-2H16V-9h18v22H36z M28-7v2H18v4h2v-2h12L28-7z M32-1h-2v2H18l4,4V3
			h10V-1z M26-2v2h2v-2H26z M22-2v2h2v-2H22z"/>
	</g>
</g>
</svg>
