<?xml version="1.0" encoding="utf-8"?>
<!-- Generator: Adobe Illustrator 22.1.0, SVG Export Plug-In . SVG Version: 6.00 Build 0)  -->
<svg version="1.1" id="svgwrapper_svg" xmlns="http://www.w3.org/2000/svg" xmlns:xlink="http://www.w3.org/1999/xlink" x="0px"
	 y="0px" viewBox="0 0 854 599" style="enable-background:new 0 0 854 599;" xml:space="preserve">
<style type="text/css">
	.st0{display:none;fill:none;stroke:#999999;}
	.st1{fill-opacity:0;}
	.st2{fill:none;stroke:#BABABA;stroke-dasharray:5;}
	.st3{enable-background:new    ;}
	.st4{fill:#444444;}
	.st5{fill:#CEE3FF;}
	.st6{fill:#00A4FF;}
	.st7{fill:none;stroke:#00A4FF;stroke-dasharray:5;}
	.st8{fill:none;stroke:#888888;}
	.st9{fill:#888888;}
	.st10{fill:none;stroke:#FF0000;stroke-width:15;stroke-opacity:0;}
	.st11{opacity:0.6;fill:#BBBBBB;enable-background:new    ;}
	.st12{fill:#FFFFFF;stroke:#E5E5E5;}
	.st13{fill:#878787;}
	.st14{fill:#CEE3FF;fill-opacity:0;}
	.st15{fill:#E5E5E5;}
	.st16{fill:none;}
	.st17{clip-path:url(#SVGID_2_);}
	.st18{clip-path:url(#SVGID_4_);fill:#00A4FF;}
	.st19{clip-path:url(#SVGID_6_);}
	.st20{clip-path:url(#SVGID_8_);fill:#00A4FF;}
</style>
<path class="st0" d="M261.7,174L261.7,174"/>
<g id="DashRectGroup8" transform="translate(25.5,370)">
	<rect x="-20" y="27" class="st1" width="169" height="171"/>
	<path class="st2" d="M-20,27h169v171H-20V27"/>
	<g transform="translate(10 10)">
		<g class="st3">
			<path class="st4" d="M-13.4,30.9c-0.2-0.5-0.4-0.9-0.7-1.3l1.1-0.2c0.2,0.4,0.4,0.9,0.6,1.5h4.9v0.9h-2.2
				c-0.2,0.8-0.5,1.5-0.9,2.2h3.7V35h-12.4v-0.9h3.6c-0.2-0.8-0.5-1.6-0.8-2.2h-2.2v-0.9H-13.4z M-8.6,42.4h-1v-0.6h-6.6v0.6h-1
				v-6.2h8.7V42.4z M-9.6,38.5V37h-6.6v1.5H-9.6z M-9.6,40.9v-1.5h-6.6v1.5H-9.6z M-14.6,34.1h3c0.4-0.7,0.7-1.5,0.8-2.2h-4.6
				C-15,32.5-14.8,33.3-14.6,34.1z"/>
			<path class="st4" d="M-5.1,38.3l-0.3-1.1c1.9-1.6,3.1-3.2,3.8-4.7h-3.4v-1h2.2c-0.2-0.6-0.5-1.2-0.8-1.8l1-0.3
				c0.3,0.7,0.6,1.4,0.8,1.9l-0.4,0.2h1.8v0.9c-0.4,1-0.9,2-1.7,3c0.8,0.5,1.5,1,2.1,1.6l-0.6,0.9c-0.5-0.6-1-1-1.5-1.4v5.9h-1v-5.8
				C-3.9,37.1-4.5,37.7-5.1,38.3z M3.8,32.1v2.7c-0.1,2.1-0.4,3.8-1.1,5c-0.7,1.2-1.8,2.1-3.3,2.7l-0.5-0.9C0.4,41,1.4,40.1,2,39.1
				c0.5-1.1,0.8-2.5,0.9-4.3v-2.7H3.8z M6.4,37.9h-1v-6.8H1.4v6.8h-1v-7.7h6V37.9z M4.7,42.2c-0.8,0-1.1-0.4-1.1-1.2v-3.1h1v2.9
				c0,0.3,0.2,0.5,0.5,0.5h0.9c0.2,0,0.4-0.1,0.4-0.2c0.1-0.2,0.2-0.7,0.2-1.6l0.9,0.3c-0.1,1.1-0.2,1.9-0.5,2.1
				c-0.2,0.2-0.5,0.3-1,0.3H4.7z"/>
			<path class="st4" d="M12.5,29.6v1.7h1.9v1h-1.9v1.6h2.1v1H8.6v-1h0.8v-3.1h1v3.1h1.1v-4.2H12.5z M10.7,36.3
				c-0.3,1.3-0.8,2.3-1.3,3l-0.7-0.6C9.1,38,9.5,37.1,9.8,36L10.7,36.3z M14.7,36.1c-0.6,3.1-2.4,5.2-5.4,6.2l-0.6-0.9
				c2.8-0.9,4.5-2.7,5.1-5.4L14.7,36.1z M12.4,35.3V39h-1v-3.7H12.4z M18.5,34.4v2.5c0,1.5-0.4,2.7-0.9,3.6
				c-0.6,0.8-1.5,1.5-2.8,1.9l-0.6-0.9c1.2-0.4,2.1-1,2.6-1.7c0.5-0.8,0.7-1.7,0.7-2.9v-2.5H18.5z M21.3,30.1v1h-2.8
				c0,0.5-0.1,1-0.2,1.5h2.5v6.7h-1v-5.7h-3.6v5.7h-1v-6.7h2.1c0.1-0.5,0.1-1,0.2-1.5h-2.7v-1H21.3z M21.5,41.7l-0.7,0.7
				c-0.6-0.8-1.4-1.6-2.4-2.5l0.7-0.6C20,40.1,20.8,40.9,21.5,41.7z"/>
			<path class="st4" d="M26.4,29.7c-0.1,0.7-0.3,1.4-0.4,2h3.1v0.9c-0.4,2.5-1.1,4.5-2.2,6.2c0.3,0.5,0.7,0.9,1.1,1.2
				c1.1,0.8,2.8,1.2,5.2,1.2c0.7,0,1.5,0,2.2-0.1l-0.2,1.1h-1.5c-2.9,0-5-0.5-6.3-1.4c-0.4-0.3-0.7-0.7-1.1-1.1
				c-0.9,1.1-1.9,2-3.1,2.7l-0.5-1c1.2-0.7,2.2-1.6,3-2.7c-0.5-0.9-0.9-2-1.2-3.2c-0.4,0.7-0.8,1.2-1.2,1.8l-0.7-0.9
				c1.3-1.7,2.2-3.9,2.7-6.7L26.4,29.7z M26.3,37.7c0.8-1.4,1.4-3.1,1.8-5h-2.4c-0.2,0.5-0.4,1-0.5,1.5
				C25.5,35.6,25.9,36.8,26.3,37.7z M32,29.6v3.6c1.1,0.8,2.3,1.8,3.5,2.9l-0.6,0.9c-1.1-1.1-2.1-2.1-2.9-2.7v5.8h-1V29.6H32z"/>
			<path class="st4" d="M38.4,34.8v-3.3h-1.7v-1h4.5v1h-1.7v3.3H41v1h-1.5v3.2c0.5-0.2,1-0.4,1.5-0.6v1c-1.3,0.5-2.7,1-4.2,1.3
				l-0.3-1c0.6-0.1,1.2-0.3,1.8-0.4v-3.5h-1.5v-1H38.4z M48.7,30.1v6.5h-2.9v1.7h3.2v1h-3.2V41h3.7v1H41v-1h3.8v-1.8h-3.2v-1h3.2
				v-1.7h-2.9v-6.5H48.7z M44.8,32.9V31h-2v1.9H44.8z M44.8,33.8h-2v1.9h2V33.8z M45.8,32.9h1.9V31h-1.9V32.9z M47.7,33.8h-1.9v1.9
				h1.9V33.8z"/>
		</g>
	</g>
</g>
<g id="BlueRectGroup15" transform="translate(297.5,4)">
	<rect x="-32" y="27" class="st5" width="417" height="537"/>
	<g transform="translate(10 10)">
		<g class="st3">
			<path class="st6" d="M-24.2,30.9c-0.2-0.5-0.4-0.9-0.7-1.3l1.1-0.2c0.2,0.4,0.4,0.9,0.6,1.5h4.9v0.9h-2.2
				c-0.2,0.8-0.5,1.5-0.9,2.2h3.7V35H-30v-0.9h3.6c-0.2-0.8-0.5-1.6-0.8-2.2h-2.2v-0.9H-24.2z M-19.4,42.4h-1v-0.6h-6.6v0.6h-1v-6.2
				h8.7V42.4z M-20.4,38.5V37h-6.6v1.5H-20.4z M-20.4,40.9v-1.5h-6.6v1.5H-20.4z M-25.4,34.1h3c0.4-0.7,0.7-1.5,0.8-2.2h-4.6
				C-25.8,32.5-25.6,33.3-25.4,34.1z"/>
			<path class="st6" d="M-15.9,38.3l-0.3-1.1c1.9-1.6,3.1-3.2,3.8-4.7h-3.4v-1h2.2c-0.2-0.6-0.5-1.2-0.8-1.8l1-0.3
				c0.3,0.7,0.6,1.4,0.8,1.9l-0.4,0.2h1.8v0.9c-0.4,1-0.9,2-1.7,3c0.8,0.5,1.5,1,2.1,1.6l-0.6,0.9c-0.5-0.6-1-1-1.5-1.4v5.9h-1v-5.8
				C-14.7,37.1-15.3,37.7-15.9,38.3z M-7,32.1v2.7c-0.1,2.1-0.4,3.8-1.1,5c-0.7,1.2-1.8,2.1-3.3,2.7l-0.5-0.9
				c1.5-0.6,2.5-1.5,3.1-2.5c0.5-1.1,0.8-2.5,0.9-4.3v-2.7H-7z M-4.4,37.9h-1v-6.8h-3.9v6.8h-1v-7.7h6V37.9z M-6.1,42.2
				c-0.8,0-1.1-0.4-1.1-1.2v-3.1h1v2.9c0,0.3,0.2,0.5,0.5,0.5h0.9c0.2,0,0.4-0.1,0.4-0.2c0.1-0.2,0.2-0.7,0.2-1.6l0.9,0.3
				c-0.1,1.1-0.2,1.9-0.5,2.1c-0.2,0.2-0.5,0.3-1,0.3H-6.1z"/>
			<path class="st6" d="M1.7,29.6v1.7h1.9v1H1.7v1.6h2.1v1h-5.9v-1h0.8v-3.1h1v3.1h1.1v-4.2H1.7z M-0.1,36.3c-0.3,1.3-0.8,2.3-1.3,3
				l-0.7-0.6C-1.7,38-1.3,37.1-1,36L-0.1,36.3z M3.9,36.1c-0.6,3.1-2.4,5.2-5.4,6.2l-0.6-0.9c2.8-0.9,4.5-2.7,5.1-5.4L3.9,36.1z
				 M1.6,35.3V39h-1v-3.7H1.6z M7.7,34.4v2.5c0,1.5-0.4,2.7-0.9,3.6c-0.6,0.8-1.5,1.5-2.8,1.9l-0.6-0.9c1.2-0.4,2.1-1,2.6-1.7
				c0.5-0.8,0.7-1.7,0.7-2.9v-2.5H7.7z M10.5,30.1v1H7.7c0,0.5-0.1,1-0.2,1.5H10v6.7h-1v-5.7H5.4v5.7h-1v-6.7h2.1
				c0.1-0.5,0.1-1,0.2-1.5H4v-1H10.5z M10.7,41.7l-0.7,0.7c-0.6-0.8-1.4-1.6-2.4-2.5l0.7-0.6C9.2,40.1,10,40.9,10.7,41.7z"/>
			<path class="st6" d="M15.2,29.6v2.8h2.9c0,4.4-0.1,7.1-0.2,8.1c-0.1,1.1-0.8,1.7-2.1,1.7c-0.2,0-0.6,0-1.1-0.1l-0.3-0.9
				c0.4,0,0.8,0.1,1.2,0.1c0.7,0,1.1-0.4,1.2-1.2c0.1-0.7,0.1-3,0.2-6.7h-1.9c-0.1,4.1-1,7.1-2.8,9l-0.7-0.7
				c1.6-1.8,2.5-4.6,2.5-8.4H12v-1h2.2v-2.8H15.2z M24,42.2h-1v-0.9h-2.6v0.9h-1V31.6H24V42.2z M23,40.3v-7.7h-2.6v7.7H23z"/>
			<path class="st6" d="M32.6,42.1c-0.9,0-1.6-0.1-2.2-0.3c-0.6-0.2-1.1-0.5-1.5-1c-0.2-0.2-0.4-0.3-0.5-0.3c-0.3,0-0.9,0.6-1.6,1.9
				L26,41.7c0.7-1.2,1.4-1.9,1.9-2.1v-4.3h-2v-0.9h2.9v5.2c0.1,0.1,0.2,0.2,0.4,0.3c0.3,0.4,0.7,0.7,1.1,0.9
				c0.4,0.2,1.1,0.3,1.9,0.3c0.7,0,1.7,0,2.8,0c0.7,0,1.3,0,2,0c0.7,0,1.2,0,1.6-0.1l-0.3,1h-3.2C34.4,42.1,33.5,42.1,32.6,42.1z
				 M29.4,32l-0.7,0.7c-0.6-0.7-1.4-1.4-2.4-2.2l0.7-0.7C27.9,30.5,28.7,31.2,29.4,32z M33.7,30.7v-1.1h0.9v1.1h3.5v0.9h-3.5v1.2
				h3.1v3.6h-3.1v4.3h-0.9v-3.9C33,38,31.9,39.1,30.4,40l-0.6-0.8c1.5-0.8,2.6-1.7,3.3-2.8h-2.4v-3.6h3.1v-1.2h-3.6v-0.9H33.7z
				 M33.7,33.7h-2.1v1.8h2.1V33.7z M36.8,33.7h-2.1v1.8h2.1V33.7z M38.3,39.2l-0.7,0.7c-0.6-0.8-1.4-1.6-2.5-2.5l0.7-0.6
				C36.8,37.6,37.6,38.4,38.3,39.2z"/>
			<path class="st6" d="M45.1,30.4c-0.7,1.2-1.3,2.1-2,2.9c-0.7,0.8-1.6,1.6-2.8,2.4l-0.5-0.9c1-0.5,1.8-1.3,2.6-2.1
				c0.7-0.8,1.3-1.7,1.8-2.8L45.1,30.4z M41.9,36.1v-1h8.4c0,1.8-0.1,3.2-0.3,4.2c-0.1,1.1-0.4,1.8-0.7,2.2
				c-0.3,0.4-0.8,0.6-1.5,0.7h-2.5l-0.3-1c0.8,0,1.6,0,2.3,0c0.8,0,1.2-0.3,1.5-1c0.3-0.7,0.4-2.1,0.5-4.3h-3.5
				c-0.3,1.5-0.8,2.7-1.4,3.6c-0.7,1-1.8,1.9-3.2,2.7l-0.6-0.8c1.3-0.7,2.3-1.5,2.9-2.3c0.6-0.8,1-1.9,1.3-3.2H41.9z M52.5,34.8
				l-0.7,0.8c-2.2-1.4-3.7-3.2-4.5-5.4l0.9-0.5C49,31.8,50.5,33.5,52.5,34.8z"/>
			<path class="st6" d="M55.9,30l1,0.2l-0.8,2.8h2.5c0.3-1.1,0.5-2.2,0.7-3.4l1,0.1c-0.2,1.2-0.4,2.3-0.7,3.3h6.6v1h-6.8
				c-0.2,0.6-0.3,1.1-0.5,1.6h5.7v0.9c-0.4,1.2-1.1,2.3-2.3,3.3c1.1,0.7,2.5,1.3,4.1,1.8l-0.5,0.9c-1.8-0.7-3.3-1.4-4.5-2.1
				c-1.1,0.8-2.6,1.5-4.3,2.2l-0.5-0.9c1.6-0.6,2.9-1.2,3.9-1.9c-1.1-0.8-1.9-1.8-2.3-2.7c-1,2.2-2.3,4-3.9,5.3l-0.5-0.9
				c2-1.8,3.5-4.2,4.5-7.4h-3.5L55.9,30z M61.4,39c1-0.8,1.8-1.7,2.1-2.6H59C59.5,37.3,60.3,38.2,61.4,39z M65.1,31.9l-0.7,0.7
				c-0.6-0.7-1.4-1.5-2.5-2.4l0.7-0.7C63.6,30.3,64.5,31.1,65.1,31.9z"/>
			<path class="st6" d="M77.1,42.3l-0.3-1l1.3,0c0.4,0,0.6-0.2,0.6-0.6v-9.7h-9.2v11.3h-1V30.1h11.2V41c0,0.9-0.4,1.3-1.2,1.3H77.1z
				 M72.5,37.2c-0.5,1.4-1.1,2.5-1.8,3.5L70,39.9c0.7-1,1.3-2.3,1.8-3.7c-0.7-0.9-1.3-1.7-2-2.5l0.6-0.6c0.5,0.5,1.1,1.2,1.7,2
				c0.3-1,0.5-2,0.7-3.2l0.9,0.2c-0.2,1.4-0.5,2.8-0.9,4c0.5,0.7,1.1,1.5,1.7,2.4l-0.7,0.7C73.3,38.5,72.9,37.8,72.5,37.2z
				 M76.5,37.5c-0.6,1.4-1.2,2.5-2,3.5l-0.6-0.8c0.8-1.1,1.4-2.3,2-3.7c-0.6-1-1.3-1.8-1.9-2.6l0.6-0.6c0.5,0.6,1.1,1.3,1.7,2.1
				c0.3-1.1,0.5-2.2,0.7-3.4l1,0.2c-0.3,1.6-0.6,3-1,4.2c0.5,0.8,1.1,1.7,1.7,2.7l-0.7,0.7C77.4,39,76.9,38.3,76.5,37.5z"/>
			<path class="st6" d="M85.3,29.9c-0.7,1.8-1.4,3.2-2.1,4.3c0.6-0.1,1.2-0.2,1.8-0.3c0.2-0.5,0.5-1,0.7-1.5l0.9,0.3
				c-1.2,2.4-2.2,4-3,5.1c1-0.2,2-0.5,3-0.9v0.9c-1.4,0.5-2.8,0.9-4.1,1L82.2,38c0.2-0.1,0.3-0.2,0.4-0.3c0.5-0.6,1.1-1.5,1.9-2.8
				c-0.8,0.1-1.5,0.3-2.3,0.4L82,34.3c0.2-0.1,0.3-0.2,0.4-0.4c0.7-1.3,1.4-2.7,1.9-4.4L85.3,29.9z M86.8,40.6
				c-1.4,0.5-2.9,1-4.7,1.3l-0.1-1c1.8-0.3,3.4-0.7,4.8-1.2V40.6z M90,29.7c-0.1,0.4-0.3,0.8-0.4,1.1h3.8v0.7
				c-0.5,1.2-1.3,2.2-2.2,3.1c1,0.7,2.2,1.3,3.5,1.7l-0.6,0.8c-1.5-0.4-2.7-1.1-3.7-1.9c-1,0.8-2.2,1.4-3.6,1.9l-0.6-0.8
				c1.3-0.5,2.5-1.1,3.5-1.8c-0.5-0.5-1-1.1-1.4-1.7c-0.4,0.4-0.8,0.9-1.3,1.2l-0.6-0.8c1.2-1,2.1-2.3,2.5-3.8L90,29.7z M93.4,42.3
				h-1v-0.6h-3.8v0.6h-1v-5.2h5.8V42.3z M92.5,40.8v-2.7h-3.8v2.7H92.5z M90.5,34c0.8-0.7,1.4-1.4,1.9-2.3h-3.2
				c-0.1,0.1-0.2,0.3-0.3,0.4C89.4,32.8,89.9,33.5,90.5,34z"/>
		</g>
	</g>
</g>
<g id="DashRectBlueGroup16" transform="translate(317.5,278.5)">
	<rect x="-38" y="36" class="st1" width="315" height="239"/>
	<path class="st7" d="M-38,36h389.7v239H-38V36"/>
	<g transform="translate(10 10)">
		<g class="st3">
			<path class="st6" d="M-26.3,51.4h-1v-0.9h-7.4v0.9h-1V40.2h3c0.3-0.6,0.5-1.1,0.7-1.7l1,0.1c-0.2,0.6-0.4,1.1-0.7,1.6h5.4V51.4z
				 M-27.3,43.3v-2.1h-7.4v2.1H-27.3z M-27.3,46.3v-2.1h-7.4v2.1H-27.3z M-27.3,49.6v-2.3h-7.4v2.3H-27.3z"/>
			<path class="st6" d="M-23,40.3v-1h4.8v1h-2.2c-0.2,1.1-0.5,2.2-0.9,3.2h2.6v6.3h-2.4v1.1H-22v-5.9c-0.3,0.5-0.6,1-1,1.5l-0.5-0.9
				c1.1-1.6,1.8-3.4,2.2-5.4H-23z M-19.6,48.9v-4.6h-1.5v4.6H-19.6z M-15.4,45.1c-0.1,2.9-0.9,5-2.5,6.4l-0.7-0.7
				c1.4-1.2,2.2-3.1,2.3-5.7h-1.5v-1h1.5v-3.9h-1.2v-1h6.7v1h-1.3v3.9h1.7v1h-1.7v6.3h-1v-6.3H-15.4z M-15.4,40.2v3.9h2.2v-3.9
				H-15.4z"/>
			<path class="st6" d="M-6.5,42.8v5.8c0.3-0.3,0.7-0.6,1.1-1l0.3,1c-0.7,0.7-1.4,1.3-2.2,1.9l-0.4-0.9c0.2-0.2,0.3-0.3,0.3-0.6
				v-5.3h-1.9v-1H-6.5z M-5.5,40.8l-0.7,0.7c-0.6-0.7-1.3-1.4-2.2-2.1l0.7-0.7C-6.8,39.4-6.1,40.1-5.5,40.8z M2.9,50.1
				c0,0.8-0.4,1.2-1.3,1.2H0.3l-0.2-0.9c0.5,0,0.9,0,1.3,0s0.6-0.2,0.6-0.7V40h-5.7v6.8c0,1.9-0.4,3.4-1.2,4.6l-0.7-0.7
				c0.7-1,1-2.3,1-3.9v-7.7h7.6V50.1z M-1.4,41.7v-1.1h1v1.1h1.6v0.8h-1.6v1.3h1.9v0.8h-4.7v-0.8h1.8v-1.3H-3v-0.8H-1.4z M1,45.7
				v3.6h-3.7v-3.6H1z M0.1,46.5h-2v1.9h2V46.5z"/>
			<path class="st6" d="M6.8,44.2c-0.1,3-0.6,5.4-1.5,7.1l-0.8-0.7c0.8-1.6,1.2-3.7,1.3-6.5v-4.6h5.4c-0.2-0.4-0.3-0.7-0.5-1
				l1.1-0.2c0.2,0.4,0.3,0.7,0.5,1.2h4.8v1H6.8v1.6h2.4v-1.1h1v1.1h3.7V41h1v1.1H17v0.9h-2.2v2.2H9.2v-2.2H6.8V44.2z M15.9,46.3V47
				c-0.8,1-1.7,1.8-2.9,2.5c1.3,0.5,2.7,0.9,4.4,1.1l-0.4,0.9C15,51.1,13.4,50.6,12,50c-1.4,0.7-3.1,1.2-4.9,1.5l-0.4-0.9
				c1.6-0.2,3.1-0.6,4.3-1.1c-1-0.6-1.9-1.4-2.5-2.3H7.7v-0.9H15.9z M12,49c1-0.5,1.8-1.1,2.6-1.8h-5C10.2,47.9,11,48.5,12,49z
				 M10.2,44.5h3.7v-1.3h-3.7V44.5z"/>
			<path class="st6" d="M23,48c-1,1.1-2.1,2.1-3.5,3l-0.6-0.8c1.4-0.8,2.5-1.8,3.4-2.8L23,48z M22.9,51.4l-0.2-1
				c0.5,0,1,0.1,1.4,0.1c0.3,0,0.5-0.2,0.5-0.5v-3.4c-1.3,0.1-2.8,0.2-4.4,0.2L20,45.8c0.3,0,0.6-0.1,0.9-0.2
				c1.1-0.5,2.4-1.3,3.9-2.4c-1.2,0.1-2.5,0.2-3.9,0.3l-0.2-0.9c0.3,0,0.5-0.1,0.7-0.2c0.7-0.3,1.5-1,2.5-2.1
				c-1.2,0.1-2.5,0.1-3.8,0.1l-0.3-0.9c4,0,7.4-0.3,10-0.9l0.5,0.9c-1.5,0.3-3.2,0.6-5.2,0.7c-0.9,1-1.8,1.8-2.6,2.4
				c1.1-0.1,2.3-0.1,3.4-0.2c0.6-0.5,1.3-1.1,1.9-1.7l0.9,0.5c-2.4,2.1-4.4,3.6-6.2,4.5c2.3-0.1,4.2-0.3,5.9-0.5
				c-0.4-0.4-0.7-0.9-1.1-1.4l0.8-0.5c1.1,1.3,2,2.5,2.6,3.5l-0.8,0.6c-0.3-0.5-0.6-1-0.9-1.4c-1,0.1-2,0.2-3.2,0.3v3.8
				c0,0.8-0.4,1.2-1.2,1.2H22.9z M31.1,50.4l-0.7,0.7c-0.9-1-2-2-3.5-3.2l0.7-0.6C29,48.3,30.2,49.3,31.1,50.4z"/>
			<path class="st6" d="M36.1,38.9c-0.7,1.8-1.4,3.2-2.1,4.3c0.6-0.1,1.2-0.2,1.8-0.3c0.3-0.5,0.5-1,0.8-1.5l0.9,0.4
				c-1.2,2.3-2.3,4-3.1,5c1-0.3,2-0.6,3-1v0.9c-1.5,0.6-2.9,1-4.2,1.2L32.8,47c0.2-0.1,0.3-0.2,0.5-0.3c0.5-0.6,1.2-1.5,2-2.8
				c-0.8,0.1-1.5,0.3-2.3,0.4l-0.3-0.9c0.2-0.1,0.3-0.2,0.4-0.4c0.8-1.3,1.4-2.7,2-4.4L36.1,38.9z M37.4,49.2
				c-1.3,0.6-2.7,1.2-4.4,1.6l-0.1-1c1.7-0.4,3.2-0.9,4.5-1.5V49.2z M39.9,45.3c-0.1,1.8-0.3,3.1-0.7,3.9c-0.4,0.9-1.1,1.6-2,2.2
				l-0.6-0.8c0.8-0.5,1.4-1.1,1.8-1.9c0.3-0.7,0.5-1.9,0.6-3.5H39.9z M37.6,43.8c0.1,0,0.1-0.1,0.2-0.1c0.5-0.4,1.1-1.2,1.8-2.7
				h-2.4v-1h3.6c-0.2-0.5-0.4-1-0.6-1.4l1-0.2c0.2,0.5,0.4,1,0.6,1.6H45v1h-4.3c-0.6,1.2-1.2,2.1-1.6,2.7c1.3-0.1,2.6-0.3,3.9-0.5
				c-0.3-0.4-0.6-0.9-1-1.4l0.8-0.5c1,1.2,1.7,2.3,2.2,3.2l-0.8,0.5c-0.2-0.4-0.4-0.7-0.6-1.1c-1.7,0.3-3.6,0.5-5.7,0.6L37.6,43.8z
				 M43,51.1c-0.8,0-1.3-0.4-1.3-1.2v-4.8h1v4.6c0,0.3,0.1,0.4,0.3,0.5h0.9c0.3,0,0.5-0.2,0.5-0.5c0.1-0.4,0.1-1,0.1-1.8l0.9,0.3
				c0,1.3-0.1,2.1-0.3,2.5c-0.2,0.3-0.6,0.4-1.2,0.5H43z"/>
		</g>
	</g>
</g>
<path class="st7" d="M279.2,75h390v227h-390V75"/>
<g transform="translate(10 10)">
	<g class="st3">
		<path class="st6" d="M283.3,77.6v2.8h2.9c0,4.4-0.1,7.1-0.2,8.1c-0.1,1.1-0.8,1.7-2.1,1.7c-0.2,0-0.6,0-1.1-0.1l-0.3-0.9
			c0.4,0,0.8,0.1,1.2,0.1c0.7,0,1.1-0.4,1.2-1.2c0.1-0.7,0.1-3,0.2-6.7h-1.9c-0.1,4.1-1,7.1-2.8,9l-0.7-0.7c1.6-1.8,2.5-4.6,2.5-8.4
			H280v-1h2.2v-2.8H283.3z M292,90.2h-1v-0.9h-2.6v0.9h-1V79.6h4.6V90.2z M291,88.3v-7.7h-2.6v7.7H291z"/>
		<path class="st6" d="M300.6,90.1c-0.9,0-1.6-0.1-2.2-0.3c-0.6-0.2-1.1-0.5-1.5-1c-0.2-0.2-0.4-0.3-0.5-0.3c-0.3,0-0.9,0.6-1.6,1.9
			l-0.8-0.7c0.7-1.2,1.4-1.9,1.9-2.1v-4.3h-2v-0.9h2.9v5.2c0.1,0.1,0.2,0.2,0.4,0.3c0.3,0.4,0.7,0.7,1.1,0.9
			c0.4,0.2,1.1,0.3,1.9,0.3c0.7,0,1.7,0,2.8,0c0.7,0,1.3,0,2,0c0.7,0,1.2,0,1.6-0.1l-0.3,1h-3.2C302.4,90.1,301.5,90.1,300.6,90.1z
			 M297.4,80l-0.7,0.7c-0.6-0.7-1.4-1.4-2.4-2.2l0.7-0.7C296,78.5,296.8,79.2,297.4,80z M301.8,78.7v-1.1h0.9v1.1h3.5v0.9h-3.5v1.2
			h3.1v3.6h-3.1v4.3h-0.9v-3.9c-0.7,1.2-1.8,2.3-3.3,3.2l-0.6-0.8c1.5-0.8,2.6-1.7,3.3-2.8h-2.4v-3.6h3.1v-1.2h-3.6v-0.9H301.8z
			 M301.8,81.7h-2.1v1.8h2.1V81.7z M304.8,81.7h-2.1v1.8h2.1V81.7z M306.3,87.2l-0.7,0.7c-0.6-0.8-1.4-1.6-2.5-2.5l0.7-0.6
			C304.8,85.6,305.6,86.4,306.3,87.2z"/>
		<path class="st6" d="M317.2,90.3l-0.3-1l1.3,0c0.4,0,0.6-0.2,0.6-0.6v-9.7h-9.2v11.3h-1V78.1h11.2V89c0,0.9-0.4,1.3-1.2,1.3H317.2
			z M312.5,85.2c-0.5,1.4-1.1,2.5-1.8,3.5l-0.6-0.8c0.7-1,1.3-2.3,1.8-3.7c-0.7-0.9-1.3-1.7-2-2.5l0.6-0.6c0.5,0.5,1.1,1.2,1.7,2
			c0.3-1,0.5-2,0.7-3.2l0.9,0.2c-0.2,1.4-0.5,2.8-0.9,4c0.5,0.7,1.1,1.5,1.7,2.4l-0.7,0.7C313.4,86.5,312.9,85.8,312.5,85.2z
			 M316.5,85.5c-0.6,1.4-1.2,2.5-2,3.5l-0.6-0.8c0.8-1.1,1.4-2.3,2-3.7c-0.6-1-1.3-1.8-1.9-2.6l0.6-0.6c0.5,0.6,1.1,1.3,1.7,2.1
			c0.3-1.1,0.5-2.2,0.7-3.4l1,0.2c-0.3,1.6-0.6,3-1,4.2c0.5,0.8,1.1,1.7,1.7,2.7l-0.7,0.7C317.4,87,317,86.3,316.5,85.5z"/>
		<path class="st6" d="M325.3,77.9c-0.7,1.8-1.4,3.2-2.1,4.3c0.6-0.1,1.2-0.2,1.8-0.3c0.2-0.5,0.5-1,0.7-1.5l0.9,0.3
			c-1.2,2.4-2.2,4-3,5.1c1-0.2,2-0.5,3-0.9v0.9c-1.4,0.5-2.8,0.9-4.1,1l-0.3-0.9c0.2-0.1,0.3-0.2,0.4-0.3c0.5-0.6,1.1-1.5,1.9-2.8
			c-0.8,0.1-1.5,0.3-2.3,0.4l-0.3-0.9c0.2-0.1,0.3-0.2,0.4-0.4c0.7-1.3,1.4-2.7,1.9-4.4L325.3,77.9z M326.9,88.6
			c-1.4,0.5-2.9,1-4.7,1.3l-0.1-1c1.8-0.3,3.4-0.7,4.8-1.2V88.6z M330.1,77.7c-0.1,0.4-0.3,0.8-0.4,1.1h3.8v0.7
			c-0.5,1.2-1.3,2.2-2.2,3.1c1,0.7,2.2,1.3,3.5,1.7l-0.6,0.8c-1.5-0.4-2.7-1.1-3.7-1.9c-1,0.8-2.2,1.4-3.6,1.9l-0.6-0.8
			c1.3-0.5,2.5-1.1,3.5-1.8c-0.5-0.5-1-1.1-1.4-1.7c-0.4,0.4-0.8,0.9-1.3,1.2l-0.6-0.8c1.2-1,2.1-2.3,2.5-3.8L330.1,77.7z
			 M333.5,90.3h-1v-0.6h-3.8v0.6h-1v-5.2h5.8V90.3z M332.5,88.8v-2.7h-3.8v2.7H332.5z M330.5,82c0.8-0.7,1.4-1.4,1.9-2.3h-3.2
			c-0.1,0.1-0.2,0.3-0.3,0.4C329.4,80.8,329.9,81.5,330.5,82z"/>
	</g>
</g>
<g id="Link24" transform="translate(0,0)">
	<path class="st8" d="M93.5,124.5v73l0,0v73"/>
	<g transform="translate(0, 0.5)">
		<polygon class="st9" points="89,265.5 93.5,271.5 98,265.5 		"/>
	</g>
	<path class="st10" d="M93.5,124.5v73"/>
	<path class="st10" d="M93.5,197.5L93.5,197.5"/>
	<path class="st10" d="M93.5,197.5v73"/>
</g>
<g id="Link26" transform="translate(0,0)">
	<path class="st8" d="M93.5,325.5v66"/>
	<g transform="translate(0, 0.5)">
		<polygon class="st9" points="89,386.5 93.5,392.5 98,386.5 		"/>
	</g>
	<path class="st10" d="M93.5,325.5"/>
	<path class="st10" d="M93.5,325.5v66"/>
</g>
<g id="Link25" transform="translate(0,0)">
	<path class="st8" d="M158.2,300.5h32l0,0h65"/>
	<g transform="translate(0.5, 0)">
		<polygon class="st9" points="250.2,305 256.2,300.5 250.2,296 		"/>
	</g>
	<path class="st10" d="M158.2,300.5h32"/>
	<path class="st10" d="M190.2,300.5L190.2,300.5"/>
	<path class="st10" d="M190.2,300.5h65"/>
</g>
<g id="Link23" transform="translate(0,0)">
	<path class="st8" d="M793.5,207.5v205"/>
	<g transform="translate(0, 0.5)">
		<polygon class="st9" points="789,407.5 793.5,413.5 798,407.5 		"/>
	</g>
	<path class="st10" d="M793.5,207.5v205"/>
</g>
<g id="Link28" transform="translate(0,0)">
	<path class="st8" d="M412.5,447.5h80.8l0,0h13"/>
	<g transform="translate(-0.5, 0)">
		<polygon class="st9" points="502.3,452 508.3,447.5 502.3,443 		"/>
	</g>
	<path class="st10" d="M493.3,447.5L493.3,447.5"/>
	<path class="st10" d="M493.3,447.5h13"/>
</g>
<g id="Link27" transform="translate(0,0)">
	<path class="st8" d="M429.3,384.5h16.8V513h-16.8"/>
</g>
<g id="Link21" transform="translate(0,0)">
	<path class="st8" d="M736.5,182.5h-37l0,0h-37"/>
	<g transform="translate(-0.5, 0)">
		<polygon class="st9" points="667.5,178 661.5,182.5 667.5,187 		"/>
	</g>
	<path class="st10" d="M736.5,182.5h-37"/>
	<path class="st10" d="M699.5,182.5L699.5,182.5"/>
	<path class="st10" d="M699.5,182.5h-37"/>
</g>
<g id="Link30" transform="translate(0,0)">
	<path class="st8" d="M490.2,151h-44l0,0h-24"/>
	<g transform="translate(-0.5, 0)">
		<polygon class="st9" points="427.2,146.5 421.2,151 427.2,155.5 		"/>
	</g>
	<path class="st10" d="M490.2,151h-44"/>
	<path class="st10" d="M446.2,151L446.2,151"/>
	<path class="st10" d="M446.2,151h-24"/>
</g>
<g id="RectEndPoint1" transform="translate(35,48)">
	<rect x="-26" y="29" class="st11" width="167" height="50"/>
	<rect x="-28" y="27" class="st12" width="167" height="50"/>
	<g transform="translate(20 9)">
		<g class="st3">
			<path class="st4" d="M1.6,37.9c-0.2-0.5-0.4-0.9-0.7-1.3L2,36.4c0.2,0.4,0.4,0.9,0.6,1.5h4.9v0.9H5.3c-0.2,0.8-0.5,1.5-0.9,2.2
				h3.7V42H-4.2v-0.9h3.6c-0.2-0.8-0.5-1.6-0.8-2.2h-2.2v-0.9H1.6z M6.4,49.4h-1v-0.6h-6.6v0.6h-1v-6.2h8.7V49.4z M5.4,45.5V44h-6.6
				v1.5H5.4z M5.4,47.9v-1.5h-6.6v1.5H5.4z M0.4,41.1h3c0.4-0.7,0.7-1.5,0.8-2.2h-4.6C0,39.5,0.2,40.3,0.4,41.1z"/>
			<path class="st4" d="M9.9,45.3l-0.3-1.1c1.9-1.6,3.1-3.2,3.8-4.7H9.9v-1h2.2c-0.2-0.6-0.5-1.2-0.8-1.8l1-0.3
				c0.3,0.7,0.6,1.4,0.8,1.9l-0.4,0.2h1.8v0.9c-0.4,1-0.9,2-1.7,3c0.8,0.5,1.5,1,2.1,1.6l-0.6,0.9c-0.5-0.6-1-1-1.5-1.4v5.9h-1v-5.8
				C11.1,44.1,10.5,44.7,9.9,45.3z M18.8,39.1v2.7c-0.1,2.1-0.4,3.8-1.1,5c-0.7,1.2-1.8,2.1-3.3,2.7l-0.5-0.9
				c1.5-0.6,2.5-1.5,3.1-2.5c0.5-1.1,0.8-2.5,0.9-4.3v-2.7H18.8z M21.4,44.9h-1v-6.8h-3.9v6.8h-1v-7.7h6V44.9z M19.7,49.2
				c-0.8,0-1.1-0.4-1.1-1.2v-3.1h1v2.9c0,0.3,0.2,0.5,0.5,0.5h0.9c0.2,0,0.4-0.1,0.4-0.2c0.1-0.2,0.2-0.7,0.2-1.6l0.9,0.3
				c-0.1,1.1-0.2,1.9-0.5,2.1c-0.2,0.2-0.5,0.3-1,0.3H19.7z"/>
			<path class="st4" d="M27.5,36.6v1.7h1.9v1h-1.9v1.6h2.1v1h-5.9v-1h0.8v-3.1h1v3.1h1.1v-4.2H27.5z M25.7,43.3
				c-0.3,1.3-0.8,2.3-1.3,3l-0.7-0.6c0.5-0.7,0.9-1.6,1.1-2.7L25.7,43.3z M29.7,43.1c-0.6,3.1-2.4,5.2-5.4,6.2l-0.6-0.9
				c2.8-0.9,4.5-2.7,5.1-5.4L29.7,43.1z M27.4,42.3V46h-1v-3.7H27.4z M33.5,41.4v2.5c0,1.5-0.4,2.7-0.9,3.6
				c-0.6,0.8-1.5,1.5-2.8,1.9l-0.6-0.9c1.2-0.4,2.1-1,2.6-1.7c0.5-0.8,0.7-1.7,0.7-2.9v-2.5H33.5z M36.3,37.1v1h-2.8
				c0,0.5-0.1,1-0.2,1.5h2.5v6.7h-1v-5.7h-3.6v5.7h-1v-6.7h2.1c0.1-0.5,0.1-1,0.2-1.5h-2.7v-1H36.3z M36.5,48.7l-0.7,0.7
				c-0.6-0.8-1.4-1.6-2.4-2.5l0.7-0.6C35,47.1,35.8,47.9,36.5,48.7z"/>
			<path class="st4" d="M40.7,42.3L40,43c-0.6-0.7-1.3-1.4-2.3-2.1l0.7-0.7C39.3,41,40.1,41.7,40.7,42.3z M40.9,44.4
				c-0.6,1.8-1.3,3.4-2.1,5l-0.9-0.4c0.8-1.6,1.6-3.2,2.2-4.9L40.9,44.4z M41.1,39l-0.7,0.7c-0.6-0.7-1.5-1.4-2.5-2.2l0.7-0.7
				C39.6,37.6,40.4,38.3,41.1,39z M45.7,39.3c0.2-0.4,0.3-0.9,0.4-1.3h-3.4v4.1c-0.1,3-0.6,5.5-1.6,7.3l-0.8-0.7
				c0.9-1.6,1.3-3.8,1.4-6.6v-5h8.4V38h-3.1c-0.1,0.5-0.2,0.9-0.4,1.3h2.7v4.9h-2.3v4c0,0.8-0.4,1.1-1.1,1.1h-1.2l-0.2-0.9
				c0.4,0,0.7,0.1,1.1,0.1c0.3,0,0.5-0.2,0.5-0.5v-3.7h-2.4v-4.9H45.7z M45,45.5c-0.4,1.2-0.9,2.3-1.5,3.2l-0.8-0.5
				c0.7-0.9,1.1-1.8,1.4-2.9L45,45.5z M48.5,41.4v-1.3h-3.9v1.3H48.5z M48.5,42.2h-3.9v1.3h3.9V42.2z M50.3,48.3l-0.9,0.4
				c-0.4-1.2-1-2.3-1.5-3.2l0.8-0.3C49.4,46.2,49.9,47.2,50.3,48.3z"/>
			<path class="st4" d="M57.7,38.9c-0.4-0.7-0.8-1.4-1.4-2.1l1-0.4c0.5,0.7,1,1.5,1.5,2.5h5.4v1h-2.2c-0.7,2.2-1.7,4.1-3.1,5.6
				c1.5,1.3,3.3,2.3,5.6,3.1l-0.5,0.8c-2.3-0.9-4.2-1.9-5.7-3.2c-1.6,1.5-3.6,2.5-6,3.2l-0.5-0.9c2.4-0.6,4.3-1.6,5.8-3
				c-1.6-1.6-2.7-3.5-3.4-5.6h-2.2v-1H57.7z M58.1,44.9c1.2-1.4,2.2-3,2.7-4.9H55C55.7,41.8,56.7,43.5,58.1,44.9z"/>
			<path class="st4" d="M69.6,36.9c-0.4,1.1-0.8,2.2-1.4,3.2v9.4h-1v-7.8c-0.4,0.6-0.9,1.2-1.5,1.8l-0.3-1.1
				c1.5-1.7,2.5-3.6,3.2-5.8L69.6,36.9z M72,37.5c-0.1,0.7-0.3,1.4-0.5,2h2.1v-2.9h1v2.9h3.2v1h-3.2v3.4h3.7v1h-3.7v4.5h-1v-4.5
				h-4.1v-1h4.1v-3.4h-2.4c-0.4,0.9-0.8,1.8-1.3,2.5l-0.6-0.8c0.9-1.3,1.4-2.9,1.7-4.7L72,37.5z"/>
		</g>
	</g>
</g>
<g id="RectEndPoint2" transform="translate(25.5,248.50000190734863)">
	<rect x="-18" y="29" class="st11" width="170" height="50"/>
	<rect x="-20" y="27" class="st12" width="170" height="50"/>
	<g transform="translate(20 9)">
		<g class="st3">
			<path class="st4" d="M4.6,37.9c-0.2-0.5-0.4-0.9-0.7-1.3L5,36.4c0.2,0.4,0.4,0.9,0.6,1.5h4.9v0.9H8.3c-0.2,0.8-0.5,1.5-0.9,2.2
				h3.7V42H-1.2v-0.9h3.6c-0.2-0.8-0.5-1.6-0.8-2.2h-2.2v-0.9H4.6z M9.4,49.4h-1v-0.6H1.7v0.6h-1v-6.2h8.7V49.4z M8.4,45.5V44H1.7
				v1.5H8.4z M8.4,47.9v-1.5H1.7v1.5H8.4z M3.4,41.1h3c0.4-0.7,0.7-1.5,0.8-2.2H2.7C3,39.5,3.2,40.3,3.4,41.1z"/>
			<path class="st4" d="M12.9,45.3l-0.3-1.1c1.9-1.6,3.1-3.2,3.8-4.7h-3.4v-1h2.2c-0.2-0.6-0.5-1.2-0.8-1.8l1-0.3
				c0.3,0.7,0.6,1.4,0.8,1.9l-0.4,0.2h1.8v0.9c-0.4,1-0.9,2-1.7,3c0.8,0.5,1.5,1,2.1,1.6l-0.6,0.9c-0.5-0.6-1-1-1.5-1.4v5.9h-1v-5.8
				C14.1,44.1,13.5,44.7,12.9,45.3z M21.8,39.1v2.7c-0.1,2.1-0.4,3.8-1.1,5c-0.7,1.2-1.8,2.1-3.3,2.7l-0.5-0.9
				c1.5-0.6,2.5-1.5,3.1-2.5c0.5-1.1,0.8-2.5,0.9-4.3v-2.7H21.8z M24.4,44.9h-1v-6.8h-3.9v6.8h-1v-7.7h6V44.9z M22.7,49.2
				c-0.8,0-1.1-0.4-1.1-1.2v-3.1h1v2.9c0,0.3,0.2,0.5,0.5,0.5h0.9c0.2,0,0.4-0.1,0.4-0.2c0.1-0.2,0.2-0.7,0.2-1.6l0.9,0.3
				c-0.1,1.1-0.2,1.9-0.5,2.1c-0.2,0.2-0.5,0.3-1,0.3H22.7z"/>
			<path class="st4" d="M30.5,36.6v1.7h1.9v1h-1.9v1.6h2.1v1h-5.9v-1h0.8v-3.1h1v3.1h1.1v-4.2H30.5z M28.7,43.3
				c-0.3,1.3-0.8,2.3-1.3,3l-0.7-0.6c0.5-0.7,0.9-1.6,1.1-2.7L28.7,43.3z M32.7,43.1c-0.6,3.1-2.4,5.2-5.4,6.2l-0.6-0.9
				c2.8-0.9,4.5-2.7,5.1-5.4L32.7,43.1z M30.4,42.3V46h-1v-3.7H30.4z M36.5,41.4v2.5c0,1.5-0.4,2.7-0.9,3.6
				c-0.6,0.8-1.5,1.5-2.8,1.9l-0.6-0.9c1.2-0.4,2.1-1,2.6-1.7c0.5-0.8,0.7-1.7,0.7-2.9v-2.5H36.5z M39.3,37.1v1h-2.8
				c0,0.5-0.1,1-0.2,1.5h2.5v6.7h-1v-5.7h-3.6v5.7h-1v-6.7h2.1c0.1-0.5,0.1-1,0.2-1.5h-2.7v-1H39.3z M39.5,48.7l-0.7,0.7
				c-0.6-0.8-1.4-1.6-2.4-2.5l0.7-0.6C38,47.1,38.8,47.9,39.5,48.7z"/>
			<path class="st4" d="M44.9,38c0.2-0.5,0.4-1,0.5-1.5l1,0.1c-0.1,0.5-0.3,0.9-0.4,1.4h7.2v1h-7.6c-0.5,1.2-1.2,2.3-1.9,3.3v7.1h-1
				v-5.9c-0.5,0.5-1,1-1.5,1.5l-0.6-0.8c1.7-1.5,3-3.2,3.9-5.2h-3.4v-1H44.9z M48.8,44.5v-1.3c0.8-0.4,1.6-1,2.3-1.6h-5.3v-0.9h6.6
				v0.9c-0.8,0.7-1.6,1.4-2.6,2v0.9h3.5v1h-3.5v2.6c0,0.8-0.4,1.2-1.2,1.2h-1.8l-0.3-1c0.5,0,1,0,1.6,0c0.4,0,0.6-0.2,0.6-0.6v-2.3
				h-4.1v-1H48.8z"/>
			<path class="st4" d="M54.8,43.2l-0.3-1.1c1.1-1.6,1.9-3.4,2.4-5.5l0.9,0.4c-0.3,1-0.6,1.9-0.9,2.7v9.7h-1v-7.8
				C55.6,42.1,55.2,42.6,54.8,43.2z M60,40.9v5.9c0.4-0.4,0.7-0.8,1.1-1.3l0.2,1c-0.7,0.9-1.5,1.7-2.2,2.4L58.7,48
				c0.2-0.2,0.3-0.4,0.3-0.5v-5.6h-1.6v-0.9H60z M60.8,39.2l-0.7,0.7c-0.5-0.7-1.2-1.4-2-2.2l0.7-0.7C59.6,37.8,60.2,38.5,60.8,39.2
				z M63.2,38.2v-1.6h0.9v1.6h1.6V39c0.3-0.6,0.5-1.1,0.8-1.7l0.8,0.4c-0.5,1.2-1,2.2-1.7,3.2h1.6v0.9H65c-0.4,0.5-0.8,0.9-1.2,1.3
				h2.9v6.2h-1v-0.6H63v0.6h-0.9v-5c-0.3,0.2-0.7,0.4-1,0.5l-0.5-0.8c1.2-0.5,2.3-1.3,3.2-2.3h-2.5v-0.9h2v-1.8h-1.7v-0.9H63.2z
				 M65.7,44H63v1.5h2.6V44z M63,47.9h2.6v-1.5H63V47.9z M65.7,39.1h-1.6v1.8h0.4C64.9,40.3,65.3,39.7,65.7,39.1z"/>
			<path class="st4" d="M69.6,40l-0.9-0.6c0.8-0.9,1.5-1.8,1.8-2.9l1,0.2c-0.1,0.3-0.2,0.6-0.4,0.9H75v0.9h-2.4
				c0.3,0.4,0.6,0.8,0.8,1.2L72.5,40c-0.3-0.5-0.6-1.1-0.9-1.6h-0.8C70.4,39,70,39.5,69.6,40z M80.9,42.9h-1v-1.7H70v1.7h-1v-2.5
				h5.5c-0.1-0.3-0.3-0.6-0.4-0.9l1-0.2l-0.1-0.1c0.7-0.8,1.1-1.8,1.5-2.8l1,0.2c-0.1,0.3-0.2,0.6-0.3,0.9h4v0.9h-2.5
				c0.3,0.4,0.5,0.8,0.7,1.1l-0.9,0.3c-0.3-0.5-0.5-1-0.9-1.4h-0.9c-0.3,0.5-0.5,0.9-0.9,1.3l-0.8-0.5c0.2,0.3,0.3,0.7,0.4,1.1h5.3
				V42.9z M79,44.8h-7v1h7.6v3.6h-1v-0.6H72v0.6h-1v-7.3h8V44.8z M78,44v-1.1h-6V44H78z M78.7,47.9v-1.3H72v1.3H78.7z"/>
			<path class="st4" d="M84.4,41.8v-3.3h-1.7v-1h4.5v1h-1.7v3.3H87v1h-1.5v3.2c0.5-0.2,1-0.4,1.5-0.6v1c-1.3,0.5-2.7,1-4.2,1.3
				l-0.3-1c0.6-0.1,1.2-0.3,1.8-0.4v-3.5h-1.5v-1H84.4z M94.7,37.1v6.5h-2.9v1.7h3.2v1h-3.2V48h3.7v1H87v-1h3.8v-1.8h-3.2v-1h3.2
				v-1.7h-2.9v-6.5H94.7z M90.8,39.9V38h-2v1.9H90.8z M90.8,40.8h-2v1.9h2V40.8z M91.8,39.9h1.9V38h-1.9V39.9z M93.7,40.8h-1.9v1.9
				h1.9V40.8z"/>
		</g>
	</g>
</g>
<g id="ShadowBasicRect3" transform="translate(40.481964111328125,409)">
	<rect x="-19" y="30" class="st11" width="139" height="50"/>
	<rect x="-21" y="28" class="st12" width="139" height="50"/>
	<g transform="translate(20 9)">
		<g class="st3">
			<path class="st4" d="M-14,38.9c-0.2-0.5-0.4-0.9-0.7-1.3l1.1-0.2c0.2,0.4,0.4,0.9,0.6,1.5H-8v0.9h-2.2c-0.2,0.8-0.5,1.5-0.9,2.2
				h3.7V43h-12.4v-0.9h3.6c-0.2-0.8-0.5-1.6-0.8-2.2H-19v-0.9H-14z M-9.1,50.4h-1v-0.6h-6.6v0.6h-1v-6.2h8.7V50.4z M-10.2,46.5V45
				h-6.6v1.5H-10.2z M-10.2,48.9v-1.5h-6.6v1.5H-10.2z M-15.1,42.1h3c0.4-0.7,0.7-1.5,0.8-2.2h-4.6C-15.5,40.5-15.3,41.3-15.1,42.1z
				"/>
			<path class="st4" d="M-5.6,46.3l-0.3-1.1c1.9-1.6,3.1-3.2,3.8-4.7h-3.4v-1h2.2c-0.2-0.6-0.5-1.2-0.8-1.8l1-0.3
				c0.3,0.7,0.6,1.4,0.8,1.9l-0.4,0.2h1.8v0.9c-0.4,1-0.9,2-1.7,3c0.8,0.5,1.5,1,2.1,1.6l-0.6,0.9c-0.5-0.6-1-1-1.5-1.4v5.9h-1v-5.8
				C-4.4,45.1-5,45.7-5.6,46.3z M3.3,40.1v2.7c-0.1,2.1-0.4,3.8-1.1,5c-0.7,1.2-1.8,2.1-3.3,2.7l-0.5-0.9c1.5-0.6,2.5-1.5,3.1-2.5
				C2,46,2.3,44.5,2.3,42.8v-2.7H3.3z M5.8,45.9h-1v-6.8H0.9v6.8h-1v-7.7h6V45.9z M4.2,50.2C3.4,50.2,3,49.8,3,49v-3.1h1v2.9
				c0,0.3,0.2,0.5,0.5,0.5h0.9c0.2,0,0.4-0.1,0.4-0.2C5.9,48.8,6,48.3,6,47.4L7,47.7c-0.1,1.1-0.2,1.9-0.5,2.1
				c-0.2,0.2-0.5,0.3-1,0.3H4.2z"/>
			<path class="st4" d="M11.9,37.6v1.7h1.9v1h-1.9v1.6H14v1H8.1v-1h0.8v-3.1h1v3.1H11v-4.2H11.9z M10.1,44.3c-0.3,1.3-0.8,2.3-1.3,3
				l-0.7-0.6C8.6,46,9,45.1,9.3,44L10.1,44.3z M14.1,44.1c-0.6,3.1-2.4,5.2-5.4,6.2l-0.6-0.9c2.8-0.9,4.5-2.7,5.1-5.4L14.1,44.1z
				 M11.9,43.3V47h-1v-3.7H11.9z M18,42.4v2.5c0,1.5-0.4,2.7-0.9,3.6c-0.6,0.8-1.5,1.5-2.8,1.9l-0.6-0.9c1.2-0.4,2.1-1,2.6-1.7
				c0.5-0.8,0.7-1.7,0.7-2.9v-2.5H18z M20.8,38.1v1H18c0,0.5-0.1,1-0.2,1.5h2.5v6.7h-1v-5.7h-3.6v5.7h-1v-6.7h2.1
				c0.1-0.5,0.1-1,0.2-1.5h-2.7v-1H20.8z M21,49.7l-0.7,0.7c-0.6-0.8-1.4-1.6-2.4-2.5l0.7-0.6C19.5,48.1,20.3,48.9,21,49.7z"/>
			<path class="st4" d="M25.8,41.4v2.1h1.6v0.9h-1.6v1.9c0.7-0.1,1.3-0.3,1.9-0.4v1c-0.6,0.2-1.3,0.3-1.9,0.5v3h-1v-2.8
				c-0.9,0.2-1.8,0.3-2.7,0.4L22,47c1-0.1,1.9-0.3,2.8-0.4v-2.1h-2.4l-0.2-0.9c0.4-0.8,0.8-1.9,1.1-3.2H22v-1h1.7
				c0.1-0.6,0.3-1.2,0.4-1.9l1,0.1c-0.1,0.6-0.3,1.2-0.4,1.7h2.7v1h-2.9c-0.3,1.2-0.7,2.3-1.1,3.2h1.5v-2.1H25.8z M30.2,39.4
				c0.1-0.6,0.2-1.2,0.3-1.9l1,0.1c-0.1,0.6-0.2,1.2-0.3,1.8h3.4v1H31L30.6,42h4.3v1h-4.6c-0.2,0.6-0.4,1.2-0.5,1.8h4.5v0.8
				c-0.5,1-1.2,1.9-2.2,2.9c0.6,0.3,1.1,0.7,1.6,1.1l-0.6,0.9c-1.5-1.1-3-2-4.5-2.7l0.5-0.8c0.7,0.3,1.4,0.7,2.1,1
				c0.8-0.7,1.5-1.5,2-2.3h-4.7c0.3-0.9,0.5-1.8,0.8-2.7h-1.8v-1h2c0.1-0.5,0.3-1.1,0.4-1.6h-2v-1H30.2z"/>
			<path class="st4" d="M40.8,49.7h-0.9v-0.8h-1.5v1.1h-0.9v-5.7c-0.3,0.5-0.6,1-0.9,1.5L36,44.9c1.1-1.6,1.8-3.5,2.1-5.6h-1.7v-1
				h4.8v1H39c-0.2,1.1-0.5,2.2-0.8,3.2h2.6V49.7z M39.9,48v-4.6h-1.5V48H39.9z M46.6,46.4v1h-5.1v-1H46.6z M43.7,40.1L43,43.7h3
				l0.7-4.6h-4.9v-1h6L47,43.7h1.5c0,3.4-0.2,5.3-0.6,5.9c-0.4,0.5-1.2,0.8-2.4,0.8c-0.4,0-0.8,0-1.3,0l-0.3-1
				c0.6,0.1,1.1,0.1,1.3,0.1c1.1,0,1.7-0.2,1.9-0.7c0.2-0.5,0.3-1.8,0.3-4.1h-5.7l0.8-4.5L43.7,40.1z"/>
			<path class="st4" d="M53.9,37.7c-0.1,0.7-0.3,1.4-0.4,2h3.1v0.9c-0.4,2.5-1.1,4.5-2.2,6.2c0.3,0.5,0.7,0.9,1.1,1.2
				c1.1,0.8,2.8,1.2,5.2,1.2c0.7,0,1.5,0,2.2-0.1l-0.2,1.1h-1.5c-2.9,0-5-0.5-6.3-1.4c-0.4-0.3-0.7-0.7-1.1-1.1
				c-0.9,1.1-1.9,2-3.1,2.7l-0.5-1c1.2-0.7,2.2-1.6,3-2.7c-0.5-0.9-0.9-2-1.2-3.2c-0.4,0.7-0.8,1.2-1.2,1.8l-0.7-0.9
				c1.3-1.7,2.2-3.9,2.7-6.7L53.9,37.7z M53.8,45.7c0.8-1.4,1.4-3.1,1.8-5h-2.4c-0.2,0.5-0.4,1-0.5,1.5C53,43.6,53.4,44.8,53.8,45.7
				z M59.5,37.6v3.6C60.6,42,61.8,43,63,44l-0.6,0.9c-1.1-1.1-2.1-2.1-2.9-2.7v5.8h-1V37.6H59.5z"/>
			<path class="st4" d="M65.9,42.8v-3.3h-1.7v-1h4.5v1h-1.7v3.3h1.5v1h-1.5v3.2c0.5-0.2,1-0.4,1.5-0.6v1c-1.3,0.5-2.7,1-4.2,1.3
				l-0.3-1c0.6-0.1,1.2-0.3,1.8-0.4v-3.5h-1.5v-1H65.9z M76.2,38.1v6.5h-2.9v1.7h3.2v1h-3.2V49h3.7v1h-8.4v-1h3.8v-1.8h-3.2v-1h3.2
				v-1.7h-2.9v-6.5H76.2z M72.2,40.9V39h-2v1.9H72.2z M72.2,41.8h-2v1.9h2V41.8z M73.2,40.9h1.9V39h-1.9V40.9z M75.2,41.8h-1.9v1.9
				h1.9V41.8z"/>
		</g>
	</g>
</g>
<g id="ShadowBasicRect4" transform="translate(40,474)">
	<rect x="-19" y="30" class="st11" width="140" height="51"/>
	<rect x="-21" y="28" class="st12" width="140" height="51"/>
	<g transform="translate(20 9)">
		<g class="st3">
			<path class="st4" d="M6.9,46.3l-0.3-1.1c1.9-1.6,3.1-3.2,3.8-4.7H6.9v-1h2.2c-0.2-0.6-0.5-1.2-0.8-1.8l1-0.3
				c0.3,0.7,0.6,1.4,0.8,1.9l-0.4,0.2h1.8v0.9c-0.4,1-0.9,2-1.7,3c0.8,0.5,1.5,1,2.1,1.6l-0.6,0.9c-0.5-0.6-1-1-1.5-1.4v5.9h-1v-5.8
				C8.1,45.1,7.5,45.7,6.9,46.3z M15.8,40.1v2.7c-0.1,2.1-0.4,3.8-1.1,5c-0.7,1.2-1.8,2.1-3.3,2.7l-0.5-0.9c1.5-0.6,2.5-1.5,3.1-2.5
				c0.5-1.1,0.8-2.5,0.9-4.3v-2.7H15.8z M18.4,45.9h-1v-6.8h-3.9v6.8h-1v-7.7h6V45.9z M16.7,50.2c-0.8,0-1.1-0.4-1.1-1.2v-3.1h1v2.9
				c0,0.3,0.2,0.5,0.5,0.5h0.9c0.2,0,0.4-0.1,0.4-0.2c0.1-0.2,0.2-0.7,0.2-1.6l0.9,0.3c-0.1,1.1-0.2,1.9-0.5,2.1
				c-0.2,0.2-0.5,0.3-1,0.3H16.7z"/>
			<path class="st4" d="M24.5,37.6v1.7h1.9v1h-1.9v1.6h2.1v1h-5.9v-1h0.8v-3.1h1v3.1h1.1v-4.2H24.5z M22.7,44.3
				c-0.3,1.3-0.8,2.3-1.3,3l-0.7-0.6c0.5-0.7,0.9-1.6,1.1-2.7L22.7,44.3z M26.7,44.1c-0.6,3.1-2.4,5.2-5.4,6.2l-0.6-0.9
				c2.8-0.9,4.5-2.7,5.1-5.4L26.7,44.1z M24.4,43.3V47h-1v-3.7H24.4z M30.5,42.4v2.5c0,1.5-0.4,2.7-0.9,3.6
				c-0.6,0.8-1.5,1.5-2.8,1.9l-0.6-0.9c1.2-0.4,2.1-1,2.6-1.7c0.5-0.8,0.7-1.7,0.7-2.9v-2.5H30.5z M33.3,38.1v1h-2.8
				c0,0.5-0.1,1-0.2,1.5h2.5v6.7h-1v-5.7h-3.6v5.7h-1v-6.7h2.1c0.1-0.5,0.1-1,0.2-1.5h-2.7v-1H33.3z M33.5,49.7l-0.7,0.7
				c-0.6-0.8-1.4-1.6-2.4-2.5l0.7-0.6C32,48.1,32.8,48.9,33.5,49.7z"/>
			<path class="st4" d="M39.3,39l3.9,10H42l-1.1-2.8h-4.6L35.2,49H34l3.9-10H39.3z M40.5,45.2l-1.9-5h-0.1l-1.9,5H40.5z"/>
			<path class="st4" d="M45.4,39v10h-1.1V39H45.4z"/>
		</g>
	</g>
</g>
<g id="RectEndPoint12" transform="translate(712,131)">
	<rect x="26" y="29" class="st11" width="110" height="50"/>
	<rect x="24" y="27" class="st12" width="110" height="50"/>
	<g transform="translate(20 9)">
		<g class="st3">
			<path class="st4" d="M49.7,49.3l-0.8-0.7c0.9-1.2,1.4-2.8,1.4-4.7v-6.7h10.4v10.5c0,1-0.5,1.5-1.5,1.5h-1.6l-0.3-1
				c0.6,0,1.1,0.1,1.6,0.1c0.5,0,0.8-0.3,0.8-0.9v-2.4h-3.8v4.1h-1v-4.1h-3.6C51.1,46.6,50.6,48.1,49.7,49.3z M51.3,38.1v2.4h3.6
				v-2.4H51.3z M51.3,43.9h3.6v-2.5h-3.6V43.9z M59.7,38.1h-3.8v2.4h3.8V38.1z M59.7,41.4h-3.8v2.5h3.8V41.4z"/>
			<path class="st4" d="M63.5,49.5l-0.7-0.7c1.1-1.6,1.7-3.6,1.7-6.1v-4.4h4.6c-0.3-0.6-0.5-1.1-0.8-1.6l1.1-0.2
				c0.3,0.5,0.5,1.1,0.8,1.8h4.4V43h-9C65.5,45.5,64.8,47.6,63.5,49.5z M65.5,39.3V42h8v-2.7H65.5z"/>
		</g>
	</g>
</g>
<g id="RectEndPoint17" transform="translate(493,310)">
	<rect x="-187.3" y="52" class="st11" width="124" height="50"/>
	<rect x="-189.3" y="50" class="st12" width="124" height="50"/>
	<g transform="translate(20 9)">
		<g class="st3">
			<path class="st4" d="M-187.7,72.4l-0.6-0.9c2.6-0.7,4.4-1.6,5.5-2.7c0.2-0.2,0.3-0.4,0.4-0.6h-5.8v-1h6.3c0.4-0.9,0.6-1.9,0.6-3
				v-1.7h1v1.7c0,1.1-0.2,2.1-0.5,3h4.5v1h-4.9c-0.1,0.2-0.3,0.4-0.4,0.6c2,0.8,3.8,1.7,5.5,2.8l-0.5,0.9c-1.8-1.2-3.6-2.2-5.5-2.9
				C-183.3,70.8-185.2,71.7-187.7,72.4z M-176.6,63.6h-1v-1.8h-9.4v1.8h-1v-2.7h5.3c-0.2-0.5-0.4-0.9-0.6-1.3l1-0.2
				c0.2,0.4,0.4,0.9,0.5,1.5h5.1V63.6z M-183.5,66.1l-0.5,0.8c-0.9-0.7-1.8-1.2-2.8-1.6l0.5-0.8C-185.3,65-184.3,65.5-183.5,66.1z
				 M-182.2,64.2l-0.5,0.8c-0.9-0.7-1.9-1.2-2.9-1.6l0.5-0.8C-184,63-183,63.5-182.2,64.2z"/>
			<path class="st4" d="M-170.1,70.9h-1V70h-2.1v1.3h-1V60.6h4V70.9z M-171.1,64.7v-3.2h-2.1v3.2H-171.1z M-171.1,69.1v-3.4h-2.1
				v3.4H-171.1z M-167.3,72.3l-0.2-1c0.8,0,1.6,0.1,2.3,0.1c0.4,0,0.6-0.2,0.6-0.7v-7.6h-4.8v-1h4.8v-2.5h1v2.5h1.7v1h-1.7v7.8
				c0,0.9-0.4,1.3-1.3,1.3H-167.3z M-166.1,68.2l-0.8,0.6c-0.5-1-1.1-2.2-2-3.5l0.8-0.5C-167.2,66.1-166.5,67.2-166.1,68.2z"/>
			<path class="st4" d="M-158.2,59.8c-0.1,0.5-0.2,0.9-0.3,1.4h2.1v1h-2.4c-0.3,1-0.7,1.8-1.1,2.6l-0.8-0.5c0.7-1.4,1.2-3,1.5-4.7
				L-158.2,59.8z M-156.7,64v0.9h-1.1v1.8h1.5v0.9h-1.5v3.3c0.4-0.2,0.8-0.5,1.2-0.8l0.2,0.9c-0.7,0.5-1.4,0.9-2.3,1.2l-0.4-0.8
				c0.2-0.1,0.3-0.3,0.3-0.4v-3.2h-1.6v-0.9h1.6v-1.8h-0.7V64H-156.7z M-147.8,71.2l-0.3,1h-1.9c-0.4,0-0.9,0-1.3,0
				c-0.6,0-1.2-0.1-1.7-0.3c-0.5-0.2-0.9-0.5-1.2-0.9c-0.2-0.2-0.3-0.3-0.5-0.3c-0.2,0-0.7,0.5-1.3,1.7l-0.6-0.8
				c0.6-0.9,1.1-1.5,1.5-1.7v-4.7h-1.1v-0.9h2.1v5.7c0.1,0.1,0.1,0.1,0.2,0.2c0.3,0.4,0.6,0.6,1.1,0.9c0.4,0.2,0.9,0.3,1.4,0.3
				c0.5,0,1.1,0,1.6,0C-149.2,71.2-148.5,71.2-147.8,71.2z M-154,62.1l-0.8,0.5c-0.4-0.7-0.9-1.5-1.5-2.3l0.7-0.5
				C-154.8,60.7-154.3,61.4-154,62.1z M-150.9,67.5v-1.7h-2.3l-0.2-0.8c0.5-0.8,0.9-1.7,1.3-2.9h-1.4v-0.9h1.7
				c0.1-0.5,0.3-1,0.4-1.6l0.9,0.2c-0.1,0.5-0.2,0.9-0.4,1.4h2.7V62h-3c-0.4,1.1-0.8,2-1.2,2.8h1.4V63h0.9v1.9h1.6v0.9h-1.6v1.7h2
				v0.9h-2v2.3h-0.9v-2.3h-2.6v-0.9H-150.9z"/>
			<path class="st4" d="M-141.7,60.1v4.4h-1.4v2.3h1.5v1h-1.5v2.6c0.6-0.2,1.2-0.4,1.8-0.6v1c-1.5,0.5-3.2,1.1-5.1,1.5l-0.3-1
				l0.7-0.2V66h0.9v4.9c0.4-0.1,0.7-0.2,1-0.3v-6.1h-2v-4.4H-141.7z M-142.6,61h-2.4v2.5h2.4V61z M-138.1,59.7
				c-0.1,0.4-0.2,0.7-0.4,1h3.5v0.7c-0.5,1.2-1.2,2.2-2.1,3.1c0.9,0.8,2,1.3,3.3,1.8l-0.6,0.8c-1.4-0.4-2.5-1.1-3.5-1.9
				c-1,0.8-2.1,1.4-3.4,2l-0.6-0.8c1.3-0.5,2.4-1.1,3.3-1.9c-0.5-0.5-0.9-1.1-1.3-1.8c-0.4,0.4-0.8,0.8-1.2,1.2l-0.6-0.8
				c1.2-1,2.1-2.2,2.5-3.6L-138.1,59.7z M-135,72.4h-1v-0.6h-3.5v0.6h-1v-5.2h5.5V72.4z M-136,70.8v-2.7h-3.5v2.7H-136z
				 M-137.7,63.9c0.7-0.7,1.3-1.5,1.7-2.3h-2.9c-0.1,0.1-0.2,0.2-0.2,0.4C-138.8,62.7-138.3,63.4-137.7,63.9z"/>
			<path class="st4" d="M-121.4,71h1.5v0.9h-12.7V71h1.6v-3.9h9.6V71z M-130.7,60.2v5.7h-1v-5.7H-130.7z M-128.2,71v-3h-1.9v3
				H-128.2z M-127.7,59.5v6.9h-1v-6.9H-127.7z M-125.3,71v-3h-2v3H-125.3z M-126.5,65l-0.6-0.8c1-1.2,1.7-2.8,2-4.8l1,0.2
				c-0.1,0.6-0.2,1.1-0.4,1.6h4.2v1h-4.5C-125.2,63.3-125.8,64.3-126.5,65z M-122.4,71v-3h-1.9v3H-122.4z M-121.6,65.6l-0.8,0.6
				c-0.4-0.8-1-1.6-1.7-2.6l0.8-0.5C-122.6,64.1-122,64.9-121.6,65.6z"/>
			<path class="st4" d="M-118.2,72.3l-0.2-1c0.4,0,0.7,0.1,1.1,0.1c0.4,0,0.5-0.2,0.5-0.5v-3.4c-0.6,0.2-1.1,0.4-1.7,0.6l-0.3-1
				c0.7-0.2,1.3-0.4,1.9-0.6v-3.1h-1.7v-1h1.7v-2.7h1v2.7h1.2v1h-1.2v2.7c0.4-0.2,0.8-0.4,1.2-0.6v1c-0.4,0.2-0.8,0.4-1.2,0.6v4.1
				c0,0.8-0.4,1.2-1.2,1.2H-118.2z M-113.9,67.9V67h7.5v0.9h-3.2V71h3.7v1h-8.6v-1h3.8v-3.1H-113.9z M-109.5,61.1h3.3v2.6h-0.9V62
				h-5.9v1.7h-1v-2.6h3.5c-0.2-0.6-0.5-1.1-0.7-1.5l1-0.2C-110,59.9-109.7,60.5-109.5,61.1z M-110.6,63.2c-0.6,1.4-1.5,2.5-2.5,3.2
				l-0.7-0.6c1.1-0.7,1.8-1.7,2.4-2.9L-110.6,63.2z M-106.5,65.8l-0.9,0.4c-0.7-1.1-1.4-2.2-2.3-3.1l0.9-0.4
				C-107.9,63.7-107.2,64.8-106.5,65.8z"/>
		</g>
	</g>
</g>
<g id="RectEndPoint18" transform="translate(493,373)">
	<rect x="-187.3" y="52" class="st11" width="124" height="50"/>
	<rect x="-189.3" y="50" class="st12" width="124" height="50"/>
	<g transform="translate(20 9)">
		<g class="st3">
			<path class="st4" d="M-185.1,59.5v0.9h2.2v0.8h-2.2v1h1.9v0.8h-1.9v1h2.4v0.9h-5.9V64h2.5v-1h-2v-0.8h2v-1h-2.3v-0.8h2.3v-0.9
				H-185.1z M-186.9,72.4h-1v-6.7h4.7v5.6c0,0.7-0.3,1-1,1h-0.9l-0.2-0.9l0.8,0c0.2,0,0.4-0.1,0.4-0.3v-1h-2.8V72.4z M-184.1,66.5
				h-2.8v1h2.8V66.5z M-186.9,69.3h2.8v-1h-2.8V69.3z M-179.4,59.7c-0.1,0.3-0.3,0.5-0.4,0.7h2.8v0.7c-0.4,0.7-0.9,1.3-1.3,1.8h1.7
				v2.5h0.7v0.9h-0.7v2.6h-2.5v2.2c0,0.8-0.4,1.2-1.2,1.2h-1.4l-0.2-1c0.4,0,0.8,0.1,1.2,0.1c0.4,0,0.5-0.2,0.5-0.5v-2h-2.1v-1h2.1
				v-1.6h-2.5v-0.9h2.5v-1.6h-2v-0.9c-0.1,0.1-0.1,0.1-0.2,0.2l-0.6-0.7c1-0.7,1.9-1.7,2.5-2.9L-179.4,59.7z M-179.5,62.8
				c0.4-0.5,0.9-1,1.3-1.6h-2.2c-0.5,0.6-1,1.1-1.6,1.6H-179.5z M-179.1,65.4h1.6v-1.6h-1.6V65.4z M-179.1,67.9h1.6v-1.6h-1.6V67.9z
				"/>
			<path class="st4" d="M-167.8,59.5c-0.1,0.5-0.2,1-0.3,1.5h5.4v1h-4.5c0.7,1.6,2.4,2.8,5.2,3.6l-0.5,0.9c-3.1-1.1-5-2.6-5.7-4.5
				h-0.2c-0.3,0.8-0.7,1.5-1.2,2.1c-0.1,0.1-0.1,0.1-0.1,0.2c0.6,0.4,1.3,1,2,1.7l-0.7,0.7c-0.7-0.7-1.3-1.3-2-1.8
				c-0.9,0.7-2.2,1.2-3.9,1.7l-0.4-0.9c2-0.5,3.4-1.2,4.3-2.2c0.4-0.4,0.7-0.9,1-1.5h-4.6v-1h4.9c0.2-0.5,0.3-1,0.3-1.6L-167.8,59.5
				z M-172.3,67.9c-0.3,1.5-0.8,2.7-1.4,3.8l-0.9-0.5c0.6-1,1-2.2,1.3-3.4L-172.3,67.9z M-169.9,72.1c-0.9,0-1.3-0.5-1.3-1.4v-3h1
				v2.8c0,0.4,0.2,0.6,0.6,0.6h3.1c0.3,0,0.5-0.1,0.6-0.3c0.2-0.2,0.3-0.8,0.3-1.7l1,0.3c-0.1,1.3-0.3,2-0.6,2.3
				c-0.3,0.2-0.6,0.4-1.2,0.4H-169.9z M-166.7,69.6l-0.9,0.4c-0.4-0.9-0.8-1.8-1.2-2.5l0.9-0.3C-167.5,67.9-167,68.7-166.7,69.6z
				 M-162,70.9l-0.9,0.4c-0.5-1.3-1.1-2.5-1.8-3.5l1-0.3C-163.1,68.5-162.5,69.7-162,70.9z"/>
			<path class="st4" d="M-153.8,62.7c0.8,3.8,2.8,6.7,6.1,8.7l-0.7,0.9c-2.9-1.9-4.8-4.4-5.8-7.6c-0.8,3.1-2.8,5.6-5.9,7.6l-0.6-0.9
				c3.9-2.4,5.8-5.6,6-9.6c0-1,0-1.7,0-2.2h1C-153.8,60.8-153.8,61.8-153.8,62.7z"/>
			<path class="st4" d="M-145.6,61.6v-1h10.7v1h-4.8v8.9h5.7v1h-12.5v-1h5.7v-8.9H-145.6z"/>
			<path class="st4" d="M-125.8,72.1c-0.9,0-1.6-0.1-2.2-0.3c-0.5-0.2-1-0.5-1.5-1c-0.2-0.2-0.4-0.3-0.5-0.3c-0.3,0-0.9,0.6-1.7,1.9
				l-0.8-0.7c0.8-1.2,1.4-1.9,2-2.1v-4.3h-2v-0.9h2.9v5.3c0.1,0.1,0.2,0.2,0.3,0.3c0.3,0.4,0.7,0.7,1.1,0.9c0.4,0.2,1.1,0.3,1.9,0.3
				c0.7,0,1.6,0,2.7,0c0.7,0,1.4,0,2.1,0c0.7,0,1.2,0,1.6-0.1l-0.3,1h-3.2C-124.1,72.1-124.9,72.1-125.8,72.1z M-129.1,61.9
				l-0.7,0.7c-0.6-0.7-1.4-1.4-2.4-2.3l0.7-0.7C-130.6,60.4-129.8,61.2-129.1,61.9z M-120.1,63.5v1h-4.4c-0.8,2-1.5,3.4-2.1,4.2
				c1.8-0.2,3.3-0.4,4.5-0.7c-0.3-0.8-0.7-1.5-1.1-2.3l0.8-0.3c0.8,1.3,1.4,2.8,2,4.4l-0.9,0.2c-0.1-0.4-0.3-0.9-0.5-1.2
				c-1.5,0.4-3.6,0.7-6.1,0.9l-0.3-0.9c0.6-0.2,1.4-1.6,2.5-4.4h-2.9v-1H-120.1z M-121.1,60.4v0.9h-6.4v-0.9H-121.1z"/>
			<path class="st4" d="M-113.7,70.6c-1.4,0.5-3,1-4.7,1.3l-0.1-1c1.8-0.3,3.5-0.7,4.9-1.3V70.6z M-115.3,59.9
				c-0.7,1.8-1.3,3.2-2,4.3c0.6-0.1,1.2-0.2,1.8-0.3c0.3-0.5,0.5-1.1,0.8-1.7l0.9,0.3c-1.2,2.4-2.1,4.1-2.9,5.2
				c0.9-0.2,1.8-0.5,2.8-0.9v0.9c-1.4,0.6-2.7,1-4,1.2l-0.3-0.9c0.2-0.1,0.3-0.2,0.5-0.3c0.5-0.6,1.1-1.5,1.8-2.9
				c-0.7,0.1-1.5,0.3-2.2,0.4l-0.3-0.9c0.2-0.1,0.3-0.2,0.4-0.4c0.7-1.3,1.3-2.8,1.8-4.4L-115.3,59.9z M-111.8,72.4h-1v-8.3
				c-0.4,0.7-0.8,1.3-1.3,1.9l-0.3-1c1.1-1.7,1.9-3.4,2.4-5.4l1,0.2c-0.2,0.8-0.4,1.5-0.7,2.2h2.5c-0.2-0.7-0.5-1.5-0.8-2.2l1-0.3
				c0.3,0.8,0.6,1.6,0.7,2.3l-0.4,0.1h2.5v1h-2.2v1.9h2v0.9h-2v1.9h2v0.9h-2v2.1h2.5v0.9h-6V72.4z M-111.8,62.9v1.9h2.5v-1.9H-111.8
				z M-111.8,67.7h2.5v-1.9h-2.5V67.7z M-111.8,70.7h2.5v-2.1h-2.5V70.7z"/>
		</g>
	</g>
</g>
<g id="RectEndPoint19" transform="translate(493,438)">
	<rect x="-187.3" y="52" class="st11" width="124" height="50"/>
	<rect x="-189.3" y="50" class="st12" width="124" height="50"/>
	<g transform="translate(20 9)">
		<g class="st3">
			<path class="st4" d="M-185.1,60.9v-1.4h1v1.4h3.7v-1.4h1v1.4h3.2v1h-3.2v1.3h-1v-1.3h-3.7v1.3h-1v-1.3h-3.2v-1H-185.1z
				 M-187.7,64.9v-1h10.4c-0.1,2.3-0.1,3.7-0.2,4.2c-0.1,0.8-0.2,1.3-0.4,1.5c-0.3,0.3-0.7,0.4-1.3,0.4c-0.4,0-0.9,0-1.5,0l-0.3-1
				c0.5,0,1,0,1.5,0c0.4,0,0.6-0.1,0.8-0.3c0.2-0.2,0.3-0.7,0.3-1.4c0-0.4,0-1.2,0.1-2.5h-4.4v7.4h-1v-7.4H-187.7z"/>
			<path class="st4" d="M-172,69.2c-0.5,1.2-1.1,2.3-1.8,3.2l-0.8-0.6c0.7-0.8,1.3-1.8,1.8-3L-172,69.2z M-168,59.6v1.4h5.4v1h-5.4
				v1.8h4.5v4.5h-9.3v-4.5h3.8v-4.1H-168z M-164.5,64.6h-7.3v2.6h7.3V64.6z M-169,72.2l-1,0.2c-0.2-1.1-0.4-2.2-0.7-3l0.9-0.2
				C-169.5,70.1-169.2,71.1-169,72.2z M-165.7,72.2l-1,0.2c-0.3-1.2-0.6-2.2-1.1-3.2l1-0.2C-166.4,70-166.1,71.1-165.7,72.2z
				 M-161.9,71.8l-0.8,0.6c-0.5-1-1.2-2-2-3.1l0.8-0.5C-163.1,69.9-162.4,71-161.9,71.8z"/>
			<path class="st4" d="M-157.5,59.6h1v12.7h-1v-4.9c-0.8,0.9-1.8,1.8-2.9,2.5l-0.3-1.1c1.2-0.8,2.2-1.7,3.2-2.7V59.6z M-158.1,64.6
				L-159,65c-0.4-1.4-0.9-2.6-1.5-3.7l1-0.3C-159,62.1-158.5,63.4-158.1,64.6z M-151.7,63.3h3.4v1h-3.3c0.6,3.1,1.9,5.6,3.8,7.3
				l-0.7,0.8c-1.8-1.7-3-3.8-3.6-6.3c-0.6,2.5-1.7,4.7-3.3,6.4l-0.7-0.8c1.9-2.1,3-4.6,3.2-7.3h-2.8v-1h2.9c0-1.6,0.1-2.9,0.1-3.7h1
				C-151.6,60.6-151.6,61.9-151.7,63.3z M-148.3,62l-0.8,0.6c-0.4-0.7-1-1.5-1.7-2.3l0.8-0.5C-149.3,60.7-148.7,61.4-148.3,62z"/>
			<path class="st4" d="M-139.8,59.5c-0.1,0.5-0.2,1-0.3,1.5h5.4v1h-4.5c0.7,1.6,2.4,2.8,5.2,3.6l-0.5,0.9c-3.1-1.1-5-2.6-5.7-4.5
				h-0.2c-0.3,0.8-0.7,1.5-1.2,2.1c-0.1,0.1-0.1,0.1-0.1,0.2c0.6,0.4,1.3,1,2,1.7l-0.7,0.7c-0.7-0.7-1.3-1.3-2-1.8
				c-0.9,0.7-2.2,1.2-3.9,1.7l-0.4-0.9c2-0.5,3.4-1.2,4.3-2.2c0.4-0.4,0.7-0.9,1-1.5h-4.6v-1h4.9c0.2-0.5,0.3-1,0.3-1.6L-139.8,59.5
				z M-144.3,67.9c-0.3,1.5-0.8,2.7-1.4,3.8l-0.9-0.5c0.6-1,1-2.2,1.3-3.4L-144.3,67.9z M-141.9,72.1c-0.9,0-1.3-0.5-1.3-1.4v-3h1
				v2.8c0,0.4,0.2,0.6,0.6,0.6h3.1c0.3,0,0.5-0.1,0.6-0.3c0.2-0.2,0.3-0.8,0.3-1.7l1,0.3c-0.1,1.3-0.3,2-0.6,2.3
				c-0.3,0.2-0.6,0.4-1.2,0.4H-141.9z M-138.7,69.6l-0.9,0.4c-0.4-0.9-0.8-1.8-1.2-2.5l0.9-0.3C-139.5,67.9-139,68.7-138.7,69.6z
				 M-134,70.9l-0.9,0.4c-0.5-1.3-1.1-2.5-1.8-3.5l1-0.3C-135.1,68.5-134.5,69.7-134,70.9z"/>
			<path class="st4" d="M-121.4,71h1.5v0.9h-12.7V71h1.6v-3.9h9.6V71z M-130.7,60.2v5.7h-1v-5.7H-130.7z M-128.2,71v-3h-1.9v3
				H-128.2z M-127.7,59.5v6.9h-1v-6.9H-127.7z M-125.3,71v-3h-2v3H-125.3z M-126.5,65l-0.6-0.8c1-1.2,1.7-2.8,2-4.8l1,0.2
				c-0.1,0.6-0.2,1.1-0.4,1.6h4.2v1h-4.5C-125.2,63.3-125.8,64.3-126.5,65z M-122.4,71v-3h-1.9v3H-122.4z M-121.6,65.6l-0.8,0.6
				c-0.4-0.8-1-1.6-1.7-2.6l0.8-0.5C-122.6,64.1-122,64.9-121.6,65.6z"/>
			<path class="st4" d="M-118.2,72.3l-0.2-1c0.4,0,0.7,0.1,1.1,0.1c0.4,0,0.5-0.2,0.5-0.5v-3.4c-0.6,0.2-1.1,0.4-1.7,0.6l-0.3-1
				c0.7-0.2,1.3-0.4,1.9-0.6v-3.1h-1.7v-1h1.7v-2.7h1v2.7h1.2v1h-1.2v2.7c0.4-0.2,0.8-0.4,1.2-0.6v1c-0.4,0.2-0.8,0.4-1.2,0.6v4.1
				c0,0.8-0.4,1.2-1.2,1.2H-118.2z M-113.9,67.9V67h7.5v0.9h-3.2V71h3.7v1h-8.6v-1h3.8v-3.1H-113.9z M-109.5,61.1h3.3v2.6h-0.9V62
				h-5.9v1.7h-1v-2.6h3.5c-0.2-0.6-0.5-1.1-0.7-1.5l1-0.2C-110,59.9-109.7,60.5-109.5,61.1z M-110.6,63.2c-0.6,1.4-1.5,2.5-2.5,3.2
				l-0.7-0.6c1.1-0.7,1.8-1.7,2.4-2.9L-110.6,63.2z M-106.5,65.8l-0.9,0.4c-0.7-1.1-1.4-2.2-2.3-3.1l0.9-0.4
				C-107.9,63.7-107.2,64.8-106.5,65.8z"/>
		</g>
	</g>
</g>
<g id="RectEndPoint20" transform="translate(329.5,373)">
	<rect x="189.2" y="52" class="st11" width="133" height="50"/>
	<rect x="187.2" y="50" class="st12" width="133" height="50"/>
	<g transform="translate(20 9)">
		<g class="st3">
			<path class="st4" d="M195.5,61.7c0.7,0.6,1.1,1.4,1.3,2.5h-1.1c-0.2-0.8-0.5-1.3-1-1.7c-0.5-0.4-1.3-0.6-2.1-0.6
				c-1.1,0-1.9,0.4-2.6,1.1c-0.6,0.8-1,1.8-1,3.1c0,1.3,0.3,2.3,0.9,3c0.7,0.8,1.6,1.2,2.9,1.2c0.5,0,1.1-0.1,1.6-0.2
				c0.5-0.1,0.9-0.3,1.3-0.6v-2.5h-3.1v-1h4.3v4.1c-0.5,0.4-1.1,0.7-1.8,0.9c-0.7,0.2-1.5,0.3-2.3,0.3c-1.6,0-2.8-0.5-3.7-1.5
				c-0.8-0.9-1.2-2.2-1.2-3.6c0-1.5,0.4-2.7,1.2-3.7c0.9-1.1,2-1.6,3.5-1.6C193.8,60.8,194.7,61.1,195.5,61.7z"/>
			<path class="st4" d="M199.8,61v9h5.8v1h-6.9V61H199.8z"/>
			<path class="st4" d="M213,61.6c0.7,0.5,1.1,1.3,1.1,2.4H213c-0.1-0.7-0.4-1.3-0.8-1.6c-0.4-0.4-1.1-0.5-1.9-0.5
				c-0.7,0-1.3,0.1-1.7,0.4c-0.5,0.3-0.7,0.7-0.7,1.3c0,0.5,0.3,0.9,0.9,1.2c0.3,0.1,0.9,0.3,1.8,0.6c1.3,0.4,2.2,0.7,2.6,1
				c0.8,0.5,1.2,1.2,1.2,2.1c0,0.9-0.4,1.6-1.1,2.1c-0.7,0.5-1.6,0.7-2.8,0.7c-1.2,0-2.1-0.3-2.8-0.8c-0.8-0.6-1.2-1.5-1.3-2.7h1.1
				c0.1,0.9,0.4,1.5,0.9,1.9c0.5,0.4,1.1,0.6,2,0.6c0.8,0,1.5-0.2,2-0.5c0.5-0.3,0.8-0.7,0.8-1.3c0-0.6-0.3-1.1-1-1.5
				c-0.3-0.2-1-0.4-2.1-0.7c-1.2-0.4-2-0.6-2.3-0.8c-0.8-0.4-1.1-1.1-1.1-1.9c0-0.9,0.4-1.6,1.1-2c0.7-0.4,1.5-0.7,2.5-0.7
				C211.4,60.8,212.3,61.1,213,61.6z"/>
			<path class="st4" d="M220.3,61c0.9,0,1.7,0.2,2.2,0.7c0.5,0.4,0.8,1.1,0.8,1.8c0,0.6-0.2,1.1-0.4,1.5c-0.3,0.4-0.7,0.6-1.2,0.8
				c0.7,0.1,1.2,0.4,1.5,0.8c0.4,0.4,0.6,1,0.6,1.6c0,1-0.4,1.7-1,2.2c-0.6,0.4-1.4,0.6-2.4,0.6h-4.4V61H220.3z M216.9,65.4h3
				c0.7,0,1.2-0.2,1.6-0.4c0.4-0.3,0.6-0.7,0.6-1.3c0-0.6-0.2-1-0.5-1.3S220.7,62,220,62h-3.1V65.4z M216.9,70h3.2
				c0.7,0,1.2-0.1,1.7-0.4c0.5-0.3,0.7-0.8,0.7-1.4s-0.2-1.1-0.6-1.4c-0.4-0.3-1-0.4-1.8-0.4h-3.2V70z"/>
			<path class="st4" d="M227.8,63.8v5.8c0.3-0.3,0.7-0.6,1.1-1l0.3,1c-0.7,0.7-1.4,1.3-2.2,1.9l-0.4-0.9c0.2-0.2,0.3-0.3,0.3-0.6
				v-5.3h-1.9v-1H227.8z M228.8,61.8l-0.7,0.7c-0.6-0.7-1.3-1.4-2.2-2.1l0.7-0.7C227.4,60.4,228.2,61.1,228.8,61.8z M237.2,71.1
				c0,0.8-0.4,1.2-1.3,1.2h-1.3l-0.2-0.9c0.5,0,0.9,0,1.3,0c0.4,0,0.6-0.2,0.6-0.7V61h-5.7v6.8c0,1.9-0.4,3.4-1.2,4.6l-0.7-0.7
				c0.7-1,1-2.3,1-3.9v-7.7h7.6V71.1z M232.9,62.7v-1.1h1v1.1h1.6v0.8h-1.6v1.3h1.9v0.8H231v-0.8h1.8v-1.3h-1.6v-0.8H232.9z
				 M235.2,66.7v3.6h-3.7v-3.6H235.2z M234.3,67.5h-2v1.9h2V67.5z"/>
			<path class="st4" d="M241.1,65.2c-0.1,3-0.6,5.4-1.5,7.1l-0.8-0.7c0.8-1.6,1.2-3.7,1.3-6.5v-4.6h5.4c-0.2-0.4-0.3-0.7-0.5-1
				l1.1-0.2c0.2,0.4,0.3,0.7,0.5,1.2h4.8v1h-10.2v1.6h2.4v-1.1h1v1.1h3.7V62h1v1.1h2.2v0.9h-2.2v2.2h-5.7v-2.2h-2.4V65.2z
				 M250.1,67.3V68c-0.8,1-1.7,1.8-2.9,2.5c1.3,0.5,2.7,0.9,4.4,1.1l-0.4,0.9c-1.9-0.3-3.6-0.8-4.9-1.5c-1.4,0.7-3.1,1.2-4.9,1.5
				l-0.4-0.9c1.6-0.2,3.1-0.6,4.3-1.1c-1-0.6-1.9-1.4-2.5-2.3h-0.9v-0.9H250.1z M246.2,70c1-0.5,1.8-1.1,2.6-1.8h-5
				C244.5,68.9,245.3,69.5,246.2,70z M244.4,65.5h3.7v-1.3h-3.7V65.5z"/>
			<path class="st4" d="M257.2,69c-1,1.1-2.1,2.1-3.5,3l-0.6-0.8c1.4-0.8,2.5-1.8,3.4-2.8L257.2,69z M257.2,72.4l-0.2-1
				c0.5,0,1,0.1,1.4,0.1c0.3,0,0.5-0.2,0.5-0.5v-3.4c-1.3,0.1-2.8,0.2-4.4,0.2l-0.3-0.9c0.3,0,0.6-0.1,0.9-0.2
				c1.1-0.5,2.4-1.3,3.9-2.4c-1.2,0.1-2.5,0.2-3.9,0.3l-0.2-0.9c0.3,0,0.5-0.1,0.7-0.2c0.7-0.3,1.5-1,2.5-2.1
				c-1.2,0.1-2.5,0.1-3.8,0.1l-0.3-0.9c4,0,7.4-0.3,10-0.9l0.5,0.9c-1.5,0.3-3.2,0.6-5.2,0.7c-0.9,1-1.8,1.8-2.6,2.4
				c1.1-0.1,2.3-0.1,3.4-0.2c0.6-0.5,1.3-1.1,1.9-1.7l0.9,0.5c-2.4,2.1-4.4,3.6-6.2,4.5c2.3-0.1,4.2-0.3,5.9-0.5
				c-0.4-0.4-0.7-0.9-1.1-1.4l0.8-0.5c1.1,1.3,2,2.5,2.6,3.5l-0.8,0.6c-0.3-0.5-0.6-1-0.9-1.4c-1,0.1-2,0.2-3.2,0.3v3.8
				c0,0.8-0.4,1.2-1.2,1.2H257.2z M265.4,71.4l-0.7,0.7c-0.9-1-2-2-3.5-3.2l0.7-0.6C263.3,69.3,264.4,70.3,265.4,71.4z"/>
			<path class="st4" d="M270.3,59.9c-0.7,1.8-1.4,3.2-2.1,4.3c0.6-0.1,1.2-0.2,1.8-0.3c0.3-0.5,0.5-1,0.8-1.5l0.9,0.4
				c-1.2,2.3-2.3,4-3.1,5c1-0.3,2-0.6,3-1v0.9c-1.5,0.6-2.9,1-4.2,1.2l-0.3-0.9c0.2-0.1,0.3-0.2,0.5-0.3c0.5-0.6,1.2-1.5,2-2.8
				c-0.8,0.1-1.5,0.3-2.3,0.4l-0.3-0.9c0.2-0.1,0.3-0.2,0.4-0.4c0.8-1.3,1.4-2.7,2-4.4L270.3,59.9z M271.6,70.2
				c-1.3,0.6-2.7,1.2-4.4,1.6l-0.1-1c1.7-0.4,3.2-0.9,4.5-1.5V70.2z M274.2,66.3c-0.1,1.8-0.3,3.1-0.7,3.9c-0.4,0.9-1.1,1.6-2,2.2
				l-0.6-0.8c0.8-0.5,1.4-1.1,1.8-1.9c0.3-0.7,0.5-1.9,0.6-3.5H274.2z M271.9,64.8c0.1,0,0.1-0.1,0.2-0.1c0.5-0.4,1.1-1.2,1.8-2.7
				h-2.4v-1h3.6c-0.2-0.5-0.4-1-0.6-1.4l1-0.2c0.2,0.5,0.4,1,0.6,1.6h3.2v1h-4.3c-0.6,1.2-1.2,2.1-1.6,2.7c1.3-0.1,2.6-0.3,3.9-0.5
				c-0.3-0.4-0.6-0.9-1-1.4l0.8-0.5c1,1.2,1.7,2.3,2.2,3.2l-0.8,0.5c-0.2-0.4-0.4-0.7-0.6-1.1c-1.7,0.3-3.6,0.5-5.7,0.6L271.9,64.8z
				 M277.2,72.1c-0.8,0-1.3-0.4-1.3-1.2v-4.8h1v4.6c0,0.3,0.1,0.4,0.3,0.5h0.9c0.3,0,0.5-0.2,0.5-0.5c0.1-0.4,0.1-1,0.1-1.8l0.9,0.3
				c0,1.3-0.1,2.1-0.3,2.5c-0.2,0.3-0.6,0.4-1.2,0.5H277.2z"/>
		</g>
	</g>
</g>
<g transform="translate(0 0)">
	<g class="st3">
		<path class="st13" d="M118.6,187.4v-2.2h0.9v2.2h4.7v0.8h-3.9c0.8,1.9,2.2,3.6,4.3,5.1l-0.6,0.7c-2.1-1.7-3.6-3.7-4.4-5.9h-0.1
			v4.7h2.6v0.8h-2.6v2.5h-0.9v-2.5h-2.5v-0.8h2.5v-4.7h-0.1c-0.9,2.4-2.4,4.4-4.5,6l-0.5-0.8c2-1.3,3.5-3.1,4.3-5.2h-3.9v-0.8H118.6
			z"/>
		<path class="st13" d="M129.2,193.5c-1.1,0.5-2.3,0.9-3.6,1.3l-0.2-0.9c0.5-0.1,1-0.2,1.5-0.4v-4.3h-1.4v-0.8h1.4v-3.1h0.9v3.1h1.2
			v0.8h-1.2v4c0.5-0.2,1-0.4,1.4-0.6V193.5z M135.9,191.9c-0.1,0.5-0.6,0.8-1.5,0.8h-0.1l-0.2-0.9c0.2,0,0.3,0,0.5,0
			c0.3,0,0.5-0.1,0.6-0.4c0.1-0.3,0.1-1.2,0.1-2.8l-1.8,0.5v4.5h-0.8v-4.3l-1.8,0.5v4.7c0,0.4,0.2,0.6,0.6,0.6h3.4
			c0.3,0,0.4-0.1,0.5-0.2c0.1-0.2,0.2-0.8,0.3-1.8l0.8,0.3c-0.1,1.2-0.2,1.9-0.5,2.2c-0.2,0.2-0.5,0.3-1,0.3h-3.8
			c-0.8,0-1.2-0.4-1.2-1.2v-4.6l-1,0.3v-0.8l1-0.3v-3h0.8v2.7l1.8-0.5v-3.4h0.8v3.1l2.6-0.8C136.1,189.9,136,191.4,135.9,191.9z"/>
		<path class="st13" d="M142.9,185.2v3.7h4.4v0.8h-4.4v5.1h5.5v0.8h-10.7v-0.8h4.3v-9.7H142.9z"/>
		<path class="st13" d="M149.7,191l-0.3-0.9c1.3-1.4,2.2-3.1,2.8-4.9l0.8,0.4c-0.3,0.9-0.7,1.8-1.2,2.6v8H151v-6.7
			C150.6,190,150.2,190.6,149.7,191z M155.5,186.7l0.4-1.5l0.8,0.1c-0.1,0.5-0.2,1-0.3,1.5h3.6v0.8h-3.8c-0.1,0.5-0.3,0.9-0.4,1.4
			h4.7v0.8h-5c-0.2,0.6-0.4,1.1-0.6,1.5h4.9v0.7c-0.5,0.8-1.3,1.7-2.4,2.5c0.6,0.3,1.1,0.6,1.6,1l-0.5,0.7c-1.5-1-3-1.8-4.5-2.4
			l0.5-0.7c0.7,0.3,1.5,0.6,2.2,0.9c0.9-0.7,1.7-1.3,2.2-2.1h-5.1c0.3-0.7,0.6-1.5,0.9-2.3h-2V189h2.3c0.1-0.5,0.3-0.9,0.4-1.4h-2.1
			v-0.8H155.5z"/>
		<path class="st13" d="M166.6,185.2l-4.2,11h-0.9l4.3-11H166.6z"/>
		<path class="st13" d="M168.8,186.4v5.3c0,0.8,0.2,1.5,0.6,1.9c0.4,0.4,1,0.7,1.9,0.7c0.8,0,1.5-0.2,1.9-0.7
			c0.4-0.4,0.6-1.1,0.6-1.9v-5.3h1v5.3c0,1.1-0.3,2-0.9,2.6c-0.6,0.6-1.4,0.9-2.6,0.9s-2-0.3-2.6-0.9c-0.6-0.6-0.9-1.5-0.9-2.6v-5.3
			H168.8z"/>
		<path class="st13" d="M180.1,186.4c0.9,0,1.5,0.2,2,0.6c0.5,0.4,0.8,1,0.8,1.8c0,0.5-0.1,0.9-0.4,1.3c-0.3,0.4-0.7,0.6-1.2,0.7v0
			c0.8,0.2,1.3,0.7,1.4,1.6l0.1,1.3c0,0.5,0.2,0.9,0.5,1.3h-1.1c-0.2-0.3-0.3-0.7-0.3-1.1l-0.1-1.1c0-0.5-0.2-0.9-0.5-1.1
			c-0.3-0.2-0.7-0.3-1.2-0.3h-2.6v3.7h-1v-8.6H180.1z M177.4,190.5h2.6c0.6,0,1.1-0.2,1.5-0.4c0.3-0.3,0.5-0.7,0.5-1.2
			c0-0.5-0.2-0.9-0.4-1.2c-0.3-0.3-0.8-0.4-1.5-0.4h-2.6V190.5z"/>
		<path class="st13" d="M185.5,186.4v7.7h5v0.9h-5.9v-8.6H185.5z"/>
		<path class="st13" d="M195.3,190.8c-0.5,0.2-0.9,0.5-1.4,0.7v3.5c0,0.7-0.4,1.1-1.1,1.1h-1.1l-0.2-0.8c0.3,0,0.7,0,1,0
			c0.3,0,0.5-0.2,0.5-0.5v-2.9c-0.5,0.2-1.1,0.4-1.6,0.6l-0.2-0.9c0.6-0.2,1.2-0.3,1.8-0.6v-2.8h-1.6v-0.8h1.6v-2.2h0.9v2.2h1.3v0.8
			h-1.3v2.4c0.5-0.2,0.9-0.5,1.4-0.7V190.8z M199,194.9c0.6-1.6,1-3.7,1.5-6.1l0.8,0.2c-0.4,2.2-0.9,4.2-1.4,5.9h2.4v0.8h-6.9v-0.8
			H199z M198.4,187.1c-0.2-0.6-0.4-1.2-0.6-1.8l0.9-0.1c0.2,0.6,0.4,1.2,0.6,1.9h2.7v0.8h-6.3v-0.8H198.4z M198,194.1l-0.8,0.2
			c-0.3-1.8-0.6-3.5-1-5.1l0.8-0.3C197.3,190.4,197.7,192.1,198,194.1z"/>
		<path class="st13" d="M209.3,193.8c-0.4,0.1-0.7,0.2-1.1,0.3v2.2h-0.8v-2c-1.2,0.3-2.5,0.5-3.9,0.7l-0.2-0.8
			c0.4,0,0.7-0.1,1.1-0.2v-7.4h-0.9v-0.8h5.7v0.6h4.6v0.8c-0.3,2.2-0.8,4.1-1.6,5.7c0.6,1,1.3,1.9,2.1,2.7l-0.6,0.7
			c-0.8-0.8-1.5-1.7-2-2.6c-0.6,1-1.4,1.9-2.3,2.6l-0.6-0.7c1-0.8,1.8-1.7,2.4-2.8c-0.9-1.7-1.4-3.6-1.6-5.6h-0.5v-0.7h-0.9v6.7
			c0.4-0.1,0.7-0.2,1.1-0.3V193.8z M207.4,188.3v-1.9h-2.2v1.9H207.4z M207.4,191v-1.8h-2.2v1.8H207.4z M207.4,191.7h-2.2v2
			c0.7-0.1,1.5-0.3,2.2-0.4V191.7z M211.6,191.9c0.6-1.4,1.1-2.9,1.3-4.7h-2.6C210.5,188.9,211,190.5,211.6,191.9z"/>
		<path class="st13" d="M220.3,185.2l-4.2,11h-0.9l4.3-11H220.3z"/>
		<path class="st13" d="M117.5,200.8l3.4,8.6h-1.1l-0.9-2.4H115l-0.9,2.4H113l3.4-8.6H117.5z M118.6,206.2l-1.6-4.3h0l-1.6,4.3
			H118.6z"/>
		<path class="st13" d="M125.2,200.8c2,0,3,0.8,3,2.5c0,1.7-1,2.5-3,2.5h-2.5v3.5h-1v-8.6H125.2z M122.7,205h2.5
			c0.7,0,1.2-0.1,1.5-0.4c0.3-0.3,0.5-0.7,0.5-1.3c0-0.6-0.2-1-0.5-1.2c-0.3-0.3-0.8-0.4-1.5-0.4h-2.5V205z"/>
		<path class="st13" d="M130.5,200.8v8.6h-1v-8.6H130.5z"/>
		<path class="st13" d="M137.3,199.6v3.7h4.4v0.8h-4.4v5.1h5.5v0.8h-10.7v-0.8h4.3v-9.7H137.3z"/>
		<path class="st13" d="M144.1,205.4l-0.3-0.9c1.3-1.4,2.2-3.1,2.8-4.9l0.8,0.4c-0.3,0.9-0.7,1.8-1.2,2.6v8h-0.9v-6.7
			C145,204.4,144.6,205,144.1,205.4z M150,201.1l0.4-1.5l0.8,0.1c-0.1,0.5-0.2,1-0.3,1.5h3.6v0.8h-3.8c-0.1,0.5-0.3,0.9-0.4,1.4h4.7
			v0.8h-5c-0.2,0.6-0.4,1.1-0.6,1.5h4.9v0.7c-0.5,0.8-1.3,1.7-2.4,2.5c0.6,0.3,1.1,0.6,1.6,1l-0.5,0.7c-1.5-1-3-1.8-4.5-2.4l0.5-0.7
			c0.7,0.3,1.5,0.6,2.2,0.9c0.9-0.7,1.7-1.3,2.2-2.1h-5.1c0.3-0.7,0.6-1.5,0.9-2.3h-2v-0.8h2.3c0.1-0.5,0.3-0.9,0.4-1.4h-2.1v-0.8
			H150z"/>
		<path class="st13" d="M161,199.6l-4.2,11h-0.9l4.3-11H161z"/>
		<path class="st13" d="M162.6,200.8l1.9,7.2h0l2-7.2h1.1l1.9,7.2h0l1.9-7.2h1.1l-2.5,8.6H169l-1.9-7.1h0l-2,7.1H164l-2.5-8.6H162.6
			z"/>
		<path class="st13" d="M178.1,204c0.5,0.6,0.7,1.5,0.7,2.5H174c0,0.7,0.2,1.2,0.6,1.6s0.8,0.6,1.4,0.6c0.5,0,0.9-0.1,1.2-0.4
			c0.3-0.2,0.5-0.5,0.6-1h1c-0.1,0.6-0.4,1.1-0.8,1.5c-0.5,0.5-1.2,0.7-2,0.7c-0.9,0-1.6-0.3-2.1-0.9c-0.6-0.6-0.8-1.4-0.8-2.4
			c0-0.9,0.3-1.7,0.8-2.3c0.5-0.6,1.2-1,2.1-1C176.9,203,177.6,203.4,178.1,204z M174.6,204.4c-0.3,0.4-0.5,0.8-0.6,1.5h3.9
			c-0.1-1.3-0.8-2-2-2C175.4,203.8,174.9,204,174.6,204.4z"/>
		<path class="st13" d="M181,200.7v3.7c0.5-0.9,1.2-1.3,2.1-1.3c0.9,0,1.6,0.3,2.1,1c0.5,0.6,0.7,1.3,0.7,2.3c0,0.9-0.2,1.7-0.7,2.3
			c-0.5,0.6-1.2,1-2.1,1c-1,0-1.6-0.4-2.1-1.2v1H180v-8.7H181z M181.4,204.5c-0.4,0.4-0.5,1-0.5,1.8v0.1c0,0.7,0.2,1.3,0.5,1.7
			c0.3,0.5,0.8,0.7,1.5,0.7c0.7,0,1.2-0.3,1.5-0.7c0.3-0.4,0.4-1,0.4-1.8c0-0.7-0.2-1.3-0.5-1.7c-0.3-0.5-0.9-0.7-1.5-0.7
			C182.2,203.8,181.8,204,181.4,204.5z"/>
		<path class="st13" d="M196.3,201.3c0.6,0.5,0.9,1.1,1,2h-1c-0.1-0.6-0.3-1.1-0.7-1.4c-0.4-0.3-0.9-0.5-1.6-0.5
			c-0.6,0-1.1,0.1-1.5,0.3c-0.4,0.2-0.6,0.6-0.6,1.1c0,0.4,0.2,0.8,0.7,1c0.2,0.1,0.7,0.3,1.6,0.5c1.1,0.3,1.9,0.6,2.2,0.8
			c0.7,0.4,1.1,1,1.1,1.8c0,0.7-0.3,1.3-0.9,1.8c-0.6,0.4-1.4,0.6-2.4,0.6c-1,0-1.8-0.2-2.4-0.6c-0.7-0.5-1-1.3-1.1-2.4h1
			c0.1,0.7,0.3,1.3,0.8,1.6c0.4,0.3,1,0.5,1.7,0.5c0.7,0,1.3-0.1,1.7-0.4c0.4-0.3,0.6-0.6,0.6-1.1c0-0.5-0.3-1-0.9-1.3
			c-0.2-0.1-0.9-0.3-1.8-0.6c-1-0.3-1.7-0.6-2-0.7c-0.7-0.4-1-0.9-1-1.7c0-0.7,0.3-1.3,0.9-1.7c0.6-0.4,1.3-0.6,2.2-0.6
			C195,200.7,195.7,200.9,196.3,201.3z"/>
		<path class="st13" d="M201.8,200.8c1.4,0,2.4,0.4,3.1,1.2c0.6,0.7,1,1.8,1,3.1c0,1.3-0.3,2.4-1,3.1c-0.7,0.8-1.8,1.2-3.1,1.2h-3
			v-8.6H201.8z M199.7,208.5h1.8c1.1,0,2-0.3,2.5-0.9c0.5-0.6,0.8-1.4,0.8-2.5c0-1.2-0.3-2-0.7-2.6c-0.5-0.6-1.3-0.9-2.5-0.9h-1.9
			V208.5z"/>
		<path class="st13" d="M214.1,200.8l-3.9,3.7l4.4,4.9h-1.3l-3.8-4.3l-1.3,1.3v3h-1v-8.6h1v4.5l4.6-4.5H214.1z"/>
		<path class="st13" d="M220.2,199.6l-4.2,11h-0.9l4.3-11H220.2z"/>
		<path class="st13" d="M114.3,218.2l-0.6-0.6c0.6-1,1-2.1,1.3-3.6l0.8,0.2c-0.1,0.6-0.3,1.1-0.4,1.5h2.7v0.8h-1.2
			c0,0.9,0,1.6-0.1,2.4h1.4v0.8h-1.5c0,0.3-0.1,0.6-0.2,0.9v0c0.6,0.6,1.2,1.2,1.8,1.9l-0.5,0.8c-0.6-0.8-1.1-1.4-1.5-1.9
			c-0.4,1.3-1.1,2.3-2.1,3.2l-0.6-0.7c1-0.9,1.7-2,2-3.4c0.1-0.3,0.1-0.5,0.2-0.8h-2.1v-0.8h2.2c0.1-0.7,0.1-1.5,0.1-2.4h-0.9
			C114.9,217.2,114.6,217.8,114.3,218.2z M123.6,221c-0.3,1-0.6,1.9-1,2.7h2v0.8h-6.7v-0.8h3.9c0.4-0.8,0.7-1.8,1-3L123.6,221z
			 M124.3,214.6v0.8h-6.1v-0.8H124.3z M123.7,216.7v3.7h-5v-3.7H123.7z M120.6,223.2l-0.8,0.2c-0.2-0.8-0.5-1.6-0.8-2.3l0.8-0.3
			C120.1,221.5,120.3,222.3,120.6,223.2z M122.9,217.5h-3.3v2.1h3.3V217.5z"/>
		<path class="st13" d="M125.8,221.5l-0.3-0.9c1.6-1.4,2.7-2.7,3.2-4h-3v-0.8h1.9c-0.2-0.5-0.4-1.1-0.7-1.6l0.8-0.2
			c0.3,0.6,0.5,1.2,0.7,1.7l-0.3,0.1h1.5v0.7c-0.3,0.9-0.8,1.7-1.4,2.6c0.7,0.4,1.3,0.9,1.8,1.4l-0.5,0.7c-0.4-0.5-0.9-0.9-1.3-1.2
			v5.1h-0.9v-5C126.8,220.5,126.3,221,125.8,221.5z M133.4,216.2v2.3c0,1.8-0.4,3.2-0.9,4.3c-0.6,1-1.5,1.8-2.8,2.3l-0.5-0.8
			c1.3-0.6,2.1-1.3,2.6-2.2c0.5-0.9,0.7-2.2,0.7-3.7v-2.3H133.4z M135.6,221.1h-0.9v-5.8h-3.4v5.8h-0.9v-6.6h5.1V221.1z
			 M134.2,224.8c-0.7,0-1-0.3-1-1v-2.7h0.8v2.5c0,0.3,0.1,0.4,0.4,0.4h0.7c0.2,0,0.3-0.1,0.4-0.2c0.1-0.2,0.2-0.6,0.2-1.4l0.8,0.3
			c-0.1,1-0.2,1.6-0.4,1.8c-0.2,0.2-0.5,0.3-0.8,0.3H134.2z"/>
		<path class="st13" d="M140.8,214v1.4h1.6v0.8h-1.6v1.4h1.8v0.8h-5.1v-0.8h0.7V215h0.8v2.7h0.9V214H140.8z M139.3,219.8
			c-0.3,1.1-0.6,2-1.1,2.6l-0.6-0.6c0.4-0.6,0.8-1.4,1-2.3L139.3,219.8z M142.7,219.6c-0.5,2.7-2.1,4.4-4.6,5.3l-0.5-0.8
			c2.4-0.7,3.9-2.3,4.3-4.7L142.7,219.6z M140.8,218.9v3.1H140v-3.1H140.8z M146,218.1v2.1c0,1.3-0.3,2.3-0.8,3.1
			c-0.5,0.7-1.3,1.3-2.4,1.7l-0.5-0.7c1.1-0.4,1.8-0.9,2.2-1.5c0.4-0.6,0.6-1.5,0.6-2.5v-2.1H146z M148.4,214.5v0.8H146
			c0,0.5-0.1,0.9-0.1,1.3h2.1v5.7h-0.8v-4.9H144v4.9h-0.8v-5.7h1.8c0.1-0.4,0.1-0.9,0.2-1.3h-2.4v-0.8H148.4z M148.5,224.4l-0.6,0.6
			c-0.5-0.7-1.2-1.4-2-2.1l0.6-0.6C147.3,223.1,148,223.7,148.5,224.4z"/>
		<path class="st13" d="M154.6,214l-4.2,11h-0.9l4.3-11H154.6z"/>
		<path class="st13" d="M160.5,215.1c0-0.4,0.1-0.8,0.1-1.1l0.9,0.1c0,0.3-0.1,0.7-0.1,1h4.7v0.8h-4.8c-0.1,0.3-0.1,0.7-0.2,1h3.5v7
			h1.8v0.8h-10.6v-0.8h1.7v-7h2.8c0.1-0.3,0.1-0.7,0.2-1h-4.5v-0.8H160.5z M163.7,218.7v-1h-5.4v1H163.7z M163.7,220.4v-1h-5.4v1
			H163.7z M163.7,222.2v-1h-5.4v1H163.7z M163.7,223.9v-1.1h-5.4v1.1H163.7z"/>
		<path class="st13" d="M172.5,224.4v0.6h-0.8v-4.9c-0.2,0.1-0.3,0.2-0.5,0.2l-0.4-0.7v0.2c-0.3,0.2-0.6,0.3-1,0.5v3.6
			c0,0.7-0.3,1-1,1h-1l-0.2-0.8c0.3,0,0.6,0.1,0.9,0.1c0.3,0,0.5-0.2,0.5-0.5v-2.9c-0.5,0.2-0.9,0.4-1.4,0.5l-0.2-0.9
			c0.6-0.1,1.1-0.3,1.6-0.5v-2.8h-1.4v-0.8h1.4V214h0.9v2.3h1v0.8h-1v2.4c0.3-0.2,0.7-0.3,1-0.5v0.6c1.2-0.5,2.1-1.1,2.7-1.8h-2.3
			v-0.8h1.4c-0.2-0.4-0.3-0.7-0.6-1l0.7-0.3c0.2,0.4,0.4,0.8,0.6,1.3h1v-1.7c-0.9,0-1.8,0.1-2.8,0.1l-0.3-0.7c2.6,0,4.7-0.2,6.4-0.6
			l0.4,0.7c-0.9,0.2-1.9,0.4-3,0.5v1.8h0.9c0.3-0.5,0.5-1,0.7-1.6l0.7,0.3c-0.2,0.5-0.4,0.9-0.7,1.3h1.5v0.8h-2.4
			c0.6,0.6,1.5,1.2,2.7,1.7l-0.4,0.7c-1.2-0.6-2.2-1.4-3-2.4h-0.1v1.7h-0.8v-1.7h-0.1c-0.5,0.8-1.2,1.5-2.2,2.1h5.7v5.1h-0.8v-0.6
			H172.5z M172.5,220.7v1.2h1.8v-1.2H172.5z M172.5,222.5v1.2h1.8v-1.2H172.5z M176.9,221.9v-1.2h-1.8v1.2H176.9z M176.9,223.7v-1.2
			h-1.8v1.2H176.9z"/>
		<path class="st13" d="M188,214.5v3.9h2.2v0.8h-4.8v1.4c0.3,0.3,0.6,0.6,0.9,0.9c0.9-0.5,1.6-1.2,2.2-2.1l0.7,0.6
			c-0.7,0.9-1.4,1.5-2.3,2c0.9,0.7,2,1.4,3.3,1.9l-0.4,0.8c-1.8-0.9-3.3-1.9-4.4-3.2v2.5c0,0.7-0.3,1.1-0.9,1.1H183l-0.2-0.8
			c0.4,0,0.9,0.1,1.3,0.1c0.2,0,0.4-0.2,0.4-0.5v-2.2c-1.2,1.1-2.7,2.1-4.4,3l-0.3-0.8c1.8-0.9,3.4-1.9,4.8-3.1v-1.5h-4.6v-0.8h7.2
			v-1.2h-5.6v-0.8h5.6v-1.2h-6v-0.8H188z M183,221.1l-0.6,0.6c-0.5-0.5-1.1-1-1.9-1.5l0.6-0.6C181.9,220.1,182.5,220.6,183,221.1z"
			/>
		<path class="st13" d="M192.1,217.5l-0.7-0.5c0.6-0.6,1-1.5,1.2-2.7l0.8,0.1c-0.1,0.4-0.1,0.7-0.2,1.1h1.4V214h0.9v1.5h2.2v0.8
			h-2.2v1.5h2.6v0.8h-2.6v1.3h2.3v3.2c0,0.7-0.4,1.1-1.1,1.1H196l-0.2-0.8l0.6,0c0.3,0,0.5-0.2,0.5-0.5v-2.2h-1.5v4.3h-0.9v-4.3H193
			v3.5h-0.8v-4.3h2.4v-1.3h-2.9v-0.8h2.9v-1.5h-1.7C192.7,216.8,192.4,217.2,192.1,217.5z M199.6,215.1v7.4h-0.8v-7.4H199.6z
			 M199.1,224.9l-0.2-0.8c0.6,0,1.1,0.1,1.7,0.1c0.4,0,0.6-0.2,0.6-0.6V214h0.9v9.7c0,0.7-0.4,1.1-1.1,1.1H199.1z"/>
	</g>
</g>
<g id="Textbasic32" transform="translate(35,154)">
	<rect x="-8" y="27" class="st14" width="80" height="20"/>
	<g transform="translate(0 0)">
		<g class="st3">
			<path class="st13" d="M-7.2,38.7l-0.3-0.9c1.6-1.4,2.7-2.7,3.2-4h-3v-0.8h1.9c-0.2-0.5-0.4-1.1-0.7-1.6l0.8-0.2
				c0.3,0.6,0.5,1.2,0.7,1.7l-0.3,0.1h1.5v0.7c-0.3,0.9-0.8,1.7-1.4,2.6c0.7,0.4,1.3,0.9,1.8,1.4l-0.5,0.7c-0.4-0.5-0.9-0.9-1.3-1.2
				v5.1h-0.9v-5C-6.2,37.7-6.7,38.2-7.2,38.7z M0.4,33.4v2.3c0,1.8-0.4,3.2-0.9,4.3c-0.6,1-1.5,1.8-2.8,2.3l-0.5-0.8
				c1.3-0.6,2.1-1.3,2.6-2.2c0.5-0.9,0.7-2.2,0.7-3.7v-2.3H0.4z M2.6,38.3H1.7v-5.8h-3.4v5.8h-0.9v-6.6h5.1V38.3z M1.2,42
				c-0.7,0-1-0.3-1-1v-2.7H1v2.5c0,0.3,0.1,0.4,0.4,0.4h0.7c0.2,0,0.3-0.1,0.4-0.2c0.1-0.2,0.2-0.6,0.2-1.4l0.8,0.3
				c-0.1,1-0.2,1.6-0.4,1.8C3,41.9,2.7,42,2.3,42H1.2z"/>
			<path class="st13" d="M7.8,31.2v1.4h1.6v0.8H7.8v1.4h1.8v0.8H4.5v-0.8h0.7v-2.7h0.8v2.7H7v-3.6H7.8z M6.3,37
				c-0.3,1.1-0.6,2-1.1,2.6l-0.6-0.6c0.4-0.6,0.8-1.4,1-2.3L6.3,37z M9.7,36.8c-0.5,2.7-2.1,4.4-4.6,5.3l-0.5-0.8
				C7,40.6,8.5,39,9,36.7L9.7,36.8z M7.8,36.1v3.1H7v-3.1H7.8z M13,35.3v2.1c0,1.3-0.3,2.3-0.8,3.1c-0.5,0.7-1.3,1.3-2.4,1.7
				l-0.5-0.7c1.1-0.4,1.8-0.9,2.2-1.5c0.4-0.6,0.6-1.5,0.6-2.5v-2.1H13z M15.4,31.7v0.8H13c0,0.5-0.1,0.9-0.1,1.3H15v5.7h-0.8v-4.9
				H11v4.9h-0.8v-5.7H12c0.1-0.4,0.1-0.9,0.2-1.3H9.8v-0.8H15.4z M15.5,41.6l-0.6,0.6c-0.5-0.7-1.2-1.4-2-2.1l0.6-0.6
				C14.3,40.3,15,40.9,15.5,41.6z"/>
			<path class="st13" d="M21.9,31.2v3.7h4.4v0.8h-4.4v5.1h5.5v0.8H16.7v-0.8H21v-9.7H21.9z"/>
			<path class="st13" d="M28.7,37l-0.3-0.9c1.3-1.4,2.2-3.1,2.8-4.9l0.8,0.4c-0.3,0.9-0.7,1.8-1.2,2.6v8H30v-6.7
				C29.6,36,29.2,36.6,28.7,37z M34.5,32.7l0.4-1.5l0.8,0.1c-0.1,0.5-0.2,1-0.3,1.5H39v0.8h-3.8c-0.1,0.5-0.3,0.9-0.4,1.4h4.7v0.8
				h-5c-0.2,0.6-0.4,1.1-0.6,1.5h4.9v0.7c-0.5,0.8-1.3,1.7-2.4,2.5c0.6,0.3,1.1,0.6,1.6,1l-0.5,0.7c-1.5-1-3-1.8-4.5-2.4l0.5-0.7
				c0.7,0.3,1.5,0.6,2.2,0.9c0.9-0.7,1.7-1.3,2.2-2.1h-5.1c0.3-0.7,0.6-1.5,0.9-2.3h-2V35h2.3c0.1-0.5,0.3-0.9,0.4-1.4h-2.1v-0.8
				H34.5z"/>
		</g>
	</g>
</g>
<g id="assistantgroup" transform="translate(0,0)">
</g>
<g id="Link21_1_" transform="translate(0,0)">
	<path class="st8" d="M743.5,447.8h-48l0,0h-37"/>
	<g transform="translate(-0.5, 0)">
		<polygon class="st9" points="663.5,443.2 657.5,447.8 663.5,452.2 		"/>
	</g>
	<path class="st10" d="M743.5,447.8h-48"/>
	<path class="st10" d="M695.5,447.8L695.5,447.8"/>
	<path class="st10" d="M695.5,447.8h-37"/>
</g>
<g id="RectEndPoint13" transform="translate(706.1640625,373)">
	<rect x="32" y="51.8" class="st11" width="108.7" height="50"/>
	<rect x="30" y="49.8" class="st12" width="108.7" height="50"/>
	<g transform="translate(20 9)">
		<g class="st3">
			<path class="st4" d="M32.1,60.7v9h5.8v1H31v-10H32.1z"/>
			<path class="st4" d="M44.9,64.4c0.6,0.7,0.9,1.6,0.9,2.7c0,1.1-0.3,2-0.9,2.7c-0.7,0.8-1.5,1.1-2.6,1.1c-1.1,0-1.9-0.4-2.6-1.1
				c-0.6-0.7-0.9-1.6-0.9-2.7c0-1.1,0.3-2,0.9-2.7c0.6-0.8,1.5-1.1,2.6-1.1C43.4,63.3,44.3,63.7,44.9,64.4z M40.5,65.1
				c-0.4,0.5-0.6,1.2-0.6,2c0,0.8,0.2,1.5,0.6,2c0.4,0.6,1,0.9,1.8,0.9c0.8,0,1.4-0.3,1.8-0.9c0.4-0.5,0.6-1.2,0.6-2
				c0-0.8-0.2-1.5-0.6-2c-0.4-0.6-1-0.9-1.8-0.9C41.6,64.2,41,64.5,40.5,65.1z"/>
			<path class="st4" d="M52.6,63.9c0.6,0.4,0.9,1.1,1,2h-1.1c-0.1-0.6-0.3-1-0.7-1.3c-0.4-0.3-0.8-0.4-1.4-0.4
				c-0.7,0-1.3,0.3-1.7,0.8c-0.4,0.5-0.6,1.2-0.6,2.1c0,0.9,0.2,1.6,0.6,2.1c0.4,0.5,0.9,0.8,1.7,0.8c1.2,0,1.9-0.6,2.1-1.9h1.1
				c-0.2,0.9-0.5,1.6-1.1,2.1c-0.5,0.5-1.3,0.7-2.2,0.7c-1.1,0-1.9-0.4-2.5-1.1c-0.6-0.7-0.9-1.6-0.9-2.7s0.3-2,0.9-2.7
				c0.6-0.8,1.5-1.1,2.5-1.1C51.3,63.3,52,63.5,52.6,63.9z"/>
			<path class="st4" d="M60.4,64.1c0.4,0.5,0.6,1.1,0.6,2v4.7H60v-1.2c-0.3,0.4-0.7,0.7-1.1,1c-0.5,0.3-1.1,0.4-1.8,0.4
				c-0.7,0-1.3-0.2-1.7-0.5c-0.4-0.4-0.7-0.9-0.7-1.5c0-0.8,0.3-1.4,1-1.9c0.6-0.4,1.4-0.6,2.5-0.6l1.7,0v-0.4
				c0-1.2-0.6-1.8-1.9-1.8c-0.5,0-1,0.1-1.3,0.3c-0.4,0.2-0.6,0.6-0.7,1l-1.1-0.1c0.2-0.8,0.5-1.3,1.1-1.7c0.5-0.3,1.2-0.5,2.1-0.5
				C59.2,63.3,59.9,63.6,60.4,64.1z M58.3,67.3c-1.6,0-2.4,0.6-2.4,1.6c0,0.3,0.1,0.6,0.4,0.8c0.3,0.2,0.6,0.3,1.1,0.3
				c0.7,0,1.3-0.2,1.8-0.7c0.5-0.4,0.8-0.9,0.8-1.5v-0.6L58.3,67.3z"/>
			<path class="st4" d="M64.1,60.6v10.2H63V60.6H64.1z"/>
			<path class="st4" d="M74.5,60.7c1.6,0,2.8,0.4,3.6,1.4c0.7,0.8,1.1,2.1,1.1,3.6c0,1.5-0.4,2.8-1.2,3.6c-0.8,0.9-2,1.4-3.6,1.4
				h-3.5v-10H74.5z M72,69.8h2.1c1.3,0,2.3-0.4,2.9-1c0.6-0.7,0.9-1.7,0.9-3c0-1.3-0.3-2.3-0.9-3c-0.6-0.7-1.6-1-2.9-1H72V69.8z"/>
			<path class="st4" d="M82,60.7l5.7,8.1h0v-8.1h1.1v10h-1.2L82,62.5h0v8.2h-1.1v-10H82z"/>
			<path class="st4" d="M96.9,61.3c0.7,0.5,1.1,1.3,1.1,2.4h-1.1c-0.1-0.7-0.4-1.3-0.8-1.6c-0.4-0.4-1.1-0.5-1.9-0.5
				c-0.7,0-1.3,0.1-1.7,0.4c-0.5,0.3-0.7,0.7-0.7,1.3c0,0.5,0.3,0.9,0.9,1.2c0.3,0.1,0.9,0.3,1.8,0.6c1.3,0.4,2.2,0.7,2.6,1
				c0.8,0.5,1.2,1.2,1.2,2.1c0,0.9-0.4,1.6-1,2.1c-0.7,0.5-1.6,0.7-2.8,0.7c-1.2,0-2.1-0.3-2.8-0.8c-0.8-0.6-1.2-1.5-1.3-2.7h1.1
				c0.1,0.9,0.4,1.5,0.9,1.9c0.5,0.4,1.1,0.6,2,0.6c0.8,0,1.5-0.2,2-0.5c0.5-0.3,0.8-0.7,0.8-1.3c0-0.6-0.3-1.1-1-1.5
				c-0.3-0.2-1-0.4-2.1-0.7c-1.2-0.4-2-0.6-2.3-0.8c-0.8-0.4-1.1-1.1-1.1-1.9c0-0.9,0.4-1.6,1.1-2c0.7-0.4,1.5-0.7,2.5-0.7
				C95.3,60.6,96.2,60.8,96.9,61.3z"/>
		</g>
	</g>
</g>
<g id="Link26_1_" transform="translate(0,0)">
	<path class="st8" d="M358.6,182.8v66"/>
	<g transform="translate(0, 0.5)">
		<polygon class="st9" points="363.1,186.8 358.6,180.8 354.1,186.8 		"/>
	</g>
	<path class="st10" d="M358.6,248.8"/>
	<path class="st10" d="M358.6,182.8v66"/>
</g>
<g id="Link26_2_" transform="translate(0,0)">
	<path class="st8" d="M408.2,242h66"/>
	<g transform="translate(0, 0.5)">
		<polygon class="st9" points="469.8,246 475.8,241.5 469.8,237 		"/>
	</g>
	<path class="st10" d="M408.2,242"/>
</g>
<g id="RectEndPoint7" transform="translate(343,192)">
	<rect x="-39.1" y="-64" class="st11" width="112" height="50"/>
	<rect x="-41.1" y="-66" class="st12" width="112" height="50"/>
	<g transform="translate(20 9)">
		<g class="st3">
			<path class="st4" d="M-17.6-56.5v2.5h5v6.6h-1v-0.9h-4v4.8h-1v-4.8h-4v0.9h-1V-54h5v-2.5H-17.6z M-18.7-49.3V-53h-4v3.7H-18.7z
				 M-13.6-49.3V-53h-4v3.7H-13.6z"/>
			<path class="st4" d="M-8.8-54.1v10.5h-1v-10.5H-8.8z M-6-54l-0.9,0.5c-0.5-1-1.1-1.8-1.7-2.6l0.9-0.4C-7.1-55.8-6.5-55-6-54z
				 M-1.5-52.6v6.5h-5.3v-6.5H-1.5z M-2.5-49.8v-1.9h-3.4v1.9H-2.5z M-2.5-48.9h-3.4v1.9h3.4V-48.9z M-1.1-43.7l-0.3-0.9l1.2,0
				c0.4,0,0.6-0.3,0.6-0.9v-9.3H-5v-0.9h6.4v10.5c0,1-0.5,1.5-1.4,1.5H-1.1z"/>
			<path class="st4" d="M6.6-50.7L5.9-50c-0.6-0.7-1.3-1.4-2.3-2.1l0.7-0.7C5.1-52,5.9-51.3,6.6-50.7z M6.7-48.6
				c-0.6,1.8-1.3,3.4-2.1,5l-0.9-0.4c0.8-1.6,1.6-3.2,2.2-4.9L6.7-48.6z M7-54l-0.7,0.7c-0.6-0.7-1.5-1.4-2.5-2.2l0.7-0.7
				C5.5-55.4,6.3-54.7,7-54z M11.6-53.7c0.2-0.4,0.3-0.9,0.4-1.3H8.6v4.1c-0.1,3-0.6,5.5-1.6,7.3l-0.8-0.7c0.9-1.6,1.3-3.8,1.4-6.6
				v-5H16v0.9h-3.1c-0.1,0.5-0.2,0.9-0.4,1.3h2.7v4.9H13v4c0,0.8-0.4,1.1-1.1,1.1h-1.2l-0.2-0.9c0.4,0,0.7,0.1,1.1,0.1
				c0.3,0,0.5-0.2,0.5-0.5v-3.7H9.6v-4.9H11.6z M10.8-47.5c-0.4,1.2-0.9,2.3-1.5,3.2l-0.8-0.5c0.7-0.9,1.1-1.8,1.4-2.9L10.8-47.5z
				 M14.4-51.6v-1.3h-3.9v1.3H14.4z M14.4-50.8h-3.9v1.3h3.9V-50.8z M16.2-44.7l-0.9,0.4c-0.4-1.2-1-2.3-1.5-3.2l0.8-0.3
				C15.3-46.8,15.8-45.8,16.2-44.7z"/>
		</g>
	</g>
</g>
<g>
	<rect x="484.3" y="111" class="st15" width="173.3" height="166.5"/>
	<g id="Rects11" transform="translate(343,77)">
		<rect x="154.2" y="49" class="st16" width="148" height="62"/>
		<rect x="166.2" y="61" class="st11" width="136" height="50"/>
		<rect x="164.2" y="59" class="st12" width="136" height="50"/>
		<rect x="161.2" y="56" class="st11" width="136" height="50"/>
		<rect x="159.2" y="54" class="st12" width="136" height="50"/>
		<rect x="156.2" y="51" class="st11" width="136" height="50"/>
		<rect x="154.2" y="49" class="st12" width="136" height="50"/>
		<g transform="translate(20 9)">
			<g class="st3">
				<path class="st4" d="M203.3,71.1c-1,0-1.7-0.1-2.3-0.3c-0.6-0.2-1.1-0.5-1.6-1c-0.2-0.2-0.4-0.3-0.6-0.3c-0.3,0-0.9,0.6-1.7,2
					l-0.8-0.7c0.8-1.2,1.4-1.9,2-2.2v-4.2h-2v-1h3v5.3c0.1,0.1,0.2,0.2,0.4,0.3c0.4,0.4,0.7,0.7,1.1,0.9c0.4,0.2,1.1,0.3,2,0.3
					c0.8,0,1.7,0,2.9,0c0.6,0,1.2,0,1.9,0c0.6,0,1.1,0,1.5-0.1l-0.3,1h-3C205.2,71.2,204.3,71.1,203.3,71.1z M199.8,61l-0.7,0.7
					c-0.6-0.7-1.4-1.4-2.4-2.2l0.7-0.7C198.4,59.5,199.2,60.2,199.8,61z M204.4,58.6v2.2h4c0,3.9-0.2,6.2-0.6,6.9
					c-0.4,0.8-1.1,1.1-2.1,1.1c-0.3,0-0.6,0-1,0l-0.3-1c0.4,0,0.7,0.1,1,0.1c0.8,0,1.4-0.3,1.6-1c0.2-0.6,0.3-2.4,0.4-5.2h-3.1
					c-0.1,3.3-1.2,5.7-3.2,7.2l-0.8-0.7c1.9-1.4,2.8-3.6,3-6.5h-2.6v-1h2.7v-2.2H204.4z"/>
				<path class="st4" d="M213.5,58.9c-0.7,1.8-1.3,3.3-2,4.4c0.6-0.1,1.1-0.2,1.7-0.3c0.3-0.6,0.5-1.1,0.8-1.8l0.9,0.3
					c-1.2,2.4-2.1,4.1-2.9,5.2c0.8-0.2,1.6-0.5,2.5-0.8v0.9c-1.3,0.6-2.5,0.9-3.7,1.1l-0.3-1c0.2-0.1,0.3-0.2,0.5-0.3
					c0.5-0.5,1.1-1.5,1.8-2.8c-0.7,0.2-1.5,0.3-2.2,0.4l-0.3-1c0.2-0.1,0.3-0.2,0.4-0.4c0.7-1.3,1.3-2.8,1.8-4.4L213.5,58.9z
					 M214.6,69.5c-1.2,0.5-2.6,0.9-4.1,1.3l-0.1-1c1.6-0.3,3-0.7,4.2-1.2V69.5z M217.2,58.5l1,0.2l-0.3,0.8h4v0.4l-1.2,3.2h2.3V64
					h-3.8c-0.2,0.3-0.5,0.5-0.8,0.8c0.5,0.4,0.9,1,1.1,1.5c0.8-0.4,1.6-1,2.4-1.8l0.6,0.6c-0.4,0.5-0.9,0.9-1.4,1.2
					c0.5,1.6,1.2,2.7,2.1,3.5l-0.7,0.8c-0.9-0.9-1.6-2.2-2.1-3.8c-0.2,0.1-0.4,0.2-0.6,0.3c0.2,0.6,0.3,1.2,0.4,1.9
					c0,0.9-0.1,1.5-0.3,1.9c-0.2,0.4-0.8,0.6-1.6,0.6h-0.8l-0.3-0.8h1c0.5,0,0.8-0.1,0.9-0.3c0.1-0.2,0.2-0.7,0.2-1.3l0-0.6
					c-1.2,1.1-2.6,1.9-4.1,2.4l-0.6-0.8c1.8-0.6,3.2-1.4,4.5-2.5c-0.1-0.3-0.2-0.6-0.4-0.9c-1,0.8-2.1,1.5-3.3,1.9l-0.5-0.7
					c1.3-0.4,2.4-1,3.4-1.8c-0.2-0.2-0.4-0.5-0.6-0.7c-0.7,0.4-1.5,0.8-2.4,1.1l-0.5-0.8c1.6-0.5,2.6-1,3.2-1.6H215v-0.9h4.7
					l0.3-0.9h-4.3L217.2,58.5z M220.7,60.3h-3.2l-0.5,1.1h3.3L220.7,60.3z"/>
				<path class="st4" d="M227.9,59.9v-1.4h1v1.4h3.7v-1.4h1v1.4h3.2v1h-3.2v1.3h-1v-1.3h-3.7v1.3h-1v-1.3h-3.2v-1H227.9z
					 M225.2,63.9v-1h10.4c-0.1,2.3-0.1,3.7-0.2,4.2c-0.1,0.8-0.2,1.3-0.4,1.5c-0.3,0.3-0.7,0.4-1.3,0.4c-0.4,0-0.9,0-1.5,0l-0.3-1
					c0.5,0,1,0,1.5,0c0.4,0,0.6-0.1,0.8-0.3c0.2-0.2,0.3-0.7,0.3-1.4c0-0.4,0-1.2,0.1-2.5h-4.4v7.4h-1v-7.4H225.2z"/>
				<path class="st4" d="M241,68.2c-0.5,1.2-1.1,2.3-1.8,3.2l-0.8-0.6c0.7-0.8,1.3-1.8,1.8-3L241,68.2z M245,58.6V60h5.4v1H245v1.8
					h4.5v4.5h-9.3v-4.5h3.8v-4.1H245z M248.4,63.6h-7.3v2.6h7.3V63.6z M244,71.2l-1,0.2c-0.2-1.1-0.4-2.2-0.7-3l0.9-0.2
					C243.5,69.1,243.7,70.1,244,71.2z M247.2,71.2l-1,0.2c-0.3-1.2-0.6-2.2-1.1-3.2l1-0.2C246.5,69,246.9,70.1,247.2,71.2z
					 M251,70.9l-0.8,0.6c-0.5-1-1.2-2-2-3.1l0.8-0.5C249.9,69,250.6,70,251,70.9z"/>
			</g>
			<g>
				<defs>
					<path id="SVGID_1_" d="M181.9,60.3l2-1.3v11v2l-14,8l-14-8v-2V58v-2l14-8l13.2,7.5l-1.6,1.1L169.9,50l-12,6.9v14.3l12,6.9
						l12-6.9V60.3z M170.9,65.7V67h-2v-1.3c-0.6-0.3-1-1-1-1.7c0-1.1,0.9-2,2-2s2,0.9,2,2C171.9,64.8,171.5,65.4,170.9,65.7z
						 M174.9,67c0-0.7,0.4-1.4,1-1.7v-0.2v-2.9l-2,1.1l-1-1.7l2-1.2c0-0.1,0-0.3,0-0.4l-4-2.3c-0.3,0.2-0.6,0.3-1,0.3
						s-0.7-0.1-1-0.3l-4,2.3c0,0.1,0,0.3,0,0.4l2.1,1.2l-1,1.7l-2-1.2v2.9v0.2c0.6,0.3,1,1,1,1.7l4,2.3c0.3-0.2,0.6-0.3,1-0.3
						s0.7,0.1,1,0.3L174.9,67z M175.9,68.7l-4,2.3c0,1.1-0.9,2-2,2c-1.1,0-2-0.9-2-2l-4-2.3c-0.3,0.2-0.6,0.3-1,0.3
						c-1.1,0-2-0.9-2-2c0-0.7,0.4-1.4,1-1.7v-0.2v-3.1v-0.3c-0.6-0.3-1-1-1-1.7c0-1.1,0.9-2,2-2c0.4,0,0.7,0.1,1,0.3l4-2.3
						c0-1.1,0.9-2,2-2c1.1,0,2,0.9,2,2l4,2.3c0.3-0.2,0.6-0.3,1-0.3c1.1,0,2,0.9,2,2c0,0.7-0.4,1.4-1,1.7v3.3v0.2c0.6,0.3,1,1,1,1.7
						c0,1.1-0.9,2-2,2C176.6,69,176.2,68.9,175.9,68.7z"/>
				</defs>
				<clipPath id="SVGID_2_">
					<use xlink:href="#SVGID_1_"  style="overflow:visible;"/>
				</clipPath>
				<g class="st17">
					<defs>
						<rect id="SVGID_3_" x="153.9" y="48" width="32" height="32"/>
					</defs>
					<clipPath id="SVGID_4_">
						<use xlink:href="#SVGID_3_"  style="overflow:visible;"/>
					</clipPath>
					<rect x="150.9" y="43" class="st18" width="38" height="42"/>
				</g>
			</g>
		</g>
	</g>
	<g id="Rects11_1_" transform="translate(343,77)">
		<rect x="155.2" y="125" class="st16" width="148" height="62"/>
		<rect x="167.2" y="137" class="st11" width="136" height="50"/>
		<rect x="165.2" y="135" class="st12" width="136" height="50"/>
		<rect x="162.2" y="132" class="st11" width="136" height="50"/>
		<rect x="160.2" y="130" class="st12" width="136" height="50"/>
		<rect x="157.2" y="127" class="st11" width="136" height="50"/>
		<rect x="155.2" y="125" class="st12" width="136" height="50"/>
		<g transform="translate(20 9)">
			<g class="st3">
				<path class="st4" d="M204.3,147.1c-1,0-1.7-0.1-2.3-0.3c-0.6-0.2-1.1-0.5-1.6-1c-0.2-0.2-0.4-0.3-0.6-0.3c-0.3,0-0.9,0.6-1.7,2
					l-0.8-0.7c0.8-1.2,1.4-1.9,2-2.2v-4.2h-2v-1h3v5.3c0.1,0.1,0.2,0.2,0.4,0.3c0.4,0.4,0.7,0.7,1.1,0.9c0.4,0.2,1.1,0.3,2,0.3
					c0.8,0,1.7,0,2.9,0c0.6,0,1.2,0,1.9,0c0.6,0,1.1,0,1.5-0.1l-0.3,1h-3C206.2,147.2,205.3,147.1,204.3,147.1z M200.8,136.9
					l-0.7,0.7c-0.6-0.7-1.4-1.4-2.4-2.2l0.7-0.7C199.4,135.5,200.2,136.2,200.8,136.9z M205.4,134.6v2.2h4c0,3.9-0.2,6.2-0.6,6.9
					c-0.4,0.8-1.1,1.1-2.1,1.1c-0.3,0-0.6,0-1,0l-0.3-1c0.4,0,0.7,0.1,1,0.1c0.8,0,1.4-0.3,1.6-1c0.2-0.6,0.3-2.4,0.4-5.2h-3.1
					c-0.1,3.3-1.2,5.7-3.2,7.2l-0.8-0.7c1.9-1.4,2.8-3.6,3-6.5h-2.6v-1h2.7v-2.2H205.4z"/>
				<path class="st4" d="M214.5,134.9c-0.7,1.8-1.3,3.3-2,4.4c0.6-0.1,1.1-0.2,1.7-0.3c0.3-0.6,0.5-1.1,0.8-1.8l0.9,0.3
					c-1.2,2.4-2.1,4.1-2.9,5.2c0.8-0.2,1.6-0.5,2.5-0.8v0.9c-1.3,0.6-2.5,0.9-3.7,1.1l-0.3-1c0.2-0.1,0.3-0.2,0.5-0.3
					c0.5-0.5,1.1-1.5,1.8-2.8c-0.7,0.2-1.5,0.3-2.2,0.4l-0.3-1c0.2-0.1,0.3-0.2,0.4-0.4c0.7-1.3,1.3-2.8,1.8-4.4L214.5,134.9z
					 M215.6,145.5c-1.2,0.5-2.6,0.9-4.1,1.3l-0.1-1c1.6-0.3,3-0.7,4.2-1.2V145.5z M218.2,134.5l1,0.2l-0.3,0.8h4v0.4l-1.2,3.2h2.3
					v0.9h-3.8c-0.2,0.3-0.5,0.5-0.8,0.8c0.5,0.4,0.9,1,1.1,1.5c0.8-0.4,1.6-1,2.4-1.8l0.6,0.6c-0.4,0.5-0.9,0.9-1.4,1.2
					c0.5,1.6,1.2,2.7,2.1,3.5l-0.7,0.8c-0.9-0.9-1.6-2.2-2.1-3.8c-0.2,0.1-0.4,0.2-0.6,0.3c0.2,0.6,0.3,1.2,0.4,1.9
					c0,0.9-0.1,1.5-0.3,1.9c-0.2,0.4-0.8,0.6-1.6,0.6h-0.8l-0.3-0.8h1c0.5,0,0.8-0.1,0.9-0.3c0.1-0.2,0.2-0.7,0.2-1.3l0-0.6
					c-1.2,1.1-2.6,1.9-4.1,2.4l-0.6-0.8c1.8-0.6,3.2-1.4,4.5-2.5c-0.1-0.3-0.2-0.6-0.4-0.9c-1,0.8-2.1,1.5-3.3,1.9l-0.5-0.7
					c1.3-0.4,2.4-1,3.4-1.8c-0.2-0.2-0.4-0.5-0.6-0.7c-0.7,0.4-1.5,0.8-2.4,1.1l-0.5-0.8c1.6-0.5,2.6-1,3.2-1.6H216v-0.9h4.7
					l0.3-0.9h-4.3L218.2,134.5z M221.7,136.3h-3.2l-0.5,1.1h3.3L221.7,136.3z"/>
				<path class="st4" d="M228.9,135.9v-1.4h1v1.4h3.7v-1.4h1v1.4h3.2v1h-3.2v1.3h-1v-1.3h-3.7v1.3h-1v-1.3h-3.2v-1H228.9z
					 M226.2,139.9v-1h10.4c-0.1,2.3-0.1,3.7-0.2,4.2c-0.1,0.8-0.2,1.3-0.4,1.5c-0.3,0.3-0.7,0.4-1.3,0.4c-0.4,0-0.9,0-1.5,0l-0.3-1
					c0.5,0,1,0,1.5,0c0.4,0,0.6-0.1,0.8-0.3c0.2-0.2,0.3-0.7,0.3-1.4c0-0.4,0-1.2,0.1-2.5h-4.4v7.4h-1v-7.4H226.2z"/>
				<path class="st4" d="M242,144.2c-0.5,1.2-1.1,2.3-1.8,3.2l-0.8-0.6c0.7-0.8,1.3-1.8,1.8-3L242,144.2z M246,134.6v1.4h5.4v1H246
					v1.8h4.5v4.5h-9.3v-4.5h3.8v-4.1H246z M249.4,139.6h-7.3v2.6h7.3V139.6z M245,147.2l-1,0.2c-0.2-1.1-0.4-2.2-0.7-3l0.9-0.2
					C244.5,145.1,244.7,146.1,245,147.2z M248.2,147.2l-1,0.2c-0.3-1.2-0.6-2.2-1.1-3.2l1-0.2C247.5,145,247.9,146.1,248.2,147.2z
					 M252,146.8l-0.8,0.6c-0.5-1-1.2-2-2-3.1l0.8-0.5C250.9,145,251.6,146,252,146.8z"/>
			</g>
			<g>
				<defs>
					<path id="SVGID_5_" d="M182.9,136.3l2-1.3v11v2l-14,8l-14-8v-2v-12v-2l14-8l13.2,7.5l-1.6,1.1l-11.6-6.6l-12,6.9v14.3l12,6.9
						l12-6.9V136.3z M171.9,141.7v1.3h-2v-1.3c-0.6-0.3-1-1-1-1.7c0-1.1,0.9-2,2-2s2,0.9,2,2C172.9,140.8,172.5,141.4,171.9,141.7z
						 M175.9,143c0-0.7,0.4-1.4,1-1.7v-0.2v-2.9l-2,1.1l-1-1.7l2-1.2c0-0.1,0-0.3,0-0.4l-4-2.3c-0.3,0.2-0.6,0.3-1,0.3
						s-0.7-0.1-1-0.3l-4,2.3c0,0.1,0,0.3,0,0.4l2.1,1.2l-1,1.7l-2-1.2v2.9v0.2c0.6,0.3,1,1,1,1.7l4,2.3c0.3-0.2,0.6-0.3,1-0.3
						s0.7,0.1,1,0.3L175.9,143z M176.9,144.7l-4,2.3c0,1.1-0.9,2-2,2c-1.1,0-2-0.9-2-2l-4-2.3c-0.3,0.2-0.6,0.3-1,0.3
						c-1.1,0-2-0.9-2-2c0-0.7,0.4-1.4,1-1.7v-0.2V138v-0.3c-0.6-0.3-1-1-1-1.7c0-1.1,0.9-2,2-2c0.4,0,0.7,0.1,1,0.3l4-2.3
						c0-1.1,0.9-2,2-2c1.1,0,2,0.9,2,2l4,2.3c0.3-0.2,0.6-0.3,1-0.3c1.1,0,2,0.9,2,2c0,0.7-0.4,1.4-1,1.7v3.3v0.2c0.6,0.3,1,1,1,1.7
						c0,1.1-0.9,2-2,2C177.6,145,177.2,144.9,176.9,144.7z"/>
				</defs>
				<clipPath id="SVGID_6_">
					<use xlink:href="#SVGID_5_"  style="overflow:visible;"/>
				</clipPath>
				<g class="st19">
					<defs>
						<rect id="SVGID_7_" x="154.9" y="124" width="32" height="32"/>
					</defs>
					<clipPath id="SVGID_8_">
						<use xlink:href="#SVGID_7_"  style="overflow:visible;"/>
					</clipPath>
					<rect x="151.9" y="119" class="st20" width="38" height="42"/>
				</g>
			</g>
		</g>
	</g>
</g>
<g id="Link26_3_" transform="translate(0,0)">
	<path class="st8" d="M80,397.5v-66"/>
	<g transform="translate(0, 0.5)">
		<polygon class="st9" points="84.5,335.5 80,329.5 75.5,335.5 		"/>
	</g>
	<path class="st10" d="M80,397.5"/>
	<path class="st10" d="M80,397.5v-66"/>
</g>
<g id="RectEndPoint9" transform="translate(493,192)">
	<rect x="-187.4" y="25" class="st11" width="110" height="50"/>
	<rect x="-189.4" y="23" class="st12" width="110" height="50"/>
	<g transform="translate(20 9)">
		<g class="st3">
			<path class="st4" d="M-185.2,36.2c-0.7,0.7-1.6,1.4-2.6,2.1l-0.7-0.8c1.1-0.6,2-1.3,2.7-2L-185.2,36.2z M-181.8,40.3
				c-0.2,1.8-0.6,3-1.3,3.6c-0.7,0.8-2.4,1.2-4.9,1.4l-0.4-0.9c2.2-0.1,3.7-0.5,4.4-1.1c0.6-0.6,1-1.6,1.1-3.1L-181.8,40.3z
				 M-185.4,33.8l-0.5,0.8c-0.8-0.4-1.5-0.8-2.3-1l0.5-0.8C-186.9,33.1-186.1,33.4-185.4,33.8z M-177.9,42.9h-1v-3.2h-7v3.3h-1v-4.3
				h9V42.9z M-182.3,32.6c-0.1,0.3-0.2,0.6-0.4,0.9h5.6v0.6c-0.2,0.7-0.4,1.4-0.7,2l-1-0.3c0.2-0.4,0.4-0.9,0.6-1.5h-2.4
				c-0.1,0.3-0.1,0.6-0.3,0.9c0.7,1.1,2.2,1.8,4.3,2.2l-0.4,0.9c-2-0.4-3.5-1.2-4.4-2.3c-0.2,0.3-0.4,0.5-0.6,0.7
				c-0.7,0.6-1.8,1.2-3.4,1.5l-0.4-0.9c1.4-0.3,2.4-0.7,3-1.2c0.5-0.5,0.9-1.1,1-1.9h-1.8c-0.4,0.5-0.9,1-1.4,1.4l-0.6-0.8
				c0.9-0.7,1.5-1.5,1.9-2.5L-182.3,32.6z M-176.5,44.6l-0.5,0.8c-1.6-0.8-3.2-1.4-4.9-1.8l0.5-0.8C-179.7,43.4-178,44-176.5,44.6z"
				/>
			<path class="st4" d="M-171.7,38.3l-0.7,0.7c-0.6-0.7-1.3-1.4-2.3-2.1l0.7-0.7C-173.1,37-172.4,37.7-171.7,38.3z M-171.6,40.4
				c-0.6,1.8-1.3,3.4-2.1,5l-0.9-0.4c0.8-1.6,1.6-3.2,2.2-4.9L-171.6,40.4z M-171.3,35l-0.7,0.7c-0.6-0.7-1.5-1.4-2.5-2.2l0.7-0.7
				C-172.8,33.6-172,34.3-171.3,35z M-166.7,35.3c0.2-0.4,0.3-0.9,0.4-1.3h-3.4v4.1c-0.1,3-0.6,5.5-1.6,7.3l-0.8-0.7
				c0.9-1.6,1.3-3.8,1.4-6.6v-5h8.4V34h-3.1c-0.1,0.5-0.2,0.9-0.4,1.3h2.7v4.9h-2.3v4c0,0.8-0.4,1.1-1.1,1.1h-1.2l-0.2-0.9
				c0.4,0,0.7,0.1,1.1,0.1c0.3,0,0.5-0.2,0.5-0.5v-3.7h-2.4v-4.9H-166.7z M-167.4,41.5c-0.4,1.2-0.9,2.3-1.5,3.2l-0.8-0.5
				c0.7-0.9,1.1-1.8,1.4-2.9L-167.4,41.5z M-163.9,37.4v-1.3h-3.9v1.3H-163.9z M-163.9,38.2h-3.9v1.3h3.9V38.2z M-162.1,44.3
				l-0.9,0.4c-0.4-1.2-1-2.3-1.5-3.2l0.8-0.3C-163,42.2-162.5,43.2-162.1,44.3z"/>
			<path class="st4" d="M-158.3,35.9c0.5-0.5,1-1.2,1.4-1.9h-3.5v-0.9h4.6v0.8c-0.6,1-1.2,1.9-1.9,2.7c0.3,0.3,0.5,0.6,0.7,0.8h1.6
				V38c-0.2,1.1-0.5,1.9-0.8,2.6l-0.8-0.3c0.3-0.5,0.5-1.2,0.7-1.9h-1.5v5.9c0,0.7-0.4,1.1-1.1,1.1h-1.3l-0.2-0.9
				c0.4,0,0.8,0.1,1.2,0.1c0.3,0,0.4-0.2,0.4-0.5v-5.6h-2v-0.9h2.7c-0.5-0.6-1.2-1.3-2-2.1l0.7-0.5
				C-158.9,35.3-158.6,35.6-158.3,35.9z M-151.1,37.3v2.5c0,1.5-0.4,2.7-1,3.6c-0.6,0.8-1.6,1.5-3,1.9l-0.5-0.9
				c1.3-0.4,2.3-1,2.8-1.7c0.5-0.8,0.7-1.7,0.8-2.9v-2.5H-151.1z M-148.1,33.1v1h-2.8c-0.1,0.5-0.2,1.1-0.3,1.6h2.6v6.6h-1v-5.7h-4
				v5.7h-1v-6.6h2.3c0.1-0.5,0.2-1,0.3-1.6h-3.1v-1H-148.1z M-147.9,44.7l-0.7,0.7c-0.6-0.8-1.5-1.6-2.5-2.5l0.6-0.6
				C-149.5,43.1-148.6,43.9-147.9,44.7z"/>
			<path class="st4" d="M-142.1,39.1c-0.5,0.3-1.1,0.5-1.6,0.8V44c0,0.8-0.4,1.3-1.2,1.3h-1.3l-0.2-1c0.4,0,0.8,0.1,1.1,0.1
				c0.4,0,0.6-0.2,0.6-0.6v-3.4c-0.6,0.2-1.2,0.5-1.9,0.7l-0.3-1c0.7-0.2,1.4-0.4,2.1-0.7v-3.2h-1.9v-1h1.9v-2.5h1v2.5h1.6v1h-1.6
				v2.8c0.5-0.3,1.1-0.5,1.6-0.8V39.1z M-137.8,43.8c0.6-1.9,1.2-4.3,1.7-7.1l1,0.3c-0.4,2.6-1,4.9-1.6,6.9h2.7v1h-8.1v-1H-137.8z
				 M-138.5,34.8c-0.2-0.8-0.4-1.4-0.7-2.1l1-0.2c0.2,0.7,0.5,1.4,0.7,2.3h3.2v1h-7.4v-1H-138.5z M-139,42.9l-0.9,0.2
				c-0.3-2.1-0.7-4.1-1.2-6l0.9-0.3C-139.7,38.6-139.3,40.6-139,42.9z"/>
			<path class="st4" d="M-130.6,34.3v-1.8h1v1.8h1.7v1h-1.7v2.1c0.6-0.2,1.1-0.3,1.7-0.5v1c-0.5,0.2-1.1,0.3-1.7,0.4v2.2
				c0,0.8-0.4,1.2-1.2,1.2h-1.3l-0.2-1c0.4,0,0.8,0.1,1.2,0.1c0.3,0,0.5-0.2,0.5-0.6v-1.7c-0.7,0.2-1.4,0.3-2.1,0.4l-0.2-1
				c0.8-0.1,1.6-0.3,2.4-0.4v-2.4h-2v-1H-130.6z M-130.1,42.7c-0.5,1.1-1.1,2-1.8,2.8l-0.8-0.6c0.7-0.7,1.3-1.6,1.8-2.6L-130.1,42.7
				z M-127.2,45.2l-1,0.2c-0.2-1-0.4-1.9-0.7-2.6l1-0.2C-127.7,43.4-127.4,44.3-127.2,45.2z M-122,41.2c-0.6-0.7-0.8-2.1-0.8-4.1
				v-1.7h-1.8c0,1.1-0.1,2.1-0.4,2.9c0.6,0.5,1.2,1,1.8,1.6l-0.6,0.9c-0.5-0.5-1.1-1-1.6-1.5c-0.5,1.1-1.1,2-2,2.7l-0.7-0.7
				c0.9-0.7,1.5-1.6,1.9-2.7c-0.4-0.3-0.9-0.6-1.4-0.9l0.5-0.8c0.4,0.2,0.7,0.4,1.1,0.7c0.2-0.7,0.3-1.5,0.3-2.3h-1.6v-1h1.6v-1.8h1
				v1.8h2.8v2.7c0,1.6,0.1,2.7,0.4,3.3c0.1,0.3,0.2,0.4,0.3,0.4c0.1,0,0.2-0.2,0.3-0.5c0.1-0.4,0.1-0.9,0.2-1.6l0.8,0.4
				c-0.1,1.2-0.2,2-0.4,2.3c-0.2,0.3-0.4,0.4-0.6,0.4C-121.3,41.8-121.7,41.6-122,41.2z M-124,45.2l-1,0.2c-0.3-1.1-0.6-2-1-2.8
				l1-0.2C-124.7,43.3-124.3,44.2-124,45.2z M-120.4,44.8l-0.8,0.6c-0.5-0.9-1.1-1.8-1.9-2.8l0.8-0.5
				C-121.5,43.1-120.9,44.1-120.4,44.8z"/>
		</g>
	</g>
</g>
</svg>
