<?xml version="1.0" encoding="UTF-8"?>
<svg width="830px" height="290px" viewBox="0 0 830 290" version="1.1" xmlns="http://www.w3.org/2000/svg" xmlns:xlink="http://www.w3.org/1999/xlink">
    <!-- Generator: Sketch 54.1 (76490) - https://sketchapp.com -->
    <title>DevOps 自动化实践</title>
    <desc>Created with Sketch.</desc>
    <defs>
        <polygon id="path-1" points="137 12 269 12 269 62 137 62"></polygon>
        <filter x="-1.5%" y="-2.0%" width="103.0%" height="108.0%" filterUnits="objectBoundingBox" id="filter-2">
            <feOffset dx="0" dy="1" in="SourceAlpha" result="shadowOffsetOuter1"></feOffset>
            <feGaussianBlur stdDeviation="0.5" in="shadowOffsetOuter1" result="shadowBlurOuter1"></feGaussianBlur>
            <feColorMatrix values="0 0 0 0 0   0 0 0 0 0   0 0 0 0 0  0 0 0 0.35 0" type="matrix" in="shadowBlurOuter1"></feColorMatrix>
        </filter>
        <path d="M20.16,8.86666667 C22.9413333,8.86666667 25.2,11.088 25.2,13.888 C25.2,16.6506667 22.9413333,18.9 20.16,18.9 C18.8066667,18.9 17.5466667,18.3773333 16.5946667,17.4346667 L14,15.1386667 L11.3586667,17.4813333 C10.4533333,18.3866667 9.184,18.9093333 7.84,18.9093333 C5.05866666,18.9093333 2.8,16.6506667 2.8,13.888 C2.8,11.1253333 5.05866666,8.86666667 7.84,8.86666667 C9.184,8.86666667 10.4533333,9.38933333 11.4053333,10.3413333 L14,12.6373333 L16.6413333,10.2946667 C17.5466667,9.38933333 18.816,8.86666667 20.16,8.86666667 L20.16,8.86666667 Z M10.08,16.1186667 L12.6,13.888 L10.1173333,11.6946667 C9.48266668,11.06 8.68933334,10.7333333 7.84,10.7333333 C6.09466666,10.7333333 4.66666666,12.1426667 4.66666666,13.888 C4.66666666,15.6333333 6.09466666,17.0426667 7.84,17.0426667 C8.68933334,17.0426667 9.48266666,16.716 10.08,16.1186667 L10.08,16.1186667 Z M17.92,11.6573333 L15.4,13.888 L17.8826667,16.0813333 C18.5173333,16.716 19.32,17.0426667 20.16,17.0426667 C21.9053333,17.0426667 23.3333333,15.6333333 23.3333333,13.888 C23.3333333,12.1426667 21.9053333,10.7333333 20.16,10.7333333 C19.3106667,10.7333333 18.5173333,11.06 17.92,11.6573333 Z" id="path-3"></path>
        <polygon id="path-5" points="0 0 132 0 132 50 0 50"></polygon>
        <filter x="-1.5%" y="-2.0%" width="103.0%" height="108.0%" filterUnits="objectBoundingBox" id="filter-6">
            <feOffset dx="0" dy="1" in="SourceAlpha" result="shadowOffsetOuter1"></feOffset>
            <feGaussianBlur stdDeviation="0.5" in="shadowOffsetOuter1" result="shadowBlurOuter1"></feGaussianBlur>
            <feColorMatrix values="0 0 0 0 0   0 0 0 0 0   0 0 0 0 0  0 0 0 0.35 0" type="matrix" in="shadowBlurOuter1"></feColorMatrix>
        </filter>
        <polygon id="path-7" points="0 0 132 0 132 50 0 50"></polygon>
        <filter x="-1.5%" y="-2.0%" width="103.0%" height="108.0%" filterUnits="objectBoundingBox" id="filter-8">
            <feOffset dx="0" dy="1" in="SourceAlpha" result="shadowOffsetOuter1"></feOffset>
            <feGaussianBlur stdDeviation="0.5" in="shadowOffsetOuter1" result="shadowBlurOuter1"></feGaussianBlur>
            <feColorMatrix values="0 0 0 0 0   0 0 0 0 0   0 0 0 0 0  0 0 0 0.35 0" type="matrix" in="shadowBlurOuter1"></feColorMatrix>
        </filter>
        <path d="M24.0613333,14 C24.1742667,14 24.2666667,14.0924 24.2666667,14.2053333 L24.2666667,23.4453333 C24.2666667,23.8996333 23.8996333,24.2666667 23.4453333,24.2666667 L4.55466667,24.2666667 C4.10036667,24.2666667 3.73333333,23.8996333 3.73333333,23.4453333 L3.73333333,4.55466667 C3.73333333,4.10036667 4.10036667,3.73333333 4.55466667,3.73333333 L13.7946667,3.73333333 C13.9076,3.73333333 14,3.82573333 14,3.93866667 L14,5.376 C14,5.48893333 13.9076,5.58133333 13.7946667,5.58133333 L5.58133333,5.58133333 L5.58133333,22.4186667 L22.4186667,22.4186667 L22.4186667,14.2053333 C22.4186667,14.0924 22.5110667,14 22.624,14 L24.0613333,14 Z M9.84928364,14.6974074 C9.84928364,14.642963 9.87261589,14.5911111 9.90891049,14.5522222 L20.6884077,3.79296296 C20.7298872,3.75407407 20.7817366,3.73333333 20.8361785,3.73333333 C20.8906204,3.73333333 20.9424699,3.75148148 20.9839494,3.79296296 L24.2063917,7.01296296 C24.2867583,7.09333333 24.2867583,7.22555556 24.2063917,7.30592593 L13.4243021,18.0651852 C13.3880075,18.1014815 13.336158,18.1222222 13.2843086,18.1248148 L10.225192,18.2 L10.2148221,18.2 C9.98409217,18.2 9.79743421,18.0107407 9.80002668,17.78 L9.84928364,14.6974074 Z M11.4955031,15.3092593 L11.4773558,16.5122222 L12.6621154,16.4837037 L22.0079757,7.15814815 L20.8361785,5.98888889 L11.4955031,15.3092593 Z" id="path-9"></path>
        <rect id="path-11" x="0" y="0" width="150" height="50"></rect>
        <filter x="-1.3%" y="-2.0%" width="102.7%" height="108.0%" filterUnits="objectBoundingBox" id="filter-12">
            <feOffset dx="0" dy="1" in="SourceAlpha" result="shadowOffsetOuter1"></feOffset>
            <feGaussianBlur stdDeviation="0.5" in="shadowOffsetOuter1" result="shadowBlurOuter1"></feGaussianBlur>
            <feColorMatrix values="0 0 0 0 0   0 0 0 0 0   0 0 0 0 0  0 0 0 0.35 0" type="matrix" in="shadowBlurOuter1"></feColorMatrix>
        </filter>
        <polygon id="path-13" points="0.5 0 131.5 0 131.5 50 0.5 50"></polygon>
        <filter x="-1.5%" y="-2.0%" width="103.1%" height="108.0%" filterUnits="objectBoundingBox" id="filter-14">
            <feOffset dx="0" dy="1" in="SourceAlpha" result="shadowOffsetOuter1"></feOffset>
            <feGaussianBlur stdDeviation="0.5" in="shadowOffsetOuter1" result="shadowBlurOuter1"></feGaussianBlur>
            <feColorMatrix values="0 0 0 0 0   0 0 0 0 0   0 0 0 0 0  0 0 0 0.35 0" type="matrix" in="shadowBlurOuter1"></feColorMatrix>
        </filter>
        <path d="M21.9385901,0 L7.83521076,0 C7.37293332,0 6.99945494,0.353936557 6.99945494,0.792025862 L6.99945494,6.63321659 L0.835755814,6.63321659 C0.373478379,6.63321659 0,6.98715315 0,7.42524246 L0,14.1574623 C0,14.5955516 0.373478379,14.9494881 0.835755814,14.9494881 L14.9391352,14.9494881 C15.4014126,14.9494881 15.774891,14.5955516 15.774891,14.1574623 L15.774891,8.31627155 L21.9385901,8.31627155 C22.4008676,8.31627155 22.7743459,7.96233499 22.7743459,7.52424569 L22.7743459,0.792025862 C22.7743459,0.353936557 22.4008676,0 21.9385901,0 Z M8.77543605,1.68305496 L13.9989099,1.68305496 L13.9989099,6.63321659 L8.77543605,6.63321659 L8.77543605,1.68305496 Z M6.99945494,13.2664332 L1.7759811,13.2664332 L1.7759811,8.31627155 L6.99945494,8.31627155 L6.99945494,13.2664332 Z M13.9989099,13.2664332 L8.77543605,13.2664332 L8.77543605,8.31627155 L13.9989099,8.31627155 L13.9989099,13.2664332 Z M20.9983648,6.63321659 L15.774891,6.63321659 L15.774891,1.68305496 L20.9983648,1.68305496 L20.9983648,6.63321659 Z" id="path-15"></path>
        <rect id="path-17" x="0" y="0" width="132" height="50"></rect>
        <filter x="-1.5%" y="-2.0%" width="103.0%" height="108.0%" filterUnits="objectBoundingBox" id="filter-18">
            <feOffset dx="0" dy="1" in="SourceAlpha" result="shadowOffsetOuter1"></feOffset>
            <feGaussianBlur stdDeviation="0.5" in="shadowOffsetOuter1" result="shadowBlurOuter1"></feGaussianBlur>
            <feColorMatrix values="0 0 0 0 0   0 0 0 0 0   0 0 0 0 0  0 0 0 0.35 0" type="matrix" in="shadowBlurOuter1"></feColorMatrix>
        </filter>
        <rect id="path-19" x="0" y="0" width="132" height="50"></rect>
        <filter x="-1.5%" y="-2.0%" width="103.0%" height="108.0%" filterUnits="objectBoundingBox" id="filter-20">
            <feOffset dx="0" dy="1" in="SourceAlpha" result="shadowOffsetOuter1"></feOffset>
            <feGaussianBlur stdDeviation="0.5" in="shadowOffsetOuter1" result="shadowBlurOuter1"></feGaussianBlur>
            <feColorMatrix values="0 0 0 0 0   0 0 0 0 0   0 0 0 0 0  0 0 0 0.35 0" type="matrix" in="shadowBlurOuter1"></feColorMatrix>
        </filter>
    </defs>
    <g id="介绍页配图设计" stroke="none" stroke-width="1" fill="none" fill-rule="evenodd">
        <g id="应用场景复制（SVG转曲）" transform="translate(-1112.000000, -4170.000000)">
            <g id="流程1-copy-2复制-15" transform="translate(1112.000000, 4170.000000)">
                <g id="编组-15" transform="translate(25.000000, 0.000000)">
                    <g id="编组-19" transform="translate(169.000000, 0.000000)">
                        <rect id="XMLID_134_" fill="#EAEBEC" x="0" y="0" width="443" height="290"></rect>
                        <g id="编组-20" transform="translate(20.000000, 8.000000)">
                            <g id="XMLID_25_复制-19">
                                <g id="分组-copy">
                                    <g id="XMLID_134_">
                                        <use fill="black" fill-opacity="1" filter="url(#filter-2)" xlink:href="#path-1"></use>
                                        <use fill="#FFFFFF" fill-rule="evenodd" xlink:href="#path-1"></use>
                                    </g>
                                    <path d="M201.806,30.604 L202.8,30.604 L202.8,32.06 L205.67,32.06 L205.67,32.97 L202.8,32.97 L202.8,34.608 L206.202,34.608 L206.202,35.56 L198.558,35.56 L198.558,34.608 L201.806,34.608 L201.806,32.97 L199.062,32.97 L199.062,32.06 L201.806,32.06 L201.806,30.604 Z M198.334,37.352 L203.486,37.352 L203.486,36.274 L204.494,36.274 L204.494,37.352 L206.216,37.352 L206.216,38.29 L204.494,38.29 L204.494,42.056 C204.494,42.882 204.074,43.302 203.262,43.302 L201.4,43.302 L201.176,42.322 C201.778,42.35 202.352,42.378 202.898,42.378 C203.29,42.378 203.486,42.182 203.486,41.804 L203.486,38.29 L198.334,38.29 L198.334,37.352 Z M195.338,43.274 L194.106,43.274 L193.896,42.308 C194.274,42.35 194.638,42.378 194.988,42.378 C195.352,42.378 195.548,42.168 195.548,41.762 L195.548,38.444 C195.002,38.64 194.456,38.822 193.924,38.99 L193.672,37.982 C194.316,37.828 194.932,37.646 195.548,37.422 L195.548,34.216 L193.826,34.216 L193.826,33.25 L195.548,33.25 L195.548,30.744 L196.542,30.744 L196.542,33.25 L197.998,33.25 L197.998,34.216 L196.542,34.216 L196.542,37.03 C197.046,36.806 197.536,36.568 198.012,36.316 L198.012,37.352 C197.536,37.604 197.046,37.828 196.542,38.038 L196.542,42.014 C196.542,42.854 196.136,43.274 195.338,43.274 Z M199.79,38.948 C200.518,39.802 201.078,40.558 201.47,41.202 L200.672,41.762 C200.252,41.062 199.692,40.292 198.978,39.438 L199.79,38.948 Z M212.04,40.446 L212.04,41.398 C210.822,41.902 209.45,42.308 207.91,42.616 L207.784,41.636 C209.408,41.342 210.822,40.95 212.04,40.446 Z M209.912,30.562 L210.864,30.94 C210.22,32.676 209.562,34.076 208.89,35.126 C209.464,35.056 210.038,34.958 210.626,34.846 C210.878,34.384 211.13,33.894 211.396,33.376 L212.32,33.726 C211.102,35.966 210.094,37.576 209.31,38.528 C210.15,38.36 211.004,38.122 211.844,37.814 L211.844,38.724 C210.528,39.172 209.282,39.466 208.092,39.634 L207.812,38.71 C207.994,38.654 208.148,38.556 208.274,38.43 C208.778,37.898 209.394,37.016 210.122,35.77 C209.408,35.896 208.68,36.008 207.952,36.12 L207.7,35.196 C207.854,35.14 207.994,35.014 208.12,34.832 C208.806,33.586 209.408,32.158 209.912,30.562 Z M213.034,31.458 L215.848,31.458 L215.848,30.534 L216.828,30.534 L216.828,31.458 L219.838,31.458 L219.838,32.368 L216.828,32.368 L216.828,33.642 L220.034,33.642 L220.034,34.272 C219.838,35.168 219.572,36.05 219.236,36.918 L218.27,36.638 C218.564,36.022 218.802,35.322 218.998,34.566 L212.6,34.566 L212.6,33.642 L215.848,33.642 L215.848,32.368 L213.034,32.368 L213.034,31.458 Z M212.292,38.682 L216.17,38.682 C216.212,38.374 216.24,38.052 216.254,37.73 L216.254,35.14 L217.234,35.14 L217.234,37.73 C217.22,38.066 217.192,38.374 217.164,38.682 L220.426,38.682 L220.426,39.606 L216.982,39.606 C216.912,39.858 216.842,40.082 216.758,40.306 C218.13,40.95 219.39,41.706 220.524,42.574 L219.964,43.442 C218.788,42.462 217.598,41.664 216.394,41.048 C216.31,41.188 216.212,41.314 216.128,41.44 C215.442,42.294 214.336,42.966 212.796,43.456 L212.236,42.574 C213.734,42.126 214.77,41.524 215.358,40.768 C215.61,40.418 215.806,40.026 215.946,39.606 L212.292,39.606 L212.292,38.682 Z M212.838,36.4 C213.608,36.764 214.308,37.226 214.952,37.758 L214.476,38.5 C213.79,37.912 213.09,37.436 212.362,37.086 L212.838,36.4 Z M213.916,34.958 C214.63,35.294 215.288,35.728 215.89,36.232 L215.414,36.946 C214.77,36.386 214.126,35.938 213.468,35.63 L213.916,34.958 Z M226.278,39.998 L221.966,39.998 L221.966,39.088 L227.538,39.088 L227.538,38.36 L228.546,38.36 L228.546,39.088 L234.034,39.088 L234.034,39.998 L229.792,39.998 C230.744,40.894 232.214,41.608 234.188,42.14 L233.754,43.036 C231.43,42.252 229.792,41.244 228.812,39.998 L228.546,39.998 L228.546,43.414 L227.538,43.414 L227.538,39.998 L227.272,39.998 C226.39,41.188 224.752,42.224 222.358,43.092 L221.826,42.224 C223.982,41.566 225.466,40.824 226.278,39.998 Z M223.338,34.048 C222.974,34.468 222.582,34.86 222.162,35.252 L221.588,34.468 C222.834,33.348 223.758,32.032 224.374,30.52 L225.312,30.758 C225.172,31.136 225.004,31.5 224.836,31.85 L227.86,31.85 C227.664,31.416 227.468,31.01 227.244,30.646 L228.28,30.478 C228.476,30.884 228.658,31.346 228.84,31.85 L233.362,31.85 L233.362,32.69 L228.91,32.69 L228.91,33.642 L232.844,33.642 L232.844,34.426 L228.91,34.426 L228.91,35.35 L232.844,35.35 L232.844,36.134 L228.91,36.134 L228.91,37.128 L233.628,37.128 L233.628,37.982 L223.338,37.982 L223.338,34.048 Z M227.916,37.128 L227.916,36.134 L224.276,36.134 L224.276,37.128 L227.916,37.128 Z M227.916,35.35 L227.916,34.426 L224.276,34.426 L224.276,35.35 L227.916,35.35 Z M227.916,33.642 L227.916,32.69 L224.346,32.69 L224.276,32.802 L224.276,33.642 L227.916,33.642 Z M245.416,30.52 C246.088,31.024 246.662,31.542 247.138,32.06 L246.494,32.704 L248.202,32.704 L248.202,33.67 L243.89,33.67 C243.988,35.406 244.17,36.778 244.422,37.786 C244.506,38.136 244.604,38.458 244.702,38.766 C245.402,37.646 245.962,36.33 246.396,34.832 L247.306,35.224 C246.746,37.072 246.018,38.64 245.122,39.9 C245.318,40.348 245.528,40.74 245.752,41.062 C246.214,41.734 246.592,42.07 246.872,42.07 C247.124,42.056 247.362,41.328 247.572,39.886 L248.482,40.39 C248.146,42.252 247.67,43.19 247.04,43.19 C246.452,43.19 245.822,42.77 245.15,41.93 C244.898,41.594 244.66,41.202 244.45,40.768 C243.47,41.916 242.322,42.77 241.006,43.358 L240.446,42.518 C241.846,41.888 243.036,40.964 244.002,39.746 C243.806,39.228 243.624,38.668 243.47,38.066 C243.162,36.89 242.966,35.42 242.854,33.67 L238.052,33.67 L238.052,35.994 L241.482,35.994 C241.454,38.36 241.342,39.886 241.16,40.572 C240.978,41.174 240.544,41.482 239.844,41.51 C239.508,41.51 239.102,41.482 238.654,41.454 L238.346,40.544 C238.892,40.572 239.354,40.586 239.732,40.586 C240.04,40.572 240.236,40.362 240.32,39.97 C240.404,39.494 240.446,38.486 240.474,36.946 L238.052,36.946 L238.052,37.366 C237.996,39.872 237.436,41.888 236.4,43.4 L235.63,42.714 C236.526,41.426 236.988,39.648 237.03,37.366 L237.03,32.704 L242.812,32.704 C242.784,32.004 242.77,31.29 242.77,30.534 L243.806,30.534 C243.806,31.318 243.82,32.032 243.848,32.704 L246.466,32.704 C246.046,32.2 245.486,31.682 244.772,31.136 L245.416,30.52 Z" id="持续集成" fill="#444444" fill-rule="nonzero"></path>
                                    <text id="持续发布" font-family="PingFangSC-Regular, PingFang SC" font-size="14" font-weight="normal" fill="#444444">
                                        <tspan x="0" y="15">持续发布</tspan>
                                    </text>
                                    <g id="project-menu/iteration" transform="translate(156.000000, 23.000000)">
                                        <g id="Icons-/-rocket" fill="#000000" opacity="0">
                                            <g id="rocket">
                                                <rect id="Rectangle" x="0" y="0" width="28" height="28"></rect>
                                            </g>
                                        </g>
                                        <mask id="mask-4" fill="white">
                                            <use xlink:href="#path-3"></use>
                                        </mask>
                                        <use id="Mask" fill="#00A4FF" fill-rule="nonzero" xlink:href="#path-3"></use>
                                    </g>
                                </g>
                            </g>
                            <g id="分组-30-copy复制-23" transform="translate(304.500000, 72.000000) rotate(-90.000000) translate(-304.500000, -72.000000) translate(264.500000, 46.500000)">
                                <polygon id="XMLID_22_" fill="#878787" transform="translate(74.500000, 2.587253) rotate(-90.000000) translate(-74.500000, -2.587253) " points="72 7.08725265 77 2.58725265 72 -1.91274735"></polygon>
                                <path d="M74.5,49.5 L1.45853523,49.5" id="直线-3" stroke="#878787" stroke-linecap="square"></path>
                                <path d="M75,49.5 L75,4.16105617" id="直线-5" stroke="#878787" stroke-linecap="square"></path>
                            </g>
                            <g id="XMLID_25_复制-20" transform="translate(0.000000, 112.000000)">
                                <g id="分组-copy">
                                    <g id="XMLID_134_">
                                        <use fill="black" fill-opacity="1" filter="url(#filter-6)" xlink:href="#path-5"></use>
                                        <use fill="#FFFFFF" fill-rule="evenodd" xlink:href="#path-5"></use>
                                    </g>
                                    <path d="M68.754,21.908 L68.908,22.874 L64.288,23.462 C64.372,24.358 64.484,25.128 64.624,25.772 C64.96,27.228 65.422,28.348 66.024,29.16 C66.57,29.916 67.088,30.294 67.564,30.308 C67.942,30.294 68.222,29.398 68.418,27.634 L69.3,28.138 C69.118,29.286 68.88,30.14 68.572,30.7 C68.32,31.106 67.998,31.316 67.62,31.33 C66.934,31.33 66.22,30.882 65.492,30 C64.694,29.02 64.106,27.746 63.714,26.178 C63.532,25.478 63.392,24.624 63.294,23.588 L60.256,23.98 L60.102,23.014 L63.21,22.608 C63.112,21.432 63.056,20.074 63.042,18.534 L64.078,18.534 C64.078,20.032 64.12,21.348 64.204,22.482 L68.754,21.908 Z M58.352,23.546 C57.876,24.19 57.344,24.792 56.784,25.38 L56.462,24.33 C58.002,22.636 59.108,20.69 59.808,18.506 L60.746,18.954 C60.382,20.018 59.934,21.026 59.388,21.964 L59.388,31.428 L58.352,31.428 L58.352,23.546 Z M65.604,18.632 C66.458,19.346 67.186,20.06 67.774,20.76 L67.074,21.446 C66.57,20.76 65.856,20.032 64.96,19.262 L65.604,18.632 Z M75.292,23.476 L75.292,30.672 L74.368,30.672 L74.368,29.874 L72.856,29.874 L72.856,30.938 L71.918,30.938 L71.918,25.24 C71.638,25.744 71.33,26.234 70.994,26.71 L70.49,25.898 C71.554,24.274 72.254,22.412 72.59,20.326 L70.882,20.326 L70.882,19.346 L75.656,19.346 L75.656,20.326 L73.542,20.326 C73.346,21.446 73.08,22.496 72.716,23.476 L75.292,23.476 Z M72.856,28.964 L74.368,28.964 L74.368,24.4 L72.856,24.4 L72.856,28.964 Z M77.182,21.082 L78.176,21.152 L77.56,24.68 L80.528,24.68 L81.228,20.102 L76.3,20.102 L76.3,19.15 L82.32,19.15 L81.55,24.68 L83.034,24.68 C83.034,28.068 82.838,30.014 82.474,30.546 C82.082,31.05 81.284,31.316 80.052,31.316 C79.66,31.316 79.24,31.302 78.792,31.274 L78.512,30.294 C79.128,30.35 79.562,30.378 79.814,30.378 C80.892,30.378 81.536,30.14 81.746,29.692 C81.97,29.216 82.082,27.858 82.082,25.618 L76.426,25.618 L77.182,21.082 Z M75.992,27.396 L81.116,27.396 L81.116,28.348 L75.992,28.348 L75.992,27.396 Z M85.568,19.402 L96.474,19.402 L96.474,20.382 L94.136,20.382 L94.136,24.092 L97.202,24.092 L97.202,25.058 L94.136,25.058 L94.136,31.26 L93.114,31.26 L93.114,25.058 L89.068,25.058 C88.942,26.5 88.676,27.69 88.256,28.642 C87.724,29.818 86.842,30.728 85.61,31.372 L85.064,30.504 C86.198,29.86 86.996,29.006 87.444,27.942 C87.738,27.13 87.934,26.178 88.046,25.058 L84.812,25.058 L84.812,24.092 L88.102,24.092 C88.102,23.91 88.116,23.742 88.116,23.602 L88.116,20.382 L85.568,20.382 L85.568,19.402 Z M89.152,20.382 L89.152,23.602 C89.152,23.77 89.138,23.938 89.138,24.092 L93.114,24.092 L93.114,20.382 L89.152,20.382 Z M99.624,22.86 L100.73,18.968 L101.724,19.136 L100.926,21.894 L103.376,21.894 C103.656,20.802 103.88,19.668 104.048,18.464 L105.07,18.59 C104.888,19.766 104.664,20.858 104.412,21.894 L110.964,21.894 L110.964,22.86 L104.146,22.86 C103.978,23.42 103.81,23.952 103.614,24.456 L109.34,24.456 L109.34,25.324 C108.962,26.528 108.206,27.62 107.058,28.6 C108.192,29.272 109.578,29.888 111.202,30.448 L110.684,31.386 C108.892,30.728 107.408,30.014 106.232,29.244 C105.084,30.056 103.656,30.784 101.962,31.442 L101.43,30.504 C102.998,29.93 104.3,29.3 105.35,28.614 C104.258,27.774 103.488,26.864 103.026,25.884 C102.004,28.096 100.688,29.846 99.092,31.148 L98.574,30.224 C100.618,28.432 102.116,25.982 103.096,22.86 L99.624,22.86 Z M103.782,25.38 C104.258,26.332 105.056,27.214 106.176,28.026 C107.212,27.214 107.926,26.332 108.318,25.38 L103.782,25.38 Z M107.422,18.576 C108.43,19.346 109.256,20.116 109.928,20.886 L109.214,21.6 C108.626,20.858 107.8,20.074 106.75,19.234 L107.422,18.576 Z" id="代码开发" fill="#444444" fill-rule="nonzero"></path>
                                    <g id="编组-7" transform="translate(20.000000, 14.000000)" fill-rule="nonzero" stroke="#00A4FF" stroke-width="2">
                                        <rect id="矩形" x="1" y="1" width="24" height="20"></rect>
                                        <polyline id="路径-6" points="9.29980989 15.7778633 6 11.3889316 9.29980989 7"></polyline>
                                        <path d="M16.7134538,15.5 C13.1054046,15.5 11.3013801,15.5 11.3013801,15.5" id="路径-6复制-2"></path>
                                    </g>
                                </g>
                            </g>
                            <g id="XMLID_25_复制-21" transform="translate(0.000000, 212.000000)">
                                <g id="分组-copy">
                                    <g id="XMLID_134_">
                                        <use fill="black" fill-opacity="1" filter="url(#filter-8)" xlink:href="#path-7"></use>
                                        <use fill="#FFFFFF" fill-rule="evenodd" xlink:href="#path-7"></use>
                                    </g>
                                    <path d="M57.512,18.856 C58.296,19.472 58.954,20.102 59.486,20.718 L58.828,21.39 C58.352,20.802 57.68,20.172 56.826,19.514 L57.512,18.856 Z M57.288,22.3 C58.044,22.972 58.688,23.63 59.206,24.302 L58.548,24.96 C58.072,24.33 57.428,23.658 56.602,22.944 L57.288,22.3 Z M58.52,26.066 L59.374,26.402 C58.842,28.11 58.24,29.72 57.596,31.232 L56.672,30.84 C57.372,29.286 57.988,27.69 58.52,26.066 Z M64.736,19.248 L64.736,27.788 L63.84,27.788 L63.84,20.116 L60.942,20.116 L60.942,27.872 L60.046,27.872 L60.046,19.248 L64.736,19.248 Z M63.238,28.446 C64.092,29.202 64.806,29.972 65.38,30.728 L64.708,31.4 C64.204,30.658 63.518,29.874 62.622,29.034 L63.238,28.446 Z M61.978,21.082 L62.818,21.082 L62.818,25.52 C62.79,27.116 62.538,28.39 62.062,29.342 C61.6,30.21 60.844,30.91 59.808,31.414 L59.276,30.574 C60.284,30.098 60.984,29.468 61.376,28.684 C61.74,27.872 61.95,26.822 61.978,25.52 L61.978,21.082 Z M67.76,31.288 L66.22,31.288 L66.01,30.35 C66.5,30.392 66.976,30.42 67.424,30.42 C67.746,30.42 67.914,30.224 67.914,29.86 L67.914,18.646 L68.866,18.646 L68.866,30.098 C68.866,30.882 68.488,31.288 67.76,31.288 Z M65.842,19.794 L66.724,19.794 L66.724,28.53 L65.842,28.53 L65.842,19.794 Z M76.58,25.198 L75.264,25.198 L75.264,24.26 L78.89,24.26 L78.89,25.198 L77.574,25.198 L77.574,28.992 C78.19,28.852 78.806,28.698 79.394,28.53 L79.394,29.468 C78.176,29.818 76.86,30.112 75.46,30.35 L75.208,29.398 C75.67,29.342 76.132,29.272 76.58,29.188 L76.58,25.198 Z M81.886,31.19 C81.41,31.19 80.976,30.826 80.612,30.098 C80.192,29.258 79.884,28.124 79.688,26.668 C79.534,25.436 79.436,23.896 79.38,22.062 L74.942,22.062 L74.942,21.082 L79.352,21.082 C79.324,20.27 79.324,19.416 79.324,18.52 L80.304,18.52 C80.304,19.43 80.304,20.284 80.332,21.082 L83.118,21.082 L83.118,22.062 L80.346,22.062 C80.416,24.47 80.57,26.318 80.794,27.634 C81.102,29.23 81.466,30.042 81.886,30.098 C82.166,30.042 82.46,29.188 82.74,27.522 L83.538,28.166 C83.076,30.182 82.53,31.19 81.886,31.19 Z M81.508,18.506 C82.11,19.178 82.572,19.766 82.908,20.27 L82.208,20.76 C81.858,20.214 81.382,19.612 80.794,18.94 L81.508,18.506 Z M72.268,18.702 C73.164,19.416 73.906,20.13 74.522,20.858 L73.836,21.558 C73.276,20.872 72.52,20.144 71.568,19.388 L72.268,18.702 Z M70.588,22.846 L73.528,22.846 L73.528,28.95 C73.948,28.544 74.368,28.096 74.816,27.606 L75.082,28.67 C74.312,29.51 73.5,30.252 72.632,30.896 L72.24,30 C72.436,29.832 72.548,29.636 72.548,29.426 L72.548,23.812 L70.588,23.812 L70.588,22.846 Z M88.508,23.77 L87.514,23.77 L87.514,23.91 C87.416,27.018 86.702,29.51 85.372,31.358 L84.658,30.616 C85.806,28.992 86.422,26.766 86.506,23.91 L86.506,19.584 C90.006,19.542 93.156,19.248 95.956,18.702 L96.432,19.57 C93.772,20.074 90.804,20.368 87.514,20.452 L87.514,22.818 L95.942,22.818 L95.942,23.714 C95.41,25.506 94.43,27.046 93.016,28.334 C94.22,29.174 95.676,29.916 97.384,30.56 L96.838,31.442 C95.018,30.714 93.506,29.874 92.288,28.95 C91,29.944 89.404,30.77 87.528,31.442 L86.968,30.588 C88.76,29.972 90.272,29.202 91.49,28.306 C90.006,26.976 89.012,25.464 88.508,23.77 Z M92.218,27.718 C93.506,26.584 94.402,25.268 94.92,23.77 L89.46,23.77 C89.936,25.254 90.86,26.57 92.218,27.718 Z M104.244,19.332 L106.862,19.332 L106.862,18.548 L107.842,18.548 L107.842,19.332 L110.488,19.332 L110.488,22.076 L107.842,22.076 L107.842,22.958 L111.23,22.958 L111.23,23.826 L103.474,23.826 L103.474,22.958 L106.862,22.958 L106.862,22.076 L104.244,22.076 L104.244,19.332 Z M109.606,21.278 L109.606,20.144 L107.842,20.144 L107.842,21.278 L109.606,21.278 Z M106.862,21.278 L106.862,20.144 L105.126,20.144 L105.126,21.278 L106.862,21.278 Z M110.32,24.75 L110.32,28.908 L109.382,28.908 L109.382,25.59 L105.21,25.59 L105.21,28.908 L104.272,28.908 L104.272,24.75 L110.32,24.75 Z M108.332,28.964 C109.424,29.398 110.432,29.93 111.342,30.574 L110.796,31.414 C109.83,30.686 108.836,30.112 107.828,29.692 L108.332,28.964 Z M106.75,26.136 L107.73,26.136 L107.73,27.508 C107.688,28.572 107.352,29.426 106.708,30.07 C106.092,30.658 105.07,31.134 103.656,31.47 L103.11,30.616 C104.468,30.336 105.42,29.944 105.966,29.468 C106.456,28.964 106.722,28.306 106.75,27.508 L106.75,26.136 Z M100.618,21.866 C100.226,23.014 99.722,23.98 99.12,24.764 L98.49,23.994 C99.414,22.678 100.03,20.9 100.366,18.66 L101.346,18.828 C101.22,19.584 101.066,20.284 100.898,20.942 L103.474,20.942 L103.474,21.726 C103.11,22.566 102.718,23.28 102.284,23.868 L101.556,23.294 C101.864,22.874 102.144,22.398 102.41,21.866 L100.618,21.866 Z M100.548,23.7 L101.514,23.7 L101.514,29.79 C102.102,29.468 102.69,29.034 103.292,28.488 L103.474,29.426 C102.662,30.098 101.71,30.658 100.632,31.092 L100.226,30.238 C100.436,30.112 100.548,29.93 100.548,29.678 L100.548,23.7 Z" id="测试反馈" fill="#444444" fill-rule="nonzero"></path>
                                    <g id="project-menu/iteration" transform="translate(19.000000, 11.000000)">
                                        <g id="Icons-/-rocket" fill="#000000" opacity="0">
                                            <g id="rocket">
                                                <rect id="Rectangle" x="0" y="0" width="28" height="28"></rect>
                                            </g>
                                        </g>
                                        <mask id="mask-10" fill="white">
                                            <use xlink:href="#path-9"></use>
                                        </mask>
                                        <use id="Mask" fill="#00A4FF" xlink:href="#path-9"></use>
                                    </g>
                                </g>
                            </g>
                            <g id="XMLID_25_复制-22" transform="translate(253.000000, 212.000000)">
                                <g id="分组-copy">
                                    <g id="XMLID_134_">
                                        <use fill="black" fill-opacity="1" filter="url(#filter-12)" xlink:href="#path-11"></use>
                                        <use fill="#FFFFFF" fill-rule="evenodd" xlink:href="#path-11"></use>
                                    </g>
                                    <path d="M57.512,18.856 C58.296,19.472 58.954,20.102 59.486,20.718 L58.828,21.39 C58.352,20.802 57.68,20.172 56.826,19.514 L57.512,18.856 Z M57.288,22.3 C58.044,22.972 58.688,23.63 59.206,24.302 L58.548,24.96 C58.072,24.33 57.428,23.658 56.602,22.944 L57.288,22.3 Z M58.52,26.066 L59.374,26.402 C58.842,28.11 58.24,29.72 57.596,31.232 L56.672,30.84 C57.372,29.286 57.988,27.69 58.52,26.066 Z M64.736,19.248 L64.736,27.788 L63.84,27.788 L63.84,20.116 L60.942,20.116 L60.942,27.872 L60.046,27.872 L60.046,19.248 L64.736,19.248 Z M63.238,28.446 C64.092,29.202 64.806,29.972 65.38,30.728 L64.708,31.4 C64.204,30.658 63.518,29.874 62.622,29.034 L63.238,28.446 Z M61.978,21.082 L62.818,21.082 L62.818,25.52 C62.79,27.116 62.538,28.39 62.062,29.342 C61.6,30.21 60.844,30.91 59.808,31.414 L59.276,30.574 C60.284,30.098 60.984,29.468 61.376,28.684 C61.74,27.872 61.95,26.822 61.978,25.52 L61.978,21.082 Z M67.76,31.288 L66.22,31.288 L66.01,30.35 C66.5,30.392 66.976,30.42 67.424,30.42 C67.746,30.42 67.914,30.224 67.914,29.86 L67.914,18.646 L68.866,18.646 L68.866,30.098 C68.866,30.882 68.488,31.288 67.76,31.288 Z M65.842,19.794 L66.724,19.794 L66.724,28.53 L65.842,28.53 L65.842,19.794 Z M76.58,25.198 L75.264,25.198 L75.264,24.26 L78.89,24.26 L78.89,25.198 L77.574,25.198 L77.574,28.992 C78.19,28.852 78.806,28.698 79.394,28.53 L79.394,29.468 C78.176,29.818 76.86,30.112 75.46,30.35 L75.208,29.398 C75.67,29.342 76.132,29.272 76.58,29.188 L76.58,25.198 Z M81.886,31.19 C81.41,31.19 80.976,30.826 80.612,30.098 C80.192,29.258 79.884,28.124 79.688,26.668 C79.534,25.436 79.436,23.896 79.38,22.062 L74.942,22.062 L74.942,21.082 L79.352,21.082 C79.324,20.27 79.324,19.416 79.324,18.52 L80.304,18.52 C80.304,19.43 80.304,20.284 80.332,21.082 L83.118,21.082 L83.118,22.062 L80.346,22.062 C80.416,24.47 80.57,26.318 80.794,27.634 C81.102,29.23 81.466,30.042 81.886,30.098 C82.166,30.042 82.46,29.188 82.74,27.522 L83.538,28.166 C83.076,30.182 82.53,31.19 81.886,31.19 Z M81.508,18.506 C82.11,19.178 82.572,19.766 82.908,20.27 L82.208,20.76 C81.858,20.214 81.382,19.612 80.794,18.94 L81.508,18.506 Z M72.268,18.702 C73.164,19.416 73.906,20.13 74.522,20.858 L73.836,21.558 C73.276,20.872 72.52,20.144 71.568,19.388 L72.268,18.702 Z M70.588,22.846 L73.528,22.846 L73.528,28.95 C73.948,28.544 74.368,28.096 74.816,27.606 L75.082,28.67 C74.312,29.51 73.5,30.252 72.632,30.896 L72.24,30 C72.436,29.832 72.548,29.636 72.548,29.426 L72.548,23.812 L70.588,23.812 L70.588,22.846 Z M94.766,23.056 C95.97,24.498 96.908,25.758 97.552,26.836 L96.712,27.424 C96.04,26.248 95.144,24.96 93.996,23.546 L94.766,23.056 Z M84.966,23.658 L86.52,23.658 L86.52,20.634 L84.756,20.634 L84.756,19.654 L89.292,19.654 L89.292,20.634 L87.5,20.634 L87.5,23.658 L89.096,23.658 L89.096,24.624 L87.5,24.624 L87.5,27.942 C88.144,27.746 88.76,27.522 89.376,27.284 L89.376,28.25 C87.962,28.796 86.45,29.244 84.826,29.608 L84.574,28.642 C85.232,28.53 85.876,28.39 86.52,28.222 L86.52,24.624 L84.966,24.624 L84.966,23.658 Z M89.852,19.248 L96.964,19.248 L96.964,20.228 L94.444,20.228 C94.262,20.844 94.052,21.432 93.814,21.992 L93.814,31.386 L92.834,31.386 L92.834,23.924 C92.022,25.282 91.014,26.5 89.81,27.578 L89.194,26.78 C91.238,24.974 92.652,22.79 93.464,20.228 L89.852,20.228 L89.852,19.248 Z M103.236,19.626 L106.428,19.626 C106.288,19.248 106.162,18.912 106.022,18.604 L107.086,18.422 C107.226,18.786 107.338,19.178 107.45,19.626 L110.81,19.626 L110.81,20.466 L109.34,20.466 C109.214,20.97 109.046,21.474 108.822,21.95 L111.216,21.95 L111.216,22.804 L102.816,22.804 L102.816,21.95 L105.014,21.95 C104.874,21.418 104.706,20.914 104.51,20.466 L103.236,20.466 L103.236,19.626 Z M107.842,21.95 C108.094,21.46 108.29,20.97 108.402,20.466 L105.518,20.466 C105.672,20.928 105.826,21.418 105.966,21.95 L107.842,21.95 Z M103.684,23.672 L110.25,23.672 L110.25,28.082 L108.486,28.082 L108.486,29.874 C108.486,30.168 108.612,30.322 108.878,30.322 L110.026,30.322 C110.194,30.322 110.32,30.252 110.404,30.14 C110.488,29.986 110.558,29.538 110.6,28.782 L111.496,29.062 C111.412,30.07 111.272,30.686 111.076,30.91 C110.88,31.106 110.586,31.204 110.194,31.204 L108.598,31.204 C107.856,31.204 107.492,30.826 107.492,30.07 L107.492,28.082 L106.134,28.082 C105.966,28.922 105.616,29.608 105.084,30.126 C104.496,30.672 103.516,31.106 102.172,31.414 L101.794,30.518 C102.97,30.28 103.81,29.958 104.328,29.538 C104.748,29.174 105.042,28.684 105.196,28.082 L103.684,28.082 L103.684,23.672 Z M109.312,27.256 L109.312,26.22 L104.608,26.22 L104.608,27.256 L109.312,27.256 Z M104.608,25.506 L109.312,25.506 L109.312,24.484 L104.608,24.484 L104.608,25.506 Z M102.788,27.06 L102.788,28.082 C101.57,28.698 100.268,29.202 98.868,29.608 L98.602,28.516 C99.092,28.404 99.582,28.278 100.072,28.138 L100.072,22.958 L98.616,22.958 L98.616,21.978 L100.072,21.978 L100.072,18.646 L101.094,18.646 L101.094,21.978 L102.34,21.978 L102.34,22.958 L101.094,22.958 L101.094,27.788 C101.668,27.564 102.228,27.326 102.788,27.06 Z M113.624,22.86 L114.73,18.968 L115.724,19.136 L114.926,21.894 L117.376,21.894 C117.656,20.802 117.88,19.668 118.048,18.464 L119.07,18.59 C118.888,19.766 118.664,20.858 118.412,21.894 L124.964,21.894 L124.964,22.86 L118.146,22.86 C117.978,23.42 117.81,23.952 117.614,24.456 L123.34,24.456 L123.34,25.324 C122.962,26.528 122.206,27.62 121.058,28.6 C122.192,29.272 123.578,29.888 125.202,30.448 L124.684,31.386 C122.892,30.728 121.408,30.014 120.232,29.244 C119.084,30.056 117.656,30.784 115.962,31.442 L115.43,30.504 C116.998,29.93 118.3,29.3 119.35,28.614 C118.258,27.774 117.488,26.864 117.026,25.884 C116.004,28.096 114.688,29.846 113.092,31.148 L112.574,30.224 C114.618,28.432 116.116,25.982 117.096,22.86 L113.624,22.86 Z M117.782,25.38 C118.258,26.332 119.056,27.214 120.176,28.026 C121.212,27.214 121.926,26.332 122.318,25.38 L117.782,25.38 Z M121.422,18.576 C122.43,19.346 123.256,20.116 123.928,20.886 L123.214,21.6 C122.626,20.858 121.8,20.074 120.75,19.234 L121.422,18.576 Z M133.406,22.244 L134.372,22.244 L134.372,23.952 L138.32,23.952 L138.32,28.656 C138.32,29.524 137.872,29.972 137.004,29.972 L135.688,29.972 L135.436,29.034 L136.682,29.062 C137.13,29.062 137.354,28.852 137.354,28.446 L137.354,24.89 L134.372,24.89 L134.372,31.4 L133.406,31.4 L133.406,24.89 L130.41,24.89 L130.41,30.07 L129.444,30.07 L129.444,24.708 C128.744,25.422 127.988,26.094 127.162,26.724 L126.518,25.884 C128.296,24.568 129.696,23.07 130.718,21.362 L126.98,21.362 L126.98,20.382 L131.25,20.382 C131.558,19.766 131.81,19.15 132.02,18.506 L133.042,18.632 C132.846,19.248 132.622,19.836 132.37,20.382 L139.16,20.382 L139.16,21.362 L131.88,21.362 C131.376,22.286 130.788,23.154 130.116,23.952 L133.406,23.952 L133.406,22.244 Z" id="测试环境发布" fill="#444444" fill-rule="nonzero"></path>
                                    <g id="Icons-/-flask" transform="translate(19.000000, 11.000000)">
                                        <g id="flask">
                                            <rect id="Rectangle" fill="#000000" opacity="0" x="0" y="0" width="28" height="28"></rect>
                                            <path d="M14,12.90625 C14,13.5103114 14.4896886,14 15.09375,14 C15.6978114,14 16.1875,13.5103114 16.1875,12.90625 C16.1875,12.3021886 15.6978114,11.8125 15.09375,11.8125 C14.4896886,11.8125 14,12.3021886 14,12.90625 Z M24.0351562,22.5558594 L19.0394531,9.625 L19.0394531,4.8671875 L21,4.8671875 L21,3.0078125 L7,3.0078125 L7,4.8671875 L8.96054687,4.8671875 L8.96054687,9.625 L3.96484375,22.5558594 C3.88828125,22.7582031 3.84726562,22.9714844 3.84726562,23.1875 C3.84726562,24.1527344 4.63203125,24.9375 5.59726562,24.9375 L22.4027344,24.9375 C22.61875,24.9375 22.8320312,24.8964844 23.034375,24.8199219 C23.9367187,24.4726562 24.3851562,23.4582031 24.0351562,22.5558594 Z M10.8199219,9.97226563 L10.8199219,4.921875 L17.1800781,4.921875 L17.1800781,9.97226563 L19.665625,16.40625 C19.0996094,16.2613281 18.5144531,16.1875 17.9183594,16.1875 C16.2449219,16.1875 14.6589844,16.7753906 13.3984375,17.828125 C12.4714844,18.5992188 11.3121094,19.0285156 10.0816406,19.0285156 C9.1875,19.0285156 8.32890625,18.8015625 7.57148438,18.3804687 L10.8199219,9.97226563 Z M5.75585938,23.078125 L6.89609375,20.1304687 C7.87226563,20.6253906 8.9578125,20.890625 10.084375,20.890625 C11.7578125,20.890625 13.34375,20.3027344 14.6042969,19.25 C15.53125,18.4789062 16.690625,18.0496094 17.9210937,18.0496094 C18.878125,18.0496094 19.7914062,18.309375 20.5898438,18.790625 L22.2441406,23.078125 L5.75585938,23.078125 Z" id="Shape" fill="#00A4FF" fill-rule="nonzero"></path>
                                        </g>
                                    </g>
                                </g>
                            </g>
                            <g id="XMLID_25_复制-23" transform="translate(262.000000, 112.000000)">
                                <g id="分组-copy">
                                    <g id="XMLID_134_">
                                        <use fill="black" fill-opacity="1" filter="url(#filter-14)" xlink:href="#path-13"></use>
                                        <use fill="#FFFFFF" fill-rule="evenodd" xlink:href="#path-13"></use>
                                    </g>
                                    <path d="M60.874,22.146 C60.314,23.42 59.6,24.484 58.732,25.352 L58.088,24.526 C59.404,23.154 60.3,21.292 60.762,18.954 L61.784,19.136 C61.63,19.864 61.448,20.536 61.238,21.166 L64.234,21.166 L64.234,18.674 L65.256,18.674 L65.256,21.166 L69.862,21.166 L69.862,22.146 L65.256,22.146 L65.256,25.38 L69.582,25.38 L69.582,26.36 L65.256,26.36 L65.256,29.916 L70.758,29.916 L70.758,30.924 L58.424,30.924 L58.424,29.916 L64.234,29.916 L64.234,26.36 L60.118,26.36 L60.118,25.38 L64.234,25.38 L64.234,22.146 L60.874,22.146 Z M81.916,18.52 C82.588,19.024 83.162,19.542 83.638,20.06 L82.994,20.704 L84.702,20.704 L84.702,21.67 L80.39,21.67 C80.488,23.406 80.67,24.778 80.922,25.786 C81.006,26.136 81.104,26.458 81.202,26.766 C81.902,25.646 82.462,24.33 82.896,22.832 L83.806,23.224 C83.246,25.072 82.518,26.64 81.622,27.9 C81.818,28.348 82.028,28.74 82.252,29.062 C82.714,29.734 83.092,30.07 83.372,30.07 C83.624,30.056 83.862,29.328 84.072,27.886 L84.982,28.39 C84.646,30.252 84.17,31.19 83.54,31.19 C82.952,31.19 82.322,30.77 81.65,29.93 C81.398,29.594 81.16,29.202 80.95,28.768 C79.97,29.916 78.822,30.77 77.506,31.358 L76.946,30.518 C78.346,29.888 79.536,28.964 80.502,27.746 C80.306,27.228 80.124,26.668 79.97,26.066 C79.662,24.89 79.466,23.42 79.354,21.67 L74.552,21.67 L74.552,23.994 L77.982,23.994 C77.954,26.36 77.842,27.886 77.66,28.572 C77.478,29.174 77.044,29.482 76.344,29.51 C76.008,29.51 75.602,29.482 75.154,29.454 L74.846,28.544 C75.392,28.572 75.854,28.586 76.232,28.586 C76.54,28.572 76.736,28.362 76.82,27.97 C76.904,27.494 76.946,26.486 76.974,24.946 L74.552,24.946 L74.552,25.366 C74.496,27.872 73.936,29.888 72.9,31.4 L72.13,30.714 C73.026,29.426 73.488,27.648 73.53,25.366 L73.53,20.704 L79.312,20.704 C79.284,20.004 79.27,19.29 79.27,18.534 L80.306,18.534 C80.306,19.318 80.32,20.032 80.348,20.704 L82.966,20.704 C82.546,20.2 81.986,19.682 81.272,19.136 L81.916,18.52 Z M87.684,21.278 C87.432,21.838 87.138,22.3 86.802,22.664 L85.99,22.076 C86.69,21.32 87.138,20.284 87.334,18.954 L88.286,19.108 C88.216,19.556 88.132,19.962 88.02,20.34 L89.644,20.34 L89.644,18.604 L90.652,18.604 L90.652,20.34 L93.27,20.34 L93.27,21.278 L90.652,21.278 L90.652,23.084 L93.676,23.084 L93.676,24.022 L90.652,24.022 L90.652,25.492 L93.382,25.492 L93.382,29.188 C93.382,30.014 92.962,30.434 92.122,30.434 L91.38,30.434 L91.128,29.482 L91.814,29.524 C92.206,29.524 92.416,29.342 92.416,28.978 L92.416,26.43 L90.652,26.43 L90.652,31.414 L89.644,31.414 L89.644,26.43 L87.866,26.43 L87.866,30.532 L86.886,30.532 L86.886,25.492 L89.644,25.492 L89.644,24.022 L86.256,24.022 L86.256,23.084 L89.644,23.084 L89.644,21.278 L87.684,21.278 Z M94.502,19.864 L95.482,19.864 L95.482,28.516 L94.502,28.516 L94.502,19.864 Z M97.064,31.274 L95.006,31.274 L94.782,30.308 C95.454,30.35 96.098,30.378 96.714,30.378 C97.134,30.378 97.358,30.154 97.358,29.706 L97.358,18.604 L98.352,18.604 L98.352,29.958 C98.352,30.826 97.918,31.274 97.064,31.274 Z M102.636,19.15 L110.35,19.15 L110.35,23.728 L102.636,23.728 L102.636,19.15 Z M109.342,22.776 L109.342,20.102 L103.644,20.102 L103.644,22.776 L109.342,22.776 Z M105.702,25.114 L105.702,31.19 L104.722,31.19 L104.722,30.476 L101.768,30.476 L101.768,31.19 L100.774,31.19 L100.774,25.114 L105.702,25.114 Z M101.768,29.524 L104.722,29.524 L104.722,26.08 L101.768,26.08 L101.768,29.524 Z M112.212,25.114 L112.212,31.19 L111.204,31.19 L111.204,30.476 L108.138,30.476 L108.138,31.19 L107.144,31.19 L107.144,25.114 L112.212,25.114 Z M108.138,29.524 L111.204,29.524 L111.204,26.08 L108.138,26.08 L108.138,29.524 Z" id="生成制品" fill="#444444" fill-rule="nonzero"></path>
                                    <g id="project-menu/iteration" transform="translate(20.500000, 11.000000)">
                                        <g id="Icons-/-rocket" fill="#000000" opacity="0">
                                            <g id="rocket">
                                                <rect id="Rectangle" x="0" y="0" width="28" height="28"></rect>
                                            </g>
                                        </g>
                                        <g id="蒙板" transform="translate(3.000000, 7.000000)">
                                            <mask id="mask-16" fill="white">
                                                <use xlink:href="#path-15"></use>
                                            </mask>
                                            <use id="Mask" fill="#00A4FF" fill-rule="nonzero" xlink:href="#path-15"></use>
                                        </g>
                                    </g>
                                </g>
                            </g>
                            <g id="分组-30-copy复制-24" transform="translate(132.000000, 233.000000)">
                                <polygon id="XMLID_22_" fill="#878787" transform="translate(108.500000, 4.500000) rotate(-360.000000) translate(-108.500000, -4.500000) " points="106 9 111 4.5 106 0"></polygon>
                                <path d="M106.098293,4.5 L0.837230652,4.5" id="直线-3" stroke="#878787" stroke-linecap="square"></path>
                            </g>
                            <g id="分组-30-copy复制-21" transform="translate(75.500000, 181.500000) rotate(-270.000000) translate(-75.500000, -181.500000) translate(55.000000, 177.000000)">
                                <polygon id="XMLID_22_" fill="#878787" transform="translate(38.500000, 4.500000) rotate(-360.000000) translate(-38.500000, -4.500000) " points="36 9 41 4.5 36 0"></polygon>
                                <path d="M36.0982931,4.5 L1.45853523,4.5" id="直线-3" stroke="#878787" stroke-linecap="square"></path>
                            </g>
                            <g id="分组-30-copy复制-22" transform="translate(328.500000, 191.500000) rotate(-90.000000) translate(-328.500000, -191.500000) translate(308.000000, 187.000000)">
                                <polygon id="XMLID_22_" fill="#878787" transform="translate(38.500000, 4.500000) rotate(-360.000000) translate(-38.500000, -4.500000) " points="36 9 41 4.5 36 0"></polygon>
                                <path d="M36.0982931,4.5 L1.45853523,4.5" id="直线-3" stroke="#878787" stroke-linecap="square"></path>
                            </g>
                            <g id="分组-30-copy复制-23" transform="translate(104.500000, 69.000000) scale(-1, 1) rotate(-90.000000) translate(-104.500000, -69.000000) translate(71.500000, 36.500000)">
                                <polygon id="XMLID_22_" fill="#878787" transform="translate(2.500000, 60.500000) rotate(-180.000000) translate(-2.500000, -60.500000) " points="-4.09272616e-12 65 5 60.5 -4.09272616e-12 56"></polygon>
                                <path d="M64.5,60.5 L2.5,60.5" id="直线-3" stroke="#878787" stroke-linecap="square"></path>
                                <path d="M65,60.5 L65,0.330378699" id="直线-5" stroke="#878787" stroke-linecap="square"></path>
                            </g>
                        </g>
                    </g>
                    <g id="XMLID_25_" transform="translate(0.000000, 118.000000)">
                        <g id="分组-copy">
                            <g id="XMLID_134_">
                                <use fill="black" fill-opacity="1" filter="url(#filter-18)" xlink:href="#path-17"></use>
                                <use fill="#FFFFFF" fill-rule="evenodd" xlink:href="#path-17"></use>
                            </g>
                            <path d="M62.552,21.838 C62.202,22.426 61.782,22.944 61.306,23.392 L60.69,22.622 C61.642,21.726 62.272,20.522 62.608,18.996 L63.574,19.178 C63.434,19.794 63.252,20.354 63.028,20.886 L64.722,20.886 L64.722,18.548 L65.702,18.548 L65.702,20.886 L68.432,20.886 L68.432,21.838 L65.688,21.838 C65.66,22.664 65.576,23.42 65.464,24.12 L69.02,24.12 L69.02,25.086 L65.254,25.086 C65.198,25.268 65.156,25.436 65.1,25.604 C66.668,26.64 67.984,27.69 69.048,28.726 L68.32,29.44 C67.438,28.488 66.262,27.48 64.792,26.43 C64.736,26.514 64.694,26.598 64.666,26.682 C64.008,27.886 62.944,28.824 61.474,29.496 L60.928,28.642 C62.342,27.97 63.336,27.088 63.896,25.982 C64.022,25.688 64.134,25.394 64.232,25.086 L60.858,25.086 L60.858,24.12 L64.47,24.12 C64.596,23.42 64.68,22.65 64.708,21.838 L62.552,21.838 Z M57.848,18.702 C58.758,19.43 59.528,20.144 60.144,20.872 L59.43,21.586 C58.87,20.886 58.114,20.144 57.148,19.36 L57.848,18.702 Z M65.898,31.148 C65.142,31.148 64.33,31.134 63.448,31.12 C62.566,31.106 61.838,31.022 61.278,30.868 C60.746,30.7 60.256,30.35 59.822,29.846 C59.64,29.608 59.458,29.496 59.29,29.496 C58.954,29.496 58.394,30.14 57.61,31.456 L56.854,30.77 C57.61,29.58 58.268,28.852 58.856,28.6 L58.856,24.344 L56.854,24.344 L56.854,23.42 L59.794,23.42 L59.794,28.67 C59.906,28.754 60.004,28.852 60.116,28.978 C60.452,29.384 60.802,29.678 61.194,29.86 C61.614,30.056 62.244,30.168 63.056,30.196 C63.784,30.21 64.68,30.224 65.758,30.224 C66.43,30.224 67.116,30.21 67.816,30.196 C68.488,30.182 69.02,30.168 69.398,30.14 L69.146,31.148 L65.898,31.148 Z M82.754,21.908 L82.908,22.874 L78.288,23.462 C78.372,24.358 78.484,25.128 78.624,25.772 C78.96,27.228 79.422,28.348 80.024,29.16 C80.57,29.916 81.088,30.294 81.564,30.308 C81.942,30.294 82.222,29.398 82.418,27.634 L83.3,28.138 C83.118,29.286 82.88,30.14 82.572,30.7 C82.32,31.106 81.998,31.316 81.62,31.33 C80.934,31.33 80.22,30.882 79.492,30 C78.694,29.02 78.106,27.746 77.714,26.178 C77.532,25.478 77.392,24.624 77.294,23.588 L74.256,23.98 L74.102,23.014 L77.21,22.608 C77.112,21.432 77.056,20.074 77.042,18.534 L78.078,18.534 C78.078,20.032 78.12,21.348 78.204,22.482 L82.754,21.908 Z M72.352,23.546 C71.876,24.19 71.344,24.792 70.784,25.38 L70.462,24.33 C72.002,22.636 73.108,20.69 73.808,18.506 L74.746,18.954 C74.382,20.018 73.934,21.026 73.388,21.964 L73.388,31.428 L72.352,31.428 L72.352,23.546 Z M79.604,18.632 C80.458,19.346 81.186,20.06 81.774,20.76 L81.074,21.446 C80.57,20.76 79.856,20.032 78.96,19.262 L79.604,18.632 Z M95.004,24.092 L95.004,26.836 L88.018,26.836 L88.018,27.802 L95.648,27.802 L95.648,31.4 L94.654,31.4 L94.654,30.812 L88.018,30.812 L88.018,31.386 L87.01,31.386 L87.01,24.092 L95.004,24.092 Z M88.018,29.916 L94.654,29.916 L94.654,28.614 L88.018,28.614 L88.018,29.916 Z M88.018,26.024 L94.024,26.024 L94.024,24.904 L88.018,24.904 L88.018,26.024 Z M96.936,22.398 L96.936,24.932 L95.956,24.932 L95.956,23.266 L86.044,23.266 L86.044,24.932 L85.064,24.932 L85.064,22.398 L90.608,22.398 C90.468,22.062 90.328,21.768 90.174,21.488 L91.154,21.32 L91.07,21.264 C91.742,20.424 92.218,19.514 92.526,18.506 L93.492,18.716 C93.394,19.01 93.296,19.29 93.184,19.57 L97.23,19.57 L97.23,20.452 L94.738,20.452 C95.032,20.844 95.27,21.208 95.438,21.544 L94.542,21.88 C94.29,21.376 93.996,20.9 93.66,20.452 L92.778,20.452 C92.526,20.928 92.232,21.376 91.924,21.796 L91.168,21.334 C91.322,21.656 91.476,22.006 91.616,22.398 L96.936,22.398 Z M86.744,20.452 C86.408,20.998 86.044,21.502 85.624,21.964 L84.742,21.404 C85.582,20.536 86.198,19.556 86.59,18.492 L87.556,18.702 C87.444,19.01 87.318,19.29 87.206,19.57 L90.958,19.57 L90.958,20.452 L88.606,20.452 C88.914,20.872 89.18,21.278 89.376,21.656 L88.452,22.006 C88.2,21.474 87.892,20.956 87.542,20.452 L86.744,20.452 Z M103.824,19.122 L110.67,19.122 L110.67,25.59 L107.758,25.59 L107.758,27.242 L110.908,27.242 L110.908,28.194 L107.758,28.194 L107.758,30.014 L111.426,30.014 L111.426,30.98 L102.998,30.98 L102.998,30.014 L106.75,30.014 L106.75,28.194 L103.586,28.194 L103.586,27.242 L106.75,27.242 L106.75,25.59 L103.824,25.59 L103.824,19.122 Z M109.704,24.694 L109.704,22.804 L107.758,22.804 L107.758,24.694 L109.704,24.694 Z M106.75,24.694 L106.75,22.804 L104.79,22.804 L104.79,24.694 L106.75,24.694 Z M104.79,21.922 L106.75,21.922 L106.75,20.018 L104.79,20.018 L104.79,21.922 Z M107.758,20.018 L107.758,21.922 L109.704,21.922 L109.704,20.018 L107.758,20.018 Z M98.882,23.756 L100.408,23.756 L100.408,20.438 L98.686,20.438 L98.686,19.486 L103.152,19.486 L103.152,20.438 L101.444,20.438 L101.444,23.756 L102.984,23.756 L102.984,24.722 L101.444,24.722 L101.444,27.9 C101.976,27.718 102.48,27.522 102.984,27.298 L102.984,28.278 C101.696,28.81 100.31,29.258 98.826,29.622 L98.574,28.656 C99.19,28.544 99.806,28.404 100.408,28.236 L100.408,24.722 L98.882,24.722 L98.882,23.756 Z" id="迭代管理" fill="#444444" fill-rule="nonzero"></path>
                            <g id="project-menu/iteration" transform="translate(19.000000, 11.000000)">
                                <g>
                                    <rect id="Rectangle" fill="#000000" opacity="0" x="0" y="0" width="28" height="28"></rect>
                                    <path d="M12.9717778,4.51111111 L11.6666667,4.51111111 L13.0277778,3.14844444 C13.3917778,2.78444444 13.3917778,2.19333333 13.0277778,1.82933333 C12.6637778,1.46377778 12.0726667,1.46377778 11.7071111,1.82933333 L8.75155556,4.78488889 C8.38755556,5.14888889 8.38755556,5.74 8.75155556,6.104 L11.7071111,9.05955556 C11.8906667,9.24155556 12.1286667,9.33333333 12.3682222,9.33333333 C12.6062222,9.33333333 12.8457778,9.24155556 13.0277778,9.05955556 C13.3917778,8.69555556 13.3917778,8.10444444 13.0277778,7.74044444 L11.6666667,6.37777778 L12.9717778,6.37777778 C17.1748889,6.37777778 20.594,9.79688889 20.594,14 C20.594,18.2031111 17.1748889,21.6222222 12.9717778,21.6222222 L2.33333333,21.6222222 C1.81844444,21.6222222 1.4,22.0406667 1.4,22.5555556 C1.4,23.0704444 1.81844444,23.4888889 2.33333333,23.4888889 L12.9717778,23.4888889 C18.2046667,23.4888889 22.4606667,19.2313333 22.4606667,14 C22.4606667,8.76711111 18.2046667,4.51111111 12.9717778,4.51111111 Z" id="Fill-1" fill="#878787"></path>
                                    <path d="M8.00566667,19.7345556 C6.39255556,18.3376667 5.34877778,16.2983333 5.34877778,13.9992222 C5.34877778,11.7296667 6.36144444,9.60477778 8.08188889,8.16277778 L6.75344444,6.83433333 C4.68766667,8.62477778 3.48211111,11.2287778 3.48211111,13.9992222 C3.48211111,16.1552222 4.21322222,18.1401111 5.42966667,19.7345556 L8.00566667,19.7345556 Z" id="Fill-4" fill="#878787"></path>
                                    <path d="M23.8816667,19.0963111 C23.5192222,18.7323111 22.9281111,18.7323111 22.561,19.0947556 C22.197,19.4587556 22.197,20.0498667 22.561,20.4138667 L23.7688889,21.6225333 L21.2652222,21.6225333 C20.6103333,22.3349778 19.8698889,22.9634222 19.0532222,23.4876444 L23.7688889,23.4876444 L22.561,24.6963111 C22.197,25.0618667 22.197,25.6529778 22.561,26.0169778 C22.7445556,26.1974222 22.9825556,26.2892 23.2221111,26.2892 C23.4616667,26.2892 23.6996667,26.1974222 23.8816667,26.0154222 L26.6816667,23.2154222 C27.0456667,22.8498667 27.0456667,22.2603111 26.6816667,21.8963111 L23.8816667,19.0963111 Z" id="Fill-6" fill="#878787"></path>
                                </g>
                            </g>
                            <g id="project-menu/iteration" transform="translate(19.000000, 11.000000)">
                                <g>
                                    <rect id="Rectangle" fill="#000000" opacity="0" x="0" y="0" width="28" height="28"></rect>
                                    <path d="M12.9717778,4.51111111 L11.6666667,4.51111111 L13.0277778,3.14844444 C13.3917778,2.78444444 13.3917778,2.19333333 13.0277778,1.82933333 C12.6637778,1.46377778 12.0726667,1.46377778 11.7071111,1.82933333 L8.75155556,4.78488889 C8.38755556,5.14888889 8.38755556,5.74 8.75155556,6.104 L11.7071111,9.05955556 C11.8906667,9.24155556 12.1286667,9.33333333 12.3682222,9.33333333 C12.6062222,9.33333333 12.8457778,9.24155556 13.0277778,9.05955556 C13.3917778,8.69555556 13.3917778,8.10444444 13.0277778,7.74044444 L11.6666667,6.37777778 L12.9717778,6.37777778 C17.1748889,6.37777778 20.594,9.79688889 20.594,14 C20.594,18.2031111 17.1748889,21.6222222 12.9717778,21.6222222 L2.33333333,21.6222222 C1.81844444,21.6222222 1.4,22.0406667 1.4,22.5555556 C1.4,23.0704444 1.81844444,23.4888889 2.33333333,23.4888889 L12.9717778,23.4888889 C18.2046667,23.4888889 22.4606667,19.2313333 22.4606667,14 C22.4606667,8.76711111 18.2046667,4.51111111 12.9717778,4.51111111 Z" id="Fill-1" fill="#00A4FF"></path>
                                    <path d="M8.00566667,19.7345556 C6.39255556,18.3376667 5.34877778,16.2983333 5.34877778,13.9992222 C5.34877778,11.7296667 6.36144444,9.60477778 8.08188889,8.16277778 L6.75344444,6.83433333 C4.68766667,8.62477778 3.48211111,11.2287778 3.48211111,13.9992222 C3.48211111,16.1552222 4.21322222,18.1401111 5.42966667,19.7345556 L8.00566667,19.7345556 Z" id="Fill-4" fill="#00A4FF"></path>
                                    <path d="M23.8816667,19.0963111 C23.5192222,18.7323111 22.9281111,18.7323111 22.561,19.0947556 C22.197,19.4587556 22.197,20.0498667 22.561,20.4138667 L23.7688889,21.6225333 L21.2652222,21.6225333 C20.6103333,22.3349778 19.8698889,22.9634222 19.0532222,23.4876444 L23.7688889,23.4876444 L22.561,24.6963111 C22.197,25.0618667 22.197,25.6529778 22.561,26.0169778 C22.7445556,26.1974222 22.9825556,26.2892 23.2221111,26.2892 C23.4616667,26.2892 23.6996667,26.1974222 23.8816667,26.0154222 L26.6816667,23.2154222 C27.0456667,22.8498667 27.0456667,22.2603111 26.6816667,21.8963111 L23.8816667,19.0963111 Z" id="Fill-6" fill="#00A4FF"></path>
                                </g>
                            </g>
                        </g>
                    </g>
                    <g id="XMLID_25_复制-10" transform="translate(649.000000, 118.000000)">
                        <g id="分组-copy">
                            <g id="XMLID_134_">
                                <use fill="black" fill-opacity="1" filter="url(#filter-20)" xlink:href="#path-19"></use>
                                <use fill="#FFFFFF" fill-rule="evenodd" xlink:href="#path-19"></use>
                            </g>
                            <path d="M61.572,28.614 L61.572,29.58 C60.2,30.112 58.632,30.546 56.868,30.868 L56.742,29.888 C58.59,29.58 60.2,29.146 61.572,28.614 Z M59.08,18.492 L60.046,18.87 C59.332,20.69 58.604,22.146 57.876,23.238 C58.506,23.182 59.136,23.098 59.766,23 C60.018,22.496 60.298,21.964 60.578,21.404 L61.474,21.74 C60.242,24.106 59.206,25.786 58.394,26.78 C59.402,26.584 60.41,26.318 61.418,25.982 L61.418,26.892 C59.948,27.368 58.548,27.704 57.204,27.886 L56.924,26.962 C57.106,26.878 57.26,26.78 57.386,26.668 C57.904,26.136 58.534,25.212 59.262,23.91 C58.492,24.022 57.708,24.12 56.924,24.218 L56.686,23.294 C56.84,23.238 56.98,23.112 57.106,22.93 C57.862,21.642 58.52,20.158 59.08,18.492 Z M68.362,21.04 L68.502,21.964 L64.904,22.468 C64.932,23.14 64.974,23.77 65.03,24.372 L68.74,23.784 L68.894,24.736 L65.142,25.324 C65.17,25.576 65.212,25.828 65.254,26.052 C65.394,26.78 65.562,27.41 65.758,27.97 C66.514,27.27 67.186,26.486 67.774,25.59 L68.572,26.136 C67.83,27.214 67.032,28.138 66.164,28.894 C66.22,28.978 66.262,29.076 66.318,29.16 C66.78,29.846 67.186,30.196 67.55,30.196 C67.914,30.196 68.236,29.44 68.488,27.942 L69.342,28.502 C68.95,30.35 68.39,31.288 67.662,31.288 C66.99,31.26 66.36,30.84 65.758,30 C65.632,29.832 65.52,29.664 65.436,29.482 C64.4,30.252 63.28,30.826 62.09,31.19 L61.502,30.378 C62.79,29.958 63.952,29.37 64.988,28.6 C64.722,27.984 64.512,27.312 64.344,26.556 C64.26,26.192 64.204,25.842 64.148,25.478 L61.628,25.884 L61.488,24.932 L64.022,24.526 C63.952,23.924 63.91,23.28 63.896,22.608 L61.88,22.902 L61.726,21.978 L63.868,21.67 L63.868,18.562 L64.876,18.562 L64.876,21.53 L68.362,21.04 Z M66.444,18.52 C67.158,19.192 67.704,19.766 68.096,20.256 L67.312,20.802 C66.92,20.256 66.36,19.654 65.66,19.01 L66.444,18.52 Z M75.824,18.562 L76.86,18.562 L76.86,22.888 L82.054,22.888 L82.054,23.868 L76.86,23.868 L76.86,29.86 L83.244,29.86 L83.244,30.84 L70.784,30.84 L70.784,29.86 L75.824,29.86 L75.824,18.562 Z M85.624,22.86 L86.73,18.968 L87.724,19.136 L86.926,21.894 L89.376,21.894 C89.656,20.802 89.88,19.668 90.048,18.464 L91.07,18.59 C90.888,19.766 90.664,20.858 90.412,21.894 L96.964,21.894 L96.964,22.86 L90.146,22.86 C89.978,23.42 89.81,23.952 89.614,24.456 L95.34,24.456 L95.34,25.324 C94.962,26.528 94.206,27.62 93.058,28.6 C94.192,29.272 95.578,29.888 97.202,30.448 L96.684,31.386 C94.892,30.728 93.408,30.014 92.232,29.244 C91.084,30.056 89.656,30.784 87.962,31.442 L87.43,30.504 C88.998,29.93 90.3,29.3 91.35,28.614 C90.258,27.774 89.488,26.864 89.026,25.884 C88.004,28.096 86.688,29.846 85.092,31.148 L84.574,30.224 C86.618,28.432 88.116,25.982 89.096,22.86 L85.624,22.86 Z M89.782,25.38 C90.258,26.332 91.056,27.214 92.176,28.026 C93.212,27.214 93.926,26.332 94.318,25.38 L89.782,25.38 Z M93.422,18.576 C94.43,19.346 95.256,20.116 95.928,20.886 L95.214,21.6 C94.626,20.858 93.8,20.074 92.75,19.234 L93.422,18.576 Z M105.406,22.244 L106.372,22.244 L106.372,23.952 L110.32,23.952 L110.32,28.656 C110.32,29.524 109.872,29.972 109.004,29.972 L107.688,29.972 L107.436,29.034 L108.682,29.062 C109.13,29.062 109.354,28.852 109.354,28.446 L109.354,24.89 L106.372,24.89 L106.372,31.4 L105.406,31.4 L105.406,24.89 L102.41,24.89 L102.41,30.07 L101.444,30.07 L101.444,24.708 C100.744,25.422 99.988,26.094 99.162,26.724 L98.518,25.884 C100.296,24.568 101.696,23.07 102.718,21.362 L98.98,21.362 L98.98,20.382 L103.25,20.382 C103.558,19.766 103.81,19.15 104.02,18.506 L105.042,18.632 C104.846,19.248 104.622,19.836 104.37,20.382 L111.16,20.382 L111.16,21.362 L103.88,21.362 C103.376,22.286 102.788,23.154 102.116,23.952 L105.406,23.952 L105.406,22.244 Z" id="线上发布" fill="#444444" fill-rule="nonzero"></path>
                            <g id="Icons-/-rocket" transform="translate(20.000000, 12.000000)">
                                <g id="rocket">
                                    <rect id="Rectangle" fill="#000000" opacity="0" x="0" y="0" width="28" height="28"></rect>
                                    <path d="M23.625,20.125 C23.625,17.0734375 21.8367187,14.4375 19.25,13.2097656 L19.25,8.67617187 C19.25,8.26328125 19.1050781,7.8640625 18.8371094,7.54960937 L14.6699219,2.60859375 C14.4949219,2.40078125 14.2460938,2.296875 14,2.296875 C13.7539062,2.296875 13.5050781,2.40078125 13.3300781,2.60859375 L9.16289062,7.54960937 C8.89765625,7.8640625 8.75,8.26328125 8.75,8.67617187 L8.75,13.2097656 C6.16328125,14.4375 4.375,17.0734375 4.375,20.125 L8.65429688,20.125 C8.59140625,20.321875 8.55859375,20.5351562 8.55859375,20.7757812 C8.55859375,21.3800781 8.76640625,21.9707031 9.14375,22.4382812 C9.45273437,22.8210937 9.86015625,23.1109375 10.3222656,23.275 C10.9539063,24.7515625 12.3894531,25.703125 14,25.703125 C14.7957031,25.703125 15.5667969,25.4679687 16.2257812,25.025 C16.8710938,24.5929687 17.3714844,23.9886719 17.675,23.275 C18.1371094,23.1109375 18.5445312,22.8238281 18.8535156,22.4410156 C19.2308594,21.9707031 19.4386719,21.3800781 19.4386719,20.7785156 C19.4386719,20.5488281 19.4085937,20.3300781 19.3539063,20.1277344 L23.625,20.1277344 L23.625,20.125 Z M20.8441406,16.9914062 C21.1011719,17.390625 21.3089844,17.8199219 21.459375,18.265625 L19.140625,18.265625 L19.140625,15.2769531 C19.81875,15.7199219 20.4011719,16.3023438 20.8441406,16.9914063 L20.8441406,16.9914062 Z M10.609375,13.2097656 L10.609375,8.7171875 L14,4.69765625 L17.390625,8.7171875 L17.390625,18.265625 L10.609375,18.265625 L10.609375,13.2097656 Z M6.540625,18.265625 C6.69101563,17.8199219 6.89882812,17.390625 7.15585938,16.9914063 C7.6015625,16.3023437 8.18125,15.7199219 8.859375,15.2769531 L8.859375,18.265625 L6.540625,18.265625 Z M17.1746094,21.4429688 C17.0324219,21.525 16.8683594,21.5578125 16.7070312,21.5359375 L16.1738281,21.4703125 L16.0972656,22.0007813 C15.9496094,23.0371094 15.0472656,23.8191406 14,23.8191406 C12.9527344,23.8191406 12.0503906,23.0371094 11.9027344,22.0007813 L11.8261719,21.4675781 L11.2929687,21.5359375 C11.265625,21.5386719 11.2355469,21.5414063 11.2027344,21.5414063 C11.06875,21.5414063 10.9402344,21.5058594 10.8253906,21.4402344 C10.5875,21.3035156 10.4398437,21.0492188 10.4398437,20.7730469 C10.4398437,20.4832031 10.6011719,20.2425781 10.8390625,20.1222656 L17.1636719,20.1222656 C17.4042969,20.2453125 17.5628906,20.4859375 17.5628906,20.7730469 C17.5601562,21.0519531 17.4125,21.3089844 17.1746094,21.4429688 Z M12.6875,10.9375 C12.6875,11.6623737 13.2751263,12.25 14,12.25 C14.7248737,12.25 15.3125,11.6623737 15.3125,10.9375 C15.3125,10.2126263 14.7248737,9.625 14,9.625 C13.2751263,9.625 12.6875,10.2126263 12.6875,10.9375 L12.6875,10.9375 Z" id="Shape" fill="#00A4FF" fill-rule="nonzero"></path>
                                </g>
                            </g>
                        </g>
                    </g>
                    <g id="分组-30-copy" transform="translate(132.000000, 139.000000)">
                        <polygon id="XMLID_22_" fill="#878787" transform="translate(24.500000, 4.500000) rotate(-360.000000) translate(-24.500000, -4.500000) " points="22 9 27 4.5 22 0"></polygon>
                        <path d="M22.0982931,4.5 L1.09491918,4.5" id="直线-3" stroke="#878787" stroke-linecap="square"></path>
                    </g>
                    <g id="分组-30-copy复制-25" transform="translate(612.000000, 139.000000)">
                        <polygon id="XMLID_22_" fill="#878787" transform="translate(24.500000, 4.500000) rotate(-360.000000) translate(-24.500000, -4.500000) " points="22 9 27 4.5 22 0"></polygon>
                        <path d="M22.0982931,4.5 L1.09491918,4.5" id="直线-3" stroke="#878787" stroke-linecap="square"></path>
                    </g>
                </g>
            </g>
        </g>
    </g>
</svg>