<?xml version="1.0" encoding="utf-8"?>
<!-- Generator: Adobe Illustrator 19.0.0, SVG Export Plug-In . SVG Version: 6.00 Build 0)  -->
<svg version="1.1" id="图层_1" xmlns="http://www.w3.org/2000/svg" xmlns:xlink="http://www.w3.org/1999/xlink" x="0px" y="0px"
	 viewBox="0 0 32 32" style="enable-background:new 0 0 32 32;" xml:space="preserve">
<style type="text/css">
	.st0{fill:#7C848E;}
</style>
<g id="logo_1_">
	<g>
		<path class="st0" d="M5,25.9H0.3L11.4,6.4c1.2-1.9,3.1-3,5.3-3h4.6l-0.8,1.5c-2.4,4.2-10.2,18-10.3,18.1C9.1,24.8,7.1,25.9,5,25.9
			z M3.7,23.9H5c1.5,0,2.7-0.7,3.5-1.9c0.2-0.3,5.8-10.2,9.4-16.6h-1.2c-1.5,0-2.7,0.7-3.6,2L3.7,23.9z"/>
	</g>
	<g>
		<path class="st0" d="M31.6,25.9h-7.1V15.5l7.1-12.1V25.9z M26.5,23.9h3.1V10.1l-3.1,5.6V23.9z"/>
	</g>
	<g>
		<path class="st0" d="M14.2,25.8H9.4L20.7,6.4C21.2,5.5,22,4.7,23.2,4c0.9-0.4,1.8-0.6,2.7-0.6h4.7l-0.9,1.5
			c-3.5,6.1-10.2,17.7-10.4,18C18.2,24.7,16.3,25.8,14.2,25.8z M12.9,23.8h1.3c1.5,0,2.7-0.7,3.5-1.9l0,0c0,0,0.4-0.8,9.5-16.5h-1.3
			c-0.6,0-1.2,0.1-1.7,0.4c-0.8,0.5-1.4,1-1.7,1.6L12.9,23.8z"/>
	</g>
</g>
</svg>
