<?xml version="1.0" encoding="utf-8"?>
<!-- Generator: Adobe Illustrator 19.0.0, SVG Export Plug-In . SVG Version: 6.00 Build 0)  -->
<svg version="1.1" id="图层_1" xmlns="http://www.w3.org/2000/svg" xmlns:xlink="http://www.w3.org/1999/xlink" x="0px" y="0px"
	 viewBox="330 -80 820 320" style="enable-background:new 330 -80 820 320;" xml:space="preserve">
<style type="text/css">
	.st0{opacity:0.2;}
	.st1{fill:url(#SVGID_1_);}
	.st2{fill:url(#SVGID_2_);}
	.st3{fill:#C2C5CA;}
	.st4{fill:url(#SVGID_3_);}
	.st5{fill:url(#SVGID_4_);}
	.st6{fill:url(#SVGID_5_);}
	.st7{fill:url(#SVGID_6_);}
	.st8{fill:url(#SVGID_7_);}
	.st9{fill:url(#SVGID_8_);}
	.st10{fill:url(#SVGID_9_);}
	.st11{fill:url(#SVGID_10_);}
	.st12{fill:#333333;}
	.st13{fill:#AFAFAF;}
	.st14{fill:url(#SVGID_11_);}
	.st15{fill:url(#SVGID_12_);}
</style>
<g class="st0">
	<g>
		
			<linearGradient id="SVGID_1_" gradientUnits="userSpaceOnUse" x1="727.8751" y1="34.225" x2="656.275" y2="-37.375" gradientTransform="matrix(1 0 0 1 -63 7)">
			<stop  offset="0" style="stop-color:#0063FF"/>
			<stop  offset="1" style="stop-color:#00C8DE"/>
		</linearGradient>
		<path class="st1" d="M630.8,17.4l6.9-3.7V6.6l-6.9,4.1V17.4z M621.4,13.6l6.9,3.8v-6.6l-6.9-4V13.6z M622.2,4.6l7.3,4l7.3-4
			l-7.3-4L622.2,4.6z M588.5-25.6l9.9,72h61.3l10.2-72C670-25.6,588.5-25.6,588.5-25.6z M629.5-10.5l-18.3,9.9v20l18.3,9.9l18.3-9.9
			V4.9l2.7-1.2v17.2l-21,11.4l-21-11.4V-2l21-11.4l21,11.4l-2.7,1.5L629.5-10.5z M640,3.7v11.4l-10.5,5.7L619,15.1V3.7L629.5-2
			L640,3.7z"/>
	</g>
</g>
<g>
	<g>
		
			<linearGradient id="SVGID_2_" gradientUnits="userSpaceOnUse" x1="733.3751" y1="36.225" x2="644.8751" y2="-52.275" gradientTransform="matrix(1 0 0 1 -63 7)">
			<stop  offset="0" style="stop-color:#0063FF"/>
			<stop  offset="1" style="stop-color:#00C8DE"/>
		</linearGradient>
		<path class="st2" d="M638.3,2.4l-0.4,2.1c-0.1,0.6-0.2,1.1-0.2,1.5c0,1.2,0.5,1.8,2.1,1.8h2.9c0.7,0,1,0,1,0.5
			c0,0.2,0,0.6-0.2,1.3l-0.2,1c-0.3,1.4-0.5,1.5-1.7,1.5h-5l0.4,2.2h4.6c1.3,0,2.2-0.1,2.9-0.5c0.7-0.5,1.1-1.3,1.3-2.5l0.4-2
			c0.1-0.4,0.3-1.6,0.3-2.1c0-1.5-1.1-1.7-2.7-1.7h-2.5c-0.5,0-0.8-0.1-0.8-0.4c0-0.2,0.1-0.6,0.2-1.1l0.2-1.2
			c0.2-1,0.4-1.2,1.3-1.2h4.8l0.9-2.2h-6C639.5-0.5,638.7,0.1,638.3,2.4z M614.6,0.1c-0.9,0.6-1.3,1.6-1.6,3.2L612,9
			c-0.2,1.2-0.3,1.8-0.3,2.4c0,2.2,1.2,2.9,3.9,2.9h3.8l0.9-2.2h-3.6c-1.6,0-2.3-0.2-2.3-1.2c0-0.5,0.2-1.5,0.4-2.8l0.7-3.9
			c0.4-1.9,0.6-2.6,2.2-2.6h3.7l0.9-2.2h-4.9C616.4-0.5,615.4-0.5,614.6,0.1z M668.7-29.7l3.8-8.1L635.4-55l-3.6,7.8l-5.6-15.3
			l-42.4,15.4l6.3,17.4h-6.9l11.2,80h69l11.8-80L668.7-29.7L668.7-29.7z M635.8-53.6L671-37.2l-3.5,7.5h-14.7
			c0.3-0.4,0.5-0.8,0.7-1.2c1.5-3.3,0.1-7.1-3.2-8.6c-3.3-1.5-7.1-0.1-8.6,3.2c-1.1,2.3-0.7,4.8,0.8,6.7h-17.7l-0.1-0.1L635.8-53.6z
			 M652.6-31.2c-0.3,0.6-0.7,1.2-1.2,1.6H644c-1.7-1.6-2.2-4-1.2-6.2c1.3-2.7,4.5-3.9,7.2-2.6C652.7-37.2,653.9-34,652.6-31.2z
			 M623.5-29.7h-28.6l4.7-6l10.2,2.9v-0.1l0.2,0.2l8.1-13l11.1,3.5L623.5-29.7z M585.2-46.4L625.4-61l5.5,15.3l-1.1,2.3l-12.3-3.9
			l-0.2,0.5l-7.9,12.6l-10.5-3l-0.1,0.3l-5.6,7.1h-2.1L585.2-46.4z M662.3,49.4h-66.8l-10.9-78h89.1L662.3,49.4z M631.6-0.6h-3.3
			c-0.9,0-2,0-2.8,0.6s-1.3,1.6-1.6,3.2l-1,5.9c-0.2,1.2-0.3,1.8-0.3,2.4c0,2.2,1.2,2.9,3.9,2.9h3.3c0.9,0,1.9,0,2.8-0.6
			c0.9-0.6,1.3-1.6,1.6-3.2l1.1-6c0.2-1.2,0.3-1.8,0.3-2.4C635.5,0.1,634.4-0.6,631.6-0.6z M632.5,5.6l-0.7,4.2
			c-0.4,1.9-0.6,2.6-2.2,2.6h-1.9c-1.6,0-2.3-0.2-2.3-1.2c0-0.5,0.2-1.5,0.4-2.8l0.7-4.2c0.4-2,0.6-2.6,2.2-2.6h1.9
			c1.6,0,2.3,0.2,2.3,1.2C632.9,3.3,632.7,4.3,632.5,5.6z M595.9-38.8c2-0.7,3.1-3,2.3-5c-0.7-2-3-3.1-5-2.3c-2,0.7-3.1,3-2.3,5
			C591.7-39.1,593.9-38,595.9-38.8z M593.6-45c1.4-0.5,3,0.2,3.5,1.6c0.5,1.4-0.2,3-1.6,3.5c-1.4,0.5-3-0.2-3.5-1.6
			S592.2-44.5,593.6-45z M645.7-31.9l4.5-0.6l-2.4-3.9L645.7-31.9z"/>
	</g>
</g>
<g>
	<g>
		<path class="st3" d="M700.9,12.3h8v-2h-8V12.3z M712.9,12.3h8v-2h-8V12.3z M724.9,12.3h8v-2h-8V12.3z M736.9,12.3h8v-2h-8V12.3z
			 M748.9,7.1v8.2l9.2-4.2L748.9,7.1z"/>
	</g>
</g>
<g>
	<g>
		<path class="st3" d="M501.7,12.4h8v-2h-8V12.4z M513.7,12.4h8v-2h-8V12.4z M525.7,12.4h8v-2h-8V12.4z M537.7,12.4h8v-2h-8V12.4z
			 M549.7,7.1v8.2l9.2-4.2L549.7,7.1z"/>
	</g>
</g>
<g>
	<g>
		<path class="st3" d="M851.1,153.4h7.8v-2h-7.8V153.4z M862.9,151.4v2h8v-2H862.9z M829.8,97.3h-2v8h2V97.3z M829.8,109.3h-2v8h2
			V109.3z M829.8,121.3h-2v8h2V121.3z M827.8,141.4h2v-8h-2V141.4z M829.8,145.4h-2v6h-0.7v2h0.7l0,0h2l0,0h5.3v-2h-5.3V145.4z
			 M839,153.4h8v-2h-8V153.4z"/>
	</g>
</g>
<g>
	<g>
		<path class="st3" d="M870.2,153.4h5.8v-2h-5.8V153.4z M880,153.4h8v-2h-8V153.4z M892,148.1v8.2l9.2-4.2L892,148.1z"/>
	</g>
</g>
<g class="st0">
	<g>
		
			<linearGradient id="SVGID_3_" gradientUnits="userSpaceOnUse" x1="929.4751" y1="30.725" x2="852.8751" y2="-45.875" gradientTransform="matrix(1 0 0 1 -63 7)">
			<stop  offset="0" style="stop-color:#0063FF"/>
			<stop  offset="1" style="stop-color:#00C8DE"/>
		</linearGradient>
		<path class="st4" d="M829.8,9.5l6.9-3.7v-7.1l-6.9,4.1V9.5L829.8,9.5z M820.4,5.7l6.9,3.8V2.9l-6.9-4V5.7z M787.6-36.6l9.9,82
			h61.3l10.2-82H787.6z M828.5-18.4l-18.3,9.9v19.9l18.3,9.9l18.3-9.9V-3l2.7-1.2v17.1l-21,11.4l-21-11.4V-10l21-11.4l21,11.4
			l-2.7,1.5L828.5-18.4z M839-4.3V7.1l-10.5,5.7L818,7.1V-4.3l10.5-5.7L839-4.3z M821.2-3.4l7.3,4l7.3-4l-7.3-4L821.2-3.4z"/>
	</g>
</g>
<g>
	<g>
		
			<linearGradient id="SVGID_4_" gradientUnits="userSpaceOnUse" x1="933.55" y1="34.25" x2="848.45" y2="-50.85" gradientTransform="matrix(1 0 0 1 -63 7)">
			<stop  offset="0" style="stop-color:#0063FF"/>
			<stop  offset="1" style="stop-color:#00C8DE"/>
		</linearGradient>
		<path class="st5" d="M813.7-5.9c-0.9,0.6-1.3,1.6-1.6,3.2l-1,5.7c-0.2,1.2-0.3,1.8-0.3,2.4c0,2.2,1.2,2.9,3.9,2.9h3.8l0.9-2.2
			h-3.6c-1.6,0-2.3-0.2-2.3-1.2c0-0.5,0.2-1.5,0.4-2.8l0.7-3.9c0.4-1.9,0.6-2.6,2.2-2.6h3.7l0.9-2.2h-4.9
			C815.5-6.5,814.5-6.4,813.7-5.9z M830.8-6.6h-3.3c-0.9,0-2,0-2.8,0.6s-1.3,1.6-1.6,3.2l-1,5.9c-0.2,1.2-0.3,1.8-0.3,2.4
			c0,2.2,1.2,2.9,3.9,2.9h3.3c0.9,0,1.9,0,2.8-0.6c0.9-0.6,1.3-1.6,1.6-3.2l1.1-6c0.2-1.2,0.3-1.8,0.3-2.4
			C834.7-5.8,833.5-6.6,830.8-6.6z M831.6-0.4l-0.7,4.2c-0.4,1.9-0.6,2.6-2.2,2.6h-1.9c-1.6,0-2.3-0.2-2.3-1.2
			c0-0.5,0.2-1.5,0.4-2.8l0.7-4.2c0.4-2,0.6-2.6,2.2-2.6h1.9c1.6,0,2.3,0.2,2.3,1.2C832-2.6,831.9-1.7,831.6-0.4z M782.2-40.6
			l11.2,90h69l11.8-90H782.2z M861.4,48.4h-66.8l-10.9-88h89.1L861.4,48.4z M837.4-3.5L837-1.4c-0.1,0.6-0.2,1.1-0.2,1.5
			c0,1.2,0.5,1.8,2.1,1.8h2.9c0.7,0,1,0,1,0.5c0,0.2,0,0.6-0.2,1.3l-0.2,1c-0.3,1.4-0.5,1.5-1.7,1.5h-5l0.4,2.2h4.6
			c1.3,0,2.2-0.1,2.9-0.5c0.7-0.5,1.1-1.3,1.3-2.5l0.4-2c0.1-0.4,0.3-1.6,0.3-2.1c0-1.5-1.1-1.7-2.7-1.7h-2.5
			c-0.5,0-0.8-0.1-0.8-0.4c0-0.2,0.1-0.6,0.2-1.1l0.2-1.2c0.2-1,0.4-1.2,1.3-1.2h4.8l0.9-2.2h-5.8C838.6-6.5,837.8-5.9,837.4-3.5z"
			/>
	</g>
</g>
<g class="st0">
	<g>
		
			<linearGradient id="SVGID_5_" gradientUnits="userSpaceOnUse" x1="534.1" y1="33.1" x2="447.6" y2="-53.4" gradientTransform="matrix(1 0 0 1 -63 7)">
			<stop  offset="0" style="stop-color:#0063FF"/>
			<stop  offset="1" style="stop-color:#00C8DE"/>
		</linearGradient>
		<path class="st6" d="M390-51.8l-0.1,97.1h76v-97L390-51.8z M415.9,10.8c0,1.4-1.1,2.5-2.5,2.5s-2.5-1.1-2.5-2.5v-30.9
			c0-1.4,1.1-2.5,2.5-2.5s2.5,1.1,2.5,2.5V10.8z M425.9,10.8c0,1.4-1.1,2.5-2.5,2.5s-2.5-1.1-2.5-2.5v-21.9c0-1.4,1.1-2.5,2.5-2.5
			s2.5,1.1,2.5,2.5V10.8z M435.9,10.8c0,1.4-1.1,2.5-2.5,2.5s-2.5-1.1-2.5-2.5v-26.9c0-1.4,1.1-2.5,2.5-2.5s2.5,1.1,2.5,2.5V10.8z
			 M445.9,10.8c0,1.4-1.1,2.5-2.5,2.5s-2.5-1.1-2.5-2.5V-6.1c0-1.4,1.1-2.5,2.5-2.5s2.5,1.1,2.5,2.5V10.8z"/>
	</g>
</g>
<g>
	<g>
		
			<linearGradient id="SVGID_6_" gradientUnits="userSpaceOnUse" x1="540.025" y1="38.975" x2="441.675" y2="-59.375" gradientTransform="matrix(1 0 0 1 -63 7)">
			<stop  offset="0" style="stop-color:#0063FF"/>
			<stop  offset="1" style="stop-color:#00C8DE"/>
		</linearGradient>
		<path class="st7" d="M426.9-5.8h-2v2h2.1v-2H426.9z M424.9,0.2h2.1v-2h-2.1V0.2z M384-57.7v29.2v79.7h87.8V-57.7H384z M470.9,50.2
			h-86v-107h86V50.2L470.9,50.2z M409.9-14.8h2.1v-2h-2.1V-14.8z M424.9,4.2h2.1v-2h-2.1V4.2z M409.9-2.8h2.1v-2h-2.1V-2.8z
			 M409.9-10.8h2.1v-2h-2.1V-10.8z M409.9-6.8h2.1v-2h-2.1V-6.8z M442-7.3c0.2-0.6,0.8-1,1.4-1c0.8,0,1.5,0.7,1.5,1.5V9.7
			c0,1.9,1.6,3.5,3.5,3.5c0.1,0,0.3,0,0.4,0h5.1v-2h-5.5l0,0c-0.8,0-1.5-0.7-1.5-1.5V9.2l0,0V-6.7c0,0,0,0,0-0.1v-0.5l0,0
			c-0.3-1.7-1.7-3-3.5-3c-1.9,0-3.5,1.6-3.5,3.5v0.9h2.1C442-5.8,442-7.3,442-7.3z M411.9-20.8c0-0.8,0.7-1.5,1.5-1.5
			s1.5,0.7,1.5,1.5v2.5l0,0V9.6c0,1.9,1.6,3.5,3.5,3.5s3.5-1.6,3.5-3.5v-20.4l0,0v-0.9c0-0.8,0.7-1.5,1.5-1.5s1.5,0.7,1.5,1.5v0.5
			l0,0v3.5h2.1v-3.9c0-2-1.6-3.5-3.5-3.5s-3.6,1.4-3.6,3.3V7.1h0.1v2.5c0,0.8-0.7,1.5-1.5,1.5s-1.6-0.6-1.6-1.5V7.1h0.1v-27.9
			c0-2-1.6-3.5-3.5-3.5s-3.6,1.6-3.6,3.5v1.9h2C411.9-18.8,411.9-20.8,411.9-20.8z M408.4,13.2c2,0,3.5-1.6,3.5-3.5V-0.8h-2v8l0,0
			v2.5c0,0.8-0.7,1.5-1.5,1.5l0,0h-5.5v2h5.1C408.1,13.2,408.2,13.2,408.4,13.2z M426.9,7.2L426.9,7.2V6.3h-2v3.4
			c0,1.9,1.6,3.5,3.5,3.5s3.5-1.6,3.5-3.5v-21.9l0,0v-4.5c0-0.8,0.7-1.5,1.5-1.5s1.5,0.7,1.5,1.5v5.5l0,0V9.7c0,1.9,1.6,3.5,3.5,3.5
			s3.5-1.6,3.5-3.5V8.3h-2v1h0.1v0.5c0,0.8-0.7,1.5-1.5,1.5s-1.5-0.7-1.5-1.5V9.3h0.1v-26.1c0-2-1.6-3.5-3.5-3.5s-3.5,1.6-3.5,3.5
			V9.3h0.1v0.3c0,0.8-0.7,1.5-1.5,1.5s-1.8-0.6-1.8-1.5V7.2L426.9,7.2z M461.9-47.8H394l-0.1,29.3v58.7h68V-47.8L461.9-47.8z
			 M460.9,39.2h-66.1l0.1-86h66V39.2z M439.9,6.2h2.1v-2h-2.1V6.2z M441.9,0.2h-2v2h2.1v-2H441.9z M441.9-3.8h-2v2h2.1v-2H441.9z"/>
	</g>
</g>
<g class="st0">
	<g>
		
			<linearGradient id="SVGID_7_" gradientUnits="userSpaceOnUse" x1="1022.9724" y1="156.0226" x2="978.6861" y2="111.736" gradientTransform="matrix(1 0 0 1 -63 7)">
			<stop  offset="0" style="stop-color:#0063FF"/>
			<stop  offset="1" style="stop-color:#00C8DE"/>
		</linearGradient>
		<path class="st8" d="M939.8,139h-1.7c-1.4,0-1.7,0.5-2,2.3l-0.7,3.7c-0.2,1.1-0.3,2-0.3,2.5c0,1,0.6,1.1,2.1,1.1h1.7
			c1.4,0,1.6-0.6,2-2.3l0.7-3.7c0.2-1.1,0.4-2,0.4-2.5C941.9,139.1,941.3,139,939.8,139z M909.2,125.2l6.4,36.3h45l6.6-36.3
			C967.2,125.2,909.2,125.2,909.2,125.2z M931.6,139.1h-3.3c-1.4,0-1.6,0.6-2,2.3l-0.6,3.5c-0.2,1.1-0.4,2-0.4,2.5
			c0,0.9,0.6,1.1,2.1,1.1h3.3l-0.8,1.9h-3.4c-2.5,0-3.5-0.7-3.5-2.6c0-0.5,0.1-1.1,0.2-2.2l0.9-5.1c0.3-1.5,0.6-2.4,1.4-2.9
			c0.7-0.5,1.6-0.5,2.5-0.5h4.4L931.6,139.1z M944,141.9l-0.9,5.3c-0.3,1.5-0.6,2.4-1.4,2.9c-0.7,0.5-1.6,0.5-2.5,0.5h-2.9
			c-2.5,0-3.5-0.7-3.5-2.6c0-0.5,0.1-1.1,0.3-2.2l0.9-5.3c0.3-1.5,0.6-2.4,1.4-2.9c0.7-0.5,1.7-0.5,2.5-0.5h2.9
			c2.4,0,3.5,0.6,3.5,2.6C944.3,140.1,944.2,140.8,944,141.9z M954.4,139h-4.3c-0.8,0-0.9,0.2-1.1,1.1l-0.2,1.1
			c-0.1,0.5-0.1,0.8-0.1,1c0,0.3,0.2,0.4,0.7,0.4h2.2c1.5,0,2.4,0.2,2.4,1.5c0,0.5-0.2,1.5-0.2,1.9l-0.3,1.8c-0.2,1-0.5,1.8-1.2,2.2
			c-0.6,0.4-1.5,0.4-2.6,0.4h-4.1l-0.4-1.9h4.5c1.2,0,1.3-0.1,1.6-1.3l0.2-0.9c0.1-0.6,0.2-1,0.2-1.2c0-0.4-0.2-0.4-0.9-0.4h-2.6
			c-1.4,0-1.9-0.5-1.9-1.6c0-0.4,0.1-0.8,0.2-1.3l0.3-1.9c0.4-2.1,1.1-2.6,3.2-2.6h5.2L954.4,139z M943.2,173.8l0.8-1.4l-0.4-0.7
			h-0.9l-1.3,2.2h-2.8l1.4-2.4h2.5l0.4-0.7l-0.4-0.7h-1.7l1-1.6l-0.4-0.7h-0.9l-1,1.6l-0.8-1.4h-0.9l-0.4,0.7l1.3,2.2l-1.4,2.4
			l-1.4-2.4l1.3-2.2l-0.4-0.7h-0.9l-0.8,1.4l-1-1.6h-0.9l-0.4,0.7l1,1.6H932l-0.4,0.7l0.4,0.7h2.5l1.4,2.4h-2.8l-1.3-2.2h-0.9
			l-0.4,0.7l0.8,1.4h-1.9l-0.4,0.7l0.4,0.7h1.9l-0.8,1.4l0.4,0.7h0.9l1.3-2.2h2.8l-1.4,2.4H932l-0.4,0.7l0.4,0.7h1.7l-1,1.6l0.4,0.7
			h0.9l1-1.6l0.8,1.4h0.9l0.4-0.7l-1.3-2.2l1.4-2.4l1.4,2.4l-1.3,2.2l0.4,0.7h0.9l0.8-1.4l1,1.6h0.9l0.4-0.7l-1-1.6h1.7l0.4-0.7
			l-0.4-0.7H940l-1.4-2.4h2.8l1.3,2.2h0.9l0.4-0.7l-0.8-1.4h1.9l0.4-0.7l-0.4-0.7H943.2L943.2,173.8z"/>
	</g>
</g>
<g>
	<g>
		
			<linearGradient id="SVGID_8_" gradientUnits="userSpaceOnUse" x1="1034.6646" y1="173.7145" x2="971.0181" y2="110.068" gradientTransform="matrix(1 0 0 1 -63 7)">
			<stop  offset="0" style="stop-color:#0063FF"/>
			<stop  offset="1" style="stop-color:#00C8DE"/>
		</linearGradient>
		<path class="st9" d="M959.9,165.5c-5.3,0-9.6,4.3-9.6,9.6c0,5.3,4.3,9.6,9.6,9.6c3.7,0,6.9-2.1,8.5-5.2H966
			c-1.4,1.9-3.6,3.2-6.2,3.2c-4.2,0-7.6-3.4-7.6-7.6s3.4-7.6,7.6-7.6c3,0,5.5,1.7,6.8,4.2l-2.7,1.6l5.2,1.4l1.4-5.2l-2.1,1.2
			C966.8,167.5,963.6,165.5,959.9,165.5z M915.8,183.5l-3.1-17.9h39.8c0.5-0.4,1-0.7,1.5-1h-41.4l-7.4-42.1h66.5l-7.6,41.1
			c0.3,0.1,0.6,0.2,0.9,0.3l7.9-42.4h-69.1l11.2,63h37.1c-0.4-0.3-0.7-0.6-1-1H915.8L915.8,183.5z"/>
	</g>
</g>
<g>
	<g>
		<path class="st3" d="M976.9,152.4h8v-2h-8V152.4z M988.9,152.4h8v-2h-8V152.4z M1000.9,152.4h8v-2h-8V152.4z M1012.9,147.1v8.2
			l9.2-4.2L1012.9,147.1z"/>
	</g>
</g>
<g class="st0">
	<g>
		
			<linearGradient id="SVGID_9_" gradientUnits="userSpaceOnUse" x1="1140.6833" y1="155.5429" x2="1100.9758" y2="115.8353" gradientTransform="matrix(1 0 0 1 -63 7)">
			<stop  offset="0" style="stop-color:#0063FF"/>
			<stop  offset="1" style="stop-color:#00C8DE"/>
		</linearGradient>
		<path class="st10" d="M1080.9,125.9h-46v23.8l0,0v0.1c0,6.7,2.9,12.8,7.5,17.1l15.3,12.3l0.2,0.1l0.2-0.1l15.3-12.3
			c4.6-4.3,7.5-10.3,7.5-17.1v-0.1l0,0V125.9L1080.9,125.9z M1050.9,156.4c0,1.4-1.1,2.5-2.5,2.5c-1.4,0-2.5-1.1-2.5-2.5v-19.9
			c0-1.4,1.1-2.5,2.5-2.5c1.4,0,2.5,1.1,2.5,2.5V156.4z M1060.9,156.4c0,1.4-1.1,2.5-2.5,2.5c-1.4,0-2.5-1.1-2.5-2.5v-10.9
			c0-1.4,1.1-2.5,2.5-2.5c1.4,0,2.5,1.1,2.5,2.5V156.4z M1070.9,156.4c0,1.4-1.1,2.5-2.5,2.5c-1.4,0-2.5-1.1-2.5-2.5v-15.9
			c0-1.4,1.1-2.5,2.5-2.5c1.4,0,2.5,1.1,2.5,2.5V156.4z"/>
	</g>
</g>
<g>
	<g>
		
			<linearGradient id="SVGID_10_" gradientUnits="userSpaceOnUse" x1="1144.2823" y1="158.3468" x2="1097.4177" y2="111.4823" gradientTransform="matrix(1 0 0 1 -63 7)">
			<stop  offset="0" style="stop-color:#0063FF"/>
			<stop  offset="1" style="stop-color:#00C8DE"/>
		</linearGradient>
		<path class="st11" d="M1044.8,153h2.1v-2h-2.1V153z M1059.8,154h2.1v-2h-2.1V154z M1061.9,148h-2.1v2h2.1V148z M1044.8,141h2.1v-2
			h-2.1V141z M1069.8,148h2.1v-2h-2.1V148z M1044.8,145h2.1v-2h-2.1V145z M1044.8,149h2.1v-2h-2.1V149z M1071.9,156.1L1071.9,156.1
			V154h-2v2.5c0,1.9,1.6,3.5,3.5,3.5c0.1,0,0.3,0,0.4,0h2.1v-2h-2.5l0,0c-0.8,0-1.5-0.7-1.5-1.5V156.1L1071.9,156.1z M1043.2,160
			c1.9,0,3.5-1.6,3.5-3.5V155h-2v1.5c0,0.8-0.7,1.5-1.5,1.5l0,0h-3.5v2h3.1C1043.1,160,1043.2,160,1043.2,160z M1084.8,122h-53.9
			v28.4l0,0v0.1c0,7.9,3.4,15,8.8,20l18,14.4l0.2,0.1l0.2-0.1l18-14.4c5.4-5,8.8-12.1,8.8-20v-0.1l0,0V122H1084.8z M1083.8,150.4
			L1083.8,150.4L1083.8,150.4c0,7.7-3.3,14.6-8.4,19.4l-17.3,13.9l-0.2,0.1l-0.2-0.1l-17.3-13.9c-5.2-4.8-8.4-11.6-8.4-19.3v-0.1
			l0,0V123h51.9L1083.8,150.4L1083.8,150.4z M1046.8,135.1c0-0.8,0.7-1.5,1.5-1.5s1.5,0.7,1.5,1.5v2.5h-0.1v18.9
			c0,1.9,1.6,3.5,3.5,3.5c1.9,0,3.5-1.6,3.5-3.5l-0.1-11.5l0,0v-0.9c0-0.8,0.7-1.5,1.5-1.5s1.5,0.7,1.5,1.5v0.5h-0.1v1.5h2.1v-1.9
			c0-1.9-1.6-3.5-3.5-3.5c-1.9,0-3.5,1.6-3.5,3.5v9.9h0.1v2.5c0,0.8-0.7,1.5-1.5,1.5s-1.5-0.7-1.5-1.5v-2.5h0.1v-18.9
			c0-1.9-1.6-3.5-3.5-3.5c-1.9,0-3.5,1.6-3.5,3.5v1.9h2V135.1z M1061.9,156h-2v0.5c0,1.9,1.6,3.5,3.5,3.5c1.9,0,3.5-1.6,3.5-3.5
			v-12.9h-0.1v-4.5c0-0.8,0.7-1.5,1.5-1.5s1.5,0.7,1.5,1.5v0.9h2v-0.9c0-1.9-1.6-3.5-3.5-3.5c-1.9,0-3.5,1.6-3.5,3.5v17.1h0.1v0.3
			c0,0.8-0.7,1.5-1.5,1.5s-1.5-0.7-1.5-1.5V156z M1069.8,152h2.1v-2h-2.1V152z M1071.9,142h-2.1v2h2.1V142z"/>
	</g>
</g>
<g>
	<g>
		<path class="st12" d="M1003.8,85.4h2.9c-0.3,1.4-0.7,2.6-1.3,3.5c-0.7,0.9-1.6,1.6-2.9,2.3l0.5,0.6c1.4-0.8,2.4-1.7,3.1-2.6
			c0.6-0.9,1.1-2.2,1.4-3.8h4c-0.1,2.4-0.2,3.9-0.5,4.6s-0.8,1-1.5,1c-0.5,0-1.3,0-2.5,0l0.2,0.7h2.6c0.7,0,1.2-0.2,1.5-0.7
			c0.3-0.4,0.5-1.2,0.7-2.2c0.1-1.1,0.2-2.4,0.3-4.2h-8.4L1003.8,85.4L1003.8,85.4z M1010.1,79.2l-0.6,0.4c0.8,2.2,2.4,4,4.5,5.4
			l0.5-0.6C1012.4,83.2,1010.9,81.3,1010.1,79.2z M1005.1,82.8c0.7-0.7,1.3-1.7,2-2.9l-0.6-0.4c-0.5,1.1-1.2,2-1.9,2.8
			c-0.8,0.9-1.7,1.7-2.7,2.2l0.4,0.7C1003.4,84.3,1004.3,83.5,1005.1,82.8z M1026.4,82l0.5-0.5c-0.7-0.8-1.5-1.6-2.5-2.4l-0.5,0.5
			C1024.9,80.4,1025.9,81.2,1026.4,82z M1026.4,85.8v-0.7h-5.8c0.2-0.5,0.4-1.1,0.6-1.8h6.8v-0.7h-6.7c0.3-1,0.5-2.1,0.7-3.5
			l-0.8-0.1c-0.2,1.2-0.4,2.4-0.7,3.6h-2.7l0.9-2.9l-0.8-0.1l-1.1,3.7h3.5c-1,3.2-2.5,5.8-4.7,7.7l0.4,0.7c1.6-1.3,3-3.2,4-5.5
			c0.5,1.1,1.3,2.1,2.5,3c-1.1,0.8-2.5,1.4-4.2,2l0.4,0.7c1.8-0.7,3.3-1.5,4.4-2.3c1.2,0.8,2.7,1.6,4.6,2.2l0.4-0.7
			c-1.7-0.6-3.2-1.3-4.4-2C1025.2,88.2,1025.9,86.9,1026.4,85.8z M1023.4,88.8c-1.2-0.9-2.1-1.9-2.6-2.9h4.9
			C1025.2,86.8,1024.4,87.8,1023.4,88.8z M1032.2,91.9v-9.5c0.5-1,0.9-2,1.3-3.1l-0.7-0.3c-0.7,2.3-1.8,4.3-3.2,6l0.2,0.8
			c0.6-0.6,1.1-1.3,1.7-2.1v8.2H1032.2z M1037.8,82.8h-3.3v3.8h3.2c-0.1,1.1-0.3,2-0.7,2.7c-0.8-0.6-1.5-1.2-2.2-2.1l-0.6,0.4
			c0.7,0.9,1.5,1.6,2.3,2.2c-0.6,0.7-1.7,1.1-3.3,1.3l0.3,0.7c1.7-0.3,2.9-0.8,3.6-1.6c1.5,0.9,3.3,1.4,5.3,1.6l0.2-0.7
			c-1.9-0.1-3.6-0.6-5.1-1.4c0.4-0.7,0.7-1.7,0.8-3.1h3.4v-3.8h-3.3v-1.5h3.9v-0.7h-3.9v-1.5h-0.7v1.5h-3.8v0.7h3.8L1037.8,82.8
			L1037.8,82.8z M1037.7,85.9h-2.5v-2.4h2.6L1037.7,85.9z M1038.4,85.8v-2.2h2.6V86h-2.6V85.8z M1045.9,87.2h3.9v4.2h0.8v-4.2h4.1
			v2.7c0,0.6-0.3,1-0.9,1c-0.5,0-1,0-1.6,0l0.2,0.7h1.6c0.9,0,1.4-0.5,1.4-1.4V79.8h-10.2v6.6c0,2-0.5,3.6-1.4,4.9l0.6,0.5
			C1045.2,90.5,1045.8,89,1045.9,87.2z M1050.6,80.4h4.1v2.7h-4.1V80.4z M1050.6,83.8h4.1v2.7h-4.1V83.8z M1045.9,80.4h3.8v2.7h-3.8
			V80.4z M1045.9,86.4v-2.6h3.8v2.7L1045.9,86.4L1045.9,86.4z M1034.9,202c-0.5,0-0.8-0.3-0.8-0.8v-1.1h8V197h-8.8v4.5
			c0,0.8,0.4,1.2,1.3,1.2h7.9c0.6,0,1-0.2,1.2-0.6c0.1-0.3,0.2-0.7,0.3-1.4l-0.7-0.2c-0.1,0.6-0.1,1-0.3,1.2
			c-0.1,0.2-0.4,0.3-0.7,0.3H1034.9L1034.9,202z M1034.2,197.8h7.3v1.7h-7.3V197.8z M1040.9,203.4h-0.8v1.7h-3.9c0-0.4,0-1,0-1.7
			h-0.8v1.7h-3.7v0.7h3.6c-0.3,1.4-1.2,2.3-2.7,2.8l0.4,0.7c1.7-0.6,2.8-1.7,3.1-3.5h4v3.4h0.8v-3.4h3.6V205h-3.6V203.4
			L1040.9,203.4z M1057.4,208c-0.1,0.2-0.4,0.3-0.7,0.3h-3.7c-0.5,0-0.7-0.2-0.7-0.7v-6.1l2-0.6v5.4h0.7v-5.6l2.2-0.7
			c0,2.3,0,3.6-0.1,3.9c-0.1,0.4-0.3,0.5-0.6,0.5c-0.1,0-0.4,0-0.7,0l0.2,0.8h0.3c0.8,0,1.3-0.3,1.4-0.9c0.1-0.6,0.2-2.4,0.2-5.3
			l-2.9,0.9v-3.4h-0.7v3.6l-2,0.6v-2.8h-0.7v3.1l-1.1,0.3v0.7l1.1-0.3v6c0,0.9,0.4,1.3,1.2,1.3h4.1c0.5,0,0.9-0.1,1.1-0.4
			c0.3-0.3,0.5-1.2,0.5-2.6l-0.7-0.2C1057.7,207,1057.4,207.6,1057.4,208z M1048.4,201h1.7v-0.7h-1.7v-3.8h-0.8v3.8h-1.8v0.7h1.8
			v5.2c-0.7,0.2-1.3,0.4-1.9,0.5l0.2,0.8c1.6-0.4,3.1-0.9,4.5-1.5v-0.8c-0.7,0.3-1.4,0.6-2,0.8L1048.4,201L1048.4,201z
			 M1061.2,198.5h9.7v1.6h0.8v-2.3h-5.1c-0.2-0.5-0.3-1-0.5-1.3l-0.8,0.1c0.2,0.4,0.4,0.8,0.5,1.2h-5.4v2.4h0.8V198.5z
			 M1067.2,199.6c1.8,1,3.2,1.8,4.2,2.7l0.5-0.5c-1.2-0.9-2.6-1.8-4.2-2.6L1067.2,199.6z M1065.1,199.6l-0.5-0.5
			c-1.2,1-2.6,1.9-4.3,2.6l0.4,0.6C1062.4,201.5,1063.9,200.6,1065.1,199.6z M1066.4,200.9h-0.6c-1.4,1.6-3.4,2.8-6,3.8l0.4,0.6
			c2.4-0.9,4.3-2.2,5.9-3.8c1.3,1.5,3.2,2.8,5.8,3.8l0.4-0.6C1069.6,203.5,1067.6,202.4,1066.4,200.9z M1062.2,209.2h0.8v-0.6h6.5
			v0.6h0.7v-4.5h-8V209.2z M1062.9,205.5h6.5v2.5h-6.5V205.5z M1083.1,205c0.7-1,1.3-2.1,1.7-3.4l-0.7-0.3c-0.5,1.2-1,2.3-1.7,3.2
			L1083.1,205z M1075.4,198.9h9.6v2.2h0.8v-3h-5.3c-0.2-0.7-0.4-1.3-0.6-1.7l-0.8,0.1c0.2,0.5,0.4,1,0.6,1.6h-5v3h0.8L1075.4,198.9
			L1075.4,198.9z M1080.4,202.2c0.1-0.7,0.1-1.5,0.1-2.5h-0.8v1.6c-0.1,2.9-2,5.2-5.7,7l0.4,0.6c2.9-1.5,4.8-3.3,5.6-5.5
			c0.8,2.3,2.7,4.2,5.6,5.5l0.5-0.6C1082.9,207,1081.1,205,1080.4,202.2z M1075.4,205c0.8-1,1.5-2.1,2.1-3.5l-0.7-0.3
			c-0.6,1.3-1.2,2.4-2,3.4L1075.4,205z M913.5,209.2v-6h-8.6v6h0.7v-0.7h7.1v0.7H913.5z M909.5,203.9h3.2v1.7h-3.2V203.9z
			 M908.8,207.9h-3.2v-1.7h3.2V207.9z M908.8,205.5h-3.2v-1.7h3.2V205.5z M909.5,207.9v-1.7h3.2v1.7H909.5z M913.3,198v-0.6h-5.8
			c0.3-0.4,0.5-0.7,0.7-1.1l-0.8-0.2c-1,1.5-2.3,2.7-3.9,3.7l0.5,0.6c0.7-0.4,1.4-1,2.1-1.5c0.7,0.7,1.5,1.3,2.5,1.9
			c-1.6,0.8-3.5,1.3-5.7,1.6l0.3,0.7c2.3-0.4,4.4-1,6.1-1.9c1.6,0.8,3.6,1.4,6,1.8l0.3-0.7c-2.2-0.3-4-0.8-5.6-1.5
			C911.3,200.1,912.4,199.1,913.3,198z M909.2,200.5c-1.1-0.6-2-1.2-2.7-2c0.1-0.1,0.2-0.2,0.4-0.4h5.5
			C911.4,199.1,910.4,200,909.2,200.5z M926.1,196.5l-0.7,0.4c0.7,2.2,1.9,4,3.7,5.3l0.5-0.6C927.9,200.2,926.7,198.5,926.1,196.5z
			 M920.6,202.4c1.4-1.3,2.6-3.1,3.4-5.5l-0.7-0.3c-0.8,2.2-1.9,4-3.3,5.2L920.6,202.4z M918.6,209.2h0.8v-9.3c0.5-1,1-2.1,1.4-3.3
			l-0.7-0.3c-0.7,2.3-1.8,4.3-3.4,6.1l0.2,0.8c0.6-0.7,1.2-1.4,1.7-2.1V209.2L918.6,209.2z M921.6,202.8h1.9c-0.2,1.4-0.5,2.5-1,3.4
			c-0.4,0.9-1.1,1.6-2,2.3l0.5,0.6c1-0.8,1.7-1.7,2.2-2.6c0.4-0.9,0.8-2.2,1-3.7h2.6c0,2.4-0.1,3.8-0.2,4.3c-0.1,0.8-0.4,1.3-1,1.3
			c-0.2,0-0.8,0-1.6-0.1l0.2,0.7c0.7,0,1.2,0,1.5,0c1,0,1.5-0.6,1.6-1.7c0.1-0.7,0.2-2.5,0.2-5.3h-6L921.6,202.8L921.6,202.8z
			 M939.9,203.4c1-0.6,1.9-1.3,2.6-2v-0.7H936v0.7h5.5c-0.7,0.6-1.5,1.2-2.4,1.7v1.4h-4.2v0.7h4.2v2.7c0,0.4-0.2,0.6-0.6,0.6
			c-0.4,0-1,0-1.7,0l0.2,0.7h1.8c0.7,0,1.1-0.4,1.1-1.1v-2.9h3.6v-0.7h-3.6V203.4L939.9,203.4z M930.8,204.1l0.5,0.6
			c0.6-0.5,1.2-1.1,1.8-1.8v6.3h0.8v-7.2c0.8-1.1,1.4-2.2,1.9-3.3h7.6v-0.7h-7.3c0.2-0.6,0.4-1.1,0.5-1.5l-0.8-0.1
			c-0.1,0.4-0.3,1-0.5,1.6h-3.9v0.7h3.6C933.9,200.8,932.6,202.5,930.8,204.1z M950.3,199.8l0.6-0.6c-0.6-0.7-1.3-1.4-2.1-2.1
			l-0.5,0.5C949.1,198.2,949.8,199,950.3,199.8z M949,208l0.3,0.7c0.8-0.7,1.5-1.4,2.2-2.3l-0.2-0.8c-0.5,0.6-0.9,1-1.3,1.4v-6.2
			h-2.4v0.7h1.7v5.9C949.2,207.6,949.2,207.8,949,208z M950.8,204l0.4,0.6c0.4-0.2,0.8-0.4,1.2-0.7v5.2h0.7v-0.6h2.9v0.6h0.7V203h-3
			c0.5-0.5,1-1,1.4-1.5h2.4v-0.7h-1.8c0.7-1,1.3-2.1,1.8-3.3l-0.6-0.4c-0.6,1.4-1.2,2.6-2,3.6h-0.5v-2h1.7v-0.7h-1.7v-1.7h-0.7v1.7
			h-1.8v0.7h1.8v2h-2.1v0.7h2.8C953.2,202.6,952.1,203.5,950.8,204z M955.9,207.9H953V206h2.9V207.9z M955.9,203.8v1.7H953v-1.7
			H955.9z M946.2,209.2h0.7v-9.7c0.4-0.9,0.7-1.8,1-2.8l-0.7-0.3c-0.5,2.1-1.3,4-2.5,5.6l0.2,0.8c0.4-0.6,0.9-1.2,1.2-1.8
			L946.2,209.2L946.2,209.2z M959,205.6c0.8-1.2,1.4-2.5,1.8-4v7.5h0.7v-7.5c0.4,0.6,0.8,1.3,1.3,2.3l0.4-0.6
			c-0.6-0.9-1.1-1.7-1.8-2.5V200h1.7v-0.7h-1.7v-2.8h-0.5v2.8h-1.8v0.7h1.8c-0.4,1.8-1.1,3.4-2.1,4.9L959,205.6z M967.4,199.5
			c-0.6-0.4-1.2-0.8-1.8-1.1l-0.5,0.5c0.8,0.5,1.6,0.9,2.2,1.4h-3.4v8.8h0.7V206h2.5v3h0.7v-3h2.5v2c0,0.3-0.2,0.5-0.5,0.5h-1.2
			l0.2,0.7h1.2c0.6,0,0.9-0.3,0.9-1v-7.8h-2.7l-0.4-0.3c1-0.7,1.9-1.4,2.7-2.3v-0.6h-6.9v0.7h6C969,198.5,968.2,199,967.4,199.5z
			 M967.2,205.4h-2.5v-1.8h2.5V205.4z M967.2,202.9h-2.5V201h2.5V202.9z M970.4,205.4h-2.5v-1.8h2.5V205.4z M970.4,201v1.8h-2.5V201
			H970.4z M901,214.2h-0.8c-0.6,0.9-1.1,1.9-1.4,2.9c-0.4,1.2-0.6,2.4-0.6,3.6s0.2,2.4,0.6,3.7c0.3,1,0.8,2,1.4,2.9h0.8
			c-0.6-0.9-1-1.9-1.3-2.9c-0.4-1.2-0.6-2.4-0.6-3.6s0.2-2.4,0.6-3.6C900,216.1,900.5,215.2,901,214.2z M903,216h9.7v9.5
			c0,0.6-0.3,0.8-0.8,0.8c-0.4,0-1.2,0-2.2-0.1l0.2,0.7h2.3c0.9,0,1.3-0.4,1.3-1.3v-9.7h1.9v-0.6H903V216z M909.9,218.5h-5.2v6.2
			h0.7v-1.3h4.5V218.5L909.9,218.5z M909.2,222.8h-3.8v-3.6h3.8V222.8z M928.5,217v-0.7h-2.8v-1.9H925v1.9h-2.2
			c0.2-0.5,0.3-1,0.5-1.5l-0.7-0.2c-0.4,1.3-0.9,2.5-1.6,3.5l0.6,0.4c0.3-0.5,0.6-1,0.9-1.5h2.5v2.2h-3.6v0.7h2.3
			c0,0.9-0.2,1.7-0.4,2.4c-0.4,0.9-1.2,1.6-2.3,2.2l0.5,0.6c1.3-0.7,2.2-1.6,2.5-2.6c0.3-0.7,0.4-1.6,0.4-2.6h1.6v4.2
			c0,0.3,0.1,0.5,0.2,0.6c0.2,0.2,0.4,0.3,0.7,0.3h1.1c0.5,0,0.8-0.1,1-0.3c0.2-0.2,0.4-0.9,0.5-2l-0.7-0.2c-0.1,1-0.2,1.6-0.4,1.7
			c-0.1,0.1-0.3,0.1-0.6,0.1H927c-0.3,0-0.4-0.1-0.4-0.4v-4h2.4v-0.7h-3.4V217H928.5L928.5,217z M926,226.2c-0.9,0-1.8,0-2.7,0
			c-0.8,0-1.5-0.1-1.9-0.3c-0.4-0.2-0.8-0.5-1.2-0.9c-0.1-0.2-0.3-0.3-0.4-0.4v-5.3h-2.9v0.7h2.1v4.5c-0.6,0.2-1.2,0.9-2,2.1
			l0.6,0.5c0.8-1.3,1.4-1.9,1.8-1.9c0.2,0,0.3,0.1,0.5,0.4c0.4,0.5,0.9,0.9,1.5,1c0.5,0.1,1.3,0.2,2.2,0.3c1.2,0,2.1,0,2.5,0h3.1
			l0.2-0.8l-1.5,0.1H926L926,226.2z M917.8,214.8l-0.5,0.5c1,0.8,1.8,1.5,2.4,2.2l0.5-0.5C919.6,216.2,918.8,215.5,917.8,214.8z
			 M939.9,223.8c-0.5-0.8-1.3-1.8-2.4-3l-0.6,0.4c1,1.1,1.8,2.1,2.4,3L939.9,223.8z M932.1,215.2c0.7,0.8,1.4,1.5,1.9,2.3l0.6-0.4
			c-0.4-0.6-1.1-1.4-1.9-2.3L932.1,215.2z M936.8,215.9v-1.4h-0.7v1.4c0,0.8-0.1,1.5-0.1,2.1h-4.5v0.8h4.5c-0.2,1.5-0.5,2.7-1,3.8
			c-0.8,1.7-2.1,3-4,3.9l0.4,0.7c1.9-1,3.3-2.3,4.1-4c0.6-1.2,1-2.7,1.2-4.5h5.1c0,1.8-0.1,3.5-0.2,5.2c-0.1,1.6-0.7,2.4-1.5,2.5
			c-0.6,0-1.2,0-1.8-0.1l0.2,0.7c0.4,0,1,0,1.7,0c0.9,0,1.6-0.5,1.9-1.6c0.4-1.1,0.5-3.6,0.5-7.5h-5.8
			C936.7,217.4,936.8,216.6,936.8,215.9z M951.9,218l-0.5,0.5c0.7,0.5,1.3,1,1.9,1.7l0.5-0.5C953.2,219,952.6,218.5,951.9,218z
			 M945,215.2c1,1,1.8,2,2.3,2.9l0.6-0.4c-0.5-0.8-1.3-1.7-2.3-2.8L945,215.2z M953,214.6h-0.7c-1.1,1.9-2.6,3.5-4.5,4.7l0.4,0.6
			c1.8-1.1,3.2-2.6,4.4-4.5c1,1.8,2.5,3.3,4.5,4.5l0.4-0.6C955.4,218,953.9,216.4,953,214.6z M948.9,221.5h6.3
			c-0.9,1.2-1.9,2.3-2.8,3.1c-0.5-0.3-1.2-0.7-2.1-1.2l-0.5,0.5c2,1.1,3.6,2.2,4.8,3.2l0.5-0.5c-0.7-0.5-1.3-1-2.1-1.5
			c1.2-1.1,2.2-2.2,3.1-3.6v-0.6h-7.2V221.5L948.9,221.5z M945,226.5l0.7,0.3c0.8-1.7,1.6-3.4,2.3-5.3l-0.7-0.3
			C946.7,223,945.9,224.8,945,226.5z M960.9,227.2h0.7v-0.7h7.1v0.7h0.7v-6h-8.5V227.2L960.9,227.2z M965.5,221.9h3.2v1.7h-3.2
			V221.9z M965.5,224.2h3.2v1.7h-3.2V224.2z M961.6,221.9h3.2v1.7h-3.2V221.9z M961.6,224.2h3.2v1.7h-3.2V224.2z M969.3,216v-0.6
			h-5.8c0.3-0.4,0.5-0.7,0.7-1.1l-0.8-0.2c-1,1.5-2.3,2.7-3.9,3.7l0.5,0.6c0.7-0.4,1.4-1,2.1-1.5c0.7,0.7,1.5,1.3,2.5,1.9
			c-1.6,0.8-3.5,1.3-5.7,1.6l0.3,0.7c2.3-0.4,4.4-1,6.1-1.9c1.6,0.8,3.6,1.4,6,1.8l0.3-0.7c-2.2-0.3-4-0.8-5.6-1.5
			C967.3,218.1,968.4,217.1,969.3,216z M965.2,218.5c-1.1-0.6-2-1.2-2.7-2c0.1-0.1,0.2-0.2,0.4-0.4h5.5
			C967.4,217.1,966.4,218,965.2,218.5z M974.1,214.2h-0.8c0.5,0.9,1,1.9,1.3,2.9c0.4,1.3,0.6,2.5,0.6,3.6s-0.2,2.4-0.6,3.6
			c-0.3,1-0.8,2-1.3,2.9h0.8c0.6-0.9,1-1.8,1.4-2.9c0.4-1.3,0.6-2.5,0.6-3.7c0-1.2-0.2-2.4-0.6-3.6
			C975.1,216.1,974.6,215.1,974.1,214.2z M808.6,80.8c-0.2-0.5-0.4-1.2-0.8-2.1l-0.8,0.2c0.3,0.7,0.6,1.4,0.9,2.2L808.6,80.8z
			 M808.6,86.2h4.6v-0.7h-4.6V82h5.3v-0.7h-11.4V82h5.3v3.6h-4.6v0.7h4.6v4H802v0.7h12.3v-0.7h-5.8L808.6,86.2L808.6,86.2z
			 M828.2,81v-0.7h-7.3c0.2-0.6,0.4-1.1,0.5-1.5l-0.8-0.1c-0.1,0.4-0.3,1-0.5,1.6h-3.9V81h3.6c-0.9,2.1-2.3,3.9-4.1,5.4l0.5,0.6
			c0.6-0.5,1.2-1.1,1.8-1.8v6.3h0.8v-7.2c0.8-1.1,1.4-2.2,1.9-3.3H828.2L828.2,81z M824.9,85.7c1-0.6,1.9-1.3,2.6-2V83H821v0.7h5.5
			c-0.7,0.6-1.5,1.2-2.4,1.7v1.4h-4.2v0.7h4.2v2.7c0,0.4-0.2,0.6-0.6,0.6c-0.4,0-1,0-1.7,0l0.2,0.7h1.8c0.7,0,1.1-0.4,1.1-1.1v-2.9
			h3.6v-0.7h-3.6V85.7L824.9,85.7z M835,89.3v-6.2h-2.4v0.7h1.7v5.9c0,0.2-0.1,0.3-0.3,0.5l0.3,0.7c0.8-0.7,1.5-1.4,2.2-2.3
			l-0.2-0.8C835.8,88.4,835.4,88.9,835,89.3z M835.3,82l0.6-0.6c-0.6-0.7-1.3-1.4-2.1-2.1l-0.5,0.5C834.1,80.5,834.8,81.2,835.3,82z
			 M832.2,78.8c-0.5,2.1-1.3,4-2.5,5.6l0.2,0.8c0.4-0.6,0.9-1.2,1.2-1.8v8.2h0.7v-9.7c0.4-0.9,0.7-1.8,1-2.8L832.2,78.8z
			 M842.3,79.8l-0.6-0.4c-0.6,1.4-1.2,2.6-2,3.6h-0.5v-2h1.7v-0.7h-1.7v-1.7h-0.7v1.7h-1.8V81h1.8v2h-2.1v0.7h2.8
			c-1,1.1-2.1,1.9-3.4,2.5l0.4,0.6c0.4-0.2,0.8-0.4,1.2-0.7v5.2h0.7v-0.6h2.9v0.6h0.7v-6h-3c0.5-0.5,1-1,1.4-1.5h2.4v-0.7h-1.8
			C841.2,82.2,841.8,81,842.3,79.8z M840.9,90.2H838v-1.8h2.9V90.2z M840.9,86v1.7H838V86H840.9z M853,82.2c1-0.7,1.9-1.4,2.7-2.3
			v-0.6h-6.9V80h6c-0.7,0.7-1.5,1.3-2.3,1.8c-0.6-0.4-1.2-0.8-1.8-1.1l-0.5,0.5c0.8,0.5,1.6,0.9,2.2,1.4h-3.5v8.8h0.7v-3.1h2.5v3
			h0.7v-3h2.5v2c0,0.3-0.2,0.5-0.5,0.5h-1.2l0.3,0.5h1.2c0.6,0,0.9-0.3,0.9-1v-7.8h-2.7L853,82.2z M852.2,87.7h-2.5v-1.8h2.5V87.7z
			 M852.2,85.2h-2.5v-1.8h2.5V85.2z M855.4,87.7h-2.5v-1.8h2.5V87.7z M855.4,85.2h-2.5v-1.8h2.5V85.2z M846.6,82.2h1.7v-0.7h-1.7
			v-2.8h-0.7v2.8h-1.8v0.7h1.8c-0.4,1.8-1.1,3.4-2.1,4.9l0.3,0.8c0.8-1.2,1.4-2.5,1.8-4v7.5h0.7V84c0.4,0.6,0.8,1.3,1.3,2.3l0.4-0.6
			c-0.6-0.9-1.1-1.7-1.8-2.4L846.6,82.2L846.6,82.2z M426,87.8c0.8-1.7,1.2-3.7,1.3-6.1h1v-0.7h-3.8c0.1-0.7,0.2-1.4,0.3-2.1
			l-0.8-0.1c-0.3,2.7-0.9,4.9-1.7,6.4l0.5,0.6c0.3-0.6,0.7-1.3,0.9-2c0.4,1.6,0.9,2.9,1.5,4.1c-0.7,1.2-1.5,2.3-2.7,3.1l0.4,0.6
			c1.1-0.8,2-1.8,2.7-3c0.7,1.2,1.6,2.2,2.6,2.9l0.4-0.6C427.6,90.2,426.7,89.2,426,87.8z M425.6,87c-0.6-1.3-1.1-2.8-1.5-4.5
			c0.1-0.2,0.1-0.5,0.2-0.8h2.3C426.5,83.8,426.2,85.4,425.6,87z M422.1,79.2l-0.6-0.3c-0.2,0.6-0.6,1.2-1,1.9l0.6,0.3
			C421.5,80.5,421.8,79.8,422.1,79.2z M415.9,84.4l0.4,0.6c1.3-0.8,2.1-1.8,2.6-2.9l0,0v2.8h0.7v-2c0.6,0.4,1.2,0.9,2,1.5l0.4-0.6
			c-0.7-0.5-1.5-1-2.4-1.5v-0.2h2.6v-0.7h-2.6v-2.7h-0.7v2.7h-2.8v0.7h2.2C417.9,83,417.1,83.8,415.9,84.4z M422,86.8v-0.6h-3
			l0.3-0.9l-0.7-0.1l-0.4,1h-2.1v0.7h1.8c-0.3,0.6-0.6,1.2-1,1.8c0.8,0.3,1.4,0.6,2,0.8c-0.8,0.6-1.9,1-3.1,1.3l0.4,0.6
			c1.4-0.4,2.6-0.9,3.5-1.6c0.9,0.4,1.6,0.8,2.3,1.1l0.4-0.6c-0.7-0.4-1.4-0.7-2.1-1C421.1,88.7,421.6,87.8,422,86.8z M419.5,89
			c-0.6-0.3-1.1-0.5-1.7-0.7c0.3-0.5,0.6-1,0.8-1.5h2.6C420.9,87.8,420.3,88.4,419.5,89z M418,80.8c-0.3-0.6-0.6-1.2-0.9-1.8
			l-0.6,0.2c0.4,0.6,0.7,1.2,1,1.8L418,80.8z M439.4,82.5h2.7v-3.2h-7.3v4.2c0,3-0.5,5.5-1.6,7.4l0.6,0.5c0.9-1.8,1.5-4,1.7-6.4h3.1
			v1.9h-2.4v4.5h0.7v-0.7h4.2v0.7h0.7v-4.5h-2.4V85h3.1v-0.7h-3.1L439.4,82.5L439.4,82.5z M435.5,84.4v-1.8h3.1v1.8H435.5z
			 M441.1,87.8v2.3h-4.2v-2.3H441.1z M435.6,81.9v-1.8h5.8v1.8H435.6z M433.9,84.7c-0.4,0.2-0.9,0.5-1.4,0.7v-3.1h1.4v-0.7h-1.4
			v-2.7h-0.8v2.7h-1.8v0.7h1.8v3.3c-0.6,0.2-1.3,0.4-2,0.6l0.2,0.7c0.6-0.2,1.2-0.4,1.8-0.6v3.7c0,0.4-0.2,0.7-0.6,0.7
			c-0.2,0-0.6,0-1.1-0.1l0.2,0.7h1.2c0.7,0,1.1-0.4,1.1-1.1v-4.2c0.4-0.2,0.9-0.4,1.4-0.7C433.9,85.3,433.9,84.7,433.9,84.7z
			 M585.9,83.8h5.2v-0.7h-5.2v-4.4h-0.8v11.4H580v0.7h12.4v-0.7h-6.5V83.8L585.9,83.8z M597.1,78.8c-0.7,2.2-1.8,4.1-3.4,5.9
			l0.3,0.8c0.6-0.7,1.2-1.3,1.7-2v8.2h0.8v-9.4c0.6-1,1-2,1.4-3.1L597.1,78.8z M601.4,81.3h4.6v-0.7h-4.4c0.2-0.7,0.3-1.3,0.4-1.8
			l-0.7-0.1c-0.2,0.8-0.3,1.5-0.4,1.9H598v0.7h2.6c-0.1,0.5-0.3,1.1-0.6,1.9h-2.6v0.7h2.4c-0.3,0.9-0.6,1.8-1,2.7h6.1
			c-0.7,1-1.6,1.9-2.8,2.7c-0.8-0.4-1.7-0.8-2.6-1.2l-0.4,0.6c1.8,0.7,3.6,1.6,5.3,2.8l0.4-0.7c-0.6-0.4-1.2-0.8-2-1.2
			c1.4-1,2.3-2.1,3-3.1v-0.7h-6c0.3-0.7,0.6-1.4,0.8-2h5.9v-0.7h-5.7C601.1,82.7,601.2,82,601.4,81.3z M608.8,84l0.2,0.7
			c3-0.1,5.9-0.4,8.9-0.9c0.3,0.4,0.7,0.9,1,1.4l0.6-0.4c-0.7-1-1.7-2.2-3-3.6l-0.6,0.4c0.6,0.6,1,1.1,1.5,1.7
			c-2.2,0.4-4.7,0.6-7.2,0.8c1.2-0.9,2.3-2.2,3.1-3.7h6.6v-0.7h-11.6v0.7h4.1C611.5,81.9,610.3,83.2,608.8,84z M614.5,87.5h4.6v-0.7
			h-4.6V85h-0.8v1.8H609v0.7h4.7v2.6H608v0.7h12.2v-0.7h-5.7V87.5z M630.7,87.2c-0.5-0.9-1.3-1.9-2.2-3.1l-0.6,0.4
			c0.9,1.1,1.6,2.1,2.2,3.1L630.7,87.2z M632.8,78.8H632v2.8h-4.1v0.7h4.1v7.8c0,0.5-0.3,0.8-0.8,0.8c-0.4,0-1.1,0-2.2-0.1l0.2,0.7
			h2.3c0.8,0,1.3-0.4,1.3-1.2v-8h1.7v-0.7h-1.7L632.8,78.8L632.8,78.8z M627,80.8v-0.6h-4.6v0.7h3.9c-0.1,1.6-0.5,3.1-1,4.4
			c-0.8-1-1.6-2-2.6-3l-0.5,0.5c1.1,1.2,2,2.3,2.7,3.3c-0.8,1.4-1.8,2.7-3.2,3.8l0.4,0.7c1.3-1.1,2.4-2.4,3.2-3.8
			c0.6,0.9,1.1,1.6,1.5,2.3l0.6-0.6c-0.5-0.7-1-1.6-1.7-2.5C626.5,84.4,626.9,82.8,627,80.8z M645.4,86.8c0.9-0.4,1.6-0.8,2.3-1.2
			l-0.5-0.6c-0.9,0.7-2.1,1.3-3.5,1.7c-0.4-0.8-1.1-1.5-1.9-2.2l0,0h5.7v-3h-3.9c0.5-0.4,1-0.8,1.5-1.3v-0.5h-4.6
			c0.4-0.4,0.6-0.7,0.8-0.9l-0.8-0.2c-1.2,1.3-2.7,2.3-4.6,3.1l0.5,0.6c0.4-0.2,0.7-0.4,1.1-0.5v2.7h3.2c-1,0.8-2.4,1.3-4.2,1.6
			l0.3,0.7c1.9-0.3,3.4-0.9,4.5-1.8c0.4,0.3,0.7,0.6,1,0.9c-1.3,1-3.2,1.7-5.7,2.4L637,89c2.4-0.6,4.3-1.5,5.7-2.5
			c0.2,0.3,0.4,0.6,0.6,1c-1.6,1.2-3.8,2.3-6.8,3l0.4,0.7c2.8-0.8,5-1.8,6.6-3c0.1,0.3,0.1,0.6,0.1,0.9c0,0.7-0.1,1.2-0.4,1.5
			c-0.3,0.2-0.7,0.4-1.2,0.4h-1.1l0.2,0.7h1c0.8-0.1,1.4-0.3,1.8-0.6c0.4-0.4,0.6-1,0.6-2c0-0.5-0.1-1.1-0.3-1.6l0.8-0.3
			c0.6,1.4,1.7,2.7,3.3,3.8l0.5-0.6C647,89.2,646,88.2,645.4,86.8z M646.7,82.2v1.7h-4.4c0.3-0.5,0.6-1.1,0.8-1.7H646.7z
			 M639.8,80.3h4.3c-0.5,0.5-1,0.9-1.5,1.2H638C638.7,81.2,639.3,80.8,639.8,80.3z M638.3,83.8v-1.7h4c-0.2,0.6-0.5,1.2-0.9,1.7
			H638.3z M662.2,81v-0.7h-7.3c0.2-0.6,0.4-1.1,0.5-1.5l-0.8-0.1c-0.1,0.4-0.3,1-0.5,1.6h-3.9V81h3.6c-0.9,2.1-2.3,3.9-4.1,5.4
			l0.5,0.6c0.6-0.5,1.2-1.1,1.8-1.8v6.3h0.8v-7.2c0.8-1.1,1.4-2.2,1.9-3.3H662.2L662.2,81z M658.9,85.7c1-0.6,1.9-1.3,2.6-2V83H655
			v0.7h5.5c-0.7,0.6-1.5,1.2-2.4,1.7v1.4h-4.2v0.7h4.2v2.7c0,0.4-0.2,0.6-0.6,0.6c-0.4,0-1,0-1.7,0l0.2,0.7h1.8
			c0.7,0,1.1-0.4,1.1-1.1v-2.9h3.6v-0.7h-3.6V85.7L658.9,85.7z M676.3,79.8l-0.6-0.4c-0.6,1.4-1.2,2.6-2,3.6h-0.5v-2h1.7v-0.7h-1.7
			v-1.7h-0.7v1.7h-1.8V81h1.8v2h-2.1v0.7h2.8c-1,1.1-2.1,1.9-3.4,2.5l0.4,0.6c0.4-0.2,0.8-0.4,1.2-0.7v5.2h0.7v-0.6h2.9v0.6h0.7v-6
			h-3c0.5-0.5,1-1,1.4-1.5h2.4v-0.7h-1.8C675.2,82.2,675.8,81,676.3,79.8z M674.9,90.2H672v-1.8h2.9V90.2z M674.9,86v1.7H672V86
			H674.9z M666.2,78.8c-0.5,2.1-1.3,4-2.5,5.6l0.2,0.8c0.4-0.6,0.9-1.2,1.2-1.8v8.2h0.7v-9.7c0.4-0.9,0.7-1.8,1-2.8L666.2,78.8z
			 M669.3,82l0.6-0.6c-0.6-0.7-1.3-1.4-2.1-2.1l-0.5,0.5C668.1,80.5,668.8,81.2,669.3,82z M669,89.3v-6.2h-2.4v0.7h1.7v5.9
			c0,0.2-0.1,0.3-0.3,0.5l0.3,0.7c0.8-0.7,1.5-1.4,2.2-2.3l-0.2-0.8C669.8,88.4,669.4,88.9,669,89.3z"/>
	</g>
</g>
<path class="st13" d="M822.2,167.5h1.8v6.3c-0.1,0-0.5,0.1-1.1,0.3v-5h-0.7v5.2c-0.3,0.1-0.5,0.1-0.6,0.1l0.2,0.7
	c1.9-0.5,3.5-1,4.8-1.5v-0.7c-0.5,0.2-1.1,0.4-1.8,0.6v-2.9h1.6v-0.7h-1.6v-2.4h1.4v-4.1h-3.8L822.2,167.5L822.2,167.5z
	 M822.9,166.8V164h2.4v2.7H822.9z M826.8,165h2.3c-0.7,1.3-1.7,2.3-3,3l0.4,0.6c1.5-0.8,2.6-2.1,3.4-3.7h0.8
	c0.6,1.5,1.7,2.7,3.3,3.6l0.3-0.7c-1.3-0.7-2.3-1.7-2.9-3h2.4v-0.7h-3.6c0.2-0.5,0.3-1,0.5-1.5l-0.7-0.1c-0.1,0.5-0.3,1.1-0.5,1.6
	h-2.6L826.8,165L826.8,165z M828.6,167.6h3.3V167h-3.3V167.6L828.6,167.6z M826.8,169.9h1.5l-0.6,2.3h4.4c-0.1,1.1-0.2,1.8-0.3,2
	c-0.2,0.3-0.6,0.4-1.3,0.4c-0.2,0-0.6,0-1-0.1l0.3,0.7c0.4,0,0.7,0.1,0.9,0.1c0.8,0,1.4-0.2,1.7-0.5c0.3-0.4,0.5-1.5,0.6-3.3h-4.3
	l0.4-1.6h4.5v-0.7h-6.8L826.8,169.9L826.8,169.9z"/>
<path class="st13" d="M838.8,166c1.3,1,2.5,2,3.8,3.1c-1.2,1.3-2.6,2.3-4.2,3l0.4,0.7c1.7-0.7,3.1-1.8,4.4-3.1
	c1.2,1.1,2.2,2.1,3.1,3.1l0.6-0.6c-0.9-1-2-2.1-3.1-3.1c0.9-1.1,1.7-2.4,2.3-3.9l-0.7-0.4c-0.6,1.4-1.3,2.6-2.2,3.7
	c-1.2-1.1-2.5-2.1-3.7-3L838.8,166z M836.6,174.8H848V174h-10.7v-10.1h10.3v-0.7h-11V174.8L836.6,174.8z"/>
<path class="st13" d="M853.4,165.4h5c0,2.2,0.2,4,0.3,5.5c0.1,0.6,0.1,1,0.2,1.3c-0.8,1.2-1.7,2.1-2.7,2.7l0.5,0.6
	c0.9-0.6,1.8-1.3,2.5-2.3c0.1,0.4,0.3,0.8,0.4,1.2c0.4,0.7,0.8,1.1,1.2,1.1c0.6,0,1.1-0.8,1.5-2.5l-0.6-0.5
	c-0.3,1.4-0.6,2.2-0.9,2.2c-0.4,0-0.8-0.8-1.1-2.3c0.8-1.4,1.5-3.2,2-5.3l-0.7-0.3c-0.3,1.7-0.8,3.2-1.5,4.5
	c-0.2-1.4-0.3-3.3-0.3-5.8h3v-0.7h-0.7c-0.2-0.6-0.4-1.2-0.7-1.7l-0.7,0.1c0.2,0.4,0.4,0.9,0.7,1.5h-1.7c0-0.4,0-1.1,0-2h-0.8
	c0,0.9,0,1.6,0,2h-5L853.4,165.4L853.4,165.4z M854,170.8h3.4v-3.9H854V170.8z M854.7,170v-2.6h2.1v2.6H854.7z M857.6,171.8
	c-1.5,0.6-3,1-4.7,1.3l0.2,0.7c1.6-0.3,3.1-0.8,4.5-1.3V171.8L857.6,171.8z M849.7,167.1h1.5v4.8c-0.4,0.2-1,0.3-1.6,0.5l0.2,0.8
	c1.3-0.4,2.5-0.9,3.6-1.4v-0.8c-0.4,0.2-0.9,0.4-1.4,0.7v-4.6h1.4v-0.7h-1.5v-3.8h-0.7v3.8h-1.5V167.1L849.7,167.1z"/>
<path class="st13" d="M875.4,164.4v-0.7H867c0.2-0.3,0.3-0.7,0.4-1.1l-0.8-0.1c-0.5,1.6-1.5,3-3,4.1l0.5,0.6
	c1.1-0.8,1.9-1.7,2.5-2.8H875.4L875.4,164.4z M866,169.9h1.9c-0.8,1.1-2,2-3.7,2.7l0.4,0.6c0.7-0.3,1.4-0.7,2-1.2
	c0.8,0.7,1.8,1.3,2.8,1.9c-1.5,0.5-3.3,0.8-5.4,0.9l0.3,0.7c2.4-0.1,4.4-0.5,6-1.1c1.6,0.6,3.5,1,5.5,1.1l0.2-0.7
	c-1.8-0.1-3.4-0.3-4.8-0.8c1.2-0.6,2.2-1.4,3-2.4v-0.6h-6.3c0.3-0.3,0.6-0.7,0.8-1.1h5.6v-4.3H866L866,169.9L866,169.9z
	 M870.3,173.5c-1.2-0.5-2.3-1.1-3.2-1.9l0,0h6.1C872.5,172.4,871.6,173,870.3,173.5L870.3,173.5z M866.8,169.1V168h6.7v1.2H866.8z
	 M866.8,166.1h6.7v1.2h-6.7V166.1z"/>
<path class="st13" d="M881.1,165.1v2h-3.5v0.7h3.5v1.7h-2.8v4.9h0.7v-4.1h2.1v5.1h0.8v-5.1h2v2.8c0,0.4-0.2,0.6-0.6,0.6h-0.7
	l0.2,0.7h0.8c0.7,0,1.1-0.4,1.1-1.1v-3.7h-2.8V168h3.1v-0.7h-3.1v-2h2.7v-0.7h-2.7v-1.8h-0.8v1.8h-1.9c0.1-0.4,0.2-0.8,0.3-1.4
	l-0.7-0.1c-0.2,1.4-0.7,2.4-1.4,3.2l0.6,0.4c0.4-0.4,0.7-0.9,0.9-1.5H881.1L881.1,165.1z M886,172.6h0.7V164H886V172.6z
	 M888.4,175.2c0.8,0,1.2-0.4,1.2-1.2v-11.4h-0.7v11.2c0,0.5-0.2,0.7-0.7,0.7c-0.6,0-1.3,0-1.9,0l0.2,0.7H888.4L888.4,175.2z"/>
<g>
	<g>
		<path class="st3" d="M899.9,13.3h8v-2h-8V13.3z M911.9,13.3h8v-2h-8V13.3z M923.9,13.3h8v-2h-8V13.3z M935.9,13.3h8v-2h-8V13.3z
			 M947.9,8.1v8.2l9.2-4.2L947.9,8.1z"/>
	</g>
</g>
<g>
	<g>
		
			<linearGradient id="SVGID_11_" gradientUnits="userSpaceOnUse" x1="1061.5515" y1="78.6487" x2="985.3519" y2="2.449" gradientTransform="matrix(1 0 0 1 0 -40)">
			<stop  offset="0" style="stop-color:#0063FF"/>
			<stop  offset="1" style="stop-color:#00C8DE"/>
		</linearGradient>
		<path class="st14" d="M1032.8-15.4l-0.8-1.3c-0.9,0.5-1.8,1.1-2.6,1.7l0.8,1.2C1031.1-14.3,1031.9-14.9,1032.8-15.4z M1010.7,5.1
			l-1.2-0.9c-0.6,0.8-0.9,1.3-0.9,1.3l1.3,0.8C1009.9,6.3,1010.2,5.8,1010.7,5.1z M1014.5,0.3l-1.1-1c-0.8,0.9-1.4,1.7-2,2.4
			l1.2,0.9C1013,2,1013.7,1.2,1014.5,0.3z M1022,3.3l0.8,1.3c0.9-0.5,1.8-1,2.7-1.5l-0.7-1.3C1023.9,2.2,1022.9,2.7,1022,3.3z
			 M999,25.5l1.4,0.5c0.6-1.6,1.2-2.6,1.2-2.6l-1.3-0.8C1000.3,22.7,999.7,23.8,999,25.5z M1006.7,8.8c-3.8,0-6.9,3.1-6.9,6.9
			s3.1,6.9,6.9,6.9c3.8,0,6.9-3.1,6.9-6.9S1010.5,8.8,1006.7,8.8z M1006.7,19.5c-2.1,0-3.8-1.7-3.8-3.8s1.7-3.8,3.8-3.8
			s3.8,1.7,3.8,3.8S1008.8,19.5,1006.7,19.5z M1022-9.3c-0.8,0.7-1.6,1.4-2.3,2.1l1,1.1c0.7-0.7,1.5-1.3,2.3-2L1022-9.3z
			 M1016.8,6.8l0.9,1.2c0.8-0.6,1.7-1.2,2.5-1.8l-0.8-1.3C1018.5,5.5,1017.5,6.1,1016.8,6.8z M1013,9.8l1.1,1c0,0,0.4-0.4,1.1-1
			l-1-1.1C1013.5,9.4,1013,9.8,1013,9.8z M1052.7,13.6l1.3,0.7c0.5-0.9,1-1.8,1.4-2.7l-1.3-0.7C1053.6,11.9,1053.2,12.7,1052.7,13.6
			z M1069.6-16.1c1.1,2.3,2,4.7,2.7,7.1c0.3-0.1,0.7-0.2,1.1-0.2c-0.7-2.6-1.7-5.1-2.8-7.5C1070.2-16.5,1069.9-16.3,1069.6-16.1z
			 M1059.8,0.3l-1.4-0.4c-0.3,1-0.6,1.9-0.9,2.8l1.4,0.5C1059.2,2.3,1059.4,1.3,1059.8,0.3z M1057.9-20.5c1.6,1.6,3.7,2.4,5.6,2.4
			c1.9,0,4-0.8,5.6-2.4c3.2-3.2,3.2-8.3,0-11.2c-1.6-1.6-3.5-2.4-5.6-2.4c-2.1,0-4,0.8-5.6,2.4C1054.8-28.5,1054.8-23.4,1057.9-20.5
			z M1060.2-29.2c1.4-0.9,2.8-1.4,3.3-1.4c0.9,0,2.3,0,3.3,1.4c1.9,1.9,1.9,4.7,0,6.5c-0.9,1.4-2.3,1.4-3.3,1.4
			c-0.9,0-2.3,0-3.3-1.4c-1.4-0.9-1.4-2.3-1.4-3.3S1058.9-28.4,1060.2-29.2z M1036.9-1.5l-0.4-1.4c-1,0.3-2,0.6-3,1l0.5,1.4
			C1034.9-0.9,1035.9-1.2,1036.9-1.5z M1065.6-2.4l0.7-1.3c-0.1,0-0.5-0.3-1.5-0.6l-0.5,1.4C1065.2-2.6,1065.6-2.4,1065.6-2.4z
			 M1057.9,6.1l-1.4-0.5c-0.4,0.9-0.7,1.8-1.1,2.7l1.4,0.6C1057.1,8,1057.4,7,1057.9,6.1z M1054.8-4.2h0.4v-1.5h-0.4
			c-0.9,0-1.8,0-2.8,0.1l0.1,1.5C1053.1-4.1,1053.9-4.2,1054.8-4.2z M1042.9-2.9l-0.3-1.5c-1,0.2-2.1,0.4-3.1,0.7l0.4,1.5
			C1040.9-2.5,1041.9-2.7,1042.9-2.9z M1038.2-18.1l-0.6-1.4c-1,0.4-1.9,0.8-2.8,1.3l0.7,1.3C1036.4-17.3,1037.2-17.7,1038.2-18.1z
			 M1043.9-20l-0.4-1.4c-1,0.3-2,0.6-3,0.9l0.5,1.4C1041.9-19.5,1042.9-19.8,1043.9-20z M1017.5-5.1c-0.8,0.8-1.5,1.5-2.2,2.2l1.1,1
			c0.7-0.7,1.4-1.4,2.1-2.2L1017.5-5.1z M1054.2-21.4l0.1-1.5c0,0-0.6,0-1.6,0v1.5C1053.7-21.4,1054.2-21.4,1054.2-21.4z
			 M1060.1-8.8l1.5,0.2c0.1-1,0.2-2,0.3-3l-1.5-0.1C1060.2-10.8,1060.2-9.8,1060.1-8.8z M1061.9-15.1l-1.5,0.1c0,0,0,0.1,0,0.4h1.5
			C1061.9-15,1061.9-15.1,1061.9-15.1z M1026.1-43.7c10.9,0,20.9,3.6,28.9,9.6c0.3-0.3,0.5-0.5,0.8-0.8c-8.3-6.3-18.6-10-29.8-10
			c-11.8,0-22.6,4.1-31,11c0.3,0.3,0.6,0.6,0.9,0.9C1004.1-39.7,1014.5-43.7,1026.1-43.7z M999.6,28.8l-1.5-0.3l-0.1,0.4
			c-0.2,0.9-0.3,1.8-0.3,2.7h1.5c0-0.9,0.1-1.7,0.2-2.4L999.6,28.8z M999.7,35.2c0,0-0.1-0.3-0.1-0.7l-1.5,0.2
			c0.1,0.5,0.2,0.8,0.2,0.8L999.7,35.2z M988.3-20c1.6,0,3.3-0.7,4.7-2c2.7-2.7,2.7-6.9,0-9.4c-1.3-1.3-2.9-2-4.7-2s-3.3,0.7-4.7,2
			c-2.7,2.7-2.7,6.9,0,9.4C984.9-20.7,986.7-20,988.3-20z M985.6-29.4c1.2-0.8,2.3-1.2,2.7-1.2c0.8,0,1.9,0,2.7,1.2
			c1.6,1.6,1.6,3.9,0,5.4c-0.8,1.2-1.9,1.2-2.7,1.2s-1.9,0-2.7-1.2c-1.2-0.8-1.2-1.9-1.2-2.7S984.4-28.6,985.6-29.4z M1026.1,52.6
			c-6.2,0-12.1-1.2-17.5-3.3c-0.2,0.3-0.3,0.7-0.5,1c5.6,2.2,11.6,3.4,18,3.4c27.1,0,49.1-21.9,49.3-49c-0.3,0.1-0.7,0.1-1.1,0.1
			C1073.9,31.2,1052.6,52.6,1026.1,52.6z M1077.4-5.5c-1-1-2.1-1.4-3.4-1.4s-2.4,0.5-3.4,1.4c-1.9,1.9-1.9,5,0,6.7
			c1,1,2.2,1.4,3.4,1.4c1.2,0,2.4-0.5,3.4-1.4C1079.4-0.8,1079.4-3.8,1077.4-5.5z M1074.1-0.1c-1.2,0-2.1-1-2.1-2.1s1-2.1,2.1-2.1
			c1.1,0,2.1,1,2.1,2.1S1075.2-0.1,1074.1-0.1z M983.5-18.2c-0.4-0.2-0.7-0.4-1-0.7c-3.7,6.9-5.8,14.8-5.8,23.2
			c0,13.8,5.7,26.3,14.9,35.3c0.2-0.3,0.4-0.6,0.7-0.9c-8.9-8.7-14.4-20.8-14.4-34.2C977.9-3.7,979.9-11.4,983.5-18.2z M999.7,38.5
			c-1.8,0-3.3,0.7-4.7,2c-2.7,2.7-2.7,6.9,0,9.4c1.3,1.3,3.1,2,4.7,2c1.6,0,3.3-0.7,4.7-2c2.7-2.7,2.7-6.9,0-9.4
			C1003.1,39.1,1001.5,38.5,999.7,38.5z M1002.5,47.9c-0.8,1.2-1.9,1.2-2.7,1.2s-1.9,0-2.7-1.2c-1.2-0.8-1.2-1.9-1.2-2.7
			s0-1.9,1.2-2.7s2.3-1.2,2.7-1.2c0.8,0,1.9,0,2.7,1.2C1004,44,1004,46.3,1002.5,47.9z M1009.1,42.1c0,0,1.1-0.2,3-0.6l-0.3-1.5
			c-1.8,0.4-2.9,0.5-2.9,0.5L1009.1,42.1z M1045.8,23.2l1.1,1c0.7-0.7,1.4-1.5,2-2.3l-1.2-0.9C1047.2,21.7,1046.4,22.5,1045.8,23.2z
			 M1031.4,33.4l0.7,1.3c0.9-0.5,1.8-0.9,2.7-1.4l-0.7-1.3C1033.2,32.5,1032.4,32.9,1031.4,33.4z M1026.9-13.2
			c-0.8,0.6-1.7,1.3-2.4,1.9l0.9,1.2c0.8-0.6,1.6-1.2,2.4-1.9L1026.9-13.2z M1061.9,3.5c0-2.4-0.2-4.8-0.7-7.2c0,0,0,0,0.1,0
			l0.3-1.5c-0.2,0-0.4-0.1-0.6-0.1c0-0.1,0.1-0.3,0.1-0.4l-0.3-0.1c-4.1-15.5-18.2-27-35-27c-14.3,0-26.6,8.3-32.5,20.3l-1.1,0.4
			c0.1,0.4,0.3,0.8,0.4,1.2c-1.9,4.4-2.9,9.2-2.9,14.3c0,17.1,11.8,31.4,27.8,35.2c-1,0.3-1.9,0.5-2.8,0.7l0.4,1.5
			c0.9-0.2,1.9-0.5,2.9-0.8l-0.4-1.4c2.7,0.6,5.4,1,8.3,1C1045.8,39.8,1061.9,23.5,1061.9,3.5z M1023.3,38.4c0.1,0,0.3-0.1,0.4-0.1
			l-0.5-1.4c-1,0.3-1.9,0.7-2.8,1l0.1,0.3c-16.9-2.5-29.8-17.1-29.8-34.6c0-4.5,0.9-8.9,2.4-12.9c0,0.1,0.1,0.2,0.1,0.3l1.4-0.5
			c-0.2-0.6-0.4-1.2-0.6-1.8c5.6-11.9,17.7-20.1,31.7-20.1c9,0,17.2,3.4,23.4,9c-0.8,0.1-1.7,0.2-2.5,0.4l0.3,1.5c1-0.2,2-0.3,3-0.5
			l-0.1-0.8c4.7,4.4,8.2,10.1,9.8,16.5v0.1c-0.4,0-0.7-0.1-1.1-0.1l-0.1,1.5c0.3,0,0.6,0.1,0.9,0.1c-0.1,0.3-0.1,0.6-0.2,1l1.1,0.2
			c0.4,2,0.6,4.1,0.6,6.2c0,19.3-15.7,35-35,35C1024.9,38.5,1024.1,38.4,1023.3,38.4z M1036.6,30.5l0.8,1.3c0.9-0.5,1.7-1.1,2.5-1.7
			l-0.9-1.2C1038.2,29.4,1037.4,30,1036.6,30.5z M1025.9,35.8l0.6,1.4c0.9-0.4,1.9-0.8,2.8-1.2l-0.6-1.4
			C1027.8,35.1,1026.9,35.4,1025.9,35.8z M1027.7,0.4l0.6,1.4c0.9-0.4,1.9-0.8,2.8-1.2l-0.6-1.4C1029.6-0.5,1028.6-0.1,1027.7,0.4z
			 M1041.4,27.1l0.9,1.2c0.8-0.6,1.6-1.3,2.3-2l-1-1.1C1042.9,25.9,1042.2,26.5,1041.4,27.1z M1052.4,16.9l-1.3-0.8
			c-0.5,0.8-1.1,1.7-1.6,2.5l1.2,0.9C1051.4,18.6,1051.9,17.8,1052.4,16.9z M1045.8-4.9l0.2,1.5c1-0.2,2.1-0.3,3.1-0.4l-0.2-1.5
			C1047.9-5.2,1046.9-5.1,1045.8-4.9z M1002.6,6.3c0,0-0.6-0.9-1.6-2.5l-1.3,0.8c1,1.6,1.6,2.5,1.6,2.6L1002.6,6.3z M996.1-5.9
			c-0.1-0.3-0.3-0.7-0.4-1l-1.4,0.6c0.1,0.3,0.3,0.7,0.4,1c0.3,0.6,0.5,1.2,0.8,1.8l1.4-0.6C996.6-4.7,996.4-5.3,996.1-5.9z
			 M998.2-1.4l-1.3,0.7c0.5,1,1,1.9,1.4,2.7l1.3-0.7C999.1,0.4,998.6-0.5,998.2-1.4z M991.9-18.1l-1.4,0.4c0.2,0.6,0.4,1.6,0.8,2.9
			l1.4-0.4C992.3-16.6,992.1-17.6,991.9-18.1z"/>
	</g>
</g>
<g class="st0">
	<g>
		
			<linearGradient id="SVGID_12_" gradientUnits="userSpaceOnUse" x1="1120.7876" y1="28.75" x2="1058.75" y2="-33.2875" gradientTransform="matrix(1 0 0 1 -63 7)">
			<stop  offset="0" style="stop-color:#0063FF"/>
			<stop  offset="1" style="stop-color:#00C8DE"/>
		</linearGradient>
		<path class="st15" d="M1009.8,11.9c0.9,0.5,1.6,1.2,2,2.1c-0.1-0.2-0.2-0.5-0.3-0.7C1011.1,12.6,1010.5,12.2,1009.8,11.9z
			 M1011.5-11.6l1.1-1.8l-2.9-3.4l-3.6,1.2l-0.8,0.7l3.3,1L1011.5-11.6z M1026.8-39.2c-24.2,0-43.8,19.6-43.8,43.9
			c0,24.2,19.6,43.9,43.8,43.9s43.8-19.6,43.8-43.9C1070.7-19.6,1050.9-39.2,1026.8-39.2z M1005.6-16.9l4.6-1.5l4,4.9l-2.4,4
			l-3.9-3.4l-5.4-1.5L1005.6-16.9z M1013.3,27.9l-5.4,4l-2.3-7.5l-2.3-2.3l-3-2.3l-4.3-10l-0.8-4.3l-4.3-1.9l0.5-1.2l5,2.2l0.9,4.9
			l4,9.4l2.8,2.1l2.6,2.6l1.8,6l3.8-2.8l2-3.1c-0.2-1.1-1-6.1-2.4-9.3c0.2,0.5,0.3,1.1,0.3,1.6c0,2.7-2.2,4.8-4.8,4.8
			c-2.7,0-4.8-2.2-4.8-4.8c0-2,1.2-3.7,2.9-4.4c-0.6,0.1-1.1,0.2-1.4,0.3l-2,2.8l-2.1-6.9l5.8,0.2l2.5-1.4l1.7-4.1l-1.4-1.9
			l-1.9,1.4l-2.9-1.3l2.2-4.1l-4.3-6l-8.2,2.6l-0.4-1.3l9.1-2.9l5.4,7.5l-1.9,3.5l0.9,0.4l2.3-1.7l2.7,3.6l-2.1,5.2l-3.2,1.8
			l-4.3-0.1l0.8,2.5l0.7-1l0.2-0.1c0.3-0.1,6.9-2.1,9.1,1.9c2,3.6,3.1,10.8,3.1,11.1v0.2L1013.3,27.9z M1059.8,2.7l-6.5-0.4
			l-3.2-4.1l-3.5,0.2l2.3,2.9l-4.1,1.4l-1.1,2.6l2.4,5.1v0.2c0,0.1-0.3,10.5-0.3,11.4c0,0.4,0,1.3-6.7,3.7l-0.8,0.3l-0.5-8l-7.5-2.7
			l-4.8-5.7l3.7-5.6l-2-3.2l-3-2.6l-2.8-7l0.1-0.3c0.2-0.3,3.7-6.9,6.2-9.3c2.5-2.5,16.8-6.9,18.4-7.4l0.4,1.3
			c-4.3,1.3-16,5.2-17.9,7.1c-2.1,2.1-5.1,7.5-5.8,8.7l2.4,6.1L1028,0l2.5,4l-3.6,5.5l3.9,4.7l8,2.8l0.5,7.1
			c2.2-0.8,4.5-1.9,4.9-2.3c0-1.4,0.3-9.8,0.3-11.1l-2.5-5.3l1.6-3.6l2.8-1l-2.8-3.4l6.8-0.5l3.3,4.2l4.6,0.3l0.3-2.8l1.9-1l0.6,1.2
			l-1.3,0.7L1059.8,2.7z"/>
	</g>
</g>
</svg>
