<?xml version="1.0" encoding="UTF-8"?>
<svg width="48px" height="48px" viewBox="0 0 48 48" version="1.1" xmlns="http://www.w3.org/2000/svg" xmlns:xlink="http://www.w3.org/1999/xlink">
    <!-- Generator: Sketch 52.5 (67469) - http://www.bohemiancoding.com/sketch -->
    <title>坚固稳定</title>
    <desc>Created with Sketch.</desc>
    <g id="坚固稳定" stroke="none" stroke-width="1" fill="none" fill-rule="evenodd">
        <polygon id="Rectangle-54" fill="#00A4FF" points="24 27 36 33 24 39 12 33"></polygon>
        <g id="Group" transform="translate(12.000000, 9.000000)" fill="#334966" fill-rule="nonzero">
            <path d="M12,12 L24,18 L12,24 L0,18 L12,12 Z M12,14.236068 L4.47213595,18 L12,21.763932 L19.527864,18 L12,14.236068 Z" id="Rectangle-54"></path>
            <path d="M11,21.263932 L11,5.10555128 L2.92080963,17.2243368 L11,21.263932 Z M13,5.10555128 L13,21.263932 L21.0791904,17.2243368 L13,5.10555128 Z M0,18 L12,0 L24,18 L12,24 L0,18 Z" id="Combined-Shape"></path>
        </g>
        <path d="M4.79978059,34.7516992 L9.85786438,35.3137085 L5.67331078,39.4982621 C-2.31894693,30.0687366 -1.86690477,15.9257793 7.02943725,7.02943725 C15.9257793,-1.86690477 30.0687366,-2.31894693 39.4982621,5.67331078 L38.078718,7.09285485 C29.4354283,-0.12143211 16.5584684,0.32883321 8.44365081,8.44365081 C1.31625208,15.5710495 0.10162867,26.3721759 4.79978059,34.7516992 Z M43.2002194,13.2483008 L38.1421356,12.6862915 L42.3266892,8.50173791 C50.3189469,17.9312634 49.8669048,32.0742207 40.9705627,40.9705627 C32.0742207,49.8669048 17.9312634,50.3189469 8.50173791,42.3266892 L9.92128198,40.9071451 C18.5645717,48.1214321 31.4415316,47.6711668 39.5563492,39.5563492 C46.6837479,32.4289505 47.8983713,21.6278241 43.2002194,13.2483008 Z" id="Combined-Shape" fill="#334966" fill-rule="nonzero"></path>
    </g>
</svg>