<svg xmlns="http://www.w3.org/2000/svg" width="48" height="48" viewBox="0 0 48 48">
  <g fill="none" fill-rule="evenodd" transform="translate(0 3)">
    <path fill="#334966" fill-rule="nonzero" d="M2,2 L2,34 L46,34 L46,2 L2,2 Z M0,0 L48,0 L48,36 L0,36 L0,0 Z"/>
    <rect width="24" height="2" x="12" y="40" fill="#334966" fill-rule="nonzero"/>
    <rect width="2" height="8" x="20" y="34" fill="#334966" fill-rule="nonzero"/>
    <rect width="2" height="8" x="26" y="34" fill="#334966" fill-rule="nonzero"/>
    <rect width="8" height="18" x="12" y="11" fill="#00A4FF" fill-rule="nonzero" transform="matrix(1 0 0 -1 0 40)"/>
    <rect width="8" height="22" x="28" y="7" fill="#00A4FF" fill-rule="nonzero" transform="matrix(1 0 0 -1 0 36)"/>
    <polyline stroke="#334966" stroke-width="2" points="9 27 21 15 32 17 39 10"/>
    <polyline stroke="#334966" stroke-width="2" points="9 15 24 27 31.854 22.88 39 24"/>
  </g>
</svg>
