<?xml version="1.0" encoding="UTF-8"?>
<svg width="32px" height="32px" viewBox="0 0 32 32" version="1.1" xmlns="http://www.w3.org/2000/svg" xmlns:xlink="http://www.w3.org/1999/xlink">
    <!-- Generator: Sketch 52.6 (67491) - http://www.bohemiancoding.com/sketch -->
    <title>业务风险情报-32px</title>
    <desc>Created with Sketch.</desc>
    <g id="业务风险情报-32px" stroke="none" stroke-width="1" fill="none" fill-rule="evenodd">
        <rect id="Rectangle-Copy" fill="#444444" opacity="0" x="0" y="0" width="32" height="32"></rect>
        <path d="M27,8 L27,17.2 C27,17.2 27,19.5 25.6,22 C23.8,25.4 20.5,27.7 16,28.9 C5.3,26.3 5,17.6 5,17.2 L5,4 L25,4 L27,4 L29,4 L29,2 L3,2 L3,17.2 C3,17.2 3.1,28 16,31 C28.9,28 29,17.2 29,17.2 L29,8 L27,8 Z" id="Shape" fill="#7C848E" fill-rule="nonzero"></path>
        <g id="32px_N" transform="translate(6.000000, 8.000000)" fill="#7C848E">
            <polygon id="路径-2_1_" points="9 5 11 5 10.2 7.5 11.9 7.5 8.9 13 9.7 9.5 8 9.5"></polygon>
            <path d="M15.9,1.3 C17.2,2.7 18,4.6 18,6.7 C18,11.1 14.4,14.7 10,14.7 C5.6,14.7 2,11.1 2,6.7 C2,4.6 2.8,2.7 4.1,1.3 L2.6,8.8817842e-16 C1,1.8 0,4.1 0,6.7 C0,12.2 4.5,16.7 10,16.7 C15.5,16.7 20,12.2 20,6.7 C20,4.1 19,1.8 17.4,0 L15.9,1.3 Z" id="Path"></path>
            <path d="M7,9.6 C6.4,8.9 6,8 6,7 C6,4.8 7.8,3 10,3 C12.2,3 14,4.8 14,7 C14,8 13.6,8.9 13,9.6 L14.5,10.9 C15.4,9.8 16,8.5 16,7 C16,3.7 13.3,1 10,1 C6.7,1 4,3.7 4,7 C4,8.5 4.6,9.9 5.5,10.9 L7,9.6 Z" id="Path"></path>
        </g>
    </g>
</svg>