<svg xmlns="http://www.w3.org/2000/svg" height="890" width="830" viewBox="0 0 830 890 " id="svgwrapper_svg" oncontextmenu="return false;" preserveAspectRatio="xMinYMin meet"><style>        g#assistantgroup rect.outer {fill: none;stroke: #1abc9c;stroke-dasharray: 2,4;stroke-width: 1px;}        rect.selection {stroke: gray;stroke-dasharray: 4px;stroke-opacity: 0.5; fill: transparent;}        svg *::selection {background : transparent;}</style><defs g_shapeid="185" id="svg_defs"><marker id="end-arrow" viewBox="0 -5 10 10" refX="6" markerWidth="10" markerHeight="10" orient="auto"><path d="M5,5L10 0 5 -5z" fill="#999999"/></marker><marker id="start-arrow" viewBox="0 -5 10 10" refX="4" markerWidth="10" markerHeight="10" orient="auto"><path d="M5,5L10 0 5 -5z" fill="#000"/></marker></defs><path d="M 0, 0 L 0, 0" style="fill: none; stroke: rgb(153, 153, 153); stroke-width: 1px; display: none;"/><g transform="translate(0,0)" id="bottomgroup"><g transform="translate(69.94231796264648,630.5)" id="DashRectGroup162" type="shape" style="cursor: move;"><rect x="0" y="0" width="680" height="240" style="opacity: 0;"/><path d="M0 0 H 680 V 240 H 0 V 0 " fill="none" stroke="#bababa" stroke-width="1" stroke-dasharray="5" stroke-dashoffset="0"/><g transform="translate(10 10)" class="content"><text transform="translate(0 14)" style="isolation: isolate;font-size: 14px;fill: #444;font-family: PingFang-SC-Medium, PingFang SC, MicrosoftYaHei, Microsoft YaHei">云服务</text></g></g><g transform="translate(89.94231796264648,487)" id="GrayRectGroup19" type="shape" style="cursor: move;"><rect overflow="visible" width="640" height="112" fill="#eaebec"/><g transform="translate(10 10)" class="content"><text transform="translate(0 14)" style="font-size: 14px;fill: #444;font-family: PingFang-SC-Medium, PingFang SC, MicrosoftYaHei, Microsoft YaHei">底层技术支撑</text></g></g><g transform="translate(90.28334744771321,127.5)" id="GrayRectGroup4" type="shape" style="cursor: move;"><rect overflow="visible" width="640" height="105" fill="#eaebec"/><g transform="translate(10 10)" class="content"><text transform="translate(0 14)" style="font-size: 14px;fill: #444;font-family: PingFang-SC-Medium, PingFang SC, MicrosoftYaHei, Microsoft YaHei">业务场景增值</text></g></g><g transform="translate(90.28334744771321,239)" id="GrayRectGroup12" type="shape" style="cursor: move;"><rect overflow="visible" width="640" height="241" fill="#eaebec"/><g transform="translate(10 10)" class="content"><text transform="translate(0 14)" style="font-size: 14px;fill: #444;font-family: PingFang-SC-Medium, PingFang SC, MicrosoftYaHei, Microsoft YaHei">基础播放能力</text></g></g><g transform="translate(179,296)" id="GrayRectGroup51" type="shape" style="cursor: move;"><rect overflow="visible" width="280" height="150" fill="#eaebec"/><g transform="translate(10 10)" class="content"><text transform="translate(0 14)" style="font-size: 14px;fill: #444;font-family: PingFang-SC-Medium, PingFang SC, MicrosoftYaHei, Microsoft YaHei">服务区域</text></g></g><g transform="translate(90.0886402130127,753.5)" id="GrayRectGroup74" type="shape" style="cursor: move;"><rect overflow="visible" width="290" height="100" fill="#eaebec"/><g transform="translate(10 10)" class="content"><text transform="translate(0 14)" style="font-size: 14px;fill: #444;font-family: PingFang-SC-Medium, PingFang SC, MicrosoftYaHei, Microsoft YaHei">直播</text></g></g><g transform="translate(440.6923179626465,753.5)" id="GrayRectGroup76" type="shape" style="cursor: move;"><rect overflow="visible" width="290" height="100" fill="#eaebec"/><g transform="translate(10 10)" class="content"><text transform="translate(0 14)" style="font-size: 14px;fill: #444;font-family: PingFang-SC-Medium, PingFang SC, MicrosoftYaHei, Microsoft YaHei">点播</text></g></g><g transform="translate(120.9732545216878,524.125)" id="DashRectGroup104" type="shape" style="cursor: move;"><rect x="0" y="0" width="92" height="63" style="opacity: 0;"/><path d="M0 0 H 92 V 63 H 0 V 0 " fill="none" stroke="#bababa" stroke-width="1" stroke-dasharray="5" stroke-dashoffset="0"/><g transform="translate(10 10)" class="content"><text transform="translate(0 14)" style="isolation: isolate;font-size: 14px;fill: #444;font-family: PingFang-SC-Medium, PingFang SC, MicrosoftYaHei, Microsoft YaHei">系统区域</text></g></g><g transform="translate(120.9732545216878,161.4)" id="DashRectGroup170" type="shape" style="cursor: move;"><rect x="0" y="0" width="112" height="64" style="opacity: 0;"/><path d="M0 0 H 112 V 64 H 0 V 0 " fill="none" stroke="#bababa" stroke-width="1" stroke-dasharray="5" stroke-dashoffset="0"/><g transform="translate(10 10)" class="content"><text transform="translate(0 14)" style="isolation: isolate;font-size: 14px;fill: #444;font-family: PingFang-SC-Medium, PingFang SC, MicrosoftYaHei, Microsoft YaHei">系统区域</text></g></g><g transform="translate(69.94231796264648,89.5)" id="DashRectBlueGroup182" type="shape" style="cursor: move;"><rect x="0" y="0" width="680" height="520" style="opacity: 0;"/><path d="M0 0 H 680 V 520 H 0 V 0 " fill="none" stroke="#00a4ff" stroke-width="1" stroke-dasharray="5" stroke-dashoffset="0"/><g transform="translate(10 10)" class="content"><text transform="translate(0 14)" style="isolation: isolate;font-size: 14px;fill: #00a4ff;font-family: PingFang-SC-Medium, PingFang SC, MicrosoftYaHei, Microsoft YaHei">播放器 SDK</text></g></g></g><g transform="translate(0,0)" id="middlegroup"><g transform="translate(0,0)" id="Link166" type="link" startshape="RectEndPoint77" startedge="EM" endshape="RectEndPoint78" endedge="WM"><path d="M 556.5 814.5 L 603.5 814.5" style="stroke: #888888;stroke-width: 1px;fill:none;"/><g transform="translate(0.5, 0)"><polygon points="598.5 819 604.5 814.5 598.5 810 598.5 819" style="fill:#888888;fill-rule: evenodd" class="endarrow"/></g><path d="M 556.5 814.5 L 603.5 814.5" style="stroke-width: 15px;stroke:red;fill:none;stroke-opacity:0" class="outer" index="0"/></g><g transform="translate(0,0)" id="Link169" type="link" startshape="RectEndPoint78" startedge="NM" endshape="ShadowBasicRect89" endedge="EM"><path d="M 656.5 789.5 L 656.5 694.5 L 483.5 694.5" style="stroke: #888888;stroke-width: 1px;fill:none;"/><g transform="translate(-0.5, 0)"><polygon points="488.5 690 482.5 694.5 488.5 699 488.5 690" style="fill:#888888;fill-rule: evenodd" class="endarrow"/></g><path d="M 656.5 789.5 L 656.5 694.5" style="stroke-width: 15px;stroke:red;fill:none;stroke-opacity:0" class="outer" index="0"/><path d="M 656.5 694.5 L 483.5 694.5" style="stroke-width: 15px;stroke:red;fill:none;stroke-opacity:0" class="outer" index="1"/></g><g transform="translate(0,0)" id="Link167" type="link" startshape="RectEndPoint101" startedge="NM" endshape="ShadowBasicRect89" endedge="WM"><path d="M 307.5 789.5 L 307.5 693.5 L 335.5 693.5" style="stroke: #888888;stroke-width: 1px;fill:none;"/><g transform="translate(0.5, 0)"><polygon points="330.5 698 336.5 693.5 330.5 689 330.5 698" style="fill:#888888;fill-rule: evenodd" class="endarrow"/></g><path d="M 307.5 789.5 L 307.5 693.5" style="stroke-width: 15px;stroke:red;fill:none;stroke-opacity:0" class="outer" index="0"/><path d="M 307.5 693.5 L 335.5 693.5" style="stroke-width: 15px;stroke:red;fill:none;stroke-opacity:0" class="outer" index="1"/></g><g transform="translate(0,0)" id="Link168" type="link" startshape="RectEndPoint75" startedge="EM" endshape="RectEndPoint101" endedge="WM"><path d="M 209.5 814.5 L 254.5 814.5" style="stroke: #888888;stroke-width: 1px;fill:none;"/><g transform="translate(0.5, 0)"><polygon points="249.5 819 255.5 814.5 249.5 810 249.5 819" style="fill:#888888;fill-rule: evenodd" class="endarrow"/></g><path d="M 209.5 814.5 L 254.5 814.5" style="stroke-width: 15px;stroke:red;fill:none;stroke-opacity:0" class="outer" index="0"/></g><g transform="translate(0,0)" id="Link161" type="link" startshape="ShadowBasicRect87" startedge="NM" endshape="DashRectGroup104" endedge="SM"><path d="M 166.5 669.5 L 166.5 630.5 L 166.5 630.5 L 166.5 592.5" stroke-dasharray="6,4" style="stroke: #999999;stroke-width: 1px;fill:none;"/><g transform="translate(0, -0.5)"><polygon points="171 597.5 166.5 591.5 162 597.5 171 597.5" style="fill:#999999;fill-rule: evenodd" class="endarrow"/></g><path d="M 166.5 669.5 L 166.5 630.5" style="stroke-width: 15px;stroke:red;fill:none;stroke-opacity:0" class="outer" index="0"/><path d="M 166.5 630.5 L 166.5 630.5" style="stroke-width: 15px;stroke:red;fill:none;stroke-opacity:0" class="outer" index="1"/><path d="M 166.5 630.5 L 166.5 592.5" style="stroke-width: 15px;stroke:red;fill:none;stroke-opacity:0" class="outer" index="2"/></g><g transform="translate(0,0)" id="Link185" type="link" startshape="ShadowBasicRect89" startedge="NM" endshape="DashRectBlueGroup182" endedge="SM"><path d="M 409.5 669.5 L 409.5 641.5 L 409.5 641.5 L 409.5 614.5" style="stroke: #888888;stroke-width: 1px;fill:none;"/><g transform="translate(0, -0.5)"><polygon points="414 619.5 409.5 613.5 405 619.5 414 619.5" style="fill:#888888;fill-rule: evenodd" class="endarrow"/></g><path d="M 409.5 669.5 L 409.5 641.5" style="stroke-width: 15px;stroke:red;fill:none;stroke-opacity:0" class="outer" index="0"/><path d="M 409.5 641.5 L 409.5 641.5" style="stroke-width: 15px;stroke:red;fill:none;stroke-opacity:0" class="outer" index="1"/><path d="M 409.5 641.5 L 409.5 614.5" style="stroke-width: 15px;stroke:red;fill:none;stroke-opacity:0" class="outer" index="2"/></g><g transform="translate(0,0)" id="Link184" type="link" startshape="DashRectBlueGroup182" startedge="NM" endshape="RectEndPoint94" endedge="SM"><path d="M 409.5 89.5 L 409.5 75.5 L 409.5 75.5 L 409.5 62.5" style="stroke: #888888;stroke-width: 1px;fill:none;"/><g transform="translate(0, -0.5)"><polygon points="414 67.5 409.5 61.5 405 67.5 414 67.5" style="fill:#888888;fill-rule: evenodd" class="endarrow"/></g><path d="M 409.5 89.5 L 409.5 75.5" style="stroke-width: 15px;stroke:red;fill:none;stroke-opacity:0" class="outer" index="0"/><path d="M 409.5 75.5 L 409.5 75.5" style="stroke-width: 15px;stroke:red;fill:none;stroke-opacity:0" class="outer" index="1"/><path d="M 409.5 75.5 L 409.5 62.5" style="stroke-width: 15px;stroke:red;fill:none;stroke-opacity:0" class="outer" index="2"/></g></g><g transform="translate(0,0)" id="maingroup"><g transform="translate(126.0886402130127,281)" id="ShadowDescriptionRect27" type="shape" style="cursor: move;"><rect transform="translate(2 2)" width="160" height="180" style="fill: #bbb;opacity:0.6"/><rect width="160" height="180" style="fill: #fff;stroke-width:1px;shape-rendering: crispEdges; stroke:#e5e5e5"/><g transform="translate(20 9)"><line x1="0" y1="41" x2="120" y2="41" style="stroke:#bababa;stroke-width:1;shape-rendering: crispEdges;"/></g><g transform="translate(20 9)" class="content"><g style="fill:#00a4ff;" class="logo"><svg id="图层_1" data-name="图层 1" xmlns="http://www.w3.org/2000/svg" width="32" height="32" viewBox="0 0 32 32">
  <defs>
    <style>
      .cls-1 {
        fill: #00a4ff;
        fill-rule: evenodd;
      }
    </style>
  </defs>
  <title>Product Icons【32】</title>
  <g id="_编组_" data-name="&lt;编组&gt;">
    <g id="_编组_2" data-name="&lt;编组&gt;">
      <path id="_复合路径_" data-name="&lt;复合路径&gt;" class="cls-1" d="M13.51,9.9a.51.51,0,0,0-.51.51v8.18a.5.5,0,0,0,.51.51.5.5,0,0,0,.27-.08l6.54-4.09a.5.5,0,0,0,0-.86L13.77,10A.5.5,0,0,0,13.51,9.9ZM15,13.11l2.23,1.39L15,15.89ZM30,3H2V29H30V9H28V23H4V5H30ZM28,25v2H4V25Z"/>
    </g>
  </g>
</svg>
</g><text transform="translate(42 21)" style="isolation: isolate;font-size: 14px;fill: #444;font-family: PingFang-SC-Medium, PingFang SC, MicrosoftYaHei, Microsoft YaHei">直播能力</text></g></g><g transform="translate(321.9423179626465,281)" id="ShadowDescriptionRect28" type="shape" style="cursor: move;"><rect transform="translate(2 2)" width="160" height="180" style="fill: #bbb;opacity:0.6"/><rect width="160" height="180" style="fill: #fff;stroke-width:1px;shape-rendering: crispEdges; stroke:#e5e5e5"/><g transform="translate(20 9)"><line x1="0" y1="41" x2="120" y2="41" style="stroke:#bababa;stroke-width:1;shape-rendering: crispEdges;"/></g><g transform="translate(20 9)" class="content"><g style="fill:#00a4ff;" class="logo"><svg id="图层_1" data-name="图层 1" xmlns="http://www.w3.org/2000/svg" width="32" height="32" viewBox="0 0 32 32">
  <defs>
    <style>
      .cls-1 {
        fill: #00a4ff;
        fill-rule: evenodd;
      }
    </style>
  </defs>
  <title>Product Icons【32】</title>
  <g id="_编组_" data-name="&lt;编组&gt;">
    <g id="_编组_2" data-name="&lt;编组&gt;">
      <path id="_复合路径_" data-name="&lt;复合路径&gt;" class="cls-1" d="M26,13.15c0-.05,0-.1,0-.15A10,10,0,1,0,6,13c0,.05,0,.1,0,.15A7.5,7.5,0,0,0,7,28v0h7V26H7.45l-.32,0A5.5,5.5,0,0,1,6.4,15.11L8,14.78l0-1.66C8,13.07,8,13,8,13a8,8,0,0,1,16,0c0,.05,0,.11,0,.16l0,1.66,1.63.33A5.5,5.5,0,0,1,24.87,26l-.26,0H18v2h7v0a7.5,7.5,0,0,0,1-14.83Zm-5.68,3.92L13.77,13a.5.5,0,0,0-.27-.08.51.51,0,0,0-.51.51v8.18a.5.5,0,0,0,.51.51.5.5,0,0,0,.27-.08l6.54-4.09A.5.5,0,0,0,20.32,17.07ZM15,18.89V16.11l2.23,1.39Z"/>
    </g>
  </g>
</svg>
</g><text transform="translate(42 21)" style="isolation: isolate;font-size: 14px;fill: #444;font-family: PingFang-SC-Medium, PingFang SC, MicrosoftYaHei, Microsoft YaHei">点播能力</text></g></g><g transform="translate(523.8831081390381,281)" id="ShadowDescriptionRect29" type="shape" style="cursor: move;"><rect transform="translate(2 2)" width="163.91014862060547" height="180" style="fill: #bbb;opacity:0.6"/><rect width="163.91014862060547" height="180" style="fill: #fff;stroke-width:1px;shape-rendering: crispEdges; stroke:#e5e5e5"/><g transform="translate(20 9)"><line x1="0" y1="41" x2="123.91014862060547" y2="41" style="stroke:#bababa;stroke-width:1;shape-rendering: crispEdges;"/></g><g transform="translate(20 9)" class="content"><g style="fill:#00a4ff;" class="logo"><svg id="图层_1" data-name="图层 1" xmlns="http://www.w3.org/2000/svg" width="32" height="32" viewBox="0 0 32 32">
  <defs>
    <style>
      .cls-1 {
        fill: #00a4ff;
      }
    </style>
  </defs>
  <title>Product Icons【32】</title>
  <g id="_编组_" data-name="&lt;编组&gt;">
    <path class="cls-1" d="M8.79,2H8.44A4.26,4.26,0,0,0,4,5.44c-.82,3.86-2.25,14.18-.2,21.9C4.31,29.23,5.93,30,8.13,30c6.63,0,18.52-7.07,20.8-12.07C31.74,11.77,15.3,3.57,8.79,2Zm18.29,15.1C24.94,21.82,13.32,28,8.13,28c-2.05,0-2.27-.8-2.37-1.18-1.86-7-.67-16.79.23-21A2.18,2.18,0,0,1,8.44,4h.05c5.24,1.31,16.16,6.74,18.4,11.26A2,2,0,0,1,27.08,17.11ZM12.77,12a.5.5,0,0,0-.27-.08.51.51,0,0,0-.51.51v8.18a.5.5,0,0,0,.51.51.5.5,0,0,0,.27-.08l6.54-4.09a.5.5,0,0,0,0-.86ZM14,17.88V15.1l2.23,1.39Z"/>
  </g>
</svg>
</g><text transform="translate(42 21)" style="isolation: isolate;font-size: 14px;fill: #444;font-family: PingFang-SC-Medium, PingFang SC, MicrosoftYaHei, Microsoft YaHei">其他基础能力</text></g></g><g transform="translate(112.1451295216878,789.5)" id="RectEndPoint75" type="shape" style="cursor: move;"><rect transform="translate(2 2)" width="97" height="50" style="fill: #bbb;opacity:0.6"/><rect width="97" height="50" style="fill: #fff; stroke-width:1px;shape-rendering: crispEdges; stroke:#e5e5e5"/><g transform="translate(20 9)" class="content"><g style="fill:#00a4ff;" class="logo"/><text transform="translate(0 21)" style="isolation: isolate;font-size: 14px;fill: #444;font-family: PingFang-SC-Medium, PingFang SC, MicrosoftYaHei, Microsoft YaHei">直播源</text></g></g><g transform="translate(459,789.5)" id="RectEndPoint77" type="shape" style="cursor: move;"><rect transform="translate(2 2)" width="98" height="50" style="fill: #bbb;opacity:0.6"/><rect width="98" height="50" style="fill: #fff; stroke-width:1px;shape-rendering: crispEdges; stroke:#e5e5e5"/><g transform="translate(20 9)" class="content"><g style="fill:#00a4ff;" class="logo"/><text transform="translate(0 21)" style="isolation: isolate;font-size: 14px;fill: #444;font-family: PingFang-SC-Medium, PingFang SC, MicrosoftYaHei, Microsoft YaHei">点播存储</text></g></g><g transform="translate(608.0730152130127,789.5)" id="RectEndPoint78" type="shape" style="cursor: move;"><rect transform="translate(2 2)" width="97" height="50" style="fill: #bbb;opacity:0.6"/><rect width="97" height="50" style="fill: #fff; stroke-width:1px;shape-rendering: crispEdges; stroke:#e5e5e5"/><g transform="translate(20 9)" class="content"><g style="fill:#00a4ff;" class="logo"/><text transform="translate(0 21)" style="isolation: isolate;font-size: 14px;fill: #444;font-family: PingFang-SC-Medium, PingFang SC, MicrosoftYaHei, Microsoft YaHei">点播后台</text></g></g><g transform="translate(90.28334744771321,669.5)" id="ShadowBasicRect87" type="shape" style="cursor: move;"><rect transform="translate(2 2)" width="153.37981414794922" height="50" style="fill: #bbb;opacity:0.6"/><rect width="153.37981414794922" height="50" style="fill: #fff;stroke-width:1px;shape-rendering: crispEdges; stroke:#e5e5e5"/><g transform="translate(20 9)" class="content"><g style="fill:#00a4ff;" class="logo"><!--?xml version="1.0" encoding="utf-8"?-->
<!-- Generator: Adobe Illustrator 22.0.1, SVG Export Plug-In . SVG Version: 6.00 Build 0)  -->
<svg version="1.1" id="图层_1" xmlns="http://www.w3.org/2000/svg" xmlns:xlink="http://www.w3.org/1999/xlink" x="0px" y="0px" width="32px" height="32px" viewBox="0 0 32 32" style="enable-background:new 0 0 32 32;" xml:space="preserve">
<style type="text/css">
	.st0{fill-rule:evenodd;clip-rule:evenodd;fill:#00a4ff;}
	.st1{fill:#00a4ff;}
</style>
<g id="XMLID_2714_">
	<g>
		<polygon class="st0" points="28,22.9 16,29.8 4,22.9 4,9.2 16,2.4 28,9.2 28,9.2 30,8.1 16,0.1 2,8.1 2,24.1 16,32.1 30,24.1 &#10;&#9;&#9;&#9;30,12.1 28,13.2 &#9;&#9;"/>
	</g>
</g>
<circle class="st1" cx="9" cy="12" r="2"/>
<circle class="st1" cx="23" cy="12" r="2"/>
<circle class="st1" cx="16" cy="23" r="2"/>
<rect x="15" y="15" class="st1" width="2" height="8"/>
<rect x="11.4" y="10.2" transform="matrix(0.5 -0.866 0.866 0.5 -6.1184 17.894)" class="st1" width="2" height="8"/>
<rect x="18" y="10.5" transform="matrix(-0.5 -0.866 0.866 -0.5 15.8695 38.2068)" class="st1" width="2" height="8"/>
</svg>
</g><text transform="translate(42 21)" style="isolation: isolate;font-size: 14px;fill: #444;font-family: PingFang-SC-Medium, PingFang SC, MicrosoftYaHei, Microsoft YaHei">X-P2P后台</text></g></g><g transform="translate(340.9423179626465,669.5)" id="ShadowBasicRect89" type="shape" style="cursor: move;"><rect transform="translate(2 2)" width="138" height="50" style="fill: #bbb;opacity:0.6"/><rect width="138" height="50" style="fill: #fff;stroke-width:1px;shape-rendering: crispEdges; stroke:#e5e5e5"/><g transform="translate(20 9)" class="content"><g style="fill:#00a4ff;" class="logo"><svg id="图层_1" data-name="图层 1" xmlns="http://www.w3.org/2000/svg" width="32" height="32" viewBox="0 0 32 32">
  <defs>
    <style>
      .cls-1 {
        fill: #00a4ff;
      }
    </style>
  </defs>
  <title>Product Icons【32】</title>
  <g>
    <g id="_编组_" data-name="&lt;编组&gt;">
      <polygon class="cls-1" points="28 22.84 16 29.7 4 22.84 4 9.16 16 2.3 28 9.16 28 9.14 30 8 16 0 2 8 2 24 16 32 30 24 30 12 28 13.14 28 22.84"/>
    </g>
    <g>
      <polygon class="cls-1" points="13.99 22.85 16 24 23 20 23 17.7 13.99 22.85"/>
      <g>
        <polygon class="cls-1" points="11 15.47 9 16.61 9 20 11.97 21.7 13.99 20.55 11 18.84 11 15.47"/>
        <polygon class="cls-1" points="11 13.16 11 13.16 16 10.3 16 10.3 18.02 9.15 16 8 9 12 9 14.31 11 13.16"/>
        <polygon class="cls-1" points="18.02 11.46 21 13.16 21 16.54 23 15.4 23 12 20.03 10.3 18.02 11.46"/>
      </g>
      <circle class="cls-1" cx="16" cy="9" r="2"/>
      <circle class="cls-1" cx="16" cy="23" r="2"/>
      <g>
        <polygon class="cls-1" points="15 15.48 21.03 12.04 20.04 10.3 15 13.18 15 15.48"/>
        <polygon class="cls-1" points="13 14.32 9 16.6 9 18.91 13 16.62 13 14.32"/>
      </g>
      <g>
        <polygon class="cls-1" points="17 16.53 10.98 19.96 11.97 21.7 17 18.83 17 16.53"/>
        <polygon class="cls-1" points="19 15.39 19 17.69 23 15.41 23 13.1 19 15.39"/>
      </g>
    </g>
  </g>
</svg>
</g><text transform="translate(42 21)" style="isolation: isolate;font-size: 14px;fill: #444;font-family: PingFang-SC-Medium, PingFang SC, MicrosoftYaHei, Microsoft YaHei">CDN</text></g></g><g transform="translate(358.0730152130127,11)" id="RectEndPoint94" type="shape" style="cursor: auto;"><rect transform="translate(2 2)" width="120" height="50" style="fill: #bbb;opacity:0.6"/><rect width="120" height="50" style="fill: #fff; stroke-width:1px;shape-rendering: crispEdges; stroke:#e5e5e5"/><g transform="translate(20 9)" class="content"><g style="fill:#00a4ff;" class="logo"><g><path d="M12,5.13a4,4,0,1,1-4,4,4,4,0,0,1,4-4m0-2a6,6,0,1,0,6,6A6,6,0,0,0,12,3.13Z" style="fill: #878787"/><path d="M16,19.13a6,6,0,0,1,6,6v1H2v-1a6,6,0,0,1,6-6h8m0-2H8a8,8,0,0,0-8,8v3H24v-3A8,8,0,0,0,16,17.13Z" style="fill: #878787"/><path d="M25,17.12H22a10.06,10.06,0,0,1,2,2h1a4,4,0,0,1,4,4v1H26c0,.33,0,.66,0,1v1h5v-3a6,6,0,0,0-6-6Z" style="fill: #878787"/><path d="M21,4.12a4.94,4.94,0,0,0-2.33.6,8,8,0,0,1,.88,1.79,3,3,0,1,1,0,5.22,8,8,0,0,1-.88,1.79,4.94,4.94,0,0,0,2.33.6,5,5,0,0,0,0-10Z" style="fill: #878787"/></g></g><text transform="translate(42 21)" style="isolation: isolate;font-size: 14px;fill: #444;font-family: PingFang-SC-Medium, PingFang SC, MicrosoftYaHei, Microsoft YaHei">用户</text></g></g><g transform="translate(259.1923179626465,789.5)" id="RectEndPoint101" type="shape" style="cursor: move;"><rect transform="translate(2 2)" width="97" height="50" style="fill: #bbb;opacity:0.6"/><rect width="97" height="50" style="fill: #fff; stroke-width:1px;shape-rendering: crispEdges; stroke:#e5e5e5"/><g transform="translate(20 9)" class="content"><g style="fill:#00a4ff;" class="logo"/><text transform="translate(0 21)" style="isolation: isolate;font-size: 14px;fill: #444;font-family: PingFang-SC-Medium, PingFang SC, MicrosoftYaHei, Microsoft YaHei">直播后台</text></g></g><g transform="translate(127.8013795216878,168.4)" id="RectEndPoint115" type="shape" style="cursor: move;"><rect transform="translate(2 2)" width="97" height="50" style="fill: #bbb;opacity:0.6"/><rect width="97" height="50" style="fill: #fff; stroke-width:1px;shape-rendering: crispEdges; stroke:#e5e5e5"/><g transform="translate(20 9)" class="content"><g style="fill:#00a4ff;" class="logo"/><text transform="translate(0 21)" style="isolation: isolate;font-size: 14px;fill: #444;font-family: PingFang-SC-Medium, PingFang SC, MicrosoftYaHei, Microsoft YaHei">广告植入</text></g></g><g transform="translate(253.0886402130127,168.4)" id="RectEndPoint117" type="shape" style="cursor: move;"><rect transform="translate(2 2)" width="97" height="50" style="fill: #bbb;opacity:0.6"/><rect width="97" height="50" style="fill: #fff; stroke-width:1px;shape-rendering: crispEdges; stroke:#e5e5e5"/><g transform="translate(20 9)" class="content"><g style="fill:#00a4ff;" class="logo"/><text transform="translate(0 21)" style="isolation: isolate;font-size: 14px;fill: #444;font-family: PingFang-SC-Medium, PingFang SC, MicrosoftYaHei, Microsoft YaHei">智能AI</text></g></g><g transform="translate(380.0886402130127,168.4)" id="RectEndPoint118" type="shape" style="cursor: move;"><rect transform="translate(2 2)" width="97.984375" height="50" style="fill: #bbb;opacity:0.6"/><rect width="97.984375" height="50" style="fill: #fff; stroke-width:1px;shape-rendering: crispEdges; stroke:#e5e5e5"/><g transform="translate(20 9)" class="content"><g style="fill:#00a4ff;" class="logo"/><text transform="translate(0 21)" style="isolation: isolate;font-size: 14px;fill: #444;font-family: PingFang-SC-Medium, PingFang SC, MicrosoftYaHei, Microsoft YaHei">浮窗互动</text></g></g><g transform="translate(508.0730152130127,168.4)" id="RectEndPoint119" type="shape" style="cursor: move;"><rect transform="translate(2 2)" width="97" height="50" style="fill: #bbb;opacity:0.6"/><rect width="97" height="50" style="fill: #fff; stroke-width:1px;shape-rendering: crispEdges; stroke:#e5e5e5"/><g transform="translate(20 9)" class="content"><g style="fill:#00a4ff;" class="logo"/><text transform="translate(0 21)" style="isolation: isolate;font-size: 14px;fill: #444;font-family: PingFang-SC-Medium, PingFang SC, MicrosoftYaHei, Microsoft YaHei">白板涂鸦</text></g></g><g transform="translate(127.8013795216878,530.625)" id="RectEndPoint125" type="shape" style="cursor: move;"><rect transform="translate(2 2)" width="78.34375" height="50" style="fill: #bbb;opacity:0.6"/><rect width="78.34375" height="50" style="fill: #fff; stroke-width:1px;shape-rendering: crispEdges; stroke:#e5e5e5"/><g transform="translate(20 9)" class="content"><g style="fill:#00a4ff;" class="logo"/><text transform="translate(0 21)" style="isolation: isolate;font-size: 14px;fill: #444;font-family: PingFang-SC-Medium, PingFang SC, MicrosoftYaHei, Microsoft YaHei">X-P2P</text></g></g><g transform="translate(219.1042652130127,530.625)" id="RectEndPoint126" type="shape" style="cursor: move;"><rect transform="translate(2 2)" width="75" height="50" style="fill: #bbb;opacity:0.6"/><rect width="75" height="50" style="fill: #fff; stroke-width:1px;shape-rendering: crispEdges; stroke:#e5e5e5"/><g transform="translate(20 9)" class="content"><g style="fill:#00a4ff;" class="logo"/><text transform="translate(0 21)" style="isolation: isolate;font-size: 14px;fill: #444;font-family: PingFang-SC-Medium, PingFang SC, MicrosoftYaHei, Microsoft YaHei">PCDN</text></g></g><g transform="translate(303.1042652130127,530.625)" id="RectEndPoint128" type="shape" style="cursor: move;"><rect transform="translate(2 2)" width="120" height="50" style="fill: #bbb;opacity:0.6"/><rect width="120" height="50" style="fill: #fff; stroke-width:1px;shape-rendering: crispEdges; stroke:#e5e5e5"/><g transform="translate(20 9)" class="content"><g style="fill:#00a4ff;" class="logo"/><text transform="translate(0 21)" style="isolation: isolate;font-size: 14px;fill: #444;font-family: PingFang-SC-Medium, PingFang SC, MicrosoftYaHei, Microsoft YaHei">超分辨率技术</text></g></g><g transform="translate(432.1042652130127,530.625)" id="RectEndPoint130" type="shape" style="cursor: move;"><rect transform="translate(2 2)" width="111.640625" height="50" style="fill: #bbb;opacity:0.6"/><rect width="111.640625" height="50" style="fill: #fff; stroke-width:1px;shape-rendering: crispEdges; stroke:#e5e5e5"/><g transform="translate(20 9)" class="content"><g style="fill:#00a4ff;" class="logo"/><text transform="translate(0 21)" style="isolation: isolate;font-size: 14px;fill: #444;font-family: PingFang-SC-Medium, PingFang SC, MicrosoftYaHei, Microsoft YaHei">H.265 解码</text></g></g><g transform="translate(552.0886402130127,530.625)" id="RectEndPoint159" type="shape" style="cursor: move;"><rect transform="translate(2 2)" width="102.59375" height="50" style="fill: #bbb;opacity:0.6"/><rect width="102.59375" height="50" style="fill: #fff; stroke-width:1px;shape-rendering: crispEdges; stroke:#e5e5e5"/><g transform="translate(20 9)" class="content"><g style="fill:#00a4ff;" class="logo"/><text transform="translate(0 21)" style="isolation: isolate;font-size: 14px;fill: #444;font-family: PingFang-SC-Medium, PingFang SC, MicrosoftYaHei, Microsoft YaHei">MSE 框架</text></g></g></g><g transform="translate(0,0)" id="textgroup"><g transform="translate(635.484375,183.4)" id="Textbasic11" type="shape" style="cursor: move;"><rect overflow="visible" opacity="0.5" width="80" height="20" fill="#CEE3FF" style="opacity:0"/><g transform="translate(0 0)" class="content"><text transform="translate(0 14)" fill="#878787" style="font-size: 12px;font-family: PingFang-SC-Medium, PingFang SC, MicrosoftYaHei, Microsoft YaHei">......</text></g></g><g transform="translate(664.3831081390381,545.625)" id="Textbasic25" type="shape" style="cursor: move;"><rect overflow="visible" opacity="0.5" width="80" height="20" fill="#CEE3FF" style="opacity:0"/><g transform="translate(0 0)" class="content"><text transform="translate(0 14)" fill="#878787" style="font-size: 12px;font-family: PingFang-SC-Medium, PingFang SC, MicrosoftYaHei, Microsoft YaHei">......</text></g></g><g transform="translate(163.2629222869873,349.5)" id="Textdot31" type="shape" style="cursor: move;"><rect overflow="visible" opacity="0.5" width="80" height="20" fill="#CEE3FF" style="opacity:0"/><g transform="translate(0 0)" class="content"><text transform="translate(21 14)" fill="#878787" style="font-size: 12px;font-family: PingFang-SC-Medium, PingFang SC, MicrosoftYaHei, Microsoft YaHei">直播流播放</text><circle cx="10" cy="10" r="1.5" style="fill: #878787"/></g></g><g transform="translate(163.2629222869873,374.5)" id="Textdot32" type="shape" style="cursor: move;"><rect overflow="visible" opacity="0.5" width="80" height="20" fill="#CEE3FF" style="opacity:0"/><g transform="translate(0 0)" class="content"><text transform="translate(21 14)" fill="#878787" style="font-size: 12px;font-family: PingFang-SC-Medium, PingFang SC, MicrosoftYaHei, Microsoft YaHei">直播时移</text><circle cx="10" cy="10" r="1.5" style="fill: #878787"/></g></g><g transform="translate(163.2629222869873,402.5)" id="Textdot33" type="shape" style="cursor: move;"><rect overflow="visible" opacity="0.5" width="80" height="20" fill="#CEE3FF" style="opacity:0"/><g transform="translate(0 0)" class="content"><text transform="translate(21 14)" fill="#878787" style="font-size: 12px;font-family: PingFang-SC-Medium, PingFang SC, MicrosoftYaHei, Microsoft YaHei">直播截屏</text><circle cx="10" cy="10" r="1.5" style="fill: #878787"/></g></g><g transform="translate(188,430.5)" id="Textbasic34" type="shape" style="cursor: move;"><rect overflow="visible" opacity="0.5" width="80" height="20" fill="#CEE3FF" style="opacity:0"/><g transform="translate(0 0)" class="content"><text transform="translate(0 14)" fill="#878787" style="font-size: 12px;font-family: PingFang-SC-Medium, PingFang SC, MicrosoftYaHei, Microsoft YaHei">......</text></g></g><g transform="translate(353.1923179626465,339.5)" id="Textdot35" type="shape" style="cursor: move;"><rect overflow="visible" opacity="0.5" width="84.5" height="20" fill="#CEE3FF" style="opacity:0"/><g transform="translate(0 0)" class="content"><text transform="translate(21 14)" fill="#878787" style="font-size: 12px;font-family: PingFang-SC-Medium, PingFang SC, MicrosoftYaHei, Microsoft YaHei">点播视频播放</text><circle cx="10" cy="10" r="1.5" style="fill: #878787"/></g></g><g transform="translate(353.1923179626465,367.5)" id="Textdot36" type="shape" style="cursor: move;"><rect overflow="visible" opacity="0.5" width="84.5" height="20" fill="#CEE3FF" style="opacity:0"/><g transform="translate(0 0)" class="content"><text transform="translate(21 14)" fill="#878787" style="font-size: 12px;font-family: PingFang-SC-Medium, PingFang SC, MicrosoftYaHei, Microsoft YaHei">视频进度打点</text><circle cx="10" cy="10" r="1.5" style="fill: #878787"/></g></g><g transform="translate(353.1923179626465,395.5)" id="Textdot37" type="shape" style="cursor: move;"><rect overflow="visible" opacity="0.5" width="96.5" height="20" fill="#CEE3FF" style="opacity:0"/><g transform="translate(0 0)" class="content"><text transform="translate(21 14)" fill="#878787" style="font-size: 12px;font-family: PingFang-SC-Medium, PingFang SC, MicrosoftYaHei, Microsoft YaHei">倍数、镜像播放</text><circle cx="10" cy="10" r="1.5" style="fill: #878787"/></g></g><g transform="translate(379.8831081390381,425.5)" id="Textbasic38" type="shape" style="cursor: move;"><rect overflow="visible" opacity="0.5" width="80" height="20" fill="#CEE3FF" style="opacity:0"/><g transform="translate(0 0)" class="content"><text transform="translate(0 14)" fill="#878787" style="font-size: 12px;font-family: PingFang-SC-Medium, PingFang SC, MicrosoftYaHei, Microsoft YaHei">......</text></g></g><g transform="translate(560.5078125,339.5)" id="Textdot39" type="shape" style="cursor: move;"><rect overflow="visible" opacity="0.5" width="84.5" height="20" fill="#CEE3FF" style="opacity:0"/><g transform="translate(0 0)" class="content"><text transform="translate(21 14)" fill="#878787" style="font-size: 12px;font-family: PingFang-SC-Medium, PingFang SC, MicrosoftYaHei, Microsoft YaHei">视频小窗播放</text><circle cx="10" cy="10" r="1.5" style="fill: #878787"/></g></g><g transform="translate(560.5078125,362.5)" id="Textdot40" type="shape" style="cursor: move;"><rect overflow="visible" opacity="0.5" width="80" height="20" fill="#CEE3FF" style="opacity:0"/><g transform="translate(0 0)" class="content"><text transform="translate(21 14)" fill="#878787" style="font-size: 12px;font-family: PingFang-SC-Medium, PingFang SC, MicrosoftYaHei, Microsoft YaHei">码率自适应</text><circle cx="10" cy="10" r="1.5" style="fill: #878787"/></g></g><g transform="translate(560.5078125,385.5)" id="Textdot41" type="shape" style="cursor: move;"><rect overflow="visible" opacity="0.5" width="80" height="20" fill="#CEE3FF" style="opacity:0"/><g transform="translate(0 0)" class="content"><text transform="translate(21 14)" fill="#878787" style="font-size: 12px;font-family: PingFang-SC-Medium, PingFang SC, MicrosoftYaHei, Microsoft YaHei">版权保护</text><circle cx="10" cy="10" r="1.5" style="fill: #878787"/></g></g><g transform="translate(579.3831081390381,431.5)" id="Textbasic42" type="shape" style="cursor: move;"><rect overflow="visible" opacity="0.5" width="80" height="20" fill="#CEE3FF" style="opacity:0"/><g transform="translate(0 0)" class="content"><text transform="translate(0 14)" fill="#878787" style="font-size: 12px;font-family: PingFang-SC-Medium, PingFang SC, MicrosoftYaHei, Microsoft YaHei">......</text></g></g><g transform="translate(560.5078125,408.5)" id="Textdot43" type="shape" style="cursor: move;"><rect overflow="visible" opacity="0.5" width="84.5" height="20" fill="#CEE3FF" style="opacity:0"/><g transform="translate(0 0)" class="content"><text transform="translate(21 14)" fill="#878787" style="font-size: 12px;font-family: PingFang-SC-Medium, PingFang SC, MicrosoftYaHei, Microsoft YaHei">播放数据检测</text><circle cx="10" cy="10" r="1.5" style="fill: #878787"/></g></g><g transform="translate(211.5261402130127,729.5)" id="Textbasic82" type="shape" style="cursor: move;"><rect overflow="visible" opacity="0.5" width="86.53125" height="20" fill="#CEE3FF" style="opacity:0"/><g transform="translate(0 0)" class="content"><text transform="translate(0 14)" fill="#878787" style="font-size: 12px;font-family: PingFang-SC-Medium, PingFang SC, MicrosoftYaHei, Microsoft YaHei">RTMP/FlV/HLS</text></g></g><g transform="translate(560.3855152130127,729.5)" id="Textbasic83" type="shape" style="cursor: move;"><rect overflow="visible" opacity="0.5" width="80" height="20" fill="#CEE3FF" style="opacity:0"/><g transform="translate(0 0)" class="content"><text transform="translate(0 14)" fill="#878787" style="font-size: 12px;font-family: PingFang-SC-Medium, PingFang SC, MicrosoftYaHei, Microsoft YaHei">FlV/HLS/MP4</text></g></g><g transform="translate(173.0886402130127,640.5)" id="Textbasic100" type="shape" style="cursor: move;"><rect overflow="visible" opacity="0.5" width="80" height="20" fill="#CEE3FF" style="opacity:0"/><g transform="translate(0 0)" class="content"><text transform="translate(0 14)" fill="#878787" style="font-size: 12px;font-family: PingFang-SC-Medium, PingFang SC, MicrosoftYaHei, Microsoft YaHei">信令交互</text></g></g></g><g transform="translate(0,0)" id="assistantgroup"/></svg>