<?xml version="1.0" encoding="UTF-8"?>
<svg width="32px" height="32px" viewBox="0 0 32 32" version="1.1" xmlns="http://www.w3.org/2000/svg" xmlns:xlink="http://www.w3.org/1999/xlink">
    <!-- Generator: Sketch 52.6 (67491) - http://www.bohemiancoding.com/sketch -->
    <title>英文作文批改-32px</title>
    <desc>Created with Sketch.</desc>
    <g id="英文作文批改-32px" stroke="none" stroke-width="1" fill="none" fill-rule="evenodd">
        <rect id="Rectangle-Copy" fill="#444444" opacity="0" x="0" y="0" width="32" height="32"></rect>
        <path d="M27.2675644,28 L4,28 L2,28 L2,11 L4,11 L4,26 L27.2675644,26 C27.6133738,25.4021986 28.2597176,25 29,25 C30.1045695,25 31,25.8954305 31,27 C31,28.1045695 30.1045695,29 29,29 C28.2597176,29 27.6133738,28.5978014 27.2675644,28 Z M28,6 L4.73243561,6 C4.38662619,6.59780137 3.74028236,7 3,7 C1.8954305,7 1,6.1045695 1,5 C1,3.8954305 1.8954305,3 3,3 C3.74028236,3 4.38662619,3.40219863 4.73243561,4 L30,4 L30,6 L30,21 L28,21 L28,6 Z M15,13 L10,13 L10,15 L15,15 L15,17 L10,17 L10,19 L15,19 L15,21 L8,21 L8,11 L15,11 L15,13 Z M22,14 C23.105,14 24,14.895 24,16 L24,21 L22,21 L22,16 L20,16 L20,21 L18,21 L18,16 C18,14.895 18.895,14 20,14 L22,14 Z" id="Combined-Shape" fill="#7C848E"></path>
    </g>
</svg>