<?xml version="1.0" encoding="UTF-8"?>
<svg width="32px" height="32px" viewBox="0 0 32 32" version="1.1" xmlns="http://www.w3.org/2000/svg" xmlns:xlink="http://www.w3.org/1999/xlink">
    <!-- Generator: Sketch 56.3 (81716) - https://sketch.com -->
    <title>行业 copy 2</title>
    <desc>Created with Sketch.</desc>
    <g id="行业-copy-2" stroke="none" stroke-width="1" fill="none" fill-rule="evenodd">
        <rect id="Rectangle-Copy" fill="#444444" opacity="0" x="0" y="0" width="32" height="32"></rect>
        <path d="M4.7,6 L28,6 L28,21 L30,21 L30,4 L4.7,4 C4.4,3.4 3.7,3 3,3 C1.9,3 1,3.9 1,5 C1,6.1 1.9,7 3,7 C3.7,7 4.4,6.6 4.7,6 Z" id="Shape" fill="#00A4FF" fill-rule="nonzero"></path>
        <path d="M29,25 C28.3,25 27.6,25.4 27.3,26 L4,26 L4,11 L2,11 L2,28 L27.3,28 C27.6,28.6 28.3,29 29,29 C30.1,29 31,28.1 31,27 C31,25.9 30.1,25 29,25 Z" id="Shape" fill="#00A4FF" fill-rule="nonzero"></path>
        <path d="M9,10.9908506 L9,22.0041504 L20,22.0041504 L20,14.7328648 L15.4835503,10.9908506 L9,10.9908506 Z" id="Rectangle-Copy-11" stroke="#00A4FF" stroke-width="2"></path>
        <polyline id="Shape-Copy-2" stroke="#00A4FF" stroke-width="2" points="12 10.9393311 12 8 17.6132812 8 22.9960938 12.4783936 22.9960938 20.5255127 20.2397461 20.5255127"></polyline>
        <polyline id="Path-8-Copy-2" stroke="#00A4FF" stroke-width="2" points="15 11.0041504 15 15.0041504 20 15.0041504"></polyline>
    </g>
</svg>