<?xml version="1.0" encoding="utf-8"?>
<!-- Generator: Adobe Illustrator 22.1.0, SVG Export Plug-In . SVG Version: 6.00 Build 0)  -->
<svg version="1.1" id="图层_1" xmlns="http://www.w3.org/2000/svg" xmlns:xlink="http://www.w3.org/1999/xlink" x="0px" y="0px"
	 viewBox="0 0 820 350" style="enable-background:new 0 0 820 350;" xml:space="preserve">
<style type="text/css">
	.st0{fill:#CEE3FF;}
	.st1{opacity:0.6;fill:#BBBBBB;enable-background:new    ;}
	.st2{fill:#878787;}
	.st3{fill:#FFFFFF;stroke:#E5E5E5;}
	.st4{fill:none;}
	.st5{fill:#00A4FF;}
	.st6{fill:#444444;}
	.st7{font-family:'PingFang-SC-Medium';}
	.st8{font-size:14px;}
	.st9{enable-background:new    ;}
</style>
<title>单点部署</title>
<rect x="401.5" y="5.2" class="st0" width="329.5" height="164"/>
<rect x="401.5" y="186.2" class="st0" width="329.5" height="164"/>
<rect x="82.3" y="160.7" class="st1" width="161.7" height="50"/>
<rect x="82" y="59.7" class="st1" width="162" height="50"/>
<rect x="423.6" y="39.2" class="st1" width="137" height="50"/>
<rect x="579.6" y="39.2" class="st1" width="137" height="50"/>
<rect x="423.6" y="100.7" class="st1" width="137" height="50"/>
<rect x="579.6" y="100.7" class="st1" width="137" height="50"/>
<rect x="423.6" y="220.2" class="st1" width="137" height="50"/>
<rect x="579.6" y="220.2" class="st1" width="137" height="50"/>
<rect x="423.6" y="281.7" class="st1" width="137" height="50"/>
<rect x="579.6" y="281.7" class="st1" width="137" height="50"/>
<polygon class="st2" points="389,274.7 394,270.2 389,265.7 "/>
<polygon class="st2" points="389,90.7 394,86.2 389,81.7 "/>
<polygon class="st2" points="248.3,188.6 243.3,184.1 248.3,179.6 "/>
<polygon class="st2" points="334,184.7 246.9,184.7 246.9,183.7 333,183.7 333,85.7 390,85.7 390,86.7 334,86.7 "/>
<polygon class="st2" points="393,270.7 333,270.7 333,184.7 334,184.7 334,269.7 393,269.7 "/>
<rect x="80.5" y="158.7" class="st3" width="161.7" height="50"/>
<rect x="80.2" y="57.7" class="st3" width="162" height="50"/>
<path class="st4" d="M122,98.8H94c-1.1,0-2-0.9-2-2v-28c0-1.1,0.9-2,2-2h28c1.1,0,2,0.9,2,2v28C124,97.9,123.1,98.8,122,98.8z"/>
<rect x="161.3" y="115.8" class="st2" width="1" height="3.3"/>
<rect x="161.3" y="120.1" class="st2" width="1" height="3.3"/>
<rect x="161.3" y="124.8" class="st2" width="1" height="3.3"/>
<rect x="161.3" y="129.5" class="st2" width="1" height="3.3"/>
<rect x="161.3" y="134.2" class="st2" width="1" height="3.3"/>
<rect x="161.3" y="138.9" class="st2" width="1" height="3.3"/>
<rect x="161.3" y="143.6" class="st2" width="1" height="3.3"/>
<rect x="161.3" y="148.3" class="st2" width="1" height="3.3"/>
<rect x="161.3" y="153" class="st2" width="1" height="3.3"/>
<polygon class="st2" points="157.3,117.8 161.8,112.8 166.3,117.8 "/>
<path class="st5" d="M109,196.8c-7.2,0-13-5.8-13-13s5.8-13,13-13c6.4,0,11.9,4.7,12.9,11h2c-1.1-8.2-8.7-14-16.9-12.9
	s-14,8.7-12.9,16.9s8.7,14,16.9,12.9c6.7-0.9,12-6.2,12.9-12.9h-2C120.9,192.1,115.4,196.8,109,196.8z"/>
<polygon class="st5" points="112.4,186.8 106.3,178.8 102.1,178.8 102.1,177.7 100.2,179.6 102.1,181.6 102.1,180.8 105.3,180.8 
	111.4,188.8 116.6,188.8 116.6,186.8 "/>
<polygon class="st5" points="110.6,182.1 111.6,180.8 114.7,180.8 114.7,181.6 116.7,179.6 114.7,177.7 114.7,178.8 110.6,178.8 
	109.3,180.4 "/>
<polygon class="st5" points="106.3,184.4 104.5,186.8 100.3,186.8 100.3,188.8 105.5,188.8 107.6,186.1 "/>
<polygon class="st5" points="96.2,73.2 120.2,73.2 120.2,88.2 122.2,88.2 122.2,71.2 94.2,71.2 94.2,88.2 96.2,88.2 "/>
<path class="st5" d="M122.2,90.2h-30v6h32v-6H122.2z M94.2,94.2v-2h12v1h4v-1h12v2H94.2z"/>
<path class="st2" d="M264.8,173.7H264v-10.3h10v8.9c0.1,0.9-0.4,1.4-1.5,1.4h-1.7c0-0.3-0.1-0.6-0.2-0.9h0.5c0.5,0,0.8,0,1.1,0
	c0.6,0,0.9-0.2,0.9-0.7v-7.9h-8.3v7.1c0.6-0.9,1.2-1.9,1.7-2.9c-0.2-0.4-0.6-1-1.1-1.8c-0.2-0.4-0.4-0.7-0.5-0.9l0.7-0.4
	c0.1,0.1,0.2,0.3,0.2,0.4c0.4,0.6,0.8,1.2,1.1,1.8c0.3-0.5,0.6-1.2,0.9-2.1c0-0.1,0.1-0.2,0.1-0.3l0.8,0.3c-0.4,1-0.8,2-1.3,2.9
	c0.1,0.2,0.2,0.4,0.4,0.8c0.3,0.5,0.6,1,0.9,1.5l-0.8,0.4c-0.3-0.6-0.7-1.2-1-1.8c-0.4,0.9-1,1.7-1.6,2.5l-0.7-0.4V173.7z
	 M268.8,166.1l0.7-0.4c0.2,0.3,0.5,0.8,1,1.5c0.2,0.3,0.3,0.4,0.3,0.6c0.4-0.8,0.8-1.7,1.2-2.5l0.8,0.3c-0.6,1.3-1.1,2.3-1.5,3.1
	c0.5,0.9,1.1,1.8,1.5,2.6l-0.8,0.4c-0.1-0.2-0.3-0.6-0.6-1.1c-0.3-0.5-0.5-0.8-0.6-1.1c-0.1,0.1-0.1,0.2-0.2,0.3
	c-0.4,0.7-0.8,1.4-1.4,2.1l-0.7-0.5c0.7-0.9,1.3-1.8,1.8-2.8C269.8,167.8,269.2,166.9,268.8,166.1z"/>
<path class="st2" d="M277,169.5c0.9-0.1,1.7-0.2,2.3-0.2v0.1c-0.1,0.2-0.1,0.5-0.1,0.7c-1.2,0.1-2.2,0.2-3.2,0.3l-0.2-0.8
	c0.3-0.2,0.5-0.4,0.7-0.7c0.1-0.2,0.4-0.5,0.7-1c0.2-0.2,0.3-0.4,0.4-0.5c-0.6,0-1.2,0-1.8,0.1l-0.3-0.8c0.3-0.2,0.5-0.5,0.7-0.8
	c0.7-1,1.3-2.1,1.8-3.2l0.9,0.4c-0.2,0.3-0.3,0.5-0.2,0.3c-1,1.6-1.7,2.7-2.1,3.3h0.7c0.4,0,0.6,0,0.8,0c0.1-0.2,0.3-0.5,0.5-0.8
	c0.2-0.3,0.3-0.4,0.3-0.6l0.8,0.4C278.8,167,277.9,168.3,277,169.5z M275.5,172.1c1.4-0.2,2.7-0.4,4.1-0.6c0,0.3,0,0.6,0,0.9
	c-1.2,0.1-2.5,0.3-3.8,0.5L275.5,172.1z M279.5,166.4c1-1.1,1.9-2.3,2.5-3.7l0.9,0.2c-0.2,0.4-0.4,0.7-0.6,1.1h4.1v0.8
	c-0.6,1-1.3,1.9-2.3,2.7c1,0.6,2,0.9,3.2,1.1c-0.1,0.1-0.2,0.4-0.5,0.9c-1.2-0.3-2.3-0.8-3.3-1.5c-1.1,0.7-2.3,1.2-3.6,1.6
	c-0.2-0.3-0.4-0.5-0.6-0.8c1.2-0.3,2.4-0.8,3.4-1.4c-0.6-0.5-1-1.1-1.5-1.7c-0.4,0.5-0.7,0.9-1.1,1.4
	C279.9,166.7,279.7,166.5,279.5,166.4L279.5,166.4z M280.5,169.5h5.9v4.3h-0.9v-0.6h-4v0.6h-0.9V169.5z M281.4,170.3v2.2h4v-2.2
	H281.4z M285.4,164.7h-3.5l0,0c0,0,0,0.1,0,0.1c0.4,0.8,1,1.4,1.7,2C284.2,166.2,284.9,165.5,285.4,164.7L285.4,164.7z"/>
<path class="st2" d="M287.9,166.5l0.6-0.7c0.7,0.5,1.4,1,2,1.5c-0.2,0.2-0.5,0.5-0.7,0.8C289.3,167.5,288.6,167,287.9,166.5z
	 M288.3,173.4c0.4-1.2,0.8-2.7,1.2-4.4c0.3,0.1,0.6,0.3,0.9,0.4c-0.4,1.4-0.8,2.9-1.2,4.3L288.3,173.4z M288.4,163.5l0.6-0.6
	c0.3,0.3,0.8,0.6,1.4,1.1c0.3,0.2,0.5,0.4,0.6,0.5c-0.3,0.3-0.5,0.5-0.7,0.7C289.4,164.3,288.8,163.8,288.4,163.5L288.4,163.5z
	 M292.2,168.6h0.9c0.1,1.2-0.1,2.3-0.4,3.4c-0.4,0.8-1,1.4-1.7,1.9c-0.2-0.3-0.4-0.5-0.6-0.8c0.7-0.3,1.2-0.8,1.5-1.5
	C292.1,170.6,292.3,169.6,292.2,168.6z M291.2,164.2h3.6c-0.2-0.4-0.4-0.9-0.7-1.3l0.9-0.4c0.3,0.4,0.6,0.9,0.8,1.4l-0.6,0.3h4.1
	v0.8h-5l0.6,0.3c-0.6,0.7-1.3,1.3-2,1.9c0.5,0,1.3-0.1,2.3-0.1c0.9,0,1.5,0,1.9,0c-0.3-0.4-0.7-0.8-1.1-1.1l0.7-0.5
	c1,1,1.8,1.8,2.5,2.6c-0.3,0.2-0.5,0.3-0.8,0.6c-0.1-0.1-0.2-0.2-0.3-0.4c-0.1-0.1-0.2-0.3-0.3-0.4h-0.5c-2.2,0.1-3.8,0.1-4.7,0.2
	c-0.2,0-0.5,0-0.7,0.1c-0.1,0-0.2,0-0.2,0l-0.4-0.8c0.3-0.2,0.6-0.3,0.8-0.5c0.7-0.5,1.3-1.2,1.9-1.9h-2.7L291.2,164.2z
	 M294.4,168.6h0.9v5h-0.9V168.6z M296.6,168.6h0.8v3.8c0,0.3,0.2,0.4,0.5,0.4h0.2c0.3,0,0.5-0.1,0.5-0.4c0.1-0.5,0.1-1.1,0.1-1.6
	c0.3,0.1,0.6,0.2,0.9,0.3c0,0.5-0.1,0.9-0.2,1.4c-0.1,0.6-0.6,1.1-1.2,1l0,0h-0.4c-0.8,0-1.3-0.4-1.3-1.1L296.6,168.6z"/>
<path class="st2" d="M301.8,167.8h8.9v3.1h-4.1v0.7h4.5v0.6h-4.5v0.6h5.4v0.6h-11.6v-0.6h5.4v-0.6h-4.5v-0.6h4.5V171h-4V167.8z
	 M300.5,166.6H312v0.6h-11.5V166.6z M301.9,163.2h8.7v3h-8.7V163.2z M302.6,168.4v0.8h3.2v-0.8H302.6z M302.6,169.6v0.8h3.2v-0.8
	H302.6z M302.7,163.7v0.6h7.1v-0.6H302.7z M302.7,164.9v0.6h7.1v-0.6H302.7z M309.9,168.4h-3.3v0.8h3.3V168.4z M306.6,169.6v0.8h3.3
	v-0.8H306.6z"/>
<path class="st2" d="M174.6,134.8h1.5v-1.5h-0.7v-0.7c-0.1,0.1-0.1,0.2-0.1,0.2c-0.1,0.1-0.1,0.1-0.2,0.2c-0.2-0.2-0.3-0.5-0.5-0.7
	c0.8-1.1,1.3-2.3,1.6-3.6l0.9,0.1c0,0.1-0.1,0.2-0.1,0.4c-0.1,0.4-0.2,0.7-0.4,1.1h1.9v0.8h-2.3c-0.2,0.5-0.5,0.9-0.7,1.4h2.7v0.8
	h-1.1v1.5h1.5v0.8h-1.5v2.6c0.2-0.1,0.4-0.3,0.7-0.5c0.3-0.3,0.5-0.4,0.7-0.5c0,0.1,0.1,0.3,0.1,0.4c0.1,0.1,0.1,0.3,0.1,0.4
	c-0.2,0.1-0.4,0.3-0.8,0.5c-0.4,0.3-0.6,0.4-0.8,0.6c-0.2,0.2-0.4,0.3-0.6,0.5l-0.6-0.7c0.3-0.2,0.4-0.6,0.3-0.9v-2.4h-1.5
	L174.6,134.8z M178.9,133.3h6.2v3.6h-1.8v1.5c0,0.3,0.2,0.4,0.6,0.4h0.7c0.3,0,0.6-0.2,0.6-0.5l0,0l0,0c0.1-0.4,0.1-0.7,0.1-1.1
	c0.1,0,0.2,0.1,0.4,0.1c0.2,0.1,0.3,0.1,0.4,0.1c0,0.1-0.1,0.2,0,0.3c0,0.2-0.1,0.5-0.2,0.7c-0.1,0.6-0.6,1-1.2,1c0,0,0,0-0.1,0h-1
	c-0.9,0-1.3-0.3-1.3-1.1V137h-1.1c0,1.3-1,2.3-3.1,2.9c-0.1-0.3-0.3-0.5-0.4-0.8c1.8-0.4,2.7-1.1,2.7-2.2h-1.7V133.3z M181.3,129
	l0.8-0.3c0.2,0.4,0.4,0.8,0.6,1.2h2.7v0.7h-1.7l0.7,0.3c-0.1,0.2-0.3,0.3-0.4,0.5c-0.2,0.2-0.3,0.4-0.4,0.5h2.3v0.7h-7.6v-0.7h2.3
	c-0.1-0.1-0.2-0.2-0.2-0.3c-0.2-0.3-0.4-0.5-0.5-0.7l0.6-0.3h-1.7v-0.7h3C181.7,129.6,181.5,129.3,181.3,129z M179.7,134v0.8h4.6
	V134H179.7z M179.7,135.5v0.8h4.6v-0.8H179.7z M181.4,131.6l-0.5,0.3h1.8c0.3-0.4,0.6-0.8,0.9-1.3h-3.1c0.2,0.2,0.4,0.5,0.6,0.8
	C181.2,131.4,181.3,131.5,181.4,131.6z"/>
<path class="st2" d="M186.9,134.2c1.1-1.7,2-3.5,2.5-5.5l0.9,0.2c-0.4,1-0.8,2-1.2,3v7.9h-0.8v-6.3c-0.1,0.1-0.2,0.2-0.3,0.4
	c-0.2,0.3-0.5,0.8-0.8,1.2C187.2,134.8,187.1,134.5,186.9,134.2z M189.8,131.7c1.2-0.8,2.2-1.8,3-3l1,0.2c-0.1,0.1-0.2,0.2-0.3,0.4
	c-0.1,0.2-0.2,0.3-0.3,0.4h3.3v0.7l-1.1,1.1h2.5v2.4h-3.7c-0.1,0.1-0.1,0.2-0.2,0.2c0.4,0.4,0.8,0.9,1,1.4c0.8-0.5,1.6-1,2.4-1.5
	l0.5,0.6c-0.1,0.1-0.3,0.2-0.5,0.3c-0.4,0.3-0.7,0.5-1,0.6c0.3,1.2,1.1,2.3,2.1,3c-0.2,0.2-0.5,0.4-0.7,0.6c-1-0.8-1.7-1.9-2.1-3.1
	c-0.2,0.1-0.3,0.2-0.5,0.3c0.1,0.6,0.2,1.2,0.2,1.7c0.1,0.9-0.4,1.7-1.3,1.8c-0.1,0-0.3,0-0.4,0h-1.2c-0.1-0.3-0.1-0.5-0.2-0.8
	c0.5,0,0.9,0,1.4,0c0.7,0,1.1-0.3,1-1.1c0-0.3,0-0.6,0-0.8c-1.2,1-2.7,1.9-4.2,2.4c-0.2-0.2-0.3-0.5-0.5-0.7
	c1.7-0.5,3.2-1.4,4.5-2.5c-0.1-0.2-0.1-0.4-0.2-0.6c-1.1,1-2.4,1.7-3.8,2.3c-0.2-0.2-0.3-0.5-0.5-0.7c1.4-0.5,2.8-1.2,3.9-2.2
	c-0.1-0.1-0.1-0.2-0.2-0.2c0-0.1-0.1-0.1-0.2-0.2c-0.9,0.7-1.9,1.2-3,1.6c-0.1-0.1-0.1-0.2-0.2-0.3c-0.1-0.2-0.2-0.3-0.3-0.3
	c1.2-0.3,2.3-0.9,3.3-1.7h-2.2v-1.9c-0.1,0.1-0.2,0.2-0.3,0.2c-0.1,0.1-0.2,0.2-0.3,0.3C190.1,132.1,189.9,131.9,189.8,131.7
	L189.8,131.7z M195.3,130.3h-2.8c-0.3,0.4-0.7,0.7-1,1h2.8L195.3,130.3z M191.7,132v1h2c0.2-0.3,0.3-0.7,0.4-1H191.7z M197.1,132
	h-2.2c-0.1,0.4-0.2,0.7-0.3,1h2.5L197.1,132z"/>
<path class="st2" d="M199.4,132.5l0.6-0.7c0.7,0.5,1.4,1,2,1.5c-0.2,0.2-0.5,0.5-0.7,0.8C200.7,133.5,200,133,199.4,132.5z
	 M199.8,139.4c0.4-1.2,0.8-2.7,1.2-4.4c0.3,0.1,0.6,0.3,0.9,0.4c-0.4,1.4-0.8,2.9-1.2,4.3L199.8,139.4z M199.8,129.5l0.6-0.6
	c0.3,0.3,0.8,0.6,1.4,1.1c0.3,0.2,0.5,0.4,0.6,0.5c-0.3,0.3-0.5,0.5-0.7,0.7C200.8,130.3,200.2,129.8,199.8,129.5z M203.6,134.6h0.9
	c0.1,1.2-0.1,2.3-0.4,3.4c-0.4,0.8-1,1.4-1.7,1.9c-0.2-0.3-0.4-0.5-0.6-0.8c0.7-0.3,1.2-0.8,1.5-1.5
	C203.6,136.6,203.7,135.6,203.6,134.6L203.6,134.6z M202.6,130.2h3.6c-0.2-0.4-0.4-0.9-0.7-1.3l0.9-0.4c0.3,0.4,0.6,0.9,0.8,1.4
	l-0.6,0.3h4.1v0.8h-5l0.6,0.3c-0.6,0.7-1.3,1.3-2,1.9c0.5,0,1.3-0.1,2.3-0.1c0.9,0,1.5,0,1.9,0c-0.3-0.4-0.7-0.8-1.1-1.1l0.7-0.5
	c1,1,1.8,1.8,2.5,2.6c-0.3,0.2-0.5,0.3-0.8,0.6c-0.1-0.1-0.2-0.2-0.3-0.4c-0.1-0.1-0.2-0.3-0.3-0.4h-0.5c-2.2,0.1-3.8,0.1-4.7,0.2
	c-0.2,0-0.5,0-0.7,0.1c-0.1,0-0.2,0-0.2,0l-0.4-0.8c0.3-0.2,0.6-0.3,0.8-0.5c0.7-0.5,1.3-1.2,1.9-1.9h-2.7L202.6,130.2z
	 M205.8,134.6h0.9v5h-0.9V134.6z M208.1,134.6h0.8v3.8c0,0.3,0.2,0.4,0.5,0.4h0.2c0.3,0,0.5-0.1,0.5-0.4c0.1-0.5,0.1-1.1,0.1-1.6
	c0.3,0.1,0.6,0.2,0.9,0.3c0,0.5-0.1,0.9-0.2,1.4c-0.1,0.6-0.6,1.1-1.2,1c0,0,0,0,0,0l0,0h-0.4c-0.8,0-1.3-0.4-1.3-1.1L208.1,134.6z"
	/>
<path class="st2" d="M213.2,133.8h8.9v3.1H218v0.7h4.5v0.6H218v0.6h5.4v0.6h-11.6v-0.6h5.4v-0.6h-4.5v-0.6h4.5V137h-4L213.2,133.8z
	 M211.9,132.6h11.5v0.6h-11.5V132.6z M213.3,129.2h8.7v3h-8.7V129.2z M214.1,134.4v0.8h3.2v-0.8H214.1z M214.1,135.6v0.8h3.2v-0.8
	H214.1z M214.1,129.7v0.6h7.1v-0.6H214.1z M214.1,130.9v0.6h7.1v-0.6H214.1z M221.3,134.4H218v0.8h3.3V134.4z M218,135.6v0.8h3.3
	v-0.8H218z"/>
<rect x="421.8" y="37.2" class="st3" width="137" height="50"/>
<path class="st4" d="M471.8,78.3h-28c-1.1,0-2-0.9-2-2v-28c0-1.1,0.9-2,2-2h28c1.1,0,2,0.9,2,2v28C473.8,77.4,472.9,78.3,471.8,78.3
	z"/>
<path class="st6" d="M483.5,57.5h1.2v10.9h-1.2V57.5z"/>
<path class="st6" d="M495.6,57.5v1h-3.8v9.9h-1.3v-9.9h-3.9v-1H495.6z"/>
<path class="st6" d="M499.9,59.5c0,0.1,0.2,0.4,0.6,1c-1.1,0.7-2.2,1.6-3.4,2.5l-0.7-0.9C497.6,61.3,498.8,60.4,499.9,59.5z
	 M503.8,64.7c0,0.5-0.1,1-0.2,1.5c0.8,0.3,1.9,0.7,3.3,1.3c1.1,0.4,2,0.7,2.5,0.9l-0.5,1c-0.5-0.2-1.2-0.5-2.2-0.9
	c-1.5-0.6-2.7-1.1-3.6-1.4c-0.6,1-2.6,1.8-5.9,2.4c0-0.1-0.1-0.2-0.2-0.5c-0.1-0.2-0.2-0.3-0.3-0.5c3.6-0.5,5.5-1.3,5.8-2.4
	c0.2-0.5,0.2-1,0.2-1.5H503.8z M497.6,56.7c0.1,0.1,0.2,0.1,0.3,0.2c0.7,0.4,1.4,0.9,2,1.4l-0.7,0.8c-0.3-0.3-0.9-0.7-1.8-1.3
	c-0.2-0.2-0.4-0.3-0.5-0.4L497.6,56.7z M498.4,63h9.5v4h-1v-3.1h-7.5v3.2h-1V63z M500.4,59.8c0.9-0.9,1.6-2.1,2.1-3.3l1.1,0.2
	c-0.1,0.4-0.3,0.7-0.5,1h6.3v0.8l-1,1.8c-0.1,0-0.2-0.1-0.3-0.1c-0.2-0.1-0.4-0.2-0.6-0.3l0.7-1.4h-2.5v0.2c0,0.1-0.1,0.1-0.1,0.2
	c0.5,1.4,1.9,2.4,4.4,2.8c-0.2,0.3-0.4,0.5-0.6,0.8c0,0.1-0.1,0.1-0.1,0.2c-2.1-0.6-3.5-1.5-4.1-2.6c-0.6,1.1-2,2-4.2,2.5
	c-0.1-0.1-0.2-0.3-0.5-0.7c-0.1-0.1-0.1-0.2-0.2-0.2c2.9-0.6,4.3-1.7,4.3-3.3h-1.9c-0.4,0.6-0.8,1.2-1.3,1.8
	C501,60.1,500.7,60,500.4,59.8L500.4,59.8z"/>
<path class="st6" d="M512.3,61.9h6.5c0.6-0.8,1.2-1.7,1.7-2.6l1,0.7c-0.6,0.8-1.1,1.5-1.5,2h4.1v0.9h-10.6v0.9
	c0.2,2.1-0.4,4.2-1.8,5.8c-0.2-0.3-0.5-0.5-0.7-0.9c1.1-0.9,1.5-2.6,1.5-4.9V61.9z M516.8,56.9l1.1-0.3c0.1,0.1,0.1,0.3,0.2,0.4
	c0.2,0.5,0.3,0.9,0.4,1.1h5.9V59h-13.3v-0.9h6.2C517.2,57.7,517,57.3,516.8,56.9z M514,59.8l1-0.6c0.1,0.1,0.2,0.3,0.3,0.5
	c0.4,0.5,0.8,1,1.1,1.5l-1,0.7C515,61.1,514.5,60.4,514,59.8z"/>
<rect x="447.8" y="47.7" class="st5" width="20" height="2"/>
<rect x="446.8" y="47.7" class="st5" width="2" height="29"/>
<rect x="466.8" y="47.7" class="st5" width="2" height="29"/>
<rect x="451.8" y="51.7" class="st5" width="12" height="2"/>
<rect x="451.8" y="55.7" class="st5" width="12" height="2"/>
<rect x="451.8" y="51.7" class="st5" width="2" height="6"/>
<rect x="461.8" y="51.7" class="st5" width="2" height="6"/>
<rect x="451.8" y="59.7" class="st5" width="12" height="2"/>
<rect x="451.8" y="63.7" class="st5" width="12" height="2"/>
<rect x="451.8" y="59.7" class="st5" width="2" height="6"/>
<rect x="461.8" y="59.7" class="st5" width="2" height="6"/>
<rect x="447.8" y="74.7" class="st5" width="20" height="2"/>
<circle class="st5" cx="457.8" cy="70.7" r="2"/>
<rect x="577.8" y="37.2" class="st3" width="137" height="50"/>
<path class="st4" d="M627.8,78.3h-28c-1.1,0-2-0.9-2-2v-28c0-1.1,0.9-2,2-2h28c1.1,0,2,0.9,2,2v28C629.8,77.4,628.9,78.3,627.8,78.3
	z"/>
<path class="st6" d="M639.5,57.5h1.2v10.9h-1.2V57.5z"/>
<path class="st6" d="M651.6,57.5v1h-3.8v9.9h-1.3v-9.9h-3.9v-1H651.6z"/>
<path class="st6" d="M655.9,59.5c0,0.1,0.2,0.4,0.6,1c-1.1,0.7-2.2,1.6-3.4,2.5l-0.7-0.9C653.6,61.3,654.8,60.4,655.9,59.5z
	 M659.8,64.7c0,0.5-0.1,1-0.2,1.5c0.8,0.3,1.9,0.7,3.3,1.3c1.1,0.4,2,0.7,2.5,0.9l-0.5,1c-0.5-0.2-1.2-0.5-2.2-0.9
	c-1.5-0.6-2.7-1.1-3.6-1.4c-0.6,1-2.6,1.8-5.9,2.4c0-0.1-0.1-0.2-0.2-0.5c-0.1-0.2-0.2-0.3-0.3-0.5c3.6-0.5,5.5-1.3,5.8-2.4
	c0.2-0.5,0.2-1,0.2-1.5H659.8z M653.6,56.7c0.1,0.1,0.2,0.1,0.3,0.2c0.7,0.4,1.4,0.9,2,1.4l-0.7,0.8c-0.3-0.3-0.9-0.7-1.8-1.3
	c-0.2-0.2-0.4-0.3-0.5-0.4L653.6,56.7z M654.4,63h9.5v4h-1v-3.1h-7.5v3.2h-1V63z M656.4,59.8c0.9-0.9,1.6-2.1,2.1-3.3l1.1,0.2
	c-0.1,0.4-0.3,0.7-0.5,1h6.3v0.8l-1,1.8c-0.1,0-0.2-0.1-0.3-0.1c-0.2-0.1-0.4-0.2-0.6-0.3l0.7-1.4h-2.5v0.2c0,0.1-0.1,0.1-0.1,0.2
	c0.5,1.4,1.9,2.4,4.4,2.8c-0.2,0.3-0.4,0.5-0.6,0.8c0,0.1-0.1,0.1-0.1,0.2c-2.1-0.6-3.5-1.5-4.1-2.6c-0.6,1.1-2,2-4.2,2.5
	c-0.1-0.1-0.2-0.3-0.5-0.7c-0.1-0.1-0.1-0.2-0.2-0.2c2.9-0.6,4.3-1.7,4.3-3.3h-1.9c-0.4,0.6-0.8,1.2-1.3,1.8
	C657,60.1,656.7,60,656.4,59.8z"/>
<path class="st6" d="M668.3,61.9h6.5c0.6-0.8,1.2-1.7,1.7-2.6l1,0.7c-0.6,0.8-1.1,1.5-1.5,2h4.1v0.9h-10.6v0.9
	c0.2,2.1-0.4,4.2-1.8,5.8c-0.2-0.3-0.5-0.5-0.7-0.9c1.1-0.9,1.5-2.6,1.5-4.9V61.9z M672.8,56.9l1.1-0.3c0.1,0.1,0.1,0.3,0.2,0.4
	c0.2,0.5,0.3,0.9,0.4,1.1h5.9V59h-13.3v-0.9h6.2C673.2,57.7,673,57.3,672.8,56.9z M670,59.8l1-0.6c0.1,0.1,0.2,0.3,0.3,0.5
	c0.4,0.5,0.8,1,1.1,1.5l-1,0.7C671,61.1,670.5,60.4,670,59.8z"/>
<rect x="603.8" y="47.7" class="st5" width="20" height="2"/>
<rect x="602.8" y="47.7" class="st5" width="2" height="29"/>
<rect x="622.8" y="47.7" class="st5" width="2" height="29"/>
<rect x="607.8" y="51.7" class="st5" width="12" height="2"/>
<rect x="607.8" y="55.7" class="st5" width="12" height="2"/>
<rect x="607.8" y="51.7" class="st5" width="2" height="6"/>
<rect x="617.8" y="51.7" class="st5" width="2" height="6"/>
<rect x="607.8" y="59.7" class="st5" width="12" height="2"/>
<rect x="607.8" y="63.7" class="st5" width="12" height="2"/>
<rect x="607.8" y="59.7" class="st5" width="2" height="6"/>
<rect x="617.8" y="59.7" class="st5" width="2" height="6"/>
<rect x="603.8" y="74.7" class="st5" width="20" height="2"/>
<circle class="st5" cx="613.8" cy="70.7" r="2"/>
<rect x="421.8" y="98.7" class="st3" width="137" height="50"/>
<path class="st4" d="M471.8,139.8h-28c-1.1,0-2-0.9-2-2v-28c0-1.1,0.9-2,2-2h28c1.1,0,2,0.9,2,2v28
	C473.8,138.9,472.9,139.8,471.8,139.8z"/>
<path class="st6" d="M483.5,119h1.2v10.9h-1.2V119z"/>
<path class="st6" d="M495.6,119v1h-3.8v9.9h-1.3V120h-3.9v-1H495.6z"/>
<path class="st6" d="M499.9,121c0,0.1,0.2,0.4,0.6,1c-1.1,0.7-2.2,1.6-3.4,2.5l-0.7-0.9C497.6,122.8,498.8,121.9,499.9,121z
	 M503.8,126.2c0,0.5-0.1,1-0.2,1.5c0.8,0.3,1.9,0.7,3.3,1.3c1.1,0.4,2,0.7,2.5,0.9l-0.5,1c-0.5-0.2-1.2-0.5-2.2-0.9
	c-1.5-0.6-2.7-1.1-3.6-1.4c-0.6,1-2.6,1.8-5.9,2.4c0-0.1-0.1-0.2-0.2-0.5c-0.1-0.2-0.2-0.3-0.3-0.5c3.6-0.5,5.5-1.3,5.8-2.4
	c0.2-0.5,0.2-1,0.2-1.5L503.8,126.2z M497.6,118.2c0.1,0.1,0.2,0.1,0.3,0.2c0.7,0.4,1.4,0.9,2,1.4l-0.7,0.8
	c-0.3-0.3-0.9-0.7-1.8-1.3c-0.2-0.2-0.4-0.3-0.5-0.4L497.6,118.2z M498.4,124.5h9.5v4h-1v-3.1h-7.5v3.2h-1V124.5z M500.4,121.3
	c0.9-0.9,1.6-2.1,2.1-3.3l1.1,0.2c-0.1,0.4-0.3,0.7-0.5,1h6.3v0.8l-1,1.8c-0.1,0-0.2-0.1-0.3-0.1c-0.2-0.1-0.4-0.2-0.6-0.3l0.7-1.4
	h-2.5v0.2c0,0.1-0.1,0.1-0.1,0.2c0.5,1.4,1.9,2.4,4.4,2.8c-0.2,0.3-0.4,0.5-0.6,0.8c0,0.1-0.1,0.1-0.1,0.2c-2.1-0.6-3.5-1.5-4.1-2.6
	c-0.6,1.1-2,2-4.2,2.5c-0.1-0.1-0.2-0.3-0.5-0.7c-0.1-0.1-0.1-0.2-0.2-0.2c2.9-0.6,4.3-1.7,4.3-3.3h-1.9c-0.4,0.6-0.8,1.2-1.3,1.8
	C501,121.6,500.7,121.5,500.4,121.3L500.4,121.3z"/>
<path class="st6" d="M512.3,123.4h6.5c0.6-0.8,1.2-1.7,1.7-2.6l1,0.7c-0.6,0.8-1.1,1.5-1.5,2h4.1v0.9h-10.6v0.9
	c0.2,2.1-0.4,4.2-1.8,5.8c-0.2-0.3-0.5-0.5-0.7-0.9c1.1-0.9,1.5-2.6,1.5-4.9V123.4z M516.8,118.4l1.1-0.3c0.1,0.1,0.1,0.3,0.2,0.4
	c0.2,0.5,0.3,0.9,0.4,1.1h5.9v0.9h-13.3v-0.9h6.2C517.2,119.2,517,118.8,516.8,118.4z M514,121.3l1-0.6c0.1,0.1,0.2,0.3,0.3,0.5
	c0.4,0.5,0.8,1,1.1,1.5l-1,0.7C515,122.6,514.5,121.9,514,121.3z"/>
<rect x="447.8" y="109.2" class="st5" width="20" height="2"/>
<rect x="446.8" y="109.2" class="st5" width="2" height="29"/>
<rect x="466.8" y="109.2" class="st5" width="2" height="29"/>
<rect x="451.8" y="113.2" class="st5" width="12" height="2"/>
<rect x="451.8" y="117.2" class="st5" width="12" height="2"/>
<rect x="451.8" y="113.2" class="st5" width="2" height="6"/>
<rect x="461.8" y="113.2" class="st5" width="2" height="6"/>
<rect x="451.8" y="121.2" class="st5" width="12" height="2"/>
<rect x="451.8" y="125.2" class="st5" width="12" height="2"/>
<rect x="451.8" y="121.2" class="st5" width="2" height="6"/>
<rect x="461.8" y="121.2" class="st5" width="2" height="6"/>
<rect x="447.8" y="136.2" class="st5" width="20" height="2"/>
<circle class="st5" cx="457.8" cy="132.2" r="2"/>
<rect x="577.8" y="98.7" class="st3" width="137" height="50"/>
<path class="st4" d="M627.8,139.8h-28c-1.1,0-2-0.9-2-2v-28c0-1.1,0.9-2,2-2h28c1.1,0,2,0.9,2,2v28
	C629.8,138.9,628.9,139.8,627.8,139.8z"/>
<path class="st6" d="M639.5,119h1.2v10.9h-1.2V119z"/>
<path class="st6" d="M651.6,119v1h-3.8v9.9h-1.3V120h-3.9v-1H651.6z"/>
<path class="st6" d="M655.9,121c0,0.1,0.2,0.4,0.6,1c-1.1,0.7-2.2,1.6-3.4,2.5l-0.7-0.9C653.6,122.8,654.8,121.9,655.9,121z
	 M659.8,126.2c0,0.5-0.1,1-0.2,1.5c0.8,0.3,1.9,0.7,3.3,1.3c1.1,0.4,2,0.7,2.5,0.9l-0.5,1c-0.5-0.2-1.2-0.5-2.2-0.9
	c-1.5-0.6-2.7-1.1-3.6-1.4c-0.6,1-2.6,1.8-5.9,2.4c0-0.1-0.1-0.2-0.2-0.5c-0.1-0.2-0.2-0.3-0.3-0.5c3.6-0.5,5.5-1.3,5.8-2.4
	c0.2-0.5,0.2-1,0.2-1.5L659.8,126.2z M653.6,118.2c0.1,0.1,0.2,0.1,0.3,0.2c0.7,0.4,1.4,0.9,2,1.4l-0.7,0.8
	c-0.3-0.3-0.9-0.7-1.8-1.3c-0.2-0.2-0.4-0.3-0.5-0.4L653.6,118.2z M654.4,124.5h9.5v4h-1v-3.1h-7.5v3.2h-1V124.5z M656.4,121.3
	c0.9-0.9,1.6-2.1,2.1-3.3l1.1,0.2c-0.1,0.4-0.3,0.7-0.5,1h6.3v0.8l-1,1.8c-0.1,0-0.2-0.1-0.3-0.1c-0.2-0.1-0.4-0.2-0.6-0.3l0.7-1.4
	h-2.5v0.2c0,0.1-0.1,0.1-0.1,0.2c0.5,1.4,1.9,2.4,4.4,2.8c-0.2,0.3-0.4,0.5-0.6,0.8c0,0.1-0.1,0.1-0.1,0.2c-2.1-0.6-3.5-1.5-4.1-2.6
	c-0.6,1.1-2,2-4.2,2.5c-0.1-0.1-0.2-0.3-0.5-0.7c-0.1-0.1-0.1-0.2-0.2-0.2c2.9-0.6,4.3-1.7,4.3-3.3h-1.9c-0.4,0.6-0.8,1.2-1.3,1.8
	C657,121.6,656.7,121.5,656.4,121.3z"/>
<path class="st6" d="M668.3,123.4h6.5c0.6-0.8,1.2-1.7,1.7-2.6l1,0.7c-0.6,0.8-1.1,1.5-1.5,2h4.1v0.9h-10.6v0.9
	c0.2,2.1-0.4,4.2-1.8,5.8c-0.2-0.3-0.5-0.5-0.7-0.9c1.1-0.9,1.5-2.6,1.5-4.9V123.4z M672.8,118.4l1.1-0.3c0.1,0.1,0.1,0.3,0.2,0.4
	c0.2,0.5,0.3,0.9,0.4,1.1h5.9v0.9h-13.3v-0.9h6.2C673.2,119.2,673,118.8,672.8,118.4z M670,121.3l1-0.6c0.1,0.1,0.2,0.3,0.3,0.5
	c0.4,0.5,0.8,1,1.1,1.5l-1,0.7C671,122.6,670.5,121.9,670,121.3z"/>
<rect x="603.8" y="109.2" class="st5" width="20" height="2"/>
<rect x="602.8" y="109.2" class="st5" width="2" height="29"/>
<rect x="622.8" y="109.2" class="st5" width="2" height="29"/>
<rect x="607.8" y="113.2" class="st5" width="12" height="2"/>
<rect x="607.8" y="117.2" class="st5" width="12" height="2"/>
<rect x="607.8" y="113.2" class="st5" width="2" height="6"/>
<rect x="617.8" y="113.2" class="st5" width="2" height="6"/>
<rect x="607.8" y="121.2" class="st5" width="12" height="2"/>
<rect x="607.8" y="125.2" class="st5" width="12" height="2"/>
<rect x="607.8" y="121.2" class="st5" width="2" height="6"/>
<rect x="617.8" y="121.2" class="st5" width="2" height="6"/>
<rect x="603.8" y="136.2" class="st5" width="20" height="2"/>
<circle class="st5" cx="613.8" cy="132.2" r="2"/>
<rect x="421.8" y="218.2" class="st3" width="137" height="50"/>
<path class="st4" d="M471.8,259.3h-28c-1.1,0-2-0.9-2-2v-28c0-1.1,0.9-2,2-2h28c1.1,0,2,0.9,2,2v28
	C473.8,258.4,472.9,259.3,471.8,259.3z"/>
<path class="st6" d="M483.5,238.5h1.2v10.9h-1.2V238.5z"/>
<path class="st6" d="M495.6,238.5v1h-3.8v9.9h-1.3v-9.9h-3.9v-1H495.6z"/>
<path class="st6" d="M499.9,240.5c0,0.1,0.2,0.4,0.6,1c-1.1,0.7-2.2,1.6-3.4,2.5l-0.7-0.9C497.6,242.3,498.8,241.4,499.9,240.5z
	 M503.8,245.7c0,0.5-0.1,1-0.2,1.5c0.8,0.3,1.9,0.7,3.3,1.3c1.1,0.4,2,0.7,2.5,0.9l-0.5,1c-0.5-0.2-1.2-0.5-2.2-0.9
	c-1.5-0.6-2.7-1.1-3.6-1.4c-0.6,1-2.6,1.8-5.9,2.4c0-0.1-0.1-0.2-0.2-0.5c-0.1-0.2-0.2-0.3-0.3-0.5c3.6-0.5,5.5-1.3,5.8-2.4
	c0.2-0.5,0.2-1,0.2-1.5H503.8z M497.6,237.7c0.1,0.1,0.2,0.1,0.3,0.2c0.7,0.4,1.4,0.9,2,1.4l-0.7,0.8c-0.3-0.3-0.9-0.7-1.8-1.3
	c-0.2-0.2-0.4-0.3-0.5-0.4L497.6,237.7z M498.4,244h9.5v4h-1v-3.1h-7.5v3.2h-1V244z M500.4,240.8c0.9-0.9,1.6-2.1,2.1-3.3l1.1,0.2
	c-0.1,0.4-0.3,0.7-0.5,1h6.3v0.8l-1,1.8c-0.1,0-0.2-0.1-0.3-0.1c-0.2-0.1-0.4-0.2-0.6-0.3l0.7-1.4h-2.5v0.2c0,0.1-0.1,0.1-0.1,0.2
	c0.5,1.4,1.9,2.4,4.4,2.8c-0.2,0.3-0.4,0.5-0.6,0.8c0,0.1-0.1,0.1-0.1,0.2c-2.1-0.6-3.5-1.5-4.1-2.6c-0.6,1.1-2,2-4.2,2.5
	c-0.1-0.1-0.2-0.3-0.5-0.7c-0.1-0.1-0.1-0.2-0.2-0.2c2.9-0.6,4.3-1.7,4.3-3.3h-1.9c-0.4,0.6-0.8,1.2-1.3,1.8
	C501,241.1,500.7,241,500.4,240.8L500.4,240.8z"/>
<path class="st6" d="M512.3,242.9h6.5c0.6-0.8,1.2-1.7,1.7-2.6l1,0.7c-0.6,0.8-1.1,1.5-1.5,2h4.1v0.9h-10.6v0.9
	c0.2,2.1-0.4,4.2-1.8,5.8c-0.2-0.3-0.5-0.5-0.7-0.9c1.1-0.9,1.5-2.6,1.5-4.9V242.9z M516.8,237.9l1.1-0.3c0.1,0.1,0.1,0.3,0.2,0.4
	c0.2,0.5,0.3,0.9,0.4,1.1h5.9v0.9h-13.3v-0.9h6.2C517.2,238.7,517,238.3,516.8,237.9z M514,240.8l1-0.6c0.1,0.1,0.2,0.3,0.3,0.5
	c0.4,0.5,0.8,1,1.1,1.5l-1,0.7C515,242.1,514.5,241.4,514,240.8z"/>
<rect x="447.8" y="228.7" class="st5" width="20" height="2"/>
<rect x="446.8" y="228.7" class="st5" width="2" height="29"/>
<rect x="466.8" y="228.7" class="st5" width="2" height="29"/>
<rect x="451.8" y="232.7" class="st5" width="12" height="2"/>
<rect x="451.8" y="236.7" class="st5" width="12" height="2"/>
<rect x="451.8" y="232.7" class="st5" width="2" height="6"/>
<rect x="461.8" y="232.7" class="st5" width="2" height="6"/>
<rect x="451.8" y="240.7" class="st5" width="12" height="2"/>
<rect x="451.8" y="244.7" class="st5" width="12" height="2"/>
<rect x="451.8" y="240.7" class="st5" width="2" height="6"/>
<rect x="461.8" y="240.7" class="st5" width="2" height="6"/>
<rect x="447.8" y="255.7" class="st5" width="20" height="2"/>
<circle class="st5" cx="457.8" cy="251.7" r="2"/>
<rect x="577.8" y="218.2" class="st3" width="137" height="50"/>
<path class="st4" d="M627.8,259.3h-28c-1.1,0-2-0.9-2-2v-28c0-1.1,0.9-2,2-2h28c1.1,0,2,0.9,2,2v28
	C629.8,258.4,628.9,259.3,627.8,259.3z"/>
<path class="st6" d="M639.5,238.5h1.2v10.9h-1.2V238.5z"/>
<path class="st6" d="M651.6,238.5v1h-3.8v9.9h-1.3v-9.9h-3.9v-1H651.6z"/>
<path class="st6" d="M655.9,240.5c0,0.1,0.2,0.4,0.6,1c-1.1,0.7-2.2,1.6-3.4,2.5l-0.7-0.9C653.6,242.3,654.8,241.4,655.9,240.5z
	 M659.8,245.7c0,0.5-0.1,1-0.2,1.5c0.8,0.3,1.9,0.7,3.3,1.3c1.1,0.4,2,0.7,2.5,0.9l-0.5,1c-0.5-0.2-1.2-0.5-2.2-0.9
	c-1.5-0.6-2.7-1.1-3.6-1.4c-0.6,1-2.6,1.8-5.9,2.4c0-0.1-0.1-0.2-0.2-0.5c-0.1-0.2-0.2-0.3-0.3-0.5c3.6-0.5,5.5-1.3,5.8-2.4
	c0.2-0.5,0.2-1,0.2-1.5H659.8z M653.6,237.7c0.1,0.1,0.2,0.1,0.3,0.2c0.7,0.4,1.4,0.9,2,1.4l-0.7,0.8c-0.3-0.3-0.9-0.7-1.8-1.3
	c-0.2-0.2-0.4-0.3-0.5-0.4L653.6,237.7z M654.4,244h9.5v4h-1v-3.1h-7.5v3.2h-1V244z M656.4,240.8c0.9-0.9,1.6-2.1,2.1-3.3l1.1,0.2
	c-0.1,0.4-0.3,0.7-0.5,1h6.3v0.8l-1,1.8c-0.1,0-0.2-0.1-0.3-0.1c-0.2-0.1-0.4-0.2-0.6-0.3l0.7-1.4h-2.5v0.2c0,0.1-0.1,0.1-0.1,0.2
	c0.5,1.4,1.9,2.4,4.4,2.8c-0.2,0.3-0.4,0.5-0.6,0.8c0,0.1-0.1,0.1-0.1,0.2c-2.1-0.6-3.5-1.5-4.1-2.6c-0.6,1.1-2,2-4.2,2.5
	c-0.1-0.1-0.2-0.3-0.5-0.7c-0.1-0.1-0.1-0.2-0.2-0.2c2.9-0.6,4.3-1.7,4.3-3.3h-1.9c-0.4,0.6-0.8,1.2-1.3,1.8
	C657,241.1,656.7,241,656.4,240.8z"/>
<path class="st6" d="M668.3,242.9h6.5c0.6-0.8,1.2-1.7,1.7-2.6l1,0.7c-0.6,0.8-1.1,1.5-1.5,2h4.1v0.9h-10.6v0.9
	c0.2,2.1-0.4,4.2-1.8,5.8c-0.2-0.3-0.5-0.5-0.7-0.9c1.1-0.9,1.5-2.6,1.5-4.9V242.9z M672.8,237.9l1.1-0.3c0.1,0.1,0.1,0.3,0.2,0.4
	c0.2,0.5,0.3,0.9,0.4,1.1h5.9v0.9h-13.3v-0.9h6.2C673.2,238.7,673,238.3,672.8,237.9z M670,240.8l1-0.6c0.1,0.1,0.2,0.3,0.3,0.5
	c0.4,0.5,0.8,1,1.1,1.5l-1,0.7C671,242.1,670.5,241.4,670,240.8z"/>
<rect x="603.8" y="228.7" class="st5" width="20" height="2"/>
<rect x="602.8" y="228.7" class="st5" width="2" height="29"/>
<rect x="622.8" y="228.7" class="st5" width="2" height="29"/>
<rect x="607.8" y="232.7" class="st5" width="12" height="2"/>
<rect x="607.8" y="236.7" class="st5" width="12" height="2"/>
<rect x="607.8" y="232.7" class="st5" width="2" height="6"/>
<rect x="617.8" y="232.7" class="st5" width="2" height="6"/>
<rect x="607.8" y="240.7" class="st5" width="12" height="2"/>
<rect x="607.8" y="244.7" class="st5" width="12" height="2"/>
<rect x="607.8" y="240.7" class="st5" width="2" height="6"/>
<rect x="617.8" y="240.7" class="st5" width="2" height="6"/>
<rect x="603.8" y="255.7" class="st5" width="20" height="2"/>
<circle class="st5" cx="613.8" cy="251.7" r="2"/>
<rect x="421.8" y="279.7" class="st3" width="137" height="50"/>
<path class="st4" d="M471.8,320.8h-28c-1.1,0-2-0.9-2-2v-28c0-1.1,0.9-2,2-2h28c1.1,0,2,0.9,2,2v28
	C473.8,319.9,472.9,320.8,471.8,320.8z"/>
<path class="st6" d="M483.5,300h1.2v10.9h-1.2V300z"/>
<path class="st6" d="M495.6,300v1h-3.8v9.9h-1.3V301h-3.9v-1H495.6z"/>
<path class="st6" d="M499.9,302c0,0.1,0.2,0.4,0.6,1c-1.1,0.7-2.2,1.6-3.4,2.5l-0.7-0.9C497.6,303.8,498.8,302.9,499.9,302z
	 M503.8,307.2c0,0.5-0.1,1-0.2,1.5c0.8,0.3,1.9,0.7,3.3,1.3c1.1,0.4,2,0.7,2.5,0.9l-0.5,1c-0.5-0.2-1.2-0.5-2.2-0.9
	c-1.5-0.6-2.7-1.1-3.6-1.4c-0.6,1-2.6,1.8-5.9,2.4c0-0.1-0.1-0.2-0.2-0.5c-0.1-0.2-0.2-0.3-0.3-0.5c3.6-0.5,5.5-1.3,5.8-2.4
	c0.2-0.5,0.2-1,0.2-1.5H503.8z M497.6,299.2c0.1,0.1,0.2,0.1,0.3,0.2c0.7,0.4,1.4,0.9,2,1.4l-0.7,0.8c-0.3-0.3-0.9-0.7-1.8-1.3
	c-0.2-0.2-0.4-0.3-0.5-0.4L497.6,299.2z M498.4,305.5h9.5v4h-1v-3.1h-7.5v3.2h-1V305.5z M500.4,302.3c0.9-0.9,1.6-2.1,2.1-3.3
	l1.1,0.2c-0.1,0.4-0.3,0.7-0.5,1h6.3v0.8l-1,1.8c-0.1,0-0.2-0.1-0.3-0.1c-0.2-0.1-0.4-0.2-0.6-0.3l0.7-1.4h-2.5v0.2
	c0,0.1-0.1,0.1-0.1,0.2c0.5,1.4,1.9,2.4,4.4,2.8c-0.2,0.3-0.4,0.5-0.6,0.8c0,0.1-0.1,0.1-0.1,0.2c-2.1-0.6-3.5-1.5-4.1-2.6
	c-0.6,1.1-2,2-4.2,2.5c-0.1-0.1-0.2-0.3-0.5-0.7c-0.1-0.1-0.1-0.2-0.2-0.2c2.9-0.6,4.3-1.7,4.3-3.3h-1.9c-0.4,0.6-0.8,1.2-1.3,1.8
	C501,302.6,500.7,302.5,500.4,302.3L500.4,302.3z"/>
<path class="st6" d="M512.3,304.4h6.5c0.6-0.8,1.2-1.7,1.7-2.6l1,0.7c-0.6,0.8-1.1,1.5-1.5,2h4.1v0.9h-10.6v0.9
	c0.2,2.1-0.4,4.2-1.8,5.8c-0.2-0.3-0.5-0.5-0.7-0.9c1.1-0.9,1.5-2.6,1.5-4.9V304.4z M516.8,299.4l1.1-0.3c0.1,0.1,0.1,0.3,0.2,0.4
	c0.2,0.5,0.3,0.9,0.4,1.1h5.9v0.9h-13.3v-0.9h6.2C517.2,300.2,517,299.8,516.8,299.4z M514,302.3l1-0.6c0.1,0.1,0.2,0.3,0.3,0.5
	c0.4,0.5,0.8,1,1.1,1.5l-1,0.7C515,303.6,514.5,302.9,514,302.3z"/>
<rect x="447.8" y="290.2" class="st5" width="20" height="2"/>
<rect x="446.8" y="290.2" class="st5" width="2" height="29"/>
<rect x="466.8" y="290.2" class="st5" width="2" height="29"/>
<rect x="451.8" y="294.2" class="st5" width="12" height="2"/>
<rect x="451.8" y="298.2" class="st5" width="12" height="2"/>
<rect x="451.8" y="294.2" class="st5" width="2" height="6"/>
<rect x="461.8" y="294.2" class="st5" width="2" height="6"/>
<rect x="451.8" y="302.2" class="st5" width="12" height="2"/>
<rect x="451.8" y="306.2" class="st5" width="12" height="2"/>
<rect x="451.8" y="302.2" class="st5" width="2" height="6"/>
<rect x="461.8" y="302.2" class="st5" width="2" height="6"/>
<rect x="447.8" y="317.2" class="st5" width="20" height="2"/>
<circle class="st5" cx="457.8" cy="313.2" r="2"/>
<rect x="577.8" y="279.7" class="st3" width="137" height="50"/>
<path class="st4" d="M627.8,320.8h-28c-1.1,0-2-0.9-2-2v-28c0-1.1,0.9-2,2-2h28c1.1,0,2,0.9,2,2v28
	C629.8,319.9,628.9,320.8,627.8,320.8z"/>
<path class="st6" d="M639.5,300h1.2v10.9h-1.2V300z"/>
<path class="st6" d="M651.6,300v1h-3.8v9.9h-1.3V301h-3.9v-1H651.6z"/>
<path class="st6" d="M655.9,302c0,0.1,0.2,0.4,0.6,1c-1.1,0.7-2.2,1.6-3.4,2.5l-0.7-0.9C653.6,303.8,654.8,302.9,655.9,302z
	 M659.8,307.2c0,0.5-0.1,1-0.2,1.5c0.8,0.3,1.9,0.7,3.3,1.3c1.1,0.4,2,0.7,2.5,0.9l-0.5,1c-0.5-0.2-1.2-0.5-2.2-0.9
	c-1.5-0.6-2.7-1.1-3.6-1.4c-0.6,1-2.6,1.8-5.9,2.4c0-0.1-0.1-0.2-0.2-0.5c-0.1-0.2-0.2-0.3-0.3-0.5c3.6-0.5,5.5-1.3,5.8-2.4
	c0.2-0.5,0.2-1,0.2-1.5H659.8z M653.6,299.2c0.1,0.1,0.2,0.1,0.3,0.2c0.7,0.4,1.4,0.9,2,1.4l-0.7,0.8c-0.3-0.3-0.9-0.7-1.8-1.3
	c-0.2-0.2-0.4-0.3-0.5-0.4L653.6,299.2z M654.4,305.5h9.5v4h-1v-3.1h-7.5v3.2h-1V305.5z M656.4,302.3c0.9-0.9,1.6-2.1,2.1-3.3
	l1.1,0.2c-0.1,0.4-0.3,0.7-0.5,1h6.3v0.8l-1,1.8c-0.1,0-0.2-0.1-0.3-0.1c-0.2-0.1-0.4-0.2-0.6-0.3l0.7-1.4h-2.5v0.2
	c0,0.1-0.1,0.1-0.1,0.2c0.5,1.4,1.9,2.4,4.4,2.8c-0.2,0.3-0.4,0.5-0.6,0.8c0,0.1-0.1,0.1-0.1,0.2c-2.1-0.6-3.5-1.5-4.1-2.6
	c-0.6,1.1-2,2-4.2,2.5c-0.1-0.1-0.2-0.3-0.5-0.7c-0.1-0.1-0.1-0.2-0.2-0.2c2.9-0.6,4.3-1.7,4.3-3.3h-1.9c-0.4,0.6-0.8,1.2-1.3,1.8
	C657,302.6,656.7,302.5,656.4,302.3z"/>
<path class="st6" d="M668.3,304.4h6.5c0.6-0.8,1.2-1.7,1.7-2.6l1,0.7c-0.6,0.8-1.1,1.5-1.5,2h4.1v0.9h-10.6v0.9
	c0.2,2.1-0.4,4.2-1.8,5.8c-0.2-0.3-0.5-0.5-0.7-0.9c1.1-0.9,1.5-2.6,1.5-4.9V304.4z M672.8,299.4l1.1-0.3c0.1,0.1,0.1,0.3,0.2,0.4
	c0.2,0.5,0.3,0.9,0.4,1.1h5.9v0.9h-13.3v-0.9h6.2C673.2,300.2,673,299.8,672.8,299.4z M670,302.3l1-0.6c0.1,0.1,0.2,0.3,0.3,0.5
	c0.4,0.5,0.8,1,1.1,1.5l-1,0.7C671,303.6,670.5,302.9,670,302.3z"/>
<rect x="603.8" y="290.2" class="st5" width="20" height="2"/>
<rect x="602.8" y="290.2" class="st5" width="2" height="29"/>
<rect x="622.8" y="290.2" class="st5" width="2" height="29"/>
<rect x="607.8" y="294.2" class="st5" width="12" height="2"/>
<rect x="607.8" y="298.2" class="st5" width="12" height="2"/>
<rect x="607.8" y="294.2" class="st5" width="2" height="6"/>
<rect x="617.8" y="294.2" class="st5" width="2" height="6"/>
<rect x="607.8" y="302.2" class="st5" width="12" height="2"/>
<rect x="607.8" y="306.2" class="st5" width="12" height="2"/>
<rect x="607.8" y="302.2" class="st5" width="2" height="6"/>
<rect x="617.8" y="302.2" class="st5" width="2" height="6"/>
<rect x="603.8" y="317.2" class="st5" width="20" height="2"/>
<circle class="st5" cx="613.8" cy="313.2" r="2"/>
<text transform="matrix(1 0 0 1 422.0498 26.2959)" class="st5 st7 st8">资产组1</text>
<text transform="matrix(1 0 0 1 422.0499 207.2959)" class="st5 st7 st8">资产组2</text>
<g>
	<g class="st9">
		<path class="st6" d="M138.1,190l3.3,0l4.1-0.1c-0.2,0.4-0.3,0.7-0.4,1.1l-3.8,0.1l-3.2,0c-1.8,0-3.1-0.6-3.8-1.6
			c-0.6,0.5-1.1,1.1-1.7,1.8L132,190c0.7-0.6,1.3-1.2,1.8-1.6v-4.7H132v-1h2.8v5.9C135.6,189.5,136.6,189.9,138.1,190z M133.5,178.1
			c0.6,0.7,1.2,1.5,1.9,2.4c-0.3,0.2-0.7,0.4-1,0.6c-0.6-0.9-1.1-1.7-1.8-2.5L133.5,178.1z M136.2,180.5h2.7c0-0.9,0-1.7,0-2.4h1.1
			c0,0.7,0,1.5-0.1,2.4h4.6c-0.1,2.7-0.2,4.7-0.3,6c-0.1,1.6-0.8,2.3-2.1,2.3c-0.7,0-1.4,0-2.2-0.1c-0.1-0.4-0.1-0.8-0.2-1.2
			c0.9,0.1,1.6,0.1,2.1,0.1c0.8,0,1.2-0.4,1.3-1.3c0.1-1.3,0.2-2.9,0.3-4.8h-3.5c-0.1,3.6-1.3,6.1-3.8,7.5c-0.2-0.3-0.5-0.6-0.8-0.9
			c2.2-1.2,3.4-3.5,3.5-6.6h-2.7V180.5z"/>
		<path class="st6" d="M158.1,178.6v6.5h-1v-0.5h-2.8c1.3,1.1,3,1.9,5.3,2.4c-0.3,0.4-0.5,0.8-0.7,1.1c-1.1-0.4-2.2-0.8-3.1-1.3v4.5
			h-1.1v-4.8h0.7c-0.9-0.6-1.6-1.2-2.3-1.9h-0.5c-0.7,0.7-1.5,1.3-2.4,1.9h0.8c0,1.4-0.2,2.4-0.7,3c-0.4,0.7-1.3,1.3-2.5,1.9
			c-0.2-0.3-0.5-0.6-0.8-0.9c1.2-0.5,2-1.1,2.4-1.6c0.3-0.4,0.5-1.2,0.5-2.3c-0.9,0.6-2,1.1-3.1,1.6c-0.2-0.3-0.4-0.6-0.7-0.9
			c2.2-0.8,3.9-1.7,5.2-2.7h-2.7v0.5h-1v-6.5H158.1z M148.4,181.2h3.8v-1.7h-3.8V181.2z M148.4,183.8h3.8v-1.7h-3.8V183.8z
			 M157.1,179.5h-3.8v1.7h3.8V179.5z M153.3,183.8h3.8v-1.7h-3.8V183.8z"/>
		<path class="st6" d="M160,186.7c1-1.5,1.7-3.2,2.1-4.9h-2v-1h2V178h1v2.7h1.6v1H163v2.4l0.4-0.5c0.6,0.5,1.1,1,1.6,1.5l-0.7,0.7
			c-0.4-0.5-0.9-0.9-1.4-1.4v7h-1v-7.2c-0.5,1.5-1,2.7-1.6,3.6C160.3,187.5,160.1,187.1,160,186.7z M164.3,188
			c1.8-0.9,3.3-2.1,4.6-3.3c-0.9,0.1-1.7,0.2-2.5,0.3c-0.3,0-0.7,0.1-0.9,0.2l-0.5-1c0.4-0.2,0.7-0.4,0.9-0.7
			c0.6-0.7,1.1-1.5,1.7-2.4h-2.6v-1h4.2c-0.4-0.6-0.7-1.1-1-1.5l0.9-0.6c0.3,0.4,0.7,1,1.2,1.6l-0.7,0.5h4.2v1h-4.8
			c-0.7,1-1.4,2-2.1,2.9c1-0.1,2-0.1,3-0.2c0.5-0.6,1-1.3,1.4-2.1l1,0.5c-1.6,2.7-3.9,5-7,6.7C164.8,188.5,164.5,188.2,164.3,188z
			 M164.7,190.6c3.1-1.3,5.7-3.5,7.7-6.4l0.9,0.6c-0.8,1.1-1.6,2.1-2.6,3c1,0.9,2,1.7,3,2.5l-0.8,0.9c-0.9-0.8-1.8-1.8-2.9-2.7
			c-1.4,1.2-2.9,2.2-4.6,3C165.2,191.3,165,191,164.7,190.6z"/>
		<path class="st6" d="M175.5,182.1l1.1,0.3c-0.4,1.9-0.9,3.8-1.5,5.7l-1.1-0.4C174.6,185.9,175.1,184.1,175.5,182.1z M177.5,180.6
			h1.1v8c0,0.8,0.4,1.2,1.1,1.2h2.9c0.8,0,1.2-0.3,1.3-1c0.1-0.6,0.2-1.3,0.3-2.1c0.4,0.2,0.8,0.3,1.2,0.4c-0.1,1-0.3,1.7-0.4,2.1
			c-0.2,1-1,1.5-2.2,1.5h-3.4c-1.3,0-2-0.7-2-2.1V180.6z M180.5,177.9c0.9,1.4,1.6,2.7,2.2,3.9c-0.4,0.2-0.8,0.4-1.1,0.6
			c-0.6-1.4-1.3-2.7-2.1-4L180.5,177.9z M185.2,181.7c0.8,1.5,1.6,3.1,2.4,5l-1.1,0.6c-0.7-1.8-1.5-3.5-2.3-5.1L185.2,181.7z"/>
		<path class="st6" d="M196.9,183.8l1.1,0.5c-0.7,1.5-1.5,2.8-2.4,3.8c1.4,1,3.3,1.7,5.8,2.2c-0.3,0.5-0.6,0.8-0.8,1.1
			c-2.4-0.6-4.4-1.5-5.8-2.6c-1.3,1-3.2,1.9-6,2.7c-0.2-0.3-0.4-0.7-0.7-1.1c2.6-0.6,4.5-1.4,5.8-2.4c-0.9-0.9-1.7-2.1-2.3-3.6
			l0.9-0.5c0.6,1.4,1.4,2.5,2.3,3.4C195.6,186.5,196.3,185.3,196.9,183.8z M188.2,180h6.4c-0.2-0.4-0.5-1-0.9-1.6l1-0.5
			c0.4,0.5,0.7,1.1,1,1.7L195,180h6.4v1h-13.1V180z M192.2,181.7l0.9,0.7c-1.3,1.3-2.6,2.5-4,3.6c-0.2-0.3-0.5-0.6-0.8-0.9
			C189.7,184.1,191,183,192.2,181.7z M197.1,181.6c1.7,1.3,3,2.4,3.9,3.3c-0.3,0.3-0.5,0.6-0.8,0.9c-1-1.1-2.3-2.2-3.8-3.5
			L197.1,181.6z"/>
		<path class="st6" d="M202,185.2c0.5-0.2,1.1-0.3,1.7-0.5v-3.2h-1.6v-0.9h1.6v-2.5h1v2.5h1.5v0.9h-1.5v2.8c0.5-0.2,0.9-0.3,1.4-0.5
			c0,0.4,0,0.8,0,1.1c-0.1,0-0.6,0.2-1.4,0.5v4.4c0,0.9-0.4,1.4-1.3,1.4c-0.4,0-0.9,0-1.4,0c-0.1-0.4-0.1-0.8-0.2-1.1
			c0.5,0.1,0.9,0.1,1.3,0.1c0.3,0,0.5-0.2,0.5-0.6v-3.9c-0.5,0.2-1,0.4-1.6,0.6L202,185.2z M205.8,186.3h1.2v-3.7
			c-0.2-0.2-0.5-0.4-0.8-0.6c1.2-1.2,2.2-2.6,2.9-4.1l1.1,0.2c-0.2,0.4-0.5,0.9-0.7,1.3h4.1v0.9c-0.3,0.4-0.9,1.1-1.6,1.9h2.4v4.1
			h1.1v0.9h-4.2c0.7,1.6,2.1,2.6,4.2,3c-0.3,0.4-0.6,0.8-0.8,1.1c-1.9-0.6-3.2-1.8-4-3.4c-0.5,1.4-2,2.6-4.6,3.5
			c-0.2-0.3-0.5-0.7-0.8-1c2.6-0.8,4.1-1.9,4.5-3.2h-4.1V186.3z M212.4,180.3h-3.5c-0.5,0.7-0.9,1.3-1.5,1.9h3.4
			C211.5,181.5,212,180.8,212.4,180.3z M208,186.3h2.1c0.1-0.5,0.1-1.5,0.1-3.2H208V186.3z M213.5,183.1h-2.3c0,1.2,0,2.2-0.1,3.2
			h2.4V183.1z"/>
		<path class="st6" d="M215.9,186.5c1-1.5,1.7-3.2,2.2-4.9h-2v-0.9h2.1V178h1v2.7h1.9v0.9h-1.9v2.3l0.5-0.5c0.7,0.6,1.3,1.2,1.7,1.6
			l-0.7,0.8c-0.6-0.6-1-1.1-1.5-1.5v7.2h-1V184c-0.5,1.5-1.1,2.8-1.8,3.7C216.2,187.3,216.1,186.9,215.9,186.5z M223.1,179.9v4.5
			c0,3.3-0.8,5.6-2.4,7.1c-0.3-0.3-0.5-0.6-0.8-0.9c1.4-1.3,2.2-3.2,2.2-5.9v-5.8h5.1v10.3c0,0.5,0.2,0.7,0.5,0.7h0.3
			c0.3,0,0.5-0.3,0.6-0.8c0.1-0.7,0.2-1.5,0.2-2.3c0.3,0.2,0.7,0.3,1,0.4c-0.1,0.9-0.2,1.6-0.2,2.2c-0.1,1-0.6,1.4-1.4,1.4h-0.7
			c-0.9,0-1.3-0.5-1.3-1.6v-9.4H223.1z"/>
	</g>
</g>
<g>
	<g class="st9">
		<path class="st6" d="M132.1,85.7h6.1v-5.7h-5.4v-1.1h12.1v1.1h-5.5v5.7h6.1v1.1h-6.1v5h-1.1v-5h-6.1V85.7z M133.4,81.5l0.9-0.6
			c1,1.2,1.9,2.3,2.6,3.5l-1,0.7C135.3,83.9,134.4,82.7,133.4,81.5z M140.4,84.3c1-1.1,1.9-2.2,2.7-3.5l1,0.7c-1,1.4-2,2.6-2.9,3.6
			L140.4,84.3z"/>
		<path class="st6" d="M155.6,80c1.4,1.3,2.8,2.7,4.1,4.1l-1,0.8c-0.4-0.4-0.7-0.8-1.1-1.3c-4.1,0.2-7.2,0.3-9.4,0.4
			c-0.5,0-1,0.1-1.4,0.2l-0.5-1.2c0.4-0.2,0.8-0.4,1.1-0.6c1.6-1.3,3-2.7,4.3-4.4l1,0.6c-1.4,1.6-2.8,3-4.3,4.3
			c2.8-0.1,5.5-0.2,8.2-0.3c-0.6-0.7-1.3-1.3-1.9-2L155.6,80z M157.6,85.5v6.2h-1.1v-0.9H149v0.9h-1.1v-6.2H157.6z M156.5,86.5H149
			v3.3h7.5V86.5z"/>
		<path class="st6" d="M168.5,86h-3v3h-1v-3h-3v-1h3v-3h1v3h3V86z"/>
		<path class="st6" d="M170.9,82c0.9,0.6,1.8,1.2,2.7,1.8c-0.3,0.3-0.5,0.6-0.7,0.9c-0.8-0.7-1.7-1.3-2.6-1.9L170.9,82z M172.6,86
			c0.4,0.2,0.7,0.4,1.1,0.5c-0.4,1.2-1,2.9-1.7,5l-1.2-0.6C171.4,89.5,172,87.9,172.6,86z M171.7,78.4c0.9,0.6,1.8,1.2,2.6,1.9
			c-0.3,0.3-0.6,0.7-0.8,0.9c-0.8-0.7-1.6-1.4-2.5-2.1L171.7,78.4z M173.4,90.7c3.9-0.9,6.9-2.9,8.8-5.8l1,0.7
			c-2.2,3.1-5.3,5.2-9.2,6.2C173.8,91.4,173.6,91.1,173.4,90.7z M173.9,85.2c0.9-1.4,1.7-3,2.3-4.6l1.1,0.5c-0.9,2-1.7,3.5-2.5,4.8
			C174.5,85.6,174.2,85.4,173.9,85.2z M178.2,78.2h1.1v9.1h-1.1V78.2z M180.4,81.1l0.8-0.6c1,1.2,1.9,2.3,2.7,3.4l-1,0.7
			C182.2,83.4,181.3,82.2,180.4,81.1z"/>
		<path class="st6" d="M188.8,82.3c-0.4-0.5-0.8-1-1.1-1.4l0.6-0.5h-1.4c-0.5,0.7-1.2,1.4-1.8,2c-0.2-0.2-0.4-0.5-0.7-0.7
			c1.1-0.9,2-2.1,2.7-3.5h1.2c-0.2,0.5-0.5,0.9-0.8,1.4h4v0.8h-3c0.3,0.3,0.7,0.7,1.1,1.2L188.8,82.3z M184.3,88.8
			c1.1-1.4,1.9-2.8,2.3-4.1h-2v-0.9h2.1V82h1v1.9h1.8v0.9h-1.8v1.6l0.5-0.5c0.7,0.6,1.2,1.1,1.7,1.6l-0.7,0.7c-0.5-0.5-1-1-1.5-1.5
			v5.1h-1v-5.3c-0.5,1.3-1.2,2.5-2,3.5C184.7,89.6,184.5,89.3,184.3,88.8z M190.4,82.6h6.7v9.1h-1v-0.8h-4.7v0.8h-1V82.6z
			 M194.9,82.5c-0.4-0.5-0.8-1-1.2-1.4l0.7-0.5H193c-0.4,0.7-0.8,1.3-1.3,1.8c-0.2-0.2-0.5-0.4-0.8-0.7c0.8-0.8,1.5-1.9,2-3.3h1.2
			c-0.2,0.5-0.4,0.9-0.7,1.4h4.3v0.8h-3.3c0.5,0.5,0.9,0.9,1.3,1.4L194.9,82.5z M196,83.5h-4.7v1.6h4.7V83.5z M191.4,87.5h4.7V86
			h-4.7V87.5z M191.4,90h4.7v-1.6h-4.7V90z"/>
		<path class="st6" d="M206.8,86h-3v3h-1v-3h-3v-1h3v-3h1v3h3V86z"/>
		<path class="st6" d="M208.7,85.6c0.6-0.2,1.2-0.3,1.8-0.5V82h-1.7v-1h1.7v-2.6h1V81h1.4v1h-1.4v2.8c0.4-0.1,0.8-0.3,1.3-0.4
			c0,0.4,0,0.8,0.1,1.1c-0.4,0.1-0.9,0.3-1.3,0.4v4.2c0,1-0.4,1.5-1.3,1.5c-0.3,0-0.8,0-1.3,0c0-0.4-0.1-0.8-0.2-1.1
			c0.5,0.1,0.9,0.1,1.2,0.1c0.4,0,0.5-0.2,0.5-0.7v-3.6c-0.6,0.2-1.1,0.4-1.7,0.6L208.7,85.6z M222.5,89.7c-0.3,0.3-0.5,0.7-0.7,1
			c-1.5-1-2.7-2.5-3.6-4.5v5.6h-1v-5.5c-1,1.8-2.3,3.4-4,4.6c-0.2-0.3-0.5-0.6-0.8-0.8c1.5-0.9,2.8-2.3,3.8-4h-3v-0.9h3.9v-1.7h1
			v1.7h4V86H219C219.9,87.7,221,89,222.5,89.7z M213.5,79.3h8.4v2.3h-1v-1.4h-6.5v1.4h-1V79.3z M215.9,81l0.9,0.6
			c-0.6,0.8-1.4,1.8-2.5,2.9c-0.2-0.2-0.5-0.4-0.8-0.7C214.4,83,215.2,82.1,215.9,81z M218.2,81.7l0.7-0.7c1.1,0.9,2,1.7,2.9,2.6
			l-0.8,0.8C220.1,83.3,219.1,82.4,218.2,81.7z"/>
		<path class="st6" d="M222.8,85.5h2.3v-1.7h-1.1V83c-0.2,0.4-0.4,0.8-0.7,1.1c-0.2-0.4-0.5-0.7-0.7-1c0.9-1.4,1.5-3,2-4.9l1.1,0.3
			c-0.2,0.6-0.4,1.1-0.5,1.7h3.6v1h-4c-0.2,0.5-0.4,1-0.6,1.4h3.9v1h-1.9v1.7h2.5v1h-2.5v3.2c1.1-0.6,1.9-1.1,2.4-1.4
			c0.1,0.4,0.1,0.8,0.2,1.1c-0.6,0.3-1.4,0.8-2.6,1.6c-0.3,0.2-0.6,0.5-0.8,0.6l-0.7-0.9c0.3-0.3,0.5-0.7,0.5-1.1v-3.1h-2.3V85.5z
			 M228.7,83h3.2v-4.7h1.1V83h3.3v1.1h-3.3v7.7H232v-7.7h-3.2V83z"/>
	</g>
</g>
</svg>
