<?xml version="1.0" encoding="UTF-8"?>
<svg width="820px" height="164px" viewBox="0 0 820 164" version="1.1" xmlns="http://www.w3.org/2000/svg" xmlns:xlink="http://www.w3.org/1999/xlink">
    <!-- Generator: Sketch 59.1 (86144) - https://sketch.com -->
    <title>To_B企业用车服务_820*164</title>
    <desc>Created with Sketch.</desc>
    <defs>
        <linearGradient x1="95.5361053%" y1="100.741285%" x2="4.46473684%" y2="-0.741285491%" id="linearGradient-1">
            <stop stop-color="#0063FF" offset="0%"></stop>
            <stop stop-color="#00C8DE" offset="100%"></stop>
        </linearGradient>
        <linearGradient x1="96.1386998%" y1="100.277148%" x2="3.85399262%" y2="-0.285746243%" id="linearGradient-2">
            <stop stop-color="#0063FF" offset="0.00263935811%"></stop>
            <stop stop-color="#00C8DE" offset="100%"></stop>
        </linearGradient>
        <linearGradient x1="95.5361053%" y1="105.434543%" x2="4.46473684%" y2="-5.43454303%" id="linearGradient-3">
            <stop stop-color="#0063FF" offset="0%"></stop>
            <stop stop-color="#00C8DE" offset="100%"></stop>
        </linearGradient>
        <linearGradient x1="96.1386998%" y1="104.547298%" x2="3.85399262%" y2="-4.5566262%" id="linearGradient-4">
            <stop stop-color="#0063FF" offset="0.00263935811%"></stop>
            <stop stop-color="#00C8DE" offset="100%"></stop>
        </linearGradient>
        <linearGradient x1="95.5361053%" y1="74.3425633%" x2="4.46473684%" y2="25.6574367%" id="linearGradient-5">
            <stop stop-color="#0063FF" offset="0%"></stop>
            <stop stop-color="#00C8DE" offset="100%"></stop>
        </linearGradient>
        <linearGradient x1="96.1386998%" y1="77.1332519%" x2="3.85399262%" y2="22.8621078%" id="linearGradient-6">
            <stop stop-color="#0063FF" offset="0.00263935811%"></stop>
            <stop stop-color="#00C8DE" offset="100%"></stop>
        </linearGradient>
    </defs>
    <g id="To_B企业用车服务_820*164" stroke="none" stroke-width="1" fill="none" fill-rule="evenodd">
        <rect id="矩形备份-5" fill="#D8D8D8" opacity="0" x="0" y="0" width="820" height="140"></rect>
        <g id="商务出行" transform="translate(20.000000, 0.000000)">
            <rect id="矩形备份-6" fill="#FFFFFF" opacity="0" x="0" y="0" width="140" height="140"></rect>
            <g id="编组-2" transform="translate(13.000000, 16.000000)" fill-rule="nonzero">
                <path d="M106.272314,34.1824658 C106.752034,34.1848551 107.186213,34.3798273 107.500968,34.6943201 C107.814573,35.0076646 108.009535,35.4397483 108.011925,35.9174658 L108.011925,101.788731 C108.008941,102.266668 107.81366,102.698885 107.499828,103.012456 C107.184849,103.327174 106.750539,103.522466 106.270601,103.525449 L6.06180061,103.525449 C5.58186332,103.522466 5.14755336,103.327174 4.83257396,103.012456 C4.51874214,102.698885 4.32346061,102.266668 4.320477,101.788731 L4.320477,35.9174658 C4.32286703,35.4397483 4.51782934,35.0076646 4.83143439,34.6943201 C5.14618859,34.3798273 5.58036783,34.1848551 6.06008772,34.1824658 L106.272314,34.1824658 Z M21.3011454,4.3204773 L92.0721191,4.3204773 C93.7375188,4.32471089 95.0974594,5.64101942 95.1931739,7.30058854 L95.1985477,7.47966889 L95.198477,30.8284773 L87.618477,30.8284773 L87.619327,13.2675312 C87.6172403,11.9085398 86.5710111,10.7970715 85.2478584,10.7083852 L85.0810775,10.7026824 L28.2882396,10.7026824 C26.9492382,10.7068584 25.8534848,11.7568596 25.760308,13.0877904 L25.7539376,13.2555646 L25.753477,30.8284773 L18.174477,30.8284773 L18.1747169,7.47966889 C18.1789065,5.79681688 19.481564,4.42262496 21.1239223,4.32590746 L21.3011454,4.3204773 L92.0721191,4.3204773 Z" id="形状结合" fill="url(#linearGradient-1)" opacity="0.2"></path>
                <g id="白色底" transform="translate(47.590176, 38.897189)" fill="#FFFFFF">
                    <polygon id="路径" points="8.56619209 59.9096072 -3.90798505e-14 51.3505305 4.28309604 21.3976918 12.8492881 21.3976918 17.1323842 51.3505305"></polygon>
                    <polygon id="路径" points="12.8492881 12.8386151 4.28309604 12.8386151 -3.90798505e-14 9.41469125e-14 17.1323842 9.41469125e-14"></polygon>
                </g>
                <path d="M92.0758497,-1.05160325e-12 L92.3767037,0.00648591409 C94.2701415,0.0852374208 96.0330917,0.876856029 97.3514564,2.20903639 C98.7261591,3.59814515 99.5140406,5.47217188 99.5190247,7.47970083 L99.5188593,29.8615183 L106.280832,29.8619913 C107.905549,29.866673 109.428466,30.5126775 110.554737,31.6380124 C111.681125,32.7634651 112.327761,34.2854005 112.332402,35.9104818 L112.332402,101.799162 C112.326608,103.42238 111.679677,104.943618 110.553597,106.068763 C109.42759,107.193835 107.905298,107.840139 106.279294,107.845926 L6.05139839,107.845926 C4.42710409,107.840139 2.90481208,107.193835 1.77880497,106.068763 C0.652724582,104.943618 0.00579382449,103.42238 0,101.797449 L0,35.9091101 C0.00464136079,34.2854005 0.651277123,32.7634651 1.7776654,31.6380124 C2.90393966,30.5126737 4.42686348,29.8666688 6.05293756,29.8619892 L13.8535122,29.8614923 L13.8542532,7.46891251 C13.859043,5.54504968 14.5903262,3.7354158 15.8748533,2.36179422 C17.2062601,0.938041465 19.0381843,0.0842815967 21.0327158,0.00543742684 L92.0758497,-1.05160325e-12 Z M99.994,30.821 L99.9947507,30.8291378 L13.5852107,30.8291378 L13.585,30.821 L6.05435019,30.8220932 C4.68571287,30.8260335 3.40493919,31.3693214 2.45628073,32.3171919 C1.50766622,33.2650185 0.964010738,34.5445773 0.960102945,35.9104818 L0.960102945,101.795736 C0.964979777,103.162768 1.50895294,104.441904 2.4574203,105.389584 C3.40596579,106.337342 4.68637137,106.88095 6.05310764,106.885823 L106.277585,106.885823 C107.646031,106.88095 108.926436,106.337342 109.874982,105.389584 C110.823449,104.441904 111.367422,103.162768 111.372298,101.797449 L111.372298,35.9118534 C111.368391,34.5445773 110.824736,33.2650185 109.876121,32.3171919 C108.927466,31.3693246 107.646698,30.826037 106.279415,30.8220953 L99.994,30.821 Z M61.2720466,59.3347745 L65.7409991,90.5873576 L56.1563684,100.164027 L46.5717376,90.5873576 L51.0406902,59.3347745 L61.2720466,59.3347745 Z M59.6068823,61.2549865 L52.7058545,61.2549865 L48.608615,89.9080808 L56.1563684,97.4495648 L63.7041218,89.9080808 L59.6068823,61.2549865 Z M66.0549866,37.9370827 L61.1312878,52.6959098 L51.181449,52.6959098 L46.2577502,37.9370827 L66.0549866,37.9370827 Z M63.3901343,39.8572947 L48.9226024,39.8572947 L52.5650957,50.7756978 L59.7476411,50.7756978 L63.3901343,39.8572947 Z M92.0750716,0.960105307 L21.0518048,0.965165203 C19.331054,1.03351208 17.7365822,1.77660833 16.5761119,3.01756851 C15.4557657,4.21562165 14.8185358,5.79251094 14.8143578,7.47012352 L14.813,29.869 L29.114,29.869 L29.1142643,14.0630534 L84.2589527,14.0630534 L84.258,29.869 L98.558,29.869 L98.5589202,7.48088946 C98.5545694,5.7289628 97.8680055,4.0959265 96.6690295,2.88438601 C95.4594014,1.66208175 93.8232284,0.96307245 92.0750716,0.960105307 Z M83.2988467,15.0231594 L30.0743703,15.0231594 L30.0743703,29.8612171 L83.2988467,29.8612171 L83.2988467,15.0231594 Z" id="形状结合" fill="url(#linearGradient-2)"></path>
            </g>
        </g>
        <g id="加班出行" transform="translate(340.000000, 0.000000)">
            <g id="编组-4">
                <rect id="矩形备份-7" fill="#FFFFFF" opacity="0" x="0" y="0" width="140" height="140"></rect>
                <g id="编组-3" transform="translate(11.500000, 12.500000)" fill-rule="nonzero">
                    <path d="M4.5,58 C4.5,43.2263829 10.4881915,29.8513829 20.1697872,20.1697872 C29.8513829,10.4881915 43.2263829,4.5 58,4.5 C72.7736171,4.5 86.1486171,10.4881915 95.8302128,20.1697872 C105.511809,29.8513829 111.5,43.2263829 111.5,58 C111.5,72.7736171 105.511809,86.1486171 95.8302128,95.8302128 C86.1486171,105.511809 72.7736171,111.5 58,111.5 C43.2263829,111.5 29.8513829,105.511809 20.1697872,95.8302128 C10.4881915,86.1486171 4.5,72.7736171 4.5,58 Z" id="椭圆形" fill="url(#linearGradient-3)" opacity="0.2"></path>
                    <g id="jiaban" transform="translate(62.500000, 29.500000)" fill="#FFFFFF">
                        <path d="M21.9528587,4.97385621 L17.3179492,4.97385621 L15.3864654,0.323529412 L13.4549817,4.97385621 L8.82007212,4.97385621 L12.6830396,8.0751634 L11.1391555,13.5 L15.774065,10.0130719 L20.021375,13.5 L18.0898912,8.0751634 L21.9528587,4.97385621 M10.3672134,20.4738562 L6.89184552,20.4738562 L5.73230384,16.9869281 L4.57276217,20.4738562 L0.709794684,20.4738562 L3.4132205,22.7973856 L2.25367882,26.6732026 L5.34470424,24.3496732 L8.43572966,26.6732026 L7.27618798,22.7973856 L10.3672134,20.4738562 M21.9528587,37.9117647 L19.2494329,37.9117647 L18.4774908,35.1993464 L17.3179492,37.9117647 L14.6145234,37.9117647 L16.5460071,39.4607843 L15.3864654,42.5620915 L18.4774908,40.624183 L20.793317,42.5620915 L19.6337754,39.4607843 L21.9528587,37.9117647" id="形状"></path>
                    </g>
                    <path d="M57.8062002,27.5 C41.9699878,29.0490196 30,42.2254902 30,58.5 C30,75.5490196 43.9047287,89.5 60.8972256,89.5 C70.5513872,89.5 80.5931484,84.8496732 86,77.875817 L81.75269,77.875817 C64.7601931,77.875817 50.8554644,63.9248366 50.8554644,46.875817 C50.8522073,39.5130719 53.5556331,32.9248366 57.8062002,27.5" id="路径" fill="#FFFFFF"></path>
                    <path d="M58,0 C90.0325155,0 116,25.9674845 116,58 C116,90.0325155 90.0325155,116 58,116 C25.9674845,116 0,90.0325155 0,58 C0,25.9674845 25.9674845,0 58,0 Z M58,1 C26.5197693,1 1,26.5197693 1,58 C1,89.4802307 26.5197693,115 58,115 C89.4802307,115 115,89.4802307 115,58 C115,26.5197693 89.4802307,1 58,1 Z M57.8062002,27.5 C53.5556331,32.9248366 50.8522073,39.5130719 50.8554644,46.875817 C50.8554644,63.7543464 64.483489,77.5964876 81.2438523,77.8716426 L81.75269,77.875817 L86,77.875817 C80.5931484,84.8496732 70.5513872,89.5 60.8972256,89.5 C43.9047287,89.5 30,75.5490196 30,58.5 C30,42.2254902 41.9699878,29.0490196 57.8062002,27.5 Z M53.4764478,30.2938941 C47.9387507,31.7358392 43.0935678,34.7549635 39.4146054,38.8564889 C34.7808054,44.0225237 32,50.9022645 32,58.5 C32,66.4752967 35.2538913,73.724997 40.4929862,78.9815189 C45.7296746,84.2356262 52.9516968,87.5 60.8972256,87.5 C68.3453972,87.5 76.0585028,84.5664084 81.3759786,79.8736706 C72.4775009,79.7722276 64.3962494,76.081543 58.5153311,70.1810628 C52.5539375,64.1998396 48.8554644,55.9495399 48.8554644,46.875817 C48.8527714,40.7886878 50.5811241,35.1945091 53.4764478,30.2938941 Z" id="形状结合" fill="url(#linearGradient-4)"></path>
                </g>
            </g>
        </g>
        <g id="更多" transform="translate(660.000000, 0.000000)">
            <g id="编组-6">
                <rect id="矩形备份-8" fill="#FFFFFF" opacity="0" x="0" y="0" width="140" height="140"></rect>
                <g id="更多" transform="translate(1.000000, 21.000000)">
                    <g>
                        <g id="面" transform="translate(5.940171, 7.354754)">
                            <path d="M85.4303093,38.7998661 L104.978797,50.1413655 L104.978797,72.8243641 L85.4303093,84.1658635 L65.8818213,72.8243641 L65.8818213,50.1413655 L85.4303093,38.7998661 Z M41.4730443,38.7998661 L61.0215323,50.1413655 L61.0215323,72.8243641 L41.4730443,84.1658635 L21.9245563,72.8243641 L21.9245563,50.1413655 L41.4730443,38.7998661 Z M63.5057529,0 L83.0542409,11.3414993 L83.0542409,34.024498 L63.5057529,45.3659973 L43.957265,34.024498 L43.957265,11.3414993 L63.5057529,0 Z M19.548488,0 L39.0969759,11.3414993 L39.0969759,34.024498 L19.548488,45.3659973 L-4.26325641e-14,34.024498 L-4.26325641e-14,11.3414993 L19.548488,0 Z M107.463018,0 L127.011506,11.3414993 L127.011506,34.024498 L107.463018,45.3659973 L87.9145299,34.024498 L87.9145299,11.3414993 L107.463018,0 Z" id="形状结合" fill="url(#linearGradient-5)" fill-rule="nonzero" opacity="0.2"></path>
                            <path d="M13.8856016,11.7467189 L25.3195266,11.7467189 C25.8718114,11.7467189 26.3195266,12.1944342 26.3195266,12.7467189 L26.3195266,15.6037471 L26.3195266,15.6037471 L31.0769231,15.6037471 C31.6292078,15.6037471 32.0769231,16.0514623 32.0769231,16.6037471 L32.0769231,31.9603736 C32.0769231,32.5126583 31.6292078,32.9603736 31.0769231,32.9603736 L8.12820513,32.9603736 C7.57592038,32.9603736 7.12820513,32.5126583 7.12820513,31.9603736 L7.12820513,16.6037471 C7.12820513,16.0514623 7.57592038,15.6037471 8.12820513,15.6037471 L12.8856016,15.6037471 L12.8856016,15.6037471 L12.8856016,12.7467189 C12.8856016,12.1944342 13.3333168,11.7467189 13.8856016,11.7467189 Z" id="路径" fill="#FFFFFF"></path>
                        </g>
                        <g id="白色辅助" transform="translate(35.641026, 17.905490)" fill="#FFFFFF" fill-rule="nonzero">
                            <path d="M33.8589744,25.2645248 C26.9693859,25.2645248 21.3846154,19.6524524 21.3846154,12.7291834 C21.3846154,5.80591436 26.9693859,0.193842035 33.8589744,0.193842035 C40.7485628,0.193842035 46.3333333,5.80591436 46.3333333,12.7291834 C46.3333333,19.6524524 40.7485628,25.2645248 33.8589744,25.2645248 Z" id="形状备份-2"></path>
                            <path d="M55.2435897,63.4674699 C48.3540013,63.4674699 42.7692308,57.8553976 42.7692308,50.9321285 C42.7692308,44.0088595 48.3540013,38.3967871 55.2435897,38.3967871 C62.1331782,38.3967871 67.7179487,44.0088595 67.7179487,50.9321285 C67.7179487,57.8553976 62.1331782,63.4674699 55.2435897,63.4674699 Z" id="形状备份"></path>
                            <path d="M86.6083355,21.5885857 C86.4576655,22.1100789 86.1779979,22.5752118 85.8070993,22.9479236 C85.2354934,23.5223238 84.445446,23.8789813 83.5683098,23.8789813 C82.6911736,23.8789813 81.9011262,23.5223238 81.3295203,22.9479236 C81.1356232,22.7530786 80.9666591,22.5329754 80.8280238,22.292766 L75.2115601,22.292766 C75.0729248,22.5329754 74.9039607,22.7530786 74.7100636,22.9479236 C74.1384577,23.5223238 73.3484103,23.8789813 72.4712741,23.8789813 C71.5941379,23.8789813 70.8040905,23.5223238 70.2324846,22.9479236 C69.8612635,22.5748877 69.5814322,22.1092701 69.4308557,21.5872255 C69.2335067,21.4500287 69.0490731,21.2952844 68.8798254,21.1252093 C68.161465,20.4033371 67.7179487,19.4065502 67.7179487,18.3093111 L67.7179487,6.36491854 C67.7179487,5.26767946 68.161465,4.27089251 68.8798254,3.54902028 C69.5981858,2.82714806 70.5901236,2.38146362 71.6820248,2.38146362 L72.5734581,2.38146362 C72.7171131,1.82389869 73.0071363,1.32696865 73.398991,0.933198318 C73.9705968,0.358798136 74.7606442,0.00214062962 75.6377804,0.00214062962 L80.3922944,0.00214062962 C81.2694307,0.00214062962 82.0594781,0.358798136 82.6310839,0.933198318 C83.0251757,1.32921673 83.31627,1.82957611 83.4590629,2.39101914 L84.3480501,2.39101914 C85.4399513,2.39101914 86.431889,2.83670358 87.1502495,3.5585758 C87.8686099,4.28044802 88.3121261,5.27723497 88.3121261,6.37447405 L88.3121261,18.3188666 C88.3121261,19.4200676 87.8692452,20.4122542 87.155004,21.1299871 C86.9871527,21.2986589 86.8042176,21.4522708 86.6083355,21.5885857 L86.6083355,21.5885857 Z" id="形状"></path>
                            <path d="M1.18803419,62.0819264 C0.531901024,62.0819264 -4.54747351e-13,61.4405249 -4.54747351e-13,60.649316 L-4.54747351e-13,49.1884325 C-4.54747351e-13,48.3972236 0.531901024,47.755822 1.18803419,47.755822 L8.316,47.7550857 L8.31623932,39.6096058 C8.31623932,38.8339108 8.94484962,38.2050857 9.72027972,38.2050857 L22.3566434,38.2050857 C23.1320735,38.2050857 23.7606838,38.8339108 23.7606838,39.6096058 L23.7606838,60.6774064 C23.7606838,61.4531014 23.1320735,62.0819264 22.3566434,62.0819264 L1.18803419,62.0819264 Z" id="形状结合"></path>
                        </g>
                        <path d="M69.4335807,-1.77635684e-13 L91.3716809,13.1823315 L113.393833,0.00158516262 L138.891848,14.7948378 L138.891848,44.3711807 L116.859139,57.1282342 L116.859139,83.1703528 L91.3703389,97.9582593 L69.4247652,85.219977 L47.4993369,97.9582593 L21.9245563,83.1715512 L21.9245563,57.1265382 L1.42108547e-14,44.3694847 L1.42108547e-14,14.7948378 L25.4890179,0.00680510059 L47.4967813,12.7905458 L69.4335807,-1.77635684e-13 Z M113.403189,1.38554344 L91.3704802,14.5726084 L69.4245026,1.38554344 L47.4979012,14.1701432 L25.4886589,1.38554344 L1.18803419,15.4841029 L1.18803419,43.6812217 L23.1125905,56.4382752 L23.1125905,82.4810878 L47.4979012,96.5796472 L69.4245026,83.8411306 L91.3704802,96.5796472 L115.671105,82.4810878 L115.671105,56.4382752 L137.703814,43.6812217 L137.703814,15.4841029 L113.403189,1.38554344 Z M56.4316239,58.4982597 C56.7596905,58.4982597 57.025641,58.7655103 57.025641,59.0951807 L57.025641,77.0028112 C57.025641,77.3324816 56.7596905,77.5997323 56.4316239,77.5997323 L38.6111111,77.5997323 C38.2830445,77.5997323 38.017094,77.3324816 38.017094,77.0028112 L38.017094,68.645917 C38.017094,68.3162466 38.2830445,68.048996 38.6111111,68.048996 L46.333094,68.0482597 L46.3333333,59.0951807 C46.3333333,58.7655103 46.5992838,58.4982597 46.9273504,58.4982597 L56.4316239,58.4982597 Z M55.8376068,59.6921017 L47.5213675,59.6921017 L47.5213675,76.4058902 L55.8376068,76.4058902 L55.8376068,59.6921017 Z M46.3333333,69.242838 L39.2051282,69.242838 L39.2051282,76.4058902 L46.3333333,76.4058902 L46.3333333,69.242838 Z M52.9615385,70.4366801 C53.2376808,70.4366801 53.4615385,70.6605377 53.4615385,70.9366801 L53.4615385,71.1305221 C53.4615385,71.4066645 53.2376808,71.6305221 52.9615385,71.6305221 L50.3974359,71.6305221 C50.1212935,71.6305221 49.8974359,71.4066645 49.8974359,71.1305221 L49.8974359,70.9366801 C49.8974359,70.6605377 50.1212935,70.4366801 50.3974359,70.4366801 L52.9615385,70.4366801 Z M83.7564103,67.0468554 C84.7365385,67.0468554 85.5384615,67.8526987 85.5384615,68.8376184 C85.5384615,69.8225381 84.7365385,70.6283815 83.7564103,70.6283815 C82.7762821,70.6283815 81.974359,69.8225381 81.974359,68.8376184 C81.974359,67.8526987 82.7762821,67.0468554 83.7564103,67.0468554 Z M98.0128205,67.0468554 C98.9929487,67.0468554 99.7948718,67.8526987 99.7948718,68.8376184 C99.7948718,69.8225381 98.9929487,70.6283815 98.0128205,70.6283815 C97.0326923,70.6283815 96.2307692,69.8225381 96.2307692,68.8376184 C96.2307692,67.8526987 97.0326923,67.0468554 98.0128205,67.0468554 Z M90.8846154,67.0468554 C91.8647436,67.0468554 92.6666667,67.8526987 92.6666667,68.8376184 C92.6666667,69.8225381 91.8647436,70.6283815 90.8846154,70.6283815 C89.9044872,70.6283815 89.1025641,69.8225381 89.1025641,68.8376184 C89.1025641,67.8526987 89.9044872,67.0468554 90.8846154,67.0468554 Z M52.9615385,66.8551539 C53.2376808,66.8551539 53.4615385,67.0790116 53.4615385,67.3551539 L53.4615385,67.548996 C53.4615385,67.8251384 53.2376808,68.048996 52.9615385,68.048996 L50.3974359,68.048996 C50.1212935,68.048996 49.8974359,67.8251384 49.8974359,67.548996 L49.8974359,67.3551539 C49.8974359,67.0790116 50.1212935,66.8551539 50.3974359,66.8551539 L52.9615385,66.8551539 Z M52.9615385,63.2736278 C53.2376808,63.2736278 53.4615385,63.4974855 53.4615385,63.7736278 L53.4615385,63.9674699 C53.4615385,64.2436123 53.2376808,64.4674699 52.9615385,64.4674699 L50.3974359,64.4674699 C50.1212935,64.4674699 49.8974359,64.2436123 49.8974359,63.9674699 L49.8974359,63.7736278 C49.8974359,63.4974855 50.1212935,63.2736278 50.3974359,63.2736278 L52.9615385,63.2736278 Z M70.0712539,21.2825283 L69.2663075,22.2815715 C68.0067675,23.8448243 67.3208145,25.6388545 67.3216784,27.537945 C67.3216784,32.1602327 71.2072844,35.9514481 75.9607349,35.9514481 L78.3419417,35.9514481 L77.6418478,36.8295852 C75.930443,38.9762231 72.7920673,40.3895171 69.7664837,40.3895171 C64.4261005,40.3895171 60.05206,36.1217324 60.05206,30.8953897 C60.05206,25.9304523 63.8034626,21.878736 68.7977522,21.4036669 L70.0712539,21.2825283 Z M116.03332,19.6983936 C116.798802,19.6983936 117.416586,20.3191982 117.416586,21.0884223 L117.416586,22.0872721 L119.989076,22.0872721 C121.191973,22.0872721 122.171101,23.0711863 122.171101,24.2799639 L122.171101,36.2243565 C122.171101,37.2260393 121.505263,38.0667465 120.592602,38.3254142 L120.592602,38.6036795 C120.592602,39.3729035 119.974817,39.9937082 119.209335,39.9937082 C118.443854,39.9937082 117.826069,39.3729035 117.826069,38.6036795 L117.826069,38.4074928 L109.495566,38.4074928 L109.495566,38.6036795 C109.495566,39.3729035 108.877782,39.9937082 108.1123,39.9937082 C107.346818,39.9937082 106.729033,39.3729035 106.729033,38.6036795 L106.729033,38.3248802 C105.813757,38.0642106 105.141026,37.2167545 105.141026,36.214801 L105.141026,24.2704084 C105.141026,23.0616308 106.120153,22.0777166 107.32305,22.0777166 L109.89554,22.0777166 L109.89554,21.0884223 C109.89554,20.3191982 110.513324,19.6983936 111.278806,19.6983936 L116.03332,19.6983936 Z M67.6616643,22.6843259 L67.3629733,22.7610664 C63.7077996,23.7684921 61.1274272,27.0169303 61.1274272,30.8953897 C61.1274272,35.5176775 65.0130332,39.3088928 69.7664837,39.3088928 C72.0288929,39.3088928 74.3733812,38.4210625 75.9588843,37.0320722 C70.6193413,37.0310864 66.2463112,32.763684 66.2463112,27.538192 C66.2455866,25.9453363 66.6685988,24.421634 67.4569886,23.0295647 L67.6616643,22.6843259 Z M109.893026,23.2713936 L107.32305,23.2715586 C106.776286,23.2715586 106.32906,23.7209715 106.32906,24.2704084 L106.32906,36.214801 C106.32906,36.7642379 106.776286,37.2136508 107.32305,37.2136508 L107.917068,37.2136508 L107.917068,38.6036795 C107.917068,38.7135628 108.002951,38.7998661 108.1123,38.7998661 C108.221648,38.7998661 108.307532,38.7135628 108.307532,38.6036795 L108.307532,37.2136508 L119.014103,37.2136508 L119.014103,38.6036795 C119.014103,38.7135628 119.099987,38.7998661 119.209335,38.7998661 C119.318684,38.7998661 119.404568,38.7135628 119.404568,38.6036795 L119.404568,37.2136508 L119.998585,37.2136508 C120.545349,37.2136508 120.983066,36.7737934 120.983066,36.2243565 L120.983066,24.2799639 C120.983066,23.730527 120.53584,23.2811141 119.989076,23.2811141 L116.228552,23.2811141 L116.228026,23.2793936 L109.893162,23.2799197 L109.893026,23.2713936 Z M29.1068376,21.4891566 C29.4349042,21.4891566 29.7008547,21.7564073 29.7008547,22.0860776 L29.7004444,25.0701566 L35.0470085,25.0706827 C35.3750751,25.0706827 35.6410256,25.3379334 35.6410256,25.6676037 L35.6410256,37.6060241 C35.6410256,37.9356945 35.3750751,38.2029451 35.0470085,38.2029451 L16.0384615,38.2029451 C15.710395,38.2029451 15.4444444,37.9356945 15.4444444,37.6060241 L15.4444444,25.6676037 C15.4444444,25.3379334 15.710395,25.0706827 16.0384615,25.0706827 L21.3844444,25.0701566 L21.3846154,22.0860776 C21.3846154,21.7564073 21.6505659,21.4891566 21.9786325,21.4891566 L29.1068376,21.4891566 Z M34.4524444,29.8451566 L30.8888889,29.8460509 L30.8888889,32.2337349 L29.7008547,32.2337349 L29.7008547,29.8460509 L21.3846154,29.8460509 L21.3846154,32.2337349 L20.1965812,32.2337349 L20.1965812,29.8460509 L16.6324444,29.8451566 L16.6324786,37.0091031 L34.4529915,37.0091031 L34.4524444,29.8451566 Z M75.5935926,32.6178193 L75.8296526,33.448569 L76.6563609,33.448569 L75.9471847,33.9229971 L76.3017728,34.8728543 L75.5935926,34.2793186 L74.6483563,34.8728543 L75.0029444,33.9229971 L74.4122963,33.448569 L75.2390045,33.448569 L75.5935926,32.6178193 Z M117.615385,26.2645248 L117.615385,33.427577 L116.42735,33.427577 L116.42735,26.2645248 L117.615385,26.2645248 Z M110.487179,26.2645248 L110.487179,33.427577 L109.299145,33.427577 L109.299145,26.2645248 L110.487179,26.2645248 Z M71.1493443,26.8063466 L71.4187834,27.6181287 L72.2263439,27.6181287 L71.5080919,28.1590632 L71.777531,29.0613815 L71.0592789,28.520447 L70.3410269,29.0613815 L70.610466,28.1590632 L69.9822793,27.6181287 L70.8799051,27.6181287 L71.1493443,26.8063466 Z M34.4529915,26.2645248 L16.6324786,26.2645248 L16.6324444,28.6521566 L34.4524444,28.6521566 L34.4529915,26.2645248 Z M28.5128205,22.6829987 L22.5726496,22.6829987 L22.5726496,25.0706827 L28.5128205,25.0706827 L28.5128205,22.6829987 Z M73.6882287,21.4891566 L74.018271,22.2850184 L74.810261,22.2850184 L74.1501765,22.8157794 L74.4802188,23.7441916 L73.7544598,23.1474351 L72.9624698,23.7441916 L73.2262809,22.8157794 L72.5661964,22.2850184 L73.3581865,22.2850184 L73.6882287,21.4891566 Z M116.03332,20.8922356 L111.278806,20.8922356 C111.169457,20.8922356 111.083574,20.978539 111.083574,21.0884223 L111.083026,22.0853936 L116.228026,22.0853936 L116.228552,21.0884223 C116.228552,20.978539 116.142669,20.8922356 116.03332,20.8922356 Z" id="形状结合" fill="url(#linearGradient-6)" fill-rule="nonzero"></path>
                    </g>
                </g>
            </g>
        </g>
        <path d="M66.396,158.248 L66.396,161.692 L71.59,161.692 L71.59,158.248 L66.396,158.248 Z M70.624,160.796 L67.362,160.796 L67.362,159.158 L70.624,159.158 L70.624,160.796 Z M70.358,155.518 L69.672,156.162 C70.876,157.044 71.814,157.884 72.5,158.668 L73.256,157.926 C72.472,157.128 71.506,156.33 70.358,155.518 Z M69.084,150.422 L67.978,150.604 C68.16,150.94 68.328,151.304 68.496,151.71 L62.798,151.71 L62.798,152.69 L65.71,152.69 C65.99,153.222 66.242,153.782 66.452,154.384 L63.498,154.384 L63.498,163.302 L64.464,163.302 L64.464,155.28 L73.508,155.28 L73.508,161.72 C73.508,162.196 73.312,162.448 72.92,162.448 L71.562,162.406 L71.814,163.33 L73.242,163.33 C74.054,163.33 74.474,162.868 74.474,161.944 L74.474,154.384 L71.366,154.384 C71.646,153.88 71.926,153.32 72.178,152.69 L75.202,152.69 L75.202,151.71 L69.574,151.71 C69.42,151.234 69.252,150.814 69.084,150.422 Z M67.502,154.384 C67.292,153.768 67.068,153.194 66.83,152.69 L71.072,152.69 C70.834,153.264 70.568,153.824 70.274,154.384 L67.502,154.384 Z M67.544,155.532 C66.76,156.428 65.794,157.198 64.646,157.842 L65.29,158.682 C66.466,157.968 67.46,157.128 68.258,156.162 L67.544,155.532 Z M80.816,150.52 C80.228,151.92 79.08,153.096 77.4,154.062 L78.016,154.874 C78.66,154.482 79.234,154.048 79.766,153.572 C80.438,154.16 81.166,154.692 81.95,155.154 C80.41,155.77 78.632,156.218 76.602,156.498 L77.064,157.45 C79.332,157.1 81.334,156.526 83.042,155.742 C84.778,156.61 86.752,157.17 88.964,157.422 L89.426,156.484 C87.48,156.288 85.716,155.854 84.134,155.182 C85.422,154.454 86.514,153.572 87.41,152.536 L87.41,151.724 L81.306,151.724 C81.502,151.388 81.684,151.038 81.838,150.66 L80.816,150.52 Z M83.028,154.664 C82.09,154.174 81.222,153.586 80.438,152.9 L80.62,152.676 L85.968,152.676 C85.142,153.432 84.162,154.104 83.028,154.664 Z M82.174,156.75 C82.174,157.31 82.118,157.842 82.006,158.346 L77.554,158.346 L77.554,159.256 L81.726,159.256 C81.614,159.536 81.46,159.802 81.292,160.054 C80.564,161.076 79.038,161.93 76.742,162.602 L77.414,163.428 C79.99,162.616 81.628,161.566 82.342,160.306 C82.524,159.97 82.678,159.62 82.79,159.256 L86.934,159.256 L86.91272,159.787627 C86.8569067,160.878009 86.738,161.5688 86.556,161.86 C86.332,162.196 85.814,162.378 84.974,162.392 L83.322,162.322 L83.574,163.232 L84.4665,163.2705 C84.7395,163.281 84.988,163.288 85.212,163.288 C86.206,163.288 86.906,163.05 87.312,162.588 C87.718,162.126 87.928,160.712 87.956,158.346 L83.028,158.346 C83.112,157.842 83.168,157.31 83.168,156.75 L82.174,156.75 Z M100.794,155.434 L97.518,155.434 L97.518,150.548 L96.482,150.548 L96.482,155.434 L93.206,155.434 L93.206,151.612 L92.198,151.612 L92.198,156.414 L96.482,156.414 L96.482,161.552 L92.534,161.552 L92.534,157.73 L91.512,157.73 L91.512,163.302 L92.534,163.302 L92.534,162.518 L101.466,162.518 L101.466,163.302 L102.488,163.302 L102.488,157.73 L101.466,157.73 L101.466,161.552 L97.518,161.552 L97.518,156.414 L101.802,156.414 L101.802,151.612 L100.794,151.612 L100.794,155.434 Z M109.95,151.458 L109.95,152.452 L116.656,152.452 L116.656,151.458 L109.95,151.458 Z M109.572,155.014 L109.572,156.008 L113.982,156.008 L113.982,161.874 C113.982,162.238 113.744,162.42 113.296,162.42 C112.68,162.42 112.05,162.392 111.378,162.35 L111.588,163.344 L113.646,163.344 C114.542,163.344 115.004,162.938 115.004,162.126 L115.004,156.008 L117.272,156.008 L117.272,155.014 L109.572,155.014 Z M107.738,150.688 C107.08,152.004 106.03,153.18 104.574,154.216 L104.868,155.224 C106.604,154.034 107.864,152.662 108.648,151.108 L107.738,150.688 Z M108.396,153.88 L109.306,154.3 C108.9,155.084 108.396,155.84 107.78,156.54 L107.78,163.4 L106.786,163.4 L106.786,157.562 C106.226,158.066 105.624,158.556 104.952,159.018 L104.658,158.01 C106.366,156.806 107.612,155.434 108.396,153.88 Z" id="商务出行" fill="#262626" fill-rule="nonzero"></path>
        <path d="M394.754,152.648 L390.176,152.648 L390.176,163.19 L391.142,163.19 L391.142,162.252 L393.774,162.252 L393.774,163.19 L394.754,163.19 L394.754,152.648 Z M391.142,161.286 L391.142,153.614 L393.774,153.614 L393.774,161.286 L391.142,161.286 Z M385.024,150.604 L385.024,153.432 L382.784,153.432 L382.784,154.412 L385.024,154.412 C384.982,158.248 384.142,161.048 382.518,162.798 L383.26,163.456 C385.052,161.552 385.976,158.542 386.032,154.412 L387.894,154.412 L387.873025,156.548209 C387.841629,159.031367 387.792621,160.568621 387.726,161.146 C387.614,161.944 387.194,162.35 386.48,162.35 C386.144,162.35 385.752,162.322 385.304,162.294 L385.556,163.218 L386.405388,163.267796 C386.488571,163.271714 386.56,163.274 386.62,163.274 C387.852,163.274 388.538,162.686 388.678,161.538 L388.705067,161.308587 C388.827022,160.134329 388.888,157.5088 388.888,153.432 L386.032,153.432 L386.032,150.604 L385.024,150.604 Z M396.77,151.528 L396.77,152.466 L398.394,152.466 L398.394,156.064 L396.896,156.064 L396.896,157.002 L398.394,157.002 L398.394,161.09 C397.806,161.258 397.218,161.412 396.602,161.552 L396.854,162.518 C398.366,162.112 399.78,161.608 401.082,161.02 L401.082,160.012 C400.522,160.278 399.948,160.53 399.374,160.754 L399.374,157.002 L400.704,157.002 L400.704,156.064 L399.374,156.064 L399.374,152.466 L400.9,152.466 L400.9,151.528 L396.77,151.528 Z M401.502,152.872 L401.502,154.356 C401.488,156.064 401.264,157.296 400.816,158.066 L401.53,158.696 C402.118,157.772 402.412,156.316 402.426,154.356 L402.426,152.872 L401.502,152.872 Z M403.378,150.548 L403.378,156.806 C403.35,159.522 402.426,161.482 400.606,162.7 L401.348,163.358 C403.308,161.986 404.302,159.802 404.344,156.806 L404.344,150.548 L403.378,150.548 Z M404.806,151.416 L404.806,152.34 L406.444,152.34 L406.444,156.33 L404.96,156.33 L404.96,157.254 L406.444,157.254 L406.444,161.944 L404.33,161.944 L404.33,162.882 L409.398,162.882 L409.398,161.944 L407.41,161.944 L407.41,157.254 L408.978,157.254 L408.978,156.33 L407.41,156.33 L407.41,152.34 L409.188,152.34 L409.188,151.416 L404.806,151.416 Z M420.794,155.434 L417.518,155.434 L417.518,150.548 L416.482,150.548 L416.482,155.434 L413.206,155.434 L413.206,151.612 L412.198,151.612 L412.198,156.414 L416.482,156.414 L416.482,161.552 L412.534,161.552 L412.534,157.73 L411.512,157.73 L411.512,163.302 L412.534,163.302 L412.534,162.518 L421.466,162.518 L421.466,163.302 L422.488,163.302 L422.488,157.73 L421.466,157.73 L421.466,161.552 L417.518,161.552 L417.518,156.414 L421.802,156.414 L421.802,151.612 L420.794,151.612 L420.794,155.434 Z M429.95,151.458 L429.95,152.452 L436.656,152.452 L436.656,151.458 L429.95,151.458 Z M429.572,155.014 L429.572,156.008 L433.982,156.008 L433.982,161.874 C433.982,162.238 433.744,162.42 433.296,162.42 C432.68,162.42 432.05,162.392 431.378,162.35 L431.588,163.344 L433.646,163.344 C434.542,163.344 435.004,162.938 435.004,162.126 L435.004,156.008 L437.272,156.008 L437.272,155.014 L429.572,155.014 Z M427.738,150.688 C427.08,152.004 426.03,153.18 424.574,154.216 L424.868,155.224 C426.604,154.034 427.864,152.662 428.648,151.108 L427.738,150.688 Z M428.396,153.88 L429.306,154.3 C428.9,155.084 428.396,155.84 427.78,156.54 L427.78,163.4 L426.786,163.4 L426.786,157.562 C426.226,158.066 425.624,158.556 424.952,159.018 L424.658,158.01 C426.366,156.806 427.612,155.434 428.396,153.88 Z" id="加班出行" fill="#262626" fill-rule="nonzero"></path>
        <path d="M717.008,151.122 L717.008,152.06 L722.496,152.06 L722.496,153.278 L718.212,153.278 L718.212,158.822 L722.314,158.822 C722.174,159.55 721.922,160.152 721.586,160.628 C720.802,160.222 720.074,159.746 719.416,159.2 L718.646,159.732 C719.332,160.32 720.088,160.838 720.9,161.286 C720.004,161.93 718.576,162.322 716.63,162.476 L717.064,163.4 C719.29,163.148 720.9,162.616 721.88,161.776 C723.966,162.728 726.416,163.274 729.23,163.386 L729.482,162.42 C726.794,162.336 724.47,161.874 722.51,161.048 C722.902,160.488 723.168,159.746 723.336,158.822 L727.844,158.822 L727.844,153.278 L723.504,153.278 L723.504,152.06 L729.006,152.06 L729.006,151.122 L717.008,151.122 Z M726.85,157.94 L723.462,157.94 L723.504,156.946 L723.504,156.456 L726.85,156.456 L726.85,157.94 Z M722.454,157.94 L719.206,157.94 L719.206,156.456 L722.496,156.456 L722.496,156.946 C722.496,157.282 722.482,157.618 722.454,157.94 Z M719.206,155.616 L719.206,154.146 L722.496,154.146 L722.496,155.616 L719.206,155.616 Z M723.504,154.146 L726.85,154.146 L726.85,155.616 L723.504,155.616 L723.504,154.146 Z M736.944,150.52 C735.712,151.864 733.85,152.76 731.358,153.236 L731.946,154.16 C733.444,153.824 734.732,153.334 735.824,152.69 L739.912,152.69 C739.128,153.838 737.994,154.72 736.538,155.308 C736.09,154.748 735.614,154.244 735.11,153.768 L734.228,154.188 C734.704,154.622 735.166,155.112 735.6,155.644 C734.592,155.938 733.472,156.12 732.212,156.204 L732.646,157.114 C736.734,156.792 739.548,155.28 741.06,152.592 L741.06,151.794 L737.042,151.794 C737.322,151.542 737.588,151.276 737.84,150.996 L736.944,150.52 Z M736.412,159.27 C736.944,159.816 737.462,160.404 737.938,161.034 C739.492,160.362 740.71,159.396 741.606,158.164 L737.462,158.164 C736.23,158.752 734.774,159.2 733.08,159.494 L732.478,158.598 C735.53,158.29 737.784,157.352 739.24,155.812 L740.108,156.288 C739.772,156.624 739.422,156.946 739.03,157.24 L742.866,157.24 L742.866,158.038 C740.878,161.342 737.182,163.05 731.75,163.176 L731.344,162.21 C733.528,162.196 735.418,161.93 737,161.398 C736.524,160.768 736.034,160.194 735.516,159.69 L736.412,159.27 Z" id="更多" fill="#262626" fill-rule="nonzero"></path>
    </g>
</svg>