<?xml version="1.0" encoding="UTF-8"?>
<svg width="32px" height="32px" viewBox="0 0 32 32" version="1.1" xmlns="http://www.w3.org/2000/svg" xmlns:xlink="http://www.w3.org/1999/xlink">
    <!-- Generator: Sketch 55.1 (78136) - https://sketchapp.com -->
    <title>题目结构化产品icon-32px</title>
    <desc>Created with Sketch.</desc>
    <g id="题目结构化产品icon-32px" stroke="none" stroke-width="1" fill="none" fill-rule="evenodd">
        <path d="M21,20 L21,18 L23,16 L23,22 L22,22 L11.5,22 L10.0780533,22 C9.80191095,22 9.57805332,21.7761424 9.57805332,21.5 C9.57805332,21.3817396 9.61997081,21.2673072 9.69636018,21.1770289 L20,9 L23,9 L13.6923077,20 L21,20 Z M28,6 L4.73243561,6 C4.38662619,6.59780137 3.74028236,7 3,7 C1.8954305,7 1,6.1045695 1,5 C1,3.8954305 1.8954305,3 3,3 C3.74028236,3 4.38662619,3.40219863 4.73243561,4 L30,4 L30,6 L30,21 L28,21 L28,6 Z M4,26 L27.2675644,26 C27.6133738,25.4021986 28.2597176,25 29,25 C30.1045695,25 31,25.8954305 31,27 C31,28.1045695 30.1045695,29 29,29 C28.2597176,29 27.6133738,28.5978014 27.2675644,28 L2,28 L2,26 L2,11 L4,11 L4,26 Z M11,16.288699 L9,18.616586 L9,11 L9,9 L17.262073,9 L15.5437765,11 L11,11 L11,16.288699 Z" id="形状结合" fill="#00A4FF"></path>
    </g>
</svg>