<?xml version="1.0" encoding="UTF-8"?>
<svg width="48px" height="48px" viewBox="0 0 48 48" version="1.1" xmlns="http://www.w3.org/2000/svg" xmlns:xlink="http://www.w3.org/1999/xlink">
    <!-- Generator: Sketch 52.5 (67469) - http://www.bohemiancoding.com/sketch -->
    <title>画板</title>
    <desc>Created with Sketch.</desc>
    <g id="画板" stroke="none" stroke-width="1" fill="none" fill-rule="evenodd">
        <g id="1540812524083-48x48" transform="translate(3.000000, 0.000000)">
            <g id="Fill-6" fill="#334966" fill-rule="nonzero">
                <path d="M21,0 L18.822,1.187 C13,4.363 6.6,6.34 0,7 L0,28.529 C0,33.736 2.891,38.514 7.504,40.931 L21,48 L34.496,40.931 C39.109,38.514 42,33.736 42,28.529 L42,7 C35.4,6.34 29,4.363 23.178,1.187 L21,0 Z M21,2.278 L22.22,2.943 C27.777,5.976 33.752,7.935 40,8.778 L40,28.529 C40,33.008 37.535,37.081 33.568,39.159 L21,45.742 L8.432,39.159 C4.465,37.081 2,33.008 2,28.529 L2,8.778 C8.248,7.935 14.223,5.976 19.78,2.943 L21,2.278 Z" id="形状"></path>
            </g>
            <g id="Rectangle-74" transform="translate(12.000000, 17.000000)" fill="#00A4FF">
                <rect id="矩形" x="0" y="0" width="6" height="16"></rect>
            </g>
            <g id="Rectangle-74-Copy" transform="translate(24.000000, 13.000000)" fill="#00A4FF">
                <rect id="矩形" x="0" y="0" width="6" height="20"></rect>
            </g>
            <g id="Path-5-Copy" transform="translate(6.000000, 18.000000)" fill="#334966">
                <polygon id="路径" points="9.016 12.262 0.4 5.8 1.6 4.2 8.984 9.738 21.32 0 29 0 29 2 22.014 2"></polygon>
            </g>
        </g>
    </g>
</svg>