<?xml version="1.0" encoding="UTF-8"?>
<svg width="48px" height="48px" viewBox="0 0 48 48" version="1.1" xmlns="http://www.w3.org/2000/svg" xmlns:xlink="http://www.w3.org/1999/xlink">
    <!-- Generator: Sketch 58 (84663) - https://sketch.com -->
    <title>架构师服务</title>
    <desc>Created with Sketch.</desc>
    <defs>
        <polygon id="path-1" points="0.6942 0.3573 23.3052 0.3573 23.3052 24 0.6942 24"></polygon>
        <polygon id="path-3" points="0 0.179 44 0.179 44 40.1786 0 40.1786"></polygon>
    </defs>
    <g id="架构师服务" stroke="none" stroke-width="1" fill="none" fill-rule="evenodd">
        <g id="架构师服务-48x48" transform="translate(0.000000, 2.000000)">
            <polygon id="Fill-1" fill="#334966" fill-rule="nonzero" points="28.6572 15 23.0002 20.657 21.5862 19.243 25.8282 15 21.5862 10.757 23.0002 9.343"></polygon>
            <polygon id="Fill-2" fill="#334966" fill-rule="nonzero" points="12.6567 9.3433 14.0717 10.7573 9.8287 15.0003 14.0717 19.2423 12.6567 20.6563 6.9997 15.0003"></polygon>
            <polygon id="Fill-3" fill="#00A4FF" fill-rule="nonzero" points="14.7896 20.3496 19.0046 9.1146 20.8776 9.8166 16.6626 21.0526"></polygon>
            <polygon id="Fill-4" fill="#00A4FF" fill-rule="nonzero" points="7 35.0204 41 35.0204 41 26.0204 7 26.0204"></polygon>
            <g id="Group-13" transform="translate(0.000000, 0.821400)">
                <g id="Group-7" transform="translate(24.000000, 20.000000)">
                    <g id="Fill-5-Clipped">
                        <mask id="mask-2" fill="white">
                            <use xlink:href="#path-1"></use>
                        </mask>
                        <g id="path-1"></g>
                        <path d="M11.9502,0.3573 C11.1222,0.3573 10.2942,0.4343 9.4762,0.5873 L8.9712,0.6903 L7.8602,3.7563 C7.6792,4.3073 7.0942,4.6923 6.5382,4.6923 C6.4732,4.6923 6.4102,4.6873 6.3472,4.6763 L3.3182,4.1663 L2.9152,4.5753 C2.0062,5.6993 1.4002,6.9263 0.8952,8.2553 L0.6942,8.7663 L2.7132,11.2203 C3.1162,11.7323 3.1162,12.5493 2.7132,13.0613 L0.6942,15.5133 L0.8952,16.0263 C1.0942,16.7493 1.3992,17.4383 1.8042,18.0693 C2.1072,18.6833 2.5112,19.1953 2.9152,19.7063 L3.3182,20.1153 L6.4472,19.6033 C6.5102,19.5933 6.5732,19.5873 6.6372,19.5873 C7.1932,19.5873 7.7812,19.9743 7.9622,20.5243 L8.9712,23.5913 L9.5772,23.6933 C10.4062,23.8973 11.2542,24.0003 12.1002,24.0003 C12.9482,24.0003 13.7962,23.8973 14.6252,23.6933 L15.1302,23.5903 L16.1392,20.5243 C16.3202,19.9743 16.9072,19.5873 17.4642,19.5873 C17.5272,19.5873 17.5912,19.5933 17.6522,19.6033 L20.6812,20.1153 L21.0852,19.6043 C21.8922,18.5813 22.5992,17.3543 23.0042,16.0263 L23.2052,15.5133 L21.2872,13.1633 C20.8842,12.6523 20.8842,11.8343 21.2872,11.3233 L23.3052,8.7663 L23.1052,8.2553 L23.1042,8.2553 C22.9052,7.5643 22.5992,6.9093 22.1962,6.3133 C21.8922,5.6993 21.4892,5.1883 21.0852,4.6763 L20.6812,4.2683 L17.5532,4.6763 C16.9462,4.6763 16.2392,4.2683 16.0382,3.6543 L15.0282,0.6903 L14.4232,0.5873 C13.6052,0.4343 12.7772,0.3573 11.9502,0.3573 M11.9502,2.3573 C12.4702,2.3573 12.9912,2.3933 13.5202,2.4663 L14.1382,4.2793 C14.5952,5.6683 16.0302,6.6763 17.5532,6.6763 L17.6822,6.6763 L17.8102,6.6603 L19.8842,6.3893 C20.0902,6.6643 20.2672,6.9253 20.4032,7.1993 L20.4642,7.3213 L20.5402,7.4343 C20.7452,7.7383 20.9142,8.0613 21.0462,8.4023 L19.7192,10.0833 C18.7452,11.3143 18.7452,13.1713 19.7372,14.4263 L20.9362,15.8963 C20.6772,16.5863 20.3022,17.2823 19.8322,17.9433 L17.9832,17.6303 C17.8132,17.6023 17.6382,17.5873 17.4642,17.5873 C16.0132,17.5873 14.6872,18.5393 14.2392,19.8993 L13.5912,21.8693 C13.0992,21.9563 12.6002,22.0003 12.1002,22.0003 C11.5652,22.0003 11.0292,21.9493 10.5042,21.8493 L9.8622,19.8993 C9.4142,18.5393 8.0882,17.5883 6.6372,17.5873 C6.4622,17.5873 6.2872,17.6023 6.1252,17.6293 L4.0932,17.9613 C3.8982,17.7023 3.7262,17.4453 3.5962,17.1843 L3.5482,17.0853 L3.4882,16.9923 C3.2712,16.6523 3.0932,16.2903 2.9562,15.9123 L4.2832,14.2993 C5.2542,13.0693 5.2542,11.2123 4.2572,9.9503 L2.9882,8.4073 C3.3292,7.5873 3.6872,6.9173 4.0992,6.3263 L6.0132,6.6483 C6.1852,6.6773 6.3612,6.6923 6.5382,6.6923 C7.9752,6.6923 9.2902,5.7583 9.7492,4.4173 L10.4602,2.4553 C10.9542,2.3893 11.4532,2.3573 11.9502,2.3573" id="Fill-5" fill="#344966" fill-rule="nonzero" mask="url(#mask-2)"></path>
                    </g>
                </g>
                <path d="M36,28.1786 C33.791,28.1786 32,29.9696 32,32.1786 C32,34.3876 33.791,36.1786 36,36.1786 C38.209,36.1786 40,34.3876 40,32.1786 C40,29.9696 38.209,28.1786 36,28.1786 M36,30.1786 C37.103,30.1786 38,31.0756 38,32.1786 C38,33.2816 37.103,34.1786 36,34.1786 C34.897,34.1786 34,33.2816 34,32.1786 C34,31.0756 34.897,30.1786 36,30.1786" id="Fill-8" fill="#344966" fill-rule="nonzero"></path>
                <g id="Group-12">
                    <g id="Fill-10-Clipped">
                        <mask id="mask-4" fill="white">
                            <use xlink:href="#path-3"></use>
                        </mask>
                        <g id="path-3"></g>
                        <polygon id="Fill-10" fill="#334966" fill-rule="nonzero" mask="url(#mask-4)" points="23 38.1786 2 38.1786 2 2.1786 42 2.1786 42 22.1786 44 22.1786 44 0.1786 0 0.1786 0 40.1786 23 40.1786"></polygon>
                    </g>
                </g>
            </g>
        </g>
    </g>
</svg>