<svg xmlns="http://www.w3.org/2000/svg" width="830" height="526" viewBox="0 0 830 526">
  <title>画板 1</title>
  <g>
    <g>
      <rect x="103" y="309" width="425" height="201" style="fill-opacity: 0"/>
      <path d="M103,309H528V510H103V309" style="fill: none;stroke: #bababa;stroke-dasharray: 5"/>
      <g style="isolation: isolate">
        <path d="M122.539,334.345l-.28-1.009,1.821.042c.35,0,.532-.21.532-.63v-9.665H115.4v11.3h-1.009V322.1h11.234v10.87c0,.911-.406,1.373-1.219,1.373Zm1.065-9.652v.939h-7.186v-.939Zm-.785,2.452v4.51H117.2v-4.51Zm-.98.911h-3.656v2.7h3.656Z" style="fill: #444"/>
        <path d="M128.877,325.17v-3.544h.98v3.544H131.1v.952h-1.247v4.259c.393-.2.771-.406,1.149-.631v.98a17.452,17.452,0,0,1-3.277,1.486l-.252-.953c.475-.126.952-.281,1.4-.449v-4.692h-1.261v-.952Zm3.964,2.339a11.573,11.573,0,0,1-1.933,6.738l-.742-.659a10.406,10.406,0,0,0,1.694-6.079V323.7h4.063c-.028-.673-.028-1.387-.028-2.129h.924c0,.756.014,1.471.042,2.129h3.152v.91H136.89a30.972,30.972,0,0,0,.406,4.133c.042.279.1.532.153.784a16.306,16.306,0,0,0,1.234-3.614l.826.351a16.262,16.262,0,0,1-1.723,4.509,6.554,6.554,0,0,0,.476,1.192c.337.658.617.994.812.994s.364-.7.519-2.045l.841.462q-.422,2.816-1.177,2.815c-.477,0-.967-.419-1.486-1.26a6.779,6.779,0,0,1-.6-1.233,8.4,8.4,0,0,1-2.8,2.493l-.6-.77a8.061,8.061,0,0,0,3.053-2.787,13.99,13.99,0,0,1-.392-1.555,30.775,30.775,0,0,1-.476-4.469h-3.11v2.018h2.424a19.833,19.833,0,0,1-.309,4.622,1.157,1.157,0,0,1-1.078.841h-.953l-.252-.827h.967c.307-.028.49-.266.574-.7a23.813,23.813,0,0,0,.14-3.081h-1.513Zm6.639-4.314-.742.322a11.483,11.483,0,0,0-.98-1.765l.742-.294A10.97,10.97,0,0,1,139.48,323.2Z" style="fill: #444"/>
        <path d="M145.23,327.691a17.652,17.652,0,0,0,.855-4.328h-4.091V322.4h5.057v.771a18.023,18.023,0,0,1-1.107,5.519c.631.9,1.205,1.806,1.738,2.7l-.771.785c-.42-.785-.91-1.57-1.442-2.382a13.28,13.28,0,0,1-3.18,4.146l-.686-.784a12.6,12.6,0,0,0,3.193-4.342q-1.219-1.7-2.732-3.488l.729-.7Q144.1,326.157,145.23,327.691Zm8.447-5.295v.9a16.585,16.585,0,0,1-2.283,6.415,19.679,19.679,0,0,0,3.011,3.754l-.7.827a21.136,21.136,0,0,1-2.914-3.656,23,23,0,0,1-3.235,3.656l-.687-.841a20.346,20.346,0,0,0,3.362-3.767,14.97,14.97,0,0,1-1.849-6.318h-.462V322.4Zm-2.844,6.332a16.057,16.057,0,0,0,1.892-5.365h-3.432A13.146,13.146,0,0,0,150.833,328.728Z" style="fill: #444"/>
        <path d="M162.522,321.5v2.521h5.029V330.6h-1.009v-.881h-4.02V334.5h-1.037v-4.776h-4.006v.881h-1.008v-6.583h5.014V321.5Zm-1.037,7.242V325h-4.006v3.74Zm5.057,0V325h-4.02v3.74Z" style="fill: #444"/>
        <path d="M172.109,326.179a27.586,27.586,0,0,1-1.68,6.218l-.868-.545a26.371,26.371,0,0,0,1.583-5.87Zm2.564,7.759a1.267,1.267,0,0,1-1.457-1.415v-8.04h1.009v7.83q0,.63.756.631h2.633a.747.747,0,0,0,.715-.406,10.393,10.393,0,0,0,.364-2.956l.953.322a8.9,8.9,0,0,1-.6,3.5,1.472,1.472,0,0,1-1.246.532Zm3.418-8.754-.841.574a27,27,0,0,0-2.969-3.628l.84-.518A28.731,28.731,0,0,1,178.091,325.184Zm4.412,6.177-.924.42a41.768,41.768,0,0,0-2.4-5.911l.98-.322A44.023,44.023,0,0,1,182.5,331.361Z" style="fill: #444"/>
      </g>
    </g>
    <g>
      <rect x="133" y="366" width="148" height="116" style="fill: #eaebec"/>
      <g style="isolation: isolate">
        <path d="M150.522,378.5v2.521h5.029V387.6h-1.009v-.881h-4.02V391.5h-1.037v-4.776h-4.006v.881h-1.008v-6.583h5.014V378.5Zm-1.037,7.242V382h-4.006v3.74Zm5.057,0V382h-4.02v3.74Z" style="fill: #444"/>
        <path d="M160.109,383.179a27.586,27.586,0,0,1-1.68,6.218l-.868-.545a26.371,26.371,0,0,0,1.583-5.87Zm2.564,7.759a1.267,1.267,0,0,1-1.457-1.415v-8.04h1.009v7.83q0,.63.756.631h2.633a.747.747,0,0,0,.715-.406,10.393,10.393,0,0,0,.364-2.956l.953.322a8.9,8.9,0,0,1-.6,3.5,1.472,1.472,0,0,1-1.246.532Zm3.418-8.754-.841.574a27,27,0,0,0-2.969-3.628l.84-.519A28.8,28.8,0,0,1,166.091,382.184Zm4.412,6.177-.924.42a41.768,41.768,0,0,0-2.4-5.911l.98-.322A44.023,44.023,0,0,1,170.5,388.361Z" style="fill: #444"/>
        <path d="M184.293,384.354v1.009H171.7v-1.009Z" style="fill: #444"/>
      </g>
    </g>
    <g>
      <rect x="340" y="366" width="148" height="116" style="fill: #eaebec"/>
      <g style="isolation: isolate">
        <path d="M357.522,378.5v2.521h5.029V387.6h-1.009v-.881h-4.02V391.5h-1.037v-4.776h-4.006v.881h-1.008v-6.583h5.014V378.5Zm-1.037,7.242V382h-4.006v3.74Zm5.057,0V382h-4.02v3.74Z" style="fill: #444"/>
        <path d="M367.109,383.179a27.586,27.586,0,0,1-1.68,6.218l-.868-.545a26.371,26.371,0,0,0,1.583-5.87Zm2.564,7.759a1.267,1.267,0,0,1-1.457-1.415v-8.04h1.009v7.83q0,.63.756.631h2.633a.747.747,0,0,0,.715-.406,10.393,10.393,0,0,0,.364-2.956l.953.322a8.9,8.9,0,0,1-.6,3.5,1.472,1.472,0,0,1-1.246.532Zm3.418-8.754-.841.574a27,27,0,0,0-2.969-3.628l.84-.519A28.8,28.8,0,0,1,373.091,382.184Zm4.412,6.177-.924.42a41.768,41.768,0,0,0-2.395-5.911l.98-.322A44.023,44.023,0,0,1,377.5,388.361Z" style="fill: #444"/>
        <path d="M391.251,388.922v1.022H378.742v-1.022Zm-1.274-8.811v.994h-9.946v-.994Z" style="fill: #444"/>
      </g>
    </g>
    <g>
      <rect x="580" y="366" width="148" height="116" style="fill: #eaebec"/>
      <g style="isolation: isolate">
        <path d="M597.521,378.5v2.521h5.03V387.6h-1.009v-.881h-4.021V391.5h-1.036v-4.776h-4.006v.881h-1.008v-6.583h5.014V378.5Zm-1.036,7.242V382h-4.006v3.74Zm5.057,0V382h-4.021v3.74Z" style="fill: #444"/>
        <path d="M607.109,383.179a27.586,27.586,0,0,1-1.68,6.218l-.868-.545a26.371,26.371,0,0,0,1.583-5.87Zm2.564,7.759a1.267,1.267,0,0,1-1.457-1.415v-8.04h1.009v7.83q0,.63.756.631h2.633a.747.747,0,0,0,.715-.406,10.393,10.393,0,0,0,.364-2.956l.953.322a8.9,8.9,0,0,1-.6,3.5,1.472,1.472,0,0,1-1.246.532Zm3.418-8.754-.841.574a27,27,0,0,0-2.969-3.628l.84-.519A28.8,28.8,0,0,1,613.091,382.184Zm4.412,6.177-.924.42a41.768,41.768,0,0,0-2.395-5.911l.98-.322A44.023,44.023,0,0,1,617.5,388.361Z" style="fill: #444"/>
        <path d="M631.321,389.649v1.009H618.687v-1.009Zm-1.009-10.028v.981H619.723v-.981Zm-.952,4.846v.98h-8.7v-.98Z" style="fill: #444"/>
      </g>
    </g>
  </g>
  <g>
    <path d="M339.5,423.5h-54" style="fill: none;stroke: #888"/>
    <polygon points="290 419 284 423.5 290 428 290 419" style="fill: #888"/>
    <path d="M339.5,423.5h-27" style="fill: none;stroke: red;stroke-opacity: 0;stroke-width: 15px"/>
    <path d="M312.5,423.5h-27" style="fill: none;stroke: red;stroke-opacity: 0;stroke-width: 15px"/>
  </g>
  <g>
    <path d="M356.5,38.5H67.5v385h30" style="fill: none;stroke: #888"/>
    <polygon points="93 428 99 423.5 93 419 93 428" style="fill: #888"/>
    <path d="M356.5,38.5H67.5" style="fill: none;stroke: red;stroke-opacity: 0;stroke-width: 15px"/>
    <path d="M67.5,38.5v385" style="fill: none;stroke: red;stroke-opacity: 0;stroke-width: 15px"/>
    <path d="M67.5,423.5h30" style="fill: none;stroke: red;stroke-opacity: 0;stroke-width: 15px"/>
  </g>
  <path d="M401.238,174.917l-.25,92.583" style="fill: none;stroke: #888"/>
  <g>
    <path d="M487.5,423.5h87" style="fill: none;stroke: #888"/>
    <polygon points="570 428 576 423.5 570 419 570 428" style="fill: #888"/>
    <path d="M487.5,423.5h44" style="fill: none;stroke: red;stroke-opacity: 0;stroke-width: 15px"/>
    <path d="M531.5,423.5h43" style="fill: none;stroke: red;stroke-opacity: 0;stroke-width: 15px"/>
  </g>
  <g>
    <path d="M453.5,38.5h309v385h-30" style="fill: none;stroke: #888"/>
    <polygon points="737 419 731 423.5 737 428 737 419" style="fill: #888"/>
    <path d="M453.5,38.5h309" style="fill: none;stroke: red;stroke-opacity: 0;stroke-width: 15px"/>
    <path d="M762.5,38.5v385" style="fill: none;stroke: red;stroke-opacity: 0;stroke-width: 15px"/>
    <path d="M762.5,423.5h-30" style="fill: none;stroke: red;stroke-opacity: 0;stroke-width: 15px"/>
  </g>
  <path d="M315,309V267.5H653.5V366" style="fill: none;stroke: #888"/>
  <g>
    <rect x="358.484" y="16" width="97" height="50" style="fill: #bbb;opacity: 0.600000023841858;isolation: isolate"/>
    <rect x="356.484" y="14" width="97" height="50" style="fill: #fff;stroke: #e5e5e5"/>
    <g style="isolation: isolate">
      <path d="M384.6,33.9h5.127v.981h-10.38v3.124A17.612,17.612,0,0,1,377.9,45.4l-.826-.742a15.68,15.68,0,0,0,1.232-6.653V33.9h5.2a9.381,9.381,0,0,0-.756-1.26l1.107-.2A10.871,10.871,0,0,1,384.6,33.9Zm.854,9.918a40.13,40.13,0,0,0,2.27-7.382l.994.266a41.974,41.974,0,0,1-2.171,7.116H389.5V44.8h-9.889v-.981Zm-2.8-1.555-.952.238a38.858,38.858,0,0,0-1.443-5.1l.883-.28A40.848,40.848,0,0,1,382.647,42.263Zm2.494-.826-.967.224a43.585,43.585,0,0,0-1.218-5.253l.882-.28A52.679,52.679,0,0,1,385.141,41.437Z" style="fill: #444"/>
      <path d="M391.843,45.274l-.771-.686a8.13,8.13,0,0,0,1.387-4.748V33.116H402.9V43.607a1.3,1.3,0,0,1-1.472,1.471h-1.611l-.266-.994c.56.028,1.079.056,1.556.056.5,0,.769-.294.769-.882V40.82h-3.81v4.1h-1.036v-4.1h-3.614A8.362,8.362,0,0,1,391.843,45.274ZM393.468,34.1v2.409h3.558V34.1Zm0,5.8h3.558V37.444h-3.558Zm8.4-5.8h-3.81v2.409h3.81Zm0,3.347h-3.81V39.9h3.81Z" style="fill: #444"/>
      <path d="M407.342,36.394V34.363c-.588.084-1.2.168-1.835.238l-.2-.953a23.089,23.089,0,0,0,4.65-.882l.351.952c-.63.182-1.3.337-2,.477v2.2h1.806v.966h-1.806V38.1c.658.644,1.33,1.373,2,2.171l-.561.84c-.56-.868-1.051-1.568-1.442-2.087v6.318h-.967V39.027a14.8,14.8,0,0,1-1.933,3.712l-.434-1.12a11.093,11.093,0,0,0,2.269-4.259H405.3v-.966ZM417.5,38.425v.925h-3.054v1.793h2.62v.91h-2.62v1.891h3.391V44.9h-7.858v-.952h3.431V42.053h-2.55v-.91h2.55V39.35h-2.872v-.925Zm-.6-5.351v4.048h-5.814V33.074Zm-.982.9h-3.838v2.241h3.838Z" style="fill: #444"/>
      <path d="M426.6,33.718h5.07v.925H421.328v3.6a15.884,15.884,0,0,1-1.5,7.13l-.757-.673a14.657,14.657,0,0,0,1.247-6.457V33.718h5.267a9.326,9.326,0,0,0-.588-1.05l1.023-.168A12.458,12.458,0,0,1,426.6,33.718Zm.055,4.623a13.307,13.307,0,0,0,2.312-1.709h-6.177v-.868h7.438v.728a15.382,15.382,0,0,1-2.8,2.354,7.223,7.223,0,0,1,.631.447l-.21.211H431.4v.784a12.446,12.446,0,0,1-1.932,2.774l-.757-.6a10.292,10.292,0,0,0,1.61-2.017H427.1v3.74a1.105,1.105,0,0,1-1.246,1.247h-2.06l-.21-.952c.673.042,1.316.069,1.934.069a.526.526,0,0,0,.574-.6v-3.5h-4.118V39.5h4.986a23.661,23.661,0,0,0-2.76-1.611l.6-.588C425.475,37.641,426.091,37.991,426.65,38.341Z" style="fill: #444"/>
    </g>
  </g>
  <g>
    <rect x="154" y="412" width="108" height="50" style="fill: #bbb;opacity: 0.600000023841858;isolation: isolate"/>
    <rect x="152" y="410" width="108" height="50" style="fill: #fff;stroke: #e5e5e5"/>
    <g style="isolation: isolate">
      <path d="M204.539,441.345l-.28-1.009,1.821.042c.35,0,.532-.21.532-.63v-9.666H197.4v11.305h-1.009V429.1h11.234v10.87c0,.911-.406,1.373-1.219,1.373Zm1.065-9.652v.939h-7.186v-.939Zm-.785,2.452v4.51H199.2v-4.51Zm-.98.911h-3.656v2.7h3.656Z" style="fill: #444"/>
      <path d="M210.877,432.17v-3.544h.98v3.544H213.1v.952h-1.247v4.259c.393-.2.771-.406,1.149-.631v.98a17.452,17.452,0,0,1-3.277,1.486l-.252-.953c.475-.126.952-.281,1.4-.449v-4.692h-1.261v-.952Zm3.964,2.339a11.573,11.573,0,0,1-1.933,6.738l-.742-.659a10.406,10.406,0,0,0,1.694-6.079V430.7h4.063c-.028-.673-.028-1.387-.028-2.129h.924c0,.756.014,1.471.042,2.129h3.152v.91H218.89a30.972,30.972,0,0,0,.406,4.133c.042.279.1.532.153.784a16.306,16.306,0,0,0,1.234-3.614l.826.351a16.262,16.262,0,0,1-1.723,4.509,6.554,6.554,0,0,0,.476,1.192c.337.658.617.994.812.994s.364-.7.519-2.045l.841.462q-.422,2.816-1.177,2.815c-.477,0-.967-.419-1.486-1.26a6.779,6.779,0,0,1-.6-1.233,8.4,8.4,0,0,1-2.8,2.493l-.6-.77a8.061,8.061,0,0,0,3.053-2.787,13.99,13.99,0,0,1-.392-1.555,30.775,30.775,0,0,1-.476-4.469h-3.11v2.018h2.424a19.833,19.833,0,0,1-.309,4.622,1.157,1.157,0,0,1-1.078.841h-.953l-.252-.827h.967c.307-.028.49-.266.574-.7a23.813,23.813,0,0,0,.14-3.081h-1.513Zm6.639-4.314-.742.323a11.449,11.449,0,0,0-.98-1.766l.742-.294A10.97,10.97,0,0,1,221.48,430.2Z" style="fill: #444"/>
      <path d="M229.136,428.611c-.211.337-.435.645-.659.94h5.7v.769a12.31,12.31,0,0,1-3.152,2.718,20.772,20.772,0,0,0,5.366,1.373l-.435.9a19.834,19.834,0,0,1-5.883-1.738,21.1,21.1,0,0,1-6.038,1.85l-.433-.883a20.371,20.371,0,0,0,5.491-1.5,11.1,11.1,0,0,1-2.228-1.751,14.519,14.519,0,0,1-1.975,1.5l-.644-.784a11.874,11.874,0,0,0,3.894-3.614ZM234.43,441.4h-.966v-.616h-6.892v.616h-.967v-6.107h8.825Zm-4.9-3.781v-1.485h-2.955v1.485Zm0,2.3v-1.484h-2.955v1.484Zm.505-7.34a12.829,12.829,0,0,0,2.9-2.143h-5.183l-.28.28A10.2,10.2,0,0,0,230.032,432.576Zm.448,5.043h2.984v-1.485H230.48Zm2.984,2.3v-1.484H230.48v1.484Z" style="fill: #444"/>
      <path d="M245.194,429.8h5.043v.98h-10.38v3.194a17.949,17.949,0,0,1-1.415,7.423l-.826-.742a16.029,16.029,0,0,0,1.2-6.681V429.8h5.267a8.384,8.384,0,0,0-.729-1.163l1.121-.2A11.113,11.113,0,0,1,245.194,429.8Zm-.658,1.6c-.126.392-.252.757-.378,1.121h5.463v.882h-5.813a17.4,17.4,0,0,1-1.261,2.4h2.619V434.1h1.009V435.8H249.3v.91h-3.124v1.569h4.188v.924h-4.188v2.214h-1.009V439.2h-5.057v-.924h5.057v-1.569H241.5l-.21-.868a11.092,11.092,0,0,0,1.457-2.438h-2.115v-.882h2.479q.232-.651.462-1.344Z" style="fill: #444"/>
    </g>
    <path d="M165.5,438.762c2.149,1.348,5.824,2.238,10,2.238s7.851-.89,10-2.238V445h2v-9h0v-9c0-2.761-5.373-5-12-5s-12,2.239-12,5v18h2ZM175.5,424c5.523,0,10,1.343,10,3s-4.477,3-10,3-10-1.343-10-3S169.977,424,175.5,424Zm-10,5.762c2.149,1.348,5.824,2.238,10,2.238s7.851-.89,10-2.238V436c0,1.656-4.478,3-10,3s-10-1.343-10-3h0ZM175.5,448c-5.523,0-10-1.343-10-3h-2c0,2.761,5.373,5,12,5s12-2.239,12-5h-2C185.5,446.657,181.023,448,175.5,448Z" style="fill: #00a4ff;fill-rule: evenodd"/>
  </g>
  <g>
    <rect x="367.5" y="412" width="97" height="50" style="fill: #bbb;opacity: 0.600000023841858;isolation: isolate"/>
    <rect x="365.5" y="410" width="97" height="50" style="fill: #fff;stroke: #e5e5e5"/>
    <g style="isolation: isolate">
      <path d="M416.289,431.932v-.994h5.3a15.916,15.916,0,0,0-.869-2.144l.98-.267a18.053,18.053,0,0,1,.813,2.2l-.546.211h5.77v.994h-5.211v3.305h4.54v.939h-4.54v3.754h5.7v1H415.8v-1h5.7v-3.754h-4.539v-.939H421.5v-3.305Z" style="fill: #444"/>
      <path d="M437.194,429.8h5.043v.98h-10.38v3.194a17.949,17.949,0,0,1-1.415,7.423l-.826-.742a16.029,16.029,0,0,0,1.205-6.681V429.8h5.267a8.384,8.384,0,0,0-.729-1.163l1.121-.2A11.113,11.113,0,0,1,437.194,429.8Zm-.658,1.6c-.126.392-.252.757-.378,1.121h5.463v.882h-5.813a17.4,17.4,0,0,1-1.261,2.4h2.619V434.1h1.009V435.8H441.3v.91h-3.124v1.569h4.188v.924h-4.188v2.214h-1.009V439.2h-5.057v-.924h5.057v-1.569H433.5l-.21-.868a11.092,11.092,0,0,0,1.457-2.438h-2.115v-.882h2.479q.232-.651.462-1.344Z" style="fill: #444"/>
    </g>
  </g>
  <g>
    <rect x="353.855" y="126" width="98.516" height="50" style="fill: #bbb;opacity: 0.600000023841858;isolation: isolate"/>
    <rect x="351.855" y="124" width="98.516" height="50" style="fill: #fff;stroke: #e5e5e5"/>
    <g style="isolation: isolate">
      <path d="M380.778,145.3a6.162,6.162,0,0,1,0,7.4,4.955,4.955,0,0,1-7.1,0,6.145,6.145,0,0,1,0-7.382,4.942,4.942,0,0,1,7.1-.014Zm-6.261.715a5.3,5.3,0,0,0,0,5.981,3.317,3.317,0,0,0,2.7,1.177,3.384,3.384,0,0,0,2.7-1.149,4.609,4.609,0,0,0,.938-3.011,4.663,4.663,0,0,0-.938-3.04,3.709,3.709,0,0,0-5.407.042Z" style="fill: #444"/>
      <path d="M384.583,143.8v4.286a2.611,2.611,0,0,1,2.4-1.527,2.854,2.854,0,0,1,2.422,1.163,4.208,4.208,0,0,1,.813,2.633,4.326,4.326,0,0,1-.813,2.69,3.007,3.007,0,0,1-2.479,1.148,2.519,2.519,0,0,1-2.409-1.386V154h-1.051V143.8Zm.574,4.468a3.152,3.152,0,0,0-.616,2.045v.14a3.3,3.3,0,0,0,.546,1.976,1.955,1.955,0,0,0,1.695.839,2.022,2.022,0,0,0,1.765-.854,3.667,3.667,0,0,0,.518-2.059,3.332,3.332,0,0,0-.546-2.031,2.057,2.057,0,0,0-1.779-.841A1.86,1.86,0,0,0,385.157,148.271Z" style="fill: #444"/>
      <path d="M397.2,148.817h-1.093a1.542,1.542,0,0,0-.559-.98,2.247,2.247,0,0,0-1.331-.337,2.041,2.041,0,0,0-1.177.28.842.842,0,0,0-.462.757c0,.309.195.574.616.784a10.711,10.711,0,0,0,1.5.477,6.616,6.616,0,0,1,1.863.672,1.683,1.683,0,0,1,.869,1.485c0,1.484-1.024,2.241-3.069,2.241-1.9,0-2.941-.841-3.109-2.508h1.093a1.88,1.88,0,0,0,.6,1.234,2.354,2.354,0,0,0,1.387.336c1.288,0,1.946-.421,1.946-1.233a1.044,1.044,0,0,0-.685-.939,10.716,10.716,0,0,0-1.541-.462,6.184,6.184,0,0,1-1.793-.645,1.544,1.544,0,0,1-.827-1.414,1.66,1.66,0,0,1,.812-1.457,3.345,3.345,0,0,1,1.989-.546C396.022,146.562,397,147.305,397.2,148.817Z" style="fill: #444"/>
      <path d="M404.354,147.738a5.012,5.012,0,0,1,.84,2.956h-5.715a3.11,3.11,0,0,0,.659,1.891,2.052,2.052,0,0,0,1.625.673,2.246,2.246,0,0,0,1.442-.448,2.534,2.534,0,0,0,.729-1.135h1.12a3.273,3.273,0,0,1-.981,1.709,3.368,3.368,0,0,1-2.31.812,3.241,3.241,0,0,1-2.494-1.022,4.491,4.491,0,0,1-.042-5.478,3.043,3.043,0,0,1,2.494-1.134A3.089,3.089,0,0,1,404.354,147.738Zm-4.161.393a2.791,2.791,0,0,0-.686,1.695h4.524c-.139-1.555-.91-2.326-2.283-2.326A2.03,2.03,0,0,0,400.193,148.131Z" style="fill: #444"/>
      <path d="M410.681,146.73v1.121a3.629,3.629,0,0,0-1.079-.155,1.7,1.7,0,0,0-1.414.743,2.608,2.608,0,0,0-.576,1.723V154h-1.106v-7.242h1.106v1.261a2.664,2.664,0,0,1,.757-1,2.016,2.016,0,0,1,1.317-.462A2.6,2.6,0,0,1,410.681,146.73Z" style="fill: #444"/>
      <path d="M412.051,146.758l2.073,5.842,2.073-5.842h1.233L414.685,154H413.55l-2.732-7.242Z" style="fill: #444"/>
      <path d="M423.981,147.738a5,5,0,0,1,.841,2.956h-5.715a3.11,3.11,0,0,0,.659,1.891,2.052,2.052,0,0,0,1.625.673,2.246,2.246,0,0,0,1.442-.448,2.534,2.534,0,0,0,.729-1.135h1.12a3.273,3.273,0,0,1-.981,1.709,3.366,3.366,0,0,1-2.31.812,3.246,3.246,0,0,1-2.5-1.022,4.495,4.495,0,0,1-.042-5.478,3.046,3.046,0,0,1,2.5-1.134A3.086,3.086,0,0,1,423.981,147.738Zm-4.16.393a2.791,2.791,0,0,0-.686,1.695h4.524c-.139-1.555-.91-2.326-2.283-2.326A2.029,2.029,0,0,0,419.821,148.131Z" style="fill: #444"/>
      <path d="M430.309,146.73v1.121a3.631,3.631,0,0,0-1.08-.155,1.7,1.7,0,0,0-1.414.743,2.613,2.613,0,0,0-.575,1.723V154h-1.106v-7.242h1.106v1.261a2.654,2.654,0,0,1,.757-1,2.015,2.015,0,0,1,1.316-.462A2.6,2.6,0,0,1,430.309,146.73Z" style="fill: #444"/>
    </g>
  </g>
  <g>
    <rect x="490.129" y="126" width="126.516" height="50" style="fill: #bbb;opacity: 0.600000023841858;isolation: isolate"/>
    <rect x="488.129" y="124" width="126.516" height="50" style="fill: #fff;stroke: #e5e5e5"/>
    <g style="isolation: isolate">
      <path d="M514.264,142.612c-.209.336-.434.644-.659.938h5.7v.771a12.343,12.343,0,0,1-3.152,2.717,20.772,20.772,0,0,0,5.366,1.373l-.435.9a19.834,19.834,0,0,1-5.883-1.738,21.107,21.107,0,0,1-6.037,1.85l-.435-.883a20.368,20.368,0,0,0,5.492-1.5A11.031,11.031,0,0,1,512,145.287a14.519,14.519,0,0,1-1.975,1.5l-.645-.784a11.878,11.878,0,0,0,3.895-3.614Zm5.295,12.788h-.966v-.616H511.7v.616h-.967v-6.107h8.825Zm-4.9-3.781v-1.485H511.7v1.485Zm0,2.3v-1.484H511.7v1.484Zm.5-7.34a12.813,12.813,0,0,0,2.9-2.143h-5.184l-.279.28A10.237,10.237,0,0,0,515.16,146.576Zm.449,5.043h2.984v-1.485h-2.984Zm2.984,2.3v-1.484h-2.984v1.484Z" style="fill: #444"/>
      <path d="M523.487,155.274l-.77-.686a8.144,8.144,0,0,0,1.387-4.748v-6.724H534.54v10.491a1.3,1.3,0,0,1-1.472,1.471h-1.61l-.267-.994c.561.028,1.08.056,1.556.056.5,0,.77-.294.77-.882V150.82h-3.81v4.105h-1.036V150.82h-3.614A8.363,8.363,0,0,1,523.487,155.274Zm1.625-11.177v2.409h3.559V144.1Zm0,5.8h3.559v-2.452h-3.559Zm8.405-5.8h-3.81v2.409h3.81Zm0,3.347h-3.81V149.9h3.81Z" style="fill: #444"/>
      <path d="M545.052,145.3a6.166,6.166,0,0,1,0,7.4,4.955,4.955,0,0,1-7.1,0,6.141,6.141,0,0,1,0-7.382,4.942,4.942,0,0,1,7.1-.014Zm-6.262.715a5.3,5.3,0,0,0,0,5.981,3.319,3.319,0,0,0,2.7,1.177,3.381,3.381,0,0,0,2.7-1.149,4.61,4.61,0,0,0,.939-3.011,4.663,4.663,0,0,0-.939-3.04,3.709,3.709,0,0,0-5.407.042Z" style="fill: #444"/>
      <path d="M548.856,143.8v4.286a2.612,2.612,0,0,1,2.4-1.527,2.856,2.856,0,0,1,2.423,1.163,4.214,4.214,0,0,1,.812,2.633,4.332,4.332,0,0,1-.812,2.69,3.01,3.01,0,0,1-2.48,1.148,2.519,2.519,0,0,1-2.409-1.386V154h-1.051V143.8Zm.575,4.468a3.152,3.152,0,0,0-.617,2.045v.14a3.3,3.3,0,0,0,.546,1.976,1.957,1.957,0,0,0,1.7.839,2.019,2.019,0,0,0,1.764-.854,3.667,3.667,0,0,0,.519-2.059,3.332,3.332,0,0,0-.547-2.031,2.053,2.053,0,0,0-1.778-.841A1.858,1.858,0,0,0,549.431,148.271Z" style="fill: #444"/>
      <path d="M561.473,148.817H560.38a1.543,1.543,0,0,0-.56-.98,2.244,2.244,0,0,0-1.331-.337,2.043,2.043,0,0,0-1.177.28.843.843,0,0,0-.461.757c0,.309.2.574.616.784a10.619,10.619,0,0,0,1.5.477,6.619,6.619,0,0,1,1.862.672,1.683,1.683,0,0,1,.869,1.485c0,1.484-1.023,2.241-3.068,2.241-1.9,0-2.941-.841-3.109-2.508h1.092a1.876,1.876,0,0,0,.6,1.234,2.35,2.35,0,0,0,1.387.336c1.288,0,1.946-.421,1.946-1.233a1.044,1.044,0,0,0-.686-.939,10.716,10.716,0,0,0-1.541-.462,6.2,6.2,0,0,1-1.793-.645,1.546,1.546,0,0,1-.827-1.414,1.661,1.661,0,0,1,.813-1.457,3.343,3.343,0,0,1,1.989-.546C560.3,146.562,561.276,147.305,561.473,148.817Z" style="fill: #444"/>
      <path d="M568.627,147.738a5.019,5.019,0,0,1,.841,2.956h-5.715a3.116,3.116,0,0,0,.658,1.891,2.054,2.054,0,0,0,1.625.673,2.251,2.251,0,0,0,1.443-.448,2.542,2.542,0,0,0,.728-1.135h1.12a3.271,3.271,0,0,1-.98,1.709,3.37,3.37,0,0,1-2.311.812,3.241,3.241,0,0,1-2.494-1.022,4.495,4.495,0,0,1-.042-5.478,3.043,3.043,0,0,1,2.494-1.134A3.089,3.089,0,0,1,568.627,147.738Zm-4.16.393a2.791,2.791,0,0,0-.687,1.695H568.3c-.14-1.555-.91-2.326-2.284-2.326A2.026,2.026,0,0,0,564.467,148.131Z" style="fill: #444"/>
      <path d="M574.954,146.73v1.121a3.62,3.62,0,0,0-1.079-.155,1.7,1.7,0,0,0-1.414.743,2.607,2.607,0,0,0-.575,1.723V154h-1.107v-7.242h1.107v1.261a2.644,2.644,0,0,1,.757-1,2.013,2.013,0,0,1,1.316-.462A2.588,2.588,0,0,1,574.954,146.73Z" style="fill: #444"/>
      <path d="M576.324,146.758,578.4,152.6l2.074-5.842H581.7L578.958,154h-1.135l-2.731-7.242Z" style="fill: #444"/>
      <path d="M588.255,147.738a5.019,5.019,0,0,1,.841,2.956h-5.715a3.109,3.109,0,0,0,.658,1.891,2.054,2.054,0,0,0,1.625.673,2.246,2.246,0,0,0,1.442-.448,2.534,2.534,0,0,0,.729-1.135h1.12a3.271,3.271,0,0,1-.98,1.709,3.369,3.369,0,0,1-2.311.812,3.243,3.243,0,0,1-2.494-1.022,4.495,4.495,0,0,1-.042-5.478,3.043,3.043,0,0,1,2.494-1.134A3.089,3.089,0,0,1,588.255,147.738Zm-4.16.393a2.791,2.791,0,0,0-.687,1.695h4.525c-.14-1.555-.911-2.326-2.284-2.326A2.026,2.026,0,0,0,584.1,148.131Z" style="fill: #444"/>
      <path d="M594.582,146.73v1.121a3.62,3.62,0,0,0-1.079-.155,1.7,1.7,0,0,0-1.414.743,2.607,2.607,0,0,0-.575,1.723V154h-1.107v-7.242h1.107v1.261a2.644,2.644,0,0,1,.757-1,2.011,2.011,0,0,1,1.316-.462A2.6,2.6,0,0,1,594.582,146.73Z" style="fill: #444"/>
    </g>
  </g>
  <path d="M553.512,174.917l-.25,92.583" style="fill: none;stroke: #888"/>
  <path d="M385.25,438.762c2.149,1.348,5.824,2.238,10,2.238s7.851-.89,10-2.238V445h2v-9h0v-9c0-2.761-5.373-5-12-5s-12,2.239-12,5v18h2Zm10-14.762c5.523,0,10,1.343,10,3s-4.477,3-10,3-10-1.343-10-3S389.727,424,395.25,424Zm-10,5.762c2.149,1.348,5.824,2.238,10,2.238s7.851-.89,10-2.238V436c0,1.656-4.478,3-10,3s-10-1.343-10-3h0Zm10,18.238c-5.523,0-10-1.343-10-3h-2c0,2.761,5.373,5,12,5s12-2.239,12-5h-2C405.25,446.657,400.773,448,395.25,448Z" style="fill: #00a4ff;fill-rule: evenodd"/>
  <g>
    <rect x="600.5" y="413" width="108" height="50" style="fill: #bbb;opacity: 0.600000023841858;isolation: isolate"/>
    <rect x="598.5" y="411" width="108" height="50" style="fill: #fff;stroke: #e5e5e5"/>
    <g style="isolation: isolate">
      <path d="M645.717,438.044c.013-.378.027-.9.027-1.555h1.009c0,.715-.015,1.234-.028,1.555h3.684V436.5h1.008v1.54h3.5v.911h-3.5v3.361h-1.008v-3.361H646.6a4.4,4.4,0,0,1-3.1,3.418l-.532-.869a3.367,3.367,0,0,0,2.647-2.549h-3.5v-.911Zm6.975-4.65h-8.026v.938a.631.631,0,0,0,.714.715h7.4a.744.744,0,0,0,.617-.28,3.234,3.234,0,0,0,.223-1.121l.911.294a4.482,4.482,0,0,1-.28,1.372,1.217,1.217,0,0,1-1.19.645h-8.041c-.9,0-1.344-.434-1.344-1.274V430.1h9.02Zm-.98-.911v-1.47h-7.046v1.47Z" style="fill: #444"/>
      <path d="M660.417,439.207a24.759,24.759,0,0,1-4.16,1.5L656,439.7c.589-.126,1.177-.28,1.766-.448v-4.986h-1.6v-.981h1.6v-3.614h.994v3.614h1.457v.981h-1.457v4.65c.56-.21,1.121-.448,1.653-.7Zm7.8-1.779c-.14.589-.742.9-1.793.9h-.084l-.28-.994c.209.014.406.028.574.028a.636.636,0,0,0,.7-.462,27.117,27.117,0,0,0,.127-3.306l-2.046.616V439.5h-.98v-5l-2.045.617v5.435c0,.42.238.644.728.644h3.937a.673.673,0,0,0,.616-.28,5.478,5.478,0,0,0,.322-2.045l.939.294a5.217,5.217,0,0,1-.561,2.577,1.45,1.45,0,0,1-1.135.406h-4.426a1.24,1.24,0,0,1-1.4-1.4v-5.337l-1.177.364v-.98l1.177-.364v-3.447h.981v3.138l2.045-.63v-3.936h.98v3.628l3.012-.924A34.9,34.9,0,0,1,668.219,437.428Z" style="fill: #444"/>
      <path d="M675.636,429.611c-.211.337-.435.645-.659.94h5.7v.769a12.31,12.31,0,0,1-3.152,2.718,20.772,20.772,0,0,0,5.366,1.373l-.435.9a19.834,19.834,0,0,1-5.883-1.738,21.1,21.1,0,0,1-6.038,1.85l-.433-.883a20.371,20.371,0,0,0,5.491-1.5,11.1,11.1,0,0,1-2.228-1.751,14.519,14.519,0,0,1-1.975,1.5l-.644-.784a11.874,11.874,0,0,0,3.894-3.614ZM680.93,442.4h-.966v-.616h-6.892v.616h-.967v-6.107h8.825Zm-4.9-3.781v-1.485h-2.955v1.485Zm0,2.3v-1.484h-2.955v1.484Zm.5-7.34a12.829,12.829,0,0,0,2.9-2.143h-5.183l-.28.28A10.2,10.2,0,0,0,676.532,433.576Zm.448,5.043h2.984v-1.485H676.98Zm2.984,2.3v-1.484H676.98v1.484Z" style="fill: #444"/>
      <path d="M691.694,430.8h5.043v.98h-10.38v3.194a17.949,17.949,0,0,1-1.415,7.423l-.826-.742a16.029,16.029,0,0,0,1.205-6.681V430.8h5.267a8.384,8.384,0,0,0-.729-1.163l1.121-.2A11.113,11.113,0,0,1,691.694,430.8Zm-.658,1.6c-.126.392-.252.757-.378,1.121h5.463v.882h-5.813a17.4,17.4,0,0,1-1.261,2.4h2.619V435.1h1.009V436.8H695.8v.91h-3.124v1.569h4.188v.924h-4.188v2.214h-1.009V440.2h-5.057v-.924h5.057v-1.569H688l-.21-.868a11.092,11.092,0,0,0,1.457-2.438h-2.115v-.882h2.479q.232-.651.462-1.344Z" style="fill: #444"/>
    </g>
    <path d="M612,439.762c2.149,1.348,5.824,2.238,10,2.238s7.851-.89,10-2.238V446h2v-9h0v-9c0-2.761-5.373-5-12-5s-12,2.239-12,5v18h2ZM622,425c5.523,0,10,1.343,10,3s-4.477,3-10,3-10-1.343-10-3S616.477,425,622,425Zm-10,5.762c2.149,1.348,5.824,2.238,10,2.238s7.851-.89,10-2.238V437c0,1.656-4.478,3-10,3s-10-1.343-10-3h0ZM622,449c-5.523,0-10-1.343-10-3h-2c0,2.761,5.373,5,12,5s12-2.239,12-5h-2C632,447.657,627.523,449,622,449Z" style="fill: #00a4ff;fill-rule: evenodd"/>
  </g>
</svg>
