<?xml version="1.0" encoding="UTF-8"?>
<svg width="48px" height="48px" viewBox="0 0 48 48" version="1.1" xmlns="http://www.w3.org/2000/svg" xmlns:xlink="http://www.w3.org/1999/xlink">
    <!-- Generator: Sketch 52.3 (67297) - http://www.bohemiancoding.com/sketch -->
    <title>坚固稳定</title>
    <desc>Created with Sketch.</desc>
    <g id="坚固稳定" stroke="none" stroke-width="1" fill="none" fill-rule="evenodd">
        <circle id="Oval-7" stroke="#334966" stroke-width="2" cx="24" cy="24" r="23"></circle>
        <polygon id="Rectangle-54" fill="#00A4FF" points="24 27 36 33 24 39 12 33"></polygon>
        <g id="Group" transform="translate(12.000000, 9.000000)" fill="#334966" fill-rule="nonzero">
            <path d="M12,12 L24,18 L12,24 L0,18 L12,12 Z M12,14.236068 L4.47213595,18 L12,21.763932 L19.527864,18 L12,14.236068 Z" id="Rectangle-54"></path>
            <path d="M11,21.263932 L11,5.10555128 L2.92080963,17.2243368 L11,21.263932 Z M13,5.10555128 L13,21.263932 L21.0791904,17.2243368 L13,5.10555128 Z M0,18 L12,0 L24,18 L12,24 L0,18 Z" id="Combined-Shape"></path>
        </g>
    </g>
</svg>