<svg xmlns="http://www.w3.org/2000/svg" xmlns:xlink="http://www.w3.org/1999/xlink" width="830" height="242" viewBox="0 0 830 242">
  <defs>
    <clipPath id="a">
      <path d="M270.206,69.5,278,74v9l-7.794,4.5L262.412,83V74Zm0,2.309-5.794,3.345v6.691l5.794,3.345L276,81.845V75.154Zm1,5.691v5h-2v-5h-1.772l-1.228-2h6.919l1.081,2Zm-10-11c5.627,0,10-1.822,10-3s-4.373-3-10-3-10,1.822-10,3S255.578,66.5,261.206,66.5Zm12,2.732-2-1.155V66.265c-2.15,1.347-5.826,2.235-10,2.235s-7.85-.888-10-2.235V72.5c0,1.107,3.863,2.783,9,2.981v2a19.09,19.09,0,0,1-9-2.218V81.5c0,1.107,3.863,2.783,9,2.981v2c-6.16-.212-11-2.362-11-4.983v-18c0-2.762,5.372-5,12-5s12,2.238,12,5Z" style="fill: none"/>
    </clipPath>
    <clipPath id="b">
      <rect x="247.206" y="56.5" width="32" height="32" style="fill: none"/>
    </clipPath>
    <clipPath id="c">
      <path d="M487.206,69.5,495,74v9l-7.794,4.5L479.412,83V74Zm0,2.309-5.794,3.345v6.691l5.794,3.345L493,81.845V75.154Zm1,5.691v5h-2v-5h-1.772l-1.228-2h6.919l1.081,2Zm-10-11c5.627,0,10-1.822,10-3s-4.373-3-10-3-10,1.822-10,3S472.578,66.5,478.206,66.5Zm12,2.732-2-1.155V66.265c-2.15,1.347-5.826,2.235-10,2.235s-7.85-.888-10-2.235V72.5c0,1.107,3.863,2.783,9,2.981v2a19.09,19.09,0,0,1-9-2.218V81.5c0,1.107,3.863,2.783,9,2.981v2c-6.16-.212-11-2.362-11-4.983v-18c0-2.762,5.372-5,12-5s12,2.238,12,5Z" style="fill: none"/>
    </clipPath>
    <clipPath id="d">
      <rect x="464.206" y="56.5" width="32" height="32" style="fill: none"/>
    </clipPath>
  </defs>
  <title>物联网地理信息系统</title>
  <g>
    <rect x="219.1" y="49.9" width="137.9" height="50" style="fill: #bbb;opacity: 0.600000023841858;isolation: isolate"/>
    <rect x="217" y="48" width="137.9" height="50" style="fill: #fff;stroke: #e5e5e5"/>
    <g>
      <g style="isolation: isolate">
        <path d="M295.336,67.4v.994h-3.529V77.4h-1.135V68.389h-3.53V67.4Z" style="fill: #444"/>
        <path d="M301.047,67.4a3.394,3.394,0,0,1,2.213.672,2.285,2.285,0,0,1,.8,1.849,2.435,2.435,0,0,1-.448,1.457,2.663,2.663,0,0,1-1.219.8,2.5,2.5,0,0,1,1.526.812,2.378,2.378,0,0,1,.561,1.625,2.484,2.484,0,0,1-1.037,2.185,4.333,4.333,0,0,1-2.423.6h-4.44v-10Zm-3.32,4.37h3.04a2.584,2.584,0,0,0,1.6-.434,1.585,1.585,0,0,0,.56-1.3,1.489,1.489,0,0,0-.547-1.261,2.586,2.586,0,0,0-1.6-.406h-3.054Zm0,4.664h3.194a3.182,3.182,0,0,0,1.666-.391,1.6,1.6,0,0,0,.744-1.444,1.663,1.663,0,0,0-.645-1.428,2.885,2.885,0,0,0-1.765-.449h-3.194Z" style="fill: #444"/>
        <path d="M311.365,70.77a2.887,2.887,0,0,1,.644,1.976V77.4h-1.05V76.177a3.373,3.373,0,0,1-1.107.967,3.679,3.679,0,0,1-1.807.448,2.61,2.61,0,0,1-1.737-.546,1.827,1.827,0,0,1-.672-1.457,2.043,2.043,0,0,1,.994-1.863,4.647,4.647,0,0,1,2.522-.616l1.737-.028V72.7c0-1.219-.631-1.822-1.891-1.822a2.305,2.305,0,0,0-1.3.323,1.577,1.577,0,0,0-.729,1.037l-1.106-.085a2.481,2.481,0,0,1,1.121-1.694,3.838,3.838,0,0,1,2.087-.5A2.963,2.963,0,0,1,311.365,70.77Zm-2.143,3.18c-1.625.028-2.437.56-2.437,1.611a.994.994,0,0,0,.406.826,1.776,1.776,0,0,0,1.093.323,2.74,2.74,0,0,0,1.82-.672,1.935,1.935,0,0,0,.785-1.5v-.617Z" style="fill: #444"/>
        <path d="M319.275,72.214h-1.092a1.543,1.543,0,0,0-.56-.981,2.247,2.247,0,0,0-1.331-.337,2.043,2.043,0,0,0-1.177.28.844.844,0,0,0-.462.757c0,.309.2.574.616.784a10.757,10.757,0,0,0,1.5.477,6.673,6.673,0,0,1,1.863.672,1.681,1.681,0,0,1,.869,1.485c0,1.485-1.023,2.241-3.068,2.241-1.905,0-2.942-.84-3.11-2.507h1.093a1.88,1.88,0,0,0,.6,1.233,2.356,2.356,0,0,0,1.387.336c1.288,0,1.947-.421,1.947-1.232a1.046,1.046,0,0,0-.686-.94,10.759,10.759,0,0,0-1.541-.462,6.22,6.22,0,0,1-1.793-.644,1.547,1.547,0,0,1-.827-1.414,1.656,1.656,0,0,1,.813-1.457,3.335,3.335,0,0,1,1.988-.547C318.1,69.958,319.08,70.7,319.275,72.214Z" style="fill: #444"/>
        <path d="M326.429,71.134a5.014,5.014,0,0,1,.841,2.956h-5.716a3.128,3.128,0,0,0,.658,1.891,2.056,2.056,0,0,0,1.625.673,2.25,2.25,0,0,0,1.444-.448,2.542,2.542,0,0,0,.728-1.135h1.12a3.271,3.271,0,0,1-.98,1.709,3.373,3.373,0,0,1-2.312.812,3.241,3.241,0,0,1-2.493-1.022,4.495,4.495,0,0,1-.042-5.478,3.045,3.045,0,0,1,2.493-1.134A3.09,3.09,0,0,1,326.429,71.134Zm-4.16.393a2.785,2.785,0,0,0-.686,1.695h4.524c-.14-1.555-.91-2.326-2.283-2.326A2.027,2.027,0,0,0,322.269,71.527Z" style="fill: #444"/>
      </g>
      <g style="clip-path: url(#a)">
        <g style="clip-path: url(#b)">
          <rect x="244.206" y="53.5" width="38.794" height="39" style="fill: #00a4ff"/>
        </g>
      </g>
    </g>
  </g>
  <g>
    <path d="M650,3V238H829V3Z" style="fill: none;stroke: #bababa;stroke-dasharray: 5"/>
    <g>
      <rect x="673.1" y="49.9" width="135.2" height="48.1" style="fill: #bbb;opacity: 0.600000023841858;isolation: isolate"/>
      <rect x="671" y="48" width="135.2" height="48.1" style="fill: #fff;stroke: #e5e5e5"/>
      <g style="isolation: isolate">
        <path d="M702.9,68.733a20.967,20.967,0,0,0,.182-2.536V65.063h1.037v.91a21.23,21.23,0,0,1-.183,2.76h5.814v.981h-5.519a12.584,12.584,0,0,0,5.785,7.311l-.63.813a13.276,13.276,0,0,1-5.8-7.34,11.075,11.075,0,0,1-5.785,7.437l-.63-.84a10.081,10.081,0,0,0,5.561-7.381h-5.281v-.981Z" style="fill: #444"/>
        <path d="M714.83,71.674c-.1.266-.2.518-.28.771h2.928v.826a5.65,5.65,0,0,1-1.556,2.4c.673.307,1.317.616,1.933.952l-.546.784a20.294,20.294,0,0,0-2.157-1.106,11.462,11.462,0,0,1-3.488,1.554l-.476-.84a12.66,12.66,0,0,0,2.956-1.148c-.617-.267-1.261-.533-1.948-.785.365-.616.687-1.191.967-1.751H711.51v-.882h2.045q.189-.463.337-.883Zm-.56-3.936V65.063h.938v2.675h2.549v.883h-2.549v.154c.756.378,1.541.813,2.325,1.288l-.518.784q-1.052-.838-1.807-1.344v1.821h-.938V68.663a6.569,6.569,0,0,1-2.508,2.871l-.49-.813a5.793,5.793,0,0,0,2.255-2.1h-1.989v-.883Zm-.785-.672-.728.336a13.014,13.014,0,0,0-.939-1.821l.8-.266A11.99,11.99,0,0,1,713.485,67.066Zm3.082,6.261h-2.409a10.424,10.424,0,0,1-.757,1.345c.56.2,1.093.392,1.6.6A5.439,5.439,0,0,0,716.567,73.327Zm1.037-7.718a9.386,9.386,0,0,1-1.079,1.807l-.714-.365a8.877,8.877,0,0,0,1.064-1.778Zm1.54,4.805a12.35,12.35,0,0,1-.826,1.722l-.63-.77a17.788,17.788,0,0,0,1.667-6.346l.98.169c-.084.714-.2,1.387-.308,2h3.7v.966h-.911a14.964,14.964,0,0,1-1.289,6,8.672,8.672,0,0,0,2.592,2.913l-.546.826a9.184,9.184,0,0,1-2.522-2.829,9.414,9.414,0,0,1-2.591,2.816l-.519-.841a8.239,8.239,0,0,0,2.592-2.913A19.416,19.416,0,0,1,719.144,70.414Zm.49-1.528a19.314,19.314,0,0,0,1.359,4.231,14.966,14.966,0,0,0,.9-4.959h-2.074Z" style="fill: #444"/>
        <path d="M725.706,77.767l-.21-.952a9.478,9.478,0,0,0,1.065.07c.35,0,.532-.211.532-.6V72.851c-.56.21-1.107.406-1.653.574l-.252-.98a17.81,17.81,0,0,0,1.9-.574V68.705h-1.681v-.967h1.681V65.09h.98v2.648h1.345v.967h-1.345v2.759q.674-.294,1.3-.63v.995c-.434.223-.868.42-1.3.616v4.09c0,.812-.392,1.232-1.176,1.232Zm3.74.126-.784-.7a15.347,15.347,0,0,0,1.513-7.2V65.609h7.382v3.4h-2.634v1.654h3v.91h-3V73.3h2.353v4.594h-.938v-.685h-3.8v.685H731.6V73.3h2.339V71.576h-2.858A16.322,16.322,0,0,1,729.446,77.893Zm1.709-8.881v.981c0,.224-.014.449-.014.673h2.8V69.012Zm0-2.465V68.1h5.421V66.547Zm5.183,9.764V74.2h-3.8v2.115Z" style="fill: #444"/>
        <path d="M746.794,66.3h5.043v.98h-10.38v3.193a17.984,17.984,0,0,1-1.414,7.424l-.827-.742a16.036,16.036,0,0,0,1.2-6.682V66.3h5.268a8.338,8.338,0,0,0-.729-1.164l1.121-.2A11.105,11.105,0,0,1,746.794,66.3Zm-.658,1.6c-.126.393-.252.757-.379,1.12h5.463V69.9h-5.813a17.348,17.348,0,0,1-1.26,2.4h2.619V70.6h1.008v1.7H750.9v.91h-3.124V74.77h4.189v.924h-4.189v2.214h-1.008V75.694H741.71V74.77h5.056V73.2H743.1l-.21-.868a11.116,11.116,0,0,0,1.457-2.438h-2.115v-.883h2.479q.231-.65.462-1.344Z" style="fill: #444"/>
        <path d="M765.276,65.679v.981h-5.211v5.3h5.744v.966h-5.744V77.88h-1.036V72.921H753.4v-.966h5.631v-5.3h-5.07v-.981Zm-8.1,5.084-.938.463a25.67,25.67,0,0,0-1.513-3.208l.939-.462A32.773,32.773,0,0,1,757.18,70.763Zm7.354-2.842a17.387,17.387,0,0,1-1.667,3.249l-.9-.462a18.443,18.443,0,0,0,1.638-3.222Z" style="fill: #444"/>
        <path d="M767.734,69.672q1.849-.631,4.58-4.652l1.037.351a21.543,21.543,0,0,1-3.8,4.259c2.69-.113,5.239-.3,7.648-.519A25.908,25.908,0,0,0,775.564,67l.911-.435a35.713,35.713,0,0,1,3.362,4.651l-.981.476c-.35-.588-.7-1.135-1.036-1.667q-4.434.4-9.89.6Zm10.548,8.236h-1.023v-.7h-7.312v.7h-1.022V72.066h9.357Zm-1.023-1.667V73.033h-7.312v3.208Z" style="fill: #444"/>
      </g>
    </g>
    <g>
      <rect x="673.1" y="109.9" width="135.2" height="48.1" style="fill: #bbb;opacity: 0.600000023841858;isolation: isolate"/>
      <rect x="671" y="108" width="135.2" height="48.1" style="fill: #fff;stroke: #e5e5e5"/>
      <g style="isolation: isolate">
        <path d="M716.6,125.189v11.136h1.989V125.189h1.022v11.136h4.2v.98H711.4v-.98h4.174V125.189Zm-2.031,9.034-.925.239a52.261,52.261,0,0,0-1.891-6.472l.855-.28A49.988,49.988,0,0,1,714.564,134.223Zm8.867-6.233a32.362,32.362,0,0,1-2.116,6.4l-.91-.321a30.267,30.267,0,0,0,2.129-6.332Z" style="fill: #444"/>
        <path d="M730.441,125.147a8.461,8.461,0,0,1-.532,1.065h6.107v.812a12.287,12.287,0,0,1-3.278,2.648,18.163,18.163,0,0,0,5.295,1.3l-.462.939a17.6,17.6,0,0,1-5.925-1.682,22.591,22.591,0,0,1-5.982,1.709l-.462-.952a22.806,22.806,0,0,0,5.351-1.345,14.428,14.428,0,0,1-2.185-1.583,11.9,11.9,0,0,1-1.751,1.3L726,128.55a7.6,7.6,0,0,0,3.417-3.544Zm1.331,6.093a9.682,9.682,0,0,1-.141,1.6h4.931c-.028,2.367-.238,3.782-.644,4.244a2.687,2.687,0,0,1-2.1.7c-.448,0-.994-.028-1.638-.057l-.252-.91,1.653.07c.84-.014,1.358-.2,1.582-.532a6.665,6.665,0,0,0,.379-2.605h-4.147a5.739,5.739,0,0,1-.448,1.049c-.715,1.261-2.353,2.312-4.931,3.125l-.672-.827c2.3-.673,3.824-1.527,4.553-2.549a4.407,4.407,0,0,0,.434-.8h-4.175v-.911h4.455a7.35,7.35,0,0,0,.168-1.6Zm2.8-4.076h-5.351l-.182.224a13.22,13.22,0,0,0,2.591,1.765A12.583,12.583,0,0,0,734.573,127.164Z" style="fill: #444"/>
        <path d="M746.71,126.393h5.127v.981h-10.38V130.5a17.612,17.612,0,0,1-1.443,7.4l-.826-.742a15.671,15.671,0,0,0,1.232-6.653v-4.1h5.2a9.456,9.456,0,0,0-.756-1.261l1.107-.2A10.946,10.946,0,0,1,746.71,126.393Zm.854,9.918a40.041,40.041,0,0,0,2.27-7.383l.994.267a41.974,41.974,0,0,1-2.171,7.116h2.956v.981h-9.89v-.981Zm-2.8-1.556-.952.239a39.169,39.169,0,0,0-1.443-5.1l.882-.28A40.872,40.872,0,0,1,744.763,134.755Zm2.493-.826-.966.225a43.777,43.777,0,0,0-1.219-5.253l.883-.28A52.739,52.739,0,0,1,747.256,133.929Z" style="fill: #444"/>
        <path d="M753.959,137.767l-.771-.686a8.137,8.137,0,0,0,1.387-4.748v-6.724H765.01V136.1a1.3,1.3,0,0,1-1.47,1.471h-1.611l-.266-.994c.56.028,1.078.055,1.554.055.5,0,.771-.293.771-.881v-2.438h-3.81v4.105h-1.037v-4.105h-3.614A8.365,8.365,0,0,1,753.959,137.767Zm1.624-11.178V129h3.558v-2.41Zm0,5.8h3.558v-2.451h-3.558Zm8.405-5.8h-3.81V129h3.81Zm0,3.348h-3.81v2.451h3.81Z" style="fill: #444"/>
      </g>
    </g>
    <g>
      <rect x="673.1" y="169.9" width="135.2" height="48.1" style="fill: #bbb;opacity: 0.600000023841858;isolation: isolate"/>
      <rect x="671" y="168" width="135.2" height="48.1" style="fill: #fff;stroke: #e5e5e5"/>
      <g style="isolation: isolate">
        <path d="M718.78,186.2h5.631v.98h-3.026a14.7,14.7,0,0,1-.812,1.7h3.11v7.564c0,.924-.421,1.387-1.233,1.387h-1.429l-.252-.925,1.358.042c.393,0,.589-.252.589-.728v-6.444h-9.049V197.8H712.7v-8.923h2.955a12.406,12.406,0,0,0-.742-1.7H712v-.98h5.7a11.751,11.751,0,0,0-.518-1.107l1.107-.181C718.458,185.3,718.626,185.721,718.78,186.2Zm-1.317,4.455a11.653,11.653,0,0,1-2.969,2.521l-.645-.84a10.888,10.888,0,0,0,2.9-2.312Zm3.334,2.087v3.445h-5.2v-3.445Zm-1.317-3.866c.294-.561.561-1.12.8-1.7h-4.244a16.47,16.47,0,0,1,.673,1.7Zm.35,4.776h-3.264v1.639h3.264Zm2.634-1.232-.756.742a17.548,17.548,0,0,0-2.83-2.507l.686-.645A21.331,21.331,0,0,1,722.464,192.417Z" style="fill: #444"/>
        <path d="M731.2,185.189v11.136h1.989V185.189h1.023v11.136h4.2v.98H726v-.98h4.174V185.189Zm-2.031,9.034-.925.239a52.434,52.434,0,0,0-1.891-6.472l.855-.28A49.988,49.988,0,0,1,729.166,194.223Zm8.867-6.233a32.429,32.429,0,0,1-2.115,6.4l-.911-.321a30.267,30.267,0,0,0,2.129-6.332Z" style="fill: #444"/>
        <path d="M745,185.384a16.1,16.1,0,0,1-1.877,3.307v9.231h-1.009v-8a20.97,20.97,0,0,1-2.059,1.961l-.322-1.05a15.3,15.3,0,0,0,4.329-5.883Zm2.843,12.286a1.31,1.31,0,0,1-1.47-1.486v-4.271c-.589.336-1.191.643-1.808.938l-.448-.953c.785-.364,1.541-.742,2.256-1.162v-5.617h1.008v5a19.9,19.9,0,0,0,3.866-3.349l.7.8a22.753,22.753,0,0,1-4.567,3.74v4.735c0,.434.224.658.7.658h2.269a.968.968,0,0,0,.812-.35,7.219,7.219,0,0,0,.308-2.424l.939.309a7.58,7.58,0,0,1-.5,2.927,1.637,1.637,0,0,1-1.387.5Z" style="fill: #444"/>
        <path d="M758.679,186.492a3.389,3.389,0,0,1,2.213.672,2.287,2.287,0,0,1,.8,1.848,2.431,2.431,0,0,1-.448,1.457,2.645,2.645,0,0,1-1.219.8,2.5,2.5,0,0,1,1.527.813,2.378,2.378,0,0,1,.56,1.625,2.481,2.481,0,0,1-1.036,2.184,4.33,4.33,0,0,1-2.424.6h-4.44v-10Zm-3.32,4.37H758.4a2.575,2.575,0,0,0,1.6-.435,1.584,1.584,0,0,0,.561-1.3,1.489,1.489,0,0,0-.547-1.261,2.586,2.586,0,0,0-1.6-.406h-3.054Zm0,4.664h3.194a3.187,3.187,0,0,0,1.666-.392,1.6,1.6,0,0,0,.743-1.443,1.663,1.663,0,0,0-.645-1.429,2.889,2.889,0,0,0-1.764-.448h-3.194Z" style="fill: #444"/>
        <path d="M764.907,186.492v10h-1.135v-10Z" style="fill: #444"/>
      </g>
    </g>
    <g style="isolation: isolate">
      <path d="M668.11,15.9h5.127v.98h-10.38v3.124a17.622,17.622,0,0,1-1.442,7.4l-.827-.743a15.663,15.663,0,0,0,1.233-6.653V15.9h5.2a9.335,9.335,0,0,0-.757-1.261l1.107-.2A10.9,10.9,0,0,1,668.11,15.9Zm.855,9.917a39.982,39.982,0,0,0,2.269-7.382l1,.266a42.065,42.065,0,0,1-2.171,7.116h2.955V26.8h-9.889v-.981Zm-2.8-1.555-.952.238a39.013,39.013,0,0,0-1.443-5.1l.882-.28A40.723,40.723,0,0,1,666.163,24.263Zm2.494-.826-.967.224a43.585,43.585,0,0,0-1.218-5.253l.882-.28A52.679,52.679,0,0,1,668.657,23.437Z" style="fill: #444"/>
      <path d="M675.359,27.275l-.771-.687a8.137,8.137,0,0,0,1.387-4.748V15.116h10.436V25.608a1.3,1.3,0,0,1-1.471,1.47h-1.611l-.266-.994c.56.028,1.079.056,1.555.056.5,0,.77-.294.77-.882V22.82h-3.81v4.105h-1.036V22.82h-3.614A8.377,8.377,0,0,1,675.359,27.275ZM676.983,16.1v2.409h3.559V16.1Zm0,5.8h3.559V19.444h-3.559Zm8.405-5.8h-3.81v2.409h3.81Zm0,3.347h-3.81V21.9h3.81Z" style="fill: #444"/>
      <path d="M689.751,16.167v-1H698.1v.658c-.266,1.219-.533,2.27-.785,3.153h2.83v.587a9.3,9.3,0,0,1-2.648,4.847,18.968,18.968,0,0,0,3.74,2.115l-.658.9a17.583,17.583,0,0,1-3.866-2.325,15.113,15.113,0,0,1-4.566,2.38l-.589-.938a15.6,15.6,0,0,0,4.328-2.157,11.863,11.863,0,0,1-2.9-4.146,11.029,11.029,0,0,1-3.6,7.116l-.771-.687q3.488-2.878,3.544-9.217V16.167Zm9.343,3.726h-3.04a33.119,33.119,0,0,0,.939-3.726h-3.8v1.288c0,.225-.014.435-.014.658a10.37,10.37,0,0,0,3.474,5.632A8.3,8.3,0,0,0,699.094,19.893Z" style="fill: #444"/>
      <path d="M706.23,21.182c-.1.265-.2.517-.28.77h2.928v.826a5.657,5.657,0,0,1-1.555,2.4c.672.308,1.317.616,1.933.952l-.546.784a20.414,20.414,0,0,0-2.158-1.106,11.486,11.486,0,0,1-3.488,1.555l-.476-.84a12.686,12.686,0,0,0,2.956-1.149c-.616-.266-1.261-.533-1.947-.785.364-.616.686-1.19.967-1.751h-1.653v-.882h2.045q.189-.462.336-.883Zm-.56-3.937V14.57h.938v2.675h2.55v.883h-2.55v.154c.757.378,1.541.813,2.326,1.288l-.518.785q-1.052-.84-1.808-1.345v1.821h-.938V18.17a6.561,6.561,0,0,1-2.507,2.871l-.491-.812a5.8,5.8,0,0,0,2.256-2.1h-1.989v-.883Zm-.784-.672-.729.336a12.964,12.964,0,0,0-.938-1.821l.8-.266A11.994,11.994,0,0,1,704.886,16.573Zm3.081,6.261h-2.409a10.353,10.353,0,0,1-.756,1.345c.56.2,1.092.392,1.6.6A5.409,5.409,0,0,0,707.967,22.834ZM709,15.116a9.256,9.256,0,0,1-1.079,1.807l-.714-.364a8.911,8.911,0,0,0,1.064-1.779Zm1.54,4.805a12.2,12.2,0,0,1-.826,1.723l-.63-.771a17.755,17.755,0,0,0,1.667-6.346l.98.169c-.084.714-.2,1.387-.308,2h3.7v.966h-.91a14.981,14.981,0,0,1-1.289,6,8.66,8.66,0,0,0,2.591,2.913l-.546.827a9.184,9.184,0,0,1-2.521-2.83,9.4,9.4,0,0,1-2.592,2.816l-.518-.841a8.237,8.237,0,0,0,2.591-2.913A19.483,19.483,0,0,1,710.544,19.921Zm.491-1.527a19.269,19.269,0,0,0,1.359,4.23,14.988,14.988,0,0,0,.9-4.959h-2.073Z" style="fill: #444"/>
      <path d="M717.106,27.275l-.209-.953a9.469,9.469,0,0,0,1.064.071c.35,0,.532-.211.532-.6V22.359c-.56.209-1.106.406-1.653.574l-.252-.981a17.584,17.584,0,0,0,1.905-.574V18.212h-1.68v-.967h1.68V14.6h.981v2.647h1.344v.967h-1.344v2.76q.672-.294,1.3-.631v.995c-.434.224-.868.42-1.3.616v4.09c0,.813-.392,1.233-1.177,1.233Zm3.741.126-.785-.7a15.329,15.329,0,0,0,1.513-7.2V15.116h7.382v3.4h-2.633v1.653h3v.91h-3v1.724h2.353V27.4h-.939v-.686h-3.8V27.4H723V22.807h2.339V21.083h-2.858A16.344,16.344,0,0,1,720.847,27.4Zm1.709-8.881v.98c0,.225-.014.449-.014.673h2.8V18.52Zm0-2.465v1.554h5.421V16.055Zm5.182,9.763V23.7h-3.8v2.115Z" style="fill: #444"/>
      <path d="M735.939,15.382a16.743,16.743,0,0,1-1.975,2.858,14.044,14.044,0,0,1-2.8,2.4l-.547-.882a10.111,10.111,0,0,0,2.592-2.144,14.8,14.8,0,0,0,1.849-2.759Zm-3.25,5.716v-.967h8.363a42.515,42.515,0,0,1-.266,4.244,4.955,4.955,0,0,1-.686,2.241,1.933,1.933,0,0,1-1.514.673h-2.549l-.28-1q1.218.042,2.311.042a1.424,1.424,0,0,0,1.485-.966,16.533,16.533,0,0,0,.476-4.272h-3.487a10.686,10.686,0,0,1-1.4,3.641,9.569,9.569,0,0,1-3.222,2.7l-.644-.84a9.29,9.29,0,0,0,2.927-2.312,8.592,8.592,0,0,0,1.317-3.193Zm10.66-1.318-.672.8a11.166,11.166,0,0,1-4.539-5.421l.869-.49A9.894,9.894,0,0,0,743.349,19.78Z" style="fill: #444"/>
      <path d="M747.866,27.359h-.994V20.2a15.821,15.821,0,0,1-1.892,3.88l-.434-1.093a12.728,12.728,0,0,0,2.269-4.72h-1.988V17.3h2.045V14.556h.994V17.3h1.891v.966h-1.891v.757c.658.686,1.331,1.457,2.017,2.325l-.546.8a24.166,24.166,0,0,0-1.471-2.073Zm9.035-11.85a18.445,18.445,0,0,1-5.337,1.008v2.521h5.687v.967h-2.087v7.368h-1.009V20.005h-2.591v.154a12.381,12.381,0,0,1-2.129,7.13l-.714-.743a11.083,11.083,0,0,0,1.863-6.387v-4.5a17.8,17.8,0,0,0,5.813-1.05Z" style="fill: #444"/>
      <path d="M770.677,15.187v.98h-5.211v5.295h5.743v.966h-5.743v4.959H764.43V22.428H758.8v-.966h5.632V16.167h-5.071v-.98Zm-8.1,5.084-.939.463a25.258,25.258,0,0,0-1.513-3.208l.939-.462A32.894,32.894,0,0,1,762.581,20.271Zm7.354-2.843a17.508,17.508,0,0,1-1.667,3.249l-.9-.462a18.347,18.347,0,0,0,1.639-3.222Z" style="fill: #444"/>
      <path d="M773.135,19.179q1.848-.631,4.58-4.652l1.036.351a21.544,21.544,0,0,1-3.795,4.259c2.689-.112,5.238-.3,7.648-.519a26.539,26.539,0,0,0-1.639-2.115l.911-.435a35.776,35.776,0,0,1,3.361,4.651l-.98.476c-.351-.587-.7-1.134-1.037-1.667q-4.433.4-9.889.6Zm10.547,8.236H782.66v-.7h-7.312v.7h-1.023V21.573h9.357Zm-1.022-1.667V22.54h-7.312v3.208Z" style="fill: #444"/>
    </g>
  </g>
  <g>
    <rect x="3.635" y="48.133" width="135.2" height="48.1" style="fill: #bbb;opacity: 0.600000023841858;isolation: isolate"/>
    <rect x="1.535" y="46.233" width="135.2" height="48.1" style="fill: #fff;stroke: #e5e5e5"/>
    <g style="isolation: isolate">
      <path d="M35.536,69.188l-.883-.252a15.755,15.755,0,0,0,.9-4.679l.883.071c-.028.616-.084,1.232-.169,1.835h.982V63.25h.98v2.913H39.4v.98H38.225v3.362c.392-.182.756-.364,1.12-.56V70.9c-.364.2-.742.378-1.12.561V76.08h-.98v-4.2c-.715.28-1.444.546-2.2.784l-.238-.981a17.506,17.506,0,0,0,2.438-.756V67.143H36.1A19.075,19.075,0,0,1,35.536,69.188Zm6.583-5.715c-.155.729-.323,1.4-.519,2.017h5.436q0,7.019-.21,8.657A1.985,1.985,0,0,1,44.556,76q-.294,0-1.051-.042l-.238-.91c.448.028.827.055,1.15.055a1.363,1.363,0,0,0,1.47-1.344c.1-.785.154-3.222.182-7.284h-.952a23.661,23.661,0,0,1-1.276,5.547,11.692,11.692,0,0,1-2.871,3.936l-.616-.8a10.771,10.771,0,0,0,2.633-3.53,20.046,20.046,0,0,0,1.219-5.155H43.114q-.842,4.581-3.195,6.654l-.658-.757a10.063,10.063,0,0,0,2.956-5.9h-.966a9.118,9.118,0,0,1-1.275,2.213l-.743-.631a10.9,10.9,0,0,0,1.934-4.832Z" style="fill: #444"/>
      <path d="M54.354,63.809v.939h-.91v7.69c.321-.112.63-.21.938-.308v.981c-.308.1-.631.195-.938.279v2.76h-.967V73.657c-1.121.28-2.269.546-3.474.77l-.252-.953.882-.139V64.748h-.854v-.939Zm-1.877,3V64.748H50.6v2.059Zm0,2.913v-2H50.6v2Zm0,3V70.645H50.6v2.508C51.245,73.012,51.861,72.873,52.477,72.718Zm5.589-6.429a18.739,18.739,0,0,0,1.373-3.026l.924.35a17.138,17.138,0,0,1-1.288,2.676h2.087v.952H58.29v.421a17.936,17.936,0,0,1-.112,1.989H61.4v.966H58.5a9.421,9.421,0,0,0,3.109,4.707l-.7.742a10.709,10.709,0,0,1-3.027-4.734,7.683,7.683,0,0,1-3.221,4.79l-.6-.8a6.716,6.716,0,0,0,3.012-4.707h-2.7v-.966h2.843c.056-.561.1-1.149.113-1.766v-.644H54.578v-.952Zm-.8-.756-.756.517a16.631,16.631,0,0,0-1.317-2.212l.77-.491A18.125,18.125,0,0,1,57.267,65.533Z" style="fill: #444"/>
      <path d="M72.066,76l-.267-.981,1.345.042a.516.516,0,0,0,.589-.574V64.776h-9.19V76.052h-.994V63.809H74.727v10.9A1.124,1.124,0,0,1,73.481,76ZM67.4,70.883a14.374,14.374,0,0,1-1.835,3.53l-.644-.784a14.34,14.34,0,0,0,1.807-3.684c-.673-.9-1.331-1.709-1.975-2.451l.63-.6a22.4,22.4,0,0,1,1.667,1.989,27.916,27.916,0,0,0,.659-3.166l.924.168a28.33,28.33,0,0,1-.883,3.951c.533.728,1.093,1.527,1.654,2.395l-.673.672C68.284,72.186,67.835,71.513,67.4,70.883Zm4.02.336a15.09,15.09,0,0,1-1.974,3.531l-.645-.771a14.732,14.732,0,0,0,1.961-3.74c-.644-.952-1.274-1.821-1.919-2.606l.63-.6a24.3,24.3,0,0,1,1.653,2.115,28.355,28.355,0,0,0,.743-3.39l.953.168a27.144,27.144,0,0,1-1.009,4.217c.532.813,1.106,1.723,1.709,2.732l-.687.672C72.36,72.718,71.883,71.948,71.421,71.219Z" style="fill: #444"/>
      <path d="M86.066,76l-.267-.981,1.345.042a.516.516,0,0,0,.589-.574V64.776h-9.19V76.052h-.994V63.809H88.727v10.9A1.124,1.124,0,0,1,87.481,76ZM81.4,70.883a14.374,14.374,0,0,1-1.835,3.53l-.644-.784a14.34,14.34,0,0,0,1.807-3.684c-.673-.9-1.331-1.709-1.975-2.451l.63-.6a22.4,22.4,0,0,1,1.667,1.989,27.916,27.916,0,0,0,.659-3.166l.924.168a28.33,28.33,0,0,1-.883,3.951c.533.728,1.093,1.527,1.654,2.395l-.673.672C82.284,72.186,81.835,71.513,81.4,70.883Zm4.02.336a15.09,15.09,0,0,1-1.974,3.531l-.645-.771a14.732,14.732,0,0,0,1.961-3.74c-.644-.952-1.274-1.821-1.919-2.606l.63-.6a24.3,24.3,0,0,1,1.653,2.115,28.355,28.355,0,0,0,.743-3.39l.953.168a27.144,27.144,0,0,1-1.009,4.217c.532.813,1.106,1.723,1.709,2.732l-.687.672C86.36,72.718,85.883,71.948,85.421,71.219Z" style="fill: #444"/>
      <path d="M100.71,63.431a12.415,12.415,0,0,1-1.26,2.718h2.885v.981H97.657v.658a13.47,13.47,0,0,1-.2,1.947h5.688v.98h-5.1q1.03,2.836,5.436,4.413l-.589.938c-3.081-1.247-4.986-2.941-5.743-5.07a7.379,7.379,0,0,1-1.065,2.1,9.235,9.235,0,0,1-4.664,2.886l-.547-.883a8.8,8.8,0,0,0,4.483-2.717,6.537,6.537,0,0,0,.8-1.667H91.129v-.98H96.41a10.772,10.772,0,0,0,.21-1.947V67.13H91.927v-.981h6.4a14.128,14.128,0,0,0,1.415-2.984Zm-4.636,2.241-.91.462a16.67,16.67,0,0,0-1.612-2.394l.925-.448A21.763,21.763,0,0,1,96.074,65.672Z" style="fill: #444"/>
    </g>
  </g>
  <g>
    <rect x="3.635" y="140.9" width="135.2" height="48.1" style="fill: #bbb;opacity: 0.600000023841858;isolation: isolate"/>
    <rect x="1.535" y="139" width="135.2" height="48.1" style="fill: #fff;stroke: #e5e5e5"/>
    <g style="isolation: isolate">
      <path d="M48.961,162.809l-.322-1.078a15.717,15.717,0,0,0,3.264-5.743l.952.448a16.768,16.768,0,0,1-1.373,3.068v9.371H50.474v-7.844A18.139,18.139,0,0,1,48.961,162.809Zm6.808-5.014.42-1.807.98.1c-.139.588-.266,1.163-.392,1.709h4.231v.98H56.525c-.154.561-.308,1.106-.476,1.625h5.533v.967H55.727c-.224.644-.462,1.232-.686,1.778H60.8v.869a10.926,10.926,0,0,1-2.816,2.942c.659.35,1.289.728,1.905,1.134l-.574.869a24.432,24.432,0,0,0-5.267-2.774l.532-.784q1.3.5,2.522,1.093a11.657,11.657,0,0,0,2.619-2.409h-6c.364-.87.714-1.78,1.036-2.718H52.421V160.4h2.647c.169-.546.323-1.093.463-1.625H53.038v-.98Z" style="fill: #444"/>
      <path d="M74.938,158.187H71.632a12.433,12.433,0,0,0,.336,2.423,7.792,7.792,0,0,0,.35,1.177,12.074,12.074,0,0,0,1.275-2.844l.784.406a11.938,11.938,0,0,1-1.61,3.39l.126.2c.364.49.7.743,1.008.743.252,0,.518-.589.8-1.751l.812.476c-.42,1.471-.925,2.214-1.513,2.214a2.237,2.237,0,0,1-1.611-.855,3.258,3.258,0,0,1-.224-.28,7.061,7.061,0,0,1-1.456,1.19l-.519-.784a6.292,6.292,0,0,0,1.5-1.247A9.325,9.325,0,0,1,71.1,161.1a13.763,13.763,0,0,1-.434-2.913H64.95v1.835a7.318,7.318,0,0,1-1.414,4.483l-.757-.687a6.012,6.012,0,0,0,1.191-3.8v-2.76h6.654c-.029-.42-.029-.868-.029-1.316h.967c0,.462,0,.9.028,1.316h1.527a9.66,9.66,0,0,0-.463-1.092l.9-.154A12.591,12.591,0,0,1,74,157.262h.939Zm-9.609,6.779a11.2,11.2,0,0,1-1.625,3.418l-.855-.545A9.624,9.624,0,0,0,64.4,164.77Zm4.874-5.659v.827H65.6v-.827Zm-.322,1.724v2.857H65.973v-2.857ZM67.5,168.623c-.827,0-1.233-.449-1.233-1.331v-2.675H67.29v2.465c0,.392.168.589.518.589h2.984a.8.8,0,0,0,.616-.211A3.149,3.149,0,0,0,71.716,166l.952.321a3.326,3.326,0,0,1-.546,2,1.854,1.854,0,0,1-1.148.294Zm1.442-6.808H66.925V163.1h2.017Zm1.709,4.426-.756.533a13.209,13.209,0,0,0-1.513-1.934l.757-.461A14.275,14.275,0,0,1,70.651,166.241Zm4.875,1.261-.8.574a19.189,19.189,0,0,0-1.919-2.507l.812-.5A17.322,17.322,0,0,1,75.526,167.5Z" style="fill: #444"/>
      <path d="M81.682,161.339a5.777,5.777,0,0,0,.644-1.135l.967.1a7.12,7.12,0,0,1-.519,1.037h3.614a7.09,7.09,0,0,0-.63-.953l.854-.28a8.563,8.563,0,0,1,.771,1.233h1.933v.9H85.534a9.7,9.7,0,0,0,4.076,2l-.406.854c-.35-.111-.673-.238-.981-.349v4.118h-.9v-.6H84.708v.6h-.9v-4.413h3.74a8.485,8.485,0,0,1-3.082-2.213H82.1a8.947,8.947,0,0,1-3.152,2.213h3.516v4.413h-.9v-.6h-2.4v.6h-.882v-4.133c-.378.141-.756.267-1.148.393l-.463-.826a11.224,11.224,0,0,0,4.146-2.06H76.961v-.9Zm.686-4.805v3.4H78.1v-3.4Zm-.924.869H79.006v1.681h2.438Zm.126,9.987v-2.1h-2.4v2.1Zm6.709-10.856v3.4H83.923v-3.4Zm-.952,10.856v-2.1H84.708v2.1Zm.042-9.987H84.848v1.681h2.521Z" style="fill: #444"/>
    </g>
  </g>
  <g>
    <line x1="211.5" y1="73.5" x2="138.701" y2="73.5" style="fill: none;stroke: #888;stroke-miterlimit: 10"/>
    <polygon points="211 78 217 73.6 211 69 211 78" style="fill: #888"/>
  </g>
  <g>
    <line x1="428.035" y1="73.5" x2="355.236" y2="73.5" style="fill: none;stroke: #888;stroke-miterlimit: 10"/>
    <polygon points="427.535 78 433.535 73.6 427.535 69 427.535 78" style="fill: #888"/>
  </g>
  <g>
    <line x1="644" y1="73.5" x2="571.201" y2="73.5" style="fill: none;stroke: #888;stroke-miterlimit: 10"/>
    <polygon points="643.5 78 649.5 73.6 643.5 69 643.5 78" style="fill: #888"/>
  </g>
  <g style="isolation: isolate">
    <path d="M173.719,52.437v.851h-5.085v2.866h4.8v.852h-4.8v3.143h5.289V61H167.65V52.437Z" style="fill: #878787"/>
    <path d="M181.651,52.437v.851h-3.023V61h-.971V53.288h-3.022v-.851Z" style="fill: #878787"/>
    <path d="M183.693,52.437v7.712h4.954V61h-5.925V52.437Z" style="fill: #878787"/>
  </g>
  <g style="isolation: isolate">
    <path d="M374.007,41.874c-.084.229-.168.444-.239.66h2.506v.707a4.822,4.822,0,0,1-1.331,2.051c.576.265,1.128.528,1.655.817l-.468.67a17.611,17.611,0,0,0-1.846-.947,9.837,9.837,0,0,1-2.987,1.331l-.408-.72a10.7,10.7,0,0,0,2.53-.983c-.527-.227-1.079-.455-1.667-.671.313-.528.588-1.019.829-1.5h-1.415v-.755h1.751q.161-.395.287-.756Zm-.479-3.37V36.213h.8V38.5h2.182v.756h-2.182v.132c.647.324,1.319.7,1.99,1.1l-.444.672q-.9-.72-1.546-1.151v1.558h-.8V39.3a5.613,5.613,0,0,1-2.147,2.458l-.42-.7a4.97,4.97,0,0,0,1.931-1.8h-1.7V38.5Zm-.672-.575-.623.287a11.248,11.248,0,0,0-.8-1.559l.684-.227A10.353,10.353,0,0,1,372.856,37.929Zm2.639,5.36h-2.063a8.92,8.92,0,0,1-.648,1.152c.48.168.935.335,1.368.516A4.655,4.655,0,0,0,375.5,43.289Zm.887-6.608a8.035,8.035,0,0,1-.923,1.548l-.612-.313a7.54,7.54,0,0,0,.911-1.522ZM377.7,40.8a10.641,10.641,0,0,1-.708,1.476l-.539-.661a15.215,15.215,0,0,0,1.426-5.432l.84.143c-.072.612-.168,1.188-.263,1.715h3.166v.828h-.781a12.813,12.813,0,0,1-1.1,5.133,7.408,7.408,0,0,0,2.219,2.495l-.468.707a7.843,7.843,0,0,1-2.159-2.423,8.06,8.06,0,0,1-2.219,2.412l-.444-.72a7.066,7.066,0,0,0,2.219-2.5A16.515,16.515,0,0,1,377.7,40.8Zm.42-1.308a16.4,16.4,0,0,0,1.163,3.622,12.833,12.833,0,0,0,.767-4.245h-1.775Z" style="fill: #878787"/>
    <path d="M383.333,47.092l-.18-.816a8.11,8.11,0,0,0,.912.06c.3,0,.455-.18.455-.516V42.882c-.479.18-.947.348-1.415.491l-.216-.839a14.973,14.973,0,0,0,1.631-.492v-2.71h-1.438V38.5h1.438V36.237h.84V38.5h1.151v.828H385.36v2.362c.384-.168.756-.347,1.115-.54v.852c-.372.192-.743.36-1.115.528v3.5c0,.7-.336,1.056-1.008,1.056Zm3.2.107-.672-.6a13.141,13.141,0,0,0,1.3-6.164V36.681h6.32V39.6h-2.254v1.415h2.567v.779h-2.567v1.476h2.015V47.2h-.8v-.588h-3.25V47.2h-.8V43.266h2V41.79h-2.447A13.993,13.993,0,0,1,386.536,47.2ZM388,39.6v.84c0,.191-.012.382-.012.575h2.4V39.6Zm0-2.112v1.333h4.641V37.484Zm4.437,8.36V44.033h-3.25v1.811Z" style="fill: #878787"/>
    <path d="M397.624,41,397,41.61a11.571,11.571,0,0,0-1.932-1.775l.624-.6A14.139,14.139,0,0,1,397.624,41Zm.011,1.871a38.055,38.055,0,0,1-1.606,4.186l-.792-.348a34.184,34.184,0,0,0,1.643-4.138Zm.241-4.966-.612.612a11.51,11.51,0,0,0-1.811-1.559l.612-.6A12.813,12.813,0,0,1,397.876,37.9Zm4.425-1.7v.756h3.191v.72H402.3v.791h2.735v.7H402.3v.816h3.527V40.7h-7.857V39.98h3.49v-.816h-2.614v-.7h2.614v-.791h-3.106v-.72h3.106V36.2Zm-2.423,11h-.815v-5.72h5.7v4.665a.863.863,0,0,1-.96.983h-1.151l-.216-.768,1.115.037c.241,0,.372-.144.372-.432v-.707h-4.042Zm4.042-5.012h-4.042v.886h4.042Zm-4.042,2.41h4.042v-.852h-4.042Z" style="fill: #878787"/>
    <path d="M409.564,40.975l-.612.611a12.049,12.049,0,0,0-1.895-1.751l.624-.6A13.626,13.626,0,0,1,409.564,40.975Zm-.061,1.751a39.855,39.855,0,0,1-1.583,4.305l-.863-.372a39.814,39.814,0,0,0,1.679-4.245Zm.313-4.81-.624.612a11.481,11.481,0,0,0-1.859-1.571l.612-.588A11.555,11.555,0,0,1,409.816,37.916Zm1.019,2.615-.78-.492a11.328,11.328,0,0,0,1.332-3.49l.839.181c-.1.455-.216.886-.348,1.306h1.631V36.262h.888v1.774h2.639v.828H414.4v2.255h3.19v.827h-2.123v3.79c0,.3.121.456.384.456h.5a.534.534,0,0,0,.384-.156,5.177,5.177,0,0,0,.252-1.9l.791.264a6.113,6.113,0,0,1-.384,2.243,1.011,1.011,0,0,1-.852.336h-.958a.9.9,0,0,1-.72-.289,1.144,1.144,0,0,1-.252-.754v-4H413.15a8.708,8.708,0,0,1-.42,2.615,5,5,0,0,1-2.6,2.638l-.576-.7a4.585,4.585,0,0,0,2.327-2.159,6.835,6.835,0,0,0,.432-2.4h-2.242v-.827h3.441V38.864H411.6A12.479,12.479,0,0,1,410.835,40.531Z" style="fill: #878787"/>
    <path d="M379.441,50.77a10.68,10.68,0,0,1-1.08,2.327h2.471v.839h-4.006V54.5a11.512,11.512,0,0,1-.168,1.667h4.87v.839h-4.366c.588,1.619,2.134,2.879,4.653,3.778l-.5.8c-2.638-1.067-4.269-2.519-4.917-4.342a6.311,6.311,0,0,1-.911,1.8,7.919,7.919,0,0,1-3.994,2.471l-.468-.756a7.545,7.545,0,0,0,3.838-2.326,5.609,5.609,0,0,0,.684-1.428h-4.306v-.839h4.521a9.133,9.133,0,0,0,.18-1.667v-.564H371.92V53.1H377.4a12.158,12.158,0,0,0,1.211-2.555Zm-3.971,1.919-.779.4a14.336,14.336,0,0,0-1.379-2.051l.791-.383A18.55,18.55,0,0,1,375.47,52.689Z" style="fill: #878787"/>
    <path d="M387.71,51.094v.8h-.779v6.584c.276-.1.539-.18.8-.264v.839c-.265.084-.54.168-.8.24V61.66H386.1V59.525c-.959.24-1.942.467-2.974.66l-.215-.816.754-.12V51.9h-.731v-.8ZM386.1,53.66V51.9H384.5V53.66Zm0,2.494V54.44H384.5v1.714Zm0,2.568V56.946H384.5v2.147C385.048,58.974,385.576,58.854,386.1,58.722Zm4.786-5.505a15.959,15.959,0,0,0,1.175-2.591l.792.3a14.693,14.693,0,0,1-1.1,2.291h1.788v.815h-2.459v.36a15.587,15.587,0,0,1-.1,1.7h2.759v.827H391.26a8.078,8.078,0,0,0,2.663,4.03l-.6.636a9.162,9.162,0,0,1-2.591-4.054,6.587,6.587,0,0,1-2.759,4.1l-.515-.684a5.745,5.745,0,0,0,2.579-4.03h-2.316V56.1h2.435c.049-.48.084-.984.1-1.511v-.552H387.9v-.815Zm-.683-.649-.649.445a14.126,14.126,0,0,0-1.127-1.9l.659-.42A15.909,15.909,0,0,1,390.206,52.568Z" style="fill: #878787"/>
    <path d="M397.516,54.272v5.337c.432-.36.911-.768,1.415-1.248l.216.888a16.634,16.634,0,0,1-2.4,1.919l-.336-.779a.645.645,0,0,0,.275-.5V55.1h-1.763v-.828Zm.863-1.7-.587.6a13.078,13.078,0,0,0-2.063-1.858l.6-.588A13.669,13.669,0,0,1,398.379,52.568Zm3.55,1.632V50.59h.888V54.2H405.9v.864h-3.082v6.56h-.888v-6.56h-3.25V54.2Z" style="fill: #878787"/>
    <path d="M416.4,53.313v4.713h-1.427v.8H417.7V59.6h-2.722v2.027h-.851V59.6h-3.407a2.719,2.719,0,0,1-.492.9,4.093,4.093,0,0,1-2,1.092l-.443-.684a3.876,3.876,0,0,0,1.763-.9,3.068,3.068,0,0,0,.252-.408h-2.723v-.768h2.938c.012-.12.025-.239.025-.336v-.467h-1.524V53.313Zm-8.539.168-.72-.445a7.053,7.053,0,0,0,1.583-2.518l.827.179c-.095.241-.2.481-.3.708h2.975v.732h-1.571a6.848,6.848,0,0,1,.5.731l-.72.265a9.88,9.88,0,0,0-.647-1h-.924A7.883,7.883,0,0,1,407.861,53.481Zm7.7,1.222v-.719h-6.212V54.7Zm0,1.283v-.67h-6.212v.67Zm0,.624h-6.212v.745h6.212ZM410.9,58.493a2.933,2.933,0,0,1-.024.336h3.251v-.8H410.9Zm2.1-5.253-.707-.456a6.229,6.229,0,0,0,1.3-2.242l.839.18-.252.647h3.418V52.1h-2a7.621,7.621,0,0,1,.527.78l-.72.264a6.951,6.951,0,0,0-.683-1.044H413.8A7.78,7.78,0,0,1,412.994,53.24Z" style="fill: #878787"/>
  </g>
  <g style="isolation: isolate">
    <path d="M583.725,54.049a3.344,3.344,0,0,1,1.128,2.135h-.984a2.419,2.419,0,0,0-.864-1.488,2.856,2.856,0,0,0-1.835-.551,2.726,2.726,0,0,0-2.218.983,3.911,3.911,0,0,0-.816,2.626,3.827,3.827,0,0,0,.792,2.555,3.13,3.13,0,0,0,2.518,1,4.944,4.944,0,0,0,1.344-.193,4.1,4.1,0,0,0,1.079-.479V58.45h-2.686V57.6h3.657v3.5a4.517,4.517,0,0,1-1.5.779,6.707,6.707,0,0,1-1.991.288,3.943,3.943,0,0,1-3.154-1.3,4.605,4.605,0,0,1-1.043-3.119,4.7,4.7,0,0,1,1.031-3.142,3.641,3.641,0,0,1,2.986-1.343A3.869,3.869,0,0,1,583.725,54.049Z" style="fill: #878787"/>
    <path d="M587.531,53.437V62h-.971V53.437Z" style="fill: #878787"/>
    <path d="M594.489,53.929a2.794,2.794,0,0,1,.984,2.039H594.5a2.158,2.158,0,0,0-.719-1.38,2.5,2.5,0,0,0-1.619-.455,2.9,2.9,0,0,0-1.488.311,1.187,1.187,0,0,0,.12,2.135,9.972,9.972,0,0,0,1.572.54,11.531,11.531,0,0,1,2.23.827,2.021,2.021,0,0,1,1.068,1.811,2.078,2.078,0,0,1-.9,1.775,4.14,4.14,0,0,1-2.422.636,3.881,3.881,0,0,1-2.375-.647,3.049,3.049,0,0,1-1.115-2.351h.971a2.354,2.354,0,0,0,.78,1.643,2.762,2.762,0,0,0,1.739.479,3.265,3.265,0,0,0,1.7-.4,1.211,1.211,0,0,0,.647-1.079,1.391,1.391,0,0,0-.851-1.26,10.248,10.248,0,0,0-1.811-.623,14.316,14.316,0,0,1-1.967-.7,1.808,1.808,0,0,1-.983-1.654,1.951,1.951,0,0,1,.947-1.739,3.809,3.809,0,0,1,2.182-.576A3.545,3.545,0,0,1,594.489,53.929Z" style="fill: #878787"/>
    <path d="M598.811,54.672h7.052v3.79h-4.749a7.8,7.8,0,0,1-.6.815h5.373V59.9a6.974,6.974,0,0,1-2.374,1.895,15.729,15.729,0,0,0,3.862.576l-.205.791a15.038,15.038,0,0,1-4.689-.911,17.778,17.778,0,0,1-5.133.959L597,62.456a18.972,18.972,0,0,0,4.462-.647,9.952,9.952,0,0,1-2.195-1.44,11.77,11.77,0,0,1-1.679.948l-.444-.732a6.856,6.856,0,0,0,3.034-2.123h-1.535V54.876a8.929,8.929,0,0,1-1.391,1.3l-.516-.671a6.963,6.963,0,0,0,2.519-3.406l.851.143c-.1.289-.2.577-.323.852H606.8v.756h-7.412Q599.117,54.277,598.811,54.672Zm6.213,1.56v-.876H599.5v.876Zm0,.647H599.5v.888h5.529Zm-.2,3.106h-4.929a10.387,10.387,0,0,0,2.6,1.475A7.032,7.032,0,0,0,604.82,59.985Z" style="fill: #878787"/>
    <path d="M611.975,60.225a11.9,11.9,0,0,1-2.783,2.627l-.551-.72a11.191,11.191,0,0,0,2.722-2.459Zm1.619-7.988a10.413,10.413,0,0,1-.2,1.295h3.25v2.532c0,.288.132.443.408.443h.935c.228,0,.372-.191.432-.552a8.511,8.511,0,0,0,.072-1.138l.84.251a7.271,7.271,0,0,1-.216,1.427,1,1,0,0,1-1.116.827h-1.079a1,1,0,0,1-1.14-1.138V54.36h-2.614a6.381,6.381,0,0,1-.78,1.536,5.981,5.981,0,0,1-3.178,1.942l-.336-.791a5.348,5.348,0,0,0,2.795-1.7,4.858,4.858,0,0,0,.551-.984h-2.89v-.828h3.166a9.274,9.274,0,0,0,.24-1.39Zm.072,6.189V57.191h.887v1.235h4.617v.84h-4.617v2.818a.931.931,0,0,1-1.055,1.043h-1.487l-.18-.851c.48.036.935.06,1.367.06a.414.414,0,0,0,.468-.468v-2.6h-4.738v-.84Zm5.588,3.814-.671.66A17.334,17.334,0,0,0,616,60.285l.588-.551A19.34,19.34,0,0,1,619.254,62.24Z" style="fill: #878787"/>
    <path d="M625.138,52.909a14.408,14.408,0,0,1-1.691,2.447,12.073,12.073,0,0,1-2.4,2.05l-.467-.755a8.67,8.67,0,0,0,2.218-1.834,12.622,12.622,0,0,0,1.583-2.364ZM622.355,57.8v-.828h7.161a36.373,36.373,0,0,1-.228,3.634,4.232,4.232,0,0,1-.588,1.918,1.653,1.653,0,0,1-1.3.577h-2.183l-.24-.852q1.044.036,1.979.036a1.22,1.22,0,0,0,1.271-.828,14.166,14.166,0,0,0,.408-3.657h-2.986a9.16,9.16,0,0,1-1.2,3.118,8.189,8.189,0,0,1-2.758,2.314l-.552-.719a7.959,7.959,0,0,0,2.507-1.979,7.387,7.387,0,0,0,1.127-2.734Zm9.127-1.128-.575.684a9.559,9.559,0,0,1-3.886-4.642l.744-.42A8.467,8.467,0,0,0,631.482,56.675Z" style="fill: #878787"/>
    <path d="M635.363,63.163h-.852V57.035a13.541,13.541,0,0,1-1.619,3.322l-.371-.935a10.909,10.909,0,0,0,1.942-4.042h-1.7v-.828h1.751V52.2h.852v2.351h1.619v.828h-1.619v.647c.564.588,1.139,1.248,1.727,1.992l-.468.683a20.255,20.255,0,0,0-1.259-1.775ZM643.1,53.017a15.778,15.778,0,0,1-4.57.864v2.158H643.4v.828h-1.787v6.309h-.863V56.867h-2.219V57a10.594,10.594,0,0,1-1.823,6.1l-.611-.636A9.485,9.485,0,0,0,637.689,57v-3.85a15.25,15.25,0,0,0,4.978-.9Z" style="fill: #878787"/>
  </g>
  <g>
    <polyline points="217.535 133 181.535 133 181.535 195 218.535 195" style="fill: none;stroke: #888;stroke-miterlimit: 10"/>
    <g>
      <rect x="220.45" y="109.9" width="135.2" height="48.1" style="fill: #bbb;opacity: 0.600000023841858;isolation: isolate"/>
      <rect x="218.35" y="108" width="135.2" height="48.1" style="fill: #fff;stroke: #e5e5e5"/>
      <g style="isolation: isolate">
        <path d="M259.183,131.8l-.644-.827a10.915,10.915,0,0,0,2.675-5.575l1.022.182a18.318,18.318,0,0,1-.546,2.031h3v-2.493h1.022v2.493h4.609v.981H265.71v3.236h4.329v.98H265.71v3.558h5.5v1.009h-12.34v-1.009h5.813V132.8H260.57v-.98h4.118v-3.236h-3.362A10.392,10.392,0,0,1,259.183,131.8Z" style="fill: #444"/>
        <path d="M284.1,126.5l-.645.644h1.709v.966h-4.314a23.046,23.046,0,0,0,.532,4.119c.084.35.183.672.28.981a15.615,15.615,0,0,0,1.7-3.937l.91.393a16.1,16.1,0,0,1-2.185,4.677,6.846,6.846,0,0,0,.63,1.163c.462.672.84,1.009,1.121,1.009.252-.014.49-.742.7-2.185l.91.5c-.335,1.863-.812,2.8-1.442,2.8a2.687,2.687,0,0,1-1.892-1.26,7.21,7.21,0,0,1-.7-1.162,9.654,9.654,0,0,1-3.445,2.59l-.561-.84a9.4,9.4,0,0,0,3.558-2.773,15.867,15.867,0,0,1-.532-1.682,23.757,23.757,0,0,1-.616-4.4H275v2.326h3.432a23.991,23.991,0,0,1-.323,4.58,1.276,1.276,0,0,1-1.316.939c-.337,0-.743-.029-1.191-.056l-.308-.911q.819.042,1.387.042c.308-.014.5-.224.588-.616a25.927,25.927,0,0,0,.154-3.026H275v.42a10.953,10.953,0,0,1-1.653,6.037l-.77-.685a9.575,9.575,0,0,0,1.4-5.352v-4.664h5.786c-.029-.7-.042-1.415-.042-2.172h1.036c0,.785.014,1.5.042,2.172h2.619a10.484,10.484,0,0,0-1.694-1.569l.644-.616A12.559,12.559,0,0,1,284.1,126.5Z" style="fill: #444"/>
        <path d="M290.181,131.628c-.1.265-.2.517-.281.77h2.928v.826a5.648,5.648,0,0,1-1.555,2.4c.672.307,1.317.616,1.933.952l-.546.784a20.414,20.414,0,0,0-2.158-1.106,11.455,11.455,0,0,1-3.487,1.554l-.476-.84a12.634,12.634,0,0,0,2.955-1.148c-.616-.267-1.261-.533-1.947-.785.364-.616.686-1.191.967-1.751h-1.653V132.4h2.045c.126-.309.238-.6.336-.883Zm-.561-3.937v-2.675h.939v2.675h2.549v.883h-2.549v.154c.756.378,1.541.813,2.325,1.288l-.518.784q-1.051-.839-1.807-1.344v1.821h-.939v-2.661a6.567,6.567,0,0,1-2.507,2.871l-.49-.813a5.792,5.792,0,0,0,2.255-2.1h-1.989v-.883Zm-.784-.672-.729.336a12.964,12.964,0,0,0-.938-1.821l.8-.266A11.894,11.894,0,0,1,288.836,127.019Zm3.082,6.261h-2.41a10.419,10.419,0,0,1-.756,1.345c.56.2,1.092.392,1.6.6A5.439,5.439,0,0,0,291.918,133.28Zm1.036-7.718a9.329,9.329,0,0,1-1.078,1.807l-.715-.364a8.917,8.917,0,0,0,1.065-1.779Zm1.541,4.8a12.3,12.3,0,0,1-.827,1.722l-.63-.77a17.761,17.761,0,0,0,1.667-6.346l.981.169c-.084.714-.2,1.387-.309,2h3.7v.966h-.91a14.964,14.964,0,0,1-1.289,6,8.67,8.67,0,0,0,2.591,2.913l-.546.826a9.169,9.169,0,0,1-2.521-2.829,9.414,9.414,0,0,1-2.591,2.816l-.519-.841a8.237,8.237,0,0,0,2.591-2.913A19.416,19.416,0,0,1,294.5,130.367Zm.49-1.528a19.261,19.261,0,0,0,1.359,4.231,14.988,14.988,0,0,0,.9-4.959h-2.073Z" style="fill: #444"/>
        <path d="M301.057,137.72l-.21-.952a9.469,9.469,0,0,0,1.064.071c.35,0,.532-.211.532-.6V132.8c-.56.21-1.106.407-1.652.575l-.252-.981a17.793,17.793,0,0,0,1.9-.574v-3.166h-1.68v-.967h1.68v-2.647h.981v2.647h1.345v.967h-1.345v2.76q.672-.3,1.3-.631v1c-.434.223-.869.42-1.3.616v4.09c0,.812-.392,1.232-1.176,1.232Zm3.74.126-.785-.7a15.335,15.335,0,0,0,1.513-7.2v-4.384h7.382v3.4h-2.633v1.654h3v.91h-3v1.724h2.353v4.593h-.938v-.685h-3.8v.685h-.939v-4.593h2.339v-1.724h-2.857A16.339,16.339,0,0,1,304.8,137.846Zm1.709-8.881v.981c0,.225-.014.449-.014.673h2.8v-1.654Zm0-2.464v1.554h5.421V126.5Zm5.183,9.763v-2.115h-3.8v2.115Z" style="fill: #444"/>
      </g>
    </g>
    <g>
      <rect x="220.45" y="171.9" width="135.2" height="48.1" style="fill: #bbb;opacity: 0.600000023841858;isolation: isolate"/>
      <rect x="218.35" y="170" width="135.2" height="48.1" style="fill: #fff;stroke: #e5e5e5"/>
      <g style="isolation: isolate">
        <path d="M260.472,192.1v-3.025h-1.765v-.981h4.538v.981h-1.793V192.1h1.6v.967h-1.6v3.319c.645-.195,1.261-.42,1.877-.658v.967a32.11,32.11,0,0,1-4.552,1.358l-.253-.965c.659-.113,1.3-.253,1.948-.421v-3.6h-1.555V192.1Zm10.449-4.412v.981H268.4a16.274,16.274,0,0,1-.63,1.764v9.4h-.981v-7.466a15.71,15.71,0,0,1-3.026,3.656l-.616-.8a14.38,14.38,0,0,0,4.272-6.555h-3.614v-.981Zm.589,7.592-.841.589a29.336,29.336,0,0,0-2.717-3.88l.77-.49A31.077,31.077,0,0,1,271.51,195.28Z" style="fill: #444"/>
        <path d="M276.741,196.527a22.633,22.633,0,0,1-3.922,1.526l-.266-1.091q.735-.169,1.47-.379V191.4h-1.457v-.98h1.457v-3.334h1.023v3.334h1.247v.98h-1.247v4.833c.574-.225,1.135-.463,1.695-.728Zm7.466-4.412v4.412h-1.765v1.793c0,.294.126.448.392.448h1.149a.452.452,0,0,0,.378-.182,4.44,4.44,0,0,0,.2-1.359l.9.28a3.916,3.916,0,0,1-.421,1.849,1.2,1.2,0,0,1-.882.3h-1.6a.99.99,0,0,1-1.107-1.135v-1.989h-1.359a3.824,3.824,0,0,1-1.05,2.045,6.446,6.446,0,0,1-2.913,1.289l-.379-.9a6,6,0,0,0,2.536-.98,2.8,2.8,0,0,0,.868-1.457h-1.513v-4.412Zm-3.824-4.049c-.14-.378-.266-.714-.406-1.022l1.064-.182a10.309,10.309,0,0,1,.364,1.2h3.362v.841H283.3a8.086,8.086,0,0,1-.518,1.484h2.395v.855h-8.4v-.855h2.2a10.236,10.236,0,0,0-.5-1.484h-1.275v-.841Zm2.886,5.884v-1.023h-4.707v1.023Zm0,.714h-4.707V195.7h4.707Zm-.911-5.757h-2.886c.154.462.308.952.448,1.484H281.8A6.155,6.155,0,0,0,282.358,188.907Z" style="fill: #444"/>
        <path d="M290.181,193.628c-.1.265-.2.517-.281.77h2.928v.826a5.648,5.648,0,0,1-1.555,2.4c.672.307,1.317.616,1.933.952l-.546.784a20.414,20.414,0,0,0-2.158-1.106,11.455,11.455,0,0,1-3.487,1.554l-.476-.84a12.634,12.634,0,0,0,2.955-1.148c-.616-.267-1.261-.533-1.947-.785.364-.616.686-1.191.967-1.751h-1.653V194.4h2.045c.126-.309.238-.6.336-.883Zm-.561-3.937v-2.675h.939v2.675h2.549v.883h-2.549v.154c.756.378,1.541.813,2.325,1.288l-.518.784q-1.051-.839-1.807-1.344v1.821h-.939v-2.661a6.567,6.567,0,0,1-2.507,2.871l-.49-.813a5.792,5.792,0,0,0,2.255-2.1h-1.989v-.883Zm-.784-.672-.729.336a12.964,12.964,0,0,0-.938-1.821l.8-.266A11.894,11.894,0,0,1,288.836,189.019Zm3.082,6.261h-2.41a10.419,10.419,0,0,1-.756,1.345c.56.2,1.092.392,1.6.6A5.439,5.439,0,0,0,291.918,195.28Zm1.036-7.718a9.329,9.329,0,0,1-1.078,1.807l-.715-.364a8.917,8.917,0,0,0,1.065-1.779Zm1.541,4.8a12.3,12.3,0,0,1-.827,1.722l-.63-.77a17.761,17.761,0,0,0,1.667-6.346l.981.169c-.084.714-.2,1.387-.309,2h3.7v.966h-.91a14.964,14.964,0,0,1-1.289,6,8.67,8.67,0,0,0,2.591,2.913l-.546.826a9.169,9.169,0,0,1-2.521-2.829,9.414,9.414,0,0,1-2.591,2.816l-.519-.841a8.237,8.237,0,0,0,2.591-2.913A19.416,19.416,0,0,1,294.5,192.367Zm.49-1.528a19.261,19.261,0,0,0,1.359,4.231,14.988,14.988,0,0,0,.9-4.959h-2.073Z" style="fill: #444"/>
        <path d="M301.057,199.72l-.21-.952a9.469,9.469,0,0,0,1.064.071c.35,0,.532-.211.532-.6V194.8c-.56.21-1.106.407-1.652.575l-.252-.981a17.793,17.793,0,0,0,1.9-.574v-3.166h-1.68v-.967h1.68v-2.647h.981v2.647h1.345v.967h-1.345v2.76q.672-.3,1.3-.631v1c-.434.223-.869.42-1.3.616v4.09c0,.812-.392,1.232-1.176,1.232Zm3.74.126-.785-.7a15.335,15.335,0,0,0,1.513-7.2v-4.384h7.382v3.4h-2.633v1.654h3v.91h-3v1.724h2.353v4.593h-.938v-.685h-3.8v.685h-.939v-4.593h2.339v-1.724h-2.857A16.339,16.339,0,0,1,304.8,199.846Zm1.709-8.881v.981c0,.225-.014.449-.014.673h2.8v-1.654Zm0-2.464v1.554h5.421V188.5Zm5.183,9.763v-2.115h-3.8v2.115Z" style="fill: #444"/>
      </g>
    </g>
  </g>
  <g>
    <line x1="181.535" y1="164" x2="139.976" y2="164" style="fill: none;stroke: #888;stroke-miterlimit: 10"/>
    <polygon points="144.535 159.5 138.535 163.9 144.535 168.5 144.535 159.5" style="fill: #888"/>
  </g>
  <g>
    <line x1="68.65" y1="138.5" x2="68.65" y2="97.942" style="fill: none;stroke: #888;stroke-miterlimit: 10"/>
    <polygon points="73.15 102.5 68.75 96.5 64.15 102.5 73.15 102.5" style="fill: #888"/>
  </g>
  <g>
    <rect x="436.1" y="49.9" width="137.9" height="50" style="fill: #bbb;opacity: 0.600000023841858;isolation: isolate"/>
    <rect x="434" y="48" width="137.9" height="50" style="fill: #fff;stroke: #e5e5e5"/>
    <g>
      <g style="isolation: isolate">
        <path d="M512.336,67.4v.994h-3.529V77.4h-1.135V68.389h-3.53V67.4Z" style="fill: #444"/>
        <path d="M518.047,67.4a3.394,3.394,0,0,1,2.213.672,2.285,2.285,0,0,1,.8,1.849,2.436,2.436,0,0,1-.449,1.457,2.655,2.655,0,0,1-1.218.8,2.5,2.5,0,0,1,1.526.812,2.378,2.378,0,0,1,.561,1.625,2.484,2.484,0,0,1-1.037,2.185,4.333,4.333,0,0,1-2.423.6h-4.44v-10Zm-3.32,4.37h3.04a2.579,2.579,0,0,0,1.6-.434,1.583,1.583,0,0,0,.561-1.3,1.489,1.489,0,0,0-.547-1.261,2.586,2.586,0,0,0-1.6-.406h-3.054Zm0,4.664h3.194a3.184,3.184,0,0,0,1.666-.391,1.6,1.6,0,0,0,.743-1.444,1.662,1.662,0,0,0-.644-1.428,2.887,2.887,0,0,0-1.765-.449h-3.194Z" style="fill: #444"/>
        <path d="M528.365,70.77a2.891,2.891,0,0,1,.644,1.976V77.4h-1.05V76.177a3.373,3.373,0,0,1-1.107.967,3.679,3.679,0,0,1-1.807.448,2.606,2.606,0,0,1-1.737-.546,1.827,1.827,0,0,1-.672-1.457,2.041,2.041,0,0,1,.994-1.863,4.646,4.646,0,0,1,2.521-.616l1.738-.028V72.7c0-1.219-.631-1.822-1.891-1.822a2.305,2.305,0,0,0-1.3.323,1.574,1.574,0,0,0-.729,1.037l-1.106-.085a2.484,2.484,0,0,1,1.12-1.694,3.84,3.84,0,0,1,2.087-.5A2.966,2.966,0,0,1,528.365,70.77Zm-2.143,3.18c-1.625.028-2.438.56-2.438,1.611a.994.994,0,0,0,.406.826,1.78,1.78,0,0,0,1.093.323,2.74,2.74,0,0,0,1.821-.672,1.935,1.935,0,0,0,.785-1.5v-.617Z" style="fill: #444"/>
        <path d="M536.275,72.214h-1.092a1.544,1.544,0,0,0-.561-.981,2.241,2.241,0,0,0-1.33-.337,2.041,2.041,0,0,0-1.177.28.845.845,0,0,0-.463.757c0,.309.2.574.617.784a10.664,10.664,0,0,0,1.5.477,6.673,6.673,0,0,1,1.863.672,1.682,1.682,0,0,1,.868,1.485c0,1.485-1.022,2.241-3.067,2.241-1.906,0-2.942-.84-3.11-2.507h1.093a1.88,1.88,0,0,0,.6,1.233,2.353,2.353,0,0,0,1.386.336c1.289,0,1.948-.421,1.948-1.232a1.047,1.047,0,0,0-.687-.94,10.688,10.688,0,0,0-1.54-.462,6.22,6.22,0,0,1-1.793-.644,1.547,1.547,0,0,1-.827-1.414,1.657,1.657,0,0,1,.812-1.457,3.338,3.338,0,0,1,1.989-.547C535.1,69.958,536.079,70.7,536.275,72.214Z" style="fill: #444"/>
        <path d="M543.429,71.134a5.021,5.021,0,0,1,.841,2.956h-5.716a3.116,3.116,0,0,0,.658,1.891,2.056,2.056,0,0,0,1.625.673,2.247,2.247,0,0,0,1.443-.448,2.534,2.534,0,0,0,.729-1.135h1.12a3.271,3.271,0,0,1-.98,1.709,3.373,3.373,0,0,1-2.312.812,3.241,3.241,0,0,1-2.493-1.022,4.495,4.495,0,0,1-.042-5.478,3.045,3.045,0,0,1,2.493-1.134A3.091,3.091,0,0,1,543.429,71.134Zm-4.16.393a2.785,2.785,0,0,0-.687,1.695h4.525c-.14-1.555-.911-2.326-2.284-2.326A2.026,2.026,0,0,0,539.269,71.527Z" style="fill: #444"/>
      </g>
      <g style="clip-path: url(#c)">
        <g style="clip-path: url(#d)">
          <rect x="461.206" y="53.5" width="38.794" height="39" style="fill: #00a4ff"/>
        </g>
      </g>
    </g>
  </g>
</svg>
