<?xml version="1.0" encoding="UTF-8"?>
<svg width="48px" height="48px" viewBox="0 0 48 48" version="1.1" xmlns="http://www.w3.org/2000/svg" xmlns:xlink="http://www.w3.org/1999/xlink">
    <!-- Generator: Sketch 51.2 (57519) - http://www.bohemiancoding.com/sketch -->
    <title>毫秒级响应</title>
    <desc>Created with Sketch.</desc>
    <defs></defs>
    <g id="毫秒级响应" stroke="none" stroke-width="1" fill="none" fill-rule="evenodd">
        <path d="M6.70710678,7.70710678 L9.64283352,10.6428335 L8.95431427,11.3498173 C5.16013566,15.2457475 3,20.4512962 3,26 C3,37.5979797 12.4020203,47 24,47 C35.5979797,47 45,37.5979797 45,26 C45,20.2728506 42.697755,14.9140416 38.6845219,10.9878326 L37.9618294,10.2808113 L39.6061316,8.63650911 L37.95839,10.2842507 L37.2582126,9.71353923 C33.5391698,6.68216423 28.8999089,5 24,5 C18.9218389,5 14.1256315,6.80744258 10.3478343,10.0427003 L9.6447838,10.6447838 L6.70710678,7.70710678 Z" id="Combined-Shape" stroke="#334966" stroke-width="2"></path>
        <rect id="Rectangle-56" fill="#334966" x="18" y="0" width="12" height="2"></rect>
        <rect id="Rectangle-56-Copy" fill="#334966" x="23" y="0" width="2" height="5"></rect>
        <circle id="Oval-22" fill="#00A4FF" cx="24" cy="26" r="10"></circle>
        <path d="M22.6378269,23.3263668 C23.0465965,23.1176891 23.5095544,23 24,23 C25.6568542,23 27,24.3431458 27,26 C27,27.6568542 25.6568542,29 24,29 C22.3431458,29 21,27.6568542 21,26 C21,25.5643512 21.0928598,25.1503909 21.2598657,24.7768328 L14.0659063,17.5828733 L15.4801198,16.1686598 L22.6378269,23.3263668 Z" id="Combined-Shape" fill="#334966"></path>
        <path d="M8,26 L10,26 C10,33.7319865 16.2680135,40 24,40 C31.7319865,40 38,33.7319865 38,26 C38,18.2680135 31.7319865,12 24,12 L24,10 C32.836556,10 40,17.163444 40,26 C40,34.836556 32.836556,42 24,42 C15.163444,42 8,34.836556 8,26 Z" id="Combined-Shape" fill="#334966" fill-rule="nonzero"></path>
    </g>
</svg>