<?xml version="1.0" encoding="utf-8"?>
<!-- Generator: Adobe Illustrator 19.0.0, SVG Export Plug-In . SVG Version: 6.00 Build 0)  -->
<svg version="1.1" id="图层_1" xmlns="http://www.w3.org/2000/svg" xmlns:xlink="http://www.w3.org/1999/xlink" x="0px" y="0px"
	 width="830px" height="385px" viewBox="0 0 830 385" style="enable-background:new 0 0 830 385;" xml:space="preserve">
<style type="text/css">
	.st0{fill:#CEE3FF;}
	.st1{opacity:0.6;enable-background:new    ;}
	.st2{fill:#BBBBBB;}
	.st3{fill:#FFFFFF;}
	.st4{fill:#E5E5E5;}
	.st5{enable-background:new    ;}
	.st6{fill:#444444;}
	.st7{fill:#878787;}
	.st8{fill-rule:evenodd;clip-rule:evenodd;fill:#878787;}
	.st9{fill-rule:evenodd;clip-rule:evenodd;fill:#444444;}
	.st10{fill:#999999;}
</style>
<g id="XMLID_122_">
	<path id="XMLID_732_" class="st0" d="M82.997,1.496h664.006v116.998H82.997V1.496"/>
</g>
<g id="XMLID_66_" class="st1">
	<rect id="XMLID_731_" x="84.997" y="241.162" class="st2" width="326" height="50"/>
</g>
<g id="XMLID_65_" class="st1">
	<rect id="XMLID_730_" x="421.819" y="241.162" class="st2" width="326" height="50"/>
</g>
<g id="XMLID_64_" class="st1">
	<rect id="XMLID_729_" x="84.997" y="301.163" class="st2" width="326" height="50"/>
</g>
<g id="XMLID_38_" class="st1">
	<rect id="XMLID_728_" x="421.819" y="301.163" class="st2" width="326" height="50"/>
</g>
<g id="XMLID_13_" class="st1">
	<rect id="XMLID_727_" x="104.998" y="47.496" class="st2" width="148" height="50"/>
</g>
<g id="XMLID_12_" class="st1">
	<rect id="XMLID_726_" x="264" y="47.496" class="st2" width="148" height="50"/>
</g>
<g id="XMLID_11_" class="st1">
	<rect id="XMLID_725_" x="422" y="47.496" class="st2" width="148" height="50"/>
</g>
<g id="XMLID_1_" class="st1">
	<rect id="XMLID_699_" x="580.001" y="47.496" class="st2" width="148" height="50"/>
</g>
<g id="XMLID_124_">
	<rect id="XMLID_721_" x="102.998" y="45.496" class="st3" width="148" height="50"/>
	<path id="XMLID_722_" class="st4" d="M251.498,95.996h-149v-51h149V95.996z M103.498,94.996h147v-49h-147V94.996z"/>
</g>
<g id="XMLID_6_">
	<rect id="XMLID_717_" x="261.999" y="45.496" class="st3" width="148" height="50"/>
	<path id="XMLID_718_" class="st4" d="M410.5,95.996h-149v-51h149V95.996z M262.5,94.996h147v-49h-147V94.996z"/>
</g>
<g id="XMLID_8_">
	<rect id="XMLID_713_" x="420" y="45.496" class="st3" width="148" height="50"/>
	<path id="XMLID_714_" class="st4" d="M568.5,95.996h-149v-51h149V95.996z M420.5,94.996h147v-49h-147V94.996z"/>
</g>
<g id="XMLID_10_">
	<rect id="XMLID_709_" x="578.001" y="45.496" class="st3" width="148" height="50"/>
	<path id="XMLID_710_" class="st4" d="M726.501,95.996h-149v-51h149V95.996z M578.501,94.996h147v-49h-147V94.996z"/>
</g>
<g id="XMLID_123_" class="st5">
	<path id="XMLID_700_" class="st6" d="M164.566,64.548h11.074V65.5h-10.108v9.94h10.556v0.979h-11.522V64.548z M168.528,68.23
		c-0.383,0.588-0.816,1.097-1.302,1.525l-0.756-0.686c0.933-0.831,1.624-1.867,2.072-3.108l0.924,0.252
		c-0.159,0.439-0.303,0.803-0.434,1.092h5.586v0.925h-3.038v0.783c-0.019,0.458-0.051,0.85-0.098,1.177h3.962v0.952h-4.172
		c-0.187,0.635-0.471,1.218-0.854,1.75c-0.709,0.887-1.862,1.581-3.458,2.086l-0.546-0.854c1.54-0.476,2.632-1.11,3.276-1.904
		c0.252-0.373,0.438-0.732,0.56-1.077h-3.78V70.19h4.018c0.065-0.42,0.103-0.813,0.112-1.177V68.23H168.528z M171.678,71.828
		c1.344,0.606,2.604,1.367,3.78,2.282l-0.56,0.84c-1.176-0.98-2.417-1.773-3.724-2.38L171.678,71.828z"/>
	<path id="XMLID_704_" class="st6" d="M178.09,64.618h4.046v0.784c-0.374,1.251-0.822,2.571-1.344,3.962
		c0.793,1.251,1.218,2.361,1.274,3.332c-0.019,0.635-0.159,1.092-0.42,1.372c-0.374,0.326-1.031,0.499-1.974,0.518l-0.336-1.021
		c0.299,0.037,0.485,0.056,0.56,0.056c0.457-0.028,0.774-0.107,0.952-0.238c0.159-0.14,0.238-0.368,0.238-0.686
		c0-0.934-0.429-1.993-1.288-3.178c0.569-1.438,1.018-2.759,1.344-3.963h-2.072V76.91h-0.98V64.618z M182.626,70.47h7.56v0.952
		h-2.324v3.794c0,0.373,0.135,0.561,0.406,0.561h0.588c0.168,0,0.299-0.047,0.392-0.141c0.149-0.121,0.247-0.732,0.294-1.834
		l0.924,0.309c-0.084,1.231-0.229,1.979-0.434,2.239c-0.196,0.206-0.518,0.317-0.966,0.337h-1.106c-0.354,0-0.625-0.117-0.812-0.351
		c-0.196-0.242-0.294-0.537-0.294-0.882v-4.032h-1.302c-0.112,1.493-0.355,2.586-0.728,3.276c-0.476,0.84-1.26,1.554-2.352,2.142
		l-0.63-0.826c0.961-0.513,1.652-1.101,2.072-1.764c0.354-0.625,0.574-1.568,0.658-2.828h-1.946V70.47z M190.032,65.318v2.842
		h-0.966v-1.89h-5.46v1.89h-0.98v-2.842h3.178c-0.159-0.438-0.327-0.826-0.504-1.162l1.036-0.168c0.177,0.42,0.341,0.863,0.49,1.33
		H190.032z M183.662,67.979h5.348v0.909h-5.348V67.979z"/>
</g>
<g id="XMLID_17_" class="st1">
	<rect id="XMLID_506_" x="84.997" y="158.163" class="st2" width="142" height="50"/>
</g>
<g id="XMLID_16_">
	<rect id="XMLID_695_" x="82.997" y="156.163" class="st3" width="142" height="50"/>
	<path id="XMLID_696_" class="st4" d="M225.497,206.663h-143v-51h143V206.663z M83.497,205.663h141v-49h-141V205.663z"/>
</g>
<g id="XMLID_15_" class="st5">
	<path id="XMLID_660_" class="st6" d="M112.585,179.008h3.024v6.188c0.374-0.327,0.854-0.784,1.442-1.372l0.28,1.063
		c-0.784,0.784-1.652,1.508-2.604,2.171l-0.392-0.91c0.205-0.205,0.308-0.42,0.308-0.645v-5.53h-2.058V179.008z M114.293,174.893
		c0.943,0.709,1.731,1.418,2.366,2.128l-0.686,0.699c-0.607-0.69-1.4-1.404-2.38-2.142L114.293,174.893z M121.461,174.71
		c1.204,1.82,2.59,3.248,4.158,4.284l-0.49,0.868c-1.577-1.064-2.921-2.44-4.032-4.13c-1.045,1.633-2.413,3.038-4.102,4.214
		l-0.49-0.868c1.699-1.186,3.108-2.642,4.228-4.368H121.461z M125.451,182.369c-1.746,2.436-4.335,4.186-7.77,5.25l-0.434-0.966
		c3.285-0.989,5.754-2.618,7.406-4.887L125.451,182.369z M122.413,178.714c-1.036,1.382-2.562,2.371-4.578,2.968l-0.392-0.867
		c1.867-0.542,3.276-1.429,4.228-2.66L122.413,178.714z M123.925,180.59c-1.26,1.681-3.122,2.884-5.586,3.612l-0.406-0.896
		c2.314-0.672,4.064-1.769,5.25-3.29L123.925,180.59z"/>
	<path id="XMLID_667_" class="st6" d="M128.937,180.395v-4.536h4.76c-0.159-0.42-0.327-0.794-0.504-1.12l1.036-0.183
		c0.168,0.439,0.317,0.873,0.448,1.303h4.326v0.994h-9.058v3.542c-0.056,2.939-0.677,5.306-1.862,7.098l-0.756-0.672
		c0.812-1.232,1.316-2.842,1.512-4.83c-0.588,0.514-1.279,1.018-2.072,1.512l-0.294-0.979c0.868-0.477,1.685-1.031,2.45-1.666
		L128.937,180.395z M127.453,177.105c0.476,0.84,0.882,1.722,1.218,2.646l-0.812,0.351c-0.392-1.055-0.803-1.946-1.232-2.675
		L127.453,177.105z M131.037,178.281h7.364v0.952c-0.849,0.812-1.843,1.601-2.982,2.365v4.606c0,0.896-0.458,1.344-1.372,1.344
		h-1.694l-0.238-0.896c0.634,0.019,1.148,0.027,1.54,0.027c0.513,0,0.77-0.261,0.77-0.783v-4.803
		c0.915-0.522,1.787-1.143,2.618-1.861h-6.006V178.281z"/>
	<path id="XMLID_671_" class="st6" d="M142.153,179.722c-0.448,0.654-0.91,1.246-1.386,1.778l-0.322-1.078
		c1.362-1.68,2.361-3.621,2.996-5.824l0.938,0.435c-0.336,1.092-0.747,2.104-1.232,3.038v9.52h-0.994V179.722z M144.323,176.573
		h4.312c-0.206-0.561-0.448-1.102-0.728-1.624l0.966-0.267c0.28,0.598,0.509,1.162,0.686,1.694l-0.532,0.196h4.41v0.952h-9.114
		V176.573z M152.485,182.705v4.858h-0.98v-0.757h-5.18v0.757h-0.98v-4.858H152.485z M145.611,178.659h6.622v0.91h-6.622V178.659z
		 M145.611,180.632h6.622v0.924h-6.622V180.632z M146.325,185.855h5.18v-2.212h-5.18V185.855z"/>
	<path id="XMLID_678_" class="st6" d="M156.923,183.754c-0.336,1.288-0.803,2.403-1.4,3.347l-0.854-0.547
		c0.597-0.886,1.031-1.885,1.302-2.995L156.923,183.754z M156.671,175.76h3.08c0.196-0.354,0.341-0.728,0.434-1.12l1.05,0.141
		c-0.112,0.336-0.252,0.663-0.42,0.979h4.62v6.847h-8.764V175.76z M157.651,177.791h6.804v-1.147h-6.804V177.791z M157.651,179.75
		h6.804v-1.147h-6.804V179.75z M164.455,181.739v-1.176h-6.804v1.176H164.455z M159.121,187.353c-0.803,0-1.204-0.388-1.204-1.162
		v-2.702h1.022v2.492c0,0.308,0.159,0.462,0.476,0.462h3.108c0.317,0,0.537-0.075,0.658-0.225c0.177-0.205,0.294-0.756,0.35-1.651
		l0.966,0.308c-0.112,1.167-0.308,1.886-0.588,2.156c-0.262,0.215-0.658,0.322-1.19,0.322H159.121z M160.843,182.985
		c0.728,0.7,1.307,1.339,1.736,1.918l-0.77,0.532c-0.429-0.616-0.999-1.279-1.708-1.988L160.843,182.985z M165.365,183.306
		c0.877,1.102,1.563,2.087,2.058,2.954l-0.798,0.561c-0.495-0.887-1.176-1.895-2.044-3.024L165.365,183.306z"/>
	<path id="XMLID_687_" class="st6" d="M173.821,174.724h1.036v4.326h5.194v0.98h-5.194v5.992h6.384v0.979h-12.46v-0.979h5.04
		V174.724z"/>
	<path id="XMLID_689_" class="st6" d="M185.021,174.962c-0.065,0.317-0.173,0.775-0.322,1.372h2.114v0.952h-2.408
		c-0.308,0.952-0.667,1.829-1.078,2.632l-0.798-0.504c0.709-1.428,1.218-2.978,1.526-4.648L185.021,174.962z M183.747,179.121h2.828
		v0.91h-1.148v1.75h1.54v0.938h-1.54v3.263c0.392-0.196,0.798-0.462,1.218-0.799l0.168,0.868c-0.709,0.504-1.475,0.901-2.296,1.19
		l-0.378-0.84c0.214-0.104,0.322-0.252,0.322-0.448v-3.234h-1.554v-0.938h1.554v-1.75h-0.714V179.121z M195.437,186.373
		l-0.266,0.952h-1.946c-0.28,0-0.7-0.01-1.26-0.028c-0.635-0.009-1.199-0.093-1.694-0.252c-0.476-0.168-0.877-0.443-1.204-0.826
		c-0.177-0.205-0.331-0.308-0.462-0.308c-0.252,0-0.681,0.541-1.288,1.624l-0.602-0.756c0.598-0.905,1.087-1.475,1.47-1.708v-4.746
		h-1.134v-0.896h2.058v5.698c0.056,0.037,0.103,0.084,0.14,0.14c0.28,0.364,0.635,0.645,1.064,0.841
		c0.42,0.148,0.891,0.237,1.414,0.266c0.709,0.019,1.237,0.028,1.582,0.028C193.832,186.401,194.541,186.391,195.437,186.373z
		 M187.807,175.019c0.663,0.867,1.157,1.604,1.484,2.212l-0.756,0.531c-0.355-0.681-0.845-1.441-1.47-2.281L187.807,175.019z
		 M189.767,182.621h2.618v-1.722h-2.296l-0.196-0.84c0.476-0.775,0.91-1.731,1.302-2.87h-1.4v-0.883h1.666l0.42-1.582l0.896,0.211
		c-0.093,0.42-0.214,0.877-0.364,1.371h2.674v0.883h-2.954c-0.383,1.11-0.78,2.053-1.19,2.827h1.442v-1.89h0.938v1.89h1.638v0.883
		h-1.638v1.722h2.03v0.896h-2.03v2.324h-0.938v-2.324h-2.618V182.621z"/>
</g>
<g id="XMLID_41_">
	<rect id="XMLID_656_" x="82.997" y="239.162" class="st3" width="326" height="50"/>
	<path id="XMLID_657_" class="st4" d="M409.497,289.662h-327v-51h327V289.662z M83.497,288.662h325v-49h-325V288.662z"/>
</g>
<g id="XMLID_40_" class="st5">
	<path id="XMLID_626_" class="st6" d="M208.561,258.074c-0.317,0.989-0.733,1.965-1.246,2.926v9.59h-1.022v-7.938
		c-0.504,0.7-1.013,1.325-1.526,1.876l-0.336-1.078c1.456-1.68,2.515-3.616,3.178-5.811L208.561,258.074z M209.387,258.354h6.608
		v4.409h-2.814v1.526h4.032v0.98h-3.038c0.802,1.409,1.895,2.627,3.276,3.653l-0.644,0.882c-1.381-1.222-2.529-2.734-3.444-4.535
		h-0.182v5.292h-1.008v-5.292h-0.168c-0.933,1.941-2.114,3.458-3.542,4.55l-0.56-0.91c1.372-0.942,2.469-2.156,3.29-3.64h-2.912
		v-0.98h3.892v-1.526h-2.786V258.354z M215.001,261.798v-2.478h-4.62v2.478H215.001z"/>
	<path id="XMLID_630_" class="st6" d="M219.145,258.256h4.018v0.798c-0.383,1.27-0.845,2.604-1.386,4.005
		c0.821,1.26,1.26,2.389,1.316,3.388c0,0.588-0.131,1.026-0.392,1.315c-0.346,0.327-0.966,0.5-1.862,0.519l-0.322-1.022
		c0.28,0.038,0.462,0.057,0.546,0.057c0.429-0.028,0.709-0.103,0.84-0.225c0.14-0.13,0.21-0.345,0.21-0.644
		c0-0.952-0.439-2.03-1.316-3.234c0.56-1.409,1.018-2.744,1.372-4.004h-2.044v11.368h-0.98V258.256z M223.667,258.788h2.996
		c-0.131-0.41-0.252-0.732-0.364-0.966l1.022-0.168c0.158,0.476,0.275,0.854,0.35,1.134h3.248v0.868h-1.302
		c-0.103,0.457-0.262,0.924-0.476,1.399h2.072v0.854h-8.12v-0.854h2.268c-0.093-0.345-0.238-0.812-0.434-1.399h-1.26V258.788z
		 M223.989,262.806h6.44v4.215h-2.66v0.993h3.556v0.868h-3.556v1.681h-1.036v-1.681h-3.626v-0.868h3.626v-0.993h-2.744V262.806z
		 M224.969,264.57h4.522v-0.952h-4.522V264.57z M229.491,266.208v-0.882h-4.522v0.882H229.491z M228.175,261.056
		c0.214-0.484,0.373-0.951,0.476-1.399h-2.716c0.149,0.448,0.285,0.915,0.406,1.399H228.175z"/>
	<path id="XMLID_637_" class="st6" d="M236.967,257.864h1.022v11.13h1.988v-11.13h1.022v11.13h4.2v0.979h-12.404v-0.979h4.172
		V257.864z M233.999,260.384c0.737,1.923,1.391,4.093,1.96,6.511l-0.924,0.237c-0.504-2.239-1.134-4.396-1.89-6.468L233.999,260.384
		z M244.821,260.664c-0.56,2.445-1.265,4.578-2.114,6.398l-0.91-0.322c0.821-1.661,1.531-3.771,2.128-6.328L244.821,260.664z"/>
	<path id="XMLID_641_" class="st6" d="M251.835,257.822c-0.14,0.336-0.317,0.69-0.532,1.063h6.104v0.813
		c-0.896,1.036-1.988,1.918-3.276,2.646c1.587,0.672,3.351,1.106,5.292,1.303l-0.462,0.938c-2.212-0.252-4.186-0.812-5.922-1.68
		c-1.717,0.793-3.71,1.362-5.978,1.708l-0.462-0.952c2.025-0.28,3.808-0.729,5.348-1.344c-0.766-0.448-1.494-0.976-2.184-1.582
		c-0.551,0.494-1.134,0.929-1.75,1.302l-0.616-0.813c1.699-0.97,2.837-2.15,3.416-3.542L251.835,257.822z M253.165,263.912
		c0,0.504-0.047,1.036-0.14,1.596h4.928c-0.028,2.371-0.243,3.785-0.644,4.242c-0.411,0.467-1.111,0.7-2.1,0.7
		c-0.233,0-0.779-0.019-1.638-0.056l-0.252-0.91l1.652,0.069c0.831-0.009,1.358-0.187,1.582-0.531
		c0.214-0.336,0.34-1.204,0.378-2.604h-4.144c-0.103,0.346-0.252,0.695-0.448,1.05c-0.719,1.27-2.361,2.311-4.928,3.122
		l-0.672-0.826c2.305-0.672,3.822-1.521,4.55-2.548c0.196-0.289,0.341-0.555,0.434-0.798h-4.172v-0.91h4.452
		c0.112-0.504,0.168-1.036,0.168-1.596H253.165z M255.965,259.838h-5.348l-0.182,0.225c0.774,0.681,1.638,1.269,2.59,1.764
		C254.136,261.275,255.116,260.613,255.965,259.838z"/>
	<path id="XMLID_645_" class="st6" d="M261.173,258.298h4.004v0.798c-0.411,1.308-0.873,2.628-1.386,3.963
		c0.672,1.241,1.036,2.37,1.092,3.388c0,0.588-0.117,1.026-0.35,1.315c-0.336,0.317-0.91,0.485-1.722,0.504l-0.322-1.021
		c0.28,0.037,0.462,0.056,0.546,0.056c0.364-0.027,0.597-0.103,0.7-0.224c0.122-0.14,0.182-0.35,0.182-0.63
		c0-0.961-0.374-2.039-1.12-3.234c0.579-1.437,1.041-2.758,1.386-3.962h-2.03v11.326h-0.98V258.298z M266.451,267.021
		c-0.243,1.166-0.602,2.192-1.078,3.08l-0.84-0.532c0.457-0.803,0.802-1.713,1.036-2.73L266.451,267.021z M272.387,265.97h-6.944
		v-0.867h5.978v-1.051h-5.67v-0.867h5.67v-1.064h-5.46v-0.812l-0.546,0.392l-0.588-0.771c1.372-0.896,2.296-1.982,2.772-3.262
		l1.008,0.126c-0.103,0.271-0.233,0.569-0.392,0.896h3.248v0.741c-0.373,0.626-0.798,1.224-1.274,1.792h2.198V265.97z
		 M267.669,259.572c-0.438,0.606-0.971,1.157-1.596,1.651h3.038c0.411-0.466,0.821-1.017,1.232-1.651H267.669z M268.229,270.45
		c-0.765,0-1.148-0.43-1.148-1.288v-2.492h0.938v2.282c0,0.392,0.168,0.588,0.504,0.588h1.512c0.214,0,0.373-0.052,0.476-0.154
		c0.103-0.131,0.182-0.546,0.238-1.246l0.868,0.295c-0.084,0.933-0.243,1.517-0.476,1.75c-0.206,0.177-0.518,0.266-0.938,0.266
		H268.229z M269.293,266.348c0.542,0.607,0.957,1.135,1.246,1.582l-0.756,0.532c-0.271-0.467-0.672-1.017-1.204-1.651
		L269.293,266.348z M272.191,266.572c0.476,0.831,0.919,1.769,1.33,2.813l-0.84,0.378c-0.439-1.138-0.892-2.108-1.358-2.911
		L272.191,266.572z"/>
	<path id="XMLID_653_" class="st6" d="M274.921,261.504h2.492v-2.058c-0.616,0.103-1.349,0.191-2.198,0.266l-0.21-0.966
		c2.007-0.168,3.78-0.476,5.32-0.924l0.35,0.938c-0.625,0.178-1.372,0.351-2.24,0.519v2.226h2.268v0.966h-2.268v0.561
		c0.7,0.672,1.4,1.428,2.1,2.268l-0.56,0.854c-0.532-0.84-1.045-1.577-1.54-2.212v6.58h-1.022v-6.385
		c-0.569,1.308-1.335,2.516-2.296,3.626l-0.448-1.134c1.25-1.223,2.142-2.608,2.674-4.158h-2.422V261.504z M285.211,263.408
		c0.747,1.988,1.423,4.289,2.03,6.902l-1.008,0.252c-0.121-0.561-0.233-1.046-0.336-1.456c-1.848,0.363-3.841,0.699-5.978,1.008
		l-0.196-0.98c0.289-0.084,0.462-0.2,0.518-0.35l3.024-10.724l1.008,0.14l-3.066,10.724c1.736-0.252,3.22-0.504,4.452-0.756
		c-0.392-1.54-0.84-3.023-1.344-4.452L285.211,263.408z"/>
</g>
<g id="XMLID_43_">
	<rect id="XMLID_622_" x="419.819" y="239.162" class="st3" width="326" height="50"/>
	<path id="XMLID_623_" class="st4" d="M746.319,289.662h-327v-51h327V289.662z M420.319,288.662h325v-49h-325V288.662z"/>
</g>
<g id="XMLID_42_" class="st5">
	<path id="XMLID_585_" class="st6" d="M541.967,258.284h4.326v0.798c-0.401,1.204-0.9,2.521-1.498,3.948
		c0.877,1.278,1.344,2.427,1.4,3.443c0,0.579-0.146,0.999-0.435,1.261c-0.401,0.308-1.105,0.471-2.113,0.489l-0.322-1.021
		c0.28,0.037,0.462,0.056,0.546,0.056c0.532-0.027,0.882-0.098,1.05-0.21c0.178-0.121,0.267-0.313,0.267-0.574
		c0-0.988-0.477-2.086-1.429-3.289c0.672-1.531,1.181-2.847,1.526-3.948h-2.324v11.34h-0.994V258.284z M546.489,259.811h3.5
		c-0.215-0.784-0.435-1.438-0.658-1.96l1.008-0.169c0.243,0.636,0.467,1.345,0.672,2.129h3.038v0.979h-4.634
		c-0.019,0.729-0.052,1.535-0.098,2.422h4.004c-0.028,2.968-0.136,4.891-0.322,5.769c-0.252,0.933-0.873,1.414-1.862,1.441
		c-0.279,0-0.686-0.023-1.218-0.069l-0.322-0.938c0.747,0.037,1.228,0.056,1.442,0.056c0.598-0.027,0.971-0.392,1.12-1.092
		c0.074-0.616,0.121-2.011,0.14-4.186h-3.065c-0.141,1.176-0.411,2.239-0.813,3.191c-0.541,1.177-1.297,2.254-2.268,3.234
		l-0.742-0.7c1.157-1.26,1.923-2.412,2.296-3.458c0.364-1.063,0.574-2.254,0.63-3.57l0.07-2.1h-1.918V259.811z"/>
	<path id="XMLID_588_" class="st6" d="M555.659,258.97h3.304v-1.26h1.022v1.26h3.668v-1.26h1.021v1.26h3.305v0.938h-3.305v1.33
		h-1.021v-1.33h-3.668v1.33h-1.022v-1.33h-3.304V258.97z M556.513,263.464c0.943,0.653,1.708,1.265,2.297,1.834l-0.687,0.687
		c-0.56-0.588-1.33-1.204-2.31-1.849L556.513,263.464z M559.117,266.866c-0.551,1.297-1.26,2.548-2.128,3.752l-0.91-0.476
		c0.905-1.223,1.633-2.45,2.184-3.683L559.117,266.866z M557.409,261.07c0.924,0.653,1.685,1.283,2.282,1.89l-0.687,0.7
		c-0.551-0.606-1.315-1.246-2.296-1.918L557.409,261.07z M565.795,262.526h-4.144v6.132c0,0.476,0.261,0.714,0.784,0.714h2.884
		c0.746,0,1.204-0.136,1.372-0.406c0.195-0.308,0.336-0.9,0.42-1.777l0.966,0.308c-0.121,1.325-0.354,2.146-0.7,2.464
		c-0.317,0.252-0.915,0.378-1.792,0.378h-3.542c-0.942,0-1.414-0.443-1.414-1.33v-7.392h6.174v3.766c0,0.766-0.396,1.162-1.189,1.19
		c-0.598,0-1.176-0.014-1.736-0.042l-0.252-0.938c0.653,0.047,1.19,0.07,1.61,0.07c0.373,0,0.56-0.196,0.56-0.588V262.526z"/>
	<path id="XMLID_594_" class="st6" d="M570.975,262.722c-0.447,0.654-0.909,1.246-1.386,1.778l-0.321-1.078
		c1.362-1.68,2.36-3.621,2.995-5.824l0.938,0.435c-0.336,1.092-0.747,2.104-1.232,3.038v9.52h-0.994V262.722z M573.146,259.572
		h4.312c-0.205-0.561-0.448-1.102-0.728-1.624l0.966-0.267c0.279,0.598,0.509,1.162,0.686,1.694l-0.532,0.196h4.41v0.952h-9.113
		V259.572z M581.307,265.704v4.858h-0.979v-0.757h-5.18v0.757h-0.98v-4.858H581.307z M574.433,261.658h6.622v0.91h-6.622V261.658z
		 M574.433,263.632h6.622v0.924h-6.622V263.632z M575.147,268.854h5.18v-2.212h-5.18V268.854z"/>
	<path id="XMLID_601_" class="st6" d="M585.745,266.754c-0.336,1.288-0.803,2.403-1.4,3.347l-0.854-0.547
		c0.597-0.886,1.031-1.885,1.302-2.995L585.745,266.754z M585.493,258.76h3.08c0.196-0.354,0.341-0.728,0.434-1.12l1.05,0.141
		c-0.111,0.336-0.252,0.663-0.42,0.979h4.62v6.847h-8.764V258.76z M586.473,260.79h6.805v-1.147h-6.805V260.79z M586.473,262.75
		h6.805v-1.147h-6.805V262.75z M593.277,264.738v-1.176h-6.805v1.176H593.277z M587.943,270.353c-0.803,0-1.204-0.388-1.204-1.162
		v-2.702h1.021v2.492c0,0.308,0.159,0.462,0.477,0.462h3.107c0.317,0,0.537-0.075,0.658-0.225c0.178-0.205,0.294-0.756,0.351-1.651
		l0.966,0.308c-0.112,1.167-0.309,1.886-0.588,2.156c-0.262,0.215-0.658,0.322-1.19,0.322H587.943z M589.665,265.984
		c0.729,0.7,1.307,1.339,1.736,1.918l-0.771,0.532c-0.429-0.616-0.999-1.279-1.708-1.988L589.665,265.984z M594.188,266.306
		c0.877,1.102,1.563,2.087,2.058,2.954l-0.798,0.561c-0.495-0.887-1.176-1.895-2.044-3.024L594.188,266.306z"/>
	<path id="XMLID_610_" class="st6" d="M599.381,260.622h8.933v4.592h-5.32c-0.103,0.271-0.22,0.509-0.35,0.714h7.363v0.841h-3.107
		c0.746,0.635,1.848,1.134,3.304,1.497l-0.378,0.826c-1.848-0.597-3.169-1.372-3.962-2.323h-3.864
		c-0.934,0.989-2.333,1.806-4.2,2.449l-0.434-0.84c1.456-0.448,2.58-0.984,3.374-1.609h-3.108v-0.841h3.948
		c0.168-0.242,0.308-0.48,0.42-0.714h-2.618V260.622z M599.605,259.432c-0.383,0.514-0.817,0.994-1.303,1.442l-0.84-0.532
		c0.952-0.83,1.647-1.735,2.086-2.716l0.966,0.21c-0.111,0.252-0.237,0.504-0.378,0.756h3.473v0.84h-1.624
		c0.205,0.364,0.363,0.678,0.476,0.938l-0.938,0.084c-0.131-0.345-0.294-0.686-0.49-1.022H599.605z M605.457,267.51
		c1.11,0.962,1.988,1.829,2.632,2.604l-0.784,0.546c-0.299-0.373-0.531-0.648-0.699-0.826c-2.128,0.252-4.317,0.42-6.566,0.504
		l-0.266-0.756c1.231-0.494,2.276-1.283,3.136-2.366l0.91,0.252c-0.635,0.813-1.358,1.494-2.17,2.044
		c1.456-0.084,2.884-0.21,4.283-0.378c-0.242-0.252-0.644-0.639-1.203-1.162L605.457,267.51z M600.361,261.98h6.972v-0.687h-6.972
		V261.98z M600.361,263.24h6.972v-0.645h-6.972V263.24z M607.333,264.542v-0.686h-6.972v0.686H607.333z M605.387,259.432
		c-0.261,0.421-0.555,0.813-0.882,1.177l-0.826-0.519c0.691-0.728,1.199-1.549,1.526-2.464l0.952,0.196
		c-0.103,0.299-0.205,0.556-0.309,0.77h4.187v0.84h-2.086c0.168,0.271,0.341,0.584,0.518,0.938l-0.952,0.084
		c-0.158-0.383-0.341-0.724-0.546-1.022H605.387z"/>
	<path id="XMLID_618_" class="st6" d="M613.297,268.406c1.232-0.411,2.44-0.905,3.626-1.484l0.154,0.924
		c-1.531,0.729-3.169,1.377-4.914,1.946l-0.294-0.868c0.299-0.111,0.448-0.35,0.448-0.714v-5.208h3.136v-3.317h-3.836v-0.967h4.815
		v5.208h-3.136V268.406z M622.817,260.762c-0.057,2.418-0.598,4.448-1.624,6.091c0.887,1.231,1.941,2.197,3.164,2.897l-0.574,0.84
		c-1.241-0.7-2.301-1.666-3.178-2.897c-0.915,1.186-2.138,2.137-3.668,2.855l-0.631-0.826c1.597-0.699,2.843-1.661,3.738-2.884
		c-0.709-1.147-1.293-2.464-1.75-3.948c-0.289,0.552-0.588,1.027-0.896,1.429l-0.616-0.784c1.017-1.419,1.708-3.36,2.072-5.824
		l0.979,0.168c-0.094,0.579-0.224,1.218-0.392,1.918h4.466v0.966H622.817z M619.163,260.762c-0.103,0.299-0.215,0.611-0.336,0.938
		c0.448,1.614,1.041,3.033,1.778,4.256c0.802-1.446,1.218-3.178,1.246-5.194H619.163z"/>
</g>
<g id="XMLID_47_">
	<rect id="XMLID_581_" x="82.997" y="299.163" class="st3" width="326" height="50"/>
	<path id="XMLID_582_" class="st4" d="M409.497,349.663h-327v-51h327V349.663z M83.497,348.663h325v-49h-325V348.663z"/>
</g>
<g id="XMLID_46_" class="st5">
	<path id="XMLID_543_" class="st6" d="M205.019,321.071h8.61v0.91h-8.61V321.071z M212.747,330.465l-0.252-0.966l1.96,0.028
		c0.429,0,0.644-0.28,0.644-0.84v-9.395h-9.52v-0.979h10.528v10.653c0,0.999-0.476,1.498-1.428,1.498H212.747z M206.069,323.703
		h6.174v4.312h-6.174V323.703z M211.277,327.119v-2.506h-4.228v2.506H211.277z"/>
	<path id="XMLID_548_" class="st6" d="M219.439,321.211c0.849,0.729,1.563,1.447,2.142,2.156l-0.728,0.714
		c-0.504-0.662-1.213-1.391-2.128-2.184L219.439,321.211z M221.973,325.467c-0.607,1.783-1.279,3.444-2.016,4.984l-1.008-0.435
		c0.84-1.651,1.544-3.289,2.114-4.913L221.973,325.467z M219.775,317.936c0.905,0.69,1.68,1.391,2.324,2.1l-0.714,0.728
		c-0.542-0.652-1.316-1.367-2.324-2.142L219.775,317.936z M226.145,317.725h1.036v2.255h3.598v0.979h-3.598v2.618h3.976v0.979
		h-4.592c-0.896,2.129-1.68,3.641-2.352,4.536c1.783-0.187,3.505-0.457,5.166-0.812c-0.345-0.729-0.756-1.488-1.232-2.282
		l0.966-0.322c0.84,1.41,1.577,2.912,2.212,4.509l-0.952,0.42c-0.196-0.504-0.392-0.98-0.588-1.429
		c-2.054,0.411-4.345,0.737-6.874,0.98l-0.238-0.882l0.21-0.099c0.663-0.578,1.526-2.118,2.59-4.62h-3.318v-0.979h3.99v-2.618
		h-3.318v-0.979h3.318V317.725z"/>
	<path id="XMLID_553_" class="st6" d="M233.397,324.249h5.096v-1.344h1.008v1.344h5.11v0.98h-4.102
		c0.952,1.428,2.562,2.701,4.83,3.821l-0.714,0.896c-2.333-1.391-3.981-2.963-4.942-4.718h-0.182v5.264h-1.008v-5.264h-0.14
		c-1.027,1.96-2.726,3.565-5.096,4.815l-0.56-0.938c2.193-0.999,3.794-2.292,4.802-3.878h-4.102V324.249z M244.415,318.649
		c-2.735,0.569-6.3,0.854-10.696,0.854l-0.308-0.952c4.228,0,7.732-0.252,10.514-0.756L244.415,318.649z M235.091,320.189
		c0.513,0.783,0.961,1.614,1.344,2.491l-0.924,0.406c-0.411-0.952-0.873-1.815-1.386-2.59L235.091,320.189z M238.913,319.867
		c0.448,0.774,0.831,1.601,1.148,2.478l-0.98,0.238c-0.261-0.793-0.63-1.596-1.106-2.408L238.913,319.867z M244.247,320.063
		c-0.616,1.203-1.33,2.239-2.142,3.107l-0.798-0.574c0.784-0.84,1.456-1.834,2.016-2.981L244.247,320.063z"/>
	<path id="XMLID_559_" class="st6" d="M248.153,322.723c-0.448,0.654-0.91,1.246-1.386,1.778l-0.322-1.078
		c1.362-1.68,2.361-3.621,2.996-5.824l0.938,0.435c-0.336,1.092-0.747,2.104-1.232,3.038v9.52h-0.994V322.723z M250.323,319.573
		h4.312c-0.206-0.561-0.448-1.102-0.728-1.624l0.966-0.267c0.28,0.598,0.509,1.162,0.686,1.694l-0.532,0.196h4.41v0.952h-9.114
		V319.573z M258.485,325.705v4.858h-0.98v-0.757h-5.18v0.757h-0.98v-4.858H258.485z M251.611,321.659h6.622v0.91h-6.622V321.659z
		 M251.611,323.633h6.622v0.924h-6.622V323.633z M252.325,328.855h5.18v-2.212h-5.18V328.855z"/>
	<path id="XMLID_566_" class="st6" d="M271.813,325.299v3.893h1.498v0.91h-12.67v-0.91h1.568v-3.893H271.813z M261.607,318.369
		h0.994v5.712h-0.994V318.369z M263.175,329.191h1.862v-2.969h-1.862V329.191z M264.505,317.683h1.022v6.916h-1.022V317.683z
		 M266.003,329.191h1.96v-2.969h-1.96V329.191z M268.453,320.371c-0.458,1.148-1.022,2.091-1.694,2.828l-0.644-0.784
		c0.999-1.194,1.67-2.795,2.016-4.802l1.036,0.196c-0.103,0.522-0.229,1.05-0.378,1.581h4.172v0.98H268.453z M268.929,329.191h1.918
		v-2.969h-1.918V329.191z M269.923,321.323c0.766,0.961,1.339,1.792,1.722,2.492l-0.84,0.573c-0.43-0.793-0.994-1.646-1.694-2.562
		L269.923,321.323z"/>
	<path id="XMLID_575_" class="st6" d="M276.741,319.615c-0.355,0.579-0.728,1.083-1.12,1.512l-0.882-0.56
		c0.831-0.859,1.446-1.829,1.848-2.912l0.966,0.21l-0.35,0.868h3.752v0.882h-2.352c0.336,0.448,0.593,0.85,0.77,1.204l-0.924,0.35
		c-0.243-0.513-0.546-1.031-0.91-1.554H276.741z M286.933,321.562v2.533h-0.98v-1.666h-9.912v1.666h-0.98v-2.533h5.544
		c-0.14-0.337-0.285-0.64-0.434-0.91l0.98-0.168l-0.084-0.057c0.663-0.83,1.148-1.75,1.456-2.758l0.966,0.21
		c-0.112,0.336-0.215,0.621-0.308,0.854h4.046v0.882h-2.492c0.308,0.411,0.542,0.774,0.7,1.092l-0.896,0.336
		c-0.252-0.504-0.546-0.979-0.882-1.428h-0.882c-0.224,0.43-0.509,0.877-0.854,1.344l-0.756-0.462
		c0.177,0.373,0.327,0.728,0.448,1.064H286.933z M285.001,323.255v2.744h-6.986v0.966h7.63v3.599h-0.994v-0.589h-6.636v0.574h-1.008
		v-7.294H285.001z M278.015,325.188h6.006v-1.12h-6.006V325.188z M278.015,329.079h6.636v-1.302h-6.636V329.079z"/>
</g>
<g id="XMLID_45_">
	<rect id="XMLID_539_" x="419.819" y="299.163" class="st3" width="326" height="50"/>
	<path id="XMLID_540_" class="st4" d="M746.319,349.663h-327v-51h327V349.663z M420.319,348.663h325v-49h-325V348.663z"/>
</g>
<g id="XMLID_44_" class="st5">
	<path id="XMLID_507_" class="st6" d="M542.975,322.723c-0.447,0.654-0.909,1.246-1.386,1.778l-0.321-1.078
		c1.362-1.68,2.36-3.621,2.995-5.824l0.938,0.435c-0.336,1.092-0.747,2.104-1.232,3.038v9.52h-0.994V322.723z M545.146,319.573
		h4.312c-0.205-0.561-0.448-1.102-0.728-1.624l0.966-0.267c0.279,0.598,0.509,1.162,0.686,1.694l-0.532,0.196h4.41v0.952h-9.113
		V319.573z M553.307,325.705v4.858h-0.979v-0.757h-5.18v0.757h-0.98v-4.858H553.307z M546.433,321.659h6.622v0.91h-6.622V321.659z
		 M546.433,323.633h6.622v0.924h-6.622V323.633z M547.147,328.855h5.18v-2.212h-5.18V328.855z"/>
	<path id="XMLID_514_" class="st6" d="M557.745,326.755c-0.336,1.288-0.803,2.403-1.4,3.347l-0.854-0.547
		c0.597-0.886,1.031-1.885,1.302-2.995L557.745,326.755z M557.493,318.761h3.08c0.196-0.354,0.341-0.728,0.434-1.12l1.05,0.141
		c-0.111,0.336-0.252,0.663-0.42,0.979h4.62v6.847h-8.764V318.761z M558.473,320.791h6.805v-1.147h-6.805V320.791z M558.473,322.751
		h6.805v-1.147h-6.805V322.751z M565.277,324.739v-1.176h-6.805v1.176H565.277z M559.943,330.354c-0.803,0-1.204-0.388-1.204-1.162
		v-2.702h1.021v2.492c0,0.308,0.159,0.462,0.477,0.462h3.107c0.317,0,0.537-0.075,0.658-0.225c0.178-0.205,0.294-0.756,0.351-1.651
		l0.966,0.308c-0.112,1.167-0.309,1.886-0.588,2.156c-0.262,0.215-0.658,0.322-1.19,0.322H559.943z M561.665,325.985
		c0.729,0.7,1.307,1.339,1.736,1.918l-0.771,0.532c-0.429-0.616-0.999-1.279-1.708-1.988L561.665,325.985z M566.188,326.307
		c0.877,1.102,1.563,2.087,2.058,2.954l-0.798,0.561c-0.495-0.887-1.176-1.895-2.044-3.024L566.188,326.307z"/>
	<path id="XMLID_523_" class="st6" d="M571.171,320.259h4.145v-0.868h-5.488v-0.867h5.488v-0.841h1.008v0.841h5.488v0.867h-5.488
		v0.868h4.144v2.73h-4.144v0.868h4.34v1.89h1.526v0.826h-1.526v1.834h-4.34v0.924c0,0.784-0.416,1.176-1.246,1.176h-1.722
		l-0.21-0.952c0.625,0.047,1.157,0.07,1.596,0.07c0.383,0,0.574-0.178,0.574-0.532v-0.686h-4.606v-0.813h4.606v-1.021h-5.866v-0.826
		h5.866v-1.078h-4.606v-0.812h4.606v-0.868h-4.145V320.259z M575.315,322.219v-1.189h-3.137v1.189H575.315z M579.459,322.219v-1.189
		h-3.136v1.189H579.459z M576.323,324.669v1.078h3.374v-1.078H576.323z M579.697,326.573h-3.374v1.021h3.374V326.573z"/>
	<path id="XMLID_529_" class="st6" d="M590.911,320.833h1.021v1.554c-0.046,1.224-0.247,2.296-0.602,3.221h4.564v0.938h-4.998
		c-0.112,0.206-0.262,0.435-0.448,0.687c1.923,0.69,3.715,1.54,5.376,2.548l-0.561,0.868c-1.782-1.13-3.588-2.035-5.418-2.717
		c-1.129,1.102-2.897,1.979-5.306,2.633l-0.546-0.854c2.585-0.69,4.382-1.596,5.39-2.716l0.322-0.448h-6.006v-0.938h6.523
		c0.411-0.915,0.64-1.988,0.687-3.221V320.833z M595.531,319.181v2.801h-1.022v-1.862h-9.38v1.932h-1.021v-2.87h5.319
		c-0.195-0.55-0.396-1.026-0.602-1.428l1.063-0.168c0.168,0.401,0.346,0.934,0.532,1.596H595.531z M585.829,322.807
		c1.073,0.421,2.03,0.915,2.87,1.484l-0.519,0.798c-0.933-0.672-1.885-1.185-2.855-1.54L585.829,322.807z M586.669,320.679
		c0.98,0.374,1.913,0.854,2.8,1.442l-0.504,0.798c-0.942-0.672-1.871-1.181-2.786-1.525L586.669,320.679z"/>
	<path id="XMLID_534_" class="st6" d="M602.644,317.725h1.035v4.326h5.194v0.98h-5.194v5.992h6.385v0.979h-12.46v-0.979h5.04
		V317.725z"/>
	<path id="XMLID_536_" class="st6" d="M613.157,322.751c-0.495,0.653-0.999,1.246-1.512,1.778l-0.322-1.078
		c1.493-1.671,2.58-3.584,3.262-5.74l0.952,0.448c-0.373,1.12-0.831,2.142-1.372,3.065v9.366h-1.008V322.751z M615.719,319.517h2.73
		l0.42-1.806l0.979,0.099l-0.392,1.707h4.229v0.98h-4.48c-0.187,0.682-0.346,1.223-0.476,1.624h5.529v0.966h-5.852
		c-0.159,0.467-0.388,1.06-0.687,1.778h5.754v0.868c-0.597,0.979-1.535,1.96-2.813,2.939c0.635,0.336,1.27,0.714,1.904,1.134
		l-0.574,0.868c-1.699-1.167-3.453-2.09-5.264-2.771l0.531-0.784c0.868,0.336,1.708,0.7,2.521,1.092
		c1.082-0.737,1.955-1.54,2.618-2.408h-5.992c0.383-0.905,0.728-1.811,1.036-2.716h-2.338v-0.966h2.646
		c0.158-0.522,0.313-1.064,0.462-1.624h-2.492V319.517z"/>
</g>
<g id="XMLID_20_" class="st1">
	<rect id="XMLID_472_" x="256.999" y="158.163" class="st2" width="142" height="50"/>
</g>
<g id="XMLID_19_">
	<rect id="XMLID_502_" x="254.999" y="156.163" class="st3" width="142" height="50"/>
	<path id="XMLID_503_" class="st4" d="M397.499,206.663h-143v-51h143V206.663z M255.499,205.663h141v-49h-141V205.663z"/>
</g>
<g id="XMLID_18_" class="st5">
	<path id="XMLID_473_" class="st6" d="M287.064,177.245h0.84v4.592c-0.028,1.559-0.256,2.796-0.686,3.71
		c-0.42,0.858-1.106,1.535-2.058,2.03l-0.532-0.84c0.896-0.467,1.526-1.073,1.89-1.82c0.336-0.784,0.518-1.811,0.546-3.08V177.245z
		 M289.836,175.285v8.792h-0.896v-7.854h-2.898v7.854h-0.91v-8.792H289.836z M288.479,184.497c0.784,0.756,1.442,1.512,1.974,2.268
		l-0.728,0.715c-0.448-0.729-1.078-1.513-1.89-2.353L288.479,184.497z M292.805,174.809c-0.14,0.681-0.308,1.32-0.504,1.918h4.578
		c0,4.787-0.075,7.779-0.224,8.974c-0.14,1.147-0.756,1.722-1.848,1.722c-0.383,0-1.036-0.014-1.96-0.042l-0.238-0.91
		c1.045,0.037,1.727,0.057,2.044,0.057c0.588,0,0.938-0.364,1.05-1.092c0.103-0.757,0.168-3.332,0.196-7.729h-3.99
		c-0.392,0.858-0.859,1.624-1.4,2.296l-0.616-0.798c0.952-1.232,1.596-2.739,1.932-4.522L292.805,174.809z M294.037,180.884
		c0.438,1.036,0.882,2.254,1.33,3.654l-0.826,0.42l-0.308-1.008c-1.027,0.233-2.24,0.425-3.64,0.574l-0.168-0.868
		c0.542-0.43,1.209-1.997,2.002-4.704l0.91,0.294c-0.597,1.82-1.185,3.262-1.764,4.326c0.886-0.121,1.685-0.267,2.394-0.435
		c-0.214-0.634-0.448-1.26-0.7-1.876L294.037,180.884z"/>
	<path id="XMLID_479_" class="st6" d="M298.838,175.886h3.318v-1.176h1.008v1.176h3.668v-1.176h1.008v1.176h3.318v0.925h-3.318
		v1.105h-1.008v-1.105h-3.668v1.119h-1.008v-1.119h-3.318V175.886z M302.296,178.14c-0.69,1.232-1.381,2.231-2.072,2.996
		c0.672-0.074,1.339-0.158,2.002-0.252c0.485-0.709,0.816-1.208,0.994-1.498l0.91,0.336c-1.353,2.007-2.487,3.439-3.402,4.299
		c0.971-0.159,2.016-0.401,3.136-0.729v0.868c-1.456,0.401-2.884,0.686-4.284,0.854l-0.266-0.882
		c0.177-0.074,0.327-0.172,0.448-0.294c0.504-0.429,1.12-1.124,1.848-2.086l-2.436,0.322l-0.21-0.813
		c0.14-0.056,0.266-0.168,0.378-0.336c0.812-0.942,1.502-1.982,2.072-3.122L302.296,178.14z M304.354,186.401
		c-1.419,0.438-3.089,0.793-5.012,1.063l-0.126-0.952c1.923-0.242,3.635-0.583,5.138-1.021V186.401z M306.875,178.056
		c-0.122,0.486-0.248,0.925-0.378,1.316h4.13c0,3.668-0.089,5.959-0.266,6.874c-0.168,0.877-0.9,1.316-2.198,1.316
		c-0.327,0-0.882-0.015-1.666-0.042l-0.21-0.896c0.877,0.037,1.451,0.056,1.722,0.056c0.784,0,1.246-0.271,1.386-0.812
		c0.159-0.588,0.243-2.45,0.252-5.586h-3.542c-0.458,0.952-1.045,1.792-1.764,2.52l-0.574-0.741
		c1.055-1.111,1.773-2.479,2.156-4.103L306.875,178.056z M306.245,182.061c0.803,0.914,1.433,1.722,1.89,2.422L307.393,185
		c-0.458-0.746-1.087-1.572-1.89-2.478L306.245,182.061z"/>
	<path id="XMLID_485_" class="st6" d="M315.904,181.346c-0.672,2.072-1.428,4.019-2.268,5.839l-0.952-0.421
		c0.905-1.885,1.685-3.808,2.338-5.768L315.904,181.346z M313.595,175.201c0.933,1.204,1.652,2.272,2.156,3.206l-0.826,0.574
		c-0.522-0.971-1.241-2.059-2.156-3.263L313.595,175.201z M317.011,176.825h2.814v-2.086h0.994v2.086h3.192v4.116h1.246v0.952
		h-4.158c0.896,2.006,2.352,3.621,4.368,4.844l-0.672,0.77c-2.035-1.381-3.509-3.131-4.424-5.25
		c-0.682,2.418-2.119,4.195-4.312,5.334l-0.63-0.826c2.1-1.008,3.444-2.632,4.032-4.871h-3.024v-0.952h3.234
		c0.103-0.672,0.154-1.345,0.154-2.017v-1.134h-2.814V176.825z M320.818,177.791v0.91c0,0.793-0.056,1.54-0.168,2.24h2.38v-3.15
		H320.818z"/>
	<path id="XMLID_490_" class="st6" d="M328.659,176.769c-0.336,0.531-0.7,1.021-1.092,1.47l-0.868-0.546
		c0.886-0.942,1.535-1.993,1.946-3.15l0.966,0.21c-0.149,0.411-0.303,0.784-0.462,1.12h3.612v0.896h-2.366
		c0.354,0.513,0.644,0.984,0.868,1.413l-0.91,0.337c-0.271-0.589-0.607-1.172-1.008-1.75H328.659z M326.853,178.897h5.628v-0.967
		h1.036v0.967h5.628v0.924h-5.628v1.092h4.592v2.632c0,0.719-0.373,1.078-1.12,1.078h-0.952l-0.252-0.896l0.91,0.042
		c0.271,0,0.406-0.146,0.406-0.435v-1.54h-3.584v1.232c1.512,1.409,3.495,2.524,5.95,3.346l-0.532,0.91
		c-2.1-0.803-3.906-1.895-5.418-3.276v3.599h-1.036v-3.542c-1.456,1.399-3.131,2.496-5.026,3.29l-0.588-0.883
		c2.212-0.821,4.083-1.974,5.614-3.458v-1.218h-3.36v2.8h-0.994v-3.682h4.354v-1.092h-5.628V178.897z M334.511,176.769
		c-0.243,0.476-0.495,0.9-0.756,1.273l-0.854-0.56c0.635-0.887,1.092-1.862,1.372-2.927l0.98,0.21
		c-0.131,0.439-0.247,0.808-0.35,1.106h4.2v0.896h-2.604c0.345,0.513,0.621,0.984,0.826,1.413l-0.882,0.337
		c-0.243-0.542-0.569-1.125-0.98-1.75H334.511z"/>
	<path id="XMLID_494_" class="st6" d="M345.823,174.724h1.036v4.326h5.194v0.98h-5.194v5.992h6.384v0.979h-12.46v-0.979h5.04
		V174.724z"/>
	<path id="XMLID_496_" class="st6" d="M357.022,174.962c-0.065,0.317-0.173,0.775-0.322,1.372h2.114v0.952h-2.408
		c-0.308,0.952-0.667,1.829-1.078,2.632l-0.798-0.504c0.709-1.428,1.218-2.978,1.526-4.648L357.022,174.962z M355.749,179.121h2.828
		v0.91h-1.148v1.75h1.54v0.938h-1.54v3.263c0.392-0.196,0.798-0.462,1.218-0.799l0.168,0.868c-0.709,0.504-1.475,0.901-2.296,1.19
		l-0.378-0.84c0.214-0.104,0.322-0.252,0.322-0.448v-3.234h-1.554v-0.938h1.554v-1.75h-0.714V179.121z M367.438,186.373
		l-0.266,0.952h-1.946c-0.28,0-0.7-0.01-1.26-0.028c-0.635-0.009-1.199-0.093-1.694-0.252c-0.476-0.168-0.877-0.443-1.204-0.826
		c-0.177-0.205-0.331-0.308-0.462-0.308c-0.252,0-0.681,0.541-1.288,1.624l-0.602-0.756c0.598-0.905,1.087-1.475,1.47-1.708v-4.746
		h-1.134v-0.896h2.058v5.698c0.056,0.037,0.103,0.084,0.14,0.14c0.28,0.364,0.635,0.645,1.064,0.841
		c0.42,0.148,0.891,0.237,1.414,0.266c0.709,0.019,1.237,0.028,1.582,0.028C365.833,186.401,366.542,186.391,367.438,186.373z
		 M359.809,175.019c0.663,0.867,1.157,1.604,1.484,2.212l-0.756,0.531c-0.355-0.681-0.845-1.441-1.47-2.281L359.809,175.019z
		 M361.769,182.621h2.618v-1.722h-2.296l-0.196-0.84c0.476-0.775,0.91-1.731,1.302-2.87h-1.4v-0.883h1.666l0.42-1.582l0.896,0.211
		c-0.093,0.42-0.214,0.877-0.364,1.371h2.674v0.883h-2.954c-0.383,1.11-0.78,2.053-1.19,2.827h1.442v-1.89h0.938v1.89h1.638v0.883
		h-1.638v1.722h2.03v0.896h-2.03v2.324h-0.938v-2.324h-2.618V182.621z"/>
</g>
<g id="XMLID_23_" class="st1">
	<rect id="XMLID_439_" x="431.001" y="158.163" class="st2" width="142" height="50"/>
</g>
<g id="XMLID_22_">
	<rect id="XMLID_468_" x="429.001" y="156.163" class="st3" width="142" height="50"/>
	<path id="XMLID_469_" class="st4" d="M571.501,206.663h-143v-51h143V206.663z M429.501,205.663h141v-49h-141V205.663z"/>
</g>
<g id="XMLID_21_" class="st5">
	<path id="XMLID_440_" class="st6" d="M464.455,174.724h1.036v1.835h5.502v0.979h-5.502v2.142h3.766v0.896
		c-0.784,1.568-1.918,2.912-3.402,4.032c0.756,0.42,1.526,0.788,2.311,1.105c0.961,0.364,2.024,0.69,3.191,0.98l-0.588,0.882
		c-1.251-0.336-2.394-0.719-3.43-1.148c-0.859-0.373-1.638-0.783-2.338-1.231c-1.587,0.998-3.496,1.801-5.727,2.408l-0.573-0.896
		c2.137-0.504,3.952-1.204,5.445-2.1c-0.756-0.588-1.391-1.209-1.903-1.862c-0.514-0.644-0.878-1.354-1.093-2.128h-1.078v-0.938
		h4.383v-2.142h-5.446v-0.979h5.446V174.724z M468.123,180.619h-5.979c0.252,0.747,0.645,1.409,1.176,1.988
		c0.477,0.551,1.031,1.036,1.666,1.456C466.35,183.101,467.395,181.954,468.123,180.619z"/>
	<path id="XMLID_443_" class="st6" d="M476.648,175.046c-0.289,0.905-0.672,1.825-1.147,2.758v9.786h-1.008v-8.12
		c-0.477,0.71-1.046,1.414-1.708,2.114l-0.309-1.05c1.484-1.727,2.563-3.705,3.234-5.937L476.648,175.046z M476.942,177.762h5.362
		v-3.01h1.008v3.01h2.017v0.98h-2.017v7.308c0,0.952-0.438,1.429-1.315,1.429h-2.03l-0.224-0.994
		c0.728,0.046,1.362,0.069,1.903,0.069c0.438,0,0.658-0.252,0.658-0.756v-7.056h-5.362V177.762z M478.23,180.269
		c1.073,1.269,1.895,2.37,2.464,3.304l-0.854,0.602c-0.598-1.026-1.409-2.16-2.437-3.401L478.23,180.269z"/>
	<path id="XMLID_447_" class="st6" d="M486.701,175.313h6.369v0.951h-1.819v1.624h1.596v9.618h-0.896v-0.756h-3.99v0.756h-0.896
		v-9.618h1.526v-1.624h-1.89V175.313z M488.772,178.813h-0.812v4.676h3.99v-1.19h-0.715c-0.588,0-0.882-0.321-0.882-0.966v-2.52
		h-0.896v0.909c-0.01,1.484-0.313,2.581-0.91,3.29l-0.546-0.489c0.504-0.579,0.761-1.513,0.77-2.801V178.813z M487.961,185.798h3.99
		v-1.386h-3.99V185.798z M489.459,177.888h0.924v-1.624h-0.924V177.888z M491.951,181.514v-2.701h-0.896v2.338
		c0,0.242,0.116,0.363,0.35,0.363H491.951z M499.356,183.811c-0.103,1.465-0.261,2.407-0.476,2.827
		c-0.233,0.43-0.677,0.645-1.33,0.645h-2.772c-0.672,0-1.008-0.443-1.008-1.33v-5.937h3.822v-3.737h-4.06v-0.952h5.039v5.67h-3.821
		v4.592c0,0.485,0.145,0.732,0.434,0.742h2.198c0.392,0,0.644-0.196,0.756-0.588c0.103-0.354,0.178-1.106,0.224-2.254
		L499.356,183.811z"/>
	<path id="XMLID_454_" class="st6" d="M509.955,187.311c-0.477,0-1.312-0.01-2.506-0.028c-0.915-0.019-1.652-0.103-2.213-0.252
		c-0.56-0.168-1.059-0.509-1.498-1.022c-0.195-0.232-0.378-0.35-0.546-0.35c-0.345,0-0.9,0.639-1.666,1.918l-0.756-0.672
		c0.747-1.176,1.405-1.891,1.975-2.143v-4.256h-1.988v-0.924h2.926v5.236c0.121,0.093,0.238,0.2,0.351,0.321
		c0.336,0.402,0.699,0.696,1.092,0.883c0.447,0.195,1.087,0.308,1.918,0.336c0.989,0.019,1.913,0.027,2.771,0.027
		c0.42,0,1.088-0.009,2.002-0.027c0.756-0.02,1.274-0.038,1.555-0.057l-0.238,1.009H509.955z M501.765,174.949
		c0.989,0.747,1.802,1.47,2.437,2.17l-0.729,0.714c-0.569-0.69-1.367-1.433-2.394-2.226L501.765,174.949z M504.984,180.241h3.389
		c0.084-0.606,0.14-1.297,0.168-2.072h-3.08v-0.924h4.228c0.448-0.831,0.821-1.698,1.12-2.604l0.952,0.337
		c-0.308,0.849-0.658,1.604-1.05,2.268h1.819v0.924h-2.995c-0.028,0.887-0.08,1.577-0.154,2.072h3.626v0.952h-3.808
		c-0.393,1.689-1.624,3.089-3.696,4.2l-0.645-0.813c1.783-0.877,2.88-2.007,3.29-3.388h-3.164V180.241z M506.902,174.752
		c0.43,0.579,0.868,1.26,1.316,2.044l-0.854,0.42c-0.429-0.765-0.887-1.441-1.371-2.029L506.902,174.752z M509.843,182.019
		c1.167,0.812,2.217,1.693,3.15,2.646l-0.7,0.756c-0.999-1.055-2.017-1.965-3.052-2.729L509.843,182.019z"/>
	<path id="XMLID_460_" class="st6" d="M519.825,174.724h1.035v4.326h5.194v0.98h-5.194v5.992h6.385v0.979h-12.46v-0.979h5.04
		V174.724z"/>
	<path id="XMLID_462_" class="st6" d="M531.024,174.962c-0.065,0.317-0.173,0.775-0.321,1.372h2.113v0.952h-2.407
		c-0.309,0.952-0.668,1.829-1.078,2.632l-0.798-0.504c0.709-1.428,1.218-2.978,1.525-4.648L531.024,174.962z M529.751,179.121h2.828
		v0.91h-1.148v1.75h1.54v0.938h-1.54v3.263c0.392-0.196,0.798-0.462,1.218-0.799l0.168,0.868c-0.709,0.504-1.475,0.901-2.296,1.19
		l-0.378-0.84c0.215-0.104,0.322-0.252,0.322-0.448v-3.234h-1.554v-0.938h1.554v-1.75h-0.714V179.121z M541.44,186.373l-0.266,0.952
		h-1.946c-0.279,0-0.7-0.01-1.26-0.028c-0.635-0.009-1.199-0.093-1.694-0.252c-0.476-0.168-0.877-0.443-1.204-0.826
		c-0.177-0.205-0.331-0.308-0.462-0.308c-0.252,0-0.681,0.541-1.288,1.624l-0.602-0.756c0.598-0.905,1.087-1.475,1.47-1.708v-4.746
		h-1.134v-0.896h2.058v5.698c0.057,0.037,0.103,0.084,0.141,0.14c0.28,0.364,0.635,0.645,1.063,0.841
		c0.42,0.148,0.892,0.237,1.414,0.266c0.709,0.019,1.237,0.028,1.582,0.028C539.835,186.401,540.545,186.391,541.44,186.373z
		 M533.811,175.019c0.663,0.867,1.157,1.604,1.484,2.212l-0.756,0.531c-0.355-0.681-0.845-1.441-1.471-2.281L533.811,175.019z
		 M535.771,182.621h2.618v-1.722h-2.296l-0.196-0.84c0.477-0.775,0.91-1.731,1.303-2.87h-1.4v-0.883h1.666l0.42-1.582l0.896,0.211
		c-0.093,0.42-0.214,0.877-0.363,1.371h2.674v0.883h-2.954c-0.383,1.11-0.779,2.053-1.19,2.827h1.442v-1.89h0.938v1.89h1.638v0.883
		h-1.638v1.722h2.029v0.896h-2.029v2.324h-0.938v-2.324h-2.618V182.621z"/>
</g>
<g id="XMLID_26_" class="st1">
	<rect id="XMLID_5_" x="605.003" y="158.163" class="st2" width="142" height="50"/>
</g>
<g id="XMLID_25_">
	<rect id="XMLID_435_" x="603.003" y="156.163" class="st3" width="142" height="50"/>
	<path id="XMLID_436_" class="st4" d="M745.503,206.663h-143v-51h143V206.663z M603.503,205.663h141v-49h-141V205.663z"/>
</g>
<g id="XMLID_24_" class="st5">
	<path id="XMLID_412_" class="st6" d="M649.027,174.962c-0.065,0.317-0.173,0.775-0.322,1.372h2.114v0.952h-2.408
		c-0.308,0.952-0.667,1.829-1.078,2.632l-0.798-0.504c0.709-1.428,1.218-2.978,1.526-4.648L649.027,174.962z M647.753,179.121h2.828
		v0.91h-1.147v1.75h1.54v0.938h-1.54v3.263c0.392-0.196,0.798-0.462,1.218-0.799l0.168,0.868c-0.71,0.504-1.475,0.901-2.296,1.19
		l-0.378-0.84c0.214-0.104,0.321-0.252,0.321-0.448v-3.234h-1.554v-0.938h1.554v-1.75h-0.714V179.121z M659.443,186.373
		l-0.267,0.952h-1.945c-0.28,0-0.7-0.01-1.261-0.028c-0.635-0.009-1.199-0.093-1.693-0.252c-0.477-0.168-0.878-0.443-1.204-0.826
		c-0.178-0.205-0.331-0.308-0.462-0.308c-0.252,0-0.682,0.541-1.288,1.624l-0.603-0.756c0.598-0.905,1.088-1.475,1.471-1.708v-4.746
		h-1.134v-0.896h2.058v5.698c0.056,0.037,0.103,0.084,0.14,0.14c0.28,0.364,0.635,0.645,1.064,0.841
		c0.42,0.148,0.891,0.237,1.414,0.266c0.709,0.019,1.236,0.028,1.582,0.028C657.838,186.401,658.547,186.391,659.443,186.373z
		 M651.813,175.019c0.662,0.867,1.157,1.604,1.483,2.212l-0.756,0.531c-0.354-0.681-0.845-1.441-1.47-2.281L651.813,175.019z
		 M653.773,182.621h2.618v-1.722h-2.297l-0.195-0.84c0.476-0.775,0.91-1.731,1.302-2.87h-1.4v-0.883h1.666l0.42-1.582l0.896,0.211
		c-0.094,0.42-0.215,0.877-0.364,1.371h2.674v0.883h-2.953c-0.383,1.11-0.78,2.053-1.19,2.827h1.442v-1.89h0.938v1.89h1.638v0.883
		h-1.638v1.722h2.03v0.896h-2.03v2.324h-0.938v-2.324h-2.618V182.621z"/>
	<path id="XMLID_418_" class="st6" d="M665.827,174.724h1.036v4.326h5.194v0.98h-5.194v5.992h6.384v0.979h-12.46v-0.979h5.04
		V174.724z"/>
	<path id="XMLID_420_" class="st6" d="M685.819,182.298v3.893h1.498v0.91h-12.67v-0.91h1.567v-3.893H685.819z M675.613,175.369
		h0.994v5.712h-0.994V175.369z M677.182,186.191h1.861v-2.969h-1.861V186.191z M678.511,174.682h1.022v6.916h-1.022V174.682z
		 M680.009,186.191h1.96v-2.969h-1.96V186.191z M682.459,177.371c-0.457,1.148-1.021,2.091-1.693,2.828l-0.645-0.784
		c0.999-1.194,1.671-2.795,2.016-4.802l1.036,0.196c-0.103,0.522-0.229,1.05-0.378,1.581h4.172v0.98H682.459z M682.936,186.191
		h1.918v-2.969h-1.918V186.191z M683.929,178.323c0.766,0.961,1.34,1.792,1.723,2.492l-0.84,0.573
		c-0.43-0.793-0.994-1.646-1.694-2.562L683.929,178.323z"/>
	<path id="XMLID_429_" class="st6" d="M690.747,176.615c-0.354,0.579-0.728,1.083-1.12,1.512l-0.882-0.56
		c0.831-0.859,1.446-1.829,1.848-2.912l0.967,0.21l-0.351,0.868h3.752v0.882h-2.352c0.336,0.448,0.593,0.85,0.77,1.204l-0.924,0.35
		c-0.243-0.513-0.546-1.031-0.91-1.554H690.747z M700.939,178.561v2.533h-0.98v-1.666h-9.912v1.666h-0.979v-2.533h5.544
		c-0.141-0.337-0.285-0.64-0.435-0.91l0.98-0.168l-0.084-0.057c0.662-0.83,1.147-1.75,1.456-2.758l0.966,0.21
		c-0.112,0.336-0.215,0.621-0.308,0.854h4.046v0.882h-2.492c0.308,0.411,0.541,0.774,0.7,1.092l-0.896,0.336
		c-0.252-0.504-0.546-0.979-0.882-1.428h-0.882c-0.224,0.43-0.509,0.877-0.854,1.344l-0.756-0.462
		c0.178,0.373,0.327,0.728,0.448,1.064H700.939z M699.007,180.254v2.744h-6.985v0.966h7.63v3.599h-0.994v-0.589h-6.636v0.574h-1.009
		v-7.294H699.007z M692.021,182.187h6.006v-1.12h-6.006V182.187z M692.021,186.079h6.636v-1.302h-6.636V186.079z"/>
</g>
<g id="XMLID_7_" class="st5">
	<path id="XMLID_387_" class="st6" d="M467.471,67.572c0.933,0.728,1.685,1.423,2.254,2.086l-0.715,0.714
		c-0.522-0.635-1.273-1.339-2.254-2.114L467.471,67.572z M469.794,71.632c-0.541,1.802-1.144,3.496-1.806,5.082l-0.938-0.406
		c0.719-1.604,1.335-3.275,1.849-5.012L469.794,71.632z M467.792,64.254c0.896,0.616,1.639,1.223,2.227,1.82l-0.714,0.714
		c-0.542-0.588-1.284-1.204-2.227-1.848L467.792,64.254z M472.412,70.54c-0.056,1.829-0.238,3.174-0.546,4.032
		c-0.336,0.887-0.9,1.656-1.694,2.31l-0.644-0.798c0.672-0.551,1.147-1.199,1.428-1.946c0.262-0.728,0.42-1.927,0.477-3.598H472.412
		z M470.62,69.056c0.084-0.027,0.154-0.056,0.21-0.084c0.522-0.326,1.204-1.185,2.044-2.575h-2.45v-0.91h3.906
		c-0.196-0.522-0.406-0.999-0.63-1.429l1.022-0.168c0.195,0.411,0.4,0.943,0.615,1.597h3.683v0.91h-5.11
		c-0.663,1.176-1.241,2.029-1.736,2.562c1.605-0.084,3.206-0.224,4.803-0.42c-0.411-0.541-0.729-0.952-0.952-1.232l0.826-0.489
		c0.942,1.129,1.666,2.133,2.17,3.01l-0.826,0.588c-0.075-0.131-0.289-0.485-0.645-1.064c-1.969,0.225-4.204,0.411-6.705,0.561
		L470.62,69.056z M473.7,70.554h1.022v6.063H473.7V70.554z M477.396,76.756c-0.803,0-1.204-0.363-1.204-1.092v-5.11h0.966v4.929
		c0,0.205,0.089,0.321,0.266,0.35h0.616c0.252-0.028,0.393-0.191,0.42-0.49c0.057-0.336,0.084-0.877,0.084-1.624l0.882,0.336
		c0,1.232-0.084,1.988-0.252,2.269c-0.177,0.261-0.536,0.406-1.077,0.434H477.396z"/>
	<path id="XMLID_395_" class="st6" d="M489.954,76.645c-0.476,0-1.312-0.01-2.506-0.028c-0.915-0.019-1.652-0.103-2.212-0.252
		c-0.561-0.168-1.06-0.509-1.498-1.022c-0.196-0.232-0.378-0.35-0.546-0.35c-0.336,0-0.892,0.644-1.666,1.932l-0.756-0.686
		c0.746-1.176,1.404-1.891,1.974-2.143V69.84h-1.988v-0.924h2.927v5.236c0.121,0.093,0.237,0.2,0.35,0.321
		c0.336,0.402,0.7,0.696,1.092,0.883c0.448,0.195,1.088,0.308,1.918,0.336c0.989,0.019,1.913,0.027,2.772,0.027
		c0.42,0,1.087-0.009,2.002-0.027c0.756-0.02,1.273-0.038,1.554-0.057l-0.238,1.009H489.954z M481.765,64.282
		c0.97,0.728,1.782,1.456,2.436,2.184l-0.714,0.7c-0.598-0.709-1.4-1.451-2.408-2.226L481.765,64.282z M487.448,65.626
		c0.635,0.383,1.171,0.733,1.61,1.05c0.746-0.392,1.418-0.816,2.016-1.273h-6.216v-0.854h7.574v0.729
		c-0.841,0.728-1.75,1.357-2.73,1.89l0.224,0.182h2.772v6.259c0,0.719-0.392,1.078-1.176,1.078h-1.162l-0.224-0.854l1.105,0.042
		c0.336,0,0.504-0.158,0.504-0.476v-1.051h-2.352v2.408h-0.938v-2.408h-2.338v2.45h-0.952v-7.448h3.5
		c-0.541-0.382-1.152-0.756-1.834-1.119L487.448,65.626z M488.456,69.448v-1.26h-2.338v1.26H488.456z M486.118,70.288v1.232h2.338
		v-1.232H486.118z M491.746,69.448v-1.26h-2.352v1.26H491.746z M489.395,70.288v1.232h2.352v-1.232H489.395z"/>
	<path id="XMLID_403_" class="st6" d="M494.84,65.22h3.318v-1.176h1.008v1.176h3.668v-1.176h1.008v1.176h3.318v0.925h-3.318v1.105
		h-1.008v-1.105h-3.668v1.119h-1.008v-1.119h-3.318V65.22z M498.298,67.474c-0.69,1.232-1.381,2.231-2.071,2.996
		c0.672-0.074,1.339-0.158,2.002-0.252c0.485-0.709,0.816-1.208,0.994-1.498l0.909,0.336c-1.353,2.007-2.487,3.439-3.401,4.299
		c0.971-0.159,2.016-0.401,3.136-0.729v0.868c-1.456,0.401-2.884,0.686-4.284,0.854l-0.266-0.882
		c0.177-0.074,0.326-0.172,0.448-0.294c0.504-0.429,1.119-1.124,1.848-2.086l-2.437,0.322l-0.21-0.813
		c0.141-0.056,0.267-0.168,0.379-0.336c0.812-0.942,1.502-1.982,2.071-3.122L498.298,67.474z M500.356,75.734
		c-1.419,0.438-3.09,0.793-5.012,1.063l-0.127-0.952c1.923-0.242,3.636-0.583,5.139-1.021V75.734z M502.876,67.39
		c-0.121,0.486-0.247,0.925-0.378,1.316h4.13c0,3.668-0.089,5.959-0.266,6.874c-0.168,0.877-0.9,1.316-2.198,1.316
		c-0.326,0-0.882-0.015-1.666-0.042l-0.21-0.896c0.877,0.037,1.451,0.056,1.722,0.056c0.784,0,1.246-0.271,1.387-0.812
		c0.158-0.588,0.242-2.45,0.252-5.586h-3.542c-0.458,0.952-1.046,1.792-1.765,2.52l-0.573-0.741
		c1.055-1.111,1.772-2.479,2.155-4.103L502.876,67.39z M502.246,71.395c0.803,0.914,1.433,1.722,1.891,2.422l-0.742,0.518
		c-0.458-0.746-1.088-1.572-1.891-2.478L502.246,71.395z"/>
	<path id="XMLID_409_" class="st6" d="M515.364,64.1c1.782,1.961,3.826,3.5,6.132,4.62l-0.546,0.967
		c-2.296-1.177-4.279-2.739-5.95-4.69c-1.512,1.82-3.514,3.388-6.006,4.704l-0.532-0.966c2.445-1.223,4.504-2.768,6.175-4.635
		H515.364z M514.889,67.796h1.021v3.15h3.822v0.966h-3.822v3.444h4.83v0.979h-11.648v-0.979h2.114v-5.544h0.994v5.544h2.688V67.796z
		"/>
</g>
<g id="XMLID_9_" class="st5">
	<path id="XMLID_362_" class="st6" d="M635.816,71.632v3.893h1.498v0.91h-12.67v-0.91h1.568v-3.893H635.816z M625.61,64.702h0.994
		v5.712h-0.994V64.702z M627.179,75.524h1.862v-2.969h-1.862V75.524z M628.509,64.016h1.021v6.916h-1.021V64.016z M630.007,75.524
		h1.96v-2.969h-1.96V75.524z M632.457,66.704c-0.458,1.148-1.022,2.091-1.694,2.828l-0.644-0.784
		c0.998-1.194,1.67-2.795,2.016-4.802l1.036,0.196c-0.103,0.522-0.229,1.05-0.378,1.581h4.172v0.98H632.457z M632.933,75.524h1.918
		v-2.969h-1.918V75.524z M633.927,67.656c0.766,0.961,1.339,1.792,1.722,2.492l-0.84,0.573c-0.43-0.793-0.994-1.646-1.694-2.562
		L633.927,67.656z"/>
	<path id="XMLID_371_" class="st6" d="M640.745,65.948c-0.355,0.579-0.729,1.083-1.12,1.512l-0.882-0.56
		c0.83-0.859,1.446-1.829,1.848-2.912l0.966,0.21l-0.35,0.868h3.752v0.882h-2.353c0.336,0.448,0.593,0.85,0.771,1.204l-0.924,0.35
		c-0.243-0.513-0.547-1.031-0.91-1.554H640.745z M650.937,67.895v2.533h-0.979v-1.666h-9.912v1.666h-0.98v-2.533h5.544
		c-0.14-0.337-0.284-0.64-0.434-0.91l0.979-0.168l-0.084-0.057c0.663-0.83,1.148-1.75,1.456-2.758l0.967,0.21
		c-0.112,0.336-0.215,0.621-0.309,0.854h4.046v0.882h-2.492c0.309,0.411,0.542,0.774,0.7,1.092l-0.896,0.336
		c-0.252-0.504-0.546-0.979-0.882-1.428h-0.883c-0.224,0.43-0.509,0.877-0.854,1.344l-0.756-0.462
		c0.177,0.373,0.326,0.728,0.448,1.064H650.937z M649.005,69.588v2.744h-6.986v0.966h7.63v3.599h-0.994v-0.589h-6.636v0.574h-1.008
		v-7.294H649.005z M642.019,71.521h6.006V70.4h-6.006V71.521z M642.019,75.412h6.636V74.11h-6.636V75.412z"/>
	<path id="XMLID_377_" class="st6" d="M652.715,69.252h1.89c-0.233-0.69-0.522-1.362-0.868-2.016l0.91-0.336
		c0.317,0.597,0.621,1.381,0.91,2.352h1.512c0.393-0.774,0.729-1.591,1.009-2.45l0.938,0.322c-0.289,0.784-0.606,1.493-0.952,2.128
		h1.624v0.98h-6.972V69.252z M652.98,65.416h2.842c-0.149-0.504-0.294-0.929-0.434-1.273l1.022-0.169
		c0.13,0.383,0.271,0.864,0.42,1.442h2.786v0.952h-6.637V65.416z M659.043,71.492v5.152h-0.966v-0.742h-3.612v0.77h-0.98v-5.18
		H659.043z M654.465,74.964h3.612v-2.548h-3.612V74.964z M660.387,64.744h4.48v0.728c-0.411,1.447-0.859,2.814-1.345,4.103
		c1.008,1.391,1.517,2.534,1.526,3.43c0,0.756-0.173,1.293-0.519,1.61c-0.373,0.317-1.11,0.476-2.212,0.476l-0.294-1.008
		c0.485,0.037,0.794,0.056,0.925,0.056c0.504-0.027,0.825-0.111,0.966-0.252c0.13-0.168,0.2-0.462,0.21-0.882
		c-0.02-0.877-0.556-2.021-1.61-3.43c0.457-1.139,0.9-2.45,1.33-3.935h-2.492V76.91h-0.966V64.744z"/>
	<path id="XMLID_383_" class="st6" d="M667.387,66.382h0.98V76.91h-0.98V66.382z M669.417,63.932
		c0.681,0.813,1.26,1.657,1.735,2.534l-0.909,0.477c-0.551-1.008-1.135-1.876-1.75-2.604L669.417,63.932z M675.997,76.784
		l-0.252-0.938l1.246,0.028c0.41,0,0.615-0.266,0.615-0.798V65.71h-5.376v-0.924h6.356v10.57c0,0.951-0.462,1.428-1.386,1.428
		H675.997z"/>
</g>
<g id="XMLID_152_" class="st5">
	<path id="XMLID_315_" class="st6" d="M97.366,12.464c-0.131,0.729-0.275,1.396-0.434,2.002h3.136v0.896
		c-0.383,2.464-1.101,4.518-2.156,6.16c0.336,0.522,0.695,0.919,1.078,1.189c1.083,0.766,2.814,1.162,5.194,1.19
		c0.635,0,1.372-0.023,2.212-0.07l-0.196,1.05h-1.54c-2.875,0-4.961-0.48-6.258-1.441c-0.373-0.28-0.728-0.653-1.064-1.12
		c-0.877,1.102-1.895,1.997-3.052,2.688l-0.546-0.952c1.204-0.699,2.207-1.604,3.01-2.716c-0.458-0.887-0.863-1.965-1.218-3.233
		c-0.346,0.625-0.742,1.213-1.19,1.764l-0.686-0.854c1.334-1.651,2.24-3.892,2.716-6.72L97.366,12.464z M97.324,20.458
		c0.831-1.428,1.414-3.104,1.75-5.026h-2.422c-0.159,0.485-0.336,0.972-0.532,1.456C96.493,18.373,96.895,19.563,97.324,20.458z
		 M101.944,12.38h1.022v3.557c1.129,0.812,2.296,1.764,3.5,2.855l-0.602,0.896c-1.176-1.195-2.142-2.096-2.898-2.702v5.823h-1.022
		V12.38z"/>
	<path id="XMLID_319_" class="st6" d="M107.908,14.382h6.034c-0.299-0.662-0.639-1.255-1.022-1.777l0.952-0.351
		c0.383,0.579,0.747,1.288,1.092,2.128h5.236v0.966h-7.378l-0.126,2.521h5.81c-0.028,2.753-0.135,4.531-0.322,5.334
		c-0.28,1.194-0.971,1.811-2.072,1.848c-0.252,0-0.789-0.019-1.61-0.056l-0.308-0.91c0.728,0.028,1.335,0.042,1.82,0.042
		c0.709-0.028,1.148-0.532,1.316-1.512c0.075-0.514,0.126-1.778,0.154-3.794h-4.9c-0.177,1.11-0.523,2.137-1.036,3.08
		c-0.681,1.204-1.638,2.3-2.87,3.29l-0.728-0.7c1.493-1.27,2.482-2.437,2.968-3.5c0.467-1.064,0.737-2.269,0.812-3.612
		c0.047-0.887,0.075-1.563,0.084-2.03h-3.906V14.382z"/>
	<path id="XMLID_321_" class="st6" d="M122.65,12.884h11.116v0.966h-10.15v9.744h10.556v0.966H122.65V12.884z M125.604,15.138
		c1.325,1.009,2.524,1.988,3.598,2.94c0.784-1.008,1.475-2.184,2.072-3.528l0.91,0.49c-0.635,1.438-1.368,2.684-2.198,3.738
		c1.092,1.008,2.086,2.002,2.982,2.981l-0.784,0.784c-0.84-0.998-1.797-1.992-2.87-2.981c-1.232,1.315-2.651,2.323-4.256,3.023
		l-0.588-0.91c1.549-0.635,2.907-1.577,4.074-2.828c-1.176-1.035-2.399-2.039-3.668-3.01L125.604,15.138z"/>
	<path id="XMLID_324_" class="st6" d="M135.684,16.035h1.624v-3.64h1.008v3.64h1.54v0.979h-1.54v4.648
		c0.579-0.215,1.195-0.476,1.848-0.784v0.994c-1.428,0.672-2.907,1.209-4.438,1.61l-0.252-1.022
		c0.644-0.149,1.255-0.303,1.834-0.462v-4.984h-1.624V16.035z M140.472,14.439h2.576v-2.114h0.966v2.114h3.038v4.073h1.218v0.967
		h-3.976c0.859,2.016,2.23,3.626,4.116,4.829l-0.686,0.813c-1.876-1.354-3.253-3.057-4.13-5.11
		c-0.616,2.353-1.857,4.069-3.724,5.152l-0.616-0.813c1.829-0.998,2.996-2.622,3.5-4.871h-2.87v-0.967h3.038
		c0.084-0.606,0.126-1.236,0.126-1.89v-1.218h-2.576V14.439z M144.014,15.405v0.979c0,0.672-0.047,1.382-0.14,2.128h2.198v-3.107
		H144.014z"/>
	<path id="XMLID_328_" class="st6" d="M152.022,12.548c-0.065,0.317-0.173,0.775-0.322,1.372h2.114v0.952h-2.408
		c-0.308,0.952-0.667,1.829-1.078,2.632L149.53,17c0.709-1.428,1.218-2.978,1.526-4.648L152.022,12.548z M150.748,16.707h2.828v0.91
		h-1.148v1.75h1.54v0.938h-1.54v3.263c0.392-0.196,0.798-0.462,1.218-0.799l0.168,0.868c-0.709,0.504-1.475,0.901-2.296,1.19
		l-0.378-0.84c0.214-0.104,0.322-0.252,0.322-0.448v-3.234h-1.554v-0.938h1.554v-1.75h-0.714V16.707z M162.438,23.958l-0.266,0.952
		h-1.946c-0.28,0-0.7-0.01-1.26-0.028c-0.635-0.009-1.199-0.093-1.694-0.252c-0.476-0.168-0.877-0.443-1.204-0.826
		c-0.177-0.205-0.331-0.308-0.462-0.308c-0.252,0-0.681,0.541-1.288,1.624l-0.602-0.756c0.598-0.905,1.087-1.475,1.47-1.708v-4.746
		h-1.134v-0.896h2.058v5.698c0.056,0.037,0.103,0.084,0.14,0.14c0.28,0.364,0.635,0.645,1.064,0.841
		c0.42,0.148,0.891,0.237,1.414,0.266c0.709,0.019,1.237,0.028,1.582,0.028C160.833,23.987,161.542,23.977,162.438,23.958z
		 M154.808,12.605c0.663,0.867,1.157,1.604,1.484,2.212l-0.756,0.531c-0.355-0.681-0.845-1.441-1.47-2.281L154.808,12.605z
		 M156.768,20.207h2.618v-1.722h-2.296l-0.196-0.84c0.476-0.775,0.91-1.731,1.302-2.87h-1.4v-0.883h1.666l0.42-1.582l0.896,0.211
		c-0.093,0.42-0.214,0.877-0.364,1.371h2.674v0.883h-2.954c-0.383,1.11-0.78,2.053-1.19,2.827h1.442v-1.89h0.938v1.89h1.638v0.883
		h-1.638v1.722h2.03v0.896h-2.03v2.324h-0.938v-2.324h-2.618V20.207z"/>
	<path id="XMLID_334_" class="st6" d="M175.878,12.17c-0.569,0.943-1.013,1.909-1.33,2.898c-0.411,1.204-0.616,2.417-0.616,3.64
		s0.205,2.437,0.616,3.64c0.317,0.98,0.761,1.946,1.33,2.898h-0.98c-0.607-0.887-1.087-1.848-1.442-2.884
		c-0.411-1.176-0.616-2.39-0.616-3.641c0-1.269,0.206-2.491,0.616-3.668c0.354-1.045,0.835-2.006,1.442-2.884H175.878z"/>
	<path id="XMLID_336_" class="st6" d="M177.642,12.884h5.572v0.938h-0.91v7.686c0.214-0.074,0.527-0.177,0.938-0.308v0.979
		c-0.355,0.112-0.667,0.206-0.938,0.28v2.758h-0.966v-2.492c-1.297,0.327-2.455,0.584-3.472,0.771l-0.252-0.952l0.882-0.14v-8.582
		h-0.854V12.884z M179.462,15.88h1.876v-2.058h-1.876V15.88z M179.462,18.792h1.876v-2.002h-1.876V18.792z M179.462,22.222
		c0.719-0.158,1.344-0.303,1.876-0.434v-2.072h-1.876V22.222z M183.438,15.363h3.486c0.542-0.962,0.999-1.97,1.372-3.024
		l0.924,0.351c-0.43,1.082-0.859,1.974-1.288,2.674h2.086v0.952h-2.87v0.42c0,0.653-0.037,1.315-0.112,1.987h3.22v0.967h-2.898
		c0.336,1.54,1.372,3.107,3.108,4.703l-0.7,0.742c-1.605-1.596-2.613-3.173-3.024-4.731c-0.542,2.155-1.615,3.752-3.22,4.788
		l-0.602-0.799c1.577-0.951,2.581-2.52,3.01-4.703h-2.702v-0.967h2.842c0.065-0.615,0.103-1.204,0.112-1.764v-0.644h-2.744V15.363z
		 M184.824,12.422c0.56,0.821,0.994,1.55,1.302,2.185l-0.756,0.518c-0.317-0.662-0.756-1.4-1.316-2.212L184.824,12.422z"/>
	<path id="XMLID_343_" class="st6" d="M202.772,20.514v3.347h1.554v0.91h-12.67v-0.91h1.568v-3.347H202.772z M192.706,12.815h4.074
		v6.132h-4.074V12.815z M193.63,15.405h2.212v-1.708h-2.212V15.405z M195.842,18.065v-1.82h-2.212v1.82H195.842z M194.19,23.861
		h1.862v-2.422h-1.862V23.861z M198.936,17.546c-0.168,1.055-0.607,1.937-1.316,2.646l-0.728-0.658
		c0.765-0.756,1.162-1.703,1.19-2.842v-4.074h5.054v6.244c0,0.737-0.434,1.105-1.302,1.105h-0.952l-0.238-0.896
		c0.327,0.027,0.625,0.042,0.896,0.042c0.411,0,0.616-0.196,0.616-0.588v-0.98H198.936z M197.032,23.861h1.876v-2.422h-1.876V23.861
		z M202.156,14.691v-1.204h-3.136v1.204H202.156z M199.02,15.531v1.189h3.136v-1.189H199.02z M199.888,23.861h1.918v-2.422h-1.918
		V23.861z"/>
	<path id="XMLID_354_" class="st6" d="M208.022,12.548c-0.065,0.317-0.173,0.775-0.322,1.372h2.114v0.952h-2.408
		c-0.308,0.952-0.667,1.829-1.078,2.632L205.53,17c0.709-1.428,1.218-2.978,1.526-4.648L208.022,12.548z M206.748,16.707h2.828v0.91
		h-1.148v1.75h1.54v0.938h-1.54v3.263c0.392-0.196,0.798-0.462,1.218-0.799l0.168,0.868c-0.709,0.504-1.475,0.901-2.296,1.19
		l-0.378-0.84c0.214-0.104,0.322-0.252,0.322-0.448v-3.234h-1.554v-0.938h1.554v-1.75h-0.714V16.707z M218.438,23.958l-0.266,0.952
		h-1.946c-0.28,0-0.7-0.01-1.26-0.028c-0.635-0.009-1.199-0.093-1.694-0.252c-0.476-0.168-0.877-0.443-1.204-0.826
		c-0.177-0.205-0.331-0.308-0.462-0.308c-0.252,0-0.681,0.541-1.288,1.624l-0.602-0.756c0.598-0.905,1.087-1.475,1.47-1.708v-4.746
		h-1.134v-0.896h2.058v5.698c0.056,0.037,0.103,0.084,0.14,0.14c0.28,0.364,0.635,0.645,1.064,0.841
		c0.42,0.148,0.891,0.237,1.414,0.266c0.709,0.019,1.237,0.028,1.582,0.028C216.833,23.987,217.542,23.977,218.438,23.958z
		 M210.808,12.605c0.663,0.867,1.157,1.604,1.484,2.212l-0.756,0.531c-0.355-0.681-0.845-1.441-1.47-2.281L210.808,12.605z
		 M212.768,20.207h2.618v-1.722h-2.296l-0.196-0.84c0.476-0.775,0.91-1.731,1.302-2.87h-1.4v-0.883h1.666l0.42-1.582l0.896,0.211
		c-0.093,0.42-0.214,0.877-0.364,1.371h2.674v0.883h-2.954c-0.383,1.11-0.78,2.053-1.19,2.827h1.442v-1.89h0.938v1.89h1.638v0.883
		h-1.638v1.722h2.03v0.896h-2.03v2.324h-0.938v-2.324h-2.618V20.207z"/>
	<path id="XMLID_360_" class="st6" d="M221.098,12.17c0.588,0.878,1.068,1.839,1.442,2.884c0.411,1.214,0.616,2.437,0.616,3.668
		c0,1.214-0.206,2.427-0.616,3.641c-0.374,1.036-0.854,1.997-1.442,2.884h-0.98c0.541-0.905,0.984-1.871,1.33-2.898
		c0.41-1.25,0.616-2.464,0.616-3.64s-0.206-2.389-0.616-3.64c-0.346-1.046-0.789-2.012-1.33-2.898H221.098z"/>
</g>
<g id="XMLID_50_">
	<g id="XMLID_52_">
		<rect id="XMLID_314_" x="153.497" y="119.186" class="st7" width="1" height="23.977"/>
	</g>
	<g id="XMLID_51_">
		<polygon class="st8" points="149.497,141.162 153.997,146.162 158.497,141.162 		"/>
	</g>
</g>
<g id="XMLID_27_">
	<g id="XMLID_29_">
		<rect id="XMLID_313_" x="325.499" y="119.186" class="st7" width="1" height="23.977"/>
	</g>
	<g id="XMLID_28_">
		<polygon class="st8" points="321.499,141.162 325.999,146.162 330.499,141.162 		"/>
	</g>
</g>
<g id="XMLID_30_">
	<g id="XMLID_33_">
		<rect id="XMLID_312_" x="499.501" y="119.186" class="st7" width="1" height="23.977"/>
	</g>
	<g id="XMLID_32_">
		<polygon class="st8" points="495.501,141.162 500.001,146.162 504.501,141.162 		"/>
	</g>
</g>
<g id="XMLID_34_">
	<g id="XMLID_36_">
		<rect id="XMLID_311_" x="673.503" y="119.186" class="st7" width="1" height="23.977"/>
	</g>
	<g id="XMLID_35_">
		<polygon class="st8" points="669.503,141.162 674.003,146.162 678.503,141.162 		"/>
	</g>
</g>
<g id="XMLID_14_">
	<rect id="XMLID_310_" x="227" y="181" class="st7" width="28" height="1"/>
</g>
<g id="XMLID_37_">
	<rect id="XMLID_309_" x="399" y="181" class="st7" width="30" height="1"/>
</g>
<g id="XMLID_39_">
	<rect id="XMLID_308_" x="573" y="181" class="st7" width="30" height="1"/>
</g>
<g id="XMLID_71_">
	<path id="XMLID_284_" class="st7" d="M165.845,129.158c-0.384,0.56-0.779,1.067-1.188,1.523l-0.276-0.924
		c1.168-1.44,2.024-3.104,2.568-4.992l0.804,0.372c-0.288,0.937-0.64,1.804-1.056,2.604v8.159h-0.853V129.158z M167.706,126.458
		h3.696c-0.177-0.48-0.385-0.944-0.624-1.393l0.828-0.228c0.239,0.512,0.436,0.996,0.588,1.452l-0.456,0.168h3.779v0.815h-7.812
		V126.458z M174.702,131.713v4.164h-0.84v-0.648h-4.44v0.648h-0.84v-4.164H174.702z M168.809,128.246h5.677v0.779h-5.677V128.246z
		 M168.809,129.937h5.677v0.792h-5.677V129.937z M169.421,134.414h4.44v-1.896h-4.44V134.414z"/>
	<path id="XMLID_291_" class="st7" d="M178.505,132.613c-0.288,1.104-0.688,2.061-1.2,2.868l-0.731-0.468
		c0.512-0.76,0.884-1.616,1.116-2.568L178.505,132.613z M178.29,125.761h2.64c0.168-0.304,0.292-0.624,0.372-0.96l0.9,0.12
		c-0.096,0.288-0.216,0.568-0.36,0.84h3.96v5.868h-7.512V125.761z M179.129,127.501h5.832v-0.984h-5.832V127.501z M179.129,129.181
		h5.832v-0.984h-5.832V129.181z M184.961,130.885v-1.008h-5.832v1.008H184.961z M180.389,135.697c-0.688,0-1.031-0.332-1.031-0.995
		v-2.316h0.876v2.136c0,0.265,0.136,0.396,0.407,0.396h2.664c0.272,0,0.46-0.064,0.564-0.192c0.151-0.176,0.252-0.647,0.3-1.416
		l0.828,0.265c-0.096,1-0.264,1.615-0.504,1.848c-0.225,0.184-0.564,0.275-1.021,0.275H180.389z M181.866,131.954
		c0.624,0.6,1.12,1.147,1.488,1.644l-0.66,0.456c-0.368-0.528-0.856-1.096-1.464-1.704L181.866,131.954z M185.742,132.229
		c0.752,0.944,1.34,1.788,1.764,2.532l-0.684,0.48c-0.425-0.761-1.008-1.624-1.752-2.593L185.742,132.229z"/>
	<path id="XMLID_300_" class="st7" d="M189.257,127.885c0.8,0.624,1.444,1.22,1.933,1.788l-0.612,0.612
		c-0.448-0.544-1.092-1.148-1.932-1.813L189.257,127.885z M191.25,131.366c-0.464,1.544-0.98,2.995-1.548,4.355l-0.804-0.348
		c0.615-1.376,1.144-2.809,1.584-4.296L191.25,131.366z M189.534,125.042c0.768,0.527,1.404,1.048,1.908,1.56l-0.612,0.612
		c-0.464-0.504-1.1-1.032-1.908-1.584L189.534,125.042z M193.494,130.429c-0.048,1.568-0.204,2.72-0.468,3.456
		c-0.288,0.76-0.772,1.42-1.452,1.98l-0.552-0.685c0.575-0.472,0.983-1.027,1.224-1.668c0.224-0.624,0.36-1.651,0.408-3.084H193.494
		z M191.958,129.158c0.072-0.024,0.132-0.049,0.18-0.072c0.448-0.28,1.032-1.016,1.752-2.208h-2.1v-0.78h3.348
		c-0.168-0.448-0.348-0.855-0.54-1.224l0.876-0.145c0.168,0.353,0.345,0.809,0.528,1.368h3.156v0.78h-4.38
		c-0.568,1.008-1.064,1.74-1.488,2.196c1.376-0.072,2.748-0.192,4.116-0.36c-0.353-0.464-0.624-0.816-0.816-1.056l0.708-0.421
		c0.809,0.969,1.428,1.828,1.86,2.58l-0.708,0.504c-0.064-0.111-0.248-0.415-0.552-0.911c-1.688,0.191-3.604,0.352-5.748,0.479
		L191.958,129.158z M194.597,130.441h0.876v5.196h-0.876V130.441z M197.765,135.757c-0.688,0-1.031-0.313-1.031-0.937v-4.38h0.828
		v4.225c0,0.176,0.075,0.275,0.228,0.3h0.528c0.216-0.024,0.336-0.164,0.359-0.42c0.048-0.288,0.072-0.752,0.072-1.393l0.756,0.288
		c0,1.057-0.072,1.704-0.216,1.944c-0.152,0.224-0.46,0.348-0.924,0.372H197.765z"/>
</g>
<g id="XMLID_4_">
	<path id="XMLID_260_" class="st7" d="M337.847,129.158c-0.384,0.56-0.779,1.067-1.188,1.523l-0.276-0.924
		c1.168-1.44,2.024-3.104,2.568-4.992l0.804,0.372c-0.288,0.937-0.64,1.804-1.056,2.604v8.159h-0.853V129.158z M339.708,126.458
		h3.696c-0.177-0.48-0.385-0.944-0.624-1.393l0.828-0.228c0.239,0.512,0.436,0.996,0.588,1.452l-0.456,0.168h3.779v0.815h-7.812
		V126.458z M346.704,131.713v4.164h-0.84v-0.648h-4.44v0.648h-0.84v-4.164H346.704z M340.811,128.246h5.677v0.779h-5.677V128.246z
		 M340.811,129.937h5.677v0.792h-5.677V129.937z M341.423,134.414h4.44v-1.896h-4.44V134.414z"/>
	<path id="XMLID_267_" class="st7" d="M350.507,132.613c-0.288,1.104-0.688,2.061-1.2,2.868l-0.731-0.468
		c0.512-0.76,0.884-1.616,1.116-2.568L350.507,132.613z M350.292,125.761h2.64c0.168-0.304,0.292-0.624,0.372-0.96l0.9,0.12
		c-0.096,0.288-0.216,0.568-0.36,0.84h3.96v5.868h-7.512V125.761z M351.131,127.501h5.832v-0.984h-5.832V127.501z M351.131,129.181
		h5.832v-0.984h-5.832V129.181z M356.963,130.885v-1.008h-5.832v1.008H356.963z M352.391,135.697c-0.688,0-1.031-0.332-1.031-0.995
		v-2.316h0.876v2.136c0,0.265,0.136,0.396,0.407,0.396h2.664c0.272,0,0.46-0.064,0.564-0.192c0.151-0.176,0.252-0.647,0.3-1.416
		l0.828,0.265c-0.096,1-0.264,1.615-0.504,1.848c-0.225,0.184-0.564,0.275-1.021,0.275H352.391z M353.868,131.954
		c0.624,0.6,1.12,1.147,1.488,1.644l-0.66,0.456c-0.368-0.528-0.856-1.096-1.464-1.704L353.868,131.954z M357.744,132.229
		c0.752,0.944,1.34,1.788,1.764,2.532l-0.684,0.48c-0.425-0.761-1.008-1.624-1.752-2.593L357.744,132.229z"/>
	<path id="XMLID_276_" class="st7" d="M361.259,127.885c0.8,0.624,1.444,1.22,1.933,1.788l-0.612,0.612
		c-0.448-0.544-1.092-1.148-1.932-1.813L361.259,127.885z M363.251,131.366c-0.464,1.544-0.98,2.995-1.548,4.355l-0.804-0.348
		c0.615-1.376,1.144-2.809,1.584-4.296L363.251,131.366z M361.536,125.042c0.768,0.527,1.404,1.048,1.908,1.56l-0.612,0.612
		c-0.464-0.504-1.1-1.032-1.908-1.584L361.536,125.042z M365.496,130.429c-0.048,1.568-0.204,2.72-0.468,3.456
		c-0.288,0.76-0.772,1.42-1.452,1.98l-0.552-0.685c0.575-0.472,0.983-1.027,1.224-1.668c0.224-0.624,0.36-1.651,0.408-3.084H365.496
		z M363.959,129.158c0.072-0.024,0.132-0.049,0.18-0.072c0.448-0.28,1.032-1.016,1.752-2.208h-2.1v-0.78h3.348
		c-0.168-0.448-0.348-0.855-0.54-1.224l0.876-0.145c0.168,0.353,0.345,0.809,0.528,1.368h3.156v0.78h-4.38
		c-0.568,1.008-1.064,1.74-1.488,2.196c1.376-0.072,2.748-0.192,4.116-0.36c-0.353-0.464-0.624-0.816-0.816-1.056l0.708-0.421
		c0.809,0.969,1.428,1.828,1.86,2.58l-0.708,0.504c-0.064-0.111-0.248-0.415-0.552-0.911c-1.688,0.191-3.604,0.352-5.748,0.479
		L363.959,129.158z M366.599,130.441h0.876v5.196h-0.876V130.441z M369.767,135.757c-0.688,0-1.031-0.313-1.031-0.937v-4.38h0.828
		v4.225c0,0.176,0.075,0.275,0.228,0.3h0.528c0.216-0.024,0.336-0.164,0.359-0.42c0.048-0.288,0.072-0.752,0.072-1.393l0.756,0.288
		c0,1.057-0.072,1.704-0.216,1.944c-0.152,0.224-0.46,0.348-0.924,0.372H369.767z"/>
</g>
<g id="XMLID_48_">
	<path id="XMLID_219_" class="st7" d="M511.85,129.158c-0.385,0.56-0.779,1.067-1.188,1.523l-0.277-0.924
		c1.168-1.44,2.025-3.104,2.568-4.992l0.805,0.372c-0.289,0.937-0.641,1.804-1.057,2.604v8.159h-0.852V129.158z M513.709,126.458
		h3.697c-0.178-0.48-0.385-0.944-0.625-1.393l0.828-0.228c0.24,0.512,0.436,0.996,0.588,1.452l-0.455,0.168h3.779v0.815h-7.813
		V126.458z M520.705,131.713v4.164h-0.84v-0.648h-4.439v0.648h-0.84v-4.164H520.705z M514.813,128.246h5.678v0.779h-5.678V128.246z
		 M514.813,129.937h5.678v0.792h-5.678V129.937z M515.426,134.414h4.439v-1.896h-4.439V134.414z"/>
	<path id="XMLID_226_" class="st7" d="M524.51,132.613c-0.289,1.104-0.688,2.061-1.201,2.868l-0.73-0.468
		c0.512-0.76,0.883-1.616,1.115-2.568L524.51,132.613z M524.293,125.761h2.641c0.168-0.304,0.291-0.624,0.371-0.96l0.9,0.12
		c-0.096,0.288-0.215,0.568-0.359,0.84h3.959v5.868h-7.512V125.761z M525.133,127.501h5.832v-0.984h-5.832V127.501z
		 M525.133,129.181h5.832v-0.984h-5.832V129.181z M530.965,130.885v-1.008h-5.832v1.008H530.965z M526.393,135.697
		c-0.688,0-1.031-0.332-1.031-0.995v-2.316h0.877v2.136c0,0.265,0.135,0.396,0.406,0.396h2.664c0.273,0,0.461-0.064,0.564-0.192
		c0.152-0.176,0.252-0.647,0.301-1.416l0.828,0.265c-0.096,1-0.264,1.615-0.504,1.848c-0.225,0.184-0.564,0.275-1.021,0.275H526.393
		z M527.869,131.954c0.625,0.6,1.121,1.147,1.488,1.644l-0.66,0.456c-0.367-0.528-0.855-1.096-1.463-1.704L527.869,131.954z
		 M531.746,132.229c0.752,0.944,1.34,1.788,1.764,2.532l-0.684,0.48c-0.426-0.761-1.008-1.624-1.752-2.593L531.746,132.229z"/>
	<path id="XMLID_252_" class="st7" d="M535.262,127.885c0.799,0.624,1.443,1.22,1.932,1.788l-0.611,0.612
		c-0.449-0.544-1.092-1.148-1.932-1.813L535.262,127.885z M537.254,131.366c-0.465,1.544-0.98,2.995-1.549,4.355l-0.803-0.348
		c0.615-1.376,1.143-2.809,1.584-4.296L537.254,131.366z M535.537,125.042c0.768,0.527,1.404,1.048,1.908,1.56l-0.611,0.612
		c-0.465-0.504-1.1-1.032-1.908-1.584L535.537,125.042z M539.498,130.429c-0.049,1.568-0.205,2.72-0.469,3.456
		c-0.287,0.76-0.771,1.42-1.451,1.98l-0.553-0.685c0.576-0.472,0.984-1.027,1.225-1.668c0.223-0.624,0.359-1.651,0.408-3.084
		H539.498z M537.961,129.158c0.072-0.024,0.133-0.049,0.18-0.072c0.449-0.28,1.033-1.016,1.752-2.208h-2.1v-0.78h3.348
		c-0.168-0.448-0.348-0.855-0.539-1.224l0.875-0.145c0.168,0.353,0.346,0.809,0.529,1.368h3.156v0.78h-4.381
		c-0.568,1.008-1.064,1.74-1.488,2.196c1.377-0.072,2.748-0.192,4.117-0.36c-0.354-0.464-0.625-0.816-0.816-1.056l0.707-0.421
		c0.809,0.969,1.428,1.828,1.861,2.58l-0.709,0.504c-0.064-0.111-0.248-0.415-0.551-0.911c-1.689,0.191-3.605,0.352-5.748,0.479
		L537.961,129.158z M540.602,130.441h0.875v5.196h-0.875V130.441z M543.77,135.757c-0.688,0-1.031-0.313-1.031-0.937v-4.38h0.828
		v4.225c0,0.176,0.074,0.275,0.227,0.3h0.529c0.215-0.024,0.336-0.164,0.359-0.42c0.047-0.288,0.072-0.752,0.072-1.393l0.756,0.288
		c0,1.057-0.072,1.704-0.217,1.944c-0.152,0.224-0.459,0.348-0.924,0.372H543.77z"/>
</g>
<g id="XMLID_49_">
	<path id="XMLID_191_" class="st7" d="M685.851,129.158c-0.384,0.56-0.779,1.067-1.188,1.523l-0.276-0.924
		c1.168-1.44,2.024-3.104,2.568-4.992l0.804,0.372c-0.288,0.937-0.64,1.804-1.056,2.604v8.159h-0.853V129.158z M687.711,126.458
		h3.696c-0.177-0.48-0.385-0.944-0.624-1.393l0.828-0.228c0.239,0.512,0.436,0.996,0.588,1.452l-0.456,0.168h3.779v0.815h-7.812
		V126.458z M694.707,131.713v4.164h-0.84v-0.648h-4.44v0.648h-0.84v-4.164H694.707z M688.814,128.246h5.677v0.779h-5.677V128.246z
		 M688.814,129.937h5.677v0.792h-5.677V129.937z M689.427,134.414h4.44v-1.896h-4.44V134.414z"/>
	<path id="XMLID_198_" class="st7" d="M698.511,132.613c-0.288,1.104-0.688,2.061-1.2,2.868l-0.731-0.468
		c0.512-0.76,0.884-1.616,1.116-2.568L698.511,132.613z M698.295,125.761h2.64c0.168-0.304,0.292-0.624,0.372-0.96l0.9,0.12
		c-0.096,0.288-0.216,0.568-0.36,0.84h3.96v5.868h-7.512V125.761z M699.135,127.501h5.832v-0.984h-5.832V127.501z M699.135,129.181
		h5.832v-0.984h-5.832V129.181z M704.967,130.885v-1.008h-5.832v1.008H704.967z M700.395,135.697c-0.688,0-1.031-0.332-1.031-0.995
		v-2.316h0.876v2.136c0,0.265,0.136,0.396,0.407,0.396h2.664c0.272,0,0.46-0.064,0.564-0.192c0.151-0.176,0.252-0.647,0.3-1.416
		l0.828,0.265c-0.096,1-0.264,1.615-0.504,1.848c-0.225,0.184-0.564,0.275-1.021,0.275H700.395z M701.871,131.954
		c0.624,0.6,1.12,1.147,1.488,1.644l-0.66,0.456c-0.368-0.528-0.856-1.096-1.464-1.704L701.871,131.954z M705.747,132.229
		c0.752,0.944,1.34,1.788,1.764,2.532l-0.684,0.48c-0.425-0.761-1.008-1.624-1.752-2.593L705.747,132.229z"/>
	<path id="XMLID_208_" class="st7" d="M709.263,127.885c0.8,0.624,1.444,1.22,1.933,1.788l-0.612,0.612
		c-0.448-0.544-1.092-1.148-1.932-1.813L709.263,127.885z M711.255,131.366c-0.464,1.544-0.98,2.995-1.548,4.355l-0.804-0.348
		c0.615-1.376,1.144-2.809,1.584-4.296L711.255,131.366z M709.539,125.042c0.768,0.527,1.404,1.048,1.908,1.56l-0.612,0.612
		c-0.464-0.504-1.1-1.032-1.908-1.584L709.539,125.042z M713.499,130.429c-0.048,1.568-0.204,2.72-0.468,3.456
		c-0.288,0.76-0.772,1.42-1.452,1.98l-0.552-0.685c0.575-0.472,0.983-1.027,1.224-1.668c0.224-0.624,0.36-1.651,0.408-3.084H713.499
		z M711.963,129.158c0.072-0.024,0.132-0.049,0.18-0.072c0.448-0.28,1.032-1.016,1.752-2.208h-2.1v-0.78h3.348
		c-0.168-0.448-0.348-0.855-0.54-1.224l0.876-0.145c0.168,0.353,0.345,0.809,0.528,1.368h3.156v0.78h-4.38
		c-0.568,1.008-1.064,1.74-1.488,2.196c1.376-0.072,2.748-0.192,4.116-0.36c-0.353-0.464-0.624-0.816-0.816-1.056l0.708-0.421
		c0.809,0.969,1.428,1.828,1.86,2.58l-0.708,0.504c-0.064-0.111-0.248-0.415-0.552-0.911c-1.688,0.191-3.604,0.352-5.748,0.479
		L711.963,129.158z M714.603,130.441h0.876v5.196h-0.876V130.441z M717.771,135.757c-0.688,0-1.031-0.313-1.031-0.937v-4.38h0.828
		v4.225c0,0.176,0.075,0.275,0.228,0.3h0.528c0.216-0.024,0.336-0.164,0.359-0.42c0.048-0.288,0.072-0.752,0.072-1.393l0.756,0.288
		c0,1.057-0.072,1.704-0.216,1.944c-0.152,0.224-0.46,0.348-0.924,0.372H717.771z"/>
</g>
<g id="XMLID_87_">
	<g id="XMLID_149_">
		<g id="XMLID_154_">
			<g id="XMLID_165_">
				<g id="XMLID_167_">
					<path class="st6" d="M371.32,66.452h-0.035c-0.419,0-0.786,0.23-0.981,0.57l-0.009,0.005l-4.322,8.952h2.399l4.598-9.523
						L371.32,66.452z"/>
				</g>
				<g id="XMLID_166_">
					<path class="st6" d="M367.493,66.452h-0.034c-0.42,0-0.786,0.23-0.981,0.57l-0.009,0.005l-4.321,8.952h2.398l4.599-9.523
						L367.493,66.452z"/>
				</g>
			</g>
			<g id="XMLID_158_">
				<g id="XMLID_160_">
					<path class="st9" d="M359.712,64.534h-2.878l-1.35,0.964c-0.01,0.007-0.022,0.012-0.031,0.02
						c-0.403,0.286-0.897,0.454-1.428,0.454h-0.019l0.37-1.438h-2.33l-0.618,2.398h2.602l-0.827,1.714h-3.125l0.911-3.474
						l0.183-0.638h-22.753l-0.273,0.959h1.724l-1.664,6.401c-0.013,0.071-0.021,0.142-0.021,0.216c0,0.624,0.507,1.13,1.131,1.13
						c0.011,0,0.022-0.001,0.034-0.001l0.001,0.001l8.548-0.003c0,0-0.264,0.934-0.266,0.942c-0.128,0.484-0.569,0.84-1.094,0.84
						h-9.834l-0.274,0.96h14.803l0.274-0.96h-1.743l1.674-6.456c0.007-0.052,0.012-0.103,0.012-0.157
						c0-0.612-0.486-1.111-1.095-1.129l-0.002-0.002h-0.754h-0.137h-7.758c0,0,0.361-1.4,0.363-1.407
						c0.048-0.215,0.239-0.375,0.468-0.375h12.704l-1.767,6.785h-0.921l-0.274,0.959h4.266l-0.719,2.742h0.273l0.01-0.005
						c0.755-0.035,1.426-0.387,1.888-0.928l0.014-0.006l2.474-2.762h-1.359l0.701-2.672h2.913l-3.077,6.373h1.719l0.001-0.002
						c0.431-0.015,0.799-0.271,0.975-0.636l0.012,0.001l2.923-5.736h3.041l0.274-0.959h-3.006l0.847-1.714h2.518l0.275-0.96h-1.543
						L359.712,64.534z M338.592,68.235c0.265,0,0.479,0.215,0.479,0.479c0,0.035-0.923,3.563-0.923,3.563h-7.126
						c-0.266,0-0.48-0.214-0.48-0.479c0-0.032,0.006-0.064,0.012-0.094l0.902-3.469H338.592z M346.797,72.277h-0.994l0.696-2.672
						h0.998L346.797,72.277z M347.479,65.867c0.049-0.215,0.239-0.375,0.468-0.375h0.629l-0.827,3.153l-1.021,0.007l0.715-2.664
						L347.479,65.867z"/>
				</g>
				<g id="XMLID_159_">
					<path class="st9" d="M356.698,70.497l-0.001-0.001h-0.892l-0.05,0.15l-0.154,0.593c-0.024,0.066-0.042,0.135-0.054,0.207
						l-1.181,4.532h2.331l1.039-4c0.036-0.111,0.057-0.229,0.057-0.352C357.794,71.013,357.306,70.517,356.698,70.497z"/>
				</g>
			</g>
			<g id="XMLID_155_">
				<path class="st9" d="M375.262,64.535l-0.001-0.001l-0.007,0.001c-0.01,0-0.019-0.001-0.028-0.001
					c-0.012,0-0.023,0.001-0.035,0.001v-0.001h-11.341h-1.027l-0.002,0.001c-0.01,0-0.022-0.001-0.033-0.001
					c-0.546,0-1.002,0.388-1.108,0.903l-2.763,10.542h1.438l0.003-0.001c0.011,0,0.021,0.001,0.033,0.001
					c0.588,0,1.07-0.449,1.125-1.024l0.006-0.005l1.859-7.102c0,0,6.068,7.236,6.181,7.371c0.592,0.717,1.223,1.239,2.137,1.239
					c1.146,0,2.107-0.783,2.384-1.842l0.015-0.009l2.193-8.558c0.043-0.12,0.069-0.25,0.069-0.386
					C376.358,65.052,375.87,64.554,375.262,64.535z M374.018,66.078l-2.201,8.396l-0.004,0.002c-0.081,0.35-0.392,0.611-0.766,0.611
					c-0.194,0-0.369-0.072-0.505-0.188l-6.865-8.186l0.081-0.31c0,0,0.171-0.531,0.173-0.536c0.048-0.215,0.24-0.375,0.468-0.375
					h9.149c0.265,0,0.48,0.215,0.48,0.479C374.028,65.99,374.018,66.078,374.018,66.078z"/>
			</g>
		</g>
		<g id="XMLID_150_">
			<g id="XMLID_153_">
				<polygon class="st9" points="384.014,64.534 382.804,69.125 377.846,69.125 377.572,70.085 390.25,70.085 				"/>
			</g>
			<g id="XMLID_151_">
				<path class="st9" d="M380.998,75.978h1.029l0.003-0.002c1.131-0.02,2.088-0.752,2.448-1.769l0.016-0.012l0.935-3.564h-3.023
					L380.998,75.978z"/>
			</g>
		</g>
	</g>
	<g id="XMLID_148_">
		<circle class="st9" cx="320.792" cy="70.303" r="1.311"/>
	</g>
	<g id="XMLID_143_">
		<g id="XMLID_145_">
			<path class="st6" d="M313.965,75.069h-0.753c-0.201,0-0.349-0.19-0.298-0.385l2.215-8.55c0.202-0.781-0.387-1.542-1.193-1.542
				h-7.66l-0.253,0.998h1.965l-0.8,3.006h-1.926l-0.27,0.981h1.917l-1.649,6.438h2.391l1.649-6.438h2.523l-1.046,4.185
				c-0.287,1.144,0.579,2.253,1.759,2.253h1.17L313.965,75.069z M312.1,68.595h-2.521l0.8-3.006h2.111
				c0.203,0,0.35,0.192,0.298,0.387L312.1,68.595z"/>
		</g>
	</g>
	<g id="XMLID_133_">
		<g id="XMLID_139_">
			<path class="st6" d="M284.438,65.463l-2.689,10.578h1.417c0.567,0,1.06-0.386,1.197-0.936l0.639-2.611h0.906l-0.878,3.578h1.417
				c0.567,0,1.06-0.387,1.197-0.936l2.652-10.602h-4.661C285.069,64.534,284.577,64.917,284.438,65.463z M286.152,71.541h-0.906
				l0.536-2.139h0.906L286.152,71.541z M286.918,68.449h-0.906l0.684-2.724c0.034-0.137,0.158-0.233,0.299-0.233h0.665
				L286.918,68.449z"/>
		</g>
		<g id="XMLID_134_">
			<g id="XMLID_135_">
				<path class="st6" d="M296.827,71.648l0.208-0.75l0.674,0.525l0.354-1.391l-2.15-1.571h2.196l0.24-0.953h-2.915l0.202-0.781
					h2.909l0.245-0.976h-0.432l0.649-1.192h-1.931l-0.334,0.57c-0.172,0.292-0.485,0.471-0.824,0.471l0.263-1.041h-2.383
					l-0.292,1.041h-0.459l-0.257-1.041h-1.945l0.252,1.192h-0.516l-0.244,0.976h2.893l-0.187,0.781h-2.905l-0.241,0.966h1.967
					l-2.544,1.461l-0.424,1.696l1.16-0.588l-0.034,0.033c-0.204,0.781,0.023,1.544,0.831,1.544h3.837l-0.213,0.76h-5.822
					l-0.231,0.958h5.818l-0.147,0.525c-0.037,0.133-0.158,0.225-0.297,0.225h-0.235l-0.266,0.953h1.468
					c0.84,0,1.574-0.568,1.785-1.381l0.657-2.478c0.072-0.271-0.128-0.537-0.408-0.544l0,0 M294.48,71.659h-2.209
					c-0.2,0-0.346-0.186-0.3-0.38l0.123-0.507h2.618L294.48,71.659z M292.447,69.804l1.808-0.996l1.331,0.998L292.447,69.804z"/>
			</g>
		</g>
	</g>
	<g id="XMLID_131_">
		<g id="XMLID_132_">
			<path class="st6" d="M303.688,76.015l0.241-0.946h-0.957c-0.202,0-0.349-0.191-0.298-0.386l1.46-5.616
				c0.2-0.78-0.389-1.54-1.194-1.54h-3.045l-0.244,0.97h1.841c0.201,0,0.349,0.19,0.299,0.385l-1.466,5.586
				c-0.207,0.783,0.383,1.549,1.192,1.549H303.688z"/>
		</g>
	</g>
	<g id="XMLID_130_">
		<polygon class="st6" points="301.673,64.591 302.272,66.766 304.664,66.766 304.029,64.591 		"/>
	</g>
</g>
<g id="XMLID_105_">
	<path id="XMLID_53_" class="st10" d="M320.682,371.761c-0.598,1.493-1.563,2.823-2.898,3.99l-0.308-0.98
		c1.073-1.008,1.853-2.146,2.338-3.416L320.682,371.761z M320.738,375.513c-0.205,0.561-0.443,1.069-0.714,1.526v7.14h-0.938v-5.781
		c-0.364,0.447-0.784,0.887-1.26,1.315l-0.294-0.966c1.092-1.064,1.88-2.277,2.366-3.64L320.738,375.513z M323.832,382.457
		c0.149-0.093,0.238-0.224,0.266-0.392v-2.549h-1.484v0.631c-0.028,1.735-0.471,3.042-1.33,3.92l-0.742-0.645
		c0.747-0.756,1.125-1.848,1.134-3.275v-1.54h3.318v3.136c0.438-0.393,0.844-0.774,1.218-1.148l0.21,0.854
		c-0.709,0.746-1.433,1.362-2.17,1.848L323.832,382.457z M321.172,376.604h4.368v0.896h-4.368V376.604z M323.02,371.313h0.854v3.179
		h0.966v-2.422h0.826v3.29h-4.48v-3.29h0.84v2.422h0.994V371.313z M326.814,376.899c-0.243,0.644-0.509,1.236-0.798,1.777l-0.56-0.7
		c0.821-1.68,1.376-3.92,1.666-6.72l0.882,0.154c-0.084,0.625-0.191,1.33-0.322,2.114h2.618v0.938h-0.56
		c-0.056,2.39-0.411,4.41-1.064,6.063c0.523,1.147,1.139,2.044,1.848,2.688l-0.574,0.854c-0.663-0.654-1.237-1.503-1.722-2.549
		c-0.532,1.027-1.19,1.891-1.974,2.591l-0.532-0.841c0.858-0.746,1.544-1.698,2.058-2.855
		C327.388,379.387,327.066,378.215,326.814,376.899z M327.5,374.463l-0.252,1.008c0.243,1.484,0.555,2.758,0.938,3.822
		c0.411-1.372,0.639-2.982,0.686-4.83H327.5z"/>
	<path id="XMLID_62_" class="st10" d="M333.156,376.311c-0.448,0.654-0.91,1.246-1.386,1.778l-0.322-1.078
		c1.362-1.68,2.361-3.621,2.996-5.824l0.938,0.435c-0.336,1.092-0.747,2.104-1.232,3.038v9.52h-0.994V376.311z M335.326,373.161
		h4.312c-0.206-0.561-0.448-1.102-0.728-1.624l0.966-0.267c0.28,0.598,0.509,1.162,0.686,1.694l-0.532,0.196h4.41v0.952h-9.114
		V373.161z M343.488,379.293v4.858h-0.98v-0.757h-5.18v0.757h-0.98v-4.858H343.488z M336.614,375.247h6.622v0.91h-6.622V375.247z
		 M336.614,377.221h6.622v0.924h-6.622V377.221z M337.328,382.443h5.18v-2.212h-5.18V382.443z"/>
	<path id="XMLID_80_" class="st10" d="M347.59,373.231c-0.336,0.513-0.714,0.961-1.134,1.344l-0.602-0.756
		c0.663-0.607,1.227-1.475,1.694-2.604l0.91,0.196c-0.122,0.336-0.248,0.644-0.378,0.924h4.004v0.896h-2.114
		c-0.028,0.494-0.07,0.947-0.126,1.357h2.632v0.924h-2.842c-0.065,0.215-0.103,0.346-0.112,0.393
		c1.064,0.531,1.96,1.078,2.688,1.638l-0.714,0.714c-0.579-0.522-1.344-1.063-2.296-1.624c-0.56,0.98-1.536,1.792-2.926,2.437
		l-0.672-0.826c1.447-0.645,2.403-1.442,2.87-2.395l0.14-0.336h-2.814v-0.924h3.066c0.075-0.364,0.126-0.816,0.154-1.357H347.59z
		 M356.676,378.397v5.781h-1.022v-0.63h-6.93v0.63h-1.008v-5.781H356.676z M348.724,380.567h6.93v-1.274h-6.93V380.567z
		 M348.724,382.653h6.93v-1.204h-6.93V382.653z M353.064,372.265h4.606v5.124h-4.606V372.265z M356.69,376.493v-3.332h-2.646v3.332
		H356.69z"/>
	<path id="XMLID_88_" class="st10" d="M361.982,381.337c-0.308,1.008-0.733,1.876-1.274,2.604l-0.812-0.519
		c0.56-0.7,0.961-1.461,1.204-2.282L361.982,381.337z M370.746,380.539h-9.856v-0.756h8.89v-0.784h-8.19v-0.714h8.19v-0.784h-8.722
		v-0.742h1.638v-0.882h-2.534v-0.728h2.534v-0.799h-2.016v-0.728h2.016v-0.784h-2.268v-0.728h2.268v-0.784h0.98v0.784h2.044v0.728
		h-2.044v0.784h1.834v0.728h-1.834v0.799h2.03v0.728h-2.03v0.882h4.732v-0.882h-2.212v-0.728h2.212v-0.799h-1.918v-0.728h1.918
		v-0.784h-2.142v-0.728h2.142v-0.784h0.98v0.784h2.254v0.728h-2.254v0.784h1.96v0.728h-1.96v0.799h2.45v0.728h-2.45v0.882h1.358
		V380.539z M364.194,383.899c-0.793,0-1.19-0.364-1.19-1.093v-1.651h0.98v1.441c0,0.289,0.159,0.435,0.476,0.435h3.332
		c0.289,0,0.49-0.057,0.602-0.168c0.159-0.178,0.266-0.626,0.322-1.345l0.91,0.294c-0.093,0.98-0.271,1.587-0.532,1.82
		c-0.262,0.178-0.63,0.267-1.106,0.267H364.194z M365.944,380.567c0.681,0.56,1.199,1.04,1.554,1.441l-0.7,0.49
		c-0.401-0.476-0.919-0.976-1.554-1.498L365.944,380.567z M370.592,380.945c0.859,0.896,1.503,1.647,1.932,2.254l-0.756,0.532
		c-0.485-0.729-1.12-1.508-1.904-2.339L370.592,380.945z"/>
	<path id="XMLID_94_" class="st10" d="M374.568,371.803h11.074v0.952h-10.108v9.94h10.556v0.979h-11.522V371.803z M378.53,375.485
		c-0.383,0.588-0.816,1.097-1.302,1.525l-0.756-0.686c0.933-0.831,1.624-1.867,2.072-3.108l0.924,0.252
		c-0.159,0.439-0.303,0.803-0.434,1.092h5.586v0.925h-3.038v0.783c-0.019,0.458-0.051,0.85-0.098,1.177h3.962v0.952h-4.172
		c-0.187,0.635-0.471,1.218-0.854,1.75c-0.709,0.887-1.862,1.581-3.458,2.086l-0.546-0.854c1.54-0.476,2.632-1.11,3.276-1.904
		c0.252-0.373,0.438-0.732,0.56-1.077h-3.78v-0.952h4.018c0.065-0.42,0.103-0.813,0.112-1.177v-0.783H378.53z M381.68,379.083
		c1.344,0.606,2.604,1.367,3.78,2.282l-0.56,0.84c-1.176-0.98-2.417-1.773-3.724-2.38L381.68,379.083z"/>
	<path id="XMLID_100_" class="st10" d="M388.092,371.873h4.046v0.784c-0.374,1.251-0.822,2.571-1.344,3.962
		c0.793,1.251,1.218,2.361,1.274,3.332c-0.019,0.635-0.159,1.092-0.42,1.372c-0.374,0.326-1.031,0.499-1.974,0.518l-0.336-1.021
		c0.299,0.037,0.485,0.056,0.56,0.056c0.457-0.028,0.774-0.107,0.952-0.238c0.159-0.14,0.238-0.368,0.238-0.686
		c0-0.934-0.429-1.993-1.288-3.178c0.569-1.438,1.018-2.759,1.344-3.963h-2.072v11.354h-0.98V371.873z M392.628,377.725h7.56v0.952
		h-2.324v3.794c0,0.373,0.135,0.561,0.406,0.561h0.588c0.168,0,0.299-0.047,0.392-0.141c0.149-0.121,0.247-0.732,0.294-1.834
		l0.924,0.309c-0.084,1.231-0.229,1.979-0.434,2.239c-0.196,0.206-0.518,0.317-0.966,0.337h-1.106c-0.354,0-0.625-0.117-0.812-0.351
		c-0.196-0.242-0.294-0.537-0.294-0.882v-4.032h-1.302c-0.112,1.493-0.355,2.586-0.728,3.276c-0.476,0.84-1.26,1.554-2.352,2.142
		l-0.63-0.826c0.961-0.513,1.652-1.101,2.072-1.764c0.354-0.625,0.574-1.568,0.658-2.828h-1.946V377.725z M400.034,372.573v2.842
		h-0.966v-1.89h-5.46v1.89h-0.98v-2.842h3.178c-0.159-0.438-0.327-0.826-0.504-1.162l1.036-0.168c0.177,0.42,0.341,0.863,0.49,1.33
		H400.034z M393.664,375.233h5.348v0.909h-5.348V375.233z"/>
	<path id="XMLID_107_" class="st10" d="M405.368,371.467c-0.131,0.729-0.275,1.396-0.434,2.002h3.136v0.896
		c-0.383,2.464-1.101,4.518-2.156,6.16c0.336,0.522,0.695,0.919,1.078,1.189c1.083,0.766,2.814,1.162,5.194,1.19
		c0.635,0,1.372-0.023,2.212-0.07l-0.196,1.05h-1.54c-2.875,0-4.961-0.48-6.258-1.441c-0.373-0.28-0.728-0.653-1.064-1.12
		c-0.877,1.102-1.895,1.997-3.052,2.688l-0.546-0.952c1.204-0.699,2.207-1.604,3.01-2.716c-0.458-0.887-0.863-1.965-1.218-3.233
		c-0.346,0.625-0.742,1.213-1.19,1.764l-0.686-0.854c1.334-1.651,2.24-3.892,2.716-6.72L405.368,371.467z M405.326,379.461
		c0.831-1.428,1.414-3.104,1.75-5.026h-2.422c-0.159,0.485-0.336,0.972-0.532,1.456
		C404.495,377.375,404.896,378.565,405.326,379.461z M409.946,371.383h1.022v3.557c1.129,0.812,2.296,1.764,3.5,2.855l-0.602,0.896
		c-1.176-1.195-2.142-2.096-2.898-2.702v5.823h-1.022V371.383z"/>
	<path id="XMLID_115_" class="st10" d="M415.91,373.385h6.033c-0.299-0.662-0.639-1.255-1.021-1.777l0.952-0.351
		c0.383,0.579,0.747,1.288,1.092,2.128h5.236v0.966h-7.378l-0.126,2.521h5.81c-0.027,2.753-0.135,4.531-0.322,5.334
		c-0.279,1.194-0.971,1.811-2.072,1.848c-0.252,0-0.788-0.019-1.609-0.056l-0.309-0.91c0.729,0.028,1.336,0.042,1.82,0.042
		c0.709-0.028,1.148-0.532,1.316-1.512c0.074-0.514,0.126-1.778,0.154-3.794h-4.9c-0.178,1.11-0.523,2.137-1.036,3.08
		c-0.681,1.204-1.638,2.3-2.87,3.29l-0.728-0.7c1.493-1.27,2.482-2.437,2.968-3.5c0.467-1.064,0.737-2.269,0.813-3.612
		c0.047-0.887,0.074-1.563,0.084-2.03h-3.906V373.385z"/>
	<path id="XMLID_125_" class="st10" d="M429.84,376.577h3.92c0.504-0.924,0.905-1.685,1.204-2.282l1.036,0.308
		c-0.363,0.7-0.714,1.358-1.05,1.975h7.237v0.979h-2.758c-0.569,1.466-1.227,2.637-1.974,3.515c1.466,0.625,2.931,1.354,4.396,2.184
		l-0.672,0.882c-1.559-0.905-3.043-1.68-4.451-2.324c-1.56,1.391-3.641,2.129-6.244,2.213l-0.588-0.938
		c2.389-0.019,4.326-0.593,5.81-1.722c-1.335-0.569-2.642-1.06-3.92-1.471c0.476-0.736,0.952-1.517,1.428-2.338h-3.374V376.577z
		 M441.811,372.685v3.011h-1.037v-2.03h-9.562v2.016h-1.036v-2.996h5.32c-0.196-0.466-0.411-0.896-0.645-1.287l1.121-0.196
		c0.232,0.457,0.442,0.952,0.629,1.483H441.811z M434.404,377.557c-0.42,0.729-0.813,1.372-1.176,1.933
		c1.008,0.289,2.09,0.677,3.248,1.162c0.756-0.821,1.371-1.853,1.848-3.095H434.404z"/>
	<path id="XMLID_169_" class="st10" d="M450.363,371.354c1.746,1.83,3.775,3.281,6.091,4.354l-0.504,0.896
		c-2.315-1.119-4.298-2.566-5.95-4.34c-1.521,1.689-3.523,3.16-6.006,4.41l-0.49-0.882c2.455-1.186,4.498-2.665,6.133-4.438H450.363
		z M446.094,375.779h7.813v0.966h-3.389v2.436h4.047v0.967h-4.047v2.59h5.32v0.994h-11.662v-0.994h5.307v-2.59h-4.061v-0.967h4.061
		v-2.436h-3.389V375.779z"/>
	<path id="XMLID_172_" class="st10" d="M458.471,374.827c0.933,0.728,1.684,1.423,2.254,2.086l-0.715,0.714
		c-0.522-0.635-1.273-1.339-2.254-2.114L458.471,374.827z M460.794,378.887c-0.542,1.802-1.144,3.496-1.806,5.082l-0.938-0.406
		c0.719-1.604,1.335-3.275,1.849-5.012L460.794,378.887z M458.792,371.509c0.896,0.616,1.638,1.223,2.226,1.82l-0.713,0.714
		c-0.542-0.588-1.284-1.204-2.227-1.848L458.792,371.509z M463.412,377.795c-0.057,1.829-0.238,3.174-0.546,4.032
		c-0.337,0.887-0.901,1.656-1.694,2.31l-0.645-0.798c0.673-0.551,1.148-1.199,1.429-1.946c0.261-0.728,0.42-1.927,0.476-3.598
		H463.412z M461.62,376.311c0.084-0.027,0.153-0.056,0.21-0.084c0.522-0.326,1.204-1.185,2.044-2.575h-2.45v-0.91h3.906
		c-0.196-0.522-0.406-0.999-0.63-1.429l1.022-0.168c0.195,0.411,0.4,0.943,0.615,1.597h3.682v0.91h-5.109
		c-0.663,1.176-1.242,2.029-1.736,2.562c1.605-0.084,3.206-0.224,4.803-0.42c-0.411-0.541-0.729-0.952-0.953-1.232l0.826-0.489
		c0.943,1.129,1.666,2.133,2.17,3.01l-0.825,0.588c-0.075-0.131-0.29-0.485-0.645-1.064c-1.97,0.225-4.204,0.411-6.706,0.561
		L461.62,376.311z M464.7,377.809h1.022v6.063H464.7V377.809z M468.396,384.011c-0.803,0-1.205-0.363-1.205-1.092v-5.11h0.967v4.929
		c0,0.205,0.089,0.321,0.266,0.35h0.616c0.252-0.028,0.392-0.191,0.42-0.49c0.056-0.336,0.084-0.877,0.084-1.624l0.882,0.336
		c0,1.232-0.084,1.988-0.252,2.269c-0.177,0.261-0.537,0.406-1.078,0.434H468.396z"/>
	<path id="XMLID_180_" class="st10" d="M474.388,375.163h0.966v2.128h1.555v0.91h-1.555v1.918c0.561-0.112,1.209-0.262,1.946-0.448
		v0.952c-0.803,0.215-1.451,0.373-1.946,0.476v3.038h-0.966v-2.842c-0.896,0.159-1.801,0.299-2.716,0.42l-0.126-0.994
		c0.971-0.121,1.918-0.261,2.842-0.42v-2.1h-2.352l-0.21-0.896c0.41-0.849,0.788-1.908,1.134-3.178h-1.4v-0.979h1.652l0.406-1.862
		l0.952,0.14c-0.122,0.598-0.248,1.172-0.378,1.723h2.659v0.979h-2.911c-0.337,1.195-0.7,2.249-1.093,3.164h1.54V375.163z
		 M477.496,373.147h2.198l0.336-1.891l0.994,0.098l-0.154,0.91c-0.065,0.364-0.121,0.658-0.168,0.883h3.401v0.979h-3.598
		l-0.364,1.61h4.313v0.966h-4.55c-0.149,0.56-0.327,1.152-0.532,1.778h4.466v0.84c-0.476,0.961-1.209,1.913-2.198,2.855
		c0.607,0.374,1.153,0.742,1.639,1.106l-0.561,0.854c-1.483-1.139-2.981-2.025-4.494-2.66l0.532-0.798
		c0.663,0.28,1.349,0.621,2.059,1.022c0.84-0.737,1.502-1.512,1.987-2.324h-4.689c0.316-0.979,0.578-1.871,0.784-2.674h-1.807
		v-0.966h2.044l0.364-1.61h-2.002V373.147z"/>
	<path id="XMLID_183_" class="st10" d="M486.358,371.943h11.312v0.979h-5.208v5.292h5.74v0.966h-5.74v4.956h-1.036v-4.956h-5.628
		v-0.966h5.628v-5.292h-5.067V371.943z M488.066,373.819c0.541,0.998,1.045,2.067,1.512,3.206l-0.938,0.462
		c-0.467-1.186-0.971-2.254-1.512-3.206L488.066,373.819z M496.928,374.183c-0.41,1.074-0.966,2.156-1.666,3.248l-0.896-0.462
		c0.69-1.11,1.236-2.184,1.638-3.22L496.928,374.183z"/>
	<path id="XMLID_187_" class="st10" d="M500.134,375.933c1.232-0.42,2.758-1.969,4.578-4.647l1.036,0.35
		c-1.26,1.792-2.524,3.211-3.794,4.256c2.511-0.103,5.059-0.274,7.644-0.518c-0.569-0.803-1.115-1.507-1.638-2.114l0.91-0.434
		c1.194,1.391,2.314,2.939,3.36,4.647l-0.98,0.477c-0.178-0.299-0.522-0.854-1.036-1.666c-2.865,0.261-6.16,0.462-9.884,0.602
		L500.134,375.933z M510.676,378.327v5.838h-1.021v-0.7h-7.309v0.7h-1.021v-5.838H510.676z M502.346,382.499h7.309v-3.206h-7.309
		V382.499z"/>
</g>
</svg>
