<?xml version="1.0" encoding="utf-8"?>
<!-- Generator: Adobe Illustrator 16.0.0, SVG Export Plug-In . SVG Version: 6.00 Build 0)  -->
<!DOCTYPE svg PUBLIC "-//W3C//DTD SVG 1.1//EN" "http://www.w3.org/Graphics/SVG/1.1/DTD/svg11.dtd">
<svg version="1.1" id="图层_1" xmlns="http://www.w3.org/2000/svg" xmlns:xlink="http://www.w3.org/1999/xlink" x="0px" y="0px"
	 width="48px" height="48px" viewBox="0 0 48 48" enable-background="new 0 0 48 48" xml:space="preserve">
<g>
	<g id="XMLID_22_">
		<circle id="XMLID_26_" fill="#00A4FF" cx="4.628" cy="9.776" r="2.228"/>
	</g>
	<g id="XMLID_18_">
		<circle id="XMLID_21_" fill="#00A4FF" cx="43.373" cy="9.776" r="2.228"/>
	</g>
	<g id="XMLID_10_">
		<circle id="XMLID_14_" fill="#00A4FF" cx="4.628" cy="40.772" r="2.228"/>
	</g>
	<g id="XMLID_4_">
		<circle id="XMLID_8_" fill="#00A4FF" cx="43.373" cy="40.772" r="2.228"/>
	</g>
	<polygon id="XMLID_3_" fill="#00A4FF" points="39.207,37.188 41.629,37.188 30.393,23.337 26.809,26.728 21.191,19.075 
		7.146,37.188 9.568,37.188 21.191,22.368 32.33,37.188 34.752,37.188 27.971,28.277 30.199,26.243 	"/>
	<path id="XMLID_7_" fill="#00A4FF" d="M33.201,16.944c-2.809,0-5.133,2.325-5.133,5.134c0,0.387,0,0.678,0.098,1.065l1.84-1.55
		c0.193-1.55,1.549-2.712,3.195-2.712c1.744,0,3.197,1.453,3.197,3.197c0,1.453-0.969,2.712-2.422,3.1l1.26,1.55
		c1.744-0.775,3.002-2.615,3.002-4.649C38.336,19.172,36.012,16.944,33.201,16.944z"/>
	<g id="XMLID_1_">
		<path id="XMLID_15_" fill="#00A4FF" d="M8.793,10.164c0,0.291-0.097-0.097-0.097,0.872H39.4c-0.096-0.388-0.193-0.775-0.193-1.259
			c0-0.194,0-0.484,0.098-0.678H8.599C8.696,9.098,8.793,9.776,8.793,10.164z"/>
		<g id="XMLID_6_">
			<path id="XMLID_17_" fill="#00A4FF" d="M43.373,36.607c0.387,0,0.773,0.097,1.162,0.193V13.748
				c-0.389,0.097-0.775,0.194-1.162,0.194c-0.291,0-0.484,0-0.775-0.097v22.86C42.889,36.704,43.082,36.607,43.373,36.607z"/>
			<g id="XMLID_2_">
				<path id="XMLID_5_" fill="#00A4FF" d="M4.628,36.607c0.387,0,0.774,0.097,1.162,0.193V13.748c0,0.097-0.872,0.194-1.259,0.194
					c-0.291,0-0.678,0-0.678,0v22.859C4.144,36.704,4.337,36.607,4.628,36.607z"/>
				<path id="XMLID_13_" fill="#00A4FF" d="M39.596,39.125H8.405c0.194,0.484,0.388,1.065,0.388,1.647c0,0.097,0,0.193,0,0.29
					h30.512c0-0.097,0-0.193,0-0.29C39.207,40.19,39.305,39.609,39.596,39.125z"/>
			</g>
		</g>
	</g>
</g>
</svg>
