<?xml version="1.0" encoding="utf-8"?>
<!-- Generator: Adobe Illustrator 16.0.0, SVG Export Plug-In . SVG Version: 6.00 Build 0)  -->
<!DOCTYPE svg PUBLIC "-//W3C//DTD SVG 1.1//EN" "http://www.w3.org/Graphics/SVG/1.1/DTD/svg11.dtd">
<svg version="1.1" id="图层_1" xmlns="http://www.w3.org/2000/svg" xmlns:xlink="http://www.w3.org/1999/xlink" x="0px" y="0px"
	 width="820px" height="280px" viewBox="0 0 820 280" enable-background="new 0 0 820 280" xml:space="preserve">
<linearGradient id="SVGID_1_" gradientUnits="userSpaceOnUse" x1="1012.9504" y1="742.9307" x2="930.4503" y2="660.4305" gradientTransform="matrix(1 0 0 1 -563.1992 -560.6797)">
	<stop  offset="0" style="stop-color:#0063FF"/>
	<stop  offset="1" style="stop-color:#00C8DE"/>
</linearGradient>
<path opacity="0.2" fill="url(#SVGID_1_)" enable-background="new    " d="M361,106v70h95v-70H361z M437.354,150.539
	c-6.136,0-11.108-4.975-11.108-11.107c0-6.135,4.975-11.108,11.108-11.108s11.106,4.973,11.106,11.108
	C448.461,145.564,443.488,150.539,437.354,150.539z"/>
<g>
	<g>
		<path fill="#DDDDDD" d="M262.004,138.339h8v-2h-8V138.339z M274.004,138.339h8v-2h-8V138.339z M286.004,138.339h8v-2h-8V138.339z
			 M298.004,138.339h8v-2h-8V138.339z M310.006,133.137v8.224l9.24-4.155L310.006,133.137z M214.142,138.339h8v-2h-8V138.339z
			 M226.142,138.339h8v-2h-8V138.339z M250.142,138.339h8v-2h-8V138.339z M238.142,138.339h8v-2h-8V138.339z"/>
	</g>
</g>
<g>
	<g>
		<path fill="#DDDDDD" d="M559.422,141.23h8v-2h-8V141.23z M571.422,141.23h8v-2h-8V141.23z M583.422,141.23h8v-2h-8V141.23z
			 M595.422,141.23h8v-2h-8V141.23z M607.424,136.028v8.224l9.242-4.155L607.424,136.028z M523.56,141.23h8v-2h-8V141.23z
			 M511.56,141.23h8v-2h-8V141.23z M535.56,141.23h8v-2h-8V141.23z M547.56,141.23h8v-2h-8V141.23z"/>
	</g>
</g>
<g>
	<path fill="#888888" d="M693.199,110.228v11.158h-1.021v-0.868h-7.364v0.868h-1.021v-11.158h2.994
		c0.326-0.597,0.557-1.166,0.688-1.708l1.021,0.141c-0.156,0.56-0.377,1.083-0.656,1.567H693.199z M684.814,113.28h7.364v-2.086
		h-7.364V113.28z M684.814,116.346h7.364v-2.142h-7.364V116.346z M684.814,119.552h7.364v-2.282h-7.364V119.552z"/>
	<path fill="#888888" d="M696.211,113.322h6.146v0.979h-3.233c-0.551,2.109-1.041,3.631-1.471,4.564
		c1.092-0.225,2.193-0.541,3.305-0.952c-0.383-0.803-0.74-1.498-1.076-2.086l0.854-0.42c0.684,1.213,1.313,2.52,1.893,3.92
		l-0.869,0.448c-0.121-0.327-0.263-0.668-0.42-1.022c-1.477,0.532-3.091,0.952-4.846,1.26l-0.236-0.952l0.225-0.084
		c0.42-0.578,0.98-2.137,1.68-4.676h-1.943v-0.979H696.211z M696.756,109.542h5.066v0.966h-5.066V109.542z M704.442,108.604h1.022
		v2.549h3.064c0,4.563-0.064,7.41-0.197,8.54c-0.139,1.045-0.772,1.567-1.901,1.567c-0.243,0-0.672-0.014-1.288-0.042l-0.227-0.896
		c0.712,0.037,1.174,0.056,1.389,0.056c0.598,0,0.945-0.359,1.05-1.078c0.093-0.746,0.154-3.141,0.183-7.182h-2.07v0.252
		c-0.028,4.135-1.01,7.163-2.94,9.086l-0.798-0.7c1.783-1.736,2.688-4.531,2.716-8.386v-0.252h-1.734v-0.966h1.734L704.442,108.604
		L704.442,108.604z"/>
	<path fill="#888888" d="M710.588,110.452h2.381v-1.722h1.008v1.722h2.352v0.966h-2.352v1.778h2.604v0.979h-6.313v-0.979h2.702
		v-1.778h-2.381L710.588,110.452L710.588,110.452z M710.49,116.304h2.479v-1.609h1.008v1.609h2.422v0.952h-2.422v2.296
		c0.979-0.14,1.891-0.294,2.729-0.462v1.022c-1.895,0.373-3.993,0.677-6.301,0.91l-0.14-1.064c0.756-0.065,1.657-0.158,2.702-0.28
		v-2.422h-2.479L710.49,116.304L710.49,116.304z M716.721,111.39h3.836v-2.855h0.979v2.855h1.231v0.967h-1.231v7.531
		c0,0.924-0.488,1.387-1.471,1.387h-1.736l-0.224-0.98c0.747,0.037,1.283,0.056,1.61,0.056c0.56,0,0.84-0.237,0.84-0.714v-7.279
		h-3.836L716.721,111.39L716.721,111.39z M717.98,113.91c0.616,0.961,1.181,2.054,1.694,3.275l-0.826,0.435
		c-0.504-1.232-1.078-2.348-1.724-3.346L717.98,113.91z"/>
	<path fill="#888888" d="M724.615,109.794h2.449v-1.26h0.994v1.26h2.114v0.91h-2.114v0.252c0.616,0.364,1.26,0.793,1.932,1.288
		l-0.529,0.812c-0.542-0.588-1.01-1.055-1.4-1.399v2.422h-0.994v-2.521c-0.569,0.915-1.26,1.708-2.072,2.381l-0.56-0.826
		c1.017-0.672,1.839-1.475,2.464-2.408h-2.281L724.615,109.794L724.615,109.794z M724.603,116.668h11.788v0.91h-5.18v2.771
		c0,0.7-0.39,1.051-1.162,1.051h-1.344l-0.196-0.91c0.466,0.046,0.872,0.069,1.218,0.069c0.309,0,0.462-0.149,0.462-0.447v-2.534
		h-5.586V116.668L724.603,116.668z M728.004,118.894c-0.746,0.925-1.67,1.741-2.771,2.45l-0.615-0.798
		c1.082-0.653,1.982-1.409,2.701-2.268L728.004,118.894z M725.834,114.624h9.449v0.896h-9.449V114.624z M730.791,109.794h2.043
		v-1.274h0.992v1.274h2.521v0.91h-2.03c0.485,0.896,1.274,1.689,2.366,2.38l-0.645,0.813c-1.026-0.905-1.766-1.881-2.214-2.927
		v3.122h-0.992v-3.052c-0.578,1.213-1.283,2.207-2.113,2.982l-0.563-0.841c0.906-0.69,1.645-1.517,2.214-2.478h-1.581
		L730.791,109.794L730.791,109.794z M733.395,118.292c1.064,0.606,2.049,1.363,2.954,2.268l-0.562,0.854
		c-0.951-1.008-1.918-1.792-2.896-2.353L733.395,118.292z"/>
</g>
<g>
	<path fill="#888888" d="M685.162,248.072l-0.672-0.826c1.568-1.036,2.604-2.329,3.108-3.878c0.159-0.552,0.284-1.144,0.378-1.778
		h-3.99v9.59h-1.021v-10.57h5.124c0.072-0.766,0.11-1.529,0.11-2.297h1.021c0,0.711-0.033,1.478-0.099,2.297h4.913v9.018
		c0,0.941-0.451,1.414-1.356,1.414h-2.198l-0.279-1.008l2.144,0.056c0.448,0,0.672-0.229,0.672-0.687v-7.813h-4.004
		c-0.075,0.588-0.163,1.088-0.269,1.498c1.431,1.346,2.651,2.697,3.669,4.061l-0.757,0.771c-0.793-1.176-1.859-2.45-3.205-3.821
		C687.885,245.684,686.787,247.008,685.162,248.072z"/>
	<path fill="#888888" d="M702.902,242.766c1.129,1.41,3.085,2.646,5.866,3.711l-0.546,0.826c-0.563-0.225-1.078-0.449-1.557-0.673
		v4.578H705.7v-0.588h-6.258v0.588h-0.979v-4.634c-0.506,0.242-1.083,0.488-1.736,0.742l-0.531-0.826
		c2.566-0.952,4.545-2.193,5.938-3.725H702.902L702.902,242.766z M701.488,241.646c-1.192,1.035-2.655,1.944-4.382,2.729
		l-0.604-0.784c1.709-0.729,3.146-1.575,4.313-2.548L701.488,241.646z M702.662,238.286c0.15,0.317,0.311,0.731,0.479,1.246h5.082
		v2.491h-0.98v-1.556h-9.491v1.624h-0.979v-2.563h5.32c-0.159-0.363-0.327-0.719-0.505-1.063L702.662,238.286z M706.515,246.561
		c-1.708-0.84-3.043-1.812-4.004-2.912c-1.11,1.166-2.45,2.139-4.021,2.912H706.515z M699.445,249.695h6.258v-2.239h-6.258V249.695z
		 M704.135,241.059c1.708,0.887,3.127,1.754,4.256,2.604l-0.7,0.687c-1.008-0.83-2.407-1.718-4.2-2.66L704.135,241.059z"/>
	<path fill="#888888" d="M722.125,239.182v11.746h-1.01v-0.518h-9.238v0.518h-1.01v-11.746H722.125z M711.877,249.486h9.238v-9.381
		h-9.238V249.486z M713.836,242.248h5.318v5.04h-5.318V242.248z M718.177,246.378v-3.22h-3.36v3.22H718.177z"/>
	<path fill="#888888" d="M724.084,242.641h2.927v5.838c0.448-0.41,0.798-0.742,1.05-0.994l0.252,0.994
		c-0.699,0.709-1.433,1.34-2.197,1.892l-0.393-0.896c0.205-0.178,0.309-0.367,0.309-0.574v-5.291h-1.947V242.641L724.084,242.641z
		 M725.793,238.523c0.887,0.699,1.629,1.398,2.226,2.101l-0.687,0.7c-0.562-0.672-1.309-1.377-2.239-2.114L725.793,238.523z
		 M736.391,238.902v10.976c0,0.831-0.42,1.246-1.26,1.246h-1.346l-0.236-0.924c0.467,0.026,0.896,0.042,1.287,0.042
		c0.4,0,0.603-0.233,0.603-0.7v-9.729h-5.67v6.775c-0.028,1.895-0.462,3.43-1.302,4.605l-0.742-0.688
		c0.7-1.025,1.064-2.313,1.092-3.863v-7.74H736.391L736.391,238.902z M730.494,241.479h1.61v-1.104h0.952v1.104h1.624v0.826h-1.624
		v1.315h1.861v0.84h-4.647v-0.84h1.834v-1.315h-1.61V241.479L730.494,241.479z M730.721,245.454h3.725v3.569h-3.725V245.454z
		 M733.574,248.198v-1.904h-1.986v1.904H733.574z"/>
</g>
<g>
	<path fill="#888888" d="M386.543,216.085l-0.674-0.826c1.568-1.036,2.604-2.329,3.108-3.878c0.159-0.551,0.285-1.145,0.378-1.777
		h-3.99v9.59h-1.021v-10.568h5.124c0.074-0.768,0.11-1.531,0.11-2.297h1.022c0,0.71-0.033,1.477-0.098,2.297h4.914v9.018
		c0,0.94-0.453,1.414-1.358,1.414h-2.198l-0.28-1.01l2.144,0.057c0.448,0,0.672-0.229,0.672-0.687v-7.813h-4.004
		c-0.075,0.588-0.164,1.088-0.266,1.498c1.428,1.344,2.649,2.696,3.668,4.061l-0.758,0.771c-0.793-1.177-1.86-2.449-3.205-3.822
		C389.264,213.695,388.165,215.021,386.543,216.085z"/>
	<path fill="#888888" d="M404.281,210.777c1.129,1.41,3.085,2.646,5.866,3.711l-0.546,0.826c-0.56-0.226-1.078-0.448-1.554-0.672
		v4.578h-0.968v-0.59h-6.258v0.59h-0.979v-4.636c-0.504,0.242-1.083,0.489-1.736,0.742l-0.532-0.826
		c2.566-0.952,4.545-2.192,5.938-3.726h0.769V210.777z M402.866,209.658c-1.193,1.035-2.654,1.945-4.382,2.73l-0.602-0.785
		c1.708-0.729,3.146-1.576,4.312-2.547L402.866,209.658z M404.043,206.299c0.147,0.317,0.308,0.732,0.476,1.246h5.082v2.492h-0.98
		v-1.555h-9.49v1.623h-0.98v-2.563h5.32c-0.159-0.363-0.327-0.719-0.504-1.063L404.043,206.299z M407.894,214.572
		c-1.708-0.84-3.043-1.811-4.004-2.912c-1.111,1.167-2.45,2.138-4.02,2.912H407.894z M400.823,217.709h6.258v-2.24h-6.258V217.709z
		 M405.514,209.07c1.708,0.887,3.126,1.755,4.256,2.604l-0.7,0.686c-1.008-0.83-2.408-1.717-4.2-2.658L405.514,209.07z"/>
	<path fill="#888888" d="M423.686,207.434v2.449h-0.98v-1.54h-9.716v1.61h-0.979v-2.521h5.334c-0.159-0.399-0.304-0.736-0.436-1.008
		l1.063-0.183c0.103,0.262,0.237,0.657,0.405,1.19h5.307L423.686,207.434L423.686,207.434z M417.412,216.406h-3.106v0.826h-0.979
		v-6.791h4.088v-1.398h1.01v1.398h4.129v6.748h-0.979v-0.783h-3.147v2.843h-1.008v-2.843H417.412z M417.412,211.366h-3.106v1.61
		h3.106V211.366z M414.306,213.873v1.609h3.106v-1.609H414.306z M421.571,212.977v-1.608h-3.147v1.608H421.571z M418.422,215.482
		h3.147v-1.609h-3.147V215.482z"/>
	<path fill="#888888" d="M428.529,219.207h-0.966v-7.016c-0.438,1.41-1.022,2.697-1.75,3.865l-0.42-1.037
		c0.989-1.418,1.698-3.064,2.128-4.94h-1.891v-0.968h1.933v-2.729h0.966v2.729h1.652v0.968h-1.652v0.909
		c0.635,0.729,1.316,1.602,2.045,2.617l-0.561,0.854c-0.616-1.057-1.111-1.85-1.484-2.38V219.207z M430.321,219.107l-0.546-0.867
		c3.295-1.082,5.759-3.154,7.395-6.217l0.854,0.449c-0.662,1.25-1.456,2.342-2.38,3.274c1.055,0.935,1.913,1.817,2.575,2.659
		l-0.729,0.729c-0.614-0.869-1.44-1.793-2.478-2.773C433.648,217.588,432.086,218.502,430.321,219.107z M430.531,207.908h3.5
		c-0.193-0.504-0.42-0.967-0.672-1.387l1.036-0.168c0.224,0.484,0.429,1.004,0.616,1.555h3.105v0.91h-3.836
		c-0.772,1.371-1.451,2.338-2.027,2.896c1.154-0.074,2.038-0.136,2.646-0.183c0.383-0.521,0.704-1.052,0.966-1.581l0.813,0.436
		c-1.41,2.791-3.463,4.686-6.16,5.684l-0.546-0.84c1.688-0.599,3.106-1.541,4.256-2.828c-1.214,0.063-2.259,0.117-3.136,0.154
		l-0.211-0.826c0.057-0.021,0.121-0.047,0.195-0.084c0.552-0.354,1.273-1.297,2.171-2.828h-2.718L430.531,207.908L430.531,207.908z"
		/>
</g>
<g>
	<path fill="#888888" d="M97.856,214.629c-0.159,1.801-0.681,3.285-1.566,4.452l-0.771-0.687c0.896-1.25,1.358-2.832,1.386-4.746
		v-6.722h10.432v10.486c0,0.979-0.49,1.47-1.472,1.47h-1.608l-0.268-0.992c0.747,0.035,1.267,0.055,1.556,0.055
		c0.513,0,0.77-0.293,0.77-0.881v-2.438h-3.808v4.104h-1.036v-4.104L97.856,214.629L97.856,214.629z M101.468,207.908h-3.556v2.408
		h3.556V207.908z M97.912,211.255v2.45h3.556v-2.45H97.912z M106.312,210.316v-2.408h-3.808v2.408H106.312z M106.312,213.705v-2.45
		h-3.808v2.45H106.312z"/>
	<path fill="#888888" d="M112.122,212.795c-0.075,2.512-0.737,4.667-1.988,6.469l-0.742-0.673c1.129-1.559,1.708-3.599,1.736-6.118
		v-4.382h4.563c-0.262-0.616-0.53-1.161-0.812-1.638l1.078-0.169c0.252,0.532,0.504,1.135,0.756,1.807h4.424v4.704H112.122
		L112.122,212.795z M120.116,209.085h-7.994v2.729h7.994V209.085z"/>
	<path fill="#888888" d="M135.642,206.984v12.223h-0.979v-0.574h-9.466v0.574h-0.979v-12.223H135.642L135.642,206.984z
		 M125.198,217.736h9.466v-9.855h-9.466V217.736z M129.482,208.301c-0.13,0.317-0.252,0.574-0.362,0.77h3.694v0.701
		c-0.399,0.756-0.994,1.408-1.776,1.959c0.979,0.469,2.049,0.836,3.206,1.106l-0.532,0.756c-1.363-0.364-2.529-0.815-3.5-1.358
		c-1.083,0.58-2.417,1.041-4.004,1.389l-0.448-0.813c1.437-0.252,2.65-0.61,3.64-1.078c-0.56-0.373-1.029-0.766-1.414-1.176
		c-0.42,0.393-0.896,0.756-1.428,1.092l-0.56-0.729c1.277-0.756,2.142-1.666,2.59-2.729L129.482,208.301z M127.438,215.063
		c1.85,0.348,3.635,0.847,5.362,1.498l-0.336,0.813c-1.736-0.673-3.542-1.19-5.418-1.556L127.438,215.063z M128.894,213.104
		c1.064,0.354,2.067,0.793,3.01,1.315l-0.476,0.728c-0.943-0.567-1.941-1.024-2.996-1.371L128.894,213.104z M131.806,209.826h-3.178
		c-0.058,0.057-0.1,0.111-0.126,0.169c0.483,0.467,1.055,0.899,1.708,1.302C130.901,210.877,131.433,210.387,131.806,209.826z"/>
	<path fill="#888888" d="M140.668,214.167c-0.31,2.081-0.994,3.683-2.06,4.802l-0.756-0.672c1.279-1.354,1.927-3.533,1.946-6.538
		v-5.222h1.036v3.262h4.396v-3.431h0.98v3.431h3.864v0.979h-9.24v0.98c-0.009,0.354-0.033,0.835-0.07,1.441h6.398v6.033h-1.022
		v-5.066L140.668,214.167L140.668,214.167z"/>
</g>
<linearGradient id="SVGID_2_" gradientUnits="userSpaceOnUse" x1="1303.9504" y1="775.9297" x2="1240.451" y2="712.4302" gradientTransform="matrix(1 0 0 1 -563.1992 -560.6797)">
	<stop  offset="0" style="stop-color:#0063FF"/>
	<stop  offset="1" style="stop-color:#00C8DE"/>
</linearGradient>
<rect x="672" y="157" opacity="0.2" fill="url(#SVGID_2_)" enable-background="new    " width="74" height="53"/>
<linearGradient id="SVGID_3_" gradientUnits="userSpaceOnUse" x1="715.5022" y1="733.4814" x2="643.4505" y2="661.4297" gradientTransform="matrix(1 0 0 1 -563.1992 -560.6797)">
	<stop  offset="0" style="stop-color:#0063FF"/>
	<stop  offset="1" style="stop-color:#00C8DE"/>
</linearGradient>
<path opacity="0.2" fill="url(#SVGID_3_)" enable-background="new    " d="M144.604,165.102c0-12.213,9.9-22.098,22.111-22.098
	c0.771,0,1.534,0.057,2.285,0.133V107H74v70h74.104C145.892,174,144.604,169.496,144.604,165.102z"/>
<g>
	
		<linearGradient id="SVGID_4_" gradientUnits="userSpaceOnUse" x1="666.3733" y1="692.3379" x2="655.0561" y2="681.0208" gradientTransform="matrix(1 0 0 1 -563.1992 -560.6797)">
		<stop  offset="0" style="stop-color:#0063FF"/>
		<stop  offset="1" style="stop-color:#00C8DE"/>
	</linearGradient>
	<path fill="url(#SVGID_4_)" d="M89.508,125.999c0,4.415,3.592,8.007,8.007,8.007c4.414,0,8.006-3.592,8.006-8.007
		s-3.592-8.006-8.006-8.006C93.1,117.993,89.508,121.584,89.508,125.999z M103.521,125.999c0,3.312-2.692,6.007-6.006,6.007
		c-3.313,0-6.007-2.695-6.007-6.007s2.694-6.006,6.007-6.006C100.826,119.993,103.521,122.687,103.521,125.999z"/>
	
		<linearGradient id="SVGID_5_" gradientUnits="userSpaceOnUse" x1="710.7141" y1="723.1943" x2="648.2001" y2="660.6803" gradientTransform="matrix(1 0 0 1 -563.1992 -560.6797)">
		<stop  offset="0" style="stop-color:#0063FF"/>
		<stop  offset="1" style="stop-color:#00C8DE"/>
	</linearGradient>
	<path fill="url(#SVGID_5_)" d="M166.715,143.02c0.096,0,0.188,0.006,0.285,0.008V109H76v55h68.631c0.016,0,0.041-1,0.072-1H77
		v-6.178l18.933-13.234l15.277,13.09l30.051-26.007l14.778,15.097c0.61-0.338,1.243-0.646,1.89-0.929l-16.555-16.912l-30.17,26.111
		L96.067,141.07L77,154.146V110h89v33.038C166.238,143.029,166.475,143.02,166.715,143.02z"/>
	
		<linearGradient id="SVGID_6_" gradientUnits="userSpaceOnUse" x1="719.1458" y1="737.125" x2="639.4506" y2="657.4298" gradientTransform="matrix(1 0 0 1 -563.1992 -560.6797)">
		<stop  offset="0" style="stop-color:#0063FF"/>
		<stop  offset="1" style="stop-color:#00C8DE"/>
	</linearGradient>
	<path fill="url(#SVGID_6_)" d="M71,180v-76h101v39.438c0.679,0.136,0.346,0.302,1,0.494V103H70v78h81.39c-0.653-1-1.27,0-1.843-1
		H71z"/>
</g>
<linearGradient id="SVGID_7_" gradientUnits="userSpaceOnUse" x1="741.0051" y1="736.3516" x2="718.8293" y2="714.1758" gradientTransform="matrix(1 0 0 1 -563.1992 -560.6797)">
	<stop  offset="0" style="stop-color:#0063FF"/>
	<stop  offset="1" style="stop-color:#0088F3"/>
</linearGradient>
<path fill="url(#SVGID_7_)" d="M166.717,148.895c-8.65,0-15.688,7.039-15.688,15.688s7.037,15.688,15.688,15.688
	s15.688-7.039,15.688-15.688C182.404,155.934,175.367,148.895,166.717,148.895z M166.717,178.271
	c-7.547,0-13.688-6.143-13.688-13.688s6.143-13.688,13.688-13.688s13.688,6.143,13.688,13.688
	C180.404,172.13,174.264,178.271,166.717,178.271z"/>
<linearGradient id="SVGID_8_" gradientUnits="userSpaceOnUse" x1="733.7776" y1="728.1025" x2="726.7273" y2="721.0521" gradientTransform="matrix(1 0 0 1 -563.1992 -560.6797)">
	<stop  offset="0" style="stop-color:#0063FF"/>
	<stop  offset="1" style="stop-color:#0063FF"/>
</linearGradient>
<polygon fill="url(#SVGID_8_)" points="166.308,157.627 166.289,157.609 161.429,162.471 162.843,163.885 166,160.727 166,170 
	168,170 168,160.609 171.208,163.941 172.649,162.557 167.138,156.828 "/>
<g>
	<g>
		
			<linearGradient id="SVGID_9_" gradientUnits="userSpaceOnUse" x1="1301.718" y1="653.2168" x2="1232.6163" y2="584.1151" gradientTransform="matrix(1 0 0 1 -563.1992 -560.6797)">
			<stop  offset="0" style="stop-color:#0063FF"/>
			<stop  offset="1" style="stop-color:#00C8DE"/>
		</linearGradient>
		<path fill="url(#SVGID_9_)" d="M736.919,64.771c-6.709,0-12.167,5.458-12.167,12.166c0,6.709,5.458,12.167,12.167,12.167
			c6.708,0,12.166-5.458,12.166-12.167C749.085,70.229,743.627,64.771,736.919,64.771z M736.919,87.104
			c-5.607,0-10.167-4.562-10.167-10.167c0-2.265,0.753-4.353,2.011-6.045l14.716,13.798
			C741.705,86.193,739.419,87.104,736.919,87.104z M744.867,83.254L730.107,69.41c1.804-1.635,4.188-2.64,6.813-2.64
			c5.604,0,10.166,4.56,10.166,10.166C747.085,79.325,746.253,81.517,744.867,83.254z M675.416,84.436v-51h61v25.959
			c0.331-0.022,0.663-0.046,1-0.05v-26.91h-8v-6h-63v53h8v6h47.346c-0.17-0.327-0.331-0.66-0.48-1L675.416,84.436L675.416,84.436z
			 M674.416,78.436h-7v-51h61v5h-54V78.436z M719.385,57.403l-0.374-1.621l-1.662,0.073c-0.045,0.002-0.089,0.006-0.134,0.009
			c-0.512-3.255-1.701-9.242-3.778-11.317l-1.414,1.415c1.401,1.399,2.558,6.099,3.195,10.086c-4.623,0.637-8.191,2.659-9.847,5.627
			h-0.165c-1.654-2.967-5.229-4.988-9.868-5.626c0.65-3.974,1.769-8.19,2.837-9.259l-1.414-1.414
			c-1.841,1.841-2.991,7.858-3.419,10.49c-0.053-0.003-0.104-0.008-0.156-0.01l-1.661-0.072l-0.374,1.621
			c-1.293,5.608-1.079,9.419,0.655,11.65l0.016,0.02l0.017,0.02c0.988,1.207,2.448,1.899,4.006,1.899
			c0.099,0,0.199-0.003,0.299-0.009c2.486-0.022,5.593-1.27,8.781-3.521h0.684c3.187,2.252,6.295,3.499,8.782,3.521
			c0.101,0.006,0.2,0.009,0.3,0.009c1.21,0,2.359-0.417,3.273-1.167h0.16l0.605-0.77C720.465,66.83,720.68,63.018,719.385,57.403z
			 M717.152,67.827h-0.005c-0.604,0.742-1.51,1.167-2.457,1.167c-0.077,0-0.153-0.003-0.23-0.008c-2.102,0-4.982-1.199-7.9-3.3
			l-0.309-0.222h-1.97l-0.308,0.222c-2.918,2.101-5.799,3.3-7.899,3.3c-0.077,0.005-0.153,0.008-0.229,0.008
			c-0.948,0-1.852-0.425-2.459-1.167c-0.922-1.186-1.691-3.875-0.285-9.974c4.158,0.18,8.861,1.599,10.542,5.15l0.317,0.672h2.66
			l0.316-0.672c1.682-3.547,6.363-4.969,10.5-5.15C718.843,63.953,718.076,66.641,717.152,67.827z"/>
	</g>
</g>
<linearGradient id="SVGID_10_" gradientUnits="userSpaceOnUse" x1="1009.6604" y1="-153.9009" x2="958.661" y2="-204.9003" gradientTransform="matrix(1 0 0 -1 -281.5996 -123.8398)">
	<stop  offset="0" style="stop-color:#0063FF"/>
	<stop  offset="1" style="stop-color:#00C8DE"/>
</linearGradient>
<path opacity="0.2" fill="url(#SVGID_10_)" enable-background="new    " d="M678,36v46h42.241c-0.255-1-0.602-3.354-0.602-4.628
	c0-8.888,5.838-16.224,14.358-17.534V36H678z M690,74h-4.518H684v-1v-5h1v5h5V74z M690,43h-5v5h-1v-5v-1h1h5V43z M728,43v5h-1v-5h-5
	v-1h4.298H728V43z"/>
<g>
	<path fill="#FFFFFF" d="M676.065,166.259c0.159,0.171,0.239,0.377,0.239,0.621c0,0.208-0.066,0.403-0.201,0.585
		c-0.136,0.178-0.289,0.268-0.462,0.268c-0.124,0-0.196-0.063-0.219-0.187c-0.086,0.126-0.202,0.188-0.35,0.188
		c-0.134,0-0.242-0.045-0.327-0.135c-0.084-0.092-0.126-0.203-0.126-0.341c0-0.21,0.064-0.396,0.195-0.555
		c0.128-0.164,0.282-0.246,0.465-0.246c0.128,0,0.221,0.067,0.272,0.207l0.042-0.147h0.268l-0.204,0.729
		c-0.028,0.106-0.045,0.175-0.045,0.2c0,0.041,0.021,0.061,0.065,0.061c0.082,0,0.166-0.055,0.252-0.164
		c0.097-0.127,0.145-0.279,0.145-0.463c0-0.188-0.064-0.346-0.196-0.475c-0.146-0.143-0.345-0.215-0.599-0.215
		c-0.269,0-0.481,0.088-0.646,0.258c-0.16,0.166-0.239,0.384-0.239,0.652c0,0.295,0.085,0.521,0.255,0.668
		c0.155,0.141,0.38,0.207,0.672,0.207c0.189,0,0.355-0.029,0.498-0.092c0.126-0.061,0.229-0.144,0.305-0.25h0.28
		c-0.104,0.19-0.262,0.334-0.465,0.43c-0.187,0.084-0.393,0.125-0.618,0.125c-0.384,0-0.684-0.099-0.896-0.297
		c-0.212-0.195-0.317-0.465-0.317-0.804c0-0.313,0.104-0.575,0.311-0.782c0.222-0.229,0.516-0.343,0.882-0.343
		C675.622,165.968,675.879,166.064,676.065,166.259z M675.037,166.893c-0.084,0.113-0.126,0.24-0.126,0.381
		c0,0.072,0.017,0.125,0.046,0.162c0.029,0.039,0.076,0.061,0.142,0.061c0.059,0,0.114-0.021,0.168-0.063
		c0.061-0.049,0.103-0.108,0.126-0.187l0.061-0.218c0.023-0.088,0.036-0.141,0.036-0.157c0-0.045-0.017-0.08-0.048-0.106
		c-0.027-0.029-0.063-0.043-0.104-0.043C675.222,166.721,675.121,166.777,675.037,166.893z"/>
	<path fill="#FFFFFF" d="M677.375,166.01h0.397l0.819,2.143h-0.375l-0.195-0.535h-0.896l-0.194,0.535h-0.375L677.375,166.01z
		 M677.231,167.326h0.688l-0.337-0.938h-0.014L677.231,167.326z"/>
	<path fill="#FFFFFF" d="M678.773,166.602h0.343v0.944c0,0.126,0.025,0.218,0.077,0.276c0.057,0.058,0.143,0.086,0.259,0.086
		c0.073,0,0.146-0.031,0.218-0.096c0.067-0.067,0.118-0.156,0.147-0.266v-0.945h0.343v1.551h-0.343v-0.201
		c-0.132,0.162-0.294,0.242-0.484,0.242c-0.371,0-0.56-0.209-0.56-0.627V166.602z"/>
	<path fill="#FFFFFF" d="M681.006,166.1v0.502h0.345v0.281h-0.345v0.876c0,0.038,0.008,0.065,0.022,0.084
		c0.02,0.019,0.044,0.026,0.077,0.026h0.204v0.283h-0.261c-0.135,0-0.233-0.037-0.297-0.108c-0.063-0.065-0.092-0.161-0.092-0.285
		v-0.876h-0.277v-0.281h0.277v-0.359L681.006,166.1z"/>
	<path fill="#FFFFFF" d="M682.893,166.79c0.143,0.153,0.213,0.351,0.213,0.588c0,0.235-0.069,0.431-0.21,0.582
		c-0.144,0.155-0.334,0.233-0.569,0.233c-0.234,0-0.427-0.078-0.568-0.233c-0.142-0.147-0.21-0.343-0.21-0.582
		c0-0.242,0.069-0.438,0.213-0.588c0.14-0.154,0.329-0.231,0.565-0.231C682.562,166.559,682.75,166.636,682.893,166.79z
		 M681.994,167.006c-0.064,0.096-0.1,0.221-0.1,0.372c0,0.149,0.033,0.272,0.1,0.369c0.078,0.112,0.188,0.168,0.33,0.168
		c0.144,0,0.252-0.056,0.33-0.168c0.067-0.103,0.104-0.226,0.104-0.369c0-0.149-0.034-0.274-0.104-0.372
		c-0.076-0.111-0.187-0.168-0.33-0.168C682.182,166.838,682.071,166.895,681.994,167.006z"/>
	<path fill="#FFFFFF" d="M683.24,166.602h0.378l0.312,1.146l0.306-1.146h0.315l0.306,1.146l0.311-1.146h0.379l-0.522,1.551h-0.317
		l-0.31-1.135l-0.312,1.135h-0.318L683.24,166.602z"/>
	<path fill="#FFFFFF" d="M686.136,166.031c0.044,0.043,0.063,0.098,0.063,0.162c0,0.065-0.021,0.123-0.066,0.164
		c-0.044,0.043-0.102,0.063-0.165,0.063c-0.064,0-0.119-0.021-0.165-0.063c-0.044-0.043-0.066-0.101-0.066-0.164
		c0-0.066,0.022-0.121,0.066-0.162c0.046-0.043,0.101-0.063,0.165-0.063C686.033,165.968,686.092,165.988,686.136,166.031z
		 M685.797,166.602h0.342v1.551h-0.342V166.602z"/>
	<path fill="#FFFFFF" d="M687.489,166.598v0.342c-0.072-0.021-0.146-0.031-0.223-0.031c-0.092,0-0.173,0.033-0.243,0.104
		c-0.082,0.08-0.123,0.188-0.123,0.318v0.822h-0.339v-1.551h0.339v0.221c0.042-0.08,0.092-0.139,0.147-0.18
		c0.066-0.058,0.148-0.084,0.246-0.084C687.37,166.559,687.437,166.572,687.489,166.598z"/>
	<path fill="#FFFFFF" d="M688.929,166.816c0.124,0.158,0.187,0.377,0.187,0.654h-1.161c0.014,0.146,0.053,0.256,0.117,0.328
		c0.065,0.076,0.16,0.114,0.284,0.114c0.104,0,0.189-0.022,0.256-0.072c0.05-0.036,0.096-0.101,0.139-0.188h0.343
		c-0.036,0.146-0.108,0.268-0.218,0.363c-0.14,0.116-0.313,0.176-0.516,0.176c-0.229,0-0.413-0.069-0.55-0.213
		c-0.144-0.146-0.216-0.351-0.216-0.604c0-0.231,0.066-0.426,0.204-0.579c0.132-0.156,0.313-0.236,0.546-0.236
		C688.6,166.559,688.795,166.645,688.929,166.816z M688.086,166.934c-0.063,0.063-0.104,0.155-0.126,0.279h0.798
		c-0.03-0.25-0.165-0.375-0.405-0.375C688.239,166.838,688.149,166.869,688.086,166.934z"/>
	<path fill="#FFFFFF" d="M690.489,165.968h0.342v2.185h-0.316v-0.166c-0.107,0.141-0.266,0.207-0.468,0.207
		c-0.229,0-0.41-0.078-0.54-0.24c-0.12-0.15-0.182-0.346-0.182-0.582c0-0.229,0.061-0.42,0.178-0.566
		c0.127-0.162,0.302-0.242,0.524-0.242c0.181,0,0.334,0.086,0.462,0.256V165.968L690.489,165.968z M689.77,166.988
		c-0.063,0.086-0.094,0.213-0.094,0.381c0,0.17,0.027,0.299,0.087,0.387c0.068,0.107,0.182,0.162,0.333,0.162
		c0.135,0,0.236-0.053,0.31-0.159c0.063-0.099,0.098-0.222,0.098-0.372v-0.021c0-0.164-0.04-0.297-0.12-0.395
		c-0.072-0.091-0.163-0.136-0.272-0.136C689.952,166.835,689.841,166.886,689.77,166.988z"/>
	<path fill="#FFFFFF" d="M674.169,171.26h0.409l0.729,1.68h0.013l0.728-1.68h0.411v2.143h-0.353v-1.477h-0.013l-0.63,1.477h-0.305
		l-0.63-1.477h-0.013v1.477h-0.352L674.169,171.26L674.169,171.26z"/>
	<path fill="#FFFFFF" d="M676.683,171.852h0.372l0.411,1.104l0.394-1.104h0.372l-0.841,2.146h-0.365l0.272-0.631L676.683,171.852z"
		/>
	<path fill="#FFFFFF" d="M678.454,171.26h1.462v0.301h-1.109v0.594h1.048v0.301h-1.048v0.947h-0.353V171.26z"/>
	<path fill="#FFFFFF" d="M681.459,172.04c0.143,0.153,0.213,0.351,0.213,0.588c0,0.235-0.069,0.431-0.21,0.582
		c-0.146,0.155-0.334,0.233-0.569,0.233c-0.236,0-0.427-0.078-0.57-0.233c-0.14-0.147-0.21-0.343-0.21-0.582
		c0-0.242,0.071-0.438,0.213-0.588c0.142-0.154,0.329-0.231,0.567-0.231C681.128,171.809,681.317,171.886,681.459,172.04z
		 M680.563,172.256c-0.066,0.096-0.1,0.221-0.1,0.372c0,0.149,0.031,0.272,0.1,0.369c0.078,0.112,0.188,0.168,0.33,0.168
		c0.142,0,0.252-0.056,0.33-0.168c0.065-0.103,0.102-0.226,0.102-0.369c0-0.149-0.033-0.274-0.102-0.372
		c-0.076-0.111-0.188-0.168-0.33-0.168C680.746,172.088,680.638,172.145,680.563,172.256z"/>
	<path fill="#FFFFFF" d="M683.259,172.04c0.143,0.153,0.213,0.351,0.213,0.588c0,0.235-0.069,0.431-0.21,0.582
		c-0.146,0.155-0.334,0.233-0.569,0.233c-0.236,0-0.427-0.078-0.57-0.233c-0.14-0.147-0.21-0.343-0.21-0.582
		c0-0.242,0.071-0.438,0.213-0.588c0.142-0.154,0.329-0.231,0.567-0.231C682.928,171.809,683.115,171.886,683.259,172.04z
		 M682.362,172.256c-0.064,0.096-0.1,0.221-0.1,0.372c0,0.149,0.033,0.272,0.1,0.369c0.078,0.112,0.188,0.168,0.33,0.168
		c0.144,0,0.252-0.056,0.33-0.168c0.067-0.103,0.102-0.226,0.102-0.369c0-0.149-0.032-0.274-0.102-0.372
		c-0.076-0.111-0.187-0.168-0.33-0.168C682.549,172.088,682.438,172.145,682.362,172.256z"/>
	<path fill="#FFFFFF" d="M684.875,171.218h0.343v2.185H684.9v-0.166c-0.105,0.141-0.264,0.207-0.468,0.207
		c-0.229,0-0.41-0.078-0.54-0.24c-0.12-0.15-0.18-0.346-0.18-0.582c0-0.229,0.059-0.42,0.177-0.566
		c0.126-0.162,0.301-0.242,0.523-0.242c0.182,0,0.334,0.086,0.463,0.256V171.218z M684.156,172.238
		c-0.063,0.086-0.094,0.213-0.094,0.381c0,0.17,0.029,0.299,0.087,0.387c0.07,0.107,0.182,0.162,0.333,0.162
		c0.135,0,0.237-0.053,0.31-0.159c0.063-0.099,0.098-0.222,0.098-0.372v-0.021c0-0.164-0.04-0.297-0.12-0.395
		c-0.072-0.091-0.163-0.136-0.272-0.136C684.341,172.085,684.228,172.136,684.156,172.238z"/>
	<path fill="#FFFFFF" d="M685.607,171.26h0.783c0.346,0,0.606,0.096,0.789,0.288c0.172,0.183,0.258,0.442,0.258,0.783
		c0,0.338-0.086,0.599-0.258,0.782c-0.183,0.191-0.443,0.289-0.789,0.289h-0.783V171.26z M685.956,171.561v1.541h0.366
		c0.269,0,0.461-0.062,0.585-0.186c0.12-0.126,0.183-0.32,0.183-0.585c0-0.272-0.063-0.468-0.183-0.589
		c-0.122-0.121-0.314-0.182-0.585-0.182H685.956L685.956,171.561z"/>
	<path fill="#FFFFFF" d="M688.948,171.98c0.099,0.098,0.146,0.24,0.146,0.432v0.99h-0.318v-0.205
		c-0.06,0.078-0.135,0.139-0.225,0.181c-0.104,0.044-0.222,0.065-0.351,0.065c-0.157,0-0.284-0.041-0.381-0.123
		c-0.096-0.084-0.144-0.195-0.144-0.336c0-0.193,0.076-0.338,0.228-0.437c0.128-0.082,0.297-0.123,0.509-0.123l0.34-0.003v-0.036
		c0-0.2-0.111-0.303-0.333-0.303c-0.104,0-0.185,0.021-0.24,0.06c-0.066,0.041-0.105,0.104-0.117,0.189h-0.339
		c0.023-0.188,0.104-0.325,0.237-0.411c0.111-0.075,0.272-0.112,0.48-0.112C688.673,171.809,688.842,171.865,688.948,171.98z
		 M688.752,172.686l-0.315,0.002c-0.271,0-0.408,0.098-0.408,0.289c0,0.053,0.021,0.102,0.063,0.143
		c0.044,0.037,0.104,0.057,0.188,0.057c0.145,0,0.257-0.037,0.346-0.111c0.084-0.078,0.128-0.185,0.128-0.313L688.752,172.686
		L688.752,172.686z"/>
	<path fill="#FFFFFF" d="M690.74,172.04c0.145,0.153,0.213,0.351,0.213,0.588c0,0.235-0.067,0.431-0.21,0.582
		c-0.144,0.155-0.334,0.233-0.567,0.233c-0.236,0-0.429-0.078-0.57-0.233c-0.14-0.147-0.21-0.343-0.21-0.582
		c0-0.242,0.071-0.438,0.213-0.588c0.14-0.154,0.329-0.231,0.567-0.231C690.407,171.809,690.599,171.886,690.74,172.04z
		 M689.844,172.256c-0.066,0.096-0.102,0.221-0.102,0.372c0,0.149,0.033,0.272,0.102,0.369c0.078,0.112,0.188,0.168,0.33,0.168
		c0.142,0,0.252-0.056,0.33-0.168c0.065-0.103,0.102-0.226,0.102-0.369c0-0.149-0.034-0.274-0.102-0.372
		c-0.076-0.111-0.188-0.168-0.33-0.168C690.029,172.088,689.919,172.145,689.844,172.256z"/>
	<path fill="#FFFFFF" d="M691.281,171.26h0.353v2.143h-0.353V171.26z"/>
	<path fill="#FFFFFF" d="M693.274,172.061c0.072-0.096,0.147-0.162,0.227-0.195c0.068-0.037,0.155-0.057,0.262-0.057
		c0.16,0,0.293,0.053,0.397,0.159c0.104,0.11,0.155,0.249,0.155,0.417v1.018h-0.342v-0.957c0-0.121-0.026-0.211-0.078-0.268
		c-0.054-0.056-0.14-0.084-0.258-0.084c-0.084,0-0.154,0.032-0.21,0.096c-0.06,0.063-0.087,0.148-0.087,0.266v0.947h-0.342v-0.953
		c0-0.235-0.104-0.354-0.309-0.354c-0.1,0-0.179,0.037-0.236,0.113c-0.061,0.07-0.09,0.159-0.09,0.266v0.93h-0.343v-1.551h0.343
		v0.157c0.128-0.134,0.27-0.2,0.42-0.2C693.014,171.809,693.177,171.893,693.274,172.061z"/>
	<path fill="#FFFFFF" d="M696.002,172.052c0.118,0.149,0.18,0.345,0.18,0.582c0,0.226-0.061,0.415-0.177,0.567
		c-0.126,0.162-0.303,0.242-0.524,0.242c-0.181,0-0.334-0.084-0.462-0.254v0.807h-0.343v-2.145h0.316v0.164
		c0.108-0.14,0.266-0.207,0.47-0.207C695.69,171.809,695.868,171.891,696.002,172.052z M695.103,172.244
		c-0.064,0.09-0.097,0.214-0.097,0.371v0.023c0,0.163,0.04,0.297,0.12,0.395c0.07,0.09,0.163,0.135,0.271,0.135
		c0.149,0,0.262-0.049,0.336-0.146c0.063-0.092,0.096-0.222,0.096-0.388s-0.027-0.295-0.087-0.387
		c-0.07-0.108-0.183-0.162-0.333-0.162C695.275,172.085,695.172,172.139,695.103,172.244z"/>
	<path fill="#FFFFFF" d="M696.512,171.218h0.342v2.185h-0.342V171.218z"/>
	<path fill="#FFFFFF" d="M699.491,172.061c0.072-0.096,0.147-0.162,0.228-0.195c0.067-0.037,0.156-0.057,0.261-0.057
		c0.16,0,0.293,0.053,0.399,0.159c0.104,0.11,0.153,0.249,0.153,0.417v1.018h-0.342v-0.957c0-0.121-0.025-0.211-0.078-0.268
		c-0.054-0.056-0.14-0.084-0.258-0.084c-0.084,0-0.154,0.032-0.21,0.096c-0.058,0.063-0.087,0.148-0.087,0.266v0.947h-0.342v-0.953
		c0-0.235-0.104-0.354-0.309-0.354c-0.1,0-0.179,0.037-0.234,0.113c-0.063,0.07-0.091,0.159-0.091,0.266v0.93h-0.344v-1.551h0.344
		v0.157c0.129-0.134,0.269-0.2,0.421-0.2C699.232,171.809,699.396,171.893,699.491,172.061z"/>
	<path fill="#FFFFFF" d="M701.997,171.218h0.344v2.185h-0.318v-0.166c-0.106,0.141-0.264,0.207-0.468,0.207
		c-0.229,0-0.41-0.078-0.54-0.24c-0.12-0.15-0.18-0.346-0.18-0.582c0-0.229,0.059-0.42,0.177-0.566
		c0.126-0.162,0.301-0.242,0.523-0.242c0.182,0,0.334,0.086,0.462,0.256V171.218z M701.279,172.238
		c-0.063,0.086-0.094,0.213-0.094,0.381c0,0.17,0.029,0.299,0.087,0.387c0.07,0.107,0.182,0.162,0.333,0.162
		c0.135,0,0.237-0.053,0.31-0.159c0.063-0.099,0.098-0.222,0.098-0.372v-0.021c0-0.164-0.04-0.297-0.12-0.395
		c-0.072-0.091-0.163-0.136-0.272-0.136C701.464,172.085,701.351,172.136,701.279,172.238z"/>
	<path fill="#FFFFFF" d="M703.1,171.281c0.044,0.043,0.063,0.098,0.063,0.162c0,0.065-0.021,0.123-0.066,0.164
		c-0.044,0.043-0.102,0.063-0.165,0.063c-0.064,0-0.119-0.021-0.165-0.063c-0.044-0.043-0.066-0.101-0.066-0.164
		c0-0.066,0.022-0.121,0.066-0.162c0.046-0.043,0.101-0.063,0.165-0.063C702.997,171.218,703.056,171.238,703.1,171.281z
		 M702.761,171.852h0.342v1.551h-0.342V171.852z"/>
	<path fill="#FFFFFF" d="M704.034,173.32c0,0.295-0.138,0.516-0.409,0.664l-0.105-0.172c0.178-0.109,0.276-0.248,0.294-0.416
		c-0.021,0.004-0.043,0.006-0.057,0.006c-0.064,0-0.119-0.021-0.165-0.063c-0.044-0.042-0.066-0.095-0.066-0.159
		c0-0.068,0.022-0.123,0.066-0.164c0.046-0.043,0.101-0.063,0.165-0.063C703.942,172.951,704.034,173.074,704.034,173.32z
		 M703.925,171.914c0.044,0.044,0.063,0.098,0.063,0.162c0,0.068-0.021,0.123-0.066,0.164c-0.044,0.043-0.102,0.063-0.165,0.063
		s-0.117-0.021-0.165-0.063c-0.044-0.044-0.066-0.097-0.066-0.162c0-0.066,0.022-0.12,0.066-0.162
		c0.046-0.042,0.101-0.063,0.165-0.063C703.823,171.852,703.881,171.872,703.925,171.914z"/>
	<path fill="#FFFFFF" d="M675.084,176.191h0.294l-1.041,2.76h-0.299L675.084,176.191z"/>
	<path fill="#FFFFFF" d="M676.086,176.51h0.294l-0.036,0.543l0.495-0.203l0.093,0.275l-0.521,0.139l0.359,0.398l-0.229,0.18
		l-0.31-0.453l-0.31,0.453l-0.229-0.18l0.359-0.398l-0.521-0.139l0.093-0.275l0.495,0.203L676.086,176.51z"/>
	<path fill="#FFFFFF" d="M677.634,176.51h0.294l-0.036,0.543l0.495-0.203l0.093,0.275l-0.521,0.139l0.357,0.398l-0.228,0.18
		l-0.311-0.453l-0.31,0.453l-0.229-0.18l0.359-0.398l-0.521-0.139l0.095-0.275l0.493,0.203L677.634,176.51z"/>
	<path fill="#FFFFFF" d="M675.585,181.76h0.294l-0.036,0.543l0.495-0.203l0.093,0.275l-0.521,0.139l0.359,0.398l-0.228,0.18
		l-0.311-0.453l-0.31,0.453l-0.229-0.18l0.359-0.398l-0.521-0.139l0.094-0.275l0.494,0.203L675.585,181.76z"/>
	<path fill="#FFFFFF" d="M678.396,182.045h0.606c0.022-0.076,0.041-0.145,0.051-0.207h-0.912v0.861
		c-0.012,0.629-0.111,1.134-0.3,1.512l-0.237-0.213c0.141-0.311,0.213-0.743,0.22-1.299v-1.168h2.496v0.307h-0.954
		c-0.015,0.072-0.03,0.141-0.055,0.207h0.802v1.212h-0.663v0.66c0,0.192-0.101,0.288-0.301,0.288h-0.303l-0.068-0.307
		c0.107,0.014,0.195,0.021,0.264,0.021c0.063,0,0.095-0.026,0.095-0.081v-0.582h-0.738L678.396,182.045L678.396,182.045z
		 M678.854,183.464c-0.134,0.261-0.289,0.483-0.465,0.669l-0.258-0.184c0.174-0.174,0.322-0.381,0.448-0.621L678.854,183.464z
		 M678.698,182.516h1.109v-0.186h-1.109V182.516z M679.809,182.975v-0.195h-1.109v0.195H679.809z M679.905,183.326
		c0.189,0.24,0.341,0.453,0.452,0.639l-0.261,0.178c-0.105-0.193-0.255-0.414-0.447-0.658L679.905,183.326z"/>
	<path fill="#FFFFFF" d="M681.258,181.445c-0.024,0.184-0.048,0.361-0.072,0.533h0.42v0.172c-0.014,0.476-0.089,0.891-0.225,1.244
		c0.122,0.131,0.227,0.252,0.313,0.364l-0.207,0.246c-0.071-0.097-0.155-0.196-0.252-0.306c-0.11,0.199-0.25,0.38-0.414,0.531
		l-0.196-0.248c0.158-0.143,0.293-0.313,0.396-0.514c-0.13-0.134-0.257-0.26-0.381-0.378c0.072-0.278,0.133-0.551,0.184-0.819
		h-0.199v-0.297h0.248c0.021-0.127,0.049-0.313,0.077-0.563L681.258,181.445z M681.318,182.275h-0.181
		c-0.053,0.297-0.104,0.537-0.156,0.724c0.08,0.075,0.139,0.132,0.175,0.168C681.244,182.902,681.3,182.605,681.318,182.275z
		 M681.656,182.402c0.142-0.03,0.345-0.354,0.608-0.973l0.3,0.102c-0.157,0.336-0.316,0.621-0.477,0.853
		c0.256-0.019,0.518-0.047,0.784-0.087c-0.07-0.152-0.139-0.283-0.199-0.396l0.267-0.129c0.146,0.248,0.286,0.535,0.427,0.861
		l-0.288,0.141l-0.087-0.213c-0.356,0.051-0.786,0.092-1.284,0.123L681.656,182.402z M683.181,182.885v1.332h-0.3v-0.162h-0.78
		v0.162h-0.297v-1.332H683.181z M682.101,183.762h0.78v-0.592h-0.78V183.762z"/>
	<path fill="#FFFFFF" d="M684.756,181.925v2.103h-0.302v-0.147h-0.442v0.237h-0.3v-2.19H684c0.054-0.159,0.093-0.323,0.115-0.493
		l0.314,0.041c-0.032,0.159-0.076,0.313-0.132,0.452L684.756,181.925L684.756,181.925z M684.012,182.744h0.442v-0.525h-0.442
		V182.744z M684.012,183.59h0.442v-0.566h-0.442V183.59z M686.301,181.925c0,1.05-0.017,1.698-0.045,1.944
		c-0.03,0.209-0.174,0.314-0.434,0.314c-0.061,0-0.168-0.008-0.322-0.02l-0.075-0.285c0.146,0.012,0.262,0.018,0.348,0.018
		c0.108,0,0.172-0.062,0.189-0.18c0.016-0.128,0.025-0.624,0.031-1.486h-0.727c-0.08,0.18-0.176,0.342-0.288,0.484l-0.188-0.249
		c0.194-0.276,0.33-0.625,0.4-1.041l0.311,0.039c-0.028,0.154-0.066,0.31-0.114,0.459L686.301,181.925L686.301,181.925z
		 M685.302,182.654c0.188,0.242,0.338,0.455,0.442,0.642l-0.252,0.175c-0.106-0.195-0.257-0.414-0.445-0.658L685.302,182.654z"/>
	<path fill="#FFFFFF" d="M687.146,182.285h0.291v0.398h0.243v0.28h-0.243v0.308c0.078-0.02,0.16-0.039,0.246-0.063v0.294
		c-0.056,0.018-0.138,0.038-0.246,0.064v0.646h-0.291v-0.582c-0.195,0.038-0.357,0.063-0.485,0.084l-0.042-0.306
		c0.189-0.024,0.366-0.053,0.527-0.082v-0.362h-0.429l-0.063-0.267c0.071-0.162,0.138-0.355,0.194-0.58h-0.204v-0.293h0.271
		c0.054-0.27,0.077-0.399,0.075-0.395l0.282,0.065l-0.066,0.327h0.486v0.293h-0.559c-0.058,0.205-0.115,0.393-0.179,0.564h0.188
		v-0.396h0.003V182.285z M688.068,182.201c-0.095,0.086-0.195,0.17-0.304,0.252l-0.171-0.258c0.304-0.215,0.572-0.467,0.811-0.756
		h0.229c0.258,0.313,0.521,0.563,0.785,0.742l-0.164,0.246c-0.114-0.082-0.218-0.164-0.308-0.246v0.161h-0.879V182.201
		L688.068,182.201z M688.155,184.193l-0.067-0.256l0.109,0.012c0.058,0,0.084-0.03,0.084-0.092v-0.192h-0.243v0.549h-0.271v-1.692
		h0.777v1.395c0,0.188-0.09,0.277-0.266,0.277H688.155L688.155,184.193z M688.036,182.984h0.243v-0.217h-0.243V182.984z
		 M688.036,183.428h0.243v-0.21h-0.243V183.428z M688.851,182.093c-0.124-0.12-0.234-0.243-0.333-0.372
		c-0.126,0.15-0.237,0.274-0.336,0.372H688.851z M688.653,182.611h0.233v1.096h-0.233V182.611z M688.761,184.199l-0.065-0.271
		c0.09,0.012,0.166,0.016,0.229,0.016c0.052,0,0.078-0.036,0.078-0.109v-1.335h0.27v1.403c0,0.197-0.084,0.298-0.252,0.298
		L688.761,184.199L688.761,184.199z"/>
	<path fill="#FFFFFF" d="M691.764,182.449v-0.789h0.313v1.09h-0.911v1.008h0.746v-0.783h0.314v1.219h-0.314v-0.133h-1.816v0.133
		h-0.314v-1.219h0.314v0.783h0.747v-1.008h-0.912v-1.09h0.313v0.789h0.599v-1.014h0.323v1.014H691.764z"/>
	<path fill="#FFFFFF" d="M692.746,182.352h0.344v1.691c0,0.303-0.161,0.453-0.483,0.453h-0.146v-0.279h0.115
		c0.113,0,0.172-0.063,0.172-0.189L692.746,182.352L692.746,182.352z M693.087,181.781c0.044,0.043,0.064,0.098,0.064,0.162
		c0,0.063-0.021,0.121-0.064,0.164c-0.05,0.043-0.104,0.063-0.169,0.063c-0.065,0-0.119-0.021-0.161-0.063
		c-0.046-0.043-0.069-0.101-0.069-0.164c0-0.068,0.023-0.123,0.069-0.162c0.042-0.043,0.096-0.063,0.161-0.063
		C692.987,181.718,693.043,181.738,693.087,181.781z"/>
	<path fill="#FFFFFF" d="M694.767,182.801h-0.333c-0.023-0.08-0.061-0.135-0.107-0.164c-0.05-0.033-0.128-0.049-0.232-0.049
		c-0.092,0-0.16,0.014-0.204,0.039c-0.052,0.025-0.078,0.068-0.078,0.129c0,0.051,0.041,0.094,0.123,0.129
		c0.053,0.021,0.155,0.053,0.31,0.09c0.182,0.045,0.312,0.094,0.392,0.147c0.124,0.077,0.187,0.187,0.187,0.327
		c0,0.33-0.231,0.494-0.698,0.494c-0.431,0-0.661-0.184-0.695-0.545h0.333c0.019,0.096,0.053,0.166,0.104,0.209
		c0.056,0.039,0.138,0.058,0.246,0.058c0.239,0,0.359-0.063,0.359-0.192c0-0.072-0.045-0.129-0.135-0.171
		c-0.04-0.021-0.144-0.049-0.308-0.087c-0.183-0.042-0.312-0.087-0.388-0.135c-0.12-0.076-0.18-0.182-0.18-0.314
		c0-0.146,0.059-0.258,0.177-0.334c0.114-0.082,0.269-0.123,0.462-0.123C694.508,182.309,694.731,182.473,694.767,182.801z"/>
	<path fill="#FFFFFF" d="M696.375,182.54c0.143,0.153,0.213,0.351,0.213,0.588c0,0.235-0.069,0.431-0.21,0.582
		c-0.146,0.155-0.334,0.233-0.569,0.233c-0.236,0-0.427-0.078-0.57-0.233c-0.14-0.147-0.21-0.343-0.21-0.582
		c0-0.242,0.071-0.438,0.213-0.588c0.142-0.154,0.329-0.231,0.567-0.231C696.044,182.309,696.233,182.387,696.375,182.54z
		 M695.479,182.756c-0.066,0.096-0.1,0.221-0.1,0.372c0,0.149,0.031,0.272,0.1,0.369c0.078,0.112,0.188,0.168,0.33,0.168
		c0.142,0,0.252-0.056,0.33-0.168c0.065-0.103,0.102-0.226,0.102-0.369c0-0.149-0.033-0.274-0.102-0.372
		c-0.076-0.111-0.188-0.168-0.33-0.168C695.662,182.588,695.554,182.645,695.479,182.756z"/>
	<path fill="#FFFFFF" d="M698.271,182.945v0.957h-0.343v-0.928c0-0.254-0.117-0.383-0.353-0.383c-0.084,0-0.157,0.03-0.222,0.092
		c-0.072,0.064-0.114,0.159-0.126,0.283v0.936h-0.343v-1.551h0.343v0.18c0.063-0.074,0.13-0.129,0.203-0.166
		c0.076-0.037,0.161-0.057,0.256-0.057C698.075,182.309,698.271,182.521,698.271,182.945z"/>
	<path fill="#FFFFFF" d="M698.615,181.85h1.251c-0.054-0.109-0.118-0.218-0.19-0.316l0.298-0.11
		c0.081,0.126,0.154,0.271,0.219,0.431h1.106v0.303h-1.556l-0.022,0.443h1.234c-0.012,0.668-0.042,1.084-0.09,1.244
		c-0.066,0.232-0.22,0.354-0.456,0.357c-0.084,0-0.197-0.008-0.345-0.018l-0.093-0.285c0.176,0.012,0.311,0.018,0.402,0.018
		c0.116-0.006,0.192-0.096,0.229-0.264c0.016-0.082,0.026-0.334,0.032-0.758h-0.953c-0.042,0.229-0.115,0.438-0.22,0.623
		c-0.147,0.262-0.354,0.502-0.621,0.717l-0.229-0.221c0.318-0.265,0.528-0.51,0.63-0.736c0.1-0.223,0.155-0.478,0.172-0.762
		l0.017-0.363h-0.816L698.615,181.85L698.615,181.85z"/>
	<path fill="#FFFFFF" d="M701.679,182.656h1.297v0.295h-0.492v0.656c0.208-0.041,0.411-0.09,0.608-0.146v0.308
		c-0.439,0.104-0.91,0.192-1.413,0.271l-0.071-0.298c0.172-0.02,0.359-0.045,0.563-0.077v-0.714h-0.492V182.656L701.679,182.656z
		 M701.637,181.939h1.426c-0.009-0.146-0.013-0.312-0.013-0.498h0.323c0,0.192,0.005,0.358,0.013,0.498h0.43
		c-0.074-0.135-0.154-0.256-0.24-0.365l0.26-0.127c0.081,0.107,0.168,0.24,0.258,0.396l-0.191,0.097h0.375v0.308h-0.87
		c0.032,0.437,0.099,0.806,0.195,1.108c0.126,0.336,0.227,0.504,0.303,0.504c0.04,0,0.086-0.155,0.14-0.471l0.28,0.146
		c-0.09,0.452-0.223,0.681-0.397,0.681c-0.296-0.02-0.533-0.359-0.714-1.027c-0.063-0.266-0.104-0.578-0.129-0.938h-1.443v-0.308
		h-0.004V181.939z"/>
	<path fill="#FFFFFF" d="M675.585,187.01h0.294l-0.036,0.543l0.495-0.203l0.093,0.275l-0.521,0.139l0.359,0.398l-0.228,0.18
		l-0.311-0.453l-0.31,0.453l-0.229-0.18l0.359-0.398l-0.521-0.139l0.094-0.275l0.494,0.203L675.585,187.01z"/>
	<path fill="#FFFFFF" d="M679.439,187.285c0.181,0.201,0.271,0.467,0.271,0.799c0,0.328-0.092,0.593-0.271,0.795
		c-0.188,0.21-0.445,0.314-0.771,0.314c-0.328,0-0.587-0.105-0.774-0.317c-0.178-0.202-0.267-0.466-0.267-0.792
		c0-0.328,0.089-0.594,0.267-0.795c0.185-0.215,0.442-0.321,0.774-0.321C678.992,186.968,679.252,187.074,679.439,187.285z
		 M678.149,187.502c-0.115,0.143-0.174,0.336-0.174,0.582c0,0.244,0.059,0.438,0.174,0.579c0.12,0.147,0.292,0.222,0.518,0.222
		c0.223,0,0.394-0.07,0.514-0.213c0.118-0.143,0.177-0.338,0.177-0.588s-0.059-0.447-0.177-0.594
		c-0.118-0.143-0.289-0.213-0.514-0.213C678.446,187.277,678.273,187.352,678.149,187.502z"/>
	<path fill="#FFFFFF" d="M680.01,187.602h0.343v0.944c0,0.126,0.025,0.218,0.077,0.276c0.055,0.058,0.141,0.086,0.259,0.086
		c0.073,0,0.146-0.031,0.216-0.096c0.069-0.067,0.12-0.156,0.149-0.266v-0.945h0.343v1.551h-0.343v-0.201
		c-0.132,0.162-0.294,0.242-0.485,0.242c-0.372,0-0.559-0.209-0.559-0.627V187.602z"/>
	<path fill="#FFFFFF" d="M682.24,187.1v0.502h0.347v0.281h-0.347v0.876c0,0.038,0.01,0.065,0.024,0.084
		c0.018,0.019,0.044,0.026,0.077,0.026h0.204v0.283h-0.263c-0.134,0-0.231-0.037-0.297-0.108c-0.061-0.065-0.09-0.161-0.09-0.285
		v-0.876h-0.279v-0.281h0.279v-0.359L682.24,187.1z"/>
	<path fill="#FFFFFF" d="M682.87,187.01h0.89c0.519,0,0.775,0.219,0.775,0.657c0,0.442-0.261,0.663-0.781,0.663h-0.531v0.822h-0.353
		V187.01L682.87,187.01z M683.223,187.311v0.719h0.511c0.153,0,0.27-0.025,0.342-0.084c0.072-0.057,0.108-0.148,0.108-0.276
		c0-0.126-0.037-0.218-0.111-0.271c-0.07-0.059-0.184-0.084-0.339-0.084h-0.511V187.311L683.223,187.311z"/>
	<path fill="#FFFFFF" d="M684.807,187.602h0.343v0.944c0,0.126,0.025,0.218,0.077,0.276c0.055,0.058,0.141,0.086,0.259,0.086
		c0.073,0,0.146-0.031,0.216-0.096c0.069-0.067,0.12-0.156,0.149-0.266v-0.945h0.343v1.551h-0.343v-0.201
		c-0.132,0.162-0.294,0.242-0.485,0.242c-0.372,0-0.559-0.209-0.559-0.627V187.602z"/>
	<path fill="#FFFFFF" d="M687.037,187.1v0.502h0.347v0.281h-0.347v0.876c0,0.038,0.01,0.065,0.024,0.084
		c0.018,0.019,0.044,0.026,0.077,0.026h0.204v0.283h-0.263c-0.134,0-0.231-0.037-0.297-0.108c-0.061-0.065-0.09-0.161-0.09-0.285
		v-0.876h-0.279v-0.281h0.279v-0.359L687.037,187.1z"/>
	<path fill="#FFFFFF" d="M689.016,187.124c0.15,0.112,0.236,0.284,0.259,0.519h-0.349c-0.03-0.132-0.085-0.227-0.165-0.285
		c-0.076-0.058-0.193-0.086-0.354-0.086c-0.137,0-0.237,0.021-0.31,0.059c-0.088,0.044-0.132,0.115-0.132,0.222
		c0,0.097,0.05,0.167,0.148,0.222c0.048,0.023,0.17,0.067,0.366,0.131c0.281,0.086,0.469,0.156,0.561,0.211
		c0.188,0.109,0.279,0.264,0.279,0.461c0,0.191-0.075,0.345-0.226,0.457c-0.151,0.109-0.363,0.164-0.637,0.164
		c-0.265,0-0.471-0.051-0.617-0.152c-0.184-0.126-0.28-0.324-0.294-0.598h0.349c0.023,0.164,0.081,0.281,0.174,0.349
		c0.086,0.062,0.216,0.093,0.391,0.093c0.155,0,0.279-0.025,0.372-0.078c0.093-0.056,0.139-0.127,0.139-0.213
		c0-0.113-0.066-0.203-0.201-0.27c-0.048-0.023-0.188-0.071-0.417-0.143c-0.266-0.084-0.43-0.145-0.491-0.181
		c-0.164-0.101-0.246-0.241-0.246-0.435c0-0.189,0.08-0.34,0.24-0.444c0.147-0.104,0.338-0.156,0.569-0.156
		C688.679,186.968,688.875,187.02,689.016,187.124z"/>
	<path fill="#FFFFFF" d="M690.076,187.1v0.502h0.347v0.281h-0.347v0.876c0,0.038,0.01,0.065,0.024,0.084
		c0.018,0.019,0.044,0.026,0.077,0.026h0.204v0.283h-0.263c-0.134,0-0.231-0.037-0.297-0.108c-0.061-0.065-0.09-0.161-0.09-0.285
		v-0.876h-0.279v-0.281h0.279v-0.359L690.076,187.1z"/>
	<path fill="#FFFFFF" d="M691.605,187.598v0.342c-0.072-0.021-0.146-0.031-0.223-0.031c-0.094,0-0.173,0.033-0.243,0.104
		c-0.082,0.08-0.123,0.188-0.123,0.318v0.822h-0.339v-1.551h0.339v0.221c0.042-0.08,0.092-0.139,0.146-0.18
		c0.068-0.058,0.15-0.084,0.246-0.084C691.488,187.559,691.553,187.572,691.605,187.598z"/>
	<path fill="#FFFFFF" d="M693.045,187.816c0.124,0.158,0.187,0.377,0.187,0.654h-1.161c0.012,0.146,0.051,0.256,0.117,0.328
		c0.065,0.076,0.16,0.114,0.284,0.114c0.104,0,0.188-0.022,0.256-0.072c0.05-0.036,0.096-0.101,0.138-0.188h0.342
		c-0.034,0.146-0.106,0.268-0.216,0.363c-0.14,0.116-0.313,0.176-0.516,0.176c-0.23,0-0.413-0.069-0.55-0.213
		c-0.146-0.146-0.217-0.351-0.217-0.604c0-0.231,0.067-0.426,0.203-0.579c0.134-0.156,0.314-0.236,0.547-0.236
		C692.716,187.559,692.909,187.645,693.045,187.816z M692.2,187.934c-0.063,0.063-0.104,0.155-0.126,0.279h0.798
		c-0.028-0.25-0.163-0.375-0.403-0.375C692.355,187.838,692.266,187.869,692.2,187.934z"/>
	<path fill="#FFFFFF" d="M694.713,187.73c0.097,0.098,0.145,0.24,0.145,0.432v0.99h-0.318v-0.205
		c-0.06,0.078-0.135,0.139-0.225,0.181c-0.104,0.044-0.22,0.065-0.349,0.065c-0.159,0-0.286-0.041-0.381-0.123
		c-0.098-0.084-0.146-0.195-0.146-0.336c0-0.193,0.076-0.338,0.229-0.437c0.128-0.082,0.297-0.123,0.508-0.123l0.339-0.003v-0.035
		c0-0.201-0.111-0.304-0.333-0.304c-0.104,0-0.183,0.021-0.24,0.06c-0.064,0.041-0.104,0.104-0.117,0.189h-0.339
		c0.024-0.188,0.104-0.325,0.237-0.411c0.113-0.075,0.274-0.112,0.481-0.112C694.437,187.559,694.605,187.615,694.713,187.73z
		 M694.516,188.436l-0.315,0.002c-0.271,0-0.406,0.098-0.406,0.289c0,0.053,0.021,0.102,0.063,0.143
		c0.044,0.035,0.106,0.057,0.188,0.057c0.144,0,0.258-0.037,0.347-0.111c0.084-0.078,0.126-0.185,0.126-0.313v-0.065H694.516z"/>
	<path fill="#FFFFFF" d="M696.468,187.811c0.07-0.096,0.146-0.162,0.226-0.197c0.069-0.035,0.156-0.055,0.261-0.055
		c0.16,0,0.294,0.053,0.399,0.159c0.104,0.11,0.155,0.249,0.155,0.417v1.018h-0.342v-0.957c0-0.121-0.026-0.211-0.078-0.268
		c-0.056-0.056-0.142-0.084-0.259-0.084c-0.084,0-0.153,0.032-0.211,0.096c-0.058,0.063-0.087,0.148-0.087,0.266v0.947h-0.342
		v-0.953c0-0.235-0.103-0.354-0.307-0.354c-0.102,0-0.181,0.037-0.236,0.113c-0.061,0.07-0.09,0.159-0.09,0.266v0.93h-0.343v-1.551
		h0.343v0.158c0.128-0.135,0.268-0.201,0.42-0.201C696.205,187.559,696.368,187.643,696.468,187.811z"/>
	<path fill="#FFFFFF" d="M700.155,187.79c0.145,0.153,0.213,0.351,0.213,0.588c0,0.235-0.067,0.431-0.21,0.582
		c-0.144,0.155-0.334,0.233-0.567,0.233c-0.236,0-0.429-0.078-0.57-0.233c-0.14-0.147-0.21-0.343-0.21-0.582
		c0-0.242,0.071-0.438,0.213-0.588c0.14-0.154,0.329-0.231,0.567-0.231C699.823,187.559,700.014,187.637,700.155,187.79z
		 M699.259,188.006c-0.066,0.096-0.102,0.221-0.102,0.372c0,0.149,0.033,0.272,0.102,0.369c0.078,0.112,0.188,0.168,0.33,0.168
		c0.142,0,0.252-0.056,0.33-0.168c0.065-0.103,0.102-0.226,0.102-0.369c0-0.149-0.034-0.274-0.102-0.372
		c-0.076-0.111-0.188-0.168-0.33-0.168C699.444,187.838,699.334,187.895,699.259,188.006z"/>
	<path fill="#FFFFFF" d="M701.922,188.051h-0.333c-0.023-0.08-0.062-0.135-0.107-0.164c-0.05-0.033-0.128-0.049-0.234-0.049
		c-0.092,0-0.158,0.014-0.202,0.039c-0.054,0.025-0.078,0.068-0.078,0.129c0,0.051,0.041,0.094,0.123,0.129
		c0.053,0.021,0.153,0.053,0.31,0.09c0.18,0.045,0.312,0.094,0.39,0.147c0.124,0.077,0.188,0.187,0.188,0.327
		c0,0.33-0.233,0.494-0.699,0.494c-0.43,0-0.662-0.184-0.696-0.545h0.334c0.02,0.096,0.054,0.166,0.104,0.209
		c0.054,0.039,0.136,0.058,0.246,0.058c0.239,0,0.357-0.063,0.357-0.192c0-0.072-0.045-0.129-0.135-0.171
		c-0.04-0.021-0.142-0.049-0.306-0.087c-0.184-0.042-0.313-0.087-0.389-0.135c-0.119-0.076-0.181-0.182-0.181-0.314
		c0-0.146,0.061-0.258,0.177-0.334c0.114-0.082,0.271-0.123,0.463-0.123C701.661,187.559,701.887,187.723,701.922,188.051z"/>
	<path fill="#FFFFFF" d="M702.754,189.07c0,0.295-0.14,0.516-0.411,0.664l-0.105-0.172c0.18-0.109,0.276-0.248,0.294-0.416
		c-0.021,0.004-0.043,0.006-0.057,0.006c-0.064,0-0.119-0.021-0.165-0.063c-0.044-0.042-0.066-0.095-0.066-0.159
		c0-0.068,0.022-0.123,0.066-0.164c0.046-0.043,0.101-0.063,0.165-0.063C702.658,188.701,702.754,188.824,702.754,189.07z
		 M702.643,187.664c0.044,0.044,0.064,0.098,0.064,0.162c0,0.068-0.021,0.123-0.067,0.164c-0.044,0.043-0.102,0.063-0.165,0.063
		s-0.117-0.021-0.165-0.063c-0.044-0.044-0.066-0.097-0.066-0.162s0.022-0.12,0.066-0.162c0.046-0.042,0.101-0.063,0.165-0.063
		C702.541,187.602,702.599,187.622,702.643,187.664z"/>
	<path fill="#FFFFFF" d="M675.585,192.26h0.294l-0.036,0.543l0.495-0.203l0.093,0.275l-0.521,0.139l0.359,0.398l-0.228,0.18
		l-0.311-0.453l-0.31,0.453l-0.229-0.18l0.359-0.398l-0.521-0.139l0.094-0.275l0.494,0.203L675.585,192.26z"/>
	<path fill="#FFFFFF" d="M678.972,193.04c0.143,0.153,0.213,0.351,0.213,0.588c0,0.235-0.069,0.431-0.21,0.582
		c-0.146,0.155-0.334,0.233-0.569,0.233c-0.234,0-0.427-0.078-0.568-0.233c-0.142-0.147-0.211-0.343-0.211-0.582
		c0-0.242,0.07-0.438,0.214-0.588c0.14-0.154,0.329-0.231,0.565-0.231C678.641,192.809,678.828,192.887,678.972,193.04z
		 M678.073,193.256c-0.064,0.096-0.1,0.221-0.1,0.372c0,0.149,0.033,0.272,0.1,0.369c0.078,0.112,0.188,0.168,0.33,0.168
		c0.144,0,0.252-0.056,0.33-0.168c0.067-0.103,0.104-0.226,0.104-0.369c0-0.149-0.034-0.274-0.104-0.372
		c-0.076-0.111-0.187-0.168-0.33-0.168C678.261,193.088,678.15,193.145,678.073,193.256z"/>
	<path fill="#FFFFFF" d="M680.738,193.301h-0.333c-0.021-0.08-0.06-0.135-0.105-0.164c-0.052-0.033-0.128-0.049-0.234-0.049
		c-0.092,0-0.16,0.014-0.204,0.039c-0.052,0.025-0.078,0.068-0.078,0.129c0,0.051,0.041,0.094,0.123,0.129
		c0.053,0.021,0.155,0.053,0.312,0.09c0.18,0.045,0.31,0.094,0.39,0.147c0.124,0.077,0.187,0.187,0.187,0.327
		c0,0.33-0.231,0.494-0.697,0.494c-0.432,0-0.662-0.184-0.696-0.545h0.333c0.02,0.096,0.053,0.166,0.105,0.209
		c0.054,0.039,0.136,0.058,0.244,0.058c0.239,0,0.359-0.063,0.359-0.192c0-0.072-0.045-0.129-0.135-0.171
		c-0.04-0.021-0.144-0.049-0.308-0.087c-0.183-0.042-0.312-0.087-0.388-0.135c-0.12-0.076-0.18-0.182-0.18-0.314
		c0-0.146,0.059-0.258,0.177-0.334c0.114-0.082,0.271-0.123,0.462-0.123C680.479,192.809,680.701,192.973,680.738,193.301z"/>
	<path fill="#FFFFFF" d="M681.459,194.012c0.044,0.045,0.063,0.098,0.063,0.162c0,0.068-0.021,0.123-0.068,0.165
		c-0.044,0.042-0.1,0.063-0.163,0.063s-0.117-0.022-0.165-0.066c-0.044-0.042-0.066-0.096-0.066-0.162s0.022-0.119,0.066-0.162
		c0.046-0.041,0.101-0.063,0.165-0.063C681.358,193.949,681.413,193.971,681.459,194.012z"/>
	<path fill="#FFFFFF" d="M681.72,192.852h0.378l0.31,1.146l0.308-1.146h0.313l0.308,1.146l0.31-1.146h0.378l-0.521,1.551h-0.318
		l-0.31-1.135l-0.313,1.135h-0.318L681.72,192.852z"/>
	<path fill="#FFFFFF" d="M685.144,192.848v0.342c-0.072-0.021-0.146-0.031-0.223-0.031c-0.094,0-0.175,0.033-0.243,0.104
		c-0.082,0.08-0.123,0.188-0.123,0.318v0.822h-0.339v-1.551h0.339v0.221c0.042-0.08,0.092-0.139,0.146-0.18
		c0.068-0.058,0.15-0.084,0.246-0.084C685.026,192.809,685.091,192.822,685.144,192.848z"/>
	<path fill="#FFFFFF" d="M685.737,192.281c0.044,0.043,0.065,0.098,0.065,0.162c0,0.065-0.022,0.123-0.068,0.164
		c-0.044,0.043-0.1,0.063-0.165,0.063c-0.063,0-0.119-0.021-0.165-0.063c-0.044-0.043-0.064-0.101-0.064-0.164
		c0-0.066,0.021-0.121,0.064-0.162c0.046-0.043,0.103-0.063,0.165-0.063C685.637,192.218,685.693,192.238,685.737,192.281z
		 M685.398,192.852h0.342v1.551h-0.342V192.852z"/>
	<path fill="#FFFFFF" d="M686.649,192.35v0.502h0.345v0.281h-0.345v0.876c0,0.038,0.008,0.065,0.024,0.084
		c0.018,0.019,0.044,0.026,0.077,0.026h0.202v0.283h-0.261c-0.134,0-0.231-0.037-0.297-0.108c-0.061-0.065-0.09-0.161-0.09-0.285
		v-0.876h-0.279v-0.281h0.279v-0.359L686.649,192.35z"/>
	<path fill="#FFFFFF" d="M688.492,193.066c0.124,0.158,0.188,0.377,0.188,0.654h-1.161c0.012,0.146,0.051,0.256,0.117,0.328
		c0.063,0.076,0.16,0.114,0.284,0.114c0.104,0,0.188-0.022,0.256-0.072c0.05-0.036,0.096-0.101,0.138-0.188h0.342
		c-0.036,0.146-0.106,0.268-0.216,0.363c-0.14,0.116-0.313,0.176-0.516,0.176c-0.23,0-0.413-0.069-0.551-0.213
		c-0.145-0.146-0.217-0.351-0.217-0.604c0-0.231,0.068-0.426,0.204-0.579c0.132-0.156,0.314-0.236,0.546-0.236
		C688.163,192.809,688.36,192.895,688.492,193.066z M687.651,193.184c-0.063,0.063-0.104,0.155-0.126,0.279h0.798
		c-0.028-0.25-0.165-0.375-0.403-0.375C687.805,193.088,687.715,193.119,687.651,193.184z"/>
	<path fill="#FFFFFF" d="M689.646,191.921c-0.126,0.206-0.222,0.413-0.288,0.621c-0.088,0.252-0.132,0.513-0.132,0.78
		c0,0.264,0.044,0.523,0.132,0.779c0.066,0.203,0.162,0.41,0.288,0.621h-0.285c-0.14-0.191-0.25-0.396-0.33-0.611
		c-0.092-0.25-0.138-0.512-0.138-0.787s0.046-0.539,0.138-0.789c0.08-0.219,0.19-0.424,0.33-0.614H689.646L689.646,191.921z"/>
	<path fill="#FFFFFF" d="M691.896,194.666c-0.102,0-0.281-0.002-0.537-0.006c-0.188-0.002-0.35-0.02-0.479-0.051
		c-0.12-0.037-0.228-0.105-0.315-0.207c-0.042-0.051-0.079-0.076-0.111-0.076c-0.06,0-0.164,0.135-0.312,0.402l-0.231-0.213
		c0.152-0.242,0.286-0.396,0.402-0.459v-0.822h-0.396v-0.287h0.688v1.14l0.033,0.032c0.071,0.08,0.142,0.14,0.21,0.178
		c0.084,0.044,0.216,0.068,0.396,0.075c0.232,0.004,0.438,0.006,0.609,0.006l0.456-0.003c0.154-0.006,0.271-0.012,0.351-0.018
		l-0.072,0.309H691.896L691.896,194.666z M690.187,191.963c0.202,0.162,0.371,0.32,0.507,0.475l-0.219,0.215
		c-0.12-0.151-0.287-0.314-0.501-0.486L690.187,191.963z M691.365,192.281H690.8v-0.258h1.657v0.219
		c-0.177,0.146-0.358,0.271-0.553,0.375l0.006,0.006h0.606v1.328c0,0.188-0.104,0.283-0.306,0.283h-0.228l-0.067-0.258l0.206,0.008
		c0.065,0,0.101-0.031,0.101-0.096v-0.127h-0.402v0.485h-0.288v-0.485h-0.39v0.488h-0.294v-1.629h0.666
		c-0.11-0.07-0.213-0.133-0.312-0.188L691.365,192.281z M691.531,193.07v-0.189h-0.39v0.189H691.531z M691.144,193.322v0.188h0.39
		v-0.188H691.144z M692.032,192.281h-0.6c0.126,0.082,0.22,0.146,0.282,0.191C691.83,192.413,691.938,192.35,692.032,192.281z
		 M692.224,193.07v-0.189h-0.402v0.189H692.224z M691.821,193.322v0.188h0.402v-0.188H691.821z"/>
	<path fill="#FFFFFF" d="M694.963,194.666c-0.104,0-0.29-0.002-0.561-0.006c-0.2-0.002-0.367-0.02-0.501-0.051
		c-0.128-0.037-0.235-0.105-0.327-0.207c-0.042-0.051-0.082-0.076-0.12-0.076c-0.058,0-0.161,0.139-0.315,0.414l-0.231-0.213
		c0.148-0.244,0.284-0.399,0.408-0.467v-0.822h-0.401v-0.295h0.698v1.141l0.036,0.033c0.072,0.078,0.146,0.137,0.219,0.177
		c0.101,0.044,0.237,0.069,0.417,0.075c0.24,0.004,0.452,0.006,0.639,0.006c0.09,0,0.229-0.002,0.423-0.006
		c0.146-0.006,0.256-0.012,0.33-0.018l-0.075,0.313L694.963,194.666L694.963,194.666z M693.172,191.963
		c0.208,0.16,0.379,0.314,0.513,0.465l-0.229,0.229c-0.119-0.158-0.285-0.321-0.495-0.489L693.172,191.963z M694.465,194.262
		l-0.069-0.304c0.148,0.015,0.269,0.021,0.363,0.021c0.069,0,0.105-0.027,0.105-0.09v-1.182h-1.059V192.4h1.059v-0.449h0.318v0.449
		h0.393v0.307h-0.393v1.26c0,0.196-0.106,0.295-0.318,0.295H694.465z M694.201,192.902c0.17,0.222,0.302,0.412,0.39,0.568
		l-0.267,0.184c-0.09-0.174-0.216-0.371-0.378-0.59L694.201,192.902z"/>
	<path fill="#FFFFFF" d="M696.391,192.398c-0.066,0.1-0.136,0.188-0.21,0.27l-0.273-0.171c0.181-0.177,0.308-0.365,0.381-0.567
		l0.306,0.066l-0.057,0.129h0.729v0.273h-0.391c0.053,0.065,0.096,0.129,0.13,0.186l-0.282,0.105
		c-0.054-0.103-0.115-0.197-0.184-0.291H696.391L696.391,192.398z M697.138,192.986h-0.979v-0.285h2.268v0.768h-0.981v0.223h1.089
		c0,0.369-0.023,0.606-0.078,0.711c-0.052,0.102-0.171,0.152-0.354,0.158c-0.088,0-0.212-0.002-0.372-0.006l-0.078-0.297
		c0.192,0.008,0.325,0.012,0.399,0.012c0.079,0,0.129-0.025,0.146-0.08c0.014-0.063,0.021-0.142,0.021-0.229h-0.771v0.759h-0.306
		v-0.688c-0.212,0.246-0.56,0.459-1.035,0.641l-0.174-0.285c0.422-0.13,0.722-0.271,0.897-0.426h-0.768l0.148-0.771h0.929V192.986
		L697.138,192.986z M697.138,193.469h-0.651l-0.054,0.223h0.705V193.469z M697.672,192.383c-0.066,0.112-0.134,0.208-0.195,0.288
		l-0.271-0.171c0.158-0.178,0.271-0.368,0.339-0.57l0.297,0.066c-0.013,0.033-0.024,0.072-0.042,0.113h0.837v0.271h-0.462
		c0.054,0.068,0.099,0.137,0.135,0.198l-0.276,0.104c-0.056-0.104-0.121-0.205-0.192-0.304h-0.166v0.003H697.672z M697.443,193.188
		h0.66v-0.201h-0.66V193.188z"/>
	<path fill="#FFFFFF" d="M698.906,194.268h2.727v0.313h-2.727V194.268z M699.094,192.137h2.355v0.307h-2.355V192.137z
		 M699.315,193.163h1.911v0.306h-1.911V193.163z"/>
	<path fill="#FFFFFF" d="M701.935,192.35h1.251c-0.054-0.109-0.118-0.218-0.192-0.316l0.298-0.11
		c0.081,0.126,0.154,0.271,0.221,0.431h1.104v0.303h-1.554l-0.024,0.443h1.236c-0.012,0.668-0.042,1.084-0.09,1.244
		c-0.068,0.232-0.22,0.354-0.456,0.357c-0.084,0-0.199-0.008-0.345-0.018l-0.095-0.285c0.178,0.012,0.313,0.018,0.404,0.018
		c0.116-0.006,0.192-0.096,0.229-0.264c0.016-0.082,0.024-0.334,0.03-0.758H703c-0.041,0.229-0.113,0.438-0.22,0.623
		c-0.146,0.262-0.354,0.502-0.621,0.717l-0.228-0.221c0.317-0.265,0.527-0.51,0.63-0.736c0.098-0.223,0.155-0.478,0.171-0.762
		l0.016-0.363h-0.814L701.935,192.35L701.935,192.35z"/>
	<path fill="#FFFFFF" d="M705.013,192.852h0.342v1.691c0,0.303-0.161,0.453-0.483,0.453h-0.146v-0.279h0.117
		c0.111,0,0.171-0.063,0.171-0.189L705.013,192.852L705.013,192.852z M705.352,192.281c0.044,0.043,0.066,0.098,0.066,0.162
		c0,0.063-0.022,0.121-0.066,0.164c-0.048,0.043-0.104,0.063-0.168,0.063c-0.066,0-0.12-0.021-0.162-0.063
		c-0.046-0.043-0.069-0.101-0.069-0.164c0-0.068,0.023-0.123,0.069-0.162c0.042-0.043,0.096-0.063,0.162-0.063
		C705.252,192.218,705.308,192.238,705.352,192.281z"/>
	<path fill="#FFFFFF" d="M707.031,193.301h-0.333c-0.021-0.08-0.06-0.135-0.105-0.164c-0.051-0.033-0.128-0.049-0.234-0.049
		c-0.092,0-0.16,0.014-0.204,0.039c-0.052,0.025-0.078,0.068-0.078,0.129c0,0.051,0.041,0.094,0.123,0.129
		c0.054,0.021,0.155,0.053,0.312,0.09c0.18,0.045,0.31,0.094,0.39,0.147c0.124,0.077,0.188,0.187,0.188,0.327
		c0,0.33-0.233,0.494-0.699,0.494c-0.432,0-0.662-0.184-0.696-0.545h0.333c0.021,0.096,0.053,0.166,0.105,0.209
		c0.054,0.039,0.136,0.058,0.244,0.058c0.239,0,0.359-0.063,0.359-0.192c0-0.072-0.045-0.129-0.135-0.171
		c-0.04-0.021-0.144-0.049-0.307-0.087c-0.184-0.042-0.313-0.087-0.389-0.135c-0.12-0.076-0.18-0.182-0.18-0.314
		c0-0.146,0.059-0.258,0.177-0.334c0.114-0.082,0.271-0.123,0.462-0.123C706.772,192.809,706.994,192.973,707.031,193.301z"/>
	<path fill="#FFFFFF" d="M708.64,193.04c0.143,0.153,0.213,0.351,0.213,0.588c0,0.235-0.069,0.431-0.21,0.582
		c-0.146,0.155-0.334,0.233-0.569,0.233c-0.234,0-0.427-0.078-0.568-0.233c-0.142-0.147-0.21-0.343-0.21-0.582
		c0-0.242,0.069-0.438,0.213-0.588c0.14-0.154,0.329-0.231,0.565-0.231C708.309,192.809,708.496,192.887,708.64,193.04z
		 M707.741,193.256c-0.064,0.096-0.1,0.221-0.1,0.372c0,0.149,0.033,0.272,0.1,0.369c0.078,0.112,0.188,0.168,0.33,0.168
		c0.144,0,0.252-0.056,0.33-0.168c0.067-0.103,0.104-0.226,0.104-0.369c0-0.149-0.034-0.274-0.104-0.372
		c-0.076-0.111-0.187-0.168-0.33-0.168C707.929,193.088,707.818,193.145,707.741,193.256z"/>
	<path fill="#FFFFFF" d="M710.534,193.445v0.957h-0.343v-0.928c0-0.254-0.117-0.383-0.351-0.383c-0.084,0-0.158,0.03-0.224,0.092
		c-0.07,0.064-0.112,0.159-0.126,0.283v0.936h-0.343v-1.551h0.343v0.18c0.063-0.074,0.13-0.129,0.203-0.166
		c0.076-0.037,0.161-0.057,0.256-0.057C710.342,192.809,710.534,193.021,710.534,193.445z"/>
	<path fill="#FFFFFF" d="M710.865,193.484h1.517v0.281h-1.517V193.484z"/>
	<path fill="#FFFFFF" d="M712.74,192.218h0.342v2.185h-0.342V192.218z"/>
	<path fill="#FFFFFF" d="M713.87,192.281c0.045,0.043,0.065,0.098,0.065,0.162c0,0.065-0.022,0.123-0.068,0.164
		c-0.044,0.043-0.1,0.063-0.165,0.063c-0.063,0-0.117-0.021-0.164-0.063c-0.045-0.043-0.065-0.101-0.065-0.164
		c0-0.066,0.021-0.121,0.065-0.162c0.047-0.043,0.102-0.063,0.164-0.063C713.771,192.218,713.826,192.238,713.87,192.281z
		 M713.531,192.852h0.344v1.551h-0.344V192.852z"/>
	<path fill="#FFFFFF" d="M714.298,192.218h0.343v0.847c0.126-0.17,0.279-0.256,0.462-0.256c0.222,0,0.396,0.082,0.524,0.243
		c0.116,0.152,0.177,0.341,0.177,0.567c0,0.238-0.062,0.432-0.182,0.582c-0.132,0.162-0.312,0.242-0.539,0.242
		c-0.203,0-0.358-0.068-0.469-0.207v0.166h-0.316V192.218L714.298,192.218z M714.746,193.221c-0.078,0.094-0.118,0.225-0.118,0.393
		v0.023c0,0.154,0.03,0.278,0.097,0.372c0.071,0.106,0.175,0.159,0.309,0.159c0.15,0,0.263-0.055,0.333-0.162
		c0.06-0.092,0.087-0.221,0.087-0.387c0-0.164-0.029-0.291-0.093-0.381c-0.072-0.104-0.186-0.153-0.339-0.153
		C714.909,193.085,714.82,193.13,714.746,193.221z"/>
	<path fill="#FFFFFF" d="M716.602,192.775h0.304v0.408h0.305v0.28h-0.305v0.313c0.13-0.023,0.253-0.051,0.368-0.08v0.293
		c-0.146,0.037-0.271,0.064-0.368,0.088v0.633h-0.304v-0.572c-0.124,0.021-0.3,0.047-0.527,0.077l-0.042-0.306
		c0.239-0.028,0.432-0.055,0.569-0.078v-0.366h-0.468l-0.066-0.276c0.078-0.152,0.15-0.351,0.217-0.59h-0.255v-0.301h0.329
		c0.047-0.214,0.071-0.334,0.075-0.359l0.297,0.045l-0.068,0.314h0.53v0.301h-0.606c-0.063,0.217-0.129,0.412-0.198,0.584h0.216
		L716.602,192.775L716.602,192.775z M717.301,192.299h0.447l0.063-0.359l0.31,0.029c-0.015,0.076-0.031,0.186-0.058,0.33h0.682
		v0.301h-0.739c-0.047,0.199-0.066,0.284-0.063,0.254h0.88v0.297h-0.954c-0.028,0.104-0.061,0.203-0.091,0.299h0.925v0.259
		c-0.09,0.183-0.229,0.368-0.423,0.56c0.107,0.064,0.205,0.133,0.294,0.196l-0.178,0.271c-0.312-0.241-0.626-0.432-0.939-0.563
		l0.168-0.249c0.138,0.061,0.271,0.126,0.402,0.198c0.148-0.134,0.269-0.265,0.354-0.396h-0.993
		c0.046-0.142,0.103-0.332,0.168-0.572h-0.339v-0.297h0.414l0.057-0.256h-0.387V192.299L717.301,192.299z"/>
	<path fill="#FFFFFF" d="M721.656,192.736v0.813h0.158v0.288h-0.681c0.148,0.25,0.384,0.449,0.702,0.599l-0.143,0.297
		c-0.37-0.211-0.641-0.479-0.811-0.809c-0.14,0.313-0.415,0.581-0.831,0.809l-0.204-0.266c0.36-0.168,0.605-0.378,0.738-0.63h-0.635
		v-0.288h0.185v-0.73l-0.162-0.213v0.151H719.7v0.489c0.105-0.053,0.199-0.102,0.281-0.146v0.317
		c-0.112,0.062-0.208,0.106-0.281,0.142v0.813c0,0.206-0.102,0.31-0.304,0.31h-0.258l-0.068-0.298
		c0.077,0.015,0.15,0.021,0.221,0.021c0.063,0,0.099-0.037,0.099-0.111v-0.6c-0.092,0.035-0.192,0.072-0.303,0.108l-0.081-0.315
		c0.14-0.033,0.268-0.069,0.384-0.111v-0.615h-0.324v-0.303h0.324v-0.514h0.313v0.514h0.272v0.139
		c0.286-0.186,0.479-0.408,0.582-0.673l0.304,0.039c-0.032,0.08-0.058,0.14-0.075,0.177h0.596v0.223
		c-0.078,0.156-0.149,0.281-0.213,0.378h0.487V192.736z M720.85,192.736c0.061-0.086,0.129-0.197,0.207-0.336h-0.43
		c-0.097,0.125-0.205,0.234-0.329,0.336H720.85z M720.413,193.55h0.272c0.03-0.155,0.048-0.336,0.055-0.54h-0.327V193.55
		L720.413,193.55z M721.381,193.55v-0.54h-0.35c-0.007,0.211-0.021,0.391-0.045,0.54H721.381z"/>
	<path fill="#FFFFFF" d="M722.166,192.852h0.343v1.691c0,0.303-0.161,0.453-0.483,0.453h-0.146v-0.279h0.116
		c0.112,0,0.172-0.063,0.172-0.189v-1.676H722.166z M722.506,192.281c0.044,0.043,0.064,0.098,0.064,0.162
		c0,0.063-0.021,0.121-0.064,0.164c-0.05,0.043-0.104,0.063-0.168,0.063c-0.066,0-0.12-0.021-0.162-0.063
		c-0.046-0.043-0.069-0.101-0.069-0.164c0-0.068,0.023-0.123,0.069-0.162c0.042-0.043,0.096-0.063,0.162-0.063
		C722.406,192.218,722.462,192.238,722.506,192.281z"/>
	<path fill="#FFFFFF" d="M724.186,193.301h-0.333c-0.023-0.08-0.06-0.135-0.107-0.164c-0.05-0.033-0.128-0.049-0.232-0.049
		c-0.092,0-0.16,0.014-0.204,0.039c-0.052,0.025-0.078,0.068-0.078,0.129c0,0.051,0.041,0.094,0.123,0.129
		c0.053,0.021,0.155,0.053,0.31,0.09c0.182,0.045,0.312,0.094,0.392,0.147c0.124,0.077,0.187,0.187,0.187,0.327
		c0,0.33-0.231,0.494-0.697,0.494c-0.432,0-0.662-0.184-0.696-0.545h0.333c0.019,0.096,0.053,0.166,0.104,0.209
		c0.056,0.039,0.138,0.058,0.246,0.058c0.239,0,0.359-0.063,0.359-0.192c0-0.072-0.045-0.129-0.135-0.171
		c-0.04-0.021-0.144-0.049-0.308-0.087c-0.183-0.042-0.312-0.087-0.388-0.135c-0.12-0.076-0.18-0.182-0.18-0.314
		c0-0.146,0.059-0.258,0.177-0.334c0.114-0.082,0.269-0.123,0.462-0.123C723.927,192.809,724.15,192.973,724.186,193.301z"/>
	<path fill="#FFFFFF" d="M725.794,193.04c0.143,0.153,0.213,0.351,0.213,0.588c0,0.235-0.069,0.431-0.21,0.582
		c-0.146,0.155-0.334,0.233-0.569,0.233c-0.236,0-0.427-0.078-0.57-0.233c-0.14-0.147-0.21-0.343-0.21-0.582
		c0-0.242,0.071-0.438,0.213-0.588c0.142-0.154,0.329-0.231,0.567-0.231C725.463,192.809,725.652,192.887,725.794,193.04z
		 M724.897,193.256c-0.066,0.096-0.1,0.221-0.1,0.372c0,0.149,0.031,0.272,0.1,0.369c0.078,0.112,0.188,0.168,0.33,0.168
		c0.142,0,0.252-0.056,0.33-0.168c0.065-0.103,0.102-0.226,0.102-0.369c0-0.149-0.033-0.274-0.102-0.372
		c-0.076-0.111-0.188-0.168-0.33-0.168C725.081,193.088,724.973,193.145,724.897,193.256z"/>
	<path fill="#FFFFFF" d="M727.69,193.445v0.957h-0.343v-0.928c0-0.254-0.117-0.383-0.353-0.383c-0.084,0-0.156,0.03-0.222,0.092
		c-0.072,0.064-0.114,0.159-0.126,0.283v0.936h-0.343v-1.551h0.343v0.18c0.063-0.074,0.13-0.129,0.203-0.166
		c0.076-0.037,0.161-0.057,0.256-0.057C727.494,192.809,727.69,193.021,727.69,193.445z"/>
	<path fill="#FFFFFF" d="M728.548,192.764h1.642v0.288c-0.179,0.128-0.387,0.257-0.624,0.388v0.129h1.146v0.301h-1.146v0.533
		c0,0.201-0.104,0.305-0.313,0.305h-0.369l-0.074-0.285c0.102,0.006,0.215,0.01,0.339,0.01c0.067,0,0.102-0.045,0.102-0.133v-0.43
		h-1.218v-0.301h1.218v-0.256c0.204-0.104,0.362-0.191,0.476-0.261h-1.176L728.548,192.764L728.548,192.764z M730.666,192.221v0.717
		h-0.314v-0.42h-1.963v0.42h-0.314v-0.717h1.131c-0.052-0.111-0.096-0.197-0.132-0.255l0.363-0.06
		c0.048,0.104,0.088,0.211,0.119,0.314H730.666L730.666,192.221z"/>
	<path fill="#FFFFFF" d="M731.506,192.479c-0.074,0.141-0.161,0.271-0.263,0.396l-0.27-0.171c0.197-0.238,0.34-0.495,0.426-0.771
		l0.303,0.065l-0.067,0.201h0.702v0.28H732c0.047,0.074,0.087,0.146,0.119,0.22l-0.288,0.11c-0.056-0.133-0.107-0.242-0.157-0.33
		H731.506L731.506,192.479z M731.831,192.865c-0.036,0.105-0.088,0.216-0.147,0.328v1.5h-0.312v-1.068
		c-0.092,0.104-0.185,0.197-0.277,0.281l-0.104-0.326c0.259-0.238,0.45-0.518,0.576-0.838L731.831,192.865z M731.86,193.156h1.196
		v-0.278h0.31v0.278h0.347v0.301h-0.347v0.912c0,0.218-0.104,0.326-0.313,0.326h-0.446l-0.069-0.299
		c0.164,0.014,0.3,0.021,0.402,0.021c0.079,0,0.119-0.042,0.119-0.126v-0.834h-1.196L731.86,193.156L731.86,193.156z
		 M732.298,193.559c0.176,0.198,0.316,0.377,0.426,0.537l-0.245,0.168c-0.104-0.162-0.243-0.346-0.424-0.552L732.298,193.559z
		 M732.754,192.479c-0.067,0.145-0.142,0.271-0.218,0.385l-0.264-0.172c0.164-0.242,0.278-0.5,0.345-0.768l0.308,0.066
		c-0.021,0.072-0.041,0.141-0.063,0.207h0.825v0.281h-0.399c0.044,0.068,0.081,0.141,0.117,0.213l-0.288,0.106
		c-0.046-0.11-0.097-0.219-0.151-0.319H732.754L732.754,192.479z"/>
	<path fill="#FFFFFF" d="M734.278,192.218h0.935v-0.288h0.316v0.288h0.938v0.837h-0.938v0.24h1.05v0.921h-1.05v0.498h-0.316v-0.498
		h-1.045v-0.921h1.045v-0.24h-0.935V192.218z M735.211,193.951v-0.393h-0.729v0.393H735.211z M735.211,192.791v-0.309h-0.618v0.309
		H735.211z M736.15,192.791v-0.309h-0.621v0.309H736.15z M736.264,193.951v-0.393h-0.734v0.393H736.264z"/>
	<path fill="#FFFFFF" d="M737.448,194.012c0.044,0.045,0.065,0.098,0.065,0.162c0,0.068-0.022,0.123-0.068,0.165
		c-0.044,0.042-0.1,0.063-0.165,0.063c-0.063,0-0.117-0.022-0.165-0.066c-0.044-0.042-0.064-0.096-0.064-0.162
		s0.021-0.119,0.064-0.162c0.046-0.041,0.103-0.063,0.165-0.063C737.349,193.949,737.405,193.971,737.448,194.012z"/>
	<path fill="#FFFFFF" d="M738.979,193.04v-0.188h0.342v1.451c0,0.49-0.243,0.735-0.729,0.735c-0.217,0-0.383-0.04-0.498-0.12
		c-0.114-0.084-0.188-0.212-0.217-0.385h0.343c0.018,0.086,0.055,0.146,0.108,0.184c0.059,0.034,0.146,0.051,0.264,0.051
		c0.258,0,0.387-0.138,0.387-0.414v-0.228c-0.114,0.159-0.268,0.239-0.459,0.239c-0.21,0-0.38-0.069-0.51-0.209
		c-0.131-0.139-0.195-0.326-0.195-0.564c0-0.236,0.064-0.425,0.195-0.566c0.13-0.145,0.3-0.217,0.51-0.217
		C738.714,192.809,738.865,192.887,738.979,193.04z M738.274,193.221c-0.072,0.086-0.107,0.209-0.107,0.371
		c0,0.148,0.027,0.264,0.084,0.346c0.065,0.102,0.174,0.149,0.32,0.149c0.13,0,0.232-0.043,0.308-0.129
		c0.068-0.093,0.104-0.214,0.104-0.366c0-0.156-0.035-0.279-0.104-0.371c-0.071-0.091-0.175-0.136-0.305-0.136
		C738.446,193.085,738.347,193.13,738.274,193.221z"/>
	<path fill="#FFFFFF" d="M740.926,193.066c0.124,0.158,0.187,0.377,0.187,0.654h-1.161c0.014,0.146,0.053,0.256,0.117,0.328
		c0.065,0.076,0.16,0.114,0.284,0.114c0.104,0,0.189-0.022,0.256-0.072c0.05-0.036,0.096-0.101,0.138-0.188h0.344
		c-0.036,0.146-0.108,0.268-0.217,0.363c-0.141,0.116-0.313,0.176-0.517,0.176c-0.229,0-0.413-0.069-0.55-0.213
		c-0.146-0.146-0.216-0.351-0.216-0.604c0-0.231,0.066-0.426,0.204-0.579c0.132-0.156,0.313-0.236,0.546-0.236
		C740.597,192.809,740.791,192.895,740.926,193.066z M740.081,193.184c-0.063,0.063-0.104,0.155-0.125,0.279h0.799
		c-0.03-0.25-0.165-0.375-0.405-0.375C740.236,193.088,740.146,193.119,740.081,193.184z"/>
	<path fill="#FFFFFF" d="M742.076,191.921c-0.126,0.206-0.222,0.413-0.288,0.621c-0.088,0.252-0.132,0.513-0.132,0.78
		c0,0.264,0.044,0.523,0.132,0.779c0.066,0.203,0.162,0.41,0.288,0.621h-0.283c-0.142-0.191-0.25-0.396-0.33-0.611
		c-0.094-0.25-0.14-0.512-0.14-0.787s0.046-0.539,0.14-0.789c0.08-0.219,0.188-0.424,0.33-0.614H742.076L742.076,191.921z"/>
	<path fill="#FFFFFF" d="M742.609,191.921c0.146,0.198,0.254,0.403,0.33,0.614c0.092,0.259,0.138,0.521,0.138,0.789
		c0,0.267-0.046,0.529-0.138,0.787c-0.076,0.207-0.187,0.412-0.33,0.611h-0.285c0.124-0.211,0.222-0.418,0.288-0.621
		c0.088-0.266,0.132-0.523,0.132-0.779c0-0.26-0.044-0.521-0.132-0.78c-0.066-0.208-0.164-0.415-0.288-0.621H742.609
		L742.609,191.921z"/>
	<path fill="#FFFFFF" d="M743.608,191.921c0.146,0.198,0.254,0.403,0.33,0.614c0.092,0.259,0.138,0.521,0.138,0.789
		c0,0.267-0.046,0.529-0.138,0.787c-0.076,0.207-0.188,0.412-0.33,0.611h-0.285c0.124-0.211,0.222-0.418,0.288-0.621
		c0.088-0.266,0.132-0.523,0.132-0.779c0-0.26-0.044-0.521-0.132-0.78c-0.066-0.208-0.164-0.415-0.288-0.621H743.608
		L743.608,191.921z"/>
	<path fill="#FFFFFF" d="M675.585,197.51h0.294l-0.036,0.543l0.495-0.203l0.093,0.275l-0.521,0.139l0.359,0.398l-0.228,0.18
		l-0.311-0.453l-0.31,0.453l-0.229-0.18l0.359-0.398l-0.521-0.139l0.094-0.275l0.494,0.203L675.585,197.51z"/>
	<path fill="#FFFFFF" d="M679.611,197.759c0.159,0.171,0.239,0.378,0.239,0.621c0,0.208-0.066,0.403-0.201,0.585
		c-0.136,0.178-0.289,0.268-0.462,0.268c-0.124,0-0.196-0.063-0.219-0.187c-0.086,0.126-0.202,0.188-0.35,0.188
		c-0.134,0-0.241-0.045-0.325-0.135c-0.084-0.092-0.126-0.203-0.126-0.341c0-0.21,0.063-0.396,0.193-0.555
		c0.128-0.164,0.282-0.246,0.465-0.246c0.13,0,0.221,0.067,0.272,0.207l0.042-0.147h0.268l-0.202,0.729
		c-0.03,0.106-0.047,0.175-0.047,0.2c0,0.041,0.021,0.061,0.065,0.061c0.082,0,0.166-0.055,0.252-0.164
		c0.097-0.125,0.146-0.279,0.146-0.463c0-0.188-0.065-0.346-0.197-0.475c-0.146-0.143-0.344-0.215-0.599-0.215
		c-0.269,0-0.481,0.088-0.646,0.258c-0.16,0.166-0.239,0.384-0.239,0.652c0,0.295,0.085,0.521,0.255,0.668
		c0.155,0.141,0.38,0.207,0.673,0.207c0.188,0,0.354-0.029,0.497-0.092c0.126-0.061,0.229-0.144,0.305-0.25h0.28
		c-0.104,0.19-0.262,0.334-0.465,0.43c-0.187,0.084-0.393,0.125-0.618,0.125c-0.384,0-0.684-0.098-0.896-0.297
		c-0.212-0.195-0.317-0.465-0.317-0.804c0-0.313,0.104-0.575,0.311-0.782c0.222-0.229,0.516-0.343,0.882-0.343
		C679.17,197.468,679.425,197.564,679.611,197.759z M678.585,198.393c-0.084,0.113-0.126,0.24-0.126,0.381
		c0,0.072,0.015,0.125,0.045,0.162c0.028,0.039,0.075,0.061,0.141,0.061c0.059,0,0.114-0.021,0.168-0.063
		c0.061-0.049,0.104-0.108,0.126-0.187l0.063-0.218c0.021-0.088,0.034-0.141,0.034-0.157c0-0.045-0.017-0.08-0.048-0.106
		c-0.026-0.029-0.063-0.043-0.104-0.043C678.768,198.221,678.669,198.277,678.585,198.393z"/>
	<path fill="#FFFFFF" d="M681.608,198.302c0.12,0.149,0.18,0.345,0.18,0.582c0,0.226-0.059,0.415-0.177,0.567
		c-0.126,0.162-0.301,0.242-0.522,0.242c-0.183,0-0.334-0.084-0.463-0.254v0.807h-0.344v-2.145h0.318v0.164
		c0.106-0.14,0.264-0.207,0.468-0.207C681.297,198.059,681.477,198.141,681.608,198.302z M680.709,198.494
		c-0.064,0.09-0.099,0.214-0.099,0.371v0.023c0,0.163,0.04,0.297,0.12,0.395c0.072,0.09,0.163,0.135,0.273,0.135
		c0.147,0,0.262-0.049,0.336-0.146c0.063-0.092,0.096-0.222,0.096-0.388s-0.029-0.295-0.087-0.387
		c-0.072-0.108-0.183-0.162-0.333-0.162C680.882,198.335,680.778,198.389,680.709,198.494z"/>
	<path fill="#FFFFFF" d="M683.3,198.23c0.097,0.098,0.145,0.24,0.145,0.432v0.99h-0.316v-0.205
		c-0.062,0.078-0.137,0.139-0.227,0.181c-0.104,0.044-0.22,0.065-0.349,0.065c-0.159,0-0.286-0.041-0.381-0.123
		c-0.098-0.084-0.146-0.195-0.146-0.336c0-0.193,0.076-0.338,0.229-0.437c0.128-0.082,0.297-0.123,0.508-0.123l0.339-0.003v-0.035
		c0-0.201-0.111-0.304-0.333-0.304c-0.104,0-0.183,0.021-0.24,0.06c-0.064,0.041-0.104,0.104-0.117,0.189h-0.339
		c0.024-0.188,0.104-0.325,0.237-0.411c0.113-0.075,0.273-0.112,0.482-0.112C683.023,198.059,683.192,198.115,683.3,198.23z
		 M683.103,198.936l-0.315,0.002c-0.271,0-0.406,0.098-0.406,0.289c0,0.053,0.021,0.102,0.063,0.143
		c0.044,0.035,0.106,0.057,0.188,0.057c0.143,0,0.257-0.037,0.346-0.111c0.084-0.078,0.126-0.185,0.126-0.313L683.103,198.936
		L683.103,198.936z"/>
	<path fill="#FFFFFF" d="M684.731,198.098v0.342c-0.072-0.021-0.146-0.031-0.223-0.031c-0.092,0-0.173,0.033-0.243,0.104
		c-0.082,0.08-0.123,0.188-0.123,0.318v0.822h-0.339v-1.551h0.339v0.221c0.042-0.08,0.092-0.139,0.146-0.18
		c0.068-0.058,0.15-0.084,0.246-0.084C684.614,198.059,684.679,198.072,684.731,198.098z"/>
	<path fill="#FFFFFF" d="M686.138,198.23c0.097,0.098,0.145,0.24,0.145,0.432v0.99h-0.316v-0.205
		c-0.062,0.078-0.137,0.139-0.227,0.181c-0.104,0.044-0.22,0.065-0.349,0.065c-0.159,0-0.286-0.041-0.381-0.123
		c-0.097-0.084-0.146-0.195-0.146-0.336c0-0.193,0.076-0.338,0.229-0.437c0.128-0.082,0.297-0.123,0.508-0.123l0.339-0.003v-0.035
		c0-0.201-0.11-0.304-0.333-0.304c-0.103,0-0.183,0.021-0.24,0.06c-0.064,0.041-0.104,0.104-0.115,0.189h-0.34
		c0.023-0.188,0.104-0.325,0.236-0.411c0.113-0.075,0.274-0.112,0.482-0.112C685.861,198.059,686.03,198.115,686.138,198.23z
		 M685.94,198.936l-0.314,0.002c-0.271,0-0.407,0.098-0.407,0.289c0,0.053,0.021,0.102,0.063,0.143
		c0.044,0.035,0.106,0.057,0.188,0.057c0.143,0,0.257-0.037,0.346-0.111c0.084-0.078,0.126-0.185,0.126-0.313L685.94,198.936
		L685.94,198.936z"/>
	<path fill="#FFFFFF" d="M687.893,198.311c0.072-0.096,0.146-0.162,0.226-0.197c0.069-0.035,0.156-0.055,0.263-0.055
		c0.158,0,0.293,0.053,0.397,0.159c0.104,0.11,0.155,0.249,0.155,0.417v1.018h-0.342v-0.957c0-0.121-0.026-0.211-0.078-0.268
		c-0.054-0.056-0.141-0.084-0.258-0.084c-0.084,0-0.154,0.032-0.21,0.096c-0.06,0.063-0.087,0.148-0.087,0.266v0.947h-0.344v-0.953
		c0-0.235-0.103-0.354-0.307-0.354c-0.1,0-0.179,0.037-0.236,0.113c-0.061,0.07-0.09,0.159-0.09,0.266v0.93h-0.343v-1.551h0.343
		v0.158c0.128-0.135,0.27-0.201,0.42-0.201C687.632,198.059,687.795,198.143,687.893,198.311z"/>
	<path fill="#FFFFFF" d="M691.232,197.51v0.288h-0.282c-0.044,0-0.078,0.013-0.102,0.036c-0.022,0.021-0.033,0.059-0.033,0.111
		v0.156h0.396v0.276h-0.396v1.271h-0.342v-1.271h-0.346v-0.276h0.346v-0.166c0-0.136,0.037-0.238,0.109-0.313
		c0.069-0.076,0.177-0.114,0.317-0.114L691.232,197.51L691.232,197.51z"/>
	<path fill="#FFFFFF" d="M692.714,198.29c0.143,0.153,0.213,0.351,0.213,0.588c0,0.235-0.069,0.431-0.21,0.582
		c-0.146,0.155-0.334,0.233-0.569,0.233c-0.236,0-0.427-0.078-0.57-0.233c-0.14-0.147-0.21-0.343-0.21-0.582
		c0-0.242,0.071-0.438,0.213-0.588c0.142-0.154,0.329-0.231,0.567-0.231C692.383,198.059,692.572,198.137,692.714,198.29z
		 M691.817,198.506c-0.064,0.096-0.1,0.221-0.1,0.372c0,0.149,0.033,0.272,0.1,0.369c0.078,0.112,0.188,0.168,0.33,0.168
		c0.143,0,0.252-0.056,0.33-0.168c0.067-0.103,0.102-0.226,0.102-0.369c0-0.149-0.032-0.274-0.102-0.372
		c-0.076-0.111-0.188-0.168-0.33-0.168C692.003,198.338,691.893,198.395,691.817,198.506z"/>
	<path fill="#FFFFFF" d="M694.514,198.29c0.143,0.153,0.213,0.351,0.213,0.588c0,0.235-0.069,0.431-0.21,0.582
		c-0.146,0.155-0.334,0.233-0.569,0.233c-0.234,0-0.427-0.078-0.568-0.233c-0.142-0.147-0.21-0.343-0.21-0.582
		c0-0.242,0.069-0.438,0.213-0.588c0.14-0.154,0.328-0.231,0.565-0.231C694.183,198.059,694.37,198.137,694.514,198.29z
		 M693.615,198.506c-0.064,0.096-0.1,0.221-0.1,0.372c0,0.149,0.033,0.272,0.1,0.369c0.078,0.112,0.188,0.168,0.33,0.168
		c0.144,0,0.252-0.056,0.33-0.168c0.067-0.103,0.104-0.226,0.104-0.369c0-0.149-0.034-0.274-0.104-0.372
		c-0.076-0.111-0.187-0.168-0.33-0.168C693.803,198.338,693.692,198.395,693.615,198.506z"/>
	<path fill="#FFFFFF" d="M696.131,197.468h0.342v2.185h-0.318v-0.166c-0.105,0.141-0.264,0.207-0.468,0.207
		c-0.229,0-0.41-0.08-0.54-0.24c-0.12-0.15-0.18-0.346-0.18-0.582c0-0.229,0.059-0.42,0.177-0.566
		c0.126-0.162,0.301-0.242,0.525-0.242c0.18,0,0.334,0.086,0.462,0.256V197.468z M695.409,198.488
		c-0.063,0.086-0.094,0.213-0.094,0.381c0,0.17,0.029,0.299,0.087,0.387c0.07,0.107,0.184,0.162,0.333,0.162
		c0.135,0,0.237-0.053,0.312-0.159c0.063-0.099,0.096-0.222,0.096-0.372v-0.021c0-0.164-0.04-0.297-0.12-0.395
		c-0.072-0.091-0.163-0.136-0.271-0.136C695.596,198.335,695.482,198.387,695.409,198.488z"/>
	<path fill="#FFFFFF" d="M698.216,198.695v0.957h-0.345v-0.928c0-0.254-0.115-0.383-0.351-0.383c-0.084,0-0.158,0.03-0.222,0.092
		c-0.072,0.064-0.114,0.159-0.126,0.283v0.936h-0.345v-1.551h0.345v0.18c0.062-0.074,0.13-0.129,0.203-0.166
		c0.074-0.037,0.159-0.057,0.256-0.057C698.021,198.059,698.216,198.271,698.216,198.695z"/>
	<path fill="#FFFFFF" d="M699.785,198.23c0.099,0.098,0.146,0.24,0.146,0.432v0.99h-0.318v-0.205
		c-0.06,0.078-0.135,0.139-0.225,0.181c-0.104,0.044-0.22,0.065-0.35,0.065c-0.158,0-0.285-0.041-0.382-0.123
		c-0.096-0.084-0.144-0.195-0.144-0.336c0-0.193,0.076-0.338,0.228-0.437c0.13-0.082,0.299-0.123,0.51-0.123l0.339-0.003v-0.035
		c0-0.201-0.111-0.304-0.333-0.304c-0.104,0-0.185,0.021-0.24,0.06c-0.066,0.041-0.104,0.104-0.117,0.189h-0.339
		c0.024-0.188,0.104-0.325,0.237-0.411c0.111-0.075,0.272-0.112,0.48-0.112C699.511,198.059,699.68,198.115,699.785,198.23z
		 M699.59,198.936l-0.315,0.002c-0.271,0-0.408,0.098-0.408,0.289c0,0.053,0.021,0.102,0.063,0.143
		c0.044,0.035,0.104,0.057,0.188,0.057c0.145,0,0.258-0.037,0.348-0.111c0.084-0.078,0.126-0.185,0.126-0.313L699.59,198.936
		L699.59,198.936z"/>
	<path fill="#FFFFFF" d="M701.541,198.311c0.071-0.096,0.146-0.162,0.227-0.197c0.069-0.035,0.156-0.055,0.261-0.055
		c0.16,0,0.293,0.053,0.399,0.159c0.104,0.11,0.153,0.249,0.153,0.417v1.018h-0.342v-0.957c0-0.121-0.024-0.211-0.078-0.268
		c-0.054-0.056-0.14-0.084-0.258-0.084c-0.084,0-0.153,0.032-0.21,0.096c-0.058,0.063-0.087,0.148-0.087,0.266v0.947h-0.342v-0.953
		c0-0.235-0.104-0.354-0.308-0.354c-0.101,0-0.18,0.037-0.235,0.113c-0.063,0.07-0.09,0.159-0.09,0.266v0.93h-0.345v-1.551h0.345
		v0.158c0.128-0.135,0.268-0.201,0.42-0.201C701.281,198.059,701.444,198.143,701.541,198.311z"/>
	<path fill="#FFFFFF" d="M704.188,198.316c0.124,0.158,0.188,0.377,0.188,0.654h-1.16c0.012,0.146,0.051,0.256,0.115,0.328
		c0.065,0.076,0.16,0.114,0.284,0.114c0.104,0,0.189-0.022,0.256-0.072c0.052-0.036,0.098-0.101,0.14-0.188h0.342
		c-0.036,0.146-0.108,0.268-0.216,0.363c-0.142,0.116-0.313,0.176-0.518,0.176c-0.229,0-0.413-0.069-0.55-0.213
		c-0.144-0.146-0.216-0.351-0.216-0.604c0-0.231,0.067-0.426,0.204-0.579c0.132-0.156,0.313-0.236,0.546-0.236
		C703.859,198.059,704.055,198.145,704.188,198.316z M703.346,198.434c-0.063,0.063-0.104,0.155-0.126,0.279h0.798
		c-0.03-0.25-0.165-0.375-0.405-0.375C703.497,198.338,703.407,198.369,703.346,198.434z"/>
	<path fill="#FFFFFF" d="M673.993,202.421h0.237c0.136,0,0.24,0.044,0.314,0.132c0.064,0.08,0.099,0.189,0.099,0.327v0.546
		c0,0.088,0.021,0.152,0.058,0.191c0.038,0.043,0.111,0.068,0.221,0.076v0.258c-0.105,0.006-0.182,0.033-0.224,0.08
		c-0.036,0.037-0.055,0.099-0.055,0.187v0.55c0,0.133-0.032,0.241-0.099,0.323c-0.076,0.089-0.183,0.132-0.314,0.132h-0.237v-0.261
		h0.179c0.106,0,0.161-0.062,0.161-0.183v-0.58c0-0.18,0.087-0.305,0.262-0.377c-0.175-0.064-0.262-0.19-0.262-0.379v-0.576
		c0-0.123-0.055-0.186-0.161-0.186h-0.179V202.421L673.993,202.421z"/>
</g>
<linearGradient id="SVGID_11_" gradientUnits="userSpaceOnUse" x1="1307.7434" y1="779.9307" x2="1236.2434" y2="708.4307" gradientTransform="matrix(1 0 0 1 -563.1992 -560.6797)">
	<stop  offset="0" style="stop-color:#0063FF"/>
	<stop  offset="1" style="stop-color:#00C8DE"/>
</linearGradient>
<path fill="url(#SVGID_11_)" d="M667.793,214v-61h82v61H667.793z M748.793,154h-80v59h80V154z M684.378,187.123
	c0,1.646,0.709,2.47,2.128,2.47c0.79,0,1.364-0.233,1.728-0.702c0.361-0.469,0.542-1.213,0.542-2.229v-9.617h2.35v9.698
	c0,1.633-0.342,2.853-1.022,3.653c-0.763,0.845-1.975,1.266-3.635,1.266c-1.445,0-2.543-0.4-3.293-1.204
	c-0.765-0.806-1.146-1.908-1.146-3.313v-0.461h2.352L684.378,187.123L684.378,187.123z M696.625,188.971
	c0.575,0.414,1.445,0.622,2.609,0.622c1.044,0,1.874-0.174,2.49-0.522c0.615-0.375,0.924-0.85,0.924-1.426
	c0-0.763-0.449-1.365-1.346-1.807c-0.321-0.161-1.252-0.475-2.791-0.943c-1.78-0.563-2.878-0.963-3.293-1.205
	c-1.1-0.653-1.646-1.619-1.646-2.892c0-1.284,0.535-2.282,1.606-2.991c0.989-0.695,2.262-1.045,3.813-1.045
	c1.699,0,3.02,0.35,3.955,1.045c1.004,0.75,1.579,1.907,1.729,3.476h-2.329c-0.2-0.886-0.569-1.521-1.104-1.908
	c-0.509-0.39-1.298-0.582-2.369-0.582c-0.908,0-1.6,0.128-2.066,0.382c-0.589,0.294-0.883,0.789-0.883,1.485
	c0,0.629,0.334,1.116,1.004,1.466c0.32,0.175,1.138,0.469,2.449,0.883c1.888,0.576,3.139,1.045,3.755,1.406
	c1.245,0.734,1.866,1.77,1.866,3.093c0,1.284-0.503,2.304-1.507,3.054c-1.018,0.734-2.437,1.104-4.257,1.104
	c-1.767,0-3.146-0.342-4.136-1.023c-1.219-0.844-1.874-2.176-1.968-3.996h2.329C695.62,187.738,696.011,188.516,696.625,188.971z
	 M713.369,176.762c2.195,0,3.924,0.711,5.183,2.129c1.204,1.338,1.807,3.119,1.807,5.342c0,2.194-0.603,3.97-1.807,5.319
	c-1.259,1.405-2.985,2.108-5.183,2.108c-2.194,0-3.922-0.709-5.181-2.128c-1.191-1.353-1.787-3.118-1.787-5.302
	c0-2.194,0.596-3.97,1.787-5.32C709.422,177.479,711.148,176.762,713.369,176.762z M709.918,188.105
	c0.803,0.992,1.952,1.485,3.451,1.485c1.485,0,2.632-0.476,3.436-1.426c0.789-0.951,1.185-2.263,1.185-3.937s-0.396-3-1.185-3.977
	c-0.79-0.949-1.937-1.426-3.436-1.426c-1.473,0-2.624,0.502-3.451,1.506c-0.777,0.95-1.165,2.249-1.165,3.896
	C708.753,185.863,709.141,187.156,709.918,188.105z M732.005,187.384h0.08v-10.341h2.367v14.337h-2.289l-7.168-10.481h-0.08v10.481
	h-2.35v-14.337h2.35L732.005,187.384z"/>
<g>
	<g>
		
			<linearGradient id="SVGID_12_" gradientUnits="userSpaceOnUse" x1="1016.1614" y1="746.791" x2="926.6613" y2="657.291" gradientTransform="matrix(1 0 0 1 -563.1992 -560.6797)">
			<stop  offset="0" style="stop-color:#0063FF"/>
			<stop  offset="1" style="stop-color:#00C8DE"/>
		</linearGradient>
		<path fill="url(#SVGID_12_)" d="M385.226,117.165c-4.415,0-8.007,3.592-8.007,8.006c0,4.415,3.592,8.007,8.007,8.007
			s8.007-3.592,8.007-8.007C393.232,120.757,389.641,117.165,385.226,117.165z M385.226,131.178c-3.313,0-6.007-2.695-6.007-6.007
			s2.692-6.006,6.007-6.006c3.312,0,6.007,2.694,6.007,6.006S388.535,131.178,385.226,131.178z M459.211,158.27v-55.409h-102v77h102
			v-18.877l7.975,7.322l1.354-1.475L459.211,158.27z M458.211,157.352l-4-3.672v-45.819h-91v45.799l-0.064,0.045l0.064,0.096v9.061
			h91v-6.467l4,3.672v18.795h-100v-75h100V157.352z M437.404,155.873c4.377,0,8.352-1.736,11.291-4.543l3.052,2.802l1.075,1.099
			l0.061-0.058l0.33,0.304v6.385h-89v-6.602l0.064,0.096l18.367-12.596l15.277,13.09l23.652-20.472
			c-0.344,1.319-0.546,2.695-0.546,4.12C421.03,148.527,428.376,155.873,437.404,155.873z M423.03,139.498
			c0-7.926,6.448-14.375,14.374-14.375c7.928,0,14.377,6.449,14.377,14.375c0,7.928-6.449,14.375-14.377,14.375
			C429.479,153.873,423.03,147.426,423.03,139.498z M453.139,152.693l-2.938-3.004c1.376-1.723,2.417-3.723,3.013-5.906v8.977
			L453.139,152.693z M437.404,123.123c-6.022,0-11.286,3.281-14.13,8.141l-25.358,21.948l-15.137-12.969l-18.566,12.733v-44.116h89
			v26.421C451.344,128.293,444.975,123.123,437.404,123.123z"/>
	</g>
</g>
</svg>
