<?xml version="1.0" encoding="UTF-8"?>
<svg width="32px" height="32px" viewBox="0 0 32 32" version="1.1" xmlns="http://www.w3.org/2000/svg" xmlns:xlink="http://www.w3.org/1999/xlink">
    <!-- Generator: Sketch 52.6 (67491) - http://www.bohemiancoding.com/sketch -->
    <title>语音技术-32px</title>
    <desc>Created with Sketch.</desc>
    <g id="语音技术-32px" stroke="none" stroke-width="1" fill="none" fill-rule="evenodd">
        <rect id="Rectangle-Copy" fill="#444444" opacity="0" x="0" y="0" width="32" height="32"></rect>
        <path d="M12,20.9154693 C9.88013104,20.5406017 8.24074034,18.9599936 8,17 L10,17 L10,10.75 C10,9.23121694 11.3431458,8 13,8 C14.6568542,8 16,9.23121694 16,10.75 L16,11 L14,11 L14,10.75 C14,10.243739 13.5522847,9.83333333 13,9.83333333 C12.4477153,9.83333333 12,10.243739 12,10.75 L12,11 L12,18.8665596 C12.3020709,18.9527961 12.6276576,19 12.969484,19 C14.4532913,19 15.6310981,18.1105503 15.907776,17 L17.938968,17 C17.7005431,18.9411426 16.0902426,20.5101623 14,20.9043191 L14,22 L16,22 L16,24 L10,24 L10,22 L12,22 L12,20.9154693 Z M27.2675644,26 C27.6133738,25.4021986 28.2597176,25 29,25 C30.1045695,25 31,25.8954305 31,27 C31,28.1045695 30.1045695,29 29,29 C28.2597176,29 27.6133738,28.5978014 27.2675644,28 L2,28 L2,26 L2,11 L4,11 L4,26 L27.2675644,26 Z M4.73243561,4 L30,4 L30,6 L30,21 L28,21 L28,6 L4.73243561,6 C4.38662619,6.59780137 3.74028236,7 3,7 C1.8954305,7 1,6.1045695 1,5 C1,3.8954305 1.8954305,3 3,3 C3.74028236,3 4.38662619,3.40219863 4.73243561,4 Z M16,12 L18,12 L18,15 L16,15 L16,12 Z M22,12 L24,12 L24,15 L22,15 L22,12 Z M19,10 L21,10 L21,17 L19,17 L19,10 Z" id="Combined-Shape" fill="#00A4FF"></path>
    </g>
</svg>