<?xml version="1.0" encoding="UTF-8"?>
<svg width="830px" height="244px" viewBox="0 0 830 244" version="1.1" xmlns="http://www.w3.org/2000/svg" xmlns:xlink="http://www.w3.org/1999/xlink">
    <!-- Generator: Sketch 54.1 (76490) - https://sketchapp.com -->
    <title>应用场景图-4</title>
    <desc>Created with Sketch.</desc>
    <g id="页面1" stroke="none" stroke-width="1" fill="none" fill-rule="evenodd">
        <g id="应用场景图-4">
            <polygon id="矩形复制-4" fill-opacity="0.01" fill="#FFFFFF" fill-rule="nonzero" points="0 0 830 0 830 244 0 244"></polygon>
            <path d="M230,129 L600,129 L600,241 L230,241 L230,129 Z" id="矩形复制-3" stroke="#BABABA" stroke-dasharray="5"></path>
            <g id="编组-4" transform="translate(138.000000, 3.000000)">
                <g id="ShadowBasicRect1" fill-rule="nonzero">
                    <rect id="矩形" fill="#BBBBBB" opacity="0.6" x="2" y="2" width="114" height="50"></rect>
                    <rect id="矩形" stroke="#E5E5E5" fill="#FFFFFF" x="0" y="0" width="114" height="50"></rect>
                    <g id="编组" transform="translate(21.000000, 13.000000)">
                        <g id="1521199008649-32" fill="#00A4FF">
                            <path d="M30,18 L30,0 L0,0 L0,24 L30,24 L30,22 L2,22 L2,7 L28,7 L28,18 L30,18 Z M2,5 L2,2 L28,2 L28,5 L2,5 Z M22.9748737,10.1109127 L16.6109127,16.4748737 L18.0251263,17.8890873 L24.3890873,11.5251263 L22.9748737,10.1109127 Z M24.3890873,16.4748737 L18.0251263,10.1109127 L16.6109127,11.5251263 L22.9748737,17.8890873 L24.3890873,16.4748737 Z" id="形状"></path>
                        </g>
                        <g id="篡改" transform="translate(41.000000, 5.000000)">
                            <g id="path-1-link" fill="#000000">
                                <path d="M2.562,3.46 L11.494,3.46 L11.494,8.052 L6.174,8.052 C6.076,8.304 5.964,8.542 5.824,8.766 L13.188,8.766 L13.188,9.606 L10.08,9.606 C10.822,10.236 11.928,10.74 13.384,11.104 L13.006,11.93 C11.158,11.328 9.842,10.558 9.044,9.606 L5.18,9.606 C4.256,10.586 2.856,11.412 0.98,12.056 L0.546,11.216 C2.002,10.768 3.136,10.222 3.92,9.606 L0.812,9.606 L0.812,8.766 L4.76,8.766 C4.928,8.528 5.068,8.29 5.18,8.052 L2.562,8.052 L2.562,3.46 Z M10.514,7.38 L10.514,6.694 L3.542,6.694 L3.542,7.38 L10.514,7.38 Z M3.542,6.078 L10.514,6.078 L10.514,5.434 L3.542,5.434 L3.542,6.078 Z M3.542,4.818 L10.514,4.818 L10.514,4.132 L3.542,4.132 L3.542,4.818 Z M8.638,10.348 C9.786,11.342 10.654,12.21 11.27,12.952 L10.486,13.498 C10.262,13.218 10.038,12.938 9.786,12.672 C7.658,12.924 5.46,13.092 3.22,13.176 L2.954,12.42 C4.214,11.916 5.25,11.118 6.09,10.054 L7,10.306 C6.37,11.118 5.642,11.804 4.83,12.35 C6.286,12.266 7.714,12.14 9.114,11.972 C8.736,11.58 8.33,11.202 7.91,10.81 L8.638,10.348 Z M2.786,2.27 C2.394,2.802 1.96,3.278 1.484,3.712 L0.644,3.18 C1.596,2.354 2.296,1.444 2.73,0.464 L3.696,0.674 C3.584,0.926 3.458,1.178 3.318,1.43 L6.79,1.43 L6.79,2.27 L5.166,2.27 C5.334,2.564 5.502,2.872 5.642,3.208 L4.704,3.292 C4.564,2.914 4.396,2.578 4.214,2.27 L2.786,2.27 Z M8.568,2.27 C8.302,2.69 8.008,3.082 7.686,3.446 L6.86,2.928 C7.56,2.186 8.064,1.36 8.386,0.464 L9.338,0.66 C9.24,0.94 9.142,1.192 9.03,1.43 L13.216,1.43 L13.216,2.27 L11.13,2.27 C11.312,2.564 11.48,2.872 11.648,3.208 L10.696,3.292 C10.528,2.9 10.346,2.564 10.15,2.27 L8.568,2.27 Z M22.344,3.6 C22.232,3.936 22.12,4.244 22.008,4.538 C22.456,6.162 23.058,7.59 23.786,8.794 C24.584,7.352 25.004,5.616 25.032,3.6 L22.344,3.6 Z M25.998,3.6 C25.942,6.022 25.396,8.052 24.374,9.69 C25.256,10.922 26.306,11.888 27.538,12.588 L26.964,13.428 C25.732,12.728 24.668,11.762 23.786,10.53 C22.862,11.72 21.63,12.672 20.118,13.386 L19.488,12.56 C21.07,11.86 22.316,10.908 23.226,9.676 C22.526,8.542 21.938,7.226 21.476,5.728 C21.196,6.26 20.902,6.736 20.58,7.156 L19.964,6.372 C20.986,4.944 21.672,2.998 22.036,0.548 L23.016,0.716 C22.904,1.402 22.764,2.046 22.624,2.634 L27.09,2.634 L27.09,3.6 L25.998,3.6 Z M16.478,11.272 C17.654,10.88 18.872,10.376 20.104,9.76 L20.258,10.684 C18.802,11.384 17.192,12.042 15.4,12.63 L15.106,11.762 C15.358,11.65 15.498,11.426 15.498,11.062 L15.498,5.84 L18.634,5.84 L18.634,2.522 L14.798,2.522 L14.798,1.556 L19.614,1.556 L19.614,6.764 L16.478,6.764 L16.478,11.272 Z" id="path-1"></path>
                            </g>
                            <g id="path-1-link" fill="#444444">
                                <path d="M2.562,3.46 L11.494,3.46 L11.494,8.052 L6.174,8.052 C6.076,8.304 5.964,8.542 5.824,8.766 L13.188,8.766 L13.188,9.606 L10.08,9.606 C10.822,10.236 11.928,10.74 13.384,11.104 L13.006,11.93 C11.158,11.328 9.842,10.558 9.044,9.606 L5.18,9.606 C4.256,10.586 2.856,11.412 0.98,12.056 L0.546,11.216 C2.002,10.768 3.136,10.222 3.92,9.606 L0.812,9.606 L0.812,8.766 L4.76,8.766 C4.928,8.528 5.068,8.29 5.18,8.052 L2.562,8.052 L2.562,3.46 Z M10.514,7.38 L10.514,6.694 L3.542,6.694 L3.542,7.38 L10.514,7.38 Z M3.542,6.078 L10.514,6.078 L10.514,5.434 L3.542,5.434 L3.542,6.078 Z M3.542,4.818 L10.514,4.818 L10.514,4.132 L3.542,4.132 L3.542,4.818 Z M8.638,10.348 C9.786,11.342 10.654,12.21 11.27,12.952 L10.486,13.498 C10.262,13.218 10.038,12.938 9.786,12.672 C7.658,12.924 5.46,13.092 3.22,13.176 L2.954,12.42 C4.214,11.916 5.25,11.118 6.09,10.054 L7,10.306 C6.37,11.118 5.642,11.804 4.83,12.35 C6.286,12.266 7.714,12.14 9.114,11.972 C8.736,11.58 8.33,11.202 7.91,10.81 L8.638,10.348 Z M2.786,2.27 C2.394,2.802 1.96,3.278 1.484,3.712 L0.644,3.18 C1.596,2.354 2.296,1.444 2.73,0.464 L3.696,0.674 C3.584,0.926 3.458,1.178 3.318,1.43 L6.79,1.43 L6.79,2.27 L5.166,2.27 C5.334,2.564 5.502,2.872 5.642,3.208 L4.704,3.292 C4.564,2.914 4.396,2.578 4.214,2.27 L2.786,2.27 Z M8.568,2.27 C8.302,2.69 8.008,3.082 7.686,3.446 L6.86,2.928 C7.56,2.186 8.064,1.36 8.386,0.464 L9.338,0.66 C9.24,0.94 9.142,1.192 9.03,1.43 L13.216,1.43 L13.216,2.27 L11.13,2.27 C11.312,2.564 11.48,2.872 11.648,3.208 L10.696,3.292 C10.528,2.9 10.346,2.564 10.15,2.27 L8.568,2.27 Z M22.344,3.6 C22.232,3.936 22.12,4.244 22.008,4.538 C22.456,6.162 23.058,7.59 23.786,8.794 C24.584,7.352 25.004,5.616 25.032,3.6 L22.344,3.6 Z M25.998,3.6 C25.942,6.022 25.396,8.052 24.374,9.69 C25.256,10.922 26.306,11.888 27.538,12.588 L26.964,13.428 C25.732,12.728 24.668,11.762 23.786,10.53 C22.862,11.72 21.63,12.672 20.118,13.386 L19.488,12.56 C21.07,11.86 22.316,10.908 23.226,9.676 C22.526,8.542 21.938,7.226 21.476,5.728 C21.196,6.26 20.902,6.736 20.58,7.156 L19.964,6.372 C20.986,4.944 21.672,2.998 22.036,0.548 L23.016,0.716 C22.904,1.402 22.764,2.046 22.624,2.634 L27.09,2.634 L27.09,3.6 L25.998,3.6 Z M16.478,11.272 C17.654,10.88 18.872,10.376 20.104,9.76 L20.258,10.684 C18.802,11.384 17.192,12.042 15.4,12.63 L15.106,11.762 C15.358,11.65 15.498,11.426 15.498,11.062 L15.498,5.84 L18.634,5.84 L18.634,2.522 L14.798,2.522 L14.798,1.556 L19.614,1.556 L19.614,6.764 L16.478,6.764 L16.478,11.272 Z" id="path-1"></path>
                            </g>
                        </g>
                    </g>
                </g>
                <g id="ShadowBasicRect2" transform="translate(146.000000, 0.000000)">
                    <rect id="矩形" fill="#BBBBBB" fill-rule="nonzero" opacity="0.6" x="2" y="2" width="114" height="50"></rect>
                    <rect id="矩形" stroke="#E5E5E5" fill="#FFFFFF" fill-rule="nonzero" x="0" y="0" width="114" height="50"></rect>
                    <g id="编组" transform="translate(20.000000, 10.000000)">
                        <g>
                            <path d="M16,28 C9.07835773,28.0081096 3.36413722,22.5913761 3.0025223,15.6791816 C2.64090739,8.76698719 7.75872332,2.78357028 14.6434274,2.06939397 C21.5281314,1.35521766 27.7651265,6.16075721 28.83,13 L30.83,13 C29.7773016,5.17525662 22.8392862,-0.494007791 14.9616916,0.0335202668 C7.08409694,0.561048325 0.963931253,7.10476201 0.963931253,15 C0.963931253,22.895238 7.08409694,29.4389517 14.9616916,29.9664797 C22.8392862,30.4940078 29.7773016,24.8247434 30.83,17 L28.83,17 C27.8451216,23.325525 22.4017338,27.9924982 16,28 Z" id="形状" fill="#00A4FF" fill-rule="nonzero"></path>
                            <g id="编组-6" transform="translate(16.000000, 15.000000) rotate(-45.000000) translate(-16.000000, -15.000000) translate(7.000000, 12.000000)" stroke="#00A4FF" stroke-width="2">
                                <path d="M12,2.64644661 L12,3 C12,4.65685425 10.6568542,6 9,6 L3,6 C1.34314575,6 2.02906125e-16,4.65685425 0,3 L0,3 C-2.02906125e-16,1.34314575 1.34314575,-1.04370736e-13 3,-3.41060513e-13 L3,-3.41060513e-13 L4.40380592,-3.41060513e-13" id="路径"></path>
                                <path d="M6,3.35355339 L6,3 C6,1.34314575 7.34314575,-7.60789849e-14 9,-7.63833441e-14 L9,-7.63833441e-14 L15,-7.63833441e-14 C16.6568542,-7.66877033e-14 18,1.34314575 18,3 L18,3 C18,4.65685425 16.6568542,6 15,6 L13.2426407,6" id="路径"></path>
                            </g>
                        </g>
                        <g id="暗链" transform="translate(43.000000, 8.000000)" fill-rule="nonzero">
                            <g id="path-2-link" fill="#000000">
                                <path d="M11.446,7.24 L11.446,13.442 L10.48,13.442 L10.48,12.784 L6.42,12.784 L6.42,13.47 L5.44,13.47 L5.44,7.24 L11.446,7.24 Z M6.42,11.888 L10.48,11.888 L10.48,10.474 L6.42,10.474 L6.42,11.888 Z M6.42,9.606 L10.48,9.606 L10.48,8.136 L6.42,8.136 L6.42,9.606 Z M8.394,0.464 C8.59,0.884 8.758,1.374 8.926,1.92 L12.034,1.92 L12.034,2.872 L10.9,2.872 C10.746,3.684 10.522,4.468 10.242,5.21 L12.244,5.21 L12.244,6.162 L4.614,6.162 L4.614,5.21 L6.602,5.21 L6.042,2.872 L4.964,2.872 L4.964,1.92 L7.946,1.92 C7.764,1.444 7.568,1.024 7.358,0.632 L8.394,0.464 Z M7.554,5.21 L9.276,5.21 C9.598,4.482 9.836,3.698 9.976,2.872 L6.98,2.872 L7.554,5.21 Z M3.886,1.514 L3.886,11.748 L2.92,11.748 L2.92,10.992 L1.114,10.992 L1.114,12.042 L0.134,12.042 L0.134,1.514 L3.886,1.514 Z M1.114,10.04 L2.92,10.04 L2.92,6.75 L1.114,6.75 L1.114,10.04 Z M1.114,5.798 L2.92,5.798 L2.92,2.452 L1.114,2.452 L1.114,5.798 Z M20.77,8.458 L23.388,8.458 L23.388,6.736 L21.092,6.736 L20.896,5.896 C21.372,5.126 21.806,4.174 22.198,3.026 L20.798,3.026 L20.798,2.144 L22.464,2.144 C22.604,1.64 22.744,1.108 22.884,0.562 L23.78,0.772 C23.668,1.248 23.542,1.71 23.416,2.144 L26.09,2.144 L26.09,3.026 L23.136,3.026 C22.772,4.09 22.38,5.042 21.946,5.854 L23.388,5.854 L23.388,3.964 L24.326,3.964 L24.326,5.854 L25.964,5.854 L25.964,6.736 L24.326,6.736 L24.326,8.458 L26.356,8.458 L26.356,9.354 L24.326,9.354 L24.326,11.678 L23.388,11.678 L23.388,9.354 L20.77,9.354 L20.77,8.458 Z M18.81,0.856 C19.454,1.696 19.958,2.438 20.294,3.068 L19.538,3.6 C19.174,2.9 18.684,2.144 18.068,1.318 L18.81,0.856 Z M24.354,12.238 C25.082,12.238 25.782,12.224 26.44,12.21 L26.174,13.162 L24.284,13.162 C23.864,13.162 23.43,13.148 23.01,13.134 C22.366,13.12 21.792,13.036 21.302,12.882 C20.812,12.714 20.406,12.42 20.07,12.028 C19.888,11.818 19.734,11.72 19.608,11.72 C19.37,11.72 18.936,12.266 18.32,13.372 L17.718,12.616 C18.306,11.692 18.796,11.118 19.188,10.88 L19.188,6.162 L18.054,6.162 L18.054,5.266 L20.112,5.266 L20.112,10.922 C20.168,10.978 20.224,11.02 20.266,11.076 C20.546,11.44 20.91,11.72 21.344,11.93 C21.736,12.084 22.212,12.182 22.758,12.21 C23.29,12.224 23.822,12.238 24.354,12.238 Z M15.058,0.604 L16.024,0.8 C15.926,1.276 15.814,1.724 15.702,2.172 L17.816,2.172 L17.816,3.124 L15.408,3.124 C15.1,4.09 14.736,4.972 14.33,5.756 L13.532,5.252 C14.232,3.852 14.75,2.298 15.058,0.604 Z M14.75,4.958 L17.578,4.958 L17.578,5.868 L16.43,5.868 L16.43,7.618 L17.97,7.618 L17.97,8.556 L16.43,8.556 L16.43,11.818 C16.822,11.622 17.228,11.356 17.648,11.02 L17.816,11.888 C17.144,12.364 16.388,12.77 15.52,13.078 L15.142,12.238 C15.352,12.14 15.464,11.986 15.464,11.79 L15.464,8.556 L13.91,8.556 L13.91,7.618 L15.464,7.618 L15.464,5.868 L14.75,5.868 L14.75,4.958 Z" id="path-2"></path>
                            </g>
                            <g id="path-2-link" fill="#444444">
                                <path d="M11.446,7.24 L11.446,13.442 L10.48,13.442 L10.48,12.784 L6.42,12.784 L6.42,13.47 L5.44,13.47 L5.44,7.24 L11.446,7.24 Z M6.42,11.888 L10.48,11.888 L10.48,10.474 L6.42,10.474 L6.42,11.888 Z M6.42,9.606 L10.48,9.606 L10.48,8.136 L6.42,8.136 L6.42,9.606 Z M8.394,0.464 C8.59,0.884 8.758,1.374 8.926,1.92 L12.034,1.92 L12.034,2.872 L10.9,2.872 C10.746,3.684 10.522,4.468 10.242,5.21 L12.244,5.21 L12.244,6.162 L4.614,6.162 L4.614,5.21 L6.602,5.21 L6.042,2.872 L4.964,2.872 L4.964,1.92 L7.946,1.92 C7.764,1.444 7.568,1.024 7.358,0.632 L8.394,0.464 Z M7.554,5.21 L9.276,5.21 C9.598,4.482 9.836,3.698 9.976,2.872 L6.98,2.872 L7.554,5.21 Z M3.886,1.514 L3.886,11.748 L2.92,11.748 L2.92,10.992 L1.114,10.992 L1.114,12.042 L0.134,12.042 L0.134,1.514 L3.886,1.514 Z M1.114,10.04 L2.92,10.04 L2.92,6.75 L1.114,6.75 L1.114,10.04 Z M1.114,5.798 L2.92,5.798 L2.92,2.452 L1.114,2.452 L1.114,5.798 Z M20.77,8.458 L23.388,8.458 L23.388,6.736 L21.092,6.736 L20.896,5.896 C21.372,5.126 21.806,4.174 22.198,3.026 L20.798,3.026 L20.798,2.144 L22.464,2.144 C22.604,1.64 22.744,1.108 22.884,0.562 L23.78,0.772 C23.668,1.248 23.542,1.71 23.416,2.144 L26.09,2.144 L26.09,3.026 L23.136,3.026 C22.772,4.09 22.38,5.042 21.946,5.854 L23.388,5.854 L23.388,3.964 L24.326,3.964 L24.326,5.854 L25.964,5.854 L25.964,6.736 L24.326,6.736 L24.326,8.458 L26.356,8.458 L26.356,9.354 L24.326,9.354 L24.326,11.678 L23.388,11.678 L23.388,9.354 L20.77,9.354 L20.77,8.458 Z M18.81,0.856 C19.454,1.696 19.958,2.438 20.294,3.068 L19.538,3.6 C19.174,2.9 18.684,2.144 18.068,1.318 L18.81,0.856 Z M24.354,12.238 C25.082,12.238 25.782,12.224 26.44,12.21 L26.174,13.162 L24.284,13.162 C23.864,13.162 23.43,13.148 23.01,13.134 C22.366,13.12 21.792,13.036 21.302,12.882 C20.812,12.714 20.406,12.42 20.07,12.028 C19.888,11.818 19.734,11.72 19.608,11.72 C19.37,11.72 18.936,12.266 18.32,13.372 L17.718,12.616 C18.306,11.692 18.796,11.118 19.188,10.88 L19.188,6.162 L18.054,6.162 L18.054,5.266 L20.112,5.266 L20.112,10.922 C20.168,10.978 20.224,11.02 20.266,11.076 C20.546,11.44 20.91,11.72 21.344,11.93 C21.736,12.084 22.212,12.182 22.758,12.21 C23.29,12.224 23.822,12.238 24.354,12.238 Z M15.058,0.604 L16.024,0.8 C15.926,1.276 15.814,1.724 15.702,2.172 L17.816,2.172 L17.816,3.124 L15.408,3.124 C15.1,4.09 14.736,4.972 14.33,5.756 L13.532,5.252 C14.232,3.852 14.75,2.298 15.058,0.604 Z M14.75,4.958 L17.578,4.958 L17.578,5.868 L16.43,5.868 L16.43,7.618 L17.97,7.618 L17.97,8.556 L16.43,8.556 L16.43,11.818 C16.822,11.622 17.228,11.356 17.648,11.02 L17.816,11.888 C17.144,12.364 16.388,12.77 15.52,13.078 L15.142,12.238 C15.352,12.14 15.464,11.986 15.464,11.79 L15.464,8.556 L13.91,8.556 L13.91,7.618 L15.464,7.618 L15.464,5.868 L14.75,5.868 L14.75,4.958 Z" id="path-2"></path>
                            </g>
                        </g>
                    </g>
                </g>
                <g id="ShadowBasicRect3" transform="translate(292.000000, 0.000000)">
                    <rect id="矩形" fill="#BBBBBB" fill-rule="nonzero" opacity="0.6" x="2" y="2" width="114" height="50"></rect>
                    <rect id="矩形" stroke="#E5E5E5" fill="#FFFFFF" fill-rule="nonzero" x="0" y="0" width="114" height="50"></rect>
                    <g id="编组" transform="translate(23.000000, 11.000000)">
                        <g id="1521199564340-32">
                            <g id="XMLID_4_">
                                <path d="M24,6 L24,15.5 C24,15.5 24,17.8 22.6,20.3 C20.8,23.7 17.5,26 13,27.2 C2.3,24.6 2,15.9 2,15.5 L2,2 L22,2 L24,2 L26,2 L26,0 L0,0 L0,15.5 C0,15.5 0.1,26.3 13,29.3 C25.9,26.3 26,15.5 26,15.5 L26,6 L24,6 Z" id="路径" fill="#00A4FF" fill-rule="nonzero"></path>
                                <g id="木马" transform="translate(6.000000, 7.000000)" stroke="#00A4FF" stroke-width="2">
                                    <path d="M16,15.7330894 C13.8275186,15.4072913 12.660852,14.162928 12.5,11.9999995 L15,11.9999995 C14.2139636,8.39966718 12.8563053,5.49938068 10.9270249,3.29914005 C8.99774456,1.09889943 6.25073492,-0.000813925632 2.685996,1.50102153e-13 L2.685996,2.18261506 C0.781074734,3.18261798 0.943744164,4.58262206 0.943744164,4.58262206 C1.09960724,5.50241163 0.996352417,6.4463623 0.645072423,7.3130648 C-0.456279625,9.33480983 0.186397962,10.2217689 0.186397962,10.2217689 C0.989967179,12.6243846 2.73221899,11.2695981 2.73221901,11.2695981 C4.88870009,8.36002439 5.6913804,9.670463 5.6913804,9.670463 C6.35539168,10.780901 5.6016011,12.5365583 5.6016011,12.5365583 C4.99233539,14.395156 2.42471334,17.1335608 1,18.4999995" id="路径"></path>
                                </g>
                            </g>
                        </g>
                        <g id="挂马" transform="translate(39.000000, 7.000000)" fill-rule="nonzero">
                            <g id="path-3-link" fill="#000000">
                                <path d="M5.894,2.256 L8.694,2.256 L8.694,0.562 L9.688,0.562 L9.688,2.256 L12.53,2.256 L12.53,3.222 L9.688,3.222 L9.688,5.308 L13.202,5.308 L13.202,6.288 L5.222,6.288 L5.222,5.308 L8.694,5.308 L8.694,3.222 L5.894,3.222 L5.894,2.256 Z M5.74,8.584 L8.666,8.584 L8.666,6.792 L9.674,6.792 L9.674,8.584 L12.642,8.584 L12.642,9.55 L9.674,9.55 L9.674,11.944 L13.37,11.944 L13.37,12.91 L4.858,12.91 L4.858,11.944 L8.666,11.944 L8.666,9.55 L5.74,9.55 L5.74,8.584 Z M2.226,13.246 L1.022,13.246 L0.812,12.294 C1.19,12.336 1.554,12.364 1.89,12.364 C2.226,12.364 2.394,12.182 2.394,11.818 L2.394,8.444 C1.89,8.626 1.4,8.794 0.896,8.962 L0.658,7.968 C1.246,7.828 1.834,7.646 2.394,7.45 L2.394,4.104 L0.784,4.104 L0.784,3.138 L2.394,3.138 L2.394,0.576 L3.402,0.576 L3.402,3.138 L5.04,3.138 L5.04,4.104 L3.402,4.104 L3.402,7.058 C3.906,6.834 4.396,6.582 4.886,6.316 L4.886,7.31 C4.396,7.562 3.906,7.8 3.402,8.024 L3.402,12.07 C3.402,12.854 3.01,13.246 2.226,13.246 Z M15.022,9.326 L23.772,9.326 L23.772,10.306 L15.022,10.306 L15.022,9.326 Z M23.674,2.102 L16.114,2.102 L16.114,1.122 L24.822,1.122 L24.108,6.484 L26.894,6.484 C26.74,9.648 26.488,11.552 26.124,12.196 C25.746,12.826 24.962,13.148 23.786,13.148 C23.31,13.148 22.764,13.134 22.12,13.106 L21.854,12.14 C22.554,12.196 23.198,12.238 23.786,12.238 C24.514,12.238 25.004,12.028 25.256,11.608 C25.508,11.202 25.69,9.816 25.816,7.464 L16.982,7.464 L17.892,2.984 L18.914,3.082 L18.27,6.484 L23.044,6.484 L23.674,2.102 Z" id="path-3"></path>
                            </g>
                            <g id="path-3-link" fill="#444444">
                                <path d="M5.894,2.256 L8.694,2.256 L8.694,0.562 L9.688,0.562 L9.688,2.256 L12.53,2.256 L12.53,3.222 L9.688,3.222 L9.688,5.308 L13.202,5.308 L13.202,6.288 L5.222,6.288 L5.222,5.308 L8.694,5.308 L8.694,3.222 L5.894,3.222 L5.894,2.256 Z M5.74,8.584 L8.666,8.584 L8.666,6.792 L9.674,6.792 L9.674,8.584 L12.642,8.584 L12.642,9.55 L9.674,9.55 L9.674,11.944 L13.37,11.944 L13.37,12.91 L4.858,12.91 L4.858,11.944 L8.666,11.944 L8.666,9.55 L5.74,9.55 L5.74,8.584 Z M2.226,13.246 L1.022,13.246 L0.812,12.294 C1.19,12.336 1.554,12.364 1.89,12.364 C2.226,12.364 2.394,12.182 2.394,11.818 L2.394,8.444 C1.89,8.626 1.4,8.794 0.896,8.962 L0.658,7.968 C1.246,7.828 1.834,7.646 2.394,7.45 L2.394,4.104 L0.784,4.104 L0.784,3.138 L2.394,3.138 L2.394,0.576 L3.402,0.576 L3.402,3.138 L5.04,3.138 L5.04,4.104 L3.402,4.104 L3.402,7.058 C3.906,6.834 4.396,6.582 4.886,6.316 L4.886,7.31 C4.396,7.562 3.906,7.8 3.402,8.024 L3.402,12.07 C3.402,12.854 3.01,13.246 2.226,13.246 Z M15.022,9.326 L23.772,9.326 L23.772,10.306 L15.022,10.306 L15.022,9.326 Z M23.674,2.102 L16.114,2.102 L16.114,1.122 L24.822,1.122 L24.108,6.484 L26.894,6.484 C26.74,9.648 26.488,11.552 26.124,12.196 C25.746,12.826 24.962,13.148 23.786,13.148 C23.31,13.148 22.764,13.134 22.12,13.106 L21.854,12.14 C22.554,12.196 23.198,12.238 23.786,12.238 C24.514,12.238 25.004,12.028 25.256,11.608 C25.508,11.202 25.69,9.816 25.816,7.464 L16.982,7.464 L17.892,2.984 L18.914,3.082 L18.27,6.484 L23.044,6.484 L23.674,2.102 Z" id="path-3"></path>
                            </g>
                        </g>
                    </g>
                </g>
                <g id="ShadowBasicRect4" transform="translate(438.000000, 0.000000)">
                    <rect id="矩形" fill="#BBBBBB" fill-rule="nonzero" opacity="0.6" x="2" y="2" width="114" height="50"></rect>
                    <rect id="矩形" stroke="#E5E5E5" fill="#FFFFFF" fill-rule="nonzero" x="0" y="0" width="114" height="50"></rect>
                    <g id="编组" transform="translate(16.000000, 12.000000)">
                        <polygon id="矩形" stroke="#00A4FF" stroke-width="2" points="6 6 34 6 31 21 9 21"></polygon>
                        <g id="挖矿" transform="translate(46.000000, 6.000000)" fill-rule="nonzero">
                            <g id="path-4-link" fill="#000000">
                                <path d="M0.798,3.138 L2.436,3.138 L2.436,0.576 L3.416,0.576 L3.416,3.138 L4.732,3.138 L4.732,4.104 L3.416,4.104 L3.416,6.848 C3.85,6.638 4.27,6.414 4.69,6.19 L4.69,7.184 C4.27,7.408 3.836,7.632 3.416,7.828 L3.416,11.986 C3.416,12.826 3.024,13.246 2.24,13.246 L1.092,13.246 L0.882,12.294 C1.246,12.336 1.582,12.364 1.904,12.364 C2.254,12.364 2.436,12.154 2.436,11.734 L2.436,8.248 C1.932,8.444 1.414,8.64 0.882,8.808 L0.644,7.814 C1.26,7.66 1.848,7.478 2.436,7.254 L2.436,4.104 L0.798,4.104 L0.798,3.138 Z M9.296,0.478 C9.464,0.898 9.632,1.388 9.8,1.92 L12.908,1.92 L12.908,4.328 L11.97,4.328 L11.97,2.844 L6.3,2.844 L6.3,4.328 L5.348,4.328 L5.348,1.92 L8.82,1.92 C8.652,1.458 8.456,1.038 8.246,0.646 L9.296,0.478 Z M7.868,3.488 L8.722,3.824 C8.12,5 7.336,5.91 6.37,6.554 L5.628,5.91 C6.622,5.308 7.364,4.496 7.868,3.488 Z M10.248,3.376 C11.186,4.384 11.9,5.252 12.404,5.994 L11.62,6.54 C11.102,5.728 10.388,4.832 9.492,3.852 L10.248,3.376 Z M5.796,7.128 L12.278,7.128 L12.278,7.982 C9.52,9.298 7.756,10.348 7,11.132 C6.734,11.412 6.608,11.664 6.608,11.874 C6.608,12.126 6.804,12.266 7.21,12.28 L11.158,12.28 C11.55,12.28 11.816,12.196 11.956,12.028 C12.11,11.86 12.236,11.286 12.348,10.32 L13.3,10.628 C13.132,11.804 12.908,12.518 12.656,12.756 C12.334,13.036 11.844,13.176 11.186,13.19 L7.168,13.19 C6.104,13.176 5.558,12.77 5.544,11.972 C5.544,11.51 5.782,11.048 6.258,10.572 C7.084,9.802 8.498,8.962 10.486,8.066 L5.796,8.066 L5.796,7.128 Z M16.52,2.326 L15.036,2.326 L15.036,1.346 L19.698,1.346 L19.698,2.326 L17.514,2.326 C17.318,3.46 17.052,4.524 16.702,5.504 L19.222,5.504 L19.222,11.916 L16.87,11.916 L16.87,12.938 L15.918,12.938 L15.918,7.296 C15.638,7.8 15.344,8.29 15.036,8.752 L14.49,7.87 C15.526,6.246 16.198,4.398 16.52,2.326 Z M16.87,10.978 L18.298,10.978 L18.298,6.428 L16.87,6.428 L16.87,10.978 Z M23.842,0.534 C24.094,1.108 24.318,1.766 24.542,2.522 L27.244,2.522 L27.244,3.502 L21.574,3.502 L21.574,6.54 C21.518,9.438 20.902,11.762 19.74,13.512 L18.984,12.826 C19.992,11.314 20.524,9.228 20.566,6.54 L20.566,2.522 L23.562,2.522 C23.338,1.85 23.1,1.248 22.82,0.702 L23.842,0.534 Z" id="path-4"></path>
                            </g>
                            <g id="path-4-link" fill="#444444">
                                <path d="M0.798,3.138 L2.436,3.138 L2.436,0.576 L3.416,0.576 L3.416,3.138 L4.732,3.138 L4.732,4.104 L3.416,4.104 L3.416,6.848 C3.85,6.638 4.27,6.414 4.69,6.19 L4.69,7.184 C4.27,7.408 3.836,7.632 3.416,7.828 L3.416,11.986 C3.416,12.826 3.024,13.246 2.24,13.246 L1.092,13.246 L0.882,12.294 C1.246,12.336 1.582,12.364 1.904,12.364 C2.254,12.364 2.436,12.154 2.436,11.734 L2.436,8.248 C1.932,8.444 1.414,8.64 0.882,8.808 L0.644,7.814 C1.26,7.66 1.848,7.478 2.436,7.254 L2.436,4.104 L0.798,4.104 L0.798,3.138 Z M9.296,0.478 C9.464,0.898 9.632,1.388 9.8,1.92 L12.908,1.92 L12.908,4.328 L11.97,4.328 L11.97,2.844 L6.3,2.844 L6.3,4.328 L5.348,4.328 L5.348,1.92 L8.82,1.92 C8.652,1.458 8.456,1.038 8.246,0.646 L9.296,0.478 Z M7.868,3.488 L8.722,3.824 C8.12,5 7.336,5.91 6.37,6.554 L5.628,5.91 C6.622,5.308 7.364,4.496 7.868,3.488 Z M10.248,3.376 C11.186,4.384 11.9,5.252 12.404,5.994 L11.62,6.54 C11.102,5.728 10.388,4.832 9.492,3.852 L10.248,3.376 Z M5.796,7.128 L12.278,7.128 L12.278,7.982 C9.52,9.298 7.756,10.348 7,11.132 C6.734,11.412 6.608,11.664 6.608,11.874 C6.608,12.126 6.804,12.266 7.21,12.28 L11.158,12.28 C11.55,12.28 11.816,12.196 11.956,12.028 C12.11,11.86 12.236,11.286 12.348,10.32 L13.3,10.628 C13.132,11.804 12.908,12.518 12.656,12.756 C12.334,13.036 11.844,13.176 11.186,13.19 L7.168,13.19 C6.104,13.176 5.558,12.77 5.544,11.972 C5.544,11.51 5.782,11.048 6.258,10.572 C7.084,9.802 8.498,8.962 10.486,8.066 L5.796,8.066 L5.796,7.128 Z M16.52,2.326 L15.036,2.326 L15.036,1.346 L19.698,1.346 L19.698,2.326 L17.514,2.326 C17.318,3.46 17.052,4.524 16.702,5.504 L19.222,5.504 L19.222,11.916 L16.87,11.916 L16.87,12.938 L15.918,12.938 L15.918,7.296 C15.638,7.8 15.344,8.29 15.036,8.752 L14.49,7.87 C15.526,6.246 16.198,4.398 16.52,2.326 Z M16.87,10.978 L18.298,10.978 L18.298,6.428 L16.87,6.428 L16.87,10.978 Z M23.842,0.534 C24.094,1.108 24.318,1.766 24.542,2.522 L27.244,2.522 L27.244,3.502 L21.574,3.502 L21.574,6.54 C21.518,9.438 20.902,11.762 19.74,13.512 L18.984,12.826 C19.992,11.314 20.524,9.228 20.566,6.54 L20.566,2.522 L23.562,2.522 C23.338,1.85 23.1,1.248 22.82,0.702 L23.842,0.534 Z" id="path-4"></path>
                            </g>
                        </g>
                        <polyline id="路径-6" stroke="#00A4FF" stroke-width="2" points="7.5 13 5 0.5 0 0.5"></polyline>
                        <circle id="椭圆形" stroke="#00A4FF" stroke-width="2" cx="15" cy="24" r="3"></circle>
                        <circle id="椭圆形复制-4" stroke="#00A4FF" stroke-width="2" cx="25" cy="24" r="3"></circle>
                        <polyline id="路径-7" stroke="#00A4FF" stroke-width="2" points="12 6 17.5 0.5 23 6"></polyline>
                        <polyline id="路径-7复制" stroke="#00A4FF" stroke-width="2" points="22 5 25.5 1.5 30.5 6"></polyline>
                    </g>
                </g>
            </g>
            <polygon id="路径复制-7" fill="#888888" fill-rule="nonzero" points="411 118 415.5 124 420 118"></polygon>
            <polyline id="路径复制-8" stroke="#888888" points="197 55 197 89 637 89 637 55"></polyline>
            <path d="M345.5,55 L345.5,89" id="路径复制-9" stroke="#888888"></path>
            <path d="M488.5,55 L488.5,89" id="路径复制-11" stroke="#888888"></path>
            <path d="M415.5,89 L415.5,118" id="路径复制-10" stroke="#888888"></path>
            <g id="编组-5" transform="translate(260.000000, 159.000000)">
                <g id="ShadowBasicRect5">
                    <rect id="矩形" fill="#BBBBBB" fill-rule="nonzero" opacity="0.6" x="2" y="2" width="138" height="50"></rect>
                    <rect id="矩形" stroke="#E5E5E5" fill="#FFFFFF" fill-rule="nonzero" x="0" y="0" width="138" height="50"></rect>
                    <g id="编组" transform="translate(21.000000, 13.000000)">
                        <g id="1521199008649-32" fill="#00A4FF" fill-rule="nonzero">
                            <path d="M30,18 L30,0 L0,0 L0,24 L30,24 L30,22 L2,22 L2,7 L28,7 L28,18 L30,18 Z M2,5 L2,2 L28,2 L28,5 L2,5 Z" id="形状"></path>
                        </g>
                        <g id="实时监测" transform="translate(41.000000, 5.000000)" fill-rule="nonzero">
                            <g id="path-5-link" fill="#000000">
                                <path d="M7.07,10.6 C5.936,11.804 4.088,12.742 1.526,13.414 L0.966,12.56 C3.57,11.888 5.39,10.978 6.426,9.858 C6.594,9.662 6.734,9.452 6.874,9.228 L1.092,9.228 L1.092,8.276 L7.364,8.276 C7.728,7.408 7.924,6.414 7.966,5.308 L7.966,3.656 L8.946,3.656 L8.946,5.308 C8.904,6.414 8.736,7.408 8.428,8.276 L12.922,8.276 L12.922,9.228 L8.008,9.228 C7.882,9.452 7.756,9.662 7.63,9.858 C9.618,10.642 11.452,11.552 13.104,12.616 L12.558,13.484 C10.766,12.28 8.946,11.328 7.07,10.6 Z M2.954,5.574 C3.976,6.008 4.914,6.526 5.754,7.114 L5.236,7.912 C4.34,7.24 3.402,6.708 2.45,6.33 L2.954,5.574 Z M4.214,3.572 C5.264,4.006 6.23,4.538 7.098,5.168 L6.58,5.966 C5.642,5.266 4.676,4.72 3.696,4.328 L4.214,3.572 Z M12.684,1.934 L12.684,4.622 L11.704,4.622 L11.704,2.872 L2.268,2.872 L2.268,4.622 L1.288,4.622 L1.288,1.934 L6.608,1.934 C6.44,1.458 6.244,1.038 6.034,0.646 L7.07,0.478 C7.252,0.898 7.434,1.388 7.616,1.934 L12.684,1.934 Z M19.18,1.612 L19.18,11.93 L18.2,11.93 L18.2,10.992 L16.128,10.992 L16.128,12.266 L15.148,12.266 L15.148,1.612 L19.18,1.612 Z M16.128,10.054 L18.2,10.054 L18.2,6.68 L16.128,6.68 L16.128,10.054 Z M16.128,5.742 L18.2,5.742 L18.2,2.536 L16.128,2.536 L16.128,5.742 Z M21.196,5.784 C22.064,7.1 22.736,8.248 23.198,9.228 L22.358,9.816 C21.868,8.766 21.21,7.59 20.37,6.302 L21.196,5.784 Z M24.388,13.26 L21.938,13.26 L21.728,12.28 C22.54,12.308 23.31,12.336 24.052,12.336 C24.458,12.336 24.668,12.112 24.668,11.678 L24.668,4.104 L19.824,4.104 L19.824,3.138 L24.668,3.138 L24.668,0.674 L25.69,0.674 L25.69,3.138 L27.412,3.138 L27.412,4.104 L25.69,4.104 L25.69,11.93 C25.69,12.812 25.256,13.26 24.388,13.26 Z M36.456,3.208 C36.008,4.328 35.448,5.28 34.762,6.036 L34.118,5.252 C35.112,4.062 35.784,2.466 36.134,0.45 L37.17,0.646 C37.058,1.206 36.932,1.724 36.792,2.228 L40.964,2.228 L40.964,3.208 L36.456,3.208 Z M37.926,4.16 C38.682,5.112 39.256,5.938 39.648,6.652 L38.808,7.226 C38.388,6.456 37.828,5.602 37.114,4.664 L37.926,4.16 Z M32.508,0.52 L33.53,0.52 L33.53,7.436 L32.508,7.436 L32.508,0.52 Z M29.61,1.206 L30.604,1.206 L30.604,6.918 L29.61,6.918 L29.61,1.206 Z M39.816,8.136 L39.816,12.028 L41.314,12.028 L41.314,12.938 L28.644,12.938 L28.644,12.028 L30.212,12.028 L30.212,8.136 L39.816,8.136 Z M31.178,12.028 L33.04,12.028 L33.04,9.06 L31.178,9.06 L31.178,12.028 Z M34.006,12.028 L35.966,12.028 L35.966,9.06 L34.006,9.06 L34.006,12.028 Z M36.932,12.028 L38.85,12.028 L38.85,9.06 L36.932,9.06 L36.932,12.028 Z M43.512,0.856 C44.296,1.472 44.954,2.102 45.486,2.718 L44.828,3.39 C44.352,2.802 43.68,2.172 42.826,1.514 L43.512,0.856 Z M43.288,4.3 C44.044,4.972 44.688,5.63 45.206,6.302 L44.548,6.96 C44.072,6.33 43.428,5.658 42.602,4.944 L43.288,4.3 Z M44.52,8.066 L45.374,8.402 C44.842,10.11 44.24,11.72 43.596,13.232 L42.672,12.84 C43.372,11.286 43.988,9.69 44.52,8.066 Z M50.736,1.248 L50.736,9.788 L49.84,9.788 L49.84,2.116 L46.942,2.116 L46.942,9.872 L46.046,9.872 L46.046,1.248 L50.736,1.248 Z M49.238,10.446 C50.092,11.202 50.806,11.972 51.38,12.728 L50.708,13.4 C50.204,12.658 49.518,11.874 48.622,11.034 L49.238,10.446 Z M47.978,3.082 L48.818,3.082 L48.818,7.52 C48.79,9.116 48.538,10.39 48.062,11.342 C47.6,12.21 46.844,12.91 45.808,13.414 L45.276,12.574 C46.284,12.098 46.984,11.468 47.376,10.684 C47.74,9.872 47.95,8.822 47.978,7.52 L47.978,3.082 Z M53.76,13.288 L52.22,13.288 L52.01,12.35 C52.5,12.392 52.976,12.42 53.424,12.42 C53.746,12.42 53.914,12.224 53.914,11.86 L53.914,0.646 L54.866,0.646 L54.866,12.098 C54.866,12.882 54.488,13.288 53.76,13.288 Z M51.842,1.794 L52.724,1.794 L52.724,10.53 L51.842,10.53 L51.842,1.794 Z" id="path-5"></path>
                            </g>
                            <g id="path-5-link" fill="#444444">
                                <path d="M7.07,10.6 C5.936,11.804 4.088,12.742 1.526,13.414 L0.966,12.56 C3.57,11.888 5.39,10.978 6.426,9.858 C6.594,9.662 6.734,9.452 6.874,9.228 L1.092,9.228 L1.092,8.276 L7.364,8.276 C7.728,7.408 7.924,6.414 7.966,5.308 L7.966,3.656 L8.946,3.656 L8.946,5.308 C8.904,6.414 8.736,7.408 8.428,8.276 L12.922,8.276 L12.922,9.228 L8.008,9.228 C7.882,9.452 7.756,9.662 7.63,9.858 C9.618,10.642 11.452,11.552 13.104,12.616 L12.558,13.484 C10.766,12.28 8.946,11.328 7.07,10.6 Z M2.954,5.574 C3.976,6.008 4.914,6.526 5.754,7.114 L5.236,7.912 C4.34,7.24 3.402,6.708 2.45,6.33 L2.954,5.574 Z M4.214,3.572 C5.264,4.006 6.23,4.538 7.098,5.168 L6.58,5.966 C5.642,5.266 4.676,4.72 3.696,4.328 L4.214,3.572 Z M12.684,1.934 L12.684,4.622 L11.704,4.622 L11.704,2.872 L2.268,2.872 L2.268,4.622 L1.288,4.622 L1.288,1.934 L6.608,1.934 C6.44,1.458 6.244,1.038 6.034,0.646 L7.07,0.478 C7.252,0.898 7.434,1.388 7.616,1.934 L12.684,1.934 Z M19.18,1.612 L19.18,11.93 L18.2,11.93 L18.2,10.992 L16.128,10.992 L16.128,12.266 L15.148,12.266 L15.148,1.612 L19.18,1.612 Z M16.128,10.054 L18.2,10.054 L18.2,6.68 L16.128,6.68 L16.128,10.054 Z M16.128,5.742 L18.2,5.742 L18.2,2.536 L16.128,2.536 L16.128,5.742 Z M21.196,5.784 C22.064,7.1 22.736,8.248 23.198,9.228 L22.358,9.816 C21.868,8.766 21.21,7.59 20.37,6.302 L21.196,5.784 Z M24.388,13.26 L21.938,13.26 L21.728,12.28 C22.54,12.308 23.31,12.336 24.052,12.336 C24.458,12.336 24.668,12.112 24.668,11.678 L24.668,4.104 L19.824,4.104 L19.824,3.138 L24.668,3.138 L24.668,0.674 L25.69,0.674 L25.69,3.138 L27.412,3.138 L27.412,4.104 L25.69,4.104 L25.69,11.93 C25.69,12.812 25.256,13.26 24.388,13.26 Z M36.456,3.208 C36.008,4.328 35.448,5.28 34.762,6.036 L34.118,5.252 C35.112,4.062 35.784,2.466 36.134,0.45 L37.17,0.646 C37.058,1.206 36.932,1.724 36.792,2.228 L40.964,2.228 L40.964,3.208 L36.456,3.208 Z M37.926,4.16 C38.682,5.112 39.256,5.938 39.648,6.652 L38.808,7.226 C38.388,6.456 37.828,5.602 37.114,4.664 L37.926,4.16 Z M32.508,0.52 L33.53,0.52 L33.53,7.436 L32.508,7.436 L32.508,0.52 Z M29.61,1.206 L30.604,1.206 L30.604,6.918 L29.61,6.918 L29.61,1.206 Z M39.816,8.136 L39.816,12.028 L41.314,12.028 L41.314,12.938 L28.644,12.938 L28.644,12.028 L30.212,12.028 L30.212,8.136 L39.816,8.136 Z M31.178,12.028 L33.04,12.028 L33.04,9.06 L31.178,9.06 L31.178,12.028 Z M34.006,12.028 L35.966,12.028 L35.966,9.06 L34.006,9.06 L34.006,12.028 Z M36.932,12.028 L38.85,12.028 L38.85,9.06 L36.932,9.06 L36.932,12.028 Z M43.512,0.856 C44.296,1.472 44.954,2.102 45.486,2.718 L44.828,3.39 C44.352,2.802 43.68,2.172 42.826,1.514 L43.512,0.856 Z M43.288,4.3 C44.044,4.972 44.688,5.63 45.206,6.302 L44.548,6.96 C44.072,6.33 43.428,5.658 42.602,4.944 L43.288,4.3 Z M44.52,8.066 L45.374,8.402 C44.842,10.11 44.24,11.72 43.596,13.232 L42.672,12.84 C43.372,11.286 43.988,9.69 44.52,8.066 Z M50.736,1.248 L50.736,9.788 L49.84,9.788 L49.84,2.116 L46.942,2.116 L46.942,9.872 L46.046,9.872 L46.046,1.248 L50.736,1.248 Z M49.238,10.446 C50.092,11.202 50.806,11.972 51.38,12.728 L50.708,13.4 C50.204,12.658 49.518,11.874 48.622,11.034 L49.238,10.446 Z M47.978,3.082 L48.818,3.082 L48.818,7.52 C48.79,9.116 48.538,10.39 48.062,11.342 C47.6,12.21 46.844,12.91 45.808,13.414 L45.276,12.574 C46.284,12.098 46.984,11.468 47.376,10.684 C47.74,9.872 47.95,8.822 47.978,7.52 L47.978,3.082 Z M53.76,13.288 L52.22,13.288 L52.01,12.35 C52.5,12.392 52.976,12.42 53.424,12.42 C53.746,12.42 53.914,12.224 53.914,11.86 L53.914,0.646 L54.866,0.646 L54.866,12.098 C54.866,12.882 54.488,13.288 53.76,13.288 Z M51.842,1.794 L52.724,1.794 L52.724,10.53 L51.842,10.53 L51.842,1.794 Z" id="path-5"></path>
                            </g>
                        </g>
                        <polyline id="路径-8" stroke="#00A4FF" stroke-width="2" points="4.5 17 8.5 13 12.5 16.5 16.5 12 21 16 25.5 9.5"></polyline>
                    </g>
                </g>
                <g id="ShadowBasicRect6" transform="translate(170.000000, 0.000000)">
                    <rect id="矩形" fill="#BBBBBB" fill-rule="nonzero" opacity="0.6" x="2" y="2" width="138" height="50"></rect>
                    <rect id="矩形" stroke="#E5E5E5" fill="#FFFFFF" fill-rule="nonzero" x="0" y="0" width="138" height="50"></rect>
                    <g id="编组" transform="translate(23.000000, 12.000000)">
                        <g id="图标">
                            <path d="M13,0 L13,0 C19.627417,0 25,5.372583 25,12 L25,22 L1,22 L1,12 C1,5.372583 6.372583,0 13,0 Z" id="矩形" stroke="#00A4FF" stroke-width="2"></path>
                            <rect id="矩形" fill="#00A4FF" fill-rule="nonzero" x="0" y="26" width="26" height="2"></rect>
                            <polyline id="路径-2" stroke="#00A4FF" stroke-width="2" points="13.5 5.5 10 11 15.5 11 12 17"></polyline>
                        </g>
                        <g id="告警通知" transform="translate(39.000000, 6.000000)" fill-rule="nonzero">
                            <g id="path-6-link" fill="#000000">
                                <path d="M11.606,8.234 L11.606,13.386 L10.584,13.386 L10.584,12.644 L3.5,12.644 L3.5,13.386 L2.478,13.386 L2.478,8.234 L11.606,8.234 Z M3.5,11.692 L10.584,11.692 L10.584,9.2 L3.5,9.2 L3.5,11.692 Z M3.318,3.502 C2.842,4.146 2.282,4.748 1.624,5.294 L1.022,4.496 C2.282,3.488 3.15,2.242 3.598,0.772 L4.606,0.884 C4.424,1.472 4.2,2.018 3.92,2.536 L6.664,2.536 L6.664,0.548 L7.686,0.548 L7.686,2.536 L12.264,2.536 L12.264,3.502 L7.686,3.502 L7.686,5.77 L13.328,5.77 L13.328,6.764 L0.672,6.764 L0.672,5.77 L6.664,5.77 L6.664,3.502 L3.318,3.502 Z M15.022,1.15 L16.716,1.15 L16.716,0.52 L17.556,0.52 L17.556,1.15 L19.082,1.15 L19.082,0.52 L19.922,0.52 L19.922,1.15 L21.602,1.15 L21.602,1.892 L19.922,1.892 L19.922,2.522 L19.082,2.522 L19.082,1.892 L17.556,1.892 L17.556,2.522 L16.828,2.522 C16.8,2.634 16.758,2.746 16.716,2.858 L21.154,2.858 C21.154,4.482 21.042,5.476 20.846,5.84 C20.79,5.938 20.72,6.022 20.65,6.078 L21.196,5.994 C21.336,6.26 21.462,6.554 21.602,6.89 L27.048,6.89 L27.048,7.632 L14.966,7.632 L14.966,6.89 L20.65,6.89 C20.538,6.652 20.412,6.442 20.3,6.274 C20.118,6.33 19.922,6.372 19.698,6.386 L19.124,6.386 L19.012,6.008 L16.184,6.008 L16.184,4.09 L19.166,4.09 L19.166,5.728 L19.516,5.728 C19.824,5.7 20.02,5.574 20.104,5.322 C20.174,5.07 20.216,4.468 20.23,3.544 L16.436,3.544 C16.128,4.16 15.722,4.678 15.218,5.098 L14.672,4.426 C15.33,3.894 15.778,3.18 16.016,2.284 L16.716,2.396 L16.716,1.892 L15.022,1.892 L15.022,1.15 Z M18.396,5.448 L18.396,4.636 L16.94,4.636 L16.94,5.448 L18.396,5.448 Z M22.596,3.334 C22.344,3.684 22.05,4.006 21.742,4.286 L21.182,3.586 C22.008,2.802 22.568,1.752 22.862,0.436 L23.786,0.604 C23.716,0.884 23.646,1.136 23.562,1.388 L26.894,1.388 L26.894,2.228 L26.11,2.228 C25.9,3.208 25.508,4.006 24.948,4.636 C25.578,5.014 26.334,5.336 27.202,5.602 L26.74,6.414 C25.76,6.092 24.934,5.7 24.29,5.252 C23.604,5.756 22.778,6.134 21.812,6.358 L21.434,5.546 C22.302,5.35 23.016,5.07 23.59,4.678 C23.142,4.258 22.82,3.81 22.596,3.334 Z M23.226,2.228 C23.17,2.326 23.128,2.41 23.1,2.494 C23.296,3.11 23.674,3.656 24.234,4.132 C24.724,3.6 25.06,2.956 25.228,2.228 L23.226,2.228 Z M16.674,8.29 L25.452,8.29 L25.452,8.906 L16.674,8.906 L16.674,8.29 Z M16.674,9.55 L25.452,9.55 L25.452,10.166 L16.674,10.166 L16.674,9.55 Z M25.9,10.852 L25.9,13.512 L24.92,13.512 L24.92,13.092 L17.234,13.092 L17.234,13.512 L16.254,13.512 L16.254,10.852 L25.9,10.852 Z M17.234,12.406 L24.92,12.406 L24.92,11.524 L17.234,11.524 L17.234,12.406 Z M29.764,0.786 C30.73,1.514 31.542,2.242 32.2,2.97 L31.486,3.67 C30.898,2.97 30.1,2.228 29.078,1.444 L29.764,0.786 Z M37.954,13.148 C37.184,13.148 36.344,13.134 35.448,13.12 C34.538,13.106 33.796,13.022 33.236,12.868 C32.676,12.7 32.172,12.35 31.738,11.846 C31.542,11.608 31.36,11.496 31.192,11.496 C30.856,11.496 30.296,12.14 29.526,13.428 L28.77,12.742 C29.512,11.566 30.17,10.852 30.744,10.6 L30.744,6.344 L28.756,6.344 L28.756,5.42 L31.682,5.42 L31.682,10.656 C31.794,10.74 31.906,10.838 32.032,10.978 C32.368,11.384 32.732,11.678 33.124,11.86 C33.572,12.056 34.202,12.168 35.042,12.196 C35.784,12.21 36.708,12.224 37.814,12.224 C38.458,12.224 39.13,12.21 39.816,12.196 C40.488,12.182 41.006,12.168 41.37,12.14 L41.132,13.148 L37.954,13.148 Z M35.448,2.13 C36.036,2.48 36.582,2.83 37.058,3.18 C37.786,2.802 38.458,2.382 39.074,1.906 L32.858,1.906 L32.858,1.052 L40.432,1.052 L40.432,1.78 C39.592,2.508 38.682,3.138 37.702,3.67 L37.926,3.852 L40.698,3.852 L40.698,10.11 C40.698,10.824 40.306,11.188 39.522,11.188 L38.36,11.188 L38.136,10.334 L39.242,10.376 C39.578,10.376 39.746,10.208 39.746,9.9 L39.746,8.85 L37.394,8.85 L37.394,11.258 L36.456,11.258 L36.456,8.85 L34.118,8.85 L34.118,11.3 L33.166,11.3 L33.166,3.852 L36.666,3.852 C36.134,3.474 35.518,3.096 34.832,2.732 L35.448,2.13 Z M34.118,6.792 L34.118,8.024 L36.456,8.024 L36.456,6.792 L34.118,6.792 Z M37.394,6.792 L37.394,8.024 L39.746,8.024 L39.746,6.792 L37.394,6.792 Z M39.746,5.952 L39.746,4.692 L37.394,4.692 L37.394,5.952 L39.746,5.952 Z M36.456,5.952 L36.456,4.692 L34.118,4.692 L34.118,5.952 L36.456,5.952 Z M54.74,2.046 L54.74,12.756 L53.76,12.756 L53.76,11.86 L51.016,11.86 L51.016,12.784 L50.05,12.784 L50.05,2.046 L54.74,2.046 Z M51.016,10.922 L53.76,10.922 L53.76,2.984 L51.016,2.984 L51.016,10.922 Z M44.758,3.404 C44.408,4.16 44.016,4.86 43.582,5.504 L42.7,4.944 C43.624,3.6 44.282,2.13 44.702,0.52 L45.696,0.73 C45.528,1.332 45.346,1.906 45.15,2.438 L49.196,2.438 L49.196,3.404 L47.152,3.404 C47.138,4.412 47.082,5.35 46.984,6.19 L49.322,6.19 L49.322,7.156 L46.844,7.156 C46.774,7.52 46.704,7.884 46.62,8.22 C47.516,9.13 48.44,10.166 49.364,11.314 L48.762,12.238 C47.81,10.894 47.012,9.872 46.354,9.144 C45.78,10.712 44.758,12.028 43.274,13.092 L42.616,12.28 C44.1,11.202 45.08,9.844 45.556,8.206 C45.64,7.87 45.724,7.52 45.794,7.156 L42.868,7.156 L42.868,6.19 L45.934,6.19 C46.046,5.35 46.102,4.412 46.116,3.404 L44.758,3.404 Z" id="path-6"></path>
                            </g>
                            <g id="path-6-link" fill="#444444">
                                <path d="M11.606,8.234 L11.606,13.386 L10.584,13.386 L10.584,12.644 L3.5,12.644 L3.5,13.386 L2.478,13.386 L2.478,8.234 L11.606,8.234 Z M3.5,11.692 L10.584,11.692 L10.584,9.2 L3.5,9.2 L3.5,11.692 Z M3.318,3.502 C2.842,4.146 2.282,4.748 1.624,5.294 L1.022,4.496 C2.282,3.488 3.15,2.242 3.598,0.772 L4.606,0.884 C4.424,1.472 4.2,2.018 3.92,2.536 L6.664,2.536 L6.664,0.548 L7.686,0.548 L7.686,2.536 L12.264,2.536 L12.264,3.502 L7.686,3.502 L7.686,5.77 L13.328,5.77 L13.328,6.764 L0.672,6.764 L0.672,5.77 L6.664,5.77 L6.664,3.502 L3.318,3.502 Z M15.022,1.15 L16.716,1.15 L16.716,0.52 L17.556,0.52 L17.556,1.15 L19.082,1.15 L19.082,0.52 L19.922,0.52 L19.922,1.15 L21.602,1.15 L21.602,1.892 L19.922,1.892 L19.922,2.522 L19.082,2.522 L19.082,1.892 L17.556,1.892 L17.556,2.522 L16.828,2.522 C16.8,2.634 16.758,2.746 16.716,2.858 L21.154,2.858 C21.154,4.482 21.042,5.476 20.846,5.84 C20.79,5.938 20.72,6.022 20.65,6.078 L21.196,5.994 C21.336,6.26 21.462,6.554 21.602,6.89 L27.048,6.89 L27.048,7.632 L14.966,7.632 L14.966,6.89 L20.65,6.89 C20.538,6.652 20.412,6.442 20.3,6.274 C20.118,6.33 19.922,6.372 19.698,6.386 L19.124,6.386 L19.012,6.008 L16.184,6.008 L16.184,4.09 L19.166,4.09 L19.166,5.728 L19.516,5.728 C19.824,5.7 20.02,5.574 20.104,5.322 C20.174,5.07 20.216,4.468 20.23,3.544 L16.436,3.544 C16.128,4.16 15.722,4.678 15.218,5.098 L14.672,4.426 C15.33,3.894 15.778,3.18 16.016,2.284 L16.716,2.396 L16.716,1.892 L15.022,1.892 L15.022,1.15 Z M18.396,5.448 L18.396,4.636 L16.94,4.636 L16.94,5.448 L18.396,5.448 Z M22.596,3.334 C22.344,3.684 22.05,4.006 21.742,4.286 L21.182,3.586 C22.008,2.802 22.568,1.752 22.862,0.436 L23.786,0.604 C23.716,0.884 23.646,1.136 23.562,1.388 L26.894,1.388 L26.894,2.228 L26.11,2.228 C25.9,3.208 25.508,4.006 24.948,4.636 C25.578,5.014 26.334,5.336 27.202,5.602 L26.74,6.414 C25.76,6.092 24.934,5.7 24.29,5.252 C23.604,5.756 22.778,6.134 21.812,6.358 L21.434,5.546 C22.302,5.35 23.016,5.07 23.59,4.678 C23.142,4.258 22.82,3.81 22.596,3.334 Z M23.226,2.228 C23.17,2.326 23.128,2.41 23.1,2.494 C23.296,3.11 23.674,3.656 24.234,4.132 C24.724,3.6 25.06,2.956 25.228,2.228 L23.226,2.228 Z M16.674,8.29 L25.452,8.29 L25.452,8.906 L16.674,8.906 L16.674,8.29 Z M16.674,9.55 L25.452,9.55 L25.452,10.166 L16.674,10.166 L16.674,9.55 Z M25.9,10.852 L25.9,13.512 L24.92,13.512 L24.92,13.092 L17.234,13.092 L17.234,13.512 L16.254,13.512 L16.254,10.852 L25.9,10.852 Z M17.234,12.406 L24.92,12.406 L24.92,11.524 L17.234,11.524 L17.234,12.406 Z M29.764,0.786 C30.73,1.514 31.542,2.242 32.2,2.97 L31.486,3.67 C30.898,2.97 30.1,2.228 29.078,1.444 L29.764,0.786 Z M37.954,13.148 C37.184,13.148 36.344,13.134 35.448,13.12 C34.538,13.106 33.796,13.022 33.236,12.868 C32.676,12.7 32.172,12.35 31.738,11.846 C31.542,11.608 31.36,11.496 31.192,11.496 C30.856,11.496 30.296,12.14 29.526,13.428 L28.77,12.742 C29.512,11.566 30.17,10.852 30.744,10.6 L30.744,6.344 L28.756,6.344 L28.756,5.42 L31.682,5.42 L31.682,10.656 C31.794,10.74 31.906,10.838 32.032,10.978 C32.368,11.384 32.732,11.678 33.124,11.86 C33.572,12.056 34.202,12.168 35.042,12.196 C35.784,12.21 36.708,12.224 37.814,12.224 C38.458,12.224 39.13,12.21 39.816,12.196 C40.488,12.182 41.006,12.168 41.37,12.14 L41.132,13.148 L37.954,13.148 Z M35.448,2.13 C36.036,2.48 36.582,2.83 37.058,3.18 C37.786,2.802 38.458,2.382 39.074,1.906 L32.858,1.906 L32.858,1.052 L40.432,1.052 L40.432,1.78 C39.592,2.508 38.682,3.138 37.702,3.67 L37.926,3.852 L40.698,3.852 L40.698,10.11 C40.698,10.824 40.306,11.188 39.522,11.188 L38.36,11.188 L38.136,10.334 L39.242,10.376 C39.578,10.376 39.746,10.208 39.746,9.9 L39.746,8.85 L37.394,8.85 L37.394,11.258 L36.456,11.258 L36.456,8.85 L34.118,8.85 L34.118,11.3 L33.166,11.3 L33.166,3.852 L36.666,3.852 C36.134,3.474 35.518,3.096 34.832,2.732 L35.448,2.13 Z M34.118,6.792 L34.118,8.024 L36.456,8.024 L36.456,6.792 L34.118,6.792 Z M37.394,6.792 L37.394,8.024 L39.746,8.024 L39.746,6.792 L37.394,6.792 Z M39.746,5.952 L39.746,4.692 L37.394,4.692 L37.394,5.952 L39.746,5.952 Z M36.456,5.952 L36.456,4.692 L34.118,4.692 L34.118,5.952 L36.456,5.952 Z M54.74,2.046 L54.74,12.756 L53.76,12.756 L53.76,11.86 L51.016,11.86 L51.016,12.784 L50.05,12.784 L50.05,2.046 L54.74,2.046 Z M51.016,10.922 L53.76,10.922 L53.76,2.984 L51.016,2.984 L51.016,10.922 Z M44.758,3.404 C44.408,4.16 44.016,4.86 43.582,5.504 L42.7,4.944 C43.624,3.6 44.282,2.13 44.702,0.52 L45.696,0.73 C45.528,1.332 45.346,1.906 45.15,2.438 L49.196,2.438 L49.196,3.404 L47.152,3.404 C47.138,4.412 47.082,5.35 46.984,6.19 L49.322,6.19 L49.322,7.156 L46.844,7.156 C46.774,7.52 46.704,7.884 46.62,8.22 C47.516,9.13 48.44,10.166 49.364,11.314 L48.762,12.238 C47.81,10.894 47.012,9.872 46.354,9.144 C45.78,10.712 44.758,12.028 43.274,13.092 L42.616,12.28 C44.1,11.202 45.08,9.844 45.556,8.206 C45.64,7.87 45.724,7.52 45.794,7.156 L42.868,7.156 L42.868,6.19 L45.934,6.19 C46.046,5.35 46.102,4.412 46.116,3.404 L44.758,3.404 Z" id="path-6"></path>
                            </g>
                        </g>
                    </g>
                </g>
            </g>
        </g>
    </g>
</svg>