<?xml version="1.0" encoding="UTF-8"?>
<svg width="32px" height="32px" viewBox="0 0 32 32" version="1.1" xmlns="http://www.w3.org/2000/svg" xmlns:xlink="http://www.w3.org/1999/xlink">
    <!-- Generator: Sketch 52.6 (67491) - http://www.bohemiancoding.com/sketch -->
    <title>大数据可视交互系统-32px</title>
    <desc>Created with Sketch.</desc>
    <g id="大数据可视交互系统-32px" stroke="none" stroke-width="1" fill="none" fill-rule="evenodd">
        <rect id="Rectangle-Copy" fill="#444444" opacity="0" x="0" y="0" width="32" height="32"></rect>
        <path d="M21.976,16.541 L24,16.086 C23.954,20.465 20.39,24 16,24 C11.582,24 8,20.418 8,16 C8,12.64 10.072,9.764 13.007,8.579 L13.006,10.8 C11.209,11.836 10,13.777 10,16 C10,19.313 12.687,22 16,22 C19.131,22 21.703,19.602 21.976,16.541 Z M16.0004,8 C20.0544,8 23.4024,11.014 23.9284,14.924 L14.9924,16.969 L14.9984,8.062 C15.3264,8.021 15.6614,8 16.0004,8 Z M16.9974,10.083 L16.9944,14.459 L21.4304,13.444 C20.6004,11.689 18.9434,10.413 16.9974,10.083 Z" id="Combined-Shape" fill="#00A4FF"></path>
        <path d="M29,29 C28.2897779,28.9957131 27.6351046,28.6150891 27.28,28 L2,28 L2,11 L4,11 L4,26 L27.28,26 C27.7660656,25.1581503 28.7870648,24.7877158 29.6998631,25.1220358 C30.6126615,25.4563558 31.1528813,26.3985996 30.9802345,27.3552416 C30.8075876,28.3118835 29.9720785,29.0058471 29,29 Z M28,6 L4.72,6 C4.26739432,6.78393603 3.34467813,7.16613759 2.4703111,6.93185165 C1.59594407,6.69756571 0.987949192,5.90521136 0.987949192,5 C0.987949192,4.09478864 1.59594407,3.30243429 2.4703111,3.06814835 C3.34467813,2.83386241 4.26739432,3.21606397 4.72,4 L30,4 L30,21 L28,21 L28,6 Z" id="_复合路径_" fill="#00A4FF"></path>
    </g>
</svg>