<?xml version="1.0" encoding="UTF-8"?>
<svg width="32px" height="32px" viewBox="0 0 32 32" version="1.1" xmlns="http://www.w3.org/2000/svg" xmlns:xlink="http://www.w3.org/1999/xlink">
    <!-- Generator: Sketch 55.2 (78181) - https://sketchapp.com -->
    <title>通用文字识别-32px备份</title>
    <desc>Created with Sketch.</desc>
    <g id="通用文字识别-32px备份" stroke="none" stroke-width="1" fill="none" fill-rule="evenodd">
        <rect id="Rectangle-Copy" fill="#444444" opacity="0" x="0" y="0" width="32" height="32"></rect>
        <path d="M27.2675644,26 C27.6133738,25.4021986 28.2597176,25 29,25 C30.1045695,25 31,25.8954305 31,27 C31,28.1045695 30.1045695,29 29,29 C28.2597176,29 27.6133738,28.5978014 27.2675644,28 L2,28 L2,26 L2,11 L4,11 L4,26 L27.2675644,26 Z M4.73243561,4 L30,4 L30,6 L30,21 L28,21 L28,6 L4.73243561,6 C4.38662619,6.59780137 3.74028236,7 3,7 C1.8954305,7 1,6.1045695 1,5 C1,3.8954305 1.8954305,3 3,3 C3.74028236,3 4.38662619,3.40219863 4.73243561,4 Z M25.0118075,15.4111756 L20.1748435,15.4111756 L20.1748435,14.3914116 L18.7174153,14.3909109 L18.6903675,19.692701 L20.1748435,19.692701 L20.1895327,24.6031256 L12.1910001,24.6031256 L12.1763109,19.692701 L13.5937083,19.692701 L13.5937083,14.3891505 L12.1763109,14.3886636 L12.1763109,15.3364951 L7.34891216,15.3772193 L7.34891216,13.4236101 L7.36962067,8 L24.9758401,8 L25.0063874,13.4296784 L25.0118075,15.4111756 Z M22.9870604,10 L9.36314661,10 L9.35225172,13.3602479 L10.1763109,13.3532961 L10.1763109,12.3879763 L15.5937083,12.3898375 L15.5937083,21.692701 L14.1823027,21.692701 L14.1850262,22.6031256 L18.1835409,22.6031256 L18.1808174,21.692701 L16.6801382,21.692701 L16.727596,12.3902271 L22.1748435,12.3920986 L22.1748435,13.4111756 L23.0062517,13.4111756 L22.9870604,10 Z" id="形状结合备份" fill="#7C848E"></path>
    </g>
</svg>