<?xml version="1.0" encoding="UTF-8"?>
<svg width="32px" height="32px" viewBox="0 0 32 32" version="1.1" xmlns="http://www.w3.org/2000/svg" xmlns:xlink="http://www.w3.org/1999/xlink">
    <!-- Generator: Sketch 52.6 (67491) - http://www.bohemiancoding.com/sketch -->
    <title>知识图谱-32px</title>
    <desc>Created with Sketch.</desc>
    <g id="知识图谱-32px" stroke="none" stroke-width="1" fill="none" fill-rule="evenodd">
        <rect id="Rectangle-Copy" fill="#444444" opacity="0" x="0" y="0" width="32" height="32"></rect>
        <g id="Group" transform="translate(3.000000, 2.000000)">
            <path d="M24,6 L24,15.2 C24,15.2 24,17.5 22.6,20 C20.8,23.4 17.5,25.7 13,26.9 C2.3,24.3 2,15.6 2,15.2 L2,2 L22,2 L24,2 L26,2 L26,0 L0,0 L0,15.2 C0,15.2 0.1,26 13,29 C25.9,26 26,15.2 26,15.2 L26,6 L24,6 Z" id="Shape" fill="#7C848E" fill-rule="nonzero"></path>
            <g id="Group-17" transform="translate(4.000000, 5.000000)">
                <polygon id="Rectangle-path-Copy-4" fill="#7C848E" fill-rule="nonzero" points="8 3 10 3 10 15 8 15"></polygon>
                <path d="M9,2.43392854 L2.39529003,9.22153679 L9,16.009145 L15.60471,9.22153679 L9,2.43392854 Z" id="Rectangle-95" stroke="#7C848E" stroke-width="2"></path>
                <circle id="Oval-35" fill="#7C848E" cx="9" cy="2" r="2"></circle>
                <circle id="Oval-35-Copy" fill="#7C848E" cx="9" cy="16" r="2"></circle>
                <circle id="Oval-35-Copy-2" fill="#7C848E" cx="16" cy="9" r="2"></circle>
                <circle id="Oval-35-Copy-3" fill="#7C848E" cx="2" cy="9" r="2"></circle>
            </g>
        </g>
    </g>
</svg>