<?xml version="1.0" encoding="utf-8"?>
<!-- Generator: Adobe Illustrator 21.0.0, SVG Export Plug-In . SVG Version: 6.00 Build 0)  -->
<svg version="1.1" id="图层_1" xmlns="http://www.w3.org/2000/svg" xmlns:xlink="http://www.w3.org/1999/xlink" x="0px" y="0px"
	 width="32px" height="32px" viewBox="0 0 32 32" style="enable-background:new 0 0 32 32;" xml:space="preserve">
<style type="text/css">
	.st0{fill:#00A4FF;}
</style>
<path class="st0" d="M29.028,4V2h-26v15.225c0,0,0.099,10.801,13,13.775c12.901-2.974,13-13.775,13-13.775V8h-2v9.217
	c0,0.022-0.047,2.281-1.404,4.846c-1.812,3.428-5.075,5.741-9.596,6.88c-10.68-2.696-11-11.365-11-11.718V4H29.028z"/>
<rect x="7.028" y="10" class="st0" width="6" height="2"/>
<rect x="9.028" y="10" class="st0" width="2" height="10"/>
<rect x="15.028" y="10" class="st0" width="2" height="10"/>
<rect x="19.028" y="10" class="st0" width="2" height="10"/>
<path class="st0" d="M23.028,20V10l0,0c1.105,0,2,0.895,2,2v6C25.028,19.105,24.132,20,23.028,20L23.028,20z"/>
<rect x="21.028" y="10" class="st0" width="2" height="2"/>
<rect x="21.028" y="18" class="st0" width="2" height="2"/>
</svg>
