<?xml version="1.0" encoding="UTF-8"?>
<svg width="16px" height="16px" viewBox="0 0 16 16" version="1.1" xmlns="http://www.w3.org/2000/svg" xmlns:xlink="http://www.w3.org/1999/xlink">
    <!-- Generator: Sketch 52.6 (67491) - http://www.bohemiancoding.com/sketch -->
    <title>管理与支持</title>
    <desc>Created with Sketch.</desc>
    <g id="管理与支持" stroke="none" stroke-width="1" fill="none" fill-rule="evenodd">
        <rect id="Rectangle" fill-rule="nonzero" x="0" y="0" width="16" height="16"></rect>
        <path d="M9,15.9380949 L9,13.9167108 C11.8345187,13.4394154 14,10.9683638 14,8 C14,4.691 11.309,2 8,2 C4.691,2 2,4.691 2,8 C2,10.9683638 4.16548125,13.4394154 7,13.9167108 L7,15.9380949 C3.05389732,15.4459378 0,12.0793422 0,8 C0,3.582 3.582,0 8,0 C12.418,0 16,3.582 16,8 C16,12.0793422 12.9461027,15.4459378 9,15.9380949 Z M5,9 C4.44771525,9 4,8.55228475 4,8 C4,7.44771525 4.44771525,7 5,7 C5.55228475,7 6,7.44771525 6,8 C6,8.55228475 5.55228475,9 5,9 Z M8,9 C7.44771525,9 7,8.55228475 7,8 C7,7.44771525 7.44771525,7 8,7 C8.55228475,7 9,7.44771525 9,8 C9,8.55228475 8.55228475,9 8,9 Z M11,9 C10.4477153,9 10,8.55228475 10,8 C10,7.44771525 10.4477153,7 11,7 C11.5522847,7 12,7.44771525 12,8 C12,8.55228475 11.5522847,9 11,9 Z" id="Combined-Shape" fill="#00A4FF" fill-rule="nonzero"></path>
    </g>
</svg>