<?xml version="1.0" encoding="UTF-8"?>
<svg width="830px" height="372px" viewBox="0 0 830 372" version="1.1" xmlns="http://www.w3.org/2000/svg" xmlns:xlink="http://www.w3.org/1999/xlink">
    <!-- Generator: Sketch 54.1 (76490) - https://sketchapp.com -->
    <title>集中授权</title>
    <desc>Created with Sketch.</desc>
    <defs>
        <polygon id="path-1" points="0 50 120 50 120 0 0 0"></polygon>
        <filter x="-2.9%" y="-5.0%" width="105.8%" height="114.0%" filterUnits="objectBoundingBox" id="filter-2">
            <feOffset dx="0" dy="1" in="SourceAlpha" result="shadowOffsetOuter1"></feOffset>
            <feGaussianBlur stdDeviation="1" in="shadowOffsetOuter1" result="shadowBlurOuter1"></feGaussianBlur>
            <feColorMatrix values="0 0 0 0 0   0 0 0 0 0   0 0 0 0 0  0 0 0 0.35 0" type="matrix" in="shadowBlurOuter1"></feColorMatrix>
        </filter>
        <polygon id="path-3" points="0 50 120 50 120 0 0 0"></polygon>
        <filter x="-2.9%" y="-5.0%" width="105.8%" height="114.0%" filterUnits="objectBoundingBox" id="filter-4">
            <feOffset dx="0" dy="1" in="SourceAlpha" result="shadowOffsetOuter1"></feOffset>
            <feGaussianBlur stdDeviation="1" in="shadowOffsetOuter1" result="shadowBlurOuter1"></feGaussianBlur>
            <feColorMatrix values="0 0 0 0 0   0 0 0 0 0   0 0 0 0 0  0 0 0 0.35 0" type="matrix" in="shadowBlurOuter1"></feColorMatrix>
        </filter>
        <polygon id="path-5" points="0 50 120 50 120 0 0 0"></polygon>
        <filter x="-2.9%" y="-5.0%" width="105.8%" height="114.0%" filterUnits="objectBoundingBox" id="filter-6">
            <feOffset dx="0" dy="1" in="SourceAlpha" result="shadowOffsetOuter1"></feOffset>
            <feGaussianBlur stdDeviation="1" in="shadowOffsetOuter1" result="shadowBlurOuter1"></feGaussianBlur>
            <feColorMatrix values="0 0 0 0 0   0 0 0 0 0   0 0 0 0 0  0 0 0 0.35 0" type="matrix" in="shadowBlurOuter1"></feColorMatrix>
        </filter>
        <polygon id="path-7" points="0 50 120 50 120 0 0 0"></polygon>
        <filter x="-2.9%" y="-5.0%" width="105.8%" height="114.0%" filterUnits="objectBoundingBox" id="filter-8">
            <feOffset dx="0" dy="1" in="SourceAlpha" result="shadowOffsetOuter1"></feOffset>
            <feGaussianBlur stdDeviation="1" in="shadowOffsetOuter1" result="shadowBlurOuter1"></feGaussianBlur>
            <feColorMatrix values="0 0 0 0 0   0 0 0 0 0   0 0 0 0 0  0 0 0 0.35 0" type="matrix" in="shadowBlurOuter1"></feColorMatrix>
        </filter>
        <polygon id="path-9" points="0 50 120 50 120 0 0 0"></polygon>
        <filter x="-2.9%" y="-5.0%" width="105.8%" height="114.0%" filterUnits="objectBoundingBox" id="filter-10">
            <feOffset dx="0" dy="1" in="SourceAlpha" result="shadowOffsetOuter1"></feOffset>
            <feGaussianBlur stdDeviation="1" in="shadowOffsetOuter1" result="shadowBlurOuter1"></feGaussianBlur>
            <feColorMatrix values="0 0 0 0 0   0 0 0 0 0   0 0 0 0 0  0 0 0 0.35 0" type="matrix" in="shadowBlurOuter1"></feColorMatrix>
        </filter>
        <polygon id="path-11" points="0 50 120 50 120 0 0 0"></polygon>
        <filter x="-2.9%" y="-5.0%" width="105.8%" height="114.0%" filterUnits="objectBoundingBox" id="filter-12">
            <feOffset dx="0" dy="1" in="SourceAlpha" result="shadowOffsetOuter1"></feOffset>
            <feGaussianBlur stdDeviation="1" in="shadowOffsetOuter1" result="shadowBlurOuter1"></feGaussianBlur>
            <feColorMatrix values="0 0 0 0 0   0 0 0 0 0   0 0 0 0 0  0 0 0 0.35 0" type="matrix" in="shadowBlurOuter1"></feColorMatrix>
        </filter>
        <polygon id="path-13" points="0 50 120 50 120 0 0 0"></polygon>
        <filter x="-2.9%" y="-5.0%" width="105.8%" height="114.0%" filterUnits="objectBoundingBox" id="filter-14">
            <feOffset dx="0" dy="1" in="SourceAlpha" result="shadowOffsetOuter1"></feOffset>
            <feGaussianBlur stdDeviation="1" in="shadowOffsetOuter1" result="shadowBlurOuter1"></feGaussianBlur>
            <feColorMatrix values="0 0 0 0 0   0 0 0 0 0   0 0 0 0 0  0 0 0 0.35 0" type="matrix" in="shadowBlurOuter1"></feColorMatrix>
        </filter>
        <polygon id="path-15" points="0 50 120 50 120 0 0 0"></polygon>
        <filter x="-2.9%" y="-5.0%" width="105.8%" height="114.0%" filterUnits="objectBoundingBox" id="filter-16">
            <feOffset dx="0" dy="1" in="SourceAlpha" result="shadowOffsetOuter1"></feOffset>
            <feGaussianBlur stdDeviation="1" in="shadowOffsetOuter1" result="shadowBlurOuter1"></feGaussianBlur>
            <feColorMatrix values="0 0 0 0 0   0 0 0 0 0   0 0 0 0 0  0 0 0 0.35 0" type="matrix" in="shadowBlurOuter1"></feColorMatrix>
        </filter>
    </defs>
    <g id="集中授权" stroke="none" stroke-width="1" fill="none" fill-rule="evenodd">
        <rect id="矩形复制-2" fill="#CEE3FF" x="264" y="0" width="566" height="372"></rect>
        <g id="分组-3-copy复制" transform="translate(641.000000, 131.000000)">
            <g id="Fill-2-Copy-3">
                <use fill="black" fill-opacity="1" filter="url(#filter-2)" xlink:href="#path-1"></use>
                <use fill="#FFFFFF" fill-rule="evenodd" xlink:href="#path-1"></use>
            </g>
            <path d="M33.323,20.004 L40.407,20.004 L40.407,20.998 L34.471,20.998 L34.471,24.344 L40.071,24.344 L40.071,25.338 L34.471,25.338 L34.471,29.006 L40.645,29.006 L40.645,30 L33.323,30 L33.323,20.004 Z M42.241,20.004 L46.553,20.004 C47.547,20.004 48.331,20.228 48.905,20.69 C49.493,21.166 49.801,21.866 49.801,22.79 C49.801,23.35 49.647,23.84 49.339,24.274 C49.003,24.722 48.555,25.002 47.981,25.142 L47.981,25.17 C48.933,25.38 49.465,25.982 49.577,26.99 L49.731,28.53 C49.787,29.146 49.969,29.636 50.263,30 L49.017,30 C48.793,29.664 48.653,29.23 48.611,28.67 L48.485,27.34 C48.429,26.752 48.219,26.318 47.855,26.066 C47.519,25.814 47.043,25.702 46.413,25.702 L43.389,25.702 L43.389,30 L42.241,30 L42.241,20.004 Z M43.389,20.998 L43.389,24.708 L46.413,24.708 C47.141,24.708 47.715,24.526 48.107,24.19 C48.457,23.868 48.639,23.42 48.639,22.832 C48.639,22.216 48.457,21.754 48.121,21.46 C47.757,21.152 47.183,20.998 46.413,20.998 L43.389,20.998 Z M51.705,20.004 L55.793,20.004 C58.089,20.004 59.237,20.984 59.237,22.944 C59.237,24.918 58.075,25.912 55.779,25.912 L52.853,25.912 L52.853,30 L51.705,30 L51.705,20.004 Z M52.853,20.998 L52.853,24.918 L55.723,24.918 C56.535,24.918 57.123,24.75 57.515,24.428 C57.893,24.106 58.089,23.616 58.089,22.944 C58.089,22.272 57.893,21.782 57.501,21.488 C57.109,21.152 56.521,20.998 55.723,20.998 L52.853,20.998 Z M66.167,31.358 L64.599,31.358 L64.375,30.364 C64.879,30.406 65.355,30.434 65.817,30.434 C66.153,30.434 66.335,30.252 66.335,29.916 L66.335,26.486 C64.991,26.57 63.535,26.654 61.953,26.724 L61.673,25.828 C61.995,25.8 62.289,25.73 62.555,25.646 C63.703,25.142 64.991,24.358 66.419,23.294 C65.201,23.392 63.885,23.476 62.485,23.56 L62.275,22.664 C62.527,22.636 62.751,22.566 62.961,22.482 C63.661,22.132 64.487,21.446 65.439,20.41 C64.249,20.466 62.989,20.494 61.645,20.494 L61.351,19.612 C65.369,19.612 68.715,19.318 71.375,18.73 L71.865,19.584 C70.409,19.92 68.701,20.172 66.713,20.326 C65.845,21.334 64.963,22.118 64.067,22.706 C65.187,22.65 66.321,22.566 67.469,22.468 C68.099,21.964 68.743,21.404 69.415,20.802 L70.339,21.264 C67.973,23.35 65.915,24.848 64.151,25.772 C66.433,25.646 68.393,25.492 70.017,25.296 C69.667,24.848 69.303,24.386 68.925,23.938 L69.681,23.476 C70.829,24.82 71.711,25.982 72.327,26.976 L71.515,27.55 C71.249,27.074 70.941,26.598 70.605,26.108 C69.639,26.22 68.561,26.318 67.357,26.416 L67.357,30.168 C67.357,30.952 66.951,31.358 66.167,31.358 Z M69.275,27.27 C70.689,28.292 71.865,29.314 72.817,30.35 L72.103,31.064 C71.249,30.084 70.087,29.034 68.603,27.914 L69.275,27.27 Z M63.941,27.368 L64.655,27.998 C63.703,29.146 62.527,30.14 61.127,30.994 L60.497,30.182 C61.869,29.37 63.017,28.432 63.941,27.368 Z M79.033,28.208 L79.033,29.174 C77.745,29.818 76.289,30.35 74.665,30.742 L74.539,29.734 C76.247,29.356 77.745,28.852 79.033,28.208 Z M76.793,18.534 L77.759,18.926 C77.059,20.718 76.345,22.146 75.617,23.21 C76.233,23.126 76.849,23.014 77.465,22.902 C77.717,22.426 77.969,21.936 78.235,21.404 L79.145,21.754 C77.913,24.078 76.891,25.744 76.079,26.752 C77.059,26.5 78.039,26.164 79.033,25.73 L79.033,26.668 C77.563,27.284 76.149,27.69 74.805,27.914 L74.525,26.99 C74.707,26.906 74.861,26.794 74.987,26.682 C75.519,26.122 76.177,25.184 76.947,23.84 C76.191,23.98 75.421,24.12 74.651,24.232 L74.385,23.308 C74.553,23.238 74.693,23.112 74.833,22.916 C75.589,21.642 76.233,20.186 76.793,18.534 Z M79.509,24.68 L79.285,23.784 C79.369,23.756 79.425,23.728 79.481,23.714 C79.957,23.364 80.559,22.468 81.315,21.012 L78.921,21.012 L78.921,20.046 L82.491,20.046 C82.295,19.514 82.085,19.038 81.861,18.604 L82.883,18.436 C83.093,18.912 83.303,19.458 83.499,20.046 L86.649,20.046 L86.649,21.012 L82.365,21.012 C81.749,22.23 81.203,23.112 80.727,23.672 C82.029,23.56 83.331,23.406 84.619,23.196 C84.311,22.748 83.975,22.286 83.625,21.838 L84.395,21.362 C85.347,22.58 86.089,23.644 86.607,24.568 L85.823,25.114 C85.627,24.75 85.417,24.4 85.179,24.036 C83.443,24.316 81.553,24.526 79.509,24.68 Z M80.643,25.254 L81.623,25.254 C81.553,27.018 81.329,28.32 80.965,29.146 C80.559,30.014 79.887,30.756 78.935,31.372 L78.291,30.574 C79.117,30.042 79.705,29.426 80.055,28.712 C80.391,27.984 80.587,26.836 80.643,25.254 Z M85.627,31.148 L84.647,31.148 C83.807,31.148 83.387,30.742 83.387,29.93 L83.387,25.128 L84.353,25.128 L84.353,29.762 C84.353,30.056 84.451,30.21 84.675,30.238 L85.585,30.238 C85.893,30.21 86.075,30.042 86.131,29.734 C86.187,29.342 86.229,28.74 86.229,27.914 L87.097,28.222 C87.097,29.538 86.999,30.364 86.817,30.672 C86.635,30.952 86.243,31.12 85.627,31.148 Z" id="ERP系统" fill="#333333" fill-rule="nonzero"></path>
        </g>
        <g id="分组-3-copy复制-3" transform="translate(641.000000, 253.000000)">
            <g id="Fill-2-Copy-3">
                <use fill="black" fill-opacity="1" filter="url(#filter-4)" xlink:href="#path-3"></use>
                <use fill="#FFFFFF" fill-rule="evenodd" xlink:href="#path-3"></use>
            </g>
            <path d="M48.401,20.004 L49.731,20.004 L53.665,30 L52.419,30 L51.355,27.2 L46.763,27.2 L45.699,30 L44.467,30 L48.401,20.004 Z M47.127,26.234 L50.991,26.234 L49.101,21.236 L49.045,21.236 L47.127,26.234 Z M53.735,20.004 L55.023,20.004 L57.221,28.39 L57.277,28.39 L59.559,20.004 L60.805,20.004 L63.073,28.39 L63.129,28.39 L65.327,20.004 L66.615,20.004 L63.745,30 L62.471,30 L60.203,21.67 L60.161,21.67 L57.879,30 L56.605,30 L53.735,20.004 Z M71.053,19.808 C72.173,19.808 73.069,20.06 73.713,20.578 C74.385,21.11 74.763,21.908 74.861,22.958 L73.727,22.958 C73.601,22.23 73.321,21.698 72.887,21.348 C72.439,20.984 71.809,20.816 70.997,20.816 C70.255,20.816 69.681,20.928 69.261,21.18 C68.785,21.46 68.547,21.88 68.547,22.454 C68.547,22.958 68.827,23.364 69.401,23.672 C69.653,23.812 70.269,24.022 71.235,24.302 C72.551,24.694 73.419,25.016 73.839,25.268 C74.665,25.772 75.085,26.472 75.085,27.382 C75.085,28.25 74.735,28.95 74.035,29.454 C73.335,29.944 72.397,30.196 71.207,30.196 C70.031,30.196 69.107,29.944 68.435,29.44 C67.651,28.838 67.217,27.928 67.133,26.696 L68.267,26.696 C68.365,27.564 68.673,28.208 69.177,28.614 C69.639,28.978 70.311,29.174 71.207,29.174 C72.019,29.174 72.691,29.02 73.195,28.712 C73.699,28.404 73.951,27.984 73.951,27.452 C73.951,26.822 73.615,26.332 72.957,25.982 C72.677,25.814 71.963,25.576 70.843,25.254 C69.639,24.89 68.869,24.61 68.547,24.442 C67.777,23.994 67.399,23.35 67.399,22.51 C67.399,21.642 67.763,20.956 68.505,20.48 C69.163,20.032 70.017,19.808 71.053,19.808 Z" id="AWS" fill="#333333" fill-rule="nonzero"></path>
        </g>
        <g id="分组-3-copy复制-2" transform="translate(641.000000, 70.000000)">
            <g id="Fill-2-Copy-3">
                <use fill="black" fill-opacity="1" filter="url(#filter-6)" xlink:href="#path-5"></use>
                <use fill="#FFFFFF" fill-rule="evenodd" xlink:href="#path-5"></use>
            </g>
            <path d="M35.318,19.808 C36.424,19.808 37.362,20.102 38.118,20.69 C38.874,21.278 39.322,22.076 39.462,23.07 L38.356,23.07 C38.216,22.342 37.852,21.782 37.292,21.39 C36.746,21.012 36.088,20.83 35.304,20.83 C34.142,20.83 33.246,21.236 32.616,22.048 C32.028,22.804 31.734,23.798 31.734,25.044 C31.734,26.29 32.014,27.284 32.602,28.012 C33.218,28.782 34.1,29.174 35.276,29.174 C36.074,29.174 36.746,28.964 37.306,28.544 C37.894,28.096 38.3,27.438 38.496,26.57 L39.602,26.57 C39.378,27.732 38.86,28.642 38.034,29.286 C37.264,29.888 36.34,30.196 35.276,30.196 C33.722,30.196 32.532,29.678 31.706,28.656 C30.95,27.732 30.586,26.528 30.586,25.044 C30.586,23.56 30.964,22.342 31.734,21.39 C32.574,20.326 33.778,19.808 35.318,19.808 Z M41.198,20.004 L45.51,20.004 C46.504,20.004 47.288,20.228 47.862,20.69 C48.45,21.166 48.758,21.866 48.758,22.79 C48.758,23.35 48.604,23.84 48.296,24.274 C47.96,24.722 47.512,25.002 46.938,25.142 L46.938,25.17 C47.89,25.38 48.422,25.982 48.534,26.99 L48.688,28.53 C48.744,29.146 48.926,29.636 49.22,30 L47.974,30 C47.75,29.664 47.61,29.23 47.568,28.67 L47.442,27.34 C47.386,26.752 47.176,26.318 46.812,26.066 C46.476,25.814 46,25.702 45.37,25.702 L42.346,25.702 L42.346,30 L41.198,30 L41.198,20.004 Z M42.346,20.998 L42.346,24.708 L45.37,24.708 C46.098,24.708 46.672,24.526 47.064,24.19 C47.414,23.868 47.596,23.42 47.596,22.832 C47.596,22.216 47.414,21.754 47.078,21.46 C46.714,21.152 46.14,20.998 45.37,20.998 L42.346,20.998 Z M50.662,20.004 L52.09,20.004 L55.814,28.53 L55.856,28.53 L59.566,20.004 L60.994,20.004 L60.994,30 L59.846,30 L59.846,22.048 L59.804,22.048 L56.346,30 L55.31,30 L51.852,22.048 L51.81,22.048 L51.81,30 L50.662,30 L50.662,20.004 Z M68.484,31.358 L66.916,31.358 L66.692,30.364 C67.196,30.406 67.672,30.434 68.134,30.434 C68.47,30.434 68.652,30.252 68.652,29.916 L68.652,26.486 C67.308,26.57 65.852,26.654 64.27,26.724 L63.99,25.828 C64.312,25.8 64.606,25.73 64.872,25.646 C66.02,25.142 67.308,24.358 68.736,23.294 C67.518,23.392 66.202,23.476 64.802,23.56 L64.592,22.664 C64.844,22.636 65.068,22.566 65.278,22.482 C65.978,22.132 66.804,21.446 67.756,20.41 C66.566,20.466 65.306,20.494 63.962,20.494 L63.668,19.612 C67.686,19.612 71.032,19.318 73.692,18.73 L74.182,19.584 C72.726,19.92 71.018,20.172 69.03,20.326 C68.162,21.334 67.28,22.118 66.384,22.706 C67.504,22.65 68.638,22.566 69.786,22.468 C70.416,21.964 71.06,21.404 71.732,20.802 L72.656,21.264 C70.29,23.35 68.232,24.848 66.468,25.772 C68.75,25.646 70.71,25.492 72.334,25.296 C71.984,24.848 71.62,24.386 71.242,23.938 L71.998,23.476 C73.146,24.82 74.028,25.982 74.644,26.976 L73.832,27.55 C73.566,27.074 73.258,26.598 72.922,26.108 C71.956,26.22 70.878,26.318 69.674,26.416 L69.674,30.168 C69.674,30.952 69.268,31.358 68.484,31.358 Z M71.592,27.27 C73.006,28.292 74.182,29.314 75.134,30.35 L74.42,31.064 C73.566,30.084 72.404,29.034 70.92,27.914 L71.592,27.27 Z M66.258,27.368 L66.972,27.998 C66.02,29.146 64.844,30.14 63.444,30.994 L62.814,30.182 C64.186,29.37 65.334,28.432 66.258,27.368 Z M81.35,28.208 L81.35,29.174 C80.062,29.818 78.606,30.35 76.982,30.742 L76.856,29.734 C78.564,29.356 80.062,28.852 81.35,28.208 Z M79.11,18.534 L80.076,18.926 C79.376,20.718 78.662,22.146 77.934,23.21 C78.55,23.126 79.166,23.014 79.782,22.902 C80.034,22.426 80.286,21.936 80.552,21.404 L81.462,21.754 C80.23,24.078 79.208,25.744 78.396,26.752 C79.376,26.5 80.356,26.164 81.35,25.73 L81.35,26.668 C79.88,27.284 78.466,27.69 77.122,27.914 L76.842,26.99 C77.024,26.906 77.178,26.794 77.304,26.682 C77.836,26.122 78.494,25.184 79.264,23.84 C78.508,23.98 77.738,24.12 76.968,24.232 L76.702,23.308 C76.87,23.238 77.01,23.112 77.15,22.916 C77.906,21.642 78.55,20.186 79.11,18.534 Z M81.826,24.68 L81.602,23.784 C81.686,23.756 81.742,23.728 81.798,23.714 C82.274,23.364 82.876,22.468 83.632,21.012 L81.238,21.012 L81.238,20.046 L84.808,20.046 C84.612,19.514 84.402,19.038 84.178,18.604 L85.2,18.436 C85.41,18.912 85.62,19.458 85.816,20.046 L88.966,20.046 L88.966,21.012 L84.682,21.012 C84.066,22.23 83.52,23.112 83.044,23.672 C84.346,23.56 85.648,23.406 86.936,23.196 C86.628,22.748 86.292,22.286 85.942,21.838 L86.712,21.362 C87.664,22.58 88.406,23.644 88.924,24.568 L88.14,25.114 C87.944,24.75 87.734,24.4 87.496,24.036 C85.76,24.316 83.87,24.526 81.826,24.68 Z M82.96,25.254 L83.94,25.254 C83.87,27.018 83.646,28.32 83.282,29.146 C82.876,30.014 82.204,30.756 81.252,31.372 L80.608,30.574 C81.434,30.042 82.022,29.426 82.372,28.712 C82.708,27.984 82.904,26.836 82.96,25.254 Z M87.944,31.148 L86.964,31.148 C86.124,31.148 85.704,30.742 85.704,29.93 L85.704,25.128 L86.67,25.128 L86.67,29.762 C86.67,30.056 86.768,30.21 86.992,30.238 L87.902,30.238 C88.21,30.21 88.392,30.042 88.448,29.734 C88.504,29.342 88.546,28.74 88.546,27.914 L89.414,28.222 C89.414,29.538 89.316,30.364 89.134,30.672 C88.952,30.952 88.56,31.12 87.944,31.148 Z" id="CRM系统" fill="#333333" fill-rule="nonzero"></path>
        </g>
        <g id="分组-3-copy复制-6" transform="translate(407.000000, 162.000000)">
            <g id="Fill-2-Copy-3">
                <use fill="black" fill-opacity="1" filter="url(#filter-8)" xlink:href="#path-7"></use>
                <use fill="#FFFFFF" fill-rule="evenodd" xlink:href="#path-7"></use>
            </g>
            <path d="M44.243,23.448 L44.243,25.898 L47.799,25.898 L47.799,23.448 L44.243,23.448 Z M44.187,26.822 C44.033,28.614 43.515,30.098 42.619,31.274 L41.849,30.588 C42.745,29.342 43.207,27.76 43.235,25.842 L43.235,19.122 L53.665,19.122 L53.665,29.608 C53.665,30.588 53.175,31.078 52.195,31.078 L50.585,31.078 L50.319,30.084 C50.879,30.112 51.397,30.14 51.873,30.14 C52.377,30.14 52.643,29.846 52.643,29.258 L52.643,26.822 L48.835,26.822 L48.835,30.924 L47.799,30.924 L47.799,26.822 L44.187,26.822 Z M52.643,25.898 L52.643,23.448 L48.835,23.448 L48.835,25.898 L52.643,25.898 Z M52.643,22.51 L52.643,20.102 L48.835,20.102 L48.835,22.51 L52.643,22.51 Z M47.799,20.102 L44.243,20.102 L44.243,22.51 L47.799,22.51 L47.799,20.102 Z M66.447,21.278 L58.453,21.278 L58.453,24.008 L66.447,24.008 L66.447,21.278 Z M58.453,24.988 C58.383,27.494 57.725,29.65 56.465,31.456 L55.723,30.784 C56.857,29.216 57.431,27.172 57.459,24.666 L57.459,20.284 L62.023,20.284 C61.771,19.696 61.505,19.15 61.211,18.646 L62.289,18.478 C62.541,19.01 62.793,19.612 63.045,20.284 L67.469,20.284 L67.469,24.988 L58.453,24.988 Z M70.269,20.004 L74.735,20.004 C75.659,20.004 76.401,20.228 76.947,20.676 C77.479,21.124 77.745,21.74 77.745,22.524 C77.745,23.084 77.591,23.574 77.297,23.98 C76.989,24.344 76.583,24.61 76.079,24.778 C76.737,24.89 77.241,25.17 77.605,25.59 C77.969,26.01 78.165,26.542 78.165,27.214 C78.165,28.194 77.815,28.922 77.129,29.398 C76.541,29.79 75.729,30 74.707,30 L70.269,30 L70.269,20.004 Z M71.417,20.97 L71.417,24.372 L74.455,24.372 C75.155,24.372 75.687,24.218 76.051,23.938 C76.415,23.644 76.611,23.21 76.611,22.636 C76.611,22.076 76.429,21.656 76.065,21.376 C75.701,21.096 75.169,20.97 74.469,20.97 L71.417,20.97 Z M71.417,25.324 L71.417,29.034 L74.609,29.034 C75.309,29.034 75.855,28.894 76.275,28.642 C76.765,28.334 77.017,27.844 77.017,27.2 C77.017,26.556 76.793,26.08 76.373,25.772 C75.967,25.464 75.379,25.324 74.609,25.324 L71.417,25.324 Z" id="用户B" fill="#333333" fill-rule="nonzero"></path>
        </g>
        <g id="分组-3-copy复制-7" transform="translate(407.000000, 102.000000)">
            <g id="Fill-2-Copy-3">
                <use fill="black" fill-opacity="1" filter="url(#filter-10)" xlink:href="#path-9"></use>
                <use fill="#FFFFFF" fill-rule="evenodd" xlink:href="#path-9"></use>
            </g>
            <path d="M44.383,23.448 L44.383,25.898 L47.939,25.898 L47.939,23.448 L44.383,23.448 Z M44.327,26.822 C44.173,28.614 43.655,30.098 42.759,31.274 L41.989,30.588 C42.885,29.342 43.347,27.76 43.375,25.842 L43.375,19.122 L53.805,19.122 L53.805,29.608 C53.805,30.588 53.315,31.078 52.335,31.078 L50.725,31.078 L50.459,30.084 C51.019,30.112 51.537,30.14 52.013,30.14 C52.517,30.14 52.783,29.846 52.783,29.258 L52.783,26.822 L48.975,26.822 L48.975,30.924 L47.939,30.924 L47.939,26.822 L44.327,26.822 Z M52.783,25.898 L52.783,23.448 L48.975,23.448 L48.975,25.898 L52.783,25.898 Z M52.783,22.51 L52.783,20.102 L48.975,20.102 L48.975,22.51 L52.783,22.51 Z M47.939,20.102 L44.383,20.102 L44.383,22.51 L47.939,22.51 L47.939,20.102 Z M66.587,21.278 L58.593,21.278 L58.593,24.008 L66.587,24.008 L66.587,21.278 Z M58.593,24.988 C58.523,27.494 57.865,29.65 56.605,31.456 L55.863,30.784 C56.997,29.216 57.571,27.172 57.599,24.666 L57.599,20.284 L62.163,20.284 C61.911,19.696 61.645,19.15 61.351,18.646 L62.429,18.478 C62.681,19.01 62.933,19.612 63.185,20.284 L67.609,20.284 L67.609,24.988 L58.593,24.988 Z M73.335,20.004 L74.665,20.004 L78.599,30 L77.353,30 L76.289,27.2 L71.697,27.2 L70.633,30 L69.401,30 L73.335,20.004 Z M72.061,26.234 L75.925,26.234 L74.035,21.236 L73.979,21.236 L72.061,26.234 Z" id="用户A" fill="#333333" fill-rule="nonzero"></path>
        </g>
        <g id="分组-3-copy复制-8" transform="translate(407.000000, 222.000000)">
            <g id="Fill-2-Copy-3">
                <use fill="black" fill-opacity="1" filter="url(#filter-12)" xlink:href="#path-11"></use>
                <use fill="#FFFFFF" fill-rule="evenodd" xlink:href="#path-11"></use>
            </g>
            <path d="M43.886,23.448 L43.886,25.898 L47.442,25.898 L47.442,23.448 L43.886,23.448 Z M43.83,26.822 C43.676,28.614 43.158,30.098 42.262,31.274 L41.492,30.588 C42.388,29.342 42.85,27.76 42.878,25.842 L42.878,19.122 L53.308,19.122 L53.308,29.608 C53.308,30.588 52.818,31.078 51.838,31.078 L50.228,31.078 L49.962,30.084 C50.522,30.112 51.04,30.14 51.516,30.14 C52.02,30.14 52.286,29.846 52.286,29.258 L52.286,26.822 L48.478,26.822 L48.478,30.924 L47.442,30.924 L47.442,26.822 L43.83,26.822 Z M52.286,25.898 L52.286,23.448 L48.478,23.448 L48.478,25.898 L52.286,25.898 Z M52.286,22.51 L52.286,20.102 L48.478,20.102 L48.478,22.51 L52.286,22.51 Z M47.442,20.102 L43.886,20.102 L43.886,22.51 L47.442,22.51 L47.442,20.102 Z M66.09,21.278 L58.096,21.278 L58.096,24.008 L66.09,24.008 L66.09,21.278 Z M58.096,24.988 C58.026,27.494 57.368,29.65 56.108,31.456 L55.366,30.784 C56.5,29.216 57.074,27.172 57.102,24.666 L57.102,20.284 L61.666,20.284 C61.414,19.696 61.148,19.15 60.854,18.646 L61.932,18.478 C62.184,19.01 62.436,19.612 62.688,20.284 L67.112,20.284 L67.112,24.988 L58.096,24.988 Z M74.224,19.808 C75.33,19.808 76.268,20.102 77.024,20.69 C77.78,21.278 78.228,22.076 78.368,23.07 L77.262,23.07 C77.122,22.342 76.758,21.782 76.198,21.39 C75.652,21.012 74.994,20.83 74.21,20.83 C73.048,20.83 72.152,21.236 71.522,22.048 C70.934,22.804 70.64,23.798 70.64,25.044 C70.64,26.29 70.92,27.284 71.508,28.012 C72.124,28.782 73.006,29.174 74.182,29.174 C74.98,29.174 75.652,28.964 76.212,28.544 C76.8,28.096 77.206,27.438 77.402,26.57 L78.508,26.57 C78.284,27.732 77.766,28.642 76.94,29.286 C76.17,29.888 75.246,30.196 74.182,30.196 C72.628,30.196 71.438,29.678 70.612,28.656 C69.856,27.732 69.492,26.528 69.492,25.044 C69.492,23.56 69.87,22.342 70.64,21.39 C71.48,20.326 72.684,19.808 74.224,19.808 Z" id="用户C" fill="#333333" fill-rule="nonzero"></path>
        </g>
        <g id="分组-3-copy复制-4" transform="translate(641.000000, 192.000000)">
            <g id="Fill-2-Copy-3">
                <use fill="black" fill-opacity="1" filter="url(#filter-14)" xlink:href="#path-13"></use>
                <use fill="#FFFFFF" fill-rule="evenodd" xlink:href="#path-13"></use>
            </g>
            <path d="M44.838,20.494 L45.902,20.494 C45.706,20.032 45.454,19.598 45.174,19.192 L46.042,18.87 C46.322,19.318 46.56,19.864 46.784,20.494 L47.484,20.494 C47.652,19.878 47.792,19.22 47.876,18.52 L48.856,18.632 C48.772,19.29 48.646,19.906 48.478,20.494 L49.584,20.494 C49.892,19.962 50.144,19.402 50.368,18.786 L51.278,19.122 C51.026,19.654 50.774,20.116 50.522,20.494 L51.768,20.494 L51.768,21.334 L48.226,21.334 C48.086,21.726 47.918,22.104 47.75,22.454 L52.16,22.454 L52.16,23.308 L49.962,23.308 C50.536,24.008 51.39,24.568 52.538,24.988 L52.104,25.884 C51.488,25.604 50.956,25.282 50.508,24.946 L50.508,25.086 C50.396,25.87 50.284,26.542 50.158,27.102 L51.656,27.102 C51.628,29.398 51.446,30.686 51.124,30.98 C50.858,31.232 50.284,31.358 49.388,31.358 L48.744,31.358 L48.492,30.504 C48.828,30.504 49.136,30.518 49.416,30.518 C49.92,30.518 50.256,30.434 50.396,30.294 C50.564,30.126 50.662,29.328 50.69,27.914 L45.454,27.914 C45.72,27.102 45.916,26.402 46.042,25.8 L46.98,25.884 C46.868,26.318 46.756,26.724 46.644,27.102 L49.22,27.102 C49.36,26.626 49.472,26.066 49.556,25.45 L45.846,25.45 L45.846,24.96 C45.426,25.338 44.964,25.674 44.474,25.954 L43.956,25.156 C44.824,24.68 45.552,24.064 46.126,23.308 L44.432,23.308 L44.432,22.454 L46.686,22.454 C46.882,22.09 47.064,21.712 47.218,21.334 L44.838,21.334 L44.838,20.494 Z M46.182,24.638 L50.13,24.638 C49.668,24.232 49.304,23.784 49.024,23.308 L47.26,23.308 C46.938,23.798 46.574,24.246 46.182,24.638 Z M41.31,23.406 L41.31,25.744 L42.962,25.744 L42.962,23.406 L41.31,23.406 Z M42.962,22.468 L42.962,20.06 L41.31,20.06 L41.31,22.468 L42.962,22.468 Z M41.296,26.696 C41.212,28.586 40.918,30.14 40.414,31.372 L39.672,30.686 C40.12,29.426 40.344,27.816 40.358,25.87 L40.358,19.108 L43.928,19.108 L43.928,30.21 C43.928,30.952 43.55,31.33 42.794,31.33 L41.814,31.33 L41.576,30.406 C41.912,30.434 42.206,30.448 42.486,30.448 C42.794,30.448 42.962,30.252 42.962,29.874 L42.962,26.696 L41.296,26.696 Z M44.544,28.768 L49.556,28.768 L49.556,29.636 L44.544,29.636 L44.544,28.768 Z M57.76,24.05 L59.86,24.05 L59.86,20.214 L57.998,20.214 L57.998,19.234 L64.41,19.234 L64.41,23.532 C64.41,26.332 64.62,28.278 65.054,29.398 C65.236,29.846 65.404,30.084 65.558,30.084 C65.614,30.084 65.656,29.902 65.712,29.552 C65.74,29.16 65.768,28.586 65.796,27.816 L66.594,28.194 C66.538,29.538 66.426,30.406 66.258,30.784 C66.118,31.064 65.964,31.218 65.782,31.218 C65.264,31.218 64.816,30.896 64.424,30.252 C63.752,29.076 63.416,26.836 63.416,23.532 L63.416,20.214 L60.84,20.214 L60.84,24.05 L62.758,24.05 L62.758,25.016 L60.84,25.016 L60.84,31.414 L59.86,31.414 L59.86,25.016 L57.76,25.016 L57.76,24.05 Z M55.198,18.702 C56.122,19.416 56.892,20.13 57.508,20.858 L56.822,21.558 C56.248,20.872 55.478,20.144 54.498,19.388 L55.198,18.702 Z M53.602,22.846 L56.528,22.846 L56.528,29.034 C56.976,28.642 57.452,28.194 57.97,27.676 L58.236,28.74 C57.424,29.552 56.556,30.266 55.632,30.896 L55.24,30 C55.436,29.804 55.548,29.594 55.548,29.356 L55.548,23.812 L53.602,23.812 L53.602,22.846 Z M69.086,19.374 L79.054,19.374 L79.054,20.354 L69.086,20.354 L69.086,19.374 Z M67.742,23.28 L80.3,23.28 L80.3,24.288 L73.58,24.288 C72.292,26.934 71.158,28.768 70.206,29.804 C72.726,29.664 75.232,29.426 77.738,29.09 C77.234,28.194 76.674,27.27 76.058,26.318 L76.87,25.814 C78.158,27.746 79.152,29.44 79.852,30.868 L78.956,31.498 C78.732,31.008 78.494,30.518 78.228,30.014 C75.386,30.378 72.292,30.658 68.932,30.882 L68.666,29.86 C68.778,29.832 68.848,29.79 68.904,29.762 C69.8,29.09 70.99,27.27 72.46,24.288 L67.742,24.288 L67.742,23.28 Z" id="腾讯云" fill="#333333" fill-rule="nonzero"></path>
        </g>
        <path d="M566.076,57.846 L566.076,60.506 L565.264,60.506 L565.264,61.094 C564.788,62.214 564.004,63.194 562.94,64.02 C563.906,64.594 565.082,65.084 566.468,65.476 L565.88,66.372 C564.34,65.91 563.066,65.336 562.058,64.636 C560.91,65.336 559.496,65.896 557.844,66.344 L557.312,65.406 C558.838,65.042 560.14,64.58 561.204,63.992 C560.252,63.18 559.566,62.228 559.16,61.15 L558.586,61.15 L558.586,60.506 L557.914,60.506 L557.914,57.846 L563.36,57.846 C563.878,57.02 564.312,56.124 564.676,55.158 L565.614,55.508 C565.222,56.432 564.816,57.216 564.396,57.846 L566.076,57.846 Z M560.14,61.15 C560.56,62.018 561.204,62.774 562.086,63.446 C563.01,62.788 563.724,62.018 564.214,61.15 L560.14,61.15 Z M558.88,60.226 L565.096,60.226 L565.096,58.812 L558.88,58.812 L558.88,60.226 Z M561.778,55.34 C562.17,56.012 562.478,56.628 562.702,57.188 L561.862,57.496 C561.61,56.838 561.288,56.194 560.91,55.564 L561.778,55.34 Z M559.328,55.396 C559.72,56.054 560.028,56.656 560.238,57.202 L559.398,57.51 C559.146,56.866 558.838,56.25 558.46,55.634 L559.328,55.396 Z M565.516,53.632 L565.992,54.472 C564.018,54.85 561.386,55.046 558.11,55.046 L557.816,54.136 C560.91,54.136 563.472,53.968 565.516,53.632 Z M555.226,66.246 L554.036,66.246 L553.826,65.28 C554.19,65.322 554.54,65.35 554.876,65.35 C555.128,65.35 555.268,65.224 555.268,64.972 L555.268,61.472 C554.792,61.654 554.33,61.822 553.854,61.976 L553.616,60.982 C554.176,60.842 554.736,60.66 555.268,60.464 L555.268,57.104 L553.714,57.104 L553.714,56.138 L555.268,56.138 L555.268,53.576 L556.262,53.576 L556.262,56.138 L557.564,56.138 L557.564,57.104 L556.262,57.104 L556.262,60.044 C556.682,59.848 557.088,59.624 557.508,59.4 L557.508,60.422 C557.102,60.646 556.682,60.856 556.262,61.052 L556.262,65.224 C556.262,65.896 555.912,66.246 555.226,66.246 Z M571.844,55.83 C572.726,56.404 573.51,56.978 574.21,57.538 C575.162,56.838 576.044,56.012 576.828,55.088 L569.478,55.088 L569.478,54.136 L578.116,54.136 L578.116,54.948 C577.164,56.194 576.1,57.258 574.938,58.14 C575.078,58.252 575.204,58.378 575.33,58.49 L579.74,58.49 L579.74,59.358 C579.04,60.45 578.214,61.43 577.262,62.27 L576.464,61.57 C577.178,61.01 577.878,60.296 578.55,59.456 L574.63,59.456 L574.63,65.028 C574.63,65.896 574.21,66.344 573.37,66.344 L571.354,66.344 L571.13,65.35 C571.788,65.392 572.418,65.42 573.02,65.42 C573.412,65.42 573.608,65.196 573.608,64.776 L573.608,59.456 L568.148,59.456 L568.148,58.49 L573.944,58.49 C573.174,57.846 572.25,57.188 571.158,56.502 L571.844,55.83 Z M585.018,59.106 L585.018,66.344 L584.01,66.344 L584.01,59.078 C583.506,60.562 582.82,61.892 581.966,63.082 L581.518,61.948 C582.666,60.576 583.492,59.022 583.982,57.272 L581.812,57.272 L581.812,56.306 L584.01,56.306 L584.01,53.576 L585.018,53.576 L585.018,56.306 L586.866,56.306 L586.866,57.272 L585.018,57.272 L585.018,58.07 C585.718,58.742 586.432,59.512 587.146,60.352 L586.572,61.206 C585.97,60.338 585.452,59.638 585.018,59.106 Z M592.522,55.382 L588.742,55.382 C588.91,57.538 589.498,59.47 590.52,61.178 C591.528,59.498 592.186,57.566 592.522,55.382 Z M589.932,62.074 C588.686,60.058 587.958,57.832 587.762,55.382 L587.202,55.382 L587.202,54.416 L593.502,54.416 L593.502,55.368 C593.096,57.986 592.298,60.24 591.122,62.116 C592.018,63.376 593.138,64.524 594.51,65.546 L593.824,66.358 C592.508,65.322 591.402,64.188 590.534,62.97 C589.554,64.3 588.35,65.42 586.936,66.344 L586.292,65.532 C587.762,64.552 588.98,63.404 589.932,62.074 Z M596.176,54.122 L600.474,54.122 L600.474,54.934 C600.054,56.194 599.55,57.496 598.962,58.868 C599.858,60.1 600.348,61.22 600.404,62.228 C600.404,62.83 600.25,63.264 599.97,63.53 C599.578,63.852 598.878,64.02 597.87,64.034 L597.534,63.012 C597.758,63.04 597.94,63.068 598.08,63.068 C598.598,63.04 598.948,62.97 599.13,62.858 C599.298,62.732 599.396,62.522 599.396,62.228 C599.396,61.276 598.906,60.198 597.926,59.022 C598.584,57.566 599.102,56.25 599.466,55.088 L597.156,55.088 L597.156,66.414 L596.176,66.414 L596.176,54.122 Z M602.126,57.622 L602.126,59.204 L606.256,59.204 L606.256,57.622 L602.126,57.622 Z M606.256,56.698 L606.256,55.088 L602.126,55.088 L602.126,56.698 L606.256,56.698 Z M603.736,60.128 L602.126,60.128 L602.126,64.916 C602.966,64.664 603.806,64.342 604.632,63.964 L604.856,64.902 C603.848,65.336 602.588,65.756 601.062,66.162 L600.824,65.294 C601.02,65.224 601.132,65.112 601.132,64.972 L601.132,54.136 L607.236,54.136 L607.236,60.128 L604.646,60.128 C604.814,60.954 605.094,61.724 605.5,62.424 C606.172,62.046 606.83,61.486 607.46,60.73 L608.118,61.388 C607.474,62.144 606.76,62.732 605.962,63.138 C606.606,64.02 607.446,64.776 608.51,65.406 L607.95,66.288 C605.626,64.804 604.212,62.746 603.736,60.128 Z" id="授予权限" fill="#666666" fill-rule="nonzero"></path>
        <path d="M325,22 L325,21 L332,21 L332,22 L325,22 L332,22 L325,22 Z M339,22 L339,21 L346,21 L346,22 L339,22 L346,22 L339,22 Z M353,22 L353,21 L360,21 L360,22 L353,22 L360,22 L353,22 Z M367,22 L367,21 L374,21 L374,22 L367,22 L374,22 L367,22 Z M381,22 L381,21 L388,21 L388,22 L381,22 L388,22 L381,22 Z M395,22 L395,21 L402,21 L402,22 L395,22 L402,22 L395,22 Z M409,22 L409,21 L416,21 L416,22 L409,22 L416,22 L409,22 Z M423,22 L423,21 L430,21 L430,22 L423,22 L430,22 L423,22 Z M437,22 L437,21 L444,21 L444,22 L437,22 L444,22 L437,22 Z M451,22 L451,21 L458,21 L458,22 L451,22 L458,22 L451,22 Z M465,22 L465,21 L472,21 L472,22 L465,22 L472,22 L465,22 Z M479,22 L479,21 L486,21 L486,22 L479,22 L486,22 L479,22 Z M493,22 L493,21 L500,21 L500,22 L493,22 L500,22 L493,22 Z M507,22 L507,21 L514,21 L514,22 L507,22 L514,22 L507,22 Z M521,22 L521,21 L528,21 L528,22 L521,22 L528,22 L521,22 Z M535,22 L535,21 L542,21 L542,22 L535,22 L542,22 L535,22 Z M549,22 L549,21 L556,21 L556,22 L549,22 L556,22 L549,22 Z M563,22 L563,21 L570,21 L570,22 L563,22 L570,22 L563,22 Z M577,22 L577,21 L584,21 L584,22 L577,22 L584,22 L577,22 Z M591,22 L591,21 L598,21 L598,22 L591,22 L598,22 L591,22 Z M605,22 L605,21 L612,21 L612,22 L605,22 L612,22 L605,22 Z M619,22 L619,21 L626,21 L626,22 L619,22 L626,22 L619,22 Z M633,22 L633,21 L640,21 L640,22 L633,22 L640,22 L633,22 Z M647,22 L647,21 L654,21 L654,22 L647,22 L654,22 L647,22 Z M661,22 L661,21 L668,21 L668,22 L661,22 L668,22 L661,22 Z M675,22 L675,21 L682,21 L682,22 L675,22 L682,22 L675,22 Z M689,22 L689,21 L696,21 L696,22 L689,22 L696,22 L689,22 Z M703,22 L703,21 L710,21 L710,22 L703,22 L710,22 L703,22 Z M717,22 L717,21 L724,21 L724,22 L717,22 L724,22 L717,22 Z M731,22 L731,21 L738,21 L738,22 L731,22 L738,22 L731,22 Z M745,22 L745,21 L752,21 L752,22 L745,22 L752,22 L745,22 Z M759,22 L759,21 L766,21 L766,22 L759,22 L766,22 L759,22 Z M773,22 L773,21 L780,21 L780,22 L773,22 L780,22 L773,22 Z M787,22 L787,21 L794,21 L794,22 L787,22 L794,22 L787,22 Z M805,25 L805,22 L801,22 L805,22 L805,25 L806,25 L806,22 L806,21 L805,21 L801,21 L801,22 L805,25 Z M805,39 L805,32 L805,39 L806,39 L806,32 L805,32 L805,39 Z M805,53 L805,46 L805,53 L806,53 L806,46 L805,46 L805,53 Z M805,67 L805,60 L805,67 L806,67 L806,60 L805,60 L805,67 Z M805,81 L805,74 L805,81 L806,81 L806,74 L805,74 L805,81 Z M805,95 L805,88 L805,95 L806,95 L806,88 L805,88 L805,95 Z M805,109 L805,102 L805,109 L806,109 L806,102 L805,102 L805,109 Z M805,123 L805,116 L805,123 L806,123 L806,116 L805,116 L805,123 Z M805,137 L805,130 L805,137 L806,137 L806,130 L805,130 L805,137 Z M805,151 L805,144 L805,151 L806,151 L806,144 L805,144 L805,151 Z M805,165 L805,158 L805,165 L806,165 L806,158 L805,158 L805,165 Z M805,179 L805,172 L805,179 L806,179 L806,172 L805,172 L805,179 Z M805,193 L805,186 L805,193 L806,193 L806,186 L805,186 L805,193 Z M805,207 L805,200 L805,207 L806,207 L806,200 L805,200 L805,207 Z M805,221 L805,214 L805,221 L806,221 L806,214 L805,214 L805,221 Z M805,235 L805,228 L805,235 L806,235 L806,228 L805,228 L805,235 Z M805,249 L805,242 L805,249 L806,249 L806,242 L805,242 L805,249 Z M805,263 L805,256 L805,263 L806,263 L806,256 L805,256 L805,263 Z M805,277 L805,270 L805,277 L806,277 L806,270 L805,270 L805,277 Z M805,291 L805,284 L805,291 L806,291 L806,284 L805,284 L805,291 Z M805,305 L805,298 L805,305 L806,305 L806,298 L805,298 L805,305 Z M805,319 L805,312 L805,319 L806,319 L806,312 L805,312 L805,319 Z M805,333 L805,326 L805,333 L806,333 L806,326 L805,326 L805,333 Z M805,347 L805,340 L805,347 L806,347 L806,340 L805,340 L805,347 Z M802,358 L805,358 L805,354 L805,358 L802,358 L802,359 L805,359 L806,359 L806,358 L806,354 L805,354 L802,358 Z M788,358 L795,358 L788,358 L788,359 L795,359 L795,358 L788,358 Z M774,358 L781,358 L774,358 L774,359 L781,359 L781,358 L774,358 Z M760,358 L767,358 L760,358 L760,359 L767,359 L767,358 L760,358 Z M746,358 L753,358 L746,358 L746,359 L753,359 L753,358 L746,358 Z M732,358 L739,358 L732,358 L732,359 L739,359 L739,358 L732,358 Z M718,358 L725,358 L718,358 L718,359 L725,359 L725,358 L718,358 Z M704,358 L711,358 L704,358 L704,359 L711,359 L711,358 L704,358 Z M690,358 L697,358 L690,358 L690,359 L697,359 L697,358 L690,358 Z M676,358 L683,358 L676,358 L676,359 L683,359 L683,358 L676,358 Z M662,358 L669,358 L662,358 L662,359 L669,359 L669,358 L662,358 Z M648,358 L655,358 L648,358 L648,359 L655,359 L655,358 L648,358 Z M634,358 L641,358 L634,358 L634,359 L641,359 L641,358 L634,358 Z M620,358 L627,358 L620,358 L620,359 L627,359 L627,358 L620,358 Z M606,358 L613,358 L606,358 L606,359 L613,359 L613,358 L606,358 Z M592,358 L599,358 L592,358 L592,359 L599,359 L599,358 L592,358 Z M578,358 L585,358 L578,358 L578,359 L585,359 L585,358 L578,358 Z M564,358 L571,358 L564,358 L564,359 L571,359 L571,358 L564,358 Z M550,358 L557,358 L550,358 L550,359 L557,359 L557,358 L550,358 Z M536,358 L543,358 L536,358 L536,359 L543,359 L543,358 L536,358 Z M522,358 L529,358 L522,358 L522,359 L529,359 L529,358 L522,358 Z M508,358 L515,358 L508,358 L508,359 L515,359 L515,358 L508,358 Z M494,358 L501,358 L494,358 L494,359 L501,359 L501,358 L494,358 Z M480,358 L487,358 L480,358 L480,359 L487,359 L487,358 L480,358 Z M466,358 L473,358 L466,358 L466,359 L473,359 L473,358 L466,358 Z M452,358 L459,358 L452,358 L452,359 L459,359 L459,358 L452,358 Z M438,358 L445,358 L438,358 L438,359 L445,359 L445,358 L438,358 Z M424,358 L431,358 L424,358 L424,359 L431,359 L431,358 L424,358 Z M410,358 L417,358 L410,358 L410,359 L417,359 L417,358 L410,358 Z M396,358 L403,358 L396,358 L396,359 L403,359 L403,358 L396,358 Z M382,358 L389,358 L382,358 L382,359 L389,359 L389,358 L382,358 Z M368,358 L375,358 L368,358 L368,359 L375,359 L375,358 L368,358 Z M354,358 L361,358 L354,358 L354,359 L361,359 L361,358 L354,358 Z M340,358 L347,358 L340,358 L340,359 L347,359 L347,358 L340,358 Z M326,358 L333,358 L326,358 L326,359 L333,359 L333,358 L326,358 Z M325,352 L324,352 L324,345 L325,345 L325,352 L325,345 L325,352 Z M325,338 L324,338 L324,331 L325,331 L325,338 L325,331 L325,338 Z M325,324 L324,324 L324,317 L325,317 L325,324 L325,317 L325,324 Z M325,310 L324,310 L324,303 L325,303 L325,310 L325,303 L325,310 Z M325,296 L324,296 L324,289 L325,289 L325,296 L325,289 L325,296 Z M325,282 L324,282 L324,275 L325,275 L325,282 L325,275 L325,282 Z M325,268 L324,268 L324,261 L325,261 L325,268 L325,261 L325,268 Z M325,254 L324,254 L324,247 L325,247 L325,254 L325,247 L325,254 Z M325,240 L324,240 L324,233 L325,233 L325,240 L325,233 L325,240 Z M325,226 L324,226 L324,219 L325,219 L325,226 L325,219 L325,226 Z M325,212 L324,212 L324,205 L325,205 L325,212 L325,205 L325,212 Z M325,198 L324,198 L324,191 L325,191 L325,198 L325,191 L325,198 Z M325,184 L324,184 L324,177 L325,177 L325,184 L325,177 L325,184 Z M325,170 L324,170 L324,163 L325,163 L325,170 L325,163 L325,170 Z M325,156 L324,156 L324,149 L325,149 L325,156 L325,149 L325,156 Z M325,142 L324,142 L324,135 L325,135 L325,142 L325,135 L325,142 Z M325,128 L324,128 L324,121 L325,121 L325,128 L325,121 L325,128 Z M325,114 L324,114 L324,107 L325,107 L325,114 L325,107 L325,114 Z M325,100 L324,100 L324,93 L325,93 L325,100 L325,93 L325,100 Z M325,86 L324,86 L324,79 L325,79 L325,86 L325,79 L325,86 Z M325,72 L324,72 L324,65 L325,65 L325,72 L325,65 L325,72 Z M325,58 L324,58 L324,51 L325,51 L325,58 L325,51 L325,58 Z M325,44 L324,44 L324,37 L325,37 L325,44 L325,37 L325,44 Z M325,30 L325,23 L325,30 L324,30 L324,23 L325,23 L325,30 Z" id="矩形复制-2" fill="#BABABA" fill-rule="nonzero"></path>
        <path d="M355.13,40.004 L356.264,40.004 L356.264,50 L355.13,50 L355.13,40.004 Z M358.364,40.004 L361.948,40.004 C363.53,40.004 364.72,40.452 365.532,41.376 C366.274,42.216 366.652,43.434 366.652,45.002 C366.652,46.542 366.246,47.76 365.448,48.628 C364.608,49.538 363.404,50 361.836,50 L358.364,50 L358.364,40.004 Z M359.512,40.998 L359.512,49.006 L361.64,49.006 C362.942,49.006 363.922,48.656 364.58,47.97 C365.196,47.298 365.518,46.304 365.518,45.002 C365.518,43.658 365.224,42.664 364.65,42.02 C364.034,41.334 363.082,40.998 361.766,40.998 L359.512,40.998 Z M371.258,42.566 C372.294,42.566 373.05,42.832 373.554,43.378 C373.974,43.854 374.198,44.512 374.198,45.352 L374.198,50 L373.148,50 L373.148,48.782 C372.868,49.174 372.49,49.496 372.042,49.748 C371.51,50.042 370.908,50.196 370.236,50.196 C369.508,50.196 368.934,50.014 368.5,49.65 C368.052,49.272 367.828,48.782 367.828,48.194 C367.828,47.368 368.15,46.752 368.822,46.332 C369.41,45.94 370.25,45.73 371.342,45.716 L373.078,45.688 L373.078,45.31 C373.078,44.092 372.448,43.49 371.188,43.49 C370.656,43.49 370.222,43.588 369.886,43.812 C369.508,44.036 369.27,44.386 369.158,44.848 L368.052,44.764 C368.206,44.008 368.584,43.434 369.172,43.07 C369.704,42.734 370.39,42.566 371.258,42.566 Z M373.078,46.528 L371.412,46.556 C369.788,46.584 368.976,47.116 368.976,48.166 C368.976,48.502 369.102,48.768 369.382,48.992 C369.662,49.202 370.026,49.314 370.474,49.314 C371.16,49.314 371.762,49.09 372.294,48.642 C372.812,48.208 373.078,47.704 373.078,47.144 L373.078,46.528 Z M379.084,42.566 C380.12,42.566 380.876,42.832 381.38,43.378 C381.8,43.854 382.024,44.512 382.024,45.352 L382.024,50 L380.974,50 L380.974,48.782 C380.694,49.174 380.316,49.496 379.868,49.748 C379.336,50.042 378.734,50.196 378.062,50.196 C377.334,50.196 376.76,50.014 376.326,49.65 C375.878,49.272 375.654,48.782 375.654,48.194 C375.654,47.368 375.976,46.752 376.648,46.332 C377.236,45.94 378.076,45.73 379.168,45.716 L380.904,45.688 L380.904,45.31 C380.904,44.092 380.274,43.49 379.014,43.49 C378.482,43.49 378.048,43.588 377.712,43.812 C377.334,44.036 377.096,44.386 376.984,44.848 L375.878,44.764 C376.032,44.008 376.41,43.434 376.998,43.07 C377.53,42.734 378.216,42.566 379.084,42.566 Z M380.904,46.528 L379.238,46.556 C377.614,46.584 376.802,47.116 376.802,48.166 C376.802,48.502 376.928,48.768 377.208,48.992 C377.488,49.202 377.852,49.314 378.3,49.314 C378.986,49.314 379.588,49.09 380.12,48.642 C380.638,48.208 380.904,47.704 380.904,47.144 L380.904,46.528 Z M386.322,42.566 C388.114,42.566 389.094,43.308 389.29,44.82 L388.198,44.82 C388.1,44.372 387.918,44.036 387.638,43.84 C387.33,43.616 386.882,43.504 386.308,43.504 C385.804,43.504 385.412,43.588 385.132,43.784 C384.824,43.966 384.67,44.218 384.67,44.54 C384.67,44.848 384.866,45.114 385.286,45.324 C385.552,45.45 386.056,45.604 386.784,45.8 C387.652,46.01 388.268,46.234 388.646,46.472 C389.22,46.836 389.514,47.326 389.514,47.956 C389.514,49.44 388.492,50.196 386.448,50.196 C384.544,50.196 383.508,49.356 383.34,47.69 L384.432,47.69 C384.516,48.264 384.726,48.67 385.034,48.922 C385.342,49.146 385.804,49.258 386.42,49.258 C387.708,49.258 388.366,48.838 388.366,48.026 C388.366,47.62 388.128,47.312 387.68,47.088 C387.442,46.976 386.924,46.822 386.14,46.626 C385.286,46.416 384.684,46.206 384.348,45.982 C383.788,45.646 383.522,45.184 383.522,44.568 C383.522,43.952 383.788,43.476 384.334,43.112 C384.838,42.748 385.51,42.566 386.322,42.566 Z" id="IDaas" fill="#333333" fill-rule="nonzero"></path>
        <text id="….." font-family="PingFangSC-Semibold, PingFang SC" font-size="14" font-weight="500" fill="#333333">
            <tspan x="456.15" y="298">…..</tspan>
        </text>
        <path id="直线-7" d="M632.5,278.5 L613,278.5 C610.514719,278.5 608.5,276.485281 608.5,274 L608.5,251 C608.5,249.067003 606.932997,247.5 605,247.5 L571.293551,247.5 L571.137186,247.312856 C571.030333,247.184968 570.912066,247.067067 570.783848,246.960611 C569.616306,245.991222 567.883983,246.151857 566.914595,247.319399 L566.764645,247.5 L528.835937,247.5 L528.835937,246.5 L566.305085,246.5 C567.651119,245.073361 569.892496,244.920781 571.422645,246.191236 C571.538576,246.287491 571.648542,246.390605 571.751963,246.5 L605,246.5 C607.485281,246.5 609.5,248.514719 609.5,251 L609.5,274 C609.5,275.932997 611.067003,277.5 613,277.5 L632.5,277.5 L632.5,273.5 L641.5,278 L632.5,282.5 L632.5,278.5 Z" fill="#979797" fill-rule="nonzero"></path>
        <path id="直线-7复制-2" d="M632.5,217.5 L613,217.5 C610.514719,217.5 608.5,215.485281 608.5,213 L608.5,131 C608.5,129.067003 606.932997,127.5 605,127.5 L528.835938,127.5 L528.835938,126.5 L605,126.5 C607.485281,126.5 609.5,128.514719 609.5,131 L609.5,213 C609.5,214.932997 611.067003,216.5 613,216.5 L632.5,216.5 L632.5,212.5 L641.5,217 L632.5,221.5 L632.5,217.5 Z" fill="#979797" fill-rule="nonzero"></path>
        <path d="M529.335938,247 L566.498535,247 L566.535872,246.956167 C567.69953,245.590062 569.750307,245.425946 571.116413,246.589603 C571.262697,246.714209 571.39764,246.851547 571.519653,247 L571.519653,247 L605,247 C607.209139,247 609,245.209139 609,243 L609,156" id="直线-7" stroke="#979797" stroke-linecap="square"></path>
        <path id="直线-7" d="M632.5,156.5 L610.734009,156.5 L610.445497,156.5 L610.301118,156.250212 C610.17114,156.025337 609.987406,155.83622 609.766378,155.699804 C609.028449,155.244364 608.061032,155.473366 607.605592,156.211295 L607.427407,156.5 L573,156.5 C571.067003,156.5 569.5,158.067003 569.5,160 L569.5,182 C569.5,184.485281 567.485281,186.5 565,186.5 L528.835938,186.5 L528.835938,185.5 L565,185.5 C566.932997,185.5 568.5,183.932997 568.5,182 L568.5,160 C568.5,157.514719 570.514719,155.5 573,155.5 L606.880846,155.5 C607.667943,154.441385 609.148091,154.14308 610.291588,154.848831 C610.568243,155.01958 610.809205,155.24077 611.002423,155.5 L632.5,155.5 L632.5,151.5 L641.5,156 L632.5,160.5 L632.5,156.5 Z" fill="#979797" fill-rule="nonzero"></path>
        <path id="直线-7复制" d="M632.5,95.5 L613,95.5 C611.067003,95.5 609.5,97.0670034 609.5,99 L609.5,123 C609.5,125.485281 607.485281,127.5 605,127.5 L529.335938,127.5 L528.835938,127.5 L528.835938,126.5 L605,126.5 C606.932997,126.5 608.5,124.932997 608.5,123 L608.5,99 C608.5,96.5147186 610.514719,94.5 613,94.5 L632.5,94.5 L632.5,90.5 L641.5,95 L632.5,99.5 L632.5,95.5 Z" fill="#979797" fill-rule="nonzero"></path>
        <path id="直线-7" d="M632.5,278.5 L573,278.5 C570.514719,278.5 568.5,276.485281 568.5,274 L568.5,190 C568.5,188.067003 566.932997,186.5 565,186.5 L528.835937,186.5 L528.835937,185.5 L565,185.5 C567.485281,185.5 569.5,187.514719 569.5,190 L569.5,274 C569.5,275.932997 571.067003,277.5 573,277.5 L632.5,277.5 L632.5,273.5 L641.5,278 L632.5,282.5 L632.5,278.5 Z" fill="#979797" fill-rule="nonzero"></path>
        <rect id="矩形" fill="#EAEBEC" x="0" y="140" width="187" height="108"></rect>
        <g id="分组-3-copy" transform="translate(34.000000, 169.000000)">
            <g id="Fill-2-Copy-3">
                <use fill="black" fill-opacity="1" filter="url(#filter-16)" xlink:href="#path-15"></use>
                <use fill="#FFFFFF" fill-rule="evenodd" xlink:href="#path-15"></use>
            </g>
            <path d="M50.004,24.092 L50.004,26.836 L43.018,26.836 L43.018,27.802 L50.648,27.802 L50.648,31.4 L49.654,31.4 L49.654,30.812 L43.018,30.812 L43.018,31.386 L42.01,31.386 L42.01,24.092 L50.004,24.092 Z M43.018,29.916 L49.654,29.916 L49.654,28.614 L43.018,28.614 L43.018,29.916 Z M43.018,26.024 L49.024,26.024 L49.024,24.904 L43.018,24.904 L43.018,26.024 Z M51.936,22.398 L51.936,24.932 L50.956,24.932 L50.956,23.266 L41.044,23.266 L41.044,24.932 L40.064,24.932 L40.064,22.398 L45.608,22.398 C45.468,22.062 45.328,21.768 45.174,21.488 L46.154,21.32 L46.07,21.264 C46.742,20.424 47.218,19.514 47.526,18.506 L48.492,18.716 C48.394,19.01 48.296,19.29 48.184,19.57 L52.23,19.57 L52.23,20.452 L49.738,20.452 C50.032,20.844 50.27,21.208 50.438,21.544 L49.542,21.88 C49.29,21.376 48.996,20.9 48.66,20.452 L47.778,20.452 C47.526,20.928 47.232,21.376 46.924,21.796 L46.168,21.334 C46.322,21.656 46.476,22.006 46.616,22.398 L51.936,22.398 Z M41.744,20.452 C41.408,20.998 41.044,21.502 40.624,21.964 L39.742,21.404 C40.582,20.536 41.198,19.556 41.59,18.492 L42.556,18.702 C42.444,19.01 42.318,19.29 42.206,19.57 L45.958,19.57 L45.958,20.452 L43.606,20.452 C43.914,20.872 44.18,21.278 44.376,21.656 L43.452,22.006 C43.2,21.474 42.892,20.956 42.542,20.452 L41.744,20.452 Z M58.824,19.122 L65.67,19.122 L65.67,25.59 L62.758,25.59 L62.758,27.242 L65.908,27.242 L65.908,28.194 L62.758,28.194 L62.758,30.014 L66.426,30.014 L66.426,30.98 L57.998,30.98 L57.998,30.014 L61.75,30.014 L61.75,28.194 L58.586,28.194 L58.586,27.242 L61.75,27.242 L61.75,25.59 L58.824,25.59 L58.824,19.122 Z M64.704,24.694 L64.704,22.804 L62.758,22.804 L62.758,24.694 L64.704,24.694 Z M61.75,24.694 L61.75,22.804 L59.79,22.804 L59.79,24.694 L61.75,24.694 Z M59.79,21.922 L61.75,21.922 L61.75,20.018 L59.79,20.018 L59.79,21.922 Z M62.758,20.018 L62.758,21.922 L64.704,21.922 L64.704,20.018 L62.758,20.018 Z M53.882,23.756 L55.408,23.756 L55.408,20.438 L53.686,20.438 L53.686,19.486 L58.152,19.486 L58.152,20.438 L56.444,20.438 L56.444,23.756 L57.984,23.756 L57.984,24.722 L56.444,24.722 L56.444,27.9 C56.976,27.718 57.48,27.522 57.984,27.298 L57.984,28.278 C56.696,28.81 55.31,29.258 53.826,29.622 L53.574,28.656 C54.19,28.544 54.806,28.404 55.408,28.236 L55.408,24.722 L53.882,24.722 L53.882,23.756 Z M78.718,23.644 L78.718,28.866 L77.724,28.866 L77.724,24.568 L70.29,24.568 L70.29,29.034 L69.296,29.034 L69.296,23.644 L78.718,23.644 Z M70.136,19.08 L77.878,19.08 L77.878,22.594 L70.136,22.594 L70.136,19.08 Z M76.898,21.712 L76.898,19.976 L71.116,19.976 L71.116,21.712 L76.898,21.712 Z M73.622,25.478 L74.644,25.562 C74.448,27.62 74.014,29.006 73.342,29.734 C72.614,30.602 70.948,31.162 68.344,31.4 L67.952,30.49 C70.22,30.35 71.732,29.902 72.474,29.132 C73.118,28.418 73.51,27.2 73.622,25.478 Z M75.008,28.726 C76.828,29.244 78.494,29.874 80.006,30.602 L79.46,31.442 C77.85,30.602 76.198,29.958 74.504,29.482 L75.008,28.726 Z" id="管理员" fill="#333333" fill-rule="nonzero"></path>
        </g>
        <polygon id="直线-copy-2复制" fill="#979797" fill-rule="nonzero" points="180.498201 194 180 194 180 193 180.498201 193 297.032389 193 297.032389 189 306 193.5 297.032389 198 297.032389 194"></polygon>
    </g>
</svg>