<?xml version="1.0" encoding="utf-8"?>
<!-- Generator: Adobe Illustrator 22.0.0, SVG Export Plug-In . SVG Version: 6.00 Build 0)  -->
<svg version="1.1" id="图层_1" xmlns="http://www.w3.org/2000/svg" xmlns:xlink="http://www.w3.org/1999/xlink" x="0px" y="0px"
	 width="830px" height="400px" viewBox="0 0 830 400" style="enable-background:new 0 0 830 400;" xml:space="preserve">
<g>
	<g>
		<rect x="38.4" y="118" style="fill:#EAEBEC;" width="192.4" height="164"/>
		<g>
			<g style="enable-background:new    ;">
				<path style="fill:#444444;" d="M56.4,146.4l-0.8-0.7c0.6-1.3,0.8-2.9,0.9-4.8v-6.7h4.1V145c0,0.8-0.4,1.3-1.2,1.3h-1.1l-0.2-0.9
					c0.4,0,0.7,0.1,1.1,0.1c0.4,0,0.5-0.3,0.5-0.8v-3.2h-2.3C57.3,143.5,57,145.1,56.4,146.4z M59.7,135h-2.3v2.4h2.3V135z
					 M57.4,140.7h2.3v-2.3h-2.3V140.7z M62.7,146.4h-1v-12.3h5.7c0,1.7-0.1,2.9-0.3,3.4c-0.2,0.6-0.7,0.9-1.6,0.9h-1.1l-0.3-0.9
					c0.2,0,0.5,0,0.9,0c0.3,0,0.6,0,0.7-0.1c0.2-0.1,0.3-0.2,0.4-0.4c0.1-0.3,0.2-1,0.2-2.1h-3.7v4.2h4.8v0.9
					c-0.3,1.4-0.7,2.7-1.4,3.7c0.6,0.6,1.4,1.2,2.2,1.7l-0.5,0.9c-0.9-0.5-1.7-1.1-2.3-1.7c-0.6,0.7-1.3,1.3-2.2,1.7l-0.5-0.8
					c0.8-0.4,1.5-1,2-1.7c-0.9-1.1-1.5-2.3-1.8-3.7h-0.3V146.4z M65.5,143.1c0.5-0.8,0.9-1.8,1.1-2.9h-2.7
					C64.2,141.3,64.7,142.2,65.5,143.1z"/>
				<path style="fill:#444444;" d="M74.7,133.6c-0.2,0.4-0.3,0.7-0.5,1.1h6.1v0.8c-0.9,1-2,1.9-3.3,2.6c1.6,0.7,3.3,1.1,5.3,1.3
					l-0.5,0.9c-2.2-0.3-4.2-0.8-5.9-1.7c-1.7,0.8-3.7,1.4-6,1.7l-0.5-1c2-0.3,3.8-0.7,5.4-1.3c-0.8-0.5-1.5-1-2.2-1.6
					c-0.5,0.5-1.1,0.9-1.8,1.3l-0.6-0.8c1.7-1,2.8-2.1,3.4-3.5L74.7,133.6z M76,139.7c0,0.6-0.1,1.1-0.1,1.6h4.9
					c0,2.4-0.2,3.8-0.6,4.2c-0.4,0.5-1.1,0.7-2.1,0.7c-0.4,0-1,0-1.6-0.1l-0.3-0.9l1.7,0.1c0.8,0,1.4-0.2,1.6-0.5
					c0.2-0.3,0.3-1.2,0.4-2.6h-4.1c-0.1,0.4-0.3,0.7-0.4,1c-0.7,1.3-2.4,2.3-4.9,3.1l-0.7-0.8c2.3-0.7,3.8-1.5,4.6-2.5
					c0.2-0.3,0.3-0.5,0.4-0.8h-4.2v-0.9h4.5c0.1-0.5,0.2-1,0.2-1.6H76z M78.9,135.6h-5.4l-0.2,0.2c0.8,0.7,1.7,1.3,2.6,1.8
					C77,137.1,78,136.4,78.9,135.6z"/>
				<path style="fill:#444444;" d="M89.8,136.4c0.5,0.9,0.8,2.1,0.8,3.6s-0.3,2.7-0.8,3.6c-0.6,1.1-1.5,1.6-2.7,1.6
					c-1.2,0-2.1-0.5-2.7-1.6c-0.5-0.9-0.8-2.1-0.8-3.6s0.3-2.7,0.8-3.6c0.6-1.1,1.5-1.6,2.7-1.6C88.3,134.8,89.2,135.3,89.8,136.4z
					 M85.1,137.2c-0.3,0.7-0.4,1.6-0.4,2.8c0,1.2,0.1,2.1,0.4,2.8c0.4,1,1,1.4,1.9,1.4s1.5-0.5,1.9-1.4c0.3-0.7,0.4-1.6,0.4-2.8
					c0-1.2-0.2-2.1-0.4-2.8c-0.4-1-1-1.4-1.9-1.4S85.5,136.2,85.1,137.2z"/>
			</g>
		</g>
		<g>
			<g>
				<rect x="56.9" y="167.2" style="opacity:0.6;fill:#BBBBBB;enable-background:new    ;" width="156" height="96"/>
				<rect x="54.9" y="165.2" style="fill:#FFFFFF;stroke:#E5E5E5;" width="156" height="96"/>
			</g>
			<g style="enable-background:new    ;">
				<path style="fill:#444444;" d="M98.2,188.9h2v1.1h-2v5.3c0,0.3,0,0.5,0.2,0.7c0.1,0.1,0.3,0.2,0.6,0.2h1.1v1.1h-1.2
					c-0.7,0-1.2-0.2-1.5-0.5c-0.3-0.3-0.4-0.8-0.4-1.4V190h-1.7v-1.1h1.7v-2.1l1.3-0.5V188.9z"/>
				<path style="fill:#444444;" d="M106.4,188.9v1.3c-0.4-0.1-0.8-0.2-1.2-0.2c-0.6,0-1.2,0.3-1.6,0.8c-0.4,0.5-0.7,1.2-0.7,2v4.4
					h-1.3v-8.3h1.3v1.4c0.2-0.5,0.5-0.9,0.9-1.1c0.4-0.4,0.9-0.5,1.5-0.5C105.8,188.7,106.1,188.8,106.4,188.9z"/>
				<path style="fill:#444444;" d="M113.7,189.6c0.5,0.5,0.7,1.3,0.7,2.3v5.3h-1.2v-1.4c-0.3,0.4-0.8,0.8-1.3,1.1
					c-0.6,0.3-1.3,0.5-2.1,0.5c-0.8,0-1.5-0.2-2-0.6c-0.5-0.4-0.8-1-0.8-1.7c0-0.9,0.4-1.6,1.1-2.1c0.7-0.4,1.6-0.7,2.9-0.7l2,0
					v-0.4c0-1.4-0.7-2.1-2.2-2.1c-0.6,0-1.1,0.1-1.5,0.4c-0.4,0.3-0.7,0.7-0.8,1.2l-1.3-0.1c0.2-0.9,0.6-1.5,1.3-1.9
					c0.6-0.4,1.4-0.6,2.4-0.6C112.3,188.7,113.2,189,113.7,189.6z M111.3,193.3c-1.9,0-2.8,0.6-2.8,1.8c0,0.4,0.1,0.7,0.5,0.9
					c0.3,0.2,0.7,0.4,1.2,0.4c0.8,0,1.5-0.3,2.1-0.8c0.6-0.5,0.9-1.1,0.9-1.7v-0.7L111.3,193.3z"/>
				<path style="fill:#444444;" d="M122.5,189.4c0.6,0.5,1,1.2,1.2,2.3h-1.3c-0.1-0.6-0.4-1.1-0.8-1.4c-0.4-0.3-0.9-0.5-1.6-0.5
					c-0.8,0-1.4,0.3-1.9,0.9c-0.4,0.6-0.7,1.4-0.7,2.4c0,1,0.2,1.8,0.7,2.4c0.4,0.6,1.1,0.9,1.9,0.9c1.4,0,2.2-0.7,2.4-2.1h1.3
					c-0.2,1.1-0.6,1.9-1.2,2.4c-0.6,0.5-1.4,0.8-2.5,0.8c-1.2,0-2.2-0.4-2.9-1.2c-0.7-0.8-1-1.8-1-3.1s0.3-2.3,1-3.1
					c0.7-0.9,1.7-1.3,2.9-1.3C121,188.7,121.9,189,122.5,189.4z"/>
				<path style="fill:#444444;" d="M131.6,190.1c0.6,0.8,0.9,1.9,1,3.4h-6.5c0.1,0.9,0.3,1.6,0.8,2.2c0.4,0.5,1.1,0.8,1.9,0.8
					c0.7,0,1.2-0.2,1.6-0.5c0.4-0.3,0.6-0.7,0.8-1.3h1.3c-0.2,0.8-0.6,1.4-1.1,2c-0.7,0.6-1.6,0.9-2.6,0.9c-1.2,0-2.1-0.4-2.8-1.2
					c-0.7-0.8-1.1-1.9-1.1-3.2c0-1.2,0.3-2.2,1-3.1c0.7-0.9,1.6-1.3,2.8-1.3C129.9,188.7,131,189.2,131.6,190.1z M126.9,190.5
					c-0.4,0.5-0.7,1.1-0.8,1.9h5.2c-0.2-1.8-1-2.7-2.6-2.7C127.9,189.8,127.3,190,126.9,190.5z"/>
				<path style="fill:#444444;" d="M135.8,186.1c0.2,0.2,0.3,0.4,0.3,0.7c0,0.3-0.1,0.5-0.3,0.7c-0.2,0.2-0.4,0.3-0.7,0.3
					s-0.5-0.1-0.7-0.3c-0.2-0.2-0.3-0.4-0.3-0.7c0-0.3,0.1-0.5,0.3-0.7c0.2-0.2,0.4-0.3,0.7-0.3S135.6,185.9,135.8,186.1z
					 M135.8,188.9v8.3h-1.3v-8.3H135.8z"/>
				<path style="fill:#444444;" d="M145.6,185.6v11.7h-1.2v-1.4c-0.6,1.1-1.5,1.6-2.8,1.6c-1.2,0-2.2-0.4-2.8-1.3
					c-0.6-0.8-0.9-1.8-0.9-3.1c0-1.2,0.3-2.2,0.9-3c0.7-0.9,1.6-1.3,2.8-1.3s2.1,0.6,2.7,1.7v-4.9H145.6z M139.8,190.7
					c-0.4,0.6-0.6,1.3-0.6,2.3c0,1,0.2,1.8,0.6,2.4c0.4,0.6,1.1,1,2,1c0.8,0,1.5-0.3,1.9-1c0.4-0.6,0.6-1.3,0.6-2.3V193
					c0-1-0.2-1.7-0.7-2.3c-0.5-0.6-1.1-0.9-1.8-0.9C140.9,189.8,140.2,190.1,139.8,190.7z"/>
				<path style="fill:#444444;" d="M151.3,187.8c0.2,0.2,0.3,0.4,0.3,0.7c0,0.3-0.1,0.5-0.3,0.7c-0.2,0.2-0.4,0.3-0.7,0.3
					c-0.3,0-0.5-0.1-0.7-0.3s-0.3-0.4-0.3-0.7c0-0.3,0.1-0.5,0.3-0.7c0.2-0.2,0.4-0.3,0.7-0.3C150.8,187.5,151.1,187.6,151.3,187.8z
					 M151.3,193.6c0.2,0.2,0.3,0.4,0.3,0.7c0,0.3-0.1,0.5-0.3,0.7c-0.2,0.2-0.4,0.3-0.7,0.3c-0.3,0-0.5-0.1-0.7-0.3
					s-0.3-0.4-0.3-0.7c0-0.3,0.1-0.5,0.3-0.7c0.2-0.2,0.4-0.3,0.7-0.3C150.8,193.3,151.1,193.4,151.3,193.6z"/>
				<path style="fill:#444444;" d="M164.6,185.8l3.1,4.5l3.1-4.5h1.6l-3.9,5.5l4.2,5.9h-1.6l-3.4-4.9l-3.4,4.9h-1.6l4.2-5.9
					l-3.9-5.5H164.6z"/>
				<path style="fill:#444444;" d="M102.3,213.3h-1.2c-0.1-0.5-0.3-0.9-0.6-1.1c-0.4-0.3-0.9-0.4-1.5-0.4c-0.6,0-1,0.1-1.3,0.3
					c-0.4,0.2-0.5,0.5-0.5,0.9c0,0.4,0.2,0.7,0.7,0.9c0.3,0.1,0.9,0.3,1.7,0.5c1,0.2,1.7,0.5,2.1,0.8c0.7,0.4,1,1,1,1.7
					c0,1.7-1.2,2.6-3.5,2.6c-2.2,0-3.4-1-3.6-2.9h1.2c0.1,0.7,0.3,1.1,0.7,1.4c0.4,0.3,0.9,0.4,1.6,0.4c1.5,0,2.2-0.5,2.2-1.4
					c0-0.5-0.3-0.8-0.8-1.1c-0.3-0.1-0.9-0.3-1.8-0.5c-1-0.2-1.7-0.5-2-0.7c-0.6-0.4-0.9-0.9-0.9-1.6c0-0.7,0.3-1.2,0.9-1.7
					c0.6-0.4,1.3-0.6,2.3-0.6C101,210.7,102.1,211.6,102.3,213.3z"/>
				<path style="fill:#444444;" d="M110.8,212c0.6,0.8,0.9,1.8,0.9,3.1c0,1.2-0.3,2.2-0.9,3c-0.7,0.9-1.6,1.3-2.8,1.3
					c-1.2,0-2.1-0.6-2.7-1.7v4.7h-1.3v-11.4h1.2v1.4c0.6-1.1,1.5-1.6,2.8-1.6C109.2,210.7,110.2,211.2,110.8,212z M105.9,212.8
					c-0.4,0.6-0.6,1.3-0.6,2.3v0.2c0,1,0.2,1.7,0.7,2.3c0.4,0.6,1,0.9,1.8,0.9c0.9,0,1.6-0.3,2-0.9c0.4-0.6,0.6-1.4,0.6-2.4
					c0-1-0.2-1.8-0.6-2.3c-0.5-0.7-1.1-1-2-1C107,211.8,106.4,212.1,105.9,212.8z"/>
				<path style="fill:#444444;" d="M119.7,211.6c0.5,0.5,0.7,1.3,0.7,2.3v5.3h-1.2v-1.4c-0.3,0.4-0.8,0.8-1.3,1.1
					c-0.6,0.3-1.3,0.5-2.1,0.5c-0.8,0-1.5-0.2-2-0.6c-0.5-0.4-0.8-1-0.8-1.7c0-0.9,0.4-1.6,1.1-2.1c0.7-0.4,1.6-0.7,2.9-0.7l2,0
					v-0.4c0-1.4-0.7-2.1-2.2-2.1c-0.6,0-1.1,0.1-1.5,0.4c-0.4,0.3-0.7,0.7-0.8,1.2l-1.3-0.1c0.2-0.9,0.6-1.5,1.3-1.9
					c0.6-0.4,1.4-0.6,2.4-0.6C118.2,210.7,119.1,211,119.7,211.6z M117.2,215.3c-1.9,0-2.8,0.6-2.8,1.8c0,0.4,0.1,0.7,0.5,0.9
					c0.3,0.2,0.7,0.4,1.2,0.4c0.8,0,1.5-0.3,2.1-0.8c0.6-0.5,0.9-1.1,0.9-1.7v-0.7L117.2,215.3z"/>
				<path style="fill:#444444;" d="M129.4,214.1v5.1h-1.3v-5c0-1.6-0.7-2.4-2.2-2.4c-0.6,0-1.1,0.2-1.5,0.6c-0.4,0.4-0.7,1-0.7,1.8
					v5h-1.3v-8.3h1.3v1.2c0.3-0.5,0.7-0.8,1.1-1.1c0.4-0.3,0.9-0.4,1.5-0.4C128.3,210.7,129.4,211.9,129.4,214.1z"/>
				<path style="fill:#444444;" d="M133.1,208.1c0.2,0.2,0.3,0.4,0.3,0.7c0,0.3-0.1,0.5-0.3,0.7c-0.2,0.2-0.4,0.3-0.7,0.3
					s-0.5-0.1-0.7-0.3c-0.2-0.2-0.3-0.4-0.3-0.7c0-0.3,0.1-0.5,0.3-0.7c0.2-0.2,0.4-0.3,0.7-0.3S132.9,207.9,133.1,208.1z
					 M133,210.9v8.3h-1.3v-8.3H133z"/>
				<path style="fill:#444444;" d="M142.8,207.6v11.7h-1.2v-1.4c-0.6,1.1-1.5,1.6-2.8,1.6c-1.2,0-2.2-0.4-2.8-1.3
					c-0.6-0.8-0.9-1.8-0.9-3.1c0-1.2,0.3-2.2,0.9-3c0.7-0.9,1.6-1.3,2.8-1.3s2.1,0.6,2.7,1.7v-4.9H142.8z M137,212.7
					c-0.4,0.6-0.6,1.3-0.6,2.3c0,1,0.2,1.8,0.6,2.4c0.4,0.6,1.1,1,2,1c0.8,0,1.5-0.3,1.9-1c0.4-0.6,0.6-1.3,0.6-2.3V215
					c0-1-0.2-1.7-0.7-2.3c-0.5-0.6-1.1-0.9-1.8-0.9C138.2,211.8,137.5,212.1,137,212.7z"/>
				<path style="fill:#444444;" d="M148.5,209.8c0.2,0.2,0.3,0.4,0.3,0.7c0,0.3-0.1,0.5-0.3,0.7c-0.2,0.2-0.4,0.3-0.7,0.3
					c-0.3,0-0.5-0.1-0.7-0.3s-0.3-0.4-0.3-0.7c0-0.3,0.1-0.5,0.3-0.7c0.2-0.2,0.4-0.3,0.7-0.3C148.1,209.5,148.3,209.6,148.5,209.8z
					 M148.5,215.6c0.2,0.2,0.3,0.4,0.3,0.7c0,0.3-0.1,0.5-0.3,0.7c-0.2,0.2-0.4,0.3-0.7,0.3c-0.3,0-0.5-0.1-0.7-0.3
					s-0.3-0.4-0.3-0.7c0-0.3,0.1-0.5,0.3-0.7c0.2-0.2,0.4-0.3,0.7-0.3C148.1,215.3,148.3,215.4,148.5,215.6z"/>
				<path style="fill:#444444;" d="M165.8,207.8l4.5,11.4h-1.4l-1.2-3.2h-5.2l-1.2,3.2h-1.4l4.5-11.4H165.8z M167.3,214.9l-2.2-5.7
					H165l-2.2,5.7H167.3z"/>
				<path style="fill:#444444;" d="M102,233.4c0.6,0.5,1,1.2,1.2,2.3h-1.3c-0.1-0.6-0.4-1.1-0.8-1.4c-0.4-0.3-0.9-0.5-1.6-0.5
					c-0.8,0-1.4,0.3-1.9,0.9c-0.4,0.6-0.7,1.4-0.7,2.4c0,1,0.2,1.8,0.7,2.4c0.4,0.6,1.1,0.9,1.9,0.9c1.4,0,2.2-0.7,2.4-2.1h1.3
					c-0.2,1.1-0.6,1.9-1.2,2.4c-0.6,0.5-1.4,0.8-2.5,0.8c-1.2,0-2.2-0.4-2.9-1.2c-0.7-0.8-1-1.8-1-3.1s0.3-2.3,1-3.1
					c0.7-0.9,1.7-1.3,2.9-1.3C100.6,232.7,101.4,233,102,233.4z"/>
				<path style="fill:#444444;" d="M111.1,235.3h-1.2c-0.1-0.5-0.3-0.9-0.6-1.1c-0.4-0.3-0.9-0.4-1.5-0.4c-0.6,0-1,0.1-1.3,0.3
					c-0.4,0.2-0.5,0.5-0.5,0.9c0,0.4,0.2,0.7,0.7,0.9c0.3,0.1,0.9,0.3,1.7,0.5c1,0.2,1.7,0.5,2.1,0.8c0.7,0.4,1,1,1,1.7
					c0,1.7-1.2,2.6-3.5,2.6c-2.2,0-3.4-1-3.6-2.9h1.2c0.1,0.7,0.3,1.1,0.7,1.4c0.4,0.3,0.9,0.4,1.6,0.4c1.5,0,2.2-0.5,2.2-1.4
					c0-0.5-0.3-0.8-0.8-1.1c-0.3-0.1-0.9-0.3-1.8-0.5c-1-0.2-1.7-0.5-2-0.7c-0.6-0.4-0.9-0.9-0.9-1.6c0-0.7,0.3-1.2,0.9-1.7
					c0.6-0.4,1.3-0.6,2.3-0.6C109.7,232.7,110.8,233.6,111.1,235.3z"/>
				<path style="fill:#444444;" d="M116.4,240.6c0.5,0.5,1,1.1,1.4,1.6l-0.8,0.7c-0.4-0.5-0.8-1.1-1.4-1.6c-0.6-0.6-1.2-1.2-1.8-1.6
					l0.7-0.7C115.2,239.4,115.8,239.9,116.4,240.6z"/>
				<path style="fill:#444444;" d="M134.9,233.4c0.6,0.5,1,1.2,1.2,2.3h-1.3c-0.1-0.6-0.4-1.1-0.8-1.4c-0.4-0.3-0.9-0.5-1.6-0.5
					c-0.8,0-1.4,0.3-1.9,0.9c-0.4,0.6-0.7,1.4-0.7,2.4c0,1,0.2,1.8,0.7,2.4c0.4,0.6,1.1,0.9,1.9,0.9c1.4,0,2.2-0.7,2.4-2.1h1.3
					c-0.2,1.1-0.6,1.9-1.2,2.4c-0.6,0.5-1.4,0.8-2.5,0.8c-1.2,0-2.2-0.4-2.9-1.2c-0.7-0.8-1-1.8-1-3.1s0.3-2.3,1-3.1
					c0.7-0.9,1.7-1.3,2.9-1.3C133.4,232.7,134.2,233,134.9,233.4z"/>
				<path style="fill:#444444;" d="M142.3,232.9v1.3c-0.4-0.1-0.8-0.2-1.2-0.2c-0.6,0-1.2,0.3-1.6,0.8c-0.4,0.5-0.7,1.2-0.7,2v4.4
					h-1.3v-8.3h1.3v1.4c0.2-0.5,0.5-0.9,0.9-1.1c0.4-0.4,0.9-0.5,1.5-0.5C141.7,232.7,142,232.8,142.3,232.9z"/>
			</g>
		</g>
	</g>
	<g>
		<rect x="318.8" y="2.7" style="fill:#EAEBEC;" width="192.4" height="394.7"/>
		<g>
			<g style="enable-background:new    ;">
				<path style="fill:#444444;" d="M336.8,31l-0.8-0.7c0.6-1.3,0.8-2.9,0.9-4.8v-6.7h4.1v10.9c0,0.8-0.4,1.3-1.2,1.3h-1.1l-0.2-0.9
					c0.4,0,0.7,0.1,1.1,0.1c0.4,0,0.5-0.3,0.5-0.8v-3.2h-2.3C337.7,28.2,337.4,29.8,336.8,31z M340,19.7h-2.3V22h2.3V19.7z
					 M337.8,25.3h2.3V23h-2.3V25.3z M343.1,31h-1V18.8h5.7c0,1.7-0.1,2.9-0.3,3.4c-0.2,0.6-0.7,0.9-1.6,0.9h-1.1l-0.3-0.9
					c0.2,0,0.5,0,0.9,0c0.3,0,0.6,0,0.7-0.1c0.2-0.1,0.3-0.2,0.4-0.4c0.1-0.3,0.2-1,0.2-2.1h-3.7v4.2h4.8v0.9
					c-0.3,1.4-0.7,2.7-1.4,3.7c0.6,0.6,1.4,1.2,2.2,1.7l-0.5,0.9c-0.9-0.5-1.7-1.1-2.3-1.7c-0.6,0.7-1.3,1.3-2.2,1.7l-0.5-0.8
					c0.8-0.4,1.5-1,2-1.7c-0.9-1.1-1.5-2.3-1.8-3.7h-0.3V31z M345.8,27.7c0.5-0.8,0.9-1.8,1.1-2.9h-2.7
					C344.6,25.9,345.1,26.9,345.8,27.7z"/>
				<path style="fill:#444444;" d="M355.1,18.3c-0.2,0.4-0.3,0.7-0.5,1.1h6.1v0.8c-0.9,1-2,1.9-3.3,2.6c1.6,0.7,3.3,1.1,5.3,1.3
					l-0.5,0.9c-2.2-0.3-4.2-0.8-5.9-1.7c-1.7,0.8-3.7,1.4-6,1.7l-0.5-1c2-0.3,3.8-0.7,5.4-1.3c-0.8-0.5-1.5-1-2.2-1.6
					c-0.5,0.5-1.1,0.9-1.8,1.3l-0.6-0.8c1.7-1,2.8-2.1,3.4-3.5L355.1,18.3z M356.4,24.4c0,0.6-0.1,1.1-0.1,1.6h4.9
					c0,2.4-0.2,3.8-0.6,4.2c-0.4,0.5-1.1,0.7-2.1,0.7c-0.4,0-1,0-1.6-0.1l-0.3-0.9l1.7,0.1c0.8,0,1.4-0.2,1.6-0.5
					c0.2-0.3,0.3-1.2,0.4-2.6H356c-0.1,0.4-0.3,0.7-0.4,1c-0.7,1.3-2.4,2.3-4.9,3.1l-0.7-0.8c2.3-0.7,3.8-1.5,4.6-2.5
					c0.2-0.3,0.3-0.5,0.4-0.8h-4.2V26h4.5c0.1-0.5,0.2-1,0.2-1.6H356.4z M359.2,20.3h-5.4l-0.2,0.2c0.8,0.7,1.7,1.3,2.6,1.8
					C357.4,21.7,358.4,21,359.2,20.3z"/>
				<path style="fill:#444444;" d="M367.4,19.6v10h-1.1V21c-0.6,0.6-1.4,1.1-2.4,1.4v-1.1c0.4-0.1,0.9-0.3,1.4-0.6
					c0.5-0.3,0.9-0.6,1.2-1H367.4z"/>
			</g>
		</g>
		<g>
			<g>
				<rect x="337.2" y="51.9" style="opacity:0.6;fill:#BBBBBB;enable-background:new    ;" width="156" height="96"/>
				<rect x="335.2" y="49.9" style="fill:#FFFFFF;stroke:#E5E5E5;" width="156" height="96"/>
			</g>
			<g style="enable-background:new    ;">
				<path style="fill:#444444;" d="M378.6,73.6h2v1.1h-2v5.3c0,0.3,0,0.5,0.2,0.7c0.1,0.1,0.3,0.2,0.6,0.2h1.1v1.1h-1.2
					c-0.7,0-1.2-0.2-1.5-0.5c-0.3-0.3-0.4-0.8-0.4-1.4v-5.3h-1.7v-1.1h1.7v-2.1l1.3-0.5V73.6z"/>
				<path style="fill:#444444;" d="M386.8,73.6v1.3c-0.4-0.1-0.8-0.2-1.2-0.2c-0.6,0-1.2,0.3-1.6,0.8c-0.4,0.5-0.7,1.2-0.7,2v4.4
					H382v-8.3h1.3V75c0.2-0.5,0.5-0.9,0.9-1.1c0.4-0.4,0.9-0.5,1.5-0.5C386.1,73.4,386.5,73.4,386.8,73.6z"/>
				<path style="fill:#444444;" d="M394.1,74.3c0.5,0.5,0.7,1.3,0.7,2.3v5.3h-1.2v-1.4c-0.3,0.4-0.8,0.8-1.3,1.1
					c-0.6,0.3-1.3,0.5-2.1,0.5c-0.8,0-1.5-0.2-2-0.6c-0.5-0.4-0.8-1-0.8-1.7c0-0.9,0.4-1.6,1.1-2.1c0.7-0.4,1.6-0.7,2.9-0.7l2,0
					v-0.4c0-1.4-0.7-2.1-2.2-2.1c-0.6,0-1.1,0.1-1.5,0.4c-0.4,0.3-0.7,0.7-0.8,1.2l-1.3-0.1c0.2-0.9,0.6-1.5,1.3-1.9
					c0.6-0.4,1.4-0.6,2.4-0.6C392.7,73.4,393.5,73.7,394.1,74.3z M391.7,77.9c-1.9,0-2.8,0.6-2.8,1.8c0,0.4,0.1,0.7,0.5,0.9
					c0.3,0.2,0.7,0.4,1.2,0.4c0.8,0,1.5-0.3,2.1-0.8c0.6-0.5,0.9-1.1,0.9-1.7v-0.7L391.7,77.9z"/>
				<path style="fill:#444444;" d="M402.9,74.1c0.6,0.5,1,1.2,1.2,2.3h-1.3c-0.1-0.6-0.4-1.1-0.8-1.4c-0.4-0.3-0.9-0.5-1.6-0.5
					c-0.8,0-1.4,0.3-1.9,0.9c-0.4,0.6-0.7,1.4-0.7,2.4c0,1,0.2,1.8,0.7,2.4c0.4,0.6,1.1,0.9,1.9,0.9c1.4,0,2.2-0.7,2.4-2.1h1.3
					c-0.2,1.1-0.6,1.9-1.2,2.4c-0.6,0.5-1.4,0.8-2.5,0.8c-1.2,0-2.2-0.4-2.9-1.2c-0.7-0.8-1-1.8-1-3.1s0.3-2.3,1-3.1
					c0.7-0.9,1.7-1.3,2.9-1.3C401.4,73.4,402.2,73.6,402.9,74.1z"/>
				<path style="fill:#444444;" d="M412,74.7c0.6,0.8,0.9,1.9,1,3.4h-6.5c0.1,0.9,0.3,1.6,0.8,2.2c0.4,0.5,1.1,0.8,1.9,0.8
					c0.7,0,1.2-0.2,1.6-0.5c0.4-0.3,0.6-0.7,0.8-1.3h1.3c-0.2,0.8-0.6,1.4-1.1,2c-0.7,0.6-1.6,0.9-2.6,0.9c-1.2,0-2.1-0.4-2.8-1.2
					c-0.7-0.8-1.1-1.9-1.1-3.2c0-1.2,0.3-2.2,1-3.1c0.7-0.9,1.6-1.3,2.8-1.3C410.3,73.4,411.3,73.8,412,74.7z M407.2,75.2
					c-0.4,0.5-0.7,1.1-0.8,1.9h5.2c-0.2-1.8-1-2.7-2.6-2.7C408.3,74.4,407.7,74.7,407.2,75.2z"/>
				<path style="fill:#444444;" d="M416.2,70.7c0.2,0.2,0.3,0.4,0.3,0.7c0,0.3-0.1,0.5-0.3,0.7c-0.2,0.2-0.4,0.3-0.7,0.3
					c-0.3,0-0.5-0.1-0.7-0.3c-0.2-0.2-0.3-0.4-0.3-0.7c0-0.3,0.1-0.5,0.3-0.7c0.2-0.2,0.4-0.3,0.7-0.3
					C415.8,70.5,416,70.5,416.2,70.7z M416.1,73.6v8.3h-1.3v-8.3H416.1z"/>
				<path style="fill:#444444;" d="M425.9,70.2v11.7h-1.2v-1.4c-0.6,1.1-1.5,1.6-2.8,1.6c-1.2,0-2.2-0.4-2.8-1.3
					c-0.6-0.8-0.9-1.8-0.9-3.1c0-1.2,0.3-2.2,0.9-3c0.7-0.9,1.6-1.3,2.8-1.3s2.1,0.6,2.7,1.7v-4.9H425.9z M420.1,75.4
					c-0.4,0.6-0.6,1.3-0.6,2.3c0,1,0.2,1.8,0.6,2.4c0.4,0.6,1.1,1,2,1c0.8,0,1.5-0.3,1.9-1c0.4-0.6,0.6-1.3,0.6-2.3v-0.2
					c0-1-0.2-1.7-0.7-2.3c-0.5-0.6-1.1-0.9-1.8-0.9C421.3,74.4,420.6,74.7,420.1,75.4z"/>
				<path style="fill:#444444;" d="M431.6,72.4c0.2,0.2,0.3,0.4,0.3,0.7c0,0.3-0.1,0.5-0.3,0.7s-0.4,0.3-0.7,0.3
					c-0.3,0-0.5-0.1-0.7-0.3c-0.2-0.2-0.3-0.4-0.3-0.7c0-0.3,0.1-0.5,0.3-0.7c0.2-0.2,0.4-0.3,0.7-0.3
					C431.2,72.1,431.4,72.2,431.6,72.4z M431.6,78.3c0.2,0.2,0.3,0.4,0.3,0.7c0,0.3-0.1,0.5-0.3,0.7s-0.4,0.3-0.7,0.3
					c-0.3,0-0.5-0.1-0.7-0.3c-0.2-0.2-0.3-0.4-0.3-0.7c0-0.3,0.1-0.5,0.3-0.7c0.2-0.2,0.4-0.3,0.7-0.3
					C431.2,78,431.4,78.1,431.6,78.3z"/>
				<path style="fill:#444444;" d="M444.9,70.4l3.1,4.5l3.1-4.5h1.6l-3.9,5.5l4.2,5.9h-1.6L448,77l-3.4,4.9H443l4.2-5.9l-3.9-5.5
					H444.9z"/>
				<path style="fill:#444444;" d="M382.7,97.9h-1.2c-0.1-0.5-0.3-0.9-0.6-1.1c-0.4-0.3-0.9-0.4-1.5-0.4c-0.6,0-1,0.1-1.3,0.3
					c-0.4,0.2-0.5,0.5-0.5,0.9c0,0.4,0.2,0.7,0.7,0.9c0.3,0.1,0.9,0.3,1.7,0.5c1,0.2,1.7,0.5,2.1,0.8c0.7,0.4,1,1,1,1.7
					c0,1.7-1.2,2.6-3.5,2.6c-2.2,0-3.4-1-3.6-2.9h1.2c0.1,0.7,0.3,1.1,0.7,1.4c0.4,0.3,0.9,0.4,1.6,0.4c1.5,0,2.2-0.5,2.2-1.4
					c0-0.5-0.3-0.8-0.8-1.1c-0.3-0.1-0.9-0.3-1.8-0.5c-1-0.2-1.7-0.5-2-0.7c-0.6-0.4-0.9-0.9-0.9-1.6c0-0.7,0.3-1.2,0.9-1.7
					c0.6-0.4,1.3-0.6,2.3-0.6C381.3,95.4,382.5,96.2,382.7,97.9z"/>
				<path style="fill:#444444;" d="M391.2,96.7c0.6,0.8,0.9,1.8,0.9,3.1c0,1.2-0.3,2.2-0.9,3c-0.7,0.9-1.6,1.3-2.8,1.3
					c-1.2,0-2.1-0.6-2.7-1.7v4.7h-1.3V95.6h1.2v1.4c0.6-1.1,1.5-1.6,2.8-1.6C389.6,95.4,390.5,95.8,391.2,96.7z M386.3,97.4
					c-0.4,0.6-0.6,1.3-0.6,2.3v0.2c0,1,0.2,1.7,0.7,2.3c0.4,0.6,1,0.9,1.8,0.9c0.9,0,1.6-0.3,2-0.9c0.4-0.6,0.6-1.4,0.6-2.4
					c0-1-0.2-1.8-0.6-2.3c-0.5-0.7-1.1-1-2-1C387.4,96.4,386.7,96.7,386.3,97.4z"/>
				<path style="fill:#444444;" d="M400,96.3c0.5,0.5,0.7,1.3,0.7,2.3v5.3h-1.2v-1.4c-0.3,0.4-0.8,0.8-1.3,1.1
					c-0.6,0.3-1.3,0.5-2.1,0.5c-0.8,0-1.5-0.2-2-0.6c-0.5-0.4-0.8-1-0.8-1.7c0-0.9,0.4-1.6,1.1-2.1c0.7-0.4,1.6-0.7,2.9-0.7l2,0
					v-0.4c0-1.4-0.7-2.1-2.2-2.1c-0.6,0-1.1,0.1-1.5,0.4c-0.4,0.3-0.7,0.7-0.8,1.2l-1.3-0.1c0.2-0.9,0.6-1.5,1.3-1.9
					c0.6-0.4,1.4-0.6,2.4-0.6C398.6,95.4,399.5,95.7,400,96.3z M397.6,99.9c-1.9,0-2.8,0.6-2.8,1.8c0,0.4,0.1,0.7,0.5,0.9
					c0.3,0.2,0.7,0.4,1.2,0.4c0.8,0,1.5-0.3,2.1-0.8c0.6-0.5,0.9-1.1,0.9-1.7v-0.7L397.6,99.9z"/>
				<path style="fill:#444444;" d="M409.7,98.8v5.1h-1.3v-5c0-1.6-0.7-2.4-2.2-2.4c-0.6,0-1.1,0.2-1.5,0.6c-0.4,0.4-0.7,1-0.7,1.8v5
					h-1.3v-8.3h1.3v1.2c0.3-0.5,0.7-0.8,1.1-1.1c0.4-0.3,0.9-0.4,1.5-0.4C408.7,95.4,409.7,96.5,409.7,98.8z"/>
				<path style="fill:#444444;" d="M413.4,92.7c0.2,0.2,0.3,0.4,0.3,0.7c0,0.3-0.1,0.5-0.3,0.7c-0.2,0.2-0.4,0.3-0.7,0.3
					s-0.5-0.1-0.7-0.3c-0.2-0.2-0.3-0.4-0.3-0.7c0-0.3,0.1-0.5,0.3-0.7c0.2-0.2,0.4-0.3,0.7-0.3S413.2,92.5,413.4,92.7z M413.4,95.6
					v8.3h-1.3v-8.3H413.4z"/>
				<path style="fill:#444444;" d="M423.2,92.2v11.7H422v-1.4c-0.6,1.1-1.5,1.6-2.8,1.6c-1.2,0-2.2-0.4-2.8-1.3
					c-0.6-0.8-0.9-1.8-0.9-3.1c0-1.2,0.3-2.2,0.9-3c0.7-0.9,1.6-1.3,2.8-1.3s2.1,0.6,2.7,1.7v-4.9H423.2z M417.4,97.4
					c-0.4,0.6-0.6,1.3-0.6,2.3c0,1,0.2,1.8,0.6,2.4c0.4,0.6,1.1,1,2,1c0.8,0,1.5-0.3,1.9-1c0.4-0.6,0.6-1.3,0.6-2.3v-0.2
					c0-1-0.2-1.7-0.7-2.3c-0.5-0.6-1.1-0.9-1.8-0.9C418.5,96.4,417.8,96.7,417.4,97.4z"/>
				<path style="fill:#444444;" d="M428.9,94.4c0.2,0.2,0.3,0.4,0.3,0.7c0,0.3-0.1,0.5-0.3,0.7s-0.4,0.3-0.7,0.3
					c-0.3,0-0.5-0.1-0.7-0.3c-0.2-0.2-0.3-0.4-0.3-0.7c0-0.3,0.1-0.5,0.3-0.7c0.2-0.2,0.4-0.3,0.7-0.3
					C428.5,94.1,428.7,94.2,428.9,94.4z M428.9,100.3c0.2,0.2,0.3,0.4,0.3,0.7c0,0.3-0.1,0.5-0.3,0.7s-0.4,0.3-0.7,0.3
					c-0.3,0-0.5-0.1-0.7-0.3c-0.2-0.2-0.3-0.4-0.3-0.7c0-0.3,0.1-0.5,0.3-0.7c0.2-0.2,0.4-0.3,0.7-0.3
					C428.5,100,428.7,100.1,428.9,100.3z"/>
				<path style="fill:#444444;" d="M446.4,92.4c1.1,0,1.9,0.3,2.5,0.8c0.6,0.5,0.9,1.2,0.9,2.1c0,0.6-0.2,1.2-0.5,1.7
					c-0.4,0.4-0.8,0.7-1.4,0.9c0.8,0.1,1.3,0.4,1.7,0.9s0.6,1.1,0.6,1.9c0,1.1-0.4,2-1.2,2.5c-0.7,0.4-1.6,0.7-2.8,0.7h-5.1V92.4
					H446.4z M442.6,97.4h3.5c0.8,0,1.4-0.2,1.8-0.5c0.4-0.3,0.6-0.8,0.6-1.5c0-0.6-0.2-1.1-0.6-1.4c-0.4-0.3-1-0.5-1.8-0.5h-3.5
					V97.4z M442.6,102.8h3.6c0.8,0,1.4-0.2,1.9-0.4c0.6-0.4,0.8-0.9,0.8-1.6s-0.3-1.3-0.7-1.6c-0.5-0.4-1.1-0.5-2-0.5h-3.6V102.8z"
					/>
				<path style="fill:#444444;" d="M382.4,118.1c0.6,0.5,1,1.2,1.2,2.3h-1.3c-0.1-0.6-0.4-1.1-0.8-1.4c-0.4-0.3-0.9-0.5-1.6-0.5
					c-0.8,0-1.4,0.3-1.9,0.9c-0.4,0.6-0.7,1.4-0.7,2.4c0,1,0.2,1.8,0.7,2.4c0.4,0.6,1.1,0.9,1.9,0.9c1.4,0,2.2-0.7,2.4-2.1h1.3
					c-0.2,1.1-0.6,1.9-1.2,2.4c-0.6,0.5-1.4,0.8-2.5,0.8c-1.2,0-2.2-0.4-2.9-1.2c-0.7-0.8-1-1.8-1-3.1s0.3-2.3,1-3.1
					c0.7-0.9,1.7-1.3,2.9-1.3C380.9,117.4,381.8,117.6,382.4,118.1z"/>
				<path style="fill:#444444;" d="M391.4,119.9h-1.2c-0.1-0.5-0.3-0.9-0.6-1.1c-0.4-0.3-0.9-0.4-1.5-0.4c-0.6,0-1,0.1-1.3,0.3
					c-0.4,0.2-0.5,0.5-0.5,0.9c0,0.4,0.2,0.7,0.7,0.9c0.3,0.1,0.9,0.3,1.7,0.5c1,0.2,1.7,0.5,2.1,0.8c0.7,0.4,1,1,1,1.7
					c0,1.7-1.2,2.6-3.5,2.6c-2.2,0-3.4-1-3.6-2.9h1.2c0.1,0.7,0.3,1.1,0.7,1.4c0.4,0.3,0.9,0.4,1.6,0.4c1.5,0,2.2-0.5,2.2-1.4
					c0-0.5-0.3-0.8-0.8-1.1c-0.3-0.1-0.9-0.3-1.8-0.5c-1-0.2-1.7-0.5-2-0.7c-0.6-0.4-0.9-0.9-0.9-1.6c0-0.7,0.3-1.2,0.9-1.7
					c0.6-0.4,1.3-0.6,2.3-0.6C390.1,117.4,391.2,118.2,391.4,119.9z"/>
				<path style="fill:#444444;" d="M396.8,125.2c0.5,0.5,1,1.1,1.4,1.6l-0.8,0.7c-0.4-0.5-0.8-1.1-1.4-1.6c-0.6-0.6-1.2-1.2-1.8-1.6
					l0.7-0.7C395.6,124.1,396.2,124.6,396.8,125.2z"/>
				<path style="fill:#444444;" d="M415.2,118.1c0.6,0.5,1,1.2,1.2,2.3h-1.3c-0.1-0.6-0.4-1.1-0.8-1.4c-0.4-0.3-0.9-0.5-1.6-0.5
					c-0.8,0-1.4,0.3-1.9,0.9c-0.4,0.6-0.7,1.4-0.7,2.4c0,1,0.2,1.8,0.7,2.4c0.4,0.6,1.1,0.9,1.9,0.9c1.4,0,2.2-0.7,2.4-2.1h1.3
					c-0.2,1.1-0.6,1.9-1.2,2.4c-0.6,0.5-1.4,0.8-2.5,0.8c-1.2,0-2.2-0.4-2.9-1.2c-0.7-0.8-1-1.8-1-3.1s0.3-2.3,1-3.1
					c0.7-0.9,1.7-1.3,2.9-1.3C413.8,117.4,414.6,117.6,415.2,118.1z"/>
				<path style="fill:#444444;" d="M422.7,117.6v1.3c-0.4-0.1-0.8-0.2-1.2-0.2c-0.6,0-1.2,0.3-1.6,0.8c-0.4,0.5-0.7,1.2-0.7,2v4.4
					h-1.3v-8.3h1.3v1.4c0.2-0.5,0.5-0.9,0.9-1.1c0.4-0.4,0.9-0.5,1.5-0.5C422,117.4,422.4,117.4,422.7,117.6z"/>
			</g>
		</g>
		<g>
			<g>
				<rect x="337.2" y="167.7" style="opacity:0.6;fill:#BBBBBB;enable-background:new    ;" width="156" height="96"/>
				<rect x="335.2" y="165.7" style="fill:#FFFFFF;stroke:#E5E5E5;" width="156" height="96"/>
			</g>
			<g style="enable-background:new    ;">
				<path style="fill:#444444;" d="M378.6,189.4h2v1.1h-2v5.3c0,0.3,0,0.5,0.2,0.7c0.1,0.1,0.3,0.2,0.6,0.2h1.1v1.1h-1.2
					c-0.7,0-1.2-0.2-1.5-0.5c-0.3-0.3-0.4-0.8-0.4-1.4v-5.3h-1.7v-1.1h1.7v-2.1l1.3-0.5V189.4z"/>
				<path style="fill:#444444;" d="M386.8,189.4v1.3c-0.4-0.1-0.8-0.2-1.2-0.2c-0.6,0-1.2,0.3-1.6,0.8c-0.4,0.5-0.7,1.2-0.7,2v4.4
					H382v-8.3h1.3v1.4c0.2-0.5,0.5-0.9,0.9-1.1c0.4-0.4,0.9-0.5,1.5-0.5C386.1,189.2,386.5,189.3,386.8,189.4z"/>
				<path style="fill:#444444;" d="M394.1,190.1c0.5,0.5,0.7,1.3,0.7,2.3v5.3h-1.2v-1.4c-0.3,0.4-0.8,0.8-1.3,1.1
					c-0.6,0.3-1.3,0.5-2.1,0.5c-0.8,0-1.5-0.2-2-0.6c-0.5-0.4-0.8-1-0.8-1.7c0-0.9,0.4-1.6,1.1-2.1c0.7-0.4,1.6-0.7,2.9-0.7l2,0
					v-0.4c0-1.4-0.7-2.1-2.2-2.1c-0.6,0-1.1,0.1-1.5,0.4c-0.4,0.3-0.7,0.7-0.8,1.2l-1.3-0.1c0.2-0.9,0.6-1.5,1.3-1.9
					c0.6-0.4,1.4-0.6,2.4-0.6C392.7,189.2,393.5,189.5,394.1,190.1z M391.7,193.8c-1.9,0-2.8,0.6-2.8,1.8c0,0.4,0.1,0.7,0.5,0.9
					c0.3,0.2,0.7,0.4,1.2,0.4c0.8,0,1.5-0.3,2.1-0.8c0.6-0.5,0.9-1.1,0.9-1.7v-0.7L391.7,193.8z"/>
				<path style="fill:#444444;" d="M402.9,189.9c0.6,0.5,1,1.2,1.2,2.3h-1.3c-0.1-0.6-0.4-1.1-0.8-1.4c-0.4-0.3-0.9-0.5-1.6-0.5
					c-0.8,0-1.4,0.3-1.9,0.9c-0.4,0.6-0.7,1.4-0.7,2.4c0,1,0.2,1.8,0.7,2.4c0.4,0.6,1.1,0.9,1.9,0.9c1.4,0,2.2-0.7,2.4-2.1h1.3
					c-0.2,1.1-0.6,1.9-1.2,2.4c-0.6,0.5-1.4,0.8-2.5,0.8c-1.2,0-2.2-0.4-2.9-1.2c-0.7-0.8-1-1.8-1-3.1s0.3-2.3,1-3.1
					c0.7-0.9,1.7-1.3,2.9-1.3C401.4,189.2,402.2,189.4,402.9,189.9z"/>
				<path style="fill:#444444;" d="M412,190.5c0.6,0.8,0.9,1.9,1,3.4h-6.5c0.1,0.9,0.3,1.6,0.8,2.2c0.4,0.5,1.1,0.8,1.9,0.8
					c0.7,0,1.2-0.2,1.6-0.5c0.4-0.3,0.6-0.7,0.8-1.3h1.3c-0.2,0.8-0.6,1.4-1.1,2c-0.7,0.6-1.6,0.9-2.6,0.9c-1.2,0-2.1-0.4-2.8-1.2
					c-0.7-0.8-1.1-1.9-1.1-3.2c0-1.2,0.3-2.2,1-3.1c0.7-0.9,1.6-1.3,2.8-1.3C410.3,189.2,411.3,189.6,412,190.5z M407.2,191
					c-0.4,0.5-0.7,1.1-0.8,1.9h5.2c-0.2-1.8-1-2.7-2.6-2.7C408.3,190.3,407.7,190.5,407.2,191z"/>
				<path style="fill:#444444;" d="M416.2,186.6c0.2,0.2,0.3,0.4,0.3,0.7c0,0.3-0.1,0.5-0.3,0.7c-0.2,0.2-0.4,0.3-0.7,0.3
					c-0.3,0-0.5-0.1-0.7-0.3c-0.2-0.2-0.3-0.4-0.3-0.7c0-0.3,0.1-0.5,0.3-0.7c0.2-0.2,0.4-0.3,0.7-0.3
					C415.8,186.3,416,186.4,416.2,186.6z M416.1,189.4v8.3h-1.3v-8.3H416.1z"/>
				<path style="fill:#444444;" d="M425.9,186v11.7h-1.2v-1.4c-0.6,1.1-1.5,1.6-2.8,1.6c-1.2,0-2.2-0.4-2.8-1.3
					c-0.6-0.8-0.9-1.8-0.9-3.1c0-1.2,0.3-2.2,0.9-3c0.7-0.9,1.6-1.3,2.8-1.3s2.1,0.6,2.7,1.7V186H425.9z M420.1,191.2
					c-0.4,0.6-0.6,1.3-0.6,2.3c0,1,0.2,1.8,0.6,2.4c0.4,0.6,1.1,1,2,1c0.8,0,1.5-0.3,1.9-1c0.4-0.6,0.6-1.3,0.6-2.3v-0.2
					c0-1-0.2-1.7-0.7-2.3c-0.5-0.6-1.1-0.9-1.8-0.9C421.3,190.2,420.6,190.6,420.1,191.2z"/>
				<path style="fill:#444444;" d="M431.6,188.2c0.2,0.2,0.3,0.4,0.3,0.7c0,0.3-0.1,0.5-0.3,0.7s-0.4,0.3-0.7,0.3
					c-0.3,0-0.5-0.1-0.7-0.3c-0.2-0.2-0.3-0.4-0.3-0.7c0-0.3,0.1-0.5,0.3-0.7c0.2-0.2,0.4-0.3,0.7-0.3
					C431.2,187.9,431.4,188,431.6,188.2z M431.6,194.1c0.2,0.2,0.3,0.4,0.3,0.7c0,0.3-0.1,0.5-0.3,0.7s-0.4,0.3-0.7,0.3
					c-0.3,0-0.5-0.1-0.7-0.3c-0.2-0.2-0.3-0.4-0.3-0.7c0-0.3,0.1-0.5,0.3-0.7c0.2-0.2,0.4-0.3,0.7-0.3
					C431.2,193.8,431.4,193.9,431.6,194.1z"/>
				<path style="fill:#444444;" d="M444.9,186.3l3.1,4.5l3.1-4.5h1.6l-3.9,5.5l4.2,5.9h-1.6l-3.4-4.9l-3.4,4.9H443l4.2-5.9l-3.9-5.5
					H444.9z"/>
				<path style="fill:#444444;" d="M382.7,213.8h-1.2c-0.1-0.5-0.3-0.9-0.6-1.1c-0.4-0.3-0.9-0.4-1.5-0.4c-0.6,0-1,0.1-1.3,0.3
					c-0.4,0.2-0.5,0.5-0.5,0.9c0,0.4,0.2,0.7,0.7,0.9c0.3,0.1,0.9,0.3,1.7,0.5c1,0.2,1.7,0.5,2.1,0.8c0.7,0.4,1,1,1,1.7
					c0,1.7-1.2,2.6-3.5,2.6c-2.2,0-3.4-1-3.6-2.9h1.2c0.1,0.7,0.3,1.1,0.7,1.4c0.4,0.3,0.9,0.4,1.6,0.4c1.5,0,2.2-0.5,2.2-1.4
					c0-0.5-0.3-0.8-0.8-1.1c-0.3-0.1-0.9-0.3-1.8-0.5c-1-0.2-1.7-0.5-2-0.7c-0.6-0.4-0.9-0.9-0.9-1.6c0-0.7,0.3-1.2,0.9-1.7
					c0.6-0.4,1.3-0.6,2.3-0.6C381.3,211.2,382.5,212,382.7,213.8z"/>
				<path style="fill:#444444;" d="M391.2,212.5c0.6,0.8,0.9,1.8,0.9,3.1c0,1.2-0.3,2.2-0.9,3c-0.7,0.9-1.6,1.3-2.8,1.3
					c-1.2,0-2.1-0.6-2.7-1.7v4.7h-1.3v-11.4h1.2v1.4c0.6-1.1,1.5-1.6,2.8-1.6C389.6,211.2,390.5,211.6,391.2,212.5z M386.3,213.2
					c-0.4,0.6-0.6,1.3-0.6,2.3v0.2c0,1,0.2,1.7,0.7,2.3c0.4,0.6,1,0.9,1.8,0.9c0.9,0,1.6-0.3,2-0.9c0.4-0.6,0.6-1.4,0.6-2.4
					c0-1-0.2-1.8-0.6-2.3c-0.5-0.7-1.1-1-2-1C387.4,212.2,386.7,212.6,386.3,213.2z"/>
				<path style="fill:#444444;" d="M400,212.1c0.5,0.5,0.7,1.3,0.7,2.3v5.3h-1.2v-1.4c-0.3,0.4-0.8,0.8-1.3,1.1
					c-0.6,0.3-1.3,0.5-2.1,0.5c-0.8,0-1.5-0.2-2-0.6c-0.5-0.4-0.8-1-0.8-1.7c0-0.9,0.4-1.6,1.1-2.1c0.7-0.4,1.6-0.7,2.9-0.7l2,0
					v-0.4c0-1.4-0.7-2.1-2.2-2.1c-0.6,0-1.1,0.1-1.5,0.4c-0.4,0.3-0.7,0.7-0.8,1.2l-1.3-0.1c0.2-0.9,0.6-1.5,1.3-1.9
					c0.6-0.4,1.4-0.6,2.4-0.6C398.6,211.2,399.5,211.5,400,212.1z M397.6,215.8c-1.9,0-2.8,0.6-2.8,1.8c0,0.4,0.1,0.7,0.5,0.9
					c0.3,0.2,0.7,0.4,1.2,0.4c0.8,0,1.5-0.3,2.1-0.8c0.6-0.5,0.9-1.1,0.9-1.7v-0.7L397.6,215.8z"/>
				<path style="fill:#444444;" d="M409.7,214.6v5.1h-1.3v-5c0-1.6-0.7-2.4-2.2-2.4c-0.6,0-1.1,0.2-1.5,0.6c-0.4,0.4-0.7,1-0.7,1.8
					v5h-1.3v-8.3h1.3v1.2c0.3-0.5,0.7-0.8,1.1-1.1c0.4-0.3,0.9-0.4,1.5-0.4C408.7,211.2,409.7,212.3,409.7,214.6z"/>
				<path style="fill:#444444;" d="M413.4,208.6c0.2,0.2,0.3,0.4,0.3,0.7c0,0.3-0.1,0.5-0.3,0.7c-0.2,0.2-0.4,0.3-0.7,0.3
					s-0.5-0.1-0.7-0.3c-0.2-0.2-0.3-0.4-0.3-0.7c0-0.3,0.1-0.5,0.3-0.7c0.2-0.2,0.4-0.3,0.7-0.3S413.2,208.4,413.4,208.6z
					 M413.4,211.4v8.3h-1.3v-8.3H413.4z"/>
				<path style="fill:#444444;" d="M423.2,208v11.7H422v-1.4c-0.6,1.1-1.5,1.6-2.8,1.6c-1.2,0-2.2-0.4-2.8-1.3
					c-0.6-0.8-0.9-1.8-0.9-3.1c0-1.2,0.3-2.2,0.9-3c0.7-0.9,1.6-1.3,2.8-1.3s2.1,0.6,2.7,1.7V208H423.2z M417.4,213.2
					c-0.4,0.6-0.6,1.3-0.6,2.3c0,1,0.2,1.8,0.6,2.4c0.4,0.6,1.1,1,2,1c0.8,0,1.5-0.3,1.9-1c0.4-0.6,0.6-1.3,0.6-2.3v-0.2
					c0-1-0.2-1.7-0.7-2.3c-0.5-0.6-1.1-0.9-1.8-0.9C418.5,212.2,417.8,212.6,417.4,213.2z"/>
				<path style="fill:#444444;" d="M428.9,210.2c0.2,0.2,0.3,0.4,0.3,0.7c0,0.3-0.1,0.5-0.3,0.7s-0.4,0.3-0.7,0.3
					c-0.3,0-0.5-0.1-0.7-0.3c-0.2-0.2-0.3-0.4-0.3-0.7c0-0.3,0.1-0.5,0.3-0.7c0.2-0.2,0.4-0.3,0.7-0.3
					C428.5,209.9,428.7,210,428.9,210.2z M428.9,216.1c0.2,0.2,0.3,0.4,0.3,0.7c0,0.3-0.1,0.5-0.3,0.7s-0.4,0.3-0.7,0.3
					c-0.3,0-0.5-0.1-0.7-0.3c-0.2-0.2-0.3-0.4-0.3-0.7c0-0.3,0.1-0.5,0.3-0.7c0.2-0.2,0.4-0.3,0.7-0.3
					C428.5,215.8,428.7,215.9,428.9,216.1z"/>
				<path style="fill:#444444;" d="M446.2,208.3l4.5,11.4h-1.4l-1.2-3.2h-5.2l-1.2,3.2h-1.4l4.5-11.4H446.2z M447.6,215.4l-2.2-5.7
					h-0.1l-2.2,5.7H447.6z"/>
				<path style="fill:#444444;" d="M382.4,233.9c0.6,0.5,1,1.2,1.2,2.3h-1.3c-0.1-0.6-0.4-1.1-0.8-1.4c-0.4-0.3-0.9-0.5-1.6-0.5
					c-0.8,0-1.4,0.3-1.9,0.9c-0.4,0.6-0.7,1.4-0.7,2.4c0,1,0.2,1.8,0.7,2.4c0.4,0.6,1.1,0.9,1.9,0.9c1.4,0,2.2-0.7,2.4-2.1h1.3
					c-0.2,1.1-0.6,1.9-1.2,2.4c-0.6,0.5-1.4,0.8-2.5,0.8c-1.2,0-2.2-0.4-2.9-1.2c-0.7-0.8-1-1.8-1-3.1s0.3-2.3,1-3.1
					c0.7-0.9,1.7-1.3,2.9-1.3C380.9,233.2,381.8,233.4,382.4,233.9z"/>
				<path style="fill:#444444;" d="M391.4,235.8h-1.2c-0.1-0.5-0.3-0.9-0.6-1.1c-0.4-0.3-0.9-0.4-1.5-0.4c-0.6,0-1,0.1-1.3,0.3
					c-0.4,0.2-0.5,0.5-0.5,0.9c0,0.4,0.2,0.7,0.7,0.9c0.3,0.1,0.9,0.3,1.7,0.5c1,0.2,1.7,0.5,2.1,0.8c0.7,0.4,1,1,1,1.7
					c0,1.7-1.2,2.6-3.5,2.6c-2.2,0-3.4-1-3.6-2.9h1.2c0.1,0.7,0.3,1.1,0.7,1.4c0.4,0.3,0.9,0.4,1.6,0.4c1.5,0,2.2-0.5,2.2-1.4
					c0-0.5-0.3-0.8-0.8-1.1c-0.3-0.1-0.9-0.3-1.8-0.5c-1-0.2-1.7-0.5-2-0.7c-0.6-0.4-0.9-0.9-0.9-1.6c0-0.7,0.3-1.2,0.9-1.7
					c0.6-0.4,1.3-0.6,2.3-0.6C390.1,233.2,391.2,234,391.4,235.8z"/>
				<path style="fill:#444444;" d="M396.8,241c0.5,0.5,1,1.1,1.4,1.6l-0.8,0.7c-0.4-0.5-0.8-1.1-1.4-1.6c-0.6-0.6-1.2-1.2-1.8-1.6
					l0.7-0.7C395.6,239.9,396.2,240.4,396.8,241z"/>
				<path style="fill:#444444;" d="M415.2,233.9c0.6,0.5,1,1.2,1.2,2.3h-1.3c-0.1-0.6-0.4-1.1-0.8-1.4c-0.4-0.3-0.9-0.5-1.6-0.5
					c-0.8,0-1.4,0.3-1.9,0.9c-0.4,0.6-0.7,1.4-0.7,2.4c0,1,0.2,1.8,0.7,2.4c0.4,0.6,1.1,0.9,1.9,0.9c1.4,0,2.2-0.7,2.4-2.1h1.3
					c-0.2,1.1-0.6,1.9-1.2,2.4c-0.6,0.5-1.4,0.8-2.5,0.8c-1.2,0-2.2-0.4-2.9-1.2c-0.7-0.8-1-1.8-1-3.1s0.3-2.3,1-3.1
					c0.7-0.9,1.7-1.3,2.9-1.3C413.8,233.2,414.6,233.4,415.2,233.9z"/>
				<path style="fill:#444444;" d="M422.7,233.4v1.3c-0.4-0.1-0.8-0.2-1.2-0.2c-0.6,0-1.2,0.3-1.6,0.8c-0.4,0.5-0.7,1.2-0.7,2v4.4
					h-1.3v-8.3h1.3v1.4c0.2-0.5,0.5-0.9,0.9-1.1c0.4-0.4,0.9-0.5,1.5-0.5C422,233.2,422.4,233.3,422.7,233.4z"/>
			</g>
		</g>
		<g>
			<g>
				<rect x="337.2" y="283.5" style="opacity:0.6;fill:#BBBBBB;enable-background:new    ;" width="156" height="96"/>
				<rect x="335.2" y="281.5" style="fill:#FFFFFF;stroke:#E5E5E5;" width="156" height="96"/>
			</g>
			<g style="enable-background:new    ;">
				<path style="fill:#444444;" d="M378.6,305.2h2v1.1h-2v5.3c0,0.3,0,0.5,0.2,0.7c0.1,0.1,0.3,0.2,0.6,0.2h1.1v1.1h-1.2
					c-0.7,0-1.2-0.2-1.5-0.5c-0.3-0.3-0.4-0.8-0.4-1.4v-5.3h-1.7v-1.1h1.7v-2.1l1.3-0.5V305.2z"/>
				<path style="fill:#444444;" d="M386.8,305.2v1.3c-0.4-0.1-0.8-0.2-1.2-0.2c-0.6,0-1.2,0.3-1.6,0.8c-0.4,0.5-0.7,1.2-0.7,2v4.4
					H382v-8.3h1.3v1.4c0.2-0.5,0.5-0.9,0.9-1.1c0.4-0.4,0.9-0.5,1.5-0.5C386.1,305,386.5,305.1,386.8,305.2z"/>
				<path style="fill:#444444;" d="M394.1,305.9c0.5,0.5,0.7,1.3,0.7,2.3v5.3h-1.2v-1.4c-0.3,0.4-0.8,0.8-1.3,1.1
					c-0.6,0.3-1.3,0.5-2.1,0.5c-0.8,0-1.5-0.2-2-0.6c-0.5-0.4-0.8-1-0.8-1.7c0-0.9,0.4-1.6,1.1-2.1c0.7-0.4,1.6-0.7,2.9-0.7l2,0
					v-0.4c0-1.4-0.7-2.1-2.2-2.1c-0.6,0-1.1,0.1-1.5,0.4c-0.4,0.3-0.7,0.7-0.8,1.2l-1.3-0.1c0.2-0.9,0.6-1.5,1.3-1.9
					c0.6-0.4,1.4-0.6,2.4-0.6C392.7,305,393.5,305.3,394.1,305.9z M391.7,309.6c-1.9,0-2.8,0.6-2.8,1.8c0,0.4,0.1,0.7,0.5,0.9
					c0.3,0.2,0.7,0.4,1.2,0.4c0.8,0,1.5-0.3,2.1-0.8c0.6-0.5,0.9-1.1,0.9-1.7v-0.7L391.7,309.6z"/>
				<path style="fill:#444444;" d="M402.9,305.7c0.6,0.5,1,1.2,1.2,2.3h-1.3c-0.1-0.6-0.4-1.1-0.8-1.4c-0.4-0.3-0.9-0.5-1.6-0.5
					c-0.8,0-1.4,0.3-1.9,0.9c-0.4,0.6-0.7,1.4-0.7,2.4c0,1,0.2,1.8,0.7,2.4c0.4,0.6,1.1,0.9,1.9,0.9c1.4,0,2.2-0.7,2.4-2.1h1.3
					c-0.2,1.1-0.6,1.9-1.2,2.4c-0.6,0.5-1.4,0.8-2.5,0.8c-1.2,0-2.2-0.4-2.9-1.2c-0.7-0.8-1-1.8-1-3.1s0.3-2.3,1-3.1
					c0.7-0.9,1.7-1.3,2.9-1.3C401.4,305,402.2,305.3,402.9,305.7z"/>
				<path style="fill:#444444;" d="M412,306.4c0.6,0.8,0.9,1.9,1,3.4h-6.5c0.1,0.9,0.3,1.6,0.8,2.2c0.4,0.5,1.1,0.8,1.9,0.8
					c0.7,0,1.2-0.2,1.6-0.5c0.4-0.3,0.6-0.7,0.8-1.3h1.3c-0.2,0.8-0.6,1.4-1.1,2c-0.7,0.6-1.6,0.9-2.6,0.9c-1.2,0-2.1-0.4-2.8-1.2
					c-0.7-0.8-1.1-1.9-1.1-3.2c0-1.2,0.3-2.2,1-3.1c0.7-0.9,1.6-1.3,2.8-1.3C410.3,305,411.3,305.5,412,306.4z M407.2,306.8
					c-0.4,0.5-0.7,1.1-0.8,1.9h5.2c-0.2-1.8-1-2.7-2.6-2.7C408.3,306.1,407.7,306.3,407.2,306.8z"/>
				<path style="fill:#444444;" d="M416.2,302.4c0.2,0.2,0.3,0.4,0.3,0.7c0,0.3-0.1,0.5-0.3,0.7c-0.2,0.2-0.4,0.3-0.7,0.3
					c-0.3,0-0.5-0.1-0.7-0.3c-0.2-0.2-0.3-0.4-0.3-0.7c0-0.3,0.1-0.5,0.3-0.7c0.2-0.2,0.4-0.3,0.7-0.3
					C415.8,302.1,416,302.2,416.2,302.4z M416.1,305.2v8.3h-1.3v-8.3H416.1z"/>
				<path style="fill:#444444;" d="M425.9,301.9v11.7h-1.2v-1.4c-0.6,1.1-1.5,1.6-2.8,1.6c-1.2,0-2.2-0.4-2.8-1.3
					c-0.6-0.8-0.9-1.8-0.9-3.1c0-1.2,0.3-2.2,0.9-3c0.7-0.9,1.6-1.3,2.8-1.3s2.1,0.6,2.7,1.7v-4.9H425.9z M420.1,307
					c-0.4,0.6-0.6,1.3-0.6,2.3c0,1,0.2,1.8,0.6,2.4c0.4,0.6,1.1,1,2,1c0.8,0,1.5-0.3,1.9-1c0.4-0.6,0.6-1.3,0.6-2.3v-0.2
					c0-1-0.2-1.7-0.7-2.3c-0.5-0.6-1.1-0.9-1.8-0.9C421.3,306.1,420.6,306.4,420.1,307z"/>
				<path style="fill:#444444;" d="M431.6,304.1c0.2,0.2,0.3,0.4,0.3,0.7c0,0.3-0.1,0.5-0.3,0.7s-0.4,0.3-0.7,0.3
					c-0.3,0-0.5-0.1-0.7-0.3c-0.2-0.2-0.3-0.4-0.3-0.7c0-0.3,0.1-0.5,0.3-0.7c0.2-0.2,0.4-0.3,0.7-0.3
					C431.2,303.8,431.4,303.9,431.6,304.1z M431.6,309.9c0.2,0.2,0.3,0.4,0.3,0.7c0,0.3-0.1,0.5-0.3,0.7s-0.4,0.3-0.7,0.3
					c-0.3,0-0.5-0.1-0.7-0.3c-0.2-0.2-0.3-0.4-0.3-0.7c0-0.3,0.1-0.5,0.3-0.7c0.2-0.2,0.4-0.3,0.7-0.3
					C431.2,309.6,431.4,309.7,431.6,309.9z"/>
				<path style="fill:#444444;" d="M444.9,302.1l3.1,4.5l3.1-4.5h1.6l-3.9,5.5l4.2,5.9h-1.6l-3.4-4.9l-3.4,4.9H443l4.2-5.9l-3.9-5.5
					H444.9z"/>
				<path style="fill:#444444;" d="M382.7,329.6h-1.2c-0.1-0.5-0.3-0.9-0.6-1.1c-0.4-0.3-0.9-0.4-1.5-0.4c-0.6,0-1,0.1-1.3,0.3
					c-0.4,0.2-0.5,0.5-0.5,0.9c0,0.4,0.2,0.7,0.7,0.9c0.3,0.1,0.9,0.3,1.7,0.5c1,0.2,1.7,0.5,2.1,0.8c0.7,0.4,1,1,1,1.7
					c0,1.7-1.2,2.6-3.5,2.6c-2.2,0-3.4-1-3.6-2.9h1.2c0.1,0.7,0.3,1.1,0.7,1.4c0.4,0.3,0.9,0.4,1.6,0.4c1.5,0,2.2-0.5,2.2-1.4
					c0-0.5-0.3-0.8-0.8-1.1c-0.3-0.1-0.9-0.3-1.8-0.5c-1-0.2-1.7-0.5-2-0.7c-0.6-0.4-0.9-0.9-0.9-1.6c0-0.7,0.3-1.2,0.9-1.7
					c0.6-0.4,1.3-0.6,2.3-0.6C381.3,327,382.5,327.9,382.7,329.6z"/>
				<path style="fill:#444444;" d="M391.2,328.3c0.6,0.8,0.9,1.8,0.9,3.1c0,1.2-0.3,2.2-0.9,3c-0.7,0.9-1.6,1.3-2.8,1.3
					c-1.2,0-2.1-0.6-2.7-1.7v4.7h-1.3v-11.4h1.2v1.4c0.6-1.1,1.5-1.6,2.8-1.6C389.6,327,390.5,327.4,391.2,328.3z M386.3,329
					c-0.4,0.6-0.6,1.3-0.6,2.3v0.2c0,1,0.2,1.7,0.7,2.3c0.4,0.6,1,0.9,1.8,0.9c0.9,0,1.6-0.3,2-0.9c0.4-0.6,0.6-1.4,0.6-2.4
					c0-1-0.2-1.8-0.6-2.3c-0.5-0.7-1.1-1-2-1C387.4,328.1,386.7,328.4,386.3,329z"/>
				<path style="fill:#444444;" d="M400,327.9c0.5,0.5,0.7,1.3,0.7,2.3v5.3h-1.2v-1.4c-0.3,0.4-0.8,0.8-1.3,1.1
					c-0.6,0.3-1.3,0.5-2.1,0.5c-0.8,0-1.5-0.2-2-0.6c-0.5-0.4-0.8-1-0.8-1.7c0-0.9,0.4-1.6,1.1-2.1c0.7-0.4,1.6-0.7,2.9-0.7l2,0
					v-0.4c0-1.4-0.7-2.1-2.2-2.1c-0.6,0-1.1,0.1-1.5,0.4c-0.4,0.3-0.7,0.7-0.8,1.2l-1.3-0.1c0.2-0.9,0.6-1.5,1.3-1.9
					c0.6-0.4,1.4-0.6,2.4-0.6C398.6,327,399.5,327.3,400,327.9z M397.6,331.6c-1.9,0-2.8,0.6-2.8,1.8c0,0.4,0.1,0.7,0.5,0.9
					c0.3,0.2,0.7,0.4,1.2,0.4c0.8,0,1.5-0.3,2.1-0.8c0.6-0.5,0.9-1.1,0.9-1.7v-0.7L397.6,331.6z"/>
				<path style="fill:#444444;" d="M409.7,330.4v5.1h-1.3v-5c0-1.6-0.7-2.4-2.2-2.4c-0.6,0-1.1,0.2-1.5,0.6c-0.4,0.4-0.7,1-0.7,1.8
					v5h-1.3v-8.3h1.3v1.2c0.3-0.5,0.7-0.8,1.1-1.1c0.4-0.3,0.9-0.4,1.5-0.4C408.7,327,409.7,328.1,409.7,330.4z"/>
				<path style="fill:#444444;" d="M413.4,324.4c0.2,0.2,0.3,0.4,0.3,0.7c0,0.3-0.1,0.5-0.3,0.7c-0.2,0.2-0.4,0.3-0.7,0.3
					s-0.5-0.1-0.7-0.3c-0.2-0.2-0.3-0.4-0.3-0.7c0-0.3,0.1-0.5,0.3-0.7c0.2-0.2,0.4-0.3,0.7-0.3S413.2,324.2,413.4,324.4z
					 M413.4,327.2v8.3h-1.3v-8.3H413.4z"/>
				<path style="fill:#444444;" d="M423.2,323.9v11.7H422v-1.4c-0.6,1.1-1.5,1.6-2.8,1.6c-1.2,0-2.2-0.4-2.8-1.3
					c-0.6-0.8-0.9-1.8-0.9-3.1c0-1.2,0.3-2.2,0.9-3c0.7-0.9,1.6-1.3,2.8-1.3s2.1,0.6,2.7,1.7v-4.9H423.2z M417.4,329
					c-0.4,0.6-0.6,1.3-0.6,2.3c0,1,0.2,1.8,0.6,2.4c0.4,0.6,1.1,1,2,1c0.8,0,1.5-0.3,1.9-1c0.4-0.6,0.6-1.3,0.6-2.3v-0.2
					c0-1-0.2-1.7-0.7-2.3c-0.5-0.6-1.1-0.9-1.8-0.9C418.5,328.1,417.8,328.4,417.4,329z"/>
				<path style="fill:#444444;" d="M428.9,326.1c0.2,0.2,0.3,0.4,0.3,0.7c0,0.3-0.1,0.5-0.3,0.7s-0.4,0.3-0.7,0.3
					c-0.3,0-0.5-0.1-0.7-0.3c-0.2-0.2-0.3-0.4-0.3-0.7c0-0.3,0.1-0.5,0.3-0.7c0.2-0.2,0.4-0.3,0.7-0.3
					C428.5,325.8,428.7,325.9,428.9,326.1z M428.9,331.9c0.2,0.2,0.3,0.4,0.3,0.7c0,0.3-0.1,0.5-0.3,0.7s-0.4,0.3-0.7,0.3
					c-0.3,0-0.5-0.1-0.7-0.3c-0.2-0.2-0.3-0.4-0.3-0.7c0-0.3,0.1-0.5,0.3-0.7c0.2-0.2,0.4-0.3,0.7-0.3
					C428.5,331.6,428.7,331.7,428.9,331.9z"/>
				<path style="fill:#444444;" d="M449.5,324.9c0.9,0.7,1.4,1.6,1.5,2.7h-1.3c-0.2-0.8-0.6-1.5-1.2-1.9c-0.6-0.4-1.4-0.6-2.3-0.6
					c-1.3,0-2.4,0.5-3.1,1.4c-0.7,0.9-1,2-1,3.4c0,1.4,0.3,2.6,1,3.4c0.7,0.9,1.7,1.3,3.1,1.3c0.9,0,1.7-0.2,2.3-0.7
					c0.7-0.5,1.1-1.3,1.4-2.3h1.3c-0.3,1.3-0.8,2.4-1.8,3.1c-0.9,0.7-1.9,1-3.2,1c-1.8,0-3.1-0.6-4.1-1.8c-0.9-1.1-1.3-2.4-1.3-4.1
					c0-1.7,0.4-3.1,1.3-4.2c1-1.2,2.3-1.8,4.1-1.8C447.5,323.9,448.6,324.2,449.5,324.9z"/>
				<path style="fill:#444444;" d="M382.4,349.7c0.6,0.5,1,1.2,1.2,2.3h-1.3c-0.1-0.6-0.4-1.1-0.8-1.4c-0.4-0.3-0.9-0.5-1.6-0.5
					c-0.8,0-1.4,0.3-1.9,0.9c-0.4,0.6-0.7,1.4-0.7,2.4c0,1,0.2,1.8,0.7,2.4c0.4,0.6,1.1,0.9,1.9,0.9c1.4,0,2.2-0.7,2.4-2.1h1.3
					c-0.2,1.1-0.6,1.9-1.2,2.4c-0.6,0.5-1.4,0.8-2.5,0.8c-1.2,0-2.2-0.4-2.9-1.2c-0.7-0.8-1-1.8-1-3.1s0.3-2.3,1-3.1
					c0.7-0.9,1.7-1.3,2.9-1.3C380.9,349,381.8,349.3,382.4,349.7z"/>
				<path style="fill:#444444;" d="M391.4,351.6h-1.2c-0.1-0.5-0.3-0.9-0.6-1.1c-0.4-0.3-0.9-0.4-1.5-0.4c-0.6,0-1,0.1-1.3,0.3
					c-0.4,0.2-0.5,0.5-0.5,0.9c0,0.4,0.2,0.7,0.7,0.9c0.3,0.1,0.9,0.3,1.7,0.5c1,0.2,1.7,0.5,2.1,0.8c0.7,0.4,1,1,1,1.7
					c0,1.7-1.2,2.6-3.5,2.6c-2.2,0-3.4-1-3.6-2.9h1.2c0.1,0.7,0.3,1.1,0.7,1.4c0.4,0.3,0.9,0.4,1.6,0.4c1.5,0,2.2-0.5,2.2-1.4
					c0-0.5-0.3-0.8-0.8-1.1c-0.3-0.1-0.9-0.3-1.8-0.5c-1-0.2-1.7-0.5-2-0.7c-0.6-0.4-0.9-0.9-0.9-1.6c0-0.7,0.3-1.2,0.9-1.7
					c0.6-0.4,1.3-0.6,2.3-0.6C390.1,349,391.2,349.9,391.4,351.6z"/>
				<path style="fill:#444444;" d="M396.8,356.9c0.5,0.5,1,1.1,1.4,1.6l-0.8,0.7c-0.4-0.5-0.8-1.1-1.4-1.6c-0.6-0.6-1.2-1.2-1.8-1.6
					l0.7-0.7C395.6,355.7,396.2,356.2,396.8,356.9z"/>
				<path style="fill:#444444;" d="M415.2,349.7c0.6,0.5,1,1.2,1.2,2.3h-1.3c-0.1-0.6-0.4-1.1-0.8-1.4c-0.4-0.3-0.9-0.5-1.6-0.5
					c-0.8,0-1.4,0.3-1.9,0.9c-0.4,0.6-0.7,1.4-0.7,2.4c0,1,0.2,1.8,0.7,2.4c0.4,0.6,1.1,0.9,1.9,0.9c1.4,0,2.2-0.7,2.4-2.1h1.3
					c-0.2,1.1-0.6,1.9-1.2,2.4c-0.6,0.5-1.4,0.8-2.5,0.8c-1.2,0-2.2-0.4-2.9-1.2c-0.7-0.8-1-1.8-1-3.1s0.3-2.3,1-3.1
					c0.7-0.9,1.7-1.3,2.9-1.3C413.8,349,414.6,349.3,415.2,349.7z"/>
				<path style="fill:#444444;" d="M422.7,349.2v1.3c-0.4-0.1-0.8-0.2-1.2-0.2c-0.6,0-1.2,0.3-1.6,0.8c-0.4,0.5-0.7,1.2-0.7,2v4.4
					h-1.3v-8.3h1.3v1.4c0.2-0.5,0.5-0.9,0.9-1.1c0.4-0.4,0.9-0.5,1.5-0.5C422,349,422.4,349.1,422.7,349.2z"/>
			</g>
		</g>
	</g>
	<g>
		<g>
			<rect x="599.2" y="2.7" style="fill:#EAEBEC;" width="192.4" height="164"/>
			<g>
				<g style="enable-background:new    ;">
					<path style="fill:#444444;" d="M617.1,31l-0.8-0.7c0.6-1.3,0.8-2.9,0.9-4.8v-6.7h4.1v10.9c0,0.8-0.4,1.3-1.2,1.3H619l-0.2-0.9
						c0.4,0,0.7,0.1,1.1,0.1c0.3,0,0.5-0.3,0.5-0.8v-3.2h-2.3C618.1,28.2,617.7,29.8,617.1,31z M620.4,19.7h-2.3V22h2.3V19.7z
						 M618.2,25.3h2.3V23h-2.3V25.3z M623.5,31h-1V18.8h5.7c0,1.7-0.1,2.9-0.3,3.4c-0.2,0.6-0.7,0.9-1.6,0.9h-1.1l-0.3-0.9
						c0.2,0,0.5,0,0.9,0c0.3,0,0.6,0,0.7-0.1c0.2-0.1,0.3-0.2,0.4-0.4c0.1-0.3,0.2-1,0.2-2.1h-3.7v4.2h4.8v0.9
						c-0.3,1.4-0.7,2.7-1.4,3.7c0.6,0.6,1.4,1.2,2.2,1.7l-0.5,0.9c-0.9-0.5-1.7-1.1-2.3-1.7c-0.6,0.7-1.3,1.3-2.2,1.7l-0.5-0.8
						c0.8-0.4,1.5-1,2-1.7c-0.9-1.1-1.5-2.3-1.8-3.7h-0.3V31z M626.2,27.7c0.5-0.8,0.9-1.8,1.1-2.9h-2.7
						C625,25.9,625.5,26.9,626.2,27.7z"/>
					<path style="fill:#444444;" d="M635.4,18.3c-0.2,0.4-0.3,0.7-0.5,1.1h6.1v0.8c-0.9,1-2,1.9-3.3,2.6c1.6,0.7,3.3,1.1,5.3,1.3
						l-0.5,0.9c-2.2-0.3-4.2-0.8-5.9-1.7c-1.7,0.8-3.7,1.4-6,1.7l-0.5-1c2-0.3,3.8-0.7,5.4-1.3c-0.8-0.5-1.5-1-2.2-1.6
						c-0.5,0.5-1.1,0.9-1.8,1.3l-0.6-0.8c1.7-1,2.8-2.1,3.4-3.5L635.4,18.3z M636.8,24.4c0,0.6-0.1,1.1-0.1,1.6h4.9
						c0,2.4-0.2,3.8-0.6,4.2c-0.4,0.5-1.1,0.7-2.1,0.7c-0.4,0-1,0-1.6-0.1l-0.3-0.9l1.7,0.1c0.8,0,1.4-0.2,1.6-0.5
						c0.2-0.3,0.3-1.2,0.4-2.6h-4.1c-0.1,0.4-0.3,0.7-0.4,1c-0.7,1.3-2.4,2.3-4.9,3.1l-0.7-0.8c2.3-0.7,3.8-1.5,4.6-2.5
						c0.2-0.3,0.3-0.5,0.4-0.8h-4.2V26h4.5c0.1-0.5,0.2-1,0.2-1.6H636.8z M639.6,20.3h-5.4l-0.2,0.2c0.8,0.7,1.7,1.3,2.6,1.8
						C637.8,21.7,638.8,21,639.6,20.3z"/>
					<path style="fill:#444444;" d="M650.2,20.2c0.6,0.5,0.9,1.2,0.9,2.1c0,0.9-0.3,1.7-1,2.4c-0.4,0.4-1,0.9-2.1,1.6
						c-1.3,0.9-2,1.6-2.2,2.3h5.3v1h-6.7c0-0.9,0.3-1.7,1-2.5c0.4-0.4,1.1-1.1,2.2-1.8c0.8-0.6,1.3-1,1.6-1.2
						c0.5-0.5,0.8-1.1,0.8-1.8c0-0.6-0.2-1.1-0.5-1.4s-0.9-0.5-1.5-0.5c-0.7,0-1.2,0.2-1.6,0.7c-0.4,0.4-0.6,1.1-0.6,2h-1.1
						c0-1.1,0.3-2,0.9-2.7c0.6-0.7,1.4-1,2.5-1C648.9,19.4,649.6,19.7,650.2,20.2z"/>
				</g>
			</g>
			<g>
				<g>
					<rect x="617.6" y="51.9" style="opacity:0.6;fill:#BBBBBB;enable-background:new    ;" width="156" height="96"/>
					<rect x="615.6" y="49.9" style="fill:#FFFFFF;stroke:#E5E5E5;" width="156" height="96"/>
				</g>
				<g style="enable-background:new    ;">
					<path style="fill:#444444;" d="M658.9,73.6h2v1.1h-2v5.3c0,0.3,0,0.5,0.2,0.7c0.1,0.1,0.3,0.2,0.6,0.2h1.1v1.1h-1.2
						c-0.7,0-1.2-0.2-1.5-0.5c-0.3-0.3-0.4-0.8-0.4-1.4v-5.3H656v-1.1h1.7v-2.1l1.3-0.5V73.6z"/>
					<path style="fill:#444444;" d="M667.2,73.6v1.3c-0.4-0.1-0.8-0.2-1.2-0.2c-0.6,0-1.2,0.3-1.6,0.8c-0.4,0.5-0.7,1.2-0.7,2v4.4
						h-1.3v-8.3h1.3V75c0.2-0.5,0.5-0.9,0.9-1.1c0.4-0.4,0.9-0.5,1.5-0.5C666.5,73.4,666.9,73.4,667.2,73.6z"/>
					<path style="fill:#444444;" d="M674.5,74.3c0.5,0.5,0.7,1.3,0.7,2.3v5.3H674v-1.4c-0.3,0.4-0.8,0.8-1.3,1.1
						c-0.6,0.3-1.3,0.5-2.1,0.5c-0.8,0-1.5-0.2-2-0.6c-0.5-0.4-0.8-1-0.8-1.7c0-0.9,0.4-1.6,1.1-2.1c0.7-0.4,1.6-0.7,2.9-0.7l2,0
						v-0.4c0-1.4-0.7-2.1-2.2-2.1c-0.6,0-1.1,0.1-1.5,0.4c-0.4,0.3-0.7,0.7-0.8,1.2l-1.3-0.1c0.2-0.9,0.6-1.5,1.3-1.9
						c0.6-0.4,1.4-0.6,2.4-0.6C673,73.4,673.9,73.7,674.5,74.3z M672,77.9c-1.9,0-2.8,0.6-2.8,1.8c0,0.4,0.1,0.7,0.5,0.9
						c0.3,0.2,0.7,0.4,1.2,0.4c0.8,0,1.5-0.3,2.1-0.8c0.6-0.5,0.9-1.1,0.9-1.7v-0.7L672,77.9z"/>
					<path style="fill:#444444;" d="M683.2,74.1c0.6,0.5,1,1.2,1.2,2.3h-1.3c-0.1-0.6-0.4-1.1-0.8-1.4c-0.4-0.3-0.9-0.5-1.6-0.5
						c-0.8,0-1.4,0.3-1.9,0.9c-0.4,0.6-0.7,1.4-0.7,2.4c0,1,0.2,1.8,0.7,2.4c0.4,0.6,1.1,0.9,1.9,0.9c1.4,0,2.2-0.7,2.4-2.1h1.3
						c-0.2,1.1-0.6,1.9-1.2,2.4c-0.6,0.5-1.4,0.8-2.5,0.8c-1.2,0-2.2-0.4-2.9-1.2c-0.7-0.8-1-1.8-1-3.1s0.3-2.3,1-3.1
						c0.7-0.9,1.7-1.3,2.9-1.3C681.8,73.4,682.6,73.6,683.2,74.1z"/>
					<path style="fill:#444444;" d="M692.4,74.7c0.6,0.8,0.9,1.9,1,3.4h-6.5c0.1,0.9,0.3,1.6,0.8,2.2c0.4,0.5,1.1,0.8,1.9,0.8
						c0.7,0,1.2-0.2,1.6-0.5c0.4-0.3,0.6-0.7,0.8-1.3h1.3c-0.2,0.8-0.6,1.4-1.1,2c-0.7,0.6-1.6,0.9-2.6,0.9c-1.2,0-2.1-0.4-2.8-1.2
						c-0.7-0.8-1.1-1.9-1.1-3.2c0-1.2,0.3-2.2,1-3.1c0.7-0.9,1.6-1.3,2.8-1.3C690.7,73.4,691.7,73.8,692.4,74.7z M687.6,75.2
						c-0.4,0.5-0.7,1.1-0.8,1.9h5.2c-0.2-1.8-1-2.7-2.6-2.7C688.6,74.4,688,74.7,687.6,75.2z"/>
					<path style="fill:#444444;" d="M696.6,70.7c0.2,0.2,0.3,0.4,0.3,0.7c0,0.3-0.1,0.5-0.3,0.7c-0.2,0.2-0.4,0.3-0.7,0.3
						c-0.3,0-0.5-0.1-0.7-0.3c-0.2-0.2-0.3-0.4-0.3-0.7c0-0.3,0.1-0.5,0.3-0.7c0.2-0.2,0.4-0.3,0.7-0.3
						C696.1,70.5,696.4,70.5,696.6,70.7z M696.5,73.6v8.3h-1.3v-8.3H696.5z"/>
					<path style="fill:#444444;" d="M706.3,70.2v11.7h-1.2v-1.4c-0.6,1.1-1.5,1.6-2.8,1.6c-1.2,0-2.2-0.4-2.8-1.3
						c-0.6-0.8-0.9-1.8-0.9-3.1c0-1.2,0.3-2.2,0.9-3c0.7-0.9,1.6-1.3,2.8-1.3s2.1,0.6,2.7,1.7v-4.9H706.3z M700.5,75.4
						c-0.4,0.6-0.6,1.3-0.6,2.3c0,1,0.2,1.8,0.6,2.4c0.4,0.6,1.1,1,2,1c0.8,0,1.5-0.3,1.9-1c0.4-0.6,0.6-1.3,0.6-2.3v-0.2
						c0-1-0.2-1.7-0.7-2.3c-0.5-0.6-1.1-0.9-1.8-0.9C701.6,74.4,701,74.7,700.5,75.4z"/>
					<path style="fill:#444444;" d="M712,72.4c0.2,0.2,0.3,0.4,0.3,0.7c0,0.3-0.1,0.5-0.3,0.7c-0.2,0.2-0.4,0.3-0.7,0.3
						c-0.3,0-0.5-0.1-0.7-0.3c-0.2-0.2-0.3-0.4-0.3-0.7c0-0.3,0.1-0.5,0.3-0.7c0.2-0.2,0.4-0.3,0.7-0.3
						C711.6,72.1,711.8,72.2,712,72.4z M712,78.3c0.2,0.2,0.3,0.4,0.3,0.7c0,0.3-0.1,0.5-0.3,0.7c-0.2,0.2-0.4,0.3-0.7,0.3
						c-0.3,0-0.5-0.1-0.7-0.3c-0.2-0.2-0.3-0.4-0.3-0.7c0-0.3,0.1-0.5,0.3-0.7c0.2-0.2,0.4-0.3,0.7-0.3
						C711.6,78,711.8,78.1,712,78.3z"/>
					<path style="fill:#444444;" d="M725.3,70.4l3.1,4.5l3.1-4.5h1.6l-3.9,5.5l4.2,5.9h-1.6l-3.4-4.9l-3.4,4.9h-1.6l4.2-5.9
						l-3.9-5.5H725.3z"/>
					<path style="fill:#444444;" d="M663,97.9h-1.2c-0.1-0.5-0.3-0.9-0.6-1.1c-0.4-0.3-0.9-0.4-1.5-0.4c-0.6,0-1,0.1-1.3,0.3
						c-0.4,0.2-0.5,0.5-0.5,0.9c0,0.4,0.2,0.7,0.7,0.9c0.3,0.1,0.9,0.3,1.7,0.5c1,0.2,1.7,0.5,2.1,0.8c0.7,0.4,1,1,1,1.7
						c0,1.7-1.2,2.6-3.5,2.6c-2.2,0-3.4-1-3.6-2.9h1.2c0.1,0.7,0.3,1.1,0.7,1.4c0.4,0.3,0.9,0.4,1.6,0.4c1.5,0,2.2-0.5,2.2-1.4
						c0-0.5-0.3-0.8-0.8-1.1c-0.3-0.1-0.9-0.3-1.8-0.5c-1-0.2-1.7-0.5-2-0.7c-0.6-0.4-0.9-0.9-0.9-1.6c0-0.7,0.3-1.2,0.9-1.7
						c0.6-0.4,1.3-0.6,2.3-0.6C661.7,95.4,662.8,96.2,663,97.9z"/>
					<path style="fill:#444444;" d="M671.6,96.7c0.6,0.8,0.9,1.8,0.9,3.1c0,1.2-0.3,2.2-0.9,3c-0.7,0.9-1.6,1.3-2.8,1.3
						s-2.1-0.6-2.7-1.7v4.7h-1.3V95.6h1.2v1.4c0.6-1.1,1.5-1.6,2.8-1.6C669.9,95.4,670.9,95.8,671.6,96.7z M666.7,97.4
						c-0.4,0.6-0.6,1.3-0.6,2.3v0.2c0,1,0.2,1.7,0.7,2.3c0.4,0.6,1,0.9,1.8,0.9c0.9,0,1.6-0.3,2-0.9c0.4-0.6,0.6-1.4,0.6-2.4
						c0-1-0.2-1.8-0.6-2.3c-0.5-0.7-1.1-1-2-1C667.8,96.4,667.1,96.7,666.7,97.4z"/>
					<path style="fill:#444444;" d="M680.4,96.3c0.5,0.5,0.7,1.3,0.7,2.3v5.3h-1.2v-1.4c-0.3,0.4-0.8,0.8-1.3,1.1
						c-0.6,0.3-1.3,0.5-2.1,0.5c-0.8,0-1.5-0.2-2-0.6c-0.5-0.4-0.8-1-0.8-1.7c0-0.9,0.4-1.6,1.1-2.1c0.7-0.4,1.6-0.7,2.9-0.7l2,0
						v-0.4c0-1.4-0.7-2.1-2.2-2.1c-0.6,0-1.1,0.1-1.5,0.4c-0.4,0.3-0.7,0.7-0.8,1.2l-1.3-0.1c0.2-0.9,0.6-1.5,1.3-1.9
						c0.6-0.4,1.4-0.6,2.4-0.6C679,95.4,679.8,95.7,680.4,96.3z M678,99.9c-1.9,0-2.8,0.6-2.8,1.8c0,0.4,0.1,0.7,0.5,0.9
						c0.3,0.2,0.7,0.4,1.2,0.4c0.8,0,1.5-0.3,2.1-0.8c0.6-0.5,0.9-1.1,0.9-1.7v-0.7L678,99.9z"/>
					<path style="fill:#444444;" d="M690.1,98.8v5.1h-1.3v-5c0-1.6-0.7-2.4-2.2-2.4c-0.6,0-1.1,0.2-1.5,0.6c-0.4,0.4-0.7,1-0.7,1.8
						v5h-1.3v-8.3h1.3v1.2c0.3-0.5,0.7-0.8,1.1-1.1c0.4-0.3,0.9-0.4,1.5-0.4C689,95.4,690.1,96.5,690.1,98.8z"/>
					<path style="fill:#444444;" d="M693.8,92.7c0.2,0.2,0.3,0.4,0.3,0.7c0,0.3-0.1,0.5-0.3,0.7c-0.2,0.2-0.4,0.3-0.7,0.3
						c-0.3,0-0.5-0.1-0.7-0.3c-0.2-0.2-0.3-0.4-0.3-0.7c0-0.3,0.1-0.5,0.3-0.7c0.2-0.2,0.4-0.3,0.7-0.3
						C693.4,92.5,693.6,92.5,693.8,92.7z M693.8,95.6v8.3h-1.3v-8.3H693.8z"/>
					<path style="fill:#444444;" d="M703.6,92.2v11.7h-1.2v-1.4c-0.6,1.1-1.5,1.6-2.8,1.6c-1.2,0-2.2-0.4-2.8-1.3
						c-0.6-0.8-0.9-1.8-0.9-3.1c0-1.2,0.3-2.2,0.9-3c0.7-0.9,1.6-1.3,2.8-1.3s2.1,0.6,2.7,1.7v-4.9H703.6z M697.8,97.4
						c-0.4,0.6-0.6,1.3-0.6,2.3c0,1,0.2,1.8,0.6,2.4c0.4,0.6,1.1,1,2,1c0.8,0,1.5-0.3,1.9-1c0.4-0.6,0.6-1.3,0.6-2.3v-0.2
						c0-1-0.2-1.7-0.7-2.3c-0.5-0.6-1.1-0.9-1.8-0.9C698.9,96.4,698.2,96.7,697.8,97.4z"/>
					<path style="fill:#444444;" d="M709.2,94.4c0.2,0.2,0.3,0.4,0.3,0.7c0,0.3-0.1,0.5-0.3,0.7c-0.2,0.2-0.4,0.3-0.7,0.3
						c-0.3,0-0.5-0.1-0.7-0.3c-0.2-0.2-0.3-0.4-0.3-0.7c0-0.3,0.1-0.5,0.3-0.7c0.2-0.2,0.4-0.3,0.7-0.3
						C708.8,94.1,709.1,94.2,709.2,94.4z M709.2,100.3c0.2,0.2,0.3,0.4,0.3,0.7c0,0.3-0.1,0.5-0.3,0.7c-0.2,0.2-0.4,0.3-0.7,0.3
						c-0.3,0-0.5-0.1-0.7-0.3c-0.2-0.2-0.3-0.4-0.3-0.7c0-0.3,0.1-0.5,0.3-0.7c0.2-0.2,0.4-0.3,0.7-0.3
						C708.8,100,709.1,100.1,709.2,100.3z"/>
					<path style="fill:#444444;" d="M726.8,92.4c1.1,0,1.9,0.3,2.5,0.8c0.6,0.5,0.9,1.2,0.9,2.1c0,0.6-0.2,1.2-0.5,1.7
						c-0.4,0.4-0.8,0.7-1.4,0.9c0.8,0.1,1.3,0.4,1.7,0.9s0.6,1.1,0.6,1.9c0,1.1-0.4,2-1.2,2.5c-0.7,0.4-1.6,0.7-2.8,0.7h-5.1V92.4
						H726.8z M723,97.4h3.5c0.8,0,1.4-0.2,1.8-0.5c0.4-0.3,0.6-0.8,0.6-1.5c0-0.6-0.2-1.1-0.6-1.4c-0.4-0.3-1-0.5-1.8-0.5H723V97.4z
						 M723,102.8h3.6c0.8,0,1.4-0.2,1.9-0.4c0.6-0.4,0.8-0.9,0.8-1.6s-0.3-1.3-0.7-1.6c-0.5-0.4-1.1-0.5-2-0.5H723V102.8z"/>
					<path style="fill:#444444;" d="M662.8,118.1c0.6,0.5,1,1.2,1.2,2.3h-1.3c-0.1-0.6-0.4-1.1-0.8-1.4c-0.4-0.3-0.9-0.5-1.6-0.5
						c-0.8,0-1.4,0.3-1.9,0.9c-0.4,0.6-0.7,1.4-0.7,2.4c0,1,0.2,1.8,0.7,2.4c0.4,0.6,1.1,0.9,1.9,0.9c1.4,0,2.2-0.7,2.4-2.1h1.3
						c-0.2,1.1-0.6,1.9-1.2,2.4c-0.6,0.5-1.4,0.8-2.5,0.8c-1.2,0-2.2-0.4-2.9-1.2c-0.7-0.8-1-1.8-1-3.1s0.3-2.3,1-3.1
						c0.7-0.9,1.7-1.3,2.9-1.3C661.3,117.4,662.1,117.6,662.8,118.1z"/>
					<path style="fill:#444444;" d="M671.8,119.9h-1.2c-0.1-0.5-0.3-0.9-0.6-1.1c-0.4-0.3-0.9-0.4-1.5-0.4c-0.6,0-1,0.1-1.3,0.3
						c-0.4,0.2-0.5,0.5-0.5,0.9c0,0.4,0.2,0.7,0.7,0.9c0.3,0.1,0.9,0.3,1.7,0.5c1,0.2,1.7,0.5,2.1,0.8c0.7,0.4,1,1,1,1.7
						c0,1.7-1.2,2.6-3.5,2.6c-2.2,0-3.4-1-3.6-2.9h1.2c0.1,0.7,0.3,1.1,0.7,1.4c0.4,0.3,0.9,0.4,1.6,0.4c1.5,0,2.2-0.5,2.2-1.4
						c0-0.5-0.3-0.8-0.8-1.1c-0.3-0.1-0.9-0.3-1.8-0.5c-1-0.2-1.7-0.5-2-0.7c-0.6-0.4-0.9-0.9-0.9-1.6c0-0.7,0.3-1.2,0.9-1.7
						c0.6-0.4,1.3-0.6,2.3-0.6C670.4,117.4,671.6,118.2,671.8,119.9z"/>
					<path style="fill:#444444;" d="M677.2,125.2c0.5,0.5,1,1.1,1.4,1.6l-0.8,0.7c-0.4-0.5-0.8-1.1-1.4-1.6
						c-0.6-0.6-1.2-1.2-1.8-1.6l0.7-0.7C675.9,124.1,676.6,124.6,677.2,125.2z"/>
					<path style="fill:#444444;" d="M695.6,118.1c0.6,0.5,1,1.2,1.2,2.3h-1.3c-0.1-0.6-0.4-1.1-0.8-1.4c-0.4-0.3-0.9-0.5-1.6-0.5
						c-0.8,0-1.4,0.3-1.9,0.9c-0.4,0.6-0.7,1.4-0.7,2.4c0,1,0.2,1.8,0.7,2.4c0.4,0.6,1.1,0.9,1.9,0.9c1.4,0,2.2-0.7,2.4-2.1h1.3
						c-0.2,1.1-0.6,1.9-1.2,2.4c-0.6,0.5-1.4,0.8-2.5,0.8c-1.2,0-2.2-0.4-2.9-1.2c-0.7-0.8-1-1.8-1-3.1s0.3-2.3,1-3.1
						c0.7-0.9,1.7-1.3,2.9-1.3C694.1,117.4,695,117.6,695.6,118.1z"/>
					<path style="fill:#444444;" d="M703.1,117.6v1.3c-0.4-0.1-0.8-0.2-1.2-0.2c-0.6,0-1.2,0.3-1.6,0.8c-0.4,0.5-0.7,1.2-0.7,2v4.4
						h-1.3v-8.3h1.3v1.4c0.2-0.5,0.5-0.9,0.9-1.1c0.4-0.4,0.9-0.5,1.5-0.5C702.4,117.4,702.8,117.4,703.1,117.6z"/>
				</g>
			</g>
		</g>
		<g>
			<rect x="599.2" y="233.4" style="fill:#EAEBEC;" width="192.4" height="164"/>
			<g>
				<g style="enable-background:new    ;">
					<path style="fill:#444444;" d="M617.1,261.8l-0.8-0.7c0.6-1.3,0.8-2.9,0.9-4.8v-6.7h4.1v10.9c0,0.8-0.4,1.3-1.2,1.3H619
						l-0.2-0.9c0.4,0,0.7,0.1,1.1,0.1c0.3,0,0.5-0.3,0.5-0.8v-3.2h-2.3C618.1,258.9,617.7,260.5,617.1,261.8z M620.4,250.4h-2.3v2.4
						h2.3V250.4z M618.2,256h2.3v-2.3h-2.3V256z M623.5,261.7h-1v-12.3h5.7c0,1.7-0.1,2.9-0.3,3.4c-0.2,0.6-0.7,0.9-1.6,0.9h-1.1
						l-0.3-0.9c0.2,0,0.5,0,0.9,0c0.3,0,0.6,0,0.7-0.1c0.2-0.1,0.3-0.2,0.4-0.4c0.1-0.3,0.2-1,0.2-2.1h-3.7v4.2h4.8v0.9
						c-0.3,1.4-0.7,2.7-1.4,3.7c0.6,0.6,1.4,1.2,2.2,1.7l-0.5,0.9c-0.9-0.5-1.7-1.1-2.3-1.7c-0.6,0.7-1.3,1.3-2.2,1.7l-0.5-0.8
						c0.8-0.4,1.5-1,2-1.7c-0.9-1.1-1.5-2.3-1.8-3.7h-0.3V261.7z M626.2,258.4c0.5-0.8,0.9-1.8,1.1-2.9h-2.7
						C625,256.6,625.5,257.6,626.2,258.4z"/>
					<path style="fill:#444444;" d="M635.4,249c-0.2,0.4-0.3,0.7-0.5,1.1h6.1v0.8c-0.9,1-2,1.9-3.3,2.6c1.6,0.7,3.3,1.1,5.3,1.3
						l-0.5,0.9c-2.2-0.3-4.2-0.8-5.9-1.7c-1.7,0.8-3.7,1.4-6,1.7l-0.5-1c2-0.3,3.8-0.7,5.4-1.3c-0.8-0.5-1.5-1-2.2-1.6
						c-0.5,0.5-1.1,0.9-1.8,1.3l-0.6-0.8c1.7-1,2.8-2.1,3.4-3.5L635.4,249z M636.8,255.1c0,0.6-0.1,1.1-0.1,1.6h4.9
						c0,2.4-0.2,3.8-0.6,4.2c-0.4,0.5-1.1,0.7-2.1,0.7c-0.4,0-1,0-1.6-0.1l-0.3-0.9l1.7,0.1c0.8,0,1.4-0.2,1.6-0.5
						c0.2-0.3,0.3-1.2,0.4-2.6h-4.1c-0.1,0.4-0.3,0.7-0.4,1c-0.7,1.3-2.4,2.3-4.9,3.1l-0.7-0.8c2.3-0.7,3.8-1.5,4.6-2.5
						c0.2-0.3,0.3-0.5,0.4-0.8h-4.2v-0.9h4.5c0.1-0.5,0.2-1,0.2-1.6H636.8z M639.6,251h-5.4l-0.2,0.2c0.8,0.7,1.7,1.3,2.6,1.8
						C637.8,252.4,638.8,251.8,639.6,251z"/>
					<path style="fill:#444444;" d="M650.2,250.9c0.6,0.5,0.9,1.1,0.9,2c0,1.1-0.5,1.9-1.6,2.2c0.6,0.2,1,0.5,1.3,0.9
						c0.3,0.4,0.5,0.9,0.5,1.5c0,0.9-0.3,1.7-1,2.2c-0.6,0.6-1.5,0.9-2.5,0.9c-1,0-1.7-0.3-2.3-0.7c-0.7-0.6-1.1-1.4-1.2-2.6h1.2
						c0,0.8,0.3,1.4,0.8,1.8c0.4,0.3,0.9,0.5,1.6,0.5c0.7,0,1.3-0.2,1.7-0.6c0.4-0.4,0.6-0.9,0.6-1.5c0-0.6-0.2-1.1-0.6-1.4
						c-0.4-0.3-0.9-0.5-1.6-0.5h-0.8v-0.9h0.8c0.7,0,1.2-0.2,1.5-0.4c0.4-0.3,0.5-0.7,0.5-1.3s-0.2-1-0.5-1.3
						c-0.4-0.3-0.9-0.5-1.5-0.5c-0.7,0-1.2,0.2-1.6,0.5c-0.4,0.4-0.6,0.9-0.7,1.6h-1.1c0.1-1,0.4-1.7,1.1-2.3
						c0.6-0.5,1.4-0.8,2.3-0.8C648.9,250.1,649.6,250.4,650.2,250.9z"/>
				</g>
			</g>
			<g>
				<g>
					<rect x="617.6" y="282.6" style="opacity:0.6;fill:#BBBBBB;enable-background:new    ;" width="156" height="96"/>
					<rect x="615.6" y="280.6" style="fill:#FFFFFF;stroke:#E5E5E5;" width="156" height="96"/>
				</g>
				<g style="enable-background:new    ;">
					<path style="fill:#444444;" d="M658.9,304.3h2v1.1h-2v5.3c0,0.3,0,0.5,0.2,0.7c0.1,0.1,0.3,0.2,0.6,0.2h1.1v1.1h-1.2
						c-0.7,0-1.2-0.2-1.5-0.5c-0.3-0.3-0.4-0.8-0.4-1.4v-5.3H656v-1.1h1.7v-2.1l1.3-0.5V304.3z"/>
					<path style="fill:#444444;" d="M667.2,304.3v1.3c-0.4-0.1-0.8-0.2-1.2-0.2c-0.6,0-1.2,0.3-1.6,0.8c-0.4,0.5-0.7,1.2-0.7,2v4.4
						h-1.3v-8.3h1.3v1.4c0.2-0.5,0.5-0.9,0.9-1.1c0.4-0.4,0.9-0.5,1.5-0.5C666.5,304.1,666.9,304.1,667.2,304.3z"/>
					<path style="fill:#444444;" d="M674.5,305c0.5,0.5,0.7,1.3,0.7,2.3v5.3H674v-1.4c-0.3,0.4-0.8,0.8-1.3,1.1
						c-0.6,0.3-1.3,0.5-2.1,0.5c-0.8,0-1.5-0.2-2-0.6c-0.5-0.4-0.8-1-0.8-1.7c0-0.9,0.4-1.6,1.1-2.1c0.7-0.4,1.6-0.7,2.9-0.7l2,0
						v-0.4c0-1.4-0.7-2.1-2.2-2.1c-0.6,0-1.1,0.1-1.5,0.4c-0.4,0.3-0.7,0.7-0.8,1.2l-1.3-0.1c0.2-0.9,0.6-1.5,1.3-1.9
						c0.6-0.4,1.4-0.6,2.4-0.6C673,304.1,673.9,304.4,674.5,305z M672,308.6c-1.9,0-2.8,0.6-2.8,1.8c0,0.4,0.1,0.7,0.5,0.9
						c0.3,0.2,0.7,0.4,1.2,0.4c0.8,0,1.5-0.3,2.1-0.8c0.6-0.5,0.9-1.1,0.9-1.7v-0.7L672,308.6z"/>
					<path style="fill:#444444;" d="M683.2,304.8c0.6,0.5,1,1.2,1.2,2.3h-1.3c-0.1-0.6-0.4-1.1-0.8-1.4c-0.4-0.3-0.9-0.5-1.6-0.5
						c-0.8,0-1.4,0.3-1.9,0.9c-0.4,0.6-0.7,1.4-0.7,2.4c0,1,0.2,1.8,0.7,2.4c0.4,0.6,1.1,0.9,1.9,0.9c1.4,0,2.2-0.7,2.4-2.1h1.3
						c-0.2,1.1-0.6,1.9-1.2,2.4c-0.6,0.5-1.4,0.8-2.5,0.8c-1.2,0-2.2-0.4-2.9-1.2c-0.7-0.8-1-1.8-1-3.1s0.3-2.3,1-3.1
						c0.7-0.9,1.7-1.3,2.9-1.3C681.8,304.1,682.6,304.3,683.2,304.8z"/>
					<path style="fill:#444444;" d="M692.4,305.4c0.6,0.8,0.9,1.9,1,3.4h-6.5c0.1,0.9,0.3,1.6,0.8,2.2c0.4,0.5,1.1,0.8,1.9,0.8
						c0.7,0,1.2-0.2,1.6-0.5c0.4-0.3,0.6-0.7,0.8-1.3h1.3c-0.2,0.8-0.6,1.4-1.1,2c-0.7,0.6-1.6,0.9-2.6,0.9c-1.2,0-2.1-0.4-2.8-1.2
						c-0.7-0.8-1.1-1.9-1.1-3.2c0-1.2,0.3-2.2,1-3.1c0.7-0.9,1.6-1.3,2.8-1.3C690.7,304.1,691.7,304.5,692.4,305.4z M687.6,305.9
						c-0.4,0.5-0.7,1.1-0.8,1.9h5.2c-0.2-1.8-1-2.7-2.6-2.7C688.6,305.2,688,305.4,687.6,305.9z"/>
					<path style="fill:#444444;" d="M696.6,301.5c0.2,0.2,0.3,0.4,0.3,0.7c0,0.3-0.1,0.5-0.3,0.7c-0.2,0.2-0.4,0.3-0.7,0.3
						c-0.3,0-0.5-0.1-0.7-0.3c-0.2-0.2-0.3-0.4-0.3-0.7c0-0.3,0.1-0.5,0.3-0.7c0.2-0.2,0.4-0.3,0.7-0.3
						C696.1,301.2,696.4,301.3,696.6,301.5z M696.5,304.3v8.3h-1.3v-8.3H696.5z"/>
					<path style="fill:#444444;" d="M706.3,300.9v11.7h-1.2v-1.4c-0.6,1.1-1.5,1.6-2.8,1.6c-1.2,0-2.2-0.4-2.8-1.3
						c-0.6-0.8-0.9-1.8-0.9-3.1c0-1.2,0.3-2.2,0.9-3c0.7-0.9,1.6-1.3,2.8-1.3s2.1,0.6,2.7,1.7v-4.9H706.3z M700.5,306.1
						c-0.4,0.6-0.6,1.3-0.6,2.3c0,1,0.2,1.8,0.6,2.4c0.4,0.6,1.1,1,2,1c0.8,0,1.5-0.3,1.9-1c0.4-0.6,0.6-1.3,0.6-2.3v-0.2
						c0-1-0.2-1.7-0.7-2.3c-0.5-0.6-1.1-0.9-1.8-0.9C701.6,305.1,701,305.5,700.5,306.1z"/>
					<path style="fill:#444444;" d="M712,303.1c0.2,0.2,0.3,0.4,0.3,0.7c0,0.3-0.1,0.5-0.3,0.7c-0.2,0.2-0.4,0.3-0.7,0.3
						c-0.3,0-0.5-0.1-0.7-0.3c-0.2-0.2-0.3-0.4-0.3-0.7c0-0.3,0.1-0.5,0.3-0.7c0.2-0.2,0.4-0.3,0.7-0.3
						C711.6,302.8,711.8,302.9,712,303.1z M712,309c0.2,0.2,0.3,0.4,0.3,0.7c0,0.3-0.1,0.5-0.3,0.7c-0.2,0.2-0.4,0.3-0.7,0.3
						c-0.3,0-0.5-0.1-0.7-0.3c-0.2-0.2-0.3-0.4-0.3-0.7c0-0.3,0.1-0.5,0.3-0.7c0.2-0.2,0.4-0.3,0.7-0.3
						C711.6,308.7,711.8,308.8,712,309z"/>
					<path style="fill:#444444;" d="M725.3,301.2l3.1,4.5l3.1-4.5h1.6l-3.9,5.5l4.2,5.9h-1.6l-3.4-4.9l-3.4,4.9h-1.6l4.2-5.9
						l-3.9-5.5H725.3z"/>
					<path style="fill:#444444;" d="M663,328.7h-1.2c-0.1-0.5-0.3-0.9-0.6-1.1c-0.4-0.3-0.9-0.4-1.5-0.4c-0.6,0-1,0.1-1.3,0.3
						c-0.4,0.2-0.5,0.5-0.5,0.9c0,0.4,0.2,0.7,0.7,0.9c0.3,0.1,0.9,0.3,1.7,0.5c1,0.2,1.7,0.5,2.1,0.8c0.7,0.4,1,1,1,1.7
						c0,1.7-1.2,2.6-3.5,2.6c-2.2,0-3.4-1-3.6-2.9h1.2c0.1,0.7,0.3,1.1,0.7,1.4c0.4,0.3,0.9,0.4,1.6,0.4c1.5,0,2.2-0.5,2.2-1.4
						c0-0.5-0.3-0.8-0.8-1.1c-0.3-0.1-0.9-0.3-1.8-0.5c-1-0.2-1.7-0.5-2-0.7c-0.6-0.4-0.9-0.9-0.9-1.6c0-0.7,0.3-1.2,0.9-1.7
						c0.6-0.4,1.3-0.6,2.3-0.6C661.7,326.1,662.8,326.9,663,328.7z"/>
					<path style="fill:#444444;" d="M671.6,327.4c0.6,0.8,0.9,1.8,0.9,3.1c0,1.2-0.3,2.2-0.9,3c-0.7,0.9-1.6,1.3-2.8,1.3
						s-2.1-0.6-2.7-1.7v4.7h-1.3v-11.4h1.2v1.4c0.6-1.1,1.5-1.6,2.8-1.6C669.9,326.1,670.9,326.5,671.6,327.4z M666.7,328.1
						c-0.4,0.6-0.6,1.3-0.6,2.3v0.2c0,1,0.2,1.7,0.7,2.3c0.4,0.6,1,0.9,1.8,0.9c0.9,0,1.6-0.3,2-0.9c0.4-0.6,0.6-1.4,0.6-2.4
						c0-1-0.2-1.8-0.6-2.3c-0.5-0.7-1.1-1-2-1C667.8,327.1,667.1,327.5,666.7,328.1z"/>
					<path style="fill:#444444;" d="M680.4,327c0.5,0.5,0.7,1.3,0.7,2.3v5.3h-1.2v-1.4c-0.3,0.4-0.8,0.8-1.3,1.1
						c-0.6,0.3-1.3,0.5-2.1,0.5c-0.8,0-1.5-0.2-2-0.6c-0.5-0.4-0.8-1-0.8-1.7c0-0.9,0.4-1.6,1.1-2.1c0.7-0.4,1.6-0.7,2.9-0.7l2,0
						v-0.4c0-1.4-0.7-2.1-2.2-2.1c-0.6,0-1.1,0.1-1.5,0.4c-0.4,0.3-0.7,0.7-0.8,1.2l-1.3-0.1c0.2-0.9,0.6-1.5,1.3-1.9
						c0.6-0.4,1.4-0.6,2.4-0.6C679,326.1,679.8,326.4,680.4,327z M678,330.6c-1.9,0-2.8,0.6-2.8,1.8c0,0.4,0.1,0.7,0.5,0.9
						c0.3,0.2,0.7,0.4,1.2,0.4c0.8,0,1.5-0.3,2.1-0.8c0.6-0.5,0.9-1.1,0.9-1.7v-0.7L678,330.6z"/>
					<path style="fill:#444444;" d="M690.1,329.5v5.1h-1.3v-5c0-1.6-0.7-2.4-2.2-2.4c-0.6,0-1.1,0.2-1.5,0.6c-0.4,0.4-0.7,1-0.7,1.8
						v5h-1.3v-8.3h1.3v1.2c0.3-0.5,0.7-0.8,1.1-1.1c0.4-0.3,0.9-0.4,1.5-0.4C689,326.1,690.1,327.2,690.1,329.5z"/>
					<path style="fill:#444444;" d="M693.8,323.5c0.2,0.2,0.3,0.4,0.3,0.7c0,0.3-0.1,0.5-0.3,0.7c-0.2,0.2-0.4,0.3-0.7,0.3
						c-0.3,0-0.5-0.1-0.7-0.3c-0.2-0.2-0.3-0.4-0.3-0.7c0-0.3,0.1-0.5,0.3-0.7c0.2-0.2,0.4-0.3,0.7-0.3
						C693.4,323.2,693.6,323.3,693.8,323.5z M693.8,326.3v8.3h-1.3v-8.3H693.8z"/>
					<path style="fill:#444444;" d="M703.6,322.9v11.7h-1.2v-1.4c-0.6,1.1-1.5,1.6-2.8,1.6c-1.2,0-2.2-0.4-2.8-1.3
						c-0.6-0.8-0.9-1.8-0.9-3.1c0-1.2,0.3-2.2,0.9-3c0.7-0.9,1.6-1.3,2.8-1.3s2.1,0.6,2.7,1.7v-4.9H703.6z M697.8,328.1
						c-0.4,0.6-0.6,1.3-0.6,2.3c0,1,0.2,1.8,0.6,2.4c0.4,0.6,1.1,1,2,1c0.8,0,1.5-0.3,1.9-1c0.4-0.6,0.6-1.3,0.6-2.3v-0.2
						c0-1-0.2-1.7-0.7-2.3c-0.5-0.6-1.1-0.9-1.8-0.9C698.9,327.1,698.2,327.5,697.8,328.1z"/>
					<path style="fill:#444444;" d="M709.2,325.1c0.2,0.2,0.3,0.4,0.3,0.7c0,0.3-0.1,0.5-0.3,0.7c-0.2,0.2-0.4,0.3-0.7,0.3
						c-0.3,0-0.5-0.1-0.7-0.3c-0.2-0.2-0.3-0.4-0.3-0.7c0-0.3,0.1-0.5,0.3-0.7c0.2-0.2,0.4-0.3,0.7-0.3
						C708.8,324.8,709.1,324.9,709.2,325.1z M709.2,331c0.2,0.2,0.3,0.4,0.3,0.7c0,0.3-0.1,0.5-0.3,0.7c-0.2,0.2-0.4,0.3-0.7,0.3
						c-0.3,0-0.5-0.1-0.7-0.3c-0.2-0.2-0.3-0.4-0.3-0.7c0-0.3,0.1-0.5,0.3-0.7c0.2-0.2,0.4-0.3,0.7-0.3
						C708.8,330.7,709.1,330.8,709.2,331z"/>
					<path style="fill:#444444;" d="M729.8,323.9c0.9,0.7,1.4,1.6,1.5,2.7h-1.3c-0.2-0.8-0.6-1.5-1.2-1.9c-0.6-0.4-1.4-0.6-2.3-0.6
						c-1.3,0-2.4,0.5-3.1,1.4c-0.7,0.9-1,2-1,3.4c0,1.4,0.3,2.6,1,3.4c0.7,0.9,1.7,1.3,3.1,1.3c0.9,0,1.7-0.2,2.3-0.7
						c0.7-0.5,1.1-1.3,1.4-2.3h1.3c-0.3,1.3-0.8,2.4-1.8,3.1c-0.9,0.7-1.9,1-3.2,1c-1.8,0-3.1-0.6-4.1-1.8c-0.9-1.1-1.3-2.4-1.3-4.1
						c0-1.7,0.4-3.1,1.3-4.2c1-1.2,2.3-1.8,4.1-1.8C727.9,322.9,729,323.3,729.8,323.9z"/>
					<path style="fill:#444444;" d="M662.8,348.8c0.6,0.5,1,1.2,1.2,2.3h-1.3c-0.1-0.6-0.4-1.1-0.8-1.4c-0.4-0.3-0.9-0.5-1.6-0.5
						c-0.8,0-1.4,0.3-1.9,0.9c-0.4,0.6-0.7,1.4-0.7,2.4c0,1,0.2,1.8,0.7,2.4c0.4,0.6,1.1,0.9,1.9,0.9c1.4,0,2.2-0.7,2.4-2.1h1.3
						c-0.2,1.1-0.6,1.9-1.2,2.4c-0.6,0.5-1.4,0.8-2.5,0.8c-1.2,0-2.2-0.4-2.9-1.2c-0.7-0.8-1-1.8-1-3.1s0.3-2.3,1-3.1
						c0.7-0.9,1.7-1.3,2.9-1.3C661.3,348.1,662.1,348.3,662.8,348.8z"/>
					<path style="fill:#444444;" d="M671.8,350.7h-1.2c-0.1-0.5-0.3-0.9-0.6-1.1c-0.4-0.3-0.9-0.4-1.5-0.4c-0.6,0-1,0.1-1.3,0.3
						c-0.4,0.2-0.5,0.5-0.5,0.9c0,0.4,0.2,0.7,0.7,0.9c0.3,0.1,0.9,0.3,1.7,0.5c1,0.2,1.7,0.5,2.1,0.8c0.7,0.4,1,1,1,1.7
						c0,1.7-1.2,2.6-3.5,2.6c-2.2,0-3.4-1-3.6-2.9h1.2c0.1,0.7,0.3,1.1,0.7,1.4c0.4,0.3,0.9,0.4,1.6,0.4c1.5,0,2.2-0.5,2.2-1.4
						c0-0.5-0.3-0.8-0.8-1.1c-0.3-0.1-0.9-0.3-1.8-0.5c-1-0.2-1.7-0.5-2-0.7c-0.6-0.4-0.9-0.9-0.9-1.6c0-0.7,0.3-1.2,0.9-1.7
						c0.6-0.4,1.3-0.6,2.3-0.6C670.4,348.1,671.6,348.9,671.8,350.7z"/>
					<path style="fill:#444444;" d="M677.2,355.9c0.5,0.5,1,1.1,1.4,1.6l-0.8,0.7c-0.4-0.5-0.8-1.1-1.4-1.6
						c-0.6-0.6-1.2-1.2-1.8-1.6l0.7-0.7C675.9,354.8,676.6,355.3,677.2,355.9z"/>
					<path style="fill:#444444;" d="M695.6,348.8c0.6,0.5,1,1.2,1.2,2.3h-1.3c-0.1-0.6-0.4-1.1-0.8-1.4c-0.4-0.3-0.9-0.5-1.6-0.5
						c-0.8,0-1.4,0.3-1.9,0.9c-0.4,0.6-0.7,1.4-0.7,2.4c0,1,0.2,1.8,0.7,2.4c0.4,0.6,1.1,0.9,1.9,0.9c1.4,0,2.2-0.7,2.4-2.1h1.3
						c-0.2,1.1-0.6,1.9-1.2,2.4c-0.6,0.5-1.4,0.8-2.5,0.8c-1.2,0-2.2-0.4-2.9-1.2c-0.7-0.8-1-1.8-1-3.1s0.3-2.3,1-3.1
						c0.7-0.9,1.7-1.3,2.9-1.3C694.1,348.1,695,348.3,695.6,348.8z"/>
					<path style="fill:#444444;" d="M703.1,348.3v1.3c-0.4-0.1-0.8-0.2-1.2-0.2c-0.6,0-1.2,0.3-1.6,0.8c-0.4,0.5-0.7,1.2-0.7,2v4.4
						h-1.3v-8.3h1.3v1.4c0.2-0.5,0.5-0.9,0.9-1.1c0.4-0.4,0.9-0.5,1.5-0.5C702.4,348.1,702.8,348.1,703.1,348.3z"/>
				</g>
			</g>
		</g>
	</g>
	<g>
		<polygon style="fill:#878787;" points="323.1,222.2 328.1,217.7 323.1,213.2 		"/>
		<polygon style="fill:#878787;" points="222.9,222.2 217.9,217.7 222.9,213.2 		"/>
		<rect x="222.9" y="217.2" style="fill:#878787;" width="100.2" height="1"/>
	</g>
	<g>
		<polygon style="fill:#878787;" points="605.7,102.3 610.7,97.8 605.7,93.3 		"/>
		<polygon style="fill:#878787;" points="505.5,102.3 500.5,97.8 505.5,93.3 		"/>
		<rect x="505.5" y="97.3" style="fill:#878787;" width="100.2" height="1"/>
	</g>
	<g>
		<polygon style="fill:#878787;" points="605.7,336 610.7,331.5 605.7,327 		"/>
		<polygon style="fill:#878787;" points="505.5,336 500.5,331.5 505.5,327 		"/>
		<rect x="505.5" y="331" style="fill:#878787;" width="100.2" height="1"/>
	</g>
</g>
</svg>
