<?xml version="1.0" encoding="utf-8"?>
<!-- Generator: Adobe Illustrator 16.0.0, SVG Export Plug-In . SVG Version: 6.00 Build 0)  -->
<!DOCTYPE svg PUBLIC "-//W3C//DTD SVG 1.1//EN" "http://www.w3.org/Graphics/SVG/1.1/DTD/svg11.dtd">
<svg version="1.1" id="图层_1" xmlns="http://www.w3.org/2000/svg" xmlns:xlink="http://www.w3.org/1999/xlink" x="0px" y="0px"
	 width="820px" height="180px" viewBox="0 0 820 180" enable-background="new 0 0 820 180" xml:space="preserve">
<g>
	<g>
		<polygon fill="#C1C1C1" points="339.74,54.566 330.5,50.497 330.5,53.699 186.771,53.699 186.771,55.699 330.5,55.699 
			330.5,58.72 		"/>
	</g>
</g>
<linearGradient id="SVGID_1_" gradientUnits="userSpaceOnUse" x1="705.7522" y1="775.7314" x2="633.4506" y2="703.4297" gradientTransform="matrix(1 0 0 1 -563.1992 -660.6797)">
	<stop  offset="0" style="stop-color:#0063FF"/>
	<stop  offset="1" style="stop-color:#00C8DE"/>
</linearGradient>
<path opacity="0.2" fill="url(#SVGID_1_)" enable-background="new    " d="M135.104,107.256c0-12.212,9.65-22.018,21.861-22.018
	c0.771,0,2.035,0.134,2.035,0.211V49H64v70h74.604C136.392,116,135.104,111.652,135.104,107.256z"/>
<g opacity="0.2">
	<g>
		
			<linearGradient id="SVGID_2_" gradientUnits="userSpaceOnUse" x1="1011.2786" y1="780.2002" x2="939.6682" y2="708.5898" gradientTransform="matrix(1 0 0 1 -563.1992 -660.6797)">
			<stop  offset="0" style="stop-color:#0063FF"/>
			<stop  offset="1" style="stop-color:#00C8DE"/>
		</linearGradient>
		<path fill="url(#SVGID_2_)" d="M413.871,95.794l6.891-3.683V85.05l-6.891,4.103V95.794z M405.316,82.921l7.27,4.038l7.268-4.038
			l-7.268-3.956L405.316,82.921z M404.475,91.979l6.889,3.815v-6.641l-6.889-3.969V91.979z M371.633,52.745l9.918,72h61.303
			l10.201-72H371.633z M412.607,67.878l-18.256,9.949v19.897l18.256,9.948l18.254-9.948v-14.42l2.695-1.247v17.159l-20.975,11.438
			L391.61,99.216V76.337l20.972-11.439l20.975,11.439l-2.695,1.49L412.607,67.878z M423.07,82.057v11.439l-10.484,5.72l-10.486-5.72
			V82.057l10.486-5.72L423.07,82.057z"/>
	</g>
</g>
<g>
	<g>
		
			<linearGradient id="SVGID_3_" gradientUnits="userSpaceOnUse" x1="1016.6848" y1="782.3379" x2="928.1072" y2="693.7603" gradientTransform="matrix(1 0 0 1 -563.1992 -660.6797)">
			<stop  offset="0" style="stop-color:#0063FF"/>
			<stop  offset="1" style="stop-color:#00C8DE"/>
		</linearGradient>
		<path fill="url(#SVGID_3_)" d="M451.771,48.697l3.75-8.055l-37.146-17.291l-3.646,7.829l-5.581-15.349l-42.415,15.423
			l6.343,17.443h-6.851l11.213,79.966h69.041l11.799-79.966H451.771z M418.903,24.803l35.19,16.38l-3.498,7.515h-8.262l-1.354-3.455
			l-0.48,0.202l-14.705,2.175l-4.549-9.87l-0.292,0.134l-8.313,0.374L418.903,24.803z M441.051,48.697h-14.318l13.554-2.005
			L441.051,48.697z M425.117,48.697h-0.112l0.105-0.049L425.117,48.697z M412.115,39.387l8.435-0.28l4.418,9.59H407.94l-0.129-0.06
			L412.115,39.387z M406.575,48.697h-28.548l4.693-6.027l10.178,2.871l0.043-0.148l0.241,0.151l8.122-12.962l11.126,3.535
			L406.575,48.697z M368.275,31.975l40.182-14.611l5.572,15.323l-1.085,2.332l-12.29-3.907l-0.158,0.497l-7.894,12.598l-10.459-2.95
			l-0.087,0.31l-5.553,7.131h-2.147L368.275,31.975z M445.377,127.719h-66.789l-10.9-78.023h89.141L445.377,127.719z
			 M397.678,78.452c-0.862,0.568-1.273,1.567-1.567,3.232l-1.019,5.682c-0.216,1.176-0.274,1.822-0.274,2.41
			c0,2.175,1.155,2.919,3.898,2.919h3.801l0.921-2.176h-3.645c-1.646,0-2.331-0.177-2.331-1.233c0-0.529,0.155-1.508,0.392-2.762
			l0.705-3.919c0.354-1.939,0.627-2.566,2.195-2.566h3.684l0.9-2.175h-4.898C399.52,77.864,398.5,77.903,397.678,78.452z
			 M379.048,39.583c2.028-0.738,3.077-2.982,2.339-5.013c-0.738-2.031-2.982-3.078-5.015-2.339
			c-2.029,0.739-3.075,2.982-2.339,5.013C374.773,39.274,377.018,40.321,379.048,39.583z M376.744,33.337
			c1.432-0.52,3.013,0.217,3.531,1.647c0.521,1.43-0.219,3.011-1.646,3.53c-1.432,0.52-3.012-0.217-3.53-1.647
			C374.576,35.438,375.316,33.856,376.744,33.337z M421.404,80.764l-0.373,2.077c-0.098,0.568-0.176,1.077-0.176,1.508
			c0,1.234,0.529,1.842,2.116,1.842h2.919c0.705,0,0.979,0.039,0.979,0.471c0,0.215-0.039,0.646-0.177,1.332l-0.195,1.02
			c-0.254,1.371-0.449,1.507-1.742,1.507h-4.996l0.393,2.176h4.564c1.293,0,2.232-0.059,2.92-0.489
			c0.725-0.451,1.116-1.332,1.332-2.488l0.353-1.959c0.079-0.412,0.255-1.568,0.255-2.117c0-1.469-1.059-1.703-2.724-1.703h-2.508
			c-0.548,0-0.823-0.099-0.823-0.432c0-0.176,0.06-0.568,0.157-1.078l0.233-1.215c0.195-0.998,0.354-1.194,1.254-1.194h4.763
			l0.899-2.155h-5.799C422.578,77.864,421.815,78.413,421.404,80.764z M414.74,77.747h-3.271c-0.921,0-1.959,0.039-2.782,0.588
			c-0.843,0.568-1.273,1.566-1.567,3.232l-1.036,5.936c-0.218,1.176-0.296,1.842-0.296,2.41c0,2.176,1.178,2.92,3.918,2.92h3.271
			c0.922,0,1.94-0.039,2.764-0.588c0.861-0.568,1.273-1.567,1.566-3.232l1.059-5.957c0.195-1.155,0.273-1.822,0.273-2.39
			C418.641,78.472,417.466,77.747,414.74,77.747z M415.604,83.918l-0.745,4.173c-0.352,1.94-0.627,2.566-2.191,2.566h-1.9
			c-1.646,0-2.313-0.156-2.313-1.233c0-0.51,0.157-1.509,0.373-2.763l0.744-4.174c0.354-1.959,0.646-2.566,2.214-2.566h1.882
			c1.646,0,2.33,0.157,2.33,1.234C415.994,81.665,415.84,82.645,415.604,83.918z M428.45,39.554c2.03-0.738,3.077-2.982,2.339-5.013
			c-0.736-2.031-2.98-3.078-5.013-2.339c-2.031,0.739-3.077,2.982-2.339,5.013C424.178,39.245,426.422,40.292,428.45,39.554z
			 M426.15,33.308c1.43-0.52,3.011,0.217,3.531,1.647c0.52,1.43-0.219,3.011-1.648,3.53c-1.43,0.52-3.01-0.217-3.528-1.647
			C423.982,35.408,424.721,33.827,426.15,33.308z"/>
	</g>
</g>
<g>
	<g>
		<path fill="#DDDDDD" d="M282.498,118.699h8v-2h-8V118.699z M294.498,118.699h7.998v-2h-7.998V118.699z M306.496,118.699h8v-2h-8
			V118.699z M318.496,118.699h8v-2h-8V118.699z M330.5,113.496v8.225l9.24-4.154L330.5,113.496z M246.636,118.699h8v-2h-8V118.699z
			 M234.636,118.699h8v-2h-8V118.699z M270.636,118.699h8v-2h-8V118.699z M258.636,118.699h8v-2h-8V118.699z M186.771,118.699h8v-2
			h-8V118.699z M198.771,118.699h8v-2h-8V118.699z M222.771,118.699h8v-2h-8V118.699z M210.771,118.699h8v-2h-8V118.699z"/>
	</g>
</g>
<g>
	<g>
		<polygon fill="#C1C1C1" points="637.77,54.566 628.527,50.497 628.527,53.699 484.799,53.699 484.799,55.699 628.527,55.699 
			628.527,58.72 		"/>
	</g>
</g>
<g opacity="0.5">
	<g>
		<path fill="#888888" d="M542.371,29.297h12.446v0.994h-6.076v2.114c1.736,0.868,3.5,1.876,5.292,3.024l-0.602,0.896
			c-1.839-1.223-3.402-2.175-4.69-2.856v7.952h-1.021v-11.13h-5.351L542.371,29.297L542.371,29.297z"/>
		<path fill="#888888" d="M557.172,29.688h2.729v-1.176h0.98v1.176h2.531v0.924h-2.531V31.9h3.357
			c-0.056-1.055-0.084-2.193-0.084-3.416h0.98c0,1.269,0.025,2.408,0.084,3.416h3.526v0.91h-3.473
			c0.084,1.288,0.201,2.306,0.351,3.052c0.074,0.364,0.158,0.747,0.253,1.148c0.505-0.999,0.908-2.165,1.219-3.5l0.896,0.406
			c-0.445,1.755-1.021,3.22-1.722,4.396c0.093,0.28,0.215,0.565,0.364,0.854c0.363,0.691,0.657,1.036,0.882,1.036
			c0.224-0.019,0.42-0.765,0.588-2.24l0.868,0.462c-0.311,1.867-0.752,2.8-1.33,2.8c-0.477,0-0.989-0.425-1.54-1.274
			c-0.168-0.261-0.304-0.513-0.406-0.756c-0.719,0.933-1.545,1.656-2.478,2.17l-0.547-0.813c1.018-0.569,1.881-1.386,2.591-2.45
			c-0.216-0.663-0.395-1.339-0.532-2.03c-0.215-0.989-0.359-2.077-0.434-3.262h-7.854V31.9h3.458v-1.288h-2.729L557.172,29.688
			L557.172,29.688z M563.413,39.433c-0.109,0.009-0.467,0.051-1.063,0.126l-1.12,0.14v1.652h-0.994v-1.554
			c-0.793,0.075-1.855,0.163-3.189,0.266l-0.126-0.938c0.961-0.056,2.064-0.135,3.315-0.238v-1.246h-2.729l-0.196-0.826
			c0.401-0.485,0.766-1.068,1.092-1.75h-1.54v-0.896h1.935c0.093-0.224,0.224-0.579,0.392-1.064l0.966,0.182
			c-0.109,0.308-0.224,0.602-0.336,0.882h3.668v0.896h-4.06c-0.299,0.625-0.63,1.2-0.994,1.722h1.806v-1.092h0.994v1.092h2.128
			v0.854h-2.128v1.148c0.774-0.084,1.503-0.168,2.186-0.252v0.896H563.413z M566.577,28.667c0.721,0.803,1.263,1.489,1.624,2.058
			l-0.756,0.532c-0.392-0.635-0.938-1.335-1.638-2.1L566.577,28.667z"/>
		<path fill="#888888" d="M574.781,29.604v10.318h-0.979v-0.938h-2.072v1.274h-0.979V29.604H574.781z M571.731,33.735h2.072v-3.206
			h-2.072V33.735z M571.731,38.047h2.072v-3.374h-2.072V38.047z M577.541,41.252l-0.212-0.98c1.083,0.038,1.857,0.056,2.324,0.056
			c0.411,0,0.616-0.219,0.616-0.658v-7.574h-4.844V31.13h4.844v-2.464h1.021v2.464h1.723v0.966h-1.723v7.826
			c0,0.886-0.436,1.33-1.304,1.33H577.541z M576.8,33.777c0.887,1.344,1.554,2.492,2.002,3.444l-0.84,0.588
			c-0.516-1.092-1.179-2.263-1.988-3.514L576.8,33.777z"/>
		<path fill="#888888" d="M587.972,28.708c-0.131,0.728-0.275,1.396-0.437,2.002h3.139v0.896c-0.383,2.464-1.104,4.518-2.156,6.16
			c0.336,0.523,0.695,0.919,1.078,1.19c1.082,0.766,2.813,1.162,5.191,1.19c0.637,0,1.372-0.023,2.215-0.07l-0.196,1.05h-1.54
			c-2.875,0-4.961-0.48-6.258-1.442c-0.374-0.28-0.729-0.653-1.064-1.12c-0.877,1.102-1.895,1.998-3.052,2.688l-0.546-0.952
			c1.204-0.7,2.207-1.605,3.01-2.716c-0.457-0.886-0.863-1.964-1.218-3.234c-0.347,0.625-0.742,1.213-1.19,1.764l-0.686-0.854
			c1.334-1.652,2.24-3.892,2.716-6.72L587.972,28.708z M587.93,36.703c0.83-1.428,1.414-3.103,1.75-5.026h-2.422
			c-0.159,0.485-0.336,0.971-0.532,1.456C587.099,34.617,587.5,35.807,587.93,36.703z M592.55,28.625h1.021v3.556
			c1.13,0.812,2.296,1.764,3.5,2.856l-0.602,0.896c-1.176-1.194-2.145-2.095-2.898-2.702v5.824h-1.021V28.625z"/>
		<path fill="#888888" d="M598.514,33.735h1.498v-3.304h-1.694v-0.952h4.41v0.952h-1.68v3.304h1.523v0.98h-1.523v3.136
			c0.56-0.196,1.12-0.42,1.68-0.672v0.966c-1.279,0.56-2.726,1.045-4.34,1.456l-0.252-0.966c0.588-0.121,1.213-0.271,1.876-0.448
			v-3.472h-1.498V33.735L598.514,33.735z M603.554,29.101h6.731v6.482h-2.854v1.708h3.08v0.938h-3.08v1.778h3.528v0.966h-8.064
			v-0.966h3.528v-1.778h-3.108v-0.938h3.108v-1.708h-2.87V29.101z M604.52,31.915h1.904v-1.918h-1.904V31.915z M606.424,34.687
			v-1.904h-1.904v1.904H606.424z M607.432,29.997v1.918h1.89v-1.918H607.432z M609.321,34.687v-1.904h-1.89v1.904H609.321z"/>
	</g>
</g>
<g>
	<path fill="#888888" d="M682.742,149.563c-0.652,1.205-1.313,2.177-1.975,2.912c-0.682,0.775-1.615,1.577-2.8,2.408l-0.546-0.882
		c0.979-0.579,1.843-1.302,2.59-2.17c0.699-0.793,1.325-1.718,1.876-2.772L682.742,149.563z M679.439,155.305v-0.967h8.498
		c-0.037,1.698-0.131,3.117-0.279,4.256c-0.141,1.092-0.374,1.84-0.7,2.24c-0.325,0.41-0.85,0.635-1.566,0.672h-2.604l-0.266-0.966
		c0.84,0.026,1.633,0.042,2.38,0.042c0.774,0,1.288-0.327,1.54-0.98c0.233-0.651,0.394-2.086,0.478-4.297h-3.737
		c-0.336,1.549-0.799,2.771-1.388,3.668c-0.682,0.979-1.718,1.861-3.106,2.646l-0.616-0.801c1.251-0.697,2.188-1.453,2.814-2.268
		c0.567-0.793,0.999-1.876,1.288-3.248h-2.732v0.002H679.439z M685.906,148.893c0.793,2.127,2.216,3.813,4.271,5.053l-0.672,0.801
		c-2.14-1.393-3.627-3.184-4.468-5.376L685.906,148.893z"/>
	<path fill="#888888" d="M692.432,153.078l1.104-3.893l0.994,0.168l-0.798,2.758h2.45c0.279-1.103,0.504-2.244,0.672-3.43
		l1.021,0.125c-0.17,1.103-0.389,2.202-0.657,3.305h6.552v0.967h-6.818c-0.193,0.662-0.371,1.193-0.529,1.596h5.726v0.868
		c-0.383,1.213-1.144,2.306-2.282,3.274c1.129,0.674,2.513,1.289,4.146,1.85l-0.52,0.938c-1.793-0.662-3.274-1.377-4.451-2.142
		c-1.131,0.793-2.555,1.524-4.271,2.198l-0.531-0.938c1.561-0.57,2.865-1.199,3.92-1.892c-1.084-0.831-1.855-1.741-2.322-2.729
		c-1.02,2.203-2.329,3.959-3.937,5.266l-0.518-0.926c2.034-1.781,3.542-4.236,4.521-7.362L692.432,153.078L692.432,153.078z
		 M696.59,155.598c0.476,0.952,1.271,1.834,2.394,2.646c1.036-0.813,1.75-1.694,2.144-2.646H696.59z M700.229,148.794
		c0.979,0.747,1.815,1.517,2.507,2.31l-0.715,0.715c-0.569-0.719-1.391-1.508-2.464-2.364L700.229,148.794z"/>
	<path fill="#888888" d="M712.718,160.273c-2.271,0.467-4.593,0.85-6.974,1.146l-0.225-0.966c1.223-0.142,2.314-0.285,3.276-0.437
		v-2.646h-2.73v-0.979h2.73v-1.625h1.008v1.625h2.521v0.979h-2.521v2.478c0.887-0.147,1.854-0.341,2.912-0.574L712.718,160.273
		L712.718,160.273z M705.701,149.396h6.959v0.951h-3.599c-0.663,1.392-1.292,2.444-1.89,3.163c1.491-0.147,2.813-0.325,3.962-0.53
		c-0.271-0.438-0.616-0.947-1.036-1.525l0.77-0.504c0.915,1.223,1.635,2.322,2.156,3.304l-0.84,0.588
		c-0.195-0.383-0.396-0.751-0.604-1.106c-1.811,0.318-3.748,0.58-5.811,0.785l-0.238-0.91c0.196-0.026,0.332-0.062,0.406-0.098
		c0.578-0.505,1.265-1.56,2.059-3.164h-2.297L705.701,149.396L705.701,149.396z M713.81,150.082h0.979v8.666h-0.979V150.082z
		 M714.3,161.492l-0.226-0.98c0.896,0.037,1.539,0.057,1.934,0.057c0.398,0,0.602-0.204,0.602-0.614v-11.131h1.022v11.383
		c0,0.856-0.427,1.288-1.274,1.288L714.3,161.492L714.3,161.492z"/>
	<path fill="#888888" d="M721.733,157.04c-0.159,1.801-0.681,3.285-1.567,4.452l-0.771-0.688c0.896-1.25,1.357-2.832,1.386-4.746
		v-6.721h10.431v10.486c0,0.979-0.488,1.47-1.47,1.47h-1.608l-0.269-0.994c0.747,0.037,1.268,0.058,1.557,0.058
		c0.513,0,0.77-0.295,0.77-0.883v-2.437h-3.808v4.103h-1.036v-4.103L721.733,157.04L721.733,157.04z M725.346,150.318h-3.559v2.408
		h3.559V150.318z M721.787,153.666v2.45h3.559v-2.45H721.787z M730.189,152.729v-2.408h-3.808v2.408H730.189z M730.189,156.116
		v-2.45h-3.808v2.45H730.189z"/>
	<path fill="#888888" d="M736,155.206c-0.075,2.511-0.738,4.667-1.988,6.468l-0.742-0.672c1.129-1.559,1.708-3.6,1.736-6.118v-4.382
		h4.563c-0.262-0.616-0.533-1.162-0.813-1.638l1.078-0.169c0.252,0.531,0.504,1.135,0.756,1.807h4.424v4.704H736z M743.992,151.496
		H736v2.729h7.992V151.496z"/>
</g>
<g>
	
		<linearGradient id="SVGID_4_" gradientUnits="userSpaceOnUse" x1="656.8733" y1="734.6504" x2="645.5555" y2="723.3325" gradientTransform="matrix(1 0 0 1 -563.1992 -660.6797)">
		<stop  offset="0" style="stop-color:#0063FF"/>
		<stop  offset="1" style="stop-color:#00C8DE"/>
	</linearGradient>
	<path fill="url(#SVGID_4_)" d="M80.008,68.311c0,4.415,3.592,8.007,8.007,8.007c4.414,0,8.006-3.592,8.006-8.007
		s-3.592-8.006-8.006-8.006C83.6,60.304,80.008,63.896,80.008,68.311z M94.021,68.311c0,3.312-2.692,6.007-6.006,6.007
		c-3.313,0-6.007-2.695-6.007-6.007s2.694-6.006,6.007-6.006C91.326,62.304,94.021,64.999,94.021,68.311z"/>
	
		<linearGradient id="SVGID_5_" gradientUnits="userSpaceOnUse" x1="700.8704" y1="765.3496" x2="638.2009" y2="702.6802" gradientTransform="matrix(1 0 0 1 -563.1992 -660.6797)">
		<stop  offset="0" style="stop-color:#0063FF"/>
		<stop  offset="1" style="stop-color:#00C8DE"/>
	</linearGradient>
	<path fill="url(#SVGID_5_)" d="M156.715,85.332c0.096,0,0.285,0.006,0.285,0.007V51H66v55h69.131c0.016,0,0.041,0,0.072-1H67
		v-5.866l19.183-13.235l15.402,13.09l30.111-26.007l14.812,15.097c0.612-0.339,1.259-0.648,1.905-0.929l-16.547-16.912L101.7,96.35
		L86.315,83.381L67,96.457V52h89v33.35C157,85.342,156.475,85.332,156.715,85.332z"/>
	
		<linearGradient id="SVGID_6_" gradientUnits="userSpaceOnUse" x1="709.3948" y1="779.375" x2="629.4503" y2="699.4305" gradientTransform="matrix(1 0 0 1 -563.1992 -660.6797)">
		<stop  offset="0" style="stop-color:#0063FF"/>
		<stop  offset="1" style="stop-color:#00C8DE"/>
	</linearGradient>
	<path fill="url(#SVGID_6_)" d="M61,122V46h101v39.75c1,0.133,1,0.299,1,0.493V45H60v78h81.89c-0.653,0-1.27,0-1.843-1H61z"/>
</g>
<linearGradient id="SVGID_7_" gradientUnits="userSpaceOnUse" x1="1561.7161" y1="-968.6035" x2="1514.5015" y2="-921.3889" gradientTransform="matrix(1 0 0 -1 -828.8008 -867.5195)">
	<stop  offset="0" style="stop-color:#0063FF"/>
	<stop  offset="1" style="stop-color:#00C8DE"/>
</linearGradient>
<polygon opacity="0.3" fill="url(#SVGID_7_)" enable-background="new    " points="725.808,96.191 737.808,96.191 737.808,85.192 
	743.808,85.192 743.808,59.762 679.808,59.762 679.808,100.191 725.808,100.191 "/>
<g>
	<g>
		<path fill="#DDDDDD" d="M579.604,118.699h8v-2h-8V118.699z M591.604,118.699h8v-2h-8V118.699z M603.604,118.699h8v-2h-8V118.699z
			 M615.604,118.699h8v-2h-8V118.699z M627.605,113.496v8.225l9.242-4.154L627.605,113.496z M531.74,118.699h8v-2h-8V118.699z
			 M543.74,118.699h8v-2h-8V118.699z M555.74,118.699h8v-2h-8V118.699z M567.74,118.699h8v-2h-8V118.699z M495.877,118.699h8v-2h-8
			V118.699z M483.877,118.699h8v-2h-8V118.699z M507.877,118.699h8v-2h-8V118.699z M519.877,118.699h8v-2h-8V118.699z"/>
	</g>
</g>
<linearGradient id="SVGID_8_" gradientUnits="userSpaceOnUse" x1="731.5051" y1="778.6631" x2="709.3287" y2="756.4865" gradientTransform="matrix(1 0 0 1 -563.1992 -660.6797)">
	<stop  offset="0" style="stop-color:#0063FF"/>
	<stop  offset="1" style="stop-color:#0088F3"/>
</linearGradient>
<path fill="url(#SVGID_8_)" d="M157.217,91.207c-8.65,0-15.688,7.037-15.688,15.688c0,8.651,7.037,15.688,15.688,15.688
	s15.688-7.037,15.688-15.688C172.905,98.244,165.867,91.207,157.217,91.207z M157.217,120.582c-7.547,0-13.688-6.141-13.688-13.688
	c0-7.549,6.143-13.688,13.688-13.688s13.688,6.14,13.688,13.688C170.904,114.441,164.764,120.582,157.217,120.582z"/>
<linearGradient id="SVGID_9_" gradientUnits="userSpaceOnUse" x1="723.8088" y1="770.0713" x2="717.1639" y2="763.4262" gradientTransform="matrix(1 0 0 1 -563.1992 -660.6797)">
	<stop  offset="0" style="stop-color:#0063FF"/>
	<stop  offset="1" style="stop-color:#0063FF"/>
</linearGradient>
<polygon fill="url(#SVGID_9_)" points="156.808,99.939 156.789,99.921 151.929,104.781 153.093,106.195 156,103.038 156,112 
	158,112 158,102.921 161.458,106.254 163.024,104.867 157.575,99.141 "/>
<g>
	<path fill="#888888" d="M87.926,157.04c-0.159,1.801-0.681,3.285-1.568,4.452l-0.77-0.688c0.896-1.25,1.356-2.832,1.386-4.746
		v-6.721h10.43v10.486c0,0.979-0.488,1.47-1.47,1.47h-1.608l-0.268-0.994c0.747,0.037,1.265,0.058,1.554,0.058
		c0.515,0,0.771-0.295,0.771-0.883v-2.437h-3.808v4.103h-1.036v-4.103L87.926,157.04L87.926,157.04z M91.539,150.318h-3.558v2.408
		h3.558V150.318z M87.982,153.666v2.45h3.558v-2.45H87.982z M96.382,152.729v-2.408h-3.808v2.408H96.382z M96.382,156.116v-2.45
		h-3.808v2.45H96.382z"/>
	<path fill="#888888" d="M102.192,155.206c-0.073,2.511-0.735,4.667-1.986,6.468l-0.742-0.672c1.129-1.559,1.708-3.6,1.734-6.118
		v-4.382h4.564c-0.262-0.616-0.532-1.162-0.812-1.638l1.076-0.169c0.252,0.531,0.506,1.135,0.758,1.807h4.424v4.704H102.192z
		 M110.187,151.496h-7.994v2.729h7.994V151.496z"/>
	<path fill="#888888" d="M125.712,149.396v12.223h-0.98v-0.574h-9.464v0.574h-0.979v-12.223H125.712z M115.269,160.146h9.464v-9.854
		h-9.464V160.146z M119.552,150.712c-0.13,0.317-0.252,0.574-0.364,0.771h3.696v0.699c-0.401,0.756-0.994,1.409-1.778,1.961
		c0.98,0.467,2.049,0.836,3.206,1.105l-0.532,0.756c-1.361-0.363-2.527-0.816-3.5-1.357c-1.083,0.578-2.417,1.041-4.004,1.388
		l-0.446-0.813c1.437-0.253,2.648-0.611,3.64-1.078c-0.56-0.373-1.031-0.766-1.414-1.177c-0.42,0.392-0.896,0.757-1.428,1.093
		l-0.562-0.729c1.279-0.756,2.144-1.666,2.59-2.73L119.552,150.712z M117.508,157.475c1.848,0.346,3.635,0.844,5.362,1.498
		l-0.336,0.813c-1.736-0.675-3.542-1.188-5.418-1.556L117.508,157.475z M118.964,155.514c1.063,0.354,2.065,0.795,3.01,1.316
		l-0.476,0.729c-0.943-0.568-1.941-1.025-2.996-1.373L118.964,155.514z M121.876,152.236h-3.18c-0.056,0.058-0.098,0.113-0.126,0.17
		c0.485,0.467,1.057,0.9,1.708,1.302C120.971,153.288,121.503,152.798,121.876,152.236z"/>
	<path fill="#888888" d="M130.738,156.578c-0.308,2.081-0.992,3.682-2.058,4.802l-0.756-0.672c1.279-1.354,1.927-3.533,1.946-6.538
		v-5.222h1.034v3.262h4.396v-3.431h0.979v3.431h3.863v0.979h-9.24v0.979c-0.009,0.354-0.031,0.835-0.068,1.439h6.396v6.035h-1.021
		v-5.066L130.738,156.578L130.738,156.578z"/>
</g>
<g opacity="0.5">
	<g>
		<path fill="#888888" d="M278.83,92.811v10.317h-0.979v-0.938h-2.072v1.274H274.8V92.811H278.83z M275.779,96.941h2.072v-3.207
			h-2.072V96.941z M275.779,101.253h2.072v-3.374h-2.072V101.253z M281.589,104.458l-0.211-0.979
			c1.083,0.037,1.856,0.057,2.324,0.057c0.41,0,0.615-0.221,0.615-0.658v-7.572h-4.844v-0.968h4.844v-2.464h1.022v2.464h1.722v0.968
			h-1.722v7.824c0,0.887-0.437,1.33-1.304,1.33L281.589,104.458L281.589,104.458z M280.848,96.982
			c0.887,1.345,1.554,2.492,2.002,3.444l-0.84,0.589c-0.515-1.094-1.178-2.265-1.988-3.516L280.848,96.982z"/>
		<path fill="#888888" d="M292.02,91.914c-0.131,0.729-0.274,1.396-0.436,2.002h3.138v0.896c-0.383,2.463-1.103,4.518-2.156,6.16
			c0.336,0.521,0.695,0.918,1.078,1.188c1.082,0.766,2.813,1.162,5.192,1.188c0.636,0,1.371-0.021,2.214-0.068l-0.196,1.05h-1.54
			c-2.875,0-4.961-0.479-6.258-1.44c-0.374-0.281-0.729-0.654-1.064-1.121c-0.877,1.103-1.895,1.998-3.052,2.688l-0.546-0.952
			c1.204-0.698,2.207-1.604,3.01-2.716c-0.457-0.887-0.862-1.964-1.218-3.232c-0.347,0.625-0.742,1.213-1.189,1.764l-0.687-0.854
			c1.334-1.651,2.24-3.892,2.716-6.72L292.02,91.914z M291.978,99.909c0.83-1.429,1.414-3.103,1.75-5.026h-2.422
			c-0.159,0.485-0.336,0.971-0.532,1.456C291.147,97.823,291.548,99.014,291.978,99.909z M296.598,91.831h1.021v3.556
			c1.13,0.813,2.296,1.764,3.5,2.856l-0.602,0.896c-1.176-1.193-2.145-2.095-2.898-2.701v5.824h-1.021V91.831z"/>
		<path fill="#888888" d="M302.562,96.941h1.498v-3.306h-1.694v-0.95h4.41v0.95h-1.68v3.306h1.523v0.979h-1.523v3.137
			c0.56-0.195,1.12-0.421,1.68-0.673v0.968c-1.279,0.56-2.726,1.045-4.34,1.455l-0.252-0.967c0.588-0.119,1.213-0.271,1.876-0.447
			V97.92h-1.498V96.941L302.562,96.941z M307.602,92.307h6.732v6.482h-2.854v1.708h3.08v0.938h-3.08v1.776h3.528v0.968h-8.064
			v-0.968h3.528v-1.776h-3.108v-0.938h3.108v-1.708h-2.87V92.307L307.602,92.307z M308.568,95.121h1.904v-1.918h-1.904V95.121z
			 M310.472,97.893V95.99h-1.904v1.902H310.472z M311.48,93.203v1.918h1.89v-1.918H311.48z M313.367,97.893V95.99h-1.89v1.902
			H313.367z"/>
	</g>
</g>
<linearGradient id="SVGID_10_" gradientUnits="userSpaceOnUse" x1="1031.2161" y1="-345.3062" x2="953.9719" y2="-268.062" gradientTransform="matrix(1 0 0 -1 -281.5996 -223.8398)">
	<stop  offset="0" style="stop-color:#0063FF"/>
	<stop  offset="1" style="stop-color:#00C8DE"/>
</linearGradient>
<path fill="url(#SVGID_10_)" d="M754.438,109.872v-2h4.771v-13h-13v3.989h-2v-5.989h17v17H754.438z M748.479,55.115h-73v57.43
	h50.063v1h-51.063v-6h-6V48.114h75v6h6v30.49h-1V55.115z M742.479,49.114h-73v57.431h5v-52.43h68V49.114z M733.42,76.033
	c-2.48,0-4.498-2.018-4.498-4.498c0-2.479,2.018-4.499,4.498-4.499c2.479,0,4.496,2.019,4.496,4.499
	C737.916,74.017,735.899,76.033,733.42,76.033z M733.42,68.515c-1.666,0-3.021,1.354-3.021,3.021c0,1.665,1.354,3.02,3.021,3.02
	s3.019-1.355,3.019-3.02S735.086,68.515,733.42,68.515z M725.541,99.544v1H679.48l-0.002-41.429h65v25.49h-1v-24.49h-63v29.896
	L699,76.161l19.77,14.358l12.816-7.625l5.951,4.07v2.176l-6.015-4.107l-12.859,7.646l-19.655-14.276l-18.361,13.735l-0.166-0.221
	v7.627L725.541,99.544L725.541,99.544z M739.399,104.861h-4.77v13h13v-3.989h2v5.989h-17v-17h6.77V104.861z M744.207,113.872v2h-7
	v-7h2v3.813l13.5-12.813h-3.5v-2h7v7h-2v-3.5l-13.438,12.5H744.207z"/>
<g>
	<g>
		<path fill="#C6C6C6" d="M533.429,27.417c1.073,0,1.943-0.869,1.943-1.943c0-1.073-0.87-1.944-1.943-1.944
			s-1.944,0.871-1.944,1.944C531.485,26.548,532.356,27.417,533.429,27.417z M533.448,42.576c-1.091,0-1.975,0.885-1.975,1.975
			c0,1.09,0.884,1.974,1.975,1.974s1.976-0.884,1.976-1.974C535.423,43.461,534.538,42.576,533.448,42.576z M509.508,42.435
			c-1.093,0-1.977,0.886-1.977,1.977c0,1.091,0.884,1.976,1.977,1.976c1.092,0,1.977-0.884,1.977-1.976
			C511.485,43.32,510.6,42.435,509.508,42.435z M509.521,23.452c-1.086,0-1.966,0.881-1.966,1.966s0.88,1.965,1.966,1.965
			c1.085,0,1.966-0.88,1.966-1.965S510.606,23.452,509.521,23.452z M519.854,34.208l5.932,8.256h2.113l-3.639-5.208l1.057-0.962
			l4.551,6.171h2.103l-6.65-8.666l-2.121,2.006l-3.323-4.529l-8.314,11.189h2.246L519.854,34.208z M527.2,34.076l0.899,1.219
			c1.032-0.458,1.778-1.549,1.778-2.752c0.055-1.722-1.321-3.039-2.983-3.039s-3.038,1.376-3.038,3.038c0,0.229,0,0.401,0.057,0.632
			l1.55-0.854c0.087-0.695,0.694-1.217,1.435-1.217c0.781,0,1.435,0.651,1.435,1.434C528.33,33.252,527.854,33.903,527.2,34.076z
			 M512.477,26.517h17.934c-0.057-0.229-0.112-0.459-0.112-0.745c0-0.96,0.233-1.154,0.297-1.278H512.42
			c0.057,0,0.166,0.929,0.166,1.158C512.586,25.824,512.571,26.222,512.477,26.517z M532.471,41.582c0,0,0.32-0.143,1.074-0.143
			c0.729,0,0.944,0.2,0.944,0.2V28.335c-0.229,0.057-0.387,0.241-0.944,0.241c-0.724,0-0.902-0.127-1.074-0.184V41.582z
			 M510.501,41.596V28.462c0,0.057-0.518,0.114-0.745,0.114c-0.174,0-1.262,0-1.262,0v13.02c0.164-0.053,0.592-0.186,0.946-0.186
			c0.021,0,0.038,0,0.058,0.001C509.814,41.425,510.269,41.458,510.501,41.596z M530.637,43.482h-18.248
			c0.115,0.287,0.16,0.966,0.111,1.308c-0.043,0.29-0.111,0.682-0.111,0.74h18.307v-0.174
			C530.399,44.884,530.465,43.769,530.637,43.482z"/>
	</g>
</g>
<g>
	<g>
		<path fill="#C6C6C6" d="M235.429,89.417c1.073,0,1.944-0.869,1.944-1.943c0-1.073-0.871-1.944-1.944-1.944
			s-1.944,0.871-1.944,1.944C233.485,88.548,234.356,89.417,235.429,89.417z M235.448,104.576c-1.091,0-1.975,0.885-1.975,1.975
			c0,1.092,0.884,1.975,1.975,1.975c1.092,0,1.976-0.883,1.976-1.975C237.423,105.461,236.539,104.576,235.448,104.576z
			 M211.508,104.436c-1.092,0-1.976,0.885-1.976,1.977c0,1.091,0.884,1.977,1.976,1.977s1.977-0.886,1.977-1.977
			C213.485,105.32,212.6,104.436,211.508,104.436z M211.521,85.452c-1.086,0-1.966,0.881-1.966,1.966s0.88,1.965,1.966,1.965
			c1.085,0,1.966-0.88,1.966-1.965S212.606,85.452,211.521,85.452z M221.854,96.208l5.933,8.256h2.112l-3.639-5.208l1.057-0.963
			l4.552,6.171h2.102l-6.65-8.666l-2.12,2.007l-3.324-4.529l-8.314,11.188h2.246L221.854,96.208z M229.201,96.076l0.898,1.219
			c1.032-0.458,1.778-1.549,1.778-2.752c0.055-1.723-1.321-3.039-2.983-3.039s-3.038,1.376-3.038,3.038c0,0.229,0,0.401,0.058,0.632
			l1.549-0.854c0.087-0.695,0.695-1.217,1.435-1.217c0.781,0,1.435,0.65,1.435,1.434C230.331,95.252,229.854,95.902,229.201,96.076z
			 M214.477,88.517h17.935c-0.058-0.229-0.113-0.459-0.113-0.745c0-0.96,0.234-1.154,0.297-1.278H214.42
			c0.057,0,0.166,0.929,0.166,1.158C214.586,87.824,214.571,88.222,214.477,88.517z M234.471,103.582c0,0,0.32-0.145,1.074-0.145
			c0.729,0,0.945,0.201,0.945,0.201V90.335c-0.229,0.057-0.388,0.241-0.945,0.241c-0.724,0-0.902-0.128-1.074-0.185V103.582z
			 M212.501,103.596V90.462c0,0.058-0.518,0.114-0.745,0.114c-0.173,0-1.261,0-1.261,0v13.02c0.164-0.053,0.591-0.186,0.945-0.186
			c0.021,0,0.038,0,0.058,0.001C211.814,103.425,212.269,103.458,212.501,103.596z M232.637,105.482h-18.248
			c0.115,0.287,0.16,0.966,0.111,1.308c-0.043,0.29-0.111,0.683-0.111,0.739h18.307v-0.174
			C232.399,106.884,232.465,105.77,232.637,105.482z"/>
	</g>
</g>
<g opacity="0.5">
	<path fill="#888888" d="M250.061,91.65h1.036v4.326h5.194v0.98h-5.194v5.992h6.384v0.979h-12.46v-0.979h5.04V91.65z"/>
	<path fill="#888888" d="M260.575,96.677c-0.495,0.653-0.999,1.246-1.512,1.778l-0.322-1.078c1.493-1.671,2.581-3.584,3.262-5.74
		l0.952,0.448c-0.373,1.12-0.831,2.142-1.372,3.065v9.366h-1.008V96.677z M263.137,93.443h2.73l0.42-1.807l0.98,0.098l-0.392,1.709
		h4.228v0.979h-4.48c-0.187,0.682-0.346,1.223-0.476,1.624h5.53v0.966h-5.852c-0.159,0.467-0.387,1.06-0.686,1.778h5.754v0.868
		c-0.597,0.979-1.535,1.96-2.814,2.939c0.635,0.336,1.27,0.714,1.904,1.134l-0.574,0.868c-1.699-1.167-3.453-2.09-5.264-2.771
		l0.532-0.784c0.868,0.336,1.708,0.7,2.52,1.092c1.083-0.737,1.955-1.54,2.618-2.408h-5.992c0.383-0.905,0.728-1.811,1.036-2.716
		h-2.338v-0.966h2.646c0.158-0.522,0.313-1.064,0.462-1.624h-2.492V93.443z"/>
</g>
</svg>
