<?xml version="1.0" encoding="UTF-8"?>
<svg width="32px" height="32px" viewBox="0 0 32 32" version="1.1" xmlns="http://www.w3.org/2000/svg" xmlns:xlink="http://www.w3.org/1999/xlink">
    <!-- Generator: Sketch 52.6 (67491) - http://www.bohemiancoding.com/sketch -->
    <title>企鹅竞速 PGR-32px</title>
    <desc>Created with Sketch.</desc>
    <g id="企鹅竞速-PGR-32px" stroke="none" stroke-width="1" fill="none" fill-rule="evenodd">
        <rect id="Rectangle-Copy" fill="#444444" opacity="0" x="0" y="0" width="32" height="32"></rect>
        <g id="Group" transform="translate(5.000000, 1.000000)">
            <g id="_编组_" fill="#7C848E" fill-rule="nonzero">
                <path d="M22,24 L22,0 L0,0 L0,30 L22,30 L22,28 L2,28 L2,2 L20,2 L20,24 L22,24 Z M13,24 L13,22 L9,22 L9,24 L13,24 Z" id="Shape"></path>
            </g>
            <path d="M7.70386921,16.2684286 L9.20111063,14.802186 L7.70386921,16.2684286 Z M6.09813203,14.623168 L7.57057442,13.1809494 L6.09813203,14.623168 Z M12.5745536,9.44792048 C12.3769364,9.2456534 12.3808112,8.92249104 12.5823033,8.72487377 C12.7845704,8.52648154 13.1085077,8.53035638 13.306125,8.73107353 C13.5037423,8.93334062 13.5006424,9.25727794 13.2991503,9.45567018 C13.0968832,9.65328745 12.7729459,9.65018757 12.5745536,9.44792048 Z M14.1097686,12.0882422 L13.8966519,14.5572956 L11.4020245,17 L11.4330233,14.0884389 C11.4330233,14.0884389 9.94895637,13.881522 9.01821778,12.9314092 C8.0874792,11.9812964 8.23162356,10.8203918 8.23162356,10.8203918 L5,10.4631308 L7.49385243,8.01965137 L9.96678067,7.85845767 C13.6695858,4.23237455 17.0259795,5.08794107 17.0259795,5.08794107 C17.0259795,5.08794107 17.8125737,8.46215905 14.1097686,12.0882422 Z" id="Stroke-3" stroke="#7C848E" stroke-width="2"></path>
        </g>
    </g>
</svg>