<?xml version="1.0" encoding="utf-8"?>
<!-- Generator: Adobe Illustrator 22.0.0, SVG Export Plug-In . SVG Version: 6.00 Build 0)  -->
<svg version="1.1" id="图层_1" xmlns="http://www.w3.org/2000/svg" xmlns:xlink="http://www.w3.org/1999/xlink" x="0px" y="0px"
	 viewBox="0 0 32 32" style="enable-background:new 0 0 32 32;" xml:space="preserve">
<style type="text/css">
	.st0{fill:#7C848E;}
	.st1{fill:#7C848E;stroke:#7C848E;stroke-width:2;stroke-linecap:square;}
	.st2{fill:none;stroke:#7C848E;stroke-width:2;stroke-linecap:square;}
</style>
<g id="人脸融合-32px">
	<g id="Group" transform="translate(1.000000, 3.000000)">
		<g id="Group-15">
			<polygon id="Rectangle-78" class="st0" points="3,1 29,1 29,3 3,3 			"/>
			<rect id="Rectangle-78-Copy" x="1" y="23" class="st0" width="28" height="2"/>
			<rect id="Rectangle-79" x="1" y="8" class="st0" width="2" height="17"/>
			<rect id="Rectangle-79-Copy" x="27" y="1" class="st0" width="2" height="17"/>
			<circle id="Oval-30" class="st0" cx="2" cy="2" r="2"/>
			<circle id="Oval-30-Copy" class="st0" cx="28" cy="24" r="2"/>
		</g>
	</g>
	<line class="st1" x1="24" y1="18" x2="24" y2="14"/>
	<polyline class="st2" points="15.2,11 12.5,16 16.5,16 13.8,21 	"/>
	<polygon class="st0" points="12,12 12,10 7,10 7,12 7,22 9,22 11,22 11,20 9,20 9,12 	"/>
	<polygon class="st0" points="20,10 18,10 18,12 20,12 20,20 17,20 17,22 22,22 22,20 22,10 	"/>
</g>
</svg>
