<?xml version="1.0" encoding="utf-8"?>
<!-- Generator: Adobe Illustrator 19.0.0, SVG Export Plug-In . SVG Version: 6.00 Build 0)  -->
<svg version="1.1" id="图层_1" xmlns="http://www.w3.org/2000/svg" xmlns:xlink="http://www.w3.org/1999/xlink" x="0px" y="0px"
	 width="830px" height="241px" viewBox="351 -56 830 241" style="enable-background:new 351 -56 830 241;" xml:space="preserve">
<style type="text/css">
	.st0{fill:#EAEBEC;}
	.st1{fill:#00A4FF;}
	.st2{enable-background:new    ;}
	.st3{fill:none;stroke:#BABABA;stroke-dasharray:5;}
	.st4{fill:#444444;}
	.st5{fill:none;stroke:#888888;}
	.st6{fill:#888888;}
	.st7{fill:none;stroke:#FF0000;stroke-width:15;stroke-opacity:0;}
	.st8{fill:none;}
	.st9{opacity:0.6;fill:#BBBBBB;enable-background:new    ;}
	.st10{fill:#FFFFFF;stroke:#E5E5E5;}
</style>
<rect id="XMLID_190_" x="853" y="-26.333" class="st0" width="327" height="206.333"/>
<rect id="XMLID_177_" x="352.833" y="-26.333" class="st0" width="327" height="206.333"/>
<g id="XMLID_170_" transform="translate(10 10)">
	<g id="XMLID_172_" transform="translate(0 2)">
		<title  xmlns="http://www.w3.org/2000/svg">对象存储服务</title>
		<path id="XMLID_173_" class="st1" d="M360.5-26.333l-7.5,4v8l7.5,4l7.5-4v-7.1l-1,0.5v5.9l-6,3.2v-5.7l5.1-2.7l1.9-1v-1.1
			L360.5-26.333z M360-11.733l-6-3.2v-5.7l6,3.2V-11.733z M360.5-18.233l-6.5-3.5l6.5-3.5l6.5,3.5L360.5-18.233z"/>
	</g>
	<g id="XMLID_415_" class="st2">
		<path id="XMLID_416_" class="st1" d="M374.924-19.992h2.492v-2.058c-0.616,0.103-1.349,0.191-2.198,0.266l-0.21-0.966
			c2.007-0.168,3.78-0.476,5.32-0.924l0.35,0.938c-0.625,0.178-1.372,0.351-2.24,0.519v2.226h2.268v0.966h-2.268v0.561
			c0.7,0.672,1.4,1.428,2.1,2.268l-0.56,0.854c-0.532-0.84-1.045-1.577-1.54-2.212v6.58h-1.022v-6.386
			c-0.569,1.308-1.335,2.516-2.296,3.626l-0.448-1.134c1.25-1.223,2.142-2.608,2.674-4.158h-2.422
			C374.924-19.026,374.924-19.992,374.924-19.992z M385.214-18.087c0.747,1.988,1.423,4.289,2.03,6.902l-1.008,0.252
			c-0.121-0.561-0.233-1.046-0.336-1.456c-1.848,0.363-3.841,0.699-5.978,1.008l-0.196-0.98c0.289-0.084,0.462-0.2,0.518-0.35
			l3.024-10.724l1.008,0.14l-3.066,10.723c1.736-0.252,3.22-0.504,4.452-0.756c-0.392-1.54-0.84-3.023-1.344-4.452L385.214-18.087z"
			/>
		<path id="XMLID_419_" class="st1" d="M398.458-13.958H392.9v2.996h-0.952v-7.322c-0.784,0.989-1.685,1.891-2.702,2.702
			l-0.658-0.854c1.764-1.4,3.126-3.001,4.088-4.803h-3.71v-0.979h4.172c0.252-0.579,0.457-1.125,0.616-1.639l1.022,0.126
			c-0.205,0.645-0.383,1.148-0.532,1.513h6.958v0.979h-7.378c-0.317,0.645-0.621,1.186-0.91,1.624h6.496v7.561
			c0,0.681-0.392,1.036-1.176,1.063h-1.568l-0.252-0.924c0.709,0.037,1.208,0.056,1.498,0.056c0.364,0,0.546-0.168,0.546-0.504
			C398.458-12.363,398.458-13.958,398.458-13.958z M392.9-18.732v1.526h5.558v-1.526H392.9z M398.458-16.324H392.9v1.484h5.558
			V-16.324z"/>
		<path id="XMLID_423_" class="st1" d="M411.926-11.017l-0.266-0.98l1.344,0.042c0.392,0,0.588-0.191,0.588-0.574v-9.702h-9.184
			v11.271h-0.994v-12.238h11.172v10.893c0,0.858-0.416,1.288-1.246,1.288C413.34-11.017,411.926-11.017,411.926-11.017z
			 M408.594-14.112c-0.402-0.634-0.845-1.307-1.33-2.016c-0.495,1.362-1.106,2.539-1.834,3.528l-0.644-0.784
			c0.728-1.036,1.33-2.264,1.806-3.683c-0.644-0.858-1.302-1.675-1.974-2.449l0.63-0.603c0.56,0.588,1.115,1.251,1.666,1.988
			c0.271-1.008,0.49-2.063,0.658-3.164l0.924,0.168c-0.224,1.438-0.518,2.753-0.882,3.948c0.616,0.84,1.167,1.638,1.652,2.394
			L408.594-14.112z M412.696-13.467c-0.401-0.69-0.873-1.466-1.414-2.324c-0.56,1.372-1.218,2.548-1.974,3.528l-0.644-0.771
			c0.793-1.073,1.446-2.319,1.96-3.738c-0.691-1.017-1.33-1.885-1.918-2.604l0.63-0.602c0.569,0.644,1.12,1.349,1.652,2.113
			c0.29-0.971,0.537-2.1,0.742-3.388l0.952,0.168c-0.252,1.55-0.588,2.954-1.008,4.214c0.588,0.896,1.157,1.806,1.708,2.73
			L412.696-13.467z"/>
		<path id="XMLID_427_" class="st1" d="M420.074-23.435c-0.7,1.819-1.4,3.257-2.1,4.312c0.579-0.084,1.185-0.182,1.82-0.294
			l0.742-1.498l0.868,0.322c-1.195,2.352-2.188,4.036-2.982,5.054c0.999-0.215,1.983-0.499,2.954-0.854v0.909
			c-1.465,0.514-2.842,0.859-4.13,1.036l-0.266-0.91c0.187-0.084,0.336-0.182,0.448-0.294c0.532-0.588,1.157-1.535,1.876-2.842
			c-0.775,0.141-1.536,0.267-2.282,0.378l-0.252-0.924c0.159-0.074,0.298-0.2,0.42-0.378c0.737-1.26,1.386-2.721,1.946-4.382
			L420.074-23.435z M421.642-12.767c-1.335,0.513-2.898,0.942-4.69,1.287l-0.126-0.993c1.82-0.309,3.425-0.724,4.816-1.246V-12.767z
			 M424.834-23.618c-0.084,0.29-0.215,0.658-0.392,1.106h3.794v0.728c-0.513,1.157-1.255,2.18-2.226,3.066
			c0.98,0.719,2.161,1.273,3.542,1.666l-0.574,0.826c-1.484-0.448-2.721-1.073-3.71-1.876c-1.027,0.765-2.222,1.414-3.584,1.945
			l-0.616-0.812c1.381-0.514,2.539-1.11,3.472-1.792c-0.504-0.504-0.957-1.083-1.358-1.736c-0.392,0.467-0.812,0.882-1.26,1.246
			l-0.588-0.784c1.241-1.017,2.086-2.272,2.534-3.766L424.834-23.618z M428.236-16.183v5.166h-0.966v-0.603h-3.822v0.603h-0.966
			v-5.166C422.482-16.183,428.236-16.183,428.236-16.183z M423.448-12.543h3.822v-2.716h-3.822V-12.543z M423.728-21.209
			c0.429,0.719,0.938,1.344,1.526,1.876c0.803-0.69,1.433-1.451,1.89-2.282h-3.164L423.728-21.209z"/>
		<path id="XMLID_434_" class="st1" d="M430.07-22.33h1.26l3.122,8.75h0.042l3.122-8.75h1.26l-3.696,9.996h-1.414L430.07-22.33z"/>
		<path id="XMLID_436_" class="st1" d="M439.954-22.33h4.088c2.296,0,3.444,0.98,3.444,2.94c0,1.979-1.153,2.968-3.458,2.968h-2.926
			v4.088h-1.148C439.954-12.334,439.954-22.33,439.954-22.33z M441.102-21.335v3.92h2.87c0.793,0,1.391-0.163,1.792-0.49
			c0.383-0.326,0.574-0.821,0.574-1.483c0-0.682-0.196-1.167-0.588-1.456c-0.383-0.327-0.976-0.49-1.778-0.49L441.102-21.335
			L441.102-21.335z"/>
		<path id="XMLID_439_" class="st1" d="M456.054-21.643c0.756,0.588,1.204,1.381,1.344,2.38h-1.106
			c-0.14-0.719-0.495-1.279-1.064-1.681c-0.542-0.373-1.204-0.56-1.988-0.56c-1.158,0-2.054,0.406-2.688,1.218
			c-0.588,0.756-0.882,1.755-0.882,2.996c0,1.26,0.29,2.249,0.868,2.968c0.616,0.775,1.507,1.162,2.674,1.162
			c0.793,0,1.47-0.21,2.03-0.63c0.597-0.457,0.994-1.115,1.19-1.974h1.106c-0.224,1.176-0.747,2.081-1.568,2.716
			c-0.775,0.606-1.694,0.91-2.758,0.91c-1.549,0-2.739-0.514-3.57-1.54c-0.747-0.915-1.12-2.119-1.12-3.612s0.383-2.71,1.148-3.654
			c0.831-1.055,2.025-1.582,3.584-1.582C454.365-22.526,455.298-22.232,456.054-21.643z"/>
	</g>
</g>
<path id="XMLID_169_" class="st3" d="M519.333,31.667H1038v114.5H519.333V31.667"/>
<g id="XMLID_167_" transform="translate(10 10)">
	<g id="XMLID_397_" class="st2">
		<path id="XMLID_398_" class="st4" d="M537.57,37.67h1.26l3.122,8.75h0.042l3.122-8.75h1.26l-3.696,9.996h-1.414L537.57,37.67z"/>
		<path id="XMLID_400_" class="st4" d="M547.454,37.67h4.088c2.296,0,3.444,0.98,3.444,2.94c0,1.979-1.153,2.968-3.458,2.968h-2.926
			v4.088h-1.148V37.67L547.454,37.67z M548.602,38.665v3.92h2.87c0.793,0,1.391-0.163,1.792-0.49
			c0.383-0.326,0.574-0.821,0.574-1.483c0-0.682-0.196-1.167-0.588-1.456c-0.383-0.327-0.976-0.49-1.778-0.49L548.602,38.665
			L548.602,38.665z"/>
		<path id="XMLID_403_" class="st4" d="M556.442,37.67h1.204l5.656,8.134h0.042V37.67h1.148v9.996h-1.176l-5.684-8.218h-0.042v8.218
			h-1.148V37.67z"/>
		<path id="XMLID_405_" class="st4" d="M575.426,48.815c-0.467,0-1.288-0.01-2.464-0.028c-0.887-0.01-1.61-0.094-2.17-0.252
			c-0.532-0.168-1.022-0.509-1.47-1.022c-0.177-0.232-0.354-0.35-0.532-0.35c-0.327,0-0.877,0.644-1.652,1.932l-0.756-0.686
			c0.747-1.176,1.405-1.891,1.974-2.143V42.01h-2.002v-0.924h2.94v5.236c0.103,0.074,0.215,0.182,0.336,0.321
			c0.345,0.411,0.705,0.705,1.078,0.883c0.42,0.195,1.041,0.308,1.862,0.336c0.971,0.019,1.876,0.027,2.716,0.027
			c0.429,0,1.101-0.009,2.016-0.027c0.766-0.02,1.288-0.038,1.568-0.057l-0.238,1.009h-3.206V48.815L575.426,48.815z
			 M567.292,36.453c0.98,0.756,1.773,1.479,2.38,2.17l-0.728,0.714c-0.551-0.672-1.33-1.414-2.338-2.226L567.292,36.453z
			 M570.26,37.67h2.254c0.233-0.588,0.42-1.102,0.56-1.54l0.966,0.225c-0.168,0.504-0.327,0.942-0.476,1.315h4.914v0.938h-5.306
			c-0.411,0.914-0.877,1.75-1.4,2.506h2.254v-1.666h0.966v1.666h3.052v0.924h-3.052v1.666h3.668v0.952h-3.668v2.604h-0.966v-2.604
			h-3.878v-0.952h3.878v-1.666h-3.234l-0.224-0.924c0.569-0.682,1.083-1.517,1.54-2.506h-1.848V37.67z"/>
		<path id="XMLID_409_" class="st4" d="M580.55,48.941l-0.21-0.98c0.504,0.037,0.868,0.056,1.092,0.056
			c0.364,0,0.546-0.2,0.546-0.602v-3.388c-0.374,0.149-0.952,0.354-1.736,0.615l-0.252-1.008c0.634-0.158,1.297-0.364,1.988-0.616
			v-3.136h-1.708v-0.966h1.708V36.27h1.036v2.646h1.162v0.966h-1.162v2.702c0.364-0.177,0.765-0.383,1.204-0.616v1.022
			c-0.364,0.195-0.765,0.392-1.204,0.588v4.088c0,0.85-0.411,1.274-1.232,1.274L580.55,48.941L580.55,48.941L580.55,48.941z
			 M588.488,42.136c-0.14,0.374-0.294,0.737-0.462,1.092h4.802v0.98h-1.54c-0.215,1.046-0.649,1.923-1.302,2.632
			c0.98,0.458,1.899,0.934,2.758,1.428l-0.546,0.813c-0.84-0.514-1.815-1.036-2.926-1.568c-0.943,0.682-2.413,1.219-4.41,1.61
			l-0.392-0.91c1.652-0.299,2.902-0.695,3.752-1.189c-0.728-0.337-1.643-0.724-2.744-1.162c0.392-0.598,0.728-1.148,1.008-1.652
			h-1.876v-0.98h2.394c0.187-0.41,0.359-0.812,0.518-1.203L588.488,42.136z M586.906,38.594c0.336,0.588,0.667,1.279,0.994,2.072
			h1.372c0.364-0.653,0.695-1.396,0.994-2.226l0.952,0.336c-0.261,0.699-0.555,1.33-0.882,1.89h2.268v0.966h-7.812v-0.966h2.142
			c-0.299-0.653-0.583-1.213-0.854-1.68L586.906,38.594z M588.754,36.144c0.149,0.374,0.303,0.817,0.462,1.33h3.136v0.925h-7.238
			v-0.925h3.08c-0.149-0.4-0.313-0.788-0.49-1.161L588.754,36.144z M587.508,44.208c-0.271,0.457-0.537,0.873-0.798,1.246
			c0.812,0.308,1.596,0.63,2.352,0.966c0.625-0.588,1.05-1.325,1.274-2.212H587.508z"/>
	</g>
</g>
<g id="Link21_2_" transform="translate(0,0)">
	<path id="XMLID_166_" class="st5" d="M632.333,99.167H703.5"/>
	<g id="XMLID_164_" transform="translate(0, -0.5)">
		<polygon id="XMLID_165_" class="st6" points="699,104.167 705,99.667 699,95.167 		"/>
	</g>
	<path id="XMLID_161_" class="st7" d="M632.333,99.167"/>
	<path id="XMLID_158_" class="st7" d="M632.333,99.167H703.5"/>
</g>
<g id="Link21_8_" transform="translate(0,0)">
	<path id="XMLID_157_" class="st5" d="M825.333,99.167H905.5"/>
	<g id="XMLID_155_" transform="translate(0, -0.5)">
		<polygon id="XMLID_156_" class="st6" points="901,104.167 907,99.667 901,95.167 		"/>
	</g>
	<path id="XMLID_152_" class="st7" d="M825.333,99.167"/>
	<path id="XMLID_149_" class="st7" d="M825.333,99.167H905.5"/>
</g>
<g id="Rects4_1_" transform="translate(389,155)">
	<rect id="XMLID_148_" x="-26.333" y="-138.333" class="st8" width="144" height="62"/>
	<rect id="XMLID_147_" x="-14.333" y="-126.333" class="st9" width="132" height="50"/>
	<rect id="XMLID_146_" x="-16.333" y="-128.333" class="st10" width="132" height="50"/>
	<rect id="XMLID_145_" x="-19.333" y="-131.333" class="st9" width="132" height="50"/>
	<rect id="XMLID_144_" x="-21.333" y="-133.333" class="st10" width="132" height="50"/>
	<rect id="XMLID_143_" x="-24.333" y="-136.333" class="st9" width="132" height="50"/>
	<rect id="XMLID_142_" x="-26.333" y="-138.333" class="st10" width="132" height="50"/>
	<g id="XMLID_135_" transform="translate(20 9)">
		<g id="XMLID_137_">
			<path id="XMLID_138_" class="st1" d="M-20.333-109.333c-7.18,0.008-13.007-5.805-13.015-12.985
				c-0.008-7.18,5.805-13.007,12.985-13.015c6.413-0.008,11.874,4.663,12.86,11h2c-1.105-8.21-8.656-13.971-16.866-12.866
				c-8.21,1.105-13.971,8.656-12.866,16.866s8.656,13.971,16.866,12.866c6.697-0.901,11.965-6.169,12.866-12.866h-2
				C-8.488-114.008-13.932-109.341-20.333-109.333z M-13.333-126.333l-7-4l-7,4v8l3.2,1.83c0.185-0.645,0.529-1.233,1-1.71
				l-2.2-1.28v-3.7l5,2.86l5-2.86v3.7l-4.14,2.36c-0.997-0.475-2.191-0.052-2.666,0.946c-0.475,0.997-0.052,2.191,0.946,2.666
				c0.997,0.475,2.191,0.052,2.666-0.946c0.129-0.27,0.195-0.566,0.194-0.866v-0.14l5-2.86V-126.333z M-20.333-122.633l-4.72-2.7
				l4.72-2.7l4.72,2.7L-20.333-122.633z"/>
		</g>
		<g id="XMLID_368_" class="st2">
			<path id="XMLID_369_" class="st4" d="M6.409-124.053h12.558v1.008h-6.72c-1.27,2.613-2.394,4.452-3.374,5.516
				c2.511-0.14,5.021-0.378,7.532-0.714c-0.504-0.896-1.064-1.82-1.68-2.771l0.812-0.504c1.269,1.903,2.263,3.588,2.982,5.054
				l-0.896,0.63c-0.243-0.522-0.485-1.018-0.728-1.484c-2.697,0.346-5.796,0.635-9.296,0.868l-0.266-1.021
				c0.056-0.019,0.135-0.052,0.238-0.099c0.905-0.681,2.091-2.506,3.556-5.474H6.409L6.409-124.053L6.409-124.053z M7.752-127.959
				h9.968v0.979H7.752V-127.959z"/>
			<path id="XMLID_372_" class="st4" d="M22.201-120.736c-0.084,1.951-0.416,3.561-0.994,4.83l-0.756-0.7
				c0.55-1.25,0.835-2.864,0.854-4.844v-6.72h4.088v10.906c0,0.858-0.392,1.288-1.176,1.288h-1.12l-0.238-0.896
				c0.522,0.037,0.882,0.056,1.078,0.056c0.354,0,0.532-0.257,0.532-0.77v-3.15C24.469-120.736,22.201-120.736,22.201-120.736z
				 M24.468-124.893v-2.366h-2.254v2.366H24.468z M22.214-123.984v2.339h2.254v-2.339H22.214z M27.521-122.122v6.202h-0.952v-12.264
				h5.67c0,1.735-0.084,2.884-0.252,3.443c-0.168,0.579-0.69,0.868-1.568,0.868h-1.134l-0.266-0.868l0.938,0.015
				c0.308,0,0.555-0.023,0.742-0.07c0.168-0.056,0.294-0.191,0.378-0.406c0.093-0.289,0.154-0.975,0.182-2.058h-3.738v4.242h4.76
				v0.854c-0.261,1.438-0.719,2.665-1.372,3.682c0.616,0.607,1.358,1.157,2.226,1.652l-0.504,0.854
				c-0.877-0.505-1.643-1.078-2.296-1.723c-0.616,0.719-1.339,1.298-2.17,1.736l-0.532-0.813c0.793-0.429,1.47-0.979,2.03-1.651
				c-0.896-1.092-1.498-2.324-1.806-3.696L27.521-122.122L27.521-122.122z M28.725-122.122c0.289,1.073,0.793,2.044,1.512,2.912
				c0.513-0.831,0.896-1.801,1.148-2.912H28.725z"/>
			<path id="XMLID_378_" class="st4" d="M39.504-128.673c-0.14,0.336-0.317,0.69-0.532,1.063h6.104v0.813
				c-0.896,1.036-1.988,1.918-3.276,2.646c1.587,0.672,3.351,1.106,5.292,1.303l-0.462,0.938c-2.212-0.252-4.186-0.812-5.922-1.68
				c-1.717,0.793-3.71,1.362-5.978,1.708l-0.462-0.952c2.025-0.28,3.808-0.729,5.348-1.344c-0.766-0.448-1.494-0.976-2.184-1.582
				c-0.551,0.494-1.134,0.929-1.75,1.302l-0.616-0.813c1.699-0.97,2.837-2.15,3.416-3.542L39.504-128.673z M40.834-122.583
				c0,0.504-0.047,1.036-0.14,1.596h4.928c-0.028,2.371-0.243,3.785-0.644,4.242c-0.411,0.467-1.111,0.7-2.1,0.7
				c-0.233,0-0.779-0.019-1.638-0.056l-0.252-0.91l1.652,0.069c0.831-0.009,1.358-0.187,1.582-0.531
				c0.214-0.336,0.34-1.204,0.378-2.604h-4.144c-0.103,0.346-0.252,0.695-0.448,1.05c-0.719,1.27-2.361,2.311-4.928,3.122
				l-0.672-0.826c2.305-0.672,3.822-1.521,4.55-2.548c0.196-0.289,0.341-0.555,0.434-0.798H35.22v-0.91h4.452
				c0.112-0.504,0.168-1.036,0.168-1.596C39.84-122.583,40.834-122.583,40.834-122.583z M43.634-126.658h-5.348l-0.182,0.225
				c0.774,0.681,1.638,1.269,2.59,1.764C41.805-125.22,42.785-125.882,43.634-126.658z"/>
			<path id="XMLID_382_" class="st4" d="M48.493-123.437h4.718c0.252-0.346,0.467-0.724,0.644-1.135l0.966,0.099
				c-0.112,0.289-0.285,0.635-0.518,1.036h3.612c-0.206-0.364-0.416-0.682-0.63-0.952l0.854-0.28
				c0.289,0.383,0.546,0.793,0.77,1.232h1.932v0.896h-3.78c0.905,0.858,2.263,1.535,4.074,2.03l-0.406,0.854
				c-0.215-0.065-0.542-0.182-0.98-0.35v4.088h-0.896v-0.603h-2.618v0.603h-0.896v-4.41h3.682c-1.316-0.606-2.329-1.344-3.038-2.212
				h-2.352c-0.775,0.877-1.825,1.615-3.15,2.212h3.514v4.41h-0.896v-0.603h-2.394v0.603h-0.882v-4.13l-1.148,0.392l-0.462-0.826
				c1.773-0.531,3.155-1.218,4.144-2.058h-3.864V-123.437z M49.626-128.24h4.27v3.402h-4.27V-128.24z M52.973-125.692v-1.68h-2.436
				v1.68H52.973z M50.705-117.389h2.394v-2.101h-2.394V-117.389z M55.451-128.24h4.354v3.402h-4.354V-128.24z M56.234-117.389h2.618
				v-2.101h-2.618V-117.389z M58.895-125.692v-1.68h-2.52v1.68H58.895z"/>
			<path id="XMLID_390_" class="st4" d="M65.937-128.379c-0.766,1.755-1.526,3.141-2.282,4.158c0.542-0.047,1.209-0.136,2.002-0.267
				c0.298-0.522,0.606-1.082,0.924-1.68l0.91,0.35c-1.344,2.408-2.455,4.121-3.332,5.139c1.036-0.225,2.072-0.532,3.108-0.924v0.924
				c-1.549,0.551-3.01,0.924-4.382,1.12l-0.266-0.938c0.187-0.084,0.34-0.182,0.462-0.294c0.55-0.532,1.227-1.456,2.03-2.772
				c-0.653,0.104-1.475,0.22-2.464,0.351l-0.252-0.938c0.149-0.056,0.294-0.182,0.434-0.378c0.821-1.231,1.54-2.641,2.156-4.228
				L65.937-128.379z M67.183-118.118c-1.354,0.635-2.866,1.129-4.536,1.484l-0.126-0.994c1.811-0.364,3.365-0.845,4.662-1.442
				L67.183-118.118L67.183-118.118z M73.847-128.114v10.71h1.19v0.98h-8.092v-0.98h1.218v-10.71H73.847z M69.157-124.614h3.696
				v-2.534h-3.696V-124.614z M69.157-121.015h3.696v-2.646h-3.696V-121.015z M69.157-117.404h3.696v-2.66h-3.696V-117.404z"/>
		</g>
	</g>
</g>
<g id="XMLID_349_" class="st2">
	<path id="XMLID_350_" class="st4" d="M357.824-49.772h1.036v4.326h5.194v0.98h-5.194v5.992h6.384v0.979h-12.46v-0.979h5.04V-49.772
		z"/>
	<path id="XMLID_352_" class="st4" d="M367.4-46.131c0.812,0.569,1.526,1.162,2.142,1.778l-0.714,0.714
		c-0.504-0.542-1.223-1.139-2.156-1.792L367.4-46.131z M369.682-41.721c-0.616,1.717-1.27,3.253-1.96,4.605l-0.938-0.406
		c0.765-1.455,1.442-2.968,2.03-4.535L369.682-41.721z M367.61-49.534c0.84,0.551,1.559,1.125,2.156,1.723l-0.714,0.728
		c-0.541-0.569-1.26-1.157-2.156-1.764L367.61-49.534z M372.034-47.727c-0.28,0.447-0.542,0.83-0.784,1.147h7.112l-0.112,3.276h1.19
		v0.938h-1.232c-0.075,1.438-0.122,2.269-0.14,2.492h1.148v0.868h-1.218c-0.038,0.346-0.075,0.593-0.112,0.742
		c-0.14,0.447-0.406,0.783-0.798,1.008c-0.392,0.196-0.961,0.294-1.708,0.294l-1.218,0.014l-0.294-0.924
		c0.672,0.037,1.134,0.056,1.386,0.056c0.354,0,0.695-0.037,1.022-0.111c0.308-0.104,0.532-0.313,0.672-0.63
		c0.028-0.065,0.056-0.215,0.084-0.448h-6.664c0.252-1.241,0.438-2.361,0.56-3.36h-1.4v-0.938h1.498
		c0.112-1.073,0.182-2.161,0.21-3.263c-0.289,0.374-0.597,0.724-0.924,1.051l-0.644-0.771c0.952-0.905,1.727-2.1,2.324-3.584
		L373-49.66c-0.131,0.327-0.28,0.658-0.448,0.994h6.468v0.938L372.034-47.727L372.034-47.727z M371.88-42.366
		c-0.121,0.98-0.252,1.812-0.392,2.492h5.628l0.14-2.492C377.256-42.366,371.88-42.366,371.88-42.366z M377.298-43.303l0.084-2.38
		h-5.236c-0.047,0.849-0.103,1.643-0.168,2.38H377.298z M373.896-42.198c0.672,0.485,1.255,0.989,1.75,1.513l-0.658,0.644
		c-0.429-0.485-1.003-0.999-1.722-1.54L373.896-42.198z M374.022-45.446c0.681,0.439,1.269,0.896,1.764,1.372l-0.644,0.645
		c-0.401-0.43-0.985-0.896-1.75-1.4L374.022-45.446z"/>
	<path id="XMLID_361_" class="st4" d="M380.07-48.33h1.26l3.122,8.75h0.042l3.122-8.75h1.26l-3.696,9.996h-1.414L380.07-48.33z"/>
	<path id="XMLID_363_" class="st4" d="M389.954-48.33h4.088c2.296,0,3.444,0.98,3.444,2.94c0,1.979-1.153,2.968-3.458,2.968h-2.926
		v4.088h-1.148C389.954-38.334,389.954-48.33,389.954-48.33z M391.102-47.335v3.92h2.87c0.793,0,1.391-0.163,1.792-0.49
		c0.383-0.326,0.574-0.821,0.574-1.483c0-0.682-0.196-1.167-0.588-1.456c-0.383-0.327-0.976-0.49-1.778-0.49L391.102-47.335
		L391.102-47.335z"/>
	<path id="XMLID_366_" class="st4" d="M406.054-47.643c0.756,0.588,1.204,1.381,1.344,2.38h-1.106
		c-0.14-0.719-0.495-1.279-1.064-1.681c-0.542-0.373-1.204-0.56-1.988-0.56c-1.158,0-2.054,0.406-2.688,1.218
		c-0.588,0.756-0.882,1.755-0.882,2.996c0,1.26,0.29,2.249,0.868,2.968c0.616,0.775,1.507,1.162,2.674,1.162
		c0.793,0,1.47-0.21,2.03-0.63c0.597-0.457,0.994-1.115,1.19-1.974h1.106c-0.224,1.176-0.747,2.081-1.568,2.716
		c-0.775,0.606-1.694,0.91-2.758,0.91c-1.549,0-2.739-0.514-3.57-1.54c-0.747-0.915-1.12-2.119-1.12-3.612s0.383-2.71,1.148-3.654
		c0.831-1.055,2.025-1.582,3.584-1.582C404.365-48.526,405.298-48.232,406.054-47.643z"/>
</g>
<g id="XMLID_327_" class="st2">
	<path id="XMLID_328_" class="st4" d="M603.742-45.053H616.3v1.008h-6.72c-1.27,2.613-2.394,4.452-3.374,5.516
		c2.511-0.14,5.021-0.378,7.532-0.714c-0.504-0.896-1.064-1.82-1.68-2.771l0.812-0.504c1.269,1.903,2.263,3.588,2.982,5.054
		l-0.896,0.63c-0.243-0.522-0.485-1.018-0.728-1.484c-2.697,0.346-5.796,0.635-9.296,0.868l-0.266-1.021
		c0.056-0.019,0.135-0.052,0.238-0.099c0.905-0.681,2.091-2.506,3.556-5.474h-4.718V-45.053L603.742-45.053z M605.086-48.959h9.968
		v0.979h-9.968V-48.959L605.086-48.959z"/>
	<path id="XMLID_331_" class="st4" d="M622.824-49.772h1.036v4.326h5.194v0.98h-5.194v5.992h6.384v0.979h-12.46v-0.979h5.04
		L622.824-49.772L622.824-49.772z"/>
	<path id="XMLID_333_" class="st4" d="M637.132-49.715c-0.168,0.28-0.387,0.593-0.658,0.938h5.698v0.771
		c-0.849,1.045-1.899,1.95-3.15,2.716c1.484,0.635,3.271,1.092,5.362,1.372l-0.434,0.896c-2.306-0.354-4.266-0.933-5.88-1.735
		c-1.708,0.85-3.719,1.465-6.034,1.848l-0.434-0.882c2.072-0.289,3.901-0.789,5.488-1.498c-0.831-0.494-1.573-1.078-2.226-1.75
		c-0.579,0.532-1.237,1.031-1.974,1.498l-0.644-0.784c1.577-0.914,2.875-2.118,3.892-3.612L637.132-49.715z M642.424-43.038v6.104
		h-0.966v-0.616h-6.888v0.616h-0.966v-6.104H642.424z M634.57-40.713h2.954v-1.484h-2.954V-40.713z M634.57-38.417h2.954v-1.484
		h-2.954V-38.417z M635.466-47.616c0.691,0.7,1.545,1.321,2.562,1.862c1.12-0.616,2.086-1.33,2.898-2.142h-5.18L635.466-47.616z
		 M638.476-42.198v1.484h2.982v-1.484H638.476z M638.476-38.417h2.982v-1.484h-2.982V-38.417z"/>
	<path id="XMLID_341_" class="st4" d="M649.732-49.421c-0.355,1.092-0.821,2.151-1.4,3.178v9.338h-1.036v-7.742
		c-0.458,0.626-0.961,1.228-1.512,1.807l-0.322-1.064c1.531-1.727,2.646-3.705,3.346-5.936L649.732-49.421z M652.882-49.267
		c-0.84,2.398-1.941,4.223-3.304,5.474l-0.784-0.672c1.4-1.278,2.45-3.001,3.15-5.166L652.882-49.267z M650.404-43.318v-0.979h6.188
		c0,2.978-0.07,4.815-0.21,5.516c-0.112,1.092-0.681,1.639-1.708,1.639c-0.289,0-0.784-0.015-1.484-0.042l-0.238-0.967
		c0.802,0.037,1.325,0.057,1.568,0.057c0.522,0,0.826-0.369,0.91-1.106c0.084-0.448,0.14-1.82,0.168-4.116h-2.366
		c-0.261,1.568-0.593,2.786-0.994,3.654c-0.504,0.98-1.25,1.866-2.24,2.66l-0.658-0.84c0.877-0.682,1.54-1.442,1.988-2.282
		c0.411-0.821,0.714-1.885,0.91-3.192h-1.834V-43.318z M655.066-49.799c0.644,2.025,1.773,3.691,3.388,4.998l-0.686,0.798
		c-1.708-1.372-2.898-3.146-3.57-5.32L655.066-49.799z"/>
	<path id="XMLID_346_" class="st4" d="M660.652-49.198h11.116v0.966h-10.15v9.744h10.556v0.966h-11.522V-49.198z M663.606-46.944
		c1.325,1.009,2.524,1.988,3.598,2.94c0.784-1.008,1.475-2.184,2.072-3.528l0.91,0.49c-0.635,1.438-1.368,2.684-2.198,3.738
		c1.092,1.008,2.086,2.002,2.982,2.981l-0.784,0.784c-0.84-0.998-1.797-1.992-2.87-2.981c-1.232,1.315-2.651,2.323-4.256,3.023
		l-0.588-0.91c1.549-0.635,2.907-1.577,4.074-2.828c-1.176-1.035-2.399-2.039-3.668-3.01L663.606-46.944z"/>
</g>
<g id="XMLID_308_" class="st2">
	<path id="XMLID_309_" class="st4" d="M858.824-49.772h1.035v4.326h5.194v0.98h-5.194v5.992h6.385v0.979h-12.46v-0.979h5.04V-49.772
		L858.824-49.772z"/>
	<path id="XMLID_311_" class="st4" d="M868.399-46.131c0.813,0.569,1.526,1.162,2.143,1.778l-0.714,0.714
		c-0.504-0.542-1.224-1.139-2.156-1.792L868.399-46.131z M870.682-41.721c-0.616,1.717-1.27,3.253-1.96,4.605l-0.938-0.406
		c0.765-1.455,1.441-2.968,2.029-4.535L870.682-41.721z M868.609-49.534c0.841,0.551,1.559,1.125,2.156,1.723l-0.714,0.728
		c-0.541-0.569-1.26-1.157-2.156-1.764L868.609-49.534z M873.034-47.727c-0.28,0.447-0.542,0.83-0.784,1.147h7.111l-0.111,3.276
		h1.189v0.938h-1.231c-0.075,1.438-0.122,2.269-0.141,2.492h1.148v0.868h-1.218c-0.038,0.346-0.075,0.593-0.112,0.742
		c-0.14,0.447-0.406,0.783-0.798,1.008c-0.393,0.196-0.962,0.294-1.708,0.294l-1.218,0.014l-0.294-0.924
		c0.672,0.037,1.134,0.056,1.386,0.056c0.354,0,0.695-0.037,1.021-0.111c0.309-0.104,0.532-0.313,0.673-0.63
		c0.027-0.065,0.056-0.215,0.084-0.448h-6.664c0.252-1.241,0.438-2.361,0.56-3.36h-1.4v-0.938h1.498
		c0.112-1.073,0.183-2.161,0.21-3.263c-0.289,0.374-0.597,0.724-0.924,1.051l-0.644-0.771c0.952-0.905,1.727-2.1,2.324-3.584
		L874-49.66c-0.131,0.327-0.28,0.658-0.448,0.994h6.468v0.938L873.034-47.727L873.034-47.727z M872.88-42.366
		c-0.121,0.98-0.252,1.812-0.393,2.492h5.629l0.14-2.492C878.256-42.366,872.88-42.366,872.88-42.366z M878.298-43.303l0.084-2.38
		h-5.236c-0.047,0.849-0.103,1.643-0.168,2.38H878.298z M874.896-42.198c0.672,0.485,1.256,0.989,1.75,1.513l-0.658,0.644
		c-0.429-0.485-1.003-0.999-1.722-1.54L874.896-42.198z M875.021-45.446c0.682,0.439,1.27,0.896,1.765,1.372l-0.645,0.645
		c-0.401-0.43-0.984-0.896-1.75-1.4L875.021-45.446z"/>
	<path id="XMLID_320_" class="st4" d="M882.092-48.33h1.134v9.996h-1.134V-48.33z"/>
	<path id="XMLID_322_" class="st4" d="M885.325-48.33h3.584c1.587,0,2.781,0.457,3.584,1.372c0.747,0.85,1.12,2.058,1.12,3.626
		c0,1.54-0.401,2.749-1.204,3.626c-0.84,0.915-2.044,1.372-3.611,1.372h-3.473L885.325-48.33L885.325-48.33z M886.474-47.335v8.008
		h2.128c1.297,0,2.277-0.345,2.94-1.036c0.625-0.681,0.938-1.67,0.938-2.968c0-1.335-0.289-2.328-0.868-2.982
		c-0.615-0.681-1.577-1.021-2.884-1.021L886.474-47.335L886.474-47.335z"/>
	<path id="XMLID_325_" class="st4" d="M902.322-47.643c0.756,0.588,1.204,1.381,1.344,2.38h-1.106
		c-0.14-0.719-0.494-1.279-1.063-1.681c-0.542-0.373-1.204-0.56-1.988-0.56c-1.157,0-2.054,0.406-2.688,1.218
		c-0.589,0.756-0.883,1.755-0.883,2.996c0,1.26,0.29,2.249,0.868,2.968c0.616,0.775,1.508,1.162,2.674,1.162
		c0.794,0,1.471-0.21,2.03-0.63c0.598-0.457,0.994-1.115,1.19-1.974h1.105c-0.224,1.176-0.746,2.081-1.567,2.716
		c-0.775,0.606-1.694,0.91-2.759,0.91c-1.549,0-2.739-0.514-3.569-1.54c-0.747-0.915-1.12-2.119-1.12-3.612s0.383-2.711,1.147-3.654
		c0.831-1.055,2.025-1.582,3.584-1.582C900.633-48.526,901.565-48.232,902.322-47.643z"/>
</g>
<g id="XMLID_191_">
	<rect id="XMLID_131_" x="1053" y="34.667" class="st9" width="118" height="50"/>
	<rect id="XMLID_130_" x="1051" y="32.667" class="st10" width="118" height="50"/>
	<g id="XMLID_289_" class="st2">
		<path id="XMLID_290_" class="st4" d="M1091.534,59.264c-0.084,1.951-0.416,3.561-0.994,4.83l-0.756-0.7
			c0.55-1.25,0.835-2.864,0.854-4.844v-6.72h4.088v10.906c0,0.858-0.392,1.288-1.176,1.288h-1.12l-0.238-0.896
			c0.522,0.037,0.883,0.056,1.078,0.056c0.354,0,0.532-0.257,0.532-0.77v-3.15L1091.534,59.264L1091.534,59.264z M1093.802,55.107
			v-2.366h-2.254v2.366H1093.802z M1091.548,56.016v2.339h2.254v-2.339H1091.548z M1096.854,57.878v6.202h-0.952V51.816h5.67
			c0,1.735-0.084,2.884-0.252,3.443c-0.168,0.579-0.69,0.868-1.567,0.868h-1.134l-0.267-0.868l0.938,0.015
			c0.308,0,0.555-0.023,0.742-0.07c0.168-0.056,0.294-0.191,0.378-0.406c0.093-0.289,0.153-0.975,0.182-2.058h-3.738v4.242h4.76
			v0.854c-0.261,1.438-0.719,2.665-1.371,3.682c0.615,0.607,1.357,1.157,2.226,1.652l-0.504,0.854
			c-0.878-0.505-1.643-1.078-2.296-1.723c-0.616,0.719-1.34,1.298-2.17,1.736l-0.532-0.813c0.793-0.429,1.47-0.979,2.03-1.651
			c-0.896-1.092-1.498-2.324-1.807-3.696h-0.336V57.878z M1098.058,57.878c0.289,1.073,0.793,2.044,1.512,2.912
			c0.514-0.831,0.896-1.801,1.148-2.912H1098.058z"/>
		<path id="XMLID_296_" class="st4" d="M1108.838,51.327c-0.14,0.336-0.317,0.69-0.532,1.063h6.104v0.813
			c-0.896,1.036-1.988,1.918-3.276,2.646c1.587,0.672,3.351,1.106,5.292,1.303l-0.462,0.938c-2.212-0.252-4.187-0.812-5.922-1.68
			c-1.718,0.793-3.71,1.362-5.979,1.708l-0.462-0.952c2.025-0.28,3.809-0.729,5.349-1.344c-0.766-0.448-1.494-0.976-2.185-1.582
			c-0.551,0.494-1.134,0.929-1.75,1.302l-0.616-0.813c1.699-0.97,2.838-2.15,3.416-3.542L1108.838,51.327z M1110.168,57.417
			c0,0.504-0.047,1.036-0.141,1.596h4.929c-0.028,2.371-0.243,3.785-0.645,4.242c-0.41,0.467-1.11,0.7-2.1,0.7
			c-0.233,0-0.779-0.019-1.638-0.056l-0.253-0.91l1.652,0.069c0.831-0.009,1.358-0.187,1.582-0.531
			c0.215-0.336,0.341-1.204,0.378-2.604h-4.144c-0.104,0.346-0.252,0.695-0.448,1.05c-0.719,1.27-2.361,2.311-4.928,3.122
			l-0.672-0.826c2.305-0.672,3.821-1.521,4.55-2.548c0.195-0.289,0.341-0.555,0.434-0.798h-4.172v-0.91h4.452
			c0.112-0.504,0.168-1.036,0.168-1.596L1110.168,57.417L1110.168,57.417z M1112.968,53.342h-5.348l-0.183,0.225
			c0.774,0.681,1.639,1.269,2.59,1.764C1111.139,54.78,1112.118,54.118,1112.968,53.342z"/>
		<path id="XMLID_300_" class="st4" d="M1117.826,56.563h4.718c0.252-0.346,0.467-0.724,0.644-1.135l0.966,0.099
			c-0.111,0.289-0.284,0.635-0.518,1.036h3.612c-0.206-0.364-0.416-0.682-0.63-0.952l0.854-0.28
			c0.289,0.383,0.546,0.793,0.771,1.232h1.932v0.896h-3.78c0.905,0.858,2.264,1.535,4.074,2.03l-0.406,0.854
			c-0.215-0.065-0.541-0.182-0.979-0.35v4.088h-0.896v-0.603h-2.618v0.603h-0.896v-4.41h3.682c-1.315-0.606-2.328-1.344-3.038-2.212
			h-2.352c-0.775,0.877-1.825,1.615-3.15,2.212h3.515v4.41h-0.896v-0.603h-2.394v0.603h-0.883v-4.13l-1.147,0.392l-0.462-0.826
			c1.773-0.531,3.154-1.218,4.144-2.058h-3.863v-0.896H1117.826L1117.826,56.563z M1118.96,51.76h4.27v3.402h-4.27V51.76z
			 M1122.306,54.308v-1.68h-2.436v1.68H1122.306z M1120.038,62.611h2.394V60.51h-2.394V62.611z M1124.784,51.76h4.354v3.402h-4.354
			V51.76z M1125.567,62.611h2.618V60.51h-2.618V62.611z M1128.228,54.308v-1.68h-2.52v1.68H1128.228z"/>
	</g>
</g>
<g id="XMLID_37_">
	<rect id="XMLID_128_" x="1053" y="95.75" class="st9" width="118" height="50"/>
	<rect id="XMLID_127_" x="1051" y="93.75" class="st10" width="118" height="50"/>
	<g id="XMLID_272_" class="st2">
		<path id="XMLID_273_" class="st4" d="M1083.008,114.888h5.474v-2.534h1.036v2.534h5.46v0.966h-4.563
			c0.933,2.222,2.608,4.21,5.025,5.965l-0.686,0.867c-2.464-2.016-4.172-4.293-5.124-6.832h-0.112v5.461h2.996v0.966h-2.996v2.87
			h-1.036v-2.87h-2.884v-0.966h2.884v-5.461h-0.098c-1.036,2.838-2.8,5.176-5.292,7.015l-0.574-0.938
			c2.333-1.559,4.022-3.584,5.068-6.076h-4.578V114.888L1083.008,114.888z"/>
		<path id="XMLID_275_" class="st4" d="M1101.25,121.944c-1.335,0.597-2.814,1.11-4.438,1.54l-0.252-1.009
			c0.569-0.121,1.181-0.271,1.834-0.447v-4.956h-1.651v-0.98h1.651v-3.724h1.008v3.724h1.568v0.98h-1.568v4.62
			c0.635-0.225,1.251-0.477,1.849-0.757L1101.25,121.944L1101.25,121.944z M1108.88,114.692c0,2.986-0.07,4.802-0.21,5.445
			c-0.131,0.626-0.668,0.938-1.61,0.938h-0.238l-0.308-1.008l0.756,0.014c0.289,0,0.467-0.168,0.532-0.504
			c0.065-0.364,0.098-1.554,0.098-3.57l-1.945,0.574v5.558h-0.967v-5.277l-1.777,0.531v5.853c0,0.467,0.224,0.7,0.672,0.7h3.598
			c0.299,0,0.509-0.099,0.63-0.294c0.159-0.225,0.267-0.92,0.322-2.086l0.938,0.294c-0.104,1.456-0.29,2.333-0.561,2.632
			c-0.252,0.271-0.63,0.406-1.134,0.406h-4.102c-0.896,0-1.345-0.486-1.345-1.456v-5.754l-1.008,0.294v-0.994l1.008-0.309v-2.939
			h0.98v2.646l1.777-0.532v-3.542h0.967v3.248L1108.88,114.692z"/>
		<path id="XMLID_278_" class="st4" d="M1111.078,113.74h3.808c0.205-0.551,0.368-1.046,0.49-1.484l1.021,0.126
			c-0.158,0.542-0.303,0.994-0.434,1.358h7.168v0.979h-7.546c-0.514,1.186-1.153,2.292-1.918,3.318v7.126h-0.98v-5.922
			c-0.494,0.541-0.994,1.036-1.498,1.483l-0.63-0.798c1.699-1.493,3.006-3.229,3.92-5.208h-3.401L1111.078,113.74L1111.078,113.74z
			 M1114.76,120.25h4.06v-1.302c0.821-0.457,1.582-0.984,2.282-1.582h-5.264v-0.938h6.552v0.938
			c-0.774,0.719-1.629,1.386-2.562,2.002v0.882h3.5v0.966h-3.5v2.646c0,0.83-0.416,1.246-1.246,1.246h-1.75l-0.267-0.952
			c0.672,0.019,1.209,0.027,1.61,0.027c0.429,0,0.644-0.215,0.644-0.644v-2.324h-4.06L1114.76,120.25L1114.76,120.25z"/>
		<path id="XMLID_281_" class="st4" d="M1125.876,117.352c-0.317,0.532-0.668,1.051-1.05,1.555l-0.336-1.078
			c1.11-1.614,1.908-3.453,2.394-5.517l0.91,0.421c-0.243,0.905-0.556,1.811-0.938,2.716v9.716h-0.979L1125.876,117.352
			L1125.876,117.352z M1127.416,116.666h2.534v5.936c0.308-0.326,0.69-0.76,1.147-1.302l0.238,0.994
			c-0.663,0.84-1.409,1.629-2.24,2.366l-0.406-0.924c0.196-0.168,0.294-0.351,0.294-0.546v-5.587h-1.567V116.666L1127.416,116.666z
			 M1128.746,112.872c0.84,0.719,1.525,1.414,2.058,2.086l-0.742,0.742c-0.504-0.69-1.171-1.409-2.002-2.156L1128.746,112.872z
			 M1131.518,113.95h1.681v-1.61h0.909v1.61h1.582v0.826c0.28-0.561,0.546-1.135,0.798-1.723l0.841,0.435
			c-0.458,1.139-1.009,2.188-1.652,3.149h1.61v0.924h-2.296c-0.411,0.495-0.826,0.934-1.246,1.316h2.855v6.244h-0.952v-0.588h-2.618
			v0.588h-0.938v-5.012c-0.224,0.131-0.56,0.308-1.008,0.531l-0.504-0.798c1.204-0.551,2.263-1.311,3.178-2.282h-2.548v-0.924h1.988
			v-1.806h-1.681v-0.88H1131.518z M1135.647,121.272v-1.513h-2.618v1.513H1135.647z M1133.029,122.112v1.54h2.618v-1.54H1133.029z
			 M1134.527,116.638c0.411-0.56,0.789-1.162,1.135-1.806h-1.555v1.806H1134.527z"/>
	</g>
</g>
<rect id="XMLID_125_" x="362.667" y="85.667" class="st8" width="144" height="62"/>
<rect id="XMLID_124_" x="374.667" y="97.667" class="st9" width="132" height="50"/>
<rect id="XMLID_123_" x="372.667" y="95.667" class="st10" width="132" height="50"/>
<rect id="XMLID_122_" x="369.667" y="92.667" class="st9" width="132" height="50"/>
<rect id="XMLID_121_" x="367.667" y="90.667" class="st10" width="132" height="50"/>
<rect id="XMLID_120_" x="364.667" y="87.667" class="st9" width="132" height="50"/>
<rect id="XMLID_119_" x="362.667" y="85.667" class="st10" width="132" height="50"/>
<g id="XMLID_260_" class="st2">
	<path id="XMLID_261_" class="st4" d="M433.078,103.323h3.808c0.205-0.551,0.368-1.046,0.49-1.484l1.022,0.126
		c-0.159,0.542-0.303,0.994-0.434,1.358h7.168v0.979h-7.546c-0.513,1.186-1.153,2.292-1.918,3.318v7.126h-0.98v-5.922
		c-0.495,0.541-0.994,1.036-1.498,1.483l-0.63-0.798c1.699-1.493,3.005-3.229,3.92-5.208h-3.402V103.323z M436.76,109.833h4.06
		v-1.302c0.821-0.457,1.582-0.984,2.282-1.582h-5.264v-0.938h6.552v0.938c-0.775,0.719-1.629,1.386-2.562,2.002v0.882h3.5v0.966
		h-3.5v2.646c0,0.83-0.416,1.246-1.246,1.246h-1.75l-0.266-0.952c0.672,0.019,1.208,0.027,1.61,0.027
		c0.429,0,0.644-0.215,0.644-0.644v-2.324h-4.06V109.833z"/>
	<path id="XMLID_264_" class="st4" d="M447.876,106.935c-0.317,0.532-0.667,1.051-1.05,1.555l-0.336-1.078
		c1.11-1.614,1.908-3.453,2.394-5.517l0.91,0.421c-0.243,0.905-0.555,1.811-0.938,2.716v9.716h-0.98
		C447.876,114.748,447.876,106.935,447.876,106.935z M449.416,106.249h2.534v5.936c0.308-0.326,0.69-0.76,1.148-1.302l0.238,0.994
		c-0.663,0.84-1.409,1.629-2.24,2.366l-0.406-0.924c0.196-0.168,0.294-0.351,0.294-0.546v-5.587h-1.568V106.249z M450.746,102.455
		c0.84,0.719,1.526,1.414,2.058,2.086l-0.742,0.742c-0.504-0.69-1.171-1.409-2.002-2.156L450.746,102.455z M453.518,103.533h1.68
		v-1.61h0.91v1.61h1.582v0.826c0.28-0.561,0.546-1.135,0.798-1.723l0.84,0.435c-0.458,1.139-1.008,2.188-1.652,3.149h1.61v0.924
		h-2.296c-0.411,0.495-0.826,0.934-1.246,1.316h2.856v6.244h-0.952v-0.588h-2.618v0.588h-0.938v-5.012
		c-0.224,0.131-0.56,0.308-1.008,0.531l-0.504-0.798c1.204-0.551,2.263-1.311,3.178-2.282h-2.548v-0.924h1.988v-1.806h-1.68V103.533
		z M457.648,110.855v-1.513h-2.618v1.513H457.648z M455.03,111.695v1.54h2.618v-1.54H455.03z M456.528,106.221
		c0.411-0.56,0.789-1.162,1.134-1.806h-1.554v1.806H456.528z"/>
</g>
<g id="XMLID_94_">
	<g id="XMLID_115_">
		<rect id="XMLID_117_" x="531" y="75.667" class="st9" width="118" height="50"/>
		<rect id="XMLID_116_" x="529" y="73.667" class="st10" width="118" height="50"/>
	</g>
	<g id="XMLID_245_" class="st2">
		<path id="XMLID_246_" class="st4" d="M581.07,93.67h1.26l3.122,8.75h0.042l3.122-8.75h1.26l-3.696,9.997h-1.414L581.07,93.67z"/>
		<path id="XMLID_248_" class="st4" d="M590.954,93.67h4.088c2.296,0,3.444,0.98,3.444,2.941c0,1.979-1.153,2.968-3.458,2.968
			h-2.926v4.088h-1.148V93.67L590.954,93.67z M592.102,94.665v3.92h2.87c0.793,0,1.391-0.163,1.792-0.49
			c0.383-0.326,0.574-0.821,0.574-1.483c0-0.682-0.196-1.167-0.588-1.457c-0.383-0.327-0.976-0.49-1.778-0.49L592.102,94.665
			L592.102,94.665z"/>
		<path id="XMLID_251_" class="st4" d="M599.942,93.67h1.204l5.656,8.134h0.042V93.67h1.148v9.997h-1.176l-5.684-8.218h-0.042v8.218
			h-1.148V93.67z"/>
		<path id="XMLID_253_" class="st4" d="M618.926,104.983l-0.266-0.98l1.344,0.042c0.392,0,0.588-0.191,0.588-0.574v-9.703h-9.184
			v11.271h-0.994V92.802h11.172v10.893c0,0.858-0.416,1.288-1.246,1.288H618.926z M615.594,101.889
			c-0.402-0.634-0.845-1.307-1.33-2.016c-0.495,1.362-1.106,2.539-1.834,3.528l-0.644-0.784c0.728-1.036,1.33-2.264,1.806-3.683
			c-0.644-0.858-1.302-1.675-1.974-2.449l0.63-0.603c0.56,0.588,1.115,1.251,1.666,1.989c0.271-1.008,0.49-2.063,0.658-3.165
			l0.924,0.168c-0.224,1.438-0.518,2.753-0.882,3.949c0.616,0.84,1.167,1.638,1.652,2.394L615.594,101.889z M619.696,102.533
			c-0.401-0.69-0.873-1.466-1.414-2.324c-0.56,1.372-1.218,2.548-1.974,3.528l-0.644-0.771c0.793-1.073,1.446-2.319,1.96-3.738
			c-0.691-1.017-1.33-1.885-1.918-2.604l0.63-0.602c0.569,0.644,1.12,1.349,1.652,2.113c0.29-0.971,0.537-2.1,0.742-3.388
			l0.952,0.168c-0.252,1.55-0.588,2.955-1.008,4.214c0.588,0.896,1.157,1.806,1.708,2.73L619.696,102.533z"/>
		<path id="XMLID_257_" class="st4" d="M633.57,92.424c-0.336,1.018-0.756,1.923-1.26,2.716h2.884v0.981h-4.676v0.658
			c-0.028,0.774-0.093,1.423-0.196,1.945h5.684v0.98h-5.096c0.69,1.895,2.501,3.364,5.432,4.41l-0.588,0.938
			c-3.071-1.241-4.984-2.931-5.74-5.067c-0.271,0.812-0.625,1.512-1.064,2.1c-0.961,1.241-2.516,2.202-4.662,2.884l-0.546-0.882
			c2.146-0.69,3.64-1.596,4.48-2.716c0.345-0.514,0.611-1.068,0.798-1.666h-5.026v-0.98h5.278c0.131-0.615,0.201-1.265,0.21-1.945
			v-0.658h-4.69v-0.981h6.398c0.513-0.783,0.985-1.777,1.414-2.981L633.57,92.424z M627.34,92.285
			c0.579,0.756,1.111,1.549,1.596,2.38l-0.91,0.462c-0.513-0.915-1.05-1.713-1.61-2.394L627.34,92.285z"/>
	</g>
	<g id="XMLID_95_">
		<path id="XMLID_113_" class="st1" d="M554.417,110.563c-7.18,0-13-5.82-13-13s5.82-13,13-13c6.498,0,11.866,4.772,12.831,11h2.021
			c-0.98-7.336-7.247-13-14.851-13c-8.284,0-15,6.716-15,15s6.716,15,15,15c7.604,0,13.871-5.664,14.851-13h-2.021
			C566.283,105.791,560.914,110.563,554.417,110.563z"/>
		<rect id="XMLID_112_" x="546.417" y="92.563" class="st1" width="16" height="2"/>
		<rect id="XMLID_111_" x="546.417" y="103.563" class="st1" width="16" height="2"/>
		<rect id="XMLID_110_" x="546.417" y="92.563" class="st1" width="2" height="3"/>
		<rect id="XMLID_109_" x="546.417" y="102.563" class="st1" width="2" height="3"/>
		<rect id="XMLID_108_" x="560.417" y="102.563" class="st1" width="2" height="3"/>
		<rect id="XMLID_107_" x="560.417" y="92.563" class="st1" width="2" height="3"/>
		<rect id="XMLID_106_" x="549.417" y="88.563" class="st1" width="2" height="4"/>
		<rect id="XMLID_105_" x="557.417" y="88.563" class="st1" width="2" height="4"/>
		<rect id="XMLID_104_" x="552.017" y="96.647" class="st1" width="2" height="5"/>
		<rect id="XMLID_103_" x="560.375" y="96.647" class="st1" width="2" height="5"/>
		<rect id="XMLID_102_" x="557.375" y="96.647" class="st1" width="2" height="5"/>
		<rect id="XMLID_101_" x="555.017" y="96.647" class="st1" width="2" height="3"/>
		<rect id="XMLID_100_" x="553.017" y="98.647" class="st1" width="3" height="1"/>
		<rect id="XMLID_99_" x="552.871" y="96.647" class="st1" width="3" height="1"/>
		<polygon id="XMLID_98_" class="st1" points="558.375,96.647 560.375,101.647 561.375,101.647 559.375,96.647 		"/>
		<polygon id="XMLID_97_" class="st1" points="546.337,96.697 547.837,101.697 549.837,101.697 548.337,96.697 		"/>
		<polygon id="XMLID_96_" class="st1" points="551.837,96.697 549.938,101.697 547.938,101.697 549.837,96.697 		"/>
	</g>
</g>
<rect id="XMLID_93_" x="710" y="75.667" class="st9" width="119" height="50"/>
<rect id="XMLID_92_" x="708" y="73.667" class="st10" width="119" height="50"/>
<g id="XMLID_83_">
	<polygon id="XMLID_89_" class="st1" points="738,108.116 738,96.094 740,96.094 740,103.094 742,103.094 	"/>
	<rect id="XMLID_88_" x="735" y="103.094" class="st1" width="2" height="2"/>
	<rect id="XMLID_87_" x="732" y="96.094" class="st1" width="2" height="12"/>
	<polygon id="XMLID_86_" class="st1" points="734,85.094 734,93.094 732,93.094 732,90.116 730,90.116 	"/>
	<rect id="XMLID_85_" x="738" y="85.116" class="st1" width="2" height="7.979"/>
	<polygon id="XMLID_84_" class="st1" points="722,92.094 722,105.094 730,105.094 730,103.094 724,103.094 724,94.094 749,94.094 
		749,103.094 744,103.094 742.4,105.094 751,105.094 751,92.094 	"/>
</g>
<g id="XMLID_79_">
	<rect id="XMLID_81_" x="911" y="75.667" class="st9" width="118" height="50"/>
	<rect id="XMLID_80_" x="909" y="73.989" class="st10" width="118" height="50"/>
</g>
<g id="XMLID_150_" class="st2">
	<path id="XMLID_151_" class="st4" d="M965.999,95.855c0.793,0.859,1.61,1.815,2.45,2.87c0.522-1.26,0.831-2.632,0.924-4.116h-3.836
		v-0.98h4.746v0.742c-0.075,1.923-0.472,3.655-1.19,5.195c0.579,0.774,1.12,1.563,1.624,2.365l-0.728,0.729
		c-0.401-0.672-0.863-1.377-1.386-2.114c-0.766,1.335-1.797,2.539-3.095,3.612l-0.588-0.882c1.316-1.009,2.338-2.198,3.066-3.57
		c-0.756-1.018-1.643-2.091-2.66-3.22L965.999,95.855z M971.768,97.563c0.952,1.166,1.675,2.188,2.17,3.065l-0.798,0.561
		c-0.561-0.971-1.274-1.993-2.143-3.066L971.768,97.563z M971.012,94.945h4.06v-2.744h1.008v2.744h1.554v0.966h-1.554v7.701
		c0,0.942-0.48,1.414-1.441,1.414h-2.198l-0.21-0.994c0.812,0.046,1.498,0.069,2.058,0.069c0.522,0,0.784-0.247,0.784-0.741v-7.449
		h-4.06L971.012,94.945L971.012,94.945z"/>
	<path id="XMLID_207_" class="st4" d="M983.346,102.953c-1.224,0.476-2.618,0.891-4.187,1.246l-0.252-0.994
		c0.84-0.14,1.647-0.322,2.422-0.546c0.327-2.007,0.569-4.172,0.729-6.496l0.909,0.126c-0.158,2.1-0.415,4.135-0.77,6.104
		c0.858-0.308,1.241-0.442,1.148-0.405v0.965H983.346z M978.936,94.567h1.834c-0.206-0.784-0.42-1.451-0.645-2.002l1.008-0.168
		c0.188,0.615,0.383,1.339,0.589,2.17h1.638v0.951h-4.424L978.936,94.567L978.936,94.567z M980.083,96.345
		c0.289,1.578,0.556,3.416,0.798,5.517l-0.825,0.21c-0.206-1.895-0.472-3.715-0.799-5.46L980.083,96.345z M983.682,97.003h7.966
		v0.924h-3.683c-0.093,0.439-0.229,0.887-0.405,1.344h3.682v4.69c0,0.7-0.294,1.05-0.882,1.05h-0.645l-0.237-0.91l0.573,0.042
		c0.188,0,0.28-0.126,0.28-0.378v-3.598h-1.26v4.62h-0.854v-4.62h-1.134v4.634h-0.854v-4.634h-1.232v4.844h-0.91v-5.74h2.492
		c0.187-0.476,0.317-0.924,0.393-1.344h-3.29L983.682,97.003L983.682,97.003z M989.995,94.945v-2.143h0.952v3.024h-6.664v-3.024
		h0.966v2.143h1.862v-2.688h0.979v2.688H989.995z"/>
	<path id="XMLID_215_" class="st4" d="M1002.259,104.983l-0.266-0.98l1.344,0.042c0.393,0,0.588-0.191,0.588-0.574v-9.703h-9.184
		v11.271h-0.994V92.802h11.172v10.893c0,0.858-0.415,1.288-1.246,1.288H1002.259z M998.928,101.889
		c-0.402-0.634-0.846-1.307-1.33-2.016c-0.495,1.362-1.106,2.539-1.834,3.528l-0.645-0.784c0.729-1.036,1.33-2.264,1.806-3.683
		c-0.644-0.858-1.302-1.675-1.974-2.449l0.63-0.603c0.561,0.588,1.115,1.251,1.666,1.989c0.271-1.008,0.49-2.063,0.658-3.165
		l0.924,0.168c-0.224,1.438-0.518,2.753-0.882,3.949c0.616,0.84,1.167,1.638,1.652,2.394L998.928,101.889z M1003.029,102.533
		c-0.401-0.69-0.873-1.466-1.414-2.324c-0.56,1.372-1.218,2.548-1.974,3.528l-0.645-0.771c0.793-1.073,1.446-2.319,1.96-3.738
		c-0.69-1.017-1.33-1.885-1.918-2.604l0.63-0.602c0.569,0.644,1.12,1.349,1.652,2.113c0.289-0.971,0.536-2.1,0.742-3.388
		l0.952,0.168c-0.252,1.55-0.588,2.955-1.009,4.214c0.589,0.896,1.157,1.806,1.708,2.73L1003.029,102.533z"/>
	<path id="XMLID_219_" class="st4" d="M1016.903,92.424c-0.336,1.018-0.756,1.923-1.26,2.716h2.884v0.981h-4.676v0.658
		c-0.028,0.774-0.094,1.423-0.196,1.945h5.684v0.98h-5.096c0.69,1.895,2.501,3.364,5.432,4.41l-0.588,0.938
		c-3.07-1.241-4.983-2.931-5.739-5.067c-0.271,0.812-0.626,1.512-1.064,2.1c-0.961,1.241-2.516,2.202-4.662,2.884l-0.546-0.882
		c2.146-0.69,3.64-1.596,4.48-2.716c0.345-0.514,0.61-1.068,0.798-1.666h-5.026v-0.98h5.278c0.131-0.615,0.2-1.265,0.21-1.945
		v-0.658h-4.69v-0.981h6.398c0.513-0.783,0.984-1.777,1.414-2.981L1016.903,92.424z M1010.673,92.285
		c0.579,0.756,1.111,1.549,1.597,2.38l-0.91,0.462c-0.514-0.915-1.05-1.713-1.61-2.394L1010.673,92.285z"/>
</g>
<g id="_编组__6_">
	<g id="_编组_2_2_">
		<path id="_复合路径__2_" class="st1" d="M382,106.667v8l7,4l7-4v-8l-7-4L382,106.667z M388,115.797l-4-2.29v-3.7l4,2.29
			V115.797z M394,113.507l-4,2.29v-3.7l4-2.29V113.507z M389,110.367l-4.72-2.7l4.72-2.7l4.72,2.7L389,110.367z M401,117.507
			l-12,6.86l-12-6.86v-13.68l12-6.86l12,6.86l0,0l2-1.16l-14-8l-14,8v16l14,8l14-8v-12l-2,1.14V117.507z"/>
	</g>
</g>
<path id="XMLID_1_" class="st1" d="M542.833,49.083l-6-3.1v-0.9h-2v0.9l-6,3.1v1.3l0,0l5,3v-1.3l-3.8-2.3l5.3-2.7h1l5.5,3v3.9l1,0.4
	V49.083L542.833,49.083z M537.833,52.983v1.3l3.9,2.3l-4.9,2.7v-0.2h-2v0.2l-5-2.7v-4.5l-1-0.5v5.5l0,0l6,3.2v0.8h2v-0.8l6-3.3v-1.1
	l-0.3-0.2L537.833,52.983z M536.833,51.083h-2v5h2V51.083z"/>
<g>
	<rect id="XMLID_20_" x="932.75" y="89.25" class="st1" width="2" height="4"/>
	<path id="XMLID_118_" class="st1" d="M937.75,111.25c-7.18,0-13-5.82-13-13s5.82-13,13-13c6.498,0,11.866,4.772,12.831,11h2.021
		c-0.98-7.336-7.247-13-14.851-13c-8.284,0-15,6.716-15,15s6.716,15,15,15c7.604,0,13.871-5.664,14.851-13h-2.021
		C949.616,106.478,944.248,111.25,937.75,111.25z"/>
	<rect id="XMLID_19_" x="929.75" y="93.25" class="st1" width="16" height="2"/>
	<rect id="XMLID_18_" x="929.75" y="104.25" class="st1" width="16" height="2"/>
	<rect id="XMLID_17_" x="943.75" y="103.25" class="st1" width="2" height="3"/>
	<rect id="XMLID_16_" x="943.75" y="93.25" class="st1" width="2" height="3"/>
	<rect id="XMLID_15_" x="929.75" y="93.25" class="st1" width="2" height="3"/>
	<rect id="XMLID_14_" x="929.75" y="103.125" class="st1" width="2" height="3"/>
	<rect id="XMLID_13_" x="940.75" y="89.25" class="st1" width="2" height="4"/>
	<g>
		<rect id="XMLID_12_" x="936.75" y="99.928" class="st1" width="2" height="2"/>
		<rect id="XMLID_11_" x="935.75" y="100.928" class="st1" width="2" height="1"/>
		<rect id="XMLID_10_" x="935.75" y="96.928" class="st1" width="2" height="1"/>
		<path id="XMLID_9_" class="st1" d="M935.25,101.928h0.5v-0.092v-2V99.02v-2v-0.092h-0.5c-0.828,0-1.5,0.672-1.5,1.5v2
			C933.75,101.256,934.421,101.928,935.25,101.928z"/>
	</g>
	<g>
		<rect id="XMLID_8_" x="931.55" y="100.928" class="st1" width="2" height="1"/>
		<rect id="XMLID_7_" x="931.55" y="96.928" class="st1" width="2" height="1"/>
		<path id="XMLID_2_" class="st1" d="M931.05,101.928h0.5v-0.092v-2V99.02v-2v-0.092h-0.5c-0.828,0-1.5,0.672-1.5,1.5v2
			C929.55,101.256,930.221,101.928,931.05,101.928z"/>
	</g>
	<rect x="941.782" y="96.977" class="st1" width="1.5" height="5"/>
	<rect x="939.183" y="96.977" class="st1" width="1.8" height="5"/>
	<rect x="940.883" y="100.977" class="st1" width="2.6" height="1"/>
	<rect x="944.08" y="96.977" class="st1" width="1.8" height="5"/>
	<rect x="943.033" y="100.977" class="st1" width="2.8" height="1"/>
</g>
<g>
	<path class="st4" d="M759.403,93.337h1.26l3.122,8.75h0.042l3.122-8.75h1.26l-3.695,9.996H763.1L759.403,93.337z"/>
	<path class="st4" d="M769.287,93.337h4.088c2.296,0,3.444,0.98,3.444,2.94c0,1.979-1.153,2.968-3.458,2.968h-2.927v4.088h-1.147
		V93.337z M770.435,94.331v3.92h2.87c0.794,0,1.391-0.163,1.792-0.49c0.383-0.326,0.574-0.821,0.574-1.483
		c0-0.682-0.196-1.167-0.588-1.456c-0.383-0.327-0.976-0.49-1.778-0.49H770.435z"/>
	<path class="st4" d="M778.275,93.337h1.204l5.656,8.134h0.042v-8.134h1.147v9.996h-1.176l-5.684-8.218h-0.043v8.218h-1.147V93.337z
		"/>
	<path class="st4" d="M797.287,104.481c-0.477,0-1.312-0.01-2.506-0.028c-0.915-0.019-1.652-0.103-2.212-0.252
		c-0.561-0.168-1.06-0.509-1.498-1.022c-0.196-0.232-0.378-0.35-0.546-0.35c-0.336,0-0.892,0.644-1.666,1.932l-0.756-0.686
		c0.746-1.176,1.404-1.891,1.974-2.143v-4.256h-1.988v-0.924h2.926v5.236c0.121,0.093,0.238,0.2,0.351,0.321
		c0.336,0.402,0.7,0.696,1.092,0.883c0.448,0.195,1.087,0.308,1.918,0.336c0.989,0.019,1.913,0.027,2.772,0.027
		c0.42,0,1.087-0.009,2.002-0.027c0.756-0.02,1.273-0.038,1.554-0.057l-0.238,1.009H797.287z M789.097,92.119
		c0.971,0.728,1.783,1.456,2.437,2.184l-0.714,0.7c-0.598-0.709-1.4-1.451-2.408-2.226L789.097,92.119z M794.781,93.463
		c0.635,0.383,1.171,0.733,1.609,1.05c0.747-0.392,1.419-0.816,2.017-1.273h-6.216v-0.854h7.573v0.729
		c-0.84,0.728-1.75,1.357-2.729,1.89l0.224,0.182h2.772v6.259c0,0.719-0.393,1.078-1.176,1.078h-1.162l-0.225-0.854l1.106,0.042
		c0.336,0,0.504-0.158,0.504-0.476v-1.051h-2.353v2.408h-0.938v-2.408h-2.338v2.45h-0.952v-7.448h3.5
		c-0.541-0.382-1.152-0.756-1.834-1.119L794.781,93.463z M795.789,97.285v-1.26h-2.338v1.26H795.789z M793.451,98.125v1.232h2.338
		v-1.232H793.451z M799.079,97.285v-1.26h-2.353v1.26H799.079z M796.727,98.125v1.232h2.353v-1.232H796.727z"/>
	<path class="st4" d="M811.259,104.481c-0.457,0-1.283-0.01-2.478-0.028c-0.896-0.019-1.624-0.103-2.185-0.252
		c-0.551-0.168-1.04-0.509-1.47-1.022c-0.196-0.232-0.378-0.35-0.546-0.35c-0.336,0-0.9,0.639-1.694,1.918l-0.756-0.672
		c0.774-1.204,1.446-1.918,2.017-2.143v-4.256h-2.059v-0.924h2.996v5.236c0.103,0.074,0.215,0.182,0.336,0.321
		c0.336,0.402,0.695,0.696,1.078,0.883c0.438,0.195,1.068,0.308,1.89,0.336c0.971,0.019,1.881,0.027,2.73,0.027
		c0.429,0,1.101-0.009,2.016-0.027c0.766-0.02,1.288-0.038,1.568-0.057l-0.238,1.009H811.259z M803.097,92.119
		c0.971,0.728,1.783,1.456,2.437,2.184l-0.714,0.7c-0.598-0.709-1.4-1.451-2.408-2.226L803.097,92.119z M805.995,93.449h2.324
		c-0.225-0.438-0.477-0.845-0.756-1.218l0.938-0.351c0.336,0.485,0.621,1.008,0.854,1.568h1.651
		c0.364-0.551,0.663-1.083,0.896-1.597l0.979,0.337c-0.242,0.494-0.499,0.914-0.77,1.26h2.38v0.938h-3.92
		c-0.094,0.355-0.215,0.733-0.364,1.135h3.332v6.747h-6.636v-6.747h2.239c0.141-0.355,0.257-0.733,0.351-1.135h-3.5V93.449z
		 M807.857,97.523h4.731v-1.106h-4.731V97.523z M807.857,99.399h4.731v-1.064h-4.731V99.399z M812.589,101.373v-1.162h-4.731v1.162
		H812.589z"/>
</g>
</svg>
