<?xml version="1.0" encoding="utf-8"?>
<!-- Generator: Adobe Illustrator 22.1.0, SVG Export Plug-In . SVG Version: 6.00 Build 0)  -->
<svg version="1.1" id="svgwrapper_svg" xmlns="http://www.w3.org/2000/svg" xmlns:xlink="http://www.w3.org/1999/xlink" x="0px"
	 y="0px" width="723px" height="383.5px" viewBox="0 0 723 383.5" style="enable-background:new 0 0 723 383.5;"
	 xml:space="preserve">
<style type="text/css">
	.st0{display:none;fill:none;stroke:#999999;}
	.st1{fill:#EAEBEC;}
	.st2{enable-background:new    ;}
	.st3{fill:#444444;}
	.st4{fill:none;stroke:#888888;}
	.st5{fill:#888888;}
	.st6{fill:none;stroke:#FF0000;stroke-width:15;stroke-opacity:0;}
	.st7{opacity:0.6;fill:#BBBBBB;enable-background:new    ;}
	.st8{fill:#FFFFFF;stroke:#E5E5E5;}
	.st9{fill:#CEE3FF;fill-opacity:0;}
</style>
<path class="st0" d="M616.2,160.3L652,272"/>
<g id="bottomgroup" transform="translate(0,0)">
	<g id="GrayRectGroup1" transform="translate(9.166666666666671,20.33333333333333)">
		<rect x="-7.2" y="-18.8" class="st1" width="130" height="140"/>
		<g transform="translate(10 10)">
			<g class="st2">
				<path class="st3" d="M-6.1-3.6l-0.2-1c0.4,0,0.8,0.1,1.1,0.1c0.3,0,0.5-0.2,0.5-0.5v-3.4C-5.2-8.2-5.8-8-6.3-7.9l-0.2-1
					C-5.9-9-5.3-9.2-4.7-9.5v-3.2h-1.7v-1h1.7v-2.6h1v2.6h1.4v1h-1.4v2.7c0.4-0.2,0.8-0.4,1.2-0.6v1c-0.4,0.2-0.8,0.4-1.2,0.6v4.1
					c0,0.8-0.4,1.2-1.2,1.2H-6.1z M5.9-9.9V-9H2.4v1.6h2.9v0.9H2.4v1.8c0.6,0.1,1.2,0.1,2,0.1c0.7,0,1.4,0,1.9-0.1L6-3.7
					c-0.6,0-1.1,0-1.5,0c-1.8,0-3.1-0.2-3.8-0.5c-0.5-0.3-1-0.8-1.4-1.6C-1.1-5-1.6-4.2-2.2-3.5l-0.7-0.6c1.1-1.3,1.7-2.7,1.8-4.3
					l0.9,0.1c0,0.5-0.1,1-0.2,1.5C0-6,0.5-5.4,1.1-5.1C1.2-5,1.3-5,1.4-5V-9h-3.5v-0.9H5.9z M5-15.8v4.9h-6.1v-4.9H5z M4-13.7V-15
					h-4.1v1.2H4z M4-13h-4.1v1.2H4V-13z"/>
				<path class="st3" d="M13.3-7.9V-9h1v1.1h5.5V-7h-4.6c1,1,2.6,1.7,4.7,2.3l-0.4,0.9c-2.4-0.8-4.2-1.8-5.2-3.1v3.5h-1V-7
					c-0.9,1.3-2.6,2.4-5.1,3.3L7.7-4.7C10-5.4,11.6-6.1,12.5-7H7.8v-0.9H13.3z M13.8-13.8c-0.3,0.3-0.5,0.6-0.7,0.9h6.3v0.8h-2.4
					c-0.5,0.7-1,1.2-1.6,1.6c1.2,0.3,2.5,0.7,3.8,1.1l-0.6,0.8c-1.4-0.5-2.8-0.9-4.2-1.3C13-9.1,11.1-8.8,8.7-8.8L8.1-9.6
					c2.1,0,3.8-0.2,5-0.6c-1-0.3-1.9-0.5-2.9-0.6c0.4-0.4,0.7-0.8,1.1-1.2h-3v-0.8H12c0.3-0.4,0.6-0.8,0.9-1.2L13.8-13.8z
					 M19.5-13.2h-1v-1.1H9.2v1.1h-1v-2h5.2c-0.2-0.4-0.4-0.7-0.6-1l1.1-0.2c0.2,0.3,0.4,0.7,0.5,1.2h5.1V-13.2z M16-12h-3.6
					c-0.3,0.3-0.5,0.6-0.7,0.8c0.9,0.1,1.7,0.3,2.6,0.5C15-11.1,15.6-11.5,16-12z"/>
			</g>
		</g>
	</g>
	<g id="GrayRectGroup5" transform="translate(173.16666666666669,20.33333333333333)">
		<rect x="-7.2" y="-18.8" class="st1" width="130" height="140"/>
		<g transform="translate(10 10)">
			<g class="st2">
				<path class="st3" d="M-6.1-3.6l-0.2-1c0.4,0,0.7,0.1,1.1,0.1c0.4,0,0.6-0.2,0.6-0.6v-3.4c-0.6,0.2-1.1,0.5-1.7,0.7l-0.3-1
					C-6-9-5.3-9.3-4.7-9.5v-3.2h-1.7v-1h1.7v-2.6h1v2.6h1.6v1h-1.6v2.7c0.5-0.3,1-0.5,1.5-0.8v1c-0.5,0.3-1,0.6-1.5,0.8v4.1
					c0,0.8-0.4,1.3-1.2,1.3H-6.1z M5.1-10.3v0.9C4.7-8,3.9-6.9,2.9-6C3.9-5.3,5-4.7,6.4-4.3L5.8-3.4C4.4-4,3.2-4.6,2.2-5.3
					c-1.1,0.8-2.4,1.5-4,2l-0.5-0.9C-0.9-4.7,0.4-5.3,1.4-6C0.3-7-0.4-8.1-0.8-9.3h-0.8v-1H5.1z M4.2-15.7v3c0,0.3,0.2,0.5,0.6,0.5
					h1.2v0.9H4.5c-0.9,0-1.3-0.4-1.3-1.2v-2.3H0.5v0.8c0,1.3-0.6,2.3-1.9,3.1l-0.7-0.8c1.1-0.5,1.6-1.2,1.6-2.2v-1.9H4.2z M2.1-6.6
					c0.9-0.8,1.5-1.7,2-2.7H0.2C0.5-8.3,1.2-7.4,2.1-6.6z"/>
				<path class="st3" d="M10.3-14.2c-0.3-0.7-0.6-1.3-0.9-1.9l1-0.3c0.4,0.8,0.7,1.6,0.9,2.2h2.1v1H10v1.3c0,0.3,0,0.5,0,0.8h2.7
					c0,3.4-0.1,5.5-0.2,6.3c-0.1,0.8-0.7,1.2-1.7,1.2c-0.2,0-0.5,0-1-0.1L9.6-4.6c0.4,0,0.7,0,1.1,0c0.5,0,0.8-0.2,0.9-0.7
					c0.1-0.5,0.2-2.2,0.2-5H9.9c-0.2,3-0.8,5.2-1.8,6.7L7.3-4.1C8.5-5.8,9-8.3,9.1-11.9v-1.3H7.6v-1H10.3z M13.6-9.9L13-10.7
					c1.1-1.4,1.8-3.3,2.2-5.7l1,0.2c-0.1,0.7-0.3,1.4-0.5,2h4.1v1h-1c-0.1,2.4-0.6,4.4-1.6,6c0.9,1.3,1.9,2.2,3.1,2.9l-0.6,0.9
					c-1.2-0.7-2.3-1.7-3.1-2.9c-0.8,1.1-1.9,2.1-3.2,2.8l-0.6-0.9c1.3-0.7,2.4-1.7,3.2-2.8c-0.7-1.1-1.2-2.4-1.7-3.8
					C14.2-10.6,13.9-10.3,13.6-9.9z M15-12.1c0.4,1.5,1,2.9,1.6,4c0.8-1.4,1.2-3.2,1.3-5.1h-2.4C15.3-12.8,15.2-12.4,15-12.1z"/>
			</g>
		</g>
	</g>
	<g id="GrayRectGroup9" transform="translate(336.1666666666667,20.33333333333333)">
		<rect x="-7.2" y="-18.8" class="st1" width="130" height="140"/>
		<g transform="translate(10 10)">
			<g class="st2">
				<path class="st3" d="M0.7-4.8c-2.2,0.4-4.5,0.8-7,1.1l-0.2-1C-5.3-4.7-4.2-4.9-3.2-5v-2.6h-2.7v-1h2.7v-1.6h1v1.6h2.5v1h-2.5
					v2.5c1-0.2,2-0.4,2.9-0.6V-4.8z M0.7-15.7v1h-3.6c-0.7,1.4-1.3,2.5-1.9,3.2c1.4-0.1,2.7-0.3,4-0.5c-0.3-0.5-0.7-1-1-1.5l0.8-0.5
					c0.9,1.3,1.7,2.4,2.2,3.3l-0.8,0.6c-0.2-0.4-0.4-0.7-0.6-1.1c-1.8,0.3-3.7,0.6-5.8,0.8l-0.2-0.9c0.2,0,0.3-0.1,0.4-0.1
					c0.6-0.5,1.3-1.6,2.1-3.2h-2.3v-1H0.7z M2.8-15v8.7h-1V-15H2.8z M2.3-3.6l-0.2-1c0.7,0,1.3,0.1,1.9,0.1c0.4,0,0.6-0.2,0.6-0.6
					v-11.1h1v11.4c0,0.9-0.4,1.3-1.3,1.3H2.3z"/>
				<path class="st3" d="M14.5-3.7c-1,0-1.7-0.1-2.3-0.3c-0.6-0.2-1.1-0.5-1.5-1c-0.2-0.2-0.4-0.3-0.6-0.3c-0.3,0-0.9,0.6-1.7,2
					L7.6-4C8.3-5.3,9-6,9.6-6.2v-4.2h-2v-1h3v5.3c0.1,0.1,0.2,0.2,0.4,0.3c0.4,0.4,0.7,0.7,1.1,0.9c0.4,0.2,1.1,0.3,2,0.3
					c0.8,0,1.7,0,2.9,0c0.6,0,1.2,0,1.9,0c0.6,0,1.1,0,1.5-0.1l-0.3,1h-3C16.3-3.7,15.4-3.7,14.5-3.7z M11-13.9l-0.7,0.7
					c-0.6-0.7-1.4-1.4-2.4-2.2l0.7-0.7C9.5-15.3,10.3-14.6,11-13.9z M14.9-13.2c0.1-0.7,0.1-1.5,0.1-2.3v-0.9h1v0.6
					c0,0.9-0.1,1.7-0.1,2.5h3.6v1h-3.7c-0.1,0.4-0.1,0.7-0.2,1.1c1.3,1.1,2.7,2.6,4.3,4.6l-0.7,0.7c-1.3-1.7-2.6-3.1-3.9-4.3
					c-0.7,1.9-1.7,3.3-3.2,4.3l-0.6-0.8c1.7-1.1,2.9-2.9,3.3-5.5h-3v-1H14.9z"/>
			</g>
		</g>
	</g>
	<g id="GrayRectGroup13" transform="translate(502.16666666666674,20.33333333333333)">
		<rect x="-7.2" y="-18.8" class="st1" width="228" height="140"/>
		<g transform="translate(10 10)">
			<g class="st2">
				<path class="st3" d="M-3.9-6.6C-4.4-5.4-5-4.4-5.7-3.5l-0.8-0.6c0.7-0.8,1.3-1.8,1.8-3L-3.9-6.6z M0.1-16.2v1.4h5.4v1H0.1v1.8
					h4.5v4.5h-9.3v-4.5h3.8v-4.1H0.1z M3.6-11.2h-7.3v2.6h7.3V-11.2z M-0.9-3.6l-1,0.2c-0.2-1.1-0.4-2.2-0.7-3l0.9-0.2
					C-1.4-5.7-1.1-4.7-0.9-3.6z M2.3-3.7l-1,0.2C1.1-4.6,0.7-5.7,0.3-6.6l1-0.2C1.7-5.8,2-4.8,2.3-3.7z M6.2-4L5.3-3.4
					c-0.5-1-1.2-2-2-3.1l0.8-0.5C5-5.9,5.7-4.9,6.2-4z"/>
				<path class="st3" d="M13.3-14.2v-2h1v2h4.5v1h-4.5v2.3H20v1h-5.7V-5h3.3v-3.7h1v5.3h-1V-4H10v0.6h-1v-5.3h1V-5h3.3v-4.9H7.7v-1
					h5.7v-2.3H8.7v-1H13.3z"/>
			</g>
		</g>
	</g>
	<g id="GrayRectGroup26" transform="translate(551.1666666666667,262.3333333333333)">
		<rect x="-7.2" y="-18.8" class="st1" width="130" height="140"/>
		<g transform="translate(10 10)">
			<g class="st2">
				<path class="st3" d="M-3.4-10.7L-4.1-10c-0.6-0.6-1.3-1.3-2.3-2.1l0.7-0.7C-4.8-12.1-4-11.4-3.4-10.7z M-3-8.5
					c-0.6,1.8-1.3,3.4-2.1,5l-1-0.4c0.8-1.6,1.6-3.2,2.2-4.9L-3-8.5z M-2.9-14l-0.7,0.7c-0.6-0.7-1.4-1.4-2.5-2.1l0.7-0.7
					C-4.4-15.4-3.6-14.7-2.9-14z M1.4-13.9c-0.3-0.8-0.6-1.5-1-2.2l1-0.3c0.4,0.8,0.7,1.5,0.9,2.2l-0.6,0.2h4.2v1H2.3v3.4h3.2v1H2.3
					v3.7h3.9v1h-8.9v-1h4v-3.7H-2v-1h3.2v-3.4h-3.6v-1H1.4z"/>
				<path class="st3" d="M9.1-10.7v-5h4v5h1.6v-5h4v5h1.5v1h-1.5v5c0,0.8-0.4,1.1-1.2,1.1h-1.3l-0.3-1c0.4,0,0.9,0,1.3,0
					c0.4,0,0.5-0.2,0.5-0.6v-4.6h-2V-9c0,2.3-0.4,4.1-1.3,5.6l-0.7-0.7c0.7-1.3,1-2.9,1.1-4.8v-0.8h-1.6v5c0,0.8-0.4,1.2-1.1,1.2
					h-1.3l-0.3-1c0.4,0,0.9,0,1.3,0c0.3,0,0.4-0.2,0.4-0.6v-4.6h-2V-9c0,2.3-0.5,4.2-1.4,5.6L7.9-4.1C8.7-5.4,9.1-7,9.1-9v-0.8H7.5
					v-1H9.1z M12.1-14.8h-2v4.1h2V-14.8z M17.7-14.8h-2v4.1h2V-14.8z"/>
			</g>
		</g>
	</g>
	<g id="GrayRectGroup32" transform="translate(362.16666666666674,262.3333333333333)">
		<rect x="-7.2" y="-18.8" class="st1" width="130" height="140"/>
		<g transform="translate(10 10)">
			<g class="st2">
				<path class="st3" d="M0.3-3.7c-0.9,0-1.6-0.1-2.2-0.3c-0.5-0.2-1-0.5-1.5-1c-0.2-0.2-0.4-0.3-0.5-0.3c-0.3,0-0.9,0.6-1.7,1.9
					l-0.8-0.7c0.7-1.2,1.4-1.9,2-2.1v-4.3h-2v-0.9h2.9v5.2C-3.3-6.1-3.1-6-3-5.9C-2.7-5.4-2.3-5.2-2-5c0.4,0.2,1.1,0.3,1.9,0.3
					c0.7,0,1.6,0,2.7,0c0.7,0,1.3,0,2,0c0.7,0,1.2,0,1.6-0.1L6-3.7H2.8C2-3.7,1.2-3.7,0.3-3.7z M-3-13.9l-0.7,0.7
					c-0.6-0.7-1.3-1.4-2.3-2.2l0.7-0.7C-4.4-15.3-3.6-14.6-3-13.9z M-0.4-14.1v-2.2h1v2.2h2.2v-2.2h1v2.2h1.8v0.9H3.8v2.8H6v1H3.8v4
					h-1v-4H0.3c-0.4,1.7-1.1,2.9-2.2,3.7l-0.6-0.8C-1.6-7.1-1-8.1-0.7-9.4h-1.8v-1h2c0.1-0.5,0.1-1.1,0.1-1.7v-1.1H-2v-0.9H-0.4z
					 M0.6-12.2c0,0.7,0,1.3-0.1,1.9h2.3v-2.8H0.6V-12.2z"/>
				<path class="st3" d="M11.5-15.9c-0.4,1.1-0.8,2.2-1.4,3.2v9.4h-1v-7.8C8.6-10.6,8.1-10,7.6-9.5l-0.3-1.1
					c1.5-1.7,2.5-3.6,3.2-5.8L11.5-15.9z M13.9-15.3c-0.1,0.7-0.3,1.4-0.5,2h2.1v-2.9h1v2.9h3.2v1h-3.2V-9h3.7v1h-3.7v4.5h-1V-8
					h-4.1v-1h4.1v-3.4h-2.4c-0.4,0.9-0.8,1.8-1.3,2.5l-0.6-0.8c0.9-1.3,1.4-2.9,1.7-4.7L13.9-15.3z"/>
			</g>
		</g>
	</g>
	<g id="GrayRectGroup36" transform="translate(158.16666666666674,262.3333333333333)">
		<rect x="-7.2" y="-18.8" class="st1" width="146" height="140"/>
		<g transform="translate(10 10)">
			<g class="st2">
				<path class="st3" d="M-6.1-3.6l-0.2-1c0.4,0,0.7,0.1,1.1,0.1c0.3,0,0.4-0.1,0.4-0.4v-3.5C-5.4-8.2-5.8-8-6.3-7.9l-0.2-1
					C-6-9-5.4-9.2-4.9-9.4v-3.4h-1.6v-1h1.6v-2.6h1v2.6h1.3v1h-1.3v2.9c0.4-0.2,0.8-0.4,1.2-0.6v1C-3.1-9.2-3.5-9-3.9-8.8v4.2
					c0,0.7-0.4,1-1,1H-6.1z M5.9-9.3H5.1v0.6C4.6-7.6,3.8-6.6,2.8-5.8c1,0.6,2.1,1.1,3.5,1.5L5.7-3.5c-1.5-0.5-2.8-1-3.8-1.7
					C0.7-4.5-0.7-3.9-2.3-3.5l-0.5-0.9C-1.3-4.8,0-5.3,1-5.8c-1-0.8-1.6-1.8-2-2.8h-0.6v-0.6h-0.7V-12h5.4c0.5-0.8,1-1.7,1.3-2.7
					l0.9,0.4c-0.4,0.9-0.8,1.7-1.2,2.3h1.7V-9.3z M5.8-15.4c-2,0.4-4.6,0.6-7.9,0.6l-0.3-0.9c3.1,0,5.7-0.2,7.7-0.5L5.8-15.4z
					 M0.1-12.6l-0.8,0.3C-1-13-1.3-13.6-1.7-14.2l0.9-0.2C-0.4-13.8-0.1-13.2,0.1-12.6z M4.9-9.6V-11h-6.2v1.4H4.9z M1.9-6.4
					C2.8-7,3.6-7.8,4.1-8.7H0C0.4-7.8,1-7.1,1.9-6.4z M2.5-12.6l-0.8,0.3c-0.3-0.7-0.6-1.3-1-1.9l0.9-0.2C2-13.8,2.3-13.2,2.5-12.6z
					"/>
				<path class="st3" d="M7.6-9.5l-0.3-1.1c1.4-1.7,2.4-3.6,3-5.8l0.9,0.4c-0.3,1.1-0.7,2.1-1.2,3v9.5H9v-7.9
					C8.6-10.7,8.1-10.1,7.6-9.5z M15.5-14.4c-0.2-0.6-0.4-1.1-0.7-1.6l1-0.3c0.3,0.6,0.5,1.2,0.7,1.7l-0.5,0.2h4.4v1h-9.1v-1H15.5z
					 M19.3-3.4h-1v-0.8h-5.2v0.8h-1v-4.9h7.1V-3.4z M19.1-12.3v0.9h-6.6v-0.9H19.1z M19.1-10.4v0.9h-6.6v-0.9H19.1z M18.3-5.1v-2.2
					h-5.2v2.2H18.3z"/>
				<path class="st3" d="M33.7-16.4c-0.6,0.9-1,1.9-1.3,2.9c-0.4,1.2-0.6,2.4-0.6,3.6c0,1.2,0.2,2.4,0.6,3.6c0.3,1,0.8,2,1.3,2.9h-1
					c-0.6-0.9-1.1-1.9-1.4-2.9c-0.4-1.2-0.6-2.4-0.6-3.6c0-1.2,0.2-2.5,0.6-3.7c0.4-1,0.8-2,1.4-2.9H33.7z"/>
				<path class="st3" d="M48.1-15.4v1h-1.8v9.5c0,0.9-0.4,1.4-1.3,1.4h-2.3l-0.2-1c0.8,0,1.5,0.1,2.2,0.1c0.4,0,0.7-0.3,0.7-0.7
					v-9.3h-9.6v-1H48.1z M42.7-7.2h-4.5v1.2h-1v-6.4h5.4V-7.2z M41.7-8.1v-3.3h-3.5v3.3H41.7z"/>
				<path class="st3" d="M56.2-3.7c-0.9,0-1.6-0.1-2.2-0.3c-0.5-0.2-1-0.5-1.5-1c-0.2-0.2-0.4-0.3-0.5-0.3c-0.4,0-0.9,0.6-1.7,2
					l-0.8-0.7c0.8-1.2,1.4-1.9,2-2.2v-4.3h-2v-0.9h2.9v5.2c0.1,0.1,0.2,0.2,0.3,0.3c0.3,0.4,0.7,0.7,1.1,0.9
					c0.4,0.2,1.1,0.3,1.9,0.3c0.7,0,1.7,0,2.7,0c0.7,0,1.4,0,2.1,0c0.7,0,1.2,0,1.6-0.1l-0.3,1h-3.2C58-3.7,57.1-3.7,56.2-3.7z
					 M53-13.9l-0.7,0.7c-0.6-0.7-1.4-1.4-2.4-2.2l0.7-0.7C51.5-15.3,52.3-14.6,53-13.9z M58.5-16.3v1.8h2.8v1h-2.8v2h3.3v1h-2.4v3.8
					c0,0.3,0.1,0.4,0.4,0.4h0.5c0.2,0,0.3,0,0.4-0.1c0.2-0.1,0.3-0.7,0.3-1.7l0.9,0.3c-0.1,1.2-0.2,1.8-0.4,2.1
					c-0.2,0.2-0.5,0.3-1,0.3h-1c-0.4,0-0.6-0.1-0.8-0.3c-0.2-0.2-0.3-0.4-0.3-0.8v-4h-1.4c0,1-0.2,1.8-0.4,2.5
					c-0.4,1.1-1.2,1.9-2.5,2.6l-0.7-0.8c1.1-0.6,1.9-1.3,2.2-2.1c0.2-0.6,0.4-1.4,0.4-2.2h-2.3v-1h3.6v-2h-2.3
					c-0.3,0.5-0.5,1-0.8,1.5l-0.9-0.5c0.8-1.1,1.3-2.2,1.6-3.5l1,0.2c-0.1,0.5-0.3,1-0.5,1.4h1.8v-1.8H58.5z"/>
				<path class="st3" d="M64.9-16.4c0.6,0.9,1.1,1.9,1.4,2.9c0.4,1.2,0.6,2.4,0.6,3.7c0,1.2-0.2,2.4-0.6,3.6c-0.4,1-0.8,2-1.4,2.9
					h-1c0.6-0.9,1-1.9,1.3-2.9c0.4-1.2,0.6-2.5,0.6-3.6c0-1.2-0.2-2.4-0.6-3.6c-0.3-1-0.8-2-1.3-2.9H64.9z"/>
			</g>
		</g>
	</g>
</g>
<g id="middlegroup" transform="translate(0,0)">
	<g id="Link23" transform="translate(0,0)">
		<path class="st4" d="M132.3,71.7h14l0,0h15"/>
		<g transform="translate(0.5, 0)">
			<polygon class="st5" points="156.3,76.2 162.3,71.7 156.3,67.2 			"/>
		</g>
		<path class="st6" d="M132.3,71.7h14"/>
		<path class="st6" d="M146.3,71.7L146.3,71.7"/>
		<path class="st6" d="M146.3,71.7h15"/>
	</g>
	<g id="Link24" transform="translate(0,0)">
		<path class="st4" d="M296.3,71.7h14l0,0h14"/>
		<g transform="translate(0.5, 0)">
			<polygon class="st5" points="319.3,76.2 325.3,71.7 319.3,67.2 			"/>
		</g>
		<path class="st6" d="M296.3,71.7h14"/>
		<path class="st6" d="M310.3,71.7L310.3,71.7"/>
		<path class="st6" d="M310.3,71.7h14"/>
	</g>
	<g id="Link25" transform="translate(0,0)">
		<path class="st4" d="M459.3,71.7h15l0,0h16"/>
		<g transform="translate(0.5, 0)">
			<polygon class="st5" points="485.3,76.2 491.3,71.7 485.3,67.2 			"/>
		</g>
		<path class="st6" d="M459.3,71.7h15"/>
		<path class="st6" d="M474.3,71.7L474.3,71.7"/>
		<path class="st6" d="M474.3,71.7h16"/>
	</g>
	<g id="Link43" transform="translate(0,0)">
		<path class="st4" d="M151.3,313.7h-24l0,0h-23"/>
		<g transform="translate(-0.5, 0)">
			<polygon class="st5" points="109.3,309.2 103.3,313.7 109.3,318.2 			"/>
		</g>
		<path class="st6" d="M151.3,313.7h-24"/>
		<path class="st6" d="M127.3,313.7L127.3,313.7"/>
		<path class="st6" d="M127.3,313.7h-23"/>
	</g>
	<g id="Link41" transform="translate(0,0)">
		<path class="st4" d="M355.3,313.7h-27l0,0h-26"/>
		<g transform="translate(-0.5, 0)">
			<polygon class="st5" points="307.3,309.2 301.3,313.7 307.3,318.2 			"/>
		</g>
		<path class="st6" d="M355.3,313.7h-27"/>
		<path class="st6" d="M328.3,313.7L328.3,313.7"/>
		<path class="st6" d="M328.3,313.7h-26"/>
	</g>
	<g id="Link40" transform="translate(0,0)">
		<path class="st4" d="M544.3,313.7h-27l0,0h-27"/>
		<g transform="translate(-0.5, 0)">
			<polygon class="st5" points="495.3,309.2 489.3,313.7 495.3,318.2 			"/>
		</g>
		<path class="st6" d="M544.3,313.7h-27"/>
		<path class="st6" d="M517.3,313.7L517.3,313.7"/>
		<path class="st6" d="M517.3,313.7h-27"/>
	</g>
	<g id="Link44" transform="translate(0,0)">
		<path class="st4" d="M609.3,141.7v48l0,0v48"/>
		<g transform="translate(0, 0.5)">
			<polygon class="st5" points="604.8,232.7 609.3,238.7 613.8,232.7 			"/>
		</g>
		<path class="st6" d="M609.3,141.7v48"/>
		<path class="st6" d="M609.3,189.7L609.3,189.7"/>
		<path class="st6" d="M609.3,189.7v48"/>
	</g>
</g>
<g id="maingroup" transform="translate(0,0)">
	<g id="RectEndPoint2" transform="translate(26.16666666666667,62.333333333333314)">
		<rect x="-5.2" y="-16.8" class="st7" width="96" height="82"/>
		<rect x="-7.2" y="-18.8" class="st8" width="96" height="82"/>
		<g transform="translate(20 9)">
		</g>
	</g>
	<g id="RectEndPoint6" transform="translate(190.16666666666669,62.333333333333314)">
		<rect x="-5.2" y="-16.8" class="st7" width="96" height="82"/>
		<rect x="-7.2" y="-18.8" class="st8" width="96" height="82"/>
		<g transform="translate(20 9)">
		</g>
	</g>
	<g id="RectEndPoint10" transform="translate(353.1666666666667,62.333333333333314)">
		<rect x="-5.2" y="-16.8" class="st7" width="96" height="82"/>
		<rect x="-7.2" y="-18.8" class="st8" width="96" height="82"/>
		<g transform="translate(20 9)">
		</g>
	</g>
	<g id="RectEndPoint14" transform="translate(516.1666666666667,62.333333333333314)">
		<rect x="-5.2" y="-16.8" class="st7" width="96" height="82"/>
		<rect x="-7.2" y="-18.8" class="st8" width="96" height="82"/>
		<g transform="translate(20 9)">
		</g>
	</g>
	<g id="RectEndPoint17" transform="translate(620.1666666666667,62.333333333333314)">
		<rect x="-5.2" y="-16.8" class="st7" width="96" height="82"/>
		<rect x="-7.2" y="-18.8" class="st8" width="96" height="82"/>
		<g transform="translate(20 9)">
		</g>
	</g>
	<g id="RectEndPoint27" transform="translate(568.1666666666667,303.3333333333333)">
		<rect x="-5.2" y="-16.8" class="st7" width="96" height="82"/>
		<rect x="-7.2" y="-18.8" class="st8" width="96" height="82"/>
		<g transform="translate(20 9)">
		</g>
	</g>
	<g id="RectEndPoint33" transform="translate(379.16666666666674,305.3333333333333)">
		<rect x="-5.2" y="-16.8" class="st7" width="96" height="82"/>
		<rect x="-7.2" y="-18.8" class="st8" width="96" height="82"/>
		<g transform="translate(20 9)">
		</g>
	</g>
	<g id="RectEndPoint37" transform="translate(173.16666666666674,305.3333333333333)">
		<rect x="-5.2" y="-16.8" class="st7" width="111" height="81"/>
		<rect x="-7.2" y="-18.8" class="st8" width="111" height="81"/>
		<g transform="translate(20 9)">
		</g>
	</g>
	<g id="RectEndPoint42" transform="translate(9.166666666666671,307.3333333333333)">
		<rect x="-5.2" y="-16.8" class="st7" width="97" height="50"/>
		<rect x="-7.2" y="-18.8" class="st8" width="97" height="50"/>
		<g transform="translate(33.5,12)">
			<g class="st2">
				<path class="st3" d="M-1.5-5.4c-0.5,0.6-1,1.2-1.5,1.6c0.7,1.2,1,2.6,1,4.3c0,1.2-0.2,2.1-0.5,2.6c-0.3,0.3-0.7,0.4-1.2,0.4
					c-0.6,0-1,0-1.3,0l-0.3-0.9c0.4,0,0.9,0.1,1.4,0.1c0.4,0,0.6-0.1,0.7-0.4C-3.1,2-3,1.4-3,0.4C-3,0-3-0.4-3-0.8
					C-3.8,0-4.7,0.6-5.8,1.1l-0.5-0.8C-5-0.3-4-1-3.2-1.9c-0.1-0.5-0.3-0.9-0.5-1.3C-4.4-2.7-5.1-2.3-6-1.9l-0.5-0.8
					C-5.7-3.1-5-3.5-4.3-4c-0.4-0.5-0.9-0.9-1.5-1.3l0.7-0.6C-4.5-5.5-4-5.1-3.6-4.6C-3.2-5-2.8-5.4-2.4-5.9L-1.5-5.4z M-3-8.2v-1.1
					h1v1.1h3.7v-1.1h1v1.1H6v0.9H2.7v1h-1v-1H-2v1h-1v-1h-3.3v-0.9H-3z M1.6-3.5c0-1,0-1.8,0-2.3h1c0,0.7,0,1.4,0,2.3h3.2v1H2.7
					c0.6,2.3,1.7,4,3.5,5.3L5.5,3.5C3.9,2.3,2.8,0.7,2.2-1.2C1.7,0.7,0.6,2.3-0.9,3.6l-0.7-0.7c1.8-1.5,2.9-3.3,3.1-5.4h-2.8v-1H1.6
					z M5.6-4.3L4.9-3.8C4.5-4.4,3.9-5,3.3-5.6L4-6.1C4.7-5.4,5.2-4.9,5.6-4.3z"/>
				<path class="st3" d="M13.1-6.8c-0.2,0.3-0.4,0.6-0.6,0.9h5.2v0.8C17-4.3,16.2-3.6,15.1-3c1.5,0.6,3.2,1,5.1,1.1L20-0.9
					c-2.2-0.2-4.2-0.7-6-1.5c-1.7,0.8-3.7,1.3-6.3,1.8L7.4-1.6C9.7-1.9,11.5-2.4,13-3c-0.7-0.4-1.4-0.9-2-1.4
					c-0.5,0.5-1.1,0.9-1.8,1.3L8.7-3.9C10-4.7,11.2-5.7,12.1-7L13.1-6.8z M19.5-5.6h-1v-1.7H9.2v1.7h-1v-2.6h5.1
					c-0.2-0.4-0.3-0.7-0.5-1l1.1-0.2C14-9,14.2-8.6,14.4-8.2h5.2V-5.6z M18,3.6h-1V3h-6v0.6h-1v-4.4h8V3.6z M17,2.1v-2h-6v2H17z
					 M16.4-5h-4.7l0,0c0.7,0.6,1.6,1.1,2.4,1.6C15-3.9,15.8-4.4,16.4-5z"/>
			</g>
		</g>
	</g>
	<g id="RectEndPoint45" transform="translate(9.166666666666671,190)">
		<rect x="-5.2" y="-16.8" class="st7" width="595" height="49"/>
		<rect x="-7.2" y="-18.8" class="st8" width="595" height="49"/>
		<g transform="translate(101,11.5)">
			<g class="st2">
				<path class="st3" d="M0.8,1.2c1.6-0.7,2.8-1.6,3.7-2.9H0.3c-1.2,0.6-2.7,1-4.4,1.3l-0.6-0.9C-1.6-1.5,0.6-2.5,2.1-4l0.9,0.5
					c-0.3,0.3-0.7,0.7-1.1,1h3.8v0.8c-2,3.3-5.7,5-11.1,5.1l-0.4-1c2.2,0,4.1-0.3,5.7-0.8c-0.5-0.6-1-1.2-1.5-1.7l0.9-0.4
					C-0.2,0,0.3,0.6,0.8,1.2z M0.7-8.8C0.4-8.6,0.2-8.3-0.1-8h4v0.8C2.4-4.6-0.4-3-4.5-2.7L-5-3.6c1.3-0.1,2.4-0.3,3.4-0.6
					c-0.4-0.5-0.9-1-1.4-1.5l0.9-0.4c0.5,0.5,1,1,1.4,1.5C0.8-5.1,2-6,2.8-7.1h-4.1C-2.4-6.5-3.7-6-5.2-5.7l-0.6-0.9
					C-3.3-7.1-1.5-8-0.2-9.3L0.7-8.8z"/>
				<path class="st3" d="M9.4-4.2v-3H7.6v-1h4.5v1h-1.8v3h1.6v1h-1.6v3.3c0.6-0.2,1.3-0.4,1.9-0.7v1c-1.4,0.5-2.9,1-4.6,1.4l-0.3-1
					c0.7-0.1,1.3-0.3,1.9-0.4v-3.6H7.8v-1H9.4z M19.8-8.6v1h-2.5c-0.2,0.6-0.4,1.2-0.6,1.8v9.4h-1v-7.5c-0.8,1.4-1.8,2.6-3,3.7
					L12-1.1c2-1.8,3.5-4,4.3-6.6h-3.6v-1H19.8z M20.4-1l-0.8,0.6c-0.7-1.2-1.6-2.5-2.7-3.9l0.8-0.5C18.8-3.3,19.7-2.1,20.4-1z"/>
				<path class="st3" d="M25-7.9v-1.4h1v1.4h3.7v-1.4h1v1.4h3.2v1h-3.2v1.3h-1v-1.3H26v1.3h-1v-1.3h-3.2v-1H25z M22.4-3.9v-1h10.4
					c-0.1,2.3-0.1,3.7-0.2,4.2c-0.1,0.8-0.2,1.3-0.4,1.5c-0.3,0.3-0.7,0.4-1.3,0.4c-0.4,0-0.9,0-1.5,0l-0.3-1c0.5,0,1,0,1.5,0
					c0.4,0,0.6-0.1,0.8-0.3c0.2-0.2,0.3-0.7,0.3-1.4c0-0.4,0-1.2,0.1-2.5h-4.4v7.4h-1v-7.4H22.4z"/>
				<path class="st3" d="M39-1.3c0.3-0.6,0.6-1.3,0.8-2.1L40.7-3c-0.3,0.9-0.6,1.7-1,2.4c0.6,0.6,1.1,1.2,1.7,1.8L40.7,2
					c-0.5-0.6-1-1.1-1.5-1.7c-0.9,1.3-2,2.4-3.3,3.1l-0.6-0.9c1.3-0.7,2.4-1.7,3.2-3C37.9-1,37.3-1.5,36.7-2l0.6-0.7
					C37.9-2.3,38.5-1.8,39-1.3z M38.3-5.7c-0.6,1.3-1.3,2.4-2.1,3.3L35.4-3c0.8-0.9,1.5-1.9,2-3.2L38.3-5.7z M39.4-7.8h2.6v1h-6.5
					v-1h2.9c-0.2-0.5-0.4-1-0.7-1.4l1.1-0.2C39-8.9,39.2-8.4,39.4-7.8z M39.2-5.7l0.6-0.6c0.6,0.4,1.2,1.1,1.9,2l-0.7,0.7
					C40.5-4.4,39.8-5.1,39.2-5.7z M43.1-3.7c-0.3,0.5-0.5,1-0.8,1.4l-0.6-0.8c1-1.5,1.7-3.6,2-6.2l1,0.2c-0.1,0.8-0.3,1.5-0.4,2.2
					h3.9v1h-1.2c-0.1,2.2-0.6,4.1-1.5,5.7c0.8,1.3,1.8,2.3,2.9,3l-0.6,0.9c-1.1-0.7-2.1-1.7-2.9-3c-0.9,1.2-2,2.2-3.4,3l-0.6-0.9
					c1.5-0.8,2.6-1.8,3.5-3C43.8-1.4,43.4-2.5,43.1-3.7z M43.6-5c0.3,1.4,0.8,2.7,1.3,3.7C45.6-2.7,46-4.2,46-6h-2.1
					C43.8-5.7,43.7-5.4,43.6-5z"/>
				<path class="st3" d="M60.5-8.7v5.4h-4.1V-2h5.6v1h-4.7c1,1.3,2.7,2.4,5,3.4l-0.7,0.9c-2.4-1.3-4.1-2.7-5.1-4.3h-0.1v4.6h-1v-4.6
					h-0.1c-1.1,1.7-2.8,3.1-5.2,4.2l-0.6-0.9c2.3-0.9,3.9-2,5-3.3h-4.7v-1h5.6v-1.3h-4.2v-5.4H60.5z M55.3-6.4v-1.4h-3.2v1.4H55.3z
					 M55.3-5.5h-3.2v1.4h3.2V-5.5z M56.4-6.4h3.1v-1.4h-3.1V-6.4z M59.5-5.5h-3.1v1.4h3.1V-5.5z"/>
				<path class="st3" d="M63.6-2.5l-0.3-1c1.5-1.7,2.6-3.6,3.3-5.8l0.9,0.4c-0.3,1-0.8,2-1.3,2.9v9.5h-1v-8
					C64.8-3.7,64.2-3.1,63.6-2.5z M70.2-5.9c0-0.3,0-0.6,0-0.8v-2.5h1v2.5c0,0.3,0,0.6,0,0.8h4.7v1h-2.9V2c0,0.3,0.1,0.4,0.4,0.4
					h1.2c0.2,0,0.3-0.1,0.4-0.2c0.1-0.2,0.2-1,0.3-2.2l0.9,0.3c-0.1,1.5-0.3,2.4-0.4,2.7c-0.2,0.3-0.5,0.4-0.9,0.4h-1.7
					C72.3,3.3,72,3,72,2.2v-7.1h-0.9c-0.3,3.7-1.5,6.5-3.5,8.4l-0.7-0.6c1.9-1.7,3-4.3,3.3-7.8h-2.8v-1H70.2z M75.2-7.1l-0.7,0.7
					c-0.5-0.6-1.2-1.2-2.2-1.9L73-9C73.9-8.4,74.6-7.8,75.2-7.1z"/>
				<path class="st3" d="M82.6-8.9c-0.5,1.2-1.1,2.3-1.9,3.3v9.2h-1v-8c-0.6,0.7-1.3,1.3-2.1,2l-0.3-1.1c2-1.7,3.4-3.7,4.3-5.9
					L82.6-8.9z M85.5,3.3c-1,0-1.5-0.5-1.5-1.5v-4.3c-0.6,0.3-1.2,0.6-1.8,0.9l-0.4-1c0.8-0.4,1.5-0.7,2.3-1.2v-5.6h1v5
					c1.5-1,2.8-2.1,3.9-3.3l0.7,0.8C88.3-5.4,86.8-4.1,85-3v4.7c0,0.4,0.2,0.7,0.7,0.7H88c0.4,0,0.6-0.1,0.8-0.3
					c0.2-0.2,0.3-1,0.3-2.4L90-0.1c-0.1,1.6-0.3,2.6-0.5,2.9c-0.3,0.3-0.7,0.5-1.4,0.5H85.5z"/>
				<path class="st3" d="M94.2,0.9c0.2,0.3,0.3,0.6,0.3,1c0,0.6-0.2,1.2-0.5,1.6c-0.4,0.4-0.9,0.8-1.4,0.9V3.7
					c0.4-0.1,0.7-0.3,0.9-0.6c0.2-0.3,0.3-0.6,0.3-0.9c-0.1,0-0.2,0.1-0.3,0.1c-0.2,0-0.4-0.1-0.6-0.3c-0.2-0.2-0.3-0.4-0.3-0.6
					c0-0.3,0.1-0.5,0.3-0.6c0.2-0.2,0.4-0.2,0.7-0.2C93.7,0.5,94,0.6,94.2,0.9z"/>
				<path class="st3" d="M105.9,3.4l-0.2-1c0.4,0,0.8,0.1,1.1,0.1c0.3,0,0.5-0.2,0.5-0.5v-3.4c-0.5,0.2-1.1,0.4-1.6,0.6l-0.2-1
					c0.6-0.2,1.2-0.4,1.9-0.6v-3.2h-1.7v-1h1.7v-2.6h1v2.6h1.4v1h-1.4v2.7c0.4-0.2,0.8-0.4,1.2-0.6v1c-0.4,0.2-0.8,0.4-1.2,0.6v4.1
					c0,0.8-0.4,1.2-1.2,1.2H105.9z M117.9-2.9V-2h-3.5v1.6h2.9v0.9h-2.9v1.8c0.6,0.1,1.2,0.1,2,0.1c0.7,0,1.4,0,1.9-0.1l-0.3,1
					c-0.6,0-1.1,0-1.5,0c-1.8,0-3.1-0.2-3.8-0.5c-0.5-0.3-1-0.8-1.4-1.6c-0.3,0.9-0.8,1.7-1.4,2.4l-0.7-0.6c1.1-1.3,1.7-2.7,1.8-4.3
					l0.9,0.1c0,0.5-0.1,1-0.2,1.5c0.4,0.9,1,1.5,1.6,1.8c0.1,0,0.2,0.1,0.3,0.1V-2h-3.5v-0.9H117.9z M117-8.8v4.9h-6.1v-4.9H117z
					 M116-6.7V-8h-4.1v1.2H116z M116-6h-4.1v1.2h4.1V-6z"/>
				<path class="st3" d="M126.6-8.4c-0.8,0.4-1.7,0.7-2.5,0.9V-4h3.8v-5.2h1V-4h3.2v1h-3.2v6.5h-1V-3H124c-0.2,3-1.3,5.1-3.5,6.5
					l-0.8-0.7c2-1.3,3.1-3.2,3.2-5.9h-3.4v-1h3.4v-3.3c-0.9,0.2-1.8,0.3-2.8,0.4l-0.3-0.9c2.5-0.2,4.5-0.7,6.2-1.5L126.6-8.4z"/>
				<path class="st3" d="M146-3.8V-3h-6.3v4.4c0.3,0,0.6-0.1,0.8-0.1v0.8c-0.3,0-0.5,0.1-0.8,0.1v1.4h-1V2.4c-1.3,0.2-3,0.3-4.9,0.4
					l-0.1-0.9l1.3-0.1V-3h-1.3v-0.8H146z M144.3-8.8v4h-8.9v-4H144.3z M138.8-2V-3h-2.8V-2H138.8z M138.8-0.1v-1h-2.8v1H138.8z
					 M138.8,1.6v-1h-2.8v1.2C137,1.7,137.9,1.6,138.8,1.6z M143.3-7.1V-8h-6.9v0.9H143.3z M143.3-6.4h-6.9v0.9h6.9V-6.4z M140.5-1.2
					v-0.8h4.8v0.8c-0.3,1.1-0.7,2-1.4,2.8c0.6,0.5,1.3,0.9,2.2,1.2l-0.5,0.8c-0.9-0.4-1.7-0.9-2.3-1.4c-0.6,0.6-1.4,1-2.3,1.4
					l-0.5-0.8c0.8-0.4,1.6-0.8,2.2-1.3c-0.8-0.8-1.3-1.7-1.6-2.7H140.5z M144.3-1.2h-2.5c0.3,0.8,0.7,1.5,1.3,2.1
					C143.7,0.3,144.1-0.5,144.3-1.2z"/>
				<path class="st3" d="M150.7-9c-0.7,1.8-1.4,3.2-2.1,4.2c0.6-0.1,1.2-0.2,1.8-0.3c0.3-0.6,0.6-1.2,0.9-1.8l0.9,0.3
					c-1.2,2.5-2.3,4.4-3.1,5.4c0.8-0.2,1.6-0.4,2.4-0.8v0.9c-1.2,0.5-2.4,0.8-3.5,1l-0.3-0.9c0.2-0.1,0.3-0.2,0.4-0.3
					c0.5-0.6,1.1-1.5,1.9-2.9c-0.8,0.1-1.5,0.3-2.3,0.4l-0.2-0.9c0.2-0.1,0.3-0.2,0.4-0.4c0.8-1.3,1.4-2.7,2-4.3L150.7-9z M152,1.8
					c-1.3,0.5-2.8,0.9-4.4,1.2l-0.1-1.1c1.7-0.3,3.2-0.7,4.5-1.1V1.8z M155.6-9.2c-0.1,0.4-0.3,0.9-0.4,1.2h4v0.8
					c-0.6,1.1-1.3,2.1-2.2,3c1,0.7,2.1,1.3,3.3,1.8l-0.5,0.9c-1.3-0.6-2.5-1.3-3.5-2.1c-1.2,1-2.5,1.7-4,2.2l-0.5-0.9
					c1.4-0.4,2.7-1.1,3.8-2c-0.6-0.5-1.2-1.1-1.7-1.7c-0.4,0.4-0.7,0.9-1.2,1.3l-0.6-0.8c1.2-1.1,2-2.4,2.5-4L155.6-9.2z M159.3,2.7
					l-0.5,0.8c-2-0.9-4.1-1.6-6.2-2.1l0.6-0.8C155.4,1.2,157.5,1.9,159.3,2.7z M158.7-0.2l-0.5,0.8c-1.3-0.7-2.5-1.2-3.9-1.6
					l0.5-0.8C156.3-1.3,157.6-0.8,158.7-0.2z M158-7h-3.3c-0.1,0.2-0.2,0.3-0.3,0.5c0.5,0.6,1.2,1.2,1.8,1.8
					C156.9-5.4,157.5-6.1,158-7z"/>
				<path class="st3" d="M165-8.3v-0.9h1v0.9h3.7v-0.9h1v0.9h3.2v0.9h-3.2v0.8h-1v-0.8H166v0.8h-1v-0.8h-3.2v-0.9H165z M173.5-3.4
					h-1v-1.8h-9.3v1.8h-1V-6h11.3V-3.4z M172.7,3.6h-1V3h-7.6v0.6h-1v-4h9.6V3.6z M171.7,2.2V0.5h-7.6v1.7H171.7z M171.4-4.2v2.8h-7
					v-2.8H171.4z M170.4-3.4h-5.1v1.3h5.1V-3.4z"/>
				<path class="st3" d="M178.2-9.1c-0.1,0.5-0.3,0.9-0.4,1.4h2.6v1h-2.9c-0.4,1-0.8,1.8-1.3,2.6l-0.8-0.5c0.9-1.4,1.5-2.9,1.9-4.6
					L178.2-9.1z M180.2-4.9V-4h-1.5v1.8h1.9v0.9h-1.9V2c0.6-0.2,1.3-0.5,1.9-0.9l0.2,0.9c-0.9,0.5-1.9,0.9-3.1,1.2l-0.4-0.9
					c0.3-0.1,0.4-0.2,0.4-0.4v-3.2h-1.9v-0.9h1.9V-4h-0.9v-0.9H180.2z M183.1-6.4l-0.8,0.4c-0.4-0.9-0.8-1.7-1.3-2.4l0.9-0.4
					C182.3-8,182.7-7.2,183.1-6.4z M185-9.2v3.9h2.6v7.5c0,0.9-0.4,1.4-1.2,1.4H185l-0.3-1l1.3,0c0.4,0,0.5-0.2,0.5-0.7V0.4h-4.3
					v3.1h-1v-8.9h2.7v-3.9H185z M186.6-4.4h-4.3v1.6h4.3V-4.4z M182.4-0.4h4.3V-2h-4.3V-0.4z M188-8.4c-0.3,0.9-0.8,1.7-1.3,2.5
					l-0.8-0.4c0.6-0.8,1-1.7,1.3-2.5L188-8.4z"/>
				<path class="st3" d="M193.2-5.4v2.1h1.6v0.9h-1.6v1.9c0.7-0.1,1.3-0.3,1.9-0.4v1c-0.6,0.2-1.3,0.3-1.9,0.5v3h-1V0.7
					c-0.9,0.2-1.8,0.3-2.7,0.4l-0.1-1c1-0.1,1.9-0.3,2.8-0.4v-2.1h-2.4l-0.2-0.9c0.4-0.8,0.8-1.9,1.1-3.2h-1.4v-1h1.7
					c0.1-0.6,0.3-1.2,0.4-1.9l1,0.1c-0.1,0.6-0.3,1.2-0.4,1.7h2.7v1h-2.9c-0.3,1.2-0.7,2.3-1.1,3.2h1.5v-2.1H193.2z M197.5-7.4
					c0.1-0.6,0.2-1.2,0.3-1.9l1,0.1c-0.1,0.6-0.2,1.2-0.3,1.8h3.4v1h-3.6L198-4.9h4.3v1h-4.6c-0.2,0.6-0.4,1.2-0.5,1.8h4.5v0.8
					c-0.5,1-1.2,1.9-2.2,2.9c0.6,0.3,1.1,0.7,1.6,1.1l-0.6,0.9c-1.5-1.1-3-2-4.5-2.7l0.5-0.8c0.7,0.3,1.4,0.7,2.1,1
					c0.8-0.7,1.5-1.5,2-2.3h-4.7c0.3-0.9,0.5-1.8,0.8-2.7h-1.8v-1h2c0.1-0.5,0.3-1.1,0.4-1.6h-2v-1H197.5z"/>
				<path class="st3" d="M208.6-8.9c-0.5,1.2-1.1,2.3-1.9,3.3v9.2h-1v-8c-0.6,0.7-1.3,1.3-2.1,2l-0.3-1.1c2-1.7,3.4-3.7,4.3-5.9
					L208.6-8.9z M211.5,3.3c-1,0-1.5-0.5-1.5-1.5v-4.3c-0.6,0.3-1.2,0.6-1.8,0.9l-0.4-1c0.8-0.4,1.5-0.7,2.3-1.2v-5.6h1v5
					c1.5-1,2.8-2.1,3.9-3.3l0.7,0.8c-1.3,1.4-2.8,2.6-4.6,3.7v4.7c0,0.4,0.2,0.7,0.7,0.7h2.3c0.4,0,0.6-0.1,0.8-0.3
					c0.2-0.2,0.3-1,0.3-2.4l0.9,0.3c-0.1,1.6-0.3,2.6-0.5,2.9c-0.3,0.3-0.7,0.5-1.4,0.5H211.5z"/>
				<path class="st3" d="M223.3-8.1c-0.2-0.4-0.4-0.8-0.6-1.2l1-0.2c0.2,0.4,0.4,0.8,0.6,1.3h5.5v1H224c-0.4,0.8-0.9,1.5-1.4,2
					l1.8-0.2c0.3-0.4,0.6-0.8,1-1.3l0.9,0.4c-1.3,1.7-2.5,3-3.5,3.8c0.9-0.1,1.8-0.2,2.6-0.4c-0.2-0.4-0.3-0.7-0.5-1l0.9-0.3
					c0.5,0.8,0.9,1.7,1.2,2.6l-0.9,0.4c-0.1-0.3-0.2-0.7-0.4-1c-0.4,0.1-0.9,0.2-1.4,0.2v1.6h5.7v1h-5.7v2.9h-1V0.8h-5.7v-1h5.7
					v-1.5c-0.6,0.1-1.3,0.1-2,0.2l-0.2-0.9l0.4-0.1c0.6-0.4,1.4-1,2.2-2c-0.8,0.1-1.5,0.1-2.4,0.2l-0.2-0.8c0.7-0.4,1.3-1.1,1.8-2
					h-5.2v-1H223.3z M220.9-3.3c-0.7,0.9-1.5,1.6-2.3,2.2l-0.7-0.8c0.8-0.6,1.6-1.2,2.2-2L220.9-3.3z M220.8-5l-0.7,0.7
					c-0.5-0.5-1.1-1.1-2-1.7l0.7-0.7C219.6-6.1,220.2-5.5,220.8-5z M229.4-6.1c-0.6,0.7-1.3,1.4-2,1.9L226.8-5
					c0.7-0.5,1.3-1.1,1.8-1.7L229.4-6.1z M229.7-1.8L229-1.1c-0.5-0.7-1.2-1.4-2.1-2.2l0.6-0.6C228.4-3.2,229.1-2.5,229.7-1.8z"/>
				<path class="st3" d="M234.2,0.9c0.2,0.3,0.3,0.6,0.3,1c0,0.6-0.2,1.2-0.5,1.6c-0.4,0.4-0.9,0.8-1.4,0.9V3.7
					c0.4-0.1,0.7-0.3,0.9-0.6c0.2-0.3,0.3-0.6,0.3-0.9c-0.1,0-0.2,0.1-0.3,0.1c-0.2,0-0.4-0.1-0.6-0.3c-0.2-0.2-0.3-0.4-0.3-0.6
					c0-0.3,0.1-0.5,0.3-0.6c0.2-0.2,0.4-0.2,0.7-0.2C233.7,0.5,234,0.6,234.2,0.9z"/>
				<path class="st3" d="M250.1-8.7v0.8c-0.4,1.3-0.9,2.6-1.5,4c0.9,1.2,1.3,2.4,1.4,3.4c0,0.6-0.1,1-0.4,1.3c-0.4,0.3-1,0.5-2,0.5
					l-0.3-1c0.2,0,0.4,0.1,0.5,0.1c0.5,0,0.8-0.1,1-0.2c0.2-0.1,0.2-0.3,0.2-0.6c0-1-0.5-2-1.4-3.2c0.6-1.5,1.1-2.8,1.5-4h-2.2V3.6
					h-1V-8.7H250.1z M253.6-9.1c-0.2,0.3-0.4,0.6-0.5,0.9h4.1v0.8C256.7-6.4,256-5.7,255-5c0.9,0.4,2,0.7,3.2,0.9l-0.3,0.9
					c-1.5-0.3-2.8-0.7-3.8-1.2c-1,0.5-2.3,1-3.7,1.3L249.8-4c1.3-0.3,2.4-0.6,3.3-1c-0.6-0.4-1.1-0.9-1.5-1.4
					c-0.4,0.3-0.7,0.7-1.1,1l-0.6-0.8C251-7,252-8,252.7-9.3L253.6-9.1z M251.2-1.1l0.9,0.1l-0.4,1.4h2.2v-2h-3.4v-0.9h3.4v-1h1v1
					h2.5v0.9h-2.5v2h3v0.9h-3v2.2h-1V1.3h-3.4L251.2-1.1z M256.1-7.3h-3.6c-0.1,0.1-0.1,0.2-0.2,0.3c0.4,0.6,1,1.1,1.8,1.6
					C255-6,255.6-6.6,256.1-7.3z"/>
				<path class="st3" d="M263.5-8.9c-0.3,1.1-0.8,2.1-1.3,3v9.4h-1v-7.9c-0.5,0.6-1,1.2-1.5,1.8l-0.3-1.1c1.5-1.7,2.6-3.6,3.3-5.7
					L263.5-8.9z M264.9,1.9c0.4-0.2,0.9-0.4,1.3-0.6l0.2,0.9c-0.7,0.3-1.6,0.6-2.6,0.9l-0.3-0.9c0.3-0.1,0.4-0.3,0.4-0.5v-9.2
					c3-0.4,5.3-1,6.9-1.5l0.6,0.8c-0.7,0.2-1.5,0.5-2.5,0.7c0,1.3,0.1,2.5,0.1,3.4h3v1h-2.9c0.1,0.6,0.1,1.1,0.2,1.6
					c0.2,1.2,0.5,2.2,0.8,2.8c0.3,0.6,0.5,0.9,0.7,0.9c0.2,0,0.4-0.8,0.5-2.3l0.8,0.5c-0.3,2-0.7,3-1.2,3c-0.4,0-0.9-0.4-1.4-1.1
					c-0.5-0.8-0.9-1.9-1.2-3.4c-0.1-0.6-0.2-1.2-0.3-1.9h-3.3V1.9z M264.9-6.8v2.6h3.2c-0.1-1-0.1-2-0.1-3.2
					C267-7.1,266-7,264.9-6.8z M269,3l-0.8,0.5c-0.5-0.8-1.1-1.7-1.8-2.6l0.7-0.5C268,1.4,268.6,2.3,269,3z"/>
				<path class="st3" d="M276.6,0.2c-0.9,0.3-2,0.6-3.2,0.9l-0.1-1c1.3-0.2,2.4-0.5,3.3-0.8V0.2z M273.6-7.7v-0.9h4.3l-0.7,5.8h1
					c0,3.2-0.1,5-0.4,5.5c-0.3,0.5-0.9,0.7-1.7,0.7c-0.3,0-0.7,0-1,0l-0.3-0.9c0.5,0.1,0.8,0.1,1,0.1c0.7,0,1.1-0.2,1.2-0.6
					c0.1-0.4,0.2-1.7,0.2-3.9h-3.6l0.7-4.8l0.9,0.1l-0.6,3.9h1.6l0.6-4.8H273.6z M285.5-8.7v0.9c-0.5,1.1-1.3,2.1-2.3,2.9
					c0.3,0.2,0.7,0.3,1.1,0.5c0.7,0.3,1.4,0.5,2.1,0.7L285.8-3c-0.8-0.2-1.6-0.5-2.3-0.8c-0.4-0.2-0.8-0.4-1.1-0.6
					c-1,0.6-2.2,1.1-3.5,1.5l-0.4-0.9c1.2-0.3,2.2-0.7,3-1.2c-0.6-0.4-1-0.9-1.4-1.4c-0.3-0.4-0.5-0.9-0.7-1.4h-0.6v-0.9H285.5z
					 M281.9-2.4v-1.2h1v1.2h2.6v3h-2.6v1.5c0.7-0.1,1.3-0.2,1.8-0.3c-0.1-0.3-0.3-0.5-0.4-0.7l0.8-0.3c0.4,0.7,0.8,1.5,1.2,2.3
					l-0.8,0.4c-0.1-0.4-0.3-0.7-0.4-1c-1.4,0.3-3.5,0.5-6.2,0.7l-0.3-0.9c1.3,0,2.4-0.1,3.4-0.2V0.6h-2.6v-3H281.9z M281.9-1.6h-1.6
					v1.4h1.6V-1.6z M281-6.6c0.4,0.4,0.8,0.8,1.3,1.1c0.9-0.7,1.7-1.4,2.2-2.3h-4.2C280.4-7.4,280.7-7,281-6.6z M283-6.6l-0.5,0.4
					c-0.3-0.4-0.6-0.8-0.9-1.2l0.5-0.4C282.4-7.3,282.7-6.9,283-6.6z M284.5-1.6h-1.6v1.4h1.6V-1.6z"/>
				<path class="st3" d="M287.8,3.4l-0.2-1c0.4,0,0.9,0.1,1.3,0.1c0.4,0,0.6-0.2,0.6-0.6v-3.4c-0.6,0.2-1.1,0.4-1.7,0.6l-0.3-1
					c0.7-0.2,1.3-0.3,2-0.6v-3.3h-1.8v-1h1.8v-2.6h1v2.6h1.3v1h-1.3v2.9c0.5-0.2,1.1-0.5,1.6-0.7v1c-0.5,0.3-1,0.5-1.6,0.7v4
					c0,0.8-0.4,1.2-1.2,1.2H287.8z M294.6-5.9c0-0.3,0-0.6,0-0.8v-2.5h1v2.5c0,0.3,0,0.6,0,0.8h4.2v1h-2.6V2c0,0.3,0.1,0.4,0.3,0.4
					h1.1c0.1,0,0.3-0.1,0.3-0.2c0.1-0.2,0.2-1,0.2-2.2l0.9,0.3c-0.1,1.5-0.2,2.4-0.4,2.7c-0.2,0.3-0.5,0.4-0.8,0.4h-1.6
					c-0.7,0-1-0.4-1-1.2v-7.1h-0.7c-0.3,3.7-1.4,6.5-3.2,8.4l-0.7-0.6c1.7-1.7,2.7-4.3,3-7.8h-2.4v-1H294.6z M299.3-7.2l-0.7,0.7
					c-0.5-0.6-1.1-1.2-2-1.9l0.7-0.6C298.1-8.4,298.8-7.8,299.3-7.2z"/>
				<path class="st3" d="M302.2,3.4l-0.8-0.7c0.9-1.2,1.4-2.8,1.4-4.7v-6.7h10.4V1.8c0,1-0.5,1.5-1.5,1.5h-1.6l-0.3-1
					c0.6,0,1.1,0.1,1.6,0.1c0.5,0,0.8-0.3,0.8-0.9V-1h-3.8v4.1h-1V-1h-3.6C303.6,0.8,303.1,2.3,302.2,3.4z M303.8-7.7v2.4h3.6v-2.4
					H303.8z M303.8-1.9h3.6v-2.5h-3.6V-1.9z M312.2-7.7h-3.8v2.4h3.8V-7.7z M312.2-4.4h-3.8v2.5h3.8V-4.4z"/>
				<path class="st3" d="M316,3.6L315.3,3c1.1-1.6,1.7-3.6,1.7-6.1v-4.4h4.6c-0.3-0.6-0.5-1.1-0.8-1.6l1.1-0.2
					c0.3,0.5,0.5,1.1,0.8,1.8h4.4v4.7h-9C318-0.3,317.3,1.8,316,3.6z M318-6.6v2.7h8v-2.7H318z"/>
				<path class="st3" d="M340.9,3.3h-1V2.4h-8.1v0.9h-1v-11h10.2V3.3z M339.9,1.5v-8.1h-8.1v8.1H339.9z"/>
				<path class="st3" d="M348.2,3h-0.9V2.2h-1.4v0.9h-0.9v-5.9c-0.3,0.6-0.6,1.1-1,1.6L343.3-2c1.1-1.6,1.7-3.5,2.1-5.5h-1.6v-1h4.7
					v1h-2.1c-0.2,1.1-0.5,2.2-0.8,3.2h2.6V3z M347.2,1.3v-4.7h-1.4v4.7H347.2z M351.4-8c0.2-0.4,0.3-0.9,0.4-1.4l1,0.1
					c-0.1,0.4-0.3,0.8-0.4,1.2h3.1v5.9h-3.2c-0.1,0.1-0.1,0.3-0.2,0.4c-0.4,0.7-1.1,1.3-2,1.7h2.7v-1.5h1v1.5h2.4v1h-2.4v2.7h-1V0.9
					h-4.2v-1h1.3l-0.4-0.6c0.8-0.4,1.4-0.8,1.7-1.4h-2.1V-8H351.4z M351.9-5.5v-1.6h-1.8v1.6H351.9z M351.9-4.6h-1.8V-3h1.5
					C351.8-3.5,351.9-4,351.9-4.6z M354.6-4.6h-1.8c0,0.6-0.1,1.1-0.2,1.6h2V-4.6z M352.8-5.5h1.8v-1.6h-1.8V-5.5z"/>
				<path class="st3" d="M357.9,3.4l-0.2-1c0.4,0,0.8,0.1,1.2,0.1c0.4,0,0.6-0.2,0.6-0.6v-3.4c-0.6,0.2-1.2,0.5-1.9,0.7l-0.3-1
					c0.7-0.2,1.4-0.4,2.1-0.7v-3.2h-1.9v-1h1.9v-2.6h1v2.6h1.7v1h-1.7v2.8c0.5-0.3,1.1-0.5,1.6-0.8v1c-0.5,0.3-1.1,0.5-1.6,0.8v4.1
					c0,0.8-0.4,1.2-1.2,1.2H357.9z M366.6-2.9v1.5c0,1.3-0.4,2.4-1.1,3.2c-0.7,0.7-1.8,1.3-3.2,1.8l-0.5-0.9c1.4-0.4,2.5-0.9,3-1.5
					c0.5-0.7,0.8-1.5,0.8-2.6v-1.5H366.6z M369.5,0.7h-1v-4.4h-4.8v4.4h-1v-5.3h6.8V0.7z M369.1-8.7v3.2h-5.9v-3.2H369.1z
					 M368.1-7.9h-4v1.4h4V-7.9z M370.2,2.7l-0.6,0.9c-1-0.9-2.1-1.6-3.2-2.1l0.5-0.8C368.2,1.3,369.3,1.9,370.2,2.7z"/>
				<path class="st3" d="M375.2-8.6c-0.2,0.6-0.5,1.2-0.7,1.8h2.8v-2.5h1v2.5h4.7v1h-4.7v0.9c0,0.7-0.1,1.3-0.2,1.9h5.8v1h-5.2
					c0.7,2,2.5,3.6,5.4,4.7l-0.6,0.9c-3.1-1.3-5-3.1-5.7-5.4c-0.3,0.9-0.6,1.7-1.1,2.4c-1,1.3-2.5,2.3-4.8,3l-0.5-0.9
					c2.2-0.7,3.7-1.7,4.6-2.8c0.4-0.6,0.7-1.2,0.9-1.9h-5.2v-1h5.4c0.1-0.6,0.2-1.2,0.2-1.9v-0.9H374c-0.5,0.8-1,1.5-1.7,2.1
					l-0.9-0.7c1.3-1.1,2.2-2.6,2.8-4.5L375.2-8.6z"/>
			</g>
		</g>
	</g>
</g>
<g id="textgroup" transform="translate(0,0)">
	<g id="Textbasic3" transform="translate(45.16666666666667,80.33333333333333)">
		<rect x="-7.2" y="-18.8" class="st9" width="80" height="20"/>
		<g transform="translate(0 0)">
			<g class="st2">
				<path class="st3" d="M-5.8-3.6l-0.8-0.7C-5.7-5.5-5.2-7.1-5.2-9v-6.7H5.2v10.5c0,1-0.5,1.5-1.5,1.5H2.2l-0.3-1
					c0.6,0,1.1,0.1,1.6,0.1C4-4.7,4.2-5,4.2-5.6V-8H0.4v4.1h-1V-8h-3.6C-4.4-6.2-4.9-4.7-5.8-3.6z M-4.2-14.7v2.4h3.6v-2.4H-4.2z
					 M-4.2-8.9h3.6v-2.5h-3.6V-8.9z M4.2-14.7H0.4v2.4h3.8V-14.7z M4.2-11.4H0.4v2.5h3.8V-11.4z"/>
				<path class="st3" d="M8-3.4L7.3-4C8.4-5.6,9-7.7,9-10.2v-4.4h4.6c-0.3-0.6-0.5-1.1-0.8-1.6l1.1-0.2c0.3,0.5,0.5,1.1,0.8,1.8H19
					v4.7h-9C10-7.3,9.3-5.2,8-3.4z M10-13.6v2.7h8v-2.7H10z"/>
				<path class="st3" d="M24.5-10.7L23.8-10c-0.6-0.6-1.3-1.3-2.3-2.1l0.7-0.7C23.1-12.1,23.9-11.4,24.5-10.7z M24.8-8.6
					c-0.7,1.8-1.4,3.4-2.3,5l-1-0.4c0.9-1.6,1.7-3.2,2.3-4.9L24.8-8.6z M24.8-14.1l-0.7,0.7c-0.6-0.6-1.4-1.3-2.4-2l0.7-0.7
					C23.4-15.4,24.2-14.8,24.8-14.1z M30.5-3.5l-0.3-1l1.7,0c0.5,0,0.8-0.2,0.8-0.6v-9.7h-6.3v11.3h-1v-12.2h8.3v10.9
					c0,0.9-0.5,1.3-1.4,1.3H30.5z M31.9-13.2v0.9h-4.7v-0.9H31.9z M31.5-10.9v4.7h-3.9v-4.7H31.5z M30.6-10h-2.1v3h2.1V-10z"/>
				<path class="st3" d="M41.6-13.3v0.6c-0.5,1-1.2,1.9-2,2.7h4.6c-1-1.1-1.7-2.3-2-3.8l0.8-0.3c0.1,0.3,0.1,0.5,0.2,0.8h3.3v0.7
					c-0.5,0.8-1,1.5-1.6,2.1c0.8,0.8,1.9,1.4,3.2,1.9l-0.5,0.8c-1.3-0.5-2.4-1.1-3.2-1.9v0.6h-5v-0.6c-1,0.9-2.1,1.5-3.5,2l-0.4-0.8
					c0.8-0.3,1.6-0.6,2.2-1c-0.3-0.4-0.6-0.9-1-1.3c-0.2,0.1-0.4,0.2-0.6,0.3l-0.6-0.7c1.4-0.8,2.6-1.8,3.5-3L40-14
					c-0.2,0.2-0.4,0.5-0.5,0.7H41.6z M39.7-6.1c-0.5,0.6-0.9,1-1.4,1.4c-0.5,0.4-1.2,0.8-2,1.2l-0.5-0.8c0.7-0.3,1.3-0.6,1.9-1
					c0.5-0.4,0.9-0.8,1.3-1.3L39.7-6.1z M47.5-12.7h-1v-1.7h-9.4v1.7h-1v-2.6h5.1c-0.2-0.3-0.3-0.6-0.5-0.9l1.1-0.2
					c0.2,0.3,0.3,0.7,0.5,1.1h5.1V-12.7z M46.6-7.9V-7h-4.3v2.5c0,0.7-0.4,1.1-1.1,1.1h-1.4l-0.2-1c0.4,0,0.9,0.1,1.3,0.1
					c0.3,0,0.4-0.2,0.4-0.5V-7h-4.4v-0.9H46.6z M37.3-11.3c0.4,0.4,0.7,0.9,1.1,1.3c0.3-0.2,0.6-0.5,0.8-0.7
					c-0.3-0.4-0.7-0.8-1.1-1.2C37.8-11.7,37.5-11.5,37.3-11.3z M40.6-12.5h-1.8l-0.2,0.2c0.4,0.4,0.8,0.7,1.1,1.1
					C40-11.7,40.3-12.1,40.6-12.5z M44.3-11.2c0.4-0.4,0.7-0.8,1.1-1.3h-1.9C43.7-12,44-11.6,44.3-11.2z M47.7-4.4l-0.5,0.8
					c-1.1-0.9-2.3-1.7-3.6-2.2l0.5-0.8C45.4-5.9,46.6-5.2,47.7-4.4z"/>
			</g>
		</g>
	</g>
	<g id="Textbasic4" transform="translate(45.16666666666667,110.33333333333331)">
		<rect x="-7.2" y="-18.8" class="st9" width="80" height="20"/>
		<g transform="translate(0 0)">
			<g class="st2">
				<path class="st3" d="M-6.1-3.6l-0.2-1c0.4,0,0.8,0.1,1.1,0.1c0.3,0,0.5-0.2,0.5-0.5v-3.4C-5.2-8.2-5.8-8-6.3-7.9l-0.2-1
					C-5.9-9-5.3-9.2-4.7-9.5v-3.2h-1.7v-1h1.7v-2.6h1v2.6h1.4v1h-1.4v2.7c0.4-0.2,0.8-0.4,1.2-0.6v1c-0.4,0.2-0.8,0.4-1.2,0.6v4.1
					c0,0.8-0.4,1.2-1.2,1.2H-6.1z M5.9-9.9V-9H2.4v1.6h2.9v0.9H2.4v1.8c0.6,0.1,1.2,0.1,2,0.1c0.7,0,1.4,0,1.9-0.1L6-3.7
					c-0.6,0-1.1,0-1.5,0c-1.8,0-3.1-0.2-3.8-0.5c-0.5-0.3-1-0.8-1.4-1.6C-1.1-5-1.6-4.2-2.2-3.5l-0.7-0.6c1.1-1.3,1.7-2.7,1.8-4.3
					l0.9,0.1c0,0.5-0.1,1-0.2,1.5C0-6,0.5-5.4,1.1-5.1C1.2-5,1.3-5,1.4-5V-9h-3.5v-0.9H5.9z M5-15.8v4.9h-6.1v-4.9H5z M4-13.7V-15
					h-4.1v1.2H4z M4-13h-4.1v1.2H4V-13z"/>
				<path class="st3" d="M13.3-7.9V-9h1v1.1h5.5V-7h-4.6c1,1,2.6,1.7,4.7,2.3l-0.4,0.9c-2.4-0.8-4.2-1.8-5.2-3.1v3.5h-1V-7
					c-0.9,1.3-2.6,2.4-5.1,3.3L7.7-4.7C10-5.4,11.6-6.1,12.5-7H7.8v-0.9H13.3z M13.8-13.8c-0.3,0.3-0.5,0.6-0.7,0.9h6.3v0.8h-2.4
					c-0.5,0.7-1,1.2-1.6,1.6c1.2,0.3,2.5,0.7,3.8,1.1l-0.6,0.8c-1.4-0.5-2.8-0.9-4.2-1.3C13-9.1,11.1-8.8,8.7-8.8L8.1-9.6
					c2.1,0,3.8-0.2,5-0.6c-1-0.3-1.9-0.5-2.9-0.6c0.4-0.4,0.7-0.8,1.1-1.2h-3v-0.8H12c0.3-0.4,0.6-0.8,0.9-1.2L13.8-13.8z
					 M19.5-13.2h-1v-1.1H9.2v1.1h-1v-2h5.2c-0.2-0.4-0.4-0.7-0.6-1l1.1-0.2c0.2,0.3,0.4,0.7,0.5,1.2h5.1V-13.2z M16-12h-3.6
					c-0.3,0.3-0.5,0.6-0.7,0.8c0.9,0.1,1.7,0.3,2.6,0.5C15-11.1,15.6-11.5,16-12z"/>
				<path class="st3" d="M21.6-9.5l-0.3-1c1.5-1.7,2.6-3.6,3.3-5.8l0.9,0.4c-0.3,1-0.8,2-1.3,2.9v9.5h-1v-8
					C22.8-10.7,22.2-10.1,21.6-9.5z M28.2-12.9c0-0.3,0-0.6,0-0.8v-2.5h1v2.5c0,0.3,0,0.6,0,0.8h4.7v1h-2.9V-5
					c0,0.3,0.1,0.4,0.4,0.4h1.2c0.2,0,0.3-0.1,0.4-0.2c0.1-0.2,0.2-1,0.3-2.2l0.9,0.3c-0.1,1.5-0.3,2.4-0.4,2.7
					c-0.2,0.3-0.5,0.4-0.9,0.4h-1.7C30.3-3.7,30-4,30-4.8v-7.1h-0.9c-0.3,3.7-1.5,6.5-3.5,8.4l-0.7-0.6c1.9-1.7,3-4.3,3.3-7.8h-2.8
					v-1H28.2z M33.2-14.1l-0.7,0.7c-0.5-0.6-1.2-1.2-2.2-1.9L31-16C31.9-15.4,32.6-14.8,33.2-14.1z"/>
				<path class="st3" d="M40.6-15.9c-0.5,1.2-1.1,2.3-1.9,3.3v9.2h-1v-8c-0.6,0.7-1.3,1.3-2.1,2l-0.3-1.1c2-1.7,3.4-3.7,4.3-5.9
					L40.6-15.9z M43.5-3.7c-1,0-1.5-0.5-1.5-1.5v-4.3c-0.6,0.3-1.2,0.6-1.8,0.9l-0.4-1c0.8-0.4,1.5-0.7,2.3-1.2v-5.6h1v5
					c1.5-1,2.8-2.1,3.9-3.3l0.7,0.8c-1.3,1.4-2.8,2.6-4.6,3.7v4.7c0,0.4,0.2,0.7,0.7,0.7H46c0.4,0,0.6-0.1,0.8-0.3
					C47-5.2,47-6,47.1-7.4L48-7.1c-0.1,1.6-0.3,2.6-0.5,2.9c-0.3,0.3-0.7,0.5-1.4,0.5H43.5z"/>
			</g>
		</g>
	</g>
	<g id="Textbasic7" transform="translate(209.16666666666669,80.33333333333333)">
		<rect x="-7.2" y="-18.8" class="st9" width="80" height="20"/>
		<g transform="translate(0 0)">
			<g class="st2">
				<path class="st3" d="M-5.8-3.5l-0.7-0.7C-6-5.4-5.8-7-5.8-9v-6.8h3.6v11.1c0,0.7-0.4,1.1-1.1,1.1h-1l-0.2-0.9c0.3,0,0.6,0,0.9,0
					c0.3,0,0.5-0.2,0.5-0.6v-3.2h-1.7C-5-6.2-5.2-4.7-5.8-3.5z M-3.2-14.8h-1.7v2.4h1.7V-14.8z M-4.9-9.1h1.7v-2.3h-1.7V-9.1z
					 M-0.3-14.3c-0.2-0.5-0.4-0.9-0.7-1.3l0.9-0.3c0.3,0.4,0.5,1,0.7,1.6h0.7c0.2-0.6,0.3-1.3,0.4-2l1,0.1c-0.1,0.7-0.2,1.3-0.4,1.9
					h1.1c0.3-0.5,0.6-1.1,0.8-1.7l0.9,0.3c-0.3,0.5-0.5,1-0.8,1.4h1.2v0.8H2.1c-0.1,0.4-0.3,0.8-0.5,1.1H6v0.9H3.8
					c0.6,0.7,1.4,1.3,2.6,1.7L5.9-9C5.3-9.2,4.8-9.6,4.3-9.9v0.1C4.2-9,4.1-8.3,4-7.7h1.5c0,2.3-0.2,3.6-0.5,3.9
					C4.7-3.6,4.1-3.5,3.2-3.5H2.6L2.3-4.3c0.3,0,0.6,0,0.9,0c0.5,0,0.8-0.1,1-0.2c0.2-0.2,0.3-1,0.3-2.4h-5.2
					C-0.4-7.7-0.2-8.4-0.1-9L0.8-9C0.7-8.5,0.6-8.1,0.5-7.7h2.6c0.1-0.5,0.3-1,0.3-1.7h-3.7v-0.5c-0.4,0.4-0.9,0.7-1.4,1l-0.5-0.8
					c0.9-0.5,1.6-1.1,2.2-1.8h-1.7v-0.9h2.3c0.2-0.4,0.4-0.7,0.5-1.1h-2.4v-0.8H-0.3z M3.4-6.1v0.9h-5v-0.9H3.4z M4-10.2
					c-0.5-0.4-0.8-0.9-1.1-1.3H1.1C0.8-11,0.4-10.6,0-10.2H4z"/>
				<path class="st3" d="M10.4-12v6.2c0.4-0.4,0.9-0.8,1.4-1.4l0.3,1.1c-0.8,0.8-1.7,1.5-2.6,2.2L9.1-4.8C9.3-5,9.4-5.2,9.4-5.5V-11
					H7.4v-1H10.4z M11.3-14l-0.7,0.7c-0.6-0.7-1.3-1.4-2.3-2.2L9-16.1C10-15.4,10.7-14.7,11.3-14z M13.7-10.8v-3.8h-1.9v-1h6.4v4.3
					c0,2.8,0.2,4.7,0.6,5.9c0.2,0.4,0.4,0.7,0.5,0.7c0.1,0,0.1-0.2,0.2-0.5c0-0.4,0.1-1,0.1-1.7l0.8,0.4c-0.1,1.3-0.2,2.2-0.3,2.6
					c-0.1,0.3-0.3,0.4-0.5,0.4c-0.5,0-1-0.3-1.4-1c-0.7-1.2-1-3.4-1-6.7v-3.3h-2.6v3.8h1.9v1h-1.9v6.4h-1v-6.4h-2.1v-1H13.7z"/>
				<path class="st3" d="M21.6-15.1c1.6-0.2,3-0.5,4.3-0.9l0.4,0.9c-0.5,0.2-1.1,0.3-1.7,0.5v2.1h1.7v1h-1.7v0.7
					c0.6,0.6,1.2,1.3,1.9,2.1l-0.6,0.9c-0.5-0.8-0.9-1.5-1.3-2v6.4h-1v-6.3c-0.4,1.3-1.1,2.4-1.8,3.4l-0.4-1.1
					c1-1.2,1.7-2.6,2.1-4.1h-1.9v-1h2v-1.9c-0.6,0.1-1.2,0.2-1.8,0.3L21.6-15.1z M27.5-7c-0.2,1.1-0.6,2.1-1,3l-0.8-0.5
					c0.4-0.8,0.8-1.7,1-2.6L27.5-7z M26.9-8v-0.9h5.3V-10h-5.1v-0.8h5.1v-1H27v-0.8c-0.1,0.1-0.3,0.2-0.4,0.3L26-13.1
					c1.3-0.9,2.3-2,2.7-3.2l1,0.1c-0.1,0.3-0.3,0.6-0.4,0.9h3.2v0.7c-0.4,0.7-0.8,1.3-1.3,1.8h1.9V-8H26.9z M27.2-12.7h3
					c0.4-0.5,0.8-1,1.2-1.7h-2.6C28.3-13.8,27.8-13.3,27.2-12.7z M29.3-3.6c-0.8,0-1.2-0.4-1.2-1.3v-2.5H29V-5
					c0,0.4,0.2,0.6,0.6,0.6h1.3c0.2,0,0.4-0.1,0.5-0.2c0.1-0.1,0.2-0.5,0.3-1.1l0.9,0.3c-0.1,0.9-0.2,1.5-0.5,1.7
					c-0.2,0.2-0.5,0.3-1,0.3H29.3z M31.4-5.9l-0.7,0.5c-0.3-0.5-0.7-1.1-1.2-1.7l0.7-0.5C30.7-7,31.1-6.4,31.4-5.9z M34.3-4.6
					l-0.8,0.4c-0.4-1.1-0.9-2-1.4-2.9L33-7.4C33.5-6.5,34-5.6,34.3-4.6z"/>
				<path class="st3" d="M46-12.1v1h-3.6v2.5h4.2v1h-4.2v2.9c1,0.1,2.2,0.2,3.6,0.2c0.7,0,1.4,0,2.2-0.1l-0.2,1h-1.6
					c-2.8,0-4.8-0.3-6.1-0.8c-0.9-0.4-1.7-1.1-2.3-2c-0.5,1.2-1.2,2.2-2,3l-0.6-0.8c1.3-1.4,2.2-3.3,2.7-5.8l1,0.2
					C39-9,38.7-8.2,38.5-7.5c0.7,1.2,1.5,2,2.5,2.3c0.1,0,0.3,0.1,0.4,0.1v-6.1h-3.7v-1H46z M47.6-11.9h-1v-2.1h-9.5v2.1h-1v-3.1
					h5.4c-0.2-0.5-0.4-1-0.7-1.4l1.1-0.2c0.2,0.5,0.4,1,0.6,1.6h5.1V-11.9z"/>
			</g>
		</g>
	</g>
	<g id="Textbasic8" transform="translate(209.16666666666669,111.33333333333331)">
		<rect x="-7.2" y="-18.8" class="st9" width="80" height="20"/>
		<g transform="translate(0 0)">
			<g class="st2">
				<path class="st3" d="M-5.7-11.4L-6.4-12c0.7-1.1,1.2-2.5,1.5-4.2l1,0.3c-0.1,0.6-0.3,1.2-0.5,1.8h3.1v0.9h-1.5
					c0,1-0.1,1.9-0.1,2.7h1.6v0.9H-3C-3-9.2-3.1-8.8-3.1-8.5v0C-2.4-7.8-1.7-7.1-1-6.3l-0.6,0.9c-0.7-0.9-1.3-1.7-1.8-2.2
					c-0.5,1.5-1.3,2.7-2.5,3.7l-0.6-0.8c1.2-1,2-2.4,2.4-3.9C-4-8.9-4-9.3-3.9-9.6h-2.5v-0.9h2.6c0.1-0.8,0.1-1.8,0.1-2.7h-1
					C-5-12.5-5.3-11.9-5.7-11.4z M5.2-8.1C4.9-6.9,4.4-5.9,4-4.9h2.3v1h-7.8v-1H3c0.5-1,0.9-2.1,1.2-3.5L5.2-8.1z M6-15.5v1h-7.1v-1
					H6z M5.4-13.2v4.3h-5.8v-4.3H5.4z M1.7-5.6L0.7-5.3C0.5-6.2,0.2-7.1-0.1-8l0.9-0.3C1.1-7.5,1.4-6.6,1.7-5.6z M4.4-12.2H0.5v2.4
					h3.9V-12.2z"/>
				<path class="st3" d="M7.6-9.5l-0.3-1.1c1.4-1.7,2.4-3.6,3-5.8l0.9,0.4c-0.3,1.1-0.7,2.1-1.2,3v9.5H9v-7.9
					C8.6-10.7,8.1-10.1,7.6-9.5z M15.5-14.4c-0.2-0.6-0.4-1.1-0.7-1.6l1-0.3c0.3,0.6,0.5,1.2,0.7,1.7l-0.5,0.2h4.4v1h-9.1v-1H15.5z
					 M19.3-3.4h-1v-0.8h-5.2v0.8h-1v-4.9h7.1V-3.4z M19.1-12.3v0.9h-6.6v-0.9H19.1z M19.1-10.4v0.9h-6.6v-0.9H19.1z M18.3-5.1v-2.2
					h-5.2v2.2H18.3z"/>
				<path class="st3" d="M28.3-3.7c-0.9,0-1.7-0.1-2.2-0.3c-0.6-0.2-1.1-0.5-1.5-1c-0.2-0.2-0.4-0.3-0.5-0.3c-0.3,0-0.9,0.6-1.7,1.9
					l-0.8-0.7c0.7-1.2,1.4-1.9,2-2.1v-4.3h-2v-0.9h2.9v5.2c0.1,0.1,0.2,0.2,0.4,0.3C25.2-5.4,25.6-5.2,26-5c0.4,0.2,1.1,0.3,1.9,0.3
					c0.7,0,1.7,0,2.8,0c0.6,0,1.3,0,2,0c0.7,0,1.2,0,1.6-0.1l-0.2,1h-3.2C30-3.7,29.2-3.7,28.3-3.7z M25-13.9l-0.7,0.7
					c-0.6-0.7-1.4-1.4-2.4-2.2l0.7-0.7C23.6-15.3,24.4-14.6,25-13.9z M29.9-13.7c0.7-0.4,1.4-0.8,2-1.3h-6.2v-0.9h7.6v0.7
					c-0.8,0.7-1.8,1.4-2.7,1.9l0.2,0.2h2.8v6.3c0,0.7-0.4,1.1-1.2,1.1h-1.2L31-6.5l1.1,0c0.3,0,0.5-0.2,0.5-0.5v-1h-2.4v2.4h-0.9V-8
					H27v2.5h-1V-13h3.5c-0.5-0.4-1.1-0.8-1.8-1.1l0.6-0.6C28.9-14.4,29.4-14,29.9-13.7z M29.3-12.1H27v1.3h2.3V-12.1z M27-8.8h2.3
					V-10H27V-8.8z M32.6-12.1h-2.4v1.3h2.4V-12.1z M30.2-8.8h2.4V-10h-2.4V-8.8z"/>
				<path class="st3" d="M42.3-3.7c-0.9,0-1.6-0.1-2.2-0.3c-0.6-0.2-1.1-0.5-1.5-1c-0.2-0.2-0.4-0.3-0.5-0.3c-0.3,0-0.9,0.6-1.7,1.9
					l-0.8-0.7c0.8-1.2,1.4-1.9,2-2.1v-4.3h-2.1v-0.9h3v5.2c0.1,0.1,0.2,0.2,0.3,0.3C39.3-5.4,39.6-5.2,40-5c0.4,0.2,1.1,0.3,1.9,0.3
					c0.7,0,1.6,0,2.7,0c0.7,0,1.3,0,2,0c0.7,0,1.2,0,1.6-0.1l-0.2,1h-3.2C44-3.7,43.2-3.7,42.3-3.7z M39-13.9l-0.7,0.7
					c-0.6-0.7-1.4-1.4-2.4-2.2l0.7-0.7C37.6-15.3,38.4-14.6,39-13.9z M41.8-14.7c-0.2-0.4-0.5-0.8-0.8-1.2l0.9-0.3
					c0.3,0.4,0.6,1,0.9,1.6h1.7c0.3-0.5,0.6-1,0.9-1.6l1,0.3c-0.2,0.5-0.5,0.9-0.8,1.3H48v0.9h-3.9c-0.1,0.4-0.2,0.8-0.4,1.1H47v6.8
					h-6.6v-6.8h2.2c0.2-0.4,0.3-0.8,0.4-1.1h-3.5v-0.9H41.8z M46.1-10.6v-1.1h-4.7v1.1H46.1z M46.1-8.8v-1.1h-4.7v1.1H46.1z M46.1-8
					h-4.7v1.2h4.7V-8z"/>
			</g>
		</g>
	</g>
	<g id="Textbasic11" transform="translate(370.1666666666667,80.33333333333333)">
		<rect x="-7.2" y="-18.8" class="st9" width="80" height="20"/>
		<g transform="translate(0 0)">
			<g class="st2">
				<path class="st3" d="M-6.1-3.6l-0.2-1c0.4,0,0.7,0.1,1.1,0.1c0.4,0,0.6-0.2,0.6-0.5v-3.4C-5.2-8.3-5.8-8-6.4-7.9l-0.3-1
					C-6-9-5.3-9.2-4.7-9.5v-3.1h-1.7v-1h1.7v-2.6h1v2.6h1.2v1h-1.2v2.7c0.4-0.2,0.8-0.4,1.2-0.6v1c-0.4,0.2-0.8,0.4-1.2,0.6v4.1
					c0,0.8-0.4,1.2-1.2,1.2H-6.1z M1.8-10.4C1.7-10,1.5-9.6,1.4-9.3h4.8v1H4.6C4.4-7.3,4-6.4,3.3-5.7c1,0.4,1.9,0.9,2.8,1.4L5.5-3.4
					C4.7-3.9,3.7-4.5,2.6-5C1.7-4.3,0.2-3.8-1.8-3.4l-0.4-0.9C-0.6-4.6,0.7-5,1.6-5.5C0.7-5.9-0.2-6.2-1.2-6.6
					c0.4-0.6,0.7-1.1,1-1.7h-1.9v-1h2.4c0.2-0.4,0.4-0.8,0.5-1.2L1.8-10.4z M1.2-11.8h1.4c0.4-0.7,0.7-1.4,1-2.2l1,0.3
					C4.3-13,4-12.4,3.7-11.8h2.3v1h-7.8v-1h2.1C0-12.5-0.3-13-0.6-13.5l0.8-0.4C0.6-13.3,0.9-12.6,1.2-11.8z M2.6-15h3.1v0.9h-7.2
					V-15h3.1c-0.2-0.4-0.3-0.8-0.5-1.2l1.1-0.2C2.2-16,2.4-15.5,2.6-15z M0.8-8.3C0.6-7.9,0.3-7.4,0-7c0.8,0.3,1.6,0.6,2.4,1
					C3-6.7,3.5-7.4,3.7-8.3H0.8z"/>
				<path class="st3" d="M17.9-9.6v0.9c-0.6,1.1-1.6,2.1-2.9,2.9c1.4,0.6,3.1,1.1,5.1,1.6l-0.6,0.9c-2.2-0.5-4-1.1-5.5-1.9
					c-1.6,0.8-3.5,1.4-5.8,1.9l-0.5-1c2.1-0.4,3.9-0.9,5.3-1.5c-1.3-0.8-2.2-1.8-2.7-2.8H9.7v-0.9H17.9z M19.7-8.8h-1V-11H9v2.2H8
					V-12h8c0.6-0.8,1-1.7,1.4-2.6l1,0.4c-0.4,0.9-0.9,1.6-1.4,2.2h2.7V-8.8z M19.3-15.3c-2.7,0.4-6.3,0.6-10.8,0.6l-0.3-0.9
					c4.3,0,7.8-0.2,10.6-0.6L19.3-15.3z M11.3-12.4L10.5-12c-0.4-0.7-0.9-1.3-1.4-1.9l0.9-0.4C10.4-13.7,10.9-13.1,11.3-12.4z
					 M14-6.4c1.2-0.7,2.2-1.5,2.8-2.4h-5.5C11.9-7.8,12.8-7,14-6.4z M14.6-12.6l-0.9,0.5c-0.4-0.7-0.9-1.4-1.3-1.9l0.9-0.4
					C13.7-13.9,14.2-13.3,14.6-12.6z"/>
				<path class="st3" d="M23.8-6.7c-0.3,1.1-0.8,2.1-1.4,2.9l-0.9-0.5c0.6-0.8,1-1.6,1.3-2.5L23.8-6.7z M22.4-14.6v-0.9h4.8
					c-0.1-0.3-0.3-0.6-0.4-0.8l1.1-0.2c0.1,0.3,0.3,0.6,0.4,1h4.9v0.9H31l-0.5,1.1h3.5v0.9H21.8v-0.9h3.4l-0.4-1.1H22.4z M32.3-11.7
					v4.1h-9v-4.1H32.3z M31.3-10v-0.9h-7v0.9H31.3z M31.3-9.3h-7v0.9h7V-9.3z M26.3-3.7c-1,0-1.4-0.4-1.4-1.3v-1.8h1v1.6
					c0,0.4,0.2,0.6,0.7,0.6h2.9c0.3,0,0.5-0.1,0.6-0.2c0.2-0.1,0.3-0.6,0.3-1.3l1,0.3c-0.1,1-0.3,1.6-0.6,1.8
					c-0.3,0.2-0.6,0.3-1.2,0.3H26.3z M29.4-13.4l0.5-1.1h-4.2l0.4,1.1H29.4z M29.3-5.7l-0.8,0.6c-0.3-0.5-0.8-1.1-1.4-1.6L28-7.3
					C28.6-6.7,29-6.2,29.3-5.7z M34.2-4.6L33.4-4c-0.4-0.8-1-1.6-1.8-2.5l0.8-0.5C33.2-6.1,33.8-5.3,34.2-4.6z"/>
				<path class="st3" d="M47.7-14.9h-4.6c-0.1,0.3-0.2,0.6-0.3,0.9h3.9v4h-3.2v1.3c0,0.7-0.4,1.1-1.2,1.1h-1.1l-0.2-0.9
					c0.3,0,0.7,0.1,1,0.1c0.3,0,0.5-0.2,0.5-0.5V-10H39v-4h2.8c0.1-0.3,0.3-0.6,0.3-0.9h-4.7v4.6c-0.1,2.8-0.5,5.1-1.3,6.8l-0.8-0.7
					c0.7-1.5,1-3.5,1.1-6.1v-5.4h11.3V-14.9z M39.5-6.5c-0.4,1.1-1,2-1.6,2.8l-0.8-0.6c0.6-0.7,1.1-1.6,1.5-2.6L39.5-6.5z M40.8-9.1
					c-0.7,0.7-1.5,1.2-2.5,1.8l-0.6-0.8c1-0.4,1.8-1,2.5-1.5L40.8-9.1z M45.7-12.3v-0.9H40v0.9H45.7z M45.7-11.7H40v0.9h5.7V-11.7z
					 M41.3-3.6c-0.8,0-1.2-0.4-1.2-1.1V-7h1v2.1c0,0.3,0.2,0.4,0.5,0.4h2.3c0.2,0,0.4-0.1,0.5-0.2c0.1-0.1,0.2-0.6,0.3-1.3l0.9,0.3
					c-0.1,1-0.2,1.6-0.5,1.8c-0.2,0.2-0.5,0.3-1,0.3H41.3z M44-5.4l-0.7,0.5C43-5.5,42.5-6.1,42-6.8l0.7-0.4
					C43.2-6.5,43.7-5.9,44-5.4z M47.8-8.1l-0.5,0.8c-1-0.7-1.9-1.2-2.9-1.6l0.5-0.7C46-9.2,46.9-8.7,47.8-8.1z M48.1-4.4l-0.8,0.6
					c-0.5-0.9-1.2-1.8-2-2.9l0.8-0.5C46.9-6.2,47.6-5.2,48.1-4.4z"/>
			</g>
		</g>
	</g>
	<g id="Textbasic12" transform="translate(370.1666666666667,110.33333333333331)">
		<rect x="-7.2" y="-18.8" class="st9" width="80" height="20"/>
		<g transform="translate(0 0)">
			<g class="st2">
				<path class="st3" d="M-6.1-3.6l-0.2-1c0.4,0,0.8,0.1,1.1,0.1c0.3,0,0.5-0.2,0.5-0.5v-3.4C-5.2-8.2-5.8-8-6.3-7.9l-0.2-1
					C-5.9-9-5.3-9.2-4.7-9.5v-3.2h-1.7v-1h1.7v-2.6h1v2.6h1.4v1h-1.4v2.7c0.4-0.2,0.8-0.4,1.2-0.6v1c-0.4,0.2-0.8,0.4-1.2,0.6v4.1
					c0,0.8-0.4,1.2-1.2,1.2H-6.1z M5.9-9.9V-9H2.4v1.6h2.9v0.9H2.4v1.8c0.6,0.1,1.2,0.1,2,0.1c0.7,0,1.4,0,1.9-0.1L6-3.7
					c-0.6,0-1.1,0-1.5,0c-1.8,0-3.1-0.2-3.8-0.5c-0.5-0.3-1-0.8-1.4-1.6C-1.1-5-1.6-4.2-2.2-3.5l-0.7-0.6c1.1-1.3,1.7-2.7,1.8-4.3
					l0.9,0.1c0,0.5-0.1,1-0.2,1.5C0-6,0.5-5.4,1.1-5.1C1.2-5,1.3-5,1.4-5V-9h-3.5v-0.9H5.9z M5-15.8v4.9h-6.1v-4.9H5z M4-13.7V-15
					h-4.1v1.2H4z M4-13h-4.1v1.2H4V-13z"/>
				<path class="st3" d="M17.3-16c-0.3,0.6-0.6,1.1-1,1.5h3.8v1H7.6v-1h3.8c-0.3-0.6-0.6-1.1-0.9-1.6l1.1-0.2
					c0.3,0.5,0.6,1.1,0.9,1.8h2.7c0.4-0.6,0.8-1.2,1.1-1.8L17.3-16z M11.3-3.5l-0.3-1l1.1,0c0.4,0,0.5-0.2,0.5-0.7v-1.3H9.5v3.1h-1
					v-9h5.1v7.5c0,1-0.4,1.4-1.2,1.4H11.3z M12.6-9.9v-1.6H9.5v1.6H12.6z M12.6-7.4V-9H9.5v1.6H12.6z M16.2-11.8v6h-1v-6H16.2z
					 M16-3.6l-0.2-1c0.6,0,1.2,0.1,1.7,0.1c0.4,0,0.6-0.2,0.6-0.6v-7.7h1v8c0,0.9-0.4,1.3-1.2,1.3H16z"/>
				<path class="st3" d="M24-12.9c0.5-0.5,1-1.2,1.4-1.9h-3.5v-0.9h4.6v0.8c-0.6,1-1.2,1.9-1.9,2.7c0.3,0.3,0.5,0.6,0.7,0.8h1.6v0.6
					c-0.2,1.1-0.5,1.9-0.8,2.6l-0.8-0.3c0.3-0.5,0.5-1.2,0.7-1.9h-1.5v5.9c0,0.7-0.4,1.1-1.1,1.1H22l-0.2-0.9c0.4,0,0.8,0.1,1.2,0.1
					c0.3,0,0.4-0.2,0.4-0.5v-5.6h-2v-0.9h2.7c-0.5-0.6-1.2-1.3-2-2.1l0.7-0.5C23.3-13.6,23.7-13.2,24-12.9z M31.2-11.5V-9
					c0,1.5-0.4,2.7-1,3.6c-0.6,0.8-1.6,1.5-3,1.9l-0.5-0.9c1.3-0.4,2.3-1,2.8-1.7c0.5-0.8,0.7-1.7,0.8-2.9v-2.5H31.2z M34.2-15.7v1
					h-2.8c-0.1,0.5-0.2,1.1-0.3,1.6h2.6v6.6h-1v-5.7h-4v5.7h-1v-6.6h2.3c0.1-0.5,0.2-1,0.3-1.6h-3.1v-1H34.2z M34.3-4.1l-0.7,0.7
					C33-4.2,32.2-5.1,31.1-6l0.6-0.6C32.8-5.8,33.6-5,34.3-4.1z"/>
				<path class="st3" d="M37.6-15.7v-0.6h0.8v0.6h1.5v-0.6h0.8v0.6h1.7v0.7h-1.7v0.6h-0.8v-0.6h-1.5v0.6h-0.7c0,0.1-0.1,0.2-0.1,0.3
					H42c0,1.6-0.1,2.6-0.3,3c-0.1,0.1-0.1,0.2-0.2,0.2l0.5-0.1c0.1,0.3,0.3,0.6,0.4,0.9h5.4v0.7H35.8v-0.7h5.7
					c-0.1-0.2-0.2-0.4-0.4-0.6c-0.2,0.1-0.4,0.1-0.6,0.1H40l-0.1-0.4H37v-1.9h3v1.6h0.3c0.3,0,0.5-0.2,0.6-0.4
					c0.1-0.3,0.1-0.9,0.1-1.8h-3.8c-0.3,0.6-0.7,1.1-1.2,1.6l-0.5-0.7c0.7-0.5,1.1-1.2,1.3-2.1l0.7,0.1v-0.5h-1.7v-0.7H37.6z
					 M46.7-3.3h-1v-0.4h-7.7v0.4h-1V-6h9.7V-3.3z M46.3-8.5v0.6h-8.8v-0.6H46.3z M46.3-7.3v0.6h-8.8v-0.6H46.3z M39.2-12.2h-1.5v0.8
					h1.5V-12.2z M45.8-4.4v-0.9h-7.7v0.9H45.8z M42.6-12.6L42-13.3c0.8-0.8,1.4-1.8,1.7-3.2l0.9,0.2c-0.1,0.3-0.1,0.5-0.2,0.8h3.3
					v0.8h-0.8c-0.2,1-0.6,1.8-1.2,2.4c0.6,0.4,1.4,0.7,2.3,1l-0.5,0.8c-1-0.3-1.8-0.7-2.5-1.2c-0.7,0.5-1.5,0.9-2.5,1.1l-0.4-0.8
					c0.9-0.2,1.6-0.5,2.2-0.9c-0.4-0.4-0.8-0.9-1-1.3C43.2-13.2,42.9-12.8,42.6-12.6z M43.9-14.3c0.2,0.6,0.6,1.2,1.1,1.6
					c0.5-0.5,0.8-1.2,1-1.9h-2C44-14.5,44-14.4,43.9-14.3z"/>
			</g>
		</g>
	</g>
	<g id="Textbasic15" transform="translate(535.1666666666667,80.33333333333333)">
		<rect x="-7.2" y="-18.8" class="st9" width="80" height="20"/>
		<g transform="translate(0 0)">
			<g class="st2">
				<path class="st3" d="M-0.5-13.9c-0.4-0.7-0.8-1.4-1.4-2.1l1-0.4c0.5,0.7,1,1.5,1.5,2.5h5.4v1H3.8C3.1-10.7,2-8.8,0.7-7.3
					C2.1-6.1,4-5,6.3-4.2L5.7-3.4C3.4-4.2,1.5-5.3,0-6.6c-1.6,1.5-3.6,2.5-6,3.2l-0.5-0.9c2.4-0.6,4.3-1.6,5.8-3
					c-1.6-1.6-2.7-3.5-3.4-5.6h-2.2v-1H-0.5z M0-8c1.2-1.4,2.2-3,2.7-4.9h-5.8C-2.5-11-1.5-9.4,0-8z"/>
				<path class="st3" d="M13.3-7.9V-9h1v1.1h5.5V-7h-4.6c1,1,2.6,1.7,4.7,2.3l-0.4,0.9c-2.4-0.8-4.2-1.8-5.2-3.1v3.5h-1V-7
					c-0.9,1.3-2.6,2.4-5.1,3.3L7.7-4.7C10-5.4,11.6-6.1,12.5-7H7.8v-0.9H13.3z M13.8-13.8c-0.3,0.3-0.5,0.6-0.7,0.9h6.3v0.8h-2.4
					c-0.5,0.7-1,1.2-1.6,1.6c1.2,0.3,2.5,0.7,3.8,1.1l-0.6,0.8c-1.4-0.5-2.8-0.9-4.2-1.3C13-9.1,11.1-8.8,8.7-8.8L8.1-9.6
					c2.1,0,3.8-0.2,5-0.6c-1-0.3-1.9-0.5-2.9-0.6c0.4-0.4,0.7-0.8,1.1-1.2h-3v-0.8H12c0.3-0.4,0.6-0.8,0.9-1.2L13.8-13.8z
					 M19.5-13.2h-1v-1.1H9.2v1.1h-1v-2h5.2c-0.2-0.4-0.4-0.7-0.6-1l1-0.2c0.2,0.3,0.4,0.7,0.5,1.2h5.1V-13.2z M16-12h-3.6
					c-0.3,0.3-0.5,0.6-0.7,0.8c0.9,0.1,1.7,0.3,2.6,0.5C15-11.1,15.6-11.5,16-12z"/>
				<path class="st3" d="M21.6-9.5l-0.3-1c1.5-1.7,2.6-3.6,3.3-5.8l0.9,0.4c-0.3,1-0.8,2-1.3,2.9v9.5h-1v-8
					C22.8-10.7,22.2-10.1,21.6-9.5z M28.2-12.9c0-0.3,0-0.6,0-0.8v-2.5h1v2.5c0,0.3,0,0.6,0,0.8h4.7v1h-2.9V-5
					c0,0.3,0.1,0.4,0.4,0.4h1.2c0.2,0,0.3-0.1,0.4-0.2c0.1-0.2,0.2-1,0.3-2.2l0.9,0.3c-0.1,1.5-0.3,2.4-0.4,2.7
					c-0.2,0.3-0.5,0.4-0.9,0.4h-1.7C30.3-3.7,30-4,30-4.8v-7.1h-0.9c-0.3,3.7-1.5,6.5-3.5,8.4l-0.7-0.6c1.9-1.7,3-4.3,3.3-7.8h-2.8
					v-1H28.2z M33.2-14.1l-0.7,0.7c-0.5-0.6-1.2-1.2-2.2-1.9L31-16C31.9-15.4,32.6-14.8,33.2-14.1z"/>
				<path class="st3" d="M40.6-15.9c-0.5,1.2-1.1,2.3-1.9,3.3v9.2h-1v-8c-0.6,0.7-1.3,1.3-2.1,2l-0.3-1.1c2-1.7,3.4-3.7,4.3-5.9
					L40.6-15.9z M43.5-3.7c-1,0-1.5-0.5-1.5-1.5v-4.3c-0.6,0.3-1.2,0.6-1.8,0.9l-0.4-1c0.8-0.4,1.5-0.7,2.3-1.2v-5.6h1v5
					c1.5-1,2.8-2.1,3.9-3.3l0.7,0.8c-1.3,1.4-2.8,2.6-4.6,3.7v4.7c0,0.4,0.2,0.7,0.7,0.7H46c0.4,0,0.6-0.1,0.8-0.3
					C47-5.2,47-6,47.1-7.4L48-7.1c-0.1,1.6-0.3,2.6-0.5,2.9c-0.3,0.3-0.7,0.5-1.4,0.5H43.5z"/>
			</g>
		</g>
	</g>
	<g id="Textbasic16" transform="translate(535.1666666666667,110.33333333333331)">
		<rect x="-7.2" y="-18.8" class="st9" width="80" height="20"/>
		<g transform="translate(0 0)">
			<g class="st2">
				<path class="st3" d="M-6.1-3.6l-0.2-1c0.4,0,0.8,0.1,1.1,0.1c0.3,0,0.5-0.2,0.5-0.5v-3.4C-5.2-8.2-5.8-8-6.3-7.9l-0.2-1
					C-5.9-9-5.3-9.2-4.7-9.5v-3.2h-1.7v-1h1.7v-2.6h1v2.6h1.4v1h-1.4v2.7c0.4-0.2,0.8-0.4,1.2-0.6v1c-0.4,0.2-0.8,0.4-1.2,0.6v4.1
					c0,0.8-0.4,1.2-1.2,1.2H-6.1z M5.9-9.9V-9H2.4v1.6h2.9v0.9H2.4v1.8c0.6,0.1,1.2,0.1,2,0.1c0.7,0,1.4,0,1.9-0.1L6-3.7
					c-0.6,0-1.1,0-1.5,0c-1.8,0-3.1-0.2-3.8-0.5c-0.5-0.3-1-0.8-1.4-1.6C-1.1-5-1.6-4.2-2.2-3.5l-0.7-0.6c1.1-1.3,1.7-2.7,1.8-4.3
					l0.9,0.1c0,0.5-0.1,1-0.2,1.5C0-6,0.5-5.4,1.1-5.1C1.2-5,1.3-5,1.4-5V-9h-3.5v-0.9H5.9z M5-15.8v4.9h-6.1v-4.9H5z M4-13.7V-15
					h-4.1v1.2H4z M4-13h-4.1v1.2H4V-13z"/>
				<path class="st3" d="M14.5-15.1H20v0.9H7.6v-0.9h5.7c-0.1-0.4-0.3-0.7-0.5-1.1l1.1-0.2C14.2-16,14.3-15.6,14.5-15.1z M16.6-3.5
					l-0.2-0.9l1.1,0c0.6,0,0.9-0.2,0.9-0.7v-3.8h-9v5.4h-1v-6.3h11v4.9c0,0.9-0.5,1.3-1.5,1.3H16.6z M17.8-13.3v2.7H9.9v-2.7H17.8z
					 M16.8-12.5h-5.9v1.1h5.9V-12.5z M16.6-7.9v2.8h-5.5v-2.8H16.6z M15.7-7.2H12v1.3h3.7V-7.2z"/>
				<path class="st3" d="M24.1-6.6c-0.5,1.2-1.1,2.3-1.8,3.2l-0.8-0.6c0.7-0.8,1.3-1.8,1.8-3L24.1-6.6z M28.1-16.2v1.4h5.4v1h-5.4
					v1.8h4.5v4.5h-9.3v-4.5h3.8v-4.1H28.1z M31.6-11.2h-7.3v2.6h7.3V-11.2z M27.1-3.6l-1,0.2c-0.2-1.1-0.4-2.2-0.7-3l0.9-0.2
					C26.6-5.7,26.9-4.7,27.1-3.6z M30.3-3.7l-1,0.2c-0.3-1.2-0.6-2.2-1.1-3.2l1-0.2C29.7-5.8,30-4.8,30.3-3.7z M34.2-4l-0.8,0.6
					c-0.5-1-1.2-2-2-3.1l0.8-0.5C33-5.9,33.7-4.9,34.2-4z"/>
				<path class="st3" d="M41.3-14.2v-2h1v2h4.5v1h-4.5v2.3H48v1h-5.7V-5h3.3v-3.7h1v5.3h-1V-4H38v0.6h-1v-5.3h1V-5h3.3v-4.9h-5.7v-1
					h5.7v-2.3h-4.6v-1H41.3z"/>
			</g>
		</g>
	</g>
	<g id="Textbasic18" transform="translate(639.1666666666667,80.33333333333333)">
		<rect x="-7.2" y="-18.8" class="st9" width="80" height="20"/>
		<g transform="translate(0 0)">
			<g class="st2">
				<path class="st3" d="M-4.4-11.3v-4.9h1v4.9h1.7v0.9h-1.7v0.4c0.7,0.7,1.4,1.5,2.1,2.4l-0.6,0.9c-0.6-1-1.1-1.8-1.5-2.4v5.6h-1
					v-5.4c-0.5,1.2-1.1,2.4-1.9,3.4l-0.4-1.1c1-1.1,1.8-2.4,2.2-3.9h-1.9v-0.9H-4.4z M-5-12.2L-5.7-12c-0.2-1-0.4-1.9-0.6-2.9
					l0.7-0.2C-5.4-14.2-5.2-13.3-5-12.2z M-1.5-15.2c-0.1,1.2-0.3,2.2-0.6,3.2l-0.7-0.2c0.3-0.9,0.5-1.9,0.6-3L-1.5-15.2z M3-16.3
					v0.9h2.9v0.8H3v0.9h2.5v0.8H3v1h3.3v0.8h-7.6v-0.8H2v-1h-2.6v-0.8H2v-0.9h-3v-0.8h3v-0.9H3z M0.4-3.5h-1v-6.7h6v5.5
					c0,0.7-0.4,1.1-1.1,1.1h-1L3.1-4.4l1,0.1c0.3,0,0.4-0.2,0.4-0.5v-0.8H0.4V-3.5z M4.5-9.3H0.4v1h4.1V-9.3z M0.4-6.5h4.1v-1H0.4
					V-6.5z"/>
				<path class="st3" d="M10.6-12.6L9.7-12c-0.5-1-1.3-2-2.2-3.2l0.9-0.5C9.3-14.6,10.1-13.5,10.6-12.6z M10.7-9.4
					c-0.6,2.1-1.4,4-2.2,5.8l-1-0.4c0.8-1.9,1.6-3.8,2.2-5.8L10.7-9.4z M13.1-3.4h-1v-8.3c-0.4,0.7-0.9,1.3-1.3,1.9l-0.3-1.1
					c1.2-1.7,2.1-3.5,2.6-5.4l1,0.2c-0.2,0.8-0.5,1.5-0.8,2.2h3c-0.2-0.8-0.5-1.5-0.8-2.2l1-0.3c0.3,0.9,0.6,1.7,0.8,2.4l-0.4,0.1
					h3.2v1h-3v1.9h2.7v0.9h-2.7v1.9h2.7v0.9h-2.7v2.1h3.2v0.9h-7.1V-3.4z M13.1-12.9v1.9H16v-1.9H13.1z M13.1-8.2H16v-1.9h-2.9V-8.2
					z M13.1-5.1H16v-2.1h-2.9V-5.1z"/>
				<path class="st3" d="M32-12.1v1h-3.6v2.5h4.2v1h-4.2v2.9c1,0.1,2.2,0.2,3.6,0.2c0.7,0,1.4,0,2.2-0.1l-0.2,1h-1.6
					c-2.8,0-4.8-0.3-6.1-0.8c-0.9-0.4-1.7-1.1-2.3-2c-0.5,1.2-1.2,2.2-2,3l-0.6-0.8c1.3-1.4,2.2-3.3,2.7-5.8l1,0.2
					C25-9,24.7-8.2,24.5-7.5c0.7,1.2,1.5,2,2.5,2.3c0.1,0,0.3,0.1,0.4,0.1v-6.1h-3.7v-1H32z M33.6-11.9h-1v-2.1h-9.5v2.1h-1v-3.1
					h5.4c-0.2-0.5-0.4-1-0.7-1.4l1.1-0.2c0.2,0.5,0.4,1,0.6,1.6h5.1V-11.9z"/>
				<path class="st3" d="M42-16.2c-0.2,0.7-0.4,1.3-0.7,1.9h6.2v9.3c0,0.9-0.4,1.4-1.3,1.4h-2.1l-0.3-1l2,0c0.4,0,0.6-0.2,0.6-0.6
					v-8.2h-9.1v9.8h-1v-10.8h3.9c0.3-0.7,0.6-1.4,0.7-2.1L42-16.2z M44.4-11.3v4.9h-5.2v-4.9H44.4z M43.5-10.3h-3.2v3h3.2V-10.3z"/>
			</g>
		</g>
	</g>
	<g id="Textbasic19" transform="translate(639.1666666666667,110.33333333333331)">
		<rect x="-7.2" y="-18.8" class="st9" width="80" height="20"/>
		<g transform="translate(0 0)">
			<g class="st2">
				<path class="st3" d="M-6.1-3.6l-0.2-1c0.4,0,0.8,0.1,1.1,0.1c0.3,0,0.5-0.2,0.5-0.5v-3.4C-5.2-8.2-5.8-8-6.3-7.9l-0.2-1
					C-5.9-9-5.3-9.2-4.7-9.5v-3.2h-1.7v-1h1.7v-2.6h1v2.6h1.4v1h-1.4v2.7c0.4-0.2,0.8-0.4,1.2-0.6v1c-0.4,0.2-0.8,0.4-1.2,0.6v4.1
					c0,0.8-0.4,1.2-1.2,1.2H-6.1z M5.9-9.9V-9H2.4v1.6h2.9v0.9H2.4v1.8c0.6,0.1,1.2,0.1,2,0.1c0.7,0,1.4,0,1.9-0.1L6-3.7
					c-0.6,0-1.1,0-1.5,0c-1.8,0-3.1-0.2-3.8-0.5c-0.5-0.3-1-0.8-1.4-1.6C-1.1-5-1.6-4.2-2.2-3.5l-0.7-0.6c1.1-1.3,1.7-2.7,1.8-4.3
					l0.9,0.1c0,0.5-0.1,1-0.2,1.5C0-6,0.5-5.4,1.1-5.1C1.2-5,1.3-5,1.4-5V-9h-3.5v-0.9H5.9z M5-15.8v4.9h-6.1v-4.9H5z M4-13.7V-15
					h-4.1v1.2H4z M4-13h-4.1v1.2H4V-13z"/>
				<path class="st3" d="M14.5-15.1H20v0.9H7.6v-0.9h5.7c-0.1-0.4-0.3-0.7-0.5-1.1l1.1-0.2C14.2-16,14.3-15.6,14.5-15.1z M16.6-3.5
					l-0.2-0.9l1.1,0c0.6,0,0.9-0.2,0.9-0.7v-3.8h-9v5.4h-1v-6.3h11v4.9c0,0.9-0.5,1.3-1.5,1.3H16.6z M17.8-13.3v2.7H9.9v-2.7H17.8z
					 M16.8-12.5h-5.9v1.1h5.9V-12.5z M16.6-7.9v2.8h-5.5v-2.8H16.6z M15.7-7.2H12v1.3h3.7V-7.2z"/>
				<path class="st3" d="M25.2-12.4v2.1h1.6v0.9h-1.6v1.9c0.7-0.1,1.3-0.3,1.9-0.4v1c-0.6,0.2-1.3,0.3-1.9,0.5v3h-1v-2.8
					c-0.9,0.2-1.8,0.3-2.7,0.4l-0.1-1c1-0.1,1.9-0.3,2.8-0.4v-2.1h-2.4l-0.2-0.9c0.4-0.8,0.8-1.9,1.1-3.2h-1.4v-1H23
					c0.1-0.6,0.3-1.2,0.4-1.9l1,0.1c-0.1,0.6-0.3,1.2-0.4,1.7h2.7v1h-2.9c-0.3,1.2-0.7,2.3-1.1,3.2h1.5v-2.1H25.2z M29.5-14.4
					c0.1-0.6,0.2-1.2,0.3-1.9l1,0.1c-0.1,0.6-0.2,1.2-0.3,1.8h3.4v1h-3.6L30-11.9h4.3v1h-4.6c-0.2,0.6-0.4,1.2-0.5,1.8h4.5v0.8
					c-0.5,1-1.2,1.9-2.2,2.9c0.6,0.3,1.1,0.7,1.6,1.1l-0.6,0.9c-1.5-1.1-3-2-4.5-2.7l0.5-0.8c0.7,0.3,1.4,0.7,2.1,1
					c0.8-0.7,1.5-1.5,2-2.3h-4.7c0.3-0.9,0.5-1.8,0.8-2.7h-1.8v-1h2c0.1-0.5,0.3-1.1,0.4-1.6h-2v-1H29.5z"/>
				<path class="st3" d="M40.6-15.9c-0.5,1.2-1.1,2.3-1.9,3.3v9.2h-1v-8c-0.6,0.7-1.3,1.3-2.1,2l-0.3-1.1c2-1.7,3.4-3.7,4.3-5.9
					L40.6-15.9z M43.5-3.7c-1,0-1.5-0.5-1.5-1.5v-4.3c-0.6,0.3-1.2,0.6-1.8,0.9l-0.4-1c0.8-0.4,1.5-0.7,2.3-1.2v-5.6h1v5
					c1.5-1,2.8-2.1,3.9-3.3l0.7,0.8c-1.3,1.4-2.8,2.6-4.6,3.7v4.7c0,0.4,0.2,0.7,0.7,0.7H46c0.4,0,0.6-0.1,0.8-0.3
					C47-5.2,47-6,47.1-7.4L48-7.1c-0.1,1.6-0.3,2.6-0.5,2.9c-0.3,0.3-0.7,0.5-1.4,0.5H43.5z"/>
			</g>
		</g>
	</g>
	<g id="Textbasic30" transform="translate(587.1666666666667,320.3333333333333)">
		<rect x="-7.2" y="-18.8" class="st9" width="80" height="20"/>
		<g transform="translate(0 0)">
			<g class="st2">
				<path class="st3" d="M-4.4-11.3v-4.9h1v4.9h1.7v0.9h-1.7v0.4c0.7,0.7,1.4,1.5,2.1,2.4l-0.6,0.9c-0.6-1-1.1-1.8-1.5-2.4v5.6h-1
					v-5.4c-0.5,1.2-1.1,2.4-1.9,3.4l-0.4-1.1c1-1.1,1.8-2.4,2.2-3.9h-1.9v-0.9H-4.4z M-5-12.2L-5.7-12c-0.2-1-0.4-1.9-0.6-2.9
					l0.7-0.2C-5.4-14.2-5.2-13.3-5-12.2z M-1.5-15.2c-0.1,1.2-0.3,2.2-0.6,3.2l-0.7-0.2c0.3-0.9,0.5-1.9,0.6-3L-1.5-15.2z M3-16.3
					v0.9h2.9v0.8H3v0.9h2.5v0.8H3v1h3.3v0.8h-7.6v-0.8H2v-1h-2.6v-0.8H2v-0.9h-3v-0.8h3v-0.9H3z M0.4-3.5h-1v-6.7h6v5.5
					c0,0.7-0.4,1.1-1.1,1.1h-1L3.1-4.4l1,0.1c0.3,0,0.4-0.2,0.4-0.5v-0.8H0.4V-3.5z M4.5-9.3H0.4v1h4.1V-9.3z M0.4-6.5h4.1v-1H0.4
					V-6.5z"/>
				<path class="st3" d="M10.6-12.6L9.7-12c-0.5-1-1.3-2-2.2-3.2l0.9-0.5C9.3-14.6,10.1-13.5,10.6-12.6z M10.7-9.4
					c-0.6,2.1-1.4,4-2.2,5.8l-1-0.4c0.8-1.9,1.6-3.8,2.2-5.8L10.7-9.4z M13.1-3.4h-1v-8.3c-0.4,0.7-0.9,1.3-1.3,1.9l-0.3-1.1
					c1.2-1.7,2.1-3.5,2.6-5.4l1,0.2c-0.2,0.8-0.5,1.5-0.8,2.2h3c-0.2-0.8-0.5-1.5-0.8-2.2l1-0.3c0.3,0.9,0.6,1.7,0.8,2.4l-0.4,0.1
					h3.2v1h-3v1.9h2.7v0.9h-2.7v1.9h2.7v0.9h-2.7v2.1h3.2v0.9h-7.1V-3.4z M13.1-12.9v1.9H16v-1.9H13.1z M13.1-8.2H16v-1.9h-2.9V-8.2
					z M13.1-5.1H16v-2.1h-2.9V-5.1z"/>
				<path class="st3" d="M32-12.1v1h-3.6v2.5h4.2v1h-4.2v2.9c1,0.1,2.2,0.2,3.6,0.2c0.7,0,1.4,0,2.2-0.1l-0.2,1h-1.6
					c-2.8,0-4.8-0.3-6.1-0.8c-0.9-0.4-1.7-1.1-2.3-2c-0.5,1.2-1.2,2.2-2,3l-0.6-0.8c1.3-1.4,2.2-3.3,2.7-5.8l1,0.2
					C25-9,24.7-8.2,24.5-7.5c0.7,1.2,1.5,2,2.5,2.3c0.1,0,0.3,0.1,0.4,0.1v-6.1h-3.7v-1H32z M33.6-11.9h-1v-2.1h-9.5v2.1h-1v-3.1
					h5.4c-0.2-0.5-0.4-1-0.7-1.4l1.1-0.2c0.2,0.5,0.4,1,0.6,1.6h5.1V-11.9z"/>
				<path class="st3" d="M42-16.2c-0.2,0.7-0.4,1.3-0.7,1.9h6.2v9.3c0,0.9-0.4,1.4-1.3,1.4h-2.1l-0.3-1l2,0c0.4,0,0.6-0.2,0.6-0.6
					v-8.2h-9.1v9.8h-1v-10.8h3.9c0.3-0.7,0.6-1.4,0.7-2.1L42-16.2z M44.4-11.3v4.9h-5.2v-4.9H44.4z M43.5-10.3h-3.2v3h3.2V-10.3z"/>
			</g>
		</g>
	</g>
	<g id="Textbasic31" transform="translate(587.1666666666667,350.3333333333333)">
		<rect x="-7.2" y="-18.8" class="st9" width="80" height="20"/>
		<g transform="translate(0 0)">
			<g class="st2">
				<path class="st3" d="M-6.1-3.6l-0.2-1c0.4,0,0.8,0.1,1.1,0.1c0.3,0,0.5-0.2,0.5-0.5v-3.4C-5.2-8.2-5.8-8-6.3-7.9l-0.2-1
					C-5.9-9-5.3-9.2-4.7-9.5v-3.2h-1.7v-1h1.7v-2.6h1v2.6h1.4v1h-1.4v2.7c0.4-0.2,0.8-0.4,1.2-0.6v1c-0.4,0.2-0.8,0.4-1.2,0.6v4.1
					c0,0.8-0.4,1.2-1.2,1.2H-6.1z M5.9-9.9V-9H2.4v1.6h2.9v0.9H2.4v1.8c0.6,0.1,1.2,0.1,2,0.1c0.7,0,1.4,0,1.9-0.1L6-3.7
					c-0.6,0-1.1,0-1.5,0c-1.8,0-3.1-0.2-3.8-0.5c-0.5-0.3-1-0.8-1.4-1.6C-1.1-5-1.6-4.2-2.2-3.5l-0.7-0.6c1.1-1.3,1.7-2.7,1.8-4.3
					l0.9,0.1c0,0.5-0.1,1-0.2,1.5C0-6,0.5-5.4,1.1-5.1C1.2-5,1.3-5,1.4-5V-9h-3.5v-0.9H5.9z M5-15.8v4.9h-6.1v-4.9H5z M4-13.7V-15
					h-4.1v1.2H4z M4-13h-4.1v1.2H4V-13z"/>
				<path class="st3" d="M14.5-15.1H20v0.9H7.6v-0.9h5.7c-0.1-0.4-0.3-0.7-0.5-1.1l1.1-0.2C14.2-16,14.3-15.6,14.5-15.1z M16.6-3.5
					l-0.2-0.9l1.1,0c0.6,0,0.9-0.2,0.9-0.7v-3.8h-9v5.4h-1v-6.3h11v4.9c0,0.9-0.5,1.3-1.5,1.3H16.6z M17.8-13.3v2.7H9.9v-2.7H17.8z
					 M16.8-12.5h-5.9v1.1h5.9V-12.5z M16.6-7.9v2.8h-5.5v-2.8H16.6z M15.7-7.2H12v1.3h3.7V-7.2z"/>
				<path class="st3" d="M25.2-12.4v2.1h1.6v0.9h-1.6v1.9c0.7-0.1,1.3-0.3,1.9-0.4v1c-0.6,0.2-1.3,0.3-1.9,0.5v3h-1v-2.8
					c-0.9,0.2-1.8,0.3-2.7,0.4l-0.1-1c1-0.1,1.9-0.3,2.8-0.4v-2.1h-2.4l-0.2-0.9c0.4-0.8,0.8-1.9,1.1-3.2h-1.4v-1H23
					c0.1-0.6,0.3-1.2,0.4-1.9l1,0.1c-0.1,0.6-0.3,1.2-0.4,1.7h2.7v1h-2.9c-0.3,1.2-0.7,2.3-1.1,3.2h1.5v-2.1H25.2z M29.5-14.4
					c0.1-0.6,0.2-1.2,0.3-1.9l1,0.1c-0.1,0.6-0.2,1.2-0.3,1.8h3.4v1h-3.6L30-11.9h4.3v1h-4.6c-0.2,0.6-0.4,1.2-0.5,1.8h4.5v0.8
					c-0.5,1-1.2,1.9-2.2,2.9c0.6,0.3,1.1,0.7,1.6,1.1l-0.6,0.9c-1.5-1.1-3-2-4.5-2.7l0.5-0.8c0.7,0.3,1.4,0.7,2.1,1
					c0.8-0.7,1.5-1.5,2-2.3h-4.7c0.3-0.9,0.5-1.8,0.8-2.7h-1.8v-1h2c0.1-0.5,0.3-1.1,0.4-1.6h-2v-1H29.5z"/>
				<path class="st3" d="M40.6-15.9c-0.5,1.2-1.1,2.3-1.9,3.3v9.2h-1v-8c-0.6,0.7-1.3,1.3-2.1,2l-0.3-1.1c2-1.7,3.4-3.7,4.3-5.9
					L40.6-15.9z M43.5-3.7c-1,0-1.5-0.5-1.5-1.5v-4.3c-0.6,0.3-1.2,0.6-1.8,0.9l-0.4-1c0.8-0.4,1.5-0.7,2.3-1.2v-5.6h1v5
					c1.5-1,2.8-2.1,3.9-3.3l0.7,0.8c-1.3,1.4-2.8,2.6-4.6,3.7v4.7c0,0.4,0.2,0.7,0.7,0.7H46c0.4,0,0.6-0.1,0.8-0.3
					C47-5.2,47-6,47.1-7.4L48-7.1c-0.1,1.6-0.3,2.6-0.5,2.9c-0.3,0.3-0.7,0.5-1.4,0.5H43.5z"/>
			</g>
		</g>
	</g>
	<g id="Textbasic34" transform="translate(398.16666666666674,322.3333333333333)">
		<rect x="-7.2" y="-18.8" class="st9" width="80" height="20"/>
		<g transform="translate(0 0)">
			<g class="st2">
				<path class="st3" d="M-4.4-11.3v-4.9h1v4.9h1.7v0.9h-1.7v0.4c0.7,0.7,1.4,1.5,2.1,2.4l-0.6,0.9c-0.6-1-1.1-1.8-1.5-2.4v5.6h-1
					v-5.4c-0.5,1.2-1.1,2.4-1.9,3.4l-0.4-1.1c1-1.1,1.8-2.4,2.2-3.9h-1.9v-0.9H-4.4z M-5-12.2L-5.7-12c-0.2-1-0.4-1.9-0.6-2.9
					l0.7-0.2C-5.4-14.2-5.2-13.3-5-12.2z M-1.5-15.2c-0.1,1.2-0.3,2.2-0.6,3.2l-0.7-0.2c0.3-0.9,0.5-1.9,0.6-3L-1.5-15.2z M3-16.3
					v0.9h2.9v0.8H3v0.9h2.5v0.8H3v1h3.3v0.8h-7.6v-0.8H2v-1h-2.6v-0.8H2v-0.9h-3v-0.8h3v-0.9H3z M0.4-3.5h-1v-6.7h6v5.5
					c0,0.7-0.4,1.1-1.1,1.1h-1L3.1-4.4l1,0.1c0.3,0,0.4-0.2,0.4-0.5v-0.8H0.4V-3.5z M4.5-9.3H0.4v1h4.1V-9.3z M0.4-6.5h4.1v-1H0.4
					V-6.5z"/>
				<path class="st3" d="M10.6-12.6L9.7-12c-0.5-1-1.3-2-2.2-3.2l0.9-0.5C9.3-14.6,10.1-13.5,10.6-12.6z M10.7-9.4
					c-0.6,2.1-1.4,4-2.2,5.8l-1-0.4c0.8-1.9,1.6-3.8,2.2-5.8L10.7-9.4z M13.1-3.4h-1v-8.3c-0.4,0.7-0.9,1.3-1.3,1.9l-0.3-1.1
					c1.2-1.7,2.1-3.5,2.6-5.4l1,0.2c-0.2,0.8-0.5,1.5-0.8,2.2h3c-0.2-0.8-0.5-1.5-0.8-2.2l1-0.3c0.3,0.9,0.6,1.7,0.8,2.4l-0.4,0.1
					h3.2v1h-3v1.9h2.7v0.9h-2.7v1.9h2.7v0.9h-2.7v2.1h3.2v0.9h-7.1V-3.4z M13.1-12.9v1.9H16v-1.9H13.1z M13.1-8.2H16v-1.9h-2.9V-8.2
					z M13.1-5.1H16v-2.1h-2.9V-5.1z"/>
				<path class="st3" d="M32-12.1v1h-3.6v2.5h4.2v1h-4.2v2.9c1,0.1,2.2,0.2,3.6,0.2c0.7,0,1.4,0,2.2-0.1l-0.2,1h-1.6
					c-2.8,0-4.8-0.3-6.1-0.8c-0.9-0.4-1.7-1.1-2.3-2c-0.5,1.2-1.2,2.2-2,3l-0.6-0.8c1.3-1.4,2.2-3.3,2.7-5.8l1,0.2
					C25-9,24.7-8.2,24.5-7.5c0.7,1.2,1.5,2,2.5,2.3c0.1,0,0.3,0.1,0.4,0.1v-6.1h-3.7v-1H32z M33.6-11.9h-1v-2.1h-9.5v2.1h-1v-3.1
					h5.4c-0.2-0.5-0.4-1-0.7-1.4l1.1-0.2c0.2,0.5,0.4,1,0.6,1.6h5.1V-11.9z"/>
				<path class="st3" d="M42-16.2c-0.2,0.7-0.4,1.3-0.7,1.9h6.2v9.3c0,0.9-0.4,1.4-1.3,1.4h-2.1l-0.3-1l2,0c0.4,0,0.6-0.2,0.6-0.6
					v-8.2h-9.1v9.8h-1v-10.8h3.9c0.3-0.7,0.6-1.4,0.7-2.1L42-16.2z M44.4-11.3v4.9h-5.2v-4.9H44.4z M43.5-10.3h-3.2v3h3.2V-10.3z"/>
			</g>
		</g>
	</g>
	<g id="Textbasic35" transform="translate(398.16666666666674,352.3333333333333)">
		<rect x="-7.2" y="-18.8" class="st9" width="80" height="20"/>
		<g transform="translate(0 0)">
			<g class="st2">
				<path class="st3" d="M-6.1-3.6l-0.2-1c0.4,0,0.8,0.1,1.1,0.1c0.3,0,0.5-0.2,0.5-0.5v-3.4C-5.2-8.2-5.8-8-6.3-7.9l-0.2-1
					C-5.9-9-5.3-9.2-4.7-9.5v-3.2h-1.7v-1h1.7v-2.6h1v2.6h1.4v1h-1.4v2.7c0.4-0.2,0.8-0.4,1.2-0.6v1c-0.4,0.2-0.8,0.4-1.2,0.6v4.1
					c0,0.8-0.4,1.2-1.2,1.2H-6.1z M5.9-9.9V-9H2.4v1.6h2.9v0.9H2.4v1.8c0.6,0.1,1.2,0.1,2,0.1c0.7,0,1.4,0,1.9-0.1L6-3.7
					c-0.6,0-1.1,0-1.5,0c-1.8,0-3.1-0.2-3.8-0.5c-0.5-0.3-1-0.8-1.4-1.6C-1.1-5-1.6-4.2-2.2-3.5l-0.7-0.6c1.1-1.3,1.7-2.7,1.8-4.3
					l0.9,0.1c0,0.5-0.1,1-0.2,1.5C0-6,0.5-5.4,1.1-5.1C1.2-5,1.3-5,1.4-5V-9h-3.5v-0.9H5.9z M5-15.8v4.9h-6.1v-4.9H5z M4-13.7V-15
					h-4.1v1.2H4z M4-13h-4.1v1.2H4V-13z"/>
				<path class="st3" d="M14.5-15.1H20v0.9H7.6v-0.9h5.7c-0.1-0.4-0.3-0.7-0.5-1.1l1.1-0.2C14.2-16,14.3-15.6,14.5-15.1z M16.6-3.5
					l-0.2-0.9l1.1,0c0.6,0,0.9-0.2,0.9-0.7v-3.8h-9v5.4h-1v-6.3h11v4.9c0,0.9-0.5,1.3-1.5,1.3H16.6z M17.8-13.3v2.7H9.9v-2.7H17.8z
					 M16.8-12.5h-5.9v1.1h5.9V-12.5z M16.6-7.9v2.8h-5.5v-2.8H16.6z M15.7-7.2H12v1.3h3.7V-7.2z"/>
				<path class="st3" d="M25.2-12.4v2.1h1.6v0.9h-1.6v1.9c0.7-0.1,1.3-0.3,1.9-0.4v1c-0.6,0.2-1.3,0.3-1.9,0.5v3h-1v-2.8
					c-0.9,0.2-1.8,0.3-2.7,0.4l-0.1-1c1-0.1,1.9-0.3,2.8-0.4v-2.1h-2.4l-0.2-0.9c0.4-0.8,0.8-1.9,1.1-3.2h-1.4v-1H23
					c0.1-0.6,0.3-1.2,0.4-1.9l1,0.1c-0.1,0.6-0.3,1.2-0.4,1.7h2.7v1h-2.9c-0.3,1.2-0.7,2.3-1.1,3.2h1.5v-2.1H25.2z M29.5-14.4
					c0.1-0.6,0.2-1.2,0.3-1.9l1,0.1c-0.1,0.6-0.2,1.2-0.3,1.8h3.4v1h-3.6L30-11.9h4.3v1h-4.6c-0.2,0.6-0.3,1.2-0.5,1.8h4.5v0.8
					c-0.5,1-1.2,1.9-2.2,2.9c0.6,0.3,1.1,0.7,1.6,1.1l-0.6,0.9c-1.5-1.1-3-2-4.5-2.7l0.5-0.8c0.7,0.3,1.4,0.7,2.1,1
					c0.8-0.7,1.5-1.5,2-2.3h-4.7c0.3-0.9,0.5-1.8,0.8-2.7h-1.8v-1h2c0.1-0.5,0.3-1.1,0.4-1.6h-2v-1H29.5z"/>
				<path class="st3" d="M40.6-15.9c-0.5,1.2-1.1,2.3-1.9,3.3v9.2h-1v-8c-0.6,0.7-1.3,1.3-2.1,2l-0.3-1.1c2-1.7,3.4-3.7,4.3-5.9
					L40.6-15.9z M43.5-3.7c-1,0-1.5-0.5-1.5-1.5v-4.3c-0.6,0.3-1.2,0.6-1.8,0.9l-0.4-1c0.8-0.4,1.5-0.7,2.3-1.2v-5.6h1v5
					c1.5-1,2.8-2.1,3.9-3.3l0.7,0.8c-1.3,1.4-2.8,2.6-4.6,3.7v4.7c0,0.4,0.2,0.7,0.7,0.7H46c0.4,0,0.6-0.1,0.8-0.3
					c0.2-0.2,0.3-1,0.3-2.4L48-7.1c-0.1,1.6-0.3,2.6-0.5,2.9c-0.3,0.3-0.7,0.5-1.4,0.5H43.5z"/>
			</g>
		</g>
	</g>
	<g id="Textbasic38" transform="translate(189.16666666666674,322.3333333333333)">
		<rect x="-7.2" y="-18.8" class="st9" width="80" height="20"/>
		<g transform="translate(0 0)">
			<g class="st2">
				<path class="st3" d="M3.3-16c-0.3,0.6-0.6,1.1-1,1.5h3.8v1H-6.4v-1h3.8c-0.3-0.6-0.6-1.1-0.9-1.6l1.1-0.2
					c0.3,0.5,0.6,1.1,0.9,1.8h2.7c0.4-0.6,0.8-1.2,1.1-1.8L3.3-16z M-2.7-3.5l-0.3-1l1.1,0c0.4,0,0.5-0.2,0.5-0.7v-1.3h-3.1v3.1h-1
					v-9h5.1v7.5c0,1-0.4,1.4-1.2,1.4H-2.7z M-1.4-9.9v-1.6h-3.1v1.6H-1.4z M-1.4-7.4V-9h-3.1v1.6H-1.4z M2.2-11.8v6h-1v-6H2.2z
					 M2-3.6l-0.2-1c0.6,0,1.2,0.1,1.7,0.1c0.4,0,0.6-0.2,0.6-0.6v-7.7h1v8c0,0.9-0.4,1.3-1.2,1.3H2z"/>
				<path class="st3" d="M13.3-12.3l0.1-0.8H8.8v-2.6h10.1v2.6h-4.5l-0.1,0.8h5.6v0.8h-5.7c-0.1,0.3-0.1,0.5-0.2,0.8h4.1v6.2h2v0.8
					H7.6v-0.8h2v-6.2H13c0.1-0.3,0.1-0.5,0.2-0.8H7.8v-0.8H13.3z M11.8-15H9.7v1.2h2.1V-15z M17.1-9.2V-10h-6.5v0.9H17.1z M17.1-7.6
					v-0.9h-6.5v0.9H17.1z M17.1-6.1V-7h-6.5v0.9H17.1z M17.1-4.6v-0.9h-6.5v0.9H17.1z M14.9-15h-2.2v1.2h2.2V-15z M18-15h-2.1v1.2
					H18V-15z"/>
				<path class="st3" d="M32.1-15.7v5.6c0,2.3,0.1,3.8,0.2,4.4c0.2,0.6,0.3,1,0.6,1c0.2,0,0.3-0.6,0.5-1.9l0.9,0.4
					c-0.2,1-0.4,1.8-0.5,2.2c-0.2,0.3-0.4,0.5-0.7,0.5c-0.7,0-1.1-0.4-1.5-1.3c-0.3-0.9-0.5-2.6-0.5-5.2v-4.6h-7v4.5
					c0,2.7-0.6,5-1.7,6.8l-0.8-0.7c1-1.6,1.5-3.7,1.5-6.2v-5.4H32.1z M27.8-10.2c0.6-1.1,1-2.2,1.3-3.4l1,0.2
					c-0.4,1.5-1,2.9-1.7,4.1c0.9,1.2,1.6,2.3,2.2,3.3l-0.9,0.6c-0.6-1-1.2-2-1.9-3C27-7.1,26-6,24.8-5.1l-0.7-0.9
					c1.2-1,2.3-2,3.1-3.3c-0.8-1.1-1.6-2.2-2.5-3.3l0.8-0.5C26.4-12.1,27.1-11.1,27.8-10.2z"/>
				<path class="st3" d="M35.9-3.6l-0.2-1c0.4,0,0.7,0.1,1.1,0.1c0.4,0,0.5-0.2,0.5-0.5v-3.4c-0.6,0.2-1.1,0.4-1.7,0.6l-0.3-1
					c0.7-0.2,1.3-0.4,1.9-0.6v-3.1h-1.7v-1h1.7v-2.7h1v2.7h1.2v1h-1.2v2.7c0.4-0.2,0.8-0.4,1.2-0.6v1c-0.4,0.2-0.8,0.4-1.2,0.6v4.1
					c0,0.8-0.4,1.2-1.2,1.2H35.9z M40.2-7.9v-0.9h7.5v0.9h-3.2v3.1h3.7v1h-8.6v-1h3.8v-3.1H40.2z M44.6-14.7h3.3v2.6h-0.9v-1.7h-5.9
					v1.7h-1v-2.6h3.5c-0.2-0.6-0.5-1.1-0.7-1.5l1-0.2C44.1-15.9,44.4-15.4,44.6-14.7z M43.5-12.6c-0.6,1.4-1.5,2.5-2.5,3.2l-0.7-0.6
					c1.1-0.7,1.8-1.7,2.4-2.9L43.5-12.6z M47.6-10l-0.9,0.4c-0.7-1.1-1.4-2.2-2.3-3.1l0.9-0.4C46.2-12.1,46.9-11.1,47.6-10z"/>
			</g>
		</g>
	</g>
	<g id="Textbasic39" transform="translate(189.16666666666674,352.3333333333333)">
		<rect x="-7.2" y="-18.8" class="st9" width="84" height="20"/>
		<g transform="translate(0 0)">
			<g class="st2">
				<path class="st3" d="M-3.4-9.6c-0.6,2.1-1.4,4-2.2,5.8l-0.9-0.4C-5.7-6.1-4.9-8-4.3-10L-3.4-9.6z M-3.6-12.6L-4.4-12
					c-0.5-0.9-1.2-2-2-3.1l0.8-0.5C-4.8-14.5-4.1-13.5-3.6-12.6z M5.7-11.9c-0.4,2-1,3.6-1.8,5C4.1-6.4,4.2-6,4.3-5.7
					c0.3,0.7,0.6,1.1,0.8,1.1c0.2,0,0.3-0.9,0.3-2.5l0.8,0.4c0,2.1-0.4,3.1-1.1,3.1c-0.5,0-0.9-0.4-1.4-1.2C3.7-5,3.5-5.5,3.4-6
					c-0.7,1-1.6,1.8-2.5,2.4L0.3-4.3c1.1-0.6,2-1.6,2.8-2.8C2.9-7.7,2.8-8.3,2.7-8.9c-0.2-1.4-0.4-2.9-0.5-4.5h-4v3.9
					C-1.8-7-2.4-5-3.4-3.5l-0.7-0.7c0.9-1.3,1.4-3.1,1.4-5.4v-4.8h4.8c0-0.6,0-1.3,0-1.9h0.9c0,0.6,0,1.3,0,1.9h1.4
					c-0.2-0.5-0.5-1-0.8-1.4l0.8-0.1c0.3,0.4,0.5,1,0.7,1.5H6v0.9H3.2c0.1,1.2,0.2,2.5,0.3,3.7c0.1,0.5,0.1,1,0.2,1.4
					c0.5-1.1,0.9-2.4,1.2-3.9L5.7-11.9z M1.7-12.2v0.9h-2.8v-0.9H1.7z M1.7-10.2v4.1H-1v-4.1H1.7z M1-9.5h-1.2v2.6H1V-9.5z"/>
				<path class="st3" d="M11.4-14.2c-0.7,2.2-1.7,3.9-2.9,5.1L7.6-9.9c1.2-1.2,2.2-2.8,2.8-4.7L11.4-14.2z M18.1-9.7
					c-1.6,3.3-4.9,5.4-9.7,6.3l-0.6-1c4.7-0.9,7.9-2.9,9.4-5.9L18.1-9.7z M14.4-16.2v8.1h-1v-8.1H14.4z M20.4-9.8l-1,0.5
					c-1.1-1.9-2.3-3.6-3.6-5.1l0.9-0.4C18.1-13.3,19.3-11.6,20.4-9.8z"/>
				<path class="st3" d="M33-14.8l-0.6,0.6H34v1h-4.3c0.1,1.7,0.3,3.1,0.5,4.1c0.1,0.3,0.2,0.7,0.3,1c0.7-1.1,1.3-2.4,1.7-3.9
					l0.9,0.4c-0.6,1.8-1.3,3.4-2.2,4.7c0.2,0.4,0.4,0.8,0.6,1.2c0.5,0.7,0.8,1,1.1,1c0.3,0,0.5-0.7,0.7-2.2l0.9,0.5
					c-0.3,1.9-0.8,2.8-1.4,2.8c-0.6,0-1.2-0.4-1.9-1.3c-0.3-0.3-0.5-0.7-0.7-1.2c-1,1.1-2.1,2-3.4,2.6l-0.6-0.8
					c1.4-0.6,2.6-1.6,3.6-2.8c-0.2-0.5-0.4-1.1-0.5-1.7c-0.3-1.2-0.5-2.6-0.6-4.4h-4.8v2.3h3.4c0,2.4-0.1,3.9-0.3,4.6
					c-0.2,0.6-0.6,0.9-1.3,0.9c-0.3,0-0.7,0-1.2-0.1l-0.3-0.9c0.5,0,1,0,1.4,0c0.3,0,0.5-0.2,0.6-0.6c0.1-0.5,0.1-1.5,0.2-3h-2.4
					v0.4c-0.1,2.5-0.6,4.5-1.7,6l-0.8-0.7c0.9-1.3,1.4-3.1,1.4-5.4v-4.7h5.8c0-0.7,0-1.4,0-2.2h1c0,0.8,0,1.5,0,2.2h2.6
					c-0.4-0.5-1-1-1.7-1.6l0.6-0.6C31.9-15.8,32.5-15.3,33-14.8z"/>
				<path class="st3" d="M41.3-13.7v-2.5h1v2.5h5.5v1h-4.6c0.9,2.2,2.6,4.2,5,6l-0.7,0.9c-2.5-2-4.2-4.3-5.1-6.8h-0.1v5.5h3v1h-3
					v2.9h-1v-2.9h-2.9v-1h2.9v-5.5h-0.1c-1,2.8-2.8,5.2-5.3,7l-0.6-0.9c2.4-1.6,4-3.6,5.1-6.1h-4.6v-1H41.3z"/>
				<path class="st3" d="M52.8-10.7l-0.7,0.7c-0.6-0.7-1.4-1.4-2.5-2.1l0.7-0.7C51.3-12.1,52.1-11.4,52.8-10.7z M53.2-8.5
					c-0.7,1.8-1.4,3.4-2.3,4.9l-1-0.4c0.9-1.6,1.7-3.2,2.4-4.9L53.2-8.5z M53.3-14l-0.7,0.7c-0.6-0.7-1.5-1.4-2.6-2.1l0.7-0.7
					C51.7-15.4,52.6-14.7,53.3-14z M61.9-7.8c-0.6,0.7-1.3,1.2-2.2,1.6c0.7,0.8,1.5,1.4,2.5,1.9l-0.5,0.9c-2.5-1.4-4-3.3-4.5-5.8H55
					v4.7c1-0.2,1.9-0.5,2.9-0.8l0.2,0.9c-1.1,0.4-2.6,0.7-4.4,1l-0.2-0.9C53.9-4.5,54-4.7,54-4.9v-10.2h2.8
					c-0.2-0.4-0.4-0.8-0.7-1.1l1-0.2c0.2,0.4,0.4,0.8,0.7,1.3H61v5.8h-2.8c0.2,0.8,0.5,1.6,1,2.3c0.7-0.3,1.4-0.9,2-1.5L61.9-7.8z
					 M60-14.1h-5v1.5h5V-14.1z M55-10.2h5v-1.5h-5V-10.2z"/>
				<path class="st3" d="M70.5-7.9c-0.2,1.6-0.6,2.7-1.3,3.2c-0.7,0.7-2.3,1.1-4.9,1.3L64-4.3c2.2-0.1,3.7-0.4,4.4-1
					c0.6-0.5,1-1.5,1.1-2.7L70.5-7.9z M71.8-12.2h3.8c0,1-0.1,1.7-0.3,1.9c-0.2,0.3-0.7,0.5-1.5,0.5c-0.2,0-0.4,0-0.6,0L73-10.5
					c0.3,0,0.5,0,0.7,0c0.4,0,0.7-0.1,0.8-0.2c0.1-0.1,0.1-0.4,0.1-0.7h-2.8v1.6h-1v-1.6h-2.5c-0.2,0.3-0.4,0.7-0.7,0.9
					c-0.4,0.4-1.1,0.8-1.9,1.1h8.6v3.8h-1v-2.9h-6.9v2.9h-1v-3.7c-0.4,0.1-0.7,0.2-1.1,0.3L64-9.8c1.4-0.3,2.4-0.7,3-1.2
					c0.1-0.1,0.2-0.2,0.3-0.3h-2.8l0.5-2.5h2.8v-0.9h-3.2v-0.8h3.2v-0.7h1v0.7h2v-0.7h1v0.7h3.1v2.5h-3.1V-12.2z M65.6-12.2h2.1
					c0.1-0.3,0.1-0.6,0.2-0.9h-2L65.6-12.2z M68.7-12.2h2.2v-0.9h-2C68.8-12.7,68.7-12.5,68.7-12.2z M68.8-13.9h2v-0.9h-2V-13.9z
					 M75.7-4.2l-0.5,0.8c-1.6-0.7-3.2-1.3-4.9-1.7l0.5-0.8C72.6-5.4,74.2-4.8,75.7-4.2z M71.8-13.9H74v-0.9h-2.1V-13.9z"/>
			</g>
		</g>
	</g>
</g>
<g id="assistantgroup" transform="translate(0,0)">
</g>
</svg>
