<?xml version="1.0" encoding="UTF-8"?>
<svg width="32px" height="32px" viewBox="0 0 32 32" version="1.1" xmlns="http://www.w3.org/2000/svg" xmlns:xlink="http://www.w3.org/1999/xlink">
    <!-- Generator: Sketch 52.6 (67491) - http://www.bohemiancoding.com/sketch -->
    <title>区块链-32px</title>
    <desc>Created with Sketch.</desc>
    <g id="区块链-32px" stroke="none" stroke-width="1" fill="none" fill-rule="evenodd">
        <rect id="Rectangle-Copy" fill="#444444" opacity="0" x="0" y="0" width="32" height="32"></rect>
        <g id="image-2" transform="translate(1.000000, 1.000000)" fill="#00A4FF" fill-rule="nonzero">
            <path d="M23.1,18 C23.1,19.1 22.2,20 21.1,20 C20.9,20 20.7,20 20.5,19.9 L17.1,21.9 L17.1,22 C17.1,23.1 16.2,24 15.1,24 C14,24 13.1,23.1 13.1,22 L13.1,21.9 L9.7,19.9 C9.5,20 9.3,20 9.1,20 C8,20 7.1,19.1 7.1,18 C7.1,17.3 7.5,16.6 8.1,16.3 L8.1,12.7 C7.5,12.4 7.1,11.7 7.1,11 C7.1,9.9 8,9 9.1,9 C9.7,9 10.2,9.2 10.5,9.6 L13.1,8.1 L13.1,8 C13.1,6.9 14,6 15.1,6 C16.2,6 17.1,6.9 17.1,8 C17.1,8.1 17.1,8.1 17.1,8.1 L19.7,9.6 C20.1,9.2 20.6,9 21.1,9 C22.2,9 23.1,9.9 23.1,11 C23.1,11.7 22.7,12.4 22.1,12.7 L22.1,16.2 C22.7,16.6 23.1,17.3 23.1,18 Z M10.1,13.2 L10.1,16.3 C10.3,16.4 10.5,16.6 10.6,16.8 L13.2,15.1 L10.1,13.2 Z M14.1,9.7 C14.1,9.7 14,9.7 14,9.6 L11,11.4 L14.1,13.2 L14.1,9.7 Z M14.1,16.9 L11.3,18.7 L14,20.3 C14,20.3 14.1,20.3 14.1,20.2 L14.1,16.9 Z M20.1,16.3 L20.1,13 L17,15 L19.7,16.6 C19.8,16.5 19.9,16.4 20.1,16.3 Z M16.1,20.3 C16.1,20.3 16.2,20.3 16.2,20.4 L19.1,18.6 L16.1,16.8 L16.1,20.3 Z M16.2,9.7 C16.2,9.7 16.1,9.7 16.1,9.8 L16.1,13.3 L19,11.4 L16.2,9.7 Z M27.9,13 C26.9,6.8 21.6,2 15.1,2 C7.9,2 2.1,7.8 2.1,15 C2.1,22.2 7.9,28 15.1,28 C21.6,28 27,23.2 27.9,17 L29.9,17 C28.9,24.3 22.7,30 15,30 C6.7,30 0,23.3 0,15 C0,6.7 6.7,0 15,0 C22.6,0 28.9,5.7 29.9,13 L27.9,13 Z" id="XMLID_2_"></path>
        </g>
    </g>
</svg>