<?xml version="1.0" encoding="UTF-8"?>
<svg width="48px" height="48px" viewBox="0 0 48 48" version="1.1" xmlns="http://www.w3.org/2000/svg" xmlns:xlink="http://www.w3.org/1999/xlink">
    <!-- Generator: Sketch 55.2 (78181) - https://sketchapp.com -->
    <title>iPhone 8 Copy 4</title>
    <desc>Created with Sketch.</desc>
    <g id="iPhone-8-Copy-4" stroke="none" stroke-width="1" fill="none" fill-rule="evenodd">
        <polygon id="Fill-2" fill="#00A4FF" points="7 13.9998 24 4.9998 41 13.9998 24 22.6998 13.7 17.2998"></polygon>
        <polygon id="Fill-3" fill="#00A4FF" points="39 23.9998 37 22.9998 33 24.9998 35 25.9998"></polygon>
        <path d="M24,33.7 L13.7,28.3 L5.3,24 L13.7,19.599 L24,25 L34.3,19.599 L42.7,24 L24,33.7 Z M42.7,35 L24,44.7 L5.3,35 L13.7,30.599 L24,36 L34.3,30.599 L42.7,35 Z M5.3,13 L24,3.3 L42.7,13 L24,22.7 L13.7,17.3 L5.3,13 Z M36.5,18.5 L47,13 L24,1 L1,13 L11.5,18.5 L1,24 L11.5,29.5 L1,35 L24,47 L47,35 L36.5,29.5 L47,24 L36.5,18.5 Z" id="Fill-4" fill="#334966"></path>
        <polygon id="Fill-5" fill="#00A4FF" points="35 36.9998 39 34.9998 37 33.9998 33 35.9998"></polygon>
    </g>
</svg>