<svg xmlns="http://www.w3.org/2000/svg" width="810" height="295" viewBox="0 0 810 295">
  <title>场景3</title>
  <g>
    <g>
      <path d="M231.5,148.5h91" style="fill: none;stroke: #888"/>
      <polygon points="318 153 324 148.5 318 144 318 153" style="fill: #888"/>
      <path d="M231.5,148.5h45" style="fill: none;stroke: red;stroke-opacity: 0;stroke-width: 15px"/>
      <path d="M276.5,148.5h46" style="fill: none;stroke: red;stroke-opacity: 0;stroke-width: 15px"/>
    </g>
    <g>
      <path d="M231.5,148.5h46v110h46" style="fill: none;stroke: #888"/>
      <polygon points="319 263 325 258.5 319 254 319 263" style="fill: #888"/>
      <path d="M231.5,148.5h46" style="fill: none;stroke: red;stroke-opacity: 0;stroke-width: 15px"/>
      <path d="M277.5,148.5v110" style="fill: none;stroke: red;stroke-opacity: 0;stroke-width: 15px"/>
      <path d="M277.5,258.5h46" style="fill: none;stroke: red;stroke-opacity: 0;stroke-width: 15px"/>
    </g>
    <g>
      <path d="M477.5,148.5h67" style="fill: none;stroke: #888"/>
      <polygon points="540 153 546 148.5 540 144 540 153" style="fill: #888"/>
      <path d="M477.5,148.5h34" style="fill: none;stroke: red;stroke-opacity: 0;stroke-width: 15px"/>
      <path d="M511.5,148.5h33" style="fill: none;stroke: red;stroke-opacity: 0;stroke-width: 15px"/>
    </g>
    <g>
      <path d="M477.5,258.5h67" style="fill: none;stroke: #888"/>
      <polygon points="540 263 546 258.5 540 254 540 263" style="fill: #888"/>
      <path d="M477.5,258.5h34" style="fill: none;stroke: red;stroke-opacity: 0;stroke-width: 15px"/>
      <path d="M511.5,258.5h33" style="fill: none;stroke: red;stroke-opacity: 0;stroke-width: 15px"/>
    </g>
    <g>
      <path d="M139.5,67.5v26h0v25" style="fill: none;stroke: #888"/>
      <polygon points="135 114 139.5 120 144 114 135 114" style="fill: #888"/>
      <path d="M139.5,67.5v26" style="fill: none;stroke: red;stroke-opacity: 0;stroke-width: 15px"/>
      <path d="M139.5,93.5v25" style="fill: none;stroke: red;stroke-opacity: 0;stroke-width: 15px"/>
    </g>
  </g>
  <g>
    <g>
      <rect x="50" y="126" width="183.203" height="50" style="fill: #bbb;opacity: 0.6000000238418579;isolation: isolate"/>
      <rect x="48" y="124" width="183.203" height="50" style="fill: #fff;stroke: #e5e5e5"/>
      <g>
        <path d="M84.1,162A13,13,0,1,1,97,147h2a15,15,0,1,0,0,4H97A13.115,13.115,0,0,1,84.1,162ZM91,148v-6H77v6h4l-1,1v2h9v2h0v2h2v-6H87l1-1v-2H79v-2H89v4Zm-8,0h3l-1,1H82Zm-6,1v6h8.5l1.5,2h2l-3-4H79v-4Z" style="fill: #00a4ff"/>
        <g style="isolation: isolate">
          <path d="M113.782,148.159l-.714.714a15.271,15.271,0,0,0-2.3-2.129l.714-.686A15.477,15.477,0,0,1,113.782,148.159Zm.364,2.017a48.258,48.258,0,0,1-2.3,5.071l-.925-.406a44.014,44.014,0,0,0,2.34-5.015Zm.182-5.309-.714.714a15.09,15.09,0,0,0-2.437-2.129l.714-.686A17.211,17.211,0,0,1,114.328,144.867Zm2.76.49-.813.393a15.848,15.848,0,0,0-1.554-2.382l.84-.406A24.3,24.3,0,0,1,117.088,145.357Zm2.3-2.759v3.824h3.026v7.508c0,.924-.449,1.386-1.317,1.386h-1.639l-.266-.98,1.569.028a.585.585,0,0,0,.658-.658v-1.373h-5.057v3h-1.008v-8.909h3V142.6Zm2.031,4.791h-5.057V149h5.057Zm-5.057,4.076h5.057v-1.6h-5.057Zm6.654-8.181a12.442,12.442,0,0,1-1.639,2.577l-.8-.406a13.819,13.819,0,0,0,1.611-2.563Z" style="fill: #444"/>
          <path d="M126.928,151.591a11.777,11.777,0,0,1-1.4,3.347l-.855-.545a9.28,9.28,0,0,0,1.3-3Zm2.829-8a4.764,4.764,0,0,0,.434-1.121l1.051.14a5.626,5.626,0,0,1-.42.981h4.622v6.849h-8.769v-6.849Zm4.707,2.03v-1.148h-6.808v1.148Zm0,1.962v-1.149h-6.808v1.149Zm0,.811h-6.808v1.177h6.808Zm-5.337,6.794a1.058,1.058,0,0,1-1.205-1.19v-2.676h1.023v2.466a.427.427,0,0,0,.476.49h3.11a.822.822,0,0,0,.658-.224,3.422,3.422,0,0,0,.35-1.653l.967.308a3.905,3.905,0,0,1-.589,2.157,1.858,1.858,0,0,1-1.19.322Zm3.459-2.451-.77.532a15.039,15.039,0,0,0-1.709-1.989l.743-.462A16.069,16.069,0,0,1,132.586,152.739Zm4.847,1.359-.8.56a24.679,24.679,0,0,0-2.045-3.025l.784-.49A23.14,23.14,0,0,1,137.433,154.1Z" style="fill: #444"/>
          <path d="M143.449,143.145v.8c-.434,1.261-.939,2.578-1.527,3.951a6.6,6.6,0,0,1,1.471,3.347,1.731,1.731,0,0,1-.435,1.3,3.237,3.237,0,0,1-2.044.519l-.337-1.023a5.153,5.153,0,0,0,.547.056,2.3,2.3,0,0,0,1.022-.224.745.745,0,0,0,.267-.631,5.222,5.222,0,0,0-1.5-3.193,32.482,32.482,0,0,0,1.541-3.95h-2.27v11.318h-.98v-12.27Zm4.034-.491c0,1.387-.07,2.661-.182,3.81a16.121,16.121,0,0,0,4.2,7.956l-.728.854a16.984,16.984,0,0,1-3.782-6.6c-.056.253-.1.49-.154.728a10.1,10.1,0,0,1-3.74,5.926l-.673-.8a9.781,9.781,0,0,0,3.4-5.182,30.038,30.038,0,0,0,.659-6.7Z" style="fill: #444"/>
          <path d="M159.8,143.158v.981h-3.628a15.529,15.529,0,0,1-.392,1.919h3.334v.9q-1.029,5.925-5.7,8.307l-.491-.9a9.211,9.211,0,0,0,3.726-3.4,15.575,15.575,0,0,0-2.451-1.639,9.128,9.128,0,0,1-1.051,1.163l-.476-.938a8.749,8.749,0,0,0,2.508-5.407h-2.171v-.981Zm-2.689,6.962a12.48,12.48,0,0,0,1.036-3.11H155.46a11.38,11.38,0,0,1-.756,1.541A18.39,18.39,0,0,1,157.113,150.12Zm4.706-6.4v8.852h-.98v-8.852Zm-.322,11.555-.224-.965c.616.042,1.219.069,1.779.069.5,0,.77-.28.77-.826v-10.9h1.009V153.79a1.292,1.292,0,0,1-1.429,1.484Z" style="fill: #444"/>
          <path d="M174.125,144.685a3.521,3.521,0,0,1,1.344,2.381h-1.107a2.559,2.559,0,0,0-1.064-1.68,3.392,3.392,0,0,0-1.989-.561,3.2,3.2,0,0,0-2.689,1.219,4.734,4.734,0,0,0-.883,3,4.6,4.6,0,0,0,.868,2.97,3.22,3.22,0,0,0,2.676,1.163,3.116,3.116,0,0,0,3.221-2.606h1.107a4.573,4.573,0,0,1-7.9,2.087,5.522,5.522,0,0,1-1.121-3.614,5.62,5.62,0,0,1,1.149-3.655,4.3,4.3,0,0,1,3.586-1.583A4.437,4.437,0,0,1,174.125,144.685Z" style="fill: #444"/>
          <path d="M185.227,144l-4.525,4.286L185.857,154h-1.541l-4.412-4.973-1.555,1.471V154H177.2V144h1.149v5.2l5.379-5.2Z" style="fill: #444"/>
          <path d="M192.169,147.374a2.891,2.891,0,0,1,.644,1.976V154h-1.05v-1.219a3.373,3.373,0,0,1-1.107.967,3.679,3.679,0,0,1-1.807.448,2.6,2.6,0,0,1-1.737-.547,1.825,1.825,0,0,1-.672-1.456,2.04,2.04,0,0,1,1-1.863,4.641,4.641,0,0,1,2.521-.616l1.737-.028v-.378c0-1.219-.631-1.822-1.891-1.822a2.307,2.307,0,0,0-1.3.323,1.573,1.573,0,0,0-.728,1.037l-1.107-.085a2.486,2.486,0,0,1,1.121-1.695,3.836,3.836,0,0,1,2.087-.5A2.963,2.963,0,0,1,192.169,147.374Zm-2.143,3.18c-1.625.028-2.438.56-2.438,1.611a.992.992,0,0,0,.407.826,1.775,1.775,0,0,0,1.092.322,2.739,2.739,0,0,0,1.821-.671,1.935,1.935,0,0,0,.785-1.5v-.617Z" style="fill: #444"/>
          <path d="M198.833,144v.966h-1.247a.857.857,0,0,0-.687.238,1.11,1.11,0,0,0-.21.757v.8h2.045v.938h-2.045V154h-1.12v-6.3h-1.821v-.938h1.821v-.826a2,2,0,0,1,.462-1.415,1.832,1.832,0,0,1,1.415-.518Z" style="fill: #444"/>
          <path d="M200.889,143.8v6.317l3.628-3.362H206l-3.193,2.914,3.5,4.328h-1.443l-2.83-3.6-1.148,1.037V154h-1.121V143.8Z" style="fill: #444"/>
          <path d="M212.623,147.374a2.891,2.891,0,0,1,.644,1.976V154h-1.051v-1.219a3.359,3.359,0,0,1-1.106.967,3.679,3.679,0,0,1-1.807.448,2.6,2.6,0,0,1-1.737-.547,1.825,1.825,0,0,1-.672-1.456,2.041,2.041,0,0,1,.994-1.863,4.646,4.646,0,0,1,2.521-.616l1.737-.028v-.378c0-1.219-.63-1.822-1.891-1.822a2.3,2.3,0,0,0-1.3.323,1.571,1.571,0,0,0-.729,1.037l-1.106-.085a2.485,2.485,0,0,1,1.12-1.695,3.84,3.84,0,0,1,2.087-.5A2.966,2.966,0,0,1,212.623,147.374Zm-2.144,3.18c-1.625.028-2.437.56-2.437,1.611a.994.994,0,0,0,.406.826,1.78,1.78,0,0,0,1.093.322,2.738,2.738,0,0,0,1.821-.671,1.937,1.937,0,0,0,.784-1.5v-.617Z" style="fill: #444"/>
        </g>
      </g>
    </g>
    <g>
      <rect x="552" y="126" width="185.969" height="50" style="fill: #bbb;opacity: 0.6000000238418579;isolation: isolate"/>
      <rect x="550" y="124" width="185.969" height="50" style="fill: #fff;stroke: #e5e5e5"/>
      <g style="isolation: isolate">
        <path d="M571.527,155.415l-.56-.854a11.247,11.247,0,0,0,5.463-2.705,5.1,5.1,0,0,0,.448-.629h-5.785v-.953h6.275a8.511,8.511,0,0,0,.6-2.969v-1.654h.98v1.654a10.1,10.1,0,0,1-.518,2.969h4.5v.953h-4.918c-.125.223-.252.434-.377.629a31.474,31.474,0,0,1,5.476,2.76l-.547.868a27.918,27.918,0,0,0-5.49-2.884A11.556,11.556,0,0,1,571.527,155.415Zm11.164-8.8h-.98v-1.751H572.27v1.751h-.981v-2.689h5.322a8.99,8.99,0,0,0-.574-1.289l1.037-.168c.182.42.364.91.546,1.457h5.071Zm-6.933,2.493-.52.8a12.077,12.077,0,0,0-2.787-1.583l.5-.757A15.415,15.415,0,0,1,575.758,149.111Zm1.344-1.947-.518.8a12.77,12.77,0,0,0-2.886-1.639l.519-.757A14.08,14.08,0,0,1,577.1,147.164Z" style="fill: #444"/>
        <path d="M589.183,153.93H588.2v-.939h-2.073v1.276h-.981V143.606h4.035Zm-.981-6.192v-3.207h-2.073v3.207Zm0,4.315v-3.376h-2.073v3.376Zm3.74,3.208-.21-.981c.813.029,1.582.056,2.326.056.406,0,.616-.224.616-.658V146.1h-4.847v-.967h4.847v-2.465H595.7v2.465h1.724v.967H595.7v7.83a1.166,1.166,0,0,1-1.3,1.331Zm1.261-4.034-.841.587a28.92,28.92,0,0,0-1.989-3.515l.826-.519A28.96,28.96,0,0,1,593.2,151.227Z" style="fill: #444"/>
        <path d="M610.719,155.4h-.981v-.574H600.27v.574h-.981V143.172h11.43Zm-.981-1.47v-9.862H600.27v9.862Zm-5.182-9.441a7.863,7.863,0,0,1-.365.771h3.7v.7a5.6,5.6,0,0,1-1.779,1.961,15.649,15.649,0,0,0,3.208,1.106l-.533.757a15.339,15.339,0,0,1-3.5-1.359,15.7,15.7,0,0,1-4.007,1.387L600.83,149a14.456,14.456,0,0,0,3.642-1.078,8,8,0,0,1-1.415-1.177,9.6,9.6,0,0,1-1.429,1.093l-.56-.729a5.949,5.949,0,0,0,2.591-2.731Zm3.319,8.264-.336.812a31.8,31.8,0,0,0-5.421-1.554l.392-.756A31.828,31.828,0,0,1,607.875,152.753Zm-.9-2.143-.477.729a14.024,14.024,0,0,0-3-1.373l.462-.673A17.85,17.85,0,0,1,606.979,150.61Zm-.1-4.594H603.7a.664.664,0,0,0-.126.168,9.585,9.585,0,0,0,1.709,1.3A5.088,5.088,0,0,0,606.881,146.016Z" style="fill: #444"/>
        <path d="M618.485,143.774v-1.19h1.036v1.19h5.03v.925h-5.03v1.33h4.217v.925h-4.217v1.331h5.52v.91h-5.1a10.507,10.507,0,0,0,1.387,2.4,7.5,7.5,0,0,0,2.269-1.7l.7.672a7.851,7.851,0,0,1-2.41,1.667,8.81,8.81,0,0,0,3.348,2.213l-.532.883a10.154,10.154,0,0,1-5.687-6.136h-.491a8.817,8.817,0,0,1-1.89,1.934v2.983a33.106,33.106,0,0,0,3.123-1.106l.2.938a31.863,31.863,0,0,1-4.427,1.429l-.336-.869c.3-.111.45-.279.45-.5v-2.2a16.687,16.687,0,0,1-2.55,1.261l-.532-.869a11.094,11.094,0,0,0,4.9-3h-4.5v-.91h5.518v-1.331H614.27v-.925h4.215V144.7h-5.028v-.925Z" style="fill: #444"/>
        <path d="M627.3,155.4l-.813-.728a14.485,14.485,0,0,0,1.457-6.835V143.1h10.394v3.361h-1.947v1.415h2.2v.9h-2.2v1.457h2.661v.924h-4.5a6.529,6.529,0,0,0,1.359,1.667,5.833,5.833,0,0,0,1.807-1.583l.7.687a6.164,6.164,0,0,1-1.724,1.485,8.344,8.344,0,0,0,2.8,1.107l-.49.952a7.814,7.814,0,0,1-5.463-4.315h-1.906v3.069a14.7,14.7,0,0,0,2.367-.786l.2.925a25.753,25.753,0,0,1-3.783,1.023l-.28-.883a.7.7,0,0,0,.5-.7v-2.648h-1.961A15.093,15.093,0,0,1,627.3,155.4Zm4.314-7.521v-1.415H628.97v1.373a21.619,21.619,0,0,1-.14,2.4h2.787v-1.457h-2.045v-.9Zm-2.647-3.853v1.528h8.362v-1.528Zm3.614,2.438v1.415h2.829v-1.415Zm2.829,3.768v-1.457h-2.829v1.457Z" style="fill: #444"/>
        <path d="M644.188,149.63a15.758,15.758,0,0,1-2.465,5l-.883-.546a13.8,13.8,0,0,0,2.353-4.664Zm.267,5.6-.211-.98c.588.028,1.135.057,1.667.057a.549.549,0,0,0,.63-.6v-5.827h-5.5v-1h11.934v1h-5.407v6.079a1.142,1.142,0,0,1-1.3,1.274Zm7.27-11.906v.981h-9.4v-.981Zm1.358,10.772-.925.421a31.681,31.681,0,0,0-2.478-4.931l.91-.309A31.319,31.319,0,0,1,653.083,154.1Z" style="fill: #444"/>
        <path d="M660.485,142.514,655.527,155.4h-1.009l4.973-12.886Z" style="fill: #444"/>
        <path d="M665.217,151.044c.013-.378.027-.9.027-1.555h1.009c0,.715-.015,1.234-.028,1.555h3.683V149.5h1.01v1.54h3.5v.911h-3.5v3.361h-1.01v-3.361H666.1a4.4,4.4,0,0,1-3.1,3.418l-.532-.869a3.367,3.367,0,0,0,2.647-2.549h-3.5v-.911Zm6.974-4.65h-8.025v.938a.631.631,0,0,0,.714.715h7.395a.745.745,0,0,0,.618-.28,3.25,3.25,0,0,0,.224-1.121l.91.294a4.482,4.482,0,0,1-.28,1.372,1.217,1.217,0,0,1-1.19.645h-8.041c-.9,0-1.344-.434-1.344-1.274V143.1h9.019Zm-.98-.911v-1.47h-7.045v1.47Z" style="fill: #444"/>
        <path d="M682.521,142.485v2.144h1.78a11.772,11.772,0,0,0,1.121-1.947l.938.35a11.7,11.7,0,0,1-1,1.6h2.466v2.829H686.8v-1.877h-9.582v1.892h-1.036v-2.844h2.283a8.927,8.927,0,0,0-.952-1.5l.952-.35a9.541,9.541,0,0,1,1,1.849h2.03v-2.144Zm-4.117,7.257V146.66h7.228v3.082h-3.111v1.12h4.456v2.55a1.125,1.125,0,0,1-1.276,1.26h-1.12l-.267-.966,1.065.042c.392,0,.6-.2.6-.56v-1.4h-3.461v3.642h-1.036v-3.642H678.1v2.97H677.1v-3.9h4.383v-1.12Zm6.261-2.227h-5.28v1.373h5.28Z" style="fill: #444"/>
        <path d="M691.592,145.3V142.57h.994V145.3h1.443v.966h-1.443v.714q.84.925,1.723,2.1l-.575.855c-.448-.8-.826-1.457-1.148-1.961v7.354h-.994v-6.878a17.552,17.552,0,0,1-1.709,3.81l-.435-1.107a14.1,14.1,0,0,0,2.115-4.888H689.84V145.3Zm2.829,2.8-.546-.855a11.819,11.819,0,0,0,3.838-4.664h.924a11.206,11.206,0,0,0,3.881,4.637l-.547.854a12.175,12.175,0,0,1-1.625-1.387v.855h-4.258v-.9A11.456,11.456,0,0,1,694.421,148.1Zm4.622,5.9a34.428,34.428,0,0,0,1.514-5.519l.966.252A32.452,32.452,0,0,1,700.038,154h2.185v.98H694.2V154Zm-2.255-1.064-.882.238c-.281-1.4-.617-2.732-1.01-4.021l.87-.294A32,32,0,0,1,696.788,152.936Zm1.387-9.358a14.391,14.391,0,0,1-2.06,3.04h4.16A10.964,10.964,0,0,1,698.175,143.578Zm.714,8.685-.924.238a35.707,35.707,0,0,0-.91-3.866l.868-.281A33.251,33.251,0,0,1,698.889,152.263Z" style="fill: #444"/>
        <path d="M706.207,148.3l-.658.658a13.475,13.475,0,0,0-1.946-2.017l.686-.644A14.916,14.916,0,0,1,706.207,148.3Zm.169,2.1a51.045,51.045,0,0,1-1.779,4.832l-.925-.391a47.973,47.973,0,0,0,1.849-4.778Zm.112-5.687-.658.673a11.986,11.986,0,0,0-2-1.877l.687-.659A14.323,14.323,0,0,1,706.488,144.713Zm3.334.364v4.441a9,9,0,0,1-.757,3.824,4.877,4.877,0,0,1-2.254,2.073l-.534-.841a4.259,4.259,0,0,0,2.1-1.89,8.218,8.218,0,0,0,.6-3.166v-4.441Zm1.918,6.71h-.9V144.11h-2.9v7.761h-.9v-8.629h4.691Zm.645,2.942-.672.671a14.487,14.487,0,0,0-2.088-2.367l.617-.588A15.965,15.965,0,0,1,712.385,154.729Zm1.345-10.941v8.741h-.882v-8.741Zm-.5,11.5-.21-.938c.49.042.966.069,1.414.069.322,0,.49-.195.49-.56V142.64h.953V154.1c0,.785-.379,1.191-1.106,1.191Z" style="fill: #444"/>
      </g>
    </g>
    <g>
      <rect x="331" y="126" width="148.516" height="50" style="fill: #bbb;opacity: 0.6000000238418579;isolation: isolate"/>
      <rect x="329" y="124" width="148.516" height="50" style="fill: #fff;stroke: #e5e5e5"/>
      <g>
        <g>
          <path d="M377.8,151a13,13,0,1,1,0-4h2A14.969,14.969,0,1,0,365,164a15.091,15.091,0,0,0,14.9-13Z" style="fill: #00a4ff"/>
          <circle cx="365" cy="142" r="2" style="fill: #00a4ff"/>
          <circle cx="365" cy="149" r="2" style="fill: #00a4ff"/>
          <circle cx="365" cy="156" r="2" style="fill: #00a4ff"/>
          <circle cx="359" cy="153" r="2" style="fill: #00a4ff"/>
          <circle cx="359" cy="145" r="2" style="fill: #00a4ff"/>
          <circle cx="371" cy="153" r="2" style="fill: #00a4ff"/>
          <circle cx="371" cy="145" r="2" style="fill: #00a4ff"/>
          <path d="M363.2,146.6,360,144l-1,2,3,2.5A3.149,3.149,0,0,1,363.2,146.6Z" style="fill: #00a4ff"/>
          <path d="M368,148.5l3-2.5-1-2-3.2,2.6A3.149,3.149,0,0,1,368,148.5Z" style="fill: #00a4ff"/>
          <path d="M365,146a2.959,2.959,0,0,1,1,.2V143h-2v3.2A2.959,2.959,0,0,1,365,146Z" style="fill: #00a4ff"/>
          <path d="M359,150a2.959,2.959,0,0,1,1,.2V146h-2v4.2A2.959,2.959,0,0,1,359,150Z" style="fill: #00a4ff"/>
          <path d="M371,150a2.959,2.959,0,0,1,1,.2V146h-2v4.2A2.959,2.959,0,0,1,371,150Z" style="fill: #00a4ff"/>
          <path d="M365,153a2.959,2.959,0,0,1,1,.2V150h-2v3.2A2.959,2.959,0,0,1,365,153Z" style="fill: #00a4ff"/>
        </g>
        <g style="isolation: isolate">
          <path d="M394.712,148.131l-.714.728a14.105,14.105,0,0,0-2.214-2.059l.715-.7A15.067,15.067,0,0,1,394.712,148.131Zm.112,2.045a52.622,52.622,0,0,1-1.835,5.043l-.938-.407a44.379,44.379,0,0,0,1.877-4.986Zm.168-5.617-.714.714a13.443,13.443,0,0,0-2.172-1.821l.729-.7A15.437,15.437,0,0,1,394.992,144.559Zm2.424,4.482a14.158,14.158,0,0,1-.547,4.034,5.463,5.463,0,0,1-1.7,2.312l-.644-.8a4.49,4.49,0,0,0,1.428-1.946,13.018,13.018,0,0,0,.477-3.6Zm-1.793-1.484a2.073,2.073,0,0,0,.21-.084,8.4,8.4,0,0,0,2.045-2.577h-2.452v-.912h3.908a13.733,13.733,0,0,0-.63-1.428l1.023-.168a14.668,14.668,0,0,1,.616,1.6h3.684v.912h-5.113a14.319,14.319,0,0,1-1.737,2.562c1.611-.084,3.208-.224,4.805-.42-.308-.406-.616-.812-.953-1.232l.827-.491a22.73,22.73,0,0,1,2.171,3.012l-.826.588c-.2-.35-.421-.7-.645-1.064-2.059.238-4.3.42-6.709.56Zm4.1,1.5v6.065H398.7v-6.065Zm2.675,6.2c-.812,0-1.2-.365-1.2-1.093v-5.112h.967v4.93c0,.21.084.323.266.35h.616c.253-.027.392-.182.421-.49a11.09,11.09,0,0,0,.084-1.625l.882.337a5.848,5.848,0,0,1-.252,2.268,1.3,1.3,0,0,1-1.078.435Z" style="fill: #444"/>
          <path d="M408.656,146.842v6.233c.5-.42,1.065-.9,1.653-1.456l.252,1.036a19.451,19.451,0,0,1-2.8,2.241l-.393-.91a.747.747,0,0,0,.322-.589v-5.588H405.63v-.967Zm1.008-1.988-.685.7a15.259,15.259,0,0,0-2.411-2.172l.7-.686A15.93,15.93,0,0,1,409.664,144.854Zm4.147,1.9v-4.216h1.037v4.216h3.6v1.009h-3.6v7.662h-1.037v-7.662h-3.8v-1.009Z" style="fill: #444"/>
          <path d="M430.7,145.722v5.5h-1.667v.938h3.18v.9h-3.18v2.367h-.994v-2.367h-3.978a3.186,3.186,0,0,1-.575,1.05,4.793,4.793,0,0,1-2.339,1.275l-.518-.8a4.51,4.51,0,0,0,2.059-1.05,3.416,3.416,0,0,0,.295-.476H419.8v-.9h3.431c.014-.14.028-.28.028-.393v-.545h-1.779v-5.5Zm-9.973.2-.84-.519a8.255,8.255,0,0,0,1.848-2.941l.967.21c-.112.28-.238.561-.35.826h3.474v.855h-1.836a7.854,7.854,0,0,1,.589.854l-.841.309a11.812,11.812,0,0,0-.755-1.163H421.9A9.167,9.167,0,0,1,420.723,145.918Zm8.993,1.429v-.841H422.46v.841Zm0,1.5v-.785H422.46v.785Zm0,.727H422.46v.869h7.256Zm-5.449,2.2a3.223,3.223,0,0,1-.029.393h3.8v-.938h-3.768Zm2.452-6.134-.827-.533a7.281,7.281,0,0,0,1.512-2.62l.981.211-.294.756h3.992v.855h-2.339a9,9,0,0,1,.616.91l-.84.308a8.36,8.36,0,0,0-.8-1.218h-1.065A9.126,9.126,0,0,1,426.719,145.638Z" style="fill: #444"/>
          <path d="M440.031,144.573a3.267,3.267,0,0,1,1.15,2.381h-1.135a2.517,2.517,0,0,0-.841-1.61,2.915,2.915,0,0,0-1.891-.533,3.379,3.379,0,0,0-1.737.364,1.387,1.387,0,0,0,.14,2.494,11.687,11.687,0,0,0,1.836.63,13.472,13.472,0,0,1,2.605.967,2.359,2.359,0,0,1,1.246,2.115,2.428,2.428,0,0,1-1.05,2.073,4.843,4.843,0,0,1-2.83.742,4.525,4.525,0,0,1-2.773-.757,3.564,3.564,0,0,1-1.3-2.745h1.135a2.75,2.75,0,0,0,.91,1.919,3.215,3.215,0,0,0,2.031.561,3.794,3.794,0,0,0,1.99-.463,1.418,1.418,0,0,0,.756-1.261,1.625,1.625,0,0,0-1-1.471,12.089,12.089,0,0,0-2.115-.728,16.623,16.623,0,0,1-2.3-.812,2.114,2.114,0,0,1-1.148-1.933,2.281,2.281,0,0,1,1.105-2.031,4.45,4.45,0,0,1,2.55-.672A4.148,4.148,0,0,1,440.031,144.573Z" style="fill: #444"/>
          <path d="M449.973,144.685a3.516,3.516,0,0,1,1.343,2.381H450.21a2.562,2.562,0,0,0-1.064-1.68,3.39,3.39,0,0,0-1.99-.561,3.2,3.2,0,0,0-2.689,1.219,4.74,4.74,0,0,0-.883,3,4.6,4.6,0,0,0,.869,2.97,3.217,3.217,0,0,0,2.676,1.163,3.116,3.116,0,0,0,3.221-2.606h1.107a4.573,4.573,0,0,1-7.9,2.087,5.522,5.522,0,0,1-1.121-3.614,5.625,5.625,0,0,1,1.148-3.655,4.3,4.3,0,0,1,3.586-1.583A4.44,4.44,0,0,1,449.973,144.685Z" style="fill: #444"/>
          <path d="M459.072,144.573a3.266,3.266,0,0,1,1.149,2.381h-1.135a2.521,2.521,0,0,0-.84-1.61,2.921,2.921,0,0,0-1.892-.533,3.374,3.374,0,0,0-1.737.364,1.385,1.385,0,0,0,.141,2.494,11.634,11.634,0,0,0,1.834.63,13.444,13.444,0,0,1,2.605.967,2.358,2.358,0,0,1,1.247,2.115,2.432,2.432,0,0,1-1.049,2.073,4.85,4.85,0,0,1-2.831.742,4.523,4.523,0,0,1-2.773-.757,3.561,3.561,0,0,1-1.3-2.745h1.135a2.75,2.75,0,0,0,.91,1.919,3.217,3.217,0,0,0,2.031.561,3.8,3.8,0,0,0,1.99-.463,1.419,1.419,0,0,0,.757-1.261,1.626,1.626,0,0,0-1-1.471,12.122,12.122,0,0,0-2.115-.728,16.709,16.709,0,0,1-2.3-.812,2.116,2.116,0,0,1-1.148-1.933,2.283,2.283,0,0,1,1.107-2.031,4.446,4.446,0,0,1,2.549-.672A4.153,4.153,0,0,1,459.072,144.573Z" style="fill: #444"/>
        </g>
      </g>
    </g>
    <g>
      <rect x="331" y="236" width="148.516" height="50" style="fill: #bbb;opacity: 0.6000000238418579;isolation: isolate"/>
      <rect x="329" y="234" width="148.516" height="50" style="fill: #fff;stroke: #e5e5e5"/>
      <g>
        <g>
          <path d="M377.8,261a13,13,0,1,1,0-4h2A14.969,14.969,0,1,0,365,274a15.091,15.091,0,0,0,14.9-13Z" style="fill: #00a4ff"/>
          <circle cx="365" cy="252" r="2" style="fill: #00a4ff"/>
          <circle cx="365" cy="259" r="2" style="fill: #00a4ff"/>
          <circle cx="365" cy="266" r="2" style="fill: #00a4ff"/>
          <circle cx="359" cy="263" r="2" style="fill: #00a4ff"/>
          <circle cx="359" cy="255" r="2" style="fill: #00a4ff"/>
          <circle cx="371" cy="263" r="2" style="fill: #00a4ff"/>
          <circle cx="371" cy="255" r="2" style="fill: #00a4ff"/>
          <path d="M363.2,256.6,360,254l-1,2,3,2.5A3.149,3.149,0,0,1,363.2,256.6Z" style="fill: #00a4ff"/>
          <path d="M368,258.5l3-2.5-1-2-3.2,2.6A3.149,3.149,0,0,1,368,258.5Z" style="fill: #00a4ff"/>
          <path d="M365,256a2.959,2.959,0,0,1,1,.2V253h-2v3.2A2.959,2.959,0,0,1,365,256Z" style="fill: #00a4ff"/>
          <path d="M359,260a2.959,2.959,0,0,1,1,.2V256h-2v4.2A2.959,2.959,0,0,1,359,260Z" style="fill: #00a4ff"/>
          <path d="M371,260a2.959,2.959,0,0,1,1,.2V256h-2v4.2A2.959,2.959,0,0,1,371,260Z" style="fill: #00a4ff"/>
          <path d="M365,263a2.959,2.959,0,0,1,1,.2V260h-2v3.2A2.959,2.959,0,0,1,365,263Z" style="fill: #00a4ff"/>
        </g>
        <g style="isolation: isolate">
          <path d="M393.157,254v4.342h5.785V254h1.149v10h-1.149v-4.664h-5.785V264h-1.148V254Z" style="fill: #444"/>
          <path d="M407.4,257.374a2.887,2.887,0,0,1,.645,1.976V264H406.99v-1.219a3.349,3.349,0,0,1-1.106.967,3.676,3.676,0,0,1-1.807.448,2.6,2.6,0,0,1-1.737-.547,1.825,1.825,0,0,1-.672-1.456,2.04,2.04,0,0,1,1-1.863,4.641,4.641,0,0,1,2.521-.616l1.737-.028v-.378c0-1.219-.63-1.822-1.891-1.822a2.307,2.307,0,0,0-1.3.323,1.573,1.573,0,0,0-.728,1.037l-1.107-.085a2.486,2.486,0,0,1,1.121-1.7,3.836,3.836,0,0,1,2.087-.5A2.958,2.958,0,0,1,407.4,257.374Zm-2.142,3.18c-1.625.028-2.438.56-2.438,1.611a.992.992,0,0,0,.407.826,1.775,1.775,0,0,0,1.092.322,2.742,2.742,0,0,0,1.822-.671,1.94,1.94,0,0,0,.784-1.5v-.617Z" style="fill: #444"/>
          <path d="M416.246,253.8V264H415.2v-1.19a2.559,2.559,0,0,1-2.41,1.386,2.97,2.97,0,0,1-2.478-1.148,4.241,4.241,0,0,1-.813-2.69,4.124,4.124,0,0,1,.813-2.633,2.838,2.838,0,0,1,2.423-1.163,2.611,2.611,0,0,1,2.395,1.527V253.8Zm-5.071,4.524a3.333,3.333,0,0,0-.532,2.031,3.557,3.557,0,0,0,.518,2.059,2.02,2.02,0,0,0,1.765.854,1.972,1.972,0,0,0,1.695-.839,3.4,3.4,0,0,0,.532-1.976v-.14a3.316,3.316,0,0,0-.6-2.045,1.894,1.894,0,0,0-1.583-.785A2.048,2.048,0,0,0,411.175,258.327Z" style="fill: #444"/>
          <path d="M423.806,257.683a4.4,4.4,0,0,1,.013,5.379,3.284,3.284,0,0,1-2.605,1.134,3.218,3.218,0,0,1-2.591-1.134,3.908,3.908,0,0,1-.925-2.676,3.975,3.975,0,0,1,.925-2.7,3.556,3.556,0,0,1,5.183,0Zm-4.385.7a3.757,3.757,0,0,0,0,3.992,2.077,2.077,0,0,0,1.793.883,2.154,2.154,0,0,0,1.807-.883,3.752,3.752,0,0,0,0-3.992,2.156,2.156,0,0,0-1.807-.883A2.079,2.079,0,0,0,419.421,258.383Z" style="fill: #444"/>
          <path d="M432.01,257.683a4.4,4.4,0,0,1,.013,5.379,3.286,3.286,0,0,1-2.605,1.134,3.22,3.22,0,0,1-2.592-1.134,3.912,3.912,0,0,1-.924-2.676,3.98,3.98,0,0,1,.924-2.7,3.557,3.557,0,0,1,5.184,0Zm-4.385.7a3.757,3.757,0,0,0,0,3.992,2.076,2.076,0,0,0,1.793.883,2.155,2.155,0,0,0,1.807-.883,3.757,3.757,0,0,0,0-3.992,2.158,2.158,0,0,0-1.807-.883A2.078,2.078,0,0,0,427.625,258.383Z" style="fill: #444"/>
          <path d="M440.311,257.725a4.207,4.207,0,0,1,.827,2.675,4.261,4.261,0,0,1-.813,2.648A2.9,2.9,0,0,1,437.9,264.2a2.621,2.621,0,0,1-2.395-1.512v4.089h-1.12V256.758h1.05v1.191a2.571,2.571,0,0,1,2.409-1.387A2.932,2.932,0,0,1,440.311,257.725Zm-4.3.616a3.338,3.338,0,0,0-.546,1.989v.14a3.106,3.106,0,0,0,.616,2.031,1.9,1.9,0,0,0,1.583.77,2.105,2.105,0,0,0,1.779-.812,3.452,3.452,0,0,0,.546-2.059,3.658,3.658,0,0,0-.518-2.046,2,2,0,0,0-1.765-.868A1.934,1.934,0,0,0,436.011,258.341Z" style="fill: #444"/>
        </g>
      </g>
    </g>
    <g>
      <rect x="552" y="236" width="185.969" height="50" style="fill: #bbb;opacity: 0.6000000238418579;isolation: isolate"/>
      <rect x="550" y="234" width="185.969" height="50" style="fill: #fff;stroke: #e5e5e5"/>
      <g style="isolation: isolate">
        <path d="M577.662,253.62h5.352v.939h-12.02v-.939h5.66a10.709,10.709,0,0,0-.491-.994l1.036-.168A8.416,8.416,0,0,1,577.662,253.62Zm2.844,1.583h.967v3.88h-4.5c-.113.351-.224.673-.336.98h5.7v4.175a1.032,1.032,0,0,1-1.177,1.149h-1.177l-.252-.952,1.107.042c.349,0,.532-.155.532-.449v-3.053h-2.563a27.517,27.517,0,0,1,1.583,2.758l-.813.407c-.126-.28-.252-.533-.364-.77-1.078.195-2.787.434-5.127.7l-.238-.911a.657.657,0,0,0,.434-.168,13.378,13.378,0,0,0,1.036-2.016h-2.66v4.412H571.7v-5.324h3.978c.112-.307.21-.643.322-.98h-3.446V255.2h.967v3.04h6.99Zm-3.222.8a10.351,10.351,0,0,0,1.569-1.205l.714.434a14.929,14.929,0,0,1-1.457,1.177c.6.308,1.177.645,1.738.994l-.463.7a22.214,22.214,0,0,0-2.059-1.2,17.534,17.534,0,0,1-2.76,1.2l-.448-.729a12.691,12.691,0,0,0,2.339-.91,23.114,23.114,0,0,0-2.143-.9l.434-.644A27.2,27.2,0,0,1,577.284,256Zm-1,4.973a18.049,18.049,0,0,1-1.022,2.087c1.233-.126,2.409-.281,3.53-.477-.28-.49-.547-.939-.813-1.358l.518-.252Z" style="fill: #444"/>
        <path d="M588.049,252.864a23.449,23.449,0,0,1-2.172,4.37c.631-.055,1.261-.139,1.891-.238.252-.5.533-1.036.812-1.6l.9.336a31.731,31.731,0,0,1-3.081,5.043,24,24,0,0,0,3.025-.8v.912a24.448,24.448,0,0,1-4.216.994l-.281-.925a1.875,1.875,0,0,0,.463-.294,13.97,13.97,0,0,0,1.877-2.76c-.771.113-1.555.211-2.34.309l-.237-.925a.925.925,0,0,0,.419-.364,23.663,23.663,0,0,0,1.976-4.441Zm1.526,10.716a25.946,25.946,0,0,1-4.706,1.288l-.127-.98a24.523,24.523,0,0,0,4.833-1.275Zm6.934-7.62-3.6.5c.03.673.071,1.3.127,1.905l3.712-.589.153.953-3.754.588c.029.252.071.5.113.729a13.291,13.291,0,0,0,.5,1.919,12.815,12.815,0,0,0,2.016-2.381l.8.546a14.626,14.626,0,0,1-2.408,2.76c.056.084.1.181.154.265.461.687.867,1.037,1.233,1.037s.685-.757.937-2.256l.856.561c-.393,1.85-.954,2.788-1.682,2.788a2.568,2.568,0,0,1-1.9-1.289,2.811,2.811,0,0,1-.323-.519,10.976,10.976,0,0,1-3.347,1.709l-.589-.812a12.058,12.058,0,0,0,3.487-1.778,11.434,11.434,0,0,1-.643-2.046c-.084-.365-.14-.714-.2-1.078l-2.521.406-.14-.952,2.535-.407c-.07-.6-.112-1.247-.126-1.919l-2.017.294-.154-.924,2.143-.309v-3.109h1.009v2.969l3.488-.49Zm-.406-1.709-.785.546A12.326,12.326,0,0,0,593.665,253l.784-.49A17.6,17.6,0,0,1,596.1,254.251Z" style="fill: #444"/>
        <path d="M602.23,259.182c-.1.265-.2.517-.28.77h2.928v.826a5.65,5.65,0,0,1-1.556,2.4c.673.307,1.318.616,1.934.952l-.547.784a20.272,20.272,0,0,0-2.156-1.106,11.479,11.479,0,0,1-3.489,1.554l-.476-.839a12.7,12.7,0,0,0,2.956-1.149c-.616-.266-1.261-.533-1.947-.785.364-.616.686-1.19.966-1.751H598.91v-.882h2.045c.127-.308.238-.6.337-.883Zm-.56-3.937V252.57h.938v2.675h2.55v.883h-2.55v.154c.757.378,1.541.813,2.326,1.288l-.518.784q-1.052-.838-1.808-1.344v1.821h-.938V256.17a6.564,6.564,0,0,1-2.508,2.871l-.49-.812a5.8,5.8,0,0,0,2.256-2.1h-1.99v-.883Zm-.784-.672-.729.336a12.964,12.964,0,0,0-.938-1.821l.8-.266A12.092,12.092,0,0,1,600.886,254.573Zm3.081,6.261h-2.408a10.476,10.476,0,0,1-.757,1.345c.559.2,1.093.392,1.6.6A5.418,5.418,0,0,0,603.967,260.834ZM605,253.116a9.38,9.38,0,0,1-1.078,1.807l-.715-.364a8.911,8.911,0,0,0,1.064-1.779Zm1.541,4.8a12.479,12.479,0,0,1-.826,1.723l-.631-.771a17.761,17.761,0,0,0,1.667-6.346l.98.169c-.084.714-.2,1.387-.307,2h3.7v.966h-.91a14.964,14.964,0,0,1-1.289,6,8.651,8.651,0,0,0,2.592,2.913l-.547.826a9.184,9.184,0,0,1-2.522-2.829,9.414,9.414,0,0,1-2.591,2.816l-.518-.841a8.249,8.249,0,0,0,2.592-2.913A19.349,19.349,0,0,1,606.545,257.921Zm.49-1.527a19.269,19.269,0,0,0,1.359,4.23,15.013,15.013,0,0,0,.9-4.959h-2.073Z" style="fill: #444"/>
        <path d="M613.106,265.274l-.21-.952a9.5,9.5,0,0,0,1.065.071c.35,0,.532-.211.532-.6v-3.432c-.559.21-1.106.407-1.653.575l-.252-.981a17.584,17.584,0,0,0,1.905-.574v-3.166h-1.681v-.967h1.681V252.6h.981v2.647h1.344v.967h-1.344v2.76q.672-.3,1.3-.631v1c-.434.224-.868.42-1.3.616v4.09c0,.812-.392,1.232-1.177,1.232Zm3.741.126-.785-.7a15.332,15.332,0,0,0,1.513-7.2v-4.384h7.382v3.4h-2.633v1.653h3v.91h-3v1.724h2.353V265.4h-.939v-.685h-3.8v.685H619v-4.593h2.34v-1.724h-2.859A16.334,16.334,0,0,1,616.847,265.4Zm1.709-8.88v.98c0,.225-.015.449-.015.673h2.8V256.52Zm0-2.465v1.554h5.421v-1.554Zm5.182,9.763V261.7h-3.8v2.115Z" style="fill: #444"/>
        <path d="M631.939,253.382a16.8,16.8,0,0,1-1.974,2.858,14.061,14.061,0,0,1-2.8,2.395l-.546-.882a10.107,10.107,0,0,0,2.591-2.144,14.8,14.8,0,0,0,1.85-2.759Zm-3.25,5.716v-.967h8.363a42.169,42.169,0,0,1-.267,4.244,4.948,4.948,0,0,1-.685,2.241,1.937,1.937,0,0,1-1.514.673h-2.549l-.279-1q1.216.042,2.31.042a1.426,1.426,0,0,0,1.485-.966,16.58,16.58,0,0,0,.476-4.272h-3.488a10.687,10.687,0,0,1-1.4,3.641,9.556,9.556,0,0,1-3.222,2.7l-.644-.839a9.3,9.3,0,0,0,2.927-2.312,8.608,8.608,0,0,0,1.318-3.193Zm10.661-1.318-.673.8a11.153,11.153,0,0,1-4.538-5.421l.868-.49A9.891,9.891,0,0,0,639.35,257.78Z" style="fill: #444"/>
        <path d="M643.866,265.358h-1V258.2a15.747,15.747,0,0,1-1.891,3.88l-.433-1.093a12.742,12.742,0,0,0,2.268-4.72h-1.989V255.3h2.045v-2.746h1V255.3h1.892v.966h-1.892v.756c.658.687,1.331,1.457,2.017,2.326l-.546.8a24.288,24.288,0,0,0-1.471-2.072Zm9.034-11.849a18.425,18.425,0,0,1-5.336,1.008v2.521h5.687v.967h-2.087v7.368h-1.009v-7.368h-2.591v.154a12.383,12.383,0,0,1-2.128,7.13l-.715-.743a11.083,11.083,0,0,0,1.863-6.387v-4.5a17.824,17.824,0,0,0,5.812-1.05Z" style="fill: #444"/>
        <path d="M660.485,252.514,655.527,265.4h-1.009l4.973-12.886Z" style="fill: #444"/>
        <path d="M665.889,253.984c.181-.49.349-.98.49-1.484l1.022.126c-.139.462-.28.91-.434,1.358h7.172v.981h-7.55a16.218,16.218,0,0,1-1.919,3.32v7.13h-.981v-5.926c-.476.519-.966,1.009-1.5,1.486l-.629-.8a15.5,15.5,0,0,0,3.921-5.211h-3.4v-.981Zm3.935,6.514v-1.3a14.378,14.378,0,0,0,2.283-1.583h-5.265v-.938H673.4v.938a20.065,20.065,0,0,1-2.562,2v.883h3.5v.967h-3.5v2.647a1.106,1.106,0,0,1-1.248,1.246h-1.75l-.267-.952c.5.014,1.036.029,1.612.029a.577.577,0,0,0,.643-.645v-2.325h-4.061V260.5Z" style="fill: #444"/>
        <path d="M675.826,259.153l-.336-1.078a16.223,16.223,0,0,0,2.4-5.519l.91.42a19.819,19.819,0,0,1-.939,2.717v9.722h-.98V257.6A18.662,18.662,0,0,1,675.826,259.153Zm5.127-2.241v5.94c.364-.393.742-.827,1.149-1.3l.238.994a18.987,18.987,0,0,1-2.241,2.367l-.407-.924a.717.717,0,0,0,.294-.547v-5.588h-1.568v-.939Zm.855-1.709-.743.742a14.493,14.493,0,0,0-2-2.157l.686-.672A15.92,15.92,0,0,1,681.808,255.2Zm2.395-1.009v-1.61h.91v1.61H686.7v.827q.421-.84.8-1.723l.841.434a17.448,17.448,0,0,1-1.653,3.152h1.611v.925H686a12.326,12.326,0,0,1-1.247,1.316h2.858v6.248h-.953v-.589h-2.619v.589H683.1v-5.015c-.336.2-.672.365-1.008.533l-.5-.8a10.168,10.168,0,0,0,3.18-2.283h-2.55v-.925H684.2v-1.807h-1.682v-.883Zm2.451,5.814h-2.619v1.513h2.619Zm-2.619,3.894h2.619v-1.541h-2.619Zm2.633-8.825h-1.555v1.807h.42A16.4,16.4,0,0,0,686.668,255.077Z" style="fill: #444"/>
      </g>
    </g>
    <g>
      <rect x="57.602" y="6" width="164" height="62" style="fill: none"/>
      <rect x="69.602" y="18" width="152" height="50" style="fill: #bbb;opacity: 0.6000000238418579;isolation: isolate"/>
      <rect x="67.602" y="16" width="152" height="50" style="fill: #fff;stroke: #e5e5e5"/>
      <rect x="64.602" y="13" width="152" height="50" style="fill: #bbb;opacity: 0.6000000238418579;isolation: isolate"/>
      <rect x="62.602" y="11" width="152" height="50" style="fill: #fff;stroke: #e5e5e5"/>
      <rect x="59.602" y="8" width="152" height="50" style="fill: #bbb;opacity: 0.6000000238418579;isolation: isolate"/>
      <rect x="57.602" y="6" width="152" height="50" style="fill: #fff;stroke: #e5e5e5"/>
      <g>
        <path d="M93.6,44a13,13,0,1,1,12.83-15h2a15,15,0,1,0,0,4h-2A13,13,0,0,1,93.6,44Zm7-17-7-4-7,4v8l3.2,1.83a3.986,3.986,0,0,1,1-1.71l-2.2-1.28v-3.7l5,2.86,5-2.86v3.7l-4.14,2.36A2,2,0,1,0,95.6,38v-.14l5-2.86Zm-7,3.7L88.882,28l4.72-2.7,4.72,2.7Z" style="fill: #00a4ff"/>
        <g style="isolation: isolate">
          <path d="M132.909,29.276v1.009h-6.724a24.458,24.458,0,0,1-3.376,5.519c2.522-.14,5.029-.378,7.536-.714q-.756-1.346-1.68-2.774l.812-.5a45.378,45.378,0,0,1,2.983,5.056l-.9.631c-.224-.49-.462-.98-.729-1.485-2.843.364-5.939.644-9.3.869l-.266-1.023a1.035,1.035,0,0,0,.238-.1c.9-.672,2.087-2.493,3.557-5.477h-4.72V29.276Zm-1.247-3.908v.981h-9.974v-.981Z" style="fill: #444"/>
          <path d="M135.143,37.429l-.757-.7a12.256,12.256,0,0,0,.854-4.847V25.158h4.091V36.084c0,.841-.393,1.274-1.177,1.274h-1.121l-.238-.9c.393.028.743.057,1.079.057s.532-.252.532-.757V32.6h-2.269A13.078,13.078,0,0,1,135.143,37.429Zm3.263-11.361h-2.255v2.368h2.255Zm-2.255,5.618h2.255V29.347h-2.255Zm5.309,5.729h-.953V25.145h5.673a14.761,14.761,0,0,1-.252,3.445c-.168.574-.686.868-1.569.868h-1.134l-.267-.868c.239,0,.547.014.939.014a3.149,3.149,0,0,0,.743-.07.644.644,0,0,0,.378-.406,9.724,9.724,0,0,0,.182-2.06h-3.74v4.244h4.762v.855a10.259,10.259,0,0,1-1.372,3.685,10.93,10.93,0,0,0,2.227,1.652l-.5.854a11.374,11.374,0,0,1-2.3-1.722,7.448,7.448,0,0,1-2.171,1.737l-.532-.812a6.9,6.9,0,0,0,2.031-1.654,8.793,8.793,0,0,1-1.807-3.7h-.336Zm2.717-3.292a9.532,9.532,0,0,0,1.149-2.914h-2.661A7.718,7.718,0,0,0,144.177,34.123Z" style="fill: #444"/>
          <path d="M153.443,24.654a8.6,8.6,0,0,1-.532,1.065h6.107v.812a12.287,12.287,0,0,1-3.278,2.648,18.131,18.131,0,0,0,5.295,1.3l-.462.939a17.613,17.613,0,0,1-5.926-1.682,22.546,22.546,0,0,1-5.981,1.709L148.2,30.5a22.757,22.757,0,0,0,5.351-1.345,14.428,14.428,0,0,1-2.185-1.583,11.833,11.833,0,0,1-1.751,1.3L149,28.058a7.6,7.6,0,0,0,3.418-3.544Zm1.33,6.093a9.674,9.674,0,0,1-.14,1.6h4.931c-.028,2.367-.238,3.782-.644,4.244a2.687,2.687,0,0,1-2.1.7c-.448,0-.994-.028-1.638-.057l-.252-.91,1.653.071c.84-.015,1.358-.2,1.582-.533a6.665,6.665,0,0,0,.379-2.6H154.4a5.777,5.777,0,0,1-.448,1.05c-.715,1.26-2.353,2.311-4.931,3.124l-.672-.826c2.3-.673,3.824-1.528,4.552-2.55a4.412,4.412,0,0,0,.435-.8h-4.175v-.911h4.455a7.343,7.343,0,0,0,.168-1.6Zm2.8-4.076h-5.351l-.182.225a13.26,13.26,0,0,0,2.591,1.764A12.553,12.553,0,0,0,157.575,26.671Z" style="fill: #444"/>
          <path d="M167.148,29.893a5.732,5.732,0,0,0,.645-1.135l.966.1a7.016,7.016,0,0,1-.518,1.037h3.614a7.09,7.09,0,0,0-.63-.953l.854-.28a8.652,8.652,0,0,1,.771,1.233h1.933v.9H171a9.71,9.71,0,0,0,4.077,2l-.407.854c-.35-.111-.672-.238-.98-.349v4.118h-.9v-.6h-2.619v.6h-.9V33h3.74a8.473,8.473,0,0,1-3.082-2.213h-2.367A8.934,8.934,0,0,1,164.417,33h3.516v4.413h-.9v-.6h-2.4v.6h-.882V33.282c-.379.141-.757.267-1.149.393l-.462-.826a11.232,11.232,0,0,0,4.146-2.06h-3.866v-.9Zm.687-4.8v3.4h-4.273v-3.4Zm-.924.869h-2.438v1.681h2.438Zm.126,9.987v-2.1h-2.4v2.1Zm6.709-10.856v3.4H169.39v-3.4Zm-.953,10.856v-2.1h-2.619v2.1Zm.042-9.987h-2.521v1.681h2.521Z" style="fill: #444"/>
          <path d="M179.874,24.948a21.373,21.373,0,0,1-2.283,4.16c.672-.055,1.33-.154,2-.266q.441-.777.924-1.681l.911.351a33.126,33.126,0,0,1-3.334,5.14,21.853,21.853,0,0,0,3.11-.924v.924a22.134,22.134,0,0,1-4.385,1.12l-.266-.938a1.868,1.868,0,0,0,.462-.294,15.051,15.051,0,0,0,2.031-2.773c-.812.126-1.625.238-2.465.35l-.252-.938a.983.983,0,0,0,.434-.379,21.308,21.308,0,0,0,2.157-4.23Zm1.247,10.268a21.06,21.06,0,0,1-4.539,1.484l-.126-.994a21.59,21.59,0,0,0,4.665-1.443Zm6.667.714h1.191v.98h-8.1v-.98H182.1V25.214h5.687Zm-1-7.214V26.181h-3.7v2.535Zm0,3.6V29.669h-3.7v2.647Zm0,3.614V33.269h-3.7V35.93Z" style="fill: #444"/>
        </g>
      </g>
    </g>
  </g>
  <g>
    <g>
      <rect x="329" y="89" width="80" height="20" style="fill: #cee3ff;fill-opacity: 0"/>
      <g style="isolation: isolate">
        <path d="M332.622,98.874c-.084.229-.168.444-.24.66h2.507v.707a4.831,4.831,0,0,1-1.331,2.051c.575.265,1.127.528,1.654.816l-.467.671a17.734,17.734,0,0,0-1.847-.947,9.842,9.842,0,0,1-2.986,1.331l-.408-.72a10.761,10.761,0,0,0,2.53-.983c-.527-.228-1.079-.455-1.667-.671.312-.528.588-1.019.828-1.5H329.78v-.755h1.751c.108-.263.2-.515.287-.756Zm-.48-3.37V93.213h.8V95.5h2.182v.756h-2.182v.132c.647.324,1.319.7,1.991,1.1l-.444.672q-.9-.72-1.547-1.151v1.558h-.8V96.3A5.61,5.61,0,0,1,330,98.754l-.42-.7a4.977,4.977,0,0,0,1.931-1.8h-1.7V95.5Zm-.671-.575-.624.287a11.14,11.14,0,0,0-.8-1.559l.684-.227A10.157,10.157,0,0,1,331.471,94.929Zm2.638,5.36h-2.063a8.726,8.726,0,0,1-.648,1.151c.48.168.936.336,1.368.517A4.645,4.645,0,0,0,334.109,100.289ZM335,93.681a7.991,7.991,0,0,1-.924,1.548l-.612-.313a7.649,7.649,0,0,0,.912-1.522Zm1.319,4.114a10.641,10.641,0,0,1-.708,1.476l-.539-.661a15.213,15.213,0,0,0,1.427-5.432l.839.143c-.071.612-.168,1.188-.263,1.715h3.166v.828h-.78a12.83,12.83,0,0,1-1.1,5.133,7.429,7.429,0,0,0,2.219,2.5l-.468.707a7.868,7.868,0,0,1-2.159-2.423,8.043,8.043,0,0,1-2.218,2.412l-.444-.72a7.063,7.063,0,0,0,2.218-2.5A16.649,16.649,0,0,1,336.316,97.8Zm.42-1.308a16.449,16.449,0,0,0,1.163,3.622,12.816,12.816,0,0,0,.768-4.245h-1.775Z" style="fill: #878787"/>
        <path d="M341.947,104.092l-.179-.817a7.872,7.872,0,0,0,.911.061c.3,0,.456-.18.456-.516V99.882c-.48.18-.947.347-1.415.491l-.216-.839a15.04,15.04,0,0,0,1.631-.492v-2.71H341.7V95.5h1.439V93.237h.84V95.5h1.151v.828h-1.151v2.362c.383-.168.755-.347,1.115-.54v.852c-.372.192-.744.36-1.115.528v3.5c0,.695-.336,1.056-1.008,1.056Zm3.2.107-.672-.6a13.129,13.129,0,0,0,1.3-6.164V93.681h6.321V96.6h-2.255v1.415h2.567v.779h-2.567v1.476h2.015V104.2h-.8v-.588H347.8v.588H347v-3.933h2V98.79h-2.447A13.993,13.993,0,0,1,345.15,104.2Zm1.463-7.6v.84c0,.191-.012.382-.012.575H349V96.6Zm0-2.112v1.332h4.641V94.484Zm4.437,8.36v-1.811H347.8v1.811Z" style="fill: #878787"/>
        <path d="M354.307,104.211l-.479-.732a9.629,9.629,0,0,0,4.677-2.314,4.379,4.379,0,0,0,.384-.54h-4.953V99.81h5.373a7.283,7.283,0,0,0,.515-2.542V95.852h.84v1.416a8.583,8.583,0,0,1-.444,2.542h3.85v.815h-4.21c-.108.192-.215.372-.323.54a26.875,26.875,0,0,1,4.689,2.362l-.468.744a23.884,23.884,0,0,0-4.7-2.47A9.884,9.884,0,0,1,354.307,104.211Zm9.559-7.531h-.84v-1.5h-8.083v1.5H354.1v-2.3h4.557a7.834,7.834,0,0,0-.492-1.1l.888-.143c.155.359.312.779.467,1.247h4.342Zm-5.937,2.134-.444.684a10.354,10.354,0,0,0-2.386-1.355l.432-.648A13.207,13.207,0,0,1,357.929,98.814Zm1.152-1.667-.444.684a10.92,10.92,0,0,0-2.471-1.4l.444-.648A11.938,11.938,0,0,1,359.081,97.147Z" style="fill: #878787"/>
        <path d="M369.438,102.94h-.84v-.8h-1.775v1.091h-.84V94.1h3.455Zm-.84-5.3V94.893h-1.775v2.746Zm0,3.694V98.442h-1.775v2.891Zm3.2,2.746-.18-.839c.7.024,1.356.048,1.991.048.348,0,.528-.192.528-.563v-6.49h-4.15v-.827h4.15V93.3h.876v2.111h1.475v.827h-1.475v6.7a1,1,0,0,1-1.116,1.139Zm1.08-3.454-.72.5a24.649,24.649,0,0,0-1.7-3.01l.708-.444A24.894,24.894,0,0,1,372.88,100.625Z" style="fill: #878787"/>
        <path d="M380.742,93.333c-.108.6-.228,1.164-.372,1.716h2.687v.767a13.441,13.441,0,0,1-1.848,5.277,3.673,3.673,0,0,0,.924,1.019,8.029,8.029,0,0,0,4.45,1.02c.624,0,1.247-.024,1.895-.06l-.168.9h-1.319c-2.471,0-4.258-.42-5.362-1.236a4.366,4.366,0,0,1-.911-.96,9.562,9.562,0,0,1-2.614,2.3l-.468-.815a8.281,8.281,0,0,0,2.578-2.326,14.027,14.027,0,0,1-1.043-2.771,10.426,10.426,0,0,1-1.02,1.511l-.588-.732a12.282,12.282,0,0,0,2.328-5.757Zm-.036,6.849a12.845,12.845,0,0,0,1.5-4.306H380.13c-.144.443-.3.863-.456,1.247A16.769,16.769,0,0,0,380.706,100.182Zm4.833-6.92v3.046a34.7,34.7,0,0,1,3,2.446l-.516.767a31.9,31.9,0,0,0-2.483-2.314V102.2h-.875V93.262Z" style="fill: #878787"/>
        <path d="M391.063,97.651V94.809h-1.475v-.816h3.826v.816H391.95v2.842h1.32v.828h-1.32V101.2c.456-.156.888-.324,1.32-.515v.838a24.818,24.818,0,0,1-3.562,1.152l-.216-.827c.528-.1,1.055-.216,1.571-.36v-3.01h-1.308v-.828Zm8.791-3.97v5.541h-2.5v1.416h2.7v.815h-2.7v1.559H400.5v.828h-7.219v-.828H396.5v-1.559h-2.711v-.815H396.5V99.222h-2.507V93.681Zm-3.358,2.4V94.448h-1.679V96.08Zm0,.755h-1.679v1.619H396.5Zm.863-.755h1.667V94.448h-1.667Zm1.667.755h-1.667v1.619h1.667Z" style="fill: #878787"/>
      </g>
    </g>
    <g>
      <rect x="329" y="209" width="80" height="20" style="fill: #cee3ff;fill-opacity: 0"/>
      <g style="isolation: isolate">
        <path d="M332.622,218.874c-.084.229-.168.444-.24.66h2.507v.707a4.831,4.831,0,0,1-1.331,2.051c.575.265,1.127.528,1.654.816l-.467.671a17.734,17.734,0,0,0-1.847-.947,9.842,9.842,0,0,1-2.986,1.331l-.408-.72a10.761,10.761,0,0,0,2.53-.983c-.527-.228-1.079-.455-1.667-.671.312-.528.588-1.019.828-1.5H329.78v-.755h1.751c.108-.263.2-.515.287-.756Zm-.48-3.37v-2.291h.8V215.5h2.182v.756h-2.182v.132c.647.324,1.319.695,1.991,1.1l-.444.672q-.9-.72-1.547-1.151v1.558h-.8V216.3A5.61,5.61,0,0,1,330,218.754l-.42-.695a4.977,4.977,0,0,0,1.931-1.8h-1.7V215.5Zm-.671-.575-.624.287a11.14,11.14,0,0,0-.8-1.559l.684-.227A10.157,10.157,0,0,1,331.471,214.929Zm2.638,5.36h-2.063a8.726,8.726,0,0,1-.648,1.151c.48.168.936.336,1.368.517A4.645,4.645,0,0,0,334.109,220.289Zm.888-6.608a7.991,7.991,0,0,1-.924,1.548l-.612-.313a7.649,7.649,0,0,0,.912-1.522Zm1.319,4.114a10.641,10.641,0,0,1-.708,1.476l-.539-.661a15.213,15.213,0,0,0,1.427-5.432l.839.143c-.071.612-.168,1.188-.263,1.715h3.166v.828h-.78a12.83,12.83,0,0,1-1.1,5.133,7.429,7.429,0,0,0,2.219,2.495l-.468.707a7.868,7.868,0,0,1-2.159-2.423,8.043,8.043,0,0,1-2.218,2.412l-.444-.72a7.063,7.063,0,0,0,2.218-2.495A16.649,16.649,0,0,1,336.316,217.8Zm.42-1.308a16.449,16.449,0,0,0,1.163,3.622,12.816,12.816,0,0,0,.768-4.245h-1.775Z" style="fill: #878787"/>
        <path d="M341.947,224.092l-.179-.817a7.872,7.872,0,0,0,.911.061c.3,0,.456-.18.456-.516v-2.938c-.48.18-.947.347-1.415.491l-.216-.839a15.04,15.04,0,0,0,1.631-.492v-2.71H341.7V215.5h1.439v-2.267h.84V215.5h1.151v.828h-1.151v2.362c.383-.168.755-.347,1.115-.54v.852c-.372.192-.744.36-1.115.528v3.5c0,.695-.336,1.056-1.008,1.056Zm3.2.107-.672-.6a13.129,13.129,0,0,0,1.3-6.164v-3.755h6.321V216.6h-2.255v1.415h2.567v.779h-2.567v1.476h2.015V224.2h-.8v-.588H347.8v.588H347v-3.933h2V218.79h-2.447A13.993,13.993,0,0,1,345.15,224.2Zm1.463-7.6v.84c0,.191-.012.382-.012.575H349V216.6Zm0-2.112v1.332h4.641v-1.332Zm4.437,8.36v-1.811H347.8v1.811Z" style="fill: #878787"/>
        <path d="M359.561,214.113h4.581v.8h-10.29v-.8H358.7a9.25,9.25,0,0,0-.42-.851l.888-.145A7.3,7.3,0,0,1,359.561,214.113ZM362,215.468h.828v3.322h-3.85c-.1.3-.192.576-.288.84h4.881V223.2a.883.883,0,0,1-1.007.984h-1.008l-.216-.816.948.036c.3,0,.456-.133.456-.384v-2.615h-2.195a23.7,23.7,0,0,1,1.355,2.363l-.695.348c-.108-.24-.216-.456-.312-.66-.924.168-2.387.372-4.39.6l-.2-.78a.57.57,0,0,0,.372-.143,11.557,11.557,0,0,0,.888-1.728h-2.279v3.779h-.828V219.63h3.406c.1-.264.18-.552.276-.84h-2.95v-3.322h.827v2.6H362Zm-2.759.683a8.742,8.742,0,0,0,1.344-1.031l.611.372a12.769,12.769,0,0,1-1.247,1.008c.516.264,1.008.551,1.487.852l-.395.6a19.211,19.211,0,0,0-1.764-1.032,15.034,15.034,0,0,1-2.362,1.032l-.384-.624a10.953,10.953,0,0,0,2-.779,19.87,19.87,0,0,0-1.835-.768l.372-.551A23.562,23.562,0,0,1,359.236,216.151Zm-.851,4.258a15.746,15.746,0,0,1-.875,1.787c1.055-.107,2.062-.239,3.022-.407-.24-.42-.468-.8-.7-1.164l.444-.216Z" style="fill: #878787"/>
        <path d="M368.466,213.465a20.068,20.068,0,0,1-1.859,3.742c.54-.048,1.08-.12,1.619-.2.216-.432.456-.887.7-1.367l.767.288a27,27,0,0,1-2.638,4.317,20.645,20.645,0,0,0,2.591-.683v.78a20.917,20.917,0,0,1-3.611.851l-.239-.792a1.649,1.649,0,0,0,.4-.251,12,12,0,0,0,1.606-2.363c-.659.1-1.331.18-2,.264l-.2-.792a.783.783,0,0,0,.359-.312,20.278,20.278,0,0,0,1.692-3.8Zm1.307,9.176a22.17,22.17,0,0,1-4.029,1.1l-.108-.839a20.9,20.9,0,0,0,4.137-1.092Zm5.937-6.525-3.082.432c.024.575.06,1.115.108,1.631l3.178-.5.132.815-3.214.5c.023.216.06.432.1.624a11.473,11.473,0,0,0,.431,1.643,10.929,10.929,0,0,0,1.727-2.039l.684.467a12.521,12.521,0,0,1-2.063,2.364c.048.071.084.155.132.227.4.588.744.888,1.056.888s.587-.647.8-1.931l.732.48c-.336,1.583-.816,2.387-1.439,2.387a2.206,2.206,0,0,1-1.632-1.1,2.5,2.5,0,0,1-.276-.443,9.42,9.42,0,0,1-2.866,1.463l-.5-.7A10.348,10.348,0,0,0,372.7,221.8a9.7,9.7,0,0,1-.552-1.751c-.072-.312-.12-.612-.168-.924l-2.159.348-.12-.816,2.171-.347c-.06-.516-.1-1.068-.108-1.643l-1.727.251-.132-.791,1.835-.264V213.2h.864v2.543l2.986-.42Zm-.348-1.464-.672.468a10.482,10.482,0,0,0-1.415-1.535l.672-.42A15.03,15.03,0,0,1,375.362,214.652Z" style="fill: #878787"/>
        <path d="M382.085,213.909a14.356,14.356,0,0,1-1.691,2.446,12.034,12.034,0,0,1-2.4,2.051l-.468-.755a8.675,8.675,0,0,0,2.219-1.835,12.677,12.677,0,0,0,1.583-2.363ZM379.3,218.8v-.828h7.16a36.329,36.329,0,0,1-.228,3.633,4.233,4.233,0,0,1-.588,1.919,1.655,1.655,0,0,1-1.3.577h-2.183l-.24-.852q1.044.034,1.979.036a1.221,1.221,0,0,0,1.272-.828,14.181,14.181,0,0,0,.407-3.657H382.6a9.16,9.16,0,0,1-1.2,3.118,8.189,8.189,0,0,1-2.758,2.314l-.552-.719a7.959,7.959,0,0,0,2.507-1.979,7.37,7.37,0,0,0,1.128-2.734Zm9.127-1.128-.576.683a9.558,9.558,0,0,1-3.886-4.641l.744-.42A8.472,8.472,0,0,0,388.43,217.675Z" style="fill: #878787"/>
        <path d="M392.31,224.163h-.852v-6.128a13.516,13.516,0,0,1-1.619,3.321l-.371-.934a10.926,10.926,0,0,0,1.943-4.042h-1.7v-.828h1.75V213.2h.852v2.351h1.619v.828H392.31v.647c.564.588,1.14,1.247,1.727,1.992l-.468.683a20.255,20.255,0,0,0-1.259-1.775Zm7.736-10.146a15.778,15.778,0,0,1-4.569.864v2.158h4.869v.828h-1.787v6.309H397.7v-6.309h-2.218V218a10.6,10.6,0,0,1-1.824,6.105l-.611-.636a9.495,9.495,0,0,0,1.6-5.469v-3.851a15.223,15.223,0,0,0,4.977-.9Z" style="fill: #878787"/>
      </g>
    </g>
  </g>
</svg>
