<?xml version="1.0" encoding="utf-8"?>
<!-- Generator: Adobe Illustrator 22.1.0, SVG Export Plug-In . SVG Version: 6.00 Build 0)  -->
<svg version="1.1" id="svgwrapper_svg" xmlns="http://www.w3.org/2000/svg" xmlns:xlink="http://www.w3.org/1999/xlink" x="0px"
	 y="0px" width="810.7px" height="396px" viewBox="0 0 810.7 396" style="enable-background:new 0 0 810.7 396;"
	 xml:space="preserve">
<style type="text/css">
	.st0{display:none;fill:none;stroke:#999999;}
	.st1{opacity:0.6;fill:#BBBBBB;enable-background:new    ;}
	.st2{fill:#FFFFFF;stroke:#E5E5E5;}
	.st3{fill:none;stroke:#BABABA;}
	.st4{fill:#00A4FF;}
	.st5{enable-background:new    ;}
	.st6{fill:#444444;}
	.st7{fill:#CEE3FF;fill-opacity:0;}
	.st8{fill:#878787;}
</style>
<path class="st0" d="M0,0L0,0"/>
<g id="bottomgroup" transform="translate(0,0)">
</g>
<g id="middlegroup" transform="translate(0,0)">
</g>
<rect x="5.1" y="5" class="st1" width="192.3" height="182.4"/>
<rect x="3" y="2.9" class="st2" width="192.3" height="182.4"/>
<g transform="translate(20 9)">
	<line class="st3" x1="3" y1="43.9" x2="148" y2="43.9"/>
</g>
<g transform="translate(20 9)">
	<g>
		<path id="优图人脸识别" class="st4" d="M32,31.9c-0.7,0-1.4-0.4-1.7-1H5v-17h2v15h23.3c0.6-1,1.8-1.3,2.7-0.7
			c1,0.6,1.3,1.8,0.7,2.7C33.4,31.5,32.7,31.9,32,31.9z M14,25.9h-2c0-2.8,2.2-5,5-5v2C15.3,22.9,14,24.2,14,25.9z M26,25.9h-2
			c0-1.7-1.3-3-3-3v-2C23.8,20.9,26,23.1,26,25.9z M21,22.9h-4v-2h4V22.9z M15,15.9c0-2.2,1.8-4,4-4s4,1.8,4,4s-1.8,4-4,4
			S15,18.1,15,15.9z M19,17.9c1.1,0,2-0.9,2-2s-0.9-2-2-2s-2,0.9-2,2S17.9,17.9,19,17.9z M31,8.9H7.7c-0.5,1-1.8,1.3-2.7,0.7
			C4.1,9,3.7,7.9,4.3,6.9S6,5.6,7,6.2c0.3,0.2,0.6,0.4,0.7,0.7H33v17h-2V8.9z"/>
	</g>
	<g class="st5">
		<path class="st6" d="M52.4,15.6c0.8,3.8,2.8,6.7,6.1,8.7l-0.7,0.9C55,23.3,53,20.8,52,17.6c-0.8,3.1-2.8,5.6-5.9,7.6l-0.6-0.9
			c3.9-2.4,5.8-5.6,6-9.6c0-1,0-1.7,0-2.2h1C52.5,13.7,52.5,14.7,52.4,15.6z"/>
		<path class="st6" d="M60.3,25.3l-0.7-0.7c0.5-1.3,0.8-2.9,0.8-4.9V13h3.5v10.9c0,0.9-0.4,1.3-1.3,1.3h-0.9l-0.2-0.9
			c0.3,0,0.6,0,0.8,0c0.4,0,0.7-0.3,0.7-0.8v-3h-1.7C61.2,22.5,60.8,24.1,60.3,25.3z M63,14h-1.7v2.4H63V14z M61.3,19.7H63v-2.4
			h-1.7V19.7z M64.5,18L64,17.2c1.6-1.2,2.9-2.8,3.8-4.7h0.9c0.7,1.8,2,3.3,3.9,4.7L72,18c-0.6-0.4-1.1-0.9-1.6-1.4v0.8h-4.3v-0.8
			C65.6,17.2,65.1,17.6,64.5,18z M69,23.8c0.6-1.5,1.2-3.3,1.6-5.5l1,0.3c-0.4,2-1,3.7-1.6,5.2h2.3v1h-7.9v-1H69z M66.9,22.8L66,23
			c-0.3-1.4-0.7-2.7-1.2-4l0.9-0.3C66.2,20,66.6,21.3,66.9,22.8z M68.2,13.5c-0.6,1.2-1.2,2.2-2,3h4C69.4,15.6,68.7,14.6,68.2,13.5z
			 M69,22.1l-0.9,0.2c-0.3-1.3-0.6-2.6-1-3.9l0.9-0.3C68.3,19.4,68.7,20.7,69,22.1z"/>
		<path class="st6" d="M76.6,16.7v6.2c0.4-0.4,0.9-0.9,1.4-1.4l0.3,1.1c-0.8,0.8-1.7,1.5-2.6,2.2l-0.4-0.9c0.2-0.2,0.3-0.4,0.3-0.6
			v-5.6h-2v-1C73.6,16.7,76.6,16.7,76.6,16.7z M77.6,14.7L77,15.4c-0.6-0.7-1.4-1.4-2.4-2.1l0.7-0.7C76.2,13.3,77,14,77.6,14.7z
			 M81.5,21.1c-0.7,1.6-1.5,3.1-2.5,4.3l-0.9-0.6c1-1.1,1.8-2.5,2.5-4L81.5,21.1z M85.6,13.3v6.5h-6.4v-6.5
			C79.2,13.3,85.6,13.3,85.6,13.3z M84.5,14.3h-4.4v4.6h4.4V14.3z M86.5,24.7l-0.9,0.6c-0.6-1.3-1.4-2.6-2.5-4.2l0.8-0.5
			C85.1,22.2,85.9,23.6,86.5,24.7z"/>
		<path class="st6" d="M88.4,17.5V13h6v4.5h-2.7c0,0.6-0.1,1.2-0.1,1.7h3c0,2.4-0.1,3.9-0.2,4.5c-0.1,0.9-0.8,1.4-2,1.4
			c-0.2,0-0.5,0-1,0L91,24.2c0.4,0,0.8,0.1,1,0.1c0.7,0,1.1-0.3,1.2-0.9c0.1-0.4,0.1-1.4,0.2-3.2h-2.1c-0.2,0.9-0.3,1.6-0.6,2.1
			c-0.5,1.2-1.4,2.2-2.6,3.1l-0.6-0.8c1.1-0.7,1.8-1.6,2.3-2.7c0.2-0.4,0.3-1,0.5-1.7h-2.5v-0.9h2.6c0.1-0.5,0.1-1.1,0.1-1.7h-2.1
			V17.5z M93.3,13.9h-4v2.6h4V13.9z M96.9,13.7v8.7h-1v-8.7H96.9z M96.5,25.2l-0.2-1c0.7,0,1.3,0.1,1.9,0.1c0.4,0,0.7-0.3,0.7-0.8
			v-11h1v11.3c0,0.9-0.4,1.4-1.3,1.4C98.6,25.2,96.5,25.2,96.5,25.2z"/>
	</g>
</g>
<rect x="207" y="5" class="st1" width="192.2" height="182.5"/>
<rect x="204.8" y="2.9" class="st2" width="192.2" height="182.5"/>
<g transform="translate(20 9)">
	<line class="st3" x1="204.8" y1="43.9" x2="336.8" y2="43.9"/>
</g>
<g transform="translate(20 9)">
	<g>
		<path id="OCR文字识别" class="st4" d="M230.9,31.9c-0.7,0-1.4-0.4-1.7-1h-25.3v-17h2v15h23.3c0.6-1,1.8-1.3,2.7-0.7
			c1,0.6,1.3,1.8,0.7,2.7C232.3,31.5,231.7,31.9,230.9,31.9z M221.9,16.9h2c1.1,0,2,0.9,2,2h-6C219.9,17.8,220.8,16.9,221.9,16.9z
			 M223.9,21.9h-4c0-1.1,0.9-2,2-2h2v-1h2v3l0,0v1l0,0c0,1.1-0.9,2-2,2h-2c-1.1,0-2-0.9-2-2l0,0v-1h2v1h2V21.9L223.9,21.9z
			 M211.9,14.9h3c1.1,0,2,0.9,2,2h-7C209.9,15.8,210.8,14.9,211.9,14.9z M209.9,24.9v-8h2v3h3v-3h2v8h-2v-3h-3v3H209.9z M229.9,8.9
			h-23.3c-0.6,1-1.8,1.3-2.7,0.7s-1.3-1.8-0.7-2.7c0.6-1,1.8-1.3,2.7-0.7c0.3,0.2,0.6,0.4,0.7,0.7h25.3v17h-2V8.9z"/>
	</g>
	<g class="st5">
		<path class="st6" d="M252.9,15.2c0.8,1,1.2,2.2,1.2,3.7s-0.4,2.7-1.2,3.7c-0.9,1-2.1,1.5-3.6,1.5s-2.7-0.5-3.5-1.5
			s-1.2-2.2-1.2-3.7s0.4-2.7,1.2-3.7c0.9-1,2-1.5,3.6-1.5C250.8,13.7,252,14.2,252.9,15.2z M246.6,15.9c-0.6,0.8-0.9,1.8-0.9,3
			s0.3,2.2,0.9,3c0.6,0.8,1.6,1.2,2.7,1.2s2.1-0.4,2.7-1.1c0.6-0.8,0.9-1.8,0.9-3c0-1.3-0.3-2.3-0.9-3c-0.6-0.8-1.5-1.1-2.7-1.1
			S247.3,15.1,246.6,15.9z"/>
		<path class="st6" d="M262.8,14.6c0.8,0.6,1.2,1.4,1.3,2.4H263c-0.1-0.7-0.5-1.3-1.1-1.7c-0.5-0.4-1.2-0.6-2-0.6
			c-1.2,0-2.1,0.4-2.7,1.2c-0.6,0.8-0.9,1.8-0.9,3s0.3,2.2,0.9,3c0.6,0.8,1.5,1.2,2.7,1.2c0.8,0,1.5-0.2,2-0.6c0.6-0.4,1-1.1,1.2-2
			h1.1c-0.2,1.2-0.7,2.1-1.6,2.7c-0.8,0.6-1.7,0.9-2.8,0.9c-1.6,0-2.7-0.5-3.6-1.5c-0.8-0.9-1.1-2.1-1.1-3.6s0.4-2.7,1.1-3.7
			c0.8-1.1,2-1.6,3.6-1.6C261.1,13.7,262,14,262.8,14.6z"/>
		<path class="st6" d="M270.2,13.9c1,0,1.8,0.2,2.4,0.7c0.6,0.5,0.9,1.2,0.9,2.1c0,0.6-0.2,1.1-0.5,1.5s-0.8,0.7-1.4,0.9l0,0
			c1,0.2,1.5,0.8,1.6,1.8l0.2,1.5c0.1,0.6,0.2,1.1,0.5,1.5h-1.2c-0.2-0.3-0.4-0.8-0.4-1.3l-0.1-1.3c-0.1-0.6-0.3-1-0.6-1.3
			c-0.3-0.3-0.8-0.4-1.4-0.4h-3v4.3h-1.3v-10C265.9,13.9,270.2,13.9,270.2,13.9z M267,18.6h3c0.7,0,1.3-0.2,1.7-0.5
			c0.3-0.3,0.5-0.8,0.5-1.4s-0.2-1.1-0.5-1.4c-0.4-0.3-0.9-0.5-1.7-0.5h-3V18.6z"/>
		<path class="st6" d="M278,16.7v6.2c0.4-0.4,0.9-0.9,1.4-1.4l0.3,1.1c-0.8,0.8-1.7,1.5-2.6,2.2l-0.4-0.9c0.2-0.2,0.3-0.4,0.3-0.6
			v-5.6h-2v-1C275,16.7,278,16.7,278,16.7z M279,14.7l-0.7,0.7c-0.6-0.7-1.4-1.4-2.4-2.1l0.7-0.7C277.6,13.3,278.3,14,279,14.7z
			 M282.8,21.1c-0.7,1.6-1.5,3.1-2.5,4.3l-0.9-0.6c1-1.1,1.8-2.5,2.5-4L282.8,21.1z M286.9,13.3v6.5h-6.4v-6.5
			C280.5,13.3,286.9,13.3,286.9,13.3z M285.9,14.3h-4.4v4.6h4.4V14.3z M287.9,24.7l-0.9,0.6c-0.6-1.3-1.4-2.6-2.5-4.2l0.8-0.5
			C286.4,22.2,287.3,23.6,287.9,24.7z"/>
		<path class="st6" d="M289.7,17.5V13h6v4.5h-2.8c0,0.6-0.1,1.2-0.1,1.7h3c0,2.4-0.1,3.9-0.2,4.5c-0.1,0.9-0.8,1.4-2,1.4
			c-0.2,0-0.5,0-1,0l-0.2-0.9c0.4,0,0.8,0.1,1,0.1c0.7,0,1.1-0.3,1.2-0.9c0.1-0.4,0.1-1.4,0.2-3.2h-2.1c-0.2,0.9-0.3,1.6-0.6,2.1
			c-0.5,1.2-1.4,2.2-2.6,3.1l-0.6-0.8c1.1-0.7,1.8-1.6,2.3-2.7c0.2-0.4,0.3-1,0.5-1.7h-2.5v-0.9h2.6c0.1-0.5,0.1-1.1,0.1-1.7h-2.2
			L289.7,17.5L289.7,17.5z M294.7,13.9h-4v2.6h4V13.9z M298.2,13.7v8.7h-1v-8.7H298.2z M297.8,25.2l-0.2-1c0.7,0,1.3,0.1,1.9,0.1
			c0.4,0,0.7-0.3,0.7-0.8v-11h1v11.3c0,0.9-0.4,1.4-1.3,1.4C299.9,25.2,297.8,25.2,297.8,25.2z"/>
	</g>
</g>
<rect x="407.2" y="3.5" class="st1" width="190.4" height="185"/>
<rect x="405.1" y="1.5" class="st2" width="190.4" height="185"/>
<g transform="translate(20 9)">
	<line class="st3" x1="405.1" y1="42.5" x2="546.1" y2="42.5"/>
</g>
<g transform="translate(20 9)">
	<g>
		<path id="人脸核身" class="st4" d="M434.1,30.5c-0.7,0-1.4-0.4-1.7-1h-25.3v-17h2v15h23.3c0.6-1,1.8-1.3,2.7-0.7
			c1,0.6,1.3,1.8,0.7,2.7C435.5,30.1,434.8,30.5,434.1,30.5z M426.1,13.5h3v2h-3V13.5z M431.1,23.5h-5v-2h5V23.5z M426.1,17.5h2v2
			h-2V17.5z M413.1,24.5h-2c0-2.8,2.2-5,5-5v2C414.4,21.5,413.1,22.8,413.1,24.5z M425.1,24.5h-2c0-1.7-1.3-3-3-3v-2
			C422.9,19.5,425.1,21.7,425.1,24.5z M420.1,21.5h-4v-2h4V21.5z M414.1,14.5c0-2.2,1.8-4,4-4c2.2,0,4,1.8,4,4s-1.8,4-4,4
			C415.9,18.5,414.1,16.7,414.1,14.5z M418.1,16.5c1.1,0,2-0.9,2-2s-0.9-2-2-2s-2,0.9-2,2S417,16.5,418.1,16.5z M433.1,7.5h-23.3
			c-0.6,1-1.8,1.3-2.7,0.7c-1-0.6-1.3-1.8-0.7-2.7c0.6-1,1.8-1.3,2.7-0.7c0.3,0.2,0.6,0.4,0.7,0.7h25.3v17h-2V7.5z"/>
	</g>
	<g class="st5">
		<path class="st6" d="M451.1,13.6v4.6c0,1.6-0.3,2.8-0.7,3.8c-0.4,0.9-1.1,1.6-2.1,2l-0.5-0.8c0.9-0.5,1.6-1.1,1.9-1.8
			c0.3-0.8,0.5-1.8,0.5-3.1v-4.6L451.1,13.6L451.1,13.6z M453.1,20.4h-0.9v-7.9h-3v7.9h-0.9v-8.8h4.8V20.4z M453.5,23.1l-0.7,0.7
			c-0.4-0.8-1.1-1.6-1.9-2.4l0.6-0.6C452.3,21.6,453,22.3,453.5,23.1z M455.6,17.8v4.8c0.6-0.2,1.3-0.6,1.9-1l0.2,0.9
			c-0.9,0.5-1.8,1-3,1.3l-0.4-0.9c0.2-0.1,0.3-0.2,0.3-0.4v-4.7h-1v-1h1V11h1v5.8h4.7v1h-2.5c0.6,2.2,1.6,3.9,2.8,5.2l-0.7,0.8
			c-1.3-1.3-2.3-3.3-3-5.9h-1.3V17.8z M460.1,12.3c-1,1.6-2.1,2.7-3.5,3.5l-0.5-0.8c1.3-0.7,2.3-1.8,3.2-3.3L460.1,12.3z"/>
		<path class="st6" d="M462.3,23.9l-0.7-0.7c1.1-1.6,1.7-3.6,1.7-6.1v-4.3h4.6c-0.3-0.6-0.5-1.1-0.8-1.6l1.1-0.2
			c0.3,0.5,0.5,1.1,0.8,1.8h4.4v4.7h-9C464.2,20,463.6,22.1,462.3,23.9z M464.3,13.8v2.7h8v-2.7H464.3z"/>
		<path class="st6" d="M478.7,20.5c-0.9,0.3-2,0.6-3.1,0.9l-0.1-1c1.2-0.2,2.3-0.5,3.2-0.8V20.5z M475.9,12.6v-0.9h4.4l-0.7,5.8h0.9
			c0,3.2-0.1,5-0.4,5.5c-0.3,0.5-0.9,0.7-1.7,0.7c-0.3,0-0.7,0-1,0l-0.3-0.9c0.5,0.1,0.8,0.1,1,0.1c0.7,0,1.1-0.2,1.2-0.6
			s0.2-1.7,0.2-3.9h-3.6l0.7-4.8l0.9,0.1l-0.6,3.9h1.7l0.6-4.8h-3.3L475.9,12.6L475.9,12.6z M481,16.7l-0.5-0.8
			c1.6-1.2,2.8-2.8,3.6-4.7h0.9c0.7,1.8,1.9,3.3,3.7,4.7l-0.5,0.8c-0.6-0.5-1.1-1-1.6-1.5v0.9h-3.9v-0.9
			C482.1,15.7,481.5,16.2,481,16.7z M485.4,22.4c0.5-1.5,1-3.3,1.4-5.5l1,0.2c-0.4,2-0.9,3.8-1.4,5.3h2.1v1h-7.6v-1H485.4z
			 M483.3,21.3l-0.9,0.2c-0.3-1.4-0.7-2.7-1.2-3.9l0.9-0.3C482.6,18.5,483,19.8,483.3,21.3z M484.5,12.1c-0.6,1.2-1.2,2.2-1.9,3h3.9
			C485.6,14.2,485,13.2,484.5,12.1z M485.3,20.7l-0.9,0.2c-0.3-1.3-0.6-2.6-1-3.8l0.9-0.3C484.7,18,485,19.3,485.3,20.7z"/>
		<path class="st6" d="M492.7,15.3v6.1c0.4-0.4,0.9-0.8,1.4-1.3l0.3,1.1c-0.8,0.8-1.7,1.5-2.6,2.1l-0.4-0.9c0.2-0.2,0.3-0.4,0.3-0.6
			v-5.4h-2v-1h3V15.3L492.7,15.3z M493.7,13.3L493,14c-0.6-0.7-1.3-1.4-2.3-2.2l0.7-0.7C492.3,11.9,493.1,12.6,493.7,13.3z
			 M494.5,12.7v-1h7.9v1h-2.9v3.9h2.7v0.9h-2.7v4.8h3.2v1h-8.6v-1h1.4v-7.4h1v7.4h2v-9.7L494.5,12.7L494.5,12.7z"/>
	</g>
</g>
<rect x="607.8" y="3.3" class="st1" width="192.5" height="186"/>
<rect x="605.9" y="1.3" class="st2" width="192.5" height="186"/>
<g transform="translate(20 9)">
	<line class="st3" x1="605.9" y1="42.3" x2="763.9" y2="42.3"/>
</g>
<g transform="translate(20 9)">
	<g>
		<title  xmlns="http://www.w3.org/2000/svg">Product Icons【32】</title>
		<g id="_编组_">
			<g id="_编组_2">
				<path id="_复合路径_" class="st4" d="M621.9,2.3h-0.4h0.8H621.9z M608.9,17.3c0-4.6,2.4-8.8,6.3-11.1l-1-1.7
					c-7.1,4.3-9.4,13.5-5.1,20.6c1.3,2.1,3,3.9,5.1,5.1l1-1.7C611.3,26.1,608.9,21.8,608.9,17.3z M629.6,4.4l-1,1.7
					c6.1,3.7,8.1,11.7,4.4,17.8c-1.1,1.8-2.6,3.3-4.4,4.4l1,1.7c7.1-4.3,9.4-13.5,5.1-20.6C633.4,7.4,631.7,5.8,629.6,4.4L629.6,4.4
					z M625.6,9.1l-1,1.7l0,0l-2.7,4.5l0,0c-1.1,0-2,0.9-2,2s0.9,2,2,2c1.1,0,2-0.9,2-2c0-0.4-0.1-0.7-0.3-1l2.7-4.5
					c3,2.4,3.5,6.8,1,9.8s-6.8,3.5-9.8,1c-3-2.4-3.5-6.8-1-9.8c0.5-0.6,1.1-1.2,1.8-1.6l-1-1.7c-4.3,2.6-5.6,8.1-3.1,12.4
					c2.6,4.3,8.1,5.6,12.4,3.1s5.6-8.1,3.1-12.4C628.7,11.1,627.3,9.8,625.6,9.1L625.6,9.1z"/>
			</g>
		</g>
	</g>
	<g class="st5">
		<path class="st6" d="M655.3,23.4c-0.9,0-1.6-0.1-2.2-0.3c-0.5-0.2-1-0.5-1.5-1c-0.2-0.2-0.4-0.3-0.5-0.3c-0.3,0-0.9,0.6-1.7,1.9
			l-0.8-0.7c0.8-1.2,1.4-1.9,2-2.1v-4.3h-2v-0.9h2.9V21c0.1,0.1,0.2,0.2,0.3,0.3c0.3,0.4,0.7,0.7,1.1,0.9c0.4,0.2,1.1,0.3,1.9,0.3
			c0.7,0,1.6,0,2.7,0c0.7,0,1.4,0,2.1,0s1.2,0,1.6-0.1l-0.3,1h-3.2C657,23.4,656.2,23.4,655.3,23.4z M652,13.2l-0.7,0.7
			c-0.6-0.7-1.4-1.4-2.4-2.3l0.7-0.7C650.6,11.8,651.4,12.5,652,13.2z M661.1,14.8v1h-4.4c-0.8,2-1.5,3.4-2.1,4.2
			c1.8-0.2,3.3-0.4,4.5-0.7c-0.3-0.8-0.7-1.5-1.1-2.3l0.8-0.3c0.8,1.3,1.4,2.8,2,4.4l-0.9,0.2c-0.1-0.4-0.3-0.9-0.5-1.2
			c-1.5,0.4-3.6,0.7-6.1,0.9l-0.3-0.9c0.6-0.2,1.4-1.6,2.5-4.4h-2.9v-1L661.1,14.8L661.1,14.8z M660,11.6v0.9h-6.4v-0.9H660z"/>
		<path class="st6" d="M666,11.8v-0.9h1v0.9h3.7v-0.9h1v0.9h3.2v0.9h-3.2v0.8h-1v-0.8H667v0.8h-1v-0.8h-3.2v-0.9H666z M674.5,16.8
			h-1v-1.8h-9.3v1.8h-1v-2.6h11.3V16.8z M673.7,23.8h-1v-0.6h-7.6v0.6h-1v-4h9.6V23.8z M672.8,22.3v-1.7h-7.6v1.7H672.8z M672.4,16
			v2.8h-7V16H672.4z M671.5,16.8h-5.1v1.3h5.1V16.8z"/>
		<path class="st6" d="M688.6,11.5v1h-5.2v5.3h5.7v1h-5.7v5h-1v-5h-5.6v-1h5.6v-5.3h-5.1v-1C677.3,11.5,688.6,11.5,688.6,11.5z
			 M680.5,16.6l-0.9,0.5c-0.5-1.2-1-2.3-1.5-3.2l0.9-0.5C679.5,14.3,680,15.4,680.5,16.6z M687.8,13.8c-0.4,1.1-1,2.2-1.7,3.2
			l-0.9-0.5c0.7-1.1,1.2-2.2,1.6-3.2L687.8,13.8z"/>
		<path class="st6" d="M691,15.5c1.2-0.4,2.8-2,4.6-4.7l1,0.4c-1.3,1.8-2.5,3.2-3.8,4.3c2.7-0.1,5.2-0.3,7.6-0.5
			c-0.5-0.8-1.1-1.5-1.6-2.1l0.9-0.4c1.2,1.4,2.3,3,3.4,4.7l-1,0.5c-0.4-0.6-0.7-1.1-1-1.7c-3,0.3-6.2,0.5-9.9,0.6L691,15.5z
			 M701.6,23.8h-1v-0.7h-7.3v0.7h-1v-5.8h9.4L701.6,23.8L701.6,23.8z M700.5,22v-3.2h-7.3V22H700.5z"/>
	</g>
</g>
<g id="Textdot2" transform="translate(18,105)">
	<rect x="-5.8" y="-47.1" class="st7" width="156.5" height="20"/>
	<g transform="translate(0 0)">
		<g class="st5">
			<path class="st8" d="M21.1-38.8v0.8h-2.8c-0.5,1.8-0.9,3.1-1.3,3.9c0.9-0.2,1.9-0.5,2.8-0.8c-0.3-0.6-0.6-1.2-0.9-1.8l0.7-0.4
				c0.6,1,1.1,2.1,1.6,3.4l-0.7,0.4c-0.1-0.3-0.2-0.6-0.4-0.9c-1.3,0.5-2.7,0.8-4.1,1.1l-0.2-0.8c0.1,0,0.1,0,0.2-0.1
				c0.4-0.5,0.8-1.8,1.4-4h-1.7v-0.8C15.7-38.8,21.1-38.8,21.1-38.8z M20.7-42.1v0.8h-4.3v-0.8H20.7z M23.8-42.9v2.4h2.6
				c0,3.8-0.1,6.1-0.2,7c-0.1,1-0.7,1.5-1.7,1.5c-0.2,0-0.6,0-1.1,0l-0.2-0.8c0.4,0,0.8,0,1.1,0c0.6,0,0.9-0.3,1-1
				c0.1-0.6,0.1-2.6,0.1-5.8h-1.8v0.1c0,3.5-0.9,6-2.5,7.6l-0.6-0.6c1.5-1.5,2.3-3.8,2.3-7v-0.1h-1.6v-0.8h1.6v-2.4h1
				C23.8-42.8,23.8-42.9,23.8-42.9z"/>
			<path class="st8" d="M28-37.2l-0.3-0.9c1.3-1.4,2.2-3,2.8-4.8l0.8,0.4c-0.3,0.9-0.7,1.8-1.2,2.6v8h-0.9v-6.7
				C28.8-38.1,28.4-37.6,28-37.2z M31.1-37.3L30.5-38c1.1-1.2,1.9-2.9,2.6-4.9l0.9,0.2c-0.2,0.6-0.4,1.1-0.6,1.6h5.2v0.9h-4v2h3.5
				v0.8h-3.5v2h3.6v0.8h-3.6v2.8h-0.9v-8.5h-0.6C32.5-39.2,31.9-38.2,31.1-37.3z"/>
			<path class="st8" d="M42.7-33.6c0.4,0.4,0.7,0.8,1,1.2l-0.6,0.5c-0.3-0.4-0.6-0.8-1-1.2c-0.4-0.5-0.9-0.9-1.3-1.2l0.5-0.5
				C41.8-34.5,42.2-34.1,42.7-33.6z"/>
			<path class="st8" d="M54.9-37.2c-0.1,0.2-0.2,0.4-0.2,0.7h2.5v0.7c-0.3,0.8-0.7,1.5-1.3,2.1c0.6,0.3,1.1,0.5,1.7,0.8L57-32.3
				c-0.5-0.3-1.1-0.6-1.8-0.9c-0.8,0.6-1.8,1-3,1.3l-0.4-0.7c1-0.3,1.8-0.6,2.5-1c-0.5-0.2-1.1-0.5-1.7-0.7c0.3-0.5,0.6-1,0.8-1.5
				H52v-0.8h1.8c0.1-0.3,0.2-0.5,0.3-0.8L54.9-37.2z M54.4-40.6v-2.3h0.8v2.3h2.2v0.8h-2.2v0.1c0.6,0.3,1.3,0.7,2,1.1l-0.4,0.7
				c-0.6-0.5-1.1-0.9-1.5-1.2v1.6h-0.8v-2.3c-0.4,0.9-1.1,1.8-2.1,2.5L51.8-38c0.9-0.5,1.6-1.1,1.9-1.8H52v-0.8H54.4z M53.7-41.2
				l-0.6,0.3c-0.3-0.6-0.5-1.1-0.8-1.6l0.7-0.2C53.3-42.2,53.5-41.7,53.7-41.2z M56.4-35.8h-2.1c-0.2,0.4-0.4,0.8-0.6,1.2
				c0.5,0.2,0.9,0.3,1.4,0.5C55.6-34.6,56.1-35.2,56.4-35.8z M57.2-42.4c-0.2,0.5-0.5,1-0.9,1.5l-0.6-0.3c0.4-0.5,0.7-1,0.9-1.5
				L57.2-42.4z M58.6-38.3c-0.2,0.6-0.5,1-0.7,1.5l-0.5-0.7c0.7-1.3,1.2-3.2,1.4-5.4l0.8,0.1c-0.1,0.6-0.2,1.2-0.3,1.7h3.2v0.8h-0.8
				c-0.1,2-0.4,3.7-1.1,5.1c0.6,1.1,1.4,1.9,2.2,2.5L62.3-32c-0.8-0.6-1.6-1.4-2.2-2.4c-0.6,1-1.3,1.8-2.2,2.4l-0.4-0.7
				c0.9-0.6,1.7-1.5,2.2-2.5C59.3-36,58.9-37.1,58.6-38.3z M59-39.6c0.3,1.4,0.7,2.6,1.2,3.6c0.5-1.2,0.7-2.6,0.8-4.2h-1.8L59-39.6z
				"/>
			<path class="st8" d="M72.4-39.5v0.8c-0.8,0.6-1.7,1.1-2.6,1.6v0.8h4.7v0.8h-4.7v2.5c0,0.7-0.3,1-1,1h-1.5l-0.2-0.8
				c0.4,0,0.9,0,1.4,0c0.3,0,0.5-0.2,0.5-0.5v-2.2h-5v-0.8h5v-1.2c1-0.5,1.7-0.9,2.2-1.2H66v-0.8C66-39.5,72.4-39.5,72.4-39.5z
				 M74.3-39h-0.9v-1.8H65v1.8h-0.9v-2.7h4.7c-0.2-0.4-0.3-0.8-0.5-1.2l1-0.2c0.2,0.4,0.3,0.8,0.5,1.3h4.5
				C74.3-41.8,74.3-39,74.3-39z"/>
			<path class="st8" d="M78.7-33.6c0.4,0.4,0.7,0.8,1,1.2l-0.6,0.5c-0.3-0.4-0.6-0.8-1-1.2c-0.4-0.5-0.9-0.9-1.3-1.2l0.5-0.5
				C77.8-34.5,78.2-34.1,78.7-33.6z"/>
			<path class="st8" d="M93.7-42.9v4.5h4.8v0.9H95v4c0,0.4,0.2,0.5,0.5,0.5H97c0.3,0,0.5-0.1,0.6-0.3s0.2-0.8,0.3-1.9l0.8,0.3
				c-0.1,1.3-0.3,2-0.5,2.3c-0.2,0.2-0.6,0.4-1,0.4h-1.9c-0.7,0-1.1-0.4-1.1-1.2v-4.2h-2v0.1c0,1.5-0.4,2.7-1,3.6
				c-0.6,0.8-1.6,1.5-2.9,2l-0.5-0.8c1.3-0.5,2.2-1,2.8-1.8c0.5-0.8,0.7-1.8,0.8-3v-0.1H88v-0.9h4.8V-43L93.7-42.9
				C93.7-43,93.7-42.9,93.7-42.9z M91.4-39.5l-0.8,0.4c-0.5-1-1.1-1.9-1.7-2.8l0.8-0.4C90.3-41.4,90.9-40.4,91.4-39.5z M97.6-41.9
				c-0.4,1-0.9,1.9-1.6,2.9l-0.8-0.4c0.7-1,1.2-1.9,1.6-2.9L97.6-41.9z"/>
			<path class="st8" d="M102.7-42.6c-0.6,1.6-1.2,2.8-1.9,3.7c0.5,0,1.1-0.1,1.6-0.2c0.2-0.4,0.5-0.9,0.7-1.4l0.8,0.3
				c-1.1,2-1.9,3.5-2.6,4.3c0.9-0.2,1.7-0.4,2.6-0.7v0.8c-1.3,0.4-2.5,0.7-3.6,0.9l-0.3-0.8c0.2-0.1,0.3-0.2,0.4-0.3
				c0.4-0.5,1-1.2,1.6-2.4c-0.7,0.1-1.3,0.2-2,0.3l-0.2-0.8c0.1,0,0.3-0.2,0.4-0.3c0.6-1.1,1.2-2.4,1.7-3.8L102.7-42.6z M104-33.5
				c-1.2,0.5-2.5,0.8-4,1.1l-0.1-0.8c1.6-0.3,3-0.6,4.1-1.1V-33.5z M110-40l-3.1,0.4c0,0.6,0.1,1.1,0.1,1.6l3.2-0.5l0.1,0.8
				l-3.2,0.5c0,0.2,0.1,0.4,0.1,0.6c0.1,0.6,0.3,1.2,0.4,1.6c0.6-0.6,1.2-1.3,1.7-2l0.7,0.5c-0.6,0.9-1.3,1.7-2.1,2.4
				c0,0.1,0.1,0.2,0.1,0.2c0.4,0.6,0.7,0.9,1.1,0.9s0.6-0.6,0.8-1.9l0.7,0.5c-0.3,1.6-0.8,2.4-1.4,2.4s-1.1-0.4-1.6-1.1
				c-0.1-0.1-0.2-0.3-0.3-0.4c-0.9,0.7-1.8,1.2-2.9,1.5l-0.5-0.7c1.1-0.4,2.1-0.9,3-1.5c-0.2-0.5-0.4-1.1-0.6-1.8
				c-0.1-0.3-0.1-0.6-0.2-0.9l-2.2,0.3l-0.1-0.8l2.2-0.3c-0.1-0.5-0.1-1.1-0.1-1.6l-1.7,0.3l-0.1-0.8l1.8-0.3v-2.7h0.9v2.5l3-0.4
				L110-40z M109.6-41.4l-0.7,0.5c-0.3-0.5-0.8-1-1.4-1.5l0.7-0.4C108.8-42.4,109.3-41.9,109.6-41.4z"/>
			<path class="st8" d="M116.8-39.4v-0.8h0.9v0.8h3.5v0.8h-3.5v1.2h4.9v0.8h-2.3v1.2h1.8v0.8h-1.8v1.9c0,0.7-0.4,1-1.1,1h-1.7
				l-0.2-0.8c0.6,0,1.1,0.1,1.6,0.1c0.3,0,0.5-0.2,0.5-0.4v-1.7h-6.8v-0.8h6.8v-1.2h-7.5v-0.8h4.9v-1.2h-3.6v-0.8L116.8-39.4
				L116.8-39.4z M112.7-39.8l-0.7-0.5c0.7-0.8,1.2-1.7,1.5-2.7l0.8,0.2c-0.1,0.3-0.2,0.5-0.3,0.8h3.1v0.7h-2
				c0.3,0.4,0.6,0.8,0.8,1.2l-0.8,0.3c-0.2-0.5-0.5-1-0.9-1.5h-0.5C113.4-40.7,113-40.2,112.7-39.8z M116.1-32.8l-0.7,0.5
				c-0.4-0.5-0.9-1.1-1.5-1.7l0.7-0.4C115.3-33.8,115.8-33.3,116.1-32.8z M117.9-40.2l-0.7-0.5c0.5-0.7,0.9-1.5,1.1-2.3l0.8,0.2
				c-0.1,0.3-0.2,0.5-0.2,0.7h3.5v0.7h-2.2c0.3,0.4,0.6,0.8,0.8,1.2l-0.7,0.3c-0.3-0.5-0.6-1-0.9-1.5h-0.7
				C118.3-40.9,118.1-40.6,117.9-40.2z"/>
			<path class="st8" d="M130-33.9c1.3-0.6,2.4-1.4,3.1-2.5h-3.5c-1.1,0.5-2.3,0.9-3.8,1.1l-0.5-0.8c2.6-0.3,4.5-1.1,5.8-2.4l0.7,0.4
				c-0.3,0.3-0.6,0.6-0.9,0.8h3.3v0.7c-1.7,2.8-4.9,4.3-9.5,4.4l-0.3-0.8c1.9,0,3.5-0.2,4.8-0.7c-0.4-0.5-0.8-1-1.3-1.5l0.8-0.4
				C129.2-35,129.6-34.5,130-33.9z M130-42.5c-0.2,0.2-0.4,0.5-0.7,0.7h3.4v0.7c-1.3,2.3-3.7,3.6-7.2,3.9l-0.4-0.8
				c1.1-0.1,2-0.2,2.9-0.5c-0.4-0.5-0.8-0.9-1.2-1.2l0.8-0.4c0.4,0.4,0.8,0.8,1.2,1.3c1.2-0.5,2.2-1.3,2.9-2.2h-3.5
				c-0.9,0.6-2,1-3.3,1.3l-0.5-0.8c2.1-0.4,3.7-1.2,4.8-2.3L130-42.5z"/>
			<path class="st8" d="M135.9-42c1.5-0.1,2.8-0.4,3.9-0.8l0.3,0.8c-0.5,0.2-1,0.3-1.6,0.4v2h1.5v0.8h-1.5v0.6
				c0.6,0.6,1.2,1.2,1.8,1.9l-0.5,0.7c-0.5-0.8-1-1.4-1.3-1.9v5.6h-0.8v-5.5c-0.4,1.2-1,2.2-1.7,3.2l-0.4-0.9c0.9-1.1,1.6-2.3,2-3.7
				h-1.8v-0.8h1.8v-1.8c-0.5,0.1-1.1,0.2-1.6,0.2L135.9-42z M143.9-42.8v2.1h2.4v5.4h-0.8v-0.6H144v4h-0.9v-4h-1.5v0.6h-0.8v-5.4
				h2.3v-2.1H143.9z M143.1-36.7v-3.2h-1.5v3.2H143.1z M145.5-36.7v-3.2H144v3.2H145.5z"/>
			<path class="st8" d="M150.6-38.1l-0.6,0.6c-0.5-0.6-1.2-1.2-2.1-1.8l0.6-0.6C149.3-39.3,150-38.7,150.6-38.1z M150.7-36.4
				c-0.5,1.5-1.1,3-1.7,4.3l-0.9-0.4c0.7-1.4,1.3-2.8,1.8-4.3L150.7-36.4z M150.8-41.1l-0.6,0.6c-0.5-0.5-1.2-1-2-1.6l0.6-0.6
				C149.6-42.2,150.3-41.7,150.8-41.1z M154.4-39.4v-1.9c-0.9,0.1-1.9,0.1-2.9,0.1l-0.3-0.8c2.6,0,4.8-0.3,6.5-0.9l0.4,0.7
				c-0.8,0.3-1.8,0.5-2.9,0.7v2h3.5v0.8h-3.5v1.9h2.7v4.8H157v-0.6h-4.5v0.7h-0.9v-4.8h2.6v-1.9h-3.4v-0.8H154.4z M157.1-33.4v-2.5
				h-4.5v2.5H157.1z"/>
		</g>
		<circle class="st8" cx="4.2" cy="-37.1" r="1.5"/>
	</g>
</g>
<g id="Textbasic3" transform="translate(40,127)">
	<rect x="-5.8" y="-47.1" class="st7" width="80" height="20"/>
	<g transform="translate(0 0)">
		<g class="st5">
			<path class="st8" d="M-5-36.8l-0.3-0.9c1.2-1.5,2.1-3.3,2.7-5.3l0.8,0.4c-0.3,1-0.7,1.9-1.2,2.8v7.9h-0.9v-6.5
				C-4.2-37.8-4.6-37.3-5-36.8z M1.2-40.8v-2.1H2v2.1h3.3v0.8H2.9c0.6,2,1.5,3.7,2.9,5.3L5.2-34c-1.5-1.8-2.5-3.8-3-6H2v4.8h1.9v0.8
				H2v2.5H1.1v-2.5h-1.8v-0.8h1.8V-40H1c-0.6,2.5-1.6,4.5-3.1,6.1l-0.4-0.7c1.3-1.4,2.3-3.2,2.9-5.4H-2v-0.8
				C-2-40.8,1.2-40.8,1.2-40.8z"/>
			<path class="st8" d="M9.4-34.8c-0.8,0.3-1.7,0.5-2.7,0.7l-0.1-0.8c1.1-0.2,2-0.4,2.8-0.7V-34.8z M6.9-41.5v-0.8h3.8l-0.6,4.9h0.7
				c0,2.7-0.1,4.3-0.3,4.7S9.8-32.1,9-32.1c-0.3,0-0.6,0-0.9,0l-0.2-0.8c0.4,0,0.7,0.1,0.9,0.1c0.6,0,0.9-0.2,1-0.6
				c0.1-0.4,0.2-1.5,0.2-3.3H7l0.6-4.1h0.8l-0.5,3.3h1.4l0.5-4.1L6.9-41.5L6.9-41.5z M11.3-38.1l-0.5-0.7c1.3-1,2.4-2.4,3.1-4.1h0.8
				c0.6,1.5,1.7,2.9,3.1,4l-0.5,0.7c-0.5-0.4-1-0.8-1.4-1.3v0.7h-3.3v-0.7C12.2-38.9,11.8-38.5,11.3-38.1z M15.1-33.1
				c0.5-1.3,0.9-2.9,1.2-4.7l0.8,0.2c-0.3,1.7-0.7,3.2-1.2,4.5h1.8v0.8h-6.5v-0.8H15.1z M13.3-34.1l-0.7,0.2c-0.3-1.2-0.6-2.3-1-3.4
				l0.7-0.3C12.7-36.5,13-35.4,13.3-34.1z M14.3-42c-0.5,1-1,1.9-1.6,2.6H16C15.3-40.2,14.7-41.1,14.3-42z M15-34.6l-0.8,0.2
				c-0.2-1.1-0.5-2.2-0.9-3.2l0.7-0.2C14.4-36.9,14.7-35.8,15-34.6z"/>
			<path class="st8" d="M21.3-39.2v5.2c0.4-0.3,0.8-0.7,1.2-1.2l0.2,0.9c-0.7,0.7-1.4,1.3-2.2,1.8l-0.3-0.8c0.2-0.1,0.3-0.3,0.3-0.5
				v-4.7h-1.7v-0.8L21.3-39.2L21.3-39.2z M22.2-40.9l-0.6,0.6c-0.5-0.6-1.2-1.2-2-1.9l0.6-0.6C21-42.1,21.7-41.5,22.2-40.9z
				 M22.8-41.5v-0.9h6.7v0.9H27v3.4h2.3v0.8H27v4.2h2.7v0.9h-7.3v-0.9h1.2v-6.3h0.8v6.3h1.7v-8.3h-3.3
				C22.8-41.4,22.8-41.5,22.8-41.5z"/>
			<path class="st8" d="M33.3-31.9h-0.8v-6c-0.4,1.1-0.8,2.2-1.4,3.1l-0.4-0.9c0.8-1.2,1.4-2.4,1.8-3.9v-0.1h-1.4v-0.8h1.4v-2.3h0.8
				v2.3h1.3v0.8h-1.3v0.8c0.5,0.6,1,1.3,1.6,2.1l-0.5,0.7c-0.4-0.8-0.8-1.4-1.1-1.9V-31.9z M37.3-33.6c-0.6,0.7-1.5,1.2-2.9,1.6
				l-0.3-0.7c1.2-0.3,2.1-0.8,2.6-1.4c0.1-0.2,0.2-0.3,0.3-0.5h-2.8v-0.8h3.2c0.1-0.3,0.2-0.6,0.2-0.9h-2.5v-3.6h5.7v3.6h-2.5
				c0,0.3-0.1,0.6-0.2,0.9h3.5v0.8h-3c0.7,0.8,1.8,1.5,3.2,2l-0.6,0.7c-1.6-0.7-2.7-1.5-3.4-2.5C37.7-34.1,37.5-33.8,37.3-33.6z
				 M36.2-41.9v-1H37v1h1.9v-1h0.8v1h1.9v0.8h-1.9v0.9h-0.8v-0.9H37v0.9h-0.8v-0.9h-1.8v-0.8H36.2z M40-38.4v-0.8h-4.2v0.8H40z
				 M40-37.7h-4.2v0.8H40V-37.7z"/>
			<path class="st8" d="M48.3-37.9v0.8h-2.1v3.1c0.9-0.2,1.7-0.4,2.6-0.6v0.8c-1.7,0.4-3.6,0.8-5.6,1.1L43-33.5
				c0.8-0.1,1.6-0.2,2.4-0.3v-3.3h-2.1v-0.8C43.3-37.9,48.3-37.9,48.3-37.9z M48.9-40.7c0-0.7,0-1.4,0-2.1h0.9c0,0.7,0,1.5,0,2.1
				h3.7v0.8h-3.7c0.1,2,0.5,3.7,0.9,5c0.5,1.3,1,2,1.4,2c0.2,0,0.5-0.7,0.7-2.1l0.8,0.4c-0.4,1.7-0.9,2.6-1.5,2.6
				c-1.1,0-2-1.4-2.7-4c-0.3-1.1-0.5-2.5-0.6-4H43v-0.8L48.9-40.7L48.9-40.7z M52.7-41.2L52-40.9c-0.3-0.6-0.7-1.1-1.1-1.6l0.7-0.3
				C51.9-42.3,52.3-41.8,52.7-41.2z"/>
		</g>
	</g>
</g>
<g id="Textdot4" transform="translate(18,147)">
	<rect x="-5.8" y="-47.1" class="st7" width="156.5" height="20"/>
	<g transform="translate(0 0)">
		<g class="st5">
			<path class="st8" d="M21.7-42.9v1.6h4.7v0.8h-4.7v1.8h3.2v0.8c-0.7,1.3-1.6,2.5-2.9,3.5c0.6,0.3,1.3,0.7,2,0.9
				c0.9,0.3,1.8,0.6,2.7,0.8l-0.5,0.8c-1-0.3-2-0.6-2.9-1c-0.7-0.3-1.4-0.7-2-1c-1.4,0.9-3,1.5-4.9,2.1l-0.5-0.8
				c1.8-0.4,3.4-1,4.7-1.8c-0.6-0.5-1.2-1-1.6-1.6s-0.7-1.2-0.9-1.8H17v-0.8h3.8v-1.8h-4.7v-0.8h4.7v-1.6h0.9
				C21.7-42.8,21.7-42.9,21.7-42.9z M23.9-37.8h-5.1c0.2,0.6,0.6,1.2,1,1.7s0.9,0.9,1.4,1.3C22.4-35.7,23.3-36.7,23.9-37.8z"/>
			<path class="st8" d="M28.2-32L28-32.8c0.3,0,0.6,0.1,0.9,0.1s0.5-0.2,0.5-0.5V-36c-0.4,0-0.9,0.2-1.4,0.3l-0.2-0.9
				c0.6-0.1,1.1-0.3,1.6-0.5v-2.7H28v-0.8h1.5v-2.1h0.9v2.1h1.2v0.8h-1.2v2.4c0.4-0.2,0.9-0.4,1.3-0.6v0.9c-0.4,0.2-0.8,0.4-1.3,0.6
				v3.4c0,0.7-0.3,1.1-1,1.1C29.4-32,28.2-32,28.2-32z M36.2-37.1V-38h0.9v0.9h1.5v0.8h-1.5v3.2c0,0.7-0.4,1.1-1.1,1.1h-1.6
				l-0.2-0.8c0.5,0,1,0,1.5,0c0.3,0,0.5-0.2,0.5-0.5v-3h-4.4v-0.8H36.2z M35.6-42.9v1.2h2.5v0.8h-2.5v1.4h2.9v0.8H32v-0.8h2.8v-1.4
				h-2.4v-0.8h2.4v-1.2H35.6z M34.5-33.8l-0.7,0.5c-0.4-0.6-0.8-1.3-1.5-2l0.7-0.4C33.7-35,34.2-34.3,34.5-33.8z"/>
			<path class="st8" d="M50.3-41.7h-8.6v2.3h8.6v0.7h-4c0.4,0.5,0.9,0.9,1.4,1.2c0.5-0.4,0.9-0.8,1.1-1l0.7,0.4
				c-0.3,0.3-0.7,0.6-1.2,0.9c0.7,0.3,1.5,0.5,2.3,0.6l-0.3,0.7c-2.3-0.4-3.9-1.4-4.8-2.8h-1.6v1.8c0.8-0.1,1.5-0.3,2.3-0.5l0.2,0.7
				c-1,0.3-2.1,0.5-3.2,0.6l-0.3-0.6c0.2-0.1,0.3-0.2,0.3-0.3v-1.7h-1.4v0.7c0,2.5-0.5,4.6-1.3,6.1l-0.6-0.6c0.7-1.3,1-3.1,1.1-5.5
				v-4.5h9.5v0.8C50.5-41.7,50.3-41.7,50.3-41.7z M49.6-31.9h-0.8v-0.5h-5.3v0.5h-0.8v-3.8h6.9C49.6-35.7,49.6-31.9,49.6-31.9z
				 M49.4-40.9v0.7h-6.5v-0.7H49.4z M48.7-33.2V-35h-5.3v1.8H48.7z"/>
			<path class="st8" d="M54.3-39.2v5.3c0.4-0.3,0.8-0.7,1.2-1.2l0.2,0.9c-0.7,0.7-1.4,1.3-2.2,1.8l-0.3-0.8c0.2-0.2,0.3-0.3,0.3-0.5
				v-4.8h-1.8v-0.8L54.3-39.2L54.3-39.2z M55.2-41l-0.6,0.6c-0.5-0.6-1.1-1.1-2-1.8l0.6-0.6C54-42.1,54.7-41.6,55.2-41z M62.4-42.4
				v0.8h-3.3l-0.3,1.3h2.9v2.4h1.1v0.8h-7.2v-0.8h1.9l0.3-1.6h-1.6v-0.8H58l0.3-1.3h-2.4v-0.8C55.9-42.4,62.4-42.4,62.4-42.4z
				 M62-31.9h-0.9v-0.6h-3.8v0.6h-0.9V-36H62V-31.9z M61.1-33.3v-2h-3.8v2H61.1z M60.8-37.9v-1.6h-2.2l-0.3,1.6H60.8z"/>
			<path class="st8" d="M66.7-33.6c0.4,0.4,0.7,0.8,1,1.2l-0.6,0.5c-0.3-0.4-0.6-0.8-1-1.2c-0.4-0.5-0.9-0.9-1.3-1.2l0.5-0.5
				C65.8-34.5,66.2-34.1,66.7-33.6z"/>
			<path class="st8" d="M86.3-41.7h-8.6v2.3h8.6v0.7h-4c0.4,0.5,0.9,0.9,1.4,1.2c0.5-0.4,0.9-0.8,1.1-1l0.7,0.4
				c-0.3,0.3-0.7,0.6-1.2,0.9c0.7,0.3,1.5,0.5,2.3,0.6l-0.3,0.7c-2.3-0.4-3.9-1.4-4.8-2.8h-1.6v1.8c0.8-0.1,1.5-0.3,2.3-0.5l0.2,0.7
				c-1,0.3-2.1,0.5-3.2,0.6l-0.3-0.6c0.2-0.1,0.3-0.2,0.3-0.3v-1.7h-1.4v0.7c0,2.5-0.5,4.6-1.3,6.1l-0.6-0.6c0.7-1.3,1-3.1,1.1-5.5
				v-4.5h9.5v0.8C86.5-41.7,86.3-41.7,86.3-41.7z M85.6-31.9h-0.8v-0.5h-5.3v0.5h-0.8v-3.8h6.9C85.6-35.7,85.6-31.9,85.6-31.9z
				 M85.4-40.9v0.7h-6.5v-0.7H85.4z M84.7-33.2V-35h-5.3v1.8H84.7z"/>
			<path class="st8" d="M93.1-38.8v0.8h-2.8c-0.5,1.8-0.9,3.1-1.3,3.9c0.9-0.2,1.9-0.5,2.8-0.8c-0.3-0.6-0.6-1.2-0.9-1.8l0.7-0.4
				c0.6,1,1.1,2.1,1.6,3.4l-0.7,0.4c-0.1-0.3-0.2-0.6-0.4-0.9c-1.3,0.5-2.7,0.8-4.1,1.1l-0.2-0.8c0.1,0,0.1,0,0.2-0.1
				c0.4-0.5,0.8-1.8,1.4-4h-1.7v-0.8C87.7-38.8,93.1-38.8,93.1-38.8z M92.7-42.1v0.8h-4.3v-0.8H92.7z M95.8-42.9v2.4h2.6
				c0,3.8-0.1,6.1-0.2,7c-0.1,1-0.7,1.5-1.7,1.5c-0.2,0-0.6,0-1.1,0l-0.2-0.8c0.4,0,0.8,0,1.1,0c0.6,0,0.9-0.3,1-1
				c0.1-0.6,0.1-2.6,0.1-5.8h-1.8v0.1c0,3.5-0.9,6-2.5,7.6l-0.6-0.6c1.5-1.5,2.3-3.8,2.3-7v-0.1h-1.6v-0.8h1.6v-2.4h1
				C95.8-42.8,95.8-42.9,95.8-42.9z"/>
			<path class="st8" d="M102.7-33.6c0.4,0.4,0.7,0.8,1,1.2l-0.6,0.5c-0.3-0.4-0.6-0.8-1-1.2c-0.4-0.5-0.9-0.9-1.3-1.2l0.5-0.5
				C101.8-34.5,102.2-34.1,102.7-33.6z"/>
			<path class="st8" d="M114.9-37.2c-0.1,0.2-0.2,0.4-0.2,0.7h2.5v0.7c-0.3,0.8-0.7,1.5-1.3,2.1c0.6,0.3,1.1,0.5,1.7,0.8l-0.5,0.7
				c-0.5-0.3-1.1-0.6-1.8-0.9c-0.8,0.6-1.8,1-3,1.3l-0.4-0.7c1-0.3,1.8-0.6,2.5-1c-0.5-0.2-1.1-0.5-1.7-0.7c0.3-0.5,0.6-1,0.8-1.5
				H112v-0.8h1.8c0.1-0.3,0.2-0.5,0.3-0.8L114.9-37.2z M114.4-40.6v-2.3h0.8v2.3h2.2v0.8h-2.2v0.1c0.6,0.3,1.3,0.7,2,1.1l-0.4,0.7
				c-0.6-0.5-1.1-0.9-1.5-1.2v1.6h-0.8v-2.3c-0.4,0.9-1.1,1.8-2.1,2.5L112-38c0.9-0.5,1.6-1.1,1.9-1.8h-1.7v-0.8
				C112.2-40.6,114.4-40.6,114.4-40.6z M113.7-41.2l-0.6,0.3c-0.3-0.6-0.5-1.1-0.8-1.6l0.7-0.2C113.3-42.2,113.5-41.7,113.7-41.2z
				 M116.4-35.8h-2.1c-0.2,0.4-0.4,0.8-0.6,1.2c0.5,0.2,0.9,0.3,1.4,0.5C115.6-34.6,116.1-35.2,116.4-35.8z M117.2-42.4
				c-0.2,0.5-0.5,1-0.9,1.5l-0.6-0.3c0.4-0.5,0.7-1,0.9-1.5L117.2-42.4z M118.6-38.3c-0.2,0.6-0.5,1-0.7,1.5l-0.5-0.7
				c0.7-1.3,1.2-3.2,1.4-5.4l0.8,0.1c-0.1,0.6-0.2,1.2-0.3,1.7h3.2v0.8h-0.8c-0.1,2-0.4,3.7-1.1,5.1c0.6,1.1,1.4,1.9,2.2,2.5
				l-0.5,0.7c-0.8-0.6-1.6-1.4-2.2-2.4c-0.6,1-1.3,1.8-2.2,2.4l-0.4-0.7c0.9-0.6,1.7-1.5,2.2-2.5C119.3-36,118.9-37.1,118.6-38.3z
				 M119-39.6c0.3,1.4,0.7,2.6,1.2,3.6c0.5-1.2,0.7-2.6,0.8-4.2h-1.8L119-39.6z"/>
			<path class="st8" d="M132.4-39.5v0.8c-0.8,0.6-1.7,1.1-2.6,1.6v0.8h4.7v0.8h-4.7v2.5c0,0.7-0.3,1-1,1h-1.5l-0.2-0.8
				c0.4,0,0.9,0,1.4,0c0.3,0,0.5-0.2,0.5-0.5v-2.2h-5v-0.8h5v-1.2c1-0.5,1.7-0.9,2.2-1.2H126v-0.8C126-39.5,132.4-39.5,132.4-39.5z
				 M134.3-39h-0.9v-1.8H125v1.8h-0.9v-2.7h4.7c-0.2-0.4-0.3-0.8-0.5-1.2l1-0.2c0.2,0.4,0.3,0.8,0.5,1.3h4.5V-39L134.3-39z"/>
			<path class="st8" d="M138.7-33.6c0.4,0.4,0.7,0.8,1,1.2l-0.6,0.5c-0.3-0.4-0.6-0.8-1-1.2c-0.4-0.5-0.9-0.9-1.3-1.2l0.5-0.5
				C137.8-34.5,138.2-34.1,138.7-33.6z"/>
			<path class="st8" d="M153.1-38.8v0.8h-2.8c-0.5,1.8-0.9,3.1-1.3,3.9c0.9-0.2,1.9-0.5,2.8-0.8c-0.3-0.6-0.6-1.2-0.9-1.8l0.7-0.4
				c0.6,1,1.1,2.1,1.6,3.4l-0.7,0.4c-0.1-0.3-0.2-0.6-0.4-0.9c-1.3,0.5-2.7,0.8-4.1,1.1l-0.2-0.8c0.1,0,0.1,0,0.2-0.1
				c0.4-0.5,0.8-1.8,1.4-4h-1.7v-0.8C147.7-38.8,153.1-38.8,153.1-38.8z M152.7-42.1v0.8h-4.3v-0.8H152.7z M155.8-42.9v2.4h2.6
				c0,3.8-0.1,6.1-0.2,7c-0.1,1-0.7,1.5-1.7,1.5c-0.2,0-0.6,0-1.1,0l-0.2-0.8c0.4,0,0.8,0,1.1,0c0.6,0,0.9-0.3,1-1
				c0.1-0.6,0.1-2.6,0.1-5.8h-1.8v0.1c0,3.5-0.9,6-2.5,7.6l-0.6-0.6c1.5-1.5,2.3-3.8,2.3-7v-0.1h-1.6v-0.8h1.6v-2.4h1L155.8-42.9
				L155.8-42.9z"/>
		</g>
		<circle class="st8" cx="4.2" cy="-37.1" r="1.5"/>
	</g>
</g>
<g id="Textbasic5" transform="translate(40,167)">
	<rect x="-5.8" y="-47.1" class="st7" width="80" height="20"/>
	<g transform="translate(0 0)">
		<g class="st5">
			<path class="st8" d="M-5-37.2l-0.3-0.9c1.3-1.4,2.2-3,2.8-4.8l0.8,0.4c-0.3,0.9-0.7,1.8-1.2,2.6v8h-0.9v-6.7
				C-4.2-38.1-4.6-37.6-5-37.2z M-1.9-37.3L-2.5-38c1.1-1.2,1.9-2.9,2.6-4.9L1-42.7c-0.2,0.6-0.4,1.1-0.6,1.6h5.2v0.9h-4v2h3.5v0.8
				H1.6v2h3.6v0.8H1.6v2.8H0.7v-8.5H0.1C-0.5-39.2-1.1-38.2-1.9-37.3z"/>
			<path class="st8" d="M11.8-39.4v-0.8h0.9v0.8h3.5v0.8h-3.5v1.2h4.9v0.8h-2.3v1.2h1.8v0.8h-1.8v1.9c0,0.7-0.4,1-1.1,1h-1.7
				l-0.2-0.8c0.6,0,1.1,0.1,1.6,0.1c0.3,0,0.5-0.2,0.5-0.4v-1.7H7.6v-0.8h6.8v-1.2H6.9v-0.8h4.9v-1.2H8.2v-0.8L11.8-39.4L11.8-39.4z
				 M7.7-39.8L7-40.3C7.6-41.1,8.1-42,8.5-43l0.8,0.2C9.2-42.5,9.1-42.3,9-42h3.1v0.7h-2c0.3,0.4,0.6,0.8,0.8,1.2L10-39.8
				c-0.2-0.5-0.5-1-0.9-1.5H8.7C8.4-40.7,8-40.2,7.7-39.8z M11.1-32.8l-0.7,0.5C10-32.8,9.5-33.4,8.9-34l0.7-0.4
				C10.3-33.8,10.8-33.3,11.1-32.8z M12.9-40.2l-0.7-0.5c0.5-0.7,0.9-1.5,1.1-2.3l0.8,0.2c-0.1,0.3-0.2,0.5-0.2,0.7h3.5v0.7h-2.2
				c0.3,0.4,0.6,0.8,0.8,1.2l-0.7,0.3c-0.3-0.5-0.6-1-0.9-1.5h-0.7C13.3-40.9,13.1-40.6,12.9-40.2z"/>
			<path class="st8" d="M25-33.9c1.3-0.6,2.4-1.4,3.1-2.5h-3.5c-1.1,0.5-2.3,0.9-3.8,1.1L20.4-36c2.6-0.3,4.5-1.1,5.8-2.4l0.7,0.4
				c-0.3,0.3-0.6,0.6-0.9,0.8h3.3v0.7c-1.7,2.8-4.9,4.3-9.5,4.4l-0.3-0.8c1.9,0,3.5-0.2,4.8-0.7c-0.4-0.5-0.8-1-1.3-1.5l0.8-0.4
				C24.2-35,24.6-34.5,25-33.9z M25-42.5c-0.2,0.2-0.4,0.5-0.7,0.7h3.4v0.7c-1.3,2.3-3.7,3.6-7.2,3.9L20.1-38c1.1-0.1,2-0.2,2.9-0.5
				c-0.4-0.5-0.8-0.9-1.2-1.2l0.8-0.4c0.4,0.4,0.8,0.8,1.2,1.3c1.2-0.5,2.2-1.3,2.9-2.2h-3.5c-0.9,0.6-2,1-3.3,1.3l-0.5-0.8
				c2.1-0.4,3.7-1.2,4.8-2.3L25-42.5z"/>
			<path class="st8" d="M30.9-42c1.5-0.1,2.8-0.4,3.9-0.8l0.3,0.8c-0.5,0.2-1,0.3-1.6,0.4v2H35v0.8h-1.5v0.6
				c0.6,0.6,1.2,1.2,1.8,1.9l-0.5,0.7c-0.5-0.8-1-1.4-1.3-1.9v5.6h-0.8v-5.5c-0.4,1.2-1,2.2-1.7,3.2l-0.4-0.9c0.9-1.1,1.6-2.3,2-3.7
				h-1.8v-0.8h1.8v-1.8c-0.5,0.1-1.1,0.2-1.6,0.2L30.9-42z M38.9-42.8v2.1h2.4v5.4h-0.8v-0.6H39v4h-0.9v-4h-1.5v0.6h-0.8v-5.4h2.3
				v-2.1H38.9z M38.1-36.7v-3.2h-1.5v3.2H38.1z M40.5-36.7v-3.2H39v3.2H40.5z"/>
			<path class="st8" d="M45.6-38.1L45-37.5c-0.5-0.6-1.2-1.2-2.1-1.8l0.6-0.6C44.3-39.3,45-38.7,45.6-38.1z M45.7-36.4
				c-0.5,1.5-1.1,3-1.7,4.3l-0.9-0.4c0.7-1.4,1.3-2.8,1.8-4.3L45.7-36.4z M45.8-41.1l-0.6,0.6c-0.5-0.5-1.2-1-2-1.6l0.6-0.6
				C44.6-42.2,45.3-41.7,45.8-41.1z M49.4-39.4v-1.9c-0.9,0.1-1.9,0.1-2.9,0.1L46.2-42c2.6,0,4.8-0.3,6.5-0.9l0.4,0.7
				c-0.8,0.3-1.8,0.5-2.9,0.7v2h3.5v0.8h-3.5v1.9h2.7v4.8H52v-0.6h-4.5v0.7h-0.9v-4.8h2.6v-1.9h-3.4v-0.8
				C45.8-39.4,49.4-39.4,49.4-39.4z M52.1-33.4v-2.5h-4.5v2.5H52.1z"/>
			<path class="st8" d="M55-36.8l-0.3-0.9c1.2-1.5,2.1-3.3,2.7-5.3l0.8,0.4c-0.3,1-0.7,1.9-1.2,2.8v7.9h-0.9v-6.5
				C55.8-37.8,55.4-37.3,55-36.8z M61.2-40.8v-2.1H62v2.1h3.3v0.8h-2.4c0.6,2,1.5,3.7,2.9,5.3L65.2-34c-1.5-1.8-2.5-3.8-3-6H62v4.8
				h1.9v0.8H62v2.5h-0.9v-2.5h-1.8v-0.8h1.8V-40H61c-0.6,2.5-1.6,4.5-3.1,6.1l-0.4-0.7c1.3-1.4,2.3-3.2,2.9-5.4H58v-0.8
				C58-40.8,61.2-40.8,61.2-40.8z"/>
		</g>
	</g>
</g>
<g id="Textdot7" transform="translate(213.875,105)">
	<rect x="1" y="-47.1" class="st7" width="146.5" height="20"/>
	<g transform="translate(0 0)">
		<g class="st5">
			<path class="st8" d="M28.1-42.9c-0.1,0.4-0.2,0.7-0.4,1h3.5v5.3c0.6-0.7,1.1-1.4,1.4-2.2l0.7,0.5c-0.6,1.1-1.3,2.1-2.1,2.8v2.6
				c0,0.7-0.3,1-0.9,1H29l-0.2-0.8H30c0.2,0,0.4-0.2,0.4-0.4v-1.7c-0.3,0.2-0.5,0.4-0.8,0.5c-1.6,1-3.7,1.7-6.2,2.1L23-33
				c3.1-0.6,5.4-1.4,6.8-2.4l0.2-0.1h-7v-0.8h1.4V-42h2.5c0.2-0.4,0.3-0.7,0.4-1.1L28.1-42.9z M30.4-40v-1.1h-5.1v1.1H30.4z
				 M30.4-38.2v-1.1h-5.1v1.1H30.4z M30.4-36.2v-1.2h-5.1v1.2H30.4z"/>
			<path class="st8" d="M38.1-42.5c-0.3,0.9-0.7,1.8-1.2,2.6v8.1H36v-6.8c-0.4,0.5-0.8,1-1.3,1.5L34.4-38c1.3-1.4,2.2-3,2.8-4.9
				L38.1-42.5z M40.7-42.4c-0.7,2.1-1.6,3.6-2.7,4.7l-0.7-0.6c1.2-1.1,2-2.6,2.6-4.4L40.7-42.4z M38.7-37.3v-0.8H44
				c0,2.5-0.1,4.1-0.2,4.7c-0.1,0.9-0.6,1.4-1.5,1.4c-0.3,0-0.7,0-1.3,0l-0.1-0.9c0.5,0,1,0,1.3,0c0.5,0,0.7-0.3,0.8-1
				c0.1-0.4,0.1-1.6,0.1-3.5H41c-0.2,1.3-0.5,2.4-0.8,3.1c-0.4,0.8-1.1,1.6-1.9,2.3l-0.6-0.7c0.7-0.6,1.3-1.2,1.7-2
				c0.3-0.7,0.6-1.6,0.8-2.7h-1.5V-37.3z M45.5-38.6l-0.6,0.7c-1.4-1.2-2.4-2.7-3-4.6l0.7-0.4C43.3-41.1,44.2-39.7,45.5-38.6z"/>
			<path class="st8" d="M49.1-39.2v5.2c0.4-0.3,0.8-0.7,1.2-1.2l0.2,0.9c-0.7,0.7-1.4,1.3-2.2,1.8L48-33.3c0.2-0.1,0.3-0.3,0.3-0.5
				v-4.7h-1.7v-0.8L49.1-39.2L49.1-39.2z M50-40.9l-0.6,0.6c-0.5-0.6-1.2-1.2-2-1.9l0.6-0.6C48.8-42.1,49.5-41.5,50-40.9z
				 M50.6-41.5v-0.9h6.7v0.9h-2.4v3.4h2.3v0.8h-2.3v4.2h2.7v0.9h-7.3v-0.9h1.2v-6.3h0.8v6.3H54v-8.3h-3.4
				C50.6-41.4,50.6-41.5,50.6-41.5z"/>
			<path class="st8" d="M61.5-33.5c0.4,0.4,0.7,0.8,1,1.2l-0.6,0.5c-0.3-0.4-0.6-0.8-1-1.2c-0.4-0.5-0.9-0.9-1.3-1.2l0.5-0.5
				C60.6-34.4,61-34,61.5-33.5z"/>
			<path class="st8" d="M72.9-42.7c-0.1,0.4-0.2,0.8-0.3,1.2h2.3v0.8h-2.6c-0.3,0.8-0.7,1.6-1.1,2.3l-0.7-0.4c0.7-1.2,1.3-2.5,1.6-4
				L72.9-42.7z M74.7-39.2v0.8h-1.3v1.6h1.7v0.8h-1.7v2.8c0.4-0.1,0.9-0.3,1.3-0.6l0.2,0.8c-0.7,0.4-1.5,0.6-2.4,0.9l-0.3-0.7
				c0.3-0.1,0.4-0.2,0.4-0.4V-36h-1.8v-0.8h1.8v-1.6h-0.8v-0.8C71.8-39.2,74.7-39.2,74.7-39.2z M81.4-36.1c-0.5,0.6-1.2,1.1-1.8,1.5
				c0.5,0.8,1.2,1.4,2,2L81.1-32c-1.8-1.3-2.9-3.1-3.3-5.3h-1.3v4.2c0.7-0.2,1.4-0.4,2.1-0.7l0.2,0.8c-0.8,0.3-1.9,0.7-3.2,1
				l-0.2-0.7c0.2-0.1,0.3-0.1,0.3-0.3v-9.3h5v5.1h-2.1c0.1,0.7,0.3,1.4,0.7,2c0.6-0.3,1.1-0.8,1.7-1.4L81.4-36.1z M79.9-41.6h-3.4
				v1.4h3.4V-41.6z M76.4-38.1h3.5v-1.4h-3.4L76.4-38.1L76.4-38.1z"/>
			<path class="st8" d="M86-42.4c-0.7,1.3-1.8,2.5-3.2,3.5l-0.3-0.9c1.2-0.9,2.1-1.9,2.7-3L86-42.4z M86.6-39.7
				c-0.3,0.7-0.8,1.3-1.3,1.9v5.9h-0.9v-5c-0.5,0.4-1,0.9-1.6,1.2l-0.3-0.9c1.5-1,2.5-2.2,3.2-3.5L86.6-39.7z M93.4-39.1v0.9h-1.9
				v5.2c0,0.7-0.4,1-1.2,1h-1.8l-0.2-0.9c0.6,0,1.1,0.1,1.6,0.1c0.4,0,0.6-0.2,0.6-0.5v-5h-3.8v-0.9h6.7
				C93.4-39.2,93.4-39.1,93.4-39.1z M92.9-42.1v0.9h-5.7v-0.9H92.9z"/>
			<path class="st8" d="M99.9-42.8v1.5h3.9v0.8h-3.9v1.8h5.5v0.8h-5.5v1.2c1.4,0.6,2.8,1.4,4.3,2.2l-0.5,0.7
				c-1.5-0.9-2.8-1.6-3.8-2.1v3.9H99v-6h-4.3v-0.8H99v-4.1L99.9-42.8L99.9-42.8z"/>
			<path class="st8" d="M111.6-39.3v-0.8h0.9v0.8h3.5v0.8h-3.5v1.2h4.9v0.8h-2.3v1.2h1.8v0.8h-1.8v1.9c0,0.7-0.4,1-1.1,1h-1.7
				l-0.2-0.8c0.6,0,1.1,0.1,1.6,0.1c0.3,0,0.5-0.2,0.5-0.4v-1.7h-6.8v-0.8h6.8v-1.2h-7.5v-0.8h4.9v-1.2H108v-0.8L111.6-39.3
				L111.6-39.3z M107.5-39.7l-0.7-0.5c0.7-0.8,1.2-1.7,1.5-2.7l0.8,0.2c-0.1,0.3-0.2,0.5-0.3,0.8h3.1v0.7h-2
				c0.3,0.4,0.6,0.8,0.8,1.2l-0.8,0.3c-0.2-0.5-0.5-1-0.9-1.5h-0.5C108.2-40.7,107.8-40.2,107.5-39.7z M110.9-32.7l-0.7,0.5
				c-0.4-0.5-0.9-1.1-1.5-1.7l0.7-0.4C110.1-33.8,110.6-33.2,110.9-32.7z M112.7-40.2l-0.7-0.5c0.5-0.7,0.9-1.5,1.1-2.3l0.8,0.2
				c-0.1,0.3-0.2,0.5-0.2,0.7h3.5v0.7h-2.3c0.3,0.4,0.6,0.8,0.8,1.2l-0.7,0.3c-0.3-0.5-0.6-1-0.9-1.5h-0.7
				C113.1-40.9,112.9-40.5,112.7-40.2z"/>
			<path class="st8" d="M125.7-40.5c0.7,0.8,1.1,1.9,1.1,3.2s-0.4,2.3-1.1,3.2s-1.8,1.3-3,1.3s-2.3-0.4-3-1.3
				c-0.7-0.8-1.1-1.9-1.1-3.2s0.3-2.4,1.1-3.2c0.7-0.9,1.8-1.3,3-1.3S124.9-41.4,125.7-40.5z M120.3-39.9c-0.5,0.6-0.8,1.5-0.8,2.6
				s0.3,1.9,0.8,2.6c0.6,0.7,1.3,1,2.3,1s1.8-0.3,2.3-1c0.5-0.6,0.8-1.5,0.8-2.6s-0.3-2-0.8-2.6c-0.6-0.7-1.3-1-2.3-1
				S120.9-40.6,120.3-39.9z"/>
			<path class="st8" d="M134.2-41c0.6,0.5,1,1.2,1.2,2h-0.9c-0.1-0.6-0.4-1.1-0.9-1.4c-0.5-0.3-1-0.5-1.7-0.5c-1,0-1.8,0.3-2.3,1
				c-0.5,0.6-0.8,1.5-0.8,2.6s0.2,1.9,0.7,2.5c0.5,0.7,1.3,1,2.3,1c0.7,0,1.3-0.2,1.7-0.5c0.5-0.4,0.9-0.9,1-1.7h0.9
				c-0.2,1-0.6,1.8-1.3,2.3s-1.5,0.8-2.4,0.8c-1.3,0-2.4-0.4-3.1-1.3c-0.6-0.8-1-1.8-1-3.1s0.3-2.3,1-3.1c0.7-0.9,1.8-1.4,3.1-1.4
				C132.8-41.8,133.6-41.5,134.2-41z"/>
			<path class="st8" d="M140.5-41.6c0.9,0,1.5,0.2,2,0.6c0.5,0.4,0.8,1,0.8,1.8c0,0.5-0.1,0.9-0.4,1.3c-0.3,0.4-0.7,0.6-1.2,0.7l0,0
				c0.8,0.2,1.3,0.7,1.4,1.6l0.1,1.3c0,0.5,0.2,0.9,0.5,1.3h-1.1c-0.2-0.3-0.3-0.7-0.3-1.1l-0.1-1.1c0-0.5-0.2-0.9-0.5-1.1
				c-0.3-0.2-0.7-0.3-1.2-0.3h-2.6v3.7h-1v-8.6L140.5-41.6L140.5-41.6z M137.8-37.6h2.6c0.6,0,1.1-0.2,1.5-0.4
				c0.3-0.3,0.5-0.7,0.5-1.2s-0.2-0.9-0.4-1.2c-0.3-0.3-0.8-0.4-1.5-0.4h-2.6v3.2C137.9-37.6,137.8-37.6,137.8-37.6z"/>
			<path class="st8" d="M147.2-39.2v5.3c0.4-0.3,0.8-0.7,1.2-1.2l0.2,0.9c-0.7,0.7-1.4,1.3-2.2,1.8l-0.3-0.8
				c0.2-0.1,0.3-0.3,0.3-0.5v-4.8h-1.7v-0.8L147.2-39.2L147.2-39.2z M148.1-40.9l-0.6,0.6c-0.5-0.6-1.2-1.2-2-1.8l0.6-0.6
				C146.9-42.1,147.5-41.5,148.1-40.9z M151.4-35.5c-0.6,1.4-1.3,2.6-2.1,3.6l-0.8-0.6c0.8-1,1.5-2.1,2.1-3.5L151.4-35.5z
				 M154.8-42.1v5.6h-5.5v-5.6H154.8z M154-41.3h-3.8v3.9h3.8V-41.3z M155.7-32.4l-0.7,0.5c-0.5-1.1-1.2-2.3-2.1-3.6l0.7-0.4
				C154.4-34.5,155.2-33.4,155.7-32.4z"/>
		</g>
		<circle class="st8" cx="11" cy="-37.1" r="1.5"/>
	</g>
</g>
<g id="Textbasic8" transform="translate(234.0859375,127)">
	<rect x="1" y="-47.1" class="st7" width="120" height="20"/>
	<g transform="translate(0 0)">
		<g class="st5">
			<path class="st8" d="M2.2-38.6v-3.8h5.1v3.8H5c0,0.5-0.1,1-0.1,1.5h2.6c0,2.1-0.1,3.4-0.2,3.9C7.1-32.4,6.5-32,5.5-32
				c-0.2,0-0.4,0-0.8,0l-0.2-0.8c0.3,0,0.6,0,0.9,0c0.6,0,1-0.3,1.1-0.8c0.1-0.3,0.1-1.2,0.1-2.7H4.7c-0.1,0.7-0.3,1.3-0.5,1.8
				c-0.4,1-1.2,1.9-2.2,2.6l-0.6-0.7c0.9-0.6,1.6-1.4,2-2.3c0.2-0.4,0.3-0.9,0.4-1.5h-2v-0.8H4c0-0.5,0.1-0.9,0.1-1.5L2.2-38.6
				C2.2-38.7,2.2-38.6,2.2-38.6z M6.5-41.6H3v2.2h3.4L6.5-41.6L6.5-41.6z M9.5-41.8v7.5H8.7v-7.5H9.5z M9.2-32L9-32.8
				c0.6,0,1.1,0.1,1.6,0.1c0.4,0,0.6-0.2,0.6-0.6v-9.4h0.9v9.7c0,0.8-0.4,1.2-1.1,1.2H9.2V-32z"/>
			<path class="st8" d="M15.9-34.2c0.2,0.2,0.2,0.5,0.2,0.8c0,0.5-0.2,1-0.5,1.4c-0.3,0.4-0.7,0.6-1.2,0.8v-0.6
				c0.3-0.1,0.6-0.3,0.8-0.5c0.2-0.3,0.3-0.5,0.3-0.8c0,0-0.1,0-0.3,0c-0.2,0-0.4-0.1-0.5-0.2c-0.1-0.1-0.2-0.3-0.2-0.5
				s0.1-0.4,0.2-0.5s0.3-0.2,0.6-0.2C15.5-34.5,15.8-34.4,15.9-34.2z"/>
			<path class="st8" d="M31.5-42.9v1.6h4.7v0.8h-4.7v1.8h3.2v0.8c-0.7,1.3-1.6,2.5-2.9,3.5c0.6,0.3,1.3,0.7,2,0.9
				c0.9,0.3,1.8,0.6,2.7,0.8L36-31.9c-1-0.3-2-0.6-2.9-1c-0.7-0.3-1.4-0.7-2-1c-1.4,0.9-3,1.5-4.9,2.1l-0.5-0.8
				c1.8-0.4,3.4-1,4.7-1.8c-0.6-0.5-1.2-1-1.6-1.6c-0.4-0.6-0.7-1.2-0.9-1.8H27v-0.8h3.8v-1.8h-4.9v-0.8h4.7v-1.6h0.9
				C31.5-42.8,31.5-42.9,31.5-42.9z M33.7-37.8h-5.1c0.2,0.6,0.6,1.2,1,1.7s0.9,0.9,1.4,1.3C32.2-35.7,33.1-36.7,33.7-37.8z"/>
			<path class="st8" d="M38-32l-0.2-0.8c0.3,0,0.6,0.1,0.9,0.1c0.3,0,0.5-0.2,0.5-0.5V-36c-0.5,0.2-0.9,0.3-1.4,0.5l-0.2-0.9
				c0.6-0.1,1.1-0.3,1.6-0.5v-2.7h-1.5v-0.8h1.5v-2.1h0.9v2.1h1.2v0.8h-1.2v2.4c0.4-0.2,0.9-0.4,1.3-0.6v0.9
				c-0.4,0.2-0.8,0.4-1.3,0.6v3.4c0,0.7-0.3,1.1-1,1.1H38V-32z M46-37.1V-38h0.9v0.9h1.5v0.8h-1.5v3.2c0,0.7-0.4,1.1-1.1,1.1h-1.6
				L44-32.8c0.5,0,1,0,1.5,0c0.3,0,0.5-0.2,0.5-0.5v-3h-4.4v-0.8H46z M45.4-42.8v1.2h2.5v0.8h-2.5v1.4h2.9v0.8h-6.5v-0.8h2.8v-1.4
				h-2.4v-0.8h2.4v-1.2H45.4z M44.3-33.8l-0.7,0.5c-0.4-0.6-0.8-1.3-1.5-2l0.7-0.4C43.5-35,44-34.3,44.3-33.8z"/>
			<path class="st8" d="M51.8-40.4h7.1v3.8h-4.7c-0.2,0.3-0.4,0.6-0.6,0.8h5.3v0.6c-0.6,0.8-1.4,1.4-2.4,1.9
				c1.2,0.3,2.4,0.5,3.9,0.6l-0.2,0.8c-1.8-0.1-3.3-0.4-4.7-0.9c-1.4,0.5-3.1,0.8-5.1,1l-0.3-0.8c1.7-0.1,3.2-0.3,4.5-0.6
				c-0.8-0.4-1.5-0.9-2.2-1.4c-0.5,0.3-1.1,0.7-1.7,0.9l-0.4-0.7c1.4-0.6,2.4-1.3,3-2.1h-1.5v-3.6c-0.4,0.5-0.9,0.9-1.4,1.3
				l-0.5-0.7c1.2-0.9,2.1-2.1,2.5-3.4l0.9,0.1c-0.1,0.3-0.2,0.6-0.3,0.9h7v0.8h-7.4C52.2-40.9,52-40.7,51.8-40.4z M58-38.8v-0.9
				h-5.5v0.9H58z M58-38.2h-5.5v0.9H58V-38.2z M57.8-35.1h-4.9c0.8,0.6,1.6,1.1,2.6,1.5C56.4-34,57.2-34.5,57.8-35.1z"/>
			<path class="st8" d="M63.3-34.2c1.1-0.2,2.2-0.5,3.3-0.8l0.2,0.8c-1.4,0.4-2.9,0.7-4.4,1l-0.3-0.7c0.2-0.1,0.4-0.3,0.4-0.5v-7.4
				c1.5-0.3,2.8-0.6,4.1-1l0.5,0.7c-1.1,0.4-2.3,0.7-3.7,1v2.7h3.4v0.8h-3.4L63.3-34.2L63.3-34.2z M69.7-33.5l-0.2-0.8h1.1
				c0.3,0,0.5-0.2,0.5-0.5v-6.5h-2.7v9.5h-0.9v-10.3H72v7.5c0,0.8-0.4,1.2-1.1,1.2h-1.2C69.7-33.4,69.7-33.5,69.7-33.5z"/>
			<path class="st8" d="M77-42.6c-0.3,0.9-0.7,1.8-1.2,2.7v8h-0.9v-6.7c-0.4,0.5-0.8,1-1.3,1.5L73.4-38c1.3-1.4,2.2-3.1,2.8-5
				L77-42.6z M79.1-42c-0.1,0.6-0.2,1.2-0.4,1.7h1.8v-2.5h0.9v2.5h2.8v0.8h-2.8v2.9h3.2v0.8h-3.2v3.9h-0.9v-3.9h-3.6v-0.8h3.5v-2.9
				h-2c-0.3,0.8-0.7,1.5-1.1,2.1l-0.6-0.7c0.7-1.1,1.2-2.5,1.5-4.1L79.1-42z"/>
			<path class="st8" d="M90.6-39.3v-0.8h0.9v0.8H95v0.8h-3.5v1.2h4.9v0.8h-2.3v1.2h1.8v0.8h-1.8v1.9c0,0.7-0.4,1-1.1,1h-1.7
				l-0.2-0.8c0.6,0,1.1,0.1,1.6,0.1c0.3,0,0.5-0.2,0.5-0.4v-1.7h-6.8v-0.8h6.8v-1.2h-7.5v-0.8h4.9v-1.2H87v-0.8L90.6-39.3L90.6-39.3
				z M86.5-39.7l-0.7-0.5c0.7-0.8,1.2-1.7,1.5-2.7l0.8,0.2c-0.1,0.3-0.2,0.5-0.3,0.8h3.1v0.7h-2c0.3,0.4,0.6,0.8,0.8,1.2l-0.8,0.3
				c-0.2-0.5-0.5-1-0.9-1.5h-0.5C87.2-40.7,86.8-40.2,86.5-39.7z M89.9-32.7l-0.7,0.5c-0.4-0.5-0.9-1.1-1.5-1.7l0.7-0.4
				C89.1-33.8,89.6-33.2,89.9-32.7z M91.7-40.2l-0.8-0.4c0.5-0.7,0.9-1.5,1.1-2.3l0.8,0.2c-0.1,0.3-0.2,0.5-0.2,0.7h3.5v0.7h-2.2
				c0.3,0.4,0.6,0.8,0.8,1.2L94-39.8c-0.3-0.5-0.6-1-0.9-1.5h-0.7C92.1-40.9,91.9-40.5,91.7-40.2z"/>
			<path class="st8" d="M99.3-40.5v-2.3h0.9v2.3h1.2v0.8h-1.2v0.6c0.5,0.5,1,1.1,1.5,1.8l-0.5,0.7c-0.4-0.7-0.7-1.2-1-1.7v6.3h-0.9
				v-5.9c-0.4,1.2-0.9,2.3-1.5,3.3l-0.4-0.9c0.8-1.2,1.5-2.6,1.8-4.2h-1.5v-0.8C97.7-40.5,99.3-40.5,99.3-40.5z M101.7-38.1
				l-0.5-0.7c1.4-1,2.5-2.4,3.3-4h0.8c0.6,1.5,1.8,2.8,3.3,4l-0.5,0.7c-0.5-0.4-1-0.8-1.4-1.2v0.7h-3.6v-0.8
				C102.7-38.9,102.2-38.5,101.7-38.1z M105.6-33.1c0.5-1.3,0.9-2.9,1.3-4.7l0.8,0.2c-0.3,1.7-0.8,3.2-1.3,4.5h1.9v0.8h-6.9v-0.8
				H105.6z M103.7-34l-0.8,0.2c-0.2-1.2-0.5-2.3-0.9-3.4l0.7-0.3C103.2-36.5,103.5-35.3,103.7-34z M104.9-42c-0.5,1-1.1,1.9-1.8,2.6
				h3.6C105.9-40.2,105.3-41,104.9-42z M105.5-34.6l-0.8,0.2c-0.2-1.2-0.5-2.3-0.8-3.3l0.7-0.2C105-36.9,105.3-35.8,105.5-34.6z"/>
			<path class="st8" d="M111.8-38l-0.6,0.6c-0.4-0.5-1-1.1-1.7-1.7l0.6-0.6C110.8-39.1,111.3-38.5,111.8-38z M111.9-36.2
				c-0.5,1.5-1,2.8-1.5,4.1l-0.8-0.3c0.6-1.3,1.1-2.7,1.6-4.1L111.9-36.2z M112-41l-0.6,0.6c-0.4-0.5-1-1-1.7-1.6l0.6-0.6
				C111-42.1,111.6-41.5,112-41z M114.9-40.7v3.8c0,1.4-0.2,2.5-0.6,3.3c-0.4,0.7-1,1.3-1.9,1.8l-0.5-0.7c0.9-0.4,1.5-0.9,1.8-1.6
				c0.3-0.7,0.5-1.6,0.5-2.7v-3.8L114.9-40.7L114.9-40.7z M116.5-35h-0.8v-6.6h-2.5v6.6h-0.8v-7.4h4v7.4H116.5z M117.1-32.4
				l-0.6,0.6c-0.4-0.6-1-1.3-1.8-2l0.5-0.5C116-33.8,116.6-33.1,117.1-32.4z M118.2-41.8v7.5h-0.8v-7.5H118.2z M117.8-32l-0.2-0.8
				c0.4,0,0.8,0.1,1.2,0.1c0.3,0,0.4-0.2,0.4-0.5v-9.6h0.8v9.8c0,0.7-0.3,1-0.9,1C119.1-32,117.8-32,117.8-32z"/>
		</g>
	</g>
</g>
<g id="Textdot9" transform="translate(212.75,147)">
	<rect x="1" y="-47.1" class="st7" width="148.7" height="20"/>
	<g transform="translate(0 0)">
		<g class="st5">
			<path class="st8" d="M28.5-42.9v1.6h4.7v0.8h-4.7v1.8h3.2v0.8c-0.7,1.3-1.6,2.5-2.9,3.5c0.6,0.3,1.3,0.7,2,0.9
				c0.9,0.3,1.8,0.6,2.7,0.8L33-31.9c-1-0.3-2-0.6-2.9-1c-0.7-0.3-1.4-0.7-2-1c-1.4,0.9-3,1.5-4.9,2.1l-0.5-0.8
				c1.8-0.4,3.4-1,4.7-1.8c-0.6-0.5-1.2-1-1.6-1.6c-0.4-0.6-0.7-1.2-0.9-1.8H24v-0.8h3.8v-1.8h-4.9v-0.8h4.7v-1.6h0.9
				C28.5-42.8,28.5-42.9,28.5-42.9z M30.7-37.8h-5.1c0.2,0.6,0.6,1.2,1,1.7s0.9,0.9,1.4,1.3C29.2-35.7,30.1-36.7,30.7-37.8z"/>
			<path class="st8" d="M35-32l-0.2-0.8c0.3,0,0.6,0.1,0.9,0.1c0.3,0,0.5-0.2,0.5-0.5V-36c-0.5,0.2-0.9,0.3-1.4,0.5l-0.2-0.9
				c0.6-0.1,1.1-0.3,1.6-0.5v-2.7h-1.5v-0.8h1.5v-2.1h0.9v2.1h1.2v0.8h-1.2v2.4c0.4-0.2,0.9-0.4,1.3-0.6v0.9
				c-0.4,0.2-0.8,0.4-1.3,0.6v3.4c0,0.7-0.3,1.1-1,1.1H35V-32z M43-37.1V-38h0.9v0.9h1.5v0.8h-1.5v3.2c0,0.7-0.4,1.1-1.1,1.1h-1.6
				L41-32.8c0.5,0,1,0,1.5,0c0.3,0,0.5-0.2,0.5-0.5v-3h-4.4v-0.8H43z M42.4-42.8v1.2h2.5v0.8h-2.5v1.4h2.9v0.8h-6.5v-0.8h2.8v-1.4
				h-2.4v-0.8h2.4v-1.2H42.4z M41.3-33.8l-0.7,0.5c-0.4-0.6-0.8-1.3-1.5-2l0.7-0.4C40.5-35,41-34.3,41.3-33.8z"/>
			<path class="st8" d="M47.9-41.6v3.7h5v-3.7h1v8.6h-1v-4h-5v4h-1v-8.6H47.9z"/>
			<path class="st8" d="M60.9-41.6v0.9h-4.2l-0.3,2.9l0,0c0.2-0.3,0.6-0.5,0.9-0.6s0.7-0.2,1.1-0.2c0.8,0,1.5,0.3,2,0.8
				s0.8,1.2,0.8,2.2c0,0.9-0.3,1.6-0.9,2.1s-1.3,0.8-2.1,0.8c-0.8,0-1.4-0.2-1.9-0.6c-0.6-0.5-0.9-1.1-1-1.9h1c0,0.5,0.3,1,0.6,1.2
				c0.3,0.3,0.8,0.4,1.3,0.4c0.6,0,1.1-0.2,1.5-0.6c0.4-0.4,0.6-0.9,0.6-1.5c0-0.7-0.2-1.2-0.6-1.6c-0.3-0.4-0.8-0.6-1.5-0.6
				c-0.4,0-0.8,0.1-1.1,0.3s-0.6,0.4-0.8,0.8h-0.9l0.5-4.7h5C60.9-41.5,60.9-41.6,60.9-41.6z"/>
			<path class="st8" d="M64.8-39.6v-1.7c-0.6,0.1-1.2,0.2-1.8,0.2l-0.3-0.8c1.8-0.1,3.3-0.4,4.5-0.9l0.4,0.7
				c-0.6,0.2-1.3,0.4-1.9,0.6v1.9h2.1v0.8h-2.1v0.6c0.7,0.6,1.4,1.3,2.1,2.1l-0.5,0.7c-0.6-0.9-1.2-1.5-1.6-2v5.4h-0.8v-5.3
				c-0.5,1.1-1.2,2.2-2.1,3.1l-0.4-0.9c1.1-1.1,1.9-2.2,2.4-3.6v-0.1h-2.1v-0.8H64.8z M72.8-32.3H72v-0.9h-2.9v1.1h-0.8v-9.8h4.6
				L72.8-32.3L72.8-32.3z M72-34.1v-7.1h-2.9v7.1H72z"/>
			<path class="st8" d="M79.9-41.1c0.6,0.5,0.9,1.1,1,2h-1c-0.1-0.6-0.3-1.1-0.7-1.4c-0.4-0.3-0.9-0.5-1.6-0.5
				c-0.6,0-1.1,0.1-1.5,0.3s-0.6,0.6-0.6,1.1c0,0.4,0.2,0.8,0.7,1c0.2,0.1,0.7,0.3,1.6,0.5c1.1,0.3,1.9,0.6,2.2,0.8
				c0.7,0.4,1.1,1,1.1,1.8c0,0.7-0.3,1.3-0.9,1.8c-0.6,0.4-1.4,0.6-2.4,0.6s-1.8-0.2-2.4-0.6c-0.7-0.5-1-1.3-1.1-2.4h1
				c0.1,0.7,0.3,1.3,0.8,1.6c0.4,0.3,1,0.5,1.7,0.5s1.3-0.1,1.7-0.4s0.6-0.6,0.6-1.1s-0.3-1-0.9-1.3c-0.2-0.1-0.9-0.3-1.8-0.6
				c-1-0.3-1.7-0.6-2-0.7c-0.7-0.4-1-0.9-1-1.7c0-0.7,0.3-1.3,0.9-1.7s1.3-0.6,2.2-0.6C78.6-41.8,79.4-41.6,79.9-41.1z"/>
			<path class="st8" d="M85.4-41.6c1.4,0,2.4,0.4,3.1,1.2c0.6,0.7,1,1.8,1,3.1s-0.3,2.4-1,3.1c-0.7,0.8-1.8,1.2-3.1,1.2h-3v-8.6
				H85.4z M83.3-33.9h1.8c1.1,0,2-0.3,2.5-0.9c0.5-0.6,0.8-1.4,0.8-2.5c0-1.2-0.3-2-0.7-2.6c-0.5-0.6-1.3-0.9-2.5-0.9h-1.9
				C83.3-40.8,83.3-33.9,83.3-33.9z"/>
			<path class="st8" d="M97.7-41.6L93.8-38l4.4,4.9h-1.3l-3.8-4.3l-1.3,1.3v3h-1v-8.6h1v4.5l4.6-4.5L97.7-41.6L97.7-41.6z"/>
			<path class="st8" d="M101-38.3c-0.1,2.7-0.6,4.8-1.6,6.4l-0.6-0.7c0.9-1.4,1.3-3.3,1.4-5.8V-42c3.1,0,5.9-0.3,8.3-0.8l0.4,0.8
				c-2.4,0.5-5,0.7-7.9,0.8v1.7h8.6v0.8H101V-38.3z M108.6-31.9h-0.9v-0.6h-4.8v0.6H102V-37h6.6V-31.9z M107.8-33.3v-2.9h-4.9v2.9
				H107.8z"/>
			<path class="st8" d="M111.2-38.9c1.1-0.4,2.4-1.7,3.9-4l0.9,0.3c-1.1,1.5-2.2,2.8-3.3,3.6c2.3-0.1,4.5-0.3,6.5-0.4
				c-0.5-0.6-0.9-1.3-1.4-1.8l0.8-0.4c1,1.2,2,2.5,2.9,4l-0.8,0.4c-0.3-0.5-0.6-1-0.9-1.4c-2.5,0.2-5.3,0.4-8.5,0.5L111.2-38.9z
				 M120.2-31.9h-0.9v-0.6H113v0.6h-0.9v-5h8v5C120.1-31.9,120.2-31.9,120.2-31.9z M119.3-33.3V-36H113v2.7H119.3z"/>
			<path class="st8" d="M125.3-39.2v5.3c0.4-0.3,0.8-0.7,1.2-1.2l0.2,0.9c-0.7,0.7-1.4,1.3-2.2,1.8l-0.3-0.8
				c0.2-0.1,0.3-0.3,0.3-0.5v-4.8h-1.7v-0.8L125.3-39.2L125.3-39.2z M126.2-40.9l-0.6,0.6c-0.5-0.6-1.2-1.2-2-1.8l0.6-0.6
				C125-42.1,125.6-41.5,126.2-40.9z M129.5-35.5c-0.6,1.4-1.3,2.6-2.1,3.6l-0.8-0.6c0.8-1,1.5-2.1,2.1-3.5L129.5-35.5z M133-42.1
				v5.6h-5.5v-5.6H133z M132.1-41.3h-3.8v3.9h3.8V-41.3z M133.8-32.4l-0.7,0.5c-0.5-1.1-1.2-2.3-2.1-3.6l0.7-0.4
				C132.6-34.5,133.3-33.4,133.8-32.4z"/>
			<path class="st8" d="M135.4-38.6v-3.8h5.1v3.8h-2.4c0,0.5-0.1,1-0.1,1.5h2.6c0,2.1-0.1,3.4-0.2,3.9c-0.1,0.8-0.7,1.2-1.7,1.2
				c-0.2,0-0.4,0-0.8,0l-0.2-0.8c0.3,0,0.6,0,0.9,0c0.6,0,1-0.3,1.1-0.8c0.1-0.3,0.1-1.2,0.1-2.7h-1.9c-0.1,0.7-0.3,1.3-0.5,1.8
				c-0.4,1-1.2,1.9-2.2,2.6l-0.6-0.7c0.9-0.6,1.6-1.4,2-2.3c0.2-0.4,0.3-0.9,0.4-1.5h-2.1v-0.8h2.2c0-0.5,0.1-0.9,0.1-1.5
				L135.4-38.6L135.4-38.6z M139.7-41.6h-3.4v2.2h3.4V-41.6z M142.7-41.8v7.5h-0.8v-7.5H142.7z M142.4-32l-0.2-0.8
				c0.6,0,1.1,0.1,1.6,0.1c0.4,0,0.6-0.2,0.6-0.6v-9.4h0.9v9.7c0,0.8-0.4,1.2-1.1,1.2h-1.8V-32z"/>
			<path class="st8" d="M149.2-31.9h-0.8v-6c-0.4,1.1-0.8,2.2-1.4,3.1l-0.4-0.9c0.8-1.2,1.4-2.4,1.8-3.9v-0.1H147v-0.8h1.4v-2.3h0.8
				v2.3h1.3v0.8h-1.3v0.8c0.5,0.6,1,1.3,1.6,2.1l-0.5,0.7c-0.4-0.8-0.8-1.4-1.1-1.9L149.2-31.9L149.2-31.9z M153.3-33.5
				c-0.6,0.7-1.5,1.2-2.9,1.6l-0.3-0.7c1.2-0.3,2.1-0.8,2.6-1.4c0.1-0.2,0.2-0.3,0.3-0.5h-2.8v-0.8h3.2c0.1-0.3,0.2-0.6,0.2-0.9
				h-2.5v-3.6h5.7v3.6h-2.5c0,0.3-0.1,0.6-0.2,0.9h3.5v0.8h-3c0.7,0.8,1.8,1.5,3.2,2l-0.6,0.7c-1.6-0.7-2.7-1.5-3.4-2.5
				C153.6-34,153.5-33.8,153.3-33.5z M152.2-41.9v-1h0.8v1h1.9v-1h0.8v1h1.9v0.8h-1.9v0.9h-0.8v-0.9H153v0.9h-0.8v-0.9h-1.8v-0.8
				H152.2z M156-38.3v-0.8h-4.2v0.8H156z M156-37.7h-4.2v0.8h4.2V-37.7z"/>
		</g>
		<circle class="st8" cx="11" cy="-37.1" r="1.5"/>
	</g>
</g>
<g id="Textbasic10" transform="translate(231,167)">
	<rect x="1" y="-47.1" class="st7" width="80" height="20"/>
	<g transform="translate(0 0)">
		<g class="st5">
			<path class="st8" d="M7.1-37.9v0.8H5v3.1c0.9-0.2,1.7-0.4,2.6-0.6v0.8C5.9-33.4,4-33,2-32.7l-0.2-0.8c0.8-0.1,1.6-0.2,2.4-0.3
				v-3.3H2v-0.8C2-37.9,7.1-37.9,7.1-37.9z M7.7-40.7c0-0.7,0-1.4,0-2.1h0.9c0,0.7,0,1.5,0,2.1h3.7v0.8H8.6c0.1,2,0.5,3.7,0.9,5
				c0.5,1.3,1,2,1.4,2c0.2,0,0.5-0.7,0.7-2.1l0.8,0.4C12-32.9,11.5-32,10.9-32c-1.1,0-2-1.4-2.7-4c-0.3-1.1-0.5-2.5-0.6-4H1.8v-0.8
				L7.7-40.7L7.7-40.7z M11.5-41.2l-0.7,0.4c-0.3-0.6-0.7-1.1-1.1-1.6l0.7-0.3C10.7-42.3,11.1-41.8,11.5-41.2z"/>
		</g>
	</g>
</g>
<g id="Textdot12" transform="translate(396.8359375,105)">
	<rect x="21" y="-46" class="st7" width="147" height="20"/>
	<g transform="translate(0 0)">
		<g class="st5">
			<path class="st8" d="M48.4-41.8v1.6h4.7v0.8h-4.7v1.8h3.2v0.8c-0.7,1.3-1.6,2.5-2.9,3.5c0.6,0.3,1.3,0.7,2,0.9
				c0.9,0.3,1.8,0.6,2.7,0.8l-0.5,0.8c-1-0.3-2-0.6-2.9-1c-0.7-0.3-1.4-0.7-2-1c-1.4,0.9-3,1.5-4.9,2.1l-0.5-0.8
				c1.8-0.4,3.4-1,4.7-1.8c-0.6-0.5-1.2-1-1.6-1.6s-0.7-1.2-0.9-1.8h-0.9v-0.8h3.8v-1.8H43v-0.9h4.7v-1.6H48.4z M50.7-36.8h-5.1
				c0.2,0.6,0.6,1.2,1,1.7s0.9,0.9,1.4,1.3C49.2-34.6,50.1-35.6,50.7-36.8z"/>
			<path class="st8" d="M55-30.9l-0.2-0.8c0.3,0,0.6,0.1,0.9,0.1s0.5-0.2,0.5-0.5v-2.8c-0.5,0.2-0.9,0.3-1.4,0.5l-0.2-0.9
				c0.6-0.1,1.1-0.3,1.6-0.5v-2.7h-1.5v-0.8h1.5v-2.1h0.9v2.1h1.2v0.8h-1.2v2.4c0.4-0.2,0.9-0.4,1.3-0.6v0.9
				c-0.4,0.2-0.8,0.4-1.3,0.6v3.4c0,0.7-0.3,1.1-1,1.1H55L55-30.9L55-30.9z M63-36v-0.9h0.9v0.9h1.4v0.8h-1.5v3.2
				c0,0.7-0.4,1.1-1.1,1.1h-1.6l-0.2-0.8c0.5,0,1,0,1.5,0c0.3,0,0.5-0.2,0.5-0.5v-3h-4.4V-36H63z M62.4-41.8v1.2h2.5v0.8h-2.5v1.4
				h2.9v0.8h-6.5v-0.8h2.8v-1.4h-2.4v-0.8h2.4v-1.2H62.4z M61.3-32.7l-0.7,0.5c-0.4-0.6-0.8-1.3-1.5-2l0.7-0.4
				C60.4-33.9,60.9-33.2,61.3-32.7z"/>
			<path class="st8" d="M77.4-32.3v0.9H66.6v-0.9H77.4z M76.5-40.9v0.8h-9.1v-0.8H76.5z M75.7-36.8v0.8h-7.4v-0.8H75.7z"/>
			<path class="st8" d="M89.3-41.3v0.8h-3.5v1.1h2.8v3h-5c-0.2,0.4-0.4,0.7-0.6,1.1h6.5v0.8h-2.6c-0.2,0.7-0.7,1.3-1.3,1.8
				c1.2,0.4,2.5,0.8,3.7,1.3l-0.5,0.7c-1.3-0.6-2.7-1.1-4-1.5c-1.1,0.6-3,1.1-5.6,1.4l-0.3-0.8c2.1-0.3,3.8-0.6,4.8-1
				c-1-0.3-2-0.6-3-0.8c0.3-0.4,0.6-0.8,0.8-1.2h-3v-0.8h3.4c0.2-0.4,0.4-0.7,0.6-1.1h-3.2v-3h2.8v-1.1h-3.5v-0.8L89.3-41.3
				L89.3-41.3z M82.2-38.7h-2v1.5h2V-38.7z M86-34.6h-3.5c-0.2,0.3-0.4,0.6-0.6,0.9c0.9,0.2,1.8,0.4,2.7,0.7
				C85.3-33.5,85.8-34,86-34.6z M84.9-40.6H83v1.1h1.9V-40.6z M84.9-38.7H83v1.5h1.9V-38.7z M87.7-38.7h-2v1.5h2V-38.7z"/>
			<path class="st8" d="M94.5-32.7C93.6-32,92.4-31.5,91-31l-0.3-0.7c1.4-0.4,2.5-0.9,3.3-1.5L94.5-32.7z M95.6-41v-0.8h0.9v0.8h4.2
				v0.7h-4.2v0.8h3.7v0.7h-3.7v0.8h4.7v0.7h-5.4c-0.7,0.6-1.4,1-2.1,1.3c1.1,0,2.1-0.1,3.2-0.1c0.5-0.3,1-0.6,1.5-0.9l0.7,0.4
				c-1.7,1-3.5,1.8-5.2,2.3c1.4,0,3.2-0.2,5.3-0.3c-0.3-0.3-0.6-0.6-0.9-0.9l0.6-0.4c0.9,0.9,1.6,1.6,2.1,2.2l-0.6,0.4
				c-0.2-0.3-0.4-0.6-0.7-0.8c-1.1,0.1-2.1,0.2-3,0.2v1.9c0,0.6-0.3,1-0.9,1h-1.1l-0.2-0.8c0.4,0,0.7,0,1,0s0.4-0.1,0.4-0.4v-1.7
				c-1.2,0.1-2.2,0.1-2.9,0.1h-1l-0.4-0.4h0.5c1.2-0.3,2.4-0.7,3.6-1.3c-1,0-2.1,0.1-3.2,0.1L92.3-36c0.2,0,0.3-0.1,0.5-0.1
				c0.6-0.2,1.2-0.6,2-1.1h-3.9v-0.7h4.7v-0.8h-3.7v-0.7h3.7v-0.8h-4.2v-0.7h4.2V-41z M101.3-31.6l-0.4,0.7
				c-1.1-0.7-2.3-1.3-3.4-1.7l0.4-0.6C99.1-32.8,100.2-32.3,101.3-31.6z"/>
			<path class="st8" d="M113-41.9c-0.5,0.8-0.9,1.6-1.1,2.5c-0.4,1.1-0.5,2.1-0.5,3.1s0.2,2.1,0.5,3.1c0.3,0.9,0.7,1.7,1.1,2.5h-0.8
				c-0.5-0.8-0.9-1.6-1.2-2.5c-0.4-1-0.5-2.1-0.5-3.1c0-1.1,0.2-2.1,0.5-3.1c0.3-0.9,0.7-1.7,1.2-2.5H113z"/>
			<path class="st8" d="M119.9-41.8v1.5h3.9v0.8h-3.9v1.8h5.5v0.8h-5.5v1.2c1.4,0.6,2.8,1.4,4.3,2.2l-0.5,0.7
				c-1.5-0.9-2.8-1.6-3.8-2.1v3.9H119v-6h-4.3v-0.8h4.3v-4.1L119.9-41.8L119.9-41.8z"/>
			<path class="st8" d="M126.6-36.3v-0.8h10.8v0.8h-7.2l-0.4,1.4h5.9c-0.1,1.9-0.3,3.1-0.6,3.4c-0.3,0.4-0.8,0.5-1.7,0.5
				c-0.6,0-1.1,0-1.6-0.1l-0.3-0.8c0.6,0,1.2,0.1,1.7,0.1c0.6,0,1-0.1,1.2-0.4c0.1-0.3,0.3-0.9,0.3-2h-6l0.6-2.2L126.6-36.3
				L126.6-36.3z M135.5-41.4v3.2h-7v-3.2H135.5z M134.6-40.6h-5.3v1.7h5.3V-40.6z"/>
			<path class="st8" d="M142-38.1v2.6h2.6v0.8H142v2.6h-0.8v-2.6h-2.6v-0.8h2.6v-2.6H142z"/>
			<path class="st8" d="M148.2-41.8c-0.1,0.8-0.2,1.6-0.3,2.3h1.9v0.5c-0.1,1.9-0.4,3.6-1,5c0.6,0.5,1,1,1.3,1.4l-0.6,0.7
				c-0.3-0.4-0.7-0.8-1.1-1.3c-0.5,0.9-1.1,1.8-1.9,2.4l-0.6-0.7c0.8-0.6,1.4-1.4,1.9-2.3c-0.5-0.5-1-1-1.6-1.5
				c0.3-1,0.5-2.2,0.8-3.4h-1v-0.8h1.1c0.1-0.8,0.2-1.5,0.3-2.3L148.2-41.8z M148.9-38.7h-1.2c-0.2,1.3-0.5,2.3-0.7,3.1
				c0.4,0.3,0.7,0.6,1,0.9C148.5-35.8,148.8-37.2,148.9-38.7z M150.4-36.2l-0.6-0.6c0.6-0.9,1-2.3,1-4.2h0.8c0,0.5,0,1-0.1,1.4h1.6
				v-2.3h0.9v2.3h2.4v0.8H154v2.9h2.3v0.9H154v2.9h2.8v0.8h-6.6v-0.8h2.9V-35h-2.4v-0.9h2.4v-2.9h-1.8
				C151.1-37.6,150.8-36.8,150.4-36.2z"/>
			<path class="st8" d="M161.5-30.9h-0.9v-4.2c-0.7,0.2-1.5,0.5-2.4,0.7l-0.5-0.8c2.1-0.4,3.8-1,5.2-1.7c-0.5-0.4-1.2-0.9-2.2-1.4
				l0.7-0.5c0.9,0.6,1.6,1.1,2.1,1.5c1.2-0.7,2.1-1.6,2.7-2.6h-4.4c-0.8,0.8-1.8,1.4-3.1,2l-0.6-0.7c2.1-0.9,3.4-2,4.2-3.2l0.9,0.1
				c-0.2,0.4-0.4,0.7-0.6,1h4.7v0.8c-0.9,1.6-2.4,3-4.7,4h5v5.1h-0.9v-0.7h-5.4v0.6C161.3-30.9,161.5-30.9,161.5-30.9z M166.9-35.1
				h-5.4v2.7h5.4V-35.1z"/>
			<path class="st8" d="M173.3-38.1v2.6h2.6v0.8h-2.6v2.6h-0.8v-2.6h-2.6v-0.8h2.6v-2.6H173.3z"/>
		</g>
		<circle class="st8" cx="31" cy="-36" r="1.5"/>
	</g>
</g>
<g id="Textbasic13" transform="translate(418.0859375,126.5)">
	<rect x="21" y="-46" class="st7" width="132" height="20"/>
	<g transform="translate(0 0)">
		<g class="st5">
			<path class="st8" d="M24.1-38.1v5.2c0.4-0.3,0.8-0.7,1.2-1.2l0.2,0.9c-0.7,0.7-1.4,1.3-2.2,1.8L23-32.2c0.2-0.1,0.3-0.3,0.3-0.5
				v-4.7h-1.7v-0.8L24.1-38.1L24.1-38.1z M25-39.8l-0.6,0.6c-0.5-0.6-1.2-1.2-2-1.9l0.6-0.6C23.8-41.1,24.4-40.5,25-39.8z
				 M25.6-40.4v-0.8h6.7v0.9h-2.5v3.4h2.3v0.8h-2.3v4.2h2.7v0.9h-7.3v-0.9h1.2v-6.3h0.9v6.3H29v-8.3h-3.4
				C25.6-40.2,25.6-40.4,25.6-40.4z"/>
			<path class="st8" d="M37-41.5c-0.3,0.9-0.7,1.8-1.2,2.7v8h-0.9v-6.7c-0.4,0.5-0.8,1-1.3,1.5l-0.3-0.9c1.3-1.4,2.2-3.1,2.8-5
				L37-41.5z M39-41c-0.1,0.6-0.2,1.2-0.4,1.7h1.8v-2.5h0.9v2.5h2.8v0.8h-2.8v2.9h3.2v0.8h-3.2v3.9h-0.9v-3.9h-3.5v-0.8h3.5v-2.9h-2
				c-0.3,0.8-0.7,1.5-1.1,2.1l-0.6-0.7c0.7-1.1,1.2-2.5,1.5-4.1L39-41z"/>
			<path class="st8" d="M45.6-36.3v-0.8h10.8v0.8h-7.2l-0.4,1.4h5.9c-0.1,1.9-0.3,3.1-0.6,3.4c-0.3,0.4-0.8,0.5-1.7,0.5
				c-0.6,0-1.1,0-1.6-0.1l-0.3-0.8c0.6,0,1.2,0.1,1.7,0.1c0.6,0,1-0.1,1.2-0.4c0.1-0.3,0.3-0.9,0.3-2h-6l0.6-2.2L45.6-36.3
				L45.6-36.3z M54.5-41.4v3.2h-7v-3.2H54.5z M53.6-40.6h-5.3v1.7h5.3V-40.6z"/>
			<path class="st8" d="M58.8-41.9c0.5,0.8,0.9,1.6,1.2,2.5c0.3,1,0.5,2.1,0.5,3.1s-0.2,2.1-0.5,3.1c-0.3,0.9-0.7,1.7-1.2,2.5H58
				c0.5-0.8,0.9-1.6,1.1-2.5c0.3-1.1,0.5-2.1,0.5-3.1s-0.2-2.1-0.5-3.1c-0.3-0.9-0.7-1.7-1.1-2.5C58-41.9,58.8-41.9,58.8-41.9z"/>
			<path class="st8" d="M72-38.5v-1.7c-0.6,0.1-1.2,0.2-1.8,0.2l-0.3-0.8c1.8-0.1,3.3-0.4,4.5-0.9l0.4,0.7c-0.6,0.2-1.3,0.4-1.9,0.6
				v1.9H75v0.8h-2.1v0.6c0.7,0.6,1.4,1.3,2.1,2.1l-0.5,0.7c-0.6-0.9-1.2-1.5-1.6-2v5.4h-0.8v-5.3c-0.5,1.1-1.2,2.2-2.1,3.1L69.6-34
				c1.1-1.1,1.9-2.2,2.4-3.6v-0.1h-2.1v-0.8H72z M79.9-31.3h-0.8v-0.9h-2.9v1.1h-0.9v-9.8h4.6L79.9-31.3L79.9-31.3z M79.1-33.1v-7.1
				h-2.9v7.1H79.1z"/>
			<path class="st8" d="M91.9-31H91v-0.7h-8.1v0.7H82v-10.1h9.9V-31z M91.1-32.5v-7.8h-2.4v4.6c0,0.2,0.2,0.4,0.5,0.4h1.5v0.8H89
				c-0.7,0-1.1-0.3-1.1-1v-4.8h-1.8v2.6c0,1.7-0.7,2.9-2.1,3.7l-0.7-0.6c1.2-0.6,1.8-1.7,1.9-3.1v-2.6h-2.3v7.8L91.1-32.5L91.1-32.5
				z"/>
			<path class="st8" d="M104.3-41.3v0.8h-3.5v1.1h2.8v3h-5c-0.2,0.4-0.4,0.7-0.6,1.1h6.5v0.8h-2.6c-0.2,0.7-0.7,1.3-1.3,1.8
				c1.2,0.4,2.5,0.8,3.7,1.3l-0.5,0.7c-1.3-0.6-2.7-1.1-4-1.5c-1.1,0.6-3,1.1-5.6,1.4l-0.3-0.8c2.1-0.3,3.8-0.6,4.8-1
				c-1-0.3-2-0.6-3-0.8c0.3-0.4,0.6-0.8,0.8-1.2h-3v-0.8h3.4c0.2-0.4,0.4-0.7,0.6-1.1h-3.2v-3h2.8v-1.1h-3.5v-0.8L104.3-41.3
				L104.3-41.3z M97.2-38.7h-2v1.5h2V-38.7z M101-34.6h-3.5c-0.2,0.3-0.4,0.6-0.6,0.9c0.9,0.2,1.8,0.4,2.7,0.7
				C100.3-33.5,100.8-34,101-34.6z M99.9-40.6H98v1.1h1.9V-40.6z M99.9-38.7H98v1.5h1.9V-38.7z M102.7-38.7h-2v1.5h2V-38.7z"/>
			<path class="st8" d="M109.5-32.7c-0.9,0.7-2.1,1.2-3.5,1.7l-0.3-0.7c1.4-0.4,2.5-0.9,3.3-1.5L109.5-32.7z M110.6-41v-0.8h0.9v0.8
				h4.2v0.7h-4.2v0.8h3.7v0.7h-3.7v0.8h4.7v0.7h-5.4c-0.7,0.6-1.4,1-2.1,1.3c1.1,0,2.1-0.1,3.2-0.1c0.5-0.3,1-0.6,1.5-0.9l0.7,0.4
				c-1.7,1-3.5,1.8-5.2,2.3c1.4,0,3.2-0.2,5.3-0.3c-0.3-0.3-0.6-0.6-0.9-0.9l0.6-0.4c0.9,0.9,1.6,1.6,2.1,2.2l-0.6,0.4
				c-0.2-0.3-0.4-0.6-0.7-0.8c-1.1,0.1-2.1,0.2-3,0.2v1.9c0,0.6-0.3,1-0.9,1h-1.1l-0.2-0.8c0.4,0,0.7,0,1,0s0.4-0.1,0.4-0.4v-1.7
				c-1.2,0.1-2.2,0.1-2.9,0.1h-1l-0.2-0.7h0.5c1.2-0.3,2.4-0.7,3.6-1.3c-1,0-2.1,0.1-3.2,0.1l-0.2-0.6c0.2,0,0.3-0.1,0.5-0.1
				c0.6-0.2,1.2-0.6,2-1.1h-3.9v-0.7h4.7V-39h-3.7v-0.7h3.7v-0.8h-4.2v-0.7h4C110.6-41.2,110.6-41,110.6-41z M116.3-31.6l-0.4,0.7
				c-1.1-0.7-2.3-1.3-3.4-1.7l0.4-0.6C114.1-32.8,115.2-32.3,116.3-31.6z"/>
			<path class="st8" d="M128-41.9c-0.5,0.8-0.9,1.6-1.1,2.5c-0.4,1.1-0.5,2.1-0.5,3.1s0.2,2.1,0.5,3.1c0.3,0.9,0.7,1.7,1.1,2.5h-0.8
				c-0.5-0.8-0.9-1.6-1.2-2.5c-0.4-1-0.5-2.1-0.5-3.1c0-1.1,0.2-2.1,0.5-3.1c0.3-0.9,0.7-1.7,1.2-2.5H128z"/>
			<path class="st8" d="M134.9-41.8v1.5h3.9v0.8h-3.9v1.8h5.5v0.8h-5.5v1.2c1.4,0.6,2.8,1.4,4.3,2.2l-0.5,0.7
				c-1.5-0.9-2.8-1.6-3.8-2.1v3.9H134v-6h-4.3v-0.8h4.3v-4.1L134.9-41.8L134.9-41.8z"/>
			<path class="st8" d="M141.6-36.3v-0.8h10.8v0.8h-7.2l-0.4,1.4h5.9c-0.1,1.9-0.3,3.1-0.6,3.4c-0.3,0.4-0.8,0.5-1.7,0.5
				c-0.6,0-1.1,0-1.6-0.1l-0.3-0.8c0.6,0,1.2,0.1,1.7,0.1c0.6,0,1-0.1,1.2-0.4c0.1-0.3,0.3-0.9,0.3-2h-6l0.6-2.2L141.6-36.3
				L141.6-36.3z M150.5-41.4v3.2h-7v-3.2H150.5z M149.6-40.6h-5.3v1.7h5.3L149.6-40.6L149.6-40.6z"/>
		</g>
	</g>
</g>
<g id="Textdot14" transform="translate(396.8359375,187)">
	<rect x="21" y="-46" class="st7" width="120.5" height="20"/>
	<g transform="translate(0 0)">
		<g class="st5">
			<path class="st8" d="M48.4-41.8v1.6h4.7v0.8h-4.7v1.8h3.2v0.8c-0.7,1.3-1.6,2.5-2.9,3.5c0.6,0.3,1.3,0.7,2,0.9
				c0.9,0.3,1.8,0.6,2.7,0.8l-0.5,0.8c-1-0.3-2-0.6-2.9-1c-0.7-0.3-1.4-0.7-2-1c-1.4,0.9-3,1.5-4.9,2.1l-0.5-0.8
				c1.8-0.4,3.4-1,4.7-1.8c-0.6-0.5-1.2-1-1.6-1.6s-0.7-1.2-0.9-1.8h-0.9v-0.8h3.8v-1.8H43v-0.9h4.7v-1.6H48.4z M50.7-36.8h-5.1
				c0.2,0.6,0.6,1.2,1,1.7s0.9,0.9,1.4,1.3C49.2-34.6,50.1-35.6,50.7-36.8z"/>
			<path class="st8" d="M55-30.9l-0.2-0.8c0.3,0,0.6,0.1,0.9,0.1s0.5-0.2,0.5-0.5v-2.8c-0.5,0.2-0.9,0.3-1.4,0.5l-0.2-0.9
				c0.6-0.1,1.1-0.3,1.6-0.5v-2.7h-1.5v-0.8h1.5v-2.1h0.9v2.1h1.2v0.8h-1.2v2.4c0.4-0.2,0.9-0.4,1.3-0.6v0.9
				c-0.4,0.2-0.8,0.4-1.3,0.6v3.4c0,0.7-0.3,1.1-1,1.1H55L55-30.9L55-30.9z M63-36v-0.9h0.9v0.9h1.4v0.8h-1.5v3.2
				c0,0.7-0.4,1.1-1.1,1.1h-1.6l-0.2-0.8c0.5,0,1,0,1.5,0c0.3,0,0.5-0.2,0.5-0.5v-3h-4.4V-36H63z M62.4-41.8v1.2h2.5v0.8h-2.5v1.4
				h2.9v0.8h-6.5v-0.8h2.8v-1.4h-2.4v-0.8h2.4v-1.2H62.4z M61.3-32.7l-0.7,0.5c-0.4-0.6-0.8-1.3-1.5-2l0.7-0.4
				C60.4-33.9,60.9-33.2,61.3-32.7z"/>
			<path class="st8" d="M66.7-35.9l-0.3-0.9c1.2-1.5,2.1-3.2,2.6-5.1l0.8,0.4c-0.3,0.8-0.6,1.6-0.9,2.4v8.3H68v-6.8
				C67.6-37,67.2-36.4,66.7-35.9z M71.6-40.4v-1.3h0.9v1.3h2.2v-1.3h0.8v1.3h1.7v0.8h-1.7v1.5h2v0.8h-7.8v-0.9h1.9v-1.5H70v-0.8
				L71.6-40.4L71.6-40.4z M76.4-30.9h-0.8v-0.5h-4.1v0.5h-0.8v-5.5h5.8L76.4-30.9L76.4-30.9z M75.6-34.3v-1.3h-4.1v1.3H75.6z
				 M75.6-32.2v-1.3h-4.1v1.3H75.6z M74.6-38.2v-1.5h-2.2v1.5H74.6z"/>
			<path class="st8" d="M81.1-38.1v5.4c0.5-0.4,1-0.8,1.5-1.3l0.2,0.9c-0.8,0.7-1.6,1.3-2.5,1.9L80-32c0.2-0.1,0.3-0.3,0.3-0.5v-4.8
				h-1.8v-0.8C78.5-38.1,81.1-38.1,81.1-38.1z M82-39.8l-0.6,0.6c-0.5-0.6-1.2-1.2-2.1-1.9l0.6-0.6C80.8-41.1,81.4-40.5,82-39.8z
				 M89.1-31.8c-0.2,0.4-0.7,0.6-1.4,0.6h-3.1c-0.7,0-1.1-0.4-1.1-1.2v-5.2h4.3v-2.8H83v-0.8h5.7v4.5h-4.4v4.1
				c0,0.4,0.2,0.6,0.6,0.6h2.6c0.5,0,0.8-0.2,0.9-0.5s0.2-1,0.3-1.9l0.9,0.3C89.5-32.9,89.3-32.1,89.1-31.8z"/>
			<path class="st8" d="M95.9-41.8v1.5h3.9v0.8h-3.9v1.8h5.5v0.8h-5.5v1.2c1.4,0.6,2.8,1.4,4.3,2.2l-0.5,0.7
				c-1.5-0.9-2.8-1.6-3.8-2.1v3.9H95v-6h-4.3v-0.8H95v-4.1L95.9-41.8L95.9-41.8z"/>
			<path class="st8" d="M105-38.5v-1.7c-0.6,0.1-1.2,0.2-1.8,0.2l-0.3-0.8c1.8-0.1,3.3-0.4,4.5-0.9l0.4,0.7
				c-0.6,0.2-1.3,0.4-1.9,0.6v1.9h2.1v0.8h-2.1v0.6c0.7,0.6,1.4,1.3,2.1,2.1l-0.5,0.7c-0.6-0.9-1.2-1.5-1.6-2v5.4h-0.8v-5.3
				c-0.5,1.1-1.2,2.2-2.1,3.1l-0.4-0.9c1.1-1.1,1.9-2.2,2.4-3.6v-0.1h-2.1v-0.8H105z M112.9-31.3h-0.8v-0.9h-2.9v1.1h-0.9v-9.8h4.6
				L112.9-31.3L112.9-31.3z M112.1-33.1v-7.1h-2.9v7.1H112.1z"/>
			<path class="st8" d="M114.7-36l-0.3-0.9c1.2-1.5,2-3.1,2.6-5l0.8,0.4c-0.3,0.9-0.6,1.8-1.1,2.6v8.2h-0.9v-6.7
				C115.5-37,115.1-36.5,114.7-36z M121.4-40.2c-0.2-0.5-0.4-0.9-0.6-1.4l0.8-0.2c0.3,0.5,0.4,1,0.6,1.5l-0.5,0.2h3.8v0.8h-7.8v-0.9
				H121.4z M124.7-30.8h-0.8v-0.6h-4.4v0.6h-0.8V-35h6.1L124.7-30.8L124.7-30.8z M124.5-38.4v0.8h-5.7v-0.8H124.5z M124.5-36.8v0.8
				h-5.7v-0.8H124.5z M123.9-32.3v-1.9h-4.4v1.9H123.9z"/>
			<path class="st8" d="M127.2-30.9l-0.7-0.6c0.8-1.1,1.2-2.4,1.2-4.1v-5.8h8.9v9c0,0.8-0.4,1.3-1.3,1.3h-1.4l-0.2-0.9
				c0.5,0,0.9,0,1.3,0s0.7-0.3,0.7-0.8v-2.1h-3.3v3.5h-0.9v-3.5h-3.1C128.4-33.2,127.9-31.9,127.2-30.9z M128.6-40.5v2.1h3v-2.1
				H128.6z M128.6-35.5h3v-2.1h-3V-35.5z M135.8-40.5h-3.3v2.1h3.3V-40.5z M135.8-37.6h-3.3v2.1h3.3V-37.6z"/>
			<path class="st8" d="M143.9-41.8v1.5h3.9v0.8h-3.9v1.8h5.5v0.8h-5.5v1.2c1.4,0.6,2.8,1.4,4.3,2.2l-0.5,0.7
				c-1.5-0.9-2.8-1.6-3.8-2.1v3.9H143v-6h-4.3v-0.8h4.3v-4.1L143.9-41.8L143.9-41.8z"/>
		</g>
		<circle class="st8" cx="31" cy="-36" r="1.5"/>
	</g>
</g>
<g id="Textbasic15" transform="translate(418.0859375,167)">
	<rect x="21" y="-46" class="st7" width="80" height="20"/>
	<g transform="translate(0 0)">
		<g class="st5">
			<path class="st8" d="M24.1-38.1v5.2c0.4-0.3,0.8-0.7,1.2-1.2l0.2,0.9c-0.7,0.7-1.4,1.3-2.2,1.8L23-32.2c0.2-0.1,0.3-0.3,0.3-0.5
				v-4.7h-1.7v-0.8L24.1-38.1L24.1-38.1z M25-39.8l-0.6,0.6c-0.5-0.6-1.2-1.2-2-1.9l0.6-0.6C23.8-41.1,24.4-40.5,25-39.8z
				 M25.6-40.4v-0.8h6.7v0.9h-2.5v3.4h2.3v0.8h-2.3v4.2h2.7v0.9h-7.3v-0.9h1.2v-6.3h0.9v6.3H29v-8.3h-3.4
				C25.6-40.2,25.6-40.4,25.6-40.4z"/>
			<path class="st8" d="M34.8-41.9c0.5,0.8,0.9,1.6,1.2,2.5c0.3,1,0.5,2.1,0.5,3.1s-0.2,2.1-0.5,3.1c-0.3,0.9-0.7,1.7-1.2,2.5H34
				c0.5-0.8,0.9-1.6,1.1-2.5c0.3-1.1,0.5-2.1,0.5-3.1s-0.2-2.1-0.5-3.1c-0.3-0.9-0.7-1.7-1.1-2.5C34-41.9,34.8-41.9,34.8-41.9z"/>
		</g>
	</g>
</g>
<g id="Textbasic16" transform="translate(418.0859375,147)">
	<rect x="21" y="-46" class="st7" width="122.5" height="20"/>
	<g transform="translate(0 0)">
		<g class="st5">
			<path class="st8" d="M23.9-41.8c-0.1,0.8-0.2,1.6-0.3,2.3h1.9v0.5c-0.1,1.9-0.4,3.6-1,5c0.6,0.5,1,1,1.3,1.4l-0.6,0.7
				c-0.3-0.4-0.7-0.8-1.1-1.3c-0.5,0.9-1.1,1.8-1.9,2.4l-0.6-0.7c0.8-0.6,1.4-1.4,1.9-2.3c-0.5-0.5-1-1-1.6-1.5
				c0.3-1,0.5-2.2,0.8-3.4h-1v-0.8h1.1c0.1-0.8,0.2-1.5,0.3-2.3L23.9-41.8z M24.6-38.7h-1.2c-0.2,1.3-0.5,2.3-0.7,3.1
				c0.4,0.3,0.7,0.6,1,0.9C24.3-35.8,24.5-37.2,24.6-38.7z M26.1-36.2l-0.6-0.6c0.6-0.9,1-2.3,1-4.2h0.8c0,0.5,0,1-0.1,1.4h1.6v-2.3
				h0.9v2.3h2.4v0.8h-2.4v2.9H32v0.9h-2.3v2.9h2.8v0.8h-6.6v-0.8h2.9V-35h-2.4v-0.9h2.4v-2.9h-1.7C26.9-37.6,26.6-36.8,26.1-36.2z"
				/>
			<path class="st8" d="M37.3-30.9h-0.9v-4.2c-0.7,0.2-1.5,0.5-2.4,0.7l-0.5-0.8c2.1-0.4,3.8-1,5.2-1.7c-0.5-0.4-1.2-0.9-2.2-1.4
				l0.7-0.5c0.9,0.6,1.6,1.1,2.1,1.5c1.2-0.7,2.1-1.6,2.7-2.6h-4.4c-0.8,0.8-1.8,1.4-3.1,2l-0.6-0.7c2.1-0.9,3.4-2,4.2-3.2l0.9,0.1
				c-0.2,0.4-0.4,0.7-0.6,1h4.7v0.8c-0.9,1.6-2.4,3-4.7,4h5v5.1h-0.9v-0.7h-5.2L37.3-30.9L37.3-30.9z M42.6-35.1h-5.3v2.7h5.4v-2.7
				H42.6z"/>
			<path class="st8" d="M49-38.1v2.6h2.6v0.8H49v2.6h-0.8v-2.6h-2.6v-0.8h2.6v-2.6H49z"/>
			<path class="st8" d="M55.4-38.1v5.2c0.4-0.3,0.8-0.7,1.2-1.2l0.2,0.9c-0.7,0.7-1.4,1.3-2.2,1.8l-0.3-0.7c0.2-0.1,0.3-0.3,0.3-0.5
				v-4.7h-1.7v-0.8H55.4z M56.2-39.8l-0.6,0.6c-0.5-0.6-1.2-1.2-2-1.9l0.6-0.6C55-41.1,55.7-40.5,56.2-39.8z M56.9-40.4v-0.8h6.7
				v0.9h-2.5v3.4h2.3v0.8h-2.3v4.2h2.7v0.9h-7.3v-0.9h1.2v-6.3h0.8v6.3h1.7v-8.3h-3.3C56.9-40.2,56.9-40.4,56.9-40.4z"/>
			<path class="st8" d="M68.2-41.5c-0.3,0.9-0.7,1.8-1.2,2.7v8h-0.9v-6.7c-0.4,0.5-0.8,1-1.3,1.5l-0.3-0.9c1.3-1.4,2.2-3.1,2.8-5
				L68.2-41.5z M70.3-41c-0.1,0.6-0.2,1.2-0.4,1.7h1.8v-2.5h0.9v2.5h2.7v0.8h-2.8v2.9h3.2v0.8h-3.2v3.9h-0.9v-3.9h-3.5v-0.8h3.5
				v-2.9h-2c-0.3,0.8-0.7,1.5-1.1,2.1l-0.6-0.7c0.7-1.1,1.2-2.5,1.5-4.1L70.3-41z"/>
			<path class="st8" d="M76.9-36.3v-0.8h10.8v0.8h-7.2l-0.4,1.4H86c-0.1,1.9-0.3,3.1-0.6,3.4c-0.3,0.4-0.8,0.5-1.7,0.5
				c-0.6,0-1.1,0-1.6-0.1l-0.3-0.8c0.6,0,1.2,0.1,1.7,0.1c0.6,0,1-0.1,1.2-0.4c0.1-0.3,0.3-0.9,0.3-2h-6l0.6-2.2L76.9-36.3
				C76.9-36.4,76.9-36.3,76.9-36.3z M85.8-41.4v3.2h-7v-3.2H85.8z M84.9-40.6h-5.3v1.7h5.3V-40.6z"/>
			<path class="st8" d="M92.3-38.1v2.6h2.6v0.8h-2.6v2.6h-0.8v-2.6h-2.6v-0.8h2.6v-2.6H92.3z"/>
			<path class="st8" d="M106-41c-1.1,0.3-2.4,0.5-3.8,0.7v2h3.8v0.8h-3.8v2h4.7v0.8h-4.7v2.7c0,0.7-0.4,1.1-1.1,1.1h-1.9L99-31.7
				c0.6,0,1.2,0,1.8,0c0.4,0,0.6-0.2,0.6-0.5v-2.4h-5.2v-0.8h5.2v-2h-4.2v-0.8h4.2v-2c-1.3,0.1-2.7,0.2-4.1,0.2L97-40.8
				c3.5,0,6.4-0.3,8.6-0.8L106-41z"/>
			<path class="st8" d="M110-39.5v-2.3h0.9v2.3h1.5v0.8h-1.5v0.6c0.6,0.6,1.1,1.2,1.7,1.9l-0.5,0.7c-0.5-0.8-0.9-1.4-1.2-1.8v6.3
				H110v-6.1c-0.4,1.2-1,2.3-1.6,3.3l-0.4-0.9c0.9-1.2,1.6-2.5,2-4h-1.8v-0.8H110z M112.9-33.8c0.2-0.7,0.2-1.7,0.2-3v-4.5h3.9v9.1
				c0,0.2,0.1,0.3,0.3,0.3h0.4c0.1,0,0.3,0,0.3-0.1c0.1-0.1,0.2-0.2,0.2-0.3c0-0.2,0.1-0.9,0.1-2.1l0.8,0.3c0,0.9,0,1.5-0.1,2
				c0,0.4-0.2,0.7-0.4,0.9c-0.2,0.1-0.5,0.2-0.9,0.2h-0.4c-0.8,0-1.2-0.3-1.2-1v-8.3H114v3.7c0,1.3-0.1,2.4-0.3,3.3
				c-0.2,0.9-0.6,1.8-1.2,2.7l-0.7-0.6C112.3-32.2,112.7-33,112.9-33.8z"/>
			<path class="st8" d="M120.1-36.3v-0.8h10.8v0.8h-7.2l-0.4,1.4h5.9c-0.1,1.9-0.3,3.1-0.6,3.4c-0.3,0.4-0.8,0.5-1.7,0.5
				c-0.6,0-1.1,0-1.6-0.1l-0.3-0.8c0.6,0,1.2,0.1,1.7,0.1c0.6,0,1-0.1,1.2-0.4c0.1-0.3,0.3-0.9,0.3-2h-6l0.6-2.2L120.1-36.3
				C120.1-36.4,120.1-36.3,120.1-36.3z M129-41.4v3.2h-7v-3.2H129z M128.1-40.6h-5.3v1.7h5.3V-40.6z"/>
			<path class="st8" d="M134.7-33.7c-0.8,0.3-1.7,0.5-2.7,0.7l-0.1-0.8c1.1-0.2,2-0.4,2.8-0.7L134.7-33.7L134.7-33.7z M132.2-40.5
				v-0.8h3.8l-0.6,4.9h0.7c0,2.7-0.1,4.3-0.3,4.7c-0.2,0.4-0.7,0.6-1.5,0.6c-0.3,0-0.6,0-0.9,0l-0.2-0.8c0.4,0,0.7,0.1,0.9,0.1
				c0.6,0,0.9-0.2,1-0.6c0.1-0.4,0.2-1.5,0.2-3.3h-3l0.6-4.1h0.8l-0.5,3.3h1.4l0.5-4.1L132.2-40.5L132.2-40.5z M136.5-37l-0.5-0.7
				c1.3-1,2.4-2.4,3.1-4.1h0.8c0.6,1.5,1.7,2.9,3.1,4l-0.5,0.7c-0.5-0.4-1-0.8-1.4-1.3v0.7h-3.4v-0.7C137.5-37.8,137-37.4,136.5-37z
				 M140.3-32.1c0.5-1.3,0.9-2.9,1.2-4.7l0.8,0.2c-0.3,1.7-0.7,3.2-1.2,4.5h1.8v0.8h-6.5v-0.8H140.3z M138.6-33l-0.7,0.2
				c-0.3-1.2-0.6-2.3-1-3.4l0.7-0.3C137.9-35.5,138.3-34.3,138.6-33z M139.6-40.9c-0.5,1-1,1.9-1.6,2.6h3.3
				C140.6-39.1,140-40,139.6-40.9z M140.3-33.5l-0.8,0.2c-0.2-1.1-0.5-2.2-0.9-3.2l0.7-0.2C139.7-35.9,140-34.8,140.3-33.5z"/>
		</g>
	</g>
</g>
<g id="Textdot18" transform="translate(587.8359375,105)">
	<rect x="31.5" y="-46.7" class="st7" width="156.5" height="20"/>
	<g transform="translate(0 0)">
		<g class="st5">
			<path class="st8" d="M58.3-42.5v1.4c0,0.5,0,1-0.1,1.5h4.9c0,3.4-0.2,5.6-0.5,6.5s-0.9,1.4-1.7,1.4c-0.6,0-1.1,0-1.5,0l-0.1-0.8
				c0.6,0,1.2,0.1,1.7,0.1c0.7,0,1.1-0.7,1.2-2s0.1-2.7,0.1-4.3h-4.1c-0.2,1.5-0.5,2.8-1,3.8c-0.7,1.4-1.9,2.5-3.5,3.3l-0.5-0.8
				c1.6-0.8,2.7-1.9,3.4-3.2c0.4-0.9,0.6-1.9,0.8-3.1h-3.7v-0.8h3.8c0-0.5,0.1-1,0.1-1.5v-1.4L58.3-42.5L58.3-42.5z M56.3-40.2
				l-0.7,0.5c-0.4-0.6-1-1.2-1.6-1.9l0.7-0.5C55.4-41.5,55.9-40.9,56.3-40.2z M60.9-34.7l-0.8,0.5c-0.5-0.8-1.1-1.6-1.9-2.6l0.7-0.4
				C59.8-36.2,60.5-35.4,60.9-34.7z"/>
			<path class="st8" d="M70.8-42.5c1.5,1.8,3.3,3.2,5.3,4.2l-0.5,0.8c-2-1.1-3.7-2.5-5.1-4.2c-1.3,1.6-3,3-5.2,4.2l-0.5-0.8
				c2.1-1.1,3.9-2.5,5.3-4.2H70.8z M74.3-31.5h-0.8v-0.7h-5.9v0.7h-0.8v-4.8h7.5L74.3-31.5L74.3-31.5z M73.6-38.7v0.8h-6.2v-0.8
				H73.6z M73.5-33.1v-2.5h-5.9v2.5H73.5z"/>
			<path class="st8" d="M77.2-36.8l-0.3-0.9c1.3-1.4,2.2-3,2.8-4.8l0.8,0.4c-0.3,0.9-0.7,1.8-1.2,2.6v8h-0.9v-6.7
				C78.1-37.7,77.7-37.2,77.2-36.8z M80.4-36.9l-0.6-0.7c1.1-1.2,1.9-2.9,2.6-4.9l0.9,0.2c-0.2,0.6-0.4,1.1-0.6,1.6h5.2v0.9h-4v2
				h3.4v0.8h-3.5v2h3.6v0.8h-3.6v2.8h-0.9v-8.5h-0.6C81.8-38.8,81.1-37.8,80.4-36.9z"/>
			<path class="st8" d="M89.4-36.8l-0.3-0.9c1.3-1.4,2.2-3,2.7-4.8l0.8,0.4c-0.3,0.9-0.7,1.8-1.2,2.6v8h-0.8v-6.7
				C90.2-37.7,89.8-37.2,89.4-36.8z M96.5-39.4c0,0.4,0,0.8-0.1,1.1c0.5,2.7,1.7,4.7,3.6,6.1l-0.6,0.7c-1.7-1.4-2.8-3.1-3.3-5.1
				c-0.5,2-1.6,3.7-3.3,5.1l-0.6-0.6c2.3-1.8,3.4-4.1,3.5-7.1c0-1.1,0-2.2,0-3.2h0.9C96.5-41.4,96.5-40.4,96.5-39.4z M94.3-40.2
				c-0.1,1.4-0.4,2.7-0.9,3.7l-0.8-0.2c0.5-1,0.8-2.2,0.9-3.6L94.3-40.2z M99.6-40.4c-0.3,1.4-0.6,2.6-1.1,3.6l-0.8-0.3
				c0.4-0.9,0.8-2.1,1.1-3.6L99.6-40.4z"/>
			<path class="st8" d="M104.4-42.2c-0.3,0.9-0.7,1.8-1.2,2.7v8h-0.9v-6.7c-0.4,0.5-0.8,1-1.2,1.5l-0.3-0.9c1.2-1.4,2.1-3.1,2.7-4.9
				L104.4-42.2z M107.6-38.6v-3.9h0.9v3.9h3.1v0.8h-3.1v2h3.5v0.8h-3.5v3.4h-0.9v-3.4h-3.4v-0.8h3.4v-2h-3v-0.8H107.6z M106.7-39.4
				l-0.8,0.2c-0.3-0.8-0.6-1.6-1-2.4l0.8-0.3C106.1-41.1,106.4-40.2,106.7-39.4z M111.3-41.8c-0.3,1-0.6,1.9-1.1,2.7l-0.8-0.3
				c0.4-0.7,0.8-1.6,1.1-2.6L111.3-41.8z"/>
			<path class="st8" d="M113.4-31.6l-0.2-0.8c0.3,0,0.6,0,1,0c0.3,0,0.4-0.2,0.4-0.5v-2.9c-0.5,0.2-0.9,0.3-1.4,0.5l-0.2-0.9
				c0.5-0.1,1.1-0.3,1.6-0.5v-2.7h-1.5v-0.8h1.5v-2.3h0.9v2.3h1.2v0.8h-1.2v2.3c0.3-0.2,0.7-0.3,1-0.5v0.9c-0.3,0.2-0.7,0.3-1,0.5
				v3.5c0,0.7-0.3,1-1,1L113.4-31.6C113.4-31.7,113.4-31.6,113.4-31.6z M123.7-37.1v0.8h-3v1.4h2.5v0.8h-2.5v1.5
				c0.5,0.1,1,0.1,1.7,0.1c0.6,0,1.2,0,1.6-0.1l-0.2,0.8c-0.5,0-0.9,0-1.3,0c-1.6,0-2.7-0.2-3.2-0.5c-0.5-0.2-0.9-0.7-1.2-1.4
				c-0.3,0.7-0.7,1.4-1.2,2.1l-0.6-0.6c0.9-1.1,1.4-2.4,1.5-3.7l0.8,0.1c0,0.4-0.1,0.8-0.2,1.2c0.4,0.8,0.8,1.3,1.3,1.5
				c0.1,0,0.2,0.1,0.3,0.1v-3.5h-3v-0.8h6.7L123.7-37.1L123.7-37.1z M122.9-42.1v4.2h-5.2v-4.2H122.9z M122.1-40.2v-1h-3.5v1H122.1z
				 M122.1-39.7h-3.5v1h3.5V-39.7z"/>
			<path class="st8" d="M125.2-36.7l-0.3-0.9c1.3-1.5,2.3-3.1,2.9-5l0.8,0.4c-0.3,0.9-0.7,1.8-1.2,2.7v8.1h-0.9v-6.7
				C126.1-37.7,125.6-37.2,125.2-36.7z M130.2-40v-2.5h0.9v2.5h2.1v-2.5h0.9v2.5h1.6v0.8h-1.6v2.8h1.9v0.8h-7.7v-0.8h1.9v-2.8h-1.5
				V-40H130.2z M131.3-34.6c-0.6,1.2-1.4,2.2-2.2,3.1l-0.7-0.5c0.8-0.8,1.6-1.8,2.2-2.9L131.3-34.6z M133.2-36.2v-2.8h-2.1v2.8
				H133.2z M135.9-32.1l-0.8,0.5c-0.6-0.9-1.3-1.9-2.3-3.1l0.7-0.4C134.6-33.9,135.3-32.9,135.9-32.1z"/>
			<path class="st8" d="M141.3-32.2h-0.8v-0.6h-2.2v1h-0.8v-8.5h1.1c0.2-0.7,0.4-1.4,0.5-2.1l0.9,0.1c-0.1,0.7-0.3,1.4-0.6,2h1.9
				L141.3-32.2L141.3-32.2z M140.5-37.2v-2.5h-2.2v2.5H140.5z M140.5-33.7v-2.6h-2.2v2.6H140.5z M147.4-33c-0.1,0.9-0.7,1.4-1.7,1.4
				c-0.2,0-0.6,0-1.2,0l-0.2-0.8c0.5,0,0.9,0,1.3,0c0.6,0,0.9-0.3,1-0.9c0.1-0.7,0.1-2.7,0.1-6.2h-3.3c-0.3,0.8-0.7,1.4-1.2,2.1
				l-0.5-0.7c0.8-1.2,1.4-2.6,1.7-4.3l0.9,0.1c-0.1,0.7-0.3,1.4-0.5,2h3.8C147.5-36.4,147.5-34,147.4-33z M145.4-35l-0.7,0.5
				c-0.5-0.8-1.2-1.7-2-2.7l0.7-0.4C144.3-36.7,144.9-35.8,145.4-35z"/>
			<path class="st8" d="M151.6-42.5v2.3h1.4v0.8h-1.4v0.9c0.6,0.6,1.2,1.3,1.8,2l-0.5,0.7c-0.5-0.8-0.9-1.4-1.3-1.8v6h-0.9v-6
				c-0.4,1.1-0.9,2.2-1.5,3.1l-0.4-0.9c0.9-1.2,1.5-2.5,1.8-4h-1.3v-0.8h1.5v-2.3H151.6z M155.1-36.9c-0.4,1.7-0.9,3.1-1.7,4.3
				l-0.7-0.5c0.7-1.2,1.3-2.6,1.6-4L155.1-36.9z M154.8-31.6l-0.2-0.8c0.4,0,0.7,0,1.1,0c0.3,0,0.5-0.2,0.5-0.5V-38h-2.9v-0.9h6.7
				v0.8h-2.9v5.3c0,0.7-0.4,1.1-1.1,1.1L154.8-31.6L154.8-31.6L154.8-31.6z M159.4-41.8v0.8h-5.5v-0.8H159.4z M160-32.8l-0.8,0.3
				c-0.4-1.7-0.8-3.1-1.3-4.4l0.8-0.3C159.2-35.8,159.6-34.2,160-32.8z"/>
			<path class="st8" d="M163.7-39.4l-0.7,0.5c-0.5-0.8-1.1-1.8-1.9-2.8l0.7-0.5C162.6-41.1,163.3-40.2,163.7-39.4z M163.8-36.6
				c-0.6,1.8-1.2,3.4-1.8,5l-0.8-0.3c0.7-1.6,1.4-3.3,1.9-5L163.8-36.6z M165.8-31.5H165v-7.1c-0.3,0.6-0.7,1.1-1.1,1.6l-0.3-0.9
				c1-1.4,1.8-3,2.2-4.7l0.8,0.2c-0.2,0.7-0.4,1.3-0.6,1.9h2.6c-0.2-0.7-0.4-1.3-0.7-1.9l0.8-0.2c0.3,0.7,0.5,1.4,0.7,2l-0.3,0.1
				h2.7v0.8h-2.5v1.6h2.3v0.8h-2.3v1.6h2.3v0.8h-2.3v1.8h2.8v0.8H166v0.8L165.8-31.5L165.8-31.5z M165.8-39.6v1.6h2.5v-1.6H165.8z
				 M165.8-35.6h2.5v-1.6h-2.5V-35.6z M165.8-33h2.5v-1.8h-2.5V-33z"/>
			<path class="st8" d="M178.9-31.8c-0.8,0-1.4-0.1-1.9-0.2c-0.5-0.1-0.9-0.4-1.2-0.9c-0.2-0.2-0.3-0.3-0.5-0.3
				c-0.3,0-0.8,0.6-1.4,1.7l-0.6-0.6c0.6-1,1.2-1.6,1.7-1.8v-3.6h-1.7v-0.8h2.5v4.5c0.1,0.1,0.2,0.2,0.3,0.3
				c0.3,0.3,0.6,0.6,0.9,0.8c0.4,0.2,0.9,0.3,1.6,0.3c0.6,0,1.4,0,2.3,0c0.6,0,1.2,0,1.8,0s1,0,1.4,0l-0.2,0.9h-2.8
				C180.3-31.7,179.6-31.7,178.9-31.8z M176.1-40.5l-0.6,0.6c-0.5-0.6-1.2-1.2-2.1-1.9l0.6-0.6C174.8-41.8,175.5-41.1,176.1-40.5z
				 M183.8-39.1v0.8h-3.7c-0.7,1.7-1.2,2.9-1.8,3.6c1.6-0.2,2.8-0.4,3.9-0.6c-0.3-0.7-0.6-1.3-1-1.9l0.7-0.2
				c0.6,1.1,1.2,2.4,1.7,3.8l-0.8,0.2c-0.1-0.4-0.3-0.7-0.4-1.1c-1.3,0.3-3,0.6-5.2,0.8l-0.2-0.8c0.5-0.1,1.2-1.4,2.1-3.8h-2.5v-0.8
				H183.8z M182.9-41.8v0.8h-5.5v-0.8H182.9z"/>
			<path class="st8" d="M188-41.7v-0.8h0.9v0.8h3.2v-0.8h0.9v0.8h2.7v0.8H193v0.7h-0.9v-0.7h-3.2v0.7H188v-0.7h-2.7v-0.8H188z
				 M195.3-37.5h-0.8V-39h-8v1.6h-0.8v-2.3h9.6V-37.5z M194.6-31.5h-0.8V-32h-6.5v0.5h-0.8v-3.4h8.2L194.6-31.5L194.6-31.5z
				 M193.8-32.7v-1.4h-6.5v1.4H193.8z M193.5-38.1v2.4h-6v-2.4H193.5z M192.7-37.5h-4.4v1.1h4.4V-37.5z"/>
		</g>
		<circle class="st8" cx="41.5" cy="-36.7" r="1.5"/>
	</g>
</g>
<g id="Textbasic19" transform="translate(608.0859375,125)">
	<rect x="31.5" y="-46.7" class="st7" width="144" height="20"/>
	<g transform="translate(0 0)">
		<g class="st5">
			<path class="st8" d="M42.4-42v0.8h-4.5v4.5h4.9v0.8h-4.9v4.2H37v-4.2h-4.8v-0.8H37v-4.5h-4.3V-42H42.4z M35.4-37.6l-0.8,0.4
				c-0.4-1-0.8-1.9-1.3-2.7l0.8-0.4C34.6-39.5,35-38.6,35.4-37.6z M41.7-40.1c-0.4,0.9-0.8,1.9-1.4,2.8l-0.8-0.4
				c0.6-0.9,1.1-1.8,1.4-2.8L41.7-40.1z"/>
			<path class="st8" d="M44.5-38.6c1.1-0.4,2.4-1.7,3.9-4l0.9,0.3c-1.1,1.5-2.2,2.8-3.2,3.6c2.3-0.1,4.5-0.3,6.5-0.4
				c-0.5-0.6-0.9-1.3-1.4-1.8l0.8-0.4c1,1.2,2,2.5,2.9,4l-0.8,0.4c-0.3-0.5-0.6-1-0.9-1.4c-2.5,0.2-5.3,0.4-8.5,0.5L44.5-38.6z
				 M53.5-31.5h-0.9v-0.6h-6.3v0.6h-0.9v-5h8L53.5-31.5L53.5-31.5z M52.6-32.9v-2.7h-6.3v2.7H52.6z"/>
			<path class="st8" d="M58.4-33.8c0.2,0.2,0.2,0.5,0.2,0.8c0,0.5-0.2,1-0.5,1.4s-0.7,0.6-1.2,0.8v-0.6c0.3-0.1,0.6-0.3,0.8-0.5
				c0.2-0.3,0.3-0.5,0.3-0.8c0,0-0.1,0-0.3,0c-0.2,0-0.4-0.1-0.5-0.2S57-33.2,57-33.4s0.1-0.4,0.2-0.5s0.3-0.2,0.6-0.2
				C58-34.1,58.2-34,58.4-33.8z"/>
			<path class="st8" d="M68.4-31.6l-0.2-0.8c0.3,0,0.6,0,1,0c0.3,0,0.4-0.2,0.4-0.5v-2.9c-0.5,0.2-0.9,0.3-1.4,0.5L68-36.1
				c0.5-0.1,1.1-0.3,1.6-0.5v-2.7h-1.5v-0.8h1.5v-2.3h0.9v2.3h1.2v0.8h-1.2v2.3c0.3-0.2,0.7-0.3,1-0.5v0.9c-0.3,0.2-0.7,0.3-1,0.5
				v3.5c0,0.7-0.3,1-1,1L68.4-31.6C68.4-31.7,68.4-31.6,68.4-31.6z M78.7-37.1v0.8h-3v1.4h2.5v0.8h-2.5v1.5c0.5,0.1,1,0.1,1.7,0.1
				c0.6,0,1.2,0,1.6-0.1l-0.2,0.8c-0.5,0-0.9,0-1.3,0c-1.6,0-2.7-0.2-3.2-0.5c-0.5-0.2-0.9-0.7-1.2-1.4c-0.3,0.7-0.7,1.4-1.2,2.1
				l-0.6-0.6c0.9-1.1,1.4-2.4,1.5-3.7l0.8,0.1c0,0.4-0.1,0.8-0.2,1.2c0.4,0.8,0.8,1.3,1.3,1.5c0.1,0,0.2,0.1,0.3,0.1v-3.5h-3v-0.8
				h6.7C78.7-37.2,78.7-37.1,78.7-37.1z M77.9-42.1v4.2h-5.2v-4.2H77.9z M77.1-40.2v-1h-3.5v1H77.1z M77.1-39.7h-3.5v1h3.5V-39.7z"
				/>
			<path class="st8" d="M80.2-36.7l-0.3-0.9c1.3-1.5,2.3-3.1,2.9-5l0.8,0.4c-0.3,0.9-0.7,1.8-1.2,2.7v8.1h-0.9v-6.7
				C81.1-37.7,80.6-37.2,80.2-36.7z M85.2-40v-2.5h0.9v2.5h2.1v-2.5h0.9v2.5h1.6v0.8h-1.6v2.8H91v0.8h-7.7v-0.8h1.9v-2.8h-1.5V-40
				H85.2z M86.3-34.6c-0.6,1.2-1.4,2.2-2.2,3.1l-0.8-0.6c0.8-0.8,1.6-1.8,2.2-2.9L86.3-34.6z M88.2-36.2v-2.8h-2.1v2.8H88.2z
				 M90.9-32.1l-0.8,0.5c-0.6-0.9-1.3-1.9-2.3-3.1l0.7-0.4C89.6-33.9,90.3-32.9,90.9-32.1z"/>
			<path class="st8" d="M97.6-42.5c-0.1,0.4-0.2,0.7-0.4,1h3.5v5.3c0.6-0.7,1.1-1.4,1.4-2.2l0.7,0.5c-0.6,1.1-1.3,2.1-2.1,2.8v2.6
				c0,0.7-0.3,1-0.9,1h-1.3l-0.2-0.8h1.2c0.2,0,0.4-0.2,0.4-0.4v-1.7c-0.3,0.2-0.5,0.4-0.8,0.5c-1.6,1-3.7,1.7-6.2,2.1l-0.4-0.8
				c3.1-0.6,5.4-1.4,6.8-2.4l0.2-0.1h-7v-0.8h1.4v-5.7h2.4c0.2-0.4,0.3-0.7,0.4-1.1L97.6-42.5z M99.9-39.6v-1.1h-5.1v1.1H99.9z
				 M99.9-37.8v-1.1h-5.1v1.1H99.9z M99.9-35.8v-1.2h-5.1v1.2H99.9z"/>
			<path class="st8" d="M107.5-42.2c-0.3,0.9-0.7,1.8-1.2,2.6v8.1h-0.9v-6.8c-0.4,0.5-0.8,1-1.3,1.5l-0.3-0.9c1.3-1.4,2.2-3,2.8-4.9
				L107.5-42.2z M110.1-42.1c-0.7,2.1-1.6,3.6-2.7,4.7l-0.7-0.6c1.2-1.1,2-2.6,2.6-4.4L110.1-42.1z M108.1-37v-0.8h5.3
				c0,2.5-0.1,4.1-0.2,4.7c-0.1,0.9-0.6,1.4-1.5,1.4c-0.3,0-0.7,0-1.3,0l-0.2-0.8c0.5,0,1,0,1.3,0c0.5,0,0.7-0.3,0.8-1
				c0.1-0.4,0.1-1.6,0.1-3.5h-2.1c-0.2,1.3-0.5,2.4-0.8,3.1c-0.4,0.8-1.1,1.6-1.9,2.3l-0.6-0.7c0.7-0.6,1.3-1.2,1.7-2
				c0.3-0.7,0.6-1.6,0.8-2.7H108.1z M115-38.2l-0.6,0.7c-1.4-1.2-2.4-2.7-3-4.6l0.7-0.4C112.7-40.8,113.6-39.4,115-38.2z"/>
			<path class="st8" d="M118.6-34.4c-0.8,0.3-1.7,0.5-2.7,0.7l-0.1-0.8c1.1-0.2,2-0.4,2.8-0.7L118.6-34.4L118.6-34.4z M116.2-41.2
				V-42h3.8l-0.6,4.9h0.7c0,2.7-0.1,4.3-0.3,4.7c-0.2,0.4-0.7,0.6-1.5,0.6c-0.3,0-0.6,0-0.9,0l-0.2-0.8c0.4,0,0.7,0.1,0.9,0.1
				c0.6,0,0.9-0.2,1-0.6c0.1-0.4,0.2-1.5,0.2-3.3h-3l0.6-4.1h0.8l-0.5,3.3h1.4l0.5-4.1L116.2-41.2L116.2-41.2z M120.5-37.7l-0.5-0.7
				c1.3-1,2.4-2.4,3.1-4.1h0.8c0.6,1.5,1.7,2.9,3.1,4l-0.5,0.7c-0.5-0.4-1-0.8-1.4-1.3v0.7h-3.4v-0.7
				C121.5-38.5,121-38.1,120.5-37.7z M124.3-32.8c0.5-1.3,0.9-2.9,1.2-4.7l0.8,0.2c-0.3,1.7-0.7,3.2-1.2,4.5h1.8v0.8h-6.5v-0.8
				H124.3z M122.6-33.7l-0.7,0.2c-0.3-1.2-0.6-2.3-1-3.4l0.7-0.3C121.9-36.2,122.2-35,122.6-33.7z M123.6-41.6c-0.5,1-1,1.9-1.6,2.6
				h3.3C124.5-39.8,124-40.7,123.6-41.6z M124.2-34.2l-0.8,0.2c-0.2-1.1-0.5-2.2-0.9-3.2l0.7-0.2C123.7-36.6,124-35.5,124.2-34.2z"
				/>
			<path class="st8" d="M130.6-38.8v5.2c0.4-0.3,0.8-0.7,1.2-1.2l0.2,0.9c-0.7,0.7-1.4,1.3-2.2,1.8l-0.3-0.8
				c0.2-0.1,0.3-0.3,0.3-0.5v-4.7h-1.7v-0.8L130.6-38.8L130.6-38.8z M131.5-40.5l-0.6,0.6c-0.5-0.6-1.2-1.2-2-1.9l0.6-0.6
				C130.3-41.8,130.9-41.2,131.5-40.5z M132.1-41.1v-0.8h6.7v0.9h-2.5v3.4h2.3v0.8h-2.3v4.2h2.7v0.9h-7.3v-0.9h1.2v-6.3h0.8v6.3h1.7
				v-8.3h-3.3L132.1-41.1L132.1-41.1z"/>
			<path class="st8" d="M144.1-33.6h-2.7v0.9h-0.9v-9.2h3.6L144.1-33.6L144.1-33.6z M143.3-38.2V-41h-1.9v2.8H143.3z M143.3-34.4
				v-2.9h-1.9v2.9H143.3z M144.8-31.5l-0.7-0.6c0.8-1.2,1.3-2.6,1.3-4.4v-5.7h4.9v9.4c0,0.7-0.4,1.1-1.1,1.1h-1.6l-0.2-0.9
				c0.6,0,1.1,0,1.5,0c0.3,0,0.5-0.2,0.5-0.6v-2.5h-3.2C146.1-33.9,145.6-32.5,144.8-31.5z M149.4-41.2h-3.1v2.1h3.2L149.4-41.2
				L149.4-41.2z M146.3-36.2h3.2v-2.1h-3.2V-36.2z"/>
			<path class="st8" d="M154.7-42.2c-0.6,1.6-1.1,2.8-1.7,3.8c0.5-0.1,0.9-0.2,1.4-0.3c0.2-0.4,0.4-0.9,0.6-1.4l0.8,0.3
				c-1,2-1.8,3.5-2.4,4.4c0.8-0.2,1.6-0.4,2.4-0.6v0.8c-1.2,0.4-2.3,0.6-3.3,0.8l-0.2-0.8c0.1-0.1,0.3-0.1,0.4-0.2
				c0.4-0.5,0.9-1.3,1.5-2.4c-0.6,0.1-1.2,0.2-1.8,0.3l-0.2-0.7c0.1-0.1,0.3-0.2,0.3-0.3c0.6-1.1,1.1-2.4,1.5-3.8L154.7-42.2z
				 M155.8-33.1c-1.1,0.5-2.3,0.8-3.6,1.1l-0.1-0.8c1.4-0.3,2.7-0.6,3.7-1.1L155.8-33.1L155.8-33.1z M157.1-32.4v0.8h-0.8v-10h6.3
				v10h-0.8v-0.8H157.1z M157.1-40.7v3.3h1.9v-3.3H157.1z M157.1-36.6v3.5h1.9v-3.5H157.1z M161.8-37.4v-3.3h-1.9v3.3H161.8z
				 M161.8-33.1v-3.5h-1.9v3.5H161.8z"/>
			<path class="st8" d="M166.4-33.8c0.2,0.2,0.2,0.5,0.2,0.8c0,0.5-0.2,1-0.5,1.4s-0.7,0.6-1.2,0.8v-0.6c0.3-0.1,0.6-0.3,0.8-0.5
				c0.2-0.3,0.3-0.5,0.3-0.8c0,0-0.1,0-0.3,0s-0.4-0.1-0.5-0.2s-0.2-0.3-0.2-0.5s0.1-0.4,0.2-0.5c0.1-0.1,0.3-0.2,0.6-0.2
				C166-34.1,166.2-34,166.4-33.8z"/>
		</g>
	</g>
</g>
<g id="Textbasic22" transform="translate(608.0859375,147)">
	<rect x="31.5" y="-46.7" class="st7" width="144" height="20"/>
	<g transform="translate(0 0)">
		<g class="st5">
			<path class="st8" d="M34.9-40.4v3.9c0,1.3-0.2,2.4-0.6,3.2c-0.4,0.7-1,1.3-1.8,1.8L32-32.2c0.8-0.4,1.4-0.9,1.7-1.6
				c0.3-0.7,0.4-1.6,0.5-2.7v-3.9H34.9z M36.6-34.5h-0.8v-6.7h-2.5v6.7h-0.8V-42h4.1L36.6-34.5L36.6-34.5z M37-32.2l-0.6,0.6
				c-0.4-0.6-0.9-1.3-1.6-2.1l0.6-0.5C36-33.5,36.5-32.8,37-32.2z M38.8-36.7v4.1c0.5-0.2,1.1-0.5,1.6-0.8l0.2,0.8
				c-0.7,0.5-1.6,0.9-2.5,1.2l-0.4-0.8c0.2-0.1,0.3-0.2,0.3-0.4v-4h-0.9v-0.8H38v-5h0.8v5h4v0.8h-2.2c0.6,1.9,1.4,3.4,2.4,4.4
				l-0.6,0.7c-1.1-1.2-2-2.9-2.6-5.1L38.8-36.7L38.8-36.7L38.8-36.7z M42.6-41.4c-0.8,1.3-1.8,2.4-3,3l-0.5-0.7
				c1.1-0.6,2-1.6,2.8-2.9L42.6-41.4z"/>
			<path class="st8" d="M50.5-40.6c0.4-0.6,0.7-1.3,1-2l0.8,0.3c-0.3,0.6-0.6,1.2-1,1.7h2.3v4.9h-3.8v1.1h4.9v0.8h-4.9v2.3h-0.9
				v-2.3H44v-0.8h4.9v-1.1h-3.6v-4.9H50.5z M49.1-38.6v-1.3h-2.9v1.3H49.1z M49.1-37.8h-2.9v1.3h2.9V-37.8z M48.6-41l-0.7,0.4
				c-0.4-0.6-0.7-1.1-1.1-1.5l0.7-0.3C47.8-42.1,48.2-41.6,48.6-41z M49.9-38.6h2.9v-1.3h-2.9V-38.6z M52.8-37.8h-2.9v1.3h2.9V-37.8
				z"/>
			<path class="st8" d="M61.1-41.4v-1.1h0.8v1.1h4.5v0.8h-3.7c0.9,0.9,2.3,1.6,4.2,2.1l-0.4,0.8c-2.2-0.7-3.7-1.7-4.6-2.9h-0.1v2.2
				H61v-2.2h-0.1c-0.9,1.2-2.5,2.1-4.6,2.9l-0.5-0.8c1.9-0.6,3.3-1.3,4.3-2.1h-3.7v-0.8H61.1z M66.7-32.7v0.8H56.4v-0.8H66.7z
				 M65.1-38v4.4h-7.2V-38H65.1z M64.3-36.2v-1.1h-5.5v1.1H64.3z M64.3-35.4h-5.5v1.1h5.5V-35.4z"/>
			<path class="st8" d="M70.6-38.8v5.3c0.4-0.3,0.8-0.7,1.2-1.2l0.2,0.9c-0.7,0.7-1.4,1.3-2.2,1.8l-0.3-0.8c0.2-0.2,0.3-0.3,0.3-0.5
				v-4.8H68v-0.8L70.6-38.8L70.6-38.8z M71.5-40.5l-0.6,0.6c-0.5-0.6-1.2-1.2-2-1.9l0.6-0.6C70.2-41.8,70.9-41.2,71.5-40.5z
				 M74.2-42.4c-0.1,0.4-0.2,0.8-0.4,1.2h4.7c0,4.4-0.1,7.1-0.2,8.1s-0.7,1.5-1.7,1.5c-0.2,0-0.6,0-1.1,0l-0.2-0.8
				c0.5,0,0.9,0,1.2,0c0.6,0,0.9-0.4,1-1.1c0.1-0.8,0.1-3.1,0.2-7h-4.2c-0.4,0.8-0.9,1.5-1.6,2.1L71.3-39c1-1,1.7-2.2,2-3.6
				L74.2-42.4z M76.2-39v5.5h-3.7V-39H76.2z M75.4-36.6v-1.6h-2v1.6H75.4z M75.4-35.9h-2v1.7h2V-35.9z"/>
			<path class="st8" d="M83-33.2c0.4,0.4,0.7,0.8,1,1.2l-0.6,0.5c-0.3-0.4-0.6-0.8-1-1.2c-0.4-0.5-0.9-0.9-1.3-1.2l0.5-0.5
				C82-34.1,82.5-33.7,83-33.2z"/>
			<path class="st8" d="M96.3-38.9c0.2-0.3,0.4-0.6,0.5-1c-1.1,0-2.2,0.1-3.3,0.1l-0.1-0.8c0.8-0.2,1.8-0.9,3-2.1l0.8,0.3
				c-0.7,0.7-1.4,1.3-2.1,1.7c1.6,0,3.1-0.1,4.6-0.2c-0.3-0.3-0.7-0.6-1.1-0.9l0.7-0.4c1.2,0.9,2.1,1.7,2.7,2.4l-0.7,0.5
				c-0.2-0.3-0.5-0.6-0.8-0.9c-0.9,0-1.8,0.1-2.7,0.2c-0.1,0.3-0.3,0.7-0.5,1h5.5v0.8h-3c0.7,0.7,1.8,1.3,3.3,1.7l-0.4,0.8
				c-1.8-0.6-3.1-1.5-3.8-2.5h-2.2c-0.9,1-2.3,1.9-4.2,2.6l-0.4-0.8c1.5-0.4,2.7-1,3.5-1.8h-3.3v-0.7H96.3z M101.4-35.5
				c-1.1,2-3.5,3.3-7.2,4.1l-0.5-0.7c3.6-0.8,5.9-2,6.9-3.8L101.4-35.5z M99.7-36.2c-1.4,1.6-3.2,2.6-5.3,3l-0.5-0.7
				c2.2-0.4,3.9-1.3,5.2-2.8L99.7-36.2z M98.2-37.2c-0.8,1-2.1,1.8-3.7,2.4l-0.4-0.7c1.6-0.5,2.7-1.2,3.4-2.1L98.2-37.2z"/>
			<path class="st8" d="M107.1-36.8c-0.1,0.2-0.2,0.4-0.2,0.7h2.5v0.7c-0.3,0.8-0.7,1.5-1.3,2.1c0.6,0.3,1.1,0.5,1.7,0.8l-0.5,0.7
				c-0.5-0.3-1.1-0.6-1.8-0.9c-0.8,0.6-1.8,1-3,1.3l-0.4-0.7c1-0.3,1.8-0.6,2.5-1c-0.5-0.2-1.1-0.5-1.7-0.7c0.3-0.5,0.6-1,0.8-1.5
				h-1.4V-36h1.8c0.1-0.3,0.2-0.5,0.3-0.8L107.1-36.8z M106.6-40.2v-2.3h0.8v2.3h2.2v0.8h-2.2v0.1c0.6,0.3,1.3,0.7,2,1.1l-0.4,0.7
				c-0.6-0.5-1.1-0.9-1.5-1.2v1.6h-0.8v-2.3c-0.4,0.9-1.1,1.8-2.1,2.5l-0.4-0.7c0.9-0.5,1.6-1.1,1.9-1.8h-1.8v-0.8
				C104.3-40.2,106.6-40.2,106.6-40.2z M106-40.8l-0.6,0.3c-0.3-0.6-0.5-1.1-0.8-1.6l0.7-0.2C105.5-41.8,105.8-41.2,106-40.8z
				 M108.6-35.4h-2.1c-0.2,0.4-0.4,0.8-0.6,1.2c0.5,0.2,0.9,0.3,1.4,0.5C107.9-34.2,108.3-34.8,108.6-35.4z M109.5-42
				c-0.2,0.5-0.5,1-0.9,1.5l-0.6-0.3c0.4-0.5,0.7-1,0.9-1.5L109.5-42z M110.8-37.9c-0.2,0.6-0.5,1-0.7,1.5l-0.5-0.7
				c0.7-1.3,1.2-3.2,1.4-5.4l0.8,0.1c-0.1,0.6-0.2,1.2-0.3,1.7h3.2v0.8h-0.8c-0.1,2-0.4,3.7-1.1,5.1c0.6,1.1,1.4,1.9,2.2,2.5
				l-0.5,0.7c-0.8-0.6-1.6-1.4-2.2-2.4c-0.6,1-1.3,1.8-2.2,2.4l-0.4-0.7c0.9-0.6,1.7-1.5,2.2-2.5C111.5-35.7,111.1-36.7,110.8-37.9z
				 M111.2-39.2c0.3,1.4,0.7,2.6,1.2,3.6c0.5-1.2,0.7-2.6,0.8-4.2h-1.8L111.2-39.2z"/>
			<path class="st8" d="M121.6-42v0.8H120v1.4h1.4v8.2h-0.8v-0.6h-3.4v0.6h-0.8v-8.2h1.3v-1.4h-1.6V-42H121.6z M117.2-39v4h3.4v-1
				H120c-0.5,0-0.8-0.3-0.8-0.8V-39h-0.8v0.8c0,1.3-0.3,2.2-0.8,2.8l-0.5-0.4c0.4-0.5,0.6-1.3,0.7-2.4v-0.8
				C117.8-39,117.2-39,117.2-39z M120.6-33v-1.2h-3.4v1.2H120.6z M119.3-39.8v-1.4h-0.8v1.4H119.3z M120.6-39h-0.8v2
				c0,0.2,0.1,0.3,0.3,0.3h0.5V-39z M126.5-32.2c-0.2,0.4-0.6,0.6-1.1,0.6H123c-0.6,0-0.9-0.4-0.9-1.1v-5.1h3.3v-3.2h-3.5v-0.8h4.3
				v4.9h-3.3v3.9c0,0.4,0.1,0.6,0.4,0.6h1.9c0.3,0,0.6-0.2,0.6-0.5c0.1-0.3,0.2-1,0.2-1.9l0.9,0.3C126.9-33.5,126.7-32.7,126.5-32.2
				z"/>
			<path class="st8" d="M133-39.1l0.1-0.7h-3.9v-2.2h8.7v2.2H134l-0.1,0.7h4.8v0.7h-4.9c0,0.2-0.1,0.5-0.1,0.7h3.5v5.3h1.7v0.7
				h-10.7v-0.7h1.7v-5.3h2.9c0-0.2,0.1-0.5,0.1-0.7h-4.6v-0.7H133z M131.8-41.4H130v1h1.8V-41.4z M136.3-36.4v-0.8h-5.6v0.8H136.3z
				 M136.3-35.1v-0.8h-5.6v0.8H136.3z M136.3-33.8v-0.8h-5.6v0.8H136.3z M136.3-32.5v-0.8h-5.6v0.8H136.3z M134.4-41.4h-1.9v1h1.9
				V-41.4z M137-41.4h-1.8v1h1.8L137-41.4L137-41.4z"/>
			<path class="st8" d="M145.1-39v-0.8h0.9v0.8h3.5v0.8H146v1.2h4.9v0.8h-2.3v1.2h1.8v0.8h-1.8v1.9c0,0.7-0.4,1-1.1,1h-1.7l-0.2-0.8
				c0.6,0,1.1,0.1,1.6,0.1c0.3,0,0.5-0.2,0.5-0.4v-1.7h-6.8v-0.8h6.8v-1.2h-7.5v-0.8h4.9v-1.2h-3.6v-0.8L145.1-39L145.1-39z
				 M140.9-39.4l-0.7-0.5c0.7-0.8,1.2-1.7,1.5-2.7l0.8,0.2c-0.1,0.3-0.2,0.5-0.3,0.8h3.1v0.7h-2c0.3,0.4,0.6,0.8,0.8,1.2l-0.8,0.3
				c-0.2-0.5-0.5-1-0.9-1.5h-0.5C141.6-40.4,141.3-39.8,140.9-39.4z M144.4-32.4l-0.7,0.5c-0.4-0.5-0.9-1.1-1.5-1.7l0.7-0.4
				C143.5-33.4,144-32.9,144.4-32.4z M146.1-39.8l-0.7-0.5c0.5-0.7,0.9-1.5,1.1-2.3l0.8,0.2c-0.1,0.3-0.2,0.5-0.2,0.7h3.5v0.7h-2.2
				c0.3,0.4,0.6,0.8,0.8,1.2l-0.7,0.3c-0.3-0.5-0.6-1-0.9-1.5h-0.7C146.6-40.5,146.4-40.2,146.1-39.8z"/>
			<path class="st8" d="M152.8-31.5l-0.6-0.6c0.5-1.1,0.7-2.5,0.7-4.2v-5.8h3.5v9.4c0,0.7-0.3,1.1-1,1.1h-1l-0.2-0.8
				c0.3,0,0.6,0,0.9,0c0.3,0,0.5-0.2,0.5-0.6v-2.7h-1.9C153.6-33.9,153.3-32.6,152.8-31.5z M155.6-41.2h-1.9v2h1.9V-41.2z
				 M153.7-36.4h1.9v-2h-1.9V-36.4z M158.2-31.5h-0.8V-42h4.9c0,1.5-0.1,2.5-0.2,3c-0.1,0.5-0.6,0.7-1.3,0.7h-1l-0.2-0.7
				c0.2,0,0.5,0,0.8,0s0.5,0,0.6-0.1c0.1,0,0.3-0.2,0.3-0.3c0.1-0.3,0.1-0.9,0.2-1.8h-3.2v3.6h4.1v0.7c-0.2,1.2-0.6,2.3-1.2,3.2
				c0.5,0.5,1.2,1,1.9,1.4l-0.4,0.7c-0.8-0.4-1.4-0.9-2-1.5c-0.5,0.6-1.1,1.1-1.9,1.5l-0.5-0.7c0.7-0.4,1.3-0.8,1.7-1.4
				c-0.8-0.9-1.3-2-1.5-3.2h-0.3L158.2-31.5L158.2-31.5z M160.6-34.2c0.4-0.7,0.8-1.5,1-2.5h-2.3C159.5-35.9,159.9-35.1,160.6-34.2z
				"/>
			<path class="st8" d="M168.5-42.4c-0.1,0.3-0.3,0.6-0.5,0.9h5.2v0.7c-0.8,0.9-1.7,1.6-2.8,2.3c1.4,0.6,2.9,0.9,4.5,1.1l-0.4,0.8
				c-1.9-0.2-3.6-0.7-5.1-1.4c-1.5,0.7-3.2,1.2-5.1,1.5l-0.4-0.8c1.7-0.2,3.3-0.6,4.6-1.2c-0.7-0.4-1.3-0.9-1.9-1.4
				c-0.5,0.4-0.9,0.8-1.5,1.1l-0.5-0.7c1.4-0.8,2.4-1.8,2.9-3L168.5-42.4z M169.6-37.2c0,0.5,0,0.9-0.1,1.4h4.2c0,2-0.2,3.2-0.6,3.6
				c-0.4,0.4-0.9,0.6-1.8,0.6c-0.4,0-0.9,0-1.4,0l-0.2-0.8l1.4,0.1c0.7,0,1.2-0.2,1.4-0.5s0.3-1,0.3-2.2h-3.5
				c-0.1,0.3-0.2,0.6-0.4,0.9c-0.6,1.1-2,2-4.2,2.7l-0.6-0.7c2-0.6,3.3-1.3,3.9-2.2c0.1-0.2,0.3-0.4,0.4-0.7h-3.6v-0.8h3.8
				c0.1-0.4,0.1-0.9,0.1-1.4C168.7-37.2,169.6-37.2,169.6-37.2z M172-40.7h-4.6l-0.2,0.2c0.7,0.6,1.4,1.1,2.2,1.5
				C170.5-39.5,171.3-40.1,172-40.7z"/>
		</g>
	</g>
</g>
<g id="assistantgroup" transform="translate(0,0)">
</g>
</svg>
