<?xml version="1.0" encoding="UTF-8"?>
<svg width="830px" height="294px" viewBox="0 0 830 294" version="1.1" xmlns="http://www.w3.org/2000/svg" xmlns:xlink="http://www.w3.org/1999/xlink">
    <!-- Generator: Sketch 54.1 (76490) - https://sketchapp.com -->
    <title>代码评审</title>
    <desc>Created with Sketch.</desc>
    <defs>
        <rect id="path-1" x="0" y="0" width="138" height="50"></rect>
        <filter x="-1.4%" y="-2.0%" width="102.9%" height="108.0%" filterUnits="objectBoundingBox" id="filter-2">
            <feOffset dx="0" dy="1" in="SourceAlpha" result="shadowOffsetOuter1"></feOffset>
            <feGaussianBlur stdDeviation="0.5" in="shadowOffsetOuter1" result="shadowBlurOuter1"></feGaussianBlur>
            <feColorMatrix values="0 0 0 0 0   0 0 0 0 0   0 0 0 0 0  0 0 0 0.35 0" type="matrix" in="shadowBlurOuter1"></feColorMatrix>
        </filter>
        <rect id="path-3" x="0" y="0" width="160" height="50"></rect>
        <filter x="-1.2%" y="-2.0%" width="102.5%" height="108.0%" filterUnits="objectBoundingBox" id="filter-4">
            <feOffset dx="0" dy="1" in="SourceAlpha" result="shadowOffsetOuter1"></feOffset>
            <feGaussianBlur stdDeviation="0.5" in="shadowOffsetOuter1" result="shadowBlurOuter1"></feGaussianBlur>
            <feColorMatrix values="0 0 0 0 0   0 0 0 0 0   0 0 0 0 0  0 0 0 0.35 0" type="matrix" in="shadowBlurOuter1"></feColorMatrix>
        </filter>
        <path d="M74.704,20.228 L74.704,31.386 L73.682,31.386 L73.682,30.518 L66.318,30.518 L66.318,31.386 L65.296,31.386 L65.296,20.228 L68.292,20.228 C68.6,19.668 68.838,19.108 68.978,18.52 L70,18.66 C69.846,19.22 69.622,19.752 69.342,20.228 L74.704,20.228 Z M66.318,29.552 L73.682,29.552 L73.682,27.27 L66.318,27.27 L66.318,29.552 Z M66.318,26.346 L73.682,26.346 L73.682,24.204 L66.318,24.204 L66.318,26.346 Z M66.318,23.28 L73.682,23.28 L73.682,21.194 L66.318,21.194 L66.318,23.28 Z M78.26,19.542 L83.328,19.542 L83.328,20.508 L78.26,20.508 L78.26,19.542 Z M77.714,23.322 L83.86,23.322 L83.86,24.302 L80.626,24.302 C80.066,26.43 79.576,27.942 79.156,28.866 C80.262,28.642 81.368,28.32 82.46,27.914 C82.096,27.158 81.746,26.472 81.382,25.828 L82.236,25.408 C82.908,26.612 83.538,27.914 84.126,29.328 L83.258,29.776 C83.118,29.412 82.978,29.076 82.838,28.754 C81.354,29.286 79.73,29.706 77.994,30.014 L77.756,29.062 C77.854,29.034 77.924,29.006 77.98,28.978 C78.4,28.404 78.96,26.85 79.66,24.302 L77.714,24.302 L77.714,23.322 Z M85.96,18.604 L86.968,18.604 L86.968,21.432 L90.02,21.432 C90.02,25.814 89.95,28.516 89.824,29.552 C89.684,30.686 88.998,31.26 87.794,31.26 C87.556,31.26 87.15,31.246 86.562,31.218 L86.338,30.322 C86.842,30.35 87.29,30.378 87.668,30.378 C88.354,30.378 88.76,29.972 88.872,29.174 C88.956,28.432 89.012,26.178 89.04,22.412 L86.968,22.412 L86.968,22.58 C86.926,26.612 85.946,29.566 84.042,31.428 L83.286,30.77 C85.036,29.076 85.932,26.346 85.96,22.58 L85.96,22.412 L84.07,22.412 L84.07,21.432 L85.96,21.432 L85.96,18.604 Z M95.858,18.464 L96.796,18.898 C96.306,20.074 95.676,21.166 94.92,22.202 L94.92,31.428 L93.912,31.428 L93.912,23.434 C93.282,24.12 92.596,24.778 91.854,25.394 L91.532,24.344 C93.52,22.636 94.962,20.676 95.858,18.464 Z M102.312,31.176 L99.638,31.176 C98.658,31.176 98.168,30.672 98.168,29.692 L98.168,25.422 C97.58,25.758 96.978,26.066 96.362,26.36 L95.914,25.408 C96.698,25.044 97.454,24.666 98.168,24.246 L98.168,18.632 L99.176,18.632 L99.176,23.63 C100.646,22.65 101.934,21.53 103.04,20.284 L103.74,21.082 C102.438,22.482 100.912,23.728 99.176,24.82 L99.176,29.552 C99.176,29.986 99.4,30.21 99.876,30.21 L102.144,30.21 C102.508,30.21 102.788,30.084 102.956,29.86 C103.11,29.636 103.208,28.824 103.264,27.438 L104.202,27.746 C104.104,29.356 103.936,30.336 103.698,30.672 C103.446,31.008 102.984,31.176 102.312,31.176 Z M105.84,21.306 L107.59,21.306 L107.59,18.576 L108.584,18.576 L108.584,21.306 L110.026,21.306 L110.026,22.272 L108.584,22.272 L108.584,22.986 C109.144,23.602 109.718,24.302 110.306,25.086 L109.732,25.94 C109.284,25.142 108.906,24.484 108.584,23.98 L108.584,31.33 L107.59,31.33 L107.59,24.456 C107.142,25.856 106.582,27.116 105.882,28.264 L105.448,27.158 C106.428,25.73 107.142,24.106 107.562,22.272 L105.84,22.272 L105.84,21.306 Z M112.084,22.65 C111.552,23.21 111.006,23.686 110.418,24.106 L109.872,23.252 C111.524,22.062 112.812,20.508 113.708,18.59 L114.632,18.59 C115.388,20.354 116.676,21.894 118.51,23.224 L117.964,24.078 C117.362,23.644 116.816,23.182 116.34,22.692 L116.34,23.546 L112.084,23.546 L112.084,22.65 Z M116.27,22.622 C115.388,21.712 114.688,20.704 114.17,19.584 C113.554,20.774 112.868,21.782 112.112,22.622 L116.27,22.622 Z M110.194,30 L115.038,30 C115.612,28.502 116.116,26.668 116.55,24.484 L117.516,24.736 C117.124,26.71 116.62,28.46 116.032,30 L118.216,30 L118.216,30.98 L110.194,30.98 L110.194,30 Z M111.762,24.862 C112.154,26.038 112.49,27.396 112.784,28.936 L111.902,29.174 C111.622,27.774 111.286,26.444 110.894,25.156 L111.762,24.862 Z M113.918,24.358 C114.282,25.492 114.604,26.794 114.884,28.264 L113.96,28.502 C113.722,27.158 113.414,25.87 113.05,24.638 L113.918,24.358 Z M121.842,23.812 L130.214,23.812 L130.214,28.964 L121.842,28.964 L121.842,23.812 Z M129.234,28.068 L129.234,26.836 L122.822,26.836 L122.822,28.068 L129.234,28.068 Z M122.822,25.982 L129.234,25.982 L129.234,24.708 L122.822,24.708 L122.822,25.982 Z M120.274,19.822 L125.538,19.822 L125.538,18.534 L126.518,18.534 L126.518,19.822 L131.782,19.822 L131.782,20.746 L127.484,20.746 C128.534,21.768 130.158,22.58 132.37,23.168 L131.936,24.078 C129.416,23.224 127.638,22.118 126.602,20.746 L126.518,20.746 L126.518,23.364 L125.538,23.364 L125.538,20.746 L125.454,20.746 C124.362,22.09 122.584,23.21 120.134,24.092 L119.602,23.196 C121.842,22.552 123.508,21.726 124.6,20.746 L120.274,20.746 L120.274,19.822 Z M119.994,30.056 L132.02,30.056 L132.02,30.994 L119.994,30.994 L119.994,30.056 Z" id="path-5"></path>
        <rect id="path-6" x="0" y="-7.10542736e-15" width="160" height="50"></rect>
        <filter x="-1.2%" y="-2.0%" width="102.5%" height="108.0%" filterUnits="objectBoundingBox" id="filter-7">
            <feOffset dx="0" dy="1" in="SourceAlpha" result="shadowOffsetOuter1"></feOffset>
            <feGaussianBlur stdDeviation="0.5" in="shadowOffsetOuter1" result="shadowBlurOuter1"></feGaussianBlur>
            <feColorMatrix values="0 0 0 0 0   0 0 0 0 0   0 0 0 0 0  0 0 0 0.35 0" type="matrix" in="shadowBlurOuter1"></feColorMatrix>
        </filter>
        <path d="M78.7620188,18.548 L79.4900188,18.548 C81.2680188,20.606 83.3260188,22.23 85.6500188,23.406 L85.1040188,24.372 C82.7660188,23.112 80.7780188,21.474 79.1260188,19.458 C77.6000188,21.362 75.5840188,23 73.0920188,24.4 L72.5600188,23.434 C75.0520188,22.118 77.1100188,20.494 78.7620188,18.548 Z M83.5500188,25.744 L83.5500188,31.386 L82.5700188,31.386 L82.5700188,30.546 L75.6820188,30.546 L75.6820188,31.386 L74.7020188,31.386 L74.7020188,25.744 L83.5500188,25.744 Z M75.6820188,29.58 L82.5700188,29.58 L82.5700188,26.696 L75.6820188,26.696 L75.6820188,29.58 Z M75.4860188,23 L82.7660188,23 L82.7660188,23.966 L75.4860188,23.966 L75.4860188,23 Z M90.3680188,18.408 C90.8300188,19.108 91.2780188,19.878 91.6980188,20.718 L90.7880188,21.166 C90.3680188,20.298 89.9200188,19.528 89.4440188,18.856 L90.3680188,18.408 Z M95.0440188,22.174 L91.4460188,22.174 L91.4460188,23.532 C91.4320188,24.232 91.3900188,24.876 91.3200188,25.464 L95.0440188,25.464 L95.0440188,22.174 Z M95.0440188,26.43 L91.1800188,26.43 C91.0120188,27.298 90.7740188,28.04 90.4800188,28.67 C89.8920188,29.86 88.9400188,30.784 87.6100188,31.442 L87.0220188,30.518 C88.2820188,29.874 89.1780188,29.006 89.6820188,27.914 C89.8640188,27.466 90.0180188,26.976 90.1300188,26.43 L86.8960188,26.43 L86.8960188,25.464 L90.2840188,25.464 C90.3680188,24.862 90.4100188,24.218 90.4240188,23.532 L90.4240188,22.174 L87.4700188,22.174 L87.4700188,21.208 L94.5400188,21.208 C95.0720188,20.34 95.5200188,19.402 95.9120188,18.408 L96.9900188,18.8 C96.5980188,19.696 96.1640188,20.508 95.6880188,21.208 L98.8240188,21.208 L98.8240188,22.174 L96.0800188,22.174 L96.0800188,25.464 L99.3700188,25.464 L99.3700188,26.43 L96.0800188,26.43 L96.0800188,31.33 L95.0440188,31.33 L95.0440188,26.43 Z M108.722019,18.562 L109.688019,18.562 L109.688019,19.472 L113.160019,19.472 L113.160019,20.298 L109.688019,20.298 L109.688019,21.236 L112.656019,21.236 L112.656019,22.048 L109.688019,22.048 L109.688019,23 L113.510019,23 L113.510019,23.84 L104.942019,23.84 L104.942019,23 L108.722019,23 L108.722019,22.048 L105.894019,22.048 L105.894019,21.236 L108.722019,21.236 L108.722019,20.298 L105.334019,20.298 L105.334019,19.472 L108.722019,19.472 L108.722019,18.562 Z M106.972019,27.368 L106.972019,28.39 L111.494019,28.39 L111.494019,27.368 L106.972019,27.368 Z M111.494019,26.584 L111.494019,25.548 L106.972019,25.548 L106.972019,26.584 L111.494019,26.584 Z M106.972019,29.174 L106.972019,31.4 L106.006019,31.4 L106.006019,24.722 L112.460019,24.722 L112.460019,30.182 C112.460019,30.938 112.054019,31.316 111.270019,31.316 L110.094019,31.316 L109.856019,30.42 L110.976019,30.462 C111.312019,30.462 111.494019,30.294 111.494019,29.972 L111.494019,29.174 L106.972019,29.174 Z M102.408019,18.716 C103.346019,19.416 104.130019,20.13 104.774019,20.844 L104.088019,21.544 C103.500019,20.872 102.702019,20.158 101.694019,19.402 L102.408019,18.716 Z M100.714019,22.846 L103.682019,22.846 L103.682019,28.992 C104.102019,28.6 104.536019,28.166 105.012019,27.676 L105.278019,28.74 C104.494019,29.552 103.654019,30.28 102.786019,30.91 L102.394019,30.014 C102.604019,29.818 102.716019,29.608 102.716019,29.37 L102.716019,23.812 L100.714019,23.812 L100.714019,22.846 Z M115.134019,21.138 L120.706019,21.138 L120.706019,18.52 L121.742019,18.52 L121.742019,21.138 L124.906019,21.138 C124.388019,20.536 123.702019,19.906 122.862019,19.234 L123.520019,18.618 C124.360019,19.234 125.060019,19.864 125.620019,20.48 L124.962019,21.138 L127.090019,21.138 L127.090019,22.104 L121.742019,22.104 L121.742019,22.916 C122.120019,23.77 122.582019,24.582 123.128019,25.338 C124.122019,24.582 124.976019,23.728 125.690019,22.776 L126.432019,23.434 C125.662019,24.428 124.738019,25.296 123.660019,26.038 C124.710019,27.34 126.012019,28.488 127.552019,29.468 L126.852019,30.294 C124.584019,28.726 122.890019,26.822 121.742019,24.568 L121.742019,30.014 C121.742019,30.882 121.322019,31.316 120.482019,31.316 L118.592019,31.316 L118.382019,30.35 C118.998019,30.392 119.572019,30.42 120.132019,30.42 C120.510019,30.42 120.706019,30.196 120.706019,29.762 L120.706019,25.94 C119.236019,27.732 117.514019,29.244 115.540019,30.448 L114.994019,29.538 C117.150019,28.362 119.054019,26.766 120.706019,24.722 L120.706019,22.104 L115.134019,22.104 L115.134019,21.138 Z M116.492019,23.07 C117.444019,23.91 118.242019,24.764 118.886019,25.604 L118.186019,26.29 C117.612019,25.492 116.814019,24.638 115.792019,23.728 L116.492019,23.07 Z" id="path-8"></path>
        <rect id="path-9" x="0" y="0" width="160" height="50"></rect>
        <filter x="-1.2%" y="-2.0%" width="102.5%" height="108.0%" filterUnits="objectBoundingBox" id="filter-10">
            <feOffset dx="0" dy="1" in="SourceAlpha" result="shadowOffsetOuter1"></feOffset>
            <feGaussianBlur stdDeviation="0.5" in="shadowOffsetOuter1" result="shadowBlurOuter1"></feGaussianBlur>
            <feColorMatrix values="0 0 0 0 0   0 0 0 0 0   0 0 0 0 0  0 0 0 0.35 0" type="matrix" in="shadowBlurOuter1"></feColorMatrix>
        </filter>
        <path d="M57.568,19.402 L68.474,19.402 L68.474,20.382 L66.136,20.382 L66.136,24.092 L69.202,24.092 L69.202,25.058 L66.136,25.058 L66.136,31.26 L65.114,31.26 L65.114,25.058 L61.068,25.058 C60.942,26.5 60.676,27.69 60.256,28.642 C59.724,29.818 58.842,30.728 57.61,31.372 L57.064,30.504 C58.198,29.86 58.996,29.006 59.444,27.942 C59.738,27.13 59.934,26.178 60.046,25.058 L56.812,25.058 L56.812,24.092 L60.102,24.092 C60.102,23.91 60.116,23.742 60.116,23.602 L60.116,20.382 L57.568,20.382 L57.568,19.402 Z M61.152,20.382 L61.152,23.602 C61.152,23.77 61.138,23.938 61.138,24.092 L65.114,24.092 L65.114,20.382 L61.152,20.382 Z M71.624,22.86 L72.73,18.968 L73.724,19.136 L72.926,21.894 L75.376,21.894 C75.656,20.802 75.88,19.668 76.048,18.464 L77.07,18.59 C76.888,19.766 76.664,20.858 76.412,21.894 L82.964,21.894 L82.964,22.86 L76.146,22.86 C75.978,23.42 75.81,23.952 75.614,24.456 L81.34,24.456 L81.34,25.324 C80.962,26.528 80.206,27.62 79.058,28.6 C80.192,29.272 81.578,29.888 83.202,30.448 L82.684,31.386 C80.892,30.728 79.408,30.014 78.232,29.244 C77.084,30.056 75.656,30.784 73.962,31.442 L73.43,30.504 C74.998,29.93 76.3,29.3 77.35,28.614 C76.258,27.774 75.488,26.864 75.026,25.884 C74.004,28.096 72.688,29.846 71.092,31.148 L70.574,30.224 C72.618,28.432 74.116,25.982 75.096,22.86 L71.624,22.86 Z M75.782,25.38 C76.258,26.332 77.056,27.214 78.176,28.026 C79.212,27.214 79.926,26.332 80.318,25.38 L75.782,25.38 Z M79.422,18.576 C80.43,19.346 81.256,20.116 81.928,20.886 L81.214,21.6 C80.626,20.858 79.8,20.074 78.75,19.234 L79.422,18.576 Z M86.044,20.018 L89.88,20.018 L89.88,18.534 L90.916,18.534 L90.916,20.018 L94.22,20.018 L94.22,20.956 L90.916,20.956 L90.916,22.622 L92.68,22.622 C93.996,21.684 95.158,20.62 96.152,19.444 L96.922,20.004 C96.096,20.984 95.214,21.866 94.276,22.622 L97.272,22.622 L97.272,23.574 L93.002,23.574 C92.792,23.714 92.582,23.84 92.372,23.98 C91.728,24.372 90.986,24.75 90.174,25.128 L95.466,25.128 L95.466,31.428 L94.458,31.428 L94.458,30.798 L88.396,30.798 L88.396,31.428 L87.374,31.428 L87.374,26.276 C86.618,26.556 85.834,26.822 85.022,27.088 L84.602,26.15 C86.996,25.59 89.18,24.722 91.168,23.574 L84.798,23.574 L84.798,22.622 L89.88,22.622 L89.88,20.956 L86.044,20.956 L86.044,20.018 Z M88.396,28.376 L88.396,29.902 L94.458,29.902 L94.458,28.376 L88.396,28.376 Z M94.458,27.48 L94.458,26.01 L88.396,26.01 L88.396,27.48 L94.458,27.48 Z M103.67,20.004 L104.804,20.004 L104.804,29.006 L110.586,29.006 L110.586,30 L103.67,30 L103.67,20.004 Z M114.744,22.566 C115.906,22.566 116.788,22.958 117.376,23.742 C117.908,24.442 118.188,25.436 118.216,26.696 L112.504,26.696 C112.56,27.508 112.77,28.138 113.162,28.586 C113.554,29.034 114.1,29.258 114.786,29.258 C115.374,29.258 115.864,29.104 116.228,28.81 C116.536,28.558 116.774,28.18 116.956,27.676 L118.076,27.676 C117.908,28.376 117.586,28.936 117.096,29.384 C116.494,29.916 115.724,30.196 114.786,30.196 C113.75,30.196 112.91,29.846 112.294,29.174 C111.65,28.474 111.342,27.55 111.342,26.374 C111.342,25.31 111.636,24.414 112.252,23.7 C112.868,22.944 113.694,22.566 114.744,22.566 Z M114.772,23.504 C114.128,23.504 113.61,23.714 113.218,24.134 C112.826,24.554 112.602,25.114 112.532,25.828 L117.054,25.828 C116.914,24.274 116.144,23.504 114.772,23.504 Z M122.682,22.566 C123.718,22.566 124.474,22.832 124.978,23.378 C125.398,23.854 125.622,24.512 125.622,25.352 L125.622,30 L124.572,30 L124.572,28.782 C124.292,29.174 123.914,29.496 123.466,29.748 C122.934,30.042 122.332,30.196 121.66,30.196 C120.932,30.196 120.358,30.014 119.924,29.65 C119.476,29.272 119.252,28.782 119.252,28.194 C119.252,27.368 119.574,26.752 120.246,26.332 C120.834,25.94 121.674,25.73 122.766,25.716 L124.502,25.688 L124.502,25.31 C124.502,24.092 123.872,23.49 122.612,23.49 C122.08,23.49 121.646,23.588 121.31,23.812 C120.932,24.036 120.694,24.386 120.582,24.848 L119.476,24.764 C119.63,24.008 120.008,23.434 120.596,23.07 C121.128,22.734 121.814,22.566 122.682,22.566 Z M124.502,26.528 L122.836,26.556 C121.212,26.584 120.4,27.116 120.4,28.166 C120.4,28.502 120.526,28.768 120.806,28.992 C121.086,29.202 121.45,29.314 121.898,29.314 C122.584,29.314 123.186,29.09 123.718,28.642 C124.236,28.208 124.502,27.704 124.502,27.144 L124.502,26.528 Z M132.706,19.808 L133.826,19.808 L133.826,30 L132.776,30 L132.776,28.81 C132.272,29.734 131.46,30.196 130.368,30.196 C129.304,30.196 128.478,29.804 127.89,29.048 C127.344,28.348 127.078,27.452 127.078,26.36 C127.078,25.296 127.344,24.428 127.89,23.728 C128.478,22.944 129.276,22.566 130.312,22.566 C131.348,22.566 132.146,23.07 132.706,24.092 L132.706,19.808 Z M130.55,23.49 C129.752,23.49 129.15,23.77 128.758,24.33 C128.394,24.82 128.226,25.492 128.226,26.36 C128.226,27.228 128.394,27.914 128.744,28.418 C129.136,28.978 129.724,29.272 130.508,29.272 C131.236,29.272 131.796,28.992 132.202,28.432 C132.552,27.928 132.734,27.27 132.734,26.458 L132.734,26.318 C132.734,25.478 132.524,24.792 132.132,24.274 C131.726,23.742 131.194,23.49 130.55,23.49 Z M138.544,22.566 C139.706,22.566 140.588,22.958 141.176,23.742 C141.708,24.442 141.988,25.436 142.016,26.696 L136.304,26.696 C136.36,27.508 136.57,28.138 136.962,28.586 C137.354,29.034 137.9,29.258 138.586,29.258 C139.174,29.258 139.664,29.104 140.028,28.81 C140.336,28.558 140.574,28.18 140.756,27.676 L141.876,27.676 C141.708,28.376 141.386,28.936 140.896,29.384 C140.294,29.916 139.524,30.196 138.586,30.196 C137.55,30.196 136.71,29.846 136.094,29.174 C135.45,28.474 135.142,27.55 135.142,26.374 C135.142,25.31 135.436,24.414 136.052,23.7 C136.668,22.944 137.494,22.566 138.544,22.566 Z M138.572,23.504 C137.928,23.504 137.41,23.714 137.018,24.134 C136.626,24.554 136.402,25.114 136.332,25.828 L140.854,25.828 C140.714,24.274 139.944,23.504 138.572,23.504 Z M146.51,22.566 C146.902,22.566 147.238,22.622 147.504,22.734 L147.504,23.854 C147.14,23.742 146.776,23.7 146.426,23.7 C145.866,23.7 145.39,23.938 145.012,24.442 C144.62,24.918 144.438,25.492 144.438,26.164 L144.438,30 L143.332,30 L143.332,22.762 L144.438,22.762 L144.438,24.022 C144.634,23.602 144.886,23.266 145.194,23.028 C145.572,22.72 146.006,22.566 146.51,22.566 Z" id="path-11"></path>
        <polygon id="path-12" points="0 0 134 2.22044605e-13 134 50 0 50"></polygon>
        <filter x="-1.5%" y="-2.0%" width="103.0%" height="108.0%" filterUnits="objectBoundingBox" id="filter-13">
            <feOffset dx="0" dy="1" in="SourceAlpha" result="shadowOffsetOuter1"></feOffset>
            <feGaussianBlur stdDeviation="0.5" in="shadowOffsetOuter1" result="shadowBlurOuter1"></feGaussianBlur>
            <feColorMatrix values="0 0 0 0 0   0 0 0 0 0   0 0 0 0 0  0 0 0 0.35 0" type="matrix" in="shadowBlurOuter1"></feColorMatrix>
        </filter>
        <path d="M64.496,21.936 L59.288,21.936 L59.288,20.942 L64.58,20.942 C64.342,20.2 64.048,19.486 63.712,18.8 L64.692,18.534 C65.042,19.332 65.308,20.06 65.504,20.732 L64.958,20.942 L70.726,20.942 L70.726,21.936 L65.518,21.936 L65.518,25.24 L70.054,25.24 L70.054,26.178 L65.518,26.178 L65.518,29.93 L71.216,29.93 L71.216,30.924 L58.798,30.924 L58.798,29.93 L64.496,29.93 L64.496,26.178 L59.96,26.178 L59.96,25.24 L64.496,25.24 L64.496,21.936 Z M73.848,19.304 L84.194,19.304 L84.194,20.256 L79.546,20.256 L79.546,24.204 L85.23,24.204 L85.23,25.184 L79.546,25.184 L79.546,31.386 L78.51,31.386 L78.51,25.184 L72.784,25.184 L72.784,24.204 L78.51,24.204 L78.51,20.256 L73.848,20.256 L73.848,19.304 Z M91.054,18.856 L91.936,19.388 C91.278,20.55 90.62,21.502 89.962,22.244 C89.262,23.056 88.324,23.854 87.162,24.638 L86.616,23.756 C87.568,23.21 88.436,22.496 89.206,21.614 C89.878,20.83 90.494,19.92 91.054,18.856 Z M91.516,25.1 L88.688,25.1 L88.688,24.134 L97.046,24.134 C97.004,25.884 96.92,27.298 96.78,28.376 C96.64,29.44 96.416,30.196 96.094,30.616 C95.786,31.022 95.282,31.246 94.582,31.288 L92.034,31.288 L91.754,30.294 C92.566,30.322 93.336,30.336 94.064,30.336 C94.82,30.336 95.31,30.014 95.548,29.37 C95.8,28.698 95.954,27.284 96.024,25.1 L92.538,25.1 C92.202,26.626 91.74,27.844 91.138,28.74 C90.424,29.748 89.346,30.644 87.918,31.442 L87.274,30.602 C88.562,29.902 89.542,29.132 90.2,28.292 C90.788,27.48 91.222,26.416 91.516,25.1 Z M95.002,18.674 C95.814,20.83 97.256,22.538 99.342,23.784 L98.67,24.582 C96.5,23.182 94.988,21.376 94.134,19.164 L95.002,18.674 Z M106.454,18.562 L107.49,18.562 L107.49,20.396 L112.992,20.396 L112.992,21.376 L107.49,21.376 L107.49,23.518 L111.256,23.518 L111.256,24.414 C110.472,25.982 109.338,27.326 107.854,28.446 C108.554,28.838 109.324,29.216 110.164,29.552 C111.158,29.93 112.222,30.252 113.356,30.532 L112.768,31.414 C111.564,31.092 110.416,30.7 109.338,30.252 C108.484,29.888 107.7,29.482 107,29.034 C105.404,30.042 103.5,30.84 101.274,31.442 L100.7,30.546 C102.828,30.042 104.648,29.342 106.16,28.446 C105.432,27.9 104.788,27.27 104.242,26.57 C103.738,25.926 103.374,25.212 103.15,24.456 L102.072,24.456 L102.072,23.518 L106.454,23.518 L106.454,21.376 L101.008,21.376 L101.008,20.396 L106.454,20.396 L106.454,18.562 Z M106.986,27.9 C108.344,26.948 109.394,25.8 110.122,24.456 L104.144,24.456 C104.396,25.198 104.788,25.856 105.32,26.43 C105.81,26.99 106.37,27.48 106.986,27.9 Z" id="path-14"></path>
        <path d="M120.58,8.232 L121.468,8.232 L121.468,10.032 L125.272,10.032 L125.272,16.74 L124.42,16.74 L124.42,16.008 L121.468,16.008 L121.468,19.152 L120.58,19.152 L120.58,16.008 L117.58,16.008 L117.58,16.824 L116.728,16.824 L116.728,10.032 L120.58,10.032 L120.58,8.232 Z M117.58,15.192 L120.58,15.192 L120.58,13.392 L117.58,13.392 L117.58,15.192 Z M121.468,15.192 L124.42,15.192 L124.42,13.392 L121.468,13.392 L121.468,15.192 Z M117.58,12.612 L120.58,12.612 L120.58,10.836 L117.58,10.836 L117.58,12.612 Z M121.468,12.612 L124.42,12.612 L124.42,10.836 L121.468,10.836 L121.468,12.612 Z M134.368,8.196 L135.196,8.196 L135.196,8.976 L138.172,8.976 L138.172,9.684 L135.196,9.684 L135.196,10.488 L137.74,10.488 L137.74,11.184 L135.196,11.184 L135.196,12 L138.472,12 L138.472,12.72 L131.128,12.72 L131.128,12 L134.368,12 L134.368,11.184 L131.944,11.184 L131.944,10.488 L134.368,10.488 L134.368,9.684 L131.464,9.684 L131.464,8.976 L134.368,8.976 L134.368,8.196 Z M132.868,15.744 L132.868,16.62 L136.744,16.62 L136.744,15.744 L132.868,15.744 Z M136.744,15.072 L136.744,14.184 L132.868,14.184 L132.868,15.072 L136.744,15.072 Z M132.868,17.292 L132.868,19.2 L132.04,19.2 L132.04,13.476 L137.572,13.476 L137.572,18.156 C137.572,18.804 137.224,19.128 136.552,19.128 L135.544,19.128 L135.34,18.36 L136.3,18.396 C136.588,18.396 136.744,18.252 136.744,17.976 L136.744,17.292 L132.868,17.292 Z M128.956,8.328 C129.76,8.928 130.432,9.54 130.984,10.152 L130.396,10.752 C129.892,10.176 129.208,9.564 128.344,8.916 L128.956,8.328 Z M127.504,11.868 L130.048,11.868 L130.048,17.136 C130.408,16.8 130.78,16.428 131.188,16.008 L131.416,16.92 C130.744,17.616 130.024,18.24 129.28,18.78 L128.944,18.012 C129.124,17.844 129.22,17.664 129.22,17.46 L129.22,12.696 L127.504,12.696 L127.504,11.868 Z M144.688,8.184 L145.312,8.184 C146.836,9.948 148.6,11.34 150.592,12.348 L150.124,13.176 C148.12,12.096 146.416,10.692 145,8.964 C143.692,10.596 141.964,12 139.828,13.2 L139.372,12.372 C141.508,11.244 143.272,9.852 144.688,8.184 Z M148.792,14.352 L148.792,19.188 L147.952,19.188 L147.952,18.468 L142.048,18.468 L142.048,19.188 L141.208,19.188 L141.208,14.352 L148.792,14.352 Z M142.048,17.64 L147.952,17.64 L147.952,15.168 L142.048,15.168 L142.048,17.64 Z M141.88,12 L148.12,12 L148.12,12.828 L141.88,12.828 L141.88,12 Z M154.636,8.064 C155.032,8.664 155.416,9.324 155.776,10.044 L154.996,10.428 C154.636,9.684 154.252,9.024 153.844,8.448 L154.636,8.064 Z M158.644,11.292 L155.56,11.292 L155.56,12.456 C155.548,13.056 155.512,13.608 155.452,14.112 L158.644,14.112 L158.644,11.292 Z M158.644,14.94 L155.332,14.94 C155.188,15.684 154.984,16.32 154.732,16.86 C154.228,17.88 153.412,18.672 152.272,19.236 L151.768,18.444 C152.848,17.892 153.616,17.148 154.048,16.212 C154.204,15.828 154.336,15.408 154.432,14.94 L151.66,14.94 L151.66,14.112 L154.564,14.112 C154.636,13.596 154.672,13.044 154.684,12.456 L154.684,11.292 L152.152,11.292 L152.152,10.464 L158.212,10.464 C158.668,9.72 159.052,8.916 159.388,8.064 L160.312,8.4 C159.976,9.168 159.604,9.864 159.196,10.464 L161.884,10.464 L161.884,11.292 L159.532,11.292 L159.532,14.112 L162.352,14.112 L162.352,14.94 L159.532,14.94 L159.532,19.14 L158.644,19.14 L158.644,14.94 Z" id="path-15"></path>
        <path d="M164.72,131.548 L166.22,131.548 L166.22,129.208 L167.072,129.208 L167.072,131.548 L168.308,131.548 L168.308,132.376 L167.072,132.376 L167.072,132.988 C167.552,133.516 168.044,134.116 168.548,134.788 L168.056,135.52 C167.672,134.836 167.348,134.272 167.072,133.84 L167.072,140.14 L166.22,140.14 L166.22,134.248 C165.836,135.448 165.356,136.528 164.756,137.512 L164.384,136.564 C165.224,135.34 165.836,133.948 166.196,132.376 L164.72,132.376 L164.72,131.548 Z M170.072,132.7 C169.616,133.18 169.148,133.588 168.644,133.948 L168.176,133.216 C169.592,132.196 170.696,130.864 171.464,129.22 L172.256,129.22 C172.904,130.732 174.008,132.052 175.58,133.192 L175.112,133.924 C174.596,133.552 174.128,133.156 173.72,132.736 L173.72,133.468 L170.072,133.468 L170.072,132.7 Z M173.66,132.676 C172.904,131.896 172.304,131.032 171.86,130.072 C171.332,131.092 170.744,131.956 170.096,132.676 L173.66,132.676 Z M168.452,139 L172.604,139 C173.096,137.716 173.528,136.144 173.9,134.272 L174.728,134.488 C174.392,136.18 173.96,137.68 173.456,139 L175.328,139 L175.328,139.84 L168.452,139.84 L168.452,139 Z M169.796,134.596 C170.132,135.604 170.42,136.768 170.672,138.088 L169.916,138.292 C169.676,137.092 169.388,135.952 169.052,134.848 L169.796,134.596 Z M171.644,134.164 C171.956,135.136 172.232,136.252 172.472,137.512 L171.68,137.716 C171.476,136.564 171.212,135.46 170.9,134.404 L171.644,134.164 Z M178.436,133.696 L185.612,133.696 L185.612,138.112 L178.436,138.112 L178.436,133.696 Z M184.772,137.344 L184.772,136.288 L179.276,136.288 L179.276,137.344 L184.772,137.344 Z M179.276,135.556 L184.772,135.556 L184.772,134.464 L179.276,134.464 L179.276,135.556 Z M177.092,130.276 L181.604,130.276 L181.604,129.172 L182.444,129.172 L182.444,130.276 L186.956,130.276 L186.956,131.068 L183.272,131.068 C184.172,131.944 185.564,132.64 187.46,133.144 L187.088,133.924 C184.928,133.192 183.404,132.244 182.516,131.068 L182.444,131.068 L182.444,133.312 L181.604,133.312 L181.604,131.068 L181.532,131.068 C180.596,132.22 179.072,133.18 176.972,133.936 L176.516,133.168 C178.436,132.616 179.864,131.908 180.8,131.068 L177.092,131.068 L177.092,130.276 Z M176.852,139.048 L187.16,139.048 L187.16,139.852 L176.852,139.852 L176.852,139.048 Z M190.976,129.448 L191.78,129.76 C191.588,130.312 191.372,130.828 191.144,131.308 L193.568,131.308 L193.568,129.208 L194.456,129.208 L194.456,131.308 L198.476,131.308 L198.476,132.148 L194.456,132.148 L194.456,132.928 C194.432,133.504 194.384,134.044 194.3,134.548 L199.256,134.548 L199.256,135.376 L194.792,135.376 C195.38,137.104 196.928,138.448 199.436,139.408 L198.956,140.164 C196.34,139.036 194.708,137.512 194.06,135.568 C193.832,136.36 193.508,137.044 193.088,137.62 C192.26,138.712 190.904,139.564 189.008,140.176 L188.54,139.444 C190.412,138.82 191.732,138.016 192.476,137.02 C192.788,136.54 193.04,135.988 193.22,135.376 L188.756,135.376 L188.756,134.548 L193.4,134.548 C193.496,134.044 193.544,133.504 193.568,132.928 L193.568,132.148 L190.7,132.148 C190.268,132.856 189.8,133.456 189.284,133.936 L188.552,133.3 C189.632,132.34 190.436,131.056 190.976,129.448 Z M207.572,131.884 C207.524,132.016 207.488,132.148 207.44,132.268 C207.62,133.876 208.052,135.268 208.724,136.444 C209.348,135.172 209.696,133.648 209.744,131.884 L207.572,131.884 Z M206.9,133.552 C206.66,134.008 206.408,134.392 206.12,134.716 L205.616,134.068 C206.492,132.904 207.056,131.26 207.296,129.148 L208.148,129.256 C208.052,129.904 207.932,130.504 207.8,131.056 L211.316,131.056 L211.316,131.884 L210.548,131.884 C210.488,133.996 210.056,135.772 209.24,137.236 C209.864,138.076 210.62,138.796 211.532,139.396 L211.064,140.212 C210.152,139.6 209.384,138.868 208.76,138.016 C208.16,138.88 207.404,139.6 206.504,140.2 L206.036,139.444 C206.948,138.868 207.692,138.136 208.268,137.272 C207.62,136.192 207.164,134.956 206.9,133.552 Z M205.412,129.676 L205.412,137.188 L204.62,137.188 L204.62,130.48 L201.776,130.48 L201.776,137.188 L200.984,137.188 L200.984,129.676 L205.412,129.676 Z M204.032,137.536 C204.716,138.208 205.292,138.868 205.76,139.528 L205.124,140.152 C204.728,139.504 204.176,138.82 203.468,138.088 L204.032,137.536 Z M202.832,131.38 L203.588,131.38 L203.588,135.04 C203.564,136.432 203.36,137.536 202.964,138.364 C202.556,139.144 201.908,139.744 201.02,140.176 L200.552,139.432 C201.392,139.024 201.992,138.472 202.328,137.8 C202.64,137.092 202.808,136.168 202.832,135.04 L202.832,131.38 Z" id="path-16"></path>
        <path d="M121.668,249.748 L128.172,249.748 L128.172,250.564 L125.328,250.564 L125.328,255.088 L128.532,255.088 L128.532,255.916 L125.328,255.916 L125.328,260.2 L124.488,260.2 L124.488,255.916 L121.332,255.916 L121.332,255.088 L124.488,255.088 L124.488,250.564 L121.668,250.564 L121.668,249.748 Z M127.08,251.164 L127.836,251.368 C127.584,252.532 127.26,253.552 126.876,254.428 L126.144,254.176 C126.504,253.384 126.816,252.376 127.08,251.164 Z M122.592,251.236 C122.952,252.112 123.264,253.12 123.552,254.26 L122.808,254.452 C122.568,253.42 122.244,252.424 121.848,251.476 L122.592,251.236 Z M118.944,249.316 C119.76,249.928 120.444,250.54 120.996,251.164 L120.408,251.764 C119.904,251.176 119.208,250.552 118.344,249.904 L118.944,249.316 Z M117.504,252.868 L120.096,252.868 L120.096,258.184 C120.48,257.848 120.888,257.464 121.332,257.02 L121.572,257.932 C120.864,258.628 120.12,259.24 119.328,259.78 L118.992,259.012 C119.172,258.844 119.268,258.676 119.268,258.484 L119.268,253.696 L117.504,253.696 L117.504,252.868 Z M131.94,255.628 L131.94,257.008 L134.604,257.008 L134.604,255.628 L131.94,255.628 Z M134.604,257.8 L131.94,257.8 L131.94,258.508 L131.1,258.508 L131.1,252.688 L134.604,252.688 L134.604,251.488 L135.468,251.488 L135.468,252.688 L139.008,252.688 L139.008,258.472 L138.168,258.472 L138.168,257.8 L135.468,257.8 L135.468,260.236 L134.604,260.236 L134.604,257.8 Z M135.468,257.008 L138.168,257.008 L138.168,255.628 L135.468,255.628 L135.468,257.008 Z M138.168,254.86 L138.168,253.48 L135.468,253.48 L135.468,254.86 L138.168,254.86 Z M134.604,253.48 L131.94,253.48 L131.94,254.86 L134.604,254.86 L134.604,253.48 Z M139.98,250.108 L139.98,252.208 L139.14,252.208 L139.14,250.888 L130.812,250.888 L130.812,252.268 L129.972,252.268 L129.972,250.108 L134.544,250.108 C134.424,249.796 134.304,249.508 134.172,249.244 L135.084,249.088 C135.204,249.388 135.312,249.724 135.432,250.108 L139.98,250.108 Z M141.9,249.82 L152.1,249.82 L152.1,250.672 L148.188,250.672 C147.972,251.164 147.72,251.644 147.444,252.1 L147.444,260.224 L146.556,260.224 L146.556,253.372 C145.428,254.776 143.952,256.024 142.128,257.116 L141.564,256.36 C144.276,254.8 146.172,252.904 147.228,250.672 L141.9,250.672 L141.9,249.82 Z M148.956,253.048 C150.336,254.14 151.488,255.232 152.424,256.324 L151.764,256.996 C150.924,255.94 149.784,254.824 148.332,253.636 L148.956,253.048 Z M154.512,249.388 C155.34,250.012 156.036,250.636 156.6,251.26 L155.988,251.86 C155.484,251.26 154.8,250.624 153.924,249.952 L154.512,249.388 Z M161.532,259.984 C160.872,259.984 160.152,259.972 159.384,259.96 C158.604,259.948 157.968,259.876 157.488,259.744 C157.008,259.6 156.576,259.3 156.204,258.868 C156.036,258.664 155.88,258.568 155.736,258.568 C155.448,258.568 154.968,259.12 154.308,260.224 L153.66,259.636 C154.296,258.628 154.86,258.016 155.352,257.8 L155.352,254.152 L153.648,254.152 L153.648,253.36 L156.156,253.36 L156.156,257.848 C156.252,257.92 156.348,258.004 156.456,258.124 C156.744,258.472 157.056,258.724 157.392,258.88 C157.776,259.048 158.316,259.144 159.036,259.168 C159.672,259.18 160.464,259.192 161.412,259.192 C161.964,259.192 162.54,259.18 163.128,259.168 C163.704,259.156 164.148,259.144 164.46,259.12 L164.256,259.984 L161.532,259.984 Z M159.384,250.54 C159.888,250.84 160.356,251.14 160.764,251.44 C161.388,251.116 161.964,250.756 162.492,250.348 L157.164,250.348 L157.164,249.616 L163.656,249.616 L163.656,250.24 C162.936,250.864 162.156,251.404 161.316,251.86 L161.508,252.016 L163.884,252.016 L163.884,257.38 C163.884,257.992 163.548,258.304 162.876,258.304 L161.88,258.304 L161.688,257.572 L162.636,257.608 C162.924,257.608 163.068,257.464 163.068,257.2 L163.068,256.3 L161.052,256.3 L161.052,258.364 L160.248,258.364 L160.248,256.3 L158.244,256.3 L158.244,258.4 L157.428,258.4 L157.428,252.016 L160.428,252.016 C159.972,251.692 159.444,251.368 158.856,251.056 L159.384,250.54 Z M158.244,254.536 L158.244,255.592 L160.248,255.592 L160.248,254.536 L158.244,254.536 Z M161.052,254.536 L161.052,255.592 L163.068,255.592 L163.068,254.536 L161.052,254.536 Z M163.068,253.816 L163.068,252.736 L161.052,252.736 L161.052,253.816 L163.068,253.816 Z M160.248,253.816 L160.248,252.736 L158.244,252.736 L158.244,253.816 L160.248,253.816 Z M166.476,249.364 C167.292,250 167.976,250.636 168.528,251.26 L167.904,251.896 C167.412,251.284 166.74,250.624 165.876,249.928 L166.476,249.364 Z M173.772,259.984 C173.088,259.984 172.344,259.972 171.54,259.96 C170.724,259.948 170.064,259.876 169.572,259.744 C169.068,259.6 168.624,259.3 168.24,258.868 C168.072,258.664 167.904,258.568 167.748,258.568 C167.46,258.568 166.968,259.12 166.296,260.248 L165.648,259.672 C166.296,258.64 166.86,258.016 167.364,257.8 L167.364,254.164 L165.636,254.164 L165.636,253.348 L168.192,253.348 L168.192,257.848 C168.288,257.92 168.396,258.004 168.504,258.124 C168.816,258.46 169.14,258.712 169.488,258.88 C169.872,259.036 170.448,259.12 171.192,259.144 C171.852,259.156 172.68,259.168 173.664,259.168 C174.192,259.168 174.72,259.156 175.272,259.156 C175.812,259.144 176.232,259.132 176.52,259.108 L176.304,259.984 L173.772,259.984 Z M173.412,258.376 L171.708,258.376 L171.516,257.548 C172.068,257.584 172.608,257.608 173.112,257.608 C173.448,257.608 173.628,257.44 173.628,257.116 L173.628,252.016 L169.092,252.016 L169.092,251.164 L173.628,251.164 L173.628,249.22 L174.504,249.22 L174.504,251.164 L176.28,251.164 L176.28,252.016 L174.504,252.016 L174.504,257.32 C174.504,258.016 174.132,258.376 173.412,258.376 Z M170.4,253.084 C171.168,253.972 171.756,254.752 172.164,255.424 L171.468,255.904 C171.036,255.184 170.46,254.392 169.728,253.516 L170.4,253.084 Z" id="path-17"></path>
        <path d="M306.72,192.548 L308.22,192.548 L308.22,190.208 L309.072,190.208 L309.072,192.548 L310.308,192.548 L310.308,193.376 L309.072,193.376 L309.072,193.988 C309.552,194.516 310.044,195.116 310.548,195.788 L310.056,196.52 C309.672,195.836 309.348,195.272 309.072,194.84 L309.072,201.14 L308.22,201.14 L308.22,195.248 C307.836,196.448 307.356,197.528 306.756,198.512 L306.384,197.564 C307.224,196.34 307.836,194.948 308.196,193.376 L306.72,193.376 L306.72,192.548 Z M312.072,193.7 C311.616,194.18 311.148,194.588 310.644,194.948 L310.176,194.216 C311.592,193.196 312.696,191.864 313.464,190.22 L314.256,190.22 C314.904,191.732 316.008,193.052 317.58,194.192 L317.112,194.924 C316.596,194.552 316.128,194.156 315.72,193.736 L315.72,194.468 L312.072,194.468 L312.072,193.7 Z M315.66,193.676 C314.904,192.896 314.304,192.032 313.86,191.072 C313.332,192.092 312.744,192.956 312.096,193.676 L315.66,193.676 Z M310.452,200 L314.604,200 C315.096,198.716 315.528,197.144 315.9,195.272 L316.728,195.488 C316.392,197.18 315.96,198.68 315.456,200 L317.328,200 L317.328,200.84 L310.452,200.84 L310.452,200 Z M311.796,195.596 C312.132,196.604 312.42,197.768 312.672,199.088 L311.916,199.292 C311.676,198.092 311.388,196.952 311.052,195.848 L311.796,195.596 Z M313.644,195.164 C313.956,196.136 314.232,197.252 314.472,198.512 L313.68,198.716 C313.476,197.564 313.212,196.46 312.9,195.404 L313.644,195.164 Z M320.436,194.696 L327.612,194.696 L327.612,199.112 L320.436,199.112 L320.436,194.696 Z M326.772,198.344 L326.772,197.288 L321.276,197.288 L321.276,198.344 L326.772,198.344 Z M321.276,196.556 L326.772,196.556 L326.772,195.464 L321.276,195.464 L321.276,196.556 Z M319.092,191.276 L323.604,191.276 L323.604,190.172 L324.444,190.172 L324.444,191.276 L328.956,191.276 L328.956,192.068 L325.272,192.068 C326.172,192.944 327.564,193.64 329.46,194.144 L329.088,194.924 C326.928,194.192 325.404,193.244 324.516,192.068 L324.444,192.068 L324.444,194.312 L323.604,194.312 L323.604,192.068 L323.532,192.068 C322.596,193.22 321.072,194.18 318.972,194.936 L318.516,194.168 C320.436,193.616 321.864,192.908 322.8,192.068 L319.092,192.068 L319.092,191.276 Z M318.852,200.048 L329.16,200.048 L329.16,200.852 L318.852,200.852 L318.852,200.048 Z M331.512,190.388 C332.34,191.012 333.036,191.636 333.6,192.26 L332.988,192.86 C332.484,192.26 331.8,191.624 330.924,190.952 L331.512,190.388 Z M338.532,200.984 C337.872,200.984 337.152,200.972 336.384,200.96 C335.604,200.948 334.968,200.876 334.488,200.744 C334.008,200.6 333.576,200.3 333.204,199.868 C333.036,199.664 332.88,199.568 332.736,199.568 C332.448,199.568 331.968,200.12 331.308,201.224 L330.66,200.636 C331.296,199.628 331.86,199.016 332.352,198.8 L332.352,195.152 L330.648,195.152 L330.648,194.36 L333.156,194.36 L333.156,198.848 C333.252,198.92 333.348,199.004 333.456,199.124 C333.744,199.472 334.056,199.724 334.392,199.88 C334.776,200.048 335.316,200.144 336.036,200.168 C336.672,200.18 337.464,200.192 338.412,200.192 C338.964,200.192 339.54,200.18 340.128,200.168 C340.704,200.156 341.148,200.144 341.46,200.12 L341.256,200.984 L338.532,200.984 Z M336.384,191.54 C336.888,191.84 337.356,192.14 337.764,192.44 C338.388,192.116 338.964,191.756 339.492,191.348 L334.164,191.348 L334.164,190.616 L340.656,190.616 L340.656,191.24 C339.936,191.864 339.156,192.404 338.316,192.86 L338.508,193.016 L340.884,193.016 L340.884,198.38 C340.884,198.992 340.548,199.304 339.876,199.304 L338.88,199.304 L338.688,198.572 L339.636,198.608 C339.924,198.608 340.068,198.464 340.068,198.2 L340.068,197.3 L338.052,197.3 L338.052,199.364 L337.248,199.364 L337.248,197.3 L335.244,197.3 L335.244,199.4 L334.428,199.4 L334.428,193.016 L337.428,193.016 C336.972,192.692 336.444,192.368 335.856,192.056 L336.384,191.54 Z M335.244,195.536 L335.244,196.592 L337.248,196.592 L337.248,195.536 L335.244,195.536 Z M338.052,195.536 L338.052,196.592 L340.068,196.592 L340.068,195.536 L338.052,195.536 Z M340.068,194.816 L340.068,193.736 L338.052,193.736 L338.052,194.816 L340.068,194.816 Z M337.248,194.816 L337.248,193.736 L335.244,193.736 L335.244,194.816 L337.248,194.816 Z M343.476,190.364 C344.292,191 344.976,191.636 345.528,192.26 L344.904,192.896 C344.412,192.284 343.74,191.624 342.876,190.928 L343.476,190.364 Z M350.772,200.984 C350.088,200.984 349.344,200.972 348.54,200.96 C347.724,200.948 347.064,200.876 346.572,200.744 C346.068,200.6 345.624,200.3 345.24,199.868 C345.072,199.664 344.904,199.568 344.748,199.568 C344.46,199.568 343.968,200.12 343.296,201.248 L342.648,200.672 C343.296,199.64 343.86,199.016 344.364,198.8 L344.364,195.164 L342.636,195.164 L342.636,194.348 L345.192,194.348 L345.192,198.848 C345.288,198.92 345.396,199.004 345.504,199.124 C345.816,199.46 346.14,199.712 346.488,199.88 C346.872,200.036 347.448,200.12 348.192,200.144 C348.852,200.156 349.68,200.168 350.664,200.168 C351.192,200.168 351.72,200.156 352.272,200.156 C352.812,200.144 353.232,200.132 353.52,200.108 L353.304,200.984 L350.772,200.984 Z M350.412,199.376 L348.708,199.376 L348.516,198.548 C349.068,198.584 349.608,198.608 350.112,198.608 C350.448,198.608 350.628,198.44 350.628,198.116 L350.628,193.016 L346.092,193.016 L346.092,192.164 L350.628,192.164 L350.628,190.22 L351.504,190.22 L351.504,192.164 L353.28,192.164 L353.28,193.016 L351.504,193.016 L351.504,198.32 C351.504,199.016 351.132,199.376 350.412,199.376 Z M347.4,194.084 C348.168,194.972 348.756,195.752 349.164,196.424 L348.468,196.904 C348.036,196.184 347.46,195.392 346.728,194.516 L347.4,194.084 Z" id="path-18"></path>
        <path d="M401.668,248.748 L408.172,248.748 L408.172,249.564 L405.328,249.564 L405.328,254.088 L408.532,254.088 L408.532,254.916 L405.328,254.916 L405.328,259.2 L404.488,259.2 L404.488,254.916 L401.332,254.916 L401.332,254.088 L404.488,254.088 L404.488,249.564 L401.668,249.564 L401.668,248.748 Z M407.08,250.164 L407.836,250.368 C407.584,251.532 407.26,252.552 406.876,253.428 L406.144,253.176 C406.504,252.384 406.816,251.376 407.08,250.164 Z M402.592,250.236 C402.952,251.112 403.264,252.12 403.552,253.26 L402.808,253.452 C402.568,252.42 402.244,251.424 401.848,250.476 L402.592,250.236 Z M398.944,248.316 C399.76,248.928 400.444,249.54 400.996,250.164 L400.408,250.764 C399.904,250.176 399.208,249.552 398.344,248.904 L398.944,248.316 Z M397.504,251.868 L400.096,251.868 L400.096,257.184 C400.48,256.848 400.888,256.464 401.332,256.02 L401.572,256.932 C400.864,257.628 400.12,258.24 399.328,258.78 L398.992,258.012 C399.172,257.844 399.268,257.676 399.268,257.484 L399.268,252.696 L397.504,252.696 L397.504,251.868 Z M411.94,254.628 L411.94,256.008 L414.604,256.008 L414.604,254.628 L411.94,254.628 Z M414.604,256.8 L411.94,256.8 L411.94,257.508 L411.1,257.508 L411.1,251.688 L414.604,251.688 L414.604,250.488 L415.468,250.488 L415.468,251.688 L419.008,251.688 L419.008,257.472 L418.168,257.472 L418.168,256.8 L415.468,256.8 L415.468,259.236 L414.604,259.236 L414.604,256.8 Z M415.468,256.008 L418.168,256.008 L418.168,254.628 L415.468,254.628 L415.468,256.008 Z M418.168,253.86 L418.168,252.48 L415.468,252.48 L415.468,253.86 L418.168,253.86 Z M414.604,252.48 L411.94,252.48 L411.94,253.86 L414.604,253.86 L414.604,252.48 Z M419.98,249.108 L419.98,251.208 L419.14,251.208 L419.14,249.888 L410.812,249.888 L410.812,251.268 L409.972,251.268 L409.972,249.108 L414.544,249.108 C414.424,248.796 414.304,248.508 414.172,248.244 L415.084,248.088 C415.204,248.388 415.312,248.724 415.432,249.108 L419.98,249.108 Z M422.512,248.388 C423.34,249.012 424.036,249.636 424.6,250.26 L423.988,250.86 C423.484,250.26 422.8,249.624 421.924,248.952 L422.512,248.388 Z M429.532,258.984 C428.872,258.984 428.152,258.972 427.384,258.96 C426.604,258.948 425.968,258.876 425.488,258.744 C425.008,258.6 424.576,258.3 424.204,257.868 C424.036,257.664 423.88,257.568 423.736,257.568 C423.448,257.568 422.968,258.12 422.308,259.224 L421.66,258.636 C422.296,257.628 422.86,257.016 423.352,256.8 L423.352,253.152 L421.648,253.152 L421.648,252.36 L424.156,252.36 L424.156,256.848 C424.252,256.92 424.348,257.004 424.456,257.124 C424.744,257.472 425.056,257.724 425.392,257.88 C425.776,258.048 426.316,258.144 427.036,258.168 C427.672,258.18 428.464,258.192 429.412,258.192 C429.964,258.192 430.54,258.18 431.128,258.168 C431.704,258.156 432.148,258.144 432.46,258.12 L432.256,258.984 L429.532,258.984 Z M427.384,249.54 C427.888,249.84 428.356,250.14 428.764,250.44 C429.388,250.116 429.964,249.756 430.492,249.348 L425.164,249.348 L425.164,248.616 L431.656,248.616 L431.656,249.24 C430.936,249.864 430.156,250.404 429.316,250.86 L429.508,251.016 L431.884,251.016 L431.884,256.38 C431.884,256.992 431.548,257.304 430.876,257.304 L429.88,257.304 L429.688,256.572 L430.636,256.608 C430.924,256.608 431.068,256.464 431.068,256.2 L431.068,255.3 L429.052,255.3 L429.052,257.364 L428.248,257.364 L428.248,255.3 L426.244,255.3 L426.244,257.4 L425.428,257.4 L425.428,251.016 L428.428,251.016 C427.972,250.692 427.444,250.368 426.856,250.056 L427.384,249.54 Z M426.244,253.536 L426.244,254.592 L428.248,254.592 L428.248,253.536 L426.244,253.536 Z M429.052,253.536 L429.052,254.592 L431.068,254.592 L431.068,253.536 L429.052,253.536 Z M431.068,252.816 L431.068,251.736 L429.052,251.736 L429.052,252.816 L431.068,252.816 Z M428.248,252.816 L428.248,251.736 L426.244,251.736 L426.244,252.816 L428.248,252.816 Z M434.476,248.364 C435.292,249 435.976,249.636 436.528,250.26 L435.904,250.896 C435.412,250.284 434.74,249.624 433.876,248.928 L434.476,248.364 Z M441.772,258.984 C441.088,258.984 440.344,258.972 439.54,258.96 C438.724,258.948 438.064,258.876 437.572,258.744 C437.068,258.6 436.624,258.3 436.24,257.868 C436.072,257.664 435.904,257.568 435.748,257.568 C435.46,257.568 434.968,258.12 434.296,259.248 L433.648,258.672 C434.296,257.64 434.86,257.016 435.364,256.8 L435.364,253.164 L433.636,253.164 L433.636,252.348 L436.192,252.348 L436.192,256.848 C436.288,256.92 436.396,257.004 436.504,257.124 C436.816,257.46 437.14,257.712 437.488,257.88 C437.872,258.036 438.448,258.12 439.192,258.144 C439.852,258.156 440.68,258.168 441.664,258.168 C442.192,258.168 442.72,258.156 443.272,258.156 C443.812,258.144 444.232,258.132 444.52,258.108 L444.304,258.984 L441.772,258.984 Z M441.412,257.376 L439.708,257.376 L439.516,256.548 C440.068,256.584 440.608,256.608 441.112,256.608 C441.448,256.608 441.628,256.44 441.628,256.116 L441.628,251.016 L437.092,251.016 L437.092,250.164 L441.628,250.164 L441.628,248.22 L442.504,248.22 L442.504,250.164 L444.28,250.164 L444.28,251.016 L442.504,251.016 L442.504,256.32 C442.504,257.016 442.132,257.376 441.412,257.376 Z M438.4,252.084 C439.168,252.972 439.756,253.752 440.164,254.424 L439.468,254.904 C439.036,254.184 438.46,253.392 437.728,252.516 L438.4,252.084 Z" id="path-19"></path>
    </defs>
    <g id="介绍页配图设计" stroke="none" stroke-width="1" fill="none" fill-rule="evenodd">
        <g id="应用场景复制（SVG转曲）" transform="translate(-205.000000, -514.000000)">
            <g id="编组-5" transform="translate(201.000000, 67.000000)">
                <g id="流程1-copy-2" transform="translate(4.000000, 448.000000)">
                    <g id="ce55d0acbf344d121aee68366e8d65ee-copy-2" transform="translate(109.000000, 0.000000)">
                        <g id="XMLID_25_" transform="translate(0.000000, 120.000000)">
                            <g id="分组-copy">
                                <g id="XMLID_134_">
                                    <use fill="black" fill-opacity="1" filter="url(#filter-2)" xlink:href="#path-1"></use>
                                    <use fill="#FFFFFF" fill-rule="evenodd" xlink:href="#path-1"></use>
                                </g>
                                <path d="M57.568,19.402 L68.474,19.402 L68.474,20.382 L66.136,20.382 L66.136,24.092 L69.202,24.092 L69.202,25.058 L66.136,25.058 L66.136,31.26 L65.114,31.26 L65.114,25.058 L61.068,25.058 C60.942,26.5 60.676,27.69 60.256,28.642 C59.724,29.818 58.842,30.728 57.61,31.372 L57.064,30.504 C58.198,29.86 58.996,29.006 59.444,27.942 C59.738,27.13 59.934,26.178 60.046,25.058 L56.812,25.058 L56.812,24.092 L60.102,24.092 C60.102,23.91 60.116,23.742 60.116,23.602 L60.116,20.382 L57.568,20.382 L57.568,19.402 Z M61.152,20.382 L61.152,23.602 C61.152,23.77 61.138,23.938 61.138,24.092 L65.114,24.092 L65.114,20.382 L61.152,20.382 Z M71.624,22.86 L72.73,18.968 L73.724,19.136 L72.926,21.894 L75.376,21.894 C75.656,20.802 75.88,19.668 76.048,18.464 L77.07,18.59 C76.888,19.766 76.664,20.858 76.412,21.894 L82.964,21.894 L82.964,22.86 L76.146,22.86 C75.978,23.42 75.81,23.952 75.614,24.456 L81.34,24.456 L81.34,25.324 C80.962,26.528 80.206,27.62 79.058,28.6 C80.192,29.272 81.578,29.888 83.202,30.448 L82.684,31.386 C80.892,30.728 79.408,30.014 78.232,29.244 C77.084,30.056 75.656,30.784 73.962,31.442 L73.43,30.504 C74.998,29.93 76.3,29.3 77.35,28.614 C76.258,27.774 75.488,26.864 75.026,25.884 C74.004,28.096 72.688,29.846 71.092,31.148 L70.574,30.224 C72.618,28.432 74.116,25.982 75.096,22.86 L71.624,22.86 Z M75.782,25.38 C76.258,26.332 77.056,27.214 78.176,28.026 C79.212,27.214 79.926,26.332 80.318,25.38 L75.782,25.38 Z M79.422,18.576 C80.43,19.346 81.256,20.116 81.928,20.886 L81.214,21.6 C80.626,20.858 79.8,20.074 78.75,19.234 L79.422,18.576 Z M86.044,20.018 L89.88,20.018 L89.88,18.534 L90.916,18.534 L90.916,20.018 L94.22,20.018 L94.22,20.956 L90.916,20.956 L90.916,22.622 L92.68,22.622 C93.996,21.684 95.158,20.62 96.152,19.444 L96.922,20.004 C96.096,20.984 95.214,21.866 94.276,22.622 L97.272,22.622 L97.272,23.574 L93.002,23.574 C92.792,23.714 92.582,23.84 92.372,23.98 C91.728,24.372 90.986,24.75 90.174,25.128 L95.466,25.128 L95.466,31.428 L94.458,31.428 L94.458,30.798 L88.396,30.798 L88.396,31.428 L87.374,31.428 L87.374,26.276 C86.618,26.556 85.834,26.822 85.022,27.088 L84.602,26.15 C86.996,25.59 89.18,24.722 91.168,23.574 L84.798,23.574 L84.798,22.622 L89.88,22.622 L89.88,20.956 L86.044,20.956 L86.044,20.018 Z M88.396,28.376 L88.396,29.902 L94.458,29.902 L94.458,28.376 L88.396,28.376 Z M94.458,27.48 L94.458,26.01 L88.396,26.01 L88.396,27.48 L94.458,27.48 Z" id="开发者" fill="#444444" fill-rule="nonzero"></path>
                                <g id="分组-5" transform="translate(20.000000, 12.000000)" fill="#01A4FF" fill-rule="nonzero">
                                    <path d="M12.8,2.5 C15,2.5 16.8,4.3 16.8,6.5 C16.8,8.7 15,10.5 12.8,10.5 C10.6,10.5 8.8,8.7 8.8,6.5 C8.8,4.3 10.6,2.5 12.8,2.5 L12.8,2.5 Z M12.8,0.5 C9.5,0.5 6.8,3.2 6.8,6.5 C6.8,9.8 9.5,12.5 12.8,12.5 C16.1,12.5 18.8,9.8 18.8,6.5 C18.8,3.2 16.1,0.5 12.8,0.5 L12.8,0.5 Z" id="XMLID_21_"></path>
                                    <path d="M22.8,22.5 L22.8199454,23.016982 L2.81994541,23.016982 L2.8,22.5 C2.8,19.2 5.47085727,16.0474081 8.77085727,16.0474081 L16.7708573,16.0474081 C20.0708573,16.0474081 22.8,19.2 22.8,22.5 Z M8.81797533,14.0247469 C4.41797533,14.0247469 0.942180619,18.006108 0.942180619,22.406108 L1.03431394,25.0036211 L25.0343139,25.0036211 L24.8,22.5 C24.8,18.1 21.2179753,14.0247469 16.8179753,14.0247469 L8.81797533,14.0247469 Z" id="XMLID_32_"></path>
                                </g>
                            </g>
                        </g>
                        <g id="分组-13" transform="translate(225.000000, 120.000000)">
                            <g id="XMLID_110_">
                                <use fill="black" fill-opacity="1" filter="url(#filter-4)" xlink:href="#path-3"></use>
                                <use fill="#FFFFFF" fill-rule="evenodd" xlink:href="#path-3"></use>
                            </g>
                            <g id="自动化检查" fill-rule="nonzero">
                                <use fill="#000000" xlink:href="#path-5"></use>
                                <use fill="#444444" xlink:href="#path-5"></use>
                            </g>
                            <g id="分组-39" transform="translate(27.000000, 13.000000)" fill-rule="nonzero">
                                <rect id="矩形" stroke="#878787" stroke-width="2" x="1" y="1" width="24" height="18"></rect>
                                <rect id="矩形" fill="#878787" x="4" y="22" width="18" height="2"></rect>
                                <polyline id="路径-6" stroke="#878787" stroke-width="2" points="4.99842981 11.9875453 8.38456492 11.9663724 10.7679985 6 16.7419365 11.9714051 21.9312358 11.9677614"></polyline>
                            </g>
                        </g>
                        <g id="分组-13-copy-4" transform="translate(225.000000, 0.000000)">
                            <g id="XMLID_110_">
                                <use fill="black" fill-opacity="1" filter="url(#filter-7)" xlink:href="#path-6"></use>
                                <use fill="#FFFFFF" fill-rule="evenodd" xlink:href="#path-6"></use>
                            </g>
                            <g id="合并请求" fill-rule="nonzero">
                                <use fill="#000000" xlink:href="#path-8"></use>
                                <use fill="#444444" xlink:href="#path-8"></use>
                            </g>
                            <g id="分组-38" transform="translate(33.000000, 15.000000)" fill-rule="nonzero">
                                <polyline id="路径-5" stroke="#878787" stroke-width="2" points="6.97227298e-13 17.9167314 10.1260188 17.9167314 16.1260188 9 24.1260188 9"></polyline>
                                <polyline id="路径-5" stroke="#878787" stroke-width="2" transform="translate(7.006488, 2.700967) scale(1, -1) translate(-7.006488, -2.700967) " points="0.126018803 5.40193462 10.2520376 5.40193462 13.8869579 2.70894418e-14"></polyline>
                                <polygon id="三角形" fill="#878787" transform="translate(26.126019, 9.000000) rotate(-270.000000) translate(-26.126019, -9.000000) " points="26.1260188 6 30.1260188 12 22.1260188 12"></polygon>
                            </g>
                        </g>
                        <g id="分组-13-copy-5" transform="translate(225.000000, 240.000000)">
                            <g id="XMLID_110_">
                                <use fill="black" fill-opacity="1" filter="url(#filter-10)" xlink:href="#path-9"></use>
                                <use fill="#FFFFFF" fill-rule="evenodd" xlink:href="#path-9"></use>
                            </g>
                            <g id="开发者Leader" fill-rule="nonzero">
                                <use fill="#000000" xlink:href="#path-11"></use>
                                <use fill="#444444" xlink:href="#path-11"></use>
                            </g>
                            <g id="分组-5" transform="translate(20.000000, 13.000000)" fill="#878787" fill-rule="nonzero">
                                <path d="M12.8,2.5 C15,2.5 16.8,4.3 16.8,6.5 C16.8,8.7 15,10.5 12.8,10.5 C10.6,10.5 8.8,8.7 8.8,6.5 C8.8,4.3 10.6,2.5 12.8,2.5 L12.8,2.5 Z M12.8,0.5 C9.5,0.5 6.8,3.2 6.8,6.5 C6.8,9.8 9.5,12.5 12.8,12.5 C16.1,12.5 18.8,9.8 18.8,6.5 C18.8,3.2 16.1,0.5 12.8,0.5 L12.8,0.5 Z" id="XMLID_21_"></path>
                                <path d="M22.8,22.5 L22.8199454,23.016982 L2.81994541,23.016982 L2.8,22.5 C2.8,19.2 5.47085727,16.0474081 8.77085727,16.0474081 L16.7708573,16.0474081 C20.0708573,16.0474081 22.8,19.2 22.8,22.5 Z M8.81797533,14.0247469 C4.41797533,14.0247469 0.942180619,18.006108 0.942180619,22.406108 L1.03431394,25.0036211 L25.0343139,25.0036211 L24.8,22.5 C24.8,18.1 21.2179753,14.0247469 16.8179753,14.0247469 L8.81797533,14.0247469 Z" id="XMLID_32_"></path>
                            </g>
                        </g>
                        <g id="XMLID_54_" transform="translate(294.000000, 50.000000)">
                            <polygon id="XMLID_56_" fill="#878787" points="0 55 5.5 60 11 55"></polygon>
                            <path d="M5.5,-2.27373675e-13 L5.5,55" id="XMLID_55_" stroke="#878787"></path>
                        </g>
                        <g id="XMLID_54_-Copy-2" transform="translate(294.000000, 170.000000)">
                            <polygon id="XMLID_56_" fill="#878787" points="0 55 5.5 60 11 55"></polygon>
                            <path d="M5.5,-2.27373675e-13 L5.5,55" id="XMLID_55_" stroke="#878787"></path>
                        </g>
                        <g id="分组-30-copy" transform="translate(147.000000, 141.000000)" fill="#878787">
                            <polygon id="XMLID_22_" transform="translate(2.500000, 4.500000) rotate(-180.000000) translate(-2.500000, -4.500000) " points="0 9 5 4.5 0 -2.84217094e-14"></polygon>
                            <rect id="XMLID_10_" transform="translate(41.000000, 4.500000) rotate(-180.000000) translate(-41.000000, -4.500000) " x="5" y="4" width="72" height="1"></rect>
                        </g>
                        <g id="分组-30-copy-3" transform="translate(423.500000, 264.500000) rotate(-360.000000) translate(-423.500000, -264.500000) translate(385.000000, 260.000000)" fill="#878787">
                            <polygon id="XMLID_22_" points="72 9 77 4.5 72 0"></polygon>
                            <rect id="XMLID_10_" x="0" y="4" width="72" height="1"></rect>
                        </g>
                        <g id="分组-13-copy-3" transform="translate(472.000000, 240.000000)">
                            <g id="XMLID_110_">
                                <use fill="black" fill-opacity="1" filter="url(#filter-13)" xlink:href="#path-12"></use>
                                <use fill="#FFFFFF" fill-rule="evenodd" xlink:href="#path-12"></use>
                            </g>
                            <g id="分组-40" transform="translate(20.000000, 16.000000)" fill-rule="nonzero" stroke="#979797">
                                <circle id="椭圆形" stroke-width="2" cx="3" cy="15" r="3"></circle>
                                <circle id="椭圆形-copy-11" stroke-width="2" cx="25" cy="15" r="3"></circle>
                                <circle id="椭圆形-copy-12" stroke-width="2" cx="25" cy="3" r="3"></circle>
                                <rect id="矩形" fill="#929292" x="6.5" y="14.5" width="15" height="1"></rect>
                                <polyline id="路径-7" stroke-width="2" points="10 14.6545209 16.247107 2.98627888 23.0405943 2.98627888"></polyline>
                            </g>
                            <g id="主干分支" fill-rule="nonzero">
                                <use fill="#000000" xlink:href="#path-14"></use>
                                <use fill="#444444" xlink:href="#path-14"></use>
                            </g>
                        </g>
                        <g id="分组" transform="translate(62.000000, 180.000000)">
                            <polygon id="Fill-1" fill="#878787" points="5.38529133 -9.9475983e-14 0.385291332 5 10.3842913 5"></polygon>
                            <polyline id="Stroke-2" stroke="#878787" points="5.4960765 1.98013837 5.48060875 86.525009 162 86.5051936"></polyline>
                        </g>
                        <g id="分组-copy-9" transform="translate(141.500000, 70.000000) scale(1, -1) translate(-141.500000, -70.000000) translate(67.000000, 20.000000)">
                            <polygon id="Fill-1" fill="#878787" transform="translate(145.999500, 94.500000) rotate(-270.000000) translate(-145.999500, -94.500000) " points="146 92 141 97 150.999 97"></polygon>
                            <polyline id="Stroke-2" stroke="#878787" points="0.520965066 -2.13162821e-14 0.496139002 94.5448706 143.519391 94.5250552"></polyline>
                        </g>
                        <g id="申请合并" fill-rule="nonzero">
                            <use fill="#000000" xlink:href="#path-15"></use>
                            <use fill="#878787" xlink:href="#path-15"></use>
                        </g>
                        <g id="检查失败" fill-rule="nonzero">
                            <use fill="#000000" xlink:href="#path-16"></use>
                            <use fill="#878787" xlink:href="#path-16"></use>
                        </g>
                        <g id="评审不通过" fill-rule="nonzero">
                            <use fill="#000000" xlink:href="#path-17"></use>
                            <use fill="#878787" xlink:href="#path-17"></use>
                        </g>
                        <g id="检查通过" fill-rule="nonzero">
                            <use fill="#000000" xlink:href="#path-18"></use>
                            <use fill="#878787" xlink:href="#path-18"></use>
                        </g>
                        <g id="评审通过" fill-rule="nonzero">
                            <use fill="#000000" xlink:href="#path-19"></use>
                            <use fill="#878787" xlink:href="#path-19"></use>
                        </g>
                    </g>
                </g>
            </g>
        </g>
    </g>
</svg>