<?xml version="1.0" encoding="UTF-8"?>
<svg width="48px" height="48px" viewBox="0 0 48 48" version="1.1" xmlns="http://www.w3.org/2000/svg" xmlns:xlink="http://www.w3.org/1999/xlink">
    <!-- Generator: Sketch 51.2 (57519) - http://www.bohemiancoding.com/sketch -->
    <title>快速初审-48x48</title>
    <desc>Created with Sketch.</desc>
    <defs></defs>
    <g id="快速初审-48x48" stroke="none" stroke-width="1" fill="none" fill-rule="evenodd">
        <polygon id="Combined-Shape" fill="#334966" points="20 42 20 44 0 44 0 4 48 4 48 32 46 32 46 6 2 6 2 42"></polygon>
        <polygon id="Fill-7" fill="#00A4FF" points="6 13 42 13 42 11 6 11"></polygon>
        <polygon id="Fill-8" fill="#00A4FF" points="6 20 25 20 25 18 6 18"></polygon>
        <polygon id="Fill-8-Copy" fill="#00A4FF" points="6 27 20 27 20 25 6 25"></polygon>
        <polygon id="Fill-11" fill="#FFFFFF" points="28.243 35.656 25.415 32.828 24 34.242 26.829 37.07 28.243 38.484 29.657 37.07 35.314 31.414 33.899 30"></polygon>
        <path d="M25,37 L25,43 L47,43 L47,37 L41.7274925,37 C40.2391631,37 38.9758493,35.9088174 38.7593902,34.4363128 L37.9119517,28.6714486 L38.499274,28.331701 C40.0350152,27.4433227 41,25.8062608 41,24 C41,21.2385763 38.7614237,19 36,19 C33.2385763,19 31,21.2385763 31,24 C31,25.8062608 31.9649848,27.4433227 33.500726,28.331701 L34.0880483,28.6714486 L33.2406098,34.4363128 C33.0241507,35.9088174 31.7608369,37 30.2725075,37 L25,37 Z" id="Combined-Shape" stroke="#334966" stroke-width="2"></path>
        <polygon id="Rectangle-36" fill="#00A4FF" points="26 38 46 38 46 42 26 42"></polygon>
    </g>
</svg>