<?xml version="1.0" encoding="utf-8"?>
<!-- Generator: Adobe Illustrator 22.1.0, SVG Export Plug-In . SVG Version: 6.00 Build 0)  -->
<svg version="1.1" id="圖層_1" xmlns="http://www.w3.org/2000/svg" xmlns:xlink="http://www.w3.org/1999/xlink" x="0px" y="0px"
	 width="48px" height="48px" viewBox="0 0 48 48" style="enable-background:new 0 0 48 48;" xml:space="preserve">
<style type="text/css">
	.st0{fill:#00A4FF;}
</style>
<polygon class="st0" points="42.8,19 42.8,34.8 24,45.7 5.2,34.8 5.2,13.2 24,2.3 42.7,13.1 44.5,12 44.6,11.9 24,0 3.2,12 3.2,36 
	24,48 44.8,36 44.8,17.8 "/>
<path class="st0" d="M24,12.7l9.8,5.7v11.3L24,35.3l-9.8-5.7V18.3L24,12.7 M24,10.4l-11.8,6.8v13.6L24,37.6l11.8-6.8V17.2L24,10.4
	L24,10.4z"/>
<g>
	<rect x="29.5" y="21.2" class="st0" width="2" height="2"/>
	<rect x="29.5" y="25.5" class="st0" width="2" height="2"/>
	<polygon class="st0" points="22.6,19 20.4,19 20.4,22.9 16.5,22.9 16.5,25.1 20.4,25.1 20.4,29 22.6,29 22.6,25.1 26.5,25.1 
		26.5,22.9 22.6,22.9 	"/>
</g>
</svg>
