<?xml version="1.0" encoding="UTF-8"?>
<svg width="16px" height="16px" viewBox="0 0 16 16" version="1.1" xmlns="http://www.w3.org/2000/svg" xmlns:xlink="http://www.w3.org/1999/xlink">
    <!-- Generator: Sketch 52.6 (67491) - http://www.bohemiancoding.com/sketch -->
    <title>基础通信</title>
    <desc>Created with Sketch.</desc>
    <g id="基础通信" stroke="none" stroke-width="1" fill="none" fill-rule="evenodd">
        <rect id="Rectangle" fill-rule="nonzero" x="0" y="0" width="16" height="16"></rect>
        <path d="M9,1 L15,1 L15,15 L10,15 L8,13.001 L13,13.001 L13,3.001 L11,3.001 L9,1 Z M1,1 L6,1 L8,3.001 L3,3.001 L3,13.001 L4.999,13.001 L7,15 L1,15 L1,1 Z M5,7 L7,7 L7,9 L5,9 L5,7 Z M9,7 L11,7 L11,9 L9,9 L9,7 Z" id="Combined-Shape" fill="#00A4FF"></path>
    </g>
</svg>