<?xml version="1.0" encoding="utf-8"?>
<!-- Generator: Adobe Illustrator 21.0.0, SVG Export Plug-In . SVG Version: 6.00 Build 0)  -->
<svg version="1.1" id="图层_1" xmlns="http://www.w3.org/2000/svg" xmlns:xlink="http://www.w3.org/1999/xlink" x="0px" y="0px"
	 width="48px" height="48px" viewBox="0 0 48 48" style="enable-background:new 0 0 48 48;" xml:space="preserve">
<style type="text/css">
	.st0{fill:#334966;}
	.st1{fill:#00A4FF;}
</style>
<g id="Rectangle-18">
	<g>
		<path class="st0" d="M42,38H0V4h42V38z M2,36h38V6H2V36z"/>
	</g>
</g>
<g id="Combined-Shape">
	<path class="st0" d="M24.022,38H0V13.978l1.043,0.044C13.376,14.55,23.45,24.624,23.978,36.957L24.022,38z M2,36h19.91
		C20.954,25.521,12.479,17.046,2,16.09V36z"/>
</g>
<g id="Combined-Shape_1_">
	<path class="st0" d="M17.033,38H0V20.967l1.062,0.065c8.542,0.526,15.379,7.365,15.906,15.906L17.033,38z M2,36h12.868
		C13.978,29.316,8.684,24.022,2,23.132V36z"/>
</g>
<g id="Combined-Shape_2_">
	<path class="st0" d="M10.062,38H0V27.938l1.11,0.122c4.606,0.509,8.32,4.223,8.83,8.829L10.062,38z M2,36h5.747
		C7.021,33.204,4.795,30.979,2,30.253V36z"/>
</g>
<g id="Oval-6">
	<circle class="st1" cx="30" cy="15" r="4"/>
</g>
<g>
	<polygon class="st1" points="42,27 42,38 8,38 8,42 46,42 46,27 	"/>
</g>
<g>
	<polygon class="st0" points="42,10 42,12 46,12 46,42 8,42 8,38 6,38 6,44 48,44 48,10 	"/>
</g>
</svg>
