<svg xmlns="http://www.w3.org/2000/svg" width="48" height="48" viewBox="0 0 48 48">
  <g fill="none" fill-rule="evenodd" transform="translate(0 4)">
    <path fill="#334966" fill-rule="nonzero" d="M2,2 L2,38 L46,38 L46,2 L2,2 Z M0,0 L48,0 L48,40 L0,40 L0,0 Z"/>
    <circle cx="21.5" cy="21.5" r="9.5" fill="#00A4FF" fill-rule="nonzero"/>
    <path stroke="#334966" stroke-width="2" d="M9.0378896,9.0378896 L9.0378896,21 L21,21 C20.5144818,14.6175939 15.4202957,9.5234078 9.0378896,9.0378896 Z" transform="matrix(-1 0 0 1 30.038 0)"/>
    <rect width="4" height="2" x="36" y="8" fill="#334966" fill-rule="nonzero"/>
    <rect width="4" height="2" x="36" y="15" fill="#00A4FF" fill-rule="nonzero"/>
    <rect width="4" height="2" x="36" y="22" fill="#00A4FF" fill-rule="nonzero"/>
    <rect width="32" height="2" x="8" y="30" fill="#334966" fill-rule="nonzero"/>
  </g>
</svg>
