<?xml version="1.0" encoding="utf-8"?>
<!-- Generator: Adobe Illustrator 19.0.0, SVG Export Plug-In . SVG Version: 6.00 Build 0)  -->
<svg version="1.1" id="图层_1" xmlns="http://www.w3.org/2000/svg" xmlns:xlink="http://www.w3.org/1999/xlink" x="0px" y="0px"
	 width="48px" height="48px" viewBox="0 0 48 48" style="enable-background:new 0 0 48 48;" xml:space="preserve">
<style type="text/css">
	.st0{fill:#00A4FF;}
</style>
<g id="XMLID_2_">
	<polygon id="XMLID_20_" class="st0" points="4,16 2,16 2,8.535 7.385,4 15,4 15,6 8.115,6 4,9.465 	"/>
</g>
<g id="XMLID_3_">
	<polygon id="XMLID_19_" class="st0" points="46,16 44,16 44,9.609 41.028,6 34,6 34,4 41.972,4 46,8.891 	"/>
</g>
<g id="XMLID_5_">
	<polygon id="XMLID_18_" class="st0" points="40.615,44 33,44 33,42 39.885,42 44,38.535 44,32 46,32 46,39.465 	"/>
</g>
<g id="XMLID_4_">
	<polygon id="XMLID_17_" class="st0" points="14,44 6.028,44 2,39.108 2,32 4,32 4,38.392 6.972,42 14,42 	"/>
</g>
<g id="XMLID_8_">
	<g id="XMLID_1_">
		<path id="XMLID_14_" class="st0" d="M19,24c-2.757,0-5-2.243-5-5s2.243-5,5-5s5,2.243,5,5S21.757,24,19,24z M19,16
			c-1.654,0-3,1.346-3,3s1.346,3,3,3s3-1.346,3-3S20.654,16,19,16z"/>
	</g>
	<g id="XMLID_7_">
		<path id="XMLID_13_" class="st0" d="M29,33h-2v-1c0-2.206-1.794-4-4-4h-8c-2.206,0-4,1.794-4,4v1H9v-1c0-3.309,2.691-6,6-6h8
			c3.309,0,6,2.691,6,6V33z"/>
	</g>
</g>
<g id="XMLID_6_">
	<path id="XMLID_10_" class="st0" d="M30.5,28.596c-0.259,0-0.519-0.066-0.75-0.2c-0.463-0.268-0.75-0.766-0.75-1.3v-7.595
		c0-0.534,0.287-1.032,0.75-1.299c0.464-0.267,1.038-0.267,1.5,0l6.578,3.797c0.463,0.268,0.75,0.765,0.75,1.299
		s-0.287,1.032-0.75,1.299l-6.578,3.798C31.019,28.529,30.76,28.596,30.5,28.596z M31,20.367v5.864l5.078-2.932L31,20.367z"/>
</g>
</svg>
