<?xml version="1.0" encoding="UTF-8"?>
<svg width="112px" height="24px" viewBox="0 0 112 24" version="1.1" xmlns="http://www.w3.org/2000/svg" xmlns:xlink="http://www.w3.org/1999/xlink">
    <!-- Generator: Sketch 54.1 (76490) - https://sketchapp.com -->
    <title>腾讯翻译君</title>
    <desc>Created with Sketch.</desc>
    <defs>
        <path d="M3.31828436,0.315048789 C2.04638248,0.655921249 0.93493167,1.29634829 0.0386781209,2.1393477 L0.0386781209,2.1393477 C0.91771589,3.09367582 1.58672113,4.2672182 1.94572754,5.60729458 L1.94572754,5.60729458 C2.70815709,8.45237452 1.89304725,11.3468064 0.0390224365,13.3673651 L0.0390224365,13.3673651 C1.91760843,15.1281952 4.63517683,15.9084144 7.30534443,15.1929266 L7.30534443,15.1929266 C11.4142922,14.0921496 13.8528502,9.8691185 12.7518436,5.76074458 L12.7518436,5.76074458 C11.8297664,2.32011339 8.71738277,0.0508439393 5.3166922,0.0507291674 L5.3166922,0.0507291674 C4.65675393,0.0507291674 3.98614189,0.13611944 3.31828436,0.315048789 L3.31828436,0.315048789 Z M5.21890656,5.595014 L4.98190265,6.93095858 L5.84923369,6.93095858 C6.5836589,6.93095858 6.83810814,7.09278692 6.83810814,7.52065646 L6.83810814,7.52065646 C6.83810814,7.69419153 6.79759367,7.948526 6.74548724,8.22615915 L6.74548724,8.22615915 L6.39279328,10.2096467 L5.67581339,10.2096467 L6.01691539,8.27815081 C6.06316845,8.02381635 6.08623761,7.86761183 6.08623761,7.7693671 L6.08623761,7.7693671 C6.08623761,7.59009345 5.99373148,7.52639505 5.6063764,7.52639505 L5.6063764,7.52639505 L4.8776898,7.52639505 L4.40930578,10.2096467 L3.6923259,10.2096467 L4.50181191,5.595014 L5.21890656,5.595014 Z M8.05801837,5.65297378 L8.79818217,5.65297378 L8.66516157,6.39302282 L7.924883,6.39302282 L8.05801837,5.65297378 Z M7.84408359,6.93095858 L8.56106349,6.93095858 L7.98858138,10.2096467 L7.27148673,10.2096467 L7.84408359,6.93095858 Z" id="path-1"></path>
        <path d="M0.252383347,0.104786719 L0.0429246801,1.23975301 L1.1347495,1.23975301 L1.26799964,0.246487737 C1.28062455,0.154736705 1.28062455,0.104786719 1.20453079,0.104786719 L1.20453079,0.104786719 L0.252383347,0.104786719 Z M0.226903991,0.271689089 L0.823602954,0.271689089 C0.912551155,0.538642335 0.988644906,0.772396195 1.09021801,1.06455079 L1.09021801,1.06455079 L0.449102335,1.06455079 C0.366581359,0.780846948 0.303112514,0.547093088 0.226903991,0.271689089 L0.226903991,0.271689089 Z" id="path-3"></path>
        <path d="M0.368647253,0.0028692968 C0.286126278,0.378609454 0.203490529,0.754485503 0.1146571,1.13783559 L0.1146571,1.13783559 L1.32090948,1.13783559 C1.38426355,0.747011467 1.44141995,0.378609454 1.49857634,0.0028692968 L1.49857634,0.0028692968 L0.368647253,0.0028692968 Z M0.374959707,0.168249322 L0.97165867,0.168249322 C1.06691932,0.431199487 1.15575276,0.664253508 1.27006554,0.949897563 L1.27006554,0.949897563 L0.609782956,0.949897563 C0.520949527,0.686947399 0.444741005,0.431199487 0.374959707,0.168249322 L0.374959707,0.168249322 Z" id="path-5"></path>
        <path d="M0.656378018,0.039481524 L0.212096101,3.16265371 L0.491450837,3.16265371 L0.929420302,0.0902106915 C0.935847526,0.045793977 0.923107849,0.039481524 0.891430812,0.039481524 L0.891430812,0.039481524 L0.656378018,0.039481524 Z" id="path-7"></path>
        <path d="M7.70314374,0.0494666769 C7.0451566,0.0499257643 6.37672522,0.135316037 5.71081882,0.313786298 L5.71081882,0.313786298 C2.27741826,1.23379762 0.0104442404,4.33390066 0,7.72540949 L0,7.72540949 L0,7.77085914 C0.00195112182,8.423452 0.0874561666,9.08671865 0.264319621,9.74677169 L0.264319621,9.74677169 C1.36532619,13.8554899 5.58881631,16.2938184 9.69787888,15.1928118 L9.69787888,15.1928118 C13.8069414,14.09192 16.2453846,9.86877419 15.1443781,5.75994117 L15.1443781,5.75994117 C14.2226452,2.32057248 11.1126717,0.0516473425 7.71370275,0.0494666769 L7.71370275,0.0494666769 L7.70314374,0.0494666769 Z M8.94761515,4.88928175 C8.89045876,5.06706338 8.82067746,5.23199056 8.75066662,5.39083483 L8.75066662,5.39083483 L10.5789825,5.39083483 L10.4964616,5.90501282 L8.47142665,5.90501282 C8.36354109,6.07005477 8.24922831,6.22235704 8.12229062,6.35572196 L8.12229062,6.35572196 L9.79818949,6.35572196 C10.1600652,6.35572196 10.2044819,6.4889721 10.1408983,6.87632718 L10.1408983,6.87632718 C10.0965964,7.16187959 10.0458672,7.44754678 9.99502325,7.73952642 L9.99502325,7.73952642 L10.2553259,7.73952642 L10.1854298,8.26644409 L9.90618983,8.26644409 L9.73472064,9.22501877 L10.1917422,9.22501877 L10.102794,9.73919675 L9.63945999,9.73919675 C9.58861606,10.0185515 9.53788689,10.3105311 9.48084527,10.6025108 L9.48084527,10.6025108 L8.35711387,10.6025108 L8.21123882,10.0502285 L8.96655251,10.0502285 L9.0237089,9.73919675 L7.18276807,9.73919675 C7.32244544,9.25038335 7.45569559,8.76156995 7.58274805,8.26644409 L7.58274805,8.26644409 L7.27171627,8.26644409 L7.34149757,7.73952642 L7.71599819,7.73952642 C7.82399852,7.31429664 7.92545685,6.88252485 8.02071751,6.45729507 L8.02071751,6.45729507 C7.83662342,6.64127437 7.63347722,6.79369143 7.41127887,6.91431666 L7.41127887,6.91431666 L7.55738346,6.05731509 C7.83662342,5.84785643 8.14765519,5.40345974 8.28744733,4.88928175 L8.28744733,4.88928175 L8.94761515,4.88928175 C8.94761515,4.88928175 8.94761515,4.88928175 8.94761515,4.88928175 L8.94761515,4.88928175 Z M6.57332944,4.92727124 L7.16383071,4.92727124 C7.25266414,5.32093876 7.3605497,5.7716479 7.49379984,6.24772162 L7.49379984,6.24772162 L6.83363204,6.24772162 C6.75111105,5.83511675 6.66859008,5.36535547 6.57332944,4.92727124 L6.57332944,4.92727124 Z M5.10700399,5.24484501 L6.16715177,5.24484501 C6.4718711,5.24484501 6.52891271,5.32725122 6.484496,5.63828298 L6.484496,5.63828298 L5.96400556,9.43447743 L4.51661748,9.43447743 L5.10700399,5.24484501 Z M6.42745439,6.4889721 L7.00498644,6.4889721 C7.09393464,6.90157699 7.20824743,7.37776549 7.30970576,7.87931856 L7.30970576,7.87931856 L6.66227763,7.87931856 C6.57975666,7.40313006 6.49723568,6.92074389 6.42745439,6.4889721 L6.42745439,6.4889721 Z M6.49723568,8.42517359 L7.17014316,8.42517359 C6.82731958,9.26943548 6.52891271,9.91697838 6.14809964,10.6025108 L6.14809964,10.6025108 L5.39898364,10.6025108 C5.84980755,9.82814495 6.1417872,9.25038335 6.49723568,8.42517359 L6.49723568,8.42517359 Z" id="path-9"></path>
    </defs>
    <g id="腾讯翻译君" stroke="none" stroke-width="1" fill="none" fill-rule="evenodd" opacity="0.5">
        <g id="编组-3" transform="translate(0.000000, 0.500000)">
            <g id="编组" transform="translate(0.070868, 1.521397)">
                <path d="M18.523492,15.2215047 C17.5467834,17.0548706 15.6167796,18.3034738 13.3944518,18.3034738 C11.1720093,18.3034738 9.2420055,17.0548706 8.26529687,15.2215047 L6.18735212,15.2215047 C7.28858823,18.1307421 10.0992366,20.1998495 13.3944518,20.1998495 C16.6895523,20.1998495 19.5002006,18.1307421 20.6014368,15.2215047 L18.523492,15.2215047 Z" id="Fill-3" fill="#FFFFFF" fill-rule="nonzero"></path>
                <g id="Group-8" transform="translate(13.772624, 0.000000)">
                    <g id="Fill-6-Clipped">
                        <mask id="mask-2" fill="white">
                            <use xlink:href="#path-1"></use>
                        </mask>
                        <g id="path-1"></g>
                        <path d="M3.31828436,0.315048789 C2.04638248,0.655921249 0.93493167,1.29634829 0.0386781209,2.1393477 L0.0386781209,2.1393477 C0.91771589,3.09367582 1.58672113,4.2672182 1.94572754,5.60729458 L1.94572754,5.60729458 C2.70815709,8.45237452 1.89304725,11.3468064 0.0390224365,13.3673651 L0.0390224365,13.3673651 C1.91760843,15.1281952 4.63517683,15.9084144 7.30534443,15.1929266 L7.30534443,15.1929266 C11.4142922,14.0921496 13.8528502,9.8691185 12.7518436,5.76074458 L12.7518436,5.76074458 C11.8297664,2.32011339 8.71738277,0.0508439393 5.3166922,0.0507291674 L5.3166922,0.0507291674 C4.65675393,0.0507291674 3.98614189,0.13611944 3.31828436,0.315048789 L3.31828436,0.315048789 Z M5.21890656,5.595014 L4.98190265,6.93095858 L5.84923369,6.93095858 C6.5836589,6.93095858 6.83810814,7.09278692 6.83810814,7.52065646 L6.83810814,7.52065646 C6.83810814,7.69419153 6.79759367,7.948526 6.74548724,8.22615915 L6.74548724,8.22615915 L6.39279328,10.2096467 L5.67581339,10.2096467 L6.01691539,8.27815081 C6.06316845,8.02381635 6.08623761,7.86761183 6.08623761,7.7693671 L6.08623761,7.7693671 C6.08623761,7.59009345 5.99373148,7.52639505 5.6063764,7.52639505 L5.6063764,7.52639505 L4.8776898,7.52639505 L4.40930578,10.2096467 L3.6923259,10.2096467 L4.50181191,5.595014 L5.21890656,5.595014 Z M8.05801837,5.65297378 L8.79818217,5.65297378 L8.66516157,6.39302282 L7.924883,6.39302282 L8.05801837,5.65297378 Z M7.84408359,6.93095858 L8.56106349,6.93095858 L7.98858138,10.2096467 L7.27148673,10.2096467 L7.84408359,6.93095858 Z" id="Fill-6" fill="#FFFFFF" fill-rule="nonzero" mask="url(#mask-2)"></path>
                    </g>
                </g>
                <g id="Group-11" transform="translate(8.263575, 6.771540)">
                    <g id="Fill-9-Clipped">
                        <mask id="mask-4" fill="white">
                            <use xlink:href="#path-3"></use>
                        </mask>
                        <g id="path-3"></g>
                        <path d="M0.252383347,0.104786719 L0.0429246801,1.23975301 L1.1347495,1.23975301 L1.26799964,0.246487737 C1.28062455,0.154736705 1.28062455,0.104786719 1.20453079,0.104786719 L1.20453079,0.104786719 L0.252383347,0.104786719 Z M0.226903991,0.271689089 L0.823602954,0.271689089 C0.912551155,0.538642335 0.988644906,0.772396195 1.09021801,1.06455079 L1.09021801,1.06455079 L0.449102335,1.06455079 C0.366581359,0.780846948 0.303112514,0.547093088 0.226903991,0.271689089 L0.226903991,0.271689089 Z" id="Fill-9" fill="#FFFFFF" fill-rule="nonzero" mask="url(#mask-4)"></path>
                    </g>
                </g>
                <g id="Group-14" transform="translate(7.804487, 8.263575)">
                    <g id="Fill-12-Clipped">
                        <mask id="mask-6" fill="white">
                            <use xlink:href="#path-5"></use>
                        </mask>
                        <g id="path-5"></g>
                        <path d="M0.368647253,0.0028692968 C0.286126278,0.378609454 0.203490529,0.754485503 0.1146571,1.13783559 L0.1146571,1.13783559 L1.32090948,1.13783559 C1.38426355,0.747011467 1.44141995,0.378609454 1.49857634,0.0028692968 L1.49857634,0.0028692968 L0.368647253,0.0028692968 Z M0.374959707,0.168249322 L0.97165867,0.168249322 C1.06691932,0.431199487 1.15575276,0.664253508 1.27006554,0.949897563 L1.27006554,0.949897563 L0.609782956,0.949897563 C0.520949527,0.686947399 0.444741005,0.431199487 0.374959707,0.168249322 L0.374959707,0.168249322 Z" id="Fill-12" fill="#FFFFFF" fill-rule="nonzero" mask="url(#mask-6)"></path>
                    </g>
                </g>
                <g id="Group-17" transform="translate(4.958377, 5.738594)">
                    <g id="Fill-15-Clipped">
                        <mask id="mask-8" fill="white">
                            <use xlink:href="#path-7"></use>
                        </mask>
                        <g id="path-7"></g>
                        <path d="M0.656378018,0.039481524 L0.212096101,3.16265371 L0.491450837,3.16265371 L0.929420302,0.0902106915 C0.935847526,0.045793977 0.923107849,0.039481524 0.891430812,0.039481524 L0.891430812,0.039481524 L0.656378018,0.039481524 Z" id="Fill-15" fill="#FFFFFF" fill-rule="nonzero" mask="url(#mask-8)"></path>
                    </g>
                </g>
                <g id="Group-20" transform="translate(-0.000000, 0.000000)">
                    <g id="Fill-18-Clipped">
                        <mask id="mask-10" fill="white">
                            <use xlink:href="#path-9"></use>
                        </mask>
                        <g id="path-9"></g>
                        <path d="M7.70314374,0.0494666769 C7.0451566,0.0499257643 6.37672522,0.135316037 5.71081882,0.313786298 L5.71081882,0.313786298 C2.27741826,1.23379762 0.0104442404,4.33390066 0,7.72540949 L0,7.72540949 L0,7.77085914 C0.00195112182,8.423452 0.0874561666,9.08671865 0.264319621,9.74677169 L0.264319621,9.74677169 C1.36532619,13.8554899 5.58881631,16.2938184 9.69787888,15.1928118 L9.69787888,15.1928118 C13.8069414,14.09192 16.2453846,9.86877419 15.1443781,5.75994117 L15.1443781,5.75994117 C14.2226452,2.32057248 11.1126717,0.0516473425 7.71370275,0.0494666769 L7.71370275,0.0494666769 L7.70314374,0.0494666769 Z M8.94761515,4.88928175 C8.89045876,5.06706338 8.82067746,5.23199056 8.75066662,5.39083483 L8.75066662,5.39083483 L10.5789825,5.39083483 L10.4964616,5.90501282 L8.47142665,5.90501282 C8.36354109,6.07005477 8.24922831,6.22235704 8.12229062,6.35572196 L8.12229062,6.35572196 L9.79818949,6.35572196 C10.1600652,6.35572196 10.2044819,6.4889721 10.1408983,6.87632718 L10.1408983,6.87632718 C10.0965964,7.16187959 10.0458672,7.44754678 9.99502325,7.73952642 L9.99502325,7.73952642 L10.2553259,7.73952642 L10.1854298,8.26644409 L9.90618983,8.26644409 L9.73472064,9.22501877 L10.1917422,9.22501877 L10.102794,9.73919675 L9.63945999,9.73919675 C9.58861606,10.0185515 9.53788689,10.3105311 9.48084527,10.6025108 L9.48084527,10.6025108 L8.35711387,10.6025108 L8.21123882,10.0502285 L8.96655251,10.0502285 L9.0237089,9.73919675 L7.18276807,9.73919675 C7.32244544,9.25038335 7.45569559,8.76156995 7.58274805,8.26644409 L7.58274805,8.26644409 L7.27171627,8.26644409 L7.34149757,7.73952642 L7.71599819,7.73952642 C7.82399852,7.31429664 7.92545685,6.88252485 8.02071751,6.45729507 L8.02071751,6.45729507 C7.83662342,6.64127437 7.63347722,6.79369143 7.41127887,6.91431666 L7.41127887,6.91431666 L7.55738346,6.05731509 C7.83662342,5.84785643 8.14765519,5.40345974 8.28744733,4.88928175 L8.28744733,4.88928175 L8.94761515,4.88928175 C8.94761515,4.88928175 8.94761515,4.88928175 8.94761515,4.88928175 L8.94761515,4.88928175 Z M6.57332944,4.92727124 L7.16383071,4.92727124 C7.25266414,5.32093876 7.3605497,5.7716479 7.49379984,6.24772162 L7.49379984,6.24772162 L6.83363204,6.24772162 C6.75111105,5.83511675 6.66859008,5.36535547 6.57332944,4.92727124 L6.57332944,4.92727124 Z M5.10700399,5.24484501 L6.16715177,5.24484501 C6.4718711,5.24484501 6.52891271,5.32725122 6.484496,5.63828298 L6.484496,5.63828298 L5.96400556,9.43447743 L4.51661748,9.43447743 L5.10700399,5.24484501 Z M6.42745439,6.4889721 L7.00498644,6.4889721 C7.09393464,6.90157699 7.20824743,7.37776549 7.30970576,7.87931856 L7.30970576,7.87931856 L6.66227763,7.87931856 C6.57975666,7.40313006 6.49723568,6.92074389 6.42745439,6.4889721 L6.42745439,6.4889721 Z M6.49723568,8.42517359 L7.17014316,8.42517359 C6.82731958,9.26943548 6.52891271,9.91697838 6.14809964,10.6025108 L6.14809964,10.6025108 L5.39898364,10.6025108 C5.84980755,9.82814495 6.1417872,9.25038335 6.49723568,8.42517359 L6.49723568,8.42517359 Z" id="Fill-18" fill="#FFFFFF" fill-rule="nonzero" mask="url(#mask-10)"></path>
                    </g>
                </g>
            </g>
            <text id="腾讯翻译君" font-family="PingFangSC-Medium, PingFang SC" font-size="16" font-weight="400" fill="#FFFFFF">
                <tspan x="31.0952464" y="17.0213967">腾讯翻译君</tspan>
            </text>
        </g>
    </g>
</svg>