<?xml version="1.0" encoding="UTF-8"?>
<svg width="32px" height="32px" viewBox="0 0 32 32" version="1.1" xmlns="http://www.w3.org/2000/svg" xmlns:xlink="http://www.w3.org/1999/xlink">
    <!-- Generator: Sketch 52.6 (67491) - http://www.bohemiancoding.com/sketch -->
    <title>智能机器人-32px</title>
    <desc>Created with Sketch.</desc>
    <g id="智能机器人-32px" stroke="none" stroke-width="1" fill="none" fill-rule="evenodd">
        <rect id="Rectangle-Copy" fill="#444444" opacity="0" x="0" y="0" width="32" height="32"></rect>
        <path d="M22,15 L22,12.3076923 C22,10.465027 20.6396177,9 19,9 L12,9 C10.3603823,9 9,10.465027 9,12.3076923 L9,12.8461538 L7,12.8461538 L7,12.3076923 C7,9.39221203 9.22133975,7 12,7 L19,7 C21.7786603,7 24,9.39221203 24,12.3076923 L24,15 L24,17 L0,17 L0,15 L0.0328045547,15 C0.54739064,7.18196818 7.0517573,1 15,1 C22.6787655,1 29.0099016,6.76988738 29.8943776,14.2106315 C30.5499438,14.5389406 31,15.2169122 31,16 C31,17.1045695 30.1045695,18 29,18 C27.8954305,18 27,17.1045695 27,16 C27,15.3043073 27.3552063,14.6915774 27.8941515,14.333278 C27.0760189,7.94073325 21.6149945,3 15,3 C8.15677025,3 2.5485145,8.28755229 2.03788963,15 L22,15 Z M16.6651564,28.8918002 C21.3464295,28.2796397 25.345977,25.1181631 27.0665636,20.6412571 L28.9334364,21.3587429 C26.9337135,26.5619518 22.2569771,30.2283761 16.790592,30.8919305 C16.4627458,31.5488236 15.7840618,32 15,32 C13.8954305,32 13,31.1045695 13,30 C13,28.8954305 13.8954305,28 15,28 C15.6946805,28 16.3066394,28.3541735 16.6651564,28.8918002 Z M19,10 C19.5522847,10 20,10.4477153 20,11 L20,13 C20,13.5522847 19.5522847,14 19,14 C18.4477153,14 18,13.5522847 18,13 L18,11 C18,10.4477153 18.4477153,10 19,10 Z M12,10 C12.5522847,10 13,10.4477153 13,11 L13,13 C13,13.5522847 12.5522847,14 12,14 C11.4477153,14 11,13.5522847 11,13 L11,11 C11,10.4477153 11.4477153,10 12,10 Z M20.2005984,19.399203 L21.7994016,20.600797 C21.1427996,21.4744511 20.1141829,22 19.0000946,22 L11.9965403,22 C10.885214,22 9.85884114,21.4770601 9.20193706,20.6070413 L10.7980629,19.4018931 C11.0810237,19.7766528 11.5193866,20 11.9965403,20 L19.0000946,20 C19.4784275,20 19.9177674,19.775529 20.2005984,19.399203 Z" id="Combined-Shape" fill="#00A4FF" fill-rule="nonzero"></path>
    </g>
</svg>