<?xml version="1.0" encoding="utf-8"?>
<!-- Generator: Adobe Illustrator 22.0.0, SVG Export Plug-In . SVG Version: 6.00 Build 0)  -->
<svg version="1.1" id="图层_1" xmlns="http://www.w3.org/2000/svg" xmlns:xlink="http://www.w3.org/1999/xlink" x="0px" y="0px"
	 viewBox="0 0 48 48" style="enable-background:new 0 0 48 48;" xml:space="preserve">
<style type="text/css">
	.st0{fill:#334966;}
	.st1{fill:#00A4FF;}
</style>
<path class="st0" d="M48,39V3H0v36h20v4h-8v2h8h2h4h2h8v-2h-8v-4H48z M26,43h-4v-4h4V43z M26,37h-4h-2H2V5h44v32H28H26z"/>
<path class="st1" d="M24.5,13v10.5H14c0.3,5.3,4.6,9.5,10,9.5c5.5,0,10-4.5,10-10C34,17.6,29.8,13.3,24.5,13z"/>
<path class="st1" d="M14.1,21.5h8.4v-8.4C18.2,13.8,14.8,17.2,14.1,21.5z"/>
<path class="st0" d="M23.4,8.5C16,9.1,10.1,15,9.5,22.4l-0.1,1.1H14h10.5V13V8.4L23.4,8.5z M22.5,21.5h-8.4h-2.5
	c0.9-5.5,5.3-10,10.9-10.9v2.5V21.5z"/>
</svg>
