<?xml version="1.0" encoding="UTF-8"?>
<svg width="32px" height="32px" viewBox="0 0 32 32" version="1.1" xmlns="http://www.w3.org/2000/svg" xmlns:xlink="http://www.w3.org/1999/xlink">
    <!-- Generator: Sketch 52.6 (67491) - http://www.bohemiancoding.com/sketch -->
    <title>腾讯智慧建筑运营系统-32px-灰</title>
    <desc>Created with Sketch.</desc>
    <g id="腾讯智慧建筑运营系统-32px-灰" stroke="none" stroke-width="1" fill="none" fill-rule="evenodd">
        <rect id="Rectangle-Copy" fill="#444444" opacity="0" x="0" y="0" width="32" height="32"></rect>
        <path d="M27.1105505,27.4060606 L1.55151515,27.4060606 L1.55151515,10.0484848 L3.49090909,10.0484848 L3.49090909,25.4666667 L27.3225763,25.4666667 C27.6905606,24.9391077 28.3019408,24.5939394 28.9939394,24.5939394 C30.118592,24.5939394 31.030303,25.5056504 31.030303,26.630303 C31.030303,27.7549556 30.118592,28.6666667 28.9939394,28.6666667 C28.1439685,28.6666667 27.415625,28.1459175 27.1105505,27.4060606 Z M4.69551007,3.64848485 L30.2545455,3.64848485 L30.2545455,21.0060606 L28.3151515,21.0060606 L28.3151515,5.58787879 L4.48348433,5.58787879 C4.1155,6.1154378 3.50411979,6.46060606 2.81212121,6.46060606 C1.68746863,6.46060606 0.775757576,5.54889501 0.775757576,4.42424242 C0.775757576,3.29958984 1.68746863,2.38787879 2.81212121,2.38787879 C3.66209213,2.38787879 4.39043556,2.90862795 4.69551007,3.64848485 Z M10.6666667,22.8484848 L5.52727273,13.5393939 L10.569697,13.5393939 L12.4121212,15.769697 L15.8060606,10.2424242 L25.8909091,9.17575758 L14.2545455,22.8484848 L10.6666667,22.8484848 Z M13.3818182,20.9090909 L21.6242424,11.2121212 L16.969697,11.6969697 L12.6060606,18.8727273 L9.6969697,15.2848485 L8.72727273,15.2848485 L11.830303,20.9090909 L13.3818182,20.9090909 Z" id="Combined-Shape" fill="#7C848E"></path>
    </g>
</svg>