<?xml version="1.0" encoding="utf-8"?>
<!-- Generator: Adobe Illustrator 21.0.0, SVG Export Plug-In . SVG Version: 6.00 Build 0)  -->
<svg version="1.1" id="svgwrapper_svg" xmlns="http://www.w3.org/2000/svg" xmlns:xlink="http://www.w3.org/1999/xlink" x="0px"
	 y="0px" width="830px" height="180px" viewBox="0 0 830 180" style="enable-background:new 0 0 830 180;" xml:space="preserve">
<style type="text/css">
	.st0{fill-opacity:0;}
	.st1{fill:#444444;}
	.st2{display:none;fill:none;stroke:#999999;}
	.st3{fill:none;stroke:#BABABA;stroke-miterlimit:10;stroke-dasharray:6,4;}
	.st4{fill:none;stroke:#888888;}
	.st5{fill:#888888;}
	.st6{fill:none;stroke:#FF0000;stroke-width:15;stroke-opacity:0;}
	.st7{opacity:0.6;fill:#BBBBBB;enable-background:new    ;}
	.st8{fill:#FFFFFF;stroke:#E5E5E5;}
	.st9{enable-background:new    ;}
	.st10{fill:#00A4FF;}
</style>
<rect x="484" y="29" class="st0" width="184" height="107"/>
<rect x="152" y="29" class="st0" width="184" height="107"/>
<g>
	<path class="st1" d="M167.9,41.6h0.8V46h5.2v0.7h-5.2V53h6.5v0.7h-12.4V53h5.1V41.6z"/>
	<path class="st1" d="M180,41.8c-0.8,1.9-1.5,3.5-2.3,4.6c0.7-0.1,1.4-0.2,2.2-0.3c0.6-1.2,0.9-1.7,0.9-1.7l0.7,0.3
		c-1.3,2.5-2.4,4.2-3.3,5.2c1.2-0.2,2.2-0.5,3.3-0.8v0.7c-1.5,0.5-2.9,0.8-4.2,1L177,50c0.1-0.1,0.2-0.1,0.4-0.2
		c0.6-0.6,1.2-1.6,2.1-3c-0.9,0.1-1.7,0.2-2.5,0.3l-0.2-0.7c0.1-0.1,0.2-0.2,0.3-0.3c0.8-1.3,1.5-2.8,2.2-4.6L180,41.8z M181.6,52.5
		c-1.4,0.6-3,1-4.7,1.3l-0.1-0.7c1.8-0.3,3.4-0.8,4.8-1.3V52.5z M188.3,44.1l0.1,0.7l-3.7,0.5c0,0.8,0.1,1.5,0.1,2.1l3.8-0.6
		l0.1,0.7l-3.8,0.6c0,0.2,0.1,0.5,0.2,1c0.1,0.7,0.3,1.4,0.6,2c0.8-0.7,1.5-1.6,2.2-2.6l0.6,0.4c-0.8,1.1-1.6,2.1-2.5,2.9
		c0.1,0.2,0.2,0.4,0.3,0.5c0.5,0.7,0.9,1,1.3,1s0.7-0.8,1-2.4l0.7,0.4c-0.4,1.9-0.9,2.8-1.6,2.8c-0.7,0-1.3-0.4-1.9-1.3
		c-0.1-0.2-0.2-0.4-0.4-0.6c-1.1,0.8-2.2,1.4-3.4,1.8l-0.4-0.6c1.3-0.4,2.5-1,3.6-1.8c-0.3-0.6-0.5-1.3-0.7-2.1
		c-0.1-0.3-0.1-0.7-0.2-1.2l-2.6,0.4l-0.1-0.7l2.6-0.4c-0.1-0.6-0.1-1.4-0.1-2.1l-2.1,0.3l-0.1-0.7l2.2-0.3v-3.2h0.8v3.1L188.3,44.1
		z M186.3,41.6c0.7,0.7,1.3,1.3,1.8,1.8l-0.6,0.4c-0.4-0.5-1-1.1-1.7-1.8L186.3,41.6z"/>
	<path class="st1" d="M200.3,41.8c-0.3,0.6-0.6,1.2-1,1.7h3.9v0.8h-12.5v-0.8h4c-0.3-0.7-0.6-1.3-1-1.7l0.8-0.1
		c0.3,0.5,0.7,1.1,1,1.9h2.9c0.4-0.6,0.8-1.2,1.1-1.9L200.3,41.8z M194.5,54.3l-0.2-0.7l1.1,0c0.4,0,0.6-0.2,0.6-0.7v-1.6h-3.4v3.1
		h-0.7v-8.9h4.9V53c0,0.8-0.4,1.3-1.1,1.3H194.5z M192.5,48.1h3.4v-1.8h-3.4V48.1z M192.5,50.6h3.4v-1.8h-3.4V50.6z M198.5,46.1h0.8
		v6.1h-0.8V46.1z M199.2,54.2l-0.2-0.7c0.6,0,1.2,0,1.7,0c0.4,0,0.7-0.2,0.7-0.7v-7.8h0.8v8c0,0.8-0.4,1.2-1.1,1.2H199.2z"/>
</g>
<g>
	<path class="st1" d="M500.7,41.6h0.8V46h5.2v0.7h-5.2V53h6.5v0.7h-12.4V53h5.1V41.6z"/>
	<path class="st1" d="M512.7,41.8c-0.8,1.9-1.5,3.5-2.3,4.6c0.7-0.1,1.4-0.2,2.2-0.3c0.6-1.2,0.9-1.7,0.9-1.7l0.7,0.3
		c-1.3,2.5-2.4,4.2-3.3,5.2c1.2-0.2,2.2-0.5,3.3-0.8v0.7c-1.5,0.5-2.9,0.8-4.2,1l-0.2-0.7c0.1-0.1,0.2-0.1,0.3-0.2
		c0.6-0.6,1.2-1.6,2.1-3c-0.9,0.1-1.7,0.2-2.5,0.3l-0.2-0.7c0.1-0.1,0.2-0.2,0.3-0.3c0.8-1.3,1.5-2.8,2.2-4.6L512.7,41.8z
		 M514.3,52.5c-1.4,0.6-3,1-4.7,1.3l-0.1-0.7c1.8-0.3,3.4-0.8,4.8-1.3V52.5z M521,44.1l0.1,0.7l-3.7,0.5c0,0.8,0.1,1.5,0.1,2.1
		l3.8-0.6l0.1,0.7l-3.8,0.6c0,0.2,0.1,0.5,0.2,1c0.1,0.7,0.3,1.4,0.6,2c0.8-0.7,1.5-1.6,2.2-2.6l0.6,0.4c-0.8,1.1-1.6,2.1-2.5,2.9
		c0.1,0.2,0.2,0.4,0.3,0.5c0.5,0.7,0.9,1,1.3,1s0.7-0.8,1-2.4l0.7,0.4c-0.4,1.9-0.9,2.8-1.6,2.8c-0.7,0-1.3-0.4-1.9-1.3
		c-0.1-0.2-0.2-0.4-0.4-0.6c-1.1,0.8-2.2,1.4-3.4,1.8l-0.4-0.6c1.3-0.4,2.5-1,3.6-1.8c-0.3-0.6-0.5-1.3-0.7-2.1
		c-0.1-0.3-0.1-0.7-0.2-1.2l-2.6,0.4l-0.1-0.7l2.6-0.4c-0.1-0.6-0.1-1.4-0.1-2.1l-2.1,0.3l-0.1-0.7l2.2-0.3v-3.2h0.8v3.1L521,44.1z
		 M519,41.6c0.7,0.7,1.3,1.3,1.8,1.8l-0.6,0.4c-0.4-0.5-1-1.1-1.7-1.8L519,41.6z"/>
	<path class="st1" d="M525.8,46.3v0.5c-0.1,3.1-0.7,5.6-1.9,7.5l-0.6-0.6c1.1-1.7,1.7-4,1.8-6.9v-4.1c3.5,0,6.7-0.4,9.7-1l0.4,0.7
		c-2.7,0.6-5.8,0.9-9.3,1v2.2H536v0.7H525.8z M534.8,48.5v5.8h-0.8v-0.7H528v0.7h-0.8v-5.8H534.8z M528,52.9h6.1v-3.6H528V52.9z"/>
</g>
<path class="st2" d="M648,82.5l53-1.5"/>
<path class="st3" d="M484,29h184v107H484V29"/>
<path class="st3" d="M152,29h184v107H152V29"/>
<g id="middlegroup" transform="translate(0,0)">
	<g id="Link9" transform="translate(0,0)">
		<path class="st4" d="M335.5,82.5h143"/>
		<g transform="translate(0.5, 0)">
			<polygon class="st5" points="473.5,87 479.5,82.5 473.5,78 			"/>
		</g>
		<path class="st6" d="M335.5,82.5h143"/>
	</g>
</g>
<rect x="511" y="69" class="st7" width="134" height="50"/>
<rect x="509" y="67" class="st8" width="134" height="50"/>
<g transform="translate(24,9)">
	<g class="st9">
		<path class="st1" d="M529.4,76.6h1v2.6h1.6v1h-1.6v1.1c0.7,0.7,1.3,1.5,2.1,2.3l-0.6,0.9c-0.6-0.9-1.1-1.6-1.5-2.1v7h-1v-7
			c-0.4,1.3-1,2.6-1.7,3.7l-0.4-1.1c1-1.4,1.7-2.9,2.1-4.7h-1.7v-1h1.7V76.6z M534.4,83.1c-0.4,1.9-1.1,3.6-1.9,5.1l-0.9-0.6
			c0.9-1.4,1.5-3,1.9-4.7L534.4,83.1z M534,89.2l-0.2-0.9c0.6,0,1,0.1,1.3,0.1c0.4,0,0.6-0.2,0.6-0.6v-6h-3.4v-1h7.9v1h-3.5V88
			c0,0.8-0.4,1.2-1.2,1.2H534z M533,77.4h6.4v1H533V77.4z M538.6,82.9c0.6,1.6,1.1,3.3,1.5,5.1l-0.9,0.4c-0.5-1.9-1-3.7-1.5-5.2
			L538.6,82.9z"/>
		<path class="st1" d="M542.3,77c1,1.3,1.7,2.3,2.2,3.2l-0.8,0.6c-0.5-0.9-1.3-2-2.2-3.2L542.3,77z M544.5,83.5
			c-0.6,2-1.3,3.9-2.2,5.8l-1-0.4c0.9-2,1.6-3.9,2.2-5.8L544.5,83.5z M546.9,88.6v0.8h-1v-8.3c-0.4,0.6-0.8,1.3-1.3,1.9l-0.3-1.1
			c1.2-1.6,2.1-3.5,2.6-5.4l1,0.2c-0.2,0.8-0.5,1.5-0.8,2.2h3c-0.2-0.8-0.5-1.5-0.8-2.2l1-0.3c0.3,0.8,0.6,1.6,0.8,2.4l-0.4,0.1h3.1
			v1h-3v1.9h2.7v0.9h-2.7v1.9h2.7v0.9h-2.7v2.1h3.2v0.9L546.9,88.6L546.9,88.6z M549.8,79.9h-2.9v1.9h2.9V79.9z M546.9,82.8v1.9h2.9
			v-1.9C549.8,82.8,546.9,82.8,546.9,82.8z M546.9,85.6v2.1h2.9v-2.1H546.9z"/>
		<path class="st1" d="M555.9,78.1h3.2c-0.2-0.4-0.5-0.9-0.8-1.3l1-0.4c0.3,0.4,0.6,1,0.8,1.6h3.1c0.3-0.5,0.6-1.1,0.8-1.7l1,0.3
			c-0.2,0.5-0.4,0.9-0.7,1.3h3.3V79h-3.9v1.2h2.9v2.1h1.5v0.9h-1.5v2.1H564c0.9,1.2,2.3,2.1,4.2,2.8l-0.5,1c-1.8-0.8-3.1-1.9-4-3.1
			v3.5h-1v-4.2h-2.1v4.2h-1V86c-0.9,1.2-2.1,2.2-3.7,3.1l-0.6-0.9c1.8-0.7,3.1-1.7,4-2.8h-2.6v-0.9h2.9v-1.2h-4.1v-0.9h4.1v-1.3
			h-2.7v-0.9h2.7V79h-3.7V78.1L555.9,78.1z M562.6,80.2V79h-2.1v1.2H562.6z M560.5,81.1v1.3h2.1v-1.3H560.5z M560.5,83.2v1.2h2.1
			v-1.2H560.5z M563.6,81.1v1.3h1.9v-1.3H563.6z M563.6,83.2v1.2h1.9v-1.2H563.6z"/>
		<path class="st1" d="M576.1,81c1.1,1.4,3.1,2.6,5.9,3.7l-0.5,0.8c-0.6-0.2-1.1-0.4-1.6-0.7v4.6h-1v-0.6h-6.2v0.6h-1v-4.6
			c-0.5,0.2-1.1,0.5-1.7,0.7l-0.5-0.8c2.6-1,4.5-2.2,5.9-3.7C575.4,81,576.1,81,576.1,81z M574.7,79.9c-1.2,1-2.7,1.9-4.4,2.7
			l-0.6-0.8c1.7-0.7,3.1-1.6,4.3-2.5L574.7,79.9z M575.9,76.5c0.1,0.3,0.3,0.7,0.5,1.2h5.1v2.5h-1v-1.6H571v1.6h-1v-2.6h5.3
			c-0.2-0.4-0.3-0.7-0.5-1.1H575.9z M579.7,84.8c-1.7-0.8-3-1.8-4-2.9c-1.1,1.2-2.4,2.1-4,2.9H579.7z M572.7,87.9h6.3v-2.2h-6.3
			V87.9z M577.3,79.3c1.7,0.9,3.1,1.8,4.3,2.6l-0.7,0.7c-1-0.8-2.4-1.7-4.2-2.7L577.3,79.3z"/>
		<path class="st1" d="M584,80.3c0.8,0.7,1.4,1.3,2,2.1l-0.7,0.7c-0.5-0.6-1.1-1.3-2-2.1L584,80.3z M586.1,84.4
			c-0.5,1.7-1.1,3.3-1.8,4.9l-0.9-0.4c0.7-1.6,1.3-3.2,1.8-4.8L586.1,84.4z M584.2,76.8c0.8,0.7,1.5,1.3,2,1.9l-0.7,0.7
			c-0.5-0.6-1.2-1.3-2-1.9L584.2,76.8z M588.7,79.1h0.8v4.4c0,1.6-0.3,2.9-0.8,3.8c-0.5,0.9-1.2,1.6-2.3,2.1l-0.5-0.8
			c1-0.5,1.7-1.1,2.1-1.9c0.4-0.8,0.6-1.9,0.6-3.2L588.7,79.1L588.7,79.1z M591.4,77.2v8.5h-0.9V78h-2.9v7.8h-0.9v-8.6
			C586.7,77.2,591.4,77.2,591.4,77.2z M589.9,86.4c0.8,0.7,1.5,1.5,2.1,2.3l-0.7,0.7c-0.5-0.8-1.2-1.5-2.1-2.4L589.9,86.4z
			 M592.5,77.8h0.9v8.7h-0.9V77.8z M592.9,89.3l-0.2-0.9c0.5,0,1,0.1,1.4,0.1c0.3,0,0.5-0.2,0.5-0.6V76.6h1v11.5
			c0,0.8-0.4,1.2-1.1,1.2C594.5,89.3,592.9,89.3,592.9,89.3z"/>
		<path class="st1" d="M597.3,80.8h2.9V87c0.3-0.3,0.8-0.8,1.3-1.3l0.3,1.1c-0.8,0.8-1.6,1.6-2.5,2.2l-0.4-0.9
			c0.2-0.2,0.3-0.4,0.3-0.6v-5.6h-2v-1.1H597.3z M599,76.7c0.9,0.7,1.6,1.4,2.3,2.2l-0.7,0.7c-0.6-0.7-1.3-1.4-2.3-2.2L599,76.7z
			 M607.3,88.1c-0.4-0.8-0.7-2-0.9-3.4c-0.1-1.2-0.3-2.7-0.3-4.6h-4.4v-1h4.4c0-0.5,0-1.4,0-2.6h1c0,1.2,0,2,0,2.6h2.8v1h-2.8
			c0.1,2.4,0.2,4.2,0.4,5.6c0.3,1.6,0.7,2.4,1.1,2.5c0.3-0.1,0.6-0.9,0.9-2.6l0.8,0.6c-0.5,2-1,3-1.7,3
			C608.1,89.2,607.7,88.8,607.3,88.1z M603.3,83.2H602v-0.9h3.6v0.9h-1.3V87c0.7-0.1,1.3-0.3,1.8-0.5v0.9c-1.2,0.3-2.5,0.6-3.9,0.9
			l-0.3-1c0.5-0.1,0.9-0.1,1.4-0.2V83.2L603.3,83.2z M608.2,76.5c0.6,0.7,1.1,1.2,1.4,1.8l-0.7,0.5c-0.3-0.5-0.8-1.1-1.4-1.8
			L608.2,76.5z"/>
	</g>
</g>
<rect x="179" y="69" class="st7" width="134" height="50"/>
<rect x="177" y="67" class="st8" width="134" height="50"/>
<g transform="translate(24.5,9)">
	<g class="st9">
		<path class="st1" d="M195.2,80.8h4c0.1-0.5,0.3-1,0.4-1.7h-3.5v-0.9h3.7c0.1-0.4,0.2-0.9,0.4-1.7l1,0.1l-0.3,1.6h6v0.9h-6.2
			c-0.1,0.6-0.3,1.2-0.4,1.7h7.5v1H200c-0.1,0.4-0.3,1.1-0.6,1.8h6.7v0.9c-0.7,1.1-1.7,2.1-3.2,3.1c0.8,0.3,1.6,0.6,2.4,1l-0.6,0.9
			c-2.1-1-4.2-1.8-6.5-2.5l0.5-0.8c0.9,0.3,1.9,0.6,3,0.9c1.3-0.8,2.3-1.7,3.1-2.7h-6.9c0.4-1,0.7-1.9,1-2.8h-3.7V80.8z"/>
		<path class="st1" d="M216.8,84.2c0.2,0.7,0.4,1.4,0.4,2.2c0,1.1-0.1,1.9-0.4,2.3c-0.3,0.5-1.1,0.7-2.3,0.7H214l-0.3-0.9h0.7
			c0.8,0,1.3-0.1,1.6-0.4c0.3-0.3,0.4-0.9,0.4-1.8c0-0.3,0-0.5-0.1-0.7c-1.6,1.2-3.6,2.2-6.1,3l-0.5-0.9c2.8-0.8,5-1.9,6.5-3.1
			c-0.1-0.4-0.3-0.8-0.4-1c-1.3,1-3.1,1.9-5.4,2.5l-0.5-0.9c2.4-0.6,4.2-1.4,5.4-2.4c-0.1-0.2-0.3-0.5-0.6-0.7l-0.3,0.2
			c-1,0.4-2.2,0.9-3.8,1.3l-0.5-0.8c1.4-0.3,2.6-0.7,3.6-1.1c0.6-0.3,1.1-0.5,1.4-0.7h-3.7v-0.9h8.4V81h-3.3
			c-0.5,0.3-0.9,0.6-1.1,0.7c0.5,0.5,0.9,1.1,1.2,1.6c1.3-0.4,2.5-0.9,3.7-1.7l0.7,0.7c-0.8,0.5-1.6,0.9-2.4,1.2
			c0.7,1.8,1.7,3.2,3.2,4.2l-0.7,0.8c-1.5-1.3-2.6-2.8-3.3-4.7L216.8,84.2z M215.7,76.5c0.1,0.3,0.3,0.8,0.5,1.3h5.3v2.4h-1v-1.5
			h-9.8v1.5h-1v-2.4h5.5c-0.1-0.4-0.3-0.8-0.5-1.1L215.7,76.5z"/>
		<path class="st1" d="M223.7,78.1h3.2c-0.2-0.4-0.5-0.9-0.8-1.3l1-0.4c0.3,0.4,0.6,1,0.8,1.6h3.1c0.3-0.5,0.6-1.1,0.8-1.7l1,0.3
			c-0.2,0.5-0.4,0.9-0.7,1.3h3.3V79h-3.9v1.2h2.9v2.1h1.5v0.9h-1.5v2.1h-2.6c0.9,1.2,2.3,2.1,4.2,2.8l-0.5,1c-1.8-0.8-3.1-1.9-4-3.1
			v3.5h-1v-4.2h-2.1v4.2h-1V86c-0.9,1.2-2.1,2.2-3.7,3.1l-0.6-0.9c1.8-0.7,3.1-1.7,4-2.8h-2.6v-0.9h2.9v-1.2h-4.1v-0.9h4.1v-1.3
			h-2.7v-0.9h2.7V79h-3.7C223.7,79,223.7,78.1,223.7,78.1z M230.4,80.2V79h-2.1v1.2H230.4z M228.3,81.1v1.3h2.1v-1.3H228.3z
			 M228.3,83.2v1.2h2.1v-1.2H228.3z M231.4,81.1v1.3h1.9v-1.3H231.4z M231.4,83.2v1.2h1.9v-1.2H231.4z"/>
		<path class="st1" d="M243.9,81c1.1,1.4,3.1,2.6,5.9,3.7l-0.5,0.8c-0.6-0.2-1.1-0.4-1.6-0.7v4.6h-1v-0.6h-6.3v0.6h-1v-4.6
			c-0.5,0.2-1.1,0.5-1.7,0.7l-0.5-0.8c2.6-1,4.5-2.2,5.9-3.7C243.1,81,243.9,81,243.9,81z M242.5,79.9c-1.2,1-2.7,1.9-4.4,2.7
			l-0.6-0.8c1.7-0.7,3.1-1.6,4.3-2.5L242.5,79.9z M243.7,76.5c0.1,0.3,0.3,0.7,0.5,1.2h5.1v2.5h-1v-1.6h-9.5v1.6h-1v-2.6h5.3
			c-0.2-0.4-0.3-0.7-0.5-1.1H243.7z M247.5,84.8c-1.7-0.8-3-1.8-4-2.9c-1.1,1.2-2.5,2.1-4,2.9H247.5z M240.4,87.9h6.3v-2.2h-6.3
			V87.9z M245.1,79.3c1.7,0.9,3.1,1.8,4.3,2.6l-0.7,0.7c-1-0.8-2.4-1.7-4.2-2.7L245.1,79.3z"/>
		<path class="st1" d="M251.8,80.3c0.8,0.7,1.4,1.3,2,2.1l-0.7,0.7c-0.5-0.6-1.1-1.3-2-2.1L251.8,80.3z M253.9,84.4
			c-0.5,1.7-1.1,3.3-1.8,4.9l-0.9-0.4c0.7-1.6,1.3-3.2,1.8-4.8L253.9,84.4z M252,76.8c0.8,0.7,1.5,1.3,2,1.9l-0.7,0.7
			c-0.5-0.6-1.2-1.3-2-1.9L252,76.8z M256.5,79.1h0.8v4.4c0,1.6-0.3,2.9-0.8,3.8c-0.5,0.9-1.2,1.6-2.3,2.1l-0.5-0.8
			c1-0.5,1.7-1.1,2.1-1.9c0.4-0.8,0.6-1.9,0.6-3.2v-4.4H256.5z M259.2,77.2v8.5h-0.9V78h-2.9v7.8h-0.9v-8.6
			C254.5,77.2,259.2,77.2,259.2,77.2z M257.7,86.4c0.8,0.7,1.5,1.5,2.1,2.3l-0.7,0.7c-0.5-0.8-1.2-1.5-2.1-2.4L257.7,86.4z
			 M260.3,77.8h0.9v8.7h-0.9V77.8z M260.7,89.3l-0.2-0.9c0.5,0,1,0.1,1.4,0.1c0.3,0,0.5-0.2,0.5-0.6V76.6h1v11.5
			c0,0.8-0.4,1.2-1.1,1.2C262.3,89.3,260.7,89.3,260.7,89.3z"/>
		<path class="st1" d="M265.1,80.8h2.9V87c0.3-0.3,0.8-0.8,1.3-1.3l0.3,1.1c-0.8,0.8-1.6,1.6-2.5,2.2l-0.4-0.9
			c0.2-0.2,0.3-0.4,0.3-0.6v-5.6h-2v-1.1H265.1z M266.8,76.7c0.9,0.7,1.6,1.4,2.3,2.2l-0.7,0.7c-0.6-0.7-1.3-1.4-2.3-2.2L266.8,76.7
			z M275.1,88.1c-0.4-0.8-0.7-2-0.9-3.4c-0.1-1.2-0.3-2.7-0.3-4.6h-4.4v-1h4.4c0-0.5,0-1.4,0-2.6h1c0,1.2,0,2,0,2.6h2.8v1h-2.8
			c0.1,2.4,0.2,4.2,0.4,5.6c0.3,1.6,0.7,2.4,1.1,2.5c0.3-0.1,0.6-0.9,0.9-2.6l0.8,0.6c-0.5,2-1,3-1.7,3
			C275.9,89.2,275.5,88.8,275.1,88.1z M271.1,83.2h-1.3v-0.9h3.6v0.9h-1.3V87c0.7-0.1,1.3-0.3,1.8-0.5v0.9c-1.2,0.3-2.5,0.6-3.9,0.9
			l-0.3-1c0.5-0.1,0.9-0.1,1.4-0.2V83.2z M276,76.5c0.6,0.7,1.1,1.2,1.4,1.8l-0.7,0.5c-0.3-0.5-0.8-1.1-1.4-1.8L276,76.5z"/>
	</g>
</g>
<g id="textgroup" transform="translate(0,0)">
</g>
<g id="assistantgroup" transform="translate(0,0)">
</g>
<g id="XMLID_639_">
	<polygon id="XMLID_676_" class="st10" points="541.7,100.8 541.7,76.8 519.7,76.8 519.7,106.8 541.7,106.8 541.7,104.8 
		539.7,104.8 539.7,104.8 521.7,104.8 521.7,78.8 539.7,78.8 539.7,100.8 	"/>
	<rect id="XMLID_682_" x="528.7" y="98.8" class="st10" width="4" height="2"/>
	<polygon id="XMLID_683_" class="st10" points="536.2,87.8 537.7,87.8 537.7,85.8 535.2,85.8 533.8,87.9 529.5,80.8 527,85.8 
		523.7,85.8 523.7,87.8 528.3,87.8 529.8,84.9 533.5,91.8 	"/>
</g>
<g>
	<g>
		<path class="st10" d="M204.7,91v-2h-2v2H204.7z M209.7,99V75h-22v30h22v-2h-20V77h18v22H209.7z M196.7,99h4v-2h-4V99z M201.7,82
			c0-1.7-1.3-3-3-3s-3,1.3-3,3s1.3,3,3,3S201.7,83.7,201.7,82z M198.7,83c-0.6,0-1-0.4-1-1s0.4-1,1-1s1,0.4,1,1S199.3,83,198.7,83z
			 M194.7,91v-2h-2v2H194.7z"/>
	</g>
</g>
<path class="st10" d="M194.7,89L194.7,89c0-0.6,0.4-1,1-1h6c0.6,0,1,0.4,1,1l0,0h2l0,0c0-1.7-1.3-3-3-3h-6c-1.7,0-3,1.3-3,3l0,0
	H194.7z"/>
</svg>
