<?xml version="1.0" encoding="UTF-8"?>
<svg width="48px" height="48px" viewBox="0 0 48 48" version="1.1" xmlns="http://www.w3.org/2000/svg" xmlns:xlink="http://www.w3.org/1999/xlink">
    <!-- Generator: Sketch 52.2 (67145) - http://www.bohemiancoding.com/sketch -->
    <title>稳定可靠-48x48</title>
    <desc>Created with Sketch.</desc>
    <g id="稳定可靠-48x48" stroke="none" stroke-width="1" fill="none" fill-rule="evenodd">
        <ellipse id="Oval-33" fill="#00A4FF" transform="translate(24.000000, 24.000000) rotate(-45.000000) translate(-24.000000, -24.000000) " cx="24" cy="24" rx="22" ry="7"></ellipse>
        <path d="M43.5320264,33.2024566 C45.4520264,38.0524566 45.5320264,41.8824566 43.6920264,43.6924566 C42.6050264,44.6434566 41.1820264,45.1194566 39.7420264,45.0124566 C35.9710264,45.0124566 30.9310264,43.0124566 25.7420264,39.5424566 C26.7420264,38.8224566 27.6810264,38.0424566 28.6410264,37.2424566 C30.4440264,38.5204566 32.9400264,38.0954566 34.2190264,36.2934566 C35.1460264,34.9844566 35.2030264,33.2484566 34.3620264,31.8824566 C36.2050264,29.9494566 37.9280264,27.9054566 39.5210264,25.7624566 C41.1070264,28.0984566 42.4480264,30.5914566 43.5210264,33.2024566 L43.5320264,33.2024566 Z M30.2610264,35.8624566 C30.1090264,35.8004566 29.9650264,35.7194566 29.8320264,35.6224566 L29.7820264,35.6224566 C29.6680264,35.5304566 29.5630264,35.4264566 29.4710264,35.3124566 C29.2610264,35.0354566 29.1270264,34.7074566 29.0820264,34.3624566 C29.0450264,34.2484566 29.0180264,34.1314566 29.0020264,34.0124566 C28.9970264,32.9074566 29.8890264,32.0084566 30.9940264,32.0044566 C32.0980264,31.9994566 32.9970264,32.8914566 33.0020264,33.9954566 C33.0070264,35.1004566 32.1140264,35.9994566 31.0100264,36.0044566 C30.7540264,36.0054566 30.5000264,35.9564566 30.2610264,35.8624566 Z M24.0020264,38.3324566 C21.2530264,36.3464566 18.6680264,34.1424566 16.2710264,31.7424566 C13.8690264,29.3454566 11.6620264,26.7604566 9.67202635,24.0124566 C13.6640264,18.5134566 18.5000264,13.6804566 24.0020264,9.6924566 C26.7510264,11.6784566 29.3360264,13.8824566 31.7320264,16.2824566 C34.1350264,18.6794566 36.3420264,21.2644566 38.3320264,24.0124566 C36.6730264,26.2974566 34.8610264,28.4694566 32.9120264,30.5124566 C32.3270264,30.1884566 31.6700264,30.0164566 31.0020264,30.0124566 C28.7930264,30.0204566 27.0090264,31.8174566 27.0160264,34.0274566 C27.0180264,34.5984566 27.1430264,35.1624566 27.3820264,35.6824566 C26.2610264,36.6224566 25.1320264,37.5224566 24.0020264,38.3324566 Z M8.26102635,45.0124566 C6.82102635,45.1194566 5.39802635,44.6434566 4.31102635,43.6924566 C1.66202635,41.0124566 3.07202635,33.9024566 8.46202635,25.7624566 C10.4060264,28.3834566 12.5420264,30.8564566 14.8510264,33.1624566 C17.1540264,35.4684566 19.6240264,37.6004566 22.2420264,39.5424566 C17.0820264,43.0124566 12.0020264,45.0124566 8.26102635,45.0124566 Z M4.48202635,14.8224566 C2.56102635,10.0124566 2.50202635,6.1424566 4.32202635,4.3324566 C5.40602635,3.3834566 6.82502635,2.9084566 8.26102635,3.0124566 C10.2550264,3.0814566 12.2200264,3.4944566 14.0720264,4.2324566 C13.6250264,6.3954566 15.0170264,8.5114566 17.1800264,8.9584566 C18.5930264,9.2494566 20.0530264,8.7584566 21.0020264,7.6724566 C21.4310264,7.9324566 21.8620264,8.1924566 22.2920264,8.4824566 C17.0380264,12.3774566 12.3820264,17.0194566 8.47102635,22.2624566 C6.88902635,19.9264566 5.55302635,17.4324566 4.48202635,14.8224566 Z M20.0020264,5.0124566 C19.9990264,5.1634566 19.9780264,5.3154566 19.9420264,5.4624566 L19.9420264,5.5824566 C19.9130264,5.6844566 19.8770264,5.7854566 19.8320264,5.8824566 L19.7320264,6.0124566 C19.6770264,6.1104566 19.6130264,6.2044566 19.5420264,6.2924566 L19.4820264,6.3624566 C19.3910264,6.4654566 19.2910264,6.5594566 19.1810264,6.6424566 C18.8380264,6.8874566 18.4250264,7.0164566 18.0020264,7.0124566 C16.8970264,7.0124566 16.0020264,6.1174566 16.0020264,5.0124566 C16.0020264,3.9074566 16.8970264,3.0124566 18.0020264,3.0124566 C19.1060264,3.0124566 20.0020264,3.9074566 20.0020264,5.0124566 Z M39.7420264,3.0124566 C41.1820264,2.9054566 42.6050264,3.3804566 43.6920264,4.3324566 C45.5110264,6.1524566 45.4520264,9.9724566 43.5320264,14.8224566 C42.4580264,17.4334566 41.1180264,19.9264566 39.5320264,22.2624566 C37.5880264,19.6404566 35.4520264,17.1674566 33.1410264,14.8624566 C30.8400264,12.5564566 28.3690264,10.4234566 25.7520264,8.4824566 C30.9220264,5.0124566 36.0020264,3.0124566 39.7420264,3.0124566 Z M45.1010264,2.9124566 C43.6440264,1.5824566 41.7120264,0.8974566 39.7420264,1.0124566 C35.4820264,1.0124566 29.8320264,3.2524566 24.0020264,7.2424566 C23.2920264,6.7624566 22.5920264,6.3124566 21.9020264,5.8824566 C22.3310264,3.7154566 20.9230264,1.6104566 18.7560264,1.1814566 C17.3710264,0.9064566 15.9450264,1.3824566 15.0020264,2.4324566 C12.8560264,1.5654566 10.5750264,1.0844566 8.26102635,1.0124566 C6.29202635,0.8974566 4.35902635,1.5824566 2.90202635,2.9124566 C-0.858973648,6.6724566 1.15202635,15.1324566 7.22102635,24.0124566 C1.15202635,32.8924566 -0.858973648,41.3524566 2.90202635,45.1124566 C4.35902635,46.4424566 6.29202635,47.1274566 8.26102635,47.0124566 C12.5210264,47.0124566 18.1620264,44.7724566 24.0020264,40.7824566 C29.8320264,44.7824566 35.4820264,47.0124566 39.7420264,47.0124566 C41.7120264,47.1274566 43.6440264,46.4424566 45.1010264,45.1124566 C48.8620264,41.3524566 46.8510264,32.8924566 40.7820264,24.0124566 C46.8510264,15.1324566 48.8620264,6.6724566 45.1010264,2.9124566 Z" id="Fill-2" fill="#334966"></path>
        <circle id="Oval-32" fill="#00A4FF" cx="18" cy="5" r="2"></circle>
    </g>
</svg>