<?xml version="1.0" encoding="utf-8"?>
<!-- Generator: Adobe Illustrator 22.1.0, SVG Export Plug-In . SVG Version: 6.00 Build 0)  -->
<svg version="1.1" id="svgwrapper_svg" xmlns="http://www.w3.org/2000/svg" xmlns:xlink="http://www.w3.org/1999/xlink" x="0px"
	 y="0px" width="830px" height="688px" viewBox="0 0 830 688" style="enable-background:new 0 0 830 688;" xml:space="preserve">
<style type="text/css">
	.st0{display:none;fill:none;stroke:#999999;}
	.st1{opacity:0.6;fill:#BBBBBB;enable-background:new    ;}
	.st2{fill:#FFFFFF;}
	.st3{fill:#E5E5E5;}
	.st4{fill:#888888;}
	.st5{fill:none;stroke:#FF0000;stroke-width:15;stroke-opacity:0;}
	.st6{fill:#FF0000;fill-opacity:0;}
	.st7{fill:#CEE3FF;}
	.st8{enable-background:new    ;}
	.st9{fill:#2277DA;}
	.st10{fill:#444444;}
	.st11{fill:#00A4FF;}
	.st12{fill:#878787;}
	.st13{fill:#BABABA;}
	.st14{fill:none;stroke:#888888;stroke-miterlimit:10;}
</style>
<path class="st0" d="M-1199-1315.4L-1199-1315.4"/>
<g id="assistantgroup" transform="translate(0,0)">
</g>
<g>
	<rect x="341.7" y="43.4" class="st1" width="153" height="50"/>
	<rect x="339.7" y="41.4" class="st2" width="153" height="50"/>
	<path class="st3" d="M493.2,91.9h-154v-51h154V91.9z M340.2,90.9h152v-49h-152V90.9z"/>
	<g id="Link16_3_" transform="translate(0,0)">
		<polyline class="st4" points="310.9,496.1 501.9,496.1 501.9,475.6 500.9,475.6 500.9,495.1 310.9,495.1 		"/>
		<g transform="translate(0, 0.5)">
			<polygon class="st4" points="496.9,479.6 501.4,473.6 505.9,479.6 			"/>
		</g>
		<path class="st5" d="M501.4,475.6"/>
	</g>
	<g id="Link14_2_" transform="translate(0,0)">
		<polygon class="st4" points="86.9,177.3 85.9,177.3 85.9,126.8 455.4,126.8 455.4,127.8 86.9,127.8 		"/>
		<g transform="translate(0, 0.5)">
			<polygon class="st4" points="81.9,172.3 86.4,178.3 90.9,172.3 			"/>
		</g>
		<path class="st5" d="M430.4,127.3"/>
		<rect x="86.4" y="119.8" class="st6" width="344" height="15"/>
		<rect x="78.9" y="127.3" class="st6" width="15" height="50"/>
	</g>
	<g id="Link15_2_" transform="translate(0,0)">
		<rect x="528.9" y="127" class="st4" width="1" height="44.5"/>
		<g transform="translate(0, 0.5)">
			<polygon class="st4" points="524.9,166.9 529.4,172.3 533.9,166.9 			"/>
		</g>
		<path class="st5" d="M479.4,126.5"/>
	</g>
	<g id="Link15_3_" transform="translate(0,0)">
		<rect x="299.5" y="127" class="st4" width="1" height="44.5"/>
		<g transform="translate(0, 0.5)">
			<polygon class="st4" points="295.5,166.9 300,172.3 304.5,166.9 			"/>
		</g>
		<path class="st5" d="M378,126.5"/>
	</g>
	<g id="Link15_4_" transform="translate(0,0)">
		<rect x="193.9" y="538.5" class="st4" width="1" height="44.5"/>
		<g transform="translate(0, 0.5)">
			<polygon class="st4" points="189.9,578.4 194.4,583.8 198.9,578.4 			"/>
		</g>
	</g>
	<g id="Link15_5_" transform="translate(0,0)">
		<rect x="626" y="538.5" class="st4" width="1" height="44.5"/>
		<g transform="translate(0, 0.5)">
			<polygon class="st4" points="622,578.4 626.5,583.8 631,578.4 			"/>
		</g>
	</g>
	<g id="Link16_2_" transform="translate(0,0)">
		<polygon class="st4" points="741.9,177.3 740.9,177.3 740.9,127.8 417,127.8 417,92.3 418,92.3 418,126.8 741.9,126.8 		"/>
		<g transform="translate(0, 0.5)">
			<polygon class="st4" points="736.9,172.3 741.4,178.3 745.9,172.3 			"/>
		</g>
		<rect x="447.4" y="119.8" class="st6" width="294" height="15"/>
		<path class="st5" d="M741.4,177.3"/>
	</g>
	<g>
		<polygon class="st7" points="205.6,464.1 55.6,463.3 56,193.3 206,194.1 		"/>
		<g>
			<g class="st8">
				<path class="st9" d="M68.9,211.6h2.9c0,2.4-0.1,4-0.2,4.8c-0.2,0.8-0.9,1.2-2.2,1.3c-0.4,0-0.7,0-1.1-0.1l-0.3-1.2
					c0.4,0,0.7,0.1,1.1,0.1c0.7,0,1.1-0.2,1.3-0.7c0.1-0.5,0.2-1.5,0.2-3h-3l0.4-4.3h2.4v-1.9h-2.7v-1.1h4v4.2h-2.6L68.9,211.6z
					 M74.5,207.1c-0.3-0.7-0.7-1.3-1.1-1.8l1.2-0.4c0.4,0.6,0.7,1.2,1,1.8l-0.9,0.4h2.1c0.4-0.7,0.7-1.5,1-2.3l1.3,0.4
					c-0.3,0.7-0.6,1.3-1,1.9h1.7v5.8h-2.9v1.2h3.5v1.2h-3.5v2.5h-1.3v-2.5h-3.4v-1.2h3.4v-1.2h-2.9v-5.8L74.5,207.1z M75.6,210.6
					h-1.7v1.2h1.7V210.6z M75.6,209.5v-1.3h-1.7v1.3H75.6z M78.6,210.6h-1.7v1.2h1.7V210.6z M76.9,209.5h1.7v-1.3h-1.7V209.5z"/>
				<path class="st9" d="M82.9,207.8c0,1.4-0.2,2.7-0.5,4l-1.1-0.3c0.3-1.2,0.5-2.4,0.5-3.8L82.9,207.8z M84.6,205v12.8h-1.3V205
					H84.6z M86.3,209.3c0.4-1.1,0.6-2.2,0.7-3.4l1.2,0.2c0,0.5-0.1,1-0.1,1.5h1.7v-2.5h1.3v2.5H94v1.3h-2.9v3.1h2.8v1.3h-2.8v3h3.3
					v1.3h-8.5v-1.3h3.9v-3h-3.1V212h3.1v-3.1h-1.9c-0.3,1-0.6,1.9-1.1,2.7l-1-0.9c0.1-0.2,0.2-0.4,0.3-0.6l-0.6,0.2
					c-0.2-0.9-0.4-1.7-0.7-2.5l1-0.3C85.9,208,86.1,208.6,86.3,209.3z"/>
				<path class="st9" d="M104.8,217.9l-0.3-1.3l1.3,0.1c0.3,0,0.5-0.2,0.5-0.5v-9.4h-8.8V218h-1.3v-12.4h11.4v10.9
					c0,1-0.5,1.4-1.4,1.4H104.8z M100.2,213c-0.5,1.3-1,2.3-1.7,3.3l-0.9-1c0.7-1,1.2-2.2,1.7-3.5c-0.6-0.8-1.2-1.6-1.8-2.3l0.8-0.8
					c0.4,0.5,0.9,1.1,1.5,1.7c0.2-0.9,0.4-1.8,0.5-2.8l1.2,0.2c-0.2,1.4-0.5,2.7-0.8,3.8c0.5,0.7,1,1.4,1.5,2.2l-0.9,0.9
					C101,214.1,100.6,213.6,100.2,213z M104.2,213.4c-0.5,1.3-1.1,2.3-1.8,3.3l-0.8-1c0.7-1,1.3-2.2,1.8-3.5
					c-0.6-0.9-1.2-1.7-1.8-2.5l0.8-0.8c0.4,0.5,0.9,1.1,1.4,1.8c0.3-1,0.5-2,0.6-3l1.2,0.2c-0.3,1.5-0.6,2.9-1,4.2
					c0.5,0.8,1,1.6,1.6,2.5l-0.9,0.9C105,214.7,104.6,214,104.2,213.4z"/>
				<path class="st9" d="M115.9,205.1v1.6h4.5v1.3h-4.5v1.8h6.3v1.3h-6.3v1.2c1.6,0.7,3.2,1.6,4.9,2.5l-0.8,1.1
					c-1.6-1-3-1.8-4.2-2.3v4.4h-1.3v-6.9h-4.9v-1.3h4.9v-4.7L115.9,205.1z"/>
				<path class="st9" d="M127.3,206.6v10h-1.5v-8.2c-0.6,0.6-1.4,1-2.3,1.3v-1.5c0.4-0.1,0.9-0.3,1.4-0.6s0.9-0.6,1.3-1H127.3z"/>
			</g>
		</g>
	</g>
	<g id="ShadowBasicRect6_5_" transform="translate(485,236)">
		<rect x="-396.2" y="9.1" class="st1" width="86.4" height="50"/>
		<g>
			<rect x="-398.2" y="7.1" class="st2" width="86.4" height="50"/>
			<path class="st3" d="M-311.3,57.6h-87.4v-51h87.4V57.6z M-397.7,56.6h85.4v-49h-85.4V56.6z"/>
		</g>
		<g transform="translate(20 9)">
			<g class="st8">
				<path class="st10" d="M-393.9,18.1v10h-1.1v-10H-393.9z"/>
				<path class="st10" d="M-387.7,18.1c2.3,0,3.4,1,3.4,2.9c0,2-1.2,3-3.5,3h-2.9v4.1h-1.1v-10H-387.7z M-390.7,23.1h2.9
					c0.8,0,1.4-0.2,1.8-0.5s0.6-0.8,0.6-1.5s-0.2-1.2-0.6-1.5s-1-0.5-1.8-0.5h-2.9V23.1z"/>
				<path class="st10" d="M-378.9,26.3c-1.3,0.6-2.7,1.1-4.2,1.5l-0.3-1c0.6-0.1,1.2-0.3,1.8-0.4v-5h-1.6v-1h1.6v-3.6h1v3.6h1.5v1
					h-1.5v4.7c0.6-0.2,1.1-0.4,1.7-0.7V26.3z M-371.1,24.6c-0.1,0.6-0.7,0.9-1.8,0.9h-0.1l-0.3-1c0.2,0,0.4,0,0.6,0
					c0.4,0,0.6-0.2,0.7-0.5s0.1-1.4,0.1-3.3l-2,0.6v5.3h-1v-5l-2,0.6v5.4c0,0.4,0.2,0.6,0.7,0.6h3.9c0.3,0,0.5-0.1,0.6-0.3
					c0.2-0.2,0.3-0.9,0.3-2l0.9,0.3c-0.1,1.4-0.3,2.3-0.6,2.6c-0.2,0.3-0.6,0.4-1.1,0.4h-4.4c-0.9,0-1.4-0.5-1.4-1.4v-5.3l-1.2,0.4
					v-1l1.2-0.4v-3.4h1v3.1l2-0.6v-3.9h1v3.6l3-0.9C-370.9,22.2-371,23.9-371.1,24.6z"/>
				<path class="st10" d="M-364.6,26.5c-1.4,0.5-2.9,0.9-4.6,1.3l-0.3-1.1c0.6-0.1,1.3-0.2,1.9-0.4v-5.1h-1.8v-1h1.8v-3.6h1v3.6h1.7
					v1h-1.7v4.9c0.6-0.2,1.3-0.4,1.9-0.6v1H-364.6z M-359.5,16.7v4.5h2.7v1h-2.7v5.9h3.1v1h-8.8v-1h1.6v-8.3h1v8.3h2.1V16.7H-359.5z
					"/>
				<path class="st10" d="M-351.7,18.1v10h-1.1v-8.6c-0.6,0.6-1.4,1.1-2.4,1.4v-1.1c0.4-0.1,0.9-0.3,1.4-0.6s0.9-0.6,1.2-1h0.9V18.1
					z"/>
			</g>
		</g>
	</g>
	<g id="ShadowBasicRect6_6_" transform="translate(485,236)">
		<rect x="-396.2" y="79.6" class="st1" width="86.4" height="50"/>
		<g>
			<rect x="-398.2" y="77.6" class="st2" width="86.4" height="50"/>
			<path class="st3" d="M-311.3,128.1h-87.4v-51h87.4V128.1z M-397.7,127.1h85.4v-49h-85.4V127.1z"/>
		</g>
		<g transform="translate(20 9)">
			<g class="st8">
				<path class="st10" d="M-393.9,88.6v10h-1.1v-10H-393.9z"/>
				<path class="st10" d="M-387.7,88.6c2.3,0,3.4,1,3.4,2.9c0,2-1.2,3-3.5,3h-2.9v4.1h-1.1v-10H-387.7z M-390.7,93.5h2.9
					c0.8,0,1.4-0.2,1.8-0.5s0.6-0.8,0.6-1.5s-0.2-1.2-0.6-1.5s-1-0.5-1.8-0.5h-2.9V93.5z"/>
				<path class="st10" d="M-378.9,96.8c-1.3,0.6-2.7,1.1-4.2,1.5l-0.3-1c0.6-0.1,1.2-0.3,1.8-0.4v-5h-1.6v-1h1.6v-3.6h1v3.6h1.5v1
					h-1.5v4.7c0.6-0.2,1.1-0.4,1.7-0.7V96.8z M-371.1,95.1c-0.1,0.6-0.7,0.9-1.8,0.9h-0.1l-0.3-1c0.2,0,0.4,0,0.6,0
					c0.4,0,0.6-0.2,0.7-0.5s0.1-1.4,0.1-3.3l-2,0.6v5.3h-1v-5l-2,0.6v5.4c0,0.4,0.2,0.6,0.7,0.6h3.9c0.3,0,0.5-0.1,0.6-0.3
					c0.2-0.2,0.3-0.9,0.3-2l0.9,0.3c-0.1,1.4-0.3,2.3-0.6,2.6c-0.2,0.3-0.6,0.4-1.1,0.4h-4.4c-0.9,0-1.4-0.5-1.4-1.4V93l-1.2,0.4v-1
					l1.2-0.4v-3.4h1v3.1l2-0.6v-3.9h1v3.6l3-0.9C-370.9,92.7-371,94.4-371.1,95.1z"/>
				<path class="st10" d="M-364.6,97c-1.4,0.5-2.9,0.9-4.6,1.3l-0.3-1.1c0.6-0.1,1.3-0.2,1.9-0.4v-5.1h-1.8v-1h1.8v-3.6h1v3.6h1.7v1
					h-1.7v4.8c0.6-0.2,1.3-0.4,1.9-0.6V97H-364.6z M-359.5,87.2v4.5h2.7v1h-2.7v5.9h3.1v1h-8.8v-1h1.6v-8.5h1v8.3h2.1V87.1
					L-359.5,87.2L-359.5,87.2z"/>
				<path class="st10" d="M-349.2,89.2c0.6,0.5,0.9,1.2,0.9,2.1s-0.3,1.7-1,2.4c-0.4,0.4-1,0.9-2.1,1.6c-1.3,0.9-2,1.6-2.2,2.3h5.3
					v1h-6.7c0-0.9,0.3-1.7,1-2.5c0.4-0.4,1.1-1.1,2.2-1.8c0.8-0.6,1.3-1,1.6-1.2c0.5-0.5,0.8-1.1,0.8-1.8c0-0.6-0.2-1.1-0.5-1.4
					s-0.9-0.5-1.5-0.5c-0.7,0-1.2,0.2-1.6,0.7c-0.4,0.4-0.6,1.1-0.6,2h-1.1c0-1.1,0.3-2,0.9-2.7s1.4-1,2.5-1
					C-350.6,88.4-349.8,88.7-349.2,89.2z"/>
			</g>
		</g>
	</g>
	<g id="ShadowBasicRect6_7_" transform="translate(485,236)">
		<rect x="-396.2" y="150.1" class="st1" width="86.4" height="50"/>
		<g>
			<rect x="-398.2" y="148.1" class="st2" width="86.4" height="50"/>
			<path class="st3" d="M-311.3,198.6h-87.4v-51h87.4V198.6z M-397.7,197.6h85.4v-49h-85.4V197.6z"/>
		</g>
		<g transform="translate(20 9)">
			<g class="st8">
				<path class="st10" d="M-393.9,159.1v10h-1.1v-10H-393.9z"/>
				<path class="st10" d="M-387.7,159.1c2.3,0,3.4,1,3.4,2.9c0,2-1.2,3-3.5,3h-2.9v4.1h-1.1v-10H-387.7z M-390.7,164h2.9
					c0.8,0,1.4-0.2,1.8-0.5s0.6-0.8,0.6-1.5s-0.2-1.2-0.6-1.5s-1-0.5-1.8-0.5h-2.9V164z"/>
				<path class="st10" d="M-378.9,167.3c-1.3,0.6-2.7,1.1-4.2,1.5l-0.3-1c0.6-0.1,1.2-0.3,1.8-0.4v-5h-1.6v-1h1.6v-3.6h1v3.6h1.5v1
					h-1.5v4.7c0.6-0.2,1.1-0.4,1.7-0.7V167.3z M-371.1,165.6c-0.1,0.6-0.7,0.9-1.8,0.9h-0.1l-0.3-1c0.2,0,0.4,0,0.6,0
					c0.4,0,0.6-0.2,0.7-0.5s0.1-1.4,0.1-3.3l-2,0.6v5.3h-1v-5l-2,0.6v5.4c0,0.4,0.2,0.6,0.7,0.6h3.9c0.3,0,0.5-0.1,0.6-0.3
					c0.2-0.2,0.3-0.9,0.3-2l0.9,0.3c-0.1,1.4-0.3,2.3-0.6,2.6c-0.2,0.3-0.6,0.4-1.1,0.4h-4.4c-0.9,0-1.4-0.5-1.4-1.4v-5.3l-1.2,0.4
					v-1l1.2-0.4v-3.4h1v3.1l2-0.6v-3.9h1v3.6l3-0.9C-370.9,163.2-371,164.9-371.1,165.6z"/>
				<path class="st10" d="M-364.6,167.5c-1.4,0.5-2.9,0.9-4.6,1.3l-0.3-1.1c0.6-0.1,1.3-0.2,1.9-0.4v-5.1h-1.8v-1h1.8v-3.6h1v3.6
					h1.7v1h-1.7v4.8c0.6-0.2,1.3-0.4,1.9-0.6v1.1H-364.6z M-359.5,157.7v4.5h2.7v1h-2.7v5.9h3.1v1h-8.8v-1h1.6v-8.3h1v8.3h2.1v-11.3
					L-359.5,157.7L-359.5,157.7z"/>
				<path class="st10" d="M-349.2,159.7c0.6,0.5,0.9,1.1,0.9,2c0,1.1-0.5,1.9-1.6,2.2c0.6,0.2,1,0.5,1.3,0.9s0.5,0.9,0.5,1.5
					c0,0.9-0.3,1.7-1,2.2c-0.6,0.6-1.5,0.9-2.5,0.9s-1.7-0.3-2.3-0.7c-0.7-0.6-1.1-1.4-1.2-2.6h1.2c0,0.8,0.3,1.4,0.8,1.8
					c0.4,0.3,0.9,0.5,1.6,0.5s1.3-0.2,1.7-0.6c0.4-0.4,0.6-0.9,0.6-1.5s-0.2-1.1-0.6-1.4s-0.9-0.5-1.6-0.5h-0.8v-0.9h0.8
					c0.7,0,1.2-0.2,1.5-0.4c0.4-0.3,0.5-0.7,0.5-1.3s-0.2-1-0.5-1.3c-0.4-0.3-0.9-0.5-1.5-0.5c-0.7,0-1.2,0.2-1.6,0.5
					c-0.4,0.4-0.6,0.9-0.7,1.6h-1.1c0.1-1,0.4-1.7,1.1-2.3c0.6-0.5,1.4-0.8,2.3-0.8S-349.8,159.2-349.2,159.7z"/>
			</g>
		</g>
	</g>
	<g>
		<polygon class="st7" points="389.1,464.1 239.1,463.3 239.5,193.3 389.5,194.1 		"/>
		<g>
			<g class="st8">
				<path class="st9" d="M252.4,211.6h2.9c0,2.4-0.1,4-0.2,4.8c-0.2,0.8-0.9,1.2-2.2,1.3c-0.4,0-0.7,0-1.1-0.1l-0.3-1.2
					c0.4,0,0.7,0.1,1.1,0.1c0.7,0,1.1-0.2,1.3-0.7c0.1-0.5,0.2-1.5,0.2-3h-3l0.4-4.3h2.4v-1.9h-2.7v-1.1h4v4.2h-2.6L252.4,211.6z
					 M258,207.1c-0.3-0.7-0.7-1.3-1.1-1.8l1.2-0.4c0.4,0.6,0.7,1.2,1,1.8l-0.9,0.4h2.1c0.4-0.7,0.7-1.5,1-2.3l1.3,0.4
					c-0.3,0.7-0.6,1.3-1,1.9h1.7v5.8h-2.9v1.2h3.5v1.2h-3.5v2.5h-1.3v-2.5h-3.4v-1.2h3.4v-1.2h-2.9v-5.8L258,207.1z M259.1,210.6
					h-1.7v1.2h1.7V210.6z M259.1,209.5v-1.3h-1.7v1.3H259.1z M262.1,210.6h-1.7v1.2h1.7V210.6z M260.4,209.5h1.7v-1.3h-1.7V209.5z"
					/>
				<path class="st9" d="M266.4,207.8c0,1.4-0.2,2.7-0.5,4l-1.1-0.3c0.3-1.2,0.5-2.4,0.5-3.8L266.4,207.8z M268.1,205v12.8h-1.3V205
					H268.1z M269.8,209.3c0.4-1.1,0.6-2.2,0.7-3.4l1.2,0.2c0,0.5-0.1,1-0.1,1.5h1.7v-2.5h1.3v2.5h2.9v1.3h-2.9v3.1h2.8v1.3h-2.8v3
					h3.3v1.3h-8.5v-1.3h3.9v-3h-3.1V212h3.1v-3.1h-1.9c-0.3,1-0.6,1.9-1.1,2.7l-1-0.9c0.1-0.2,0.2-0.4,0.3-0.6l-0.6,0.2
					c-0.2-0.9-0.4-1.7-0.7-2.5l1-0.3C269.4,208,269.6,208.6,269.8,209.3z"/>
				<path class="st9" d="M288.3,217.9l-0.3-1.3l1.3,0.1c0.3,0,0.5-0.2,0.5-0.5v-9.4H281V218h-1.3v-12.4h11.4v10.9
					c0,1-0.5,1.4-1.4,1.4H288.3z M283.7,213c-0.5,1.3-1,2.3-1.7,3.3l-0.9-1c0.7-1,1.2-2.2,1.7-3.5c-0.6-0.8-1.2-1.6-1.8-2.3l0.8-0.8
					c0.4,0.5,0.9,1.1,1.5,1.7c0.2-0.9,0.4-1.8,0.5-2.8l1.2,0.2c-0.2,1.4-0.5,2.7-0.8,3.8c0.5,0.7,1,1.4,1.5,2.2l-0.9,0.9
					C284.5,214.1,284.1,213.6,283.7,213z M287.7,213.4c-0.5,1.3-1.1,2.3-1.8,3.3l-0.8-1c0.7-1,1.3-2.2,1.8-3.5
					c-0.6-0.9-1.2-1.7-1.8-2.5l0.8-0.8c0.4,0.5,0.9,1.1,1.4,1.8c0.3-1,0.5-2,0.6-3l1.2,0.2c-0.3,1.5-0.6,2.9-1,4.2
					c0.5,0.8,1,1.6,1.6,2.5l-0.9,0.9C288.5,214.7,288.1,214,287.7,213.4z"/>
				<path class="st9" d="M299.4,205.1v1.6h4.5v1.3h-4.5v1.8h6.3v1.3h-6.3v1.2c1.6,0.7,3.2,1.6,4.9,2.5l-0.8,1.1
					c-1.6-1-3-1.8-4.2-2.3v4.4H298v-6.9h-4.9v-1.3h4.9v-4.7L299.4,205.1z"/>
				<path class="st9" d="M313.1,207.2c0.6,0.6,0.9,1.3,0.9,2.2s-0.3,1.7-1,2.4c-0.4,0.4-1.1,0.9-2.1,1.6c-1.1,0.7-1.7,1.3-1.9,1.9h5
					v1.3h-6.9c0-1,0.3-1.9,1-2.6c0.4-0.4,1.1-1,2.3-1.8c0.7-0.5,1.2-0.9,1.4-1.1c0.4-0.5,0.7-1,0.7-1.6s-0.2-1-0.5-1.3
					s-0.8-0.4-1.4-0.4s-1.1,0.2-1.4,0.6c-0.3,0.4-0.5,1-0.5,1.8h-1.5c0-1.1,0.3-2,1-2.7c0.6-0.7,1.5-1.1,2.6-1.1
					C311.7,206.4,312.5,206.7,313.1,207.2z"/>
			</g>
		</g>
	</g>
	<g id="ShadowBasicRect6_10_" transform="translate(485,236)">
		<rect x="-212.7" y="9.1" class="st1" width="86.4" height="50"/>
		<g>
			<rect x="-214.7" y="7.1" class="st2" width="86.4" height="50"/>
			<path class="st3" d="M-127.8,57.6h-87.4v-51h87.4L-127.8,57.6L-127.8,57.6z M-214.2,56.6h85.4v-49h-85.4L-214.2,56.6L-214.2,56.6
				z"/>
		</g>
		<g transform="translate(20 9)">
			<g class="st8">
				<path class="st10" d="M-210.4,18.1v10h-1.1v-10H-210.4z"/>
				<path class="st10" d="M-204.2,18.1c2.3,0,3.4,1,3.4,2.9c0,2-1.2,3-3.5,3h-2.9v4.1h-1.1v-10H-204.2z M-207.2,23.1h2.9
					c0.8,0,1.4-0.2,1.8-0.5c0.4-0.3,0.6-0.8,0.6-1.5s-0.2-1.2-0.6-1.5c-0.4-0.3-1-0.5-1.8-0.5h-2.9V23.1z"/>
				<path class="st10" d="M-195.4,26.3c-1.3,0.6-2.7,1.1-4.2,1.5l-0.3-1c0.6-0.1,1.2-0.3,1.8-0.4v-5h-1.6v-1h1.6v-3.6h1v3.6h1.5v1
					h-1.5v4.7c0.6-0.2,1.1-0.4,1.7-0.7V26.3z M-187.6,24.6c-0.1,0.6-0.7,0.9-1.8,0.9h-0.1l-0.3-1c0.2,0,0.4,0,0.6,0
					c0.4,0,0.6-0.2,0.7-0.5c0.1-0.3,0.1-1.4,0.1-3.3l-2,0.6v5.3h-1v-5l-2,0.6v5.4c0,0.4,0.2,0.6,0.7,0.6h3.9c0.3,0,0.5-0.1,0.6-0.3
					c0.2-0.2,0.3-0.9,0.3-2l0.9,0.3c-0.1,1.4-0.3,2.3-0.6,2.6c-0.2,0.3-0.6,0.4-1.1,0.4h-4.4c-0.9,0-1.4-0.5-1.4-1.4v-5.3l-1.2,0.4
					v-1l1.2-0.4v-3.4h1v3.1l2-0.6v-3.9h1v3.6l3-0.9C-187.4,22.2-187.5,23.9-187.6,24.6z"/>
				<path class="st10" d="M-181.1,26.5c-1.4,0.5-2.9,0.9-4.6,1.3l-0.3-1.1c0.6-0.1,1.3-0.2,1.9-0.4v-5.1h-1.8v-1h1.8v-3.6h1v3.6h1.7
					v1h-1.7v4.9c0.6-0.2,1.3-0.4,1.9-0.6v1H-181.1z M-176,16.7v4.5h2.7v1h-2.7v5.9h3.1v1h-8.8v-1h1.6v-8.3h1v8.3h2.1V16.7H-176z"/>
				<path class="st10" d="M-165.9,18.1v6.8h1.6v0.9h-1.6v2.3h-1.1v-2.3h-5v-1.1l5-6.6C-167,18.1-165.9,18.1-165.9,18.1z M-171,24.9
					h4.1v-5.3l0,0L-171,24.9z"/>
			</g>
		</g>
	</g>
	<g id="ShadowBasicRect6_9_" transform="translate(485,236)">
		<rect x="-212.7" y="79.6" class="st1" width="86.4" height="50"/>
		<g>
			<rect x="-214.7" y="77.6" class="st2" width="86.4" height="50"/>
			<path class="st3" d="M-127.8,128.1h-87.4v-51h87.4L-127.8,128.1L-127.8,128.1z M-214.2,127.1h85.4v-49h-85.4L-214.2,127.1
				L-214.2,127.1z"/>
		</g>
		<g transform="translate(20 9)">
			<g class="st8">
				<path class="st10" d="M-210.4,88.6v10h-1.1v-10H-210.4z"/>
				<path class="st10" d="M-204.2,88.6c2.3,0,3.4,1,3.4,2.9c0,2-1.2,3-3.5,3h-2.9v4.1h-1.1v-10H-204.2z M-207.2,93.5h2.9
					c0.8,0,1.4-0.2,1.8-0.5c0.4-0.3,0.6-0.8,0.6-1.5s-0.2-1.2-0.6-1.5c-0.4-0.3-1-0.5-1.8-0.5h-2.9V93.5z"/>
				<path class="st10" d="M-195.4,96.8c-1.3,0.6-2.7,1.1-4.2,1.5l-0.3-1c0.6-0.1,1.2-0.3,1.8-0.4v-5h-1.6v-1h1.6v-3.6h1v3.6h1.5v1
					h-1.5v4.7c0.6-0.2,1.1-0.4,1.7-0.7V96.8z M-187.6,95.1c-0.1,0.6-0.7,0.9-1.8,0.9h-0.1l-0.3-1c0.2,0,0.4,0,0.6,0
					c0.4,0,0.6-0.2,0.7-0.5c0.1-0.3,0.1-1.4,0.1-3.3l-2,0.6v5.3h-1v-5l-2,0.6v5.4c0,0.4,0.2,0.6,0.7,0.6h3.9c0.3,0,0.5-0.1,0.6-0.3
					c0.2-0.2,0.3-0.9,0.3-2l0.9,0.3c-0.1,1.4-0.3,2.3-0.6,2.6c-0.2,0.3-0.6,0.4-1.1,0.4h-4.4c-0.9,0-1.4-0.5-1.4-1.4V93l-1.2,0.4v-1
					l1.2-0.4v-3.4h1v3.1l2-0.6v-3.9h1v3.6l3-0.9C-187.4,92.7-187.5,94.4-187.6,95.1z"/>
				<path class="st10" d="M-181.1,97c-1.4,0.5-2.9,0.9-4.6,1.3l-0.3-1.1c0.6-0.1,1.3-0.2,1.9-0.4v-5.1h-1.8v-1h1.8v-3.6h1v3.6h1.7v1
					h-1.7v4.8c0.6-0.2,1.3-0.4,1.9-0.6V97H-181.1z M-176,87.2v4.5h2.7v1h-2.7v5.9h3.1v1h-8.8v-1h1.6v-8.5h1v8.3h2.1V87.1L-176,87.2
					L-176,87.2z"/>
				<path class="st10" d="M-165,88.6v1h-4.9l-0.3,3.3h0.1c0.3-0.3,0.6-0.6,1.1-0.8c0.4-0.2,0.8-0.2,1.3-0.2c1,0,1.7,0.3,2.3,0.9
					s0.9,1.5,0.9,2.5s-0.4,1.8-1.1,2.5c-0.7,0.6-1.5,0.9-2.5,0.9c-0.9,0-1.6-0.2-2.3-0.7s-1.1-1.3-1.1-2.2h1.1
					c0.1,0.6,0.3,1.1,0.8,1.5c0.4,0.3,0.9,0.4,1.5,0.4c0.7,0,1.3-0.2,1.7-0.7c0.4-0.4,0.7-1,0.7-1.7c0-0.8-0.2-1.4-0.6-1.8
					c-0.4-0.4-1-0.7-1.7-0.7c-0.5,0-0.9,0.1-1.3,0.3c-0.4,0.2-0.7,0.5-0.9,0.9h-1.1l0.5-5.5L-165,88.6L-165,88.6z"/>
			</g>
		</g>
	</g>
	<g id="ShadowBasicRect6_8_" transform="translate(485,236)">
		<rect x="-212.7" y="150.1" class="st1" width="86.4" height="50"/>
		<g>
			<rect x="-214.7" y="148.1" class="st2" width="86.4" height="50"/>
			<path class="st3" d="M-127.8,198.6h-87.4v-51h87.4L-127.8,198.6L-127.8,198.6z M-214.2,197.6h85.4v-49h-85.4L-214.2,197.6
				L-214.2,197.6z"/>
		</g>
		<g transform="translate(20 9)">
			<g class="st8">
				<path class="st10" d="M-210.4,159.1v10h-1.1v-10H-210.4z"/>
				<path class="st10" d="M-204.2,159.1c2.3,0,3.4,1,3.4,2.9c0,2-1.2,3-3.5,3h-2.9v4.1h-1.1v-10H-204.2z M-207.2,164h2.9
					c0.8,0,1.4-0.2,1.8-0.5c0.4-0.3,0.6-0.8,0.6-1.5s-0.2-1.2-0.6-1.5c-0.4-0.3-1-0.5-1.8-0.5h-2.9V164z"/>
				<path class="st10" d="M-195.4,167.3c-1.3,0.6-2.7,1.1-4.2,1.5l-0.3-1c0.6-0.1,1.2-0.3,1.8-0.4v-5h-1.6v-1h1.6v-3.6h1v3.6h1.5v1
					h-1.5v4.7c0.6-0.2,1.1-0.4,1.7-0.7V167.3z M-187.6,165.6c-0.1,0.6-0.7,0.9-1.8,0.9h-0.1l-0.3-1c0.2,0,0.4,0,0.6,0
					c0.4,0,0.6-0.2,0.7-0.5c0.1-0.3,0.1-1.4,0.1-3.3l-2,0.6v5.3h-1v-5l-2,0.6v5.4c0,0.4,0.2,0.6,0.7,0.6h3.9c0.3,0,0.5-0.1,0.6-0.3
					c0.2-0.2,0.3-0.9,0.3-2l0.9,0.3c-0.1,1.4-0.3,2.3-0.6,2.6c-0.2,0.3-0.6,0.4-1.1,0.4h-4.4c-0.9,0-1.4-0.5-1.4-1.4v-5.3l-1.2,0.4
					v-1l1.2-0.4v-3.4h1v3.1l2-0.6v-3.9h1v3.6l3-0.9C-187.4,163.2-187.5,164.9-187.6,165.6z"/>
				<path class="st10" d="M-181.1,167.5c-1.4,0.5-2.9,0.9-4.6,1.3l-0.3-1.1c0.6-0.1,1.3-0.2,1.9-0.4v-5.1h-1.8v-1h1.8v-3.6h1v3.6
					h1.7v1h-1.7v4.8c0.6-0.2,1.3-0.4,1.9-0.6v1.1H-181.1z M-176,157.7v4.5h2.7v1h-2.7v5.9h3.1v1h-8.8v-1h1.6v-8.3h1v8.3h2.1v-11.3
					L-176,157.7L-176,157.7z"/>
				<path class="st10" d="M-164.8,161.6h-1.1c-0.2-1.1-0.9-1.7-2.1-1.7c-0.8,0-1.4,0.4-1.8,1.2c-0.4,0.7-0.7,1.7-0.7,2.8
					c0,0.1,0,0.2,0,0.4h0.1c0.3-0.5,0.6-0.9,1.1-1.2c0.4-0.3,1-0.4,1.6-0.4c1,0,1.7,0.3,2.3,0.9c0.6,0.6,0.9,1.4,0.9,2.4
					s-0.3,1.8-1,2.5c-0.6,0.6-1.4,1-2.4,1c-1.2,0-2.1-0.5-2.7-1.4c-0.6-0.9-0.9-2-0.9-3.6s0.3-2.9,0.9-3.9c0.7-1.1,1.6-1.6,2.7-1.6
					C-166.1,158.9-165.1,159.8-164.8,161.6z M-169.7,164.2c-0.4,0.4-0.6,1-0.6,1.7s0.2,1.3,0.6,1.7c0.4,0.5,1,0.7,1.7,0.7
					s1.2-0.2,1.6-0.7c0.4-0.5,0.6-1.1,0.6-1.8s-0.2-1.3-0.6-1.7c-0.4-0.4-1-0.7-1.7-0.7C-168.7,163.5-169.2,163.8-169.7,164.2z"/>
			</g>
		</g>
	</g>
	<g>
		<g>
			<path class="st11" d="M426,193.3c0,0,0,0.1,0,0.2l0,0v0.1l0,0c0,1.3,0,5.7,0,5.7h1v-6H426L426,193.3z M426,203.3v6h1v-6H426
				L426,203.3z M425.9,213.3c0,0,0,0.8,0,1.8l0,0l0,0v4.2h1v-6H425.9L425.9,213.3z M425.9,223.3v3.5l0,0l0,0c0,1.3,0,2.4,0,2.4h1v-6
				L425.9,223.3L425.9,223.3z M425.9,233.3c0,0,0,1.9,0,3.5l0,0l0,0l0,0l0,0v2.4h1v-6L425.9,233.3L425.9,233.3z M425.9,243.3v0.3
				l0,0l0,0l0,0l0,0l0,0l0,0l0,0l0,0l0,0l0,0l0,0l0,0l0,0l0,0l0,0l0,0v0.1l0,0c0,1.5,0,5.4,0,5.4h1v-6L425.9,243.3L425.9,243.3z
				 M425.9,253.3v6h1v-6H425.9L425.9,253.3z M425.9,263.3c0,0,0,0.6,0,1.5l0,0l0,0v4.5h1v-6H425.9L425.9,263.3z M425.9,273.3v4.1
				l0,0l0,0l0,0l0,0l0,0l0,0c0,0,0,0,0,0.1l0,0c0,1,0,1.8,0,1.8h1v-6H425.9L425.9,273.3z M425.8,283.3c0,0,0,1.6,0,3.2l0,0l0,0v2.8
				h1v-6H425.8L425.8,283.3z M425.8,293.3v1l0,0l0,0l0,0l0,0l0,0l0,0c0,1.7,0,4.9,0,4.9h1v-6L425.8,293.3L425.8,293.3z M425.8,303.3
				v6h1v-6H425.8L425.8,303.3z M425.8,313.3v6h1v-6H425.8L425.8,313.3z M425.8,323.3v4.7l0,0l0,0l0,0l0,0l0,0l0,0v0.1l0,0
				c0,0.7,0,1.2,0,1.2h1v-6L425.8,323.3L425.8,323.3z M425.8,333.3c0,0,0,1.4,0,2.9l0,0l0,0l0,0l0,0v3.1h1v-6H425.8L425.8,333.3z
				 M425.8,343.3v1.5l0,0v0.1l0,0l0,0l0,0l0,0l0,0l0,0l0,0l0,0c0,1.8,0,4.3,0,4.3h1v-6L425.8,343.3L425.8,343.3z M425.7,353.3
				c0,0,0,2.8,0,4.6v0.1l0,0v1.3h1v-6H425.7L425.7,353.3z M425.7,363.3v6h1v-6H425.7L425.7,363.3z M425.7,373.3v5.3l0,0l0,0l0,0l0,0
				l0,0l0,0l0,0l0,0v0.1l0,0c0,0.3,0,0.6,0,0.6h1v-6H425.7L425.7,373.3z M425.7,383.3c0,0,0,1.2,0,2.6v3.4h1v-6H425.7L425.7,383.3z
				 M425.7,393.3v2.2l0,0l0,0c0,1.7,0,3.8,0,3.8h1v-6H425.7L425.7,393.3z M425.7,403.3c0,0,0,2.5,0,4.3l0,0l0,0v1.7h1v-6H425.7
				L425.7,403.3z M425.7,413.3v6h1v-6H425.7L425.7,413.3z M425.6,423.3v5.8l0,0l0,0l0,0l0,0l0,0l0,0l0,0l0,0l0,0l0,0l0,0l0,0l0,0
				l0,0l0,0l0,0l0,0l0,0l0,0l0,0l0,0l0,0l0,0l0,0l0,0l0,0l0,0l0,0l0,0l0,0l0,0l0,0l0,0l0,0l0,0l0,0l0,0l0,0l0,0l0,0l0,0l0,0l0,0l0,0
				l0,0l0,0h1v-6L425.6,423.3L425.6,423.3z M425.6,433.3c0,0,0,1,0,2.3l0,0l0,0l0,0l0,0v3.7h1v-6H425.6L425.6,433.3z M425.6,443.3
				v2.8l0,0l0,0l0,0l0,0l0,0l0,0l0,0l0,0l0,0l0,0c0,1.5,0,3.1,0,3.1h1v-6L425.6,443.3L425.6,443.3z M425.6,453.3c0,0,0,2.2,0,4l0,0
				l0,0v2h1v-6H425.6L425.6,453.3z M425.6,462.3v1c0,0,1.1,0,2.4,0l0,0l0,0l0,0l0,0l0,0l0,0h0.1l0,0l0,0l0,0l0,0l0,0l0,0l0,0h3.3v-1
				H425.6L425.6,462.3z M435.6,462.4v1h6v-1H435.6L435.6,462.4z M445.6,462.4v1h6v-1H445.6L445.6,462.4z M455.6,462.5v1h6v-1H455.6
				L455.6,462.5z M465.6,462.5v1h3.1l0,0l0,0c1.5,0,2.9,0,2.9,0v-1H465.6L465.6,462.5z M475.6,462.6v1h6v-1H475.6L475.6,462.6z
				 M485.6,462.7v1h6v-1H485.6L485.6,462.7z M495.6,462.7v1h6v-1H495.6L495.6,462.7z M505.6,462.8v1c0,0,0.8,0,1.8,0l0,0l0,0l0,0
				l0,0l0,0l0,0l0,0l0,0l0,0c0,0,0,0,0.1,0l0,0l0,0l0,0l0,0l0,0l0,0l0,0l0,0h0.1l0,0l0,0l0,0h3.7v-1H505.6L505.6,462.8z
				 M515.6,462.8v1h6v-1H515.6L515.6,462.8z M525.6,462.9v1h6v-1H525.6L525.6,462.9z M535.6,462.9v1h6v-1H535.6L535.6,462.9z
				 M545.6,463v1h3.2c1.4,0,2.8,0,2.8,0v-1H545.6L545.6,463z M555.6,463v1h6v-1H555.6L555.6,463z M565.6,463.1v1h6v-1H565.6
				L565.6,463.1z M574.6,458.1v6h1v-6H574.6L574.6,458.1z M574.6,448.1v6h1v-6H574.6L574.6,448.1z M574.6,438.1v6h1c0,0,0-0.7,0-1.6
				l0,0l0,0v-4.4H574.6L574.6,438.1z M574.6,428.1v6h1v-4l0,0l0,0l0,0l0,0c0,0,0,0,0-0.1l0,0c0-1.1,0-1.9,0-1.9H574.6L574.6,428.1z
				 M574.7,418.1v6h1c0,0,0-1.7,0-3.3l0,0l0,0l0,0l0,0v-2.7H574.7L574.7,418.1z M574.7,408.1v6h1v-0.9l0,0l0,0l0,0l0,0l0,0l0,0
				c0-1.7,0-5,0-5L574.7,408.1L574.7,408.1z M574.7,398.1v6h1v-6H574.7L574.7,398.1z M574.7,388.1v6h1v-6H574.7L574.7,388.1z
				 M574.7,378.1v6h1v-4.5l0,0l0,0l0,0l0,0l0,0l0,0l0,0l0,0l0,0l0,0l0,0l0,0c0-0.8,0-1.3,0-1.3L574.7,378.1L574.7,378.1z
				 M574.7,368.1v6h1c0,0,0-1.5,0-2.9l0,0l0,0l0,0l0,0v-3L574.7,368.1L574.7,368.1z M574.7,358.1v6h1v-1.4l0,0l0,0l0,0l0,0
				c0-1.8,0-4.5,0-4.5L574.7,358.1L574.7,358.1z M574.8,348.1v6h1c0,0,0-3,0-4.7l0,0l0,0l0,0l0,0l0,0l0,0v-1.2L574.8,348.1
				L574.8,348.1z M574.8,338.1v6h1v-6H574.8L574.8,338.1z M574.8,328.1v6h1V329l0,0l0,0l0,0v-0.1l0,0l0,0l0,0l0,0l0,0l0,0
				c0-0.4,0-0.7,0-0.7L574.8,328.1L574.8,328.1z M574.8,318.1v6h1c0,0,0-1.3,0-2.6l0,0l0,0v-3.3L574.8,318.1L574.8,318.1z
				 M574.8,308.1v6h1v-2l0,0l0,0l0,0l0,0V312l0,0c0-1.7,0-3.8,0-3.8L574.8,308.1L574.8,308.1z M574.8,298.1v6h1c0,0,0-2.6,0-4.4l0,0
				l0,0l0,0l0,0l0,0l0,0v-1.6H574.8L574.8,298.1z M574.8,288.1v6h1v-6H574.8L574.8,288.1z M574.8,278.1v6h1v-5.8l0,0l0,0l0,0l0,0
				l0,0l0,0l0,0l0,0l0,0l0,0c0-0.1,0-0.1,0-0.1L574.8,278.1L574.8,278.1z M574.9,268.1v6h1c0,0,0-1.1,0-2.3l0,0l0,0l0,0l0,0v-3.6
				L574.9,268.1L574.9,268.1z M574.9,258.1v6h1v-2.7l0,0l0,0c0-1.6,0-3.3,0-3.3H574.9L574.9,258.1z M574.9,248.1v6h1c0,0,0-2.3,0-4
				l0,0l0,0l0,0l0,0v-1.9L574.9,248.1L574.9,248.1z M574.9,238.1v6h1v-6H574.9L574.9,238.1z M574.9,228.1v6h1v-6H574.9L574.9,228.1z
				 M574.9,218.1v6h1c0,0,0-0.9,0-2v-4H574.9L574.9,218.1z M574.9,208.1v6h1v-3.2l0,0l0,0l0,0l0,0l0,0l0,0c0-1.4,0-2.7,0-2.7
				L574.9,208.1L574.9,208.1z M575,198.1v6h1c0,0,0-2.1,0-3.8v-2.2H575L575,198.1z M570,194.1v1h6v-1l0,0
				C576,194.1,570.8,194.1,570,194.1L570,194.1C570.1,194.1,570.1,194.1,570,194.1L570,194.1L570,194.1z M560,194.1v1h6v-1
				c0,0-1.9,0-3.5,0l0,0l0,0l0,0l0,0l0,0l0,0l0,0c0,0,0,0-0.1,0l0,0l0,0l0,0l0,0l0,0l0,0l0,0l0,0l0,0l0,0h-0.1l0,0h-0.1l0,0H560
				L560,194.1z M550,194v1h6v-1H550L550,194z M540,193.9v1h6v-1H540L540,193.9z M530,193.9v1h6v-1H530L530,193.9z M520,193.8v1h6v-1
				h-3l0,0l0,0C521.5,193.8,520,193.8,520,193.8L520,193.8z M510,193.8v1h6v-1H510L510,193.8z M500,193.7v1h6v-1H500L500,193.7z
				 M490,193.7v1h6v-1H490L490,193.7z M480,193.6v1h6v-1c0,0-1.3,0-2.7,0l0,0h-0.1l0,0l0,0l0,0l0,0l0,0l0,0l0,0l0,0l0,0l0,0l0,0l0,0
				l0,0l0,0l0,0l0,0H483l0,0l0,0l0,0H480L480,193.6z M470,193.6v1h6v-1H470L470,193.6z M460,193.5v1h6v-1H460L460,193.5z M450,193.5
				v1h6v-1H450L450,193.5z M440,193.4v1h6v-1h-3C441.4,193.4,440,193.4,440,193.4L440,193.4z M430,193.4v1h6v-1H430L430,193.4z"/>
		</g>
		<g>
			<g class="st8">
				<path class="st9" d="M438.9,211.6h2.9c0,2.4-0.1,4-0.2,4.8c-0.2,0.8-0.9,1.2-2.2,1.3c-0.4,0-0.7,0-1.1-0.1l-0.3-1.2
					c0.4,0,0.7,0.1,1.1,0.1c0.7,0,1.1-0.2,1.3-0.7c0.1-0.5,0.2-1.5,0.2-3h-3l0.4-4.3h2.4v-1.9h-2.7v-1.1h4v4.2h-2.6L438.9,211.6z
					 M444.5,207.1c-0.3-0.7-0.7-1.3-1.1-1.8l1.2-0.4c0.4,0.6,0.7,1.2,1,1.8l-0.9,0.4h2.1c0.4-0.7,0.7-1.5,1-2.3l1.3,0.4
					c-0.3,0.7-0.6,1.3-1,1.9h1.7v5.8h-2.9v1.2h3.5v1.2h-3.5v2.5h-1.3v-2.5h-3.4v-1.2h3.4v-1.2h-2.9v-5.8L444.5,207.1z M445.6,210.6
					h-1.7v1.2h1.7V210.6z M445.6,209.5v-1.3h-1.7v1.3H445.6z M448.6,210.6h-1.7v1.2h1.7V210.6z M446.9,209.5h1.7v-1.3h-1.7V209.5z"
					/>
				<path class="st9" d="M452.9,207.8c0,1.4-0.2,2.7-0.5,4l-1.1-0.3c0.3-1.2,0.5-2.4,0.5-3.8L452.9,207.8z M454.6,205v12.8h-1.3V205
					H454.6z M456.3,209.3c0.4-1.1,0.6-2.2,0.7-3.4l1.2,0.2c0,0.5-0.1,1-0.1,1.5h1.7v-2.5h1.3v2.5h2.9v1.3h-2.9v3.1h2.8v1.3h-2.8v3
					h3.3v1.3h-8.5v-1.3h3.9v-3h-3.1V212h3.1v-3.1h-1.9c-0.3,1-0.6,1.9-1.1,2.7l-1-0.9c0.1-0.2,0.2-0.4,0.3-0.6l-0.6,0.2
					c-0.2-0.9-0.4-1.7-0.7-2.5l1-0.3C455.9,208,456.1,208.6,456.3,209.3z"/>
				<path class="st9" d="M474.8,217.9l-0.3-1.3l1.3,0.1c0.3,0,0.5-0.2,0.5-0.5v-9.4h-8.8V218h-1.3v-12.4h11.4v10.9
					c0,1-0.5,1.4-1.4,1.4H474.8z M470.2,213c-0.5,1.3-1,2.3-1.7,3.3l-0.9-1c0.7-1,1.2-2.2,1.7-3.5c-0.6-0.8-1.2-1.6-1.8-2.3l0.8-0.8
					c0.4,0.5,0.9,1.1,1.5,1.7c0.2-0.9,0.4-1.8,0.5-2.8l1.2,0.2c-0.2,1.4-0.5,2.7-0.8,3.8c0.5,0.7,1,1.4,1.5,2.2l-0.9,0.9
					C471,214.1,470.6,213.6,470.2,213z M474.2,213.4c-0.5,1.3-1.1,2.3-1.8,3.3l-0.8-1c0.7-1,1.3-2.2,1.8-3.5
					c-0.6-0.9-1.2-1.7-1.8-2.5l0.8-0.8c0.4,0.5,0.9,1.1,1.4,1.8c0.3-1,0.5-2,0.6-3l1.2,0.2c-0.3,1.5-0.6,2.9-1,4.2
					c0.5,0.8,1,1.6,1.6,2.5l-0.9,0.9C475,214.7,474.6,214,474.2,213.4z"/>
				<path class="st9" d="M485.9,205.1v1.6h4.5v1.3h-4.5v1.8h6.3v1.3h-6.3v1.2c1.6,0.7,3.2,1.6,4.9,2.5l-0.8,1.1
					c-1.6-1-3-1.8-4.2-2.3v4.4h-1.3v-6.9h-4.9v-1.3h4.9v-4.7L485.9,205.1z"/>
				<path class="st9" d="M499.6,207.2c0.6,0.6,0.9,1.3,0.9,2.2s-0.3,1.7-1,2.4c-0.4,0.4-1.1,0.9-2.1,1.6c-1.1,0.7-1.7,1.3-1.9,1.9h5
					v1.3h-6.9c0-1,0.3-1.9,1-2.6c0.4-0.4,1.1-1,2.3-1.8c0.7-0.5,1.2-0.9,1.4-1.1c0.4-0.5,0.7-1,0.7-1.6s-0.2-1-0.5-1.3
					s-0.8-0.4-1.4-0.4s-1.1,0.2-1.4,0.6c-0.3,0.4-0.5,1-0.5,1.8h-1.5c0-1.1,0.3-2,1-2.7c0.6-0.7,1.5-1.1,2.6-1.1
					C498.2,206.4,499,206.7,499.6,207.2z"/>
				<path class="st9" d="M514.2,205.1c-0.6,1-1,1.9-1.4,2.9c-0.4,1.2-0.6,2.4-0.6,3.6c0,1.2,0.2,2.4,0.6,3.6c0.3,1,0.8,1.9,1.3,2.9
					h-1.2c-0.7-0.9-1.2-1.9-1.5-2.9c-0.4-1.2-0.6-2.4-0.6-3.7s0.2-2.5,0.7-3.7c0.4-1,0.9-2,1.5-2.9L514.2,205.1z"/>
				<path class="st9" d="M522.9,217.8c-1,0-1.7-0.1-2.3-0.2c-0.6-0.2-1.1-0.5-1.5-1c-0.2-0.2-0.4-0.4-0.6-0.4
					c-0.3,0-0.8,0.6-1.5,1.9l-1-0.9c0.7-1.2,1.4-1.9,1.9-2.2v-3.9H516v-1.3h3.2v5.3c0.1,0.1,0.1,0.1,0.2,0.2
					c0.3,0.4,0.7,0.6,1.1,0.8c0.4,0.2,1.1,0.3,2,0.3c0.8,0,1.8,0,2.9,0c0.6,0,1.3,0,1.9,0c0.7,0,1.2-0.1,1.5-0.1l-0.3,1.3h-3
					C524.7,217.9,523.9,217.9,522.9,217.8z M519.5,207.5l-1,1c-0.6-0.7-1.3-1.5-2.3-2.3l0.9-0.9C518.1,206,518.9,206.7,519.5,207.5z
					 M523.6,209.9v-2.6c-0.9,0.1-1.8,0.2-2.8,0.3l-0.3-1.2c2.5-0.2,4.8-0.5,6.8-1l0.4,1.2c-0.9,0.2-1.8,0.4-2.8,0.5v2.8h3.6v1.2
					h-3.6v5h-1.3v-5H520v-1.2H523.6z"/>
				<path class="st9" d="M530.1,206.1c1.7-0.1,3.2-0.4,4.5-0.8l0.5,1.2c-0.5,0.2-1.1,0.3-1.7,0.4v2h1.7v1.3h-1.7v0.6
					c0.6,0.5,1.3,1.1,2,1.7l-0.5,0.8c2.4-0.6,4-1.5,4.9-2.8l1.2,0.5c-0.2,0.3-0.4,0.5-0.5,0.8h2.5v1.1c-0.9,2.4-3.4,4.1-7.6,5.2
					l-0.7-1.3c1.5-0.3,2.7-0.7,3.7-1.1c-0.3-0.4-0.7-0.7-1-1.1l0.9-0.7c0.4,0.4,0.8,0.7,1.2,1.1c0.9-0.6,1.6-1.3,2-2.1h-2.4
					c-0.9,0.6-2.1,1.1-3.4,1.5l-0.8-1.2l-0.2,0.3c-0.5-0.7-0.9-1.2-1.2-1.6v6.1h-1.3v-5.9c-0.5,1.2-1.1,2.2-1.8,3.2l-0.6-1.4
					c1-1.1,1.7-2.4,2.2-3.8h-1.9v-1.3h2V207c-0.6,0.1-1.1,0.1-1.7,0.2L530.1,206.1z M538.9,206.2h2.9v1.1c-0.8,2.1-2.9,3.6-6.1,4.5
					l-0.7-1c1-0.2,1.9-0.6,2.6-1c-0.3-0.4-0.6-0.8-0.8-1l0.9-0.7c0.4,0.4,0.6,0.8,0.8,1.1c0.8-0.6,1.4-1.2,1.9-2h-2.5
					c-0.6,0.6-1.3,1.2-2.1,1.6l-0.9-1.1c1.2-0.7,2.3-1.6,3.1-2.8l1.3,0.3C539.2,205.7,539.1,206,538.9,206.2z"/>
				<path class="st9" d="M545.7,205.2c0.6,0.9,1.1,1.9,1.5,2.9c0.4,1.2,0.6,2.4,0.6,3.7s-0.2,2.5-0.7,3.7c-0.4,1-0.9,1.9-1.5,2.9
					h-1.2c0.6-1,1-1.9,1.4-2.9c0.4-1.2,0.6-2.4,0.6-3.6c0-1.2-0.2-2.4-0.6-3.6c-0.3-1-0.8-1.9-1.3-2.9L545.7,205.2z"/>
			</g>
		</g>
	</g>
	<g id="ShadowBasicRect6_13_" transform="translate(485,236)">
		<rect x="-26.2" y="9.1" class="st1" width="86.4" height="50"/>
		<g>
			<rect x="-28.2" y="7.1" class="st2" width="86.4" height="50"/>
			<path class="st3" d="M58.7,57.6h-87.4v-51h87.4V57.6z M-27.7,56.6h85.4v-49h-85.4V56.6z"/>
		</g>
		<g transform="translate(20 9)">
			<g class="st8">
				<path class="st10" d="M-23.9,18.1v10H-25v-10H-23.9z"/>
				<path class="st10" d="M-17.7,18.1c2.3,0,3.4,1,3.4,2.9c0,2-1.2,3-3.5,3h-2.9v4.1h-1.1v-10H-17.7z M-20.7,23.1h2.9
					c0.8,0,1.4-0.2,1.8-0.5s0.6-0.8,0.6-1.5s-0.2-1.2-0.6-1.5c-0.4-0.3-1-0.5-1.8-0.5h-2.9V23.1z"/>
				<path class="st10" d="M-8.9,26.3c-1.3,0.6-2.7,1.1-4.2,1.5l-0.3-1c0.6-0.1,1.2-0.3,1.8-0.4v-5h-1.6v-1h1.6v-3.6h1v3.6h1.5v1
					h-1.5v4.7c0.6-0.2,1.1-0.4,1.7-0.7V26.3z M-1.1,24.6c-0.1,0.6-0.7,0.9-1.8,0.9H-3l-0.3-1c0.2,0,0.4,0,0.6,0
					c0.4,0,0.6-0.2,0.7-0.5c0.1-0.3,0.1-1.4,0.1-3.3l-2,0.6v5.3h-1v-5l-2,0.6v5.4c0,0.4,0.2,0.6,0.7,0.6h3.9c0.3,0,0.5-0.1,0.6-0.3
					c0.2-0.2,0.3-0.9,0.3-2l0.9,0.3c-0.1,1.4-0.3,2.3-0.6,2.6c-0.2,0.3-0.6,0.4-1.1,0.4h-4.4c-0.9,0-1.4-0.5-1.4-1.4v-5.3l-1.2,0.4
					v-1l1.2-0.4v-3.4h1v3.1l2-0.6v-3.9h1v3.6l3-0.9C-0.9,22.2-1,23.9-1.1,24.6z"/>
				<path class="st10" d="M5.4,26.5C4,27,2.5,27.4,0.8,27.8l-0.3-1.1c0.6-0.1,1.3-0.2,1.9-0.4v-5.1H0.7v-1h1.8v-3.6h1v3.6h1.7v1H3.5
					v4.9c0.6-0.2,1.3-0.4,1.9-0.6V26.5z M10.5,16.7v4.5h2.7v1h-2.7v5.9h3.1v1H4.7v-1h1.6v-8.3h1v8.3h2.1V16.7H10.5z"/>
				<path class="st10" d="M20.6,18.1v6.8h1.6v0.9h-1.6v2.3h-1.1v-2.3h-5v-1.1l5-6.6C19.5,18.1,20.6,18.1,20.6,18.1z M15.5,24.9h4.1
					v-5.3l0,0L15.5,24.9z"/>
			</g>
		</g>
	</g>
	<g id="ShadowBasicRect6_12_" transform="translate(485,236)">
		<rect x="-26.2" y="79.6" class="st1" width="86.4" height="50"/>
		<g>
			<rect x="-28.2" y="77.6" class="st2" width="86.4" height="50"/>
			<path class="st3" d="M58.7,128.1h-87.4v-51h87.4V128.1z M-27.7,127.1h85.4v-49h-85.4V127.1z"/>
		</g>
		<g transform="translate(20 9)">
			<g class="st8">
				<path class="st10" d="M-23.9,88.6v10H-25v-10H-23.9z"/>
				<path class="st10" d="M-17.7,88.6c2.3,0,3.4,1,3.4,2.9c0,2-1.2,3-3.5,3h-2.9v4.1h-1.1v-10H-17.7z M-20.7,93.5h2.9
					c0.8,0,1.4-0.2,1.8-0.5s0.6-0.8,0.6-1.5s-0.2-1.2-0.6-1.5c-0.4-0.3-1-0.5-1.8-0.5h-2.9V93.5z"/>
				<path class="st10" d="M-8.9,96.8c-1.3,0.6-2.7,1.1-4.2,1.5l-0.3-1c0.6-0.1,1.2-0.3,1.8-0.4v-5h-1.6v-1h1.6v-3.6h1v3.6h1.5v1
					h-1.5v4.7c0.6-0.2,1.1-0.4,1.7-0.7V96.8z M-1.1,95.1C-1.2,95.7-1.8,96-2.9,96H-3l-0.3-1c0.2,0,0.4,0,0.6,0
					c0.4,0,0.6-0.2,0.7-0.5c0.1-0.3,0.1-1.4,0.1-3.3l-2,0.6v5.3h-1v-5l-2,0.6v5.4c0,0.4,0.2,0.6,0.7,0.6h3.9c0.3,0,0.5-0.1,0.6-0.3
					c0.2-0.2,0.3-0.9,0.3-2l0.9,0.3c-0.1,1.4-0.3,2.3-0.6,2.6c-0.2,0.3-0.6,0.4-1.1,0.4h-4.4c-0.9,0-1.4-0.5-1.4-1.4V93l-1.2,0.4v-1
					L-8,92v-3.4h1v3.1l2-0.6v-3.9h1v3.6l3-0.9C-0.9,92.7-1,94.4-1.1,95.1z"/>
				<path class="st10" d="M5.4,97c-1.4,0.5-2.9,0.9-4.6,1.3l-0.3-1.1c0.6-0.1,1.3-0.2,1.9-0.4v-5.1H0.7v-1h1.8v-3.6h1v3.6h1.7v1H3.5
					v4.8c0.6-0.2,1.3-0.4,1.9-0.6V97z M10.5,87.2v4.5h2.7v1h-2.7v5.9h3.1v1H4.7v-1h1.6v-8.5h1v8.3h2.1V87.1L10.5,87.2L10.5,87.2z"/>
				<path class="st10" d="M21.5,88.6v1h-4.9l-0.3,3.3h0.1c0.3-0.3,0.6-0.6,1.1-0.8c0.4-0.2,0.8-0.2,1.3-0.2c1,0,1.7,0.3,2.3,0.9
					c0.6,0.6,0.9,1.5,0.9,2.5s-0.4,1.8-1.1,2.5c-0.7,0.6-1.5,0.9-2.5,0.9c-0.9,0-1.6-0.2-2.3-0.7c-0.7-0.5-1.1-1.3-1.1-2.2h1
					c0.1,0.6,0.3,1.1,0.8,1.5c0.4,0.3,0.9,0.4,1.5,0.4c0.7,0,1.3-0.2,1.7-0.7c0.4-0.4,0.7-1,0.7-1.7c0-0.8-0.2-1.4-0.6-1.8
					s-1-0.7-1.7-0.7c-0.5,0-0.9,0.1-1.3,0.3c-0.4,0.2-0.7,0.5-0.9,0.9h-1.1l0.5-5.5L21.5,88.6L21.5,88.6z"/>
			</g>
		</g>
	</g>
	<g id="ShadowBasicRect6_11_" transform="translate(485,236)">
		<rect x="-26.2" y="150.1" class="st1" width="86.4" height="50"/>
		<g>
			<rect x="-28.2" y="148.1" class="st2" width="86.4" height="50"/>
			<path class="st3" d="M58.7,198.6h-87.4v-51h87.4V198.6z M-27.7,197.6h85.4v-49h-85.4V197.6z"/>
		</g>
		<g transform="translate(20 9)">
			<g class="st8">
				<path class="st10" d="M-23.9,159.1v10H-25v-10H-23.9z"/>
				<path class="st10" d="M-17.7,159.1c2.3,0,3.4,1,3.4,2.9c0,2-1.2,3-3.5,3h-2.9v4.1h-1.1v-10H-17.7z M-20.7,164h2.9
					c0.8,0,1.4-0.2,1.8-0.5s0.6-0.8,0.6-1.5s-0.2-1.2-0.6-1.5c-0.4-0.3-1-0.5-1.8-0.5h-2.9V164z"/>
				<path class="st10" d="M-8.9,167.3c-1.3,0.6-2.7,1.1-4.2,1.5l-0.3-1c0.6-0.1,1.2-0.3,1.8-0.4v-5h-1.6v-1h1.6v-3.6h1v3.6h1.5v1
					h-1.5v4.7c0.6-0.2,1.1-0.4,1.7-0.7V167.3z M-1.1,165.6c-0.1,0.6-0.7,0.9-1.8,0.9H-3l-0.3-1c0.2,0,0.4,0,0.6,0
					c0.4,0,0.6-0.2,0.7-0.5c0.1-0.3,0.1-1.4,0.1-3.3l-2,0.6v5.3h-1v-5l-2,0.6v5.4c0,0.4,0.2,0.6,0.7,0.6h3.9c0.3,0,0.5-0.1,0.6-0.3
					c0.2-0.2,0.3-0.9,0.3-2l0.9,0.3c-0.1,1.4-0.3,2.3-0.6,2.6c-0.2,0.3-0.6,0.4-1.1,0.4h-4.4c-0.9,0-1.4-0.5-1.4-1.4v-5.3l-1.2,0.4
					v-1l1.2-0.4v-3.4h1v3.1l2-0.6v-3.9h1v3.6l3-0.9C-0.9,163.2-1,164.9-1.1,165.6z"/>
				<path class="st10" d="M5.4,167.5c-1.4,0.5-2.9,0.9-4.6,1.3l-0.3-1.1c0.6-0.1,1.3-0.2,1.9-0.4v-5.1H0.7v-1h1.8v-3.6h1v3.6h1.7v1
					H3.5v4.8c0.6-0.2,1.3-0.4,1.9-0.6V167.5z M10.5,157.7v4.5h2.7v1h-2.7v5.9h3.1v1H4.7v-1h1.6v-8.3h1v8.3h2.1v-11.3L10.5,157.7
					L10.5,157.7z"/>
				<path class="st10" d="M21.7,161.6h-1.1c-0.2-1.1-0.9-1.7-2.1-1.7c-0.8,0-1.4,0.4-1.8,1.2c-0.4,0.7-0.7,1.7-0.7,2.8
					c0,0.1,0,0.2,0,0.4h0.1c0.3-0.5,0.6-0.9,1.1-1.2c0.4-0.3,1-0.4,1.6-0.4c1,0,1.7,0.3,2.3,0.9c0.6,0.6,0.9,1.4,0.9,2.4
					s-0.3,1.8-1,2.5c-0.6,0.6-1.4,1-2.4,1c-1.2,0-2.1-0.5-2.7-1.4c-0.6-0.9-0.9-2-0.9-3.6s0.3-2.9,0.9-3.9c0.7-1.1,1.6-1.6,2.7-1.6
					C20.4,158.9,21.4,159.8,21.7,161.6z M16.8,164.2c-0.4,0.4-0.6,1-0.6,1.7s0.2,1.3,0.6,1.7c0.4,0.5,1,0.7,1.7,0.7s1.2-0.2,1.6-0.7
					s0.6-1.1,0.6-1.8s-0.2-1.3-0.6-1.7s-1-0.7-1.7-0.7C17.8,163.5,17.3,163.8,16.8,164.2z"/>
			</g>
		</g>
	</g>
	<g>
		<polygon class="st7" points="761.2,464.1 611.2,463.3 611.6,193.3 761.6,194.1 		"/>
		<g>
			<g class="st8">
				<path class="st9" d="M624.5,211.6h2.9c0,2.4-0.1,4-0.2,4.8c-0.2,0.8-0.9,1.2-2.2,1.3c-0.4,0-0.7,0-1.1-0.1l-0.3-1.2
					c0.4,0,0.7,0.1,1.1,0.1c0.7,0,1.1-0.2,1.3-0.7c0.1-0.5,0.2-1.5,0.2-3h-3l0.4-4.3h2.4v-1.9h-2.7v-1.1h4v4.2h-2.6L624.5,211.6z
					 M630.1,207.1c-0.3-0.7-0.7-1.3-1.1-1.8l1.2-0.4c0.4,0.6,0.7,1.2,1,1.8l-0.9,0.4h2.1c0.4-0.7,0.7-1.5,1-2.3l1.3,0.4
					c-0.3,0.7-0.6,1.3-1,1.9h1.7v5.8h-2.9v1.2h3.5v1.2h-3.5v2.5h-1.3v-2.5h-3.4v-1.2h3.4v-1.2h-2.9v-5.8L630.1,207.1z M631.2,210.6
					h-1.7v1.2h1.7V210.6z M631.2,209.5v-1.3h-1.7v1.3H631.2z M634.2,210.6h-1.7v1.2h1.7V210.6z M632.5,209.5h1.7v-1.3h-1.7V209.5z"
					/>
				<path class="st9" d="M638.5,207.8c0,1.4-0.2,2.7-0.5,4l-1.1-0.3c0.3-1.2,0.5-2.4,0.5-3.8L638.5,207.8z M640.2,205v12.8h-1.3V205
					H640.2z M641.9,209.3c0.4-1.1,0.6-2.2,0.7-3.4l1.2,0.2c0,0.5-0.1,1-0.1,1.5h1.7v-2.5h1.3v2.5h2.9v1.3h-2.9v3.1h2.8v1.3h-2.8v3
					h3.3v1.3h-8.5v-1.3h3.9v-3h-3.1V212h3.1v-3.1h-1.9c-0.3,1-0.6,1.9-1.1,2.7l-1-0.9c0.1-0.2,0.2-0.4,0.3-0.6l-0.6,0.2
					c-0.2-0.9-0.4-1.7-0.7-2.5l1-0.3C641.5,208,641.7,208.6,641.9,209.3z"/>
				<path class="st9" d="M660.4,217.9l-0.3-1.3l1.3,0.1c0.3,0,0.5-0.2,0.5-0.5v-9.4h-8.8V218h-1.3v-12.4h11.4v10.9
					c0,1-0.5,1.4-1.4,1.4H660.4z M655.8,213c-0.5,1.3-1,2.3-1.7,3.3l-0.9-1c0.7-1,1.2-2.2,1.7-3.5c-0.6-0.8-1.2-1.6-1.8-2.3l0.8-0.8
					c0.4,0.5,0.9,1.1,1.5,1.7c0.2-0.9,0.4-1.8,0.5-2.8l1.2,0.2c-0.2,1.4-0.5,2.7-0.8,3.8c0.5,0.7,1,1.4,1.5,2.2l-0.9,0.9
					C656.6,214.1,656.2,213.6,655.8,213z M659.8,213.4c-0.5,1.3-1.1,2.3-1.8,3.3l-0.8-1c0.7-1,1.3-2.2,1.8-3.5
					c-0.6-0.9-1.2-1.7-1.8-2.5l0.8-0.8c0.4,0.5,0.9,1.1,1.4,1.8c0.3-1,0.5-2,0.6-3l1.2,0.2c-0.3,1.5-0.6,2.9-1,4.2
					c0.5,0.8,1,1.6,1.6,2.5l-0.9,0.9C660.6,214.7,660.2,214,659.8,213.4z"/>
				<path class="st9" d="M671.5,205.1v1.6h4.5v1.3h-4.5v1.8h6.3v1.3h-6.3v1.2c1.6,0.7,3.2,1.6,4.9,2.5l-0.8,1.1
					c-1.6-1-3-1.8-4.2-2.3v4.4h-1.3v-6.9h-4.9v-1.3h4.9v-4.7L671.5,205.1z"/>
				<path class="st9" d="M685.2,207.1c0.6,0.5,0.9,1.2,0.9,2c0,1.1-0.6,1.8-1.7,2.2c0.6,0.2,1,0.5,1.3,0.8c0.3,0.4,0.5,0.9,0.5,1.5
					c0,0.9-0.3,1.7-1,2.3s-1.6,0.9-2.6,0.9s-1.8-0.3-2.5-0.8c-0.7-0.6-1.1-1.4-1.2-2.6h1.5c0,0.7,0.2,1.2,0.7,1.6
					c0.4,0.3,0.8,0.5,1.4,0.5c0.6,0,1.2-0.2,1.6-0.6c0.3-0.3,0.5-0.7,0.5-1.2c0-0.6-0.2-1-0.5-1.3s-0.8-0.4-1.5-0.4h-0.7v-1.1h0.7
					c0.6,0,1.1-0.1,1.4-0.4c0.3-0.3,0.5-0.7,0.5-1.2s-0.2-0.9-0.4-1.2c-0.3-0.3-0.8-0.4-1.4-0.4c-0.6,0-1.1,0.2-1.4,0.5
					c-0.3,0.3-0.5,0.8-0.6,1.4h-1.5c0.1-1,0.5-1.8,1.1-2.3c0.6-0.6,1.4-0.8,2.4-0.8C683.8,206.4,684.6,206.6,685.2,207.1z"/>
			</g>
		</g>
	</g>
	<g id="ShadowBasicRect6_16_" transform="translate(485,236)">
		<rect x="159.4" y="9.1" class="st1" width="86.4" height="50"/>
		<g>
			<rect x="157.4" y="7.1" class="st2" width="86.4" height="50"/>
			<path class="st3" d="M244.3,57.6h-87.4v-51h87.4L244.3,57.6L244.3,57.6z M157.9,56.6h85.4v-49h-85.4V56.6z"/>
		</g>
		<g transform="translate(20 9)">
			<g class="st8">
				<path class="st10" d="M161.7,18.1v10h-1.1v-10H161.7z"/>
				<path class="st10" d="M167.9,18.1c2.3,0,3.4,1,3.4,2.9c0,2-1.2,3-3.5,3h-2.9v4.1h-1.1v-10H167.9z M164.9,23.1h2.9
					c0.8,0,1.4-0.2,1.8-0.5c0.4-0.3,0.6-0.8,0.6-1.5s-0.2-1.2-0.6-1.5c-0.4-0.3-1-0.5-1.8-0.5h-2.9V23.1z"/>
				<path class="st10" d="M176.7,26.3c-1.3,0.6-2.7,1.1-4.2,1.5l-0.3-1c0.6-0.1,1.2-0.3,1.8-0.4v-5h-1.6v-1h1.6v-3.6h1v3.6h1.5v1
					H175v4.7c0.6-0.2,1.1-0.4,1.7-0.7V26.3z M184.5,24.6c-0.1,0.6-0.7,0.9-1.8,0.9h-0.1l-0.3-1c0.2,0,0.4,0,0.6,0
					c0.4,0,0.6-0.2,0.7-0.5c0.1-0.3,0.1-1.4,0.1-3.3l-2,0.6v5.3h-1v-5l-2,0.6v5.4c0,0.4,0.2,0.6,0.7,0.6h3.9c0.3,0,0.5-0.1,0.6-0.3
					c0.2-0.2,0.3-0.9,0.3-2l0.9,0.3c-0.1,1.4-0.3,2.3-0.6,2.6c-0.2,0.3-0.6,0.4-1.1,0.4H179c-0.9,0-1.4-0.5-1.4-1.4v-5.3l-1.2,0.4
					v-1l1.2-0.4v-3.4h1v3.1l2-0.6v-3.9h1v3.6l3-0.9C184.7,22.2,184.6,23.9,184.5,24.6z"/>
				<path class="st10" d="M191,26.5c-1.4,0.5-2.9,0.9-4.6,1.3l-0.3-1.1c0.6-0.1,1.3-0.2,1.9-0.4v-5.1h-1.8v-1h1.8v-3.6h1v3.6h1.7v1
					H189v4.9c0.6-0.2,1.3-0.4,1.9-0.6v1H191z M196.1,16.7v4.5h2.7v1h-2.7v5.9h3.1v1h-8.8v-1h1.6v-8.3h1v8.3h2.1V16.7H196.1z"/>
				<path class="st10" d="M206.8,18.1v1l-3.7,9.1h-1.2l3.7-9h-5.4v-1L206.8,18.1L206.8,18.1z"/>
			</g>
		</g>
	</g>
	<g id="ShadowBasicRect6_15_" transform="translate(485,236)">
		<rect x="159.4" y="79.6" class="st1" width="86.4" height="50"/>
		<g>
			<rect x="157.4" y="77.6" class="st2" width="86.4" height="50"/>
			<path class="st3" d="M244.3,128.1h-87.4v-51h87.4L244.3,128.1L244.3,128.1z M157.9,127.1h85.4v-49h-85.4V127.1z"/>
		</g>
		<g transform="translate(20 9)">
			<g class="st8">
				<path class="st10" d="M161.7,88.6v10h-1.1v-10H161.7z"/>
				<path class="st10" d="M167.9,88.6c2.3,0,3.4,1,3.4,2.9c0,2-1.2,3-3.5,3h-2.9v4.1h-1.1v-10H167.9z M164.9,93.5h2.9
					c0.8,0,1.4-0.2,1.8-0.5c0.4-0.3,0.6-0.8,0.6-1.5s-0.2-1.2-0.6-1.5c-0.4-0.3-1-0.5-1.8-0.5h-2.9V93.5z"/>
				<path class="st10" d="M176.7,96.8c-1.3,0.6-2.7,1.1-4.2,1.5l-0.3-1c0.6-0.1,1.2-0.3,1.8-0.4v-5h-1.6v-1h1.6v-3.6h1v3.6h1.5v1
					H175v4.7c0.6-0.2,1.1-0.4,1.7-0.7V96.8z M184.5,95.1c-0.1,0.6-0.7,0.9-1.8,0.9h-0.1l-0.3-1c0.2,0,0.4,0,0.6,0
					c0.4,0,0.6-0.2,0.7-0.5c0.1-0.3,0.1-1.4,0.1-3.3l-2,0.6v5.3h-1v-5l-2,0.6v5.4c0,0.4,0.2,0.6,0.7,0.6h3.9c0.3,0,0.5-0.1,0.6-0.3
					c0.2-0.2,0.3-0.9,0.3-2l0.9,0.3c-0.1,1.4-0.3,2.3-0.6,2.6c-0.2,0.3-0.6,0.4-1.1,0.4H179c-0.9,0-1.4-0.5-1.4-1.4V93l-1.2,0.4v-1
					l1.2-0.4v-3.4h1v3.1l2-0.6v-3.9h1v3.6l3-0.9C184.7,92.7,184.6,94.4,184.5,95.1z"/>
				<path class="st10" d="M191,97c-1.4,0.5-2.9,0.9-4.6,1.3l-0.3-1.1c0.6-0.1,1.3-0.2,1.9-0.4v-5.1h-1.8v-1h1.8v-3.6h1v3.6h1.7v1
					H189v4.8c0.6-0.2,1.3-0.4,1.9-0.6V97H191z M196.1,87.2v4.5h2.7v1h-2.7v5.9h3.1v1h-8.8v-1h1.6v-8.5h1v8.3h2.1V87.1L196.1,87.2
					L196.1,87.2z"/>
				<path class="st10" d="M206.4,89.2c0.5,0.5,0.8,1.1,0.8,1.8c0,0.5-0.1,1-0.4,1.3c-0.3,0.4-0.7,0.7-1.2,0.9l0,0
					c0.5,0.1,1,0.4,1.3,0.9c0.4,0.5,0.6,1,0.6,1.7c0,0.9-0.3,1.6-0.9,2.1c-0.6,0.5-1.5,0.8-2.7,0.8s-2.1-0.3-2.7-0.8
					c-0.6-0.5-0.9-1.2-0.9-2.1c0-0.6,0.2-1.2,0.6-1.7c0.4-0.4,0.8-0.7,1.3-0.9l0,0c-0.5-0.2-0.9-0.5-1.2-0.9s-0.4-0.8-0.4-1.3
					c0-0.7,0.3-1.3,0.8-1.8c0.6-0.5,1.4-0.8,2.5-0.8C205,88.4,205.8,88.7,206.4,89.2z M202.1,94.4c-0.4,0.4-0.6,0.9-0.6,1.5
					s0.2,1.1,0.6,1.4c0.4,0.4,1,0.6,1.9,0.6s1.4-0.2,1.9-0.6c0.4-0.4,0.6-0.8,0.6-1.4s-0.2-1.1-0.6-1.5c-0.4-0.4-1.1-0.6-1.9-0.6
					C203.2,93.8,202.5,94,202.1,94.4z M202.3,89.9c-0.3,0.3-0.5,0.7-0.5,1.2s0.2,0.9,0.5,1.2c0.4,0.4,0.9,0.6,1.7,0.6
					s1.3-0.2,1.7-0.6c0.3-0.3,0.5-0.7,0.5-1.2s-0.2-0.9-0.5-1.2c-0.4-0.4-1-0.5-1.7-0.5S202.7,89.6,202.3,89.9z"/>
			</g>
		</g>
	</g>
	<g id="ShadowBasicRect6_14_" transform="translate(485,236)">
		<rect x="159.4" y="150.1" class="st1" width="86.4" height="50"/>
		<g>
			<rect x="157.4" y="148.1" class="st2" width="86.4" height="50"/>
			<path class="st3" d="M244.3,198.6h-87.4v-51h87.4L244.3,198.6L244.3,198.6z M157.9,197.6h85.4v-49h-85.4V197.6z"/>
		</g>
		<g transform="translate(20 9)">
			<g class="st8">
				<path class="st10" d="M161.7,159.1v10h-1.1v-10H161.7z"/>
				<path class="st10" d="M167.9,159.1c2.3,0,3.4,1,3.4,2.9c0,2-1.2,3-3.5,3h-2.9v4.1h-1.1v-10H167.9z M164.9,164h2.9
					c0.8,0,1.4-0.2,1.8-0.5c0.4-0.3,0.6-0.8,0.6-1.5s-0.2-1.2-0.6-1.5c-0.4-0.3-1-0.5-1.8-0.5h-2.9V164z"/>
				<path class="st10" d="M176.7,167.3c-1.3,0.6-2.7,1.1-4.2,1.5l-0.3-1c0.6-0.1,1.2-0.3,1.8-0.4v-5h-1.6v-1h1.6v-3.6h1v3.6h1.5v1
					H175v4.7c0.6-0.2,1.1-0.4,1.7-0.7V167.3z M184.5,165.6c-0.1,0.6-0.7,0.9-1.8,0.9h-0.1l-0.3-1c0.2,0,0.4,0,0.6,0
					c0.4,0,0.6-0.2,0.7-0.5c0.1-0.3,0.1-1.4,0.1-3.3l-2,0.6v5.3h-1v-5l-2,0.6v5.4c0,0.4,0.2,0.6,0.7,0.6h3.9c0.3,0,0.5-0.1,0.6-0.3
					c0.2-0.2,0.3-0.9,0.3-2l0.9,0.3c-0.1,1.4-0.3,2.3-0.6,2.6c-0.2,0.3-0.6,0.4-1.1,0.4H179c-0.9,0-1.4-0.5-1.4-1.4v-5.3l-1.2,0.4
					v-1l1.2-0.4v-3.4h1v3.1l2-0.6v-3.9h1v3.6l3-0.9C184.7,163.2,184.6,164.9,184.5,165.6z"/>
				<path class="st10" d="M191,167.5c-1.4,0.5-2.9,0.9-4.6,1.3l-0.3-1.1c0.6-0.1,1.3-0.2,1.9-0.4v-5.1h-1.8v-1h1.8v-3.6h1v3.6h1.7v1
					H189v4.8c0.6-0.2,1.3-0.4,1.9-0.6v1.1H191z M196.1,157.7v4.5h2.7v1h-2.7v5.9h3.1v1h-8.8v-1h1.6v-8.3h1v8.3h2.1v-11.3
					L196.1,157.7L196.1,157.7z"/>
				<path class="st10" d="M206.6,160.3c0.6,0.8,0.9,2,0.9,3.6s-0.3,2.9-0.9,3.9c-0.7,1-1.6,1.6-2.7,1.6c-1.9,0-2.9-0.9-3.2-2.7h1.1
					c0.2,1.1,0.9,1.7,2.1,1.7c0.8,0,1.4-0.4,1.8-1.2c0.4-0.7,0.7-1.7,0.7-2.8c0-0.1,0-0.2,0-0.4h-0.1c-0.3,0.5-0.6,0.9-1.1,1.2
					c-0.4,0.3-1,0.4-1.6,0.4c-1,0-1.7-0.3-2.3-1c-0.6-0.6-0.9-1.4-0.9-2.4s0.3-1.8,1-2.5c0.6-0.7,1.4-1,2.4-1
					C205.1,158.9,206,159.4,206.6,160.3z M202.2,160.6c-0.4,0.5-0.6,1.1-0.6,1.8s0.2,1.3,0.6,1.7c0.4,0.4,1,0.7,1.7,0.7
					c0.6,0,1.2-0.2,1.6-0.7c0.4-0.4,0.6-1,0.6-1.7s-0.2-1.3-0.6-1.7c-0.4-0.5-1-0.7-1.7-0.7S202.6,160.1,202.2,160.6z"/>
			</g>
		</g>
	</g>
	<g>
		<g class="st8">
			<path class="st10" d="M408.8,62l-4.4,4.3l5.1,5.7h-2l-4.1-4.7l-1.3,1.2V72h-1.5V62h1.5v4.8l4.8-4.8H408.8z"/>
			<path class="st10" d="M416.1,65.8c0.6,0.7,0.9,1.7,0.9,3h-5.5c0.1,0.7,0.2,1.2,0.6,1.6c0.3,0.4,0.8,0.6,1.4,0.6
				c0.5,0,0.9-0.1,1.3-0.4c0.3-0.2,0.5-0.5,0.7-0.9h1.5c-0.2,0.7-0.5,1.2-1,1.7c-0.6,0.5-1.4,0.8-2.4,0.8c-1.1,0-1.9-0.3-2.5-1
				c-0.7-0.7-1-1.6-1-2.8c0-1.1,0.3-2,1-2.7c0.6-0.7,1.5-1.1,2.5-1.1C414.5,64.6,415.5,65,416.1,65.8z M412.1,66.3
				c-0.3,0.3-0.5,0.8-0.6,1.4h3.9c-0.1-1.3-0.8-1.9-2-1.9C412.9,65.8,412.4,66,412.1,66.3z"/>
			<path class="st10" d="M424,65.8c0.6,0.7,0.9,1.7,0.9,3h-5.5c0.1,0.7,0.2,1.2,0.6,1.6c0.3,0.4,0.8,0.6,1.4,0.6
				c0.5,0,0.9-0.1,1.3-0.4c0.3-0.2,0.5-0.5,0.7-0.9h1.5c-0.2,0.7-0.5,1.2-1,1.7c-0.6,0.5-1.4,0.8-2.4,0.8c-1.1,0-1.9-0.3-2.5-1
				c-0.7-0.7-1-1.6-1-2.8c0-1.1,0.3-2,1-2.7c0.6-0.7,1.5-1.1,2.5-1.1C422.4,64.6,423.4,65,424,65.8z M420,66.3
				c-0.3,0.3-0.5,0.8-0.6,1.4h3.9c-0.1-1.3-0.8-1.9-2-1.9C420.7,65.8,420.3,66,420,66.3z"/>
			<path class="st10" d="M432.2,65.7c0.6,0.7,0.8,1.6,0.8,2.7s-0.3,1.9-0.8,2.6c-0.6,0.8-1.4,1.1-2.5,1.1c-0.9,0-1.6-0.4-2.2-1.3
				v3.8H426v-10h1.4v0.9c0.5-0.7,1.3-1.1,2.2-1.1C430.8,64.6,431.6,65,432.2,65.7z M428,66.6c-0.3,0.4-0.5,1.1-0.5,1.8v0.1
				c0,0.8,0.2,1.4,0.6,1.9c0.3,0.4,0.8,0.7,1.3,0.7c0.7,0,1.3-0.2,1.6-0.7c0.3-0.4,0.5-1.1,0.5-1.9s-0.2-1.4-0.4-1.9
				c-0.3-0.5-0.9-0.8-1.6-0.8C428.9,65.8,428.3,66.1,428,66.6z"/>
			<path class="st10" d="M440.1,65.4c0.4,0.5,0.7,1.1,0.7,2V72h-1.4v-1c-0.3,0.4-0.6,0.7-1.1,0.9c-0.5,0.2-1,0.4-1.7,0.4
				c-0.8,0-1.3-0.2-1.8-0.6s-0.7-0.9-0.7-1.5c0-0.8,0.3-1.4,1-1.9c0.6-0.4,1.4-0.6,2.5-0.7h1.6v-0.3c0-1-0.5-1.5-1.6-1.5
				c-0.5,0-0.8,0.1-1.1,0.3c-0.3,0.2-0.5,0.5-0.6,0.9l-1.5-0.1c0.2-0.8,0.5-1.4,1.2-1.7c0.5-0.3,1.3-0.5,2.2-0.5
				C438.8,64.6,439.6,64.9,440.1,65.4z M437.7,68.7c-1.4,0-2,0.5-2,1.4c0,0.3,0.1,0.5,0.4,0.7c0.2,0.2,0.5,0.3,0.9,0.3
				c0.6,0,1.2-0.2,1.6-0.6s0.7-0.9,0.7-1.4v-0.4H437.7z"/>
			<path class="st10" d="M444.1,61.8V72h-1.5V61.8H444.1z"/>
			<path class="st10" d="M447.7,62.2c0.2,0.2,0.3,0.4,0.3,0.7c0,0.3-0.1,0.5-0.3,0.7c-0.2,0.2-0.4,0.3-0.7,0.3
				c-0.3,0-0.5-0.1-0.7-0.3c-0.2-0.2-0.3-0.4-0.3-0.7c0-0.3,0.1-0.5,0.3-0.7c0.2-0.2,0.4-0.3,0.7-0.3S447.5,62,447.7,62.2z
				 M447.7,64.8V72h-1.5v-7.2H447.7z"/>
			<path class="st10" d="M450.6,64.8l1.8,5.4l1.8-5.4h1.6l-2.7,7.2h-1.5l-2.7-7.2H450.6z"/>
			<path class="st10" d="M462.5,65.8c0.6,0.7,0.9,1.7,0.9,3h-5.5c0.1,0.7,0.2,1.2,0.6,1.6c0.3,0.4,0.8,0.6,1.4,0.6
				c0.5,0,0.9-0.1,1.3-0.4c0.3-0.2,0.5-0.5,0.7-0.9h1.5c-0.2,0.7-0.5,1.2-1,1.7c-0.6,0.5-1.4,0.8-2.4,0.8c-1.1,0-1.9-0.3-2.5-1
				c-0.7-0.7-1-1.6-1-2.8c0-1.1,0.3-2,1-2.7c0.6-0.7,1.5-1.1,2.5-1.1C461,64.6,461.9,65,462.5,65.8z M458.5,66.3
				c-0.3,0.3-0.5,0.8-0.6,1.4h3.9c-0.1-1.3-0.8-1.9-2-1.9C459.3,65.8,458.8,66,458.5,66.3z"/>
			<path class="st10" d="M471.3,61.8V72h-1.4v-0.9c-0.5,0.7-1.3,1.1-2.2,1.1c-1.1,0-1.9-0.4-2.5-1.1s-0.8-1.6-0.8-2.7
				s0.3-1.9,0.8-2.6c0.6-0.8,1.4-1.1,2.5-1.1c0.9,0,1.6,0.4,2.2,1.3v-4h1.4V61.8z M466.3,66.5c-0.3,0.4-0.5,1-0.5,1.8
				s0.1,1.4,0.4,1.9s0.9,0.8,1.6,0.8c0.6,0,1.1-0.3,1.5-0.8c0.3-0.5,0.5-1,0.5-1.8v-0.1c0-0.8-0.2-1.4-0.6-1.9
				c-0.4-0.4-0.8-0.7-1.4-0.7C467.2,65.8,466.7,66,466.3,66.5z"/>
		</g>
		<rect x="357.5" y="51.2" class="st2" width="32" height="32"/>
		<g>
			<g>
				<path class="st12" d="M358.5,53.2v21h30v-21H358.5z M386.5,72.2h-26v-17h26V72.2z M377.5,75.2h-2v2h-4v-2h-2v2h-5v2h18v-2h-5
					V75.2z"/>
			</g>
		</g>
	</g>
	<g>
		<path class="st13" d="M803.1,4.3h-6v1h6V4.3L803.1,4.3z M793.1,4.3h-6v1h6V4.3L793.1,4.3z M783.1,4.3h-6v1h6V4.3L783.1,4.3z
			 M773.1,4.3h-6v1h6V4.3L773.1,4.3z M763.1,4.3h-6v1h6V4.3L763.1,4.3z M753.1,4.3h-6v1h6V4.3L753.1,4.3z M743.1,4.3h-6v1h6V4.3
			L743.1,4.3z M733.1,4.3h-6v1h6V4.3L733.1,4.3z M723.1,4.3h-6v1h6V4.3L723.1,4.3z M713.1,4.3h-6v1h6V4.3L713.1,4.3z M703.1,4.3h-6
			v1h6V4.3L703.1,4.3z M693.1,4.3h-6v1h6V4.3L693.1,4.3z M683.1,4.3h-6v1h6V4.3L683.1,4.3z M673.1,4.3h-6v1h6V4.3L673.1,4.3z
			 M663.1,4.3h-6v1h6V4.3L663.1,4.3z M653.1,4.3h-6v1h6V4.3L653.1,4.3z M643.1,4.3h-6v1h6V4.3L643.1,4.3z M633.1,4.3h-6v1h6V4.3
			L633.1,4.3z M623.1,4.3h-6v1h6V4.3L623.1,4.3z M613.1,4.3h-6v1h6V4.3L613.1,4.3z M603.1,4.3h-6v1h6V4.3L603.1,4.3z M593.1,4.3h-6
			v1h6V4.3L593.1,4.3z M583.1,4.3h-6v1h6V4.3L583.1,4.3z M573.1,4.3h-6v1h6V4.3L573.1,4.3z M563.1,4.3h-6v1h6V4.3L563.1,4.3z
			 M553.1,4.3h-6v1h6V4.3L553.1,4.3z M543.1,4.3h-6v1h6V4.3L543.1,4.3z M533.1,4.3h-6v1h6V4.3L533.1,4.3z M523.1,4.3h-6v1h6V4.3
			L523.1,4.3z M513.1,4.3h-6v1h6V4.3L513.1,4.3z M503.1,4.3h-6v1h6V4.3L503.1,4.3z M493.1,4.3h-6v1h6V4.3L493.1,4.3z M483.1,4.3h-6
			v1h6V4.3L483.1,4.3z M473.1,4.3h-6v1h6V4.3L473.1,4.3z M463.1,4.3h-6v1h6V4.3L463.1,4.3z M453.1,4.3h-6v1h6V4.3L453.1,4.3z
			 M443.1,4.3h-6v1h6V4.3L443.1,4.3z M433.1,4.3h-6v1h6V4.3L433.1,4.3z M423.1,4.3h-6v1h6V4.3L423.1,4.3z M413.1,4.3h-6v1h6V4.3
			L413.1,4.3z M403.1,4.3h-6v1h6V4.3L403.1,4.3z M393.1,4.3h-6v1h6V4.3L393.1,4.3z M383.1,4.3h-6v1h6V4.3L383.1,4.3z M373.1,4.3h-6
			v1h6V4.3L373.1,4.3z M363.1,4.3h-6v1h6V4.3L363.1,4.3z M353.1,4.3h-6v1h6V4.3L353.1,4.3z M343.1,4.3h-6v1h6V4.3L343.1,4.3z
			 M333.1,4.3h-6v1h6V4.3L333.1,4.3z M323.1,4.3h-6v1h6V4.3L323.1,4.3z M313.1,4.3h-6v1h6V4.3L313.1,4.3z M303.1,4.3h-6v1h6V4.3
			L303.1,4.3z M293.1,4.3h-6v1h6V4.3L293.1,4.3z M283.1,4.3h-6v1h6V4.3L283.1,4.3z M273.1,4.3h-6v1h6V4.3L273.1,4.3z M263.1,4.3h-6
			v1h6V4.3L263.1,4.3z M253.1,4.3h-6v1h6V4.3L253.1,4.3z M243.1,4.3h-6v1h6V4.3L243.1,4.3z M233.1,4.3h-6v1h6V4.3L233.1,4.3z
			 M223.1,4.3h-6v1h6V4.3L223.1,4.3z M213.1,4.3h-6v1h6V4.3L213.1,4.3z M203.1,4.3h-6v1h6V4.3L203.1,4.3z M193.1,4.3h-6v1h6V4.3
			L193.1,4.3z M183.1,4.3h-6v1h6V4.3L183.1,4.3z M173.1,4.3h-6v1h6V4.3L173.1,4.3z M163.1,4.3h-6v1h6V4.3L163.1,4.3z M153.1,4.3h-6
			v1h6V4.3L153.1,4.3z M143.1,4.3h-6v1h6V4.3L143.1,4.3z M133.1,4.3h-6v1h6V4.3L133.1,4.3z M123.1,4.3h-6v1h6V4.3L123.1,4.3z
			 M113.1,4.3h-6v1h6V4.3L113.1,4.3z M103.1,4.3h-6v1h6V4.3L103.1,4.3z M93.1,4.3h-6v1h6V4.3L93.1,4.3z M83.1,4.3h-6v1h6V4.3
			L83.1,4.3z M73.1,4.3h-6v1h6V4.3L73.1,4.3z M63.1,4.3h-6v1h6V4.3L63.1,4.3z M53.1,4.3h-6v1h6V4.3L53.1,4.3z M43.1,4.3h-6v1h6V4.3
			L43.1,4.3z M33.1,4.3h-6v1h6V4.3L33.1,4.3z M23.1,4.3h-6v1h6V4.3L23.1,4.3z M16.5,6.6h-1v6h1V6.6L16.5,6.6z M16.5,16.6h-1v6h1
			V16.6L16.5,16.6z M16.5,26.6h-1v6h1V26.6L16.5,26.6z M16.5,36.6h-1v6h1V36.6L16.5,36.6z M16.5,46.6h-1v6h1V46.6L16.5,46.6z
			 M16.5,56.6h-1v6h1V56.6L16.5,56.6z M16.5,66.6h-1v6h1V66.6L16.5,66.6z M16.5,76.6h-1v6h1V76.6L16.5,76.6z M16.5,86.6h-1v6h1V86.6
			L16.5,86.6z M16.5,96.6h-1v6h1V96.6L16.5,96.6z M16.5,106.6h-1v6h1V106.6L16.5,106.6z M16.5,116.6h-1v6h1V116.6L16.5,116.6z
			 M16.5,126.6h-1v6h1V126.6L16.5,126.6z M16.5,136.6h-1v6h1V136.6L16.5,136.6z M16.5,146.6h-1v6h1V146.6L16.5,146.6z M16.5,156.6
			h-1v6h1V156.6L16.5,156.6z M16.5,166.6h-1v6h1V166.6L16.5,166.6z M16.5,176.6h-1v6h1V176.6L16.5,176.6z M16.5,186.6h-1v6h1V186.6
			L16.5,186.6z M16.5,196.6h-1v6h1V196.6L16.5,196.6z M16.5,206.6h-1v6h1V206.6L16.5,206.6z M16.5,216.6h-1v6h1V216.6L16.5,216.6z
			 M16.5,226.6h-1v6h1V226.6L16.5,226.6z M16.5,236.6h-1v6h1V236.6L16.5,236.6z M16.5,246.6h-1v6h1V246.6L16.5,246.6z M16.5,256.6
			h-1v6h1V256.6L16.5,256.6z M16.5,266.6h-1v6h1V266.6L16.5,266.6z M16.5,276.6h-1v6h1V276.6L16.5,276.6z M16.5,286.6h-1v6h1V286.6
			L16.5,286.6z M16.5,296.6h-1v6h1V296.6L16.5,296.6z M16.5,306.6h-1v6h1V306.6L16.5,306.6z M16.5,316.6h-1v6h1V316.6L16.5,316.6z
			 M16.5,326.6h-1v6h1V326.6L16.5,326.6z M16.5,336.6h-1v6h1V336.6L16.5,336.6z M16.5,346.6h-1v6h1V346.6L16.5,346.6z M16.5,356.6
			h-1v6h1V356.6L16.5,356.6z M16.5,366.6h-1v6h1V366.6L16.5,366.6z M16.5,376.6h-1v6h1V376.6L16.5,376.6z M16.5,386.6h-1v6h1V386.6
			L16.5,386.6z M16.5,396.6h-1v6h1V396.6L16.5,396.6z M16.5,406.6h-1v6h1V406.6L16.5,406.6z M16.5,416.6h-1v6h1V416.6L16.5,416.6z
			 M16.5,426.6h-1v6h1V426.6L16.5,426.6z M16.5,436.6h-1v6h1V436.6L16.5,436.6z M16.5,446.6h-1v6h1V446.6L16.5,446.6z M16.5,456.6
			h-1v6h1V456.6L16.5,456.6z M16.5,466.6h-1v6h1V466.6L16.5,466.6z M16.5,476.6h-1v6h1V476.6L16.5,476.6z M16.5,486.6h-1v6h1V486.6
			L16.5,486.6z M16.5,496.6h-1v6h1V496.6L16.5,496.6z M16.5,506.6h-1v6h1V506.6L16.5,506.6z M16.5,516.6h-1v6h1V516.6L16.5,516.6z
			 M16.5,526.6h-1v6h1V526.6L16.5,526.6z M16.5,536.6h-1v6h1V536.6L16.5,536.6z M16.5,546.6h-1v6h1V546.6L16.5,546.6z M16.5,556.6
			h-1v6h1V556.6L16.5,556.6z M16.5,566.6h-1v6h1V566.6L16.5,566.6z M16.5,576.6h-1v6h1V576.6L16.5,576.6z M16.5,586.6h-1v6h1V586.6
			L16.5,586.6z M16.5,596.6h-1v6h1V596.6L16.5,596.6z M16.5,606.6h-1v6h1V606.6L16.5,606.6z M16.5,616.6h-1v6h1V616.6L16.5,616.6z
			 M16.5,626.6h-1v6h1V626.6L16.5,626.6z M16.5,636.6h-1v6h1V636.6L16.5,636.6z M16.5,646.6h-1v6h1V646.6L16.5,646.6z M16.5,656.6
			h-1v6h1V656.6L16.5,656.6z M16.5,666.6h-1v6h1V666.6L16.5,666.6z M16.5,676.6h-1v6h1V676.6L16.5,676.6z M24.5,682.7h-6v1h6V682.7
			L24.5,682.7z M34.5,682.7h-6v1h6V682.7L34.5,682.7z M44.5,682.7h-6v1h6V682.7L44.5,682.7z M54.5,682.7h-6v1h6V682.7L54.5,682.7z
			 M64.5,682.7h-6v1h6V682.7L64.5,682.7z M74.5,682.7h-6v1h6V682.7L74.5,682.7z M84.5,682.7h-6v1h6V682.7L84.5,682.7z M94.5,682.7
			h-6v1h6V682.7L94.5,682.7z M104.5,682.7h-6v1h6V682.7L104.5,682.7z M114.5,682.7h-6v1h6V682.7L114.5,682.7z M124.5,682.7h-6v1h6
			V682.7L124.5,682.7z M134.5,682.7h-6v1h6V682.7L134.5,682.7z M144.5,682.7h-6v1h6V682.7L144.5,682.7z M154.5,682.7h-6v1h6V682.7
			L154.5,682.7z M164.5,682.7h-6v1h6V682.7L164.5,682.7z M174.5,682.7h-6v1h6V682.7L174.5,682.7z M184.5,682.7h-6v1h6V682.7
			L184.5,682.7z M194.5,682.7h-6v1h6V682.7L194.5,682.7z M204.5,682.7h-6v1h6V682.7L204.5,682.7z M214.5,682.7h-6v1h6V682.7
			L214.5,682.7z M224.5,682.7h-6v1h6V682.7L224.5,682.7z M234.5,682.7h-6v1h6V682.7L234.5,682.7z M244.5,682.7h-6v1h6V682.7
			L244.5,682.7z M254.5,682.7h-6v1h6V682.7L254.5,682.7z M264.5,682.7h-6v1h6V682.7L264.5,682.7z M274.5,682.7h-6v1h6V682.7
			L274.5,682.7z M284.5,682.7h-6v1h6V682.7L284.5,682.7z M294.5,682.7h-6v1h6V682.7L294.5,682.7z M304.5,682.7h-6v1h6V682.7
			L304.5,682.7z M314.5,682.7h-6v1h6V682.7L314.5,682.7z M324.5,682.7h-6v1h6V682.7L324.5,682.7z M334.5,682.7h-6v1h6V682.7
			L334.5,682.7z M344.5,682.7h-6v1h6V682.7L344.5,682.7z M354.5,682.7h-6v1h6V682.7L354.5,682.7z M364.5,682.7h-6v1h6V682.7
			L364.5,682.7z M374.5,682.7h-6v1h6V682.7L374.5,682.7z M384.5,682.7h-6v1h6V682.7L384.5,682.7z M394.5,682.7h-6v1h6V682.7
			L394.5,682.7z M404.5,682.7h-6v1h6V682.7L404.5,682.7z M414.5,682.7h-6v1h6V682.7L414.5,682.7z M424.5,682.7h-6v1h6V682.7
			L424.5,682.7z M434.5,682.7h-6v1h6V682.7L434.5,682.7z M444.5,682.7h-6v1h6V682.7L444.5,682.7z M454.5,682.7h-6v1h6V682.7
			L454.5,682.7z M464.5,682.7h-6v1h6V682.7L464.5,682.7z M474.5,682.7h-6v1h6V682.7L474.5,682.7z M484.5,682.7h-6v1h6V682.7
			L484.5,682.7z M494.5,682.7h-6v1h6V682.7L494.5,682.7z M504.5,682.7h-6v1h6V682.7L504.5,682.7z M514.5,682.7h-6v1h6V682.7
			L514.5,682.7z M524.5,682.7h-6v1h6V682.7L524.5,682.7z M534.5,682.7h-6v1h6V682.7L534.5,682.7z M544.5,682.7h-6v1h6V682.7
			L544.5,682.7z M554.5,682.7h-6v1h6V682.7L554.5,682.7z M564.5,682.7h-6v1h6V682.7L564.5,682.7z M574.5,682.7h-6v1h6V682.7
			L574.5,682.7z M584.5,682.7h-6v1h6V682.7L584.5,682.7z M594.5,682.7h-6v1h6V682.7L594.5,682.7z M604.5,682.7h-6v1h6V682.7
			L604.5,682.7z M614.5,682.7h-6v1h6V682.7L614.5,682.7z M624.5,682.7h-6v1h6V682.7L624.5,682.7z M634.5,682.7h-6v1h6V682.7
			L634.5,682.7z M644.5,682.7h-6v1h6V682.7L644.5,682.7z M654.5,682.7h-6v1h6V682.7L654.5,682.7z M664.5,682.7h-6v1h6V682.7
			L664.5,682.7z M674.5,682.7h-6v1h6V682.7L674.5,682.7z M684.5,682.7h-6v1h6V682.7L684.5,682.7z M694.5,682.7h-6v1h6V682.7
			L694.5,682.7z M704.5,682.7h-6v1h6V682.7L704.5,682.7z M714.5,682.7h-6v1h6V682.7L714.5,682.7z M724.5,682.7h-6v1h6V682.7
			L724.5,682.7z M734.5,682.7h-6v1h6V682.7L734.5,682.7z M744.5,682.7h-6v1h6V682.7L744.5,682.7z M754.5,682.7h-6v1h6V682.7
			L754.5,682.7z M764.5,682.7h-6v1h6V682.7L764.5,682.7z M774.5,682.7h-6v1h6V682.7L774.5,682.7z M784.5,682.7h-6v1h6V682.7
			L784.5,682.7z M794.5,682.7h-6v1h6V682.7L794.5,682.7z M804.5,682.7h-6v1h6V682.7L804.5,682.7z M813.1,682.4h-1v0.3h-3.7v1h4.7
			V682.4L813.1,682.4z M813.1,672.4h-1v6h1V672.4L813.1,672.4z M813.1,662.4h-1v6h1V662.4L813.1,662.4z M813.1,652.4h-1v6h1V652.4
			L813.1,652.4z M813.1,642.4h-1v6h1V642.4L813.1,642.4z M813.1,632.4h-1v6h1V632.4L813.1,632.4z M813.1,622.4h-1v6h1V622.4
			L813.1,622.4z M813.1,612.4h-1v6h1V612.4L813.1,612.4z M813.1,602.4h-1v6h1V602.4L813.1,602.4z M813.1,592.4h-1v6h1V592.4
			L813.1,592.4z M813.1,582.4h-1v6h1V582.4L813.1,582.4z M813.1,572.4h-1v6h1V572.4L813.1,572.4z M813.1,562.4h-1v6h1V562.4
			L813.1,562.4z M813.1,552.4h-1v6h1V552.4L813.1,552.4z M813.1,542.4h-1v6h1V542.4L813.1,542.4z M813.1,532.4h-1v6h1V532.4
			L813.1,532.4z M813.1,522.4h-1v6h1V522.4L813.1,522.4z M813.1,512.4h-1v6h1V512.4L813.1,512.4z M813.1,502.4h-1v6h1V502.4
			L813.1,502.4z M813.1,492.4h-1v6h1V492.4L813.1,492.4z M813.1,482.4h-1v6h1V482.4L813.1,482.4z M813.1,472.4h-1v6h1V472.4
			L813.1,472.4z M813.1,462.4h-1v6h1V462.4L813.1,462.4z M813.1,452.4h-1v6h1V452.4L813.1,452.4z M813.1,442.4h-1v6h1V442.4
			L813.1,442.4z M813.1,432.4h-1v6h1V432.4L813.1,432.4z M813.1,422.4h-1v6h1V422.4L813.1,422.4z M813.1,412.4h-1v6h1V412.4
			L813.1,412.4z M813.1,402.4h-1v6h1V402.4L813.1,402.4z M813.1,392.4h-1v6h1V392.4L813.1,392.4z M813.1,382.4h-1v6h1V382.4
			L813.1,382.4z M813.1,372.4h-1v6h1V372.4L813.1,372.4z M813.1,362.4h-1v6h1V362.4L813.1,362.4z M813.1,352.4h-1v6h1V352.4
			L813.1,352.4z M813.1,342.4h-1v6h1V342.4L813.1,342.4z M813.1,332.4h-1v6h1V332.4L813.1,332.4z M813.1,322.4h-1v6h1V322.4
			L813.1,322.4z M813.1,312.4h-1v6h1V312.4L813.1,312.4z M813.1,302.4h-1v6h1V302.4L813.1,302.4z M813.1,292.4h-1v6h1V292.4
			L813.1,292.4z M813.1,282.4h-1v6h1V282.4L813.1,282.4z M813.1,272.4h-1v6h1V272.4L813.1,272.4z M813.1,262.4h-1v6h1V262.4
			L813.1,262.4z M813.1,252.4h-1v6h1V252.4L813.1,252.4z M813.1,242.4h-1v6h1V242.4L813.1,242.4z M813.1,232.4h-1v6h1V232.4
			L813.1,232.4z M813.1,222.4h-1v6h1V222.4L813.1,222.4z M813.1,212.4h-1v6h1V212.4L813.1,212.4z M813.1,202.4h-1v6h1V202.4
			L813.1,202.4z M813.1,192.4h-1v6h1V192.4L813.1,192.4z M813.1,182.4h-1v6h1V182.4L813.1,182.4z M813.1,172.4h-1v6h1V172.4
			L813.1,172.4z M813.1,162.4h-1v6h1V162.4L813.1,162.4z M813.1,152.4h-1v6h1V152.4L813.1,152.4z M813.1,142.4h-1v6h1V142.4
			L813.1,142.4z M813.1,132.4h-1v6h1V132.4L813.1,132.4z M813.1,122.4h-1v6h1V122.4L813.1,122.4z M813.1,112.4h-1v6h1V112.4
			L813.1,112.4z M813.1,102.4h-1v6h1V102.4L813.1,102.4z M813.1,92.4h-1v6h1V92.4L813.1,92.4z M813.1,82.4h-1v6h1V82.4L813.1,82.4z
			 M813.1,72.4h-1v6h1V72.4L813.1,72.4z M813.1,62.4h-1v6h1V62.4L813.1,62.4z M813.1,52.4h-1v6h1V52.4L813.1,52.4z M813.1,42.4h-1v6
			h1V42.4L813.1,42.4z M813.1,32.4h-1v6h1V32.4L813.1,32.4z M813.1,22.4h-1v6h1V22.4L813.1,22.4z M813.1,12.4h-1v6h1V12.4
			L813.1,12.4z M813.1,4.3h-6v1h5v3.1h1V4.3L813.1,4.3z"/>
	</g>
	<g transform="translate(10 10)">
		<g class="st8">
			<path class="st10" d="M29.5,10.3H35v0.9H22.6v-0.9h5.7c-0.1-0.4-0.3-0.7-0.5-1.1L29,9.1C29.2,9.4,29.3,9.9,29.5,10.3z M31.6,22
				l-0.2-0.9h1.1c0.6,0,0.9-0.2,0.9-0.7v-3.8h-9V22h-1v-6.3h11v4.9c0,0.9-0.5,1.3-1.5,1.3L31.6,22L31.6,22z M32.7,12.2v2.7h-7.8
				v-2.7H32.7z M31.8,12.9h-5.9v1.2h5.9V12.9z M31.6,17.5v2.8h-5.5v-2.8H31.6z M30.7,18.3H27v1.3h3.7V18.3z"/>
			<path class="st10" d="M49.1,10v1h-1.8v9.5c0,0.9-0.4,1.4-1.3,1.4h-2.3l-0.2-1c0.8,0,1.5,0.1,2.2,0.1c0.4,0,0.7-0.3,0.7-0.7V11
				h-9.6v-1C36.8,10,49.1,10,49.1,10z M43.7,18.3h-4.5v1.2h-1v-6.4h5.4L43.7,18.3L43.7,18.3z M42.7,17.3V14h-3.5v3.3H42.7z"/>
			<path class="st10" d="M51.2,21.9l-0.8-0.7c0.9-1.2,1.4-2.8,1.4-4.7V9.8h10.4v10.5c0,1-0.5,1.5-1.5,1.5h-1.6l-0.3-1
				c0.6,0,1.1,0.1,1.6,0.1s0.8-0.3,0.8-0.9v-2.4h-3.8v4.1h-1v-4.1h-3.6C52.6,19.2,52.1,20.7,51.2,21.9z M52.8,10.7v2.4h3.6v-2.4
				H52.8z M52.8,16.5h3.6V14h-3.6V16.5z M61.2,10.7h-3.8v2.4h3.8V10.7z M61.2,14h-3.8v2.5h3.8V14z"/>
			<path class="st10" d="M68.1,9.5c-0.8,1.7-1.5,3.1-2.3,4.2c0.7-0.1,1.3-0.2,2-0.3c0.3-0.5,0.6-1.1,0.9-1.7l0.9,0.4
				c-1.3,2.4-2.5,4.1-3.3,5.1c1-0.2,2.1-0.5,3.1-0.9v0.9c-1.5,0.5-3,0.9-4.4,1.1l-0.3-0.9c0.2-0.1,0.3-0.2,0.5-0.3
				c0.6-0.5,1.2-1.5,2-2.8c-0.8,0.1-1.6,0.2-2.5,0.4l-0.3-0.9c0.2-0.1,0.3-0.2,0.4-0.4c0.8-1.2,1.5-2.6,2.2-4.2L68.1,9.5z
				 M69.3,19.8c-1.3,0.6-2.8,1.1-4.5,1.5l-0.1-1c1.8-0.4,3.3-0.8,4.7-1.4L69.3,19.8L69.3,19.8z M76,20.5h1.2v1h-8.1v-1h1.2V9.8H76
				V20.5z M75,13.3v-2.5h-3.7v2.5H75z M75,16.9v-2.6h-3.7v2.6H75z M75,20.5v-2.7h-3.7v2.7H75z"/>
			<path class="st10" d="M82.4,9.5c-0.4,1.1-0.8,2.2-1.4,3.2v9.4h-1v-7.8c-0.4,0.6-0.9,1.2-1.5,1.8L78.2,15c1.5-1.7,2.5-3.6,3.2-5.8
				L82.4,9.5z M84.8,10.1c-0.1,0.7-0.3,1.4-0.5,2h2.1V9.2h1v2.9h3.2v1h-3.2v3.4h3.7v1h-3.7V22h-1v-4.5h-4.1v-1h4.1v-3.4H84
				c-0.4,0.9-0.8,1.8-1.3,2.5l-0.6-0.8c0.9-1.3,1.4-2.9,1.7-4.7H84.8z"/>
		</g>
	</g>
	<line class="st14" x1="310.9" y1="478" x2="310.9" y2="496.1"/>
	<g>
		<g id="Link16_4_" transform="translate(0,0)">
			<polyline class="st4" points="123.9,538.1 264.9,538.1 264.9,477.6 263.9,477.6 263.9,537.1 123.9,537.1 			"/>
			<path class="st5" d="M264.4,477.6"/>
		</g>
		<line class="st14" x1="123.9" y1="479.9" x2="123.9" y2="538.1"/>
	</g>
	<g>
		<g id="Link16_5_" transform="translate(0,0)">
			<polyline class="st4" points="558.4,538.1 699.4,538.1 699.4,477.6 698.4,477.6 698.4,537.1 558.4,537.1 			"/>
			<path class="st5" d="M698.9,477.6"/>
		</g>
		<line class="st14" x1="558.4" y1="479.9" x2="558.4" y2="538.1"/>
	</g>
	<g class="st8">
		<path class="st4" d="M336.6,522.3v12.9h-1.3v-4.3c-0.8,0.8-1.6,1.4-2.4,1.9l-0.6-1.3c0.8-0.5,1.8-1.2,2.9-2.3v-7L336.6,522.3
			L336.6,522.3z M335.1,527l-1.2,0.5c-0.5-1.2-1-2.2-1.5-3.1l1.1-0.5C334.1,524.9,334.7,525.9,335.1,527z M337.8,526.2l-0.9-1
			c1.5-0.7,2.5-1.7,3-2.9l1.4,0.3c-0.1,0.2-0.2,0.5-0.3,0.7h4v1.1c-0.7,2-2.9,3.4-6.7,4.2l-0.7-1.2c1-0.2,1.9-0.4,2.7-0.7
			c-0.4-0.3-0.7-0.6-1.1-0.9l0.9-0.7c0.5,0.3,0.9,0.7,1.3,1.1c0.9-0.5,1.6-1.1,2-1.7h-3.3C339.5,525.1,338.7,525.7,337.8,526.2z
			 M342.5,529v-1.3h1.3v1.3h1.6v1.3h-1.6v3.5c0,0.9-0.5,1.4-1.5,1.4h-1.9l-0.3-1.3c0.6,0.1,1.1,0.1,1.7,0.1c0.4,0,0.6-0.2,0.6-0.5
			v-3.2h-5.2V529H342.5z M340.9,532.7l-1,0.7c-0.4-0.7-1-1.4-1.7-2.3l1-0.6C340,531.4,340.6,532.1,340.9,532.7z"/>
		<path class="st4" d="M352.3,534.1h-3.8v0.9h-1.3v-6h1.9v-2.6h-2.4v-1.3h2.4v-2.6h1.3v2.6h2.3v1.3h-2.3v2.6h1.9V534.1z M351,532.9
			v-2.7h-2.5v2.7H351z M352.6,528.9l-0.8-1c1.1-1.4,1.9-3.3,2.3-5.6l1.2,0.2c-0.1,0.7-0.3,1.4-0.5,2.1h4.3v1.3h-1
			c-0.1,2.3-0.6,4.3-1.6,5.9c0.8,1,1.7,1.8,2.8,2.4l-0.8,1.1c-1.1-0.6-2-1.5-2.8-2.5c-0.8,1-1.8,1.8-2.9,2.5l-0.7-1.1
			c1.2-0.6,2.1-1.4,2.9-2.4c-0.7-1.1-1.2-2.4-1.7-3.8C353.2,528.2,352.9,528.6,352.6,528.9z M354.1,526.5c0.4,1.6,1,2.9,1.6,4
			c0.7-1.3,1.1-2.9,1.1-4.7h-2.5C354.3,526.1,354.2,526.3,354.1,526.5z"/>
		<path class="st4" d="M365.2,522.7v1.1c-0.4,1.2-0.8,2.5-1.3,3.8c0.8,1.3,1.2,2.4,1.3,3.4c0,0.6-0.1,1.1-0.4,1.4
			c-0.4,0.3-1,0.5-2,0.5l-0.4-1.3c0.3,0,0.5,0.1,0.7,0.1c0.3,0,0.5-0.1,0.6-0.2c0.1-0.1,0.1-0.3,0.1-0.5c0-1-0.4-2-1.3-3.2
			c0.6-1.4,1-2.7,1.3-3.8h-1.7v11.2h-1.3v-12.5H365.2z M368.4,523.3c-0.1-0.3-0.2-0.6-0.3-0.8l1.3-0.2c0.1,0.3,0.2,0.7,0.3,1.1h3.2
			v1.1h-1.2c-0.1,0.4-0.2,0.7-0.4,1.1h1.9v1.1H365v-1.1h2.1c-0.1-0.4-0.2-0.8-0.4-1.1h-1.2v-1.1L368.4,523.3L368.4,523.3z
			 M372.5,527.3v4.4h-2.7v0.7h3.4v1.1h-3.4v1.6h-1.3v-1.6H365v-1.1h3.5v-0.7h-2.7v-4.4H372.5z M371.3,529.1v-0.7H367v0.7H371.3z
			 M371.3,530H367v0.6h4.2L371.3,530L371.3,530z M370.4,524.4h-2.3c0.1,0.3,0.2,0.7,0.3,1.1h1.6
			C370.1,525.1,370.3,524.8,370.4,524.4z"/>
		<path class="st4" d="M387.3,526.9v1.3h-6.6c-1.2,2.4-2.3,4.1-3.2,5.2c2.3-0.1,4.6-0.4,6.9-0.7c-0.4-0.8-0.9-1.6-1.5-2.5l1.1-0.7
			c1.3,1.9,2.3,3.5,3,4.9l-1.2,0.8c-0.2-0.5-0.4-1-0.7-1.4c-2.8,0.4-5.9,0.7-9.2,0.9l-0.4-1.4c0.1,0,0.3-0.1,0.3-0.1
			c0.9-0.6,2-2.4,3.4-5.1h-4.5v-1.3L387.3,526.9L387.3,526.9z M386,523v1.3h-10V523H386z"/>
		<path class="st4" d="M389.2,525.9v-1.3h5.1c-0.2-0.7-0.5-1.3-0.8-2l1.3-0.3c0.4,0.8,0.6,1.6,0.8,2.3l0,0h5.2v1.3h-5.1v2.9h4.4v1.2
			h-4.4v3.4h5.6v1.3h-12.5v-1.3h5.6V530H390v-1.2h4.4v-2.9H389.2z"/>
		<path class="st4" d="M404.7,524.9v-2.6h1.3v2.6h1.6v1.3H406v0.6c0.6,0.6,1.3,1.3,1.9,2.1l-0.8,1.2c-0.4-0.8-0.8-1.4-1.1-1.9v7
			h-1.3v-6.6c-0.4,1.2-1,2.4-1.7,3.4l-0.6-1.4c1-1.3,1.7-2.7,2.2-4.3h-1.9V525L404.7,524.9L404.7,524.9z M408,531.6
			c0.2-0.8,0.3-2,0.3-3.5v-5.3h4.8v10.6c0,0.2,0.1,0.2,0.2,0.2h0.4c0.1,0,0.2,0,0.3-0.1c0.1-0.1,0.1-0.2,0.1-0.3
			c0.1-0.2,0.1-1.1,0.1-2.5l1.2,0.4c0,1.1,0,1.8-0.1,2.4c-0.1,0.5-0.2,0.9-0.4,1.1c-0.2,0.2-0.6,0.3-1.1,0.3h-0.6
			c-1,0-1.5-0.4-1.5-1.3v-9.5h-2.1v4.1c0,1.6-0.1,2.9-0.4,4c-0.2,1.1-0.7,2.2-1.3,3.2l-1.1-1C407.4,533.5,407.8,532.6,408,531.6z"/>
		<path class="st4" d="M421.7,534.3h-1.3v-0.7h-2.2v1.1h-1.3v-10.2h1.3c0.3-0.8,0.4-1.5,0.6-2.3l1.3,0.2c-0.1,0.8-0.3,1.5-0.6,2.2
			h2.2V534.3z M420.4,528.4v-2.6h-2.2v2.6H420.4z M420.4,532.4v-2.8h-2.2v2.8H420.4z M428.7,533.5c-0.1,1-0.8,1.5-2,1.5
			c-0.3,0-0.8,0-1.5-0.1l-0.3-1.2c0.6,0,1.1,0.1,1.6,0.1c0.6,0,0.9-0.3,1-0.9c0.1-0.7,0.1-3.1,0.2-7h-3.5c-0.4,0.8-0.8,1.6-1.4,2.3
			l-0.8-1.1c0.9-1.3,1.6-3,1.9-4.9l1.3,0.2c-0.1,0.8-0.3,1.5-0.6,2.2h4.3C428.9,529.4,428.9,532.4,428.7,533.5z M426.3,531l-1,0.7
			c-0.5-0.9-1.3-1.9-2.2-3.1l1.1-0.7C425.1,529.1,425.9,530.1,426.3,531z"/>
		<path class="st4" d="M432,529h2.9c0,2.4-0.1,4-0.2,4.8c-0.2,0.8-0.9,1.2-2.2,1.3c-0.3,0-0.7,0-1.1-0.1l-0.3-1.2
			c0.3,0,0.7,0.1,1.1,0.1c0.7,0,1.1-0.2,1.3-0.7c0.1-0.5,0.2-1.5,0.2-3h-3l0.4-4.3h2.4V524h-2.7v-1.1h4v4.2h-2.6L432,529z
			 M437.5,524.5c-0.3-0.7-0.7-1.3-1.1-1.8l1.2-0.4c0.4,0.6,0.7,1.2,1.1,1.8l-0.9,0.4h2.1c0.4-0.7,0.7-1.5,1-2.3l1.3,0.4
			c-0.3,0.7-0.6,1.3-1,1.9h1.7v5.8H440v1.2h3.5v1.2H440v2.5h-1.3v-2.5h-3.4v-1.2h3.4v-1.2h-2.9v-5.8L437.5,524.5L437.5,524.5z
			 M438.6,526.8v-1.3h-1.7v1.3H438.6z M438.6,528h-1.7v1.2h1.7V528z M439.9,526.8h1.7v-1.3h-1.7V526.8z M441.6,528h-1.7v1.2h1.7V528
			z"/>
		<path class="st4" d="M445.9,525.1c0,1.4-0.2,2.7-0.4,4l-1.1-0.3c0.3-1.2,0.4-2.5,0.5-3.8L445.9,525.1z M447.6,522.3v12.8h-1.3
			v-12.8H447.6z M449.3,526.6c0.4-1.1,0.6-2.2,0.6-3.4l1.2,0.2c0,0.5-0.1,1-0.1,1.5h1.7v-2.5h1.3v2.5h2.9v1.3H454v3.1h2.8v1.3H454v3
			h3.3v1.3h-8.5v-1.3h3.9v-3h-3.1v-1.3h3.1v-3.2h-1.9c-0.3,1-0.6,1.9-1.1,2.7l-1-0.9c0.1-0.2,0.2-0.4,0.3-0.6l-0.6,0.2
			c-0.2-0.9-0.4-1.7-0.7-2.5l1-0.3C448.9,525.3,449.1,525.9,449.3,526.6z"/>
		<path class="st4" d="M467.8,535.1l-0.4-1.3l1.3,0.1c0.3,0,0.5-0.2,0.5-0.5V524h-8.8v11.2h-1.3v-12.4h11.4v10.9
			c0,1-0.5,1.4-1.4,1.4H467.8z M463.3,530.3c-0.5,1.3-1,2.4-1.7,3.3l-0.9-1c0.7-1,1.2-2.2,1.7-3.5c-0.6-0.8-1.2-1.6-1.8-2.3l0.8-0.8
			c0.4,0.5,0.9,1.1,1.5,1.7c0.2-0.9,0.4-1.8,0.5-2.8l1.2,0.2c-0.2,1.4-0.5,2.7-0.8,3.9c0.5,0.7,1,1.4,1.5,2.2l-0.9,0.9
			C464,531.4,463.6,530.8,463.3,530.3z M467.2,530.6c-0.5,1.3-1.1,2.4-1.8,3.3l-0.8-1c0.7-1,1.3-2.2,1.8-3.5
			c-0.6-0.9-1.2-1.7-1.8-2.5l0.8-0.8c0.4,0.5,0.9,1.1,1.4,1.8c0.3-1,0.5-2,0.6-3l1.2,0.2c-0.3,1.5-0.6,2.9-1,4.2
			c0.5,0.8,1,1.6,1.6,2.5l-0.9,0.9C468,531.9,467.6,531.3,467.2,530.6z"/>
		<path class="st4" d="M478.9,522.3v1.6h4.5v1.3h-4.5v1.8h6.3v1.3h-6.3v1.2c1.6,0.7,3.2,1.6,4.9,2.5l-0.8,1.1
			c-1.7-1-3.1-1.8-4.2-2.3v4.4h-1.3v-6.9h-4.9V527h4.9v-4.7L478.9,522.3L478.9,522.3z"/>
	</g>
	<g class="st8">
		<path class="st4" d="M367.5,551.7c-1,0-1.7-0.1-2.3-0.2c-0.6-0.2-1.1-0.5-1.5-1c-0.2-0.2-0.4-0.4-0.6-0.4c-0.3,0-0.8,0.6-1.5,1.9
			l-1-0.9c0.7-1.2,1.4-1.9,1.9-2.2v-3.8h-1.9v-1.3h3.2v5.3c0.1,0.1,0.1,0.1,0.2,0.2c0.4,0.4,0.7,0.6,1.1,0.8s1.1,0.3,2,0.3
			c0.8,0,1.8,0,2.9,0c0.6,0,1.3,0,1.9,0c0.7,0,1.2-0.1,1.5-0.1l-0.3,1.3h-3C369.4,551.8,368.5,551.8,367.5,551.7z M364.1,541.4l-1,1
			c-0.6-0.7-1.3-1.5-2.3-2.3l0.9-0.9C362.7,539.9,363.5,540.7,364.1,541.4z M368.2,543.8v-2.7c-0.9,0.1-1.8,0.2-2.8,0.3l-0.3-1.2
			c2.5-0.2,4.8-0.5,6.8-1l0.4,1.2c-0.9,0.2-1.8,0.4-2.8,0.5v2.8h3.6v1.2h-3.6v5h-1.3v-5h-3.6v-1.2h3.6V543.8z"/>
		<path class="st4" d="M380.2,547v-1.4h1.3v1.4h4.5v1.3h-4.5v2h5.5v1.3h-12.4v-1.3h5.5v-2h-4.6V547H380.2z M386.7,539.7v1.3h-6.5
			c-0.7,1.2-1.6,2.2-2.5,3c2-0.1,3.9-0.4,5.8-0.7c-0.4-0.4-0.7-0.8-1.1-1.2l1.1-0.7c1.3,1.4,2.3,2.5,3,3.5l-1.1,0.8
			c-0.3-0.4-0.6-0.9-0.9-1.3c-2.8,0.4-5.7,0.7-8.7,0.9l-0.4-1.1c1.3-0.7,2.4-1.8,3.3-3.2H375v-1.3H386.7z"/>
		<path class="st4" d="M399.5,552h-1.3v-0.5h-6.6v0.5h-1.3v-6.2c-0.4,0.1-0.9,0.2-1.3,0.3l-0.6-1.2c2-0.3,3.7-0.7,5.2-1.3
			c-0.7-0.5-1.4-1-1.9-1.5c-0.6,0.5-1.2,1-1.9,1.4l-0.9-1c1.5-0.8,2.7-2,3.8-3.5l1.3,0.3c-0.2,0.3-0.4,0.5-0.5,0.8h5.5v1
			c-0.8,1-1.8,1.8-2.9,2.6c1.5,0.6,3.2,1,5.1,1.2l-0.6,1.2c-2.3-0.3-4.2-0.9-5.8-1.7c-1.3,0.6-2.7,1.1-4.3,1.5h8.8v6.1H399.5z
			 M394.3,548.1v-1.2h-2.6v1.2H394.3z M394.3,550.4v-1.3h-2.6v1.2L394.3,550.4L394.3,550.4z M394.9,543c1-0.5,1.8-1.1,2.5-1.8h-4.8
			l-0.1,0.1C393.2,541.9,394,542.5,394.9,543z M395.5,548.1h2.7v-1.2h-2.7V548.1z M398.2,550.4v-1.3h-2.7v1.2L398.2,550.4
			L398.2,550.4z"/>
		<path class="st4" d="M406.8,539.6c-0.4,1.1-0.8,2.1-1.4,3v9.4h-1.3v-7.5c-0.4,0.5-0.8,1-1.3,1.5l-0.4-1.4c1.5-1.6,2.5-3.5,3.2-5.6
			L406.8,539.6z M407.3,545.7v-1.2c-0.2,0.2-0.4,0.4-0.6,0.6l-1-0.9c1.3-1.3,2.3-3,2.9-5.1l1.2,0.5c-0.7,2-1.5,3.5-2.5,4.7h6.3
			c0,3.1-0.1,5.1-0.2,5.8c-0.1,1-0.8,1.5-1.8,1.5c-0.3,0-0.8,0-1.5-0.1l-0.3-1.3c0.6,0.1,1.1,0.1,1.6,0.1s0.7-0.3,0.8-0.9
			c0.1-0.4,0.1-1.7,0.2-3.9h-2.1c-0.2,1.5-0.6,2.6-1,3.5c-0.5,1-1.3,1.9-2.3,2.7l-0.9-1.1c0.8-0.7,1.5-1.4,1.9-2.2
			c0.4-0.7,0.6-1.7,0.8-2.9h-1.5V545.7z M415.4,543.9l-0.9,1.1c-1.7-1.4-2.8-3.1-3.4-5.3l1.1-0.6C412.8,541,413.9,542.6,415.4,543.9
			z"/>
		<path class="st4" d="M418.7,541.7v-2.6h1.3v2.6h1.6v1.3H420v0.6c0.6,0.6,1.3,1.3,1.9,2.1l-0.8,1.2c-0.4-0.8-0.8-1.4-1.1-1.9v7
			h-1.3v-6.6c-0.4,1.2-1,2.4-1.7,3.4l-0.6-1.4c1-1.3,1.7-2.7,2.2-4.3h-1.9v-1.3L418.7,541.7L418.7,541.7z M422,548.4
			c0.2-0.8,0.3-2,0.3-3.5v-5.3h4.8v10.6c0,0.2,0.1,0.2,0.2,0.2h0.4c0.1,0,0.2,0,0.3-0.1c0.1-0.1,0.1-0.2,0.1-0.3
			c0.1-0.2,0.1-1.1,0.1-2.5l1.2,0.4c0,1.1,0,1.8-0.1,2.4c-0.1,0.5-0.2,0.9-0.4,1.1c-0.2,0.2-0.6,0.3-1.1,0.3h-0.6
			c-1,0-1.5-0.4-1.5-1.3v-9.5h-2.1v4.1c0,1.6-0.1,2.9-0.4,4c-0.2,1.1-0.7,2.2-1.3,3.2l-1.1-1C421.4,550.3,421.8,549.4,422,548.4z"/>
		<path class="st4" d="M442.2,539.5v3.6h-1.7c0.3,0.4,0.5,0.7,0.7,1.1h1.9v1.2h-3.5c0.9,0.7,2.1,1.2,3.7,1.7l-0.5,1.1
			c-0.3-0.1-0.5-0.2-0.8-0.3v4h-1.2v-0.5h-2.3v0.5h-1.2v-4.6h3.3c-1.1-0.6-2-1.2-2.6-1.9h-2.3c-0.7,0.8-1.6,1.4-2.7,1.9h3.1v4.6
			h-1.2v-0.5h-2v0.5H432v-4c-0.3,0.1-0.6,0.2-0.9,0.3l-0.6-1.1c1.6-0.4,2.8-1,3.7-1.7h-3.5v-1.2h4.7c0.2-0.3,0.4-0.7,0.6-1l1.3,0.1
			c-0.1,0.3-0.3,0.6-0.4,0.9h3.1c-0.2-0.3-0.4-0.6-0.5-0.8l1-0.3h-2.9v-3.6H442.2z M436.3,539.5v3.6h-4.5v-3.6H436.3z M435.1,540.7
			H433v1.4h2.1V540.7z M435.2,550.3v-1.8h-2v1.8H435.2z M440.9,550.3v-1.8h-2.3v1.8H440.9z M441,540.7h-2.2v1.4h2.2V540.7z"/>
		<path class="st4" d="M450.9,539.1v4.2h5.2v1.3h-5.2v5.6h6.3v1.3h-12.6v-1.3h4.9v-11.1H450.9z"/>
	</g>
	<g id="RectEndPoint8_2_" transform="translate(380,418)">
		<rect x="-261" y="184" class="st1" width="153" height="50"/>
		<g>
			<rect x="-263" y="182" class="st2" width="153" height="50"/>
			<g>
				<g class="st8">
					<path class="st10" d="M-209.4,205.1v-1.3h5.1c-0.2-0.7-0.5-1.3-0.8-2l1.3-0.3c0.4,0.8,0.6,1.6,0.8,2.3l0,0h5.2v1.3h-5.1v2.9
						h4.4v1.2h-4.4v3.4h5.6v1.3h-12.5v-1.3h5.6v-3.4h-4.4V208h4.4v-2.9H-209.4z"/>
					<path class="st10" d="M-195.1,214.3l-1-0.9c0.8-1.2,1.3-2.7,1.3-4.6v-6.9h10.7v10.5c0,1-0.5,1.6-1.6,1.6h-1.6l-0.4-1.3
						c0.5,0,1.1,0.1,1.5,0.1s0.7-0.3,0.7-0.8v-2.1h-3.5v4h-1.3v-4h-3.3C-193.7,211.7-194.2,213.2-195.1,214.3z M-193.5,203.3v2.1
						h3.2v-2.1H-193.5z M-193.5,208.7h3.2v-2.1h-3.2V208.7z M-185.4,203.3h-3.5v2.1h3.5V203.3z M-185.4,206.6h-3.5v2.1h3.5V206.6z"
						/>
					<path class="st10" d="M-169.3,206.1v1.3h-6.6c-1.2,2.4-2.3,4.1-3.2,5.2c2.3-0.1,4.6-0.4,6.9-0.7c-0.4-0.8-0.9-1.6-1.5-2.5
						l1.1-0.7c1.3,1.9,2.3,3.5,3,4.9l-1.2,0.8c-0.2-0.5-0.4-1-0.7-1.4c-2.8,0.4-5.9,0.7-9.2,0.9l-0.4-1.4c0.1,0,0.3-0.1,0.3-0.1
						c0.9-0.6,2-2.4,3.4-5.1h-4.5v-1.2H-169.3z M-170.5,202.2v1.3h-10.1v-1.3H-170.5z"/>
					<path class="st10" d="M-167,214.5l-1-0.9c0.6-1.2,0.8-2.8,0.9-4.7V202h4.4v11c0,1-0.4,1.4-1.3,1.4h-1.1l-0.3-1.2
						c0.4,0,0.7,0.1,1.1,0.1c0.3,0,0.4-0.3,0.4-0.7v-2.8h-2C-166.1,211.6-166.4,213.2-167,214.5z M-164,203.2h-2v2.1h2V203.2z
						 M-165.9,208.5h2v-2h-2V208.5z M-160.6,214.4h-1.2V202h5.9c0,1.8-0.1,3-0.3,3.6s-0.7,0.9-1.6,0.9h-1.2l-0.4-1.1
						c0.2,0,0.5,0,0.9,0c0.3,0,0.5,0,0.7-0.1c0.1,0,0.3-0.2,0.3-0.4c0.1-0.2,0.1-0.8,0.2-1.8h-3.4v4h4.7v1.1
						c-0.3,1.4-0.7,2.5-1.3,3.5c0.6,0.5,1.2,1,2,1.5l-0.7,1.1c-0.8-0.5-1.5-1-2.1-1.6c-0.6,0.6-1.3,1.2-2,1.6l-0.7-1v1.1H-160.6z
						 M-160.6,213.3c0.7-0.4,1.3-0.9,1.9-1.5c-0.8-1-1.4-2.2-1.7-3.5h-0.2V213.3z M-158,210.8c0.4-0.7,0.7-1.6,1-2.5h-2.2
						C-159,209.2-158.6,210.1-158,210.8z"/>
					<path class="st10" d="M-148.6,201.6c-0.1,0.3-0.3,0.7-0.5,1h6v1.1c-0.8,1-1.9,1.8-3.1,2.5c1.5,0.6,3.2,0.9,5,1.1l-0.6,1.2
						c-2.2-0.3-4.1-0.8-5.9-1.6c-1.7,0.8-3.6,1.3-5.9,1.6l-0.6-1.2c1.9-0.2,3.6-0.6,5-1.2c-0.7-0.4-1.3-0.8-1.9-1.3
						c-0.5,0.4-1,0.8-1.6,1.1l-0.8-1.1c1.6-0.9,2.7-2.1,3.3-3.4L-148.6,201.6z M-147.3,207.8c0,0.5,0,1-0.1,1.4h4.8
						c0,2.5-0.2,3.9-0.6,4.4c-0.4,0.5-1.1,0.7-2.1,0.7c-0.5,0-1.1,0-1.7-0.1l-0.3-1.2c0.7,0,1.3,0.1,1.8,0.1c0.7,0,1.2-0.2,1.3-0.4
						c0.2-0.3,0.3-1.1,0.3-2.3h-3.8c-0.1,0.3-0.3,0.7-0.4,1c-0.7,1.3-2.3,2.3-4.9,3.1l-0.9-1.1c2.3-0.7,3.8-1.5,4.5-2.5
						c0.1-0.2,0.2-0.4,0.3-0.5h-3.9v-1.2h4.3c0.1-0.4,0.1-0.9,0.1-1.4H-147.3z M-145.1,203.8h-4.9l-0.1,0.1c0.7,0.6,1.5,1.1,2.4,1.6
						C-146.7,205-145.8,204.5-145.1,203.8z"/>
					<path class="st10" d="M-128.3,202v3.6h-1.7c0.3,0.4,0.5,0.7,0.7,1.1h1.9v1.2h-3.5c0.9,0.7,2.1,1.2,3.7,1.7l-0.5,1.1
						c-0.3-0.1-0.5-0.2-0.8-0.3v4h-1.2v-0.5h-2.3v0.5h-1.2v-4.6h3.3c-1.1-0.6-2-1.2-2.6-1.9h-2.3c-0.7,0.8-1.6,1.4-2.7,1.9h3.1v4.6
						h-1.2v-0.5h-2v0.5h-1.2v-4c-0.3,0.1-0.6,0.2-0.9,0.3l-0.6-1.1c1.6-0.4,2.8-1,3.7-1.7h-3.5v-1.2h4.7c0.2-0.3,0.4-0.7,0.6-1
						l1.3,0.1c-0.1,0.3-0.3,0.6-0.4,0.9h3.1c-0.2-0.3-0.4-0.6-0.5-0.8l1-0.3h-2.9V202H-128.3z M-134.3,202v3.6h-4.5V202H-134.3z
						 M-135.5,203.1h-2.1v1.4h2.1V203.1z M-135.4,212.8V211h-2v1.8H-135.4z M-129.6,212.8V211h-2.3v1.8H-129.6z M-129.6,203.1h-2.2
						v1.4h2.2V203.1z"/>
				</g>
			</g>
			<path class="st3" d="M-109.5,232.5h-154v-51h154V232.5z M-262.5,231.5h152v-49h-152V231.5z"/>
		</g>
		<g transform="translate(20 9)">
			<g>
				<title  xmlns="http://www.w3.org/2000/svg">Product Icons32</title>
				<g id="___2_">
					<g id="__2_2_">
						<path id="___2_" class="st11" d="M-253,211c-7.2,0-13-5.8-13-13s5.8-13,13-13c6.4,0,11.9,4.7,12.9,11h2
							c-1.1-8.2-8.7-14-16.9-12.9c-8.2,1.1-14,8.7-12.9,16.9s8.7,14,16.9,12.9c6.7-0.9,12-6.2,12.9-12.9h-2
							C-241.1,206.3-246.6,211-253,211z M-246,194l-7-4l-7,4v8l3.2,1.8c0.2-0.6,0.5-1.2,1-1.7l-2.2-1.3v-3.7l5,2.9l5-2.9v3.7
							l-4.1,2.4c-1-0.5-2.2-0.1-2.7,0.9s-0.1,2.2,0.9,2.7s2.2,0.1,2.7-0.9c0.1-0.3,0.2-0.6,0.2-0.9v-0.1l5-2.9L-246,194L-246,194z
							 M-253,197.7l-4.7-2.7l4.7-2.7l4.7,2.7L-253,197.7z"/>
					</g>
				</g>
			</g>
		</g>
	</g>
	<g id="RectEndPoint8_3_" transform="translate(380,418)">
		<rect x="172.2" y="184" class="st1" width="153" height="50"/>
		<g>
			<rect x="170.2" y="182" class="st2" width="153" height="50"/>
			<g>
				<g class="st8">
					<path class="st10" d="M236,212.4h-1.3v-0.5h-6.6v0.5h-1.3v-6.2c-0.4,0.1-0.9,0.2-1.3,0.3l-0.6-1.2c2-0.3,3.7-0.7,5.2-1.3
						c-0.7-0.5-1.4-1-1.9-1.5c-0.6,0.5-1.2,1-1.9,1.4l-0.9-1c1.5-0.8,2.7-2,3.8-3.5l1.3,0.3c-0.2,0.3-0.4,0.5-0.5,0.8h5.5v1
						c-0.8,1-1.8,1.8-2.9,2.6c1.5,0.6,3.2,1,5.1,1.2l-0.6,1.2c-2.3-0.3-4.2-0.9-5.8-1.7c-1.3,0.6-2.7,1.1-4.3,1.5h8.8v6.1H236z
						 M230.8,208.5v-1.2h-2.6v1.2H230.8z M230.8,210.8v-1.2h-2.6v1.2H230.8z M231.5,203.4c1-0.5,1.8-1.1,2.5-1.8h-4.8l-0.1,0.1
						C229.8,202.3,230.6,202.9,231.5,203.4z M232.1,208.5h2.7v-1.2h-2.7V208.5z M234.8,210.8v-1.2h-2.7v1.2H234.8z"/>
					<path class="st10" d="M240,212.3l-1-0.9c0.8-1.2,1.3-2.7,1.3-4.6v-6.9H251v10.5c0,1-0.5,1.6-1.6,1.6h-1.6l-0.4-1.3
						c0.5,0,1.1,0.1,1.5,0.1s0.7-0.3,0.7-0.8v-2.1h-3.5v4h-1.3v-4h-3.3C241.4,209.7,240.9,211.2,240,212.3z M241.6,201.3v2.1h3.2
						v-2.1H241.6z M241.6,206.7h3.2v-2.1h-3.2V206.7z M249.7,201.3h-3.5v2.1h3.5V201.3z M249.7,204.6h-3.5v2.1h3.5V204.6z"/>
					<path class="st10" d="M265.8,204.1v1.3h-6.6c-1.2,2.4-2.3,4.1-3.2,5.2c2.3-0.1,4.6-0.4,6.9-0.7c-0.4-0.8-0.9-1.6-1.5-2.5
						l1.1-0.7c1.3,1.9,2.3,3.5,3,4.9l-1.2,0.8c-0.2-0.5-0.4-1-0.7-1.4c-2.8,0.4-5.9,0.7-9.2,0.9l-0.4-1.4c0.1,0,0.3-0.1,0.3-0.1
						c0.9-0.6,2-2.4,3.4-5.1h-4.5v-1.2H265.8z M264.6,200.2v1.3h-10.1v-1.3H264.6z"/>
					<path class="st10" d="M268.1,212.5l-1-0.9c0.6-1.2,0.8-2.8,0.9-4.7V200h4.4v11c0,1-0.4,1.4-1.3,1.4H270l-0.3-1.2
						c0.4,0,0.7,0.1,1.1,0.1c0.3,0,0.4-0.3,0.4-0.7v-2.8h-2C269,209.6,268.7,211.2,268.1,212.5z M271.1,201.2h-2v2.1h2V201.2z
						 M269.2,206.5h2v-2h-2V206.5z M274.5,212.4h-1.2V200h5.9c0,1.8-0.1,3-0.3,3.6c-0.2,0.6-0.7,0.9-1.6,0.9h-1.2l-0.4-1.1
						c0.2,0,0.5,0,0.9,0c0.3,0,0.5,0,0.7-0.1s0.3-0.2,0.3-0.4c0.1-0.2,0.1-0.8,0.2-1.8h-3.4v4h4.7v1.1c-0.3,1.4-0.7,2.5-1.3,3.5
						c0.6,0.5,1.2,1,2,1.5l-0.7,1.1c-0.8-0.5-1.5-1-2.1-1.6c-0.6,0.6-1.3,1.2-2,1.6l-0.7-1v1.1H274.5z M274.5,211.3
						c0.7-0.4,1.3-0.9,1.9-1.5c-0.8-1-1.4-2.2-1.7-3.5h-0.2L274.5,211.3L274.5,211.3z M277.1,208.8c0.4-0.7,0.7-1.6,1-2.5h-2.2
						C276.1,207.2,276.5,208.1,277.1,208.8z"/>
					<path class="st10" d="M286.5,199.6c-0.1,0.3-0.3,0.7-0.5,1h6v1.1c-0.8,1-1.9,1.8-3.1,2.5c1.5,0.6,3.2,0.9,5,1.1l-0.6,1.2
						c-2.2-0.3-4.1-0.8-5.9-1.6c-1.7,0.8-3.6,1.3-5.9,1.6l-0.6-1.2c1.9-0.2,3.6-0.6,5-1.2c-0.7-0.4-1.3-0.8-1.9-1.3
						c-0.5,0.4-1,0.8-1.6,1.1l-0.8-1.1c1.6-0.9,2.7-2.1,3.3-3.4L286.5,199.6z M287.8,205.8c0,0.5,0,1-0.1,1.4h4.8
						c0,2.5-0.2,3.9-0.6,4.4s-1.1,0.7-2.1,0.7c-0.5,0-1.1,0-1.7-0.1l-0.3-1.2c0.7,0,1.3,0.1,1.8,0.1c0.7,0,1.2-0.2,1.3-0.4
						c0.2-0.3,0.3-1.1,0.3-2.3h-3.8c-0.1,0.3-0.3,0.7-0.4,1c-0.7,1.3-2.3,2.3-4.9,3.1l-0.9-1.1c2.3-0.7,3.8-1.5,4.5-2.5
						c0.1-0.2,0.2-0.4,0.3-0.5h-4v-1.2h4.3c0.1-0.4,0.1-0.9,0.1-1.4H287.8z M290,201.8h-4.9l-0.1,0.1c0.7,0.6,1.5,1.1,2.4,1.6
						C288.4,203,289.3,202.5,290,201.8z"/>
					<path class="st10" d="M306.7,200v3.6H305c0.3,0.4,0.5,0.7,0.7,1.1h1.9v1.2h-3.5c0.9,0.7,2.1,1.2,3.7,1.7l-0.5,1.1
						c-0.3-0.1-0.5-0.2-0.8-0.3v4h-1.2v-0.5H303v0.5h-1v-4.6h3.3c-1.1-0.6-2-1.2-2.6-1.9h-2.3c-0.7,0.8-1.6,1.4-2.7,1.9h3.1v4.6
						h-1.2v-0.5h-2v0.5h-1.2v-4c-0.3,0.1-0.6,0.2-0.9,0.3l-0.6-1.1c1.6-0.4,2.8-1,3.7-1.7h-3.5v-1.2h4.7c0.2-0.3,0.4-0.7,0.6-1
						l1.3,0.1c-0.1,0.3-0.3,0.6-0.4,0.9h3.1c-0.2-0.3-0.4-0.6-0.5-0.8l1-0.3H302V200H306.7z M300.8,200v3.6h-4.5V200H300.8z
						 M299.6,201.1h-2.1v1.4h2.1V201.1z M299.7,210.8V209h-2v1.8H299.7z M305.5,210.8V209h-2.3v1.8H305.5z M305.5,201.1h-2.2v1.4
						h2.2V201.1z"/>
				</g>
			</g>
			<path class="st3" d="M323.7,232.5h-154v-51h154V232.5z M170.7,231.5h152v-49h-152L170.7,231.5L170.7,231.5z"/>
		</g>
		<g transform="translate(20 9)">
			<g>
				<title  xmlns="http://www.w3.org/2000/svg">Product Icons32</title>
				<g id="___3_">
					<g id="__2_3_">
						<path id="___3_" class="st11" d="M180.2,211c-7.2,0-13-5.8-13-13s5.8-13,13-13c6.4,0,11.9,4.7,12.9,11h2
							c-1.1-8.2-8.7-14-16.9-12.9s-14,8.7-12.9,16.9s8.7,14,16.9,12.9c6.7-0.9,12-6.2,12.9-12.9h-2C192.1,206.3,186.6,211,180.2,211
							z M187.2,194l-7-4l-7,4v8l3.2,1.8c0.2-0.6,0.5-1.2,1-1.7l-2.2-1.3v-3.7l5,2.9l5-2.9v3.7l-4.1,2.4c-1-0.5-2.2-0.1-2.7,0.9
							s-0.1,2.2,0.9,2.7s2.2,0.1,2.7-0.9c0.1-0.3,0.2-0.6,0.2-0.9v-0.1l5-2.9L187.2,194L187.2,194z M180.2,197.7l-4.7-2.7l4.7-2.7
							l4.7,2.7L180.2,197.7z"/>
					</g>
				</g>
			</g>
		</g>
	</g>
</g>
</svg>
