<?xml version="1.0" encoding="UTF-8"?>
<svg width="48px" height="48px" viewBox="0 0 48 48" version="1.1" xmlns="http://www.w3.org/2000/svg" xmlns:xlink="http://www.w3.org/1999/xlink">
    <!-- Generator: Sketch 52.2 (67145) - http://www.bohemiancoding.com/sketch -->
    <title>7X24 小时-48x48</title>
    <desc>Created with Sketch.</desc>
    <g id="7X24-小时-48x48" stroke="none" stroke-width="1" fill="none" fill-rule="evenodd">
        <g id="7X24-小时-48x48-01" fill-rule="nonzero">
            <g id="Rectangle-28" transform="translate(2.000000, 20.000000)" fill="#334966">
                <path d="M4,14 C1.790861,14 4.4408921e-16,12.209139 0,10 L0,4 C-2.22044605e-16,1.790861 1.790861,0 4,0 C6.209139,0 8,1.790861 8,4 L8,10 C8,12.209139 6.209139,14 4,14 Z M4,2 C2.8954305,2 2,2.8954305 2,4 L2,10 C2,11.1045695 2.8954305,12 4,12 C5.1045695,12 6,11.1045695 6,10 L6,4 C6,2.8954305 5.1045695,2 4,2 Z" id="Shape"></path>
            </g>
            <g id="Rectangle-28-Copy-2" transform="translate(0.000000, 22.000000)" fill="#334966">
                <path d="M4,10 L2,10 C0.8954305,10 1.3527075e-16,9.1045695 0,8 L0,2 C-1.3527075e-16,0.8954305 0.8954305,0 2,0 L4,0 L4,10 Z" id="Shape"></path>
            </g>
            <g id="Rectangle-28-Copy-3" transform="translate(44.000000, 22.000000)" fill="#334966">
                <path d="M2,10 L0,10 L0,0 L2,0 C3.1045695,0 4,0.8954305 4,2 L4,8 C4,9.1045695 3.1045695,10 2,10 Z" id="Shape"></path>
            </g>
            <g id="Rectangle-28-Copy" transform="translate(38.000000, 20.000000)" fill="#334966">
                <path d="M4,14 C1.790861,14 0,12.209139 0,10 L0,4 C0,1.790861 1.790861,0 4,0 C6.209139,0 8,1.790861 8,4 L8,10 C8,12.209139 6.209139,14 4,14 Z M4,2 C2.8954305,2 2,2.8954305 2,4 L2,10 C2,11.1045695 2.8954305,12 4,12 C5.1045695,12 6,11.1045695 6,10 L6,4 C6,2.8954305 5.1045695,2 4,2 Z" id="Shape"></path>
            </g>
            <g id="Combined-Shape" transform="translate(2.000000, 0.000000)" fill="#334966">
                <path d="M0,22 C-3.33066907e-15,9.8497355 9.8497355,2.23196738e-15 22,0 C34.1502645,-2.23196738e-15 44,9.8497355 44,22 L42,22 C42,10.954305 33.045695,2 22,2 C10.954305,2 2,10.954305 2,22 L0,22 Z" id="Shape"></path>
            </g>
            <g id="Combined-Shape-2" transform="translate(28.000000, 22.000000)" fill="#334966">
                <path d="M0.874,23 C1.04201093,22.3439187 1.04201093,21.6560813 0.874,21 L6,21 C11.5228475,21 16,16.5228475 16,11 L16,0 L18,0 L18,11 C18,17.627417 12.627417,23 6,23 L0.874,23 Z" id="Shape"></path>
            </g>
            <g id="Rectangle" transform="translate(19.000000, 40.000000)" fill="#334966">
                <path d="M4,0 L6,0 C8.209139,0 10,1.790861 10,4 C10,6.209139 8.209139,8 6,8 L4,8 C1.790861,8 0,6.209139 0,4 C0,1.790861 1.790861,0 4,0 Z M4,2 C2.8954305,2 2,2.8954305 2,4 C2,5.1045695 2.8954305,6 4,6 L6,6 C7.1045695,6 8,5.1045695 8,4 C8,2.8954305 7.1045695,2 6,2 L4,2 Z" id="Shape"></path>
            </g>
            <path d="M13,14 L13,34 L35,34 L35,14 L13,14 Z M23,19 L23,25 L17,25 L17,29 L23,29 L23,31 L15,31 L15,23 L21,23 L21,19 L15,19 L15,17 L23,17 L23,19 Z M33,31 L31,31 L31,25 L25,25 L25,17 L27,17 L27,23 L31,23 L31,17 L33,17 L33,31 Z" id="Shape" fill="#00A4FF"></path>
        </g>
    </g>
</svg>