<?xml version="1.0" encoding="utf-8"?>
<!-- Generator: Adobe Illustrator 22.1.0, SVG Export Plug-In . SVG Version: 6.00 Build 0)  -->
<svg version="1.1" id="svgwrapper_svg" xmlns="http://www.w3.org/2000/svg" xmlns:xlink="http://www.w3.org/1999/xlink" x="0px"
	 y="0px" width="830px" height="480px" viewBox="0 0 830 480" style="enable-background:new 0 0 830 480;" xml:space="preserve">
<style type="text/css">
	.st0{fill:#CEE3FF;}
	.st1{fill:#BABABA;}
	.st2{display:none;fill:none;stroke:#999999;}
	.st3{fill:#878787;}
	.st4{fill:none;stroke:#878787;stroke-miterlimit:10;}
	.st5{opacity:0.6;fill:#BBBBBB;enable-background:new    ;}
	.st6{fill:#FFFFFF;stroke:#E5E5E5;}
	.st7{fill:#444444;}
	.st8{font-family:'PingFangSC-Regular-GBpc-EUC-H';}
	.st9{font-size:12.6304px;}
	.st10{fill:#00A4FF;}
</style>
<g>
	<rect x="454.2" y="40.8" class="st0" width="359" height="124.1"/>
</g>
<g>
	<rect x="454.2" y="195.4" class="st0" width="359" height="67.4"/>
</g>
<g>
	<rect x="454.2" y="293.3" class="st0" width="359" height="67.4"/>
</g>
<g>
	<g>
		<path class="st1" d="M830,7h-6.1v1h6.1V7L830,7z M819.9,7h-6.1v1h6.1V7L819.9,7z M809.8,7h-6.1v1h6.1V7L809.8,7z M799.6,7h-6.1v1
			h6.1V7L799.6,7z M789.5,7h-6.1v1h6.1V7L789.5,7z M779.4,7h-6.1v1h6.1V7L779.4,7z M769.3,7h-6.1v1h6.1V7L769.3,7z M759.1,7H753v1
			h6.1V7L759.1,7z M749,7h-6.1v1h6.1V7L749,7z M738.9,7h-6.1v1h6.1V7L738.9,7z M728.8,7h-6.1v1h6.1V7L728.8,7z M718.7,7h-6.1v1h6.1
			V7L718.7,7z M708.5,7h-6.1v1h6.1V7L708.5,7z M698.4,7h-6.1v1h6.1V7L698.4,7z M688.3,7h-6.1v1h6.1V7L688.3,7z M678.2,7h-6.1v1h6.1
			V7L678.2,7z M668,7h-6v1h6.1L668,7L668,7z M657.9,7h-6.1v1h6.1V7L657.9,7z M647.8,7h-6.1v1h6.1V7L647.8,7z M637.7,7h-6.1v1h6.1V7
			L637.7,7z M627.5,7h-6.1v1h6.1V7L627.5,7z M617.4,7h-6.1v1h6.1V7L617.4,7z M607.3,7h-6.1v1h6.1V7L607.3,7z M597.2,7h-6.1v1h6.1V7
			L597.2,7z M587.1,7H581v1h6.1V7L587.1,7z M576.9,7h-6.1v1h6.1V7L576.9,7z M566.8,7h-6.1v1h6.1V7L566.8,7z M556.7,7h-6.1v1h6.1V7
			L556.7,7z M546.6,7h-6.1v1h6.1V7L546.6,7z M536.4,7h-6.1v1h6.1V7L536.4,7z M526.3,7h-6.1v1h6.1V7L526.3,7z M516.2,7h-6.1v1h6.1V7
			L516.2,7z M506.1,7H500v1h6.1V7L506.1,7z M496,7h-6.1v1h6.1V7L496,7z M485.8,7h-6.1v1h6.1V7L485.8,7z M475.7,7h-6.1v1h6.1V7
			L475.7,7z M465.6,7h-6.1v1h6.1V7L465.6,7z M455.5,7h-6.1v1h6.1V7L455.5,7z M445.3,7h-6.1v1h6.1V7L445.3,7z M435.2,7h-6.1v1h6.1V7
			L435.2,7z M425.1,7H419v1h6.1V7L425.1,7z M415,7h-6.1v1h6.1V7L415,7z M404.9,7h-6.1v1h6.1V7L404.9,7z M394.7,7h-6.1v1h6.1V7
			L394.7,7z M384.6,7h-6.1v1h6.1V7L384.6,7z M374.5,7h-6.1v1h6.1V7L374.5,7z M364.4,7h-6.1v1h6.1V7L364.4,7z M354.2,7h-6.1v1h6.1V7
			L354.2,7z M344.1,7H338v1h6.1V7L344.1,7z M334,7h-6.1v1h6.1V7L334,7z M323.9,7h-6.1v1h6.1V7L323.9,7z M313.7,7h-6.1v1h6.1V7
			L313.7,7z M303.6,7h-6.1v1h6.1V7L303.6,7z M293.5,7h-6.1v1h6.1V7L293.5,7z M283.4,7h-6.1v1h6.1V7L283.4,7z M273.3,7h-6.1v1h6.1V7
			L273.3,7z M263.1,7H257v1h6.1V7L263.1,7z M253,7h-6.1v1h6.1V7L253,7z M242.9,7h-6.1v1h6.1V7L242.9,7z M232.8,7h-6.1v1h6.1V7
			L232.8,7z M222.6,7h-6.1v1h6.1V7L222.6,7z M212.5,7h-6.1v1h6.1V7L212.5,7z M202.4,7h-6.1v1h6.1V7L202.4,7z M192.3,7h-6.1v1h6.1V7
			L192.3,7z M182.2,7h-6.1v1h6.1V7L182.2,7z M172,7h-6v1h6.1V7H172z M161.9,7h-6.1v1h6.1V7L161.9,7z M154,8.2h-1v6h1V8.2L154,8.2z
			 M154,18.2h-1v6h1V18.2L154,18.2z M154,28.2h-1v6h1V28.2L154,28.2z M154,38.2h-1v6h1V38.2L154,38.2z M154,48.1h-1v6h1V48.1
			L154,48.1z M154,58.1h-1v6h1V58.1L154,58.1z M154,68.1h-1v6h1V68.1L154,68.1z M154,78.1h-1v6h1V78.1L154,78.1z M154,88.1h-1v6h1
			V88.1L154,88.1z M154,98.1h-1v6h1V98.1L154,98.1z M154,108.1h-1v6h1V108.1L154,108.1z M154,118.1h-1v6h1V118.1L154,118.1z
			 M154,128.1h-1v6h1V128.1L154,128.1z M154,138.1h-1v6h1V138.1L154,138.1z M154,148.1h-1v6h1V148.1L154,148.1z M154,158.1h-1v6h1
			V158.1L154,158.1z M154,168.1h-1v6h1V168.1L154,168.1z M154,178.1h-1v6h1V178.1L154,178.1z M154,188.1h-1v6h1V188.1L154,188.1z
			 M154,198.1h-1v6h1V198.1L154,198.1z M154,208.1h-1v6h1V208.1L154,208.1z M154,218.1h-1v6h1V218.1L154,218.1z M154,228.1h-1v6h1
			V228.1L154,228.1z M154,238.1h-1v6h1V238.1L154,238.1z M154,248.1h-1v6h1V248.1L154,248.1z M154,258.1h-1v6h1V258.1L154,258.1z
			 M154,268.1h-1v6h1V268.1L154,268.1z M154,278.1h-1v6h1V278.1L154,278.1z M154,288.1h-1v6h1V288.1L154,288.1z M154,298.1h-1v6h1
			V298.1L154,298.1z M154,308.1h-1v6h1V308.1L154,308.1z M154,318.1h-1v6h1V318.1L154,318.1z M154,328.1h-1v6h1V328.1L154,328.1z
			 M154,338.1h-1v6h1V338.1L154,338.1z M154,348.1h-1v6h1V348.1L154,348.1z M154,358.1h-1v6h1V358.1L154,358.1z M154,368.1h-1v6h1
			V368.1L154,368.1z M154,378.1h-1v6h1V378.1L154,378.1z M154,388.1h-1v6h1V388.1L154,388.1z M154,398.1h-1v6h1V398.1L154,398.1z
			 M154,408.1h-1v6h1V408.1L154,408.1z M154,418.1h-1v6h1V418.1L154,418.1z M154,428.1h-1v6h1V428.1L154,428.1z M154,438.2h-1v6h1
			V438.2L154,438.2z M154,448.2h-1v6h1V448.2L154,448.2z M154,458.2h-1v6h1V458.2L154,458.2z M154,468.2h-1v4.9h1l0,0l0,0l0,0l0,0
			c0.1,0,0.1,0,0.1,0v-1H154V468.2L154,468.2z M164.2,472h-6.1v1h6.1V472L164.2,472z M174.4,472h-6.1v1h6.1V472L174.4,472z
			 M184.5,472h-6.1v1h6.1V472L184.5,472z M194.6,472h-6.1v1h6.1V472L194.6,472z M204.7,472h-6.1v1h6.1V472L204.7,472z M214.8,472
			h-6.1v1h6.1V472L214.8,472z M225,472h-6.1v1h6.1V472L225,472z M235.1,472H229v1h6.1V472L235.1,472z M245.2,472h-6.1v1h6.1V472
			L245.2,472z M255.3,472h-6.1v1h6.1V472L255.3,472z M265.5,472h-6.1v1h6.1V472L265.5,472z M275.6,472h-6.1v1h6.1V472L275.6,472z
			 M285.7,472h-6.1v1h6.1V472L285.7,472z M295.8,472h-6.1v1h6.1V472L295.8,472z M306,472h-6.1v1h6.1V472L306,472z M316.1,472H310v1
			h6.1V472L316.1,472z M326.2,472h-6.1v1h6.1V472L326.2,472z M336.3,472h-6.1v1h6.1V472L336.3,472z M346.4,472h-6.1v1h6.1V472
			L346.4,472z M356.6,472h-6.1v1h6.1V472L356.6,472z M366.7,472h-6.1v1h6.1V472L366.7,472z M376.8,472h-6.1v1h6.1V472L376.8,472z
			 M386.9,472h-6.1v1h6.1V472L386.9,472z M397.1,472H391v1h6.1V472L397.1,472z M407.2,472h-6.1v1h6.1V472L407.2,472z M417.3,472
			h-6.1v1h6.1V472L417.3,472z M427.4,472h-6.1v1h6.1V472L427.4,472z M437.5,472h-6.1v1h6.1V472L437.5,472z M447.7,472h-6.1v1h6.1
			V472L447.7,472z M457.8,472h-6.1v1h6.1V472L457.8,472z M467.9,472h-6.1v1h6.1V472L467.9,472z M478,472h-6v1h6.1v-1H478z
			 M488.2,472h-6.1v1h6.1V472L488.2,472z M498.3,472h-6.1v1h6.1V472L498.3,472z M508.4,472h-6.1v1h6.1V472L508.4,472z M518.5,472
			h-6.1v1h6.1V472L518.5,472z M528.6,472h-6.1v1h6.1V472L528.6,472z M538.8,472h-6.1v1h6.1V472L538.8,472z M548.9,472h-6.1v1h6.1
			V472L548.9,472z M559,472h-6.1v1h6.1V472L559,472z M569.1,472H563v1h6.1V472L569.1,472z M579.3,472h-6.1v1h6.1V472L579.3,472z
			 M589.4,472h-6.1v1h6.1V472L589.4,472z M599.5,472h-6.1v1h6.1V472L599.5,472z M609.6,472h-6.1v1h6.1V472L609.6,472z M619.8,472
			h-6.1v1h6.1V472L619.8,472z M629.9,472h-6.1v1h6.1V472L629.9,472z M640,472h-6.1v1h6.1V472L640,472z M650.1,472H644v1h6.1V472
			L650.1,472z M660.2,472h-6.1v1h6.1V472L660.2,472z M670.4,472h-6.1v1h6.1V472L670.4,472z M680.5,472h-6.1v1h6.1V472L680.5,472z
			 M690.6,472h-6.1v1h6.1V472L690.6,472z M700.7,472h-6.1v1h6.1V472L700.7,472z M710.9,472h-6.1v1h6.1V472L710.9,472z M721,472h-6.1
			v1h6.1V472L721,472z M731.1,472H725v1h6.1V472L731.1,472z M741.2,472h-6.1v1h6.1V472L741.2,472z M751.3,472h-6.1v1h6.1V472
			L751.3,472z M761.5,472h-6.1v1h6.1V472L761.5,472z M771.6,472h-6.1v1h6.1V472L771.6,472z M781.7,472h-6.1v1h6.1V472L781.7,472z
			 M791.8,472h-6.1v1h6.1V472L791.8,472z M802,472h-6.1v1h6.1V472L802,472z M812.1,472H806v1h6.1V472L812.1,472z M822.2,472h-6.1v1
			h6.1V472L822.2,472z M830,470.8h-1v1.3h-2.7v1h3.7V470.8L830,470.8z M830,460.8h-1v6h1V460.8L830,460.8z M830,450.8h-1v6h1V450.8
			L830,450.8z M830,440.8h-1v6h1V440.8L830,440.8z M830,430.8h-1v6h1V430.8L830,430.8z M830,420.8h-1v6h1V420.8L830,420.8z
			 M830,410.8h-1v6h1V410.8L830,410.8z M830,400.8h-1v6h1V400.8L830,400.8z M830,390.8h-1v6h1V390.8L830,390.8z M830,380.8h-1v6h1
			V380.8L830,380.8z M830,370.8h-1v6h1V370.8L830,370.8z M830,360.8h-1v6h1V360.8L830,360.8z M830,350.8h-1v6h1V350.8L830,350.8z
			 M830,340.8h-1v6h1V340.8L830,340.8z M830,330.8h-1v6h1V330.8L830,330.8z M830,320.8h-1v6h1V320.8L830,320.8z M830,310.8h-1v6h1
			V310.8L830,310.8z M830,300.8h-1v6h1V300.8L830,300.8z M830,290.8h-1v6h1V290.8L830,290.8z M830,280.8h-1v6h1V280.8L830,280.8z
			 M830,270.8h-1v6h1V270.8L830,270.8z M830,260.8h-1v6h1V260.8L830,260.8z M830,250.8h-1v6h1V250.8L830,250.8z M830,240.8h-1v6h1
			V240.8L830,240.8z M830,230.8h-1v6h1V230.8L830,230.8z M830,220.8h-1v6h1V220.8L830,220.8z M830,210.8h-1v6h1V210.8L830,210.8z
			 M830,200.8h-1v6h1V200.8L830,200.8z M830,190.8h-1v6h1V190.8L830,190.8z M830,180.8h-1v6h1V180.8L830,180.8z M830,170.8h-1v6h1
			V170.8L830,170.8z M830,160.8h-1v6h1V160.8L830,160.8z M830,150.8h-1v6h1V150.8L830,150.8z M830,140.8h-1v6h1V140.8L830,140.8z
			 M830,130.8h-1v6h1V130.8L830,130.8z M830,120.8h-1v6h1V120.8L830,120.8z M830,110.8h-1v6h1V110.8L830,110.8z M830,100.8h-1v6h1
			V100.8L830,100.8z M830,90.8h-1v6h1V90.8L830,90.8z M830,80.8h-1v6h1V80.8L830,80.8z M830,70.8h-1v6h1V70.8L830,70.8z M830,60.8
			h-1v6h1V60.8L830,60.8z M830,50.8h-1v6h1V50.8L830,50.8z M830,40.8h-1v6h1V40.8L830,40.8z M830,30.8h-1v6h1V30.8L830,30.8z
			 M830,20.8h-1v6h1V20.8L830,20.8z M830,10.8h-1v6h1V10.8L830,10.8z"/>
	</g>
</g>
<path class="st2" d="M472.6,377.4L472.6,377.4"/>
<g id="bottomgroup" transform="translate(0,0)">
</g>
<g id="middlegroup" transform="translate(0,0)">
</g>
<g id="assistantgroup" transform="translate(0,0)">
</g>
<g>
	<polygon class="st3" points="442.9,235.2 447.9,230.7 442.9,226.2 	"/>
	<rect x="411.3" y="230.2" class="st3" width="31.6" height="1"/>
</g>
<g>
	<polygon class="st3" points="141.2,236.5 146.2,231.5 141.2,226.5 	"/>
	<line class="st4" x1="141.2" y1="231.5" x2="96.2" y2="231.5"/>
</g>
<g>
	<polygon class="st3" points="296,236.5 301,231.5 296,226.5 	"/>
	<line class="st4" x1="296" y1="231.5" x2="251" y2="231.5"/>
</g>
<g id="RectEndPoint1" transform="translate(8,251)">
	<rect x="1.8" y="-40.9" class="st5" width="102.3" height="45.1"/>
	<rect y="-42.8" class="st6" width="102.3" height="45.1"/>
	<g transform="translate(20 9)">
		<g>
			<g>
				<path class="st3" d="M0.9-39c2,0,3.6,1.6,3.6,3.6s-1.6,3.6-3.6,3.6s-3.6-1.6-3.6-3.6C-2.7-37.4-1.1-39,0.9-39 M0.9-40.8
					c-3,0-5.4,2.4-5.4,5.4S-2.1-30,0.9-30s5.4-2.4,5.4-5.4S3.9-40.8,0.9-40.8z"/>
				<path class="st3" d="M4.5-26.4c3,0,5.4,2.4,5.4,5.4v0.9h-18V-21c0-3,2.4-5.4,5.4-5.4H4.5 M4.5-28.2h-7.2c-4,0-7.2,3.2-7.2,7.2
					v2.7h21.7V-21C11.7-24.9,8.5-28.2,4.5-28.2z"/>
				<path class="st3" d="M12.6-28.2H9.9c0.7,0.5,1.3,1.1,1.8,1.8h0.9c2,0,3.6,1.6,3.6,3.6v0.9h-2.7c0,0.3,0,0.6,0,0.9v0.9H18v-2.7
					C18-25.8,15.6-28.2,12.6-28.2z"/>
				<path class="st3" d="M9-39.9c-0.7,0-1.5,0.2-2.1,0.5c0.3,0.5,0.6,1,0.8,1.6c1.3-0.7,3-0.3,3.7,1s0.3,3-1,3.7
					c-0.8,0.5-1.8,0.5-2.7,0c-0.2,0.6-0.5,1.1-0.8,1.6C7.5-31.1,8.3-31,9-31c2.5,0,4.5-2,4.5-4.5S11.5-39.9,9-39.9z"/>
			</g>
		</g>
		<text transform="matrix(1 0 0 1 27.9435 -24.663)" class="st7 st8 st9">用户</text>
	</g>
</g>
<g>
	<g id="ShadowBasicRect14" transform="translate(141.59375,267)">
		<rect x="28.3" y="-56.9" class="st5" width="102.3" height="45.1"/>
		<rect x="26.4" y="-58.7" class="st6" width="102.3" height="45.1"/>
		<g transform="translate(20 9)">
			<text transform="matrix(1 0 0 1 54.3871 -40.728)" class="st7 st8 st9">TCCLI</text>
		</g>
	</g>
	<g>
		<g id="XMLID_1226_">
			<g>
				<path class="st10" d="M180.5,230.9c0-4.3,2.3-8,5.7-10l-0.9-1.5c-3.9,2.4-6.6,6.6-6.6,11.6c0,4.9,2.6,9.2,6.6,11.6l0.9-1.5
					C182.8,238.9,180.5,235.2,180.5,230.9z M199.2,219.4l-0.9,1.5c3.4,2,5.7,5.8,5.7,10c0,4.3-2.3,8-5.7,10l0.9,1.5
					c3.9-2.4,6.6-6.6,6.6-11.6C205.7,226,203.1,221.7,199.2,219.4z M192.2,237.2c-1.1,0-2.2-0.3-3.1-0.8l-0.9,1.6c1.2,0.7,2.5,1,4,1
					c1.4,0,2.8-0.4,4-1l-0.9-1.6C194.4,236.9,193.3,237.2,192.2,237.2z M188.2,223.9l0.9,1.6c0.9-0.5,2-0.8,3.1-0.8s2.2,0.3,3.1,0.8
					l0.9-1.6c-1.2-0.7-2.5-1-4-1C190.8,222.8,189.4,223.2,188.2,223.9z"/>
			</g>
		</g>
		<g>
			<g>
				<rect id="XMLID_82_" x="194" y="227.3" class="st10" width="1.8" height="1.8"/>
				<rect id="XMLID_81_" x="191.3" y="229.1" class="st10" width="1.8" height="1.8"/>
				<rect id="XMLID_80_" x="186.8" y="227.3" class="st10" width="3.6" height="1.8"/>
				<rect id="XMLID_79_" x="185" y="229.1" class="st10" width="1.8" height="3.6"/>
				<rect id="XMLID_78_" x="186.8" y="232.7" class="st10" width="3.6" height="1.8"/>
				<rect id="XMLID_77_" x="191.3" y="232.7" class="st10" width="1.8" height="1.8"/>
				<rect id="XMLID_76_" x="195.8" y="229.1" class="st10" width="1.8" height="1.8"/>
				<rect id="XMLID_75_" x="197.6" y="230.9" class="st10" width="1.8" height="1.8"/>
				<rect id="XMLID_74_" x="199.4" y="232.7" class="st10" width="1.8" height="1.8"/>
			</g>
		</g>
	</g>
</g>
<g>
	<g id="ShadowBasicRect14_1_" transform="translate(141.59375,267)">
		<rect x="168.2" y="-56.7" class="st5" width="102.3" height="45.1"/>
		<rect x="166.3" y="-58.5" class="st6" width="102.3" height="45.1"/>
	</g>
</g>
<g>
	<g>
		<rect x="457.2" y="392.5" class="st5" width="356.9" height="44.5"/>
		<rect x="455.4" y="390.7" class="st6" width="356.9" height="44.5"/>
	</g>
	<g transform="translate(20 9)">
		<text transform="matrix(1 0 0 1 559.1632 408.7181)" class="st7 st8 st9">更多定制化应用场景</text>
	</g>
</g>
<g>
	<g id="ShadowBasicRect5_1_" transform="translate(206.8125,102)">
		<rect x="260.6" y="-48.4" class="st5" width="162.4" height="45.1"/>
		<rect x="258.8" y="-50.2" class="st6" width="162.4" height="45.1"/>
		<g transform="translate(20 9)">
			<g>
				<path class="st10" d="M261.2-24.9c-6.5,0-11.7-5.2-11.7-11.7s5.2-11.7,11.7-11.7c5.8,0,10.7,4.2,11.6,9.9h1.8
					c-1-7.4-7.8-12.6-15.2-11.6s-12.6,7.7-11.6,15.1s7.8,12.6,15.2,11.6c6-0.8,10.8-5.6,11.6-11.6h-1.8
					C271.9-29.2,267-24.9,261.2-24.9z M267.6-40.3l-6.3-3.6l-6.3,3.6v7.2l2.9,1.7c0.2-0.6,0.5-1.1,0.9-1.5l-2-1.2v-3.3l4.5,2.6
					l4.5-2.6v3.3l-3.7,2.1c-0.9-0.4-2,0-2.4,0.9s0,2,0.9,2.4s2,0,2.4-0.9c0.1-0.2,0.2-0.5,0.2-0.8v-0.1l4.5-2.6L267.6-40.3
					L267.6-40.3z M261.2-36.9l-4.3-2.4l4.3-2.4l4.3,2.4L261.2-36.9z"/>
			</g>
			<text transform="matrix(1 0 0 1 284.6692 -32.1277)" class="st7 st8 st9">云服务器</text>
		</g>
	</g>
	<g>
		<rect x="642" y="53.6" class="st5" width="161.2" height="45.1"/>
		<rect x="640.2" y="51.8" class="st6" width="161.2" height="45.1"/>
		<g transform="translate(20 9)">
			<g>
				<title  xmlns="http://www.w3.org/2000/svg">Product Icons【32】</title>
				<g id="_编组__5_">
					<g id="_编组_2_3_">
						<path id="_复合路径__3_" class="st10" d="M646.3,63.5c-1,0-1.8,0.8-1.8,1.8s0.8,1.8,1.8,1.8s1.8-0.8,1.8-1.8
							S647.3,63.5,646.3,63.5z M642.7,77.1c-6.5,0-11.7-5.2-11.7-11.7s5.2-11.7,11.7-11.7c5.8,0,10.7,4.2,11.6,9.9h1.8
							c-1-7.4-7.8-12.6-15.2-11.6s-12.6,7.8-11.6,15.2s7.8,12.6,15.2,11.6c6-0.8,10.8-5.6,11.6-11.6h-1.8
							C653.4,72.8,648.5,77.1,642.7,77.1z M642.7,61.7v-1.8h-5.4v10.8h5.4v-1.8h-3.6v-2.7h3.6v-1.8h-3.6v-2.7H642.7z M646.3,59
							c-1,0-1.8,0.8-1.8,1.8s0.8,1.8,1.8,1.8s1.8-0.8,1.8-1.8S647.3,59,646.3,59z M646.3,68c-1,0-1.8,0.8-1.8,1.8s0.8,1.8,1.8,1.8
							s1.8-0.8,1.8-1.8C648.1,68.9,647.3,68,646.3,68z"/>
					</g>
				</g>
			</g>
			<text transform="matrix(1 0 0 1 666.2101 69.8724)" class="st7 st8 st9">负载均衡</text>
		</g>
	</g>
	<g id="ShadowBasicRect12_1_" transform="translate(612.59375,109)">
		<rect x="-145.5" y="0.6" class="st5" width="161.2" height="45.1"/>
		<rect x="-147.3" y="-1.2" class="st6" width="161.2" height="45.1"/>
		<g transform="translate(20 9)">
			<g>
				<title  xmlns="http://www.w3.org/2000/svg">关系型数据库CDB</title>
				<path class="st10" d="M-147.9,13.2h-0.5c-5,0-9-1.2-9-2.7V4.8c2,1.3,5.2,2.1,9,2.1s7.1-0.8,9-2V9c0.6,0.2,1.2,0.4,1.8,0.7V2.4
					c0-2.5-4.9-4.5-10.8-4.5s-10.8,2-10.8,4.5v16.2h1.8V13c1.8,1.2,4.8,1.9,8.3,2c0.3-0.3,0.6-0.6,1-0.8
					C-148.1,13.9-148,13.6-147.9,13.2z M-148.4-0.3c5,0,9,1.2,9,2.7s-4.1,2.7-9,2.7s-9-1.3-9-2.7C-157.4,0.9-153.4-0.3-148.4-0.3z
					 M-157.4,18.7h-1.8c0,2.3,4,4.2,9.2,4.4c-0.4-0.6-0.7-1.2-0.9-1.9C-154.7,20.9-157.4,19.9-157.4,18.7z M-136.7,16L-136.7,16
					c0-2.6-2-4.6-4.5-4.6s-4.5,2-4.5,4.5V16c-1.9,0.5-3.1,2.5-2.6,4.4c0.4,1.6,1.8,2.7,3.5,2.7h7.2c2,0,3.6-1.6,3.6-3.6
					C-134,17.9-135.1,16.5-136.7,16z M-137.6,21.4h-7.2c-1,0-1.8-0.8-1.8-1.8c0-0.8,0.6-1.5,1.4-1.7l1.4-0.4v-1.6
					c0-1.5,1.2-2.6,2.7-2.6c1.4,0,2.6,1.2,2.7,2.6v1.6l1.4,0.4c0.8,0.2,1.4,0.9,1.4,1.7C-135.8,20.6-136.6,21.4-137.6,21.4z"/>
			</g>
			<text transform="matrix(1 0 0 1 -121.3806 16.9219)" class="st7 st8 st9">关系型数据库</text>
		</g>
	</g>
</g>
<g id="ShadowBasicRect9_1_" transform="translate(271.59375,231)">
	<rect x="196.1" y="-22" class="st5" width="162.1" height="45.1"/>
	<rect x="194.3" y="-23.8" class="st6" width="162.1" height="45.1"/>
	<g transform="translate(20 9)">
		<g>
			<title  xmlns="http://www.w3.org/2000/svg">关系型数据库CDB</title>
			<path class="st10" d="M195.7-9.3h-0.5c-5,0-9-1.2-9-2.7v-5.7c2,1.3,5.2,2.1,9,2.1s7.1-0.8,9-2v4.1c0.6,0.2,1.2,0.4,1.8,0.7v-7.3
				c0-2.5-4.9-4.5-10.8-4.5c-5.9,0-10.8,2-10.8,4.5v16.2h1.8v-5.6c1.8,1.2,4.8,1.9,8.3,2c0.3-0.3,0.6-0.6,1-0.8
				C195.5-8.7,195.6-9,195.7-9.3z M195.2-22.8c5,0,9,1.2,9,2.7s-4.1,2.7-9,2.7s-9-1.3-9-2.7C186.2-21.7,190.2-22.8,195.2-22.8z
				 M186.2-3.9h-1.8c0,2.3,4,4.1,9.2,4.4c-0.4-0.6-0.7-1.2-0.9-1.9C189-1.6,186.2-2.6,186.2-3.9z M206.9-6.5L206.9-6.5
				c0-2.6-2-4.6-4.5-4.6s-4.5,2-4.5,4.5v0.1C196-6,194.8-4,195.3-2.1c0.4,1.6,1.8,2.7,3.5,2.7h7.2c2,0,3.6-1.6,3.6-3.6
				C209.6-4.6,208.5-6.1,206.9-6.5z M206-1.2h-7.2c-1,0-1.8-0.8-1.8-1.8c0-0.8,0.6-1.5,1.4-1.7l1.4-0.4v-1.6c0-1.5,1.2-2.6,2.7-2.6
				c1.4,0,2.6,1.2,2.7,2.6v1.6l1.4,0.4c0.8,0.2,1.4,0.9,1.4,1.7C207.8-2,207-1.2,206-1.2z"/>
		</g>
		<text transform="matrix(1 0 0 1 220.2413 -5.6932)" class="st7 st8 st9">关系型数据库</text>
	</g>
</g>
<g id="ShadowBasicRect8_1_" transform="translate(469,223)">
	<rect x="173" y="-14" class="st5" width="161.2" height="45.1"/>
	<rect x="171.2" y="-15.8" class="st6" width="161.2" height="45.1"/>
	<g transform="translate(20 9)">
		<g>
			<title  xmlns="http://www.w3.org/2000/svg">Product Icons【32】</title>
			<g>
				<g id="_编组__4_">
					<path class="st10" d="M173.8,9.5c-6.5,0-11.7-5.3-11.7-11.8S167.4-14,173.9-14c5.8,0,10.6,4.2,11.5,9.9h1.8
						c-1-7.4-7.8-12.6-15.2-11.6s-12.6,7.8-11.6,15.2s7.8,12.6,15.2,11.6c6-0.8,10.8-5.6,11.6-11.6h-1.8
						C184.5,5.3,179.6,9.6,173.8,9.5z"/>
				</g>
				<g>
					<path id="_路径__1_" class="st10" d="M167.4-0.4l4.5,2.7v1.8l-4.5-2.7V-0.4z"/>
					<path id="_路径_2_1_" class="st10" d="M167.4-4l4.5-2.7v-1.8l-4.5,2.7V-4z"/>
					<path id="_路径_3_1_" class="st10" d="M167.4-5.8h1.8v7.2h-1.8V-5.8z"/>
				</g>
				<g>
					<path id="_路径_4_1_" class="st10" d="M178.2-5.8h1.8v7.2h-1.8V-5.8z"/>
					<path id="_路径_5_1_" class="st10" d="M180,1.4l-4.5,2.7V2.3l4.5-2.7V1.4z"/>
					<path id="_路径_6_1_" class="st10" d="M180-5.8l-4.5-2.7v1.8L180-4V-5.8z"/>
				</g>
				<polygon id="_路径_7_1_" class="st10" points="173.7,0.5 171.9,0.5 173.7,-4.9 175.5,-4.9 				"/>
			</g>
		</g>
		<text transform="matrix(1 0 0 1 197.2103 2.3071)" class="st7 st8 st9">无服务器云函数</text>
	</g>
</g>
<g id="ShadowBasicRect10_1_" transform="translate(315,346)">
	<rect x="152.7" y="-39" class="st5" width="162.1" height="45.1"/>
	<rect x="150.9" y="-40.8" class="st6" width="162.1" height="45.1"/>
	<g transform="translate(20 9)">
		<g>
			<path class="st10" d="M153.4-15.5c-6.5,0-11.7-5.2-11.7-11.7S146.9-39,153.4-39c5.8,0,10.7,4.2,11.6,9.9h1.8
				c-1-7.4-7.8-12.6-15.2-11.6s-12.7,7.8-11.7,15.2s7.8,12.6,15.2,11.6c6-0.8,10.8-5.6,11.6-11.6h-1.8
				C164.1-19.8,159.2-15.5,153.4-15.5z M159.7-30.9l-6.3-3.6l-6.3,3.6v7.2L150-22c0.2-0.6,0.5-1.1,0.9-1.5l-2-1.2V-28l4.5,2.6
				l4.5-2.6v3.3l-3.7,2.1c-0.9-0.4-2,0-2.4,0.9s0,2,0.9,2.4s2,0,2.4-0.9c0.1-0.2,0.2-0.5,0.2-0.8v-0.1l4.4-2.6
				C159.7-23.7,159.7-30.9,159.7-30.9z M153.4-27.5l-4.3-2.4l4.3-2.4l4.3,2.4L153.4-27.5z"/>
		</g>
		<text transform="matrix(1 0 0 1 176.829 -22.6816)" class="st7 st8 st9">云服务器</text>
	</g>
</g>
<g id="ShadowBasicRect11_1_" transform="translate(573,339)">
	<rect x="69" y="-32" class="st5" width="161.2" height="45.1"/>
	<rect x="67.2" y="-33.8" class="st6" width="161.2" height="45.1"/>
	<g transform="translate(20 9)">
		<g>
			<title  xmlns="http://www.w3.org/2000/svg">Product Icons【32】</title>
			<g id="_编组__3_">
				<g id="_编组_2_2_">
					<path id="_复合路径__2_" class="st10" d="M63.4-23.9v7.2l6.3,3.6l6.3-3.6v-7.2l-6.3-3.6L63.4-23.9z M68.8-15.6l-3.6-2.1
						V-21l3.6,2.1V-15.6z M74.2-17.7l-3.6,2.1v-3.3l3.6-2.1V-17.7z M69.7-20.5l-4.3-2.4l4.3-2.4l4.3,2.4L69.7-20.5z M80.5-14.1
						L69.7-7.9l-10.8-6.2v-12.3l10.8-6.2l10.8,6.2l0,0l1.8-1l-12.6-7.3l-12.6,7.2v14.4l12.6,7.2l12.6-7.2v-10.8l-1.8,1V-14.1z"/>
				</g>
			</g>
		</g>
		<text transform="matrix(1 0 0 1 93.2101 -15.6818)" class="st7 st8 st9">对象储存</text>
	</g>
</g>
<g>
	<polygon class="st3" points="442.9,107.9 447.9,103.4 442.9,98.9 	"/>
	<rect x="428.9" y="102.9" class="st3" width="14" height="1"/>
</g>
<g>
	<polygon class="st3" points="442.9,332.3 447.9,327.8 442.9,323.3 	"/>
	<rect x="428.9" y="327.3" class="st3" width="14" height="1"/>
</g>
<rect x="428.9" y="103.6" class="st3" width="1" height="224"/>
<g id="textgroup" transform="translate(0,0)">
	<g id="Textbasic13" transform="translate(122.3046875,369)">
		<g transform="translate(0 0)">
			<text transform="matrix(1 0 0 1 199.5541 -141.1743)" class="st7 st8 st9">根据自身需求</text>
			<text transform="matrix(1 0 0 1 205.8541 -125.9744)" class="st7 st8 st9">个性化组合</text>
		</g>
	</g>
</g>
</svg>
