<?xml version="1.0" encoding="UTF-8"?>
<svg width="32px" height="32px" viewBox="0 0 32 32" version="1.1" xmlns="http://www.w3.org/2000/svg" xmlns:xlink="http://www.w3.org/1999/xlink">
    <!-- Generator: Sketch 52.6 (67491) - http://www.bohemiancoding.com/sketch -->
    <title>智营网优 INO-32px</title>
    <desc>Created with Sketch.</desc>
    <g id="智营网优-INO-32px" stroke="none" stroke-width="1" fill="none" fill-rule="evenodd">
        <rect id="Rectangle-Copy" fill="#444444" opacity="0" x="0" y="0" width="32" height="32"></rect>
        <g id="Group" transform="translate(2.000000, 0.000000)" fill="#7C848E">
            <g id="Group-6" transform="translate(5.000000, 7.000000)">
                <path d="M3,8.03723299 L1,8.03723299 L1,5.41967746 L9,0.848248893 L17,5.41967746 L17,8.04947112 L15,8.04947112 L15,6.58032254 L9,3.15175111 L3,6.58032254 L3,8.03723299 Z M15,11.0509758 L17,11.0509758 L17,13.5803225 L9,18.1517511 L1,13.5803225 L1,11.0893402 L3,11.0893402 L3,12.4196775 L9,15.8482489 L15,12.4196775 L15,11.0509758 Z" id="Combined-Shape" fill-rule="nonzero"></path>
                <circle id="Oval-17" cx="2" cy="8" r="2"></circle>
                <circle id="Oval-17" cx="16" cy="11" r="2"></circle>
            </g>
            <polygon id="Shape" points="26.001 12.334 26.001 23.143 14.001 30 2 23.143 2 8.857 14.001 2 25.577 8.615 27.192 7.539 14.001 0 1.0125234e-13 8 1.0125234e-13 10 1.0125234e-13 22 1.0125234e-13 24 14.001 32 28.001 24 28.001 22 28.001 11"></polygon>
            <rect id="Rectangle-114" x="11" y="14" width="2" height="4"></rect>
            <rect id="Rectangle-114-Copy" x="16" y="14" width="2" height="1"></rect>
            <rect id="Rectangle-114-Copy-2" x="16" y="17" width="2" height="1"></rect>
            <rect id="Rectangle-115" x="10" y="15" width="4" height="2"></rect>
            <rect id="Rectangle-115-Copy" x="15" y="15" width="1" height="2"></rect>
            <rect id="Rectangle-115-Copy-2" x="18" y="15" width="1" height="2"></rect>
        </g>
    </g>
</svg>