<?xml version="1.0" encoding="UTF-8"?>
<svg width="48px" height="48px" viewBox="0 0 48 48" version="1.1" xmlns="http://www.w3.org/2000/svg" xmlns:xlink="http://www.w3.org/1999/xlink">
    <!-- Generator: Sketch 52.2 (67145) - http://www.bohemiancoding.com/sketch -->
    <title>AI技术机器学习-48x48</title>
    <desc>Created with Sketch.</desc>
    <g id="AI技术机器学习-48x48" stroke="none" stroke-width="1" fill="none" fill-rule="evenodd">
        <g id="机器学习-48x48-01" transform="translate(1.000000, 1.000000)">
            <path d="M23,0 C10.3,0 0,10.3 0,23 C0,35.7 10.3,46 23,46 C35.7,46 46,35.7 46,23 C46,10.3 35.7,0 23,0 M23,2 C34.6,2 44,11.4 44,23 C44,34.6 34.6,44 23,44 C11.4,44 2,34.6 2,23 C2,11.4 11.4,2 23,2" id="Shape" fill="#334966" fill-rule="nonzero"></path>
            <path d="M8.6,16 C11.2,10.7 16.7,7 23,7 C29.3,7 34.8,10.7 37.4,16 L39.6,16 C36.9,9.5 30.5,5 23,5 C15.5,5 9.1,9.5 6.4,16 L8.6,16 Z M37.8,29 C35.4,34.9 29.7,39 23,39 C16.3,39 10.6,34.9 8.2,29 L6,29 C8.5,36 15.1,41 23,41 C30.8,41 37.5,36 40,29 L37.8,29 Z" id="Shape_1_" fill="#334966" fill-rule="nonzero"></path>
            <g id="Group" transform="translate(11.000000, 11.000000)" fill="#00A4FF">
                <path d="M12,0 C5.373,0 0,5.373 0,12 C0,18.627 5.373,24 12,24 C18.627,24 24,18.627 24,12 C24,5.373 18.627,0 12,0 Z M14,19 L11.857,13 L7.571,13 L5,19 L3,19 L9,5 L11,5 L16,19 L14,19 Z M20,19 L18,19 L18,5 L20,5 L20,19 Z" id="Shape" fill-rule="nonzero"></path>
                <polygon id="Path" points="8.429 11 11.143 11 9.909 7.545"></polygon>
            </g>
        </g>
    </g>
</svg>