<?xml version="1.0" encoding="utf-8"?>
<!-- Generator: Adobe Illustrator 22.1.0, SVG Export Plug-In . SVG Version: 6.00 Build 0)  -->
<svg version="1.1" id="图层_1" xmlns="http://www.w3.org/2000/svg" xmlns:xlink="http://www.w3.org/1999/xlink" x="0px" y="0px"
	 width="830px" height="248.5px" viewBox="0 0 830 248.5" style="enable-background:new 0 0 830 248.5;" xml:space="preserve">
<style type="text/css">
	.st0{fill-opacity:0;}
	.st1{fill:none;stroke:#BABABA;stroke-dasharray:5;}
	.st2{fill:#EAEBEC;}
	.st3{fill:#CEE3FF;}
	.st4{opacity:0.6;fill:#BBBBBB;enable-background:new    ;}
	.st5{fill:#FFFFFF;stroke:#E5E5E5;}
	.st6{fill:#878787;}
	.st7{fill:none;stroke:#878787;stroke-miterlimit:10;}
	.st8{enable-background:new    ;}
	.st9{fill:#444444;}
	.st10{fill:#00A4FF;}
	.st11{clip-path:url(#SVGID_4_);fill:#00A4FF;}
	.st12{clip-path:url(#SVGID_8_);fill:#00A4FF;}
	.st13{clip-path:url(#SVGID_12_);fill:#00A4FF;}
</style>
<g id="DashRectGroup11" transform="translate(163.994140625,134.5)">
	<rect x="-163.2" y="-133.2" class="st0" width="110.8" height="245.2"/>
	<path class="st1" d="M-163.2-133.2h110.8V112h-110.8V-133.2"/>
</g>
<g id="DashRectGroup11_1_" transform="translate(163.994140625,134.5)">
	<rect x="34.3" y="-133.2" class="st0" width="407.7" height="245.2"/>
	<path class="st1" d="M34.3-133.2H442V112H34.3V-133.2"/>
</g>
<rect x="652" class="st2" width="177.2" height="248.5"/>
<rect x="212.2" y="12" class="st3" width="218.5" height="225"/>
<g id="RectEndPoint2_2_" transform="translate(179.01953125,177)">
	<g>
		<rect x="48.7" y="-118.4" class="st4" width="191.4" height="46.2"/>
		<rect x="45.7" y="-120.2" class="st5" width="192.8" height="46.2"/>
	</g>
</g>
<g id="RectEndPoint2_3_" transform="translate(179.01953125,177)">
	<g>
		<rect x="48.7" y="-35" class="st4" width="191.4" height="57.3"/>
		<rect x="45.7" y="-37.2" class="st5" width="192.8" height="57.3"/>
	</g>
</g>
<g id="RectEndPoint2_1_" transform="translate(179.01953125,177)">
	<g>
		<rect x="-165" y="-163.6" class="st4" width="85.8" height="35.5"/>
		<rect x="-166.3" y="-165" class="st5" width="85.8" height="35.5"/>
	</g>
</g>
<g>
	<polygon class="st6" points="648,122.9 652,126.9 648,130.9 	"/>
	<line class="st7" x1="650" y1="126.9" x2="606" y2="126.9"/>
</g>
<g>
	<polygon class="st6" points="472.7,122.9 476.7,126.9 472.7,130.9 	"/>
	<line class="st7" x1="474.7" y1="126.9" x2="430.7" y2="126.9"/>
</g>
<g>
	<polygon class="st6" points="193.3,122.9 197.3,126.9 193.3,130.9 	"/>
	<line class="st7" x1="195.3" y1="126.9" x2="113" y2="126.9"/>
</g>
<g class="st8">
	<path class="st9" d="M35.3,24.6c-0.7,1.4-1.8,2.6-3.4,3.8l-0.4-1.3c1.2-0.8,2.1-1.8,2.7-3L35.3,24.6z M35.9,27.5
		c-0.3,0.7-0.7,1.3-1.3,1.9v6.3h-1.3v-5c-0.4,0.4-0.9,0.7-1.4,1l-0.4-1.3c1.4-1,2.5-2.2,3.1-3.5L35.9,27.5z M43.1,27.8v1.3h-1.9v5.3
		c0,0.8-0.5,1.3-1.4,1.3h-1.8l-0.3-1.3c0.6,0.1,1.1,0.1,1.7,0.1c0.3,0,0.5-0.1,0.5-0.4v-5H36v-1.3H43.1z M42.5,24.7V26h-6.2v-1.3
		H42.5z"/>
	<path class="st9" d="M49.9,24v1.9c0,0.4,0,0.7-0.1,1.1H55c0,3.7-0.2,6.1-0.5,7.1c-0.3,1-0.9,1.5-1.8,1.5c-0.7,0-1.2,0-1.7-0.1
		l-0.4-1.3c0.7,0.1,1.4,0.1,2,0.1c0.5-0.1,0.8-0.7,0.9-2c0.1-1.3,0.1-2.7,0.1-4.1h-3.9c-0.2,1.6-0.6,2.9-1.1,4
		c-0.7,1.5-2,2.6-3.7,3.4l-0.7-1.2c1.7-0.9,2.8-1.9,3.4-3.2c0.4-0.8,0.6-1.8,0.8-3h-3.8V27h3.9c0-0.4,0.1-0.7,0.1-1.1V24L49.9,24
		L49.9,24z M47.8,26.3l-1,0.7c-0.4-0.6-1-1.2-1.7-1.9l1-0.7C46.9,25,47.4,25.7,47.8,26.3z M52.7,32.1l-1.2,0.8
		c-0.5-0.8-1.1-1.7-1.9-2.6l1.1-0.7C51.6,30.5,52.2,31.4,52.7,32.1z"/>
	<path class="st9" d="M66.8,35.7h-1.3v-0.9h-5.6v0.9h-1.3V24.4h8.2V35.7z M65.5,28.8v-3.1h-5.6v3.1H65.5z M65.5,33.5v-3.4h-5.6v3.4
		H65.5z"/>
	<path class="st9" d="M71.8,31.2c-0.3,1.5-0.7,2.8-1.3,3.8l-1.1-0.7c0.5-1.1,0.9-2.2,1.1-3.4L71.8,31.2z M75.9,24v1.5h4.8v1.3h-4.8
		v1.5h4v1.3h-9.2v-1.3h3.9v-1.5h-4.8v-1.3h4.8V24H75.9z M73.8,35.4c-0.9,0-1.4-0.5-1.4-1.6v-3.4h1.3v3.1c0,0.4,0.2,0.6,0.5,0.6h2.6
		c0.2,0,0.4-0.1,0.5-0.3c0.1-0.2,0.2-0.7,0.3-1.6l1.3,0.4c-0.1,1.3-0.3,2.1-0.6,2.4c-0.3,0.2-0.7,0.4-1.2,0.4L73.8,35.4L73.8,35.4z
		 M76.8,32.5l-1.2,0.5c-0.3-0.9-0.7-1.8-1.1-2.5l1.3-0.4C76.2,30.9,76.5,31.7,76.8,32.5z M81.1,34l-1.2,0.5c-0.5-1.4-1-2.6-1.5-3.6
		l1.2-0.4C80.2,31.6,80.7,32.8,81.1,34z"/>
</g>
<g id="RectEndPoint2_4_" transform="translate(179.01953125,177)">
	<g>
		<rect x="-165" y="-117.4" class="st4" width="85.8" height="35.5"/>
		<rect x="-166.3" y="-118.7" class="st5" width="85.8" height="35.5"/>
	</g>
</g>
<g class="st8">
	<path class="st9" d="M34.5,75.2l-0.9,0.9c-0.5-0.6-1.1-1.2-2-1.9l0.9-0.9C33.3,74,34,74.6,34.5,75.2z M34.6,77.3
		c-0.5,1.6-1,3.1-1.6,4.5l-1.2-0.5c0.6-1.4,1.2-2.9,1.6-4.4L34.6,77.3z M34.8,72l-0.9,0.9c-0.5-0.5-1.1-1.1-2-1.6l0.9-0.9
		C33.6,70.9,34.2,71.5,34.8,72z M36.9,76.2c-0.1,1.7-0.2,2.9-0.5,3.7c-0.3,0.8-0.8,1.5-1.5,2.1l-0.8-1.1c0.6-0.5,1-1,1.2-1.7
		c0.2-0.6,0.3-1.6,0.4-3.1C35.6,76.2,36.9,76.2,36.9,76.2z M35,74.7c0.1,0,0.2-0.1,0.3-0.1c0.4-0.3,0.9-0.9,1.6-2H35v-1.2h3.3
		c-0.2-0.4-0.3-0.7-0.5-1.1l1.3-0.2c0.2,0.4,0.3,0.8,0.5,1.3h3.2v1.2h-4.6c-0.5,0.8-0.9,1.5-1.3,1.9c1.2-0.1,2.4-0.2,3.6-0.3
		c-0.2-0.3-0.5-0.6-0.7-0.9l1.1-0.7c0.9,1,1.6,1.9,2,2.7l-1.1,0.8c-0.2-0.3-0.4-0.6-0.6-0.9c-1.8,0.2-3.9,0.4-6,0.5L35,74.7z
		 M39.1,76.2v5.6h-1.3v-5.6H39.1z M41.4,81.9c-0.9,0-1.4-0.4-1.4-1.2v-4.5h1.2v4.3c0,0.1,0.1,0.2,0.2,0.2h0.4c0.2,0,0.2-0.2,0.2-0.5
		c0-0.3,0-0.8,0-1.4l1.2,0.4c0,1.2-0.1,2-0.3,2.2c-0.2,0.3-0.5,0.4-1.1,0.5L41.4,81.9L41.4,81.9z"/>
	<path class="st9" d="M50.1,75.4v1.2H48v2.8c0.9-0.2,1.7-0.4,2.6-0.6v1.3c-1.9,0.4-3.8,0.8-6,1.1L44.3,80c0.8-0.1,1.6-0.2,2.4-0.3
		v-3h-2.1v-1.2L50.1,75.4L50.1,75.4z M50.4,72.4c0-0.7-0.1-1.4-0.1-2.1h1.4c0,0.7,0,1.4,0,2.1h1.8c-0.3-0.6-0.7-1.1-1-1.5l1.1-0.5
		c0.4,0.5,0.7,1.1,1.1,1.7L54,72.4h1.6v1.3h-3.7c0.1,1.8,0.4,3.4,0.8,4.7c0.5,1.4,0.9,2.1,1.3,2.1c0.2,0,0.4-0.7,0.6-2l1.2,0.6
		C55.4,81,54.8,82,54.1,82c-1.3-0.1-2.2-1.5-3-4.3c-0.3-1.1-0.4-2.5-0.5-4h-6.1v-1.3H50.4z"/>
	<path class="st9" d="M60.3,76.3c-0.1,0.2-0.1,0.4-0.2,0.6h2.5v1.1c-0.2,0.7-0.6,1.4-1.2,1.9c0.5,0.2,1,0.4,1.4,0.7l-0.7,1
		c-0.5-0.3-1.1-0.6-1.7-0.9c-0.8,0.5-1.9,0.9-3.1,1.3l-0.6-1.1c0.9-0.2,1.7-0.5,2.4-0.8c-0.5-0.2-1-0.4-1.6-0.6
		c0.3-0.5,0.6-1,0.8-1.5h-1.3v-1.1h1.8c0.1-0.3,0.2-0.5,0.3-0.7L60.3,76.3z M59.4,72.6v-2.3h1.2v2.3h2.1v1.1h-2.1v0
		c0.7,0.3,1.3,0.6,2,0.9l-0.7,1c-0.5-0.4-1-0.7-1.3-1v1.3h-1.2v-2c-0.4,0.9-1.1,1.6-2,2.3l-0.7-1.1c0.8-0.5,1.4-1,1.8-1.5h-1.5v-1.1
		L59.4,72.6L59.4,72.6z M59,72l-0.9,0.4c-0.3-0.6-0.5-1.1-0.8-1.6l1-0.3C58.6,70.9,58.8,71.4,59,72z M61.5,78h-1.9
		c-0.2,0.3-0.3,0.6-0.5,0.9c0.4,0.1,0.8,0.3,1.2,0.4C60.8,79,61.2,78.5,61.5,78z M62.8,70.9c-0.3,0.5-0.6,1-1,1.6L60.9,72
		c0.4-0.5,0.7-1,1-1.5L62.8,70.9z M64,75.7c-0.2,0.4-0.4,0.8-0.6,1.2l-0.8-1c0.7-1.4,1.2-3.2,1.4-5.6l1.3,0.2
		c-0.1,0.6-0.2,1.1-0.2,1.6h3.2v1.3h-0.7c-0.1,2-0.4,3.8-1.1,5.2c0.6,1,1.3,1.8,2.2,2.4L67.8,82c-0.8-0.6-1.5-1.3-2.1-2.3
		c-0.6,0.9-1.3,1.6-2.2,2.3l-0.7-1.1c0.9-0.6,1.6-1.4,2.2-2.4C64.6,77.7,64.3,76.8,64,75.7z M64.6,73.9c0.3,1.2,0.6,2.3,1,3.3
		c0.4-1.1,0.6-2.4,0.6-3.8h-1.5C64.7,73.5,64.7,73.7,64.6,73.9z"/>
	<path class="st9" d="M69.9,81.9l-0.3-1.2c0.3,0.1,0.6,0.1,0.9,0.1c0.3,0,0.4-0.2,0.4-0.5v-2.6c-0.4,0.2-0.8,0.3-1.3,0.4l-0.3-1.3
		c0.5-0.1,1.1-0.3,1.6-0.5v-2.5h-1.4v-1.3H71v-2.2h1.3v2.2h1.1v1.3h-1.1v2c0.4-0.2,0.7-0.3,1-0.5v1.3c-0.4,0.2-0.7,0.3-1,0.5v3.4
		c0,0.9-0.4,1.3-1.2,1.3L69.9,81.9L69.9,81.9z M73.6,82l-1-0.9c0.8-1.6,1.2-3.7,1.3-6.2v-4.2h6.9V74h-2.3v1.2H81v1.2h-2.6v1.2h2V82
		h-1.2v-0.5h-2.8V82h-1.2v-4.3h2v-1.2H75C74.8,78.5,74.4,80.4,73.6,82z M75.1,74v0.8c0,0.1,0,0.2,0,0.3h2.1V74H75.1z M75.1,71.9v1
		h4.4v-1H75.1z M79.2,80.3v-1.5h-2.8v1.5H79.2z"/>
</g>
<g id="RectEndPoint2_10_" transform="translate(179.01953125,177)">
	<g>
		<rect x="-165" y="-71.1" class="st4" width="85.8" height="35.5"/>
		<rect x="-166.3" y="-72.5" class="st5" width="85.8" height="35.5"/>
	</g>
</g>
<g class="st8">
	<path class="st9" d="M36.6,116.6v9.9H38v-9.9h1.3v9.9H43v1.3H31.7v-1.3h3.6v-9.9H36.6z M34.7,124.8l-1.2,0.3c-0.4-2-1-3.9-1.6-5.7
		L33,119C33.7,120.7,34.2,122.6,34.7,124.8z M42.7,119.4c-0.5,2.2-1.1,4.1-1.8,5.7l-1.2-0.4c0.7-1.5,1.3-3.3,1.8-5.6L42.7,119.4z"/>
	<path class="st9" d="M49.1,116.7c-0.1,0.3-0.3,0.6-0.4,0.8h5.4v1.1c-0.7,0.9-1.6,1.6-2.7,2.2c1.3,0.5,2.8,0.8,4.4,0.9l-0.6,1.2
		c-2-0.2-3.7-0.7-5.3-1.4c-1.5,0.7-3.2,1.2-5.2,1.5l-0.6-1.2c1.6-0.2,3.1-0.5,4.4-1c-0.6-0.3-1.1-0.7-1.6-1.1
		c-0.4,0.3-0.9,0.7-1.4,1l-0.8-1c1.5-0.8,2.5-1.9,3-3.1L49.1,116.7z M50.3,122.3c0,0.4,0,0.8-0.1,1.2h4.3c0,2.2-0.2,3.6-0.6,4
		s-1,0.7-1.9,0.7c-0.4,0-1,0-1.6-0.1l-0.3-1.2c0.7,0,1.2,0.1,1.6,0.1c0.6,0,1-0.1,1.1-0.4c0.2-0.3,0.3-0.9,0.3-1.9h-3.3
		c-0.1,0.3-0.2,0.6-0.4,0.8c-0.6,1.1-2.1,2.1-4.4,2.8l-0.9-1.1c2-0.6,3.4-1.3,4-2.2c0.1-0.1,0.2-0.3,0.2-0.4H45v-1.2h3.9
		c0.1-0.4,0.1-0.8,0.1-1.2L50.3,122.3L50.3,122.3z M52.1,118.8h-4.3l0,0c0.7,0.5,1.4,1,2.1,1.4C50.8,119.8,51.5,119.3,52.1,118.8z"
		/>
	<path class="st9" d="M60.3,122.6c-0.1,0.2-0.1,0.4-0.2,0.6h2.5v1.1c-0.2,0.7-0.6,1.4-1.2,1.9c0.5,0.2,1,0.4,1.4,0.7l-0.7,1
		c-0.5-0.3-1.1-0.6-1.7-0.9c-0.8,0.5-1.9,0.9-3.1,1.3l-0.6-1.1c0.9-0.2,1.7-0.5,2.4-0.8c-0.5-0.2-1-0.4-1.6-0.6
		c0.3-0.5,0.6-1,0.8-1.5h-1.3v-1.1h1.8c0.1-0.3,0.2-0.5,0.3-0.7L60.3,122.6z M59.4,118.9v-2.3h1.2v2.3h2.1v1.1h-2.1v0
		c0.7,0.3,1.3,0.6,2,0.9l-0.7,1c-0.5-0.4-1-0.7-1.3-1v1.3h-1.2v-2c-0.4,0.9-1.1,1.6-2,2.3l-0.7-1.1c0.8-0.5,1.4-1,1.8-1.5h-1.5v-1.1
		L59.4,118.9L59.4,118.9z M59,118.3l-0.9,0.4c-0.3-0.6-0.5-1.1-0.8-1.6l1-0.3C58.6,117.2,58.8,117.7,59,118.3z M61.5,124.3h-1.9
		c-0.2,0.3-0.3,0.6-0.5,0.9c0.4,0.1,0.8,0.3,1.2,0.4C60.8,125.2,61.2,124.8,61.5,124.3z M62.8,117.2c-0.3,0.5-0.6,1-1,1.6l-0.9-0.5
		c0.4-0.5,0.7-1,1-1.5L62.8,117.2z M64,122c-0.2,0.4-0.4,0.8-0.6,1.2l-0.8-1c0.7-1.4,1.2-3.2,1.4-5.6l1.3,0.2
		c-0.1,0.6-0.2,1.1-0.2,1.6h3.2v1.3h-0.7c-0.1,2-0.4,3.8-1.1,5.2c0.6,1,1.3,1.8,2.2,2.4l-0.7,1.1c-0.8-0.6-1.5-1.3-2.1-2.3
		c-0.6,0.9-1.3,1.6-2.2,2.3l-0.7-1.1c0.9-0.6,1.6-1.4,2.2-2.4C64.6,124,64.3,123,64,122z M64.6,120.1c0.3,1.2,0.6,2.3,1,3.3
		c0.4-1.1,0.6-2.4,0.6-3.8h-1.5C64.7,119.8,64.7,120,64.6,120.1z"/>
	<path class="st9" d="M69.9,128.1l-0.3-1.2c0.3,0.1,0.6,0.1,0.9,0.1c0.3,0,0.4-0.2,0.4-0.5V124c-0.4,0.2-0.8,0.3-1.3,0.4l-0.3-1.3
		c0.5-0.1,1.1-0.3,1.6-0.5v-2.5h-1.4v-1.3H71v-2.2h1.3v2.2h1.1v1.3h-1.1v2c0.4-0.2,0.7-0.3,1-0.5v1.3c-0.4,0.2-0.7,0.3-1,0.5v3.4
		c0,0.9-0.4,1.3-1.2,1.3L69.9,128.1L69.9,128.1z M73.6,128.3l-1-0.9c0.8-1.6,1.2-3.7,1.3-6.2V117h6.9v3.3h-2.3v1.2H81v1.2h-2.6v1.2
		h2v4.3h-1.2v-0.5h-2.8v0.5h-1.2v-4.3h2v-1.2H75C74.8,124.8,74.4,126.7,73.6,128.3z M75.1,120.3v0.8c0,0.1,0,0.2,0,0.3h2.1v-1.2
		H75.1z M75.1,118.2v1h4.4v-1H75.1z M79.2,126.6v-1.5h-2.8v1.5H79.2z"/>
</g>
<g id="RectEndPoint2_11_" transform="translate(179.01953125,177)">
	<g>
		<rect x="-165" y="-23.4" class="st4" width="85.8" height="35.5"/>
		<rect x="-166.3" y="-24.8" class="st5" width="85.8" height="35.5"/>
	</g>
</g>
<g class="st8">
	<path class="st9" d="M33.4,165.6v9h-1.5v-9H33.4z"/>
	<path class="st9" d="M40.4,168.9c0.6,0.6,0.9,1.5,0.9,2.5c0,1-0.3,1.8-0.9,2.5c-0.6,0.7-1.4,1-2.4,1c-1,0-1.8-0.3-2.4-1
		c-0.6-0.6-0.9-1.5-0.9-2.5c0-1,0.3-1.8,0.9-2.5c0.6-0.7,1.4-1,2.4-1C39,167.9,39.8,168.3,40.4,168.9z M36.7,169.8
		c-0.3,0.4-0.4,0.9-0.4,1.6s0.1,1.1,0.4,1.6c0.3,0.5,0.8,0.7,1.4,0.7c0.6,0,1.1-0.2,1.4-0.7c0.3-0.4,0.4-0.9,0.4-1.6
		c0-0.6-0.2-1.2-0.4-1.6c-0.3-0.5-0.8-0.7-1.4-0.7C37.5,169.1,37,169.4,36.7,169.8z"/>
	<path class="st9" d="M49.4,165.6v1.3h-3v7.8H45v-7.8h-3v-1.3H49.4z"/>
	<path class="st9" d="M53.6,170.3c-0.1,0.2-0.1,0.4-0.2,0.6H56v1.1c-0.2,0.7-0.6,1.4-1.2,1.9c0.5,0.2,1,0.4,1.4,0.7l-0.7,1
		c-0.5-0.3-1.1-0.6-1.7-0.9c-0.8,0.5-1.9,0.9-3.1,1.3l-0.6-1.1c0.9-0.2,1.7-0.5,2.4-0.8c-0.5-0.2-1-0.4-1.6-0.6
		c0.3-0.5,0.6-1,0.8-1.5h-1.3v-1.1h1.8c0.1-0.3,0.2-0.5,0.3-0.7L53.6,170.3z M52.8,166.6v-2.3H54v2.3h2.1v1.1H54v0
		c0.7,0.3,1.3,0.6,2,0.9l-0.7,1c-0.5-0.4-1-0.7-1.3-1v1.3h-1.2v-2c-0.4,0.9-1.1,1.6-2,2.3l-0.7-1.1c0.8-0.5,1.4-1,1.8-1.5h-1.5v-1.1
		L52.8,166.6L52.8,166.6z M52.3,166l-0.9,0.4c-0.3-0.6-0.5-1.1-0.8-1.6l1-0.3C51.9,164.9,52.1,165.4,52.3,166z M54.8,172h-1.9
		c-0.2,0.3-0.3,0.6-0.5,0.9c0.4,0.1,0.8,0.3,1.2,0.4C54.1,172.9,54.5,172.5,54.8,172z M56.1,164.9c-0.3,0.5-0.6,1-1,1.6l-0.9-0.5
		c0.4-0.5,0.7-1,1-1.5L56.1,164.9z M57.3,169.7c-0.2,0.4-0.4,0.8-0.6,1.2l-0.8-1c0.7-1.4,1.2-3.2,1.4-5.6l1.3,0.2
		c-0.1,0.6-0.2,1.1-0.2,1.6h3.2v1.3h-0.7c-0.1,2-0.4,3.8-1.1,5.2c0.6,1,1.3,1.8,2.2,2.4l-0.7,1.1c-0.8-0.6-1.5-1.3-2.1-2.3
		c-0.6,0.9-1.3,1.6-2.2,2.3l-0.7-1.1c0.9-0.6,1.6-1.4,2.2-2.4C58,171.7,57.6,170.7,57.3,169.7z M57.9,167.9c0.3,1.2,0.6,2.4,1,3.3
		c0.4-1.1,0.6-2.4,0.6-3.8h-1.5C58,167.5,58,167.7,57.9,167.9z"/>
	<path class="st9" d="M63.3,175.9l-0.3-1.2c0.3,0.1,0.6,0.1,0.9,0.1c0.3,0,0.4-0.2,0.4-0.5v-2.6c-0.4,0.2-0.8,0.3-1.3,0.4l-0.3-1.3
		c0.5-0.1,1.1-0.3,1.6-0.5v-2.5h-1.4v-1.3h1.4v-2.2h1.3v2.2h1.1v1.3h-1.1v2c0.4-0.2,0.7-0.3,1-0.5v1.3c-0.4,0.2-0.7,0.3-1,0.5v3.4
		c0,0.9-0.4,1.3-1.3,1.3L63.3,175.9L63.3,175.9z M66.9,176l-1-0.9c0.8-1.6,1.2-3.7,1.2-6.2v-4.2H74v3.3h-2.3v1.2h2.6v1.2h-2.6v1.2h2
		v4.3h-1.2v-0.5h-2.8v0.5h-1.2v-4.3h2v-1.2h-2.1C68.2,172.5,67.7,174.4,66.9,176z M68.4,168v0.8c0,0.1,0,0.2,0,0.3h2.1V168H68.4z
		 M68.4,165.9v1h4.4v-1H68.4z M72.5,174.3v-1.5h-2.8v1.5H72.5z"/>
</g>
<g id="RectEndPoint2_12_" transform="translate(179.01953125,177)">
	<g>
		<rect x="-165" y="24.3" class="st4" width="85.8" height="35.5"/>
		<rect x="-166.3" y="23" class="st5" width="85.8" height="35.5"/>
	</g>
</g>
<g class="st8">
	<path class="st9" d="M51.8,220.7c0.2,0.2,0.3,0.4,0.3,0.7c0,0.3-0.1,0.5-0.3,0.7c-0.2,0.2-0.4,0.3-0.7,0.3s-0.5-0.1-0.7-0.3
		c-0.2-0.2-0.3-0.4-0.3-0.7s0.1-0.5,0.3-0.7c0.2-0.2,0.4-0.3,0.7-0.3S51.6,220.6,51.8,220.7z M56,220.7c0.2,0.2,0.3,0.4,0.3,0.7
		c0,0.3-0.1,0.5-0.3,0.7c-0.2,0.2-0.4,0.3-0.7,0.3s-0.5-0.1-0.7-0.3c-0.2-0.2-0.3-0.4-0.3-0.7s0.1-0.5,0.3-0.7
		c0.2-0.2,0.4-0.3,0.7-0.3C55.6,220.5,55.9,220.6,56,220.7z M60.3,220.7c0.2,0.2,0.3,0.4,0.3,0.7c0,0.3-0.1,0.5-0.3,0.7
		s-0.4,0.3-0.7,0.3s-0.5-0.1-0.7-0.3s-0.3-0.4-0.3-0.7s0.1-0.5,0.3-0.7s0.4-0.3,0.7-0.3S60.1,220.6,60.3,220.7z"/>
</g>
<g id="RectEndPoint2_14_" transform="translate(179.01953125,177)">
	<g>
		<rect x="299.5" y="-163.6" class="st4" width="114.9" height="35.5"/>
		<rect x="297.7" y="-165" class="st5" width="114.9" height="35.5"/>
	</g>
</g>
<g class="st8">
	<path class="st9" d="M495.6,30c-0.1,0.2-0.1,0.4-0.2,0.6h2.5v1.1c-0.2,0.7-0.6,1.4-1.1,1.9c0.5,0.2,1,0.4,1.4,0.7l-0.7,1
		c-0.5-0.3-1.1-0.6-1.7-0.9c-0.8,0.5-1.9,0.9-3.1,1.3l-0.6-1.1c0.9-0.2,1.7-0.5,2.4-0.8c-0.5-0.2-1-0.4-1.6-0.6
		c0.3-0.5,0.6-1,0.8-1.5h-1.3v-1.1h1.8c0.1-0.3,0.2-0.5,0.3-0.7L495.6,30z M494.7,26.3V24h1.2v2.3h2.1v1.1h-2.1v0
		c0.7,0.3,1.3,0.6,2,0.9l-0.7,1c-0.5-0.4-1-0.7-1.3-1v1.3h-1.2v-2c-0.4,0.9-1.1,1.6-2,2.3l-0.7-1.1c0.8-0.5,1.4-1,1.8-1.5h-1.5v-1.1
		C492.4,26.3,494.7,26.3,494.7,26.3z M494.3,25.7l-0.9,0.4c-0.3-0.6-0.5-1.1-0.8-1.6l1-0.3C493.8,24.7,494.1,25.2,494.3,25.7z
		 M496.8,31.7h-1.9c-0.2,0.3-0.3,0.6-0.5,0.9c0.4,0.1,0.8,0.3,1.2,0.4C496.1,32.7,496.5,32.2,496.8,31.7z M498,24.6
		c-0.3,0.5-0.6,1-1,1.6l-0.9-0.5c0.4-0.5,0.7-1,1-1.5L498,24.6z M499.3,29.4c-0.2,0.4-0.4,0.8-0.6,1.2l-0.8-1
		c0.7-1.4,1.2-3.2,1.4-5.6l1.3,0.2c-0.1,0.6-0.2,1.1-0.2,1.6h3.2v1.3h-0.7c-0.1,2-0.4,3.8-1.1,5.2c0.6,1,1.3,1.8,2.2,2.4l-0.7,1.1
		c-0.8-0.6-1.5-1.3-2.1-2.3c-0.6,0.9-1.3,1.6-2.2,2.3l-0.7-1.1c0.9-0.6,1.6-1.4,2.2-2.4C499.9,31.4,499.6,30.5,499.3,29.4z
		 M499.9,27.6c0.3,1.2,0.6,2.4,1,3.3c0.4-1.1,0.6-2.4,0.6-3.8H500C500,27.3,499.9,27.4,499.9,27.6z"/>
	<path class="st9" d="M505.2,35.6l-0.3-1.2c0.3,0.1,0.6,0.1,0.9,0.1c0.3,0,0.4-0.2,0.4-0.5v-2.6c-0.4,0.2-0.8,0.3-1.3,0.4l-0.3-1.3
		c0.5-0.1,1.1-0.3,1.6-0.5v-2.5h-1.4v-1.3h1.4v-2.2h1.3v2.2h1.1v1.3h-1.1v2c0.4-0.2,0.7-0.3,1-0.5v1.3c-0.4,0.2-0.7,0.3-1,0.5v3.4
		c0,0.9-0.4,1.3-1.3,1.3L505.2,35.6L505.2,35.6z M508.8,35.7l-1-0.9c0.8-1.6,1.2-3.7,1.3-6.2v-4.2h6.9v3.3h-2.3v1.2h2.6v1.2h-2.6
		v1.2h2v4.3h-1.2v-0.5h-2.8v0.5h-1.2v-4.3h2v-1.2h-2.1C510.1,32.3,509.6,34.1,508.8,35.7z M510.3,27.8v0.8c0,0.1,0,0.2,0,0.3h2.1
		v-1.2H510.3z M510.3,25.6v1h4.4v-1H510.3z M514.5,34v-1.5h-2.8V34H514.5z"/>
	<path class="st9" d="M526.6,27.5v1.2c-0.8,0.6-1.7,1.1-2.6,1.6v0.5h4.8v1.3H524v2.2c0,0.8-0.4,1.3-1.3,1.3h-1.6l-0.3-1.2
		c0.4,0,0.9,0,1.4,0c0.3,0,0.4-0.2,0.4-0.6v-1.8h-5.1v-1.3h5.1v-1.1c0.8-0.4,1.5-0.8,2-1.1h-5v-1.2L526.6,27.5L526.6,27.5z
		 M528.6,28.2h-1.3v-1.8H519v1.8h-1.3v-3h4.8c-0.2-0.4-0.4-0.7-0.6-1.1l1.5-0.3c0.2,0.4,0.4,0.8,0.5,1.3h4.7L528.6,28.2L528.6,28.2z
		"/>
	<path class="st9" d="M540.5,31.4h1.1v1.3h-11.6v-1.3h1.1v-5.9h2.7V24h1.2v1.5h1.5V24h1.3v1.5h2.7V31.4z M534.7,33.7
		c-1.1,0.9-2.4,1.6-4,2.2l-0.6-1.2c1.5-0.5,2.8-1.1,3.7-1.9L534.7,33.7z M533.8,28.4v-1.7h-1.4v1.7H533.8z M533.8,31.4v-1.8h-1.4
		v1.8H533.8z M535,28.4h1.5v-1.7H535V28.4z M536.5,31.4v-1.8H535v1.8H536.5z M541.4,34.7l-0.7,1.1c-1.2-0.9-2.5-1.6-3.8-2.1l0.7-1
		C539,33.3,540.3,33.9,541.4,34.7z M537.8,28.4h1.4v-1.7h-1.4V28.4z M539.2,31.4v-1.8h-1.4v1.8H539.2z"/>
	<path class="st9" d="M545,27.4V26c-0.6,0.1-1.1,0.2-1.7,0.2l-0.4-1.2c2-0.2,3.5-0.5,4.7-0.9l0.6,1.1c-0.6,0.2-1.3,0.4-2,0.6v1.6h2
		v1.2h-2V29c0.7,0.6,1.4,1.3,2.1,2l-0.8,1.1c-0.5-0.8-1-1.4-1.4-1.9v5.2H545v-4.9c-0.5,1-1.1,1.9-1.9,2.8l-0.6-1.5
		c1.1-1,1.9-2.1,2.4-3.3v-0.1h-2.1v-1.2H545z M553.8,35.2h-1.3v-0.9h-2.6v1.1h-1.3V24.7h5.2L553.8,35.2L553.8,35.2z M552.5,33V26
		h-2.6V33H552.5z"/>
	<path class="st9" d="M559.2,32.9c-1.2,0.6-2.4,1-3.8,1.4l-0.3-1.4c0.5-0.1,1-0.2,1.5-0.4v-4.1h-1.3v-1.3h1.3v-3.2h1.3v3.2h1.2v1.3
		h-1.2v3.6c0.5-0.2,0.9-0.4,1.3-0.6L559.2,32.9L559.2,32.9z M566.3,31.2c-0.2,0.6-0.7,0.9-1.8,0.9h0l-0.4-1.3c0.3,0,0.5,0,0.7,0
		s0.3-0.1,0.4-0.4c0-0.2,0.1-1,0.1-2.4l-1.4,0.4V33h-1.3v-4.2l-1.4,0.4v4.5c0,0.3,0.2,0.5,0.6,0.5h3.3c0.2,0,0.3-0.1,0.4-0.3
		c0.1-0.2,0.2-0.7,0.2-1.6l1.2,0.4c-0.1,1.3-0.3,2.1-0.5,2.4c-0.2,0.2-0.6,0.4-1.1,0.4h-4c-1,0-1.5-0.5-1.5-1.5v-4.4l-0.8,0.2v-1.3
		l0.8-0.3v-3h1.3v2.6l1.4-0.4V24h1.3v3.1l2.7-0.8C566.5,29,566.5,30.6,566.3,31.2z"/>
	<path class="st9" d="M579,35.7h-1.3v-0.4h-8.1v0.4h-1.3V24.4H579V35.7z M577.7,34.1v-8.5h-8.1v8.5L577.7,34.1L577.7,34.1z
		 M573.4,25.9c-0.1,0.2-0.2,0.4-0.2,0.5h3.2v0.9c-0.3,0.6-0.8,1.1-1.4,1.6c0.8,0.3,1.6,0.6,2.6,0.8l-0.7,1c-1.2-0.3-2.1-0.7-3-1.1
		c-0.9,0.5-2.1,0.9-3.5,1.2l-0.6-1c1.2-0.2,2.2-0.4,3-0.8c-0.4-0.3-0.7-0.5-1-0.8c-0.3,0.3-0.7,0.6-1.1,0.8l-0.7-1
		c1.1-0.6,1.8-1.4,2.2-2.2L573.4,25.9z M576.3,33l-0.4,1.1c-1.6-0.6-3.2-1-4.9-1.3l0.5-1C573.2,32.1,574.8,32.5,576.3,33z
		 M575.6,31.1L575,32c-0.9-0.5-1.8-0.8-2.8-1.1l0.6-0.9C573.8,30.4,574.7,30.7,575.6,31.1z M575.1,27.3h-2.5c0,0,0,0,0,0
		c0.4,0.4,0.9,0.7,1.4,1C574.4,28,574.8,27.7,575.1,27.3z"/>
</g>
<g id="RectEndPoint2_13_" transform="translate(179.01953125,177)">
	<g>
		<rect x="299.5" y="-117.4" class="st4" width="114.9" height="35.5"/>
		<rect x="297.7" y="-118.7" class="st5" width="114.9" height="35.5"/>
	</g>
</g>
<g class="st8">
	<path class="st9" d="M502.6,80.2h0.8v1.3h-11v-1.3h0.8v-8.1h3.1c0.2-0.6,0.4-1.2,0.5-1.8l1.5,0.2c-0.1,0.6-0.3,1.1-0.5,1.6h4.8
		V80.2z M495.9,80.2v-6.8h-1.3v6.8H495.9z M498.6,80.2v-6.8h-1.4v6.8H498.6z M501.2,80.2v-6.8h-1.4v6.8H501.2z"/>
	<path class="st9" d="M507.7,70.7c-0.5,1.5-1.1,2.7-1.6,3.6c0.4-0.1,0.7-0.1,1.1-0.2c0.2-0.5,0.4-1,0.7-1.5l1.1,0.4
		c-0.9,1.9-1.7,3.4-2.3,4.3c0.6-0.2,1.2-0.4,1.8-0.6V78c-1.2,0.5-2.4,0.9-3.4,1l-0.4-1.2c0.2-0.1,0.4-0.2,0.6-0.4
		c0.3-0.4,0.7-1,1.2-2c-0.5,0.1-1.1,0.2-1.7,0.4l-0.4-1.3c0.2-0.1,0.4-0.3,0.6-0.5c0.5-1.1,0.9-2.3,1.3-3.7L507.7,70.7z M508.6,80.3
		c1.4-0.5,2.7-1.1,3.7-1.9c-0.1-0.2-0.1-0.4-0.2-0.6c-0.8,0.6-1.7,1.1-2.7,1.5l-0.6-0.9c1.1-0.3,2-0.8,2.9-1.4
		c-0.1-0.2-0.2-0.3-0.3-0.4c-0.6,0.3-1.2,0.6-2,0.9l-0.6-1c1.1-0.3,2-0.7,2.6-1h-2.4v-1.1h4.2l0.2-0.5h-3.8l1.3-3.5l1.3,0.2
		l-0.2,0.6h3.5v0.5l-0.9,2.7h1.8v1.1h-3.4c-0.2,0.2-0.4,0.4-0.6,0.5c0.3,0.4,0.6,0.7,0.8,1.1c0.7-0.4,1.4-0.9,2-1.5l0.8,0.8
		c-0.4,0.4-0.7,0.7-1.1,1c0.4,1.3,1,2.3,1.7,2.9l-0.9,1c-0.7-0.8-1.3-1.9-1.7-3.3c-0.1,0.1-0.3,0.1-0.4,0.2c0.2,0.5,0.3,1.1,0.3,1.7
		c0,0.8-0.1,1.3-0.3,1.6c-0.3,0.3-0.8,0.5-1.7,0.5h-0.6l-0.4-1.1h0.8c0.4,0,0.6-0.1,0.7-0.2c0.1-0.2,0.2-0.4,0.2-0.8
		c0-0.1,0-0.2,0-0.3c-1,0.8-2.1,1.5-3.4,1.9l-0.6-0.9c-1.1,0.5-2.3,0.8-3.7,1.1l-0.2-1.3c1.5-0.3,2.8-0.6,3.9-1.1L508.6,80.3
		L508.6,80.3z M513.9,72h-2.5l-0.3,0.7h2.5L513.9,72z"/>
	<path class="st9" d="M519.7,73.6v-1.4c-0.6,0.1-1.1,0.2-1.7,0.2l-0.4-1.2c2-0.2,3.5-0.5,4.7-0.9l0.6,1.1c-0.6,0.2-1.3,0.4-2,0.6
		v1.6h2v1.2h-2v0.5c0.7,0.6,1.4,1.3,2.1,2l-0.8,1.2c-0.5-0.8-1-1.4-1.4-1.9v5.2h-1.3v-4.9c-0.5,1-1.1,1.9-1.9,2.8l-0.6-1.5
		c1.1-1,1.9-2.1,2.4-3.3v-0.1h-2.1v-1.2H519.7z M528.5,81.4h-1.3v-0.9h-2.6v1.1h-1.3V71h5.2V81.4z M527.2,79.3v-7.1h-2.6v7.1
		L527.2,79.3L527.2,79.3z"/>
	<path class="st9" d="M531.9,79.7c-0.3,0.8-0.7,1.5-1.2,2.1l-0.9-0.7c0.4-0.5,0.8-1.2,1.1-1.9L531.9,79.7z M536.3,70.7v3.6h-2.4
		l0.1,0.6h2.8v1H530v-1h2.8l-0.1-0.6h-2v-3.6H536.3z M536.2,76.4V79h-2.1v1.8c0,0.7-0.4,1.1-1.1,1.1h-0.9l-0.3-1.1
		c0.3,0,0.5,0.1,0.7,0.1c0.2,0,0.3-0.1,0.3-0.3V79h-2.1v-2.6L536.2,76.4L536.2,76.4z M535.1,72.1v-0.6h-3.3v0.6H535.1z M535.1,72.9
		h-3.3v0.5h3.3V72.9z M535,77.3h-3.1v0.8h3.1V77.3z M536.5,80.9l-0.9,0.6c-0.2-0.5-0.6-1.1-1-1.8l0.9-0.6
		C535.9,79.9,536.3,80.4,536.5,80.9z M541.7,77.7c-1,2-2.6,3.4-4.6,4.3l-0.5-1.2c1.8-0.8,3.2-2.1,4.1-3.8L541.7,77.7z M541.1,71.2
		c-1,1-2.3,1.9-3.8,2.6l-0.5-1.1c1.4-0.6,2.6-1.4,3.5-2.4L541.1,71.2z M541.4,74.6c-1.1,1.2-2.3,2.1-3.9,2.9l-0.5-1.1
		c1.5-0.7,2.7-1.6,3.6-2.7L541.4,74.6z"/>
	<path class="st9" d="M546.4,80.7h-1.3v-0.7h-0.9v1h-1.3v-9.8h3.5V80.7z M545.1,78.8v-6.4h-0.9v6.4H545.1z M551,70.4
		c-0.1,0.5-0.2,1-0.4,1.5h3.2V80c0,1.2-0.5,1.8-1.4,1.8h-1.4l-0.3-1.3l1.3,0c0.4,0,0.5-0.3,0.5-0.9v-6.7h-4.4v8.8h-1.3V71.8h2.3
		c0.1-0.5,0.2-1.1,0.3-1.7L551,70.4z M551.9,74.1v5.2h-3v-5.2H551.9z M550.8,75.2H550v3.1h0.8V75.2z"/>
	<path class="st9" d="M560.2,71.2c-0.6,1-1.2,1.9-1.8,2.6c-0.6,0.7-1.4,1.4-2.5,2.2l-0.7-1.2c0.8-0.4,1.5-1,2.2-1.8
		c0.6-0.7,1.1-1.5,1.6-2.4L560.2,71.2z M557.1,76.4v-1.3h7.7c-0.1,1.6-0.1,3-0.3,4c-0.1,1-0.3,1.7-0.6,2.1c-0.3,0.4-0.8,0.6-1.4,0.6
		h-2.4l-0.4-1.3c0.7,0,1.5,0.1,2.1,0.1c0.6,0,1-0.3,1.2-0.8c0.2-0.5,0.3-1.7,0.4-3.4h-2.7c-0.3,1.3-0.7,2.3-1.2,3.1
		c-0.7,0.9-1.6,1.8-2.9,2.5l-0.9-1.1c1.1-0.6,2-1.3,2.6-2c0.4-0.6,0.8-1.5,1-2.5L557.1,76.4L557.1,76.4z M566.9,74.8l-0.9,1
		c-1.9-1.3-3.3-2.9-4.1-4.9l1.1-0.6C563.7,72.2,565,73.7,566.9,74.8z"/>
	<path class="st9" d="M571,82h-1.3v-5.8c-0.4,1.1-0.9,2-1.4,2.9l-0.6-1.5c0.9-1.1,1.5-2.3,1.9-3.8H568v-1.3h1.7v-2.3h1.3v2.3h1.6
		v1.3H571v0.5c0.6,0.6,1.1,1.2,1.7,1.9l-0.7,1.1c-0.4-0.6-0.7-1.1-1-1.5L571,82L571,82z M579.1,71.5c-1.4,0.5-3,0.7-4.7,0.8v1.9h5
		v1.3h-1.7V82h-1.3v-6.5h-1.9c-0.1,2.7-0.8,4.8-2,6.4l-0.9-1c1-1.3,1.6-3.2,1.6-5.5v-4.2c2-0.1,3.8-0.3,5.3-0.9L579.1,71.5z"/>
</g>
<g id="RectEndPoint2_7_" transform="translate(179.01953125,177)">
	<g>
		<rect x="299.5" y="-71.1" class="st4" width="114.9" height="35.5"/>
		<rect x="297.7" y="-72.5" class="st5" width="114.9" height="35.5"/>
	</g>
</g>
<g class="st8">
	<path class="st9" d="M516,120.8v1.3h-3.3v4.3c0,0.3,0.1,0.5,0.4,0.5h1.4c0.2,0,0.3-0.1,0.4-0.3c0.1-0.2,0.2-0.8,0.2-1.8l1.2,0.4
		c-0.1,1.4-0.3,2.3-0.5,2.5c-0.2,0.3-0.6,0.4-1,0.4h-2c-0.9,0-1.3-0.5-1.3-1.4v-4.5h-1.9v0.3c-0.1,1.6-0.4,2.9-1.1,3.9
		c-0.6,0.9-1.6,1.6-3.1,2.1l-0.7-1.1c1.4-0.5,2.3-1.1,2.8-1.8c0.5-0.8,0.7-1.8,0.8-3v-0.3h-3.1v-1.3H516z M514.9,117.1v1.3h-8.8
		v-1.3H514.9z"/>
	<path class="st9" d="M520.9,122.6c-0.1,0.2-0.1,0.4-0.2,0.6h2.5v1.1c-0.2,0.7-0.6,1.4-1.1,1.9c0.5,0.2,1,0.4,1.4,0.7l-0.7,1
		c-0.5-0.3-1.1-0.6-1.7-0.9c-0.8,0.5-1.9,0.9-3.1,1.3l-0.6-1.1c0.9-0.2,1.7-0.5,2.4-0.8c-0.5-0.2-1-0.4-1.6-0.6
		c0.3-0.5,0.6-1,0.8-1.5h-1.3v-1.1h1.8c0.1-0.3,0.2-0.5,0.3-0.7L520.9,122.6z M520,118.9v-2.3h1.2v2.3h2.1v1.1h-2.1v0
		c0.7,0.3,1.3,0.6,2,0.9l-0.7,1c-0.5-0.4-1-0.7-1.3-1v1.3H520v-2c-0.4,0.9-1.1,1.6-2,2.3l-0.7-1.1c0.8-0.5,1.4-1,1.8-1.5h-1.5v-1.1
		L520,118.9L520,118.9z M519.6,118.3l-0.9,0.4c-0.3-0.6-0.5-1.1-0.8-1.6l1-0.3C519.1,117.2,519.4,117.7,519.6,118.3z M522.1,124.3
		h-1.9c-0.2,0.3-0.3,0.6-0.5,0.9c0.4,0.1,0.8,0.3,1.2,0.4C521.4,125.2,521.8,124.8,522.1,124.3z M523.3,117.2c-0.3,0.5-0.6,1-1,1.6
		l-0.9-0.5c0.4-0.5,0.7-1,1-1.5L523.3,117.2z M524.6,122c-0.2,0.4-0.4,0.8-0.6,1.2l-0.8-1c0.7-1.4,1.2-3.2,1.4-5.6l1.3,0.2
		c-0.1,0.6-0.2,1.1-0.2,1.6h3.2v1.3h-0.7c-0.1,2-0.4,3.8-1.1,5.2c0.6,1,1.3,1.8,2.2,2.4l-0.7,1.1c-0.8-0.6-1.5-1.3-2.1-2.3
		c-0.6,0.9-1.3,1.6-2.2,2.3l-0.7-1.1c0.9-0.6,1.6-1.4,2.2-2.4C525.2,124,524.9,123,524.6,122z M525.2,120.1c0.3,1.2,0.6,2.3,1,3.3
		c0.4-1.1,0.6-2.4,0.6-3.8h-1.5C525.3,119.8,525.2,120,525.2,120.1z"/>
	<path class="st9" d="M530.5,128.1l-0.3-1.2c0.3,0.1,0.6,0.1,0.9,0.1c0.3,0,0.4-0.2,0.4-0.5V124c-0.4,0.2-0.8,0.3-1.3,0.4l-0.3-1.3
		c0.5-0.1,1.1-0.3,1.6-0.5v-2.5h-1.4v-1.3h1.4v-2.2h1.3v2.2h1.1v1.3h-1.1v2c0.4-0.2,0.7-0.3,1-0.5v1.3c-0.4,0.2-0.7,0.3-1,0.5v3.4
		c0,0.9-0.4,1.3-1.3,1.3L530.5,128.1L530.5,128.1z M534.1,128.3l-1-0.9c0.8-1.6,1.2-3.7,1.3-6.2V117h6.9v3.3H539v1.2h2.6v1.2H539
		v1.2h2v4.3h-1.2v-0.5h-2.8v0.5h-1.2v-4.3h2v-1.2h-2.1C535.4,124.8,534.9,126.7,534.1,128.3z M535.6,120.3v0.8c0,0.1,0,0.2,0,0.3
		h2.1v-1.2H535.6z M535.6,118.2v1h4.4v-1H535.6z M539.8,126.6v-1.5h-2.8v1.5H539.8z"/>
	<path class="st9" d="M543.9,119.8l-1.1-0.7c0.7-0.8,1.2-1.6,1.5-2.5l1.3,0.3c-0.1,0.2-0.1,0.4-0.2,0.6h3.1v1.2h-1.8
		c0.2,0.3,0.4,0.6,0.5,0.8l-1.2,0.5c-0.2-0.5-0.4-0.9-0.7-1.3h-0.5C544.5,119,544.2,119.4,543.9,119.8z M553.9,122.4h-1.3V121h-8.3
		v1.4H543v-2.5h4.8c-0.1-0.2-0.2-0.4-0.3-0.6l1.1-0.2l-0.3-0.2c0.6-0.8,1-1.6,1.3-2.4l1.3,0.3c-0.1,0.2-0.1,0.4-0.2,0.6h3.5v1.2h-2
		c0.2,0.3,0.3,0.5,0.5,0.7l-1.2,0.4c-0.2-0.4-0.4-0.8-0.7-1.2h-0.6c-0.2,0.4-0.5,0.8-0.7,1.1l-0.6-0.4c0.1,0.2,0.2,0.4,0.2,0.6h4.8
		L553.9,122.4L553.9,122.4z M552.2,124.2h-6.1v0.6h6.7v3.4h-1.3v-0.4h-5.4v0.4h-1.3v-6.7h7.4L552.2,124.2L552.2,124.2z M550.9,123.2
		v-0.6h-4.8v0.6H550.9z M551.4,126.7v-0.8h-5.4v0.8H551.4z"/>
	<path class="st9" d="M556.7,121.1v-2.6h-1.4v-1.3h4.1v1.3h-1.4v2.6h1.2v1.3h-1.2v2.4c0.4-0.1,0.8-0.3,1.2-0.5v1.3
		c-1.2,0.5-2.4,0.8-3.7,1.1l-0.3-1.3c0.5-0.1,1-0.2,1.5-0.3v-2.8h-1.2v-1.3H556.7z M566.3,117v6.1h-2.6v1.2h2.7v1.2h-2.7v1.2h3.1
		v1.3h-7.7v-1.3h3.2v-1.2h-2.7v-1.2h2.7v-1.2h-2.6V117H566.3z M562.4,119.5v-1.3h-1.3v1.3H562.4z M562.4,120.6h-1.3v1.3h1.3V120.6z
		 M563.8,119.5h1.3v-1.3h-1.3V119.5z M565.1,120.6h-1.3v1.3h1.3V120.6z"/>
</g>
<g id="RectEndPoint2_6_" transform="translate(179.01953125,177)">
	<g>
		<rect x="299.5" y="-23.4" class="st4" width="114.9" height="35.5"/>
		<rect x="297.7" y="-24.8" class="st5" width="114.9" height="35.5"/>
	</g>
</g>
<g class="st8">
	<path class="st9" d="M508.2,170.3c-0.1,0.2-0.1,0.4-0.2,0.6h2.5v1.1c-0.2,0.7-0.6,1.4-1.1,1.9c0.5,0.2,1,0.4,1.4,0.7l-0.7,1
		c-0.5-0.3-1.1-0.6-1.7-0.9c-0.8,0.5-1.9,0.9-3.1,1.3l-0.6-1.1c0.9-0.2,1.7-0.5,2.4-0.8c-0.5-0.2-1-0.4-1.6-0.6
		c0.3-0.5,0.6-1,0.8-1.5H505v-1.1h1.8c0.1-0.3,0.2-0.5,0.3-0.7L508.2,170.3z M507.4,166.6v-2.3h1.2v2.3h2.1v1.1h-2.1v0
		c0.7,0.3,1.3,0.6,2,0.9l-0.7,1c-0.5-0.4-1-0.7-1.3-1v1.3h-1.2v-2c-0.4,0.9-1.1,1.6-2,2.3l-0.7-1.1c0.8-0.5,1.4-1,1.8-1.5H505v-1.1
		L507.4,166.6L507.4,166.6z M506.9,166l-0.9,0.4c-0.3-0.6-0.5-1.1-0.8-1.6l1-0.3C506.5,164.9,506.7,165.4,506.9,166z M509.4,172
		h-1.9c-0.2,0.3-0.3,0.6-0.5,0.9c0.4,0.1,0.8,0.3,1.2,0.4C508.8,172.9,509.2,172.5,509.4,172z M510.7,164.9c-0.3,0.5-0.6,1-1,1.6
		l-0.9-0.5c0.4-0.5,0.7-1,1-1.5L510.7,164.9z M511.9,169.7c-0.2,0.4-0.4,0.8-0.6,1.2l-0.8-1c0.7-1.4,1.2-3.2,1.4-5.6l1.3,0.2
		c-0.1,0.6-0.2,1.1-0.2,1.6h3.2v1.3h-0.7c-0.1,2-0.4,3.8-1.1,5.2c0.6,1,1.3,1.8,2.2,2.4l-0.7,1.1c-0.8-0.6-1.5-1.3-2.1-2.3
		c-0.6,0.9-1.3,1.6-2.2,2.3l-0.7-1.1c0.9-0.6,1.6-1.4,2.2-2.4C512.6,171.7,512.2,170.7,511.9,169.7z M512.6,167.9
		c0.3,1.2,0.6,2.4,1,3.3c0.4-1.1,0.6-2.4,0.6-3.8h-1.5C512.6,167.5,512.6,167.7,512.6,167.9z"/>
	<path class="st9" d="M517.9,175.9l-0.3-1.2c0.3,0.1,0.6,0.1,0.9,0.1c0.3,0,0.4-0.2,0.4-0.5v-2.6c-0.4,0.2-0.8,0.3-1.3,0.4l-0.3-1.3
		c0.5-0.1,1.1-0.3,1.6-0.5v-2.5h-1.4v-1.3h1.4v-2.2h1.3v2.2h1.1v1.3h-1.1v2c0.4-0.2,0.7-0.3,1-0.5v1.3c-0.4,0.2-0.7,0.3-1,0.5v3.4
		c0,0.9-0.4,1.3-1.3,1.3L517.9,175.9L517.9,175.9z M521.5,176l-1-0.9c0.8-1.6,1.2-3.7,1.3-6.2v-4.2h6.9v3.3h-2.3v1.2h2.6v1.2h-2.6
		v1.2h2v4.3h-1.2v-0.5h-2.8v0.5h-1.2v-4.3h2v-1.2h-2.1C522.8,172.5,522.3,174.4,521.5,176z M523,168v0.8c0,0.1,0,0.2,0,0.3h2.1V168
		H523z M523,165.9v1h4.4v-1H523z M527.2,174.3v-1.5h-2.8v1.5H527.2z"/>
	<path class="st9" d="M532.4,169.1c-0.1,2.8-0.6,5.1-1.6,6.8l-0.9-1c0.8-1.4,1.2-3.3,1.3-5.8v-4c3.4,0,6.4-0.3,9.1-0.8l0.6,1.2
		c-2.5,0.4-5.3,0.7-8.5,0.7v0.8h3.9l0.1-0.9l1.3,0.2c0,0.3-0.1,0.5-0.1,0.8h3.8v1.2h-4l-0.2,0.8h3.2v4.4h-1.3v-3.2h-4.6v3.2h-1.3
		V169h2.6l0.2-0.8h-3.7V169.1z M537.8,170.7c-0.2,1.5-0.6,2.6-1.4,3.4c-0.8,0.8-2,1.4-3.7,1.9l-0.7-1.2c1.5-0.4,2.5-0.8,3.2-1.5
		c0.7-0.6,1.1-1.5,1.2-2.7L537.8,170.7z M541.5,174.8l-0.7,1.1c-1.2-0.8-2.4-1.5-3.7-1.9l0.7-1C539.1,173.5,540.3,174.1,541.5,174.8
		z"/>
	<path class="st9" d="M554.1,168.2v0.9h-11.4v-0.9H554.1z M553,169.6v3.3h-3.9v0.5h4.1v0.8h-4.1v0.5h5.1v1h-11.4v-1h5v-0.5h-4.1
		v-0.8h4.1v-0.5h-3.9v-3.3L553,169.6L553,169.6z M552.7,164.5v3.2h-8.5v-3.2H552.7z M547.8,170.9v-0.5h-2.6v0.5H547.8z M547.8,171.6
		h-2.6v0.5h2.6V171.6z M551.5,165.7v-0.5h-6v0.5H551.5z M551.5,166.5h-6v0.5h6V166.5z M549.1,170.9h2.7v-0.5h-2.7V170.9z
		 M551.7,171.6h-2.7v0.5h2.7V171.6z"/>
	<path class="st9" d="M558.9,165.6c1.5,0,2.6,0.4,3.3,1.2c0.7,0.8,1.1,1.9,1.1,3.3c0,1.4-0.4,2.5-1.1,3.3c-0.8,0.8-1.9,1.2-3.3,1.2
		h-3.3v-9H558.9z M557.1,173.4h1.5c1.1,0,1.9-0.3,2.5-0.8c0.5-0.5,0.8-1.4,0.8-2.5c0-1.1-0.3-2-0.8-2.5c-0.5-0.5-1.3-0.8-2.5-0.8
		h-1.5V173.4z"/>
	<path class="st9" d="M572,166.8c0.8,0.8,1.1,2,1.1,3.4c0,1.4-0.4,2.5-1.1,3.3c0.3,0.4,0.7,0.9,1,1.4l-1,0.8c-0.3-0.5-0.7-1-1-1.4
		c-0.7,0.4-1.5,0.6-2.4,0.6c-1.4,0-2.5-0.5-3.3-1.3c-0.8-0.9-1.1-2-1.1-3.3c0-1.4,0.4-2.5,1.1-3.3c0.8-0.9,1.9-1.4,3.3-1.4
		C570.1,165.5,571.2,165.9,572,166.8z M566.6,167.7c-0.5,0.6-0.7,1.4-0.7,2.5c0,1,0.2,1.8,0.7,2.4c0.5,0.6,1.2,0.9,2.2,0.9
		c0.6,0,1.1-0.1,1.5-0.4c-0.5-0.6-0.9-1-1.3-1.5l0.9-0.8c0.4,0.5,0.9,1,1.3,1.5c0.3-0.6,0.5-1.3,0.5-2.1c0-1.1-0.3-1.9-0.7-2.5
		c-0.5-0.6-1.2-0.9-2.2-0.9C567.8,166.8,567.1,167.1,566.6,167.7z"/>
</g>
<g id="RectEndPoint2_5_" transform="translate(179.01953125,177)">
	<g>
		<rect x="299.5" y="24.3" class="st4" width="114.9" height="35.5"/>
		<rect x="297.7" y="23" class="st5" width="114.9" height="35.5"/>
	</g>
</g>
<g class="st8">
	<path class="st9" d="M530.5,220.7c0.2,0.2,0.3,0.4,0.3,0.7c0,0.3-0.1,0.5-0.3,0.7c-0.2,0.2-0.4,0.3-0.7,0.3c-0.3,0-0.5-0.1-0.7-0.3
		c-0.2-0.2-0.3-0.4-0.3-0.7s0.1-0.5,0.3-0.7c0.2-0.2,0.4-0.3,0.7-0.3C530,220.5,530.3,220.6,530.5,220.7z M534.7,220.7
		c0.2,0.2,0.3,0.4,0.3,0.7c0,0.3-0.1,0.5-0.3,0.7c-0.2,0.2-0.4,0.3-0.7,0.3s-0.5-0.1-0.7-0.3c-0.2-0.2-0.3-0.4-0.3-0.7
		s0.1-0.5,0.3-0.7c0.2-0.2,0.4-0.3,0.7-0.3S534.5,220.6,534.7,220.7z M538.9,220.7c0.2,0.2,0.3,0.4,0.3,0.7c0,0.3-0.1,0.5-0.3,0.7
		s-0.4,0.3-0.7,0.3c-0.3,0-0.5-0.1-0.7-0.3s-0.3-0.4-0.3-0.7s0.1-0.5,0.3-0.7s0.4-0.3,0.7-0.3C538.5,220.5,538.7,220.6,538.9,220.7z
		"/>
</g>
<g class="st8">
	<path class="st10" d="M295.7,30.2c-0.1,0.2-0.1,0.4-0.2,0.5h2.4v1c-0.2,0.7-0.6,1.3-1.1,1.8c0.5,0.2,0.9,0.4,1.4,0.7l-0.7,1
		c-0.5-0.3-1-0.6-1.7-0.9c-0.8,0.5-1.8,0.9-3,1.2l-0.6-1c0.9-0.2,1.6-0.4,2.2-0.7c-0.5-0.2-1-0.4-1.5-0.6c0.3-0.5,0.5-0.9,0.8-1.4
		h-1.2v-1.1h1.7c0.1-0.2,0.2-0.5,0.2-0.7L295.7,30.2z M294.8,26.7v-2.2h1.2v2.2h2v1.1h-2v0c0.6,0.3,1.3,0.5,1.9,0.9l-0.6,1
		c-0.5-0.4-0.9-0.7-1.3-0.9V30h-1.2v-1.9c-0.4,0.8-1,1.5-1.9,2.1l-0.6-1c0.8-0.4,1.4-0.9,1.7-1.5h-1.4v-1.1L294.8,26.7L294.8,26.7z
		 M294.4,26.2l-0.9,0.4c-0.2-0.6-0.5-1.1-0.8-1.5l1-0.3C294,25.2,294.2,25.6,294.4,26.2z M296.8,31.8H295c-0.2,0.3-0.3,0.6-0.5,0.9
		c0.4,0.1,0.8,0.3,1.2,0.4C296.2,32.8,296.5,32.3,296.8,31.8z M298,25.1c-0.2,0.5-0.5,1-0.9,1.5l-0.9-0.4c0.4-0.5,0.7-1,0.9-1.5
		L298,25.1z M299.2,29.7c-0.2,0.4-0.4,0.8-0.6,1.1l-0.8-1c0.7-1.3,1.1-3.1,1.3-5.3l1.2,0.2c-0.1,0.5-0.1,1-0.2,1.5h3v1.2h-0.7
		c-0.1,1.9-0.4,3.6-1.1,4.9c0.6,1,1.3,1.7,2.1,2.3l-0.7,1c-0.7-0.6-1.4-1.3-2-2.2c-0.6,0.8-1.3,1.6-2.1,2.1l-0.6-1.1
		c0.9-0.6,1.6-1.3,2.1-2.2C299.8,31.6,299.4,30.7,299.2,29.7z M299.8,27.9c0.3,1.2,0.6,2.2,1,3.1c0.4-1.1,0.6-2.3,0.6-3.6h-1.5
		C299.8,27.6,299.8,27.8,299.8,27.9z"/>
	<path class="st10" d="M304.8,35.5l-0.3-1.2c0.3,0,0.6,0.1,0.9,0.1c0.3,0,0.4-0.2,0.4-0.5v-2.4c-0.4,0.1-0.8,0.3-1.2,0.4l-0.3-1.2
		c0.5-0.1,1-0.3,1.5-0.4v-2.4h-1.3v-1.2h1.3v-2.1h1.2v2.1h1v1.2h-1v1.9c0.3-0.2,0.7-0.3,1-0.5v1.2c-0.3,0.2-0.7,0.3-1,0.5v3.3
		c0,0.8-0.4,1.2-1.2,1.2H304.8z M308.3,35.7l-1-0.9c0.8-1.5,1.2-3.5,1.2-5.9v-4h6.6v3.2h-2.2v1.1h2.4v1.1h-2.4v1.1h1.9v4.1h-1.2
		v-0.5h-2.7v0.5h-1.2v-4.1h1.9v-1.1h-2C309.5,32.4,309,34.1,308.3,35.7z M309.7,28.1v0.8c0,0.1,0,0.2,0,0.3h2v-1.1H309.7z
		 M309.7,26.1V27h4.1v-0.9H309.7z M313.6,34v-1.4h-2.7V34H313.6z"/>
	<path class="st10" d="M322.3,24.6c1.5,1.7,3.2,3,5.1,4l-0.6,1.1c-1.9-1-3.6-2.4-4.9-4c-1.2,1.5-2.9,2.9-5,4l-0.6-1.1
		c2.1-1.1,3.8-2.4,5.1-4H322.3z M320,29.9v3.8c0,0.4,0.2,0.7,0.6,0.7h3.2c0.7,0,1.1-0.1,1.3-0.3c0.2-0.2,0.3-0.7,0.4-1.5l1.2,0.4
		c-0.1,1.2-0.4,2-0.7,2.2c-0.3,0.2-0.9,0.3-1.8,0.3H320c-0.9,0-1.3-0.5-1.3-1.4v-5.4h6.2v2.9c0,0.8-0.4,1.3-1.1,1.3
		c-0.6,0-1.2,0-1.7,0l-0.3-1.2c0.6,0,1.1,0.1,1.5,0.1c0.3,0,0.4-0.2,0.4-0.6v-1.3H320z"/>
	<path class="st10" d="M335,25.5h4.2v1.2h-8.7v2.5c0,2.7-0.4,4.8-1.1,6.4l-1.1-0.9c0.6-1.3,0.9-3.1,0.9-5.5v-3.7h4.4
		c-0.2-0.3-0.3-0.6-0.5-0.8l1.4-0.2C334.6,24.8,334.8,25.1,335,25.5z M334.5,27.1c-0.1,0.2-0.2,0.5-0.2,0.7h4.5v1.1h-4.9
		c-0.3,0.6-0.6,1.2-0.9,1.7h1.7v-1.3h1.2v1.3h2.6v1.1h-2.6v1h3.4v1.1h-3.4v1.8h-1.2v-1.8h-4.1v-1.1h4.1v-1h-3l-0.3-1.1
		c0.4-0.5,0.7-1.1,1.1-1.8H331v-1.1h2c0.1-0.3,0.2-0.7,0.3-1L334.5,27.1z"/>
	<path class="st10" d="M351.4,28l-0.6,1.2c-0.8-0.3-1.5-0.6-2.1-0.9v0.3h-4.8V29h5.4v1h-5.4v0.4h5.4v1h-5.4v0.4h7.2v1.1h-2.2
		c0.6,0.7,1.1,1.4,1.5,2.2l-1.1,0.5c-0.1-0.3-0.3-0.6-0.4-0.8c-2.1,0.3-4.4,0.5-6.7,0.6l-0.3-1c0.5,0,1.1-0.6,1.7-1.6h-2.9v-1.1h2.1
		v-3.3c-0.5,0.3-1.1,0.5-1.7,0.7l-0.6-1.1c1.4-0.4,2.5-1,3.4-1.6h-2.9v-1.1h4c0.2-0.3,0.4-0.6,0.5-0.9l1.2,0.1
		c-0.1,0.3-0.2,0.5-0.3,0.7h4.7v1.1h-2.8C348.9,27.2,350,27.7,351.4,28z M347.7,33.2l0.7-0.2H345c-0.4,0.6-0.7,1.1-1.1,1.5
		c1.5-0.1,3-0.3,4.4-0.5C348.1,33.6,347.9,33.4,347.7,33.2z M346.6,26.5h-1.2c-0.3,0.3-0.6,0.7-1,1h3.3
		C347.3,27.2,346.9,26.9,346.6,26.5z"/>
	<path class="st10" d="M356,25c-0.3,0.9-0.7,1.8-1.2,2.6v8h-1.2v-6.2c-0.3,0.4-0.6,0.8-1,1.1l-0.4-1.3c1.2-1.4,2.1-3,2.6-4.8L356,25
		z M358.1,25.5c-0.1,0.5-0.2,1-0.3,1.5h1.3v-2.4h1.3V27h2.6v1.2h-2.6v2.5h3.1v1.2h-3.1v3.8H359v-3.8h-3.3v-1.2h3.3v-2.5h-1.7
		c-0.3,0.7-0.7,1.4-1.1,2l-0.8-1c0.7-1,1.2-2.3,1.4-3.8L358.1,25.5z"/>
</g>
<g class="st8">
	<path class="st9" d="M670,25.4c-0.6,1-1.1,1.8-1.7,2.4c-0.6,0.6-1.3,1.3-2.4,2.1l-0.7-1.1c0.7-0.4,1.5-1,2.1-1.7
		c0.5-0.6,1.1-1.4,1.5-2.3L670,25.4z M667.1,30.4v-1.2h7.3c0,1.6-0.1,2.8-0.2,3.8c-0.1,1-0.3,1.6-0.6,2c-0.3,0.4-0.7,0.6-1.3,0.6
		h-2.3l-0.3-1.2c0.7,0,1.4,0,2,0c0.6,0,1-0.3,1.2-0.7c0.2-0.5,0.3-1.6,0.4-3.2h-2.6c-0.3,1.2-0.6,2.2-1.1,2.9
		c-0.6,0.9-1.5,1.7-2.8,2.4l-0.8-1c1.1-0.6,1.9-1.2,2.4-1.9c0.4-0.6,0.8-1.4,1-2.3L667.1,30.4L667.1,30.4z M676.3,28.8l-0.9,1
		c-1.8-1.2-3.1-2.7-3.9-4.6l1.1-0.6C673.3,26.4,674.5,27.8,676.3,28.8z"/>
	<path class="st9" d="M680.3,35.6H679v-5.5c-0.4,1-0.8,1.9-1.4,2.8l-0.5-1.4c0.8-1,1.4-2.2,1.8-3.6h-1.5v-1.2h1.6v-2.2h1.2v2.2h1.5
		V28h-1.5v0.5c0.6,0.6,1.1,1.1,1.6,1.8l-0.7,1c-0.4-0.6-0.7-1.1-0.9-1.4V35.6z M687.9,25.7c-1.3,0.4-2.8,0.7-4.5,0.8v1.8h4.7v1.2
		h-1.6v6.2h-1.3v-6.2h-1.8c-0.1,2.6-0.7,4.6-1.9,6.1l-0.9-0.9c1-1.3,1.5-3,1.5-5.3v-4c1.9,0,3.6-0.3,5-0.9L687.9,25.7z"/>
	<path class="st9" d="M695.9,25.6h4.3v1.2h-8.7v2.4c0,2.7-0.4,4.8-1.1,6.4l-1.1-0.9c0.6-1.3,0.9-3.1,0.9-5.5v-3.7h4.3
		c-0.2-0.3-0.3-0.6-0.5-0.9l1.4-0.2C695.5,24.8,695.7,25.2,695.9,25.6z M696.3,34c0.7-1.7,1.3-3.7,1.8-6.1l1.2,0.3
		c-0.5,2.1-1,4-1.7,5.7h2.3v1.2h-8.6V34H696.3z M694.2,32.8l-1.2,0.3c-0.3-1.5-0.7-2.9-1.2-4.3l1.1-0.4
		C693.4,29.8,693.9,31.2,694.2,32.8z M696.4,32.1l-1.2,0.3c-0.3-1.5-0.6-3-1-4.5l1.1-0.4C695.7,28.9,696,30.4,696.4,32.1z"/>
	<path class="st9" d="M702.2,35.6l-1-0.9c0.7-1,1.1-2.3,1.1-3.9v-5.9h9.3V34c0,0.9-0.5,1.4-1.4,1.4h-1.4l-0.3-1.2
		c0.5,0,0.9,0.1,1.3,0.1c0.4,0,0.6-0.2,0.6-0.7v-1.7h-2.9v3.4h-1.3v-3.4h-2.7C703.3,33.3,702.9,34.6,702.2,35.6z M703.6,26.1v1.7
		h2.6v-1.7H703.6z M703.6,30.7h2.6V29h-2.6V30.7z M710.3,26.1h-2.9v1.7h2.9V26.1z M710.3,29h-2.9v1.7h2.9V29z"/>
</g>
<g id="RectEndPoint2_8_" transform="translate(179.01953125,177)">
	<g>
		<rect x="487.9" y="-117.6" class="st4" width="149.6" height="46.2"/>
		<rect x="485.6" y="-119.4" class="st5" width="150.8" height="46.2"/>
	</g>
</g>
<g class="st8">
	<path class="st9" d="M714.3,82.8l-0.8-1.1v5.6h-1.4v-9.2h2.9c-0.2-0.5-0.4-0.9-0.6-1.3h-2.8v-1.4h5.4c-0.1-0.3-0.2-0.6-0.4-0.9
		l1.6-0.3c0.1,0.3,0.3,0.7,0.4,1.1h5.5v1.4h-2.9c-0.2,0.5-0.4,0.9-0.6,1.3h3v7.5c0,1.1-0.5,1.7-1.4,1.7h-1.4l-0.4-1.3l1.3,0.1
		c0.3,0,0.5-0.3,0.5-0.7v-3.6l-1,1c-0.2-0.2-0.3-0.3-0.5-0.5v3.6H715v-3.5C714.7,82.5,714.5,82.7,714.3,82.8z M713.5,79.5v2
		c1-0.6,1.9-1.2,2.6-2H713.5z M716.2,79.5l0.9,0.8c-0.5,0.6-1.2,1.2-1.9,1.8h5.1c-0.6-0.6-1.3-1.1-2.1-1.7l0.9-0.9
		C719.2,79.5,716.2,79.5,716.2,79.5z M718.9,78.2c0.2-0.4,0.4-0.9,0.6-1.3h-3.6c0.2,0.4,0.3,0.9,0.5,1.3H718.9z M719.2,83.4h-2.8
		v1.2h2.8V83.4z M722.1,79.5h-2.6c1,0.7,1.9,1.4,2.6,2.1V79.5z"/>
	<path class="st9" d="M731,74.6v11h1.5v-11h1.5v11h4V87h-12.5v-1.4h4v-11H731z M728.9,83.6l-1.3,0.3c-0.5-2.2-1.1-4.3-1.8-6.3
		l1.2-0.4C727.7,79.1,728.4,81.2,728.9,83.6z M737.8,77.6c-0.5,2.4-1.2,4.5-2,6.3l-1.3-0.5c0.8-1.6,1.5-3.7,2-6.2L737.8,77.6z"/>
	<path class="st9" d="M739.5,79v-1.3h0.6l-0.7-0.9c0.6-0.6,1.2-1.4,1.7-2.4l1.3,0.3c-0.1,0.3-0.2,0.5-0.3,0.7h3.8v1.3h-2
		c0,0.3-0.1,0.6-0.1,1h2.5V79h-2.8l0,0.1c1,0.5,1.9,1.1,2.6,1.6l-0.8,0.8h5.4v6h-1.5V87h-6.5v0.5h-1.5v-5.7
		c-0.3,0.2-0.7,0.4-1.1,0.6l-1-1.2c1.4-0.6,2.4-1.4,2.8-2.3C742,79,739.5,79,739.5,79z M740.6,77.6h1.8c0.1-0.3,0.1-0.6,0.1-1h-1.1
		C741.2,77,740.9,77.3,740.6,77.6z M744.9,81.5c-0.5-0.4-1.1-0.9-1.8-1.3c-0.3,0.5-0.8,0.9-1.3,1.3H744.9z M749.2,83.7v-0.9h-6.5
		v0.9H749.2z M749.2,85.7v-0.8h-6.5v0.8H749.2z M751.7,75.4v5.4h-5v-5.4H751.7z M750.3,76.7h-2.2v2.8h2.2V76.7z"/>
	<path class="st9" d="M760.6,78.4l-1.2,0.9c-0.1-0.3-0.3-0.6-0.4-0.9c-1.5,0.2-3.2,0.4-5.2,0.5l-0.4-1.2c0.3-0.1,0.5-0.2,0.7-0.4
		c0.8-1,1.5-1.9,1.9-2.8l1.4,0.4c-0.6,1.1-1.2,2-1.9,2.7c0.9-0.1,1.9-0.2,2.9-0.3c-0.2-0.4-0.5-0.7-0.7-1.1l1.1-0.7
		C759.5,76.6,760.1,77.6,760.6,78.4z M755.5,87.5h-1.4v-8.1h5.6v6.5c0,1-0.5,1.5-1.4,1.5h-1.1l-0.4-1.4l1,0.1c0.3,0,0.5-0.2,0.5-0.6
		v-0.6h-2.7V87.5z M758.3,80.6h-2.7v1h2.7V80.6z M755.5,83.7h2.7v-0.9h-2.7V83.7z M762.2,80.8c-1,0-1.5-0.6-1.5-1.7v-4.5h1.4v1.6
		c1.4-0.2,2.5-0.4,3.4-0.7l0.5,1.3c-1.1,0.3-2.5,0.5-3.9,0.7v1.3c0,0.4,0.2,0.7,0.5,0.7h1.6c0.2,0,0.3-0.1,0.4-0.2
		c0.1-0.2,0.2-0.6,0.2-1.4l1.4,0.4c-0.1,1.2-0.3,1.9-0.5,2.1c-0.3,0.2-0.6,0.3-1.2,0.3C764.4,80.8,762.2,80.8,762.2,80.8z
		 M762.1,85.6c0,0.2,0.2,0.4,0.5,0.4h1.6c0.2,0,0.4-0.1,0.4-0.2c0.1-0.2,0.2-0.6,0.2-1.4l1.3,0.4c-0.1,1.2-0.3,1.9-0.6,2.1
		c-0.3,0.2-0.6,0.3-1.1,0.3h-2.3c-1,0-1.5-0.4-1.5-1.3v-4.7h1.4v1.5c1.3-0.1,2.4-0.4,3.4-0.7l0.5,1.3c-1.2,0.3-2.5,0.5-3.9,0.7V85.6
		z"/>
	<path class="st9" d="M772.9,75.5c-0.6,1.1-1.3,2.1-2,2.8c-0.6,0.7-1.6,1.5-2.8,2.4l-0.8-1.3c0.9-0.5,1.7-1.1,2.5-2
		c0.6-0.7,1.2-1.6,1.8-2.7L772.9,75.5z M769.5,81.4v-1.4h8.5c-0.1,1.8-0.1,3.3-0.3,4.4c-0.1,1.1-0.4,1.9-0.7,2.3
		c-0.3,0.4-0.8,0.7-1.6,0.7h-2.7l-0.4-1.4c0.8,0,1.6,0.1,2.3,0.1c0.7,0,1.1-0.3,1.4-0.9c0.2-0.6,0.4-1.8,0.4-3.8h-3
		c-0.3,1.4-0.8,2.6-1.3,3.4c-0.7,1-1.8,1.9-3.2,2.8l-1-1.2c1.3-0.7,2.2-1.4,2.9-2.2c0.5-0.7,0.9-1.6,1.2-2.7L769.5,81.4L769.5,81.4z
		 M780.2,79.5l-1,1.2c-2.2-1.4-3.7-3.2-4.5-5.4l1.3-0.7C776.8,76.7,778.2,78.3,780.2,79.5z"/>
	<path class="st9" d="M784.9,87.5h-1.4V81c-0.4,1.2-1,2.3-1.6,3.2l-0.6-1.6c1-1.2,1.7-2.6,2.1-4.2h-1.8v-1.4h1.9v-2.6h1.4v2.6h1.7
		v1.4h-1.7v0.6c0.6,0.6,1.3,1.3,1.9,2.1l-0.8,1.2c-0.4-0.7-0.8-1.2-1.1-1.7L784.9,87.5L784.9,87.5z M793.8,75.8
		c-1.6,0.5-3.3,0.8-5.2,0.9v2.1h5.5v1.4h-1.9v7.2h-1.5v-7.2h-2.1c-0.1,3-0.8,5.4-2.2,7.1l-1-1.1c1.1-1.5,1.7-3.5,1.8-6.1v-4.6
		c2.2-0.1,4.2-0.4,5.9-1L793.8,75.8z"/>
	<path class="st9" d="M800.3,76c1,0,1.8,0.2,2.3,0.7c0.5,0.4,0.8,1.1,0.8,1.8c0,0.6-0.1,1-0.4,1.4c-0.3,0.4-0.6,0.6-1.1,0.8
		c0.7,0.1,1.1,0.4,1.5,0.8c0.3,0.4,0.5,0.9,0.5,1.6c0,1-0.3,1.8-1,2.2c-0.6,0.4-1.4,0.6-2.5,0.6h-4.6V76H800.3z M797.4,80.2h2.5
		c0.7,0,1.2-0.1,1.5-0.4c0.3-0.2,0.4-0.6,0.4-1.1c0-0.5-0.2-0.8-0.4-1c-0.3-0.2-0.8-0.3-1.5-0.3h-2.5L797.4,80.2L797.4,80.2z
		 M797.4,84.7h2.7c0.6,0,1.1-0.1,1.5-0.3c0.4-0.3,0.7-0.6,0.7-1.2c0-0.6-0.2-1-0.5-1.2c-0.3-0.3-0.9-0.4-1.6-0.4h-2.8V84.7z"/>
	<path class="st9" d="M807.1,76v10h-1.6V76H807.1z"/>
</g>
<g id="RectEndPoint2_9_" transform="translate(179.01953125,177)">
	<g>
		<rect x="487.9" y="-51.8" class="st4" width="149.6" height="46.2"/>
		<rect x="485.6" y="-53.6" class="st5" width="150.8" height="46.2"/>
	</g>
</g>
<g class="st8">
	<path class="st9" d="M713.5,143.3v-2.6h1.5v2.6h1.6v1.4h-1.6v0.5c0.6,0.6,1.2,1.3,1.9,2l-0.9,1.3c-0.4-0.7-0.7-1.3-1-1.8v6.9h-1.5
		v-6.3c-0.4,1.1-1,2.2-1.6,3.2l-0.6-1.6c1-1.2,1.7-2.6,2.2-4.2h-1.8v-1.4L713.5,143.3L713.5,143.3z M716.8,150.1
		c0.2-0.8,0.3-2,0.3-3.6v-5.3h4.9v10.6c0,0.1,0,0.2,0.1,0.2h0.4c0.1,0,0.2,0,0.3-0.1c0.1-0.1,0.1-0.1,0.1-0.2
		c0.1-0.2,0.1-1.1,0.1-2.5l1.3,0.4c0,1.1,0,1.9-0.1,2.4c-0.1,0.5-0.2,0.9-0.4,1.1c-0.2,0.2-0.6,0.3-1.1,0.3h-0.6
		c-1.1,0-1.6-0.5-1.6-1.4v-9.4h-2v4c0,1.6-0.1,2.9-0.4,4c-0.2,1.1-0.7,2.2-1.3,3.2l-1.2-1.1C716.2,151.9,716.6,151,716.8,150.1z"/>
	<path class="st9" d="M737.1,141.2v3.7h-1.6c0.2,0.3,0.4,0.7,0.6,1h1.9v1.3h-3.3c0.9,0.6,2,1.1,3.6,1.5l-0.6,1.2
		c-0.3-0.1-0.5-0.2-0.7-0.3v4h-1.3v-0.5h-2.1v0.5h-1.3v-4.6h3.2c-1-0.5-1.8-1.2-2.4-1.8h-2.2c-0.7,0.7-1.5,1.3-2.5,1.8h2.9v4.6H730
		v-0.5h-1.9v0.5h-1.3v-4c-0.3,0.1-0.5,0.2-0.8,0.3l-0.7-1.2c1.5-0.4,2.7-0.9,3.6-1.6h-3.3v-1.3h4.7c0.2-0.3,0.4-0.6,0.5-0.9l1.4,0.2
		c-0.1,0.3-0.2,0.5-0.4,0.8h2.9c-0.2-0.3-0.3-0.5-0.5-0.7l0.9-0.3h-2.7v-3.7L737.1,141.2L737.1,141.2z M731.2,141.2v3.7h-4.6v-3.7
		H731.2z M729.9,142.4h-1.9v1.3h1.9V142.4z M730,151.9v-1.7h-1.9v1.7H730z M735.7,151.9v-1.7h-2.1v1.7H735.7z M735.8,142.4h-2.1v1.3
		h2.1V142.4z"/>
	<path class="st9" d="M751.9,146.9h-1.5v-2.1h-9.3v2.1h-1.4v-3.5h2.5c-0.4-0.7-0.9-1.4-1.3-1.9l1.3-0.6c0.5,0.6,0.9,1.4,1.4,2.1
		l-0.8,0.4h2.8c-0.4-0.8-0.8-1.6-1.3-2.2l1.3-0.6c0.4,0.7,0.9,1.4,1.3,2.3l-1.2,0.6h2.1c0.6-0.9,1-1.8,1.4-2.8l1.5,0.6
		c-0.4,0.9-0.9,1.6-1.4,2.2h2.5L751.9,146.9L751.9,146.9z M749.6,145.6v1.3c-0.9,0.6-1.8,1.1-2.9,1.6v0.4h5.2v1.4h-5.2v2
		c0,0.9-0.5,1.3-1.4,1.3h-1.8l-0.4-1.3c0.5,0,1.1,0,1.7,0c0.3,0,0.4-0.2,0.4-0.5v-1.6h-5.5v-1.4h5.5v-1c0.9-0.4,1.7-0.7,2.2-1H742
		v-1.3L749.6,145.6L749.6,145.6z"/>
	<path class="st9" d="M762.1,148.4c-2,1.2-4.4,2.3-7.3,3.3l-0.6-1.3c2.9-0.9,5.4-2,7.5-3.2L762.1,148.4z M759.9,152.2
		c0.8,0,1.6,0,2.4,0c0.3,0,0.6-0.2,0.8-0.5c0.2-0.4,0.3-1.2,0.3-2.5c0-0.9,0.1-3.1,0.1-6.4h-9v-1.4H765c-0.1,4.9-0.2,7.8-0.3,8.8
		c-0.1,1.3-0.2,2.1-0.5,2.6c-0.3,0.5-0.8,0.7-1.6,0.7c-0.6,0-1.4,0-2.3,0.1L759.9,152.2z M759.2,146.4l-1,1
		c-0.7-0.8-1.6-1.6-2.8-2.5l1-1C757.5,144.8,758.4,145.6,759.2,146.4z"/>
</g>
<g id="RectEndPoint2_15_" transform="translate(179.01953125,177)">
	<g>
		<rect x="487.4" y="13.9" class="st4" width="149.6" height="46.2"/>
		<rect x="485.1" y="12.1" class="st5" width="150.8" height="46.2"/>
	</g>
</g>
<g class="st8">
	<path class="st9" d="M717,206.1v11h1.5v-11h1.5v11h4v1.4h-12.5V217h4v-11H717z M714.9,215.1l-1.3,0.3c-0.5-2.2-1.1-4.3-1.8-6.3
		l1.2-0.4C713.7,210.5,714.4,212.7,714.9,215.1z M723.8,209.1c-0.5,2.4-1.2,4.5-2,6.3l-1.3-0.5c0.8-1.6,1.5-3.7,2-6.2L723.8,209.1z"
		/>
	<path class="st9" d="M730.8,206.1c-0.1,0.3-0.3,0.6-0.4,0.9h6v1.2c-0.8,1-1.8,1.8-3,2.4c1.5,0.5,3.1,0.9,4.9,1.1l-0.7,1.4
		c-2.2-0.3-4.1-0.8-5.9-1.6c-1.7,0.7-3.6,1.3-5.8,1.6l-0.7-1.4c1.8-0.2,3.4-0.6,4.9-1.1c-0.6-0.4-1.2-0.8-1.7-1.2
		c-0.5,0.4-1,0.7-1.5,1.1l-0.9-1.2c1.6-0.9,2.7-2.1,3.3-3.4L730.8,206.1z M732.1,212.3c0,0.5,0,0.9-0.1,1.4h4.8c0,2.5-0.2,4-0.6,4.5
		c-0.4,0.5-1.1,0.7-2.1,0.7c-0.5,0-1.1,0-1.8-0.1l-0.4-1.3c0.7,0,1.3,0.1,1.8,0.1c0.7,0,1.1-0.2,1.2-0.4c0.2-0.3,0.3-1,0.3-2.2h-3.7
		c-0.1,0.3-0.3,0.6-0.4,0.9c-0.7,1.2-2.3,2.3-4.9,3.1l-1-1.2c2.3-0.7,3.8-1.5,4.4-2.4c0.1-0.2,0.2-0.3,0.3-0.4h-3.8v-1.3h4.3
		c0.1-0.4,0.1-0.9,0.1-1.4L732.1,212.3L732.1,212.3z M734.2,208.4h-4.7l0,0c0.7,0.6,1.5,1.1,2.4,1.5
		C732.7,209.5,733.5,209,734.2,208.4z"/>
	<path class="st9" d="M747.1,207.2h5v1.4h-10.2v2.9c0,3.1-0.5,5.6-1.3,7.5l-1.2-1.1c0.7-1.5,1.1-3.7,1.1-6.4v-4.3h5.1
		c-0.2-0.4-0.4-0.7-0.6-1.1l1.6-0.3C746.7,206.3,746.9,206.7,747.1,207.2z M747.6,217c0.8-1.9,1.5-4.3,2.1-7.1l1.5,0.4
		c-0.5,2.5-1.2,4.7-2,6.7h2.7v1.4h-10V217H747.6z M745.2,215.7l-1.4,0.4c-0.4-1.8-0.8-3.4-1.4-5l1.3-0.4
		C744.2,212.1,744.7,213.8,745.2,215.7z M747.6,214.8l-1.4,0.4c-0.3-1.8-0.7-3.5-1.2-5.2l1.3-0.4
		C746.8,211.1,747.3,212.9,747.6,214.8z"/>
	<path class="st9" d="M754.4,218.9l-1.1-1c0.8-1.2,1.2-2.7,1.3-4.5v-6.9h10.9V217c0,1.1-0.6,1.6-1.7,1.6h-1.6l-0.4-1.4
		c0.6,0.1,1.1,0.1,1.5,0.1c0.4,0,0.6-0.3,0.6-0.8v-1.9h-3.3v3.9h-1.5v-3.9h-3.2C755.8,216.3,755.2,217.7,754.4,218.9z M756,207.9v2
		h3.1v-2H756z M756,213.2h3.1v-2H756V213.2z M763.9,207.9h-3.3v2h3.3V207.9z M763.9,211.2h-3.3v2h3.3V211.2z"/>
</g>
<g>
	<g class="st8">
		<path class="st6" d="M121.1,139.4c-0.1,0.2-0.2,0.4-0.2,0.7h2.5v0.7c-0.3,0.8-0.7,1.5-1.3,2.1c0.6,0.3,1.1,0.5,1.7,0.8l-0.5,0.7
			c-0.5-0.3-1.1-0.6-1.8-0.9c-0.8,0.6-1.8,1-3,1.3l-0.4-0.7c1-0.3,1.8-0.6,2.5-1c-0.5-0.2-1.1-0.5-1.7-0.7c0.3-0.5,0.6-1,0.8-1.5
			h-1.4V140h1.8c0.1-0.3,0.2-0.5,0.3-0.8L121.1,139.4z M120.6,136v-2.3h0.8v2.3h2.2v0.8h-2.2v0.1c0.6,0.3,1.3,0.7,2,1.1l-0.4,0.7
			c-0.6-0.5-1.1-0.9-1.5-1.2v1.6h-0.8v-2.3c-0.4,0.9-1.1,1.8-2.1,2.5l-0.4-0.7c0.9-0.5,1.6-1.1,1.9-1.8h-1.7V136L120.6,136
			L120.6,136z M119.9,135.4l-0.6,0.3c-0.3-0.6-0.5-1.1-0.8-1.6l0.7-0.2C119.4,134.4,119.7,134.9,119.9,135.4z M122.5,140.8h-2.1
			c-0.2,0.4-0.4,0.8-0.6,1.2c0.5,0.2,0.9,0.3,1.4,0.5C121.8,142,122.2,141.4,122.5,140.8z M123.4,134.2c-0.2,0.5-0.5,1-0.9,1.5
			l-0.6-0.3c0.4-0.5,0.7-1,0.9-1.5L123.4,134.2z M124.7,138.3c-0.2,0.6-0.5,1-0.7,1.5l-0.5-0.7c0.7-1.3,1.2-3.2,1.4-5.4l0.8,0.1
			c-0.1,0.6-0.2,1.2-0.3,1.7h3.2v0.8h-0.8c-0.1,2-0.4,3.7-1.1,5.1c0.6,1.1,1.4,1.9,2.2,2.5l-0.5,0.7c-0.8-0.6-1.6-1.4-2.2-2.4
			c-0.6,1-1.3,1.8-2.2,2.4l-0.4-0.7c0.9-0.6,1.7-1.5,2.2-2.5C125.5,140.6,125.1,139.5,124.7,138.3z M125.2,137
			c0.3,1.4,0.7,2.6,1.2,3.6c0.5-1.2,0.7-2.6,0.8-4.2h-1.8L125.2,137z"/>
		<path class="st6" d="M130.4,144.6l-0.2-0.8c0.3,0,0.6,0.1,0.9,0.1c0.3,0,0.5-0.2,0.5-0.5v-2.9c-0.5,0.2-0.9,0.3-1.4,0.5l-0.2-0.8
			c0.6-0.1,1.1-0.3,1.6-0.5v-2.7h-1.4V136h1.4v-2.3h0.8v2.3h1.2v0.8h-1.2v2.4c0.4-0.2,0.8-0.3,1.1-0.5v0.9c-0.4,0.2-0.7,0.4-1.1,0.5
			v3.5c0,0.7-0.3,1.1-1,1.1L130.4,144.6L130.4,144.6z M133.6,144.7l-0.7-0.6c0.9-1.6,1.3-3.6,1.3-6.2v-3.8h6.3v2.9h-2.3v1.4h2.6v0.8
			h-2.6v1.5h2v3.9h-0.8v-0.6h-3.2v0.6h-0.8v-3.9h2v-1.5H135C134.8,141.3,134.4,143.1,133.6,144.7z M135,137.1v0.8c0,0.2,0,0.4,0,0.6
			h2.4v-1.4H135z M135,135v1.3h4.6V135H135z M139.5,143.3v-1.8h-3.2v1.8H139.5z"/>
		<path class="st6" d="M142.4,137.7l-0.5-0.7c1.1-1,1.9-2.1,2.4-3.4l0.8,0.2c-0.1,0.3-0.3,0.6-0.4,0.9h2.6c-0.2-0.4-0.3-0.7-0.5-1
			l0.9-0.1c0.2,0.3,0.3,0.7,0.5,1.2h3.9v0.7h-3.8v0.8h3.4v0.7h-3.4v0.8h3.4v0.7h-3.4v0.9h4v0.7h-8.8v-3.4
			C143.1,137,142.8,137.4,142.4,137.7z M142.3,141.8V141h4.8v-0.6h0.9v0.6h4.7v0.8H149c0.8,0.8,2.1,1.4,3.8,1.8l-0.4,0.8
			c-2-0.7-3.4-1.5-4.2-2.6h-0.2v2.9H147v-2.9h-0.2c-0.8,1-2.2,1.9-4.2,2.6l-0.5-0.7c1.8-0.6,3.1-1.2,3.8-1.9H142.3z M147.4,135.5
			h-3.1l-0.1,0.1v0.7h3.1L147.4,135.5L147.4,135.5z M147.4,137h-3.1v0.8h3.1V137z M147.4,138.5h-3.1v0.9h3.1V138.5z"/>
		<path class="st6" d="M163.8,135l-0.6,0.6h1.5v0.8H161c0.1,1.5,0.2,2.7,0.5,3.5c0.1,0.3,0.2,0.6,0.2,0.8c0.6-1,1.1-2.1,1.5-3.4
			l0.8,0.3c-0.5,1.6-1.1,2.9-1.9,4c0.2,0.4,0.3,0.7,0.5,1c0.4,0.6,0.7,0.9,1,0.9c0.2,0,0.4-0.6,0.6-1.9l0.8,0.4
			c-0.3,1.6-0.7,2.4-1.2,2.4c-0.5,0-1-0.4-1.6-1.1c-0.2-0.3-0.4-0.6-0.6-1c-0.8,1-1.8,1.7-2.9,2.2l-0.5-0.7c1.2-0.5,2.2-1.3,3-2.4
			c-0.2-0.4-0.3-0.9-0.5-1.4c-0.3-1-0.4-2.3-0.5-3.8H156v2h2.9c0,2-0.1,3.3-0.3,3.9c-0.2,0.5-0.5,0.8-1.1,0.8c-0.3,0-0.6,0-1,0
			l-0.3-0.8c0.5,0,0.9,0,1.2,0c0.3,0,0.4-0.2,0.5-0.5c0.1-0.4,0.1-1.3,0.1-2.6H156v0.4c0,2.1-0.5,3.9-1.4,5.2l-0.7-0.6
			c0.8-1.1,1.2-2.6,1.2-4.6v-4h5c0-0.6,0-1.2,0-1.9h0.9c0,0.7,0,1.3,0,1.9h2.2c-0.4-0.4-0.8-0.9-1.5-1.3l0.6-0.5
			C162.9,134.1,163.4,134.5,163.8,135z"/>
		<path class="st6" d="M166.9,135.5v-0.8h9.1v0.8h-4.1v7.6h4.9v0.8h-10.7V143h4.9v-7.6H166.9z"/>
		<path class="st6" d="M187,141.5h1.7v0.8h-3.6c1.2,0.5,2.4,1,3.4,1.6l-0.5,0.7c-1.1-0.7-2.3-1.3-3.5-1.8l0.4-0.6h-3.4l0.6,0.5
			c-0.9,0.7-2,1.3-3.4,1.9l-0.5-0.7c1.3-0.5,2.4-1.1,3.3-1.7h-3.5v-0.8h1.7v-7.3h7.2L187,141.5L187,141.5z M186.1,136.1V135h-5.4
			v1.1H186.1z M186.1,137.9v-1.1h-5.4v1.1H186.1z M186.1,139.7v-1.1h-5.4v1.1H186.1z M186.1,141.5v-1.1h-5.4v1.1H186.1z"/>
	</g>
</g>
<g>
	<title>Product Icons【32】</title>
	<g id="_编组__2_">
		<g id="_编组_2_1_">
			<path id="_复合路径__2_" class="st6" d="M693.9,158.3c-0.8,0.8-0.8,2,0,2.8c0.8,0.8,2,0.8,2.8,0c0.8-0.8,0.8-2,0-2.8
				C696,157.5,694.7,157.5,693.9,158.3C693.9,158.3,693.9,158.3,693.9,158.3z M699.6,137.1c-5.5-5.5-14.3-5.5-19.8,0
				c-5.5,5.5-5.5,14.3,0,19.8c2,2,4.6,3.4,7.5,3.9l0.3-0.3l1.5-1.4l6.3-6.3c3.1-3.1,3.1-8.2,0-11.3c-3.1-3.1-8.2-3.1-11.3,0
				c-3.1,3.1-3.1,8.2,0,11.3c0,0,0,0,0,0c0.2,0.2,0.5,0.5,0.8,0.7l0.7-0.7l0.8-0.8l3-3c1.1,0.3,2.2-0.3,2.5-1.4s-0.3-2.2-1.4-2.5
				s-2.2,0.3-2.5,1.4c-0.1,0.3-0.1,0.7,0,1l-3,3c-1.9-2.7-1.3-6.4,1.4-8.4s6.4-1.3,8.4,1.4c1.7,2.4,1.4,5.7-0.7,7.7l-3.8,3.7
				l-3.6,3.6c-2-0.5-3.9-1.6-5.4-3.1c-4.7-4.7-4.7-12.3,0-17c4.7-4.7,12.3-4.7,17,0c4.7,4.7,4.7,12.3,0,16.9l-0.7,0.7l1.4,1.4
				l0.7-0.7C705.1,151.5,705.1,142.6,699.6,137.1C699.6,137.1,699.6,137.1,699.6,137.1z"/>
		</g>
	</g>
</g>
<g>
	<path class="st6" d="M687.6,207.2v2h-2v-2H687.6 M689.6,205.2h-6v6h6V205.2L689.6,205.2z"/>
	<path class="st6" d="M695.6,207.2v2h-2v-2H695.6 M697.6,205.2h-6v6h6V205.2L697.6,205.2z"/>
	<path class="st6" d="M687.6,215.2v2h-2v-2H687.6 M689.6,213.2h-6v6h6V213.2L689.6,213.2z"/>
	<path class="st6" d="M695.6,215.2v2h-2v-2H695.6 M697.6,213.2h-6v6h6V213.2L697.6,213.2z"/>
	<path class="st6" d="M690.6,200.2c6.6,0,12,5.4,12,12s-5.4,12-12,12s-12-5.4-12-12S684,200.2,690.6,200.2 M690.6,198.2
		c-7.7,0-14,6.3-14,14s6.3,14,14,14s14-6.3,14-14S698.3,198.2,690.6,198.2L690.6,198.2z"/>
</g>
<g>
	<path id="_复合路径_" class="st6" d="M678.4,72.5h23.3v15h2v-17h-25.3c-0.6-1-1.8-1.3-2.7-0.7c-1,0.6-1.3,1.8-0.7,2.7
		s1.8,1.3,2.7,0.7C678,73.1,678.2,72.8,678.4,72.5z M702.7,91.5c-0.7,0-1.4,0.4-1.7,1h-23.3v-15h-2v17H701c0.6,1,1.8,1.3,2.7,0.7
		c1-0.6,1.3-1.8,0.7-2.7C704.1,91.9,703.4,91.5,702.7,91.5z"/>
	<path id="_复合路径__3_" class="st6" d="M689.3,78.5c1.4-2,4.2-2.5,6.3-1.1c2,1.4,2.5,4.2,1.1,6.3c-0.7,1-1.9,1.7-3.1,1.9
		c-0.9,2.9-4,4.5-6.9,3.6s-4.5-4-3.6-6.9C683.9,79.6,686.6,78,689.3,78.5z M690.3,81.1c0,1.1,0.7,2.2,1.8,2.5
		c-0.1-1.2-0.7-2.3-1.7-2.9C690.3,80.9,690.3,81,690.3,81.1z M695.7,81.1c0-1.5-1.2-2.7-2.7-2.7c-0.7,0-1.3,0.3-1.8,0.7
		c1.6,0.9,2.6,2.6,2.7,4.5C695,83.3,695.7,82.3,695.7,81.1z M684.9,83.8c0,2,1.6,3.6,3.6,3.6c1.4,0,2.6-0.8,3.2-2
		c-2.2-0.7-3.6-2.9-3.2-5.2h-0.1C686.5,80.2,684.9,81.8,684.9,83.8z"/>
</g>
<g class="st8">
	<path class="st9" d="M287.9,75.4c1.6,0,2.8,0.4,3.7,1.3c0.8,0.8,1.2,2.1,1.2,3.7c0,1.6-0.4,2.8-1.2,3.7c-0.8,0.9-2.1,1.3-3.7,1.3
		h-3.7v-10H287.9z M285.9,84h1.7c1.2,0,2.2-0.3,2.7-0.9c0.6-0.6,0.8-1.5,0.8-2.7c0-1.3-0.3-2.2-0.8-2.7c-0.6-0.6-1.5-0.9-2.7-0.9
		h-1.7V84z"/>
	<path class="st9" d="M299.9,78.8c0.4,0.5,0.7,1.1,0.7,2v4.6h-1.5v-1c-0.3,0.4-0.6,0.6-1,0.8c-0.5,0.2-1,0.3-1.6,0.3
		c-0.8,0-1.3-0.2-1.8-0.6c-0.4-0.4-0.7-0.9-0.7-1.5c0-0.8,0.3-1.4,1-1.9c0.6-0.4,1.4-0.6,2.5-0.7l1.6,0v-0.3c0-1-0.5-1.4-1.6-1.4
		c-0.4,0-0.8,0.1-1.1,0.2c-0.3,0.2-0.5,0.5-0.6,0.8l-1.6-0.1c0.2-0.8,0.5-1.4,1.2-1.8c0.5-0.3,1.3-0.5,2.2-0.5
		C298.6,78,299.4,78.2,299.9,78.8z M297.5,82.1c-1.3,0-1.9,0.5-1.9,1.3c0,0.3,0.1,0.5,0.3,0.6s0.5,0.3,0.9,0.3
		c0.6,0,1.1-0.2,1.6-0.5c0.4-0.4,0.6-0.8,0.6-1.4v-0.4L297.5,82.1z"/>
	<path class="st9" d="M304.5,78.2h1.6v1.3h-1.6v4.1c0,0.2,0,0.3,0.1,0.4c0.1,0.1,0.2,0.1,0.4,0.1h1v1.3h-1.2c-0.6,0-1.1-0.2-1.4-0.5
		c-0.3-0.3-0.4-0.7-0.4-1.3v-4.1h-1.3v-1.3h1.3v-1.7l1.6-0.7V78.2z"/>
	<path class="st9" d="M313,78.8c0.4,0.5,0.7,1.1,0.7,2v4.6h-1.5v-1c-0.3,0.4-0.6,0.6-1,0.8c-0.5,0.2-1,0.3-1.6,0.3
		c-0.8,0-1.3-0.2-1.8-0.6c-0.4-0.4-0.7-0.9-0.7-1.5c0-0.8,0.3-1.4,1-1.9c0.6-0.4,1.4-0.6,2.5-0.7l1.6,0v-0.3c0-1-0.5-1.4-1.6-1.4
		c-0.4,0-0.8,0.1-1.1,0.2c-0.3,0.2-0.5,0.5-0.6,0.8l-1.6-0.1c0.2-0.8,0.5-1.4,1.2-1.8c0.5-0.3,1.3-0.5,2.2-0.5
		C311.7,78,312.5,78.2,313,78.8z M310.6,82.1c-1.3,0-1.9,0.5-1.9,1.3c0,0.3,0.1,0.5,0.3,0.6s0.5,0.3,0.9,0.3c0.6,0,1.1-0.2,1.6-0.5
		c0.4-0.4,0.6-0.8,0.6-1.4v-0.4L310.6,82.1z"/>
	<path class="st9" d="M326.4,75.9c0.7,0.5,1.1,1.3,1.2,2.4H326c-0.1-0.6-0.4-1.1-0.8-1.3c-0.4-0.3-0.9-0.4-1.7-0.4
		c-0.6,0-1.1,0.1-1.4,0.3c-0.4,0.2-0.6,0.6-0.6,1c0,0.4,0.2,0.8,0.7,1c0.2,0.1,0.8,0.3,1.7,0.6c1.4,0.4,2.2,0.8,2.6,1
		c0.9,0.5,1.3,1.2,1.3,2.2c0,0.9-0.4,1.6-1,2.1c-0.7,0.5-1.7,0.8-3,0.8c-1.2,0-2.2-0.2-2.9-0.7c-0.8-0.6-1.3-1.5-1.4-2.8h1.6
		c0.1,0.8,0.4,1.3,0.8,1.6c0.4,0.3,1,0.4,1.8,0.4c0.7,0,1.3-0.1,1.7-0.4c0.4-0.3,0.6-0.6,0.6-1c0-0.5-0.3-1-0.9-1.3
		c-0.2-0.1-0.8-0.3-1.9-0.7c-1.2-0.4-2-0.7-2.3-0.8c-0.8-0.5-1.1-1.1-1.1-2c0-0.9,0.4-1.6,1.1-2.1c0.7-0.5,1.6-0.7,2.7-0.7
		C324.8,75.2,325.7,75.4,326.4,75.9z"/>
	<path class="st9" d="M331.3,78.2h1.6v1.3h-1.6v4.1c0,0.2,0,0.3,0.1,0.4c0.1,0.1,0.2,0.1,0.4,0.1h1v1.3h-1.2c-0.6,0-1.1-0.2-1.4-0.5
		c-0.3-0.3-0.4-0.7-0.4-1.3v-4.1h-1.3v-1.3h1.3v-1.7l1.6-0.7L331.3,78.2L331.3,78.2z"/>
	<path class="st9" d="M335.7,78.2v4.4c0,0.6,0.1,1,0.4,1.3c0.3,0.3,0.6,0.4,1.2,0.4c0.4,0,0.7-0.2,1-0.4c0.3-0.3,0.6-0.7,0.7-1.2
		v-4.4h1.6v7.2H339v-0.9c-0.6,0.8-1.4,1.1-2.3,1.1c-1.7,0-2.6-1-2.6-2.9v-4.5L335.7,78.2L335.7,78.2z"/>
	<path class="st9" d="M349,75.2v10.2h-1.5v-0.8c-0.5,0.6-1.2,1-2.2,1c-1.1,0-1.9-0.4-2.5-1.1c-0.6-0.7-0.8-1.6-0.8-2.7
		c0-1.1,0.3-1.9,0.8-2.6c0.6-0.8,1.4-1.1,2.5-1.1c0.8,0,1.6,0.4,2.2,1.2v-3.9L349,75.2L349,75.2z M344.1,80c-0.3,0.4-0.4,1-0.4,1.8
		c0,0.8,0.1,1.4,0.4,1.8c0.3,0.5,0.8,0.8,1.6,0.8c0.6,0,1.1-0.3,1.4-0.7c0.3-0.4,0.4-1,0.4-1.7v-0.1c0-0.8-0.2-1.4-0.6-1.8
		c-0.3-0.4-0.8-0.6-1.3-0.6C344.9,79.3,344.4,79.5,344.1,80z"/>
	<path class="st9" d="M352.6,75.5c0.2,0.2,0.3,0.4,0.3,0.8c0,0.3-0.1,0.6-0.3,0.8s-0.5,0.3-0.8,0.3c-0.3,0-0.6-0.1-0.8-0.3
		c-0.2-0.2-0.3-0.5-0.3-0.8c0-0.3,0.1-0.6,0.3-0.8s0.5-0.3,0.8-0.3C352.1,75.2,352.4,75.3,352.6,75.5z M352.6,78.2v7.2H351v-7.2
		H352.6z"/>
	<path class="st9" d="M360.6,79c0.7,0.7,1,1.6,1,2.7c0,1.1-0.3,2-1,2.7c-0.7,0.7-1.6,1.1-2.7,1.1c-1.1,0-2-0.4-2.7-1.1
		c-0.7-0.7-1-1.6-1-2.7c0-1.1,0.3-2,1-2.7c0.7-0.7,1.5-1.1,2.6-1.1C359,78,359.9,78.3,360.6,79z M356.4,80.1c-0.3,0.4-0.5,1-0.5,1.7
		s0.2,1.3,0.5,1.7c0.4,0.5,0.9,0.8,1.5,0.8c0.7,0,1.2-0.3,1.5-0.8c0.3-0.5,0.5-1,0.5-1.7c0-0.7-0.2-1.3-0.5-1.7
		c-0.4-0.5-0.9-0.8-1.5-0.8C357.3,79.3,356.8,79.5,356.4,80.1z"/>
</g>
<g class="st8">
	<path class="st9" d="M278.5,156.2c0.7,0.5,1.1,1.3,1.2,2.4h-1.6c-0.1-0.6-0.4-1.1-0.8-1.3c-0.4-0.3-0.9-0.4-1.7-0.4
		c-0.6,0-1.1,0.1-1.4,0.3c-0.4,0.2-0.6,0.6-0.6,1c0,0.4,0.2,0.8,0.7,1c0.2,0.1,0.8,0.3,1.7,0.6c1.4,0.4,2.2,0.8,2.6,1
		c0.9,0.5,1.3,1.2,1.3,2.2c0,0.9-0.4,1.6-1.1,2.1c-0.7,0.5-1.7,0.8-3,0.8c-1.2,0-2.2-0.2-2.9-0.7c-0.8-0.6-1.3-1.5-1.4-2.8h1.6
		c0.1,0.8,0.4,1.3,0.8,1.6c0.4,0.3,1,0.4,1.8,0.4c0.7,0,1.3-0.1,1.7-0.4c0.4-0.3,0.6-0.6,0.6-1c0-0.5-0.3-1-0.9-1.3
		c-0.2-0.1-0.8-0.3-1.9-0.7c-1.2-0.4-2-0.7-2.3-0.8c-0.8-0.5-1.1-1.1-1.1-2c0-0.9,0.4-1.6,1.1-2.1c0.7-0.5,1.6-0.7,2.7-0.7
		C276.9,155.5,277.8,155.7,278.5,156.2z"/>
	<path class="st9" d="M287.4,159.4c0.6,0.7,0.8,1.6,0.8,2.7c0,1.1-0.3,1.9-0.8,2.6c-0.6,0.8-1.4,1.1-2.5,1.1c-0.8,0-1.6-0.4-2.2-1.2
		v3.8h-1.6v-10h1.5v0.8c0.5-0.6,1.2-1,2.2-1C285.9,158.2,286.8,158.6,287.4,159.4z M283.2,160.3c-0.3,0.4-0.4,1-0.4,1.7v0.1
		c0,0.8,0.2,1.4,0.6,1.8c0.3,0.4,0.8,0.6,1.3,0.6c0.7,0,1.2-0.2,1.6-0.7c0.3-0.4,0.4-1,0.4-1.8s-0.1-1.4-0.4-1.8
		c-0.3-0.5-0.9-0.8-1.6-0.8C284,159.5,283.5,159.8,283.2,160.3z"/>
	<path class="st9" d="M295.3,159c0.4,0.5,0.7,1.1,0.7,2v4.6h-1.5v-1c-0.3,0.4-0.6,0.6-1,0.8c-0.5,0.2-1,0.3-1.6,0.3
		c-0.8,0-1.3-0.2-1.8-0.6c-0.4-0.4-0.7-0.9-0.7-1.5c0-0.8,0.3-1.4,1-1.9c0.6-0.4,1.4-0.6,2.5-0.7l1.6,0v-0.3c0-1-0.5-1.4-1.6-1.4
		c-0.4,0-0.8,0.1-1.1,0.2c-0.3,0.2-0.5,0.5-0.6,0.8l-1.6-0.1c0.2-0.8,0.5-1.4,1.2-1.8c0.5-0.3,1.3-0.5,2.2-0.5
		C294,158.2,294.8,158.5,295.3,159z M292.9,162.4c-1.3,0-1.9,0.5-1.9,1.3c0,0.3,0.1,0.5,0.3,0.6s0.5,0.3,0.9,0.3
		c0.6,0,1.1-0.2,1.6-0.5c0.4-0.4,0.6-0.8,0.6-1.4v-0.4L292.9,162.4z"/>
	<path class="st9" d="M302,158.4v1.6c-0.4-0.1-0.7-0.2-1-0.2c-0.4,0-0.8,0.2-1.1,0.5c-0.4,0.4-0.6,0.9-0.6,1.5v3.8h-1.6v-7.2h1.6v1
		c0.2-0.4,0.4-0.6,0.7-0.8c0.3-0.3,0.7-0.4,1.1-0.4C301.4,158.2,301.7,158.3,302,158.4z"/>
	<path class="st9" d="M304.5,155.5v5.8l3-2.9h2.1l-3.2,3l3.5,4.2h-2l-2.5-3.2l-0.7,0.7v2.5h-1.6v-10.2H304.5z"/>
	<path class="st9" d="M312.3,155.5v10.2h-1.6v-10.2H312.3z"/>
	<path class="st9" d="M316,155.8c0.2,0.2,0.3,0.4,0.3,0.8c0,0.3-0.1,0.6-0.3,0.8s-0.5,0.3-0.8,0.3c-0.3,0-0.6-0.1-0.8-0.3
		c-0.2-0.2-0.3-0.5-0.3-0.8c0-0.3,0.1-0.6,0.3-0.8s0.5-0.3,0.8-0.3C315.5,155.5,315.8,155.6,316,155.8z M316,158.4v7.2h-1.6v-7.2
		H316z"/>
	<path class="st9" d="M324.5,161.2v4.5h-1.6v-4.3c0-1.2-0.5-1.8-1.6-1.8c-0.4,0-0.7,0.1-1,0.4c-0.3,0.3-0.5,0.8-0.6,1.3v4.4H318
		v-7.2h1.6v0.8c0.3-0.3,0.6-0.6,1-0.8c0.4-0.2,0.8-0.3,1.2-0.3C323.6,158.2,324.5,159.2,324.5,161.2z"/>
	<path class="st9" d="M331.3,159.3v-0.9h1.6v6.8c0,2.3-1.1,3.4-3.4,3.4c-1,0-1.8-0.2-2.3-0.6c-0.5-0.4-0.9-1-1-1.8h1.6
		c0.1,0.4,0.3,0.7,0.5,0.9c0.3,0.2,0.7,0.2,1.2,0.2c1.2,0,1.8-0.6,1.8-1.9v-1.1c-0.5,0.7-1.2,1.1-2.1,1.1c-1,0-1.8-0.3-2.4-1
		c-0.6-0.7-0.9-1.5-0.9-2.6s0.3-2,0.9-2.6c0.6-0.7,1.4-1,2.4-1C330,158.2,330.8,158.6,331.3,159.3z M328,160.2
		c-0.3,0.4-0.5,1-0.5,1.7c0,0.7,0.1,1.2,0.4,1.6c0.3,0.5,0.8,0.7,1.5,0.7c0.6,0,1.1-0.2,1.4-0.6c0.3-0.4,0.5-1,0.5-1.7
		c0-0.7-0.2-1.3-0.5-1.7c-0.3-0.4-0.8-0.6-1.4-0.6C328.8,159.5,328.3,159.7,328,160.2z"/>
	<path class="st9" d="M343,155.7c1.6,0,2.8,0.4,3.7,1.3c0.8,0.8,1.2,2.1,1.2,3.7c0,1.6-0.4,2.8-1.2,3.7c-0.8,0.9-2.1,1.3-3.7,1.3
		h-3.7v-10H343z M341,164.3h1.7c1.2,0,2.2-0.3,2.7-0.9c0.6-0.6,0.8-1.5,0.8-2.7c0-1.3-0.3-2.2-0.8-2.7c-0.6-0.6-1.5-0.9-2.7-0.9H341
		V164.3z"/>
	<path class="st9" d="M355,159c0.4,0.5,0.7,1.1,0.7,2v4.6h-1.5v-1c-0.3,0.4-0.6,0.6-1,0.8c-0.5,0.2-1,0.3-1.6,0.3
		c-0.8,0-1.3-0.2-1.8-0.6c-0.4-0.4-0.7-0.9-0.7-1.5c0-0.8,0.3-1.4,1-1.9c0.6-0.4,1.4-0.6,2.5-0.7l1.6,0v-0.3c0-1-0.5-1.4-1.6-1.4
		c-0.4,0-0.8,0.1-1.1,0.2c-0.3,0.2-0.5,0.5-0.6,0.8l-1.6-0.1c0.2-0.8,0.5-1.4,1.2-1.8c0.5-0.3,1.3-0.5,2.2-0.5
		C353.7,158.2,354.5,158.5,355,159z M352.6,162.4c-1.3,0-1.9,0.5-1.9,1.3c0,0.3,0.1,0.5,0.3,0.6s0.5,0.3,0.9,0.3
		c0.6,0,1.1-0.2,1.6-0.5c0.4-0.4,0.6-0.8,0.6-1.4v-0.4L352.6,162.4z"/>
	<path class="st9" d="M359.6,158.4h1.6v1.3h-1.6v4.1c0,0.2,0,0.3,0.1,0.4c0.1,0.1,0.2,0.1,0.4,0.1h1v1.3h-1.2
		c-0.6,0-1.1-0.2-1.4-0.5c-0.3-0.3-0.4-0.7-0.4-1.3v-4.1h-1.3v-1.3h1.3v-1.7l1.6-0.7L359.6,158.4L359.6,158.4z"/>
	<path class="st9" d="M368,159c0.4,0.5,0.7,1.1,0.7,2v4.6h-1.5v-1c-0.3,0.4-0.6,0.6-1,0.8c-0.5,0.2-1,0.3-1.6,0.3
		c-0.8,0-1.3-0.2-1.8-0.6c-0.4-0.4-0.7-0.9-0.7-1.5c0-0.8,0.3-1.4,1-1.9c0.6-0.4,1.4-0.6,2.5-0.7l1.6,0v-0.3c0-1-0.5-1.4-1.6-1.4
		c-0.4,0-0.8,0.1-1.1,0.2c-0.3,0.2-0.5,0.5-0.6,0.8l-1.6-0.1c0.2-0.8,0.5-1.4,1.2-1.8c0.5-0.3,1.3-0.5,2.2-0.5
		C366.7,158.2,367.5,158.5,368,159z M365.6,162.4c-1.3,0-1.9,0.5-1.9,1.3c0,0.3,0.1,0.5,0.3,0.6s0.5,0.3,0.9,0.3
		c0.6,0,1.1-0.2,1.6-0.5c0.4-0.4,0.6-0.8,0.6-1.4v-0.4L365.6,162.4z"/>
</g>
<g class="st8">
	<path class="st9" d="M287.4,172.5l1.9,7.6h0.1l2-7.6h1.7l2,7.6h0.1l1.9-7.6h1.8l-2.9,10h-1.7l-1.9-7.5h-0.1l-2,7.5h-1.8l-2.9-10
		H287.4z"/>
	<path class="st9" d="M305.3,175.8c0.4,0.5,0.7,1.1,0.7,2v4.6h-1.5v-1c-0.3,0.4-0.6,0.6-1,0.8c-0.5,0.2-1,0.3-1.6,0.3
		c-0.8,0-1.3-0.2-1.8-0.6c-0.4-0.4-0.7-0.9-0.7-1.5c0-0.8,0.3-1.4,1-1.9c0.6-0.4,1.4-0.6,2.5-0.7l1.6,0v-0.3c0-1-0.5-1.4-1.6-1.4
		c-0.4,0-0.8,0.1-1.1,0.2c-0.3,0.2-0.5,0.5-0.6,0.8l-1.6-0.1c0.2-0.8,0.5-1.4,1.2-1.8c0.5-0.3,1.3-0.5,2.2-0.5
		C304,175,304.8,175.3,305.3,175.8z M303,179.2c-1.3,0-1.9,0.5-1.9,1.3c0,0.3,0.1,0.5,0.3,0.6s0.5,0.3,0.9,0.3
		c0.6,0,1.1-0.2,1.6-0.5c0.4-0.4,0.6-0.8,0.6-1.4v-0.4L303,179.2z"/>
	<path class="st9" d="M312,175.2v1.6c-0.4-0.1-0.7-0.2-1-0.2c-0.4,0-0.8,0.2-1.1,0.5c-0.4,0.4-0.6,0.9-0.6,1.5v3.8h-1.6v-7.2h1.6v1
		c0.2-0.4,0.4-0.6,0.7-0.8c0.3-0.3,0.7-0.4,1.1-0.4C311.5,175,311.8,175.1,312,175.2z"/>
	<path class="st9" d="M318.7,176.2c0.6,0.7,0.9,1.8,0.9,3.1h-5.4c0.1,0.7,0.2,1.2,0.5,1.5c0.3,0.4,0.8,0.5,1.3,0.5
		c0.5,0,0.9-0.1,1.2-0.3c0.2-0.2,0.4-0.5,0.6-0.9h1.6c-0.2,0.7-0.5,1.2-1,1.7c-0.6,0.5-1.4,0.8-2.4,0.8c-1.1,0-1.9-0.3-2.6-1
		c-0.7-0.7-1-1.6-1-2.8c0-1.1,0.3-2,1-2.7c0.6-0.7,1.5-1.1,2.5-1.1C317.2,175,318.1,175.4,318.7,176.2z M314.8,176.8
		c-0.3,0.3-0.5,0.7-0.6,1.3h3.7c-0.1-1.2-0.8-1.8-1.9-1.8C315.5,176.3,315.1,176.5,314.8,176.8z"/>
	<path class="st9" d="M322.5,172.3v3.9c0.3-0.4,0.6-0.7,1-0.9c0.4-0.2,0.8-0.3,1.2-0.3c0.9,0,1.5,0.3,2,0.8c0.4,0.5,0.6,1.2,0.6,2.2
		v4.5h-1.6v-4.2c0-0.6-0.1-1.1-0.4-1.4c-0.3-0.4-0.7-0.5-1.2-0.5c-0.5,0-0.9,0.2-1.2,0.6c-0.3,0.4-0.4,0.9-0.4,1.5v4h-1.6v-10.2
		L322.5,172.3L322.5,172.3z"/>
	<path class="st9" d="M335,176.1c0.7,0.7,1,1.6,1,2.7c0,1.1-0.3,2-1,2.7c-0.7,0.7-1.6,1.1-2.7,1.1c-1.1,0-2-0.4-2.7-1.1
		c-0.7-0.7-1-1.6-1-2.7c0-1.1,0.3-2,1-2.7c0.7-0.7,1.5-1.1,2.6-1.1C333.4,175,334.3,175.4,335,176.1z M330.8,177.1
		c-0.3,0.4-0.5,1-0.5,1.7s0.2,1.3,0.5,1.7c0.4,0.5,0.9,0.8,1.5,0.8c0.7,0,1.2-0.3,1.5-0.8c0.3-0.5,0.5-1,0.5-1.7
		c0-0.7-0.2-1.3-0.5-1.7c-0.4-0.5-0.9-0.8-1.5-0.8C331.6,176.3,331.1,176.6,330.8,177.1z"/>
	<path class="st9" d="M338.9,175.2v4.4c0,0.6,0.1,1,0.4,1.3c0.3,0.3,0.6,0.4,1.2,0.4c0.4,0,0.7-0.2,1-0.4c0.3-0.3,0.6-0.7,0.7-1.2
		v-4.4h1.6v7.2h-1.6v-0.9c-0.6,0.8-1.4,1.1-2.3,1.1c-1.7,0-2.6-1-2.6-2.9v-4.5H338.9z"/>
	<path class="st9" d="M351.4,177.3h-1.6c-0.1-0.4-0.3-0.6-0.5-0.8c-0.2-0.2-0.6-0.2-1.1-0.2c-0.4,0-0.7,0.1-1,0.2
		c-0.3,0.1-0.4,0.3-0.4,0.6c0,0.2,0.2,0.4,0.6,0.6c0.2,0.1,0.7,0.2,1.4,0.4c0.8,0.2,1.4,0.4,1.8,0.7c0.6,0.4,0.9,0.9,0.9,1.5
		c0,1.5-1.1,2.3-3.3,2.3c-2,0-3.1-0.9-3.2-2.6h1.6c0.1,0.5,0.3,0.8,0.5,1c0.2,0.2,0.6,0.3,1.1,0.3c1.1,0,1.7-0.3,1.7-0.9
		c0-0.3-0.2-0.6-0.6-0.8c-0.2-0.1-0.7-0.2-1.4-0.4c-0.9-0.2-1.5-0.4-1.8-0.6c-0.6-0.4-0.8-0.8-0.8-1.5c0-0.7,0.3-1.2,0.8-1.6
		c0.5-0.4,1.3-0.6,2.2-0.6C350.1,175,351.2,175.8,351.4,177.3z"/>
	<path class="st9" d="M358.7,176.2c0.6,0.7,0.9,1.8,0.9,3.1h-5.4c0.1,0.7,0.2,1.2,0.5,1.5c0.3,0.4,0.8,0.5,1.3,0.5
		c0.5,0,0.9-0.1,1.2-0.3c0.2-0.2,0.4-0.5,0.6-0.9h1.6c-0.2,0.7-0.5,1.2-1,1.7c-0.6,0.5-1.4,0.8-2.4,0.8c-1.1,0-1.9-0.3-2.6-1
		c-0.7-0.7-1-1.6-1-2.8c0-1.1,0.3-2,1-2.7c0.6-0.7,1.5-1.1,2.5-1.1C357.1,175,358,175.4,358.7,176.2z M354.7,176.8
		c-0.3,0.3-0.5,0.7-0.6,1.3h3.7c-0.1-1.2-0.8-1.8-1.9-1.8C355.4,176.3,355,176.5,354.7,176.8z"/>
</g>
<g>
	<g>
		<g>
			<path id="SVGID_1_" class="st10" d="M239.9,31.7c0-0.1-0.1-0.3-0.1-0.6l0.8,0c0,0.1,0,0.1,0,0.2c0.3,1.2,1.1,1.8,2.2,1.8
				c0.4,0,0.8-0.1,1.2-0.3c0.9-0.6,0.9-1.7,0.2-2.4c-0.4-0.4-0.9-0.6-1.5-0.7c-0.5-0.2-1-0.3-1.5-0.6c-1.5-0.8-1.6-2.4-0.3-3.4
				c1.4-1.1,3.5-0.6,4.2,1c0,0.1,0.1,0.2,0.1,0.4l-0.9,0c-0.1-0.2-0.2-0.3-0.2-0.4c-0.7-1.1-2.5-1-3.1,0.1c-0.3,0.5-0.2,1.1,0.3,1.5
				c0.5,0.3,1.1,0.5,1.6,0.7c0.5,0.2,1,0.3,1.4,0.6c0.8,0.5,1.2,1.2,1.1,2.1c0,0.9-0.5,1.6-1.3,2c-0.5,0.2-1,0.3-1.5,0.3
				C241.4,33.8,240.2,33,239.9,31.7L239.9,31.7z M247,36.8h-0.9v-6.3c0-0.5,0.1-0.9,0.3-1.3c0.2-0.4,0.4-0.8,0.7-1.1
				c0.3-0.3,0.6-0.5,1-0.7c0.4-0.2,0.8-0.3,1.3-0.3c0.4,0,0.9,0.1,1.3,0.3c0.4,0.2,0.7,0.4,1,0.7s0.5,0.7,0.7,1.1
				c0.2,0.4,0.3,0.8,0.3,1.3c0,0.5-0.1,0.9-0.3,1.3c-0.2,0.4-0.4,0.8-0.7,1.1c-0.3,0.3-0.6,0.5-1,0.7c-0.4,0.2-0.8,0.3-1.3,0.3
				c-0.5,0-1-0.1-1.5-0.4c-0.3-0.2-0.6-0.4-0.8-0.6L247,36.8L247,36.8z M249.4,27.9c-0.3,0-0.7,0.1-1,0.2c-0.3,0.1-0.6,0.3-0.8,0.5
				c-0.2,0.2-0.4,0.5-0.5,0.8s-0.2,0.6-0.2,1s0.1,0.7,0.2,1s0.3,0.6,0.5,0.8s0.5,0.4,0.8,0.5c0.3,0.1,0.6,0.2,1,0.2
				c0.3,0,0.7-0.1,1-0.2c0.3-0.1,0.6-0.3,0.8-0.5s0.4-0.5,0.5-0.8c0.1-0.3,0.2-0.6,0.2-1s-0.1-0.7-0.2-1c-0.1-0.3-0.3-0.6-0.5-0.8
				c-0.2-0.2-0.5-0.4-0.8-0.5C250,28,249.7,27.9,249.4,27.9L249.4,27.9z M257.9,33.4c-0.5,0.2-0.9,0.4-1.5,0.4
				c-0.4,0-0.9-0.1-1.3-0.3c-0.4-0.2-0.7-0.4-1-0.7s-0.5-0.7-0.7-1.1c-0.2-0.4-0.3-0.8-0.3-1.3s0.1-0.9,0.3-1.3
				c0.2-0.4,0.4-0.8,0.7-1.1c0.3-0.3,0.6-0.5,1-0.7c0.4-0.2,0.8-0.3,1.3-0.3c0.4,0,0.9,0.1,1.3,0.3c0.4,0.2,0.7,0.4,1,0.7
				s0.5,0.7,0.7,1.1c0.2,0.4,0.3,0.8,0.3,1.3v3.2h-0.9v-0.9C258.5,33,258.2,33.3,257.9,33.4L257.9,33.4z M256.4,27.9
				c-0.3,0-0.7,0.1-1,0.2s-0.6,0.3-0.8,0.5s-0.4,0.5-0.5,0.8s-0.2,0.6-0.2,1s0.1,0.7,0.2,1s0.3,0.6,0.5,0.8c0.2,0.2,0.5,0.4,0.8,0.5
				s0.6,0.2,1,0.2s0.7-0.1,1-0.2c0.3-0.1,0.6-0.3,0.8-0.5s0.4-0.5,0.5-0.8s0.2-0.6,0.2-1s-0.1-0.7-0.2-1c-0.1-0.3-0.3-0.6-0.5-0.8
				c-0.2-0.2-0.5-0.4-0.8-0.5C257,28,256.7,27.9,256.4,27.9L256.4,27.9z M261.1,33.7h-0.9v-3.2c0-0.5,0.1-0.9,0.3-1.3
				c0.2-0.4,0.4-0.8,0.7-1.1c0.3-0.3,0.6-0.5,1-0.7c0.4-0.2,0.8-0.3,1.3-0.3h0.1v0.9h-0.1c-0.3,0-0.6,0.1-0.9,0.2
				c-0.3,0.1-0.5,0.3-0.7,0.5c-0.2,0.2-0.4,0.5-0.5,0.8c-0.1,0.3-0.2,0.6-0.2,0.9V33.7L261.1,33.7z M267.7,27.3h1.3l-3.1,3.2
				l3.1,3.2h-1.3l-2.7-2.8v2.8h-0.9v-9.5h0.9v5.9L267.7,27.3L267.7,27.3z M269.6,24.2h0.9v7.8c0,0.2,0.1,0.4,0.2,0.6
				s0.3,0.2,0.6,0.2h0.1v0.9h-0.1c-0.2,0-0.5,0-0.7-0.1s-0.4-0.2-0.5-0.4c-0.1-0.2-0.3-0.3-0.4-0.6c-0.1-0.2-0.1-0.4-0.1-0.7
				L269.6,24.2L269.6,24.2z M272.3,27.3h0.9v6.4h-0.9V27.3L272.3,27.3z M272.3,24.2h0.9v1.3h-0.9V24.2L272.3,24.2z M277.4,27.1
				c0.4,0,0.9,0.1,1.3,0.3c0.4,0.2,0.7,0.4,1,0.7s0.5,0.7,0.7,1.1c0.2,0.4,0.3,0.8,0.3,1.3v3.2h-0.9v-3.2c0-0.3-0.1-0.6-0.2-0.9
				c-0.1-0.3-0.3-0.6-0.5-0.8c-0.2-0.2-0.5-0.4-0.7-0.5c-0.3-0.1-0.6-0.2-0.9-0.2s-0.6,0.1-0.9,0.2c-0.3,0.1-0.5,0.3-0.7,0.5
				c-0.2,0.2-0.4,0.5-0.5,0.8c-0.1,0.3-0.2,0.6-0.2,0.9v3.2h-0.9v-3.2c0-0.5,0.1-0.9,0.3-1.3c0.2-0.4,0.4-0.8,0.7-1.1
				c0.3-0.3,0.6-0.5,1-0.7C276.5,27.2,277,27.1,277.4,27.1L277.4,27.1z M286.8,28.8v-1.6h0.9v5.2c0,0.6,0.3,5.1-3.4,5.1v-0.9
				c2,0,2.5-1.9,2.5-4v-1c0.2-0.6,0.3-1,0.3-1.3S287,29.6,286.8,28.8L286.8,28.8z"/>
		</g>
		<g>
			<defs>
				<path id="SVGID_2_" d="M239.9,31.7c0-0.1-0.1-0.3-0.1-0.6l0.8,0c0,0.1,0,0.1,0,0.2c0.3,1.2,1.1,1.8,2.2,1.8
					c0.4,0,0.8-0.1,1.2-0.3c0.9-0.6,0.9-1.7,0.2-2.4c-0.4-0.4-0.9-0.6-1.5-0.7c-0.5-0.2-1-0.3-1.5-0.6c-1.5-0.8-1.6-2.4-0.3-3.4
					c1.4-1.1,3.5-0.6,4.2,1c0,0.1,0.1,0.2,0.1,0.4l-0.9,0c-0.1-0.2-0.2-0.3-0.2-0.4c-0.7-1.1-2.5-1-3.1,0.1
					c-0.3,0.5-0.2,1.1,0.3,1.5c0.5,0.3,1.1,0.5,1.6,0.7c0.5,0.2,1,0.3,1.4,0.6c0.8,0.5,1.2,1.2,1.1,2.1c0,0.9-0.5,1.6-1.3,2
					c-0.5,0.2-1,0.3-1.5,0.3C241.4,33.8,240.2,33,239.9,31.7L239.9,31.7z M247,36.8h-0.9v-6.3c0-0.5,0.1-0.9,0.3-1.3
					c0.2-0.4,0.4-0.8,0.7-1.1c0.3-0.3,0.6-0.5,1-0.7c0.4-0.2,0.8-0.3,1.3-0.3c0.4,0,0.9,0.1,1.3,0.3c0.4,0.2,0.7,0.4,1,0.7
					s0.5,0.7,0.7,1.1c0.2,0.4,0.3,0.8,0.3,1.3c0,0.5-0.1,0.9-0.3,1.3c-0.2,0.4-0.4,0.8-0.7,1.1c-0.3,0.3-0.6,0.5-1,0.7
					c-0.4,0.2-0.8,0.3-1.3,0.3c-0.5,0-1-0.1-1.5-0.4c-0.3-0.2-0.6-0.4-0.8-0.6L247,36.8L247,36.8z M249.4,27.9c-0.3,0-0.7,0.1-1,0.2
					c-0.3,0.1-0.6,0.3-0.8,0.5c-0.2,0.2-0.4,0.5-0.5,0.8s-0.2,0.6-0.2,1s0.1,0.7,0.2,1s0.3,0.6,0.5,0.8s0.5,0.4,0.8,0.5
					c0.3,0.1,0.6,0.2,1,0.2c0.3,0,0.7-0.1,1-0.2c0.3-0.1,0.6-0.3,0.8-0.5s0.4-0.5,0.5-0.8c0.1-0.3,0.2-0.6,0.2-1s-0.1-0.7-0.2-1
					c-0.1-0.3-0.3-0.6-0.5-0.8c-0.2-0.2-0.5-0.4-0.8-0.5C250,28,249.7,27.9,249.4,27.9L249.4,27.9z M257.9,33.4
					c-0.5,0.2-0.9,0.4-1.5,0.4c-0.4,0-0.9-0.1-1.3-0.3c-0.4-0.2-0.7-0.4-1-0.7s-0.5-0.7-0.7-1.1c-0.2-0.4-0.3-0.8-0.3-1.3
					s0.1-0.9,0.3-1.3c0.2-0.4,0.4-0.8,0.7-1.1c0.3-0.3,0.6-0.5,1-0.7c0.4-0.2,0.8-0.3,1.3-0.3c0.4,0,0.9,0.1,1.3,0.3
					c0.4,0.2,0.7,0.4,1,0.7s0.5,0.7,0.7,1.1c0.2,0.4,0.3,0.8,0.3,1.3v3.2h-0.9v-0.9C258.5,33,258.2,33.3,257.9,33.4L257.9,33.4z
					 M256.4,27.9c-0.3,0-0.7,0.1-1,0.2s-0.6,0.3-0.8,0.5s-0.4,0.5-0.5,0.8s-0.2,0.6-0.2,1s0.1,0.7,0.2,1s0.3,0.6,0.5,0.8
					c0.2,0.2,0.5,0.4,0.8,0.5s0.6,0.2,1,0.2s0.7-0.1,1-0.2c0.3-0.1,0.6-0.3,0.8-0.5s0.4-0.5,0.5-0.8s0.2-0.6,0.2-1s-0.1-0.7-0.2-1
					c-0.1-0.3-0.3-0.6-0.5-0.8c-0.2-0.2-0.5-0.4-0.8-0.5C257,28,256.7,27.9,256.4,27.9L256.4,27.9z M261.1,33.7h-0.9v-3.2
					c0-0.5,0.1-0.9,0.3-1.3c0.2-0.4,0.4-0.8,0.7-1.1c0.3-0.3,0.6-0.5,1-0.7c0.4-0.2,0.8-0.3,1.3-0.3h0.1v0.9h-0.1
					c-0.3,0-0.6,0.1-0.9,0.2c-0.3,0.1-0.5,0.3-0.7,0.5c-0.2,0.2-0.4,0.5-0.5,0.8c-0.1,0.3-0.2,0.6-0.2,0.9V33.7L261.1,33.7z
					 M267.7,27.3h1.3l-3.1,3.2l3.1,3.2h-1.3l-2.7-2.8v2.8h-0.9v-9.5h0.9v5.9L267.7,27.3L267.7,27.3z M269.6,24.2h0.9v7.8
					c0,0.2,0.1,0.4,0.2,0.6s0.3,0.2,0.6,0.2h0.1v0.9h-0.1c-0.2,0-0.5,0-0.7-0.1s-0.4-0.2-0.5-0.4c-0.1-0.2-0.3-0.3-0.4-0.6
					c-0.1-0.2-0.1-0.4-0.1-0.7L269.6,24.2L269.6,24.2z M272.3,27.3h0.9v6.4h-0.9V27.3L272.3,27.3z M272.3,24.2h0.9v1.3h-0.9V24.2
					L272.3,24.2z M277.4,27.1c0.4,0,0.9,0.1,1.3,0.3c0.4,0.2,0.7,0.4,1,0.7s0.5,0.7,0.7,1.1c0.2,0.4,0.3,0.8,0.3,1.3v3.2h-0.9v-3.2
					c0-0.3-0.1-0.6-0.2-0.9c-0.1-0.3-0.3-0.6-0.5-0.8c-0.2-0.2-0.5-0.4-0.7-0.5c-0.3-0.1-0.6-0.2-0.9-0.2s-0.6,0.1-0.9,0.2
					c-0.3,0.1-0.5,0.3-0.7,0.5c-0.2,0.2-0.4,0.5-0.5,0.8c-0.1,0.3-0.2,0.6-0.2,0.9v3.2h-0.9v-3.2c0-0.5,0.1-0.9,0.3-1.3
					c0.2-0.4,0.4-0.8,0.7-1.1c0.3-0.3,0.6-0.5,1-0.7C276.5,27.2,277,27.1,277.4,27.1L277.4,27.1z M286.8,28.8v-1.6h0.9v5.2
					c0,0.6,0.3,5.1-3.4,5.1v-0.9c2,0,2.5-1.9,2.5-4v-1c0.2-0.6,0.3-1,0.3-1.3S287,29.6,286.8,28.8L286.8,28.8z"/>
			</defs>
			<clipPath id="SVGID_4_">
				<use xlink:href="#SVGID_2_"  style="overflow:visible;"/>
			</clipPath>
			<rect x="239.1" y="23.5" class="st11" width="49.3" height="14.9"/>
		</g>
	</g>
	<g>
		<g>
			<path id="SVGID_3_" class="st10" d="M284.3,32.9c-1.4,0-2.5-1.1-2.5-2.5c0-1.4,1.1-2.5,2.5-2.5c1.4,0,2.5,1.1,2.5,2.5
				C286.7,31.8,285.6,32.9,284.3,32.9 M284.3,27.1c-1.8,0-3.2,1.5-3.2,3.3c0,1.8,1.4,3.3,3.2,3.3s3.2-1.5,3.2-3.3
				C287.5,28.6,286.1,27.1,284.3,27.1"/>
		</g>
		<g>
			<defs>
				<path id="SVGID_6_" d="M284.3,32.9c-1.4,0-2.5-1.1-2.5-2.5c0-1.4,1.1-2.5,2.5-2.5c1.4,0,2.5,1.1,2.5,2.5
					C286.7,31.8,285.6,32.9,284.3,32.9 M284.3,27.1c-1.8,0-3.2,1.5-3.2,3.3c0,1.8,1.4,3.3,3.2,3.3s3.2-1.5,3.2-3.3
					C287.5,28.6,286.1,27.1,284.3,27.1"/>
			</defs>
			<clipPath id="SVGID_8_">
				<use xlink:href="#SVGID_6_"  style="overflow:visible;"/>
			</clipPath>
			<rect x="280.3" y="26.4" class="st12" width="7.9" height="8.1"/>
		</g>
	</g>
	<g>
		<g>
			<path id="SVGID_5_" class="st10" d="M234.6,22.3L234.6,22.3l0.5-0.9L236,22l0,0c0,0,0,0,0,0l0,0l0,0c1.2,5.6,1.8,8.6,1.9,9.1
				C237.9,31.1,236.8,28.2,234.6,22.3L234.6,22.3L234.6,22.3z M234.9,22.3l0.6,0.3l0.3-0.6l-0.6-0.3L234.9,22.3L234.9,22.3z"/>
		</g>
		<g>
			<defs>
				<path id="SVGID_10_" d="M234.6,22.3L234.6,22.3l0.5-0.9L236,22l0,0c0,0,0,0,0,0l0,0l0,0c1.2,5.6,1.8,8.6,1.9,9.1
					C237.9,31.1,236.8,28.2,234.6,22.3L234.6,22.3L234.6,22.3z M234.9,22.3l0.6,0.3l0.3-0.6l-0.6-0.3L234.9,22.3L234.9,22.3z"/>
			</defs>
			<clipPath id="SVGID_12_">
				<use xlink:href="#SVGID_10_"  style="overflow:visible;"/>
			</clipPath>
			<rect x="233.9" y="20.7" class="st13" width="4.7" height="11.1"/>
		</g>
	</g>
	<g>
		<g>
			<path id="SVGID_7_" class="st10" d="M229.3,25.2L229.3,25.2l-0.1-0.7l0.7-0.1l0,0c0,0,0,0,0,0l0,0l0,0c4.9,4.2,7.5,6.4,7.8,6.8
				C237.7,31.3,234.9,29.3,229.3,25.2L229.3,25.2L229.3,25.2z M229.5,25.1l0.5,0l0-0.5l-0.5,0L229.5,25.1L229.5,25.1z"/>
		</g>
	</g>
	<g>
		<g>
			<path id="SVGID_9_" class="st10" d="M225.1,29L225.1,29l-0.5-0.8l0.9-0.5l0,0c0,0,0,0,0,0l0,0l0,0c7.8,2.4,11.9,3.7,12.4,3.9
				C237.8,31.6,233.6,30.7,225.1,29L225.1,29L225.1,29z M225.1,28.8l0.6-0.3l-0.3-0.5l-0.6,0.3L225.1,28.8L225.1,28.8z"/>
		</g>
	</g>
	<g>
		<g>
			<path id="SVGID_11_" class="st10" d="M226.8,31.5L226.8,31.5l-0.6-0.6l0.6-0.5l0,0c0,0,0,0,0,0l0,0l0,0c6.4,0.8,9.8,1.2,10.2,1.3
				C237.1,31.7,233.7,31.6,226.8,31.5L226.8,31.5L226.8,31.5z M226.8,31.3l0.4-0.4l-0.3-0.4l-0.4,0.4L226.8,31.3L226.8,31.3z"/>
		</g>
	</g>
	<g>
		<g>
			<path id="SVGID_13_" class="st10" d="M233.5,34.7L233.5,34.7l-1.1-0.4l0.4-1.1l0,0c0,0,0,0,0,0l0,0l0,0c3-0.9,4.7-1.3,5.2-1.5
				C238,31.8,236.5,32.7,233.5,34.7L233.5,34.7L233.5,34.7z M233.3,34.4l0.3-0.7l-0.7-0.3l-0.3,0.7L233.3,34.4L233.3,34.4z"/>
		</g>
	</g>
</g>
</svg>
