<svg id="图层_1" data-name="图层 1" xmlns="http://www.w3.org/2000/svg" width="48" height="48" viewBox="0 0 48 48">
  <title>内容监管</title>
  <g id="Combined-Shape">
    <path d="M46,19.165V6H2V42H25.275A11.3,11.3,0,0,0,28,43.971V44H0V4H48V19.479Q46.991,19.366,46,19.165Z" style="fill: #334966"/>
  </g>
  <path d="M37.679,21.481,37,21.127l-.679.353A27.857,27.857,0,0,1,27,24.394v9.87a5.968,5.968,0,0,0,3.378,5.307L37,42.882l6.622-3.311A5.968,5.968,0,0,0,47,34.265v-9.87A27.857,27.857,0,0,1,37.679,21.481ZM37.657,34.07l-1.414,1.414L34.829,34.07,32,31.242l1.415-1.414,2.828,2.828L40.9,28l1.415,1.414Z" style="fill: #00a4ff"/>
  <path d="M37,44l-7.069-3.534A6.947,6.947,0,0,1,26,34.265V23.515l.873-.112a26.767,26.767,0,0,0,8.986-2.809L37,20l1.141.593a26.756,26.756,0,0,0,8.986,2.81l.873.112v10.75a6.947,6.947,0,0,1-3.931,6.2ZM28,25.261v9a4.96,4.96,0,0,0,2.825,4.412L37,41.764l6.175-3.087A4.96,4.96,0,0,0,46,34.265v-9a28.669,28.669,0,0,1-8.782-2.894L37,22.254l-.217.113A28.7,28.7,0,0,1,28,25.261Z" style="fill: #334966"/>
  <g id="Rectangle">
    <rect y="12" width="48" height="2" style="fill: #334966"/>
  </g>
  <g id="Rectangle-2">
    <rect x="38" y="8" width="2" height="2" style="fill: #334966"/>
  </g>
  <g id="Rectangle-2-Copy-2">
    <rect x="34" y="8" width="2" height="2" style="fill: #334966"/>
  </g>
  <g id="Rectangle-2-Copy">
    <rect x="42" y="8" width="2" height="2" style="fill: #334966"/>
  </g>
  <g id="Rectangle-4">
    <rect x="7" y="21" width="12" height="2" style="fill: #00a4ff"/>
  </g>
  <g id="Rectangle-4-Copy">
    <rect x="7" y="27" width="12" height="2" style="fill: #00a4ff"/>
  </g>
  <g id="Rectangle-4-Copy-2">
    <rect x="7" y="33" width="12" height="2" style="fill: #00a4ff"/>
  </g>
</svg>
