<?xml version="1.0" encoding="utf-8"?>
<!-- Generator: Adobe Illustrator 22.1.0, SVG Export Plug-In . SVG Version: 6.00 Build 0)  -->
<svg version="1.1" id="svgwrapper_svg" xmlns="http://www.w3.org/2000/svg" xmlns:xlink="http://www.w3.org/1999/xlink" x="0px"
	 y="0px" width="830px" height="891.3px" viewBox="0 0 830 891.3" style="enable-background:new 0 0 830 891.3;"
	 xml:space="preserve">
<style type="text/css">
	.st0{display:none;fill:none;stroke:#999999;}
	.st1{fill:#888888;}
	.st2{fill:#CEE3FF;}
	.st3{fill:#2277DA;}
	.st4{opacity:0.6;fill:#BBBBBB;enable-background:new    ;}
	.st5{fill:#FFFFFF;}
	.st6{fill:#E5E5E5;}
	.st7{fill:#444444;}
	.st8{enable-background:new    ;}
	.st9{fill:none;stroke:#FF0000;stroke-width:15;stroke-opacity:0;}
	.st10{fill:none;stroke:#888888;stroke-miterlimit:10;}
	.st11{fill:#00A4FF;}
	.st12{opacity:0.6;}
	.st13{fill:#BBBBBB;}
	.st14{fill:#BABABA;}
	.st15{fill:#878787;}
</style>
<path class="st0" d="M-1199-1323.1L-1199-1323.1"/>
<g id="Link15_6_" transform="translate(0,0)">
	<rect x="167.1" y="260.4" class="st1" width="1" height="44.5"/>
	<g transform="translate(0, 0.5)">
		<polygon class="st1" points="172.1,263.9 167.6,258.5 163.1,263.9 		"/>
	</g>
</g>
<g id="Link15_7_" transform="translate(0,0)">
	<rect x="416.1" y="260.4" class="st1" width="1" height="44.5"/>
	<g transform="translate(0, 0.5)">
		<polygon class="st1" points="421.1,263.9 416.6,258.5 412.1,263.9 		"/>
	</g>
</g>
<g id="Link15_10_" transform="translate(0,0)">
	<rect x="416.1" y="577.7" class="st1" width="1" height="24.5"/>
	<g transform="translate(0, 0.5)">
		<polygon class="st1" points="421.1,581.2 416.6,575.8 412.1,581.2 		"/>
	</g>
</g>
<g id="Link15_12_" transform="translate(0,0)">
	<rect x="668.5" y="577.7" class="st1" width="1" height="24.5"/>
	<g transform="translate(0, 0.5)">
		<polygon class="st1" points="673.5,581.2 669,575.8 664.5,581.2 		"/>
	</g>
</g>
<g id="Link15_11_" transform="translate(0,0)">
	<rect x="170.3" y="577.7" class="st1" width="1" height="24.5"/>
	<g transform="translate(0, 0.5)">
		<polygon class="st1" points="175.3,581.2 170.8,575.8 166.3,581.2 		"/>
	</g>
</g>
<g id="Link15_13_" transform="translate(0,0)">
	<rect x="170.3" y="668.3" class="st1" width="1" height="34.5"/>
	<g transform="translate(0, 0.5)">
		<polygon class="st1" points="175.3,671.9 170.8,666.5 166.3,671.9 		"/>
	</g>
</g>
<g id="Link15_9_" transform="translate(0,0)">
	<rect x="167.1" y="371.1" class="st1" width="1" height="34.5"/>
	<g transform="translate(0, 0.5)">
		<polygon class="st1" points="172.1,374.6 167.6,369.2 163.1,374.6 		"/>
	</g>
</g>
<g id="Link15_8_" transform="translate(0,0)">
	<rect x="416.1" y="371.1" class="st1" width="1" height="34.5"/>
	<g transform="translate(0, 0.5)">
		<polygon class="st1" points="421.1,374.6 416.6,369.2 412.1,374.6 		"/>
	</g>
</g>
<g id="assistantgroup" transform="translate(0,0)">
</g>
<g>
	<polygon class="st2" points="770.4,566.3 65.4,565.5 65.8,405.5 770.8,406.3 	"/>
	<g>
		<g>
			<path class="st3" d="M80,420.8v-1.7c-0.7,0.1-1.3,0.2-2,0.2l-0.3-1.3c2-0.1,3.8-0.4,5.4-0.8l0.5,1.2c-0.7,0.2-1.4,0.3-2.2,0.5
				v1.9h2.2v1.3h-2.2v0.4c0.7,0.6,1.4,1.3,2,2.1l-0.8,1.1c-0.5-0.8-0.9-1.5-1.3-2v6.2H80V424c-0.5,1.2-1.2,2.3-2.1,3.3l-0.6-1.5
				c1.2-1.1,2.1-2.4,2.6-3.8h-2.3v-1.3L80,420.8z M90.1,429.8l-1.3,0.3c-0.1-0.5-0.2-1-0.3-1.5c-1.8,0.3-3.8,0.7-5.9,1l-0.2-1.3
				c0.4-0.1,0.6-0.2,0.6-0.4l2.9-10.3l1.3,0.2l-2.9,10.3c1.5-0.2,2.8-0.4,3.9-0.6c-0.4-1.4-0.8-2.8-1.2-4.1l1.2-0.4
				C88.9,424.9,89.5,427.2,90.1,429.8z"/>
			<path class="st3" d="M95.8,427.2v2.9h-1.2v-7c-0.7,0.9-1.5,1.6-2.4,2.4l-0.9-1.1c1.6-1.3,2.9-2.8,3.9-4.4h-3.5v-1.3h4.1
				c0.2-0.5,0.4-1,0.6-1.5l1.4,0.2c-0.1,0.5-0.3,0.9-0.5,1.4h6.8v1.3h-7.3c-0.2,0.5-0.5,0.9-0.7,1.3h6.4v7.6c0,0.8-0.5,1.2-1.3,1.2
				h-1.6l-0.3-1.2c0.5,0,1,0.1,1.5,0.1c0.3,0,0.5-0.2,0.5-0.5v-1.3L95.8,427.2z M95.8,424.8v1.2h5.2v-1.2H95.8z M95.8,423.7h5.2
				v-1.2h-5.2V423.7z"/>
			<path class="st3" d="M114.6,430.1l-0.3-1.3l1.3,0.1c0.3,0,0.5-0.2,0.5-0.5V419h-8.8v11.2H106v-12.4h11.4v10.9
				c0,1-0.5,1.4-1.4,1.4L114.6,430.1z M110.1,425.3c-0.5,1.3-1,2.3-1.7,3.3l-0.9-1c0.7-1,1.2-2.2,1.7-3.5c-0.6-0.8-1.2-1.6-1.8-2.3
				l0.8-0.8c0.4,0.5,0.9,1.1,1.5,1.7c0.2-0.9,0.4-1.8,0.5-2.8l1.2,0.2c-0.2,1.4-0.5,2.7-0.8,3.8c0.5,0.7,1,1.4,1.5,2.2l-0.9,0.9
				C110.8,426.3,110.4,425.8,110.1,425.3z M114,425.6c-0.5,1.3-1.1,2.3-1.8,3.3l-0.8-1c0.7-1,1.3-2.2,1.8-3.5
				c-0.6-0.9-1.2-1.7-1.8-2.5l0.8-0.8c0.4,0.5,0.9,1.1,1.4,1.8c0.3-1,0.5-2,0.6-3l1.2,0.2c-0.3,1.5-0.6,2.9-1,4.2
				c0.5,0.8,1,1.6,1.6,2.5l-0.9,0.9C114.8,426.9,114.4,426.2,114,425.6z"/>
			<path class="st3" d="M122.9,417.7c-0.7,1.7-1.3,3.1-2,4.1c0.5-0.1,1-0.1,1.4-0.2c0.2-0.5,0.5-1,0.7-1.5l1.1,0.4
				c0,0.1-0.1,0.1-0.1,0.2c1.2-0.9,1.9-2.1,2.3-3.5l1.3,0.2c-0.1,0.3-0.2,0.6-0.3,0.9h3.7v1c-0.5,1.1-1.2,2.1-2.1,2.9
				c1,0.6,2.1,1.2,3.3,1.5l-0.7,1.1c-1.4-0.4-2.6-1-3.6-1.8c-1,0.7-2.1,1.3-3.5,1.8l-0.8-1.1c1.3-0.5,2.4-1,3.3-1.6
				c-0.4-0.5-0.8-0.9-1.1-1.5c-0.4,0.4-0.7,0.7-1.1,1.1l-0.7-1c-1,2-1.9,3.5-2.6,4.4c0.9-0.2,1.8-0.5,2.6-0.8v1.2
				c-1.5,0.5-2.9,0.9-4.2,1.1l-0.3-1.2c0.2-0.1,0.4-0.2,0.6-0.4c0.4-0.5,1-1.3,1.6-2.4c-0.6,0.1-1.3,0.2-2,0.3l-0.3-1.2
				c0.2-0.1,0.4-0.3,0.6-0.5c0.7-1.3,1.3-2.6,1.8-4.2L122.9,417.7z M124.4,428.5c-1.4,0.5-2.9,0.9-4.7,1.2l-0.1-1.3
				c1.8-0.3,3.4-0.7,4.8-1.2L124.4,428.5z M131,430.1h-1.3v-0.5h-3.4v0.5H125v-5.3h6V430.1z M129.8,428.4V426h-3.4v2.4H129.8z
				 M128,421.6c0.7-0.6,1.2-1.2,1.6-1.9h-2.8l-0.2,0.3C127,420.5,127.5,421.1,128,421.6z"/>
		</g>
	</g>
</g>
<g>
	<polygon class="st2" points="277.8,255.9 65.8,255 65.4,0 277.4,0.9 	"/>
</g>
<g id="ShadowBasicRect6_19_" transform="translate(485,236)">
	<rect x="-221.6" y="219.5" class="st4" width="50" height="90.4"/>
	<g>
		<rect x="-223.6" y="217.5" class="st5" width="50" height="90.4"/>
		<path class="st6" d="M-224.1,308.4V217h51v91.4H-224.1z M-223.1,218v89.4h49V218H-223.1z"/>
	</g>
	<g transform="translate(20 9)">
		<g>
			<g>
				<path class="st7" d="M-215.6,240l-0.3-1h1.3c0.4,0,0.6-0.2,0.6-0.6v-9.7h-9.2V240h-1v-12.2h11.2v10.9c0,0.9-0.4,1.3-1.2,1.3
					L-215.6,240L-215.6,240z M-220.3,234.8c-0.5,1.4-1.1,2.5-1.8,3.5l-0.6-0.8c0.7-1,1.3-2.3,1.8-3.7c-0.7-0.9-1.3-1.7-2-2.5
					l0.6-0.6c0.5,0.5,1.1,1.2,1.7,2c0.3-1,0.5-2,0.7-3.2l0.9,0.2c-0.2,1.4-0.5,2.8-0.9,4c0.5,0.7,1.1,1.5,1.7,2.4l-0.7,0.7
					C-219.4,236.1-219.9,235.5-220.3,234.8z M-216.3,235.2c-0.6,1.4-1.2,2.5-2,3.5l-0.6-0.8c0.8-1.1,1.4-2.3,2-3.7
					c-0.6-1-1.3-1.8-1.9-2.6l0.6-0.6c0.5,0.6,1.1,1.3,1.7,2.1c0.3-1.1,0.5-2.2,0.7-3.4l1,0.2c-0.3,1.6-0.6,3-1,4.2
					c0.5,0.8,1.1,1.7,1.7,2.7l-0.7,0.7C-215.4,236.7-215.8,235.9-216.3,235.2z"/>
				<path class="st7" d="M-221.5,241.5c-0.7,1.8-1.4,3.2-2.1,4.3c0.6-0.1,1.2-0.2,1.8-0.3c0.2-0.5,0.5-1,0.7-1.5l0.9,0.3
					c-1.2,2.4-2.2,4-3,5.1c1-0.2,2-0.5,3-0.9v0.9c-1.4,0.5-2.8,0.9-4.1,1l-0.3-0.9c0.2-0.1,0.3-0.2,0.4-0.3c0.5-0.6,1.1-1.5,1.9-2.8
					c-0.8,0.1-1.5,0.3-2.3,0.4l-0.3-0.9c0.2-0.1,0.3-0.2,0.4-0.4c0.7-1.3,1.4-2.7,1.9-4.4L-221.5,241.5z M-219.9,252.2
					c-1.4,0.5-2.9,1-4.7,1.3l-0.1-1c1.8-0.3,3.4-0.7,4.8-1.2V252.2z M-216.7,241.3c-0.1,0.4-0.3,0.8-0.4,1.1h3.8v0.7
					c-0.5,1.2-1.3,2.2-2.2,3.1c1,0.7,2.2,1.3,3.5,1.7l-0.6,0.8c-1.5-0.4-2.7-1.1-3.7-1.9c-1,0.8-2.2,1.4-3.6,1.9l-0.6-0.8
					c1.3-0.5,2.5-1.1,3.5-1.8c-0.5-0.5-1-1.1-1.4-1.7c-0.4,0.4-0.8,0.9-1.3,1.2l-0.6-0.8c1.2-1,2.1-2.3,2.5-3.8L-216.7,241.3z
					 M-213.3,254h-1v-0.6h-3.8v0.6h-1v-5.2h5.8V254z M-214.3,252.4v-2.7h-3.8v2.7H-214.3z M-216.3,245.6c0.8-0.7,1.4-1.4,1.9-2.3
					h-3.2c-0.1,0.1-0.2,0.3-0.3,0.4C-217.4,244.5-216.9,245.1-216.3,245.6z"/>
				<path class="st7" d="M-213.6,259.9l-10,3.9v-1.2l2.8-1.1v-4.6l-2.8-1.1v-1.2l10,3.9V259.9z M-219.8,261.1l5-1.9v-0.1l-5-1.9
					V261.1z"/>
				<path class="st7" d="M-214.3,271.9c-0.6,0.8-1.4,1.2-2.4,1.3v-1.1c0.7-0.1,1.3-0.5,1.7-1.1c0.4-0.5,0.6-1.2,0.6-2
					c0-1.2-0.4-2.1-1.2-2.7s-1.8-0.9-3-0.9s-2.2,0.3-3,0.9s-1.2,1.5-1.2,2.7c0,0.8,0.2,1.5,0.6,2c0.4,0.6,1.1,1,2,1.2v1.1
					c-1.2-0.2-2.1-0.7-2.7-1.6c-0.6-0.8-0.9-1.7-0.9-2.8c0-1.6,0.5-2.7,1.5-3.6c0.9-0.8,2.1-1.1,3.6-1.1s2.7,0.4,3.7,1.1
					c1.1,0.8,1.6,2,1.6,3.6C-213.4,270.2-213.7,271.2-214.3,271.9z"/>
				<path class="st7" d="M-213.6,276.1h-9v5.8h-1V275h10V276.1z"/>
			</g>
		</g>
	</g>
</g>
<g id="ShadowBasicRect6_20_" transform="translate(485,236)">
	<rect x="48.6" y="219.5" class="st4" width="50" height="90.4"/>
	<g>
		<rect x="46.6" y="217.5" class="st5" width="50" height="90.4"/>
		<path class="st6" d="M46.1,308.4V217h51v91.4H46.1z M47.1,218v89.4h49V218H47.1z"/>
	</g>
	<g transform="translate(20 9)">
		<g>
			<g>
				<path class="st7" d="M54.5,240l-0.3-1h1.3c0.4,0,0.6-0.2,0.6-0.6v-9.7H47V240h-1v-12.2h11.2v10.9c0,0.9-0.4,1.3-1.2,1.3
					L54.5,240L54.5,240z M49.8,234.8c-0.5,1.4-1.1,2.5-1.8,3.5l-0.6-0.8c0.7-1,1.3-2.3,1.8-3.7c-0.7-0.9-1.3-1.7-2-2.5l0.6-0.6
					c0.5,0.5,1.1,1.2,1.7,2c0.3-1,0.5-2,0.7-3.2l0.9,0.2c-0.2,1.4-0.5,2.8-0.9,4c0.5,0.7,1.1,1.5,1.7,2.4l-0.7,0.7
					C50.7,236.1,50.3,235.5,49.8,234.8z M53.8,235.2c-0.6,1.4-1.2,2.5-2,3.5l-0.6-0.8c0.8-1.1,1.4-2.3,2-3.7c-0.6-1-1.3-1.8-1.9-2.6
					l0.6-0.6c0.5,0.6,1.1,1.3,1.7,2.1c0.3-1.1,0.5-2.2,0.7-3.4l1,0.2c-0.3,1.6-0.6,3-1,4.2c0.5,0.8,1.1,1.7,1.7,2.7l-0.7,0.7
					C54.8,236.7,54.3,235.9,53.8,235.2z"/>
				<path class="st7" d="M48.6,241.5c-0.7,1.8-1.4,3.2-2.1,4.3c0.6-0.1,1.2-0.2,1.8-0.3c0.2-0.5,0.5-1,0.7-1.5l1,0.4
					c-1.2,2.4-2.2,4-3,5.1c1-0.2,2-0.5,3-0.9v0.9c-1.4,0.5-2.8,0.9-4.1,1l-0.3-0.9c0.2-0.1,0.3-0.2,0.4-0.3c0.5-0.6,1.1-1.5,1.9-2.8
					c-0.8,0.1-1.5,0.3-2.3,0.4l-0.3-0.9c0.2-0.1,0.3-0.2,0.4-0.4c0.7-1.3,1.4-2.7,1.9-4.4L48.6,241.5z M50.2,252.2
					c-1.4,0.5-2.9,1-4.7,1.3l-0.1-1c1.8-0.3,3.4-0.7,4.8-1.2V252.2z M53.4,241.3c-0.1,0.4-0.3,0.8-0.4,1.1h3.8v0.7
					c-0.5,1.2-1.3,2.2-2.2,3.1c1,0.7,2.2,1.3,3.5,1.7l-0.6,0.8c-1.5-0.4-2.7-1.1-3.7-1.9c-1,0.8-2.2,1.4-3.6,1.9l-0.6-0.8
					c1.3-0.5,2.5-1.1,3.5-1.8c-0.5-0.5-1-1.1-1.4-1.7c-0.4,0.4-0.8,0.9-1.3,1.2l-0.6-0.8c1.2-1,2.1-2.3,2.5-3.8L53.4,241.3z
					 M56.8,254h-1v-0.6H52v0.6h-1v-5.2h5.8V254z M55.8,252.4v-2.7H52v2.7H55.8z M53.8,245.6c0.8-0.7,1.4-1.4,1.9-2.3h-3.2
					c-0.1,0.1-0.2,0.3-0.3,0.4C52.7,244.5,53.2,245.1,53.8,245.6z"/>
				<path class="st7" d="M56.6,259.9l-10,3.9v-1.2l2.8-1.1v-4.6l-2.8-1.1v-1.2l10,3.9V259.9z M50.3,261.1l5-1.9v-0.1l-5-1.9V261.1z"
					/>
				<path class="st7" d="M55.9,271.9c-0.6,0.8-1.4,1.2-2.4,1.3v-1.1c0.7-0.1,1.3-0.5,1.7-1.1c0.4-0.5,0.6-1.2,0.6-2
					c0-1.2-0.4-2.1-1.2-2.7s-1.8-0.9-3-0.9s-2.2,0.3-3,0.9s-1.2,1.5-1.2,2.7c0,0.8,0.2,1.5,0.6,2c0.4,0.6,1.1,1,2,1.2v1.1
					c-1.2-0.2-2.1-0.7-2.7-1.6c-0.6-0.8-0.9-1.7-0.9-2.8c0-1.6,0.5-2.7,1.5-3.6c0.9-0.8,2.1-1.1,3.6-1.1s2.7,0.4,3.7,1.1
					c1.1,0.8,1.6,2,1.6,3.6C56.7,270.2,56.5,271.2,55.9,271.9z"/>
				<path class="st7" d="M56.6,276.1h-9v5.8h-1V275h10V276.1z"/>
			</g>
		</g>
	</g>
</g>
<g id="ShadowBasicRect6_17_" transform="translate(485,236)">
	<rect x="-360.4" y="74.5" class="st4" width="96.4" height="50"/>
	<g>
		<rect x="-362.4" y="72.5" class="st5" width="96.4" height="50"/>
		<path class="st6" d="M-265.4,123h-97.4V72h97.4V123z M-361.9,122h95.4V73h-95.4V122z"/>
	</g>
	<g transform="translate(20 9)">
		<g class="st8">
			<path class="st7" d="M-353.6,88.1v-2c1.2-0.7,2.4-1.5,3.4-2.5h-7.9v-1h9.2v1c-1.1,1-2.4,2-3.8,3v1.5h5.3v1h-5.3v4.5
				c0,0.8-0.4,1.3-1.3,1.3h-2.4l-0.3-1c0.7,0,1.4,0,2.3,0c0.4,0,0.7-0.2,0.7-0.6v-4.2h-5.9v-1C-359.6,88.1-353.6,88.1-353.6,88.1z"
				/>
			<path class="st7" d="M-336.4,94.8l-0.3-1h1.3c0.4,0,0.6-0.2,0.6-0.6v-9.7h-9.2v11.3h-1V82.6h11.2v10.9c0,0.9-0.4,1.3-1.2,1.3
				L-336.4,94.8L-336.4,94.8z M-341.1,89.7c-0.5,1.4-1.1,2.5-1.8,3.5l-0.6-0.8c0.7-1,1.3-2.3,1.8-3.7c-0.7-0.9-1.3-1.7-2-2.5
				l0.6-0.6c0.5,0.5,1.1,1.2,1.7,2c0.3-1,0.5-2,0.7-3.2l0.9,0.2c-0.2,1.4-0.5,2.8-0.9,4c0.5,0.7,1.1,1.5,1.7,2.4l-0.7,0.7
				C-340.2,91-340.7,90.3-341.1,89.7z M-337.1,90c-0.6,1.4-1.2,2.5-2,3.5l-0.6-0.8c0.8-1.1,1.4-2.3,2-3.7c-0.6-1-1.3-1.8-1.9-2.6
				l0.6-0.6c0.5,0.6,1.1,1.3,1.7,2.1c0.3-1.1,0.5-2.2,0.7-3.4l1,0.2c-0.3,1.6-0.6,3-1,4.2c0.5,0.8,1.1,1.7,1.7,2.7l-0.7,0.7
				C-336.1,91.5-336.6,90.8-337.1,90z"/>
			<path class="st7" d="M-326.8,82.6V87h-1.4v2.3h1.5v1h-1.5v2.6c0.6-0.2,1.2-0.4,1.8-0.6v1c-1.5,0.5-3.2,1.1-5.1,1.5l-0.3-1
				l0.7-0.2v-5.1h0.9v4.9c0.4-0.1,0.7-0.2,1-0.3V87h-2v-4.4C-331.2,82.6-326.8,82.6-326.8,82.6z M-327.7,83.5h-2.4V86h2.4V83.5z
				 M-323.2,82.2c-0.1,0.4-0.2,0.7-0.4,1h3.5v0.7c-0.5,1.2-1.2,2.2-2.1,3.1c0.9,0.8,2,1.3,3.3,1.8l-0.6,0.8
				c-1.4-0.4-2.5-1.1-3.5-1.9c-1,0.8-2.1,1.4-3.4,2l-0.6-0.8c1.3-0.5,2.4-1.1,3.3-1.9c-0.5-0.5-0.9-1.1-1.3-1.8
				c-0.4,0.4-0.8,0.8-1.2,1.2l-0.6-0.8c1.2-1,2.1-2.2,2.5-3.6L-323.2,82.2z M-320.1,94.9h-1v-0.6h-3.5v0.6h-1v-5.2h5.5V94.9z
				 M-321.1,93.3v-2.7h-3.5v2.7H-321.1z M-322.8,86.4c0.7-0.7,1.3-1.5,1.7-2.3h-2.9c-0.1,0.1-0.2,0.2-0.2,0.4
				C-323.9,85.2-323.4,85.9-322.8,86.4z"/>
			<path class="st7" d="M-306.1,94.8h-1v-0.9h-8.4v0.9h-1V84.3h4.7v-2.2h1v2.2h4.7L-306.1,94.8L-306.1,94.8z M-311.9,88.5v-3.2h-3.7
				v3.2H-311.9z M-311.9,92.9v-3.5h-3.7v3.5H-311.9z M-310.8,88.5h3.7v-3.2h-3.7V88.5z M-307.1,92.9v-3.5h-3.7v3.5H-307.1z"/>
		</g>
	</g>
</g>
<g id="ShadowBasicRect6_21_" transform="translate(485,236)">
	<rect x="-360.4" y="369" class="st4" width="96.4" height="50"/>
	<g>
		<rect x="-362.4" y="367" class="st5" width="96.4" height="50"/>
		<path class="st6" d="M-265.4,417.5h-97.4v-51h97.4V417.5z M-361.9,416.5h95.4v-49h-95.4V416.5z"/>
	</g>
	<g transform="translate(20 9)">
		<g class="st8">
			<path class="st7" d="M-350.4,381.8c0.4-0.8,0.8-1.5,1.2-2.3l1,0.3c-0.4,0.7-0.7,1.4-1.1,2h7.2v1h-2.8c-0.6,1.5-1.2,2.6-2,3.5
				c1.4,0.6,2.9,1.3,4.4,2.2l-0.7,0.9c-1.5-0.9-3-1.7-4.5-2.3c-1.6,1.4-3.6,2.1-6.2,2.2l-0.6-0.9c2.4,0,4.3-0.6,5.8-1.7
				c-1.3-0.6-2.6-1.1-3.9-1.5c0.5-0.8,1-1.6,1.4-2.3h-3.4v-1h4.2V381.8z M-342.3,380.9h-1v-2h-9.6v2h-1v-3h5.3
				c-0.2-0.5-0.4-0.9-0.6-1.3l1.1-0.2c0.2,0.4,0.4,0.9,0.6,1.5h5.2V380.9z M-350.9,384.7c1.1,0.3,2.1,0.7,3.2,1.2
				c0.8-0.8,1.4-1.9,1.8-3.1h-3.9C-350.2,383.5-350.6,384.2-350.9,384.7z"/>
			<path class="st7" d="M-333.8,376.6c1.8,1.8,3.8,3.3,6.1,4.4l-0.5,0.9c-2.3-1.1-4.3-2.6-6-4.3c-1.5,1.7-3.5,3.2-6,4.4l-0.5-0.9
				c2.5-1.2,4.5-2.7,6.1-4.4h0.8V376.6z M-330.2,381v1h-3.4v2.4h4v1h-4v2.6h5.3v1H-340v-1h5.3v-2.6h-4.1v-1h4.1V382h-3.4v-1H-330.2z
				"/>
			<path class="st7" d="M-322.9,376.9c-0.8,1.7-1.5,3.1-2.3,4.2c0.7-0.1,1.3-0.2,2-0.3c0.3-0.5,0.6-1.1,0.9-1.7l0.9,0.4
				c-1.3,2.4-2.5,4.1-3.3,5.1c1-0.2,2.1-0.5,3.1-0.9v0.9c-1.5,0.5-3,0.9-4.4,1.1l-0.3-0.9c0.2-0.1,0.3-0.2,0.5-0.3
				c0.6-0.5,1.2-1.5,2-2.8c-0.8,0.1-1.6,0.2-2.5,0.4l-0.3-0.9c0.2-0.1,0.3-0.2,0.4-0.4c0.8-1.2,1.5-2.6,2.2-4.2L-322.9,376.9z
				 M-321.6,387.2c-1.3,0.6-2.8,1.1-4.5,1.5l-0.1-1c1.8-0.4,3.3-0.8,4.7-1.4v0.9H-321.6z M-315,387.9h1.2v1h-8.1v-1h1.2v-10.7h5.7
				L-315,387.9L-315,387.9z M-316,380.7v-2.5h-3.7v2.5H-316z M-316,384.3v-2.6h-3.7v2.6H-316z M-316,387.9v-2.7h-3.7v2.7H-316z"/>
		</g>
	</g>
</g>
<g id="ShadowBasicRect6_22_" transform="translate(485,236)">
	<rect x="-111.3" y="369" class="st4" width="96.4" height="50"/>
	<g>
		<rect x="-113.3" y="367" class="st5" width="96.4" height="50"/>
		<path class="st6" d="M-16.4,417.5h-97.4v-51h97.4C-16.4,366.5-16.4,417.5-16.4,417.5z M-112.8,416.5h95.4v-49h-95.4V416.5z"/>
	</g>
	<g transform="translate(20 9)">
		<g class="st8">
			<path class="st7" d="M-101.3,381.8c0.4-0.8,0.8-1.5,1.2-2.3l1,0.3c-0.4,0.7-0.7,1.4-1.1,2h7.2v1h-2.8c-0.6,1.5-1.2,2.6-2,3.5
				c1.4,0.6,2.9,1.3,4.4,2.2l-0.7,0.9c-1.5-0.9-3-1.7-4.5-2.3c-1.6,1.4-3.6,2.1-6.2,2.2l-0.6-0.9c2.4,0,4.3-0.6,5.8-1.7
				c-1.3-0.6-2.6-1.1-3.9-1.5c0.5-0.8,1-1.6,1.4-2.3h-3.4v-1h4.2V381.8z M-93.2,380.9h-1v-2h-9.6v2h-1v-3h5.3
				c-0.2-0.5-0.4-0.9-0.6-1.3l1.1-0.2c0.2,0.4,0.4,0.9,0.6,1.5h5.2V380.9z M-101.8,384.7c1.1,0.3,2.1,0.7,3.2,1.2
				c0.8-0.8,1.4-1.9,1.8-3.1h-3.9C-101.1,383.5-101.5,384.2-101.8,384.7z"/>
			<path class="st7" d="M-84.7,376.6c1.8,1.8,3.8,3.3,6.1,4.4l-0.5,0.9c-2.3-1.1-4.3-2.6-6-4.3c-1.5,1.7-3.5,3.2-6,4.4l-0.5-0.9
				c2.5-1.2,4.5-2.7,6.1-4.4h0.8V376.6z M-81.1,381v1h-3.4v2.4h4v1h-4v2.6h5.3v1h-11.7v-1h5.3v-2.6h-4.1v-1h4.1V382H-89v-1H-81.1z"
				/>
			<path class="st7" d="M-73.8,376.9c-0.8,1.7-1.5,3.1-2.3,4.2c0.7-0.1,1.3-0.2,2-0.3c0.3-0.5,0.6-1.1,0.9-1.7l0.9,0.4
				c-1.3,2.4-2.5,4.1-3.3,5.1c1-0.2,2.1-0.5,3.1-0.9v0.9c-1.5,0.5-3,0.9-4.4,1.1l-0.3-0.9c0.2-0.1,0.3-0.2,0.5-0.3
				c0.6-0.5,1.2-1.5,2-2.8c-0.8,0.1-1.6,0.2-2.5,0.4l-0.3-0.9c0.2-0.1,0.3-0.2,0.4-0.4c0.8-1.2,1.5-2.6,2.2-4.2L-73.8,376.9z
				 M-72.5,387.2c-1.3,0.6-2.8,1.1-4.5,1.5l-0.1-1c1.8-0.4,3.3-0.8,4.7-1.4L-72.5,387.2L-72.5,387.2z M-65.9,387.9h1.2v1h-8.1v-1
				h1.2v-10.7h5.7C-65.9,377.2-65.9,387.9-65.9,387.9z M-66.9,380.7v-2.5h-3.7v2.5H-66.9z M-66.9,384.3v-2.6h-3.7v2.6H-66.9z
				 M-66.9,387.9v-2.7h-3.7v2.7H-66.9z"/>
		</g>
	</g>
</g>
<g id="ShadowBasicRect6_23_" transform="translate(485,236)">
	<rect x="137.8" y="369" class="st4" width="96.4" height="50"/>
	<g>
		<rect x="135.8" y="367" class="st5" width="96.4" height="50"/>
		<path class="st6" d="M232.7,417.5h-97.4v-51h97.4L232.7,417.5L232.7,417.5z M136.3,416.5h95.4v-49h-95.4L136.3,416.5L136.3,416.5z
			"/>
	</g>
	<g transform="translate(20 9)">
		<g class="st8">
			<path class="st7" d="M147.8,381.8c0.4-0.8,0.8-1.5,1.2-2.3l1,0.3c-0.4,0.7-0.7,1.4-1.1,2h7.2v1h-2.8c-0.6,1.5-1.2,2.6-2,3.5
				c1.4,0.6,2.9,1.3,4.4,2.2l-0.7,0.9c-1.5-0.9-3-1.7-4.5-2.3c-1.6,1.4-3.6,2.1-6.2,2.2l-0.6-0.9c2.4,0,4.3-0.6,5.8-1.7
				c-1.3-0.6-2.6-1.1-3.9-1.5c0.5-0.8,1-1.6,1.4-2.3h-3.4v-1h4.2V381.8z M155.9,380.9h-1v-2h-9.6v2h-1v-3h5.3
				c-0.2-0.5-0.4-0.9-0.6-1.3l1.1-0.2c0.2,0.4,0.4,0.9,0.6,1.5h5.2V380.9z M147.3,384.7c1.1,0.3,2.1,0.7,3.2,1.2
				c0.8-0.8,1.4-1.9,1.8-3.1h-3.9C148,383.5,147.6,384.2,147.3,384.7z"/>
			<path class="st7" d="M164.4,376.6c1.8,1.8,3.8,3.3,6.1,4.4l-0.5,0.9c-2.3-1.1-4.3-2.6-6-4.3c-1.5,1.7-3.5,3.2-6,4.4l-0.5-0.9
				c2.5-1.2,4.5-2.7,6.1-4.4h0.8V376.6z M168,381v1h-3.4v2.4h4v1h-4v2.6h5.3v1h-11.7v-1h5.3v-2.6h-4.1v-1h4.1V382h-3.4v-1H168z"/>
			<path class="st7" d="M175.3,376.9c-0.8,1.7-1.5,3.1-2.3,4.2c0.7-0.1,1.3-0.2,2-0.3c0.3-0.5,0.6-1.1,0.9-1.7l0.9,0.4
				c-1.3,2.4-2.5,4.1-3.3,5.1c1-0.2,2.1-0.5,3.1-0.9v0.9c-1.5,0.5-3,0.9-4.4,1.1l-0.3-0.9c0.2-0.1,0.3-0.2,0.5-0.3
				c0.6-0.5,1.2-1.5,2-2.8c-0.8,0.1-1.6,0.2-2.5,0.4l-0.3-0.9c0.2-0.1,0.3-0.2,0.4-0.4c0.8-1.2,1.5-2.6,2.2-4.2L175.3,376.9z
				 M176.6,387.2c-1.3,0.6-2.8,1.1-4.5,1.5l-0.1-1c1.8-0.4,3.3-0.8,4.7-1.4L176.6,387.2L176.6,387.2z M183.2,387.9h1.2v1h-8.1v-1
				h1.2v-10.7h5.7L183.2,387.9L183.2,387.9z M182.2,380.7v-2.5h-3.7v2.5H182.2z M182.2,384.3v-2.6h-3.7v2.6H182.2z M182.2,387.9
				v-2.7h-3.7v2.7H182.2z"/>
		</g>
	</g>
</g>
<g id="ShadowBasicRect6_18_" transform="translate(485,236)">
	<rect x="-112.5" y="74.5" class="st4" width="96.4" height="50"/>
	<g>
		<rect x="-114.5" y="72.5" class="st5" width="96.4" height="50"/>
		<path class="st6" d="M-17.6,123H-115V72h97.4C-17.6,72-17.6,123-17.6,123z M-114,122h95.4V73H-114V122z"/>
	</g>
	<g transform="translate(20 9)">
		<g class="st8">
			<path class="st7" d="M-105.7,88.1v-2c1.2-0.7,2.4-1.5,3.4-2.5h-7.9v-1h9.2v1c-1.1,1-2.4,2-3.8,3v1.5h5.3v1h-5.3v4.5
				c0,0.8-0.4,1.3-1.3,1.3h-2.4l-0.3-1c0.7,0,1.4,0,2.3,0c0.4,0,0.7-0.2,0.7-0.6v-4.2h-5.9v-1C-111.7,88.1-105.7,88.1-105.7,88.1z"
				/>
			<path class="st7" d="M-88.6,94.8l-0.3-1h1.3c0.4,0,0.6-0.2,0.6-0.6v-9.7h-9.2v11.3h-1V82.6H-86v10.9c0,0.9-0.4,1.3-1.2,1.3
				L-88.6,94.8L-88.6,94.8z M-93.2,89.7c-0.5,1.4-1.1,2.5-1.8,3.5l-0.6-0.8c0.7-1,1.3-2.3,1.8-3.7c-0.7-0.9-1.3-1.7-2-2.5l0.6-0.6
				c0.5,0.5,1.1,1.2,1.7,2c0.3-1,0.5-2,0.7-3.2l0.9,0.2c-0.2,1.4-0.5,2.8-0.9,4c0.5,0.7,1.1,1.5,1.7,2.4l-0.7,0.7
				C-92.4,91-92.8,90.3-93.2,89.7z M-89.2,90c-0.6,1.4-1.2,2.5-2,3.5l-0.6-0.8c0.8-1.1,1.4-2.3,2-3.7c-0.6-1-1.3-1.8-1.9-2.6
				l0.6-0.6c0.5,0.6,1.1,1.3,1.7,2.1c0.3-1.1,0.5-2.2,0.7-3.4l1,0.2c-0.3,1.6-0.6,3-1,4.2c0.5,0.8,1.1,1.7,1.7,2.7l-0.7,0.7
				C-88.3,91.5-88.8,90.8-89.2,90z"/>
			<path class="st7" d="M-78.9,82.6V87h-1.4v2.3h1.5v1h-1.5v2.6c0.6-0.2,1.2-0.4,1.8-0.6v1c-1.5,0.5-3.2,1.1-5.1,1.5l-0.3-1l0.7-0.2
				v-5.1h0.9v4.9c0.4-0.1,0.7-0.2,1-0.3V87h-2v-4.4C-83.3,82.6-78.9,82.6-78.9,82.6z M-79.9,83.5h-2.4V86h2.4V83.5z M-75.3,82.2
				c-0.1,0.4-0.2,0.7-0.4,1h3.5v0.7c-0.5,1.2-1.2,2.2-2.1,3.1c0.9,0.8,2,1.3,3.3,1.8l-0.6,0.8c-1.4-0.4-2.5-1.1-3.5-1.9
				c-1,0.8-2.1,1.4-3.4,2l-0.6-0.8c1.3-0.5,2.4-1.1,3.3-1.9c-0.5-0.5-0.9-1.1-1.3-1.8c-0.4,0.4-0.8,0.8-1.2,1.2l-0.6-0.8
				c1.2-1,2.1-2.2,2.5-3.6L-75.3,82.2z M-72.2,94.9h-1v-0.6h-3.5v0.6h-1v-5.2h5.5V94.9z M-73.2,93.3v-2.7h-3.5v2.7H-73.2z M-75,86.4
				c0.7-0.7,1.3-1.5,1.7-2.3h-2.9c-0.1,0.1-0.2,0.2-0.2,0.4C-76,85.2-75.6,85.9-75,86.4z"/>
			<path class="st7" d="M-58.3,94.8h-1v-0.9h-8.4v0.9h-1V84.3h4.7v-2.2h1v2.2h4.7C-58.3,84.3-58.3,94.8-58.3,94.8z M-64,88.5v-3.2
				h-3.7v3.2H-64z M-64,92.9v-3.5h-3.7v3.5H-64z M-63,88.5h3.7v-3.2H-63V88.5z M-59.3,92.9v-3.5H-63v3.5H-59.3z"/>
		</g>
	</g>
</g>
<g>
	<g id="Link16_6_" transform="translate(0,0)">
		<polyline class="st1" points="172.3,803.7 676.3,803.7 676.3,773.2 675.3,773.2 675.3,802.7 172.3,802.7 		"/>
		<path class="st9" d="M675.8,773.2"/>
	</g>
	<line class="st10" x1="172.3" y1="775.6" x2="172.3" y2="803.7"/>
</g>
<g id="RectEndPoint8_4_" transform="translate(380,418)">
	<rect x="-289.9" y="-398.6" class="st4" width="153" height="50"/>
	<g>
		<rect x="-291.9" y="-400.6" class="st5" width="153" height="50"/>
		<g>
			<g>
				<path class="st7" d="M-225.1-379.6l5.1,7.4h0.1v-7.4h1.5v10h-1.5l-5.2-7.5h-0.1v7.5h-1.5v-10H-225.1z"/>
				<path class="st7" d="M-211.8-379.6l3.9,10h-1.6l-0.9-2.6h-4.3l-0.9,2.6h-1.6l3.9-10H-211.8z M-211-373.4l-1.7-4.5h-0.1l-1.7,4.5
					H-211z"/>
				<path class="st7" d="M-199.5-379.6v1.3h-3.3v8.7h-1.5v-8.7h-3.3v-1.3H-199.5z"/>
				<path class="st7" d="M-184.7-368.2l-0.3-1.3l1.3,0.1c0.3,0,0.5-0.2,0.5-0.5v-9.4h-8.8v11.2h-1.3v-12.5h11.4v10.9
					c0,1-0.5,1.4-1.4,1.4h-1.4V-368.2z M-189.3-373c-0.5,1.3-1,2.4-1.7,3.3l-0.9-1c0.7-1,1.2-2.2,1.7-3.5c-0.6-0.8-1.2-1.6-1.8-2.3
					l0.8-0.8c0.4,0.5,0.9,1.1,1.5,1.7c0.2-0.9,0.4-1.8,0.5-2.8l1.2,0.2c-0.2,1.4-0.5,2.7-0.8,3.9c0.5,0.7,1,1.4,1.5,2.2l-0.9,0.9
					C-188.6-371.9-188.9-372.5-189.3-373z M-185.4-372.7c-0.5,1.3-1.1,2.4-1.8,3.3l-0.8-1c0.7-1,1.3-2.2,1.8-3.5
					c-0.6-0.9-1.2-1.7-1.8-2.5l0.8-0.8c0.4,0.5,0.9,1.1,1.4,1.8c0.3-1,0.5-2,0.6-3l1.2,0.2c-0.3,1.5-0.6,2.9-1,4.2
					c0.5,0.8,1,1.6,1.6,2.5l-0.9,0.9C-184.5-371.4-185-372.1-185.4-372.7z"/>
				<path class="st7" d="M-174.6-378.7l-0.9,0.4h2.9c0.5-0.8,1-1.8,1.3-2.8l1.3,0.4c-0.3,0.9-0.7,1.8-1.1,2.5h2.7v1.3h-4.6v0.4
					c0,0.7-0.1,1.3-0.2,1.9h5.6v1.3h-4.9c0.7,1.7,2.4,3,5.3,4l-0.8,1.3c-2.9-1.2-4.8-2.8-5.6-4.8c-0.3,0.7-0.6,1.2-0.9,1.8
					c-1,1.3-2.5,2.2-4.7,2.9l-0.7-1.2c2.2-0.7,3.6-1.6,4.4-2.6c0.3-0.4,0.5-0.9,0.7-1.3h-4.8v-1.3h5.2c0.1-0.6,0.2-1.2,0.2-1.9v-0.4
					h-4.6v-1.3h3c-0.5-0.8-1-1.5-1.5-2.2l1.2-0.6C-175.6-380.3-175.1-379.5-174.6-378.7z"/>
			</g>
		</g>
		<path class="st6" d="M-138.4-350.1h-154v-51h154V-350.1z M-291.4-351.1h152v-49h-152V-351.1z"/>
	</g>
</g>
<g id="RectEndPoint8_6_" transform="translate(380,418)">
	<rect x="-289.9" y="-238.7" class="st4" width="153" height="50"/>
	<g>
		<rect x="-291.9" y="-240.7" class="st5" width="153" height="50"/>
		<g>
			<title  xmlns="http://www.w3.org/2000/svg">Product Icons【32】</title>
			<g id="_编组__5_">
				<g id="_编组_2_5_">
					<path id="_复合路径__5_" class="st11" d="M-252-215.7c-1.1,0-2,0.9-2,2s0.9,2,2,2s2-0.9,2-2S-250.9-215.7-252-215.7z
						 M-256-200.7c-7.2,0-13-5.8-13-13s5.8-13,13-13c6.4,0,11.9,4.7,12.9,11h2c-1.1-8.2-8.7-14-16.9-12.9c-8.2,1.1-14,8.7-12.9,16.9
						s8.7,14,16.9,12.9c6.7-0.9,12-6.2,12.9-12.9h-2C-244.2-205.4-249.6-200.7-256-200.7z M-256-217.7v-2h-6v12h6v-2h-4v-3h4v-2h-4
						v-3H-256z M-252-220.7c-1.1,0-2,0.9-2,2s0.9,2,2,2s2-0.9,2-2S-250.9-220.7-252-220.7z M-252-210.7c-1.1,0-2,0.9-2,2s0.9,2,2,2
						s2-0.9,2-2S-250.9-210.7-252-210.7z"/>
				</g>
			</g>
		</g>
		<g>
			<g>
				<path class="st7" d="M-215.7-211.2h-1.3v-5.3h-6.5v5.4h-1.3v-5.9c-0.3,0.3-0.7,0.5-1,0.7l-0.9-1c1.6-1,3-2.3,4.1-4l1.3,0.3
					c-0.2,0.3-0.4,0.5-0.5,0.8h4.5v1c-0.4,0.6-0.9,1.1-1.3,1.5h2.9V-211.2z M-219.6-215.8v2c-0.1,1.5-0.6,2.7-1.5,3.6
					c-0.9,0.8-2.4,1.5-4.4,1.9l-0.7-1.1c2-0.4,3.4-1,4.1-1.7c0.7-0.7,1.1-1.6,1.2-2.8v-2h1.3V-215.8z M-218.9-218.9h-3.7
					c-0.4,0.4-0.8,0.9-1.2,1.3h3.8C-219.7-218-219.3-218.5-218.9-218.9z M-214.4-209.4l-0.7,1.1c-1.6-1.1-3.2-1.9-4.9-2.5l0.7-1
					C-217.6-211-215.9-210.3-214.4-209.4z"/>
				<path class="st7" d="M-209.4-220.2v-1.1h1.3v1.1h2.4v1.2h-2.4v1h3.1c-0.1-1-0.1-2.1-0.1-3.3h1.3c0,1.2,0,2.3,0.1,3.3h3.4v1.2
					h-3.3c0.1,1.2,0.2,2.1,0.3,2.8c0.1,0.3,0.1,0.5,0.2,0.7c0.4-0.9,0.7-1.9,1-3.1l1.2,0.5c-0.4,1.7-1,3.2-1.7,4.3
					c0.1,0.2,0.2,0.4,0.3,0.6c0.3,0.6,0.6,1,0.8,1c0.1,0,0.3-0.7,0.4-2l1.1,0.6c-0.3,1.9-0.8,2.8-1.4,2.8c-0.5,0-1-0.4-1.6-1.3
					c-0.1-0.2-0.2-0.4-0.3-0.6c-0.7,0.9-1.5,1.5-2.4,2l-0.7-1.1c1-0.5,1.8-1.3,2.5-2.4c-0.2-0.6-0.4-1.2-0.5-1.9
					c-0.2-0.9-0.4-1.9-0.4-3.1h-7.8v-1.2h3.3v-1h-2.6v-1.2h2.5V-220.2z M-205.7-210.2c-0.7,0.1-1.4,0.2-2.1,0.3v1.6h-1.3v-1.4
					c-1,0.1-2,0.2-3,0.3l-0.2-1.2c1.1-0.1,2.2-0.1,3.2-0.2v-1h-2.6l-0.3-1.1c0.3-0.4,0.6-0.9,0.9-1.5h-1.4v-1.2h1.9
					c0.1-0.3,0.2-0.6,0.3-0.9l1.3,0.2c-0.1,0.3-0.2,0.5-0.3,0.7h3.5v1.2h-4c-0.3,0.5-0.5,1-0.8,1.4h1.4v-0.9h1.3v0.9h2v1.1h-2v0.9
					c0.7-0.1,1.4-0.1,2.1-0.2v1H-205.7z M-200.8-219.1l-1,0.7c-0.4-0.6-0.9-1.3-1.6-2.1l1-0.6C-201.8-220.3-201.2-219.6-200.8-219.1
					z"/>
				<path class="st7" d="M-197.5-217.6v-3.6h1.3v3.6h1.3v1.3h-1.3v4.3c0.6-0.2,1.2-0.4,1.8-0.6v1.4c-1.4,0.5-2.8,0.9-4.4,1.3
					l-0.4-1.4c0.5-0.1,1.1-0.2,1.6-0.3v-4.6h-1.4v-1.3L-197.5-217.6L-197.5-217.6z M-191-221.1c-0.1,0.7-0.3,1.3-0.5,2h5
					c0,4.9-0.1,7.9-0.2,9.1c-0.1,1.1-0.8,1.7-2,1.7c-0.4,0-1.1,0-2.1-0.1l-0.3-1.3c0.8,0,1.6,0.1,2.2,0.1c0.6,0,0.9-0.4,1-1
					c0.1-0.7,0.1-3.1,0.2-7.2h-4.2c-0.5,1-1.1,1.9-1.7,2.7l-0.9-1.2c1.2-1.3,1.9-3,2.4-5L-191-221.1z M-188.8-212.6
					c-1.2,0.9-2.6,1.7-4.4,2.3l-0.5-1.3c1.8-0.6,3.3-1.4,4.6-2.3L-188.8-212.6z M-189.5-214.8l-0.9,0.9c-0.5-0.6-1.2-1.2-2.2-1.9
					l0.8-0.8C-190.9-216-190.1-215.4-189.5-214.8z"/>
				<path class="st7" d="M-181.4-217c-0.3,0.6-0.6,1.2-1,1.8v6.9h-1.2v-5.4c-0.3,0.3-0.7,0.7-1.1,1l-0.4-1.2c1.2-1,2-2.2,2.6-3.6
					L-181.4-217z M-181.6-220.7c-0.6,1.5-1.6,2.9-3.1,4.1l-0.4-1.3c1.1-1,1.8-2.1,2.3-3.3L-181.6-220.7z M-181.9-218.6
					c0.9-0.7,1.7-1.6,2.4-2.7l1.3,0.3c-0.1,0.2-0.3,0.5-0.4,0.7h2.1v0.9c-0.3,0.4-0.5,0.8-0.8,1.1h1.4v5.2h-2.1c0,0.3,0,0.6-0.1,0.8
					h2.6v1.2h-2.9v0.1c0.9,0.4,1.8,0.9,2.5,1.5l-0.7,1.1c-0.7-0.7-1.5-1.2-2.2-1.6c-0.4,0.8-1.2,1.4-2.2,1.9l-0.8-1
					c1.1-0.5,1.8-1.2,2.1-2h-2v-1.2h2.3c0-0.3,0.1-0.5,0.1-0.8h-2v-4.6L-181.9-218.6z M-178-219.3h-1.5c-0.3,0.3-0.6,0.6-0.9,0.9
					h1.7C-178.4-218.7-178.2-219-178-219.3z M-179.1-216.2v-1.2h-1v1.2H-179.1z M-179.1-215.3h-1v1.1h1V-215.3z M-178.1-216.2h1
					v-1.2h-1V-216.2z M-177.1-215.3h-1v1.1h1V-215.3z M-175.3-208.3l-0.3-1.2c0.3,0.1,0.5,0.1,0.8,0.1s0.4-0.2,0.4-0.4v-5.6h-1.4
					v-1.2h3.5v1.2h-0.9v6c0,0.8-0.4,1.3-1.2,1.3h-0.9V-208.3z M-172.3-220.3v1.2h-3.2v-1.2H-172.3z"/>
			</g>
		</g>
		<path class="st6" d="M-138.4-190.2h-154v-51h154V-190.2z M-291.4-191.2h152v-49h-152V-191.2z"/>
	</g>
</g>
<g id="RectEndPoint8_8_" transform="translate(380,418)">
	<rect x="-283.9" y="288.8" class="st4" width="153" height="50"/>
	<g>
		<rect x="-285.9" y="286.8" class="st5" width="153" height="50"/>
		<g>
			<g>
				<path class="st7" d="M-219.5,313.1h2.9c0,2.4-0.1,4-0.2,4.8c-0.2,0.8-0.9,1.2-2.2,1.3c-0.3,0-0.7,0-1.1-0.1l-0.3-1.2
					c0.3,0,0.7,0.1,1.1,0.1c0.7,0,1.1-0.2,1.3-0.7c0.1-0.5,0.2-1.5,0.2-3h-3l0.4-4.3h2.4v-1.9h-2.7V307h4v4.2h-2.6L-219.5,313.1z
					 M-214,308.5c-0.3-0.7-0.7-1.3-1.1-1.8l1.2-0.4c0.4,0.6,0.7,1.2,1.1,1.8l-0.9,0.4h2.1c0.4-0.7,0.7-1.5,1-2.3l1.3,0.4
					c-0.3,0.7-0.6,1.3-1,1.9h1.7v5.8h-2.9v1.2h3.5v1.2h-3.5v2.5h-1.3v-2.5h-3.4v-1.2h3.4v-1.2h-2.9v-5.8H-214z M-212.9,310.9v-1.3
					h-1.7v1.3H-212.9z M-212.9,312h-1.7v1.2h1.7V312z M-211.6,310.9h1.7v-1.3h-1.7V310.9z M-209.9,312h-1.7v1.2h1.7V312z"/>
				<path class="st7" d="M-205.6,309.2c0,1.4-0.2,2.7-0.4,4l-1.1-0.3c0.3-1.2,0.4-2.5,0.5-3.8L-205.6,309.2z M-203.9,306.4v12.8
					h-1.3v-12.8H-203.9z M-202.2,310.7c0.4-1.1,0.6-2.2,0.6-3.4l1.2,0.2c0,0.5-0.1,1-0.1,1.5h1.7v-2.6h1.3v2.5h2.9v1.3h-2.9v3.1h2.8
					v1.3h-2.8v3h3.3v1.3h-8.5v-1.3h3.9v-3h-3.1v-1.3h3.1v-3.1h-1.9c-0.3,1-0.6,1.9-1.1,2.7l-1-0.9c0.1-0.2,0.2-0.4,0.3-0.6l-0.6,0.2
					c-0.2-0.9-0.4-1.7-0.7-2.5l1-0.3C-202.6,309.3-202.4,310-202.2,310.7z"/>
				<path class="st7" d="M-183.7,319.2l-0.3-1.3l1.3,0.1c0.3,0,0.5-0.2,0.5-0.5v-9.4h-8.8v11.2h-1.3v-12.4h11.4v10.9
					c0,1-0.5,1.4-1.4,1.4L-183.7,319.2L-183.7,319.2z M-188.2,314.4c-0.5,1.3-1,2.4-1.7,3.3l-0.9-1c0.7-1,1.2-2.2,1.7-3.5
					c-0.6-0.8-1.2-1.6-1.8-2.3l0.8-0.8c0.4,0.5,0.9,1.1,1.5,1.7c0.2-0.9,0.4-1.8,0.5-2.8l1.2,0.2c-0.2,1.4-0.5,2.7-0.8,3.9
					c0.5,0.7,1,1.4,1.5,2.2l-0.9,0.9C-187.5,315.4-187.8,314.9-188.2,314.4z M-184.3,314.7c-0.5,1.3-1.1,2.4-1.8,3.3l-0.8-1
					c0.7-1,1.3-2.2,1.8-3.5c-0.6-0.9-1.2-1.7-1.8-2.5l0.8-0.8c0.4,0.5,0.9,1.1,1.4,1.8c0.3-1,0.5-2,0.6-3l1.2,0.2
					c-0.3,1.5-0.6,2.9-1,4.2c0.5,0.8,1,1.6,1.6,2.5l-0.9,0.9C-183.5,316-183.9,315.3-184.3,314.7z"/>
				<path class="st7" d="M-172.6,306.4v1.6h4.5v1.3h-4.5v1.8h6.3v1.3h-6.3v1.2c1.6,0.7,3.2,1.6,4.9,2.5l-0.8,1.1
					c-1.7-1-3.1-1.8-4.2-2.3v4.4h-1.3v-6.9h-4.9v-1.3h4.9v-4.7H-172.6z"/>
			</g>
		</g>
		<path class="st6" d="M-132.4,337.3h-154v-51h154V337.3z M-285.4,336.3h152v-49h-152V336.3z"/>
		<g>
			<path id="XMLID_59_" class="st11" d="M-238,313.8c-1,6.2-6.3,11-12.8,11c-7.2,0-13-5.8-13-13s5.8-13,13-13
				c6.5,0,11.9,4.8,12.8,11h2c-1-7.3-7.2-13-14.9-13c-8.3,0-15,6.7-15,15s6.7,15,15,15c7.6,0,13.9-5.7,14.9-13H-238z"/>
			<polygon class="st11" points="-243.4,318.8 -258.4,318.8 -258.4,306.1 -256.4,306.1 -256.4,316.8 -245.4,316.8 -245.4,306.1 
				-243.4,306.1 			"/>
			<rect x="-252.9" y="314.8" class="st11" width="2" height="2"/>
			<rect x="-258.9" y="304.8" class="st11" width="16" height="2"/>
			<rect x="-249" y="314.8" class="st11" width="2" height="2"/>
			<rect x="-254.9" y="308.8" class="st11" width="4" height="4"/>
		</g>
	</g>
</g>
<g id="Link15_14_" transform="translate(0,0)">
	<rect x="415.6" y="668.3" class="st1" width="1" height="34.5"/>
	<g transform="translate(0, 0.5)">
		<polygon class="st1" points="420.6,671.9 416.1,666.5 411.6,671.9 		"/>
	</g>
</g>
<g id="Link15_16_" transform="translate(0,0)">
	<rect x="415.6" y="769" class="st1" width="1" height="64.5"/>
	<g transform="translate(0, 0.5)">
		<polygon class="st1" points="420.6,772.5 416.1,767.2 411.6,772.5 		"/>
	</g>
</g>
<g id="RectEndPoint8_10_" transform="translate(380,418)">
	<rect x="-38.7" y="288.8" class="st4" width="153" height="50"/>
	<g>
		<rect x="-40.7" y="286.8" class="st5" width="153" height="50"/>
		<g>
			<g>
				<path class="st7" d="M25.7,313.1h2.9c0,2.4-0.1,4-0.2,4.8c-0.2,0.8-0.9,1.2-2.2,1.3c-0.3,0-0.7,0-1.1-0.1l-0.3-1.2
					c0.3,0,0.7,0.1,1.1,0.1c0.7,0,1.1-0.2,1.3-0.7c0.1-0.5,0.2-1.5,0.2-3h-3l0.4-4.3h2.4v-1.9h-2.7V307h4v4.2h-2.6L25.7,313.1z
					 M31.2,308.5c-0.3-0.7-0.7-1.3-1.1-1.8l1.2-0.4c0.4,0.6,0.7,1.2,1.1,1.8l-0.9,0.4h2.1c0.4-0.7,0.7-1.5,1-2.3l1.3,0.4
					c-0.3,0.7-0.6,1.3-1,1.9h1.7v5.8h-2.9v1.2h3.5v1.2h-3.5v2.5h-1.3v-2.5H29v-1.2h3.4v-1.2h-2.9v-5.8H31.2z M32.3,310.9v-1.3h-1.7
					v1.3H32.3z M32.3,312h-1.7v1.2h1.7V312z M33.6,310.9h1.7v-1.3h-1.7V310.9z M35.4,312h-1.7v1.2h1.7V312z"/>
				<path class="st7" d="M39.6,309.2c0,1.4-0.2,2.7-0.4,4l-1.1-0.3c0.3-1.2,0.4-2.5,0.5-3.8L39.6,309.2z M41.4,306.4v12.8H40v-12.8
					H41.4z M43,310.7c0.4-1.1,0.6-2.2,0.6-3.4l1.2,0.2c0,0.5-0.1,1-0.1,1.5h1.7v-2.6h1.3v2.5h2.9v1.3h-2.9v3.1h2.8v1.3h-2.8v3H51
					v1.3h-8.5v-1.3h3.9v-3h-3.1v-1.3h3.1v-3.1h-1.9c-0.3,1-0.6,1.9-1.1,2.7l-1-0.9c0.1-0.2,0.2-0.4,0.3-0.6l-0.6,0.2
					c-0.2-0.9-0.4-1.7-0.7-2.5l1-0.3C42.6,309.3,42.8,310,43,310.7z"/>
				<path class="st7" d="M61.6,319.2l-0.3-1.3l1.3,0.1c0.3,0,0.5-0.2,0.5-0.5v-9.4h-8.8v11.2H53v-12.4h11.4v10.9
					c0,1-0.5,1.4-1.4,1.4L61.6,319.2L61.6,319.2z M57,314.4c-0.5,1.3-1,2.4-1.7,3.3l-0.9-1c0.7-1,1.2-2.2,1.7-3.5
					c-0.6-0.8-1.2-1.6-1.8-2.3l0.8-0.8c0.4,0.5,0.9,1.1,1.5,1.7c0.2-0.9,0.4-1.8,0.5-2.8l1.2,0.2c-0.2,1.4-0.5,2.7-0.8,3.9
					c0.5,0.7,1,1.4,1.5,2.2l-0.9,0.9C57.7,315.4,57.4,314.9,57,314.4z M60.9,314.7c-0.5,1.3-1.1,2.4-1.8,3.3l-0.8-1
					c0.7-1,1.3-2.2,1.8-3.5c-0.6-0.9-1.2-1.7-1.8-2.5l0.8-0.8c0.4,0.5,0.9,1.1,1.4,1.8c0.3-1,0.5-2,0.6-3l1.2,0.2
					c-0.3,1.5-0.6,2.9-1,4.2c0.5,0.8,1,1.6,1.6,2.5l-0.9,0.9C61.7,316,61.3,315.3,60.9,314.7z"/>
				<path class="st7" d="M72.6,306.4v1.6h4.5v1.3h-4.5v1.8h6.3v1.3h-6.3v1.2c1.6,0.7,3.2,1.6,4.9,2.5l-0.8,1.1
					c-1.7-1-3.1-1.8-4.2-2.3v4.4h-1.3v-6.9h-4.9v-1.3h4.9v-4.7H72.6z"/>
			</g>
		</g>
		<path class="st6" d="M112.8,337.3h-154v-51h154V337.3z M-40.2,336.3h152v-49h-152C-40.2,287.3-40.2,336.3-40.2,336.3z"/>
		<g>
			<path id="XMLID_6_" class="st11" d="M7.2,313.8c-1,6.2-6.3,11-12.8,11c-7.2,0-13-5.8-13-13s5.8-13,13-13c6.5,0,11.9,4.8,12.8,11
				h2c-1-7.3-7.2-13-14.9-13c-8.3,0-15,6.7-15,15s6.7,15,15,15c7.6,0,13.9-5.7,14.9-13H7.2z"/>
			<polygon class="st11" points="1.8,318.8 -13.2,318.8 -13.2,306.1 -11.2,306.1 -11.2,316.8 -0.2,316.8 -0.2,306.1 1.8,306.1 			
				"/>
			<rect x="-7.7" y="314.8" class="st11" width="2" height="2"/>
			<rect x="-13.7" y="304.8" class="st11" width="16" height="2"/>
			<rect x="-3.8" y="314.8" class="st11" width="2" height="2"/>
			<rect x="-9.7" y="308.8" class="st11" width="4" height="4"/>
		</g>
	</g>
</g>
<g id="Link15_15_" transform="translate(0,0)">
	<rect x="672.5" y="668.3" class="st1" width="1" height="34.5"/>
	<g transform="translate(0, 0.5)">
		<polygon class="st1" points="677.5,671.9 673,666.5 668.5,671.9 		"/>
	</g>
</g>
<g id="RectEndPoint8_11_" transform="translate(380,418)">
	<rect x="218.3" y="288.8" class="st4" width="153" height="50"/>
	<g>
		<rect x="216.3" y="286.8" class="st5" width="153" height="50"/>
		<g>
			<g>
				<path class="st7" d="M282.6,313.1h2.9c0,2.4-0.1,4-0.2,4.8c-0.2,0.8-0.9,1.2-2.2,1.3c-0.3,0-0.7,0-1.1-0.1l-0.3-1.2
					c0.3,0,0.7,0.1,1.1,0.1c0.7,0,1.1-0.2,1.3-0.7c0.1-0.5,0.2-1.5,0.2-3h-3l0.4-4.3h2.4v-1.9h-2.7V307h4v4.2h-2.6L282.6,313.1z
					 M288.2,308.5c-0.3-0.7-0.7-1.3-1.1-1.8l1.2-0.4c0.4,0.6,0.7,1.2,1.1,1.8l-0.9,0.4h2.1c0.4-0.7,0.7-1.5,1-2.3l1.3,0.4
					c-0.3,0.7-0.6,1.3-1,1.9h1.7v5.8h-2.9v1.2h3.5v1.2h-3.5v2.5h-1.3v-2.5H286v-1.2h3.4v-1.2h-2.9v-5.8H288.2z M289.3,310.9v-1.3
					h-1.7v1.3H289.3z M289.3,312h-1.7v1.2h1.7V312z M290.6,310.9h1.7v-1.3h-1.7V310.9z M292.3,312h-1.7v1.2h1.7V312z"/>
				<path class="st7" d="M296.5,309.2c0,1.4-0.2,2.7-0.4,4l-1.1-0.3c0.3-1.2,0.4-2.5,0.5-3.8L296.5,309.2z M298.3,306.4v12.8H297
					v-12.8H298.3z M300,310.7c0.4-1.1,0.6-2.2,0.6-3.4l1.2,0.2c0,0.5-0.1,1-0.1,1.5h1.7v-2.6h1.3v2.5h2.9v1.3h-2.9v3.1h2.8v1.3h-2.8
					v3h3.3v1.3h-8.5v-1.3h3.9v-3h-3.1v-1.3h3.1v-3.1h-1.9c-0.3,1-0.6,1.9-1.1,2.7l-1-0.9c0.1-0.2,0.2-0.4,0.3-0.6l-0.6,0.2
					c-0.2-0.9-0.4-1.7-0.7-2.5l1-0.3C299.6,309.3,299.8,310,300,310.7z"/>
				<path class="st7" d="M318.5,319.2l-0.3-1.3l1.3,0.1c0.3,0,0.5-0.2,0.5-0.5v-9.4h-8.8v11.2h-1.3v-12.4h11.4v10.9
					c0,1-0.5,1.4-1.4,1.4L318.5,319.2L318.5,319.2z M313.9,314.4c-0.5,1.3-1,2.4-1.7,3.3l-0.9-1c0.7-1,1.2-2.2,1.7-3.5
					c-0.6-0.8-1.2-1.6-1.8-2.3l0.8-0.8c0.4,0.5,0.9,1.1,1.5,1.7c0.2-0.9,0.4-1.8,0.5-2.8l1.2,0.2c-0.2,1.4-0.5,2.7-0.8,3.9
					c0.5,0.7,1,1.4,1.5,2.2l-0.9,0.9C314.7,315.4,314.3,314.9,313.9,314.4z M317.9,314.7c-0.5,1.3-1.1,2.4-1.8,3.3l-0.8-1
					c0.7-1,1.3-2.2,1.8-3.5c-0.6-0.9-1.2-1.7-1.8-2.5l0.8-0.8c0.4,0.5,0.9,1.1,1.4,1.8c0.3-1,0.5-2,0.6-3l1.2,0.2
					c-0.3,1.5-0.6,2.9-1,4.2c0.5,0.8,1,1.6,1.6,2.5l-0.9,0.9C318.7,316,318.3,315.3,317.9,314.7z"/>
				<path class="st7" d="M329.6,306.4v1.6h4.5v1.3h-4.5v1.8h6.3v1.3h-6.3v1.2c1.6,0.7,3.2,1.6,4.9,2.5l-0.8,1.1
					c-1.7-1-3.1-1.8-4.2-2.3v4.4h-1.3v-6.9h-4.9v-1.3h4.9v-4.7H329.6z"/>
			</g>
		</g>
		<path class="st6" d="M369.8,337.3h-154v-51h154V337.3z M216.8,336.3h152v-49h-152L216.8,336.3L216.8,336.3z"/>
		<g>
			<path id="XMLID_7_" class="st11" d="M264.1,313.8c-1,6.2-6.3,11-12.8,11c-7.2,0-13-5.8-13-13s5.8-13,13-13
				c6.5,0,11.9,4.8,12.8,11h2c-1-7.3-7.2-13-14.9-13c-8.3,0-15,6.7-15,15s6.7,15,15,15c7.6,0,13.9-5.7,14.9-13H264.1z"/>
			<polygon class="st11" points="258.8,318.8 243.8,318.8 243.8,306.1 245.8,306.1 245.8,316.8 256.8,316.8 256.8,306.1 
				258.8,306.1 			"/>
			<rect x="249.3" y="314.8" class="st11" width="2" height="2"/>
			<rect x="243.3" y="304.8" class="st11" width="16" height="2"/>
			<rect x="253.2" y="314.8" class="st11" width="2" height="2"/>
			<rect x="247.3" y="308.8" class="st11" width="4" height="4"/>
		</g>
	</g>
</g>
<g>
	<path class="st11" d="M123.1,55.4c-7.2,0-13-5.8-13-13s5.8-13,13-13c6.5,0,11.9,4.8,12.8,11h2c-1-7.3-7.2-13-14.9-13
		c-8.3,0-15,6.7-15,15s6.7,15,15,15c7.6,0,13.9-5.7,14.9-13h-2C135,50.7,129.6,55.4,123.1,55.4z"/>
	<rect x="115.1" y="37.4" class="st11" width="16" height="2"/>
	<rect x="115.1" y="48.4" class="st11" width="16" height="2"/>
	<rect x="115.1" y="37.4" class="st11" width="2" height="3"/>
	<rect x="115.1" y="47.4" class="st11" width="2" height="3"/>
	<rect x="129.1" y="47.4" class="st11" width="2" height="3"/>
	<rect x="129.1" y="37.4" class="st11" width="2" height="3"/>
	<rect x="118.1" y="33.4" class="st11" width="2" height="4"/>
	<rect x="126.1" y="33.4" class="st11" width="2" height="4"/>
	<rect x="121.1" y="41.4" class="st11" width="2" height="5"/>
	<rect x="118.1" y="41.4" class="st11" width="2" height="5"/>
	<rect x="115.1" y="41.4" class="st11" width="2" height="5"/>
	<rect x="124.1" y="41.4" class="st11" width="2" height="5"/>
	<rect x="122.1" y="41.4" class="st11" width="3" height="1"/>
	<rect x="127.1" y="41.4" class="st11" width="4" height="1"/>
	<rect x="122.1" y="43.4" class="st11" width="3" height="1"/>
	<rect x="128.1" y="41.4" class="st11" width="2" height="5"/>
	<polygon class="st11" points="116.1,41.4 118.1,46.4 119.1,46.4 117.1,41.4 	"/>
</g>
<g id="RectEndPoint8_5_" transform="translate(380,418)">
	<rect x="-289.9" y="-323.3" class="st4" width="153" height="50"/>
	<g>
		<rect x="-291.9" y="-325.3" class="st5" width="153" height="50"/>
		<g>
			<g>
				<path class="st7" d="M-225.5-299.1h2.9c0,2.4-0.1,4-0.2,4.8c-0.2,0.8-0.9,1.2-2.2,1.3c-0.3,0-0.7,0-1.1-0.1l-0.3-1.2
					c0.3,0,0.7,0.1,1.1,0.1c0.7,0,1.1-0.2,1.3-0.7c0.1-0.5,0.2-1.5,0.2-3h-3l0.4-4.3h2.4v-1.9h-2.7v-1.1h4v4.2h-2.6L-225.5-299.1z
					 M-220-303.6c-0.3-0.7-0.7-1.3-1.1-1.8l1.2-0.4c0.4,0.6,0.7,1.2,1.1,1.8l-0.9,0.4h2.1c0.4-0.7,0.7-1.5,1-2.3l1.3,0.4
					c-0.3,0.7-0.6,1.3-1,1.9h1.7v5.8h-2.9v1.2h3.5v1.2h-3.5v2.5h-1.3v-2.5h-3.4v-1.2h3.4v-1.2h-2.9v-5.8H-220z M-218.9-301.3v-1.3
					h-1.7v1.3H-218.9z M-218.9-300.1h-1.7v1.2h1.7V-300.1z M-217.6-301.3h1.7v-1.3h-1.7V-301.3z M-215.9-300.1h-1.7v1.2h1.7V-300.1z
					"/>
				<path class="st7" d="M-211.6-303c0,1.4-0.2,2.7-0.4,4l-1.1-0.3c0.3-1.2,0.4-2.5,0.5-3.8L-211.6-303z M-209.9-305.8v12.8h-1.3
					v-12.8H-209.9z M-208.2-301.5c0.4-1.1,0.6-2.2,0.6-3.4l1.2,0.2c0,0.5-0.1,1-0.1,1.5h1.7v-2.5h1.3v2.5h2.9v1.3h-2.9v3.1h2.8v1.3
					h-2.8v3h3.3v1.3h-8.5v-1.3h3.9v-3h-3.1v-1.3h3.1v-3.1h-1.9c-0.3,1-0.6,1.9-1.1,2.7l-1-0.9c0.1-0.2,0.2-0.4,0.3-0.6l-0.6,0.2
					c-0.2-0.9-0.4-1.7-0.7-2.5l1-0.3C-208.6-302.8-208.4-302.2-208.2-301.5z"/>
				<path class="st7" d="M-192.4-304.3v10h-1.5v-10H-192.4z"/>
				<path class="st7" d="M-186.3-304.3c2.4,0,3.6,1,3.6,3s-1.2,3.1-3.6,3.1h-2.6v3.9h-1.5v-10H-186.3z M-188.9-299.5h2.5
					c0.8,0,1.3-0.1,1.7-0.4c0.3-0.3,0.5-0.7,0.5-1.3s-0.2-1.1-0.5-1.3c-0.4-0.3-0.9-0.4-1.6-0.4h-2.5L-188.9-299.5L-188.9-299.5z"/>
			</g>
		</g>
		<path class="st6" d="M-138.4-274.8h-154v-51h154V-274.8z M-291.4-275.8h152v-49h-152V-275.8z"/>
	</g>
</g>
<g>
	<title>Product Icons【32】</title>
	<g id="_编组__4_">
		<g id="_编组_2_4_">
			<path id="_复合路径__4_" class="st11" d="M123.1,130.7c-7.2,0-13-5.8-13-13s5.8-13,13-13c6.4,0,11.9,4.7,12.9,11h2
				c-1.1-8.2-8.7-14-16.9-12.9s-14,8.7-12.9,16.9s8.7,14,16.9,12.9c6.7-0.9,12-6.2,12.9-12.9h-2C135,126,129.6,130.7,123.1,130.7z
				 M130.1,117.8v-4.1l-2.7-1.6l-2,1.2l2.4,1.4l-4.7,2.7l-4.7-2.7l2.4-1.4l-2-1.2l-2.7,1.6v4.1l2,1.2v-2.2l4,2.3v3.7l-2-1.1v2.3
				l3,1.7l3-1.7v-2.3l-2,1.1v-3.7l4-2.3v2.2L130.1,117.8z"/>
		</g>
	</g>
</g>
<g>
	<polygon class="st2" points="521.2,255.9 309.2,255 308.8,0 520.8,0.9 	"/>
</g>
<g id="RectEndPoint8_9_" transform="translate(380,418)">
	<rect x="-46.5" y="-398.6" class="st4" width="153" height="50"/>
	<g>
		<rect x="-48.5" y="-400.6" class="st5" width="153" height="50"/>
		<g>
			<g>
				<path class="st7" d="M20.4-376.9c0.1-0.5,0.2-0.9,0.4-1.4h-3.3v-1.2h3.6c0.1-0.5,0.2-1.1,0.3-1.6l1.4,0.1
					c-0.1,0.5-0.2,1-0.3,1.5h5.9v1.2h-6.1c-0.1,0.5-0.2,1-0.3,1.4h7.3v1.3h-7.6c-0.2,0.6-0.3,1.1-0.5,1.6h6.5v1.1
					c-0.6,1-1.6,1.9-3,2.9c0.8,0.3,1.5,0.6,2.2,0.9l-0.7,1.1c-2.1-1-4.2-1.8-6.4-2.3l0.7-1c1,0.3,1.9,0.5,2.8,0.8
					c1.2-0.8,2.1-1.5,2.8-2.3h-6.8c0.3-0.9,0.6-1.8,0.9-2.8h-3.6v-1.3L20.4-376.9L20.4-376.9z"/>
				<path class="st7" d="M34-380.6c-0.7,1.7-1.3,3.1-2,4.1c0.5-0.1,1-0.1,1.5-0.2c0.3-0.5,0.5-1,0.8-1.5l1.2,0.4
					c-1.1,2.2-2.1,3.8-2.9,4.8c0.9-0.2,1.8-0.4,2.7-0.8v1.2c-1.5,0.5-2.9,0.9-4.3,1l-0.4-1.2c0.2-0.1,0.4-0.2,0.6-0.4
					c0.4-0.5,1-1.3,1.6-2.4c-0.7,0.1-1.4,0.2-2.1,0.3l-0.3-1.2c0.2-0.1,0.4-0.3,0.5-0.5c0.7-1.3,1.2-2.7,1.8-4.2L34-380.6z
					 M35.4-369.9c-1.4,0.5-2.9,1-4.7,1.3l-0.2-1.3c1.8-0.3,3.5-0.7,4.8-1.2v1.2H35.4z M42.4-377.5l-3.5,0.5c0,0.6,0.1,1.1,0.1,1.6
					l3.6-0.6l0.2,1.3l-3.6,0.6l0.1,0.4c0.1,0.7,0.3,1.2,0.4,1.8c0.6-0.6,1.2-1.3,1.8-2.1l1.1,0.7c-0.7,1-1.4,1.9-2.3,2.6
					c0.4,0.6,0.8,1,1.1,1s0.6-0.7,0.8-2l1.1,0.8c-0.4,1.8-1,2.7-1.8,2.7c-0.7,0-1.4-0.4-2-1.3c-0.1-0.1-0.2-0.3-0.3-0.4
					c-1,0.7-2.1,1.3-3.2,1.6l-0.8-1.1c1.3-0.4,2.4-1,3.4-1.7c-0.3-0.6-0.4-1.2-0.6-1.9c-0.1-0.3-0.1-0.6-0.2-0.9l-2.4,0.4l-0.2-1.3
					l2.4-0.4c-0.1-0.5-0.1-1-0.1-1.6l-1.9,0.3l-0.2-1.2l2-0.3v-3h1.3v2.8l3.3-0.5L42.4-377.5z M42-379.5l-1,0.7
					c-0.4-0.5-0.9-1.1-1.5-1.7l1-0.6C41.1-380.5,41.6-379.9,42-379.5z"/>
				<path class="st7" d="M44.9-368.2l-0.3-1.3c0.4,0,0.7,0.1,1.1,0.1c0.3,0,0.5-0.2,0.5-0.5v-3c-0.5,0.2-1,0.4-1.5,0.5l-0.3-1.3
					c0.6-0.2,1.3-0.3,1.9-0.6v-2.9h-1.6v-1.3h1.6v-2.5h1.3v2.5h1.1v1.3h-1.1v2.3c0.4-0.2,0.7-0.3,1-0.5v1.3c-0.4,0.2-0.7,0.4-1,0.5
					v3.9c0,0.9-0.5,1.4-1.4,1.4h-1.3V-368.2z M52.9-375.1c-0.1,0.3-0.3,0.6-0.4,0.9h4.6v1.3h-1.5c-0.2,0.9-0.6,1.7-1.2,2.4
					c0.9,0.4,1.7,0.8,2.5,1.3l-0.7,1.1c-0.8-0.5-1.7-1-2.8-1.5c-1,0.6-2.4,1.2-4.3,1.6l-0.5-1.2c1.5-0.3,2.6-0.6,3.4-1
					c-0.8-0.3-1.7-0.7-2.6-1.1c0.4-0.5,0.7-1.1,0.9-1.5h-1.7v-1.3h2.3c0.2-0.4,0.3-0.7,0.4-1.1L52.9-375.1z M52.3-376.7h1.2
					c0.3-0.6,0.6-1.3,0.9-2h-5v-1.2h2.9c-0.1-0.4-0.3-0.7-0.5-1l1.4-0.2c0.1,0.4,0.3,0.8,0.4,1.3h3.1v1.2h-1.8l0.8,0.3
					c-0.2,0.6-0.5,1.2-0.8,1.7H57v1.3h-7.9v-1.3h2c-0.3-0.5-0.5-1-0.8-1.5l1.1-0.5C51.7-378.1,52-377.4,52.3-376.7z M51.9-372.9
					c-0.2,0.3-0.4,0.7-0.6,1c0.7,0.3,1.4,0.5,2.1,0.8c0.5-0.5,0.9-1.1,1.1-1.8H51.9z"/>
				<path class="st7" d="M61.8-380.4l1.1-0.7c1.2,0.8,2.2,2.4,3.1,4.7c1.3,3.3,3.1,5.6,5.2,7l-0.8,1.1c-2.2-1.3-4-3.8-5.5-7.6
					c0-0.1-0.1-0.2-0.1-0.3c-1,3.4-2.8,6-5.7,7.9l-0.8-1.1c2.9-1.9,4.8-4.7,5.8-8.3C63.4-378.8,62.7-379.7,61.8-380.4z"/>
			</g>
		</g>
		<path class="st6" d="M105-350.1H-49v-51h154V-350.1z M-48-351.1h152v-49H-48V-351.1z"/>
	</g>
</g>
<g id="RectEndPoint8_7_" transform="translate(380,418)">
	<rect x="-46.5" y="-323.3" class="st4" width="153" height="50"/>
	<g>
		<rect x="-48.5" y="-325.3" class="st5" width="153" height="50"/>
		<g>
			<g>
				<path class="st7" d="M17.5-304.3l2.8,8.3l0,0l2.8-8.3h1.7l-3.6,10h-1.8l-3.6-10H17.5z"/>
				<path class="st7" d="M30.1-304.3c2.4,0,3.6,1,3.6,3s-1.2,3.1-3.6,3.1h-2.6v3.9H26v-10H30.1z M27.5-299.5H30
					c0.8,0,1.3-0.1,1.7-0.4c0.3-0.3,0.5-0.7,0.5-1.3s-0.2-1.1-0.5-1.3c-0.4-0.3-0.9-0.4-1.6-0.4h-2.5v3.4H27.5z"/>
				<path class="st7" d="M36.6-304.3l5.1,7.4h0.1v-7.4h1.5v10h-1.5l-5.2-7.5h-0.1v7.5H35v-10H36.6z"/>
			</g>
		</g>
		<path class="st6" d="M105-274.8H-49v-51h154V-274.8z M-48-275.8h152v-49H-48V-275.8z"/>
	</g>
</g>
<g>
	<g class="st12">
		<rect x="335" y="179.3" class="st13" width="150" height="50"/>
	</g>
	<g>
		<rect x="333.5" y="177.8" class="st5" width="149" height="49"/>
		<path class="st6" d="M482,178.3v48H334v-48H482 M483,177.3H333v50h150V177.3L483,177.3z"/>
	</g>
	<g>
		<path id="XMLID_5_" class="st11" d="M379.4,205.3c-1,6.2-6.3,11-12.8,11c-7.2,0-13-5.8-13-13s5.8-13,13-13c6.5,0,11.9,4.8,12.8,11
			h2c-1-7.3-7.2-13-14.9-13c-8.3,0-15,6.7-15,15s6.7,15,15,15c7.6,0,13.9-5.7,14.9-13H379.4z"/>
		<path id="XMLID_4_" class="st11" d="M366.5,195.3c-0.7,0-1.4,0.1-2,0.3c0.5,0.5,0.8,1.1,1,1.8c0.3-0.1,0.7-0.1,1.1-0.1
			c1.3,0,2.5,0.4,3.5,1.1l-2.1,2.1c-0.8-0.7-1.6-1.3-2.4-1.8c-0.1,0.7-0.3,1.4-0.7,1.9c0.5,0.4,1.1,0.8,1.7,1.3l-1.4,1.4
			c-0.5-0.6-1-1.1-1.3-1.7c-0.6,0.4-1.2,0.6-2,0.7c0.5,0.8,1.1,1.6,1.9,2.4l-2.1,2.1c-0.7-1-1.1-2.2-1.1-3.5c0-0.4,0-0.8,0.1-1.1
			c-0.7-0.2-1.3-0.5-1.8-1c-0.2,0.7-0.3,1.4-0.3,2.1c0,4.4,3.6,8,8,8c0.7,0,1.4-0.1,2-0.3c-0.5-0.5-0.8-1.1-1-1.8
			c-0.3,0.1-0.7,0.1-1.1,0.1c-1.3,0-2.5-0.4-3.5-1.1l2.1-2.1c0.8,0.7,1.6,1.3,2.4,1.8c0.1-0.7,0.3-1.4,0.7-1.9
			c-0.5-0.4-1.1-0.8-1.7-1.3l1.4-1.4c0.5,0.6,1,1.1,1.3,1.7c0.6-0.4,1.2-0.6,2-0.7c-0.5-0.8-1.1-1.6-1.9-2.4l2.1-2.1
			c0.7,1,1.1,2.2,1.1,3.5c0,0.4,0,0.8-0.1,1.1c0.7,0.2,1.3,0.5,1.8,1c0.2-0.7,0.3-1.4,0.3-2.1C374.5,198.9,370.9,195.3,366.5,195.3z
			"/>
		<g id="XMLID_1_">
			<circle id="XMLID_3_" class="st11" cx="361.5" cy="198.3" r="2"/>
			<circle id="XMLID_2_" class="st11" cx="371.4" cy="208.3" r="2"/>
		</g>
	</g>
	<g>
		<path class="st7" d="M397.3,198.5c0.8,0.9,1.6,1.8,2.5,2.9c0.5-1.3,0.8-2.6,0.9-4.1h-3.8v-1h4.7v0.7c-0.1,1.9-0.5,3.7-1.2,5.2
			c0.6,0.8,1.1,1.6,1.6,2.4l-0.7,0.7c-0.4-0.7-0.9-1.4-1.4-2.1c-0.8,1.3-1.8,2.5-3.1,3.6l-0.6-0.9c1.3-1,2.3-2.2,3.1-3.6
			c-0.8-1-1.6-2.1-2.7-3.2L397.3,198.5z M403,200.2c1,1.2,1.7,2.2,2.2,3.1l-0.8,0.6c-0.6-1-1.3-2-2.1-3.1L403,200.2z M402.3,197.6
			h4.1v-2.7h1v2.7h1.6v1h-1.6v7.7c0,0.9-0.5,1.4-1.4,1.4h-2.2l-0.2-1c0.8,0,1.5,0.1,2.1,0.1c0.5,0,0.8-0.2,0.8-0.7v-7.4h-4.1
			L402.3,197.6L402.3,197.6z"/>
		<path class="st7" d="M412.4,196.7c-0.4,0.7-0.8,1.3-1.2,1.8l-0.9-0.5c0.8-1,1.5-2.1,1.8-3.3l1,0.2c-0.1,0.4-0.2,0.7-0.3,1h3.6v0.9
			h-2.5c0.4,0.5,0.7,0.9,0.9,1.4l-0.9,0.3c-0.3-0.7-0.7-1.2-1.1-1.7L412.4,196.7L412.4,196.7z M412,199h4.1v-0.9h1v0.9h4.1v0.9h-4.1
			v1.3h5.7v0.9h-2.7v1.4h2.1v0.9h-2.1v2.1c0,0.8-0.4,1.2-1.2,1.2h-2l-0.2-1c0.7,0,1.4,0.1,1.9,0.1c0.4,0,0.6-0.2,0.6-0.5v-1.9h-7.9
			v-0.9h7.9v-1.4h-8.7v-0.9h5.7v-1.3H412V199z M413.5,204.8c0.8,0.8,1.4,1.4,1.8,2l-0.8,0.5c-0.4-0.6-1.1-1.3-1.9-2L413.5,204.8z
			 M418.1,196.7c-0.3,0.5-0.6,1-0.9,1.5l-0.8-0.5c0.7-0.9,1.2-1.9,1.5-3l1,0.2c-0.1,0.3-0.2,0.7-0.3,1h4.1v0.9H420
			c0.4,0.5,0.7,0.9,0.9,1.4l-0.9,0.2c-0.3-0.6-0.7-1.2-1.1-1.7H418.1L418.1,196.7z"/>
		<path class="st7" d="M433.5,207.5c-0.5,0-1.3,0-2.5,0c-0.9,0-1.6-0.1-2.2-0.3c-0.5-0.2-1-0.5-1.5-1c-0.2-0.2-0.4-0.4-0.5-0.4
			c-0.3,0-0.9,0.6-1.7,1.9l-0.8-0.7c0.7-1.2,1.4-1.9,2-2.1v-4.3h-2v-0.9h2.9v5.2c0.1,0.1,0.2,0.2,0.3,0.3c0.3,0.4,0.7,0.7,1.1,0.9
			s1,0.3,1.9,0.3c1,0,1.9,0,2.7,0c0.4,0,1.1,0,2,0c0.8,0,1.3,0,1.6-0.1l-0.2,1L433.5,207.5L433.5,207.5z M425.4,195.1
			c1,0.8,1.8,1.5,2.4,2.2l-0.7,0.7c-0.6-0.7-1.3-1.4-2.3-2.2L425.4,195.1z M428.4,196.3h2.3c0.2-0.6,0.4-1.1,0.6-1.5l1,0.2
			c-0.2,0.5-0.3,0.9-0.5,1.3h4.9v0.9h-5.3c-0.4,0.9-0.9,1.8-1.4,2.5h2.3V198h1v1.7h3.1v0.9h-3.1v1.7h3.7v1h-3.7v2.6h-1v-2.6h-3.9v-1
			h3.9v-1.7h-3.2l-0.2-0.9c0.6-0.7,1.1-1.5,1.5-2.5h-1.8L428.4,196.3L428.4,196.3z"/>
		<path class="st7" d="M438.7,207.6l-0.2-1c0.5,0,0.9,0.1,1.1,0.1c0.4,0,0.5-0.2,0.5-0.6v-3.4c-0.4,0.1-1,0.4-1.7,0.6l-0.3-1
			c0.6-0.2,1.3-0.4,2-0.6v-3.1h-1.7v-1h1.7V195h1v2.6h1.2v1h-1.2v2.7c0.4-0.2,0.8-0.4,1.2-0.6v1c-0.4,0.2-0.8,0.4-1.2,0.6v4.1
			c0,0.9-0.4,1.3-1.2,1.3L438.7,207.6L438.7,207.6z M446.6,200.8c-0.1,0.4-0.3,0.7-0.5,1.1h4.8v1h-1.5c-0.2,1-0.6,1.9-1.3,2.6
			c1,0.5,1.9,0.9,2.8,1.4l-0.5,0.8c-0.8-0.5-1.8-1-2.9-1.6c-0.9,0.7-2.4,1.2-4.4,1.6l-0.4-0.9c1.7-0.3,2.9-0.7,3.8-1.2
			c-0.7-0.3-1.6-0.7-2.7-1.2c0.4-0.6,0.7-1.1,1-1.7h-1.9v-1h2.4c0.2-0.4,0.4-0.8,0.5-1.2L446.6,200.8z M445,197.2
			c0.3,0.6,0.7,1.3,1,2.1h1.4c0.4-0.7,0.7-1.4,1-2.2l1,0.3c-0.3,0.7-0.6,1.3-0.9,1.9h2.3v1H443v-1h2.1c-0.3-0.7-0.6-1.2-0.9-1.7
			L445,197.2z M446.9,194.8c0.1,0.4,0.3,0.8,0.5,1.3h3.1v0.9h-7.2v-0.9h3.1c-0.1-0.4-0.3-0.8-0.5-1.2L446.9,194.8z M445.6,202.9
			c-0.3,0.5-0.5,0.9-0.8,1.2c0.8,0.3,1.6,0.6,2.4,1c0.6-0.6,1-1.3,1.3-2.2C448.4,202.9,445.6,202.9,445.6,202.9z"/>
	</g>
</g>
<g>
	<title>Product Icons【32】</title>
	<g id="_编组__6_">
		<g id="_编组_2_6_">
			<path id="_复合路径__6_" class="st11" d="M366.6,55.4c-7.2,0-13-5.8-13-13s5.8-13,13-13c6.4,0,11.9,4.7,12.9,11h2
				c-1.1-8.2-8.7-14-16.9-12.9c-8.2,1.1-14,8.7-12.9,16.9s8.7,14,16.9,12.9c6.7-0.9,12-6.2,12.9-12.9h-2
				C378.4,50.8,373,55.4,366.6,55.4z M373.5,42.8c0.2-0.4,0.1-0.8-0.2-1.1l-4.8-4.8c0-0.2,0.1-0.3,0.1-0.5c0-1.1-0.9-2-2-2
				s-2,0.9-2,2c0,0.7,0.4,1.4,1,1.7v2.3h2v-1.6l2.6,2.6h-9.6c-0.6,0-1,0.4-1,1c0,0.3,0.1,0.5,0.3,0.7l4.8,4.8c0,0.2-0.1,0.3-0.1,0.5
				c0,1.1,0.9,2,2,2s2-0.9,2-2c0-0.7-0.4-1.4-1-1.7v-2.3h-2V46l-2.6-2.6h9.6C373,43.4,373.3,43.2,373.5,42.8z"/>
		</g>
	</g>
</g>
<g id="_编组__7_">
	<polygon id="_路径_" class="st11" points="367.7,127.9 367.7,126.3 373.7,122.9 373.7,120.6 371.7,119.4 371.7,119.4 
		368.7,117.7 368.7,120 371.6,121.7 366.7,124.6 361.7,121.7 361.7,120.3 359.7,119.2 359.7,122.9 365.7,126.3 365.7,127.9 	"/>
	<path id="_路径_2" class="st11" d="M366.7,131.9c-7.2,0-13-5.8-13-13s5.8-13,13-13c6.4,0,11.9,4.7,12.9,11h2
		c-1.1-8.2-8.7-14-16.9-12.9c-8.2,1.1-14,8.7-12.9,16.9s8.7,14,16.9,12.9c6.7-0.9,12-6.2,12.9-12.9h-2
		C378.5,127.2,373.1,131.9,366.7,131.9z"/>
	<rect id="_路径_3" x="365.7" y="116.9" class="st11" width="2" height="4"/>
	<polygon id="_路径_4" class="st11" points="373.7,114.9 367.7,111.5 367.7,109.9 365.7,109.9 365.7,111.5 359.7,114.9 
		359.7,116.9 361.7,118 361.7,118 364.7,119.7 364.7,117.4 361.9,115.9 366.7,113.2 371.7,116 371.7,117.1 373.7,118.3 	"/>
</g>
<g>
	<g>
		<g>
			<rect x="91.6" y="453.1" class="st5" width="116" height="90"/>
		</g>
	</g>
	<g>
		<path class="st7" d="M118.4,478.4v-1.8c1.1-0.6,2.2-1.4,3.2-2.3h-7.5v-1.2h9.3v1.2c-1.1,1.1-2.3,2-3.7,3v1.1h5.2v1.3h-5.2v4.3
			c0,0.9-0.5,1.4-1.4,1.4h-2.5l-0.4-1.3c0.7,0,1.5,0,2.3,0c0.4,0,0.6-0.2,0.6-0.5v-3.9h-5.8v-1.3H118.4z"/>
		<path class="st7" d="M135.7,485.3l-0.3-1.3l1.3,0.1c0.3,0,0.5-0.2,0.5-0.5v-9.4h-8.8v11.2h-1.3V473h11.4v10.9c0,1-0.5,1.4-1.4,1.4
			H135.7z M131.1,480.5c-0.5,1.3-1,2.4-1.7,3.3l-0.9-1c0.7-1,1.2-2.2,1.7-3.5c-0.6-0.8-1.2-1.6-1.8-2.3l0.8-0.8
			c0.4,0.5,0.9,1.1,1.5,1.7c0.2-0.9,0.4-1.8,0.5-2.8l1.2,0.2c-0.2,1.4-0.5,2.7-0.8,3.9c0.5,0.7,1,1.4,1.5,2.2l-0.9,0.9
			C131.9,481.6,131.5,481,131.1,480.5z M135.1,480.9c-0.5,1.3-1.1,2.4-1.8,3.3l-0.8-1c0.7-1,1.3-2.2,1.8-3.5
			c-0.6-0.9-1.2-1.7-1.8-2.5l0.8-0.8c0.4,0.5,0.9,1.1,1.4,1.8c0.3-1,0.5-2,0.6-3l1.2,0.2c-0.3,1.5-0.6,2.9-1,4.2
			c0.5,0.8,1,1.6,1.6,2.5l-0.9,0.9C135.9,482.2,135.5,481.5,135.1,480.9z"/>
		<path class="st7" d="M144.2,474v10h-1.5v-8.2c-0.6,0.6-1.4,1-2.3,1.3v-1.5c0.4-0.1,0.9-0.3,1.4-0.6c0.5-0.3,0.9-0.6,1.3-1
			L144.2,474L144.2,474z"/>
	</g>
	<rect x="111.6" y="503.1" class="st14" width="76" height="1"/>
	<g>
		<path class="st15" d="M116.4,522.6c0.6-1.1,0.9-2.2,1.1-3.5h-2.4c-0.6,1.4-1.4,2.5-2.3,3.4l-0.6-0.7c1.4-1.3,2.3-3,2.8-5.2
			l0.9,0.1c-0.1,0.5-0.3,1.1-0.4,1.5h2.9v0.8c-0.4,3.6-2.2,6.4-5.3,8.2l-0.6-0.7c1.5-0.9,2.7-1.9,3.5-3.2c-0.6-0.5-1.3-1-1.9-1.3
			l0.5-0.7C115.2,521.7,115.9,522.2,116.4,522.6z M120.3,516.6v3.6c1,0.7,2,1.6,3,2.5l-0.5,0.8c-1-1-1.8-1.8-2.5-2.3v6.4h-0.9v-11
			H120.3z"/>
		<path class="st15" d="M132.3,527.5l-0.2-0.8h1.2c0.3,0,0.5-0.2,0.5-0.5v-8.3h-7.9v9.7H125v-10.5h9.6v9.3c0,0.7-0.4,1.1-1.1,1.1
			H132.3z M128.3,523.2c-0.4,1.2-1,2.2-1.6,3l-0.6-0.7c0.6-0.9,1.1-1.9,1.5-3.2c-0.6-0.8-1.1-1.5-1.7-2.1l0.5-0.5
			c0.4,0.5,0.9,1,1.4,1.7c0.2-0.8,0.4-1.8,0.6-2.7l0.8,0.1c-0.2,1.2-0.4,2.4-0.8,3.4c0.5,0.6,0.9,1.3,1.4,2.1l-0.6,0.6
			C129.1,524.3,128.7,523.7,128.3,523.2z M131.7,523.4c-0.5,1.2-1,2.2-1.7,3l-0.6-0.7c0.7-0.9,1.2-2,1.7-3.2
			c-0.6-0.8-1.1-1.6-1.6-2.2l0.5-0.5c0.4,0.5,0.9,1.1,1.4,1.8c0.3-0.9,0.5-1.9,0.6-2.9l0.8,0.1c-0.2,1.3-0.5,2.5-0.9,3.6
			c0.5,0.7,0.9,1.5,1.5,2.3l-0.4,0.7C132.5,524.7,132.1,524.1,131.7,523.4z"/>
		<path class="st15" d="M137.1,527.6l-0.6-0.6c0.5-1.1,0.7-2.5,0.7-4.2V517h3.5v9.4c0,0.7-0.3,1.1-1,1.1h-1l-0.2-0.8
			c0.3,0,0.6,0,0.9,0c0.3,0,0.5-0.2,0.5-0.6v-2.7H138C137.9,525.2,137.6,526.5,137.1,527.6z M139.9,517.9H138v2h1.9V517.9z
			 M138,522.7h1.9v-2H138V522.7z M142.5,527.6h-0.8v-10.5h4.9c0,1.5-0.1,2.5-0.2,3c-0.1,0.5-0.6,0.7-1.3,0.7h-1l-0.2-0.7
			c0.2,0,0.5,0,0.8,0s0.5,0,0.6-0.1c0.1,0,0.3-0.2,0.3-0.3c0.1-0.3,0.1-0.9,0.2-1.8h-3.2v3.6h4.1v0.7c-0.2,1.2-0.6,2.3-1.2,3.2
			c0.5,0.5,1.2,1,1.9,1.4l-0.4,0.7c-0.8-0.4-1.4-0.9-2-1.5c-0.5,0.6-1.1,1.1-1.9,1.5l-0.5-0.7c0.7-0.4,1.3-0.8,1.7-1.4
			c-0.8-0.9-1.3-2-1.5-3.2h-0.3L142.5,527.6L142.5,527.6z M144.8,524.8c0.4-0.7,0.8-1.5,1-2.5h-2.3
			C143.8,523.2,144.2,524.1,144.8,524.8z"/>
		<path class="st15" d="M152.8,516.7c-0.1,0.3-0.3,0.6-0.5,0.9h5.2v0.7c-0.8,0.9-1.7,1.6-2.8,2.3c1.4,0.6,2.9,0.9,4.5,1.1l-0.4,0.8
			c-1.9-0.2-3.6-0.7-5.1-1.4c-1.5,0.7-3.2,1.2-5.1,1.5l-0.4-0.8c1.7-0.2,3.3-0.6,4.6-1.2c-0.7-0.4-1.3-0.9-1.9-1.4
			c-0.5,0.4-0.9,0.8-1.5,1.1l-0.5-0.7c1.4-0.8,2.4-1.8,2.9-3L152.8,516.7z M153.9,521.9c0,0.5,0,0.9-0.1,1.4h4.2
			c0,2-0.2,3.2-0.6,3.6s-0.9,0.6-1.8,0.6c-0.4,0-0.9,0-1.4,0l-0.2-0.8l1.4,0.1c0.7,0,1.2-0.2,1.4-0.5s0.3-1,0.3-2.2h-3.6
			c-0.1,0.3-0.2,0.6-0.4,0.9c-0.6,1.1-2,2-4.2,2.7l-0.6-0.7c2-0.6,3.3-1.3,3.9-2.2c0.1-0.2,0.3-0.4,0.4-0.7H149v-0.8h3.8
			c0.1-0.4,0.1-0.9,0.1-1.4L153.9,521.9L153.9,521.9z M156.3,518.4h-4.6l-0.2,0.2c0.7,0.6,1.4,1.1,2.2,1.5
			C154.8,519.6,155.6,519.1,156.3,518.4z"/>
	</g>
</g>
<g>
	<g>
		<g>
			<rect x="361.4" y="453.1" class="st5" width="116" height="90"/>
		</g>
	</g>
	<g>
		<path class="st7" d="M388.2,478.4v-1.8c1.1-0.6,2.2-1.4,3.2-2.3h-7.5v-1.2h9.3v1.2c-1.1,1.1-2.3,2-3.7,3v1.1h5.2v1.3h-5.2v4.3
			c0,0.9-0.5,1.4-1.4,1.4h-2.5l-0.4-1.3c0.7,0,1.5,0,2.3,0c0.4,0,0.6-0.2,0.6-0.5v-3.9h-5.8v-1.3H388.2z"/>
		<path class="st7" d="M405.5,485.3l-0.3-1.3l1.3,0.1c0.3,0,0.5-0.2,0.5-0.5v-9.4h-8.8v11.2h-1.3V473h11.4v10.9c0,1-0.5,1.4-1.4,1.4
			H405.5z M401,480.5c-0.5,1.3-1,2.4-1.7,3.3l-0.9-1c0.7-1,1.2-2.2,1.7-3.5c-0.6-0.8-1.2-1.6-1.8-2.3l0.8-0.8
			c0.4,0.5,0.9,1.1,1.5,1.7c0.2-0.9,0.4-1.8,0.5-2.8l1.2,0.2c-0.2,1.4-0.5,2.7-0.8,3.9c0.5,0.7,1,1.4,1.5,2.2l-0.9,0.9
			C401.7,481.6,401.3,481,401,480.5z M404.9,480.9c-0.5,1.3-1.1,2.4-1.8,3.3l-0.8-1c0.7-1,1.3-2.2,1.8-3.5c-0.6-0.9-1.2-1.7-1.8-2.5
			l0.8-0.8c0.4,0.5,0.9,1.1,1.4,1.8c0.3-1,0.5-2,0.6-3l1.2,0.2c-0.3,1.5-0.6,2.9-1,4.2c0.5,0.8,1,1.6,1.6,2.5L406,483
			C405.7,482.2,405.3,481.5,404.9,480.9z"/>
		<path class="st7" d="M416.3,474.6c0.6,0.6,0.9,1.3,0.9,2.2c0,0.9-0.3,1.7-1,2.4c-0.4,0.4-1.1,0.9-2.1,1.6
			c-1.1,0.7-1.7,1.3-1.9,1.9h5v1.3h-6.9c0-1,0.3-1.9,1-2.6c0.4-0.4,1.1-1,2.3-1.8c0.7-0.5,1.1-0.9,1.4-1.1c0.4-0.5,0.7-1.1,0.7-1.6
			c0-0.6-0.2-1-0.5-1.3s-0.8-0.4-1.4-0.4s-1.1,0.2-1.4,0.6s-0.5,1-0.5,1.8h-1.5c0-1.1,0.3-2,1-2.7c0.6-0.7,1.5-1.1,2.6-1.1
			C414.9,473.8,415.7,474.1,416.3,474.6z"/>
	</g>
	<rect x="381.4" y="503.1" class="st14" width="76" height="1"/>
	<g>
		<path class="st15" d="M384.8,524.9l-0.6-0.7c1.3-0.9,2.2-2,2.7-3.3c0.1-0.5,0.2-1,0.3-1.5h-3.4v8.2h-0.9v-9.1h4.4
			c0.1-0.6,0.1-1.3,0.1-2h0.9c0,0.7,0,1.4-0.1,2h4.2v7.7c0,0.8-0.4,1.2-1.2,1.2h-1.9l-0.2-0.9h1.8c0.4,0,0.6-0.2,0.6-0.6v-6.5h-3.4
			c-0.1,0.5-0.1,0.9-0.2,1.3c1.2,1.2,2.3,2.3,3.1,3.5l-0.6,0.7c-0.7-1-1.6-2.1-2.7-3.3C387.1,522.9,386.1,524,384.8,524.9z"/>
		<path class="st15" d="M402.1,527.5l-0.2-0.8h1.2c0.3,0,0.5-0.2,0.5-0.5v-8.3h-7.9v9.7h-0.9v-10.5h9.6v9.3c0,0.7-0.4,1.1-1.1,1.1
			H402.1z M398.1,523.2c-0.4,1.2-1,2.2-1.6,3l-0.6-0.7c0.6-0.9,1.1-1.9,1.5-3.2c-0.6-0.8-1.1-1.5-1.7-2.1l0.5-0.5
			c0.4,0.5,0.9,1,1.4,1.7c0.2-0.8,0.4-1.8,0.6-2.7l0.8,0.1c-0.2,1.2-0.4,2.4-0.8,3.4c0.5,0.6,0.9,1.3,1.4,2.1l-0.6,0.6
			C398.9,524.3,398.5,523.7,398.1,523.2z M401.6,523.4c-0.5,1.2-1,2.2-1.7,3l-0.6-0.7c0.7-0.9,1.2-2,1.7-3.2
			c-0.6-0.8-1.1-1.6-1.6-2.2l0.5-0.5c0.4,0.5,0.9,1.1,1.4,1.8c0.3-0.9,0.5-1.9,0.6-2.9l0.8,0.1c-0.2,1.3-0.5,2.5-0.9,3.6
			c0.5,0.7,0.9,1.5,1.5,2.3l-0.6,0.6C402.4,524.7,402,524.1,401.6,523.4z"/>
		<path class="st15" d="M409.2,522.3c-0.1,0.2-0.2,0.4-0.2,0.7h2.5v0.7c-0.3,0.8-0.7,1.5-1.3,2.1c0.6,0.3,1.1,0.5,1.7,0.8l-0.5,0.7
			c-0.5-0.3-1.1-0.6-1.8-0.9c-0.8,0.6-1.8,1-3,1.3l-0.4-0.7c1-0.3,1.8-0.6,2.5-1c-0.5-0.2-1.1-0.5-1.7-0.7c0.3-0.5,0.6-1,0.8-1.5
			h-1.4V523h1.8c0.1-0.3,0.2-0.5,0.3-0.8L409.2,522.3z M408.8,518.9v-2.3h0.8v2.3h2.2v0.8h-2.2v0.1c0.6,0.3,1.3,0.7,2,1.1l-0.4,0.7
			c-0.6-0.5-1.1-0.9-1.5-1.2v1.6h-0.8v-2.3c-0.4,0.9-1.1,1.8-2.1,2.5l-0.4-0.7c0.9-0.5,1.6-1.1,1.9-1.8h-1.7v-0.8L408.8,518.9
			L408.8,518.9z M408.1,518.3l-0.6,0.3c-0.3-0.6-0.5-1.1-0.8-1.6l0.7-0.2C407.6,517.3,407.9,517.8,408.1,518.3z M410.7,523.7h-2.1
			c-0.2,0.4-0.4,0.8-0.6,1.2c0.5,0.2,0.9,0.3,1.4,0.5C410,524.9,410.4,524.3,410.7,523.7z M411.6,517.1c-0.2,0.5-0.5,1-0.9,1.5
			l-0.6-0.3c0.4-0.5,0.7-1,0.9-1.5L411.6,517.1z M412.9,521.2c-0.2,0.6-0.5,1-0.7,1.5l-0.5-0.7c0.7-1.3,1.2-3.2,1.4-5.4l0.8,0.1
			c-0.1,0.6-0.2,1.2-0.3,1.7h3.2v0.8H416c-0.1,2-0.4,3.7-1.1,5.1c0.6,1.1,1.4,1.9,2.2,2.5l-0.5,0.7c-0.8-0.6-1.6-1.4-2.2-2.4
			c-0.6,1-1.3,1.8-2.2,2.4l-0.4-0.7c0.9-0.6,1.7-1.5,2.2-2.5C413.6,523.5,413.2,522.4,412.9,521.2z M413.3,519.9
			c0.3,1.4,0.7,2.6,1.2,3.6c0.5-1.2,0.7-2.6,0.8-4.2h-1.8L413.3,519.9z"/>
		<path class="st15" d="M418.6,527.5l-0.2-0.8c0.3,0,0.6,0.1,0.9,0.1s0.5-0.2,0.5-0.5v-2.9c-0.5,0.2-0.9,0.3-1.4,0.5l-0.2-0.8
			c0.6-0.1,1.1-0.3,1.6-0.5v-2.7h-1.4v-0.8h1.4v-2.3h0.8v2.3h1.2v0.8h-1.2v2.4c0.4-0.2,0.8-0.3,1.1-0.5v0.9
			c-0.4,0.2-0.7,0.4-1.1,0.5v3.5c0,0.7-0.3,1.1-1,1.1h-1V527.5z M421.8,527.6l-0.7-0.6c0.9-1.6,1.3-3.6,1.3-6.2V517h6.3v2.9h-2.3
			v1.4h2.6v0.8h-2.6v1.5h2v3.9h-0.8v-0.6h-3.3v0.6h-0.8v-3.9h2v-1.5h-2.4C423,524.2,422.6,526,421.8,527.6z M423.2,520v0.8
			c0,0.2,0,0.4,0,0.6h2.4V520L423.2,520L423.2,520z M423.2,517.9v1.3h4.6v-1.3H423.2z M427.7,526.2v-1.8h-3.3v1.8H427.7z"/>
		<path class="st15" d="M430.3,522.4l-0.3-0.9c1.3-1.4,2.2-3.1,2.8-4.9l0.8,0.4c-0.3,0.9-0.7,1.8-1.2,2.6v8h-0.9v-6.7
			C431.2,521.4,430.8,522,430.3,522.4z M436.1,518.1l0.4-1.5l0.8,0.1c-0.1,0.5-0.2,1-0.3,1.5h3.6v0.8h-3.8c-0.1,0.5-0.3,0.9-0.4,1.4
			h4.7v0.8h-5c-0.2,0.6-0.4,1.1-0.6,1.5h4.9v0.7c-0.5,0.8-1.3,1.7-2.4,2.5c0.6,0.3,1.1,0.6,1.6,1l-0.5,0.7c-1.5-1-3-1.8-4.5-2.4
			l0.5-0.7c0.7,0.3,1.5,0.6,2.2,0.9c0.9-0.7,1.7-1.3,2.2-2.1h-5.1c0.3-0.7,0.6-1.5,0.9-2.3h-2v-0.6h2.3c0.1-0.5,0.3-0.9,0.4-1.4
			h-2.1v-0.8L436.1,518.1L436.1,518.1z"/>
		<path class="st15" d="M445.2,519.9v1.8h1.1v0.8h-1.1v1.6c0.4-0.1,0.8-0.2,1.1-0.3v0.8l-1.1,0.3v2.7h-0.8v-2.5
			c-0.7,0.1-1.4,0.3-2.1,0.4l-0.1-0.8c0.8-0.1,1.5-0.2,2.2-0.3v-1.8h-1.9l-0.2-0.7c0.3-0.7,0.6-1.6,0.9-2.7h-1v-0.8h1.2
			c0.1-0.6,0.2-1.1,0.3-1.7l0.8,0.2c-0.1,0.5-0.2,1.1-0.3,1.5h2.1v0.8H444c-0.3,1-0.5,1.9-0.8,2.6h1.2V520L445.2,519.9L445.2,519.9z
			 M446.5,520.5l-0.5-0.7c1.2-0.9,2.3-2,3.3-3.2h0.6c1,1.3,2.1,2.3,3.2,3.1l-0.5,0.7c-1.1-0.8-2.1-1.8-3.1-3
			c-0.6,0.7-1.2,1.3-1.8,1.9h3.4v0.7h-3.4v-0.7C447.4,519.7,447,520.1,446.5,520.5z M448.2,527.5l-0.2-0.7h0.5
			c0.3,0,0.4-0.1,0.4-0.4v-1h-1.3v2.2h-0.8V521h2.8v5.6c0,0.6-0.3,0.9-0.9,0.9L448.2,527.5L448.2,527.5z M448.9,522.9v-1.2h-1.3v1.2
			H448.9z M448.9,524.7v-1.1h-1.3v1.1H448.9z M451,521.3v4.3h-0.7v-4.3H451z M450.6,527.5l-0.2-0.8c0.3,0,0.6,0,0.9,0
			s0.4-0.2,0.4-0.5v-5.5h0.8v5.7c0,0.7-0.3,1-0.9,1L450.6,527.5L450.6,527.5z"/>
	</g>
</g>
<g>
	<g>
		<g>
			<rect x="622.4" y="453.1" class="st5" width="116" height="90"/>
		</g>
	</g>
	<g>
		<path class="st7" d="M649.2,478.4v-1.8c1.1-0.6,2.2-1.4,3.2-2.3h-7.5v-1.2h9.3v1.2c-1.1,1.1-2.3,2-3.7,3v1.1h5.2v1.3h-5.2v4.3
			c0,0.9-0.5,1.4-1.4,1.4h-2.5l-0.4-1.3c0.7,0,1.5,0,2.3,0c0.4,0,0.6-0.2,0.6-0.5v-3.9h-5.8v-1.3H649.2z"/>
		<path class="st7" d="M666.5,485.3l-0.3-1.3l1.3,0.1c0.3,0,0.5-0.2,0.5-0.5v-9.4h-8.8v11.2h-1.3V473h11.4v10.9c0,1-0.5,1.4-1.4,1.4
			H666.5z M662,480.5c-0.5,1.3-1,2.4-1.7,3.3l-0.9-1c0.7-1,1.2-2.2,1.7-3.5c-0.6-0.8-1.2-1.6-1.8-2.3l0.8-0.8
			c0.4,0.5,0.9,1.1,1.5,1.7c0.2-0.9,0.4-1.8,0.5-2.8l1.2,0.2c-0.2,1.4-0.5,2.7-0.8,3.9c0.5,0.7,1,1.4,1.5,2.2l-0.9,0.9
			C662.7,481.6,662.3,481,662,480.5z M665.9,480.9c-0.5,1.3-1.1,2.4-1.8,3.3l-0.8-1c0.7-1,1.3-2.2,1.8-3.5c-0.6-0.9-1.2-1.7-1.8-2.5
			l0.8-0.8c0.4,0.5,0.9,1.1,1.4,1.8c0.3-1,0.5-2,0.6-3l1.2,0.2c-0.3,1.5-0.6,2.9-1,4.2c0.5,0.8,1,1.6,1.6,2.5L667,483
			C666.7,482.2,666.3,481.5,665.9,480.9z"/>
		<path class="st7" d="M677.3,474.5c0.6,0.5,0.9,1.2,0.9,2c0,1.1-0.6,1.8-1.7,2.2c0.6,0.2,1,0.5,1.3,0.8c0.3,0.4,0.5,0.9,0.5,1.5
			c0,0.9-0.3,1.7-1,2.3c-0.7,0.6-1.6,0.9-2.6,0.9s-1.8-0.3-2.5-0.8c-0.7-0.6-1.1-1.4-1.2-2.6h1.5c0,0.7,0.2,1.2,0.7,1.6
			c0.4,0.3,0.8,0.5,1.4,0.5c0.6,0,1.2-0.2,1.6-0.6c0.3-0.3,0.5-0.7,0.5-1.2c0-0.6-0.2-1-0.5-1.3s-0.8-0.4-1.5-0.4H674v-1.1h0.7
			c0.6,0,1.1-0.1,1.4-0.4c0.3-0.3,0.5-0.7,0.5-1.2s-0.2-0.9-0.4-1.1c-0.3-0.3-0.8-0.4-1.4-0.4c-0.6,0-1.1,0.2-1.4,0.5
			c-0.3,0.3-0.5,0.8-0.6,1.4h-1.5c0.1-1,0.4-1.8,1.1-2.3c0.6-0.6,1.4-0.8,2.4-0.8C675.9,473.8,676.7,474,677.3,474.5z"/>
	</g>
	<rect x="642.4" y="503.1" class="st14" width="76" height="1"/>
	<g>
		<path class="st15" d="M645.8,524.9l-0.6-0.7c1.3-0.9,2.2-2,2.7-3.3c0.1-0.5,0.2-1,0.3-1.5h-3.4v8.2h-0.9v-9.1h4.4
			c0.1-0.6,0.1-1.3,0.1-2h0.9c0,0.7,0,1.4-0.1,2h4.2v7.7c0,0.8-0.4,1.2-1.2,1.2h-1.9l-0.2-0.9h1.8c0.4,0,0.6-0.2,0.6-0.6v-6.5H649
			c-0.1,0.5-0.1,0.9-0.2,1.3c1.2,1.2,2.3,2.3,3.1,3.5l-0.6,0.7c-0.7-1-1.6-2.1-2.7-3.3C648.1,522.9,647.1,524,645.8,524.9z"/>
		<path class="st15" d="M663.1,527.5l-0.2-0.8h1.2c0.3,0,0.5-0.2,0.5-0.5v-8.3h-7.9v9.7h-0.9v-10.5h9.6v9.3c0,0.7-0.4,1.1-1.1,1.1
			H663.1z M659.1,523.2c-0.4,1.2-1,2.2-1.6,3l-0.6-0.7c0.6-0.9,1.1-1.9,1.5-3.2c-0.6-0.8-1.1-1.5-1.7-2.1l0.5-0.5
			c0.4,0.5,0.9,1,1.4,1.7c0.2-0.8,0.4-1.8,0.6-2.7l0.8,0.1c-0.2,1.2-0.4,2.4-0.8,3.4c0.5,0.6,0.9,1.3,1.4,2.1l-0.6,0.6
			C659.9,524.3,659.5,523.7,659.1,523.2z M662.6,523.4c-0.5,1.2-1,2.2-1.7,3l-0.6-0.7c0.7-0.9,1.2-2,1.7-3.2
			c-0.6-0.8-1.1-1.6-1.6-2.2l0.5-0.5c0.4,0.5,0.9,1.1,1.4,1.8c0.3-0.9,0.5-1.9,0.6-2.9l0.8,0.1c-0.2,1.3-0.5,2.5-0.9,3.6
			c0.5,0.7,0.9,1.5,1.5,2.3l-0.6,0.6C663.4,524.7,663,524.1,662.6,523.4z"/>
		<path class="st15" d="M668,519.5l-0.8-0.5c0.7-0.7,1.2-1.6,1.6-2.5l0.8,0.2c-0.1,0.3-0.2,0.5-0.3,0.7h3.2v0.8h-2
			c0.3,0.4,0.5,0.7,0.7,1l-0.8,0.3c-0.2-0.5-0.5-0.9-0.8-1.3H669C668.7,518.7,668.4,519.1,668,519.5z M677.7,522.1h-0.8v-1.4h-8.5
			v1.4h-0.8v-2.2h4.8c-0.1-0.3-0.2-0.5-0.4-0.8l0.8-0.1h-0.1c0.6-0.7,1-1.5,1.2-2.4l0.8,0.2c-0.1,0.3-0.2,0.5-0.3,0.7h3.5v0.8h-2.1
			c0.3,0.3,0.5,0.6,0.6,0.9l-0.8,0.3c-0.2-0.4-0.5-0.8-0.8-1.2H674c-0.2,0.4-0.5,0.8-0.7,1.2l-0.6-0.4c0.1,0.3,0.3,0.6,0.4,0.9h4.6
			L677.7,522.1L677.7,522.1z M676,523.7h-6v0.8h6.5v3.1h-0.9v-0.5h-5.7v0.5H669v-6.2h6.8v2.3H676z M675.2,523v-1h-5.1v1H675.2z
			 M675.7,526.3v-1.1H670v1.1H675.7z"/>
		<path class="st15" d="M680.7,521.1v-2.8h-1.5v-0.9h3.8v0.8h-1.5v2.8h1.3v0.8h-1.3v2.7c0.5-0.2,0.9-0.3,1.3-0.5v0.8
			c-1.1,0.5-2.3,0.8-3.6,1.2l-0.2-0.8c0.5-0.1,1.1-0.2,1.6-0.4v-3h-1.3V521h1.4V521.1z M689.5,517.1v5.5H687v1.4h2.7v0.8H687v1.6
			h3.1v0.8h-7.2v-0.8h3.2v-1.6h-2.7V524h2.7v-1.4h-2.5v-5.5H689.5z M686.1,519.5v-1.6h-1.7v1.6H686.1z M686.1,520.2h-1.7v1.6h1.7
			V520.2z M687,519.5h1.7v-1.6H687V519.5z M688.6,520.2H687v1.6h1.7v-1.6H688.6z"/>
	</g>
</g>
<g>
	<g class="st12">
		<rect x="338.2" y="838" class="st13" width="157" height="50"/>
	</g>
	<g>
		<rect x="336.7" y="836.5" class="st5" width="156" height="49"/>
		<g>
			<g>
				<path class="st7" d="M417,858.6v1.3h-6.6c-1.2,2.4-2.3,4.1-3.2,5.2c2.3-0.1,4.6-0.4,6.9-0.7c-0.4-0.8-0.9-1.6-1.5-2.5l1.1-0.7
					c1.3,1.9,2.3,3.5,3,4.9l-1.2,0.8c-0.2-0.5-0.4-1-0.7-1.4c-2.8,0.4-5.9,0.7-9.2,0.9l-0.3-1.4c0.1,0,0.3-0.1,0.3-0.1
					c0.9-0.6,2-2.4,3.4-5.1h-4.5v-1.3L417,858.6L417,858.6z M415.7,854.7v1.3h-10.1v-1.3H415.7z"/>
				<path class="st7" d="M419.3,867l-1-0.9c0.6-1.2,0.8-2.8,0.9-4.7v-6.9h4.4v11c0,1-0.4,1.4-1.3,1.4h-1.1l-0.3-1.2
					c0.4,0,0.7,0.1,1.1,0.1c0.3,0,0.4-0.3,0.4-0.7v-2.8h-2C420.2,864.1,419.9,865.7,419.3,867z M422.3,855.7h-2v2.1h2V855.7z
					 M420.3,861h2v-2h-2V861z M425.7,866.9h-1.2v-12.4h5.9c0,1.8-0.1,3-0.3,3.6c-0.2,0.6-0.7,0.9-1.6,0.9h-1.2l-0.4-1.1
					c0.2,0,0.5,0,0.9,0c0.3,0,0.5,0,0.7-0.1c0.1,0,0.3-0.2,0.3-0.4c0.1-0.2,0.1-0.8,0.2-1.8h-3.4v3.9h4.7v1.1
					c-0.3,1.4-0.7,2.5-1.3,3.5c0.6,0.5,1.2,1,2,1.5l-0.7,1.1c-0.8-0.5-1.5-1-2.1-1.6c-0.6,0.6-1.3,1.2-2,1.6l-0.7-1v1.2H425.7z
					 M425.7,865.8c0.7-0.4,1.3-0.9,1.9-1.5c-0.8-1-1.4-2.2-1.7-3.5h-0.2L425.7,865.8L425.7,865.8z M428.3,863.3
					c0.4-0.7,0.7-1.6,1-2.5H427C427.3,861.8,427.7,862.6,428.3,863.3z"/>
				<path class="st7" d="M437.6,854.1c-0.1,0.3-0.3,0.7-0.5,1h6v1.1c-0.8,1-1.9,1.8-3.1,2.5c1.5,0.6,3.2,0.9,5,1.1l-0.6,1.2
					c-2.2-0.3-4.1-0.8-5.9-1.6c-1.7,0.8-3.6,1.3-5.9,1.6l-0.6-1.2c1.9-0.2,3.6-0.6,5-1.2c-0.7-0.4-1.3-0.8-1.9-1.3
					c-0.5,0.4-1,0.8-1.6,1.1l-0.5-1c1.6-0.9,2.7-2.1,3.3-3.4L437.6,854.1z M439,860.3c0,0.5,0,1-0.1,1.4h4.8c0,2.5-0.2,3.9-0.6,4.4
					s-1.1,0.7-2.1,0.7c-0.5,0-1.1,0-1.7-0.1l-0.3-1.2c0.7,0,1.3,0.1,1.8,0.1c0.7,0,1.2-0.2,1.3-0.4c0.2-0.3,0.3-1.1,0.3-2.3h-3.8
					c-0.1,0.3-0.3,0.7-0.4,1c-0.7,1.3-2.3,2.3-4.9,3.1l-0.9-1.1c2.3-0.7,3.8-1.5,4.5-2.5c0.1-0.2,0.2-0.4,0.3-0.5h-3.9v-1.2h4.3
					c0.1-0.4,0.1-0.9,0.1-1.4H439z M441.2,856.3h-4.9l-0.1,0.1c0.7,0.6,1.5,1.1,2.4,1.6C439.6,857.5,440.5,857,441.2,856.3z"/>
				<path class="st7" d="M457.9,854.5v3.6h-1.7c0.3,0.4,0.5,0.7,0.7,1.1h1.9v1.2h-3.5c0.9,0.7,2.1,1.2,3.7,1.7l-0.5,1.1
					c-0.3-0.1-0.5-0.2-0.8-0.3v4h-1.2v-0.5h-2.3v0.5H453v-4.5h3.3c-1.1-0.6-2-1.2-2.6-1.9h-2.3c-0.7,0.8-1.6,1.4-2.7,1.9h3.1v4.6
					h-1.2v-0.6h-2v0.5h-1.2v-4c-0.3,0.1-0.6,0.2-0.9,0.3l-0.6-1.1c1.6-0.4,2.8-1,3.7-1.7h-3.5v-1.2h4.7c0.2-0.3,0.4-0.7,0.6-1
					l1.3,0.1c-0.1,0.3-0.3,0.6-0.4,0.9h3.1c-0.2-0.3-0.4-0.6-0.5-0.8l1-0.3H453v-3.6L457.9,854.5L457.9,854.5z M452,854.5v3.6h-4.5
					v-3.6H452z M450.8,855.6h-2.1v1.4h2.1V855.6z M450.9,865.3v-1.8h-2v1.8H450.9z M456.6,865.3v-1.8h-2.3v1.8H456.6z M456.7,855.6
					h-2.2v1.4h2.2V855.6z"/>
			</g>
		</g>
		<path class="st6" d="M492.2,837v48h-155v-48H492.2 M493.2,836h-157v50h157V836L493.2,836z"/>
	</g>
	<g id="XMLID_342_">
		<g>
			<path class="st11" d="M372.2,874c-7.2,0-13-5.8-13-13s5.8-13,13-13c6.5,0,11.9,4.8,12.8,11h2c-1-7.3-7.2-13-14.9-13
				c-8.3,0-15,6.7-15,15s6.7,15,15,15c7.6,0,13.9-5.7,14.9-13h-2C384.1,869.2,378.7,874,372.2,874z M379.2,857l-7-4l-7,4v8l3.2,1.8
				c0.2-0.7,0.6-1.2,1-1.7l-2.2-1.3v-3.7l5,2.9l5-2.9v3.7l-4.1,2.4c-0.3-0.1-0.6-0.2-0.9-0.2c-1.1,0-2,0.9-2,2s0.9,2,2,2s2-0.9,2-2
				v-0.1l5-2.9V857z M372.2,860.7l-4.7-2.7l4.7-2.7l4.7,2.7L372.2,860.7z"/>
		</g>
	</g>
</g>
</svg>
