<?xml version="1.0" encoding="UTF-8"?>
<svg width="32px" height="32px" viewBox="0 0 32 32" version="1.1" xmlns="http://www.w3.org/2000/svg" xmlns:xlink="http://www.w3.org/1999/xlink">
    <!-- Generator: Sketch 52.6 (67491) - http://www.bohemiancoding.com/sketch -->
    <title>域名与网站-32px</title>
    <desc>Created with Sketch.</desc>
    <g id="域名与网站-32px" stroke="none" stroke-width="1" fill="none" fill-rule="evenodd">
        <rect id="Rectangle-Copy" fill="#444444" opacity="0" x="0" y="0" width="32" height="32"></rect>
        <g id="image-3" transform="translate(1.000000, 4.000000)" fill="#888888">
            <path d="M30,18 L30,0 L0,0 L0,24 L30,24 L30,22 L28,22 L2,22 L2,7 L28,7 L28,18 L30,18 Z M2,5 L2,2 L28,2 L28,5 L2,5 Z M26,17 L26,13 C26,11.9 25.1,11 24,11 L20,11 C18.9,11 18,11.9 18,13 L18,17 L20,17 L20,13 L21,13 L21,17 L23,17 L23,13 L24,13 L24,17 L26,17 Z M6,17 L6,15 L4,15 L4,17 L6,17 Z M17,15 L17,13 C17,11.9 16.1,11 15,11 L14,11 C12.9,11 12,11.9 12,13 L12,15 C12,16.1 12.9,17 14,17 L15,17 C16.1,17 17,16.1 17,15 Z M14,15 L14,13 L15,13 L15,15 L14,15 Z M9,13 L11,13 L11,11 L9,11 C7.9,11 7,11.9 7,13 L7,15 C7,16.1 7.9,17 9,17 L11,17 L11,15 L9,15 L9,13 Z" id="XMLID_93_"></path>
        </g>
    </g>
</svg>