<svg xmlns="http://www.w3.org/2000/svg" xmlns:xlink="http://www.w3.org/1999/xlink" width="830" height="241" viewBox="0 0 830 241">
  <defs>
    <clipPath id="a">
      <path d="M741.206,77.05,749,81.55v9l-7.794,4.5-7.794-4.5v-9Zm0,2.309L735.412,82.7V89.4l5.794,3.345L747,89.4V82.7Zm1,5.691v5h-2v-5h-1.772l-1.228-2h6.919l1.081,2Zm-10-11c5.627,0,10-1.822,10-3s-4.373-3-10-3-10,1.822-10,3S726.578,74.05,732.206,74.05Zm12,2.732-2-1.155V73.815c-2.15,1.347-5.826,2.235-10,2.235s-7.85-.888-10-2.235V80.05c0,1.107,3.863,2.783,9,2.981v2a19.09,19.09,0,0,1-9-2.218V89.05c0,1.107,3.863,2.783,9,2.981v2c-6.16-.212-11-2.362-11-4.983v-18c0-2.762,5.372-5,12-5s12,2.238,12,5Z" style="fill: none"/>
    </clipPath>
    <clipPath id="b">
      <rect x="718.206" y="64.05" width="32" height="32" style="fill: none"/>
    </clipPath>
  </defs>
  <title>高并发事务</title>
  <g>
    <rect x="3.635" y="95.95" width="137.9" height="50" style="fill: #bbb;opacity: 0.600000023841858;isolation: isolate"/>
    <rect x="1.535" y="94.05" width="137.9" height="50" style="fill: #fff;stroke: #e5e5e5"/>
    <g style="isolation: isolate">
      <path d="M72.912,121.981h-.981v-5.407H65.039v5.519h-.98v-6.122c-.42.337-.855.645-1.275.925l-.644-.77a12.984,12.984,0,0,0,4.216-4.1l1,.21c-.21.336-.421.658-.645.966h4.637v.743a14.212,14.212,0,0,1-1.485,1.681h3.054Zm-3.978-4.595v1.934a5.1,5.1,0,0,1-1.457,3.6,9.872,9.872,0,0,1-4.4,1.947l-.546-.855a9.5,9.5,0,0,0,4.23-1.751,4.319,4.319,0,0,0,1.191-2.941v-1.934Zm1.176-3.292h-4.1a14.4,14.4,0,0,1-1.527,1.528h4.2A13.772,13.772,0,0,0,70.11,114.094Zm4.174,9.932-.56.854a23.953,23.953,0,0,0-5-2.521l.5-.756A26.813,26.813,0,0,1,74.284,124.026Z" style="fill: #444"/>
      <path d="M79.46,113.142v-1.177h.98v1.177h2.536v.925H80.44v1.288H83.8c-.056-1.05-.084-2.184-.084-3.418h.98c0,1.276.029,2.41.084,3.418h3.531v.911H84.838a25.5,25.5,0,0,0,.351,3.054c.083.406.167.784.252,1.148a16.008,16.008,0,0,0,1.218-3.5l.9.407a16.786,16.786,0,0,1-1.723,4.4,7.134,7.134,0,0,0,.364.855c.365.686.658,1.036.883,1.036s.42-.756.588-2.241l.869.462c-.309,1.863-.743,2.8-1.331,2.8-.476,0-1-.433-1.541-1.274a4.859,4.859,0,0,1-.406-.757,7.85,7.85,0,0,1-2.48,2.172l-.546-.813a7.425,7.425,0,0,0,2.591-2.451,20.3,20.3,0,0,1-.532-2.031,23.177,23.177,0,0,1-.434-3.264H76v-.911h3.46v-1.288H76.728v-.925Zm3.516,9.749c-.7.084-1.429.183-2.186.267v1.652H79.8v-1.555c-1.009.1-2.073.183-3.194.267l-.126-.938c1.176-.071,2.283-.155,3.32-.239V121.1H77.064l-.2-.826a8.552,8.552,0,0,0,1.093-1.751H76.42v-.9h1.933c.14-.336.266-.7.392-1.065l.966.182c-.111.308-.224.6-.335.883h3.669v.9H78.983a12.347,12.347,0,0,1-.994,1.723H79.8v-1.093h.994v1.093h2.129v.854H80.79v1.149q1.157-.126,2.186-.252Zm4.79-8.713-.756.534a15.043,15.043,0,0,0-1.639-2.1l.77-.49A17.309,17.309,0,0,1,87.766,114.178Z" style="fill: #444"/>
      <path d="M91.358,115.734v-3.67h1.023v3.67h1.443v.98H92.381v4.72c.672-.195,1.317-.405,1.961-.658v1.051a29.96,29.96,0,0,1-4.4,1.289l-.279-1.065c.588-.1,1.148-.211,1.694-.35v-4.987H89.817v-.98Zm6.164-3.685a15.821,15.821,0,0,1-.588,2.087h5.126a87.309,87.309,0,0,1-.252,8.9,1.827,1.827,0,0,1-2.059,1.709c-.378,0-1.009-.028-1.905-.057l-.252-.952c.756.028,1.414.056,1.975.056a1.171,1.171,0,0,0,1.274-1.093c.14-.812.211-3.333.239-7.578H96.527a11.817,11.817,0,0,1-1.765,2.746L94.09,117a11.2,11.2,0,0,0,2.423-5.072Zm2.423,8.419a19.235,19.235,0,0,1-4.468,2.185l-.421-.952a19.147,19.147,0,0,0,4.623-2.171Zm-.826-1.961-.7.7a14.319,14.319,0,0,0-2.185-2.018l.644-.63A15.294,15.294,0,0,1,99.119,118.507Z" style="fill: #444"/>
      <path d="M107.208,116.126a11.055,11.055,0,0,1-1.023,1.863v6.863h-.939v-5.7a14.955,14.955,0,0,1-1.274,1.219l-.295-.939a10,10,0,0,0,2.676-3.712Zm-.2-3.712a10.537,10.537,0,0,1-3,4.02l-.294-.98a8.874,8.874,0,0,0,2.423-3.432Zm.421,3.011-.575-.686a8.624,8.624,0,0,0,2.452-2.829l.952.223c-.154.281-.308.561-.476.813h2.227v.686a9.05,9.05,0,0,1-.925,1.275h1.569v5.029h-2.1c-.014.364-.042.7-.084,1.023h2.746v.91h-2.928l-.07.238a13.336,13.336,0,0,1,2.619,1.7l-.532.813a12.9,12.9,0,0,0-2.381-1.793,5.073,5.073,0,0,1-2.325,2.045l-.6-.729a4.438,4.438,0,0,0,2.241-2.045l.084-.224h-2.213v-.91h2.452a7.7,7.7,0,0,0,.1-1.023h-2.087v-4.623Zm3.557-1.667h-1.806a9.64,9.64,0,0,1-1.107,1.149h2.045A11.043,11.043,0,0,0,110.989,113.758Zm-1.274,3.306v-1.4h-1.289v1.4Zm0,.729h-1.289v1.386h1.289Zm.812-.729h1.289v-1.4h-1.289Zm1.289.729h-1.289v1.386h1.289Zm1.653,7-.2-.911a6.02,6.02,0,0,0,.841.07.434.434,0,0,0,.491-.476v-6.01H113.09v-.952h3.5v.952h-1.05v6.248a.962.962,0,0,1-1.093,1.079Zm2.9-11.809v.911h-3.123v-.911Z" style="fill: #444"/>
    </g>
    <path d="M41.705,117.056a2,2,0,1,0,2,2A2,2,0,0,0,41.705,117.056Zm-4,15a13,13,0,1,1,12.83-15h2a15,15,0,1,0,0,4h-2A13,13,0,0,1,37.705,132.056Zm0-17v-2h-6v12h6v-2h-4v-3h4v-2h-4v-3Zm4-3a2,2,0,1,0,2,2A2,2,0,0,0,41.705,112.056Zm0,10a2,2,0,1,0,2,2A2,2,0,0,0,41.705,122.056Z" style="fill: #00a4ff"/>
  </g>
  <g>
    <rect x="690.1" y="134.45" width="137.9" height="50" style="fill: #bbb;opacity: 0.600000023841858;isolation: isolate"/>
    <rect x="688" y="132.55" width="137.9" height="50" style="fill: #fff;stroke: #e5e5e5"/>
    <g>
      <g style="isolation: isolate">
        <path d="M763.227,151.945a3.656,3.656,0,0,1,2.353.685,2.556,2.556,0,0,1,.9,2.1,2.487,2.487,0,0,1-.463,1.484,2.308,2.308,0,0,1-1.359.87v.027a1.9,1.9,0,0,1,1.6,1.821l.154,1.541a2.679,2.679,0,0,0,.533,1.471h-1.247a2.721,2.721,0,0,1-.406-1.331l-.126-1.33a1.655,1.655,0,0,0-.631-1.276,2.364,2.364,0,0,0-1.443-.364h-3.025v4.3h-1.148v-10Zm-3.166,4.706h3.025a2.551,2.551,0,0,0,1.7-.519,2.037,2.037,0,0,0,.013-2.731,2.622,2.622,0,0,0-1.709-.462h-3.025Z" style="fill: #444"/>
        <path d="M773.853,155.684a5.012,5.012,0,0,1,.841,2.956h-5.715a3.116,3.116,0,0,0,.658,1.891,2.053,2.053,0,0,0,1.625.673,2.251,2.251,0,0,0,1.443-.449,2.524,2.524,0,0,0,.728-1.134h1.121a3.276,3.276,0,0,1-.981,1.709,3.37,3.37,0,0,1-2.311.812,3.239,3.239,0,0,1-2.493-1.022,4.491,4.491,0,0,1-.042-5.478,3.042,3.042,0,0,1,2.493-1.135A3.089,3.089,0,0,1,773.853,155.684Zm-4.16.393a2.8,2.8,0,0,0-.687,1.695h4.525c-.14-1.556-.91-2.326-2.283-2.326A2.029,2.029,0,0,0,769.693,156.077Z" style="fill: #444"/>
        <path d="M782.478,151.749v10.2h-1.051v-1.191a2.559,2.559,0,0,1-2.409,1.387,2.97,2.97,0,0,1-2.479-1.148,4.241,4.241,0,0,1-.813-2.69,4.124,4.124,0,0,1,.813-2.633,2.839,2.839,0,0,1,2.423-1.164,2.611,2.611,0,0,1,2.395,1.528v-4.286Zm-5.071,4.524a3.333,3.333,0,0,0-.532,2.031,3.559,3.559,0,0,0,.518,2.059,2.023,2.023,0,0,0,1.765.854,1.972,1.972,0,0,0,1.695-.839,3.4,3.4,0,0,0,.532-1.976v-.14a3.322,3.322,0,0,0-.6-2.046,1.9,1.9,0,0,0-1.583-.784A2.046,2.046,0,0,0,777.407,156.273Z" style="fill: #444"/>
        <path d="M785.737,152.211a.723.723,0,0,1,.252.588.814.814,0,0,1-.252.6.882.882,0,0,1-1.2,0,.8.8,0,0,1-.238-.6.714.714,0,0,1,.238-.588.879.879,0,0,1,1.2,0ZM785.7,154.7v7.242h-1.12V154.7Z" style="fill: #444"/>
        <path d="M793.327,156.763h-1.092a1.54,1.54,0,0,0-.561-.98,2.241,2.241,0,0,0-1.33-.337,2.041,2.041,0,0,0-1.177.28.844.844,0,0,0-.462.757c0,.309.2.574.616.784a10.8,10.8,0,0,0,1.5.477,6.616,6.616,0,0,1,1.863.672,1.682,1.682,0,0,1,.868,1.485c0,1.484-1.022,2.241-3.067,2.241-1.905,0-2.942-.841-3.11-2.508h1.093a1.88,1.88,0,0,0,.6,1.234,2.362,2.362,0,0,0,1.387.336c1.289,0,1.947-.421,1.947-1.233a1.044,1.044,0,0,0-.687-.939,10.673,10.673,0,0,0-1.541-.462,6.208,6.208,0,0,1-1.793-.645,1.546,1.546,0,0,1-.826-1.414,1.659,1.659,0,0,1,.813-1.457,3.34,3.34,0,0,1,1.988-.547C792.15,154.507,793.131,155.251,793.327,156.763Z" style="fill: #444"/>
      </g>
      <g>
        <path d="M730.13,168.982c-5.365-.362-8.13-2.212-8.13-2.932v-6.226a17.977,17.977,0,0,0,7.813,2.134v-2c-5.16-.412-7.813-2.206-7.813-2.912v-6.226c2.154,1.349,5.836,2.226,10,2.226s7.846-.877,10-2.226v4.012l2,1.154v-7.94c0-2.8-5.4-5-12-5s-12,2.2-12,5v18c0,2.8,5.4,5,12,5,.552,0,1.091-.021,1.623-.051ZM732,145.05c6.6,0,10,2.2,10,3s-3.4,3-10,3-10-2.2-10-3S725.4,145.05,732,145.05Z" style="fill: #00a4ff"/>
        <polygon points="741 172.05 733 168.05 733 166.05 741 170.05 741 172.05" style="fill: #00a4ff"/>
        <polygon points="741 167.05 733 163.05 733 161.05 741 165.05 741 167.05" style="fill: #00a4ff"/>
        <polygon points="741 157.05 733 161.05 733 163.05 741 159.05 741 157.05" style="fill: #00a4ff"/>
        <polygon points="741 172.05 749 168.05 749 166.05 741 170.05 741 172.05" style="fill: #00a4ff"/>
        <polygon points="741 167.05 749 163.05 749 161.05 741 165.05 741 167.05" style="fill: #00a4ff"/>
        <polygon points="741 157.05 749 161.05 749 163.05 741 159.05 741 157.05" style="fill: #00a4ff"/>
      </g>
    </g>
  </g>
  <g>
    <rect x="690.1" y="57.45" width="137.9" height="50" style="fill: #bbb;opacity: 0.600000023841858;isolation: isolate"/>
    <rect x="688" y="55.55" width="137.9" height="50" style="fill: #fff;stroke: #e5e5e5"/>
    <g>
      <g style="isolation: isolate">
        <path d="M766.336,74.945v.994h-3.529v9.007h-1.135V75.939h-3.53v-.994Z" style="fill: #444"/>
        <path d="M772.047,74.945a3.394,3.394,0,0,1,2.213.672,2.284,2.284,0,0,1,.8,1.848,2.431,2.431,0,0,1-.449,1.457,2.647,2.647,0,0,1-1.218.8,2.5,2.5,0,0,1,1.526.813,2.378,2.378,0,0,1,.561,1.625,2.481,2.481,0,0,1-1.037,2.184,4.324,4.324,0,0,1-2.423.6h-4.44v-10Zm-3.32,4.37h3.04a2.572,2.572,0,0,0,1.6-.435,1.58,1.58,0,0,0,.561-1.3,1.489,1.489,0,0,0-.547-1.261,2.586,2.586,0,0,0-1.6-.406h-3.054Zm0,4.664h3.194a3.194,3.194,0,0,0,1.666-.391,1.6,1.6,0,0,0,.743-1.444,1.665,1.665,0,0,0-.644-1.429,2.894,2.894,0,0,0-1.765-.448h-3.194Z" style="fill: #444"/>
        <path d="M782.365,78.32a2.891,2.891,0,0,1,.644,1.976v4.65h-1.05V83.727a3.373,3.373,0,0,1-1.107.967,3.679,3.679,0,0,1-1.807.448,2.6,2.6,0,0,1-1.737-.547,1.825,1.825,0,0,1-.672-1.456,2.041,2.041,0,0,1,.994-1.863,4.628,4.628,0,0,1,2.521-.616l1.738-.029v-.377c0-1.219-.631-1.822-1.891-1.822a2.305,2.305,0,0,0-1.3.323,1.574,1.574,0,0,0-.729,1.037l-1.106-.085a2.488,2.488,0,0,1,1.12-1.695,3.84,3.84,0,0,1,2.087-.5A2.966,2.966,0,0,1,782.365,78.32Zm-2.143,3.18c-1.625.028-2.438.56-2.438,1.611a.994.994,0,0,0,.406.826,1.78,1.78,0,0,0,1.093.322,2.739,2.739,0,0,0,1.821-.671,1.935,1.935,0,0,0,.785-1.5v-.617Z" style="fill: #444"/>
        <path d="M790.275,79.763h-1.092a1.544,1.544,0,0,0-.561-.98,2.241,2.241,0,0,0-1.33-.337,2.041,2.041,0,0,0-1.177.28.845.845,0,0,0-.463.757c0,.309.2.574.617.784a10.8,10.8,0,0,0,1.5.477,6.641,6.641,0,0,1,1.863.672A1.682,1.682,0,0,1,790.5,82.9c0,1.484-1.022,2.241-3.067,2.241-1.906,0-2.942-.841-3.11-2.508h1.093a1.88,1.88,0,0,0,.6,1.234,2.36,2.36,0,0,0,1.386.336c1.289,0,1.948-.421,1.948-1.233a1.045,1.045,0,0,0-.687-.939,10.688,10.688,0,0,0-1.54-.462,6.184,6.184,0,0,1-1.793-.645,1.546,1.546,0,0,1-.827-1.414,1.66,1.66,0,0,1,.812-1.457,3.345,3.345,0,0,1,1.989-.547C789.1,77.507,790.079,78.251,790.275,79.763Z" style="fill: #444"/>
        <path d="M797.429,78.684a5.019,5.019,0,0,1,.841,2.956h-5.716a3.116,3.116,0,0,0,.658,1.891,2.056,2.056,0,0,0,1.625.673,2.247,2.247,0,0,0,1.443-.449,2.525,2.525,0,0,0,.729-1.134h1.12a3.275,3.275,0,0,1-.98,1.709,3.373,3.373,0,0,1-2.312.812,3.241,3.241,0,0,1-2.493-1.022,4.495,4.495,0,0,1-.042-5.478,3.043,3.043,0,0,1,2.493-1.135A3.091,3.091,0,0,1,797.429,78.684Zm-4.16.393a2.785,2.785,0,0,0-.687,1.7h4.525c-.14-1.556-.911-2.326-2.284-2.326A2.026,2.026,0,0,0,793.269,79.077Z" style="fill: #444"/>
      </g>
      <g style="clip-path: url(#a)">
        <g style="clip-path: url(#b)">
          <rect x="715.206" y="61.05" width="38.794" height="39" style="fill: #00a4ff"/>
        </g>
      </g>
    </g>
  </g>
  <g>
    <rect x="213.635" y="96.9" width="135.2" height="48.1" style="fill: #bbb;opacity: 0.600000023841858;isolation: isolate"/>
    <rect x="211.535" y="95" width="135.2" height="48.1" style="fill: #fff;stroke: #e5e5e5"/>
    <g style="isolation: isolate">
      <path d="M245.185,124.72l-.21-.98c.378.028.742.057,1.078.057a.494.494,0,0,0,.561-.547V119.8c-.561.224-1.135.434-1.709.617l-.252-1.009a16.86,16.86,0,0,0,1.961-.63v-3.124h-1.709v-.967h1.709v-2.647h1.037v2.647h1.162v.967h-1.162v2.689c.392-.2.784-.392,1.176-.6v1.022q-.588.315-1.176.589V123.5a1.092,1.092,0,0,1-1.247,1.218Zm7.942-6.807c-.14.379-.293.742-.461,1.092h4.8v.981h-1.54a5.379,5.379,0,0,1-1.3,2.634c.953.448,1.877.924,2.759,1.428l-.546.813a30.231,30.231,0,0,0-2.927-1.569A11.428,11.428,0,0,1,249.5,124.9l-.393-.911a11.917,11.917,0,0,0,3.754-1.191c-.855-.391-1.765-.77-2.745-1.162.378-.574.715-1.121,1.009-1.653h-1.877v-.981h2.394c.2-.419.364-.812.519-1.2Zm-.588-1.471h1.373a14.572,14.572,0,0,0,1-2.228l.952.337a13.314,13.314,0,0,1-.883,1.891h2.27v.967h-7.817v-.967h2.144a18.729,18.729,0,0,0-.855-1.681l.826-.392A16.715,16.715,0,0,1,252.539,116.442Zm1.317-3.193h3.138v.923h-7.243v-.923h3.083c-.155-.421-.323-.813-.491-1.163l1.05-.168C253.547,112.31,253.7,112.758,253.856,113.249Zm-1.709,6.737c-.252.435-.519.854-.8,1.247q1.219.462,2.354.966a4.393,4.393,0,0,0,1.274-2.213Z" style="fill: #444"/>
      <path d="M262.21,112.534l.841-.532a9.9,9.9,0,0,1,3.166,4.72c1.317,3.348,3.068,5.715,5.281,7.1l-.63.812c-2.27-1.372-4.118-3.922-5.562-7.62-.084-.223-.154-.42-.223-.588a13.423,13.423,0,0,1-5.8,8.223l-.6-.854a13.591,13.591,0,0,0,5.841-8.545A7.98,7.98,0,0,0,262.21,112.534Z" style="fill: #444"/>
      <path d="M275.258,117.2a15.693,15.693,0,0,1-1.737,7.55l-.728-.659a14.524,14.524,0,0,0,1.47-6.891v-4.637h10.2v3.474h-9.2Zm0-3.7v1.625h8.223V113.5Zm9.932,6.149v.925h-5.365a15.7,15.7,0,0,1-2.255,2.955c1.835-.14,3.655-.336,5.448-.6-.378-.462-.784-.923-1.2-1.4l.742-.462a27.984,27.984,0,0,1,2.661,3.18l-.812.574a12.787,12.787,0,0,0-.756-1.093q-3.342.462-7.3.714l-.225-.854a1.451,1.451,0,0,0,.21-.1,9.192,9.192,0,0,0,2.41-2.913h-3.053v-.925Zm-.911-2.283v.9h-7.606v-.9Z" style="fill: #444"/>
      <path d="M287.675,124.875l-.757-.7a12.246,12.246,0,0,0,.855-4.846V112.6h4.091V123.53c0,.841-.393,1.274-1.177,1.274h-1.121l-.237-.9c.391.028.742.056,1.078.056s.532-.251.532-.756v-3.166h-2.27A13.058,13.058,0,0,1,287.675,124.875Zm3.264-11.361h-2.255v2.367h2.255Zm-2.255,5.617h2.255v-2.338h-2.255Zm5.309,5.73h-.952V112.59h5.672a14.766,14.766,0,0,1-.252,3.446c-.168.574-.686.868-1.569.868h-1.135l-.265-.868c.238,0,.546.013.938.013a3.15,3.15,0,0,0,.742-.069.647.647,0,0,0,.378-.406,9.63,9.63,0,0,0,.183-2.06h-3.74v4.244h4.762v.855a10.229,10.229,0,0,1-1.373,3.684,10.931,10.931,0,0,0,2.228,1.653l-.5.854a11.4,11.4,0,0,1-2.3-1.722,7.448,7.448,0,0,1-2.171,1.737l-.532-.813a6.873,6.873,0,0,0,2.031-1.653,8.793,8.793,0,0,1-1.807-3.7h-.336Zm2.717-3.292a9.532,9.532,0,0,0,1.149-2.914H295.2A7.732,7.732,0,0,0,296.71,121.569Z" style="fill: #444"/>
      <path d="M305.976,112.1a8.6,8.6,0,0,1-.532,1.065h6.106v.812a12.266,12.266,0,0,1-3.277,2.648,18.131,18.131,0,0,0,5.295,1.3l-.462.939a17.62,17.62,0,0,1-5.926-1.682,22.557,22.557,0,0,1-5.981,1.709l-.462-.952a22.735,22.735,0,0,0,5.35-1.345,14.419,14.419,0,0,1-2.184-1.583,11.851,11.851,0,0,1-1.751,1.3l-.616-.812a7.606,7.606,0,0,0,3.417-3.544Zm1.33,6.093a9.677,9.677,0,0,1-.139,1.6h4.93c-.028,2.367-.238,3.782-.644,4.244a2.688,2.688,0,0,1-2.1.7c-.448,0-.994-.028-1.639-.057l-.252-.91,1.654.071c.84-.015,1.358-.2,1.582-.533a6.665,6.665,0,0,0,.379-2.605h-4.147a5.777,5.777,0,0,1-.448,1.05c-.715,1.26-2.354,2.311-4.931,3.124l-.673-.827c2.3-.672,3.825-1.527,4.553-2.549a4.475,4.475,0,0,0,.435-.8h-4.175v-.911h4.455a7.406,7.406,0,0,0,.168-1.6Zm2.8-4.076h-5.351l-.182.224a13.2,13.2,0,0,0,2.592,1.765A12.567,12.567,0,0,0,310.108,114.117Z" style="fill: #444"/>
    </g>
  </g>
  <g>
    <line x1="413.035" y1="120" x2="348.535" y2="120" style="fill: none;stroke: #888;stroke-miterlimit: 10"/>
    <polygon points="412.535 124.5 418.535 120.1 412.535 115.5 412.535 124.5" style="fill: #888"/>
  </g>
  <g>
    <line x1="682.035" y1="81.5" x2="645.535" y2="81.5" style="fill: none;stroke: #888;stroke-miterlimit: 10"/>
    <polygon points="681.535 86 687.535 81.6 681.535 77 681.535 86" style="fill: #888"/>
  </g>
  <g>
    <line x1="682.035" y1="158.5" x2="645.535" y2="158.5" style="fill: none;stroke: #888;stroke-miterlimit: 10"/>
    <polygon points="681.535 163 687.535 158.6 681.535 154 681.535 163" style="fill: #888"/>
  </g>
  <g>
    <line x1="206.035" y1="120" x2="141.535" y2="120" style="fill: none;stroke: #888;stroke-miterlimit: 10"/>
    <polygon points="205.535 124.5 211.535 120.1 205.535 115.5 205.535 124.5" style="fill: #888"/>
  </g>
  <g>
    <path d="M419.535,2.5v235h179V2.5Z" style="fill: none;stroke: #bababa;stroke-dasharray: 5"/>
    <g>
      <rect x="442.635" y="49.4" width="135.2" height="48.1" style="fill: #bbb;opacity: 0.600000023841858;isolation: isolate"/>
      <rect x="440.535" y="47.5" width="135.2" height="48.1" style="fill: #fff;stroke: #e5e5e5"/>
      <g style="isolation: isolate">
        <path d="M474.245,65.893h5.127v.981h-10.38V70a17.612,17.612,0,0,1-1.443,7.395l-.826-.742A15.7,15.7,0,0,0,467.956,70V65.893h5.2a9.456,9.456,0,0,0-.756-1.261l1.106-.2A10.83,10.83,0,0,1,474.245,65.893Zm.854,9.918a40.041,40.041,0,0,0,2.27-7.383l.994.267a41.974,41.974,0,0,1-2.171,7.116h2.956v.981h-9.89v-.981Zm-2.8-1.556-.952.239a39.011,39.011,0,0,0-1.442-5.1l.882-.28A40.88,40.88,0,0,1,472.3,74.255Zm2.495-.826-.967.225a43.777,43.777,0,0,0-1.219-5.253l.883-.28A53.271,53.271,0,0,1,474.792,73.429Z" style="fill: #444"/>
        <path d="M481.494,77.267l-.771-.686a8.137,8.137,0,0,0,1.387-4.748V65.109h10.435V75.6a1.3,1.3,0,0,1-1.47,1.471h-1.612l-.265-.994c.559.028,1.078.055,1.554.055.5,0,.771-.293.771-.881V72.813h-3.811v4.105h-1.036V72.813h-3.614A8.365,8.365,0,0,1,481.494,77.267Zm1.624-11.178V68.5h3.558v-2.41Zm0,5.8h3.558V69.437h-3.558Zm8.405-5.8h-3.811V68.5h3.811Zm0,3.348h-3.811v2.451h3.811Z" style="fill: #444"/>
        <path d="M497.329,69.857a14.642,14.642,0,0,1-1.906,7.494l-.742-.77a13.331,13.331,0,0,0,1.653-6.724v-4.2a50.69,50.69,0,0,0,9.735-.966l.5.91a52.95,52.95,0,0,1-9.244.952v1.961h10.085v.981H497.329Zm8.978,7.536H505.3v-.658h-5.672v.658h-1.009V71.455h7.69ZM505.3,75.755V72.421h-5.672v3.334Z" style="fill: #444"/>
        <path d="M509.269,69.172q1.848-.631,4.58-4.652l1.037.351a21.543,21.543,0,0,1-3.8,4.259c2.69-.113,5.239-.3,7.648-.519A25.908,25.908,0,0,0,517.1,66.5l.911-.435a35.807,35.807,0,0,1,3.362,4.651l-.981.476c-.35-.588-.7-1.135-1.036-1.667q-4.434.4-9.89.6Zm10.548,8.236h-1.023v-.7h-7.312v.7H510.46V71.566h9.357Zm-1.023-1.667V72.533h-7.312v3.208Z" style="fill: #444"/>
        <path d="M523.675,77.422l-.757-.7a12.246,12.246,0,0,0,.855-4.846V65.151h4.091V76.077c0,.841-.393,1.274-1.177,1.274h-1.121l-.237-.9c.391.028.742.056,1.078.056s.532-.252.532-.756V72.589h-2.27A13.063,13.063,0,0,1,523.675,77.422Zm3.264-11.361h-2.255v2.367h2.255Zm-2.255,5.617h2.255V69.339h-2.255Zm5.309,5.73h-.952V65.137h5.672a14.766,14.766,0,0,1-.252,3.446c-.168.574-.686.868-1.569.868h-1.135l-.265-.868c.238,0,.546.013.938.013a3.15,3.15,0,0,0,.742-.069.647.647,0,0,0,.378-.406,9.63,9.63,0,0,0,.183-2.06h-3.74v4.244h4.762v.855a10.229,10.229,0,0,1-1.373,3.684A10.968,10.968,0,0,0,535.61,76.5l-.5.854a11.44,11.44,0,0,1-2.3-1.722,7.464,7.464,0,0,1-2.171,1.737l-.532-.813a6.873,6.873,0,0,0,2.031-1.653,8.793,8.793,0,0,1-1.807-3.7h-.336Zm2.717-3.292a9.532,9.532,0,0,0,1.149-2.914H531.2A7.732,7.732,0,0,0,532.71,74.116Z" style="fill: #444"/>
        <path d="M541.976,64.647a8.6,8.6,0,0,1-.532,1.065h6.106v.812a12.266,12.266,0,0,1-3.277,2.648,18.163,18.163,0,0,0,5.295,1.3l-.462.939a17.62,17.62,0,0,1-5.926-1.682A22.594,22.594,0,0,1,537.2,71.44l-.462-.952a22.784,22.784,0,0,0,5.35-1.345A14.419,14.419,0,0,1,539.9,67.56a11.851,11.851,0,0,1-1.751,1.3l-.616-.813a7.6,7.6,0,0,0,3.417-3.544Zm1.33,6.093a9.686,9.686,0,0,1-.139,1.6h4.93c-.028,2.367-.238,3.782-.644,4.244a2.688,2.688,0,0,1-2.1.7c-.448,0-.994-.028-1.639-.057l-.252-.91,1.654.07c.84-.014,1.358-.2,1.582-.532a6.665,6.665,0,0,0,.379-2.6h-4.147a5.739,5.739,0,0,1-.448,1.049c-.715,1.261-2.354,2.312-4.931,3.125l-.673-.827c2.3-.673,3.825-1.527,4.553-2.549a4.475,4.475,0,0,0,.435-.8h-4.175v-.911h4.455a7.413,7.413,0,0,0,.168-1.6Zm2.8-4.076h-5.351l-.182.224a13.2,13.2,0,0,0,2.592,1.765A12.6,12.6,0,0,0,546.108,66.664Z" style="fill: #444"/>
      </g>
    </g>
    <g>
      <rect x="442.635" y="109.4" width="135.2" height="48.1" style="fill: #bbb;opacity: 0.600000023841858;isolation: isolate"/>
      <rect x="440.535" y="107.5" width="135.2" height="48.1" style="fill: #fff;stroke: #e5e5e5"/>
      <g style="isolation: isolate">
        <path d="M474.245,125.893h5.127v.981h-10.38V130a17.612,17.612,0,0,1-1.443,7.4l-.826-.742A15.7,15.7,0,0,0,467.956,130v-4.1h5.2a9.456,9.456,0,0,0-.756-1.261l1.106-.2A10.83,10.83,0,0,1,474.245,125.893Zm.854,9.918a40.041,40.041,0,0,0,2.27-7.383l.994.267a41.974,41.974,0,0,1-2.171,7.116h2.956v.981h-9.89v-.981Zm-2.8-1.556-.952.239a39.011,39.011,0,0,0-1.442-5.1l.882-.28A40.88,40.88,0,0,1,472.3,134.255Zm2.495-.826-.967.225a43.777,43.777,0,0,0-1.219-5.253l.883-.28A53.271,53.271,0,0,1,474.792,133.429Z" style="fill: #444"/>
        <path d="M481.494,137.267l-.771-.686a8.137,8.137,0,0,0,1.387-4.748v-6.724h10.435V135.6a1.3,1.3,0,0,1-1.47,1.471h-1.612l-.265-.994c.559.028,1.078.055,1.554.055.5,0,.771-.293.771-.881v-2.438h-3.811v4.105h-1.036v-4.105h-3.614A8.365,8.365,0,0,1,481.494,137.267Zm1.624-11.178v2.41h3.558v-2.41Zm0,5.8h3.558v-2.451h-3.558Zm8.405-5.8h-3.811v2.41h3.811Zm0,3.348h-3.811v2.451h3.811Z" style="fill: #444"/>
        <path d="M497.329,129.857a14.642,14.642,0,0,1-1.906,7.494l-.742-.77a13.331,13.331,0,0,0,1.653-6.724v-4.2a50.69,50.69,0,0,0,9.735-.966l.5.91a52.95,52.95,0,0,1-9.244.952v1.961h10.085v.981H497.329Zm8.978,7.536H505.3v-.658h-5.672v.658h-1.009v-5.938h7.69Zm-1.009-1.638v-3.334h-5.672v3.334Z" style="fill: #444"/>
        <path d="M509.269,129.172q1.848-.631,4.58-4.652l1.037.351a21.543,21.543,0,0,1-3.8,4.259c2.69-.113,5.239-.295,7.648-.519A25.908,25.908,0,0,0,517.1,126.5l.911-.435a35.807,35.807,0,0,1,3.362,4.651l-.981.476c-.35-.588-.7-1.135-1.036-1.667q-4.434.4-9.89.6Zm10.548,8.236h-1.023v-.7h-7.312v.7H510.46v-5.842h9.357Zm-1.023-1.667v-3.208h-7.312v3.208Z" style="fill: #444"/>
        <path d="M523.675,137.422l-.757-.7a12.246,12.246,0,0,0,.855-4.846v-6.724h4.091v10.926c0,.841-.393,1.274-1.177,1.274h-1.121l-.237-.9c.391.028.742.056,1.078.056s.532-.252.532-.756v-3.166h-2.27A13.063,13.063,0,0,1,523.675,137.422Zm3.264-11.361h-2.255v2.367h2.255Zm-2.255,5.617h2.255v-2.339h-2.255Zm5.309,5.73h-.952V125.137h5.672a14.766,14.766,0,0,1-.252,3.446c-.168.574-.686.868-1.569.868h-1.135l-.265-.868c.238,0,.546.013.938.013a3.15,3.15,0,0,0,.742-.069.647.647,0,0,0,.378-.406,9.63,9.63,0,0,0,.183-2.06h-3.74v4.244h4.762v.855a10.229,10.229,0,0,1-1.373,3.684,10.968,10.968,0,0,0,2.228,1.653l-.5.854a11.44,11.44,0,0,1-2.3-1.722,7.464,7.464,0,0,1-2.171,1.737l-.532-.813a6.873,6.873,0,0,0,2.031-1.653,8.793,8.793,0,0,1-1.807-3.7h-.336Zm2.717-3.292a9.532,9.532,0,0,0,1.149-2.914H531.2A7.732,7.732,0,0,0,532.71,134.116Z" style="fill: #444"/>
        <path d="M541.976,124.647a8.6,8.6,0,0,1-.532,1.065h6.106v.812a12.266,12.266,0,0,1-3.277,2.648,18.163,18.163,0,0,0,5.295,1.3l-.462.939a17.62,17.62,0,0,1-5.926-1.682,22.594,22.594,0,0,1-5.981,1.709l-.462-.952a22.784,22.784,0,0,0,5.35-1.345,14.419,14.419,0,0,1-2.184-1.583,11.851,11.851,0,0,1-1.751,1.3l-.616-.813a7.6,7.6,0,0,0,3.417-3.544Zm1.33,6.093a9.686,9.686,0,0,1-.139,1.6h4.93c-.028,2.367-.238,3.782-.644,4.244a2.688,2.688,0,0,1-2.1.7c-.448,0-.994-.028-1.639-.057l-.252-.91,1.654.07c.84-.014,1.358-.2,1.582-.532a6.665,6.665,0,0,0,.379-2.605h-4.147a5.739,5.739,0,0,1-.448,1.049c-.715,1.261-2.354,2.312-4.931,3.125l-.673-.827c2.3-.673,3.825-1.527,4.553-2.549a4.475,4.475,0,0,0,.435-.8h-4.175v-.911h4.455a7.413,7.413,0,0,0,.168-1.6Zm2.8-4.076h-5.351l-.182.224a13.2,13.2,0,0,0,2.592,1.765A12.6,12.6,0,0,0,546.108,126.664Z" style="fill: #444"/>
      </g>
    </g>
    <g>
      <rect x="442.635" y="169.4" width="135.2" height="48.1" style="fill: #bbb;opacity: 0.600000023841858;isolation: isolate"/>
      <rect x="440.535" y="167.5" width="135.2" height="48.1" style="fill: #fff;stroke: #e5e5e5"/>
      <g style="isolation: isolate">
        <path d="M474.245,185.893h5.127v.981h-10.38V190a17.612,17.612,0,0,1-1.443,7.4l-.826-.742A15.7,15.7,0,0,0,467.956,190v-4.1h5.2a9.456,9.456,0,0,0-.756-1.261l1.106-.2A10.83,10.83,0,0,1,474.245,185.893Zm.854,9.918a40.041,40.041,0,0,0,2.27-7.383l.994.267a41.974,41.974,0,0,1-2.171,7.116h2.956v.981h-9.89v-.981Zm-2.8-1.556-.952.239a39.011,39.011,0,0,0-1.442-5.1l.882-.28A40.88,40.88,0,0,1,472.3,194.255Zm2.495-.826-.967.225a43.777,43.777,0,0,0-1.219-5.253l.883-.28A53.271,53.271,0,0,1,474.792,193.429Z" style="fill: #444"/>
        <path d="M481.494,197.267l-.771-.686a8.137,8.137,0,0,0,1.387-4.748v-6.724h10.435V195.6a1.3,1.3,0,0,1-1.47,1.471h-1.612l-.265-.994c.559.028,1.078.055,1.554.055.5,0,.771-.293.771-.881v-2.438h-3.811v4.105h-1.036v-4.105h-3.614A8.365,8.365,0,0,1,481.494,197.267Zm1.624-11.178v2.41h3.558v-2.41Zm0,5.8h3.558v-2.451h-3.558Zm8.405-5.8h-3.811v2.41h3.811Zm0,3.348h-3.811v2.451h3.811Z" style="fill: #444"/>
        <path d="M497.329,189.857a14.642,14.642,0,0,1-1.906,7.494l-.742-.77a13.331,13.331,0,0,0,1.653-6.724v-4.2a50.69,50.69,0,0,0,9.735-.966l.5.91a52.95,52.95,0,0,1-9.244.952v1.961h10.085v.981H497.329Zm8.978,7.536H505.3v-.658h-5.672v.658h-1.009v-5.938h7.69Zm-1.009-1.638v-3.334h-5.672v3.334Z" style="fill: #444"/>
        <path d="M509.269,189.172q1.848-.631,4.58-4.652l1.037.351a21.543,21.543,0,0,1-3.8,4.259c2.69-.113,5.239-.295,7.648-.519A25.908,25.908,0,0,0,517.1,186.5l.911-.435a35.807,35.807,0,0,1,3.362,4.651l-.981.476c-.35-.588-.7-1.135-1.036-1.667q-4.434.4-9.89.6Zm10.548,8.236h-1.023v-.7h-7.312v.7H510.46v-5.842h9.357Zm-1.023-1.667v-3.208h-7.312v3.208Z" style="fill: #444"/>
        <path d="M523.675,197.422l-.757-.7a12.246,12.246,0,0,0,.855-4.846v-6.724h4.091v10.926c0,.841-.393,1.274-1.177,1.274h-1.121l-.237-.9c.391.028.742.056,1.078.056s.532-.252.532-.756v-3.166h-2.27A13.063,13.063,0,0,1,523.675,197.422Zm3.264-11.361h-2.255v2.367h2.255Zm-2.255,5.617h2.255v-2.339h-2.255Zm5.309,5.73h-.952V185.137h5.672a14.766,14.766,0,0,1-.252,3.446c-.168.574-.686.868-1.569.868h-1.135l-.265-.868c.238,0,.546.013.938.013a3.15,3.15,0,0,0,.742-.069.647.647,0,0,0,.378-.406,9.63,9.63,0,0,0,.183-2.06h-3.74v4.244h4.762v.855a10.229,10.229,0,0,1-1.373,3.684,10.968,10.968,0,0,0,2.228,1.653l-.5.854a11.44,11.44,0,0,1-2.3-1.722,7.464,7.464,0,0,1-2.171,1.737l-.532-.813a6.873,6.873,0,0,0,2.031-1.653,8.793,8.793,0,0,1-1.807-3.7h-.336Zm2.717-3.292a9.532,9.532,0,0,0,1.149-2.914H531.2A7.732,7.732,0,0,0,532.71,194.116Z" style="fill: #444"/>
        <path d="M541.976,184.647a8.6,8.6,0,0,1-.532,1.065h6.106v.812a12.266,12.266,0,0,1-3.277,2.648,18.163,18.163,0,0,0,5.295,1.3l-.462.939a17.62,17.62,0,0,1-5.926-1.682,22.594,22.594,0,0,1-5.981,1.709l-.462-.952a22.784,22.784,0,0,0,5.35-1.345,14.419,14.419,0,0,1-2.184-1.583,11.851,11.851,0,0,1-1.751,1.3l-.616-.813a7.6,7.6,0,0,0,3.417-3.544Zm1.33,6.093a9.686,9.686,0,0,1-.139,1.6h4.93c-.028,2.367-.238,3.782-.644,4.244a2.688,2.688,0,0,1-2.1.7c-.448,0-.994-.028-1.639-.057l-.252-.91,1.654.07c.84-.014,1.358-.2,1.582-.532a6.665,6.665,0,0,0,.379-2.605h-4.147a5.739,5.739,0,0,1-.448,1.049c-.715,1.261-2.354,2.312-4.931,3.125l-.673-.827c2.3-.673,3.825-1.527,4.553-2.549a4.475,4.475,0,0,0,.435-.8h-4.175v-.911h4.455a7.413,7.413,0,0,0,.168-1.6Zm2.8-4.076h-5.351l-.182.224a13.2,13.2,0,0,0,2.592,1.765A12.6,12.6,0,0,0,546.108,186.664Z" style="fill: #444"/>
      </g>
    </g>
    <g style="isolation: isolate">
      <path d="M437.477,24.533a8.688,8.688,0,0,0,3.67-2.871H437a16.868,16.868,0,0,1-4.385,1.33l-.6-.9c3.054-.308,5.309-1.246,6.766-2.787l.868.476a9.985,9.985,0,0,1-1.079.952h3.839v.8c-1.99,3.306-5.687,5.015-11.122,5.141l-.407-.967a18.245,18.245,0,0,0,5.66-.812,15.055,15.055,0,0,0-1.485-1.709l.9-.42A18.662,18.662,0,0,1,437.477,24.533Zm-.1-10.043a10.541,10.541,0,0,1-.8.8h4.02v.8c-1.513,2.689-4.329,4.2-8.419,4.524l-.434-.91a15.874,15.874,0,0,0,3.39-.56,13.679,13.679,0,0,0-1.373-1.457l.882-.42a14.8,14.8,0,0,1,1.429,1.541,7.272,7.272,0,0,0,3.376-2.62h-4.09a13.377,13.377,0,0,1-3.88,1.471l-.588-.924a9.836,9.836,0,0,0,5.588-2.718Z" style="fill: #444"/>
      <path d="M447.233,19.841l-.687.686a13.878,13.878,0,0,0-2.339-2.1l.687-.658A17.557,17.557,0,0,1,447.233,19.841Zm.154,2.045a43.452,43.452,0,0,1-2.087,4.973l-.939-.42a38.594,38.594,0,0,0,2.157-4.889Zm.28-5.406-.687.685a16.827,16.827,0,0,0-2.521-2.171l.687-.658A20.44,20.44,0,0,1,447.667,16.48Zm4.594.364a8.766,8.766,0,0,0,.393-1.318h-3.376V19.6a15.68,15.68,0,0,1-1.6,7.284l-.757-.672A14.306,14.306,0,0,0,448.3,19.6V14.616h8.4v.91h-3.1a9.591,9.591,0,0,1-.378,1.318h2.732V21.76h-2.326v3.965a.994.994,0,0,1-1.107,1.134h-1.176l-.21-.911a9.229,9.229,0,0,0,1.05.071c.309,0,.477-.183.477-.533V21.76h-2.4V16.844Zm-.742,6.106a10.856,10.856,0,0,1-1.513,3.222l-.812-.5a8.728,8.728,0,0,0,1.429-2.913Zm3.544-4.019V17.642h-3.894v1.289Zm0,.756h-3.894v1.26h3.894Zm1.821,6.093-.855.378a20.981,20.981,0,0,0-1.485-3.179l.841-.294A20.31,20.31,0,0,1,456.884,25.78Z" style="fill: #444"/>
      <path d="M463.53,14.2V25.332h1.989V14.2h1.023V25.332h4.2v.981H458.333v-.981h4.174V14.2ZM461.5,23.231l-.925.238A52.312,52.312,0,0,0,458.683,17l.855-.28A50.006,50.006,0,0,1,461.5,23.231ZM470.366,17a32.417,32.417,0,0,1-2.115,6.4l-.911-.322a30.247,30.247,0,0,0,2.129-6.332Z" style="fill: #444"/>
      <path d="M477.376,14.154a8.461,8.461,0,0,1-.532,1.065h6.107v.812a12.267,12.267,0,0,1-3.278,2.648,18.163,18.163,0,0,0,5.3,1.3l-.462.938a17.584,17.584,0,0,1-5.925-1.682,22.516,22.516,0,0,1-5.982,1.709L472.137,20a22.808,22.808,0,0,0,5.351-1.344,14.5,14.5,0,0,1-2.185-1.583,11.846,11.846,0,0,1-1.751,1.3l-.616-.812a7.606,7.606,0,0,0,3.417-3.544Zm1.331,6.093a9.672,9.672,0,0,1-.141,1.6H483.5c-.028,2.367-.238,3.782-.644,4.244a2.687,2.687,0,0,1-2.1.7c-.448,0-.994-.028-1.638-.056l-.252-.911,1.653.071c.84-.015,1.358-.2,1.582-.533a6.661,6.661,0,0,0,.379-2.605h-4.147a5.777,5.777,0,0,1-.448,1.05c-.714,1.261-2.353,2.311-4.931,3.124l-.672-.826c2.3-.673,3.824-1.528,4.553-2.55a4.407,4.407,0,0,0,.434-.8h-4.175v-.911h4.455a7.343,7.343,0,0,0,.168-1.6Zm2.8-4.076h-5.351l-.182.225a13.26,13.26,0,0,0,2.591,1.764A12.553,12.553,0,0,0,481.508,16.171Z" style="fill: #444"/>
      <path d="M489.765,20.682c-.1.265-.2.517-.28.77h2.928v.826a5.65,5.65,0,0,1-1.556,2.4c.673.308,1.317.616,1.934.952l-.547.784a20.294,20.294,0,0,0-2.157-1.106,11.486,11.486,0,0,1-3.488,1.555l-.476-.84a12.686,12.686,0,0,0,2.956-1.149c-.617-.266-1.261-.533-1.948-.785.365-.616.687-1.19.967-1.751h-1.653v-.882h2.045q.189-.462.337-.883Zm-.56-3.937V14.07h.938v2.675h2.549v.883h-2.549v.154c.756.378,1.541.813,2.325,1.288l-.518.785q-1.05-.84-1.807-1.345v1.821h-.938V17.67a6.564,6.564,0,0,1-2.508,2.871l-.49-.812a5.787,5.787,0,0,0,2.255-2.1h-1.989v-.883Zm-.785-.672-.728.336a13.07,13.07,0,0,0-.939-1.821l.8-.266A11.99,11.99,0,0,1,488.42,16.073Zm3.082,6.261h-2.409a10.358,10.358,0,0,1-.757,1.345c.561.2,1.093.392,1.6.6A5.42,5.42,0,0,0,491.5,22.334Zm1.037-7.718a9.355,9.355,0,0,1-1.079,1.807l-.714-.364a8.911,8.911,0,0,0,1.064-1.779Zm1.54,4.805a12.311,12.311,0,0,1-.826,1.723l-.63-.771a17.776,17.776,0,0,0,1.667-6.346l.98.169c-.084.714-.2,1.387-.308,2h3.7v.966h-.91a14.981,14.981,0,0,1-1.29,6,8.662,8.662,0,0,0,2.592,2.913l-.546.827a9.2,9.2,0,0,1-2.522-2.83,9.4,9.4,0,0,1-2.591,2.816l-.518-.841a8.246,8.246,0,0,0,2.591-2.913A19.483,19.483,0,0,1,494.079,19.421Zm.49-1.527a19.322,19.322,0,0,0,1.359,4.23,14.961,14.961,0,0,0,.9-4.959h-2.074Z" style="fill: #444"/>
      <path d="M500.641,26.775l-.21-.953a9.486,9.486,0,0,0,1.065.071c.35,0,.532-.211.532-.6V21.859c-.56.209-1.107.406-1.653.574l-.252-.981a17.584,17.584,0,0,0,1.905-.574V17.712h-1.681v-.967h1.681V14.1h.98v2.647h1.345v.967h-1.345v2.76q.674-.294,1.3-.631v.995c-.434.224-.868.42-1.3.616v4.09c0,.813-.392,1.233-1.176,1.233Zm3.74.126-.784-.7A15.342,15.342,0,0,0,505.11,19V14.616h7.382v3.4h-2.634v1.653h3v.91h-3v1.724h2.353V26.9h-.938v-.686h-3.8V26.9h-.938V22.307h2.339V20.583H506.02A16.327,16.327,0,0,1,504.381,26.9Zm1.709-8.881V19c0,.225-.014.449-.014.673h2.8V18.02Zm0-2.465v1.554h5.421V15.555Zm5.183,9.763V23.2h-3.8v2.115Z" style="fill: #444"/>
    </g>
  </g>
  <line x1="645.535" y1="120" x2="598.535" y2="120" style="fill: none;stroke: #888;stroke-miterlimit: 10"/>
  <line x1="645.535" y1="159" x2="645.535" y2="81" style="fill: none;stroke: #888;stroke-miterlimit: 10"/>
</svg>
