<?xml version="1.0" encoding="utf-8"?>
<!-- Generator: Adobe Illustrator 22.1.0, SVG Export Plug-In . SVG Version: 6.00 Build 0)  -->
<svg version="1.1" id="svgwrapper_svg" xmlns="http://www.w3.org/2000/svg" xmlns:xlink="http://www.w3.org/1999/xlink" x="0px"
	 y="0px" width="830px" height="400px" viewBox="0 0 830 400" style="enable-background:new 0 0 830 400;" xml:space="preserve">
<style type="text/css">
	.st0{fill:#BABABA;}
	.st1{fill:#CEE3FF;}
	.st2{opacity:0.6;fill:#BBBBBB;enable-background:new    ;}
	.st3{fill:#FFFFFF;stroke:#E5E5E5;}
	.st4{fill:#00A4FF;}
	.st5{fill:#444444;}
	.st6{font-family:'PingFangSC-Regular-GBpc-EUC-H';}
	.st7{font-size:12.6304px;}
	.st8{fill:#878787;}
	.st9{fill:none;stroke:#878787;stroke-miterlimit:10;}
</style>
<g id="bottomgroup" transform="translate(0,0)">
</g>
<g id="middlegroup" transform="translate(0,0)">
</g>
<g id="textgroup" transform="translate(0,0)">
</g>
<g id="assistantgroup" transform="translate(0,0)">
</g>
<g>
	<g>
		<g>
			<path class="st0" d="M698.8,22.9H693v1h5.7L698.8,22.9L698.8,22.9z M689.2,22.9h-5.7v1h5.7V22.9L689.2,22.9z M679.6,22.9h-5.7v1
				h5.7V22.9L679.6,22.9z M670,22.9h-5.7v1h5.7V22.9L670,22.9z M660.4,22.9h-5.7v1h5.7V22.9L660.4,22.9z M650.9,22.9h-5.7v1h5.7
				V22.9L650.9,22.9z M641.3,22.9h-5.7v1h5.7V22.9L641.3,22.9z M631.7,22.9H626v1h5.7V22.9L631.7,22.9z M622.1,22.9h-5.7v1h5.7V22.9
				L622.1,22.9z M612.6,22.9h-5.7v1h5.7V22.9L612.6,22.9z M603,22.9h-5.7v1h5.7V22.9L603,22.9z M593.4,22.9h-5.7v1h5.7V22.9
				L593.4,22.9z M583.8,22.9h-5.7v1h5.7V22.9L583.8,22.9z M574.3,22.9h-5.7v1h5.7V22.9L574.3,22.9z M564.7,22.9H559v1h5.7V22.9
				L564.7,22.9z M555.1,22.9h-5.7v1h5.7V22.9L555.1,22.9z M545.5,22.9h-5.7v1h5.7V22.9L545.5,22.9z M535.9,22.9h-5.7v1h5.7V22.9
				L535.9,22.9z M526.4,22.9h-5.7v1h5.7V22.9L526.4,22.9z M516.8,22.9H511v1h5.7L516.8,22.9L516.8,22.9z M507.2,22.9h-5.7v1h5.7
				V22.9L507.2,22.9z M497.6,22.9h-5.7v1h5.7V22.9L497.6,22.9z M488.1,22.9h-5.7v1h5.7V22.9L488.1,22.9z M478.5,22.9h-5.7v1h5.7
				V22.9L478.5,22.9z M468.9,22.9h-5.7v1h5.7V22.9L468.9,22.9z M459.3,22.9h-5.7v1h5.7V22.9L459.3,22.9z M449.7,22.9H444v1h5.7V22.9
				L449.7,22.9z M440.2,22.9h-5.7v1h5.7V22.9L440.2,22.9z M430.6,22.9h-5.7v1h5.7V22.9L430.6,22.9z M421,22.9h-5.7v1h5.7V22.9
				L421,22.9z M411.4,22.9h-5.7v1h5.7V22.9L411.4,22.9z M401.9,22.9h-5.7v1h5.7V22.9L401.9,22.9z M392.3,22.9h-5.7v1h5.7V22.9
				L392.3,22.9z M382.7,22.9H377v1h5.7V22.9L382.7,22.9z M373.1,22.9h-5.7v1h5.7V22.9L373.1,22.9z M363.6,22.9h-5.7v1h5.7V22.9
				L363.6,22.9z M354,22.9h-5.7v1h5.7V22.9L354,22.9z M344.4,22.9h-5.7v1h5.7V22.9L344.4,22.9z M334.8,22.9h-5.7v1h5.7V22.9
				L334.8,22.9z M325.2,22.9h-5.7v1h5.7V22.9L325.2,22.9z M315.7,22.9H310v1h5.7V22.9L315.7,22.9z M306.1,22.9h-5.7v1h5.7V22.9
				L306.1,22.9z M296.5,22.9h-5.7v1h5.7V22.9L296.5,22.9z M286.9,22.9h-2.7v1l0,0c0,0.9,0,2.2,0,2.2h1v-2.2h1.7V22.9L286.9,22.9z
				 M285.2,29.9h-1v5.9h1V29.9L285.2,29.9z M285.2,39.7h-1v5.9h1V39.7L285.2,39.7z M285.2,49.5h-1v5.9h1V49.5L285.2,49.5z
				 M285.2,59.3h-1v5.9h1V59.3L285.2,59.3z M285.2,69.1h-1V75h1V69.1L285.2,69.1z M285.2,78.9h-1v5.9h1V78.9L285.2,78.9z
				 M285.2,88.6h-1v5.9h1V88.6L285.2,88.6z M285.2,98.4h-1v5.9h1V98.4L285.2,98.4z M285.2,108.2h-1v5.9h1V108.2L285.2,108.2z
				 M285.2,118h-1v5.9h1V118L285.2,118z M285.2,127.8h-1v5.9h1V127.8L285.2,127.8z M285.2,137.6h-1v5.9h1V137.6L285.2,137.6z
				 M285.2,147.4h-1v5.9h1V147.4L285.2,147.4z M285.2,157.2h-1v5.9h1V157.2L285.2,157.2z M285.2,167h-1v5.9h1V167L285.2,167z
				 M285.2,176.8h-1v5.9h1V176.8L285.2,176.8z M285.2,186.5h-1v5.9h1V186.5L285.2,186.5z M285.2,196.3h-1v5.9h1V196.3L285.2,196.3z
				 M285.2,206.1h-1v5.9h1V206.1L285.2,206.1z M285.2,215.9h-1v5.9h1V215.9L285.2,215.9z M285.2,225.7h-1v5.9h1V225.7L285.2,225.7z
				 M285.2,235.5h-1v5.9h1V235.5L285.2,235.5z M285.2,245.3h-1v5.9h1V245.3L285.2,245.3z M285.2,255.1h-1v5.9h1V255.1L285.2,255.1z
				 M285.2,264.9h-1v5.9h1V264.9L285.2,264.9z M285.2,274.7h-1v5.9h1V274.7L285.2,274.7z M285.2,284.4h-1v5.9h1V284.4L285.2,284.4z
				 M285.2,294.2h-1v5.9h1V294.2L285.2,294.2z M285.2,304h-1v5.9h1V304L285.2,304z M285.2,313.8h-1v5.9h1V313.8L285.2,313.8z
				 M285.2,323.6h-1v5.9h1V323.6L285.2,323.6z M285.2,333.4h-1v5.9h1V333.4L285.2,333.4z M285.2,343.2h-1v5.9h1V343.2L285.2,343.2z
				 M285.2,353h-1v5.9h1V353L285.2,353z M285.2,362.8h-1v5.9h1V362.8L285.2,362.8z M285.2,372.6h-1v2.7h1l0,0l0,0l0,0l0,0
				c0.9,0,2.1,0,2.1,0v-1h-2.1V372.6L285.2,372.6z M296.9,374.3h-5.7v1h5.7V374.3L296.9,374.3z M306.5,374.3h-5.7v1h5.7V374.3
				L306.5,374.3z M316,374.3h-5.7v1h5.7V374.3L316,374.3z M325.6,374.3h-5.7v1h5.7V374.3L325.6,374.3z M335.2,374.3h-5.7v1h5.7
				V374.3L335.2,374.3z M344.8,374.3H339v1h5.7L344.8,374.3L344.8,374.3z M354.4,374.3h-5.7v1h5.7V374.3L354.4,374.3z M363.9,374.3
				h-5.7v1h5.7V374.3L363.9,374.3z M373.5,374.3h-5.7v1h5.7V374.3L373.5,374.3z M383.1,374.3h-5.7v1h5.7V374.3L383.1,374.3z
				 M392.7,374.3H387v1h5.7V374.3L392.7,374.3z M402.2,374.3h-5.7v1h5.7V374.3L402.2,374.3z M411.8,374.3h-5.7v1h5.7V374.3
				L411.8,374.3z M421.4,374.3h-5.7v1h5.7V374.3L421.4,374.3z M431,374.3h-5.7v1h5.7V374.3L431,374.3z M440.6,374.3h-5.7v1h5.7
				V374.3L440.6,374.3z M450.1,374.3h-5.7v1h5.7V374.3L450.1,374.3z M459.7,374.3H454v1h5.7V374.3L459.7,374.3z M469.3,374.3h-5.7v1
				h5.7V374.3L469.3,374.3z M478.9,374.3h-5.7v1h5.7V374.3L478.9,374.3z M488.4,374.3h-5.7v1h5.7V374.3L488.4,374.3z M498,374.3
				h-5.7v1h5.7V374.3L498,374.3z M507.6,374.3h-5.7v1h5.7V374.3L507.6,374.3z M517.2,374.3h-5.7v1h5.7V374.3L517.2,374.3z
				 M526.7,374.3H521v1h5.7V374.3L526.7,374.3z M536.3,374.3h-5.7v1h5.7V374.3L536.3,374.3z M545.9,374.3h-5.7v1h5.7V374.3
				L545.9,374.3z M555.5,374.3h-5.7v1h5.7V374.3L555.5,374.3z M565.1,374.3h-5.7v1h5.7V374.3L565.1,374.3z M574.6,374.3h-5.7v1h5.7
				V374.3L574.6,374.3z M584.2,374.3h-5.7v1h5.7V374.3L584.2,374.3z M593.8,374.3H588v1h5.7L593.8,374.3L593.8,374.3z M603.4,374.3
				h-5.7v1h5.7V374.3L603.4,374.3z M612.9,374.3h-5.7v1h5.7V374.3L612.9,374.3z M622.5,374.3h-5.7v1h5.7V374.3L622.5,374.3z
				 M632.1,374.3h-5.7v1h5.7V374.3L632.1,374.3z M641.7,374.3H636v1h5.7V374.3L641.7,374.3z M651.3,374.3h-5.7v1h5.7V374.3
				L651.3,374.3z M660.8,374.3h-5.7v1h5.7V374.3L660.8,374.3z M670.4,374.3h-5.7v1h5.7V374.3L670.4,374.3z M680,374.3h-5.7v1h5.7
				V374.3L680,374.3z M689.6,374.3h-5.7v1h5.7V374.3L689.6,374.3z M699.1,374.3h-5.7v1h5.7V374.3L699.1,374.3z M708.3,374.3H703v1
				h5.4v-1H708.3z M708.3,365.1h-1v5.9h1V365.1L708.3,365.1z M708.3,355.3h-1v5.9h1V355.3L708.3,355.3z M708.3,345.5h-1v5.9h1V345.5
				L708.3,345.5z M708.3,335.7h-1v5.9h1V335.7L708.3,335.7z M708.3,326h-1v5.9h1V326L708.3,326z M708.3,316.2h-1v5.9h1V316.2
				L708.3,316.2z M708.3,306.4h-1v5.9h1V306.4L708.3,306.4z M708.3,296.6h-1v5.9h1V296.6L708.3,296.6z M708.3,286.8h-1v5.9h1V286.8
				L708.3,286.8z M708.3,277h-1v5.9h1V277L708.3,277z M708.3,267.2h-1v5.9h1V267.2L708.3,267.2z M708.3,257.4h-1v5.9h1V257.4
				L708.3,257.4z M708.3,247.6h-1v5.9h1V247.6L708.3,247.6z M708.3,237.8h-1v5.9h1V237.8L708.3,237.8z M708.3,228.1h-1v5.9h1V228.1
				L708.3,228.1z M708.3,218.3h-1v5.9h1V218.3L708.3,218.3z M708.3,208.5h-1v5.9h1V208.5L708.3,208.5z M708.3,198.7h-1v5.9h1V198.7
				L708.3,198.7z M708.3,188.9h-1v5.9h1V188.9L708.3,188.9z M708.3,179.1h-1v5.9h1V179.1L708.3,179.1z M708.3,169.3h-1v5.9h1V169.3
				L708.3,169.3z M708.3,159.5h-1v5.9h1V159.5L708.3,159.5z M708.3,149.7h-1v5.9h1V149.7L708.3,149.7z M708.3,139.9h-1v5.9h1V139.9
				L708.3,139.9z M708.3,130.2h-1v5.9h1V130.2L708.3,130.2z M708.3,120.4h-1v5.9h1V120.4L708.3,120.4z M708.3,110.6h-1v5.9h1V110.6
				L708.3,110.6z M708.3,100.8h-1v5.9h1V100.8L708.3,100.8z M708.3,91h-1v5.9h1V91L708.3,91z M708.3,81.2h-1v5.9h1V81.2L708.3,81.2z
				 M708.3,71.4h-1v5.9h1V71.4L708.3,71.4z M708.3,61.6h-1v5.9h1V61.6L708.3,61.6z M708.3,51.8h-1v5.9h1V51.8L708.3,51.8z M708.3,42
				h-1v5.9h1V42L708.3,42z M708.3,32.3h-1v5.9h1V32.3L708.3,32.3z M708.3,22.9h-5.7v1h4.8v4.5h1L708.3,22.9L708.3,22.9z"/>
		</g>
	</g>
	<g>
		<g>
			<rect x="480" y="40.1" class="st1" width="211.8" height="319.1"/>
		</g>
		<g>
			<g>
				<rect x="501.3" y="59.1" class="st2" width="173.4" height="45.1"/>
				<rect x="499.5" y="57.3" class="st3" width="173.4" height="45.1"/>
				<g transform="translate(20 9)">
					<g>
						<path class="st4" d="M506.5,82.5c-6.5,0-11.7-5.2-11.7-11.7s5.2-11.7,11.7-11.7c5.8,0,10.7,4.2,11.6,9.9h1.8
							c-1-7.4-7.8-12.6-15.2-11.6c-7.4,1-12.6,7.8-11.6,15.2s7.8,12.6,15.2,11.6c6-0.8,10.8-5.6,11.6-11.6h-1.8
							C517.2,78.3,512.3,82.5,506.5,82.5z M512.9,67.2l-6.3-3.6l-6.3,3.6v7.2l2.9,1.7c0.2-0.6,0.5-1.1,0.9-1.5l-2-1.2V70l4.5,2.6
							l4.5-2.6v3.3l-3.8,2.2c-0.9-0.4-2,0-2.4,0.9s0,2,0.9,2.4s2,0,2.4-0.9c0.1-0.2,0.1-0.5,0.1-0.8V77l4.5-2.6L512.9,67.2
							C512.8,67.2,512.9,67.2,512.9,67.2z M506.5,70.5l-4.2-2.4l4.3-2.4l4.3,2.4L506.5,70.5z"/>
					</g>
					<text transform="matrix(1 0 0 1 529.98 75.2781)" class="st5 st6 st7">云服务器</text>
				</g>
			</g>
			<g>
				<rect x="501.3" y="136.1" class="st2" width="172.8" height="45.1"/>
				<rect x="499.5" y="134.3" class="st3" width="172.8" height="45.1"/>
				<g transform="translate(20 9)">
					<g>
						<title  xmlns="http://www.w3.org/2000/svg">Product Icons【32】</title>
						<path class="st4" d="M506.4,151.3c1,0.4,1.1,0.6,1,1c-0.8,1.4-0.7,3.1,0.2,4.5c0.2,0.2,0.4,0.4,0.7,0.4c0.3,0,0.6-0.2,0.7-0.5
							c0.2-0.4,0.5-0.8,0.8-1.1c0.5,0.9,1.1,1.8,1.9,2.5c0.7,0.6,1.2,1.5,1.2,2.4h1.6c0-1.4-0.7-2.7-1.7-3.7
							c-0.8-0.8-1.4-1.7-1.8-2.7c-0.2-0.3-0.5-0.5-0.8-0.5c-0.6,0.1-1.2,0.4-1.6,0.9c0-0.5,0.1-1.1,0.3-1.5c0,0,0.1-0.1,0.1-0.2
							c0.7-2-1.2-2.8-1.9-3.1h-0.4l-0.3-0.2l0,0c0.3-0.1,0.5-0.3,0.5-0.6c0.1-0.4,0.4-0.8,0.8-1c0.6-0.3,1.3-0.3,2-0.1
							c1.4,0.3,2.7,1,3.8,1.9c0.2,0.2,0.5,0.3,0.8,0.2c0.6-0.1,1.2-0.1,1.8,0.1c-0.1,0.1-0.2,0.3-0.3,0.5c-0.5,1-0.3,2.2,0.5,3
							c1.1,1.4,1,4.5,0.6,6.9h1.7c0.3-2.5,0.5-6-1-7.9c-0.4-0.5-0.5-1-0.4-1.2c0.2-0.2,0.4-0.3,0.7-0.3c0.5,0.1,0.8-0.3,0.8-0.7
							c0-0.2-0.1-0.4-0.2-0.6c-1.2-1-2.7-1.4-4.2-1.3c-1.2-1-2.7-1.7-4.2-2c-1.1-0.4-2.2-0.3-3.2,0.2c-0.5,0.3-1,0.8-1.3,1.3
							c-0.6,0-1.1,0.3-1.4,0.8c-0.6,1.4,0.9,2,1.5,2.3l0.2,0.1L506.4,151.3z"/>
						<g>
							<path class="st4" d="M505.7,158.4c-0.5,0-1,0-1.5,0c-5,0-9-1.2-9-2.7h-1.8c0,2.5,4.8,4.5,10.8,4.5c1.1,0,2.1-0.1,3.2-0.2
								L505.7,158.4z"/>
							<path class="st4" d="M495.1,150.1c1.9,1.1,4.1,1.7,6.3,1.9v-1.8c-3.7-0.3-6.3-1.4-6.3-2.6V142c1.9,1.2,5.3,2,9,2s7.1-0.8,9-2
								v2.3l1.8,0.9v-5.6c0-2.5-4.8-4.5-10.8-4.5s-10.8,2-10.8,4.5v16.2h1.8C495.1,155.8,495.1,150.1,495.1,150.1z M504.1,136.8
								c5,0,9,1.2,9,2.7s-4,2.7-9,2.7s-9-1.2-9-2.7S499.2,136.8,504.1,136.8z"/>
						</g>
					</g>
					<text transform="matrix(1 0 0 1 529.4288 152.3411)" class="st5 st6 st7">数据库MySQL</text>
				</g>
			</g>
			<g>
				<g>
					<rect x="501.2" y="289.9" class="st2" width="173.2" height="45.1"/>
					<rect x="499.4" y="288.1" class="st3" width="173.2" height="45.1"/>
				</g>
				<text transform="matrix(1 0 0 1 529.8627 315.0052)" class="st5 st6 st7">更多定制化应用场景</text>
			</g>
			<g>
				<rect x="501.3" y="213" class="st2" width="173.2" height="45.1"/>
				<rect x="499.5" y="211.2" class="st3" width="173.2" height="45.1"/>
				<g transform="translate(20 9)">
					<g>
						<title  xmlns="http://www.w3.org/2000/svg">Product Icons【32】</title>
						<g id="_编组__5_">
							<g id="_编组_2_3_">
								<path id="_复合路径__3_" class="st4" d="M510.6,222.9c-1,0-1.8,0.8-1.8,1.8s0.8,1.8,1.8,1.8s1.8-0.8,1.8-1.8
									S511.6,222.9,510.6,222.9z M507,236.5c-6.5,0-11.7-5.2-11.7-11.7s5.2-11.7,11.7-11.7c5.8,0,10.7,4.2,11.6,9.9h1.8
									c-1-7.4-7.8-12.6-15.2-11.6c-7.4,1-12.6,7.8-11.6,15.2s7.8,12.6,15.2,11.6c6-0.8,10.8-5.6,11.6-11.6h-1.8
									C517.7,232.2,512.8,236.5,507,236.5z M507,221.1v-1.8h-5.4v10.8h5.4v-1.8h-3.6v-2.7h3.6v-1.8h-3.6v-2.7H507z M510.6,218.4
									c-1,0-1.8,0.8-1.8,1.8s0.8,1.8,1.8,1.8s1.8-0.8,1.8-1.8S511.6,218.4,510.6,218.4z M510.6,227.4c-1,0-1.8,0.8-1.8,1.8
									s0.8,1.8,1.8,1.8s1.8-0.8,1.8-1.8C512.4,228.3,511.6,227.4,510.6,227.4z"/>
							</g>
						</g>
					</g>
					<text transform="matrix(1 0 0 1 530.4873 229.235)" class="st5 st6 st7">负载均衡</text>
				</g>
			</g>
		</g>
	</g>
	<g>
		<polygon class="st8" points="469,204.9 474,200.4 469,195.9 		"/>
		<rect x="404" y="199.9" class="st8" width="65" height="1"/>
	</g>
	<g>
		<g id="ShadowBasicRect14" transform="translate(141.59375,267)">
			<rect x="160.4" y="-87.2" class="st2" width="112.3" height="45.1"/>
			<rect x="158.5" y="-89" class="st3" width="112.3" height="45.1"/>
			<g transform="translate(20 9)">
				<text transform="matrix(1 0 0 1 186.5309 -71.028)" class="st5 st6 st7">TCCLI</text>
			</g>
		</g>
		<g>
			<g id="XMLID_1226_">
				<g>
					<path class="st4" d="M312.6,200.6c0-4.3,2.3-8,5.7-10l-0.9-1.5c-3.9,2.4-6.6,6.6-6.6,11.6c0,4.9,2.6,9.2,6.6,11.6l0.9-1.5
						C314.9,208.6,312.6,204.9,312.6,200.6z M331.3,189.1l-0.9,1.5c3.4,2,5.7,5.8,5.7,10c0,4.3-2.3,8-5.7,10l0.9,1.5
						c3.9-2.4,6.6-6.6,6.6-11.6C337.8,195.7,335.2,191.4,331.3,189.1z M324.3,206.9c-1.1,0-2.2-0.3-3.1-0.8l-0.9,1.6
						c1.2,0.7,2.5,1,4,1c1.4,0,2.8-0.4,4-1l-0.9-1.6C326.5,206.6,325.4,206.9,324.3,206.9z M320.3,193.6l0.9,1.6
						c0.9-0.5,2-0.8,3.1-0.8s2.2,0.3,3.1,0.8l0.9-1.6c-1.2-0.7-2.5-1-4-1C322.9,192.5,321.5,192.9,320.3,193.6z"/>
				</g>
			</g>
			<g>
				<g>
					<rect id="XMLID_82_" x="326.1" y="197" class="st4" width="1.8" height="1.8"/>
					<rect id="XMLID_81_" x="323.4" y="198.8" class="st4" width="1.8" height="1.8"/>
					<rect id="XMLID_80_" x="318.9" y="197" class="st4" width="3.6" height="1.8"/>
					<rect id="XMLID_79_" x="317.1" y="198.8" class="st4" width="1.8" height="3.6"/>
					<rect id="XMLID_78_" x="318.9" y="202.4" class="st4" width="3.6" height="1.8"/>
					<rect id="XMLID_77_" x="323.4" y="202.4" class="st4" width="1.8" height="1.8"/>
					<rect id="XMLID_76_" x="327.9" y="198.8" class="st4" width="1.8" height="1.8"/>
					<rect id="XMLID_75_" x="329.7" y="200.6" class="st4" width="1.8" height="1.8"/>
					<rect id="XMLID_74_" x="331.5" y="202.4" class="st4" width="1.8" height="1.8"/>
				</g>
			</g>
		</g>
	</g>
	<g>
		<polygon class="st8" points="273.3,205.8 278.3,200.8 273.3,195.8 		"/>
		<line class="st9" x1="273.3" y1="200.8" x2="228.3" y2="200.8"/>
	</g>
	<g id="RectEndPoint1" transform="translate(8,251)">
		<rect x="133.9" y="-71.6" class="st2" width="102.3" height="45.1"/>
		<rect x="132.1" y="-73.5" class="st3" width="102.3" height="45.1"/>
		<g transform="translate(20 9)">
			<g>
				<g>
					<path class="st8" d="M132.9-69.7c2,0,3.6,1.6,3.6,3.6s-1.6,3.6-3.6,3.6s-3.6-1.6-3.6-3.6S130.9-69.7,132.9-69.7 M132.9-71.5
						c-3,0-5.4,2.4-5.4,5.4s2.4,5.4,5.4,5.4s5.4-2.4,5.4-5.4S135.9-71.5,132.9-71.5z"/>
					<path class="st8" d="M136.6-57.1c3,0,5.4,2.4,5.4,5.4v0.9h-18v-0.9c0-3,2.4-5.4,5.4-5.4H136.6 M136.6-58.9h-7.2
						c-4,0-7.2,3.2-7.2,7.2v2.7h21.7v-2.7C143.8-55.6,140.6-58.9,136.6-58.9z"/>
					<path class="st8" d="M144.7-58.9H142c0.7,0.5,1.3,1.1,1.8,1.8h0.9c2,0,3.6,1.6,3.6,3.6v0.9h-2.7c0,0.3,0,0.6,0,0.9v0.9h4.5
						v-2.7C150.1-56.5,147.7-58.9,144.7-58.9z"/>
					<path class="st8" d="M141.1-70.6c-0.7,0-1.5,0.2-2.1,0.5c0.3,0.5,0.6,1,0.8,1.6c1.3-0.7,3-0.3,3.7,1s0.3,3-1,3.7
						c-0.8,0.5-1.8,0.5-2.7,0c-0.2,0.6-0.5,1.1-0.8,1.6c0.6,0.4,1.4,0.5,2.1,0.5c2.5,0,4.5-2,4.5-4.5
						C145.6-68.7,143.6-70.6,141.1-70.6z"/>
				</g>
			</g>
			<text transform="matrix(1 0 0 1 159.9935 -55.363)" class="st5 st6 st7">用户</text>
		</g>
	</g>
</g>
</svg>
