<?xml version="1.0" encoding="UTF-8"?>
<svg width="32px" height="32px" viewBox="0 0 32 32" version="1.1" xmlns="http://www.w3.org/2000/svg" xmlns:xlink="http://www.w3.org/1999/xlink">
    <!-- Generator: Sketch 54 (76480) - https://sketchapp.com -->
    <title>Artboard</title>
    <desc>Created with Sketch.</desc>
    <g id="Artboard" stroke="none" stroke-width="1" fill="none" fill-rule="evenodd">
        <path d="M16,24 L16,22 L25,22 L25,8.36584444 L26.5934852,7 L7,7 L7,16 L5,16 L5,5.98461538 C5,5.44082732 5.44082732,5 5.98461538,5 L30.6691656,5 C30.8128825,5 30.9494238,5.06280011 31.0429534,5.17191809 C31.2198997,5.37835543 31.1959925,5.68914927 30.9895552,5.86609556 L27,9.28571429 L27,23.0153846 C27,23.5591727 26.5591727,24 26.0153846,24 L16,24 Z M1,26.5254712 L1,16.4745288 C1,16.2124538 1.2184503,16 1.4879224,16 C1.62122309,16 1.74871993,16.053041 1.84078373,16.1467967 L3.97753906,17.9980469 L13.54,17.9980469 C13.794051,17.9980469 14,18.2039959 14,18.4580469 L14,26.5254712 C14,26.7875462 13.7815497,27 13.5120776,27 L1.4879224,27 C1.2184503,27 1,26.7875462 1,26.5254712 Z M3,25 L12,25 L12,20.0096209 L3.00935699,20.0096209 L3,25 Z" id="Combined-Shape" fill="#00A4FF" fill-rule="nonzero"></path>
    </g>
</svg>