<?xml version="1.0" encoding="utf-8"?>
<!-- Generator: Adobe Illustrator 23.0.3, SVG Export Plug-In . SVG Version: 6.00 Build 0)  -->
<svg version="1.1" id="svgwrapper_svg" xmlns="http://www.w3.org/2000/svg" xmlns:xlink="http://www.w3.org/1999/xlink" x="0px"
	 y="0px" width="830px" height="184px" viewBox="0 0 830 184" style="enable-background:new 0 0 830 184;" xml:space="preserve">
<g>
	<polygon style="fill:#878787;" points="664,75 668,78 664,81 	"/>
	<line style="fill:none;stroke:#878787;stroke-miterlimit:10;" x1="666" y1="78" x2="628" y2="78"/>
</g>
<g>
	<polygon style="fill:#878787;" points="462,75 466,78 462,81 	"/>
	<line style="fill:none;stroke:#878787;stroke-miterlimit:10;" x1="464" y1="78" x2="426" y2="78"/>
</g>
<g>
	<polygon style="fill:#878787;" points="237,75 241,78 237,81 	"/>
	<line style="fill:none;stroke:#878787;stroke-miterlimit:10;" x1="239" y1="78" x2="211.9" y2="78"/>
</g>
<g>
	<polyline style="fill:none;stroke:#878787;stroke-miterlimit:10;" points="180,26 211.9,26 211.9,130 180,130 	"/>
</g>
<g id="RectEndPoint6_4_" transform="translate(1,150)">
	<rect x="1" y="-148" style="opacity:0.6;fill:#BBBBBB;enable-background:new    ;" width="178" height="50"/>
	<g>
		<rect x="-0.5" y="-149.5" style="fill:#FFFFFF;" width="177" height="49"/>
		<path style="fill:#E5E5E5;" d="M176-149v48H0v-48H176 M177-150H-1v50h178V-150L177-150z"/>
	</g>
	<g transform="translate(20 9)">
		<g>
			<g>
				<path style="fill:#878787;" d="M9-147.9v21h30v-21H9z M37-128.9H11v-17h26V-128.9z M28-125.9h-2v2h-4v-2h-2v2h-5v2h18v-2h-5
					V-125.9z"/>
			</g>
		</g>
		<g style="enable-background:new    ;">
			<path style="fill:#444444;" d="M51.4-139l2.2,8.4h0.1l2.3-8.4h1.2l2.3,8.4h0.1l2.2-8.4H63l-2.9,10h-1.3l-2.3-8.3h0l-2.3,8.3h-1.3
				l-2.9-10H51.4z"/>
			<path style="fill:#444444;" d="M69.5-135.3c0.5,0.7,0.8,1.7,0.8,3h-5.7c0.1,0.8,0.3,1.4,0.7,1.9c0.4,0.4,0.9,0.7,1.6,0.7
				c0.6,0,1.1-0.2,1.4-0.4c0.3-0.3,0.5-0.6,0.7-1.1h1.1c-0.2,0.7-0.5,1.3-1,1.7c-0.6,0.5-1.4,0.8-2.3,0.8c-1,0-1.9-0.4-2.5-1
				c-0.6-0.7-1-1.6-1-2.8c0-1.1,0.3-2,0.9-2.7c0.6-0.8,1.4-1.1,2.5-1.1C68-136.4,68.9-136,69.5-135.3z M65.3-134.9
				c-0.4,0.4-0.6,1-0.7,1.7h4.5c-0.1-1.6-0.9-2.3-2.3-2.3C66.3-135.5,65.7-135.3,65.3-134.9z"/>
			<path style="fill:#444444;" d="M72.8-139.2v4.3c0.6-1,1.4-1.5,2.4-1.5c1,0,1.8,0.4,2.4,1.2c0.5,0.7,0.8,1.6,0.8,2.6
				c0,1.1-0.3,2-0.8,2.7c-0.6,0.8-1.4,1.1-2.5,1.1c-1.1,0-1.9-0.5-2.4-1.4v1.2h-1.1v-10.2H72.8z M73.4-134.7c-0.4,0.5-0.6,1.2-0.6,2
				v0.1c0,0.8,0.2,1.5,0.5,2c0.4,0.6,1,0.8,1.7,0.8c0.8,0,1.4-0.3,1.8-0.9c0.3-0.5,0.5-1.2,0.5-2.1c0-0.9-0.2-1.5-0.5-2
				c-0.4-0.6-1-0.8-1.8-0.8C74.3-135.5,73.7-135.3,73.4-134.7z"/>
			<path style="fill:#444444;" d="M91.8-138.3c0.8,0.6,1.2,1.4,1.3,2.4H92c-0.1-0.7-0.5-1.3-1.1-1.7c-0.5-0.4-1.2-0.6-2-0.6
				c-1.2,0-2.1,0.4-2.7,1.2c-0.6,0.8-0.9,1.8-0.9,3c0,1.2,0.3,2.2,0.9,3c0.6,0.8,1.5,1.2,2.7,1.2c0.8,0,1.5-0.2,2-0.6
				c0.6-0.4,1-1.1,1.2-2h1.1c-0.2,1.2-0.7,2.1-1.6,2.7c-0.8,0.6-1.7,0.9-2.8,0.9c-1.6,0-2.7-0.5-3.6-1.5c-0.8-0.9-1.1-2.1-1.1-3.6
				c0-1.5,0.4-2.7,1.1-3.7c0.8-1.1,2-1.6,3.6-1.6C90.1-139.2,91-138.9,91.8-138.3z"/>
			<path style="fill:#444444;" d="M96-139.2v10.2h-1.1v-10.2H96z"/>
			<path style="fill:#444444;" d="M99.5-138.7c0.2,0.1,0.3,0.3,0.3,0.6c0,0.2-0.1,0.4-0.3,0.6c-0.2,0.2-0.4,0.2-0.6,0.2
				s-0.4-0.1-0.6-0.2c-0.2-0.2-0.2-0.4-0.2-0.6c0-0.3,0.1-0.4,0.2-0.6c0.2-0.2,0.4-0.2,0.6-0.2S99.4-138.9,99.5-138.7z M99.5-136.2
				v7.2h-1.1v-7.2H99.5z"/>
			<path style="fill:#444444;" d="M107.2-135.3c0.5,0.7,0.8,1.7,0.8,3h-5.7c0.1,0.8,0.3,1.4,0.7,1.9c0.4,0.4,0.9,0.7,1.6,0.7
				c0.6,0,1.1-0.2,1.4-0.4c0.3-0.3,0.5-0.6,0.7-1.1h1.1c-0.2,0.7-0.5,1.3-1,1.7c-0.6,0.5-1.4,0.8-2.3,0.8c-1,0-1.9-0.4-2.5-1
				c-0.6-0.7-1-1.6-1-2.8c0-1.1,0.3-2,0.9-2.7c0.6-0.8,1.4-1.1,2.5-1.1C105.7-136.4,106.6-136,107.2-135.3z M103-134.9
				c-0.4,0.4-0.6,1-0.7,1.7h4.5c-0.1-1.6-0.9-2.3-2.3-2.3C104-135.5,103.4-135.3,103-134.9z"/>
			<path style="fill:#444444;" d="M115.5-133.5v4.5h-1.1v-4.4c0-1.4-0.6-2.1-1.9-2.1c-0.5,0-0.9,0.2-1.3,0.5
				c-0.4,0.4-0.6,0.9-0.6,1.6v4.4h-1.1v-7.2h1.1v1.1c0.3-0.4,0.6-0.7,1-0.9c0.4-0.2,0.8-0.3,1.3-0.3
				C114.5-136.4,115.5-135.4,115.5-133.5z"/>
			<path style="fill:#444444;" d="M119.1-136.2h1.8v0.9h-1.8v4.6c0,0.3,0,0.5,0.2,0.6c0.1,0.1,0.3,0.2,0.5,0.2h0.9v0.9h-1.1
				c-0.6,0-1-0.2-1.3-0.5c-0.2-0.3-0.4-0.7-0.4-1.2v-4.6h-1.5v-0.9h1.5v-1.9l1.1-0.5V-136.2z"/>
		</g>
	</g>
</g>
<g id="RectEndPoint6_2_" transform="translate(1,150)">
	<rect x="1" y="-44.1" style="opacity:0.6;fill:#BBBBBB;enable-background:new    ;" width="178" height="50"/>
	<g>
		<rect x="-0.5" y="-45.6" style="fill:#FFFFFF;" width="177" height="49"/>
		<path style="fill:#E5E5E5;" d="M176-45.1v48H0v-48H176 M177-46.1H-1v50h178V-46.1L177-46.1z"/>
	</g>
	<g transform="translate(20 9)">
		<g style="enable-background:new    ;">
			<path style="fill:#444444;" d="M52.4-35.1l3.7,8.5h0l3.7-8.5h1.4v10h-1.1v-8h0l-3.5,8h-1l-3.5-8h0v8H51v-10H52.4z"/>
			<path style="fill:#444444;" d="M69-31.4c0.6,0.7,0.9,1.6,0.9,2.7c0,1.1-0.3,2-0.9,2.7c-0.7,0.8-1.5,1.1-2.6,1.1
				c-1.1,0-1.9-0.4-2.6-1.1c-0.6-0.7-0.9-1.6-0.9-2.7c0-1.1,0.3-2,0.9-2.7c0.6-0.8,1.5-1.1,2.6-1.1C67.5-32.5,68.4-32.2,69-31.4z
				 M64.7-30.7c-0.4,0.5-0.6,1.2-0.6,2c0,0.8,0.2,1.5,0.6,2c0.4,0.6,1,0.9,1.8,0.9c0.8,0,1.4-0.3,1.8-0.9c0.4-0.5,0.6-1.2,0.6-2
				c0-0.8-0.2-1.5-0.6-2c-0.4-0.6-1.1-0.9-1.8-0.9C65.7-31.6,65.1-31.3,64.7-30.7z"/>
			<path style="fill:#444444;" d="M72.5-35.3v4.3c0.6-1,1.4-1.5,2.4-1.5c1,0,1.8,0.4,2.4,1.2c0.5,0.7,0.8,1.6,0.8,2.6
				c0,1.1-0.3,2-0.8,2.7c-0.6,0.8-1.4,1.1-2.5,1.1c-1.1,0-1.9-0.5-2.4-1.4v1.2h-1.1v-10.2H72.5z M73.1-30.8c-0.4,0.5-0.6,1.2-0.6,2
				v0.1c0,0.8,0.2,1.5,0.5,2c0.4,0.6,1,0.8,1.7,0.8c0.8,0,1.4-0.3,1.8-0.9c0.3-0.5,0.5-1.2,0.5-2.1c0-0.9-0.2-1.5-0.5-2
				c-0.4-0.6-1-0.8-1.8-0.8C74-31.6,73.5-31.3,73.1-30.8z"/>
			<path style="fill:#444444;" d="M81.2-34.8c0.2,0.1,0.3,0.3,0.3,0.6c0,0.2-0.1,0.4-0.3,0.6c-0.2,0.2-0.4,0.2-0.6,0.2
				s-0.4-0.1-0.6-0.2c-0.2-0.2-0.2-0.4-0.2-0.6c0-0.3,0.1-0.4,0.2-0.6c0.2-0.2,0.4-0.2,0.6-0.2S81-35,81.2-34.8z M81.1-32.3v7.2H80
				v-7.2H81.1z"/>
			<path style="fill:#444444;" d="M84.5-35.3v10.2h-1.1v-10.2H84.5z"/>
			<path style="fill:#444444;" d="M92.1-31.3c0.5,0.7,0.8,1.7,0.8,3h-5.7c0.1,0.8,0.3,1.4,0.7,1.9c0.4,0.4,0.9,0.7,1.6,0.7
				c0.6,0,1.1-0.2,1.4-0.4c0.3-0.3,0.5-0.6,0.7-1.1h1.1c-0.2,0.7-0.5,1.3-1,1.7c-0.6,0.5-1.4,0.8-2.3,0.8c-1,0-1.9-0.4-2.5-1
				c-0.6-0.7-1-1.6-1-2.8c0-1.1,0.3-2,0.9-2.7c0.6-0.8,1.4-1.1,2.5-1.1C90.6-32.5,91.5-32.1,92.1-31.3z M88-31
				c-0.4,0.4-0.6,1-0.7,1.7h4.5c-0.1-1.6-0.9-2.3-2.3-2.3C88.9-31.6,88.3-31.4,88-31z"/>
			<path style="fill:#444444;" d="M106.2-34.4c0.8,0.6,1.2,1.4,1.3,2.4h-1.1c-0.1-0.7-0.5-1.3-1.1-1.7c-0.5-0.4-1.2-0.6-2-0.6
				c-1.2,0-2.1,0.4-2.7,1.2c-0.6,0.8-0.9,1.8-0.9,3c0,1.2,0.3,2.2,0.9,3c0.6,0.8,1.5,1.2,2.7,1.2c0.8,0,1.5-0.2,2-0.6
				c0.6-0.4,1-1.1,1.2-2h1.1c-0.2,1.2-0.7,2.1-1.6,2.7c-0.8,0.6-1.7,0.9-2.8,0.9c-1.6,0-2.7-0.5-3.6-1.5c-0.8-0.9-1.1-2.1-1.1-3.6
				c0-1.5,0.4-2.7,1.1-3.7c0.8-1.1,2-1.6,3.6-1.6C104.5-35.3,105.4-35,106.2-34.4z"/>
			<path style="fill:#444444;" d="M110.5-35.3v10.2h-1.1v-10.2H110.5z"/>
			<path style="fill:#444444;" d="M113.9-34.8c0.2,0.1,0.3,0.3,0.3,0.6c0,0.2-0.1,0.4-0.3,0.6c-0.2,0.2-0.4,0.2-0.6,0.2
				s-0.4-0.1-0.6-0.2c-0.2-0.2-0.2-0.4-0.2-0.6c0-0.3,0.1-0.4,0.2-0.6c0.2-0.2,0.4-0.2,0.6-0.2S113.8-35,113.9-34.8z M113.9-32.3
				v7.2h-1.1v-7.2H113.9z"/>
			<path style="fill:#444444;" d="M121.6-31.3c0.5,0.7,0.8,1.7,0.8,3h-5.7c0.1,0.8,0.3,1.4,0.7,1.9c0.4,0.4,0.9,0.7,1.6,0.7
				c0.6,0,1.1-0.2,1.4-0.4c0.3-0.3,0.5-0.6,0.7-1.1h1.1c-0.2,0.7-0.5,1.3-1,1.7c-0.6,0.5-1.4,0.8-2.3,0.8c-1,0-1.9-0.4-2.5-1
				c-0.6-0.7-1-1.6-1-2.8c0-1.1,0.3-2,0.9-2.7c0.6-0.8,1.4-1.1,2.5-1.1C120.1-32.5,121-32.1,121.6-31.3z M117.5-31
				c-0.4,0.4-0.6,1-0.7,1.7h4.5c-0.1-1.6-0.9-2.3-2.3-2.3C118.4-31.6,117.8-31.4,117.5-31z"/>
			<path style="fill:#444444;" d="M129.9-29.5v4.5h-1.1v-4.4c0-1.4-0.6-2.1-1.9-2.1c-0.5,0-0.9,0.2-1.3,0.5
				c-0.4,0.4-0.6,0.9-0.6,1.6v4.4h-1.1v-7.2h1.1v1.1c0.3-0.4,0.6-0.7,1-0.9c0.4-0.2,0.8-0.3,1.3-0.3
				C128.9-32.5,129.9-31.5,129.9-29.5z"/>
			<path style="fill:#444444;" d="M133.5-32.3h1.8v0.9h-1.8v4.6c0,0.3,0,0.5,0.2,0.6c0.1,0.1,0.3,0.2,0.5,0.2h0.9v0.9H134
				c-0.6,0-1-0.2-1.3-0.5c-0.2-0.3-0.4-0.7-0.4-1.2v-4.6H131v-0.9h1.5v-1.9l1.1-0.5V-32.3z"/>
		</g>
		<g id="RectEndPoint1_2_" transform="translate(26,67)">
			<g transform="translate(20 9)">
				<g>
					<g>
						<path style="fill:#878787;" d="M-33-122.1v30h22v-30H-33z M-13-94.1h-18v-26h18V-94.1z M-24-95.1h4v-2h-4V-95.1z M-13-100.1
							h-18v2h18V-100.1z"/>
					</g>
				</g>
			</g>
		</g>
	</g>
</g>
<g id="ShadowBasicRect3_2_" transform="translate(180,95)">
	<g>
		<rect x="65" y="-41" style="opacity:0.6;fill:#BBBBBB;enable-background:new    ;" width="181" height="50"/>
		<g>
			<rect x="63.5" y="-42.5" style="fill:#FFFFFF;" width="180" height="49"/>
			<path style="fill:#E5E5E5;" d="M243-42V6H64v-48H243 M244-43H63V7h181V-43L244-43z"/>
		</g>
	</g>
	<g transform="translate(20 9)">
		<g>
			<g>
				<path style="fill:#00A4FF;" d="M86-14c-7.2,0-13-5.8-13-13c0-7.2,5.8-13,13-13c6.4,0,11.9,4.7,12.9,11h2
					c-1.1-8.2-8.7-14-16.9-12.9c-8.2,1.1-14,8.7-12.9,16.9s8.7,14,16.9,12.9c6.7-0.9,12-6.2,12.9-12.9h-2C97.8-18.7,92.4-14,86-14z"
					/>
				<rect x="78" y="-32" style="fill:#00A4FF;" width="16" height="2"/>
				<rect x="78" y="-21" style="fill:#00A4FF;" width="16" height="2"/>
				<rect x="78" y="-32" style="fill:#00A4FF;" width="2" height="3"/>
				<rect x="78" y="-22" style="fill:#00A4FF;" width="2" height="3"/>
				<rect x="92" y="-22" style="fill:#00A4FF;" width="2" height="3"/>
				<rect x="92" y="-32" style="fill:#00A4FF;" width="2" height="3"/>
				<rect x="81" y="-36" style="fill:#00A4FF;" width="2" height="4"/>
				<rect x="89" y="-36" style="fill:#00A4FF;" width="2" height="4"/>
				<rect x="79" y="-28" style="fill:#00A4FF;" width="2" height="5"/>
				<rect x="82" y="-28" style="fill:#00A4FF;" width="2" height="5"/>
				<rect x="80" y="-28" style="fill:#00A4FF;" width="3" height="1"/>
				<rect x="80" y="-26" style="fill:#00A4FF;" width="3" height="1"/>
				<rect x="86" y="-28" style="fill:#00A4FF;" width="4" height="1"/>
				<rect x="85" y="-26" style="fill:#00A4FF;" width="4" height="1"/>
				<rect x="85" y="-28" style="fill:#00A4FF;" width="2" height="5"/>
				<rect x="88" y="-28" style="fill:#00A4FF;" width="2" height="3"/>
				<rect x="91" y="-28" style="fill:#00A4FF;" width="2" height="5"/>
			</g>
		</g>
		<g style="enable-background:new    ;">
			<path style="fill:#444444;" d="M117.3-32l3.9,10H120l-1.1-2.8h-4.6l-1.1,2.8H112l3.9-10H117.3z M118.5-25.8l-1.9-5h-0.1l-1.9,5
				H118.5z"/>
			<path style="fill:#444444;" d="M126.3-32c2.3,0,3.4,1,3.4,2.9c0,2-1.2,3-3.5,3h-2.9v4.1h-1.1v-10H126.3z M123.4-27.1h2.9
				c0.8,0,1.4-0.2,1.8-0.5c0.4-0.3,0.6-0.8,0.6-1.5c0-0.7-0.2-1.2-0.6-1.5c-0.4-0.3-1-0.5-1.8-0.5h-2.9V-27.1z"/>
			<path style="fill:#444444;" d="M132.4-32v10h-1.1v-10H132.4z"/>
			<path style="fill:#444444;" d="M146.4-31.3c0.7,0.6,1.1,1.4,1.3,2.5h-1.1c-0.2-0.8-0.5-1.3-1-1.7c-0.5-0.4-1.3-0.6-2.1-0.6
				c-1.1,0-1.9,0.4-2.6,1.1c-0.6,0.8-1,1.8-1,3.1c0,1.3,0.3,2.3,0.9,3c0.7,0.8,1.6,1.2,2.9,1.2c0.5,0,1.1-0.1,1.6-0.2
				c0.5-0.1,0.9-0.3,1.3-0.6v-2.5h-3.1v-1h4.3v4.1c-0.5,0.4-1.1,0.7-1.8,0.9c-0.7,0.2-1.5,0.3-2.3,0.3c-1.6,0-2.8-0.5-3.7-1.5
				c-0.8-0.9-1.2-2.2-1.2-3.6c0-1.5,0.4-2.7,1.2-3.7c0.9-1.1,2-1.6,3.5-1.6C144.7-32.2,145.7-31.9,146.4-31.3z"/>
			<path style="fill:#444444;" d="M155-28.6c0.4,0.5,0.6,1.1,0.6,2v4.7h-1.1v-1.2c-0.3,0.4-0.7,0.7-1.1,1c-0.5,0.3-1.1,0.4-1.8,0.4
				c-0.7,0-1.3-0.2-1.7-0.5c-0.4-0.4-0.7-0.9-0.7-1.5c0-0.8,0.3-1.4,1-1.9c0.6-0.4,1.4-0.6,2.5-0.6l1.7,0v-0.4
				c0-1.2-0.6-1.8-1.9-1.8c-0.5,0-1,0.1-1.3,0.3c-0.4,0.2-0.6,0.6-0.7,1l-1.1-0.1c0.2-0.8,0.5-1.3,1.1-1.7c0.5-0.3,1.2-0.5,2.1-0.5
				C153.7-29.4,154.5-29.2,155-28.6z M152.8-25.4c-1.6,0-2.4,0.6-2.4,1.6c0,0.3,0.1,0.6,0.4,0.8c0.3,0.2,0.6,0.3,1.1,0.3
				c0.7,0,1.3-0.2,1.8-0.7c0.5-0.4,0.8-0.9,0.8-1.5v-0.6L152.8-25.4z"/>
			<path style="fill:#444444;" d="M159.3-29.2h1.8v0.9h-1.8v4.6c0,0.3,0,0.5,0.2,0.6c0.1,0.1,0.3,0.2,0.5,0.2h0.9v0.9h-1.1
				c-0.6,0-1-0.2-1.3-0.5c-0.2-0.3-0.4-0.7-0.4-1.2v-4.6h-1.5v-0.9h1.5v-1.9l1.1-0.5V-29.2z"/>
			<path style="fill:#444444;" d="M167.9-28.3c0.5,0.7,0.8,1.7,0.8,3H163c0.1,0.8,0.3,1.4,0.7,1.9c0.4,0.4,0.9,0.7,1.6,0.7
				c0.6,0,1.1-0.2,1.4-0.4c0.3-0.3,0.5-0.6,0.7-1.1h1.1c-0.2,0.7-0.5,1.3-1,1.7c-0.6,0.5-1.4,0.8-2.3,0.8c-1,0-1.9-0.4-2.5-1
				c-0.6-0.7-1-1.6-1-2.8c0-1.1,0.3-2,0.9-2.7c0.6-0.8,1.4-1.1,2.5-1.1C166.4-29.4,167.3-29,167.9-28.3z M163.8-27.9
				c-0.4,0.4-0.6,1-0.7,1.7h4.5c-0.1-1.6-0.9-2.3-2.3-2.3C164.7-28.5,164.1-28.3,163.8-27.9z"/>
			<path style="fill:#444444;" d="M170.5-29.2l1.8,5.9l1.7-5.9h1.1l1.7,5.9l1.8-5.9h1.2l-2.5,7.2h-1.1l-1.7-5.8l-1.7,5.8h-1.1
				l-2.5-7.2H170.5z"/>
			<path style="fill:#444444;" d="M186.1-28.6c0.4,0.5,0.6,1.1,0.6,2v4.7h-1.1v-1.2c-0.3,0.4-0.7,0.7-1.1,1
				c-0.5,0.3-1.1,0.4-1.8,0.4c-0.7,0-1.3-0.2-1.7-0.5c-0.4-0.4-0.7-0.9-0.7-1.5c0-0.8,0.3-1.4,1-1.9c0.6-0.4,1.4-0.6,2.5-0.6l1.7,0
				v-0.4c0-1.2-0.6-1.8-1.9-1.8c-0.5,0-1,0.1-1.3,0.3c-0.4,0.2-0.6,0.6-0.7,1l-1.1-0.1c0.2-0.8,0.5-1.3,1.1-1.7
				c0.5-0.3,1.2-0.5,2.1-0.5C184.8-29.4,185.6-29.2,186.1-28.6z M183.9-25.4c-1.6,0-2.4,0.6-2.4,1.6c0,0.3,0.1,0.6,0.4,0.8
				c0.3,0.2,0.6,0.3,1.1,0.3c0.7,0,1.3-0.2,1.8-0.7c0.5-0.4,0.8-0.9,0.8-1.5v-0.6L183.9-25.4z"/>
			<path style="fill:#444444;" d="M188.9-29.2l2.2,5.7l2.1-5.7h1.2l-4,10h-1.2l1.2-2.9l-2.9-7.1H188.9z"/>
		</g>
	</g>
</g>
<g id="ShadowBasicRect4_1_" transform="translate(346,76)">
	<rect x="124" y="-22" style="opacity:0.6;fill:#BBBBBB;enable-background:new    ;" width="158" height="50"/>
	<g>
		<rect x="122.5" y="-23.5" style="fill:#FFFFFF;" width="157" height="49"/>
		<path style="fill:#E5E5E5;" d="M279-23v48H123v-48H279 M280-24H122v50h158V-24L280-24z"/>
	</g>
	<g transform="translate(20 9)">
		<g>
			<path id="XMLID_9_" style="fill:#00A4FF;" d="M175.8-6c-1,6.2-6.3,11-12.8,11c-7.2,0-13-5.8-13-13s5.8-13,13-13
				c6.5,0,11.9,4.8,12.8,11h2c-0.9-7.3-7.2-13-14.8-13c-8.3,0-15,6.7-15,15s6.7,15,15,15c7.6,0,13.9-5.7,14.9-13H175.8z"/>
			<g>
				<path id="XMLID_8_" style="fill:#00A4FF;" d="M156-6l5,3v2l-5-3V-6z"/>
				<path id="XMLID_7_" style="fill:#00A4FF;" d="M156-10l5-3v-2l-5,3V-10z"/>
				<path id="XMLID_6_" style="fill:#00A4FF;" d="M156-12h2v8h-2V-12z"/>
			</g>
			<g>
				<path id="XMLID_5_" style="fill:#00A4FF;" d="M168-12h2v8h-2V-12z"/>
				<path id="XMLID_4_" style="fill:#00A4FF;" d="M170-4l-5,3v-2l5-3V-4z"/>
				<path id="XMLID_3_" style="fill:#00A4FF;" d="M170-12l-5-3v2l5,3V-12z"/>
			</g>
			<polygon id="XMLID_2_" style="fill:#00A4FF;" points="163,-5 161,-5 163,-11 165,-11 			"/>
		</g>
		<g style="enable-background:new    ;">
			<path style="fill:#444444;" d="M196-12.4c0.7,0.5,1.1,1.3,1.1,2.4H196c-0.1-0.7-0.4-1.3-0.8-1.6c-0.4-0.4-1.1-0.5-1.9-0.5
				c-0.7,0-1.3,0.1-1.7,0.4c-0.5,0.3-0.7,0.7-0.7,1.3c0,0.5,0.3,0.9,0.9,1.2c0.3,0.1,0.9,0.3,1.8,0.6c1.3,0.4,2.2,0.7,2.6,1
				c0.8,0.5,1.2,1.2,1.2,2.1c0,0.9-0.3,1.6-1.1,2.1c-0.7,0.5-1.6,0.7-2.8,0.7c-1.2,0-2.1-0.3-2.8-0.8c-0.8-0.6-1.2-1.5-1.3-2.7h1.1
				c0.1,0.9,0.4,1.5,0.9,1.9c0.5,0.4,1.1,0.6,2,0.6c0.8,0,1.5-0.2,2-0.5c0.5-0.3,0.8-0.7,0.8-1.3c0-0.6-0.3-1.1-1-1.5
				c-0.3-0.2-1-0.4-2.1-0.7c-1.2-0.4-2-0.6-2.3-0.8c-0.8-0.4-1.1-1.1-1.1-1.9c0-0.9,0.4-1.6,1.1-2c0.7-0.4,1.5-0.7,2.5-0.7
				C194.5-13.2,195.4-12.9,196-12.4z"/>
			<path style="fill:#444444;" d="M206-12.3c0.8,0.6,1.2,1.4,1.3,2.4h-1.1c-0.1-0.7-0.5-1.3-1.1-1.7c-0.5-0.4-1.2-0.6-2-0.6
				c-1.2,0-2.1,0.4-2.7,1.2c-0.6,0.8-0.9,1.8-0.9,3c0,1.2,0.3,2.2,0.9,3c0.6,0.8,1.5,1.2,2.7,1.2c0.8,0,1.5-0.2,2-0.6
				c0.6-0.4,1-1.1,1.2-2h1.1c-0.2,1.2-0.7,2.1-1.6,2.7c-0.8,0.6-1.7,0.9-2.8,0.9c-1.6,0-2.7-0.5-3.6-1.5c-0.8-0.9-1.1-2.1-1.1-3.6
				c0-1.5,0.4-2.7,1.1-3.7c0.8-1.1,2-1.6,3.6-1.6C204.3-13.2,205.2-12.9,206-12.3z"/>
			<path style="fill:#444444;" d="M215.7-13v1h-5.5v3.4h5.3v1h-5.3V-3H209v-10H215.7z"/>
		</g>
	</g>
</g>
<g id="ShadowBasicRect6_1_" transform="translate(346,145)">
	<rect x="326" y="-91" style="opacity:0.6;fill:#BBBBBB;enable-background:new    ;" width="158" height="50"/>
	<g>
		<rect x="324.5" y="-92.5" style="fill:#FFFFFF;" width="157" height="49"/>
		<path style="fill:#E5E5E5;" d="M481-92v48H325v-48H481 M482-93H324v50h158V-93L482-93z"/>
	</g>
	<g transform="translate(20 9)">
		<g style="enable-background:new    ;">
			<path style="fill:#444444;" d="M369.3-82c2.3,0,3.4,1,3.4,2.9c0,2-1.2,3-3.5,3h-2.9v4.1h-1.1v-10H369.3z M366.3-77.1h2.9
				c0.8,0,1.4-0.2,1.8-0.5c0.4-0.3,0.6-0.8,0.6-1.5c0-0.7-0.2-1.2-0.6-1.5c-0.4-0.3-1-0.5-1.8-0.5h-2.9V-77.1z"/>
			<path style="fill:#444444;" d="M379.8-78.3c0.6,0.7,0.9,1.6,0.9,2.7c0,1.1-0.3,2-0.9,2.7c-0.7,0.8-1.5,1.1-2.6,1.1
				c-1.1,0-1.9-0.4-2.6-1.1c-0.6-0.7-0.9-1.6-0.9-2.7c0-1.1,0.3-2,0.9-2.7c0.6-0.8,1.5-1.1,2.6-1.1
				C378.3-79.4,379.2-79.1,379.8-78.3z M375.5-77.6c-0.4,0.5-0.6,1.2-0.6,2c0,0.8,0.2,1.5,0.6,2c0.4,0.6,1,0.9,1.8,0.9
				c0.8,0,1.4-0.3,1.8-0.9c0.4-0.5,0.6-1.2,0.6-2c0-0.8-0.2-1.5-0.6-2c-0.4-0.6-1-0.9-1.8-0.9C376.5-78.5,375.9-78.2,375.5-77.6z"/>
			<path style="fill:#444444;" d="M387.8-77.2h-1.1c-0.1-0.4-0.3-0.8-0.6-1c-0.3-0.2-0.8-0.3-1.3-0.3c-0.5,0-0.9,0.1-1.2,0.3
				c-0.3,0.2-0.5,0.4-0.5,0.8c0,0.3,0.2,0.6,0.6,0.8c0.3,0.1,0.8,0.3,1.5,0.5c0.9,0.2,1.5,0.4,1.9,0.7c0.6,0.4,0.9,0.9,0.9,1.5
				c0,1.5-1,2.2-3.1,2.2c-1.9,0-2.9-0.8-3.1-2.5h1.1c0.1,0.6,0.3,1,0.6,1.2c0.3,0.2,0.8,0.3,1.4,0.3c1.3,0,1.9-0.4,1.9-1.2
				c0-0.4-0.2-0.7-0.7-0.9c-0.2-0.1-0.8-0.3-1.5-0.5c-0.9-0.2-1.5-0.4-1.8-0.6c-0.6-0.3-0.8-0.8-0.8-1.4s0.3-1.1,0.8-1.5
				c0.5-0.4,1.2-0.5,2-0.5C386.6-79.4,387.6-78.7,387.8-77.2z"/>
			<path style="fill:#444444;" d="M391.2-79.2h1.8v0.9h-1.8v4.6c0,0.3,0,0.5,0.2,0.6c0.1,0.1,0.3,0.2,0.5,0.2h0.9v0.9h-1.1
				c-0.6,0-1-0.2-1.3-0.5c-0.2-0.3-0.4-0.7-0.4-1.2v-4.6h-1.5v-0.9h1.5v-1.9l1.1-0.5V-79.2z"/>
			<path style="fill:#444444;" d="M399.7-78v-1.2h1.1v6.7c0,2.3-1.1,3.5-3.3,3.5c-1,0-1.7-0.2-2.2-0.6c-0.5-0.4-0.8-1-1-1.8h1.1
				c0.1,0.5,0.3,0.9,0.6,1.1c0.3,0.2,0.8,0.4,1.5,0.4c1.5,0,2.2-0.8,2.2-2.4v-1.3c-0.5,1-1.3,1.5-2.4,1.5c-1,0-1.8-0.4-2.4-1
				c-0.6-0.7-0.9-1.5-0.9-2.6c0-1.1,0.3-1.9,0.9-2.6c0.6-0.7,1.4-1.1,2.4-1.1C398.3-79.4,399.1-79,399.7-78z M395.7-77.7
				c-0.4,0.5-0.6,1.1-0.6,1.9c0,0.8,0.2,1.4,0.5,1.9c0.4,0.5,1,0.8,1.8,0.8c0.7,0,1.3-0.3,1.7-0.8c0.4-0.5,0.6-1.1,0.6-1.9
				c0-0.8-0.2-1.5-0.6-1.9c-0.4-0.5-1-0.8-1.7-0.8C396.7-78.5,396.1-78.3,395.7-77.7z"/>
			<path style="fill:#444444;" d="M406.7-79.3v1.1c-0.4-0.1-0.7-0.2-1.1-0.2c-0.6,0-1,0.2-1.4,0.7c-0.4,0.5-0.6,1-0.6,1.7v3.8h-1.1
				v-7.2h1.1v1.3c0.2-0.4,0.4-0.8,0.8-1c0.4-0.3,0.8-0.5,1.3-0.5C406.1-79.4,406.4-79.4,406.7-79.3z"/>
			<path style="fill:#444444;" d="M413.3-78.3c0.5,0.7,0.8,1.7,0.8,3h-5.7c0.1,0.8,0.3,1.4,0.7,1.9c0.4,0.4,0.9,0.7,1.6,0.7
				c0.6,0,1.1-0.2,1.4-0.4c0.3-0.3,0.5-0.6,0.7-1.1h1.1c-0.2,0.7-0.5,1.3-1,1.7c-0.6,0.5-1.4,0.8-2.3,0.8c-1,0-1.9-0.4-2.5-1
				c-0.6-0.7-1-1.6-1-2.8c0-1.1,0.3-2,0.9-2.7c0.6-0.8,1.4-1.1,2.5-1.1C411.8-79.4,412.7-79,413.3-78.3z M409.1-77.9
				c-0.4,0.4-0.6,1-0.7,1.7h4.5c-0.1-1.6-0.9-2.3-2.3-2.3C410-78.5,409.5-78.3,409.1-77.9z"/>
			<path style="fill:#444444;" d="M421.6-81.4c0.7,0.5,1.1,1.3,1.1,2.4h-1.1c-0.1-0.7-0.4-1.3-0.8-1.6c-0.4-0.4-1.1-0.5-1.9-0.5
				c-0.7,0-1.3,0.1-1.7,0.4c-0.5,0.3-0.7,0.7-0.7,1.3c0,0.5,0.3,0.9,0.9,1.2c0.3,0.1,0.9,0.3,1.8,0.6c1.3,0.4,2.2,0.7,2.6,1
				c0.8,0.5,1.2,1.2,1.2,2.1c0,0.9-0.4,1.6-1.1,2.1c-0.7,0.5-1.6,0.7-2.8,0.7c-1.2,0-2.1-0.3-2.8-0.8c-0.8-0.6-1.2-1.5-1.3-2.7h1.1
				c0.1,0.9,0.4,1.5,0.9,1.9c0.5,0.4,1.1,0.6,2,0.6c0.8,0,1.5-0.2,2-0.5c0.5-0.3,0.8-0.7,0.8-1.3c0-0.6-0.3-1.1-1-1.5
				c-0.3-0.2-1-0.4-2.1-0.7c-1.2-0.4-2-0.6-2.3-0.8c-0.8-0.4-1.1-1.1-1.1-1.9c0-0.9,0.4-1.6,1.1-2c0.7-0.4,1.5-0.7,2.5-0.7
				C420-82.2,420.9-81.9,421.6-81.4z"/>
			<path style="fill:#444444;" d="M432.3-80.7c0.8,1,1.2,2.2,1.2,3.7c0,1.5-0.4,2.7-1.2,3.7c0,0-0.1,0.1-0.1,0.1
				c0.4,0.5,0.8,1,1.1,1.6l-0.8,0.7c-0.4-0.6-0.8-1.1-1.1-1.6c-0.8,0.5-1.7,0.8-2.7,0.8c-1.5,0-2.7-0.5-3.5-1.5
				c-0.8-1-1.2-2.2-1.2-3.7c0-1.5,0.4-2.7,1.2-3.7c0.9-1,2-1.5,3.6-1.5C430.3-82.2,431.4-81.7,432.3-80.7z M426.1-80
				c-0.6,0.8-0.9,1.8-0.9,3c0,1.2,0.3,2.2,0.9,3c0.6,0.8,1.6,1.2,2.7,1.2c0.8,0,1.5-0.2,2.1-0.6c-0.6-0.7-1.1-1.4-1.7-2l0.7-0.7
				c0.6,0.6,1.1,1.3,1.7,1.9c0.6-0.7,0.8-1.7,0.8-2.9c0-1.3-0.3-2.3-0.9-3c-0.6-0.8-1.5-1.1-2.7-1.1S426.7-80.8,426.1-80z"/>
			<path style="fill:#444444;" d="M436.3-82v9h5.8v1h-6.9v-10H436.3z"/>
		</g>
		<g>
			<g>
				<defs>
					<path id="SVGID_1_" d="M340-91.2c-5.5,0-10,1.3-10,3c0,1.7,4.5,3,10,3s10-1.3,10-3C350-89.9,345.5-91.2,340-91.2z M328-88.2
						c0-2.8,5.4-5,12-5s12,2.2,12,5v5.5c-0.6-0.2-1.3-0.3-2-0.4v-2.3c-2.1,1.3-5.8,2.2-10,2.2s-7.9-0.9-10-2.2v6.2l0,0.1
						c0.2,1.5,3.9,2.7,8.8,2.9c-0.3,0.7-0.5,1.3-0.6,2c-3.4-0.2-6.4-1-8.2-2.2v6.2l0,0.1c0.2,1.6,4.2,2.8,9.2,2.9
						c0.4,0.7,0.8,1.4,1.3,2H340c-6.6,0-12-2.2-12-5V-88.2z"/>
				</defs>
				<clipPath id="SVGID_2_">
					<use xlink:href="#SVGID_1_"  style="overflow:visible;"/>
				</clipPath>
				<g style="clip-path:url(#SVGID_2_);">
					<defs>
						<rect id="SVGID_3_" x="326" y="-95.2" width="32" height="32"/>
					</defs>
					<clipPath id="SVGID_4_">
						<use xlink:href="#SVGID_3_"  style="overflow:visible;"/>
					</clipPath>
					<rect x="323" y="-98.2" style="clip-path:url(#SVGID_4_);fill:#00A4FF;" width="34" height="38"/>
				</g>
			</g>
			<g>
				<defs>
					<circle id="SVGID_5_" cx="349.2" cy="-75" r="1.2"/>
				</defs>
				<clipPath id="SVGID_6_">
					<use xlink:href="#SVGID_5_"  style="overflow:visible;"/>
				</clipPath>
				<g style="clip-path:url(#SVGID_6_);">
					<defs>
						<rect id="SVGID_7_" x="326" y="-95.2" width="32" height="32"/>
					</defs>
					<clipPath id="SVGID_8_">
						<use xlink:href="#SVGID_7_"  style="overflow:visible;"/>
					</clipPath>
					<rect x="343" y="-81.2" style="clip-path:url(#SVGID_8_);fill:#00A4FF;" width="12.5" height="12.5"/>
				</g>
			</g>
			<g>
				<defs>
					<path id="SVGID_9_" d="M342-77.8l-1-1.6c2.6-1.6,5.1-2.2,7.3-1.6c2.2,0.6,3.8,1.7,4.6,3.4c1.7,2.9,2.1,6.4,1.2,10.7
						c-0.4,1.9-2.8,2.5-4,1.3c-0.7-0.6-1-1.5-1-2.7h1.9c0,0.7,0.1,1.1,0.3,1.3c0.2,0.2,0.8,0.1,0.9-0.3c0.8-3.8,0.4-6.9-1-9.4
						c-0.6-1.2-1.8-2.1-3.4-2.5C346.1-79.6,344.2-79.1,342-77.8z"/>
				</defs>
				<clipPath id="SVGID_10_">
					<use xlink:href="#SVGID_9_"  style="overflow:visible;"/>
				</clipPath>
				<g style="clip-path:url(#SVGID_10_);">
					<defs>
						<rect id="SVGID_11_" x="326" y="-95.2" width="32" height="32"/>
					</defs>
					<clipPath id="SVGID_12_">
						<use xlink:href="#SVGID_11_"  style="overflow:visible;"/>
					</clipPath>
					<rect x="336" y="-86.2" style="clip-path:url(#SVGID_12_);fill:#00A4FF;" width="23.6" height="26.2"/>
				</g>
			</g>
			<g>
				<defs>
					<path id="SVGID_13_" d="M345.9-80.6l1.2,1.5c0,0-0.1,0.1-0.2,0.2c-0.2,0.2-0.4,0.5-0.6,0.7c-1.3,1.8-1.3,3.8,0.7,6.1l-1.5,1.2
						c-2.6-3-2.6-6-0.8-8.5C345.1-79.9,345.6-80.3,345.9-80.6z"/>
				</defs>
				<clipPath id="SVGID_14_">
					<use xlink:href="#SVGID_13_"  style="overflow:visible;"/>
				</clipPath>
				<g style="clip-path:url(#SVGID_14_);">
					<defs>
						<rect id="SVGID_15_" x="326" y="-95.2" width="32" height="32"/>
					</defs>
					<clipPath id="SVGID_16_">
						<use xlink:href="#SVGID_15_"  style="overflow:visible;"/>
					</clipPath>
					<rect x="338.4" y="-85.6" style="clip-path:url(#SVGID_16_);fill:#00A4FF;" width="13.7" height="19.8"/>
				</g>
			</g>
			<g>
				<defs>
					<path id="SVGID_17_" d="M341.7-67l-0.7-1.8l4.4-1.7v3.3h1.6V-71l0.8-0.1c2.7-0.5,4.9-1.1,6.8-1.7l0.9-0.3l0.7,1.8l-0.9,0.3
						c-1.8,0.6-3.9,1.2-6.3,1.7v4.2h-5.5v-2.4L341.7-67z"/>
				</defs>
				<clipPath id="SVGID_18_">
					<use xlink:href="#SVGID_17_"  style="overflow:visible;"/>
				</clipPath>
				<g style="clip-path:url(#SVGID_18_);">
					<defs>
						<rect id="SVGID_19_" x="326" y="-95.2" width="32" height="32"/>
					</defs>
					<clipPath id="SVGID_20_">
						<use xlink:href="#SVGID_19_"  style="overflow:visible;"/>
					</clipPath>
					<rect x="336" y="-78.2" style="clip-path:url(#SVGID_20_);fill:#00A4FF;" width="25.2" height="18"/>
				</g>
			</g>
		</g>
	</g>
</g>
<g>
	<g>
		<path style="fill:#878787;" d="M248.4,112.4c2,0,3,0.8,3,2.5c0,1.7-1,2.5-3,2.5h-2.5v3.5h-1v-8.6H248.4z M245.8,116.6h2.5
			c0.7,0,1.2-0.1,1.5-0.4c0.3-0.3,0.5-0.7,0.5-1.3c0-0.6-0.2-1-0.5-1.2c-0.3-0.3-0.8-0.4-1.5-0.4h-2.5V116.6z"/>
		<path style="fill:#878787;" d="M259.3,113.6c0.7,0.8,1.1,1.9,1.1,3.2c0,1.3-0.4,2.3-1.1,3.2c-0.7,0.9-1.8,1.3-3,1.3
			c-1.3,0-2.3-0.4-3-1.3c-0.7-0.8-1.1-1.9-1.1-3.2c0-1.3,0.3-2.4,1.1-3.2c0.7-0.9,1.8-1.3,3-1.3
			C257.6,112.3,258.6,112.7,259.3,113.6z M254,114.2c-0.5,0.6-0.8,1.5-0.8,2.6c0,1.1,0.3,1.9,0.8,2.6c0.6,0.7,1.3,1,2.3,1
			c1,0,1.8-0.3,2.3-1c0.5-0.6,0.8-1.5,0.8-2.6c0-1.1-0.3-2-0.8-2.6c-0.6-0.7-1.3-1-2.3-1S254.5,113.5,254,114.2z"/>
		<path style="fill:#878787;" d="M266.9,112.9c0.6,0.5,0.9,1.1,1,2h-1c-0.1-0.6-0.3-1.1-0.7-1.4c-0.4-0.3-0.9-0.5-1.6-0.5
			c-0.6,0-1.1,0.1-1.5,0.3c-0.4,0.2-0.6,0.6-0.6,1.1c0,0.4,0.2,0.8,0.7,1c0.2,0.1,0.7,0.3,1.6,0.5c1.1,0.3,1.9,0.6,2.2,0.8
			c0.7,0.4,1.1,1,1.1,1.8c0,0.7-0.3,1.3-0.9,1.8c-0.6,0.4-1.4,0.6-2.4,0.6c-1,0-1.8-0.2-2.4-0.6c-0.7-0.5-1-1.3-1.1-2.4h1
			c0.1,0.7,0.3,1.3,0.8,1.6c0.4,0.3,1,0.5,1.7,0.5c0.7,0,1.3-0.1,1.7-0.4c0.4-0.3,0.6-0.6,0.6-1.1c0-0.5-0.3-1-0.9-1.3
			c-0.2-0.1-0.9-0.3-1.8-0.6c-1-0.3-1.7-0.6-2-0.7c-0.7-0.4-1-0.9-1-1.7c0-0.7,0.3-1.3,0.9-1.7c0.6-0.4,1.3-0.6,2.2-0.6
			C265.6,112.3,266.4,112.5,266.9,112.9z"/>
		<path style="fill:#878787;" d="M275.7,112.4v0.9h-3v7.7h-1v-7.7h-3v-0.9H275.7z"/>
		<path style="fill:#878787;" d="M251.1,133c0.6,0.5,1,1.2,1.1,2.1h-1c-0.1-0.6-0.4-1.1-0.9-1.5c-0.5-0.4-1.1-0.6-1.8-0.6
			c-0.9,0-1.7,0.3-2.2,1c-0.6,0.6-0.8,1.5-0.8,2.6c0,1.1,0.3,1.9,0.8,2.6c0.6,0.7,1.4,1,2.5,1c0.5,0,0.9-0.1,1.3-0.2
			c0.4-0.1,0.8-0.3,1.1-0.5v-2.2h-2.7v-0.9h3.7v3.5c-0.4,0.3-0.9,0.6-1.5,0.8c-0.6,0.2-1.3,0.3-2,0.3c-1.4,0-2.4-0.4-3.2-1.3
			c-0.7-0.8-1-1.8-1-3.1c0-1.3,0.3-2.3,1-3.1c0.7-0.9,1.7-1.3,3-1.3C249.6,132.3,250.4,132.5,251.1,133z"/>
		<path style="fill:#878787;" d="M259.9,132.4v0.9h-5.1v2.9h4.8v0.9h-4.8v3.1h5.3v0.9h-6.3v-8.6H259.9z"/>
		<path style="fill:#878787;" d="M267.8,132.4v0.9h-3v7.7h-1v-7.7h-3v-0.9H267.8z"/>
		<path style="fill:#878787;" d="M248.4,152.4c2,0,3,0.8,3,2.5c0,1.7-1,2.5-3,2.5h-2.5v3.5h-1v-8.6H248.4z M245.8,156.6h2.5
			c0.7,0,1.2-0.1,1.5-0.4c0.3-0.3,0.5-0.7,0.5-1.3c0-0.6-0.2-1-0.5-1.2c-0.3-0.3-0.8-0.4-1.5-0.4h-2.5V156.6z"/>
		<path style="fill:#878787;" d="M253.6,152.4v5.3c0,0.8,0.2,1.5,0.6,1.9c0.4,0.4,1,0.7,1.9,0.7c0.8,0,1.5-0.2,1.9-0.7
			c0.4-0.4,0.6-1.1,0.6-1.9v-5.3h1v5.3c0,1.1-0.3,2-0.9,2.6c-0.6,0.6-1.4,0.9-2.6,0.9s-2-0.3-2.6-0.9c-0.6-0.6-0.9-1.5-0.9-2.6v-5.3
			H253.6z"/>
		<path style="fill:#878787;" d="M267.5,152.4v0.9h-3v7.7h-1v-7.7h-3v-0.9H267.5z"/>
		<path style="fill:#878787;" d="M247.9,172.4c1.4,0,2.4,0.4,3.1,1.2c0.6,0.7,1,1.8,1,3.1c0,1.3-0.3,2.4-1,3.1
			c-0.7,0.8-1.8,1.2-3.1,1.2h-3v-8.6H247.9z M245.8,180.1h1.8c1.1,0,2-0.3,2.5-0.9c0.5-0.6,0.8-1.4,0.8-2.5c0-1.2-0.3-2-0.7-2.6
			c-0.5-0.6-1.3-0.9-2.5-0.9h-1.9V180.1z"/>
		<path style="fill:#878787;" d="M259.4,172.4v0.9h-5.1v2.9h4.8v0.9h-4.8v3.1h5.3v0.9h-6.3v-8.6H259.4z"/>
		<path style="fill:#878787;" d="M262,172.4v7.7h5v0.9H261v-8.6H262z"/>
		<path style="fill:#878787;" d="M274.1,172.4v0.9H269v2.9h4.8v0.9H269v3.1h5.3v0.9H268v-8.6H274.1z"/>
		<path style="fill:#878787;" d="M282,172.4v0.9h-3v7.7h-1v-7.7h-3v-0.9H282z"/>
		<path style="fill:#878787;" d="M289.2,172.4v0.9h-5.1v2.9h4.8v0.9h-4.8v3.1h5.3v0.9h-6.3v-8.6H289.2z"/>
	</g>
</g>
<g>
	<g>
		<path style="fill:#878787;" d="M302.6,111.2l-4.2,11h-0.9l4.3-11H302.6z"/>
		<path style="fill:#878787;" d="M305.4,114.8h1.5v0.8h-1.5v3.9c0,0.2,0,0.4,0.1,0.5c0.1,0.1,0.2,0.2,0.5,0.2h0.8v0.8h-0.9
			c-0.5,0-0.9-0.1-1.1-0.4c-0.2-0.2-0.3-0.6-0.3-1.1v-3.9h-1.2v-0.8h1.2v-1.6l0.9-0.4V114.8z"/>
		<path style="fill:#878787;" d="M312.7,115.3c0.4,0.4,0.6,1,0.6,1.7v4h-0.9v-1c-0.2,0.3-0.6,0.6-0.9,0.8c-0.5,0.3-1,0.4-1.5,0.4
			c-0.6,0-1.1-0.2-1.5-0.5c-0.4-0.3-0.6-0.7-0.6-1.2c0-0.7,0.3-1.2,0.9-1.6c0.5-0.3,1.2-0.5,2.2-0.5l1.5,0V117c0-1-0.5-1.6-1.6-1.6
			c-0.5,0-0.8,0.1-1.1,0.3c-0.3,0.2-0.5,0.5-0.6,0.9l-0.9-0.1c0.1-0.6,0.5-1.1,1-1.5c0.5-0.3,1-0.4,1.8-0.4
			C311.6,114.6,312.2,114.9,312.7,115.3z M310.8,118c-1.4,0-2.1,0.5-2.1,1.4c0,0.3,0.1,0.5,0.3,0.7c0.2,0.2,0.6,0.3,0.9,0.3
			c0.6,0,1.1-0.2,1.6-0.6c0.4-0.4,0.7-0.8,0.7-1.3V118L310.8,118z"/>
		<path style="fill:#878787;" d="M319.4,116.6h-0.9c-0.1-0.4-0.2-0.7-0.5-0.8c-0.3-0.2-0.6-0.3-1.1-0.3c-0.4,0-0.8,0.1-1,0.2
			c-0.3,0.2-0.4,0.4-0.4,0.6c0,0.3,0.2,0.5,0.5,0.7c0.2,0.1,0.7,0.2,1.3,0.4c0.7,0.2,1.3,0.4,1.6,0.6c0.5,0.3,0.7,0.7,0.7,1.3
			c0,1.3-0.9,1.9-2.6,1.9c-1.6,0-2.5-0.7-2.7-2.1h0.9c0.1,0.5,0.3,0.8,0.5,1.1c0.3,0.2,0.7,0.3,1.2,0.3c1.1,0,1.7-0.4,1.7-1.1
			c0-0.3-0.2-0.6-0.6-0.8c-0.2-0.1-0.6-0.2-1.3-0.4c-0.7-0.2-1.2-0.4-1.5-0.6c-0.5-0.3-0.7-0.7-0.7-1.2c0-0.5,0.2-0.9,0.7-1.2
			c0.4-0.3,1-0.5,1.7-0.5C318.4,114.6,319.3,115.3,319.4,116.6z"/>
		<path style="fill:#878787;" d="M321.7,112.3v5.4l3.1-2.9h1.3l-2.7,2.5l3,3.7h-1.2l-2.4-3.1l-1,0.9v2.2h-1v-8.7H321.7z"/>
		<path style="fill:#878787;" d="M331.9,116.6h-0.9c-0.1-0.4-0.2-0.7-0.5-0.8c-0.3-0.2-0.6-0.3-1.1-0.3c-0.4,0-0.8,0.1-1,0.2
			c-0.3,0.2-0.4,0.4-0.4,0.6c0,0.3,0.2,0.5,0.5,0.7c0.2,0.1,0.7,0.2,1.3,0.4c0.7,0.2,1.3,0.4,1.6,0.6c0.5,0.3,0.7,0.7,0.7,1.3
			c0,1.3-0.9,1.9-2.6,1.9c-1.6,0-2.5-0.7-2.7-2.1h0.9c0.1,0.5,0.3,0.8,0.5,1.1c0.3,0.2,0.7,0.3,1.2,0.3c1.1,0,1.7-0.4,1.7-1.1
			c0-0.3-0.2-0.6-0.6-0.8c-0.2-0.1-0.6-0.2-1.3-0.4c-0.7-0.2-1.2-0.4-1.5-0.6c-0.5-0.3-0.7-0.7-0.7-1.2c0-0.5,0.2-0.9,0.7-1.2
			c0.4-0.3,1-0.5,1.7-0.5C330.8,114.6,331.7,115.3,331.9,116.6z"/>
		<path style="fill:#878787;" d="M302.6,131.2l-4.2,11h-0.9l4.3-11H302.6z"/>
		<path style="fill:#878787;" d="M305.4,134.8h1.5v0.8h-1.5v3.9c0,0.2,0,0.4,0.1,0.5c0.1,0.1,0.2,0.2,0.5,0.2h0.8v0.8h-0.9
			c-0.5,0-0.9-0.1-1.1-0.4c-0.2-0.2-0.3-0.6-0.3-1.1v-3.9h-1.2v-0.8h1.2v-1.6l0.9-0.4V134.8z"/>
		<path style="fill:#878787;" d="M312.7,135.3c0.4,0.4,0.6,1,0.6,1.7v4h-0.9v-1c-0.2,0.3-0.6,0.6-0.9,0.8c-0.5,0.3-1,0.4-1.5,0.4
			c-0.6,0-1.1-0.2-1.5-0.5c-0.4-0.3-0.6-0.7-0.6-1.2c0-0.7,0.3-1.2,0.9-1.6c0.5-0.3,1.2-0.5,2.2-0.5l1.5,0V137c0-1-0.5-1.6-1.6-1.6
			c-0.5,0-0.8,0.1-1.1,0.3c-0.3,0.2-0.5,0.5-0.6,0.9l-0.9-0.1c0.1-0.6,0.5-1.1,1-1.5c0.5-0.3,1-0.4,1.8-0.4
			C311.6,134.6,312.2,134.9,312.7,135.3z M310.8,138c-1.4,0-2.1,0.5-2.1,1.4c0,0.3,0.1,0.5,0.3,0.7c0.2,0.2,0.6,0.3,0.9,0.3
			c0.6,0,1.1-0.2,1.6-0.6c0.4-0.4,0.7-0.8,0.7-1.3V138L310.8,138z"/>
		<path style="fill:#878787;" d="M319.4,136.6h-0.9c-0.1-0.4-0.2-0.7-0.5-0.8c-0.3-0.2-0.6-0.3-1.1-0.3c-0.4,0-0.8,0.1-1,0.2
			c-0.3,0.2-0.4,0.4-0.4,0.6c0,0.3,0.2,0.5,0.5,0.7c0.2,0.1,0.7,0.2,1.3,0.4c0.7,0.2,1.3,0.4,1.6,0.6c0.5,0.3,0.7,0.7,0.7,1.3
			c0,1.3-0.9,1.9-2.6,1.9c-1.6,0-2.5-0.7-2.7-2.1h0.9c0.1,0.5,0.3,0.8,0.5,1.1c0.3,0.2,0.7,0.3,1.2,0.3c1.1,0,1.7-0.4,1.7-1.1
			c0-0.3-0.2-0.6-0.6-0.8c-0.2-0.1-0.6-0.2-1.3-0.4c-0.7-0.2-1.2-0.4-1.5-0.6c-0.5-0.3-0.7-0.7-0.7-1.2c0-0.5,0.2-0.9,0.7-1.2
			c0.4-0.3,1-0.5,1.7-0.5C318.4,134.6,319.3,135.3,319.4,136.6z"/>
		<path style="fill:#878787;" d="M321.7,132.3v5.4l3.1-2.9h1.3l-2.7,2.5l3,3.7h-1.2l-2.4-3.1l-1,0.9v2.2h-1v-8.7H321.7z"/>
		<path style="fill:#878787;" d="M331.9,136.6h-0.9c-0.1-0.4-0.2-0.7-0.5-0.8c-0.3-0.2-0.6-0.3-1.1-0.3c-0.4,0-0.8,0.1-1,0.2
			c-0.3,0.2-0.4,0.4-0.4,0.6c0,0.3,0.2,0.5,0.5,0.7c0.2,0.1,0.7,0.2,1.3,0.4c0.7,0.2,1.3,0.4,1.6,0.6c0.5,0.3,0.7,0.7,0.7,1.3
			c0,1.3-0.9,1.9-2.6,1.9c-1.6,0-2.5-0.7-2.7-2.1h0.9c0.1,0.5,0.3,0.8,0.5,1.1c0.3,0.2,0.7,0.3,1.2,0.3c1.1,0,1.7-0.4,1.7-1.1
			c0-0.3-0.2-0.6-0.6-0.8c-0.2-0.1-0.6-0.2-1.3-0.4c-0.7-0.2-1.2-0.4-1.5-0.6c-0.5-0.3-0.7-0.7-0.7-1.2c0-0.5,0.2-0.9,0.7-1.2
			c0.4-0.3,1-0.5,1.7-0.5C330.8,134.6,331.7,135.3,331.9,136.6z"/>
		<path style="fill:#878787;" d="M338,131.2l-4.2,11h-0.9l4.3-11H338z"/>
		<path style="fill:#878787;" d="M342.2,131.1v0.8h-0.7c-0.5,0-0.8,0.3-0.8,0.9v2.5c0,0.7-0.3,1.2-1,1.5c0.6,0.3,1,0.8,1,1.5v2.5
			c0,0.6,0.3,0.9,0.8,0.9h0.7v0.8h-0.8c-0.5,0-0.9-0.2-1.1-0.5c-0.3-0.3-0.4-0.7-0.4-1.2v-2.4c0-0.4-0.1-0.6-0.2-0.8
			c-0.2-0.2-0.5-0.3-0.9-0.3v-0.8c0.4,0,0.7-0.1,0.9-0.3c0.1-0.2,0.2-0.4,0.2-0.8v-2.4c0-0.5,0.1-0.9,0.4-1.2
			c0.3-0.3,0.6-0.5,1.1-0.5H342.2z"/>
		<path style="fill:#878787;" d="M344.5,132.7c0.1,0.1,0.2,0.3,0.2,0.5c0,0.2-0.1,0.4-0.2,0.5c-0.1,0.1-0.3,0.2-0.5,0.2
			s-0.4-0.1-0.5-0.2c-0.1-0.1-0.2-0.3-0.2-0.5c0-0.2,0.1-0.4,0.2-0.5c0.1-0.1,0.3-0.2,0.5-0.2S344.3,132.5,344.5,132.7z
			 M344.4,134.8v6.2h-1v-6.2H344.4z"/>
		<path style="fill:#878787;" d="M351.8,132.3v8.7h-0.9v-1c-0.4,0.8-1.1,1.2-2.1,1.2c-0.9,0-1.6-0.3-2.1-1c-0.5-0.6-0.7-1.4-0.7-2.3
			c0-0.9,0.2-1.7,0.7-2.3c0.5-0.7,1.2-1,2.1-1c0.9,0,1.6,0.4,2.1,1.3v-3.7H351.8z M347.4,136.1c-0.3,0.4-0.5,1-0.5,1.7
			c0,0.7,0.1,1.3,0.4,1.8c0.3,0.5,0.8,0.7,1.5,0.7c0.6,0,1.1-0.2,1.5-0.7c0.3-0.4,0.5-1,0.5-1.7v-0.1c0-0.7-0.2-1.3-0.5-1.8
			c-0.3-0.5-0.8-0.7-1.4-0.7C348.3,135.4,347.8,135.7,347.4,136.1z"/>
		<path style="fill:#878787;" d="M353.6,131.1c0.5,0,0.9,0.2,1.1,0.5c0.3,0.3,0.4,0.7,0.4,1.2v2.4c0,0.4,0.1,0.6,0.2,0.8
			c0.2,0.2,0.5,0.3,0.9,0.3v0.8c-0.4,0-0.7,0.1-0.9,0.3c-0.2,0.2-0.2,0.4-0.2,0.8v2.4c0,0.5-0.1,0.9-0.4,1.2
			c-0.3,0.3-0.7,0.5-1.1,0.5h-0.8v-0.8h0.7c0.5,0,0.8-0.3,0.8-0.9v-2.5c0-0.7,0.3-1.2,1-1.5c-0.7-0.3-1-0.7-1-1.5v-2.5
			c0-0.6-0.3-0.9-0.8-0.9h-0.7v-0.8H353.6z"/>
		<path style="fill:#878787;" d="M302.6,151.2l-4.2,11h-0.9l4.3-11H302.6z"/>
		<path style="fill:#878787;" d="M305.4,154.8h1.5v0.8h-1.5v3.9c0,0.2,0,0.4,0.1,0.5c0.1,0.1,0.2,0.2,0.5,0.2h0.8v0.8h-0.9
			c-0.5,0-0.9-0.1-1.1-0.4c-0.2-0.2-0.3-0.6-0.3-1.1v-3.9h-1.2v-0.8h1.2v-1.6l0.9-0.4V154.8z"/>
		<path style="fill:#878787;" d="M312.7,155.3c0.4,0.4,0.6,1,0.6,1.7v4h-0.9v-1c-0.2,0.3-0.6,0.6-0.9,0.8c-0.5,0.3-1,0.4-1.5,0.4
			c-0.6,0-1.1-0.2-1.5-0.5c-0.4-0.3-0.6-0.7-0.6-1.2c0-0.7,0.3-1.2,0.9-1.6c0.5-0.3,1.2-0.5,2.2-0.5l1.5,0V157c0-1-0.5-1.6-1.6-1.6
			c-0.5,0-0.8,0.1-1.1,0.3c-0.3,0.2-0.5,0.5-0.6,0.9l-0.9-0.1c0.1-0.6,0.5-1.1,1-1.5c0.5-0.3,1-0.4,1.8-0.4
			C311.6,154.6,312.2,154.9,312.7,155.3z M310.8,158c-1.4,0-2.1,0.5-2.1,1.4c0,0.3,0.1,0.5,0.3,0.7c0.2,0.2,0.6,0.3,0.9,0.3
			c0.6,0,1.1-0.2,1.6-0.6c0.4-0.4,0.7-0.8,0.7-1.3V158L310.8,158z"/>
		<path style="fill:#878787;" d="M319.4,156.6h-0.9c-0.1-0.4-0.2-0.7-0.5-0.8c-0.3-0.2-0.6-0.3-1.1-0.3c-0.4,0-0.8,0.1-1,0.2
			c-0.3,0.2-0.4,0.4-0.4,0.6c0,0.3,0.2,0.5,0.5,0.7c0.2,0.1,0.7,0.2,1.3,0.4c0.7,0.2,1.3,0.4,1.6,0.6c0.5,0.3,0.7,0.7,0.7,1.3
			c0,1.3-0.9,1.9-2.6,1.9c-1.6,0-2.5-0.7-2.7-2.1h0.9c0.1,0.5,0.3,0.8,0.5,1.1c0.3,0.2,0.7,0.3,1.2,0.3c1.1,0,1.7-0.4,1.7-1.1
			c0-0.3-0.2-0.6-0.6-0.8c-0.2-0.1-0.6-0.2-1.3-0.4c-0.7-0.2-1.2-0.4-1.5-0.6c-0.5-0.3-0.7-0.7-0.7-1.2c0-0.5,0.2-0.9,0.7-1.2
			c0.4-0.3,1-0.5,1.7-0.5C318.4,154.6,319.3,155.3,319.4,156.6z"/>
		<path style="fill:#878787;" d="M321.7,152.3v5.4l3.1-2.9h1.3l-2.7,2.5l3,3.7h-1.2l-2.4-3.1l-1,0.9v2.2h-1v-8.7H321.7z"/>
		<path style="fill:#878787;" d="M331.9,156.6h-0.9c-0.1-0.4-0.2-0.7-0.5-0.8c-0.3-0.2-0.6-0.3-1.1-0.3c-0.4,0-0.8,0.1-1,0.2
			c-0.3,0.2-0.4,0.4-0.4,0.6c0,0.3,0.2,0.5,0.5,0.7c0.2,0.1,0.7,0.2,1.3,0.4c0.7,0.2,1.3,0.4,1.6,0.6c0.5,0.3,0.7,0.7,0.7,1.3
			c0,1.3-0.9,1.9-2.6,1.9c-1.6,0-2.5-0.7-2.7-2.1h0.9c0.1,0.5,0.3,0.8,0.5,1.1c0.3,0.2,0.7,0.3,1.2,0.3c1.1,0,1.7-0.4,1.7-1.1
			c0-0.3-0.2-0.6-0.6-0.8c-0.2-0.1-0.6-0.2-1.3-0.4c-0.7-0.2-1.2-0.4-1.5-0.6c-0.5-0.3-0.7-0.7-0.7-1.2c0-0.5,0.2-0.9,0.7-1.2
			c0.4-0.3,1-0.5,1.7-0.5C330.8,154.6,331.7,155.3,331.9,156.6z"/>
		<path style="fill:#878787;" d="M338,151.2l-4.2,11h-0.9l4.3-11H338z"/>
		<path style="fill:#878787;" d="M342.2,151.1v0.8h-0.7c-0.5,0-0.8,0.3-0.8,0.9v2.5c0,0.7-0.3,1.2-1,1.5c0.6,0.3,1,0.8,1,1.5v2.5
			c0,0.6,0.3,0.9,0.8,0.9h0.7v0.8h-0.8c-0.5,0-0.9-0.2-1.1-0.5c-0.3-0.3-0.4-0.7-0.4-1.2v-2.4c0-0.4-0.1-0.6-0.2-0.8
			c-0.2-0.2-0.5-0.3-0.9-0.3v-0.8c0.4,0,0.7-0.1,0.9-0.3c0.1-0.2,0.2-0.4,0.2-0.8v-2.4c0-0.5,0.1-0.9,0.4-1.2
			c0.3-0.3,0.6-0.5,1.1-0.5H342.2z"/>
		<path style="fill:#878787;" d="M344.5,152.7c0.1,0.1,0.2,0.3,0.2,0.5c0,0.2-0.1,0.4-0.2,0.5c-0.1,0.1-0.3,0.2-0.5,0.2
			s-0.4-0.1-0.5-0.2c-0.1-0.1-0.2-0.3-0.2-0.5c0-0.2,0.1-0.4,0.2-0.5c0.1-0.1,0.3-0.2,0.5-0.2S344.3,152.5,344.5,152.7z
			 M344.4,154.8v6.2h-1v-6.2H344.4z"/>
		<path style="fill:#878787;" d="M351.8,152.3v8.7h-0.9v-1c-0.4,0.8-1.1,1.2-2.1,1.2c-0.9,0-1.6-0.3-2.1-1c-0.5-0.6-0.7-1.4-0.7-2.3
			c0-0.9,0.2-1.7,0.7-2.3c0.5-0.7,1.2-1,2.1-1c0.9,0,1.6,0.4,2.1,1.3v-3.7H351.8z M347.4,156.1c-0.3,0.4-0.5,1-0.5,1.7
			c0,0.7,0.1,1.3,0.4,1.8c0.3,0.5,0.8,0.7,1.5,0.7c0.6,0,1.1-0.2,1.5-0.7c0.3-0.4,0.5-1,0.5-1.7v-0.1c0-0.7-0.2-1.3-0.5-1.8
			c-0.3-0.5-0.8-0.7-1.4-0.7C348.3,155.4,347.8,155.7,347.4,156.1z"/>
		<path style="fill:#878787;" d="M353.6,151.1c0.5,0,0.9,0.2,1.1,0.5c0.3,0.3,0.4,0.7,0.4,1.2v2.4c0,0.4,0.1,0.6,0.2,0.8
			c0.2,0.2,0.5,0.3,0.9,0.3v0.8c-0.4,0-0.7,0.1-0.9,0.3c-0.2,0.2-0.2,0.4-0.2,0.8v2.4c0,0.5-0.1,0.9-0.4,1.2
			c-0.3,0.3-0.7,0.5-1.1,0.5h-0.8v-0.8h0.7c0.5,0,0.8-0.3,0.8-0.9v-2.5c0-0.7,0.3-1.2,1-1.5c-0.7-0.3-1-0.7-1-1.5v-2.5
			c0-0.6-0.3-0.9-0.8-0.9h-0.7v-0.8H353.6z"/>
		<path style="fill:#878787;" d="M302.6,171.2l-4.2,11h-0.9l4.3-11H302.6z"/>
		<path style="fill:#878787;" d="M305.4,174.8h1.5v0.8h-1.5v3.9c0,0.2,0,0.4,0.1,0.5c0.1,0.1,0.2,0.2,0.5,0.2h0.8v0.8h-0.9
			c-0.5,0-0.9-0.1-1.1-0.4c-0.2-0.2-0.3-0.6-0.3-1.1v-3.9h-1.2v-0.8h1.2v-1.6l0.9-0.4V174.8z"/>
		<path style="fill:#878787;" d="M312.7,175.3c0.4,0.4,0.6,1,0.6,1.7v4h-0.9v-1c-0.2,0.3-0.6,0.6-0.9,0.8c-0.5,0.3-1,0.4-1.5,0.4
			c-0.6,0-1.1-0.2-1.5-0.5c-0.4-0.3-0.6-0.7-0.6-1.2c0-0.7,0.3-1.2,0.9-1.6c0.5-0.3,1.2-0.5,2.2-0.5l1.5,0V177c0-1-0.5-1.6-1.6-1.6
			c-0.5,0-0.8,0.1-1.1,0.3c-0.3,0.2-0.5,0.5-0.6,0.9l-0.9-0.1c0.1-0.6,0.5-1.1,1-1.5c0.5-0.3,1-0.4,1.8-0.4
			C311.6,174.6,312.2,174.9,312.7,175.3z M310.8,178c-1.4,0-2.1,0.5-2.1,1.4c0,0.3,0.1,0.5,0.3,0.7c0.2,0.2,0.6,0.3,0.9,0.3
			c0.6,0,1.1-0.2,1.6-0.6c0.4-0.4,0.7-0.8,0.7-1.3V178L310.8,178z"/>
		<path style="fill:#878787;" d="M319.4,176.6h-0.9c-0.1-0.4-0.2-0.7-0.5-0.8c-0.3-0.2-0.6-0.3-1.1-0.3c-0.4,0-0.8,0.1-1,0.2
			c-0.3,0.2-0.4,0.4-0.4,0.6c0,0.3,0.2,0.5,0.5,0.7c0.2,0.1,0.7,0.2,1.3,0.4c0.7,0.2,1.3,0.4,1.6,0.6c0.5,0.3,0.7,0.7,0.7,1.3
			c0,1.3-0.9,1.9-2.6,1.9c-1.6,0-2.5-0.7-2.7-2.1h0.9c0.1,0.5,0.3,0.8,0.5,1.1c0.3,0.2,0.7,0.3,1.2,0.3c1.1,0,1.7-0.4,1.7-1.1
			c0-0.3-0.2-0.6-0.6-0.8c-0.2-0.1-0.6-0.2-1.3-0.4c-0.7-0.2-1.2-0.4-1.5-0.6c-0.5-0.3-0.7-0.7-0.7-1.2c0-0.5,0.2-0.9,0.7-1.2
			c0.4-0.3,1-0.5,1.7-0.5C318.4,174.6,319.3,175.3,319.4,176.6z"/>
		<path style="fill:#878787;" d="M321.7,172.3v5.4l3.1-2.9h1.3l-2.7,2.5l3,3.7h-1.2l-2.4-3.1l-1,0.9v2.2h-1v-8.7H321.7z"/>
		<path style="fill:#878787;" d="M331.9,176.6h-0.9c-0.1-0.4-0.2-0.7-0.5-0.8c-0.3-0.2-0.6-0.3-1.1-0.3c-0.4,0-0.8,0.1-1,0.2
			c-0.3,0.2-0.4,0.4-0.4,0.6c0,0.3,0.2,0.5,0.5,0.7c0.2,0.1,0.7,0.2,1.3,0.4c0.7,0.2,1.3,0.4,1.6,0.6c0.5,0.3,0.7,0.7,0.7,1.3
			c0,1.3-0.9,1.9-2.6,1.9c-1.6,0-2.5-0.7-2.7-2.1h0.9c0.1,0.5,0.3,0.8,0.5,1.1c0.3,0.2,0.7,0.3,1.2,0.3c1.1,0,1.7-0.4,1.7-1.1
			c0-0.3-0.2-0.6-0.6-0.8c-0.2-0.1-0.6-0.2-1.3-0.4c-0.7-0.2-1.2-0.4-1.5-0.6c-0.5-0.3-0.7-0.7-0.7-1.2c0-0.5,0.2-0.9,0.7-1.2
			c0.4-0.3,1-0.5,1.7-0.5C330.8,174.6,331.7,175.3,331.9,176.6z"/>
		<path style="fill:#878787;" d="M338,171.2l-4.2,11h-0.9l4.3-11H338z"/>
		<path style="fill:#878787;" d="M342.2,171.1v0.8h-0.7c-0.5,0-0.8,0.3-0.8,0.9v2.5c0,0.7-0.3,1.2-1,1.5c0.6,0.3,1,0.8,1,1.5v2.5
			c0,0.6,0.3,0.9,0.8,0.9h0.7v0.8h-0.8c-0.5,0-0.9-0.2-1.1-0.5c-0.3-0.3-0.4-0.7-0.4-1.2v-2.4c0-0.4-0.1-0.6-0.2-0.8
			c-0.2-0.2-0.5-0.3-0.9-0.3v-0.8c0.4,0,0.7-0.1,0.9-0.3c0.1-0.2,0.2-0.4,0.2-0.8v-2.4c0-0.5,0.1-0.9,0.4-1.2
			c0.3-0.3,0.6-0.5,1.1-0.5H342.2z"/>
		<path style="fill:#878787;" d="M344.5,172.7c0.1,0.1,0.2,0.3,0.2,0.5c0,0.2-0.1,0.4-0.2,0.5c-0.1,0.1-0.3,0.2-0.5,0.2
			s-0.4-0.1-0.5-0.2c-0.1-0.1-0.2-0.3-0.2-0.5c0-0.2,0.1-0.4,0.2-0.5c0.1-0.1,0.3-0.2,0.5-0.2S344.3,172.5,344.5,172.7z
			 M344.4,174.8v6.2h-1v-6.2H344.4z"/>
		<path style="fill:#878787;" d="M351.8,172.3v8.7h-0.9v-1c-0.4,0.8-1.1,1.2-2.1,1.2c-0.9,0-1.6-0.3-2.1-1c-0.5-0.6-0.7-1.4-0.7-2.3
			c0-0.9,0.2-1.7,0.7-2.3c0.5-0.7,1.2-1,2.1-1c0.9,0,1.6,0.4,2.1,1.3v-3.7H351.8z M347.4,176.1c-0.3,0.4-0.5,1-0.5,1.7
			c0,0.7,0.1,1.3,0.4,1.8c0.3,0.5,0.8,0.7,1.5,0.7c0.6,0,1.1-0.2,1.5-0.7c0.3-0.4,0.5-1,0.5-1.7v-0.1c0-0.7-0.2-1.3-0.5-1.8
			c-0.3-0.5-0.8-0.7-1.4-0.7C348.3,175.4,347.8,175.7,347.4,176.1z"/>
		<path style="fill:#878787;" d="M353.6,171.1c0.5,0,0.9,0.2,1.1,0.5c0.3,0.3,0.4,0.7,0.4,1.2v2.4c0,0.4,0.1,0.6,0.2,0.8
			c0.2,0.2,0.5,0.3,0.9,0.3v0.8c-0.4,0-0.7,0.1-0.9,0.3c-0.2,0.2-0.2,0.4-0.2,0.8v2.4c0,0.5-0.1,0.9-0.4,1.2
			c-0.3,0.3-0.7,0.5-1.1,0.5h-0.8v-0.8h0.7c0.5,0,0.8-0.3,0.8-0.9v-2.5c0-0.7,0.3-1.2,1-1.5c-0.7-0.3-1-0.7-1-1.5v-2.5
			c0-0.6-0.3-0.9-0.8-0.9h-0.7v-0.8H353.6z"/>
	</g>
</g>
</svg>
