<?xml version="1.0" encoding="UTF-8"?>
<svg width="32px" height="32px" viewBox="0 0 32 32" version="1.1" xmlns="http://www.w3.org/2000/svg" xmlns:xlink="http://www.w3.org/1999/xlink">
    <!-- Generator: Sketch 52.6 (67491) - http://www.bohemiancoding.com/sketch -->
    <title>云智大数据可视化-32px</title>
    <desc>Created with Sketch.</desc>
    <g id="云智大数据可视化-32px" stroke="none" stroke-width="1" fill="none" fill-rule="evenodd">
        <rect id="Rectangle-Copy" fill="#444444" opacity="0" x="0" y="0" width="32" height="32"></rect>
        <g id="image-4-01" transform="translate(0.000000, 3.000000)" fill="#00A4FF" fill-rule="nonzero">
            <path d="M29,26 C28.2897779,25.9957131 27.6351046,25.6150891 27.28,25 L2,25 L2,8 L4,8 L4,23 L27.28,23 C27.7660656,22.1581503 28.7870648,21.7877158 29.6998631,22.1220358 C30.6126615,22.4563558 31.1528813,23.3985996 30.9802345,24.3552416 C30.8075876,25.3118835 29.9720785,26.0058471 29,26 Z M19,10 L24,10 L24,19 L25,19 L25,21 L6,21 L6,19 L7,19 L7,14 L12,14 L12,19 L13,19 L13,7 L18,7 L18,19 L19,19 L19,10 Z M21,19 L22,19 L22,12 L21,12 L21,19 Z M10,16 L9,16 L9,19 L10,19 L10,16 Z M15,9 L15,19 L16,19 L16,9 L15,9 Z M28,3 L4.72,3 C4.26739432,3.78393603 3.34467813,4.16613759 2.4703111,3.93185165 C1.59594407,3.69756571 0.987949192,2.90521136 0.987949192,2 C0.987949192,1.09478864 1.59594407,0.302434286 2.4703111,0.0681483474 C3.34467813,-0.166137592 4.26739432,0.216063969 4.72,1 L30,1 L30,18 L28,18 L28,3 Z" id="Shape"></path>
        </g>
    </g>
</svg>