<svg xmlns="http://www.w3.org/2000/svg" xmlns:xlink="http://www.w3.org/1999/xlink" width="830" height="241" viewBox="0 0 830 241">
  <defs>
    <clipPath id="a">
      <path d="M398.206,115.6,406,120.1v9l-7.794,4.5-7.794-4.5v-9Zm0,2.309-5.794,3.345v6.691l5.794,3.345L404,127.945v-6.691Zm1,5.691v5h-2v-5h-1.772l-1.228-2h6.919l1.081,2Zm-10-11c5.627,0,10-1.822,10-3s-4.373-3-10-3-10,1.822-10,3S383.578,112.6,389.206,112.6Zm12,2.732-2-1.155v-1.812c-2.15,1.347-5.826,2.235-10,2.235s-7.85-.888-10-2.235V118.6c0,1.107,3.863,2.783,9,2.981v2a19.09,19.09,0,0,1-9-2.218V127.6c0,1.107,3.863,2.783,9,2.981v2c-6.16-.212-11-2.362-11-4.983v-18c0-2.762,5.372-5,12-5s12,2.238,12,5Z" style="fill: none"/>
    </clipPath>
    <clipPath id="b">
      <rect x="375.206" y="102.6" width="32" height="32" style="fill: none"/>
    </clipPath>
  </defs>
  <title>HTAP混合场景</title>
  <g>
    <rect x="347.1" y="96" width="137.9" height="50" style="fill: #bbb;opacity: 0.600000023841858;isolation: isolate"/>
    <rect x="345" y="94.1" width="137.9" height="50" style="fill: #fff;stroke: #e5e5e5"/>
    <g>
      <g style="isolation: isolate">
        <path d="M423.336,113.5v.994h-3.529V123.5h-1.135v-9.007h-3.53V113.5Z" style="fill: #444"/>
        <path d="M429.047,113.5a3.389,3.389,0,0,1,2.213.672,2.284,2.284,0,0,1,.8,1.848,2.431,2.431,0,0,1-.448,1.457,2.656,2.656,0,0,1-1.219.8,2.5,2.5,0,0,1,1.526.813,2.378,2.378,0,0,1,.561,1.625,2.481,2.481,0,0,1-1.037,2.184,4.324,4.324,0,0,1-2.423.6h-4.44v-10Zm-3.32,4.37h3.04a2.577,2.577,0,0,0,1.6-.435,1.583,1.583,0,0,0,.56-1.3,1.489,1.489,0,0,0-.547-1.261,2.586,2.586,0,0,0-1.6-.406h-3.054Zm0,4.664h3.194a3.182,3.182,0,0,0,1.666-.392,1.6,1.6,0,0,0,.744-1.443,1.665,1.665,0,0,0-.645-1.429,2.892,2.892,0,0,0-1.765-.448h-3.194Z" style="fill: #444"/>
        <path d="M439.365,116.87a2.884,2.884,0,0,1,.644,1.975V123.5h-1.05v-1.219a3.373,3.373,0,0,1-1.107.967,3.679,3.679,0,0,1-1.807.448,2.61,2.61,0,0,1-1.737-.547,1.825,1.825,0,0,1-.672-1.456,2.043,2.043,0,0,1,.994-1.863,4.63,4.63,0,0,1,2.522-.616l1.737-.029V118.8c0-1.218-.631-1.821-1.891-1.821a2.313,2.313,0,0,0-1.3.322,1.582,1.582,0,0,0-.729,1.037l-1.106-.085a2.484,2.484,0,0,1,1.121-1.694,3.838,3.838,0,0,1,2.087-.5A2.964,2.964,0,0,1,439.365,116.87Zm-2.143,3.179c-1.625.029-2.437.561-2.437,1.612a1,1,0,0,0,.406.826,1.776,1.776,0,0,0,1.093.322,2.735,2.735,0,0,0,1.82-.672,1.932,1.932,0,0,0,.785-1.5v-.616Z" style="fill: #444"/>
        <path d="M447.275,118.313h-1.092a1.543,1.543,0,0,0-.56-.98,2.247,2.247,0,0,0-1.331-.337,2.043,2.043,0,0,0-1.177.28.844.844,0,0,0-.462.757c0,.308.2.574.616.784a10.9,10.9,0,0,0,1.5.477,6.678,6.678,0,0,1,1.863.671,1.684,1.684,0,0,1,.869,1.486c0,1.484-1.023,2.241-3.068,2.241-1.905,0-2.942-.841-3.11-2.508h1.093a1.883,1.883,0,0,0,.6,1.234,2.364,2.364,0,0,0,1.387.336c1.288,0,1.947-.421,1.947-1.233a1.044,1.044,0,0,0-.686-.939,10.625,10.625,0,0,0-1.541-.462,6.184,6.184,0,0,1-1.793-.645,1.547,1.547,0,0,1-.827-1.414,1.657,1.657,0,0,1,.813-1.457,3.342,3.342,0,0,1,1.988-.547C446.1,116.057,447.08,116.8,447.275,118.313Z" style="fill: #444"/>
        <path d="M454.429,117.234a5.009,5.009,0,0,1,.841,2.956h-5.716a3.131,3.131,0,0,0,.658,1.891,2.056,2.056,0,0,0,1.625.673,2.25,2.25,0,0,0,1.444-.449,2.544,2.544,0,0,0,.728-1.134h1.12a3.275,3.275,0,0,1-.98,1.709,3.373,3.373,0,0,1-2.312.812,3.244,3.244,0,0,1-2.493-1.022,4.495,4.495,0,0,1-.042-5.478,3.043,3.043,0,0,1,2.493-1.135A3.09,3.09,0,0,1,454.429,117.234Zm-4.16.393a2.785,2.785,0,0,0-.686,1.7h4.524c-.14-1.556-.91-2.326-2.283-2.326A2.027,2.027,0,0,0,450.269,117.627Z" style="fill: #444"/>
      </g>
      <g style="clip-path: url(#a)">
        <g style="clip-path: url(#b)">
          <rect x="372.206" y="99.6" width="38.794" height="39" style="fill: #00a4ff"/>
        </g>
      </g>
    </g>
  </g>
  <g>
    <line x1="615.035" y1="120.05" x2="484.535" y2="120.05" style="fill: none;stroke: #888;stroke-miterlimit: 10"/>
    <polygon points="614.535 124.55 620.535 120.15 614.535 115.55 614.535 124.55" style="fill: #888"/>
  </g>
  <g>
    <line x1="340.035" y1="120.05" x2="209.535" y2="120.05" style="fill: none;stroke: #888;stroke-miterlimit: 10"/>
    <polygon points="339.535 124.55 345.535 120.15 339.535 115.55 339.535 124.55" style="fill: #888"/>
  </g>
  <g>
    <path d="M30.535,2.5v235h179V2.5Z" style="fill: none;stroke: #bababa;stroke-dasharray: 5"/>
    <g>
      <rect x="53.635" y="109.4" width="135.2" height="48.1" style="fill: #bbb;opacity: 0.600000023841858;isolation: isolate"/>
      <rect x="51.535" y="107.5" width="135.2" height="48.1" style="fill: #fff;stroke: #e5e5e5"/>
      <g style="isolation: isolate">
        <path d="M84.181,126.677a3.522,3.522,0,0,1,1.345,2.382H84.419a2.555,2.555,0,0,0-1.064-1.68,3.392,3.392,0,0,0-1.989-.561,3.2,3.2,0,0,0-2.69,1.219,4.74,4.74,0,0,0-.883,3,4.6,4.6,0,0,0,.87,2.97,3.216,3.216,0,0,0,2.674,1.163,3.116,3.116,0,0,0,3.222-2.606h1.108a4.574,4.574,0,0,1-7.9,2.087,5.516,5.516,0,0,1-1.121-3.614,5.623,5.623,0,0,1,1.148-3.655,4.3,4.3,0,0,1,3.586-1.583A4.433,4.433,0,0,1,84.181,126.677Z" style="fill: #444"/>
        <path d="M88.686,125.992l3.726,8.53h.043l3.712-8.53H97.6v10H96.446v-7.956H96.4l-3.459,7.956H91.908l-3.46-7.956h-.042v7.956H87.257v-10Z" style="fill: #444"/>
        <path d="M107.519,127.3a6.164,6.164,0,0,1,0,7.395.4.4,0,0,0-.07.084c.392.5.77,1.037,1.149,1.583l-.757.658c-.392-.56-.77-1.093-1.148-1.6a4.829,4.829,0,0,1-2.732.77,4.46,4.46,0,0,1-3.543-1.5,6.141,6.141,0,0,1,0-7.382,4.939,4.939,0,0,1,7.1-.013Zm-6.261.713a5.3,5.3,0,0,0,0,5.982,3.317,3.317,0,0,0,2.7,1.177,3.56,3.56,0,0,0,2.087-.589c-.56-.714-1.12-1.372-1.68-1.961l.686-.658c.574.616,1.149,1.26,1.709,1.947a5.41,5.41,0,0,0-.1-5.94,3.711,3.711,0,0,0-5.407.042Z" style="fill: #444"/>
        <path d="M115.82,124.506l-4.958,12.887h-1.009l4.973-12.887Z" style="fill: #444"/>
        <path d="M124.46,126.677a3.529,3.529,0,0,1,1.344,2.382H124.7a2.56,2.56,0,0,0-1.065-1.68,3.386,3.386,0,0,0-1.988-.561,3.2,3.2,0,0,0-2.689,1.219,4.734,4.734,0,0,0-.883,3,4.6,4.6,0,0,0,.868,2.97,3.219,3.219,0,0,0,2.676,1.163,3.116,3.116,0,0,0,3.221-2.606h1.107a4.574,4.574,0,0,1-7.9,2.087,5.527,5.527,0,0,1-1.12-3.614,5.618,5.618,0,0,1,1.149-3.655,4.3,4.3,0,0,1,3.586-1.583A4.439,4.439,0,0,1,124.46,126.677Z" style="fill: #444"/>
        <path d="M128.516,125.8v6.317l3.628-3.362h1.484l-3.193,2.914,3.5,4.328h-1.443l-2.829-3.6-1.149,1.036v2.564H127.4V125.8Z" style="fill: #444"/>
        <path d="M140.25,129.367a2.889,2.889,0,0,1,.644,1.975v4.651h-1.051v-1.219a3.359,3.359,0,0,1-1.106.967,3.679,3.679,0,0,1-1.807.448,2.608,2.608,0,0,1-1.737-.547,1.825,1.825,0,0,1-.672-1.456,2.041,2.041,0,0,1,.994-1.863,4.63,4.63,0,0,1,2.522-.616l1.737-.029V131.3c0-1.218-.631-1.821-1.892-1.821a2.312,2.312,0,0,0-1.3.322,1.579,1.579,0,0,0-.729,1.038l-1.106-.085a2.484,2.484,0,0,1,1.121-1.695,3.838,3.838,0,0,1,2.087-.5A2.964,2.964,0,0,1,140.25,129.367Zm-2.143,3.18c-1.625.028-2.438.56-2.438,1.611a.993.993,0,0,0,.407.826,1.775,1.775,0,0,0,1.092.322,2.735,2.735,0,0,0,1.821-.672,1.935,1.935,0,0,0,.785-1.5v-.616Z" style="fill: #444"/>
        <path d="M146.914,125.992v.966h-1.247a.857.857,0,0,0-.687.238,1.11,1.11,0,0,0-.21.757v.8h2.045v.938H144.77v6.3h-1.12v-6.3h-1.821v-.938h1.821v-.827a2,2,0,0,1,.462-1.415,1.835,1.835,0,0,1,1.415-.517Z" style="fill: #444"/>
        <path d="M148.969,125.8v6.317l3.628-3.362h1.486l-3.195,2.914,3.5,4.328h-1.442l-2.83-3.6-1.149,1.036v2.564h-1.12V125.8Z" style="fill: #444"/>
        <path d="M160.7,129.367a2.889,2.889,0,0,1,.644,1.975v4.651H160.3v-1.219a3.359,3.359,0,0,1-1.106.967,3.68,3.68,0,0,1-1.808.448,2.605,2.605,0,0,1-1.736-.547,1.826,1.826,0,0,1-.673-1.456,2.04,2.04,0,0,1,1-1.863,4.626,4.626,0,0,1,2.521-.616l1.737-.029V131.3c0-1.218-.63-1.821-1.891-1.821a2.312,2.312,0,0,0-1.3.322,1.579,1.579,0,0,0-.729,1.038l-1.106-.085a2.482,2.482,0,0,1,1.12-1.695,3.838,3.838,0,0,1,2.087-.5A2.966,2.966,0,0,1,160.7,129.367Zm-2.144,3.18c-1.625.028-2.437.56-2.437,1.611a1,1,0,0,0,.406.826,1.776,1.776,0,0,0,1.093.322,2.735,2.735,0,0,0,1.821-.672,1.934,1.934,0,0,0,.784-1.5v-.616Z" style="fill: #444"/>
      </g>
    </g>
    <g>
      <rect x="53.635" y="169.4" width="135.2" height="48.1" style="fill: #bbb;opacity: 0.600000023841858;isolation: isolate"/>
      <rect x="51.535" y="167.5" width="135.2" height="48.1" style="fill: #fff;stroke: #e5e5e5"/>
      <g style="isolation: isolate">
        <path d="M87.482,185.781v-1.288H88.5v1.288h5.268v-1.288h1.022v1.288h2.368v.953H94.794v6.415h2.633v.939H84.863v-.939h2.619v-6.415H85.115v-.953Zm2.466,9.287a17.724,17.724,0,0,1-4.244,2.283l-.631-.812a18.023,18.023,0,0,0,4.16-2.115Zm3.824-6.808v-1.526H88.5v1.526Zm0,2.424V189.13H88.5v1.554Zm0,2.465v-1.6H88.5v1.6Zm3.445,3.348-.559.854a20.371,20.371,0,0,0-4.231-2.129l.5-.756A22.377,22.377,0,0,1,97.217,196.5Z" style="fill: #444"/>
        <path d="M102.617,184.884a18.724,18.724,0,0,1-1.233,2.985v9.553h-.994v-7.929a18.828,18.828,0,0,1-1.485,1.863l-.322-1.051a16.148,16.148,0,0,0,3.124-5.841Zm2.143,12.244a1.3,1.3,0,0,1-1.457-1.486v-5.658l-1.331.42v-1.023l1.331-.434v-3.109h1.009v2.787l2.087-.672v-3.418h1.009v3.095l3.067-.98a41.133,41.133,0,0,1-.2,5.379c-.14.616-.687.938-1.667.938h-.224l-.294-.98c.266.014.5.027.729.027.294,0,.475-.168.546-.5.055-.308.084-1.47.1-3.473l-2.058.644V194.3H106.4V189l-2.087.659V195.5c0,.434.224.658.7.658h4.4a.973.973,0,0,0,.784-.308,6.5,6.5,0,0,0,.294-2.185l.953.322a6.263,6.263,0,0,1-.49,2.675,1.706,1.706,0,0,1-1.373.463Z" style="fill: #444"/>
        <path d="M116.365,191.174c-.1.266-.2.518-.28.771h2.927v.826a5.645,5.645,0,0,1-1.554,2.4c.671.307,1.316.616,1.932.952l-.546.784a20.391,20.391,0,0,0-2.157-1.106,11.473,11.473,0,0,1-3.488,1.554l-.476-.84a12.617,12.617,0,0,0,2.955-1.148c-.616-.267-1.26-.533-1.947-.785.364-.616.687-1.191.967-1.751h-1.653v-.882h2.045c.126-.309.239-.6.336-.883Zm-.561-3.936v-2.675h.939v2.675h2.55v.883h-2.55v.154c.757.378,1.541.813,2.325,1.288l-.518.784q-1.051-.838-1.807-1.344v1.821H115.8v-2.661a6.567,6.567,0,0,1-2.507,2.871l-.49-.813a5.8,5.8,0,0,0,2.255-2.1h-1.989v-.883Zm-.784-.672-.728.336a12.908,12.908,0,0,0-.939-1.821l.8-.266A11.99,11.99,0,0,1,115.02,186.566Zm3.082,6.261h-2.409a10.544,10.544,0,0,1-.757,1.345c.561.2,1.093.392,1.6.6A5.439,5.439,0,0,0,118.1,192.827Zm1.036-7.718a9.329,9.329,0,0,1-1.078,1.807l-.715-.365a8.884,8.884,0,0,0,1.065-1.778Zm1.541,4.8a12.35,12.35,0,0,1-.826,1.722l-.631-.77a17.767,17.767,0,0,0,1.667-6.346l.981.169c-.084.714-.2,1.387-.308,2h3.7v.966h-.91a14.964,14.964,0,0,1-1.289,6,8.672,8.672,0,0,0,2.592,2.913l-.546.826a9.169,9.169,0,0,1-2.521-2.829,9.43,9.43,0,0,1-2.592,2.816l-.519-.841a8.249,8.249,0,0,0,2.592-2.913A19.416,19.416,0,0,1,120.679,189.914Zm.49-1.528a19.314,19.314,0,0,0,1.359,4.231,14.942,14.942,0,0,0,.9-4.959h-2.073Z" style="fill: #444"/>
        <path d="M127.241,197.267l-.21-.952a9.461,9.461,0,0,0,1.064.07c.351,0,.532-.211.532-.6v-3.432c-.559.21-1.106.406-1.652.574l-.252-.98a17.793,17.793,0,0,0,1.9-.574v-3.166h-1.68v-.967h1.68V184.59h.981v2.648h1.345v.967h-1.345v2.759q.672-.294,1.3-.63v1c-.434.223-.868.42-1.3.616v4.09c0,.812-.392,1.232-1.176,1.232Zm3.74.126-.784-.7a15.347,15.347,0,0,0,1.513-7.2v-4.384h7.381v3.4h-2.632v1.654h3v.91h-3V192.8h2.352v4.594h-.938v-.685h-3.8v.685h-.939V192.8h2.34v-1.723H132.62A16.322,16.322,0,0,1,130.981,197.393Zm1.709-8.881v.981c0,.224-.014.449-.014.673h2.8v-1.654Zm0-2.465V187.6h5.421v-1.555Zm5.183,9.764V193.7h-3.8v2.115Z" style="fill: #444"/>
        <path d="M143.833,190.334l-.687.686a13.918,13.918,0,0,0-2.339-2.1l.687-.659A17.629,17.629,0,0,1,143.833,190.334Zm.154,2.045a43.539,43.539,0,0,1-2.087,4.972l-.939-.42a38.661,38.661,0,0,0,2.157-4.888Zm.28-5.407-.686.686a16.834,16.834,0,0,0-2.522-2.171l.687-.658A20.364,20.364,0,0,1,144.267,186.972Zm4.594.365a8.681,8.681,0,0,0,.392-1.318h-3.376V190.1a15.661,15.661,0,0,1-1.6,7.285l-.757-.672A14.311,14.311,0,0,0,144.9,190.1v-4.986h8.4v.91h-3.095a9.591,9.591,0,0,1-.378,1.318h2.731v4.916h-2.325v3.964a.994.994,0,0,1-1.107,1.134h-1.176l-.21-.91a9.223,9.223,0,0,0,1.051.07c.307,0,.475-.182.475-.532v-3.726h-2.394v-4.916Zm-.742,6.106a10.868,10.868,0,0,1-1.513,3.222l-.813-.5a8.69,8.69,0,0,0,1.429-2.913Zm3.544-4.02v-1.289h-3.894v1.289Zm0,.756h-3.894v1.261h3.894Zm1.821,6.094-.855.378a21.138,21.138,0,0,0-1.485-3.18l.841-.294A20.415,20.415,0,0,1,153.484,196.273Z" style="fill: #444"/>
      </g>
    </g>
    <g style="isolation: isolate">
      <path d="M48.477,24.533a8.688,8.688,0,0,0,3.67-2.871H48a16.868,16.868,0,0,1-4.385,1.33l-.6-.9c3.054-.308,5.309-1.246,6.766-2.787l.868.476a9.985,9.985,0,0,1-1.079.952h3.839v.8c-1.99,3.306-5.687,5.015-11.122,5.141l-.407-.967a18.245,18.245,0,0,0,5.66-.812,15.055,15.055,0,0,0-1.485-1.709l.9-.42A18.662,18.662,0,0,1,48.477,24.533Zm-.1-10.043a10.541,10.541,0,0,1-.8.8H51.6v.8c-1.513,2.689-4.329,4.2-8.419,4.524l-.434-.91a15.874,15.874,0,0,0,3.39-.56,13.679,13.679,0,0,0-1.373-1.457l.882-.42a14.8,14.8,0,0,1,1.429,1.541,7.272,7.272,0,0,0,3.376-2.62h-4.09a13.377,13.377,0,0,1-3.88,1.471l-.588-.924a9.836,9.836,0,0,0,5.588-2.718Z" style="fill: #444"/>
      <path d="M58.233,19.841l-.687.686a13.878,13.878,0,0,0-2.339-2.1l.687-.658A17.557,17.557,0,0,1,58.233,19.841Zm.154,2.045A43.452,43.452,0,0,1,56.3,26.859l-.939-.42a38.594,38.594,0,0,0,2.157-4.889Zm.28-5.406-.687.685a16.827,16.827,0,0,0-2.521-2.171l.687-.658A20.44,20.44,0,0,1,58.667,16.48Zm4.594.364a8.766,8.766,0,0,0,.393-1.318H60.278V19.6a15.68,15.68,0,0,1-1.6,7.284l-.757-.672A14.306,14.306,0,0,0,59.3,19.6V14.616H67.7v.91h-3.1a9.591,9.591,0,0,1-.378,1.318H66.96V21.76H64.634v3.965a.994.994,0,0,1-1.107,1.134H62.351l-.21-.911a9.229,9.229,0,0,0,1.05.071c.309,0,.477-.183.477-.533V21.76h-2.4V16.844Zm-.742,6.106a10.856,10.856,0,0,1-1.513,3.222l-.812-.5a8.728,8.728,0,0,0,1.429-2.913Zm3.544-4.019V17.642H62.169v1.289Zm0,.756H62.169v1.26h3.894Zm1.821,6.093-.855.378a20.981,20.981,0,0,0-1.485-3.179l.841-.294A20.31,20.31,0,0,1,67.884,25.78Z" style="fill: #444"/>
      <path d="M74.53,14.2V25.332h1.989V14.2h1.023V25.332h4.2v.981H69.333v-.981h4.174V14.2ZM72.5,23.231l-.925.238A52.312,52.312,0,0,0,69.683,17l.855-.28A50.006,50.006,0,0,1,72.5,23.231ZM81.366,17a32.417,32.417,0,0,1-2.115,6.4l-.911-.322a30.247,30.247,0,0,0,2.129-6.332Z" style="fill: #444"/>
      <path d="M88.376,14.154a8.461,8.461,0,0,1-.532,1.065h6.107v.812a12.267,12.267,0,0,1-3.278,2.648,18.163,18.163,0,0,0,5.3,1.3l-.462.938a17.584,17.584,0,0,1-5.925-1.682A22.516,22.516,0,0,1,83.6,20.947L83.137,20a22.808,22.808,0,0,0,5.351-1.344A14.5,14.5,0,0,1,86.3,17.068a11.846,11.846,0,0,1-1.751,1.3l-.616-.812a7.606,7.606,0,0,0,3.417-3.544Zm1.331,6.093a9.672,9.672,0,0,1-.141,1.6H94.5c-.028,2.367-.238,3.782-.644,4.244a2.687,2.687,0,0,1-2.1.7c-.448,0-.994-.028-1.638-.056l-.252-.911,1.653.071c.84-.015,1.358-.2,1.582-.533a6.661,6.661,0,0,0,.379-2.605H89.328a5.777,5.777,0,0,1-.448,1.05c-.714,1.261-2.353,2.311-4.931,3.124l-.672-.826c2.3-.673,3.824-1.528,4.553-2.55a4.407,4.407,0,0,0,.434-.8H84.089v-.911h4.455a7.343,7.343,0,0,0,.168-1.6Zm2.8-4.076H87.157l-.182.225a13.26,13.26,0,0,0,2.591,1.764A12.553,12.553,0,0,0,92.508,16.171Z" style="fill: #444"/>
      <path d="M100.765,20.682c-.1.265-.2.517-.28.77h2.928v.826a5.65,5.65,0,0,1-1.556,2.4c.673.308,1.317.616,1.934.952l-.547.784a20.294,20.294,0,0,0-2.157-1.106A11.486,11.486,0,0,1,97.6,26.859l-.476-.84a12.686,12.686,0,0,0,2.956-1.149c-.617-.266-1.261-.533-1.948-.785.365-.616.687-1.19.967-1.751H97.445v-.882H99.49q.189-.462.337-.883Zm-.56-3.937V14.07h.938v2.675h2.549v.883h-2.549v.154c.756.378,1.541.813,2.325,1.288l-.518.785q-1.05-.84-1.807-1.345v1.821h-.938V17.67A6.564,6.564,0,0,1,97.7,20.541l-.49-.812a5.787,5.787,0,0,0,2.255-2.1H97.473v-.883Zm-.785-.672-.728.336a13.07,13.07,0,0,0-.939-1.821l.8-.266A11.99,11.99,0,0,1,99.42,16.073Zm3.082,6.261h-2.409a10.358,10.358,0,0,1-.757,1.345c.561.2,1.093.392,1.6.6A5.42,5.42,0,0,0,102.5,22.334Zm1.037-7.718a9.355,9.355,0,0,1-1.079,1.807l-.714-.364a8.911,8.911,0,0,0,1.064-1.779Zm1.54,4.805a12.311,12.311,0,0,1-.826,1.723l-.63-.771a17.776,17.776,0,0,0,1.667-6.346l.98.169c-.084.714-.2,1.387-.308,2h3.7v.966h-.91a14.981,14.981,0,0,1-1.29,6,8.662,8.662,0,0,0,2.592,2.913l-.546.827a9.2,9.2,0,0,1-2.522-2.83,9.4,9.4,0,0,1-2.591,2.816l-.518-.841a8.246,8.246,0,0,0,2.591-2.913A19.483,19.483,0,0,1,105.079,19.421Zm.49-1.527a19.322,19.322,0,0,0,1.359,4.23,14.961,14.961,0,0,0,.9-4.959h-2.074Z" style="fill: #444"/>
      <path d="M111.641,26.775l-.21-.953a9.486,9.486,0,0,0,1.065.071c.35,0,.532-.211.532-.6V21.859c-.56.209-1.107.406-1.653.574l-.252-.981a17.584,17.584,0,0,0,1.905-.574V17.712h-1.681v-.967h1.681V14.1h.98v2.647h1.345v.967h-1.345v2.76q.674-.294,1.3-.631v.995c-.434.224-.868.42-1.3.616v4.09c0,.813-.392,1.233-1.176,1.233Zm3.74.126-.784-.7A15.342,15.342,0,0,0,116.11,19V14.616h7.382v3.4h-2.634v1.653h3v.91h-3v1.724h2.353V26.9h-.938v-.686h-3.8V26.9h-.938V22.307h2.339V20.583H117.02A16.327,16.327,0,0,1,115.381,26.9Zm1.709-8.881V19c0,.225-.014.449-.014.673h2.8V18.02Zm0-2.465v1.554h5.421V15.555Zm5.183,9.763V23.2h-3.8v2.115Z" style="fill: #444"/>
    </g>
    <g>
      <rect x="52.285" y="47" width="137.9" height="50" style="fill: #bbb;opacity: 0.600000023841858;isolation: isolate"/>
      <rect x="50.185" y="45.1" width="137.9" height="50" style="fill: #fff;stroke: #e5e5e5"/>
      <g>
        <g style="isolation: isolate">
          <path d="M123.116,67.778v1.009h-6.723a24.506,24.506,0,0,1-3.376,5.518c2.521-.139,5.028-.378,7.536-.714q-.756-1.344-1.681-2.773l.813-.5a45.628,45.628,0,0,1,2.983,5.057l-.9.631c-.225-.491-.463-.981-.729-1.486-2.843.365-5.939.645-9.3.869l-.266-1.022a.97.97,0,0,0,.238-.1q1.346-1.008,3.558-5.476h-4.721V67.778ZM121.87,63.87v.98H111.9v-.98Z" style="fill: #444"/>
          <path d="M128.04,69.683c-.1.266-.2.518-.281.771h2.928v.826a5.648,5.648,0,0,1-1.555,2.395c.672.308,1.317.617,1.933.953l-.546.784a20.407,20.407,0,0,0-2.158-1.107,11.467,11.467,0,0,1-3.487,1.555l-.477-.84a12.625,12.625,0,0,0,2.956-1.148c-.616-.267-1.261-.533-1.947-.785.364-.617.686-1.191.967-1.751H124.72v-.882h2.045q.189-.463.336-.883Zm-.561-3.936V63.072h.939v2.675h2.549v.883h-2.549v.154c.756.378,1.541.812,2.325,1.288l-.518.784q-1.052-.838-1.807-1.345v1.822h-.939V66.672a6.567,6.567,0,0,1-2.507,2.871l-.491-.813a5.8,5.8,0,0,0,2.256-2.1h-1.989v-.883Zm-.784-.672-.729.336a12.978,12.978,0,0,0-.938-1.822l.8-.265A11.994,11.994,0,0,1,126.7,65.075Zm3.081,6.261h-2.409a10.406,10.406,0,0,1-.756,1.344c.56.2,1.092.393,1.6.6A5.434,5.434,0,0,0,129.776,71.336Zm1.037-7.718a9.249,9.249,0,0,1-1.079,1.806l-.714-.364a8.884,8.884,0,0,0,1.065-1.778Zm1.541,4.8a12.31,12.31,0,0,1-.827,1.723l-.63-.77a17.767,17.767,0,0,0,1.667-6.346l.98.169c-.084.714-.2,1.387-.308,2h3.7v.966h-.91a14.972,14.972,0,0,1-1.289,6,8.679,8.679,0,0,0,2.591,2.913l-.546.826a9.169,9.169,0,0,1-2.521-2.829,9.423,9.423,0,0,1-2.591,2.815l-.519-.841a8.22,8.22,0,0,0,2.591-2.913A19.391,19.391,0,0,1,132.354,68.422Zm.49-1.527a19.261,19.261,0,0,0,1.359,4.231,14.993,14.993,0,0,0,.9-4.959h-2.073Z" style="fill: #444"/>
          <path d="M138.916,75.776l-.21-.952a9.461,9.461,0,0,0,1.064.07c.35,0,.532-.211.532-.6V70.86c-.56.21-1.106.406-1.653.574l-.252-.98a17.972,17.972,0,0,0,1.905-.574V66.714h-1.68v-.967h1.68V63.1h.981v2.648h1.344v.967h-1.344v2.759q.672-.294,1.3-.631v1c-.434.223-.868.419-1.3.616v4.09c0,.812-.392,1.232-1.177,1.232Zm3.74.126-.785-.7a15.335,15.335,0,0,0,1.513-7.2V63.618h7.382v3.4h-2.633v1.653h3v.911h-3v1.723h2.353V75.9h-.939v-.686h-3.8V75.9h-.938V71.308h2.339V69.585h-2.858A16.339,16.339,0,0,1,142.656,75.9Zm1.709-8.881V68c0,.224-.014.449-.014.672h2.8V67.021Zm0-2.465v1.555h5.421V64.556Zm5.182,9.764V72.205h-3.8V74.32Z" style="fill: #444"/>
          <path d="M160,64.3h5.043v.981H154.667v3.193a17.986,17.986,0,0,1-1.415,7.424l-.827-.742a16.034,16.034,0,0,0,1.2-6.682V64.3H158.9a8.291,8.291,0,0,0-.729-1.163l1.121-.2A10.953,10.953,0,0,1,160,64.3Zm-.658,1.6c-.126.393-.252.757-.378,1.12h5.463V67.9h-5.813a17.334,17.334,0,0,1-1.261,2.4h2.62V68.6h1.008v1.7h3.124v.911h-3.124v1.569h4.188V73.7h-4.188v2.214h-1.008V73.7h-5.057v-.924h5.057V71.21h-3.67l-.211-.869a11.084,11.084,0,0,0,1.457-2.437h-2.115v-.883h2.48c.153-.433.308-.882.461-1.345Z" style="fill: #444"/>
        </g>
        <path d="M85.06,73.15h-.6c-5.5,0-10-1.3-10-3v-6.3c2.2,1.4,5.8,2.3,10,2.3s7.9-.9,10-2.2v4.5a11.919,11.919,0,0,1,2,.8v-8.1c0-2.8-5.4-5-12-5s-12,2.2-12,5v18h2v-6.2c2,1.3,5.3,2.1,9.2,2.2a10.627,10.627,0,0,1,1.1-.9A1.8,1.8,0,0,1,85.06,73.15Zm-.6-15c5.5,0,10,1.3,10,3s-4.5,3-10,3-10-1.4-10-3C74.46,59.45,78.96,58.15,84.46,58.15Zm-10,21h-2c0,2.5,4.4,4.6,10.2,4.9a19.987,19.987,0,0,1-1-2.1C77.56,81.65,74.46,80.55,74.46,79.15Zm23-3h0a5,5,0,1,0-10-.1v.1a4.163,4.163,0,0,0-2.9,4.9,3.967,3.967,0,0,0,3.9,3h8a4.012,4.012,0,0,0,4-4A4.142,4.142,0,0,0,97.46,76.15Zm-1,6h-8a2.006,2.006,0,0,1-2-2,1.927,1.927,0,0,1,1.5-1.9l1.5-.4v-1.8a2.989,2.989,0,0,1,3-2.9,3.058,3.058,0,0,1,3,2.9v1.8l1.5.4a1.927,1.927,0,0,1,1.5,1.9A2.074,2.074,0,0,1,96.46,82.15Z" style="fill: #00a4ff"/>
      </g>
    </g>
  </g>
  <g>
    <path d="M620.535,2.5v235h179V2.5Z" style="fill: none;stroke: #bababa;stroke-dasharray: 5"/>
    <g>
      <rect x="643.635" y="49.4" width="135.2" height="48.1" style="fill: #bbb;opacity: 0.600000023841858;isolation: isolate"/>
      <rect x="641.535" y="47.5" width="135.2" height="48.1" style="fill: #fff;stroke: #e5e5e5"/>
      <g style="isolation: isolate">
        <path d="M673.438,68.233a20.967,20.967,0,0,0,.182-2.536V64.563h1.037v.91a21.407,21.407,0,0,1-.183,2.76h5.814v.981h-5.519a12.588,12.588,0,0,0,5.785,7.311l-.631.813a13.272,13.272,0,0,1-5.8-7.34,11.082,11.082,0,0,1-5.786,7.437l-.63-.84a10.078,10.078,0,0,0,5.561-7.381h-5.281v-.981Z" style="fill: #444"/>
        <path d="M685.365,71.174c-.1.266-.2.518-.28.771h2.927v.826a5.645,5.645,0,0,1-1.554,2.4c.671.307,1.316.616,1.932.952l-.546.784a20.391,20.391,0,0,0-2.157-1.106,11.473,11.473,0,0,1-3.488,1.554l-.476-.84a12.617,12.617,0,0,0,2.955-1.148c-.616-.267-1.26-.533-1.947-.785.364-.616.687-1.191.967-1.751h-1.653v-.882h2.045c.126-.309.239-.6.336-.883Zm-.561-3.936V64.563h.939v2.675h2.55v.883h-2.55v.154c.757.378,1.541.813,2.325,1.288l-.518.784Q686.5,69.509,685.743,69v1.821H684.8V68.163a6.567,6.567,0,0,1-2.507,2.871l-.49-.813a5.8,5.8,0,0,0,2.255-2.1h-1.989v-.883Zm-.784-.672-.728.336a12.908,12.908,0,0,0-.939-1.821l.8-.266A11.99,11.99,0,0,1,684.02,66.566Zm3.082,6.261h-2.409a10.544,10.544,0,0,1-.757,1.345c.561.2,1.093.392,1.6.6A5.439,5.439,0,0,0,687.1,72.827Zm1.036-7.718a9.329,9.329,0,0,1-1.078,1.807l-.715-.365a8.884,8.884,0,0,0,1.065-1.778Zm1.541,4.805a12.35,12.35,0,0,1-.826,1.722l-.631-.77a17.767,17.767,0,0,0,1.667-6.346l.981.169c-.084.714-.2,1.387-.308,2h3.7v.966h-.91a14.964,14.964,0,0,1-1.289,6,8.672,8.672,0,0,0,2.592,2.913l-.546.826a9.169,9.169,0,0,1-2.521-2.829,9.43,9.43,0,0,1-2.592,2.816l-.519-.841a8.249,8.249,0,0,0,2.592-2.913A19.416,19.416,0,0,1,689.679,69.914Zm.49-1.528a19.314,19.314,0,0,0,1.359,4.231,14.942,14.942,0,0,0,.9-4.959h-2.073Z" style="fill: #444"/>
        <path d="M696.241,77.267l-.21-.952a9.461,9.461,0,0,0,1.064.07c.351,0,.532-.211.532-.6V72.351c-.559.21-1.106.406-1.652.574l-.252-.98a17.793,17.793,0,0,0,1.9-.574V68.205h-1.68v-.967h1.68V64.59h.981v2.648h1.345v.967h-1.345v2.759q.672-.294,1.3-.63v.995c-.434.223-.868.42-1.3.616v4.09c0,.812-.392,1.232-1.176,1.232Zm3.74.126-.784-.7a15.347,15.347,0,0,0,1.513-7.2V65.109h7.381v3.4h-2.632v1.654h3v.91h-3V72.8h2.352v4.594h-.938v-.685h-3.8v.685h-.939V72.8h2.34V71.076H701.62A16.322,16.322,0,0,1,699.981,77.393Zm1.709-8.881v.981c0,.224-.014.449-.014.673h2.8V68.512Zm0-2.465V67.6h5.421V66.047Zm5.183,9.764V73.7h-3.8v2.115Z" style="fill: #444"/>
        <path d="M717.329,65.8h5.043v.98h-10.38v3.193a17.984,17.984,0,0,1-1.414,7.424l-.827-.742a16.066,16.066,0,0,0,1.205-6.682V65.8h5.266a8.154,8.154,0,0,0-.728-1.164l1.121-.2A11.105,11.105,0,0,1,717.329,65.8Zm-.659,1.6c-.126.393-.252.757-.377,1.12h5.462V69.4h-5.813a17.348,17.348,0,0,1-1.261,2.4h2.62V70.1h1.008v1.7h3.124v.91h-3.124V74.27H722.5v.924h-4.189v2.214H717.3V75.194h-5.056V74.27H717.3V72.7h-3.67l-.211-.868a11.038,11.038,0,0,0,1.457-2.438h-2.115v-.883h2.48q.231-.65.462-1.344Z" style="fill: #444"/>
        <path d="M735.811,65.179v.981H730.6v5.3h5.743v.966H730.6V77.38h-1.036V72.421h-5.631v-.966h5.631v-5.3h-5.07v-.981Zm-8.1,5.084-.938.463a25.527,25.527,0,0,0-1.514-3.208l.94-.462A32.773,32.773,0,0,1,727.715,70.263Zm7.354-2.842A17.448,17.448,0,0,1,733.4,70.67l-.9-.462a18.381,18.381,0,0,0,1.639-3.222Z" style="fill: #444"/>
        <path d="M738.269,69.172q1.848-.631,4.58-4.652l1.037.351a21.543,21.543,0,0,1-3.8,4.259c2.69-.113,5.239-.3,7.648-.519A25.908,25.908,0,0,0,746.1,66.5l.911-.435a35.807,35.807,0,0,1,3.362,4.651l-.981.476c-.35-.588-.7-1.135-1.036-1.667q-4.434.4-9.89.6Zm10.548,8.236h-1.023v-.7h-7.312v.7H739.46V71.566h9.357Zm-1.023-1.667V72.533h-7.312v3.208Z" style="fill: #444"/>
      </g>
    </g>
    <g>
      <rect x="643.635" y="109.4" width="135.2" height="48.1" style="fill: #bbb;opacity: 0.600000023841858;isolation: isolate"/>
      <rect x="641.535" y="107.5" width="135.2" height="48.1" style="fill: #fff;stroke: #e5e5e5"/>
      <g style="isolation: isolate">
        <path d="M687.129,124.689v11.136h1.99V124.689h1.022v11.136h4.2v.98h-12.41v-.98h4.174V124.689Zm-2.03,9.034-.925.239a52.434,52.434,0,0,0-1.891-6.472l.854-.28A49.827,49.827,0,0,1,685.1,133.723Zm8.866-6.233a32.3,32.3,0,0,1-2.115,6.4l-.91-.321a30.325,30.325,0,0,0,2.129-6.332Z" style="fill: #444"/>
        <path d="M700.976,124.647a8.6,8.6,0,0,1-.532,1.065h6.106v.812a12.266,12.266,0,0,1-3.277,2.648,18.163,18.163,0,0,0,5.295,1.3l-.462.939a17.62,17.62,0,0,1-5.926-1.682,22.594,22.594,0,0,1-5.981,1.709l-.462-.952a22.784,22.784,0,0,0,5.35-1.345,14.419,14.419,0,0,1-2.184-1.583,11.851,11.851,0,0,1-1.751,1.3l-.616-.813a7.6,7.6,0,0,0,3.417-3.544Zm1.33,6.093a9.686,9.686,0,0,1-.139,1.6h4.93c-.028,2.367-.238,3.782-.644,4.244a2.688,2.688,0,0,1-2.1.7c-.448,0-.994-.028-1.639-.057l-.252-.91,1.654.07c.84-.014,1.358-.2,1.582-.532a6.665,6.665,0,0,0,.379-2.605h-4.147a5.739,5.739,0,0,1-.448,1.049c-.715,1.261-2.354,2.312-4.931,3.125l-.673-.827c2.3-.673,3.825-1.527,4.553-2.549a4.475,4.475,0,0,0,.435-.8h-4.175v-.911h4.455a7.413,7.413,0,0,0,.168-1.6Zm2.8-4.076h-5.351l-.182.224a13.2,13.2,0,0,0,2.592,1.765A12.6,12.6,0,0,0,705.108,126.664Z" style="fill: #444"/>
        <path d="M717.245,125.893h5.127v.981h-10.38V130a17.612,17.612,0,0,1-1.443,7.4l-.826-.742A15.7,15.7,0,0,0,710.956,130v-4.1h5.2a9.456,9.456,0,0,0-.756-1.261l1.106-.2A10.83,10.83,0,0,1,717.245,125.893Zm.854,9.918a40.041,40.041,0,0,0,2.27-7.383l.994.267a41.974,41.974,0,0,1-2.171,7.116h2.956v.981h-9.89v-.981Zm-2.8-1.556-.952.239a39.011,39.011,0,0,0-1.442-5.1l.882-.28A40.88,40.88,0,0,1,715.3,134.255Zm2.5-.826-.967.225a43.777,43.777,0,0,0-1.219-5.253l.883-.28A53.271,53.271,0,0,1,717.792,133.429Z" style="fill: #444"/>
        <path d="M724.494,137.267l-.771-.686a8.137,8.137,0,0,0,1.387-4.748v-6.724h10.435V135.6a1.3,1.3,0,0,1-1.47,1.471h-1.612l-.265-.994c.559.028,1.078.055,1.554.055.5,0,.771-.293.771-.881v-2.438h-3.811v4.105h-1.036v-4.105h-3.614A8.365,8.365,0,0,1,724.494,137.267Zm1.624-11.178v2.41h3.558v-2.41Zm0,5.8h3.558v-2.451h-3.558Zm8.4-5.8h-3.811v2.41h3.811Zm0,3.348h-3.811v2.451h3.811Z" style="fill: #444"/>
      </g>
    </g>
    <g>
      <rect x="643.635" y="169.4" width="135.2" height="48.1" style="fill: #bbb;opacity: 0.600000023841858;isolation: isolate"/>
      <rect x="641.535" y="167.5" width="135.2" height="48.1" style="fill: #fff;stroke: #e5e5e5"/>
      <g style="isolation: isolate">
        <path d="M689.315,185.7h5.631v.98H691.92a14.7,14.7,0,0,1-.812,1.7h3.109v7.564c0,.924-.42,1.387-1.232,1.387h-1.429l-.252-.925,1.359.042c.391,0,.588-.252.588-.728v-6.444H684.2V197.3h-.966v-8.923h2.955a12.406,12.406,0,0,0-.742-1.7h-2.914v-.98h5.7a11.751,11.751,0,0,0-.518-1.107l1.107-.181C688.993,184.8,689.161,185.221,689.315,185.7ZM688,190.152a11.653,11.653,0,0,1-2.969,2.521l-.645-.84a10.872,10.872,0,0,0,2.9-2.312Zm3.334,2.087v3.445h-5.2v-3.445Zm-1.317-3.866c.294-.561.561-1.12.8-1.7h-4.244a16.47,16.47,0,0,1,.673,1.7Zm.35,4.776H687.1v1.639h3.264ZM693,191.917l-.756.742a17.548,17.548,0,0,0-2.83-2.507l.686-.645A21.331,21.331,0,0,1,693,191.917Z" style="fill: #444"/>
        <path d="M701.732,184.689v11.136h1.989V184.689h1.023v11.136h4.2v.98H696.535v-.98h4.175V184.689Zm-2.031,9.034-.925.239a52.434,52.434,0,0,0-1.891-6.472l.855-.28A49.988,49.988,0,0,1,699.7,193.723Zm8.867-6.233a32.429,32.429,0,0,1-2.115,6.4l-.911-.321a30.267,30.267,0,0,0,2.129-6.332Z" style="fill: #444"/>
        <path d="M715.536,184.884a16.1,16.1,0,0,1-1.877,3.307v9.231H712.65v-8a20.858,20.858,0,0,1-2.059,1.961l-.322-1.05a15.292,15.292,0,0,0,4.328-5.883Zm2.843,12.286a1.31,1.31,0,0,1-1.47-1.486v-4.271c-.589.336-1.191.643-1.808.938l-.448-.953c.785-.364,1.541-.742,2.256-1.162v-5.617h1.008v5a19.925,19.925,0,0,0,3.866-3.349l.7.8a22.753,22.753,0,0,1-4.567,3.74v4.735c0,.434.224.658.7.658h2.268a.969.969,0,0,0,.813-.35,7.219,7.219,0,0,0,.308-2.424l.939.309a7.621,7.621,0,0,1-.5,2.927,1.638,1.638,0,0,1-1.388.5Z" style="fill: #444"/>
        <path d="M729.213,185.992a3.387,3.387,0,0,1,2.213.672,2.281,2.281,0,0,1,.8,1.848,2.431,2.431,0,0,1-.448,1.457,2.65,2.65,0,0,1-1.219.8,2.5,2.5,0,0,1,1.527.813,2.378,2.378,0,0,1,.56,1.625,2.481,2.481,0,0,1-1.036,2.184,4.328,4.328,0,0,1-2.424.6h-4.44v-10Zm-3.319,4.37h3.039a2.575,2.575,0,0,0,1.6-.435,1.583,1.583,0,0,0,.56-1.3,1.488,1.488,0,0,0-.546-1.261,2.586,2.586,0,0,0-1.6-.406h-3.054Zm0,4.664h3.193a3.185,3.185,0,0,0,1.667-.392,1.6,1.6,0,0,0,.743-1.443,1.663,1.663,0,0,0-.645-1.429,2.89,2.89,0,0,0-1.765-.448h-3.193Z" style="fill: #444"/>
        <path d="M735.442,185.992v10h-1.135v-10Z" style="fill: #444"/>
      </g>
    </g>
    <g style="isolation: isolate">
      <path d="M638.645,15.4h5.127v.98h-10.38v3.124a17.621,17.621,0,0,1-1.443,7.4l-.826-.743a15.665,15.665,0,0,0,1.232-6.653V15.4h5.2a9.33,9.33,0,0,0-.756-1.261l1.107-.2A10.9,10.9,0,0,1,638.645,15.4Zm.855,9.917a40.058,40.058,0,0,0,2.269-7.382l.994.266a41.974,41.974,0,0,1-2.171,7.116h2.956V26.3h-9.89v-.981Zm-2.8-1.555-.952.238a39.169,39.169,0,0,0-1.443-5.1l.882-.28A40.723,40.723,0,0,1,636.7,23.763Zm2.493-.826-.966.224a43.586,43.586,0,0,0-1.219-5.253l.883-.28A52.7,52.7,0,0,1,639.191,22.937Z" style="fill: #444"/>
      <path d="M645.894,26.775l-.771-.687a8.137,8.137,0,0,0,1.387-4.748V14.616h10.435V25.108a1.3,1.3,0,0,1-1.47,1.47h-1.611l-.266-.994c.56.028,1.078.056,1.554.056.5,0,.771-.294.771-.882V22.32h-3.81v4.105h-1.037V22.32h-3.614A8.368,8.368,0,0,1,645.894,26.775ZM647.518,15.6v2.409h3.558V15.6Zm0,5.8h3.558V18.944h-3.558Zm8.4-5.8h-3.81v2.409h3.81Zm0,3.347h-3.81V21.4h3.81Z" style="fill: #444"/>
      <path d="M660.286,15.667v-.995h8.348v.658c-.266,1.219-.532,2.27-.784,3.153h2.829v.587a9.293,9.293,0,0,1-2.647,4.847,18.911,18.911,0,0,0,3.74,2.115l-.659.9a17.6,17.6,0,0,1-3.865-2.325,15.107,15.107,0,0,1-4.567,2.38l-.588-.938a15.611,15.611,0,0,0,4.328-2.157,11.85,11.85,0,0,1-2.9-4.146,11.025,11.025,0,0,1-3.6,7.116l-.77-.687q3.488-2.878,3.544-9.217V15.667Zm9.342,3.726h-3.039a33.383,33.383,0,0,0,.938-3.726h-3.8v1.288c0,.225-.014.435-.014.658a10.381,10.381,0,0,0,3.474,5.632A8.286,8.286,0,0,0,669.628,19.393Z" style="fill: #444"/>
      <path d="M676.765,20.682c-.1.265-.2.517-.28.77h2.928v.826a5.65,5.65,0,0,1-1.556,2.4c.673.308,1.317.616,1.934.952l-.547.784a20.294,20.294,0,0,0-2.157-1.106,11.486,11.486,0,0,1-3.488,1.555l-.476-.84a12.686,12.686,0,0,0,2.956-1.149c-.617-.266-1.261-.533-1.948-.785.365-.616.687-1.19.967-1.751h-1.653v-.882h2.045q.189-.462.337-.883Zm-.56-3.937V14.07h.938v2.675h2.549v.883h-2.549v.154c.756.378,1.541.813,2.325,1.288l-.518.785q-1.05-.84-1.807-1.345v1.821h-.938V17.67a6.564,6.564,0,0,1-2.508,2.871l-.49-.812a5.787,5.787,0,0,0,2.255-2.1h-1.989v-.883Zm-.785-.672-.728.336a13.07,13.07,0,0,0-.939-1.821l.8-.266A11.99,11.99,0,0,1,675.42,16.073Zm3.082,6.261h-2.409a10.358,10.358,0,0,1-.757,1.345c.561.2,1.093.392,1.6.6A5.42,5.42,0,0,0,678.5,22.334Zm1.037-7.718a9.355,9.355,0,0,1-1.079,1.807l-.714-.364a8.911,8.911,0,0,0,1.064-1.779Zm1.54,4.805a12.311,12.311,0,0,1-.826,1.723l-.63-.771a17.776,17.776,0,0,0,1.667-6.346l.98.169c-.084.714-.2,1.387-.308,2h3.7v.966h-.91a14.981,14.981,0,0,1-1.29,6,8.662,8.662,0,0,0,2.592,2.913l-.546.827a9.2,9.2,0,0,1-2.522-2.83,9.4,9.4,0,0,1-2.591,2.816l-.518-.841a8.246,8.246,0,0,0,2.591-2.913A19.483,19.483,0,0,1,681.079,19.421Zm.49-1.527a19.322,19.322,0,0,0,1.359,4.23,14.961,14.961,0,0,0,.9-4.959h-2.074Z" style="fill: #444"/>
      <path d="M687.641,26.775l-.21-.953a9.486,9.486,0,0,0,1.065.071c.35,0,.532-.211.532-.6V21.859c-.56.209-1.107.406-1.653.574l-.252-.981a17.584,17.584,0,0,0,1.9-.574V17.712h-1.681v-.967h1.681V14.1h.98v2.647h1.345v.967h-1.345v2.76q.673-.294,1.3-.631v.995c-.434.224-.868.42-1.3.616v4.09c0,.813-.392,1.233-1.176,1.233Zm3.74.126-.784-.7A15.342,15.342,0,0,0,692.11,19V14.616h7.382v3.4h-2.634v1.653h3v.91h-3v1.724h2.353V26.9h-.938v-.686h-3.8V26.9h-.938V22.307h2.339V20.583H693.02A16.327,16.327,0,0,1,691.381,26.9Zm1.709-8.881V19c0,.225-.014.449-.014.673h2.8V18.02Zm0-2.465v1.554h5.421V15.555Zm5.183,9.763V23.2h-3.8v2.115Z" style="fill: #444"/>
      <path d="M706.474,14.882A16.857,16.857,0,0,1,704.5,17.74a14.052,14.052,0,0,1-2.8,2.4l-.546-.882a10.107,10.107,0,0,0,2.591-2.144,14.748,14.748,0,0,0,1.849-2.759Zm-3.25,5.716v-.967h8.362a42.515,42.515,0,0,1-.266,4.244,4.942,4.942,0,0,1-.686,2.241,1.93,1.93,0,0,1-1.513.673h-2.549l-.28-1q1.218.042,2.311.042a1.425,1.425,0,0,0,1.485-.966,16.58,16.58,0,0,0,.476-4.272h-3.488a10.666,10.666,0,0,1-1.4,3.641,9.565,9.565,0,0,1-3.221,2.7l-.644-.84a9.3,9.3,0,0,0,2.927-2.312,8.625,8.625,0,0,0,1.317-3.193Zm10.66-1.318-.673.8a11.164,11.164,0,0,1-4.538-5.421l.869-.49A9.894,9.894,0,0,0,713.884,19.28Z" style="fill: #444"/>
      <path d="M718.4,26.859h-1V19.7a15.818,15.818,0,0,1-1.891,3.88l-.434-1.093a12.728,12.728,0,0,0,2.269-4.72h-1.989V16.8h2.045V14.056h1V16.8h1.891v.966H718.4v.757c.658.686,1.33,1.457,2.017,2.325l-.546.8a24.166,24.166,0,0,0-1.471-2.073Zm9.035-11.85a18.445,18.445,0,0,1-5.337,1.008v2.521h5.687v.967H725.7v7.368H724.69V19.505H722.1v.154a12.381,12.381,0,0,1-2.129,7.13l-.715-.743a11.076,11.076,0,0,0,1.863-6.387v-4.5a17.8,17.8,0,0,0,5.813-1.05Z" style="fill: #444"/>
      <path d="M741.211,14.687v.98H736v5.3h5.743v.966H736v4.959h-1.037V21.928h-5.631v-.966h5.631V15.667h-5.07v-.98Zm-8.1,5.084-.938.463a25.536,25.536,0,0,0-1.513-3.208l.939-.462A32.664,32.664,0,0,1,733.115,19.771Zm7.354-2.843a17.387,17.387,0,0,1-1.667,3.249l-.9-.462a18.408,18.408,0,0,0,1.638-3.222Z" style="fill: #444"/>
      <path d="M743.669,18.679q1.85-.631,4.581-4.652l1.036.351a21.514,21.514,0,0,1-3.8,4.259c2.69-.112,5.239-.3,7.648-.519A26.3,26.3,0,0,0,751.5,16l.91-.435a35.781,35.781,0,0,1,3.362,4.651l-.98.476c-.351-.587-.7-1.134-1.037-1.667q-4.434.4-9.89.6Zm10.548,8.236h-1.023v-.7h-7.312v.7H744.86V21.073h9.357Zm-1.023-1.667V22.04h-7.312v3.208Z" style="fill: #444"/>
    </g>
  </g>
  <g style="isolation: isolate">
    <path d="M272.467,99.436v.852h-5.085v2.866h4.8v.851h-4.8v3.143h5.289V108H266.4V99.436Z" style="fill: #878787"/>
    <path d="M280.4,99.436v.852h-3.023V108H276.4v-7.712h-3.022v-.852Z" style="fill: #878787"/>
    <path d="M282.441,99.436v7.712H287.4V108H281.47V99.436Z" style="fill: #878787"/>
  </g>
</svg>
