<?xml version="1.0" encoding="utf-8"?>
<!-- Generator: Adobe Illustrator 21.0.0, SVG Export Plug-In . SVG Version: 6.00 Build 0)  -->
<svg version="1.1" id="图层_1" xmlns="http://www.w3.org/2000/svg" xmlns:xlink="http://www.w3.org/1999/xlink" x="0px" y="0px"
	 width="830px" height="640px" viewBox="0 0 830 640" style="enable-background:new 0 0 830 640;" xml:space="preserve">
<style type="text/css">
	.st0{display:none;fill:none;stroke:#999999;}
	.st1{fill-opacity:0;}
	.st2{fill:none;stroke:#BABABA;stroke-dasharray:5;}
	.st3{enable-background:new    ;}
	.st4{fill:#444444;}
	.st5{fill:none;stroke:#888888;}
	.st6{fill:#888888;}
	.st7{fill:none;stroke:#FF0000;stroke-width:15;stroke-opacity:0;}
	.st8{opacity:0.6;fill:#BBBBBB;enable-background:new    ;}
	.st9{fill:#FFFFFF;stroke:#E5E5E5;}
	.st10{fill:#00A4FF;}
	.st11{fill:#CEE3FF;fill-opacity:0;}
	.st12{fill:#878787;}
</style>
<path class="st0" d="M67,414.5L52,402"/>
<g id="bottomgroup" transform="translate(0,0)">
	<g id="DashRectGroup2" transform="translate(6.5,7)">
		<rect x="155.5" class="st1" width="506" height="337"/>
		<path class="st2" d="M155.5,0h506v337h-506V0"/>
		<g transform="translate(10 10)">
			<g class="st3">
				<path class="st4" d="M158.7,10.4c-0.6,1.8-1.1,3.4-1.8,4.8l-0.9-0.4c0.7-1.5,1.3-3.1,1.8-4.8L158.7,10.4z M156.8,6.3
					c0.8,0.7,1.5,1.3,2.1,1.9l-0.7,0.7c-0.5-0.7-1.2-1.3-2-2L156.8,6.3z M156.9,2.8c0.8,0.6,1.4,1.2,2,1.8l-0.7,0.7
					c-0.5-0.6-1.1-1.2-2-1.9L156.9,2.8z M160.1,5.7H159v-1h2c-0.1-0.7-0.3-1.4-0.6-2.1l1-0.2c0.2,0.7,0.4,1.4,0.6,2.3h1.6v1h-2.5v1
					c0,0.3,0,0.6,0,1.1h2.3c0,3.2-0.1,5.2-0.2,6c-0.1,0.9-0.5,1.3-1.3,1.3l-1-0.1l-0.2-0.9c0.6,0,1,0,1.1,0c0.3,0,0.4-0.3,0.5-0.8
					s0.2-2.1,0.2-4.7H161c-0.2,2.9-0.8,5.1-1.9,6.6l-0.7-0.7c1.1-1.7,1.7-4.3,1.7-8V5.7z M165.1,5.5c-0.4,0.9-0.8,1.7-1.3,2.3
					L163.1,7c0.9-1.1,1.5-2.6,1.8-4.5l1,0.2c-0.1,0.6-0.3,1.2-0.4,1.9h3.5v1L165.1,5.5L165.1,5.5z M164.7,7h3.8v0.9
					c-0.5,0.6-1,1.1-1.5,1.7v0.9h1.9v0.9H167v2.5c0,0.9-0.4,1.3-1.1,1.3h-1.2l-0.2-0.9c0.4,0,0.8,0,1.1,0s0.4-0.3,0.4-0.8v-2.2h-2.1
					v-0.9h2.1v-1c0.6-0.6,1-1.1,1.3-1.5h-2.7L164.7,7L164.7,7z"/>
				<path class="st4" d="M171.3,6.2c0.8,0.9,1.6,1.8,2.2,2.6c0.4-1.2,0.7-2.5,0.9-3.9h-3.7v-1h4.7v0.9c-0.1,1.8-0.5,3.5-1.1,4.9
					c0.6,0.8,1.2,1.7,1.7,2.4l-0.7,0.7c-0.4-0.7-0.9-1.5-1.4-2.1c-0.8,1.4-1.8,2.7-3.1,3.7l-0.6-0.8c1.3-1.1,2.3-2.4,3-3.8
					c-0.8-1.1-1.7-2-2.5-2.9L171.3,6.2z M182.3,5.9l0.2,1l-3.8,0.6c0,0.6,0.1,1.2,0.2,1.8c0.1,0.6,0.2,1.2,0.4,1.8
					c0.8-0.9,1.4-1.9,2-3.1l0.8,0.5c-0.8,1.4-1.6,2.6-2.5,3.6c0.1,0.3,0.2,0.6,0.3,0.8c0.4,0.8,0.8,1.2,1.2,1.2
					c0.2-0.1,0.5-0.9,0.7-2.5l0.9,0.6c-0.2,0.8-0.4,1.5-0.6,2c-0.3,0.7-0.6,1-0.9,1c-0.6,0-1.1-0.4-1.7-1.3
					c-0.2-0.4-0.4-0.7-0.6-1.1c-0.9,0.8-1.9,1.5-2.9,1.9l-0.6-0.8c1.2-0.5,2.2-1.2,3.2-2c-0.2-0.6-0.4-1.2-0.5-1.8
					c-0.2-0.6-0.3-1.4-0.4-2.4L175.9,8l-0.2-1l1.8-0.3c-0.1-1.3-0.2-2.6-0.2-4h1c0,1.4,0,2.7,0.1,3.9L182.3,5.9z M180.2,3
					c0.7,0.7,1.2,1.3,1.5,1.8l-0.8,0.6c-0.4-0.6-0.9-1.2-1.5-1.9L180.2,3z"/>
				<path class="st4" d="M193.5,15.1c-0.5,0-1.3,0-2.5,0c-0.9,0-1.6-0.1-2.2-0.3c-0.6-0.2-1-0.5-1.5-1c-0.2-0.2-0.4-0.3-0.5-0.3
					c-0.3,0-0.9,0.6-1.7,1.9l-0.8-0.7c0.8-1.2,1.4-1.9,2-2.1V8.3h-2V7.4h2.9v5.2c0.1,0.1,0.2,0.2,0.3,0.3c0.3,0.4,0.7,0.7,1.1,0.9
					c0.4,0.2,1.1,0.3,1.9,0.3c1,0,1.9,0,2.7,0c0.4,0,1.1,0,2,0c0.8,0,1.3,0,1.6-0.1l-0.2,1h-3.1V15.1z M185.3,2.8
					c1,0.8,1.8,1.5,2.4,2.2L187,5.7c-0.6-0.7-1.3-1.4-2.3-2.2L185.3,2.8z M188.3,6.5h8.3v0.9h-4.4c-0.8,2-1.5,3.4-2.1,4.2
					c1.9-0.2,3.5-0.4,4.7-0.7c-0.3-0.7-0.7-1.4-1.1-2.2l0.8-0.3c0.7,1.2,1.4,2.7,2,4.4l-0.9,0.2c-0.1-0.3-0.3-0.7-0.5-1.3
					c-1.5,0.3-3.6,0.6-6.2,0.8l-0.3-0.9c0.6-0.2,1.4-1.6,2.5-4.3h-2.8V6.5z M189.2,3.1h6.3V4h-6.3V3.1z"/>
				<path class="st4" d="M198.5,3.5h3.1V2.6h1v0.9h3.7V2.6h1v0.9h3.1v0.9h-3.1v0.8h-1V4.4h-3.7v0.8h-1V4.4h-3.1V3.5z M210.1,5.8v2.6
					h-1V6.7h-9.3v1.8h-1V5.8H210.1z M209.3,11.5v3.9h-1v-0.6h-7.6v0.6h-1v-3.9H209.3z M200.7,14h7.6v-1.7h-7.6V14z M201,7.7h7v2.8
					h-7V7.7z M207.1,9.7V8.5H202v1.3h5.1V9.7z"/>
				<path class="st4" d="M214.8,12.7c-0.5,1-1.2,1.9-1.8,2.6l-0.8-0.6c0.7-0.7,1.3-1.5,1.8-2.5L214.8,12.7z M213.3,2.6h1v1.6h2.7
					V2.6h1v1.5h0.8V5H218v6h0.9v1h-6.6v-1h1V5.1h-0.9V4.2h0.9L213.3,2.6L213.3,2.6z M217,5.1h-2.7v1.4h2.7V5.1z M214.2,8.8h2.7V7.4
					h-2.7V8.8z M214.2,11h2.7V9.7h-2.7V11z M216.7,12.3c0.6,0.8,1.1,1.5,1.5,2.2c0.9-1.3,1.4-2.9,1.4-4.9V3.1h4.6V14
					c0,0.9-0.4,1.3-1.2,1.3h-1.5l-0.3-1c0.7,0,1.2,0.1,1.4,0.1c0.4,0,0.5-0.2,0.5-0.7v-2.8h-2.7c-0.2,1.8-0.8,3.4-1.7,4.6l-0.8-0.7
					c0,0,0,0,0.1-0.1l-0.7,0.5c-0.4-0.7-0.9-1.5-1.5-2.3L216.7,12.3z M220.6,7.4v2.3v0.2h2.7V7.4H220.6z M223.3,6.5V4h-2.6v2.5
					H223.3z"/>
			</g>
		</g>
	</g>
	<g id="DashRectGroup11" transform="translate(6.5,363)">
		<rect x="155.5" class="st1" width="506" height="233"/>
		<path class="st2" d="M155.5,0h506v233h-506V0"/>
		<g transform="translate(10 10)">
			<g class="st3">
				<path class="st4" d="M158.7,10.4c-0.6,1.8-1.1,3.4-1.8,4.8l-0.9-0.4c0.7-1.5,1.3-3.1,1.8-4.8L158.7,10.4z M156.8,6.3
					c0.8,0.7,1.5,1.3,2.1,1.9l-0.7,0.7c-0.5-0.7-1.2-1.3-2-2L156.8,6.3z M156.9,2.8c0.8,0.6,1.4,1.2,2,1.8l-0.7,0.7
					c-0.5-0.6-1.1-1.2-2-1.9L156.9,2.8z M160.1,5.7H159v-1h2c-0.1-0.7-0.3-1.4-0.6-2.1l1-0.2c0.2,0.7,0.4,1.4,0.6,2.3h1.6v1h-2.5v1
					c0,0.3,0,0.6,0,1.1h2.3c0,3.2-0.1,5.2-0.2,6c-0.1,0.9-0.5,1.3-1.3,1.3l-1-0.1l-0.2-0.9c0.6,0,1,0,1.1,0c0.3,0,0.4-0.3,0.5-0.8
					s0.2-2.1,0.2-4.7H161c-0.2,2.9-0.8,5.1-1.9,6.6l-0.7-0.7c1.1-1.7,1.7-4.3,1.7-8V5.7z M165.1,5.5c-0.4,0.9-0.8,1.7-1.3,2.3
					L163.1,7c0.9-1.1,1.5-2.6,1.8-4.5l1,0.2c-0.1,0.6-0.3,1.2-0.4,1.9h3.5v1L165.1,5.5L165.1,5.5z M164.7,7h3.8v0.9
					c-0.5,0.6-1,1.1-1.5,1.7v0.9h1.9v0.9H167v2.5c0,0.9-0.4,1.3-1.1,1.3h-1.2l-0.2-0.9c0.4,0,0.8,0,1.1,0s0.4-0.3,0.4-0.8v-2.2h-2.1
					v-0.9h2.1v-1c0.6-0.6,1-1.1,1.3-1.5h-2.7L164.7,7L164.7,7z"/>
				<path class="st4" d="M171.3,6.2c0.8,0.9,1.6,1.8,2.2,2.6c0.4-1.2,0.7-2.5,0.9-3.9h-3.7v-1h4.7v0.9c-0.1,1.8-0.5,3.5-1.1,4.9
					c0.6,0.8,1.2,1.7,1.7,2.4l-0.7,0.7c-0.4-0.7-0.9-1.5-1.4-2.1c-0.8,1.4-1.8,2.7-3.1,3.7l-0.6-0.8c1.3-1.1,2.3-2.4,3-3.8
					c-0.8-1.1-1.7-2-2.5-2.9L171.3,6.2z M182.3,5.9l0.2,1l-3.8,0.6c0,0.6,0.1,1.2,0.2,1.8c0.1,0.6,0.2,1.2,0.4,1.8
					c0.8-0.9,1.4-1.9,2-3.1l0.8,0.5c-0.8,1.4-1.6,2.6-2.5,3.6c0.1,0.3,0.2,0.6,0.3,0.8c0.4,0.8,0.8,1.2,1.2,1.2
					c0.2-0.1,0.5-0.9,0.7-2.5l0.9,0.6c-0.2,0.8-0.4,1.5-0.6,2c-0.3,0.7-0.6,1-0.9,1c-0.6,0-1.1-0.4-1.7-1.3
					c-0.2-0.4-0.4-0.7-0.6-1.1c-0.9,0.8-1.9,1.5-2.9,1.9l-0.6-0.8c1.2-0.5,2.2-1.2,3.2-2c-0.2-0.6-0.4-1.2-0.5-1.8
					c-0.2-0.6-0.3-1.4-0.4-2.4L175.9,8l-0.2-1l1.8-0.3c-0.1-1.3-0.2-2.6-0.2-4h1c0,1.4,0,2.7,0.1,3.9L182.3,5.9z M180.2,3
					c0.7,0.7,1.2,1.3,1.5,1.8l-0.8,0.6c-0.4-0.6-0.9-1.2-1.5-1.9L180.2,3z"/>
				<path class="st4" d="M193.5,15.1c-0.5,0-1.3,0-2.5,0c-0.9,0-1.6-0.1-2.2-0.3c-0.6-0.2-1-0.5-1.5-1c-0.2-0.2-0.4-0.3-0.5-0.3
					c-0.3,0-0.9,0.6-1.7,1.9l-0.8-0.7c0.8-1.2,1.4-1.9,2-2.1V8.3h-2V7.4h2.9v5.2c0.1,0.1,0.2,0.2,0.3,0.3c0.3,0.4,0.7,0.7,1.1,0.9
					c0.4,0.2,1.1,0.3,1.9,0.3c1,0,1.9,0,2.7,0c0.4,0,1.1,0,2,0c0.8,0,1.3,0,1.6-0.1l-0.2,1h-3.1V15.1z M185.3,2.8
					c1,0.8,1.8,1.5,2.4,2.2L187,5.7c-0.6-0.7-1.3-1.4-2.3-2.2L185.3,2.8z M188.3,6.5h8.3v0.9h-4.4c-0.8,2-1.5,3.4-2.1,4.2
					c1.9-0.2,3.5-0.4,4.7-0.7c-0.3-0.7-0.7-1.4-1.1-2.2l0.8-0.3c0.7,1.2,1.4,2.7,2,4.4l-0.9,0.2c-0.1-0.3-0.3-0.7-0.5-1.3
					c-1.5,0.3-3.6,0.6-6.2,0.8l-0.3-0.9c0.6-0.2,1.4-1.6,2.5-4.3h-2.8V6.5z M189.2,3.1h6.3V4h-6.3V3.1z"/>
				<path class="st4" d="M198.5,3.5h3.1V2.6h1v0.9h3.7V2.6h1v0.9h3.1v0.9h-3.1v0.8h-1V4.4h-3.7v0.8h-1V4.4h-3.1V3.5z M210.1,5.8v2.6
					h-1V6.7h-9.3v1.8h-1V5.8H210.1z M209.3,11.5v3.9h-1v-0.6h-7.6v0.6h-1v-3.9H209.3z M200.7,14h7.6v-1.7h-7.6V14z M201,7.7h7v2.8
					h-7V7.7z M207.1,9.7V8.5H202v1.3h5.1V9.7z"/>
				<path class="st4" d="M214.8,12.7c-0.5,1-1.2,1.9-1.8,2.6l-0.8-0.6c0.7-0.7,1.3-1.5,1.8-2.5L214.8,12.7z M213.3,2.6h1v1.6h2.7
					V2.6h1v1.5h0.8V5H218v6h0.9v1h-6.6v-1h1V5.1h-0.9V4.2h0.9L213.3,2.6L213.3,2.6z M217,5.1h-2.7v1.4h2.7V5.1z M214.2,8.8h2.7V7.4
					h-2.7V8.8z M214.2,11h2.7V9.7h-2.7V11z M216.7,12.3c0.6,0.8,1.1,1.5,1.5,2.2c0.9-1.3,1.4-2.9,1.4-4.9V3.1h4.6V14
					c0,0.9-0.4,1.3-1.2,1.3h-1.5l-0.3-1c0.7,0,1.2,0.1,1.4,0.1c0.4,0,0.5-0.2,0.5-0.7v-2.8h-2.7c-0.2,1.8-0.8,3.4-1.7,4.6l-0.8-0.7
					c0,0,0,0,0.1-0.1l-0.7,0.5c-0.4-0.7-0.9-1.5-1.5-2.3L216.7,12.3z M220.6,7.4v2.3v0.2h2.7V7.4H220.6z M223.3,6.5V4h-2.6v2.5
					H223.3z"/>
			</g>
		</g>
	</g>
</g>
<g id="middlegroup" transform="translate(0,0)">
	<g id="Link38" transform="translate(0,0)">
		<path class="st5" d="M415,66.5v23"/>
		<g transform="translate(0, 0.5)">
			<polygon class="st6" points="410.5,84.5 415,90.5 419.5,84.5 			"/>
		</g>
		<path class="st7" d="M415,66.5v23"/>
	</g>
	<g id="Link39" transform="translate(0,0)">
		<path class="st5" d="M415,144.5v25"/>
		<g transform="translate(0, 0.5)">
			<polygon class="st6" points="410.5,164.5 415,170.5 419.5,164.5 			"/>
		</g>
		<path class="st7" d="M415,144.5v25"/>
	</g>
	<g id="Link41" transform="translate(0,0)">
		<path class="st5" d="M415,224.5v41"/>
		<g transform="translate(0, 0.5)">
			<polygon class="st6" points="410.5,260.5 415,266.5 419.5,260.5 			"/>
		</g>
		<path class="st7" d="M415,224.5v41"/>
	</g>
	<g id="Link42" transform="translate(0,0)">
		<path class="st5" d="M415,320.5v54"/>
		<g transform="translate(0, 0.5)">
			<polygon class="st6" points="410.5,369.5 415,375.5 419.5,369.5 			"/>
		</g>
		<path class="st7" d="M415,320.5v54"/>
	</g>
	<g id="Link21" transform="translate(0,0)">
		<path class="st5" d="M415,429.5v29"/>
		<g transform="translate(0, 0.5)">
			<polygon class="st6" points="410.5,453.5 415,459.5 419.5,453.5 			"/>
		</g>
		<path class="st7" d="M415,429.5v29"/>
	</g>
	<g id="Link35" transform="translate(0,0)">
		<path class="st5" d="M415,510.5v26"/>
		<g transform="translate(0, 0.5)">
			<polygon class="st6" points="410.5,531.5 415,537.5 419.5,531.5 			"/>
		</g>
		<path class="st7" d="M415,510.5v26"/>
	</g>
</g>
<g id="maingroup" transform="translate(0,0)">
	<g id="RectEndPoint1" transform="translate(213.5,19)">
		<rect x="157.5" y="2" class="st8" width="92" height="48"/>
		<rect x="155.5" class="st9" width="92" height="48"/>
		<g transform="translate(31,11)">
			<g class="st3">
				<path class="st4" d="M157.1,10.4H168v1h-2.3v3.7h3.1v1h-3.1v6.2h-1v-6.2h-4c-0.1,1.4-0.4,2.6-0.8,3.6c-0.5,1.2-1.4,2.1-2.6,2.7
					l-0.5-0.9c1.1-0.6,1.9-1.5,2.4-2.6c0.3-0.8,0.5-1.8,0.6-2.9h-3.2v-1h3.3v-0.5v-3.2h-2.5v-0.9H157.1z M160.7,11.4v3.5v0.2h4v-3.7
					H160.7z"/>
				<path class="st4" d="M172.8,9.6c-0.1,1-0.2,1.8-0.4,2.6h2.1v0.6c-0.1,2.3-0.5,4.2-1.2,5.9c0.7,0.7,1.2,1.3,1.6,1.9l-0.7,0.8
					c-0.4-0.6-0.9-1.1-1.4-1.7c-0.6,1.1-1.3,2-2.1,2.8l-0.6-0.8c0.8-0.8,1.5-1.7,2-2.7c-0.5-0.5-1.1-1.1-1.8-1.8
					c0.3-1.2,0.6-2.5,0.9-3.9h-1.1v-1h1.3c0.1-0.9,0.3-1.8,0.4-2.7L172.8,9.6z M173.5,13.2h-1.3c-0.3,1.5-0.5,2.7-0.8,3.7
					c0.4,0.4,0.8,0.7,1.1,1.1C173.1,16.6,173.4,15,173.5,13.2z M175,14.3c0.8-0.4,1.8-2,3-4.7l1,0.3c-0.8,1.8-1.7,3.2-2.5,4.4
					c1.6-0.1,3.1-0.3,4.5-0.5c-0.4-0.8-0.8-1.5-1.2-2.1l0.9-0.4c0.8,1.3,1.5,2.6,2.2,4l-0.9,0.4c-0.3-0.6-0.4-1-0.5-1.1
					c-1.9,0.3-4,0.5-6.2,0.6L175,14.3z M181.9,16.5v6h-1v-0.8h-4.3v0.8h-1v-6H181.9z M176.6,20.6h4.3v-3.2h-4.3V20.6z"/>
			</g>
		</g>
	</g>
	<g id="RectEndPoint13" transform="translate(173.09375,379.5)">
		<rect x="157.5" y="2" class="st8" width="172.8" height="50"/>
		<rect x="155.5" class="st9" width="172.8" height="50"/>
		<g transform="translate(20,9)">
			<g class="st3">
				<path class="st4" d="M158,11.5h-1.8v-0.9h4.5v0.9H159v3.2h1.5v0.9H159v3.2c0.5-0.2,1.1-0.4,1.8-0.7v1c-1.3,0.6-2.8,1.2-4.4,1.7
					l-0.3-1c0.8-0.2,1.4-0.4,1.9-0.6v-3.5h-1.6v-0.9h1.6V11.5z M162.8,15.3H161v-1h7.5v1h-2v5.3c0,0.4,0.2,0.6,0.5,0.6h0.4
					c0.2,0,0.3-0.1,0.4-0.2c0.1-0.1,0.2-0.8,0.3-2l0.9,0.3c-0.1,1.4-0.2,2.2-0.4,2.4c-0.2,0.2-0.5,0.4-1,0.4h-0.9
					c-0.4,0-0.7-0.1-0.9-0.4c-0.2-0.2-0.3-0.6-0.3-0.9v-5.6h-1.7v1c0,2.7-1.3,4.8-3.6,6l-0.8-0.7c2.2-1.1,3.4-2.9,3.4-5.4
					L162.8,15.3L162.8,15.3z M161.5,10.4h6.6v1h-6.6V10.4z"/>
				<path class="st4" d="M177.8,17.2c0.2,0.7,0.4,1.4,0.4,2.2c0,1.1-0.1,1.9-0.4,2.3c-0.3,0.5-1.1,0.7-2.3,0.7H175l-0.3-0.9h0.7
					c0.8,0,1.3-0.1,1.6-0.4s0.4-0.9,0.4-1.8c0-0.3,0-0.5-0.1-0.7c-1.6,1.2-3.6,2.2-6.1,3l-0.5-0.9c2.8-0.8,5-1.9,6.5-3.1
					c-0.1-0.4-0.3-0.8-0.4-1c-1.3,1-3.1,1.9-5.4,2.5l-0.5-0.9c2.4-0.6,4.2-1.4,5.4-2.4c-0.1-0.2-0.3-0.5-0.6-0.7l-0.3,0.2
					c-1,0.4-2.2,0.9-3.8,1.3l-0.5-0.8c1.4-0.3,2.6-0.7,3.6-1.1c0.6-0.3,1.1-0.5,1.4-0.7h-3.7v-0.9h8.4V14h-3.2
					c-0.5,0.3-0.9,0.6-1.1,0.7c0.5,0.5,0.9,1.1,1.2,1.6c1.3-0.4,2.5-0.9,3.7-1.7l0.7,0.7c-0.8,0.5-1.6,0.9-2.4,1.2
					c0.7,1.8,1.7,3.2,3.2,4.2l-0.7,0.8c-1.5-1.3-2.6-2.8-3.3-4.7L177.8,17.2z M176.7,9.5c0.1,0.3,0.3,0.8,0.5,1.3h5.3v2.4h-1v-1.5
					h-9.8v1.5h-1v-2.4h5.5c-0.1-0.4-0.3-0.8-0.5-1.1L176.7,9.5z"/>
				<path class="st4" d="M184,9.5h1l5,12.9h-1L184,9.5z"/>
				<path class="st4" d="M197,11.5h-4.9v-1H203v1h-4.9v9.3h5.5v1h-12.1v-1h5.6v-9.3H197z"/>
				<path class="st4" d="M206.8,14.5c-0.4,0.6-0.9,1.1-1.5,1.7l-0.3-1.1c1.5-1.7,2.6-3.5,3.3-5.6l1,0.4c-0.4,1.1-0.8,2.1-1.4,3.1
					v9.4h-1v-7.9H206.8z M211.3,12.5c-0.6,1.3-1.4,2.5-2.2,3.5l-0.7-0.9c1.2-1.5,2.3-3.4,3-5.7l1,0.2c-0.2,0.7-0.5,1.3-0.7,1.8h6v1
					H213v2.3h4.1v1H213v2.4h4.2v1H213v3.3h-1v-9.9H211.3z"/>
				<path class="st4" d="M220.9,13.1h9.3V14h-5.8c-0.7,1-1.4,1.7-1.9,2.1c2.3-0.1,4.3-0.2,5.9-0.3c-0.3-0.3-0.8-0.7-1.2-1.1l0.6-0.6
					c1.1,0.9,2.1,1.9,2.9,2.8l-0.7,0.7c-0.2-0.3-0.5-0.7-0.9-1c-1.3,0.1-2.3,0.2-3.1,0.2v1.6h4.5v0.9H226v1.8h5.6v1h-12.2v-1h5.6
					v-1.8h-4.4v-0.9h4.4v-1.5c-0.9,0-2.3,0.1-4,0.2l-0.2-0.9l0.2-0.1c0.6-0.3,1.3-0.9,2.2-2.1h-2.3L220.9,13.1L220.9,13.1z
					 M225.4,9.4c0.2,0.4,0.4,0.9,0.7,1.4h5.2v2.7h-1v-1.8h-9.7v1.8h-1v-2.7h5.4c-0.2-0.4-0.4-0.9-0.7-1.2L225.4,9.4z"/>
				<path class="st4" d="M234.7,12.3c-0.3,0.6-0.5,1-0.9,1.4l-0.8-0.6c0.7-0.8,1.1-1.8,1.3-3.1l1,0.2c-0.1,0.5-0.2,0.9-0.3,1.2h1.6
					V9.6h1v1.7h2.6v0.9h-2.6V14h3v1h-3v1.5h2.7v3.7c0,0.8-0.4,1.2-1.3,1.2h-0.7l-0.3-1h0.7c0.4,0,0.6-0.2,0.6-0.5v-2.5h-1.8v5h-1v-5
					h-1.8v4.1h-1v-5h2.8V15h-3.4v-0.9h3.4v-1.8H234.7z M241.5,10.9h1v8.7h-1V10.9z M242,22.3l-0.2-1c0.7,0,1.4,0.1,1.9,0.1
					c0.4,0,0.6-0.2,0.6-0.7V9.6h1V21c0,0.9-0.4,1.3-1.3,1.3H242z"/>
				<path class="st4" d="M248.8,14.5c-0.4,0.6-0.9,1.1-1.5,1.7l-0.3-1.1c1.5-1.7,2.6-3.5,3.3-5.6l1,0.4c-0.4,1.1-0.8,2.1-1.4,3.1
					v9.4h-1v-7.9H248.8z M253.3,12.5c-0.6,1.3-1.4,2.5-2.2,3.5l-0.7-0.9c1.2-1.5,2.3-3.4,3-5.7l1,0.2c-0.2,0.7-0.5,1.3-0.7,1.8h6v1
					H255v2.3h4.1v1H255v2.4h4.2v1H255v3.3h-1v-9.9H253.3z"/>
				<path class="st4" d="M263.7,15.1c0.8,0.4,1.5,0.9,2.1,1.5c0.7-1.2,1.1-2.6,1.3-4.1h-2.8c-0.7,1.6-1.6,2.9-2.7,3.9l-0.7-0.9
					c1.6-1.5,2.7-3.5,3.2-6l1,0.2c-0.1,0.6-0.3,1.2-0.5,1.8h3.4v0.9c-0.5,4.2-2.5,7.5-6.2,9.6l-0.7-0.9c1.8-1,3.1-2.3,4.1-3.8
					c-0.7-0.6-1.5-1.1-2.2-1.5L263.7,15.1z M269.4,9.6h1v4.2c1.1,0.8,2.3,1.8,3.5,2.9l-0.6,0.9c-1.2-1.2-2.2-2.1-2.9-2.7v7.4h-1V9.6
					z"/>
				<path class="st4" d="M275.5,22.2l-0.2-1c0.4,0,0.8,0.1,1.1,0.1c0.3,0,0.5-0.2,0.5-0.5v-3.4l-1.5,0.5l-0.2-1
					c0.5-0.1,1.1-0.3,1.7-0.5v-3.3h-1.6v-1h1.6V9.6h1v2.6h1.6v1h-1.6v3c0.4-0.2,0.9-0.4,1.5-0.7v1c-0.5,0.3-1,0.5-1.5,0.7v4
					c0,0.8-0.4,1.2-1.2,1.2h-1.2V22.2z M280.2,17.6h2.9v-1.8h1v1.8h3v1h-3V21h3.7v1h-8.5v-1h3.8v-2.4h-2.9V17.6z M280.4,11.3h2.8
					V9.6h1v1.7h2.8v1h-2.8v2.1h3.5v1h-8v-1h3.5v-2.1h-2.8V11.3z"/>
			</g>
		</g>
	</g>
	<g id="RectEndPoint16" transform="translate(173.59375,462)">
		<rect x="157.5" y="2" class="st8" width="171.8" height="49"/>
		<rect x="155.5" class="st9" width="171.8" height="49"/>
		<g transform="translate(43.40625,9)">
			<g class="st3">
				<path class="st4" d="M158,13.7c-0.4,0.3-0.7,0.5-1.1,0.8l-0.6-0.8c1.8-1.1,3.2-2.5,4.3-4.2l1,0.2c-0.2,0.4-0.5,0.7-0.7,1h4.8
					v0.8c-0.6,0.7-1.2,1.4-1.7,1.8h3.4v4.2h-3.2v2.9c0,0.5,0.2,0.7,0.6,0.7h2.3c0.2,0,0.4-0.1,0.5-0.3c0.1-0.2,0.2-0.8,0.3-1.9
					l1,0.3c-0.1,1.4-0.3,2.2-0.5,2.5s-0.6,0.4-1.1,0.4h-2.7c-0.9,0-1.3-0.5-1.3-1.5v-3.1h-0.7c-0.1,0.2-0.2,0.4-0.3,0.8
					c-0.7,1.6-2.5,2.9-5.2,4l-0.6-0.8c2.4-0.9,4.1-2,4.8-3.4c0-0.1,0.1-0.3,0.3-0.6H158V13.7z M162.6,13.4c0.6-0.5,1.2-1.1,1.7-1.7
					H160c-0.5,0.6-1.1,1.2-1.8,1.7H162.6z M161.7,16.7c0.2-0.7,0.3-1.5,0.3-2.4h-3.1v2.4H161.7z M166.4,16.7v-2.4H163
					c0,0.9-0.1,1.7-0.3,2.4H166.4z"/>
				<path class="st4" d="M172.4,16.2h8.2v0.9c-0.6,1.1-1.6,2.1-2.9,2.9c1.4,0.6,3.1,1.1,5.1,1.6l-0.6,0.9c-2.2-0.5-4-1.1-5.5-1.9
					c-1.6,0.8-3.5,1.4-5.8,1.9l-0.5-1c2.1-0.4,3.9-0.9,5.3-1.5c-1.3-0.8-2.2-1.8-2.7-2.8h-0.6V16.2z M182.4,13.9v3.2h-1v-2.2h-9.7
					v2.2h-1v-3.2h8c0.6-0.8,1-1.7,1.4-2.6l1,0.4c-0.4,0.9-0.9,1.6-1.4,2.2C179.7,13.9,182.4,13.9,182.4,13.9z M182,10.5
					c-2.8,0.4-6.4,0.6-10.8,0.6l-0.3-0.9c4.3,0,7.8-0.2,10.6-0.6L182,10.5z M172.6,11.5c0.5,0.6,1,1.2,1.4,1.9l-0.9,0.4
					c-0.4-0.7-0.9-1.3-1.4-1.9L172.6,11.5z M174,17.1c0.6,0.9,1.5,1.7,2.7,2.4c1.2-0.7,2.1-1.4,2.8-2.4H174z M176,11.4
					c0.5,0.6,0.9,1.3,1.3,1.9l-0.9,0.5c-0.4-0.8-0.9-1.4-1.3-1.9L176,11.4z"/>
				<path class="st4" d="M186.7,15.1c0.8,0.4,1.5,0.9,2.1,1.5c0.7-1.2,1.1-2.6,1.3-4.1h-2.8c-0.7,1.6-1.6,2.9-2.7,3.9l-0.7-0.9
					c1.6-1.5,2.7-3.5,3.2-6l1,0.2c-0.1,0.6-0.3,1.2-0.5,1.8h3.4v0.9c-0.5,4.2-2.5,7.5-6.2,9.6l-0.7-0.9c1.8-1,3.1-2.3,4.1-3.8
					c-0.7-0.6-1.5-1.1-2.2-1.5L186.7,15.1z M192.4,9.6h1v4.2c1.1,0.8,2.3,1.8,3.5,2.9l-0.6,0.9c-1.2-1.2-2.2-2.1-2.9-2.7v7.4h-1V9.6
					z"/>
				<path class="st4" d="M198.5,22.2l-0.2-1c0.4,0,0.8,0.1,1.1,0.1s0.5-0.2,0.5-0.5v-3.4l-1.5,0.5l-0.2-1c0.5-0.1,1.1-0.3,1.7-0.5
					v-3.3h-1.6v-1h1.6V9.6h1v2.6h1.6v1h-1.6v3c0.4-0.2,0.9-0.4,1.5-0.7v1c-0.5,0.3-1,0.5-1.5,0.7v4c0,0.8-0.4,1.2-1.2,1.2h-1.2V22.2
					z M203.2,17.6h2.9v-1.8h1v1.8h3v1h-3V21h3.7v1h-8.5v-1h3.8v-2.4h-2.9V17.6z M203.4,11.3h2.8V9.6h1v1.7h2.8v1h-2.8v2.1h3.5v1h-8
					v-1h3.5v-2.1h-2.8V11.3z"/>
				<path class="st4" d="M214.1,19.8c-0.4,0.9-0.9,1.7-1.4,2.4l-0.7-0.5c0.5-0.6,1-1.4,1.3-2.2L214.1,19.8z M212.9,10h6v3.8h-2.7
					l0.2,0.9h3.2v0.8h-7.5v-0.8h3.3l-0.2-0.9h-2.3V10z M213.1,16.3h5.8V19h-2.4v2.3c0,0.7-0.3,1-1,1h-1l-0.2-0.9
					c0.4,0,0.7,0.1,0.9,0.1s0.4-0.1,0.4-0.4V19h-2.4v-2.7H213.1z M213.8,11.6h4.2v-0.9h-4.2V11.6z M218,13.1v-0.9h-4.2v0.9H218z
					 M217.9,18.3V17H214v1.3H217.9z M218,19.5c0.5,0.7,0.9,1.4,1.2,1.9l-0.7,0.5c-0.3-0.6-0.7-1.3-1.2-2L218,19.5z M225,17.5
					c-1.2,2.3-2.9,3.9-5.2,4.9l-0.4-0.9c2.1-0.9,3.7-2.4,4.8-4.5L225,17.5z M224.3,10.4c-1.1,1.1-2.5,2-4.1,2.7l-0.4-0.9
					c1.6-0.6,2.9-1.5,3.9-2.6L224.3,10.4z M224.6,14.1c-1.1,1.3-2.5,2.4-4.2,3.2l-0.4-0.9c1.6-0.8,2.9-1.8,4-3L224.6,14.1z"/>
				<path class="st4" d="M230.1,10.8V21h-1v-0.9h-1.5v1.2h-1V10.8H230.1z M227.6,19.2h1.5v-7.5h-1.5V19.2z M235.1,9.6
					c-0.1,0.7-0.3,1.3-0.4,1.8h3.8v9.3c0,1.1-0.4,1.6-1.3,1.6h-1.7l-0.3-1h1.6c0.4,0,0.7-0.3,0.7-0.9v-8.1H232v10h-1V11.4h2.6
					c0.2-0.6,0.3-1.3,0.4-1.9L235.1,9.6z M233.1,13.9h3.2v5.5h-3.2V13.9z M235.5,18.5v-3.8H234v3.8H235.5z"/>
			</g>
		</g>
	</g>
	<g id="RectEndPoint34" transform="translate(213.5,542)">
		<rect x="157.5" y="2" class="st8" width="92" height="48"/>
		<rect x="155.5" class="st9" width="92" height="48"/>
		<g transform="translate(31,11)">
			<g class="st3">
				<path class="st4" d="M159.6,9.9c-0.7,1.8-1.4,3.3-2.2,4.4c0.6-0.1,1.3-0.2,2-0.3l0.8-1.6l0.9,0.3c-1.3,2.4-2.3,4-3.2,5.1
					c1.1-0.2,2.1-0.5,3.1-0.8v0.9c-1.5,0.5-3,0.9-4.4,1l-0.3-0.9c0.2-0.1,0.3-0.2,0.5-0.3c0.5-0.5,1.2-1.5,2-2.8
					c-0.6,0.1-1.4,0.2-2.4,0.3l-0.3-0.9c0.2-0.1,0.3-0.2,0.4-0.4c0.8-1.3,1.5-2.8,2-4.4L159.6,9.9z M161.3,20.6
					c-1.4,0.5-3,0.9-4.9,1.3l-0.1-1c1.9-0.3,3.5-0.7,5-1.2V20.6z M161.1,11.3h3.3V9.6h1v1.7h3.3v1h-3.3v2.1h2.9v1h-6.8v-1h2.9v-2.1
					h-3.3L161.1,11.3L161.1,11.3z M168,16.7v5.6h-1v-0.7h-4v0.7h-1v-5.6H168z M163,20.7h4v-3.1h-4V20.7z"/>
				<path class="st4" d="M170.5,11h5.5V9.6h1V11h5.4v1H177v1.4h4.4v4h-3.6c1,1.4,2.7,2.7,5.1,3.8l-0.7,0.9c-2.5-1.4-4.2-2.9-5.2-4.7
					l0,0v5.1h-1v-5.1l0,0c-1.1,1.9-2.8,3.5-5.3,4.7l-0.6-0.9c2.3-1,4-2.2,5.1-3.8h-3.5v-4h4.4V12h-5.5L170.5,11L170.5,11z M176,16.4
					v-2.1h-3.4v2.1H176z M180.4,16.4v-2.1H177v2.1H180.4z"/>
			</g>
		</g>
	</g>
	<g id="RectEndPoint7" transform="translate(189.5,95)">
		<rect x="157.5" y="2" class="st8" width="140" height="50"/>
		<rect x="155.5" class="st9" width="140" height="50"/>
		<g transform="translate(20,9)">
			<g class="st3">
				<path class="st4" d="M158.7,17.4c-0.6,1.8-1.1,3.4-1.8,4.8l-0.9-0.4c0.7-1.5,1.3-3.1,1.8-4.8L158.7,17.4z M156.8,13.3
					c0.8,0.7,1.5,1.3,2.1,1.9l-0.7,0.7c-0.5-0.7-1.2-1.3-2-2L156.8,13.3z M156.9,9.8c0.8,0.6,1.4,1.2,2,1.8l-0.7,0.7
					c-0.5-0.6-1.1-1.2-2-1.9L156.9,9.8z M160.1,12.7H159v-1h2c-0.1-0.7-0.3-1.4-0.6-2.1l1-0.2c0.2,0.7,0.4,1.4,0.6,2.3h1.6v1h-2.5v1
					c0,0.3,0,0.6,0,1.1h2.3c0,3.2-0.1,5.2-0.2,6c-0.1,0.9-0.5,1.3-1.3,1.3l-1-0.1l-0.2-0.9c0.6,0,1,0,1.1,0c0.3,0,0.4-0.3,0.5-0.8
					s0.2-2.1,0.2-4.7H161c-0.2,2.9-0.8,5.1-1.9,6.6l-0.7-0.7c1.1-1.7,1.7-4.3,1.7-8V12.7z M165.1,12.5c-0.4,0.9-0.8,1.7-1.3,2.3
					l-0.6-0.8c0.9-1.1,1.5-2.6,1.8-4.5l1,0.2c-0.1,0.6-0.3,1.2-0.4,1.9h3.5v1L165.1,12.5L165.1,12.5z M164.7,14h3.8v0.9
					c-0.4,0.6-0.9,1.1-1.5,1.7v0.9h1.9v0.9H167v2.5c0,0.9-0.4,1.3-1.1,1.3h-1.2l-0.2-0.9c0.4,0,0.8,0,1.1,0s0.4-0.3,0.4-0.8v-2.2
					h-2.1v-0.9h2.1v-1c0.6-0.6,1-1.1,1.3-1.5h-2.7L164.7,14L164.7,14z"/>
				<path class="st4" d="M171.3,13.2c0.8,0.9,1.6,1.8,2.2,2.6c0.4-1.2,0.7-2.5,0.9-3.9h-3.7v-1h4.7v0.9c-0.1,1.8-0.5,3.5-1.1,4.9
					c0.6,0.8,1.2,1.7,1.7,2.4l-0.7,0.7c-0.4-0.7-0.9-1.5-1.4-2.1c-0.8,1.4-1.8,2.7-3.1,3.7l-0.6-0.8c1.3-1.1,2.3-2.4,3-3.8
					c-0.8-1.1-1.7-2-2.5-2.9L171.3,13.2z M182.3,12.9l0.2,1l-3.8,0.6c0,0.6,0.1,1.2,0.2,1.8c0.1,0.6,0.2,1.2,0.4,1.8
					c0.8-0.9,1.4-1.9,2-3.1l0.8,0.5c-0.8,1.4-1.6,2.6-2.5,3.6c0.1,0.3,0.2,0.6,0.3,0.8c0.4,0.8,0.8,1.2,1.2,1.2
					c0.2-0.1,0.5-0.9,0.7-2.5l0.9,0.6c-0.2,0.8-0.4,1.5-0.6,2c-0.3,0.7-0.6,1-0.9,1c-0.6,0-1.1-0.4-1.7-1.3
					c-0.2-0.4-0.4-0.7-0.6-1.1c-0.9,0.8-1.9,1.5-2.9,1.9l-0.6-0.8c1.2-0.5,2.2-1.2,3.2-2c-0.2-0.6-0.4-1.2-0.5-1.8
					c-0.2-0.6-0.3-1.4-0.4-2.4l-1.8,0.3l-0.2-1l1.8-0.3c-0.1-1.3-0.2-2.6-0.2-4h1c0,1.4,0,2.7,0.1,3.9L182.3,12.9z M180.2,10
					c0.7,0.7,1.2,1.3,1.5,1.8l-0.8,0.6c-0.4-0.6-0.9-1.2-1.5-1.9L180.2,10z"/>
				<path class="st4" d="M184.4,13.2h5.4c0.1-0.8,0.2-1.6,0.2-2.5V9.6h1v0.9c0,0.9-0.1,1.8-0.2,2.8h5.8v1h-5.5
					c1,3.2,2.9,5.6,5.8,7.3l-0.6,0.8c-2.8-1.7-4.8-4.2-5.8-7.3c-0.9,3.4-2.8,5.9-5.8,7.4l-0.6-0.8c3-1.5,4.8-3.9,5.6-7.4h-5.3
					L184.4,13.2L184.4,13.2z"/>
				<path class="st4" d="M201.6,9.7h1v3.7h0.9v1h-3.4v1.9h2.7v6h-1v-5H200c-0.2,2.1-0.6,3.7-1.2,4.8l-0.7-0.7c0.6-1.3,1-3.4,1-6.2
					V10h1v3.4h1.5V9.7z M205.1,14.6v1.5c-0.1,2.6-0.5,4.7-1.4,6.2l-0.7-0.7c0.7-1.3,1.1-3.1,1.1-5.5v-5.6c2.2,0,4.2-0.3,5.9-0.9
					l0.5,0.9c-1.7,0.5-3.5,0.8-5.5,0.8v2.2h5.2v0.9c-0.3,1.9-0.9,3.6-1.8,4.9c0.7,0.9,1.5,1.6,2.5,2.1l-0.5,0.9
					c-1.1-0.6-1.9-1.3-2.6-2.2c-0.8,0.9-1.7,1.6-2.8,2.2l-0.5-0.9c1-0.6,1.9-1.3,2.7-2.2c-0.8-1.3-1.4-2.9-1.7-4.8h-0.4V14.6z
					 M206.5,14.6c0.3,1.5,0.8,2.8,1.4,3.9c0.7-1.1,1.2-2.4,1.4-3.9H206.5z"/>
				<path class="st4" d="M212.5,12.1h5.5V9.6h1v2.5h5.5v1h-4.6c0.9,2.2,2.6,4.2,5,6l-0.7,0.9c-2.5-2-4.2-4.3-5.1-6.8H219v5.5h3v1h-3
					v2.9h-1v-2.9h-2.9v-1h2.9v-5.5h-0.1c-1,2.8-2.8,5.2-5.3,7l-0.6-0.9c2.3-1.6,4-3.6,5.1-6.1h-4.6L212.5,12.1L212.5,12.1z"/>
				<path class="st4" d="M226.5,10.1h12V11H233v1.2h4.3v5.5h-4.5c-0.2,0.9-0.4,1.7-0.8,2.2c2,0.8,4.3,1.3,7,1.4l-0.3,1
					c-2.8-0.1-5.2-0.6-7.4-1.6c-1,0.8-2.6,1.4-4.8,1.6l-0.4-0.9c2-0.2,3.4-0.6,4.3-1.2c-0.8-0.5-1.6-1-2.3-1.6l0.8-0.5
					c0.7,0.5,1.4,1,2.2,1.4c0.3-0.5,0.6-1.1,0.7-1.8h-4.1v-5.5h4.3V11h-5.5V10.1z M228.7,14.6h3.3v-1.5h-3.3V14.6z M232,16.9
					c0-0.3,0-0.7,0-1v-0.5h-3.3v1.5H232z M236.3,16.9v-1.5H233v0.5v1H236.3z M233,13.1v1.5h3.3v-1.5H233z"/>
				<path class="st4" d="M242.3,18.3c-0.4,1.4-0.9,2.6-1.5,3.7l-0.8-0.5c0.7-1,1.1-2.1,1.4-3.4L242.3,18.3z M240.2,14h1.6
					c-0.2-0.6-0.5-1.1-0.7-1.6l0.9-0.3c0.3,0.5,0.5,1.2,0.7,1.9h1.5c0.3-0.6,0.5-1.2,0.7-1.9l0.9,0.3c-0.2,0.6-0.5,1.2-0.7,1.6h1.6
					v0.9H244v1.6h2.5v0.9H244v3.9c0,0.8-0.4,1.2-1.2,1.2H242l-0.2-0.9c0.3,0,0.5,0.1,0.6,0.1c0.4,0,0.5-0.2,0.5-0.6v-3.7h-2.6v-0.9
					h2.6v-1.6h-2.8L240.2,14L240.2,14z M240.4,10.8h2.7c-0.2-0.5-0.5-0.9-0.7-1.2l1-0.2c0.2,0.4,0.4,0.9,0.7,1.4h2.6v0.9h-6.3V10.8z
					 M245.4,18c0.4,1,0.8,1.8,1,2.5l-0.8,0.3c-0.3-0.9-0.6-1.8-1-2.6L245.4,18z M252.5,10.6c-1.3,0.5-2.6,0.8-4.1,0.9V14h4.6v1h-1.5
					v7.5h-1V15h-2.1v1.7c-0.1,2.4-0.6,4.3-1.6,5.8l-0.7-0.8c0.8-1.2,1.3-2.9,1.3-5v-6c1.7,0,3.2-0.3,4.6-0.9L252.5,10.6z"/>
			</g>
		</g>
	</g>
	<g id="ShadowBasicRect5" transform="translate(177.5,175)">
		<rect x="157.5" y="2" class="st8" width="164" height="50"/>
		<rect x="155.5" class="st9" width="164" height="50"/>
		<g transform="translate(20 9)">
			<g>
				<g>
					<g>
						<path class="st10" d="M173.5,19.6v2.1c2.3-0.7,4-2.5,4.7-4.7h-2.1C175.6,18.1,174.6,19.1,173.5,19.6z M166.9,17h-2.1
							c0.7,2.3,2.4,4,4.7,4.7v-2.1C168.4,19.1,167.4,18.1,166.9,17z M176.1,13h2.1c-0.7-2.3-2.4-4-4.7-4.7v2.1
							C174.6,10.9,175.6,11.9,176.1,13z M158.5,2v15.2c0,0,0.1,10.8,13,13.8c12.9-3,13-13.8,13-13.8V2H158.5z M184.5,8h-2v9.2
							c0,0,0,2.3-1.4,4.8c-1.8,3.4-5.1,5.7-9.6,6.9c-10.7-2.7-11-11.4-11-11.7V4h24V8z M169.5,10.4V8.3c-2.3,0.7-4,2.5-4.7,4.7h2.1
							C167.4,11.9,168.4,10.9,169.5,10.4z M170.5,22h2v-6h6v-2h-6V8h-2v6h-6v2h6V22z"/>
					</g>
				</g>
			</g>
			<g class="st3">
				<path class="st4" d="M209.7,10.5c-1.3,0.4-2.8,0.6-4.4,0.8v2.4h4.5v1h-4.5V17h5.5v1h-5.5v3c0,0.8-0.4,1.3-1.3,1.3h-2.2l-0.2-1
					c1,0,1.6,0.1,2,0.1s0.6-0.2,0.6-0.6V18h-6v-1h6v-2.3h-4.9v-1h4.9v-2.3c-1.6,0.1-3.2,0.2-4.8,0.2l-0.3-0.9c4,0,7.4-0.3,10.1-1
					L209.7,10.5z"/>
				<path class="st4" d="M214.7,17.4c-0.6,1.8-1.1,3.4-1.8,4.8l-0.9-0.4c0.7-1.5,1.3-3.1,1.8-4.8L214.7,17.4z M212.8,13.3
					c0.8,0.7,1.5,1.3,2.1,1.9l-0.7,0.7c-0.5-0.7-1.2-1.3-2-2L212.8,13.3z M212.9,9.8c0.8,0.6,1.4,1.2,2,1.8l-0.7,0.7
					c-0.5-0.6-1.1-1.2-2-1.9L212.9,9.8z M216.1,12.7H215v-1h2c-0.1-0.7-0.3-1.4-0.6-2.1l1-0.2c0.2,0.7,0.4,1.4,0.6,2.3h1.6v1h-2.5v1
					c0,0.3,0,0.6,0,1.1h2.3c0,3.2-0.1,5.2-0.2,6c-0.1,0.9-0.5,1.3-1.3,1.3l-1-0.1l-0.2-0.9c0.6,0,1,0,1.1,0c0.3,0,0.4-0.3,0.5-0.8
					s0.2-2.1,0.2-4.7H217c-0.2,2.9-0.8,5.1-1.9,6.6l-0.7-0.7c1.1-1.7,1.7-4.3,1.7-8V12.7z M221.1,12.5c-0.4,0.9-0.8,1.7-1.3,2.3
					l-0.6-0.8c0.9-1.1,1.5-2.6,1.8-4.5l1,0.2c-0.1,0.6-0.3,1.2-0.4,1.9h3.5v1L221.1,12.5L221.1,12.5z M220.7,14h3.8v0.9
					c-0.4,0.6-0.9,1.1-1.5,1.7v0.9h1.9v0.9H223v2.5c0,0.9-0.4,1.3-1.1,1.3h-1.2l-0.2-0.9c0.4,0,0.8,0,1.1,0s0.4-0.3,0.4-0.8v-2.2
					h-2.1v-0.9h2.1v-1c0.6-0.6,1-1.1,1.3-1.5h-2.7L220.7,14L220.7,14z"/>
				<path class="st4" d="M226.3,14.8h3.9c0.5-0.9,0.9-1.7,1.2-2.3l1,0.3c-0.4,0.7-0.7,1.4-1,2h7.2v1h-2.8c-0.6,1.5-1.2,2.6-2,3.5
					c1.5,0.6,2.9,1.4,4.4,2.2l-0.7,0.9c-1.6-0.9-3-1.7-4.5-2.3c-1.6,1.4-3.6,2.1-6.2,2.2l-0.6-0.9c2.4,0,4.3-0.6,5.8-1.7
					c-1.3-0.6-2.6-1.1-3.9-1.5c0.5-0.7,1-1.5,1.4-2.3h-3.4v-1.1H226.3z M238.3,10.9v3h-1v-2h-9.6v2h-1v-3h5.3
					c-0.2-0.5-0.4-0.9-0.6-1.3l1.1-0.2c0.2,0.5,0.4,1,0.6,1.5H238.3z M230.9,15.8c-0.4,0.7-0.8,1.4-1.2,1.9c1,0.3,2.1,0.7,3.2,1.2
					c0.8-0.8,1.4-1.9,1.8-3.1C234.7,15.8,230.9,15.8,230.9,15.8z"/>
				<path class="st4" d="M246.9,9.6c1.7,1.8,3.8,3.3,6.1,4.4l-0.5,0.9c-2.3-1.1-4.3-2.6-6-4.3c-1.5,1.7-3.5,3.2-6,4.4l-0.5-1
					c2.5-1.2,4.5-2.7,6.1-4.4H246.9z M242.6,14h7.8v1H247v2.4h4v1h-4V21h5.3v1h-11.7v-1h5.3v-2.6h-4.1v-1h4.1V15h-3.4L242.6,14
					L242.6,14z"/>
				<path class="st4" d="M254.8,13.3c0.8,0.7,1.4,1.3,2,2.1l-0.7,0.7c-0.5-0.6-1.1-1.3-2-2.1L254.8,13.3z M256.9,17.4
					c-0.5,1.7-1.1,3.3-1.8,4.9l-0.9-0.4c0.7-1.6,1.3-3.2,1.8-4.8L256.9,17.4z M255,9.8c0.8,0.7,1.5,1.3,2,1.9l-0.7,0.7
					c-0.5-0.6-1.2-1.3-2-1.9L255,9.8z M259.5,12.1h0.8v4.4c0,1.6-0.3,2.9-0.8,3.8s-1.2,1.6-2.3,2.1l-0.5-0.8c1-0.5,1.7-1.1,2.1-1.9
					c0.4-0.8,0.6-1.9,0.6-3.2L259.5,12.1L259.5,12.1z M262.2,10.2v8.5h-0.9V11h-2.9v7.8h-0.9v-8.6C257.5,10.2,262.2,10.2,262.2,10.2
					z M260.7,19.4c0.8,0.7,1.5,1.5,2.1,2.3l-0.7,0.7c-0.5-0.8-1.2-1.5-2.1-2.4L260.7,19.4z M263.3,10.8h0.9v8.7h-0.9V10.8z
					 M263.7,22.3l-0.2-0.9c0.5,0,1,0.1,1.4,0.1c0.3,0,0.5-0.2,0.5-0.6V9.6h1v11.5c0,0.8-0.4,1.2-1.1,1.2
					C265.3,22.3,263.7,22.3,263.7,22.3z"/>
				<path class="st4" d="M268.1,13.8h2.9V20c0.3-0.3,0.8-0.8,1.3-1.3l0.3,1.1c-0.8,0.8-1.6,1.6-2.5,2.2l-0.4-0.9
					c0.2-0.2,0.3-0.4,0.3-0.6v-5.6h-2v-1.1H268.1z M269.8,9.7c0.9,0.7,1.6,1.4,2.3,2.2l-0.7,0.7c-0.6-0.7-1.3-1.4-2.3-2.2L269.8,9.7
					z M278.1,21.1c-0.4-0.8-0.7-2-0.9-3.4c-0.1-1.2-0.3-2.7-0.3-4.6h-4.4v-1h4.4c0-0.5,0-1.4,0-2.6h1c0,1.2,0,2,0,2.6h2.8v1h-2.8
					c0.1,2.4,0.2,4.2,0.4,5.6c0.3,1.6,0.7,2.4,1.1,2.5c0.3-0.1,0.6-0.9,0.9-2.6l0.8,0.6c-0.5,2-1,3-1.7,3
					C278.9,22.2,278.5,21.8,278.1,21.1z M274.1,16.2h-1.3v-0.9h3.6v0.9h-1.3V20c0.7-0.1,1.3-0.3,1.8-0.5v0.9
					c-1.2,0.3-2.5,0.6-3.9,0.9l-0.3-1c0.5-0.1,0.9-0.1,1.4-0.2L274.1,16.2L274.1,16.2z M279,9.5c0.6,0.7,1.1,1.2,1.4,1.8l-0.7,0.5
					c-0.3-0.5-0.8-1.1-1.4-1.8L279,9.5z"/>
			</g>
		</g>
	</g>
	<g id="RectEndPoint40" transform="translate(189.5,271)">
		<rect x="157.5" y="2" class="st8" width="140" height="50"/>
		<rect x="155.5" class="st9" width="140" height="50"/>
		<g transform="translate(41,9)">
			<g class="st3">
				<path class="st4" d="M156.8,13c0.8,0.7,1.5,1.3,2.1,1.9l-0.7,0.7c-0.5-0.6-1.2-1.3-2.1-2L156.8,13z M159.2,17.3
					c-0.6,1.8-1.2,3.4-1.9,5l-0.9-0.4c0.7-1.6,1.4-3.2,1.9-4.9L159.2,17.3z M157.2,9.7c0.9,0.7,1.6,1.3,2.2,2l-0.7,0.7
					c-0.6-0.7-1.3-1.3-2.2-2L157.2,9.7z M161,15.2v0.2c0,2.7-0.6,5.1-1.6,7.1l-0.8-0.7c1-1.7,1.4-3.8,1.5-6.4v-5.3h8v3.1h-7v1.1h7.6
					v0.9h-3.3v1.1h2.9v4.8c0,0.7-0.3,1.1-1,1.1h-1l-0.2-0.8h0.8c0.3,0,0.4-0.2,0.4-0.6v-3.7h-2v5.1h-0.9v-5.1h-2v5h-0.9v-5.8h2.9
					v-1.1C164.4,15.2,161,15.2,161,15.2z M167.1,10.9H161v1.3h6.1V10.9z M163.1,19.4c0.4,0.4,0.8,0.8,1.2,1.2l-0.5,0.5
					c-0.3-0.4-0.7-0.8-1.2-1.2L163.1,19.4z M163.1,17.6c0.5,0.4,0.9,0.8,1.2,1.2l-0.5,0.5c-0.3-0.4-0.8-0.8-1.2-1.2L163.1,17.6z
					 M166,19.3c0.4,0.3,0.8,0.7,1.1,1.1l-0.5,0.5c-0.3-0.3-0.6-0.7-1.1-1.1L166,19.3z M166,17.6c0.5,0.4,0.9,0.8,1.2,1.1l-0.5,0.5
					c-0.3-0.4-0.8-0.8-1.2-1.1L166,17.6z"/>
				<path class="st4" d="M170.9,13.1c0.9,0.7,1.7,1.3,2.3,2l-0.7,0.7c-0.6-0.6-1.3-1.3-2.3-2.1L170.9,13.1z M173.4,17.2
					c-0.7,1.8-1.5,3.5-2.3,5l-1-0.4c0.9-1.6,1.7-3.2,2.4-4.9L173.4,17.2z M171.1,9.8c1,0.7,1.8,1.4,2.4,2l-0.7,0.7
					c-0.6-0.6-1.4-1.3-2.4-2L171.1,9.8z M179.2,22.3l-0.3-1h1.7c0.5,0,0.8-0.2,0.8-0.5V11H175v11.3h-1V10.1h8.3V21
					c0,0.8-0.5,1.3-1.4,1.3H179.2z M175.9,12.6h4.7v0.9h-4.7V12.6z M176.3,14.9h3.9v4.7h-3.9V14.9z M179.3,18.8v-3h-2.1v3H179.3z"/>
				<path class="st4" d="M187.9,10c-0.3,1.1-0.8,2.1-1.2,3v9.5h-1v-7.9c-0.4,0.6-0.9,1.2-1.4,1.8l-0.3-1c1.4-1.7,2.4-3.6,3-5.8
					L187.9,10z M187.9,12h0.9v8h-0.9V12z M192.6,9.6c-0.1,0.3-0.3,0.7-0.4,1h4v0.9c-0.5,0.9-1.2,1.7-2.1,2.4
					c0.8,0.4,1.8,0.7,2.8,0.9l-0.4,0.9c-1.4-0.3-2.5-0.8-3.4-1.3c-1,0.5-2.1,1-3.5,1.3l-0.4-0.9c1.1-0.3,2.1-0.6,3-1
					c-0.6-0.5-1.1-1-1.4-1.5c-0.3,0.3-0.6,0.5-0.9,0.8l-0.6-0.8c1.1-0.8,1.9-1.8,2.4-3L192.6,9.6z M189.6,21.6
					c1.6-0.4,2.9-0.9,3.9-1.5s1.8-1.3,2.5-2.3l0.7,0.5c-0.6,1-1.6,1.8-2.8,2.5c-1.3,0.7-2.6,1.3-3.9,1.6L189.6,21.6z M194.3,15.9
					c-0.5,0.4-1.1,0.8-1.6,1.1c-0.6,0.3-1.4,0.6-2.3,0.9l-0.5-0.8c0.8-0.2,1.5-0.4,2.1-0.7c0.5-0.3,1-0.6,1.5-1L194.3,15.9z
					 M195.5,17c-1.1,1.4-2.8,2.4-4.9,3l-0.4-0.9c2.1-0.5,3.6-1.4,4.7-2.7L195.5,17z M191.4,11.8c0.4,0.6,1,1.2,1.7,1.7
					c0.8-0.5,1.5-1.1,2-1.8h-3.5L191.4,11.8z"/>
				<path class="st4" d="M201.4,11.5c-0.2,0.3-0.4,0.7-0.7,1h8.2v4.4h-5.5c-0.2,0.3-0.4,0.6-0.7,1h6.3v0.7c-0.7,0.9-1.6,1.6-2.8,2.2
					c1.3,0.4,2.8,0.6,4.5,0.7l-0.2,0.9c-2.1-0.1-3.9-0.5-5.5-1.1c-1.6,0.6-3.6,1-6,1.1l-0.4-0.9c2-0.1,3.8-0.3,5.2-0.8
					c-1-0.5-1.8-1-2.6-1.7c-0.6,0.4-1.3,0.8-2,1.1l-0.5-0.9c1.6-0.6,2.8-1.5,3.5-2.5h-1.8v-4.2c-0.5,0.6-1,1.1-1.6,1.5l-0.6-0.8
					c1.4-1.1,2.4-2.4,2.9-4l1,0.2c-0.1,0.4-0.2,0.7-0.4,1h8.2v0.9h-8.5V11.5z M201.5,14.3h6.5v-1h-6.5V14.3z M208,16.1v-1h-6.5v1
					H208z M207.7,18.6H202c0.9,0.7,1.9,1.3,3,1.7C206.1,19.9,207.1,19.3,207.7,18.6z"/>
			</g>
		</g>
	</g>
</g>
<g id="textgroup" transform="translate(0,0)">
	<g id="Textbasic4" transform="translate(17,33)">
		<rect x="155.5" class="st11" width="80" height="20"/>
		<g transform="translate(0 0)">
			<g class="st3">
				<path class="st12" d="M157.9,11.7c-0.3,1.2-0.7,2.2-1.3,3.2l-0.7-0.5c0.6-0.9,1-1.8,1.2-2.9L157.9,11.7z M156.1,8h1.4
					c-0.2-0.5-0.4-0.9-0.6-1.4l0.8-0.3c0.2,0.5,0.5,1,0.6,1.6h1.3c0.2-0.5,0.4-1,0.6-1.7l0.8,0.3c-0.2,0.6-0.4,1-0.6,1.4h1.4v0.8
					h-2.3V10h2.1v0.8h-2.1v3.3c0,0.7-0.3,1-1,1h-0.6l-0.2-0.8c0.2,0,0.4,0.1,0.5,0.1c0.3,0,0.5-0.2,0.5-0.5v-3.1h-2.2V10h2.2V8.7
					h-2.4V8H156.1z M156.2,5.2h2.3c-0.2-0.4-0.4-0.7-0.6-1l0.9-0.1c0.2,0.4,0.4,0.8,0.6,1.2h2.3V6h-5.4V5.2H156.2z M160.6,11.4
					c0.4,0.8,0.7,1.5,0.8,2.1l-0.7,0.3c-0.2-0.8-0.5-1.5-0.8-2.2L160.6,11.4z M166.7,5.1c-1.1,0.4-2.3,0.7-3.5,0.7V8h3.9v0.8h-1.3
					v6.4h-0.9V8.8h-1.8v1.4c-0.1,2.1-0.5,3.7-1.4,4.9l-0.6-0.6c0.7-1,1.1-2.5,1.2-4.3V5.1c1.4,0,2.7-0.3,3.9-0.8L166.7,5.1z"/>
				<path class="st12" d="M171,4.3h0.8v3.2h0.8v0.9h-2.9v1.7h2.3v5.1h-0.8v-4.3h-1.5c-0.1,1.8-0.5,3.2-1,4.1l-0.6-0.6
					c0.5-1.1,0.8-2.9,0.8-5.3V4.6h0.9v2.9h1.3V4.3H171z M174,8.5v1.3c0,2.2-0.4,4-1.2,5.3l-0.6-0.6c0.6-1.1,0.9-2.7,1-4.7V5
					c1.9,0,3.6-0.3,5.1-0.8l0.4,0.8c-1.4,0.4-3,0.6-4.7,0.7v1.9h4.4v0.7c-0.3,1.7-0.8,3.1-1.6,4.2c0.6,0.8,1.3,1.4,2.2,1.8l-0.4,0.8
					c-0.9-0.5-1.7-1.1-2.3-1.9c-0.7,0.8-1.5,1.4-2.4,1.9l-0.4-0.8c0.9-0.5,1.6-1.1,2.3-1.9c-0.7-1.1-1.2-2.5-1.4-4.1H174V8.5z
					 M175.2,8.5c0.3,1.3,0.7,2.4,1.2,3.4c0.6-1,1-2.1,1.2-3.4H175.2z"/>
				<path class="st12" d="M180.4,6.4h4.7V4.2h0.9v2.2h4.7v0.8h-3.9c0.8,1.9,2.2,3.6,4.3,5.1l-0.6,0.7c-2.1-1.7-3.6-3.7-4.4-5.9H186
					v4.7h2.6v0.8H186v2.5h-0.9v-2.5h-2.5v-0.8h2.5V7.2H185c-0.9,2.4-2.4,4.4-4.5,6l-0.5-0.8c2-1.3,3.4-3.1,4.3-5.2h-3.9L180.4,6.4
					L180.4,6.4z"/>
				<path class="st12" d="M192.9,7.9l0.9-3.3l0.9,0.1L194,7.1h2.1c0.2-0.9,0.4-1.9,0.6-2.9l0.9,0.1c-0.1,0.9-0.3,1.9-0.6,2.8h5.6
					v0.8h-5.8c-0.2,0.6-0.3,1-0.5,1.4h4.9V10c-0.3,1-1,2-2,2.8c1,0.6,2.2,1.1,3.6,1.6l-0.4,0.8c-1.5-0.6-2.8-1.2-3.8-1.8
					c-1,0.7-2.2,1.3-3.7,1.9l-0.5-0.8c1.3-0.5,2.5-1,3.4-1.6c-0.9-0.7-1.6-1.5-2-2.3c-0.9,1.9-2,3.4-3.4,4.5l-0.4-0.8
					c1.7-1.5,3-3.6,3.9-6.3L192.9,7.9L192.9,7.9z M196.5,10c0.4,0.8,1.1,1.6,2.1,2.3c0.9-0.7,1.5-1.5,1.8-2.3H196.5z M199.6,4.2
					c0.8,0.6,1.6,1.3,2.1,2l-0.6,0.6c-0.5-0.6-1.2-1.3-2.1-2L199.6,4.2z"/>
				<path class="st12" d="M209.8,7.4h0.8v1.5h3.4v4c0,0.8-0.4,1.1-1.1,1.1h-1.1l-0.2-0.8h1.1c0.4,0,0.6-0.2,0.6-0.5v-3h-2.6v5.6
					h-0.8V9.6h-2.6V14h-0.8V9.5c-0.6,0.6-1.3,1.2-2,1.7l-0.6-0.7c1.5-1.1,2.7-2.4,3.6-3.9h-3.2V5.8h3.7c0.3-0.5,0.5-1.1,0.7-1.6
					l0.9,0.1c-0.2,0.5-0.4,1-0.6,1.5h5.8v0.8h-6.2c-0.4,0.8-0.9,1.5-1.5,2.2h2.8L209.8,7.4L209.8,7.4z"/>
				<path class="st12" d="M224.4,4.4c-0.2,0.5-0.5,0.9-0.8,1.3h3.2v0.8h-10.7V5.7h3.3c-0.2-0.5-0.5-1-0.8-1.4l0.9-0.2
					c0.3,0.4,0.5,0.9,0.8,1.5h2.3c0.4-0.5,0.7-1,0.9-1.6L224.4,4.4z M219.3,15.1l-0.2-0.9h0.9c0.3,0,0.5-0.2,0.5-0.6v-1.1h-2.7v2.6
					H217V7.5h4.4v6.4c0,0.8-0.3,1.2-1,1.2C220.4,15.1,219.3,15.1,219.3,15.1z M217.8,9.7h2.7V8.3h-2.7V9.7z M217.8,11.8h2.7v-1.4
					h-2.7V11.8z M222.7,8.1h0.8v5.2h-0.8V8.1z M223.4,15.1l-0.2-0.8c0.6,0,1.1,0.1,1.5,0.1c0.3,0,0.5-0.2,0.5-0.6V7.2h0.9V14
					c0,0.7-0.4,1.1-1.1,1.1H223.4z"/>
			</g>
		</g>
	</g>
	<g id="Textbasic12" transform="translate(17,390.5)">
		<rect x="155.5" class="st11" width="80" height="20"/>
		<g transform="translate(0 0)">
			<g class="st3">
				<path class="st12" d="M157.9,11.7c-0.3,1.2-0.7,2.2-1.3,3.2l-0.7-0.5c0.6-0.9,1-1.8,1.2-2.9L157.9,11.7z M156.1,8h1.4
					c-0.2-0.5-0.4-0.9-0.6-1.4l0.8-0.3c0.2,0.5,0.5,1,0.6,1.6h1.3c0.2-0.5,0.4-1,0.6-1.7l0.8,0.3c-0.2,0.6-0.4,1-0.6,1.4h1.4v0.8
					h-2.3V10h2.1v0.8h-2.1v3.3c0,0.7-0.3,1-1,1h-0.6l-0.2-0.8c0.2,0,0.4,0.1,0.5,0.1c0.3,0,0.5-0.2,0.5-0.5v-3.1h-2.2V10h2.2V8.7
					h-2.4V8H156.1z M156.2,5.2h2.3c-0.2-0.4-0.4-0.7-0.6-1l0.9-0.1c0.2,0.4,0.4,0.8,0.6,1.2h2.3V6h-5.4V5.2H156.2z M160.6,11.4
					c0.4,0.8,0.7,1.5,0.8,2.1l-0.7,0.3c-0.2-0.8-0.5-1.5-0.8-2.2L160.6,11.4z M166.7,5.1c-1.1,0.4-2.3,0.7-3.5,0.7V8h3.9v0.8h-1.3
					v6.4h-0.9V8.8h-1.8v1.4c-0.1,2.1-0.5,3.7-1.4,4.9l-0.6-0.6c0.7-1,1.1-2.5,1.2-4.3V5.1c1.4,0,2.7-0.3,3.9-0.8L166.7,5.1z"/>
				<path class="st12" d="M171,4.3h0.8v3.2h0.8v0.9h-2.9v1.7h2.3v5.1h-0.8v-4.3h-1.5c-0.1,1.8-0.5,3.2-1,4.1l-0.6-0.6
					c0.5-1.1,0.8-2.9,0.8-5.3V4.6h0.9v2.9h1.3V4.3H171z M174,8.5v1.3c0,2.2-0.4,4-1.2,5.3l-0.6-0.6c0.6-1.1,0.9-2.7,1-4.7V5
					c1.9,0,3.6-0.3,5.1-0.8l0.4,0.8c-1.4,0.4-3,0.6-4.7,0.7v1.9h4.4v0.7c-0.3,1.7-0.8,3.1-1.6,4.2c0.6,0.8,1.3,1.4,2.2,1.8l-0.4,0.8
					c-0.9-0.5-1.7-1.1-2.3-1.9c-0.7,0.8-1.5,1.4-2.4,1.9l-0.4-0.8c0.9-0.5,1.6-1.1,2.3-1.9c-0.7-1.1-1.2-2.5-1.4-4.1H174V8.5z
					 M175.2,8.5c0.3,1.3,0.7,2.4,1.2,3.4c0.6-1,1-2.1,1.2-3.4H175.2z"/>
				<path class="st12" d="M180.4,6.4h4.7V4.2h0.9v2.2h4.7v0.8h-3.9c0.8,1.9,2.2,3.6,4.3,5.1l-0.6,0.7c-2.1-1.7-3.6-3.7-4.4-5.9H186
					v4.7h2.6v0.8H186v2.5h-0.9v-2.5h-2.5v-0.8h2.5V7.2H185c-0.9,2.4-2.4,4.4-4.5,6l-0.5-0.8c2-1.3,3.4-3.1,4.3-5.2h-3.9L180.4,6.4
					L180.4,6.4z"/>
				<path class="st12" d="M192.9,7.9l0.9-3.3l0.9,0.1L194,7.1h2.1c0.2-0.9,0.4-1.9,0.6-2.9l0.9,0.1c-0.1,0.9-0.3,1.9-0.6,2.8h5.6
					v0.8h-5.8c-0.2,0.6-0.3,1-0.5,1.4h4.9V10c-0.3,1-1,2-2,2.8c1,0.6,2.2,1.1,3.6,1.6l-0.4,0.8c-1.5-0.6-2.8-1.2-3.8-1.8
					c-1,0.7-2.2,1.3-3.7,1.9l-0.5-0.8c1.3-0.5,2.5-1,3.4-1.6c-0.9-0.7-1.6-1.5-2-2.3c-0.9,1.9-2,3.4-3.4,4.5l-0.4-0.8
					c1.7-1.5,3-3.6,3.9-6.3L192.9,7.9L192.9,7.9z M196.5,10c0.4,0.8,1.1,1.6,2.1,2.3c0.9-0.7,1.5-1.5,1.8-2.3H196.5z M199.6,4.2
					c0.8,0.6,1.6,1.3,2.1,2l-0.6,0.6c-0.5-0.6-1.2-1.3-2.1-2L199.6,4.2z"/>
				<path class="st12" d="M209.8,7.4h0.8v1.5h3.4v4c0,0.8-0.4,1.1-1.1,1.1h-1.1l-0.2-0.8h1.1c0.4,0,0.6-0.2,0.6-0.5v-3h-2.6v5.6
					h-0.8V9.6h-2.6V14h-0.8V9.5c-0.6,0.6-1.3,1.2-2,1.7l-0.6-0.7c1.5-1.1,2.7-2.4,3.6-3.9h-3.2V5.8h3.7c0.3-0.5,0.5-1.1,0.7-1.6
					l0.9,0.1c-0.2,0.5-0.4,1-0.6,1.5h5.8v0.8h-6.2c-0.4,0.8-0.9,1.5-1.5,2.2h2.8L209.8,7.4L209.8,7.4z"/>
				<path class="st12" d="M218.2,8.4v0.3c-0.1,2.7-0.6,4.8-1.6,6.4l-0.6-0.7c0.9-1.4,1.3-3.3,1.4-5.8V5.1c3.1,0,5.9-0.3,8.3-0.8
					l0.4,0.8c-2.3,0.5-4.9,0.7-7.9,0.8v1.7h8.6v0.8C226.8,8.4,218.2,8.4,218.2,8.4z M225.9,10.1v5.1H225v-0.6h-4.9v0.6h-0.9v-5.1
					H225.9z M220.2,13.8h4.9v-2.9h-4.9V13.8z"/>
			</g>
		</g>
	</g>
	<g id="Textbasic9" transform="translate(269,233)">
		<rect x="155.5" class="st11" width="109" height="20"/>
		<g transform="translate(0 0)">
			<g class="st3">
				<path class="st12" d="M156.1,7.4h1.3V4.3h0.9v3.1h1.2v0.8h-1.2v4c0.5-0.2,1-0.4,1.4-0.6v0.9c-1,0.5-2.2,1-3.4,1.3l-0.2-0.9
					c0.4-0.1,0.9-0.2,1.4-0.4V8.2h-1.3L156.1,7.4L156.1,7.4z M161.9,4.2c0.2,0.6,0.4,1.1,0.5,1.5h1.7c0.2-0.5,0.4-1,0.5-1.6l0.9,0.1
					c-0.1,0.6-0.3,1.1-0.5,1.5h1.6v4H160v-4h1.6c-0.2-0.5-0.4-1-0.6-1.4L161.9,4.2z M166.1,10.6v4.6h-0.8v-0.5h-4v0.5h-0.8v-4.6
					H166.1z M162.9,9.1V6.5h-2.2v2.6H162.9z M161.8,6.9c0.2,0.5,0.4,1,0.6,1.6l-0.6,0.1c-0.2-0.5-0.3-1-0.6-1.5L161.8,6.9z
					 M161.3,12.3h4v-1h-4V12.3z M161.3,14h4v-1h-4V14z M165.8,9.1V6.5h-2.2v2.6H165.8z M165.2,7c-0.2,0.6-0.4,1.2-0.6,1.7L164,8.5
					c0.2-0.4,0.4-0.9,0.6-1.6L165.2,7z"/>
				<path class="st12" d="M168.1,8h10.8v0.6h-10.8V8z M169.3,9.2h8.4v3.1h-3.8V13h4.1v0.6h-4.1v0.7h4.9V15h-10.7v-0.7h4.9v-0.7h-4
					V13h4v-0.7h-3.7L169.3,9.2L169.3,9.2z M169.6,4.4h7.8v3h-7.8V4.4z M170.2,10.5h2.9V9.8h-2.9V10.5z M173.1,11.7V11h-2.9v0.7
					H173.1z M170.4,5.6h6.2V4.9h-6.2V5.6z M176.6,6.8V6.1h-6.2v0.7C170.4,6.8,176.6,6.8,176.6,6.8z M173.9,9.8v0.7h2.9V9.8H173.9z
					 M176.9,11.7V11H174v0.7H176.9z"/>
				<path class="st12" d="M182.6,12.5l-0.6-0.7c1.3-0.9,2.2-2,2.7-3.3c0.1-0.5,0.2-1,0.3-1.5h-3.4v8.2h-0.9V6.1h4.4
					c0.1-0.7,0.1-1.3,0.1-2h0.9c0,0.6,0,1.3-0.1,2h4.2v7.7c0,0.8-0.4,1.2-1.2,1.2h-1.9l-0.2-0.9h1.8c0.4,0,0.6-0.2,0.6-0.6V7h-3.4
					c-0.1,0.5-0.1,0.9-0.2,1.3c1.2,1.2,2.3,2.3,3.1,3.5l-0.6,0.7c-0.7-1-1.6-2.1-2.7-3.3C185,10.5,184,11.6,182.6,12.5z"/>
				<path class="st12" d="M197.8,8c1,1.2,2.6,2.3,5,3.2l-0.5,0.7c-0.5-0.2-0.9-0.4-1.3-0.6v3.9h-0.8v-0.5h-5.4v0.5H194v-4
					c-0.4,0.2-0.9,0.4-1.5,0.6l-0.5-0.7c2.2-0.8,3.9-1.9,5.1-3.2h0.7V8z M196.6,7c-1,0.9-2.3,1.7-3.8,2.3l-0.5-0.7
					c1.5-0.6,2.7-1.4,3.7-2.2L196.6,7z M197.6,4.1c0.1,0.3,0.3,0.6,0.4,1.1h4.4v2.1h-0.8V6h-8.1v1.4h-0.8V5.2h4.6
					c-0.1-0.3-0.3-0.6-0.4-0.9L197.6,4.1z M200.9,11.2c-1.5-0.7-2.6-1.6-3.4-2.5c-1,1-2.1,1.8-3.4,2.5H200.9z M194.9,13.9h5.4V12
					h-5.4V13.9z M198.9,6.5c1.5,0.8,2.7,1.5,3.6,2.2L202,9.3c-0.9-0.7-2.1-1.5-3.6-2.3L198.9,6.5z"/>
				<path class="st12" d="M206.5,13.7c0,1-0.5,1.8-1.4,2.3l-0.3-0.5c0.6-0.4,1-0.9,1-1.5c-0.1,0-0.1,0-0.2,0c-0.2,0-0.4-0.1-0.5-0.2
					c-0.1-0.1-0.2-0.3-0.2-0.5s0.1-0.4,0.2-0.5c0.1-0.1,0.3-0.2,0.5-0.2C206.3,12.6,206.5,13,206.5,13.7z"/>
				<path class="st12" d="M216.6,7.1c0.7,0.6,1.3,1.1,1.8,1.7l-0.6,0.6c-0.4-0.5-1-1.1-1.8-1.7L216.6,7.1z M218.7,10.8
					c-0.5,1.5-1,3-1.6,4.3l-0.8-0.3c0.6-1.4,1.2-2.8,1.7-4.2L218.7,10.8z M217,4.3c0.7,0.6,1.4,1.1,1.9,1.7l-0.6,0.6
					c-0.5-0.6-1.1-1.1-1.9-1.7L217,4.3z M220.2,9v0.1c0,2.4-0.5,4.4-1.4,6.1l-0.6-0.6c0.8-1.4,1.2-3.3,1.2-5.5V4.6h6.8v2.6h-6v1h6.5
					V9h-2.8v1h2.5v4.1c0,0.6-0.3,1-0.9,1h-0.8l-0.2-0.7h0.7c0.2,0,0.4-0.2,0.4-0.5v-3.2h-1.8V15h-0.7v-4.3h-1.8v4.2h-0.7v-5h2.5V9
					H220.2z M225.5,5.4h-5.2v1.1h5.2V5.4z M222,12.7c0.4,0.3,0.7,0.7,1,1l-0.4,0.4c-0.3-0.3-0.6-0.7-1-1L222,12.7z M222.1,11.1
					c0.4,0.4,0.8,0.7,1.1,1l-0.4,0.4c-0.3-0.3-0.6-0.7-1.1-1L222.1,11.1z M224.5,12.6c0.4,0.3,0.7,0.6,1,1l-0.4,0.4
					c-0.2-0.3-0.6-0.6-1-1L224.5,12.6z M224.5,11.1c0.4,0.3,0.8,0.6,1.1,0.9l-0.4,0.4c-0.3-0.3-0.6-0.6-1.1-1L224.5,11.1z"/>
				<path class="st12" d="M228.7,7.2c0.8,0.6,1.5,1.2,2,1.7l-0.6,0.6c-0.5-0.5-1.1-1.1-2-1.8L228.7,7.2z M230.9,10.8
					c-0.6,1.5-1.3,3-2,4.3l-0.8-0.3c0.8-1.4,1.4-2.8,2-4.2L230.9,10.8z M228.9,4.4c0.8,0.6,1.5,1.2,2.1,1.7l-0.6,0.6
					c-0.5-0.5-1.2-1.1-2.1-1.7L228.9,4.4z M235.8,15.1l-0.2-0.9h1.4c0.4,0,0.7-0.2,0.7-0.5V5.5h-5.4v9.7h-0.8V4.7h7.1V14
					c0,0.7-0.4,1.1-1.2,1.1H235.8z M233,6.8h4v0.8h-4V6.8z M233.3,8.8h3.3v4h-3.3V8.8z M235.9,12.1V9.5h-1.8V12h1.8V12.1z"/>
				<path class="st12" d="M240.4,15.1l-0.2-0.8c0.3,0,0.6,0.1,0.9,0.1c0.3,0,0.5-0.2,0.5-0.5V11c-0.4,0.2-0.8,0.3-1.4,0.5l-0.2-0.9
					c0.5-0.1,1-0.3,1.6-0.5V7.2h-1.4V6.4h1.4V4.2h0.9v2.2h1.1v0.8h-1.1v2.4c0.4-0.2,0.9-0.4,1.3-0.7v0.9c-0.4,0.2-0.8,0.4-1.3,0.7
					V14c0,0.7-0.3,1-1,1h-1.1V15.1z M247.5,4.1c0.1,0.3,0.3,0.8,0.4,1.2h2.7v2.1h-0.8V6.2H245v1.3h-0.8V5.4h3
					c-0.1-0.4-0.3-0.7-0.5-1.1L247.5,4.1z M244.4,9.8h5.6v0.7c-2.3,1.1-3.8,2-4.5,2.7c-0.2,0.2-0.3,0.4-0.3,0.6
					c0,0.2,0.2,0.4,0.6,0.4h3.2c0.4,0,0.6-0.1,0.8-0.2c0.1-0.1,0.3-0.6,0.4-1.5l0.8,0.3c-0.1,1-0.3,1.6-0.6,1.8s-0.7,0.4-1.3,0.4
					h-3.3c-1,0-1.5-0.4-1.5-1.1c0-0.4,0.2-0.8,0.6-1.2c0.7-0.7,1.9-1.4,3.6-2.1h-4V9.8H244.4z M246.9,7c-0.5,1-1.1,1.8-1.9,2.4
					l-0.6-0.6c0.8-0.5,1.4-1.2,1.8-2.1L246.9,7z M248.3,6.6c0.7,0.8,1.3,1.6,1.7,2.2l-0.7,0.5c-0.4-0.7-1-1.5-1.7-2.3L248.3,6.6z"/>
				<path class="st12" d="M252.4,15.1l-0.2-0.8c0.4,0,0.7,0.1,1,0.1s0.4-0.2,0.4-0.7V11c-0.4,0.2-0.9,0.3-1.3,0.5l-0.2-0.8
					c0.6-0.2,1.1-0.3,1.5-0.5V7.3h-1.4V6.5h1.4V4.2h0.8v2.3h1.2v0.8h-1.2v2.4c0.4-0.2,0.8-0.4,1.2-0.6V10c-0.4,0.2-0.7,0.4-1.2,0.6
					v3.3c0,0.8-0.3,1.3-1,1.3h-1V15.1z M257,7.7v1.1c0,2.5-0.5,4.6-1.5,6.5l-0.6-0.6c0.8-1.5,1.3-3.5,1.3-5.9V4.7h6.3v3H257z
					 M261.7,5.5H257v1.4h4.7V5.5z M261.5,10.6V8.9h0.8v2.4h-1.9v2.4h1.4V12h0.8v3h-0.8v-0.6h-3.6V15h-0.8v-3h0.8v1.7h1.4v-2.4h-1.9
					V8.9h0.8v1.6h1.1V8.3h0.8v2.2h1.1V10.6z"/>
			</g>
		</g>
	</g>
	<g id="Textbasic31" transform="translate(269,251)">
		<rect x="155.5" class="st11" width="80" height="20"/>
		<g transform="translate(0 0)">
			<g class="st3">
				<path class="st12" d="M156.4,15.1l-0.2-0.8c0.4,0,0.8,0,1,0c0.3,0,0.4-0.1,0.4-0.4v-3c-0.5,0.2-1,0.4-1.4,0.5l-0.2-0.9
					c0.5-0.1,1.1-0.3,1.6-0.5V7.3h-1.5V6.5h1.5V4.2h0.9v2.3h1.2v0.8h-1.2v2.3c0.5-0.2,0.8-0.4,1-0.5V10c-0.2,0.1-0.6,0.3-1,0.5v3.6
					c0,0.6-0.3,1-1,1H156.4z M159.8,9.6h6.9v0.8h-3v1.4h2.5v0.8h-2.5v1.5c0.5,0.1,1,0.1,1.7,0.1c0.6,0,1.1,0,1.6-0.1l-0.2,0.8h-1.3
					c-1.6,0-2.7-0.2-3.2-0.5c-0.5-0.2-0.9-0.7-1.2-1.4c-0.3,0.8-0.7,1.4-1.2,2.1l-0.6-0.6c0.9-1.1,1.4-2.3,1.5-3.7l0.8,0.1
					c0,0.4-0.1,0.8-0.2,1.2c0.4,0.8,0.8,1.3,1.3,1.5l0.3,0.1v-3.5h-3V9.6H159.8z M160.7,4.6h5.2v4.2h-5.2V4.6z M161.5,6.4h3.6v-1
					h-3.6V6.4z M165.1,8.1V7h-3.6v1h3.6V8.1z"/>
				<path class="st12" d="M176.4,4.4c-0.2,0.5-0.5,0.9-0.8,1.3h3.2v0.8h-10.7V5.7h3.3c-0.2-0.5-0.5-1-0.8-1.4l0.9-0.2
					c0.3,0.4,0.5,0.9,0.8,1.5h2.3c0.4-0.5,0.7-1,0.9-1.6L176.4,4.4z M171.3,15.1l-0.2-0.9h0.9c0.3,0,0.5-0.2,0.5-0.6v-1.1h-2.7v2.6
					H169V7.5h4.4v6.4c0,0.8-0.3,1.2-1,1.2C172.4,15.1,171.3,15.1,171.3,15.1z M169.8,9.7h2.7V8.3h-2.7V9.7z M169.8,11.8h2.7v-1.4
					h-2.7V11.8z M174.7,8.1h0.8v5.2h-0.8V8.1z M175.4,15.1l-0.2-0.8c0.6,0,1.1,0.1,1.5,0.1c0.3,0,0.5-0.2,0.5-0.6V7.2h0.9V14
					c0,0.7-0.4,1.1-1.1,1.1H175.4z"/>
				<path class="st12" d="M183.4,7.8h-1.9V4.5h8v3.3h-1.9v0.7h2.7v0.7h-2.7V10h3.2v0.7h-2.9c0.7,0.7,1.7,1.2,3.1,1.6l-0.4,0.7
					c-0.9-0.3-1.7-0.7-2.3-1.1c-0.4,0.3-0.9,0.6-1.3,0.8l-0.4-0.6c0.4-0.2,0.8-0.5,1.2-0.7c-0.3-0.2-0.5-0.5-0.7-0.7h-2.9
					c-0.2,0.3-0.5,0.5-0.8,0.8c0.4,0.2,0.7,0.5,1.1,0.7l-0.5,0.5c-0.3-0.3-0.7-0.5-1.1-0.8c-0.7,0.4-1.4,0.8-2.3,1.2l-0.4-0.7
					c1.4-0.4,2.5-1,3.1-1.6h-3V10h3.3V9.2h-2.7V8.5h2.7V7.8H183.4z M184.6,13.5c-1,0.5-2.2,1-3.6,1.5l-0.3-0.8
					c1.4-0.4,2.7-0.8,3.7-1.4L184.6,13.5z M182.3,5.9h6.3V5.2h-6.3V5.9z M188.7,7.2V6.5h-6.3v0.7H188.7z M183.7,15.2l-0.2-0.7
					c0.5,0,0.9,0.1,1.2,0.1s0.4-0.1,0.4-0.3v-3h0.8v3.2c0,0.6-0.3,0.8-1,0.8h-1.2V15.2z M184.2,8.5h2.5V7.8h-2.5V8.5z M184.2,10h2.5
					V9.2h-2.5V10z M186.9,13c1.3,0.4,2.5,0.9,3.6,1.4l-0.5,0.7c-1.2-0.7-2.3-1.2-3.5-1.5L186.9,13z"/>
				<path class="st12" d="M192.9,9.1h3.7v2.4h-1.2v0.9h1.3V13h-1.3v1c0.4-0.1,0.9-0.2,1.6-0.3v0.7c-1.3,0.3-2.8,0.6-4.5,0.8
					l-0.2-0.7c0.1,0,0.4-0.1,0.7-0.1V12h0.7v2.3l1-0.2v-2.6H193V9.1H192.9z M192.8,4.4h9.3v0.7h-4.3v0.8h4.6v2h-0.8V6.5h-3.8v2.1
					H197V6.5h-3.8v1.4h-0.8v-2h4.6V5.1h-4.3V4.4H192.8z M195.8,10.8V9.7h-2.2v1.1H195.8z M193.9,8h2.6v0.5h-2.6V8z M193.9,7h2.6v0.5
					h-2.6V7z M199.6,8.8c-0.1,0.2-0.2,0.3-0.3,0.5h2.8v0.5c-0.4,0.5-0.9,1-1.5,1.5c0.7,0.3,1.6,0.5,2.5,0.7l-0.4,0.6
					c-1.1-0.2-2.1-0.5-2.8-0.9c-0.8,0.4-1.7,0.7-2.8,1l-0.5-0.6c1-0.3,1.9-0.5,2.6-0.8c-0.4-0.3-0.7-0.5-1-0.8
					c-0.3,0.2-0.6,0.4-0.9,0.6l-0.4-0.6c1.1-0.5,1.8-1.1,2.2-1.8L199.6,8.8z M202.1,12.5v2.7h-0.8v-0.4h-2.8v0.4h-0.8v-2.7H202.1z
					 M198.5,7h2.6v0.5h-2.6V7z M198.5,8h2.6v0.5h-2.6V8z M198.5,14.2h2.8v-1h-2.8V14.2z M199.9,10.9c0.6-0.3,1-0.7,1.4-1h-2.4
					c0,0-0.1,0.1-0.2,0.2C199,10.4,199.4,10.7,199.9,10.9z"/>
				<path class="st12" d="M205.4,4.7h7.8v4.8c0,2,0.1,3.3,0.2,3.8c0.1,0.5,0.3,0.8,0.5,0.8s0.3-0.5,0.4-1.6l0.8,0.4
					c-0.1,0.9-0.3,1.5-0.5,1.8s-0.4,0.4-0.6,0.4c-0.6,0-1-0.4-1.2-1.1c-0.3-0.7-0.4-2.2-0.4-4.5v-4h-6v3.8c0,2.3-0.5,4.3-1.5,5.9
					l-0.7-0.6c0.8-1.4,1.3-3.2,1.3-5.3V4.7H205.4z M207.5,6.9c0.7,0.9,1.4,1.8,1.9,2.5c0.5-0.9,0.9-1.9,1.2-2.9l0.9,0.1
					c-0.4,1.3-0.8,2.5-1.4,3.5c0.7,1,1.3,2,1.9,2.9l-0.8,0.5c-0.5-0.9-1.1-1.8-1.6-2.6c-0.7,1.1-1.6,2-2.7,2.8l-0.6-0.7
					c1.1-0.8,2-1.8,2.7-2.8c-0.6-0.8-1.3-1.8-2.1-2.9L207.5,6.9z"/>
				<path class="st12" d="M216.5,4.7h3.6v0.7c-0.4,1.1-0.8,2.3-1.3,3.4c0.7,1.1,1.1,2,1.2,2.9c0,0.5-0.1,0.8-0.4,1.1
					c-0.3,0.3-0.9,0.4-1.7,0.4l-0.3-0.9c0.2,0,0.4,0,0.5,0c0.4,0,0.7-0.1,0.8-0.2c0.1-0.1,0.2-0.3,0.2-0.5c0-0.8-0.4-1.7-1.2-2.8
					c0.5-1.2,1-2.4,1.3-3.4h-1.9v9.7h-0.8L216.5,4.7L216.5,4.7z M221.5,7.7C221,8.2,220.6,8.6,220,9l-0.4-0.7c1.4-1,2.6-2.4,3.3-4.1
					h0.8c0.6,1.5,1.8,2.9,3.4,4L226.7,9c-0.6-0.4-1-0.8-1.4-1.2v0.7h-3.7V7.7H221.5z M219.8,14h4.2c0.6-1.3,1.1-2.9,1.5-4.8l0.8,0.2
					c-0.4,1.7-0.9,3.2-1.4,4.5h2v0.8h-7.1V14z M221.2,9.6c0.4,1,0.8,2.2,1.1,3.5l-0.8,0.2c-0.3-1.2-0.7-2.3-1.1-3.4L221.2,9.6z
					 M225.1,7.7c-0.8-0.8-1.4-1.6-1.8-2.6c-0.5,1-1.1,1.9-1.8,2.6H225.1z M223.1,9.2c0.4,1,0.7,2.1,0.9,3.3l-0.7,0.2
					c-0.2-1.1-0.5-2.2-0.9-3.3L223.1,9.2z"/>
			</g>
		</g>
	</g>
</g>
<g id="assistantgroup" transform="translate(0,0)">
</g>
</svg>
