<?xml version="1.0" encoding="UTF-8"?>
<svg width="32px" height="32px" viewBox="0 0 32 32" version="1.1" xmlns="http://www.w3.org/2000/svg" xmlns:xlink="http://www.w3.org/1999/xlink">
    <!-- Generator: Sketch 52.6 (67491) - http://www.bohemiancoding.com/sketch -->
    <title>专家服务-32px</title>
    <desc>Created with Sketch.</desc>
    <g id="专家服务-32px" stroke="none" stroke-width="1" fill="none" fill-rule="evenodd">
        <g id="Group" transform="translate(3.000000, 2.000000)" fill="#00A4FF" fill-rule="nonzero">
            <path d="M24,6 L24,15.2 C24,15.2 24,17.5 22.6,20 C20.8,23.4 17.5,25.7 13,26.9 C2.3,24.3 2,15.6 2,15.2 L2,2 L22,2 L24,2 L26,2 L26,0 L0,0 L0,15.2 C0,15.2 0.1,26 13,29 C25.9,26 26,15.2 26,15.2 L26,6 L24,6 Z" id="Shape"></path>
        </g>
        <g id="Group" transform="translate(9.000000, 8.000000)" fill="#00A4FF">
            <path d="M2,14 L0,14 C0,11.239 2.239,9 5,9 L5,11 C3.346,11 2,12.346 2,14 Z M14,14 L12,14 C12,12.346 10.654,11 9,11 L9,9 C11.761,9 14,11.238 14,14 Z M9,11 L5,11 L5,9 L9,9 L9,11 Z M3,4 C3,1.791 4.791,0 7,0 C9.209,0 11,1.791 11,4 C11,6.209 9.209,8 7,8 C4.791,8 3,6.209 3,4 Z M7,5.969 C8.105,5.969 9,5.074 9,3.969 C9,2.864 8.105,1.969 7,1.969 C5.895,1.969 5,2.864 5,3.969 C5,5.074 5.895,5.969 7,5.969 Z" id="XMLID_2_"></path>
        </g>
    </g>
</svg>