<?xml version="1.0" encoding="UTF-8"?>
<svg width="16px" height="16px" viewBox="0 0 16 16" version="1.1" xmlns="http://www.w3.org/2000/svg" xmlns:xlink="http://www.w3.org/1999/xlink">
    <!-- Generator: Sketch 52.6 (67491) - http://www.bohemiancoding.com/sketch -->
    <title>企业通信</title>
    <desc>Created with Sketch.</desc>
    <g id="企业通信" stroke="none" stroke-width="1" fill="none" fill-rule="evenodd">
        <rect id="Rectangle" fill-rule="nonzero" x="0" y="0" width="16" height="16"></rect>
        <path d="M3.4999,16.0001 L7.9999,8.0001 L12.4999,16.0001 L3.4999,16.0001 Z M7.9999,12.0791 L6.9199,14.0001 L9.0799,14.0001 L7.9999,12.0791 Z M3.241,14.42 C1.278,12.962 0,10.633 0,8 C0,3.582 3.581,-7.72715225e-14 8,-7.72715225e-14 C12.418,-7.72715225e-14 16,3.582 16,8 C16,10.633 14.721,12.962 12.759,14.42 L11.769,12.662 C13.129,11.561 14,9.881 14,8 C14,4.691 11.308,2 8,2 C4.691,2 2,4.691 2,8 C2,9.881 2.871,11.561 4.23,12.662 L3.241,14.42 Z M5.2327,10.879 C4.4757,10.151 3.9997,9.133 3.9997,8 C3.9997,5.791 5.7907,4 7.9997,4 C10.2087,4 11.9997,5.791 11.9997,8 C11.9997,9.133 11.5247,10.151 10.7667,10.879 L9.7157,9.011 C9.8917,8.713 9.9997,8.37 9.9997,8 C9.9997,6.897 9.1027,6 7.9997,6 C6.8977,6 5.9997,6.897 5.9997,8 C5.9997,8.37 6.1077,8.713 6.2837,9.011 L5.2327,10.879 Z" id="Combined-Shape" fill="#00A4FF"></path>
    </g>
</svg>