<?xml version="1.0" encoding="utf-8"?>
<!-- Generator: Adobe Illustrator 21.0.2, SVG Export Plug-In . SVG Version: 6.00 Build 0)  -->
<svg version="1.1" id="图层_1" xmlns="http://www.w3.org/2000/svg" xmlns:xlink="http://www.w3.org/1999/xlink" x="0px" y="0px"
	 viewBox="0 0 48 48" style="enable-background:new 0 0 48 48;" xml:space="preserve">
<style type="text/css">
	.st0{fill:#00A4FF;}
</style>
<polygon class="st0" points="29,14 27,14 24,19 21,14 19,14 22,19 19,19 19,21 23,21 23,23 19,23 19,25 23,25 23,28 25,28 25,25 
	29,25 29,23 25,23 25,21 29,21 29,19 26,19 "/>
<path class="st0" d="M42,10v15c0,0.1-0.3,14.6-18,18.9C6.5,39.7,6,25.6,6,25.1V4h35h1h2V2H4v23.1c0,0,0.2,16.4,20,20.9
	c19.8-4.6,20-20.9,20-20.9V10H42z"/>
<g>
	<path class="st0" d="M14.2,23h-2c0.8,5,4.8,9,9.8,9.8v-2C18.1,30,15,26.9,14.2,23z"/>
	<path class="st0" d="M12.2,19h2c0.8-3.9,3.9-7,7.8-7.8v-2C17,10,13,14,12.2,19z"/>
</g>
<g>
	<path class="st0" d="M33.8,19h2C35,14,31,10,26,9.2v2C29.9,12,33,15.1,33.8,19z"/>
	<path class="st0" d="M33.8,23c-0.8,3.9-3.9,7-7.8,7.8v2c5-0.8,9-4.8,9.8-9.8H33.8z"/>
</g>
</svg>
