<?xml version="1.0" encoding="utf-8"?>
<!-- Generator: Adobe Illustrator 19.0.0, SVG Export Plug-In . SVG Version: 6.00 Build 0)  -->
<svg version="1.1" id="图层_1" xmlns="http://www.w3.org/2000/svg" xmlns:xlink="http://www.w3.org/1999/xlink" x="0px" y="0px"
	 width="830px" height="235px" viewBox="351 -53 830 235" style="enable-background:new 351 -53 830 235;" xml:space="preserve">
<style type="text/css">
	.st0{fill:#EAEBEC;}
	.st1{fill:#00A4FF;}
	.st2{enable-background:new    ;}
	.st3{opacity:0.6;fill:#BBBBBB;enable-background:new    ;}
	.st4{fill:#F1F1F1;stroke:#E5E5E5;}
	.st5{fill:#FFFFFF;stroke:#E5E5E5;}
	.st6{fill:#878787;}
	.st7{fill-opacity:0;}
	.st8{fill:#444444;}
	.st9{fill:none;stroke:#BABABA;stroke-dasharray:5;}
	.st10{fill:none;stroke:#888888;}
	.st11{fill:#888888;}
	.st12{fill:none;stroke:#FF0000;stroke-width:15;stroke-opacity:0;}
	.st13{fill:none;stroke:#888888;stroke-miterlimit:10;}
	.st14{fill:none;}
</style>
<rect id="XMLID_125_" x="363" y="-25.899" class="st0" width="328.667" height="136.833"/>
<rect id="XMLID_124_" x="837.833" y="-25.899" class="st0" width="328.667" height="136.833"/>
<g id="XMLID_117_" transform="translate(10 10)">
	<g id="XMLID_119_" transform="translate(0 2)">
		<title  xmlns="http://www.w3.org/2000/svg">对象存储服务</title>
		<path id="XMLID_120_" class="st1" d="M371.553-25.232l-7.5,4v8l7.5,4l7.5-4v-7.1l-1,0.5v5.9l-6,3.2v-5.7l5.1-2.7l1.9-1v-1.1
			L371.553-25.232z M371.053-10.632l-6-3.2v-5.7l6,3.2V-10.632z M371.553-17.132l-6.5-3.5l6.5-3.5l6.5,3.5L371.553-17.132z"/>
	</g>
	<g id="XMLID_367_" class="st2">
		<path id="XMLID_368_" class="st1" d="M385.977-18.89h2.492v-2.058c-0.616,0.103-1.349,0.191-2.198,0.266l-0.21-0.966
			c2.007-0.168,3.78-0.476,5.32-0.924l0.35,0.938c-0.625,0.178-1.372,0.351-2.24,0.519v2.226h2.268v0.966h-2.268v0.561
			c0.7,0.672,1.4,1.428,2.1,2.268l-0.56,0.854c-0.532-0.84-1.045-1.577-1.54-2.212v6.58h-1.022v-6.385
			c-0.569,1.308-1.335,2.516-2.296,3.626l-0.448-1.134c1.25-1.223,2.142-2.608,2.674-4.158h-2.422
			C385.977-17.923,385.977-18.89,385.977-18.89z M396.267-16.986c0.747,1.988,1.423,4.289,2.03,6.902l-1.008,0.253
			c-0.121-0.561-0.233-1.046-0.336-1.456c-1.848,0.363-3.841,0.699-5.978,1.008l-0.196-0.98c0.289-0.084,0.462-0.2,0.518-0.35
			l3.024-10.724l1.008,0.14l-3.066,10.724c1.736-0.252,3.22-0.504,4.452-0.756c-0.392-1.54-0.84-3.023-1.344-4.452L396.267-16.986z"
			/>
		<path id="XMLID_371_" class="st1" d="M409.511-12.856h-5.558v2.996h-0.952v-7.322c-0.784,0.989-1.685,1.891-2.702,2.702
			l-0.658-0.854c1.764-1.4,3.126-3.001,4.088-4.803h-3.71v-0.979h4.172c0.252-0.579,0.457-1.125,0.616-1.639l1.022,0.126
			c-0.205,0.645-0.383,1.148-0.532,1.513h6.958v0.979h-7.378c-0.317,0.645-0.621,1.186-0.91,1.624h6.496v7.561
			c0,0.681-0.392,1.036-1.176,1.063h-1.568l-0.252-0.924c0.709,0.037,1.208,0.056,1.498,0.056c0.364,0,0.546-0.168,0.546-0.504
			C409.511-11.261,409.511-12.856,409.511-12.856z M403.953-17.63v1.526h5.558v-1.526H403.953z M409.511-15.222h-5.558v1.484h5.558
			V-15.222z"/>
		<path id="XMLID_375_" class="st1" d="M422.979-9.915l-0.266-0.98l1.344,0.042c0.392,0,0.588-0.191,0.588-0.574v-9.702h-9.184
			v11.271h-0.994v-12.238h11.172v10.893c0,0.858-0.416,1.288-1.246,1.288C424.393-9.915,422.979-9.915,422.979-9.915z
			 M419.647-13.01c-0.402-0.634-0.845-1.307-1.33-2.016c-0.495,1.362-1.106,2.539-1.834,3.528l-0.644-0.784
			c0.728-1.036,1.33-2.264,1.806-3.683c-0.644-0.858-1.302-1.675-1.974-2.449l0.63-0.603c0.56,0.588,1.115,1.251,1.666,1.988
			c0.271-1.008,0.49-2.063,0.658-3.164l0.924,0.168c-0.224,1.438-0.518,2.753-0.882,3.948c0.616,0.84,1.167,1.638,1.652,2.394
			L419.647-13.01z M423.749-12.366c-0.401-0.69-0.873-1.466-1.414-2.324c-0.56,1.372-1.218,2.548-1.974,3.528l-0.644-0.771
			c0.793-1.073,1.446-2.319,1.96-3.738c-0.691-1.017-1.33-1.885-1.918-2.604l0.63-0.602c0.569,0.644,1.12,1.349,1.652,2.113
			c0.29-0.971,0.537-2.1,0.742-3.388l0.952,0.168c-0.252,1.55-0.588,2.954-1.008,4.214c0.588,0.896,1.157,1.806,1.708,2.73
			L423.749-12.366z"/>
		<path id="XMLID_379_" class="st1" d="M431.127-22.333c-0.7,1.819-1.4,3.257-2.1,4.312c0.579-0.084,1.185-0.182,1.82-0.294
			l0.742-1.498l0.868,0.322c-1.195,2.352-2.188,4.036-2.982,5.054c0.999-0.215,1.983-0.499,2.954-0.854v0.909
			c-1.465,0.514-2.842,0.859-4.13,1.036l-0.266-0.91c0.187-0.084,0.336-0.182,0.448-0.294c0.532-0.588,1.157-1.535,1.876-2.842
			c-0.775,0.141-1.536,0.267-2.282,0.378l-0.252-0.924c0.159-0.074,0.298-0.2,0.42-0.378c0.737-1.26,1.386-2.721,1.946-4.382
			L431.127-22.333z M432.695-11.665c-1.335,0.513-2.898,0.942-4.69,1.287l-0.126-0.993c1.82-0.309,3.425-0.724,4.816-1.246V-11.665z
			 M435.887-22.516c-0.084,0.29-0.215,0.658-0.392,1.106h3.794v0.728c-0.513,1.157-1.255,2.18-2.226,3.066
			c0.98,0.719,2.161,1.273,3.542,1.666l-0.574,0.826c-1.484-0.448-2.721-1.073-3.71-1.876c-1.027,0.765-2.222,1.414-3.584,1.945
			l-0.616-0.812c1.381-0.514,2.539-1.11,3.472-1.792c-0.504-0.504-0.957-1.083-1.358-1.736c-0.392,0.467-0.812,0.882-1.26,1.246
			l-0.588-0.784c1.241-1.017,2.086-2.272,2.534-3.766L435.887-22.516z M439.289-15.081v5.166h-0.966v-0.603h-3.822v0.603h-0.966
			v-5.166H439.289z M434.501-11.442h3.822v-2.716h-3.822V-11.442z M434.781-20.108c0.429,0.719,0.938,1.344,1.526,1.876
			c0.803-0.69,1.433-1.451,1.89-2.282h-3.164L434.781-20.108z"/>
		<path id="XMLID_386_" class="st1" d="M441.123-21.228h1.26l3.122,8.75h0.042l3.122-8.75h1.26l-3.696,9.996h-1.414L441.123-21.228z
			"/>
		<path id="XMLID_388_" class="st1" d="M451.007-21.228h4.088c2.296,0,3.444,0.98,3.444,2.94c0,1.979-1.153,2.968-3.458,2.968
			h-2.926v4.088h-1.148C451.007-11.232,451.007-21.228,451.007-21.228z M452.155-20.234v3.92h2.87c0.793,0,1.391-0.163,1.792-0.49
			c0.383-0.326,0.574-0.821,0.574-1.483c0-0.682-0.196-1.167-0.588-1.456c-0.383-0.327-0.976-0.49-1.778-0.49L452.155-20.234
			L452.155-20.234z"/>
		<path id="XMLID_391_" class="st1" d="M467.107-20.541c0.756,0.588,1.204,1.381,1.344,2.38h-1.106
			c-0.14-0.719-0.495-1.279-1.064-1.681c-0.542-0.373-1.204-0.56-1.988-0.56c-1.158,0-2.054,0.406-2.688,1.218
			c-0.588,0.756-0.882,1.755-0.882,2.996c0,1.26,0.29,2.249,0.868,2.968c0.616,0.775,1.507,1.162,2.674,1.162
			c0.793,0,1.47-0.21,2.03-0.63c0.597-0.457,0.994-1.115,1.19-1.974h1.106c-0.224,1.176-0.747,2.081-1.568,2.716
			c-0.775,0.606-1.694,0.91-2.758,0.91c-1.549,0-2.739-0.514-3.57-1.54c-0.747-0.915-1.12-2.119-1.12-3.612s0.383-2.711,1.148-3.654
			c0.831-1.055,2.025-1.582,3.584-1.582C465.418-21.424,466.351-21.13,467.107-20.541z"/>
	</g>
</g>
<g id="ShadowAutoScaleRect23" transform="translate(202,461)">
	<rect id="XMLID_116_" x="174" y="-446.065" class="st3" width="160" height="70"/>
	<rect id="XMLID_115_" x="172" y="-448.065" class="st4" width="160" height="70"/>
	<g id="XMLID_113_">
		<rect id="XMLID_114_" x="172" y="-448.065" class="st5" width="138" height="50"/>
	</g>
	<g id="XMLID_339_" class="st2">
		<path id="XMLID_340_" class="st6" d="M243.982-383.065l3.299-8.59h1.225l3.516,8.59h-1.295l-1.002-2.602h-3.592l-0.943,2.602
			H243.982z M246.461-386.593h2.912l-0.896-2.379c-0.273-0.723-0.477-1.316-0.609-1.781c-0.109,0.551-0.264,1.098-0.463,1.641
			L246.461-386.593z"/>
		<path id="XMLID_343_" class="st6" d="M256.873-383.065v-0.914c-0.484,0.703-1.143,1.055-1.975,1.055
			c-0.367,0-0.71-0.07-1.028-0.211c-0.318-0.141-0.555-0.317-0.709-0.53c-0.154-0.213-0.263-0.474-0.325-0.782
			c-0.043-0.207-0.064-0.535-0.064-0.984v-3.855h1.055v3.451c0,0.551,0.021,0.922,0.064,1.113c0.066,0.277,0.207,0.495,0.422,0.653
			s0.48,0.237,0.797,0.237s0.613-0.081,0.891-0.243c0.278-0.162,0.474-0.383,0.589-0.662s0.173-0.685,0.173-1.216v-3.334h1.055
			v6.223L256.873-383.065L256.873-383.065z"/>
		<path id="XMLID_345_" class="st6" d="M261.771-384.009l0.152,0.932c-0.297,0.063-0.563,0.094-0.797,0.094
			c-0.383,0-0.68-0.061-0.891-0.182s-0.359-0.28-0.445-0.478s-0.129-0.612-0.129-1.245v-3.58h-0.773v-0.82h0.773v-1.541l1.049-0.633
			v2.174h1.061v0.82h-1.061v3.639c0,0.301,0.019,0.494,0.056,0.58c0.037,0.086,0.098,0.154,0.182,0.205
			c0.084,0.051,0.204,0.076,0.36,0.076C261.426-383.968,261.58-383.981,261.771-384.009z"/>
		<path id="XMLID_347_" class="st6" d="M262.41-386.177c0-1.152,0.32-2.006,0.961-2.561c0.535-0.461,1.188-0.691,1.957-0.691
			c0.855,0,1.555,0.28,2.098,0.841s0.814,1.335,0.814,2.323c0,0.801-0.12,1.431-0.36,1.89s-0.59,0.815-1.049,1.069
			c-0.459,0.254-0.96,0.381-1.503,0.381c-0.871,0-1.575-0.279-2.112-0.838S262.41-385.126,262.41-386.177z M263.494-386.177
			c0,0.797,0.174,1.394,0.521,1.79c0.347,0.396,0.785,0.595,1.313,0.595c0.523,0,0.959-0.199,1.307-0.598s0.521-1.006,0.521-1.822
			c0-0.77-0.175-1.353-0.524-1.749s-0.784-0.595-1.304-0.595c-0.527,0-0.965,0.197-1.313,0.592
			C263.667-387.569,263.494-386.973,263.494-386.177z"/>
		<path id="XMLID_350_" class="st6" d="M272.559-385.825l1.072-0.094c0.051,0.43,0.169,0.782,0.354,1.058s0.474,0.498,0.864,0.668
			c0.39,0.17,0.83,0.255,1.318,0.255c0.434,0,0.816-0.064,1.148-0.193s0.579-0.306,0.741-0.53c0.162-0.224,0.243-0.47,0.243-0.735
			c0-0.27-0.078-0.505-0.234-0.706c-0.156-0.201-0.414-0.37-0.773-0.507c-0.23-0.09-0.74-0.229-1.529-0.419
			s-1.342-0.368-1.658-0.536c-0.41-0.215-0.716-0.481-0.917-0.8s-0.302-0.675-0.302-1.069c0-0.434,0.123-0.839,0.369-1.216
			c0.246-0.377,0.605-0.663,1.078-0.858c0.473-0.195,0.998-0.293,1.576-0.293c0.637,0,1.198,0.103,1.685,0.308
			s0.86,0.507,1.122,0.905c0.262,0.398,0.402,0.85,0.422,1.354l-1.09,0.082c-0.059-0.543-0.257-0.953-0.595-1.23
			c-0.338-0.277-0.837-0.416-1.497-0.416c-0.688,0-1.188,0.126-1.503,0.378c-0.315,0.252-0.472,0.556-0.472,0.911
			c0,0.309,0.111,0.563,0.334,0.762c0.219,0.199,0.79,0.403,1.714,0.612c0.924,0.209,1.558,0.392,1.901,0.548
			c0.5,0.23,0.869,0.522,1.107,0.876s0.357,0.761,0.357,1.222c0,0.457-0.131,0.888-0.393,1.292
			c-0.262,0.404-0.638,0.719-1.128,0.943s-1.042,0.337-1.655,0.337c-0.777,0-1.429-0.113-1.954-0.34
			c-0.525-0.227-0.938-0.567-1.236-1.022S272.574-385.251,272.559-385.825z"/>
		<path id="XMLID_352_" class="st6" d="M284.875-385.345l1.037,0.135c-0.113,0.715-0.403,1.274-0.87,1.679
			c-0.467,0.405-1.04,0.606-1.72,0.606c-0.852,0-1.536-0.278-2.054-0.835c-0.518-0.557-0.776-1.354-0.776-2.394
			c0-0.672,0.111-1.26,0.334-1.764c0.223-0.504,0.562-0.882,1.017-1.134c0.455-0.252,0.95-0.378,1.485-0.378
			c0.676,0,1.229,0.171,1.658,0.513s0.705,0.827,0.826,1.456l-1.025,0.158c-0.098-0.418-0.271-0.732-0.519-0.943
			c-0.248-0.211-0.548-0.316-0.899-0.316c-0.531,0-0.963,0.19-1.295,0.571c-0.332,0.381-0.498,0.983-0.498,1.808
			c0,0.836,0.16,1.443,0.48,1.822c0.32,0.379,0.738,0.568,1.254,0.568c0.414,0,0.76-0.127,1.037-0.381
			C284.624-384.428,284.801-384.817,284.875-385.345z"/>
		<path id="XMLID_354_" class="st6" d="M290.875-383.833c-0.391,0.332-0.767,0.566-1.128,0.703
			c-0.361,0.137-0.749,0.205-1.163,0.205c-0.684,0-1.209-0.167-1.576-0.501s-0.551-0.761-0.551-1.28
			c0-0.305,0.069-0.583,0.208-0.835c0.139-0.252,0.32-0.454,0.545-0.606s0.478-0.268,0.759-0.346
			c0.207-0.055,0.52-0.107,0.938-0.158c0.852-0.102,1.479-0.223,1.881-0.363c0.004-0.145,0.006-0.236,0.006-0.275
			c0-0.43-0.1-0.732-0.299-0.908c-0.27-0.238-0.67-0.357-1.201-0.357c-0.496,0-0.862,0.087-1.099,0.261
			c-0.237,0.174-0.411,0.481-0.524,0.923l-1.031-0.141c0.094-0.441,0.248-0.798,0.463-1.069s0.525-0.48,0.932-0.627
			s0.877-0.22,1.412-0.22c0.531,0,0.963,0.063,1.295,0.188s0.576,0.282,0.732,0.472c0.156,0.19,0.266,0.429,0.328,0.718
			c0.035,0.18,0.053,0.504,0.053,0.973v1.406c0,0.98,0.022,1.601,0.067,1.86s0.134,0.509,0.267,0.747h-1.102
			C290.977-383.284,290.906-383.54,290.875-383.833z M290.787-386.188c-0.383,0.156-0.957,0.289-1.723,0.398
			c-0.434,0.063-0.74,0.133-0.92,0.211c-0.18,0.078-0.318,0.192-0.416,0.343s-0.146,0.317-0.146,0.501
			c0,0.281,0.106,0.516,0.319,0.703s0.524,0.281,0.935,0.281c0.406,0,0.768-0.089,1.084-0.267c0.316-0.178,0.549-0.421,0.697-0.729
			c0.113-0.238,0.17-0.59,0.17-1.055V-386.188z"/>
		<path id="XMLID_357_" class="st6" d="M293.465-383.065v-8.59h1.055v8.59H293.465z"/>
		<path id="XMLID_359_" class="st6" d="M296.16-390.442v-1.213h1.055v1.213H296.16z M296.16-383.065v-6.223h1.055v6.223H296.16z"/>
		<path id="XMLID_362_" class="st6" d="M298.82-383.065v-6.223h0.949v0.885c0.457-0.684,1.117-1.025,1.98-1.025
			c0.375,0,0.72,0.067,1.034,0.202s0.55,0.312,0.706,0.53c0.156,0.218,0.266,0.479,0.328,0.779c0.039,0.195,0.059,0.537,0.059,1.025
			v3.826h-1.055v-3.785c0-0.43-0.041-0.751-0.123-0.964c-0.082-0.213-0.228-0.383-0.437-0.51c-0.209-0.127-0.454-0.19-0.735-0.19
			c-0.449,0-0.837,0.143-1.163,0.428c-0.326,0.285-0.489,0.826-0.489,1.623v3.398L298.82-383.065L298.82-383.065z"/>
		<path id="XMLID_364_" class="st6" d="M305.301-382.55l1.025,0.152c0.043,0.316,0.162,0.547,0.357,0.691
			c0.262,0.195,0.619,0.293,1.072,0.293c0.488,0,0.865-0.098,1.131-0.293c0.266-0.195,0.445-0.469,0.539-0.82
			c0.055-0.215,0.08-0.666,0.076-1.354c-0.461,0.543-1.035,0.814-1.723,0.814c-0.855,0-1.518-0.309-1.986-0.926
			c-0.468-0.617-0.703-1.357-0.703-2.221c0-0.594,0.107-1.142,0.322-1.644c0.215-0.502,0.526-0.89,0.935-1.163
			c0.409-0.273,0.888-0.41,1.438-0.41c0.734,0,1.34,0.297,1.816,0.891v-0.75h0.973v5.379c0,0.969-0.099,1.655-0.296,2.06
			c-0.197,0.405-0.51,0.724-0.938,0.958c-0.428,0.234-0.954,0.352-1.579,0.352c-0.742,0-1.342-0.167-1.799-0.501
			C305.504-381.376,305.285-381.878,305.301-382.55z M306.174-386.288c0,0.816,0.162,1.412,0.486,1.787s0.73,0.563,1.219,0.563
			c0.484,0,0.891-0.187,1.219-0.56s0.492-0.958,0.492-1.755c0-0.762-0.169-1.336-0.507-1.723s-0.745-0.58-1.222-0.58
			c-0.469,0-0.867,0.19-1.195,0.571C306.338-387.604,306.174-387.038,306.174-386.288z"/>
	</g>
	<polygon id="XMLID_111_" class="st6" points="323.87,-385.935 315.51,-394.285 314.81,-393.585 323.16,-385.225 321,-383.065 
		326,-383.065 326,-388.065 	"/>
	<rect id="XMLID_108_" x="172" y="-448.065" class="st7" width="160" height="70"/>
	<g id="XMLID_101_" transform="translate(15 9)">
		<g id="XMLID_103_">
			<path id="XMLID_104_" class="st1" d="M188-419.065c-7.18,0.008-13.007-5.805-13.015-12.985s5.805-13.007,12.985-13.015
				c6.413-0.008,11.874,4.663,12.86,11h2c-1.105-8.21-8.656-13.971-16.866-12.866c-8.21,1.105-13.971,8.656-12.866,16.866
				s8.656,13.971,16.866,12.866c6.697-0.901,11.965-6.169,12.866-12.866h-2C199.845-423.74,194.402-419.073,188-419.065z
				 M195-436.065l-7-4l-7,4v8l3.2,1.83c0.185-0.645,0.529-1.233,1-1.71l-2.2-1.28v-3.7l5,2.86l5-2.86v3.7l-4.14,2.36
				c-0.997-0.475-2.191-0.052-2.666,0.946c-0.475,0.997-0.052,2.191,0.946,2.666c0.997,0.475,2.191,0.052,2.666-0.946
				c0.129-0.27,0.195-0.566,0.194-0.866v-0.14l5-2.86V-436.065z M188-432.365l-4.72-2.7l4.72-2.7l4.72,2.7L188-432.365z"/>
		</g>
		<g id="XMLID_317_" class="st2">
			<path id="XMLID_318_" class="st8" d="M214.742-433.785H227.3v1.008h-6.72c-1.27,2.613-2.394,4.452-3.374,5.516
				c2.511-0.14,5.021-0.378,7.532-0.714c-0.504-0.896-1.064-1.82-1.68-2.771l0.812-0.504c1.269,1.903,2.263,3.588,2.982,5.054
				l-0.896,0.63c-0.243-0.522-0.485-1.018-0.728-1.484c-2.697,0.346-5.796,0.635-9.296,0.868l-0.266-1.021
				c0.056-0.019,0.135-0.052,0.238-0.099c0.905-0.681,2.091-2.506,3.556-5.474h-4.718V-433.785z M216.086-437.691h9.968v0.979
				h-9.968V-437.691z"/>
			<path id="XMLID_321_" class="st8" d="M230.534-430.468c-0.084,1.951-0.416,3.561-0.994,4.83l-0.756-0.7
				c0.55-1.25,0.835-2.864,0.854-4.844v-6.72h4.088v10.906c0,0.858-0.392,1.288-1.176,1.288h-1.12l-0.238-0.896
				c0.522,0.037,0.882,0.056,1.078,0.056c0.354,0,0.532-0.257,0.532-0.77v-3.15H230.534z M232.802-434.625v-2.366h-2.254v2.366
				H232.802z M230.548-433.716v2.339h2.254v-2.339H230.548z M235.854-431.853v6.202h-0.952v-12.264h5.67
				c0,1.735-0.084,2.884-0.252,3.443c-0.168,0.579-0.691,0.868-1.568,0.868h-1.134l-0.266-0.868l0.938,0.015
				c0.308,0,0.555-0.023,0.742-0.07c0.168-0.056,0.294-0.191,0.378-0.406c0.093-0.289,0.154-0.975,0.182-2.058h-3.738v4.242h4.76
				v0.854c-0.262,1.438-0.719,2.665-1.372,3.682c0.616,0.607,1.357,1.157,2.226,1.652l-0.504,0.854
				c-0.877-0.505-1.643-1.078-2.296-1.723c-0.616,0.719-1.339,1.298-2.17,1.736l-0.532-0.813c0.793-0.429,1.47-0.979,2.03-1.651
				c-0.896-1.092-1.498-2.324-1.806-3.696h-0.336V-431.853z M237.058-431.853c0.289,1.073,0.793,2.044,1.512,2.912
				c0.513-0.831,0.896-1.801,1.147-2.912H237.058z"/>
			<path id="XMLID_327_" class="st8" d="M247.838-438.405c-0.14,0.336-0.317,0.69-0.532,1.063h6.104v0.813
				c-0.896,1.036-1.988,1.918-3.276,2.646c1.587,0.672,3.351,1.106,5.292,1.303l-0.462,0.938c-2.212-0.252-4.186-0.812-5.922-1.68
				c-1.718,0.793-3.71,1.362-5.978,1.708l-0.463-0.952c2.025-0.28,3.809-0.729,5.349-1.344c-0.766-0.448-1.493-0.976-2.185-1.582
				c-0.551,0.494-1.134,0.929-1.75,1.302l-0.615-0.813c1.698-0.97,2.837-2.15,3.416-3.542L247.838-438.405z M249.168-432.315
				c0,0.504-0.047,1.036-0.14,1.596h4.928c-0.028,2.371-0.243,3.785-0.645,4.242c-0.41,0.467-1.11,0.7-2.1,0.7
				c-0.233,0-0.779-0.019-1.638-0.056l-0.252-0.91l1.651,0.069c0.831-0.009,1.358-0.187,1.582-0.531
				c0.215-0.336,0.341-1.204,0.378-2.604h-4.144c-0.103,0.346-0.252,0.695-0.448,1.05c-0.719,1.27-2.361,2.311-4.928,3.122
				l-0.672-0.826c2.305-0.672,3.822-1.521,4.55-2.548c0.196-0.289,0.341-0.555,0.434-0.798h-4.172v-0.91h4.452
				c0.112-0.504,0.168-1.036,0.168-1.596H249.168z M251.968-436.389h-5.348l-0.182,0.225c0.774,0.681,1.638,1.269,2.59,1.764
				C250.139-434.952,251.118-435.614,251.968-436.389z"/>
			<path id="XMLID_331_" class="st8" d="M256.826-433.169h4.718c0.252-0.346,0.467-0.724,0.645-1.135l0.966,0.099
				c-0.112,0.289-0.285,0.635-0.519,1.036h3.612c-0.205-0.364-0.415-0.682-0.63-0.952l0.854-0.28
				c0.289,0.383,0.546,0.793,0.771,1.232h1.932v0.896h-3.78c0.905,0.858,2.264,1.535,4.074,2.03l-0.406,0.854
				c-0.214-0.065-0.541-0.182-0.979-0.35v4.088h-0.896v-0.603h-2.617v0.603h-0.896v-4.41h3.682
				c-1.315-0.606-2.328-1.344-3.037-2.212h-2.353c-0.774,0.877-1.824,1.615-3.149,2.212h3.514v4.41h-0.896v-0.603h-2.394v0.603
				h-0.882v-4.13l-1.148,0.392l-0.462-0.826c1.773-0.531,3.154-1.218,4.145-2.058h-3.864v-0.896H256.826z M257.96-437.971h4.271
				v3.402h-4.271C257.96-434.569,257.96-437.971,257.96-437.971z M261.306-435.424v-1.68h-2.436v1.68H261.306z M259.038-427.121
				h2.394v-2.101h-2.394V-427.121z M263.784-437.971h4.354v3.402h-4.354V-437.971z M264.568-427.121h2.617v-2.101h-2.617V-427.121z
				 M267.228-435.424v-1.68h-2.52v1.68H267.228z"/>
		</g>
	</g>
</g>
<path id="XMLID_100_" class="st9" d="M551.833,5.036h426v173.5h-426V5.036"/>
<g id="XMLID_98_" transform="translate(10 10)">
	<g id="XMLID_299_" class="st2">
		<path id="XMLID_300_" class="st8" d="M576.903,5.939h1.26l3.122,8.75h0.042l3.122-8.75h1.26l-3.696,9.996h-1.414L576.903,5.939z"
			/>
		<path id="XMLID_302_" class="st8" d="M586.787,5.939h4.088c2.296,0,3.444,0.98,3.444,2.94c0,1.979-1.153,2.968-3.458,2.968h-2.926
			v4.088h-1.148V5.939L586.787,5.939z M587.935,6.933v3.92h2.87c0.793,0,1.391-0.163,1.792-0.49
			c0.383-0.326,0.574-0.821,0.574-1.483c0-0.682-0.196-1.167-0.588-1.456c-0.383-0.327-0.976-0.49-1.778-0.49L587.935,6.933
			L587.935,6.933z"/>
		<path id="XMLID_305_" class="st8" d="M595.775,5.939h1.204l5.656,8.134h0.042V5.939h1.148v9.996h-1.176l-5.684-8.218h-0.042v8.218
			h-1.148V5.939z"/>
		<path id="XMLID_307_" class="st8" d="M614.759,17.084c-0.467,0-1.288-0.01-2.464-0.028c-0.887-0.01-1.61-0.094-2.17-0.252
			c-0.532-0.168-1.022-0.509-1.47-1.022c-0.177-0.232-0.354-0.35-0.532-0.35c-0.327,0-0.877,0.644-1.652,1.932l-0.756-0.686
			c0.747-1.176,1.405-1.891,1.974-2.143v-4.256h-2.002V9.355h2.94v5.236c0.103,0.074,0.215,0.182,0.336,0.321
			c0.345,0.411,0.705,0.705,1.078,0.883c0.42,0.195,1.041,0.308,1.862,0.336c0.971,0.019,1.876,0.027,2.716,0.027
			c0.429,0,1.101-0.009,2.016-0.027c0.766-0.02,1.288-0.038,1.568-0.057l-0.238,1.009L614.759,17.084L614.759,17.084z
			 M606.625,4.721c0.98,0.756,1.773,1.479,2.38,2.17l-0.728,0.714c-0.551-0.672-1.33-1.414-2.338-2.226L606.625,4.721z
			 M609.593,5.939h2.254c0.233-0.588,0.42-1.102,0.56-1.54l0.966,0.225c-0.168,0.504-0.327,0.942-0.476,1.315h4.914v0.938h-5.306
			c-0.411,0.914-0.877,1.75-1.4,2.506h2.254V7.717h0.966v1.666h3.052v0.924h-3.052v1.666h3.668v0.952h-3.668v2.604h-0.966v-2.604
			h-3.878v-0.952h3.878v-1.666h-3.234l-0.224-0.924c0.569-0.682,1.083-1.517,1.54-2.506h-1.848V5.939z"/>
		<path id="XMLID_311_" class="st8" d="M619.883,17.21l-0.21-0.98c0.504,0.037,0.868,0.056,1.092,0.056
			c0.364,0,0.546-0.2,0.546-0.602v-3.388c-0.374,0.149-0.952,0.354-1.736,0.615l-0.252-1.008c0.634-0.158,1.297-0.364,1.988-0.616
			V8.151h-1.708V7.185h1.708V4.539h1.036v2.646h1.162v0.966h-1.162v2.702c0.364-0.177,0.765-0.383,1.204-0.616v1.022
			c-0.364,0.195-0.765,0.392-1.204,0.588v4.088c0,0.85-0.411,1.274-1.232,1.274L619.883,17.21L619.883,17.21L619.883,17.21z
			 M627.821,10.405c-0.14,0.374-0.294,0.737-0.462,1.092h4.802v0.98h-1.54c-0.215,1.046-0.649,1.923-1.302,2.632
			c0.98,0.458,1.899,0.934,2.758,1.428l-0.546,0.813c-0.84-0.514-1.815-1.036-2.926-1.568c-0.943,0.682-2.413,1.219-4.41,1.61
			l-0.392-0.91c1.652-0.299,2.902-0.695,3.752-1.189c-0.728-0.337-1.643-0.724-2.744-1.162c0.392-0.598,0.728-1.148,1.008-1.652
			h-1.876v-0.98h2.394c0.187-0.41,0.359-0.812,0.518-1.203L627.821,10.405z M626.239,6.863c0.336,0.588,0.667,1.279,0.994,2.072
			h1.372c0.364-0.653,0.695-1.396,0.994-2.226l0.952,0.336c-0.261,0.699-0.555,1.33-0.882,1.89h2.268v0.966h-7.812V8.935h2.142
			c-0.299-0.653-0.583-1.213-0.854-1.68L626.239,6.863z M628.087,4.413c0.149,0.374,0.303,0.817,0.462,1.33h3.136v0.925h-7.238
			V5.743h3.08c-0.149-0.4-0.313-0.788-0.49-1.161L628.087,4.413z M626.841,12.477c-0.271,0.457-0.537,0.873-0.798,1.246
			c0.812,0.308,1.596,0.63,2.352,0.966c0.625-0.588,1.05-1.325,1.274-2.212C629.669,12.477,626.841,12.477,626.841,12.477z"/>
	</g>
</g>
<g id="XMLID_96_" transform="translate(10 10)">
	<g id="XMLID_265_" class="st2">
		<path id="XMLID_266_" class="st8" d="M586.551-54.367l-0.238,2.269h2.982c0,2.314-0.075,3.859-0.224,4.634
			c-0.178,0.803-0.892,1.232-2.142,1.288c-0.215,0-0.546-0.019-0.994-0.056l-0.252-0.938c0.448,0.037,0.789,0.056,1.022,0.056
			c0.821,0,1.297-0.257,1.428-0.77c0.14-0.532,0.21-1.643,0.21-3.332h-3.052l0.364-4.032h2.548v-2.184h-2.758v-0.882h3.738v3.947
			H586.551z M590.387-56.634h4.06c0.429-0.747,0.793-1.535,1.092-2.366l0.966,0.336c-0.299,0.747-0.654,1.424-1.064,2.03h1.834
			v5.614h-2.982v1.357h3.598v0.938h-3.598v2.688h-0.98v-2.687h-3.542v-0.938h3.542v-1.358h-2.926L590.387-56.634L590.387-56.634z
			 M592.039-58.916c0.411,0.569,0.775,1.181,1.092,1.834l-0.868,0.378c-0.308-0.672-0.691-1.311-1.148-1.918L592.039-58.916z
			 M591.283-54.226h2.03v-1.555h-2.03V-54.226z M593.312-51.874v-1.512h-2.03v1.512H593.312z M594.292-55.781v1.555h2.072v-1.555
			H594.292z M596.365-51.874v-1.512h-2.072v1.512H596.365z"/>
		<path id="XMLID_274_" class="st8" d="M600.327-56.144c-0.028,1.362-0.187,2.697-0.476,4.004l-0.826-0.238
			c0.298-1.204,0.466-2.478,0.504-3.822L600.327-56.144z M601.04-58.861h1.022v12.74h-1.022V-58.861z M603.042-56.494
			c0.299,0.663,0.569,1.452,0.812,2.366c0.485-1.232,0.761-2.534,0.826-3.906l0.91,0.126c-0.028,0.588-0.084,1.148-0.168,1.681
			h2.002v-2.618h1.036v2.618h3.052v0.979h-3.052v3.374h2.842v0.994h-2.842v3.416h3.416v0.98h-8.456v-0.98h4.004v-3.416h-3.206
			v-0.994h3.206v-3.374h-2.184c-0.252,1.027-0.621,1.97-1.106,2.828l-0.756-0.672c0.158-0.308,0.298-0.603,0.42-0.882l-0.7,0.182
			c-0.215-0.868-0.481-1.689-0.798-2.464L603.042-56.494z"/>
		<path id="XMLID_278_" class="st8" d="M617.463-58.762h1.022v11.13h1.988v-11.13h1.022v11.13h4.2v0.979H613.29v-0.979h4.172
			L617.463-58.762L617.463-58.762z M614.495-56.242c0.737,1.923,1.391,4.093,1.96,6.511l-0.924,0.237
			c-0.504-2.239-1.134-4.396-1.89-6.468L614.495-56.242z M625.317-55.962c-0.56,2.445-1.265,4.578-2.114,6.398l-0.91-0.322
			c0.821-1.661,1.531-3.771,2.128-6.328L625.317-55.962z"/>
		<path id="XMLID_282_" class="st8" d="M632.331-58.804c-0.14,0.336-0.317,0.69-0.532,1.063h6.104v0.813
			c-0.896,1.036-1.988,1.918-3.276,2.646c1.587,0.672,3.351,1.106,5.292,1.303l-0.462,0.938c-2.212-0.252-4.186-0.812-5.922-1.68
			c-1.717,0.793-3.71,1.362-5.978,1.708l-0.462-0.952c2.025-0.28,3.808-0.729,5.348-1.344c-0.766-0.448-1.494-0.976-2.184-1.582
			c-0.551,0.494-1.134,0.929-1.75,1.302l-0.616-0.813c1.699-0.97,2.837-2.15,3.416-3.542L632.331-58.804z M633.661-52.714
			c0,0.504-0.047,1.036-0.14,1.596h4.928c-0.028,2.371-0.243,3.785-0.644,4.242c-0.411,0.467-1.111,0.7-2.1,0.7
			c-0.233,0-0.779-0.019-1.638-0.056l-0.252-0.91l1.652,0.069c0.831-0.009,1.358-0.187,1.582-0.531
			c0.214-0.336,0.34-1.204,0.378-2.604h-4.144c-0.103,0.346-0.252,0.695-0.448,1.05c-0.719,1.27-2.361,2.311-4.928,3.122
			l-0.672-0.826c2.305-0.672,3.822-1.521,4.55-2.548c0.196-0.289,0.341-0.555,0.434-0.798h-4.172v-0.91h4.452
			c0.112-0.504,0.168-1.036,0.168-1.596C632.667-52.714,633.661-52.714,633.661-52.714z M636.46-56.788h-5.348l-0.182,0.225
			c0.774,0.681,1.638,1.269,2.59,1.764C634.631-55.351,635.611-56.013,636.46-56.788z"/>
		<path id="XMLID_286_" class="st8" d="M641.515-46.19l-0.21-0.98c0.635,0.037,1.083,0.056,1.344,0.056
			c0.401,0,0.602-0.21,0.602-0.63v-3.332c-0.644,0.206-1.288,0.401-1.932,0.588l-0.252-0.966c0.747-0.168,1.475-0.363,2.184-0.588
			v-3.206h-1.946v-0.966h1.946v-2.632h1.022v2.632h1.694v0.966h-1.694v2.842c0.495-0.195,1.055-0.442,1.68-0.741v1.008
			c-0.374,0.168-0.934,0.401-1.68,0.7v3.947c0,0.868-0.425,1.303-1.274,1.303L641.515-46.19L641.515-46.19z M645.785-58.104h7.91
			v0.979h-4.256c-0.205,1.382-0.537,2.613-0.994,3.696h4.62v7.378h-0.98v-0.657h-3.78v0.658h-0.966v-5.348
			c-0.523,0.774-1.148,1.475-1.876,2.1l-0.476-0.924c1.932-1.681,3.084-3.98,3.458-6.902h-2.66L645.785-58.104L645.785-58.104z
			 M652.084-47.66v-4.816h-3.78v4.815L652.084-47.66L652.084-47.66z"/>
		<path id="XMLID_290_" class="st8" d="M657.181-50.306c-0.28,1.567-0.742,2.981-1.386,4.242l-0.812-0.729
			c0.961-1.773,1.446-4.051,1.456-6.832v-4.731h10.388v3.359h-1.946v1.414h2.198v0.896h-2.198v1.456h2.66v0.924h-4.494
			c0.345,0.606,0.798,1.162,1.358,1.666c0.644-0.346,1.246-0.873,1.806-1.582l0.7,0.686c-0.523,0.635-1.097,1.13-1.722,1.484
			c0.803,0.514,1.736,0.882,2.8,1.105l-0.49,0.952c-2.576-0.644-4.396-2.081-5.46-4.312h-1.904v3.052
			c0.84-0.205,1.628-0.462,2.366-0.77l0.196,0.924c-1.036,0.383-2.296,0.723-3.78,1.021l-0.28-0.882
			c0.336-0.131,0.504-0.364,0.504-0.7v-2.643C659.141-50.306,657.181-50.306,657.181-50.306z M658.062-53.582h2.044v-1.414h-2.646
			v1.372c0,0.756-0.046,1.554-0.14,2.395h2.786v-1.456h-2.044V-53.582z M665.819-57.432h-8.358v1.525h8.358V-57.432z
			 M663.901-54.996h-2.828v1.414h2.828V-54.996z M661.073-51.23h2.828v-1.456h-2.828V-51.23z"/>
		<path id="XMLID_296_" class="st8" d="M670.144-58.328h11.116v0.966h-10.15v9.744h10.556v0.966h-11.522V-58.328z M673.099-56.075
			c1.325,1.009,2.524,1.988,3.598,2.94c0.784-1.008,1.475-2.184,2.072-3.528l0.91,0.49c-0.635,1.438-1.368,2.684-2.198,3.738
			c1.092,1.008,2.086,2.002,2.982,2.981l-0.784,0.784c-0.84-0.998-1.797-1.992-2.87-2.981c-1.232,1.315-2.651,2.323-4.256,3.023
			l-0.588-0.91c1.549-0.635,2.907-1.577,4.074-2.828c-1.176-1.035-2.399-2.039-3.668-3.01L673.099-56.075z"/>
	</g>
</g>
<g id="XMLID_94_" transform="translate(10 10)">
	<g id="XMLID_248_" class="st2">
		<path id="XMLID_249_" class="st8" d="M356.288-58.818h1.036v12.656h-1.036v-2.464c-1.148,0.532-2.432,1.004-3.85,1.414
			l-0.238-0.994c1.418-0.317,2.781-0.793,4.088-1.428v-4.382h-3.85v-0.966h3.85V-58.818z M360.74-46.288
			c-0.877,0-1.316-0.448-1.316-1.344v-11.2h1.022v4.718c1.251-0.438,2.469-1.04,3.654-1.806l0.574,0.813
			c-1.512,0.887-2.921,1.54-4.228,1.96v5.361c0,0.364,0.173,0.546,0.518,0.546h1.862c0.336,0,0.588-0.107,0.756-0.321
			c0.13-0.225,0.224-1.018,0.28-2.38l0.952,0.308c-0.084,1.577-0.248,2.529-0.49,2.855c-0.252,0.327-0.696,0.49-1.33,0.49
			C362.994-46.288,360.74-46.288,360.74-46.288z"/>
		<path id="XMLID_252_" class="st8" d="M370.162-49.62c-0.924,1.26-2.025,2.343-3.304,3.248l-0.63-0.812
			c1.26-0.858,2.338-1.886,3.234-3.08L370.162-49.62z M372.332-58.972c0.233,0.494,0.443,1.021,0.63,1.582h5.74v0.937h-12.404
			v-0.937h5.642c-0.215-0.561-0.429-1.026-0.644-1.4L372.332-58.972z M368.048-55.094h8.918v3.92h-3.906v3.738
			c0,0.84-0.425,1.26-1.274,1.26h-1.512l-0.224-0.966c0.532,0.046,0.994,0.069,1.386,0.069c0.411,0,0.616-0.205,0.616-0.615v-3.486
			h-4.004C368.048-51.174,368.048-55.094,368.048-55.094z M375.958-52.14v-1.988h-6.902v1.988H375.958z M375.524-50.279
			c1.288,1.074,2.361,2.124,3.22,3.15l-0.742,0.742c-0.765-0.999-1.811-2.077-3.136-3.234L375.524-50.279z"/>
		<path id="XMLID_258_" class="st8" d="M379.57-57.46h1.26l3.122,8.75h0.042l3.122-8.75h1.26l-3.696,9.996h-1.414L379.57-57.46z"/>
		<path id="XMLID_260_" class="st8" d="M389.454-57.46h4.088c2.296,0,3.444,0.98,3.444,2.94c0,1.979-1.153,2.968-3.458,2.968h-2.926
			v4.088h-1.148C389.454-47.464,389.454-57.46,389.454-57.46z M390.602-56.466v3.92h2.87c0.793,0,1.391-0.163,1.792-0.49
			c0.383-0.326,0.574-0.821,0.574-1.483c0-0.682-0.196-1.167-0.588-1.456c-0.383-0.327-0.976-0.49-1.778-0.49L390.602-56.466
			L390.602-56.466z"/>
		<path id="XMLID_263_" class="st8" d="M405.554-56.774c0.756,0.588,1.204,1.381,1.344,2.38h-1.106
			c-0.14-0.719-0.495-1.279-1.064-1.681c-0.542-0.373-1.204-0.56-1.988-0.56c-1.158,0-2.054,0.406-2.688,1.218
			c-0.588,0.757-0.882,1.756-0.882,2.997c0,1.26,0.29,2.249,0.868,2.968c0.616,0.775,1.507,1.162,2.674,1.162
			c0.793,0,1.47-0.21,2.03-0.63c0.597-0.457,0.994-1.115,1.19-1.974h1.106c-0.224,1.176-0.747,2.081-1.568,2.716
			c-0.775,0.606-1.694,0.91-2.758,0.91c-1.549,0-2.739-0.514-3.57-1.54c-0.747-0.915-1.12-2.119-1.12-3.612
			c0-1.493,0.383-2.711,1.148-3.655c0.83-1.054,2.025-1.582,3.584-1.582C403.865-57.657,404.798-57.363,405.554-56.774z"/>
	</g>
</g>
<g id="XMLID_92_" transform="translate(10 10)">
	<g id="XMLID_231_" class="st2">
		<path id="XMLID_232_" class="st8" d="M834.288-58.819h1.036v12.656h-1.036v-2.464c-1.148,0.532-2.432,1.004-3.851,1.414
			l-0.237-0.994c1.418-0.317,2.78-0.793,4.088-1.428v-4.382h-3.851v-0.966h3.851V-58.819L834.288-58.819z M838.74-46.289
			c-0.878,0-1.316-0.448-1.316-1.344v-11.2h1.021v4.718c1.251-0.438,2.469-1.04,3.654-1.806l0.574,0.813
			c-1.512,0.887-2.922,1.54-4.229,1.96v5.361c0,0.364,0.173,0.546,0.519,0.546h1.862c0.336,0,0.588-0.107,0.756-0.321
			c0.13-0.225,0.224-1.018,0.279-2.38l0.952,0.308c-0.084,1.577-0.247,2.529-0.489,2.855c-0.253,0.327-0.696,0.49-1.33,0.49
			C840.993-46.289,838.74-46.289,838.74-46.289z"/>
		<path id="XMLID_235_" class="st8" d="M848.162-49.621c-0.925,1.26-2.025,2.343-3.305,3.248l-0.63-0.812
			c1.26-0.858,2.338-1.886,3.234-3.08L848.162-49.621z M850.332-58.973c0.233,0.494,0.443,1.021,0.63,1.582h5.74v0.937h-12.404
			v-0.937h5.642c-0.215-0.561-0.429-1.026-0.644-1.4L850.332-58.973z M846.048-55.095h8.918v3.92h-3.906v3.738
			c0,0.84-0.425,1.26-1.273,1.26h-1.513l-0.224-0.966c0.532,0.046,0.994,0.069,1.386,0.069c0.411,0,0.616-0.205,0.616-0.615v-3.486
			h-4.004V-55.095L846.048-55.095z M853.958-52.141v-1.988h-6.902v1.988H853.958z M853.523-50.28
			c1.288,1.074,2.361,2.124,3.221,3.15l-0.742,0.742c-0.766-0.999-1.811-2.077-3.136-3.234L853.523-50.28z"/>
		<path id="XMLID_241_" class="st8" d="M858.592-57.461h1.134v9.996h-1.134V-57.461z"/>
		<path id="XMLID_243_" class="st8" d="M861.825-57.461h3.584c1.587,0,2.781,0.457,3.584,1.372c0.747,0.85,1.12,2.058,1.12,3.626
			c0,1.54-0.401,2.749-1.204,3.626c-0.84,0.915-2.044,1.372-3.611,1.372h-3.473L861.825-57.461L861.825-57.461z M862.974-56.467
			v8.008h2.128c1.297,0,2.277-0.345,2.94-1.036c0.625-0.681,0.938-1.67,0.938-2.968c0-1.335-0.289-2.328-0.868-2.982
			c-0.615-0.681-1.577-1.021-2.884-1.021L862.974-56.467L862.974-56.467z"/>
		<path id="XMLID_246_" class="st8" d="M878.822-56.775c0.756,0.588,1.204,1.381,1.344,2.38h-1.106
			c-0.14-0.719-0.494-1.279-1.063-1.681c-0.542-0.373-1.204-0.56-1.988-0.56c-1.157,0-2.054,0.406-2.688,1.218
			c-0.589,0.756-0.883,1.755-0.883,2.996c0,1.26,0.29,2.249,0.868,2.968c0.616,0.775,1.508,1.162,2.674,1.162
			c0.794,0,1.471-0.21,2.03-0.63c0.598-0.457,0.994-1.115,1.19-1.974h1.105c-0.224,1.176-0.746,2.081-1.567,2.716
			c-0.775,0.606-1.694,0.91-2.759,0.91c-1.549,0-2.739-0.514-3.569-1.54c-0.747-0.915-1.12-2.119-1.12-3.612
			c0-1.493,0.383-2.711,1.147-3.654c0.831-1.055,2.025-1.582,3.584-1.582C877.133-57.658,878.065-57.364,878.822-56.775z"/>
	</g>
</g>
<g id="Link21_3_" transform="translate(0,0)">
	<path id="XMLID_91_" class="st10" d="M625.833,139.435H700"/>
	<g id="XMLID_89_" transform="translate(0, -0.5)">
		<polygon id="XMLID_90_" class="st11" points="695.5,144.435 701.5,139.935 695.5,135.435 		"/>
	</g>
	<path id="XMLID_86_" class="st12" d="M625.833,139.435"/>
	<path id="XMLID_83_" class="st12" d="M625.833,139.435H700"/>
</g>
<g id="XMLID_80_">
	<rect id="XMLID_82_" x="565.333" y="34.935" class="st3" width="118" height="50"/>
	<rect id="XMLID_81_" x="563.333" y="32.935" class="st5" width="118" height="50"/>
</g>
<g id="XMLID_216_" class="st2">
	<path id="XMLID_217_" class="st8" d="M615.403,52.939h1.26l3.122,8.75h0.042l3.122-8.75h1.26l-3.696,9.996h-1.414L615.403,52.939z"
		/>
	<path id="XMLID_219_" class="st8" d="M625.287,52.939h4.088c2.296,0,3.444,0.98,3.444,2.94c0,1.979-1.153,2.968-3.458,2.968h-2.926
		v4.088h-1.148V52.939z M626.435,53.933v3.92h2.87c0.793,0,1.391-0.163,1.792-0.49c0.383-0.326,0.574-0.821,0.574-1.483
		c0-0.682-0.196-1.167-0.588-1.456c-0.383-0.327-0.976-0.49-1.778-0.49L626.435,53.933L626.435,53.933z"/>
	<path id="XMLID_222_" class="st8" d="M634.275,52.939h1.204l5.656,8.134h0.042v-8.134h1.148v9.996h-1.176l-5.684-8.218h-0.042
		v8.218h-1.148V52.939L634.275,52.939z"/>
	<path id="XMLID_224_" class="st8" d="M653.259,64.251l-0.266-0.98l1.344,0.042c0.392,0,0.588-0.191,0.588-0.574v-9.702h-9.184
		v11.271h-0.994V52.072h11.172v10.893c0,0.858-0.416,1.288-1.246,1.288h-1.414V64.251L653.259,64.251z M649.927,61.156
		c-0.402-0.634-0.845-1.307-1.33-2.016c-0.495,1.362-1.106,2.539-1.834,3.528l-0.644-0.784c0.728-1.036,1.33-2.264,1.806-3.683
		c-0.644-0.858-1.302-1.675-1.974-2.449l0.63-0.603c0.56,0.588,1.115,1.251,1.666,1.988c0.271-1.008,0.49-2.063,0.658-3.164
		l0.924,0.168c-0.224,1.438-0.518,2.753-0.882,3.948c0.616,0.84,1.167,1.638,1.652,2.394L649.927,61.156z M654.029,61.801
		c-0.401-0.69-0.873-1.466-1.414-2.324c-0.56,1.372-1.218,2.548-1.974,3.528l-0.644-0.771c0.793-1.073,1.446-2.319,1.96-3.738
		c-0.691-1.017-1.33-1.885-1.918-2.604l0.63-0.602c0.569,0.644,1.12,1.349,1.652,2.113c0.29-0.971,0.537-2.1,0.742-3.388
		l0.952,0.168c-0.252,1.55-0.588,2.954-1.008,4.214c0.588,0.896,1.157,1.806,1.708,2.73L654.029,61.801z"/>
	<path id="XMLID_228_" class="st8" d="M667.903,51.693c-0.336,1.018-0.756,1.923-1.26,2.716h2.884v0.98h-4.676v0.658
		c-0.028,0.774-0.093,1.423-0.196,1.945h5.684v0.98h-5.096c0.69,1.895,2.501,3.364,5.432,4.41l-0.588,0.938
		c-3.071-1.241-4.984-2.931-5.74-5.067c-0.271,0.812-0.625,1.512-1.064,2.1c-0.961,1.241-2.516,2.202-4.662,2.884l-0.546-0.882
		c2.146-0.69,3.64-1.596,4.48-2.716c0.345-0.514,0.611-1.068,0.798-1.666h-5.026v-0.98h5.278c0.131-0.615,0.201-1.265,0.21-1.945
		V55.39h-4.69v-0.98h6.398c0.513-0.783,0.985-1.777,1.414-2.981L667.903,51.693z M661.673,51.553
		c0.579,0.756,1.111,1.549,1.596,2.38l-0.91,0.462c-0.513-0.915-1.05-1.713-1.61-2.394L661.673,51.553z"/>
</g>
<path id="XMLID_78_" class="st1" d="M588.75,69.831c-7.18,0-13-5.82-13-13s5.82-13,13-13c6.498,0,11.866,4.772,12.831,11h2.021
	c-0.98-7.336-7.247-13-14.851-13c-8.284,0-15,6.716-15,15s6.716,15,15,15c7.604,0,13.871-5.664,14.851-13h-2.021
	C600.616,65.059,595.248,69.831,588.75,69.831z"/>
<rect id="XMLID_77_" x="580.75" y="51.831" class="st1" width="16" height="2"/>
<rect id="XMLID_76_" x="580.75" y="62.831" class="st1" width="16" height="2"/>
<rect id="XMLID_75_" x="580.75" y="51.831" class="st1" width="2" height="3"/>
<rect id="XMLID_74_" x="580.75" y="61.831" class="st1" width="2" height="3"/>
<rect id="XMLID_73_" x="594.75" y="61.831" class="st1" width="2" height="3"/>
<rect id="XMLID_72_" x="594.75" y="51.831" class="st1" width="2" height="3"/>
<rect id="XMLID_71_" x="583.75" y="47.831" class="st1" width="2" height="4"/>
<rect id="XMLID_70_" x="591.75" y="47.831" class="st1" width="2" height="4"/>
<rect id="XMLID_69_" x="586.35" y="55.915" class="st1" width="2" height="5"/>
<rect id="XMLID_68_" x="594.708" y="55.915" class="st1" width="2" height="5"/>
<rect id="XMLID_67_" x="591.708" y="55.915" class="st1" width="2" height="5"/>
<rect id="XMLID_66_" x="589.35" y="55.915" class="st1" width="2" height="3"/>
<rect id="XMLID_65_" x="587.35" y="57.915" class="st1" width="3" height="1"/>
<rect id="XMLID_64_" x="587.204" y="55.915" class="st1" width="3" height="1"/>
<polygon id="XMLID_63_" class="st1" points="592.708,55.915 594.708,60.915 595.708,60.915 593.708,55.915 "/>
<polygon id="XMLID_62_" class="st1" points="580.671,55.965 582.171,60.965 584.171,60.965 582.671,55.965 "/>
<polygon id="XMLID_61_" class="st1" points="586.171,55.965 584.271,60.965 582.271,60.965 584.171,55.965 "/>
<g id="XMLID_56_">
	<rect id="XMLID_58_" x="850.833" y="29.403" class="st3" width="118" height="50"/>
	<rect id="XMLID_57_" x="848.833" y="27.725" class="st5" width="118" height="50"/>
</g>
<g id="XMLID_198_" class="st2">
	<path id="XMLID_199_" class="st8" d="M905,51.015c0.793,0.858,1.609,1.814,2.449,2.869c0.523-1.26,0.831-2.632,0.924-4.115h-3.836
		v-0.98h4.746v0.742c-0.074,1.923-0.471,3.654-1.189,5.194c0.578,0.774,1.119,1.563,1.623,2.365l-0.728,0.729
		c-0.401-0.672-0.863-1.377-1.386-2.114c-0.766,1.335-1.797,2.539-3.094,3.612l-0.588-0.882c1.315-1.009,2.338-2.198,3.065-3.57
		c-0.756-1.018-1.643-2.091-2.659-3.22L905,51.015z M910.768,52.723c0.952,1.166,1.676,2.188,2.17,3.065l-0.798,0.561
		c-0.56-0.971-1.274-1.993-2.142-3.066L910.768,52.723z M910.012,50.105h4.06v-2.744h1.009v2.744h1.553v0.966h-1.553v7.7
		c0,0.942-0.481,1.414-1.442,1.414h-2.198l-0.21-0.994c0.812,0.046,1.498,0.069,2.058,0.069c0.523,0,0.784-0.247,0.784-0.741v-7.448
		h-4.06L910.012,50.105L910.012,50.105z"/>
	<path id="XMLID_203_" class="st8" d="M922.346,58.112c-1.223,0.476-2.618,0.891-4.186,1.246l-0.252-0.994
		c0.84-0.14,1.646-0.322,2.422-0.546c0.326-2.007,0.568-4.172,0.728-6.496l0.909,0.126c-0.158,2.1-0.414,4.135-0.77,6.104
		c0.859-0.308,1.241-0.442,1.148-0.405L922.346,58.112L922.346,58.112z M917.936,49.727h1.834c-0.205-0.784-0.42-1.451-0.645-2.002
		l1.008-0.168c0.188,0.615,0.383,1.339,0.589,2.17h1.638v0.951h-4.424L917.936,49.727L917.936,49.727z M919.084,51.504
		c0.289,1.578,0.555,3.416,0.797,5.517l-0.825,0.21c-0.206-1.895-0.472-3.715-0.798-5.46L919.084,51.504z M922.682,52.162h7.966
		v0.924h-3.683c-0.093,0.439-0.229,0.887-0.405,1.344h3.683v4.69c0,0.7-0.295,1.05-0.883,1.05h-0.645l-0.237-0.91l0.573,0.042
		c0.188,0,0.281-0.126,0.281-0.378v-3.598h-1.261v4.62h-0.854v-4.62h-1.133v4.634h-0.854v-4.634h-1.231v4.844h-0.91v-5.74h2.492
		c0.186-0.476,0.316-0.924,0.392-1.344h-3.29v-0.924L922.682,52.162L922.682,52.162z M928.996,50.105v-2.143h0.951v3.024h-6.664
		v-3.024h0.967v2.143h1.861v-2.688h0.98v2.688H928.996z"/>
	<path id="XMLID_209_" class="st8" d="M941.26,60.143l-0.266-0.98l1.344,0.042c0.392,0,0.588-0.191,0.588-0.574v-9.702h-9.184V60.2
		h-0.994V47.964h11.172v10.893c0,0.858-0.416,1.288-1.246,1.288h-1.414V60.143z M937.928,57.048
		c-0.402-0.634-0.846-1.307-1.33-2.016c-0.495,1.362-1.105,2.539-1.834,3.528l-0.645-0.784c0.729-1.036,1.33-2.264,1.807-3.683
		c-0.645-0.858-1.303-1.675-1.975-2.449l0.631-0.603c0.56,0.588,1.115,1.251,1.666,1.988c0.27-1.008,0.489-2.063,0.657-3.164
		l0.925,0.168c-0.225,1.438-0.519,2.753-0.883,3.948c0.616,0.84,1.167,1.638,1.652,2.394L937.928,57.048z M942.029,57.692
		c-0.401-0.69-0.873-1.466-1.414-2.324c-0.56,1.372-1.218,2.548-1.974,3.528l-0.644-0.771c0.793-1.073,1.445-2.319,1.959-3.738
		c-0.69-1.017-1.33-1.885-1.918-2.604l0.631-0.602c0.568,0.644,1.119,1.349,1.651,2.113c0.29-0.971,0.536-2.1,0.742-3.388
		l0.952,0.168c-0.252,1.55-0.588,2.954-1.008,4.214c0.588,0.896,1.156,1.806,1.707,2.73L942.029,57.692z"/>
	<path id="XMLID_213_" class="st8" d="M955.903,47.584c-0.336,1.018-0.756,1.923-1.26,2.716h2.884v0.98h-4.676v0.658
		c-0.027,0.774-0.094,1.423-0.196,1.945h5.685v0.98h-5.096c0.689,1.895,2.5,3.364,5.432,4.41l-0.588,0.938
		c-3.071-1.241-4.984-2.931-5.74-5.067c-0.271,0.812-0.625,1.512-1.064,2.1c-0.961,1.241-2.516,2.202-4.662,2.884l-0.545-0.882
		c2.146-0.69,3.639-1.596,4.479-2.716c0.345-0.514,0.61-1.068,0.798-1.666h-5.025v-0.98h5.277c0.131-0.615,0.201-1.265,0.21-1.945
		v-0.658h-4.69v-0.98h6.398c0.514-0.783,0.984-1.777,1.414-2.981L955.903,47.584z M949.674,47.444
		c0.578,0.756,1.11,1.549,1.596,2.38l-0.91,0.462c-0.514-0.915-1.05-1.713-1.609-2.394L949.674,47.444z"/>
</g>
<line id="XMLID_35_" class="st13" x1="625.5" y1="139.935" x2="625.5" y2="84.935"/>
<g id="XMLID_24_">
	<g id="Link21_10_" transform="translate(0,0)">
		<path id="XMLID_34_" class="st10" d="M909.333,139.601V86.434"/>
		<g id="XMLID_32_" transform="translate(0, -0.5)">
			<polygon id="XMLID_33_" class="st11" points="913.833,91.435 909.333,85.435 904.833,91.435 			"/>
		</g>
		<path id="XMLID_29_" class="st12" d="M909.333,139.601"/>
		<path id="XMLID_26_" class="st12" d="M909.333,139.601V86.434"/>
	</g>
	<line id="XMLID_25_" class="st13" x1="909.833" y1="139.935" x2="797.833" y2="139.935"/>
</g>
<rect id="XMLID_23_" x="706.5" y="114.935" class="st3" width="119" height="50"/>
<rect id="XMLID_22_" x="704.5" y="112.935" class="st5" width="119" height="50"/>
<g id="XMLID_13_">
	<polygon id="XMLID_19_" class="st1" points="734.5,147.384 734.5,135.362 736.5,135.362 736.5,142.362 738.5,142.362 	"/>
	<rect id="XMLID_18_" x="731.5" y="142.362" class="st1" width="2" height="2"/>
	<rect id="XMLID_17_" x="728.5" y="135.362" class="st1" width="2" height="12"/>
	<polygon id="XMLID_16_" class="st1" points="730.5,124.362 730.5,132.362 728.5,132.362 728.5,129.384 726.5,129.384 	"/>
	<rect id="XMLID_15_" x="734.5" y="124.384" class="st1" width="2" height="7.979"/>
	<polygon id="XMLID_14_" class="st1" points="718.5,131.362 718.5,144.362 726.5,144.362 726.5,142.362 720.5,142.362 
		720.5,133.362 745.5,133.362 745.5,142.362 740.5,142.362 738.9,144.362 747.5,144.362 747.5,131.362 	"/>
</g>
<g id="XMLID_93_">
	<polygon id="XMLID_11_" class="st14" points="994,28.467 1156.28,27.725 1156.561,89.724 994.281,90.467 	"/>
	
		<rect id="XMLID_10_" x="1006.16" y="40.083" transform="matrix(-1 0.0046 -0.0046 -1 2162.8975 125.1956)" class="st3" width="150.29" height="50.004"/>
	
		<rect id="XMLID_9_" x="1004.151" y="38.092" transform="matrix(-1 0.0046 -0.0046 -1 2158.8704 121.2227)" class="st5" width="150.29" height="50.004"/>
	
		<rect id="XMLID_8_" x="1001.138" y="35.106" transform="matrix(-1 0.0046 -0.0046 -1 2152.8306 115.2646)" class="st3" width="150.29" height="50.004"/>
	
		<rect id="XMLID_7_" x="999.129" y="33.115" transform="matrix(-1 0.0046 -0.0046 -1 2148.8035 111.2919)" class="st5" width="150.29" height="50.004"/>
	
		<rect id="XMLID_6_" x="996.116" y="30.128" transform="matrix(-1 0.0046 -0.0046 -1 2142.7634 105.3317)" class="st3" width="150.29" height="50.004"/>
	
		<rect id="XMLID_5_" x="994.107" y="28.138" transform="matrix(-1 0.0046 -0.0046 -1 2138.7361 101.3609)" class="st5" width="150.29" height="50.004"/>
	<g id="XMLID_2_" class="st2">
		<path id="XMLID_3_" class="st8" d="M1043.791,54.772c-0.075,1.951-0.399,3.563-0.973,4.835l-0.759-0.697
			c0.545-1.252,0.822-2.868,0.832-4.848l-0.03-6.72l4.088-0.019l0.05,10.906c0.004,0.858-0.387,1.29-1.171,1.294l-1.119,0.005
			l-0.243-0.896c0.523,0.035,0.883,0.052,1.079,0.051c0.354-0.002,0.53-0.259,0.528-0.771l-0.015-3.15L1043.791,54.772z
			 M1046.04,50.605l-0.011-2.366l-2.254,0.01l0.011,2.366L1046.04,50.605z M1043.79,51.524l0.011,2.339l2.254-0.01l-0.011-2.339
			L1043.79,51.524z M1049.104,53.362l0.028,6.202l-0.952,0.005l-0.056-12.264l5.67-0.025c0.008,1.735-0.071,2.884-0.236,3.444
			c-0.165,0.579-0.687,0.871-1.563,0.875l-1.134,0.005l-0.271-0.867l0.938,0.011c0.308-0.001,0.555-0.025,0.741-0.073
			c0.168-0.057,0.293-0.193,0.376-0.408c0.093-0.29,0.149-0.976,0.173-2.059l-3.738,0.017l0.02,4.242l4.76-0.021l0.004,0.854
			c-0.255,1.439-0.707,2.669-1.355,3.688c0.619,0.604,1.363,1.15,2.233,1.642l-0.5,0.857c-0.88-0.501-1.647-1.071-2.304-1.713
			c-0.613,0.722-1.333,1.305-2.162,1.746l-0.536-0.81c0.792-0.433,1.466-0.986,2.023-1.661c-0.901-1.087-1.509-2.317-1.823-3.688
			L1049.104,53.362z M1050.309,53.357c0.294,1.071,0.803,2.04,1.525,2.905c0.509-0.834,0.888-1.805,1.135-2.918L1050.309,53.357z"/>
		<path id="XMLID_131_" class="st8" d="M1061.059,46.757c-0.138,0.336-0.314,0.691-0.526,1.065l6.104-0.027l0.004,0.813
			c-0.892,1.04-1.979,1.927-3.265,2.66c1.59,0.665,3.355,1.092,5.298,1.279l-0.457,0.939c-2.214-0.242-4.19-0.793-5.93-1.653
			c-1.714,0.801-3.704,1.379-5.971,1.735l-0.466-0.95c2.023-0.289,3.805-0.746,5.342-1.368c-0.768-0.444-1.498-0.969-2.191-1.572
			c-0.548,0.497-1.13,0.935-1.744,1.311l-0.619-0.811c1.694-0.977,2.827-2.163,3.399-3.557L1061.059,46.757z M1062.416,52.841
			c0.003,0.504-0.042,1.036-0.133,1.596l4.929-0.022c-0.018,2.372-0.226,3.787-0.625,4.245c-0.408,0.469-1.107,0.706-2.097,0.71
			c-0.233,0.001-0.779-0.015-1.638-0.048l-0.257-0.909l1.652,0.062c0.831-0.013,1.357-0.192,1.58-0.538
			c0.213-0.337,0.335-1.206,0.366-2.606l-4.145,0.019c-0.102,0.347-0.249,0.697-0.443,1.053c-0.713,1.272-2.351,2.32-4.914,3.144
			l-0.675-0.823c2.302-0.682,3.814-1.537,4.538-2.568c0.194-0.29,0.338-0.556,0.431-0.8l-4.172,0.02l-0.005-0.91l4.452-0.021
			c0.11-0.504,0.163-1.037,0.16-1.597L1062.416,52.841z M1065.198,48.754l-5.348,0.023l-0.182,0.226
			c0.777,0.678,1.645,1.262,2.598,1.752C1063.375,50.199,1064.353,49.533,1065.198,48.754z"/>
		<path id="XMLID_135_" class="st8" d="M1070.071,51.952l4.717-0.021c0.25-0.347,0.464-0.726,0.639-1.138l0.967,0.095
			c-0.11,0.289-0.282,0.636-0.513,1.038l3.611-0.016c-0.207-0.364-0.419-0.681-0.634-0.95l0.853-0.284
			c0.291,0.382,0.549,0.791,0.775,1.229l1.932-0.009l0.004,0.896l-3.779,0.017c0.909,0.854,2.27,1.525,4.083,2.013l-0.402,0.854
			c-0.215-0.064-0.542-0.179-0.981-0.345l0.019,4.088l-0.896,0.004l-0.002-0.603l-2.618,0.012l0.002,0.603l-0.896,0.004l-0.021-4.41
			l3.683-0.017c-1.318-0.6-2.335-1.333-3.048-2.198l-2.353,0.011c-0.771,0.881-1.817,1.624-3.14,2.227l3.514-0.016l0.021,4.41
			l-0.896,0.004l-0.002-0.603l-2.394,0.011l0.002,0.603l-0.882,0.004l-0.019-4.13l-1.146,0.396l-0.466-0.824
			c1.771-0.539,3.149-1.231,4.135-2.076l-3.863,0.018L1070.071,51.952z M1071.183,47.144l4.27-0.02l0.016,3.402l-4.27,0.02
			L1071.183,47.144z M1074.54,49.676l-0.008-1.68l-2.436,0.012l0.008,1.68L1074.54,49.676z M1072.311,57.99l2.394-0.011l-0.01-2.101
			l-2.394,0.011L1072.311,57.99z M1077.007,47.118l4.354-0.02l0.016,3.402l-4.354,0.02L1077.007,47.118z M1077.84,57.965
			l2.618-0.012l-0.01-2.101l-2.618,0.012L1077.84,57.965z M1080.462,49.65l-0.008-1.68l-2.52,0.012l0.008,1.68L1080.462,49.65z"/>
		<path id="XMLID_168_" class="st8" d="M1087.492,46.93c-0.758,1.759-1.512,3.147-2.264,4.169c0.541-0.05,1.208-0.142,2.001-0.275
			c0.296-0.524,0.602-1.085,0.916-1.685l0.912,0.346c-1.333,2.414-2.437,4.133-3.309,5.154c1.034-0.229,2.069-0.542,3.104-0.938
			l0.004,0.924c-1.547,0.558-3.006,0.938-4.377,1.14l-0.27-0.937c0.186-0.085,0.339-0.184,0.46-0.296
			c0.548-0.535,1.221-1.462,2.018-2.782c-0.653,0.106-1.474,0.227-2.462,0.362l-0.257-0.938c0.148-0.057,0.293-0.184,0.433-0.38
			c0.815-1.235,1.528-2.647,2.137-4.237L1087.492,46.93z M1088.784,57.187c-1.351,0.641-2.86,1.142-4.529,1.505l-0.131-0.994
			c1.81-0.372,3.361-0.859,4.656-1.463L1088.784,57.187z M1095.403,47.161l0.048,10.71l1.19-0.006l0.005,0.98l-8.093,0.037
			l-0.005-0.98l1.219-0.006l-0.049-10.71L1095.403,47.161z M1090.729,50.681l3.695-0.017l-0.012-2.534l-3.695,0.017L1090.729,50.681
			z M1090.745,54.28l3.696-0.017l-0.013-2.646l-3.695,0.017L1090.745,54.28z M1090.762,57.891l3.695-0.017l-0.012-2.66l-3.695,0.017
			L1090.762,57.891z"/>
	</g>
</g>
<path id="XMLID_4_" class="st1" d="M577.833,16.952l-6-3.1v-0.9h-2v0.9l-6,3.1v1.3l0,0l5,3v-1.3l-3.8-2.3l5.3-2.7h1l5.5,3v3.9l1,0.4
	V16.952L577.833,16.952z M572.833,20.852v1.3l3.9,2.3l-4.9,2.7v-0.2h-2v0.2l-5-2.7v-4.5l-1-0.5v5.5l0,0l6,3.2v0.8h2v-0.8l6-3.3v-1.1
	l-0.3-0.2L572.833,20.852z M571.833,18.952h-2v5h2V18.952z"/>
<g>
	<rect id="XMLID_121_" x="872.25" y="45.369" class="st1" width="2" height="4"/>
	<path id="XMLID_118_" class="st1" d="M877.25,67.369c-7.18,0-13-5.82-13-13s5.82-13,13-13c6.498,0,11.866,4.772,12.831,11h2.021
		c-0.98-7.336-7.247-13-14.851-13c-8.284,0-15,6.716-15,15s6.716,15,15,15c7.604,0,13.871-5.664,14.851-13h-2.021
		C889.116,62.597,883.748,67.369,877.25,67.369z"/>
	<rect id="XMLID_112_" x="869.25" y="49.369" class="st1" width="16" height="2"/>
	<rect id="XMLID_110_" x="869.25" y="60.369" class="st1" width="16" height="2"/>
	<rect id="XMLID_109_" x="883.25" y="59.369" class="st1" width="2" height="3"/>
	<rect id="XMLID_107_" x="883.25" y="49.369" class="st1" width="2" height="3"/>
	<rect id="XMLID_106_" x="869.25" y="49.369" class="st1" width="2" height="3"/>
	<rect id="XMLID_105_" x="869.25" y="59.244" class="st1" width="2" height="3"/>
	<rect id="XMLID_102_" x="880.25" y="45.369" class="st1" width="2" height="4"/>
	<g>
		<rect id="XMLID_99_" x="876.25" y="56.047" class="st1" width="2" height="2"/>
		<rect id="XMLID_97_" x="875.25" y="57.047" class="st1" width="2" height="1"/>
		<rect id="XMLID_95_" x="875.25" y="53.047" class="st1" width="2" height="1"/>
		<path id="XMLID_88_" class="st1" d="M874.75,58.047h0.5v-0.092v-2v-0.816v-2v-0.092h-0.5c-0.828,0-1.5,0.672-1.5,1.5v2
			C873.25,57.375,873.921,58.047,874.75,58.047z"/>
	</g>
	<g>
		<rect id="XMLID_87_" x="871.05" y="57.047" class="st1" width="2" height="1"/>
		<rect id="XMLID_85_" x="871.05" y="53.047" class="st1" width="2" height="1"/>
		<path id="XMLID_84_" class="st1" d="M870.55,58.047h0.5v-0.092v-2v-0.816v-2v-0.092h-0.5c-0.828,0-1.5,0.672-1.5,1.5v2
			C869.05,57.375,869.721,58.047,870.55,58.047z"/>
	</g>
	<rect x="881.282" y="53.096" class="st1" width="1.5" height="5"/>
	<rect x="878.683" y="53.096" class="st1" width="1.8" height="5"/>
	<rect x="880.383" y="57.096" class="st1" width="2.6" height="1"/>
	<rect x="883.58" y="53.096" class="st1" width="1.8" height="5"/>
	<rect x="882.533" y="57.096" class="st1" width="2.8" height="1"/>
</g>
<g>
	<path class="st8" d="M758.403,134.854h1.232l2.072,5.838l2.072-5.838h1.232l-2.744,7.238h-1.134L758.403,134.854z"/>
	<path class="st8" d="M771.871,135.82c0.551,0.71,0.826,1.602,0.826,2.675c0,1.055-0.271,1.937-0.812,2.646
		c-0.598,0.766-1.405,1.148-2.423,1.148c-1.035,0-1.834-0.504-2.394-1.513v4.089h-1.12v-10.011h1.05v1.19
		c0.522-0.924,1.325-1.386,2.408-1.386C770.452,134.659,771.273,135.046,771.871,135.82z M767.573,136.437
		c-0.364,0.504-0.546,1.167-0.546,1.988v0.14c0,0.85,0.205,1.526,0.616,2.03c0.401,0.514,0.929,0.771,1.582,0.771
		c0.774,0,1.367-0.271,1.777-0.813c0.364-0.504,0.546-1.19,0.546-2.058c0-0.85-0.172-1.531-0.518-2.044
		c-0.401-0.579-0.989-0.868-1.764-0.868C768.53,135.583,767.965,135.867,767.573,136.437z"/>
	<path class="st8" d="M780.243,137.641v4.452h-1.12v-4.368c0-1.409-0.635-2.114-1.904-2.114c-0.504,0-0.938,0.183-1.302,0.547
		c-0.383,0.383-0.598,0.905-0.645,1.567v4.368h-1.119v-7.238h1.119v1.064c0.253-0.411,0.574-0.719,0.967-0.924
		c0.392-0.225,0.826-0.336,1.302-0.336C779.343,134.659,780.243,135.652,780.243,137.641z"/>
	<path class="st8" d="M791.065,143.241c-0.477,0-1.312-0.01-2.506-0.028c-0.915-0.019-1.652-0.103-2.212-0.252
		c-0.561-0.168-1.06-0.509-1.498-1.022c-0.196-0.232-0.378-0.35-0.546-0.35c-0.336,0-0.892,0.644-1.666,1.932l-0.757-0.686
		c0.747-1.176,1.405-1.891,1.975-2.143v-4.256h-1.988v-0.924h2.926v5.236c0.121,0.093,0.238,0.2,0.351,0.321
		c0.336,0.402,0.7,0.696,1.092,0.883c0.448,0.195,1.087,0.308,1.918,0.336c0.989,0.019,1.913,0.027,2.772,0.027
		c0.42,0,1.087-0.009,2.002-0.027c0.756-0.02,1.273-0.038,1.554-0.057l-0.238,1.009H791.065z M782.875,130.879
		c0.971,0.728,1.783,1.456,2.437,2.184l-0.714,0.7c-0.598-0.709-1.4-1.451-2.408-2.226L782.875,130.879z M788.56,132.223
		c0.635,0.383,1.171,0.733,1.609,1.05c0.747-0.392,1.419-0.816,2.017-1.273h-6.216v-0.854h7.573v0.729
		c-0.84,0.728-1.75,1.357-2.729,1.89l0.224,0.182h2.772v6.259c0,0.719-0.393,1.078-1.176,1.078h-1.162l-0.225-0.854l1.106,0.042
		c0.336,0,0.504-0.158,0.504-0.476v-1.051h-2.353v2.408h-0.938v-2.408h-2.338v2.45h-0.952v-7.448h3.5
		c-0.541-0.382-1.152-0.756-1.834-1.119L788.56,132.223z M789.567,136.045v-1.26h-2.338v1.26H789.567z M787.229,136.885v1.232h2.338
		v-1.232H787.229z M792.857,136.045v-1.26h-2.353v1.26H792.857z M790.505,136.885v1.232h2.353v-1.232H790.505z"/>
	<path class="st8" d="M805.037,143.241c-0.457,0-1.283-0.01-2.478-0.028c-0.896-0.019-1.624-0.103-2.185-0.252
		c-0.551-0.168-1.04-0.509-1.47-1.022c-0.196-0.232-0.378-0.35-0.546-0.35c-0.336,0-0.9,0.639-1.694,1.918l-0.756-0.672
		c0.774-1.204,1.446-1.918,2.017-2.143v-4.256h-2.059v-0.924h2.996v5.236c0.103,0.074,0.215,0.182,0.336,0.321
		c0.336,0.402,0.695,0.696,1.078,0.883c0.438,0.195,1.068,0.308,1.89,0.336c0.971,0.019,1.881,0.027,2.73,0.027
		c0.429,0,1.101-0.009,2.016-0.027c0.766-0.02,1.288-0.038,1.568-0.057l-0.238,1.009H805.037z M796.875,130.879
		c0.971,0.728,1.783,1.456,2.437,2.184l-0.714,0.7c-0.598-0.709-1.4-1.451-2.408-2.226L796.875,130.879z M799.773,132.209h2.324
		c-0.225-0.438-0.477-0.845-0.756-1.218l0.938-0.351c0.336,0.485,0.621,1.008,0.854,1.568h1.651
		c0.364-0.551,0.663-1.083,0.896-1.597l0.979,0.337c-0.242,0.494-0.499,0.914-0.77,1.26h2.38v0.938h-3.92
		c-0.094,0.355-0.215,0.733-0.364,1.135h3.332v6.747h-6.636v-6.747h2.239c0.141-0.355,0.257-0.733,0.351-1.135h-3.5V132.209z
		 M801.636,136.283h4.731v-1.106h-4.731V136.283z M801.636,138.159h4.731v-1.064h-4.731V138.159z M806.367,140.133v-1.162h-4.731
		v1.162H806.367z"/>
</g>
</svg>
