<?xml version="1.0" encoding="utf-8"?>
<!-- Generator: Adobe Illustrator 22.1.0, SVG Export Plug-In . SVG Version: 6.00 Build 0)  -->
<svg version="1.1" id="svgwrapper_svg" xmlns="http://www.w3.org/2000/svg" xmlns:xlink="http://www.w3.org/1999/xlink" x="0px"
	 y="0px" width="573.5px" height="175.2px" viewBox="0 0 573.5 175.2" style="enable-background:new 0 0 573.5 175.2;"
	 xml:space="preserve">
<style type="text/css">
	.st0{display:none;fill:none;stroke:#999999;}
	.st1{fill:#888888;}
	.st2{opacity:0;fill:#FF0000;}
	.st3{opacity:0.6;fill:#BBBBBB;enable-background:new    ;}
	.st4{fill:#FFFFFF;}
	.st5{fill:#E5E5E5;}
	.st6{enable-background:new    ;}
	.st7{fill:#444444;}
	.st8{fill:#CEE3FF;fill-opacity:0;}
	.st9{fill:#878787;}
</style>
<path class="st0" d="M462.6,144l71.1-0.8"/>
<g id="bottomgroup" transform="translate(0,0)">
</g>
<g id="middlegroup" transform="translate(0,0)">
	<g id="Link3" transform="translate(0,0)">
		<rect x="50.6" y="66.1" class="st1" width="37" height="1"/>
		<g transform="translate(0.5, 0)">
			<polygon class="st1" points="82.6,71.1 88.6,66.6 82.6,62.1 			"/>
		</g>
		<rect x="50.6" y="59.1" class="st2" width="19" height="15"/>
		<path class="st2" d="M69.6,66.6"/>
		<rect x="69.6" y="59.1" class="st2" width="18" height="15"/>
	</g>
	<g id="Link8" transform="translate(0,0)">
		<polygon class="st1" points="174.2,67.1 142.7,67.1 142.7,66.1 173.2,66.1 173.2,25 204.8,25 204.8,26 174.2,26 		"/>
		<g transform="translate(0.5, 0)">
			<polygon class="st1" points="199.8,30 205.8,25.5 199.8,21 			"/>
		</g>
		<rect x="142.7" y="59.1" class="st2" width="31" height="15"/>
		<rect x="166.2" y="25.5" class="st2" width="15" height="41.1"/>
		<rect x="173.7" y="18" class="st2" width="31" height="15"/>
	</g>
	<g id="Link9" transform="translate(0,0)">
		<polygon class="st1" points="204.8,108.1 173.2,108.1 173.2,67.1 142.7,67.1 142.7,66.1 174.2,66.1 174.2,107.1 204.8,107.1 		"/>
		<g transform="translate(0.5, 0)">
			<polygon class="st1" points="199.8,112.1 205.8,107.6 199.8,103.1 			"/>
		</g>
		<rect x="142.7" y="59.1" class="st2" width="31" height="15"/>
		<rect x="166.2" y="66.6" class="st2" width="15" height="41.1"/>
		<rect x="173.7" y="100.1" class="st2" width="31" height="15"/>
	</g>
	<g id="Link10" transform="translate(0,0)">
		<polygon class="st1" points="398,67.1 365.5,67.1 365.5,26 333.9,26 333.9,25 366.5,25 366.5,66.1 398,66.1 		"/>
		<g transform="translate(0.5, 0)">
			<polygon class="st1" points="393,71.1 399,66.6 393,62.1 			"/>
		</g>
		<rect x="333.9" y="18" class="st2" width="32" height="15"/>
		<rect x="358.5" y="25.5" class="st2" width="15" height="41.1"/>
		<rect x="366" y="59.1" class="st2" width="32" height="15"/>
	</g>
	<g id="Link11" transform="translate(0,0)">
		<polygon class="st1" points="366.5,108.1 333.9,108.1 333.9,107.1 365.5,107.1 365.5,66.1 398,66.1 398,67.1 366.5,67.1 		"/>
		<g transform="translate(0.5, 0)">
			<polygon class="st1" points="393,71.1 399,66.6 393,62.1 			"/>
		</g>
		<rect x="333.9" y="100.1" class="st2" width="32" height="15"/>
		<rect x="358.5" y="66.6" class="st2" width="15" height="41.1"/>
		<rect x="366" y="59.1" class="st2" width="32" height="15"/>
	</g>
	<g id="Link12" transform="translate(0,0)">
		<rect x="453.1" y="66.1" class="st1" width="59.1" height="1"/>
		<g transform="translate(0.5, 0)">
			<polygon class="st1" points="507.1,71.1 513.1,66.6 507.1,62.1 			"/>
		</g>
		<rect x="453.1" y="59.1" class="st2" width="30" height="15"/>
		<path class="st2" d="M483.1,66.6"/>
		<rect x="483.1" y="59.1" class="st2" width="29" height="15"/>
	</g>
</g>
<rect x="3" y="3" class="st3" width="50.1" height="131.9"/>
<g>
	<rect x="1" y="1" class="st4" width="50.1" height="131.9"/>
	<path class="st5" d="M51.6,133.4H0.5V0.5h51.1V133.4z M1.5,132.4h49.1V1.5H1.5V132.4z"/>
</g>
<g transform="translate(20 10)">
	<g class="st6">
		<path class="st7" d="M2.5,19.8v5.8c0.3-0.3,0.7-0.6,1.1-1l0.3,1c-0.7,0.7-1.4,1.3-2.2,1.9l-0.4-0.9c0.2-0.2,0.3-0.4,0.3-0.6v-5.3
			h-1.9v-1H2.5z M3.6,17.8l-0.7,0.7c-0.6-0.7-1.3-1.4-2.2-2.1l0.7-0.7C2.2,16.4,2.9,17.1,3.6,17.8z M11.9,27c0,0.8-0.4,1.2-1.3,1.2
			H9.3l-0.2-0.9c0.5,0,0.9,0,1.3,0s0.6-0.2,0.6-0.7V17H5.3v6.8c0,1.9-0.4,3.4-1.2,4.6l-0.7-0.7c0.7-1,1-2.3,1-3.9V16h7.6V27z
			 M7.6,18.6v-1.1h1v1.1h1.6v0.8H8.6v1.3h1.9v0.8H5.8v-0.8h1.8v-1.3H6v-0.8H7.6z M10,22.6v3.6H6.3v-3.6H10z M9.1,23.4h-2v1.9h2V23.4
			z"/>
		<path class="st7" d="M0.4,42.2l-0.8-0.7C0.5,40.3,1,38.7,1,36.8v-6.7h10.4v10.5c0,1-0.5,1.5-1.5,1.5H8.4l-0.3-1
			c0.6,0,1.1,0.1,1.6,0.1c0.5,0,0.8-0.3,0.8-0.9v-2.4H6.6v4.1h-1v-4.1H2C1.8,39.6,1.3,41.1,0.4,42.2z M2,31v2.4h3.6V31H2z M2,36.9
			h3.6v-2.5H2V36.9z M10.4,31H6.6v2.4h3.8V31z M10.4,34.4H6.6v2.5h3.8V34.4z"/>
		<path class="st7" d="M6.4,43.5c1.8,2.1,3.8,3.7,6.2,4.9l-0.5,1c-2.3-1.3-4.3-2.9-6-4.9c-1.5,1.9-3.5,3.5-6,4.9l-0.5-1
			C2,47.1,4,45.5,5.7,43.5H6.4z M10.5,56.4h-1v-0.8H2.6v0.8h-1v-5.7h8.9V56.4z M9.7,48v1H2.4v-1H9.7z M9.5,54.6v-2.9H2.6v2.9H9.5z"
			/>
		<path class="st7" d="M8.6,70.3l-0.3-1l1.8,0c0.4,0,0.5-0.2,0.5-0.6v-9.7H1.4v11.3h-1V58.1h11.2V69c0,0.9-0.4,1.4-1.2,1.4H8.6z
			 M9.6,60.7v0.9H2.4v-0.9H9.6z M8.9,63.1v4.5H3.2v-4.5H8.9z M7.9,64H4.2v2.7h3.7V64z"/>
		<path class="st7" d="M2.6,84.4h-1v-7c-0.4,1.3-1,2.5-1.7,3.6l-0.4-1.1c1-1.3,1.7-2.9,2.1-4.6v-0.1H0v-0.9h1.6v-2.7h1v2.7H4v0.9
			H2.6v0.9c0.6,0.7,1.2,1.6,1.9,2.5l-0.5,0.8c-0.5-0.9-1-1.7-1.3-2.2V84.4z M7.3,82.5c-0.6,0.8-1.8,1.4-3.4,1.9l-0.4-0.8
			c1.4-0.4,2.4-0.9,3-1.6c0.1-0.2,0.3-0.4,0.4-0.6H3.7v-0.9h3.7c0.1-0.3,0.2-0.7,0.3-1.1H4.7v-4.2h6.7v4.2H8.5
			c-0.1,0.4-0.1,0.7-0.2,1.1h4v0.9H8.8c0.8,1,2,1.7,3.7,2.3l-0.7,0.8c-1.8-0.8-3.1-1.8-3.9-2.9C7.7,81.9,7.5,82.2,7.3,82.5z M6,72.7
			v-1.1h0.9v1.1h2.3v-1.1h1v1.1h2.2v0.9h-2.2v1.1h-1v-1.1H6.9v1.1H6v-1.1h-2v-0.9H6z M10.5,76.9v-0.9H5.6v0.9H10.5z M10.5,77.6H5.6
			v1h4.9V77.6z"/>
		<path class="st7" d="M1.8,88.3v-2.7h1v2.7h1.7v1H2.8V90c0.6,0.7,1.2,1.4,1.9,2.2l-0.6,0.9c-0.5-0.9-0.9-1.6-1.3-2.1v7.4h-1v-7
			C1.3,92.7,0.7,94,0,95.1L-0.5,94c1-1.4,1.8-3,2.2-4.7h-2v-1H1.8z M12,86.6c-1.8,0.5-3.7,0.8-5.9,0.9v2.1h5.5v0.8
			c-0.1,1.9-0.7,3.5-1.8,5c0.7,0.8,1.6,1.5,2.7,2.1L12,98.4c-1.1-0.6-2.1-1.4-2.8-2.2c-0.8,0.9-1.8,1.6-2.9,2.3l-0.7-0.8
			c1.2-0.7,2.2-1.5,3-2.3c-1-1.3-1.6-2.9-1.8-4.7H6.1v1.4c-0.1,2.7-0.6,4.8-1.7,6.4l-0.7-0.8c0.9-1.3,1.4-3.2,1.5-5.6v-5.4
			c2.3,0,4.5-0.4,6.3-1L12,86.6z M10.7,90.6H7.6c0.3,1.5,0.8,2.8,1.6,3.9C10,93.4,10.5,92.1,10.7,90.6z"/>
	</g>
</g>
<rect x="95.1" y="3" class="st3" width="50.1" height="131.9"/>
<g>
	<rect x="93.1" y="1" class="st4" width="50.1" height="131.9"/>
	<path class="st5" d="M143.7,133.4H92.6V0.5h51.1V133.4z M93.6,132.4h49.1V1.5H93.6V132.4z"/>
</g>
<g transform="translate(20 10)">
	<g class="st6">
		<path class="st7" d="M93.4,18.9v-3.4h1v3.4h1.4v1h-1.4v4.4c0.5-0.2,1-0.4,1.4-0.5v1c-1.2,0.5-2.5,0.9-3.8,1.2l-0.3-1
			c0.6-0.1,1.1-0.2,1.7-0.4v-4.7h-1.6v-1H93.4z M99.3,26.5c-0.8,0.7-1.8,1.4-3,1.9l-0.6-0.8c1.2-0.5,2.2-1.1,3-1.8L99.3,26.5z
			 M99.8,16.5c0-0.4,0.1-0.7,0.1-1.1l1,0.1c0,0.3-0.1,0.6-0.1,1h3.4v0.9h-3.5c-0.1,0.3-0.1,0.6-0.1,0.9h2.8v6.5h1.3v0.9h-8.9v-0.9
			h1.3v-6.5h2.5c0.1-0.3,0.1-0.6,0.1-0.9h-3.5v-0.9H99.8z M102.4,20v-0.9H98V20H102.4z M102.4,21.6v-0.9H98v0.9H102.4z M102.4,23.2
			v-0.9H98v0.9H102.4z M102.4,24.8v-0.9H98v0.9H102.4z M104.5,27.7l-0.6,0.7c-0.8-0.7-1.8-1.4-2.7-1.9l0.6-0.6
			C102.7,26.4,103.6,27,104.5,27.7z"/>
		<path class="st7" d="M100.6,38.5v1h-8.4v-1H100.6z M103.7,33.1h-1V31h-9.2v2.1h-1v-3h11.2V33.1z M95.4,35.9h7.5
			c0,3.4-0.3,5.4-0.7,5.8c-0.4,0.4-1.1,0.6-2.3,0.6h-1.2l-0.3-0.9c0.6,0,1.1,0,1.5,0c0.8,0,1.2-0.2,1.5-0.4c0.3-0.3,0.4-1.7,0.4-4.1
			h-7.8c0.6-2,1-3.7,1.3-5.2l1,0.1c-0.1,0.5-0.2,0.9-0.3,1.4h5.7v1H96C95.8,34.7,95.6,35.3,95.4,35.9z"/>
		<path class="st7" d="M98,48.3v1h-3.2c-0.6,2.1-1.1,3.6-1.5,4.6c1.1-0.2,2.2-0.5,3.3-1c-0.4-0.8-0.7-1.4-1.1-2.1l0.9-0.4
			c0.7,1.2,1.3,2.5,1.9,3.9l-0.9,0.4c-0.1-0.4-0.3-0.7-0.4-1c-1.5,0.5-3.1,1-4.9,1.3l-0.2-1c0.1,0,0.2-0.1,0.2-0.1
			c0.4-0.6,1-2.1,1.7-4.7h-1.9v-1H98z M97.5,44.5v1h-5.1v-1H97.5z M101.1,43.6v2.8h3.1c0,4.4-0.1,7.1-0.2,8.1
			c-0.1,1.1-0.8,1.7-2,1.7c-0.2,0-0.6,0-1.2,0l-0.2-0.9c0.5,0,1,0.1,1.3,0.1c0.7,0,1.1-0.4,1.2-1.2c0.1-0.7,0.1-3,0.2-6.8h-2.1v0.2
			c0,4-1,7-2.9,8.9l-0.8-0.7c1.8-1.7,2.7-4.4,2.7-8.2v-0.2h-1.9v-1h1.9v-2.8H101.1z"/>
		<path class="st7" d="M98.7,57.5c-0.1,0.5-0.2,1-0.3,1.5h5.4v1h-4.5c0.7,1.6,2.4,2.8,5.2,3.6l-0.5,0.9c-3.1-1.1-5-2.6-5.7-4.5h-0.2
			c-0.3,0.8-0.7,1.5-1.2,2.1c-0.1,0.1-0.1,0.1-0.1,0.2c0.6,0.4,1.3,1,2,1.7L98,64.6c-0.7-0.7-1.3-1.3-2-1.8
			c-0.9,0.7-2.2,1.2-3.9,1.7l-0.4-0.9c2-0.5,3.4-1.2,4.3-2.2c0.4-0.4,0.7-0.9,1-1.5h-4.6v-1h4.9c0.2-0.5,0.3-1,0.3-1.6L98.7,57.5z
			 M94.1,65.9c-0.3,1.5-0.8,2.7-1.4,3.8l-0.9-0.5c0.6-1,1-2.2,1.3-3.4L94.1,65.9z M96.5,70.1c-0.9,0-1.3-0.5-1.3-1.4v-3h1v2.8
			c0,0.4,0.2,0.6,0.6,0.6h3.1c0.3,0,0.5-0.1,0.6-0.3c0.2-0.2,0.3-0.8,0.3-1.7l1,0.3c-0.1,1.3-0.3,2-0.6,2.3
			c-0.3,0.2-0.6,0.4-1.2,0.4H96.5z M99.7,67.6L98.8,68c-0.4-0.9-0.8-1.8-1.2-2.5l0.9-0.3C98.9,65.9,99.4,66.7,99.7,67.6z
			 M104.4,68.9l-0.9,0.4c-0.5-1.3-1.2-2.5-1.8-3.5l1-0.3C103.3,66.5,103.9,67.7,104.4,68.9z"/>
		<path class="st7" d="M96.7,75.8c0.3-0.4,0.5-0.7,0.6-1.1c-1.2,0.1-2.5,0.1-3.9,0.1l-0.2-0.9c0.9-0.2,2.1-1,3.5-2.4l1,0.3
			c-0.8,0.8-1.6,1.5-2.4,2c1.9-0.1,3.6-0.2,5.3-0.3c-0.4-0.4-0.8-0.7-1.3-1.1l0.8-0.5c1.4,1.1,2.5,2,3.2,2.8l-0.8,0.6
			c-0.3-0.3-0.6-0.7-1-1c-1,0.1-2.1,0.1-3.1,0.2c-0.2,0.4-0.4,0.8-0.6,1.2h6.4v0.9h-3.5c0.8,0.8,2.1,1.5,3.9,2l-0.4,0.9
			c-2.1-0.8-3.6-1.7-4.5-2.9h-2.5c-1.1,1.2-2.7,2.2-4.9,3l-0.5-0.9c1.8-0.5,3.2-1.2,4.2-2.1H92v-0.9H96.7z M102.7,79.7
			c-1.3,2.3-4.1,3.9-8.4,4.8l-0.6-0.8c4.2-0.9,6.9-2.4,8.1-4.4L102.7,79.7z M100.8,78.9c-1.6,1.9-3.7,3-6.2,3.5l-0.6-0.8
			c2.6-0.4,4.6-1.5,6-3.2L100.8,78.9z M99,77.7c-0.9,1.2-2.4,2.1-4.4,2.8l-0.4-0.8c1.8-0.6,3.2-1.4,4-2.5L99,77.7z"/>
		<path class="st7" d="M95.4,92.2c-0.1,0.3-0.2,0.5-0.3,0.8H98v0.8c-0.3,0.9-0.8,1.7-1.6,2.4c0.7,0.3,1.3,0.6,1.9,1l-0.5,0.8
			c-0.6-0.4-1.3-0.7-2.2-1.1c-0.9,0.6-2.1,1.2-3.5,1.6l-0.5-0.8c1.2-0.3,2.1-0.7,3-1.1c-0.6-0.3-1.3-0.5-1.9-0.8
			c0.4-0.6,0.7-1.2,1-1.8h-1.7V93h2c0.1-0.3,0.2-0.6,0.3-0.9L95.4,92.2z M94.8,88.3v-2.7h0.9v2.7h2.6v0.9h-2.6v0.2
			c0.8,0.4,1.5,0.8,2.3,1.3l-0.5,0.8c-0.7-0.6-1.3-1-1.8-1.3v1.8h-0.9v-2.7c-0.5,1.1-1.3,2.1-2.5,2.9l-0.5-0.8
			c1.1-0.6,1.8-1.3,2.3-2.1h-2v-0.9H94.8z M94,87.6l-0.7,0.3c-0.3-0.7-0.6-1.3-0.9-1.8l0.8-0.3C93.5,86.4,93.8,87,94,87.6z
			 M97.1,93.9h-2.4c-0.2,0.5-0.5,0.9-0.8,1.3c0.6,0.2,1.1,0.4,1.6,0.6C96.2,95.3,96.8,94.6,97.1,93.9z M98.2,86.1
			c-0.3,0.6-0.6,1.2-1.1,1.8l-0.7-0.4c0.4-0.6,0.8-1.2,1.1-1.8L98.2,86.1z M99.7,90.9c-0.3,0.6-0.5,1.2-0.8,1.7l-0.6-0.8
			c0.8-1.6,1.4-3.7,1.7-6.4l1,0.2c-0.1,0.7-0.2,1.4-0.3,2h3.7v1h-0.9c-0.1,2.3-0.5,4.3-1.3,6c0.7,1.3,1.6,2.2,2.6,2.9l-0.5,0.8
			c-1-0.7-1.8-1.7-2.5-2.8c-0.7,1.1-1.5,2.1-2.6,2.8l-0.5-0.8c1.1-0.8,1.9-1.7,2.6-2.9C100.5,93.6,100.1,92.3,99.7,90.9z
			 M100.2,89.4c0.4,1.6,0.8,3.1,1.4,4.2c0.5-1.4,0.8-3.1,0.9-5h-2.1L100.2,89.4z"/>
	</g>
</g>
<g id="RectEndPoint4" transform="translate(218,12)">
	<rect x="-5.7" y="-9" class="st3" width="124.1" height="50.1"/>
	<g>
		<rect x="-7.7" y="-11" class="st4" width="124.1" height="50.1"/>
		<path class="st5" d="M116.9,39.6H-8.2v-51.1h125.1V39.6z M-7.2,38.6h123.1v-49.1H-7.2V38.6z"/>
	</g>
	<g transform="translate(20 9)">
		<g class="st6">
			<path class="st7" d="M-4.9,6.9v0.9h-1v-8.7H4.4v8.6h-1V6.9h-3.7v4.6h-1V6.9H-4.9z M-4.9,0.1v2.5h3.6V0.1H-4.9z M-4.9,6h3.6V3.5
				h-3.6V6z M3.5,0.1h-3.7v2.5h3.7V0.1z M3.5,6V3.5h-3.7V6H3.5z"/>
			<path class="st7" d="M13.3,0.7c-0.3-0.6-0.6-1.2-1-1.8l1-0.4c0.4,0.6,0.8,1.3,1.1,2.1h5.2v1h-7.4L12,4.1v0h5.8
				c0,2.8-0.1,4.6-0.3,5.3c-0.3,1.2-1,1.8-2.1,1.9c-0.4,0-1,0-1.6-0.1l-0.3-0.9c0.7,0,1.3,0,1.8,0c0.7,0,1.2-0.5,1.3-1.5
				c0.1-0.6,0.1-1.9,0.2-3.8h-4.9c-0.2,1.1-0.5,2.2-1,3.1c-0.7,1.2-1.6,2.3-2.9,3.3l-0.7-0.7c1.5-1.3,2.5-2.4,3-3.5
				C10.7,6.2,11,5,11,3.7c0-0.9,0.1-1.6,0.1-2H7.2v-1H13.3z"/>
			<path class="st7" d="M23.9,2.9v6.1c0.4-0.4,0.9-0.8,1.4-1.3l0.3,1.1c-0.8,0.8-1.7,1.5-2.6,2.1l-0.4-0.9C22.9,9.7,23,9.5,23,9.3
				V3.8h-2v-1H23.9z M25,0.9l-0.7,0.7c-0.6-0.7-1.3-1.4-2.3-2.2l0.7-0.7C23.6-0.5,24.3,0.2,25,0.9z M25.7,0.2v-1h7.9v1h-2.9v3.9h2.7
				v0.9h-2.7V10h3.2v1h-8.6v-1h1.4V2.5h1V10h2V0.2H25.7z"/>
			<path class="st7" d="M41.1-1.5V1h4.1v0.5l-0.3,3.3h2c0,2.7-0.2,4.3-0.7,4.7c-0.2,0.2-0.5,0.4-0.8,0.4C45.1,10,44.8,10,44.5,10
				h-0.9l-0.3-1c0.5,0,0.9,0,1.4,0c0.4,0,0.7-0.1,0.9-0.4c0.2-0.2,0.3-1.2,0.3-3h-4.8v5.7h-1V5.7h-5v-1h5V1.9h-4.2V1h4.2v-2.5H41.1z
				 M43.9,4.8l0.3-2.8h-3.1v2.8H43.9z M47.5,0.5l-0.5,0.8c-0.9-0.8-1.9-1.5-2.8-2l0.5-0.8C45.7-0.9,46.6-0.3,47.5,0.5z"/>
			<path class="st7" d="M55.7,2.1c1.7,1.3,3.8,2.3,6,3L61.2,6c-2.3-0.8-4.2-1.8-5.9-3.1c-1.5,1.2-3.5,2.2-5.9,3L49,5.1
				c2.4-0.8,4.4-1.8,6-3H55.7z M49.9,2.6l-0.9-0.5C49.9,1,50.6-0.2,51-1.5l1,0.2c-0.1,0.4-0.2,0.7-0.4,1h3.7v0.9h-2
				c0.2,0.5,0.4,1,0.6,1.4l-0.9,0.3c-0.2-0.6-0.4-1.2-0.6-1.7h-1.1C50.8,1.4,50.4,2,49.9,2.6z M59.6,6.9C59.3,8,58.8,9.1,58.3,10h3
				V11H49.5V10h7.7c0.5-1,1-2.1,1.4-3.4L59.6,6.9z M53,9.4l-0.9,0.2c-0.3-0.9-0.6-1.8-1.1-2.6l0.9-0.3C52.4,7.5,52.7,8.4,53,9.4z
				 M59,5.2v0.9h-7.3V5.2H59z M56.1,9.3l-0.9,0.2c-0.2-1-0.5-1.9-0.9-2.7l0.9-0.3C55.5,7.3,55.8,8.2,56.1,9.3z M56.3,2.1l-0.9-0.5
				c0.7-0.9,1.1-1.9,1.4-3l1,0.2c-0.1,0.4-0.2,0.7-0.3,1h4.1v0.9h-2.2c0.3,0.5,0.5,1,0.7,1.5l-0.9,0.3c-0.3-0.6-0.5-1.2-0.8-1.8
				h-1.2C56.8,1.2,56.6,1.6,56.3,2.1z"/>
			<path class="st7" d="M67.4,11.4h-1v-5c-0.9,0.3-1.8,0.5-2.8,0.8l-0.5-1c2.4-0.5,4.4-1.1,6.1-2c-0.6-0.5-1.5-1.1-2.5-1.7l0.9-0.5
				c1.1,0.7,1.9,1.2,2.5,1.8c1.4-0.9,2.5-1.9,3.1-3h-5.2c-1,0.9-2.2,1.7-3.6,2.4l-0.7-0.9c2.4-1,4-2.3,4.9-3.8l1.1,0.1
				c-0.2,0.4-0.5,0.8-0.8,1.2h5.5v0.9c-1,1.9-2.8,3.5-5.5,4.7h5.8v5.9h-1v-0.8h-6.3V11.4z M73.6,6.4h-6.3v3.2h6.3V6.4z"/>
		</g>
	</g>
</g>
<g id="RectEndPoint5" transform="translate(218,93.71875)">
	<rect x="-5.7" y="-8.9" class="st3" width="124.1" height="50.1"/>
	<g>
		<rect x="-7.7" y="-10.9" class="st4" width="124.1" height="50.1"/>
		<path class="st5" d="M116.9,39.7H-8.2v-51.1h125.1V39.7z M-7.2,38.7h123.1v-49.1H-7.2V38.7z"/>
	</g>
	<g transform="translate(20 9)">
		<g class="st6">
			<path class="st7" d="M3.9-0.5v0.9C1.1,2.5-0.9,4-2,5c-1.2,1-2.1,1.9-2.5,2.6c-0.4,0.6-0.5,1-0.5,1.4c0,0.3,0.1,0.5,0.3,0.7
				C-4.5,9.9-3.9,10-3.1,10h5.6c0.8,0,1.3-0.2,1.6-0.6C4.4,9,4.5,8.1,4.5,6.7l1,0.3c0,1.6-0.2,2.7-0.6,3.2C4.5,10.7,3.8,11,2.8,11
				h-6.1c-1,0-1.8-0.2-2.2-0.5C-5.9,10.1-6.2,9.6-6.2,9c0-0.5,0.2-1,0.6-1.6c0.5-0.8,1.4-1.7,2.7-2.8c1.2-1.1,2.9-2.4,5-4h-8v-1H3.9
				z"/>
			<path class="st7" d="M13.3,0.8c-0.3-0.6-0.6-1.2-1-1.8l1-0.4c0.4,0.6,0.8,1.3,1.1,2.1h5.2v1h-7.4L12,4.2v0h5.8
				c0,2.8-0.1,4.6-0.3,5.3c-0.3,1.2-1,1.8-2.1,1.9c-0.4,0-1,0-1.6-0.1l-0.3-0.9c0.7,0,1.3,0,1.8,0c0.7,0,1.2-0.5,1.3-1.5
				c0.1-0.6,0.1-1.9,0.2-3.8h-4.9c-0.2,1.1-0.5,2.2-1,3.1c-0.7,1.2-1.6,2.3-2.9,3.3l-0.7-0.7c1.5-1.3,2.5-2.4,3-3.5
				C10.7,6.3,11,5.1,11,3.8c0-0.9,0.1-1.6,0.1-2H7.2v-1H13.3z"/>
			<path class="st7" d="M23.9,3V9c0.4-0.4,0.9-0.8,1.4-1.3l0.3,1.1c-0.8,0.8-1.7,1.5-2.6,2.1L22.7,10C22.9,9.8,23,9.6,23,9.4V3.9h-2
				V3H23.9z M25,1l-0.7,0.7C23.7,1,22.9,0.3,22-0.5l0.7-0.7C23.6-0.4,24.3,0.3,25,1z M25.7,0.3v-1h7.9v1h-2.9v3.9h2.7v0.9h-2.7v4.9
				h3.2v1h-8.6v-1h1.4V2.7h1v7.4h2V0.3H25.7z"/>
			<path class="st7" d="M41.1-1.4v2.5h4.1v0.5l-0.3,3.3h2c0,2.7-0.2,4.3-0.7,4.7c-0.2,0.2-0.5,0.4-0.8,0.4c-0.3,0.1-0.6,0.1-0.9,0.1
				h-0.9l-0.3-1c0.5,0,0.9,0,1.4,0c0.4,0,0.7-0.1,0.9-0.4c0.2-0.2,0.3-1.2,0.3-3h-4.8v5.7h-1V5.8h-5v-1h5V2.1h-4.2v-1h4.2v-2.5H41.1
				z M43.9,4.9l0.3-2.8h-3.1v2.8H43.9z M47.5,0.6l-0.5,0.8c-0.9-0.8-1.9-1.5-2.8-2l0.5-0.8C45.7-0.8,46.6-0.2,47.5,0.6z"/>
			<path class="st7" d="M55.7,2.2c1.7,1.3,3.8,2.3,6,3l-0.5,0.9C58.9,5.3,57,4.3,55.4,3c-1.5,1.2-3.5,2.2-5.9,3L49,5.2
				c2.4-0.8,4.4-1.8,6-3H55.7z M49.9,2.7l-0.9-0.5c0.9-1.1,1.5-2.2,1.9-3.5l1,0.2c-0.1,0.4-0.2,0.7-0.4,1h3.7v0.9h-2
				c0.2,0.5,0.4,1,0.6,1.4l-0.9,0.3c-0.2-0.6-0.4-1.2-0.6-1.7h-1.1C50.8,1.5,50.4,2.1,49.9,2.7z M59.6,7c-0.4,1.2-0.8,2.2-1.3,3.1h3
				v0.9H49.5v-0.9h7.7c0.5-1,1-2.1,1.4-3.4L59.6,7z M53,9.5l-0.9,0.2C51.9,8.9,51.5,8,51,7.2l0.9-0.3C52.4,7.6,52.7,8.5,53,9.5z
				 M59,5.3v0.9h-7.3V5.3H59z M56.1,9.4l-0.9,0.2c-0.2-1-0.5-1.9-0.9-2.7l0.9-0.3C55.5,7.4,55.8,8.3,56.1,9.4z M56.3,2.2l-0.9-0.5
				c0.7-0.9,1.1-1.9,1.4-3l1,0.2c-0.1,0.4-0.2,0.7-0.3,1h4.1v0.9h-2.2c0.3,0.5,0.5,1,0.7,1.5l-0.9,0.3c-0.3-0.6-0.5-1.2-0.8-1.8
				h-1.2C56.8,1.3,56.6,1.7,56.3,2.2z"/>
			<path class="st7" d="M67.4,11.5h-1v-5c-0.9,0.3-1.8,0.5-2.8,0.8l-0.5-1c2.4-0.5,4.4-1.1,6.1-2c-0.6-0.5-1.5-1.1-2.5-1.7l0.9-0.5
				c1.1,0.7,1.9,1.2,2.5,1.8c1.4-0.9,2.5-1.9,3.1-3h-5.2c-1,0.9-2.2,1.7-3.6,2.4l-0.7-0.9c2.4-1,4-2.3,4.9-3.8l1.1,0.1
				c-0.2,0.4-0.5,0.8-0.8,1.2h5.5v0.9c-1,1.9-2.8,3.5-5.5,4.7h5.8v5.9h-1v-0.8h-6.3V11.5z M73.6,6.5h-6.3v3.2h6.3V6.5z"/>
		</g>
	</g>
</g>
<rect x="405.5" y="3" class="st3" width="50.1" height="131.9"/>
<g>
	<rect x="403.5" y="1" class="st4" width="50.1" height="131.9"/>
	<path class="st5" d="M454.1,133.4H403V0.5h51.1V133.4z M404,132.4h49.1V1.5H404V132.4z"/>
</g>
<g transform="translate(20 10)">
	<g class="st6">
		<path class="st7" d="M408.9,15.5c1.8,2.1,3.8,3.7,6.2,4.9l-0.5,1c-2.3-1.3-4.3-2.9-6-4.9c-1.5,1.9-3.5,3.5-6,4.9l-0.5-1
			c2.5-1.3,4.6-2.9,6.2-4.9H408.9z M413,28.3h-1v-0.8h-6.9v0.8h-1v-5.7h8.9V28.3z M412.2,19.9v1h-7.3v-1H412.2z M412,26.5v-2.9h-6.9
			v2.9H412z"/>
		<path class="st7" d="M411.1,42.3l-0.3-1l1.8,0c0.4,0,0.5-0.2,0.5-0.6V31h-9.2v11.3h-1V30.1h11.2v10.9c0,0.9-0.4,1.4-1.2,1.4H411.1
			z M412.1,32.6v0.9H405v-0.9H412.1z M411.4,35.1v4.5h-5.6v-4.5H411.4z M410.4,36h-3.7v2.7h3.7V36z"/>
		<path class="st7" d="M408.2,45.9c-0.4-0.7-0.8-1.4-1.4-2.1l1-0.4c0.5,0.7,1,1.5,1.5,2.5h5.4v1h-2.2c-0.7,2.2-1.7,4.1-3.1,5.6
			c1.5,1.3,3.4,2.3,5.6,3.1l-0.5,0.8c-2.3-0.9-4.2-1.9-5.7-3.3c-1.6,1.5-3.6,2.6-6,3.2l-0.5-0.9c2.4-0.6,4.3-1.6,5.8-3
			c-1.6-1.6-2.7-3.5-3.4-5.6h-2.2v-1H408.2z M408.7,51.8c1.2-1.4,2.2-3,2.7-4.9h-5.8C406.2,48.8,407.2,50.4,408.7,51.8z"/>
		<path class="st7" d="M406.2,57.9c-0.4,1.1-0.8,2.2-1.4,3.2v9.4h-1v-7.8c-0.4,0.6-0.9,1.2-1.5,1.8l-0.3-1.1
			c1.5-1.7,2.6-3.6,3.2-5.8L406.2,57.9z M408.6,58.5c-0.1,0.7-0.3,1.4-0.5,2h2.1v-2.9h1v2.9h3.2v1h-3.2v3.4h3.7v1h-3.7v4.5h-1v-4.5
			H406v-1h4.1v-3.4h-2.4c-0.4,0.9-0.8,1.8-1.3,2.5l-0.6-0.8c0.9-1.3,1.4-2.9,1.7-4.7L408.6,58.5z"/>
		<path class="st7" d="M408.9,71.5c1.8,2.1,3.8,3.7,6.2,4.9l-0.5,1c-2.3-1.3-4.3-2.9-6-4.9c-1.5,1.9-3.5,3.5-6,5l-0.5-1
			c2.5-1.3,4.6-2.9,6.2-4.9H408.9z M413,84.4h-1v-0.8h-6.9v0.8h-1v-5.7h8.9V84.4z M412.2,76v1h-7.3v-1H412.2z M412,82.6v-2.9h-6.9
			v2.9H412z"/>
		<path class="st7" d="M413.7,87.1l-0.6,0.6h1.7v1h-4.3c0.1,1.7,0.3,3.1,0.5,4.1c0.1,0.4,0.2,0.7,0.3,1c0.7-1.1,1.3-2.4,1.7-3.9
			l0.9,0.4c-0.6,1.9-1.3,3.4-2.2,4.7c0.2,0.4,0.4,0.8,0.6,1.2c0.5,0.7,0.8,1,1.1,1c0.3,0,0.5-0.7,0.7-2.2l0.9,0.5
			c-0.3,1.9-0.8,2.8-1.4,2.8c-0.6,0-1.2-0.4-1.9-1.3c-0.3-0.3-0.5-0.7-0.7-1.2c-1,1.2-2.1,2-3.5,2.6l-0.6-0.8
			c1.4-0.6,2.6-1.6,3.6-2.8c-0.2-0.5-0.4-1.1-0.5-1.7c-0.3-1.2-0.5-2.7-0.6-4.4h-4.8V91h3.4c0,2.4-0.1,3.9-0.3,4.6
			c-0.2,0.6-0.6,0.9-1.3,0.9c-0.3,0-0.7,0-1.2-0.1l-0.3-0.9c0.5,0,1,0,1.4,0c0.3,0,0.5-0.2,0.6-0.6c0.1-0.5,0.1-1.5,0.2-3h-2.4v0.4
			c-0.1,2.5-0.6,4.5-1.7,6l-0.8-0.7c0.9-1.3,1.4-3.1,1.4-5.4v-4.7h5.8c0-0.7,0-1.4,0-2.2h1c0,0.8,0,1.5,0,2.2h2.6
			c-0.4-0.5-1-1-1.7-1.6l0.6-0.6C412.6,86,413.2,86.6,413.7,87.1z"/>
	</g>
</g>
<rect x="519.7" y="3" class="st3" width="50.1" height="131.9"/>
<g>
	<rect x="517.7" y="1" class="st4" width="50.1" height="131.9"/>
	<path class="st5" d="M568.2,133.4h-51.1V0.5h51.1V133.4z M518.2,132.4h49.1V1.5h-49.1V132.4z"/>
</g>
<g transform="translate(20 10)">
	<g class="st6">
		<path class="st7" d="M523,15.5c1.8,2.1,3.8,3.7,6.2,4.9l-0.5,1c-2.3-1.3-4.3-2.9-6-4.9c-1.5,1.9-3.5,3.5-6,4.9l-0.5-1
			c2.5-1.3,4.6-2.9,6.2-4.9H523z M527.1,28.3h-1v-0.8h-6.9v0.8h-1v-5.7h8.9V28.3z M526.3,19.9v1H519v-1H526.3z M526.1,26.5v-2.9
			h-6.9v2.9H526.1z"/>
		<path class="st7" d="M525.2,42.3l-0.3-1l1.8,0c0.4,0,0.5-0.2,0.5-0.6V31h-9.2v11.3h-1V30.1h11.2v10.9c0,0.9-0.4,1.4-1.2,1.4H525.2
			z M526.3,32.6v0.9h-7.2v-0.9H526.3z M525.5,35.1v4.5h-5.6v-4.5H525.5z M524.5,36h-3.7v2.7h3.7V36z"/>
		<path class="st7" d="M519.9,50.2c-0.1,0.3-0.2,0.5-0.3,0.8h2.9v0.8c-0.3,0.9-0.8,1.7-1.6,2.4c0.7,0.3,1.3,0.6,1.9,1l-0.5,0.8
			c-0.6-0.4-1.3-0.7-2.2-1.1c-0.9,0.6-2.1,1.2-3.5,1.6l-0.5-0.8c1.2-0.3,2.1-0.7,3-1.1c-0.6-0.3-1.3-0.5-1.9-0.8
			c0.4-0.6,0.7-1.2,1-1.8h-1.7v-0.9h2c0.1-0.3,0.2-0.6,0.3-0.9L519.9,50.2z M519.3,46.2v-2.7h0.9v2.7h2.6v0.9h-2.6v0.2
			c0.8,0.4,1.5,0.8,2.3,1.3l-0.5,0.8c-0.7-0.6-1.3-1-1.8-1.3v1.8h-0.9v-2.7c-0.5,1.1-1.3,2.1-2.5,2.9l-0.5-0.8
			c1.1-0.6,1.8-1.3,2.3-2.1h-2v-0.9H519.3z M518.6,45.5l-0.7,0.3c-0.3-0.7-0.6-1.3-0.9-1.8l0.8-0.3C518,44.3,518.3,44.9,518.6,45.5z
			 M521.6,51.8h-2.4c-0.2,0.5-0.5,0.9-0.8,1.3c0.6,0.2,1.1,0.4,1.6,0.6C520.8,53.2,521.3,52.5,521.6,51.8z M522.7,44.1
			c-0.3,0.6-0.6,1.2-1.1,1.8l-0.7-0.4c0.4-0.6,0.8-1.2,1.1-1.8L522.7,44.1z M524.2,48.9c-0.3,0.6-0.5,1.2-0.8,1.7l-0.6-0.8
			c0.8-1.6,1.4-3.7,1.7-6.4l1,0.2c-0.1,0.7-0.2,1.4-0.3,2h3.7v1h-0.9c-0.1,2.3-0.5,4.3-1.3,6c0.7,1.3,1.6,2.2,2.6,2.9l-0.5,0.8
			c-1-0.7-1.8-1.7-2.5-2.8c-0.7,1.1-1.5,2.1-2.6,2.8l-0.5-0.8c1.1-0.8,1.9-1.7,2.6-2.9C525.1,51.5,524.6,50.3,524.2,48.9z
			 M524.7,47.4c0.4,1.6,0.8,3.1,1.4,4.2c0.5-1.4,0.8-3.1,0.9-5h-2.1L524.7,47.4z"/>
		<path class="st7" d="M516.8,70.3l-0.2-1c0.4,0,0.7,0.1,1.1,0.1c0.4,0,0.5-0.2,0.5-0.6v-3.4c-0.6,0.2-1.1,0.4-1.7,0.6l-0.3-1
			c0.6-0.2,1.3-0.4,1.9-0.6v-3.2h-1.7v-1h1.7v-2.7h1v2.7h1.3v1h-1.3V64c0.4-0.2,0.9-0.4,1.3-0.6v1c-0.4,0.2-0.9,0.4-1.3,0.6V69
			c0,0.8-0.4,1.2-1.2,1.2H516.8z M520.5,70.4l-0.8-0.7c1-1.9,1.5-4.3,1.5-7.2v-4.4h7.4v3.4H526v1.7h3v0.9h-3v1.7h2.4v4.6h-0.9v-0.7
			h-3.8v0.7h-0.9v-4.6h2.3v-1.7h-2.9C522,66.5,521.5,68.6,520.5,70.4z M522.2,61.5v1c0,0.2,0,0.4,0,0.7h2.8v-1.7H522.2z M522.2,59
			v1.6h5.4V59H522.2z M527.4,68.8v-2.1h-3.8v2.1H527.4z"/>
		<path class="st7" d="M520.2,71.9c-0.3,1-0.8,2-1.2,2.9v9.6h-1v-8c-0.5,0.7-1,1.3-1.5,1.9l-0.3-1.1c1.5-1.7,2.5-3.6,3.2-5.8
			L520.2,71.9z M527.7,72.2v4.4h-2.8v1.5h4v1h-3c0.8,1.4,1.9,2.6,3.3,3.7l-0.6,0.9c-1.4-1.2-2.6-2.7-3.5-4.5h-0.2v5.3h-1v-5.3h-0.2
			c-0.9,1.9-2.1,3.5-3.5,4.6l-0.6-0.9c1.3-0.9,2.4-2.1,3.3-3.6H520v-1h3.9v-1.5h-2.8v-4.4H527.7z M526.7,73.2h-4.6v2.5h4.6V73.2z"/>
		<path class="st7" d="M523,85.6c1.8,1.9,3.8,3.3,6.1,4.4l-0.5,0.9c-2.3-1.1-4.3-2.6-6-4.3c-1.5,1.7-3.5,3.2-6,4.4l-0.5-0.9
			c2.5-1.2,4.5-2.7,6.1-4.4H523z M526.6,90v1h-3.4v2.4h4.1v1h-4.1V97h5.3v1h-11.7v-1h5.3v-2.6h-4.1v-1h4.1V91h-3.4v-1H526.6z"/>
	</g>
</g>
<g id="textgroup" transform="translate(0,0)">
	<g id="Textbasic13" transform="translate(232,172)">
		<rect x="-7.7" y="-16.8" class="st8" width="96.1" height="20"/>
		<g transform="translate(0 0)">
			<g class="st6">
				<path class="st9" d="M-4.1-7.3c0.4-1.2,0.6-2.4,0.7-3.7h-3.5v-0.8h4.3v0.7c-0.1,1.8-0.4,3.3-0.9,4.7c0.5,0.8,1,1.5,1.5,2.3
					l-0.7,0.7c-0.4-0.7-0.8-1.3-1.2-2C-4.6-4.2-5.5-3-6.6-2l-0.6-0.7c1.2-1,2.1-2.3,2.7-3.7c-0.7-1-1.5-2-2.3-3l0.6-0.6
					C-5.4-9.1-4.7-8.2-4.1-7.3z M3.1-11.9v0.8c-0.3,1.9-0.9,3.8-2,5.5c0.7,1.1,1.5,2.2,2.6,3.2L3.2-1.7c-1-1-1.8-2.1-2.5-3.1
					C-0.1-3.7-1-2.7-2.1-1.7l-0.6-0.7c1.2-1,2.1-2.1,2.9-3.2c-0.9-1.8-1.5-3.6-1.6-5.4h-0.4v-0.8H3.1z M0.7-6.5
					c0.8-1.4,1.4-3,1.6-4.6h-2.9C-0.5-9.5-0.1-7.9,0.7-6.5z"/>
				<path class="st9" d="M10.3-10.8c-0.2-0.5-0.5-1-0.9-1.5l0.8-0.3c0.3,0.5,0.6,1.1,0.9,1.8h4.5v0.8H9.3L9.2-7.9v0h5
					c0,2.4-0.1,3.9-0.3,4.6c-0.2,1-0.8,1.5-1.8,1.6c-0.4,0-0.9,0-1.4,0l-0.3-0.8c0.6,0,1.1,0,1.6,0c0.6,0,1-0.5,1.1-1.3
					c0.1-0.5,0.1-1.6,0.1-3.3H9.1C8.9-6,8.6-5.2,8.2-4.4c-0.6,1-1.4,2-2.5,2.8L5.1-2.2c1.3-1.1,2.1-2.1,2.5-3c0.4-0.9,0.6-2,0.7-3.1
					C8.4-9,8.4-9.6,8.4-10H5.1v-0.8H10.3z"/>
				<path class="st9" d="M22.6-12.6c1.5,1.8,3.3,3.2,5.3,4.2l-0.5,0.8c-2-1.1-3.7-2.5-5.1-4.2c-1.3,1.6-3,3-5.2,4.2l-0.5-0.8
					c2.1-1.1,3.9-2.5,5.3-4.2H22.6z M26.1-1.6h-0.8v-0.7h-5.9v0.7h-0.8v-4.8h7.6V-1.6z M25.4-8.8V-8h-6.2v-0.8H25.4z M25.3-3.1v-2.5
					h-5.9v2.5H25.3z"/>
				<path class="st9" d="M36.5-1.6l-0.2-0.9l1.6,0c0.3,0,0.5-0.2,0.5-0.5v-8.3h-7.9v9.7h-0.9v-10.5h9.6v9.3c0,0.8-0.3,1.2-1,1.2
					H36.5z M37.4-9.9v0.8h-6.2v-0.8H37.4z M36.7-7.8v3.9h-4.8v-3.9H36.7z M35.9-7h-3.1v2.3h3.1V-7z"/>
				<path class="st9" d="M46.6-9.6c1.5,1.1,3.2,2,5.2,2.6l-0.4,0.7c-2-0.7-3.6-1.5-5-2.6c-1.3,1-3,1.9-5,2.6L40.9-7
					c2.1-0.7,3.8-1.5,5.2-2.6H46.6z M41.7-9.1L41-9.6c0.7-0.9,1.3-1.9,1.6-3l0.8,0.2c-0.1,0.3-0.2,0.6-0.3,0.9h3.2v0.8h-1.7
					c0.2,0.4,0.4,0.8,0.5,1.2l-0.8,0.3c-0.2-0.5-0.3-1-0.6-1.5h-0.9C42.4-10.2,42.1-9.6,41.7-9.1z M50-5.5c-0.3,1-0.7,1.9-1.2,2.7
					h2.6V-2H41.3v-0.8h6.6c0.5-0.8,0.9-1.8,1.2-2.9L50-5.5z M44.4-3.3l-0.8,0.2c-0.2-0.8-0.6-1.5-0.9-2.2l0.8-0.3
					C43.8-4.9,44.1-4.2,44.4-3.3z M49.5-7v0.8h-6.2V-7H49.5z M46.9-3.4l-0.8,0.2C46-4,45.7-4.8,45.4-5.6l0.8-0.3
					C46.5-5.1,46.7-4.3,46.9-3.4z M47.1-9.6l-0.7-0.5c0.6-0.8,1-1.6,1.2-2.5l0.8,0.2c-0.1,0.3-0.2,0.6-0.3,0.9h3.5v0.8h-1.9
					c0.3,0.5,0.5,0.9,0.6,1.3l-0.8,0.3c-0.2-0.5-0.5-1.1-0.7-1.6h-1C47.6-10.4,47.4-10,47.1-9.6z"/>
				<path class="st9" d="M62.6-12.2v2.3h-4.2v0.8H61v0.7h-2.6v0.9h1.5c0.9-0.6,1.8-1.2,2.4-2l0.7,0.4c-0.6,0.6-1.2,1.2-1.9,1.6h2.5
					v0.7h-3.8c-0.6,0.3-1.3,0.6-2,0.9h4.2v4.4h-0.9V-2h-5.1v0.5h-0.9v-3.6c-0.6,0.1-1.2,0.3-1.9,0.4L53-5.5c2.1-0.2,3.9-0.7,5.5-1.3
					h-5.4v-0.7h4.5v-0.9h-3.1v-0.7h3.1v-0.8h-3.5v-2.3H62.6z M56.7-11.5h-1.8v1h1.8V-11.5z M61.3-5.2h-5.1v0.9h5.1V-5.2z M56.2-2.8
					h5.1v-0.9h-5.1V-2.8z M59.2-11.5h-1.7v1h1.7V-11.5z M61.8-11.5H60v1h1.8V-11.5z"/>
				<path class="st9" d="M67.6-7.8l-0.6,0.6C66.5-7.7,65.9-8.3,65-9l0.6-0.6C66.4-9,67.1-8.4,67.6-7.8z M67.7-6.1
					c-0.5,1.5-1,3-1.6,4.3l-0.8-0.3c0.6-1.4,1.2-2.8,1.6-4.3L67.7-6.1z M67.8-10.9l-0.6,0.6c-0.5-0.5-1.1-1-1.9-1.6l0.6-0.6
					C66.7-11.9,67.3-11.4,67.8-10.9z M69.9-7c0,1.6-0.2,2.7-0.5,3.5c-0.3,0.8-0.8,1.4-1.5,2l-0.6-0.7c0.6-0.5,1-1,1.2-1.7
					C68.9-4.6,69-5.6,69-7H69.9z M68.3-8.3c0.1,0,0.1,0,0.2-0.1c0.5-0.3,1-1,1.8-2.2h-2.1v-0.8h3.4c-0.2-0.4-0.3-0.9-0.5-1.2
					l0.9-0.1c0.2,0.4,0.4,0.9,0.5,1.4h3.2v0.8h-4.4c-0.6,1-1.1,1.7-1.5,2.2c1.4-0.1,2.8-0.2,4.1-0.4c-0.3-0.3-0.5-0.7-0.8-1.1
					l0.7-0.4c0.8,1,1.4,1.8,1.9,2.6l-0.7,0.5c-0.2-0.3-0.4-0.6-0.6-0.9c-1.8,0.2-3.7,0.4-5.8,0.5L68.3-8.3z M71.9-7v5.2H71V-7H71.9z
					 M74.1-1.7c-0.7,0-1-0.3-1-0.9V-7h0.8v4.2c0,0.2,0.1,0.3,0.2,0.3h0.5c0.2,0,0.3-0.2,0.4-0.4c0-0.3,0.1-0.8,0.1-1.4L75.9-4
					c0,1.1-0.1,1.7-0.2,1.9c-0.1,0.2-0.4,0.3-0.9,0.4H74.1z"/>
				<path class="st9" d="M78.8-9.3v-1.7c-0.5,0.1-1,0.1-1.6,0.2l-0.2-0.8c1.5-0.1,2.8-0.4,4-0.8l0.3,0.8c-0.5,0.2-1.1,0.3-1.7,0.4
					v1.9h1.5v0.8h-1.5v0.6c0.6,0.6,1.1,1.2,1.7,1.9l-0.5,0.7C80.4-6,80-6.6,79.7-7.1v5.4h-0.8v-5.4c-0.4,1.2-1,2.2-1.7,3.2l-0.4-1
					c0.9-1.1,1.6-2.3,1.9-3.7h-1.7v-0.8H78.8z M87.5-7.6v0.8h-2.6v1.5h2.2v0.8h-2.2v1.6h2.9V-2h-6.7v-0.8H84v-1.6h-2.2v-0.8H84v-1.5
					h-2.5v-0.8H87.5z M87-12.2v3.5h-5v-3.5H87z M86.2-11.4h-3.3v1.9h3.3V-11.4z"/>
			</g>
		</g>
	</g>
</g>
<g id="assistantgroup" transform="translate(0,0)">
</g>
</svg>
