<?xml version="1.0" encoding="UTF-8"?>
<svg width="32px" height="32px" viewBox="0 0 32 32" version="1.1" xmlns="http://www.w3.org/2000/svg" xmlns:xlink="http://www.w3.org/1999/xlink">
    <!-- Generator: Sketch 52.6 (67491) - http://www.bohemiancoding.com/sketch -->
    <title>人脸融合-32px</title>
    <desc>Created with Sketch.</desc>
    <g id="人脸融合-32px" stroke="none" stroke-width="1" fill="none" fill-rule="evenodd">
        <rect id="Rectangle-Copy" fill="#444444" opacity="0" x="0" y="0" width="32" height="32"></rect>
        <g id="Group" transform="translate(1.000000, 3.000000)" fill="#00A4FF">
            <g id="Group-15">
                <polygon id="Rectangle-78" points="3 1 29 1 29 3 3 3"></polygon>
                <rect id="Rectangle-78-Copy" x="1" y="23" width="28" height="2"></rect>
                <rect id="Rectangle-79" x="1" y="8" width="2" height="17"></rect>
                <rect id="Rectangle-79-Copy" x="27" y="1" width="2" height="17"></rect>
                <circle id="Oval-30" cx="2" cy="2" r="2"></circle>
                <circle id="Oval-30-Copy" cx="28" cy="24" r="2"></circle>
            </g>
        </g>
        <path d="M23,24 L21,24 L23,24 Z M21,23 L21,22.7 C21,21.3 19.5,20 18,20 L14,20 C12.5,20 11,21.3 11,22.7 L11,23 L9,23 L9,22.7 C9,20.2 11.3,18 14,18 L18,18 C20.7,18 23,20.2 23,22.7 L23,23 L21,23 Z M11,24 L9,24 L11,24 Z M16,17 C13.8,17 12,15.2 12,13 C12,10.8 13.8,9 16,9 L16,11 C14.9,11 14,11.9 14,13 C14,14.1 14.9,15 16,15 L16,17 Z M17,15 L19,15 L19,17 L17,17 L17,15 Z M17,9 L19,9 L19,11 L17,11 L17,9 Z M20,10 L22,10 L22,12 L20,12 L20,10 Z M19,13 L21,13 L21,15 L19,15 L19,13 Z M22,12 L24,12 L24,14 L22,14 L22,12 Z M21,15 L23,15 L23,17 L21,17 L21,15 Z" id="Combined-Shape" fill="#00A4FF" fill-rule="nonzero"></path>
    </g>
</svg>