<?xml version="1.0" encoding="utf-8"?>
<!-- Generator: Adobe Illustrator 23.0.1, SVG Export Plug-In . SVG Version: 6.00 Build 0)  -->
<!DOCTYPE svg PUBLIC "-//W3C//DTD SVG 1.1//EN" "http://www.w3.org/Graphics/SVG/1.1/DTD/svg11.dtd" [
	<!ENTITY ns_extend "http://ns.adobe.com/Extensibility/1.0/">
	<!ENTITY ns_ai "http://ns.adobe.com/AdobeIllustrator/10.0/">
	<!ENTITY ns_graphs "http://ns.adobe.com/Graphs/1.0/">
	<!ENTITY ns_vars "http://ns.adobe.com/Variables/1.0/">
	<!ENTITY ns_imrep "http://ns.adobe.com/ImageReplacement/1.0/">
	<!ENTITY ns_sfw "http://ns.adobe.com/SaveForWeb/1.0/">
	<!ENTITY ns_custom "http://ns.adobe.com/GenericCustomNamespace/1.0/">
	<!ENTITY ns_adobe_xpath "http://ns.adobe.com/XPath/1.0/">
]>
<svg version="1.1" id="图层_1" xmlns:x="&ns_extend;" xmlns:i="&ns_ai;" xmlns:graph="&ns_graphs;"
	 xmlns="http://www.w3.org/2000/svg" xmlns:xlink="http://www.w3.org/1999/xlink" x="0px" y="0px" width="830px" height="610px"
	 viewBox="0 0 830 610" style="enable-background:new 0 0 830 610;" xml:space="preserve">
<style type="text/css">
	.st0{fill:#BABABA;}
	.st1{fill:#CEE3FF;}
	.st2{fill:#878787;}
	.st3{fill:none;stroke:#878787;stroke-miterlimit:10;}
	.st4{enable-background:new    ;}
	.st5{fill:#00A4FF;}
	.st6{opacity:0.6;fill:#BBBBBB;enable-background:new    ;}
	.st7{fill:#FFFFFF;}
	.st8{fill:#E5E5E5;}
	.st9{fill:#444444;}
</style>
<metadata>
	<sfw  xmlns="&ns_sfw;">
		<slices></slices>
		<sliceSourceBounds  bottomLeftOrigin="true" height="610" width="764" x="33" y="0"></sliceSourceBounds>
	</sfw>
</metadata>
<g>
	<g>
		<path class="st0" d="M689,96h-6v1h6V96L689,96z M679,96h-6v1h6V96L679,96z M669,96h-6v1h6V96L669,96z M659,96h-6v1h6V96L659,96z
			 M649,96h-6v1h6V96L649,96z M639,96h-6v1h6V96L639,96z M629,96h-6v1h6V96L629,96z M619,96h-6v1h6V96L619,96z M609,96h-6v1h6V96
			L609,96z M599,96h-6v1h6V96L599,96z M589,96h-6v1h6V96L589,96z M579,96h-6v1h6V96L579,96z M569,96h-6v1h6V96L569,96z M559,96h-6v1
			h6V96L559,96z M549,96h-6v1h6V96L549,96z M539,96h-6v1h6V96L539,96z M529,96h-6v1h6V96L529,96z M519,96h-6v1h6V96L519,96z M509,96
			h-6v1h6V96L509,96z M499,96h-6v1h6V96L499,96z M489,96h-6v1h6V96L489,96z M479,96h-6v1h6V96L479,96z M469,96h-6v1h6V96L469,96z
			 M459,96h-6v1h6V96L459,96z M449,96h-6v1h6V96L449,96z M439,96h-6v1h6V96L439,96z M429,96h-6v1h6V96L429,96z M419,96h-6v1h6V96
			L419,96z M409,96h-6v1h6V96L409,96z M399,96h-6v1h6V96L399,96z M389,96h-6v1h6V96L389,96z M379,96h-6v1h6V96L379,96z M369,96h-6v1
			h6V96L369,96z M359,96h-6v1h6V96L359,96z M349,96h-6v1h6V96L349,96z M339,96h-6v1h6V96L339,96z M329,96h-6v1h6V96L329,96z M319,96
			h-6v1h6V96L319,96z M309,96h-6v1h6V96L309,96z M299,96h-6v1h6V96L299,96z M289,96h-6v1h6V96L289,96z M279,96h-6v1h6V96L279,96z
			 M269,96h-6v1h6V96L269,96z M259,96h-6v1h6V96L259,96z M249,96h-6v1h6V96L249,96z M239,96h-6v1h6V96L239,96z M229,96h-6v1h6V96
			L229,96z M219,96h-6v1h6V96L219,96z M209,96h-6v1h6V96L209,96z M199,96h-6v1h6V96L199,96z M189,96h-6v1h6V96L189,96z M179,96h-6v1
			h6V96L179,96z M169,96h-6v1h6V96L169,96z M159,96h-6v1h6V96L159,96z M149,96h-6v1h6V96L149,96z M139,96h-6v1h6V96L139,96z M129,96
			h-6v1h6V96L129,96z M119,96h-6v1h6V96L119,96z M109,96h-6v1h6V96L109,96z M99,96h-6v1h6V96L99,96z M89,96h-6v1h6V96L89,96z M79,96
			h-6v1h6V96L79,96z M69,96h-6v1h6V96L69,96z M59,96h-6v1h6V96L59,96z M49,96h-6v1h6V96L49,96z M39,96h-6v1h6V96L39,96z M34,100h-1
			v6h1V100L34,100z M34,110h-1v6h1V110L34,110z M34,120h-1v6h1V120L34,120z M34,130h-1v6h1V130L34,130z M34,140h-1v6h1V140L34,140z
			 M34,150h-1v6h1V150L34,150z M34,160h-1v6h1V160L34,160z M34,170h-1v6h1V170L34,170z M34,180h-1v6h1V180L34,180z M34,190h-1v6h1
			V190L34,190z M34,200h-1v6h1V200L34,200z M34,210h-1v6h1V210L34,210z M34,220h-1v6h1V220L34,220z M34,230h-1v6h1V230L34,230z
			 M34,240h-1v6h1V240L34,240z M34,250h-1v6h1V250L34,250z M34,260h-1v6h1V260L34,260z M34,270h-1v6h1V270L34,270z M34,280h-1v6h1
			V280L34,280z M34,290h-1v6h1V290L34,290z M34,300h-1v6h1V300L34,300z M34,310h-1v6h1V310L34,310z M34,320h-1v6h1V320L34,320z
			 M34,330h-1v6h1V330L34,330z M34,340h-1v6h1V340L34,340z M34,350h-1v6h1V350L34,350z M34,360h-1v6h1V360L34,360z M34,370h-1v6h1
			V370L34,370z M34,380h-1v6h1V380L34,380z M34,390h-1v6h1V390L34,390z M34,400h-1v6h1V400L34,400z M34,410h-1v6h1V410L34,410z
			 M34,420h-1v6h1V420L34,420z M34,430h-1v6h1V430L34,430z M34,440h-1v6h1V440L34,440z M34,450h-1v6h1V450L34,450z M34,460h-1v6h1
			V460L34,460z M34,470h-1v6h1V470L34,470z M34,480h-1v6h1V480L34,480z M34,490h-1v6h1V490L34,490z M34,500h-1v6h1V500L34,500z
			 M34,510h-1v6h1V510L34,510z M34,520h-1v6h1V520L34,520z M34,530h-1v6h1V530L34,530z M34,540h-1v6h1V540L34,540z M34,550h-1v6h1
			V550L34,550z M34,560h-1v6h1V560L34,560z M34,570h-1v6h1V570L34,570z M34,580h-1v6h1V580L34,580z M34,590h-1v6h1V590L34,590z
			 M34,600h-1v6h1V600L34,600z M39,609h-6v1h6V609L39,609z M49,609h-6v1h6V609L49,609z M59,609h-6v1h6V609L59,609z M69,609h-6v1h6
			V609L69,609z M79,609h-6v1h6V609L79,609z M89,609h-6v1h6V609L89,609z M99,609h-6v1h6V609L99,609z M109,609h-6v1h6V609L109,609z
			 M119,609h-6v1h6V609L119,609z M129,609h-6v1h6V609L129,609z M139,609h-6v1h6V609L139,609z M149,609h-6v1h6V609L149,609z M159,609
			h-6v1h6V609L159,609z M169,609h-6v1h6V609L169,609z M179,609h-6v1h6V609L179,609z M189,609h-6v1h6V609L189,609z M199,609h-6v1h6
			V609L199,609z M209,609h-6v1h6V609L209,609z M219,609h-6v1h6V609L219,609z M229,609h-6v1h6V609L229,609z M239,609h-6v1h6V609
			L239,609z M249,609h-6v1h6V609L249,609z M259,609h-6v1h6V609L259,609z M269,609h-6v1h6V609L269,609z M279,609h-6v1h6V609L279,609z
			 M289,609h-6v1h6V609L289,609z M299,609h-6v1h6V609L299,609z M309,609h-6v1h6V609L309,609z M319,609h-6v1h6V609L319,609z M329,609
			h-6v1h6V609L329,609z M339,609h-6v1h6V609L339,609z M349,609h-6v1h6V609L349,609z M359,609h-6v1h6V609L359,609z M369,609h-6v1h6
			V609L369,609z M379,609h-6v1h6V609L379,609z M389,609h-6v1h6V609L389,609z M399,609h-6v1h6V609L399,609z M409,609h-6v1h6V609
			L409,609z M419,609h-6v1h6V609L419,609z M429,609h-6v1h6V609L429,609z M439,609h-6v1h6V609L439,609z M449,609h-6v1h6V609L449,609z
			 M459,609h-6v1h6V609L459,609z M469,609h-6v1h6V609L469,609z M479,609h-6v1h6V609L479,609z M489,609h-6v1h6V609L489,609z M499,609
			h-6v1h6V609L499,609z M509,609h-6v1h6V609L509,609z M519,609h-6v1h6V609L519,609z M529,609h-6v1h6V609L529,609z M539,609h-6v1h6
			V609L539,609z M549,609h-6v1h6V609L549,609z M559,609h-6v1h6V609L559,609z M569,609h-6v1h6V609L569,609z M579,609h-6v1h6V609
			L579,609z M589,609h-6v1h6V609L589,609z M599,609h-6v1h6V609L599,609z M609,609h-6v1h6V609L609,609z M619,609h-6v1h6V609L619,609z
			 M629,609h-6v1h6V609L629,609z M639,609h-6v1h6V609L639,609z M649,609h-6v1h6V609L649,609z M659,609h-6v1h6V609L659,609z M669,609
			h-6v1h6V609L669,609z M679,609h-6v1h6V609L679,609z M689,609h-6v1h6V609L689,609z M689,600h-1v6h1V600L689,600z M689,590h-1v6h1
			V590L689,590z M689,580h-1v6h1V580L689,580z M689,570h-1v6h1V570L689,570z M689,560h-1v6h1V560L689,560z M689,550h-1v6h1V550
			L689,550z M689,540h-1v6h1V540L689,540z M689,530h-1v6h1V530L689,530z M689,520h-1v6h1V520L689,520z M689,510h-1v6h1V510L689,510z
			 M689,500h-1v6h1V500L689,500z M689,490h-1v6h1V490L689,490z M689,480h-1v6h1V480L689,480z M689,470h-1v6h1V470L689,470z M689,460
			h-1v6h1V460L689,460z M689,450h-1v6h1V450L689,450z M689,440h-1v6h1V440L689,440z M689,430h-1v6h1V430L689,430z M689,420h-1v6h1
			V420L689,420z M689,410h-1v6h1V410L689,410z M689,400h-1v6h1V400L689,400z M689,390h-1v6h1V390L689,390z M689,380h-1v6h1V380
			L689,380z M689,370h-1v6h1V370L689,370z M689,360h-1v6h1V360L689,360z M689,350h-1v6h1V350L689,350z M689,340h-1v6h1V340L689,340z
			 M689,330h-1v6h1V330L689,330z M689,320h-1v6h1V320L689,320z M689,310h-1v6h1V310L689,310z M689,300h-1v6h1V300L689,300z M689,290
			h-1v6h1V290L689,290z M689,280h-1v6h1V280L689,280z M689,270h-1v6h1V270L689,270z M689,260h-1v6h1V260L689,260z M689,250h-1v6h1
			V250L689,250z M689,240h-1v6h1V240L689,240z M689,230h-1v6h1V230L689,230z M689,220h-1v6h1V220L689,220z M689,210h-1v6h1V210
			L689,210z M689,200h-1v6h1V200L689,200z M689,190h-1v6h1V190L689,190z M689,180h-1v6h1V180L689,180z M689,170h-1v6h1V170L689,170z
			 M689,160h-1v6h1V160L689,160z M689,150h-1v6h1V150L689,150z M689,140h-1v6h1V140L689,140z M689,130h-1v6h1V130L689,130z M689,120
			h-1v6h1V120L689,120z M689,110h-1v6h1V110L689,110z M689,100h-1v6h1V100L689,100z"/>
	</g>
	<g id="GrayRectGroup6_10_" transform="translate(669.5,130)">
		<rect x="-619.5" y="13" class="st1" width="288" height="112"/>
	</g>
	<g>
		<polygon class="st2" points="369,204 374,199 369,194 		"/>
		<line class="st3" x1="369" y1="199" x2="338" y2="199"/>
	</g>
	<g>
		<polygon class="st2" points="209,298 214,303 219,298 		"/>
		<line class="st3" x1="214" y1="298" x2="214" y2="255"/>
	</g>
	<g>
		<g>
			<polygon class="st2" points="523,298 528,303 533,298 			"/>
		</g>
		<g>
			<polygon class="st2" points="523,270 528,265 533,270 			"/>
			<line class="st3" x1="528" y1="270" x2="528" y2="298"/>
		</g>
	</g>
	<g>
		<g>
			<polygon class="st2" points="356,466 361,471 366,466 			"/>
		</g>
		<g>
			<polygon class="st2" points="356,440 361,435 366,440 			"/>
			<line class="st3" x1="361" y1="440" x2="361" y2="466"/>
		</g>
	</g>
	<g>
		<g>
			<polygon class="st2" points="704,333 699,338 704,343 			"/>
		</g>
		<g>
			<polygon class="st2" points="730,333 735,338 730,343 			"/>
			<line class="st3" x1="730" y1="338" x2="704" y2="338"/>
		</g>
	</g>
	<g>
		<polygon class="st2" points="209,128 214,133 219,128 		"/>
		<line class="st3" x1="214" y1="128" x2="214" y2="52"/>
	</g>
	<g>
		<polygon class="st2" points="523,67 528,62 533,67 		"/>
		<line class="st3" x1="528" y1="67" x2="528" y2="143"/>
	</g>
	<g transform="translate(20 9)">
		<g class="st4">
			<path class="st5" d="M48.3,151.8v5.9l3.1-3h1.9l-3.2,3l3.5,4.3h-1.9l-2.6-3.3l-0.8,0.8v2.5h-1.5v-10.2H48.3z"/>
			<path class="st5" d="M60.1,155.4c0.4,0.5,0.7,1.1,0.7,2v4.6h-1.4v-1c-0.3,0.4-0.6,0.7-1.1,0.9c-0.5,0.2-1,0.4-1.7,0.4
				c-0.8,0-1.3-0.2-1.8-0.6c-0.5-0.4-0.7-0.9-0.7-1.5c0-0.8,0.3-1.4,1-1.9c0.6-0.4,1.4-0.6,2.5-0.7l1.6,0v-0.3c0-1-0.5-1.5-1.6-1.5
				c-0.5,0-0.8,0.1-1.1,0.3c-0.3,0.2-0.5,0.5-0.6,0.9l-1.5-0.1c0.2-0.8,0.5-1.4,1.2-1.7c0.5-0.3,1.3-0.5,2.2-0.5
				C58.8,154.6,59.6,154.8,60.1,155.4z M57.8,158.7c-1.4,0-2,0.5-2,1.4c0,0.3,0.1,0.5,0.4,0.7c0.2,0.2,0.5,0.3,0.9,0.3
				c0.6,0,1.2-0.2,1.6-0.6s0.7-0.9,0.7-1.4v-0.4L57.8,158.7z"/>
			<path class="st5" d="M66.8,152v1.3h-1.3c-0.2,0-0.4,0.1-0.5,0.2c-0.1,0.1-0.2,0.3-0.2,0.6v0.7h1.9v1.2h-1.9v6h-1.5v-6h-1.7v-1.2
				h1.7V154c0-0.6,0.2-1.1,0.5-1.4c0.3-0.4,0.8-0.5,1.5-0.5L66.8,152L66.8,152z"/>
			<path class="st5" d="M69.2,151.8v5.9l3.1-3h1.9l-3.2,3l3.5,4.3h-1.9l-2.6-3.3l-0.8,0.8v2.5h-1.5v-10.2H69.2z"/>
			<path class="st5" d="M81,155.4c0.4,0.5,0.7,1.1,0.7,2v4.6h-1.4v-1c-0.3,0.4-0.6,0.7-1.1,0.9c-0.5,0.2-1,0.4-1.7,0.4
				c-0.8,0-1.3-0.2-1.8-0.6c-0.5-0.4-0.7-0.9-0.7-1.5c0-0.8,0.3-1.4,1-1.9c0.6-0.4,1.4-0.6,2.5-0.7l1.6,0v-0.3c0-1-0.5-1.5-1.6-1.5
				c-0.5,0-0.8,0.1-1.1,0.3c-0.3,0.2-0.5,0.5-0.6,0.9l-1.5-0.1c0.2-0.8,0.5-1.4,1.2-1.7c0.5-0.3,1.3-0.5,2.2-0.5
				C79.7,154.6,80.5,154.8,81,155.4z M78.7,158.7c-1.4,0-2,0.5-2,1.4c0,0.3,0.1,0.5,0.4,0.7c0.2,0.2,0.5,0.3,0.9,0.3
				c0.6,0,1.2-0.2,1.6-0.6s0.7-0.9,0.7-1.4v-0.4L78.7,158.7z"/>
			<path class="st5" d="M86.4,156l-0.9,1c-0.6-0.6-1.3-1.4-2.3-2.1l1-0.9C85,154.6,85.8,155.3,86.4,156z M86.8,158.2
				c-0.7,1.8-1.4,3.5-2.2,5.1l-1.2-0.5c0.9-1.6,1.6-3.3,2.3-5L86.8,158.2z M87,152.7l-1,1c-0.6-0.7-1.4-1.4-2.5-2.1l1-0.9
				C85.5,151.4,86.3,152,87,152.7z M89.7,153.2l-1.1,0.5c-0.5-0.9-1-1.6-1.5-2.3l1.1-0.5C88.7,151.6,89.2,152.4,89.7,153.2z
				 M92.1,150.6v3.7h3v7.5c0,1.1-0.5,1.6-1.5,1.6H92l-0.3-1.3l1.5,0c0.4,0,0.6-0.2,0.6-0.6v-1h-4.6v2.9h-1.3v-9.1h2.9v-3.7
				L92.1,150.6L92.1,150.6z M93.7,155.6h-4.6v1.3h4.6V155.6z M89.1,159.3h4.6V158h-4.6V159.3z M95.6,151.4c-0.4,0.9-0.9,1.7-1.6,2.5
				l-1-0.5c0.6-0.8,1.1-1.7,1.5-2.5L95.6,151.4z"/>
			<path class="st5" d="M99.6,159.6c-0.3,1.3-0.8,2.4-1.4,3.4l-1.1-0.7c0.6-0.9,1-1.9,1.2-2.9L99.6,159.6z M102.2,151.5
				c0.2-0.4,0.3-0.7,0.4-1.1l1.4,0.2c-0.1,0.3-0.2,0.6-0.3,0.9h4.4v7.1h-9v-7.1L102.2,151.5L102.2,151.5z M101.8,163.2
				c-0.9,0-1.4-0.4-1.4-1.3v-2.6h1.3v2.3c0,0.3,0.1,0.4,0.4,0.4h2.9c0.3,0,0.4-0.1,0.5-0.2c0.2-0.2,0.3-0.7,0.3-1.5l1.3,0.4
				c-0.1,1.2-0.3,1.9-0.6,2.2c-0.3,0.2-0.7,0.3-1.2,0.3H101.8z M106.8,153.5v-0.9h-6.4v0.9H106.8z M106.8,155.4v-0.9h-6.4v0.9H106.8
				z M106.8,156.5h-6.4v0.9h6.4V156.5z M105.2,160.6l-1,0.7c-0.4-0.6-0.9-1.2-1.6-1.9l1-0.6C104.3,159.5,104.8,160.1,105.2,160.6z
				 M110,161.9l-1.1,0.7c-0.5-0.9-1.1-1.9-1.9-3l1-0.6C108.9,160.2,109.6,161.1,110,161.9z"/>
			<path class="st5" d="M111.8,155.3l-0.8-1c1.2-1.1,2.1-2.3,2.6-3.8l1.2,0.3c-0.1,0.3-0.3,0.7-0.4,1h2.7c-0.2-0.4-0.4-0.8-0.6-1.1
				l1.4-0.2c0.2,0.4,0.4,0.8,0.5,1.3h4.4v1.1h-4.3v0.7h3.8v1h-3.8v0.7h3.8v1h-3.8v0.7h4.6v1.1h-10.5v-3.7
				C112.4,154.6,112.1,155,111.8,155.3z M111.4,160.2v-1.2h5.5v-0.6h1.3v0.6h5.4v1.2h-3.8c0.9,0.7,2.3,1.3,4,1.8l-0.6,1.2
				c-2.2-0.8-3.8-1.7-4.8-2.9h-0.2v3.3h-1.3v-3.3h-0.2c-0.9,1.1-2.5,2.2-4.7,3l-0.7-1.1c1.9-0.6,3.3-1.2,4.1-1.9L111.4,160.2
				L111.4,160.2z M117.3,152.8H114v0.7h3.3V152.8z M117.3,154.5H114v0.7h3.3V154.5z M117.3,156.2H114v0.7h3.3V156.2z"/>
			<path class="st5" d="M127.8,157.1c-0.1,0.4-0.2,0.7-0.3,1.1h3.6v5.2h-1.2v-0.8H128v0.8h-1.2v-3.7c-0.3,0.6-0.7,1.2-1.2,1.7
				l-0.7-1.1c0.7-0.8,1.3-1.8,1.6-3.1h-1V156h1.2c0.1-0.4,0.1-0.9,0.2-1.3h-1.8v-1.2h1.9c0-0.4,0-0.9,0.1-1.3h-1.5V151h5v2.5h0.7
				v1.2h-0.7v2.5L127.8,157.1L127.8,157.1z M129.9,161.4v-2H128v2H129.9z M128.1,156h1.4v-1.3h-1.2
				C128.2,155.1,128.2,155.5,128.1,156z M128.4,153.5h1.1v-1.3h-1.1C128.4,152.6,128.4,153,128.4,153.5z M131.7,154.4v-1.3h1.4
				c-0.3-0.7-0.7-1.4-1-2l1.1-0.5c0.4,0.6,0.8,1.4,1.1,2.2l-0.8,0.4h1.3c0.4-0.8,0.7-1.7,1-2.7l1.2,0.4c-0.3,0.8-0.6,1.6-0.9,2.2
				h1.3v1.3h-2.2v1.7h1.9v1.2h-1.9v1.7h2.5v1.3h-2.5v3.1h-1.3v-3.1h-2.5V159h2.5v-1.7H132v-1.2h2.1v-1.7L131.7,154.4L131.7,154.4z"
				/>
		</g>
	</g>
	<g>
		<g>
			<rect x="68" y="189" class="st6" width="118" height="50"/>
			<g>
				<rect x="66.5" y="187.5" class="st7" width="117" height="49"/>
				<path class="st8" d="M183,188v48H67v-48H183 M184,187H66v50h118V187L184,187z"/>
			</g>
		</g>
		<g transform="translate(20 9)">
			<g>
				<g>
					<path id="XMLID_70_" class="st5" d="M82,216c-7.2,0-13-5.8-13-13s5.8-13,13-13c6.5,0,11.9,4.8,12.8,11h2
						c-0.9-7.3-7.2-13-14.8-13c-8.3,0-15,6.7-15,15s6.7,15,15,15c7.6,0,13.9-5.7,14.9-13h-2C93.9,211.2,88.5,216,82,216z"/>
					<polygon id="XMLID_69_" class="st5" points="89,199 82,195 75,199 75,207 82,211 89,207 89,204.7 87,205.8 87,205.8 82,208.7 
						77,205.8 77,200.2 82,197.3 86.7,200 83,202.1 83,204.4 87,202.1 87,202.1 89,201 					"/>
					<polygon id="XMLID_68_" class="st5" points="85,206.3 89,204 89,201.7 85,204 					"/>
				</g>
			</g>
			<g class="st4">
				<path class="st9" d="M116.1,198.7c0.8,0.6,1.2,1.4,1.3,2.4h-1.1c-0.1-0.7-0.5-1.3-1.1-1.7c-0.5-0.4-1.2-0.6-2-0.6
					c-1.2,0-2.1,0.4-2.7,1.2c-0.6,0.8-0.9,1.8-0.9,3c0,1.2,0.3,2.2,0.9,3c0.6,0.8,1.5,1.2,2.7,1.2c0.8,0,1.5-0.2,2-0.6
					c0.6-0.4,1-1.1,1.2-2h1.1c-0.2,1.2-0.7,2.1-1.6,2.7c-0.8,0.6-1.7,0.9-2.8,0.9c-1.6,0-2.7-0.5-3.6-1.5c-0.8-0.9-1.1-2.1-1.1-3.6
					c0-1.5,0.4-2.7,1.1-3.7c0.8-1.1,2-1.6,3.6-1.6C114.4,197.8,115.4,198.1,116.1,198.7z"/>
				<path class="st9" d="M123.3,198c2.3,0,3.4,1,3.4,2.9c0,2-1.2,3-3.5,3h-2.9v4.1h-1.2v-10H123.3z M120.3,202.9h2.9
					c0.8,0,1.4-0.2,1.8-0.5c0.4-0.3,0.6-0.8,0.6-1.5c0-0.7-0.2-1.2-0.6-1.5c-0.4-0.3-1-0.5-1.8-0.5h-2.9V202.9z"/>
				<path class="st9" d="M129.6,198l3.7,8.5h0l3.7-8.5h1.4v10h-1.1v-8h0l-3.5,8h-1l-3.5-8h0v8h-1.1v-10H129.6z"/>
			</g>
		</g>
	</g>
	<g>
		<g>
			<rect x="204" y="189" class="st6" width="118" height="50"/>
			<g>
				<rect x="202.5" y="187.5" class="st7" width="117" height="49"/>
				<path class="st8" d="M319,188v48H203v-48H319 M320,187H202v50h118V187L320,187z"/>
			</g>
		</g>
		<g transform="translate(20 9)">
			<g>
				<g>
					<path id="XMLID_67_" class="st5" d="M218,216c-7.2,0-13-5.8-13-13s5.8-13,13-13c6.5,0,11.9,4.8,12.8,11h2
						c-0.9-7.3-7.2-13-14.8-13c-8.3,0-15,6.7-15,15s6.7,15,15,15c7.6,0,13.9-5.7,14.9-13h-2C229.9,211.2,224.5,216,218,216z"/>
					<polygon id="XMLID_66_" class="st5" points="225,199 218,195 211,199 211,207 218,211 225,207 225,204.7 223,205.8 223,205.8 
						218,208.7 213,205.8 213,200.2 218,197.3 222.7,200 219,202.1 219,204.4 223,202.1 223,202.1 225,201 					"/>
					<polygon id="XMLID_65_" class="st5" points="221,206.3 225,204 225,201.7 221,204 					"/>
				</g>
			</g>
			<g class="st4">
				<path class="st9" d="M252.1,198.7c0.8,0.6,1.2,1.4,1.3,2.4h-1.1c-0.1-0.7-0.5-1.3-1.1-1.7c-0.5-0.4-1.2-0.6-2-0.6
					c-1.2,0-2.1,0.4-2.7,1.2c-0.6,0.8-0.9,1.8-0.9,3c0,1.2,0.3,2.2,0.9,3c0.6,0.8,1.5,1.2,2.7,1.2c0.8,0,1.5-0.2,2-0.6
					c0.6-0.4,1-1.1,1.2-2h1.1c-0.2,1.2-0.7,2.1-1.6,2.7c-0.8,0.6-1.7,0.9-2.8,0.9c-1.6,0-2.7-0.5-3.6-1.5c-0.8-0.9-1.1-2.1-1.1-3.6
					c0-1.5,0.4-2.7,1.1-3.7c0.8-1.1,2-1.6,3.6-1.6C250.4,197.8,251.4,198.1,252.1,198.7z"/>
				<path class="st9" d="M259.3,198c2.3,0,3.4,1,3.4,2.9c0,2-1.2,3-3.5,3h-2.9v4.1h-1.1v-10H259.3z M256.3,202.9h2.9
					c0.8,0,1.4-0.2,1.8-0.5c0.4-0.3,0.6-0.8,0.6-1.5c0-0.7-0.2-1.2-0.6-1.5c-0.4-0.3-1-0.5-1.8-0.5h-2.9V202.9z"/>
				<path class="st9" d="M265.6,198l3.7,8.5h0l3.7-8.5h1.4v10h-1.1v-8h0l-3.5,8h-1l-3.5-8h0v8h-1.1v-10H265.6z"/>
			</g>
		</g>
	</g>
	<g>
		<g>
			<rect x="52" y="2" class="st6" width="620" height="50"/>
			<g>
				<rect x="50.5" y="0.5" class="st7" width="619" height="49"/>
				<path class="st8" d="M669,1v48H51V1H669 M670,0H50v50h620V0L670,0z"/>
			</g>
		</g>
		<g transform="translate(20 9)">
			<g class="st4">
				<path class="st9" d="M317,10.3c-0.7,1.8-1.4,3.3-2.2,4.4c0.6-0.1,1.3-0.1,1.9-0.2c0.3-0.5,0.5-1,0.8-1.6l0.9,0.3
					c-1.2,2.4-2.3,4-3.1,5c1-0.2,2-0.5,3-0.8v0.9c-1.5,0.5-2.9,0.8-4.2,1l-0.3-0.9c0.2-0.1,0.3-0.2,0.5-0.3c0.5-0.5,1.1-1.5,1.9-2.8
					c-0.8,0.1-1.6,0.2-2.3,0.3l-0.2-0.9c0.2-0.1,0.3-0.2,0.4-0.4c0.8-1.3,1.4-2.8,2-4.4L317,10.3z M318.6,21c-1.4,0.5-2.9,1-4.7,1.3
					l-0.1-1c1.8-0.3,3.5-0.7,4.8-1.3V21z M325.5,13.4l-3.6,0.5c0,0.7,0.1,1.3,0.1,1.9l3.7-0.6l0.2,1l-3.8,0.6c0,0.3,0.1,0.5,0.1,0.7
					c0.1,0.7,0.3,1.4,0.5,1.9c0.8-0.7,1.4-1.5,2-2.4l0.8,0.5c-0.7,1.1-1.5,2-2.4,2.8c0.1,0.1,0.1,0.2,0.2,0.3c0.5,0.7,0.9,1,1.2,1
					s0.7-0.8,0.9-2.3l0.9,0.6c-0.4,1.9-1,2.8-1.7,2.8c-0.7,0-1.3-0.4-1.9-1.3c-0.1-0.2-0.2-0.3-0.3-0.5c-1,0.8-2.2,1.3-3.3,1.7
					l-0.6-0.8c1.3-0.4,2.5-1,3.5-1.8c-0.3-0.6-0.5-1.3-0.6-2c-0.1-0.4-0.1-0.7-0.2-1.1l-2.5,0.4l-0.1-1l2.5-0.4
					c-0.1-0.6-0.1-1.2-0.1-1.9l-2,0.3l-0.2-0.9l2.1-0.3V10h1v3l3.5-0.5L325.5,13.4z M325.1,11.6l-0.8,0.5c-0.4-0.5-1-1.1-1.7-1.8
					l0.8-0.5C324.2,10.6,324.7,11.2,325.1,11.6z"/>
				<path class="st9" d="M333.9,10v4.3h5.2v1h-5.2v6h6.4v1h-12.5v-1h5V10H333.9z"/>
				<path class="st9" d="M346,19.4c-1,1.1-2.1,2.1-3.5,3l-0.6-0.8c1.4-0.8,2.5-1.8,3.4-2.8L346,19.4z M345.9,22.8l-0.2-1
					c0.5,0,1,0.1,1.4,0.1c0.3,0,0.5-0.2,0.5-0.5v-3.4c-1.3,0.1-2.8,0.2-4.4,0.2l-0.3-0.9c0.3,0,0.6-0.1,0.9-0.2
					c1.1-0.5,2.4-1.3,3.9-2.4c-1.2,0.1-2.5,0.2-3.9,0.3l-0.2-0.9c0.3,0,0.5-0.1,0.7-0.2c0.7-0.4,1.5-1,2.5-2.1
					c-1.2,0.1-2.5,0.1-3.8,0.1l-0.3-0.9c4,0,7.4-0.3,10-0.9l0.5,0.9c-1.5,0.3-3.2,0.6-5.2,0.7c-0.9,1-1.8,1.8-2.6,2.4
					c1.1-0.1,2.3-0.1,3.4-0.2c0.6-0.5,1.3-1.1,1.9-1.7l0.9,0.5c-2.4,2.1-4.4,3.6-6.2,4.5c2.3-0.1,4.2-0.3,5.9-0.5
					c-0.4-0.4-0.7-0.9-1.1-1.4l0.8-0.5c1.1,1.3,2,2.5,2.6,3.5l-0.8,0.6c-0.3-0.5-0.6-1-0.9-1.4c-1,0.1-2,0.2-3.2,0.3v3.8
					c0,0.8-0.4,1.2-1.2,1.2L345.9,22.8L345.9,22.8z M354.1,21.7l-0.7,0.7c-0.9-1-2-2-3.5-3.2l0.7-0.6
					C352,19.7,353.2,20.7,354.1,21.7z"/>
				<path class="st9" d="M359.1,10.3c-0.7,1.8-1.4,3.2-2.1,4.3c0.6-0.1,1.2-0.2,1.8-0.3c0.3-0.5,0.5-1,0.8-1.5l0.9,0.4
					c-1.2,2.3-2.3,4-3.1,5c1-0.3,2-0.6,3-1v0.9c-1.5,0.6-2.9,1-4.2,1.2l-0.3-0.9c0.2-0.1,0.3-0.2,0.5-0.3c0.5-0.6,1.2-1.5,2-2.8
					c-0.8,0.1-1.5,0.3-2.3,0.4l-0.3-0.9c0.2-0.1,0.3-0.2,0.4-0.4c0.8-1.3,1.4-2.7,2-4.4L359.1,10.3z M360.4,20.6
					c-1.3,0.6-2.7,1.2-4.4,1.6l-0.1-1c1.7-0.4,3.2-0.9,4.5-1.5V20.6z M362.9,16.6c-0.1,1.8-0.3,3.1-0.7,3.9c-0.4,0.9-1.1,1.6-2,2.2
					l-0.6-0.8c0.8-0.5,1.4-1.1,1.8-1.9c0.3-0.7,0.5-1.9,0.6-3.5L362.9,16.6L362.9,16.6z M360.6,15.2c0.1,0,0.1-0.1,0.2-0.1
					c0.5-0.4,1.1-1.2,1.8-2.7h-2.4v-1h3.6c-0.2-0.5-0.4-1-0.6-1.4l1-0.2c0.2,0.5,0.4,1,0.6,1.6h3.2v1h-4.3c-0.6,1.2-1.2,2.1-1.6,2.7
					c1.3-0.1,2.6-0.3,3.9-0.5c-0.3-0.4-0.6-0.9-1-1.4l0.8-0.5c1,1.2,1.7,2.3,2.2,3.2l-0.8,0.5c-0.2-0.4-0.4-0.7-0.6-1.1
					c-1.7,0.3-3.6,0.5-5.7,0.6L360.6,15.2z M366,22.5c-0.8,0-1.3-0.4-1.3-1.2v-4.8h1v4.6c0,0.3,0.1,0.4,0.3,0.5h0.9
					c0.3,0,0.5-0.2,0.5-0.5c0.1-0.4,0.1-1,0.1-1.8l0.9,0.3c0,1.3-0.1,2.1-0.3,2.5c-0.2,0.3-0.6,0.4-1.2,0.5L366,22.5L366,22.5z"/>
			</g>
		</g>
	</g>
	<g>
		<g>
			<rect x="747" y="145" class="st6" width="50" height="448"/>
			<g>
				<rect x="745.5" y="143.5" class="st7" width="49" height="447"/>
				<path class="st8" d="M794,144v446h-48V144H794 M795,143h-50v448h50V143L795,143z"/>
			</g>
		</g>
		<g transform="translate(20 9)">
			<g class="st4">
				<path class="st9" d="M745.4,307l-0.9-0.6c0.8-0.9,1.5-1.8,1.8-2.9l1,0.2c-0.1,0.3-0.2,0.6-0.4,0.9h3.8v0.9h-2.4
					c0.3,0.4,0.6,0.8,0.8,1.2l-0.9,0.4c-0.3-0.5-0.6-1.1-0.9-1.6h-0.8C746.2,306,745.8,306.5,745.4,307z M756.7,309.9h-1v-1.7h-9.9
					v1.7h-1v-2.5h5.5c-0.1-0.3-0.3-0.6-0.4-0.9l1-0.2l-0.1-0.1c0.7-0.8,1.1-1.8,1.5-2.8l1,0.2c-0.1,0.3-0.2,0.6-0.3,0.9h4v0.9h-2.5
					c0.3,0.4,0.5,0.8,0.7,1.1l-0.9,0.3c-0.3-0.5-0.5-1-0.9-1.4h-0.9c-0.3,0.5-0.5,0.9-0.9,1.3l-0.8-0.5c0.2,0.3,0.3,0.7,0.4,1.1h5.3
					L756.7,309.9L756.7,309.9z M754.8,311.8h-7v1h7.6v3.6h-1v-0.6h-6.6v0.6h-1v-7.3h8L754.8,311.8L754.8,311.8z M753.8,311v-1.1h-6
					v1.1H753.8z M754.4,314.9v-1.3h-6.6v1.3H754.4z"/>
				<path class="st9" d="M746.2,330.8v-3.3h-1.7v-1h4.5v1h-1.7v3.3h1.5v1h-1.5v3.2c0.5-0.2,1-0.4,1.5-0.6v1c-1.3,0.5-2.7,1-4.2,1.3
					l-0.3-1c0.6-0.1,1.2-0.3,1.8-0.4v-3.5h-1.5v-1L746.2,330.8L746.2,330.8z M756.4,326.1v6.5h-2.9v1.7h3.2v1h-3.2v1.8h3.7v1h-8.4
					v-1h3.8v-1.8h-3.2v-1h3.2v-1.7h-2.9v-6.5H756.4z M752.5,328.9V327h-2v1.9H752.5z M752.5,329.8h-2v1.9h2V329.8z M753.5,328.9h1.9
					V327h-1.9V328.9z M755.5,329.8h-1.9v1.9h1.9V329.8z"/>
				<path class="st9" d="M747.9,348.9v-1.4h1v1.4h3.7v-1.4h1v1.4h3.2v1h-3.2v1.3h-1v-1.3h-3.7v1.3h-1v-1.3h-3.2v-1H747.9z
					 M745.3,352.9v-1h10.4c-0.1,2.3-0.1,3.7-0.2,4.2c-0.1,0.8-0.2,1.3-0.4,1.5c-0.3,0.3-0.7,0.4-1.3,0.4c-0.4,0-0.9,0-1.5,0l-0.3-1
					c0.5,0,1,0,1.5,0c0.4,0,0.6-0.1,0.8-0.3c0.2-0.2,0.3-0.7,0.3-1.4c0-0.4,0-1.2,0.1-2.5h-4.4v7.4h-1v-7.4L745.3,352.9L745.3,352.9
					z"/>
				<path class="st9" d="M747.1,379.2c-0.5,1.2-1.1,2.3-1.8,3.2l-0.8-0.6c0.7-0.8,1.3-1.8,1.8-3L747.1,379.2z M751,369.6v1.4h5.4v1
					H751v1.8h4.5v4.5h-9.3v-4.5h3.8v-4.1L751,369.6L751,369.6z M754.5,374.6h-7.3v2.6h7.3V374.6z M750,382.2l-1,0.2
					c-0.2-1.1-0.4-2.2-0.7-3l0.9-0.2C749.5,380.1,749.8,381.1,750,382.2z M753.3,382.2l-1,0.2c-0.3-1.2-0.6-2.2-1.1-3.2l1-0.2
					C752.6,380,753,381.1,753.3,382.2z M757.1,381.8l-0.8,0.6c-0.5-1-1.2-2-2-3.1l0.8-0.5C755.9,380,756.6,381,757.1,381.8z"/>
			</g>
		</g>
	</g>
	<g id="GrayRectGroup6_9_" transform="translate(669.5,130)">
		<rect x="-285.5" y="13" class="st1" width="288" height="112"/>
	</g>
	<g transform="translate(20 9)">
		<g class="st4">
			<path class="st5" d="M387.2,152.5c0.7,0.5,1.1,1.3,1.2,2.4h-1.5c-0.1-0.6-0.4-1.1-0.8-1.4c-0.4-0.3-1-0.4-1.7-0.4
				c-0.7,0-1.2,0.1-1.5,0.3c-0.4,0.2-0.6,0.6-0.6,1.1c0,0.4,0.2,0.8,0.7,1.1c0.2,0.1,0.8,0.3,1.7,0.6c1.3,0.4,2.2,0.7,2.6,1
				c0.9,0.5,1.3,1.2,1.3,2.2c0,0.9-0.4,1.6-1.1,2.1c-0.7,0.5-1.7,0.8-2.9,0.8c-1.2,0-2.2-0.3-2.9-0.7c-0.8-0.6-1.3-1.5-1.4-2.8h1.5
				c0.1,0.8,0.4,1.4,0.8,1.7c0.4,0.3,1,0.5,1.9,0.5c0.8,0,1.4-0.1,1.8-0.4s0.7-0.6,0.7-1.1c0-0.6-0.3-1-1-1.3
				c-0.2-0.1-0.9-0.3-2-0.7c-1.2-0.4-2-0.7-2.3-0.8c-0.8-0.5-1.1-1.1-1.1-2c0-0.9,0.4-1.6,1.1-2.1c0.7-0.5,1.6-0.7,2.6-0.7
				C385.6,151.8,386.6,152,387.2,152.5z"/>
			<path class="st5" d="M392.1,154.8h1.7v1.2h-1.7v4.2c0,0.2,0,0.3,0.1,0.4c0.1,0.1,0.2,0.1,0.4,0.1h1v1.2h-1.2
				c-0.6,0-1.1-0.2-1.4-0.5c-0.3-0.3-0.4-0.7-0.4-1.3V156h-1.3v-1.2h1.3V153l1.5-0.6L392.1,154.8L392.1,154.8z"/>
			<path class="st5" d="M400.9,155.7c0.6,0.7,1,1.6,1,2.7c0,1.1-0.3,2-1,2.7c-0.7,0.7-1.6,1.1-2.6,1.1c-1.1,0-2-0.4-2.6-1.1
				c-0.6-0.7-1-1.6-1-2.7c0-1.1,0.3-2,1-2.7c0.7-0.7,1.5-1.1,2.6-1.1C399.4,154.6,400.2,154.9,400.9,155.7z M396.7,156.6
				c-0.3,0.5-0.5,1.1-0.5,1.8s0.2,1.3,0.5,1.8c0.4,0.5,0.9,0.8,1.6,0.8s1.2-0.3,1.6-0.8c0.3-0.5,0.5-1.1,0.5-1.8
				c0-0.7-0.2-1.3-0.5-1.8c-0.4-0.5-0.9-0.8-1.6-0.8S397.1,156,396.7,156.6z"/>
			<path class="st5" d="M407.6,154.7v1.5c-0.4-0.1-0.7-0.2-1-0.2c-0.4,0-0.9,0.2-1.2,0.5c-0.4,0.4-0.6,0.9-0.6,1.5v3.8h-1.5v-7.2
				h1.5v1.1c0.2-0.4,0.4-0.7,0.7-0.9c0.3-0.3,0.7-0.4,1.2-0.4C407,154.6,407.3,154.6,407.6,154.7z"/>
			<path class="st5" d="M414.3,155.8c0.3-0.4,0.7-0.8,1-1c0.3-0.2,0.7-0.3,1.2-0.3c0.7,0,1.4,0.2,1.8,0.7c0.5,0.5,0.7,1.1,0.7,1.9
				v4.8h-1.5v-4.5c0-0.6-0.1-1-0.4-1.3c-0.3-0.3-0.7-0.4-1.2-0.4c-0.4,0-0.8,0.2-1,0.5c-0.3,0.3-0.4,0.7-0.4,1.3v4.5h-1.5v-4.5
				c0-1.1-0.5-1.7-1.5-1.7c-0.5,0-0.9,0.2-1.1,0.5c-0.3,0.4-0.4,0.8-0.4,1.3v4.4h-1.5v-7.2h1.5v0.8c0.6-0.7,1.3-1,2-1
				C413,154.6,413.8,155,414.3,155.8z"/>
			<path class="st5" d="M423.8,156l-1,1c-0.5-0.6-1.2-1.3-2.2-2.1l1-0.9C422.4,154.7,423.2,155.3,423.8,156z M423.9,158.2
				c-0.5,1.8-1.1,3.5-1.8,5l-1.2-0.5c0.7-1.6,1.3-3.3,1.8-4.9L423.9,158.2z M424.1,152.4l-1,1c-0.5-0.6-1.2-1.2-2.2-1.8l1-0.9
				C422.7,151.2,423.5,151.8,424.1,152.4z M426.5,157c-0.1,1.8-0.2,3.2-0.5,4.1c-0.3,0.9-0.9,1.7-1.7,2.3l-0.9-1.1
				c0.6-0.5,1.1-1.2,1.4-1.9c0.3-0.7,0.4-1.8,0.4-3.5L426.5,157L426.5,157z M424.4,155.4c0.1,0,0.2-0.1,0.3-0.1
				c0.5-0.3,1.1-1.1,1.9-2.3h-2.2v-1.2h3.7c-0.2-0.4-0.4-0.9-0.5-1.3l1.4-0.2c0.2,0.4,0.4,0.9,0.5,1.5h3.6v1.2h-5.1
				c-0.6,1-1,1.7-1.5,2.3c1.4-0.1,2.8-0.2,4.2-0.4c-0.3-0.4-0.5-0.7-0.8-1.1l1.1-0.7c1,1.1,1.7,2.2,2.2,3L432,157
				c-0.2-0.3-0.4-0.7-0.6-1c-2,0.2-4.3,0.4-6.7,0.6L424.4,155.4z M428.8,157v6.1h-1.3V157H428.8z M431.4,163.3c-1,0-1.4-0.4-1.4-1.2
				v-5h1.3v4.8c0,0.2,0.1,0.3,0.2,0.3h0.5c0.2,0,0.3-0.2,0.3-0.6c0-0.4,0.1-0.9,0.1-1.6l1.2,0.4c0,1.3-0.1,2.1-0.3,2.4
				c-0.2,0.3-0.6,0.4-1.2,0.5L431.4,163.3L431.4,163.3z"/>
			<path class="st5" d="M438.5,150.7c-0.1,0.6-0.2,1.2-0.4,1.8h3.1v1.2c-0.3,2.4-1,4.4-2.1,6c0.3,0.4,0.6,0.7,0.9,1
				c1,0.7,2.7,1.1,5,1.2c0.8,0,1.6,0,2.5-0.1l-0.3,1.4h-1.6c-2.9,0-5.1-0.5-6.3-1.5c-0.3-0.3-0.6-0.5-0.9-0.9c-0.8,1-1.8,1.9-3,2.5
				l-0.7-1.3c1.2-0.6,2.1-1.5,2.9-2.5c-0.4-0.8-0.8-1.7-1.1-2.8c-0.3,0.6-0.7,1.1-1.1,1.5l-0.9-1.1c1.3-1.6,2.2-3.8,2.7-6.6
				L438.5,150.7z M438.3,158.4c0.7-1.3,1.2-2.8,1.5-4.5h-2.1c-0.2,0.5-0.3,0.9-0.5,1.3C437.6,156.4,437.9,157.5,438.3,158.4z
				 M444.1,150.6v3.5c1.1,0.8,2.3,1.7,3.4,2.7l-0.8,1.2c-1-1.1-1.9-1.9-2.6-2.5v5.4h-1.3v-10.4H444.1z"/>
			<path class="st5" d="M450.2,155.6v-3h-1.6v-1.3h4.5v1.3h-1.6v3h1.4v1.3h-1.4v2.8c0.5-0.2,0.9-0.3,1.4-0.5v1.3
				c-1.3,0.5-2.7,0.9-4.1,1.3l-0.3-1.3c0.6-0.1,1.2-0.2,1.7-0.4v-3.2h-1.4v-1.3L450.2,155.6L450.2,155.6z M460.7,151v6.7h-2.9v1.4
				h3.1v1.2h-3.1v1.5h3.5v1.3h-8.5v-1.3h3.6v-1.5h-3.1v-1.2h3.1v-1.4h-2.9V151H460.7z M456.5,153.8v-1.6h-1.6v1.6H456.5z
				 M456.5,154.9h-1.6v1.6h1.6V154.9z M457.9,153.8h1.6v-1.6h-1.6V153.8z M459.5,154.9h-1.6v1.6h1.6V154.9z"/>
			<path class="st5" d="M463.2,155.3l-0.8-1c1.2-1.1,2.1-2.3,2.6-3.8l1.2,0.3c-0.1,0.3-0.3,0.7-0.4,1h2.7c-0.2-0.4-0.4-0.8-0.6-1.1
				l1.4-0.2c0.2,0.4,0.4,0.8,0.5,1.3h4.4v1.1H470v0.7h3.8v1H470v0.7h3.8v1H470v0.7h4.6v1.1h-10.5v-3.7
				C463.9,154.6,463.6,155,463.2,155.3z M462.9,160.2v-1.2h5.5v-0.6h1.3v0.6h5.4v1.2h-3.8c0.9,0.7,2.3,1.3,4,1.8l-0.6,1.2
				c-2.2-0.8-3.8-1.7-4.8-2.9h-0.2v3.3h-1.3v-3.3h-0.2c-0.9,1.1-2.5,2.2-4.7,3l-0.7-1.1c1.9-0.6,3.3-1.2,4.1-1.9L462.9,160.2
				L462.9,160.2z M468.7,152.8h-3.3v0.7h3.3V152.8z M468.7,154.5h-3.3v0.7h3.3V154.5z M468.7,156.2h-3.3v0.7h3.3V156.2z"/>
			<path class="st5" d="M479.2,157.1c-0.1,0.4-0.2,0.7-0.3,1.1h3.6v5.2h-1.2v-0.8h-1.9v0.8h-1.2v-3.7c-0.3,0.6-0.7,1.2-1.2,1.7
				l-0.7-1.1c0.7-0.8,1.3-1.8,1.6-3.1h-1V156h1.2c0.1-0.4,0.1-0.9,0.2-1.3h-1.8v-1.2h1.9c0-0.4,0-0.9,0.1-1.3h-1.5V151h5v2.5h0.7
				v1.2h-0.7v2.5L479.2,157.1L479.2,157.1z M481.3,161.4v-2h-1.9v2H481.3z M479.5,156h1.4v-1.3h-1.2
				C479.6,155.1,479.6,155.5,479.5,156z M479.8,153.5h1.1v-1.3h-1.1C479.8,152.6,479.8,153,479.8,153.5z M483.1,154.4v-1.3h1.4
				c-0.3-0.7-0.7-1.4-1-2l1.1-0.5c0.4,0.6,0.8,1.4,1.1,2.2l-0.8,0.4h1.3c0.4-0.8,0.7-1.7,1-2.7l1.2,0.4c-0.3,0.8-0.6,1.6-0.9,2.2
				h1.3v1.3h-2.2v1.7h1.9v1.2h-1.9v1.7h2.5v1.3h-2.5v3.1h-1.3v-3.1H483V159h2.5v-1.7h-2.1v-1.2h2.1v-1.7L483.1,154.4L483.1,154.4z"
				/>
		</g>
	</g>
	<g>
		<g>
			<rect x="402" y="189" class="st6" width="118" height="50"/>
			<g>
				<rect x="400.5" y="187.5" class="st7" width="117" height="49"/>
				<path class="st8" d="M517,188v48H401v-48H517 M518,187H400v50h118V187L518,187z"/>
			</g>
		</g>
		<g transform="translate(20 9)">
			<g>
				<g>
					<path id="XMLID_64_" class="st5" d="M416,216c-7.2,0-13-5.8-13-13s5.8-13,13-13c6.5,0,11.9,4.8,12.8,11h2
						c-0.9-7.3-7.2-13-14.8-13c-8.3,0-15,6.7-15,15s6.7,15,15,15c7.6,0,13.9-5.7,14.9-13h-2C427.9,211.2,422.5,216,416,216z"/>
					<polygon id="XMLID_63_" class="st5" points="423,199 416,195 409,199 409,207 416,211 423,207 423,204.7 421,205.8 421,205.8 
						416,208.7 411,205.8 411,200.2 416,197.3 420.7,200 417,202.1 417,204.4 421,202.1 421,202.1 423,201 					"/>
					<polygon id="XMLID_62_" class="st5" points="419,206.3 423,204 423,201.7 419,204 					"/>
				</g>
			</g>
			<g class="st4">
				<path class="st9" d="M450.1,198.7c0.8,0.6,1.2,1.4,1.3,2.4h-1.1c-0.1-0.7-0.5-1.3-1.1-1.7c-0.5-0.4-1.2-0.6-2-0.6
					c-1.2,0-2.1,0.4-2.7,1.2c-0.6,0.8-0.9,1.8-0.9,3c0,1.2,0.3,2.2,0.9,3c0.6,0.8,1.5,1.2,2.7,1.2c0.8,0,1.5-0.2,2-0.6
					c0.6-0.4,1-1.1,1.2-2h1.1c-0.2,1.2-0.7,2.1-1.6,2.7c-0.8,0.6-1.7,0.9-2.8,0.9c-1.6,0-2.7-0.5-3.6-1.5c-0.8-0.9-1.1-2.1-1.1-3.6
					c0-1.5,0.4-2.7,1.1-3.7c0.8-1.1,2-1.6,3.6-1.6C448.4,197.8,449.4,198.1,450.1,198.7z"/>
				<path class="st9" d="M457.3,198c2.3,0,3.4,1,3.4,2.9c0,2-1.2,3-3.5,3h-2.9v4.1h-1.1v-10H457.3z M454.3,202.9h2.9
					c0.8,0,1.4-0.2,1.8-0.5c0.4-0.3,0.6-0.8,0.6-1.5c0-0.7-0.2-1.2-0.6-1.5c-0.4-0.3-1-0.5-1.8-0.5h-2.9V202.9z"/>
				<path class="st9" d="M463.6,198l3.7,8.5h0l3.7-8.5h1.4v10h-1.1v-8h0l-3.5,8h-1l-3.5-8h0v8h-1.1v-10H463.6z"/>
			</g>
		</g>
	</g>
	<g>
		<g>
			<rect x="538" y="189" class="st6" width="118" height="50"/>
			<g>
				<rect x="536.5" y="187.5" class="st7" width="117" height="49"/>
				<path class="st8" d="M653,188v48H537v-48H653 M654,187H536v50h118V187L654,187z"/>
			</g>
		</g>
		<g transform="translate(20 9)">
			<g>
				<g>
					<path id="XMLID_61_" class="st5" d="M552,216c-7.2,0-13-5.8-13-13s5.8-13,13-13c6.5,0,11.9,4.8,12.8,11h2
						c-0.9-7.3-7.2-13-14.8-13c-8.3,0-15,6.7-15,15s6.7,15,15,15c7.6,0,13.9-5.7,14.9-13h-2C563.9,211.2,558.5,216,552,216z"/>
					<polygon id="XMLID_60_" class="st5" points="559,199 552,195 545,199 545,207 552,211 559,207 559,204.7 557,205.8 557,205.8 
						552,208.7 547,205.8 547,200.2 552,197.3 556.7,200 553,202.1 553,204.4 557,202.1 557,202.1 559,201 					"/>
					<polygon id="XMLID_59_" class="st5" points="555,206.3 559,204 559,201.7 555,204 					"/>
				</g>
			</g>
			<g class="st4">
				<path class="st9" d="M586.1,198.7c0.8,0.6,1.2,1.4,1.3,2.4h-1.1c-0.1-0.7-0.5-1.3-1.1-1.7c-0.5-0.4-1.2-0.6-2-0.6
					c-1.2,0-2.1,0.4-2.7,1.2c-0.6,0.8-0.9,1.8-0.9,3c0,1.2,0.3,2.2,0.9,3c0.6,0.8,1.5,1.2,2.7,1.2c0.8,0,1.5-0.2,2-0.6
					c0.6-0.4,1-1.1,1.2-2h1.1c-0.2,1.2-0.7,2.1-1.6,2.7c-0.8,0.6-1.7,0.9-2.8,0.9c-1.6,0-2.7-0.5-3.6-1.5c-0.8-0.9-1.1-2.1-1.1-3.6
					c0-1.5,0.4-2.7,1.1-3.7c0.8-1.1,2-1.6,3.6-1.6C584.4,197.8,585.4,198.1,586.1,198.7z"/>
				<path class="st9" d="M593.3,198c2.3,0,3.4,1,3.4,2.9c0,2-1.2,3-3.5,3h-2.9v4.1h-1.2v-10H593.3z M590.3,202.9h2.9
					c0.8,0,1.4-0.2,1.8-0.5c0.4-0.3,0.6-0.8,0.6-1.5c0-0.7-0.2-1.2-0.6-1.5c-0.4-0.3-1-0.5-1.8-0.5h-2.9V202.9z"/>
				<path class="st9" d="M599.6,198l3.7,8.5h0l3.7-8.5h1.4v10h-1.1v-8h0l-3.5,8h-1l-3.5-8h0v8h-1.1v-10H599.6z"/>
			</g>
		</g>
	</g>
	<g id="GrayRectGroup6_8_" transform="translate(669.5,130)">
		<rect x="-619.5" y="183" class="st1" width="622" height="112"/>
	</g>
	<g transform="translate(20 9)">
		<g class="st4">
			<path class="st5" d="M53.2,322.5c0.7,0.5,1.1,1.3,1.2,2.4h-1.5c-0.1-0.6-0.4-1.1-0.8-1.4c-0.4-0.3-1-0.4-1.7-0.4
				c-0.7,0-1.2,0.1-1.5,0.3c-0.4,0.2-0.6,0.6-0.6,1.1c0,0.4,0.2,0.8,0.7,1.1c0.2,0.1,0.8,0.3,1.7,0.6c1.3,0.4,2.2,0.7,2.6,1
				c0.9,0.5,1.3,1.2,1.3,2.2c0,0.9-0.4,1.6-1.1,2.1c-0.7,0.5-1.7,0.8-2.9,0.8c-1.2,0-2.2-0.3-2.9-0.7c-0.8-0.6-1.3-1.5-1.4-2.8h1.5
				c0.1,0.8,0.4,1.4,0.8,1.7c0.4,0.3,1,0.5,1.9,0.5c0.8,0,1.4-0.1,1.8-0.4s0.7-0.6,0.7-1.1c0-0.6-0.3-1-1-1.3
				c-0.2-0.1-0.9-0.3-2-0.7c-1.2-0.4-2-0.7-2.3-0.8c-0.8-0.5-1.1-1.1-1.1-2c0-0.9,0.4-1.6,1.1-2.1c0.7-0.5,1.6-0.7,2.6-0.7
				C51.6,321.8,52.6,322,53.2,322.5z"/>
			<path class="st5" d="M60.2,322c2.4,0,3.6,1,3.6,3c0,2-1.2,3.1-3.6,3.1h-2.6v3.9H56v-10H60.2z M57.6,326.8h2.5
				c0.8,0,1.3-0.1,1.7-0.4c0.3-0.3,0.5-0.7,0.5-1.3s-0.2-1.1-0.5-1.3c-0.3-0.3-0.9-0.4-1.6-0.4h-2.5V326.8z"/>
			<path class="st5" d="M69.8,322l3.9,10H72l-0.9-2.6h-4.3l-0.9,2.6h-1.6l3.9-10H69.8z M70.6,328.2l-1.7-4.5h-0.1l-1.7,4.5H70.6z"/>
			<path class="st5" d="M79,322c1,0,1.8,0.2,2.4,0.7c0.6,0.5,0.9,1.2,0.9,2.2c0,0.5-0.1,1-0.4,1.4c-0.3,0.4-0.8,0.7-1.3,0.9v0
				c0.9,0.2,1.4,0.8,1.5,1.8l0.2,1.6c0.1,0.6,0.3,1.1,0.6,1.5h-1.7c-0.2-0.3-0.4-0.8-0.4-1.3l-0.1-1.2c-0.1-0.6-0.2-1-0.5-1.2
				c-0.3-0.3-0.7-0.4-1.3-0.4h-2.7v4.1h-1.5v-10H79z M76.1,326.6h2.7c0.7,0,1.2-0.2,1.5-0.4c0.3-0.3,0.5-0.7,0.5-1.2
				c0-0.6-0.2-1-0.5-1.2c-0.3-0.3-0.8-0.4-1.5-0.4h-2.7L76.1,326.6L76.1,326.6z"/>
			<path class="st5" d="M92.6,322l-4.4,4.3l5.1,5.7h-2l-4.1-4.7l-1.3,1.2v3.5h-1.5v-10h1.5v4.8l4.8-4.8H92.6z"/>
			<path class="st5" d="M97,324.7v6c0.4-0.4,0.9-0.8,1.4-1.2l0.3,1.4c-0.9,0.8-1.9,1.6-2.9,2.3l-0.5-1.2c0.2-0.2,0.4-0.4,0.4-0.7
				V326h-2v-1.3L97,324.7L97,324.7z M98,322.7l-0.9,0.9c-0.6-0.7-1.3-1.4-2.3-2.1l0.9-0.9C96.6,321.3,97.3,322,98,322.7z
				 M101.9,324.6v-4.1h1.4v4.1h3.5v1.3h-3.5v7.5h-1.4v-7.5h-3.7v-1.3H101.9z"/>
			<path class="st5" d="M115,323.7l-1-0.7c0.7-0.8,1.2-1.7,1.5-2.6l1.3,0.3c-0.1,0.2-0.2,0.4-0.2,0.6h3.8v1.1h-2.1
				c0.2,0.3,0.3,0.5,0.5,0.7l-1.1,0.4c-0.2-0.4-0.4-0.8-0.7-1.1H116C115.7,322.9,115.4,323.3,115,323.7l4,0v5.7h-1.6v0.7h3.1v1.2
				h-3.1v2.2h-1.3v-2.2h-3.7c-0.1,0.4-0.3,0.7-0.5,0.9c-0.5,0.6-1.3,1-2.4,1.3l-0.7-1.1c1-0.3,1.6-0.6,2-1c0.1-0.1,0.1-0.1,0.1-0.2
				H108v-1.2h3.3l0-0.3v-0.4h-1.8v-5.7L115,323.7L115,323.7z M109.1,324l-1.1-0.7c0.8-0.9,1.4-1.8,1.8-2.9l1.3,0.3
				c-0.1,0.3-0.2,0.5-0.3,0.7h3.2v1.1h-1.6c0.2,0.2,0.3,0.4,0.4,0.7l-1.1,0.4c-0.2-0.4-0.4-0.7-0.7-1.1h-1
				C109.9,323,109.5,323.5,109.1,324z M117.7,325.3v-0.6h-6.9v0.6H117.7z M117.7,326.8v-0.6h-6.9v0.6H117.7z M117.7,327.7h-6.9v0.6
				h6.9V327.7z M112.6,329.8c0,0.1,0,0.2,0,0.3h3.5v-0.7h-3.5V329.8z"/>
			<path class="st5" d="M122.5,325.3l-0.8-1c1.2-1.1,2.1-2.3,2.6-3.8l1.2,0.3c-0.1,0.3-0.3,0.7-0.4,1h2.7c-0.2-0.4-0.4-0.8-0.6-1.1
				l1.4-0.2c0.2,0.4,0.4,0.8,0.5,1.3h4.4v1.1h-4.3v0.7h3.8v1h-3.8v0.7h3.8v1h-3.8v0.7h4.6v1.1h-10.5v-3.7
				C123.1,324.6,122.8,325,122.5,325.3z M122.1,330.2v-1.2h5.5v-0.6h1.3v0.6h5.4v1.2h-3.8c0.9,0.7,2.3,1.3,4,1.8l-0.6,1.2
				c-2.2-0.8-3.8-1.7-4.8-2.9h-0.2v3.3h-1.3v-3.3h-0.2c-0.9,1.1-2.5,2.2-4.7,3L122,332c1.9-0.6,3.3-1.2,4.1-1.9L122.1,330.2
				L122.1,330.2z M128,322.8h-3.3v0.7h3.3V322.8z M128,324.5h-3.3v0.7h3.3V324.5z M128,326.2h-3.3v0.7h3.3V326.2z"/>
			<path class="st5" d="M138.5,327.1c-0.1,0.4-0.2,0.7-0.3,1.1h3.6v5.2h-1.2v-0.8h-1.9v0.8h-1.2v-3.7c-0.3,0.6-0.7,1.2-1.2,1.7
				l-0.7-1.1c0.7-0.8,1.3-1.8,1.6-3.1h-1V326h1.2c0.1-0.4,0.1-0.9,0.2-1.3H136v-1.2h1.9c0-0.4,0-0.9,0.1-1.3h-1.5V321h5v2.5h0.7v1.2
				h-0.7v2.5L138.5,327.1L138.5,327.1z M140.6,331.4v-2h-1.9v2H140.6z M138.8,326h1.4v-1.3H139C138.9,325.1,138.8,325.5,138.8,326z
				 M139.1,323.5h1.1v-1.3h-1.1C139.1,322.6,139.1,323,139.1,323.5z M142.4,324.4v-1.3h1.4c-0.3-0.7-0.7-1.4-1-2l1.1-0.5
				c0.4,0.6,0.8,1.4,1.1,2.2l-0.8,0.4h1.3c0.4-0.8,0.7-1.7,1-2.7l1.2,0.4c-0.3,0.8-0.6,1.6-0.9,2.2h1.3v1.3h-2.2v1.7h1.9v1.2h-1.9
				v1.7h2.5v1.3h-2.5v3.1h-1.3v-3.1h-2.5V329h2.5v-1.7h-2.1v-1.2h2.1v-1.7L142.4,324.4L142.4,324.4z"/>
		</g>
	</g>
	<g>
		<g>
			<rect x="68" y="359" class="st6" width="130" height="50"/>
			<g>
				<rect x="66.5" y="357.5" class="st7" width="129" height="49"/>
				<path class="st8" d="M195,358v48H67v-48H195 M196,357H66v50h130V357L196,357z"/>
			</g>
		</g>
		<g transform="translate(20 9)">
			<g>
				<g>
					<path id="XMLID_58_" class="st5" d="M88,386c-7.2,0-13-5.8-13-13s5.8-13,13-13c6.5,0,11.9,4.8,12.8,11h2
						c-0.9-7.3-7.2-13-14.8-13c-8.3,0-15,6.7-15,15s6.7,15,15,15c7.6,0,13.9-5.7,14.9-13h-2C99.9,381.2,94.5,386,88,386z"/>
					<polygon id="XMLID_57_" class="st5" points="95,369 88,365 81,369 81,377 88,381 95,377 95,374.7 93,375.8 93,375.8 88,378.7 
						83,375.8 83,370.2 88,367.3 92.7,370 89,372.1 89,374.4 93,372.1 93,372.1 95,371 					"/>
					<polygon id="XMLID_56_" class="st5" points="91,376.3 95,374 95,371.7 91,374 					"/>
				</g>
			</g>
			<g class="st4">
				<path class="st9" d="M122.1,368.7c0.8,0.6,1.2,1.4,1.3,2.4h-1.1c-0.1-0.7-0.5-1.3-1.1-1.7c-0.5-0.4-1.2-0.6-2-0.6
					c-1.2,0-2.1,0.4-2.7,1.2c-0.6,0.8-0.9,1.8-0.9,3c0,1.2,0.3,2.2,0.9,3c0.6,0.8,1.5,1.2,2.7,1.2c0.8,0,1.5-0.2,2-0.6
					c0.6-0.4,1-1.1,1.2-2h1.1c-0.2,1.2-0.7,2.1-1.6,2.7c-0.8,0.6-1.7,0.9-2.8,0.9c-1.6,0-2.7-0.5-3.6-1.5c-0.8-0.9-1.1-2.1-1.1-3.6
					c0-1.5,0.4-2.7,1.1-3.7c0.8-1.1,2-1.6,3.6-1.6C120.4,367.8,121.4,368.1,122.1,368.7z"/>
				<path class="st9" d="M129.3,368c2.3,0,3.4,1,3.4,2.9c0,2-1.2,3-3.5,3h-2.9v4.1h-1.2v-10H129.3z M126.3,372.9h2.9
					c0.8,0,1.4-0.2,1.8-0.5c0.4-0.3,0.6-0.8,0.6-1.5c0-0.7-0.2-1.2-0.6-1.5c-0.4-0.3-1-0.5-1.8-0.5h-2.9
					C126.3,369,126.3,372.9,126.3,372.9z"/>
				<path class="st9" d="M135.6,368l3.7,8.5h0l3.7-8.5h1.4v10h-1.1v-8h0l-3.5,8h-1l-3.5-8h0v8h-1.1v-10H135.6z"/>
			</g>
		</g>
	</g>
	<g>
		<g>
			<rect x="221.3" y="359" class="st6" width="130" height="50"/>
			<g>
				<rect x="219.8" y="357.5" class="st7" width="129" height="49"/>
				<path class="st8" d="M348.3,358v48h-128v-48H348.3 M349.3,357h-130v50h130V357L349.3,357z"/>
			</g>
		</g>
		<g transform="translate(20 9)">
			<g>
				<g>
					<path id="XMLID_55_" class="st5" d="M241.3,386c-7.2,0-13-5.8-13-13s5.8-13,13-13c6.5,0,11.9,4.8,12.8,11h2
						c-0.9-7.3-7.2-13-14.8-13c-8.3,0-15,6.7-15,15s6.7,15,15,15c7.6,0,13.9-5.7,14.9-13h-2C253.2,381.2,247.8,386,241.3,386z"/>
					<polygon id="XMLID_54_" class="st5" points="248.3,369 241.3,365 234.3,369 234.3,377 241.3,381 248.3,377 248.3,374.7 
						246.3,375.8 246.3,375.8 241.3,378.7 236.3,375.8 236.3,370.2 241.3,367.3 246,370 242.3,372.1 242.3,374.4 246.3,372.1 
						246.3,372.1 248.3,371 					"/>
					<polygon id="XMLID_53_" class="st5" points="244.3,376.3 248.3,374 248.3,371.7 244.3,374 					"/>
				</g>
			</g>
			<g class="st4">
				<path class="st9" d="M275.5,368.7c0.8,0.6,1.2,1.4,1.3,2.4h-1.1c-0.1-0.7-0.5-1.3-1.1-1.7c-0.5-0.4-1.2-0.6-2-0.6
					c-1.2,0-2.1,0.4-2.7,1.2c-0.6,0.8-0.9,1.8-0.9,3c0,1.2,0.3,2.2,0.9,3c0.6,0.8,1.5,1.2,2.7,1.2c0.8,0,1.5-0.2,2-0.6
					c0.6-0.4,1-1.1,1.2-2h1.1c-0.2,1.2-0.7,2.1-1.6,2.7c-0.8,0.6-1.7,0.9-2.8,0.9c-1.6,0-2.7-0.5-3.6-1.5c-0.8-0.9-1.1-2.1-1.1-3.6
					c0-1.5,0.4-2.7,1.1-3.7c0.8-1.1,2-1.6,3.6-1.6C273.8,367.8,274.7,368.1,275.5,368.7z"/>
				<path class="st9" d="M282.6,368c2.3,0,3.4,1,3.4,2.9c0,2-1.2,3-3.5,3h-2.9v4.1h-1.1v-10H282.6z M279.7,372.9h2.9
					c0.8,0,1.4-0.2,1.8-0.5c0.4-0.3,0.6-0.8,0.6-1.5c0-0.7-0.2-1.2-0.6-1.5c-0.4-0.3-1-0.5-1.8-0.5h-2.9V372.9z"/>
				<path class="st9" d="M289,368l3.7,8.5h0l3.7-8.5h1.4v10h-1.1v-8h0l-3.5,8h-1l-3.5-8h0v8h-1.1v-10H289z"/>
			</g>
		</g>
	</g>
	<g>
		<g>
			<rect x="374.7" y="359" class="st6" width="130" height="50"/>
			<g>
				<rect x="373.2" y="357.5" class="st7" width="129" height="49"/>
				<path class="st8" d="M501.7,358v48h-128v-48H501.7 M502.7,357h-130v50h130V357L502.7,357z"/>
			</g>
		</g>
		<g transform="translate(20 9)">
			<g>
				<g>
					<path id="XMLID_52_" class="st5" d="M394.7,386c-7.2,0-13-5.8-13-13s5.8-13,13-13c6.5,0,11.9,4.8,12.8,11h2
						c-0.9-7.3-7.2-13-14.8-13c-8.3,0-15,6.7-15,15s6.7,15,15,15c7.6,0,13.9-5.7,14.9-13h-2C406.6,381.2,401.2,386,394.7,386z"/>
					<polygon id="XMLID_51_" class="st5" points="401.7,369 394.7,365 387.7,369 387.7,377 394.7,381 401.7,377 401.7,374.7 
						399.7,375.8 399.7,375.8 394.7,378.7 389.7,375.8 389.7,370.2 394.7,367.3 399.4,370 395.7,372.1 395.7,374.4 399.7,372.1 
						399.7,372.1 401.7,371 					"/>
					<polygon id="XMLID_50_" class="st5" points="397.7,376.3 401.7,374 401.7,371.7 397.7,374 					"/>
				</g>
			</g>
			<g class="st4">
				<path class="st9" d="M428.8,368.7c0.8,0.6,1.2,1.4,1.3,2.4H429c-0.1-0.7-0.5-1.3-1.1-1.7c-0.5-0.4-1.2-0.6-2-0.6
					c-1.2,0-2.1,0.4-2.7,1.2c-0.6,0.8-0.9,1.8-0.9,3c0,1.2,0.3,2.2,0.9,3c0.6,0.8,1.5,1.2,2.7,1.2c0.8,0,1.5-0.2,2-0.6
					c0.6-0.4,1-1.1,1.2-2h1.1c-0.2,1.2-0.7,2.1-1.6,2.7c-0.8,0.6-1.7,0.9-2.8,0.9c-1.6,0-2.7-0.5-3.6-1.5c-0.8-0.9-1.1-2.1-1.1-3.6
					c0-1.5,0.4-2.7,1.1-3.7c0.8-1.1,2-1.6,3.6-1.6C427.1,367.8,428,368.1,428.8,368.7z"/>
				<path class="st9" d="M436,368c2.3,0,3.4,1,3.4,2.9c0,2-1.2,3-3.5,3H433v4.1h-1.1v-10H436z M433,372.9h2.9c0.8,0,1.4-0.2,1.8-0.5
					c0.4-0.3,0.6-0.8,0.6-1.5c0-0.7-0.2-1.2-0.6-1.5c-0.4-0.3-1-0.5-1.8-0.5H433V372.9z"/>
				<path class="st9" d="M442.3,368l3.7,8.5h0l3.7-8.5h1.4v10H450v-8h0l-3.5,8h-1l-3.5-8h0v8h-1.1v-10H442.3z"/>
			</g>
		</g>
	</g>
	<g>
		<g>
			<rect x="530" y="359" class="st6" width="126" height="50"/>
			<g>
				<rect x="528.5" y="357.5" class="st7" width="125" height="49"/>
				<path class="st8" d="M653,358v48H529v-48H653 M654,357H528v50h126V357L654,357z"/>
			</g>
		</g>
		<g transform="translate(20 9)">
			<g>
				<g>
					<path id="XMLID_49_" class="st5" d="M548,386c-7.2,0-13-5.8-13-13s5.8-13,13-13c6.5,0,11.9,4.8,12.8,11h2
						c-0.9-7.3-7.2-13-14.8-13c-8.3,0-15,6.7-15,15s6.7,15,15,15c7.6,0,13.9-5.7,14.9-13h-2C559.9,381.2,554.5,386,548,386z"/>
					<polygon id="XMLID_48_" class="st5" points="555,369 548,365 541,369 541,377 548,381 555,377 555,374.7 553,375.8 553,375.8 
						548,378.7 543,375.8 543,370.2 548,367.3 552.7,370 549,372.1 549,374.4 553,372.1 553,372.1 555,371 					"/>
					<polygon id="XMLID_47_" class="st5" points="551,376.3 555,374 555,371.7 551,374 					"/>
				</g>
			</g>
			<g class="st4">
				<path class="st9" d="M582.1,368.7c0.8,0.6,1.2,1.4,1.3,2.4h-1.1c-0.1-0.7-0.5-1.3-1.1-1.7c-0.5-0.4-1.2-0.6-2-0.6
					c-1.2,0-2.1,0.4-2.7,1.2c-0.6,0.8-0.9,1.8-0.9,3c0,1.2,0.3,2.2,0.9,3c0.6,0.8,1.5,1.2,2.7,1.2c0.8,0,1.5-0.2,2-0.6
					c0.6-0.4,1-1.1,1.2-2h1.1c-0.2,1.2-0.7,2.1-1.6,2.7c-0.8,0.6-1.7,0.9-2.8,0.9c-1.6,0-2.7-0.5-3.6-1.5c-0.8-0.9-1.1-2.1-1.1-3.6
					c0-1.5,0.4-2.7,1.1-3.7c0.8-1.1,2-1.6,3.6-1.6C580.4,367.8,581.4,368.1,582.1,368.7z"/>
				<path class="st9" d="M589.3,368c2.3,0,3.4,1,3.4,2.9c0,2-1.2,3-3.5,3h-2.9v4.1h-1.2v-10H589.3z M586.3,372.9h2.9
					c0.8,0,1.4-0.2,1.8-0.5c0.4-0.3,0.6-0.8,0.6-1.5c0-0.7-0.2-1.2-0.6-1.5c-0.4-0.3-1-0.5-1.8-0.5h-2.9V372.9z"/>
				<path class="st9" d="M595.6,368l3.7,8.5h0l3.7-8.5h1.4v10h-1.1v-8h0l-3.5,8h-1l-3.5-8h0v8h-1.1v-10H595.6z"/>
			</g>
		</g>
	</g>
	<g id="GrayRectGroup6_7_" transform="translate(669.5,130)">
		<rect x="-619.5" y="351" class="st1" width="622" height="112"/>
	</g>
	<g transform="translate(20 9)">
		<g class="st4">
			<path class="st5" d="M48.5,490v4.2h5.2V490h1.5v10h-1.5v-4.5h-5.2v4.5H47v-10H48.5z"/>
			<path class="st5" d="M60.9,490c1.6,0,2.8,0.4,3.7,1.4c0.8,0.8,1.2,2.1,1.2,3.6c0,1.6-0.4,2.8-1.2,3.7c-0.8,0.9-2.1,1.3-3.7,1.3
				h-3.6v-10H60.9z M58.8,498.7h1.8c1.3,0,2.2-0.3,2.8-0.9c0.6-0.6,0.9-1.5,0.9-2.8c0-1.3-0.3-2.2-0.9-2.8c-0.6-0.6-1.5-0.9-2.8-0.9
				h-1.8L58.8,498.7L58.8,498.7z"/>
			<path class="st5" d="M74.1,490v1.3h-5.3v2.9h5v1.3h-5v4.5h-1.5v-10H74.1z"/>
			<path class="st5" d="M81.6,490.5c0.7,0.5,1.1,1.3,1.2,2.4h-1.5c-0.1-0.6-0.4-1.1-0.8-1.4c-0.4-0.3-1-0.4-1.7-0.4
				c-0.7,0-1.2,0.1-1.5,0.3c-0.4,0.2-0.6,0.6-0.6,1.1c0,0.4,0.2,0.8,0.7,1.1c0.2,0.1,0.8,0.3,1.7,0.6c1.3,0.4,2.2,0.7,2.6,1
				c0.9,0.5,1.3,1.2,1.3,2.2c0,0.9-0.4,1.6-1.1,2.1c-0.7,0.5-1.7,0.8-2.9,0.8c-1.2,0-2.2-0.3-2.9-0.7c-0.8-0.6-1.3-1.5-1.4-2.8h1.5
				c0.1,0.8,0.4,1.4,0.8,1.7c0.4,0.3,1,0.5,1.9,0.5c0.8,0,1.4-0.1,1.8-0.4s0.7-0.6,0.7-1.1c0-0.6-0.3-1-1-1.3
				c-0.2-0.1-0.9-0.3-2-0.7c-1.2-0.4-2-0.7-2.3-0.8c-0.8-0.5-1.1-1.1-1.1-2c0-0.9,0.4-1.6,1.1-2.1c0.7-0.5,1.6-0.7,2.6-0.7
				C80.1,489.8,81,490,81.6,490.5z"/>
			<path class="st5" d="M88.3,489.8c0.2-0.5,0.3-0.9,0.4-1.4l1.3,0.2c-0.1,0.4-0.2,0.8-0.4,1.2h7v1.3h-7.5c-0.5,1.2-1.1,2.3-1.9,3.3
				v7.1H86v-5.5c-0.4,0.4-0.7,0.8-1.1,1.1L84,496c1.6-1.4,2.8-3,3.7-4.9h-3.2v-1.3L88.3,489.8L88.3,489.8z M92.1,496.4v-1.1
				c0.7-0.4,1.5-0.9,2.1-1.5h-5v-1.2H96v1.2c-0.7,0.7-1.6,1.4-2.5,2v0.6h3.4v1.3h-3.4v2.3c0,1-0.5,1.5-1.4,1.5h-1.7l-0.3-1.3
				c0.5,0,1,0,1.6,0c0.4,0,0.6-0.2,0.6-0.7v-1.9h-3.9v-1.3L92.1,496.4L92.1,496.4z"/>
			<path class="st5" d="M98.3,495.3l-0.4-1.4c1.1-1.5,1.8-3.3,2.3-5.4l1.2,0.6c-0.3,0.9-0.6,1.8-0.9,2.7v9.7h-1.3v-7.4
				C98.9,494.5,98.6,494.9,98.3,495.3z M103.6,492.8v5.6c0.3-0.3,0.6-0.7,0.9-1.1l0.3,1.3c-0.7,0.9-1.5,1.8-2.3,2.5l-0.5-1.2
				c0.2-0.2,0.3-0.4,0.3-0.6V494h-1.4v-1.2L103.6,492.8L103.6,492.8z M104.4,491.1l-1,1c-0.5-0.7-1.1-1.4-1.9-2.2l0.9-0.9
				C103.2,489.7,103.9,490.4,104.4,491.1z M106.5,490.1v-1.5h1.2v1.5h1.5v0.7c0.3-0.5,0.5-1,0.7-1.5l1.1,0.6c-0.4,1.1-1,2.1-1.5,3
				h1.3v1.2h-2.2c-0.3,0.4-0.7,0.7-1,1.1h2.6v6.4H109v-0.5h-2.3v0.5h-1.2v-4.8c-0.3,0.1-0.5,0.3-0.7,0.4l-0.7-1
				c1.1-0.5,2.1-1.2,2.9-2h-2.2v-1.2h1.8v-1.5H105v-1.1L106.5,490.1L106.5,490.1z M109,496.2h-2.3v1.2h2.3V496.2z M106.7,499.7h2.3
				v-1.2h-2.3V499.7z M109,491.2h-1.2v1.5h0.2C108.3,492.3,108.7,491.8,109,491.2z"/>
			<path class="st5" d="M112.8,493.3l-0.8-1c1.2-1.1,2.1-2.3,2.6-3.8l1.2,0.3c-0.1,0.3-0.3,0.7-0.4,1h2.7c-0.2-0.4-0.4-0.8-0.6-1.1
				l1.4-0.2c0.2,0.4,0.4,0.8,0.5,1.3h4.4v1.1h-4.3v0.7h3.8v1h-3.8v0.7h3.8v1h-3.8v0.7h4.6v1.1h-10.5v-3.7
				C113.4,492.6,113.1,493,112.8,493.3z M112.4,498.2v-1.2h5.5v-0.6h1.3v0.6h5.4v1.2h-3.8c0.9,0.7,2.3,1.3,4,1.8l-0.6,1.2
				c-2.2-0.8-3.8-1.7-4.8-2.9h-0.2v3.3h-1.3v-3.3h-0.2c-0.9,1.1-2.5,2.2-4.7,3l-0.7-1.1c1.9-0.6,3.3-1.2,4.1-1.9L112.4,498.2
				L112.4,498.2z M118.2,490.8h-3.3v0.7h3.3V490.8z M118.2,492.5h-3.3v0.7h3.3V492.5z M118.2,494.2h-3.3v0.7h3.3V494.2z"/>
			<path class="st5" d="M128.8,495.1c-0.1,0.4-0.2,0.7-0.3,1.1h3.6v5.2h-1.2v-0.8H129v0.8h-1.2v-3.7c-0.3,0.6-0.7,1.2-1.2,1.7
				l-0.7-1.1c0.7-0.8,1.3-1.8,1.6-3.1h-1V494h1.2c0.1-0.4,0.1-0.9,0.2-1.3h-1.8v-1.2h1.9c0-0.4,0-0.9,0.1-1.3h-1.5V489h5v2.5h0.7
				v1.2h-0.7v2.5L128.8,495.1L128.8,495.1z M130.9,499.4v-2H129v2H130.9z M129,494h1.4v-1.3h-1.2C129.2,493.1,129.1,493.5,129,494z
				 M129.3,491.5h1.1v-1.3h-1.1C129.4,490.6,129.4,491,129.3,491.5z M132.7,492.4v-1.3h1.4c-0.3-0.7-0.7-1.4-1-2l1.1-0.5
				c0.4,0.6,0.8,1.4,1.1,2.2l-0.8,0.4h1.3c0.4-0.8,0.7-1.7,1-2.7l1.2,0.4c-0.3,0.8-0.6,1.6-0.9,2.2h1.3v1.3h-2.2v1.7h1.9v1.2h-1.9
				v1.7h2.5v1.3h-2.5v3.1h-1.3v-3.1h-2.5V497h2.5v-1.7H133v-1.2h2.1v-1.7L132.7,492.4L132.7,492.4z"/>
		</g>
	</g>
	<g>
		<g>
			<rect x="68" y="527" class="st6" width="130" height="50"/>
			<g>
				<rect x="66.5" y="525.5" class="st7" width="129" height="49"/>
				<path class="st8" d="M195,526v48H67v-48H195 M196,525H66v50h130V525L196,525z"/>
			</g>
		</g>
		<g transform="translate(20 9)">
			<g>
				<g>
					<path id="XMLID_46_" class="st5" d="M88,554c-7.2,0-13-5.8-13-13s5.8-13,13-13c6.5,0,11.9,4.8,12.8,11h2
						c-0.9-7.3-7.2-13-14.8-13c-8.3,0-15,6.7-15,15s6.7,15,15,15c7.6,0,13.9-5.7,14.9-13h-2C99.9,549.2,94.5,554,88,554z"/>
					<polygon id="XMLID_45_" class="st5" points="95,537 88,533 81,537 81,545 88,549 95,545 95,542.7 93,543.8 93,543.8 88,546.7 
						83,543.8 83,538.2 88,535.3 92.7,538 89,540.1 89,542.4 93,540.1 93,540.1 95,539 					"/>
					<polygon id="XMLID_44_" class="st5" points="91,544.3 95,542 95,539.7 91,542 					"/>
				</g>
			</g>
			<g class="st4">
				<path class="st9" d="M122.1,536.7c0.8,0.6,1.2,1.4,1.3,2.4h-1.1c-0.1-0.7-0.5-1.3-1.1-1.7c-0.5-0.4-1.2-0.6-2-0.6
					c-1.2,0-2.1,0.4-2.7,1.2c-0.6,0.8-0.9,1.8-0.9,3c0,1.2,0.3,2.2,0.9,3c0.6,0.8,1.5,1.2,2.7,1.2c0.8,0,1.5-0.2,2-0.6
					c0.6-0.4,1-1.1,1.2-2h1.1c-0.2,1.2-0.7,2.1-1.6,2.7c-0.8,0.6-1.7,0.9-2.8,0.9c-1.6,0-2.7-0.5-3.6-1.5c-0.8-0.9-1.1-2.1-1.1-3.6
					c0-1.5,0.4-2.7,1.1-3.7c0.8-1.1,2-1.6,3.6-1.6C120.4,535.8,121.4,536.1,122.1,536.7z"/>
				<path class="st9" d="M129.3,536c2.3,0,3.4,1,3.4,2.9c0,2-1.2,3-3.5,3h-2.9v4.1h-1.2v-10H129.3z M126.3,540.9h2.9
					c0.8,0,1.4-0.2,1.8-0.5c0.4-0.3,0.6-0.8,0.6-1.5c0-0.7-0.2-1.2-0.6-1.5c-0.4-0.3-1-0.5-1.8-0.5h-2.9
					C126.3,537,126.3,540.9,126.3,540.9z"/>
				<path class="st9" d="M135.6,536l3.7,8.5h0l3.7-8.5h1.4v10h-1.1v-8h0l-3.5,8h-1l-3.5-8h0v8h-1.1v-10H135.6z"/>
			</g>
		</g>
	</g>
	<g>
		<g>
			<rect x="221.3" y="527" class="st6" width="130" height="50"/>
			<g>
				<rect x="219.8" y="525.5" class="st7" width="129" height="49"/>
				<path class="st8" d="M348.3,526v48h-128v-48H348.3 M349.3,525h-130v50h130V525L349.3,525z"/>
			</g>
		</g>
		<g transform="translate(20 9)">
			<g>
				<g>
					<path id="XMLID_43_" class="st5" d="M241.3,554c-7.2,0-13-5.8-13-13s5.8-13,13-13c6.5,0,11.9,4.8,12.8,11h2
						c-0.9-7.3-7.2-13-14.8-13c-8.3,0-15,6.7-15,15s6.7,15,15,15c7.6,0,13.9-5.7,14.9-13h-2C253.2,549.2,247.8,554,241.3,554z"/>
					<polygon id="XMLID_42_" class="st5" points="248.3,537 241.3,533 234.3,537 234.3,545 241.3,549 248.3,545 248.3,542.7 
						246.3,543.8 246.3,543.8 241.3,546.7 236.3,543.8 236.3,538.2 241.3,535.3 246,538 242.3,540.1 242.3,542.4 246.3,540.1 
						246.3,540.1 248.3,539 					"/>
					<polygon id="XMLID_41_" class="st5" points="244.3,544.3 248.3,542 248.3,539.7 244.3,542 					"/>
				</g>
			</g>
			<g class="st4">
				<path class="st9" d="M275.5,536.7c0.8,0.6,1.2,1.4,1.3,2.4h-1.1c-0.1-0.7-0.5-1.3-1.1-1.7c-0.5-0.4-1.2-0.6-2-0.6
					c-1.2,0-2.1,0.4-2.7,1.2c-0.6,0.8-0.9,1.8-0.9,3c0,1.2,0.3,2.2,0.9,3c0.6,0.8,1.5,1.2,2.7,1.2c0.8,0,1.5-0.2,2-0.6
					c0.6-0.4,1-1.1,1.2-2h1.1c-0.2,1.2-0.7,2.1-1.6,2.7c-0.8,0.6-1.7,0.9-2.8,0.9c-1.6,0-2.7-0.5-3.6-1.5c-0.8-0.9-1.1-2.1-1.1-3.6
					c0-1.5,0.4-2.7,1.1-3.7c0.8-1.1,2-1.6,3.6-1.6C273.8,535.8,274.7,536.1,275.5,536.7z"/>
				<path class="st9" d="M282.6,536c2.3,0,3.4,1,3.4,2.9c0,2-1.2,3-3.5,3h-2.9v4.1h-1.1v-10H282.6z M279.7,540.9h2.9
					c0.8,0,1.4-0.2,1.8-0.5c0.4-0.3,0.6-0.8,0.6-1.5c0-0.7-0.2-1.2-0.6-1.5c-0.4-0.3-1-0.5-1.8-0.5h-2.9V540.9z"/>
				<path class="st9" d="M289,536l3.7,8.5h0l3.7-8.5h1.4v10h-1.1v-8h0l-3.5,8h-1l-3.5-8h0v8h-1.1v-10H289z"/>
			</g>
		</g>
	</g>
	<g>
		<g>
			<rect x="374.7" y="527" class="st6" width="130" height="50"/>
			<g>
				<rect x="373.2" y="525.5" class="st7" width="129" height="49"/>
				<path class="st8" d="M501.7,526v48h-128v-48H501.7 M502.7,525h-130v50h130V525L502.7,525z"/>
			</g>
		</g>
		<g transform="translate(20 9)">
			<g>
				<g>
					<path id="XMLID_40_" class="st5" d="M394.7,554c-7.2,0-13-5.8-13-13s5.8-13,13-13c6.5,0,11.9,4.8,12.8,11h2
						c-0.9-7.3-7.2-13-14.8-13c-8.3,0-15,6.7-15,15s6.7,15,15,15c7.6,0,13.9-5.7,14.9-13h-2C406.6,549.2,401.2,554,394.7,554z"/>
					<polygon id="XMLID_38_" class="st5" points="401.7,537 394.7,533 387.7,537 387.7,545 394.7,549 401.7,545 401.7,542.7 
						399.7,543.8 399.7,543.8 394.7,546.7 389.7,543.8 389.7,538.2 394.7,535.3 399.4,538 395.7,540.1 395.7,542.4 399.7,540.1 
						399.7,540.1 401.7,539 					"/>
					<polygon id="XMLID_37_" class="st5" points="397.7,544.3 401.7,542 401.7,539.7 397.7,542 					"/>
				</g>
			</g>
			<g class="st4">
				<path class="st9" d="M428.8,536.7c0.8,0.6,1.2,1.4,1.3,2.4H429c-0.1-0.7-0.5-1.3-1.1-1.7c-0.5-0.4-1.2-0.6-2-0.6
					c-1.2,0-2.1,0.4-2.7,1.2c-0.6,0.8-0.9,1.8-0.9,3c0,1.2,0.3,2.2,0.9,3c0.6,0.8,1.5,1.2,2.7,1.2c0.8,0,1.5-0.2,2-0.6
					c0.6-0.4,1-1.1,1.2-2h1.1c-0.2,1.2-0.7,2.1-1.6,2.7c-0.8,0.6-1.7,0.9-2.8,0.9c-1.6,0-2.7-0.5-3.6-1.5c-0.8-0.9-1.1-2.1-1.1-3.6
					c0-1.5,0.4-2.7,1.1-3.7c0.8-1.1,2-1.6,3.6-1.6C427.1,535.8,428,536.1,428.8,536.7z"/>
				<path class="st9" d="M436,536c2.3,0,3.4,1,3.4,2.9c0,2-1.2,3-3.5,3H433v4.1h-1.1v-10H436z M433,540.9h2.9c0.8,0,1.4-0.2,1.8-0.5
					c0.4-0.3,0.6-0.8,0.6-1.5c0-0.7-0.2-1.2-0.6-1.5c-0.4-0.3-1-0.5-1.8-0.5H433V540.9z"/>
				<path class="st9" d="M442.3,536l3.7,8.5h0l3.7-8.5h1.4v10H450v-8h0l-3.5,8h-1l-3.5-8h0v8h-1.1v-10H442.3z"/>
			</g>
		</g>
	</g>
	<g>
		<g>
			<rect x="530" y="527" class="st6" width="126" height="50"/>
			<g>
				<rect x="528.5" y="525.5" class="st7" width="125" height="49"/>
				<path class="st8" d="M653,526v48H529v-48H653 M654,525H528v50h126V525L654,525z"/>
			</g>
		</g>
		<g transform="translate(20 9)">
			<g>
				<g>
					<path id="XMLID_36_" class="st5" d="M548,554c-7.2,0-13-5.8-13-13s5.8-13,13-13c6.5,0,11.9,4.8,12.8,11h2
						c-0.9-7.3-7.2-13-14.8-13c-8.3,0-15,6.7-15,15s6.7,15,15,15c7.6,0,13.9-5.7,14.9-13h-2C559.9,549.2,554.5,554,548,554z"/>
					<polygon id="XMLID_35_" class="st5" points="555,537 548,533 541,537 541,545 548,549 555,545 555,542.7 553,543.8 553,543.8 
						548,546.7 543,543.8 543,538.2 548,535.3 552.7,538 549,540.1 549,542.4 553,540.1 553,540.1 555,539 					"/>
					<polygon id="XMLID_34_" class="st5" points="551,544.3 555,542 555,539.7 551,542 					"/>
				</g>
			</g>
			<g class="st4">
				<path class="st9" d="M582.1,536.7c0.8,0.6,1.2,1.4,1.3,2.4h-1.1c-0.1-0.7-0.5-1.3-1.1-1.7c-0.5-0.4-1.2-0.6-2-0.6
					c-1.2,0-2.1,0.4-2.7,1.2c-0.6,0.8-0.9,1.8-0.9,3c0,1.2,0.3,2.2,0.9,3c0.6,0.8,1.5,1.2,2.7,1.2c0.8,0,1.5-0.2,2-0.6
					c0.6-0.4,1-1.1,1.2-2h1.1c-0.2,1.2-0.7,2.1-1.6,2.7c-0.8,0.6-1.7,0.9-2.8,0.9c-1.6,0-2.7-0.5-3.6-1.5c-0.8-0.9-1.1-2.1-1.1-3.6
					c0-1.5,0.4-2.7,1.1-3.7c0.8-1.1,2-1.6,3.6-1.6C580.4,535.8,581.4,536.1,582.1,536.7z"/>
				<path class="st9" d="M589.3,536c2.3,0,3.4,1,3.4,2.9c0,2-1.2,3-3.5,3h-2.9v4.1h-1.2v-10H589.3z M586.3,540.9h2.9
					c0.8,0,1.4-0.2,1.8-0.5c0.4-0.3,0.6-0.8,0.6-1.5c0-0.7-0.2-1.2-0.6-1.5c-0.4-0.3-1-0.5-1.8-0.5h-2.9V540.9z"/>
				<path class="st9" d="M595.6,536l3.7,8.5h0l3.7-8.5h1.4v10h-1.1v-8h0l-3.5,8h-1l-3.5-8h0v8h-1.1v-10H595.6z"/>
			</g>
		</g>
	</g>
</g>
<g>
	<path class="st5" d="M62.1,111.9v5.2h-4.4v0.8h4.6v1.3h-4.6v0.7h5.4v1.3H50.9v-1.3h5.4v-0.7h-4.6v-1.3h4.6v-0.8h-4.4v-5.2H62.1z
		 M53.3,121.9c-0.3,1-0.6,1.8-1.1,2.6l-1.3-0.5c0.4-0.6,0.8-1.5,1.1-2.5L53.3,121.9z M56.3,113.2h-3.1v2.7h3.1V113.2z M55.7,115.4
		l-1.2,0.3c-0.2-0.6-0.4-1.3-0.7-1.9l1.2-0.4C55.2,114,55.5,114.6,55.7,115.4z M56.5,124.2l-1.4,0.3c-0.2-1-0.4-1.8-0.6-2.5l1.3-0.3
		C56,122.5,56.3,123.3,56.5,124.2z M59.7,124.1l-1.4,0.3c-0.2-1-0.5-1.8-0.9-2.5l1.3-0.3C59,122.4,59.4,123.2,59.7,124.1z
		 M60.8,113.2h-3.1v2.7h3.1V113.2z M60.2,113.6c-0.2,0.8-0.5,1.4-0.8,2l-1.2-0.4c0.3-0.5,0.5-1.1,0.8-1.9L60.2,113.6z M63.1,123.7
		l-1.1,0.8c-0.4-0.7-0.9-1.5-1.6-2.4l1.1-0.7C62.2,122.3,62.7,123.1,63.1,123.7z"/>
	<path class="st5" d="M77.2,112.1v1.4h-6.5c-0.4,1.2-1,2.3-1.6,3.3h7.1v7.4h-1.5v-0.7h-5.4v0.7h-1.5v-5.6c-0.8,0.9-1.6,1.7-2.5,2.4
		l-0.9-1.5c2.2-1.6,3.7-3.6,4.7-6.1h-4.3v-1.4H77.2z M74.8,122.2v-3.9h-5.4v3.9H74.8z"/>
	<path class="st5" d="M84.8,113.6c0.6,0.6,0.9,1.3,0.9,2.2c0,0.9-0.3,1.7-1,2.4c-0.4,0.4-1.1,1-2.1,1.6c-1,0.7-1.6,1.3-1.9,1.8h4.9
		v1.4h-7c0-1,0.3-1.9,1-2.7c0.4-0.4,1.1-1,2.3-1.8c0.6-0.4,1.1-0.8,1.4-1.1c0.4-0.5,0.7-1,0.7-1.6c0-0.5-0.2-1-0.4-1.2
		c-0.3-0.3-0.7-0.4-1.3-0.4c-0.6,0-1.1,0.2-1.4,0.6c-0.3,0.4-0.5,1-0.5,1.8h-1.6c0-1.1,0.3-2,1-2.7c0.7-0.7,1.5-1.1,2.6-1.1
		C83.3,112.8,84.1,113.1,84.8,113.6z"/>
	<path class="st5" d="M89.1,121.2c0.2,0.2,0.3,0.5,0.3,0.8c0,0.3-0.1,0.6-0.3,0.8c-0.2,0.2-0.5,0.3-0.8,0.3s-0.6-0.1-0.8-0.3
		c-0.2-0.2-0.3-0.5-0.3-0.8c0-0.3,0.1-0.6,0.3-0.8c0.2-0.2,0.5-0.3,0.8-0.3S88.9,121,89.1,121.2z"/>
	<path class="st5" d="M97.2,114.3c0.6,0.9,0.9,2.2,0.9,3.7s-0.3,2.8-0.9,3.7c-0.7,1-1.6,1.5-2.7,1.5c-1.2,0-2.1-0.5-2.7-1.5
		c-0.6-0.9-0.9-2.2-0.9-3.7s0.3-2.8,0.9-3.7c0.6-1,1.6-1.5,2.7-1.5C95.6,112.8,96.5,113.3,97.2,114.3z M92.8,115.5
		c-0.2,0.6-0.3,1.4-0.3,2.5c0,1,0.1,1.9,0.3,2.5c0.3,0.9,0.9,1.3,1.7,1.3c0.8,0,1.3-0.4,1.7-1.3c0.2-0.6,0.3-1.4,0.3-2.5
		c0-1.1-0.1-1.9-0.3-2.5c-0.3-0.9-0.9-1.3-1.7-1.3C93.7,114.2,93.1,114.6,92.8,115.5z"/>
	<path class="st5" d="M104.8,115c0.1-0.7,0.1-1.5,0.2-2.3v-1.3h1.5v0.9c0,0.9-0.1,1.8-0.2,2.6h5.6v1.4h-5.3c1,2.9,2.9,5.2,5.6,6.8
		l-0.9,1.2c-2.6-1.6-4.5-3.9-5.6-6.8c-1,3.1-2.8,5.4-5.6,6.9l-0.9-1.2c2.8-1.4,4.6-3.7,5.4-6.9h-5.1V115H104.8z"/>
	<path class="st5" d="M117.1,118.2c-0.1,0.2-0.2,0.4-0.2,0.6h2.8v1.2c-0.2,0.8-0.7,1.5-1.3,2.2c0.5,0.2,1.1,0.5,1.6,0.8l-0.8,1.1
		c-0.5-0.3-1.2-0.7-1.9-1c-0.9,0.6-2.1,1.1-3.5,1.4l-0.7-1.2c1-0.2,1.9-0.5,2.6-0.9c-0.6-0.2-1.2-0.5-1.8-0.7
		c0.3-0.6,0.6-1.1,0.9-1.6h-1.4v-1.2h1.9c0.1-0.3,0.2-0.5,0.3-0.8L117.1,118.2z M116.1,114v-2.5h1.3v2.5h2.4v1.3h-2.4v0
		c0.7,0.3,1.5,0.6,2.2,1l-0.8,1.1c-0.6-0.5-1.1-0.8-1.5-1.1v1.5h-1.3v-2.2c-0.5,1-1.2,1.8-2.2,2.5l-0.7-1.2c0.9-0.5,1.6-1.1,2-1.7
		h-1.7V114H116.1z M115.7,113.4l-1,0.5c-0.3-0.7-0.6-1.3-0.9-1.8l1.1-0.4C115.2,112.2,115.4,112.8,115.7,113.4z M118.4,120h-2.1
		c-0.2,0.4-0.4,0.7-0.6,1.1c0.4,0.1,0.9,0.3,1.3,0.5C117.7,121.1,118.1,120.6,118.4,120z M119.8,112.2c-0.3,0.6-0.6,1.2-1.1,1.7
		l-1-0.5c0.4-0.6,0.8-1.1,1.1-1.7L119.8,112.2z M121.2,117.5c-0.2,0.5-0.4,0.9-0.7,1.3l-0.9-1.1c0.8-1.5,1.3-3.6,1.6-6.2l1.4,0.3
		c-0.1,0.6-0.2,1.2-0.3,1.7h3.5v1.4h-0.8c-0.1,2.3-0.5,4.2-1.2,5.8c0.7,1.1,1.5,2,2.4,2.6l-0.8,1.2c-0.9-0.6-1.6-1.5-2.3-2.5
		c-0.7,1-1.5,1.8-2.4,2.5l-0.8-1.2c1-0.7,1.8-1.5,2.4-2.6C121.9,119.7,121.5,118.7,121.2,117.5z M121.9,115.5
		c0.3,1.4,0.7,2.6,1.1,3.7c0.4-1.2,0.7-2.6,0.7-4.2H122C122,115.1,121.9,115.3,121.9,115.5z"/>
	<path class="st5" d="M127.8,124.3l-0.3-1.4c0.4,0.1,0.7,0.1,1,0.1c0.3,0,0.4-0.2,0.4-0.5v-2.8c-0.5,0.2-0.9,0.3-1.4,0.5l-0.4-1.4
		c0.6-0.1,1.2-0.3,1.8-0.5v-2.8h-1.5V114h1.5v-2.5h1.4v2.5h1.2v1.4h-1.2v2.2c0.4-0.2,0.8-0.4,1.1-0.6v1.4c-0.4,0.2-0.8,0.4-1.1,0.6
		v3.8c0,1-0.5,1.4-1.4,1.4H127.8z M131.8,124.5l-1.1-1c0.9-1.8,1.4-4.1,1.4-6.9v-4.7h7.7v3.7h-2.5v1.3h2.8v1.3h-2.8v1.3h2.2v4.8
		h-1.3v-0.6h-3.2v0.6h-1.3v-4.8h2.2v-1.3h-2.4C133.2,120.6,132.7,122.7,131.8,124.5z M133.5,115.6v0.9c0,0.1,0,0.3,0,0.4h2.3v-1.3
		H133.5z M133.5,113.3v1.1h4.8v-1.1H133.5z M138.1,122.6v-1.7h-3.2v1.7H138.1z"/>
	<path class="st5" d="M145.2,111.8c-0.1,0.6-0.2,1.2-0.4,1.8h3.1v1.3c-0.3,2.4-1,4.4-2,6c0.3,0.4,0.5,0.7,0.8,0.9
		c1,0.7,2.6,1.1,4.8,1.2c0.8,0,1.7,0,2.6-0.1l-0.3,1.5h-1.6c-3,0-5.1-0.5-6.4-1.5c-0.3-0.2-0.6-0.5-0.8-0.8c-0.8,1-1.8,1.8-3,2.5
		l-0.8-1.4c1.1-0.6,2.1-1.4,2.9-2.5c-0.4-0.8-0.7-1.7-1-2.7c-0.3,0.5-0.7,1-1.1,1.5l-1-1.3c1.3-1.6,2.2-3.8,2.7-6.5L145.2,111.8z
		 M145.1,119.2c0.7-1.2,1.2-2.7,1.4-4.3h-2c-0.2,0.4-0.3,0.9-0.5,1.3C144.3,117.4,144.7,118.4,145.1,119.2z M150.8,111.6v3.6
		c1.1,0.8,2.3,1.7,3.4,2.7l-0.9,1.3c-1-1-1.8-1.8-2.5-2.5v5.3h-1.5v-10.4H150.8z"/>
	<path class="st5" d="M156.8,116.5v-2.9h-1.5v-1.4h4.6v1.4h-1.5v2.9h1.4v1.4h-1.4v2.6c0.4-0.2,0.9-0.3,1.3-0.5v1.4
		c-1.3,0.5-2.7,0.9-4.1,1.3l-0.4-1.4c0.6-0.1,1.1-0.2,1.7-0.4v-3.1h-1.3v-1.4H156.8z M167.5,111.9v6.8h-2.8v1.3h3v1.4h-3v1.3h3.5
		v1.4h-8.5v-1.4h3.6v-1.3h-3V120h3v-1.3h-2.9v-6.8H167.5z M163.2,114.7v-1.5h-1.5v1.5H163.2z M163.2,116h-1.5v1.5h1.5V116z
		 M164.6,114.7h1.4v-1.5h-1.4V114.7z M166.1,116h-1.4v1.5h1.4V116z"/>
	<path class="st5" d="M170,116.3l-0.9-1.1c1.1-1.1,2-2.3,2.6-3.7l1.4,0.3c-0.1,0.3-0.3,0.6-0.4,0.9h2.6c-0.2-0.4-0.4-0.7-0.6-1
		l1.5-0.3c0.2,0.4,0.4,0.8,0.5,1.3h4.4v1.2h-4.3v0.6h3.7v1.1h-3.7v0.6h3.7v1.1h-3.7v0.6h4.6v1.2h-10.5v-3.7
		C170.5,115.7,170.3,116,170,116.3z M169.6,121.2v-1.3h5.4v-0.5h1.5v0.5h5.3v1.3h-3.7c0.9,0.7,2.2,1.2,3.9,1.6l-0.6,1.3
		c-2.2-0.8-3.8-1.7-4.7-2.9h-0.1v3.3H175v-3.3h-0.1c-0.9,1.1-2.5,2.1-4.7,3l-0.8-1.3c1.8-0.5,3.1-1.1,3.9-1.7H169.6z M175.3,113.9
		h-3.2v0.6h3.2V113.9z M175.3,115.6h-3.2v0.6h3.2V115.6z M175.3,117.3h-3.2v0.6h3.2V117.3z"/>
	<path class="st5" d="M186,118.2c-0.1,0.3-0.2,0.6-0.3,1h3.5v5.2H188v-0.7h-1.7v0.8h-1.3v-3.5c-0.3,0.6-0.7,1.1-1.1,1.5l-0.8-1.2
		c0.7-0.7,1.2-1.8,1.6-3h-0.9v-1.2h1.2c0.1-0.4,0.1-0.8,0.2-1.2h-1.7v-1.3h1.8l0-1.2h-1.4v-1.2h5v2.5h0.7v1.3h-0.7v2.5H186z
		 M188,122.3v-1.9h-1.7v1.9H188z M186.3,116.9h1.3v-1.2h-1.1C186.4,116.1,186.3,116.5,186.3,116.9z M186.6,114.4h1v-1.2h-0.9
		C186.6,113.6,186.6,114,186.6,114.4z M189.8,115.4V114h1.4c-0.3-0.7-0.6-1.4-1-1.9l1.2-0.6c0.4,0.6,0.7,1.3,1.1,2.1l-0.8,0.4h1.3
		c0.4-0.8,0.7-1.7,1-2.6l1.4,0.5c-0.3,0.8-0.6,1.5-0.9,2.2h1.3v1.4h-2.2v1.6h1.9v1.4h-1.9v1.6h2.5v1.4h-2.5v3.1h-1.4v-3.1h-2.5v-1.4
		h2.5v-1.6h-2V117h2v-1.6H189.8z"/>
</g>
</svg>
