<?xml version="1.0" encoding="utf-8"?>
<!-- Generator: Adobe Illustrator 21.0.0, SVG Export Plug-In . SVG Version: 6.00 Build 0)  -->
<svg version="1.1" xmlns="http://www.w3.org/2000/svg" xmlns:xlink="http://www.w3.org/1999/xlink" x="0px" y="0px" width="117.3px"
	 height="18px" viewBox="0 0 117.3 18" style="enable-background:new 0 0 117.3 18;" xml:space="preserve">
<style type="text/css">
	.st0{fill:#284AFF;}
	.st1{fill:#606060;}
	.st2{fill:url(#SVGID_1_);}
	.st3{fill:none;stroke:#000000;stroke-miterlimit:10;}
	.st4{fill:#FFFFFF;}
	.st5{opacity:0.4;}
	.st6{fill:#FFFFFF;stroke:#666666;stroke-miterlimit:10;}
	.st7{fill:#060001;}
	.st8{fill:#666666;}
	.st9{opacity:0.76;}
	.st10{fill:url(#SVGID_2_);}
	.st11{fill:url(#SVGID_3_);}
	.st12{fill:url(#SVGID_4_);}
	.st13{fill:url(#SVGID_5_);}
	.st14{fill:url(#SVGID_6_);}
	.st15{fill:url(#SVGID_7_);}
	.st16{fill:#040000;}
	.st17{fill:url(#SVGID_8_);}
	.st18{fill:url(#SVGID_9_);}
	.st19{fill:url(#SVGID_10_);}
	.st20{fill:url(#SVGID_11_);}
	.st21{fill:url(#SVGID_12_);}
	.st22{fill:url(#SVGID_13_);}
	.st23{fill:url(#SVGID_14_);}
	.st24{fill:url(#SVGID_15_);}
	.st25{fill:url(#SVGID_16_);}
	.st26{fill:url(#SVGID_17_);}
	.st27{fill:url(#SVGID_18_);}
	.st28{fill:url(#SVGID_19_);}
	.st29{fill:url(#SVGID_20_);}
	.st30{fill:url(#SVGID_21_);}
	.st31{fill:url(#SVGID_22_);}
	.st32{fill:url(#SVGID_23_);}
	.st33{fill:url(#SVGID_24_);}
	.st34{fill:url(#SVGID_25_);}
	.st35{fill:url(#SVGID_26_);}
	.st36{fill:url(#SVGID_27_);}
	.st37{fill:url(#SVGID_28_);}
	.st38{fill:url(#SVGID_29_);}
	.st39{opacity:0.5;}
	.st40{fill:url(#SVGID_30_);}
	.st41{fill:url(#SVGID_31_);}
	.st42{fill:url(#SVGID_32_);}
	.st43{fill:url(#SVGID_33_);}
	.st44{fill:url(#SVGID_34_);}
	.st45{fill:url(#SVGID_35_);}
	.st46{fill:url(#SVGID_36_);}
	.st47{fill:url(#SVGID_37_);}
	.st48{fill:url(#SVGID_38_);}
	.st49{fill:url(#SVGID_39_);}
	.st50{fill:url(#SVGID_40_);}
	.st51{fill:url(#SVGID_41_);}
</style>
<g id="background">
</g>
<g id="logo">
	<g class="st39">
		<path class="st4" d="M12.3,9.2c0.1,0.5,0.2,1,0.3,1.5c0.1,0.6,0.2,1,0.3,1.3c0.7,2.8,1.8,6,3.7,6c2.8,0,4.2-6.2,4.2-8.8H12.3z"/>
		<path class="st4" d="M11.8,10.9C11.2,7.6,9.8,0,6,0C2.4,0,0.5,9,0,12.5h12.1c0-0.1-0.1-0.2-0.1-0.3C12,11.9,11.9,11.5,11.8,10.9z"
			/>
	</g>
	<g class="st39">
		<g>
			<g>
				<rect x="29.8" y="12.1" class="st4" width="4.9" height="0.9"/>
				<path class="st4" d="M26.5,10.4c0,1.7-0.1,2.9-0.4,4.1c0,0.1,0,0.1,0.1,0.1c0,0,0.8,0,0.9,0c0.3-1.5,0.3-2.8,0.3-3.8h1.3v2.9
					h-0.9c0,0-0.1,0-0.1,0.1l0.2,0.8h1.6V3.9h-3.1V10.4z M27.4,10V7.8h1.3V10H27.4z M28.6,4.8V7h-1.3V4.8H28.6z"/>
				<path class="st4" d="M35.1,7.6h1.2V6.8h-3.5c0.1-0.3,0.2-0.5,0.3-0.9h3V5.1h-0.9c0.1-0.5,0.3-1.1,0.3-1.2c0-0.1,0-0.1-0.1-0.1
					h-0.8l-0.4,1.2h-1.1c0.1-0.5,0.2-1,0.3-1.6c0-0.1,0-0.1-0.1-0.1c0,0-0.6,0-0.9,0c-0.1,0.6-0.2,1.2-0.3,1.7h-0.5l-0.4-1.2h-0.8
					c0,0-0.1,0-0.1,0.1c0,0,0.2,0.6,0.3,1.2h-0.9v0.8h2c-0.1,0.3-0.2,0.6-0.3,0.9h-1.9v0.8h1.4c-0.6,0.8-1.2,1.2-1.4,1.4
					c0,0.1,0,0.9,0,0.9c0,0,0,0.1,0.2,0c0.3-0.2,0.6-0.3,0.8-0.5h3.4l0,1.2h-2.7l0-0.7c0,0,0-0.1-0.1-0.1c-0.1,0-0.9,0-0.9,0
					l-0.1,1.6c0,0,0,0.1,0.1,0.1c0.1,0,4.6,0,4.6,0v2.2h-2.1c0,0-0.1,0-0.1,0.1l0.2,0.8h2.9v-4h-1.1l0-1.6c0.4,0.4,0.8,0.7,1.2,0.9
					c0.1,0.1,0.2,0,0.2,0c0,0,0-0.8,0-0.9C36.3,8.8,35.7,8.4,35.1,7.6z M34,7.6c0.2,0.4,0.5,0.7,0.7,1h-3c0.2-0.3,0.5-0.6,0.7-1H34z
					"/>
			</g>
			<g>
				<path class="st4" d="M47.3,3.8h-6.3v0.9h1.9v3.4h-2.2V9h2.2v5.6h1V9h2.4v5.5h1.9v-0.9h-0.9V3.8z M43.9,8.1V4.8h2.4v3.4H43.9z"/>
				<path class="st4" d="M41.7,11.5c0,0-0.9,0.7-1.7,1.3v-6h-2.3v1H39v5.7c-0.3,0.2-0.5,0.4-0.5,0.4l0.5,0.7l2.7-2.1
					C41.8,12.5,41.8,11.5,41.7,11.5C41.8,11.4,41.7,11.4,41.7,11.5z"/>
				<path class="st4" d="M39.1,5.9c0,0,1.1,0,1.1,0c0,0,0.1-0.1,0-0.1c0,0-1.4-2.1-1.4-2.1s-1,0-1.1,0s-0.1,0,0,0.1
					C37.8,3.8,39.1,5.9,39.1,5.9z"/>
			</g>
			<g>
				<g>
					<polygon class="st4" points="59.2,4.4 54.9,4.4 54.9,3.4 53.8,3.4 53.8,4.4 49.5,4.4 49.5,5.3 59.2,5.3 					"/>
				</g>
				<g>
					<path class="st4" d="M50.3,14.6h8.1V9.5h-8.1V14.6z M51.3,10.4h6.1v1.2h-6.1V10.4z M51.3,12.5h6.1v1.2h-6.1V12.5z"/>
				</g>
				<g>
					<path class="st4" d="M57.3,7.7l0.5-1.8l0,0c0,0,0,0,0,0c0,0,0-0.1-0.1-0.1h-1.1l-0.6,1.9h-3.7l-0.6-1.9h-1.1c0,0-0.1,0-0.1,0.1
						c0,0,0,0,0,0l0,0l0.5,1.8h-2.1v0.9h10.3V7.7H57.3z"/>
				</g>
			</g>
			<g>
				<polygon class="st4" points="64.9,3.9 64.9,10.9 66,10.9 66,4.9 69.3,4.9 69.3,10.8 70.4,10.8 70.4,3.9 				"/>
				<path class="st4" d="M65,10.4C65.1,10.4,65.1,10.4,65,10.4c0-0.1-1.4-1.8-1.4-1.8h-0.5c0.5-0.7,0.8-1.3,1-2c0,0,0,0,0-0.1V5.7
					h-3.6v0.9h2.5c-0.5,1.1-1.5,2.4-2.6,3.3c0,0,0,1.1,0,1.1c0,0,0,0.1,0.1,0c0.5-0.3,1-0.7,1.4-1.2v4.6h1v-5l0.8,0.9
					C63.8,10.4,65,10.4,65,10.4z"/>
				<path class="st4" d="M61.4,3.5C61.4,3.5,61.3,3.6,61.4,3.5c0,0.1,1,1.8,1,1.8s1,0,1.1,0c0,0,0.1-0.1,0-0.1c0,0-1-1.7-1-1.7
					S61.4,3.5,61.4,3.5z"/>
				<path class="st4" d="M71.1,14.4l0-1l-2.5,0V9.9h-0.7c0.1-0.6,0.2-1.2,0.3-1.8c0-0.7,0-2.1,0-2.2h-1c0,0.2,0,1.5,0,2.2
					c-0.1,2.6-1.2,4.4-3.2,5.5v1c0,0,0,0.1,0.1,0c1.8-0.8,3-2.1,3.6-3.8v3.6L71.1,14.4z"/>
			</g>
			<g>
				<polygon class="st4" points="75.6,7.4 75.6,6 76.9,6 76.9,5 75.6,5 75.6,3.4 74.6,3.4 74.6,7.4 73.8,7.4 73.8,4.4 72.8,4.4 
					72.8,7.4 72.2,7.4 72.2,8.3 77,8.3 77,7.4 				"/>
				<polygon class="st4" points="82.4,4.8 82.4,3.9 77.2,3.9 77.2,4.8 79.2,4.8 79,6.2 77.4,6.2 77.4,11.7 78.4,11.7 78.4,7.2 
					81.3,7.2 81.3,11.7 82.3,11.7 82.3,6.2 80,6.2 80.3,4.8 				"/>
				<path class="st4" d="M73.2,11.5L74,9.3c0,0,0-0.1,0-0.1h-1l-0.7,2.2c0,0,0,0.1,0,0.1H73.2z"/>
				<path class="st4" d="M77,9.9h-1.1c-0.1,0.2-0.3,0.5-0.6,0.8V8.7h-1v3.3c-0.6,0.6-1.2,1.1-2,1.6v1.1c0,0,0,0.1,0.1,0
					C75.2,13.2,76.8,10.5,77,9.9C77.1,10,77.1,9.9,77,9.9z"/>
				<path class="st4" d="M80.3,9.1c0-1.3,0-1.1,0-1.1h0h-1h0c0,0,0-0.1,0,1.1c0,1.8-0.3,3.1-2.4,4.3v1.1c0,0,0,0.1,0.1,0
					c1.5-0.8,2.4-1.7,2.8-2.7c0.4,0.9,1.3,1.9,2.8,2.7c0,0,0.1,0,0.1,0v-1.1C80.6,12.2,80.3,11,80.3,9.1z"/>
			</g>
		</g>
		<g>
			<g>
				<polygon class="st4" points="94,4.4 94,4.4 89.5,4.4 89.5,3.4 88.4,3.4 88.4,4.4 83.9,4.4 83.9,4.4 83.9,4.4 83.9,7.3 85,7.3 
					85,5.5 92.9,5.5 92.9,7.3 94,7.3 94,4.4 				"/>
				<path class="st4" d="M88.5,7.1l-2.2-1c0,0-0.1,0-0.1,0v1c0,0,0,0,0,0l2.2,1c0,0,0.1,0,0.1,0L88.5,7.1
					C88.5,7.2,88.5,7.1,88.5,7.1z"/>
				<path class="st4" d="M87.8,8.7l-2.3-0.9c0,0-0.1,0-0.1,0v1l2.3,0.9c0,0,0.1,0,0.1,0V8.7z"/>
				<path class="st4" d="M94.1,10.2h-3.7c0.3-1.8,0.3-3.7,0.3-3.8l-1.1,0c0,0,0,2-0.4,3.8h-5.4v1.1h5c-0.9,1.3-3.5,2-4.7,2.3v1.1
					c0,0,0,0,0.1,0c3-0.6,4.7-1.6,5.5-2.6c0.7,0.6,2.4,1.8,4.1,2.6c0,0,0.1,0,0.1,0v-1.2c-1.4-0.7-2.6-1.6-3.3-2.2h3.7V10.2z"/>
			</g>
			<g>
				<g>
					<polygon class="st4" points="107.9,5.4 116,5.4 116,7 117,7 117,4.4 112.5,4.4 112.5,3.4 111.4,3.4 111.4,4.4 106.9,4.4 
						106.9,7 107.9,7 					"/>
					<path class="st4" d="M112.5,13.3v-1.2h3.9v-1h-3.9v-0.9h3.5v-1l-1.2-1.1h-1.3c0,0-0.1,0.1,0,0.1l1,0.9h-5l2-1.7h4.2v-1h-7.4v1
						h1.7l-2,1.6v1.1h3.5v0.9h-3.9v1h3.9v1.2h-4.6v1h10.3v-1H112.5z"/>
				</g>
			</g>
			<g>
				<rect x="100.3" y="7.5" class="st4" width="4.3" height="1"/>
				<path class="st4" d="M99.2,8.7h-0.5L99.1,4c0,0,0,0,0,0h-3.6v1.1h2.5l-0.3,3.6h-1l0.2-3c0,0,0,0,0,0h-1l-0.2,4.1h2.6L98,13.4
					h-1.8c0,0-0.1,0,0,0.1l0.3,1H99L99.2,8.7C99.3,8.7,99.3,8.7,99.2,8.7z"/>
				<path class="st4" d="M104.3,13.4l0.9-3.6c0,0,0-0.1,0-0.1h-1l-0.9,3.7h-3.9v1h6.2v-1H104.3z"/>
				<path class="st4" d="M101.5,9.3l0.6,2.9h1c0,0,0.1,0,0-0.1l-0.6-2.9L101.5,9.3C101.5,9.2,101.5,9.3,101.5,9.3z"/>
				<path class="st4" d="M99.7,9.7l0.7,3h1c0,0,0,0,0-0.1l-0.7-3L99.7,9.7C99.7,9.6,99.7,9.6,99.7,9.7z"/>
				<g>
					<polygon class="st4" points="97.6,10.8 97.6,10.8 97.6,10.8 					"/>
					<path class="st4" d="M97.6,10.8l-2.2,0.3v1.1c0,0,0,0.1,0.1,0l2.2-0.3L97.6,10.8C97.6,10.8,97.6,10.8,97.6,10.8z"/>
				</g>
				<g>
					<path class="st4" d="M105.7,6.6c-1.4-1.4-2.9-2.8-3.3-3.2c-0.4,0.4-1.8,1.8-3.2,3.2V8c0,0,0,0.1,0.1,0c1.1-1.1,2.3-2.2,3.1-3.1
						c0.8,0.8,2.1,2,3.2,3c0,0,0.1,0,0.1,0V6.6z"/>
				</g>
			</g>
		</g>
	</g>
</g>
</svg>
