<?xml version="1.0" encoding="UTF-8"?>
<svg width="32px" height="32px" viewBox="0 0 32 32" version="1.1" xmlns="http://www.w3.org/2000/svg" xmlns:xlink="http://www.w3.org/1999/xlink">
    <!-- Generator: Sketch 49.3 (51167) - http://www.bohemiancoding.com/sketch -->
    <title>ic7_协同</title>
    <desc>Created with Sketch.</desc>
    <defs></defs>
    <g id="ic7_协同" stroke="none" stroke-width="1" fill="none" fill-rule="evenodd">
        <path d="M5,7 L5,14 L12,14 L12,7 L5,7 Z M3,5 L14,5 L14,16 L3,16 L3,5 Z M22,5.75735931 L17.7573593,10 L22,14.2426407 L26.2426407,10 L22,5.75735931 Z M22,2.92893219 L29.0710678,10 L22,17.0710678 L14.9289322,10 L22,2.92893219 Z M5,20 L5,27 L12,27 L12,20 L5,20 Z M3,18 L14,18 L14,29 L3,29 L3,18 Z M18,20 L18,27 L25,27 L25,20 L18,20 Z M16,18 L27,18 L27,29 L16,29 L16,18 Z" id="Combined-Shape" fill="#FFFFFF" fill-rule="nonzero"></path>
    </g>
</svg>