<?xml version="1.0" encoding="UTF-8"?>
<svg width="833px" height="265px" viewBox="0 0 833 265" version="1.1" xmlns="http://www.w3.org/2000/svg" xmlns:xlink="http://www.w3.org/1999/xlink">
    <!-- Generator: Sketch 54.1 (76490) - https://sketchapp.com -->
    <title>需求管理</title>
    <desc>Created with Sketch.</desc>
    <defs>
        <rect id="path-1" x="0" y="0" width="132" height="50"></rect>
        <filter x="-1.5%" y="-2.0%" width="103.0%" height="108.0%" filterUnits="objectBoundingBox" id="filter-2">
            <feOffset dx="0" dy="1" in="SourceAlpha" result="shadowOffsetOuter1"></feOffset>
            <feGaussianBlur stdDeviation="0.5" in="shadowOffsetOuter1" result="shadowBlurOuter1"></feGaussianBlur>
            <feColorMatrix values="0 0 0 0 0   0 0 0 0 0   0 0 0 0 0  0 0 0 0.35 0" type="matrix" in="shadowBlurOuter1"></feColorMatrix>
        </filter>
        <rect id="path-3" x="0" y="0" width="132" height="50"></rect>
        <filter x="-1.5%" y="-2.0%" width="103.0%" height="108.0%" filterUnits="objectBoundingBox" id="filter-4">
            <feOffset dx="0" dy="1" in="SourceAlpha" result="shadowOffsetOuter1"></feOffset>
            <feGaussianBlur stdDeviation="0.5" in="shadowOffsetOuter1" result="shadowBlurOuter1"></feGaussianBlur>
            <feColorMatrix values="0 0 0 0 0   0 0 0 0 0   0 0 0 0 0  0 0 0 0.35 0" type="matrix" in="shadowBlurOuter1"></feColorMatrix>
        </filter>
        <rect id="path-5" x="0" y="0" width="132" height="50"></rect>
        <filter x="-1.5%" y="-2.0%" width="103.0%" height="108.0%" filterUnits="objectBoundingBox" id="filter-6">
            <feOffset dx="0" dy="1" in="SourceAlpha" result="shadowOffsetOuter1"></feOffset>
            <feGaussianBlur stdDeviation="0.5" in="shadowOffsetOuter1" result="shadowBlurOuter1"></feGaussianBlur>
            <feColorMatrix values="0 0 0 0 0   0 0 0 0 0   0 0 0 0 0  0 0 0 0.35 0" type="matrix" in="shadowBlurOuter1"></feColorMatrix>
        </filter>
        <rect id="path-7" x="0" y="0" width="80" height="50"></rect>
        <filter x="-2.5%" y="-2.0%" width="105.0%" height="108.0%" filterUnits="objectBoundingBox" id="filter-8">
            <feOffset dx="0" dy="1" in="SourceAlpha" result="shadowOffsetOuter1"></feOffset>
            <feGaussianBlur stdDeviation="0.5" in="shadowOffsetOuter1" result="shadowBlurOuter1"></feGaussianBlur>
            <feColorMatrix values="0 0 0 0 0   0 0 0 0 0   0 0 0 0 0  0 0 0 0.35 0" type="matrix" in="shadowBlurOuter1"></feColorMatrix>
        </filter>
        <rect id="path-9" x="0" y="0" width="80" height="50"></rect>
        <filter x="-2.5%" y="-2.0%" width="105.0%" height="108.0%" filterUnits="objectBoundingBox" id="filter-10">
            <feOffset dx="0" dy="1" in="SourceAlpha" result="shadowOffsetOuter1"></feOffset>
            <feGaussianBlur stdDeviation="0.5" in="shadowOffsetOuter1" result="shadowBlurOuter1"></feGaussianBlur>
            <feColorMatrix values="0 0 0 0 0   0 0 0 0 0   0 0 0 0 0  0 0 0 0.35 0" type="matrix" in="shadowBlurOuter1"></feColorMatrix>
        </filter>
        <rect id="path-11" x="0" y="0" width="80" height="50"></rect>
        <filter x="-2.5%" y="-2.0%" width="105.0%" height="108.0%" filterUnits="objectBoundingBox" id="filter-12">
            <feOffset dx="0" dy="1" in="SourceAlpha" result="shadowOffsetOuter1"></feOffset>
            <feGaussianBlur stdDeviation="0.5" in="shadowOffsetOuter1" result="shadowBlurOuter1"></feGaussianBlur>
            <feColorMatrix values="0 0 0 0 0   0 0 0 0 0   0 0 0 0 0  0 0 0 0.35 0" type="matrix" in="shadowBlurOuter1"></feColorMatrix>
        </filter>
        <rect id="path-13" x="0" y="0" width="80" height="50"></rect>
        <filter x="-2.5%" y="-2.0%" width="105.0%" height="108.0%" filterUnits="objectBoundingBox" id="filter-14">
            <feOffset dx="0" dy="1" in="SourceAlpha" result="shadowOffsetOuter1"></feOffset>
            <feGaussianBlur stdDeviation="0.5" in="shadowOffsetOuter1" result="shadowBlurOuter1"></feGaussianBlur>
            <feColorMatrix values="0 0 0 0 0   0 0 0 0 0   0 0 0 0 0  0 0 0 0.35 0" type="matrix" in="shadowBlurOuter1"></feColorMatrix>
        </filter>
        <rect id="path-15" x="0" y="0" width="80" height="50"></rect>
        <filter x="-2.5%" y="-2.0%" width="105.0%" height="108.0%" filterUnits="objectBoundingBox" id="filter-16">
            <feOffset dx="0" dy="1" in="SourceAlpha" result="shadowOffsetOuter1"></feOffset>
            <feGaussianBlur stdDeviation="0.5" in="shadowOffsetOuter1" result="shadowBlurOuter1"></feGaussianBlur>
            <feColorMatrix values="0 0 0 0 0   0 0 0 0 0   0 0 0 0 0  0 0 0 0.35 0" type="matrix" in="shadowBlurOuter1"></feColorMatrix>
        </filter>
    </defs>
    <g id="介绍页配图设计" stroke="none" stroke-width="1" fill="none" fill-rule="evenodd">
        <g id="应用场景复制" transform="translate(-201.000000, -3275.000000)">
            <g id="编组-17" transform="translate(201.000000, 2631.000000)">
                <g id="流程1-copy-2复制-10" transform="translate(0.000000, 644.000000)">
                    <g id="编组-16" transform="translate(37.000000, 0.000000)">
                        <g id="XMLID_25_" transform="translate(277.000000, 107.000000)">
                            <g id="分组-copy">
                                <g id="XMLID_134_">
                                    <use fill="black" fill-opacity="1" filter="url(#filter-2)" xlink:href="#path-1"></use>
                                    <use fill="#FFFFFF" fill-rule="evenodd" xlink:href="#path-1"></use>
                                </g>
                                <path d="M56.798,25.212 L69.202,25.212 L69.202,26.08 L63.294,26.08 L62.818,27.088 L68.264,27.088 L68.264,30.154 C68.264,30.966 67.844,31.386 67.018,31.386 L66.024,31.386 L65.8,30.518 L66.738,30.56 C67.102,30.56 67.284,30.35 67.284,29.944 L67.284,27.956 L65.03,27.956 L65.03,31.274 L64.064,31.274 L64.064,27.956 L61.992,27.956 L61.992,31.274 L61.026,31.274 L61.026,27.956 L58.926,27.956 L58.926,31.442 L57.974,31.442 L57.974,27.088 L61.796,27.088 L62.272,26.08 L56.798,26.08 L56.798,25.212 Z M57.652,19.038 L68.362,19.038 L68.362,19.864 L63.49,19.864 L63.49,20.746 L68.866,20.746 L68.866,23.63 L67.9,23.63 L67.9,21.544 L63.49,21.544 L63.49,24.638 L62.51,24.638 L62.51,21.544 L58.1,21.544 L58.1,23.63 L57.134,23.63 L57.134,20.746 L62.51,20.746 L62.51,19.864 L57.652,19.864 L57.652,19.038 Z M58.856,22.328 L61.768,22.328 L61.768,23 L58.856,23 L58.856,22.328 Z M58.856,23.728 L61.768,23.728 L61.768,24.4 L58.856,24.4 L58.856,23.728 Z M64.218,22.328 L67.116,22.328 L67.116,23 L64.218,23 L64.218,22.328 Z M64.232,23.728 L67.158,23.728 L67.158,24.4 L64.232,24.4 L64.232,23.728 Z M71.008,21.138 L76.58,21.138 L76.58,18.52 L77.616,18.52 L77.616,21.138 L80.78,21.138 C80.262,20.536 79.576,19.906 78.736,19.234 L79.394,18.618 C80.234,19.234 80.934,19.864 81.494,20.48 L80.836,21.138 L82.964,21.138 L82.964,22.104 L77.616,22.104 L77.616,22.916 C77.994,23.77 78.456,24.582 79.002,25.338 C79.996,24.582 80.85,23.728 81.564,22.776 L82.306,23.434 C81.536,24.428 80.612,25.296 79.534,26.038 C80.584,27.34 81.886,28.488 83.426,29.468 L82.726,30.294 C80.458,28.726 78.764,26.822 77.616,24.568 L77.616,30.014 C77.616,30.882 77.196,31.316 76.356,31.316 L74.466,31.316 L74.256,30.35 C74.872,30.392 75.446,30.42 76.006,30.42 C76.384,30.42 76.58,30.196 76.58,29.762 L76.58,25.94 C75.11,27.732 73.388,29.244 71.414,30.448 L70.868,29.538 C73.024,28.362 74.928,26.766 76.58,24.722 L76.58,22.104 L71.008,22.104 L71.008,21.138 Z M72.366,23.07 C73.318,23.91 74.116,24.764 74.76,25.604 L74.06,26.29 C73.486,25.492 72.688,24.638 71.666,23.728 L72.366,23.07 Z M86.254,18.828 C87.136,19.528 87.878,20.214 88.48,20.9 L87.794,21.6 C87.248,20.928 86.506,20.228 85.554,19.486 L86.254,18.828 Z M84.63,22.874 L87.556,22.874 L87.556,29.09 C88.06,28.67 88.606,28.194 89.18,27.648 L89.46,28.712 C88.578,29.538 87.64,30.266 86.66,30.91 L86.268,30.014 C86.464,29.818 86.576,29.608 86.576,29.384 L86.576,23.84 L84.63,23.84 L84.63,22.874 Z M89.6,24.512 L96.264,24.512 L96.264,25.436 C95.816,26.752 95.088,27.886 94.066,28.838 C95.018,29.496 96.18,30.07 97.552,30.574 L97.006,31.442 C95.55,30.854 94.318,30.196 93.338,29.44 C92.218,30.28 90.832,30.938 89.194,31.442 L88.634,30.588 C90.188,30.126 91.49,29.524 92.54,28.782 C91.476,27.802 90.762,26.71 90.37,25.492 L89.6,25.492 L89.6,24.512 Z M91.322,25.492 C91.686,26.5 92.33,27.41 93.254,28.208 C94.15,27.424 94.822,26.528 95.27,25.492 L91.322,25.492 Z M90.678,19.108 L95.382,19.108 L95.382,22.132 C95.382,22.482 95.564,22.664 95.928,22.664 L97.216,22.664 L97.216,23.588 L95.676,23.588 C94.808,23.588 94.388,23.168 94.388,22.342 L94.388,20.06 L91.672,20.06 L91.672,20.55 C91.672,22.034 90.944,23.182 89.516,23.994 L88.844,23.224 C90.062,22.622 90.678,21.768 90.678,20.662 L90.678,19.108 Z M103.012,22.762 L106.806,22.762 L106.806,18.548 L107.842,18.548 L107.842,22.762 L111.44,22.762 L111.44,23.77 L107.842,23.77 L107.842,31.428 L106.806,31.428 L106.806,23.77 L103.012,23.77 L103.012,22.762 Z M100.268,18.702 C101.22,19.416 102.018,20.13 102.662,20.858 L101.976,21.558 C101.388,20.872 100.576,20.144 99.568,19.388 L100.268,18.702 Z M98.63,22.846 L101.654,22.846 L101.654,29.076 C102.158,28.656 102.718,28.18 103.306,27.62 L103.558,28.656 C102.69,29.496 101.752,30.238 100.758,30.896 L100.366,29.986 C100.576,29.818 100.688,29.622 100.688,29.398 L100.688,23.812 L98.63,23.812 L98.63,22.846 Z" id="需求设计" fill="#444444" fill-rule="nonzero"></path>
                                <g id="设计" transform="translate(19.000000, 11.000000)">
                                    <g>
                                        <path d="M10.6715516,1.51607743 L17.5567975,1.51607743 C18.063813,1.51607743 18.4748303,1.93394499 18.4748303,2.44941076 L18.4748303,24.3827441 C18.4748303,24.8982099 18.063813,25.3160774 17.5567975,25.3160774 L10.6715516,25.3160774 C10.1645361,25.3160774 9.75351878,24.8982099 9.75351878,24.3827441 L9.75351878,2.44941076 C9.75351878,1.93394499 10.1645361,1.51607743 10.6715516,1.51607743 Z M11.5895844,3.38274409 L11.5895844,23.4494108 L16.6387647,23.4494108 L16.6387647,3.38274409 L11.5895844,3.38274409 Z" id="矩形" fill="#878787" fill-rule="nonzero" transform="translate(14.114175, 13.416077) rotate(-45.000000) translate(-14.114175, -13.416077) "></path>
                                        <g id="编组-2" transform="translate(12.333797, 15.339360) rotate(-315.000000) translate(-12.333797, -15.339360) translate(7.973141, 2.039360)">
                                            <path d="M7.1477935,22.3544293 C7.15549037,22.4257366 7.15943931,22.4981671 7.15943931,22.5715199 C7.15943931,23.0960778 6.95335502,23.5996383 6.58559564,23.973689 L4.42473117,26.1715199 L2.20139816,24.0034015 C1.74542704,23.558754 1.54707147,22.94952 1.60867049,22.3617327 C0.691457995,22.1797895 -2.72836524e-12,21.3706441 -2.72848411e-12,20.4 L-2.72848411e-12,2 C-2.72861938e-12,0.8954305 0.8954305,-4.54544445e-13 2,-4.54747351e-13 L6.72131148,-4.54747351e-13 C7.82588098,-4.54950257e-13 8.72131148,0.8954305 8.72131148,2 L8.72131148,20.4 C8.72131148,21.3582044 8.04746323,22.1590231 7.1477935,22.3544293 Z" id="形状结合" fill="#FFFFFF"></path>
                                            <path d="M4.42473117,26.1715199 L0.360529438,22.2082492 C0.141354785,22.037683 -3.91150135e-12,21.7689575 -3.91153776e-12,21.4666667 L-3.91153776e-12,0.933333333 C-3.91159985e-12,0.417867567 0.411017279,-1.46717606e-12 0.918032787,-1.46727075e-12 L7.80327869,-1.46727075e-12 C8.3102942,-1.46736544e-12 8.72131148,0.417867567 8.72131148,0.933333333 L8.72131148,21.4666667 C8.72131148,21.8185773 8.52974249,22.1249989 8.246843,22.2840223 L4.42473117,26.1715199 Z M6.8852459,1.86666667 L1.83606557,1.86666667 L1.83606557,21.0605953 L4.39768111,23.5585953 L6.8852459,21.0284752 L6.8852459,1.86666667 Z" id="形状结合" fill="#878787" fill-rule="nonzero"></path>
                                            <rect id="矩形" fill="#878787" x="1.37704918" y="19.6" width="5.96721311" height="1.86666667"></rect>
                                        </g>
                                    </g>
                                </g>
                                <g id="设计" transform="translate(18.000000, 11.000000)">
                                    <path d="M11.6715516,1.51607743 L18.5567975,1.51607743 C19.063813,1.51607743 19.4748303,1.93394499 19.4748303,2.44941076 L19.4748303,24.3827441 C19.4748303,24.8982099 19.063813,25.3160774 18.5567975,25.3160774 L11.6715516,25.3160774 C11.1645361,25.3160774 10.7535188,24.8982099 10.7535188,24.3827441 L10.7535188,2.44941076 C10.7535188,1.93394499 11.1645361,1.51607743 11.6715516,1.51607743 Z M12.5895844,3.38274409 L12.5895844,23.4494108 L17.6387647,23.4494108 L17.6387647,3.38274409 L12.5895844,3.38274409 Z" id="矩形" fill="#00A4FF" fill-rule="nonzero" transform="translate(15.114175, 13.416077) rotate(-45.000000) translate(-15.114175, -13.416077) "></path>
                                    <g id="编组-2" transform="translate(13.290907, 15.579313) rotate(-315.000000) translate(-13.290907, -15.579313) translate(8.790907, 2.079313)">
                                        <path d="M7.1477935,22.3544293 C7.15549037,22.4257366 7.15943931,22.4981671 7.15943931,22.5715199 C7.15943931,23.0960778 6.95335502,23.5996383 6.58559564,23.973689 L4.42473117,26.1715199 L2.20139816,24.0034015 C1.74542704,23.558754 1.54707147,22.94952 1.60867049,22.3617327 C0.691457995,22.1797895 -2.72836524e-12,21.3706441 -2.72848411e-12,20.4 L-2.72848411e-12,2 C-2.72861938e-12,0.8954305 0.8954305,-4.54544445e-13 2,-4.54747351e-13 L6.72131148,-4.54747351e-13 C7.82588098,-4.54950257e-13 8.72131148,0.8954305 8.72131148,2 L8.72131148,20.4 C8.72131148,21.3582044 8.04746323,22.1590231 7.1477935,22.3544293 Z" id="形状结合" fill="#FFFFFF"></path>
                                        <path d="M4.42473117,26.1715199 L0.360529438,22.2082492 C0.141354785,22.037683 -3.91150135e-12,21.7689575 -3.91153776e-12,21.4666667 L-3.91153776e-12,0.933333333 C-3.91159985e-12,0.417867567 0.411017279,-1.46717606e-12 0.918032787,-1.46727075e-12 L7.80327869,-1.46727075e-12 C8.3102942,-1.46736544e-12 8.72131148,0.417867567 8.72131148,0.933333333 L8.72131148,21.4666667 C8.72131148,21.8185773 8.52974249,22.1249989 8.246843,22.2840223 L4.42473117,26.1715199 Z M6.8852459,1.86666667 L1.83606557,1.86666667 L1.83606557,21.0605953 L4.39768111,23.5585953 L6.8852459,21.0284752 L6.8852459,1.86666667 Z" id="形状结合" fill="#00A4FF" fill-rule="nonzero"></path>
                                        <rect id="矩形" fill="#00A4FF" x="1.37704918" y="19.6" width="5.96721311" height="1.86666667"></rect>
                                    </g>
                                </g>
                            </g>
                        </g>
                        <g id="XMLID_25_复制-11" transform="translate(452.000000, 107.000000)">
                            <g id="分组-copy">
                                <g id="XMLID_134_">
                                    <use fill="black" fill-opacity="1" filter="url(#filter-4)" xlink:href="#path-3"></use>
                                    <use fill="#FFFFFF" fill-rule="evenodd" xlink:href="#path-3"></use>
                                </g>
                                <path d="M56.798,25.212 L69.202,25.212 L69.202,26.08 L63.294,26.08 L62.818,27.088 L68.264,27.088 L68.264,30.154 C68.264,30.966 67.844,31.386 67.018,31.386 L66.024,31.386 L65.8,30.518 L66.738,30.56 C67.102,30.56 67.284,30.35 67.284,29.944 L67.284,27.956 L65.03,27.956 L65.03,31.274 L64.064,31.274 L64.064,27.956 L61.992,27.956 L61.992,31.274 L61.026,31.274 L61.026,27.956 L58.926,27.956 L58.926,31.442 L57.974,31.442 L57.974,27.088 L61.796,27.088 L62.272,26.08 L56.798,26.08 L56.798,25.212 Z M57.652,19.038 L68.362,19.038 L68.362,19.864 L63.49,19.864 L63.49,20.746 L68.866,20.746 L68.866,23.63 L67.9,23.63 L67.9,21.544 L63.49,21.544 L63.49,24.638 L62.51,24.638 L62.51,21.544 L58.1,21.544 L58.1,23.63 L57.134,23.63 L57.134,20.746 L62.51,20.746 L62.51,19.864 L57.652,19.864 L57.652,19.038 Z M58.856,22.328 L61.768,22.328 L61.768,23 L58.856,23 L58.856,22.328 Z M58.856,23.728 L61.768,23.728 L61.768,24.4 L58.856,24.4 L58.856,23.728 Z M64.218,22.328 L67.116,22.328 L67.116,23 L64.218,23 L64.218,22.328 Z M64.232,23.728 L67.158,23.728 L67.158,24.4 L64.232,24.4 L64.232,23.728 Z M71.008,21.138 L76.58,21.138 L76.58,18.52 L77.616,18.52 L77.616,21.138 L80.78,21.138 C80.262,20.536 79.576,19.906 78.736,19.234 L79.394,18.618 C80.234,19.234 80.934,19.864 81.494,20.48 L80.836,21.138 L82.964,21.138 L82.964,22.104 L77.616,22.104 L77.616,22.916 C77.994,23.77 78.456,24.582 79.002,25.338 C79.996,24.582 80.85,23.728 81.564,22.776 L82.306,23.434 C81.536,24.428 80.612,25.296 79.534,26.038 C80.584,27.34 81.886,28.488 83.426,29.468 L82.726,30.294 C80.458,28.726 78.764,26.822 77.616,24.568 L77.616,30.014 C77.616,30.882 77.196,31.316 76.356,31.316 L74.466,31.316 L74.256,30.35 C74.872,30.392 75.446,30.42 76.006,30.42 C76.384,30.42 76.58,30.196 76.58,29.762 L76.58,25.94 C75.11,27.732 73.388,29.244 71.414,30.448 L70.868,29.538 C73.024,28.362 74.928,26.766 76.58,24.722 L76.58,22.104 L71.008,22.104 L71.008,21.138 Z M72.366,23.07 C73.318,23.91 74.116,24.764 74.76,25.604 L74.06,26.29 C73.486,25.492 72.688,24.638 71.666,23.728 L72.366,23.07 Z M85.568,19.402 L96.474,19.402 L96.474,20.382 L94.136,20.382 L94.136,24.092 L97.202,24.092 L97.202,25.058 L94.136,25.058 L94.136,31.26 L93.114,31.26 L93.114,25.058 L89.068,25.058 C88.942,26.5 88.676,27.69 88.256,28.642 C87.724,29.818 86.842,30.728 85.61,31.372 L85.064,30.504 C86.198,29.86 86.996,29.006 87.444,27.942 C87.738,27.13 87.934,26.178 88.046,25.058 L84.812,25.058 L84.812,24.092 L88.102,24.092 C88.102,23.91 88.116,23.742 88.116,23.602 L88.116,20.382 L85.568,20.382 L85.568,19.402 Z M89.152,20.382 L89.152,23.602 C89.152,23.77 89.138,23.938 89.138,24.092 L93.114,24.092 L93.114,20.382 L89.152,20.382 Z M99.624,22.86 L100.73,18.968 L101.724,19.136 L100.926,21.894 L103.376,21.894 C103.656,20.802 103.88,19.668 104.048,18.464 L105.07,18.59 C104.888,19.766 104.664,20.858 104.412,21.894 L110.964,21.894 L110.964,22.86 L104.146,22.86 C103.978,23.42 103.81,23.952 103.614,24.456 L109.34,24.456 L109.34,25.324 C108.962,26.528 108.206,27.62 107.058,28.6 C108.192,29.272 109.578,29.888 111.202,30.448 L110.684,31.386 C108.892,30.728 107.408,30.014 106.232,29.244 C105.084,30.056 103.656,30.784 101.962,31.442 L101.43,30.504 C102.998,29.93 104.3,29.3 105.35,28.614 C104.258,27.774 103.488,26.864 103.026,25.884 C102.004,28.096 100.688,29.846 99.092,31.148 L98.574,30.224 C100.618,28.432 102.116,25.982 103.096,22.86 L99.624,22.86 Z M103.782,25.38 C104.258,26.332 105.056,27.214 106.176,28.026 C107.212,27.214 107.926,26.332 108.318,25.38 L103.782,25.38 Z M107.422,18.576 C108.43,19.346 109.256,20.116 109.928,20.886 L109.214,21.6 C108.626,20.858 107.8,20.074 106.75,19.234 L107.422,18.576 Z" id="需求开发" fill="#444444" fill-rule="nonzero"></path>
                                <g id="编组-7" transform="translate(20.000000, 14.000000)" fill-rule="nonzero" stroke="#00A4FF" stroke-width="2">
                                    <rect id="矩形" x="1" y="1" width="24" height="20"></rect>
                                    <polyline id="路径-6" points="9.29980989 15.7778633 6 11.3889316 9.29980989 7"></polyline>
                                    <path d="M16.7134538,15.5 C13.1054046,15.5 11.3013801,15.5 11.3013801,15.5" id="路径-6复制-2"></path>
                                </g>
                            </g>
                        </g>
                        <g id="XMLID_25_复制-12" transform="translate(627.000000, 107.000000)">
                            <g id="分组-copy">
                                <g id="XMLID_134_">
                                    <use fill="black" fill-opacity="1" filter="url(#filter-6)" xlink:href="#path-5"></use>
                                    <use fill="#FFFFFF" fill-rule="evenodd" xlink:href="#path-5"></use>
                                </g>
                                <path d="M56.798,25.212 L69.202,25.212 L69.202,26.08 L63.294,26.08 L62.818,27.088 L68.264,27.088 L68.264,30.154 C68.264,30.966 67.844,31.386 67.018,31.386 L66.024,31.386 L65.8,30.518 L66.738,30.56 C67.102,30.56 67.284,30.35 67.284,29.944 L67.284,27.956 L65.03,27.956 L65.03,31.274 L64.064,31.274 L64.064,27.956 L61.992,27.956 L61.992,31.274 L61.026,31.274 L61.026,27.956 L58.926,27.956 L58.926,31.442 L57.974,31.442 L57.974,27.088 L61.796,27.088 L62.272,26.08 L56.798,26.08 L56.798,25.212 Z M57.652,19.038 L68.362,19.038 L68.362,19.864 L63.49,19.864 L63.49,20.746 L68.866,20.746 L68.866,23.63 L67.9,23.63 L67.9,21.544 L63.49,21.544 L63.49,24.638 L62.51,24.638 L62.51,21.544 L58.1,21.544 L58.1,23.63 L57.134,23.63 L57.134,20.746 L62.51,20.746 L62.51,19.864 L57.652,19.864 L57.652,19.038 Z M58.856,22.328 L61.768,22.328 L61.768,23 L58.856,23 L58.856,22.328 Z M58.856,23.728 L61.768,23.728 L61.768,24.4 L58.856,24.4 L58.856,23.728 Z M64.218,22.328 L67.116,22.328 L67.116,23 L64.218,23 L64.218,22.328 Z M64.232,23.728 L67.158,23.728 L67.158,24.4 L64.232,24.4 L64.232,23.728 Z M71.008,21.138 L76.58,21.138 L76.58,18.52 L77.616,18.52 L77.616,21.138 L80.78,21.138 C80.262,20.536 79.576,19.906 78.736,19.234 L79.394,18.618 C80.234,19.234 80.934,19.864 81.494,20.48 L80.836,21.138 L82.964,21.138 L82.964,22.104 L77.616,22.104 L77.616,22.916 C77.994,23.77 78.456,24.582 79.002,25.338 C79.996,24.582 80.85,23.728 81.564,22.776 L82.306,23.434 C81.536,24.428 80.612,25.296 79.534,26.038 C80.584,27.34 81.886,28.488 83.426,29.468 L82.726,30.294 C80.458,28.726 78.764,26.822 77.616,24.568 L77.616,30.014 C77.616,30.882 77.196,31.316 76.356,31.316 L74.466,31.316 L74.256,30.35 C74.872,30.392 75.446,30.42 76.006,30.42 C76.384,30.42 76.58,30.196 76.58,29.762 L76.58,25.94 C75.11,27.732 73.388,29.244 71.414,30.448 L70.868,29.538 C73.024,28.362 74.928,26.766 76.58,24.722 L76.58,22.104 L71.008,22.104 L71.008,21.138 Z M72.366,23.07 C73.318,23.91 74.116,24.764 74.76,25.604 L74.06,26.29 C73.486,25.492 72.688,24.638 71.666,23.728 L72.366,23.07 Z M96.922,20.06 L96.922,23.196 L95.9,23.196 L95.9,21.04 L86.072,21.04 L86.072,23.196 L85.05,23.196 L85.05,20.06 L90.426,20.06 C90.258,19.584 90.09,19.15 89.894,18.758 L91.028,18.562 C91.21,19.01 91.392,19.5 91.56,20.06 L96.922,20.06 Z M87.052,22.664 L94.892,22.664 L94.892,23.644 L87.052,23.644 L87.052,22.664 Z M84.91,25.296 L97.104,25.296 L97.104,26.262 L93.142,26.262 L93.142,29.58 C93.142,30 93.338,30.224 93.744,30.224 L95.606,30.224 C95.858,30.224 96.026,30.126 96.124,29.944 C96.236,29.734 96.32,29.104 96.376,28.04 L97.328,28.348 C97.244,29.692 97.076,30.518 96.824,30.798 C96.6,31.05 96.264,31.19 95.788,31.19 L93.422,31.19 C92.554,31.19 92.134,30.714 92.134,29.79 L92.134,26.262 L89.782,26.262 L89.782,26.36 C89.74,27.732 89.362,28.838 88.662,29.678 C87.962,30.434 86.828,31.036 85.26,31.47 L84.686,30.574 C86.212,30.182 87.276,29.664 87.892,29.006 C88.452,28.334 88.746,27.452 88.788,26.36 L88.788,26.262 L84.91,26.262 L84.91,25.296 Z M108.416,18.52 C109.088,19.024 109.662,19.542 110.138,20.06 L109.494,20.704 L111.202,20.704 L111.202,21.67 L106.89,21.67 C106.988,23.406 107.17,24.778 107.422,25.786 C107.506,26.136 107.604,26.458 107.702,26.766 C108.402,25.646 108.962,24.33 109.396,22.832 L110.306,23.224 C109.746,25.072 109.018,26.64 108.122,27.9 C108.318,28.348 108.528,28.74 108.752,29.062 C109.214,29.734 109.592,30.07 109.872,30.07 C110.124,30.056 110.362,29.328 110.572,27.886 L111.482,28.39 C111.146,30.252 110.67,31.19 110.04,31.19 C109.452,31.19 108.822,30.77 108.15,29.93 C107.898,29.594 107.66,29.202 107.45,28.768 C106.47,29.916 105.322,30.77 104.006,31.358 L103.446,30.518 C104.846,29.888 106.036,28.964 107.002,27.746 C106.806,27.228 106.624,26.668 106.47,26.066 C106.162,24.89 105.966,23.42 105.854,21.67 L101.052,21.67 L101.052,23.994 L104.482,23.994 C104.454,26.36 104.342,27.886 104.16,28.572 C103.978,29.174 103.544,29.482 102.844,29.51 C102.508,29.51 102.102,29.482 101.654,29.454 L101.346,28.544 C101.892,28.572 102.354,28.586 102.732,28.586 C103.04,28.572 103.236,28.362 103.32,27.97 C103.404,27.494 103.446,26.486 103.474,24.946 L101.052,24.946 L101.052,25.366 C100.996,27.872 100.436,29.888 99.4,31.4 L98.63,30.714 C99.526,29.426 99.988,27.648 100.03,25.366 L100.03,20.704 L105.812,20.704 C105.784,20.004 105.77,19.29 105.77,18.534 L106.806,18.534 C106.806,19.318 106.82,20.032 106.848,20.704 L109.466,20.704 C109.046,20.2 108.486,19.682 107.772,19.136 L108.416,18.52 Z" id="需求完成" fill="#444444" fill-rule="nonzero"></path>
                                <g id="编组-7" transform="translate(20.000000, 12.000000)" fill-rule="nonzero" stroke="#00A4FF" stroke-width="2">
                                    <rect id="矩形" x="1" y="1" width="24" height="24" rx="12"></rect>
                                    <polyline id="路径-6" transform="translate(12.558712, 13.327836) rotate(-90.000000) translate(-12.558712, -13.327836) " points="16.281217 18.8865477 8.83620669 11.6565712 12.7236539 7.76912396"></polyline>
                                </g>
                            </g>
                        </g>
                        <g id="XMLID_25_复制">
                            <g id="分组-copy">
                                <rect id="XMLID_134_" fill="#EAEBEC" x="0" y="0" width="234" height="264"></rect>
                                <text id="计划中" font-family="PingFangSC-Regular, PingFang SC" font-size="14" font-weight="normal" fill="#444444">
                                    <tspan x="14" y="28">计划中</tspan>
                                </text>
                                <g id="XMLID_25_复制-8" transform="translate(15.000000, 44.000000)">
                                    <g id="分组-copy" transform="translate(0.000000, 40.000000)">
                                        <g id="XMLID_134_">
                                            <use fill="black" fill-opacity="1" filter="url(#filter-8)" xlink:href="#path-7"></use>
                                            <use fill="#FFFFFF" fill-rule="evenodd" xlink:href="#path-7"></use>
                                        </g>
                                        <path d="M21.798,25.212 L34.202,25.212 L34.202,26.08 L28.294,26.08 L27.818,27.088 L33.264,27.088 L33.264,30.154 C33.264,30.966 32.844,31.386 32.018,31.386 L31.024,31.386 L30.8,30.518 L31.738,30.56 C32.102,30.56 32.284,30.35 32.284,29.944 L32.284,27.956 L30.03,27.956 L30.03,31.274 L29.064,31.274 L29.064,27.956 L26.992,27.956 L26.992,31.274 L26.026,31.274 L26.026,27.956 L23.926,27.956 L23.926,31.442 L22.974,31.442 L22.974,27.088 L26.796,27.088 L27.272,26.08 L21.798,26.08 L21.798,25.212 Z M22.652,19.038 L33.362,19.038 L33.362,19.864 L28.49,19.864 L28.49,20.746 L33.866,20.746 L33.866,23.63 L32.9,23.63 L32.9,21.544 L28.49,21.544 L28.49,24.638 L27.51,24.638 L27.51,21.544 L23.1,21.544 L23.1,23.63 L22.134,23.63 L22.134,20.746 L27.51,20.746 L27.51,19.864 L22.652,19.864 L22.652,19.038 Z M23.856,22.328 L26.768,22.328 L26.768,23 L23.856,23 L23.856,22.328 Z M23.856,23.728 L26.768,23.728 L26.768,24.4 L23.856,24.4 L23.856,23.728 Z M29.218,22.328 L32.116,22.328 L32.116,23 L29.218,23 L29.218,22.328 Z M29.232,23.728 L32.158,23.728 L32.158,24.4 L29.232,24.4 L29.232,23.728 Z M36.008,21.138 L41.58,21.138 L41.58,18.52 L42.616,18.52 L42.616,21.138 L45.78,21.138 C45.262,20.536 44.576,19.906 43.736,19.234 L44.394,18.618 C45.234,19.234 45.934,19.864 46.494,20.48 L45.836,21.138 L47.964,21.138 L47.964,22.104 L42.616,22.104 L42.616,22.916 C42.994,23.77 43.456,24.582 44.002,25.338 C44.996,24.582 45.85,23.728 46.564,22.776 L47.306,23.434 C46.536,24.428 45.612,25.296 44.534,26.038 C45.584,27.34 46.886,28.488 48.426,29.468 L47.726,30.294 C45.458,28.726 43.764,26.822 42.616,24.568 L42.616,30.014 C42.616,30.882 42.196,31.316 41.356,31.316 L39.466,31.316 L39.256,30.35 C39.872,30.392 40.446,30.42 41.006,30.42 C41.384,30.42 41.58,30.196 41.58,29.762 L41.58,25.94 C40.11,27.732 38.388,29.244 36.414,30.448 L35.868,29.538 C38.024,28.362 39.928,26.766 41.58,24.722 L41.58,22.104 L36.008,22.104 L36.008,21.138 Z M37.366,23.07 C38.318,23.91 39.116,24.764 39.76,25.604 L39.06,26.29 C38.486,25.492 37.688,24.638 36.666,23.728 L37.366,23.07 Z M56.882,20.004 L57.778,20.004 L57.778,30 L56.63,30 L56.63,21.404 C56,22.048 55.216,22.496 54.278,22.776 L54.278,21.628 C54.726,21.502 55.202,21.306 55.678,21.026 C56.154,20.718 56.546,20.382 56.882,20.004 Z" id="需求1" fill="#444444" fill-rule="nonzero"></path>
                                    </g>
                                    <g id="分组-copy复制" transform="translate(0.000000, 151.000000)">
                                        <g id="XMLID_134_">
                                            <use fill="black" fill-opacity="1" filter="url(#filter-10)" xlink:href="#path-9"></use>
                                            <use fill="#FFFFFF" fill-rule="evenodd" xlink:href="#path-9"></use>
                                        </g>
                                        <path d="M19.798,25.212 L32.202,25.212 L32.202,26.08 L26.294,26.08 L25.818,27.088 L31.264,27.088 L31.264,30.154 C31.264,30.966 30.844,31.386 30.018,31.386 L29.024,31.386 L28.8,30.518 L29.738,30.56 C30.102,30.56 30.284,30.35 30.284,29.944 L30.284,27.956 L28.03,27.956 L28.03,31.274 L27.064,31.274 L27.064,27.956 L24.992,27.956 L24.992,31.274 L24.026,31.274 L24.026,27.956 L21.926,27.956 L21.926,31.442 L20.974,31.442 L20.974,27.088 L24.796,27.088 L25.272,26.08 L19.798,26.08 L19.798,25.212 Z M20.652,19.038 L31.362,19.038 L31.362,19.864 L26.49,19.864 L26.49,20.746 L31.866,20.746 L31.866,23.63 L30.9,23.63 L30.9,21.544 L26.49,21.544 L26.49,24.638 L25.51,24.638 L25.51,21.544 L21.1,21.544 L21.1,23.63 L20.134,23.63 L20.134,20.746 L25.51,20.746 L25.51,19.864 L20.652,19.864 L20.652,19.038 Z M21.856,22.328 L24.768,22.328 L24.768,23 L21.856,23 L21.856,22.328 Z M21.856,23.728 L24.768,23.728 L24.768,24.4 L21.856,24.4 L21.856,23.728 Z M27.218,22.328 L30.116,22.328 L30.116,23 L27.218,23 L27.218,22.328 Z M27.232,23.728 L30.158,23.728 L30.158,24.4 L27.232,24.4 L27.232,23.728 Z M34.008,21.138 L39.58,21.138 L39.58,18.52 L40.616,18.52 L40.616,21.138 L43.78,21.138 C43.262,20.536 42.576,19.906 41.736,19.234 L42.394,18.618 C43.234,19.234 43.934,19.864 44.494,20.48 L43.836,21.138 L45.964,21.138 L45.964,22.104 L40.616,22.104 L40.616,22.916 C40.994,23.77 41.456,24.582 42.002,25.338 C42.996,24.582 43.85,23.728 44.564,22.776 L45.306,23.434 C44.536,24.428 43.612,25.296 42.534,26.038 C43.584,27.34 44.886,28.488 46.426,29.468 L45.726,30.294 C43.458,28.726 41.764,26.822 40.616,24.568 L40.616,30.014 C40.616,30.882 40.196,31.316 39.356,31.316 L37.466,31.316 L37.256,30.35 C37.872,30.392 38.446,30.42 39.006,30.42 C39.384,30.42 39.58,30.196 39.58,29.762 L39.58,25.94 C38.11,27.732 36.388,29.244 34.414,30.448 L33.868,29.538 C36.024,28.362 37.928,26.766 39.58,24.722 L39.58,22.104 L34.008,22.104 L34.008,21.138 Z M35.366,23.07 C36.318,23.91 37.116,24.764 37.76,25.604 L37.06,26.29 C36.486,25.492 35.688,24.638 34.666,23.728 L35.366,23.07 Z M56.002,19.808 C56.926,19.808 57.682,20.074 58.284,20.606 C58.872,21.138 59.18,21.852 59.18,22.72 C59.18,23.588 58.844,24.372 58.2,25.072 C57.85,25.436 57.164,25.982 56.128,26.682 C54.854,27.536 54.126,28.306 53.944,28.978 L59.194,28.978 L59.194,30 L52.53,30 C52.53,29.09 52.852,28.264 53.524,27.522 C53.916,27.074 54.63,26.472 55.694,25.744 C56.478,25.184 56.996,24.778 57.262,24.498 C57.766,23.952 58.032,23.35 58.032,22.706 C58.032,22.09 57.85,21.628 57.486,21.292 C57.122,20.956 56.604,20.788 55.96,20.788 C55.274,20.788 54.742,21.012 54.378,21.488 C53.986,21.936 53.776,22.608 53.762,23.49 L52.614,23.49 C52.614,22.37 52.936,21.474 53.552,20.816 C54.168,20.144 54.994,19.808 56.002,19.808 Z" id="需求2" fill="#444444" fill-rule="nonzero"></path>
                                    </g>
                                    <g id="分组-copy复制-4" transform="translate(124.000000, 151.000000)">
                                        <g id="XMLID_134_">
                                            <use fill="black" fill-opacity="1" filter="url(#filter-12)" xlink:href="#path-11"></use>
                                            <use fill="#FFFFFF" fill-rule="evenodd" xlink:href="#path-11"></use>
                                        </g>
                                        <path d="M19.798,25.212 L32.202,25.212 L32.202,26.08 L26.294,26.08 L25.818,27.088 L31.264,27.088 L31.264,30.154 C31.264,30.966 30.844,31.386 30.018,31.386 L29.024,31.386 L28.8,30.518 L29.738,30.56 C30.102,30.56 30.284,30.35 30.284,29.944 L30.284,27.956 L28.03,27.956 L28.03,31.274 L27.064,31.274 L27.064,27.956 L24.992,27.956 L24.992,31.274 L24.026,31.274 L24.026,27.956 L21.926,27.956 L21.926,31.442 L20.974,31.442 L20.974,27.088 L24.796,27.088 L25.272,26.08 L19.798,26.08 L19.798,25.212 Z M20.652,19.038 L31.362,19.038 L31.362,19.864 L26.49,19.864 L26.49,20.746 L31.866,20.746 L31.866,23.63 L30.9,23.63 L30.9,21.544 L26.49,21.544 L26.49,24.638 L25.51,24.638 L25.51,21.544 L21.1,21.544 L21.1,23.63 L20.134,23.63 L20.134,20.746 L25.51,20.746 L25.51,19.864 L20.652,19.864 L20.652,19.038 Z M21.856,22.328 L24.768,22.328 L24.768,23 L21.856,23 L21.856,22.328 Z M21.856,23.728 L24.768,23.728 L24.768,24.4 L21.856,24.4 L21.856,23.728 Z M27.218,22.328 L30.116,22.328 L30.116,23 L27.218,23 L27.218,22.328 Z M27.232,23.728 L30.158,23.728 L30.158,24.4 L27.232,24.4 L27.232,23.728 Z M34.008,21.138 L39.58,21.138 L39.58,18.52 L40.616,18.52 L40.616,21.138 L43.78,21.138 C43.262,20.536 42.576,19.906 41.736,19.234 L42.394,18.618 C43.234,19.234 43.934,19.864 44.494,20.48 L43.836,21.138 L45.964,21.138 L45.964,22.104 L40.616,22.104 L40.616,22.916 C40.994,23.77 41.456,24.582 42.002,25.338 C42.996,24.582 43.85,23.728 44.564,22.776 L45.306,23.434 C44.536,24.428 43.612,25.296 42.534,26.038 C43.584,27.34 44.886,28.488 46.426,29.468 L45.726,30.294 C43.458,28.726 41.764,26.822 40.616,24.568 L40.616,30.014 C40.616,30.882 40.196,31.316 39.356,31.316 L37.466,31.316 L37.256,30.35 C37.872,30.392 38.446,30.42 39.006,30.42 C39.384,30.42 39.58,30.196 39.58,29.762 L39.58,25.94 C38.11,27.732 36.388,29.244 34.414,30.448 L33.868,29.538 C36.024,28.362 37.928,26.766 39.58,24.722 L39.58,22.104 L34.008,22.104 L34.008,21.138 Z M35.366,23.07 C36.318,23.91 37.116,24.764 37.76,25.604 L37.06,26.29 C36.486,25.492 35.688,24.638 34.666,23.728 L35.366,23.07 Z M56.002,19.808 C56.926,19.808 57.682,20.074 58.284,20.606 C58.872,21.138 59.18,21.852 59.18,22.72 C59.18,23.588 58.844,24.372 58.2,25.072 C57.85,25.436 57.164,25.982 56.128,26.682 C54.854,27.536 54.126,28.306 53.944,28.978 L59.194,28.978 L59.194,30 L52.53,30 C52.53,29.09 52.852,28.264 53.524,27.522 C53.916,27.074 54.63,26.472 55.694,25.744 C56.478,25.184 56.996,24.778 57.262,24.498 C57.766,23.952 58.032,23.35 58.032,22.706 C58.032,22.09 57.85,21.628 57.486,21.292 C57.122,20.956 56.604,20.788 55.96,20.788 C55.274,20.788 54.742,21.012 54.378,21.488 C53.986,21.936 53.776,22.608 53.762,23.49 L52.614,23.49 C52.614,22.37 52.936,21.474 53.552,20.816 C54.168,20.144 54.994,19.808 56.002,19.808 Z" id="需求2" fill="#444444" fill-rule="nonzero"></path>
                                    </g>
                                    <g id="分组-copy复制-2" transform="translate(124.000000, 81.000000)">
                                        <g id="XMLID_134_">
                                            <use fill="black" fill-opacity="1" filter="url(#filter-14)" xlink:href="#path-13"></use>
                                            <use fill="#FFFFFF" fill-rule="evenodd" xlink:href="#path-13"></use>
                                        </g>
                                        <path d="M12.798,25.212 L25.202,25.212 L25.202,26.08 L19.294,26.08 L18.818,27.088 L24.264,27.088 L24.264,30.154 C24.264,30.966 23.844,31.386 23.018,31.386 L22.024,31.386 L21.8,30.518 L22.738,30.56 C23.102,30.56 23.284,30.35 23.284,29.944 L23.284,27.956 L21.03,27.956 L21.03,31.274 L20.064,31.274 L20.064,27.956 L17.992,27.956 L17.992,31.274 L17.026,31.274 L17.026,27.956 L14.926,27.956 L14.926,31.442 L13.974,31.442 L13.974,27.088 L17.796,27.088 L18.272,26.08 L12.798,26.08 L12.798,25.212 Z M13.652,19.038 L24.362,19.038 L24.362,19.864 L19.49,19.864 L19.49,20.746 L24.866,20.746 L24.866,23.63 L23.9,23.63 L23.9,21.544 L19.49,21.544 L19.49,24.638 L18.51,24.638 L18.51,21.544 L14.1,21.544 L14.1,23.63 L13.134,23.63 L13.134,20.746 L18.51,20.746 L18.51,19.864 L13.652,19.864 L13.652,19.038 Z M14.856,22.328 L17.768,22.328 L17.768,23 L14.856,23 L14.856,22.328 Z M14.856,23.728 L17.768,23.728 L17.768,24.4 L14.856,24.4 L14.856,23.728 Z M20.218,22.328 L23.116,22.328 L23.116,23 L20.218,23 L20.218,22.328 Z M20.232,23.728 L23.158,23.728 L23.158,24.4 L20.232,24.4 L20.232,23.728 Z M27.008,21.138 L32.58,21.138 L32.58,18.52 L33.616,18.52 L33.616,21.138 L36.78,21.138 C36.262,20.536 35.576,19.906 34.736,19.234 L35.394,18.618 C36.234,19.234 36.934,19.864 37.494,20.48 L36.836,21.138 L38.964,21.138 L38.964,22.104 L33.616,22.104 L33.616,22.916 C33.994,23.77 34.456,24.582 35.002,25.338 C35.996,24.582 36.85,23.728 37.564,22.776 L38.306,23.434 C37.536,24.428 36.612,25.296 35.534,26.038 C36.584,27.34 37.886,28.488 39.426,29.468 L38.726,30.294 C36.458,28.726 34.764,26.822 33.616,24.568 L33.616,30.014 C33.616,30.882 33.196,31.316 32.356,31.316 L30.466,31.316 L30.256,30.35 C30.872,30.392 31.446,30.42 32.006,30.42 C32.384,30.42 32.58,30.196 32.58,29.762 L32.58,25.94 C31.11,27.732 29.388,29.244 27.414,30.448 L26.868,29.538 C29.024,28.362 30.928,26.766 32.58,24.722 L32.58,22.104 L27.008,22.104 L27.008,21.138 Z M28.366,23.07 C29.318,23.91 30.116,24.764 30.76,25.604 L30.06,26.29 C29.486,25.492 28.688,24.638 27.666,23.728 L28.366,23.07 Z M47.882,20.004 L48.778,20.004 L48.778,30 L47.63,30 L47.63,21.404 C47,22.048 46.216,22.496 45.278,22.776 L45.278,21.628 C45.726,21.502 46.202,21.306 46.678,21.026 C47.154,20.718 47.546,20.382 47.882,20.004 Z M50.976,25.898 L58.046,25.898 L58.046,26.85 L50.976,26.85 L50.976,25.898 Z M63.086,19.808 C64.01,19.808 64.766,20.074 65.368,20.606 C65.956,21.138 66.264,21.852 66.264,22.72 C66.264,23.588 65.928,24.372 65.284,25.072 C64.934,25.436 64.248,25.982 63.212,26.682 C61.938,27.536 61.21,28.306 61.028,28.978 L66.278,28.978 L66.278,30 L59.614,30 C59.614,29.09 59.936,28.264 60.608,27.522 C61,27.074 61.714,26.472 62.778,25.744 C63.562,25.184 64.08,24.778 64.346,24.498 C64.85,23.952 65.116,23.35 65.116,22.706 C65.116,22.09 64.934,21.628 64.57,21.292 C64.206,20.956 63.688,20.788 63.044,20.788 C62.358,20.788 61.826,21.012 61.462,21.488 C61.07,21.936 60.86,22.608 60.846,23.49 L59.698,23.49 C59.698,22.37 60.02,21.474 60.636,20.816 C61.252,20.144 62.078,19.808 63.086,19.808 Z" id="需求1-2" fill="#444444" fill-rule="nonzero"></path>
                                    </g>
                                    <g id="分组" transform="translate(97.500000, 65.500000) rotate(-180.000000) translate(-97.500000, -65.500000) translate(80.000000, 21.000000)">
                                        <polygon id="Fill-3" fill="#878787" transform="translate(2.500000, 84.500000) rotate(-180.000000) translate(-2.500000, -84.500000) " points="0 89 5 84.5 0 80"></polygon>
                                        <polygon id="Fill-3复制" fill="#878787" transform="translate(2.500000, 4.500000) rotate(-180.000000) translate(-2.500000, -4.500000) " points="0 9 5 4.5 0 9.09494702e-13"></polygon>
                                        <path d="M34.8843088,44.4998 L17.5102761,44.4998" id="Stroke-5" stroke="#878787"></path>
                                        <path d="M18,4.5 L1.51027606,4.5" id="Stroke-6" stroke="#878787"></path>
                                        <polyline id="Stroke-7" stroke="#878787" points="1.51027606 84.0617385 17.5030232 84.0027795 17.5102761 4.06173853"></polyline>
                                    </g>
                                    <g id="分组-copy复制-3" transform="translate(124.000000, 0.000000)">
                                        <g id="XMLID_134_">
                                            <use fill="black" fill-opacity="1" filter="url(#filter-16)" xlink:href="#path-15"></use>
                                            <use fill="#FFFFFF" fill-rule="evenodd" xlink:href="#path-15"></use>
                                        </g>
                                        <path d="M14.798,25.212 L27.202,25.212 L27.202,26.08 L21.294,26.08 L20.818,27.088 L26.264,27.088 L26.264,30.154 C26.264,30.966 25.844,31.386 25.018,31.386 L24.024,31.386 L23.8,30.518 L24.738,30.56 C25.102,30.56 25.284,30.35 25.284,29.944 L25.284,27.956 L23.03,27.956 L23.03,31.274 L22.064,31.274 L22.064,27.956 L19.992,27.956 L19.992,31.274 L19.026,31.274 L19.026,27.956 L16.926,27.956 L16.926,31.442 L15.974,31.442 L15.974,27.088 L19.796,27.088 L20.272,26.08 L14.798,26.08 L14.798,25.212 Z M15.652,19.038 L26.362,19.038 L26.362,19.864 L21.49,19.864 L21.49,20.746 L26.866,20.746 L26.866,23.63 L25.9,23.63 L25.9,21.544 L21.49,21.544 L21.49,24.638 L20.51,24.638 L20.51,21.544 L16.1,21.544 L16.1,23.63 L15.134,23.63 L15.134,20.746 L20.51,20.746 L20.51,19.864 L15.652,19.864 L15.652,19.038 Z M16.856,22.328 L19.768,22.328 L19.768,23 L16.856,23 L16.856,22.328 Z M16.856,23.728 L19.768,23.728 L19.768,24.4 L16.856,24.4 L16.856,23.728 Z M22.218,22.328 L25.116,22.328 L25.116,23 L22.218,23 L22.218,22.328 Z M22.232,23.728 L25.158,23.728 L25.158,24.4 L22.232,24.4 L22.232,23.728 Z M29.008,21.138 L34.58,21.138 L34.58,18.52 L35.616,18.52 L35.616,21.138 L38.78,21.138 C38.262,20.536 37.576,19.906 36.736,19.234 L37.394,18.618 C38.234,19.234 38.934,19.864 39.494,20.48 L38.836,21.138 L40.964,21.138 L40.964,22.104 L35.616,22.104 L35.616,22.916 C35.994,23.77 36.456,24.582 37.002,25.338 C37.996,24.582 38.85,23.728 39.564,22.776 L40.306,23.434 C39.536,24.428 38.612,25.296 37.534,26.038 C38.584,27.34 39.886,28.488 41.426,29.468 L40.726,30.294 C38.458,28.726 36.764,26.822 35.616,24.568 L35.616,30.014 C35.616,30.882 35.196,31.316 34.356,31.316 L32.466,31.316 L32.256,30.35 C32.872,30.392 33.446,30.42 34.006,30.42 C34.384,30.42 34.58,30.196 34.58,29.762 L34.58,25.94 C33.11,27.732 31.388,29.244 29.414,30.448 L28.868,29.538 C31.024,28.362 32.928,26.766 34.58,24.722 L34.58,22.104 L29.008,22.104 L29.008,21.138 Z M30.366,23.07 C31.318,23.91 32.116,24.764 32.76,25.604 L32.06,26.29 C31.486,25.492 30.688,24.638 29.666,23.728 L30.366,23.07 Z M49.882,20.004 L50.778,20.004 L50.778,30 L49.63,30 L49.63,21.404 C49,22.048 48.216,22.496 47.278,22.776 L47.278,21.628 C47.726,21.502 48.202,21.306 48.678,21.026 C49.154,20.718 49.546,20.382 49.882,20.004 Z M52.976,25.898 L60.046,25.898 L60.046,26.85 L52.976,26.85 L52.976,25.898 Z M63.966,20.004 L64.862,20.004 L64.862,30 L63.714,30 L63.714,21.404 C63.084,22.048 62.3,22.496 61.362,22.776 L61.362,21.628 C61.81,21.502 62.286,21.306 62.762,21.026 C63.238,20.718 63.63,20.382 63.966,20.004 Z" id="需求1-1" fill="#444444" fill-rule="nonzero"></path>
                                    </g>
                                    <g id="分组-30-copy复制-10" transform="translate(81.000000, 172.000000)">
                                        <polygon id="XMLID_22_" fill="#878787" transform="translate(30.500000, 4.500000) rotate(-360.000000) translate(-30.500000, -4.500000) " points="28 9 33 4.5 28 0"></polygon>
                                        <path d="M28,4.5 L0.534114682,4.5" id="直线-3" stroke="#878787" stroke-linecap="square"></path>
                                    </g>
                                </g>
                            </g>
                        </g>
                        <g id="分组-30-copy复制-10" transform="translate(234.000000, 128.000000)">
                            <polygon id="XMLID_22_" fill="#878787" transform="translate(30.500000, 4.500000) rotate(-360.000000) translate(-30.500000, -4.500000) " points="28 9 33 4.5 28 0"></polygon>
                            <path d="M28,4.5 L0.534114682,4.5" id="直线-3" stroke="#878787" stroke-linecap="square"></path>
                        </g>
                        <g id="分组-30-copy复制-13" transform="translate(409.000000, 128.000000)">
                            <polygon id="XMLID_22_" fill="#878787" transform="translate(30.500000, 4.500000) rotate(-360.000000) translate(-30.500000, -4.500000) " points="28 9 33 4.5 28 0"></polygon>
                            <path d="M28,4.5 L0.534114682,4.5" id="直线-3" stroke="#878787" stroke-linecap="square"></path>
                        </g>
                        <g id="分组-30-copy复制-14" transform="translate(584.000000, 128.000000)">
                            <polygon id="XMLID_22_" fill="#878787" transform="translate(30.500000, 4.500000) rotate(-360.000000) translate(-30.500000, -4.500000) " points="28 9 33 4.5 28 0"></polygon>
                            <path d="M28,4.5 L0.534114682,4.5" id="直线-3" stroke="#878787" stroke-linecap="square"></path>
                        </g>
                    </g>
                </g>
            </g>
        </g>
    </g>
</svg>