<?xml version="1.0" encoding="utf-8"?>
<!-- Generator: Adobe Illustrator 19.0.0, SVG Export Plug-In . SVG Version: 6.00 Build 0)  -->
<svg version="1.1" id="图层_1" xmlns="http://www.w3.org/2000/svg" xmlns:xlink="http://www.w3.org/1999/xlink" x="0px" y="0px"
	 width="32px" height="32px" viewBox="-193 75 32 32" style="enable-background:new -193 75 32 32;" xml:space="preserve">
<style type="text/css">
	.st0{fill:#00A4FF;}
</style>
<title>Product Icons【32】</title>
<g id="_编组_">
	<g id="_编组_2">
		<path id="_复合路径_" class="st0" d="M-166,100V76h-22v30h22v-2h-20V78h18v22H-166z M-179,100h4v-2h-4V100z M-172.1,81.1
			c-1.1-1.1-3-1-4.9,0c-2-1-3.9-1.1-4.9,0c-1.1,1.1-1,3,0,4.9c-1,2-1.1,3.9,0,4.9c1.1,1.1,3,1,4.9,0c2,1,3.9,1.1,4.9,0
			c1.1-1.1,1-3,0-4.9C-171.1,84-171,82.1-172.1,81.1z M-180.5,82.5c0.5-0.3,1.1-0.4,1.6-0.1c-0.6,0.5-1.2,1.1-1.7,1.7
			C-180.9,83.6-180.9,82.9-180.5,82.5z M-180.5,89.5c-0.3-0.5-0.4-1.1-0.1-1.6c0.5,0.6,1.1,1.2,1.7,1.7
			C-179.4,89.9-180.1,89.9-180.5,89.5L-180.5,89.5z M-177,88.6c-1-0.7-1.9-1.6-2.6-2.6c0.7-1,1.6-1.9,2.6-2.6c1,0.7,1.9,1.6,2.6,2.6
			C-175.1,87-176,87.9-177,88.6z M-173.5,89.5c-0.5,0.3-1.1,0.4-1.6,0.1c0.6-0.5,1.2-1.1,1.7-1.7C-173.1,88.4-173.1,89.1-173.5,89.5
			C-173.5,89.5-173.5,89.5-173.5,89.5z M-173.4,84.1c-0.5-0.6-1.1-1.2-1.7-1.7c0.5-0.3,1.1-0.2,1.6,0.1
			C-173.1,82.9-173.1,83.6-173.4,84.1L-173.4,84.1z"/>
	</g>
</g>
</svg>
