<svg xmlns="http://www.w3.org/2000/svg" width="830" height="671" viewBox="0 0 830 671">
  <title>画板 1</title>
  <g>
    <g>
      <rect x="41.5" y="268" width="192" height="393" style="fill-opacity: 0"/>
      <path d="M41.5,268h192V661H41.5V268" style="fill: none;stroke: #bababa;stroke-dasharray: 5"/>
      <g style="isolation: isolate">
        <path d="M56.473,290a13.972,13.972,0,0,1-3.53,3l-.631-.812a13.807,13.807,0,0,0,3.446-2.816Zm-.056,3.361-.225-.994c.505.042.981.071,1.443.071a.467.467,0,0,0,.519-.519v-3.432c-1.345.084-2.8.168-4.385.239l-.28-.9a4.115,4.115,0,0,0,.883-.182,20.463,20.463,0,0,0,3.866-2.354c-1.219.1-2.536.183-3.936.267l-.211-.9a2.6,2.6,0,0,0,.687-.182,9.412,9.412,0,0,0,2.479-2.073c-1.191.056-2.451.084-3.8.084l-.294-.883a47.621,47.621,0,0,0,10.029-.882l.491.854a35.066,35.066,0,0,1-5.155.743,12.822,12.822,0,0,1-2.648,2.381c1.121-.056,2.256-.14,3.4-.238.631-.5,1.274-1.065,1.947-1.667l.925.462a33.039,33.039,0,0,1-6.192,4.511c2.283-.126,4.245-.281,5.87-.477-.351-.447-.715-.91-1.093-1.358l.756-.462a29.555,29.555,0,0,1,2.647,3.5l-.812.574c-.266-.477-.574-.953-.91-1.444-.967.113-2.045.211-3.25.309v3.754a1.06,1.06,0,0,1-1.191,1.19Zm8.222-1.007-.714.713a23.236,23.236,0,0,0-3.5-3.151l.672-.644A23.268,23.268,0,0,1,64.639,292.351Z" style="fill: #444"/>
        <path d="M69.576,280.92a21.651,21.651,0,0,1-2.143,4.286c.617-.084,1.233-.2,1.849-.308.252-.476.5-.966.771-1.5l.91.351a33.82,33.82,0,0,1-3.067,5,19.528,19.528,0,0,0,2.955-1.022v.938a19.149,19.149,0,0,1-4.23,1.247l-.28-.925a1.944,1.944,0,0,0,.462-.307,15.61,15.61,0,0,0,1.961-2.844c-.756.14-1.527.28-2.3.392l-.267-.924a1.062,1.062,0,0,0,.448-.393,22.94,22.94,0,0,0,1.961-4.384Zm1.275,10.254a20.482,20.482,0,0,1-4.371,1.568l-.126-1.009a19.41,19.41,0,0,0,4.5-1.526Zm2.591-3.923a11.42,11.42,0,0,1-.658,3.9,5.38,5.38,0,0,1-2.031,2.227l-.645-.8a4.724,4.724,0,0,0,1.765-1.863,9.593,9.593,0,0,0,.589-3.46ZM71.1,285.78c.084-.027.139-.055.2-.069a8.671,8.671,0,0,0,1.835-2.7H70.739v-.966h3.572a13.019,13.019,0,0,0-.63-1.443l1.022-.168c.21.476.42,1.022.616,1.611h3.152v.966H74.185a14.192,14.192,0,0,1-1.639,2.662c1.3-.112,2.6-.267,3.893-.477-.307-.448-.643-.91-.994-1.359l.771-.476a26.484,26.484,0,0,1,2.213,3.208l-.784.546c-.2-.364-.407-.715-.645-1.078-1.736.279-3.628.49-5.673.644Zm5.364,7.368a1.1,1.1,0,0,1-1.261-1.218v-4.805h.967v4.637c0,.294.1.448.322.476h.91a.56.56,0,0,0,.547-.5,13.538,13.538,0,0,0,.1-1.82l.868.308a6.323,6.323,0,0,1-.28,2.451,1.418,1.418,0,0,1-1.191.476Z" style="fill: #444"/>
        <path d="M92.275,281.13v.967H82.119v9.749H92.681v.966H81.153V281.13Zm-4.567,5.2a16.556,16.556,0,0,0,2.073-3.53l.911.49a17.188,17.188,0,0,1-2.2,3.74q1.639,1.514,2.984,2.984l-.785.784a33.045,33.045,0,0,0-2.872-2.983,12.722,12.722,0,0,1-4.258,3.025l-.588-.91A11.505,11.505,0,0,0,87.05,287.1c-1.107-.981-2.325-1.99-3.67-3.012l.728-.7C85.4,284.366,86.6,285.347,87.708,286.327Z" style="fill: #444"/>
        <path d="M95.644,284.282v-3.7h.994v3.7h1.331v.981H96.638v4.229c.448-.195.9-.42,1.316-.643v1.007a20.523,20.523,0,0,1-3.558,1.472l-.251-1.023c.5-.126,1.008-.266,1.5-.434v-4.608H94.271v-.981Zm6.583,6.247a31.886,31.886,0,0,1-4.455,1.345l-.238-.967a24.972,24.972,0,0,0,4.693-1.288Zm.714-8.068c-.014-.616-.014-1.247-.014-1.891h.98c0,.658,0,1.288.015,1.891h1.429a12.952,12.952,0,0,0-.617-1.443l.911-.154c.181.462.364.994.545,1.6h.687v.953h-2.941c.042,2.156.14,3.922.293,5.28a17.9,17.9,0,0,0,1.29-4.1l.868.364a18.01,18.01,0,0,1-1.933,5.267c.28,1.331.588,2.017.952,2.073.281-.027.547-.742.826-2.115l.757.616c-.448,1.682-.967,2.521-1.583,2.521-.462,0-.868-.364-1.232-1.091a7.385,7.385,0,0,1-.393-1,8.613,8.613,0,0,1-2.339,2.144l-.616-.8a7.993,7.993,0,0,0,2.661-2.563c-.084-.392-.139-.8-.2-1.246a50.728,50.728,0,0,1-.336-5.351H97.982v-.953Zm-.84,2.339v3.95H98.543V284.8Zm-.9.841H99.425v2.283H101.2Z" style="fill: #444"/>
      </g>
    </g>
    <g>
      <rect x="301.5" y="268" width="487" height="113" style="fill-opacity: 0"/>
      <path d="M301.5,268h487V381h-487V268" style="fill: none;stroke: #bababa;stroke-dasharray: 5"/>
    </g>
    <g>
      <rect x="301.5" y="410" width="487" height="113" style="fill-opacity: 0"/>
      <path d="M301.5,410h487V523h-487V410" style="fill: none;stroke: #bababa;stroke-dasharray: 5"/>
    </g>
    <g>
      <rect x="300.5" y="548" width="487" height="113" style="fill-opacity: 0"/>
      <path d="M300.5,548h487V661h-487V548" style="fill: none;stroke: #bababa;stroke-dasharray: 5"/>
    </g>
    <g>
      <rect x="41.5" y="14" width="746" height="119" style="fill-opacity: 0"/>
      <path d="M41.5,14h746V133H41.5V14" style="fill: none;stroke: #bababa;stroke-dasharray: 5"/>
      <g style="isolation: isolate">
        <path d="M57.033,27.06a16,16,0,0,1-4.1,6.724l-.784-.686a14.817,14.817,0,0,0,3.963-6.4Zm6.654,11.92-.939.42q-.315-.712-.63-1.344c-2.466.392-5.225.673-8.279.869l-.182-.981q1.681-.884,4.217-6.639l.98.336A30.141,30.141,0,0,1,55.24,37.9c2.283-.14,4.426-.379,6.43-.7a29.044,29.044,0,0,0-1.7-2.773l.91-.308A28.328,28.328,0,0,1,63.687,38.98Zm1.2-5.995-.715.827a13.572,13.572,0,0,1-4.357-6.738l.855-.476A13.135,13.135,0,0,0,64.892,32.985Z" style="fill: #444"/>
        <path d="M69.506,29.4V26.486h1.022V29.4h3.951V26.542H75.5V29.4h2.563v.981H75.5v3.376h3.25v.98H66.257v-.98h3.249V30.38H66.957V29.4Zm1.779,6.514a17.309,17.309,0,0,1-4.328,3.46l-.7-.9a16.787,16.787,0,0,0,4.271-3.25Zm3.194-2.157V30.38H70.528v3.376Zm4.258,4.805-.784.8a25.53,25.53,0,0,0-4.091-3.4l.729-.7A29.109,29.109,0,0,1,78.737,38.561Z" style="fill: #444"/>
        <path d="M83.772,26.948a21.32,21.32,0,0,1-2.283,4.16c.672-.055,1.33-.154,2-.266q.441-.777.925-1.681l.91.35a33.1,33.1,0,0,1-3.334,5.141,21.865,21.865,0,0,0,3.111-.924v.924a22.169,22.169,0,0,1-4.385,1.12l-.267-.938a1.857,1.857,0,0,0,.463-.294,15.145,15.145,0,0,0,2.031-2.773c-.812.126-1.625.238-2.466.35l-.251-.938a.988.988,0,0,0,.434-.379,21.36,21.36,0,0,0,2.156-4.23Zm1.247,10.268A21.06,21.06,0,0,1,80.48,38.7l-.126-.994a21.59,21.59,0,0,0,4.665-1.443Zm6.668.714h1.19v.98h-8.1v-.98H86V27.214h5.687Zm-1-7.214V28.181h-3.7v2.535Zm0,3.6V31.669h-3.7v2.647Zm0,3.614V35.269h-3.7V37.93Z" style="fill: #444"/>
        <path d="M98.122,26.906a17.577,17.577,0,0,1-1.387,3.152v9.357h-.994V31.6a17.527,17.527,0,0,1-1.47,1.764l-.323-1.078a15.59,15.59,0,0,0,3.222-5.813Zm2.4.616a13.9,13.9,0,0,1-.462,1.989h2.058V26.6h1.009v2.913h3.222v.981h-3.222v3.376h3.74v.966h-3.74v4.511h-1.009V34.834H98v-.966h4.118V30.492H99.733a10.962,10.962,0,0,1-1.3,2.48l-.645-.841A12.024,12.024,0,0,0,99.523,27.4Z" style="fill: #444"/>
      </g>
    </g>
  </g>
  <g>
    <g>
      <path d="M461.387,324.5h12.5" style="fill: none;stroke: #888"/>
      <polygon points="469.387 329 475.387 324.5 469.387 320 469.387 329" style="fill: #888"/>
      <path d="M456.887,324.5h9" style="fill: none;stroke: red;stroke-opacity: 0;stroke-width: 15px"/>
    </g>
    <g>
      <polygon points="465.637 320 459.637 324.5 465.637 329 465.637 320" style="fill: #888"/>
      <path d="M472.637,324.5h-9" style="fill: none;stroke: red;stroke-opacity: 0;stroke-width: 15px"/>
    </g>
  </g>
  <g>
    <path d="M544.937,522.5v10h0v10" style="fill: none;stroke: #888"/>
    <polygon points="540.437 538 544.937 544 549.437 538 540.437 538" style="fill: #888"/>
    <path d="M544.937,522.5v10" style="fill: none;stroke: red;stroke-opacity: 0;stroke-width: 15px"/>
    <path d="M544.937,532.5v10" style="fill: none;stroke: red;stroke-opacity: 0;stroke-width: 15px"/>
  </g>
  <g>
    <path d="M301.937,466.5h-60" style="fill: none;stroke: #888"/>
    <polygon points="246.437 462 240.437 466.5 246.437 471 246.437 462" style="fill: #888"/>
    <path d="M301.937,466.5h-60" style="fill: none;stroke: red;stroke-opacity: 0;stroke-width: 15px"/>
  </g>
  <path d="M300.937,604.5h-31v-140" style="fill: none;stroke: #888"/>
  <path d="M300.937,604.5h-31" style="fill: none;stroke: red;stroke-opacity: 0;stroke-width: 15px"/>
  <path d="M269.937,604.5v-140" style="fill: none;stroke: red;stroke-opacity: 0;stroke-width: 15px"/>
  <g>
    <path d="M414.937,132.5v18h0v18" style="fill: none;stroke: #888"/>
    <polygon points="410.437 164 414.937 170 419.437 164 410.437 164" style="fill: #888"/>
    <path d="M414.937,132.5v18" style="fill: none;stroke: red;stroke-opacity: 0;stroke-width: 15px"/>
    <path d="M414.937,150.5v18" style="fill: none;stroke: red;stroke-opacity: 0;stroke-width: 15px"/>
  </g>
  <g>
    <path d="M544.937,380.5v12h0v12" style="fill: none;stroke: #888"/>
    <polygon points="540.437 400 544.937 406 549.437 400 540.437 400" style="fill: #888"/>
    <path d="M544.937,380.5v12" style="fill: none;stroke: red;stroke-opacity: 0;stroke-width: 15px"/>
    <path d="M544.937,392.5v12" style="fill: none;stroke: red;stroke-opacity: 0;stroke-width: 15px"/>
  </g>
  <path d="M301.937,324.5h-31l-1,140" style="fill: none;stroke: #888"/>
  <path d="M301.937,324.5h-31" style="fill: none;stroke: red;stroke-opacity: 0;stroke-width: 15px"/>
  <g>
    <path d="M414.937,223.5v20h130v19" style="fill: none;stroke: #888"/>
    <polygon points="540.437 258 544.937 264 549.437 258 540.437 258" style="fill: #888"/>
    <path d="M414.937,223.5v20" style="fill: none;stroke: red;stroke-opacity: 0;stroke-width: 15px"/>
    <path d="M414.937,243.5h130" style="fill: none;stroke: red;stroke-opacity: 0;stroke-width: 15px"/>
    <path d="M544.937,243.5v19" style="fill: none;stroke: red;stroke-opacity: 0;stroke-width: 15px"/>
  </g>
  <g>
    <rect x="70.945" y="412" width="137.984" height="50" style="fill: #bbb;opacity: 0.600000023841858;isolation: isolate"/>
    <rect x="68.945" y="410" width="137.984" height="50" style="fill: #fff;stroke: #e5e5e5"/>
    <g style="isolation: isolate">
      <path d="M100.655,441.387H99.633v-.868H92.265v.868H91.243V430.223h3a6.844,6.844,0,0,0,.687-1.709l1.022.14a6.517,6.517,0,0,1-.658,1.569h5.364Zm-1.022-8.111v-2.087H92.265v2.087Zm0,3.068V434.2H92.265v2.143Zm0,3.208v-2.283H92.265v2.283Z" style="fill: #444"/>
      <path d="M109.809,433.318v.981h-3.236a31.589,31.589,0,0,1-1.47,4.566,22.006,22.006,0,0,0,3.305-.952c-.364-.757-.714-1.443-1.078-2.087l.855-.421a38.1,38.1,0,0,1,1.89,3.923l-.868.447c-.141-.363-.28-.7-.421-1.022a29.812,29.812,0,0,1-4.847,1.261l-.237-.952a1.363,1.363,0,0,0,.224-.084,18.717,18.717,0,0,0,1.68-4.679H103.66v-.981Zm-.533-3.782v.967h-5.07v-.967Zm3.643-.938v2.83h3.054c0,4.384-.071,7.088-.2,8.124a1.8,1.8,0,0,1-2.031,1.709c-.238,0-.644-.014-1.232-.042l-.225-.9c.505.029.953.056,1.331.056.687,0,1.093-.406,1.2-1.2q.126-1.113.168-6.766h-2.073v.168q-.063,6.051-2.928,8.853l-.757-.658q2.627-2.544,2.676-8.195v-.168h-1.89v-.98h1.89V428.6Z" style="fill: #444"/>
      <path d="M122.744,428.893a16.09,16.09,0,0,1-1.877,3.305v9.231h-1.008v-8a21.208,21.208,0,0,1-2.059,1.961l-.322-1.051a15.3,15.3,0,0,0,4.328-5.883Zm2.844,12.284a1.311,1.311,0,0,1-1.471-1.486V435.42c-.588.336-1.19.643-1.806.938l-.449-.953c.784-.364,1.54-.742,2.255-1.162v-5.617h1.009v5a19.955,19.955,0,0,0,3.866-3.348l.7.8a22.678,22.678,0,0,1-4.566,3.74v4.735c0,.434.224.658.7.658h2.27a.969.969,0,0,0,.812-.35,7.217,7.217,0,0,0,.308-2.423l.938.308a7.539,7.539,0,0,1-.5,2.927,1.633,1.633,0,0,1-1.386.5Z" style="fill: #444"/>
      <path d="M134.518,433.767h1.47a15.409,15.409,0,0,0,1.036-2.466l.939.322a13.742,13.742,0,0,1-.981,2.144h1.7v.98H131.66v-.98h1.891a11.931,11.931,0,0,0-.9-2.017l.925-.336A13.742,13.742,0,0,1,134.518,433.767Zm.223-3.853c-.168-.462-.336-.882-.518-1.26l1.037-.182c.154.421.307.911.462,1.442h2.857v.981h-6.653v-.981Zm3.292,11.389h-.994v-.784h-3.586v.784h-1v-5.282h5.575Zm-.994-1.738v-2.59h-3.586v2.59Zm6.877-10.42v.755c-.434,1.471-.9,2.844-1.4,4.105a6,6,0,0,1,1.6,3.25,2.4,2.4,0,0,1-.546,1.807,3.731,3.731,0,0,1-2.311.518l-.322-1.064c.392.027.714.055.98.055a1.4,1.4,0,0,0,.967-.294,1.859,1.859,0,0,0,.224-1.022,6.063,6.063,0,0,0-1.667-3.25,39.454,39.454,0,0,0,1.373-3.937H140.3v11.305h-.981V429.145Z" style="fill: #444"/>
      <path d="M156.88,429.074v2.661h-4.889v.911h2.984v.812h-2.984v1.009h1.793a12.657,12.657,0,0,0,2.844-2.354l.826.435a13.7,13.7,0,0,1-2.255,1.919h2.955v.869h-4.4a21.58,21.58,0,0,1-2.3,1.022h4.931V441.5H155.4v-.631h-5.954v.631h-.994v-4.23c-.7.168-1.428.308-2.171.448l-.547-.841a21.98,21.98,0,0,0,6.36-1.54h-6.276v-.869h5.2v-1.009h-3.67v-.812h3.67v-.911h-4.048v-2.661Zm-6.864.756h-2.087v1.163h2.087Zm5.379,7.313h-5.954v1.078H155.4Zm-5.954,2.9H155.4v-1.051h-5.954Zm3.5-10.212h-2.016v1.163h2.016Zm2.97,0h-2.059v1.163h2.059Z" style="fill: #444"/>
      <path d="M163.918,438a13.954,13.954,0,0,1-3.53,3l-.63-.812a13.8,13.8,0,0,0,3.445-2.816Zm-.056,3.361-.224-.994c.5.042.98.071,1.443.071a.466.466,0,0,0,.518-.519v-3.432c-1.345.084-2.8.168-4.384.239l-.28-.9a4.071,4.071,0,0,0,.881-.182,20.4,20.4,0,0,0,3.867-2.354c-1.219.1-2.536.183-3.936.267l-.21-.9a2.6,2.6,0,0,0,.686-.182A9.384,9.384,0,0,0,164.7,430.4c-1.19.057-2.451.084-3.8.084l-.294-.882a47.706,47.706,0,0,0,10.03-.881l.49.853a35.2,35.2,0,0,1-5.154.742,12.826,12.826,0,0,1-2.648,2.382c1.12-.056,2.255-.14,3.4-.238.631-.5,1.275-1.065,1.948-1.667l.924.463a33.071,33.071,0,0,1-6.191,4.51c2.283-.126,4.244-.281,5.869-.477-.35-.447-.715-.91-1.093-1.358l.756-.462a29.469,29.469,0,0,1,2.648,3.5l-.813.574c-.265-.477-.574-.953-.91-1.444-.967.113-2.045.211-3.25.309v3.754a1.059,1.059,0,0,1-1.19,1.19Zm8.222-1.007-.714.713a23.138,23.138,0,0,0-3.5-3.151l.672-.644A23.268,23.268,0,0,1,172.084,440.351Z" style="fill: #444"/>
      <path d="M177.021,428.92a21.651,21.651,0,0,1-2.143,4.286c.617-.084,1.233-.2,1.85-.308.251-.476.5-.966.77-1.5l.91.351a33.734,33.734,0,0,1-3.067,5,19.49,19.49,0,0,0,2.955-1.022v.938a19.149,19.149,0,0,1-4.23,1.247l-.28-.925a1.924,1.924,0,0,0,.462-.307,15.61,15.61,0,0,0,1.961-2.844c-.756.14-1.526.28-2.3.392l-.266-.924a1.074,1.074,0,0,0,.448-.393,22.984,22.984,0,0,0,1.961-4.385Zm1.275,10.254a20.453,20.453,0,0,1-4.37,1.568l-.126-1.009a19.385,19.385,0,0,0,4.5-1.526Zm2.592-3.923a11.415,11.415,0,0,1-.659,3.9,5.38,5.38,0,0,1-2.031,2.227l-.644-.8a4.721,4.721,0,0,0,1.764-1.863,9.571,9.571,0,0,0,.589-3.46Zm-2.339-1.471c.084-.027.139-.055.195-.069a8.658,8.658,0,0,0,1.835-2.7h-2.394v-.967h3.571a12.655,12.655,0,0,0-.63-1.443l1.022-.168c.21.476.42,1.022.617,1.611h3.151v.967H181.63a14.106,14.106,0,0,1-1.639,2.661c1.3-.112,2.606-.267,3.894-.477-.308-.448-.644-.91-.994-1.358l.77-.477a26.484,26.484,0,0,1,2.213,3.208l-.784.546c-.2-.364-.406-.715-.645-1.078-1.736.279-3.628.49-5.673.644Zm5.364,7.368a1.1,1.1,0,0,1-1.261-1.218v-4.805h.967v4.637c0,.294.1.448.322.476h.911a.559.559,0,0,0,.546-.5,13.538,13.538,0,0,0,.1-1.82l.868.308a6.3,6.3,0,0,1-.28,2.451,1.416,1.416,0,0,1-1.19.476Z" style="fill: #444"/>
    </g>
  </g>
  <g>
    <rect x="70.945" y="550" width="137.984" height="50" style="fill: #bbb;opacity: 0.600000023841858;isolation: isolate"/>
    <rect x="68.945" y="548" width="137.984" height="50" style="fill: #fff;stroke: #e5e5e5"/>
    <g style="isolation: isolate">
      <path d="M120.3,578.028h1.5v.91H109.123v-.91h1.569v-3.894H120.3ZM111.084,567.2v5.715h-1V567.2Zm2.437,10.828v-2.969h-1.863v2.969Zm.491-11.514v6.92h-1.023v-6.92Zm2.437,11.514v-2.969h-1.961v2.969Zm-1.2-6-.644-.785a10.02,10.02,0,0,0,2.017-4.805l1.036.2c-.112.56-.238,1.079-.378,1.583h4.174v.98h-4.51A9.308,9.308,0,0,1,115.244,572.033Zm4.09,6v-2.969h-1.919v2.969Zm.8-5.379-.841.575a20.533,20.533,0,0,0-1.694-2.564l.812-.5A18.591,18.591,0,0,1,120.133,572.649Z" style="fill: #444"/>
      <path d="M123.529,579.274l-.21-.98c.378.028.743.057,1.092.057a.484.484,0,0,0,.547-.547v-3.446q-.841.315-1.681.588l-.253-1.008c.66-.168,1.3-.365,1.934-.588v-3.138h-1.709v-.967h1.709V566.57h1.036v2.675h1.163v.967h-1.163v2.718c.421-.2.827-.393,1.219-.6v1.023c-.406.2-.813.392-1.219.574v4.132a1.087,1.087,0,0,1-1.232,1.218Zm4.357-4.37v-.938h7.479v.938h-3.207v3.068h3.726v.98h-8.559v-.98h3.824V574.9Zm4.342-6.807h3.292v2.647h-.939v-1.736H128.7v1.736h-.953V568.1h3.474a12.928,12.928,0,0,0-.714-1.527l1.022-.168A18.058,18.058,0,0,1,132.228,568.1Zm-1.121,2.129a7.693,7.693,0,0,1-2.535,3.179l-.728-.63a6.814,6.814,0,0,0,2.381-2.9Zm4.132,2.62-.882.447a17.9,17.9,0,0,0-2.284-3.081l.855-.364A17.338,17.338,0,0,1,135.239,572.846Z" style="fill: #444"/>
      <path d="M141.451,576a13.954,13.954,0,0,1-3.53,3l-.63-.812a13.8,13.8,0,0,0,3.445-2.816Zm-.055,3.361-.225-.994c.5.042.98.071,1.443.071a.466.466,0,0,0,.518-.519v-3.432c-1.345.084-2.8.168-4.384.239l-.28-.9a4.093,4.093,0,0,0,.882-.182,20.432,20.432,0,0,0,3.866-2.354c-1.219.1-2.535.183-3.936.267l-.21-.9a2.6,2.6,0,0,0,.686-.182,9.384,9.384,0,0,0,2.479-2.074c-1.19.057-2.451.084-3.8.084l-.293-.882a47.7,47.7,0,0,0,10.029-.881l.49.853a35.2,35.2,0,0,1-5.154.742,12.8,12.8,0,0,1-2.648,2.382c1.12-.056,2.255-.14,3.4-.238.63-.505,1.274-1.065,1.947-1.667l.925.463a33.1,33.1,0,0,1-6.192,4.51c2.283-.126,4.244-.281,5.869-.477-.35-.447-.714-.91-1.092-1.358l.755-.462a29.469,29.469,0,0,1,2.648,3.5l-.813.574c-.265-.477-.574-.953-.91-1.444-.966.113-2.045.211-3.25.309v3.754a1.059,1.059,0,0,1-1.19,1.19Zm8.221-1.007-.714.713a23.138,23.138,0,0,0-3.5-3.151l.672-.644A23.268,23.268,0,0,1,149.617,578.351Z" style="fill: #444"/>
      <path d="M154.555,566.92a21.648,21.648,0,0,1-2.144,4.286c.617-.084,1.234-.2,1.85-.308.252-.476.5-.966.77-1.5l.91.351a33.649,33.649,0,0,1-3.067,5,19.49,19.49,0,0,0,2.955-1.022v.938a19.157,19.157,0,0,1-4.229,1.247l-.281-.925a1.924,1.924,0,0,0,.462-.307,15.56,15.56,0,0,0,1.961-2.844c-.756.14-1.526.28-2.3.392l-.266-.924a1.068,1.068,0,0,0,.448-.393,22.984,22.984,0,0,0,1.961-4.385Zm1.274,10.254a20.453,20.453,0,0,1-4.37,1.568l-.126-1.009a19.385,19.385,0,0,0,4.5-1.526Zm2.592-3.923a11.42,11.42,0,0,1-.658,3.895,5.382,5.382,0,0,1-2.032,2.227l-.644-.8a4.731,4.731,0,0,0,1.765-1.863,9.6,9.6,0,0,0,.588-3.46Zm-2.339-1.471c.084-.027.14-.055.195-.069a8.658,8.658,0,0,0,1.835-2.7h-2.394v-.967h3.571a12.655,12.655,0,0,0-.63-1.443l1.023-.168c.21.476.42,1.022.616,1.611h3.151v.967h-4.286a14.106,14.106,0,0,1-1.639,2.661c1.3-.112,2.606-.267,3.894-.477-.308-.448-.644-.91-.994-1.358l.77-.477a26.369,26.369,0,0,1,2.213,3.208l-.784.546c-.2-.364-.406-.715-.644-1.078-1.737.279-3.628.49-5.673.644Zm5.364,7.368a1.1,1.1,0,0,1-1.26-1.218v-4.8h.966v4.637c0,.294.1.448.323.476h.91a.561.561,0,0,0,.547-.505,13.751,13.751,0,0,0,.1-1.82l.868.308a6.3,6.3,0,0,1-.28,2.451,1.415,1.415,0,0,1-1.19.476Z" style="fill: #444"/>
    </g>
  </g>
  <g>
    <rect x="318.687" y="300.5" width="138" height="50" style="fill: #bbb;opacity: 0.600000023841858;isolation: isolate"/>
    <rect x="316.687" y="298.5" width="138" height="50" style="fill: #fff;stroke: #e5e5e5"/>
    <g style="isolation: isolate">
      <path d="M344.322,318.232h5.546v.925H337.5v-.925h5.743a8.365,8.365,0,0,0-.476-1.064l1.107-.2C344.027,317.35,344.182,317.77,344.322,318.232Zm2.129,11.626-.238-.91,1.12.042c.574,0,.869-.223.869-.672v-3.81h-9.021V329.9h-.967v-6.275h10.954v4.9c0,.882-.518,1.33-1.541,1.33Zm1.162-9.791v2.718h-7.83v-2.718Zm-.98.785h-5.869V322h5.869Zm-.182,4.552v2.8h-5.5v-2.8Zm-.9.757h-3.7v1.288h3.7Z" style="fill: #444"/>
      <path d="M352.522,319.815a20.369,20.369,0,0,1-.476,4.006l-.826-.238a18.528,18.528,0,0,0,.5-3.824Zm1.738-2.717v12.747h-1.023V317.1Zm1.793,4.734a12.418,12.418,0,0,0,.826-3.908l.91.126a15.253,15.253,0,0,1-.168,1.681h2v-2.619h1.037v2.619h3.054v.967h-3.054v3.39h2.844v.994h-2.844V328.5h3.418v.98h-8.461v-.98h4.006v-3.418h-3.207v-.994h3.207V320.7h-2.185a11.164,11.164,0,0,1-1.121,2.843l-.742-.672q.231-.462.42-.883l-.7.183a17.633,17.633,0,0,0-.8-2.466l.742-.238A15.624,15.624,0,0,1,356.053,321.832Z" style="fill: #444"/>
      <path d="M372.35,321.006l-.827.589q-.231-.464-.5-.925a53.277,53.277,0,0,1-5.365.518l-.28-.84a1.266,1.266,0,0,0,.462-.266,12.151,12.151,0,0,0,2.157-3.026l.952.294a10.306,10.306,0,0,1-2.129,2.942c1.177-.07,2.424-.183,3.741-.351-.294-.448-.617-.924-.953-1.4l.785-.491A27.385,27.385,0,0,1,372.35,321.006Zm-5.155,8.923h-.966v-7.914H371.4V328.6c0,.812-.392,1.233-1.176,1.233H369.1l-.252-.953,1.05.042a.475.475,0,0,0,.533-.532v-1.135H367.2Zm3.236-7.033H367.2v1.36h3.236Zm-3.236,3.5h3.236v-1.3H367.2ZM374,323.177c-.855,0-1.275-.462-1.275-1.372V317.1h1v1.821a38.251,38.251,0,0,0,3.754-.743l.322.883c-1.177.294-2.535.56-4.076.784V321.6c0,.448.181.672.559.672h1.835a.72.72,0,0,0,.589-.224,3.966,3.966,0,0,0,.28-1.584l.939.3a3.973,3.973,0,0,1-.532,2.1,1.55,1.55,0,0,1-1.08.323Zm-.28,5.169c0,.28.168.434.532.434h1.905a.8.8,0,0,0,.6-.2,3.536,3.536,0,0,0,.308-1.568l.91.279a3.625,3.625,0,0,1-.532,2.073,1.564,1.564,0,0,1-1.093.322h-2.38c-.841,0-1.247-.378-1.247-1.12v-4.861h1v1.724a19.756,19.756,0,0,0,3.754-.715l.322.9a21.233,21.233,0,0,1-4.076.729Z" style="fill: #444"/>
      <path d="M382.344,321.342v6.233c.5-.42,1.064-.9,1.652-1.456l.252,1.036a19.4,19.4,0,0,1-2.8,2.241l-.392-.91a.747.747,0,0,0,.322-.589v-5.588h-2.06v-.967Zm1.008-1.989-.686.7a15.3,15.3,0,0,0-2.41-2.171l.7-.686A15.992,15.992,0,0,1,383.352,319.353Zm4.146,1.9v-4.216h1.037v4.216h3.6v1.009h-3.6v7.662H387.5v-7.662h-3.8v-1.009Z" style="fill: #444"/>
      <path d="M404.384,320.222v5.5h-1.667v.938H405.9v.9h-3.179v2.367h-.994v-2.367h-3.979a3.166,3.166,0,0,1-.574,1.05,4.8,4.8,0,0,1-2.339,1.275l-.519-.8a4.5,4.5,0,0,0,2.059-1.05,3.416,3.416,0,0,0,.3-.476h-3.18v-.9h3.432c.014-.14.027-.28.027-.393v-.545h-1.778v-5.5Zm-9.974.195-.84-.518a8.244,8.244,0,0,0,1.849-2.941l.967.21c-.113.28-.239.56-.351.826h3.474v.855h-1.835a8.046,8.046,0,0,1,.589.854l-.841.308a11.93,11.93,0,0,0-.756-1.162h-1.079A9.179,9.179,0,0,1,394.41,320.417Zm8.993,1.43v-.841h-7.256v.841Zm0,1.5v-.785h-7.256v.785Zm0,.727h-7.256v.869H403.4Zm-5.449,2.2a3.7,3.7,0,0,1-.027.393h3.8v-.938h-3.769Zm2.451-6.134-.826-.533a7.279,7.279,0,0,0,1.513-2.619l.98.21-.294.756h3.993v.855h-2.339a8.728,8.728,0,0,1,.616.91l-.841.308a8.271,8.271,0,0,0-.8-1.218h-1.065A9.062,9.062,0,0,1,400.405,320.138Z" style="fill: #444"/>
      <path d="M410.834,318.429V317.07h1.022v1.359h3.67V317.07h1.023v1.359h3.235v.98h-3.235v1.331h-1.023v-1.331h-3.67v1.317h-1.022v-1.317H407.6v-.98Zm-2.62,3.992v-.967H418.65c-.07,2.339-.127,3.74-.169,4.189a2.541,2.541,0,0,1-.448,1.526,1.756,1.756,0,0,1-1.345.421c-.406,0-.9,0-1.484.027l-.28-1.008c.5,0,1.009.014,1.527.014a1.041,1.041,0,0,0,.8-.28,2.648,2.648,0,0,0,.322-1.387c.014-.378.042-1.219.071-2.535h-4.427v7.437h-1.023v-7.437Z" style="fill: #444"/>
      <path d="M423.979,326.693a14.549,14.549,0,0,1-1.834,3.165l-.828-.6a12.051,12.051,0,0,0,1.808-2.97Zm3.978-9.609v1.358h5.436v.953h-5.436v1.779h4.469v4.5h-9.274v-4.5h3.811v-4.09Zm3.46,5.043h-7.256v2.605h7.256Zm-4.482,7.578-1.008.224a25.6,25.6,0,0,0-.687-3.04l.939-.2C426.459,327.617,426.711,328.626,426.935,329.705Zm3.263-.028-.994.223a16.541,16.541,0,0,0-1.051-3.151l.953-.2A22.533,22.533,0,0,1,430.2,329.677Zm3.824-.336-.839.588a23.1,23.1,0,0,0-2.018-3.138l.813-.519A25.01,25.01,0,0,1,434.022,329.341Z" style="fill: #444"/>
    </g>
  </g>
  <g>
    <rect x="480.25" y="300.5" width="138" height="50" style="fill: #bbb;opacity: 0.600000023841858;isolation: isolate"/>
    <rect x="478.25" y="298.5" width="138" height="50" style="fill: #fff;stroke: #e5e5e5"/>
    <g style="isolation: isolate">
      <path d="M505.885,318.232h5.546v.925H499.062v-.925h5.744a8.227,8.227,0,0,0-.477-1.064l1.107-.2C505.59,317.35,505.744,317.77,505.885,318.232Zm2.129,11.626-.239-.91,1.121.042c.574,0,.869-.223.869-.672v-3.81h-9.022V329.9h-.966v-6.275H510.73v4.9c0,.882-.517,1.33-1.541,1.33Zm1.162-9.791v2.718h-7.83v-2.718Zm-.981.785h-5.869V322H508.2Zm-.181,4.552v2.8h-5.506v-2.8Zm-.9.757h-3.7v1.288h3.7Z" style="fill: #444"/>
      <path d="M514.085,319.815a20.293,20.293,0,0,1-.477,4.006l-.826-.238a18.528,18.528,0,0,0,.5-3.824Zm1.737-2.717v12.747H514.8V317.1Zm1.793,4.734a12.39,12.39,0,0,0,.826-3.908l.911.126a15.5,15.5,0,0,1-.168,1.681h2v-2.619h1.037v2.619h3.053v.967h-3.053v3.39h2.843v.994h-2.843V328.5h3.418v.98h-8.461v-.98h4.006v-3.418h-3.208v-.994h3.208V320.7H519a11.237,11.237,0,0,1-1.121,2.843l-.742-.672q.231-.462.42-.883l-.7.183a17.63,17.63,0,0,0-.8-2.466l.742-.238A15.628,15.628,0,0,1,517.615,321.832Z" style="fill: #444"/>
      <path d="M533.912,321.006l-.826.589q-.231-.464-.5-.925a53.283,53.283,0,0,1-5.364.518l-.28-.84a1.27,1.27,0,0,0,.461-.266,12.155,12.155,0,0,0,2.158-3.026l.952.294a10.344,10.344,0,0,1-2.129,2.942c1.177-.07,2.424-.183,3.74-.351-.294-.448-.616-.924-.952-1.4l.784-.491A27.236,27.236,0,0,1,533.912,321.006Zm-5.154,8.923h-.967v-7.914h5.169V328.6c0,.812-.393,1.233-1.177,1.233h-1.121l-.252-.953,1.051.042a.474.474,0,0,0,.532-.532v-1.135h-3.235Zm3.235-7.033h-3.235v1.36h3.235Zm-3.235,3.5h3.235v-1.3h-3.235Zm6.807-3.221c-.854,0-1.275-.462-1.275-1.372V317.1h1v1.821a38.251,38.251,0,0,0,3.754-.743l.322.883c-1.176.294-2.535.56-4.076.784V321.6c0,.448.182.672.56.672h1.835a.721.721,0,0,0,.589-.224,4,4,0,0,0,.28-1.584l.938.3a3.964,3.964,0,0,1-.532,2.1,1.549,1.549,0,0,1-1.079.323Zm-.28,5.169c0,.28.168.434.532.434h1.906a.793.793,0,0,0,.6-.2,3.532,3.532,0,0,0,.309-1.568l.91.279a3.634,3.634,0,0,1-.532,2.073,1.566,1.566,0,0,1-1.093.322h-2.381c-.841,0-1.247-.378-1.247-1.12v-4.861h1v1.724a19.726,19.726,0,0,0,3.754-.715l.322.9a21.219,21.219,0,0,1-4.076.729Z" style="fill: #444"/>
      <path d="M543.906,321.342v6.233c.5-.42,1.065-.9,1.653-1.456l.252,1.036a19.451,19.451,0,0,1-2.8,2.241l-.393-.91a.747.747,0,0,0,.322-.589v-5.588H540.88v-.967Zm1.008-1.989-.685.7a15.307,15.307,0,0,0-2.411-2.171l.7-.686A15.932,15.932,0,0,1,544.914,319.353Zm4.147,1.9v-4.216H550.1v4.216h3.6v1.009h-3.6v7.662h-1.037v-7.662h-3.8v-1.009Z" style="fill: #444"/>
      <path d="M565.946,320.222v5.5h-1.667v.938h3.18v.9h-3.18v2.367h-.994v-2.367h-3.978a3.168,3.168,0,0,1-.575,1.05,4.794,4.794,0,0,1-2.338,1.275l-.519-.8a4.51,4.51,0,0,0,2.059-1.05,3.416,3.416,0,0,0,.3-.476h-3.18v-.9h3.431c.014-.14.028-.28.028-.393v-.545h-1.779v-5.5Zm-9.973.195-.84-.518a8.241,8.241,0,0,0,1.848-2.941l.967.21c-.112.28-.238.56-.35.826h3.473v.855h-1.835a7.758,7.758,0,0,1,.589.854l-.841.308a11.735,11.735,0,0,0-.755-1.162h-1.08A9.173,9.173,0,0,1,555.973,320.417Zm8.993,1.43v-.841H557.71v.841Zm0,1.5v-.785H557.71v.785Zm0,.727H557.71v.869h7.256Zm-5.449,2.2a3.443,3.443,0,0,1-.028.393h3.8v-.938h-3.768Zm2.451-6.134-.826-.533a7.262,7.262,0,0,0,1.512-2.619l.981.21-.294.756h3.992v.855h-2.339a8.728,8.728,0,0,1,.616.91l-.84.308a8.352,8.352,0,0,0-.8-1.218h-1.066A9.056,9.056,0,0,1,561.968,320.138Z" style="fill: #444"/>
      <path d="M572.4,318.429V317.07h1.023v1.359h3.67V317.07h1.022v1.359h3.236v.98h-3.236v1.331h-1.022v-1.331h-3.67v1.317H572.4v-1.317H569.16v-.98Zm-2.62,3.992v-.967h10.437c-.07,2.339-.127,3.74-.169,4.189a2.548,2.548,0,0,1-.448,1.526,1.756,1.756,0,0,1-1.345.421c-.406,0-.9,0-1.484.027l-.281-1.008c.5,0,1.009.014,1.528.014a1.041,1.041,0,0,0,.8-.28,2.658,2.658,0,0,0,.322-1.387c.013-.378.042-1.219.07-2.535h-4.427v7.437h-1.022v-7.437Z" style="fill: #444"/>
      <path d="M585.542,326.693a14.551,14.551,0,0,1-1.835,3.165l-.827-.6a12.081,12.081,0,0,0,1.808-2.97Zm3.978-9.609v1.358h5.435v.953H589.52v1.779h4.468v4.5h-9.273v-4.5h3.81v-4.09Zm3.459,5.043h-7.255v2.605h7.255Zm-4.482,7.578-1.008.224a25.612,25.612,0,0,0-.686-3.04l.938-.2C588.021,327.617,588.273,328.626,588.5,329.705Zm3.264-.028-.994.223a16.612,16.612,0,0,0-1.051-3.151l.953-.2A22.665,22.665,0,0,1,591.761,329.677Zm3.824-.336-.84.588a23.082,23.082,0,0,0-2.017-3.138l.812-.519A25.033,25.033,0,0,1,595.585,329.341Z" style="fill: #444"/>
    </g>
  </g>
  <g>
    <rect x="638.812" y="300.5" width="138" height="50" style="fill: #bbb;opacity: 0.600000023841858;isolation: isolate"/>
    <rect x="636.812" y="298.5" width="138" height="50" style="fill: #fff;stroke: #e5e5e5"/>
    <g style="isolation: isolate">
      <path d="M664.447,318.232h5.546v.925H657.625v-.925h5.743a8.093,8.093,0,0,0-.476-1.064l1.106-.2C664.152,317.35,664.307,317.77,664.447,318.232Zm2.129,11.626-.238-.91,1.12.042c.574,0,.869-.223.869-.672v-3.81h-9.021V329.9h-.966v-6.275h10.953v4.9c0,.882-.518,1.33-1.541,1.33Zm1.162-9.791v2.718h-7.83v-2.718Zm-.98.785h-5.869V322h5.869Zm-.182,4.552v2.8H661.07v-2.8Zm-.9.757h-3.7v1.288h3.7Z" style="fill: #444"/>
      <path d="M672.647,319.815a20.369,20.369,0,0,1-.476,4.006l-.826-.238a18.528,18.528,0,0,0,.5-3.824Zm1.738-2.717v12.747h-1.023V317.1Zm1.793,4.734a12.418,12.418,0,0,0,.826-3.908l.91.126a15.253,15.253,0,0,1-.168,1.681h2v-2.619h1.037v2.619h3.054v.967h-3.054v3.39h2.844v.994h-2.844V328.5H684.2v.98h-8.461v-.98h4.006v-3.418h-3.207v-.994h3.207V320.7h-2.185a11.2,11.2,0,0,1-1.121,2.843l-.742-.672q.231-.462.42-.883l-.7.183a17.633,17.633,0,0,0-.8-2.466l.742-.238A15.624,15.624,0,0,1,676.178,321.832Z" style="fill: #444"/>
      <path d="M692.475,321.006l-.827.589q-.231-.464-.5-.925a53.277,53.277,0,0,1-5.365.518l-.28-.84a1.266,1.266,0,0,0,.462-.266,12.151,12.151,0,0,0,2.157-3.026l.952.294a10.306,10.306,0,0,1-2.129,2.942c1.177-.07,2.424-.183,3.741-.351-.294-.448-.617-.924-.953-1.4l.785-.491A27.385,27.385,0,0,1,692.475,321.006Zm-5.155,8.923h-.966v-7.914h5.168V328.6c0,.812-.392,1.233-1.176,1.233h-1.121l-.252-.953,1.05.042a.475.475,0,0,0,.533-.532v-1.135H687.32Zm3.236-7.033H687.32v1.36h3.236Zm-3.236,3.5h3.236v-1.3H687.32Zm6.808-3.221c-.855,0-1.275-.462-1.275-1.372V317.1h1v1.821a38.251,38.251,0,0,0,3.754-.743l.322.883c-1.177.294-2.535.56-4.076.784V321.6c0,.448.181.672.559.672h1.835a.72.72,0,0,0,.589-.224,3.966,3.966,0,0,0,.28-1.584l.939.3a3.973,3.973,0,0,1-.532,2.1,1.55,1.55,0,0,1-1.08.323Zm-.28,5.169c0,.28.168.434.532.434h1.9a.8.8,0,0,0,.6-.2,3.536,3.536,0,0,0,.308-1.568l.91.279a3.625,3.625,0,0,1-.532,2.073,1.564,1.564,0,0,1-1.093.322H694.1c-.841,0-1.247-.378-1.247-1.12v-4.861h1v1.724a19.756,19.756,0,0,0,3.754-.715l.322.9a21.233,21.233,0,0,1-4.076.729Z" style="fill: #444"/>
      <path d="M702.469,321.342v6.233c.5-.42,1.064-.9,1.652-1.456l.252,1.036a19.4,19.4,0,0,1-2.8,2.241l-.392-.91a.747.747,0,0,0,.322-.589v-5.588h-2.06v-.967Zm1.008-1.989-.686.7a15.3,15.3,0,0,0-2.41-2.171l.7-.686A15.992,15.992,0,0,1,703.477,319.353Zm4.146,1.9v-4.216h1.037v4.216h3.6v1.009h-3.6v7.662h-1.037v-7.662h-3.8v-1.009Z" style="fill: #444"/>
      <path d="M724.509,320.222v5.5h-1.667v.938h3.179v.9h-3.179v2.367h-.994v-2.367h-3.979a3.166,3.166,0,0,1-.574,1.05,4.8,4.8,0,0,1-2.339,1.275l-.518-.8a4.506,4.506,0,0,0,2.058-1.05,3.416,3.416,0,0,0,.3-.476h-3.18v-.9h3.432c.014-.14.027-.28.027-.393v-.545h-1.778v-5.5Zm-9.974.195-.84-.518a8.244,8.244,0,0,0,1.849-2.941l.967.21c-.113.28-.239.56-.351.826h3.474v.855H717.8a8.046,8.046,0,0,1,.589.854l-.841.308a11.93,11.93,0,0,0-.756-1.162h-1.079A9.179,9.179,0,0,1,714.535,320.417Zm8.993,1.43v-.841h-7.256v.841Zm0,1.5v-.785h-7.256v.785Zm0,.727h-7.256v.869h7.256Zm-5.449,2.2a3.7,3.7,0,0,1-.027.393h3.8v-.938h-3.769Zm2.451-6.134-.826-.533a7.279,7.279,0,0,0,1.513-2.619l.98.21-.294.756H725.9v.855h-2.339a8.728,8.728,0,0,1,.616.91l-.841.308a8.271,8.271,0,0,0-.8-1.218h-1.065A9.062,9.062,0,0,1,720.53,320.138Z" style="fill: #444"/>
      <path d="M730.959,318.429V317.07h1.022v1.359h3.67V317.07h1.023v1.359h3.235v.98h-3.235v1.331h-1.023v-1.331h-3.67v1.317h-1.022v-1.317h-3.236v-.98Zm-2.62,3.992v-.967h10.436c-.07,2.339-.127,3.74-.169,4.189a2.541,2.541,0,0,1-.448,1.526,1.756,1.756,0,0,1-1.345.421c-.406,0-.9,0-1.484.027l-.28-1.008c.5,0,1.009.014,1.527.014a1.041,1.041,0,0,0,.8-.28,2.648,2.648,0,0,0,.322-1.387c.014-.378.042-1.219.071-2.535H733.34v7.437h-1.023v-7.437Z" style="fill: #444"/>
      <path d="M744.1,326.693a14.549,14.549,0,0,1-1.834,3.165l-.828-.6a12.051,12.051,0,0,0,1.808-2.97Zm3.978-9.609v1.358h5.436v.953h-5.436v1.779h4.469v4.5h-9.274v-4.5h3.811v-4.09Zm3.46,5.043h-7.256v2.605h7.256Zm-4.482,7.578-1.008.224a25.6,25.6,0,0,0-.687-3.04l.939-.2C746.584,327.617,746.836,328.626,747.06,329.705Zm3.263-.028-.994.223a16.541,16.541,0,0,0-1.051-3.151l.953-.2A22.533,22.533,0,0,1,750.323,329.677Zm3.824-.336-.839.588a23.1,23.1,0,0,0-2.018-3.138l.813-.519A25.01,25.01,0,0,1,754.147,329.341Z" style="fill: #444"/>
    </g>
  </g>
  <g>
    <rect x="387.256" y="441.25" width="145.125" height="50" style="fill: #bbb;opacity: 0.600000023841858;isolation: isolate"/>
    <rect x="385.256" y="439.25" width="145.125" height="50" style="fill: #fff;stroke: #e5e5e5"/>
    <g style="isolation: isolate">
      <path d="M407.483,459.248v10h-1.134v-10Z" style="fill: #444"/>
      <path d="M415.535,464.8v4.454h-1.119v-4.37c0-1.415-.645-2.115-1.906-2.115a1.774,1.774,0,0,0-1.3.546,2.328,2.328,0,0,0-.645,1.569v4.37h-1.12v-7.242h1.12v1.064a2.545,2.545,0,0,1,.967-.924,2.579,2.579,0,0,1,1.3-.336C414.625,461.812,415.535,462.807,415.535,464.8Z" style="fill: #444"/>
      <path d="M421.555,459.248v.967h-1.247a.856.856,0,0,0-.687.238,1.109,1.109,0,0,0-.21.756v.8h4.412v7.242h-1.106v-6.3h-3.306v6.3H418.29v-6.3h-1.82v-.938h1.82v-.826a1.994,1.994,0,0,1,.463-1.414,1.824,1.824,0,0,1,1.414-.52Z" style="fill: #444"/>
      <path d="M431.873,464.8v4.454h-1.121v-4.37c0-1.415-.644-2.115-1.9-2.115a1.774,1.774,0,0,0-1.3.546,2.328,2.328,0,0,0-.645,1.569v4.37h-1.121v-7.242H426.9v1.064a2.545,2.545,0,0,1,.967-.924,2.579,2.579,0,0,1,1.3-.336C430.963,461.812,431.873,462.807,431.873,464.8Z" style="fill: #444"/>
      <path d="M435.133,459.515a.724.724,0,0,1,.252.589.812.812,0,0,1-.252.6.882.882,0,0,1-1.2,0,.8.8,0,0,1-.239-.6.715.715,0,0,1,.239-.589.879.879,0,0,1,1.2,0Zm-.042,2.493v7.242H433.97v-7.242Z" style="fill: #444"/>
      <path d="M438.311,459.053v4.286a2.61,2.61,0,0,1,2.4-1.527,2.855,2.855,0,0,1,2.423,1.163,4.214,4.214,0,0,1,.812,2.633,4.332,4.332,0,0,1-.812,2.69,3.01,3.01,0,0,1-2.48,1.148,2.519,2.519,0,0,1-2.409-1.386v1.19h-1.051v-10.2Zm.574,4.468a3.152,3.152,0,0,0-.616,2.045v.14a3.3,3.3,0,0,0,.545,1.976,1.957,1.957,0,0,0,1.7.839,2.019,2.019,0,0,0,1.764-.854,3.667,3.667,0,0,0,.519-2.059,3.332,3.332,0,0,0-.547-2.031,2.053,2.053,0,0,0-1.778-.841A1.859,1.859,0,0,0,438.885,463.521Z" style="fill: #444"/>
      <path d="M450.843,462.624a2.891,2.891,0,0,1,.644,1.976v4.65h-1.05v-1.219a3.373,3.373,0,0,1-1.107.967,3.679,3.679,0,0,1-1.807.448,2.6,2.6,0,0,1-1.737-.547,1.826,1.826,0,0,1-.673-1.456,2.042,2.042,0,0,1,1-1.863,4.645,4.645,0,0,1,2.522-.616l1.736-.028v-.378c0-1.219-.63-1.822-1.89-1.822a2.305,2.305,0,0,0-1.3.323,1.577,1.577,0,0,0-.729,1.037l-1.106-.085a2.488,2.488,0,0,1,1.12-1.7,3.839,3.839,0,0,1,2.088-.5A2.963,2.963,0,0,1,450.843,462.624ZM448.7,465.8c-1.624.028-2.436.56-2.436,1.611a.994.994,0,0,0,.406.826,1.771,1.771,0,0,0,1.092.322,2.739,2.739,0,0,0,1.821-.671,1.934,1.934,0,0,0,.784-1.5v-.617Z" style="fill: #444"/>
      <path d="M459.313,464.8v4.454h-1.121v-4.37c0-1.415-.643-2.115-1.9-2.115a1.776,1.776,0,0,0-1.3.546,2.332,2.332,0,0,0-.644,1.569v4.37H453.22v-7.242h1.121v1.064a2.538,2.538,0,0,1,.967-.924,2.574,2.574,0,0,1,1.3-.336C458.4,461.812,459.313,462.807,459.313,464.8Z" style="fill: #444"/>
      <path d="M467.517,459.053v10.2h-1.051v-1.19a2.56,2.56,0,0,1-2.409,1.386,2.973,2.973,0,0,1-2.48-1.148,4.246,4.246,0,0,1-.812-2.69,4.129,4.129,0,0,1,.812-2.633A2.841,2.841,0,0,1,464,461.812a2.611,2.611,0,0,1,2.4,1.527v-4.286Zm-5.071,4.524a3.333,3.333,0,0,0-.532,2.031,3.557,3.557,0,0,0,.518,2.059,2.019,2.019,0,0,0,1.765.854,1.972,1.972,0,0,0,1.695-.839,3.4,3.4,0,0,0,.532-1.976v-.14a3.316,3.316,0,0,0-.6-2.045,1.894,1.894,0,0,0-1.583-.785A2.046,2.046,0,0,0,462.446,463.577Z" style="fill: #444"/>
      <path d="M478.662,463.885a12.905,12.905,0,0,1-2.451,3.334,16.209,16.209,0,0,0,5.533,2.466l-.631.938a16.452,16.452,0,0,1-5.673-2.718,15.1,15.1,0,0,1-5.714,2.774l-.617-.925a15.086,15.086,0,0,0,5.519-2.522,12.429,12.429,0,0,1-2.522-3.165l.87-.49a10.414,10.414,0,0,0,2.422,3,11.245,11.245,0,0,0,2.34-3.1Zm-3.683-4.412a11,11,0,0,0-.841-1.569l1.121-.2a17.307,17.307,0,0,1,.812,1.765h5.519v.966h-12.4v-.966Zm-1.164,2.045a16.155,16.155,0,0,1-3.95,3.642l-.643-.854a15.826,15.826,0,0,0,3.866-3.433Zm7.691,3.025-.742.743a25.32,25.32,0,0,0-3.853-3.768l.687-.659A27.917,27.917,0,0,1,481.506,464.543Z" style="fill: #444"/>
      <path d="M483.39,470.5l-.21-.967a9.227,9.227,0,0,0,1.049.071c.365,0,.561-.211.561-.6v-3.376c-.561.224-1.12.42-1.681.6l-.252-1.009a17.9,17.9,0,0,0,1.933-.6V461.35h-1.667v-.967h1.667V457.82H485.8v2.563h1.429v.967H485.8v2.857a16.446,16.446,0,0,0,1.484-.756v1.023c-.49.252-.98.5-1.484.728v4.048a1.092,1.092,0,0,1-1.219,1.247Zm11.555-5.015h.883v.924H492.3a7.714,7.714,0,0,0,3.6,3.348l-.462.953a9.128,9.128,0,0,1-3.964-4.091,7.778,7.778,0,0,1-3.993,4.076l-.658-.839a6.81,6.81,0,0,0,3.7-3.447h-3.264v-.924h.994v-3.81h3.193a16.164,16.164,0,0,0,1.205-1.947h-2.437a9.147,9.147,0,0,1-2.283,2.171l-.588-.785a7.078,7.078,0,0,0,2.857-3.389l.981.126a8.1,8.1,0,0,1-.435,1.008h2.97v.729a14.665,14.665,0,0,1-1.246,2.087h2.478Zm-4.145,0a16.849,16.849,0,0,0,.294-2.927h-1.948v2.927Zm3.249,0v-2.927h-2.031a19.842,19.842,0,0,1-.252,2.927Z" style="fill: #444"/>
      <path d="M499.28,460.551V457.82h1.009v2.731h1.737v.967h-1.737v.714c.645.672,1.3,1.414,1.975,2.242l-.588.868q-.8-1.324-1.387-2.143v7.382H499.28v-7.116a16.184,16.184,0,0,1-1.919,3.81l-.434-1.092a12.571,12.571,0,0,0,2.311-4.665h-2.045v-.967Zm3.348,6.6a17.083,17.083,0,0,0,.28-3.445V458.4h4.525V469c0,.238.1.364.322.364h.476a.776.776,0,0,0,.392-.084.572.572,0,0,0,.211-.406,17.708,17.708,0,0,0,.1-2.424l.924.294a22.583,22.583,0,0,1-.1,2.3,1.554,1.554,0,0,1-.42,1.036,1.79,1.79,0,0,1-1.009.238h-.574q-1.346,0-1.345-1.218v-9.749h-2.493V463.7a16.689,16.689,0,0,1-.378,3.866,9.325,9.325,0,0,1-1.345,3.138l-.827-.742A8.441,8.441,0,0,0,502.628,467.148Z" style="fill: #444"/>
    </g>
  </g>
  <g>
    <rect x="559.019" y="441.25" width="145.125" height="50" style="fill: #bbb;opacity: 0.600000023841858;isolation: isolate"/>
    <rect x="557.019" y="439.25" width="145.125" height="50" style="fill: #fff;stroke: #e5e5e5"/>
    <g style="isolation: isolate">
      <path d="M579.246,459.248v10h-1.135v-10Z" style="fill: #444"/>
      <path d="M587.3,464.8v4.454h-1.12v-4.37c0-1.415-.645-2.115-1.906-2.115a1.775,1.775,0,0,0-1.3.546,2.332,2.332,0,0,0-.644,1.569v4.37h-1.121v-7.242h1.121v1.064a2.542,2.542,0,0,1,.966-.924,2.584,2.584,0,0,1,1.3-.336C586.388,461.812,587.3,462.807,587.3,464.8Z" style="fill: #444"/>
      <path d="M593.317,459.248v.967H592.07a.854.854,0,0,0-.686.238,1.109,1.109,0,0,0-.21.756v.8h4.412v7.242h-1.107v-6.3h-3.305v6.3h-1.121v-6.3h-1.821v-.938h1.821v-.826a1.994,1.994,0,0,1,.463-1.414,1.822,1.822,0,0,1,1.414-.52Z" style="fill: #444"/>
      <path d="M603.636,464.8v4.454h-1.121v-4.37c0-1.415-.644-2.115-1.9-2.115a1.772,1.772,0,0,0-1.3.546,2.328,2.328,0,0,0-.645,1.569v4.37h-1.121v-7.242h1.121v1.064a2.538,2.538,0,0,1,.967-.924,2.576,2.576,0,0,1,1.3-.336C602.726,461.812,603.636,462.807,603.636,464.8Z" style="fill: #444"/>
      <path d="M606.9,459.515a.726.726,0,0,1,.251.589.815.815,0,0,1-.251.6.883.883,0,0,1-1.206,0,.8.8,0,0,1-.238-.6.715.715,0,0,1,.238-.589.88.88,0,0,1,1.206,0Zm-.042,2.493v7.242h-1.122v-7.242Z" style="fill: #444"/>
      <path d="M610.073,459.053v4.286a2.612,2.612,0,0,1,2.4-1.527,2.856,2.856,0,0,1,2.423,1.163,4.214,4.214,0,0,1,.812,2.633,4.332,4.332,0,0,1-.812,2.69,3.01,3.01,0,0,1-2.48,1.148A2.519,2.519,0,0,1,610,468.06v1.19h-1.051v-10.2Zm.574,4.468a3.158,3.158,0,0,0-.616,2.045v.14a3.3,3.3,0,0,0,.546,1.976,1.957,1.957,0,0,0,1.7.839,2.019,2.019,0,0,0,1.765-.854,3.667,3.667,0,0,0,.519-2.059,3.332,3.332,0,0,0-.547-2.031,2.054,2.054,0,0,0-1.779-.841A1.86,1.86,0,0,0,610.647,463.521Z" style="fill: #444"/>
      <path d="M622.605,462.624a2.892,2.892,0,0,1,.645,1.976v4.65H622.2v-1.219a3.359,3.359,0,0,1-1.106.967,3.679,3.679,0,0,1-1.807.448,2.6,2.6,0,0,1-1.737-.547,1.826,1.826,0,0,1-.673-1.456,2.04,2.04,0,0,1,1-1.863,4.645,4.645,0,0,1,2.522-.616l1.736-.028v-.378c0-1.219-.63-1.822-1.891-1.822a2.3,2.3,0,0,0-1.3.323,1.574,1.574,0,0,0-.729,1.037l-1.106-.085a2.488,2.488,0,0,1,1.12-1.7,3.837,3.837,0,0,1,2.088-.5A2.959,2.959,0,0,1,622.605,462.624Zm-2.143,3.18c-1.624.028-2.437.56-2.437,1.611a.992.992,0,0,0,.407.826,1.77,1.77,0,0,0,1.091.322,2.742,2.742,0,0,0,1.822-.671,1.937,1.937,0,0,0,.784-1.5v-.617Z" style="fill: #444"/>
      <path d="M631.076,464.8v4.454h-1.121v-4.37c0-1.415-.643-2.115-1.9-2.115a1.774,1.774,0,0,0-1.3.546,2.327,2.327,0,0,0-.644,1.569v4.37h-1.122v-7.242H626.1v1.064a2.535,2.535,0,0,1,.966-.924,2.578,2.578,0,0,1,1.3-.336C630.165,461.812,631.076,462.807,631.076,464.8Z" style="fill: #444"/>
      <path d="M639.279,459.053v10.2h-1.05v-1.19a2.56,2.56,0,0,1-2.41,1.386,2.973,2.973,0,0,1-2.479-1.148,4.247,4.247,0,0,1-.813-2.69,4.13,4.13,0,0,1,.813-2.633,2.841,2.841,0,0,1,2.424-1.163,2.611,2.611,0,0,1,2.395,1.527v-4.286Zm-5.07,4.524a3.333,3.333,0,0,0-.532,2.031,3.565,3.565,0,0,0,.517,2.059,2.022,2.022,0,0,0,1.766.854,1.97,1.97,0,0,0,1.694-.839,3.392,3.392,0,0,0,.533-1.976v-.14a3.316,3.316,0,0,0-.6-2.045,1.894,1.894,0,0,0-1.583-.785A2.046,2.046,0,0,0,634.209,463.577Z" style="fill: #444"/>
      <path d="M650.425,463.885a12.928,12.928,0,0,1-2.451,3.334,16.192,16.192,0,0,0,5.533,2.466l-.631.938a16.443,16.443,0,0,1-5.673-2.718,15.107,15.107,0,0,1-5.715,2.774l-.616-.925a15.086,15.086,0,0,0,5.519-2.522,12.407,12.407,0,0,1-2.522-3.165l.869-.49a10.417,10.417,0,0,0,2.423,3,11.284,11.284,0,0,0,2.34-3.1Zm-3.684-4.412a10.9,10.9,0,0,0-.841-1.569l1.121-.2a17.092,17.092,0,0,1,.813,1.765h5.519v.966h-12.4v-.966Zm-1.163,2.045a16.173,16.173,0,0,1-3.95,3.642l-.644-.854a15.812,15.812,0,0,0,3.867-3.433Zm7.691,3.025-.743.743a25.308,25.308,0,0,0-3.852-3.768l.686-.659A27.873,27.873,0,0,1,653.269,464.543Z" style="fill: #444"/>
      <path d="M655.152,470.5l-.21-.967a9.244,9.244,0,0,0,1.05.071c.364,0,.561-.211.561-.6v-3.376c-.561.224-1.12.42-1.681.6l-.252-1.009a17.969,17.969,0,0,0,1.933-.6V461.35h-1.667v-.967h1.667V457.82h1.009v2.563h1.428v.967h-1.428v2.857a16.58,16.58,0,0,0,1.484-.756v1.023c-.49.252-.981.5-1.484.728v4.048a1.092,1.092,0,0,1-1.219,1.247Zm11.556-5.015h.883v.924h-3.53a7.714,7.714,0,0,0,3.6,3.348l-.463.953a9.139,9.139,0,0,1-3.964-4.091,7.78,7.78,0,0,1-3.992,4.076l-.658-.839a6.808,6.808,0,0,0,3.7-3.447h-3.263v-.924h.994v-3.81h3.193a16.291,16.291,0,0,0,1.2-1.947h-2.437a9.152,9.152,0,0,1-2.284,2.171l-.587-.785a7.078,7.078,0,0,0,2.857-3.389l.98.126a8.1,8.1,0,0,1-.434,1.008h2.97v.729a14.758,14.758,0,0,1-1.247,2.087h2.479Zm-4.146,0a16.752,16.752,0,0,0,.294-2.927h-1.947v2.927Zm3.25,0v-2.927H663.78a19.572,19.572,0,0,1-.252,2.927Z" style="fill: #444"/>
      <path d="M671.043,460.551V457.82h1.009v2.731h1.737v.967h-1.737v.714c.644.672,1.3,1.414,1.974,2.242l-.588.868q-.8-1.324-1.386-2.143v7.382h-1.009v-7.116a16.222,16.222,0,0,1-1.919,3.81l-.435-1.092A12.558,12.558,0,0,0,671,461.518h-2.045v-.967Zm3.348,6.6a17.157,17.157,0,0,0,.28-3.445V458.4H679.2V469c0,.238.1.364.323.364h.476a.776.776,0,0,0,.392-.084.575.575,0,0,0,.211-.406,17.967,17.967,0,0,0,.1-2.424l.925.294a22.583,22.583,0,0,1-.1,2.3,1.559,1.559,0,0,1-.42,1.036,1.79,1.79,0,0,1-1.009.238h-.574q-1.346,0-1.345-1.218v-9.749H675.68V463.7a16.689,16.689,0,0,1-.378,3.866,9.366,9.366,0,0,1-1.345,3.138l-.827-.742A8.481,8.481,0,0,0,674.391,467.148Z" style="fill: #444"/>
    </g>
  </g>
  <g>
    <rect x="317.437" y="580.5" width="145.125" height="50" style="fill: #bbb;opacity: 0.600000023841858;isolation: isolate"/>
    <rect x="315.437" y="578.5" width="145.125" height="50" style="fill: #fff;stroke: #e5e5e5"/>
    <g style="isolation: isolate">
      <path d="M359.71,597.883a16.731,16.731,0,0,1-1.975,2.857,14.044,14.044,0,0,1-2.8,2.395l-.547-.882a10.128,10.128,0,0,0,2.592-2.144,14.8,14.8,0,0,0,1.849-2.759Zm-3.25,5.715v-.967h8.363a42.515,42.515,0,0,1-.266,4.244,4.959,4.959,0,0,1-.686,2.241,1.937,1.937,0,0,1-1.513.673h-2.55l-.28-1q1.218.042,2.311.042a1.424,1.424,0,0,0,1.485-.966,16.533,16.533,0,0,0,.476-4.272h-3.488a10.667,10.667,0,0,1-1.4,3.641,9.556,9.556,0,0,1-3.222,2.7l-.644-.839a9.3,9.3,0,0,0,2.927-2.312,8.592,8.592,0,0,0,1.317-3.193Zm10.661-1.318-.673.8a11.158,11.158,0,0,1-4.538-5.421l.868-.49A9.891,9.891,0,0,0,367.121,602.28Z" style="fill: #444"/>
      <path d="M376.148,600.74v1.709H380.1v4.706a1.171,1.171,0,0,1-1.316,1.317h-1.317l-.252-.939,1.246.029c.449,0,.673-.21.673-.617v-3.557h-2.983V609.9h-.967v-6.512h-3v5.182h-.966v-5.365a21.263,21.263,0,0,1-2.283,2.018l-.644-.841a15.643,15.643,0,0,0,4.2-4.525h-3.741v-.98h4.273a13.564,13.564,0,0,0,.77-1.877l1.023.126a15.056,15.056,0,0,1-.673,1.751h6.794v.98h-7.284a15.6,15.6,0,0,1-1.765,2.592h3.292V600.74Z" style="fill: #444"/>
      <path d="M388.831,602.869v.952h-2.465v3.643c1.036-.2,2.031-.435,3.011-.687v.981c-2.017.49-4.2.9-6.528,1.232l-.237-.952c.924-.112,1.848-.253,2.745-.392v-3.825h-2.465v-.952Zm.7-3.307c-.042-.8-.056-1.624-.056-2.478h1.036c0,.868.015,1.7.057,2.478H394.9v.982h-4.272a23,23,0,0,0,1.079,5.869c.588,1.541,1.12,2.325,1.583,2.325.279-.042.574-.841.868-2.409l.91.476c-.42,2.017-.994,3.04-1.709,3.053-1.246-.055-2.283-1.625-3.123-4.677a27.321,27.321,0,0,1-.645-4.637h-6.906v-.982Zm4.413-.559-.841.42a11.9,11.9,0,0,0-1.316-1.862l.839-.407A17.333,17.333,0,0,1,393.944,599Z" style="fill: #444"/>
      <path d="M400.66,598.484c.181-.49.35-.98.49-1.484l1.022.126c-.139.462-.28.91-.434,1.358h7.172v.981h-7.55a16.172,16.172,0,0,1-1.919,3.32v7.13h-.981v-5.926c-.476.519-.966,1.009-1.5,1.486l-.629-.8a15.5,15.5,0,0,0,3.921-5.211h-3.4v-.981ZM404.6,605v-1.3a14.423,14.423,0,0,0,2.283-1.583h-5.267v-.938h6.555v.938a19.938,19.938,0,0,1-2.563,2V605h3.5v.967h-3.5v2.647a1.105,1.105,0,0,1-1.246,1.246h-1.751l-.267-.952c.505.014,1.037.029,1.612.029a.578.578,0,0,0,.644-.645v-2.325h-4.062V605Z" style="fill: #444"/>
      <path d="M410.6,603.653l-.336-1.078a16.223,16.223,0,0,0,2.4-5.519l.91.421a19.852,19.852,0,0,1-.939,2.716v9.722h-.98V602.1A18.662,18.662,0,0,1,410.6,603.653Zm5.127-2.241v5.94c.364-.393.742-.827,1.148-1.3l.238.994a19.055,19.055,0,0,1-2.24,2.367l-.407-.924a.717.717,0,0,0,.294-.547v-5.588h-1.568v-.939Zm.854-1.709-.742.742a14.442,14.442,0,0,0-2-2.156l.687-.673A16.024,16.024,0,0,1,416.578,599.7Zm2.4-1.008v-1.611h.91V598.7h1.583v.826q.42-.84.8-1.722l.839.433a17.479,17.479,0,0,1-1.652,3.152h1.61v.925h-2.3a12.53,12.53,0,0,1-1.247,1.316h2.857v6.248h-.952v-.589h-2.619v.589h-.939v-5.015c-.337.2-.673.365-1.009.533l-.5-.8a10.156,10.156,0,0,0,3.18-2.283h-2.55v-.925h1.99v-1.807h-1.681V598.7Zm2.451,5.813h-2.619v1.513h2.619Zm-2.619,3.894h2.619v-1.541h-2.619Zm2.632-8.825h-1.554v1.807h.42A16.246,16.246,0,0,0,421.438,599.577Z" style="fill: #444"/>
      <path d="M427.917,598.429V597.07h1.022v1.359h3.67V597.07h1.023v1.359h3.235v.98h-3.235v1.331h-1.023v-1.331h-3.67v1.317h-1.022v-1.317h-3.236v-.98Zm-2.62,3.992v-.967h10.436c-.07,2.339-.127,3.74-.169,4.189a2.541,2.541,0,0,1-.448,1.526,1.756,1.756,0,0,1-1.345.421c-.406,0-.9,0-1.484.027l-.28-1.008c.5,0,1.009.014,1.527.014a1.041,1.041,0,0,0,.8-.28,2.648,2.648,0,0,0,.322-1.387c.014-.378.042-1.219.071-2.535H430.3v7.437h-1.023v-7.437Z" style="fill: #444"/>
      <path d="M441.062,606.693a14.549,14.549,0,0,1-1.834,3.165l-.828-.6a12.051,12.051,0,0,0,1.808-2.97Zm3.978-9.609v1.358h5.436v.953H445.04v1.779h4.469v4.5h-9.274v-4.5h3.811v-4.09Zm3.46,5.043h-7.256v2.605H448.5Zm-4.482,7.578-1.008.224a25.6,25.6,0,0,0-.687-3.04l.939-.2C443.542,607.617,443.794,608.626,444.018,609.705Zm3.263-.028-.994.223a16.541,16.541,0,0,0-1.051-3.151l.953-.2A22.533,22.533,0,0,1,447.281,609.677Zm3.824-.336-.839.588a23.1,23.1,0,0,0-2.018-3.138l.813-.519A25.01,25.01,0,0,1,451.105,609.341Z" style="fill: #444"/>
    </g>
    <path d="M325.687,607.262c2.15,1.348,5.824,2.238,10,2.238s7.851-.89,10-2.238V613.5h2v-9h0v-9c0-2.761-5.372-5-12-5s-12,2.239-12,5v18h2Zm10-14.762c5.523,0,10,1.343,10,3s-4.477,3-10,3-10-1.343-10-3S330.165,592.5,335.687,592.5Zm-10,5.762c2.15,1.348,5.824,2.238,10,2.238s7.851-.89,10-2.238V604.5c0,1.656-4.478,3-10,3s-10-1.343-10-3h0Zm10,18.238c-5.522,0-10-1.343-10-3h-2c0,2.762,5.372,5,12,5s12-2.238,12-5h-2C345.688,615.157,341.21,616.5,335.687,616.5Z" style="fill: #00a4ff;fill-rule: evenodd"/>
  </g>
  <g>
    <rect x="73.438" y="60" width="150" height="51" style="fill: #bbb;opacity: 0.600000023841858;isolation: isolate"/>
    <rect x="71.438" y="58" width="150" height="51" style="fill: #fff;stroke: #e5e5e5"/>
    <g style="isolation: isolate">
      <path d="M155.062,78.685a3.517,3.517,0,0,1,1.344,2.381H155.3a2.564,2.564,0,0,0-1.065-1.681,3.393,3.393,0,0,0-1.988-.56,3.2,3.2,0,0,0-2.69,1.219,4.74,4.74,0,0,0-.883,3,4.6,4.6,0,0,0,.869,2.97,3.218,3.218,0,0,0,2.675,1.163,3.116,3.116,0,0,0,3.222-2.606h1.107a4.574,4.574,0,0,1-7.9,2.087,5.522,5.522,0,0,1-1.12-3.614,5.629,5.629,0,0,1,1.148-3.656A4.308,4.308,0,0,1,152.26,77.8,4.435,4.435,0,0,1,155.062,78.685Z" style="fill: #444"/>
      <path d="M159.273,78v9.007h5.786V88h-6.92V78Z" style="fill: #444"/>
      <path d="M170.838,78a3.4,3.4,0,0,1,2.214.672,2.287,2.287,0,0,1,.8,1.849,2.429,2.429,0,0,1-.449,1.457,2.643,2.643,0,0,1-1.218.8,2.5,2.5,0,0,1,1.527.813,2.383,2.383,0,0,1,.561,1.625,2.48,2.48,0,0,1-1.038,2.184,4.32,4.32,0,0,1-2.422.6H166.37V78Zm-3.319,4.37h3.04a2.581,2.581,0,0,0,1.6-.434,1.582,1.582,0,0,0,.56-1.3,1.491,1.491,0,0,0-.546-1.261,2.589,2.589,0,0,0-1.6-.406h-3.053Zm0,4.664h3.193a3.191,3.191,0,0,0,1.667-.391,1.6,1.6,0,0,0,.742-1.444,1.664,1.664,0,0,0-.643-1.428,2.891,2.891,0,0,0-1.766-.449h-3.193Z" style="fill: #444"/>
    </g>
  </g>
  <g>
    <rect x="253.437" y="60" width="150" height="51" style="fill: #bbb;opacity: 0.600000023841858;isolation: isolate"/>
    <rect x="251.437" y="58" width="150" height="51" style="fill: #fff;stroke: #e5e5e5"/>
    <g style="isolation: isolate">
      <path d="M316.461,78.685a3.514,3.514,0,0,1,1.345,2.381H316.7a2.564,2.564,0,0,0-1.065-1.681,3.394,3.394,0,0,0-1.989-.56,3.2,3.2,0,0,0-2.689,1.219,4.74,4.74,0,0,0-.883,3,4.6,4.6,0,0,0,.869,2.97,3.217,3.217,0,0,0,2.675,1.163,3.118,3.118,0,0,0,3.222-2.606h1.107a4.574,4.574,0,0,1-7.9,2.087,5.522,5.522,0,0,1-1.12-3.614,5.629,5.629,0,0,1,1.148-3.656A4.308,4.308,0,0,1,313.66,77.8,4.431,4.431,0,0,1,316.461,78.685Z" style="fill: #444"/>
      <path d="M320.729,77.8V88h-1.106V77.8Z" style="fill: #444"/>
      <path d="M328.514,81.683a4.4,4.4,0,0,1,.015,5.379,3.288,3.288,0,0,1-2.606,1.134,3.218,3.218,0,0,1-2.591-1.134,3.908,3.908,0,0,1-.925-2.676,3.975,3.975,0,0,1,.925-2.7,3.555,3.555,0,0,1,5.182,0Zm-4.384.7a3.757,3.757,0,0,0,0,3.992,2.077,2.077,0,0,0,1.793.883,2.154,2.154,0,0,0,1.807-.883,3.757,3.757,0,0,0,0-3.992,2.156,2.156,0,0,0-1.807-.883A2.079,2.079,0,0,0,324.13,82.383Z" style="fill: #444"/>
      <path d="M332.012,80.758v4.427a2.3,2.3,0,0,0,.434,1.541,1.813,1.813,0,0,0,1.429.517,1.833,1.833,0,0,0,1.289-.559,2.564,2.564,0,0,0,.714-1.513V80.758H337V88h-1.121V86.879a2.729,2.729,0,0,1-2.353,1.317c-1.765,0-2.634-1-2.634-2.956V80.758Z" style="fill: #444"/>
      <path d="M345.2,77.8V88h-1.051V86.81a2.56,2.56,0,0,1-2.409,1.386,2.973,2.973,0,0,1-2.48-1.148,4.246,4.246,0,0,1-.812-2.69,4.129,4.129,0,0,1,.812-2.633,2.841,2.841,0,0,1,2.424-1.163,2.613,2.613,0,0,1,2.4,1.527V77.8Zm-5.071,4.524a3.333,3.333,0,0,0-.532,2.031,3.557,3.557,0,0,0,.518,2.059,2.019,2.019,0,0,0,1.765.854,1.972,1.972,0,0,0,1.695-.839,3.4,3.4,0,0,0,.532-1.976v-.14a3.316,3.316,0,0,0-.6-2.045,1.892,1.892,0,0,0-1.583-.785A2.046,2.046,0,0,0,340.132,82.327Z" style="fill: #444"/>
      <path d="M352.886,78v4.342h5.785V78h1.149V88h-1.149V83.336h-5.785V88h-1.148V78Z" style="fill: #444"/>
      <path d="M367.841,78.573a3.271,3.271,0,0,1,1.149,2.381h-1.135a2.522,2.522,0,0,0-.841-1.611,2.921,2.921,0,0,0-1.89-.532,3.38,3.38,0,0,0-1.738.364,1.386,1.386,0,0,0,.141,2.494,11.62,11.62,0,0,0,1.835.63,13.5,13.5,0,0,1,2.6.967,2.359,2.359,0,0,1,1.246,2.115,2.428,2.428,0,0,1-1.05,2.073,4.845,4.845,0,0,1-2.83.742,4.523,4.523,0,0,1-2.773-.757,3.564,3.564,0,0,1-1.3-2.745h1.135a2.75,2.75,0,0,0,.91,1.919,3.217,3.217,0,0,0,2.031.561,3.8,3.8,0,0,0,1.99-.463,1.418,1.418,0,0,0,.756-1.261,1.625,1.625,0,0,0-1-1.471,12.089,12.089,0,0,0-2.115-.728,16.677,16.677,0,0,1-2.3-.812,2.114,2.114,0,0,1-1.148-1.933,2.28,2.28,0,0,1,1.106-2.031,4.446,4.446,0,0,1,2.549-.672A4.153,4.153,0,0,1,367.841,78.573Z" style="fill: #444"/>
      <path d="M372.094,78l3.726,8.53h.042L379.574,78H381V88h-1.148V80.044h-.042L376.352,88h-1.036l-3.46-7.956h-.042V88h-1.148V78Z" style="fill: #444"/>
    </g>
  </g>
  <g>
    <rect x="433.437" y="60" width="150" height="51" style="fill: #bbb;opacity: 0.600000023841858;isolation: isolate"/>
    <rect x="431.437" y="58" width="150" height="51" style="fill: #fff;stroke: #e5e5e5"/>
    <g style="isolation: isolate">
      <path d="M512.027,78a3.394,3.394,0,0,1,2.213.672,2.287,2.287,0,0,1,.8,1.849,2.428,2.428,0,0,1-.448,1.457,2.653,2.653,0,0,1-1.218.8,2.5,2.5,0,0,1,1.526.813,2.378,2.378,0,0,1,.561,1.625,2.481,2.481,0,0,1-1.037,2.184A4.326,4.326,0,0,1,512,88h-4.44V78Zm-3.32,4.37h3.04a2.586,2.586,0,0,0,1.6-.434,1.585,1.585,0,0,0,.56-1.3,1.489,1.489,0,0,0-.547-1.261,2.586,2.586,0,0,0-1.6-.406h-3.054Zm0,4.664H511.9a3.184,3.184,0,0,0,1.666-.391,1.6,1.6,0,0,0,.744-1.444,1.663,1.663,0,0,0-.645-1.428,2.885,2.885,0,0,0-1.765-.449h-3.194Z" style="fill: #444"/>
      <path d="M524.292,78.713a3.9,3.9,0,0,1,1.316,2.493H524.46a2.824,2.824,0,0,0-1.009-1.737,3.339,3.339,0,0,0-2.142-.644,3.186,3.186,0,0,0-2.592,1.149,4.565,4.565,0,0,0-.952,3.067,4.474,4.474,0,0,0,.923,2.984,3.663,3.663,0,0,0,2.942,1.163,5.814,5.814,0,0,0,1.569-.224,4.811,4.811,0,0,0,1.261-.561V83.854h-3.138v-1H525.6v4.09a5.308,5.308,0,0,1-1.751.911,7.85,7.85,0,0,1-2.325.336,4.612,4.612,0,0,1-3.685-1.512,5.374,5.374,0,0,1-1.219-3.643,5.5,5.5,0,0,1,1.205-3.67,4.253,4.253,0,0,1,3.489-1.568A4.52,4.52,0,0,1,524.292,78.713Z" style="fill: #444"/>
      <path d="M531.6,78q3.447,0,3.446,2.941c0,1.975-1.163,2.97-3.46,2.97h-2.928V88h-1.148V78Zm-2.942,4.916h2.871a2.766,2.766,0,0,0,1.793-.49,1.839,1.839,0,0,0,.576-1.485,1.711,1.711,0,0,0-.589-1.457,2.675,2.675,0,0,0-1.78-.49h-2.871Z" style="fill: #444"/>
    </g>
  </g>
  <g>
    <rect x="613.562" y="60" width="150" height="51" style="fill: #bbb;opacity: 0.600000023841858;isolation: isolate"/>
    <rect x="611.562" y="58" width="150" height="51" style="fill: #fff;stroke: #e5e5e5"/>
    <g style="isolation: isolate">
      <path d="M692.039,78a3.393,3.393,0,0,1,2.213.672,2.285,2.285,0,0,1,.8,1.849,2.435,2.435,0,0,1-.448,1.457,2.651,2.651,0,0,1-1.219.8,2.5,2.5,0,0,1,1.527.813,2.383,2.383,0,0,1,.561,1.625,2.481,2.481,0,0,1-1.037,2.184,4.328,4.328,0,0,1-2.424.6h-4.44V78Zm-3.319,4.37h3.039a2.579,2.579,0,0,0,1.6-.434,1.583,1.583,0,0,0,.561-1.3,1.491,1.491,0,0,0-.546-1.261,2.587,2.587,0,0,0-1.6-.406H688.72Zm0,4.664h3.193a3.191,3.191,0,0,0,1.667-.391,1.6,1.6,0,0,0,.742-1.444,1.66,1.66,0,0,0-.644-1.428,2.885,2.885,0,0,0-1.765-.449H688.72Z" style="fill: #444"/>
      <path d="M704.164,78.685a3.518,3.518,0,0,1,1.345,2.381H704.4a2.563,2.563,0,0,0-1.064-1.681,3.394,3.394,0,0,0-1.989-.56,3.206,3.206,0,0,0-2.69,1.219,4.74,4.74,0,0,0-.882,3,4.6,4.6,0,0,0,.869,2.97,3.218,3.218,0,0,0,2.675,1.163,3.118,3.118,0,0,0,3.222-2.606h1.106a4.573,4.573,0,0,1-7.9,2.087,5.516,5.516,0,0,1-1.121-3.614,5.63,5.63,0,0,1,1.149-3.656,4.305,4.305,0,0,1,3.586-1.582A4.433,4.433,0,0,1,704.164,78.685Z" style="fill: #444"/>
      <path d="M708.67,78l3.726,8.53h.042L716.149,78h1.429V88H716.43V80.044h-.042L712.928,88h-1.036l-3.46-7.956h-.042V88h-1.149V78Z" style="fill: #444"/>
    </g>
  </g>
  <g>
    <rect x="348" y="176" width="137" height="50" style="fill: #bbb;opacity: 0.600000023841858;isolation: isolate"/>
    <rect x="346" y="174" width="137" height="50" style="fill: #fff;stroke: #e5e5e5"/>
    <g>
      <g>
        <path d="M395,195.12v8H369v-8h26m2-2H367v12h30Z" style="fill: #878787"/>
        <polygon points="373 198.13 371 198.13 371 200.13 373 200.13 373 198.13 373 198.13" style="fill: #878787"/>
        <polygon points="376 198.13 374 198.13 374 200.13 376 200.13 376 198.13 376 198.13" style="fill: #878787"/>
        <polygon points="379 198.13 377 198.13 377 200.13 379 200.13 379 198.13 379 198.13" style="fill: #878787"/>
      </g>
      <g style="isolation: isolate">
        <path d="M409.051,205.274l-.211-.98c.379.028.743.057,1.079.057a.493.493,0,0,0,.56-.547v-3.446c-.56.224-1.134.434-1.708.617l-.253-1.009a16.739,16.739,0,0,0,1.961-.63v-3.124h-1.708v-.967h1.708V192.6h1.037v2.647h1.163v.967h-1.163V198.9c.392-.2.784-.392,1.176-.6v1.022q-.588.315-1.176.589v4.146a1.091,1.091,0,0,1-1.247,1.218Zm7.942-6.807c-.14.379-.3.742-.463,1.093h4.805v.98h-1.541a5.379,5.379,0,0,1-1.3,2.634c.953.448,1.878.924,2.76,1.429l-.546.812a30.5,30.5,0,0,0-2.928-1.569,11.4,11.4,0,0,1-4.412,1.611l-.392-.911a11.926,11.926,0,0,0,3.754-1.191c-.855-.391-1.765-.77-2.746-1.162.378-.574.715-1.121,1.009-1.653h-1.877v-.98h2.395c.2-.42.364-.813.518-1.206ZM416.4,197h1.373a14.451,14.451,0,0,0,.994-2.227l.954.336a13.262,13.262,0,0,1-.883,1.891h2.269v.967H413.3V197h2.143a18.47,18.47,0,0,0-.855-1.681l.827-.392A16.646,16.646,0,0,1,416.4,197Zm1.318-3.193h3.137v.924h-7.242V193.8H416.7a12.539,12.539,0,0,0-.49-1.163l1.051-.168C417.413,192.864,417.567,193.312,417.722,193.8Zm-1.709,6.737c-.253.435-.519.855-.8,1.247q1.218.462,2.353.966a4.39,4.39,0,0,0,1.275-2.213Z" style="fill: #444"/>
        <path d="M426.076,193.088l.841-.532a9.894,9.894,0,0,1,3.165,4.72c1.317,3.348,3.068,5.715,5.281,7.1l-.631.812c-2.268-1.372-4.118-3.921-5.56-7.62-.084-.223-.154-.42-.225-.588a13.418,13.418,0,0,1-5.8,8.223l-.6-.854a13.593,13.593,0,0,0,5.842-8.545A7.98,7.98,0,0,0,426.076,193.088Z" style="fill: #444"/>
        <path d="M445.932,205.316l-.267-.98,1.345.042a.516.516,0,0,0,.589-.574V194.1h-9.19v11.276h-.994V193.13h11.178v10.9a1.124,1.124,0,0,1-1.247,1.288Zm-4.665-5.112a14.382,14.382,0,0,1-1.835,3.529l-.645-.784a14.318,14.318,0,0,0,1.808-3.683c-.673-.9-1.331-1.709-1.976-2.452l.631-.6a22.573,22.573,0,0,1,1.667,1.989,27.967,27.967,0,0,0,.658-3.166l.925.168a28.6,28.6,0,0,1-.883,3.95c.532.729,1.093,1.528,1.653,2.4l-.672.672C442.149,201.507,441.7,200.834,441.267,200.2Zm4.02.336a15.064,15.064,0,0,1-1.975,3.53l-.644-.77a14.8,14.8,0,0,0,1.961-3.74c-.645-.953-1.275-1.822-1.919-2.606l.63-.6a24.691,24.691,0,0,1,1.653,2.115,28.208,28.208,0,0,0,.742-3.39l.953.168a27.034,27.034,0,0,1-1.008,4.217c.532.812,1.106,1.723,1.708,2.731l-.686.672C446.226,202.039,445.749,201.269,445.287,200.54Z" style="fill: #444"/>
        <path d="M460.576,192.752a12.5,12.5,0,0,1-1.261,2.717H462.2v.981h-4.678v.658a13.476,13.476,0,0,1-.2,1.948h5.687v.98h-5.1c.687,1.891,2.493,3.361,5.436,4.412l-.589.939c-3.081-1.247-4.987-2.942-5.743-5.071a7.424,7.424,0,0,1-1.065,2.1,9.253,9.253,0,0,1-4.664,2.886l-.547-.883a8.816,8.816,0,0,0,4.483-2.717,6.567,6.567,0,0,0,.8-1.667h-5.029v-.98h5.281a10.694,10.694,0,0,0,.21-1.948v-.658h-4.692v-.981h6.4a14.046,14.046,0,0,0,1.415-2.983Zm-4.637,2.241-.911.463a16.55,16.55,0,0,0-1.61-2.4l.925-.448A22.164,22.164,0,0,1,455.939,194.993Z" style="fill: #444"/>
      </g>
    </g>
  </g>
  <g>
    <path d="M620.65,324.5h12.5" style="fill: none;stroke: #888"/>
    <polygon points="628.65 329 634.65 324.5 628.65 320 628.65 329" style="fill: #888"/>
    <path d="M616.15,324.5h9" style="fill: none;stroke: red;stroke-opacity: 0;stroke-width: 15px"/>
  </g>
  <g>
    <polygon points="625.2 320 619.2 324.5 625.2 329 625.2 320" style="fill: #888"/>
    <path d="M632.2,324.5h-9" style="fill: none;stroke: red;stroke-opacity: 0;stroke-width: 15px"/>
  </g>
  <path d="M663.6,69.575h0Zm-13,15a13,13,0,0,1,6.31-11.13l-1-1.72a15,15,0,0,0,0,25.7l1-1.71A13,13,0,0,1,650.6,84.575Zm20.71-12.85-1,1.71a13,13,0,0,1,0,22.27l1,1.71a15,15,0,0,0,0-25.7Zm-4,4.67-1,1.72h0l-2.71,4.46h0a1.981,1.981,0,1,0,1.74,1l2.68-4.46a7,7,0,1,1-8-.56l-1-1.72a9,9,0,1,0,8.38-.48Z" style="fill: #00a4ff"/>
  <path d="M128.8,82a2,2,0,1,0,2,2A2,2,0,0,0,128.8,82Zm-4,15a13,13,0,1,1,12.9-15h2a15.034,15.034,0,1,0,0,4h-2A13.182,13.182,0,0,1,124.8,97Zm0-17V78h-6V90h6V88h-4V85h4V83h-4V80Zm4-3a2,2,0,1,0,2,2A2,2,0,0,0,128.8,77Zm0,10a2,2,0,1,0,2,2A2,2,0,0,0,128.8,87Z" style="fill: #00a4ff"/>
  <path d="M498.387,71.983v-2h-26V84.291s.1,10.8,13,13.775c12.9-2.974,13-13.775,13-13.775V74.332l-13,7.431-11-6.287V71.983Zm-2,5.8v6.5a11.91,11.91,0,0,1-1.4,4.846c-1.674,3.166-4.6,5.368-8.6,6.586V83.5Zm-12,5.716V95.73c-9.7-2.968-10-11.1-10-11.438V77.779Z" style="fill: #00a4ff"/>
  <path d="M301.937,69.482h-26V84.707s.1,10.8,13,13.775c12.9-2.974,13-13.775,13-13.775V75.482h-2V84.7a11.9,11.9,0,0,1-1.4,4.846c-1.812,3.428-5.075,5.741-9.6,6.88-10.68-2.7-11-11.365-11-11.718V71.482h24Zm-13,4.621a5,5,0,0,0-5,5v1h-1v9h12v-9h-1v-1A5,5,0,0,0,288.937,74.1Zm-3,5a3,3,0,0,1,6,0v1h-6Zm7,8h-8v-5h8Z" style="fill: #00a4ff"/>
  <g>
    <rect x="474.509" y="580.5" width="145.125" height="50" style="fill: #bbb;opacity: 0.600000023841858;isolation: isolate"/>
    <rect x="472.509" y="578.5" width="145.125" height="50" style="fill: #fff;stroke: #e5e5e5"/>
    <g style="isolation: isolate">
      <path d="M516.782,597.883a16.845,16.845,0,0,1-1.975,2.857,14.052,14.052,0,0,1-2.8,2.395l-.546-.882a10.124,10.124,0,0,0,2.591-2.144,14.748,14.748,0,0,0,1.849-2.759Zm-3.25,5.715v-.967H521.9a42.515,42.515,0,0,1-.266,4.244,4.957,4.957,0,0,1-.687,2.241,1.933,1.933,0,0,1-1.512.673h-2.55l-.28-1q1.218.042,2.311.042a1.424,1.424,0,0,0,1.485-.966,16.58,16.58,0,0,0,.476-4.272h-3.488a10.666,10.666,0,0,1-1.4,3.641,9.552,9.552,0,0,1-3.221,2.7l-.645-.839a9.3,9.3,0,0,0,2.928-2.312,8.608,8.608,0,0,0,1.316-3.193Zm10.66-1.318-.672.8a11.166,11.166,0,0,1-4.539-5.421l.869-.49A9.889,9.889,0,0,0,524.192,602.28Z" style="fill: #444"/>
      <path d="M533.22,600.74v1.709h3.949v4.706a1.171,1.171,0,0,1-1.316,1.317h-1.317l-.252-.939,1.246.029c.449,0,.673-.21.673-.617v-3.557H533.22V609.9h-.967v-6.512h-3v5.182h-.966v-5.365a21.263,21.263,0,0,1-2.283,2.018l-.645-.841a15.616,15.616,0,0,0,4.2-4.525h-3.74v-.98H530.1a13.688,13.688,0,0,0,.77-1.877l1.023.126a15.238,15.238,0,0,1-.673,1.751h6.794v.98h-7.284a15.6,15.6,0,0,1-1.765,2.592h3.292V600.74Z" style="fill: #444"/>
      <path d="M545.9,602.869v.952h-2.464v3.643c1.036-.2,2.031-.435,3.011-.687v.981c-2.017.49-4.2.9-6.528,1.232l-.237-.952c.923-.112,1.848-.253,2.745-.392v-3.825h-2.465v-.952Zm.7-3.307c-.042-.8-.056-1.624-.056-2.478h1.036c0,.868.015,1.7.057,2.478h4.328v.982H547.7a23.04,23.04,0,0,0,1.079,5.869c.588,1.541,1.121,2.325,1.583,2.325.28-.042.575-.841.869-2.409l.91.476c-.42,2.017-.994,3.04-1.709,3.053-1.246-.055-2.283-1.625-3.123-4.677a27.12,27.12,0,0,1-.645-4.637h-6.906v-.982Zm4.413-.559-.841.42a11.841,11.841,0,0,0-1.317-1.862l.84-.407A17.333,17.333,0,0,1,551.016,599Z" style="fill: #444"/>
      <path d="M557.731,598.484c.182-.49.351-.98.491-1.484l1.022.126c-.14.462-.28.91-.434,1.358h7.171v.981h-7.549a16.172,16.172,0,0,1-1.919,3.32v7.13h-.981v-5.926c-.476.519-.967,1.009-1.5,1.486l-.63-.8a15.506,15.506,0,0,0,3.922-5.211h-3.4v-.981ZM561.668,605v-1.3a14.423,14.423,0,0,0,2.283-1.583h-5.267v-.938h6.555v.938a20.007,20.007,0,0,1-2.563,2V605h3.5v.967h-3.5v2.647a1.105,1.105,0,0,1-1.246,1.246h-1.751l-.267-.952c.5.014,1.037.029,1.611.029a.578.578,0,0,0,.645-.645v-2.325h-4.063V605Z" style="fill: #444"/>
      <path d="M567.669,603.653l-.336-1.078a16.262,16.262,0,0,0,2.4-5.519l.91.421a19.988,19.988,0,0,1-.939,2.716v9.722h-.98V602.1Q568.236,602.9,567.669,603.653Zm5.127-2.241v5.94c.364-.393.742-.827,1.148-1.3l.239.994a18.994,18.994,0,0,1-2.242,2.367l-.406-.924a.721.721,0,0,0,.294-.547v-5.588h-1.568v-.939Zm.854-1.709-.742.742a14.442,14.442,0,0,0-2-2.156l.687-.673A16.024,16.024,0,0,1,573.65,599.7Zm2.4-1.008v-1.611h.91V598.7h1.583v.826q.42-.84.8-1.722l.84.433a17.481,17.481,0,0,1-1.653,3.152h1.611v.925h-2.3a12.53,12.53,0,0,1-1.247,1.316h2.857v6.248H578.5v-.589h-2.619v.589h-.939v-5.015c-.336.2-.672.365-1.008.533l-.5-.8a10.152,10.152,0,0,0,3.179-2.283h-2.549v-.925h1.989v-1.807h-1.681V598.7Zm2.451,5.813h-2.619v1.513H578.5Zm-2.619,3.894H578.5v-1.541h-2.619Zm2.633-8.825h-1.555v1.807h.42A16.4,16.4,0,0,0,578.511,599.577Z" style="fill: #444"/>
      <path d="M584.989,598.429V597.07h1.023v1.359h3.67V597.07H590.7v1.359h3.235v.98H590.7v1.331h-1.022v-1.331h-3.67v1.317h-1.023v-1.317h-3.236v-.98Zm-2.62,3.992v-.967h10.437c-.071,2.339-.127,3.74-.169,4.189a2.547,2.547,0,0,1-.449,1.526,1.753,1.753,0,0,1-1.344.421c-.406,0-.9,0-1.485.027l-.28-1.008c.5,0,1.009.014,1.527.014a1.039,1.039,0,0,0,.8-.28,2.645,2.645,0,0,0,.323-1.387c.013-.378.042-1.219.07-2.535H587.37v7.437h-1.022v-7.437Z" style="fill: #444"/>
      <path d="M598.135,606.693a14.551,14.551,0,0,1-1.835,3.165l-.827-.6a12.079,12.079,0,0,0,1.807-2.97Zm3.977-9.609v1.358h5.436v.953h-5.436v1.779h4.469v4.5h-9.273v-4.5h3.81v-4.09Zm3.46,5.043h-7.256v2.605h7.256Zm-4.482,7.578-1.008.224a25.612,25.612,0,0,0-.686-3.04l.938-.2C600.614,607.617,600.866,608.626,601.09,609.705Zm3.264-.028-1,.223a16.613,16.613,0,0,0-1.05-3.151l.953-.2A22.665,22.665,0,0,1,604.354,609.677Zm3.824-.336-.84.588a23,23,0,0,0-2.018-3.138l.813-.519A25.15,25.15,0,0,1,608.178,609.341Z" style="fill: #444"/>
    </g>
    <path d="M482.759,607.262c2.15,1.348,5.824,2.238,10,2.238s7.851-.89,10-2.238V613.5h2v-9h0v-9c0-2.761-5.372-5-12-5s-12,2.239-12,5v18h2Zm10-14.762c5.523,0,10,1.343,10,3s-4.477,3-10,3-10-1.343-10-3S487.236,592.5,492.759,592.5Zm-10,5.762c2.15,1.348,5.824,2.238,10,2.238s7.851-.89,10-2.238V604.5c0,1.656-4.478,3-10,3s-10-1.343-10-3h0Zm10,18.238c-5.522,0-10-1.343-10-3h-2c0,2.761,5.373,5,12,5s12-2.239,12-5h-2C502.76,615.157,498.282,616.5,492.759,616.5Z" style="fill: #00a4ff;fill-rule: evenodd"/>
  </g>
  <g>
    <rect x="631.581" y="580.5" width="145.125" height="50" style="fill: #bbb;opacity: 0.600000023841858;isolation: isolate"/>
    <rect x="629.581" y="578.5" width="145.125" height="50" style="fill: #fff;stroke: #e5e5e5"/>
    <g style="isolation: isolate">
      <path d="M673.854,597.883a16.845,16.845,0,0,1-1.975,2.857,14.024,14.024,0,0,1-2.8,2.395l-.546-.882a10.107,10.107,0,0,0,2.591-2.144,14.8,14.8,0,0,0,1.85-2.759ZM670.6,603.6v-.967h8.363a42.515,42.515,0,0,1-.266,4.244,4.959,4.959,0,0,1-.686,2.241,1.937,1.937,0,0,1-1.513.673h-2.55l-.28-1q1.218.042,2.311.042a1.424,1.424,0,0,0,1.485-.966,16.533,16.533,0,0,0,.476-4.272h-3.488a10.687,10.687,0,0,1-1.4,3.641,9.556,9.556,0,0,1-3.222,2.7l-.645-.839a9.283,9.283,0,0,0,2.928-2.312,8.608,8.608,0,0,0,1.317-3.193Zm10.661-1.318-.673.8a11.158,11.158,0,0,1-4.538-5.421l.868-.49A9.891,9.891,0,0,0,681.265,602.28Z" style="fill: #444"/>
      <path d="M690.292,600.74v1.709h3.949v4.706a1.171,1.171,0,0,1-1.316,1.317h-1.317l-.252-.939,1.247.029c.448,0,.672-.21.672-.617v-3.557h-2.983V609.9h-.967v-6.512h-3v5.182h-.966v-5.365a21.263,21.263,0,0,1-2.283,2.018l-.644-.841a15.643,15.643,0,0,0,4.2-4.525H682.9v-.98h4.272a13.441,13.441,0,0,0,.77-1.877l1.023.126a15.056,15.056,0,0,1-.673,1.751h6.794v.98H687.8a15.6,15.6,0,0,1-1.765,2.592h3.292V600.74Z" style="fill: #444"/>
      <path d="M702.975,602.869v.952H700.51v3.643c1.036-.2,2.031-.435,3.011-.687v.981c-2.017.49-4.2.9-6.528,1.232l-.237-.952c.924-.112,1.848-.253,2.745-.392v-3.825h-2.465v-.952Zm.7-3.307c-.042-.8-.056-1.624-.056-2.478h1.036c0,.868.015,1.7.057,2.478h4.328v.982h-4.272a23,23,0,0,0,1.079,5.869c.588,1.541,1.12,2.325,1.583,2.325.279-.042.574-.841.868-2.409l.91.476c-.42,2.017-.994,3.04-1.709,3.053-1.246-.055-2.283-1.625-3.123-4.677a27.321,27.321,0,0,1-.645-4.637h-6.906v-.982Zm4.413-.559-.841.42a11.9,11.9,0,0,0-1.316-1.862l.84-.407A17.472,17.472,0,0,1,708.088,599Z" style="fill: #444"/>
      <path d="M714.8,598.484c.181-.49.35-.98.49-1.484l1.022.126c-.139.462-.28.91-.434,1.358h7.172v.981H715.5a16.172,16.172,0,0,1-1.919,3.32v7.13H712.6v-5.926c-.476.519-.966,1.009-1.5,1.486l-.629-.8a15.5,15.5,0,0,0,3.921-5.211h-3.4v-.981ZM718.74,605v-1.3a14.423,14.423,0,0,0,2.283-1.583h-5.267v-.938h6.556v.938a20.019,20.019,0,0,1-2.564,2V605h3.5v.967h-3.5v2.647a1.105,1.105,0,0,1-1.246,1.246h-1.751l-.267-.952c.5.014,1.037.029,1.612.029a.578.578,0,0,0,.644-.645v-2.325h-4.062V605Z" style="fill: #444"/>
      <path d="M724.741,603.653l-.336-1.078a16.223,16.223,0,0,0,2.4-5.519l.91.421a19.852,19.852,0,0,1-.939,2.716v9.722h-.98V602.1A18.662,18.662,0,0,1,724.741,603.653Zm5.127-2.241v5.94c.364-.393.742-.827,1.149-1.3l.238.994a18.987,18.987,0,0,1-2.241,2.367l-.407-.924a.717.717,0,0,0,.294-.547v-5.588h-1.568v-.939Zm.855-1.709-.743.742a14.483,14.483,0,0,0-2-2.156l.686-.673A16.036,16.036,0,0,1,730.723,599.7Zm2.4-1.008v-1.611h.91V598.7h1.583v.826q.422-.84.8-1.722l.84.433a17.543,17.543,0,0,1-1.652,3.152h1.61v.925h-2.3a12.326,12.326,0,0,1-1.247,1.316h2.857v6.248h-.952v-.589H732.95v.589h-.938v-5.015c-.337.2-.673.365-1.009.533l-.5-.8a10.168,10.168,0,0,0,3.18-2.283h-2.55v-.925h1.989v-1.807h-1.68V598.7Zm2.451,5.813H732.95v1.513h2.619ZM732.95,608.4h2.619v-1.541H732.95Zm2.633-8.825h-1.555v1.807h.42A16.4,16.4,0,0,0,735.583,599.577Z" style="fill: #444"/>
      <path d="M742.062,598.429V597.07h1.022v1.359h3.67V597.07h1.022v1.359h3.236v.98h-3.236v1.331h-1.022v-1.331h-3.67v1.317h-1.022v-1.317h-3.237v-.98Zm-2.621,3.992v-.967h10.437c-.07,2.339-.127,3.74-.169,4.189a2.548,2.548,0,0,1-.448,1.526,1.756,1.756,0,0,1-1.345.421c-.406,0-.9,0-1.484.027l-.281-1.008c.5,0,1.009.014,1.528.014a1.041,1.041,0,0,0,.8-.28,2.648,2.648,0,0,0,.322-1.387c.013-.378.042-1.219.07-2.535h-4.427v7.437H743.42v-7.437Z" style="fill: #444"/>
      <path d="M755.207,606.693a14.551,14.551,0,0,1-1.835,3.165l-.827-.6a12.081,12.081,0,0,0,1.808-2.97Zm3.978-9.609v1.358h5.435v.953h-5.435v1.779h4.468v4.5H754.38v-4.5h3.81v-4.09Zm3.46,5.043h-7.256v2.605h7.256Zm-4.483,7.578-1.008.224a25.612,25.612,0,0,0-.686-3.04l.938-.2C757.687,607.617,757.938,608.626,758.162,609.705Zm3.264-.028-.994.223a16.612,16.612,0,0,0-1.051-3.151l.953-.2A22.665,22.665,0,0,1,761.426,609.677Zm3.824-.336-.84.588a23.082,23.082,0,0,0-2.017-3.138l.812-.519A25.033,25.033,0,0,1,765.25,609.341Z" style="fill: #444"/>
    </g>
    <path d="M639.831,607.262c2.149,1.348,5.824,2.238,10,2.238s7.851-.89,10-2.238V613.5h2v-9h0v-9c0-2.761-5.372-5-12-5s-12,2.239-12,5v18h2Zm10-14.762c5.523,0,10,1.343,10,3s-4.477,3-10,3-10-1.343-10-3S644.308,592.5,649.831,592.5Zm-10,5.762c2.15,1.348,5.824,2.238,10,2.238s7.851-.89,10-2.238V604.5c0,1.657-4.478,3-10,3s-10-1.343-10-3h0Zm10,18.238c-5.523,0-10-1.343-10-3h-2c0,2.761,5.373,5,12,5s12-2.239,12-5h-2C659.831,615.157,655.354,616.5,649.831,616.5Z" style="fill: #00a4ff;fill-rule: evenodd"/>
  </g>
</svg>
