<?xml version="1.0" encoding="utf-8"?>
<!-- Generator: Adobe Illustrator 22.1.0, SVG Export Plug-In . SVG Version: 6.00 Build 0)  -->
<svg version="1.1" id="图层_1" xmlns="http://www.w3.org/2000/svg" xmlns:xlink="http://www.w3.org/1999/xlink" x="0px" y="0px"
	 width="830px" height="563.2px" viewBox="0 0 830 563.2" style="enable-background:new 0 0 830 563.2;" xml:space="preserve">
<style type="text/css">
	.st0{display:none;fill:none;stroke:#999999;}
	.st1{fill:#EAEBEC;}
	.st2{fill:#CEE3FF;}
	.st3{fill:none;stroke:#BABABA;stroke-dasharray:5;}
	.st4{fill:none;stroke:#888888;}
	.st5{fill:#888888;}
	.st6{fill:none;stroke:#FF0000;stroke-width:15;stroke-opacity:0;}
	.st7{opacity:0.6;fill:#BBBBBB;enable-background:new    ;}
	.st8{fill:#FFFFFF;stroke:#E5E5E5;}
	.st9{enable-background:new    ;}
	.st10{fill:#444444;}
	.st11{fill:#00A4FF;}
	.st12{fill:#CEE3FF;fill-opacity:0;}
</style>
<path class="st0" d="M535,560l-128,54"/>
<g id="GrayRectGroup1" transform="translate(210.5,114)">
	<rect x="-82.7" y="-86" class="st1" width="689" height="446"/>
</g>
<g id="BlueRectGroup2" transform="translate(295,189.5)">
	<rect x="-4.7" y="-121" class="st2" width="407.5" height="309"/>
</g>
<g id="DashRectGroup20" transform="translate(461,225.5)">
	<path class="st3" d="M-455-217.8h818v544.4h-818V-217.8"/>
</g>
<g id="middlegroup" transform="translate(0,0)">
	<g id="Link23" transform="translate(0,0)">
		<path class="st4" d="M210.8,173.5v-44h246"/>
		<g transform="translate(0.5, 0)">
			<polygon class="st5" points="451.8,134 457.8,129.5 451.8,125 			"/>
		</g>
		<path class="st6" d="M210.8,173.5v-44"/>
		<path class="st6" d="M210.8,129.5h246"/>
	</g>
	<g id="Link22" transform="translate(0,0)">
		<path class="st4" d="M279.8,198.5h26l0,0h33"/>
		<g transform="translate(0.5, 0)">
			<polygon class="st5" points="333.8,203 339.8,198.5 333.8,194 			"/>
		</g>
		<path class="st6" d="M279.8,198.5h26"/>
		<path class="st6" d="M305.8,198.5L305.8,198.5"/>
		<path class="st6" d="M305.8,198.5h33"/>
	</g>
	<g id="Link24" transform="translate(0,0)">
		<path class="st4" d="M510.8,154.5v44h-64"/>
		<g transform="translate(-0.5, 0)">
			<polygon class="st5" points="451.8,194 445.8,198.5 451.8,203 			"/>
		</g>
		<path class="st6" d="M510.8,154.5v44"/>
		<path class="st6" d="M510.8,198.5h-64"/>
	</g>
	<g id="Link31" transform="translate(0,0)">
		<path class="st4" d="M210.8,223.5v52h128"/>
		<g transform="translate(0.5, 0)">
			<polygon class="st5" points="333.8,280 339.8,275.5 333.8,271 			"/>
		</g>
		<path class="st6" d="M210.8,223.5v52"/>
		<path class="st6" d="M210.8,275.5h128"/>
	</g>
	<g id="Link32" transform="translate(0,0)">
		<path class="st4" d="M392.8,367.5v8l0,0v8"/>
		<g transform="translate(0, 0.5)">
			<polygon class="st5" points="388.3,378.5 392.8,384.5 397.3,378.5 			"/>
		</g>
		<path class="st6" d="M392.8,367.5v8"/>
		<path class="st6" d="M392.8,375.5L392.8,375.5"/>
		<path class="st6" d="M392.8,375.5v8"/>
	</g>
	<g id="Link33" transform="translate(0,0)">
		<path class="st4" d="M392.8,438.5v24h114v23"/>
		<g transform="translate(0, 0.5)">
			<polygon class="st5" points="502.3,480.5 506.8,486.5 511.3,480.5 			"/>
		</g>
		<path class="st6" d="M392.8,438.5v24"/>
		<path class="st6" d="M392.8,462.5h114"/>
		<path class="st6" d="M506.8,462.5v23"/>
	</g>
	<g id="Link34" transform="translate(0,0)">
		<path class="st4" d="M624.8,438.5v24h-118v23"/>
		<g transform="translate(0, 0.5)">
			<polygon class="st5" points="502.3,480.5 506.8,486.5 511.3,480.5 			"/>
		</g>
		<path class="st6" d="M624.8,438.5v24"/>
		<path class="st6" d="M624.8,462.5h-118"/>
		<path class="st6" d="M506.8,462.5v23"/>
	</g>
	<g id="Link29" transform="translate(0,0)">
		<path class="st4" d="M624.8,367.5v8l0,0v8"/>
		<g transform="translate(0, 0.5)">
			<polygon class="st5" points="620.3,378.5 624.8,384.5 629.3,378.5 			"/>
		</g>
		<path class="st6" d="M624.8,367.5v8"/>
		<path class="st6" d="M624.8,375.5L624.8,375.5"/>
		<path class="st6" d="M624.8,375.5v8"/>
	</g>
	<g id="Link25" transform="translate(0,0)">
		<path class="st4" d="M510.8,154.5v121h60"/>
		<g transform="translate(0.5, 0)">
			<polygon class="st5" points="565.8,280 571.8,275.5 565.8,271 			"/>
		</g>
		<path class="st6" d="M510.8,154.5v121"/>
		<path class="st6" d="M510.8,275.5h60"/>
	</g>
	<g id="Link28" transform="translate(0,0)">
		<path class="st4" d="M624.8,301.5v5l0,0v6"/>
		<g transform="translate(0, 0.5)">
			<polygon class="st5" points="620.3,307.5 624.8,313.5 629.3,307.5 			"/>
		</g>
		<path class="st6" d="M624.8,301.5v5"/>
		<path class="st6" d="M624.8,306.5L624.8,306.5"/>
		<path class="st6" d="M624.8,306.5v6"/>
	</g>
	<g id="Link26" transform="translate(0,0)">
		<path class="st4" d="M510.8,154.5v44h60"/>
		<g transform="translate(0.5, 0)">
			<polygon class="st5" points="565.8,203 571.8,198.5 565.8,194 			"/>
		</g>
		<path class="st6" d="M510.8,154.5v44"/>
		<path class="st6" d="M510.8,198.5h60"/>
	</g>
	<g id="Link27" transform="translate(0,0)">
		<path class="st4" d="M710.8,198.5h-26l0,0h-6"/>
		<g transform="translate(-0.5, 0)">
			<polygon class="st5" points="683.8,194 677.8,198.5 683.8,203 			"/>
		</g>
		<path class="st6" d="M710.8,198.5h-26"/>
		<path class="st6" d="M684.8,198.5L684.8,198.5"/>
		<path class="st6" d="M684.8,198.5h-6"/>
	</g>
	<g id="Link30" transform="translate(0,0)">
		<path class="st4" d="M759.8,223.5v190h-81"/>
		<g transform="translate(-0.5, 0)">
			<polygon class="st5" points="683.8,409 677.8,413.5 683.8,418 			"/>
		</g>
		<path class="st6" d="M759.8,223.5v190"/>
		<path class="st6" d="M759.8,413.5h-81"/>
	</g>
</g>
<g id="RectEndPoint7" transform="translate(655,225.5)">
	<rect x="-190.7" y="-119" class="st7" width="98" height="50"/>
	<rect x="-192.7" y="-121" class="st8" width="98" height="50"/>
	<g transform="translate(20 9)">
		<g class="st9">
			<path class="st10" d="M-189.5-111.4l-0.4,2.6h2.3v0.6c-0.1,2.2-0.5,4.1-1.2,5.8c0.5,0.4,1,0.9,1.5,1.4l-0.7,0.8
				c-0.3-0.4-0.7-0.8-1.2-1.3c-0.6,1.1-1.4,2.1-2.3,2.9l-0.6-0.8c0.9-0.8,1.7-1.7,2.2-2.8c-0.6-0.5-1.2-1.1-1.9-1.7
				c0.3-1.2,0.6-2.5,0.8-3.9h-1.1v-1h1.2c0.1-0.6,0.2-1.5,0.4-2.7L-189.5-111.4z M-188.5-107.8h-1.5c-0.3,1.5-0.5,2.7-0.8,3.7
				c0.2,0.2,0.7,0.6,1.3,1.1C-189-104.4-188.6-106-188.5-107.8z M-185-110.1h3.2v-1.3h1v1.3h1.2v0.9h-1.2v4.3h-2.1v1.2h3.6v0.9h-2.6
				c0.6,1,1.5,1.9,2.8,2.8l-0.7,0.9c-1.3-1.1-2.3-2.3-2.8-3.6h-0.2v4.1h-1v-4.1h-0.1c-0.7,1.5-1.7,2.7-3.1,3.6l-0.5-0.9
				c1.3-0.7,2.3-1.6,2.9-2.7h-2.7v-0.9h3.6v-1.2h-2.1v-4.3h-1.3v-0.9h1.3v-1.3h1V-110.1z M-185-108h3.2v-1.3h-3.2V-108z
				 M-181.8-105.8v-1.3h-3.2v1.3H-181.8z"/>
			<path class="st10" d="M-176.4-106.1c-0.4,0.6-0.9,1.2-1.4,1.8l-0.3-1c1.5-1.8,2.5-3.8,3.1-6.1l0.9,0.4c-0.4,1.2-0.8,2.3-1.4,3.3
				v9.2h-1V-106.1z M-174.3-109h3.7v-2.4h1v2.4h3.8v1h-3c0.7,2.3,1.8,4.4,3.5,6.2l-0.7,0.8c-1.7-2.1-2.9-4.4-3.6-7h-0.1v5.6h2.2v1
				h-2.2v2.9h-1v-2.9h-2.1v-1h2.1v-5.6h-0.2c-0.7,2.9-1.9,5.3-3.7,7.1l-0.5-0.9c1.6-1.6,2.7-3.7,3.4-6.3h-2.8V-109z"/>
			<path class="st10" d="M-161-111.1c-0.7,1.8-1.3,3.2-2,4.2c0.7-0.1,1.3-0.2,1.8-0.3l0.7-1.4l0.9,0.3c-1.2,2.2-2.1,3.8-2.9,4.8
				c0.7-0.1,1.5-0.4,2.4-0.7v0.9c-1.3,0.4-2.5,0.7-3.6,0.9l-0.3-0.9c0.2-0.1,0.3-0.2,0.5-0.3c0.5-0.5,1.1-1.4,1.8-2.7
				c-0.7,0.1-1.4,0.3-2.2,0.4l-0.3-0.9c0.2-0.1,0.3-0.2,0.4-0.4c0.7-1.3,1.3-2.7,1.8-4.3L-161-111.1z M-160.5-100.6
				c-1,0.5-2.1,0.9-3.3,1.2l-0.1-1c1.3-0.3,2.5-0.7,3.5-1.2V-100.6z M-158.2-106.5c0,3.1-0.7,5.7-1.9,7.9l-0.7-0.6
				c1.1-1.9,1.7-4.3,1.7-7.4v-3.4h3.2c-0.2-0.5-0.4-1-0.6-1.3l1-0.2c0.2,0.5,0.4,1,0.5,1.5h3.1v3.6H-158.2z M-152.8-109.1h-5.5v1.8
				h5.5V-109.1z M-153.3-98.6l-0.2-0.8l0.6,0c0.3,0,0.4-0.1,0.4-0.4v-1.9h-1.1v2.9h-0.7v-2.9h-1v2.9h-0.7v-2.9h-1.1v3.1h-0.8v-6.7
				h6.4v5.6c0,0.7-0.3,1-1,1H-153.3z M-157.4-102.5h1.1v-1.8h-1.1V-102.5z M-155.5-104.4v1.8h1v-1.8H-155.5z M-153.7-104.4v1.8h1.1
				v-1.8H-153.7z"/>
			<path class="st10" d="M-147.3-107.6h1v2.1h1.6v0.9h-1.6v1.9c0.6-0.1,1.2-0.3,1.8-0.4v0.9c-0.7,0.2-1.3,0.3-1.8,0.4v3.1h-1v-2.9
				c-1.1,0.2-1.9,0.3-2.6,0.4l-0.1-1c0.8-0.1,1.7-0.2,2.7-0.4v-2.1h-2.3l-0.2-0.9c0.4-0.8,0.7-1.8,1-3.1h-1.2v-1h1.4
				c0.1-0.3,0.2-0.9,0.4-2l1,0.1c-0.1,0.5-0.2,1.1-0.4,1.8h2.9v1h-3.2c-0.3,1.1-0.6,2.1-1,3.1h1.5V-107.6z M-143.6-106.2h-1v-0.9
				h7.2v0.9h-1v5l1.2-0.2v0.9l-1.2,0.2v1.8h-1v-1.7c-1.5,0.2-3.4,0.4-5.4,0.6l-0.1-0.9l1.3-0.1V-106.2z M-143.7-110.9h5.5v2.9h-5.5
				V-110.9z M-139.1-108.8v-1.3h-3.6v1.3H-139.1z M-139.4-106.2h-3.3v1.2h3.3V-106.2z M-142.6-103h3.3v-1.2h-3.3V-103z
				 M-142.6-100.7c1.3-0.1,2.4-0.3,3.3-0.4v-1h-3.3V-100.7z"/>
		</g>
	</g>
</g>
<g id="RectEndPoint18" transform="translate(566,611.5)">
	<rect x="-190.7" y="-119" class="st7" width="268" height="44"/>
	<rect x="-192.7" y="-121" class="st8" width="268" height="44"/>
	<g transform="translate(77.40625,9)">
		<g class="st9">
			<path class="st10" d="M-192.6-110h1.3l3.1,8.8h0l3.1-8.8h1.3l-3.7,10h-1.4L-192.6-110z"/>
			<path class="st10" d="M-174.8-108.7c0.8,1,1.2,2.2,1.2,3.7c0,1.5-0.4,2.7-1.2,3.7c-0.9,1-2.1,1.5-3.6,1.5c-1.5,0-2.7-0.5-3.5-1.5
				c-0.8-0.9-1.2-2.2-1.2-3.7c0-1.5,0.4-2.8,1.2-3.7c0.9-1,2.1-1.5,3.6-1.5S-175.7-109.7-174.8-108.7z M-181.1-108
				c-0.6,0.8-0.9,1.8-0.9,3c0,1.2,0.3,2.2,0.9,3c0.6,0.8,1.5,1.2,2.7,1.2c1.1,0,2-0.4,2.7-1.1c0.6-0.8,0.9-1.8,0.9-3
				c0-1.3-0.3-2.3-0.9-3c-0.6-0.8-1.5-1.1-2.7-1.1C-179.5-109.2-180.4-108.8-181.1-108z"/>
			<path class="st10" d="M-172-110h3.6c1.6,0,2.8,0.5,3.6,1.4c0.7,0.8,1.1,2.1,1.1,3.6c0,1.5-0.4,2.7-1.2,3.6
				c-0.8,0.9-2,1.4-3.6,1.4h-3.5V-110z M-170.9-109v8h2.1c1.3,0,2.3-0.3,2.9-1c0.6-0.7,0.9-1.7,0.9-3c0-1.3-0.3-2.3-0.9-3
				c-0.6-0.7-1.6-1-2.9-1H-170.9z"/>
			<path class="st10" d="M-159.3-111.6c-0.6,0.9-1,1.9-1.3,2.9c-0.4,1.2-0.6,2.4-0.6,3.6s0.2,2.4,0.6,3.6c0.3,1,0.7,1.9,1.3,2.9h-1
				c-0.6-0.9-1.1-1.8-1.4-2.9c-0.4-1.2-0.6-2.4-0.6-3.6c0-1.3,0.2-2.5,0.6-3.7c0.4-1,0.8-2,1.4-2.9H-159.3z"/>
			<path class="st10" d="M-157.4-110h3.8c0.2-0.6,0.4-1,0.5-1.5l1,0.1c-0.2,0.5-0.3,1-0.4,1.4h7.2v1h-7.5c-0.5,1.2-1.2,2.3-1.9,3.3
				v7.1h-1v-5.9c-0.5,0.5-1,1-1.5,1.5l-0.6-0.8c1.7-1.5,3-3.2,3.9-5.2h-3.4V-110z M-153.7-103.5h4.1v-1.3c0.8-0.5,1.6-1,2.3-1.6
				h-5.3v-0.9h6.6v0.9c-0.8,0.7-1.6,1.4-2.6,2v0.9h3.5v1h-3.5v2.6c0,0.8-0.4,1.2-1.2,1.2h-1.8l-0.3-1c0.7,0,1.2,0,1.6,0
				c0.4,0,0.6-0.2,0.6-0.6v-2.3h-4.1V-103.5z"/>
			<path class="st10" d="M-142.6-106.4c-0.3,0.5-0.7,1.1-1,1.6l-0.3-1.1c1.1-1.6,1.9-3.5,2.4-5.5l0.9,0.4c-0.2,0.9-0.6,1.8-0.9,2.7
				v9.7h-1V-106.4z M-141-107.1h2.5v5.9c0.3-0.3,0.7-0.8,1.1-1.3l0.2,1c-0.7,0.8-1.4,1.6-2.2,2.4l-0.4-0.9c0.2-0.2,0.3-0.4,0.3-0.5
				v-5.6h-1.6V-107.1z M-139.7-110.9c0.8,0.7,1.5,1.4,2.1,2.1l-0.7,0.7c-0.5-0.7-1.2-1.4-2-2.2L-139.7-110.9z M-136.9-109.8h1.7
				v-1.6h0.9v1.6h1.6v0.8c0.3-0.6,0.5-1.1,0.8-1.7l0.8,0.4c-0.5,1.1-1,2.2-1.7,3.1h1.6v0.9h-2.3c-0.4,0.5-0.8,0.9-1.2,1.3h2.9v6.2
				h-1v-0.6h-2.6v0.6h-0.9v-5c-0.2,0.1-0.6,0.3-1,0.5l-0.5-0.8c1.2-0.6,2.3-1.3,3.2-2.3h-2.5v-0.9h2v-1.8h-1.7V-109.8z
				 M-132.8-102.5v-1.5h-2.6v1.5H-132.8z M-135.4-101.6v1.5h2.6v-1.5H-135.4z M-133.9-107.1c0.4-0.6,0.8-1.2,1.1-1.8h-1.6v1.8
				H-133.9z"/>
			<path class="st10" d="M-125-111.5h1l-5,12.9h-1L-125-111.5z"/>
			<path class="st10" d="M-116.1-111.5c1.8,2.1,3.8,3.7,6.2,4.9l-0.5,1c-2.3-1.3-4.3-2.9-6-4.9c-1.5,1.9-3.5,3.5-6,4.9l-0.5-1
				c2.5-1.3,4.5-2.9,6.2-4.9H-116.1z M-112-104.3v5.6h-1v-0.8h-6.9v0.8h-1v-5.6H-112z M-120.1-107h7.3v1h-7.3V-107z M-119.9-100.4
				h6.9v-2.9h-6.9V-100.4z"/>
			<path class="st10" d="M-99-111.5c0.7,0.5,1.2,1,1.7,1.5l-0.6,0.6h1.7v1h-4.3c0.1,1.7,0.3,3.1,0.5,4.1c0.1,0.3,0.2,0.6,0.3,1
				c0.7-1.1,1.3-2.4,1.7-3.9l0.9,0.4c-0.6,1.9-1.3,3.4-2.2,4.7c0.2,0.5,0.4,0.8,0.6,1.2c0.5,0.7,0.8,1,1.1,1c0.3,0,0.5-0.7,0.7-2.2
				l0.9,0.5c-0.3,1.9-0.8,2.8-1.4,2.8c-0.6,0-1.2-0.4-1.9-1.3c-0.3-0.3-0.5-0.7-0.7-1.2c-1,1.1-2.1,2-3.4,2.6l-0.6-0.8
				c1.4-0.6,2.6-1.6,3.6-2.8c-0.2-0.6-0.4-1.1-0.5-1.7c-0.3-1.1-0.5-2.6-0.6-4.4h-4.8v2.3h3.4c0,2.4-0.1,3.9-0.3,4.6
				c-0.2,0.6-0.6,0.9-1.3,0.9c-0.2,0-0.6,0-1.2-0.1l-0.3-0.9c0.6,0,1,0,1.4,0c0.3,0,0.5-0.2,0.6-0.6c0.1-0.4,0.1-1.4,0.2-3h-2.4v0.4
				c-0.1,2.5-0.6,4.5-1.7,6l-0.8-0.7c0.9-1.3,1.4-3.1,1.4-5.3v-4.7h5.8c0-0.7,0-1.4,0-2.2h1c0,0.8,0,1.5,0,2.2h2.6
				c-0.4-0.5-1-1-1.7-1.6L-99-111.5z"/>
			<path class="st10" d="M-93.4-111.6c0.6,0.9,1.1,1.8,1.4,2.9c0.4,1.2,0.6,2.4,0.6,3.7c0,1.2-0.2,2.4-0.6,3.6c-0.4,1-0.9,2-1.4,2.9
				h-1c0.5-0.9,1-1.9,1.3-2.9c0.4-1.2,0.6-2.5,0.6-3.6s-0.2-2.4-0.6-3.6c-0.3-1-0.8-2-1.3-2.9H-93.4z"/>
		</g>
	</g>
</g>
<g id="RectEndPoint3" transform="translate(304,295)">
	<rect x="-160.7" y="-119" class="st7" width="139" height="50"/>
	<rect x="-162.7" y="-121" class="st8" width="139" height="50"/>
	<g transform="translate(20 9)">
		<g>
			<title>Product Icons【32】</title>
			<g>
				<polygon class="st11" points="-141.7,-105.2 -146.7,-102.3 -151.7,-105.2 -151.7,-105.2 -153.7,-106.3 -153.7,-104 -146.7,-100 
					-139.7,-104 -139.7,-106.3 -141.7,-105.2 				"/>
				<path class="st11" d="M-146.7-114l-7,4v2l2,1.1l5,2.9l5-2.9l2-1.1v-2L-146.7-114z M-146.7-106.3l-4.7-2.7l4.7-2.7l4.7,2.7
					L-146.7-106.3z"/>
				<g id="_编组_">
					<polygon class="st11" points="-134.7,-98.2 -146.7,-91.3 -158.7,-98.2 -158.7,-111.8 -146.7,-118.7 -134.7,-111.8 
						-134.7,-111.9 -132.7,-113 -146.7,-121 -160.7,-113 -160.7,-97 -146.7,-89 -132.7,-97 -132.7,-109 -134.7,-107.9 					"/>
				</g>
				<polygon class="st11" points="-141.7,-101.2 -146.7,-98.3 -151.7,-101.2 -151.7,-101.2 -153.7,-102.3 -153.7,-100 -146.7,-96 
					-139.7,-100 -139.7,-102.3 -141.7,-101.2 				"/>
			</g>
		</g>
		<g class="st9">
			<path class="st10" d="M-118.3-109.1h-1.7v-1h4.3v1h-1.6v6.3c0.7-0.2,1.3-0.4,1.7-0.6v1c-1.2,0.5-2.7,1-4.3,1.4l-0.3-1
				c0.7-0.2,1.3-0.3,1.8-0.5V-109.1z M-111.8-106.5h1v2.4c-0.1,1.5-0.5,2.7-1.2,3.6c-0.7,0.8-2,1.5-3.6,2l-0.5-0.9
				c1.6-0.4,2.8-1,3.4-1.8c0.6-0.8,0.9-1.8,1-3V-106.5z M-115.1-110.8h7.8v1h-3.3c-0.1,0.5-0.2,1-0.3,1.5h3v6.6h-1v-5.7h-4.5v5.7h-1
				v-6.6h2.5c0.1-0.4,0.2-0.9,0.3-1.5h-3.4V-110.8z M-110.1-101.8c1.2,0.9,2.1,1.7,2.9,2.5l-0.7,0.7c-0.7-0.8-1.7-1.7-2.9-2.6
				L-110.1-101.8z"/>
			<path class="st10" d="M-94.8-110.7v12.1h-1v-0.9h-7.7v0.9h-1v-12.1H-94.8z M-103.6-107.3h7.7v-2.4h-7.7V-107.3z M-103.6-103.9
				h7.7v-2.5h-7.7V-103.9z M-103.6-100.5h7.7v-2.4h-7.7V-100.5z"/>
			<path class="st10" d="M-89.9-109.5c-0.4,0.6-0.7,1.1-1.1,1.5l-0.9-0.6c0.8-0.9,1.4-1.8,1.8-2.9l1,0.2l-0.3,0.9h3.8v0.9h-2.4
				c0.3,0.4,0.6,0.8,0.8,1.2l-0.9,0.3c-0.2-0.5-0.5-1-0.9-1.6H-89.9z M-79.8-107.6v2.5h-1v-1.7h-9.9v1.7h-1v-2.5h5.5
				c-0.1-0.3-0.3-0.6-0.4-0.9l1-0.2l-0.1-0.1c0.7-0.8,1.1-1.8,1.5-2.8l1,0.2c-0.1,0.3-0.2,0.6-0.3,0.9h4v0.9H-82
				c0.3,0.4,0.5,0.8,0.7,1.1l-0.9,0.3c-0.3-0.5-0.5-1-0.9-1.4h-0.9c-0.2,0.4-0.5,0.9-0.9,1.3l-0.8-0.5c0.2,0.4,0.3,0.7,0.4,1.1
				H-79.8z M-81.7-105.9v2.7h-7v1h7.6v3.6h-1v-0.6h-6.6v0.6h-1v-7.3H-81.7z M-88.7-104h6v-1.1h-6V-104z M-88.7-100.1h6.6v-1.3h-6.6
				V-100.1z"/>
			<path class="st10" d="M-77.8-106.3h1.5v-3.3H-78v-1h4.4v1h-1.7v3.3h1.5v1h-1.5v3.1c0.6-0.2,1.1-0.4,1.7-0.7v1
				c-1.3,0.6-2.7,1-4.3,1.5l-0.3-1c0.6-0.1,1.2-0.3,1.9-0.4v-3.5h-1.5V-106.3z M-72.7-110.9h6.7v6.5h-2.9v1.7h3.1v0.9h-3.1v1.8h3.5
				v1h-8.1v-1h3.5v-1.8H-73v-0.9h3.1v-1.7h-2.9V-110.9z M-71.8-108.1h1.9v-1.9h-1.9V-108.1z M-69.9-105.3v-1.9h-1.9v1.9H-69.9z
				 M-68.9-110v1.9h1.9v-1.9H-68.9z M-67-105.3v-1.9h-1.9v1.9H-67z"/>
		</g>
	</g>
</g>
<g id="RectEndPoint11" transform="translate(515,295)">
	<rect x="-168.7" y="-119" class="st7" width="98" height="50"/>
	<rect x="-170.7" y="-121" class="st8" width="98" height="50"/>
	<g transform="translate(20 9)">
		<g class="st9">
			<path class="st10" d="M-170-103.7h8.5v-0.9h1v0.9h3.1v1h-3.1v3c0,0.8-0.4,1.2-1.3,1.2h-1.8l-0.2-1c0.7,0,1.2,0.1,1.7,0.1
				c0.4,0,0.6-0.2,0.6-0.5v-2.7h-8.5V-103.7z M-159.5-110.9v3.3h-8v1c0,0.4,0.2,0.6,0.6,0.6h7.5c0.3,0,0.5-0.1,0.6-0.3
				c0.1-0.2,0.2-0.5,0.2-1.1l1,0.3c-0.1,0.6-0.2,1.1-0.3,1.4c-0.2,0.4-0.6,0.6-1.2,0.7h-8.1c-0.8,0-1.2-0.4-1.2-1.2v-4.7H-159.5z
				 M-167.5-108.5h7v-1.5h-7V-108.5z M-166.8-102.3c0.9,0.7,1.7,1.4,2.4,2.2l-0.8,0.8c-0.5-0.7-1.3-1.4-2.3-2.3L-166.8-102.3z"/>
			<path class="st10" d="M-145.9-106.6v-3.8h1v4.8h-4.3v5.1h3.9v-3.8h1v5.6h-1v-0.8h-8.9v0.8h-1v-5.6h1v3.8h3.9v-5.1h-4.3v-4.8h1
				v3.8h3.3v-4.9h1v4.9H-145.9z"/>
			<path class="st10" d="M-141.6-98.7l-0.2-1c0.5,0,0.9,0.1,1.1,0.1c0.4,0,0.5-0.2,0.5-0.6v-3.4c-0.4,0.1-1,0.4-1.7,0.6l-0.3-1
				c0.6-0.2,1.3-0.4,2-0.6v-3.1h-1.7v-1h1.7v-2.6h1v2.6h1.2v1h-1.2v2.7c0.4-0.2,0.8-0.4,1.2-0.6v1c-0.4,0.2-0.8,0.4-1.2,0.6v4.1
				c0,0.8-0.4,1.3-1.2,1.3H-141.6z M-133.7-105.5c-0.1,0.4-0.3,0.7-0.5,1.1h4.8v1h-1.5c-0.2,1-0.6,1.9-1.3,2.6
				c1,0.5,1.9,0.9,2.8,1.4l-0.5,0.8c-0.8-0.5-1.8-1-2.9-1.6c-0.9,0.7-2.4,1.2-4.4,1.6l-0.4-0.9c1.7-0.3,2.9-0.7,3.8-1.2
				c-0.7-0.3-1.6-0.7-2.7-1.2c0.4-0.6,0.7-1.1,1-1.7h-1.9v-1h2.4c0.2-0.4,0.4-0.8,0.5-1.2L-133.7-105.5z M-135.3-109.1
				c0.3,0.6,0.7,1.3,1,2.1h1.4c0.4-0.7,0.7-1.4,1-2.2l1,0.3c-0.3,0.7-0.6,1.3-0.9,1.9h2.3v1h-7.8v-1h2.1c-0.3-0.7-0.6-1.2-0.9-1.7
				L-135.3-109.1z M-133.4-111.5c0.1,0.4,0.3,0.8,0.5,1.3h3.1v0.9h-7.2v-0.9h3.1c-0.1-0.4-0.3-0.8-0.5-1.2L-133.4-111.5z
				 M-134.7-103.5c-0.3,0.5-0.5,0.9-0.8,1.2c0.8,0.3,1.6,0.6,2.4,1c0.6-0.6,1-1.3,1.3-2.2H-134.7z"/>
			<path class="st10" d="M-116.6-109.8v10.9h-1v-0.9h-8.1v0.9h-1v-10.9H-116.6z M-125.8-100.7h8.1v-8.1h-8.1V-100.7z"/>
		</g>
	</g>
</g>
<g id="RectEndPoint11_1_" transform="translate(515,295)">
	<rect x="-495.7" y="-220.5" class="st7" width="98" height="50"/>
	<rect x="-497.7" y="-222.5" class="st8" width="98" height="50"/>
	<g transform="translate(20 9)">
		<g class="st9">
			<path class="st10" d="M-495.6-211c0.7,0.5,1.4,1,1.9,1.6c0.6-0.6,1.2-1.3,1.6-2h-3.5v-0.9h4.6v0.8c-0.4,0.9-0.9,1.8-1.6,2.5h4.3
				c-1-1-1.7-2.1-2.3-3.2l0.8-0.5c0.2,0.6,0.6,1.1,1,1.7c0.6-0.4,1.1-0.9,1.6-1.5l0.7,0.6c-0.5,0.6-1.1,1.1-1.7,1.6
				c0.3,0.3,0.6,0.7,1,1.1c0.7-0.5,1.2-1.1,1.7-1.7l0.7,0.6c-0.5,0.6-1.1,1.2-1.7,1.7c0.7,0.6,1.5,1,2.3,1.4l-0.7,0.8
				c-1.2-0.7-2.3-1.4-3.1-2.2v0.6h-5.1v-0.5c-0.9,0.8-2.1,1.5-3.4,2.1l-0.6-0.8c1-0.4,1.9-0.9,2.7-1.5c-0.5-0.5-1.1-1-1.9-1.5
				L-495.6-211z M-493.3-203.3c0.5,0.5,0.9,1.1,1.3,1.9h2.8c0.4-0.6,0.8-1.3,1.1-1.9l1,0.3c-0.3,0.6-0.6,1.1-1,1.6h3.4v1h-12v-1h3.6
				c-0.4-0.6-0.8-1.1-1.2-1.5L-493.3-203.3z M-494.6-207h7.8v3.4h-7.8V-207z M-487.8-204.5v-1.6h-5.8v1.6H-487.8z"/>
			<path class="st10" d="M-481.3-212.4h8.1v4.5h2.5v0.9h-5.6v1.6c0.3,0.4,0.7,0.8,1.1,1.1c1-0.6,1.9-1.4,2.6-2.4l0.8,0.6
				c-0.8,1-1.7,1.8-2.7,2.3c1.1,0.9,2.4,1.6,3.9,2.3l-0.5,0.9c-2.2-1-3.9-2.2-5.1-3.7v2.9c0,0.8-0.4,1.3-1.1,1.3h-1.6l-0.2-1
				c0.6,0,1.1,0.1,1.5,0.1c0.3,0,0.4-0.2,0.4-0.6v-2.6c-1.4,1.3-3.1,2.5-5.2,3.6l-0.4-0.9c2.2-1,4-2.2,5.6-3.7v-1.8h-5.4v-0.9h8.5
				v-1.4h-6.6v-0.9h6.6v-1.4h-7.1V-212.4z M-481.2-206.4c0.8,0.6,1.5,1.2,2.1,1.8l-0.6,0.7c-0.6-0.6-1.3-1.2-2.2-1.8L-481.2-206.4z"
				/>
			<path class="st10" d="M-466.1-206c-0.7,0.3-1.5,0.6-2.3,0.8l-0.5-0.8c2.5-0.7,4.4-1.6,5.8-2.7h0.8c1.1,1,3.1,1.9,5.8,2.7
				l-0.5,0.9c-0.9-0.3-1.7-0.5-2.3-0.8v0.6h-2.9v1.1h4.8v0.9h-4.8v2.1h1.7c0.3-0.6,0.6-1.2,0.8-1.9l1,0.4c-0.2,0.6-0.5,1.1-0.8,1.5
				h2.6v0.9h-11.6v-0.9h2.5c-0.2-0.5-0.4-1-0.7-1.5l1-0.4c0.2,0.5,0.5,1.1,0.7,1.8h1.7v-2.1h-4.9v-0.9h4.9v-1.1h-2.8V-206z
				 M-468.2-212.2h0.9v4h-0.9V-212.2z M-459.8-206.3c-1.2-0.5-2.1-1.1-2.8-1.7c-0.9,0.7-1.8,1.2-2.8,1.7H-459.8z M-465.5-212.8h1
				v4.9h-1V-212.8z M-461.3-210.8c-0.4,0.8-0.9,1.4-1.5,1.9l-0.7-0.6c0.9-0.9,1.6-2.1,2.1-3.5l0.9,0.2c-0.1,0.4-0.2,0.7-0.4,1h4.1
				v0.9H-461.3z M-459.9-210.3c0.8,0.5,1.5,1.1,2.2,1.8l-0.6,0.7c-0.7-0.7-1.4-1.4-2.3-1.9L-459.9-210.3z"/>
			<path class="st10" d="M-451.7-200.2h-1v-7.3c-0.5,1.4-1.2,2.8-2,4l-0.5-1.1c1.2-1.4,2-2.9,2.5-4.7h-2.2v-1h2.2v-2.7h1v2.7h1.8v1
				h-1.8v0.8c0.7,0.7,1.4,1.4,2.1,2.3l-0.6,0.9c-0.6-0.9-1.1-1.6-1.6-2.1V-200.2z M-448.9-211.1h-0.6v-1h6.3v1
				c-0.4,2.6-1.2,4.9-2.4,6.7c0.9,1.3,2,2.4,3.4,3.4l-0.7,0.8c-1.3-1-2.4-2.2-3.3-3.4c-1,1.3-2.2,2.4-3.6,3.4l-0.6-0.8
				c1.5-1,2.7-2.1,3.6-3.5C-448-206.5-448.7-208.7-448.9-211.1z M-448-211.1c0.2,2.2,0.8,4.1,1.8,5.8c1-1.7,1.7-3.6,2-5.8H-448z"/>
		</g>
	</g>
</g>
<g id="RectEndPoint11_2_" transform="translate(515,295)">
	<rect x="-495.7" y="-151" class="st7" width="98" height="50"/>
	<rect x="-497.7" y="-153" class="st8" width="98" height="50"/>
	<g transform="translate(20 9)">
		<g class="st9">
			<path class="st10" d="M-492.7-143.3h1v11.1h2v-11.1h1v11.1h4.2v1h-12.4v-1h4.2V-143.3z M-495.7-140.8c0.7,1.9,1.4,4.1,2,6.5
				l-0.9,0.2c-0.5-2.2-1.1-4.4-1.9-6.5L-495.7-140.8z M-484.9-140.5c-0.6,2.4-1.3,4.6-2.1,6.4l-0.9-0.3c0.8-1.7,1.5-3.8,2.1-6.3
				L-484.9-140.5z"/>
			<path class="st10" d="M-477.9-143.3c-0.1,0.3-0.3,0.7-0.5,1.1h6.1v0.8c-0.9,1-2,1.9-3.3,2.6c1.6,0.7,3.4,1.1,5.3,1.3l-0.5,0.9
				c-2.2-0.3-4.2-0.8-5.9-1.7c-1.7,0.8-3.7,1.4-6,1.7l-0.5-1c2-0.3,3.8-0.7,5.3-1.3c-0.8-0.4-1.5-1-2.2-1.6
				c-0.6,0.5-1.1,0.9-1.8,1.3l-0.6-0.8c1.7-1,2.8-2.2,3.4-3.5L-477.9-143.3z M-476.5-137.3c0,0.5,0,1-0.1,1.6h4.9
				c0,2.4-0.2,3.8-0.6,4.2c-0.4,0.5-1.1,0.7-2.1,0.7c-0.2,0-0.8,0-1.6-0.1l-0.3-0.9l1.7,0.1c0.8,0,1.4-0.2,1.6-0.5
				c0.2-0.3,0.3-1.2,0.4-2.6h-4.1c-0.1,0.3-0.3,0.7-0.4,1c-0.7,1.3-2.4,2.3-4.9,3.1l-0.7-0.8c2.3-0.7,3.8-1.5,4.5-2.5
				c0.2-0.3,0.3-0.6,0.4-0.8h-4.2v-0.9h4.5c0.1-0.5,0.2-1,0.2-1.6H-476.5z M-473.7-141.3h-5.3l-0.2,0.2c0.8,0.7,1.6,1.3,2.6,1.8
				C-475.6-139.9-474.6-140.5-473.7-141.3z"/>
			<path class="st10" d="M-459.7-130.9c-0.5,0-1.3,0-2.5,0c-0.9,0-1.7-0.1-2.2-0.3c-0.6-0.2-1.1-0.5-1.5-1c-0.2-0.2-0.4-0.4-0.5-0.4
				c-0.3,0-0.9,0.6-1.6,1.9l-0.8-0.7c0.7-1.2,1.4-1.9,1.9-2.1v-4.3h-2v-0.9h2.9v5.2c0.1,0.1,0.2,0.2,0.4,0.3
				c0.3,0.4,0.7,0.7,1.1,0.9c0.4,0.2,1.1,0.3,1.9,0.3c1,0,1.9,0,2.8,0c0.4,0,1.1,0,2,0c0.8,0,1.3,0,1.6-0.1l-0.2,1H-459.7z
				 M-467.9-143.2c1,0.7,1.8,1.5,2.4,2.2l-0.7,0.7c-0.6-0.7-1.4-1.5-2.4-2.2L-467.9-143.2z M-462.2-136.4c0.7,0.4,1.3,0.9,1.8,1.3
				c0.8-0.6,1.4-1.3,1.8-2h-3.7c-0.7,0.6-1.4,1.2-2.3,1.7l-0.6-0.7c1.4-0.8,2.5-1.7,3.4-2.9l1,0.2c-0.2,0.3-0.4,0.5-0.6,0.9h4v0.8
				c-1.1,2.3-3.3,3.9-6.6,4.8l-0.5-0.9c1.4-0.3,2.5-0.8,3.4-1.3c-0.5-0.4-1.1-0.8-1.7-1.2L-462.2-136.4z M-464.4-142.9h7.5v3.8h-7.5
				V-142.9z M-462.1-140v-2h-1.4v2H-462.1z M-460-140v-2h-1.3v2H-460z M-457.8-140v-2h-1.4v2H-457.8z"/>
			<path class="st10" d="M-452.3-139.6h1v2.1h1.6v0.9h-1.6v1.9c0.6-0.1,1.2-0.3,1.8-0.4v0.9c-0.7,0.2-1.3,0.3-1.8,0.4v3.1h-1v-2.9
				c-1.1,0.2-1.9,0.3-2.6,0.4l-0.1-1c0.8-0.1,1.7-0.2,2.7-0.4v-2.1h-2.3l-0.2-0.9c0.4-0.8,0.7-1.8,1-3.1h-1.2v-1h1.4
				c0.1-0.3,0.2-0.9,0.4-2l1,0.1c-0.1,0.5-0.2,1.1-0.4,1.8h2.9v1h-3.2c-0.3,1.1-0.6,2.1-1,3.1h1.5V-139.6z M-448.6-138.2h-1v-0.9
				h7.2v0.9h-1v5l1.2-0.2v0.9l-1.2,0.2v1.8h-1v-1.7c-1.5,0.2-3.4,0.4-5.4,0.6l-0.1-0.9l1.3-0.1V-138.2z M-448.7-142.9h5.5v2.9h-5.5
				V-142.9z M-444.1-140.8v-1.3h-3.6v1.3H-444.1z M-444.4-138.2h-3.3v1.2h3.3V-138.2z M-447.6-135h3.3v-1.2h-3.3V-135z
				 M-447.6-132.7c1.3-0.1,2.4-0.3,3.3-0.4v-1h-3.3V-132.7z"/>
		</g>
	</g>
</g>
<g id="RectEndPoint11_4_" transform="translate(515,295)">
	<rect x="-495.7" y="-44.2" class="st7" width="98" height="50"/>
	<rect x="-497.7" y="-46.2" class="st8" width="98" height="50"/>
	<g transform="translate(20 9)">
		<g class="st9">
			<path class="st10" d="M-494.6-34.2h0.9v4.5c0,1.6-0.3,2.9-0.7,3.8c-0.4,0.9-1.1,1.6-2.1,2l-0.5-0.8c0.9-0.5,1.6-1.1,1.9-1.8
				c0.3-0.8,0.5-1.9,0.5-3.1V-34.2z M-491.7-36.1v8.8h-0.9v-7.9h-3v7.9h-0.9v-8.8H-491.7z M-493.2-26.9c0.8,0.8,1.4,1.5,1.9,2.3
				l-0.7,0.7c-0.4-0.7-1.1-1.5-1.9-2.4L-493.2-26.9z M-489.1-29.9v4.8c0.6-0.2,1.3-0.6,1.9-1l0.2,0.9c-0.9,0.5-1.9,1-3,1.3l-0.4-0.9
				c0.2-0.1,0.3-0.2,0.3-0.4v-4.7h-1v-1h1v-5.8h1v5.8h4.6v1h-2.5c0.6,2.2,1.6,3.9,2.8,5.2l-0.7,0.8c-1.3-1.4-2.3-3.3-3-5.9H-489.1z
				 M-484.7-35.4c-1,1.6-2.1,2.7-3.5,3.5l-0.5-0.8c1.3-0.7,2.3-1.8,3.2-3.3L-484.7-35.4z"/>
			<path class="st10" d="M-479.8-30.2h-3.2v-1h12.6v1h-8.4l-0.5,1.6h6.8c-0.1,2.2-0.3,3.6-0.6,4c-0.3,0.4-1,0.6-1.9,0.6
				c-0.7,0-1.3,0-1.9-0.1l-0.3-0.9c0.7,0.1,1.4,0.1,2,0.1c0.8,0,1.2-0.2,1.4-0.5c0.2-0.3,0.3-1.1,0.4-2.4h-7L-479.8-30.2z
				 M-480.8-36.2h8.2v3.8h-8.2V-36.2z M-473.6-33.3v-2h-6.1v2H-473.6z"/>
			<path class="st10" d="M-466.1-29.8c-0.7,0.3-1.5,0.6-2.3,0.8l-0.5-0.8c2.5-0.7,4.4-1.6,5.8-2.7h0.8c1.1,1,3.1,1.9,5.8,2.7
				L-457-29c-0.9-0.3-1.7-0.5-2.3-0.8v0.6h-2.9v1.1h4.8v0.9h-4.8v2.1h1.7c0.3-0.6,0.6-1.2,0.8-1.9l1,0.4c-0.2,0.6-0.5,1.1-0.8,1.5
				h2.6v0.9h-11.6v-0.9h2.5c-0.2-0.5-0.4-1-0.7-1.5l1-0.4c0.2,0.5,0.5,1.1,0.7,1.8h1.7v-2.1h-4.9v-0.9h4.9v-1.1h-2.8V-29.8z
				 M-468.2-36h0.9v4h-0.9V-36z M-459.8-30c-1.2-0.5-2.1-1.1-2.8-1.7c-0.9,0.7-1.8,1.2-2.8,1.7H-459.8z M-465.5-36.5h1v4.9h-1V-36.5
				z M-461.3-34.6c-0.4,0.8-0.9,1.4-1.5,1.9l-0.7-0.6c0.9-0.9,1.6-2.1,2.1-3.5l0.9,0.2c-0.1,0.4-0.2,0.7-0.4,1h4.1v0.9H-461.3z
				 M-459.9-34.1c0.8,0.5,1.5,1.1,2.2,1.8l-0.6,0.7c-0.7-0.7-1.4-1.4-2.3-1.9L-459.9-34.1z"/>
			<path class="st10" d="M-451.7-23.9h-1v-7.3c-0.5,1.4-1.2,2.8-2,4l-0.5-1.1c1.2-1.4,2-2.9,2.5-4.7h-2.2v-1h2.2v-2.7h1v2.7h1.8v1
				h-1.8v0.8c0.7,0.7,1.4,1.4,2.1,2.3l-0.6,0.9c-0.6-0.9-1.1-1.6-1.6-2.1V-23.9z M-448.9-34.9h-0.6v-1h6.3v1
				c-0.4,2.6-1.2,4.9-2.4,6.7c0.9,1.3,2,2.4,3.4,3.4l-0.7,0.8c-1.3-1-2.4-2.2-3.3-3.4c-1,1.3-2.2,2.4-3.6,3.4l-0.6-0.8
				c1.5-1,2.7-2.1,3.6-3.5C-448-30.2-448.7-32.4-448.9-34.9z M-448-34.9c0.2,2.2,0.8,4.1,1.8,5.8c1-1.7,1.7-3.6,2-5.8H-448z"/>
		</g>
	</g>
</g>
<g id="RectEndPoint11_3_" transform="translate(515,295)">
	<rect x="-495.7" y="25.2" class="st7" width="98" height="50"/>
	<rect x="-497.7" y="23.2" class="st8" width="98" height="50"/>
	<g transform="translate(20 9)">
		<g class="st9">
			<path class="st10" d="M-492.7,33h1v11.1h2V33h1v11.1h4.2v1h-12.4v-1h4.2V33z M-495.7,35.5c0.7,1.9,1.4,4.1,2,6.5l-0.9,0.2
				c-0.5-2.2-1.1-4.4-1.9-6.5L-495.7,35.5z M-484.9,35.8c-0.6,2.4-1.3,4.6-2.1,6.4l-0.9-0.3c0.8-1.7,1.5-3.8,2.1-6.3L-484.9,35.8z"
				/>
			<path class="st10" d="M-477.9,32.9c-0.1,0.3-0.3,0.7-0.5,1.1h6.1v0.8c-0.9,1-2,1.9-3.3,2.6c1.6,0.7,3.4,1.1,5.3,1.3l-0.5,0.9
				c-2.2-0.3-4.2-0.8-5.9-1.7c-1.7,0.8-3.7,1.4-6,1.7l-0.5-1c2-0.3,3.8-0.7,5.3-1.3c-0.8-0.4-1.5-1-2.2-1.6
				c-0.6,0.5-1.1,0.9-1.8,1.3l-0.6-0.8c1.7-1,2.8-2.2,3.4-3.5L-477.9,32.9z M-476.5,39c0,0.5,0,1-0.1,1.6h4.9c0,2.4-0.2,3.8-0.6,4.2
				c-0.4,0.5-1.1,0.7-2.1,0.7c-0.2,0-0.8,0-1.6-0.1l-0.3-0.9l1.7,0.1c0.8,0,1.4-0.2,1.6-0.5c0.2-0.3,0.3-1.2,0.4-2.6h-4.1
				c-0.1,0.3-0.3,0.7-0.4,1c-0.7,1.3-2.4,2.3-4.9,3.1l-0.7-0.8c2.3-0.7,3.8-1.5,4.5-2.5c0.2-0.3,0.3-0.6,0.4-0.8h-4.2v-0.9h4.5
				c0.1-0.5,0.2-1,0.2-1.6H-476.5z M-473.7,34.9h-5.3l-0.2,0.2c0.8,0.7,1.6,1.3,2.6,1.8C-475.6,36.4-474.6,35.7-473.7,34.9z"/>
			<path class="st10" d="M-459.7,45.4c-0.5,0-1.3,0-2.5,0c-0.9,0-1.7-0.1-2.2-0.3c-0.6-0.2-1.1-0.5-1.5-1c-0.2-0.2-0.4-0.4-0.5-0.4
				c-0.3,0-0.9,0.6-1.6,1.9l-0.8-0.7c0.7-1.2,1.4-1.9,1.9-2.1v-4.3h-2v-0.9h2.9v5.2c0.1,0.1,0.2,0.2,0.4,0.3
				c0.3,0.4,0.7,0.7,1.1,0.9c0.4,0.2,1.1,0.3,1.9,0.3c1,0,1.9,0,2.8,0c0.4,0,1.1,0,2,0c0.8,0,1.3,0,1.6-0.1l-0.2,1H-459.7z
				 M-467.9,33c1,0.7,1.8,1.5,2.4,2.2l-0.7,0.7c-0.6-0.7-1.4-1.5-2.4-2.2L-467.9,33z M-462.2,39.9c0.7,0.4,1.3,0.9,1.8,1.3
				c0.8-0.6,1.4-1.3,1.8-2h-3.7c-0.7,0.6-1.4,1.2-2.3,1.7l-0.6-0.7c1.4-0.8,2.5-1.7,3.4-2.9l1,0.2c-0.2,0.3-0.4,0.5-0.6,0.9h4v0.8
				c-1.1,2.3-3.3,3.9-6.6,4.8l-0.5-0.9c1.4-0.3,2.5-0.8,3.4-1.3c-0.5-0.4-1.1-0.8-1.7-1.2L-462.2,39.9z M-464.4,33.4h7.5v3.8h-7.5
				V33.4z M-462.1,36.3v-2h-1.4v2H-462.1z M-460,36.3v-2h-1.3v2H-460z M-457.8,36.3v-2h-1.4v2H-457.8z"/>
			<path class="st10" d="M-452.3,36.7h1v2.1h1.6v0.9h-1.6v1.9c0.6-0.1,1.2-0.3,1.8-0.4v0.9c-0.7,0.2-1.3,0.3-1.8,0.4v3.1h-1v-2.9
				c-1.1,0.2-1.9,0.3-2.6,0.4l-0.1-1c0.8-0.1,1.7-0.2,2.7-0.4v-2.1h-2.3l-0.2-0.9c0.4-0.8,0.7-1.8,1-3.1h-1.2v-1h1.4
				c0.1-0.3,0.2-0.9,0.4-2l1,0.1c-0.1,0.5-0.2,1.1-0.4,1.8h2.9v1h-3.2c-0.3,1.1-0.6,2.1-1,3.1h1.5V36.7z M-448.6,38h-1v-0.9h7.2V38
				h-1v5l1.2-0.2v0.9l-1.2,0.2v1.8h-1V44c-1.5,0.2-3.4,0.4-5.4,0.6l-0.1-0.9l1.3-0.1V38z M-448.7,33.3h5.5v2.9h-5.5V33.3z
				 M-444.1,35.5v-1.3h-3.6v1.3H-444.1z M-444.4,38h-3.3v1.2h3.3V38z M-447.6,41.3h3.3v-1.2h-3.3V41.3z M-447.6,43.5
				c1.3-0.1,2.4-0.3,3.3-0.4v-1h-3.3V43.5z"/>
		</g>
	</g>
</g>
<g id="RectEndPoint11_5_" transform="translate(515,295)">
	<rect x="-495.7" y="90" class="st7" width="98" height="50"/>
	<rect x="-497.7" y="88" class="st8" width="98" height="50"/>
	<g transform="translate(20 9)">
		<g class="st9">
			<path class="st10" d="M-473.2,107.6c0.2,0.1,0.3,0.3,0.3,0.6c0,0.2-0.1,0.4-0.3,0.6c-0.2,0.2-0.4,0.2-0.6,0.2
				c-0.2,0-0.4-0.1-0.6-0.2c-0.2-0.2-0.3-0.4-0.3-0.6c0-0.2,0.1-0.4,0.3-0.6c0.2-0.2,0.4-0.2,0.6-0.2
				C-473.6,107.3-473.4,107.4-473.2,107.6z"/>
			<path class="st10" d="M-469.5,107.6c0.2,0.1,0.3,0.3,0.3,0.6c0,0.2-0.1,0.4-0.3,0.6c-0.2,0.2-0.4,0.2-0.6,0.2
				c-0.2,0-0.4-0.1-0.6-0.2c-0.2-0.2-0.3-0.4-0.3-0.6c0-0.2,0.1-0.4,0.3-0.6c0.2-0.2,0.4-0.2,0.6-0.2
				C-469.9,107.3-469.7,107.4-469.5,107.6z"/>
			<path class="st10" d="M-465.9,107.6c0.2,0.1,0.3,0.3,0.3,0.6c0,0.2-0.1,0.4-0.3,0.6c-0.2,0.2-0.4,0.2-0.6,0.2
				c-0.2,0-0.4-0.1-0.6-0.2c-0.2-0.2-0.3-0.4-0.3-0.6c0-0.2,0.1-0.4,0.3-0.6c0.2-0.2,0.4-0.2,0.6-0.2
				C-466.2,107.3-466,107.4-465.9,107.6z"/>
		</g>
	</g>
</g>
<g id="RectEndPoint9" transform="translate(515,372.5)">
	<rect x="-168.7" y="-119" class="st7" width="98" height="50"/>
	<rect x="-170.7" y="-121" class="st8" width="98" height="50"/>
	<g transform="translate(20 9)">
		<g class="st9">
			<path class="st10" d="M-168.3-109.1h-1.7v-1h4.3v1h-1.6v6.3c0.7-0.2,1.3-0.4,1.7-0.6v1c-1.2,0.5-2.7,1-4.3,1.4l-0.3-1
				c0.7-0.2,1.3-0.3,1.8-0.5V-109.1z M-161.8-106.5h1v2.4c-0.1,1.5-0.5,2.7-1.2,3.6c-0.7,0.8-2,1.5-3.6,2l-0.5-0.9
				c1.6-0.4,2.8-1,3.4-1.8c0.6-0.8,0.9-1.8,1-3V-106.5z M-165.1-110.8h7.8v1h-3.3c-0.1,0.5-0.2,1-0.3,1.5h3v6.6h-1v-5.7h-4.5v5.7h-1
				v-6.6h2.5c0.1-0.4,0.2-0.9,0.3-1.5h-3.4V-110.8z M-160.1-101.8c1.2,0.9,2.1,1.7,2.9,2.5l-0.7,0.7c-0.7-0.8-1.7-1.7-2.9-2.6
				L-160.1-101.8z"/>
			<path class="st10" d="M-144.8-110.7v12.1h-1v-0.9h-7.7v0.9h-1v-12.1H-144.8z M-153.6-107.3h7.7v-2.4h-7.7V-107.3z M-153.6-103.9
				h7.7v-2.5h-7.7V-103.9z M-153.6-100.5h7.7v-2.4h-7.7V-100.5z"/>
			<path class="st10" d="M-139.9-109.5c-0.4,0.6-0.7,1.1-1.1,1.5l-0.9-0.6c0.8-0.9,1.4-1.8,1.8-2.9l1,0.2l-0.3,0.9h3.8v0.9h-2.4
				c0.3,0.4,0.6,0.8,0.8,1.2l-0.9,0.3c-0.2-0.5-0.5-1-0.9-1.6H-139.9z M-129.8-107.6v2.5h-1v-1.7h-9.9v1.7h-1v-2.5h5.5
				c-0.1-0.3-0.3-0.6-0.4-0.9l1-0.2l-0.1-0.1c0.7-0.8,1.1-1.8,1.5-2.8l1,0.2c-0.1,0.3-0.2,0.6-0.3,0.9h4v0.9h-2.5
				c0.3,0.4,0.5,0.8,0.7,1.1l-0.9,0.3c-0.3-0.5-0.5-1-0.9-1.4h-0.9c-0.2,0.4-0.5,0.9-0.9,1.3l-0.8-0.5c0.2,0.4,0.3,0.7,0.4,1.1
				H-129.8z M-131.7-105.9v2.7h-7v1h7.6v3.6h-1v-0.6h-6.6v0.6h-1v-7.3H-131.7z M-138.7-104h6v-1.1h-6V-104z M-138.7-100.1h6.6v-1.3
				h-6.6V-100.1z"/>
			<path class="st10" d="M-127.8-106.3h1.5v-3.3h-1.7v-1h4.4v1h-1.7v3.3h1.5v1h-1.5v3.1c0.6-0.2,1.1-0.4,1.7-0.7v1
				c-1.3,0.6-2.7,1-4.3,1.5l-0.3-1c0.6-0.1,1.2-0.3,1.9-0.4v-3.5h-1.5V-106.3z M-122.7-110.9h6.7v6.5h-2.9v1.7h3.1v0.9h-3.1v1.8h3.5
				v1h-8.1v-1h3.5v-1.8h-3.1v-0.9h3.1v-1.7h-2.9V-110.9z M-121.8-108.1h1.9v-1.9h-1.9V-108.1z M-119.9-105.3v-1.9h-1.9v1.9H-119.9z
				 M-118.9-110v1.9h1.9v-1.9H-118.9z M-117-105.3v-1.9h-1.9v1.9H-117z"/>
		</g>
	</g>
</g>
<g id="RectEndPoint13" transform="translate(515,439)">
	<rect x="-168.7" y="-119" class="st7" width="98" height="50"/>
	<rect x="-170.7" y="-121" class="st8" width="98" height="50"/>
	<g transform="translate(20 9)">
		<g class="st9">
			<path class="st10" d="M-170-103.7h8.5v-0.9h1v0.9h3.1v1h-3.1v3c0,0.8-0.4,1.2-1.3,1.2h-1.8l-0.2-1c0.7,0,1.2,0.1,1.7,0.1
				c0.4,0,0.6-0.2,0.6-0.5v-2.7h-8.5V-103.7z M-159.5-110.9v3.3h-8v1c0,0.4,0.2,0.6,0.6,0.6h7.5c0.3,0,0.5-0.1,0.6-0.3
				c0.1-0.2,0.2-0.5,0.2-1.1l1,0.3c-0.1,0.6-0.2,1.1-0.3,1.4c-0.2,0.4-0.6,0.6-1.2,0.7h-8.1c-0.8,0-1.2-0.4-1.2-1.2v-4.7H-159.5z
				 M-167.5-108.5h7v-1.5h-7V-108.5z M-166.8-102.3c0.9,0.7,1.7,1.4,2.4,2.2l-0.8,0.8c-0.5-0.7-1.3-1.4-2.3-2.3L-166.8-102.3z"/>
			<path class="st10" d="M-145.9-106.6v-3.8h1v4.8h-4.3v5.1h3.9v-3.8h1v5.6h-1v-0.8h-8.9v0.8h-1v-5.6h1v3.8h3.9v-5.1h-4.3v-4.8h1
				v3.8h3.3v-4.9h1v4.9H-145.9z"/>
			<path class="st10" d="M-141.6-98.7l-0.2-1c0.5,0,0.9,0.1,1.1,0.1c0.4,0,0.5-0.2,0.5-0.6v-3.4c-0.4,0.1-1,0.4-1.7,0.6l-0.3-1
				c0.6-0.2,1.3-0.4,2-0.6v-3.1h-1.7v-1h1.7v-2.6h1v2.6h1.2v1h-1.2v2.7c0.4-0.2,0.8-0.4,1.2-0.6v1c-0.4,0.2-0.8,0.4-1.2,0.6v4.1
				c0,0.8-0.4,1.3-1.2,1.3H-141.6z M-133.7-105.5c-0.1,0.4-0.3,0.7-0.5,1.1h4.8v1h-1.5c-0.2,1-0.6,1.9-1.3,2.6
				c1,0.5,1.9,0.9,2.8,1.4l-0.5,0.8c-0.8-0.5-1.8-1-2.9-1.6c-0.9,0.7-2.4,1.2-4.4,1.6l-0.4-0.9c1.7-0.3,2.9-0.7,3.8-1.2
				c-0.7-0.3-1.6-0.7-2.7-1.2c0.4-0.6,0.7-1.1,1-1.7h-1.9v-1h2.4c0.2-0.4,0.4-0.8,0.5-1.2L-133.7-105.5z M-135.3-109.1
				c0.3,0.6,0.7,1.3,1,2.1h1.4c0.4-0.7,0.7-1.4,1-2.2l1,0.3c-0.3,0.7-0.6,1.3-0.9,1.9h2.3v1h-7.8v-1h2.1c-0.3-0.7-0.6-1.2-0.9-1.7
				L-135.3-109.1z M-133.4-111.5c0.1,0.4,0.3,0.8,0.5,1.3h3.1v0.9h-7.2v-0.9h3.1c-0.1-0.4-0.3-0.8-0.5-1.2L-133.4-111.5z
				 M-134.7-103.5c-0.3,0.5-0.5,0.9-0.8,1.2c0.8,0.3,1.6,0.6,2.4,1c0.6-0.6,1-1.3,1.3-2.2H-134.7z"/>
			<path class="st10" d="M-116.6-109.8v10.9h-1v-0.9h-8.1v0.9h-1v-10.9H-116.6z M-125.8-100.7h8.1v-8.1h-8.1V-100.7z"/>
		</g>
	</g>
</g>
<g id="RectEndPoint12" transform="translate(515,510)">
	<rect x="-168.7" y="-119" class="st7" width="98" height="50"/>
	<rect x="-170.7" y="-121" class="st8" width="98" height="50"/>
	<g transform="translate(20 9)">
		<g class="st9">
			<path class="st10" d="M-170-103.7h8.5v-0.9h1v0.9h3.1v1h-3.1v3c0,0.8-0.4,1.2-1.3,1.2h-1.8l-0.2-1c0.7,0,1.2,0.1,1.7,0.1
				c0.4,0,0.6-0.2,0.6-0.5v-2.7h-8.5V-103.7z M-159.5-110.9v3.3h-8v1c0,0.4,0.2,0.6,0.6,0.6h7.5c0.3,0,0.5-0.1,0.6-0.3
				c0.1-0.2,0.2-0.5,0.2-1.1l1,0.3c-0.1,0.6-0.2,1.1-0.3,1.4c-0.2,0.4-0.6,0.6-1.2,0.7h-8.1c-0.8,0-1.2-0.4-1.2-1.2v-4.7H-159.5z
				 M-167.5-108.5h7v-1.5h-7V-108.5z M-166.8-102.3c0.9,0.7,1.7,1.4,2.4,2.2l-0.8,0.8c-0.5-0.7-1.3-1.4-2.3-2.3L-166.8-102.3z"/>
			<path class="st10" d="M-145.9-106.6v-3.8h1v4.8h-4.3v5.1h3.9v-3.8h1v5.6h-1v-0.8h-8.9v0.8h-1v-5.6h1v3.8h3.9v-5.1h-4.3v-4.8h1
				v3.8h3.3v-4.9h1v4.9H-145.9z"/>
			<path class="st10" d="M-132.7-98.9c-0.5,0-1.3,0-2.5,0c-0.9,0-1.7-0.1-2.2-0.3c-0.6-0.2-1.1-0.5-1.5-1c-0.2-0.2-0.4-0.3-0.5-0.3
				c-0.3,0-0.9,0.6-1.7,1.9l-0.8-0.7c0.7-1.2,1.4-1.9,2-2.1v-4.3h-2v-0.9h2.9v5.2c0.1,0.1,0.2,0.2,0.4,0.3c0.3,0.4,0.7,0.7,1.1,0.9
				c0.4,0.2,1.1,0.3,1.9,0.3c1,0,1.9,0,2.8,0c0.4,0,1.1,0,2,0c0.8,0,1.3,0,1.6-0.1l-0.2,1H-132.7z M-140.9-111.2
				c1,0.7,1.8,1.5,2.4,2.2l-0.7,0.7c-0.6-0.7-1.4-1.4-2.4-2.2L-140.9-111.2z M-137.9-107.8h3.6v-1.8c-1.1,0.1-2.1,0.2-3.2,0.2
				l-0.3-0.9c2.9,0,5.3-0.3,7.3-1l0.5,0.9c-0.9,0.3-2,0.6-3.2,0.8v1.9h3.7v1h-3.7v1.7h2.8v4h-6.5v-4h2.8v-1.7h-3.6V-107.8z
				 M-131.5-102v-2.2h-4.6v2.2H-131.5z"/>
			<path class="st10" d="M-128-110.8h6.4v1h-1.8v1.6h1.6v9.6h-0.9v-0.8h-4v0.8h-0.9v-9.6h1.5v-1.6h-1.9V-110.8z M-125.9-107.3h-0.8
				v4.7h4v-1.2h-0.7c-0.6,0-0.9-0.3-0.9-1v-2.5h-0.9v0.9c0,1.5-0.3,2.6-0.9,3.3l-0.5-0.5c0.5-0.6,0.8-1.5,0.8-2.8V-107.3z
				 M-126.7-100.4h4v-1.4h-4V-100.4z M-125.2-108.3h0.9v-1.6h-0.9V-108.3z M-122.7-104.6v-2.7h-0.9v2.3c0,0.2,0.1,0.4,0.3,0.4
				H-122.7z M-115.3-102.4c-0.1,1.5-0.3,2.4-0.5,2.8c-0.2,0.4-0.7,0.6-1.3,0.6h-2.8c-0.7,0-1-0.4-1-1.3v-5.9h3.8v-3.7h-4.1v-1h5v5.7
				h-3.8v4.6c0,0.5,0.1,0.7,0.4,0.7h2.2c0.4,0,0.6-0.2,0.8-0.6c0.1-0.4,0.2-1.1,0.2-2.3L-115.3-102.4z"/>
		</g>
	</g>
</g>
<g id="RectEndPoint17" transform="translate(781,510)">
	<rect x="-202.7" y="-119" class="st7" width="98" height="50"/>
	<rect x="-204.7" y="-121" class="st8" width="98" height="50"/>
	<g transform="translate(20 9)">
		<g class="st9">
			<path class="st10" d="M-201.5-111.4l-0.4,2.6h2.3v0.6c-0.1,2.2-0.5,4.1-1.2,5.8c0.5,0.4,1,0.9,1.5,1.4l-0.7,0.8
				c-0.3-0.4-0.7-0.8-1.2-1.3c-0.6,1.1-1.4,2.1-2.3,2.9l-0.6-0.8c0.9-0.8,1.7-1.7,2.2-2.8c-0.6-0.5-1.2-1.1-1.9-1.7
				c0.3-1.2,0.6-2.5,0.8-3.9h-1.1v-1h1.2c0.1-0.6,0.2-1.5,0.4-2.7L-201.5-111.4z M-200.5-107.8h-1.5c-0.3,1.5-0.5,2.7-0.8,3.7
				c0.2,0.2,0.7,0.6,1.3,1.1C-201-104.4-200.6-106-200.5-107.8z M-197-110.1h3.2v-1.3h1v1.3h1.2v0.9h-1.2v4.3h-2.1v1.2h3.6v0.9h-2.6
				c0.6,1,1.5,1.9,2.8,2.8l-0.7,0.9c-1.3-1.1-2.3-2.3-2.8-3.6h-0.2v4.1h-1v-4.1h-0.1c-0.7,1.5-1.7,2.7-3.1,3.6l-0.5-0.9
				c1.3-0.7,2.3-1.6,2.9-2.7h-2.7v-0.9h3.6v-1.2h-2.1v-4.3h-1.3v-0.9h1.3v-1.3h1V-110.1z M-197-108h3.2v-1.3h-3.2V-108z
				 M-193.8-105.8v-1.3h-3.2v1.3H-193.8z"/>
			<path class="st10" d="M-186.5-107.8c-0.7,0.7-1.6,1.4-2.6,2.1l-0.7-0.8c1.1-0.6,2-1.3,2.7-2L-186.5-107.8z M-183.1-103.7
				c-0.2,1.8-0.6,3-1.3,3.6c-0.7,0.8-2.4,1.2-4.9,1.4l-0.4-0.9c2.2-0.1,3.7-0.5,4.4-1.1c0.6-0.6,1-1.6,1.1-3.1L-183.1-103.7z
				 M-189-111.1c0.9,0.3,1.7,0.6,2.3,1l-0.5,0.8c-0.7-0.4-1.5-0.8-2.3-1L-189-111.1z M-179.2-105.2v4.2h-1v-3.2h-7v3.3h-1v-4.3
				H-179.2z M-183.5-111.4c-0.1,0.4-0.3,0.7-0.4,0.9h5.6v0.6c-0.2,0.7-0.4,1.4-0.7,2l-1-0.3c0.2-0.4,0.4-0.9,0.6-1.5h-2.4
				c-0.1,0.3-0.1,0.6-0.3,0.9c0.7,1.1,2.2,1.8,4.3,2.2l-0.4,0.9c-2.1-0.4-3.5-1.2-4.4-2.3c-0.2,0.3-0.4,0.5-0.6,0.7
				c-0.7,0.7-1.8,1.2-3.4,1.5l-0.4-0.9c1.4-0.3,2.4-0.7,3-1.2c0.5-0.5,0.9-1.1,1-1.9h-1.8c-0.4,0.5-0.9,1-1.4,1.4l-0.6-0.8
				c0.9-0.7,1.5-1.5,1.9-2.5L-183.5-111.4z M-182.8-101.1c1.8,0.5,3.5,1,5,1.7l-0.5,0.8c-1.6-0.8-3.3-1.4-4.9-1.8L-182.8-101.1z"/>
			<path class="st10" d="M-169.2-111.5c0.3,0.4,0.5,0.9,0.7,1.4h5v1h-10.4v3.2c-0.1,3.1-0.5,5.6-1.4,7.4l-0.8-0.7
				c0.8-1.6,1.2-3.8,1.2-6.7v-4.2h5.3c-0.2-0.4-0.5-0.8-0.7-1.2L-169.2-111.5z M-169.2-108.6c-0.1,0.3-0.2,0.6-0.4,1.1h5.5v0.9h-5.8
				c-0.4,0.9-0.8,1.7-1.3,2.4h2.6v-1.7h1v1.7h3.1v0.9h-3.1v1.6h4.2v0.9h-4.2v2.2h-1v-2.2h-5.1v-0.9h5.1v-1.6h-3.7l-0.2-0.9
				c0.5-0.7,1-1.5,1.5-2.4h-2.1v-0.9h2.5c0.2-0.4,0.3-0.9,0.5-1.3L-169.2-108.6z"/>
		</g>
	</g>
</g>
<g id="RectEndPoint16" transform="translate(781,439)">
	<rect x="-202.7" y="-119" class="st7" width="98" height="50"/>
	<rect x="-204.7" y="-121" class="st8" width="98" height="50"/>
	<g transform="translate(20 9)">
		<g class="st9">
			<path class="st10" d="M-201.5-111.4l-0.4,2.6h2.3v0.6c-0.1,2.2-0.5,4.1-1.2,5.8c0.5,0.4,1,0.9,1.5,1.4l-0.7,0.8
				c-0.3-0.4-0.7-0.8-1.2-1.3c-0.6,1.1-1.4,2.1-2.3,2.9l-0.6-0.8c0.9-0.8,1.7-1.7,2.2-2.8c-0.6-0.5-1.2-1.1-1.9-1.7
				c0.3-1.2,0.6-2.5,0.8-3.9h-1.1v-1h1.2c0.1-0.6,0.2-1.5,0.4-2.7L-201.5-111.4z M-200.5-107.8h-1.5c-0.3,1.5-0.5,2.7-0.8,3.7
				c0.2,0.2,0.7,0.6,1.3,1.1C-201-104.4-200.6-106-200.5-107.8z M-197-110.1h3.2v-1.3h1v1.3h1.2v0.9h-1.2v4.3h-2.1v1.2h3.6v0.9h-2.6
				c0.6,1,1.5,1.9,2.8,2.8l-0.7,0.9c-1.3-1.1-2.3-2.3-2.8-3.6h-0.2v4.1h-1v-4.1h-0.1c-0.7,1.5-1.7,2.7-3.1,3.6l-0.5-0.9
				c1.3-0.7,2.3-1.6,2.9-2.7h-2.7v-0.9h3.6v-1.2h-2.1v-4.3h-1.3v-0.9h1.3v-1.3h1V-110.1z M-197-108h3.2v-1.3h-3.2V-108z
				 M-193.8-105.8v-1.3h-3.2v1.3H-193.8z"/>
			<path class="st10" d="M-188.4-106.1c-0.4,0.6-0.9,1.2-1.4,1.8l-0.3-1c1.5-1.8,2.5-3.8,3.1-6.1l0.9,0.4c-0.4,1.2-0.8,2.3-1.4,3.3
				v9.2h-1V-106.1z M-186.3-109h3.7v-2.4h1v2.4h3.8v1h-3c0.7,2.3,1.8,4.4,3.5,6.2l-0.7,0.8c-1.7-2.1-2.9-4.4-3.6-7h-0.1v5.6h2.2v1
				h-2.2v2.9h-1v-2.9h-2.1v-1h2.1v-5.6h-0.2c-0.7,2.9-1.9,5.3-3.7,7.1l-0.5-0.9c1.6-1.6,2.7-3.7,3.4-6.3h-2.8V-109z"/>
			<path class="st10" d="M-175.6-98.7l-0.2-1c0.5,0,0.9,0.1,1.1,0.1c0.4,0,0.5-0.2,0.5-0.6v-3.4c-0.4,0.1-1,0.4-1.7,0.6l-0.3-1
				c0.6-0.2,1.3-0.4,2-0.6v-3.1h-1.7v-1h1.7v-2.6h1v2.6h1.2v1h-1.2v2.7c0.4-0.2,0.8-0.4,1.2-0.6v1c-0.4,0.2-0.8,0.4-1.2,0.6v4.1
				c0,0.8-0.4,1.3-1.2,1.3H-175.6z M-167.7-105.5c-0.1,0.4-0.3,0.7-0.5,1.1h4.8v1h-1.5c-0.2,1-0.6,1.9-1.3,2.6
				c1,0.5,1.9,0.9,2.8,1.4l-0.5,0.8c-0.8-0.5-1.8-1-2.9-1.6c-0.9,0.7-2.4,1.2-4.4,1.6l-0.4-0.9c1.7-0.3,2.9-0.7,3.8-1.2
				c-0.7-0.3-1.6-0.7-2.7-1.2c0.4-0.6,0.7-1.1,1-1.7h-1.9v-1h2.4c0.2-0.4,0.4-0.8,0.5-1.2L-167.7-105.5z M-169.3-109.1
				c0.3,0.6,0.7,1.3,1,2.1h1.4c0.4-0.7,0.7-1.4,1-2.2l1,0.3c-0.3,0.7-0.6,1.3-0.9,1.9h2.3v1h-7.8v-1h2.1c-0.3-0.7-0.6-1.2-0.9-1.7
				L-169.3-109.1z M-167.4-111.5c0.1,0.4,0.3,0.8,0.5,1.3h3.1v0.9h-7.2v-0.9h3.1c-0.1-0.4-0.3-0.8-0.5-1.2L-167.4-111.5z
				 M-168.7-103.5c-0.3,0.5-0.5,0.9-0.8,1.2c0.8,0.3,1.6,0.6,2.4,1c0.6-0.6,1-1.3,1.3-2.2H-168.7z"/>
			<path class="st10" d="M-150.6-109.8v10.9h-1v-0.9h-8.1v0.9h-1v-10.9H-150.6z M-159.8-100.7h8.1v-8.1h-8.1V-100.7z"/>
		</g>
	</g>
</g>
<g id="RectEndPoint15" transform="translate(781,372.5)">
	<rect x="-202.7" y="-119" class="st7" width="98" height="50"/>
	<rect x="-204.7" y="-121" class="st8" width="98" height="50"/>
	<g transform="translate(20 9)">
		<g class="st9">
			<path class="st10" d="M-201.5-111.4l-0.4,2.6h2.3v0.6c-0.1,2.2-0.5,4.1-1.2,5.8c0.5,0.4,1,0.9,1.5,1.4l-0.7,0.8
				c-0.3-0.4-0.7-0.8-1.2-1.3c-0.6,1.1-1.4,2.1-2.3,2.9l-0.6-0.8c0.9-0.8,1.7-1.7,2.2-2.8c-0.6-0.5-1.2-1.1-1.9-1.7
				c0.3-1.2,0.6-2.5,0.8-3.9h-1.1v-1h1.2c0.1-0.6,0.2-1.5,0.4-2.7L-201.5-111.4z M-200.5-107.8h-1.5c-0.3,1.5-0.5,2.7-0.8,3.7
				c0.2,0.2,0.7,0.6,1.3,1.1C-201-104.4-200.6-106-200.5-107.8z M-197-110.1h3.2v-1.3h1v1.3h1.2v0.9h-1.2v4.3h-2.1v1.2h3.6v0.9h-2.6
				c0.6,1,1.5,1.9,2.8,2.8l-0.7,0.9c-1.3-1.1-2.3-2.3-2.8-3.6h-0.2v4.1h-1v-4.1h-0.1c-0.7,1.5-1.7,2.7-3.1,3.6l-0.5-0.9
				c1.3-0.7,2.3-1.6,2.9-2.7h-2.7v-0.9h3.6v-1.2h-2.1v-4.3h-1.3v-0.9h1.3v-1.3h1V-110.1z M-197-108h3.2v-1.3h-3.2V-108z
				 M-193.8-105.8v-1.3h-3.2v1.3H-193.8z"/>
			<path class="st10" d="M-188.4-106.1c-0.4,0.6-0.9,1.2-1.4,1.8l-0.3-1c1.5-1.8,2.5-3.8,3.1-6.1l0.9,0.4c-0.4,1.2-0.8,2.3-1.4,3.3
				v9.2h-1V-106.1z M-186.3-109h3.7v-2.4h1v2.4h3.8v1h-3c0.7,2.3,1.8,4.4,3.5,6.2l-0.7,0.8c-1.7-2.1-2.9-4.4-3.6-7h-0.1v5.6h2.2v1
				h-2.2v2.9h-1v-2.9h-2.1v-1h2.1v-5.6h-0.2c-0.7,2.9-1.9,5.3-3.7,7.1l-0.5-0.9c1.6-1.6,2.7-3.7,3.4-6.3h-2.8V-109z"/>
			<path class="st10" d="M-173.9-106.1h3.7v-3.2h-0.1c-1.1,1.3-2.9,2.5-5.3,3.3l-0.5-0.9c2.2-0.6,3.9-1.5,5-2.5h-4.3v-0.9h5.3v-1.3
				h1v1.3h5.3v0.9h-4.3c1.1,1,2.7,1.8,4.9,2.4l-0.4,0.9c-2.5-0.9-4.3-2-5.3-3.3h-0.1v3.2h3.7v5.1h-8.4V-106.1z M-175.7-99.9h12v0.9
				h-12V-99.9z M-172.9-104h6.4v-1.2h-6.4V-104z M-166.5-101.9v-1.2h-6.4v1.2H-166.5z"/>
			<path class="st10" d="M-162.1-107.2h3v6.2c0.4-0.3,0.9-0.8,1.4-1.4l0.3,1.1c-0.8,0.8-1.7,1.5-2.6,2.2l-0.4-0.9
				c0.2-0.2,0.3-0.4,0.3-0.6v-5.6h-2.1V-107.2z M-160.4-111.3c1,0.7,1.8,1.5,2.4,2.2l-0.7,0.7c-0.6-0.7-1.4-1.4-2.4-2.2
				L-160.4-111.3z M-154.8-111.3c-0.1,0.4-0.3,0.9-0.4,1.4h5.5c0,5.1-0.1,8.2-0.2,9.5c-0.1,1.2-0.8,1.8-2,1.8c-0.3,0-0.7,0-1.3,0
				l-0.2-0.9c0.7,0,1.2,0.1,1.4,0.1c0.6,0,1-0.4,1.1-1.2c0.1-0.8,0.2-3.6,0.2-8.1h-5c-0.5,1-1.1,1.8-1.9,2.5l-0.6-0.8
				c1.2-1.1,2-2.5,2.4-4.2L-154.8-111.3z M-156.8-107.3h4.3v6.4h-4.3V-107.3z M-155.8-104.6h2.4v-1.9h-2.4V-104.6z M-153.4-101.8
				v-1.9h-2.4v1.9H-153.4z"/>
		</g>
	</g>
</g>
<g id="RectEndPoint14" transform="translate(781,295)">
	<rect x="-202.7" y="-119" class="st7" width="98" height="50"/>
	<rect x="-204.7" y="-121" class="st8" width="98" height="50"/>
	<g transform="translate(20 9)">
		<g class="st9">
			<path class="st10" d="M-201.5-111.4l-0.4,2.6h2.3v0.6c-0.1,2.2-0.5,4.1-1.2,5.8c0.5,0.4,1,0.9,1.5,1.4l-0.7,0.8
				c-0.3-0.4-0.7-0.8-1.2-1.3c-0.6,1.1-1.4,2.1-2.3,2.9l-0.6-0.8c0.9-0.8,1.7-1.7,2.2-2.8c-0.6-0.5-1.2-1.1-1.9-1.7
				c0.3-1.2,0.6-2.5,0.8-3.9h-1.1v-1h1.2c0.1-0.6,0.2-1.5,0.4-2.7L-201.5-111.4z M-200.5-107.8h-1.5c-0.3,1.5-0.5,2.7-0.8,3.7
				c0.2,0.2,0.7,0.6,1.3,1.1C-201-104.4-200.6-106-200.5-107.8z M-197-110.1h3.2v-1.3h1v1.3h1.2v0.9h-1.2v4.3h-2.1v1.2h3.6v0.9h-2.6
				c0.6,1,1.5,1.9,2.8,2.8l-0.7,0.9c-1.3-1.1-2.3-2.3-2.8-3.6h-0.2v4.1h-1v-4.1h-0.1c-0.7,1.5-1.7,2.7-3.1,3.6l-0.5-0.9
				c1.3-0.7,2.3-1.6,2.9-2.7h-2.7v-0.9h3.6v-1.2h-2.1v-4.3h-1.3v-0.9h1.3v-1.3h1V-110.1z M-197-108h3.2v-1.3h-3.2V-108z
				 M-193.8-105.8v-1.3h-3.2v1.3H-193.8z"/>
			<path class="st10" d="M-188.4-106.1c-0.4,0.6-0.9,1.2-1.4,1.8l-0.3-1c1.5-1.8,2.5-3.8,3.1-6.1l0.9,0.4c-0.4,1.2-0.8,2.3-1.4,3.3
				v9.2h-1V-106.1z M-186.3-109h3.7v-2.4h1v2.4h3.8v1h-3c0.7,2.3,1.8,4.4,3.5,6.2l-0.7,0.8c-1.7-2.1-2.9-4.4-3.6-7h-0.1v5.6h2.2v1
				h-2.2v2.9h-1v-2.9h-2.1v-1h2.1v-5.6h-0.2c-0.7,2.9-1.9,5.3-3.7,7.1l-0.5-0.9c1.6-1.6,2.7-3.7,3.4-6.3h-2.8V-109z"/>
			<path class="st10" d="M-175.6-98.7l-0.2-1c0.5,0,0.9,0.1,1.1,0.1c0.4,0,0.5-0.2,0.5-0.6v-3.4c-0.4,0.1-1,0.4-1.7,0.6l-0.3-1
				c0.6-0.2,1.3-0.4,2-0.6v-3.1h-1.7v-1h1.7v-2.6h1v2.6h1.2v1h-1.2v2.7c0.4-0.2,0.8-0.4,1.2-0.6v1c-0.4,0.2-0.8,0.4-1.2,0.6v4.1
				c0,0.8-0.4,1.3-1.2,1.3H-175.6z M-167.7-105.5c-0.1,0.4-0.3,0.7-0.5,1.1h4.8v1h-1.5c-0.2,1-0.6,1.9-1.3,2.6
				c1,0.5,1.9,0.9,2.8,1.4l-0.5,0.8c-0.8-0.5-1.8-1-2.9-1.6c-0.9,0.7-2.4,1.2-4.4,1.6l-0.4-0.9c1.7-0.3,2.9-0.7,3.8-1.2
				c-0.7-0.3-1.6-0.7-2.7-1.2c0.4-0.6,0.7-1.1,1-1.7h-1.9v-1h2.4c0.2-0.4,0.4-0.8,0.5-1.2L-167.7-105.5z M-169.3-109.1
				c0.3,0.6,0.7,1.3,1,2.1h1.4c0.4-0.7,0.7-1.4,1-2.2l1,0.3c-0.3,0.7-0.6,1.3-0.9,1.9h2.3v1h-7.8v-1h2.1c-0.3-0.7-0.6-1.2-0.9-1.7
				L-169.3-109.1z M-167.4-111.5c0.1,0.4,0.3,0.8,0.5,1.3h3.1v0.9h-7.2v-0.9h3.1c-0.1-0.4-0.3-0.8-0.5-1.2L-167.4-111.5z
				 M-168.7-103.5c-0.3,0.5-0.5,0.9-0.8,1.2c0.8,0.3,1.6,0.6,2.4,1c0.6-0.6,1-1.3,1.3-2.2H-168.7z"/>
			<path class="st10" d="M-150.6-109.8v10.9h-1v-0.9h-8.1v0.9h-1v-10.9H-150.6z M-159.8-100.7h8.1v-8.1h-8.1V-100.7z"/>
		</g>
	</g>
</g>
<g id="RectEndPoint10" transform="translate(936,295)">
	<rect x="-222.7" y="-119" class="st7" width="98" height="50"/>
	<rect x="-224.7" y="-121" class="st8" width="98" height="50"/>
	<g transform="translate(20 9)">
		<g class="st9">
			<path class="st10" d="M-221.5-111.4l-0.4,2.6h2.3v0.6c-0.1,2.2-0.5,4.1-1.2,5.8c0.5,0.4,1,0.9,1.5,1.4l-0.7,0.8
				c-0.3-0.4-0.7-0.8-1.2-1.3c-0.6,1.1-1.4,2.1-2.3,2.9l-0.6-0.8c0.9-0.8,1.7-1.7,2.2-2.8c-0.6-0.5-1.2-1.1-1.9-1.7
				c0.3-1.2,0.6-2.5,0.8-3.9h-1.1v-1h1.2c0.1-0.6,0.2-1.5,0.4-2.7L-221.5-111.4z M-220.5-107.8h-1.5c-0.3,1.5-0.5,2.7-0.8,3.7
				c0.2,0.2,0.7,0.6,1.3,1.1C-221-104.4-220.6-106-220.5-107.8z M-217-110.1h3.2v-1.3h1v1.3h1.2v0.9h-1.2v4.3h-2.1v1.2h3.6v0.9h-2.6
				c0.6,1,1.5,1.9,2.8,2.8l-0.7,0.9c-1.3-1.1-2.3-2.3-2.8-3.6h-0.2v4.1h-1v-4.1h-0.1c-0.7,1.5-1.7,2.7-3.1,3.6l-0.5-0.9
				c1.3-0.7,2.3-1.6,2.9-2.7h-2.7v-0.9h3.6v-1.2h-2.1v-4.3h-1.3v-0.9h1.3v-1.3h1V-110.1z M-217-108h3.2v-1.3h-3.2V-108z
				 M-213.8-105.8v-1.3h-3.2v1.3H-213.8z"/>
			<path class="st10" d="M-206.5-107.8c-0.7,0.7-1.6,1.4-2.6,2.1l-0.7-0.8c1.1-0.6,2-1.3,2.7-2L-206.5-107.8z M-203.1-103.7
				c-0.2,1.8-0.6,3-1.3,3.6c-0.7,0.8-2.4,1.2-4.9,1.4l-0.4-0.9c2.2-0.1,3.7-0.5,4.4-1.1c0.6-0.6,1-1.6,1.1-3.1L-203.1-103.7z
				 M-209-111.1c0.9,0.3,1.7,0.6,2.3,1l-0.5,0.8c-0.7-0.4-1.5-0.8-2.3-1L-209-111.1z M-199.2-105.2v4.2h-1v-3.2h-7v3.3h-1v-4.3
				H-199.2z M-203.5-111.4c-0.1,0.4-0.3,0.7-0.4,0.9h5.6v0.6c-0.2,0.7-0.4,1.4-0.7,2l-1-0.3c0.2-0.4,0.4-0.9,0.6-1.5h-2.4
				c-0.1,0.3-0.1,0.6-0.3,0.9c0.7,1.1,2.2,1.8,4.3,2.2l-0.4,0.9c-2.1-0.4-3.5-1.2-4.4-2.3c-0.2,0.3-0.4,0.5-0.6,0.7
				c-0.7,0.7-1.8,1.2-3.4,1.5l-0.4-0.9c1.4-0.3,2.4-0.7,3-1.2c0.5-0.5,0.9-1.1,1-1.9h-1.8c-0.4,0.5-0.9,1-1.4,1.4l-0.6-0.8
				c0.9-0.7,1.5-1.5,1.9-2.5L-203.5-111.4z M-202.8-101.1c1.8,0.5,3.5,1,5,1.7l-0.5,0.8c-1.6-0.8-3.3-1.4-4.9-1.8L-202.8-101.1z"/>
			<path class="st10" d="M-193.9-109.5c-0.4,0.6-0.7,1.1-1.1,1.5l-0.9-0.6c0.8-0.9,1.4-1.8,1.8-2.9l1,0.2l-0.3,0.9h3.8v0.9h-2.4
				c0.3,0.4,0.6,0.8,0.8,1.2l-0.9,0.3c-0.2-0.5-0.5-1-0.9-1.6H-193.9z M-183.8-107.6v2.5h-1v-1.7h-9.9v1.7h-1v-2.5h5.5
				c-0.1-0.3-0.3-0.6-0.4-0.9l1-0.2l-0.1-0.1c0.7-0.8,1.1-1.8,1.5-2.8l1,0.2c-0.1,0.3-0.2,0.6-0.3,0.9h4v0.9h-2.5
				c0.3,0.4,0.5,0.8,0.7,1.1l-0.9,0.3c-0.3-0.5-0.5-1-0.9-1.4h-0.9c-0.2,0.4-0.5,0.9-0.9,1.3l-0.8-0.5c0.2,0.4,0.3,0.7,0.4,1.1
				H-183.8z M-185.7-105.9v2.7h-7v1h7.6v3.6h-1v-0.6h-6.6v0.6h-1v-7.3H-185.7z M-192.7-104h6v-1.1h-6V-104z M-192.7-100.1h6.6v-1.3
				h-6.6V-100.1z"/>
			<path class="st10" d="M-181.8-106.3h1.5v-3.3h-1.7v-1h4.4v1h-1.7v3.3h1.5v1h-1.5v3.1c0.6-0.2,1.1-0.4,1.7-0.7v1
				c-1.3,0.6-2.7,1-4.3,1.5l-0.3-1c0.6-0.1,1.2-0.3,1.9-0.4v-3.5h-1.5V-106.3z M-176.7-110.9h6.7v6.5h-2.9v1.7h3.1v0.9h-3.1v1.8h3.5
				v1h-8.1v-1h3.5v-1.8h-3.1v-0.9h3.1v-1.7h-2.9V-110.9z M-175.8-108.1h1.9v-1.9h-1.9V-108.1z M-173.9-105.3v-1.9h-1.9v1.9H-173.9z
				 M-172.9-110v1.9h1.9v-1.9H-172.9z M-171-105.3v-1.9h-1.9v1.9H-171z"/>
		</g>
	</g>
</g>
<g id="Textbasic8" transform="translate(866,231)">
	<rect x="-561.2" y="-152.5" class="st12" width="80" height="20"/>
	<g transform="translate(0 0)">
		<g>
			<g class="st9">
				<path class="st10" d="M-557.7-137.1h-0.7v-7.4c-0.5,1.6-1.1,3-1.9,4.3l-0.3-0.8c1-1.5,1.8-3.3,2.2-5.3h-2v-0.7h2v-2.8h0.7v2.8
					h1.7v0.7h-1.7v1c0.7,0.8,1.4,1.8,2.1,2.8l-0.4,0.6c-0.7-1.2-1.3-2-1.7-2.6V-137.1z M-555.8-137.3l-0.4-0.7
					c3.3-1.1,5.8-3.2,7.5-6.3l0.6,0.3c-0.7,1.3-1.5,2.4-2.5,3.4c1.1,0.9,2,1.8,2.7,2.8l-0.5,0.5c-0.7-0.9-1.5-1.9-2.6-2.9
					C-552.4-138.8-554-137.9-555.8-137.3z M-555.5-148.3h3.6c-0.2-0.5-0.4-1-0.7-1.5l0.8-0.1c0.3,0.5,0.5,1,0.7,1.6h3.2v0.7h-3.8
					c-0.9,1.5-1.6,2.6-2.2,3.1c1.3-0.1,2.3-0.1,2.9-0.2c0.4-0.5,0.7-1.1,1-1.6l0.6,0.3c-1.4,2.8-3.5,4.7-6.2,5.7l-0.4-0.6
					c1.8-0.6,3.3-1.7,4.5-3.1l-3.3,0.2l-0.2-0.6c0.1,0,0.1-0.1,0.2-0.1c0.6-0.4,1.4-1.4,2.3-3h-2.9V-148.3z"/>
				<path class="st10" d="M-544.2-145.3c-0.4,2.3-1,4.3-1.7,6l-0.7-0.4c0.7-1.7,1.3-3.6,1.6-5.8L-544.2-145.3z M-541.6-137.6
					c-0.9,0-1.3-0.4-1.3-1.3v-8.1h0.8v8c0,0.4,0.3,0.7,0.8,0.7h2.8c0.4,0,0.7-0.1,0.8-0.4c0.2-0.4,0.3-1.4,0.4-3.1l0.7,0.2
					c-0.1,1.9-0.3,3-0.6,3.5c-0.3,0.4-0.7,0.5-1.2,0.5H-541.6z M-541.3-149.8c1.3,1.3,2.4,2.5,3.1,3.5l-0.6,0.4
					c-0.7-1.1-1.8-2.2-3.1-3.5L-541.3-149.8z M-536.2-145.9c1,1.8,1.8,3.7,2.5,5.7l-0.7,0.3c-0.7-2.1-1.6-4-2.5-5.8L-536.2-145.9z"
					/>
				<path class="st10" d="M-532.2-148.5h4.1c2.2,0,3.3,1,3.3,2.9c0,1.9-1.1,2.9-3.3,2.9h-3.2v4.2h-0.9V-148.5z M-531.3-147.7v4.2
					h3.1c0.8,0,1.5-0.2,1.9-0.5c0.4-0.4,0.6-0.9,0.6-1.6c0-0.7-0.2-1.2-0.6-1.6c-0.4-0.4-1.1-0.5-1.9-0.5H-531.3z"/>
				<path class="st10" d="M-518.1-145.1c0.4,0.5,0.6,1.1,0.6,1.9v4.7h-0.8v-1.4c-0.3,0.4-0.7,0.8-1.2,1.1c-0.6,0.3-1.2,0.5-1.9,0.5
					c-0.7,0-1.3-0.2-1.7-0.5c-0.4-0.4-0.7-0.9-0.7-1.5c0-0.9,0.4-1.6,1.1-2c0.6-0.3,1.4-0.5,2.4-0.5l1.8,0v-0.3
					c0-1.4-0.7-2.1-2.1-2.1c-0.6,0-1.1,0.1-1.5,0.4c-0.4,0.3-0.7,0.7-0.7,1.3h-0.8c0.1-0.8,0.5-1.4,1-1.8c0.5-0.4,1.2-0.6,2.1-0.6
					C-519.4-145.9-518.6-145.7-518.1-145.1z M-518.3-142.2l-1.8,0c-1.8,0-2.7,0.6-2.7,1.8c0,0.4,0.2,0.7,0.5,1
					c0.3,0.3,0.7,0.4,1.2,0.4c0.8,0,1.4-0.3,2-0.8c0.6-0.5,0.8-1,0.8-1.6V-142.2z"/>
				<path class="st10" d="M-510.4-145.1c0.4,0.5,0.6,1.1,0.6,1.9v4.7h-0.8v-1.4c-0.3,0.4-0.7,0.8-1.2,1.1c-0.6,0.3-1.2,0.5-1.9,0.5
					c-0.7,0-1.3-0.2-1.7-0.5c-0.4-0.4-0.7-0.9-0.7-1.5c0-0.9,0.4-1.6,1.1-2c0.6-0.3,1.4-0.5,2.4-0.5l1.8,0v-0.3
					c0-1.4-0.7-2.1-2.1-2.1c-0.6,0-1.1,0.1-1.5,0.4c-0.4,0.3-0.7,0.7-0.7,1.3h-0.8c0.1-0.8,0.5-1.4,1-1.8c0.5-0.4,1.2-0.6,2.1-0.6
					C-511.6-145.9-510.9-145.7-510.4-145.1z M-510.6-142.2l-1.8,0c-1.8,0-2.7,0.6-2.7,1.8c0,0.4,0.2,0.7,0.5,1
					c0.3,0.3,0.7,0.4,1.2,0.4c0.8,0,1.4-0.3,2-0.8c0.6-0.5,0.8-1,0.8-1.6V-142.2z"/>
				<path class="st10" d="M-502-147.9c0.7,0.5,1,1.3,1.1,2.4h-0.9c-0.1-0.8-0.4-1.4-0.9-1.8c-0.5-0.4-1.1-0.6-2-0.6
					c-0.8,0-1.4,0.1-1.9,0.4c-0.5,0.3-0.8,0.8-0.8,1.4c0,0.6,0.3,1,0.9,1.3c0.3,0.2,1,0.4,1.9,0.6c1.3,0.4,2.2,0.7,2.6,1
					c0.8,0.5,1.2,1.2,1.2,2.1c0,0.9-0.4,1.5-1.1,2c-0.7,0.5-1.6,0.7-2.7,0.7c-1.1,0-2.1-0.3-2.7-0.8c-0.8-0.6-1.2-1.5-1.3-2.7h0.8
					c0.1,0.9,0.4,1.6,1,2.1c0.5,0.4,1.2,0.6,2.1,0.6c0.9,0,1.6-0.2,2.1-0.5c0.5-0.4,0.8-0.8,0.8-1.4c0-0.7-0.3-1.2-1-1.6
					c-0.4-0.2-1.1-0.5-2.2-0.8c-1.2-0.3-2-0.6-2.3-0.8c-0.8-0.4-1.1-1.1-1.1-1.9c0-0.9,0.4-1.5,1.1-2c0.6-0.4,1.5-0.6,2.5-0.6
					C-503.5-148.7-502.6-148.4-502-147.9z"/>
			</g>
		</g>
	</g>
</g>
<g id="Textbasic19" transform="translate(1076,129)">
	<g>
		<g transform="translate(0 0)">
			<g class="st9">
				<path class="st10" d="M-1051.8-112.4c0.7,0.5,1,1.3,1.1,2.4h-0.9c-0.1-0.8-0.4-1.4-0.9-1.8c-0.5-0.4-1.1-0.6-2-0.6
					c-0.8,0-1.4,0.1-1.9,0.4c-0.5,0.3-0.8,0.8-0.8,1.4c0,0.6,0.3,1,0.9,1.3c0.3,0.2,1,0.4,1.9,0.6c1.3,0.4,2.2,0.7,2.6,1
					c0.8,0.5,1.2,1.2,1.2,2.1c0,0.9-0.4,1.5-1.1,2c-0.7,0.5-1.6,0.7-2.7,0.7c-1.1,0-2.1-0.3-2.7-0.8c-0.8-0.6-1.2-1.5-1.3-2.7h0.8
					c0.1,0.9,0.4,1.6,1,2.1c0.5,0.4,1.2,0.6,2.1,0.6c0.9,0,1.6-0.2,2.1-0.5c0.5-0.4,0.8-0.8,0.8-1.4c0-0.7-0.3-1.2-1-1.6
					c-0.4-0.2-1.1-0.5-2.2-0.8c-1.2-0.3-2-0.6-2.3-0.8c-0.8-0.4-1.1-1.1-1.1-1.9c0-0.9,0.4-1.5,1.1-2c0.6-0.4,1.5-0.6,2.5-0.6
					C-1053.3-113.2-1052.4-112.9-1051.8-112.4z"/>
				<path class="st10" d="M-1043.8-109.6c0.4,0.5,0.6,1.1,0.6,1.9v4.7h-0.8v-1.4c-0.3,0.4-0.7,0.8-1.2,1.1c-0.6,0.3-1.2,0.5-1.9,0.5
					c-0.7,0-1.3-0.2-1.7-0.5c-0.4-0.4-0.7-0.9-0.7-1.5c0-0.9,0.4-1.6,1.1-2c0.6-0.3,1.4-0.5,2.4-0.5l1.8,0v-0.3
					c0-1.4-0.7-2.1-2.1-2.1c-0.6,0-1.1,0.1-1.5,0.4c-0.4,0.3-0.7,0.7-0.7,1.3h-0.8c0.1-0.8,0.5-1.4,1-1.8c0.5-0.4,1.2-0.6,2.1-0.6
					C-1045-110.4-1044.3-110.2-1043.8-109.6z M-1044-106.7l-1.8,0c-1.8,0-2.7,0.6-2.7,1.8c0,0.4,0.2,0.7,0.5,1
					c0.3,0.3,0.7,0.4,1.2,0.4c0.8,0,1.4-0.3,2-0.8c0.6-0.5,0.8-1,0.8-1.6V-106.7z"/>
				<path class="st10" d="M-1036.1-109.6c0.4,0.5,0.6,1.1,0.6,1.9v4.7h-0.8v-1.4c-0.3,0.4-0.7,0.8-1.2,1.1c-0.6,0.3-1.2,0.5-1.9,0.5
					c-0.7,0-1.3-0.2-1.7-0.5c-0.4-0.4-0.7-0.9-0.7-1.5c0-0.9,0.4-1.6,1.1-2c0.6-0.3,1.4-0.5,2.4-0.5l1.8,0v-0.3
					c0-1.4-0.7-2.1-2.1-2.1c-0.6,0-1.1,0.1-1.5,0.4c-0.4,0.3-0.7,0.7-0.7,1.3h-0.8c0.1-0.8,0.5-1.4,1-1.8c0.5-0.4,1.2-0.6,2.1-0.6
					C-1037.3-110.4-1036.5-110.2-1036.1-109.6z M-1036.3-106.7l-1.8,0c-1.8,0-2.7,0.6-2.7,1.8c0,0.4,0.2,0.7,0.5,1
					c0.3,0.3,0.7,0.4,1.2,0.4c0.8,0,1.4-0.3,2-0.8c0.6-0.5,0.8-1,0.8-1.6V-106.7z"/>
				<path class="st10" d="M-1027.6-112.4c0.7,0.5,1,1.3,1.1,2.4h-0.9c-0.1-0.8-0.4-1.4-0.9-1.8c-0.5-0.4-1.1-0.6-2-0.6
					c-0.8,0-1.4,0.1-1.9,0.4c-0.5,0.3-0.8,0.8-0.8,1.4c0,0.6,0.3,1,0.9,1.3c0.3,0.2,1,0.4,1.9,0.6c1.3,0.4,2.2,0.7,2.6,1
					c0.8,0.5,1.2,1.2,1.2,2.1c0,0.9-0.4,1.5-1.1,2c-0.7,0.5-1.6,0.7-2.7,0.7c-1.1,0-2.1-0.3-2.7-0.8c-0.8-0.6-1.2-1.5-1.3-2.7h0.8
					c0.1,0.9,0.4,1.6,1,2.1c0.5,0.4,1.2,0.6,2.1,0.6c0.9,0,1.6-0.2,2.1-0.5c0.5-0.4,0.8-0.8,0.8-1.4c0-0.7-0.3-1.2-1-1.6
					c-0.4-0.2-1.1-0.5-2.2-0.8c-1.2-0.3-2-0.6-2.3-0.8c-0.8-0.4-1.1-1.1-1.1-1.9c0-0.9,0.4-1.5,1.1-2c0.6-0.4,1.5-0.6,2.5-0.6
					C-1029.2-113.2-1028.3-112.9-1027.6-112.4z"/>
				<path class="st10" d="M-1015.5-114.5h0.8l-5,12.9h-0.8L-1015.5-114.5z"/>
				<path class="st10" d="M-1005.5-113h1l4,10h-0.9l-1.2-3h-4.8l-1.2,3h-0.9L-1005.5-113z M-1007.1-106.7h4.3l-2.1-5.4h0
					L-1007.1-106.7z"/>
				<path class="st10" d="M-999.5-113h4.1c2.2,0,3.3,1,3.3,2.9c0,1.9-1.1,2.9-3.3,2.9h-3.2v4.2h-0.9V-113z M-998.6-112.2v4.2h3.1
					c0.8,0,1.5-0.2,1.9-0.5c0.4-0.4,0.6-0.9,0.6-1.6c0-0.7-0.2-1.2-0.6-1.6c-0.4-0.4-1.1-0.5-1.9-0.5H-998.6z"/>
				<path class="st10" d="M-990.6-113h4.1c2.2,0,3.3,1,3.3,2.9c0,1.9-1.1,2.9-3.3,2.9h-3.2v4.2h-0.9V-113z M-989.7-112.2v4.2h3.1
					c0.8,0,1.5-0.2,1.9-0.5c0.4-0.4,0.6-0.9,0.6-1.6c0-0.7-0.2-1.2-0.6-1.6c-0.4-0.4-1.1-0.5-1.9-0.5H-989.7z"/>
			</g>
		</g>
	</g>
</g>
<g id="Textbasic21" transform="translate(972,189.5)">
	<rect x="-832.7" y="-153.5" class="st12" width="80" height="20"/>
	<g transform="translate(0 0)">
		<g>
			<g class="st9">
				<path class="st10" d="M-827.4-144.5c-0.6,0.3-1.1,0.6-1.8,0.8v4.2c0,0.8-0.4,1.2-1.1,1.2h-1.2l-0.2-0.7c0.5,0,0.9,0.1,1.1,0.1
					c0.4,0,0.6-0.3,0.6-0.8v-3.7c-0.7,0.3-1.4,0.5-2.1,0.7l-0.2-0.8c0.8-0.2,1.6-0.4,2.3-0.7v-3.4h-2v-0.7h2v-2.6h0.7v2.6h1.7v0.7
					h-1.7v3.1c0.6-0.3,1.1-0.5,1.8-0.9V-144.5z M-823.1-151c0.3,0.6,0.6,1.3,0.8,2.1h2.9v0.8h-6.4v3.2c-0.1,2.8-0.8,5.1-2.1,6.8
					l-0.6-0.5c1.2-1.5,1.8-3.6,1.9-6.2v-3.9h3.5c-0.2-0.7-0.5-1.3-0.9-2L-823.1-151z"/>
				<path class="st10" d="M-816.1-142.5c-0.3,1.6-0.8,3-1.5,4.3l-0.6-0.5c1-1.8,1.5-4.1,1.6-6.9v-4.7h10.1v3.1h-1.9v1.6h2.3v0.7
					h-2.3v1.7h2.7v0.7h-4.7c0.4,0.7,0.9,1.3,1.5,1.9c0.7-0.4,1.4-0.9,2-1.7l0.5,0.5c-0.6,0.7-1.2,1.2-1.9,1.6c0.8,0.6,1.9,1,3.1,1.3
					l-0.3,0.7c-2.6-0.6-4.5-2.1-5.5-4.4h-2v3.4c1-0.3,1.8-0.5,2.5-0.8l0.1,0.7c-1,0.4-2.2,0.7-3.6,1l-0.2-0.7
					c0.3-0.1,0.4-0.3,0.4-0.6v-3.1H-816.1z M-815.1-145.5h2.1v-1.6h0.7v1.6h3.1v-1.6h-6.7v1.6c0,0.8-0.1,1.6-0.2,2.4h3v-1.7h-2.1
					V-145.5z M-807.2-149.6h-8.6v1.8h8.6V-149.6z M-812.2-143.2h3.1v-1.7h-3.1V-143.2z"/>
				<path class="st10" d="M-799-149.5h4.1c2.2,0,3.3,1,3.3,2.9c0,1.9-1.1,2.9-3.3,2.9h-3.2v4.2h-0.9V-149.5z M-798.2-148.7v4.2h3.1
					c0.8,0,1.5-0.2,1.9-0.5c0.4-0.4,0.6-0.9,0.6-1.6c0-0.7-0.2-1.2-0.6-1.6c-0.4-0.4-1.1-0.5-1.9-0.5H-798.2z"/>
				<path class="st10" d="M-785-146.1c0.4,0.5,0.6,1.1,0.6,1.9v4.7h-0.8v-1.4c-0.3,0.4-0.7,0.8-1.2,1.1c-0.6,0.3-1.2,0.5-1.9,0.5
					c-0.7,0-1.3-0.2-1.7-0.5c-0.4-0.4-0.7-0.9-0.7-1.5c0-0.9,0.4-1.6,1.1-2c0.6-0.3,1.4-0.5,2.4-0.5l1.8,0v-0.3
					c0-1.4-0.7-2.1-2.1-2.1c-0.6,0-1.1,0.1-1.5,0.4c-0.4,0.3-0.7,0.7-0.7,1.3h-0.8c0.1-0.8,0.5-1.4,1-1.8c0.5-0.4,1.2-0.6,2.1-0.6
					C-786.2-146.9-785.4-146.7-785-146.1z M-785.1-143.2l-1.8,0c-1.8,0-2.7,0.6-2.7,1.8c0,0.4,0.2,0.7,0.5,1
					c0.3,0.3,0.7,0.4,1.2,0.4c0.8,0,1.4-0.3,2-0.8c0.6-0.5,0.8-1,0.8-1.6V-143.2z"/>
				<path class="st10" d="M-777.2-146.1c0.4,0.5,0.6,1.1,0.6,1.9v4.7h-0.8v-1.4c-0.3,0.4-0.7,0.8-1.2,1.1c-0.6,0.3-1.2,0.5-1.9,0.5
					c-0.7,0-1.3-0.2-1.7-0.5c-0.4-0.4-0.7-0.9-0.7-1.5c0-0.9,0.4-1.6,1.1-2c0.6-0.3,1.4-0.5,2.4-0.5l1.8,0v-0.3
					c0-1.4-0.7-2.1-2.1-2.1c-0.6,0-1.1,0.1-1.5,0.4c-0.4,0.3-0.7,0.7-0.7,1.3h-0.8c0.1-0.8,0.5-1.4,1-1.8c0.5-0.4,1.2-0.6,2.1-0.6
					C-778.5-146.9-777.7-146.7-777.2-146.1z M-777.4-143.2l-1.8,0c-1.8,0-2.7,0.6-2.7,1.8c0,0.4,0.2,0.7,0.5,1
					c0.3,0.3,0.7,0.4,1.2,0.4c0.8,0,1.4-0.3,2-0.8c0.6-0.5,0.8-1,0.8-1.6V-143.2z"/>
				<path class="st10" d="M-768.8-148.9c0.7,0.5,1,1.3,1.1,2.4h-0.9c-0.1-0.8-0.4-1.4-0.9-1.8c-0.5-0.4-1.1-0.6-2-0.6
					c-0.8,0-1.4,0.1-1.9,0.4c-0.5,0.3-0.8,0.8-0.8,1.4c0,0.6,0.3,1,0.9,1.3c0.3,0.2,1,0.4,1.9,0.6c1.3,0.4,2.2,0.7,2.6,1
					c0.8,0.5,1.2,1.2,1.2,2.1c0,0.9-0.4,1.5-1.1,2c-0.7,0.5-1.6,0.7-2.7,0.7c-1.1,0-2.1-0.3-2.7-0.8c-0.8-0.6-1.2-1.5-1.3-2.7h0.8
					c0.1,0.9,0.4,1.6,1,2.1c0.5,0.4,1.2,0.6,2.1,0.6c0.9,0,1.6-0.2,2.1-0.5c0.5-0.4,0.8-0.8,0.8-1.4c0-0.7-0.3-1.2-1-1.6
					c-0.4-0.2-1.1-0.5-2.2-0.8c-1.2-0.3-2-0.6-2.3-0.8c-0.8-0.4-1.1-1.1-1.1-1.9c0-0.9,0.4-1.5,1.1-2c0.6-0.4,1.5-0.6,2.5-0.6
					C-770.3-149.7-769.5-149.4-768.8-148.9z"/>
			</g>
		</g>
	</g>
</g>
<g id="assistantgroup" transform="translate(0,0)">
</g>
</svg>
