<?xml version="1.0" encoding="utf-8"?>
<!-- Generator: Adobe Illustrator 22.1.0, SVG Export Plug-In . SVG Version: 6.00 Build 0)  -->
<svg version="1.1" id="svgwrapper_svg" xmlns="http://www.w3.org/2000/svg" xmlns:xlink="http://www.w3.org/1999/xlink" x="0px"
	 y="0px" viewBox="0 0 830 492.8" style="enable-background:new 0 0 830 492.8;" xml:space="preserve">
<style type="text/css">
	.st0{display:none;fill:none;stroke:#999999;}
	.st1{fill:#CEE3FF;}
	.st2{enable-background:new    ;}
	.st3{fill:#00A4FF;}
	.st4{fill:none;stroke:#BABABA;stroke-dasharray:5;}
	.st5{fill:#444444;}
	.st6{opacity:0.6;fill:#BBBBBB;enable-background:new    ;}
	.st7{fill:#FFFFFF;stroke:#E5E5E5;}
	.st8{fill:#878787;}
</style>
<path class="st0" d="M84.5,181.6L84.5,181.6"/>
<rect x="257.1" y="114.6" class="st1" width="496" height="103"/>
<g transform="translate(10 10)">
	<g transform="translate(0 2)">
	</g>
	<g class="st2">
		<path class="st3" d="M261.7,121.8c-0.1,0.3-0.2,0.5-0.3,0.8h2.9v0.8c-0.3,0.9-0.8,1.7-1.6,2.4c0.7,0.3,1.3,0.6,1.9,1l-0.5,0.8
			c-0.6-0.4-1.3-0.7-2.2-1.1c-0.9,0.6-2.1,1.2-3.5,1.6l-0.5-0.8c1.1-0.3,2.1-0.7,3-1.1c-0.6-0.3-1.3-0.5-1.9-0.8
			c0.4-0.6,0.7-1.2,1-1.8h-1.7v-1h2c0.1-0.3,0.2-0.6,0.3-0.9L261.7,121.8z M261.2,117.8v-2.7h0.9v2.7h2.5v0.9h-2.5v0.2
			c0.8,0.4,1.5,0.8,2.3,1.3l-0.5,0.8c-0.7-0.6-1.3-1-1.8-1.3v1.8h-0.9v-2.7c-0.5,1.1-1.3,2.1-2.5,2.9l-0.5-0.8
			c1.1-0.6,1.8-1.3,2.3-2.1h-2v-0.9L261.2,117.8L261.2,117.8z M260.4,117.2l-0.7,0.3c-0.3-0.7-0.6-1.3-0.9-1.8l0.8-0.3
			C259.9,116,260.1,116.6,260.4,117.2z M263.5,123.4h-2.4c-0.2,0.5-0.5,0.9-0.8,1.3c0.6,0.2,1.1,0.4,1.6,0.6
			C262.6,124.8,263.1,124.2,263.5,123.4z M264.5,115.7c-0.3,0.6-0.6,1.2-1.1,1.8l-0.7-0.4c0.4-0.6,0.8-1.2,1.1-1.8L264.5,115.7z
			 M266,120.5c-0.3,0.6-0.5,1.2-0.8,1.7l-0.6-0.8c0.8-1.6,1.4-3.7,1.7-6.3l1,0.2c-0.1,0.7-0.2,1.4-0.3,2h3.7v1h-0.9
			c-0.1,2.3-0.5,4.3-1.3,6c0.7,1.3,1.6,2.2,2.6,2.9l-0.5,0.8c-1-0.7-1.8-1.7-2.5-2.8c-0.7,1.1-1.5,2.1-2.6,2.8l-0.5-0.8
			c1.1-0.8,1.9-1.7,2.6-2.9C266.9,123.2,266.4,121.9,266,120.5z M266.5,119c0.4,1.6,0.8,3.1,1.4,4.2c0.5-1.4,0.8-3.1,0.9-5h-2.1
			L266.5,119z"/>
		<path class="st3" d="M272.6,127.9l-0.2-1c0.4,0,0.7,0.1,1.1,0.1s0.5-0.2,0.5-0.6V123c-0.6,0.2-1.1,0.4-1.7,0.6l-0.3-1
			c0.6-0.2,1.3-0.4,1.9-0.6v-3.2h-1.7v-1h1.7v-2.6h1v2.6h1.3v1H275v2.8c0.4-0.2,0.9-0.4,1.3-0.6v1c-0.4,0.2-0.9,0.4-1.3,0.6v4.1
			c0,0.8-0.4,1.2-1.2,1.2L272.6,127.9L272.6,127.9z M276.3,128l-0.8-0.7c1-1.8,1.5-4.3,1.5-7.2v-4.4h7.4v3.4h-2.6v1.7h3v0.9h-3v1.7
			h2.4v4.6h-0.9v-0.7h-3.8v0.7h-0.9v-4.6h2.3v-1.7H278C277.8,124.1,277.3,126.2,276.3,128z M278.1,119.1v1c0,0.2,0,0.4,0,0.7h2.8
			v-1.7H278.1z M278.1,116.7v1.6h5.4v-1.6H278.1z M283.2,126.4v-2.1h-3.8v2.1H283.2z"/>
		<path class="st3" d="M298,116v1h-2.3v3.7h3.1v1h-3.1v6.2h-1v-6.2h-4c-0.1,1.4-0.4,2.6-0.8,3.6c-0.5,1.2-1.4,2.1-2.6,2.7l-0.5-0.9
			c1.1-0.6,1.9-1.5,2.4-2.6c0.3-0.8,0.5-1.8,0.6-2.9h-3.2v-1h3.3c0-0.2,0-0.4,0-0.5v-3.2h-2.5v-1L298,116L298,116z M290.7,120.2
			c0,0.2,0,0.3,0,0.5h4V117h-4V120.2z"/>
		<path class="st3" d="M302.2,115.6l1,0.2l-0.8,2.8h2.5c0.3-1.1,0.5-2.2,0.7-3.4l1,0.1c-0.2,1.2-0.4,2.3-0.7,3.3h6.6v1h-6.8
			c-0.2,0.6-0.3,1.1-0.5,1.6h5.7v0.9c-0.4,1.2-1.1,2.3-2.3,3.3c1.1,0.7,2.5,1.3,4.1,1.8l-0.5,0.9c-1.8-0.7-3.3-1.4-4.5-2.1
			c-1.1,0.8-2.6,1.5-4.3,2.2l-0.5-0.9c1.6-0.6,2.9-1.2,3.9-1.9c-1.1-0.8-1.9-1.8-2.3-2.7c-1,2.2-2.3,4-3.9,5.3l-0.5-0.9
			c2-1.8,3.5-4.2,4.5-7.4h-3.5L302.2,115.6z M307.7,124.6c1-0.8,1.8-1.7,2.1-2.6h-4.5C305.8,122.9,306.6,123.8,307.7,124.6z
			 M311.4,117.5l-0.7,0.7c-0.6-0.7-1.4-1.5-2.5-2.4l0.7-0.7C309.9,115.9,310.8,116.7,311.4,117.5z"/>
		<path class="st3" d="M315,128l-0.8-0.7c0.6-1.3,0.8-2.9,0.9-4.8v-6.7h4.1v10.9c0,0.8-0.4,1.3-1.2,1.3h-1.1l-0.2-0.9
			c0.4,0,0.7,0.1,1.1,0.1s0.5-0.3,0.5-0.8v-3.2H316C316,125.2,315.6,126.8,315,128z M318.3,116.7H316v2.4h2.3V116.7z M316,122.3h2.3
			V120H316V122.3z M321.4,128h-1v-12.3h5.7c0,1.7-0.1,2.9-0.3,3.4c-0.2,0.6-0.7,0.9-1.6,0.9h-1.1l-0.3-0.9c0.2,0,0.5,0,0.9,0
			c0.3,0,0.6,0,0.7-0.1c0.2-0.1,0.3-0.2,0.4-0.4c0.1-0.3,0.2-1,0.2-2.1h-3.7v4.2h4.8v0.9c-0.3,1.4-0.7,2.7-1.4,3.7
			c0.6,0.6,1.4,1.2,2.2,1.7l-0.5,0.9c-0.9-0.5-1.7-1.1-2.3-1.7c-0.6,0.7-1.3,1.3-2.2,1.7l-0.5-0.8c0.8-0.4,1.5-1,2-1.7
			c-0.9-1.1-1.5-2.3-1.8-3.7h-0.3L321.4,128L321.4,128z M324.1,124.7c0.5-0.8,0.9-1.8,1.1-2.9h-2.7
			C322.9,122.9,323.4,123.9,324.1,124.7z"/>
		<path class="st3" d="M333.3,115.3c-0.2,0.4-0.3,0.7-0.5,1.1h6.1v0.8c-0.9,1-2,1.9-3.3,2.6c1.6,0.7,3.3,1.1,5.3,1.3l-0.5,0.9
			c-2.2-0.3-4.2-0.8-5.9-1.7c-1.7,0.8-3.7,1.4-6,1.7l-0.5-1c2-0.3,3.8-0.7,5.4-1.3c-0.8-0.5-1.5-1-2.2-1.6c-0.5,0.5-1.1,0.9-1.8,1.3
			l-0.6-0.8c1.7-1,2.8-2.1,3.4-3.5L333.3,115.3z M334.7,121.3c0,0.6-0.1,1.1-0.1,1.6h4.9c0,2.4-0.2,3.8-0.6,4.2
			c-0.4,0.5-1.1,0.7-2.1,0.7c-0.4,0-1,0-1.6-0.1l-0.3-0.9l1.7,0.1c0.8,0,1.4-0.2,1.6-0.5s0.3-1.2,0.4-2.6h-4.1
			c-0.1,0.4-0.3,0.7-0.4,1c-0.7,1.3-2.4,2.3-4.9,3.1l-0.7-0.8c2.3-0.7,3.8-1.5,4.6-2.5c0.2-0.3,0.3-0.5,0.4-0.8h-4.2v-0.9h4.5
			c0.1-0.5,0.2-1,0.2-1.6H334.7z M337.5,117.3h-5.4l-0.2,0.2c0.8,0.7,1.7,1.3,2.6,1.8C335.7,118.7,336.6,118,337.5,117.3z"/>
	</g>
</g>
<rect x="256.5" y="238.1" class="st1" width="496" height="162"/>
<g class="st2">
	<path class="st3" d="M271.4,250.6c0.2-0.5,0.4-1,0.5-1.5l1,0.1c-0.1,0.5-0.3,0.9-0.4,1.4h7.2v1h-7.6c-0.5,1.2-1.2,2.3-1.9,3.3v7.1
		h-1v-5.9c-0.5,0.5-1,1-1.5,1.5l-0.6-0.8c1.7-1.5,3-3.2,3.9-5.2h-3.4v-1H271.4z M275.3,257.1v-1.3c0.8-0.4,1.6-1,2.3-1.6h-5.3v-0.9
		h6.6v0.9c-0.8,0.7-1.6,1.4-2.6,2v0.9h3.5v1h-3.5v2.6c0,0.8-0.4,1.2-1.2,1.2h-1.8l-0.3-1c0.5,0,1,0,1.6,0c0.4,0,0.6-0.2,0.6-0.6V258
		h-4.1v-1L275.3,257.1L275.3,257.1z"/>
	<path class="st3" d="M281.3,255.8l-0.3-1.1c1.1-1.6,1.9-3.4,2.4-5.5l0.9,0.4c-0.3,1-0.6,1.9-0.9,2.7v9.7h-1v-7.8
		C282.1,254.7,281.7,255.2,281.3,255.8z M286.5,253.5v5.9c0.4-0.4,0.7-0.8,1.1-1.3l0.2,1c-0.7,0.9-1.5,1.7-2.2,2.4l-0.4-0.9
		c0.2-0.2,0.3-0.4,0.3-0.5v-5.6h-1.6v-0.9h2.6V253.5z M287.3,251.8l-0.7,0.7c-0.5-0.7-1.2-1.4-2-2.2l0.7-0.7
		C286.1,250.4,286.7,251.1,287.3,251.8z M289.7,250.8v-1.6h0.9v1.6h1.6v0.8c0.3-0.6,0.5-1.1,0.8-1.7l0.8,0.4c-0.5,1.2-1,2.2-1.7,3.2
		h1.6v0.9h-2.3c-0.4,0.5-0.8,0.9-1.2,1.3h2.9v6.2h-1v-0.6h-2.6v0.6h-0.9v-5c-0.3,0.2-0.7,0.4-1,0.5l-0.5-0.8
		c1.2-0.5,2.3-1.3,3.2-2.3h-2.5v-0.9h2v-1.8H288v-0.9L289.7,250.8L289.7,250.8z M292.2,256.6h-2.6v1.5h2.6V256.6z M289.5,260.5h2.6
		V259h-2.6V260.5z M292.2,251.7h-1.6v1.8h0.4C291.4,252.9,291.8,252.3,292.2,251.7z"/>
	<path class="st3" d="M298.2,253.4v6.2c0.5-0.4,1.1-0.9,1.7-1.5l0.3,1c-0.9,0.8-1.8,1.6-2.8,2.2l-0.4-0.9c0.2-0.2,0.3-0.4,0.3-0.6
		v-5.6h-2.1v-1h3V253.4z M299.2,251.5l-0.7,0.7c-0.6-0.7-1.4-1.4-2.4-2.2l0.7-0.7C297.7,250,298.5,250.7,299.2,251.5z M303.3,253.4
		v-4.2h1v4.2h3.6v1h-3.6v7.7h-1v-7.7h-3.8v-1H303.3z"/>
	<path class="st3" d="M320.2,252.3v5.5h-1.7v0.9h3.2v0.9h-3.2v2.4h-1v-2.4h-4c-0.1,0.4-0.3,0.8-0.6,1.1c-0.5,0.5-1.3,1-2.3,1.3
		l-0.5-0.8c1-0.3,1.7-0.6,2.1-1c0.1-0.2,0.2-0.3,0.3-0.5h-3.2v-0.9h3.4c0-0.1,0-0.3,0-0.4v-0.5H311v-5.5h9.2V252.3z M310.2,252.5
		l-0.8-0.5c0.9-0.9,1.5-1.9,1.8-2.9l1,0.2c-0.1,0.3-0.2,0.6-0.4,0.8h3.5v0.9h-1.8c0.2,0.3,0.4,0.6,0.6,0.9l-0.8,0.3
		c-0.2-0.4-0.5-0.8-0.8-1.2h-1.1C311.1,251.5,310.7,252,310.2,252.5z M319.2,253.9v-0.8H312v0.8H319.2z M319.2,255.4v-0.8H312v0.8
		H319.2z M319.2,256.2H312v0.9h7.3L319.2,256.2L319.2,256.2z M313.8,258.4c0,0.1,0,0.3,0,0.4h3.8v-0.9h-3.8V258.4z M316.2,252.2
		l-0.8-0.5c0.7-0.8,1.2-1.7,1.5-2.6l1,0.2l-0.3,0.8h4v0.9h-2.3c0.3,0.3,0.4,0.6,0.6,0.9l-0.8,0.3c-0.2-0.4-0.5-0.8-0.8-1.2h-1.1
		C316.9,251.4,316.6,251.8,316.2,252.2z"/>
	<path class="st3" d="M324.6,256.1h5.4c0,2.3-0.1,3.8-0.3,4.6c-0.2,0.8-1.1,1.2-2.6,1.3c-0.4,0-0.9,0-1.3-0.1l-0.3-0.9
		c0.4,0,0.9,0.1,1.3,0.1c1.1,0,1.7-0.3,1.9-0.7c0.2-0.5,0.2-1.6,0.2-3.2h-5.5l0.7-4.2h4.7v-2.4h-5.1v-0.9h6.1v4H325L324.6,256.1z
		 M334.3,249.2v12.9h-1v-12.9H334.3z"/>
	<path class="st3" d="M340,249.1v0.6h1.5v-0.6h0.8v0.6h1.7v0.8h-1.7v0.7h-0.8v-0.7H340v0.7h-0.8c-0.1,0.1-0.1,0.3-0.1,0.4h4.5
		c0,1.8-0.1,2.9-0.2,3.2c-0.1,0.3-0.2,0.5-0.4,0.6c-0.2,0.1-0.7,0.2-1.4,0.2H341l-0.2-0.6h-2.6v-1.9c-0.2,0.2-0.4,0.4-0.6,0.5
		l-0.5-0.7c0.7-0.5,1.1-1.2,1.3-2.1l0.7,0.1v-0.5h-1.8v-0.8h1.8V249L340,249.1L340,249.1z M348.3,256.4c-1.2,0.2-2.6,0.3-4.1,0.4
		v0.9h4.3v0.7h-4.3v0.9h5.5v0.8h-5.5v0.8c0,0.7-0.4,1.1-1.2,1.1h-1.7l-0.2-0.9c0.5,0,1.1,0.1,1.6,0.1c0.4,0,0.5-0.2,0.5-0.5v-0.6
		h-5.8v-0.8h5.8v-0.9h-4.8v-0.7h4.8v-0.9c-1.4,0.1-2.9,0.1-4.5,0.1l-0.3-0.8c3.8,0,6.9-0.2,9.3-0.6L348.3,256.4z M341.8,254.9
		c0.3,0,0.5,0,0.6-0.1s0.2-0.2,0.2-0.4c0-0.2,0.1-0.9,0.1-2h-3.9c-0.1,0.2-0.3,0.4-0.4,0.6h3.3L341.8,254.9L341.8,254.9z
		 M340.9,253.6H339v0.8h1.8v-0.8H340.9z M344.2,253.1l-0.5-0.7c0.8-0.9,1.3-2,1.6-3.4l0.9,0.1c-0.1,0.4-0.2,0.7-0.3,1.1h3.6v0.8
		h-0.8c-0.2,1.1-0.6,1.9-1.2,2.6c0.6,0.4,1.5,0.8,2.4,1.1l-0.5,0.8c-1.1-0.3-1.9-0.8-2.6-1.3c-0.7,0.5-1.5,0.9-2.4,1.1l-0.4-0.8
		c0.8-0.2,1.5-0.5,2.1-0.9c-0.5-0.5-0.9-1-1.1-1.6C344.7,252.5,344.5,252.8,344.2,253.1z M345.5,251.3c0.2,0.7,0.6,1.4,1.3,1.9
		c0.5-0.6,0.9-1.3,1-2.1h-2.2C345.5,251.2,345.5,251.2,345.5,251.3z"/>
</g>
<path class="st4" d="M236.4,73.7h536.1v347.5H236.4V73.7"/>
<g transform="translate(10 10)">
	<g class="st2">
		<path class="st5" d="M264,76.3v1h-3.5v9h-1.1v-9h-3.5v-1H264z"/>
		<path class="st5" d="M269.7,76.3c0.9,0,1.7,0.2,2.2,0.7c0.5,0.4,0.8,1.1,0.8,1.8c0,0.6-0.2,1.1-0.4,1.5c-0.3,0.4-0.7,0.6-1.2,0.8
			c0.7,0.1,1.2,0.4,1.5,0.8c0.4,0.4,0.6,1,0.6,1.6c0,1-0.4,1.7-1,2.2c-0.6,0.4-1.4,0.6-2.4,0.6h-4.4v-10H269.7z M266.4,80.7h3
			c0.7,0,1.2-0.2,1.6-0.4c0.4-0.3,0.6-0.7,0.6-1.3c0-0.6-0.2-1-0.5-1.3s-0.9-0.4-1.6-0.4h-3.1V80.7z M266.4,85.3h3.2
			c0.7,0,1.2-0.1,1.7-0.4s0.7-0.8,0.7-1.4s-0.2-1.1-0.6-1.4s-1-0.4-1.8-0.4h-3.2L266.4,85.3L266.4,85.3z"/>
		<path class="st5" d="M278.3,76.3c1.6,0,2.8,0.4,3.6,1.4c0.7,0.8,1.1,2.1,1.1,3.6s-0.4,2.8-1.2,3.6c-0.8,0.9-2,1.4-3.6,1.4h-3.5
			v-10H278.3z M275.9,85.3h2.1c1.3,0,2.3-0.4,2.9-1c0.6-0.7,0.9-1.7,0.9-3s-0.3-2.3-0.9-3s-1.6-1-2.9-1h-2.3v8H275.9z"/>
		<path class="st5" d="M290.7,76.9c0.7,0.5,1.1,1.3,1.1,2.4h-1.1c-0.1-0.7-0.4-1.3-0.8-1.6c-0.4-0.4-1.1-0.5-1.9-0.5
			c-0.7,0-1.3,0.1-1.7,0.4c-0.5,0.3-0.7,0.7-0.7,1.3c0,0.5,0.3,0.9,0.9,1.2c0.3,0.1,0.9,0.3,1.8,0.6c1.3,0.4,2.2,0.7,2.6,1
			c0.8,0.5,1.2,1.2,1.2,2.1s-0.4,1.6-1.1,2.1s-1.6,0.7-2.8,0.7c-1.2,0-2.1-0.3-2.8-0.8c-0.8-0.6-1.2-1.5-1.3-2.7h1.1
			c0.1,0.9,0.4,1.5,0.9,1.9s1.1,0.6,2,0.6c0.8,0,1.5-0.2,2-0.5s0.8-0.7,0.8-1.3c0-0.6-0.3-1.1-1-1.5c-0.3-0.2-1-0.4-2.1-0.7
			c-1.2-0.4-2-0.6-2.3-0.8c-0.8-0.4-1.1-1.1-1.1-1.9c0-0.9,0.4-1.6,1.1-2s1.5-0.7,2.5-0.7C289.1,76.1,290,76.4,290.7,76.9z"/>
	</g>
</g>
<g id="middlegroup" transform="translate(0,0)">
</g>
<g>
	<g id="RectEndPoint14" transform="translate(333,168)">
		<rect x="-63" y="-12.4" class="st6" width="227.6" height="50"/>
		<rect x="-65" y="-14.4" class="st7" width="227.6" height="50"/>
		<g transform="translate(20 9)">
			<g class="st2">
				<path class="st5" d="M-8.9,1.8C-9,2-9.1,2.3-9.2,2.6h2.9v0.8c-0.3,0.9-0.8,1.7-1.6,2.4c0.7,0.3,1.3,0.6,1.9,1l-0.5,0.8
					c-0.6-0.4-1.3-0.7-2.2-1.1c-0.9,0.6-2.1,1.2-3.5,1.6l-0.5-0.8c1.1-0.3,2.1-0.7,3-1.1c-0.6-0.3-1.3-0.5-1.9-0.8
					c0.4-0.6,0.7-1.2,1-1.8h-1.7v-1h2c0.1-0.3,0.2-0.6,0.3-0.9L-8.9,1.8z M-9.5-2.2v-2.7h0.9v2.7H-6v0.9h-2.5v0.2
					C-7.7-0.7-7-0.3-6.2,0.2L-6.7,1C-7.4,0.4-8,0-8.5-0.3v1.8h-0.9v-2.7c-0.5,1.1-1.3,2.1-2.5,2.9l-0.5-0.8c1.1-0.6,1.8-1.3,2.3-2.1
					h-2v-0.9h2.6V-2.2z M-10.3-2.8L-11-2.5c-0.3-0.7-0.6-1.3-0.9-1.8l0.8-0.3C-10.8-4-10.5-3.4-10.3-2.8z M-7.2,3.4h-2.4
					c-0.2,0.5-0.5,0.9-0.8,1.3c0.6,0.2,1.1,0.4,1.6,0.6C-8.1,4.8-7.5,4.2-7.2,3.4z M-6.2-4.3c-0.3,0.6-0.6,1.2-1.1,1.8L-8-2.8
					C-7.6-3.4-7.2-4-6.9-4.6L-6.2-4.3z M-4.6,0.5c-0.3,0.6-0.5,1.2-0.8,1.7L-6,1.4c0.8-1.6,1.4-3.7,1.7-6.3l1,0.2
					c-0.1,0.7-0.2,1.4-0.3,2H0v1h-1c0,2.3-0.5,4.3-1.2,6c0.7,1.3,1.6,2.2,2.6,2.9L-0.1,8c-1-0.7-1.8-1.7-2.5-2.8
					C-3.3,6.3-4.1,7.3-5.2,8l-0.5-0.8c1.1-0.8,1.9-1.7,2.6-2.9C-3.8,3.2-4.3,1.9-4.6,0.5z M-4.1-1c0.4,1.6,0.8,3.1,1.4,4.2
					c0.5-1.4,0.8-3.1,0.9-5H-4L-4.1-1z"/>
				<path class="st5" d="M1.9,7.9l-0.2-1C2.1,6.9,2.4,7,2.8,7s0.5-0.2,0.5-0.6V3C2.7,3.2,2.2,3.4,1.6,3.6l-0.3-1
					C1.9,2.4,2.6,2.2,3.2,2v-3.2H1.6v-1h1.7v-2.6h1v2.6h1.3v1H4.3v2.8C4.7,1.4,5.2,1.2,5.6,1v1C5.2,2.2,4.7,2.4,4.3,2.6v4
					c0,0.8-0.4,1.2-1.2,1.2L1.9,7.9L1.9,7.9z M5.7,8L4.9,7.3c1-1.8,1.5-4.3,1.5-7.2v-4.4h7.4v3.4h-2.6v1.7h3v0.9h-3v1.7h2.4V8h-0.9
					V7.3H8.8V8h-1V3.4h2.3V1.7H7.3C7.1,4.1,6.6,6.2,5.7,8z M7.4-0.9v1c0,0.2,0,0.4,0,0.7h2.8v-1.7H7.4z M7.4-3.3v1.6h5.4v-1.6H7.4z
					 M12.6,6.4V4.3H8.8v2.1H12.6z"/>
				<path class="st5" d="M16-0.2L15.4-1c1.2-1.1,2.2-2.4,2.8-4l0.9,0.2c-0.1,0.4-0.3,0.7-0.5,1.1h3c-0.2-0.4-0.4-0.8-0.6-1.2l1-0.2
					c0.2,0.4,0.4,0.9,0.6,1.4h4.5v0.8h-4.5v1h3.9v0.8h-3.9v0.9h3.9v0.8h-3.9v1h4.7v1H17.2v-4C16.8-0.9,16.4-0.5,16-0.2z M15.8,4.6
					V3.7h5.6V3h1v0.7h5.5v0.9h-4.2c1,0.9,2.4,1.6,4.4,2.1l-0.5,0.9c-2.3-0.8-4-1.8-4.9-3h-0.3V8h-1V4.6h-0.3
					c-0.9,1.2-2.5,2.2-4.9,3.1l-0.5-0.9c2.2-0.7,3.6-1.4,4.5-2.2C20.2,4.6,15.8,4.6,15.8,4.6z M21.7-2.7h-3.6L18-2.6v0.8h3.6v-0.9
					H21.7z M21.7-1h-3.6v0.9h3.6V-1z M21.7,0.7h-3.6v1h3.6V0.7z"/>
				<path class="st5" d="M41-3.3l-0.6,0.6H42v1h-4.3C37.8,0,38,1.4,38.2,2.4c0.1,0.3,0.2,0.7,0.3,1c0.7-1.1,1.3-2.4,1.7-3.9l0.9,0.4
					c-0.6,1.8-1.3,3.4-2.2,4.7c0.2,0.4,0.4,0.8,0.6,1.2c0.5,0.7,0.8,1,1.1,1s0.5-0.7,0.7-2.2l0.9,0.5c-0.3,1.9-0.8,2.8-1.4,2.8
					c-0.6,0-1.2-0.4-1.9-1.3c-0.3-0.3-0.5-0.7-0.7-1.2c-1,1.1-2.1,2-3.4,2.6l-0.6-0.8c1.4-0.6,2.6-1.6,3.6-2.8
					c-0.2-0.5-0.4-1.1-0.5-1.7c-0.3-1.2-0.5-2.6-0.6-4.4h-4.8v2.3h3.4c0,2.4-0.1,3.9-0.3,4.6c-0.2,0.6-0.6,0.9-1.3,0.9
					c-0.3,0-0.7,0-1.2-0.1l-0.3-0.9c0.5,0,1,0,1.4,0c0.3,0,0.5-0.2,0.6-0.6c0.1-0.5,0.1-1.5,0.2-3H32v0.4c-0.1,2.5-0.6,4.5-1.7,6
					l-0.8-0.7c0.9-1.3,1.4-3.1,1.4-5.4v-4.7h5.8c0-0.7,0-1.4,0-2.2h1c0,0.8,0,1.5,0,2.2h2.6c-0.4-0.5-1-1-1.7-1.6l0.6-0.6
					C39.9-4.4,40.5-3.9,41-3.3z"/>
				<path class="st5" d="M44.4,8l-0.8-0.7c0.6-1.3,0.8-2.9,0.9-4.8v-6.7h4.1V6.7c0,0.8-0.4,1.3-1.2,1.3h-1.1L46,7.1
					c0.4,0,0.7,0.1,1.1,0.1c0.4,0,0.5-0.3,0.5-0.8V3.2h-2.3C45.3,5.2,44.9,6.8,44.4,8z M47.6-3.3h-2.3v2.4h2.3V-3.3z M45.4,2.3h2.3
					V0h-2.3V2.3z M50.7,8h-1V-4.3h5.7c0,1.7-0.1,2.9-0.3,3.4C54.9-0.3,54.4,0,53.5,0h-1.1l-0.3-0.9c0.2,0,0.5,0,0.9,0
					c0.3,0,0.6,0,0.7-0.1c0.2-0.1,0.3-0.2,0.4-0.4c0.1-0.3,0.2-1,0.2-2.1h-3.7v4.2h4.8v0.9C55.1,3,54.7,4.3,54,5.3
					c0.6,0.6,1.4,1.2,2.2,1.7l-0.5,0.9c-0.9-0.5-1.7-1.1-2.3-1.7c-0.6,0.7-1.3,1.3-2.2,1.7l-0.5-0.8c0.8-0.4,1.5-1,2-1.7
					c-0.9-1.1-1.5-2.3-1.8-3.7h-0.3L50.7,8L50.7,8z M53.4,4.7c0.5-0.8,0.9-1.8,1.1-2.9h-2.7C52.2,2.9,52.7,3.9,53.4,4.7z"/>
				<path class="st5" d="M62.7-4.7c-0.2,0.4-0.3,0.7-0.5,1.1h6.1v0.8c-0.9,1-2,1.9-3.3,2.6c1.6,0.7,3.3,1.1,5.3,1.3L69.8,2
					c-2.2-0.3-4.2-0.8-5.9-1.7c-1.7,0.8-3.7,1.4-6,1.7l-0.5-1c2-0.3,3.8-0.7,5.4-1.3c-0.8-0.5-1.5-1-2.2-1.6
					c-0.5,0.5-1.1,0.9-1.8,1.3l-0.6-0.8c1.7-1,2.8-2.1,3.4-3.5L62.7-4.7z M64,1.3c0,0.6-0.1,1.1-0.1,1.6h4.9c0,2.4-0.2,3.8-0.6,4.2
					c-0.4,0.5-1.1,0.7-2.1,0.7c-0.4,0-1,0-1.6-0.1l-0.3-0.9l1.7,0.1c0.8,0,1.4-0.2,1.6-0.5s0.3-1.2,0.4-2.6h-4.1
					c-0.1,0.4-0.3,0.7-0.4,1c-0.7,1.3-2.4,2.3-4.9,3.1l-0.7-0.8c2.3-0.7,3.8-1.5,4.6-2.5c0.2-0.3,0.3-0.5,0.4-0.8h-4.2V2.9h4.5
					c0.1-0.5,0.2-1,0.2-1.6H64z M66.8-2.7h-5.4l-0.2,0.2c0.8,0.7,1.7,1.3,2.6,1.8C65-1.3,66-2,66.8-2.7z"/>
			</g>
		</g>
	</g>
	<g id="RectEndPoint15" transform="translate(472,168)">
		<g>
			<rect x="40.7" y="-12.4" class="st6" width="230.6" height="50"/>
			<rect x="38.3" y="-14.4" class="st7" width="230.6" height="50"/>
		</g>
		<g transform="translate(20 9)">
			<g class="st2">
				<path class="st5" d="M97.5-4.4c-0.4,1.1-0.8,2.1-1.4,3.1v9.4h-1V0.2c-0.4,0.6-1,1.2-1.5,1.7l-0.3-1.1c1.5-1.6,2.6-3.5,3.3-5.6
					L97.5-4.4z M105.6-3.5c-1,0.3-2.2,0.6-3.5,0.7v3.9h4.1v1h-4.1v4.4h3.4v1h-7.8v-1h3.4V2.1H97v-1h4.1v-3.8c-1,0.1-2,0.1-3,0.1
					l-0.3-1c3,0,5.4-0.3,7.4-0.9L105.6-3.5z"/>
				<path class="st5" d="M112.6-4.7c-0.2,0.4-0.3,0.7-0.5,1.1h6.1v0.8c-0.9,1-2,1.9-3.3,2.6c1.6,0.7,3.3,1.1,5.3,1.3L119.7,2
					c-2.2-0.3-4.2-0.8-5.9-1.7c-1.7,0.8-3.7,1.4-6,1.7l-0.5-1c2-0.3,3.8-0.7,5.4-1.3c-0.8-0.5-1.5-1-2.2-1.6
					c-0.5,0.5-1.1,0.9-1.8,1.3l-0.6-0.8c1.7-1,2.8-2.1,3.4-3.5L112.6-4.7z M114,1.3c0,0.6-0.1,1.1-0.1,1.6h4.9
					c0,2.4-0.2,3.8-0.6,4.2c-0.4,0.5-1.1,0.7-2.1,0.7c-0.4,0-1,0-1.6-0.1l-0.3-0.9l1.7,0.1c0.8,0,1.4-0.2,1.6-0.5s0.3-1.2,0.4-2.6
					h-4.1c-0.1,0.4-0.3,0.7-0.4,1c-0.7,1.3-2.4,2.3-4.9,3.1l-0.7-0.8c2.3-0.7,3.8-1.5,4.6-2.5c0.2-0.3,0.3-0.5,0.4-0.8h-4.2V2.9h4.5
					c0.1-0.5,0.2-1,0.2-1.6H114z M116.8-2.7h-5.4l-0.2,0.2c0.8,0.7,1.7,1.3,2.6,1.8C115-1.3,115.9-2,116.8-2.7z"/>
				<path class="st5" d="M124.3-0.6v5.8c0.3-0.3,0.7-0.6,1-1l0.3,1c-0.7,0.7-1.4,1.3-2.2,1.9L123,6.2c0.2-0.2,0.3-0.3,0.3-0.6V0.3
					h-1.9v-1L124.3-0.6L124.3-0.6z M125.3-2.6l-0.7,0.7c-0.6-0.7-1.3-1.4-2.2-2.1l0.7-0.7C124-4,124.7-3.3,125.3-2.6z M133.7,6.7
					c0,0.8-0.4,1.2-1.3,1.2h-1.3L130.9,7c0.5,0,0.9,0,1.3,0c0.4,0,0.6-0.2,0.6-0.7v-9.7h-5.7v6.8c0,1.9-0.4,3.4-1.2,4.6l-0.7-0.7
					c0.7-1,1-2.3,1-3.9v-7.7h7.6v11H133.7z M129.4-1.7v-1.1h1v1.1h1.6v0.8h-1.6v1.3h1.9v0.8h-4.7V0.4h1.8v-1.3h-1.6v-0.8H129.4z
					 M131.8,2.3v3.6H128V2.3H131.8z M130.9,3.1h-2V5h2V3.1z"/>
				<path class="st5" d="M137.6,0.8c-0.1,3-0.6,5.4-1.5,7.1l-0.8-0.7c0.8-1.6,1.2-3.7,1.3-6.5v-4.6h5.4c-0.2-0.4-0.3-0.7-0.5-1
					l1.1-0.2c0.2,0.4,0.3,0.7,0.5,1.2h4.8v1h-10.2v1.6h2.4v-1.1h1v1.1h3.7v-1.1h1v1.1h2.2v0.9h-2.2v2.2H140v-2.2h-2.4V0.8z
					 M146.7,2.9v0.7c-0.8,1-1.7,1.8-2.9,2.5c1.3,0.5,2.7,0.9,4.4,1.1l-0.4,0.9c-1.9-0.3-3.6-0.8-4.9-1.5c-1.4,0.7-3.1,1.2-4.9,1.5
					l-0.4-0.9c1.6-0.2,3.1-0.6,4.3-1.1c-1-0.6-1.9-1.4-2.5-2.3h-0.9V2.9H146.7z M142.8,5.6c1-0.5,1.8-1.1,2.6-1.8h-5
					C141,4.5,141.8,5.1,142.8,5.6z M141,1.1h3.7v-1.3H141V1.1z"/>
				<path class="st5" d="M150.3,8l-0.8-0.7c0.6-1.3,0.8-2.9,0.9-4.8v-6.7h4.1V6.7c0,0.8-0.4,1.3-1.2,1.3h-1.1L152,7.1
					c0.4,0,0.7,0.1,1.1,0.1c0.4,0,0.5-0.3,0.5-0.8V3.2h-2.3C151.3,5.2,150.9,6.8,150.3,8z M153.6-3.3h-2.3v2.4h2.3V-3.3z M151.3,2.3
					h2.3V0h-2.3V2.3z M156.7,8h-1V-4.3h5.7c0,1.7-0.1,2.9-0.3,3.4c-0.2,0.6-0.7,0.9-1.6,0.9h-1.1l-0.3-0.9c0.2,0,0.5,0,0.9,0
					c0.3,0,0.6,0,0.7-0.1c0.2-0.1,0.3-0.2,0.4-0.4c0.1-0.3,0.2-1,0.2-2.1h-3.7v4.2h4.8v0.9c-0.3,1.4-0.7,2.7-1.4,3.7
					c0.6,0.6,1.4,1.2,2.2,1.7l-0.5,0.9c-0.9-0.5-1.7-1.1-2.3-1.7c-0.6,0.7-1.3,1.3-2.2,1.7l-0.5-0.8c0.8-0.4,1.5-1,2-1.7
					c-0.9-1.1-1.5-2.3-1.8-3.7h-0.3V8H156.7z M159.4,4.7c0.5-0.8,0.9-1.8,1.1-2.9h-2.7C158.2,2.9,158.7,3.9,159.4,4.7z"/>
				<path class="st5" d="M168.6-4.7c-0.2,0.4-0.3,0.7-0.5,1.1h6.1v0.8c-0.9,1-2,1.9-3.3,2.6c1.6,0.7,3.3,1.1,5.3,1.3L175.7,2
					c-2.2-0.3-4.2-0.8-5.9-1.7c-1.7,0.8-3.7,1.4-6,1.7l-0.5-1c2-0.3,3.8-0.7,5.4-1.3c-0.8-0.5-1.5-1-2.2-1.6
					c-0.5,0.5-1.1,0.9-1.8,1.3l-0.6-0.8c1.7-1,2.8-2.1,3.4-3.5L168.6-4.7z M170,1.3c0,0.6-0.1,1.1-0.1,1.6h4.9
					c0,2.4-0.2,3.8-0.6,4.2c-0.4,0.5-1.1,0.7-2.1,0.7c-0.4,0-1,0-1.6-0.1l-0.3-0.9l1.7,0.1c0.8,0,1.4-0.2,1.6-0.5
					c0.2-0.3,0.3-1.2,0.4-2.6h-4.1c-0.1,0.4-0.3,0.7-0.4,1c-0.7,1.3-2.4,2.3-4.9,3.1l-0.7-0.8c2.3-0.7,3.8-1.5,4.6-2.5
					c0.2-0.3,0.3-0.5,0.4-0.8h-4.2V2.9h4.5c0.1-0.5,0.2-1,0.2-1.6H170z M172.8-2.7h-5.4l-0.2,0.2c0.8,0.7,1.7,1.3,2.6,1.8
					C171-1.3,171.9-2,172.8-2.7z"/>
			</g>
		</g>
	</g>
</g>
<g id="RectEndPoint16" transform="translate(333,348)">
	<g>
		<rect x="-62.9" y="-69.4" class="st6" width="227" height="50"/>
		<rect x="-64.9" y="-71.4" class="st7" width="227" height="50"/>
	</g>
	<g transform="translate(20 9)">
		<g class="st2">
			<path class="st5" d="M-22.7-56.3l-0.7,0.7c-0.5-0.6-1.3-1.3-2.2-2.1l0.7-0.7C-24-57.6-23.3-56.9-22.7-56.3z M-22.6-54.2
				c-0.6,1.8-1.2,3.5-1.8,5l-0.9-0.4c0.7-1.6,1.3-3.3,1.9-5L-22.6-54.2z M-22.4-59.8l-0.7,0.7c-0.5-0.6-1.2-1.2-2.2-1.8l0.7-0.7
				C-23.7-61-23-60.4-22.4-59.8z M-20-55.4c-0.1,1.8-0.2,3.2-0.5,4c-0.3,0.9-0.9,1.7-1.7,2.3l-0.6-0.8c0.7-0.5,1.1-1.2,1.4-1.9
				s0.4-1.9,0.5-3.6H-20z M-21.8-56.8c0.1,0,0.2-0.1,0.2-0.1c0.5-0.3,1.2-1.2,2-2.6H-22v-0.9h3.9c-0.2-0.5-0.4-1-0.6-1.4l1-0.2
				c0.2,0.5,0.4,1,0.6,1.6h3.7v0.9h-5.1c-0.7,1.2-1.2,2-1.7,2.6c1.6-0.1,3.2-0.2,4.8-0.4c-0.3-0.4-0.6-0.8-1-1.2l0.8-0.5
				c1,1.1,1.7,2.1,2.2,3l-0.8,0.6c-0.2-0.3-0.4-0.7-0.6-1.1c-2.1,0.2-4.3,0.4-6.7,0.6L-21.8-56.8z M-17.7-55.3v6.1h-1v-6.1H-17.7z
				 M-15-49.1c-0.8,0-1.2-0.4-1.2-1.1v-5.1h1v4.9c0,0.2,0.1,0.3,0.3,0.3h0.6c0.3,0,0.4-0.2,0.4-0.5c0.1-0.3,0.1-0.9,0.1-1.6l0.9,0.3
				c0,1.2-0.1,2-0.3,2.3c-0.2,0.3-0.5,0.4-1.1,0.4H-15V-49.1z"/>
			<path class="st5" d="M-5.4-56v1h-2.5v3.6c1-0.2,2-0.4,3-0.7v1c-2,0.5-4.2,0.9-6.5,1.2l-0.2-1c0.9-0.1,1.8-0.3,2.7-0.4v-3.8h-2.5
				v-1L-5.4-56L-5.4-56z M-4.7-59.3c0-0.8-0.1-1.6-0.1-2.5h1c0,0.9,0,1.7,0.1,2.5h4.3v1h-4.3c0.2,2.4,0.5,4.3,1.1,5.9
				c0.6,1.5,1.1,2.3,1.6,2.3c0.3,0,0.6-0.8,0.9-2.4L0.8-52c-0.4,2-1,3-1.7,3.1C-2.1-49-3.2-50.5-4-53.6c-0.3-1.3-0.5-2.9-0.6-4.6
				h-6.9v-1L-4.7-59.3L-4.7-59.3z M-0.3-59.9l-0.8,0.4c-0.4-0.7-0.8-1.3-1.3-1.9l0.8-0.4C-1.1-61.2-0.7-60.6-0.3-59.9z"/>
			<path class="st5" d="M5.8-55.2c-0.1,0.3-0.2,0.5-0.3,0.8h2.9v0.8c-0.3,0.9-0.8,1.7-1.6,2.4c0.7,0.3,1.3,0.6,1.9,1l-0.4,0.7
				c-0.6-0.4-1.3-0.7-2.2-1.1C5.2-50,4-49.4,2.6-49l-0.4-0.9c1.1-0.3,2.1-0.7,3-1.1c-0.6-0.3-1.3-0.5-1.9-0.8c0.4-0.6,0.7-1.2,1-1.8
				H2.5v-0.8h2c0.1-0.3,0.2-0.6,0.3-0.9L5.8-55.2z M5.2-59.2v-2.7h0.9v2.7h2.5v0.9H6.2v0.2c0.8,0.4,1.5,0.8,2.3,1.3L8-56
				c-0.7-0.6-1.3-1-1.8-1.3v1.8h-1v-2.7c-0.5,1.1-1.3,2.1-2.5,2.9l-0.5-0.8c1.1-0.6,1.8-1.3,2.3-2.1h-2v-0.9h2.7V-59.2z M4.5-59.8
				l-0.7,0.3c-0.3-0.7-0.6-1.3-0.9-1.8l0.8-0.3C3.9-61,4.2-60.4,4.5-59.8z M7.5-53.6H5.1c-0.2,0.5-0.5,0.9-0.8,1.3
				c0.6,0.2,1.1,0.4,1.6,0.6C6.7-52.2,7.2-52.8,7.5-53.6z M8.6-61.3c-0.3,0.6-0.6,1.2-1.1,1.8l-0.7-0.4c0.4-0.6,0.8-1.2,1.1-1.8
				L8.6-61.3z M10.1-56.5c-0.3,0.6-0.5,1.2-0.8,1.7l-0.6-0.8c0.8-1.6,1.4-3.7,1.7-6.3l1,0.2c-0.1,0.7-0.2,1.4-0.3,2h3.7v1h-0.9
				c-0.1,2.3-0.5,4.3-1.3,6c0.7,1.3,1.6,2.2,2.6,2.9L14.7-49c-1-0.7-1.8-1.7-2.5-2.8c-0.7,1.1-1.5,2.1-2.6,2.8l-0.7-0.9
				c1.1-0.8,1.9-1.7,2.6-2.9C11-53.8,10.5-55.1,10.1-56.5z M10.6-58c0.4,1.6,0.8,3.1,1.4,4.2c0.5-1.4,0.8-3.1,0.9-5h-2.1L10.6-58z"
				/>
			<path class="st5" d="M16.7-49.1l-0.2-1c0.4,0,0.7,0.1,1.1,0.1s0.5-0.2,0.5-0.6V-54c-0.6,0.2-1.1,0.4-1.7,0.6l-0.3-1
				c0.6-0.2,1.3-0.4,1.9-0.6v-3.2h-1.7v-1H18v-2.6h1v2.6h1.3v1H19v2.8c0.4-0.2,0.9-0.4,1.3-0.6v1c-0.4,0.2-0.9,0.4-1.3,0.6v4.1
				c0,0.8-0.4,1.2-1.2,1.2C17.8-49.1,16.7-49.1,16.7-49.1z M20.4-49l-0.8-0.7c1-1.8,1.5-4.3,1.5-7.2v-4.4h7.4v3.4h-2.6v1.7h3v0.9h-3
				v1.7h2.4v4.6h-0.9v-0.7h-3.8v0.7h-0.9v-4.6H25v-1.7h-2.9C21.9-52.9,21.3-50.8,20.4-49z M22.1-57.9v1c0,0.2,0,0.4,0,0.7h2.8v-1.7
				H22.1z M22.1-60.3v1.6h5.4v-1.6H22.1z M27.3-50.6v-2.1h-3.8v2.1C23.5-50.6,27.3-50.6,27.3-50.6z"/>
			<path class="st5" d="M35.5-61c-0.7,1.2-1.3,2.1-2,2.9s-1.6,1.6-2.8,2.4l-0.5-0.9c1-0.5,1.8-1.3,2.6-2.1c0.7-0.8,1.3-1.7,1.8-2.8
				L35.5-61z M32.3-55.3v-1h8.4c0,1.8-0.1,3.2-0.3,4.2c-0.1,1.1-0.4,1.8-0.7,2.2c-0.3,0.4-0.8,0.6-1.5,0.7h-2.5l-0.3-1
				c0.8,0,1.6,0,2.3,0c0.8,0,1.2-0.3,1.5-1s0.4-2.1,0.5-4.3h-3.5c-0.3,1.5-0.8,2.7-1.4,3.6c-0.7,1-1.8,1.9-3.2,2.7L31-50
				c1.3-0.7,2.3-1.5,2.9-2.3c0.6-0.8,1-1.9,1.3-3.2h-2.9V-55.3z M42.9-56.6l-0.7,0.8c-2.2-1.4-3.7-3.2-4.5-5.4l0.9-0.5
				C39.4-59.6,40.8-57.9,42.9-56.6z"/>
			<path class="st5" d="M47.4-49h-1v-7.2c-0.5,1.4-1.1,2.7-1.9,3.9l-0.4-1.1c1.1-1.4,1.8-3,2.3-4.7h-2v-1h2v-2.7h1v2.7h1.9v1h-1.9
				v0.8c0.7,0.7,1.3,1.5,2,2.3l-0.5,0.8c-0.6-0.9-1.1-1.6-1.5-2.1C47.4-56.3,47.4-49,47.4-49z M56.5-60.9c-1.6,0.6-3.4,0.9-5.3,1
				v2.5h5.7v1h-2.1v7.4h-1v-7.4h-2.6v0.2c-0.1,3-0.8,5.4-2.1,7.1l-0.7-0.7c1.1-1.5,1.8-3.7,1.9-6.4v-4.5c2.2-0.1,4.1-0.4,5.8-1
				L56.5-60.9z"/>
			<path class="st5" d="M59.7-54.9h5.4c0,2.3-0.1,3.8-0.3,4.6c-0.2,0.8-1.1,1.2-2.6,1.3c-0.4,0-0.9,0-1.3-0.1L60.6-50
				c0.4,0,0.9,0.1,1.3,0.1c1.1,0,1.7-0.3,1.9-0.7c0.2-0.5,0.2-1.6,0.2-3.2h-5.5l0.7-4.2H64v-2.4h-5.1v-0.9H65v4h-4.8L59.7-54.9z
				 M69.4-61.8v12.9h-1v-12.9H69.4z"/>
			<path class="st5" d="M75.1-61.9v0.6h1.5v-0.6h0.8v0.6h1.7v0.8h-1.7v0.7h-0.8v-0.7h-1.5v0.7h-0.8c-0.1,0.1-0.1,0.3-0.1,0.4h4.5
				c0,1.8-0.1,2.9-0.2,3.2s-0.2,0.5-0.4,0.6c-0.2,0.1-0.7,0.2-1.4,0.2h-0.5L76-56h-2.6v-1.9c-0.2,0.2-0.4,0.4-0.6,0.5l-0.5-0.7
				c0.7-0.5,1.1-1.2,1.3-2.1l0.7,0.1v-0.5h-1.8v-0.8h1.8V-62L75.1-61.9L75.1-61.9z M83.3-54.6c-1.2,0.2-2.6,0.3-4.1,0.4v0.9h4.3v0.7
				h-4.3v0.9h5.5v0.8h-5.5v0.8c0,0.7-0.4,1.1-1.2,1.1h-1.7l-0.2-0.9c0.5,0,1.1,0.1,1.6,0.1c0.3,0,0.5-0.2,0.5-0.5v-0.6h-5.8v-0.8
				h5.8v-0.9h-4.8v-0.7h4.8v-0.9c-1.4,0.1-2.9,0.1-4.5,0.1l-0.3-0.8c3.8,0,6.9-0.2,9.3-0.6L83.3-54.6z M76.9-56.1
				c0.3,0,0.5,0,0.6-0.1c0.1-0.1,0.2-0.2,0.2-0.4s0.1-0.9,0.1-2h-3.9c-0.1,0.2-0.3,0.4-0.4,0.6h3.3v1.9
				C76.8-56.1,76.9-56.1,76.9-56.1z M75.9-57.4h-1.8v0.8h1.8V-57.4z M79.3-57.9l-0.5-0.7c0.8-0.9,1.3-2,1.6-3.4l0.9,0.1
				c-0.1,0.4-0.2,0.7-0.3,1.1h3.6v0.8h-0.8c-0.2,1.1-0.6,1.9-1.2,2.6c0.6,0.4,1.5,0.8,2.4,1.1l-0.5,0.9c-1.1-0.3-1.9-0.8-2.6-1.3
				c-0.7,0.5-1.5,0.9-2.4,1.1l-0.4-0.8c0.8-0.2,1.5-0.5,2.1-0.9c-0.5-0.5-0.9-1-1.1-1.6C79.8-58.5,79.6-58.2,79.3-57.9z M80.5-59.7
				c0.2,0.7,0.6,1.4,1.3,1.9c0.5-0.6,0.9-1.3,1-2.1h-2.2C80.6-59.8,80.6-59.8,80.5-59.7z"/>
		</g>
	</g>
</g>
<g id="RectEndPoint17" transform="translate(501,348)">
	<g>
		<rect x="11.7" y="-69.4" class="st6" width="230.6" height="50"/>
		<rect x="9.3" y="-71.4" class="st7" width="230.6" height="50"/>
	</g>
	<g transform="translate(20 9)">
		<g class="st2">
			<path class="st5" d="M71.8-51.4c1.6-0.7,2.8-1.6,3.7-2.9h-4.1c-1.2,0.6-2.7,1-4.4,1.3l-0.6-0.9c3.1-0.3,5.3-1.2,6.8-2.8l0.9,0.5
				c-0.3,0.3-0.7,0.7-1.1,1h3.8v0.8c-2,3.3-5.7,5-11.1,5.1l-0.4-1c2.2,0,4.1-0.3,5.7-0.8c-0.5-0.6-1-1.2-1.5-1.7l0.9-0.4
				C70.8-52.6,71.3-52,71.8-51.4z M71.7-61.4c-0.3,0.3-0.5,0.5-0.8,0.8h4v0.8c-1.5,2.7-4.3,4.2-8.4,4.5L66-56.2
				c1.3-0.1,2.4-0.3,3.4-0.6c-0.4-0.5-0.9-1-1.4-1.5l0.9-0.4c0.5,0.5,1,1,1.4,1.5c1.5-0.6,2.6-1.5,3.4-2.6h-4.1
				c-1.1,0.6-2.4,1.1-3.9,1.5l-0.6-0.9c2.5-0.5,4.4-1.4,5.6-2.7L71.7-61.4z"/>
			<path class="st5" d="M83.4-50.8c-1.4,0.5-3,1-4.7,1.3l-0.1-1c1.8-0.3,3.5-0.7,4.9-1.3v1H83.4z M81.8-61.5c-0.7,1.8-1.3,3.2-2,4.3
				c0.6-0.1,1.2-0.2,1.8-0.3c0.3-0.5,0.5-1.1,0.8-1.7l0.9,0.3c-1.3,2.5-2.3,4.2-3,5.3c0.9-0.2,1.8-0.5,2.8-0.9v0.9
				c-1.4,0.6-2.7,1-4,1.2l-0.3-1c0.2-0.1,0.3-0.2,0.5-0.3c0.5-0.6,1.1-1.5,1.8-2.9c-0.7,0.1-1.5,0.3-2.2,0.4l-0.3-0.9
				c0.2-0.1,0.3-0.2,0.4-0.4c0.7-1.3,1.3-2.8,1.8-4.4L81.8-61.5z M85.3-49h-1v-8.3c-0.4,0.7-0.8,1.3-1.3,1.9l-0.3-1
				c1.1-1.7,1.9-3.4,2.4-5.4l1,0.2c-0.2,0.8-0.4,1.5-0.7,2.2h2.5c-0.2-0.7-0.5-1.5-0.8-2.2l1-0.3c0.3,0.8,0.6,1.6,0.7,2.3l-0.3,0.2
				H91v1h-2.2v1.9h2v0.9h-2v1.9h2v0.9h-2v2.1h2.5v0.9h-6V-49z M85.3-58.5v1.9h2.5v-1.9H85.3z M85.3-53.7h2.5v-1.9h-2.5V-53.7z
				 M85.3-50.7h2.5v-2.1h-2.5V-50.7z"/>
			<path class="st5" d="M97.8-61c-0.7,1.2-1.3,2.1-2,2.9s-1.6,1.6-2.8,2.4l-0.5-0.9c1-0.5,1.8-1.3,2.6-2.1c0.7-0.8,1.3-1.7,1.8-2.8
				L97.8-61z M94.5-55.3v-1h8.4c0,1.8-0.1,3.2-0.3,4.2c-0.1,1.1-0.4,1.8-0.7,2.2c-0.3,0.4-0.8,0.6-1.5,0.7h-2.5l-0.3-1
				c0.8,0,1.6,0,2.3,0c0.8,0,1.2-0.3,1.5-1s0.4-2.1,0.5-4.3h-3.5c-0.3,1.5-0.8,2.7-1.4,3.6c-0.7,1-1.8,1.9-3.2,2.7L93.2-50
				c1.3-0.7,2.3-1.5,2.9-2.3c0.6-0.8,1-1.9,1.3-3.2h-2.9V-55.3z M105.2-56.6l-0.7,0.8c-2.2-1.4-3.7-3.2-4.5-5.4l0.9-0.5
				C101.6-59.6,103.1-57.9,105.2-56.6z"/>
			<path class="st5" d="M109.7-49h-1v-7.2c-0.5,1.4-1.1,2.7-1.9,3.9l-0.4-1.1c1.1-1.4,1.8-3,2.3-4.7h-2v-1h2v-2.7h1v2.7h1.9v1h-1.9
				v0.8c0.7,0.7,1.3,1.5,2,2.3l-0.5,0.8c-0.6-0.9-1.1-1.6-1.5-2.1V-49z M118.7-60.9c-1.6,0.6-3.4,0.9-5.3,1v2.5h5.7v1H117v7.4h-1
				v-7.4h-2.6v0.2c-0.1,3-0.8,5.4-2.1,7.1l-0.7-0.7c1.1-1.5,1.8-3.7,1.9-6.4v-4.5c2.2-0.1,4.1-0.4,5.8-1L118.7-60.9z"/>
			<path class="st5" d="M121.9-54.9h5.4c0,2.3-0.1,3.8-0.3,4.6c-0.2,0.8-1.1,1.2-2.6,1.3c-0.4,0-0.9,0-1.3-0.1l-0.3-0.9
				c0.4,0,0.9,0.1,1.3,0.1c1.1,0,1.7-0.3,1.9-0.7c0.2-0.5,0.2-1.6,0.2-3.2h-5.5l0.7-4.2h4.7v-2.4H121v-0.9h6.1v4h-4.8L121.9-54.9z
				 M131.7-61.8v12.9h-1v-12.9H131.7z"/>
			<path class="st5" d="M137.4-61.9v0.6h1.5v-0.6h0.8v0.6h1.7v0.8h-1.7v0.7h-0.8v-0.7h-1.5v0.7h-0.8c-0.1,0.1-0.1,0.3-0.1,0.4h4.5
				c0,1.8-0.1,2.9-0.2,3.2c-0.1,0.3-0.2,0.5-0.4,0.6c-0.2,0.1-0.7,0.2-1.4,0.2h-0.5l-0.2-0.6h-2.6v-1.9c-0.2,0.2-0.4,0.4-0.6,0.5
				l-0.5-0.7c0.7-0.5,1.1-1.2,1.3-2.1l0.7,0.1v-0.5h-1.8v-0.8h1.8V-62L137.4-61.9L137.4-61.9z M145.6-54.6c-1.2,0.2-2.6,0.3-4.1,0.4
				v0.9h4.3v0.7h-4.3v0.9h5.5v0.8h-5.5v0.8c0,0.7-0.4,1.1-1.2,1.1h-1.7l-0.2-0.9c0.5,0,1.1,0.1,1.6,0.1c0.4,0,0.5-0.2,0.5-0.5v-0.6
				h-5.8v-0.8h5.8v-0.9h-4.8v-0.7h4.8v-0.9c-1.4,0.1-2.9,0.1-4.5,0.1l-0.3-0.8c3.8,0,6.9-0.2,9.3-0.6L145.6-54.6z M139.1-56.1
				c0.3,0,0.5,0,0.6-0.1c0.1-0.1,0.2-0.2,0.2-0.4s0.1-0.9,0.1-2h-3.9c-0.1,0.2-0.3,0.4-0.4,0.6h3.3L139.1-56.1
				C139-56.1,139.1-56.1,139.1-56.1z M138.2-57.4h-1.8v0.8h1.8V-57.4z M141.5-57.9l-0.5-0.7c0.8-0.9,1.3-2,1.6-3.4l0.9,0.1
				c-0.1,0.4-0.2,0.7-0.3,1.1h3.6v0.8H146c-0.2,1.1-0.6,1.9-1.2,2.6c0.6,0.4,1.5,0.8,2.4,1.1l-0.5,0.8c-1.1-0.3-1.9-0.8-2.6-1.3
				c-0.7,0.5-1.5,0.9-2.4,1.1l-0.4-0.8c0.8-0.2,1.5-0.5,2.1-0.9c-0.5-0.5-0.9-1-1.1-1.6C142.1-58.5,141.8-58.2,141.5-57.9z
				 M142.8-59.7c0.2,0.7,0.6,1.4,1.3,1.9c0.5-0.6,0.9-1.3,1-2.1h-2.2C142.8-59.8,142.8-59.8,142.8-59.7z"/>
		</g>
	</g>
</g>
<g>
	<rect x="269.8" y="340.6" class="st6" width="473" height="50"/>
	<rect x="267.8" y="338.6" class="st7" width="473" height="50"/>
</g>
<g transform="translate(20 9)">
	<g class="st2">
		<path class="st5" d="M433.8,353.6l-0.7,0.7c-0.5-0.6-1.2-1.1-2.2-1.8l0.7-0.7C432.5,352.4,433.3,353,433.8,353.6z M434,356.2
			c-0.6,1.6-1.3,3.2-2,4.6l-0.9-0.4c0.8-1.5,1.5-3,2.1-4.5L434,356.2z M434.1,350.1l-0.7,0.7c-0.5-0.6-1.2-1.1-2.2-1.8l0.7-0.7
			C432.8,349,433.5,349.5,434.1,350.1z M435.6,351.4h7.1c0,1.2-0.1,2.3-0.1,3.3h1.2v0.9h-1.2c-0.1,1-0.1,1.8-0.1,2.5h1.1v0.9h-1.2
			c0,0.4-0.1,0.6-0.1,0.7c-0.1,0.4-0.4,0.8-0.8,1s-1,0.3-1.7,0.3c-0.4,0-0.8,0-1.2,0l-0.3-0.9c0.5,0,1,0.1,1.4,0.1s0.7,0,1-0.1
			s0.5-0.3,0.7-0.6c0-0.1,0.1-0.2,0.1-0.4h-6.7c0.2-1.1,0.4-2.2,0.6-3.4H434v-1.1h1.5C435.4,353.5,435.5,352.5,435.6,351.4
			c-0.3,0.4-0.6,0.7-0.9,1.1l-0.7-0.9c1-0.9,1.7-2.1,2.3-3.6l1,0.2c-0.1,0.3-0.3,0.7-0.4,1h6.5v0.9h-7
			C436.1,350.6,435.8,351,435.6,351.4z M435.8,358.1h5.6c0-0.6,0.1-1.5,0.1-2.5h-5.4C436.1,356.5,435.9,357.3,435.8,358.1z
			 M441.7,352.2h-5.2c0,0.8-0.1,1.6-0.2,2.4h5.3C441.6,353.9,441.7,353.1,441.7,352.2z M440,357.2l-0.7,0.6c-0.4-0.5-1-1-1.7-1.5
			l0.6-0.6C438.9,356.2,439.5,356.7,440,357.2z M440.1,353.9l-0.6,0.6c-0.4-0.4-1-0.9-1.8-1.4l0.6-0.6
			C439,352.9,439.6,353.4,440.1,353.9z"/>
		<path class="st5" d="M457.6,352.6v0.8H445v-0.8H457.6z M456.2,354v3.6h-4.4v0.8h4.7v0.7h-4.7v0.8h5.8v0.8H445v-0.8h5.7v-0.8H446
			v-0.7h4.7v-0.8h-4.3V354H456.2z M455.9,348.4v3.5h-9.1v-3.5H455.9z M450.8,355.5v-0.9h-3.4v0.9H450.8z M450.8,356.1h-3.4v0.9h3.4
			V356.1z M454.9,349.8V349h-7.2v0.8H454.9z M454.9,350.4h-7.2v0.8h7.2V350.4z M451.8,355.5h3.4v-0.9h-3.4V355.5z M455.2,356.1h-3.4
			v0.9h3.4V356.1z"/>
		<path class="st5" d="M462.5,354.8c-0.1,0.3-0.2,0.5-0.3,0.8h2.9v0.8c-0.3,0.9-0.8,1.7-1.6,2.4c0.7,0.3,1.3,0.6,1.9,1l-0.5,0.8
			c-0.6-0.4-1.3-0.7-2.2-1.1c-0.9,0.6-2.1,1.2-3.5,1.6l-0.5-0.8c1.1-0.3,2.1-0.7,3-1.1c-0.6-0.3-1.3-0.5-1.9-0.8
			c0.4-0.6,0.7-1.2,1-1.8h-1.7v-1h2c0.1-0.3,0.2-0.6,0.3-0.9L462.5,354.8z M462,350.8v-2.7h0.9v2.7h2.5v0.9h-2.5v0.2
			c0.8,0.4,1.5,0.8,2.3,1.3l-0.5,0.8c-0.7-0.6-1.3-1-1.8-1.3v1.8H462v-2.7c-0.5,1.1-1.3,2.1-2.5,2.9l-0.5-0.8
			c1.1-0.6,1.8-1.3,2.3-2.1h-2v-0.9L462,350.8L462,350.8z M461.2,350.2l-0.7,0.3c-0.3-0.7-0.6-1.3-0.9-1.8l0.8-0.3
			C460.7,349,460.9,349.6,461.2,350.2z M464.3,356.4h-2.4c-0.2,0.5-0.5,0.9-0.8,1.3c0.6,0.2,1.1,0.4,1.6,0.6
			C463.4,357.8,463.9,357.2,464.3,356.4z M465.3,348.7c-0.3,0.6-0.6,1.2-1.1,1.8l-0.7-0.4c0.4-0.6,0.8-1.2,1.1-1.8L465.3,348.7z
			 M466.8,353.5c-0.3,0.6-0.5,1.2-0.8,1.7l-0.6-0.8c0.8-1.6,1.4-3.7,1.7-6.3l1,0.2c-0.1,0.7-0.2,1.4-0.3,2h3.7v1h-0.9
			c-0.1,2.3-0.5,4.3-1.3,6c0.7,1.3,1.6,2.2,2.6,2.9l-0.5,0.8c-1-0.7-1.8-1.7-2.5-2.8c-0.7,1.1-1.5,2.1-2.6,2.8l-0.5-0.8
			c1.1-0.8,1.9-1.7,2.6-2.9C467.7,356.2,467.2,354.9,466.8,353.5z M467.3,352c0.4,1.6,0.8,3.1,1.4,4.2c0.5-1.4,0.8-3.1,0.9-5h-2.1
			L467.3,352z"/>
		<path class="st5" d="M473.4,360.9l-0.2-1c0.4,0,0.7,0.1,1.1,0.1s0.5-0.2,0.5-0.6V356c-0.6,0.2-1.1,0.4-1.7,0.6l-0.3-1
			c0.6-0.2,1.3-0.4,1.9-0.6v-3.2H473v-1h1.7v-2.6h1v2.6h1.3v1h-1.3v2.8c0.4-0.2,0.9-0.4,1.3-0.6v1c-0.4,0.2-0.9,0.4-1.3,0.6v4.1
			c0,0.8-0.4,1.2-1.2,1.2H473.4z M477.1,361l-0.8-0.7c1-1.8,1.5-4.3,1.5-7.2v-4.4h7.4v3.4h-2.6v1.7h3v0.9h-3v1.7h2.4v4.6h-1v-0.7
			h-3.8v0.7h-0.9v-4.6h2.3v-1.7h-2.9C478.6,357.1,478.1,359.2,477.1,361z M478.9,352.1v1c0,0.2,0,0.4,0,0.7h2.8v-1.7H478.9z
			 M478.9,349.7v1.6h5.4v-1.6H478.9z M484,359.4v-2.1h-3.8v2.1H484z"/>
		<path class="st5" d="M491.2,349.6c0.2-0.5,0.4-1,0.5-1.5l1,0.1c-0.1,0.5-0.3,0.9-0.4,1.4h7.2v1h-7.6c-0.5,1.2-1.2,2.3-1.9,3.3v7.1
			h-1v-5.9c-0.5,0.5-1,1-1.5,1.5l-0.6-0.8c1.7-1.5,3-3.2,3.9-5.2h-3.4v-1H491.2z M495.1,356.1v-1.3c0.8-0.4,1.6-1,2.3-1.6h-5.3v-0.9
			h6.6v0.9c-0.8,0.7-1.6,1.4-2.6,2v0.9h3.5v1h-3.5v2.6c0,0.8-0.4,1.2-1.2,1.2h-1.8l-0.3-1c0.5,0,1,0,1.6,0c0.4,0,0.6-0.2,0.6-0.6
			V357h-4.1v-1L495.1,356.1L495.1,356.1z"/>
		<path class="st5" d="M501.1,354.8l-0.3-1.1c1.1-1.6,1.9-3.4,2.4-5.5l0.9,0.4c-0.3,1-0.6,1.9-0.9,2.7v9.7h-1v-7.8
			C501.9,353.7,501.5,354.2,501.1,354.8z M506.3,352.5v5.9c0.4-0.4,0.7-0.8,1.1-1.3l0.2,1c-0.7,0.9-1.5,1.7-2.2,2.4l-0.4-0.9
			c0.2-0.2,0.3-0.4,0.3-0.5v-5.6h-1.6v-0.9h2.6V352.5z M507.1,350.8l-0.7,0.7c-0.5-0.7-1.2-1.4-2-2.2l0.7-0.7
			C505.9,349.4,506.5,350.1,507.1,350.8z M509.5,349.8v-1.6h0.9v1.6h1.6v0.8c0.3-0.6,0.5-1.1,0.8-1.7l0.8,0.4
			c-0.5,1.2-1,2.2-1.7,3.2h1.6v0.9h-2.3c-0.4,0.5-0.8,0.9-1.2,1.3h2.9v6.2h-1v-0.6h-2.6v0.6h-0.9v-5c-0.3,0.2-0.7,0.4-1,0.5
			l-0.5-0.8c1.2-0.5,2.3-1.3,3.2-2.3h-2.5v-0.9h2v-1.8h-1.7v-0.9L509.5,349.8L509.5,349.8z M512,355.6h-2.6v1.5h2.6V355.6z
			 M509.3,359.5h2.6V358h-2.6V359.5z M512,350.7h-1.6v1.8h0.4C511.2,351.9,511.6,351.3,512,350.7z"/>
		<path class="st5" d="M516.4,355.1h5.4c0,2.3-0.1,3.8-0.3,4.6c-0.2,0.8-1.1,1.2-2.6,1.3c-0.4,0-0.9,0-1.3-0.1l-0.3-0.9
			c0.4,0,0.9,0.1,1.3,0.1c1.1,0,1.7-0.3,1.9-0.7c0.2-0.5,0.2-1.6,0.2-3.2h-5.5l0.7-4.2h4.7v-2.4h-5.1v-0.9h6.1v4h-4.8L516.4,355.1z
			 M526.1,348.2v12.9h-1v-12.9H526.1z"/>
		<path class="st5" d="M531.8,348.1v0.6h1.5v-0.6h0.8v0.6h1.7v0.8h-1.7v0.7h-0.8v-0.7h-1.5v0.7H531c-0.1,0.1-0.1,0.3-0.1,0.4h4.5
			c0,1.8-0.1,2.9-0.2,3.2c-0.1,0.3-0.2,0.5-0.4,0.6s-0.7,0.2-1.4,0.2h-0.5l-0.2-0.6H530v-1.9c-0.2,0.2-0.4,0.4-0.6,0.5l-0.5-0.7
			c0.7-0.5,1.1-1.2,1.3-2.1l0.7,0.1v-0.5h-1.8v-0.8h1.8V348L531.8,348.1L531.8,348.1z M540.1,355.4c-1.2,0.2-2.6,0.3-4.1,0.4v0.9
			h4.3v0.7H536v0.9h5.5v0.8H536v0.8c0,0.7-0.4,1.1-1.2,1.1h-1.7l-0.2-0.9c0.5,0,1.1,0.1,1.6,0.1c0.4,0,0.5-0.2,0.5-0.5v-0.6h-5.8
			v-0.8h5.8v-0.9h-4.8v-0.7h4.8v-0.9c-1.4,0.1-2.9,0.1-4.5,0.1l-0.3-0.8c3.8,0,6.9-0.2,9.3-0.6L540.1,355.4z M533.6,353.9
			c0.3,0,0.5,0,0.6-0.1s0.2-0.2,0.2-0.4c0-0.2,0.1-0.9,0.1-2h-3.9c-0.1,0.2-0.3,0.4-0.4,0.6h3.3v1.9H533.6z M532.7,352.6h-1.8v0.8
			h1.8V352.6z M536,352.1l-0.5-0.7c0.8-0.9,1.3-2,1.6-3.4l0.9,0.1c-0.1,0.4-0.2,0.7-0.3,1.1h3.6v0.8h-0.8c-0.2,1.1-0.6,1.9-1.2,2.6
			c0.6,0.4,1.5,0.8,2.4,1.1l-0.5,0.8c-1.1-0.3-1.9-0.8-2.6-1.3c-0.7,0.5-1.5,0.9-2.4,1.1l-0.4-0.8c0.8-0.2,1.5-0.5,2.1-0.9
			c-0.5-0.5-0.9-1-1.1-1.6C536.5,351.5,536.3,351.8,536,352.1z M537.3,350.3c0.2,0.7,0.6,1.4,1.3,1.9c0.5-0.6,0.9-1.3,1-2.1h-2.2
			C537.3,350.2,537.3,350.2,537.3,350.3z"/>
	</g>
</g>
<g id="RectEndPoint19" transform="translate(437,33)">
	<g>
		<rect x="-199.9" y="-30.4" class="st6" width="535.7" height="50"/>
		<rect x="-201.9" y="-32.4" class="st7" width="535.7" height="50"/>
	</g>
	<g transform="translate(20 9)">
		<g class="st2">
			<path class="st5" d="M15.2-12.2C14.7-11,14.1-9.9,13.4-9l-0.8-0.6c0.7-0.8,1.3-1.8,1.8-3L15.2-12.2z M19.2-21.8v1.4h5.4v1h-5.4
				v1.8h4.5v4.5h-9.3v-4.5h3.8v-4.1L19.2-21.8L19.2-21.8z M22.6-16.8h-7.3v2.6h7.3V-16.8z M18.1-9.2l-1,0.2c-0.2-1.1-0.4-2.2-0.7-3
				l0.9-0.2C17.7-11.3,17.9-10.3,18.1-9.2z M21.4-9.2l-1,0.2c-0.3-1.2-0.6-2.2-1.1-3.2l1-0.2C20.7-11.4,21.1-10.3,21.4-9.2z
				 M25.2-9.6L24.4-9c-0.5-1-1.2-2-2-3.1l0.8-0.5C24.1-11.5,24.8-10.4,25.2-9.6z"/>
			<path class="st5" d="M32.4-19.8v-2h1v2h4.5v1h-4.5v2.3h5.7v1h-5.7v4.9h3.3v-3.7h1V-9h-1v-0.6h-7.6V-9h-1v-5.3h1v3.7h3.3v-4.9
				h-5.7v-1h5.7v-2.3h-4.6v-1H32.4z"/>
			<path class="st5" d="M43.6-16.3l-0.7,0.7c-0.5-0.6-1.3-1.3-2.2-2.1l0.7-0.7C42.3-17.6,43-16.9,43.6-16.3z M43.7-14.2
				c-0.6,1.8-1.2,3.5-1.8,5L41-9.6c0.7-1.6,1.3-3.3,1.9-5L43.7-14.2z M43.9-19.8l-0.7,0.7c-0.5-0.6-1.2-1.2-2.2-1.8l0.7-0.7
				C42.6-21,43.3-20.4,43.9-19.8z M46.3-15.4c-0.1,1.8-0.2,3.2-0.5,4c-0.3,0.9-0.9,1.7-1.7,2.3l-0.6-0.8c0.7-0.5,1.1-1.2,1.4-1.9
				c0.3-0.7,0.4-1.9,0.5-3.6H46.3z M44.5-16.8c0.1,0,0.2-0.1,0.2-0.1c0.5-0.3,1.2-1.2,2-2.6h-2.5v-0.9h3.9c-0.2-0.5-0.4-1-0.6-1.4
				l1-0.2c0.2,0.5,0.4,1,0.6,1.6h3.7v0.9h-5.1c-0.7,1.2-1.2,2-1.7,2.6c1.6-0.1,3.2-0.2,4.8-0.4c-0.3-0.4-0.6-0.8-1-1.2l0.8-0.5
				c1,1.1,1.7,2.1,2.2,3L52-15.4c-0.2-0.3-0.4-0.7-0.6-1.1c-2.1,0.2-4.3,0.4-6.7,0.6L44.5-16.8z M48.6-15.3v6.1h-1v-6.1H48.6z
				 M51.3-9.1c-0.8,0-1.2-0.4-1.2-1.1v-5.1h1v4.9c0,0.2,0.1,0.3,0.3,0.3H52c0.3,0,0.4-0.2,0.4-0.5c0.1-0.3,0.1-0.9,0.1-1.6l0.9,0.3
				c0,1.2-0.1,2-0.3,2.3S52.6-9.2,52-9.2h-0.7V-9.1z"/>
			<path class="st5" d="M59.8-21c-0.7,1.2-1.3,2.1-2,2.9s-1.6,1.6-2.8,2.4l-0.5-0.9c1-0.5,1.8-1.3,2.6-2.1c0.7-0.8,1.3-1.7,1.8-2.8
				L59.8-21z M56.6-15.3v-1H65c0,1.8-0.1,3.2-0.3,4.2c-0.1,1.1-0.4,1.8-0.7,2.2c-0.3,0.4-0.8,0.6-1.5,0.7H60l-0.3-1
				c0.8,0,1.6,0,2.3,0c0.8,0,1.2-0.3,1.5-1s0.4-2.1,0.5-4.3h-3.5c-0.3,1.5-0.8,2.7-1.4,3.6c-0.7,1-1.8,1.9-3.2,2.7L55.3-10
				c1.3-0.7,2.3-1.5,2.9-2.3c0.6-0.8,1-1.9,1.3-3.2h-2.9V-15.3z M67.2-16.6l-0.7,0.8c-2.2-1.4-3.7-3.2-4.5-5.4l0.9-0.5
				C63.7-19.6,65.2-17.9,67.2-16.6z"/>
			<path class="st5" d="M71.8-9h-1v-7.2c-0.5,1.4-1.1,2.7-1.9,3.9l-0.5-1.1c1.1-1.4,1.8-3,2.3-4.7h-2v-1h2v-2.7h1v2.7h1.9v1h-1.9
				v0.7c0.7,0.7,1.3,1.5,2,2.3l-0.5,0.8c-0.6-0.9-1.1-1.6-1.5-2.1L71.8-9L71.8-9z M80.8-20.9c-1.6,0.6-3.4,0.9-5.3,1v2.5h5.7v1h-2.1
				V-9h-1v-7.4h-2.6v0.2c-0.1,3-0.8,5.4-2.1,7.1l-0.7-0.7c1.1-1.5,1.8-3.7,1.9-6.4v-4.5c2.2-0.1,4.1-0.4,5.8-1L80.8-20.9z"/>
		</g>
	</g>
</g>
<g id="RectEndPoint20" transform="translate(409.296875,500)">
	<rect x="-171.2" y="-57.4" class="st6" width="535.7" height="50"/>
	<rect x="-173.2" y="-59.4" class="st7" width="535.7" height="50"/>
	<g transform="translate(20 9)">
		<g class="st2">
			<path class="st5" d="M12.7-48.1v-1h4.6v1h-2.1c-0.2,1.1-0.5,2.2-0.8,3.2h2.7v6.3h-2.5v1.1h-0.9v-5.8c-0.3,0.5-0.6,1-0.9,1.4
				l-0.5-0.8c1-1.6,1.7-3.4,2-5.4C14.3-48.1,12.7-48.1,12.7-48.1z M16.2-39.5V-44h-1.5v4.5C14.7-39.5,16.2-39.5,16.2-39.5z M25-49.3
				v0.9h-3.2v1.2h2.7v5.5h-2.8c-0.1,1-0.3,1.8-0.8,2.4c1.2,0.8,2.6,1.2,4.3,1.3L25-37c-1.8-0.1-3.3-0.6-4.6-1.5
				c-0.7,0.6-1.6,1.1-2.9,1.5L17-37.8c1.2-0.4,2-0.8,2.6-1.3c-0.5-0.5-1-1-1.5-1.6l0.7-0.5c0.4,0.5,0.9,1,1.4,1.4
				c0.3-0.5,0.5-1.2,0.6-1.9h-2.7v-5.5h2.7v-1.2h-3.2v-0.9H25z M20.9-46.3h-1.8v1.5h1.8V-46.3z M19.1-42.5h1.8V-44h-1.8V-42.5z
				 M23.7-46.3h-1.8v1.5h1.8V-46.3z M21.8-42.5h1.8V-44h-1.8V-42.5z"/>
			<path class="st5" d="M30.4-49.5c-0.4,1.1-0.8,2.2-1.4,3.2v9.4h-1v-7.8c-0.4,0.6-0.9,1.2-1.5,1.8L26.2-44c1.5-1.7,2.5-3.6,3.2-5.8
				L30.4-49.5z M32.8-48.9c-0.1,0.7-0.3,1.4-0.5,2h2.1v-2.9h1v2.9h3.2v1h-3.2v3.4h3.7v1h-3.7v4.5h-1v-4.5h-4.1v-1h4.1v-3.4H32
				c-0.4,0.9-0.8,1.8-1.3,2.5l-0.6-0.8c0.9-1.3,1.4-2.9,1.7-4.7L32.8-48.9z"/>
			<path class="st5" d="M43.8-39c0.5,0.5,0.9,1,1.2,1.4L44.3-37c-0.3-0.4-0.7-0.9-1.2-1.4c-0.5-0.6-1-1-1.6-1.4l0.7-0.6
				C42.7-40,43.3-39.5,43.8-39z"/>
			<path class="st5" d="M63.7-37.1l-0.3-1h1.3c0.4,0,0.6-0.2,0.6-0.6v-9.7h-9.2V-37h-1v-12.3h11.2v10.9c0,0.9-0.4,1.3-1.2,1.3H63.7z
				 M59-42.2c-0.5,1.4-1.1,2.5-1.8,3.5l-0.6-0.8c0.7-1,1.3-2.3,1.8-3.7c-0.7-0.9-1.3-1.7-2-2.5l0.6-0.5c0.5,0.5,1.1,1.2,1.7,2
				c0.3-1,0.5-2,0.7-3.2l0.9,0.2c-0.2,1.4-0.5,2.8-0.9,4c0.5,0.7,1.1,1.5,1.7,2.4l-0.7,0.7C59.9-40.9,59.5-41.6,59-42.2z M63.1-41.9
				c-0.6,1.4-1.2,2.5-2,3.5l-0.6-0.8c0.8-1.1,1.4-2.3,2-3.7c-0.6-1-1.3-1.8-1.9-2.6l0.6-0.6c0.5,0.6,1.1,1.3,1.7,2.1
				c0.3-1.1,0.5-2.2,0.7-3.4l1,0.2c-0.3,1.6-0.6,3-1,4.2c0.5,0.8,1.1,1.7,1.7,2.7l-0.7,0.7C64-40.4,63.5-41.1,63.1-41.9z"/>
			<path class="st5" d="M71.9-49.5c-0.7,1.8-1.4,3.2-2.1,4.3c0.6-0.1,1.2-0.2,1.8-0.3c0.2-0.5,0.5-1,0.7-1.5l0.9,0.3
				c-1.2,2.4-2.2,4-3,5.1c1-0.2,2-0.5,3-0.9v0.9c-1.4,0.5-2.8,0.9-4.1,1l-0.3-0.8c0.2-0.1,0.3-0.2,0.4-0.3c0.5-0.6,1.1-1.5,1.9-2.8
				c-0.8,0.1-1.5,0.3-2.3,0.4L68.5-45c0.2-0.1,0.3-0.2,0.4-0.4c0.7-1.3,1.4-2.7,1.9-4.4L71.9-49.5z M73.4-38.8
				c-1.4,0.5-2.9,1-4.7,1.3l-0.1-1c1.8-0.3,3.4-0.7,4.8-1.2C73.4-39.7,73.4-38.8,73.4-38.8z M76.6-49.7c-0.1,0.4-0.3,0.8-0.4,1.1H80
				v0.7c-0.5,1.2-1.3,2.2-2.2,3.1c1,0.7,2.2,1.3,3.5,1.7l-0.6,0.8c-1.5-0.4-2.7-1.1-3.7-1.9c-1,0.8-2.2,1.4-3.6,1.9l-0.6-0.8
				c1.3-0.5,2.5-1.1,3.5-1.8c-0.5-0.5-1-1.1-1.4-1.7c-0.4,0.4-0.8,0.9-1.3,1.2L73-46.2c1.2-1,2.1-2.3,2.5-3.8L76.6-49.7z M80-37.1
				h-1v-0.6h-3.8v0.6h-1v-5.2H80V-37.1z M79.1-38.6v-2.7h-3.8v2.7H79.1z M77-45.4c0.8-0.7,1.4-1.4,1.9-2.3h-3.2
				c-0.1,0.1-0.2,0.3-0.3,0.4C75.9-46.6,76.4-45.9,77-45.4z"/>
			<path class="st5" d="M85.4-48.8v-1.1h1v1.1h4.8v-1.1h1v1.1h2.5v0.9h-2.5v4.6h2.7v0.9H92c0.7,0.8,1.7,1.5,3.1,2l-0.4,0.9
				c-1.7-0.7-3-1.7-3.7-2.8h-4.4c-0.7,1.2-1.9,2.1-3.5,2.9l-0.6-1c1.4-0.5,2.4-1.2,3.1-2h-2.9v-0.9h2.7v-4.6h-2.5v-0.9H85.4z
				 M89.3-41.9v1.1h2.8v0.9h-2.8v1.5h4.8v0.9H83.4v-0.9h4.9v-1.5h-2.9v-0.9h2.9v-1.1H89.3z M91.2-46.9v-1h-4.8v1H91.2z M91.2-45.1
				v-1h-4.8v1H91.2z M91.2-43.3v-1h-4.8v1H91.2z"/>
			<path class="st5" d="M96.6-48.1v-1h4.7v1h-2.1c-0.2,1.1-0.4,2.2-0.8,3.2h2.6v7.5h-0.9v-0.9h-1.5v1h-0.9v-6.1
				c-0.3,0.6-0.6,1.1-1,1.7l-0.5-0.9c1-1.6,1.7-3.4,2-5.4L96.6-48.1L96.6-48.1z M100.2-39.2V-44h-1.5v4.8H100.2z M107.5-48.7h0.9
				v4.6h-2.6v5.3h2v-4h0.9v5.9h-0.9v-1h-4.9v0.9H102v-5.9h0.9v4h1.9v-5.3h-2.6v-4.6h0.9v3.7h1.7v-4.8h0.9v4.8h1.7L107.5-48.7
				L107.5-48.7z"/>
			<path class="st5" d="M113.3-45.5v6.2c0.5-0.4,1.1-0.9,1.6-1.4l0.3,1.1c-0.9,0.8-1.8,1.6-2.8,2.2l-0.4-1c0.2-0.2,0.3-0.4,0.3-0.6
				v-5.5h-1.9v-1H113.3z M114.3-47.5l-0.7,0.7c-0.5-0.7-1.3-1.4-2.2-2.1l0.7-0.7C112.9-48.9,113.7-48.2,114.3-47.5z M122.1-43.9v0.9
				c-0.4,1.3-1.2,2.5-2.2,3.4c1,0.7,2.1,1.2,3.5,1.7l-0.5,0.9c-1.5-0.6-2.7-1.2-3.7-2c-1.1,0.8-2.5,1.5-4.1,2l-0.6-0.9
				c1.6-0.5,2.9-1.1,3.9-1.8c-1.1-1-1.8-2.1-2.2-3.3h-0.8v-1L122.1-43.9L122.1-43.9z M121.2-49.3v3c0,0.3,0.2,0.5,0.5,0.5h1.3v0.9
				h-1.5c-0.9,0-1.3-0.4-1.3-1.2v-2.3h-2.7v0.5c0,1.5-0.7,2.6-2.2,3.4l-0.7-0.8c1.2-0.6,1.8-1.5,1.8-2.6v-1.6h4.8V-49.3z M119-40.2
				c0.9-0.8,1.6-1.7,2-2.7h-3.9C117.5-41.9,118.1-41,119-40.2z"/>
			<path class="st5" d="M126.8-47.9c-0.3-0.7-0.6-1.3-0.9-1.9l1-0.2c0.3,0.6,0.6,1.3,0.8,2.1h1.7v1h-2.8v1.9h2.5
				c0,3.6-0.1,5.7-0.2,6.6c-0.1,0.8-0.7,1.3-1.7,1.3c-0.1,0-0.4,0-0.7,0l-0.2-0.9c0.3,0,0.5,0.1,0.7,0.1c0.5,0,0.8-0.3,0.9-0.8
				c0.1-0.6,0.1-2.3,0.2-5.2h-1.6c-0.1,3.2-0.6,5.5-1.6,7l-0.7-0.7c0.9-1.4,1.3-3.7,1.4-6.8v-2.4h-1.1v-1h2.3V-47.9z M129.9-44.7
				l-0.7-0.7c0.9-1.1,1.6-2.6,2.1-4.5l0.9,0.2c-0.2,0.5-0.3,0.9-0.5,1.4h5v0.9h-5.4C131-46.3,130.5-45.4,129.9-44.7z M136.1-40.8
				c-0.1,0.5-0.6,0.8-1.4,0.8h-0.2l-0.3-0.9c0.2,0,0.4,0,0.6,0c0.3,0,0.4-0.2,0.4-0.4c0.1-0.3,0.1-1.3,0.1-3l-1.3,0.6v4.6h-0.9v-4.3
				l-1.4,0.5v4c0,0.6,0.2,0.9,0.7,0.9h2.8c0.4,0,0.6-0.1,0.8-0.2c0.2-0.2,0.3-0.7,0.4-1.6l0.9,0.3c-0.1,1.2-0.3,1.9-0.6,2.1
				c-0.3,0.2-0.7,0.3-1.3,0.3H132c-0.9,0-1.3-0.5-1.3-1.6v-3.8l-1.1,0.4V-43l1.1-0.4v-2h0.9v1.6l1.4-0.5v-2.3h0.9v1.9l2.3-0.9
				C136.3-42.9,136.3-41.3,136.1-40.8z"/>
		</g>
	</g>
</g>
<g id="RectEndPoint7" transform="translate(77,200)">
	<rect x="-15.5" y="23.5" class="st6" width="124" height="50"/>
	<rect x="-17" y="21.5" class="st7" width="124" height="50"/>
	<g transform="translate(27,9)">
		<g class="st2">
			<path class="st5" d="M-22.6,43.8l-0.8-0.7c0.9-1.2,1.4-2.8,1.4-4.7v-6.8h10.4v10.5c0,1-0.5,1.5-1.5,1.5h-1.6l-0.3-1
				c0.6,0,1.1,0.1,1.6,0.1s0.8-0.3,0.8-0.9v-2.4h-3.8v4.1h-1v-4.1H-21C-21.2,41.1-21.7,42.6-22.6,43.8z M-21,32.6V35h3.6v-2.4H-21z
				 M-21,38.4h3.6v-2.5H-21V38.4z M-12.6,32.6h-3.8V35h3.8C-12.6,35-12.6,32.6-12.6,32.6z M-12.6,35.9h-3.8v2.5h3.8
				C-12.6,38.4-12.6,35.9-12.6,35.9z"/>
			<path class="st5" d="M-8.8,43.9l-0.7-0.7c1.1-1.6,1.7-3.6,1.7-6.1v-4.4h4.6c-0.3-0.5-0.6-1.1-0.8-1.6l1.1-0.2
				c0.3,0.5,0.5,1.1,0.8,1.8h4.4v4.7h-9C-6.9,40-7.5,42.1-8.8,43.9z M-6.8,33.8v2.7h8v-2.7H-6.8z"/>
			<path class="st5" d="M8.7,31.6c-0.8,1.6-2,2.9-3.8,4.1l-0.3-1c1.5-1,2.5-2.2,3.2-3.5L8.7,31.6z M9.3,34.8
				c-0.4,0.8-0.9,1.5-1.5,2.2v6.9h-1v-5.8c-0.6,0.5-1.2,1-1.8,1.5l-0.3-1c1.7-1.2,3-2.6,3.7-4.1L9.3,34.8z M17.3,35.5v1H15v6.1
				c0,0.8-0.5,1.2-1.4,1.2h-2.1l-0.2-1c0.7,0,1.3,0.1,1.9,0.1c0.4,0,0.7-0.2,0.7-0.5v-5.9H9.6v-1C9.6,35.5,17.3,35.5,17.3,35.5z
				 M16.7,31.9v1H10v-1H16.7z"/>
			<path class="st5" d="M24.8,31v1.7c0,0.6,0,1.2-0.1,1.8h5.8c0,4-0.2,6.6-0.5,7.6c-0.4,1.1-1,1.6-2,1.6c-0.7,0-1.3,0-1.7-0.1
				l-0.3-1c0.7,0.1,1.4,0.1,1.9,0.1c0.8-0.1,1.2-0.9,1.4-2.4c0.1-1.5,0.2-3.2,0.2-5h-4.8c-0.2,1.8-0.6,3.2-1.2,4.4
				c-0.8,1.7-2.2,3-4.1,3.9l-0.6-0.9c1.9-1,3.2-2.2,3.9-3.8c0.4-1,0.7-2.3,0.9-3.7h-4.4v-1h4.5c0-0.6,0.1-1.2,0.1-1.8v-1.7h1V31z
				 M22.5,33.6l-0.8,0.5c-0.5-0.7-1.1-1.4-1.9-2.2l0.8-0.5C21.4,32.2,22,33,22.5,33.6z M27.8,40.2L27,40.8c-0.6-0.9-1.3-1.9-2.3-3
				l0.8-0.5C26.5,38.4,27.3,39.4,27.8,40.2z"/>
			<path class="st5" d="M36.2,37.7c-0.1,0.3-0.2,0.5-0.3,0.8h2.9v0.8c-0.3,0.9-0.8,1.7-1.6,2.4c0.7,0.3,1.3,0.6,1.9,1l-0.5,0.8
				c-0.6-0.4-1.3-0.7-2.2-1.1c-0.9,0.6-2.1,1.2-3.5,1.6l-0.5-0.8c1.1-0.3,2.1-0.7,3-1.1c-0.6-0.3-1.3-0.5-1.9-0.8
				c0.4-0.6,0.7-1.2,1-1.8h-1.7v-0.9h2c0.1-0.3,0.2-0.6,0.3-0.9H36.2z M35.7,33.7V31h0.9v2.7h2.5v0.9h-2.5v0.2
				c0.8,0.4,1.5,0.8,2.3,1.3l-0.5,0.8c-0.7-0.6-1.3-1-1.8-1.3v1.8h-0.9v-2.7c-0.5,1.1-1.3,2.1-2.5,2.9l-0.5-0.8
				c1.1-0.6,1.8-1.3,2.3-2.1h-2v-0.9h2.7V33.7z M34.9,33.1l-0.7,0.3c-0.3-0.7-0.6-1.3-0.9-1.8l0.8-0.3
				C34.4,31.9,34.6,32.4,34.9,33.1z M38,39.3h-2.4c-0.2,0.5-0.5,0.9-0.8,1.3c0.6,0.2,1.1,0.4,1.6,0.6C37.1,40.7,37.6,40.1,38,39.3z
				 M39,31.6c-0.3,0.6-0.6,1.2-1.1,1.8L37.2,33c0.4-0.6,0.8-1.2,1.1-1.8L39,31.6z M40.5,36.4c-0.3,0.6-0.5,1.2-0.8,1.7l-0.6-0.8
				c0.8-1.6,1.4-3.7,1.7-6.3l1,0.2c-0.1,0.7-0.2,1.4-0.3,2h3.7v1h-0.9c-0.1,2.3-0.5,4.3-1.3,6c0.7,1.3,1.6,2.2,2.6,2.9L45,43.9
				c-1-0.7-1.8-1.7-2.5-2.8c-0.7,1.1-1.5,2.1-2.6,2.8l-0.5-0.8c1.1-0.8,1.9-1.7,2.6-2.9C41.4,39,40.9,37.8,40.5,36.4z M41,34.9
				c0.4,1.6,0.8,3.1,1.4,4.2c0.5-1.4,0.8-3.1,0.9-5h-2.1L41,34.9z"/>
			<path class="st5" d="M47.1,43.8l-0.2-1c0.4,0,0.7,0.1,1.1,0.1c0.4,0,0.5-0.2,0.5-0.6v-3.4c-0.6,0.2-1.1,0.4-1.7,0.6l-0.3-1
				c0.6-0.2,1.3-0.4,1.9-0.6v-3.2h-1.7v-1h1.7v-2.6h1v2.6h1.3v1h-1.3v2.8c0.4-0.2,0.9-0.4,1.3-0.6v1c-0.4,0.2-0.9,0.4-1.3,0.6v4.1
				c0,0.8-0.4,1.2-1.2,1.2H47.1z M50.8,43.9L50,43.2c1-1.8,1.5-4.3,1.5-7.2v-4.4H59V35h-2.6v1.7h3v0.9h-3v1.7h2.4v4.6h-0.9v-0.7
				h-3.8v0.7H53v-4.6h2.3v-1.7h-2.9C52.3,40,51.8,42.1,50.8,43.9z M52.6,35v1c0,0.2,0,0.4,0,0.7h2.8V35H52.6z M52.6,32.5v1.6H58
				v-1.6H52.6z M57.7,42.3v-2.1h-3.8v2.1H57.7z"/>
		</g>
	</g>
</g>
<g id="textgroup" transform="translate(0,0)">
</g>
<g id="assistantgroup" transform="translate(0,0)">
</g>
<g>
	<polygon class="st8" points="230.5,252 235.5,247.5 230.5,243 	"/>
</g>
<g>
	<rect x="185.5" y="247" class="st8" width="49" height="1"/>
</g>
<g>
	<g>
		<path class="st3" d="M254.9,91.2v-1l0,0v-3.3c-0.1,0-0.2,0-0.2,0c-2.4,0-4.4,2-4.4,4.4c0,1.2,0.5,2.4,1.4,3.2L254.9,91.2z
			 M253.8,90.8l-2.1,2.1c-0.9-1.6-0.4-3.7,1.2-4.5c0.3-0.2,0.6-0.3,0.9-0.4L253.8,90.8L253.8,90.8z"/>
		<path class="st3" d="M255.9,87.1v1.1c1.7,0.7,2.5,2.6,1.9,4.4c-0.5,1.3-1.8,2.1-3.1,2.1c-0.5,0-0.9-0.1-1.4-0.3l-0.8,0.8
			c2.1,1.2,4.8,0.5,6-1.6s0.5-4.8-1.6-6C256.5,87.3,256.2,87.1,255.9,87.1z"/>
	</g>
	<g>
		<path class="st3" d="M248,94c-1.5-3.5,0.1-7.6,3.6-9.1c2.2-1,4.8-0.7,6.8,0.7c0.1-0.4,0.3-0.7,0.6-0.8c-3.6-2.5-8.6-1.7-11.1,1.9
			c-1.7,2.4-2,5.5-0.6,8.1L248,94z"/>
		<path class="st3" d="M261.2,87l-0.8,0.8c0.6,1.1,1,2.3,1,3.5c0,3.8-3.1,7-7,7c-2.2,0-4.2-1-5.5-2.7l-0.7,0.7
			c2.7,3.5,7.7,4,11.2,1.3C262.6,94.9,263.3,90.4,261.2,87z"/>
	</g>
	<circle class="st3" cx="259.4" cy="85.7" r="1"/>
	<circle class="st3" cx="249" cy="96.4" r="1"/>
</g>
</svg>
