<?xml version="1.0" encoding="utf-8"?>
<!-- Generator: Adobe Illustrator 19.0.0, SVG Export Plug-In . SVG Version: 6.00 Build 0)  -->
<svg version="1.1" id="图层_1" xmlns="http://www.w3.org/2000/svg" xmlns:xlink="http://www.w3.org/1999/xlink" x="0px" y="0px"
	 width="830px" height="413.667px" viewBox="351 -142.667 830 413.667" style="enable-background:new 351 -142.667 830 413.667;"
	 xml:space="preserve">
<style type="text/css">
	.st0{fill:#878787;}
	.st1{fill:none;stroke:#878787;stroke-miterlimit:10;}
	.st2{fill:#CEE3FF;}
	.st3{opacity:0.6;}
	.st4{fill:#BBBBBB;}
	.st5{fill:#FFFFFF;}
	.st6{fill:#E5E5E5;}
	.st7{fill:#CB3333;fill-opacity:0;}
	.st8{fill:#444444;}
	.st9{fill:#00A4FF;}
	.st10{fill:#FFFFFF;stroke:#E5E5E5;}
</style>
<g>
	<polygon class="st0" points="533.5,70.333 528.5,65.333 523.5,70.333 	"/>
	<line class="st1" x1="528.5" y1="100.333" x2="528.5" y2="70.333"/>
</g>
<g>
	<polygon class="st0" points="784,70.333 779,65.333 774,70.333 	"/>
	<line class="st1" x1="779" y1="100.333" x2="779" y2="70.333"/>
</g>
<g>
	<polygon class="st0" points="1040,70.333 1035,65.333 1030,70.333 	"/>
	<line class="st1" x1="1035" y1="100.333" x2="1035" y2="70.333"/>
</g>
<g>
	<g>
		<rect x="680.5" y="165.333" class="st2" width="196" height="98"/>
	</g>
	<g>
		<g class="st3">
			<rect x="703.5" y="204.333" class="st4" width="157" height="50"/>
		</g>
		<g>
			<rect x="702" y="202.833" class="st5" width="156" height="49"/>
			<path class="st6" d="M857.5,203.333v48h-155v-48H857.5 M858.5,202.333h-157v50h157V202.333L858.5,202.333z"/>
		</g>
		<g class="st3">
			<rect x="701.62" y="202.333" class="st4" width="153.88" height="47"/>
		</g>
		<g>
			<rect x="697" y="197.833" class="st5" width="156" height="49"/>
			<path class="st6" d="M852.5,198.333v48h-155v-48H852.5 M853.5,197.333h-157v50h157V197.333L853.5,197.333z"/>
		</g>
		<g class="st3">
			<rect x="696.5" y="197.333" class="st4" width="154" height="47"/>
		</g>
		<g>
			<rect x="692" y="192.833" class="st5" width="156" height="49"/>
			<path class="st6" d="M847.5,193.333v48h-155v-48H847.5 M848.5,192.333h-157v50h157V192.333L848.5,192.333z"/>
		</g>
		<rect x="711.5" y="201.333" class="st7" width="32" height="32"/>
		<g>
			<path class="st8" d="M756.747,218.563c-0.56,1.793-1.144,3.402-1.75,4.83l-0.938-0.406c0.7-1.539,1.303-3.131,1.807-4.773
				L756.747,218.563z M754.815,214.489c0.84,0.672,1.53,1.316,2.071,1.934l-0.714,0.713c-0.541-0.662-1.223-1.324-2.044-1.988
				L754.815,214.489z M754.885,210.962c0.784,0.615,1.442,1.232,1.975,1.848l-0.714,0.715c-0.458-0.578-1.111-1.213-1.961-1.904
				L754.885,210.962z M758.105,213.915h-1.12v-0.965h1.96c-0.149-0.682-0.351-1.381-0.603-2.1l1.008-0.184
				c0.215,0.682,0.411,1.443,0.589,2.283h1.609v0.965h-2.464v0.953c0,0.252-0.01,0.621-0.028,1.105h2.269
				c0,3.23-0.065,5.246-0.196,6.049c-0.084,0.887-0.518,1.33-1.302,1.33l-1.022-0.057l-0.237-0.854
				c0.578,0.018,0.956,0.027,1.134,0.027c0.28,0,0.448-0.271,0.504-0.812c0.103-0.521,0.158-2.09,0.168-4.703h-1.372
				c-0.224,2.93-0.85,5.129-1.876,6.594l-0.742-0.658c1.12-1.67,1.694-4.344,1.723-8.021v-0.952
				C758.107,213.915,758.105,213.915,758.105,213.915z M763.075,213.706c-0.374,0.896-0.821,1.652-1.344,2.268l-0.631-0.77
				c0.868-1.121,1.456-2.637,1.765-4.551l1.008,0.168c-0.112,0.617-0.262,1.238-0.448,1.863h3.473v1.021L763.075,213.706
				L763.075,213.706z M762.669,215.19h3.794v0.91c-0.43,0.568-0.915,1.129-1.456,1.68v0.867h1.946v0.91h-1.946v2.506
				c0,0.887-0.354,1.33-1.063,1.33h-1.246l-0.238-0.924c0.448,0.02,0.826,0.027,1.134,0.027c0.289,0,0.435-0.256,0.435-0.77v-2.17
				h-2.143v-0.91h2.143v-1.008c0.569-0.625,1.003-1.139,1.302-1.539h-2.66v-0.909H762.669z"/>
			<path class="st8" d="M769.291,214.421c0.831,0.887,1.577,1.75,2.24,2.59c0.448-1.205,0.742-2.512,0.882-3.92h-3.724v-0.994h4.689
				v0.924c-0.121,1.82-0.495,3.463-1.12,4.928c0.645,0.85,1.204,1.656,1.681,2.422l-0.729,0.713
				c-0.448-0.746-0.924-1.451-1.428-2.113c-0.784,1.447-1.811,2.684-3.08,3.711l-0.645-0.785c1.298-1.102,2.306-2.385,3.024-3.85
				c-0.84-1.055-1.676-2.029-2.506-2.926L769.291,214.421z M780.295,214.042l0.154,0.967l-3.794,0.615
				c0.046,0.607,0.126,1.219,0.237,1.834c0.112,0.578,0.248,1.172,0.406,1.777c0.756-0.867,1.428-1.889,2.017-3.064l0.825,0.545
				c-0.783,1.447-1.614,2.646-2.491,3.598c0.111,0.309,0.214,0.561,0.308,0.756c0.448,0.822,0.845,1.236,1.19,1.246
				c0.242-0.055,0.476-0.887,0.699-2.492l0.868,0.561c-0.196,0.822-0.396,1.504-0.602,2.045c-0.28,0.672-0.584,1.008-0.91,1.008
				c-0.569,0-1.134-0.449-1.694-1.344c-0.224-0.373-0.41-0.738-0.56-1.094c-0.924,0.842-1.899,1.461-2.926,1.863l-0.616-0.826
				c1.185-0.477,2.24-1.158,3.164-2.045c-0.206-0.568-0.374-1.18-0.504-1.834c-0.159-0.643-0.29-1.436-0.393-2.379l-1.777,0.293
				l-0.154-0.965l1.848-0.309c-0.103-1.25-0.153-2.594-0.153-4.031h1.008c0,1.438,0.042,2.729,0.126,3.877L780.295,214.042z
				 M778.237,211.144c0.681,0.738,1.181,1.35,1.498,1.834l-0.84,0.574c-0.374-0.588-0.868-1.219-1.484-1.891L778.237,211.144z"/>
			<path class="st8" d="M782.857,214.462c0.951,0.719,1.73,1.41,2.338,2.072l-0.687,0.686c-0.578-0.672-1.357-1.371-2.338-2.1
				L782.857,214.462z M785.391,218.577c-0.662,1.812-1.372,3.469-2.128,4.971l-0.938-0.42c0.887-1.68,1.619-3.312,2.198-4.9
				L785.391,218.577z M783.109,211.032c0.998,0.729,1.838,1.441,2.52,2.143l-0.686,0.686c-0.626-0.682-1.466-1.404-2.521-2.17
				L783.109,211.032z M788.233,213.538h1.987c0.159-0.41,0.289-0.85,0.393-1.316h-3.374v4.074c-0.057,3.033-0.588,5.461-1.597,7.279
				l-0.756-0.672c0.878-1.586,1.335-3.789,1.372-6.607v-4.984h8.4v0.91h-3.094c-0.094,0.449-0.22,0.887-0.378,1.316h2.729v4.914
				h-2.324v3.961c0,0.758-0.368,1.135-1.105,1.135h-1.177l-0.21-0.91c0.401,0.047,0.752,0.07,1.051,0.07
				c0.316,0,0.476-0.178,0.476-0.531v-3.725h-2.394L788.233,213.538L788.233,213.538z M789.479,219.642
				c-0.364,1.242-0.868,2.314-1.513,3.221l-0.812-0.504c0.662-0.887,1.139-1.857,1.428-2.912L789.479,219.642z M789.129,215.624
				h3.893v-1.287h-3.893V215.624z M793.021,217.64v-1.26h-3.893v1.26H793.021z M793.343,219.376c0.579,0.98,1.078,2.012,1.498,3.094
				l-0.854,0.379c-0.42-1.129-0.915-2.189-1.484-3.178L793.343,219.376z"/>
			<path class="st8" d="M801.561,221.489c-1.567,0.459-3.28,0.84-5.138,1.148l-0.238-0.965c1.027-0.141,2.04-0.322,3.038-0.547
				c0.43-1.922,0.747-4.037,0.952-6.342l0.98,0.141c-0.233,2.211-0.565,4.203-0.994,5.977c0.56-0.148,1.026-0.279,1.399-0.391v0.979
				H801.561z M796.283,213.075h2.268c-0.149-0.689-0.35-1.375-0.602-2.057l1.021-0.168c0.196,0.643,0.378,1.385,0.546,2.225h2.269
				v0.98h-5.502V213.075z M797.557,214.895c0.346,1.672,0.649,3.537,0.91,5.6l-0.84,0.211c-0.243-1.877-0.56-3.719-0.952-5.529
				L797.557,214.895z M804.221,210.737h1.036v2.465h3.515v0.98h-3.515v2.729h2.828v6.596h-0.979v-0.926h-3.948v0.939h-0.966v-6.609
				h2.029V210.737z M803.157,221.644h3.948v-3.85h-3.948V221.644z"/>
			<path class="st8" d="M811.837,214.237c-0.317,0.375-0.709,0.775-1.176,1.205l-0.574-0.785c1.241-1.109,2.17-2.426,2.786-3.947
				l0.938,0.238c-0.111,0.289-0.271,0.652-0.476,1.092h3.024c-0.233-0.504-0.439-0.906-0.616-1.203l1.036-0.17
				c0.168,0.355,0.354,0.812,0.56,1.373h4.522v0.84h-4.452v0.951h3.934v0.785h-3.934v0.924h3.934v0.783h-3.934v0.994h4.718v0.855
				h-10.29L811.837,214.237L811.837,214.237z M810.465,220.188v-0.91h5.572v-0.729h1.008v0.729h5.488v0.91h-4.242
				c0.961,0.904,2.427,1.623,4.396,2.156l-0.435,0.881c-2.314-0.783-3.962-1.797-4.942-3.037h-0.266v3.416h-1.008v-3.416h-0.28
				c-0.887,1.193-2.52,2.225-4.899,3.094l-0.532-0.869c2.146-0.652,3.635-1.395,4.466-2.225L810.465,220.188L810.465,220.188z
				 M816.415,213.831v-0.951h-3.57l-0.069,0.111v0.84H816.415z M816.415,215.54v-0.924h-3.64v0.924H816.415z M816.415,217.317
				v-0.994h-3.64v0.994H816.415z"/>
			<path class="st8" d="M829.547,217.136h-2.87c-0.121,0.477-0.261,0.93-0.42,1.357h3.668v4.984h-0.896v-0.812h-2.212v0.842h-0.896
				v-4.188c-0.392,0.84-0.845,1.545-1.357,2.115l-0.532-0.84c0.774-0.869,1.349-2.021,1.722-3.459h-1.092v-0.867h1.302
				c0.103-0.551,0.183-1.078,0.238-1.582h-1.876v-0.896h1.96c0.037-0.709,0.061-1.25,0.07-1.625h-1.61v-0.867h4.802v2.492h0.784
				v0.896h-0.784L829.547,217.136L829.547,217.136z M826.817,221.771h2.212v-2.354h-2.212V221.771z M827.111,214.687
				c-0.047,0.41-0.126,0.938-0.238,1.582h1.75v-1.582H827.111z M827.265,212.165c-0.009,0.412-0.032,0.953-0.069,1.625h1.428v-1.625
				H827.265z M833.229,214.392h-2.507v-0.965h1.652c-0.401-0.85-0.798-1.598-1.19-2.24l0.854-0.406
				c0.42,0.672,0.821,1.418,1.204,2.24l-0.84,0.406h1.582c0.41-0.879,0.761-1.793,1.05-2.744l0.952,0.336
				c-0.28,0.857-0.611,1.66-0.994,2.408h1.554v0.965h-2.324v2.031h2.03v0.938h-2.03v2.029h2.633v0.967h-2.633v3.219h-0.993v-3.219
				h-2.604v-0.967h2.604v-2.029h-2.171v-0.938h2.171V214.392z"/>
		</g>
		<g id="XMLID_326_">
			<g>
				<path class="st9" d="M727.5,230.333c-7.18,0-13-5.82-13-13s5.82-13,13-13c6.498,0,11.866,4.772,12.831,11h2.021
					c-0.98-7.336-7.247-13-14.851-13c-8.284,0-15,6.716-15,15s6.716,15,15,15c7.604,0,13.871-5.664,14.851-13h-2.021
					C739.366,225.561,733.998,230.333,727.5,230.333z M734.5,213.333l-7-4l-7,4v8l3.195,1.826c0.203-0.657,0.557-1.244,1.042-1.708
					l-2.237-1.279v-3.697l5,2.857l5-2.857v3.697l-4.137,2.364c-0.262-0.126-0.552-0.203-0.863-0.203c-1.105,0-2,0.896-2,2
					c0,1.104,0.895,2,2,2s2-0.896,2-2c0-0.046-0.01-0.09-0.014-0.135l5.014-2.865V213.333z M727.5,217.03l-4.719-2.697l4.719-2.697
					l4.719,2.697L727.5,217.03z"/>
			</g>
		</g>
	</g>
	<g>
		<path class="st8" d="M691.535,175.863h5.614v-1.498c-1.512,0.093-2.987,0.14-4.424,0.14l-0.224-0.672
			c3.873,0,7.065-0.275,9.576-0.826l0.364,0.63c-1.288,0.309-2.795,0.532-4.522,0.672v1.555h5.558v0.714h-4.76
			c1.045,1.231,2.73,2.188,5.054,2.87l-0.322,0.686c-2.614-0.896-4.448-2.081-5.502-3.556h-0.028v3.149h3.668v5.95h-0.742v-0.798
			h-6.636v0.798h-0.728v-5.95h3.668v-3.149h-0.056c-0.915,1.446-2.73,2.688-5.446,3.724l-0.406-0.658
			c2.539-0.896,4.242-1.918,5.11-3.065h-4.816L691.535,175.863L691.535,175.863z M694.209,181.967h6.636v-1.554h-6.636V181.967z
			 M694.209,184.193h6.636v-1.555h-6.636V184.193z"/>
		<path class="st8" d="M705.801,176.633c0.943,0.71,1.746,1.447,2.408,2.212l-0.532,0.532c-0.579-0.69-1.386-1.433-2.422-2.226
			L705.801,176.633z M708.041,180.973c-0.542,1.644-1.153,3.206-1.834,4.69l-0.756-0.336c0.747-1.55,1.386-3.089,1.918-4.62
			L708.041,180.973z M706.039,173.175c1.026,0.747,1.895,1.512,2.604,2.296l-0.546,0.532c-0.663-0.746-1.526-1.517-2.59-2.31
			L706.039,173.175z M709.399,174.519h1.736v-1.554h0.756v1.554h2.59v-1.554h0.742v1.554h1.862v0.715h-1.862v1.861h2.296v0.729
			h-2.436c0.588,1.092,1.54,1.945,2.856,2.562l-0.308,0.645c-1.549-0.803-2.637-1.871-3.262-3.206h-2.45
			c-0.243,0.598-0.597,1.171-1.064,1.722h4.704v3.01h-4.298v1.568c0,0.401,0.214,0.602,0.644,0.602h3.822
			c0.327,0,0.564-0.116,0.714-0.35c0.112-0.205,0.196-0.662,0.252-1.372l0.714,0.238c-0.065,0.7-0.164,1.204-0.294,1.512
			c-0.205,0.448-0.602,0.677-1.19,0.687h-4.256c-0.765,0-1.148-0.359-1.148-1.078v-4.452c-0.504,0.522-1.12,1.003-1.848,1.441
			l-0.406-0.644c1.456-0.84,2.436-1.801,2.94-2.884h-2.352v-0.729h2.282v-1.863h-1.736L709.399,174.519L709.399,174.519z
			 M711.261,181.883h3.57v-1.68h-3.57V181.883z M711.891,177.095h2.59v-1.862h-2.59V177.095z"/>
		<path class="st8" d="M719.395,176.689h5.516c0.121-0.85,0.191-1.741,0.21-2.675v-1.063h0.756v0.896c0,1.009-0.07,1.956-0.21,2.843
			h5.936v0.756h-5.614c0.98,3.295,2.935,5.819,5.866,7.573l-0.462,0.616c-2.94-1.792-4.923-4.372-5.95-7.742
			c-0.793,3.612-2.744,6.222-5.852,7.826l-0.476-0.63c3.07-1.512,4.96-4.06,5.67-7.644h-5.39L719.395,176.689L719.395,176.689z"/>
		<path class="st8" d="M734.263,173.525h11.018v0.728h-10.276v10.122h10.668v0.728h-11.41V173.525z M736.965,175.807
			c1.251,0.934,2.487,1.946,3.71,3.038c0.859-1.073,1.591-2.31,2.198-3.71l0.686,0.364c-0.653,1.484-1.423,2.772-2.31,3.864
			c1.176,1.073,2.221,2.123,3.136,3.149l-0.574,0.574c-0.868-1.018-1.885-2.067-3.052-3.15c-1.26,1.392-2.721,2.441-4.382,3.15
			l-0.434-0.686c1.624-0.672,3.038-1.666,4.242-2.982c-1.251-1.102-2.506-2.133-3.766-3.094L736.965,175.807z"/>
	</g>
</g>
<g>
	<rect x="439" y="-80.667" class="st2" width="179" height="146"/>
</g>
<g>
	<g class="st3">
		<rect x="451" y="-48.667" class="st4" width="157" height="50"/>
	</g>
	<g>
		<rect x="449.5" y="-50.167" class="st5" width="156" height="49"/>
		<path class="st6" d="M605-49.667v48H450v-48H605 M606-50.667H449v50h157V-50.667L606-50.667z"/>
	</g>
	<g>
		<path class="st8" d="M512.049-19.536l-0.21-0.98c0.504,0.037,0.868,0.057,1.092,0.057c0.364,0,0.546-0.201,0.546-0.602v-3.389
			c-0.373,0.15-0.951,0.355-1.735,0.615l-0.252-1.008c0.635-0.158,1.297-0.363,1.987-0.615v-3.137h-1.708v-0.965h1.708v-2.646h1.036
			v2.646h1.162v0.965h-1.162v2.703c0.364-0.178,0.766-0.383,1.204-0.617v1.023c-0.364,0.195-0.766,0.391-1.204,0.588v4.088
			c0,0.85-0.41,1.273-1.231,1.273L512.049-19.536L512.049-19.536z M519.987-26.341c-0.141,0.375-0.294,0.738-0.462,1.092h4.802v0.98
			h-1.54c-0.215,1.047-0.648,1.924-1.302,2.633c0.979,0.457,1.898,0.934,2.758,1.428l-0.546,0.812
			c-0.84-0.514-1.815-1.037-2.926-1.568c-0.943,0.682-2.413,1.219-4.41,1.609l-0.393-0.91c1.652-0.299,2.903-0.695,3.752-1.189
			c-0.728-0.336-1.643-0.723-2.744-1.162c0.393-0.598,0.729-1.148,1.009-1.652h-1.876v-0.98h2.394
			c0.187-0.41,0.359-0.811,0.519-1.203L519.987-26.341z M518.405-29.882c0.336,0.588,0.667,1.279,0.994,2.072h1.372
			c0.363-0.654,0.694-1.396,0.993-2.227l0.952,0.336c-0.261,0.699-0.556,1.33-0.882,1.891h2.268v0.965h-7.812v-0.965h2.142
			c-0.299-0.654-0.583-1.213-0.854-1.68L518.405-29.882z M520.253-32.333c0.149,0.375,0.304,0.818,0.462,1.33h3.136v0.926h-7.237
			v-0.926h3.08c-0.149-0.4-0.313-0.787-0.49-1.16L520.253-32.333z M519.007-24.269c-0.271,0.457-0.537,0.873-0.798,1.246
			c0.812,0.309,1.596,0.631,2.352,0.967c0.626-0.588,1.051-1.326,1.274-2.213C521.835-24.269,519.007-24.269,519.007-24.269z"/>
		<path class="st8" d="M529.073-31.716l0.84-0.533c1.232,0.859,2.286,2.432,3.164,4.719c1.315,3.352,3.075,5.717,5.278,7.098
			l-0.631,0.812c-2.259-1.363-4.111-3.9-5.558-7.615c-0.121-0.336-0.196-0.533-0.224-0.588c-0.925,3.574-2.856,6.312-5.796,8.217
			l-0.603-0.854c2.996-1.961,4.942-4.807,5.838-8.541C530.748-30.157,529.979-31.063,529.073-31.716z"/>
		<path class="st8" d="M541.533-24.212c-0.084,1.951-0.416,3.561-0.994,4.83l-0.756-0.701c0.551-1.25,0.835-2.863,0.854-4.844
			v-6.719h4.088v10.906c0,0.857-0.392,1.287-1.176,1.287h-1.12l-0.237-0.896c0.522,0.037,0.882,0.057,1.077,0.057
			c0.355,0,0.532-0.258,0.532-0.77v-3.15L541.533-24.212L541.533-24.212z M543.801-28.37v-2.365h-2.254v2.365H543.801z
			 M541.547-27.46v2.338h2.254v-2.338H541.547z M546.853-25.599v6.203h-0.951V-31.66h5.67c0,1.734-0.084,2.883-0.252,3.443
			c-0.168,0.578-0.691,0.867-1.568,0.867h-1.134l-0.267-0.867l0.938,0.014c0.308,0,0.555-0.023,0.742-0.07
			c0.168-0.055,0.294-0.191,0.378-0.406c0.093-0.289,0.154-0.975,0.182-2.057h-3.738v4.242h4.761v0.854
			c-0.262,1.438-0.719,2.664-1.372,3.682c0.616,0.607,1.357,1.156,2.226,1.652l-0.504,0.854c-0.877-0.504-1.643-1.078-2.296-1.723
			c-0.616,0.719-1.34,1.299-2.17,1.736l-0.532-0.812c0.793-0.428,1.47-0.979,2.03-1.65c-0.896-1.092-1.498-2.324-1.806-3.697
			L546.853-25.599L546.853-25.599z M548.057-25.599c0.29,1.074,0.794,2.045,1.513,2.912c0.513-0.83,0.896-1.801,1.147-2.912H548.057
			z"/>
	</g>
	<g id="XMLID_280_">
		<g>
			<path class="st9" d="M485-12.667c-7.18,0-13-5.82-13-13c0-7.18,5.82-13,13-13c6.498,0,11.866,4.772,12.831,11h2.021
				c-0.98-7.336-7.247-13-14.851-13c-8.284,0-15,6.716-15,15s6.716,15,15,15c7.604,0,13.871-5.664,14.851-13h-2.021
				C496.866-17.439,491.498-12.667,485-12.667z M492-29.667l-7-4l-7,4v8l3.195,1.826c0.203-0.657,0.557-1.244,1.042-1.708
				L480-22.828v-3.697l5,2.857l5-2.857v3.697l-4.137,2.364c-0.262-0.126-0.552-0.203-0.863-0.203c-1.105,0-2,0.896-2,2s0.895,2,2,2
				s2-0.896,2-2c0-0.046-0.01-0.09-0.014-0.135L492-21.667V-29.667z M485-25.97l-4.719-2.697L485-31.364l4.719,2.697L485-25.97z"/>
		</g>
	</g>
</g>
<g class="st3">
	<rect x="442" y="-135.667" class="st4" width="177" height="50"/>
</g>
<rect x="440.5" y="-137.167" class="st10" width="176" height="49"/>
<g>
	<g>
		<path class="st0" d="M472-123.667c2.206,0,4,1.794,4,4s-1.794,4-4,4s-4-1.794-4-4S469.794-123.667,472-123.667 M472-125.667
			c-3.314,0-6,2.686-6,6s2.686,6,6,6s6-2.686,6-6S475.314-125.667,472-125.667L472-125.667z"/>
	</g>
	<g>
		<path class="st0" d="M476.004-109.667c3.306,0,5.996,2.69,5.996,5.996v1.004h-20v-1.004c0-3.306,2.69-5.996,5.996-5.996H476.004
			 M476.004-111.667h-8.007c-4.417,0-7.997,3.58-7.997,7.996v3.004h24v-3.004C484-108.087,480.42-111.667,476.004-111.667
			L476.004-111.667z"/>
	</g>
	<path class="st0" d="M484.998-111.667h-3.021c0.76,0.569,1.435,1.242,2.006,2h1.015c2.207,0,4.002,1.795,4.002,4.002v0.998h-3.05
		c0.033,0.328,0.05,0.66,0.05,0.996v1.004h5v-2.998C491-108.98,488.313-111.667,484.998-111.667z"/>
	<path class="st0" d="M481-124.667c-0.845,0-1.628,0.229-2.326,0.599c0.365,0.552,0.659,1.153,0.88,1.789
		c0.43-0.24,0.919-0.388,1.446-0.388c1.654,0,3,1.346,3,3s-1.346,3-3,3c-0.527,0-1.016-0.148-1.447-0.388
		c-0.221,0.636-0.514,1.237-0.88,1.789c0.699,0.37,1.482,0.599,2.327,0.599c2.761,0,5-2.239,5-5S483.761-124.667,481-124.667z"/>
</g>
<g class="st3">
	<rect x="691" y="-135.667" class="st4" width="177" height="50"/>
</g>
<g>
	<rect x="689.5" y="-137.167" class="st5" width="176" height="49"/>
	<path class="st6" d="M865-136.667v48H690v-48H865 M866-137.667H689v50h177V-137.667L866-137.667z"/>
</g>
<g>
	<g>
		<path class="st0" d="M721-123.667c2.206,0,4,1.794,4,4s-1.794,4-4,4s-4-1.794-4-4S718.794-123.667,721-123.667 M721-125.667
			c-3.314,0-6,2.686-6,6s2.686,6,6,6s6-2.686,6-6S724.314-125.667,721-125.667L721-125.667z"/>
	</g>
	<g>
		<path class="st0" d="M725.004-109.667c3.306,0,5.996,2.69,5.996,5.996v1.004h-20v-1.004c0-3.306,2.69-5.996,5.996-5.996H725.004
			 M725.004-111.667h-8.007c-4.417,0-7.997,3.58-7.997,7.996v3.004h24v-3.004C733-108.087,729.42-111.667,725.004-111.667
			L725.004-111.667z"/>
	</g>
	<path class="st0" d="M733.998-111.667h-3.021c0.76,0.569,1.435,1.242,2.006,2h1.015c2.207,0,4.002,1.795,4.002,4.002v0.998h-3.05
		c0.033,0.328,0.05,0.66,0.05,0.996v1.004h5v-2.998C740-108.98,737.313-111.667,733.998-111.667z"/>
	<path class="st0" d="M730-124.667c-0.845,0-1.628,0.229-2.326,0.599c0.365,0.552,0.659,1.153,0.88,1.789
		c0.43-0.24,0.919-0.388,1.446-0.388c1.654,0,3,1.346,3,3s-1.346,3-3,3c-0.527,0-1.016-0.148-1.447-0.388
		c-0.221,0.636-0.514,1.237-0.88,1.789c0.699,0.37,1.482,0.599,2.327,0.599c2.761,0,5-2.239,5-5S732.761-124.667,730-124.667z"/>
</g>
<g class="st3">
	<rect x="939" y="-135.667" class="st4" width="177" height="50"/>
</g>
<g>
	<rect x="937.5" y="-137.167" class="st5" width="176" height="49"/>
	<path class="st6" d="M1113-136.667v48H938v-48H1113 M1114-137.667H937v50h177V-137.667L1114-137.667z"/>
</g>
<g>
	<g>
		<path class="st0" d="M969-123.667c2.206,0,4,1.794,4,4s-1.794,4-4,4s-4-1.794-4-4S966.794-123.667,969-123.667 M969-125.667
			c-3.314,0-6,2.686-6,6s2.686,6,6,6s6-2.686,6-6S972.314-125.667,969-125.667L969-125.667z"/>
	</g>
	<g>
		<path class="st0" d="M973.004-109.667c3.306,0,5.996,2.69,5.996,5.996v1.004h-20v-1.004c0-3.306,2.69-5.996,5.996-5.996H973.004
			 M973.004-111.667h-8.007c-4.417,0-7.997,3.58-7.997,7.996v3.004h24v-3.004C981-108.087,977.42-111.667,973.004-111.667
			L973.004-111.667z"/>
	</g>
	<path class="st0" d="M981.998-111.667h-3.021c0.76,0.569,1.435,1.242,2.006,2h1.015c2.207,0,4.002,1.795,4.002,4.002v0.998h-3.05
		c0.033,0.328,0.05,0.66,0.05,0.996v1.004h5v-2.998C988-108.98,985.313-111.667,981.998-111.667z"/>
	<path class="st0" d="M978-124.667c-0.845,0-1.628,0.229-2.326,0.599c0.365,0.552,0.659,1.153,0.88,1.789
		c0.43-0.24,0.919-0.388,1.446-0.388c1.654,0,3,1.346,3,3s-1.346,3-3,3c-0.527,0-1.016-0.148-1.447-0.388
		c-0.221,0.636-0.514,1.237-0.88,1.789c0.699,0.37,1.482,0.599,2.327,0.599c2.761,0,5-2.239,5-5S980.761-124.667,978-124.667z"/>
</g>
<g>
	<g class="st3">
		<rect x="451" y="7.333" class="st4" width="157" height="50"/>
	</g>
	<g>
		<rect x="449.5" y="5.833" class="st5" width="156" height="49"/>
		<path class="st6" d="M605,6.333v48H450v-48H605 M606,5.333H449v50h157V5.333L606,5.333z"/>
	</g>
	<g>
		<path class="st8" d="M514.247,31.563c-0.56,1.793-1.144,3.402-1.75,4.83l-0.938-0.406c0.7-1.539,1.303-3.131,1.807-4.773
			L514.247,31.563z M512.315,27.489c0.84,0.672,1.53,1.316,2.071,1.934l-0.714,0.713c-0.541-0.662-1.223-1.324-2.044-1.988
			L512.315,27.489z M512.385,23.962c0.784,0.615,1.442,1.232,1.975,1.848l-0.714,0.715c-0.458-0.578-1.111-1.213-1.961-1.904
			L512.385,23.962z M515.605,26.915h-1.12V25.95h1.96c-0.149-0.682-0.351-1.381-0.603-2.1l1.008-0.184
			c0.215,0.682,0.411,1.443,0.589,2.283h1.609v0.965h-2.464v0.953c0,0.252-0.01,0.621-0.028,1.105h2.269
			c0,3.23-0.065,5.246-0.196,6.049c-0.084,0.887-0.518,1.33-1.302,1.33l-1.022-0.057l-0.237-0.854
			c0.578,0.018,0.956,0.027,1.134,0.027c0.28,0,0.448-0.271,0.504-0.812c0.103-0.521,0.158-2.09,0.168-4.703h-1.372
			c-0.224,2.93-0.85,5.129-1.876,6.594l-0.742-0.658c1.12-1.67,1.694-4.344,1.723-8.021v-0.952
			C515.607,26.915,515.605,26.915,515.605,26.915z M520.575,26.706c-0.374,0.896-0.821,1.652-1.344,2.268l-0.631-0.77
			c0.868-1.121,1.456-2.637,1.765-4.551l1.008,0.168c-0.112,0.617-0.262,1.238-0.448,1.863h3.473v1.021L520.575,26.706
			L520.575,26.706z M520.169,28.19h3.794v0.91c-0.43,0.568-0.915,1.129-1.456,1.68v0.867h1.946v0.91h-1.946v2.506
			c0,0.887-0.354,1.33-1.063,1.33h-1.246l-0.238-0.924c0.448,0.02,0.826,0.027,1.134,0.027c0.289,0,0.435-0.256,0.435-0.77v-2.17
			h-2.143v-0.91h2.143v-1.008c0.569-0.625,1.003-1.139,1.302-1.539h-2.66V28.19H520.169z"/>
		<path class="st8" d="M526.791,27.421c0.831,0.887,1.577,1.75,2.24,2.59c0.448-1.205,0.742-2.512,0.882-3.92h-3.724v-0.994h4.689
			v0.924c-0.121,1.82-0.495,3.463-1.12,4.928c0.645,0.85,1.204,1.656,1.681,2.422l-0.729,0.713
			c-0.448-0.746-0.924-1.451-1.428-2.113c-0.784,1.447-1.811,2.684-3.08,3.711l-0.645-0.785c1.298-1.102,2.306-2.385,3.024-3.85
			c-0.84-1.055-1.676-2.029-2.506-2.926L526.791,27.421z M537.795,27.042l0.154,0.967l-3.794,0.615
			c0.046,0.607,0.126,1.219,0.237,1.834c0.112,0.578,0.248,1.172,0.406,1.777c0.756-0.867,1.428-1.889,2.017-3.064l0.825,0.545
			c-0.783,1.447-1.614,2.646-2.491,3.598c0.111,0.309,0.214,0.561,0.308,0.756c0.448,0.822,0.845,1.236,1.19,1.246
			c0.242-0.055,0.476-0.887,0.699-2.492l0.868,0.561c-0.196,0.822-0.396,1.504-0.602,2.045c-0.28,0.672-0.584,1.008-0.91,1.008
			c-0.569,0-1.134-0.449-1.694-1.344c-0.224-0.373-0.41-0.738-0.56-1.094c-0.924,0.842-1.899,1.461-2.926,1.863l-0.616-0.826
			c1.185-0.477,2.24-1.158,3.164-2.045c-0.206-0.568-0.374-1.18-0.504-1.834c-0.159-0.643-0.29-1.436-0.393-2.379l-1.777,0.293
			l-0.154-0.965l1.848-0.309c-0.103-1.25-0.153-2.594-0.153-4.031h1.008c0,1.438,0.042,2.729,0.126,3.877L537.795,27.042z
			 M535.737,24.144c0.681,0.738,1.181,1.35,1.498,1.834l-0.84,0.574c-0.374-0.588-0.868-1.219-1.484-1.891L535.737,24.144z"/>
		<path class="st8" d="M542.009,23.794h1.036v2.436h2.87c0,4.584-0.07,7.416-0.21,8.498c-0.14,1.158-0.836,1.736-2.086,1.736
			l-1.064-0.057l-0.252-0.924c0.598,0.037,0.989,0.057,1.177,0.057c0.736,0,1.161-0.4,1.273-1.203
			c0.084-0.785,0.14-3.16,0.168-7.127h-1.876v0.266c-0.047,4.191-0.961,7.258-2.744,9.199l-0.812-0.729
			c1.651-1.746,2.492-4.568,2.52-8.471v-0.266h-2.226v-0.98h2.226L542.009,23.794L542.009,23.794z M551.697,25.517V36.38h-0.98
			v-0.924h-2.52v0.924h-0.98V25.517H551.697z M548.197,34.476h2.52v-7.98h-2.52V34.476z"/>
		<path class="st8" d="M562.925,36.339c-0.476,0-1.312-0.01-2.506-0.029c-0.905-0.018-1.638-0.102-2.198-0.252
			c-0.541-0.158-1.036-0.5-1.483-1.021c-0.196-0.232-0.378-0.35-0.546-0.35c-0.336,0-0.883,0.643-1.639,1.932l-0.756-0.686
			c0.729-1.168,1.377-1.881,1.946-2.143v-4.256h-1.988V28.61h2.926v5.236c0.121,0.092,0.238,0.199,0.351,0.32
			c0.336,0.402,0.7,0.697,1.092,0.883c0.438,0.195,1.073,0.309,1.904,0.336c0.989,0.02,1.908,0.027,2.758,0.027
			c0.429,0,1.101-0.008,2.016-0.027c0.766-0.02,1.288-0.037,1.568-0.057l-0.238,1.01L562.925,36.339L562.925,36.339L562.925,36.339z
			 M554.763,23.976c0.971,0.729,1.783,1.457,2.437,2.184l-0.714,0.701c-0.598-0.709-1.4-1.451-2.408-2.227L554.763,23.976z
			 M557.969,24.899h3.557v-1.133h0.938v1.133h3.542v0.924h-3.542v1.162h3.024v3.57h-3.024v4.326h-0.938v-3.92
			c-0.719,1.27-1.825,2.344-3.318,3.221l-0.63-0.799c1.549-0.803,2.65-1.744,3.304-2.828h-2.38v-3.57h3.024v-1.162h-3.557V24.899z
			 M561.525,29.659v-1.791h-2.086v1.791H561.525z M564.563,29.659v-1.791h-2.101v1.791H564.563z M563.569,31.005
			c0.952,0.756,1.772,1.539,2.464,2.352l-0.672,0.658c-0.569-0.738-1.387-1.535-2.45-2.395L563.569,31.005z"/>
		<path class="st8" d="M569.337,27.237c-0.317,0.375-0.709,0.775-1.176,1.205l-0.574-0.785c1.241-1.109,2.17-2.426,2.786-3.947
			l0.938,0.238c-0.111,0.289-0.271,0.652-0.476,1.092h3.024c-0.233-0.504-0.439-0.906-0.616-1.203l1.036-0.17
			c0.168,0.355,0.354,0.812,0.56,1.373h4.522v0.84h-4.452v0.951h3.934v0.785h-3.934v0.924h3.934v0.783h-3.934v0.994h4.718v0.855
			h-10.29V27.237L569.337,27.237z M567.965,33.188v-0.91h5.572v-0.729h1.008v0.729h5.488v0.91h-4.242
			c0.961,0.904,2.427,1.623,4.396,2.156l-0.435,0.881c-2.314-0.783-3.962-1.797-4.942-3.037h-0.266v3.416h-1.008v-3.416h-0.28
			c-0.887,1.193-2.52,2.225-4.899,3.094l-0.532-0.869c2.146-0.652,3.635-1.395,4.466-2.225L567.965,33.188L567.965,33.188z
			 M573.915,26.831V25.88h-3.57l-0.069,0.111v0.84H573.915L573.915,26.831z M573.915,28.54v-0.924h-3.64v0.924H573.915z
			 M573.915,30.317v-0.994h-3.64v0.994H573.915z"/>
		<path class="st8" d="M587.047,30.136h-2.87c-0.121,0.477-0.261,0.93-0.42,1.357h3.668v4.984h-0.896v-0.812h-2.212v0.842h-0.896
			v-4.188c-0.392,0.84-0.845,1.545-1.357,2.115l-0.532-0.84c0.774-0.869,1.349-2.021,1.722-3.459h-1.092v-0.867h1.302
			c0.103-0.551,0.183-1.078,0.238-1.582h-1.876V26.79h1.96c0.037-0.709,0.061-1.25,0.07-1.625h-1.61v-0.867h4.802v2.492h0.784v0.896
			h-0.784v2.45C587.048,30.136,587.047,30.136,587.047,30.136z M584.317,34.771h2.212v-2.354h-2.212V34.771z M584.611,27.687
			c-0.047,0.41-0.126,0.938-0.238,1.582h1.75v-1.582H584.611z M584.765,25.165c-0.009,0.412-0.032,0.953-0.069,1.625h1.428v-1.625
			H584.765z M590.729,27.392h-2.507v-0.965h1.652c-0.401-0.85-0.798-1.598-1.19-2.24l0.854-0.406c0.42,0.672,0.821,1.418,1.204,2.24
			l-0.84,0.406h1.582c0.41-0.879,0.761-1.793,1.05-2.744l0.952,0.336c-0.28,0.857-0.611,1.66-0.994,2.408h1.554v0.965h-2.324v2.031
			h2.03v0.938h-2.03v2.029h2.633v0.967h-2.633v3.219h-0.993v-3.219h-2.604V32.39h2.604v-2.029h-2.171v-0.938h2.171V27.392
			L590.729,27.392z"/>
	</g>
	<g id="XMLID_342_">
		<g>
			<path class="st9" d="M485,43.333c-7.18,0-13-5.82-13-13s5.82-13,13-13c6.498,0,11.866,4.772,12.831,11h2.021
				c-0.98-7.336-7.247-13-14.851-13c-8.284,0-15,6.716-15,15s6.716,15,15,15c7.604,0,13.871-5.664,14.851-13h-2.021
				C496.866,38.561,491.498,43.333,485,43.333z M492,26.333l-7-4l-7,4v8l3.195,1.826c0.203-0.657,0.557-1.244,1.042-1.708
				L480,33.172v-3.697l5,2.857l5-2.857v3.697l-4.137,2.364c-0.262-0.126-0.552-0.203-0.863-0.203c-1.105,0-2,0.896-2,2
				c0,1.104,0.895,2,2,2s2-0.896,2-2c0-0.046-0.01-0.09-0.014-0.135L492,34.333V26.333z M485,30.03l-4.719-2.697L485,24.636
				l4.719,2.697L485,30.03z"/>
		</g>
	</g>
</g>
<g>
	<rect x="689" y="-80.667" class="st2" width="179" height="146"/>
</g>
<g>
	<rect x="939" y="-80.667" class="st2" width="179" height="146"/>
</g>
<g>
	<polygon class="st0" points="774,160.333 779,165.333 784,160.333 	"/>
	<line class="st1" x1="779" y1="136.333" x2="779" y2="160.333"/>
</g>
<line class="st1" x1="528.5" y1="151.333" x2="528.5" y2="136.333"/>
<line class="st1" x1="1035" y1="151.333" x2="1035" y2="136.333"/>
<line class="st1" x1="527.992" y1="151.331" x2="1035.992" y2="151.331"/>
<g>
	<g class="st3">
		<rect x="700" y="-48.667" class="st4" width="157" height="50"/>
	</g>
	<g>
		<rect x="698.5" y="-50.167" class="st5" width="156" height="49"/>
		<path class="st6" d="M854-49.667v48H699v-48H854 M855-50.667H698v50h157V-50.667L855-50.667z"/>
	</g>
	<g>
		<path class="st8" d="M761.049-19.536l-0.21-0.98c0.504,0.037,0.868,0.057,1.092,0.057c0.364,0,0.546-0.201,0.546-0.602v-3.389
			c-0.373,0.15-0.951,0.355-1.735,0.615l-0.252-1.008c0.635-0.158,1.297-0.363,1.987-0.615v-3.137h-1.708v-0.965h1.708v-2.646h1.036
			v2.646h1.162v0.965h-1.162v2.703c0.364-0.178,0.766-0.383,1.204-0.617v1.023c-0.364,0.195-0.766,0.391-1.204,0.588v4.088
			c0,0.85-0.41,1.273-1.231,1.273L761.049-19.536L761.049-19.536z M768.987-26.341c-0.141,0.375-0.294,0.738-0.462,1.092h4.802v0.98
			h-1.54c-0.215,1.047-0.648,1.924-1.302,2.633c0.979,0.457,1.898,0.934,2.758,1.428l-0.546,0.812
			c-0.84-0.514-1.815-1.037-2.926-1.568c-0.943,0.682-2.413,1.219-4.41,1.609l-0.393-0.91c1.652-0.299,2.903-0.695,3.752-1.189
			c-0.728-0.336-1.643-0.723-2.744-1.162c0.393-0.598,0.729-1.148,1.009-1.652h-1.876v-0.98h2.394
			c0.187-0.41,0.359-0.811,0.519-1.203L768.987-26.341z M767.405-29.882c0.336,0.588,0.667,1.279,0.994,2.072h1.372
			c0.363-0.654,0.694-1.396,0.993-2.227l0.952,0.336c-0.261,0.699-0.556,1.33-0.882,1.891h2.268v0.965h-7.812v-0.965h2.142
			c-0.299-0.654-0.583-1.213-0.854-1.68L767.405-29.882z M769.253-32.333c0.149,0.375,0.304,0.818,0.462,1.33h3.136v0.926h-7.237
			v-0.926h3.08c-0.149-0.4-0.313-0.787-0.49-1.16L769.253-32.333z M768.007-24.269c-0.271,0.457-0.537,0.873-0.798,1.246
			c0.812,0.309,1.596,0.631,2.352,0.967c0.626-0.588,1.051-1.326,1.274-2.213C770.835-24.269,768.007-24.269,768.007-24.269z"/>
		<path class="st8" d="M778.073-31.716l0.84-0.533c1.232,0.859,2.286,2.432,3.164,4.719c1.315,3.352,3.075,5.717,5.278,7.098
			l-0.631,0.812c-2.259-1.363-4.111-3.9-5.558-7.615c-0.121-0.336-0.196-0.533-0.224-0.588c-0.925,3.574-2.856,6.312-5.796,8.217
			l-0.603-0.854c2.996-1.961,4.942-4.807,5.838-8.541C779.748-30.157,778.979-31.063,778.073-31.716z"/>
		<path class="st8" d="M790.533-24.212c-0.084,1.951-0.416,3.561-0.994,4.83l-0.756-0.701c0.551-1.25,0.835-2.863,0.854-4.844
			v-6.719h4.088v10.906c0,0.857-0.392,1.287-1.176,1.287h-1.12l-0.237-0.896c0.522,0.037,0.882,0.057,1.077,0.057
			c0.355,0,0.532-0.258,0.532-0.77v-3.15L790.533-24.212L790.533-24.212z M792.801-28.37v-2.365h-2.254v2.365H792.801z
			 M790.547-27.46v2.338h2.254v-2.338H790.547z M795.853-25.599v6.203h-0.951V-31.66h5.67c0,1.734-0.084,2.883-0.252,3.443
			c-0.168,0.578-0.691,0.867-1.568,0.867h-1.134l-0.267-0.867l0.938,0.014c0.308,0,0.555-0.023,0.742-0.07
			c0.168-0.055,0.294-0.191,0.378-0.406c0.093-0.289,0.154-0.975,0.182-2.057h-3.738v4.242h4.761v0.854
			c-0.262,1.438-0.719,2.664-1.372,3.682c0.616,0.607,1.357,1.156,2.226,1.652l-0.504,0.854c-0.877-0.504-1.643-1.078-2.296-1.723
			c-0.616,0.719-1.34,1.299-2.17,1.736l-0.532-0.812c0.793-0.428,1.47-0.979,2.03-1.65c-0.896-1.092-1.498-2.324-1.806-3.697
			L795.853-25.599L795.853-25.599z M797.057-25.599c0.29,1.074,0.794,2.045,1.513,2.912c0.513-0.83,0.896-1.801,1.147-2.912H797.057
			z"/>
	</g>
	<g id="XMLID_535_">
		<g>
			<path class="st9" d="M734-12.667c-7.18,0-13-5.82-13-13c0-7.18,5.82-13,13-13c6.498,0,11.866,4.772,12.831,11h2.021
				c-0.98-7.336-7.247-13-14.851-13c-8.284,0-15,6.716-15,15s6.716,15,15,15c7.604,0,13.871-5.664,14.851-13h-2.021
				C745.866-17.439,740.498-12.667,734-12.667z M741-29.667l-7-4l-7,4v8l3.195,1.826c0.203-0.657,0.557-1.244,1.042-1.708
				L729-22.828v-3.697l5,2.857l5-2.857v3.697l-4.137,2.364c-0.262-0.126-0.552-0.203-0.863-0.203c-1.105,0-2,0.896-2,2s0.895,2,2,2
				s2-0.896,2-2c0-0.046-0.01-0.09-0.014-0.135L741-21.667V-29.667z M734-25.97l-4.719-2.697L734-31.364l4.719,2.697L734-25.97z"/>
		</g>
	</g>
</g>
<g>
	<g class="st3">
		<rect x="700" y="7.333" class="st4" width="157" height="50"/>
	</g>
	<g>
		<rect x="698.5" y="5.833" class="st5" width="156" height="49"/>
		<path class="st6" d="M854,6.333v48H699v-48H854 M855,5.333H698v50h157V5.333L855,5.333z"/>
	</g>
	<g>
		<path class="st8" d="M763.247,31.563c-0.56,1.793-1.144,3.402-1.75,4.83l-0.938-0.406c0.7-1.539,1.303-3.131,1.807-4.773
			L763.247,31.563z M761.315,27.489c0.84,0.672,1.53,1.316,2.071,1.934l-0.714,0.713c-0.541-0.662-1.223-1.324-2.044-1.988
			L761.315,27.489z M761.385,23.962c0.784,0.615,1.442,1.232,1.975,1.848l-0.714,0.715c-0.458-0.578-1.111-1.213-1.961-1.904
			L761.385,23.962z M764.605,26.915h-1.12V25.95h1.96c-0.149-0.682-0.351-1.381-0.603-2.1l1.008-0.184
			c0.215,0.682,0.411,1.443,0.589,2.283h1.609v0.965h-2.464v0.953c0,0.252-0.01,0.621-0.028,1.105h2.269
			c0,3.23-0.065,5.246-0.196,6.049c-0.084,0.887-0.518,1.33-1.302,1.33l-1.022-0.057l-0.237-0.854
			c0.578,0.018,0.956,0.027,1.134,0.027c0.28,0,0.448-0.271,0.504-0.812c0.103-0.521,0.158-2.09,0.168-4.703h-1.372
			c-0.224,2.93-0.85,5.129-1.876,6.594l-0.742-0.658c1.12-1.67,1.694-4.344,1.723-8.021v-0.952
			C764.607,26.915,764.605,26.915,764.605,26.915z M769.575,26.706c-0.374,0.896-0.821,1.652-1.344,2.268l-0.631-0.77
			c0.868-1.121,1.456-2.637,1.765-4.551l1.008,0.168c-0.112,0.617-0.262,1.238-0.448,1.863h3.473v1.021L769.575,26.706
			L769.575,26.706z M769.169,28.19h3.794v0.91c-0.43,0.568-0.915,1.129-1.456,1.68v0.867h1.946v0.91h-1.946v2.506
			c0,0.887-0.354,1.33-1.063,1.33h-1.246l-0.238-0.924c0.448,0.02,0.826,0.027,1.134,0.027c0.289,0,0.435-0.256,0.435-0.77v-2.17
			h-2.143v-0.91h2.143v-1.008c0.569-0.625,1.003-1.139,1.302-1.539h-2.66V28.19H769.169z"/>
		<path class="st8" d="M775.791,27.421c0.831,0.887,1.577,1.75,2.24,2.59c0.448-1.205,0.742-2.512,0.882-3.92h-3.724v-0.994h4.689
			v0.924c-0.121,1.82-0.495,3.463-1.12,4.928c0.645,0.85,1.204,1.656,1.681,2.422l-0.729,0.713
			c-0.448-0.746-0.924-1.451-1.428-2.113c-0.784,1.447-1.811,2.684-3.08,3.711l-0.645-0.785c1.298-1.102,2.306-2.385,3.024-3.85
			c-0.84-1.055-1.676-2.029-2.506-2.926L775.791,27.421z M786.795,27.042l0.154,0.967l-3.794,0.615
			c0.046,0.607,0.126,1.219,0.237,1.834c0.112,0.578,0.248,1.172,0.406,1.777c0.756-0.867,1.428-1.889,2.017-3.064l0.825,0.545
			c-0.783,1.447-1.614,2.646-2.491,3.598c0.111,0.309,0.214,0.561,0.308,0.756c0.448,0.822,0.845,1.236,1.19,1.246
			c0.242-0.055,0.476-0.887,0.699-2.492l0.868,0.561c-0.196,0.822-0.396,1.504-0.602,2.045c-0.28,0.672-0.584,1.008-0.91,1.008
			c-0.569,0-1.134-0.449-1.694-1.344c-0.224-0.373-0.41-0.738-0.56-1.094c-0.924,0.842-1.899,1.461-2.926,1.863l-0.616-0.826
			c1.185-0.477,2.24-1.158,3.164-2.045c-0.206-0.568-0.374-1.18-0.504-1.834c-0.159-0.643-0.29-1.436-0.393-2.379l-1.777,0.293
			l-0.154-0.965l1.848-0.309c-0.103-1.25-0.153-2.594-0.153-4.031h1.008c0,1.438,0.042,2.729,0.126,3.877L786.795,27.042z
			 M784.737,24.144c0.681,0.738,1.181,1.35,1.498,1.834l-0.84,0.574c-0.374-0.588-0.868-1.219-1.484-1.891L784.737,24.144z"/>
		<path class="st8" d="M791.009,23.794h1.036v2.436h2.87c0,4.584-0.07,7.416-0.21,8.498c-0.14,1.158-0.836,1.736-2.086,1.736
			l-1.064-0.057l-0.252-0.924c0.598,0.037,0.989,0.057,1.177,0.057c0.736,0,1.161-0.4,1.273-1.203
			c0.084-0.785,0.14-3.16,0.168-7.127h-1.876v0.266c-0.047,4.191-0.961,7.258-2.744,9.199l-0.812-0.729
			c1.651-1.746,2.492-4.568,2.52-8.471v-0.266h-2.226v-0.98h2.226V23.794z M800.697,25.517V36.38h-0.98v-0.924h-2.52v0.924h-0.98
			V25.517H800.697z M797.197,34.476h2.52v-7.98h-2.52V34.476z"/>
		<path class="st8" d="M811.925,36.339c-0.476,0-1.312-0.01-2.506-0.029c-0.905-0.018-1.638-0.102-2.198-0.252
			c-0.541-0.158-1.036-0.5-1.483-1.021c-0.196-0.232-0.378-0.35-0.546-0.35c-0.336,0-0.883,0.643-1.639,1.932l-0.756-0.686
			c0.729-1.168,1.377-1.881,1.946-2.143v-4.256h-1.988V28.61h2.926v5.236c0.121,0.092,0.238,0.199,0.351,0.32
			c0.336,0.402,0.7,0.697,1.092,0.883c0.438,0.195,1.073,0.309,1.904,0.336c0.989,0.02,1.908,0.027,2.758,0.027
			c0.429,0,1.101-0.008,2.016-0.027c0.766-0.02,1.288-0.037,1.568-0.057l-0.238,1.01L811.925,36.339L811.925,36.339L811.925,36.339z
			 M803.763,23.976c0.971,0.729,1.783,1.457,2.437,2.184l-0.714,0.701c-0.598-0.709-1.4-1.451-2.408-2.227L803.763,23.976z
			 M806.969,24.899h3.557v-1.133h0.938v1.133h3.542v0.924h-3.542v1.162h3.024v3.57h-3.024v4.326h-0.938v-3.92
			c-0.719,1.27-1.825,2.344-3.318,3.221l-0.63-0.799c1.549-0.803,2.65-1.744,3.304-2.828h-2.38v-3.57h3.024v-1.162h-3.557V24.899
			L806.969,24.899z M810.525,29.659v-1.791h-2.086v1.791H810.525z M813.563,29.659v-1.791h-2.101v1.791H813.563z M812.569,31.005
			c0.952,0.756,1.772,1.539,2.464,2.352l-0.672,0.658c-0.569-0.738-1.387-1.535-2.45-2.395L812.569,31.005z"/>
		<path class="st8" d="M818.337,27.237c-0.317,0.375-0.709,0.775-1.176,1.205l-0.574-0.785c1.241-1.109,2.17-2.426,2.786-3.947
			l0.938,0.238c-0.111,0.289-0.271,0.652-0.476,1.092h3.024c-0.233-0.504-0.439-0.906-0.616-1.203l1.036-0.17
			c0.168,0.355,0.354,0.812,0.56,1.373h4.522v0.84h-4.452v0.951h3.934v0.785h-3.934v0.924h3.934v0.783h-3.934v0.994h4.718v0.855
			h-10.29L818.337,27.237L818.337,27.237z M816.965,33.188v-0.91h5.572v-0.729h1.008v0.729h5.488v0.91h-4.242
			c0.961,0.904,2.427,1.623,4.396,2.156l-0.435,0.881c-2.314-0.783-3.962-1.797-4.942-3.037h-0.266v3.416h-1.008v-3.416h-0.28
			c-0.887,1.193-2.52,2.225-4.899,3.094l-0.532-0.869c2.146-0.652,3.635-1.395,4.466-2.225L816.965,33.188L816.965,33.188z
			 M822.915,26.831V25.88h-3.57l-0.069,0.111v0.84H822.915L822.915,26.831z M822.915,28.54v-0.924h-3.64v0.924H822.915z
			 M822.915,30.317v-0.994h-3.64v0.994H822.915z"/>
		<path class="st8" d="M836.047,30.136h-2.87c-0.121,0.477-0.261,0.93-0.42,1.357h3.668v4.984h-0.896v-0.812h-2.212v0.842h-0.896
			v-4.188c-0.392,0.84-0.845,1.545-1.357,2.115l-0.532-0.84c0.774-0.869,1.349-2.021,1.722-3.459h-1.092v-0.867h1.302
			c0.103-0.551,0.183-1.078,0.238-1.582h-1.876V26.79h1.96c0.037-0.709,0.061-1.25,0.07-1.625h-1.61v-0.867h4.802v2.492h0.784v0.896
			h-0.784L836.047,30.136L836.047,30.136z M833.317,34.771h2.212v-2.354h-2.212V34.771z M833.611,27.687
			c-0.047,0.41-0.126,0.938-0.238,1.582h1.75v-1.582H833.611z M833.765,25.165c-0.009,0.412-0.032,0.953-0.069,1.625h1.428v-1.625
			H833.765z M839.729,27.392h-2.507v-0.965h1.652c-0.401-0.85-0.798-1.598-1.19-2.24l0.854-0.406c0.42,0.672,0.821,1.418,1.204,2.24
			l-0.84,0.406h1.582c0.41-0.879,0.761-1.793,1.05-2.744l0.952,0.336c-0.28,0.857-0.611,1.66-0.994,2.408h1.554v0.965h-2.324v2.031
			h2.03v0.938h-2.03v2.029h2.633v0.967h-2.633v3.219h-0.993v-3.219h-2.604V32.39h2.604v-2.029h-2.171v-0.938h2.171V27.392z"/>
	</g>
	<g id="XMLID_91_">
		<g>
			<path class="st9" d="M734,43.333c-7.18,0-13-5.82-13-13s5.82-13,13-13c6.498,0,11.866,4.772,12.831,11h2.021
				c-0.98-7.336-7.247-13-14.851-13c-8.284,0-15,6.716-15,15s6.716,15,15,15c7.604,0,13.871-5.664,14.851-13h-2.021
				C745.866,38.561,740.498,43.333,734,43.333z M741,26.333l-7-4l-7,4v8l3.195,1.826c0.203-0.657,0.557-1.244,1.042-1.708
				L729,33.172v-3.697l5,2.857l5-2.857v3.697l-4.137,2.364c-0.262-0.126-0.552-0.203-0.863-0.203c-1.105,0-2,0.896-2,2
				c0,1.104,0.895,2,2,2s2-0.896,2-2c0-0.046-0.01-0.09-0.014-0.135L741,34.333V26.333z M734,30.03l-4.719-2.697L734,24.636
				l4.719,2.697L734,30.03z"/>
		</g>
	</g>
</g>
<g>
	<g class="st3">
		<rect x="951" y="-48.667" class="st4" width="157" height="50"/>
	</g>
	<g>
		<rect x="949.5" y="-50.167" class="st5" width="156" height="49"/>
		<path class="st6" d="M1105-49.667v48H950v-48H1105 M1106-50.667H949v50h157V-50.667L1106-50.667z"/>
	</g>
	<g>
		<path class="st8" d="M1012.049-19.536l-0.21-0.98c0.504,0.037,0.868,0.057,1.092,0.057c0.364,0,0.546-0.201,0.546-0.602v-3.389
			c-0.373,0.15-0.951,0.355-1.735,0.615l-0.252-1.008c0.635-0.158,1.297-0.363,1.987-0.615v-3.137h-1.708v-0.965h1.708v-2.646h1.036
			v2.646h1.162v0.965h-1.162v2.703c0.364-0.178,0.766-0.383,1.204-0.617v1.023c-0.364,0.195-0.766,0.391-1.204,0.588v4.088
			c0,0.85-0.41,1.273-1.231,1.273L1012.049-19.536L1012.049-19.536z M1019.987-26.341c-0.141,0.375-0.294,0.738-0.462,1.092h4.802
			v0.98h-1.54c-0.215,1.047-0.648,1.924-1.302,2.633c0.979,0.457,1.898,0.934,2.758,1.428l-0.546,0.812
			c-0.84-0.514-1.815-1.037-2.926-1.568c-0.943,0.682-2.413,1.219-4.41,1.609l-0.393-0.91c1.652-0.299,2.903-0.695,3.752-1.189
			c-0.728-0.336-1.643-0.723-2.744-1.162c0.393-0.598,0.729-1.148,1.009-1.652h-1.876v-0.98h2.394
			c0.187-0.41,0.359-0.811,0.519-1.203L1019.987-26.341z M1018.405-29.882c0.336,0.588,0.667,1.279,0.994,2.072h1.372
			c0.363-0.654,0.694-1.396,0.993-2.227l0.952,0.336c-0.261,0.699-0.556,1.33-0.882,1.891h2.268v0.965h-7.812v-0.965h2.142
			c-0.299-0.654-0.583-1.213-0.854-1.68L1018.405-29.882z M1020.253-32.333c0.149,0.375,0.304,0.818,0.462,1.33h3.136v0.926h-7.237
			v-0.926h3.08c-0.149-0.4-0.313-0.787-0.49-1.16L1020.253-32.333z M1019.007-24.269c-0.271,0.457-0.537,0.873-0.798,1.246
			c0.812,0.309,1.596,0.631,2.352,0.967c0.626-0.588,1.051-1.326,1.274-2.213C1021.835-24.269,1019.007-24.269,1019.007-24.269z"/>
		<path class="st8" d="M1029.073-31.716l0.84-0.533c1.232,0.859,2.286,2.432,3.164,4.719c1.315,3.352,3.075,5.717,5.278,7.098
			l-0.631,0.812c-2.259-1.363-4.111-3.9-5.558-7.615c-0.121-0.336-0.196-0.533-0.224-0.588c-0.925,3.574-2.856,6.312-5.796,8.217
			l-0.603-0.854c2.996-1.961,4.942-4.807,5.838-8.541C1030.748-30.157,1029.979-31.063,1029.073-31.716z"/>
		<path class="st8" d="M1041.533-24.212c-0.084,1.951-0.416,3.561-0.994,4.83l-0.756-0.701c0.551-1.25,0.835-2.863,0.854-4.844
			v-6.719h4.088v10.906c0,0.857-0.392,1.287-1.176,1.287h-1.12l-0.237-0.896c0.522,0.037,0.882,0.057,1.077,0.057
			c0.355,0,0.532-0.258,0.532-0.77v-3.15L1041.533-24.212L1041.533-24.212z M1043.801-28.37v-2.365h-2.254v2.365H1043.801z
			 M1041.547-27.46v2.338h2.254v-2.338H1041.547z M1046.853-25.599v6.203h-0.951V-31.66h5.67c0,1.734-0.084,2.883-0.252,3.443
			c-0.168,0.578-0.691,0.867-1.568,0.867h-1.134l-0.267-0.867l0.938,0.014c0.308,0,0.555-0.023,0.742-0.07
			c0.168-0.055,0.294-0.191,0.378-0.406c0.093-0.289,0.154-0.975,0.182-2.057h-3.738v4.242h4.761v0.854
			c-0.262,1.438-0.719,2.664-1.372,3.682c0.616,0.607,1.357,1.156,2.226,1.652l-0.504,0.854c-0.877-0.504-1.643-1.078-2.296-1.723
			c-0.616,0.719-1.34,1.299-2.17,1.736l-0.532-0.812c0.793-0.428,1.47-0.979,2.03-1.65c-0.896-1.092-1.498-2.324-1.806-3.697
			L1046.853-25.599L1046.853-25.599z M1048.057-25.599c0.29,1.074,0.794,2.045,1.513,2.912c0.513-0.83,0.896-1.801,1.147-2.912
			H1048.057z"/>
	</g>
	<g id="XMLID_585_">
		<g>
			<path class="st9" d="M985-12.667c-7.18,0-13-5.82-13-13c0-7.18,5.82-13,13-13c6.498,0,11.866,4.772,12.831,11h2.021
				c-0.98-7.336-7.247-13-14.851-13c-8.284,0-15,6.716-15,15s6.716,15,15,15c7.604,0,13.871-5.664,14.851-13h-2.021
				C996.866-17.439,991.498-12.667,985-12.667z M992-29.667l-7-4l-7,4v8l3.195,1.826c0.203-0.657,0.557-1.244,1.042-1.708
				L980-22.828v-3.697l5,2.857l5-2.857v3.697l-4.137,2.364c-0.262-0.126-0.552-0.203-0.863-0.203c-1.105,0-2,0.896-2,2s0.895,2,2,2
				s2-0.896,2-2c0-0.046-0.01-0.09-0.014-0.135L992-21.667V-29.667z M985-25.97l-4.719-2.697L985-31.364l4.719,2.697L985-25.97z"/>
		</g>
	</g>
</g>
<g>
	<g class="st3">
		<rect x="951" y="7.333" class="st4" width="157" height="50"/>
	</g>
	<g>
		<rect x="949.5" y="5.833" class="st5" width="156" height="49"/>
		<path class="st6" d="M1105,6.333v48H950v-48H1105 M1106,5.333H949v50h157V5.333L1106,5.333z"/>
	</g>
	<g>
		<path class="st8" d="M1014.247,31.563c-0.56,1.793-1.144,3.402-1.75,4.83l-0.938-0.406c0.7-1.539,1.303-3.131,1.807-4.773
			L1014.247,31.563z M1012.315,27.489c0.84,0.672,1.53,1.316,2.071,1.934l-0.714,0.713c-0.541-0.662-1.223-1.324-2.044-1.988
			L1012.315,27.489z M1012.385,23.962c0.784,0.615,1.442,1.232,1.975,1.848l-0.714,0.715c-0.458-0.578-1.111-1.213-1.961-1.904
			L1012.385,23.962z M1015.605,26.915h-1.12V25.95h1.96c-0.149-0.682-0.351-1.381-0.603-2.1l1.008-0.184
			c0.215,0.682,0.411,1.443,0.589,2.283h1.609v0.965h-2.464v0.953c0,0.252-0.01,0.621-0.028,1.105h2.269
			c0,3.23-0.065,5.246-0.196,6.049c-0.084,0.887-0.518,1.33-1.302,1.33l-1.022-0.057l-0.237-0.854
			c0.578,0.018,0.956,0.027,1.134,0.027c0.28,0,0.448-0.271,0.504-0.812c0.103-0.521,0.158-2.09,0.168-4.703h-1.372
			c-0.224,2.93-0.85,5.129-1.876,6.594l-0.742-0.658c1.12-1.67,1.694-4.344,1.723-8.021v-0.952
			C1015.607,26.915,1015.605,26.915,1015.605,26.915z M1020.575,26.706c-0.374,0.896-0.821,1.652-1.344,2.268l-0.631-0.77
			c0.868-1.121,1.456-2.637,1.765-4.551l1.008,0.168c-0.112,0.617-0.262,1.238-0.448,1.863h3.473v1.021L1020.575,26.706
			L1020.575,26.706z M1020.169,28.19h3.794v0.91c-0.43,0.568-0.915,1.129-1.456,1.68v0.867h1.946v0.91h-1.946v2.506
			c0,0.887-0.354,1.33-1.063,1.33h-1.246l-0.238-0.924c0.448,0.02,0.826,0.027,1.134,0.027c0.289,0,0.435-0.256,0.435-0.77v-2.17
			h-2.143v-0.91h2.143v-1.008c0.569-0.625,1.003-1.139,1.302-1.539h-2.66V28.19H1020.169z"/>
		<path class="st8" d="M1026.791,27.421c0.831,0.887,1.577,1.75,2.24,2.59c0.448-1.205,0.742-2.512,0.882-3.92h-3.724v-0.994h4.689
			v0.924c-0.121,1.82-0.495,3.463-1.12,4.928c0.645,0.85,1.204,1.656,1.681,2.422l-0.729,0.713
			c-0.448-0.746-0.924-1.451-1.428-2.113c-0.784,1.447-1.811,2.684-3.08,3.711l-0.645-0.785c1.298-1.102,2.306-2.385,3.024-3.85
			c-0.84-1.055-1.676-2.029-2.506-2.926L1026.791,27.421z M1037.795,27.042l0.154,0.967l-3.794,0.615
			c0.046,0.607,0.126,1.219,0.237,1.834c0.112,0.578,0.248,1.172,0.406,1.777c0.756-0.867,1.428-1.889,2.017-3.064l0.825,0.545
			c-0.783,1.447-1.614,2.646-2.491,3.598c0.111,0.309,0.214,0.561,0.308,0.756c0.448,0.822,0.845,1.236,1.19,1.246
			c0.242-0.055,0.476-0.887,0.699-2.492l0.868,0.561c-0.196,0.822-0.396,1.504-0.602,2.045c-0.28,0.672-0.584,1.008-0.91,1.008
			c-0.569,0-1.134-0.449-1.694-1.344c-0.224-0.373-0.41-0.738-0.56-1.094c-0.924,0.842-1.899,1.461-2.926,1.863l-0.616-0.826
			c1.185-0.477,2.24-1.158,3.164-2.045c-0.206-0.568-0.374-1.18-0.504-1.834c-0.159-0.643-0.29-1.436-0.393-2.379l-1.777,0.293
			l-0.154-0.965l1.848-0.309c-0.103-1.25-0.153-2.594-0.153-4.031h1.008c0,1.438,0.042,2.729,0.126,3.877L1037.795,27.042z
			 M1035.737,24.144c0.681,0.738,1.181,1.35,1.498,1.834l-0.84,0.574c-0.374-0.588-0.868-1.219-1.484-1.891L1035.737,24.144z"/>
		<path class="st8" d="M1042.009,23.794h1.036v2.436h2.87c0,4.584-0.07,7.416-0.21,8.498c-0.14,1.158-0.836,1.736-2.086,1.736
			l-1.064-0.057l-0.252-0.924c0.598,0.037,0.989,0.057,1.177,0.057c0.736,0,1.161-0.4,1.273-1.203
			c0.084-0.785,0.14-3.16,0.168-7.127h-1.876v0.266c-0.047,4.191-0.961,7.258-2.744,9.199l-0.812-0.729
			c1.651-1.746,2.492-4.568,2.52-8.471v-0.266h-2.226v-0.98h2.226V23.794z M1051.697,25.517V36.38h-0.98v-0.924h-2.52v0.924h-0.98
			V25.517H1051.697z M1048.197,34.476h2.52v-7.98h-2.52V34.476z"/>
		<path class="st8" d="M1062.925,36.339c-0.476,0-1.312-0.01-2.506-0.029c-0.905-0.018-1.638-0.102-2.198-0.252
			c-0.541-0.158-1.036-0.5-1.483-1.021c-0.196-0.232-0.378-0.35-0.546-0.35c-0.336,0-0.883,0.643-1.639,1.932l-0.756-0.686
			c0.729-1.168,1.377-1.881,1.946-2.143v-4.256h-1.988V28.61h2.926v5.236c0.121,0.092,0.238,0.199,0.351,0.32
			c0.336,0.402,0.7,0.697,1.092,0.883c0.438,0.195,1.073,0.309,1.904,0.336c0.989,0.02,1.908,0.027,2.758,0.027
			c0.429,0,1.101-0.008,2.016-0.027c0.766-0.02,1.288-0.037,1.568-0.057l-0.238,1.01L1062.925,36.339L1062.925,36.339
			L1062.925,36.339z M1054.763,23.976c0.971,0.729,1.783,1.457,2.437,2.184l-0.714,0.701c-0.598-0.709-1.4-1.451-2.408-2.227
			L1054.763,23.976z M1057.969,24.899h3.557v-1.133h0.938v1.133h3.542v0.924h-3.542v1.162h3.024v3.57h-3.024v4.326h-0.938v-3.92
			c-0.719,1.27-1.825,2.344-3.318,3.221l-0.63-0.799c1.549-0.803,2.65-1.744,3.304-2.828h-2.38v-3.57h3.024v-1.162h-3.557V24.899z
			 M1061.525,29.659v-1.791h-2.086v1.791H1061.525z M1064.563,29.659v-1.791h-2.101v1.791H1064.563z M1063.569,31.005
			c0.952,0.756,1.772,1.539,2.464,2.352l-0.672,0.658c-0.569-0.738-1.387-1.535-2.45-2.395L1063.569,31.005z"/>
		<path class="st8" d="M1069.337,27.237c-0.317,0.375-0.709,0.775-1.176,1.205l-0.574-0.785c1.241-1.109,2.17-2.426,2.786-3.947
			l0.938,0.238c-0.111,0.289-0.271,0.652-0.476,1.092h3.024c-0.233-0.504-0.439-0.906-0.616-1.203l1.036-0.17
			c0.168,0.355,0.354,0.812,0.56,1.373h4.522v0.84h-4.452v0.951h3.934v0.785h-3.934v0.924h3.934v0.783h-3.934v0.994h4.718v0.855
			h-10.29V27.237L1069.337,27.237z M1067.965,33.188v-0.91h5.572v-0.729h1.008v0.729h5.488v0.91h-4.242
			c0.961,0.904,2.427,1.623,4.396,2.156l-0.435,0.881c-2.314-0.783-3.962-1.797-4.942-3.037h-0.266v3.416h-1.008v-3.416h-0.28
			c-0.887,1.193-2.52,2.225-4.899,3.094l-0.532-0.869c2.146-0.652,3.635-1.395,4.466-2.225L1067.965,33.188L1067.965,33.188z
			 M1073.915,26.831V25.88h-3.57l-0.069,0.111v0.84H1073.915L1073.915,26.831z M1073.915,28.54v-0.924h-3.64v0.924H1073.915z
			 M1073.915,30.317v-0.994h-3.64v0.994H1073.915z"/>
		<path class="st8" d="M1087.047,30.136h-2.87c-0.121,0.477-0.261,0.93-0.42,1.357h3.668v4.984h-0.896v-0.812h-2.212v0.842h-0.896
			v-4.188c-0.392,0.84-0.845,1.545-1.357,2.115l-0.532-0.84c0.774-0.869,1.349-2.021,1.722-3.459h-1.092v-0.867h1.302
			c0.103-0.551,0.183-1.078,0.238-1.582h-1.876V26.79h1.96c0.037-0.709,0.061-1.25,0.07-1.625h-1.61v-0.867h4.802v2.492h0.784v0.896
			h-0.784v2.45C1087.048,30.136,1087.047,30.136,1087.047,30.136z M1084.317,34.771h2.212v-2.354h-2.212V34.771z M1084.611,27.687
			c-0.047,0.41-0.126,0.938-0.238,1.582h1.75v-1.582H1084.611z M1084.765,25.165c-0.009,0.412-0.032,0.953-0.069,1.625h1.428v-1.625
			H1084.765z M1090.729,27.392h-2.507v-0.965h1.652c-0.401-0.85-0.798-1.598-1.19-2.24l0.854-0.406
			c0.42,0.672,0.821,1.418,1.204,2.24l-0.84,0.406h1.582c0.41-0.879,0.761-1.793,1.05-2.744l0.952,0.336
			c-0.28,0.857-0.611,1.66-0.994,2.408h1.554v0.965h-2.324v2.031h2.03v0.938h-2.03v2.029h2.633v0.967h-2.633v3.219h-0.993v-3.219
			h-2.604V32.39h2.604v-2.029h-2.171v-0.938h2.171V27.392L1090.729,27.392z"/>
	</g>
	<g id="XMLID_567_">
		<g>
			<path class="st9" d="M985,43.333c-7.18,0-13-5.82-13-13s5.82-13,13-13c6.498,0,11.866,4.772,12.831,11h2.021
				c-0.98-7.336-7.247-13-14.851-13c-8.284,0-15,6.716-15,15s6.716,15,15,15c7.604,0,13.871-5.664,14.851-13h-2.021
				C996.866,38.561,991.498,43.333,985,43.333z M992,26.333l-7-4l-7,4v8l3.195,1.826c0.203-0.657,0.557-1.244,1.042-1.708
				L980,33.172v-3.697l5,2.857l5-2.857v3.697l-4.137,2.364c-0.262-0.126-0.552-0.203-0.863-0.203c-1.105,0-2,0.896-2,2
				c0,1.104,0.895,2,2,2s2-0.896,2-2c0-0.046-0.01-0.09-0.014-0.135L992,34.333V26.333z M985,30.03l-4.719-2.697L985,24.636
				l4.719,2.697L985,30.03z"/>
		</g>
	</g>
</g>
<g>
	<path class="st8" d="M510.283-112.625c-0.065,0.411-0.14,0.751-0.224,1.022h5.418v0.952h-4.9c0.97,1.297,2.833,2.175,5.586,2.632
		l-0.532,0.952c-3.08-0.616-5.082-1.764-6.006-3.444c-0.29,0.551-0.686,1.064-1.19,1.54c-0.905,0.821-2.501,1.47-4.788,1.946
		l-0.42-0.98c2.025-0.374,3.486-0.919,4.382-1.638c0.354-0.29,0.653-0.625,0.896-1.008h-4.634v-0.952h5.096
		c0.131-0.382,0.224-0.76,0.28-1.134L510.283-112.625z M504.011-118.532h3.192c-0.196-0.476-0.42-0.91-0.672-1.302l1.064-0.168
		c0.205,0.401,0.42,0.892,0.644,1.47h2.926c0.243-0.504,0.42-1.003,0.532-1.498l1.078,0.14c-0.14,0.485-0.327,0.938-0.56,1.358
		h3.108v0.924h-5.138v1.33h4.396v0.896h-4.396v1.358h5.6v0.924h-12.236v-0.924h5.6v-1.358h-4.354v-0.896h4.354v-1.33h-5.138
		L504.011-118.532L504.011-118.532z"/>
	<path class="st8" d="M517.955-116.348c0.877,0.728,1.624,1.47,2.24,2.226l-0.7,0.7c-0.532-0.719-1.274-1.475-2.226-2.268
		L517.955-116.348z M520.167-111.771c-0.504,1.624-1.064,3.15-1.68,4.578l-0.952-0.406c0.653-1.428,1.232-2.936,1.736-4.522
		L520.167-111.771z M518.276-119.667c0.943,0.709,1.727,1.424,2.352,2.142l-0.7,0.7c-0.551-0.672-1.33-1.4-2.338-2.184
		L518.276-119.667z M522.575-119.793h0.966v4.214c-0.047,3.864-0.896,6.697-2.548,8.498l-0.77-0.686
		c1.54-1.624,2.324-4.228,2.352-7.812V-119.793z M521.986-116.069c-0.14,1.307-0.42,2.571-0.84,3.794l-0.812-0.266
		c0.42-1.176,0.714-2.422,0.882-3.738L521.986-116.069z M524.464-116.209c0.271,1.055,0.513,2.212,0.728,3.472l-0.63,0.28
		c-0.196-1.344-0.42-2.534-0.672-3.57L524.464-116.209z M525.557-119.47h0.896v11.914h-0.896V-119.47z M527.32-116.222
		c0.327,1.064,0.611,2.221,0.854,3.472l-0.616,0.266c-0.224-1.194-0.495-2.375-0.812-3.542L527.32-116.222z M528.595-119.904h0.966
		v12.824h-0.966V-119.904z"/>
	<path class="st8" d="M533.172-117.959h-1.764v-0.938h4.55v0.938h-1.764v3.15h1.47v0.91h-1.47v3.178
		c0.495-0.187,1.102-0.434,1.82-0.742v1.022c-1.326,0.607-2.805,1.158-4.438,1.652l-0.294-1.022c0.774-0.215,1.404-0.401,1.89-0.56
		v-3.528h-1.568v-0.91h1.568V-117.959L533.172-117.959z M537.988-114.193h-1.834v-0.994h7.49v0.994h-2.002v5.348
		c0,0.401,0.163,0.602,0.49,0.602h0.392c0.168,0,0.294-0.056,0.378-0.168c0.149-0.149,0.243-0.821,0.28-2.016l0.938,0.322
		c-0.103,1.363-0.243,2.17-0.42,2.422c-0.196,0.242-0.518,0.364-0.966,0.364h-0.924c-0.392,0-0.686-0.122-0.882-0.364
		c-0.206-0.243-0.308-0.556-0.308-0.938v-5.572h-1.666v0.98c-0.047,2.744-1.26,4.755-3.64,6.034l-0.756-0.658
		c2.249-1.12,3.393-2.912,3.43-5.376V-114.193L537.988-114.193z M536.645-119.12h6.552v0.966h-6.552V-119.12z"/>
	<path class="st8" d="M553.011-112.33c0.233,0.7,0.354,1.428,0.364,2.184c0,1.102-0.149,1.867-0.448,2.296
		c-0.345,0.485-1.12,0.728-2.324,0.728h-0.476l-0.336-0.882h0.672c0.831-0.019,1.349-0.145,1.554-0.378
		c0.252-0.308,0.378-0.896,0.378-1.764c-0.019-0.298-0.038-0.532-0.056-0.7c-1.559,1.223-3.607,2.221-6.146,2.996l-0.504-0.868
		c2.8-0.821,4.951-1.853,6.454-3.094c-0.131-0.41-0.266-0.76-0.406-1.05c-1.316,1.036-3.108,1.876-5.376,2.52l-0.504-0.868
		c2.38-0.625,4.195-1.418,5.446-2.38c-0.131-0.214-0.318-0.457-0.56-0.728l-0.308,0.154c-0.961,0.448-2.231,0.896-3.808,1.344
		l-0.518-0.826c1.354-0.298,2.567-0.676,3.64-1.134c0.625-0.28,1.106-0.513,1.442-0.7h-3.71v-0.938h8.386v0.938h-3.206
		c-0.476,0.327-0.859,0.574-1.148,0.742c0.495,0.504,0.886,1.05,1.176,1.638c1.307-0.364,2.543-0.929,3.71-1.694l0.686,0.686
		c-0.765,0.504-1.568,0.919-2.408,1.246c0.653,1.755,1.727,3.159,3.22,4.214l-0.714,0.826c-1.54-1.25-2.646-2.833-3.318-4.746
		L553.011-112.33z M551.834-120.045c0.149,0.336,0.308,0.779,0.476,1.33h5.264v2.436h-0.994v-1.498h-9.828v1.498h-0.994v-2.436
		h5.544c-0.149-0.42-0.313-0.803-0.49-1.148L551.834-120.045z"/>
</g>
<g>
	<path class="st8" d="M456.476-64.797c-0.047,0.392-0.135,0.793-0.266,1.204h5.558v0.728h-5.082c0.98,1.438,2.898,2.417,5.754,2.94
		l-0.392,0.7c-3.145-0.644-5.189-1.853-6.132-3.626c-0.317,0.672-0.737,1.246-1.26,1.722c-0.905,0.831-2.487,1.484-4.746,1.96
		l-0.308-0.742c2.053-0.392,3.533-0.966,4.438-1.722c0.401-0.345,0.742-0.756,1.022-1.232h-4.816v-0.728h5.152
		c0.149-0.438,0.257-0.863,0.322-1.274L456.476-64.797z M450.386-70.523h3.332c-0.196-0.504-0.434-0.975-0.714-1.414l0.784-0.14
		c0.252,0.457,0.49,0.975,0.714,1.554h3.066c0.252-0.476,0.453-0.999,0.602-1.568l0.784,0.112c-0.131,0.495-0.332,0.98-0.602,1.456
		h3.262v0.7h-5.236v1.554h4.522v0.672h-4.522v1.568h5.712v0.728h-12.18v-0.728h5.712v-1.568h-4.466v-0.672h4.466v-1.554h-5.236
		V-70.523z"/>
	<path class="st8" d="M464.204-68.381c0.896,0.756,1.638,1.503,2.226,2.24l-0.532,0.532c-0.542-0.7-1.279-1.456-2.212-2.268
		L464.204-68.381z M466.388-63.928c-0.514,1.615-1.083,3.146-1.708,4.592l-0.7-0.308c0.644-1.446,1.223-2.958,1.736-4.536
		L466.388-63.928z M464.526-71.698c0.924,0.728,1.708,1.456,2.352,2.184l-0.532,0.532c-0.551-0.672-1.335-1.409-2.352-2.212
		L464.526-71.698z M469.006-71.853h0.742v4.172c-0.038,3.854-0.905,6.673-2.604,8.456l-0.574-0.504
		c1.596-1.652,2.408-4.302,2.436-7.952V-71.853z M468.236-68.198c-0.14,1.325-0.42,2.59-0.84,3.794l-0.63-0.21
		c0.42-1.185,0.714-2.427,0.882-3.724L468.236-68.198z M470.714-68.282c0.29,1.073,0.542,2.23,0.756,3.472l-0.49,0.224
		c-0.215-1.26-0.462-2.44-0.742-3.542L470.714-68.282z M472.002-71.545h0.7v11.858h-0.7V-71.545z M473.57-68.297
		c0.364,1.176,0.663,2.329,0.896,3.458l-0.49,0.224c-0.262-1.316-0.556-2.497-0.882-3.542L473.57-68.297z M475.068-71.965h0.728
		v12.74h-0.728V-71.965z"/>
	<path class="st8" d="M477.896-68.255h5.516c0.121-0.849,0.191-1.741,0.21-2.674v-1.064h0.756v0.896c0,1.008-0.07,1.955-0.21,2.842
		h5.936v0.756h-5.614c0.98,3.295,2.935,5.82,5.866,7.574l-0.462,0.616c-2.94-1.792-4.923-4.373-5.95-7.742
		c-0.793,3.612-2.744,6.221-5.852,7.826l-0.476-0.63c3.07-1.512,4.96-4.06,5.67-7.644h-5.39
		C477.896-67.499,477.896-68.255,477.896-68.255z"/>
	<path class="st8" d="M492.764-71.419h11.018v0.728h-10.276v10.122h10.668v0.728h-11.41V-71.419z M495.466-69.136
		c1.251,0.933,2.487,1.946,3.71,3.038c0.859-1.073,1.591-2.31,2.198-3.71l0.686,0.364c-0.653,1.484-1.423,2.772-2.31,3.864
		c1.176,1.074,2.221,2.124,3.136,3.15l-0.574,0.574c-0.868-1.017-1.885-2.067-3.052-3.15c-1.26,1.391-2.721,2.441-4.382,3.15
		l-0.434-0.686c1.624-0.672,3.038-1.666,4.242-2.982c-1.251-1.101-2.506-2.132-3.766-3.094L495.466-69.136z"/>
</g>
<g>
	<path class="st8" d="M699.274-71.125h11.452v0.728h-3.864v9.758h4.298v0.728h-12.32v-0.728h4.27v-9.758h-3.836L699.274-71.125
		L699.274-71.125z M700.268-68.143c0.681,1.559,1.288,3.346,1.82,5.362l-0.672,0.182c-0.458-1.773-1.064-3.547-1.82-5.32
		L700.268-68.143z M703.852-60.638h2.268v-9.758h-2.268V-60.638z M710.306-68.129c-0.485,2.109-1.111,3.972-1.876,5.586
		l-0.672-0.238c0.709-1.447,1.33-3.29,1.862-5.53L710.306-68.129z"/>
	<path class="st8" d="M712.882-68.955h5.502c0.075-0.7,0.122-1.488,0.14-2.366v-0.63h0.756v0.462c0,0.784-0.046,1.629-0.14,2.534
		h5.992v0.756h-5.712c0.999,3.631,3.005,6.403,6.02,8.316l-0.476,0.616c-2.977-1.941-4.998-4.686-6.062-8.232
		c-0.364,1.718-0.957,3.216-1.778,4.494c0.737,0.682,1.568,1.601,2.492,2.758l-0.546,0.546c-0.821-1.092-1.605-1.998-2.352-2.716
		c-0.989,1.307-2.217,2.352-3.682,3.136l-0.49-0.63c3.173-1.633,5.082-4.396,5.726-8.288h-5.39V-68.955z"/>
	<path class="st8" d="M726.896-68.255h5.516c0.121-0.849,0.191-1.741,0.21-2.674v-1.064h0.756v0.896c0,1.008-0.07,1.955-0.21,2.842
		h5.936v0.756h-5.614c0.98,3.295,2.935,5.82,5.866,7.574l-0.462,0.616c-2.94-1.792-4.923-4.373-5.95-7.742
		c-0.793,3.612-2.744,6.221-5.852,7.826l-0.476-0.63c3.07-1.512,4.96-4.06,5.67-7.644h-5.39V-68.255L726.896-68.255z"/>
	<path class="st8" d="M741.764-71.419h11.018v0.728h-10.276v10.122h10.668v0.728h-11.41V-71.419z M744.466-69.136
		c1.251,0.933,2.487,1.946,3.71,3.038c0.859-1.073,1.591-2.31,2.198-3.71l0.686,0.364c-0.653,1.484-1.423,2.772-2.31,3.864
		c1.176,1.074,2.221,2.124,3.136,3.15l-0.574,0.574c-0.868-1.017-1.885-2.067-3.052-3.15c-1.26,1.391-2.721,2.441-4.382,3.15
		l-0.434-0.686c1.624-0.672,3.038-1.666,4.242-2.982c-1.251-1.101-2.506-2.132-3.766-3.094L744.466-69.136z"/>
</g>
<g>
	<path class="st8" d="M753.913-119.12h11.508v0.966h-3.766v9.45h4.214v0.994h-12.404v-0.994h4.186v-9.45h-3.738V-119.12z
		 M755.061-116.069c0.681,1.549,1.283,3.337,1.806,5.362l-0.882,0.238c-0.476-1.82-1.078-3.589-1.806-5.306L755.061-116.069z
		 M758.645-108.704h2.016v-9.45h-2.016V-108.704z M765.057-115.985c-0.467,2.091-1.087,3.953-1.862,5.586l-0.868-0.336
		c0.681-1.381,1.292-3.206,1.834-5.474L765.057-115.985z"/>
	<path class="st8" d="M767.506-116.965h5.418c0.084-0.719,0.127-1.46,0.127-2.226v-0.7h1.035v0.476c0,0.774-0.047,1.591-0.14,2.45
		h5.894v0.98h-5.627c0.998,3.481,2.977,6.165,5.936,8.05l-0.63,0.812c-2.856-1.848-4.83-4.461-5.922-7.84
		c-0.364,1.54-0.919,2.889-1.666,4.046c0.709,0.654,1.512,1.54,2.407,2.66l-0.713,0.714c-0.729-0.97-1.471-1.843-2.227-2.618
		c-0.961,1.232-2.16,2.24-3.598,3.024l-0.631-0.84c3.09-1.568,4.961-4.237,5.615-8.008h-5.279L767.506-116.965L767.506-116.965z"/>
	<path class="st8" d="M783.172-117.959h-1.764v-0.938h4.551v0.938h-1.765v3.15h1.47v0.91h-1.47v3.178
		c0.495-0.187,1.102-0.434,1.82-0.742v1.022c-1.325,0.607-2.806,1.158-4.438,1.652l-0.293-1.022c0.773-0.215,1.404-0.401,1.889-0.56
		v-3.528h-1.567v-0.91h1.567V-117.959z M787.988-114.193h-1.834v-0.994h7.49v0.994h-2.002v5.348c0,0.401,0.163,0.602,0.49,0.602
		h0.392c0.168,0,0.294-0.056,0.378-0.168c0.149-0.149,0.242-0.821,0.28-2.016l0.938,0.322c-0.104,1.363-0.243,2.17-0.42,2.422
		c-0.197,0.242-0.519,0.364-0.967,0.364h-0.924c-0.393,0-0.686-0.122-0.882-0.364c-0.206-0.243-0.308-0.556-0.308-0.938v-5.572
		h-1.666v0.98c-0.047,2.744-1.261,4.755-3.641,6.034l-0.756-0.658c2.249-1.12,3.393-2.912,3.43-5.376v-0.98H787.988z
		 M786.645-119.12h6.552v0.966h-6.552V-119.12z"/>
	<path class="st8" d="M803.011-112.33c0.233,0.7,0.354,1.428,0.364,2.184c0,1.102-0.15,1.867-0.449,2.296
		c-0.345,0.485-1.119,0.728-2.323,0.728h-0.476l-0.336-0.882h0.672c0.83-0.019,1.348-0.145,1.554-0.378
		c0.252-0.308,0.378-0.896,0.378-1.764c-0.02-0.298-0.037-0.532-0.057-0.7c-1.559,1.223-3.607,2.221-6.146,2.996l-0.504-0.868
		c2.8-0.821,4.951-1.853,6.454-3.094c-0.131-0.41-0.266-0.76-0.406-1.05c-1.316,1.036-3.107,1.876-5.376,2.52l-0.504-0.868
		c2.38-0.625,4.195-1.418,5.446-2.38c-0.131-0.214-0.318-0.457-0.561-0.728l-0.308,0.154c-0.962,0.448-2.231,0.896-3.808,1.344
		l-0.519-0.826c1.354-0.298,2.567-0.676,3.64-1.134c0.625-0.28,1.106-0.513,1.442-0.7h-3.71v-0.938h8.387v0.938h-3.207
		c-0.476,0.327-0.858,0.574-1.147,0.742c0.495,0.504,0.886,1.05,1.176,1.638c1.307-0.364,2.544-0.929,3.71-1.694l0.686,0.686
		c-0.765,0.504-1.567,0.919-2.408,1.246c0.654,1.755,1.728,3.159,3.221,4.214l-0.714,0.826c-1.54-1.25-2.646-2.833-3.317-4.746
		L803.011-112.33z M801.834-120.045c0.15,0.336,0.309,0.779,0.477,1.33h5.264v2.436h-0.994v-1.498h-9.828v1.498h-0.994v-2.436h5.545
		c-0.149-0.42-0.313-0.803-0.49-1.148L801.834-120.045z"/>
</g>
<g>
	<path class="st8" d="M1006.277-120.003h1.036v2.52h5.026v6.58h-1.008v-0.882h-4.019v4.774h-1.036v-4.774h-4.004v0.882h-1.008v-6.58
		h5.012L1006.277-120.003L1006.277-120.003z M1002.273-112.764h4.004v-3.738h-4.004V-112.764z M1007.313-112.764h4.019v-3.738
		h-4.019V-112.764z"/>
	<path class="st8" d="M1026.55-119.302v12.166h-1.022v-0.602h-9.464v0.602h-1.021v-12.166H1026.55z M1016.063-108.691h9.464v-9.66
		h-9.464V-108.691z M1017.323-117.076h6.931v0.91h-2.94v2.016h2.506v0.896h-2.506v2.226h3.346v0.924h-7.714v-0.924h3.332v-2.226
		h-2.506v-0.896h2.506v-2.016h-2.954v-0.91H1017.323z M1022.966-112.961c0.354,0.485,0.658,0.999,0.91,1.54l-0.784,0.364
		c-0.28-0.635-0.588-1.181-0.924-1.638L1022.966-112.961z"/>
	<path class="st8" d="M1030.302-117.959h-1.764v-0.938h4.55v0.938h-1.765v3.15h1.471v0.91h-1.471v3.178
		c0.495-0.187,1.102-0.434,1.82-0.742v1.022c-1.325,0.607-2.805,1.158-4.438,1.652l-0.294-1.022c0.774-0.215,1.404-0.401,1.89-0.56
		v-3.528h-1.568v-0.91h1.568L1030.302-117.959L1030.302-117.959z M1035.117-114.193h-1.834v-0.994h7.49v0.994h-2.002v5.348
		c0,0.401,0.163,0.602,0.49,0.602h0.392c0.168,0,0.294-0.056,0.378-0.168c0.149-0.149,0.243-0.821,0.28-2.016l0.938,0.322
		c-0.104,1.363-0.243,2.17-0.42,2.422c-0.196,0.242-0.519,0.364-0.967,0.364h-0.924c-0.392,0-0.686-0.122-0.882-0.364
		c-0.205-0.243-0.308-0.556-0.308-0.938v-5.572h-1.666v0.98c-0.047,2.744-1.261,4.755-3.641,6.034l-0.756-0.658
		c2.249-1.12,3.393-2.912,3.43-5.376v-0.98H1035.117z M1033.773-119.12h6.552v0.966h-6.552V-119.12z"/>
	<path class="st8" d="M1050.14-112.33c0.233,0.7,0.354,1.428,0.364,2.184c0,1.102-0.149,1.867-0.448,2.296
		c-0.346,0.485-1.12,0.728-2.324,0.728h-0.476l-0.336-0.882h0.672c0.83-0.019,1.349-0.145,1.554-0.378
		c0.252-0.308,0.378-0.896,0.378-1.764c-0.019-0.298-0.037-0.532-0.056-0.7c-1.559,1.223-3.607,2.221-6.146,2.996l-0.504-0.868
		c2.8-0.821,4.951-1.853,6.454-3.094c-0.131-0.41-0.266-0.76-0.406-1.05c-1.315,1.036-3.107,1.876-5.376,2.52l-0.504-0.868
		c2.38-0.625,4.195-1.418,5.446-2.38c-0.131-0.214-0.317-0.457-0.56-0.728l-0.309,0.154c-0.961,0.448-2.23,0.896-3.808,1.344
		l-0.519-0.826c1.354-0.298,2.567-0.676,3.641-1.134c0.625-0.28,1.105-0.513,1.441-0.7h-3.71v-0.938h8.387v0.938h-3.206
		c-0.477,0.327-0.859,0.574-1.148,0.742c0.495,0.504,0.887,1.05,1.176,1.638c1.307-0.364,2.544-0.929,3.71-1.694l0.687,0.686
		c-0.766,0.504-1.568,0.919-2.408,1.246c0.653,1.755,1.727,3.159,3.22,4.214l-0.714,0.826c-1.54-1.25-2.646-2.833-3.317-4.746
		L1050.14-112.33z M1048.964-120.045c0.149,0.336,0.308,0.779,0.476,1.33h5.265v2.436h-0.994v-1.498h-9.828v1.498h-0.994v-2.436
		h5.544c-0.149-0.42-0.313-0.803-0.49-1.148L1048.964-120.045z"/>
</g>
<g>
	<path class="st8" d="M955.941-72.076h0.784v2.59h5.067v6.44h-0.77v-0.938h-4.298v4.844h-0.784v-4.844h-4.284v0.938h-0.77v-6.44
		h5.054L955.941-72.076L955.941-72.076z M951.657-64.727h4.284v-4.004h-4.284V-64.727z M956.726-64.727h4.298v-4.004h-4.298V-64.727
		z"/>
	<path class="st8" d="M975.989-71.278v12.012h-0.77v-0.672h-9.786v0.672h-0.771v-12.012H975.989z M965.434-60.652h9.786v-9.898
		h-9.786V-60.652z M966.861-69.081h6.93v0.7h-3.08v2.24h2.646v0.7h-2.646v2.436h3.486v0.7h-7.714v-0.7h3.472v-2.436h-2.646v-0.7
		h2.646v-2.24h-3.094V-69.081z M972.377-65.048c0.373,0.513,0.695,1.05,0.966,1.61l-0.602,0.266
		c-0.317-0.663-0.644-1.223-0.979-1.68L972.377-65.048z"/>
	<path class="st8" d="M978.229-68.255h5.516c0.121-0.849,0.191-1.741,0.21-2.674v-1.064h0.756v0.896c0,1.008-0.069,1.955-0.21,2.842
		h5.937v0.756h-5.614c0.98,3.295,2.936,5.82,5.866,7.574l-0.462,0.616c-2.94-1.792-4.924-4.373-5.95-7.742
		c-0.794,3.612-2.744,6.221-5.853,7.826l-0.476-0.63c3.07-1.512,4.961-4.06,5.67-7.644h-5.39L978.229-68.255L978.229-68.255z"/>
	<path class="st8" d="M993.098-71.419h11.018v0.728H993.84v10.122h10.668v0.728h-11.409v-11.578H993.098z M995.799-69.136
		c1.251,0.933,2.487,1.946,3.71,3.038c0.859-1.073,1.592-2.31,2.198-3.71l0.687,0.364c-0.653,1.484-1.424,2.772-2.311,3.864
		c1.176,1.074,2.222,2.124,3.137,3.15l-0.574,0.574c-0.868-1.017-1.886-2.067-3.053-3.15c-1.26,1.391-2.721,2.441-4.382,3.15
		l-0.434-0.686c1.624-0.672,3.038-1.666,4.242-2.982c-1.251-1.101-2.506-2.132-3.767-3.094L995.799-69.136z"/>
</g>
<g>
	<g class="st3">
		<rect x="456.5" y="89.333" class="st4" width="148" height="50"/>
	</g>
	<g>
		<rect x="455" y="87.833" class="st5" width="147" height="49"/>
		<path class="st6" d="M601.5,88.333v48h-146v-48H601.5 M602.5,87.333h-148v50h148V87.333L602.5,87.333z"/>
	</g>
	<g>
		<path id="XMLID_718_" class="st9" d="M500.83,115.333c-0.964,6.228-6.333,11-12.83,11c-7.18,0-13-5.82-13-13s5.82-13,13-13
			c6.498,0,11.866,4.772,12.83,11h2.021c-0.98-7.336-7.247-13-14.851-13c-8.284,0-15,6.716-15,15s6.716,15,15,15
			c7.604,0,13.871-5.664,14.851-13C502.851,115.333,500.83,115.333,500.83,115.333z"/>
		<path id="XMLID_685_" class="st9" d="M487.926,105.333c-0.708,0-1.391,0.101-2.045,0.274c0.474,0.506,0.818,1.131,0.978,1.831
			c0.347-0.064,0.702-0.104,1.067-0.104c1.294,0,2.49,0.416,3.471,1.115l-2.077,2.077c-0.803-0.731-1.609-1.341-2.387-1.842
			c-0.063,0.718-0.302,1.384-0.694,1.943c0.528,0.365,1.083,0.784,1.669,1.312l-1.377,1.377c-0.528-0.585-0.965-1.146-1.325-1.665
			c-0.564,0.381-1.235,0.604-1.954,0.655c0.505,0.789,1.123,1.609,1.865,2.424l-2.075,2.075c-0.699-0.981-1.115-2.177-1.115-3.471
			c0-0.383,0.043-0.756,0.113-1.119c-0.697-0.166-1.321-0.511-1.823-0.989c-0.184,0.673-0.29,1.377-0.29,2.108c0,4.418,3.582,8,8,8
			c0.71,0,1.395-0.102,2.05-0.275c-0.475-0.505-0.819-1.131-0.981-1.83c-0.348,0.064-0.703,0.105-1.069,0.105
			c-1.294,0-2.49-0.416-3.471-1.115l2.077-2.078c0.802,0.73,1.609,1.341,2.386,1.842c0.062-0.719,0.299-1.385,0.691-1.945
			c-0.527-0.365-1.081-0.782-1.665-1.309l1.377-1.377c0.526,0.583,0.962,1.143,1.322,1.661c0.563-0.382,1.234-0.606,1.953-0.658
			c-0.504-0.787-1.121-1.605-1.86-2.418l2.075-2.075c0.699,0.981,1.115,2.177,1.115,3.471c0,0.381-0.043,0.752-0.112,1.113
			c0.697,0.167,1.321,0.512,1.823,0.99c0.183-0.671,0.289-1.374,0.289-2.102C495.926,108.915,492.344,105.333,487.926,105.333z"/>
		<g id="XMLID_622_">
			<circle id="XMLID_671_" class="st9" cx="482.967" cy="108.337" r="2"/>
			<circle id="XMLID_655_" class="st9" cx="492.884" cy="118.329" r="2"/>
		</g>
	</g>
	<g>
		<path class="st8" d="M518.739,108.551c0.793,0.858,1.61,1.814,2.45,2.869c0.522-1.26,0.831-2.632,0.924-4.115h-3.836v-0.98h4.746
			v0.742c-0.075,1.923-0.472,3.654-1.19,5.194c0.579,0.774,1.12,1.563,1.624,2.365l-0.728,0.729
			c-0.401-0.672-0.863-1.377-1.386-2.114c-0.766,1.335-1.797,2.539-3.094,3.612l-0.588-0.882c1.316-1.009,2.338-2.198,3.066-3.57
			c-0.756-1.018-1.643-2.091-2.66-3.22L518.739,108.551z M524.507,110.259c0.952,1.166,1.675,2.188,2.17,3.065l-0.798,0.561
			c-0.56-0.971-1.274-1.993-2.142-3.066L524.507,110.259z M523.751,107.641h4.06v-2.744h1.008v2.744h1.554v0.966h-1.554v7.7
			c0,0.942-0.481,1.414-1.442,1.414h-2.198l-0.21-0.994c0.812,0.046,1.498,0.069,2.058,0.069c0.522,0,0.784-0.247,0.784-0.741
			v-7.448h-4.06V107.641z"/>
		<path class="st8" d="M533.845,106.786c-0.355,0.672-0.751,1.279-1.19,1.82l-0.868-0.546c0.849-1.018,1.465-2.119,1.848-3.305
			l0.966,0.21c-0.131,0.402-0.247,0.724-0.35,0.967h3.57v0.854h-2.45c0.383,0.485,0.695,0.938,0.938,1.358l-0.91,0.336
			c-0.346-0.653-0.705-1.218-1.078-1.694H533.845z M533.425,109.097h4.144v-0.868h1.008v0.868h4.088v0.896h-4.088v1.316h5.684v0.882
			h-2.674v1.357h2.072v0.91h-2.072v2.143c0,0.774-0.416,1.162-1.246,1.162h-2.03l-0.21-0.952c0.747,0.046,1.377,0.069,1.89,0.069
			c0.392,0,0.588-0.173,0.588-0.518v-1.904h-7.882v-0.91h7.882v-1.357h-8.708v-0.882h5.698v-1.316h-4.144V109.097z M534.937,114.851
			c0.812,0.756,1.428,1.414,1.848,1.974l-0.784,0.546c-0.448-0.598-1.074-1.269-1.876-2.016L534.937,114.851z M539.571,106.759
			c-0.261,0.522-0.56,1.008-0.896,1.455l-0.84-0.518c0.69-0.915,1.185-1.899,1.484-2.954l0.952,0.196
			c-0.112,0.336-0.224,0.658-0.336,0.966h4.06v0.854h-2.534c0.382,0.485,0.686,0.942,0.91,1.371l-0.868,0.336
			c-0.346-0.625-0.714-1.194-1.106-1.707H539.571z"/>
		<path class="st8" d="M554.999,117.511c-0.467,0-1.288-0.01-2.464-0.028c-0.887-0.01-1.61-0.094-2.17-0.252
			c-0.532-0.168-1.022-0.509-1.47-1.022c-0.177-0.232-0.354-0.35-0.532-0.35c-0.327,0-0.877,0.644-1.652,1.932l-0.756-0.686
			c0.747-1.176,1.405-1.891,1.974-2.143v-4.256h-2.002v-0.924h2.94v5.236c0.103,0.074,0.215,0.182,0.336,0.321
			c0.345,0.411,0.705,0.705,1.078,0.883c0.42,0.195,1.041,0.308,1.862,0.336c0.971,0.019,1.876,0.027,2.716,0.027
			c0.429,0,1.101-0.009,2.016-0.027c0.766-0.02,1.288-0.038,1.568-0.057l-0.238,1.009H554.999z M546.865,105.148
			c0.98,0.756,1.773,1.479,2.38,2.17l-0.728,0.714c-0.551-0.672-1.33-1.414-2.338-2.226L546.865,105.148z M549.833,106.366h2.254
			c0.233-0.588,0.42-1.102,0.56-1.54l0.966,0.225c-0.168,0.504-0.327,0.942-0.476,1.315h4.914v0.938h-5.306
			c-0.411,0.914-0.877,1.75-1.4,2.506h2.254v-1.666h0.966v1.666h3.052v0.924h-3.052v1.666h3.668v0.952h-3.668v2.604h-0.966v-2.604
			h-3.878V112.4h3.878v-1.666h-3.234l-0.224-0.924c0.569-0.682,1.083-1.517,1.54-2.506h-1.848V106.366z"/>
		<path class="st8" d="M560.123,117.637l-0.21-0.98c0.504,0.037,0.868,0.056,1.092,0.056c0.364,0,0.546-0.2,0.546-0.602v-3.388
			c-0.374,0.149-0.952,0.354-1.736,0.615l-0.252-1.008c0.634-0.158,1.297-0.364,1.988-0.616v-3.136h-1.708v-0.966h1.708v-2.646
			h1.036v2.646h1.162v0.966h-1.162v2.702c0.364-0.177,0.765-0.383,1.204-0.616v1.022c-0.364,0.195-0.765,0.392-1.204,0.588v4.088
			c0,0.85-0.411,1.274-1.232,1.274H560.123z M568.061,110.832c-0.14,0.374-0.294,0.737-0.462,1.092h4.802v0.98h-1.54
			c-0.215,1.046-0.649,1.923-1.302,2.632c0.98,0.458,1.899,0.934,2.758,1.428l-0.546,0.813c-0.84-0.514-1.815-1.036-2.926-1.568
			c-0.943,0.682-2.413,1.219-4.41,1.61l-0.392-0.91c1.652-0.299,2.902-0.695,3.752-1.189c-0.728-0.337-1.643-0.724-2.744-1.162
			c0.392-0.598,0.728-1.148,1.008-1.652h-1.876v-0.98h2.394c0.187-0.41,0.359-0.812,0.518-1.203L568.061,110.832z M566.479,107.29
			c0.336,0.588,0.667,1.279,0.994,2.072h1.372c0.364-0.653,0.695-1.396,0.994-2.226l0.952,0.336c-0.261,0.699-0.555,1.33-0.882,1.89
			h2.268v0.966h-7.812v-0.966h2.142c-0.299-0.653-0.583-1.213-0.854-1.68L566.479,107.29z M568.327,104.84
			c0.149,0.374,0.303,0.817,0.462,1.33h3.136v0.925h-7.238v-0.925h3.08c-0.149-0.4-0.313-0.788-0.49-1.161L568.327,104.84z
			 M567.081,112.904c-0.271,0.457-0.537,0.873-0.798,1.246c0.812,0.308,1.596,0.63,2.352,0.966c0.625-0.588,1.05-1.325,1.274-2.212
			H567.081z"/>
	</g>
</g>
<g>
	<g class="st3">
		<rect x="705.167" y="89.333" class="st4" width="148" height="50"/>
	</g>
	<g>
		<rect x="703.667" y="87.833" class="st5" width="147" height="49"/>
		<path class="st6" d="M850.167,88.333v48h-146v-48H850.167 M851.167,87.333h-148v50h148V87.333L851.167,87.333z"/>
	</g>
	<g>
		<path id="XMLID_5_" class="st9" d="M749.497,115.333c-0.964,6.228-6.333,11-12.83,11c-7.18,0-13-5.82-13-13s5.82-13,13-13
			c6.498,0,11.866,4.772,12.83,11h2.021c-0.98-7.336-7.247-13-14.851-13c-8.284,0-15,6.716-15,15s6.716,15,15,15
			c7.604,0,13.871-5.664,14.851-13C751.518,115.333,749.497,115.333,749.497,115.333z"/>
		<path id="XMLID_4_" class="st9" d="M736.593,105.333c-0.708,0-1.391,0.101-2.045,0.274c0.474,0.506,0.818,1.131,0.978,1.831
			c0.347-0.064,0.702-0.104,1.067-0.104c1.294,0,2.49,0.416,3.471,1.115l-2.077,2.077c-0.803-0.731-1.609-1.341-2.387-1.842
			c-0.063,0.718-0.302,1.384-0.694,1.943c0.528,0.365,1.083,0.784,1.669,1.312l-1.377,1.377c-0.528-0.585-0.965-1.146-1.325-1.665
			c-0.564,0.381-1.235,0.604-1.954,0.655c0.505,0.789,1.123,1.609,1.865,2.424l-2.075,2.075c-0.699-0.981-1.115-2.177-1.115-3.471
			c0-0.383,0.043-0.756,0.113-1.119c-0.697-0.166-1.321-0.511-1.823-0.989c-0.184,0.673-0.29,1.377-0.29,2.108c0,4.418,3.582,8,8,8
			c0.71,0,1.395-0.102,2.05-0.275c-0.475-0.505-0.819-1.131-0.981-1.83c-0.348,0.064-0.703,0.105-1.069,0.105
			c-1.294,0-2.49-0.416-3.471-1.115l2.077-2.078c0.802,0.73,1.609,1.341,2.386,1.842c0.062-0.719,0.299-1.385,0.691-1.945
			c-0.527-0.365-1.081-0.782-1.665-1.309l1.377-1.377c0.526,0.583,0.962,1.143,1.322,1.661c0.563-0.382,1.234-0.606,1.953-0.658
			c-0.504-0.787-1.121-1.605-1.86-2.418l2.075-2.075c0.699,0.981,1.115,2.177,1.115,3.471c0,0.381-0.043,0.752-0.112,1.113
			c0.697,0.167,1.321,0.512,1.823,0.99c0.183-0.671,0.289-1.374,0.289-2.102C744.593,108.915,741.011,105.333,736.593,105.333z"/>
		<g id="XMLID_1_">
			<circle id="XMLID_3_" class="st9" cx="731.634" cy="108.337" r="2"/>
			<circle id="XMLID_2_" class="st9" cx="741.551" cy="118.329" r="2"/>
		</g>
	</g>
	<g>
		<path class="st8" d="M767.405,108.551c0.793,0.858,1.61,1.814,2.45,2.869c0.522-1.26,0.831-2.632,0.924-4.115h-3.836v-0.98h4.746
			v0.742c-0.075,1.923-0.472,3.654-1.19,5.194c0.579,0.774,1.12,1.563,1.624,2.365l-0.728,0.729
			c-0.401-0.672-0.863-1.377-1.386-2.114c-0.766,1.335-1.797,2.539-3.094,3.612l-0.588-0.882c1.316-1.009,2.338-2.198,3.066-3.57
			c-0.756-1.018-1.643-2.091-2.66-3.22L767.405,108.551z M773.174,110.259c0.952,1.166,1.675,2.188,2.17,3.065l-0.798,0.561
			c-0.56-0.971-1.274-1.993-2.142-3.066L773.174,110.259z M772.418,107.641h4.06v-2.744h1.008v2.744h1.554v0.966h-1.554v7.7
			c0,0.942-0.481,1.414-1.442,1.414h-2.198l-0.21-0.994c0.812,0.046,1.498,0.069,2.058,0.069c0.522,0,0.784-0.247,0.784-0.741
			v-7.448h-4.06V107.641z"/>
		<path class="st8" d="M782.511,106.786c-0.355,0.672-0.751,1.279-1.19,1.82l-0.868-0.546c0.849-1.018,1.465-2.119,1.848-3.305
			l0.966,0.21c-0.131,0.402-0.247,0.724-0.35,0.967h3.57v0.854h-2.45c0.383,0.485,0.695,0.938,0.938,1.358l-0.91,0.336
			c-0.346-0.653-0.705-1.218-1.078-1.694H782.511z M782.091,109.097h4.144v-0.868h1.008v0.868h4.088v0.896h-4.088v1.316h5.684v0.882
			h-2.674v1.357h2.072v0.91h-2.072v2.143c0,0.774-0.416,1.162-1.246,1.162h-2.03l-0.21-0.952c0.747,0.046,1.377,0.069,1.89,0.069
			c0.392,0,0.588-0.173,0.588-0.518v-1.904h-7.882v-0.91h7.882v-1.357h-8.708v-0.882h5.698v-1.316h-4.144V109.097z M783.603,114.851
			c0.812,0.756,1.428,1.414,1.848,1.974l-0.784,0.546c-0.448-0.598-1.074-1.269-1.876-2.016L783.603,114.851z M788.237,106.759
			c-0.261,0.522-0.56,1.008-0.896,1.455l-0.84-0.518c0.69-0.915,1.185-1.899,1.484-2.954l0.952,0.196
			c-0.112,0.336-0.224,0.658-0.336,0.966h4.06v0.854h-2.534c0.382,0.485,0.686,0.942,0.91,1.371l-0.868,0.336
			c-0.346-0.625-0.714-1.194-1.106-1.707H788.237z"/>
		<path class="st8" d="M803.665,117.511c-0.467,0-1.288-0.01-2.464-0.028c-0.887-0.01-1.61-0.094-2.17-0.252
			c-0.532-0.168-1.022-0.509-1.47-1.022c-0.177-0.232-0.354-0.35-0.532-0.35c-0.327,0-0.877,0.644-1.652,1.932l-0.756-0.686
			c0.747-1.176,1.405-1.891,1.974-2.143v-4.256h-2.002v-0.924h2.94v5.236c0.103,0.074,0.215,0.182,0.336,0.321
			c0.345,0.411,0.705,0.705,1.078,0.883c0.42,0.195,1.041,0.308,1.862,0.336c0.971,0.019,1.876,0.027,2.716,0.027
			c0.429,0,1.101-0.009,2.016-0.027c0.766-0.02,1.288-0.038,1.568-0.057l-0.238,1.009H803.665z M795.531,105.148
			c0.98,0.756,1.773,1.479,2.38,2.17l-0.728,0.714c-0.551-0.672-1.33-1.414-2.338-2.226L795.531,105.148z M798.499,106.366h2.254
			c0.233-0.588,0.42-1.102,0.56-1.54l0.966,0.225c-0.168,0.504-0.327,0.942-0.476,1.315h4.914v0.938h-5.306
			c-0.411,0.914-0.877,1.75-1.4,2.506h2.254v-1.666h0.966v1.666h3.052v0.924h-3.052v1.666h3.668v0.952h-3.668v2.604h-0.966v-2.604
			h-3.878V112.4h3.878v-1.666h-3.234l-0.224-0.924c0.569-0.682,1.083-1.517,1.54-2.506h-1.848V106.366z"/>
		<path class="st8" d="M808.789,117.637l-0.21-0.98c0.504,0.037,0.868,0.056,1.092,0.056c0.364,0,0.546-0.2,0.546-0.602v-3.388
			c-0.374,0.149-0.952,0.354-1.736,0.615l-0.252-1.008c0.634-0.158,1.297-0.364,1.988-0.616v-3.136h-1.708v-0.966h1.708v-2.646
			h1.036v2.646h1.162v0.966h-1.162v2.702c0.364-0.177,0.765-0.383,1.204-0.616v1.022c-0.364,0.195-0.765,0.392-1.204,0.588v4.088
			c0,0.85-0.411,1.274-1.232,1.274H808.789z M816.727,110.832c-0.14,0.374-0.294,0.737-0.462,1.092h4.802v0.98h-1.54
			c-0.215,1.046-0.649,1.923-1.302,2.632c0.98,0.458,1.899,0.934,2.758,1.428l-0.546,0.813c-0.84-0.514-1.815-1.036-2.926-1.568
			c-0.943,0.682-2.413,1.219-4.41,1.61l-0.392-0.91c1.652-0.299,2.902-0.695,3.752-1.189c-0.728-0.337-1.643-0.724-2.744-1.162
			c0.392-0.598,0.728-1.148,1.008-1.652h-1.876v-0.98h2.394c0.187-0.41,0.359-0.812,0.518-1.203L816.727,110.832z M815.145,107.29
			c0.336,0.588,0.667,1.279,0.994,2.072h1.372c0.364-0.653,0.695-1.396,0.994-2.226l0.952,0.336c-0.261,0.699-0.555,1.33-0.882,1.89
			h2.268v0.966h-7.812v-0.966h2.142c-0.299-0.653-0.583-1.213-0.854-1.68L815.145,107.29z M816.993,104.84
			c0.149,0.374,0.303,0.817,0.462,1.33h3.136v0.925h-7.238v-0.925h3.08c-0.149-0.4-0.313-0.788-0.49-1.161L816.993,104.84z
			 M815.747,112.904c-0.271,0.457-0.537,0.873-0.798,1.246c0.812,0.308,1.596,0.63,2.352,0.966c0.625-0.588,1.05-1.325,1.274-2.212
			H815.747z"/>
	</g>
</g>
<g>
	<g class="st3">
		<rect x="955.783" y="89.333" class="st4" width="148" height="50"/>
	</g>
	<g>
		<rect x="954.283" y="87.833" class="st5" width="147" height="49"/>
		<path class="st6" d="M1100.783,88.333v48h-146v-48H1100.783 M1101.783,87.333h-148v50h148V87.333L1101.783,87.333z"/>
	</g>
	<g>
		<path id="XMLID_10_" class="st9" d="M1000.113,115.333c-0.964,6.228-6.333,11-12.83,11c-7.18,0-13-5.82-13-13s5.82-13,13-13
			c6.498,0,11.866,4.772,12.83,11h2.021c-0.98-7.336-7.247-13-14.851-13c-8.284,0-15,6.716-15,15s6.716,15,15,15
			c7.604,0,13.871-5.664,14.851-13C1002.134,115.333,1000.113,115.333,1000.113,115.333z"/>
		<path id="XMLID_9_" class="st9" d="M987.209,105.333c-0.708,0-1.391,0.101-2.045,0.274c0.474,0.506,0.818,1.131,0.978,1.831
			c0.347-0.064,0.702-0.104,1.067-0.104c1.294,0,2.49,0.416,3.471,1.115l-2.077,2.077c-0.803-0.731-1.609-1.341-2.387-1.842
			c-0.063,0.718-0.302,1.384-0.694,1.943c0.528,0.365,1.083,0.784,1.669,1.312l-1.377,1.377c-0.528-0.585-0.965-1.146-1.325-1.665
			c-0.564,0.381-1.235,0.604-1.954,0.655c0.505,0.789,1.123,1.609,1.865,2.424l-2.075,2.075c-0.699-0.981-1.115-2.177-1.115-3.471
			c0-0.383,0.043-0.756,0.113-1.119c-0.697-0.166-1.321-0.511-1.823-0.989c-0.184,0.673-0.29,1.377-0.29,2.108c0,4.418,3.582,8,8,8
			c0.71,0,1.395-0.102,2.05-0.275c-0.475-0.505-0.819-1.131-0.981-1.83c-0.348,0.064-0.703,0.105-1.069,0.105
			c-1.294,0-2.49-0.416-3.471-1.115l2.077-2.078c0.802,0.73,1.609,1.341,2.386,1.842c0.062-0.719,0.299-1.385,0.691-1.945
			c-0.527-0.365-1.081-0.782-1.665-1.309l1.377-1.377c0.526,0.583,0.962,1.143,1.322,1.661c0.563-0.382,1.234-0.606,1.953-0.658
			c-0.504-0.787-1.121-1.605-1.86-2.418l2.075-2.075c0.699,0.981,1.115,2.177,1.115,3.471c0,0.381-0.043,0.752-0.112,1.113
			c0.697,0.167,1.321,0.512,1.823,0.99c0.183-0.671,0.289-1.374,0.289-2.102C995.209,108.915,991.627,105.333,987.209,105.333z"/>
		<g id="XMLID_6_">
			<circle id="XMLID_8_" class="st9" cx="982.25" cy="108.337" r="2"/>
			<circle id="XMLID_7_" class="st9" cx="992.167" cy="118.329" r="2"/>
		</g>
	</g>
	<g>
		<path class="st8" d="M1018.021,108.551c0.793,0.858,1.61,1.814,2.45,2.869c0.522-1.26,0.831-2.632,0.924-4.115h-3.836v-0.98h4.746
			v0.742c-0.075,1.923-0.472,3.654-1.19,5.194c0.579,0.774,1.12,1.563,1.624,2.365l-0.728,0.729
			c-0.401-0.672-0.863-1.377-1.386-2.114c-0.766,1.335-1.797,2.539-3.094,3.612l-0.588-0.882c1.316-1.009,2.338-2.198,3.066-3.57
			c-0.756-1.018-1.643-2.091-2.66-3.22L1018.021,108.551z M1023.789,110.259c0.952,1.166,1.675,2.188,2.17,3.065l-0.798,0.561
			c-0.56-0.971-1.274-1.993-2.142-3.066L1023.789,110.259z M1023.034,107.641h4.06v-2.744h1.008v2.744h1.554v0.966h-1.554v7.7
			c0,0.942-0.481,1.414-1.442,1.414h-2.198l-0.21-0.994c0.812,0.046,1.498,0.069,2.058,0.069c0.522,0,0.784-0.247,0.784-0.741
			v-7.448h-4.06V107.641z"/>
		<path class="st8" d="M1033.127,106.786c-0.355,0.672-0.751,1.279-1.19,1.82l-0.868-0.546c0.849-1.018,1.465-2.119,1.848-3.305
			l0.966,0.21c-0.131,0.402-0.247,0.724-0.35,0.967h3.57v0.854h-2.45c0.383,0.485,0.695,0.938,0.938,1.358l-0.91,0.336
			c-0.346-0.653-0.705-1.218-1.078-1.694H1033.127z M1032.707,109.097h4.144v-0.868h1.008v0.868h4.088v0.896h-4.088v1.316h5.684
			v0.882h-2.674v1.357h2.072v0.91h-2.072v2.143c0,0.774-0.416,1.162-1.246,1.162h-2.03l-0.21-0.952
			c0.747,0.046,1.377,0.069,1.89,0.069c0.392,0,0.588-0.173,0.588-0.518v-1.904h-7.882v-0.91h7.882v-1.357h-8.708v-0.882h5.698
			v-1.316h-4.144V109.097z M1034.219,114.851c0.812,0.756,1.428,1.414,1.848,1.974l-0.784,0.546
			c-0.448-0.598-1.074-1.269-1.876-2.016L1034.219,114.851z M1038.853,106.759c-0.261,0.522-0.56,1.008-0.896,1.455l-0.84-0.518
			c0.69-0.915,1.185-1.899,1.484-2.954l0.952,0.196c-0.112,0.336-0.224,0.658-0.336,0.966h4.06v0.854h-2.534
			c0.382,0.485,0.686,0.942,0.91,1.371l-0.868,0.336c-0.346-0.625-0.714-1.194-1.106-1.707H1038.853z"/>
		<path class="st8" d="M1054.281,117.511c-0.467,0-1.288-0.01-2.464-0.028c-0.887-0.01-1.61-0.094-2.17-0.252
			c-0.532-0.168-1.022-0.509-1.47-1.022c-0.177-0.232-0.354-0.35-0.532-0.35c-0.327,0-0.877,0.644-1.652,1.932l-0.756-0.686
			c0.747-1.176,1.405-1.891,1.974-2.143v-4.256h-2.002v-0.924h2.94v5.236c0.103,0.074,0.215,0.182,0.336,0.321
			c0.345,0.411,0.705,0.705,1.078,0.883c0.42,0.195,1.041,0.308,1.862,0.336c0.971,0.019,1.876,0.027,2.716,0.027
			c0.429,0,1.101-0.009,2.016-0.027c0.766-0.02,1.288-0.038,1.568-0.057l-0.238,1.009H1054.281z M1046.147,105.148
			c0.98,0.756,1.773,1.479,2.38,2.17l-0.728,0.714c-0.551-0.672-1.33-1.414-2.338-2.226L1046.147,105.148z M1049.115,106.366h2.254
			c0.233-0.588,0.42-1.102,0.56-1.54l0.966,0.225c-0.168,0.504-0.327,0.942-0.476,1.315h4.914v0.938h-5.306
			c-0.411,0.914-0.877,1.75-1.4,2.506h2.254v-1.666h0.966v1.666h3.052v0.924h-3.052v1.666h3.668v0.952h-3.668v2.604h-0.966v-2.604
			h-3.878V112.4h3.878v-1.666h-3.234l-0.224-0.924c0.569-0.682,1.083-1.517,1.54-2.506h-1.848V106.366z"/>
		<path class="st8" d="M1059.405,117.637l-0.21-0.98c0.504,0.037,0.868,0.056,1.092,0.056c0.364,0,0.546-0.2,0.546-0.602v-3.388
			c-0.374,0.149-0.952,0.354-1.736,0.615l-0.252-1.008c0.634-0.158,1.297-0.364,1.988-0.616v-3.136h-1.708v-0.966h1.708v-2.646
			h1.036v2.646h1.162v0.966h-1.162v2.702c0.364-0.177,0.765-0.383,1.204-0.616v1.022c-0.364,0.195-0.765,0.392-1.204,0.588v4.088
			c0,0.85-0.411,1.274-1.232,1.274H1059.405z M1067.343,110.832c-0.14,0.374-0.294,0.737-0.462,1.092h4.802v0.98h-1.54
			c-0.215,1.046-0.649,1.923-1.302,2.632c0.98,0.458,1.899,0.934,2.758,1.428l-0.546,0.813c-0.84-0.514-1.815-1.036-2.926-1.568
			c-0.943,0.682-2.413,1.219-4.41,1.61l-0.392-0.91c1.652-0.299,2.902-0.695,3.752-1.189c-0.728-0.337-1.643-0.724-2.744-1.162
			c0.392-0.598,0.728-1.148,1.008-1.652h-1.876v-0.98h2.394c0.187-0.41,0.359-0.812,0.518-1.203L1067.343,110.832z M1065.761,107.29
			c0.336,0.588,0.667,1.279,0.994,2.072h1.372c0.364-0.653,0.695-1.396,0.994-2.226l0.952,0.336c-0.261,0.699-0.555,1.33-0.882,1.89
			h2.268v0.966h-7.812v-0.966h2.142c-0.299-0.653-0.583-1.213-0.854-1.68L1065.761,107.29z M1067.609,104.84
			c0.149,0.374,0.303,0.817,0.462,1.33h3.136v0.925h-7.238v-0.925h3.08c-0.149-0.4-0.313-0.788-0.49-1.161L1067.609,104.84z
			 M1066.363,112.904c-0.271,0.457-0.537,0.873-0.798,1.246c0.812,0.308,1.596,0.63,2.352,0.966c0.625-0.588,1.05-1.325,1.274-2.212
			H1066.363z"/>
	</g>
</g>
</svg>
