<?xml version="1.0" encoding="UTF-8"?>
<svg width="48px" height="48px" viewBox="0 0 48 48" version="1.1" xmlns="http://www.w3.org/2000/svg" xmlns:xlink="http://www.w3.org/1999/xlink">
    <!-- Generator: Sketch 52.6 (67491) - http://www.bohemiancoding.com/sketch -->
    <title>iPhone 8 Plus Copy 2</title>
    <desc>Created with Sketch.</desc>
    <g id="iPhone-8-Plus-Copy-2" stroke="none" stroke-width="1" fill="none" fill-rule="evenodd">
        <polygon id="Path" fill="#7B848E" fill-rule="nonzero" transform="translate(16.060952, 27.541096) rotate(-270.000000) translate(-16.060952, -27.541096) " points="11.3261847 28.6522069 20.7957188 28.6522069 20.7957188 26.4299847 11.3261847 26.4299847"></polygon>
        <polygon id="Path" fill="#7B848E" fill-rule="nonzero" transform="translate(32.731983, 28.401311) rotate(-270.000000) translate(-32.731983, -28.401311) " points="28.8574308 29.5124219 36.6065347 29.5124219 36.6065347 27.2901997 28.8574308 27.2901997"></polygon>
        <polygon id="Path" fill="#7B848E" fill-rule="nonzero" transform="translate(21.616507, 22.379805) rotate(-270.000000) translate(-21.616507, -22.379805) " points="31.5125647 21.2686943 11.72045 21.2686943 11.72045 23.4909166 31.5125647 23.4909166"></polygon>
        <polygon id="Path-Copy-4" fill="#7B848E" fill-rule="nonzero" transform="translate(27.176427, 25.320666) rotate(-90.000000) translate(-27.176427, -25.320666) " points="34.1316244 24.2095546 20.2212301 24.2095546 20.2212301 26.4317768 34.1316244 26.4317768"></polygon>
        <path d="M24.1043478,46.0173913 C12,46.0173913 2.08695652,36.1043478 2.08695652,24 C2.08695652,11.8956522 12,1.9826087 24.1043478,1.9826087 C35.1652174,1.9826087 44.3478261,10.226087 45.8086957,20.8695652 L47.8956522,20.8695652 C46.3304348,9.07826087 36.3130435,0 24.1043478,0 C10.8521739,0 0.104347826,10.7478261 0.104347826,24 C0.104347826,37.2521739 10.8521739,48 24.1043478,48 C36.3130435,48 46.3304348,38.9217391 47.8956522,27.1304348 L45.8086957,27.1304348 C44.3478261,37.773913 35.1652174,46.0173913 24.1043478,46.0173913 Z" id="Path-Copy-6" fill="#7B848E"></path>
    </g>
</svg>