<?xml version="1.0" encoding="UTF-8"?>
<svg width="32px" height="32px" viewBox="0 0 32 32" version="1.1" xmlns="http://www.w3.org/2000/svg" xmlns:xlink="http://www.w3.org/1999/xlink">
    <!-- Generator: Sketch 52.6 (67491) - http://www.bohemiancoding.com/sketch -->
    <title>建筑服务-32px</title>
    <desc>Created with Sketch.</desc>
    <g id="建筑服务-32px" stroke="none" stroke-width="1" fill="none" fill-rule="evenodd">
        <rect id="Rectangle-Copy" fill="#444444" opacity="0" x="0" y="0" width="32" height="32"></rect>
        <g id="00be2e704b32895dfe1993545e6f3ef3" transform="translate(2.000000, 0.000000)" fill="#00A4FF">
            <path d="M21,22 L21,16 L21,14 L17,14 L17,10 L17,9.4 L17,8 L7,8 L7,9.6 L7,10 L7,22 L6,22 L6,24 L7,24 L9,24 L15,24 L17,24 L19,24 L21,24 L22,24 L22,22 L21,22 Z M9,22 L9,10 L15,10 L15,22 L9,22 Z M17,22 L17,16 L19,16 L19,22 L17,22 Z" id="Shape" fill-rule="nonzero"></path>
            <rect id="Rectangle" x="11" y="12" width="2" height="2"></rect>
            <rect id="Rectangle" x="11" y="15" width="2" height="2"></rect>
            <rect id="Rectangle" x="11" y="18" width="2" height="2"></rect>
            <polygon id="Path" points="14 0 0 8 0 24 14 32 27.999 24 27.999 12.001 26 13.143 26 22.84 14 29.696 1.999 22.84 1.999 9.161 14 2.304 26 9.161 26 9.142 27.999 8"></polygon>
        </g>
    </g>
</svg>