<?xml version="1.0" encoding="UTF-8"?>
<svg width="48px" height="48px" viewBox="0 0 48 48" version="1.1" xmlns="http://www.w3.org/2000/svg" xmlns:xlink="http://www.w3.org/1999/xlink">
    <!-- Generator: Sketch 52.6 (67491) - http://www.bohemiancoding.com/sketch -->
    <title>iPhone 8 Plus Copy 4</title>
    <desc>Created with Sketch.</desc>
    <g id="iPhone-8-Plus-Copy-4" stroke="none" stroke-width="1" fill="none" fill-rule="evenodd">
        <g id="Group-5" transform="translate(12.500000, 7.855295)" fill-rule="nonzero" stroke-width="2">
            <path d="M8.48073437,8.4854416 L4.76920351,18.4210437 L14.7048056,14.7095128 L18.4163364,4.77391075 L8.48073437,8.4854416 Z" id="Rectangle-Copy-29" stroke="#7C848E" transform="translate(11.592770, 11.597477) rotate(-315.000000) translate(-11.592770, -11.597477) "></path>
            <path d="M17.8065639,10.4214381 L15.132099,18.4934737 C14.8716347,19.2796037 14.2553257,19.8966287 13.4694987,20.1580057 L5.37897607,22.8490259" id="Shape-Copy-19" stroke="#7B848E" stroke-linecap="round" stroke-linejoin="round" transform="translate(11.592770, 16.635232) rotate(-315.000000) translate(-11.592770, -16.635232) "></path>
            <path d="M17.8065639,15.7250563 L15.132099,23.7970918 C14.8716347,24.5832219 14.2553257,25.2002469 13.4694987,25.4616239 L5.37897607,28.152644" id="Shape-Copy-20" stroke="#7B848E" stroke-linecap="round" stroke-linejoin="round" transform="translate(11.592770, 21.938850) rotate(-315.000000) translate(-11.592770, -21.938850) "></path>
        </g>
        <path d="M24.1043478,46.0173913 C12,46.0173913 2.08695652,36.1043478 2.08695652,24 C2.08695652,11.8956522 12,1.9826087 24.1043478,1.9826087 C35.1652174,1.9826087 44.3478261,10.226087 45.8086957,20.8695652 L47.8956522,20.8695652 C46.3304348,9.07826087 36.3130435,0 24.1043478,0 C10.8521739,0 0.104347826,10.7478261 0.104347826,24 C0.104347826,37.2521739 10.8521739,48 24.1043478,48 C36.3130435,48 46.3304348,38.9217391 47.8956522,27.1304348 L45.8086957,27.1304348 C44.3478261,37.773913 35.1652174,46.0173913 24.1043478,46.0173913 Z" id="Path-Copy-7" fill="#7C848E"></path>
    </g>
</svg>