<svg xmlns="http://www.w3.org/2000/svg" width="48" height="49" viewBox="0 0 48 49">
  <g fill="none" transform="translate(1 2)">
    <polygon fill="#00A4FF" points="6 13 23 4 40 13 23 21.7 12.7 16.3"/>
    <polygon fill="#00A4FF" points="38 23 36 22 32 24 34 25"/>
    <path fill="#334966" d="M23,32.7 L12.7,27.3 L4.3,23 L12.7,18.599 L23,24 L33.3,18.599 L41.7,23 L23,32.7 Z M41.7,34 L23,43.7 L4.3,34 L12.7,29.599 L23,35 L33.3,29.599 L41.7,34 Z M4.3,12 L23,2.3 L41.7,12 L23,21.7 L12.7,16.3 L4.3,12 Z M35.5,17.5 L46,12 L23,-5.68434189e-14 L0,12 L10.5,17.5 L0,23 L10.5,28.5 L0,34 L23,46 L46,34 L35.5,28.5 L46,23 L35.5,17.5 Z"/>
    <polygon fill="#00A4FF" points="34 36 38 34 36 33 32 35"/>
  </g>
</svg>
