<?xml version="1.0" encoding="UTF-8"?>
<svg width="48px" height="48px" viewBox="0 0 48 48" version="1.1" xmlns="http://www.w3.org/2000/svg" xmlns:xlink="http://www.w3.org/1999/xlink">
    <!-- Generator: Sketch 52.6 (67491) - http://www.bohemiancoding.com/sketch -->
    <title>iPhone 8 Plus Copy</title>
    <desc>Created with Sketch.</desc>
    <g id="iPhone-8-Plus-Copy" stroke="none" stroke-width="1" fill="none" fill-rule="evenodd">
        <g id="Group-11" transform="translate(0.000000, -1.000000)" fill="#7B848E">
            <polygon id="Path-Copy-12" fill-rule="nonzero" transform="translate(30.594993, 24.800519) rotate(-270.000000) translate(-30.594993, -24.800519) " points="38.4910503 23.689408 22.6989356 23.689408 22.6989356 25.9116302 38.4910503 25.9116302"></polygon>
            <polygon id="Path-Copy-15" fill-rule="nonzero" points="24.6777044 26.4762903 16.9139894 26.4762903 16.9139894 28.6985126 24.6777044 28.6985126"></polygon>
            <polygon id="Path-Copy-13" fill-rule="nonzero" transform="translate(17.961204, 24.800519) rotate(-270.000000) translate(-17.961204, -24.800519) " points="25.8572613 26.189408 10.0651466 21.189408 10.0651466 23.4116302 25.8572613 28.4116302"></polygon>
            <polygon id="Path-Copy-14" fill-rule="nonzero" transform="translate(23.539437, 24.800519) scale(-1, 1) rotate(-270.000000) translate(-23.539437, -24.800519) " points="31.4354948 26.189408 15.6433801 21.189408 15.6433801 23.4116302 31.4354948 28.4116302"></polygon>
            <path d="M24.3824463,46.9613516 C12.2780985,46.9613516 2.36505498,37.0483081 2.36505498,24.9439603 C2.36505498,12.8396124 12.2780985,2.92656896 24.3824463,2.92656896 C35.4433159,2.92656896 44.6259245,11.1700472 46.0867941,21.8135255 L48.1737506,21.8135255 C46.6085332,10.0222211 36.5911419,0.943960267 24.3824463,0.943960267 C11.1302724,0.943960267 0.382446289,11.6917864 0.382446289,24.9439603 C0.382446289,38.1961342 11.1302724,48.9439603 24.3824463,48.9439603 C36.5911419,48.9439603 46.6085332,39.8656994 48.1737506,28.074395 L46.0867941,28.074395 C44.6259245,38.7178733 35.4433159,46.9613516 24.3824463,46.9613516 Z" id="Path-Copy-2"></path>
        </g>
    </g>
</svg>