<?xml version="1.0" encoding="UTF-8"?>
<svg width="830px" height="371px" viewBox="0 0 830 371" version="1.1" xmlns="http://www.w3.org/2000/svg" xmlns:xlink="http://www.w3.org/1999/xlink">
    <!-- Generator: Sketch 54.1 (76490) - https://sketchapp.com -->
    <title>敏捷开发实战</title>
    <desc>Created with Sketch.</desc>
    <defs>
        <rect id="path-1" x="0" y="0" width="132" height="50"></rect>
        <filter x="-1.5%" y="-2.0%" width="103.0%" height="108.0%" filterUnits="objectBoundingBox" id="filter-2">
            <feOffset dx="0" dy="1" in="SourceAlpha" result="shadowOffsetOuter1"></feOffset>
            <feGaussianBlur stdDeviation="0.5" in="shadowOffsetOuter1" result="shadowBlurOuter1"></feGaussianBlur>
            <feColorMatrix values="0 0 0 0 0   0 0 0 0 0   0 0 0 0 0  0 0 0 0.35 0" type="matrix" in="shadowBlurOuter1"></feColorMatrix>
        </filter>
        <rect id="path-3" x="0" y="0" width="132" height="50"></rect>
        <filter x="-1.5%" y="-2.0%" width="103.0%" height="108.0%" filterUnits="objectBoundingBox" id="filter-4">
            <feOffset dx="0" dy="1" in="SourceAlpha" result="shadowOffsetOuter1"></feOffset>
            <feGaussianBlur stdDeviation="0.5" in="shadowOffsetOuter1" result="shadowBlurOuter1"></feGaussianBlur>
            <feColorMatrix values="0 0 0 0 0   0 0 0 0 0   0 0 0 0 0  0 0 0 0.35 0" type="matrix" in="shadowBlurOuter1"></feColorMatrix>
        </filter>
        <rect id="path-5" x="0" y="0" width="132" height="50"></rect>
        <filter x="-1.5%" y="-2.0%" width="103.0%" height="108.0%" filterUnits="objectBoundingBox" id="filter-6">
            <feOffset dx="0" dy="1" in="SourceAlpha" result="shadowOffsetOuter1"></feOffset>
            <feGaussianBlur stdDeviation="0.5" in="shadowOffsetOuter1" result="shadowBlurOuter1"></feGaussianBlur>
            <feColorMatrix values="0 0 0 0 0   0 0 0 0 0   0 0 0 0 0  0 0 0 0.35 0" type="matrix" in="shadowBlurOuter1"></feColorMatrix>
        </filter>
        <rect id="path-7" x="0" y="0" width="132" height="50"></rect>
        <filter x="-1.5%" y="-2.0%" width="103.0%" height="108.0%" filterUnits="objectBoundingBox" id="filter-8">
            <feOffset dx="0" dy="1" in="SourceAlpha" result="shadowOffsetOuter1"></feOffset>
            <feGaussianBlur stdDeviation="0.5" in="shadowOffsetOuter1" result="shadowBlurOuter1"></feGaussianBlur>
            <feColorMatrix values="0 0 0 0 0   0 0 0 0 0   0 0 0 0 0  0 0 0 0.35 0" type="matrix" in="shadowBlurOuter1"></feColorMatrix>
        </filter>
        <rect id="path-9" x="0" y="0" width="80" height="50"></rect>
        <filter x="-2.5%" y="-2.0%" width="105.0%" height="108.0%" filterUnits="objectBoundingBox" id="filter-10">
            <feOffset dx="0" dy="1" in="SourceAlpha" result="shadowOffsetOuter1"></feOffset>
            <feGaussianBlur stdDeviation="0.5" in="shadowOffsetOuter1" result="shadowBlurOuter1"></feGaussianBlur>
            <feColorMatrix values="0 0 0 0 0   0 0 0 0 0   0 0 0 0 0  0 0 0 0.35 0" type="matrix" in="shadowBlurOuter1"></feColorMatrix>
        </filter>
        <rect id="path-11" x="0" y="-4.54747351e-13" width="80" height="50"></rect>
        <filter x="-2.5%" y="-2.0%" width="105.0%" height="108.0%" filterUnits="objectBoundingBox" id="filter-12">
            <feOffset dx="0" dy="1" in="SourceAlpha" result="shadowOffsetOuter1"></feOffset>
            <feGaussianBlur stdDeviation="0.5" in="shadowOffsetOuter1" result="shadowBlurOuter1"></feGaussianBlur>
            <feColorMatrix values="0 0 0 0 0   0 0 0 0 0   0 0 0 0 0  0 0 0 0.35 0" type="matrix" in="shadowBlurOuter1"></feColorMatrix>
        </filter>
        <rect id="path-13" x="0" y="0" width="80" height="50"></rect>
        <filter x="-2.5%" y="-2.0%" width="105.0%" height="108.0%" filterUnits="objectBoundingBox" id="filter-14">
            <feOffset dx="0" dy="1" in="SourceAlpha" result="shadowOffsetOuter1"></feOffset>
            <feGaussianBlur stdDeviation="0.5" in="shadowOffsetOuter1" result="shadowBlurOuter1"></feGaussianBlur>
            <feColorMatrix values="0 0 0 0 0   0 0 0 0 0   0 0 0 0 0  0 0 0 0.35 0" type="matrix" in="shadowBlurOuter1"></feColorMatrix>
        </filter>
        <rect id="path-15" x="0" y="237" width="80" height="50"></rect>
        <filter x="-2.5%" y="-2.0%" width="105.0%" height="108.0%" filterUnits="objectBoundingBox" id="filter-16">
            <feOffset dx="0" dy="1" in="SourceAlpha" result="shadowOffsetOuter1"></feOffset>
            <feGaussianBlur stdDeviation="0.5" in="shadowOffsetOuter1" result="shadowBlurOuter1"></feGaussianBlur>
            <feColorMatrix values="0 0 0 0 0   0 0 0 0 0   0 0 0 0 0  0 0 0 0.35 0" type="matrix" in="shadowBlurOuter1"></feColorMatrix>
        </filter>
    </defs>
    <g id="介绍页配图设计" stroke="none" stroke-width="1" fill="none" fill-rule="evenodd">
        <g id="应用场景复制" transform="translate(-201.000000, -4170.000000)">
            <g id="流程1-copy-2复制-9" transform="translate(201.000000, 4170.000000)">
                <g id="编组-15" transform="translate(11.000000, 0.000000)">
                    <g id="XMLID_25_" transform="translate(0.000000, 141.000000)">
                        <g id="分组-copy">
                            <g id="XMLID_134_">
                                <use fill="black" fill-opacity="1" filter="url(#filter-2)" xlink:href="#path-1"></use>
                                <use fill="#FFFFFF" fill-rule="evenodd" xlink:href="#path-1"></use>
                            </g>
                            <path d="M58.982,23.448 L58.982,25.898 L62.538,25.898 L62.538,23.448 L58.982,23.448 Z M58.926,26.822 C58.772,28.614 58.254,30.098 57.358,31.274 L56.588,30.588 C57.484,29.342 57.946,27.76 57.974,25.842 L57.974,19.122 L68.404,19.122 L68.404,29.608 C68.404,30.588 67.914,31.078 66.934,31.078 L65.324,31.078 L65.058,30.084 C65.618,30.112 66.136,30.14 66.612,30.14 C67.116,30.14 67.382,29.846 67.382,29.258 L67.382,26.822 L63.574,26.822 L63.574,30.924 L62.538,30.924 L62.538,26.822 L58.926,26.822 Z M67.382,25.898 L67.382,23.448 L63.574,23.448 L63.574,25.898 L67.382,25.898 Z M67.382,22.51 L67.382,20.102 L63.574,20.102 L63.574,22.51 L67.382,22.51 Z M62.538,20.102 L58.982,20.102 L58.982,22.51 L62.538,22.51 L62.538,20.102 Z M81.186,21.278 L73.192,21.278 L73.192,24.008 L81.186,24.008 L81.186,21.278 Z M73.192,24.988 C73.122,27.494 72.464,29.65 71.204,31.456 L70.462,30.784 C71.596,29.216 72.17,27.172 72.198,24.666 L72.198,20.284 L76.762,20.284 C76.51,19.696 76.244,19.15 75.95,18.646 L77.028,18.478 C77.28,19.01 77.532,19.612 77.784,20.284 L82.208,20.284 L82.208,24.988 L73.192,24.988 Z M91.476,23.77 C91.182,24.246 90.86,24.68 90.524,25.072 L89.908,24.302 C91.084,22.874 91.896,20.942 92.316,18.534 L93.254,18.716 C93.1,19.514 92.918,20.256 92.708,20.956 L97.202,20.956 L97.202,21.936 L96.11,21.936 C96.026,24.316 95.466,26.318 94.444,27.956 C95.284,29.076 96.264,29.958 97.412,30.602 L96.852,31.442 C95.704,30.77 94.724,29.874 93.884,28.74 C93.072,29.776 92.064,30.644 90.86,31.344 L90.328,30.504 C91.574,29.818 92.568,28.964 93.324,27.928 C92.582,26.738 91.966,25.352 91.476,23.77 Z M92.358,21.936 C92.246,22.188 92.148,22.44 92.05,22.678 C92.498,24.414 93.1,25.884 93.856,27.102 C94.654,25.66 95.088,23.938 95.158,21.936 L92.358,21.936 Z M90.258,25.324 L90.258,30.196 L86.338,30.196 L86.338,31.19 L85.372,31.19 L85.372,25.324 L87.318,25.324 L87.318,22.454 L84.784,22.454 L84.784,21.474 L87.318,21.474 L87.318,18.744 L88.284,18.744 L88.284,21.474 L90.664,21.474 L90.664,22.454 L88.284,22.454 L88.284,25.324 L90.258,25.324 Z M86.338,29.286 L89.278,29.286 L89.278,26.234 L86.338,26.234 L86.338,29.286 Z M100.352,21.096 L104.496,21.096 L104.496,20.228 L99.008,20.228 L99.008,19.36 L104.496,19.36 L104.496,18.52 L105.504,18.52 L105.504,19.36 L110.992,19.36 L110.992,20.228 L105.504,20.228 L105.504,21.096 L109.648,21.096 L109.648,23.826 L105.504,23.826 L105.504,24.694 L109.844,24.694 L109.844,26.584 L111.37,26.584 L111.37,27.41 L109.844,27.41 L109.844,29.244 L105.504,29.244 L105.504,30.168 C105.504,30.952 105.084,31.344 104.258,31.344 L102.536,31.344 L102.326,30.392 C102.886,30.434 103.418,30.462 103.922,30.462 C104.3,30.462 104.496,30.28 104.496,29.93 L104.496,29.244 L99.89,29.244 L99.89,28.432 L104.496,28.432 L104.496,27.41 L98.63,27.41 L98.63,26.584 L104.496,26.584 L104.496,25.506 L99.89,25.506 L99.89,24.694 L104.496,24.694 L104.496,23.826 L100.352,23.826 L100.352,21.096 Z M108.64,23.056 L108.64,21.866 L105.504,21.866 L105.504,23.056 L108.64,23.056 Z M104.496,23.056 L104.496,21.866 L101.36,21.866 L101.36,23.056 L104.496,23.056 Z M105.504,25.506 L105.504,26.584 L108.878,26.584 L108.878,25.506 L105.504,25.506 Z M108.878,27.41 L105.504,27.41 L105.504,28.432 L108.878,28.432 L108.878,27.41 Z" id="用户故事" fill="#444444" fill-rule="nonzero"></path>
                            <g id="project-menu/requirements" transform="translate(19.000000, 11.000000)">
                                <rect id="Rectangle" fill="#000000" opacity="0" x="0" y="0" width="28" height="28"></rect>
                                <path d="M17.28125,24.28125 L10.71875,24.28125 C10.5984375,24.28125 10.5,24.3796875 10.5,24.5 L10.5,25.375 C10.5,25.8589844 10.8910156,26.25 11.375,26.25 L16.625,26.25 C17.1089844,26.25 17.5,25.8589844 17.5,25.375 L17.5,24.5 C17.5,24.3796875 17.4015625,24.28125 17.28125,24.28125 Z M14,1.75 C9.04804688,1.75 5.03125,5.76679687 5.03125,10.71875 C5.03125,14.0382812 6.8359375,16.9367188 9.515625,18.4871094 L9.515625,21.65625 C9.515625,22.1402344 9.90664062,22.53125 10.390625,22.53125 L17.609375,22.53125 C18.0933594,22.53125 18.484375,22.1402344 18.484375,21.65625 L18.484375,18.4871094 C21.1640625,16.9367188 22.96875,14.0382813 22.96875,10.71875 C22.96875,5.76679687 18.9519531,1.75 14,1.75 Z M17.4972656,16.7835938 L16.515625,17.3523438 L16.515625,20.5625 L11.484375,20.5625 L11.484375,17.3523438 L10.5027344,16.7835938 C8.35078125,15.5394531 7,13.2480469 7,10.71875 C7,6.85234375 10.1335938,3.71875 14,3.71875 C17.8664062,3.71875 21,6.85234375 21,10.71875 C21,13.2480469 19.6492188,15.5394531 17.4972656,16.7835938 Z" id="Shape" fill="#00A4FF" fill-rule="nonzero"></path>
                            </g>
                        </g>
                    </g>
                    <g id="XMLID_25_复制-7" transform="translate(168.000000, 141.000000)">
                        <g id="分组-copy">
                            <g id="XMLID_134_">
                                <use fill="black" fill-opacity="1" filter="url(#filter-4)" xlink:href="#path-3"></use>
                                <use fill="#FFFFFF" fill-rule="evenodd" xlink:href="#path-3"></use>
                            </g>
                            <path d="M56.994,20.592 L58.996,20.592 L58.996,18.674 L60.004,18.674 L60.004,20.592 L61.866,20.592 L61.866,21.558 L60.004,21.558 L60.004,23.868 L62.062,23.868 L62.062,24.848 L59.948,24.848 C59.92,25.212 59.878,25.562 59.836,25.898 C60.62,26.64 61.432,27.494 62.244,28.446 L61.684,29.314 C60.9,28.25 60.228,27.424 59.682,26.822 C59.276,28.796 58.506,30.336 57.358,31.442 L56.616,30.784 C57.974,29.468 58.744,27.494 58.94,24.848 L56.798,24.848 L56.798,23.868 L58.996,23.868 L58.996,21.558 L56.994,21.558 L56.994,20.592 Z M68.362,19.15 L68.362,26.836 L67.396,26.836 L67.396,20.088 L63.658,20.088 L63.658,26.836 L62.692,26.836 L62.692,19.15 L68.362,19.15 Z M67.984,31.218 L66.822,31.218 C66.094,31.218 65.744,30.826 65.744,30.056 L65.744,26.906 L66.654,26.906 L66.654,29.846 C66.654,30.154 66.794,30.308 67.102,30.308 L67.816,30.308 C68.054,30.308 68.222,30.238 68.32,30.098 C68.446,29.916 68.53,29.384 68.586,28.516 L69.454,28.796 C69.37,29.944 69.202,30.644 68.978,30.896 C68.754,31.106 68.432,31.218 67.984,31.218 Z M65.072,21.25 L65.982,21.25 L65.982,23.728 C65.954,25.814 65.576,27.48 64.862,28.726 C64.162,29.874 63.014,30.784 61.446,31.442 L60.914,30.588 C62.454,29.958 63.532,29.104 64.148,28.04 C64.722,26.934 65.03,25.492 65.072,23.728 L65.072,21.25 Z M79.002,19.78 L79.982,19.78 L79.982,28.516 L79.002,28.516 L79.002,19.78 Z M81.494,31.274 L79.478,31.274 L79.254,30.308 C79.926,30.35 80.556,30.378 81.144,30.378 C81.578,30.378 81.802,30.154 81.802,29.72 L81.802,18.604 L82.81,18.604 L82.81,29.972 C82.81,30.84 82.362,31.274 81.494,31.274 Z M77.602,21.684 L77.756,22.664 L73.696,23.294 C73.78,24.05 73.878,24.722 74.004,25.338 C74.13,25.94 74.27,26.472 74.424,26.948 C75.25,26.01 75.95,24.904 76.524,23.63 L77.406,24.092 C76.706,25.66 75.838,26.99 74.816,28.054 C74.956,28.404 75.11,28.712 75.264,28.992 C75.782,29.818 76.258,30.238 76.678,30.252 C76.93,30.21 77.182,29.482 77.462,28.054 L78.316,28.6 C78.12,29.328 77.91,29.93 77.686,30.42 C77.406,31.008 77.084,31.316 76.734,31.316 C76.09,31.316 75.446,30.868 74.802,29.972 C74.55,29.608 74.312,29.202 74.102,28.74 C73.206,29.496 72.226,30.112 71.148,30.56 L70.546,29.65 C71.722,29.188 72.772,28.544 73.682,27.704 C73.486,27.186 73.318,26.626 73.164,26.01 C72.968,25.282 72.828,24.428 72.716,23.448 L70.896,23.728 L70.742,22.748 L72.618,22.454 C72.506,21.306 72.45,20.018 72.45,18.59 L73.486,18.59 C73.486,19.962 73.528,21.194 73.612,22.3 L77.602,21.684 Z M75.334,18.534 C75.866,19.164 76.356,19.85 76.832,20.592 L75.978,21.012 C75.516,20.242 75.026,19.556 74.508,18.94 L75.334,18.534 Z M90.552,21.838 C90.202,22.426 89.782,22.944 89.306,23.392 L88.69,22.622 C89.642,21.726 90.272,20.522 90.608,18.996 L91.574,19.178 C91.434,19.794 91.252,20.354 91.028,20.886 L92.722,20.886 L92.722,18.548 L93.702,18.548 L93.702,20.886 L96.432,20.886 L96.432,21.838 L93.688,21.838 C93.66,22.664 93.576,23.42 93.464,24.12 L97.02,24.12 L97.02,25.086 L93.254,25.086 C93.198,25.268 93.156,25.436 93.1,25.604 C94.668,26.64 95.984,27.69 97.048,28.726 L96.32,29.44 C95.438,28.488 94.262,27.48 92.792,26.43 C92.736,26.514 92.694,26.598 92.666,26.682 C92.008,27.886 90.944,28.824 89.474,29.496 L88.928,28.642 C90.342,27.97 91.336,27.088 91.896,25.982 C92.022,25.688 92.134,25.394 92.232,25.086 L88.858,25.086 L88.858,24.12 L92.47,24.12 C92.596,23.42 92.68,22.65 92.708,21.838 L90.552,21.838 Z M85.848,18.702 C86.758,19.43 87.528,20.144 88.144,20.872 L87.43,21.586 C86.87,20.886 86.114,20.144 85.148,19.36 L85.848,18.702 Z M93.898,31.148 C93.142,31.148 92.33,31.134 91.448,31.12 C90.566,31.106 89.838,31.022 89.278,30.868 C88.746,30.7 88.256,30.35 87.822,29.846 C87.64,29.608 87.458,29.496 87.29,29.496 C86.954,29.496 86.394,30.14 85.61,31.456 L84.854,30.77 C85.61,29.58 86.268,28.852 86.856,28.6 L86.856,24.344 L84.854,24.344 L84.854,23.42 L87.794,23.42 L87.794,28.67 C87.906,28.754 88.004,28.852 88.116,28.978 C88.452,29.384 88.802,29.678 89.194,29.86 C89.614,30.056 90.244,30.168 91.056,30.196 C91.784,30.21 92.68,30.224 93.758,30.224 C94.43,30.224 95.116,30.21 95.816,30.196 C96.488,30.182 97.02,30.168 97.398,30.14 L97.146,31.148 L93.898,31.148 Z M110.754,21.908 L110.908,22.874 L106.288,23.462 C106.372,24.358 106.484,25.128 106.624,25.772 C106.96,27.228 107.422,28.348 108.024,29.16 C108.57,29.916 109.088,30.294 109.564,30.308 C109.942,30.294 110.222,29.398 110.418,27.634 L111.3,28.138 C111.118,29.286 110.88,30.14 110.572,30.7 C110.32,31.106 109.998,31.316 109.62,31.33 C108.934,31.33 108.22,30.882 107.492,30 C106.694,29.02 106.106,27.746 105.714,26.178 C105.532,25.478 105.392,24.624 105.294,23.588 L102.256,23.98 L102.102,23.014 L105.21,22.608 C105.112,21.432 105.056,20.074 105.042,18.534 L106.078,18.534 C106.078,20.032 106.12,21.348 106.204,22.482 L110.754,21.908 Z M100.352,23.546 C99.876,24.19 99.344,24.792 98.784,25.38 L98.462,24.33 C100.002,22.636 101.108,20.69 101.808,18.506 L102.746,18.954 C102.382,20.018 101.934,21.026 101.388,21.964 L101.388,31.428 L100.352,31.428 L100.352,23.546 Z M107.604,18.632 C108.458,19.346 109.186,20.06 109.774,20.76 L109.074,21.446 C108.57,20.76 107.856,20.032 106.96,19.262 L107.604,18.632 Z" id="规划迭代" fill="#444444" fill-rule="nonzero"></path>
                            <g id="project-menu/iteration" transform="translate(19.000000, 12.000000)">
                                <g>
                                    <rect id="Rectangle" fill="#000000" opacity="0" x="0" y="0" width="28" height="28"></rect>
                                    <path d="M12.9717778,4.51111111 L11.6666667,4.51111111 L13.0277778,3.14844444 C13.3917778,2.78444444 13.3917778,2.19333333 13.0277778,1.82933333 C12.6637778,1.46377778 12.0726667,1.46377778 11.7071111,1.82933333 L8.75155556,4.78488889 C8.38755556,5.14888889 8.38755556,5.74 8.75155556,6.104 L11.7071111,9.05955556 C11.8906667,9.24155556 12.1286667,9.33333333 12.3682222,9.33333333 C12.6062222,9.33333333 12.8457778,9.24155556 13.0277778,9.05955556 C13.3917778,8.69555556 13.3917778,8.10444444 13.0277778,7.74044444 L11.6666667,6.37777778 L12.9717778,6.37777778 C17.1748889,6.37777778 20.594,9.79688889 20.594,14 C20.594,18.2031111 17.1748889,21.6222222 12.9717778,21.6222222 L2.33333333,21.6222222 C1.81844444,21.6222222 1.4,22.0406667 1.4,22.5555556 C1.4,23.0704444 1.81844444,23.4888889 2.33333333,23.4888889 L12.9717778,23.4888889 C18.2046667,23.4888889 22.4606667,19.2313333 22.4606667,14 C22.4606667,8.76711111 18.2046667,4.51111111 12.9717778,4.51111111 Z" id="Fill-1" fill="#00A4FF"></path>
                                    <path d="M8.00566667,19.7345556 C6.39255556,18.3376667 5.34877778,16.2983333 5.34877778,13.9992222 C5.34877778,11.7296667 6.36144444,9.60477778 8.08188889,8.16277778 L6.75344444,6.83433333 C4.68766667,8.62477778 3.48211111,11.2287778 3.48211111,13.9992222 C3.48211111,16.1552222 4.21322222,18.1401111 5.42966667,19.7345556 L8.00566667,19.7345556 Z" id="Fill-4" fill="#00A4FF"></path>
                                    <path d="M23.8816667,19.0963111 C23.5192222,18.7323111 22.9281111,18.7323111 22.561,19.0947556 C22.197,19.4587556 22.197,20.0498667 22.561,20.4138667 L23.7688889,21.6225333 L21.2652222,21.6225333 C20.6103333,22.3349778 19.8698889,22.9634222 19.0532222,23.4876444 L23.7688889,23.4876444 L22.561,24.6963111 C22.197,25.0618667 22.197,25.6529778 22.561,26.0169778 C22.7445556,26.1974222 22.9825556,26.2892 23.2221111,26.2892 C23.4616667,26.2892 23.6996667,26.1974222 23.8816667,26.0154222 L26.6816667,23.2154222 C27.0456667,22.8498667 27.0456667,22.2603111 26.6816667,21.8963111 L23.8816667,19.0963111 Z" id="Fill-6" fill="#00A4FF"></path>
                                </g>
                            </g>
                        </g>
                    </g>
                    <g id="XMLID_25_复制-9" transform="translate(509.000000, 141.000000)">
                        <g id="分组-copy">
                            <g id="XMLID_134_">
                                <use fill="black" fill-opacity="1" filter="url(#filter-6)" xlink:href="#path-5"></use>
                                <use fill="#FFFFFF" fill-rule="evenodd" xlink:href="#path-5"></use>
                            </g>
                            <path d="M62.594,19.08 L68.404,19.08 L68.404,23.126 L62.594,23.126 L62.594,19.08 Z M67.424,22.216 L67.424,19.976 L63.588,19.976 L63.588,22.216 L67.424,22.216 Z M62.048,24.428 L69.006,24.428 L69.006,25.352 L65.954,25.352 L65.954,27.144 L68.572,27.144 L68.572,28.054 L65.954,28.054 L65.954,29.944 L69.342,29.944 L69.342,30.896 L61.488,30.896 L61.488,29.944 L64.918,29.944 L64.918,28.054 L62.37,28.054 L62.37,27.144 L64.918,27.144 L64.918,25.352 L62.048,25.352 L62.048,24.428 Z M56.812,22.398 L58.856,22.398 L58.856,20.368 C58.268,20.452 57.652,20.536 57.022,20.606 L56.826,19.654 C58.576,19.486 60.13,19.192 61.474,18.772 L61.824,19.724 C61.194,19.906 60.522,20.06 59.822,20.2 L59.822,22.398 L61.628,22.398 L61.628,23.364 L59.822,23.364 L59.822,24.106 C60.48,24.75 61.152,25.478 61.824,26.276 L61.264,27.116 C60.704,26.248 60.214,25.548 59.822,25.03 L59.822,31.344 L58.856,31.344 L58.856,25.03 C58.366,26.402 57.722,27.634 56.924,28.74 L56.49,27.62 C57.554,26.374 58.31,24.96 58.758,23.364 L56.812,23.364 L56.812,22.398 Z M77.532,18.506 C77.728,18.87 77.924,19.276 78.106,19.724 L83.174,19.724 L83.174,20.648 L72.842,20.648 L72.842,24.246 C72.786,27.214 72.296,29.58 71.344,31.372 L70.588,30.7 C71.386,29.146 71.806,26.99 71.834,24.246 L71.834,19.724 L77.098,19.724 C76.916,19.346 76.72,18.996 76.51,18.674 L77.532,18.506 Z M76.314,23.308 C76.986,23.644 77.602,23.994 78.162,24.344 C79.002,23.854 79.772,23.28 80.472,22.636 L74.298,22.636 L74.298,21.768 L81.732,21.768 L81.732,22.496 C80.878,23.406 79.94,24.19 78.932,24.848 C79.156,24.988 79.366,25.142 79.562,25.296 L79.352,25.506 L82.908,25.506 L82.908,26.29 C82.334,27.382 81.69,28.306 80.976,29.062 L80.22,28.46 C80.808,27.9 81.34,27.228 81.83,26.444 L78.61,26.444 L78.61,30.182 C78.61,31.008 78.19,31.428 77.364,31.428 L75.306,31.428 L75.096,30.476 C75.768,30.518 76.412,30.546 77.028,30.546 C77.406,30.546 77.602,30.336 77.602,29.944 L77.602,26.444 L73.486,26.444 L73.486,25.506 L78.47,25.506 C77.742,25.002 76.818,24.456 75.712,23.896 L76.314,23.308 Z M85.624,22.86 L86.73,18.968 L87.724,19.136 L86.926,21.894 L89.376,21.894 C89.656,20.802 89.88,19.668 90.048,18.464 L91.07,18.59 C90.888,19.766 90.664,20.858 90.412,21.894 L96.964,21.894 L96.964,22.86 L90.146,22.86 C89.978,23.42 89.81,23.952 89.614,24.456 L95.34,24.456 L95.34,25.324 C94.962,26.528 94.206,27.62 93.058,28.6 C94.192,29.272 95.578,29.888 97.202,30.448 L96.684,31.386 C94.892,30.728 93.408,30.014 92.232,29.244 C91.084,30.056 89.656,30.784 87.962,31.442 L87.43,30.504 C88.998,29.93 90.3,29.3 91.35,28.614 C90.258,27.774 89.488,26.864 89.026,25.884 C88.004,28.096 86.688,29.846 85.092,31.148 L84.574,30.224 C86.618,28.432 88.116,25.982 89.096,22.86 L85.624,22.86 Z M89.782,25.38 C90.258,26.332 91.056,27.214 92.176,28.026 C93.212,27.214 93.926,26.332 94.318,25.38 L89.782,25.38 Z M93.422,18.576 C94.43,19.346 95.256,20.116 95.928,20.886 L95.214,21.6 C94.626,20.858 93.8,20.074 92.75,19.234 L93.422,18.576 Z M105.406,22.244 L106.372,22.244 L106.372,23.952 L110.32,23.952 L110.32,28.656 C110.32,29.524 109.872,29.972 109.004,29.972 L107.688,29.972 L107.436,29.034 L108.682,29.062 C109.13,29.062 109.354,28.852 109.354,28.446 L109.354,24.89 L106.372,24.89 L106.372,31.4 L105.406,31.4 L105.406,24.89 L102.41,24.89 L102.41,30.07 L101.444,30.07 L101.444,24.708 C100.744,25.422 99.988,26.094 99.162,26.724 L98.518,25.884 C100.296,24.568 101.696,23.07 102.718,21.362 L98.98,21.362 L98.98,20.382 L103.25,20.382 C103.558,19.766 103.81,19.15 104.02,18.506 L105.042,18.632 C104.846,19.248 104.622,19.836 104.37,20.382 L111.16,20.382 L111.16,21.362 L103.88,21.362 C103.376,22.286 102.788,23.154 102.116,23.952 L105.406,23.952 L105.406,22.244 Z" id="程序发布" fill="#444444" fill-rule="nonzero"></path>
                            <path d="M46,13.9099279 C46,13.9086383 45.9999103,13.9073788 45.9999103,13.9060293 C45.9998855,13.8812854 45.9988378,13.8565532 45.99677,13.8318964 C45.9962316,13.8248189 45.995454,13.8178015 45.9947661,13.8107541 C45.9926292,13.7900983 45.9897763,13.7695234 45.9862125,13.7490666 C45.9852256,13.7433387 45.9844779,13.7376108 45.9833713,13.7319129 C45.9785922,13.7073259 45.9728152,13.6829445 45.9660547,13.6588295 C45.9639612,13.6513922 45.9614788,13.6440749 45.9591759,13.6367276 C45.9538872,13.6195025 45.9480824,13.602441 45.9417696,13.5855663 C45.9384199,13.5767195 45.9351301,13.5678727 45.9315411,13.5590559 C45.922909,13.537923 45.9134813,13.5171257 45.9032783,13.4967087 C45.8992408,13.4886716 45.8946948,13.4809045 45.890418,13.4729274 C45.877139,13.4483312 45.8627484,13.4243551 45.847291,13.4010736 C45.8360417,13.3842293 45.8242212,13.3677757 45.8118503,13.3517416 C45.8079922,13.3467334 45.8044332,13.3416653 45.8004854,13.3367471 C45.7799246,13.3113587 45.7579786,13.2871305 45.7347481,13.2641736 C45.7178606,13.2471893 45.7002902,13.2309017 45.6820806,13.2153514 C45.679987,13.2135221 45.6781327,13.2115128 45.6759794,13.2097434 C45.6753812,13.2091737 45.6746933,13.2087538 45.6740653,13.208244 C45.6568703,13.1938852 45.6391424,13.1801805 45.6209192,13.167159 C45.6172406,13.1645499 45.6133825,13.1622708 45.6096739,13.1597217 C45.6030643,13.1551634 45.5963649,13.1509049 45.5896955,13.1464665 C45.5731266,13.1356705 45.5562885,13.1255042 45.5391514,13.1158777 C45.5321231,13.1118892 45.5251845,13.1076907 45.5180664,13.1039421 C45.4964431,13.0925462 45.4744011,13.08211 45.4520899,13.0725435 C45.4434167,13.0687949 45.4345341,13.0655261 45.4256814,13.0621073 C45.4100544,13.05598 45.3942567,13.0502998 45.3783075,13.0450735 C45.3688566,13.0419847 45.3594656,13.0388358 45.3499549,13.0360768 C45.3270356,13.0293233 45.3038589,13.0234809 45.2804792,13.0185632 C45.2738995,13.0172137 45.2673198,13.016374 45.2607401,13.0151745 C45.2332988,13.010096 45.205633,13.0063232 45.1778358,13.0038686 C45.1562214,13.0019258 45.1345441,13.0007655 45.1128463,13.0003899 C45.1090779,13.0003299 45.1053095,13 45.1015112,13 C45.0759062,13.0000036 45.0503126,13.0010842 45.0247978,13.0032388 C45.018248,13.0037786 45.0117581,13.0045883 45.0052382,13.0052481 C44.9847513,13.0073473 44.9643244,13.0102563 44.9439273,13.013765 C44.9377962,13.0148446 44.9316651,13.0157443 44.925534,13.0169138 C44.9006507,13.021802 44.8758871,13.0275899 44.8513628,13.0346074 C44.8455906,13.0362568 44.839938,13.038326 44.8341957,13.0400654 C44.8064575,13.0485798 44.7791405,13.0584174 44.7523382,13.0695446 C44.7357394,13.0764721 44.7193798,13.0733232 44.70311,13.0813003 C44.6957826,13.084899 44.6882758,13.0811504 44.6809783,13.0811504 L20.484139,25.7683196 C20.184553,25.9253123 19.9976594,26.2425065 20.0000221,26.5814428 C20.0024148,26.9203191 20.1936449,27.2321753 20.4953843,27.3848795 L26.9934422,30.6748887 C27.4379612,30.9000165 27.9803383,30.7216716 28.2047063,30.2757943 C28.4290743,29.830067 28.2506147,29.2865754 27.8060359,29.0616275 L22.8753238,26.5663583 L41.5124311,16.802612 L30.0239651,30.6118217 C29.8887265,30.7743682 29.8146588,30.9793455 29.8146707,31.1910303 L29.8146707,38.09583 C29.8146707,38.5951478 30.2183356,39 30.7163297,39 C31.2143536,39 31.6180485,38.5952077 31.6180485,38.09583 L31.6180485,31.5186307 L43.7370297,16.9517476 L40.9763944,35.6569102 L34.4741494,32.4209414 C34.0281051,32.1990224 33.4869841,32.3816557 33.2656069,32.8289124 C33.0441998,33.2761992 33.226338,33.8187612 33.6724122,34.0407701 L41.2859397,37.8297671 C41.5444244,37.958421 41.8487081,37.9552326 42.1044551,37.8211903 C42.3601993,37.6871699 42.536528,37.4385127 42.5787921,37.1522844 L45.9903099,14.0364517 C45.9915062,14.0282647 45.9921044,14.0200477 45.9930614,14.0118607 C45.9941082,14.0032238 45.9951549,13.994647 45.9959325,13.9860101 C45.9982354,13.9605494 45.9998206,13.9351787 45.9999701,13.9099279 L46,13.9099279 Z" id="路径" fill="#00A4FF"></path>
                        </g>
                    </g>
                    <g id="XMLID_25_复制-10" transform="translate(677.000000, 141.000000)">
                        <g id="分组-copy">
                            <g id="XMLID_134_">
                                <use fill="black" fill-opacity="1" filter="url(#filter-8)" xlink:href="#path-7"></use>
                                <use fill="#FFFFFF" fill-rule="evenodd" xlink:href="#path-7"></use>
                            </g>
                            <path d="M62.552,21.838 C62.202,22.426 61.782,22.944 61.306,23.392 L60.69,22.622 C61.642,21.726 62.272,20.522 62.608,18.996 L63.574,19.178 C63.434,19.794 63.252,20.354 63.028,20.886 L64.722,20.886 L64.722,18.548 L65.702,18.548 L65.702,20.886 L68.432,20.886 L68.432,21.838 L65.688,21.838 C65.66,22.664 65.576,23.42 65.464,24.12 L69.02,24.12 L69.02,25.086 L65.254,25.086 C65.198,25.268 65.156,25.436 65.1,25.604 C66.668,26.64 67.984,27.69 69.048,28.726 L68.32,29.44 C67.438,28.488 66.262,27.48 64.792,26.43 C64.736,26.514 64.694,26.598 64.666,26.682 C64.008,27.886 62.944,28.824 61.474,29.496 L60.928,28.642 C62.342,27.97 63.336,27.088 63.896,25.982 C64.022,25.688 64.134,25.394 64.232,25.086 L60.858,25.086 L60.858,24.12 L64.47,24.12 C64.596,23.42 64.68,22.65 64.708,21.838 L62.552,21.838 Z M57.848,18.702 C58.758,19.43 59.528,20.144 60.144,20.872 L59.43,21.586 C58.87,20.886 58.114,20.144 57.148,19.36 L57.848,18.702 Z M65.898,31.148 C65.142,31.148 64.33,31.134 63.448,31.12 C62.566,31.106 61.838,31.022 61.278,30.868 C60.746,30.7 60.256,30.35 59.822,29.846 C59.64,29.608 59.458,29.496 59.29,29.496 C58.954,29.496 58.394,30.14 57.61,31.456 L56.854,30.77 C57.61,29.58 58.268,28.852 58.856,28.6 L58.856,24.344 L56.854,24.344 L56.854,23.42 L59.794,23.42 L59.794,28.67 C59.906,28.754 60.004,28.852 60.116,28.978 C60.452,29.384 60.802,29.678 61.194,29.86 C61.614,30.056 62.244,30.168 63.056,30.196 C63.784,30.21 64.68,30.224 65.758,30.224 C66.43,30.224 67.116,30.21 67.816,30.196 C68.488,30.182 69.02,30.168 69.398,30.14 L69.146,31.148 L65.898,31.148 Z M82.754,21.908 L82.908,22.874 L78.288,23.462 C78.372,24.358 78.484,25.128 78.624,25.772 C78.96,27.228 79.422,28.348 80.024,29.16 C80.57,29.916 81.088,30.294 81.564,30.308 C81.942,30.294 82.222,29.398 82.418,27.634 L83.3,28.138 C83.118,29.286 82.88,30.14 82.572,30.7 C82.32,31.106 81.998,31.316 81.62,31.33 C80.934,31.33 80.22,30.882 79.492,30 C78.694,29.02 78.106,27.746 77.714,26.178 C77.532,25.478 77.392,24.624 77.294,23.588 L74.256,23.98 L74.102,23.014 L77.21,22.608 C77.112,21.432 77.056,20.074 77.042,18.534 L78.078,18.534 C78.078,20.032 78.12,21.348 78.204,22.482 L82.754,21.908 Z M72.352,23.546 C71.876,24.19 71.344,24.792 70.784,25.38 L70.462,24.33 C72.002,22.636 73.108,20.69 73.808,18.506 L74.746,18.954 C74.382,20.018 73.934,21.026 73.388,21.964 L73.388,31.428 L72.352,31.428 L72.352,23.546 Z M79.604,18.632 C80.458,19.346 81.186,20.06 81.774,20.76 L81.074,21.446 C80.57,20.76 79.856,20.032 78.96,19.262 L79.604,18.632 Z M87.892,20.48 C87.682,20.816 87.458,21.138 87.22,21.446 L95.452,21.446 L95.452,25.87 L89.908,25.87 C89.698,26.206 89.46,26.514 89.208,26.822 L95.48,26.822 L95.48,27.55 C94.78,28.446 93.856,29.174 92.708,29.762 C94.052,30.154 95.564,30.378 97.216,30.434 L96.978,31.358 C94.934,31.26 93.1,30.91 91.504,30.294 C89.852,30.91 87.864,31.274 85.512,31.414 L85.106,30.532 C87.136,30.448 88.872,30.196 90.314,29.776 C89.362,29.314 88.508,28.754 87.752,28.096 C87.178,28.488 86.52,28.866 85.792,29.202 L85.274,28.348 C86.884,27.704 88.06,26.878 88.816,25.87 L87.024,25.87 L87.024,21.684 C86.548,22.23 86.016,22.734 85.4,23.196 L84.798,22.412 C86.24,21.32 87.22,20.004 87.738,18.436 L88.732,18.604 C88.62,18.94 88.494,19.276 88.354,19.598 L96.544,19.598 L96.544,20.48 L87.892,20.48 Z M91.518,29.37 C92.638,28.908 93.548,28.334 94.234,27.648 L88.48,27.648 C89.376,28.348 90.384,28.922 91.518,29.37 Z M94.472,25.058 L94.472,24.022 L88.018,24.022 L88.018,25.058 L94.472,25.058 Z M88.018,23.266 L94.472,23.266 L94.472,22.244 L88.018,22.244 L88.018,23.266 Z M99.134,22.622 L101.276,22.622 L101.276,19.444 L103.95,19.444 C104.16,19.108 104.314,18.758 104.426,18.408 L105.434,18.548 C105.322,18.87 105.168,19.164 104.986,19.444 L109.13,19.444 L109.13,22.622 L110.964,22.622 L110.964,23.56 L109.13,23.56 L109.13,25.268 C109.13,25.996 108.724,26.36 107.926,26.36 L106.848,26.36 L106.61,25.45 C106.974,25.478 107.324,25.492 107.632,25.492 C107.968,25.492 108.15,25.296 108.15,24.918 L108.15,23.56 L102.172,23.56 C101.976,24.778 101.388,25.786 100.422,26.57 L99.652,25.884 C100.492,25.24 100.996,24.456 101.192,23.56 L99.134,23.56 L99.134,22.622 Z M108.15,22.622 L108.15,20.354 L102.242,20.354 L102.242,22.622 L108.15,22.622 Z M104.314,20.564 C105.098,20.97 105.77,21.418 106.344,21.922 L105.77,22.594 C105.252,22.09 104.594,21.614 103.796,21.166 L104.314,20.564 Z M103.866,23.84 C104.762,24.316 105.518,24.834 106.162,25.422 L105.56,26.136 C104.972,25.548 104.23,24.988 103.334,24.484 L103.866,23.84 Z M109.788,26.948 L109.788,30.112 L111.328,30.112 L111.328,31.022 L98.742,31.022 L98.742,30.112 L100.212,30.112 L100.212,26.948 L109.788,26.948 Z M101.178,30.112 L103.054,30.112 L103.054,27.858 L101.178,27.858 L101.178,30.112 Z M104.02,30.112 L105.938,30.112 L105.938,27.858 L104.02,27.858 L104.02,30.112 Z M106.904,30.112 L108.822,30.112 L108.822,27.858 L106.904,27.858 L106.904,30.112 Z" id="迭代复盘" fill="#444444" fill-rule="nonzero"></path>
                            <g id="project-menu/iteration" transform="translate(20.000000, 12.000000)">
                                <g>
                                    <rect id="Rectangle" fill="#000000" opacity="0" x="0" y="0" width="28" height="28"></rect>
                                    <path d="M12.9717778,4.51111111 L11.6666667,4.51111111 L13.0277778,3.14844444 C13.3917778,2.78444444 13.3917778,2.19333333 13.0277778,1.82933333 C12.6637778,1.46377778 12.0726667,1.46377778 11.7071111,1.82933333 L8.75155556,4.78488889 C8.38755556,5.14888889 8.38755556,5.74 8.75155556,6.104 L11.7071111,9.05955556 C11.8906667,9.24155556 12.1286667,9.33333333 12.3682222,9.33333333 C12.6062222,9.33333333 12.8457778,9.24155556 13.0277778,9.05955556 C13.3917778,8.69555556 13.3917778,8.10444444 13.0277778,7.74044444 L11.6666667,6.37777778 L12.9717778,6.37777778 C17.1748889,6.37777778 20.594,9.79688889 20.594,14 C20.594,18.2031111 17.1748889,21.6222222 12.9717778,21.6222222 L2.33333333,21.6222222 C1.81844444,21.6222222 1.4,22.0406667 1.4,22.5555556 C1.4,23.0704444 1.81844444,23.4888889 2.33333333,23.4888889 L12.9717778,23.4888889 C18.2046667,23.4888889 22.4606667,19.2313333 22.4606667,14 C22.4606667,8.76711111 18.2046667,4.51111111 12.9717778,4.51111111 Z" id="Fill-1" fill="#00A4FF"></path>
                                    <path d="M8.00566667,19.7345556 C6.39255556,18.3376667 5.34877778,16.2983333 5.34877778,13.9992222 C5.34877778,11.7296667 6.36144444,9.60477778 8.08188889,8.16277778 L6.75344444,6.83433333 C4.68766667,8.62477778 3.48211111,11.2287778 3.48211111,13.9992222 C3.48211111,16.1552222 4.21322222,18.1401111 5.42966667,19.7345556 L8.00566667,19.7345556 Z" id="Fill-4" fill="#00A4FF"></path>
                                    <path d="M23.8816667,19.0963111 C23.5192222,18.7323111 22.9281111,18.7323111 22.561,19.0947556 C22.197,19.4587556 22.197,20.0498667 22.561,20.4138667 L23.7688889,21.6225333 L21.2652222,21.6225333 C20.6103333,22.3349778 19.8698889,22.9634222 19.0532222,23.4876444 L23.7688889,23.4876444 L22.561,24.6963111 C22.197,25.0618667 22.197,25.6529778 22.561,26.0169778 C22.7445556,26.1974222 22.9825556,26.2892 23.2221111,26.2892 C23.4616667,26.2892 23.6996667,26.1974222 23.8816667,26.0154222 L26.6816667,23.2154222 C27.0456667,22.8498667 27.0456667,22.2603111 26.6816667,21.8963111 L23.8816667,19.0963111 Z" id="Fill-6" fill="#00A4FF"></path>
                                </g>
                            </g>
                        </g>
                    </g>
                    <g id="XMLID_25_复制" transform="translate(336.000000, 0.000000)">
                        <g id="分组-copy">
                            <rect id="XMLID_134_" fill="#EAEBEC" x="0" y="0" width="137" height="371"></rect>
                            <path d="M22.806,16.604 L23.8,16.604 L23.8,18.06 L26.67,18.06 L26.67,18.97 L23.8,18.97 L23.8,20.608 L27.202,20.608 L27.202,21.56 L19.558,21.56 L19.558,20.608 L22.806,20.608 L22.806,18.97 L20.062,18.97 L20.062,18.06 L22.806,18.06 L22.806,16.604 Z M19.334,23.352 L24.486,23.352 L24.486,22.274 L25.494,22.274 L25.494,23.352 L27.216,23.352 L27.216,24.29 L25.494,24.29 L25.494,28.056 C25.494,28.882 25.074,29.302 24.262,29.302 L22.4,29.302 L22.176,28.322 C22.778,28.35 23.352,28.378 23.898,28.378 C24.29,28.378 24.486,28.182 24.486,27.804 L24.486,24.29 L19.334,24.29 L19.334,23.352 Z M16.338,29.274 L15.106,29.274 L14.896,28.308 C15.274,28.35 15.638,28.378 15.988,28.378 C16.352,28.378 16.548,28.168 16.548,27.762 L16.548,24.444 C16.002,24.64 15.456,24.822 14.924,24.99 L14.672,23.982 C15.316,23.828 15.932,23.646 16.548,23.422 L16.548,20.216 L14.826,20.216 L14.826,19.25 L16.548,19.25 L16.548,16.744 L17.542,16.744 L17.542,19.25 L18.998,19.25 L18.998,20.216 L17.542,20.216 L17.542,23.03 C18.046,22.806 18.536,22.568 19.012,22.316 L19.012,23.352 C18.536,23.604 18.046,23.828 17.542,24.038 L17.542,28.014 C17.542,28.854 17.136,29.274 16.338,29.274 Z M20.79,24.948 C21.518,25.802 22.078,26.558 22.47,27.202 L21.672,27.762 C21.252,27.062 20.692,26.292 19.978,25.438 L20.79,24.948 Z M33.04,26.446 L33.04,27.398 C31.822,27.902 30.45,28.308 28.91,28.616 L28.784,27.636 C30.408,27.342 31.822,26.95 33.04,26.446 Z M30.912,16.562 L31.864,16.94 C31.22,18.676 30.562,20.076 29.89,21.126 C30.464,21.056 31.038,20.958 31.626,20.846 C31.878,20.384 32.13,19.894 32.396,19.376 L33.32,19.726 C32.102,21.966 31.094,23.576 30.31,24.528 C31.15,24.36 32.004,24.122 32.844,23.814 L32.844,24.724 C31.528,25.172 30.282,25.466 29.092,25.634 L28.812,24.71 C28.994,24.654 29.148,24.556 29.274,24.43 C29.778,23.898 30.394,23.016 31.122,21.77 C30.408,21.896 29.68,22.008 28.952,22.12 L28.7,21.196 C28.854,21.14 28.994,21.014 29.12,20.832 C29.806,19.586 30.408,18.158 30.912,16.562 Z M34.034,17.458 L36.848,17.458 L36.848,16.534 L37.828,16.534 L37.828,17.458 L40.838,17.458 L40.838,18.368 L37.828,18.368 L37.828,19.642 L41.034,19.642 L41.034,20.272 C40.838,21.168 40.572,22.05 40.236,22.918 L39.27,22.638 C39.564,22.022 39.802,21.322 39.998,20.566 L33.6,20.566 L33.6,19.642 L36.848,19.642 L36.848,18.368 L34.034,18.368 L34.034,17.458 Z M33.292,24.682 L37.17,24.682 C37.212,24.374 37.24,24.052 37.254,23.73 L37.254,21.14 L38.234,21.14 L38.234,23.73 C38.22,24.066 38.192,24.374 38.164,24.682 L41.426,24.682 L41.426,25.606 L37.982,25.606 C37.912,25.858 37.842,26.082 37.758,26.306 C39.13,26.95 40.39,27.706 41.524,28.574 L40.964,29.442 C39.788,28.462 38.598,27.664 37.394,27.048 C37.31,27.188 37.212,27.314 37.128,27.44 C36.442,28.294 35.336,28.966 33.796,29.456 L33.236,28.574 C34.734,28.126 35.77,27.524 36.358,26.768 C36.61,26.418 36.806,26.026 36.946,25.606 L33.292,25.606 L33.292,24.682 Z M33.838,22.4 C34.608,22.764 35.308,23.226 35.952,23.758 L35.476,24.5 C34.79,23.912 34.09,23.436 33.362,23.086 L33.838,22.4 Z M34.916,20.958 C35.63,21.294 36.288,21.728 36.89,22.232 L36.414,22.946 C35.77,22.386 35.126,21.938 34.468,21.63 L34.916,20.958 Z M48.552,19.838 C48.202,20.426 47.782,20.944 47.306,21.392 L46.69,20.622 C47.642,19.726 48.272,18.522 48.608,16.996 L49.574,17.178 C49.434,17.794 49.252,18.354 49.028,18.886 L50.722,18.886 L50.722,16.548 L51.702,16.548 L51.702,18.886 L54.432,18.886 L54.432,19.838 L51.688,19.838 C51.66,20.664 51.576,21.42 51.464,22.12 L55.02,22.12 L55.02,23.086 L51.254,23.086 C51.198,23.268 51.156,23.436 51.1,23.604 C52.668,24.64 53.984,25.69 55.048,26.726 L54.32,27.44 C53.438,26.488 52.262,25.48 50.792,24.43 C50.736,24.514 50.694,24.598 50.666,24.682 C50.008,25.886 48.944,26.824 47.474,27.496 L46.928,26.642 C48.342,25.97 49.336,25.088 49.896,23.982 C50.022,23.688 50.134,23.394 50.232,23.086 L46.858,23.086 L46.858,22.12 L50.47,22.12 C50.596,21.42 50.68,20.65 50.708,19.838 L48.552,19.838 Z M43.848,16.702 C44.758,17.43 45.528,18.144 46.144,18.872 L45.43,19.586 C44.87,18.886 44.114,18.144 43.148,17.36 L43.848,16.702 Z M51.898,29.148 C51.142,29.148 50.33,29.134 49.448,29.12 C48.566,29.106 47.838,29.022 47.278,28.868 C46.746,28.7 46.256,28.35 45.822,27.846 C45.64,27.608 45.458,27.496 45.29,27.496 C44.954,27.496 44.394,28.14 43.61,29.456 L42.854,28.77 C43.61,27.58 44.268,26.852 44.856,26.6 L44.856,22.344 L42.854,22.344 L42.854,21.42 L45.794,21.42 L45.794,26.67 C45.906,26.754 46.004,26.852 46.116,26.978 C46.452,27.384 46.802,27.678 47.194,27.86 C47.614,28.056 48.244,28.168 49.056,28.196 C49.784,28.21 50.68,28.224 51.758,28.224 C52.43,28.224 53.116,28.21 53.816,28.196 C54.488,28.182 55.02,28.168 55.398,28.14 L55.146,29.148 L51.898,29.148 Z M68.754,19.908 L68.908,20.874 L64.288,21.462 C64.372,22.358 64.484,23.128 64.624,23.772 C64.96,25.228 65.422,26.348 66.024,27.16 C66.57,27.916 67.088,28.294 67.564,28.308 C67.942,28.294 68.222,27.398 68.418,25.634 L69.3,26.138 C69.118,27.286 68.88,28.14 68.572,28.7 C68.32,29.106 67.998,29.316 67.62,29.33 C66.934,29.33 66.22,28.882 65.492,28 C64.694,27.02 64.106,25.746 63.714,24.178 C63.532,23.478 63.392,22.624 63.294,21.588 L60.256,21.98 L60.102,21.014 L63.21,20.608 C63.112,19.432 63.056,18.074 63.042,16.534 L64.078,16.534 C64.078,18.032 64.12,19.348 64.204,20.482 L68.754,19.908 Z M58.352,21.546 C57.876,22.19 57.344,22.792 56.784,23.38 L56.462,22.33 C58.002,20.636 59.108,18.69 59.808,16.506 L60.746,16.954 C60.382,18.018 59.934,19.026 59.388,19.964 L59.388,29.428 L58.352,29.428 L58.352,21.546 Z M65.604,16.632 C66.458,17.346 67.186,18.06 67.774,18.76 L67.074,19.446 C66.57,18.76 65.856,18.032 64.96,17.262 L65.604,16.632 Z" id="持续迭代" fill="#444444" fill-rule="nonzero"></path>
                            <g id="XMLID_25_复制-8" transform="translate(15.000000, 44.000000)">
                                <g id="分组-copy">
                                    <g id="XMLID_134_">
                                        <use fill="black" fill-opacity="1" filter="url(#filter-10)" xlink:href="#path-9"></use>
                                        <use fill="#FFFFFF" fill-rule="evenodd" xlink:href="#path-9"></use>
                                    </g>
                                    <path d="M17.054,18.856 L17.936,19.388 C17.278,20.55 16.62,21.502 15.962,22.244 C15.262,23.056 14.324,23.854 13.162,24.638 L12.616,23.756 C13.568,23.21 14.436,22.496 15.206,21.614 C15.878,20.83 16.494,19.92 17.054,18.856 Z M17.516,25.1 L14.688,25.1 L14.688,24.134 L23.046,24.134 C23.004,25.884 22.92,27.298 22.78,28.376 C22.64,29.44 22.416,30.196 22.094,30.616 C21.786,31.022 21.282,31.246 20.582,31.288 L18.034,31.288 L17.754,30.294 C18.566,30.322 19.336,30.336 20.064,30.336 C20.82,30.336 21.31,30.014 21.548,29.37 C21.8,28.698 21.954,27.284 22.024,25.1 L18.538,25.1 C18.202,26.626 17.74,27.844 17.138,28.74 C16.424,29.748 15.346,30.644 13.918,31.442 L13.274,30.602 C14.562,29.902 15.542,29.132 16.2,28.292 C16.788,27.48 17.222,26.416 17.516,25.1 Z M21.002,18.674 C21.814,20.83 23.256,22.538 25.342,23.784 L24.67,24.582 C22.5,23.182 20.988,21.376 20.134,19.164 L21.002,18.674 Z M39.356,27.648 C39.258,29.104 39.104,30.042 38.88,30.476 C38.656,30.896 38.222,31.12 37.55,31.12 L34.778,31.12 C34.106,31.12 33.77,30.672 33.77,29.79 L33.77,23.854 L37.592,23.854 L37.592,20.116 L33.532,20.116 L33.532,19.164 L38.572,19.164 L38.572,24.834 L34.75,24.834 L34.75,29.426 C34.75,29.902 34.89,30.154 35.184,30.168 L37.382,30.168 C37.774,30.168 38.026,29.972 38.138,29.58 C38.25,29.202 38.32,28.446 38.362,27.326 L39.356,27.648 Z M26.7,19.15 L33.07,19.15 L33.07,20.102 L31.25,20.102 L31.25,21.726 L32.846,21.726 L32.846,31.344 L31.95,31.344 L31.95,30.588 L27.96,30.588 L27.96,31.344 L27.064,31.344 L27.064,21.726 L28.59,21.726 L28.59,20.102 L26.7,20.102 L26.7,19.15 Z M27.96,29.636 L31.95,29.636 L31.95,28.278 L27.96,28.278 L27.96,29.636 Z M28.786,22.65 L27.96,22.65 L27.96,27.354 L31.95,27.354 L31.95,26.136 L31.236,26.136 C30.648,26.136 30.354,25.814 30.354,25.17 L30.354,22.65 L29.472,22.65 L29.472,23.56 C29.444,25.058 29.136,26.15 28.548,26.85 L28.016,26.36 C28.52,25.772 28.772,24.848 28.786,23.56 L28.786,22.65 Z M29.458,21.726 L30.382,21.726 L30.382,20.102 L29.458,20.102 L29.458,21.726 Z M31.95,25.352 L31.95,22.65 L31.054,22.65 L31.054,24.988 C31.054,25.226 31.166,25.352 31.404,25.352 L31.95,25.352 Z M40.798,25.212 L53.202,25.212 L53.202,26.08 L47.294,26.08 L46.818,27.088 L52.264,27.088 L52.264,30.154 C52.264,30.966 51.844,31.386 51.018,31.386 L50.024,31.386 L49.8,30.518 L50.738,30.56 C51.102,30.56 51.284,30.35 51.284,29.944 L51.284,27.956 L49.03,27.956 L49.03,31.274 L48.064,31.274 L48.064,27.956 L45.992,27.956 L45.992,31.274 L45.026,31.274 L45.026,27.956 L42.926,27.956 L42.926,31.442 L41.974,31.442 L41.974,27.088 L45.796,27.088 L46.272,26.08 L40.798,26.08 L40.798,25.212 Z M41.652,19.038 L52.362,19.038 L52.362,19.864 L47.49,19.864 L47.49,20.746 L52.866,20.746 L52.866,23.63 L51.9,23.63 L51.9,21.544 L47.49,21.544 L47.49,24.638 L46.51,24.638 L46.51,21.544 L42.1,21.544 L42.1,23.63 L41.134,23.63 L41.134,20.746 L46.51,20.746 L46.51,19.864 L41.652,19.864 L41.652,19.038 Z M42.856,22.328 L45.768,22.328 L45.768,23 L42.856,23 L42.856,22.328 Z M42.856,23.728 L45.768,23.728 L45.768,24.4 L42.856,24.4 L42.856,23.728 Z M48.218,22.328 L51.116,22.328 L51.116,23 L48.218,23 L48.218,22.328 Z M48.232,23.728 L51.158,23.728 L51.158,24.4 L48.232,24.4 L48.232,23.728 Z M55.008,21.138 L60.58,21.138 L60.58,18.52 L61.616,18.52 L61.616,21.138 L64.78,21.138 C64.262,20.536 63.576,19.906 62.736,19.234 L63.394,18.618 C64.234,19.234 64.934,19.864 65.494,20.48 L64.836,21.138 L66.964,21.138 L66.964,22.104 L61.616,22.104 L61.616,22.916 C61.994,23.77 62.456,24.582 63.002,25.338 C63.996,24.582 64.85,23.728 65.564,22.776 L66.306,23.434 C65.536,24.428 64.612,25.296 63.534,26.038 C64.584,27.34 65.886,28.488 67.426,29.468 L66.726,30.294 C64.458,28.726 62.764,26.822 61.616,24.568 L61.616,30.014 C61.616,30.882 61.196,31.316 60.356,31.316 L58.466,31.316 L58.256,30.35 C58.872,30.392 59.446,30.42 60.006,30.42 C60.384,30.42 60.58,30.196 60.58,29.762 L60.58,25.94 C59.11,27.732 57.388,29.244 55.414,30.448 L54.868,29.538 C57.024,28.362 58.928,26.766 60.58,24.722 L60.58,22.104 L55.008,22.104 L55.008,21.138 Z M56.366,23.07 C57.318,23.91 58.116,24.764 58.76,25.604 L58.06,26.29 C57.486,25.492 56.688,24.638 55.666,23.728 L56.366,23.07 Z" id="分配需求" fill="#444444" fill-rule="nonzero"></path>
                                </g>
                                <g id="分组-copy复制" transform="translate(0.000000, 86.000000)">
                                    <g id="XMLID_134_">
                                        <use fill="black" fill-opacity="1" filter="url(#filter-12)" xlink:href="#path-11"></use>
                                        <use fill="#FFFFFF" fill-rule="evenodd" xlink:href="#path-11"></use>
                                    </g>
                                    <path d="M20.008,20.004 L21.156,20.004 L21.156,26.178 C21.156,27.158 21.366,27.9 21.814,28.404 C22.276,28.922 23.004,29.188 23.998,29.188 C24.978,29.188 25.706,28.922 26.182,28.404 C26.616,27.9 26.84,27.158 26.84,26.178 L26.84,20.004 L27.988,20.004 L27.988,26.164 C27.988,27.466 27.652,28.46 26.994,29.146 C26.308,29.846 25.314,30.196 23.998,30.196 C22.682,30.196 21.688,29.846 21.016,29.16 C20.344,28.46 20.008,27.466 20.008,26.164 L20.008,20.004 Z M30.088,20.004 L31.222,20.004 L31.222,30 L30.088,30 L30.088,20.004 Z M34.568,18.828 C35.45,19.528 36.192,20.214 36.794,20.9 L36.108,21.6 C35.562,20.928 34.82,20.228 33.868,19.486 L34.568,18.828 Z M32.944,22.874 L35.87,22.874 L35.87,29.09 C36.374,28.67 36.92,28.194 37.494,27.648 L37.774,28.712 C36.892,29.538 35.954,30.266 34.974,30.91 L34.582,30.014 C34.778,29.818 34.89,29.608 34.89,29.384 L34.89,23.84 L32.944,23.84 L32.944,22.874 Z M37.914,24.512 L44.578,24.512 L44.578,25.436 C44.13,26.752 43.402,27.886 42.38,28.838 C43.332,29.496 44.494,30.07 45.866,30.574 L45.32,31.442 C43.864,30.854 42.632,30.196 41.652,29.44 C40.532,30.28 39.146,30.938 37.508,31.442 L36.948,30.588 C38.502,30.126 39.804,29.524 40.854,28.782 C39.79,27.802 39.076,26.71 38.684,25.492 L37.914,25.492 L37.914,24.512 Z M39.636,25.492 C40,26.5 40.644,27.41 41.568,28.208 C42.464,27.424 43.136,26.528 43.584,25.492 L39.636,25.492 Z M38.992,19.108 L43.696,19.108 L43.696,22.132 C43.696,22.482 43.878,22.664 44.242,22.664 L45.53,22.664 L45.53,23.588 L43.99,23.588 C43.122,23.588 42.702,23.168 42.702,22.342 L42.702,20.06 L39.986,20.06 L39.986,20.55 C39.986,22.034 39.258,23.182 37.83,23.994 L37.158,23.224 C38.376,22.622 38.992,21.768 38.992,20.662 L38.992,19.108 Z M51.326,22.762 L55.12,22.762 L55.12,18.548 L56.156,18.548 L56.156,22.762 L59.754,22.762 L59.754,23.77 L56.156,23.77 L56.156,31.428 L55.12,31.428 L55.12,23.77 L51.326,23.77 L51.326,22.762 Z M48.582,18.702 C49.534,19.416 50.332,20.13 50.976,20.858 L50.29,21.558 C49.702,20.872 48.89,20.144 47.882,19.388 L48.582,18.702 Z M46.944,22.846 L49.968,22.846 L49.968,29.076 C50.472,28.656 51.032,28.18 51.62,27.62 L51.872,28.656 C51.004,29.496 50.066,30.238 49.072,30.896 L48.68,29.986 C48.89,29.818 49.002,29.622 49.002,29.398 L49.002,23.812 L46.944,23.812 L46.944,22.846 Z" id="UI设计" fill="#444444" fill-rule="nonzero"></path>
                                </g>
                                <g id="分组-copy复制-2" transform="translate(0.000000, 172.000000)">
                                    <g id="XMLID_134_">
                                        <use fill="black" fill-opacity="1" filter="url(#filter-14)" xlink:href="#path-13"></use>
                                        <use fill="#FFFFFF" fill-rule="evenodd" xlink:href="#path-13"></use>
                                    </g>
                                    <path d="M24.754,21.908 L24.908,22.874 L20.288,23.462 C20.372,24.358 20.484,25.128 20.624,25.772 C20.96,27.228 21.422,28.348 22.024,29.16 C22.57,29.916 23.088,30.294 23.564,30.308 C23.942,30.294 24.222,29.398 24.418,27.634 L25.3,28.138 C25.118,29.286 24.88,30.14 24.572,30.7 C24.32,31.106 23.998,31.316 23.62,31.33 C22.934,31.33 22.22,30.882 21.492,30 C20.694,29.02 20.106,27.746 19.714,26.178 C19.532,25.478 19.392,24.624 19.294,23.588 L16.256,23.98 L16.102,23.014 L19.21,22.608 C19.112,21.432 19.056,20.074 19.042,18.534 L20.078,18.534 C20.078,20.032 20.12,21.348 20.204,22.482 L24.754,21.908 Z M14.352,23.546 C13.876,24.19 13.344,24.792 12.784,25.38 L12.462,24.33 C14.002,22.636 15.108,20.69 15.808,18.506 L16.746,18.954 C16.382,20.018 15.934,21.026 15.388,21.964 L15.388,31.428 L14.352,31.428 L14.352,23.546 Z M21.604,18.632 C22.458,19.346 23.186,20.06 23.774,20.76 L23.074,21.446 C22.57,20.76 21.856,20.032 20.96,19.262 L21.604,18.632 Z M31.292,23.476 L31.292,30.672 L30.368,30.672 L30.368,29.874 L28.856,29.874 L28.856,30.938 L27.918,30.938 L27.918,25.24 C27.638,25.744 27.33,26.234 26.994,26.71 L26.49,25.898 C27.554,24.274 28.254,22.412 28.59,20.326 L26.882,20.326 L26.882,19.346 L31.656,19.346 L31.656,20.326 L29.542,20.326 C29.346,21.446 29.08,22.496 28.716,23.476 L31.292,23.476 Z M28.856,28.964 L30.368,28.964 L30.368,24.4 L28.856,24.4 L28.856,28.964 Z M33.182,21.082 L34.176,21.152 L33.56,24.68 L36.528,24.68 L37.228,20.102 L32.3,20.102 L32.3,19.15 L38.32,19.15 L37.55,24.68 L39.034,24.68 C39.034,28.068 38.838,30.014 38.474,30.546 C38.082,31.05 37.284,31.316 36.052,31.316 C35.66,31.316 35.24,31.302 34.792,31.274 L34.512,30.294 C35.128,30.35 35.562,30.378 35.814,30.378 C36.892,30.378 37.536,30.14 37.746,29.692 C37.97,29.216 38.082,27.858 38.082,25.618 L32.426,25.618 L33.182,21.082 Z M31.992,27.396 L37.116,27.396 L37.116,28.348 L31.992,28.348 L31.992,27.396 Z M41.568,19.402 L52.474,19.402 L52.474,20.382 L50.136,20.382 L50.136,24.092 L53.202,24.092 L53.202,25.058 L50.136,25.058 L50.136,31.26 L49.114,31.26 L49.114,25.058 L45.068,25.058 C44.942,26.5 44.676,27.69 44.256,28.642 C43.724,29.818 42.842,30.728 41.61,31.372 L41.064,30.504 C42.198,29.86 42.996,29.006 43.444,27.942 C43.738,27.13 43.934,26.178 44.046,25.058 L40.812,25.058 L40.812,24.092 L44.102,24.092 C44.102,23.91 44.116,23.742 44.116,23.602 L44.116,20.382 L41.568,20.382 L41.568,19.402 Z M45.152,20.382 L45.152,23.602 C45.152,23.77 45.138,23.938 45.138,24.092 L49.114,24.092 L49.114,20.382 L45.152,20.382 Z M55.624,22.86 L56.73,18.968 L57.724,19.136 L56.926,21.894 L59.376,21.894 C59.656,20.802 59.88,19.668 60.048,18.464 L61.07,18.59 C60.888,19.766 60.664,20.858 60.412,21.894 L66.964,21.894 L66.964,22.86 L60.146,22.86 C59.978,23.42 59.81,23.952 59.614,24.456 L65.34,24.456 L65.34,25.324 C64.962,26.528 64.206,27.62 63.058,28.6 C64.192,29.272 65.578,29.888 67.202,30.448 L66.684,31.386 C64.892,30.728 63.408,30.014 62.232,29.244 C61.084,30.056 59.656,30.784 57.962,31.442 L57.43,30.504 C58.998,29.93 60.3,29.3 61.35,28.614 C60.258,27.774 59.488,26.864 59.026,25.884 C58.004,28.096 56.688,29.846 55.092,31.148 L54.574,30.224 C56.618,28.432 58.116,25.982 59.096,22.86 L55.624,22.86 Z M59.782,25.38 C60.258,26.332 61.056,27.214 62.176,28.026 C63.212,27.214 63.926,26.332 64.318,25.38 L59.782,25.38 Z M63.422,18.576 C64.43,19.346 65.256,20.116 65.928,20.886 L65.214,21.6 C64.626,20.858 63.8,20.074 62.75,19.234 L63.422,18.576 Z" id="代码开发" fill="#444444" fill-rule="nonzero"></path>
                                </g>
                                <g id="分组-copy复制-3" transform="translate(0.000000, 21.000000)">
                                    <g id="XMLID_134_">
                                        <use fill="black" fill-opacity="1" filter="url(#filter-16)" xlink:href="#path-15"></use>
                                        <use fill="#FFFFFF" fill-rule="evenodd" xlink:href="#path-15"></use>
                                    </g>
                                    <path d="M16.508,260.77 L15.514,260.77 L15.514,260.91 C15.416,264.018 14.702,266.51 13.372,268.358 L12.658,267.616 C13.806,265.992 14.422,263.766 14.506,260.91 L14.506,256.584 C18.006,256.542 21.156,256.248 23.956,255.702 L24.432,256.57 C21.772,257.074 18.804,257.368 15.514,257.452 L15.514,259.818 L23.942,259.818 L23.942,260.714 C23.41,262.506 22.43,264.046 21.016,265.334 C22.22,266.174 23.676,266.916 25.384,267.56 L24.838,268.442 C23.018,267.714 21.506,266.874 20.288,265.95 C19,266.944 17.404,267.77 15.528,268.442 L14.968,267.588 C16.76,266.972 18.272,266.202 19.49,265.306 C18.006,263.976 17.012,262.464 16.508,260.77 Z M20.218,264.718 C21.506,263.584 22.402,262.268 22.92,260.77 L17.46,260.77 C17.936,262.254 18.86,263.57 20.218,264.718 Z M32.244,256.332 L34.862,256.332 L34.862,255.548 L35.842,255.548 L35.842,256.332 L38.488,256.332 L38.488,259.076 L35.842,259.076 L35.842,259.958 L39.23,259.958 L39.23,260.826 L31.474,260.826 L31.474,259.958 L34.862,259.958 L34.862,259.076 L32.244,259.076 L32.244,256.332 Z M37.606,258.278 L37.606,257.144 L35.842,257.144 L35.842,258.278 L37.606,258.278 Z M34.862,258.278 L34.862,257.144 L33.126,257.144 L33.126,258.278 L34.862,258.278 Z M38.32,261.75 L38.32,265.908 L37.382,265.908 L37.382,262.59 L33.21,262.59 L33.21,265.908 L32.272,265.908 L32.272,261.75 L38.32,261.75 Z M36.332,265.964 C37.424,266.398 38.432,266.93 39.342,267.574 L38.796,268.414 C37.83,267.686 36.836,267.112 35.828,266.692 L36.332,265.964 Z M34.75,263.136 L35.73,263.136 L35.73,264.508 C35.688,265.572 35.352,266.426 34.708,267.07 C34.092,267.658 33.07,268.134 31.656,268.47 L31.11,267.616 C32.468,267.336 33.42,266.944 33.966,266.468 C34.456,265.964 34.722,265.306 34.75,264.508 L34.75,263.136 Z M28.618,258.866 C28.226,260.014 27.722,260.98 27.12,261.764 L26.49,260.994 C27.414,259.678 28.03,257.9 28.366,255.66 L29.346,255.828 C29.22,256.584 29.066,257.284 28.898,257.942 L31.474,257.942 L31.474,258.726 C31.11,259.566 30.718,260.28 30.284,260.868 L29.556,260.294 C29.864,259.874 30.144,259.398 30.41,258.866 L28.618,258.866 Z M28.548,260.7 L29.514,260.7 L29.514,266.79 C30.102,266.468 30.69,266.034 31.292,265.488 L31.474,266.426 C30.662,267.098 29.71,267.658 28.632,268.092 L28.226,267.238 C28.436,267.112 28.548,266.93 28.548,266.678 L28.548,260.7 Z M47.252,257.704 L49.086,257.704 L49.086,255.576 L50.038,255.576 L50.038,257.704 L52.488,257.704 L52.488,261.792 L53.37,261.792 L53.37,262.73 L50.374,262.73 C51.018,264.76 52.054,266.384 53.482,267.616 L52.796,268.414 C51.396,267.098 50.374,265.432 49.716,263.43 C49.296,265.684 48.442,267.35 47.154,268.428 L46.538,267.602 C47.77,266.608 48.554,264.984 48.89,262.73 L46.874,262.73 L46.874,261.792 L49.002,261.792 C49.058,261.204 49.086,260.588 49.086,259.972 L49.086,258.642 L47.252,258.642 L47.252,257.704 Z M50.038,258.642 L50.038,259.748 C50.038,260.462 49.996,261.148 49.94,261.792 L51.522,261.792 L51.522,258.642 L50.038,258.642 Z M42.282,258.068 C42.058,258.698 41.792,259.286 41.512,259.818 L40.658,259.286 C41.274,258.152 41.708,256.906 41.988,255.534 L42.954,255.744 C42.842,256.234 42.716,256.71 42.59,257.158 L46.286,257.158 L46.286,258.068 L44.214,258.068 L44.214,260.504 L46.636,260.504 L46.636,261.442 L44.214,261.442 L44.214,266.258 L45.376,266.104 L45.376,262.59 L46.272,262.59 L46.272,267.7 L45.376,267.7 L45.376,267 L41.19,267.518 L41.19,262.59 L42.086,262.59 L42.086,266.538 L43.276,266.384 L43.276,261.442 L40.784,261.442 L40.784,260.504 L43.276,260.504 L43.276,258.068 L42.282,258.068 Z M62.022,255.59 L63.016,255.772 C62.904,256.192 62.778,256.584 62.638,256.948 L66.614,256.948 L66.614,257.732 C66.04,258.88 65.396,259.86 64.696,260.644 L63.94,260.042 C64.5,259.426 65.018,258.712 65.48,257.872 L62.218,257.872 C61.63,259.006 60.874,259.944 59.922,260.672 L59.292,259.902 C60.636,258.838 61.546,257.41 62.022,255.59 Z M62.778,260.21 L63.366,261.008 C62.624,261.428 61.798,261.792 60.902,262.1 L60.902,263.906 L63.002,263.906 L63.002,264.83 L60.902,264.83 L60.902,266.664 L65.886,266.664 L65.886,264.83 L63.912,264.83 L63.912,263.906 L65.886,263.906 L65.886,262.086 L63.94,262.086 L63.94,261.12 L66.866,261.12 L66.866,268.176 L65.886,268.176 L65.886,267.602 L60.902,267.602 L60.902,268.176 L59.936,268.176 L59.936,261.428 C60.958,261.148 61.91,260.742 62.778,260.21 Z M55.19,256.15 L59.32,256.15 L59.32,256.934 C58.9,258.194 58.424,259.51 57.864,260.882 C58.732,262.114 59.194,263.22 59.264,264.228 C59.25,264.816 59.11,265.236 58.844,265.502 C58.466,265.824 57.808,265.992 56.856,266.006 L56.534,264.998 C56.744,265.026 56.926,265.054 57.066,265.054 C57.556,265.026 57.892,264.956 58.06,264.844 C58.228,264.718 58.312,264.508 58.312,264.228 C58.312,263.276 57.836,262.198 56.898,261.022 C57.514,259.566 58.004,258.25 58.354,257.074 L56.17,257.074 L56.17,268.414 L55.19,268.414 L55.19,256.15 Z" id="反馈缺陷" fill="#444444" fill-rule="nonzero"></path>
                                    <polyline id="路径-4" stroke="#878787" points="80 262.518047 105.516483 262.518047 105.516483 4.49810329 92.8381657 4.49810329"></polyline>
                                    <polygon id="XMLID_22_" fill="#878787" transform="translate(92.500000, 4.500000) rotate(-180.000000) translate(-92.500000, -4.500000) " points="90 9 95 4.5 90 2.55795385e-13"></polygon>
                                </g>
                                <g id="分组-30-copy复制-10" transform="translate(40.000000, 63.500000) rotate(-270.000000) translate(-40.000000, -63.500000) translate(27.000000, 59.000000)">
                                    <polygon id="XMLID_22_" fill="#878787" transform="translate(23.500000, 4.500000) rotate(-360.000000) translate(-23.500000, -4.500000) " points="21 9 26 4.5 21 0"></polygon>
                                    <path d="M21.0982931,4.5 L0.534114682,4.5" id="直线-3" stroke="#878787" stroke-linecap="square"></path>
                                </g>
                                <g id="分组-30-copy复制-11" transform="translate(40.000000, 149.500000) rotate(-270.000000) translate(-40.000000, -149.500000) translate(27.000000, 145.000000)">
                                    <polygon id="XMLID_22_" fill="#878787" transform="translate(23.500000, 4.500000) rotate(-360.000000) translate(-23.500000, -4.500000) " points="21 9 26 4.5 21 0"></polygon>
                                    <path d="M21.0982931,4.5 L0.534114682,4.5" id="直线-3" stroke="#878787" stroke-linecap="square"></path>
                                </g>
                                <g id="分组-30-copy复制-12" transform="translate(40.000000, 235.500000) rotate(-270.000000) translate(-40.000000, -235.500000) translate(27.000000, 231.000000)">
                                    <polygon id="XMLID_22_" fill="#878787" transform="translate(23.500000, 4.500000) rotate(-360.000000) translate(-23.500000, -4.500000) " points="21 9 26 4.5 21 0"></polygon>
                                    <path d="M21.0982931,4.5 L0.534114682,4.5" id="直线-3" stroke="#878787" stroke-linecap="square"></path>
                                </g>
                            </g>
                        </g>
                    </g>
                    <g id="分组-30-copy" transform="translate(132.000000, 162.000000)">
                        <polygon id="XMLID_22_" fill="#878787" transform="translate(23.500000, 4.500000) rotate(-360.000000) translate(-23.500000, -4.500000) " points="21 9 26 4.5 21 0"></polygon>
                        <path d="M21.0982931,4.5 L0.534114682,4.5" id="直线-3" stroke="#878787" stroke-linecap="square"></path>
                    </g>
                    <g id="分组-30-copy复制-7" transform="translate(300.000000, 162.000000)">
                        <polygon id="XMLID_22_" fill="#878787" transform="translate(23.500000, 4.500000) rotate(-360.000000) translate(-23.500000, -4.500000) " points="21 9 26 4.5 21 0"></polygon>
                        <path d="M21.0982931,4.5 L0.534114682,4.5" id="直线-3" stroke="#878787" stroke-linecap="square"></path>
                    </g>
                    <g id="分组-30-copy复制-8" transform="translate(473.000000, 162.000000)">
                        <polygon id="XMLID_22_" fill="#878787" transform="translate(23.500000, 4.500000) rotate(-360.000000) translate(-23.500000, -4.500000) " points="21 9 26 4.5 21 0"></polygon>
                        <path d="M21.0982931,4.5 L0.534114682,4.5" id="直线-3" stroke="#878787" stroke-linecap="square"></path>
                    </g>
                    <g id="分组-30-copy复制-9" transform="translate(641.000000, 162.000000)">
                        <polygon id="XMLID_22_" fill="#878787" transform="translate(23.500000, 4.500000) rotate(-360.000000) translate(-23.500000, -4.500000) " points="21 9 26 4.5 21 0"></polygon>
                        <path d="M21.0982931,4.5 L0.534114682,4.5" id="直线-3" stroke="#878787" stroke-linecap="square"></path>
                    </g>
                </g>
            </g>
        </g>
    </g>
</svg>