<?xml version="1.0" encoding="utf-8"?>
<!-- Generator: Adobe Illustrator 19.0.0, SVG Export Plug-In . SVG Version: 6.00 Build 0)  -->
<svg version="1.1" id="图层_1" xmlns="http://www.w3.org/2000/svg" xmlns:xlink="http://www.w3.org/1999/xlink" x="0px" y="0px"
	 viewBox="0 0 32 32" style="enable-background:new 0 0 32 32;" xml:space="preserve">
<style type="text/css">
	.st0{fill:none;}
	.st1{fill-rule:evenodd;clip-rule:evenodd;fill:#00A4FF;}
</style>
<g>
	<path class="st0" d="M-288.5-2205.5h-2v-2h0c0-4.4-3.6-8-8-8s-8,3.6-8,8h0v2h-2v0h-0.1v4h0.1v8h-0.1v4h20V-2205.5z M-292.5-2193.5
		h-12v-8h12V-2193.5z M-292.5-2205.5h-12v0h2v-2c0-2.2,1.8-4,4-4s4,1.8,4,4v2L-292.5-2205.5L-292.5-2205.5z M-324.5-2227.5v30.5
		c0,0,0.2,21.6,26,27.5c25.8-5.9,26-27.5,26-27.5v-30.5H-324.5z M-276.5-2197.1c0,0-0.1,4.6-2.8,9.7c-3.6,6.9-10.1,11.5-19.2,13.8
		c-21.4-5.4-22-22.7-22-23.4v-26.5h44V-2197.1z"/>
</g>
<g id="XMLID_18_">
	<g id="XMLID_95_">
		<path id="XMLID_96_" class="st1" d="M13,24L13,24l13,0v-2h-1V12h-5v10h-1V10h-5v12h-1v-5h-2v0h-1v0H8v5H6v2h2v0h2v0h1v0H13z
			 M22,14h1v8h-1V14z M16,12h1v10h-1V12z M10,22v-3h1v3H10z M4.7,6H28v15h2V4H4.7C4.4,3.4,3.7,3,3,3C1.9,3,1,3.9,1,5s0.9,2,2,2
			C3.7,7,4.4,6.6,4.7,6z M29,25c-0.7,0-1.4,0.4-1.7,1H4V11H2v17h25.3c0.3,0.6,1,1,1.7,1c1.1,0,2-0.9,2-2S30.1,25,29,25z"/>
	</g>
</g>
</svg>
