<?xml version="1.0" encoding="utf-8"?>
<!-- Generator: Adobe Illustrator 22.1.0, SVG Export Plug-In . SVG Version: 6.00 Build 0)  -->
<svg version="1.1" id="图层_1" xmlns="http://www.w3.org/2000/svg" xmlns:xlink="http://www.w3.org/1999/xlink" x="0px" y="0px"
	 width="830px" height="248.5px" viewBox="0 0 830 248.5" style="enable-background:new 0 0 830 248.5;" xml:space="preserve">
<style type="text/css">
	.st0{fill-opacity:0;}
	.st1{fill:none;stroke:#BABABA;stroke-dasharray:5;}
	.st2{fill:#EAEBEC;}
	.st3{fill:#CEE3FF;}
	.st4{opacity:0.6;fill:#BBBBBB;enable-background:new    ;}
	.st5{fill:#FFFFFF;stroke:#E5E5E5;}
	.st6{fill:#878787;}
	.st7{fill:none;stroke:#878787;stroke-miterlimit:10;}
	.st8{enable-background:new    ;}
	.st9{fill:#444444;}
	.st10{display:none;}
	.st11{display:inline;fill:#00A4FF;}
	.st12{display:none;fill:#00A4FF;}
	.st13{fill:#FFFFFF;}
	.st14{fill:#00A4FF;}
	.st15{clip-path:url(#SVGID_4_);fill:#00A4FF;}
	.st16{clip-path:url(#SVGID_8_);fill:#00A4FF;}
	.st17{clip-path:url(#SVGID_12_);fill:#00A4FF;}
</style>
<g id="DashRectGroup11_1_" transform="translate(163.994140625,134.5)">
	<rect x="56" y="-133.2" class="st0" width="386" height="245.2"/>
	<path class="st1" d="M56-133.2h386V112H56V-133.2"/>
</g>
<rect x="652" class="st2" width="177.2" height="248.5"/>
<rect x="233.1" y="12" class="st3" width="197.6" height="225"/>
<g id="RectEndPoint2_2_" transform="translate(179.01953125,177)">
	<g>
		<rect x="69.2" y="-118.4" class="st4" width="170.3" height="46.2"/>
		<rect x="66.6" y="-120.2" class="st5" width="171.6" height="46.2"/>
	</g>
</g>
<g id="RectEndPoint2_3_" transform="translate(179.01953125,177)">
	<g>
		<rect x="69.2" y="-35" class="st4" width="170.3" height="57.3"/>
		<rect x="66.6" y="-37.2" class="st5" width="171.6" height="57.3"/>
	</g>
</g>
<g>
	<polygon class="st6" points="648,122.9 652,126.9 648,130.9 	"/>
	<line class="st7" x1="650" y1="126.9" x2="606" y2="126.9"/>
</g>
<g>
	<polygon class="st6" points="472.7,122.9 476.7,126.9 472.7,130.9 	"/>
	<line class="st7" x1="474.7" y1="126.9" x2="430.7" y2="126.9"/>
</g>
<g id="RectEndPoint2_14_" transform="translate(179.01953125,177)">
	<g>
		<rect x="299.5" y="-163.6" class="st4" width="114.9" height="35.5"/>
		<rect x="297.7" y="-165" class="st5" width="114.9" height="35.5"/>
	</g>
</g>
<g id="RectEndPoint2_13_" transform="translate(179.01953125,177)">
	<g>
		<rect x="299.5" y="-117.4" class="st4" width="114.9" height="35.5"/>
		<rect x="297.7" y="-118.7" class="st5" width="114.9" height="35.5"/>
	</g>
</g>
<g id="RectEndPoint2_7_" transform="translate(179.01953125,177)">
	<g>
		<rect x="299.5" y="-71.1" class="st4" width="114.9" height="35.5"/>
		<rect x="297.7" y="-72.5" class="st5" width="114.9" height="35.5"/>
	</g>
</g>
<g id="RectEndPoint2_6_" transform="translate(179.01953125,177)">
	<g>
		<rect x="299.5" y="-23.4" class="st4" width="114.9" height="35.5"/>
		<rect x="297.7" y="-24.8" class="st5" width="114.9" height="35.5"/>
	</g>
</g>
<g id="RectEndPoint2_5_" transform="translate(179.01953125,177)">
	<g>
		<rect x="299.5" y="24.3" class="st4" width="114.9" height="35.5"/>
		<rect x="297.7" y="23" class="st5" width="114.9" height="35.5"/>
	</g>
</g>
<g class="st8">
	<path class="st9" d="M671.9,25.6h4.3v1.2h-8.7v2.4c0,2.7-0.4,4.8-1.1,6.4l-1.1-0.9c0.6-1.3,0.9-3.1,0.9-5.5v-3.7h4.3
		c-0.2-0.3-0.3-0.6-0.5-0.9l1.4-0.2C671.5,24.8,671.7,25.2,671.9,25.6z M672.3,34c0.7-1.7,1.3-3.7,1.8-6.1l1.2,0.3
		c-0.5,2.1-1,4-1.7,5.7h2.3v1.2h-8.6V34H672.3z M670.2,32.8l-1.2,0.3c-0.3-1.5-0.7-2.9-1.2-4.3l1.1-0.4
		C669.4,29.8,669.9,31.2,670.2,32.8z M672.4,32.1l-1.2,0.3c-0.3-1.5-0.6-3-1-4.5l1.1-0.4C671.7,28.9,672,30.4,672.4,32.1z"/>
	<path class="st9" d="M678.2,35.6l-1-0.9c0.7-1,1.1-2.3,1.1-3.9v-5.9h9.3V34c0,0.9-0.5,1.4-1.4,1.4h-1.4l-0.3-1.2
		c0.5,0,0.9,0.1,1.3,0.1c0.4,0,0.6-0.2,0.6-0.7v-1.7h-2.9v3.4h-1.3v-3.4h-2.7C679.3,33.3,678.9,34.6,678.2,35.6z M679.6,26.1v1.7
		h2.6v-1.7H679.6z M679.6,30.7h2.6V29h-2.6V30.7z M686.3,26.1h-2.9v1.7h2.9V26.1z M686.3,29h-2.9v1.7h2.9V29z"/>
	<path class="st9" d="M692.2,30.3c-0.5,1.8-1.1,3.5-1.8,5l-1.2-0.5c0.7-1.6,1.3-3.3,1.8-4.9L692.2,30.3z M692.1,27.7l-1,0.7
		c-0.4-0.9-1-1.8-1.7-2.9l1-0.6C691.1,25.9,691.7,26.9,692.1,27.7z M695.3,26.2v-1.7h1.2v1.7h2.7v3.5h1v1.2h-3.3
		c0.7,1.5,1.9,2.8,3.5,3.7l-0.8,1c-1.6-1.1-2.8-2.5-3.5-4.2c-0.6,1.9-1.8,3.3-3.5,4.2l-0.8-1.1c1.6-0.8,2.7-2,3.2-3.7h-2.4v-1.2h2.7
		c0.1-0.5,0.1-1,0.1-1.6v-0.7H693v-1.2L695.3,26.2L695.3,26.2z M696.5,27.9c0,0.7,0,1.3-0.1,1.9h1.6v-2.3h-1.5V27.9z"/>
	<path class="st9" d="M702.4,27.7l-1.1-0.7c0.7-0.8,1.2-1.6,1.5-2.5l1.2,0.3c-0.1,0.2-0.2,0.5-0.3,0.7h2.8v1.1h-1.7
		c0.2,0.3,0.4,0.7,0.6,1l-1.1,0.4c-0.2-0.5-0.5-0.9-0.7-1.4h-0.4C702.9,26.9,702.7,27.3,702.4,27.7z M706.1,28v-0.7h1.1l-0.7-0.4
		c0.5-0.8,0.9-1.6,1.1-2.4l1.2,0.3c-0.1,0.2-0.1,0.5-0.2,0.7h3.4v1.1h-2c0.2,0.3,0.4,0.7,0.5,1l-1.1,0.4c-0.2-0.5-0.5-0.9-0.7-1.4
		h-0.6c-0.2,0.4-0.4,0.7-0.6,1.1l-0.2-0.2V28h4.7v1.1h-4.7v0.6h3.9v2.4c0,0.7-0.4,1-1.1,1h-0.7c0.9,0.5,1.8,0.9,2.9,1.2l-0.7,1.1
		c-1.7-0.6-3.1-1.5-4.3-2.5v2.8h-1.3V33c-1.2,1.1-2.5,1.9-4,2.5l-0.7-1.1c1.8-0.6,3.4-1.5,4.7-2.7v-0.9h-2.5v2.3h-1.2v-3.3h3.7v-0.6
		h-4.7V28L706.1,28L706.1,28z M709.4,33.1l-0.3-1.1l0.8,0.1c0.2,0,0.2-0.1,0.2-0.3v-1h-2.7v0.9C708,32.2,708.6,32.7,709.4,33.1z"/>
</g>
<g class="st8">
	<path class="st9" d="M300,75.2c1.6,0,2.8,0.4,3.7,1.3c0.8,0.8,1.2,2.1,1.2,3.7c0,1.6-0.4,2.8-1.2,3.7c-0.8,0.9-2.1,1.3-3.7,1.3
		h-3.7v-10H300z M298,83.8h1.7c1.2,0,2.2-0.3,2.7-0.9c0.6-0.6,0.8-1.5,0.8-2.7c0-1.3-0.3-2.2-0.8-2.7c-0.6-0.6-1.5-0.9-2.7-0.9H298
		V83.8z"/>
	<path class="st9" d="M311.9,78.5c0.4,0.5,0.7,1.1,0.7,2v4.6h-1.5v-1c-0.3,0.4-0.6,0.6-1,0.8c-0.5,0.2-1,0.3-1.6,0.3
		c-0.8,0-1.3-0.2-1.8-0.6c-0.4-0.4-0.7-0.9-0.7-1.5c0-0.8,0.3-1.4,1-1.9c0.6-0.4,1.4-0.6,2.5-0.7l1.6,0v-0.3c0-1-0.5-1.4-1.6-1.4
		c-0.4,0-0.8,0.1-1.1,0.2c-0.3,0.2-0.5,0.5-0.6,0.8l-1.6-0.1c0.2-0.8,0.5-1.4,1.2-1.8c0.5-0.3,1.3-0.5,2.2-0.5
		C310.6,77.8,311.4,78,311.9,78.5z M309.5,81.9c-1.3,0-1.9,0.5-1.9,1.3c0,0.3,0.1,0.5,0.3,0.6s0.5,0.3,0.9,0.3
		c0.6,0,1.1-0.2,1.6-0.5c0.4-0.4,0.6-0.8,0.6-1.4v-0.4L309.5,81.9z"/>
	<path class="st9" d="M316.5,77.9h1.6v1.3h-1.6v4.1c0,0.2,0,0.3,0.1,0.4c0.1,0.1,0.2,0.1,0.4,0.1h1v1.3h-1.2c-0.6,0-1.1-0.2-1.4-0.5
		c-0.3-0.3-0.4-0.7-0.4-1.3v-4.1h-1.3v-1.3h1.3v-1.7l1.6-0.7V77.9z"/>
	<path class="st9" d="M325,78.5c0.4,0.5,0.7,1.1,0.7,2v4.6h-1.5v-1c-0.3,0.4-0.6,0.6-1,0.8c-0.5,0.2-1,0.3-1.6,0.3
		c-0.8,0-1.3-0.2-1.8-0.6c-0.4-0.4-0.7-0.9-0.7-1.5c0-0.8,0.3-1.4,1-1.9c0.6-0.4,1.4-0.6,2.5-0.7l1.6,0v-0.3c0-1-0.5-1.4-1.6-1.4
		c-0.4,0-0.8,0.1-1.1,0.2c-0.3,0.2-0.5,0.5-0.6,0.8l-1.6-0.1c0.2-0.8,0.5-1.4,1.2-1.8c0.5-0.3,1.3-0.5,2.2-0.5
		C323.7,77.8,324.5,78,325,78.5z M322.6,81.9c-1.3,0-1.9,0.5-1.9,1.3c0,0.3,0.1,0.5,0.3,0.6s0.5,0.3,0.9,0.3c0.6,0,1.1-0.2,1.6-0.5
		c0.4-0.4,0.6-0.8,0.6-1.4v-0.4L322.6,81.9z"/>
	<path class="st9" d="M338.4,75.7c0.7,0.5,1.1,1.3,1.2,2.4H338c-0.1-0.6-0.4-1.1-0.8-1.3c-0.4-0.3-0.9-0.4-1.7-0.4
		c-0.6,0-1.1,0.1-1.4,0.3c-0.4,0.2-0.6,0.6-0.6,1c0,0.4,0.2,0.8,0.7,1c0.2,0.1,0.8,0.3,1.7,0.6c1.4,0.4,2.2,0.8,2.6,1
		c0.9,0.5,1.3,1.2,1.3,2.2c0,0.9-0.4,1.6-1,2.1c-0.7,0.5-1.7,0.8-3,0.8c-1.2,0-2.2-0.2-2.9-0.7c-0.8-0.6-1.3-1.5-1.4-2.8h1.6
		c0.1,0.8,0.4,1.3,0.8,1.6c0.4,0.3,1,0.4,1.8,0.4c0.7,0,1.3-0.1,1.7-0.4c0.4-0.3,0.6-0.6,0.6-1c0-0.5-0.3-1-0.9-1.3
		c-0.2-0.1-0.8-0.3-1.9-0.7c-1.2-0.4-2-0.7-2.3-0.8c-0.8-0.5-1.1-1.1-1.1-2c0-0.9,0.4-1.6,1.1-2.1c0.7-0.5,1.6-0.7,2.7-0.7
		C336.9,75,337.8,75.2,338.4,75.7z"/>
	<path class="st9" d="M343.4,77.9h1.6v1.3h-1.6v4.1c0,0.2,0,0.3,0.1,0.4c0.1,0.1,0.2,0.1,0.4,0.1h1v1.3h-1.2c-0.6,0-1.1-0.2-1.4-0.5
		c-0.3-0.3-0.4-0.7-0.4-1.3v-4.1h-1.3v-1.3h1.3v-1.7l1.6-0.7L343.4,77.9L343.4,77.9z"/>
	<path class="st9" d="M347.8,77.9v4.4c0,0.6,0.1,1,0.4,1.3c0.3,0.3,0.6,0.4,1.2,0.4c0.4,0,0.7-0.2,1-0.4c0.3-0.3,0.6-0.7,0.7-1.2
		v-4.4h1.6v7.2h-1.6v-0.9c-0.6,0.8-1.4,1.1-2.3,1.1c-1.7,0-2.6-1-2.6-2.9v-4.5H347.8z"/>
	<path class="st9" d="M361.1,75v10.2h-1.5v-0.8c-0.5,0.6-1.2,1-2.2,1c-1.1,0-1.9-0.4-2.5-1.1c-0.6-0.7-0.8-1.6-0.8-2.7
		c0-1.1,0.3-1.9,0.8-2.6c0.6-0.8,1.4-1.1,2.5-1.1c0.8,0,1.6,0.4,2.2,1.2V75L361.1,75L361.1,75z M356.1,79.8c-0.3,0.4-0.4,1-0.4,1.8
		c0,0.8,0.1,1.4,0.4,1.8c0.3,0.5,0.8,0.8,1.6,0.8c0.6,0,1.1-0.3,1.4-0.7c0.3-0.4,0.4-1,0.4-1.7v-0.1c0-0.8-0.2-1.4-0.6-1.8
		c-0.3-0.4-0.8-0.6-1.3-0.6C357,79,356.5,79.3,356.1,79.8z"/>
	<path class="st9" d="M364.6,75.3c0.2,0.2,0.3,0.4,0.3,0.8c0,0.3-0.1,0.6-0.3,0.8s-0.5,0.3-0.8,0.3c-0.3,0-0.6-0.1-0.8-0.3
		c-0.2-0.2-0.3-0.5-0.3-0.8c0-0.3,0.1-0.6,0.3-0.8s0.5-0.3,0.8-0.3C364.2,75,364.4,75.1,364.6,75.3z M364.6,77.9v7.2H363v-7.2H364.6
		z"/>
	<path class="st9" d="M372.6,78.8c0.7,0.7,1,1.6,1,2.7c0,1.1-0.3,2-1,2.7c-0.7,0.7-1.6,1.1-2.7,1.1c-1.1,0-2-0.4-2.7-1.1
		c-0.7-0.7-1-1.6-1-2.7c0-1.1,0.3-2,1-2.7c0.7-0.7,1.5-1.1,2.6-1.1C371.1,77.8,372,78.1,372.6,78.8z M368.4,79.8
		c-0.3,0.4-0.5,1-0.5,1.7s0.2,1.3,0.5,1.7c0.4,0.5,0.9,0.8,1.5,0.8c0.7,0,1.2-0.3,1.5-0.8c0.3-0.5,0.5-1,0.5-1.7
		c0-0.7-0.2-1.3-0.5-1.7c-0.4-0.5-0.9-0.8-1.5-0.8C369.3,79.1,368.8,79.3,368.4,79.8z"/>
</g>
<g id="RectEndPoint2_8_" transform="translate(179.01953125,177)">
	<g>
		<rect x="487.9" y="-117.6" class="st4" width="149.6" height="46.2"/>
		<rect x="485.6" y="-119.4" class="st5" width="150.8" height="46.2"/>
	</g>
</g>
<g id="RectEndPoint2_9_" transform="translate(179.01953125,177)">
	<g>
		<rect x="487.9" y="-51.8" class="st4" width="149.6" height="46.2"/>
		<rect x="485.6" y="-53.6" class="st5" width="150.8" height="46.2"/>
	</g>
</g>
<g id="RectEndPoint2_15_" transform="translate(179.01953125,177)">
	<g>
		<rect x="487.4" y="13.9" class="st4" width="149.6" height="46.2"/>
		<rect x="485.1" y="12.1" class="st5" width="150.8" height="46.2"/>
	</g>
</g>
<g class="st10">
	<title>关系型数据库CDB</title>
	<path class="st11" d="M271.6,83H271c-5.5,0-10-1.3-10-3v-6.3c2.2,1.4,5.8,2.3,10,2.3s7.9-0.9,10-2.2v4.5c0.7,0.2,1.4,0.5,2,0.8V71
		c0-2.8-5.4-5-12-5s-12,2.2-12,5v18h2v-6.2c2,1.3,5.3,2.1,9.2,2.2c0.3-0.3,0.7-0.6,1.1-0.9C271.4,83.7,271.5,83.4,271.6,83z M271,68
		c5.5,0,10,1.3,10,3s-4.5,3-10,3s-10-1.4-10-3C261,69.3,265.5,68,271,68z M261,89h-2c0,2.5,4.4,4.6,10.2,4.9c-0.4-0.7-0.7-1.4-1-2.1
		C264.1,91.5,261,90.4,261,89z M284,86.1L284,86.1c0-2.9-2.2-5.1-5-5.1s-5,2.2-5,5v0.1c-2.1,0.6-3.4,2.8-2.9,4.9c0.5,1.8,2,3,3.9,3
		h8c2.2,0,4-1.8,4-4C287,88.2,285.8,86.6,284,86.1z M283,92h-8c-1.1,0-2-0.9-2-2c0-0.9,0.6-1.7,1.5-1.9l1.5-0.4v-1.8
		c0-1.6,1.4-2.9,3-2.9c1.6,0,2.9,1.3,3,2.9v1.8l1.5,0.4c0.9,0.2,1.5,1,1.5,1.9C285,91.1,284.1,92,283,92z"/>
</g>
<g class="st8">
	<path class="st9" d="M512.7,29c-0.1,0.2-0.1,0.4-0.2,0.6h2.5v1.1c-0.2,0.7-0.6,1.4-1.1,1.9c0.5,0.2,1,0.4,1.4,0.7l-0.7,1
		c-0.5-0.3-1.1-0.6-1.7-0.9c-0.8,0.5-1.9,0.9-3.1,1.3l-0.6-1.1c0.9-0.2,1.7-0.5,2.4-0.8c-0.5-0.2-1-0.4-1.6-0.6
		c0.3-0.5,0.6-1,0.8-1.5h-1.3v-1.1h1.8c0.1-0.3,0.2-0.5,0.3-0.7L512.7,29z M511.9,25.3V23h1.2v2.3h2.1v1.1h-2.1v0
		c0.7,0.3,1.3,0.6,2,0.9l-0.7,1c-0.5-0.4-1-0.7-1.3-1v1.3h-1.2v-2c-0.4,0.9-1.1,1.6-2,2.3l-0.7-1.1c0.8-0.5,1.4-1,1.8-1.5h-1.5v-1.1
		C509.5,25.3,511.9,25.3,511.9,25.3z M511.4,24.7l-0.9,0.4c-0.3-0.6-0.5-1.1-0.8-1.6l1-0.3C511,23.7,511.2,24.2,511.4,24.7z
		 M513.9,30.7H512c-0.2,0.3-0.3,0.6-0.5,0.9c0.4,0.1,0.8,0.3,1.2,0.4C513.3,31.7,513.6,31.2,513.9,30.7z M515.2,23.6
		c-0.3,0.5-0.6,1-1,1.6l-0.9-0.5c0.4-0.5,0.7-1,1-1.5L515.2,23.6z M516.4,28.4c-0.2,0.4-0.4,0.8-0.6,1.2l-0.8-1
		c0.7-1.4,1.2-3.2,1.4-5.6l1.3,0.2c-0.1,0.6-0.2,1.1-0.2,1.6h3.2v1.3h-0.7c-0.1,2-0.4,3.8-1.1,5.2c0.6,1,1.3,1.8,2.2,2.4l-0.7,1.1
		c-0.8-0.6-1.5-1.3-2.1-2.3c-0.6,0.9-1.3,1.6-2.2,2.3l-0.7-1.1c0.9-0.6,1.6-1.4,2.2-2.4C517.1,30.4,516.7,29.5,516.4,28.4z
		 M517,26.6c0.3,1.2,0.6,2.4,1,3.3c0.4-1.1,0.6-2.4,0.6-3.8h-1.5C517.1,26.3,517.1,26.4,517,26.6z"/>
	<path class="st9" d="M522.4,34.6l-0.3-1.2c0.3,0.1,0.6,0.1,0.9,0.1c0.3,0,0.4-0.2,0.4-0.5v-2.6c-0.4,0.2-0.8,0.3-1.3,0.4l-0.3-1.3
		c0.5-0.1,1.1-0.3,1.6-0.5v-2.5H522v-1.3h1.4v-2.2h1.3v2.2h1.1v1.3h-1.1v2c0.4-0.2,0.7-0.3,1-0.5v1.3c-0.4,0.2-0.7,0.3-1,0.5v3.4
		c0,0.9-0.4,1.3-1.3,1.3L522.4,34.6L522.4,34.6z M526,34.7l-1-0.9c0.8-1.6,1.2-3.7,1.3-6.2v-4.2h6.9v3.3h-2.3v1.2h2.6v1.2h-2.6v1.2
		h2v4.3h-1.2v-0.5h-2.8v0.5h-1.2v-4.3h2v-1.2h-2.1C527.3,31.3,526.8,33.1,526,34.7z M527.5,26.8v0.8c0,0.1,0,0.2,0,0.3h2.1v-1.2
		H527.5z M527.5,24.6v1h4.4v-1H527.5z M531.6,33v-1.5h-2.8V33H531.6z"/>
	<path class="st9" d="M546,33.2l-0.2,1.3h-3.7c-2.4,0-4-0.3-5-1l-0.3-0.2c-0.4,0.5-0.8,1-1.4,1.4l-0.9-1.1c0.5-0.4,1-0.8,1.3-1.3
		c-0.5-0.7-0.8-1.5-1.1-2.6l1.1-0.4c0.2,0.7,0.4,1.3,0.7,1.8c0.3-0.7,0.5-1.6,0.6-2.5h-2.2v-1c0.7-0.9,1.3-1.8,1.8-2.7h-1.8v-1.2
		h3.3v1.1c-0.5,1-1.1,1.9-1.6,2.7h1.8v0.8c-0.1,1.6-0.4,3-0.9,4.1c0.1,0.1,0.3,0.3,0.4,0.3c0.8,0.5,2,0.7,3.7,0.7
		C543,33.3,544.5,33.2,546,33.2z M542.5,28.4v0.7h2.8v1.1h-2.8v0.7h3.2v1.1h-3.2v0.9h-1.3v-0.9h-2.7v-1.1h2.7v-0.7h-2.3v-1.1h2.3
		v-0.7h-2.1v-1.1h2.1v-0.7h-2.7v-1.1h2.7v-0.7h-2.1v-1.1h2.1V23h1.3v0.8h2.7v1.7h0.7v1.1h-0.7v1.8H542.5z M542.5,25.5h1.4v-0.7h-1.4
		V25.5z M542.5,27.3h1.4v-0.7h-1.4V27.3z"/>
	<path class="st9" d="M550,34.7h-1.2v-5.5c-0.3,0.9-0.7,1.8-1.2,2.6l-0.6-1.5c0.8-1.1,1.4-2.3,1.7-3.6v-0.1h-1.3v-1.2h1.3v-2.3h1.2
		v2.3h1.2v1.2H550v0.7c0.5,0.6,1,1.3,1.6,2l-0.7,1c-0.3-0.6-0.6-1.1-0.9-1.6V34.7z M554.2,33c-0.6,0.7-1.6,1.3-3.1,1.8l-0.5-1.1
		c1.2-0.3,2.1-0.8,2.6-1.4c0.1-0.1,0.1-0.1,0.1-0.2h-2.7v-1.2h3.3c0.1-0.2,0.1-0.4,0.2-0.7h-2.6v-4.1h6.3v4.1h-2.5
		c0,0.2-0.1,0.5-0.1,0.7h3.4v1.2h-2.8c0.7,0.7,1.7,1.2,2.9,1.6l-0.9,1.1c-1.5-0.7-2.6-1.5-3.3-2.4C554.5,32.6,554.4,32.8,554.2,33z
		 M552.7,24v-0.9h1.2V24h1.7v-0.9h1.2V24h1.8v1.2h-1.8v0.7h-1.2v-0.7h-1.7v0.7h-1.2v-0.7H551V24H552.7z M556.7,27.7v-0.5h-3.9v0.5
		H556.7z M556.7,28.7h-3.9v0.6h3.9V28.7z"/>
</g>
<g class="st8">
	<path class="st9" d="M512.7,75.3c-0.1,0.2-0.1,0.4-0.2,0.6h2.5v1.1c-0.2,0.7-0.6,1.4-1.1,1.9c0.5,0.2,1,0.4,1.4,0.7l-0.7,1
		c-0.5-0.3-1.1-0.6-1.7-0.9c-0.8,0.5-1.9,0.9-3.1,1.3l-0.6-1.1c0.9-0.2,1.7-0.5,2.4-0.8c-0.5-0.2-1-0.4-1.6-0.6
		c0.3-0.5,0.6-1,0.8-1.5h-1.3v-1.1h1.8c0.1-0.3,0.2-0.5,0.3-0.7L512.7,75.3z M511.9,71.6v-2.3h1.2v2.3h2.1v1.1h-2.1v0
		c0.7,0.3,1.3,0.6,2,0.9l-0.7,1c-0.5-0.4-1-0.7-1.3-1v1.3h-1.2v-2c-0.4,0.9-1.1,1.6-2,2.3l-0.7-1.1c0.8-0.5,1.4-1,1.8-1.5h-1.5v-1.1
		L511.9,71.6L511.9,71.6z M511.4,71l-0.9,0.4c-0.3-0.6-0.5-1.1-0.8-1.6l1-0.3C511,69.9,511.2,70.4,511.4,71z M513.9,77H512
		c-0.2,0.3-0.3,0.6-0.5,0.9c0.4,0.1,0.8,0.3,1.2,0.4C513.3,78,513.6,77.5,513.9,77z M515.2,69.9c-0.3,0.5-0.6,1-1,1.6l-0.9-0.5
		c0.4-0.5,0.7-1,1-1.5L515.2,69.9z M516.4,74.7c-0.2,0.4-0.4,0.8-0.6,1.2l-0.8-1c0.7-1.4,1.2-3.2,1.4-5.6l1.3,0.2
		c-0.1,0.6-0.2,1.1-0.2,1.6h3.2v1.3h-0.7c-0.1,2-0.4,3.8-1.1,5.2c0.6,1,1.3,1.8,2.2,2.4l-0.7,1.1c-0.8-0.6-1.5-1.3-2.1-2.3
		c-0.6,0.9-1.3,1.6-2.2,2.3l-0.7-1.1c0.9-0.6,1.6-1.4,2.2-2.4C517.1,76.7,516.7,75.8,516.4,74.7z M517,72.9c0.3,1.2,0.6,2.3,1,3.3
		c0.4-1.1,0.6-2.4,0.6-3.8h-1.5C517.1,72.5,517.1,72.7,517,72.9z"/>
	<path class="st9" d="M522.4,80.9l-0.3-1.2c0.3,0.1,0.6,0.1,0.9,0.1c0.3,0,0.4-0.2,0.4-0.5v-2.6c-0.4,0.2-0.8,0.3-1.3,0.4l-0.3-1.3
		c0.5-0.1,1.1-0.3,1.6-0.5v-2.5H522v-1.3h1.4v-2.2h1.3v2.2h1.1v1.3h-1.1v2c0.4-0.2,0.7-0.3,1-0.5v1.3c-0.4,0.2-0.7,0.3-1,0.5v3.4
		c0,0.9-0.4,1.3-1.3,1.3L522.4,80.9L522.4,80.9z M526,81l-1-0.9c0.8-1.6,1.2-3.7,1.3-6.2v-4.2h6.9V73h-2.3v1.2h2.6v1.2h-2.6v1.2h2
		V81h-1.2v-0.5h-2.8V81h-1.2v-4.3h2v-1.2h-2.1C527.3,77.5,526.8,79.4,526,81z M527.5,73v0.8c0,0.1,0,0.2,0,0.3h2.1V73H527.5z
		 M527.5,70.9v1h4.4v-1H527.5z M531.6,79.3v-1.5h-2.8v1.5H531.6z"/>
	<path class="st9" d="M535.2,73.6l-0.8-1c1-0.9,1.8-2.1,2.3-3.4l1.2,0.3c-0.1,0.3-0.2,0.6-0.4,0.8h2.3c-0.2-0.3-0.3-0.6-0.5-0.9
		l1.4-0.2c0.2,0.4,0.3,0.7,0.5,1.2h3.9v1.1h-3.9V72h3.3v1h-3.3v0.5h3.3v1h-3.3v0.6h4.1v1.1h-9.5v-3.3
		C535.7,73.1,535.4,73.4,535.2,73.6z M534.8,78.1v-1.2h4.9v-0.5h1.3v0.5h4.8v1.2h-3.3c0.8,0.6,2,1.1,3.5,1.5l-0.6,1.2
		c-2-0.7-3.4-1.6-4.3-2.6H541v3h-1.3v-3h-0.1c-0.8,1-2.2,1.9-4.2,2.7l-0.7-1.1c1.6-0.5,2.8-1,3.6-1.5H534.8z M540,71.4h-2.9V72h2.9
		V71.4z M540,73h-2.9v0.5h2.9V73z M540,74.5h-2.9v0.6h2.9V74.5z"/>
	<path class="st9" d="M552.2,70.6c-0.2-0.4-0.4-0.8-0.6-1.2l1.4-0.2c0.2,0.4,0.4,0.9,0.5,1.4h5v1.3h-5v1.3h4.1v4.7
		c0,0.8-0.4,1.3-1.3,1.3h-1.3l-0.3-1.2l1.2,0.1c0.3,0,0.4-0.1,0.4-0.4v-3.2h-2.8V81h-1.3v-6.6h-2.6v4.8h-1.3v-6.1h3.9v-1.3h-5v-1.3
		L552.2,70.6L552.2,70.6z"/>
</g>
<g class="st8">
	<path class="st9" d="M505.5,121.2c-0.6,1.1-1.3,2-2.1,2.8c1.3,0.9,2.9,1.5,4.8,2l-0.8,1.2c-1.9-0.5-3.6-1.3-5-2.3
		c-1.4,1.1-3,1.9-5,2.4l-0.8-1.2c1.9-0.5,3.4-1.1,4.7-2.1c-0.8-0.8-1.5-1.7-2.1-2.7l1.1-0.6c0.5,0.9,1.2,1.8,2,2.5
		c0.8-0.7,1.4-1.6,1.9-2.6L505.5,121.2z M501.2,119.1c-1,1.3-2.2,2.3-3.6,3.3l-0.8-1.1c1.4-0.9,2.5-1.9,3.5-3L501.2,119.1z
		 M501.7,116.9c-0.2-0.4-0.4-0.8-0.7-1.2l1.5-0.3c0.2,0.4,0.5,0.9,0.7,1.5h4.9v1.2h-11.3v-1.2C496.8,116.9,501.7,116.9,501.7,116.9z
		 M508.1,121.5l-1,1c-0.8-1-2-2.1-3.5-3.3l0.9-0.9C505.9,119.3,507.1,120.4,508.1,121.5z"/>
	<path class="st9" d="M520.5,116v1.3h-6.5l-0.4,1.7h5.4l-1,6.6h2.8v1.3h-11.4v-1.3h7.3l0.3-1.8h-6l1.7-6.5h-3V116
		C509.6,116,520.5,116,520.5,116z M517.5,120.2h-4.3l-0.6,2.4h4.5L517.5,120.2z"/>
	<path class="st9" d="M522.3,127.2l-0.3-1.3c0.3,0.1,0.6,0.1,0.9,0.1c0.3,0,0.4-0.2,0.4-0.5v-2.7c-0.4,0.2-0.8,0.3-1.3,0.4l-0.3-1.3
		c0.5-0.1,1.1-0.3,1.6-0.4v-2.5H522v-1.3h1.4v-2.2h1.3v2.2h1v1.3h-1v2c0.3-0.2,0.6-0.3,1-0.5v1.3c-0.3,0.2-0.6,0.3-1,0.5v3.5
		c0,0.9-0.4,1.3-1.3,1.3L522.3,127.2L522.3,127.2z M525.9,122.7v-1.2h3v-1.2h1.3v1.2h3v1.2h-2c0.5,1,1.3,1.9,2.4,2.7l-0.8,1.1
		c-1.2-1.1-2-2.4-2.5-3.7h0v4.5h-1.3v-4.5h-0.1c-0.6,1.5-1.6,2.8-2.9,3.8l-0.7-1.1c1.2-0.7,2.1-1.6,2.7-2.7H525.9z M533,118.5h-1.2
		v-1.4h-4.4v1.4h-1.2V116h6.9L533,118.5L533,118.5z M529.2,118.2c-0.5,1.2-1.2,2.1-2,2.7l-0.9-0.8c0.9-0.6,1.5-1.4,1.9-2.3
		L529.2,118.2z M532.7,120.1l-1.1,0.7c-0.5-0.8-1.1-1.6-1.9-2.5l1-0.6C531.6,118.6,532.3,119.4,532.7,120.1z"/>
	<path class="st9" d="M539.7,116.6v-1h1.3v1h4.6v1.2h-3.4c0.9,0.7,2.3,1.3,4,1.7l-0.6,1.2c-2.1-0.7-3.6-1.7-4.6-2.8v2h-1.3v-2
		c-1,1.1-2.5,2.1-4.5,2.8l-0.7-1.2c1.8-0.5,3.2-1,4.1-1.7h-3.5v-1.2L539.7,116.6L539.7,116.6z M545.8,125.7v1.2h-11v-1.2H545.8z
		 M544.2,120.2v4.8h-7.8v-4.8H544.2z M542.9,122.1v-0.7h-5.2v0.7H542.9z M542.9,123.2h-5.2v0.7h5.2V123.2z"/>
	<path class="st9" d="M548.7,117.9v-2.3h1.3v2.3h1.1v1.3H550v0.5c0.5,0.5,1,1,1.5,1.6l-0.7,1.1c-0.3-0.5-0.5-1-0.7-1.4v6.2h-1.3
		v-5.4c-0.3,0.9-0.7,1.8-1.2,2.6L547,123c0.8-1.1,1.4-2.4,1.7-3.8h-1.4v-1.3H548.7z M551.7,120.7l-0.7-1.1c1.4-1,2.6-2.4,3.3-4h1.2
		c0.7,1.5,1.8,2.9,3.4,4l-0.7,1.1c-0.5-0.3-0.9-0.7-1.3-1v0.6H553v-0.7C552.5,120.1,552.1,120.4,551.7,120.7z M555.6,125.7
		c0.5-1.3,0.9-2.9,1.2-4.8l1.3,0.3c-0.3,1.7-0.7,3.2-1.2,4.5h1.7v1.3h-7.4v-1.3H555.6z M553.8,124.9l-1.1,0.3
		c-0.2-1.3-0.5-2.5-0.8-3.6l1.1-0.4C553.3,122.3,553.6,123.5,553.8,124.9z M554.9,116.9c-0.4,0.8-0.9,1.6-1.4,2.2h2.9
		C555.7,118.4,555.2,117.7,554.9,116.9z M555.7,124.3l-1.2,0.3c-0.2-1.2-0.5-2.4-0.8-3.5l1.1-0.4C555.1,121.8,555.4,123,555.7,124.3
		z"/>
	<path class="st9" d="M564.1,125.2c-1,0.7-2.2,1.4-3.6,1.8l-0.5-1.2c1.4-0.4,2.5-0.9,3.4-1.6L564.1,125.2z M564.9,116.4v-0.8h1.3
		v0.8h4.1v1.2h-4.1v0.8h4.8v2.5h-1.3v-1.4h-4.3l0.5,0.3c-0.7,0.5-1.3,0.9-2,1.4c0.9,0,1.6-0.1,2.2-0.1c0.4-0.3,0.9-0.6,1.3-0.9
		l1,0.7c-1.2,0.9-2.6,1.7-4.1,2.3c1.3-0.1,2.6-0.1,3.9-0.2c-0.2-0.3-0.5-0.5-0.7-0.7l0.9-0.6c0.9,0.9,1.6,1.7,2,2.3l-1,0.7
		c-0.2-0.3-0.4-0.6-0.6-0.8c-0.9,0.1-1.8,0.1-2.6,0.2v2.1c0,0.8-0.4,1.2-1.3,1.2h-1.1l-0.3-1.2c0.3,0.1,0.7,0.1,1,0.1
		c0.2,0,0.4-0.1,0.4-0.4V124c-1.3,0.1-2.6,0.1-3.7,0.2L561,123c0.4,0,0.8,0,1.1,0c0.8-0.2,1.6-0.6,2.5-1c-0.7,0-1.5,0.1-2.4,0.1
		l-0.3-1c0.2,0,0.4-0.1,0.6-0.2c0.7-0.4,1.3-0.8,1.9-1.3h-3v1.4h-1.3v-2.5h4.8v-0.8h-4.1v-1.2L564.9,116.4L564.9,116.4z M571.1,126
		l-0.7,1c-1.2-0.7-2.4-1.3-3.6-1.8l0.6-1C568.8,124.8,570,125.4,571.1,126z"/>
</g>
<g class="st8">
	<path class="st9" d="M498.5,165.6v-2.3h1.3v2.3h1.4v1.3h-1.4v0.5c0.6,0.5,1.1,1.1,1.7,1.8l-0.8,1.2c-0.4-0.6-0.7-1.2-0.9-1.6v6.2
		h-1.3v-5.7c-0.4,1-0.9,2-1.4,2.9l-0.6-1.4c0.9-1.1,1.5-2.3,1.9-3.8h-1.7v-1.3L498.5,165.6L498.5,165.6z M501.5,171.7
		c0.2-0.7,0.3-1.8,0.3-3.2v-4.8h4.4v9.6c0,0.1,0,0.2,0.1,0.2h0.4c0.1,0,0.2,0,0.2-0.1c0.1-0.1,0.1-0.1,0.1-0.2
		c0.1-0.2,0.1-0.9,0.1-2.3l1.2,0.4c0,1,0,1.7-0.1,2.2c-0.1,0.5-0.2,0.8-0.4,1c-0.2,0.2-0.5,0.3-1,0.3h-0.6c-1,0-1.5-0.4-1.5-1.3
		v-8.5h-1.8v3.6c0,1.4-0.1,2.6-0.3,3.7c-0.2,1-0.6,2-1.2,2.9l-1.1-1C501,173.4,501.3,172.5,501.5,171.7z"/>
	<path class="st9" d="M519.8,163.7v3.4h-1.5c0.2,0.3,0.4,0.6,0.6,0.9h1.7v1.2h-3c0.8,0.6,1.8,1,3.2,1.4l-0.5,1.1
		c-0.2-0.1-0.4-0.2-0.6-0.2v3.6h-1.2v-0.5h-1.9v0.5h-1.2v-4.2h2.9c-0.9-0.5-1.7-1-2.2-1.7h-2c-0.6,0.6-1.4,1.2-2.3,1.7h2.7v4.2h-1.2
		v-0.5h-1.7v0.5h-1.1v-3.6c-0.3,0.1-0.5,0.2-0.7,0.3l-0.6-1.1c1.3-0.4,2.4-0.8,3.2-1.4h-3V168h4.2c0.2-0.3,0.4-0.6,0.5-0.8l1.3,0.1
		c-0.1,0.2-0.2,0.5-0.3,0.7h2.6c-0.2-0.2-0.3-0.5-0.4-0.7l0.8-0.3h-2.5v-3.4L519.8,163.7L519.8,163.7z M514.5,163.7v3.4h-4.1v-3.4
		L514.5,163.7L514.5,163.7z M513.3,164.8h-1.8v1.2h1.8V164.8z M513.4,173.4v-1.5h-1.7v1.5H513.4z M518.6,173.4v-1.5h-1.9v1.5H518.6z
		 M518.7,164.8h-1.9v1.2h1.9V164.8z"/>
	<path class="st9" d="M533.2,168.9h-1.3V167h-8.4v1.9h-1.3v-3.1h2.2c-0.4-0.6-0.8-1.2-1.2-1.7l1.2-0.6c0.4,0.6,0.8,1.2,1.2,1.9
		l-0.8,0.4h2.5c-0.4-0.7-0.8-1.4-1.2-2l1.2-0.6c0.4,0.6,0.8,1.3,1.2,2l-1,0.5h1.9c0.5-0.8,0.9-1.6,1.3-2.5l1.4,0.5
		c-0.4,0.8-0.8,1.5-1.2,2h2.3L533.2,168.9L533.2,168.9z M531.1,167.7v1.2c-0.8,0.5-1.7,1-2.6,1.5v0.4h4.7v1.2h-4.7v1.8
		c0,0.8-0.4,1.2-1.3,1.2h-1.6l-0.3-1.2c0.5,0,1,0,1.5,0c0.2,0,0.4-0.2,0.4-0.5v-1.4h-4.9v-1.2h4.9v-0.9c0.8-0.4,1.5-0.6,2-0.9h-4.9
		v-1.2L531.1,167.7L531.1,167.7z"/>
	<path class="st9" d="M542.4,170.2c-1.8,1.1-4,2.1-6.6,3l-0.5-1.2c2.6-0.8,4.9-1.8,6.8-2.9L542.4,170.2z M540.4,173.6
		c0.7,0,1.4,0,2.1,0c0.3,0,0.6-0.2,0.7-0.5c0.2-0.3,0.3-1.1,0.3-2.2c0-0.8,0.1-2.8,0.1-5.8h-8.1v-1.3h9.4c-0.1,4.4-0.2,7.1-0.2,7.9
		c-0.1,1.1-0.2,1.9-0.5,2.4c-0.3,0.4-0.7,0.6-1.4,0.6c-0.6,0-1.2,0-2.1,0.1L540.4,173.6z M539.8,168.4l-0.9,0.9
		c-0.6-0.7-1.4-1.4-2.5-2.2l0.9-0.9C538.2,166.9,539.1,167.7,539.8,168.4z"/>
	<path class="st9" d="M550,174.9h-1.3v-5.5c-0.3,1-0.7,1.8-1.2,2.7l-0.6-1.4c0.8-1.1,1.4-2.4,1.7-3.8h-1.4v-1.3h1.5v-2.3h1.3v2.3
		h1.2v1.3H550v0.6c0.5,0.6,1,1.2,1.5,1.9l-0.7,1.1c-0.3-0.6-0.5-1-0.8-1.5L550,174.9L550,174.9z M558.6,163.6v1.2h-5.6v8.7h5.8v1.2
		h-7.1v-11.1H558.6z M558.2,165.7v1.2h-1.7v1.7h1.5v1.1h-1.5v1.9h1.9v1.2h-5.1v-1.2h1.9v-1.9h-1.5v-1.1h1.5v-1.7h-1.7v-1.2H558.2z"
		/>
	<path class="st9" d="M563,163.3v1h2.6c0,2.3-0.2,3.7-0.4,4.1s-0.8,0.7-1.5,0.7c-0.2,0-0.4,0-0.7-0.1l-0.3-1.2
		c0.3,0,0.5,0.1,0.7,0.1c0.4,0,0.7-0.2,0.8-0.4c0.1-0.3,0.2-0.9,0.2-2.1h-1.4c-0.2,1.7-1,3-2.2,3.9l-1-0.9c1-0.7,1.7-1.7,1.9-3h-1.5
		v-1.1h1.6v-1L563,163.3L563,163.3z M564.9,170v-0.9h1.3v0.9h4.9v1.2h-3.8c0.9,0.9,2.2,1.6,4,2.3l-0.9,1.1c-1.9-1-3.3-2.2-4.2-3.4
		v3.7h-1.3v-3.7c-0.9,1.4-2.4,2.5-4.3,3.4l-0.8-1.2c1.7-0.6,3-1.4,4-2.2H560V170H564.9z M570.7,164v4.7h-4.4V164H570.7z
		 M569.5,165.2h-1.9v2.4h1.9V165.2z"/>
</g>
<g class="st8">
	<path class="st9" d="M530.5,219.7c0.2,0.2,0.3,0.4,0.3,0.7c0,0.3-0.1,0.5-0.3,0.7c-0.2,0.2-0.4,0.3-0.7,0.3c-0.3,0-0.5-0.1-0.7-0.3
		c-0.2-0.2-0.3-0.4-0.3-0.7s0.1-0.5,0.3-0.7c0.2-0.2,0.4-0.3,0.7-0.3S530.3,219.6,530.5,219.7z M534.7,219.7
		c0.2,0.2,0.3,0.4,0.3,0.7c0,0.3-0.1,0.5-0.3,0.7c-0.2,0.2-0.4,0.3-0.7,0.3c-0.3,0-0.5-0.1-0.7-0.3c-0.2-0.2-0.3-0.4-0.3-0.7
		s0.1-0.5,0.3-0.7c0.2-0.2,0.4-0.3,0.7-0.3C534.3,219.5,534.5,219.6,534.7,219.7z M538.9,219.7c0.2,0.2,0.3,0.4,0.3,0.7
		c0,0.3-0.1,0.5-0.3,0.7s-0.4,0.3-0.7,0.3s-0.5-0.1-0.7-0.3s-0.3-0.4-0.3-0.7s0.1-0.5,0.3-0.7s0.4-0.3,0.7-0.3
		S538.7,219.6,538.9,219.7z"/>
</g>
<g class="st8">
	<path class="st9" d="M713,79.3v-4.8h1.4v4.8h1.5v1.3h-1.5v0.4c0.7,0.6,1.3,1.3,2,2l-0.8,1.2c-0.4-0.8-0.8-1.4-1.1-2v5.1H713v-4.7
		c-0.4,1-0.9,2-1.5,2.9l-0.6-1.6c0.9-1,1.6-2.1,2.1-3.4h-1.8v-1.3H713z M712.7,78.6l-1,0.3c-0.2-1-0.4-1.9-0.6-2.8l1-0.3
		C712.4,76.5,712.6,77.5,712.7,78.6z M716.3,75.7c-0.1,1.2-0.3,2.2-0.6,3.1l-0.9-0.3c0.3-0.8,0.4-1.8,0.5-2.9L716.3,75.7z
		 M720.9,74.5v0.8h2.8v1.2h-2.8v0.6h2.4v1.1h-2.4v0.6h3.1V80h-7.6v-1.2h3.1v-0.6H717v-1.1h2.5v-0.6h-2.9v-1.2h2.9v-0.8H720.9z
		 M718.3,87.5h-1.4v-6.9h6.4V86c0,0.9-0.5,1.4-1.4,1.4h-1l-0.4-1.3l0.9,0.1c0.3,0,0.4-0.2,0.4-0.4v-0.4h-3.6L718.3,87.5L718.3,87.5z
		 M721.9,81.8h-3.6v0.7h3.6V81.8z M718.3,84.2h3.6v-0.7h-3.6V84.2z"/>
	<path class="st9" d="M728.4,75c-0.6,1.7-1.1,3-1.7,4.1c0.4-0.1,0.7-0.1,1.1-0.2c0.2-0.5,0.4-1,0.7-1.6l1.3,0.5
		c-1,2.1-1.8,3.7-2.5,4.7c0.8-0.2,1.5-0.4,2.3-0.6v1.3c-1.4,0.4-2.7,0.7-3.9,0.9l-0.4-1.3c0.2-0.1,0.4-0.2,0.6-0.4
		c0.4-0.4,0.8-1.2,1.4-2.3c-0.6,0.1-1.2,0.2-1.8,0.3l-0.3-1.2c0.2-0.1,0.4-0.3,0.6-0.5c0.6-1.3,1-2.7,1.5-4.2L728.4,75z M729.5,85.7
		c-1.2,0.5-2.6,0.9-4.2,1.2l-0.2-1.4c1.7-0.3,3.1-0.7,4.4-1.2L729.5,85.7L729.5,85.7z M731.3,86.6v0.8H730V75.5h7.6v11.9h-1.4v-0.8
		L731.3,86.6L731.3,86.6z M731.3,76.9v3.5h1.8v-3.5H731.3z M731.3,81.7v3.6h1.8v-3.6H731.3z M736.2,80.4v-3.5h-1.8v3.5H736.2z
		 M736.2,85.3v-3.6h-1.8v3.6H736.2z"/>
	<path class="st9" d="M744.5,75c-0.5,1.1-1.1,2.2-1.8,3.2v9.2h-1.5V80c-0.5,0.5-1.1,1.1-1.8,1.6l-0.5-1.5c1.9-1.6,3.2-3.5,4.1-5.7
		L744.5,75z M747.2,87.3c-1.2,0-1.8-0.6-1.8-1.8v-3.8c-0.5,0.3-1,0.5-1.5,0.7l-0.7-1.4c0.7-0.3,1.4-0.7,2.1-1.1v-5.4h1.5v4.5
		c1.3-0.9,2.5-1.9,3.5-3l1,1.2c-1.3,1.4-2.9,2.6-4.6,3.6v4.4c0,0.4,0.2,0.6,0.6,0.6h2c0.3,0,0.5-0.1,0.7-0.3
		c0.1-0.2,0.2-0.9,0.3-2.2l1.3,0.5c-0.1,1.6-0.3,2.6-0.5,2.9c-0.3,0.3-0.8,0.5-1.5,0.5L747.2,87.3L747.2,87.3z"/>
	<path class="st9" d="M760,87.2c-0.9,0-1.6-0.1-2.2-0.2c-0.6-0.2-1-0.5-1.4-1c-0.2-0.2-0.4-0.4-0.5-0.4c-0.3,0-0.7,0.6-1.4,1.9
		l-1.1-1c0.7-1.1,1.3-1.8,1.9-2.1v-3.8h-1.8v-1.3h3.2v5.3l0.1,0.1c0.3,0.4,0.6,0.6,1,0.8c0.4,0.2,1,0.3,1.8,0.4c0.8,0,1.7,0,2.8,0
		c0.7,0,1.4,0,2.1,0c0.7,0,1.3-0.1,1.7-0.1l-0.4,1.4h-3.2C761.7,87.3,760.8,87.2,760,87.2z M756.8,76.8l-1.1,1
		c-0.5-0.7-1.3-1.5-2.3-2.3l1-1C755.4,75.4,756.2,76.1,756.8,76.8z M765.8,78.3v1.4h-4.3c-0.6,1.5-1.2,2.8-1.8,3.7
		c1.5-0.2,2.7-0.4,3.8-0.7c-0.3-0.7-0.6-1.3-0.9-1.9l1.2-0.4c0.7,1.3,1.4,2.7,1.9,4.4l-1.3,0.3c-0.1-0.4-0.3-0.8-0.4-1.2
		c-1.5,0.4-3.5,0.7-5.9,1l-0.4-1.3c0.6-0.2,1.4-1.5,2.4-3.9h-2.8v-1.4L765.8,78.3L765.8,78.3z M764.8,75.2v1.3h-6.6v-1.3H764.8z"/>
	<path class="st9" d="M770.4,75.4v-0.8h1.5v0.8h3.3v-0.8h1.5v0.8h3v1.3h-3v0.7h-1.5v-0.7h-3.3v0.7h-1.5v-0.7h-3v-1.3H770.4z
		 M779.3,80.5h-1.4v-1.6h-8.9v1.7h-1.4v-2.9h11.7L779.3,80.5L779.3,80.5z M778.5,87.5h-1.4V87H770v0.5h-1.4v-4.2h10V87.5z
		 M777.2,79.6v3.1h-7.4v-3.1H777.2z M777.1,85.8v-1.2H770v1.2H777.1z M775.9,80.7h-4.7v0.9h4.7V80.7z"/>
</g>
<g class="st8">
	<path class="st9" d="M716.7,140.8v11h1.5v-11h1.5v11h4v1.4h-12.5v-1.4h4v-11H716.7z M714.6,149.8l-1.3,0.3
		c-0.5-2.2-1.1-4.3-1.8-6.3l1.2-0.4C713.4,145.3,714.1,147.4,714.6,149.8z M723.5,143.8c-0.5,2.4-1.2,4.5-2,6.3l-1.3-0.5
		c0.8-1.6,1.5-3.7,2-6.2L723.5,143.8z"/>
	<path class="st9" d="M730.5,140.9c-0.1,0.3-0.3,0.6-0.4,0.9h6v1.2c-0.8,1-1.8,1.8-3,2.4c1.5,0.5,3.1,0.9,4.9,1.1l-0.7,1.4
		c-2.2-0.3-4.1-0.8-5.9-1.6c-1.7,0.7-3.6,1.3-5.8,1.6l-0.7-1.4c1.8-0.2,3.4-0.6,4.9-1.1c-0.6-0.4-1.2-0.8-1.7-1.2
		c-0.5,0.4-1,0.7-1.5,1.1l-0.9-1.2c1.6-0.9,2.7-2.1,3.3-3.4L730.5,140.9z M731.9,147c0,0.5,0,0.9-0.1,1.4h4.8c0,2.5-0.2,4-0.6,4.5
		c-0.4,0.5-1.1,0.7-2.1,0.7c-0.5,0-1.1,0-1.8-0.1l-0.4-1.3c0.7,0,1.3,0.1,1.8,0.1c0.7,0,1.1-0.2,1.2-0.4c0.2-0.3,0.3-1,0.3-2.2h-3.7
		c-0.1,0.3-0.3,0.6-0.4,0.9c-0.7,1.2-2.3,2.3-4.9,3.1l-1-1.2c2.3-0.7,3.8-1.5,4.4-2.4c0.1-0.2,0.2-0.3,0.3-0.4H726v-1.3h4.3
		c0.1-0.4,0.1-0.9,0.1-1.4L731.9,147L731.9,147z M733.9,143.2h-4.7l0,0c0.7,0.6,1.5,1.1,2.4,1.5
		C732.4,144.3,733.2,143.8,733.9,143.2z"/>
	<path class="st9" d="M750.5,152h1.4v1.3h-12.8V152h1.4v-3.9h10L750.5,152L750.5,152z M741.3,141.4v5.8h-1.4v-5.8H741.3z M743.3,152
		v-2.5h-1.4v2.5H743.3z M744.2,140.7v7h-1.5v-7H744.2z M745.4,146.4l-0.9-1.1c0.9-1.1,1.6-2.7,1.9-4.6l1.5,0.3
		c-0.1,0.5-0.2,0.9-0.3,1.3h3.9v1.4h-4.4C746.7,144.8,746.1,145.7,745.4,146.4z M746.2,152v-2.5h-1.5v2.5H746.2z M750.3,146.7
		l-1.2,0.8c-0.4-0.8-0.9-1.6-1.6-2.5l1.2-0.7C749.3,145.2,749.9,146,750.3,146.7z M749.1,152v-2.5h-1.5v2.5H749.1z"/>
	<path class="st9" d="M753.6,153.6l-0.3-1.4c0.4,0.1,0.7,0.1,1.1,0.1c0.3,0,0.5-0.2,0.5-0.5v-2.8c-0.5,0.2-1,0.4-1.5,0.5l-0.4-1.5
		c0.6-0.1,1.2-0.3,1.8-0.5v-2.8h-1.6v-1.4h1.6v-2.5h1.5v2.5h1v1.4h-1v2.2c0.3-0.2,0.7-0.4,1.1-0.5v1.5c-0.4,0.2-0.7,0.3-1.1,0.5v3.8
		c0,1-0.5,1.4-1.4,1.4L753.6,153.6L753.6,153.6z M757.9,149.4V148h7.5v1.4h-3v2.6h3.5v1.4h-8.6v-1.4h3.6v-2.6H757.9z M762.4,142.1
		h3.2v2.9h-1.4v-1.6h-5.2v1.6h-1.4v-2.9h3.3c-0.2-0.5-0.4-0.9-0.6-1.3l1.5-0.3C762,141,762.2,141.6,762.4,142.1z M761.3,144.6
		c-0.6,1.4-1.4,2.4-2.4,3.2l-1-0.9c1-0.7,1.7-1.6,2.2-2.7L761.3,144.6z M765.4,147l-1.3,0.7c-0.6-1.1-1.3-2.2-2.1-3.1l1.2-0.5
		C764,144.9,764.7,145.9,765.4,147z"/>
	<path class="st9" d="M769.7,144.4v-1.6c-0.6,0.1-1.2,0.2-1.9,0.2l-0.5-1.3c2.2-0.2,3.9-0.5,5.2-1l0.7,1.2c-0.7,0.3-1.4,0.5-2.2,0.6
		v1.8h2.2v1.4h-2.2v0.5c0.8,0.7,1.6,1.4,2.4,2.3l-0.9,1.3c-0.6-0.9-1.1-1.6-1.5-2.1v5.8h-1.4v-5.4c-0.6,1.1-1.2,2.1-2.1,3.1
		l-0.6-1.6c1.2-1.1,2.1-2.3,2.7-3.7v-0.1h-2.3v-1.4L769.7,144.4L769.7,144.4z M779.5,153.1H778v-1h-2.9v1.2h-1.4v-11.7h5.7
		L779.5,153.1L779.5,153.1z M778,150.7v-7.8h-2.9v7.8H778z"/>
	<path class="st9" d="M786.6,141.7c-0.6,1.1-1.3,2.1-2,2.8c-0.6,0.7-1.6,1.5-2.8,2.4l-0.8-1.3c0.9-0.5,1.7-1.1,2.5-2
		c0.6-0.7,1.2-1.6,1.8-2.7L786.6,141.7z M783.2,147.6v-1.4h8.5c-0.1,1.8-0.1,3.3-0.3,4.4c-0.1,1.1-0.4,1.9-0.7,2.3
		c-0.3,0.4-0.8,0.7-1.6,0.7h-2.7l-0.4-1.4c0.8,0,1.6,0.1,2.3,0.1c0.7,0,1.1-0.3,1.4-0.9c0.2-0.6,0.4-1.8,0.4-3.8h-3
		c-0.3,1.4-0.8,2.6-1.3,3.4c-0.7,1-1.8,1.9-3.2,2.8l-1-1.2c1.3-0.7,2.2-1.4,2.9-2.2c0.5-0.7,0.9-1.6,1.2-2.7L783.2,147.6
		L783.2,147.6z M794,145.8l-1,1.2c-2.2-1.4-3.7-3.2-4.5-5.4l1.3-0.7C790.5,142.9,791.9,144.6,794,145.8z"/>
	<path class="st9" d="M798.6,153.7h-1.4v-6.4c-0.4,1.2-1,2.3-1.6,3.2l-0.6-1.6c1-1.2,1.7-2.6,2.1-4.2h-1.8v-1.4h1.9v-2.6h1.4v2.6
		h1.7v1.4h-1.7v0.6c0.6,0.6,1.3,1.3,1.9,2.1l-0.8,1.2c-0.4-0.7-0.8-1.2-1.1-1.7L798.6,153.7L798.6,153.7z M807.5,142.1
		c-1.6,0.5-3.3,0.8-5.2,0.9v2.1h5.5v1.4h-1.9v7.2h-1.5v-7.2h-2.1c-0.1,3-0.8,5.4-2.2,7.1l-1-1.1c1.1-1.5,1.7-3.5,1.8-6.1v-4.6
		c2.2-0.1,4.2-0.4,5.9-1L807.5,142.1z"/>
</g>
<g class="st8">
	<path class="st9" d="M717.9,218.9h-1.4v-7.6c-0.3,0.4-0.6,0.7-0.8,1.1l-0.2-0.7v1.5c-0.4,0.2-0.8,0.3-1.1,0.5v3.7
		c0,1-0.5,1.4-1.5,1.4h-1.3l-0.3-1.4c0.4,0.1,0.7,0.1,1.1,0.1c0.3,0,0.5-0.2,0.5-0.5v-2.8c-0.5,0.2-1,0.3-1.5,0.5l-0.4-1.5
		c0.6-0.1,1.3-0.3,1.9-0.5v-2.8h-1.6v-1.4h1.6V206h1.5v2.4h1.2v1.4h-1.2v2.3c0.4-0.2,0.8-0.3,1.1-0.5l-0.3-0.8
		c1.1-1.5,1.8-3.1,2.3-4.8l1.4,0.3c-0.2,0.7-0.4,1.3-0.7,1.9h2c-0.2-0.6-0.4-1.3-0.7-1.9l1.4-0.4c0.3,0.8,0.5,1.6,0.7,2.3h2.1v1.4
		h-2.2v1.5h1.9v1.4h-1.9v1.4h1.9v1.4h-1.9v1.6h2.4v1.4h-5.9L717.9,218.9L717.9,218.9z M717.9,209.6v1.5h2v-1.5H717.9z M717.9,213.9
		h2v-1.4h-2V213.9z M717.9,216.8h2v-1.6h-2V216.8z"/>
	<path class="st9" d="M728.4,206.8V206h1.5v0.8h3.2V206h1.5v0.8h3v1.3h-3v0.9h-1.5v-0.9h-3.2v0.7l1.4,0.3c-0.1,0.2-0.2,0.4-0.3,0.7
		h6.5v1.3h-7.2c-0.4,0.7-0.9,1.4-1.5,2v5.9h-1.4v-4.5c-0.5,0.4-1,0.8-1.5,1.2l-0.9-1.2c1.5-1,2.7-2.1,3.6-3.3h-3.1v-1.3h3.9
		c0.1-0.3,0.2-0.5,0.3-0.8h-1.4v-0.9h-3v-1.3H728.4z M734.6,213.2h-4v-1.3h6.1v1c-0.6,0.4-1.2,0.9-2,1.5v0.2h2.9v1.4h-2.9v1.7
		c0,0.9-0.4,1.3-1.3,1.3h-1.7l-0.4-1.4c0.7,0.1,1.2,0.1,1.6,0.1c0.3,0,0.4-0.1,0.4-0.4V216h-3.7v-1.4h3.7V214
		C733.6,213.8,734,213.5,734.6,213.2z"/>
	<path class="st9" d="M743.6,215.6c-0.9,1.1-2.1,2.1-3.5,3l-0.9-1.2c1.3-0.8,2.5-1.7,3.4-2.7L743.6,215.6z M743.4,218.9l-0.3-1.4
		c0.5,0.1,1,0.1,1.4,0.1c0.3,0,0.4-0.2,0.4-0.4v-3c-1.3,0.1-2.7,0.2-4.3,0.2l-0.4-1.3c0.5,0,0.9-0.1,1.3-0.3c1-0.4,2-1.1,3.2-1.9
		c-1.1,0.1-2.3,0.2-3.5,0.2l-0.3-1.3c0.3,0,0.7-0.1,1-0.3c0.5-0.2,1.1-0.8,1.8-1.6c-1.1,0-2.2,0.1-3.4,0.1l-0.4-1.3
		c4,0,7.4-0.3,10.2-0.8l0.7,1.2c-1.5,0.3-3.3,0.5-5.3,0.7c-0.7,0.8-1.4,1.5-2.1,2c0.9-0.1,1.9-0.1,2.8-0.2c0.6-0.5,1.2-1,1.8-1.6
		l1.3,0.7c-2.2,1.9-4.1,3.3-5.7,4.2c1.8-0.1,3.4-0.3,4.8-0.4c-0.3-0.4-0.6-0.8-0.9-1.2l1.1-0.7c1.2,1.4,2.1,2.6,2.7,3.6l-1.2,0.8
		c-0.3-0.4-0.5-0.9-0.9-1.4c-0.9,0.1-1.9,0.2-2.9,0.3v3.4c0,0.9-0.5,1.4-1.4,1.4L743.4,218.9L743.4,218.9z M751.7,217.6l-1,1
		c-0.8-1-1.9-2-3.4-3.1l1-0.9C749.6,215.6,750.8,216.6,751.7,217.6z"/>
	<path class="st9" d="M756.7,206.5c-0.6,1.6-1.3,2.9-2,4c0.4,0,0.8-0.1,1.3-0.2c0.2-0.4,0.5-0.9,0.7-1.5l1.3,0.5
		c-1.1,2.1-2,3.6-2.7,4.6c0.8-0.2,1.7-0.5,2.5-0.9v1.3c-1.5,0.6-3,1.1-4.3,1.3l-0.4-1.3c0.3-0.1,0.5-0.3,0.7-0.4
		c0.4-0.4,0.9-1.2,1.5-2.2c-0.6,0.1-1.3,0.2-1.9,0.3l-0.4-1.3c0.2-0.1,0.4-0.3,0.6-0.6c0.6-1.2,1.2-2.6,1.7-4.1L756.7,206.5z
		 M757.8,216.8c-1.3,0.6-2.7,1.2-4.3,1.6l-0.2-1.5c1.7-0.4,3.2-0.9,4.5-1.5L757.8,216.8L757.8,216.8z M760.7,212.7
		c-0.1,1.8-0.3,3.1-0.7,3.9c-0.4,0.9-1.1,1.7-2,2.3l-0.9-1.2c0.8-0.5,1.3-1.1,1.7-1.8c0.3-0.7,0.5-1.8,0.5-3.3H760.7z M757.9,211.1
		c0.1,0,0.2-0.1,0.3-0.1c0.4-0.3,0.9-1.1,1.5-2.2h-2.1v-1.4h3.4c-0.2-0.4-0.3-0.8-0.5-1.2l1.5-0.3c0.2,0.4,0.3,0.9,0.5,1.4h3v1.4
		h-4.3c-0.5,1-1,1.7-1.3,2.2c1.1-0.1,2.1-0.2,3.2-0.4l-0.8-1.1l1.1-0.7c0.9,1.2,1.6,2.2,2.1,3.1l-1.1,0.8c-0.2-0.3-0.4-0.6-0.5-0.9
		c-1.7,0.3-3.6,0.5-5.6,0.6L757.9,211.1z M763.6,218.7c-1.1,0-1.6-0.5-1.6-1.4v-4.8h1.4v4.5c0,0.2,0.1,0.3,0.2,0.4h0.7
		c0.2,0,0.4-0.2,0.4-0.6c0-0.4,0.1-0.9,0.1-1.5l1.2,0.4c0,1.3-0.1,2.2-0.3,2.5c-0.2,0.3-0.6,0.4-1.3,0.5H763.6z"/>
</g>
<g id="DashRectGroup11" transform="translate(163.994140625,134.5)">
	<rect x="-162.2" y="-133.2" class="st0" width="133.9" height="245.2"/>
	<path class="st1" d="M-162.2-133.2h133.9V112h-133.9V-133.2"/>
</g>
<g id="RectEndPoint2_1_" transform="translate(179.01953125,177)">
	<g>
		<rect x="-163.6" y="-163.6" class="st4" width="107.3" height="35.5"/>
		<rect x="-165.3" y="-165" class="st5" width="107.3" height="35.5"/>
	</g>
</g>
<g>
	<polygon class="st6" points="216,123.9 220,127.9 216,131.9 	"/>
	<line class="st7" x1="218" y1="127.9" x2="135.7" y2="127.9"/>
</g>
<g class="st8">
	<path class="st9" d="M32.5,27.2l-1.1-0.7c0.7-0.8,1.2-1.6,1.5-2.5l1.3,0.3c-0.1,0.2-0.1,0.4-0.2,0.6h3.1V26h-1.8
		c0.2,0.3,0.4,0.6,0.5,0.8l-1.2,0.5c-0.2-0.5-0.4-0.9-0.7-1.3h-0.5C33.2,26.4,32.9,26.8,32.5,27.2z M42.6,29.8h-1.3v-1.4h-8.3v1.4
		h-1.3v-2.5h4.8c-0.1-0.2-0.2-0.4-0.3-0.6l1.1-0.2L37,26.4c0.6-0.8,1-1.6,1.3-2.4l1.2,0.3c-0.1,0.2-0.1,0.4-0.2,0.6h3.5V26h-2
		c0.2,0.3,0.3,0.5,0.5,0.7l-1.2,0.4c-0.2-0.4-0.4-0.8-0.7-1.2h-0.6c-0.2,0.4-0.5,0.8-0.7,1.1l-0.6-0.4c0.1,0.2,0.2,0.4,0.2,0.6h4.8
		L42.6,29.8L42.6,29.8z M40.8,31.7h-6.1v0.6h6.7v3.4h-1.3v-0.4h-5.4v0.4h-1.3V29h7.4L40.8,31.7L40.8,31.7z M39.5,30.7V30h-4.8v0.6
		H39.5z M40.1,34.1v-0.8h-5.4v0.8H40.1z"/>
	<path class="st9" d="M45.4,28.6V26H44v-1.3h4.1V26h-1.4v2.6h1.2v1.3h-1.2v2.4c0.4-0.1,0.8-0.3,1.2-0.5V33c-1.2,0.5-2.4,0.8-3.7,1.1
		l-0.3-1.3c0.5-0.1,1-0.2,1.5-0.3v-2.8h-1.2v-1.3H45.4z M55,24.4v6.1h-2.6v1.2h2.7v1.2h-2.7v1.2h3.1v1.3h-7.7v-1.3h3.2v-1.2h-2.7
		v-1.2h2.7v-1.2h-2.6v-6.1H55z M51.1,26.9v-1.3h-1.3v1.3H51.1z M51.1,28h-1.3v1.3h1.3V28z M52.4,26.9h1.3v-1.3h-1.3V26.9z M53.7,28
		h-1.3v1.3h1.3V28z"/>
	<path class="st9" d="M59.8,24.4c-0.6,1.5-1.2,2.7-1.8,3.6c0.4,0,0.8-0.1,1.3-0.2c0.2-0.4,0.4-0.9,0.7-1.3l1.2,0.5
		c-1,1.9-1.9,3.3-2.6,4.2c0.7-0.2,1.5-0.4,2.2-0.7v1.2c-1.4,0.5-2.6,0.8-3.8,1l-0.3-1.2c0.2-0.1,0.4-0.2,0.6-0.4
		c0.4-0.4,0.8-1.1,1.4-2c-0.6,0.1-1.2,0.2-1.8,0.3l-0.3-1.2c0.2-0.1,0.4-0.3,0.5-0.5c0.6-1.1,1.1-2.4,1.5-3.7L59.8,24.4z M60.8,33.9
		c-1.2,0.6-2.6,1.1-4.1,1.5l-0.2-1.3c1.6-0.4,3.1-0.9,4.3-1.5C60.8,32.6,60.8,33.9,60.8,33.9z M61.6,30.1L60.7,29
		c2.2-0.8,3.8-1.9,4.6-3.3h-4v-1.3H67v1c-0.3,0.7-0.7,1.3-1.2,1.9c0.9,0.6,1.8,1.2,2.5,1.8l-1,1c-0.6-0.6-1.4-1.3-2.4-1.9
		C64,29,62.9,29.6,61.6,30.1z M61.5,31.8v-1.3h5.9v1.3h-2.3V34H68v1.3h-7.1V34h2.9v-2.3H61.5z"/>
	<path class="st9" d="M72.2,24.8V24h1.3v0.7h3V24h1.3v0.7h2.7v1.1h-2.7v0.6h-1.3v-0.6h-3v0.6h-1.3v-0.6h-2.7v-1.1H72.2z M80.3,29.4
		H79V28h-8v1.5h-1.3v-2.7h10.5L80.3,29.4L80.3,29.4z M79.5,35.7h-1.3v-0.5h-6.4v0.5h-1.3v-3.8h9V35.7z M78.4,28.6v2.8h-6.7v-2.8
		H78.4z M78.3,34.1V33h-6.4v1.1H78.3z M77.2,29.6h-4.2v0.8h4.2V29.6z"/>
	<path class="st9" d="M85.3,30c-0.1,0.2-0.1,0.4-0.2,0.6h2.5v1.1c-0.2,0.7-0.6,1.4-1.2,1.9c0.5,0.2,1,0.4,1.4,0.7l-0.7,1
		c-0.5-0.3-1.1-0.6-1.7-0.9c-0.8,0.5-1.9,0.9-3.1,1.3l-0.6-1.1c0.9-0.2,1.7-0.5,2.4-0.8c-0.5-0.2-1-0.4-1.6-0.6
		c0.3-0.5,0.6-1,0.8-1.5h-1.3v-1.1h1.8c0.1-0.3,0.2-0.5,0.3-0.7L85.3,30z M84.4,26.3V24h1.2v2.3h2.1v1.1h-2.1v0
		c0.7,0.3,1.3,0.6,2,0.9l-0.7,1c-0.5-0.4-1-0.7-1.3-1v1.3h-1.2v-2c-0.4,0.9-1.1,1.6-2,2.3L81.8,29c0.8-0.5,1.4-1,1.8-1.5h-1.5v-1.1
		C82.1,26.3,84.4,26.3,84.4,26.3z M84,25.7l-0.9,0.4c-0.3-0.6-0.5-1.1-0.8-1.6l1-0.3C83.6,24.7,83.8,25.2,84,25.7z M86.5,31.7h-1.9
		c-0.2,0.3-0.3,0.6-0.5,0.9c0.4,0.1,0.8,0.3,1.2,0.4C85.8,32.7,86.2,32.2,86.5,31.7z M87.8,24.6c-0.3,0.5-0.6,1-1,1.6l-0.9-0.5
		c0.4-0.5,0.7-1,1-1.5L87.8,24.6z M89,29.4c-0.2,0.4-0.4,0.8-0.6,1.2l-0.8-1c0.7-1.4,1.2-3.2,1.4-5.6l1.3,0.2
		c-0.1,0.6-0.2,1.1-0.2,1.6h3.2v1.3h-0.7c-0.1,2-0.4,3.8-1.1,5.2c0.6,1,1.3,1.8,2.2,2.4l-0.7,1.1c-0.8-0.6-1.5-1.3-2.1-2.3
		c-0.6,0.9-1.3,1.6-2.2,2.3l-0.7-1.1c0.9-0.6,1.6-1.4,2.2-2.4C89.7,31.4,89.3,30.5,89,29.4z M89.6,27.6c0.3,1.2,0.6,2.4,1,3.3
		c0.4-1.1,0.6-2.4,0.6-3.8h-1.5C89.7,27.3,89.7,27.4,89.6,27.6z"/>
	<path class="st9" d="M94.9,35.6l-0.3-1.2c0.3,0.1,0.6,0.1,0.9,0.1c0.3,0,0.4-0.2,0.4-0.5v-2.6c-0.4,0.2-0.8,0.3-1.3,0.4l-0.3-1.3
		c0.5-0.1,1.1-0.3,1.6-0.5v-2.5h-1.4v-1.3H96v-2.2h1.3v2.2h1.1v1.3h-1.1v2c0.4-0.2,0.7-0.3,1-0.5v1.3c-0.4,0.2-0.7,0.3-1,0.5v3.4
		c0,0.9-0.4,1.3-1.3,1.3C96,35.6,94.9,35.6,94.9,35.6z M98.6,35.7l-1-0.9c0.8-1.6,1.2-3.7,1.3-6.2v-4.2h6.9v3.3h-2.3v1.2h2.6v1.2
		h-2.6v1.2h2v4.3h-1.2v-0.5h-2.8v0.5h-1.2v-4.3h2v-1.2H100C99.9,32.3,99.4,34.1,98.6,35.7z M100.1,27.8v0.8c0,0.1,0,0.2,0,0.3h2.1
		v-1.2H100.1z M100.1,25.6v1h4.4v-1H100.1z M104.2,34v-1.5h-2.8V34H104.2z"/>
</g>
<g id="RectEndPoint2_4_" transform="translate(179.01953125,177)">
	<g>
		<rect x="-163.6" y="-117.4" class="st4" width="107.3" height="35.5"/>
		<rect x="-165.3" y="-118.7" class="st5" width="107.3" height="35.5"/>
	</g>
</g>
<g class="st8">
	<path class="st9" d="M46.6,77.8l-0.7-0.9v5.1h-1.3v-8.3h2.6c-0.2-0.4-0.3-0.8-0.5-1.2h-2.5v-1.3H49c-0.1-0.3-0.2-0.5-0.3-0.8
		l1.4-0.2c0.1,0.3,0.2,0.6,0.3,1h4.9v1.3h-2.6c-0.2,0.4-0.4,0.8-0.6,1.2h2.7v6.8c0,1-0.4,1.5-1.3,1.5h-1.3L52,80.7l1.2,0.1
		c0.3,0,0.4-0.2,0.4-0.7v-3.3l-0.9,0.9c-0.1-0.2-0.3-0.3-0.4-0.5v3.3h-5v-3.2C47,77.5,46.8,77.6,46.6,77.8z M45.8,74.8v1.8
		c0.9-0.5,1.7-1.1,2.3-1.8H45.8z M48.3,74.8l0.8,0.8c-0.5,0.6-1,1.1-1.7,1.6h4.6c-0.5-0.5-1.1-1-1.9-1.6l0.8-0.8
		C51,74.8,48.3,74.8,48.3,74.8z M50.7,73.6c0.2-0.4,0.4-0.8,0.6-1.2h-3.2c0.2,0.4,0.3,0.8,0.5,1.2H50.7z M51,78.3h-2.5v1.1H51V78.3z
		 M53.6,74.8h-2.4c0.9,0.6,1.7,1.3,2.4,1.9V74.8z"/>
	<path class="st9" d="M61.8,81.8h-1.3v-0.6h-2.2v0.6H57V76h4.8L61.8,81.8L61.8,81.8z M60.5,80v-2.7h-2.2V80H60.5z M66,70.7v4.5h-7.3
		v-4.5H66z M64.7,71.9h-4.6v2h4.6V71.9z M67.7,81.8h-1.3v-0.6h-2.3v0.6h-1.3V76h4.9V81.8z M66.4,80v-2.7h-2.3V80H66.4z"/>
	<path class="st9" d="M72.7,76.3c-0.1,0.2-0.1,0.4-0.2,0.6H75v1.1c-0.2,0.7-0.6,1.4-1.2,1.9c0.5,0.2,1,0.4,1.4,0.7l-0.7,1
		c-0.5-0.3-1.1-0.6-1.7-0.9C72,81.2,71,81.6,69.7,82l-0.6-1.1c0.9-0.2,1.7-0.5,2.4-0.8c-0.5-0.2-1-0.4-1.6-0.6
		c0.3-0.5,0.6-1,0.8-1.5h-1.3v-1.1h1.8c0.1-0.3,0.2-0.5,0.3-0.7L72.7,76.3z M71.8,72.6v-2.3H73v2.3h2.1v1.1H73v0
		c0.7,0.3,1.3,0.6,2,0.9l-0.7,1c-0.5-0.4-1-0.7-1.3-1v1.3h-1.2v-2c-0.4,0.9-1.1,1.6-2,2.3l-0.7-1.1c0.8-0.5,1.4-1,1.8-1.5h-1.5v-1.1
		L71.8,72.6L71.8,72.6z M71.4,72l-0.9,0.4c-0.3-0.6-0.5-1.1-0.8-1.6l1-0.3C70.9,70.9,71.2,71.4,71.4,72z M73.9,78H72
		c-0.2,0.3-0.3,0.6-0.5,0.9c0.4,0.1,0.8,0.3,1.2,0.4C73.2,79,73.6,78.5,73.9,78z M75.2,70.9c-0.3,0.5-0.6,1-1,1.6L73.3,72
		c0.4-0.5,0.7-1,1-1.5L75.2,70.9z M76.4,75.7c-0.2,0.4-0.4,0.8-0.6,1.2l-0.8-1c0.7-1.4,1.2-3.2,1.4-5.6l1.3,0.2
		c-0.1,0.6-0.2,1.1-0.2,1.6h3.2v1.3h-0.7c-0.1,2-0.4,3.8-1.1,5.2c0.6,1,1.3,1.8,2.2,2.4L80.2,82c-0.8-0.6-1.5-1.3-2.1-2.3
		c-0.6,0.9-1.3,1.6-2.2,2.3l-0.7-1.1c0.9-0.6,1.6-1.4,2.2-2.4C77,77.7,76.7,76.8,76.4,75.7z M77,73.9c0.3,1.2,0.6,2.3,1,3.3
		c0.4-1.1,0.6-2.4,0.6-3.8h-1.5C77.1,73.5,77,73.7,77,73.9z"/>
	<path class="st9" d="M82.3,81.9L82,80.6c0.3,0.1,0.6,0.1,0.9,0.1c0.3,0,0.4-0.2,0.4-0.5v-2.6c-0.4,0.2-0.8,0.3-1.3,0.4l-0.3-1.3
		c0.5-0.1,1.1-0.3,1.6-0.5v-2.5H82v-1.3h1.4v-2.2h1.3v2.2h1.1v1.3h-1.1v2c0.4-0.2,0.7-0.3,1-0.5v1.3c-0.4,0.2-0.7,0.3-1,0.5v3.4
		c0,0.9-0.4,1.3-1.2,1.3L82.3,81.9L82.3,81.9z M86,82l-1-0.9c0.8-1.6,1.2-3.7,1.3-6.2v-4.2h6.9V74h-2.3v1.2h2.6v1.2h-2.6v1.2h2V82
		h-1.2v-0.5h-2.8V82h-1.2v-4.3h2v-1.2h-2.1C87.2,78.5,86.7,80.4,86,82z M87.4,74v0.8c0,0.1,0,0.2,0,0.3h2.1V74H87.4z M87.4,71.9v1
		h4.4v-1H87.4z M91.6,80.3v-1.5h-2.8v1.5H91.6z"/>
</g>
<g id="RectEndPoint2_10_" transform="translate(179.01953125,177)">
	<g>
		<rect x="-163.6" y="-71.1" class="st4" width="107.3" height="35.5"/>
		<rect x="-165.3" y="-72.5" class="st5" width="107.3" height="35.5"/>
	</g>
</g>
<g class="st8">
	<path class="st9" d="M32.2,128.2l-1-0.9c0.7-1.1,1.1-2.4,1.1-4.1V117h9.8v9.5c0,1-0.5,1.5-1.5,1.5h-1.5l-0.4-1.3
		c0.5,0.1,1,0.1,1.4,0.1c0.4,0,0.6-0.3,0.6-0.7v-1.8h-3v3.6h-1.3v-3.6h-2.8C33.5,125.8,33,127.1,32.2,128.2z M33.7,118.2v1.8h2.8
		v-1.8H33.7z M33.7,123.1h2.8v-1.8h-2.8V123.1z M40.8,118.2h-3v1.8h3V118.2z M40.8,121.2h-3v1.8h3V121.2z"/>
	<path class="st9" d="M44.7,128.3l-1-0.9c0.9-1.4,1.4-3.1,1.4-5.3V118h4c-0.2-0.5-0.4-0.9-0.7-1.3l1.4-0.2c0.2,0.5,0.4,1,0.6,1.5h4
		v4.6h-8.1C46.4,124.8,45.8,126.7,44.7,128.3z M46.5,119.3v2h6.7v-2H46.5z"/>
	<path class="st9" d="M60.3,117.2c-0.7,1.4-1.8,2.6-3.4,3.8l-0.4-1.3c1.2-0.8,2.1-1.8,2.7-3L60.3,117.2z M60.9,120.1
		c-0.3,0.7-0.7,1.3-1.3,1.9v6.3h-1.3v-5c-0.4,0.4-0.9,0.7-1.4,1l-0.4-1.3c1.4-1,2.5-2.2,3.1-3.5L60.9,120.1z M68.1,120.4v1.3h-1.9
		v5.3c0,0.8-0.5,1.3-1.4,1.3h-1.8l-0.3-1.3c0.6,0.1,1.1,0.1,1.7,0.1c0.3,0,0.5-0.1,0.5-0.4v-5H61v-1.3H68.1z M67.5,117.2v1.3h-6.2
		v-1.3H67.5z"/>
	<path class="st9" d="M75,116.6v1.9c0,0.4,0,0.7-0.1,1.1h5.1c0,3.7-0.2,6.1-0.5,7.1c-0.3,1-0.9,1.5-1.8,1.5c-0.7,0-1.2,0-1.7-0.1
		l-0.4-1.3c0.7,0.1,1.4,0.1,2,0.1c0.5-0.1,0.8-0.7,0.9-2c0.1-1.3,0.1-2.7,0.1-4.1h-3.9c-0.2,1.6-0.6,2.9-1.1,4
		c-0.7,1.5-2,2.6-3.7,3.4l-0.7-1.2c1.7-0.9,2.8-1.9,3.4-3.2c0.4-0.8,0.6-1.8,0.8-3h-3.8v-1.3h3.9c0-0.4,0.1-0.7,0.1-1.1v-1.9
		L75,116.6L75,116.6z M72.9,118.8l-1,0.7c-0.4-0.6-1-1.2-1.7-1.9l1-0.7C71.9,117.6,72.5,118.2,72.9,118.8z M77.7,124.6l-1.2,0.8
		c-0.5-0.8-1.1-1.7-1.9-2.6l1.1-0.7C76.6,123.1,77.3,123.9,77.7,124.6z"/>
	<path class="st9" d="M85.3,122.6c-0.1,0.2-0.1,0.4-0.2,0.6h2.5v1.1c-0.2,0.7-0.6,1.4-1.2,1.9c0.5,0.2,1,0.4,1.4,0.7l-0.7,1
		c-0.5-0.3-1.1-0.6-1.7-0.9c-0.8,0.5-1.9,0.9-3.1,1.3l-0.6-1.1c0.9-0.2,1.7-0.5,2.4-0.8c-0.5-0.2-1-0.4-1.6-0.6
		c0.3-0.5,0.6-1,0.8-1.5h-1.3v-1.1h1.8c0.1-0.3,0.2-0.5,0.3-0.7L85.3,122.6z M84.4,118.9v-2.3h1.2v2.3h2.1v1.1h-2.1v0
		c0.7,0.3,1.3,0.6,2,0.9l-0.7,1c-0.5-0.4-1-0.7-1.3-1v1.3h-1.2v-2c-0.4,0.9-1.1,1.6-2,2.3l-0.7-1.1c0.8-0.5,1.4-1,1.8-1.5h-1.5v-1.1
		L84.4,118.9L84.4,118.9z M84,118.3l-0.9,0.4c-0.3-0.6-0.5-1.1-0.8-1.6l1-0.3C83.6,117.2,83.8,117.7,84,118.3z M86.5,124.3h-1.9
		c-0.2,0.3-0.3,0.6-0.5,0.9c0.4,0.1,0.8,0.3,1.2,0.4C85.8,125.2,86.2,124.8,86.5,124.3z M87.8,117.2c-0.3,0.5-0.6,1-1,1.6l-0.9-0.5
		c0.4-0.5,0.7-1,1-1.5L87.8,117.2z M89,122c-0.2,0.4-0.4,0.8-0.6,1.2l-0.8-1c0.7-1.4,1.2-3.2,1.4-5.6l1.3,0.2
		c-0.1,0.6-0.2,1.1-0.2,1.6h3.2v1.3h-0.7c-0.1,2-0.4,3.8-1.1,5.2c0.6,1,1.3,1.8,2.2,2.4l-0.7,1.1c-0.8-0.6-1.5-1.3-2.1-2.3
		c-0.6,0.9-1.3,1.6-2.2,2.3l-0.7-1.1c0.9-0.6,1.6-1.4,2.2-2.4C89.7,124,89.3,123,89,122z M89.6,120.1c0.3,1.2,0.6,2.3,1,3.3
		c0.4-1.1,0.6-2.4,0.6-3.8h-1.5C89.7,119.8,89.7,120,89.6,120.1z"/>
	<path class="st9" d="M94.9,128.1l-0.3-1.2c0.3,0.1,0.6,0.1,0.9,0.1c0.3,0,0.4-0.2,0.4-0.5V124c-0.4,0.2-0.8,0.3-1.3,0.4l-0.3-1.3
		c0.5-0.1,1.1-0.3,1.6-0.5v-2.5h-1.4v-1.3H96v-2.2h1.3v2.2h1.1v1.3h-1.1v2c0.4-0.2,0.7-0.3,1-0.5v1.3c-0.4,0.2-0.7,0.3-1,0.5v3.4
		c0,0.9-0.4,1.3-1.3,1.3L94.9,128.1L94.9,128.1z M98.6,128.3l-1-0.9c0.8-1.6,1.2-3.7,1.3-6.2V117h6.9v3.3h-2.3v1.2h2.6v1.2h-2.6v1.2
		h2v4.3h-1.2v-0.5h-2.8v0.5h-1.2v-4.3h2v-1.2H100C99.9,124.8,99.4,126.7,98.6,128.3z M100.1,120.3v0.8c0,0.1,0,0.2,0,0.3h2.1v-1.2
		H100.1z M100.1,118.2v1h4.4v-1H100.1z M104.2,126.6v-1.5h-2.8v1.5H104.2z"/>
</g>
<g id="RectEndPoint2_11_" transform="translate(179.01953125,177)">
	<g>
		<rect x="-163.6" y="-23.4" class="st4" width="107.3" height="35.5"/>
		<rect x="-165.3" y="-24.8" class="st5" width="107.3" height="35.5"/>
	</g>
</g>
<g class="st8">
	<path class="st9" d="M32.2,175.9l-1-0.9c0.7-1.1,1.1-2.4,1.1-4.1v-6.3h9.8v9.5c0,1-0.5,1.5-1.5,1.5h-1.5l-0.4-1.3
		c0.5,0.1,1,0.1,1.4,0.1c0.4,0,0.6-0.3,0.6-0.7V172h-3v3.6h-1.3V172h-2.8C33.5,173.5,33,174.9,32.2,175.9z M33.7,166v1.8h2.8V166
		H33.7z M33.7,170.8h2.8v-1.8h-2.8V170.8z M40.8,166h-3v1.8h3V166z M40.8,168.9h-3v1.8h3V168.9z"/>
	<path class="st9" d="M44.7,176l-1-0.9c0.9-1.4,1.4-3.1,1.4-5.3v-4.2h4c-0.2-0.5-0.4-0.9-0.7-1.3l1.4-0.2c0.2,0.5,0.4,1,0.6,1.5h4
		v4.6h-8.1C46.4,172.5,45.8,174.4,44.7,176z M46.5,167v2h6.7v-2H46.5z"/>
	<path class="st9" d="M65.5,169.9c-0.6,1.1-1.3,2-2.1,2.8c1.3,0.9,2.9,1.5,4.8,2l-0.8,1.2c-1.9-0.5-3.6-1.3-5-2.3
		c-1.4,1.1-3,1.9-5,2.4l-0.8-1.2c1.9-0.5,3.4-1.1,4.7-2.1c-0.8-0.8-1.5-1.7-2.1-2.7l1.1-0.6c0.5,0.9,1.2,1.8,2,2.5
		c0.8-0.7,1.4-1.6,1.9-2.6L65.5,169.9z M61.1,167.8c-1,1.3-2.2,2.4-3.6,3.3l-0.8-1.1c1.4-0.9,2.5-1.9,3.5-3L61.1,167.8z M61.7,165.6
		c-0.2-0.4-0.4-0.8-0.7-1.2l1.5-0.3c0.2,0.4,0.5,0.9,0.7,1.5H68v1.2H56.7v-1.2H61.7z M68,170.2l-1,1c-0.8-1-2-2.1-3.5-3.3l0.9-0.9
		C65.9,168,67.1,169.1,68,170.2z"/>
	<path class="st9" d="M71,169.4v-4.8h8v4.8h-5c-0.2,0.3-0.4,0.5-0.6,0.7H80c0,1.4-0.1,2.5-0.2,3.4c-0.1,0.8-0.3,1.4-0.6,1.8
		c-0.3,0.3-0.7,0.5-1.3,0.5h-1.8l-0.3-1.2c0.5,0,1,0.1,1.5,0.1c0.5,0,0.9-0.2,1.1-0.6c0.2-0.4,0.3-1.3,0.3-2.7h-0.9
		c-1.1,2.3-2.8,3.9-5.1,4.6l-0.7-1.1c2-0.6,3.6-1.8,4.5-3.5h-1.2c-0.9,1.3-2.3,2.4-4.2,3.2l-0.8-1c1.6-0.6,2.8-1.3,3.6-2.1h-1.5
		c-0.6,0.4-1.3,0.8-2,1.2l-0.7-1.2c1.4-0.5,2.4-1.1,3.1-1.9L71,169.4L71,169.4z M77.7,166.5v-0.7h-5.4v0.7H77.7z M77.7,167.6h-5.4
		v0.8h5.4V167.6z"/>
	<path class="st9" d="M85.3,170.3c-0.1,0.2-0.1,0.4-0.2,0.6h2.5v1.1c-0.2,0.7-0.6,1.4-1.2,1.9c0.5,0.2,1,0.4,1.4,0.7l-0.7,1
		c-0.5-0.3-1.1-0.6-1.7-0.9c-0.8,0.5-1.9,0.9-3.1,1.3l-0.6-1.1c0.9-0.2,1.7-0.5,2.4-0.8c-0.5-0.2-1-0.4-1.6-0.6
		c0.3-0.5,0.6-1,0.8-1.5h-1.3v-1.1h1.8c0.1-0.3,0.2-0.5,0.3-0.7L85.3,170.3z M84.4,166.6v-2.3h1.2v2.3h2.1v1.1h-2.1v0
		c0.7,0.3,1.3,0.6,2,0.9l-0.7,1c-0.5-0.4-1-0.7-1.3-1v1.3h-1.2v-2c-0.4,0.9-1.1,1.6-2,2.3l-0.7-1.1c0.8-0.5,1.4-1,1.8-1.5h-1.5v-1.1
		L84.4,166.6L84.4,166.6z M84,166l-0.9,0.4c-0.3-0.6-0.5-1.1-0.8-1.6l1-0.3C83.6,164.9,83.8,165.4,84,166z M86.5,172h-1.9
		c-0.2,0.3-0.3,0.6-0.5,0.9c0.4,0.1,0.8,0.3,1.2,0.4C85.8,172.9,86.2,172.5,86.5,172z M87.8,164.9c-0.3,0.5-0.6,1-1,1.6l-0.9-0.5
		c0.4-0.5,0.7-1,1-1.5L87.8,164.9z M89,169.7c-0.2,0.4-0.4,0.8-0.6,1.2l-0.8-1c0.7-1.4,1.2-3.2,1.4-5.6l1.3,0.2
		c-0.1,0.6-0.2,1.1-0.2,1.6h3.2v1.3h-0.7c-0.1,2-0.4,3.8-1.1,5.2c0.6,1,1.3,1.8,2.2,2.4l-0.7,1.1c-0.8-0.6-1.5-1.3-2.1-2.3
		c-0.6,0.9-1.3,1.6-2.2,2.3l-0.7-1.1c0.9-0.6,1.6-1.4,2.2-2.4C89.7,171.7,89.3,170.7,89,169.7z M89.6,167.9c0.3,1.2,0.6,2.4,1,3.3
		c0.4-1.1,0.6-2.4,0.6-3.8h-1.5C89.7,167.5,89.7,167.7,89.6,167.9z"/>
	<path class="st9" d="M94.9,175.9l-0.3-1.2c0.3,0.1,0.6,0.1,0.9,0.1c0.3,0,0.4-0.2,0.4-0.5v-2.6c-0.4,0.2-0.8,0.3-1.3,0.4l-0.3-1.3
		c0.5-0.1,1.1-0.3,1.6-0.5v-2.5h-1.4v-1.3H96v-2.2h1.3v2.2h1.1v1.3h-1.1v2c0.4-0.2,0.7-0.3,1-0.5v1.3c-0.4,0.2-0.7,0.3-1,0.5v3.4
		c0,0.9-0.4,1.3-1.3,1.3L94.9,175.9L94.9,175.9z M98.6,176l-1-0.9c0.8-1.6,1.2-3.7,1.3-6.2v-4.2h6.9v3.3h-2.3v1.2h2.6v1.2h-2.6v1.2
		h2v4.3h-1.2v-0.5h-2.8v0.5h-1.2v-4.3h2v-1.2H100C99.9,172.5,99.4,174.4,98.6,176z M100.1,168v0.8c0,0.1,0,0.2,0,0.3h2.1V168H100.1z
		 M100.1,165.9v1h4.4v-1H100.1z M104.2,174.3v-1.5h-2.8v1.5H104.2z"/>
</g>
<g id="RectEndPoint2_12_" transform="translate(179.01953125,177)">
	<g>
		<rect x="-163.6" y="24.3" class="st4" width="107.3" height="35.5"/>
		<rect x="-165.3" y="23" class="st5" width="107.3" height="35.5"/>
	</g>
</g>
<g class="st8">
	<path class="st9" d="M65.2,220.7c0.2,0.2,0.3,0.4,0.3,0.7c0,0.3-0.1,0.5-0.3,0.7c-0.2,0.2-0.4,0.3-0.7,0.3s-0.5-0.1-0.7-0.3
		c-0.2-0.2-0.3-0.4-0.3-0.7s0.1-0.5,0.3-0.7c0.2-0.2,0.4-0.3,0.7-0.3S65,220.6,65.2,220.7z M69.4,220.7c0.2,0.2,0.3,0.4,0.3,0.7
		c0,0.3-0.1,0.5-0.3,0.7c-0.2,0.2-0.4,0.3-0.7,0.3s-0.5-0.1-0.7-0.3c-0.2-0.2-0.3-0.4-0.3-0.7s0.1-0.5,0.3-0.7
		c0.2-0.2,0.4-0.3,0.7-0.3C69,220.5,69.2,220.6,69.4,220.7z M73.6,220.7c0.2,0.2,0.3,0.4,0.3,0.7c0,0.3-0.1,0.5-0.3,0.7
		s-0.4,0.3-0.7,0.3s-0.5-0.1-0.7-0.3s-0.3-0.4-0.3-0.7s0.1-0.5,0.3-0.7s0.4-0.3,0.7-0.3S73.4,220.6,73.6,220.7z"/>
</g>
<g>
	<g class="st8">
		<path class="st6" d="M143.8,140.4c-0.1,0.2-0.2,0.4-0.2,0.7h2.5v0.7c-0.3,0.8-0.7,1.5-1.3,2.1c0.6,0.3,1.1,0.5,1.7,0.8l-0.5,0.7
			c-0.5-0.3-1.1-0.6-1.8-0.9c-0.8,0.6-1.8,1-3,1.3l-0.4-0.7c1-0.3,1.8-0.6,2.5-1c-0.5-0.2-1.1-0.5-1.7-0.7c0.3-0.5,0.6-1,0.8-1.5
			h-1.4V141h1.8c0.1-0.3,0.2-0.5,0.3-0.8L143.8,140.4z M143.3,137v-2.3h0.8v2.3h2.2v0.8h-2.2v0.1c0.6,0.3,1.3,0.7,2,1.1l-0.4,0.7
			c-0.6-0.5-1.1-0.9-1.5-1.2v1.6h-0.8v-2.3c-0.4,0.9-1.1,1.8-2.1,2.5l-0.4-0.7c0.9-0.5,1.6-1.1,1.9-1.8H141V137L143.3,137L143.3,137
			z M142.6,136.4l-0.6,0.3c-0.3-0.6-0.5-1.1-0.8-1.6l0.7-0.2C142.2,135.4,142.4,135.9,142.6,136.4z M145.3,141.8h-2.1
			c-0.2,0.4-0.4,0.8-0.6,1.2c0.5,0.2,0.9,0.3,1.4,0.5C144.5,143,145,142.4,145.3,141.8z M146.2,135.2c-0.2,0.5-0.5,1-0.9,1.5
			l-0.6-0.3c0.4-0.5,0.7-1,0.9-1.5L146.2,135.2z M147.5,139.3c-0.2,0.6-0.5,1-0.7,1.5l-0.5-0.7c0.7-1.3,1.2-3.2,1.4-5.4l0.8,0.1
			c-0.1,0.6-0.2,1.2-0.3,1.7h3.2v0.8h-0.8c-0.1,2-0.4,3.7-1.1,5.1c0.6,1.1,1.4,1.9,2.2,2.5l-0.5,0.7c-0.8-0.6-1.6-1.4-2.2-2.4
			c-0.6,1-1.3,1.8-2.2,2.4l-0.4-0.7c0.9-0.6,1.7-1.5,2.2-2.5C148.2,141.6,147.8,140.5,147.5,139.3z M147.9,138
			c0.3,1.4,0.7,2.6,1.2,3.6c0.5-1.2,0.7-2.6,0.8-4.2h-1.8L147.9,138z"/>
		<path class="st6" d="M153.1,145.6l-0.2-0.8c0.3,0,0.6,0.1,0.9,0.1c0.3,0,0.5-0.2,0.5-0.5v-2.9c-0.5,0.2-0.9,0.3-1.4,0.5l-0.2-0.8
			c0.6-0.1,1.1-0.3,1.6-0.5v-2.7h-1.4V137h1.4v-2.3h0.8v2.3h1.2v0.8h-1.2v2.4c0.4-0.2,0.8-0.3,1.1-0.5v0.9c-0.4,0.2-0.7,0.4-1.1,0.5
			v3.5c0,0.7-0.3,1.1-1,1.1L153.1,145.6L153.1,145.6z M156.3,145.7l-0.7-0.6c0.9-1.6,1.3-3.6,1.3-6.2v-3.8h6.3v2.9H161v1.4h2.6v0.8
			H161v1.5h2v3.9h-0.8v-0.6H159v0.6h-0.8v-3.9h2v-1.5h-2.4C157.6,142.3,157.1,144.1,156.3,145.7z M157.8,138.1v0.8
			c0,0.2,0,0.4,0,0.6h2.4v-1.4H157.8z M157.8,136v1.3h4.6V136H157.8z M162.2,144.3v-1.8H159v1.8H162.2z"/>
		<path class="st6" d="M165.2,138.7l-0.5-0.7c1.1-1,1.9-2.1,2.4-3.4l0.8,0.2c-0.1,0.3-0.3,0.6-0.4,0.9h2.6c-0.2-0.4-0.3-0.7-0.5-1
			l0.9-0.1c0.2,0.3,0.3,0.7,0.5,1.2h3.9v0.7h-3.8v0.8h3.4v0.7h-3.4v0.8h3.4v0.7h-3.4v0.9h4v0.7h-8.8v-3.4
			C165.9,138,165.5,138.4,165.2,138.7z M165,142.8V142h4.8v-0.6h0.9v0.6h4.7v0.8h-3.6c0.8,0.8,2.1,1.4,3.8,1.8l-0.4,0.8
			c-2-0.7-3.4-1.5-4.2-2.6h-0.2v2.9h-0.9v-2.9h-0.2c-0.8,1-2.2,1.9-4.2,2.6l-0.5-0.7c1.8-0.6,3.1-1.2,3.8-1.9H165z M170.1,136.5H167
			l-0.1,0.1v0.7h3.1L170.1,136.5L170.1,136.5z M170.1,138H167v0.8h3.1V138z M170.1,139.5H167v0.9h3.1V139.5z"/>
		<path class="st6" d="M186.6,136l-0.6,0.6h1.5v0.8h-3.7c0.1,1.5,0.2,2.7,0.5,3.5c0.1,0.3,0.2,0.6,0.2,0.8c0.6-1,1.1-2.1,1.5-3.4
			l0.8,0.3c-0.5,1.6-1.1,2.9-1.9,4c0.2,0.4,0.3,0.7,0.5,1c0.4,0.6,0.7,0.9,1,0.9c0.2,0,0.4-0.6,0.6-1.9l0.8,0.4
			c-0.3,1.6-0.7,2.4-1.2,2.4c-0.5,0-1-0.4-1.6-1.1c-0.2-0.3-0.4-0.6-0.6-1c-0.8,1-1.8,1.7-2.9,2.2l-0.5-0.7c1.2-0.5,2.2-1.3,3-2.4
			c-0.2-0.4-0.3-0.9-0.5-1.4c-0.3-1-0.4-2.3-0.5-3.8h-4.1v2h2.9c0,2-0.1,3.3-0.3,3.9c-0.2,0.5-0.5,0.8-1.1,0.8c-0.3,0-0.6,0-1,0
			l-0.3-0.8c0.5,0,0.9,0,1.2,0c0.3,0,0.4-0.2,0.5-0.5c0.1-0.4,0.1-1.3,0.1-2.6h-2.1v0.4c0,2.1-0.5,3.9-1.4,5.2l-0.7-0.6
			c0.8-1.1,1.2-2.6,1.2-4.6v-4h5c0-0.6,0-1.2,0-1.9h0.9c0,0.7,0,1.3,0,1.9h2.2c-0.4-0.4-0.8-0.9-1.5-1.3l0.6-0.5
			C185.7,135.1,186.2,135.5,186.6,136z"/>
		<path class="st6" d="M189.6,136.5v-0.8h9.1v0.8h-4.1v7.6h4.9v0.8h-10.7V144h4.9v-7.6H189.6z"/>
		<path class="st6" d="M209.8,142.5h1.7v0.8h-3.6c1.2,0.5,2.4,1,3.4,1.6l-0.5,0.7c-1.1-0.7-2.3-1.3-3.5-1.8l0.4-0.6h-3.4l0.6,0.5
			c-0.9,0.7-2,1.3-3.4,1.9l-0.5-0.7c1.3-0.5,2.4-1.1,3.3-1.7h-3.5v-0.8h1.7v-7.3h7.2L209.8,142.5L209.8,142.5z M208.9,137.1V136
			h-5.4v1.1H208.9z M208.9,138.9v-1.1h-5.4v1.1H208.9z M208.9,140.7v-1.1h-5.4v1.1H208.9z M208.9,142.5v-1.1h-5.4v1.1H208.9z"/>
	</g>
</g>
<path class="st12" d="M260,160.6c-1.1,0-2-0.9-2-2s0.9-2,2-2c0.7,0,1.4,0.4,1.7,1H285h2v2v15h-2v-15h-23.3
	C261.4,160.2,260.7,160.6,260,160.6z M286,178.6c-0.7,0-1.4,0.4-1.7,1H261v-15h-2v17h1h1h23.3c0.3,0.6,1,1,1.7,1c1.1,0,2-0.9,2-2
	C288,179.5,287.1,178.6,286,178.6z M273,165.6l7,4v8h-14v-8L273,165.6z M278,170.8l-5-2.9l-5,2.9v4.8h10V170.8z M282,166.6l-9-5
	l-9,5v2.4l9-5l9,5V166.6z"/>
<path class="st6" d="M678.3,157.9h-3v-2h3v-8h7v8h2v-12h7v12h2v-19h7v19h2v2h-2h-7h-2h-7h-2H678.3z M698.3,155.9h3v-17h-3V155.9z
	 M689.3,155.9h3v-10h-3V155.9z M680.3,155.9h3v-6h-3V155.9z"/>
<g>
	<g>
		<g id="XMLID_162_">
			<g>
				<path class="st6" d="M690.9,225c-7.2,0-13-5.8-13-13s5.8-13,13-13c6.5,0,11.9,4.8,12.8,11h2c-0.9-7.3-7.2-13-14.8-13
					c-8.3,0-15,6.7-15,15s6.7,15,15,15c7.6,0,13.9-5.7,14.9-13h-2C702.8,220.2,697.4,225,690.9,225z M683.9,215.3h14v-9.1h-14V215.3
					z M685.9,208.2h10v5h-10V208.2z"/>
				<rect x="690.1" y="213.2" class="st6" width="2" height="4.4"/>
				<rect x="686.7" y="217.6" class="st6" width="8.8" height="2"/>
			</g>
		</g>
	</g>
</g>
<g>
	<g>
		<path class="st6" d="M689.4,94.7c-6.6,0-12-5.4-12-12s5.4-12,12-12s12,5.4,12,12S696.1,94.7,689.4,94.7z M689.4,72.6
			c-5.5,0-10,4.5-10,10s4.5,10,10,10s10-4.5,10-10S695,72.6,689.4,72.6z"/>
	</g>
	<g>
		<circle class="st6" cx="689.3" cy="71.6" r="4"/>
		<circle class="st6" cx="699.3" cy="86.6" r="4"/>
		<circle class="st6" cx="679.3" cy="86.6" r="4"/>
	</g>
	<circle class="st13" cx="689.3" cy="71.6" r="2"/>
	<circle class="st13" cx="679.3" cy="86.6" r="2"/>
	<circle class="st13" cx="699.3" cy="86.6" r="2"/>
</g>
<g class="st8">
	<path class="st9" d="M290.5,156c0.7,0.5,1.1,1.3,1.2,2.4h-1.6c-0.1-0.6-0.4-1.1-0.8-1.3c-0.4-0.3-0.9-0.4-1.7-0.4
		c-0.6,0-1.1,0.1-1.4,0.3c-0.4,0.2-0.6,0.6-0.6,1c0,0.4,0.2,0.8,0.7,1c0.2,0.1,0.8,0.3,1.7,0.6c1.4,0.4,2.2,0.8,2.6,1
		c0.9,0.5,1.3,1.2,1.3,2.2c0,0.9-0.4,1.6-1.1,2.1c-0.7,0.5-1.7,0.8-3,0.8c-1.2,0-2.2-0.2-2.9-0.7c-0.8-0.6-1.3-1.5-1.4-2.8h1.6
		c0.1,0.8,0.4,1.3,0.8,1.6c0.4,0.3,1,0.4,1.8,0.4c0.7,0,1.3-0.1,1.7-0.4c0.4-0.3,0.6-0.6,0.6-1c0-0.5-0.3-1-0.9-1.3
		c-0.2-0.1-0.8-0.3-1.9-0.7c-1.2-0.4-2-0.7-2.3-0.8c-0.8-0.5-1.1-1.1-1.1-2c0-0.9,0.4-1.6,1.1-2.1c0.7-0.5,1.6-0.7,2.7-0.7
		C289,155.3,289.9,155.5,290.5,156z"/>
	<path class="st9" d="M299.4,159.2c0.6,0.7,0.8,1.6,0.8,2.7c0,1.1-0.3,1.9-0.8,2.6c-0.6,0.8-1.4,1.1-2.5,1.1c-0.8,0-1.6-0.4-2.2-1.2
		v3.8h-1.6v-10h1.5v0.8c0.5-0.6,1.2-1,2.2-1C298,158,298.8,158.4,299.4,159.2z M295.2,160c-0.3,0.4-0.4,1-0.4,1.7v0.1
		c0,0.8,0.2,1.4,0.6,1.8c0.3,0.4,0.8,0.6,1.3,0.6c0.7,0,1.2-0.2,1.6-0.7c0.3-0.4,0.4-1,0.4-1.8s-0.1-1.4-0.4-1.8
		c-0.3-0.5-0.9-0.8-1.6-0.8C296,159.3,295.6,159.5,295.2,160z"/>
	<path class="st9" d="M307.3,158.8c0.4,0.5,0.7,1.1,0.7,2v4.6h-1.5v-1c-0.3,0.4-0.6,0.6-1,0.8c-0.5,0.2-1,0.3-1.6,0.3
		c-0.8,0-1.3-0.2-1.8-0.6c-0.4-0.4-0.7-0.9-0.7-1.5c0-0.8,0.3-1.4,1-1.9c0.6-0.4,1.4-0.6,2.5-0.7l1.6,0v-0.3c0-1-0.5-1.4-1.6-1.4
		c-0.4,0-0.8,0.1-1.1,0.2c-0.3,0.2-0.5,0.5-0.6,0.8l-1.6-0.1c0.2-0.8,0.5-1.4,1.2-1.8c0.5-0.3,1.3-0.5,2.2-0.5
		C306,158,306.8,158.3,307.3,158.8z M304.9,162.2c-1.3,0-1.9,0.5-1.9,1.3c0,0.3,0.1,0.5,0.3,0.6s0.5,0.3,0.9,0.3
		c0.6,0,1.1-0.2,1.6-0.5c0.4-0.4,0.6-0.8,0.6-1.4v-0.4L304.9,162.2z"/>
	<path class="st9" d="M314,158.2v1.6c-0.4-0.1-0.7-0.2-1-0.2c-0.4,0-0.8,0.2-1.1,0.5c-0.4,0.4-0.6,0.9-0.6,1.5v3.8h-1.6v-7.2h1.6v1
		c0.2-0.4,0.4-0.6,0.7-0.8c0.3-0.3,0.7-0.4,1.1-0.4C313.4,158,313.7,158.1,314,158.2z"/>
	<path class="st9" d="M316.5,155.3v5.8l3-2.9h2.1l-3.2,3l3.5,4.2h-2l-2.5-3.2l-0.7,0.7v2.5h-1.6v-10.2H316.5z"/>
	<path class="st9" d="M324.4,155.3v10.2h-1.6v-10.2H324.4z"/>
	<path class="st9" d="M328.1,155.6c0.2,0.2,0.3,0.4,0.3,0.8c0,0.3-0.1,0.6-0.3,0.8s-0.5,0.3-0.8,0.3c-0.3,0-0.6-0.1-0.8-0.3
		c-0.2-0.2-0.3-0.5-0.3-0.8c0-0.3,0.1-0.6,0.3-0.8s0.5-0.3,0.8-0.3C327.6,155.3,327.9,155.4,328.1,155.6z M328.1,158.2v7.2h-1.6
		v-7.2H328.1z"/>
	<path class="st9" d="M336.5,161v4.5h-1.6v-4.3c0-1.2-0.5-1.8-1.6-1.8c-0.4,0-0.7,0.1-1,0.4c-0.3,0.3-0.5,0.8-0.6,1.3v4.4h-1.6v-7.2
		h1.6v0.8c0.3-0.3,0.6-0.6,1-0.8c0.4-0.2,0.8-0.3,1.2-0.3C335.6,158,336.5,159,336.5,161z"/>
	<path class="st9" d="M343.3,159.1v-0.9h1.6v6.8c0,2.3-1.1,3.4-3.4,3.4c-1,0-1.8-0.2-2.3-0.6c-0.5-0.4-0.9-1-1-1.8h1.6
		c0.1,0.4,0.3,0.7,0.5,0.9c0.3,0.2,0.7,0.2,1.2,0.2c1.2,0,1.8-0.6,1.8-1.9v-1.1c-0.5,0.7-1.2,1.1-2.1,1.1c-1,0-1.8-0.3-2.4-1
		c-0.6-0.7-0.9-1.5-0.9-2.6s0.3-2,0.9-2.6c0.6-0.7,1.4-1,2.4-1C342.1,158,342.8,158.4,343.3,159.1z M340,159.9
		c-0.3,0.4-0.5,1-0.5,1.7c0,0.7,0.1,1.2,0.4,1.6c0.3,0.5,0.8,0.7,1.5,0.7c0.6,0,1.1-0.2,1.4-0.6c0.3-0.4,0.5-1,0.5-1.7
		c0-0.7-0.2-1.3-0.5-1.7c-0.3-0.4-0.8-0.6-1.4-0.6C340.8,159.3,340.4,159.5,340,159.9z"/>
	<path class="st9" d="M355.1,155.5c1.6,0,2.8,0.4,3.7,1.3c0.8,0.8,1.2,2.1,1.2,3.7c0,1.6-0.4,2.8-1.2,3.7c-0.8,0.9-2.1,1.3-3.7,1.3
		h-3.7v-10H355.1z M353.1,164.1h1.7c1.2,0,2.2-0.3,2.7-0.9c0.6-0.6,0.8-1.5,0.8-2.7c0-1.3-0.3-2.2-0.8-2.7c-0.6-0.6-1.5-0.9-2.7-0.9
		h-1.7V164.1z"/>
	<path class="st9" d="M367,158.8c0.4,0.5,0.7,1.1,0.7,2v4.6h-1.5v-1c-0.3,0.4-0.6,0.6-1,0.8c-0.5,0.2-1,0.3-1.6,0.3
		c-0.8,0-1.3-0.2-1.8-0.6c-0.4-0.4-0.7-0.9-0.7-1.5c0-0.8,0.3-1.4,1-1.9c0.6-0.4,1.4-0.6,2.5-0.7l1.6,0v-0.3c0-1-0.5-1.4-1.6-1.4
		c-0.4,0-0.8,0.1-1.1,0.2c-0.3,0.2-0.5,0.5-0.6,0.8l-1.6-0.1c0.2-0.8,0.5-1.4,1.2-1.8c0.5-0.3,1.3-0.5,2.2-0.5
		C365.7,158,366.5,158.3,367,158.8z M364.6,162.2c-1.3,0-1.9,0.5-1.9,1.3c0,0.3,0.1,0.5,0.3,0.6s0.5,0.3,0.9,0.3
		c0.6,0,1.1-0.2,1.6-0.5c0.4-0.4,0.6-0.8,0.6-1.4v-0.4L364.6,162.2z"/>
	<path class="st9" d="M371.6,158.2h1.6v1.3h-1.6v4.1c0,0.2,0,0.3,0.1,0.4c0.1,0.1,0.2,0.1,0.4,0.1h1v1.3h-1.2
		c-0.6,0-1.1-0.2-1.4-0.5c-0.3-0.3-0.4-0.7-0.4-1.3v-4.1h-1.3v-1.3h1.3v-1.7l1.6-0.7L371.6,158.2L371.6,158.2z"/>
	<path class="st9" d="M380.1,158.8c0.4,0.5,0.7,1.1,0.7,2v4.6h-1.5v-1c-0.3,0.4-0.6,0.6-1,0.8c-0.5,0.2-1,0.3-1.6,0.3
		c-0.8,0-1.3-0.2-1.8-0.6c-0.4-0.4-0.7-0.9-0.7-1.5c0-0.8,0.3-1.4,1-1.9c0.6-0.4,1.4-0.6,2.5-0.7l1.6,0v-0.3c0-1-0.5-1.4-1.6-1.4
		c-0.4,0-0.8,0.1-1.1,0.2c-0.3,0.2-0.5,0.5-0.6,0.8l-1.6-0.1c0.2-0.8,0.5-1.4,1.2-1.8c0.5-0.3,1.3-0.5,2.2-0.5
		C378.8,158,379.6,158.3,380.1,158.8z M377.7,162.2c-1.3,0-1.9,0.5-1.9,1.3c0,0.3,0.1,0.5,0.3,0.6s0.5,0.3,0.9,0.3
		c0.6,0,1.1-0.2,1.6-0.5c0.4-0.4,0.6-0.8,0.6-1.4v-0.4L377.7,162.2z"/>
</g>
<g class="st8">
	<path class="st9" d="M299.5,172.3l1.9,7.6h0.1l2-7.6h1.7l2,7.6h0.1l1.9-7.6h1.8l-2.9,10h-1.7l-1.9-7.5h-0.1l-2,7.5h-1.8l-2.9-10
		H299.5z"/>
	<path class="st9" d="M317.4,175.6c0.4,0.5,0.7,1.1,0.7,2v4.6h-1.5v-1c-0.3,0.4-0.6,0.6-1,0.8c-0.5,0.2-1,0.3-1.6,0.3
		c-0.8,0-1.3-0.2-1.8-0.6c-0.4-0.4-0.7-0.9-0.7-1.5c0-0.8,0.3-1.4,1-1.9c0.6-0.4,1.4-0.6,2.5-0.7l1.6,0v-0.3c0-1-0.5-1.4-1.6-1.4
		c-0.4,0-0.8,0.1-1.1,0.2c-0.3,0.2-0.5,0.5-0.6,0.8l-1.6-0.1c0.2-0.8,0.5-1.4,1.2-1.8c0.5-0.3,1.3-0.5,2.2-0.5
		C316.1,174.8,316.9,175.1,317.4,175.6z M315,179c-1.3,0-1.9,0.5-1.9,1.3c0,0.3,0.1,0.5,0.3,0.6s0.5,0.3,0.9,0.3
		c0.6,0,1.1-0.2,1.6-0.5c0.4-0.4,0.6-0.8,0.6-1.4V179L315,179z"/>
	<path class="st9" d="M324.1,175v1.6c-0.4-0.1-0.7-0.2-1-0.2c-0.4,0-0.8,0.2-1.1,0.5c-0.4,0.4-0.6,0.9-0.6,1.5v3.8h-1.6V175h1.6v1
		c0.2-0.4,0.4-0.6,0.7-0.8c0.3-0.3,0.7-0.4,1.1-0.4C323.5,174.8,323.8,174.9,324.1,175z"/>
	<path class="st9" d="M330.8,176c0.6,0.7,0.9,1.8,0.9,3.1h-5.4c0.1,0.7,0.2,1.2,0.5,1.5c0.3,0.4,0.8,0.5,1.3,0.5
		c0.5,0,0.9-0.1,1.2-0.3c0.2-0.2,0.4-0.5,0.6-0.9h1.6c-0.2,0.7-0.5,1.2-1,1.7c-0.6,0.5-1.4,0.8-2.4,0.8c-1.1,0-1.9-0.3-2.6-1
		c-0.7-0.7-1-1.6-1-2.8c0-1.1,0.3-2,1-2.7c0.6-0.7,1.5-1.1,2.5-1.1C329.2,174.8,330.2,175.2,330.8,176z M326.9,176.6
		c-0.3,0.3-0.5,0.7-0.6,1.3h3.7c-0.1-1.2-0.8-1.8-1.9-1.8C327.6,176.1,327.2,176.3,326.9,176.6z"/>
	<path class="st9" d="M334.5,172.1v3.9c0.3-0.4,0.6-0.7,1-0.9c0.4-0.2,0.8-0.3,1.2-0.3c0.9,0,1.5,0.3,2,0.8c0.4,0.5,0.6,1.2,0.6,2.2
		v4.5h-1.6v-4.2c0-0.6-0.1-1.1-0.4-1.4c-0.3-0.4-0.7-0.5-1.2-0.5c-0.5,0-0.9,0.2-1.2,0.6c-0.3,0.4-0.4,0.9-0.4,1.5v4h-1.6v-10.2
		L334.5,172.1L334.5,172.1z"/>
	<path class="st9" d="M347,175.9c0.7,0.7,1,1.6,1,2.7c0,1.1-0.3,2-1,2.7c-0.7,0.7-1.6,1.1-2.7,1.1c-1.1,0-2-0.4-2.7-1.1
		c-0.7-0.7-1-1.6-1-2.7c0-1.1,0.3-2,1-2.7c0.7-0.7,1.5-1.1,2.6-1.1C345.4,174.8,346.3,175.2,347,175.9z M342.8,176.9
		c-0.3,0.4-0.5,1-0.5,1.7s0.2,1.3,0.5,1.7c0.4,0.5,0.9,0.8,1.5,0.8c0.7,0,1.2-0.3,1.5-0.8c0.3-0.5,0.5-1,0.5-1.7
		c0-0.7-0.2-1.3-0.5-1.7c-0.4-0.5-0.9-0.8-1.5-0.8C343.7,176.1,343.2,176.4,342.8,176.9z"/>
	<path class="st9" d="M351,175v4.4c0,0.6,0.1,1,0.4,1.3c0.3,0.3,0.6,0.4,1.2,0.4c0.4,0,0.7-0.2,1-0.4c0.3-0.3,0.6-0.7,0.7-1.2V175
		h1.6v7.2h-1.6v-0.9c-0.6,0.8-1.4,1.1-2.3,1.1c-1.7,0-2.6-1-2.6-2.9V175H351z"/>
	<path class="st9" d="M363.4,177.1h-1.6c-0.1-0.4-0.3-0.6-0.5-0.8c-0.2-0.2-0.6-0.2-1.1-0.2c-0.4,0-0.7,0.1-1,0.2
		c-0.3,0.1-0.4,0.3-0.4,0.6c0,0.2,0.2,0.4,0.6,0.6c0.2,0.1,0.7,0.2,1.4,0.4c0.8,0.2,1.4,0.4,1.8,0.7c0.6,0.4,0.9,0.9,0.9,1.5
		c0,1.5-1.1,2.3-3.3,2.3c-2,0-3.1-0.9-3.2-2.6h1.6c0.1,0.5,0.3,0.8,0.5,1c0.2,0.2,0.6,0.3,1.1,0.3c1.1,0,1.7-0.3,1.7-0.9
		c0-0.3-0.2-0.6-0.6-0.8c-0.2-0.1-0.7-0.2-1.4-0.4c-0.9-0.2-1.5-0.4-1.8-0.6c-0.6-0.4-0.8-0.8-0.8-1.5c0-0.7,0.3-1.2,0.8-1.6
		c0.5-0.4,1.3-0.6,2.2-0.6C362.2,174.8,363.2,175.6,363.4,177.1z"/>
	<path class="st9" d="M370.7,176c0.6,0.7,0.9,1.8,0.9,3.1h-5.4c0.1,0.7,0.2,1.2,0.5,1.5c0.3,0.4,0.8,0.5,1.3,0.5
		c0.5,0,0.9-0.1,1.2-0.3c0.2-0.2,0.4-0.5,0.6-0.9h1.6c-0.2,0.7-0.5,1.2-1,1.7c-0.6,0.5-1.4,0.8-2.4,0.8c-1.1,0-1.9-0.3-2.6-1
		c-0.7-0.7-1-1.6-1-2.8c0-1.1,0.3-2,1-2.7c0.6-0.7,1.5-1.1,2.5-1.1C369.2,174.8,370.1,175.2,370.7,176z M366.8,176.6
		c-0.3,0.3-0.5,0.7-0.6,1.3h3.7c-0.1-1.2-0.8-1.8-1.9-1.8C367.5,176.1,367.1,176.3,366.8,176.6z"/>
</g>
<g class="st8">
	<path class="st14" d="M319.8,30.8c-0.1,0.2-0.1,0.4-0.2,0.5h2.4v1c-0.2,0.7-0.6,1.3-1.1,1.8c0.5,0.2,0.9,0.4,1.4,0.7l-0.7,1
		c-0.5-0.3-1-0.6-1.7-0.9c-0.8,0.5-1.8,0.9-3,1.2l-0.6-1c0.9-0.2,1.6-0.4,2.2-0.7c-0.5-0.2-1-0.4-1.5-0.6c0.3-0.5,0.5-0.9,0.8-1.4
		h-1.2v-1.1h1.7c0.1-0.2,0.2-0.5,0.2-0.7L319.8,30.8z M318.9,27.3v-2.2h1.2v2.2h2v1.1h-2v0c0.6,0.3,1.3,0.5,1.9,0.9l-0.6,1
		c-0.5-0.4-0.9-0.7-1.3-0.9v1.3h-1.2v-1.9c-0.4,0.8-1,1.5-1.9,2.1l-0.6-1c0.8-0.4,1.4-0.9,1.7-1.5h-1.4v-1.1L318.9,27.3L318.9,27.3z
		 M318.5,26.7l-0.9,0.4c-0.2-0.6-0.5-1.1-0.8-1.5l1-0.3C318.1,25.7,318.3,26.2,318.5,26.7z M320.9,32.4h-1.8
		c-0.2,0.3-0.3,0.6-0.5,0.9c0.4,0.1,0.8,0.3,1.2,0.4C320.3,33.3,320.6,32.9,320.9,32.4z M322.1,25.7c-0.2,0.5-0.5,1-0.9,1.5
		l-0.9-0.4c0.4-0.5,0.7-1,0.9-1.5L322.1,25.7z M323.3,30.2c-0.2,0.4-0.4,0.8-0.6,1.1l-0.8-1c0.7-1.3,1.1-3.1,1.3-5.3l1.2,0.2
		c-0.1,0.5-0.1,1-0.2,1.5h3V28h-0.7c-0.1,1.9-0.4,3.6-1.1,4.9c0.6,1,1.3,1.7,2.1,2.3l-0.7,1c-0.7-0.6-1.4-1.3-2-2.2
		c-0.6,0.8-1.3,1.6-2.1,2.1l-0.6-1.1c0.9-0.6,1.6-1.3,2.1-2.2C323.9,32.1,323.6,31.2,323.3,30.2z M323.9,28.5c0.3,1.2,0.6,2.2,1,3.1
		c0.4-1.1,0.6-2.3,0.6-3.6H324C323.9,28.1,323.9,28.3,323.9,28.5z"/>
	<path class="st14" d="M328.9,36.1l-0.3-1.2c0.3,0,0.6,0.1,0.9,0.1c0.3,0,0.4-0.2,0.4-0.5v-2.4c-0.4,0.1-0.8,0.3-1.2,0.4l-0.3-1.2
		c0.5-0.1,1-0.3,1.5-0.4v-2.4h-1.3v-1.2h1.3v-2.1h1.2v2.1h1v1.2h-1v1.9c0.3-0.2,0.7-0.3,1-0.5v1.2c-0.3,0.2-0.7,0.3-1,0.5v3.3
		c0,0.8-0.4,1.2-1.2,1.2H328.9z M332.4,36.2l-1-0.9c0.8-1.5,1.2-3.5,1.2-5.9v-4h6.6v3.2H337v1.1h2.4v1.1H337V32h1.9v4.1h-1.2v-0.5
		H335v0.5h-1.2V32h1.9v-1.1h-2C333.6,32.9,333.1,34.7,332.4,36.2z M333.8,28.6v0.8c0,0.1,0,0.2,0,0.3h2v-1.1H333.8z M333.8,26.6v0.9
		h4.1v-0.9H333.8z M337.7,34.6v-1.4H335v1.4H337.7z"/>
	<path class="st14" d="M346.4,25.1c1.5,1.7,3.2,3,5.1,4l-0.6,1.1c-1.9-1-3.6-2.4-4.9-4c-1.2,1.5-2.9,2.9-5,4l-0.6-1.1
		c2.1-1.1,3.8-2.4,5.1-4H346.4z M344.1,30.4v3.8c0,0.4,0.2,0.7,0.6,0.7h3.2c0.7,0,1.1-0.1,1.3-0.3c0.2-0.2,0.3-0.7,0.4-1.5l1.2,0.4
		c-0.1,1.2-0.4,2-0.7,2.2c-0.3,0.2-0.9,0.3-1.8,0.3h-4.2c-0.9,0-1.3-0.5-1.3-1.4v-5.4h6.2v2.9c0,0.8-0.4,1.3-1.1,1.3
		c-0.6,0-1.2,0-1.7,0l-0.3-1.2c0.6,0,1.1,0.1,1.5,0.1c0.3,0,0.4-0.2,0.4-0.6v-1.3H344.1z"/>
	<path class="st14" d="M359.1,26h4.2v1.2h-8.7v2.5c0,2.7-0.4,4.8-1.1,6.4l-1.1-0.9c0.6-1.3,0.9-3.1,0.9-5.5V26h4.4
		c-0.2-0.3-0.3-0.6-0.5-0.8l1.4-0.2C358.8,25.3,358.9,25.6,359.1,26z M358.6,27.6c-0.1,0.2-0.2,0.5-0.2,0.7h4.5v1.1h-4.9
		c-0.3,0.6-0.6,1.2-0.9,1.7h1.7v-1.3h1.2v1.3h2.6v1.1H360v1h3.4v1.1H360v1.8h-1.2v-1.8h-4.1v-1.1h4.1v-1h-3l-0.3-1.1
		c0.4-0.5,0.7-1.1,1.1-1.8h-1.5v-1.1h2c0.1-0.3,0.2-0.7,0.3-1L358.6,27.6z"/>
	<path class="st14" d="M375.5,28.6l-0.6,1.2c-0.8-0.3-1.5-0.6-2.1-0.9v0.3H368v0.4h5.4v1H368v0.4h5.4v1H368v0.4h7.2v1.1H373
		c0.6,0.7,1.1,1.4,1.5,2.2l-1.1,0.5c-0.1-0.3-0.3-0.6-0.4-0.8c-2.1,0.3-4.4,0.5-6.7,0.6l-0.3-1c0.5,0,1.1-0.6,1.7-1.6h-2.9v-1.1h2.1
		v-3.3c-0.5,0.3-1.1,0.5-1.7,0.7l-0.6-1.1c1.4-0.4,2.5-1,3.4-1.6h-2.9V26h4c0.2-0.3,0.4-0.6,0.5-0.9l1.2,0.1
		c-0.1,0.3-0.2,0.5-0.3,0.7h4.7v1.1h-2.8C373,27.7,374.1,28.2,375.5,28.6z M371.8,33.7l0.7-0.2h-3.5c-0.4,0.6-0.7,1.1-1.1,1.5
		c1.5-0.1,3-0.3,4.4-0.5C372.2,34.2,372,33.9,371.8,33.7z M370.7,27.1h-1.2c-0.3,0.3-0.6,0.7-1,1h3.3
		C371.4,27.7,371,27.4,370.7,27.1z"/>
	<path class="st14" d="M380.1,25.5c-0.3,0.9-0.7,1.8-1.2,2.6v8h-1.2V30c-0.3,0.4-0.6,0.8-1,1.1l-0.4-1.3c1.2-1.4,2.1-3,2.6-4.8
		L380.1,25.5z M382.2,26c-0.1,0.5-0.2,1-0.3,1.5h1.3v-2.4h1.3v2.4h2.6v1.2h-2.6v2.5h3.1v1.2h-3.1v3.8h-1.3v-3.8h-3.3v-1.2h3.3v-2.5
		h-1.7c-0.3,0.7-0.7,1.4-1.1,2l-0.8-1c0.7-1,1.2-2.3,1.4-3.8L382.2,26z"/>
</g>
<g>
	<g>
		<g>
			<path id="SVGID_1_" class="st14" d="M264,32.2c0-0.1-0.1-0.3-0.1-0.6l0.8,0c0,0.1,0,0.1,0,0.2c0.3,1.2,1.1,1.8,2.2,1.8
				c0.4,0,0.8-0.1,1.2-0.3c0.9-0.6,0.9-1.7,0.2-2.4c-0.4-0.4-0.9-0.6-1.5-0.7c-0.5-0.2-1-0.3-1.5-0.6c-1.5-0.8-1.6-2.4-0.3-3.4
				c1.4-1.1,3.5-0.6,4.2,1c0,0.1,0.1,0.2,0.1,0.4l-0.9,0c-0.1-0.2-0.2-0.3-0.2-0.4c-0.7-1.1-2.5-1-3.1,0.1c-0.3,0.5-0.2,1.1,0.3,1.5
				c0.5,0.3,1.1,0.5,1.6,0.7c0.5,0.2,1,0.3,1.4,0.6c0.8,0.5,1.2,1.2,1.1,2.1c0,0.9-0.5,1.6-1.3,2c-0.5,0.2-1,0.3-1.5,0.3
				C265.5,34.4,264.3,33.5,264,32.2L264,32.2z M271.1,37.3h-0.9V31c0-0.5,0.1-0.9,0.3-1.3c0.2-0.4,0.4-0.8,0.7-1.1
				c0.3-0.3,0.6-0.5,1-0.7c0.4-0.2,0.8-0.3,1.3-0.3c0.4,0,0.9,0.1,1.3,0.3c0.4,0.2,0.7,0.4,1,0.7s0.5,0.7,0.7,1.1
				c0.2,0.4,0.3,0.8,0.3,1.3c0,0.5-0.1,0.9-0.3,1.3c-0.2,0.4-0.4,0.8-0.7,1.1c-0.3,0.3-0.6,0.5-1,0.7c-0.4,0.2-0.8,0.3-1.3,0.3
				c-0.5,0-1-0.1-1.5-0.4c-0.3-0.2-0.6-0.4-0.8-0.6L271.1,37.3L271.1,37.3z M273.5,28.5c-0.3,0-0.7,0.1-1,0.2
				c-0.3,0.1-0.6,0.3-0.8,0.5c-0.2,0.2-0.4,0.5-0.5,0.8s-0.2,0.6-0.2,1s0.1,0.7,0.2,1c0.1,0.3,0.3,0.6,0.5,0.8s0.5,0.4,0.8,0.5
				c0.3,0.1,0.6,0.2,1,0.2c0.3,0,0.7-0.1,1-0.2c0.3-0.1,0.6-0.3,0.8-0.5s0.4-0.5,0.5-0.8c0.1-0.3,0.2-0.6,0.2-1s-0.1-0.7-0.2-1
				c-0.1-0.3-0.3-0.6-0.5-0.8c-0.2-0.2-0.5-0.4-0.8-0.5C274.1,28.5,273.8,28.5,273.5,28.5L273.5,28.5z M282,34
				c-0.5,0.2-0.9,0.4-1.5,0.4c-0.4,0-0.9-0.1-1.3-0.3c-0.4-0.2-0.7-0.4-1-0.7c-0.3-0.3-0.5-0.7-0.7-1.1c-0.2-0.4-0.3-0.8-0.3-1.3
				s0.1-0.9,0.3-1.3c0.2-0.4,0.4-0.8,0.7-1.1c0.3-0.3,0.6-0.5,1-0.7c0.4-0.2,0.8-0.3,1.3-0.3c0.4,0,0.9,0.1,1.3,0.3
				c0.4,0.2,0.7,0.4,1,0.7s0.5,0.7,0.7,1.1c0.2,0.4,0.3,0.8,0.3,1.3v3.2h-0.9v-0.9C282.6,33.6,282.3,33.8,282,34L282,34z
				 M280.5,28.4c-0.3,0-0.7,0.1-1,0.2s-0.6,0.3-0.8,0.5s-0.4,0.5-0.5,0.8s-0.2,0.6-0.2,1s0.1,0.7,0.2,1s0.3,0.6,0.5,0.8
				c0.2,0.2,0.5,0.4,0.8,0.5s0.6,0.2,1,0.2s0.7-0.1,1-0.2c0.3-0.1,0.6-0.3,0.8-0.5s0.4-0.5,0.5-0.8c0.1-0.3,0.2-0.6,0.2-1
				s-0.1-0.7-0.2-1c-0.1-0.3-0.3-0.6-0.5-0.8c-0.2-0.2-0.5-0.4-0.8-0.5C281.1,28.5,280.8,28.4,280.5,28.4L280.5,28.4z M285.2,34.2
				h-0.9V31c0-0.5,0.1-0.9,0.3-1.3c0.2-0.4,0.4-0.8,0.7-1.1c0.3-0.3,0.6-0.5,1-0.7c0.4-0.2,0.8-0.3,1.3-0.3h0.1v0.9h-0.1
				c-0.3,0-0.6,0.1-0.9,0.2c-0.3,0.1-0.5,0.3-0.7,0.5c-0.2,0.2-0.4,0.5-0.5,0.8c-0.1,0.3-0.2,0.6-0.2,0.9V34.2L285.2,34.2z
				 M291.9,27.8h1.3L290,31l3.1,3.2h-1.3l-2.7-2.8v2.8h-0.9v-9.5h0.9v5.9L291.9,27.8L291.9,27.8z M293.7,24.7h0.9v7.8
				c0,0.2,0.1,0.4,0.2,0.6s0.3,0.2,0.6,0.2h0.1v0.9h-0.1c-0.2,0-0.5,0-0.7-0.1s-0.4-0.2-0.5-0.4c-0.1-0.2-0.3-0.3-0.4-0.6
				c-0.1-0.2-0.1-0.4-0.1-0.7L293.7,24.7L293.7,24.7z M296.5,27.8h0.9v6.4h-0.9V27.8L296.5,27.8z M296.5,24.7h0.9v1.3h-0.9V24.7
				L296.5,24.7z M301.5,27.6c0.4,0,0.9,0.1,1.3,0.3c0.4,0.2,0.7,0.4,1,0.7s0.5,0.7,0.7,1.1c0.2,0.4,0.3,0.8,0.3,1.3v3.2h-0.9V31
				c0-0.3-0.1-0.6-0.2-0.9c-0.1-0.3-0.3-0.6-0.5-0.8c-0.2-0.2-0.5-0.4-0.7-0.5c-0.3-0.1-0.6-0.2-0.9-0.2s-0.6,0.1-0.9,0.2
				c-0.3,0.1-0.5,0.3-0.7,0.5c-0.2,0.2-0.4,0.5-0.5,0.8c-0.1,0.3-0.2,0.6-0.2,0.9v3.2h-0.9V31c0-0.5,0.1-0.9,0.3-1.3
				c0.2-0.4,0.4-0.8,0.7-1.1c0.3-0.3,0.6-0.5,1-0.7C300.6,27.7,301.1,27.6,301.5,27.6L301.5,27.6z M310.9,29.4v-1.6h0.9V33
				c0,0.6,0.3,5.1-3.4,5.1v-0.9c2,0,2.5-1.9,2.5-4v-1c0.2-0.6,0.3-1,0.3-1.3S311.1,30.2,310.9,29.4L310.9,29.4z"/>
		</g>
		<g>
			<defs>
				<path id="SVGID_2_" d="M264,32.2c0-0.1-0.1-0.3-0.1-0.6l0.8,0c0,0.1,0,0.1,0,0.2c0.3,1.2,1.1,1.8,2.2,1.8c0.4,0,0.8-0.1,1.2-0.3
					c0.9-0.6,0.9-1.7,0.2-2.4c-0.4-0.4-0.9-0.6-1.5-0.7c-0.5-0.2-1-0.3-1.5-0.6c-1.5-0.8-1.6-2.4-0.3-3.4c1.4-1.1,3.5-0.6,4.2,1
					c0,0.1,0.1,0.2,0.1,0.4l-0.9,0c-0.1-0.2-0.2-0.3-0.2-0.4c-0.7-1.1-2.5-1-3.1,0.1c-0.3,0.5-0.2,1.1,0.3,1.5
					c0.5,0.3,1.1,0.5,1.6,0.7c0.5,0.2,1,0.3,1.4,0.6c0.8,0.5,1.2,1.2,1.1,2.1c0,0.9-0.5,1.6-1.3,2c-0.5,0.2-1,0.3-1.5,0.3
					C265.5,34.4,264.3,33.5,264,32.2L264,32.2z M271.1,37.3h-0.9V31c0-0.5,0.1-0.9,0.3-1.3c0.2-0.4,0.4-0.8,0.7-1.1
					c0.3-0.3,0.6-0.5,1-0.7c0.4-0.2,0.8-0.3,1.3-0.3c0.4,0,0.9,0.1,1.3,0.3c0.4,0.2,0.7,0.4,1,0.7s0.5,0.7,0.7,1.1
					c0.2,0.4,0.3,0.8,0.3,1.3c0,0.5-0.1,0.9-0.3,1.3c-0.2,0.4-0.4,0.8-0.7,1.1c-0.3,0.3-0.6,0.5-1,0.7c-0.4,0.2-0.8,0.3-1.3,0.3
					c-0.5,0-1-0.1-1.5-0.4c-0.3-0.2-0.6-0.4-0.8-0.6L271.1,37.3L271.1,37.3z M273.5,28.5c-0.3,0-0.7,0.1-1,0.2
					c-0.3,0.1-0.6,0.3-0.8,0.5c-0.2,0.2-0.4,0.5-0.5,0.8s-0.2,0.6-0.2,1s0.1,0.7,0.2,1c0.1,0.3,0.3,0.6,0.5,0.8s0.5,0.4,0.8,0.5
					c0.3,0.1,0.6,0.2,1,0.2c0.3,0,0.7-0.1,1-0.2c0.3-0.1,0.6-0.3,0.8-0.5s0.4-0.5,0.5-0.8c0.1-0.3,0.2-0.6,0.2-1s-0.1-0.7-0.2-1
					c-0.1-0.3-0.3-0.6-0.5-0.8c-0.2-0.2-0.5-0.4-0.8-0.5C274.1,28.5,273.8,28.5,273.5,28.5L273.5,28.5z M282,34
					c-0.5,0.2-0.9,0.4-1.5,0.4c-0.4,0-0.9-0.1-1.3-0.3c-0.4-0.2-0.7-0.4-1-0.7c-0.3-0.3-0.5-0.7-0.7-1.1c-0.2-0.4-0.3-0.8-0.3-1.3
					s0.1-0.9,0.3-1.3c0.2-0.4,0.4-0.8,0.7-1.1c0.3-0.3,0.6-0.5,1-0.7c0.4-0.2,0.8-0.3,1.3-0.3c0.4,0,0.9,0.1,1.3,0.3
					c0.4,0.2,0.7,0.4,1,0.7s0.5,0.7,0.7,1.1c0.2,0.4,0.3,0.8,0.3,1.3v3.2h-0.9v-0.9C282.6,33.6,282.3,33.8,282,34L282,34z
					 M280.5,28.4c-0.3,0-0.7,0.1-1,0.2s-0.6,0.3-0.8,0.5s-0.4,0.5-0.5,0.8s-0.2,0.6-0.2,1s0.1,0.7,0.2,1s0.3,0.6,0.5,0.8
					c0.2,0.2,0.5,0.4,0.8,0.5s0.6,0.2,1,0.2s0.7-0.1,1-0.2c0.3-0.1,0.6-0.3,0.8-0.5s0.4-0.5,0.5-0.8c0.1-0.3,0.2-0.6,0.2-1
					s-0.1-0.7-0.2-1c-0.1-0.3-0.3-0.6-0.5-0.8c-0.2-0.2-0.5-0.4-0.8-0.5C281.1,28.5,280.8,28.4,280.5,28.4L280.5,28.4z M285.2,34.2
					h-0.9V31c0-0.5,0.1-0.9,0.3-1.3c0.2-0.4,0.4-0.8,0.7-1.1c0.3-0.3,0.6-0.5,1-0.7c0.4-0.2,0.8-0.3,1.3-0.3h0.1v0.9h-0.1
					c-0.3,0-0.6,0.1-0.9,0.2c-0.3,0.1-0.5,0.3-0.7,0.5c-0.2,0.2-0.4,0.5-0.5,0.8c-0.1,0.3-0.2,0.6-0.2,0.9V34.2L285.2,34.2z
					 M291.9,27.8h1.3L290,31l3.1,3.2h-1.3l-2.7-2.8v2.8h-0.9v-9.5h0.9v5.9L291.9,27.8L291.9,27.8z M293.7,24.7h0.9v7.8
					c0,0.2,0.1,0.4,0.2,0.6s0.3,0.2,0.6,0.2h0.1v0.9h-0.1c-0.2,0-0.5,0-0.7-0.1s-0.4-0.2-0.5-0.4c-0.1-0.2-0.3-0.3-0.4-0.6
					c-0.1-0.2-0.1-0.4-0.1-0.7L293.7,24.7L293.7,24.7z M296.5,27.8h0.9v6.4h-0.9V27.8L296.5,27.8z M296.5,24.7h0.9v1.3h-0.9V24.7
					L296.5,24.7z M301.5,27.6c0.4,0,0.9,0.1,1.3,0.3c0.4,0.2,0.7,0.4,1,0.7s0.5,0.7,0.7,1.1c0.2,0.4,0.3,0.8,0.3,1.3v3.2h-0.9V31
					c0-0.3-0.1-0.6-0.2-0.9c-0.1-0.3-0.3-0.6-0.5-0.8c-0.2-0.2-0.5-0.4-0.7-0.5c-0.3-0.1-0.6-0.2-0.9-0.2s-0.6,0.1-0.9,0.2
					c-0.3,0.1-0.5,0.3-0.7,0.5c-0.2,0.2-0.4,0.5-0.5,0.8c-0.1,0.3-0.2,0.6-0.2,0.9v3.2h-0.9V31c0-0.5,0.1-0.9,0.3-1.3
					c0.2-0.4,0.4-0.8,0.7-1.1c0.3-0.3,0.6-0.5,1-0.7C300.6,27.7,301.1,27.6,301.5,27.6L301.5,27.6z M310.9,29.4v-1.6h0.9V33
					c0,0.6,0.3,5.1-3.4,5.1v-0.9c2,0,2.5-1.9,2.5-4v-1c0.2-0.6,0.3-1,0.3-1.3S311.1,30.2,310.9,29.4L310.9,29.4z"/>
			</defs>
			<clipPath id="SVGID_4_">
				<use xlink:href="#SVGID_2_"  style="overflow:visible;"/>
			</clipPath>
			<rect x="263.2" y="24" class="st15" width="49.3" height="14.9"/>
		</g>
	</g>
	<g>
		<g>
			<path id="SVGID_3_" class="st14" d="M308.4,33.5c-1.4,0-2.5-1.1-2.5-2.5c0-1.4,1.1-2.5,2.5-2.5c1.4,0,2.5,1.1,2.5,2.5
				C310.9,32.3,309.8,33.5,308.4,33.5 M308.4,27.6c-1.8,0-3.2,1.5-3.2,3.3c0,1.8,1.4,3.3,3.2,3.3s3.2-1.5,3.2-3.3
				C311.6,29.1,310.2,27.6,308.4,27.6"/>
		</g>
		<g>
			<defs>
				<path id="SVGID_6_" d="M308.4,33.5c-1.4,0-2.5-1.1-2.5-2.5c0-1.4,1.1-2.5,2.5-2.5c1.4,0,2.5,1.1,2.5,2.5
					C310.9,32.3,309.8,33.5,308.4,33.5 M308.4,27.6c-1.8,0-3.2,1.5-3.2,3.3c0,1.8,1.4,3.3,3.2,3.3s3.2-1.5,3.2-3.3
					C311.6,29.1,310.2,27.6,308.4,27.6"/>
			</defs>
			<clipPath id="SVGID_8_">
				<use xlink:href="#SVGID_6_"  style="overflow:visible;"/>
			</clipPath>
			<rect x="304.5" y="26.9" class="st16" width="7.9" height="8.1"/>
		</g>
	</g>
	<g>
		<g>
			<path id="SVGID_5_" class="st14" d="M258.8,22.9L258.8,22.9l0.5-0.9l0.9,0.5l0,0c0,0,0,0,0,0l0,0l0,0c1.2,5.6,1.8,8.6,1.9,9.1
				C262,31.6,260.9,28.7,258.8,22.9L258.8,22.9L258.8,22.9z M259,22.8l0.6,0.3l0.3-0.6l-0.6-0.3L259,22.8L259,22.8z"/>
		</g>
		<g>
			<defs>
				<path id="SVGID_10_" d="M258.8,22.9L258.8,22.9l0.5-0.9l0.9,0.5l0,0c0,0,0,0,0,0l0,0l0,0c1.2,5.6,1.8,8.6,1.9,9.1
					C262,31.6,260.9,28.7,258.8,22.9L258.8,22.9L258.8,22.9z M259,22.8l0.6,0.3l0.3-0.6l-0.6-0.3L259,22.8L259,22.8z"/>
			</defs>
			<clipPath id="SVGID_12_">
				<use xlink:href="#SVGID_10_"  style="overflow:visible;"/>
			</clipPath>
			<rect x="258" y="21.3" class="st17" width="4.7" height="11.1"/>
		</g>
	</g>
	<g>
		<g>
			<path id="SVGID_7_" class="st14" d="M253.5,25.8L253.5,25.8l-0.1-0.7l0.7-0.1l0,0c0,0,0,0,0,0l0,0l0,0c4.9,4.2,7.5,6.4,7.8,6.8
				C261.9,31.8,259,29.8,253.5,25.8L253.5,25.8L253.5,25.8z M253.6,25.6l0.5,0l0-0.5l-0.5,0L253.6,25.6L253.6,25.6z"/>
		</g>
	</g>
	<g>
		<g>
			<path id="SVGID_9_" class="st14" d="M249.2,29.6L249.2,29.6l-0.5-0.8l0.9-0.5l0,0c0,0,0,0,0,0l0,0l0,0c7.8,2.4,11.9,3.7,12.4,3.9
				C261.9,32.1,257.7,31.3,249.2,29.6L249.2,29.6L249.2,29.6z M249.2,29.3l0.6-0.3l-0.3-0.5l-0.6,0.3L249.2,29.3L249.2,29.3z"/>
		</g>
	</g>
	<g>
		<g>
			<path id="SVGID_11_" class="st14" d="M250.9,32L250.9,32l-0.6-0.6l0.6-0.5l0,0c0,0,0,0,0,0l0,0l0,0c6.4,0.8,9.8,1.2,10.2,1.3
				C261.2,32.2,257.8,32.2,250.9,32L250.9,32L250.9,32z M250.9,31.8l0.4-0.4l-0.3-0.4l-0.4,0.4L250.9,31.8L250.9,31.8z"/>
		</g>
	</g>
	<g>
		<g>
			<path id="SVGID_13_" class="st14" d="M257.6,35.2L257.6,35.2l-1.1-0.4l0.4-1.1l0,0c0,0,0,0,0,0l0,0l0,0c3-0.9,4.7-1.3,5.2-1.5
				C262.1,32.3,260.6,33.3,257.6,35.2L257.6,35.2L257.6,35.2z M257.5,35l0.3-0.7l-0.7-0.3l-0.3,0.7L257.5,35L257.5,35z"/>
		</g>
	</g>
</g>
</svg>
