<?xml version="1.0" encoding="utf-8"?>
<!-- Generator: Adobe Illustrator 22.0.0, SVG Export Plug-In . SVG Version: 6.00 Build 0)  -->
<svg version="1.1" id="svgwrapper_svg" xmlns="http://www.w3.org/2000/svg" xmlns:xlink="http://www.w3.org/1999/xlink" x="0px"
	 y="0px" width="830px" height="373.778px" viewBox="0 0 830 373.778" style="enable-background:new 0 0 830 373.778;"
	 xml:space="preserve">
<rect x="316.667" y="149.432" style="fill:#CEE3FF;" width="200" height="100"/>
<g transform="translate(0 0)">
	<g style="enable-background:new    ;">
		<path style="fill:#444444;" d="M275.961,192.727l-0.588-0.539c0.456-0.888,0.695-2.027,0.708-3.395v-3.682
			c-0.048,0.048-0.084,0.084-0.12,0.132l-0.528-0.636c0.72-0.768,1.308-1.775,1.775-3.022l0.779,0.18
			c-0.096,0.265-0.203,0.528-0.3,0.768h2.135v0.6c-0.264,0.528-0.539,0.983-0.803,1.355h1.438v7.196c0,0.563-0.3,0.852-0.875,0.852
			h-0.684l-0.204-0.72c0.228,0.024,0.443,0.048,0.636,0.048c0.264,0,0.396-0.156,0.396-0.443v-1.667h-1.115v2.71h-0.695v-2.71h-1.14
			C276.668,190.94,276.393,191.936,275.961,192.727z M278.911,183.241h-1.56c-0.239,0.456-0.503,0.863-0.768,1.247h1.56
			C278.396,184.128,278.647,183.709,278.911,183.241z M276.824,188.746c0,0.096-0.012,0.18-0.012,0.275h1.104v-1.57h-1.092V188.746z
			 M276.824,185.232v1.499h1.092v-1.499H276.824z M279.727,185.232h-1.115v1.499h1.115V185.232z M279.727,187.451h-1.115v1.57h1.115
			V187.451z M281.25,189.166l-0.504-0.612c0.527-0.575,0.876-1.331,1.056-2.29l0.72,0.132c-0.072,0.323-0.145,0.623-0.216,0.899
			h1.103v-1.115h0.84v1.115h1.787v0.779h-1.787v1.464h2.039v0.779h-2.039v2.351h-0.84v-2.351h-2.614v-0.779h2.614v-1.464h-1.415
			C281.777,188.494,281.538,188.854,281.25,189.166z M280.89,183.121v-0.768h5.002c0,1.631-0.108,2.603-0.324,2.927
			c-0.216,0.312-0.575,0.479-1.091,0.479c-0.288,0-0.624-0.024-1.008-0.048l-0.204-0.72c0.408,0.024,0.756,0.048,1.031,0.06
			c0.336-0.012,0.54-0.119,0.624-0.323c0.072-0.204,0.12-0.744,0.144-1.607h-1.763c-0.12,0.552-0.3,1.044-0.527,1.463
			c-0.312,0.504-0.78,0.972-1.392,1.38l-0.504-0.66c0.54-0.312,0.947-0.695,1.212-1.127c0.18-0.312,0.312-0.66,0.396-1.056H280.89z"
			/>
		<path style="fill:#444444;" d="M290.216,187.306c-0.576,1.775-1.224,3.442-1.943,5.002l-0.815-0.36
			c0.768-1.607,1.439-3.262,2.003-4.941L290.216,187.306z M290.084,184.788l-0.708,0.492c-0.456-0.84-1.067-1.764-1.847-2.795
			l0.707-0.443C289.04,183.085,289.651,183.997,290.084,184.788z M293.573,183.432v-1.787h0.852v1.787h2.735v3.526h1.067v0.815
			h-3.562c0.768,1.728,2.015,3.106,3.742,4.15l-0.576,0.659c-1.751-1.188-3.01-2.687-3.79-4.497
			c-0.587,2.074-1.822,3.598-3.693,4.569l-0.54-0.708c1.799-0.863,2.95-2.255,3.454-4.174h-2.591v-0.815h2.771
			c0.084-0.552,0.132-1.127,0.132-1.727v-0.972h-2.41v-0.828h2.409L293.573,183.432L293.573,183.432z M294.425,185.04
			c0,0.684-0.048,1.319-0.144,1.919h2.039v-2.698h-1.896v0.779L294.425,185.04L294.425,185.04z"/>
	</g>
</g>
<rect x="61.413" y="96.432" style="opacity:0.6;fill:#BBBBBB;enable-background:new    ;" width="149.587" height="50"/>
<rect x="59" y="94.432" style="fill:#FFFFFF;stroke:#E5E5E5;" width="149.587" height="50"/>
<g transform="translate(20 9)">
	<g style="enable-background:new    ;">
		<path style="fill:#444444;" d="M76.995,104.128v11.136h1.989v-11.136h1.022v11.136h4.202v0.98h-12.41v-0.98h4.174v-11.136H76.995z
			 M74.964,113.162l-0.925,0.238c-0.504-2.241-1.134-4.398-1.891-6.472l0.854-0.28C73.731,108.54,74.39,110.711,74.964,113.162z
			 M83.831,106.929c-0.561,2.438-1.261,4.566-2.115,6.401l-0.911-0.321c0.812-1.653,1.527-3.769,2.129-6.332L83.831,106.929z"/>
		<path style="fill:#444444;" d="M90.841,104.086c-0.154,0.378-0.336,0.728-0.532,1.064h6.107v0.812
			c-0.896,1.036-1.989,1.919-3.278,2.647c1.583,0.672,3.348,1.106,5.295,1.303l-0.462,0.938c-2.213-0.253-4.188-0.812-5.925-1.682
			c-1.709,0.785-3.712,1.359-5.981,1.709l-0.462-0.952c2.031-0.28,3.81-0.729,5.351-1.345c-0.784-0.462-1.513-0.994-2.185-1.583
			c-0.532,0.477-1.106,0.91-1.751,1.303l-0.616-0.812c1.681-0.967,2.83-2.144,3.417-3.544L90.841,104.086z M92.172,110.179
			c0,0.561-0.056,1.093-0.14,1.597h4.931c-0.028,2.367-0.238,3.782-0.644,4.244c-0.406,0.463-1.107,0.701-2.102,0.701
			c-0.448,0-0.994-0.028-1.639-0.057l-0.252-0.91l1.653,0.07c0.84-0.015,1.358-0.196,1.583-0.532
			c0.21-0.337,0.336-1.205,0.378-2.605h-4.146c-0.112,0.364-0.266,0.714-0.448,1.05c-0.714,1.261-2.353,2.312-4.931,3.124
			l-0.672-0.826c2.297-0.673,3.824-1.527,4.553-2.55c0.168-0.252,0.322-0.518,0.434-0.798h-4.174v-0.911h4.455
			c0.112-0.504,0.168-1.036,0.168-1.597H92.172z M94.974,106.103h-5.351l-0.182,0.225c0.784,0.686,1.653,1.274,2.591,1.765
			C93.167,107.531,94.147,106.859,94.974,106.103z"/>
		<path style="fill:#444444;" d="M102.432,109.381l-0.686,0.686c-0.504-0.616-1.191-1.288-2.059-2.003l0.644-0.63
			C101.157,108.092,101.857,108.736,102.432,109.381z M102.698,111.706c-0.561,1.765-1.191,3.432-1.891,4.986l-0.925-0.406
			c0.743-1.597,1.387-3.25,1.933-4.931L102.698,111.706z M102.894,106.131l-0.672,0.658c-0.532-0.631-1.247-1.303-2.171-2.018
			l0.658-0.616C101.577,104.814,102.306,105.473,102.894,106.131z M104.533,109.744c-0.014,2.746-0.561,5.113-1.625,7.088
			l-0.756-0.672c0.952-1.653,1.443-3.796,1.457-6.416v-5.252h7.957v3.067h-7.032v1.135h7.578v0.896h-3.278v1.134h2.941v4.791
			c0,0.742-0.336,1.121-0.995,1.121h-0.953l-0.21-0.827l0.84,0.028c0.28,0,0.42-0.196,0.42-0.588v-3.685h-2.045v5.057h-0.869v-5.057
			h-2.043v4.959h-0.869v-5.8h2.914v-1.134h-3.432V109.744z M104.533,105.36v1.331h6.093v-1.331H104.533z M107.825,115.081
			l-0.476,0.477c-0.294-0.393-0.687-0.798-1.191-1.219l0.477-0.462C107.11,114.269,107.502,114.675,107.825,115.081z
			 M107.881,113.177l-0.477,0.476c-0.308-0.364-0.714-0.771-1.232-1.19l0.476-0.462
			C107.125,112.392,107.544,112.784,107.881,113.177z M110.64,114.871l-0.476,0.477c-0.28-0.364-0.672-0.742-1.148-1.135
			l0.476-0.462C109.954,114.115,110.332,114.493,110.64,114.871z M110.767,113.12l-0.477,0.477
			c-0.308-0.351-0.714-0.729-1.247-1.121l0.476-0.462C110.01,112.378,110.43,112.742,110.767,113.12z"/>
		<path style="fill:#444444;" d="M116.712,109.534l-0.687,0.687c-0.56-0.645-1.345-1.331-2.339-2.059l0.7-0.659
			C115.311,108.176,116.082,108.848,116.712,109.534z M116.95,111.678c-0.687,1.765-1.443,3.432-2.283,5.001l-0.953-0.406
			c0.896-1.611,1.681-3.264,2.354-4.945L116.95,111.678z M117.006,106.187l-0.687,0.687c-0.588-0.631-1.401-1.303-2.423-2.018
			l0.7-0.658C115.549,104.856,116.362,105.515,117.006,106.187z M122.679,116.748l-0.252-0.994l1.653,0.042
			c0.504,0,0.771-0.183,0.771-0.546v-9.764h-6.346v11.304h-0.98v-12.242h8.307v10.926c0,0.841-0.477,1.274-1.401,1.274
			C124.431,116.748,122.679,116.748,122.679,116.748z M124.066,107.027v0.91h-4.665v-0.91H124.066z M123.66,109.353v4.706h-3.894
			v-4.706H123.66z M122.763,110.234h-2.087v2.956h2.087V110.234z"/>
		<path style="fill:#444444;" d="M129.339,108.231v-3.866h9.371v3.866h-2.241v0.812h3.109v0.784h-3.109v0.883h3.782v0.854h-3.432
			c0.784,0.784,1.989,1.415,3.6,1.877l-0.42,0.868c-1.093-0.378-1.989-0.826-2.717-1.33c-0.462,0.364-0.981,0.7-1.569,0.98
			l-0.504-0.658c0.532-0.252,0.995-0.547,1.387-0.869c-0.308-0.279-0.574-0.574-0.798-0.868h-3.418
			c-0.266,0.322-0.561,0.631-0.882,0.91c0.462,0.28,0.868,0.575,1.232,0.869l-0.574,0.574c-0.336-0.309-0.785-0.631-1.317-0.952
			c-0.756,0.504-1.653,0.952-2.703,1.344l-0.519-0.854c1.639-0.505,2.857-1.135,3.656-1.892h-3.516v-0.854h3.81v-0.883h-3.138
			v-0.784h3.138v-0.812L129.339,108.231C129.339,108.23,129.339,108.231,129.339,108.231z M132.911,114.871
			c-1.121,0.631-2.521,1.205-4.188,1.709l-0.378-0.882c1.681-0.421,3.138-0.953,4.356-1.583L132.911,114.871z M137.73,105.948
			v-0.812h-7.41v0.812H137.73z M137.73,106.648h-7.41v0.827h7.41C137.73,107.475,137.73,106.648,137.73,106.648z M131.917,116.79
			l-0.196-0.868c0.504,0.042,0.98,0.07,1.429,0.07c0.308,0,0.462-0.141,0.462-0.406v-3.488h0.981v3.712
			c0,0.645-0.378,0.98-1.135,0.98C133.458,116.79,131.917,116.79,131.917,116.79z M135.502,109.044v-0.812h-2.969v0.812H135.502z
			 M135.502,110.711v-0.883h-2.969v0.883H135.502z M139.789,115.95l-0.532,0.812c-1.331-0.771-2.704-1.373-4.104-1.793l0.462-0.687
			C137.127,114.745,138.528,115.306,139.789,115.95z"/>
		<path style="fill:#444444;" d="M146.855,109.689v2.802h-1.387v0.994h1.513v0.757h-1.513v1.177
			c0.645-0.112,1.247-0.238,1.835-0.364v0.798c-1.485,0.337-3.222,0.658-5.21,0.953l-0.238-0.841
			c0.266-0.042,0.532-0.07,0.784-0.098v-2.746h0.812v2.634c0.393-0.056,0.771-0.126,1.149-0.183v-3.081h-2.017v-2.802
			L146.855,109.689L146.855,109.689z M153.453,104.254v0.784h-4.973v0.91h5.421v2.382h-0.938v-1.625h-4.482v2.507h-0.953v-2.507
			h-4.482v1.625h-0.938v-2.382h5.421v-0.91h-4.986v-0.784H153.453z M146,110.417h-2.577v1.331H146V110.417z M146.813,108.399v0.561
			h-2.998v-0.561H146.813z M146.827,107.266v0.56h-2.998v-0.56H146.827z M150.469,109.366c-0.112,0.21-0.224,0.406-0.336,0.589
			h3.292v0.574c-0.42,0.645-1.022,1.204-1.807,1.709c0.84,0.336,1.821,0.602,2.942,0.798l-0.504,0.715
			c-1.275-0.252-2.367-0.589-3.278-1.037c-0.911,0.463-2.003,0.854-3.264,1.191l-0.546-0.701c1.148-0.28,2.157-0.588,2.998-0.952
			c-0.448-0.294-0.84-0.616-1.177-0.967c-0.336,0.238-0.714,0.463-1.106,0.673l-0.519-0.7c1.247-0.561,2.087-1.261,2.536-2.088
			L150.469,109.366z M153.327,116.86h-0.882v-0.462h-3.25v0.462h-0.896v-3.151h5.029v3.151H153.327z M152.164,107.266v0.56h-2.983
			v-0.56H152.164z M152.192,108.399v0.561h-3.011v-0.561H152.192z M152.444,115.656v-1.219h-3.25v1.219H152.444z M150.792,111.859
			c0.672-0.378,1.218-0.784,1.625-1.219h-2.857c-0.07,0.057-0.14,0.127-0.196,0.183
			C149.755,111.216,150.231,111.552,150.792,111.859z"/>
	</g>
</g>
<g>
	<rect x="60.81" y="176.432" style="opacity:0.6;fill:#BBBBBB;enable-background:new    ;" width="150.19" height="50"/>
	<rect x="59" y="174.432" style="fill:#FFFFFF;stroke:#E5E5E5;" width="150.19" height="50"/>
	<g transform="translate(20 9)">
		<g style="enable-background:new    ;">
			<path style="fill:#444444;" d="M64.019,184.534v4.832h-4.511v1.121h4.749v0.896h-4.749v1.177h5.561v0.91h-12.13v-0.91H58.5
				v-1.177h-4.749v-0.896H58.5v-1.121h-4.497v-4.832H64.019z M55.264,194.283c-0.364,0.98-0.812,1.82-1.373,2.549l-0.925-0.322
				c0.533-0.644,1.009-1.471,1.415-2.465L55.264,194.283z M58.542,185.416H54.97v3.096h3.572V185.416z M57.603,187.867l-0.827,0.225
				c-0.252-0.673-0.56-1.331-0.924-1.961l0.812-0.267C57.015,186.453,57.323,187.111,57.603,187.867z M58.416,196.664l-0.98,0.225
				c-0.238-0.953-0.532-1.793-0.896-2.508l0.896-0.196C57.799,194.941,58.121,195.768,58.416,196.664z M63.052,185.416h-3.586v3.096
				h3.586V185.416z M61.511,196.608l-0.967,0.224c-0.28-0.952-0.616-1.793-1.008-2.521l0.896-0.195
				C60.853,194.886,61.203,195.712,61.511,196.608z M62.085,186.019c-0.252,0.784-0.574,1.471-0.966,2.06l-0.812-0.295
				c0.364-0.532,0.672-1.19,0.938-1.988L62.085,186.019z M65.013,196.272l-0.798,0.56c-0.42-0.7-1.009-1.498-1.737-2.367
				l0.756-0.476C64.019,194.857,64.607,195.628,65.013,196.272z"/>
			<path style="fill:#444444;" d="M72.219,186.453c-0.21,0.322-0.42,0.63-0.644,0.924h5.168v0.812
				c-0.574,0.799-1.4,1.499-2.479,2.115c1.527,0.603,3.235,0.967,5.126,1.106l-0.224,0.911c-2.241-0.168-4.216-0.658-5.953-1.499
				c-1.653,0.756-3.74,1.345-6.261,1.779l-0.378-0.896c2.255-0.364,4.132-0.827,5.617-1.415c-0.714-0.42-1.373-0.896-1.975-1.429
				c-0.546,0.49-1.135,0.924-1.751,1.316l-0.645-0.784c1.387-0.799,2.521-1.85,3.418-3.152L72.219,186.453z M78.691,187.686h-1.022
				v-1.737H68.34v1.737h-1.022v-2.647h5.126c-0.168-0.364-0.336-0.687-0.518-0.98l1.106-0.168c0.168,0.336,0.322,0.729,0.49,1.148
				h5.169C78.691,185.039,78.691,187.686,78.691,187.686z M77.122,196.874h-0.98v-0.602h-6.023v0.602h-0.98v-4.384h7.984
				L77.122,196.874L77.122,196.874z M76.142,195.361V193.4h-6.023v1.961H76.142z M75.539,188.231h-4.692l-0.042,0.042
				c0.742,0.616,1.555,1.135,2.423,1.569C74.194,189.366,74.965,188.82,75.539,188.231z"/>
			<path style="fill:#444444;" d="M84.076,184.52l0.84-0.532c1.247,0.868,2.297,2.451,3.166,4.721
				c1.316,3.348,3.067,5.715,5.281,7.102l-0.63,0.812c-2.269-1.372-4.118-3.922-5.561-7.62c-0.084-0.224-0.154-0.42-0.224-0.588
				c-0.924,3.571-2.857,6.317-5.799,8.223l-0.602-0.854c2.998-1.962,4.945-4.819,5.841-8.545
				C85.743,186.061,84.973,185.164,84.076,184.52z"/>
			<path style="fill:#444444;" d="M94.798,190.768l-0.322-1.079c1.317-1.681,2.283-3.6,2.9-5.785l0.938,0.448
				c-0.336,1.121-0.771,2.186-1.289,3.18v9.329h-0.994v-7.69C95.653,189.73,95.247,190.263,94.798,190.768z M106.957,192.112h-0.953
				v-1.472h-6.877v1.093h6.653v0.799c-0.49,0.868-1.219,1.625-2.185,2.27c1.037,0.476,2.283,0.868,3.726,1.19l-0.532,0.826
				c-1.653-0.406-3.012-0.896-4.09-1.471c-1.177,0.616-2.605,1.12-4.314,1.513l-0.364-0.883c1.457-0.308,2.718-0.7,3.754-1.176
				c-0.981-0.659-1.681-1.401-2.115-2.214h-0.546v-0.504H98.19v-2.298h8.769v2.327L106.957,192.112L106.957,192.112z
				 M99.015,188.918v-0.826h6.051v-0.995h-5.645v-0.812h5.645v-0.995H99v-0.812h6.99v4.44L99.015,188.918L99.015,188.918z
				 M102.671,194.339c0.854-0.504,1.526-1.093,2.017-1.751h-4.062C101.102,193.232,101.774,193.82,102.671,194.339z"/>
			<path style="fill:#444444;" d="M109.751,185.599v-0.995h8.349v0.658c-0.266,1.219-0.532,2.27-0.785,3.152h2.83v0.588
				c-0.406,1.905-1.289,3.53-2.647,4.847c1.064,0.784,2.312,1.499,3.74,2.115l-0.659,0.896c-1.513-0.687-2.801-1.457-3.866-2.325
				c-1.233,0.98-2.76,1.765-4.566,2.381l-0.588-0.938c1.737-0.588,3.18-1.303,4.328-2.157c-1.303-1.232-2.269-2.604-2.899-4.146
				c-0.462,3.109-1.667,5.49-3.6,7.115l-0.771-0.687c2.325-1.919,3.502-4.986,3.544-9.217v-1.288L109.751,185.599L109.751,185.599z
				 M119.094,189.324h-3.04c0.28-0.84,0.603-2.073,0.938-3.726h-3.796v1.288c0,0.225-0.014,0.435-0.014,0.658
				c0.504,2.186,1.653,4.062,3.474,5.632C117.861,192.07,118.674,190.781,119.094,189.324z"/>
			<path style="fill:#444444;" d="M126.258,190.599c-0.098,0.267-0.196,0.519-0.28,0.771h2.914v0.854
				c-0.308,0.925-0.812,1.709-1.527,2.382c0.659,0.28,1.289,0.588,1.891,0.924l-0.546,0.812c-0.616-0.364-1.316-0.729-2.129-1.092
				c-0.938,0.644-2.101,1.162-3.502,1.555l-0.49-0.869c1.148-0.308,2.129-0.686,2.941-1.148c-0.616-0.252-1.261-0.519-1.947-0.784
				c0.364-0.603,0.686-1.177,0.952-1.723h-1.639v-0.911h2.059c0.112-0.308,0.224-0.602,0.322-0.882L126.258,190.599z
				 M125.67,186.677v-2.675h0.938v2.675h2.549v0.883h-2.549v0.154c0.756,0.378,1.541,0.812,2.325,1.288l-0.518,0.784
				c-0.701-0.56-1.303-1.008-1.807-1.345v1.821h-0.938v-2.661c-0.462,1.106-1.303,2.059-2.507,2.871l-0.49-0.812
				c1.079-0.63,1.835-1.33,2.255-2.101h-1.989v-0.883L125.67,186.677L125.67,186.677z M124.899,186.019l-0.784,0.364
				c-0.294-0.687-0.616-1.289-0.953-1.807l0.84-0.28C124.339,184.828,124.647,185.402,124.899,186.019z M127.939,192.28h-2.368
				c-0.224,0.462-0.476,0.91-0.756,1.33c0.532,0.183,1.064,0.379,1.583,0.589C127.085,193.639,127.603,193.009,127.939,192.28z
				 M129.032,184.59c-0.28,0.616-0.63,1.219-1.079,1.821l-0.756-0.406c0.434-0.616,0.785-1.219,1.037-1.808L129.032,184.59z
				 M130.544,189.353c-0.252,0.645-0.532,1.219-0.826,1.723l-0.63-0.771c0.826-1.568,1.387-3.684,1.667-6.346l0.98,0.169
				c-0.084,0.714-0.196,1.387-0.308,2.003h3.698v0.966h-0.91c-0.056,2.34-0.477,4.343-1.247,5.996
				c0.729,1.218,1.583,2.171,2.592,2.843l-0.575,0.854c-0.98-0.687-1.807-1.61-2.507-2.759c-0.686,1.12-1.555,2.059-2.605,2.815
				l-0.532-0.854c1.093-0.757,1.961-1.737,2.591-2.928C131.385,191.972,130.923,190.739,130.544,189.353z M131.021,187.84
				c0.35,1.597,0.812,2.997,1.373,4.188c0.546-1.429,0.84-3.067,0.896-4.931h-2.073C131.147,187.35,131.077,187.602,131.021,187.84z
				"/>
			<path style="fill:#444444;" d="M137.106,196.706l-0.21-0.952c0.364,0.042,0.729,0.07,1.064,0.07c0.35,0,0.532-0.211,0.532-0.617
				v-3.417c-0.56,0.21-1.106,0.406-1.653,0.574l-0.252-0.98c0.644-0.154,1.289-0.351,1.905-0.574v-3.166h-1.681v-0.967h1.681v-2.647
				h0.98v2.647h1.345v0.967h-1.345v2.76c0.448-0.196,0.883-0.406,1.303-0.631v0.995c-0.434,0.224-0.868,0.42-1.303,0.616v4.076
				c0,0.826-0.392,1.246-1.176,1.246H137.106z M140.847,196.832l-0.785-0.7c0.995-1.849,1.499-4.258,1.513-7.2v-4.384h7.382v3.403
				h-2.633v1.653h2.998v0.91h-2.998v1.724h2.353v4.594h-0.938v-0.686h-3.796v0.686h-0.938v-4.594h2.339v-1.724h-2.858
				C142.317,192.91,141.771,195.012,140.847,196.832z M142.556,187.951v0.98c0,0.225-0.014,0.449-0.014,0.673h2.802v-1.653H142.556z
				 M142.556,185.486v1.555h5.421v-1.555H142.556z M147.738,195.25v-2.115h-3.796v2.115H147.738z"/>
			<path style="fill:#444444;" d="M156.388,191.733l-2.956,0.532v2.438c0.812-0.336,1.639-0.756,2.479-1.232l0.238,0.854
				c-1.022,0.616-2.283,1.177-3.782,1.681l-0.266-0.883c0.224-0.153,0.35-0.392,0.35-0.728v-1.962l-1.625,0.295l-0.154-0.925
				l1.779-0.322v-1.471h0.98v1.303l2.802-0.504L156.388,191.733z M162.789,187.882h-1.022v-1.667h-9.54v1.681h-1.022v-2.605h5.183
				c-0.182-0.448-0.378-0.854-0.603-1.219l1.008-0.168c0.21,0.42,0.406,0.883,0.603,1.387h5.393V187.882z M156.374,187.434
				c-1.205,0.896-2.731,1.652-4.553,2.255l-0.42-0.868c1.779-0.532,3.236-1.219,4.384-2.06L156.374,187.434z M157.004,191.047
				v-0.938h5.351c0,2.731-0.07,4.427-0.196,5.071c-0.126,0.98-0.687,1.484-1.695,1.484c-0.28,0-0.757-0.027-1.443-0.056
				l-0.238-0.868c0.588,0.027,1.106,0.042,1.555,0.042c0.49,0,0.771-0.322,0.854-0.967c0.098-0.42,0.154-1.667,0.182-3.769h-2.017
				c-0.028,0.337-0.056,0.757-0.098,1.289c-0.084,0.91-0.42,1.737-0.98,2.479c-0.574,0.729-1.387,1.387-2.423,2.003l-0.7-0.645
				c1.261-0.742,2.087-1.429,2.493-2.059c0.406-0.631,0.645-1.345,0.701-2.13c0.028-0.392,0.042-0.7,0.056-0.938h-1.402V191.047z
				 M162.145,188.82l-0.504,0.771c-1.289-0.911-2.619-1.625-3.978-2.144l0.476-0.714C159.595,187.308,160.94,188.008,162.145,188.82
				z"/>
			<path style="fill:#444444;" d="M171.494,184.534v0.952h-1.135v7.844c0.448-0.111,0.896-0.224,1.331-0.336v0.995
				c-0.448,0.111-0.896,0.224-1.331,0.336v2.563h-0.98v-2.34c-1.429,0.309-2.928,0.589-4.468,0.827l-0.238-0.995
				c0.392-0.056,0.785-0.098,1.177-0.154v-8.74h-1.079v-0.952L171.494,184.534L171.494,184.534z M169.379,187.672v-2.186h-2.549
				v2.186H169.379z M169.379,190.739v-2.144h-2.549v2.144H169.379z M169.379,193.568v-1.919h-2.549v2.424
				C167.698,193.919,168.552,193.751,169.379,193.568z M172.026,186.271h-0.476v-0.98h5.336v0.925
				c-0.308,2.605-0.952,4.832-1.905,6.667c0.672,1.149,1.513,2.214,2.507,3.18l-0.672,0.771c-0.938-0.952-1.723-1.961-2.367-3.025
				c-0.756,1.205-1.667,2.228-2.717,3.054l-0.687-0.784c1.148-0.911,2.087-2.003,2.843-3.278
				C172.839,190.81,172.223,188.638,172.026,186.271z M172.951,186.271c0.168,2.018,0.645,3.866,1.457,5.547
				c0.756-1.61,1.274-3.46,1.527-5.547H172.951z"/>
		</g>
	</g>
</g>
<g>
	<rect x="60.943" y="257.432" style="opacity:0.6;fill:#BBBBBB;enable-background:new    ;" width="147.645" height="50"/>
	<rect x="59" y="255.432" style="fill:#FFFFFF;stroke:#E5E5E5;" width="147.645" height="50"/>
	<g transform="translate(20 9)">
		<g style="enable-background:new    ;">
			<path style="fill:#444444;" d="M68.931,277.748l-0.266-0.98l1.345,0.042c0.393,0,0.588-0.196,0.588-0.574v-9.707h-9.189v11.276
				h-0.995v-12.243h11.178v10.898c0,0.854-0.42,1.288-1.247,1.288L68.931,277.748L68.931,277.748z M64.267,272.636
				c-0.504,1.373-1.12,2.549-1.835,3.529l-0.644-0.784c0.729-1.036,1.331-2.269,1.807-3.684c-0.673-0.896-1.331-1.709-1.975-2.451
				l0.63-0.603c0.518,0.546,1.078,1.204,1.667,1.989c0.266-0.98,0.49-2.045,0.659-3.166l0.924,0.168
				c-0.224,1.443-0.518,2.76-0.882,3.95c0.532,0.729,1.092,1.527,1.653,2.396l-0.672,0.672
				C65.149,273.939,64.701,273.266,64.267,272.636z M68.287,272.972c-0.561,1.373-1.219,2.55-1.975,3.53l-0.645-0.771
				c0.785-1.064,1.443-2.312,1.961-3.74c-0.645-0.952-1.275-1.821-1.919-2.605l0.63-0.603c0.504,0.574,1.064,1.275,1.653,2.115
				c0.308-1.051,0.546-2.185,0.743-3.39l0.953,0.168c-0.252,1.555-0.588,2.956-1.009,4.217c0.532,0.812,1.106,1.723,1.709,2.731
				l-0.687,0.672C69.226,274.471,68.749,273.7,68.287,272.972z"/>
			<path style="fill:#444444;" d="M79.065,275.731c-1.597,0.462-3.306,0.84-5.141,1.148l-0.238-0.967
				c1.037-0.14,2.045-0.322,3.04-0.546c0.448-1.989,0.756-4.104,0.953-6.346l0.98,0.141c-0.224,2.157-0.546,4.146-0.995,5.98
				c0.476-0.126,0.938-0.252,1.401-0.392C79.065,274.749,79.065,275.731,79.065,275.731z M76.054,267.313
				c-0.168-0.756-0.378-1.442-0.603-2.059l1.022-0.168c0.196,0.644,0.378,1.387,0.546,2.227h2.27v0.98h-5.505v-0.98H76.054z
				 M75.97,274.736l-0.841,0.211c-0.252-1.92-0.574-3.769-0.952-5.533l0.882-0.28C75.396,270.759,75.704,272.636,75.97,274.736z
				 M82.763,264.974v2.465h3.516v0.98h-3.516v2.731h2.83v6.598h-0.98v-0.924h-3.95v0.938h-0.966v-6.612h2.031v-6.177h1.035V264.974z
				 M84.612,275.886v-3.853h-3.95v3.853H84.612z"/>
			<path style="fill:#444444;" d="M87.882,273.882l-0.294-1.008c1.569-1.64,2.605-3.222,3.124-4.763h-2.857v-0.925h1.695
				c-0.224-0.672-0.476-1.331-0.756-1.947l0.966-0.266c0.309,0.729,0.546,1.4,0.714,2.003l-0.532,0.21h1.723v0.826
				c-0.294,1.009-0.756,2.004-1.401,2.984v0.084c0.182,0.168,0.364,0.322,0.532,0.49c0.336-0.28,0.659-0.7,0.953-1.233l0.574,0.575
				c-0.308,0.504-0.644,0.91-1.008,1.204c0.322,0.351,0.616,0.715,0.896,1.093l-0.546,0.826c-0.462-0.742-0.924-1.387-1.401-1.919
				v5.729h-0.98v-5.505C88.863,272.859,88.387,273.378,87.882,273.882z M96.889,264.987v1.695h3.096v0.49
				c-0.126,0.812-0.322,1.61-0.588,2.396l-0.91-0.253c0.182-0.504,0.35-1.078,0.49-1.694H96.89v2.871h2.438v0.869
				c-0.336,1.471-0.924,2.717-1.793,3.739c0.798,0.701,1.779,1.303,2.956,1.821l-0.546,0.883c-1.205-0.589-2.227-1.261-3.04-2.018
				c-0.896,0.841-1.989,1.527-3.278,2.045l-0.504-0.896c1.219-0.476,2.241-1.092,3.068-1.849c-0.98-1.078-1.639-2.297-1.975-3.67
				h-0.504v0.154c-0.014,2.423-0.56,4.496-1.639,6.205l-0.827-0.715c0.953-1.429,1.457-3.249,1.499-5.463v-4.916h3.138v-1.695h1.006
				C96.889,264.986,96.889,264.987,96.889,264.987z M93.709,267.621v2.871h2.171v-2.871H93.709z M98.374,271.417h-3.25
				c0.308,1.12,0.882,2.115,1.695,2.997C97.534,273.546,98.052,272.552,98.374,271.417z"/>
			<path style="fill:#444444;" d="M112.5,267.887v4.595h-5.323c-0.098,0.252-0.21,0.49-0.35,0.715h7.368v0.84h-3.11
				c0.742,0.631,1.849,1.135,3.306,1.499l-0.378,0.826c-1.849-0.602-3.166-1.372-3.964-2.325h-3.866
				c-0.924,0.98-2.325,1.808-4.202,2.451l-0.434-0.84c1.457-0.448,2.591-0.995,3.375-1.611h-3.109v-0.84h3.95
				c0.168-0.238,0.308-0.477,0.42-0.715h-2.619v-4.595L112.5,267.887L112.5,267.887z M102.485,268.139l-0.84-0.532
				c0.952-0.826,1.653-1.736,2.087-2.717l0.967,0.21c-0.112,0.252-0.238,0.504-0.378,0.756h3.474v0.841h-1.625
				c0.168,0.294,0.336,0.603,0.476,0.938l-0.938,0.084c-0.14-0.378-0.308-0.714-0.49-1.022h-1.429
				C103.396,267.229,102.961,267.705,102.485,268.139z M112.276,277.384l-0.784,0.547c-0.224-0.28-0.448-0.561-0.7-0.827
				c-2.129,0.253-4.329,0.421-6.57,0.505l-0.266-0.757c1.261-0.504,2.297-1.303,3.138-2.367l0.911,0.252
				c-0.63,0.812-1.359,1.499-2.171,2.046c1.457-0.084,2.886-0.211,4.287-0.379c-0.378-0.392-0.785-0.771-1.205-1.162l0.729-0.463
				C110.792,275.773,111.66,276.642,112.276,277.384z M111.52,269.246v-0.687h-6.976v0.687H111.52z M111.52,270.507v-0.645h-6.976
				v0.645H111.52z M111.52,271.123h-6.976v0.687h6.976V271.123z M108.69,267.873l-0.826-0.519c0.7-0.742,1.205-1.568,1.527-2.465
				l0.953,0.196c-0.098,0.279-0.196,0.532-0.309,0.77h4.188v0.841h-2.087c0.182,0.294,0.35,0.603,0.518,0.938l-0.953,0.084
				c-0.168-0.392-0.35-0.729-0.546-1.022h-1.583C109.307,267.116,109.012,267.509,108.69,267.873z"/>
			<path style="fill:#444444;" d="M121.107,274.19l0.154,0.925c-1.471,0.7-3.109,1.358-4.917,1.946l-0.294-0.868
				c0.294-0.112,0.448-0.35,0.448-0.714v-5.211h3.138v-3.32h-3.838v-0.966h4.819v5.21h-3.138v4.482
				C118.656,275.283,119.875,274.793,121.107,274.19z M125.379,274.12c0.883,1.233,1.933,2.199,3.166,2.899l-0.574,0.841
				c-1.233-0.7-2.297-1.667-3.18-2.899c-0.925,1.19-2.157,2.143-3.67,2.857l-0.63-0.826c1.583-0.7,2.829-1.653,3.74-2.886
				c-0.7-1.135-1.289-2.451-1.751-3.95c-0.28,0.532-0.574,1.009-0.896,1.429l-0.616-0.784c1.022-1.429,1.709-3.376,2.073-5.827
				l0.98,0.168c-0.112,0.687-0.252,1.331-0.392,1.919h4.468v0.967h-1.093C126.948,270.45,126.402,272.481,125.379,274.12z
				 M123.012,268.966c0.448,1.625,1.051,3.054,1.779,4.258c0.798-1.442,1.218-3.18,1.247-5.196h-2.689
				C123.236,268.363,123.125,268.672,123.012,268.966z"/>
			<path style="fill:#444444;" d="M138.777,276.432c-0.196-0.267-0.364-0.546-0.504-0.841c-0.784,0.953-1.653,1.709-2.591,2.27
				l-0.546-0.868c0.995-0.603,1.891-1.415,2.675-2.451c-0.196-0.532-0.35-1.107-0.49-1.724c-0.322-1.429-0.49-3.109-0.504-5.042
				h-7.046v-0.98h7.046v-1.793h1.008v1.793h2.059c-0.238-0.505-0.504-0.981-0.784-1.401l1.022-0.168
				c0.252,0.462,0.504,0.98,0.742,1.569h1.359v0.98h-4.384c0.028,1.709,0.154,3.222,0.392,4.538c0.084,0.435,0.168,0.841,0.28,1.219
				c0.784-1.289,1.443-2.815,1.975-4.581l0.882,0.477c-0.658,2.115-1.471,3.88-2.451,5.309c0.14,0.322,0.28,0.617,0.434,0.869
				c0.49,0.729,0.924,1.093,1.317,1.093c0.336,0,0.63-0.799,0.868-2.396l0.869,0.574c-0.378,1.933-0.924,2.913-1.625,2.913
				C140.08,277.776,139.422,277.328,138.777,276.432z M136.06,275.297c-1.863,0.505-3.88,0.938-6.037,1.289l-0.252-0.995
				c2.185-0.28,4.272-0.7,6.289-1.274V275.297z M135.625,269.246v4.271h-5.141v-4.271H135.625z M134.631,270.185h-3.138v2.423h3.138
				V270.185z"/>
			<path style="fill:#444444;" d="M146.488,277.805h-0.98v-6.934c-0.406,1.274-0.924,2.437-1.541,3.474l-0.434-1.093
				c0.911-1.331,1.569-2.844,1.961-4.553h-1.695v-0.966h1.709v-2.746h0.98v2.746h1.429v0.966h-1.429v1.037
				c0.561,0.7,1.121,1.484,1.709,2.353l-0.56,0.841c-0.435-0.826-0.812-1.513-1.149-2.059L146.488,277.805L146.488,277.805z
				 M151.643,266.22c0.042-0.434,0.07-0.868,0.098-1.303l0.995,0.141l-0.084,1.162h3.488v0.925h-3.586
				c-0.056,0.448-0.112,0.868-0.168,1.289h2.83v8.04h1.205v0.952h-8.769v-0.952h1.415v-8.04h2.339
				c0.056-0.435,0.112-0.869,0.154-1.289h-3.404v-0.925L151.643,266.22L151.643,266.22z M154.234,270.492v-1.162h-4.188v1.162
				H154.234z M154.234,272.439v-1.12h-4.188v1.12H154.234z M154.234,274.4v-1.148h-4.188v1.148H154.234z M154.234,276.474v-1.247
				h-4.188v1.247H154.234z"/>
			<path style="fill:#444444;" d="M161.076,265.52l0.84-0.532c1.247,0.868,2.297,2.451,3.166,4.721
				c1.316,3.348,3.067,5.715,5.281,7.102l-0.63,0.812c-2.269-1.372-4.118-3.922-5.561-7.62c-0.084-0.224-0.154-0.42-0.224-0.588
				c-0.924,3.571-2.857,6.317-5.799,8.223l-0.602-0.854c2.998-1.962,4.945-4.819,5.841-8.545
				C162.743,267.061,161.973,266.164,161.076,265.52z"/>
		</g>
	</g>
</g>
<path style="fill:none;stroke:#888888;" d="M605.036,279.432h-26v-89"/>
<path style="fill:none;stroke:#888888;" d="M605.036,121.432h-26v89"/>
<path style="fill:none;stroke:#888888;" d="M498.036,200.432h111"/>
<g transform="translate(0.5, 0)">
	<polygon style="fill:#888888;" points="604.036,204.932 610.036,200.432 604.036,195.932 	"/>
</g>
<g id="RectEndPoint15" transform="translate(608.8203125,177)">
	<rect x="11" y="-80.568" style="opacity:0.6;fill:#BBBBBB;enable-background:new    ;" width="146.641" height="50"/>
	<rect x="9" y="-82.568" style="fill:#FFFFFF;stroke:#E5E5E5;" width="146.641" height="50"/>
	<g transform="translate(20 9)">
		<g style="enable-background:new    ;">
			<path style="fill:#444444;" d="M14.477-71.569c0.925,0,1.668,0.224,2.213,0.672c0.533,0.448,0.799,1.064,0.799,1.849
				c0,0.561-0.154,1.051-0.447,1.457c-0.309,0.364-0.715,0.631-1.219,0.799c0.658,0.112,1.162,0.392,1.526,0.812
				s0.56,0.952,0.56,1.625c0,0.98-0.35,1.709-1.036,2.185c-0.588,0.393-1.4,0.603-2.423,0.603h-4.44v-10.001L14.477-71.569
				C14.477-71.568,14.477-71.569,14.477-71.569z M11.157-67.199h3.04c0.699,0,1.232-0.154,1.596-0.435
				c0.365-0.294,0.561-0.729,0.561-1.303c0-0.561-0.182-0.98-0.546-1.261c-0.364-0.281-0.896-0.406-1.597-0.406h-3.054
				C11.157-70.604,11.157-67.199,11.157-67.199z M11.157-62.535h3.194c0.699,0,1.246-0.14,1.666-0.392
				c0.49-0.309,0.742-0.799,0.742-1.443s-0.224-1.12-0.645-1.429c-0.406-0.308-0.994-0.448-1.764-0.448h-3.194L11.157-62.535
				L11.157-62.535z"/>
			<path style="fill:#444444;" d="M25.174-67.886c0.616,0.714,0.924,1.61,0.924,2.703c0,1.079-0.308,1.976-0.91,2.676
				c-0.658,0.757-1.527,1.135-2.605,1.135c-1.092,0-1.947-0.378-2.592-1.135c-0.615-0.7-0.924-1.597-0.924-2.676
				c0-1.093,0.309-1.989,0.924-2.703c0.645-0.757,1.5-1.121,2.592-1.121C23.66-69.007,24.529-68.643,25.174-67.886z M20.789-67.186
				c-0.393,0.532-0.574,1.19-0.574,2.003c0,0.799,0.182,1.457,0.574,1.989c0.42,0.589,1.023,0.883,1.793,0.883
				c0.757,0,1.359-0.294,1.807-0.883c0.379-0.532,0.574-1.204,0.574-1.989c0-0.812-0.195-1.471-0.574-2.003
				c-0.447-0.588-1.05-0.883-1.807-0.883C21.812-68.068,21.209-67.773,20.789-67.186z"/>
			<path style="fill:#444444;" d="M29.483-68.811h1.793v0.938h-1.793v4.608c0,0.267,0.042,0.463,0.153,0.574
				c0.099,0.112,0.281,0.183,0.533,0.183h0.924v0.938h-1.092c-0.589,0-1.023-0.154-1.275-0.462c-0.238-0.28-0.35-0.687-0.35-1.233
				v-4.608H26.92v-0.938h1.457v-1.877l1.106-0.462C29.483-71.15,29.483-68.811,29.483-68.811z"/>
			<path style="fill:#444444;" d="M34.789-64.706c-0.392,1.499-0.938,2.787-1.639,3.88l-0.854-0.546
				c0.699-1.064,1.218-2.241,1.54-3.53L34.789-64.706z M44.385-72.424v0.924h-3.852v4.482h4.314v0.953H32.465v-0.953h4.328V-71.5
				h-3.866v-0.924H44.385z M35.896-67.97l-0.869,0.224c-0.308-0.938-0.686-1.849-1.162-2.717l0.84-0.267
				C35.154-69.917,35.546-69.007,35.896-67.97z M37.186-60.378c-0.869,0-1.303-0.434-1.303-1.303v-3.348h1.008v3.138
				c0,0.364,0.196,0.547,0.603,0.547h2.97c0.266,0,0.447-0.085,0.546-0.238c0.14-0.183,0.238-0.715,0.294-1.598l0.953,0.309
				c-0.084,1.177-0.267,1.905-0.519,2.157c-0.238,0.224-0.603,0.336-1.093,0.336H37.186z M39.566-67.018V-71.5H37.76v4.482H39.566z
				 M40.112-62.941l-0.854,0.393c-0.364-0.98-0.756-1.849-1.205-2.605l0.883-0.294C39.384-64.664,39.776-63.823,40.112-62.941z
				 M43.461-70.52c-0.309,1.064-0.715,2.004-1.191,2.815l-0.84-0.294c0.447-0.729,0.84-1.639,1.176-2.745L43.461-70.52z
				 M44.917-61.484l-0.911,0.406c-0.56-1.415-1.176-2.661-1.848-3.754l0.966-0.309C43.811-64.006,44.412-62.787,44.917-61.484z"/>
			<path style="fill:#444444;" d="M48.594-63.474c-0.336,1.121-0.785,2.087-1.373,2.899l-0.869-0.546
				c0.575-0.771,0.995-1.625,1.262-2.55L48.594-63.474z M47.234-71.29v-0.868h4.818c-0.14-0.308-0.279-0.588-0.42-0.84l1.079-0.169
				c0.14,0.295,0.294,0.631,0.435,1.009h4.93v0.868h-2.283l-0.546,1.107h3.487v0.882H46.576v-0.882h3.361L49.49-71.29H47.234z
				 M57.139-68.474v4.146h-8.965v-4.146H57.139z M56.158-66.779v-0.896h-7.004v0.896H56.158z M56.158-66.037h-7.004v0.925h7.004
				V-66.037z M51.156-60.392c-0.952,0-1.414-0.435-1.414-1.303v-1.849h1.037v1.639c0,0.392,0.224,0.603,0.672,0.603h2.941
				c0.309,0,0.518-0.057,0.631-0.169c0.168-0.14,0.279-0.574,0.336-1.274l0.952,0.309c-0.099,0.966-0.294,1.555-0.574,1.778
				c-0.252,0.168-0.63,0.267-1.163,0.267L51.156-60.392L51.156-60.392z M54.196-70.183l0.546-1.107h-4.201l0.447,1.107H54.196z
				 M54.168-62.478l-0.84,0.588c-0.336-0.504-0.785-1.051-1.373-1.639l0.854-0.532C53.398-63.474,53.86-62.941,54.168-62.478z
				 M59.029-61.344l-0.841,0.588c-0.448-0.771-1.036-1.611-1.793-2.535l0.812-0.505C57.992-62.857,58.609-62.045,59.029-61.344z"/>
			<path style="fill:#444444;" d="M63.91-66.401c-0.098,0.267-0.196,0.519-0.28,0.771h2.913v0.854
				c-0.308,0.925-0.812,1.709-1.526,2.382c0.659,0.28,1.289,0.588,1.892,0.924l-0.547,0.812c-0.616-0.364-1.316-0.729-2.129-1.092
				c-0.938,0.644-2.102,1.162-3.502,1.555l-0.49-0.869c1.148-0.308,2.129-0.686,2.941-1.148c-0.616-0.252-1.261-0.519-1.947-0.784
				c0.365-0.603,0.687-1.177,0.953-1.723h-1.639v-0.911h2.059c0.112-0.308,0.225-0.602,0.322-0.882L63.91-66.401z M63.322-70.323
				v-2.675h0.938v2.675h2.55v0.883h-2.55v0.154c0.757,0.378,1.541,0.812,2.326,1.288l-0.519,0.784
				c-0.7-0.56-1.303-1.008-1.808-1.345v1.821h-0.938v-2.661c-0.463,1.106-1.303,2.059-2.508,2.871l-0.49-0.812
				c1.078-0.63,1.835-1.33,2.256-2.101h-1.99v-0.883L63.322-70.323C63.322-70.324,63.322-70.323,63.322-70.323z M62.551-70.981
				l-0.783,0.364c-0.295-0.687-0.617-1.289-0.953-1.807l0.84-0.28C61.991-72.172,62.299-71.598,62.551-70.981z M65.591-64.72h-2.367
				c-0.224,0.462-0.476,0.91-0.757,1.33c0.533,0.183,1.064,0.379,1.584,0.589C64.736-63.361,65.255-63.991,65.591-64.72z
				 M66.684-72.41c-0.28,0.616-0.631,1.219-1.078,1.821l-0.757-0.406c0.435-0.616,0.784-1.219,1.036-1.808L66.684-72.41z
				 M68.196-67.647c-0.252,0.645-0.532,1.219-0.826,1.723l-0.63-0.771c0.826-1.568,1.387-3.684,1.666-6.346l0.98,0.169
				c-0.084,0.714-0.195,1.387-0.308,2.003h3.698v0.966h-0.911c-0.056,2.34-0.476,4.343-1.247,5.996
				c0.729,1.218,1.584,2.171,2.592,2.843l-0.574,0.854c-0.98-0.687-1.807-1.61-2.508-2.759c-0.686,1.12-1.555,2.059-2.605,2.815
				l-0.531-0.854c1.092-0.757,1.961-1.737,2.591-2.928C69.037-65.028,68.574-66.261,68.196-67.647z M68.673-69.16
				c0.351,1.597,0.812,2.997,1.372,4.188c0.547-1.429,0.841-3.067,0.896-4.931h-2.072C68.799-69.65,68.729-69.398,68.673-69.16z"/>
			<path style="fill:#444444;" d="M74.758-60.294l-0.209-0.952c0.363,0.042,0.729,0.07,1.064,0.07c0.35,0,0.531-0.211,0.531-0.617
				v-3.417c-0.56,0.21-1.105,0.406-1.652,0.574l-0.252-0.98c0.645-0.154,1.289-0.351,1.904-0.574v-3.166h-1.68v-0.967h1.68v-2.647
				h0.981v2.647h1.345v0.967h-1.345v2.76c0.448-0.196,0.882-0.406,1.302-0.631v0.995c-0.434,0.224-0.867,0.42-1.302,0.616v4.076
				c0,0.826-0.393,1.246-1.177,1.246C75.948-60.294,74.758-60.294,74.758-60.294z M78.498-60.168l-0.784-0.7
				c0.995-1.849,1.499-4.258,1.513-7.2v-4.384h7.383v3.403h-2.634v1.653h2.997v0.91h-2.997v1.724h2.353v4.594h-0.938v-0.686h-3.797
				v0.686h-0.938v-4.594h2.339v-1.724h-2.858C79.969-64.09,79.423-61.988,78.498-60.168z M80.207-69.049v0.98
				c0,0.225-0.014,0.449-0.014,0.673h2.802v-1.653H80.207z M80.207-71.514v1.555h5.422v-1.555H80.207z M85.391-61.75v-2.115h-3.797
				v2.115H85.391z"/>
			<path style="fill:#444444;" d="M95.048-72.256c-0.267,0.111-0.546,0.224-0.827,0.322c0,1.793,0.029,3.781,0.099,5.967
				c0.07,1.821,0.519,3.025,1.331,3.6c0.98,0.757,2.787,1.149,5.421,1.149l-0.378,0.938c-2.83-0.042-4.777-0.547-5.855-1.514
				c-0.603-0.588-1.009-1.429-1.232-2.549c-0.183-0.868-0.281-3.306-0.295-7.312c-0.336,0.085-0.672,0.169-1.036,0.253v11.023H91.35
				v-10.855c-0.393,0.056-0.784,0.098-1.176,0.154v3.81c-0.043,2.731-0.463,5.071-1.247,7.004l-0.7-0.729
				c0.672-1.765,1.021-3.852,1.064-6.275v-4.664c2.156-0.196,3.852-0.561,5.084-1.093L95.048-72.256z M100.539-67.214h-4.146v2.354
				c0,0.393,0.196,0.589,0.616,0.589h2.382c0.252-0.015,0.42-0.141,0.518-0.364c0.07-0.196,0.127-0.687,0.183-1.457l0.91,0.309
				c-0.056,0.77-0.153,1.316-0.267,1.652c-0.168,0.504-0.531,0.757-1.064,0.784h-3.025c-0.77,0-1.148-0.406-1.148-1.204v-7.69h5.043
				v5.027C100.541-67.214,100.539-67.214,100.539-67.214z M96.393-71.317v3.18h1.232v-3.18H96.393z M99.656-68.138v-3.18h-1.19v3.18
				H99.656z"/>
			<path style="fill:#444444;" d="M109.146-72.466v0.952h-1.135v7.844c0.447-0.111,0.896-0.224,1.33-0.336v0.995
				c-0.448,0.111-0.896,0.224-1.33,0.336v2.563h-0.98v-2.34c-1.43,0.309-2.928,0.589-4.469,0.827l-0.238-0.995
				c0.393-0.056,0.784-0.098,1.177-0.154v-8.74h-1.079v-0.952H109.146z M107.031-69.328v-2.186h-2.55v2.186H107.031z
				 M107.031-66.261v-2.144h-2.55v2.144H107.031z M107.031-63.432v-1.919h-2.55v2.424C105.35-63.081,106.204-63.249,107.031-63.432z
				 M109.678-70.729h-0.476v-0.98h5.337v0.925c-0.309,2.605-0.953,4.832-1.905,6.667c0.673,1.149,1.513,2.214,2.507,3.18
				l-0.672,0.771c-0.938-0.952-1.723-1.961-2.367-3.025c-0.756,1.205-1.667,2.228-2.718,3.054l-0.687-0.784
				c1.148-0.911,2.088-2.003,2.844-3.278C110.49-66.19,109.875-68.362,109.678-70.729z M110.603-70.729
				c0.169,2.018,0.645,3.866,1.457,5.547c0.757-1.61,1.274-3.46,1.526-5.547H110.603z"/>
		</g>
	</g>
</g>
<rect x="620.18" y="176.432" style="opacity:0.6;fill:#BBBBBB;enable-background:new    ;" width="146.281" height="50"/>
<rect x="617.82" y="174.432" style="fill:#FFFFFF;stroke:#E5E5E5;" width="146.281" height="50"/>
<g transform="translate(20 9)">
	<g style="enable-background:new    ;">
		<path style="fill:#444444;" d="M631.963,187.714v-3.698h0.995v3.698h1.331v0.98h-1.331v4.229c0.448-0.195,0.896-0.42,1.317-0.644
			v1.008c-1.107,0.589-2.298,1.079-3.559,1.472l-0.252-1.023c0.504-0.126,1.008-0.266,1.498-0.434v-4.608h-1.372v-0.98H631.963z
			 M638.547,193.961c-1.373,0.532-2.857,0.98-4.454,1.345l-0.238-0.967c1.625-0.28,3.194-0.714,4.692-1.288L638.547,193.961
			L638.547,193.961z M639.262,185.893c-0.014-0.616-0.014-1.247-0.014-1.891h0.98c0,0.658,0,1.288,0.014,1.891h1.429
			c-0.196-0.532-0.393-1.009-0.616-1.443l0.91-0.153c0.182,0.462,0.364,0.994,0.547,1.597h0.686v0.952h-2.941
			c0.042,2.157,0.141,3.923,0.295,5.281c0.545-1.177,0.98-2.535,1.288-4.104l0.868,0.364c-0.462,2.102-1.106,3.866-1.933,5.267
			c0.28,1.331,0.588,2.018,0.952,2.073c0.28-0.027,0.547-0.742,0.826-2.115l0.757,0.616c-0.448,1.682-0.966,2.521-1.583,2.521
			c-0.462,0-0.868-0.364-1.232-1.092c-0.141-0.295-0.28-0.631-0.393-0.995c-0.686,0.896-1.471,1.611-2.339,2.144l-0.616-0.799
			c1.036-0.603,1.933-1.457,2.661-2.563c-0.084-0.392-0.14-0.798-0.196-1.246c-0.182-1.401-0.294-3.194-0.336-5.352h-4.973v-0.952
			L639.262,185.893L639.262,185.893z M638.421,188.231v3.95h-3.558v-3.95H638.421z M637.524,189.072h-1.778v2.283h1.778V189.072z"/>
		<path style="fill:#444444;" d="M648.793,196.79h-1.008v-4.944c-0.869,0.28-1.779,0.532-2.76,0.771l-0.533-0.967
			c2.424-0.504,4.441-1.148,6.052-1.961c-0.616-0.519-1.457-1.078-2.521-1.681l0.868-0.547c1.064,0.659,1.905,1.247,2.508,1.766
			c1.429-0.854,2.465-1.85,3.123-2.998h-5.182c-0.953,0.883-2.158,1.667-3.643,2.367l-0.672-0.868
			c2.395-1.022,4.006-2.283,4.846-3.769l1.107,0.127c-0.225,0.42-0.477,0.812-0.757,1.19h5.463v0.896
			c-1.009,1.919-2.815,3.487-5.448,4.706h5.841v5.911h-1.022v-0.826h-6.262L648.793,196.79L648.793,196.79z M655.055,191.817h-6.262
			v3.166h6.262V191.817z"/>
		<path style="fill:#444444;" d="M663.703,184.002v12.83h-1.036v-3.306h-4.272v-0.966h4.272v-2.228h-3.628v-0.98h3.628v-2.171h-3.95
			v-0.967h3.95v-2.213L663.703,184.002L663.703,184.002z M666.981,184.002v2.213h3.937v0.967h-3.937v2.171h3.628v0.98h-3.628v2.228
			h4.16v0.966h-4.16v3.306h-1.036v-12.83L666.981,184.002L666.981,184.002z"/>
		<path style="fill:#444444;" d="M675.406,189.633l-0.729,0.714c-0.518-0.672-1.232-1.4-2.129-2.185l0.715-0.687
			C674.104,188.189,674.818,188.904,675.406,189.633z M675.799,191.733c-0.603,1.766-1.275,3.432-2.018,4.987l-1.008-0.435
			c0.812-1.597,1.526-3.235,2.115-4.917L675.799,191.733z M675.924,186.299l-0.714,0.729c-0.56-0.673-1.345-1.387-2.325-2.144
			l0.715-0.687C674.523,184.898,675.294,185.599,675.924,186.299z M681.01,183.987v2.255h3.6v0.981h-3.6v2.619h3.978v0.98h-4.595
			c-0.896,2.129-1.681,3.642-2.354,4.538c1.737-0.182,3.461-0.448,5.17-0.812c-0.393-0.826-0.812-1.582-1.233-2.283l0.967-0.322
			c0.841,1.401,1.583,2.914,2.213,4.511l-0.952,0.42c-0.196-0.504-0.393-0.98-0.588-1.429c-2.102,0.421-4.398,0.743-6.879,0.98
			l-0.237-0.882c0.084-0.028,0.153-0.07,0.21-0.099c0.658-0.574,1.527-2.115,2.592-4.622h-3.32v-0.98h3.992v-2.619h-3.32v-0.981
			h3.32v-2.255L681.01,183.987L681.01,183.987z"/>
		<path style="fill:#444444;" d="M690.359,184.058v2.297h2.101v0.98h-2.101v2.508h2.73v0.967h-3.235
			c-0.603,1.708-1.12,2.941-1.569,3.712c1.009-0.183,2.004-0.435,2.998-0.771c-0.309-0.589-0.602-1.135-0.91-1.625l0.84-0.393
			c0.631,1.022,1.219,2.144,1.779,3.362l-0.883,0.42c-0.14-0.336-0.279-0.658-0.42-0.952c-1.4,0.434-2.928,0.784-4.566,1.05
			l-0.238-0.882c0.084-0.028,0.154-0.07,0.211-0.099c0.434-0.476,1.008-1.751,1.736-3.823h-2.172v-0.967h2.689v-2.508h-2.297v-0.98
			h2.297v-2.297L690.359,184.058L690.359,184.058z M695.724,184.071v2.844h2.928c0,4.44-0.084,7.172-0.238,8.194
			c-0.14,1.037-0.784,1.569-1.933,1.569c-0.238,0-0.631-0.028-1.191-0.057l-0.252-0.924c0.49,0.027,0.91,0.042,1.275,0.042
			c0.672,0,1.05-0.322,1.162-0.967c0.126-0.742,0.196-3.025,0.21-6.864h-1.976c-0.084,4.062-1.008,7.046-2.773,8.965l-0.742-0.658
			c1.598-1.751,2.424-4.524,2.508-8.307h-1.652v-0.994h1.666v-2.844h1.008L695.724,184.071L695.724,184.071z"/>
		<path style="fill:#444444;" d="M700.871,196.706l-0.211-0.98c0.379,0.028,0.743,0.057,1.094,0.057
			c0.363,0,0.546-0.196,0.546-0.575v-3.39c-0.561,0.196-1.135,0.393-1.724,0.561l-0.252-1.009c0.673-0.153,1.331-0.336,1.976-0.546
			v-3.166h-1.709v-0.98h1.709v-2.647h1.036v2.647h1.443v0.98h-1.443v2.773c0.504-0.21,1.009-0.448,1.514-0.7v1.022
			c-0.505,0.238-1.01,0.463-1.514,0.673v4.034c0,0.826-0.42,1.246-1.232,1.246L700.871,196.706L700.871,196.706z M710.256,190.697
			v-1.051h1.009v1.051h1.919v0.967h-1.919v3.796c0,0.84-0.421,1.261-1.233,1.261h-1.891l-0.225-0.967
			c0.617,0.028,1.205,0.056,1.766,0.056c0.379,0,0.574-0.21,0.574-0.603v-3.543h-5.015v-0.967L710.256,190.697L710.256,190.697z
			 M709.64,183.987v1.499h2.773v0.91h-2.773v1.682h3.362v0.952h-7.662v-0.952h3.264v-1.682h-2.746v-0.91h2.746v-1.499H709.64z
			 M708.421,194.438l-0.798,0.574c-0.463-0.701-1.094-1.457-1.877-2.283l0.783-0.49C707.342,193.078,707.973,193.82,708.421,194.438
			z"/>
	</g>
</g>
<rect x="620.142" y="257.432" style="opacity:0.6;fill:#BBBBBB;enable-background:new    ;" width="143.959" height="50"/>
<rect x="617.82" y="255.432" style="fill:#FFFFFF;stroke:#E5E5E5;" width="143.959" height="50"/>
<g transform="translate(20 9)">
	<g style="enable-background:new    ;">
		<path style="fill:#444444;" d="M635.297,271.543c-0.574,0.28-1.162,0.546-1.75,0.799v4.104c0,0.841-0.421,1.275-1.233,1.275
			h-1.247l-0.224-0.98c0.392,0.027,0.757,0.056,1.12,0.056c0.365,0,0.561-0.21,0.561-0.603v-3.445
			c-0.645,0.237-1.303,0.462-1.961,0.658l-0.252-1.009c0.756-0.182,1.484-0.406,2.213-0.658v-3.208h-1.919v-0.967h1.919v-2.535
			h1.023v2.535h1.68v0.967h-1.68v2.815c0.588-0.252,1.176-0.519,1.75-0.826V271.543z M637.104,273.658v2.802h6.136v0.966h-7.158
			v-11.892h6.905v0.98h-5.883v2.395h5.225v4.749H637.104z M637.104,272.706h4.258v-2.858h-4.258V272.706z"/>
		<path style="fill:#444444;" d="M647.658,265.31c-0.672,1.821-1.345,3.264-2.018,4.343c0.533-0.07,1.079-0.154,1.611-0.253
			c0.238-0.504,0.49-1.036,0.757-1.61l0.882,0.322c-1.162,2.423-2.129,4.132-2.885,5.141c0.952-0.196,1.891-0.477,2.844-0.841v0.896
			c-1.373,0.505-2.704,0.854-3.965,1.037l-0.28-0.911c0.183-0.069,0.337-0.168,0.462-0.279c0.477-0.561,1.051-1.514,1.737-2.858
			c-0.673,0.127-1.358,0.238-2.06,0.351l-0.252-0.925c0.168-0.069,0.309-0.195,0.421-0.378c0.7-1.289,1.288-2.745,1.793-4.398
			L647.658,265.31z M648.989,275.899c-1.261,0.574-2.704,1.036-4.314,1.4l-0.126-0.966c1.681-0.351,3.166-0.812,4.44-1.401V275.899z
			 M656.329,269.064v4.286h-5.617v2.689c0,0.379,0.196,0.574,0.616,0.589h3.684c0.421-0.028,0.715-0.183,0.883-0.463
			c0.112-0.237,0.225-0.826,0.309-1.778l0.938,0.294c-0.099,0.896-0.224,1.555-0.364,1.947c-0.238,0.588-0.729,0.896-1.471,0.925
			h-4.342c-0.812,0-1.205-0.393-1.205-1.177v-6.724l-0.364,0.364l-0.603-0.729c1.148-1.093,2.087-2.508,2.815-4.272l0.967,0.21
			c-0.169,0.393-0.337,0.771-0.519,1.135h3.277v0.742c-0.42,0.771-0.854,1.429-1.273,1.961h2.269L656.329,269.064L656.329,269.064z
			 M652.926,269.064c0.42-0.504,0.854-1.106,1.273-1.807h-2.633c-0.393,0.658-0.826,1.261-1.289,1.807H652.926z M650.712,269.988
			v2.451h1.863v-2.451H650.712z M655.377,272.439v-2.451h-1.905v2.451H655.377z"/>
		<path style="fill:#444444;" d="M659.361,277.86l-0.757-0.7c0.561-1.261,0.841-2.886,0.854-4.847v-6.724h4.09v10.912
			c0,0.854-0.392,1.288-1.176,1.288h-1.121l-0.238-0.896c0.393,0.028,0.742,0.057,1.079,0.057c0.351,0,0.532-0.267,0.532-0.771
			v-3.152h-2.27C660.271,274.989,659.936,276.6,659.361,277.86z M662.625,266.5h-2.256v2.367h2.256V266.5z M660.369,272.117h2.256
			v-2.339h-2.256V272.117z M665.679,277.847h-0.952v-12.271h5.672c0,1.736-0.084,2.885-0.252,3.445
			c-0.168,0.574-0.686,0.868-1.568,0.868h-1.135l-0.266-0.868c0.238,0,0.546,0.014,0.938,0.014c0.337,0,0.575-0.027,0.743-0.069
			c0.168-0.057,0.294-0.196,0.378-0.406c0.098-0.309,0.154-0.995,0.182-2.06h-3.739v4.244h4.763v0.854
			c-0.267,1.443-0.729,2.676-1.373,3.685c0.631,0.616,1.373,1.162,2.227,1.652l-0.504,0.854c-0.896-0.518-1.652-1.092-2.297-1.723
			c-0.616,0.715-1.33,1.289-2.172,1.737l-0.531-0.812c0.798-0.435,1.471-0.98,2.031-1.653c-0.896-1.093-1.5-2.325-1.808-3.698
			h-0.336L665.679,277.847L665.679,277.847z M668.396,274.555c0.518-0.841,0.896-1.807,1.148-2.914h-2.662
			C667.178,272.72,667.682,273.687,668.396,274.555z"/>
		<path style="fill:#444444;" d="M677.662,265.086c-0.154,0.378-0.337,0.728-0.533,1.064h6.107v0.812
			c-0.896,1.036-1.988,1.919-3.277,2.647c1.582,0.672,3.348,1.106,5.295,1.303l-0.463,0.938c-2.213-0.253-4.188-0.812-5.925-1.682
			c-1.709,0.785-3.712,1.359-5.981,1.709l-0.462-0.952c2.03-0.28,3.81-0.729,5.351-1.345c-0.784-0.462-1.513-0.994-2.186-1.583
			c-0.531,0.477-1.105,0.91-1.75,1.303l-0.617-0.812c1.682-0.967,2.83-2.144,3.418-3.544L677.662,265.086z M678.992,271.179
			c0,0.561-0.057,1.093-0.141,1.597h4.932c-0.028,2.367-0.238,3.782-0.645,4.244c-0.406,0.463-1.107,0.701-2.102,0.701
			c-0.448,0-0.994-0.028-1.639-0.057l-0.252-0.91l1.652,0.07c0.841-0.015,1.359-0.196,1.583-0.532
			c0.21-0.337,0.337-1.205,0.378-2.605h-4.146c-0.111,0.364-0.266,0.714-0.447,1.05c-0.715,1.261-2.354,2.312-4.932,3.124
			l-0.672-0.826c2.297-0.673,3.824-1.527,4.553-2.55c0.168-0.252,0.322-0.518,0.434-0.798h-4.174v-0.911h4.455
			c0.111-0.504,0.168-1.036,0.168-1.597L678.992,271.179L678.992,271.179z M681.794,267.103h-5.351l-0.183,0.225
			c0.784,0.686,1.653,1.274,2.591,1.765C679.986,268.531,680.967,267.859,681.794,267.103z"/>
		<path style="fill:#444444;" d="M686.619,267.341v-0.98h5.196v0.98h-2.157v6.724c0.757-0.238,1.514-0.504,2.241-0.812v1.009
			c-1.597,0.645-3.319,1.177-5.169,1.597l-0.238-1.022c0.729-0.141,1.457-0.294,2.172-0.49v-7.004h-2.045L686.619,267.341
			L686.619,267.341z M695.794,274.148c0.994,1.093,2.157,2.059,3.487,2.928l-0.672,0.771c-1.331-0.883-2.479-1.85-3.445-2.914
			c-1.037,1.163-2.368,2.144-4.007,2.928l-0.546-0.883c1.639-0.728,2.941-1.652,3.922-2.773c-0.883-1.092-1.598-2.269-2.157-3.529
			c-0.28,0.476-0.589,0.91-0.896,1.303l-0.645-0.771c1.19-1.555,1.989-3.643,2.409-6.262l0.98,0.168
			c-0.126,0.7-0.266,1.373-0.434,2.018h5.141v0.966h-1.219C697.629,270.465,696.984,272.481,695.794,274.148z M692.922,269.624
			c0.561,1.373,1.303,2.634,2.228,3.782c1.009-1.499,1.541-3.264,1.625-5.31h-3.265
			C693.328,268.644,693.133,269.147,692.922,269.624z"/>
		<path style="fill:#444444;" d="M706.306,267.061v-1.975h1.036v1.975h4.525v0.967h-4.525v2.325h5.674v0.98h-5.674v4.944h3.307
			v-3.726h0.967v5.309h-0.967v-0.645h-7.635v0.645h-0.967v-5.309h0.967v3.726h3.292v-4.944h-5.659v-0.98h5.659v-2.325h-4.58v-0.967
			H706.306z"/>
	</g>
</g>
<g transform="translate(0.5, 0)">
	<polygon style="fill:#888888;" points="604.036,125.932 610.036,121.432 604.036,116.932 	"/>
</g>
<g transform="translate(0.5, 0)">
	<polygon style="fill:#888888;" points="604.036,283.932 610.036,279.432 604.036,274.932 	"/>
</g>
<path style="fill:none;stroke:#888888;" d="M226.536,279.432h26v-89"/>
<path style="fill:none;stroke:#888888;" d="M226.536,121.432h26v89"/>
<path style="fill:none;stroke:#888888;" d="M333.536,200.432h-111"/>
<g transform="translate(0.5, 0)">
	<polygon style="fill:#888888;" points="226.536,204.932 220.536,200.432 226.536,195.932 	"/>
</g>
<g transform="translate(0.5, 0)">
	<polygon style="fill:#888888;" points="226.536,125.932 220.536,121.432 226.536,116.932 	"/>
</g>
<g transform="translate(0.5, 0)">
	<polygon style="fill:#888888;" points="226.536,283.932 220.536,279.432 226.536,274.932 	"/>
</g>
<g transform="translate(0 0)">
	<g style="enable-background:new    ;">
		<path style="fill:#444444;" d="M537.294,192.728l-0.587-0.539c0.455-0.888,0.695-2.027,0.707-3.395v-3.682
			c-0.048,0.048-0.084,0.084-0.12,0.132l-0.527-0.636c0.72-0.768,1.308-1.775,1.775-3.022l0.779,0.18
			c-0.096,0.265-0.204,0.528-0.3,0.768h2.135v0.6c-0.264,0.528-0.54,0.983-0.804,1.355h1.439v7.196c0,0.563-0.3,0.852-0.876,0.852
			h-0.684l-0.204-0.72c0.229,0.024,0.444,0.048,0.636,0.048c0.265,0,0.396-0.156,0.396-0.443v-1.667h-1.115v2.71h-0.696v-2.71h-1.14
			C538.002,190.94,537.726,191.937,537.294,192.728z M540.245,183.241h-1.56c-0.24,0.456-0.504,0.863-0.768,1.247h1.56
			C539.729,184.129,539.98,183.709,540.245,183.241z M538.158,188.746c0,0.096-0.013,0.18-0.013,0.275h1.104v-1.57h-1.091V188.746z
			 M538.158,185.232v1.499h1.091v-1.499H538.158z M541.061,185.232h-1.115v1.499h1.115V185.232z M541.061,187.451h-1.115v1.57h1.115
			V187.451z M542.583,189.166l-0.503-0.612c0.527-0.575,0.875-1.331,1.055-2.29l0.72,0.132c-0.071,0.323-0.144,0.623-0.216,0.899
			h1.104v-1.115h0.84v1.115h1.787v0.779h-1.787v1.464h2.039v0.779h-2.039v2.351h-0.84v-2.351h-2.614v-0.779h2.614v-1.464h-1.415
			C543.111,188.494,542.871,188.855,542.583,189.166z M542.224,183.121v-0.768h5.001c0,1.631-0.107,2.603-0.323,2.927
			c-0.216,0.312-0.576,0.479-1.092,0.479c-0.288,0-0.624-0.024-1.008-0.048l-0.203-0.72c0.407,0.024,0.755,0.048,1.031,0.06
			c0.336-0.012,0.539-0.119,0.623-0.323c0.072-0.204,0.12-0.744,0.145-1.607h-1.764c-0.119,0.552-0.3,1.044-0.527,1.463
			c-0.312,0.504-0.779,0.972-1.392,1.38l-0.503-0.66c0.539-0.312,0.947-0.695,1.211-1.127c0.18-0.312,0.312-0.66,0.396-1.056
			H542.224z"/>
		<path style="fill:#444444;" d="M551.549,187.307c-0.575,1.775-1.223,3.442-1.942,5.002l-0.815-0.36
			c0.768-1.607,1.438-3.262,2.003-4.941L551.549,187.307z M551.417,184.788l-0.707,0.492c-0.456-0.84-1.067-1.764-1.848-2.795
			l0.708-0.443C550.374,183.085,550.985,183.997,551.417,184.788z M554.907,183.433v-1.787h0.852v1.787h2.734v3.526h1.067v0.815
			h-3.562c0.768,1.728,2.015,3.106,3.741,4.15l-0.575,0.659c-1.751-1.188-3.011-2.687-3.79-4.497
			c-0.588,2.074-1.823,3.598-3.694,4.569l-0.539-0.708c1.799-0.863,2.95-2.255,3.454-4.174h-2.591v-0.815h2.771
			c0.084-0.552,0.132-1.127,0.132-1.727v-0.972h-2.411v-0.828h2.411L554.907,183.433L554.907,183.433z M555.759,185.04
			c0,0.684-0.048,1.319-0.144,1.919h2.038v-2.698h-1.895L555.759,185.04L555.759,185.04z"/>
	</g>
</g>
<rect x="326.762" y="177.43" style="opacity:0.6;fill:#BBBBBB;enable-background:new    ;" width="179.036" height="50"/>
<rect x="324.762" y="175.43" style="fill:#FFFFFF;stroke:#E5E5E5;" width="179.036" height="50"/>
<g style="enable-background:new    ;">
	<path style="fill:#444444;" d="M388.177,206.803l-0.742-0.687c0.448-1.261,0.672-2.872,0.687-4.818v-6.766h3.571v11.107
		c0,0.742-0.378,1.121-1.135,1.121h-0.98l-0.238-0.925c0.337,0.028,0.631,0.042,0.911,0.042c0.308,0,0.477-0.196,0.477-0.574v-3.18
		h-1.667C388.976,204.015,388.681,205.569,388.177,206.803z M390.727,195.484h-1.653v2.409h1.653V195.484z M389.073,201.172h1.653
		v-2.34h-1.653V201.172z M393.668,195.919c-0.196-0.463-0.448-0.896-0.729-1.303l0.868-0.322c0.28,0.448,0.519,0.994,0.742,1.625
		h0.701c0.168-0.617,0.308-1.275,0.392-1.976l0.98,0.112c-0.084,0.658-0.21,1.274-0.378,1.863h1.106
		c0.309-0.532,0.561-1.093,0.784-1.709l0.911,0.336c-0.252,0.532-0.505,0.994-0.757,1.373h1.247v0.84h-3.544
		c-0.141,0.393-0.309,0.771-0.477,1.121h4.412v0.854h-2.199c0.574,0.7,1.429,1.261,2.578,1.681l-0.435,0.896
		c-0.616-0.28-1.148-0.603-1.597-0.938v0.14c-0.112,0.785-0.225,1.457-0.351,2.018h1.499c-0.028,2.297-0.21,3.586-0.532,3.88
		c-0.267,0.252-0.841,0.378-1.737,0.378h-0.645l-0.252-0.854c0.337,0,0.645,0.015,0.925,0.015c0.504,0,0.841-0.084,0.98-0.225
		c0.168-0.168,0.267-0.966,0.294-2.381h-5.238c0.266-0.812,0.462-1.513,0.588-2.115l0.938,0.084
		c-0.112,0.435-0.224,0.841-0.336,1.219h2.577c0.141-0.477,0.252-1.037,0.336-1.653h-3.712v-0.49
		c-0.42,0.379-0.882,0.715-1.372,0.995l-0.519-0.799c0.868-0.477,1.597-1.093,2.171-1.849h-1.694v-0.854h2.255
		c0.196-0.364,0.378-0.743,0.532-1.121h-2.381v-0.84L393.668,195.919L393.668,195.919z M397.323,204.197v0.868h-5.015v-0.868
		H397.323z M397.898,200.064c-0.463-0.406-0.827-0.854-1.107-1.33h-1.765c-0.322,0.49-0.687,0.938-1.078,1.33H397.898z"/>
	<path style="fill:#444444;" d="M404.292,198.272v6.191c0.448-0.392,0.925-0.84,1.442-1.358l0.267,1.064
		c-0.812,0.812-1.681,1.527-2.605,2.157l-0.393-0.896c0.196-0.196,0.309-0.406,0.309-0.645v-5.547h-1.947v-0.967h2.927
		L404.292,198.272L404.292,198.272z M405.272,196.283l-0.687,0.7c-0.574-0.687-1.345-1.415-2.325-2.172l0.7-0.686
		C403.886,194.84,404.656,195.555,405.272,196.283z M407.626,199.477v-3.838h-1.863v-0.98h6.415v4.3
		c0,2.802,0.211,4.749,0.645,5.869c0.183,0.448,0.351,0.687,0.505,0.687c0.056,0,0.098-0.182,0.153-0.532
		c0.028-0.393,0.057-0.967,0.084-1.737l0.799,0.379c-0.056,1.345-0.168,2.213-0.336,2.591c-0.141,0.28-0.294,0.435-0.477,0.435
		c-0.519,0-0.967-0.322-1.358-0.967c-0.673-1.177-1.009-3.418-1.009-6.724v-3.319h-2.577v3.838h1.919v0.967h-1.919v6.401h-0.98
		v-6.401h-2.102v-0.967h2.101L407.626,199.477L407.626,199.477z"/>
	<path style="fill:#444444;" d="M428.069,198.706v1.009h-6.724c-1.289,2.647-2.424,4.482-3.376,5.519
		c2.521-0.14,5.028-0.378,7.536-0.714c-0.504-0.896-1.064-1.821-1.681-2.773l0.812-0.505c1.288,1.934,2.283,3.628,2.983,5.057
		l-0.896,0.631c-0.225-0.49-0.463-0.98-0.729-1.485c-2.844,0.364-5.939,0.645-9.301,0.869l-0.267-1.022
		c0.112-0.028,0.183-0.07,0.238-0.099c0.896-0.672,2.087-2.493,3.558-5.477h-4.721v-1.009L428.069,198.706L428.069,198.706z
		 M426.822,194.798v0.98h-9.974v-0.98H426.822z"/>
	<path style="fill:#444444;" d="M438.693,206.746l-0.267-0.98l1.345,0.042c0.393,0,0.589-0.196,0.589-0.574v-9.707h-9.189v11.276
		h-0.994V194.56h11.178v10.898c0,0.854-0.42,1.288-1.246,1.288L438.693,206.746L438.693,206.746z M434.028,201.634
		c-0.504,1.373-1.12,2.549-1.835,3.529l-0.644-0.784c0.729-1.036,1.33-2.269,1.807-3.684c-0.673-0.896-1.331-1.709-1.975-2.451
		l0.63-0.603c0.519,0.546,1.078,1.204,1.667,1.989c0.266-0.98,0.49-2.045,0.658-3.166l0.925,0.168
		c-0.225,1.443-0.519,2.76-0.883,3.95c0.532,0.729,1.093,1.527,1.653,2.396l-0.673,0.672
		C434.911,202.937,434.463,202.264,434.028,201.634z M438.049,201.97c-0.561,1.373-1.219,2.55-1.975,3.53l-0.645-0.771
		c0.784-1.064,1.442-2.312,1.961-3.74c-0.645-0.952-1.274-1.821-1.919-2.605l0.63-0.603c0.505,0.574,1.064,1.275,1.653,2.115
		c0.308-1.051,0.546-2.185,0.742-3.39l0.953,0.168c-0.253,1.555-0.589,2.956-1.009,4.217c0.532,0.812,1.106,1.723,1.709,2.731
		l-0.687,0.672C438.987,203.469,438.511,202.698,438.049,201.97z"/>
	<path style="fill:#444444;" d="M448.827,204.73c-1.597,0.462-3.306,0.84-5.141,1.148l-0.238-0.967
		c1.037-0.14,2.045-0.322,3.04-0.546c0.448-1.989,0.756-4.104,0.952-6.346l0.98,0.141c-0.224,2.157-0.546,4.146-0.994,5.98
		c0.476-0.126,0.938-0.252,1.4-0.392L448.827,204.73L448.827,204.73z M445.815,196.311c-0.168-0.756-0.378-1.442-0.603-2.059
		l1.022-0.168c0.196,0.644,0.379,1.387,0.547,2.227h2.27v0.98h-5.506v-0.98H445.815z M445.731,203.734l-0.841,0.211
		c-0.252-1.92-0.574-3.769-0.952-5.533l0.883-0.28C445.157,199.757,445.466,201.634,445.731,203.734z M452.525,193.972v2.465h3.516
		v0.98h-3.516v2.731h2.829v6.598h-0.98v-0.924h-3.95v0.938h-0.966v-6.612h2.03v-6.177L452.525,193.972L452.525,193.972z
		 M454.374,204.884v-3.853h-3.95v3.853H454.374z"/>
	<path style="fill:#444444;" d="M458.387,197.39l-0.883-0.561c0.841-0.868,1.457-1.849,1.85-2.914l0.967,0.211
		c-0.112,0.308-0.238,0.588-0.351,0.868h3.754v0.883h-2.354c0.309,0.42,0.574,0.826,0.771,1.204l-0.924,0.351
		c-0.253-0.532-0.561-1.051-0.911-1.555h-0.798C459.171,196.423,458.807,196.927,458.387,197.39z M469.705,200.359h-0.98v-1.667
		h-9.918v1.667h-0.98v-2.536h5.547c-0.14-0.336-0.279-0.63-0.434-0.91l0.98-0.168l-0.084-0.056c0.672-0.841,1.148-1.751,1.457-2.76
		l0.966,0.21c-0.098,0.294-0.196,0.574-0.308,0.854h4.048v0.883h-2.493c0.294,0.392,0.532,0.756,0.7,1.092l-0.896,0.337
		c-0.252-0.505-0.546-0.98-0.883-1.429h-0.882c-0.252,0.476-0.547,0.924-0.854,1.345l-0.757-0.463
		c0.154,0.322,0.309,0.673,0.448,1.064h5.323V200.359z M467.771,202.264h-6.989v0.967h7.634v3.6h-0.994v-0.588h-6.64v0.574h-1.009
		v-7.298h7.998L467.771,202.264L467.771,202.264z M466.791,201.451v-1.12h-6.009v1.12H466.791z M467.422,205.346v-1.303h-6.64v1.303
		H467.422z"/>
	<path style="fill:#444444;" d="M479.11,201.606c0.225,0.687,0.351,1.415,0.364,2.186c0,1.106-0.154,1.877-0.448,2.297
		c-0.336,0.477-1.12,0.729-2.325,0.729h-0.477l-0.336-0.883h0.673c0.826-0.014,1.345-0.14,1.555-0.378
		c0.252-0.308,0.378-0.896,0.378-1.765c-0.014-0.252-0.028-0.477-0.056-0.7c-1.569,1.232-3.614,2.227-6.149,2.997l-0.505-0.868
		c2.773-0.812,4.931-1.835,6.458-3.096c-0.112-0.364-0.238-0.715-0.406-1.051c-1.316,1.037-3.109,1.877-5.379,2.521l-0.505-0.868
		c2.354-0.616,4.175-1.401,5.449-2.382c-0.168-0.266-0.364-0.504-0.561-0.729c-0.111,0.057-0.21,0.099-0.308,0.154
		c-0.967,0.448-2.241,0.896-3.811,1.345l-0.518-0.826c1.345-0.294,2.563-0.673,3.642-1.135c0.504-0.225,0.994-0.448,1.442-0.7
		h-3.712v-0.938h8.391v0.938h-3.207c-0.393,0.266-0.771,0.519-1.149,0.742c0.49,0.504,0.883,1.051,1.177,1.639
		c1.303-0.364,2.535-0.924,3.712-1.694l0.687,0.686c-0.742,0.491-1.541,0.911-2.409,1.247c0.658,1.765,1.737,3.166,3.222,4.217
		l-0.714,0.826c-1.541-1.247-2.647-2.83-3.32-4.749C479.685,201.451,479.391,201.535,479.11,201.606z M478.41,195.218h5.267v2.438
		h-0.994v-1.499h-9.834v1.499h-0.994v-2.438h5.547c-0.154-0.42-0.322-0.812-0.49-1.148l1.022-0.182
		C478.102,194.279,478.256,194.728,478.41,195.218z"/>
</g>
<g>
	<g style="enable-background:new    ;">
		<path style="fill:#878787;" d="M336.873,372.559l-0.228-0.839l1.151,0.036c0.336,0,0.504-0.168,0.504-0.492v-8.312h-7.868v9.655
			h-0.852v-10.482h9.571v9.331c0,0.731-0.36,1.103-1.067,1.103H336.873z M332.879,368.182c-0.432,1.175-0.96,2.183-1.571,3.022
			l-0.552-0.672c0.624-0.888,1.139-1.943,1.547-3.154c-0.575-0.768-1.139-1.463-1.691-2.099l0.54-0.516
			c0.444,0.468,0.924,1.031,1.427,1.703c0.228-0.84,0.42-1.752,0.564-2.711l0.792,0.144c-0.192,1.235-0.444,2.363-0.755,3.383
			c0.456,0.623,0.935,1.307,1.415,2.051l-0.576,0.575C333.635,369.297,333.251,368.721,332.879,368.182z M336.321,368.47
			c-0.48,1.175-1.043,2.183-1.691,3.021l-0.552-0.659c0.671-0.911,1.235-1.979,1.679-3.202c-0.551-0.815-1.091-1.56-1.643-2.23
			l0.54-0.517c0.432,0.492,0.912,1.092,1.415,1.812c0.264-0.899,0.468-1.871,0.636-2.902l0.815,0.144
			c-0.216,1.331-0.503,2.531-0.863,3.61c0.456,0.695,0.947,1.475,1.463,2.339l-0.587,0.575
			C337.125,369.753,336.717,369.093,336.321,368.47z"/>
		<path style="fill:#878787;" d="M345.563,370.832c-1.368,0.396-2.831,0.72-4.402,0.983l-0.204-0.827
			c0.887-0.12,1.751-0.276,2.603-0.468c0.384-1.703,0.647-3.515,0.815-5.434l0.839,0.12c-0.192,1.847-0.468,3.55-0.852,5.121
			c0.408-0.107,0.804-0.216,1.2-0.336v0.841L345.563,370.832L345.563,370.832z M342.984,363.624
			c-0.144-0.647-0.324-1.235-0.516-1.763l0.876-0.145c0.167,0.552,0.324,1.188,0.467,1.907h1.943v0.84h-4.713v-0.84L342.984,363.624
			L342.984,363.624z M342.912,369.98l-0.719,0.18c-0.216-1.643-0.492-3.226-0.816-4.737l0.756-0.24
			C342.42,366.574,342.685,368.182,342.912,369.98z M348.729,361.621v2.11h3.01v0.84h-3.01v2.339h2.423v5.648h-0.84v-0.79h-3.382
			v0.804h-0.828v-5.661h1.739v-5.289L348.729,361.621L348.729,361.621z M350.312,370.964v-3.298h-3.382v3.298H350.312z"/>
		<path style="fill:#878787;" d="M353.869,363.013v-0.852h7.148v0.563c-0.228,1.043-0.456,1.942-0.672,2.698h2.423v0.504
			c-0.348,1.631-1.104,3.022-2.267,4.149c0.912,0.672,1.979,1.283,3.203,1.812l-0.564,0.768c-1.295-0.588-2.398-1.248-3.31-1.991
			c-1.056,0.84-2.363,1.511-3.91,2.039l-0.503-0.804c1.487-0.504,2.723-1.115,3.706-1.847c-1.116-1.056-1.943-2.231-2.483-3.551
			c-0.396,2.663-1.427,4.702-3.082,6.093l-0.66-0.587c1.991-1.644,2.998-4.271,3.034-7.893v-1.103h-2.063L353.869,363.013
			L353.869,363.013z M361.869,366.202h-2.603c0.24-0.72,0.516-1.774,0.804-3.189h-3.25v1.103c0,0.192-0.012,0.372-0.012,0.564
			c0.432,1.871,1.415,3.478,2.975,4.821C360.813,368.553,361.509,367.45,361.869,366.202z"/>
		<path style="fill:#878787;" d="M365.533,362.868l1.883,7.185h0.048l1.955-7.185h1.067l1.943,7.185h0.048l1.883-7.185h1.103
			l-2.458,8.563h-1.091l-1.943-7.136h-0.036l-1.955,7.136h-1.091l-2.458-8.563H365.533z"/>
		<path style="fill:#878787;" d="M381.083,366.07c0.456,0.6,0.696,1.451,0.72,2.531h-4.893c0.048,0.695,0.228,1.235,0.563,1.619
			s0.804,0.575,1.391,0.575c0.504,0,0.924-0.132,1.235-0.384c0.264-0.216,0.468-0.54,0.624-0.972h0.959
			c-0.144,0.6-0.42,1.08-0.84,1.464c-0.516,0.455-1.175,0.695-1.979,0.695c-0.887,0-1.607-0.3-2.135-0.876
			c-0.552-0.6-0.815-1.391-0.815-2.398c0-0.911,0.252-1.679,0.78-2.291c0.527-0.647,1.235-0.971,2.135-0.971
			C379.823,365.064,380.579,365.399,381.083,366.07z M377.521,366.406c-0.335,0.36-0.527,0.84-0.587,1.451h3.874
			c-0.12-1.331-0.78-1.99-1.955-1.99C378.3,365.867,377.856,366.047,377.521,366.406z"/>
		<path style="fill:#878787;" d="M383.893,362.7v3.67c0.479-0.875,1.163-1.307,2.051-1.307c0.875,0,1.571,0.323,2.075,0.995
			c0.456,0.6,0.696,1.344,0.696,2.255c0,0.936-0.24,1.703-0.696,2.303c-0.516,0.647-1.223,0.983-2.123,0.983
			c-0.959,0-1.643-0.396-2.063-1.188v1.02h-0.899V362.7H383.893L383.893,362.7z M384.384,366.526
			c-0.36,0.443-0.528,1.031-0.528,1.751v0.12c0,0.695,0.156,1.259,0.468,1.69c0.336,0.48,0.828,0.72,1.451,0.72
			c0.672,0,1.175-0.252,1.511-0.731c0.288-0.432,0.444-1.02,0.444-1.763c0-0.744-0.156-1.319-0.468-1.739
			c-0.348-0.479-0.852-0.72-1.523-0.72C385.176,365.855,384.72,366.07,384.384,366.526z"/>
		<path style="fill:#878787;" d="M394.354,361.753v9.535h1.703v-9.535h0.875v9.535h3.598v0.839h-10.626v-0.839h3.574v-9.535H394.354
			z M392.615,369.488l-0.792,0.204c-0.432-1.919-0.972-3.766-1.619-5.541l0.731-0.239
			C391.56,365.531,392.124,367.39,392.615,369.488z M400.207,364.151c-0.479,2.087-1.079,3.91-1.811,5.481l-0.779-0.276
			c0.695-1.415,1.307-3.226,1.823-5.421L400.207,364.151z"/>
		<path style="fill:#878787;" d="M406.223,361.717c-0.132,0.324-0.288,0.624-0.456,0.912h5.229v0.695
			c-0.768,0.888-1.703,1.643-2.806,2.267c1.355,0.576,2.866,0.947,4.533,1.115l-0.396,0.804c-1.895-0.216-3.586-0.695-5.073-1.439
			c-1.463,0.672-3.178,1.164-5.121,1.464l-0.396-0.816c1.739-0.239,3.262-0.623,4.582-1.151c-0.671-0.396-1.295-0.852-1.871-1.354
			c-0.456,0.407-0.947,0.779-1.499,1.115l-0.528-0.695c1.439-0.828,2.423-1.835,2.927-3.035L406.223,361.717z M407.362,366.935
			c0,0.479-0.048,0.935-0.12,1.367h4.222c-0.024,2.026-0.204,3.238-0.552,3.634s-0.947,0.6-1.799,0.6
			c-0.384,0-0.852-0.024-1.403-0.048l-0.216-0.78l1.416,0.061c0.719-0.012,1.163-0.168,1.355-0.456
			c0.18-0.288,0.288-1.031,0.324-2.23h-3.55c-0.096,0.312-0.228,0.611-0.384,0.899c-0.612,1.079-2.015,1.979-4.222,2.675
			l-0.576-0.708c1.967-0.575,3.274-1.308,3.898-2.183c0.144-0.216,0.276-0.444,0.372-0.684h-3.574v-0.779h3.814
			c0.096-0.433,0.144-0.888,0.144-1.367L407.362,366.935L407.362,366.935z M409.76,363.444h-4.581l-0.156,0.191
			c0.672,0.588,1.416,1.092,2.219,1.512C408.213,364.667,409.053,364.092,409.76,363.444z"/>
		<path style="fill:#878787;" d="M417.299,366.143c0.359-0.66,0.707-1.308,1.031-1.955l0.888,0.264
			c-0.312,0.6-0.611,1.164-0.899,1.691h6.2v0.84h-2.362c-0.492,1.271-1.056,2.267-1.691,3.01c1.235,0.528,2.495,1.151,3.766,1.871
			l-0.575,0.756c-1.271-0.744-2.543-1.415-3.814-1.991c-1.343,1.199-3.118,1.823-5.348,1.896l-0.504-0.804
			c2.039-0.013,3.706-0.504,4.977-1.476c-1.127-0.479-2.243-0.899-3.358-1.259c0.431-0.672,0.839-1.344,1.223-2.003h-2.89v-0.84
			L417.299,366.143L417.299,366.143z M424.195,365.387h-0.888v-1.739h-8.191v1.728h-0.888v-2.566h4.558
			c-0.168-0.408-0.348-0.768-0.552-1.104l0.959-0.168c0.192,0.384,0.372,0.804,0.54,1.271h4.462L424.195,365.387L424.195,365.387z
			 M416.843,368.637c0.912,0.265,1.835,0.601,2.782,0.996c0.648-0.708,1.176-1.596,1.584-2.65h-3.358
			C417.49,367.606,417.154,368.157,416.843,368.637z"/>
		<path style="fill:#878787;" d="M431.529,361.669c1.512,1.583,3.25,2.818,5.218,3.73l-0.433,0.768
			c-1.99-0.96-3.682-2.195-5.097-3.719c-1.308,1.451-3.022,2.711-5.146,3.778l-0.42-0.756c2.111-1.02,3.862-2.291,5.254-3.802
			L431.529,361.669L431.529,361.669z M434.563,365.459v0.827h-2.902v2.087h3.467v0.828h-3.467v2.219h4.558v0.852h-9.99v-0.852h4.545
			v-2.219h-3.478v-0.828h3.478v-2.087h-2.902v-0.827H434.563z"/>
		<path style="fill:#878787;" d="M443.638,372.391c-0.768-0.012-1.392-0.083-1.871-0.216c-0.479-0.144-0.899-0.443-1.26-0.875
			c-0.168-0.204-0.323-0.3-0.468-0.3c-0.287,0-0.768,0.552-1.438,1.655l-0.648-0.588c0.648-1.008,1.212-1.619,1.716-1.835v-3.646
			h-1.716v-0.791h2.519v4.485c0.097,0.072,0.192,0.168,0.288,0.275c0.288,0.349,0.588,0.601,0.924,0.756
			c0.372,0.168,0.911,0.264,1.607,0.288c0.623,0.012,1.402,0.023,2.338,0.023c0.552,0,1.128-0.012,1.716-0.023
			c0.575-0.012,1.02-0.024,1.331-0.048l-0.204,0.863h-2.723C445.101,372.415,444.393,372.403,443.638,372.391z M440.795,363.684
			l-0.624,0.612c-0.479-0.588-1.151-1.224-2.003-1.907l0.588-0.563C439.56,362.448,440.243,363.061,440.795,363.684z
			 M448.375,364.98v0.804h-3.778c-0.659,1.679-1.247,2.866-1.774,3.573c1.606-0.144,2.95-0.336,4.006-0.575
			c-0.288-0.66-0.612-1.296-0.948-1.919l0.708-0.228c0.647,1.103,1.211,2.374,1.715,3.802l-0.768,0.203
			c-0.132-0.384-0.264-0.743-0.396-1.103c-1.331,0.287-3.095,0.516-5.289,0.684l-0.229-0.756c0.48-0.145,1.188-1.379,2.111-3.682
			h-2.435v-0.804h7.077V364.98z M447.523,362.112v0.804h-5.434v-0.804H447.523z"/>
		<path style="fill:#878787;" d="M452.759,362.461v-0.804h0.863v0.804h3.19v-0.804h0.864v0.804h2.698v0.755h-2.698v0.708h-0.864
			v-0.708h-3.19v0.708h-0.863v-0.708h-2.698v-0.755H452.759z M460.039,366.67h-0.827v-1.511h-7.988v1.571h-0.827v-2.303h9.643v2.243
			L460.039,366.67L460.039,366.67z M459.344,372.643h-0.828v-0.491h-6.513v0.491h-0.839v-3.382h8.18V372.643z M458.516,371.42
			v-1.439h-6.513v1.439H458.516z M458.228,366.011v2.435h-5.973v-2.435H458.228z M457.425,366.683h-4.366v1.103h4.366V366.683z"/>
		<path style="fill:#878787;" d="M465.131,361.933c-0.288,0.888-0.647,1.715-1.067,2.507v8.216h-0.876v-6.801
			c-0.407,0.563-0.839,1.104-1.307,1.607l-0.288-0.924c1.247-1.438,2.159-3.106,2.723-4.977L465.131,361.933z M471.499,362.173
			v3.777h-2.41v1.308h3.454v0.84h-2.603c0.684,1.211,1.619,2.255,2.807,3.13l-0.552,0.756c-1.188-1.044-2.171-2.339-2.951-3.886
			h-0.155v4.533h-0.864v-4.533h-0.144c-0.804,1.667-1.811,2.962-3.034,3.897l-0.479-0.779c1.151-0.792,2.099-1.823,2.818-3.118
			h-2.495v-0.84h3.334v-1.308h-2.386v-3.777L471.499,362.173L471.499,362.173z M470.647,363h-3.958v2.123h3.958V363z"/>
		<path style="fill:#878787;" d="M477.646,362.089v0.684c-0.336,1.104-0.731,2.243-1.188,3.43c0.695,1.067,1.079,2.039,1.128,2.902
			c0,0.517-0.12,0.888-0.336,1.128c-0.3,0.288-0.828,0.432-1.596,0.443l-0.275-0.875c0.18,0.023,0.336,0.048,0.468,0.048
			c0.359-0.024,0.6-0.084,0.72-0.192c0.12-0.107,0.18-0.287,0.18-0.552c0-0.827-0.384-1.751-1.128-2.771
			c0.504-1.271,0.888-2.41,1.176-3.43h-1.751v9.738h-0.84v-10.554L477.646,362.089L477.646,362.089z M480.645,362.545
			c-0.096-0.3-0.191-0.576-0.312-0.828l0.876-0.144c0.096,0.288,0.203,0.611,0.3,0.972h2.782v0.743h-1.115
			c-0.097,0.432-0.24,0.827-0.408,1.199h1.775v0.731h-6.956v-0.731h1.942c-0.12-0.443-0.252-0.84-0.372-1.199h-1.079v-0.743
			L480.645,362.545L480.645,362.545z M483.871,365.986v3.61h-2.278v0.852h3.046v0.743h-3.046v1.439h-0.888v-1.439h-3.106v-0.743
			h3.106v-0.852h-2.351v-3.61H483.871z M483.067,367.498v-0.815h-3.874v0.815H483.067z M483.067,368.146h-3.874v0.756h3.874V368.146
			z M482.348,363.288h-2.326c0.12,0.359,0.239,0.768,0.348,1.199h1.571C482.108,364.104,482.252,363.696,482.348,363.288z"/>
	</g>
</g>
<g>
	<path style="fill:#00A3FF;" d="M371.358,206.872c-0.497,0.492-1.384,1.051-2.84,1.1c-0.673,0.023-1.46,0.025-1.819,0.025
		c-0.393,0-3.855,0-7.823,0c2.846-2.765,5.329-5.176,5.611-5.45c0.258-0.251,0.838-0.806,1.339-1.257
		c1.099-0.99,2.088-1.189,2.788-1.182c1.096,0.01,2.093,0.458,2.806,1.181C372.944,202.848,372.908,205.339,371.358,206.872
		 M373.232,199.516c-1.169-1.192-2.798-1.943-4.61-1.943c-1.566,0-2.914,0.54-4.091,1.498c-0.513,0.418-1.051,0.918-1.728,1.576
		c-0.336,0.327-10.086,9.787-10.086,9.787c0.511,0.073,1.214,0.094,1.841,0.098c0.587,0.004,11.789,0.003,12.258,0.003
		c0.944,0,1.558-0.001,2.218-0.049c1.513-0.11,2.943-0.665,4.098-1.8C375.698,206.165,375.736,202.076,373.232,199.516z"/>
	<path style="fill:#00C8DC;" d="M357.502,198.908c-1.146-0.858-2.429-1.337-3.884-1.335c-1.811,0-3.441,0.751-4.61,1.943
		c-2.504,2.559-2.466,6.649,0.1,9.169c1.03,1.012,2.278,1.562,3.609,1.748l2.51-2.436c-0.406-0.002-0.988-0.007-1.505-0.025
		c-1.456-0.049-2.343-0.608-2.84-1.1c-1.549-1.533-1.585-4.024-0.061-5.582c0.713-0.723,1.71-1.17,2.806-1.181
		c0.687-0.003,1.619,0.197,2.673,1.07c0.503,0.417,1.619,1.398,2.109,1.84c0.025,0.022,0.055,0.024,0.084,0.001l1.728-1.686
		c0.03-0.029,0.028-0.068-0.001-0.095C359.39,200.487,358.211,199.436,357.502,198.908"/>
	<path style="fill:#006EFF;" d="M369.302,196.109c-1.193-3.369-4.404-5.783-8.182-5.783c-4.333,0-7.924,3.186-8.574,7.337
		c0.348-0.059,0.706-0.09,1.072-0.09c0.509-0.001,0.996,0.059,1.464,0.171c0.009,0.002,0.018,0.003,0.027,0.005
		c0.587-2.802,3.064-4.884,6.01-4.884c2.454,0,4.606,1.48,5.576,3.577c0.015,0.033,0.041,0.044,0.068,0.037
		c0.73-0.201,1.605-0.317,2.45-0.255C369.297,196.231,369.329,196.184,369.302,196.109"/>
</g>
<path style="fill:none;stroke:#BABABA;stroke-dasharray:5;" d="M5.179,60.334h820v280h-820L5.179,60.334"/>
</svg>
