<svg xmlns="http://www.w3.org/2000/svg" width="48" height="49" viewBox="0 0 48 49">
  <g fill="none" transform="translate(0 4)">
    <path fill="#334966" d="M2,2 L2,36 L46,36 L46,2 L2,2 Z M0,0 L48,0 L48,38 L0,38 L0,0 Z"/>
    <polygon fill="#00A4FF" points="30 24.772 23.82 28.021 25 21.139 20 16.265 26.91 15.261 30 9 33.09 15.261 40 16.265 35 21.139 36.18 28.021"/>
    <rect width="24" height="2" x="12" y="40" fill="#334966"/>
    <path fill="#334966" d="M18,22.4954044 L21.5236357,24.3458314 L20.8507495,20.4269616 L23.6986901,17.6539895 L19.7626856,17.0826899 L18,13.5150664 L16.2373144,17.0826899 L12.3013099,17.6539895 L15.1492505,20.4269616 L14.4763643,24.3458314 L18,22.4954044 Z M18,24.7544125 L11.8196601,28 L13,21.1257354 L8,16.2573542 L14.9098301,15.2544125 L18,9 L21.0901699,15.2544125 L28,16.2573542 L23,21.1257354 L24.1803399,28 L18,24.7544125 Z"/>
    <circle cx="5" cy="5" r="1" fill="#00A4FF"/>
    <circle cx="8" cy="5" r="1" fill="#334966"/>
  </g>
</svg>
