<?xml version="1.0" encoding="utf-8"?>
<!-- Generator: Adobe Illustrator 22.1.0, SVG Export Plug-In . SVG Version: 6.00 Build 0)  -->
<svg version="1.1" id="图层_1" xmlns="http://www.w3.org/2000/svg" xmlns:xlink="http://www.w3.org/1999/xlink" x="0px" y="0px"
	 viewBox="0 0 830 408.7" style="enable-background:new 0 0 830 408.7;" xml:space="preserve">
<style type="text/css">
	.st0{display:none;fill:none;stroke:#999999;}
	.st1{fill:none;stroke:#BABABA;stroke-dasharray:5;}
	.st2{opacity:0.6;fill:#BBBBBB;enable-background:new    ;}
	.st3{fill:#FFFFFF;stroke:#E5E5E5;}
	.st4{fill:#00A4FF;}
	.st5{enable-background:new    ;}
	.st6{fill:#444444;}
	.st7{fill:#CEE3FF;}
	.st8{fill:#000444;}
	.st9{fill:#878787;}
	.st10{fill:none;stroke:#878787;stroke-miterlimit:10;}
</style>
<path class="st0" d="M0-157.4L0-157.4"/>
<g id="middlegroup" transform="translate(0,0)">
</g>
<path class="st1" d="M644.3,9.4h160v198.5h-160V9.4"/>
<g>
	<rect x="659.2" y="24.9" class="st2" width="132.1" height="50"/>
	<rect x="657.3" y="22.9" class="st3" width="132.1" height="50"/>
</g>
<g transform="translate(20 9)">
	<g>
		<path class="st4" d="M662.1,52.9c-7.2,0-13-5.8-13-13s5.8-13,13-13c6.4,0,11.9,4.7,12.9,11h2c-1.1-8.2-8.7-14-16.9-12.9
			s-14,8.7-12.9,16.9s8.7,14,16.9,12.9c6.7-0.9,12-6.2,12.9-12.9h-2C673.9,48.3,668.5,52.9,662.1,52.9z M669.1,35.9l-7-4l-7,4v8
			l3.2,1.8c0.2-0.6,0.5-1.2,1-1.7l-2.2-1.3V39l5,2.9l5-2.9v3.7l-4.1,2.4c-1-0.5-2.2-0.1-2.7,0.9s-0.1,2.2,0.9,2.7s2.2,0.1,2.7-0.9
			c0.1-0.3,0.2-0.6,0.2-0.9v-0.1l5-2.9L669.1,35.9L669.1,35.9z M662.1,39.6l-4.7-2.7l4.7-2.7l4.7,2.7L662.1,39.6z"/>
	</g>
	<g class="st5">
		<path class="st6" d="M689.4,34.9l2.2,8.4h0.1l2.3-8.4h1.2l2.3,8.4h0.1l2.2-8.4h1.3l-2.9,10h-1.3l-2.3-8.3l0,0l-2.3,8.3H691
			l-2.9-10H689.4z"/>
		<path class="st6" d="M709.2,34.9v1h-5.9v3.3h5.6v1h-5.6V44h6.2v1h-7.3V35L709.2,34.9L709.2,34.9z"/>
		<path class="st6" d="M715.5,34.9c0.9,0,1.7,0.2,2.2,0.7c0.5,0.4,0.8,1.1,0.8,1.8c0,0.6-0.2,1.1-0.4,1.5c-0.3,0.4-0.7,0.6-1.2,0.8
			c0.7,0.1,1.2,0.4,1.5,0.8c0.4,0.4,0.6,1,0.6,1.6c0,1-0.4,1.7-1,2.2c-0.6,0.4-1.4,0.6-2.4,0.6H711v-10
			C711,34.9,715.5,34.9,715.5,34.9z M712.1,39.3h3c0.7,0,1.2-0.2,1.6-0.4c0.4-0.3,0.6-0.7,0.6-1.3s-0.2-1-0.5-1.3s-0.9-0.4-1.6-0.4
			h-3.1V39.3z M712.1,44h3.2c0.7,0,1.2-0.1,1.7-0.4c0.5-0.3,0.7-0.8,0.7-1.4s-0.2-1.1-0.6-1.4c-0.4-0.3-1-0.4-1.8-0.4h-3.2L712.1,44
			L712.1,44z"/>
		<path class="st6" d="M721,46.4l-0.8-0.7c0.6-1.3,0.8-2.9,0.9-4.8v-6.7h4.1V45c0,0.8-0.4,1.3-1.2,1.3h-1.1l-0.2-0.9
			c0.4,0,0.7,0.1,1.1,0.1c0.4,0,0.5-0.3,0.5-0.8v-3.2H722C721.9,43.5,721.6,45.1,721,46.4z M724.3,35H722v2.4h2.3V35z M722,40.6h2.3
			v-2.3H722V40.6z M727.3,46.4h-1V34.1h5.7c0,1.7-0.1,2.9-0.3,3.4c-0.2,0.6-0.7,0.9-1.6,0.9H729l-0.3-0.9c0.2,0,0.5,0,0.9,0
			c0.3,0,0.6,0,0.7-0.1c0.2-0.1,0.3-0.2,0.4-0.4c0.1-0.3,0.2-1,0.2-2.1h-3.7v4.2h4.8V40c-0.3,1.4-0.7,2.7-1.4,3.7
			c0.6,0.6,1.4,1.2,2.2,1.7l-0.5,0.9c-0.9-0.5-1.7-1.1-2.3-1.7c-0.6,0.7-1.3,1.3-2.2,1.7l-0.5-0.8c0.8-0.4,1.5-1,2-1.7
			c-0.9-1.1-1.5-2.3-1.8-3.7h-0.3L727.3,46.4L727.3,46.4z M730,43.1c0.5-0.8,0.9-1.8,1.1-2.9h-2.7C728.8,41.2,729.3,42.2,730,43.1z"
			/>
		<path class="st6" d="M739.3,33.6c-0.2,0.4-0.3,0.7-0.5,1.1h6.1v0.8c-0.9,1-2,1.9-3.3,2.6c1.6,0.7,3.3,1.1,5.3,1.3l-0.5,0.9
			c-2.2-0.3-4.2-0.8-5.9-1.7c-1.7,0.8-3.7,1.4-6,1.7l-0.5-1c2-0.3,3.8-0.7,5.4-1.3c-0.8-0.5-1.5-1-2.2-1.6c-0.5,0.5-1.1,0.9-1.8,1.3
			l-0.6-0.8c1.7-1,2.8-2.1,3.4-3.5L739.3,33.6z M740.6,39.7c0,0.6-0.1,1.1-0.1,1.6h4.9c0,2.4-0.2,3.8-0.6,4.2
			c-0.4,0.5-1.1,0.7-2.1,0.7c-0.4,0-1,0-1.6-0.1l-0.3-0.9l1.7,0.1c0.8,0,1.4-0.2,1.6-0.5c0.2-0.3,0.3-1.2,0.4-2.6h-4.1
			c-0.1,0.4-0.3,0.7-0.4,1c-0.7,1.3-2.4,2.3-4.9,3.1l-0.7-0.8c2.3-0.7,3.8-1.5,4.6-2.5c0.2-0.3,0.3-0.5,0.4-0.8H735v-0.9h4.5
			c0.1-0.5,0.2-1,0.2-1.6H740.6z M743.4,35.6H738l-0.2,0.2c0.8,0.7,1.7,1.3,2.6,1.8C741.6,37,742.6,36.4,743.4,35.6z"/>
		<path class="st6" d="M753,38.8c0.3-0.4,0.5-0.7,0.6-1.1l1,0.1c-0.1,0.4-0.3,0.7-0.5,1h3.6c-0.2-0.3-0.4-0.7-0.6-1l0.9-0.3
			c0.3,0.4,0.5,0.8,0.8,1.2h1.9v0.9h-3.8c0.9,0.8,2.3,1.5,4.1,2l-0.4,0.9c-0.4-0.1-0.7-0.2-1-0.3v4.1h-0.9v-0.6H756v0.6h-0.9V42h3.7
			c-1.3-0.6-2.4-1.4-3.1-2.2h-2.4c-0.8,0.9-1.8,1.6-3.2,2.2h3.5v4.4h-0.9v-0.6h-2.4v0.6h-0.9v-4.1c-0.4,0.1-0.8,0.3-1.1,0.4
			l-0.5-0.8c1.8-0.5,3.2-1.2,4.1-2.1H748v-0.9h5V38.8z M753.7,34v3.4h-4.3V34H753.7z M752.8,34.9h-2.4v1.7h2.4V34.9z M752.9,44.9
			v-2.1h-2.4v2.1H752.9z M759.6,34v3.4h-4.4V34H759.6z M758.7,44.9v-2.1H756v2.1H758.7z M758.7,34.9h-2.5v1.7h2.5V34.9z"/>
	</g>
</g>
<g>
	<rect x="659.2" y="84.9" class="st2" width="132.1" height="50"/>
	<rect x="657.3" y="82.9" class="st3" width="132.1" height="50"/>
</g>
<g transform="translate(20 9)">
	<g>
		<path class="st4" d="M663.8,112.9c-7.2,0-13-5.8-13-13s5.8-13,13-13c6.4,0,11.9,4.7,12.9,11h2c-1.1-8.2-8.7-14-16.9-12.9
			s-14,8.7-12.9,16.9s8.7,14,16.9,12.9c6.7-0.9,12-6.2,12.9-12.9h-2C675.7,108.3,670.2,112.9,663.8,112.9z M670.8,95.9l-7-4l-7,4v8
			l3.2,1.8c0.2-0.6,0.5-1.2,1-1.7l-2.2-1.3V99l5,2.9l5-2.9v3.7l-4.1,2.4c-1-0.5-2.2-0.1-2.7,0.9s-0.1,2.2,0.9,2.7s2.2,0.1,2.7-0.9
			c0.1-0.3,0.2-0.6,0.2-0.9v-0.1l5-2.9L670.8,95.9L670.8,95.9z M663.8,99.6l-4.7-2.7l4.7-2.7l4.7,2.7L663.8,99.6z"/>
	</g>
	<g class="st5">
		<path class="st6" d="M693.1,101.4c-0.5,1.7-1.1,3.3-1.8,4.7l-0.9-0.4c0.7-1.5,1.3-3.1,1.8-4.7L693.1,101.4z M693.2,99.2l-0.7,0.7
			c-0.5-0.6-1.1-1.3-2-1.9l0.7-0.7C692,97.9,692.6,98.5,693.2,99.2z M693.1,95.5l-0.7,0.7c-0.5-0.6-1.1-1.2-1.9-1.8l0.7-0.7
			C692,94.4,692.6,94.9,693.1,95.5z M693.3,96.7v-1h2c-0.2-0.8-0.4-1.5-0.6-2.1l1-0.2c0.2,0.7,0.4,1.4,0.6,2.3h1.6v1h-2.5v1
			c0,0.4,0,0.7,0,1.1h2.3c0,3.3-0.1,5.3-0.2,6.1c-0.1,0.9-0.5,1.3-1.3,1.3c-0.2,0-0.5,0-1-0.1l-0.2-0.9c0.4,0,0.8,0,1.1,0
			s0.4-0.3,0.5-0.8s0.2-2.1,0.2-4.7h-1.4c-0.2,2.9-0.8,5.1-1.9,6.6l-0.7-0.7c1.1-1.7,1.7-4.3,1.7-8v-1L693.3,96.7L693.3,96.7z
			 M698,98.7l-0.6-0.8c0.9-1.1,1.5-2.6,1.8-4.6l1,0.2c-0.1,0.7-0.3,1.3-0.4,1.9h3.5v1h-3.8C699,97.4,698.6,98.1,698,98.7z
			 M702.8,97.9v0.9c-0.4,0.6-0.9,1.1-1.5,1.7v0.9h1.9v0.9h-1.9v2.5c0,0.9-0.4,1.3-1.1,1.3H699l-0.2-0.9c0.3,0,0.7,0,1.1,0
			c0.3,0,0.4-0.3,0.4-0.7v-2.2h-2.1v-0.9h2.1v-1c0.6-0.6,1-1.2,1.3-1.5H699V98h3.8V97.9z"/>
		<path class="st6" d="M707.8,99.8c0.4-1.2,0.7-2.5,0.9-3.9H705v-1h4.7v0.9c-0.1,1.8-0.5,3.5-1.1,4.9c0.6,0.8,1.2,1.6,1.7,2.4
			l-0.7,0.7c-0.4-0.7-0.9-1.4-1.4-2.1c-0.8,1.4-1.8,2.7-3.1,3.7l-0.6-0.8c1.3-1.1,2.3-2.4,3-3.9c-0.8-1-1.6-1.9-2.5-2.9l0.7-0.7
			C706.4,98,707.1,98.9,707.8,99.8z M716.8,97.8l-3.8,0.6c0.1,0.7,0.1,1.3,0.2,1.8c0.1,0.7,0.3,1.2,0.4,1.8c0.8-0.9,1.4-1.9,2-3.1
			l0.8,0.5c-0.8,1.4-1.6,2.6-2.5,3.6c0.1,0.3,0.2,0.5,0.3,0.8c0.4,0.8,0.8,1.2,1.2,1.2c0.2-0.1,0.5-0.9,0.7-2.5l0.9,0.6
			c-0.2,0.8-0.4,1.5-0.6,2c-0.3,0.7-0.6,1-0.9,1c-0.6,0-1.1-0.4-1.7-1.3c-0.2-0.3-0.4-0.7-0.6-1.1c-0.9,0.8-1.9,1.5-2.9,1.9
			l-0.6-0.8c1.2-0.5,2.2-1.1,3.2-2c-0.2-0.6-0.4-1.2-0.5-1.8c-0.2-0.7-0.3-1.5-0.4-2.4l-1.8,0.3l-0.2-1l1.8-0.3
			c-0.1-1.2-0.2-2.5-0.2-4h1c0,1.4,0,2.7,0.1,3.9l3.7-0.6L716.8,97.8z M716,95.7l-0.8,0.6c-0.4-0.6-0.9-1.2-1.5-1.9l0.8-0.5
			C715.2,94.6,715.7,95.2,716,95.7z"/>
		<path class="st6" d="M719.3,106.4l-0.8-0.7c0.6-1.3,0.8-2.9,0.9-4.8v-6.7h4.1V105c0,0.8-0.4,1.3-1.2,1.3h-1.1l-0.2-0.9
			c0.4,0,0.7,0.1,1.1,0.1c0.3,0,0.5-0.3,0.5-0.8v-3.2h-2.3C720.3,103.5,719.9,105.1,719.3,106.4z M722.6,95h-2.3v2.4h2.3V95z
			 M720.4,100.6h2.3v-2.3h-2.3V100.6z M725.7,106.4h-1V94.1h5.7c0,1.7-0.1,2.9-0.3,3.4c-0.2,0.6-0.7,0.9-1.6,0.9h-1.1l-0.3-0.9
			c0.2,0,0.5,0,0.9,0c0.3,0,0.6,0,0.7-0.1c0.2-0.1,0.3-0.2,0.4-0.4c0.1-0.3,0.2-1,0.2-2.1h-3.7v4.2h4.8v0.9
			c-0.3,1.4-0.7,2.7-1.4,3.7c0.6,0.6,1.4,1.2,2.2,1.7l-0.5,0.9c-0.9-0.5-1.7-1.1-2.3-1.7c-0.6,0.7-1.3,1.3-2.2,1.7l-0.5-0.8
			c0.8-0.4,1.5-1,2-1.7c-0.9-1.1-1.5-2.3-1.8-3.7h-0.3L725.7,106.4L725.7,106.4z M728.4,103.1c0.5-0.8,0.9-1.8,1.1-2.9h-2.7
			C727.2,101.2,727.7,102.2,728.4,103.1z"/>
		<path class="st6" d="M737.6,93.6c-0.2,0.4-0.3,0.7-0.5,1.1h6.1v0.8c-0.9,1-2,1.9-3.3,2.6c1.6,0.7,3.3,1.1,5.3,1.3l-0.5,0.9
			c-2.2-0.3-4.2-0.8-5.9-1.7c-1.7,0.8-3.7,1.4-6,1.7l-0.5-1c2-0.3,3.8-0.7,5.4-1.3c-0.8-0.5-1.5-1-2.2-1.6c-0.5,0.5-1.1,0.9-1.8,1.3
			l-0.6-0.8c1.7-1,2.8-2.1,3.4-3.5L737.6,93.6z M739,99.7c0,0.6-0.1,1.1-0.1,1.6h4.9c0,2.4-0.2,3.8-0.6,4.2
			c-0.4,0.5-1.1,0.7-2.1,0.7c-0.4,0-1,0-1.6-0.1l-0.3-0.9l1.7,0.1c0.8,0,1.4-0.2,1.6-0.5c0.2-0.3,0.3-1.2,0.4-2.6h-4.1
			c-0.1,0.4-0.3,0.7-0.4,1c-0.7,1.3-2.4,2.3-4.9,3.1l-0.7-0.8c2.3-0.7,3.8-1.5,4.6-2.5c0.2-0.3,0.3-0.5,0.4-0.8h-4.2v-0.9h4.5
			c0.1-0.5,0.2-1,0.2-1.6L739,99.7L739,99.7z M741.8,95.6h-5.4l-0.2,0.2c0.8,0.7,1.7,1.3,2.6,1.8C740,97,740.9,96.4,741.8,95.6z"/>
		<path class="st6" d="M751.3,98.8c0.3-0.4,0.5-0.7,0.6-1.1l1,0.1c-0.1,0.4-0.3,0.7-0.5,1h3.6c-0.2-0.3-0.4-0.7-0.6-1l0.9-0.3
			c0.3,0.4,0.5,0.8,0.8,1.2h1.9v0.9h-3.8c0.9,0.8,2.3,1.5,4.1,2l-0.4,0.9c-0.3-0.1-0.7-0.2-1-0.3v4.1H757v-0.6h-2.6v0.6h-0.9V102
			h3.7c-1.3-0.6-2.4-1.4-3.1-2.2h-2.4c-0.8,0.9-1.8,1.6-3.2,2.2h3.5v4.4h-0.9v-0.6h-2.4v0.6H748v-4.1c-0.4,0.1-0.8,0.3-1.1,0.4
			l-0.5-0.8c1.8-0.5,3.2-1.2,4.1-2.1h-3.9v-0.9L751.3,98.8L751.3,98.8z M752,94v3.4h-4.3V94H752z M751.1,94.9h-2.4v1.7h2.4V94.9z
			 M751.2,104.9v-2.1h-2.4v2.1H751.2z M757.9,94v3.4h-4.4V94H757.9z M757,104.9v-2.1h-2.6v2.1H757z M757,94.9h-2.5v1.7h2.5V94.9z"/>
	</g>
</g>
<g>
	<rect x="659.2" y="144.9" class="st2" width="132.1" height="50"/>
	<rect x="657.3" y="142.9" class="st3" width="132.1" height="50"/>
</g>
<g transform="translate(20 9)">
	<g>
		<path class="st4" d="M664.2,172.9c-7.2,0-13-5.8-13-13s5.8-13,13-13c6.4,0,11.9,4.7,12.9,11h2c-1.1-8.2-8.7-14-16.9-12.9
			s-14,8.7-12.9,16.9s8.7,14,16.9,12.9c6.7-0.9,12-6.2,12.9-12.9h-2C676.1,168.3,670.6,172.9,664.2,172.9z M671.2,155.9l-7-4l-7,4v8
			l3.2,1.8c0.2-0.6,0.5-1.2,1-1.7l-2.2-1.3V159l5,2.9l5-2.9v3.7l-4.1,2.4c-1-0.5-2.2-0.1-2.7,0.9s-0.1,2.2,0.9,2.7s2.2,0.1,2.7-0.9
			c0.1-0.3,0.2-0.6,0.2-0.9v-0.1l5-2.9L671.2,155.9L671.2,155.9z M664.2,159.6l-4.7-2.7l4.7-2.7l4.7,2.7L664.2,159.6z"/>
	</g>
	<g class="st5">
		<path class="st6" d="M695.5,154.9l3.9,10h-1.2l-1.1-2.8h-4.6l-1.1,2.8h-1.2l3.9-10H695.5z M696.7,161.2l-1.9-5h-0.1l-1.9,5H696.7z
			"/>
		<path class="st6" d="M704.5,154.9c2.3,0,3.4,1,3.4,2.9c0,2-1.2,3-3.5,3h-2.9v4.1h-1.1v-10H704.5z M701.6,159.9h2.9
			c0.8,0,1.4-0.2,1.8-0.5c0.4-0.3,0.6-0.8,0.6-1.5s-0.2-1.2-0.6-1.5c-0.4-0.3-1-0.5-1.8-0.5h-2.9V159.9z"/>
		<path class="st6" d="M713.5,154.9c2.3,0,3.4,1,3.4,2.9c0,2-1.2,3-3.5,3h-2.9v4.1h-1.1v-10H713.5z M710.6,159.9h2.9
			c0.8,0,1.4-0.2,1.8-0.5c0.4-0.3,0.6-0.8,0.6-1.5s-0.2-1.2-0.6-1.5c-0.4-0.3-1-0.5-1.8-0.5h-2.9V159.9z"/>
		<path class="st6" d="M718.9,166.4l-0.8-0.7c0.6-1.3,0.8-2.9,0.9-4.8v-6.7h4.1V165c0,0.8-0.4,1.3-1.2,1.3h-1.1l-0.2-0.9
			c0.4,0,0.7,0.1,1.1,0.1c0.3,0,0.5-0.3,0.5-0.8v-3.2h-2.3C719.8,163.5,719.5,165.1,718.9,166.4z M722.2,155h-2.3v2.4h2.3V155z
			 M719.9,160.6h2.3v-2.3h-2.3V160.6z M725.2,166.4h-1v-12.3h5.7c0,1.7-0.1,2.9-0.3,3.4c-0.2,0.6-0.7,0.9-1.6,0.9h-1l-0.3-0.9
			c0.2,0,0.5,0,0.9,0c0.3,0,0.6,0,0.7-0.1c0.2-0.1,0.3-0.2,0.4-0.4c0.1-0.3,0.2-1,0.2-2.1h-3.7v4.2h4.8v0.9
			c-0.3,1.4-0.7,2.7-1.4,3.7c0.6,0.6,1.4,1.2,2.2,1.7l-0.5,0.9c-0.9-0.5-1.7-1.1-2.3-1.7c-0.6,0.7-1.3,1.3-2.2,1.7l-0.5-0.8
			c0.8-0.4,1.5-1,2-1.7c-0.9-1.1-1.5-2.3-1.8-3.7h-0.3L725.2,166.4L725.2,166.4z M728,163.1c0.5-0.8,0.9-1.8,1.1-2.9h-2.7
			C726.7,161.2,727.2,162.2,728,163.1z"/>
		<path class="st6" d="M737.2,153.6c-0.2,0.4-0.3,0.7-0.5,1.1h6.1v0.8c-0.9,1-2,1.9-3.3,2.6c1.6,0.7,3.3,1.1,5.3,1.3l-0.5,0.9
			c-2.2-0.3-4.2-0.8-5.9-1.7c-1.7,0.8-3.7,1.4-6,1.7l-0.5-1c2-0.3,3.8-0.7,5.4-1.3c-0.8-0.5-1.5-1-2.2-1.6c-0.5,0.5-1.1,0.9-1.8,1.3
			l-0.6-0.8c1.7-1,2.8-2.1,3.4-3.5L737.2,153.6z M738.6,159.7c0,0.6-0.1,1.1-0.1,1.6h4.9c0,2.4-0.2,3.8-0.6,4.2
			c-0.4,0.5-1.1,0.7-2.1,0.7c-0.4,0-1,0-1.6-0.1l-0.3-0.9l1.7,0.1c0.8,0,1.4-0.2,1.6-0.5c0.2-0.3,0.3-1.2,0.4-2.6h-4.1
			c-0.1,0.4-0.3,0.7-0.4,1c-0.7,1.3-2.4,2.3-4.9,3.1l-0.7-0.8c2.3-0.7,3.8-1.5,4.6-2.5c0.2-0.3,0.3-0.5,0.4-0.8h-4.2v-0.9h4.5
			c0.1-0.5,0.2-1,0.2-1.6H738.6z M741.4,155.6H736l-0.2,0.2c0.8,0.7,1.7,1.3,2.6,1.8C739.5,157,740.5,156.4,741.4,155.6z"/>
		<path class="st6" d="M750.9,158.8c0.3-0.4,0.5-0.7,0.6-1.1l1,0.1c-0.1,0.4-0.3,0.7-0.5,1h3.6c-0.2-0.3-0.4-0.7-0.6-1l0.9-0.3
			c0.3,0.4,0.5,0.8,0.8,1.2h1.9v0.9h-3.8c0.9,0.8,2.3,1.5,4.1,2l-0.4,0.9c-0.3-0.1-0.7-0.2-1-0.3v4.1h-0.9v-0.6H754v0.6h-0.9V162
			h3.7c-1.3-0.6-2.4-1.4-3.1-2.2h-2.4c-0.8,0.9-1.8,1.6-3.2,2.2h3.5v4.4h-0.9v-0.6h-2.4v0.6h-0.9v-4.1c-0.4,0.1-0.8,0.3-1.1,0.4
			l-0.5-0.8c1.8-0.5,3.2-1.2,4.1-2.1H746v-0.9L750.9,158.8L750.9,158.8z M751.6,154v3.4h-4.3V154H751.6z M750.7,154.9h-2.4v1.7h2.4
			V154.9z M750.8,164.9v-2.1h-2.4v2.1H750.8z M757.5,154v3.4h-4.4V154H757.5z M756.6,164.9v-2.1H754v2.1H756.6z M756.6,154.9h-2.5
			v1.7h2.5V154.9z"/>
	</g>
</g>
<rect x="37.1" y="237.1" class="st7" width="277" height="155.5"/>
<g transform="translate(10 10)">
	<g class="st5">
		<path class="st6" d="M26.9,10.1h3c0,2.4-0.1,3.9-0.2,4.6c-0.2,0.8-0.9,1.2-2.1,1.3c-0.3,0-0.7,0-1-0.1L26.3,15
			c0.3,0,0.7,0.1,1,0.1c0.8,0,1.3-0.3,1.4-0.8c0.1-0.5,0.2-1.7,0.2-3.3h-3.1l0.4-4h2.6V4.8H26V3.9h3.8v4h-2.6L26.9,10.1z M35.1,5.6
			c0.4-0.8,0.8-1.5,1.1-2.4l1,0.3c-0.3,0.8-0.7,1.4-1.1,2h1.8v5.6h-3v1.4h3.6v0.9h-3.6v2.7h-1v-2.7h-3.5v-0.9h3.5v-1.4H31V5.6H35.1z
			 M33.8,5.2l-0.9,0.4c-0.3-0.7-0.7-1.4-1.1-1.9l0.9-0.3C33.1,3.9,33.5,4.5,33.8,5.2z M33.9,8V6.5h-2V8H33.9z M33.9,8.9h-2v1.5h2
			V8.9z M34.9,8H37V6.5h-2.1V8z M37,8.9h-2.1v1.5H37V8.9z"/>
		<path class="st6" d="M41,6.1c0,1.4-0.2,2.7-0.5,4l-0.8-0.2c0.3-1.2,0.5-2.5,0.5-3.8L41,6.1z M42.8,3.4v12.7h-1V3.4H42.8z
			 M44.5,8.1c0.5-1.2,0.8-2.5,0.8-3.9l0.9,0.1c0,0.6-0.1,1.1-0.2,1.7h2V3.4h1V6h3.1v1h-3.1v3.4h2.8v1h-2.8v3.4h3.4v1H44v-1h4v-3.4
			h-3.2v-1H48V7h-2.2c-0.3,1-0.6,2-1.1,2.8L44,9.1c0.2-0.3,0.3-0.6,0.4-0.9l-0.7,0.2c-0.2-0.9-0.5-1.7-0.8-2.5l0.7-0.2
			C44,6.4,44.2,7.2,44.5,8.1z"/>
		<path class="st6" d="M55.7,4.8l3.7,8.5l0,0L63,4.8h1.4v10h-1.1v-8l0,0l-3.5,8h-1l-3.5-8l0,0v8h-1.1v-10H55.7z"/>
		<path class="st6" d="M71.8,8.2c0.4,0.5,0.6,1.1,0.6,2v4.7h-1.1v-1.2c-0.3,0.4-0.7,0.7-1.1,1c-0.5,0.3-1.1,0.4-1.8,0.4
			c-0.7,0-1.3-0.2-1.7-0.5c-0.4-0.4-0.7-0.9-0.7-1.5c0-0.8,0.3-1.4,1-1.9c0.6-0.4,1.4-0.6,2.5-0.6h1.7v-0.4c0-1.2-0.6-1.8-1.9-1.8
			c-0.5,0-1,0.1-1.3,0.3c-0.4,0.2-0.6,0.6-0.7,1l-1.1-0.1c0.2-0.8,0.5-1.3,1.1-1.7c0.5-0.3,1.2-0.5,2.1-0.5
			C70.5,7.3,71.3,7.6,71.8,8.2z M69.7,11.3c-1.6,0-2.4,0.6-2.4,1.6c0,0.3,0.1,0.6,0.4,0.8s0.6,0.3,1.1,0.3c0.7,0,1.3-0.2,1.8-0.7
			c0.5-0.4,0.8-0.9,0.8-1.5v-0.6L69.7,11.3z"/>
		<path class="st6" d="M80.2,8.5c0.5,0.7,0.8,1.6,0.8,2.7s-0.3,1.9-0.8,2.6c-0.6,0.8-1.4,1.1-2.4,1.1s-1.8-0.5-2.4-1.5v4.1h-1.1v-10
			h1.1v1.2c0.5-0.9,1.3-1.4,2.4-1.4C78.8,7.3,79.5,7.7,80.2,8.5z M75.8,9.1c-0.4,0.5-0.5,1.2-0.5,2v0.1c0,0.8,0.2,1.5,0.6,2
			s0.9,0.8,1.6,0.8c0.8,0,1.4-0.3,1.8-0.8s0.5-1.2,0.5-2.1c0-0.9-0.2-1.5-0.5-2c-0.4-0.6-1-0.9-1.8-0.9C76.8,8.3,76.2,8.5,75.8,9.1z
			"/>
		<path class="st6" d="M86.8,4.8c1,0,1.8,0.2,2.4,0.7s0.9,1.2,0.9,2.1c0,0.6-0.2,1.1-0.5,1.5c-0.3,0.4-0.8,0.7-1.4,0.9l0,0
			c1,0.2,1.5,0.8,1.6,1.8l0.2,1.5c0.1,0.6,0.2,1.1,0.5,1.5h-1.2c-0.2-0.3-0.4-0.8-0.4-1.3l-0.1-1.3c-0.1-0.6-0.3-1-0.6-1.3
			c-0.3-0.3-0.8-0.4-1.4-0.4h-3v4.3h-1.1v-10H86.8z M83.8,9.5h3c0.7,0,1.3-0.2,1.7-0.5c0.4-0.3,0.5-0.8,0.5-1.4s-0.2-1.1-0.5-1.4
			c-0.4-0.3-0.9-0.5-1.7-0.5h-3V9.5z"/>
		<path class="st6" d="M97.4,8.5c0.5,0.7,0.8,1.7,0.8,3h-5.7c0.1,0.8,0.3,1.4,0.7,1.9c0.4,0.4,0.9,0.7,1.6,0.7
			c0.6,0,1.1-0.2,1.4-0.4c0.3-0.3,0.5-0.6,0.7-1.1H98c-0.2,0.7-0.5,1.3-1,1.7c-0.6,0.5-1.4,0.8-2.3,0.8c-1,0-1.9-0.4-2.5-1
			c-0.6-0.7-1-1.6-1-2.8c0-1.1,0.3-2,0.9-2.7c0.6-0.8,1.4-1.1,2.5-1.1C96,7.3,96.9,7.7,97.4,8.5z M93.3,8.9c-0.4,0.4-0.6,1-0.7,1.7
			h4.5c-0.1-1.6-0.9-2.3-2.3-2.3C94.2,8.3,93.8,8.5,93.3,8.9z"/>
		<path class="st6" d="M106.2,4.6v10.2h-1.1v-1.2c-0.5,0.9-1.3,1.4-2.4,1.4s-1.9-0.4-2.5-1.1c-0.5-0.7-0.8-1.6-0.8-2.7
			s0.3-1.9,0.8-2.6c0.6-0.8,1.4-1.2,2.4-1.2s1.8,0.5,2.4,1.5V4.6H106.2z M101,9.1c-0.4,0.5-0.5,1.2-0.5,2c0,0.9,0.2,1.6,0.5,2.1
			c0.4,0.6,1,0.9,1.8,0.9c0.7,0,1.3-0.3,1.7-0.8c0.4-0.5,0.5-1.2,0.5-2v-0.1c0-0.8-0.2-1.5-0.6-2s-0.9-0.8-1.6-0.8
			C102,8.3,101.4,8.5,101,9.1z"/>
		<path class="st6" d="M109,7.5V12c0,0.7,0.1,1.2,0.4,1.5c0.3,0.3,0.8,0.5,1.4,0.5c0.5,0,0.9-0.2,1.3-0.6c0.4-0.4,0.6-0.9,0.7-1.5
			V7.5h1.1v7.2h-1v-1.1c-0.6,0.9-1.4,1.3-2.4,1.3c-1.8,0-2.6-1-2.6-3V7.5H109z"/>
		<path class="st6" d="M121,8c0.6,0.4,0.9,1.1,1,2h-1.1c-0.1-0.6-0.3-1-0.7-1.3s-0.8-0.4-1.4-0.4c-0.7,0-1.3,0.3-1.7,0.8
			s-0.6,1.2-0.6,2.1c0,0.9,0.2,1.6,0.6,2.1c0.4,0.5,0.9,0.8,1.7,0.8c1.2,0,1.9-0.6,2.1-1.9h1.1c-0.2,0.9-0.5,1.6-1.1,2.1
			c-0.5,0.5-1.3,0.7-2.2,0.7c-1.1,0-1.9-0.4-2.5-1.1c-0.6-0.7-0.9-1.6-0.9-2.7s0.3-2,0.9-2.7c0.6-0.8,1.5-1.1,2.5-1.1
			C119.7,7.3,120.5,7.6,121,8z"/>
		<path class="st6" d="M128.9,8.5c0.5,0.7,0.8,1.7,0.8,3h-5.7c0.1,0.8,0.3,1.4,0.7,1.9c0.4,0.4,0.9,0.7,1.6,0.7
			c0.6,0,1.1-0.2,1.4-0.4c0.3-0.3,0.5-0.6,0.7-1.1h1.1c-0.2,0.7-0.5,1.3-1,1.7c-0.6,0.5-1.4,0.8-2.3,0.8c-1,0-1.9-0.4-2.5-1
			c-0.6-0.7-1-1.6-1-2.8c0-1.1,0.3-2,0.9-2.7c0.6-0.8,1.4-1.1,2.5-1.1C127.5,7.3,128.3,7.7,128.9,8.5z M124.8,8.9
			c-0.4,0.4-0.6,1-0.7,1.7h4.5c-0.1-1.6-0.9-2.3-2.3-2.3C125.7,8.3,125.2,8.5,124.8,8.9z"/>
	</g>
</g>
<g class="st5">
	<path class="st4" d="M55.2,249.8c0.8,0.6,1.2,1.4,1.3,2.4h-1.1c-0.1-0.7-0.5-1.3-1.1-1.7c-0.5-0.4-1.2-0.6-2-0.6
		c-1.2,0-2.1,0.4-2.7,1.2c-0.6,0.8-0.9,1.8-0.9,3s0.3,2.2,0.9,3c0.6,0.8,1.5,1.2,2.7,1.2c0.8,0,1.5-0.2,2-0.6c0.6-0.4,1-1.1,1.2-2
		h1.1c-0.2,1.2-0.7,2.1-1.6,2.7c-0.8,0.6-1.7,0.9-2.8,0.9c-1.6,0-2.7-0.5-3.6-1.5c-0.8-0.9-1.1-2.1-1.1-3.6s0.4-2.7,1.1-3.7
		c0.8-1.1,2-1.6,3.6-1.6C53.6,248.9,54.5,249.2,55.2,249.8z"/>
	<path class="st4" d="M59.5,248.9v10.2h-1.1v-10.2L59.5,248.9L59.5,248.9z"/>
	<path class="st4" d="M62.6,251.9v4.4c0,0.7,0.1,1.2,0.4,1.5c0.3,0.3,0.8,0.5,1.4,0.5c0.5,0,0.9-0.2,1.3-0.6s0.6-0.9,0.7-1.5v-4.4
		h1.1v7.2h-1.1v-1c-0.6,0.9-1.4,1.3-2.4,1.3c-1.8,0-2.6-1-2.6-3v-4.5h1.2V251.9z"/>
	<path class="st4" d="M74.8,253.9h-1.1c-0.1-0.4-0.3-0.8-0.6-1c-0.3-0.2-0.8-0.3-1.3-0.3s-0.9,0.1-1.2,0.3c-0.3,0.2-0.5,0.4-0.5,0.8
		c0,0.3,0.2,0.6,0.6,0.8c0.3,0.1,0.8,0.3,1.5,0.5c0.9,0.2,1.5,0.4,1.9,0.7c0.6,0.4,0.9,0.9,0.9,1.5c0,1.5-1,2.2-3.1,2.2
		c-1.9,0-2.9-0.8-3.1-2.5H70c0.1,0.6,0.3,1,0.6,1.2c0.3,0.2,0.8,0.3,1.4,0.3c1.3,0,1.9-0.4,1.9-1.2c0-0.4-0.2-0.7-0.7-0.9
		c-0.2-0.1-0.8-0.3-1.5-0.5c-0.9-0.2-1.5-0.4-1.8-0.6c-0.6-0.3-0.8-0.8-0.8-1.4c0-0.6,0.3-1.1,0.8-1.5s1.2-0.5,2-0.5
		C73.7,251.7,74.7,252.4,74.8,253.9z"/>
	<path class="st4" d="M78.3,251.9h1.8v0.9h-1.8v4.6c0,0.3,0,0.5,0.2,0.6c0.1,0.1,0.3,0.2,0.5,0.2h0.9v0.9h-1.1c-0.6,0-1-0.2-1.3-0.5
		c-0.2-0.3-0.4-0.7-0.4-1.2v-4.6h-1.5v-0.9h1.5V250l1.1-0.5v2.4H78.3z"/>
	<path class="st4" d="M87,252.8c0.5,0.7,0.8,1.7,0.8,3h-5.7c0.1,0.8,0.3,1.4,0.7,1.9c0.4,0.4,0.9,0.7,1.6,0.7c0.6,0,1.1-0.2,1.4-0.4
		c0.3-0.3,0.5-0.6,0.7-1.1h1.1c-0.2,0.7-0.5,1.3-1,1.7c-0.6,0.5-1.4,0.8-2.3,0.8c-1,0-1.9-0.4-2.5-1c-0.6-0.7-1-1.6-1-2.8
		c0-1.1,0.3-2,0.9-2.7c0.6-0.8,1.4-1.1,2.5-1.1C85.5,251.7,86.4,252.1,87,252.8z M82.8,253.2c-0.4,0.4-0.6,1-0.7,1.7h4.5
		c-0.1-1.6-0.9-2.3-2.3-2.3C83.7,252.6,83.2,252.8,82.8,253.2z"/>
	<path class="st4" d="M93.3,251.8v1.1c-0.4-0.1-0.7-0.2-1.1-0.2c-0.6,0-1,0.2-1.4,0.7s-0.6,1.1-0.6,1.7v3.8h-1.1v-7.2h1.1v1.3
		c0.2-0.4,0.4-0.8,0.8-1c0.4-0.3,0.8-0.5,1.3-0.5C92.7,251.7,93,251.7,93.3,251.8z"/>
	<path class="st4" d="M100.2,249.1l5.7,8.1l0,0v-8.1h1.1v10h-1.2l-5.7-8.2l0,0v8.2H99v-10H100.2z"/>
	<path class="st4" d="M111.9,247.5c-0.6,0.9-1,1.9-1.3,2.9c-0.4,1.2-0.6,2.4-0.6,3.6c0,1.2,0.2,2.4,0.6,3.6c0.3,1,0.8,2,1.3,2.9h-1
		c-0.6-0.9-1.1-1.9-1.4-2.9c-0.4-1.2-0.6-2.4-0.6-3.6c0-1.2,0.2-2.5,0.6-3.7c0.4-1,0.8-2,1.4-2.9L111.9,247.5L111.9,247.5z"/>
	<path class="st4" d="M114.1,249.1l3.1,8.8l0,0l3.1-8.8h1.3l-3.7,10h-1.4l-3.7-10L114.1,249.1L114.1,249.1z"/>
	<path class="st4" d="M128.2,252.8c0.5,0.7,0.8,1.7,0.8,3h-5.7c0.1,0.8,0.3,1.4,0.7,1.9c0.4,0.4,0.9,0.7,1.6,0.7
		c0.6,0,1.1-0.2,1.4-0.4c0.3-0.3,0.5-0.6,0.7-1.1h1.1c-0.2,0.7-0.5,1.3-1,1.7c-0.6,0.5-1.4,0.8-2.3,0.8c-1,0-1.9-0.4-2.5-1
		c-0.6-0.7-1-1.6-1-2.8c0-1.1,0.3-2,0.9-2.7c0.6-0.8,1.4-1.1,2.5-1.1C126.7,251.7,127.6,252.1,128.2,252.8z M124,253.2
		c-0.4,0.4-0.6,1-0.7,1.7h4.5c-0.1-1.6-0.9-2.3-2.3-2.3C124.9,252.6,124.4,252.8,124,253.2z"/>
	<path class="st4" d="M134.5,251.8v1.1c-0.4-0.1-0.7-0.2-1.1-0.2c-0.6,0-1,0.2-1.4,0.7s-0.6,1.1-0.6,1.7v3.8h-1.1v-7.2h1.1v1.3
		c0.2-0.4,0.4-0.8,0.8-1c0.4-0.3,0.8-0.5,1.3-0.5C133.9,251.7,134.2,251.7,134.5,251.8z"/>
	<path class="st4" d="M141,253.9h-1.1c-0.1-0.4-0.3-0.8-0.6-1s-0.8-0.3-1.3-0.3s-0.9,0.1-1.2,0.3s-0.5,0.4-0.5,0.8
		c0,0.3,0.2,0.6,0.6,0.8c0.3,0.1,0.8,0.3,1.5,0.5c0.9,0.2,1.5,0.4,1.9,0.7c0.6,0.4,0.9,0.9,0.9,1.5c0,1.5-1,2.2-3.1,2.2
		c-1.9,0-2.9-0.8-3.1-2.5h1.1c0.1,0.6,0.3,1,0.6,1.2s0.8,0.3,1.4,0.3c1.3,0,1.9-0.4,1.9-1.2c0-0.4-0.2-0.7-0.7-0.9
		c-0.2-0.1-0.8-0.3-1.5-0.5c-0.9-0.2-1.5-0.4-1.8-0.6c-0.6-0.3-0.8-0.8-0.8-1.4c0-0.6,0.3-1.1,0.8-1.5s1.2-0.5,2-0.5
		C139.8,251.7,140.8,252.4,141,253.9z"/>
	<path class="st4" d="M144,249.4c0.2,0.1,0.3,0.3,0.3,0.6c0,0.2-0.1,0.4-0.3,0.6c-0.2,0.2-0.4,0.2-0.6,0.2s-0.4-0.1-0.6-0.2
		c-0.2-0.2-0.2-0.4-0.2-0.6c0-0.3,0.1-0.4,0.2-0.6c0.2-0.2,0.4-0.2,0.6-0.2S143.9,249.2,144,249.4z M144,251.9v7.2h-1.1v-7.2
		L144,251.9L144,251.9z"/>
	<path class="st4" d="M151.9,252.8c0.6,0.7,0.9,1.6,0.9,2.7c0,1.1-0.3,2-0.9,2.7c-0.7,0.8-1.5,1.1-2.6,1.1s-1.9-0.4-2.6-1.1
		c-0.6-0.7-0.9-1.6-0.9-2.7c0-1.1,0.3-2,0.9-2.7c0.6-0.8,1.5-1.1,2.6-1.1C150.4,251.7,151.3,252,151.9,252.8z M147.5,253.5
		c-0.4,0.5-0.6,1.2-0.6,2c0,0.8,0.2,1.5,0.6,2c0.4,0.6,1,0.9,1.8,0.9s1.4-0.3,1.8-0.9c0.4-0.5,0.6-1.2,0.6-2c0-0.8-0.2-1.5-0.6-2
		c-0.4-0.6-1.1-0.9-1.8-0.9S148,252.9,147.5,253.5z"/>
	<path class="st4" d="M160.4,254.7v4.5h-1.1v-4.4c0-1.4-0.6-2.1-1.9-2.1c-0.5,0-0.9,0.2-1.3,0.5c-0.4,0.4-0.6,0.9-0.6,1.6v4.4h-1.1
		V252h1.1v1.1c0.3-0.4,0.6-0.7,1-0.9s0.8-0.3,1.3-0.3C159.5,251.7,160.4,252.7,160.4,254.7z"/>
	<path class="st4" d="M172.8,250.5c0.5,0.9,0.8,2.1,0.8,3.6s-0.3,2.7-0.8,3.6c-0.6,1.1-1.5,1.6-2.7,1.6s-2.1-0.5-2.7-1.6
		c-0.5-0.9-0.8-2.1-0.8-3.6s0.3-2.7,0.8-3.6c0.6-1.1,1.5-1.6,2.7-1.6S172.2,249.4,172.8,250.5z M168.2,251.3
		c-0.3,0.7-0.4,1.6-0.4,2.8s0.1,2.1,0.4,2.8c0.4,1,1,1.4,1.9,1.4s1.5-0.5,1.9-1.4c0.3-0.7,0.4-1.6,0.4-2.8s-0.2-2.1-0.4-2.8
		c-0.4-1-1-1.4-1.9-1.4S168.6,250.4,168.2,251.3z"/>
	<path class="st4" d="M176.8,257.7c0.2,0.2,0.3,0.4,0.3,0.6s-0.1,0.4-0.3,0.6s-0.4,0.3-0.6,0.3c-0.3,0-0.4-0.1-0.6-0.3
		c-0.2-0.2-0.3-0.4-0.3-0.6c0-0.3,0.1-0.4,0.3-0.6s0.4-0.3,0.6-0.3C176.4,257.4,176.6,257.5,176.8,257.7z"/>
	<path class="st4" d="M184.9,250.5c0.5,0.9,0.8,2.1,0.8,3.6s-0.3,2.7-0.8,3.6c-0.6,1.1-1.5,1.6-2.7,1.6s-2.1-0.5-2.7-1.6
		c-0.5-0.9-0.8-2.1-0.8-3.6s0.3-2.7,0.8-3.6c0.6-1.1,1.5-1.6,2.7-1.6S184.3,249.4,184.9,250.5z M180.3,251.3
		c-0.3,0.7-0.4,1.6-0.4,2.8s0.1,2.1,0.4,2.8c0.4,1,1,1.4,1.9,1.4s1.5-0.5,1.9-1.4c0.3-0.7,0.4-1.6,0.4-2.8s-0.2-2.1-0.4-2.8
		c-0.4-1-1-1.4-1.9-1.4S180.7,250.4,180.3,251.3z"/>
	<path class="st4" d="M188.9,257.7c0.2,0.2,0.3,0.4,0.3,0.6s-0.1,0.4-0.3,0.6s-0.4,0.3-0.6,0.3c-0.3,0-0.4-0.1-0.6-0.3
		c-0.2-0.2-0.3-0.4-0.3-0.6c0-0.3,0.1-0.4,0.3-0.6s0.4-0.3,0.6-0.3C188.5,257.4,188.7,257.5,188.9,257.7z"/>
	<path class="st4" d="M196.7,249.7c0.6,0.5,0.9,1.2,0.9,2.1s-0.3,1.7-1,2.4c-0.4,0.4-1,0.9-2.1,1.6c-1.3,0.9-2,1.6-2.2,2.3h5.3v1
		H191c0-0.9,0.3-1.7,1-2.5c0.4-0.4,1.1-1.1,2.2-1.8c0.8-0.6,1.3-1,1.6-1.2c0.5-0.5,0.8-1.1,0.8-1.8c0-0.6-0.2-1.1-0.5-1.4
		s-0.9-0.5-1.5-0.5c-0.7,0-1.2,0.2-1.6,0.7c-0.4,0.4-0.6,1.1-0.6,2h-1.1c0-1.1,0.3-2,0.9-2.7c0.6-0.7,1.4-1,2.5-1
		C195.4,248.9,196.1,249.2,196.7,249.7z"/>
	<path class="st4" d="M200.3,247.5c0.6,0.9,1.1,1.9,1.4,2.9c0.4,1.2,0.6,2.4,0.6,3.7c0,1.2-0.2,2.4-0.6,3.6c-0.4,1-0.8,2-1.4,2.9h-1
		c0.6-0.9,1-1.9,1.3-2.9c0.4-1.2,0.6-2.5,0.6-3.6c0-1.2-0.2-2.4-0.6-3.6c-0.3-1-0.8-2-1.3-2.9L200.3,247.5L200.3,247.5z"/>
</g>
<g>
	<g>
		<g>
			<rect x="180.7" y="276.6" class="st2" width="127" height="50"/>
			<rect x="178.7" y="274.6" class="st3" width="127" height="50"/>
		</g>
		<g transform="translate(20 9)">
			<g class="st5">
				<path class="st6" d="M176.1,286.6c0.7,0.5,1.1,1.3,1.1,2.4h-1.1c-0.1-0.7-0.4-1.3-0.8-1.6c-0.4-0.4-1.1-0.5-1.9-0.5
					c-0.7,0-1.3,0.1-1.7,0.4c-0.5,0.3-0.7,0.7-0.7,1.3c0,0.5,0.3,0.9,0.9,1.2c0.3,0.1,0.9,0.3,1.8,0.6c1.3,0.4,2.2,0.7,2.6,1
					c0.8,0.5,1.2,1.2,1.2,2.1s-0.4,1.6-1.1,2.1c-0.7,0.5-1.6,0.7-2.8,0.7s-2.1-0.3-2.8-0.8c-0.8-0.6-1.2-1.5-1.3-2.7h1.1
					c0.1,0.9,0.4,1.5,0.9,1.9s1.1,0.6,2,0.6c0.8,0,1.5-0.2,2-0.5s0.8-0.7,0.8-1.3c0-0.6-0.3-1.1-1-1.5c-0.3-0.2-1-0.4-2.1-0.7
					c-1.2-0.4-2-0.6-2.3-0.8c-0.8-0.4-1.1-1.1-1.1-1.9c0-0.9,0.4-1.6,1.1-2c0.7-0.4,1.5-0.7,2.5-0.7
					C174.6,285.8,175.4,286.1,176.1,286.6z"/>
				<path class="st6" d="M184.7,289.7c0.5,0.7,0.8,1.6,0.8,2.7s-0.3,1.9-0.8,2.6c-0.6,0.8-1.4,1.1-2.4,1.1s-1.8-0.5-2.4-1.5v4.1
					h-1.1v-10h1.1v1.2c0.5-0.9,1.3-1.4,2.4-1.4C183.3,288.6,184.1,288.9,184.7,289.7z M180.4,290.3c-0.4,0.5-0.5,1.2-0.5,2v0.1
					c0,0.8,0.2,1.5,0.6,2c0.4,0.5,0.9,0.8,1.6,0.8c0.8,0,1.4-0.3,1.8-0.8c0.4-0.5,0.5-1.2,0.5-2.1s-0.2-1.5-0.5-2
					c-0.4-0.6-1-0.9-1.8-0.9C181.4,289.5,180.8,289.8,180.4,290.3z"/>
				<path class="st6" d="M192.4,289.4c0.4,0.5,0.6,1.1,0.6,2v4.7h-1v-1.2c-0.3,0.4-0.7,0.7-1.1,1c-0.5,0.3-1.1,0.4-1.8,0.4
					s-1.3-0.2-1.7-0.5c-0.4-0.4-0.7-0.9-0.7-1.5c0-0.8,0.3-1.4,1-1.9c0.6-0.4,1.4-0.6,2.5-0.6h1.7v-0.4c0-1.2-0.6-1.8-1.9-1.8
					c-0.5,0-1,0.1-1.3,0.3c-0.4,0.2-0.6,0.6-0.7,1l-1.1-0.1c0.2-0.8,0.5-1.3,1.1-1.7c0.5-0.3,1.2-0.5,2.1-0.5
					C191.2,288.6,191.9,288.8,192.4,289.4z M190.3,292.6c-1.6,0-2.4,0.6-2.4,1.6c0,0.3,0.1,0.6,0.4,0.8c0.3,0.2,0.6,0.3,1.1,0.3
					c0.7,0,1.3-0.2,1.8-0.7c0.5-0.4,0.8-0.9,0.8-1.5v-0.6L190.3,292.6z"/>
				<path class="st6" d="M199,288.7v1.1c-0.4-0.1-0.7-0.2-1.1-0.2c-0.6,0-1,0.2-1.4,0.7s-0.6,1-0.6,1.7v3.8h-1.1v-7.2h1.1v1.3
					c0.2-0.4,0.4-0.8,0.8-1c0.4-0.3,0.8-0.5,1.3-0.5C198.4,288.6,198.7,288.6,199,288.7z"/>
				<path class="st6" d="M201,285.8v6.3l3.6-3.4h1.5l-3.2,2.9l3.5,4.3H205l-2.8-3.6l-1.1,1v2.6H200v-10.2h1V285.8z"/>
				<path class="st6" d="M218.1,286.6c0.7,0.5,1.1,1.3,1.1,2.4h-1.1c-0.1-0.7-0.4-1.3-0.8-1.6c-0.4-0.4-1.1-0.5-1.9-0.5
					c-0.7,0-1.3,0.1-1.7,0.4c-0.5,0.3-0.7,0.7-0.7,1.3c0,0.5,0.3,0.9,0.9,1.2c0.3,0.1,0.9,0.3,1.8,0.6c1.3,0.4,2.2,0.7,2.6,1
					c0.8,0.5,1.2,1.2,1.2,2.1s-0.4,1.6-1.1,2.1c-0.7,0.5-1.6,0.7-2.8,0.7s-2.1-0.3-2.8-0.8c-0.8-0.6-1.2-1.5-1.3-2.7h1.1
					c0.1,0.9,0.4,1.5,0.9,1.9s1.1,0.6,2,0.6c0.8,0,1.5-0.2,2-0.5s0.8-0.7,0.8-1.3c0-0.6-0.3-1.1-1-1.5c-0.3-0.2-1-0.4-2.1-0.7
					c-1.2-0.4-2-0.6-2.3-0.8c-0.8-0.4-1.1-1.1-1.1-1.9c0-0.9,0.4-1.6,1.1-2c0.7-0.4,1.5-0.7,2.5-0.7
					C216.6,285.8,217.5,286.1,218.1,286.6z"/>
				<path class="st6" d="M222.8,288.8h1.8v0.9h-1.8v4.6c0,0.3,0,0.5,0.2,0.6c0.1,0.1,0.3,0.2,0.5,0.2h0.9v0.9h-1.1
					c-0.6,0-1-0.2-1.3-0.5c-0.2-0.3-0.4-0.7-0.4-1.2v-4.6h-1.5v-0.9h1.5v-1.9l1.1-0.5v2.4H222.8z"/>
				<path class="st6" d="M230,288.7v1.1c-0.4-0.1-0.7-0.2-1.1-0.2c-0.6,0-1,0.2-1.4,0.7s-0.6,1-0.6,1.7v3.8h-1.1v-7.2h1.1v1.3
					c0.2-0.4,0.4-0.8,0.8-1c0.4-0.3,0.8-0.5,1.3-0.5C229.4,288.6,229.7,288.6,230,288.7z"/>
				<path class="st6" d="M236.5,289.7c0.5,0.7,0.8,1.7,0.8,3h-5.7c0.1,0.8,0.3,1.4,0.7,1.9c0.4,0.4,0.9,0.7,1.6,0.7
					c0.6,0,1.1-0.2,1.4-0.4c0.3-0.3,0.5-0.6,0.7-1.1h1.1c-0.2,0.7-0.5,1.3-1,1.7c-0.6,0.5-1.4,0.8-2.3,0.8c-1,0-1.9-0.3-2.5-1
					s-1-1.6-1-2.8c0-1.1,0.3-2,0.9-2.7c0.6-0.8,1.4-1.1,2.5-1.1C235.1,288.6,235.9,289,236.5,289.7z M232.4,290.1
					c-0.4,0.4-0.6,1-0.7,1.7h4.5c-0.1-1.6-0.9-2.3-2.3-2.3C233.3,289.5,232.8,289.7,232.4,290.1z"/>
				<path class="st6" d="M244.1,289.4c0.4,0.5,0.6,1.1,0.6,2v4.7h-1.1v-1.2c-0.3,0.4-0.7,0.7-1.1,1c-0.5,0.3-1.1,0.4-1.8,0.4
					s-1.3-0.2-1.7-0.5c-0.4-0.4-0.7-0.9-0.7-1.5c0-0.8,0.3-1.4,1-1.9c0.6-0.4,1.4-0.6,2.5-0.6h1.7v-0.4c0-1.2-0.6-1.8-1.9-1.8
					c-0.5,0-1,0.1-1.3,0.3c-0.4,0.2-0.6,0.6-0.7,1l-1.1-0.1c0.2-0.8,0.5-1.3,1.1-1.7c0.5-0.3,1.2-0.5,2.1-0.5
					C242.9,288.6,243.6,288.8,244.1,289.4z M242,292.6c-1.6,0-2.4,0.6-2.4,1.6c0,0.3,0.1,0.6,0.4,0.8c0.3,0.2,0.6,0.3,1.1,0.3
					c0.7,0,1.3-0.2,1.8-0.7c0.5-0.4,0.8-0.9,0.8-1.5v-0.6L242,292.6z"/>
				<path class="st6" d="M251.9,289.9c0.3-0.5,0.6-0.8,1-1s0.8-0.3,1.3-0.3c0.8,0,1.4,0.2,1.8,0.7c0.4,0.5,0.7,1.1,0.7,2v4.8h-1.1
					v-4.6c0-0.6-0.1-1.1-0.4-1.4c-0.3-0.3-0.7-0.5-1.3-0.5c-0.5,0-0.9,0.2-1.2,0.5c-0.3,0.4-0.5,0.8-0.5,1.4v4.5h-1.1v-4.6
					c0-1.3-0.6-1.9-1.7-1.9c-0.5,0-0.9,0.2-1.3,0.6c-0.3,0.4-0.5,0.9-0.5,1.5v4.4h-1.1v-7.2h1.1v1c0.5-0.8,1.2-1.2,2-1.2
					C250.8,288.6,251.5,289,251.9,289.9z"/>
				<path class="st6" d="M260,286.3c0.2,0.1,0.3,0.3,0.3,0.6c0,0.2-0.1,0.4-0.3,0.6c-0.2,0.2-0.4,0.2-0.6,0.2s-0.4-0.1-0.6-0.2
					c-0.2-0.2-0.2-0.4-0.2-0.6c0-0.3,0.1-0.4,0.2-0.6c0.2-0.2,0.4-0.2,0.6-0.2S259.8,286.1,260,286.3z M260,288.8v7.2h-1.1v-7.2H260
					z"/>
				<path class="st6" d="M268.2,291.5v4.5H267v-4.4c0-1.4-0.6-2.1-1.9-2.1c-0.5,0-0.9,0.2-1.3,0.5c-0.4,0.4-0.6,0.9-0.6,1.6v4.4
					h-1.1v-7.2h1.1v1.1c0.3-0.4,0.6-0.7,1-0.9c0.4-0.2,0.8-0.3,1.3-0.3C267.2,288.6,268.2,289.6,268.2,291.5z"/>
				<path class="st6" d="M275.3,290v-1.2h1.1v6.7c0,2.3-1.1,3.5-3.3,3.5c-1,0-1.7-0.2-2.2-0.6s-0.8-1-1-1.8h1.1
					c0.1,0.5,0.3,0.9,0.6,1.1c0.3,0.2,0.8,0.4,1.5,0.4c1.5,0,2.2-0.8,2.2-2.4v-1.3c-0.5,1-1.3,1.5-2.4,1.5c-1,0-1.8-0.4-2.4-1
					c-0.6-0.7-0.9-1.5-0.9-2.6s0.3-1.9,0.9-2.6s1.4-1.1,2.4-1.1C274,288.6,274.8,289,275.3,290z M271.3,290.3
					c-0.4,0.5-0.6,1.1-0.6,1.9s0.2,1.4,0.5,1.9c0.4,0.5,1,0.8,1.8,0.8c0.7,0,1.3-0.3,1.7-0.8c0.4-0.5,0.6-1.1,0.6-1.9
					s-0.2-1.5-0.6-1.9c-0.4-0.5-1-0.8-1.7-0.8C272.3,289.5,271.7,289.7,271.3,290.3z"/>
			</g>
		</g>
	</g>
	<g>
		<g>
			<rect x="46.3" y="276.6" class="st2" width="127" height="50"/>
			<rect x="44.3" y="274.6" class="st3" width="127" height="50"/>
		</g>
		<g transform="translate(20 9)">
			<g class="st5">
				<path class="st6" d="M76.2,286.6c0.7,0.5,1.1,1.3,1.1,2.4h-1.1c-0.1-0.7-0.4-1.3-0.8-1.6c-0.4-0.4-1.1-0.5-1.9-0.5
					c-0.7,0-1.3,0.1-1.7,0.4c-0.5,0.3-0.7,0.7-0.7,1.3c0,0.5,0.3,0.9,0.9,1.2c0.3,0.1,0.9,0.3,1.8,0.6c1.3,0.4,2.2,0.7,2.6,1
					c0.8,0.5,1.2,1.2,1.2,2.1s-0.4,1.6-1.1,2.1s-1.6,0.7-2.8,0.7c-1.2,0-2.1-0.3-2.8-0.8c-0.8-0.6-1.2-1.5-1.3-2.7h1.1
					c0.1,0.9,0.4,1.5,0.9,1.9s1.1,0.6,2,0.6c0.8,0,1.5-0.2,2-0.5s0.8-0.7,0.8-1.3c0-0.6-0.3-1.1-1-1.5c-0.3-0.2-1-0.4-2.1-0.7
					c-1.2-0.4-2-0.6-2.3-0.8c-0.8-0.4-1.1-1.1-1.1-1.9c0-0.9,0.4-1.6,1.1-2s1.5-0.7,2.5-0.7C74.7,285.8,75.6,286.1,76.2,286.6z"/>
				<path class="st6" d="M80.8,288.8h1.8v0.9h-1.8v4.6c0,0.3,0,0.5,0.2,0.6c0.1,0.1,0.3,0.2,0.5,0.2h0.9v0.9h-1.1
					c-0.6,0-1-0.2-1.3-0.5c-0.2-0.3-0.4-0.7-0.4-1.2v-4.6h-1.5v-0.9h1.5v-1.9l1.1-0.5v2.4H80.8z"/>
				<path class="st6" d="M89.7,289.7c0.6,0.7,0.9,1.6,0.9,2.7s-0.3,2-0.9,2.7c-0.7,0.8-1.5,1.1-2.6,1.1s-1.9-0.4-2.6-1.1
					c-0.6-0.7-0.9-1.6-0.9-2.7s0.3-2,0.9-2.7c0.6-0.8,1.5-1.1,2.6-1.1S89,288.9,89.7,289.7z M85.3,290.4c-0.4,0.5-0.6,1.2-0.6,2
					s0.2,1.5,0.6,2c0.4,0.6,1,0.9,1.8,0.9s1.4-0.3,1.8-0.9c0.4-0.5,0.6-1.2,0.6-2s-0.2-1.5-0.6-2c-0.4-0.6-1.1-0.9-1.8-0.9
					C86.3,289.5,85.7,289.8,85.3,290.4z"/>
				<path class="st6" d="M96.2,288.7v1.1c-0.4-0.1-0.7-0.2-1.1-0.2c-0.6,0-1,0.2-1.4,0.7s-0.6,1-0.6,1.7v3.8H92v-7.2h1.1v1.3
					c0.2-0.4,0.4-0.8,0.8-1c0.4-0.3,0.8-0.5,1.3-0.5C95.6,288.6,96,288.6,96.2,288.7z"/>
				<path class="st6" d="M102.6,289.9c0.3-0.5,0.6-0.8,1-1s0.8-0.3,1.3-0.3c0.8,0,1.4,0.2,1.8,0.7s0.7,1.1,0.7,2v4.8h-1.1v-4.6
					c0-0.6-0.1-1.1-0.4-1.4s-0.7-0.5-1.3-0.5c-0.5,0-0.9,0.2-1.2,0.5c-0.3,0.4-0.5,0.8-0.5,1.4v4.5h-1.1v-4.6c0-1.3-0.6-1.9-1.7-1.9
					c-0.5,0-0.9,0.2-1.3,0.6c-0.3,0.4-0.5,0.9-0.5,1.5v4.4h-1.1v-7.2h1.1v1c0.5-0.8,1.2-1.2,2-1.2
					C101.4,288.6,102.2,289,102.6,289.9z"/>
			</g>
		</g>
	</g>
	<g>
		<g>
			<rect x="180.7" y="334.6" class="st2" width="127" height="50"/>
			<rect x="178.7" y="332.6" class="st3" width="127" height="50"/>
		</g>
		<g transform="translate(20 9)">
			<g class="st5">
				<path class="st6" d="M200,344v4.3h5.8V344h1.1v10h-1.1v-4.7H200v4.7h-1.1v-10H200z"/>
				<path class="st6" d="M214.2,347.4c0.4,0.5,0.6,1.1,0.6,2v4.7h-1.1v-1.2c-0.3,0.4-0.7,0.7-1.1,1c-0.5,0.3-1.1,0.4-1.8,0.4
					s-1.3-0.2-1.7-0.5c-0.4-0.4-0.7-0.9-0.7-1.5c0-0.8,0.3-1.4,1-1.9c0.6-0.4,1.4-0.6,2.5-0.6h1.7v-0.4c0-1.2-0.6-1.8-1.9-1.8
					c-0.5,0-1,0.1-1.3,0.3c-0.4,0.2-0.6,0.6-0.7,1l-1.1-0.1c0.2-0.8,0.5-1.3,1.1-1.7c0.5-0.3,1.2-0.5,2.1-0.5
					C213,346.6,213.7,346.8,214.2,347.4z M212.1,350.6c-1.6,0-2.4,0.6-2.4,1.6c0,0.3,0.1,0.6,0.4,0.8c0.3,0.2,0.6,0.3,1.1,0.3
					c0.7,0,1.3-0.2,1.8-0.7c0.5-0.4,0.8-0.9,0.8-1.5v-0.6L212.1,350.6z"/>
				<path class="st6" d="M223.1,343.8V354H222v-1.2c-0.5,0.9-1.3,1.4-2.4,1.4c-1.1,0-1.9-0.4-2.5-1.1c-0.5-0.7-0.8-1.6-0.8-2.7
					s0.3-1.9,0.8-2.6c0.6-0.8,1.4-1.2,2.4-1.2s1.8,0.5,2.4,1.5v-4.3L223.1,343.8L223.1,343.8z M218,348.3c-0.4,0.5-0.5,1.2-0.5,2
					s0.2,1.6,0.5,2.1c0.4,0.6,1,0.9,1.8,0.9c0.7,0,1.3-0.3,1.7-0.8s0.5-1.2,0.5-2v-0.1c0-0.8-0.2-1.5-0.6-2
					c-0.4-0.5-0.9-0.8-1.6-0.8C219,347.5,218.4,347.8,218,348.3z"/>
				<path class="st6" d="M230.6,347.7c0.6,0.7,0.9,1.6,0.9,2.7s-0.3,2-0.9,2.7c-0.7,0.8-1.5,1.1-2.6,1.1s-1.9-0.4-2.6-1.1
					c-0.6-0.7-0.9-1.6-0.9-2.7s0.3-2,0.9-2.7c0.6-0.8,1.5-1.1,2.6-1.1S230,346.9,230.6,347.7z M226.2,348.4c-0.4,0.5-0.6,1.2-0.6,2
					s0.2,1.5,0.6,2c0.4,0.6,1,0.9,1.8,0.9s1.4-0.3,1.8-0.9c0.4-0.5,0.6-1.2,0.6-2s-0.2-1.5-0.6-2c-0.4-0.6-1.1-0.9-1.8-0.9
					S226.7,347.8,226.2,348.4z"/>
				<path class="st6" d="M238.8,347.7c0.6,0.7,0.9,1.6,0.9,2.7s-0.3,2-0.9,2.7c-0.7,0.8-1.5,1.1-2.6,1.1s-1.9-0.4-2.6-1.1
					c-0.6-0.7-0.9-1.6-0.9-2.7s0.3-2,0.9-2.7c0.6-0.8,1.5-1.1,2.6-1.1S238.2,346.9,238.8,347.7z M234.4,348.4
					c-0.4,0.5-0.6,1.2-0.6,2s0.2,1.5,0.6,2c0.4,0.6,1,0.9,1.8,0.9s1.4-0.3,1.8-0.9c0.4-0.5,0.6-1.2,0.6-2s-0.2-1.5-0.6-2
					c-0.4-0.6-1.1-0.9-1.8-0.9S234.9,347.8,234.4,348.4z"/>
				<path class="st6" d="M247.1,347.7c0.5,0.7,0.8,1.6,0.8,2.7s-0.3,1.9-0.8,2.6c-0.6,0.8-1.4,1.1-2.4,1.1s-1.8-0.5-2.4-1.5v4.1
					h-1.1v-10h1.1v1.2c0.5-0.9,1.3-1.4,2.4-1.4C245.7,346.6,246.5,346.9,247.1,347.7z M242.8,348.3c-0.4,0.5-0.5,1.2-0.5,2v0.1
					c0,0.8,0.2,1.5,0.6,2c0.4,0.5,0.9,0.8,1.6,0.8c0.8,0,1.4-0.3,1.8-0.8c0.4-0.5,0.5-1.2,0.5-2.1s-0.2-1.5-0.5-2
					c-0.4-0.6-1-0.9-1.8-0.9C243.8,347.5,243.2,347.8,242.8,348.3z"/>
			</g>
		</g>
	</g>
	<g>
		<g>
			<rect x="46.3" y="334.6" class="st2" width="127" height="50"/>
			<rect x="44.3" y="332.6" class="st3" width="127" height="50"/>
		</g>
		<g transform="translate(20 9)">
			<g class="st5">
				<path class="st6" d="M81.3,344v1h-5.5v3.4H81v1h-5.3v4.7h-1.1v-10h6.7V344z"/>
				<path class="st6" d="M83.9,343.8V354h-1.1v-10.2H83.9z"/>
				<path class="st6" d="M87.4,344.3c0.2,0.1,0.3,0.3,0.3,0.6c0,0.2-0.1,0.4-0.3,0.6c-0.2,0.2-0.4,0.2-0.6,0.2s-0.4-0.1-0.6-0.2
					c-0.2-0.2-0.2-0.4-0.2-0.6c0-0.3,0.1-0.4,0.2-0.6c0.2-0.2,0.4-0.2,0.6-0.2S87.2,344.1,87.4,344.3z M87.4,346.8v7.2h-1.1v-7.2
					H87.4z"/>
				<path class="st6" d="M95.5,349.5v4.5h-1.1v-4.4c0-1.4-0.6-2.1-1.9-2.1c-0.5,0-0.9,0.2-1.3,0.5c-0.4,0.4-0.6,0.9-0.6,1.6v4.4
					h-1.1v-7.2h1.1v1.1c0.3-0.4,0.6-0.7,1-0.9c0.4-0.2,0.8-0.3,1.3-0.3C94.6,346.6,95.5,347.6,95.5,349.5z"/>
				<path class="st6" d="M98.4,343.8v6.3l3.6-3.4h1.5l-3.2,2.9l3.5,4.3h-1.4l-2.8-3.6l-1.1,1v2.6h-1.1v-10.2h1V343.8z"/>
			</g>
		</g>
	</g>
</g>
<rect x="37.5" y="56" class="st7" width="277" height="97.6"/>
<g class="st5">
	<path class="st4" d="M55.2,68.7c0.8,0.6,1.2,1.4,1.3,2.4h-1.1c-0.1-0.7-0.5-1.3-1.1-1.7c-0.5-0.4-1.2-0.6-2-0.6
		c-1.2,0-2.1,0.4-2.7,1.2c-0.6,0.8-0.9,1.8-0.9,3s0.3,2.2,0.9,3c0.6,0.8,1.5,1.2,2.7,1.2c0.8,0,1.5-0.2,2-0.6c0.6-0.4,1-1.1,1.2-2
		h1.1c-0.2,1.2-0.7,2.1-1.6,2.7c-0.8,0.6-1.7,0.9-2.8,0.9c-1.6,0-2.7-0.5-3.6-1.5c-0.8-0.9-1.1-2.1-1.1-3.6s0.4-2.7,1.1-3.7
		c0.8-1.1,2-1.6,3.6-1.6C53.6,67.8,54.5,68.1,55.2,68.7z"/>
	<path class="st4" d="M59.5,67.8V78h-1.1V67.8H59.5z"/>
	<path class="st4" d="M62.6,70.8v4.4c0,0.7,0.1,1.2,0.4,1.5c0.3,0.3,0.8,0.5,1.4,0.5c0.5,0,0.9-0.2,1.3-0.6s0.6-0.9,0.7-1.5v-4.4
		h1.1V78h-1.1v-1.1c-0.6,0.9-1.4,1.3-2.4,1.3c-1.8,0-2.6-1-2.6-3v-4.5L62.6,70.8L62.6,70.8z"/>
	<path class="st4" d="M74.8,72.8h-1.1c-0.1-0.4-0.3-0.8-0.6-1c-0.3-0.2-0.8-0.3-1.3-0.3s-0.9,0.1-1.2,0.3c-0.3,0.2-0.5,0.4-0.5,0.8
		c0,0.3,0.2,0.6,0.6,0.8c0.3,0.1,0.8,0.3,1.5,0.5c0.9,0.2,1.5,0.4,1.9,0.7c0.6,0.4,0.9,0.9,0.9,1.5c0,1.5-1,2.2-3.1,2.2
		c-1.9,0-2.9-0.8-3.1-2.5H70c0.1,0.6,0.3,1,0.6,1.2c0.3,0.2,0.8,0.3,1.4,0.3c1.3,0,1.9-0.4,1.9-1.2c0-0.4-0.2-0.7-0.7-0.9
		c-0.2-0.1-0.8-0.3-1.5-0.5c-0.9-0.2-1.5-0.4-1.8-0.6c-0.6-0.3-0.8-0.8-0.8-1.4s0.3-1.1,0.8-1.5s1.2-0.5,2-0.5
		C73.7,70.6,74.7,71.3,74.8,72.8z"/>
	<path class="st4" d="M78.3,70.8h1.8v0.9h-1.8v4.6c0,0.3,0,0.5,0.2,0.6c0.1,0.1,0.3,0.2,0.5,0.2h0.9V78h-1.1c-0.6,0-1-0.2-1.3-0.5
		c-0.2-0.3-0.4-0.7-0.4-1.2v-4.6h-1.5v-0.9h1.5v-1.9l1.1-0.5v2.4H78.3z"/>
	<path class="st4" d="M87,71.8c0.5,0.7,0.8,1.7,0.8,3h-5.7c0.1,0.8,0.3,1.4,0.7,1.9c0.4,0.4,0.9,0.7,1.6,0.7c0.6,0,1.1-0.2,1.4-0.4
		c0.3-0.3,0.5-0.6,0.7-1.1h1.1c-0.2,0.7-0.5,1.3-1,1.7c-0.6,0.5-1.4,0.8-2.3,0.8c-1,0-1.9-0.4-2.5-1c-0.6-0.7-1-1.6-1-2.8
		c0-1.1,0.3-2,0.9-2.7c0.6-0.8,1.4-1.1,2.5-1.1C85.5,70.6,86.4,71,87,71.8z M82.8,72.1c-0.4,0.4-0.6,1-0.7,1.7h4.5
		c-0.1-1.6-0.9-2.3-2.3-2.3C83.7,71.5,83.2,71.7,82.8,72.1z"/>
	<path class="st4" d="M93.3,70.7v1.1c-0.4-0.1-0.7-0.2-1.1-0.2c-0.6,0-1,0.2-1.4,0.7s-0.6,1-0.6,1.7v4h-1.1v-7.2h1.1V72
		c0.2-0.4,0.4-0.8,0.8-1c0.4-0.3,0.8-0.5,1.3-0.5C92.7,70.6,93,70.6,93.3,70.7z"/>
	<path class="st4" d="M103.3,68l3.9,10H106l-1.1-2.8h-4.6l-1,2.8H98l3.9-10H103.3z M104.6,74.2l-1.9-5h-0.1l-1.9,5H104.6z"/>
	<path class="st4" d="M111.1,66.4c-0.6,0.9-1,1.9-1.3,2.9c-0.4,1.2-0.6,2.4-0.6,3.6s0.2,2.4,0.6,3.6c0.3,1,0.8,2,1.3,2.9h-1
		c-0.6-0.9-1.1-1.9-1.4-2.9c-0.4-1.2-0.6-2.4-0.6-3.6s0.2-2.5,0.6-3.7c0.4-1,0.8-2,1.4-2.9L111.1,66.4L111.1,66.4z"/>
	<path class="st4" d="M113.2,68l3.1,8.8l0,0l3.1-8.8h1.3L117,78h-1.4L112,68H113.2z"/>
	<path class="st4" d="M127.3,71.8c0.5,0.7,0.8,1.7,0.8,3h-5.7c0.1,0.8,0.3,1.4,0.7,1.9c0.4,0.4,0.9,0.7,1.6,0.7
		c0.6,0,1.1-0.2,1.4-0.4c0.3-0.3,0.5-0.6,0.7-1.1h1.1c-0.2,0.7-0.5,1.3-1,1.7c-0.6,0.5-1.4,0.8-2.3,0.8c-1,0-1.9-0.4-2.5-1
		c-0.6-0.7-1-1.6-1-2.8c0-1.1,0.3-2,0.9-2.7c0.6-0.8,1.4-1.1,2.5-1.1C125.8,70.6,126.7,71,127.3,71.8z M123.2,72.1
		c-0.4,0.4-0.6,1-0.7,1.7h4.5c-0.1-1.6-0.9-2.3-2.3-2.3C124.1,71.5,123.6,71.7,123.2,72.1z"/>
	<path class="st4" d="M133.6,70.7v1.1c-0.4-0.1-0.7-0.2-1.1-0.2c-0.6,0-1,0.2-1.4,0.7s-0.6,1-0.6,1.7v4h-1.1v-7.2h1.1V72
		c0.2-0.4,0.4-0.8,0.8-1c0.4-0.3,0.8-0.5,1.3-0.5C133,70.6,133.4,70.6,133.6,70.7z"/>
	<path class="st4" d="M140.1,72.8H139c-0.1-0.4-0.3-0.8-0.6-1s-0.8-0.3-1.3-0.3s-0.9,0.1-1.2,0.3c-0.3,0.2-0.5,0.4-0.5,0.8
		c0,0.3,0.2,0.6,0.6,0.8c0.3,0.1,0.8,0.3,1.5,0.5c0.9,0.2,1.5,0.4,1.9,0.7c0.6,0.4,0.9,0.9,0.9,1.5c0,1.5-1,2.2-3.1,2.2
		c-1.9,0-2.9-0.8-3.1-2.5h1.1c0.1,0.6,0.3,1,0.6,1.2s0.8,0.3,1.4,0.3c1.3,0,1.9-0.4,1.9-1.2c0-0.4-0.2-0.7-0.7-0.9
		c-0.2-0.1-0.8-0.3-1.5-0.5c-0.9-0.2-1.5-0.4-1.8-0.6c-0.6-0.3-0.8-0.8-0.8-1.4s0.3-1.1,0.8-1.5s1.2-0.5,2-0.5
		C138.9,70.6,139.9,71.3,140.1,72.8z"/>
	<path class="st4" d="M143.2,68.3c0.2,0.1,0.3,0.3,0.3,0.6c0,0.2-0.1,0.4-0.3,0.6s-0.4,0.2-0.6,0.2s-0.4-0.1-0.6-0.2
		c-0.2-0.2-0.2-0.4-0.2-0.6c0-0.3,0.1-0.4,0.2-0.6c0.2-0.2,0.4-0.2,0.6-0.2S143,68.1,143.2,68.3z M143.1,70.8V78H142v-7.2H143.1z"/>
	<path class="st4" d="M151.1,71.7c0.6,0.7,0.9,1.6,0.9,2.7s-0.3,2-0.9,2.7c-0.7,0.8-1.5,1.1-2.6,1.1s-1.9-0.4-2.6-1.1
		c-0.6-0.7-0.9-1.6-0.9-2.7s0.3-2,0.9-2.7c0.6-0.8,1.5-1.1,2.6-1.1S150.4,70.9,151.1,71.7z M146.7,72.4c-0.4,0.5-0.6,1.2-0.6,2
		s0.2,1.5,0.6,2c0.4,0.6,1,0.9,1.8,0.9s1.4-0.3,1.8-0.9c0.4-0.5,0.6-1.2,0.6-2s-0.2-1.5-0.6-2c-0.4-0.6-1.1-0.9-1.8-0.9
		C147.7,71.5,147.1,71.8,146.7,72.4z"/>
	<path class="st4" d="M159.5,73.6V78h-1.1v-4.4c0-1.4-0.6-2.1-1.9-2.1c-0.5,0-0.9,0.2-1.3,0.5c-0.4,0.4-0.6,0.9-0.6,1.6V78h-1.1
		v-7.2h1.1v1.1c0.3-0.4,0.6-0.7,1-0.9c0.4-0.2,0.8-0.3,1.3-0.3C158.6,70.6,159.5,71.6,159.5,73.6z"/>
	<path class="st4" d="M172,69.4c0.5,0.9,0.8,2.1,0.8,3.6s-0.3,2.7-0.8,3.6c-0.6,1.1-1.5,1.6-2.7,1.6s-2.1-0.5-2.7-1.6
		c-0.5-0.9-0.8-2.1-0.8-3.6s0.3-2.7,0.8-3.6c0.6-1.1,1.5-1.6,2.7-1.6S171.3,68.3,172,69.4z M167.3,70.2c-0.3,0.7-0.4,1.6-0.4,2.8
		c0,1.2,0.1,2.1,0.4,2.8c0.4,1,1,1.4,1.9,1.4s1.5-0.5,1.9-1.4c0.3-0.7,0.4-1.6,0.4-2.8c0-1.2-0.2-2.1-0.4-2.8c-0.4-1-1-1.4-1.9-1.4
		S167.7,69.3,167.3,70.2z"/>
	<path class="st4" d="M175.9,76.6c0.2,0.2,0.3,0.4,0.3,0.6s-0.1,0.4-0.3,0.6s-0.4,0.3-0.6,0.3c-0.3,0-0.4-0.1-0.6-0.3
		c-0.2-0.2-0.3-0.4-0.3-0.6c0-0.3,0.1-0.4,0.3-0.6s0.4-0.3,0.6-0.3C175.5,76.3,175.7,76.4,175.9,76.6z"/>
	<path class="st4" d="M184.1,69.4c0.5,0.9,0.8,2.1,0.8,3.6s-0.3,2.7-0.8,3.6c-0.6,1.1-1.5,1.6-2.7,1.6s-2.1-0.5-2.7-1.6
		c-0.5-0.9-0.8-2.1-0.8-3.6s0.3-2.7,0.8-3.6c0.6-1.1,1.5-1.6,2.7-1.6C182.5,67.8,183.4,68.3,184.1,69.4z M179.4,70.2
		c-0.3,0.7-0.4,1.6-0.4,2.8c0,1.2,0.1,2.1,0.4,2.8c0.4,1,1,1.4,1.9,1.4s1.5-0.5,1.9-1.4c0.3-0.7,0.4-1.6,0.4-2.8
		c0-1.2-0.2-2.1-0.4-2.8c-0.4-1-1-1.4-1.9-1.4S179.8,69.3,179.4,70.2z"/>
	<path class="st4" d="M188,76.6c0.2,0.2,0.3,0.4,0.3,0.6s-0.1,0.4-0.3,0.6s-0.4,0.3-0.6,0.3c-0.3,0-0.4-0.1-0.6-0.3
		c-0.2-0.2-0.3-0.4-0.3-0.6c0-0.3,0.1-0.4,0.3-0.6s0.4-0.3,0.6-0.3C187.6,76.3,187.8,76.4,188,76.6z"/>
	<path class="st4" d="M193.4,68v10h-1.1v-8.6c-0.6,0.6-1.4,1.1-2.4,1.4v-1.1c0.4-0.1,0.9-0.3,1.4-0.6c0.5-0.3,0.9-0.6,1.2-1h0.9V68z
		"/>
	<path class="st4" d="M196.7,66.4c0.6,0.9,1.1,1.9,1.4,2.9c0.4,1.2,0.6,2.4,0.6,3.7c0,1.2-0.2,2.4-0.6,3.6c-0.4,1-0.8,2-1.4,2.9h-1
		c0.6-0.9,1-1.9,1.3-2.9c0.4-1.2,0.6-2.5,0.6-3.6c0-1.2-0.2-2.4-0.6-3.6c-0.3-1-0.8-2-1.3-2.9L196.7,66.4L196.7,66.4z"/>
</g>
<g>
	<g>
		<g>
			<rect x="44.1" y="96.1" class="st2" width="82.7" height="50"/>
			<rect x="42.8" y="94.1" class="st3" width="82.7" height="50"/>
		</g>
		<g transform="translate(20 9)">
			<g class="st5">
				<path class="st6" d="M52.9,105.5v4.3h5.8v-4.3h1.1v10h-1.1v-4.7h-5.8v4.7h-1.1v-10H52.9z"/>
				<path class="st6" d="M63.2,105.7c0.2,0.1,0.3,0.3,0.3,0.6c0,0.2-0.1,0.4-0.3,0.6s-0.4,0.2-0.6,0.2s-0.4-0.1-0.6-0.2
					c-0.2-0.2-0.2-0.4-0.2-0.6c0-0.3,0.1-0.4,0.2-0.6c0.2-0.2,0.4-0.2,0.6-0.2S63.1,105.6,63.2,105.7z M63.2,108.2v7.2h-1.1v-7.2
					H63.2z"/>
				<path class="st6" d="M65.7,108.2l2.1,5.8l2.1-5.8h1.2l-2.7,7.2h-1.1l-2.7-7.2H65.7z"/>
				<path class="st6" d="M77.7,109.2c0.5,0.7,0.8,1.7,0.8,3h-5.7c0.1,0.8,0.3,1.4,0.7,1.9c0.4,0.4,0.9,0.7,1.6,0.7
					c0.6,0,1.1-0.2,1.4-0.4c0.3-0.3,0.5-0.6,0.7-1.1h1.1c-0.2,0.7-0.5,1.3-1,1.7c-0.6,0.5-1.4,0.8-2.3,0.8c-1,0-1.9-0.4-2.5-1
					c-0.6-0.7-1-1.6-1-2.8c0-1.1,0.3-2,0.9-2.7c0.6-0.8,1.4-1.1,2.5-1.1C76.2,108,77.1,108.4,77.7,109.2z M73.5,109.6
					c-0.4,0.4-0.6,1-0.7,1.7h4.5c-0.1-1.6-0.9-2.3-2.3-2.3C74.4,109,73.9,109.2,73.5,109.6z"/>
			</g>
		</g>
	</g>
	<g>
		<g>
			<rect x="135.3" y="96.1" class="st2" width="82.7" height="50"/>
			<rect x="133.9" y="94.1" class="st3" width="82.7" height="50"/>
		</g>
		<g transform="translate(20 9)">
			<g class="st5">
				<path class="st6" d="M144.3,106.1c0.7,0.5,1.1,1.3,1.1,2.4h-1.1c-0.1-0.7-0.4-1.3-0.8-1.6c-0.4-0.4-1.1-0.5-1.9-0.5
					c-0.7,0-1.3,0.1-1.7,0.4c-0.5,0.3-0.7,0.7-0.7,1.3c0,0.5,0.3,0.9,0.9,1.2c0.3,0.1,0.9,0.3,1.8,0.6c1.3,0.4,2.2,0.7,2.6,1
					c0.8,0.5,1.2,1.2,1.2,2.1s-0.4,1.6-1.1,2.1c-0.7,0.5-1.6,0.7-2.8,0.7s-2.1-0.3-2.8-0.8c-0.8-0.6-1.2-1.5-1.3-2.7h1.1
					c0.1,0.9,0.4,1.5,0.9,1.9s1.1,0.6,2,0.6c0.8,0,1.5-0.2,2-0.5s0.8-0.7,0.8-1.3c0-0.6-0.3-1.1-1-1.5c-0.3-0.2-1-0.4-2.1-0.7
					c-1.2-0.4-2-0.6-2.3-0.8c-0.8-0.4-1.1-1.1-1.1-1.9c0-0.9,0.4-1.6,1.1-2c0.7-0.4,1.5-0.7,2.5-0.7
					C142.8,105.3,143.7,105.5,144.3,106.1z"/>
				<path class="st6" d="M152.9,109.2c0.5,0.7,0.8,1.6,0.8,2.7s-0.3,1.9-0.8,2.6c-0.6,0.8-1.4,1.1-2.4,1.1s-1.8-0.5-2.4-1.5v4.1H147
					v-10h1.1v1.2c0.5-0.9,1.3-1.4,2.4-1.4C151.5,108,152.3,108.4,152.9,109.2z M148.6,109.8c-0.4,0.5-0.5,1.2-0.5,2v0.1
					c0,0.8,0.2,1.5,0.6,2c0.4,0.5,0.9,0.8,1.6,0.8c0.8,0,1.4-0.3,1.8-0.8c0.4-0.5,0.5-1.2,0.5-2.1s-0.2-1.5-0.5-2
					c-0.4-0.6-1-0.9-1.8-0.9C149.6,109,149,109.2,148.6,109.8z"/>
				<path class="st6" d="M160.6,108.9c0.4,0.5,0.6,1.1,0.6,2v4.7h-1.1v-1.2c-0.3,0.4-0.7,0.7-1.1,1c-0.5,0.3-1.1,0.4-1.8,0.4
					s-1.3-0.2-1.7-0.5c-0.4-0.4-0.7-0.9-0.7-1.5c0-0.8,0.3-1.4,1-1.9c0.6-0.4,1.4-0.6,2.5-0.6h1.7v-0.4c0-1.2-0.6-1.8-1.9-1.8
					c-0.5,0-1,0.1-1.3,0.3c-0.4,0.2-0.6,0.6-0.7,1l-1.1-0.1c0.2-0.8,0.5-1.3,1.1-1.7c0.5-0.3,1.2-0.5,2.1-0.5
					C159.4,108,160.1,108.3,160.6,108.9z M158.5,112c-1.6,0-2.4,0.6-2.4,1.6c0,0.3,0.1,0.6,0.4,0.8c0.3,0.2,0.6,0.3,1.1,0.3
					c0.7,0,1.3-0.2,1.8-0.7c0.5-0.4,0.8-0.9,0.8-1.5V112H158.5z"/>
				<path class="st6" d="M167.2,108.2v1.1c-0.4-0.1-0.7-0.2-1.1-0.2c-0.6,0-1,0.2-1.4,0.7s-0.6,1-0.6,1.7v3.8H163v-7.2h1.1v1.3
					c0.2-0.4,0.4-0.8,0.8-1c0.4-0.3,0.8-0.5,1.3-0.5C166.6,108,166.9,108.1,167.2,108.2z"/>
				<path class="st6" d="M169.3,105.3v6.3l3.6-3.4h1.5l-3.2,2.9l3.5,4.3h-1.4l-2.8-3.6l-1.1,1v2.6h-1.1v-10.2L169.3,105.3
					L169.3,105.3z"/>
			</g>
		</g>
	</g>
	<g>
		<g>
			<rect x="226.4" y="96.1" class="st2" width="82.7" height="50"/>
			<rect x="225.1" y="94.1" class="st3" width="82.7" height="50"/>
		</g>
		<g transform="translate(20 9)">
			<g class="st5">
				<path class="st6" d="M223.9,105.5v4.3h5.8v-4.3h1.1v10h-1.1v-4.7h-5.8v4.7h-1.1v-10H223.9z"/>
				<path class="st6" d="M238.1,108.9c0.4,0.5,0.6,1.1,0.6,2v4.7h-1.1v-1.2c-0.3,0.4-0.7,0.7-1.1,1c-0.5,0.3-1.1,0.4-1.8,0.4
					s-1.3-0.2-1.7-0.5c-0.4-0.4-0.7-0.9-0.7-1.5c0-0.8,0.3-1.4,1-1.9c0.6-0.4,1.4-0.6,2.5-0.6h1.7v-0.4c0-1.2-0.6-1.8-1.9-1.8
					c-0.5,0-1,0.1-1.3,0.3c-0.4,0.2-0.6,0.6-0.7,1l-1.1-0.1c0.2-0.8,0.5-1.3,1.1-1.7c0.5-0.3,1.2-0.5,2.1-0.5
					C236.9,108,237.6,108.3,238.1,108.9z M236,112c-1.6,0-2.4,0.6-2.4,1.6c0,0.3,0.1,0.6,0.4,0.8c0.3,0.2,0.6,0.3,1.1,0.3
					c0.7,0,1.3-0.2,1.8-0.7c0.5-0.4,0.8-0.9,0.8-1.5V112H236z"/>
				<path class="st6" d="M247,105.3v10.2h-1.1v-1.2c-0.5,0.9-1.3,1.4-2.4,1.4c-1.1,0-1.9-0.4-2.5-1.1c-0.5-0.7-0.8-1.6-0.8-2.7
					s0.3-1.9,0.8-2.6c0.6-0.8,1.4-1.2,2.4-1.2s1.8,0.5,2.4,1.5v-4.3C245.8,105.3,247,105.3,247,105.3z M241.9,109.8
					c-0.4,0.5-0.5,1.2-0.5,2c0,0.9,0.2,1.6,0.5,2.1c0.4,0.6,1,0.9,1.8,0.9c0.7,0,1.3-0.3,1.7-0.8s0.5-1.2,0.5-2v-0.1
					c0-0.8-0.2-1.5-0.6-2c-0.4-0.5-0.9-0.8-1.6-0.8C242.9,109,242.3,109.2,241.9,109.8z"/>
				<path class="st6" d="M254.5,109.2c0.6,0.7,0.9,1.6,0.9,2.7s-0.3,2-0.9,2.7c-0.7,0.8-1.5,1.1-2.6,1.1s-1.9-0.4-2.6-1.1
					c-0.6-0.7-0.9-1.6-0.9-2.7s0.3-2,0.9-2.7c0.6-0.8,1.5-1.1,2.6-1.1C253,108,253.9,108.4,254.5,109.2z M250.2,109.9
					c-0.4,0.5-0.6,1.2-0.6,2s0.2,1.5,0.6,2c0.4,0.6,1,0.9,1.8,0.9s1.4-0.3,1.8-0.9c0.4-0.5,0.6-1.2,0.6-2s-0.2-1.5-0.6-2
					c-0.4-0.6-1.1-0.9-1.8-0.9C251.2,109,250.6,109.3,250.2,109.9z"/>
				<path class="st6" d="M262.7,109.2c0.6,0.7,0.9,1.6,0.9,2.7s-0.3,2-0.9,2.7c-0.7,0.8-1.5,1.1-2.6,1.1s-1.9-0.4-2.6-1.1
					c-0.6-0.7-0.9-1.6-0.9-2.7s0.3-2,0.9-2.7c0.6-0.8,1.5-1.1,2.6-1.1C261.2,108,262.1,108.4,262.7,109.2z M258.4,109.9
					c-0.4,0.5-0.6,1.2-0.6,2s0.2,1.5,0.6,2c0.4,0.6,1,0.9,1.8,0.9s1.4-0.3,1.8-0.9c0.4-0.5,0.6-1.2,0.6-2s-0.2-1.5-0.6-2
					c-0.4-0.6-1.1-0.9-1.8-0.9C259.4,109,258.8,109.3,258.4,109.9z"/>
				<path class="st6" d="M271.1,109.2c0.5,0.7,0.8,1.6,0.8,2.7s-0.3,1.9-0.8,2.6c-0.6,0.8-1.4,1.1-2.4,1.1s-1.8-0.5-2.4-1.5v4.1
					h-1.1v-10h1.1v1.2c0.5-0.9,1.3-1.4,2.4-1.4C269.6,108,270.4,108.4,271.1,109.2z M266.8,109.8c-0.4,0.5-0.5,1.2-0.5,2v0.1
					c0,0.8,0.2,1.5,0.6,2s0.9,0.8,1.6,0.8c0.8,0,1.4-0.3,1.8-0.8s0.5-1.2,0.5-2.1s-0.2-1.5-0.5-2c-0.4-0.6-1-0.9-1.8-0.9
					C267.7,109,267.1,109.2,266.8,109.8z"/>
			</g>
		</g>
	</g>
</g>
<g id="textgroup" transform="translate(0,0)">
</g>
<g id="assistantgroup" transform="translate(0,0)">
</g>
<path class="st1" d="M25.4,2.3h301.1v403.3H25.4V2.3"/>
<g class="st5">
	<path class="st8" d="M167.9,197.4c0.2,0.2,0.3,0.4,0.3,0.6c0,0.2-0.1,0.4-0.3,0.6s-0.4,0.3-0.6,0.3c-0.3,0-0.4-0.1-0.6-0.3
		c-0.2-0.2-0.3-0.4-0.3-0.6c0-0.3,0.1-0.4,0.3-0.6c0.2-0.2,0.4-0.3,0.6-0.3C167.5,197.1,167.8,197.2,167.9,197.4z"/>
	<path class="st8" d="M171.6,197.4c0.2,0.2,0.3,0.4,0.3,0.6c0,0.2-0.1,0.4-0.3,0.6c-0.2,0.2-0.4,0.3-0.6,0.3c-0.3,0-0.4-0.1-0.6-0.3
		c-0.2-0.2-0.3-0.4-0.3-0.6c0-0.3,0.1-0.4,0.3-0.6c0.2-0.2,0.3-0.3,0.6-0.3C171.2,197.1,171.4,197.2,171.6,197.4z"/>
	<path class="st8" d="M175.3,197.4c0.2,0.2,0.3,0.4,0.3,0.6c0,0.2-0.1,0.4-0.3,0.6s-0.4,0.3-0.6,0.3c-0.3,0-0.4-0.1-0.6-0.3
		c-0.2-0.2-0.3-0.4-0.3-0.6c0-0.3,0.1-0.4,0.3-0.6c0.2-0.2,0.4-0.3,0.6-0.3C174.9,197.1,175.1,197.2,175.3,197.4z"/>
	<path class="st8" d="M179,197.4c0.2,0.2,0.3,0.4,0.3,0.6c0,0.2-0.1,0.4-0.3,0.6s-0.4,0.3-0.6,0.3c-0.3,0-0.4-0.1-0.6-0.3
		c-0.2-0.2-0.3-0.4-0.3-0.6c0-0.3,0.1-0.4,0.3-0.6c0.2-0.2,0.4-0.3,0.6-0.3C178.6,197.1,178.8,197.2,179,197.4z"/>
	<path class="st8" d="M182.7,197.4c0.2,0.2,0.3,0.4,0.3,0.6c0,0.2-0.1,0.4-0.3,0.6c-0.2,0.2-0.4,0.3-0.6,0.3c-0.3,0-0.4-0.1-0.6-0.3
		c-0.2-0.2-0.3-0.4-0.3-0.6c0-0.3,0.1-0.4,0.3-0.6c0.2-0.2,0.3-0.3,0.6-0.3C182.3,197.1,182.5,197.2,182.7,197.4z"/>
	<path class="st8" d="M186.4,197.4c0.2,0.2,0.3,0.4,0.3,0.6c0,0.2-0.1,0.4-0.3,0.6s-0.4,0.3-0.6,0.3c-0.3,0-0.4-0.1-0.6-0.3
		c-0.2-0.2-0.3-0.4-0.3-0.6c0-0.3,0.1-0.4,0.3-0.6c0.2-0.2,0.4-0.3,0.6-0.3C186,197.1,186.2,197.2,186.4,197.4z"/>
</g>
<g>
	<g>
		<rect x="419.6" y="83.9" class="st2" width="128" height="50"/>
		<rect x="417.6" y="81.9" class="st3" width="128" height="50"/>
	</g>
	<g>
		<g class="st5">
			<path class="st6" d="M496.1,102.3c0.8,0.6,1.2,1.4,1.3,2.4h-1.1c-0.1-0.7-0.5-1.3-1.1-1.7c-0.5-0.4-1.2-0.6-2-0.6
				c-1.2,0-2.1,0.4-2.7,1.2c-0.6,0.8-0.9,1.8-0.9,3s0.3,2.2,0.9,3s1.5,1.2,2.7,1.2c0.8,0,1.5-0.2,2-0.6c0.6-0.4,1-1.1,1.2-2h1.1
				c-0.2,1.2-0.7,2.1-1.6,2.7c-0.8,0.6-1.7,0.9-2.8,0.9c-1.6,0-2.7-0.5-3.6-1.5c-0.8-0.9-1.1-2.1-1.1-3.6s0.4-2.7,1.1-3.7
				c0.8-1.1,2-1.6,3.6-1.6C494.4,101.4,495.3,101.7,496.1,102.3z"/>
			<path class="st6" d="M507.1,102.9c0.8,1,1.2,2.2,1.2,3.7s-0.4,2.7-1.2,3.7c-0.9,1-2.1,1.5-3.6,1.5s-2.7-0.5-3.5-1.5
				s-1.2-2.2-1.2-3.7s0.4-2.7,1.2-3.7c0.9-1,2-1.5,3.6-1.5C505,101.4,506.2,101.9,507.1,102.9z M500.8,103.6c-0.6,0.8-0.9,1.8-0.9,3
				s0.3,2.2,0.9,3s1.6,1.2,2.7,1.2s2.1-0.4,2.7-1.1c0.6-0.8,0.9-1.8,0.9-3c0-1.3-0.3-2.3-0.9-3c-0.6-0.8-1.5-1.1-2.7-1.1
				S501.4,102.8,500.8,103.6z"/>
			<path class="st6" d="M515.9,102.2c0.7,0.5,1.1,1.3,1.1,2.4h-1.1c-0.1-0.7-0.4-1.3-0.8-1.6c-0.4-0.4-1.1-0.5-1.9-0.5
				c-0.7,0-1.3,0.1-1.7,0.4c-0.5,0.3-0.7,0.7-0.7,1.3c0,0.5,0.3,0.9,0.9,1.2c0.3,0.1,0.9,0.3,1.8,0.6c1.3,0.4,2.2,0.7,2.6,1
				c0.8,0.5,1.2,1.2,1.2,2.1s-0.3,1.6-1,2.1s-1.6,0.7-2.8,0.7s-2.1-0.3-2.8-0.8c-0.8-0.6-1.2-1.5-1.3-2.7h1.1
				c0.1,0.9,0.4,1.5,0.9,1.9s1.1,0.6,2,0.6c0.8,0,1.5-0.2,2-0.5s0.8-0.7,0.8-1.3c0-0.6-0.3-1.1-1-1.5c-0.3-0.2-1-0.4-2.1-0.7
				c-1.2-0.4-2-0.6-2.3-0.8c-0.8-0.4-1.1-1.1-1.1-1.9c0-0.9,0.4-1.6,1.1-2s1.5-0.7,2.5-0.7C514.4,101.4,515.3,101.6,515.9,102.2z"/>
		</g>
		<g>
			<polygon class="st4" points="473.4,114.8 461.4,121.7 449.4,114.8 449.4,101.1 461.4,94.2 473.4,101.1 473.4,101.1 475.4,99.9 
				461.4,91.9 447.4,99.9 447.4,115.9 461.4,123.9 475.4,115.9 475.4,103.9 473.4,105 			"/>
			<path class="st4" d="M461.4,99.9l-7,4v8l7,4l7-4v-8L461.4,99.9z M460.4,113l-4-2.3V107l4,2.3V113z M456.7,104.9l4.7-2.7l4.7,2.7
				l-4.7,2.7L456.7,104.9z M466.4,110.7l-4,2.3v-3.7l4-2.3V110.7z"/>
		</g>
	</g>
</g>
<g>
	<rect x="659.7" y="312.1" class="st2" width="132.1" height="50"/>
	<rect x="657.8" y="310.1" class="st3" width="132.1" height="50"/>
</g>
<g transform="translate(20 9)">
	<g class="st5">
		<path class="st6" d="M673.6,325.7l-0.7,0.7c-0.6-0.7-1.3-1.4-2.3-2.1l0.7-0.7C672.2,324.3,673,325,673.6,325.7z M673.9,327.7
			c-0.7,1.8-1.5,3.5-2.3,5.1l-0.9-0.4c0.9-1.6,1.7-3.3,2.3-5L673.9,327.7z M674.1,322.4l-0.7,0.7c-0.6-0.7-1.4-1.4-2.4-2.1l0.7-0.7
			C672.6,321,673.5,321.7,674.1,322.4z M676.9,322.9l-0.8,0.4c-0.5-0.9-1-1.7-1.6-2.4l0.8-0.4C675.9,321.2,676.4,322,676.9,322.9z
			 M679.2,320.1v3.8h3v7.5c0,0.9-0.4,1.4-1.3,1.4h-1.6l-0.3-1h1.6c0.4,0,0.7-0.2,0.7-0.7v-1.4h-5.1v3h-1v-8.9h3V320h1V320.1z
			 M681.2,324.9h-5.1v1.6h5.1V324.9z M676.1,329h5.1v-1.6h-5.1V329z M682.8,320.8c-0.4,0.9-1,1.8-1.6,2.6l-0.8-0.4
			c0.7-0.9,1.2-1.7,1.6-2.6L682.8,320.8z"/>
		<path class="st6" d="M686.7,329.1c-0.3,1.3-0.8,2.4-1.4,3.3l-0.9-0.5c0.6-0.9,1-1.9,1.3-3L686.7,329.1z M689.5,321.1
			c0.2-0.4,0.3-0.7,0.4-1.1l1.1,0.1c-0.1,0.3-0.3,0.7-0.4,1h4.6v6.8h-8.8v-6.8H689.5z M694.3,323.1V322h-6.8v1.1H694.3z
			 M694.3,325.1V324h-6.8v1.1H694.3z M694.3,325.9h-6.8v1.2h6.8V325.9z M688.9,332.7c-0.8,0-1.2-0.4-1.2-1.2v-2.7h1v2.5
			c0,0.3,0.2,0.5,0.5,0.5h3.1c0.3,0,0.5-0.1,0.7-0.2c0.2-0.2,0.3-0.7,0.3-1.7l1,0.3c-0.1,1.2-0.3,1.9-0.6,2.2
			c-0.3,0.2-0.7,0.3-1.2,0.3L688.9,332.7L688.9,332.7z M692.4,330.2l-0.8,0.5c-0.4-0.6-1-1.3-1.7-2l0.7-0.5
			C691.4,329,692,329.7,692.4,330.2z M697.2,331.6l-0.8,0.6c-0.5-0.9-1.2-1.9-2-3l0.8-0.5C696.1,329.8,696.7,330.8,697.2,331.6z"/>
		<path class="st6" d="M705.3,320v2.5h5v6.6h-1v-0.9h-4v4.8h-1v-4.8h-4v0.9h-1v-6.6h5V320H705.3z M704.3,327.2v-3.7h-4v3.7H704.3z
			 M709.3,327.2v-3.7h-4v3.7H709.3z"/>
		<path class="st6" d="M714.2,322.4v10.5h-1v-10.5H714.2z M716.9,322.5L716,323c-0.5-1-1.1-1.8-1.7-2.6l0.9-0.4
			C715.9,320.7,716.4,321.5,716.9,322.5z M721.4,323.9v6.5h-5.3v-6.5H721.4z M720.5,326.7v-1.9H717v1.9H720.5z M720.5,327.6H717v1.9
			h3.4L720.5,327.6L720.5,327.6z M721.8,332.8l-0.3-0.9h1.2c0.4,0,0.6-0.3,0.6-0.9v-9.3H718v-0.9h6.4v10.5c0,1-0.5,1.5-1.4,1.5
			L721.8,332.8L721.8,332.8z"/>
		<path class="st6" d="M730.4,320.4c-0.4,1.1-0.8,2.2-1.4,3.2v9.4h-1v-7.8c-0.4,0.6-0.9,1.2-1.5,1.8l-0.3-1.1
			c1.5-1.7,2.5-3.6,3.2-5.8L730.4,320.4z M732.8,321c-0.1,0.7-0.3,1.4-0.5,2h2.1v-2.9h1v2.9h3.2v1h-3.2v3.4h3.7v1h-3.7v4.5h-1v-4.5
			h-4.1v-1h4.1V324H732c-0.3,0.9-0.8,1.8-1.3,2.5l-0.6-0.8c0.9-1.3,1.4-2.9,1.7-4.7H732.8z"/>
	</g>
</g>
<g>
	<g class="st5">
		<path class="st9" d="M575.5,92.3l3.4,8.6h-1.1l-0.9-2.4H573l-0.9,2.4H571l3.4-8.6H575.5z M576.6,97.7l-1.6-4.3l0,0l-1.6,4.3H576.6
			z"/>
		<path class="st9" d="M583.3,92.3c2,0,3,0.8,3,2.5s-1,2.5-3,2.5h-2.5v3.5h-1v-8.6L583.3,92.3L583.3,92.3z M580.7,96.5h2.5
			c0.7,0,1.2-0.1,1.5-0.4s0.5-0.7,0.5-1.3c0-0.6-0.2-1-0.5-1.2c-0.3-0.3-0.8-0.4-1.5-0.4h-2.5V96.5z"/>
		<path class="st9" d="M588.5,92.3v8.6h-1v-8.6H588.5z"/>
		<path class="st9" d="M595,91l-4.2,11h-0.9l4.3-11H595z"/>
		<path class="st9" d="M601.5,92.8c0.6,0.5,0.9,1.1,1,2h-1c-0.1-0.6-0.3-1.1-0.7-1.4s-0.9-0.5-1.6-0.5c-0.6,0-1.1,0.1-1.5,0.3
			c-0.4,0.2-0.6,0.6-0.6,1.1c0,0.4,0.2,0.8,0.7,1c0.2,0.1,0.7,0.3,1.6,0.5c1.1,0.3,1.9,0.6,2.2,0.8c0.7,0.4,1.1,1,1.1,1.8
			c0,0.7-0.3,1.3-0.9,1.8c-0.6,0.4-1.4,0.6-2.4,0.6s-1.8-0.2-2.4-0.6c-0.7-0.5-1-1.3-1.1-2.4h1c0.1,0.7,0.3,1.3,0.8,1.6
			c0.4,0.3,1,0.5,1.7,0.5s1.3-0.1,1.7-0.4s0.6-0.6,0.6-1.1s-0.3-1-0.9-1.3c-0.2-0.1-0.9-0.3-1.8-0.6c-1-0.3-1.7-0.6-2-0.7
			c-0.7-0.4-1-0.9-1-1.7c0-0.7,0.3-1.3,0.9-1.7c0.6-0.4,1.3-0.6,2.2-0.6C600.2,92.1,600.9,92.4,601.5,92.8z"/>
		<path class="st9" d="M607,92.3c1.4,0,2.4,0.4,3.1,1.2c0.6,0.7,1,1.8,1,3.1c0,1.3-0.3,2.4-1,3.1c-0.7,0.8-1.8,1.2-3.1,1.2h-3v-8.6
			C604,92.3,607,92.3,607,92.3z M604.9,100h1.8c1.1,0,2-0.3,2.5-0.9s0.8-1.4,0.8-2.5c0-1.2-0.3-2-0.7-2.6c-0.5-0.6-1.3-0.9-2.5-0.9
			h-1.9L604.9,100L604.9,100z"/>
		<path class="st9" d="M619.2,92.3l-3.9,3.7l4.4,4.9h-1.3l-3.8-4.3l-1.3,1.3v3h-1v-8.6h1v4.5l4.6-4.5H619.2z"/>
	</g>
</g>
<g>
	<g class="st5">
		<path class="st9" d="M522.4,318.2c2,0,2.9,0.8,2.9,2.5s-1,2.5-3,2.5h-2.5v3.5h-1v-8.6h3.6V318.2z M519.9,322.4h2.5
			c0.7,0,1.2-0.1,1.5-0.4s0.5-0.7,0.5-1.3c0-0.6-0.2-1-0.5-1.2c-0.3-0.3-0.8-0.4-1.5-0.4h-2.5V322.4z"/>
		<path class="st9" d="M531.5,321.3c0.5,0.6,0.8,1.4,0.8,2.3s-0.3,1.7-0.8,2.3c-0.6,0.6-1.3,1-2.2,1s-1.7-0.3-2.2-1
			c-0.5-0.6-0.8-1.4-0.8-2.3s0.3-1.7,0.8-2.3c0.6-0.6,1.3-1,2.2-1C530.2,320.4,530.9,320.7,531.5,321.3z M527.7,321.9
			c-0.3,0.5-0.5,1-0.5,1.7s0.2,1.2,0.5,1.7c0.4,0.5,0.9,0.8,1.5,0.8s1.2-0.3,1.5-0.8s0.5-1,0.5-1.7s-0.2-1.3-0.5-1.7
			c-0.4-0.5-0.9-0.8-1.5-0.8C528.6,321.2,528.1,321.4,527.7,321.9z"/>
		<path class="st9" d="M534.6,318v8.7h-0.9V318H534.6z"/>
		<path class="st9" d="M537.5,318v8.7h-0.9V318H537.5z"/>
	</g>
</g>
<g>
	<g class="st5">
		<path class="st9" d="M737.3,250.5l3.4,8.6h-1.1l-0.9-2.4h-3.9l-0.9,2.4h-1.1l3.4-8.6H737.3z M738.4,255.9l-1.6-4.3l0,0l-1.6,4.3
			H738.4z"/>
		<path class="st9" d="M745,250.5c2,0,3,0.8,3,2.5s-1,2.5-3,2.5h-2.5v3.5h-1v-8.6h3.5V250.5z M742.5,254.8h2.5
			c0.7,0,1.2-0.1,1.5-0.4c0.3-0.3,0.5-0.7,0.5-1.3s-0.2-1-0.5-1.2c-0.3-0.3-0.8-0.4-1.5-0.4h-2.5V254.8z"/>
		<path class="st9" d="M750.3,250.5v8.6h-1v-8.6H750.3z"/>
		<path class="st9" d="M756.8,249.3l-4.2,11h-0.9l4.3-11L756.8,249.3L756.8,249.3z"/>
		<path class="st9" d="M763.3,251c0.6,0.5,0.9,1.1,1,2h-1c-0.1-0.6-0.3-1.1-0.7-1.4c-0.4-0.3-0.9-0.5-1.6-0.5
			c-0.6,0-1.1,0.1-1.5,0.3s-0.6,0.6-0.6,1.1c0,0.4,0.2,0.8,0.7,1c0.2,0.1,0.7,0.3,1.6,0.5c1.1,0.3,1.9,0.6,2.2,0.8
			c0.7,0.4,1.1,1,1.1,1.8c0,0.7-0.3,1.3-0.9,1.8c-0.6,0.4-1.4,0.6-2.4,0.6s-1.8-0.2-2.4-0.6c-0.7-0.5-1-1.3-1.1-2.4h1
			c0.1,0.7,0.3,1.3,0.8,1.6c0.4,0.3,1,0.5,1.7,0.5s1.3-0.1,1.7-0.4s0.6-0.6,0.6-1.1s-0.3-1-0.9-1.3c-0.2-0.1-0.9-0.3-1.8-0.6
			c-1-0.3-1.7-0.6-2-0.7c-0.7-0.4-1-0.9-1-1.7c0-0.7,0.3-1.3,0.9-1.7c0.6-0.4,1.3-0.6,2.2-0.6C761.9,250.4,762.7,250.6,763.3,251z"
			/>
		<path class="st9" d="M768.7,250.5c1.4,0,2.4,0.4,3.1,1.2c0.6,0.7,1,1.8,1,3.1s-0.3,2.4-1,3.1c-0.7,0.8-1.8,1.2-3.1,1.2h-3v-8.6
			H768.7z M766.7,258.3h1.8c1.1,0,2-0.3,2.5-0.9s0.8-1.4,0.8-2.5c0-1.2-0.3-2-0.7-2.6c-0.5-0.6-1.3-0.9-2.5-0.9h-1.9L766.7,258.3
			L766.7,258.3z"/>
		<path class="st9" d="M781,250.5l-3.9,3.7l4.4,4.9h-1.3l-3.8-4.3l-1.3,1.3v3h-1v-8.6h1v4.4l4.6-4.4H781z"/>
	</g>
</g>
<g>
	<polygon class="st9" points="342.6,331.1 337.6,335.6 342.6,340.1 	"/>
	<rect x="339.4" y="335.1" class="st9" width="317.9" height="1"/>
</g>
<g>
	<polygon class="st9" points="328.6,321.3 328.6,320.3 402.4,320.3 482.1,320.3 482.1,321.3 	"/>
</g>
<g>
	<polygon class="st9" points="486.1,148.6 481.6,143.6 477.1,148.6 	"/>
	<polygon class="st9" points="482.1,321.3 481.1,321.3 481.1,236.4 481.1,144.8 482.1,144.8 	"/>
</g>
<g>
	<polygon class="st9" points="562.6,103.4 557.6,107.9 562.6,112.4 	"/>
	<rect x="558.5" y="107.4" class="st9" width="85.8" height="1"/>
</g>
<g>
	<polygon class="st9" points="721.8,296.2 726.3,301.2 730.8,296.2 	"/>
	<rect x="725.8" y="208.6" class="st9" width="1" height="90.1"/>
</g>
<g>
	<polygon class="st9" points="342.1,103.1 337.1,107.6 342.1,112.1 	"/>
	<polygon class="st9" points="402.6,112.1 407.6,107.6 402.6,103.1 	"/>
	<line class="st10" x1="402.6" y1="107.6" x2="339.6" y2="107.6"/>
</g>
</svg>
