<?xml version="1.0" encoding="UTF-8"?>
<svg width="32px" height="32px" viewBox="0 0 32 32" version="1.1" xmlns="http://www.w3.org/2000/svg" xmlns:xlink="http://www.w3.org/1999/xlink">
    <!-- Generator: Sketch 49 (51002) - http://www.bohemiancoding.com/sketch -->
    <title>云服务器</title>
    <desc>Created with Sketch.</desc>
    <defs></defs>
    <g id="Welcome" stroke="none" stroke-width="1" fill="none" fill-rule="evenodd">
        <g id="Desktop-HD" transform="translate(-83.000000, -31.000000)" fill="#00A4FF">
            <g id="计算" transform="translate(83.000000, 31.000000)">
                <g id="云服务器">
                    <path d="M31.7193022,13.0004945 L29.6779284,13.0004945 C28.3047737,6.70988283 22.7024129,2 16,2 C8.2680135,2 2,8.2680135 2,16 C2,23.7319865 8.2680135,30 16,30 C23.0527724,30 28.8874794,24.7848417 29.8581515,18.0004945 L31.8761508,18.0004945 C30.8917351,25.8928783 24.1590649,32 16,32 C7.163444,32 0,24.836556 0,16 C0,7.163444 7.163444,0 16,0 C23.8113418,0 30.3152783,5.59766728 31.7193022,13.0004945 Z" id="Combined-Shape" fill-rule="nonzero"></path>
                    <rect id="Rectangle-3" x="9" y="12" width="2" height="8"></rect>
                    <rect id="Rectangle-3-Copy" x="21" y="12" width="2" height="8"></rect>
                    <rect id="Rectangle-3-Copy" transform="translate(18.983288, 14.813858) rotate(61.000000) translate(-18.983288, -14.813858) " x="17.9832884" y="10.8138582" width="2" height="8"></rect>
                    <rect id="Rectangle-3-Copy-3" transform="translate(19.199521, 20.960628) rotate(61.000000) translate(-19.199521, -20.960628) " x="18.1995205" y="17.1735573" width="2" height="7.57414164"></rect>
                    <rect id="Rectangle-3-Copy" transform="translate(12.983288, 14.813858) scale(-1, 1) rotate(61.000000) translate(-12.983288, -14.813858) " x="11.9832884" y="10.8138582" width="2" height="8"></rect>
                    <polygon id="Rectangle-3-Copy-2" transform="translate(11.232051, 20.126025) scale(-1, 1) rotate(60.000000) translate(-11.232051, -20.126025) " points="10.2320508 18.1260254 12.2320508 18.1260254 12.2320508 22.1260254 11.6817311 22.1260254 10.2320508 22.1260254"></polygon>
                    <rect id="Rectangle-3-Copy" transform="translate(19.034102, 10.866025) scale(1, -1) rotate(60.000000) translate(-19.034102, -10.866025) " x="18.0341016" y="6.8660254" width="2" height="8"></rect>
                    <rect id="Rectangle-3-Copy" transform="translate(12.964102, 10.866025) scale(-1, -1) rotate(60.000000) translate(-12.964102, -10.866025) " x="11.9641016" y="6.8660254" width="2" height="8"></rect>
                    <circle id="Oval-3" cx="17" cy="22" r="2"></circle>
                    <polygon id="Path-2" points="16.0029612 7.95628357 15.720253 8.12047638 16.2791867 8.12047638"></polygon>
                </g>
            </g>
        </g>
    </g>
</svg>