<?xml version="1.0" encoding="utf-8"?>
<!-- Generator: Adobe Illustrator 22.0.0, SVG Export Plug-In . SVG Version: 6.00 Build 0)  -->
<svg version="1.1" id="svgwrapper_svg" xmlns="http://www.w3.org/2000/svg" xmlns:xlink="http://www.w3.org/1999/xlink" x="0px"
	 y="0px" width="830px" height="415.93px" viewBox="0 0 830 415.93" style="enable-background:new 0 0 830 415.93;"
	 xml:space="preserve">
<path style="display:none;fill:none;stroke:#999999;" d="M807.897,192.142L824,187.724"/>
<rect x="192.13" y="92.564" style="fill:#CEE3FF;" width="540" height="260"/>
<g transform="translate(10 10)">
	<g>
		<g style="enable-background:new    ;">
			<path style="fill:#878787;" d="M349.569,394.906c0.792,0,1.427,0.192,1.895,0.576c0.456,0.384,0.684,0.911,0.684,1.583
				c0,0.479-0.132,0.899-0.384,1.247c-0.264,0.312-0.612,0.54-1.043,0.684c0.563,0.096,0.996,0.336,1.307,0.695
				c0.312,0.36,0.48,0.816,0.48,1.392c0,0.84-0.3,1.463-0.888,1.871c-0.504,0.336-1.199,0.516-2.075,0.516h-3.802v-8.563
				L349.569,394.906L349.569,394.906L349.569,394.906z M346.727,398.648h2.603c0.6,0,1.055-0.132,1.367-0.372
				c0.312-0.252,0.479-0.623,0.479-1.115c0-0.479-0.156-0.84-0.468-1.079c-0.312-0.24-0.768-0.348-1.367-0.348h-2.614V398.648z
				 M346.727,402.642h2.734c0.6,0,1.067-0.12,1.427-0.336c0.42-0.264,0.636-0.684,0.636-1.235s-0.192-0.96-0.552-1.224
				c-0.348-0.264-0.852-0.384-1.511-0.384h-2.734V402.642z"/>
			<path style="fill:#878787;" d="M358.737,398.06c0.528,0.612,0.792,1.38,0.792,2.314c0,0.924-0.264,1.691-0.78,2.291
				c-0.563,0.647-1.307,0.972-2.23,0.972c-0.936,0-1.667-0.324-2.219-0.972c-0.528-0.6-0.792-1.367-0.792-2.291
				c0-0.935,0.264-1.702,0.792-2.314c0.552-0.647,1.283-0.959,2.219-0.959C357.44,397.101,358.185,397.413,358.737,398.06z
				 M354.983,398.66c-0.336,0.456-0.492,1.02-0.492,1.715c0,0.684,0.156,1.248,0.492,1.703c0.36,0.504,0.875,0.756,1.535,0.756
				c0.647,0,1.163-0.252,1.547-0.756c0.324-0.455,0.492-1.031,0.492-1.703c0-0.695-0.167-1.259-0.492-1.715
				c-0.384-0.504-0.899-0.755-1.547-0.755C355.858,397.905,355.342,398.156,354.983,398.66z"/>
			<path style="fill:#878787;" d="M362.435,397.269h1.535v0.803h-1.535v3.946c0,0.228,0.036,0.396,0.132,0.492
				c0.084,0.096,0.24,0.155,0.456,0.155h0.792v0.804h-0.937c-0.503,0-0.875-0.132-1.091-0.396c-0.204-0.24-0.3-0.588-0.3-1.056
				v-3.946h-1.247v-0.803h1.247v-1.607l0.948-0.396L362.435,397.269L362.435,397.269z"/>
			<path style="fill:#878787;" d="M368.277,394.138c-0.672,1.331-1.751,2.507-3.238,3.526l-0.252-0.863
				c1.248-0.888,2.147-1.896,2.71-3.022L368.277,394.138z M368.841,396.873c-0.348,0.672-0.779,1.319-1.307,1.919v5.877h-0.852
				v-5.001c-0.48,0.432-0.996,0.852-1.571,1.247l-0.252-0.863c1.463-1.031,2.531-2.207,3.203-3.538L368.841,396.873z
				 M375.665,397.485v0.852h-1.943v5.145c0,0.756-0.396,1.14-1.188,1.14h-1.739l-0.18-0.852c0.564,0.036,1.104,0.06,1.619,0.06
				c0.408,0,0.612-0.191,0.612-0.563v-4.929h-3.778v-0.852h6.597L375.665,397.485L375.665,397.485z M375.138,394.438v0.852h-5.745
				v-0.852H375.138z"/>
			<path style="fill:#878787;" d="M382.077,393.671v1.428c-0.012,0.527-0.036,1.043-0.072,1.535h4.941
				c0,3.43-0.156,5.612-0.456,6.548c-0.312,0.936-0.875,1.403-1.679,1.403c-0.587,0-1.079-0.023-1.487-0.048l-0.228-0.84
				c0.612,0.048,1.164,0.072,1.667,0.072c0.672-0.048,1.067-0.731,1.164-2.026c0.096-1.308,0.144-2.735,0.144-4.271h-4.149
				c-0.192,1.512-0.528,2.771-1.02,3.803c-0.708,1.427-1.871,2.542-3.502,3.346l-0.492-0.768c1.607-0.815,2.734-1.895,3.358-3.25
				c0.372-0.888,0.636-1.931,0.792-3.131h-3.73v-0.839h3.826c0.036-0.504,0.06-1.008,0.072-1.535v-1.428L382.077,393.671
				L382.077,393.671z M380.121,395.878l-0.671,0.468c-0.42-0.6-0.959-1.235-1.607-1.907l0.66-0.468
				C379.198,394.69,379.737,395.326,380.121,395.878z M384.715,401.503l-0.756,0.527c-0.479-0.768-1.115-1.631-1.931-2.566
				l0.696-0.432C383.587,399.979,384.247,400.807,384.715,401.503z"/>
			<path style="fill:#878787;" d="M389.686,396.586l-0.755-0.48c0.72-0.743,1.247-1.583,1.583-2.494l0.828,0.18
				c-0.096,0.264-0.204,0.504-0.3,0.743h3.214v0.756h-2.015c0.264,0.36,0.492,0.708,0.66,1.031l-0.792,0.3
				c-0.216-0.455-0.48-0.899-0.78-1.331h-0.684C390.358,395.758,390.047,396.189,389.686,396.586z M399.378,399.128h-0.84v-1.427
				h-8.491v1.427h-0.839v-2.171h4.75c-0.12-0.287-0.24-0.539-0.372-0.779l0.839-0.144l-0.072-0.049
				c0.576-0.719,0.983-1.499,1.248-2.362l0.827,0.18c-0.084,0.252-0.167,0.492-0.264,0.731h3.466v0.756h-2.135
				c0.252,0.336,0.456,0.647,0.6,0.936l-0.768,0.288c-0.216-0.432-0.468-0.84-0.756-1.224h-0.755
				c-0.216,0.408-0.468,0.792-0.732,1.151l-0.647-0.396c0.132,0.275,0.264,0.575,0.384,0.911h4.558L399.378,399.128L399.378,399.128
				z M397.723,400.759h-5.985v0.828h6.537v3.082h-0.852v-0.504h-5.685v0.492h-0.863v-6.249h6.848V400.759z M396.883,400.063v-0.959
				h-5.146v0.959H396.883z M397.423,403.397v-1.115h-5.685v1.115H397.423z"/>
			<path style="fill:#878787;" d="M402.358,398.108v-2.83h-1.451v-0.815h3.778v0.815h-1.439v2.83h1.308v0.84h-1.308v2.687
				c0.48-0.168,0.959-0.359,1.439-0.576v0.828c-1.151,0.504-2.399,0.911-3.718,1.247l-0.216-0.827c0.54-0.108,1.08-0.24,1.607-0.384
				v-2.975h-1.283v-0.84L402.358,398.108L402.358,398.108z M411.161,394.138v5.553h-2.446v1.464h2.639v0.804h-2.639v1.522h3.022
				v0.828h-6.909v-0.828h3.022v-1.522h-2.662v-0.804h2.662v-1.464h-2.458v-5.553H411.161z M407.852,396.55v-1.644h-1.631v1.644
				H407.852z M407.852,397.293h-1.631v1.631h1.631V397.293z M408.716,396.55h1.619v-1.644h-1.619V396.55z M410.335,397.293h-1.619
				v1.631h1.619V397.293z"/>
			<path style="fill:#878787;" d="M415.306,398.133v0.12c-0.084,2.662-0.695,4.797-1.835,6.38l-0.612-0.636
				c0.984-1.391,1.512-3.298,1.584-5.744v-3.706c2.998-0.036,5.696-0.288,8.095-0.756l0.408,0.743
				c-2.278,0.433-4.821,0.684-7.64,0.756v2.027h7.22v0.768c-0.456,1.535-1.295,2.854-2.507,3.958
				c1.032,0.719,2.279,1.354,3.742,1.906l-0.468,0.756c-1.559-0.624-2.854-1.344-3.897-2.135c-1.104,0.852-2.471,1.559-4.078,2.135
				l-0.479-0.731c1.535-0.528,2.83-1.188,3.874-1.955c-1.271-1.14-2.123-2.435-2.555-3.886L415.306,398.133L415.306,398.133z
				 M421.651,398.133h-4.678c0.407,1.271,1.199,2.398,2.362,3.382C420.44,400.543,421.207,399.416,421.651,398.133z"/>
			<path style="fill:#878787;" d="M430.629,394.318c-0.229,0.097-0.468,0.192-0.708,0.276c0,1.535,0.024,3.238,0.084,5.109
				c0.061,1.559,0.444,2.59,1.14,3.082c0.84,0.647,2.387,0.983,4.642,0.983l-0.324,0.804c-2.423-0.036-4.09-0.468-5.013-1.295
				c-0.517-0.504-0.864-1.224-1.056-2.184c-0.156-0.743-0.24-2.83-0.252-6.26c-0.288,0.071-0.576,0.144-0.888,0.216v9.438h-0.792
				v-9.295c-0.335,0.048-0.671,0.084-1.007,0.132v3.263c-0.036,2.338-0.396,4.341-1.067,5.996l-0.6-0.623
				c0.575-1.512,0.875-3.299,0.911-5.373v-3.994c1.847-0.168,3.298-0.479,4.354-0.936L430.629,394.318z M435.329,398.637h-3.55
				v2.015c0,0.336,0.168,0.504,0.527,0.504h2.039c0.216-0.013,0.359-0.12,0.443-0.312c0.061-0.168,0.108-0.587,0.156-1.247
				l0.779,0.264c-0.048,0.66-0.132,1.128-0.228,1.416c-0.144,0.432-0.456,0.647-0.911,0.671h-2.591c-0.66,0-0.983-0.348-0.983-1.031
				v-6.584h4.317v4.304L435.329,398.637L435.329,398.637z M431.78,395.122v2.723h1.055v-2.723H431.78z M434.574,397.845v-2.723
				h-1.02v2.723H434.574z"/>
			<path style="fill:#878787;" d="M440.984,394.15v0.685c-0.359,1.079-0.791,2.206-1.283,3.382c0.744,1.079,1.151,2.062,1.199,2.95
				c0,0.504-0.132,0.863-0.371,1.079c-0.336,0.265-0.948,0.408-1.812,0.42l-0.275-0.875c0.18,0.023,0.335,0.048,0.468,0.048
				c0.455-0.024,0.755-0.084,0.899-0.18c0.144-0.097,0.228-0.252,0.228-0.492c0-0.84-0.408-1.787-1.224-2.818
				c0.552-1.247,0.996-2.375,1.308-3.382h-1.991v9.714h-0.852v-10.53h3.706V394.15z M444.151,395.458
				c-0.167-0.611-0.348-1.175-0.563-1.679l0.863-0.145c0.204,0.528,0.396,1.128,0.576,1.823h2.603v0.84h-3.97
				c-0.012,0.468-0.036,1.163-0.084,2.074h3.43c-0.023,2.567-0.119,4.21-0.275,4.941c-0.216,0.792-0.756,1.212-1.595,1.235
				c-0.288,0-0.636-0.023-1.044-0.06l-0.275-0.804c0.479,0.024,0.899,0.048,1.235,0.048c0.503-0.023,0.827-0.336,0.959-0.936
				c0.072-0.563,0.108-1.763,0.12-3.586h-2.627c-0.12,0.996-0.348,1.907-0.695,2.734c-0.468,1.008-1.115,1.932-1.943,2.771
				l-0.636-0.6c0.984-1.067,1.644-2.051,1.968-2.962c0.312-0.912,0.491-1.932,0.539-3.059c0.024-0.815,0.048-1.415,0.061-1.799
				h-1.644v-0.84h2.997L444.151,395.458L444.151,395.458z"/>
			<path style="fill:#878787;" d="M450.443,398.408c-0.013,2.423-0.372,4.51-1.092,6.249l-0.636-0.576
				c0.6-1.463,0.911-3.346,0.924-5.673v-4.258h5.78v2.938h-4.977L450.443,398.408L450.443,398.408z M450.443,394.954v1.355h4.161
				v-1.355H450.443z M453.548,397.533v1.163h1.884v3.814c0,0.647-0.3,0.971-0.9,0.971h-0.551l-0.204-0.768l0.504,0.036
				c0.239,0,0.371-0.144,0.371-0.407v-2.879h-1.104v5.098h-0.779v-5.098h-1.079v4.09h-0.768v-4.857h1.847v-1.163H453.548z
				 M456.464,404.561l-0.18-0.816c0.575,0.036,1.127,0.061,1.654,0.061c0.349,0,0.528-0.204,0.528-0.588v-9.511h0.839v9.727
				c0,0.744-0.359,1.128-1.079,1.128L456.464,404.561L456.464,404.561z M457.159,394.726v7.472h-0.804v-7.472H457.159z"/>
		</g>
	</g>
</g>
<rect x="213.087" y="119.001" style="opacity:0.6;fill:#BBBBBB;enable-background:new    ;" width="87.511" height="45.109"/>
<rect x="211.283" y="117.197" style="fill:#FFFFFF;stroke:#E5E5E5;" width="87.511" height="45.109"/>
<g transform="translate(20 9)">
	<g style="enable-background:new    ;">
		<path style="fill:#444444;" d="M213.814,129.425v-4.46h0.872v4.46h1.517v0.821h-1.517v0.404c0.632,0.657,1.251,1.39,1.883,2.186
			l-0.519,0.771c-0.53-0.896-0.985-1.617-1.364-2.173v5.092h-0.872v-4.864c-0.416,1.111-0.973,2.135-1.68,3.045l-0.392-0.985
			c0.935-1.023,1.617-2.187,2.021-3.475h-1.757v-0.821L213.814,129.425L213.814,129.425z M213.246,128.654l-0.632,0.151
			c-0.151-0.897-0.341-1.756-0.568-2.59l0.67-0.215C212.905,126.771,213.082,127.656,213.246,128.654z M216.405,125.874
			c-0.076,1.062-0.278,2.009-0.581,2.843l-0.619-0.202c0.265-0.783,0.441-1.692,0.518-2.729L216.405,125.874z M220.474,124.927
			v0.809h2.628v0.758h-2.628v0.834h2.273v0.733h-2.273v0.858h2.956v0.759h-6.822v-0.759h2.994v-0.858h-2.351v-0.733h2.351v-0.834
			h-2.704v-0.758h2.704v-0.809C219.602,124.927,220.474,124.927,220.474,124.927z M218.161,136.5h-0.859v-6.001h5.42v4.939
			c0,0.67-0.354,1.011-1.035,1.011h-0.885l-0.228-0.809l0.859,0.038c0.265,0,0.404-0.151,0.404-0.43v-0.771h-3.677L218.161,136.5
			C218.16,136.5,218.161,136.5,218.161,136.5z M221.838,131.244h-3.677v0.935h3.677V131.244z M218.161,133.783h3.677v-0.896h-3.677
			V133.783z"/>
		<path style="fill:#444444;" d="M227.343,128.237l-0.759,0.518c-0.479-0.872-1.149-1.845-1.996-2.918l0.771-0.48
			C226.218,126.456,226.888,127.416,227.343,128.237z M227.405,131.18c-0.581,1.87-1.238,3.613-1.945,5.256l-0.859-0.366
			c0.758-1.706,1.428-3.449,1.983-5.218L227.405,131.18z M229.578,136.538h-0.884v-7.454c-0.366,0.594-0.771,1.162-1.2,1.705
			l-0.304-0.96c1.1-1.491,1.87-3.134,2.325-4.915l0.871,0.177c-0.189,0.695-0.416,1.365-0.682,2.009h2.691
			c-0.202-0.707-0.442-1.377-0.733-2.021l0.872-0.252c0.303,0.783,0.53,1.503,0.694,2.147l-0.341,0.126h2.843v0.859h-2.666v1.731
			h2.4v0.846h-2.4v1.731h2.426v0.847h-2.426v1.882h2.932v0.847h-6.419L229.578,136.538L229.578,136.538z M229.578,127.959v1.731
			h2.616v-1.731H229.578z M229.578,132.267h2.616v-1.731h-2.616V132.267z M229.578,134.996h2.616v-1.882h-2.616V134.996z"/>
		<path style="fill:#444444;" d="M239.847,128.805v5.571c0.404-0.354,0.834-0.771,1.301-1.238l0.24,0.961
			c-0.732,0.732-1.504,1.377-2.324,1.945l-0.354-0.809c0.177-0.151,0.266-0.328,0.266-0.53v-5.028h-1.832v-0.872H239.847z
			 M240.769,126.986l-0.619,0.632c-0.518-0.606-1.226-1.251-2.122-1.934l0.632-0.619
			C239.492,125.697,240.188,126.342,240.769,126.986z M244.256,132.747c-0.632,1.479-1.377,2.755-2.236,3.841l-0.796-0.581
			c0.872-1.011,1.617-2.236,2.224-3.651L244.256,132.747z M247.907,125.697v5.9h-5.812v-5.9H247.907z M246.997,126.569h-3.992v4.144
			h3.992V126.569z M248.778,135.994l-0.783,0.544c-0.556-1.138-1.301-2.388-2.249-3.753l0.733-0.467
			C247.478,133.72,248.248,134.946,248.778,135.994z"/>
		<path style="fill:#444444;" d="M250.442,129.463v-4.018h5.37v4.018h-2.477c-0.025,0.556-0.063,1.061-0.114,1.541h2.717
			c0,2.198-0.063,3.551-0.189,4.081c-0.126,0.834-0.732,1.264-1.832,1.264c-0.177,0-0.455-0.013-0.859-0.038l-0.215-0.809
			c0.367,0.025,0.683,0.051,0.948,0.051c0.632,0,1.011-0.278,1.111-0.821c0.076-0.316,0.114-1.276,0.139-2.881h-1.933
			c-0.139,0.771-0.303,1.402-0.505,1.883c-0.468,1.073-1.238,1.996-2.312,2.767l-0.581-0.721c0.973-0.669,1.668-1.478,2.072-2.413
			c0.177-0.404,0.315-0.909,0.429-1.516h-2.248v-0.847h2.362c0.051-0.48,0.101-0.985,0.126-1.541
			C252.451,129.463,250.442,129.463,250.442,129.463z M254.94,126.265h-3.626v2.363h3.626V126.265z M258.124,126.052v7.871h-0.884
			v-7.871H258.124z M257.796,136.411l-0.202-0.871c0.594,0.037,1.149,0.062,1.681,0.062c0.392,0,0.594-0.228,0.594-0.682v-9.943
			h0.909v10.171c0,0.833-0.404,1.263-1.188,1.263C259.59,136.411,257.796,136.411,257.796,136.411z"/>
	</g>
</g>
<rect x="350.217" y="119.001" style="opacity:0.6;fill:#BBBBBB;enable-background:new    ;" width="87.511" height="45.109"/>
<rect x="348.413" y="117.197" style="fill:#FFFFFF;stroke:#E5E5E5;" width="87.511" height="45.109"/>
<g transform="translate(20 9)">
	<g style="enable-background:new    ;">
		<path style="fill:#444444;" d="M354.837,125.445v0.809h-1.579v1.428h1.402v3.474h-5.256v-3.474h1.39v-1.428h-1.705v-0.809
			C349.089,125.445,354.837,125.445,354.837,125.445z M354.56,135.274c-1.63,0.328-3.387,0.606-5.269,0.821l-0.202-0.847
			c0.834-0.076,1.654-0.177,2.463-0.278v-1.579h-2.097v-0.783h2.097v-1.074h0.821v1.074h2.148v0.783h-2.148v1.453
			c0.746-0.113,1.479-0.24,2.187-0.379C354.56,134.465,354.56,135.274,354.56,135.274z M350.971,128.439h-0.809v1.958h0.809V128.439
			z M352.462,126.254h-0.872v1.428h0.872V126.254z M352.424,128.439h-0.796v1.958h0.796V128.439z M353.902,128.439h-0.821v1.958
			h0.821V128.439z M360.144,125.457v0.834h-3.323c-0.05,0.619-0.088,1.213-0.139,1.782h2.477v7.15c0,0.177,0.075,0.266,0.24,0.266
			h0.228c0.101,0,0.164-0.114,0.214-0.316c0.038-0.202,0.076-0.935,0.102-2.186l0.745,0.24c-0.075,1.339-0.177,2.186-0.277,2.54
			c-0.102,0.328-0.316,0.505-0.632,0.505h-0.544c-0.581,0-0.871-0.304-0.871-0.885v-6.506h-1.744
			c-0.227,2.652-0.467,4.788-0.694,6.418c0.53-0.177,1.162-0.43,1.907-0.783l0.178,0.771c-0.733,0.354-1.706,0.694-2.932,1.023
			l-0.266-0.809c0.152-0.025,0.253-0.114,0.316-0.266c0.29-2.147,0.581-5.129,0.871-8.945h-0.833v-0.834L360.144,125.457
			L360.144,125.457z M358.235,132.747l-0.581,0.404c-0.277-0.707-0.669-1.478-1.162-2.324l0.581-0.366
			C357.579,131.332,357.958,132.091,358.235,132.747z"/>
		<path style="fill:#444444;" d="M362.312,129.463v-4.018h5.37v4.018h-2.477c-0.025,0.556-0.063,1.061-0.114,1.541h2.717
			c0,2.198-0.063,3.551-0.189,4.081c-0.126,0.834-0.732,1.264-1.832,1.264c-0.177,0-0.455-0.013-0.859-0.038l-0.215-0.809
			c0.367,0.025,0.683,0.051,0.948,0.051c0.632,0,1.011-0.278,1.111-0.821c0.076-0.316,0.114-1.276,0.139-2.881h-1.933
			c-0.139,0.771-0.303,1.402-0.505,1.883c-0.468,1.073-1.238,1.996-2.312,2.767l-0.581-0.721c0.973-0.669,1.668-1.478,2.072-2.413
			c0.177-0.404,0.315-0.909,0.429-1.516h-2.248v-0.847h2.362c0.051-0.48,0.101-0.985,0.126-1.541
			C364.321,129.463,362.312,129.463,362.312,129.463z M366.811,126.265h-3.626v2.363h3.626V126.265z M369.994,126.052v7.871h-0.884
			v-7.871H369.994z M369.666,136.411l-0.202-0.871c0.594,0.037,1.149,0.062,1.681,0.062c0.392,0,0.594-0.228,0.594-0.682v-9.943
			h0.909v10.171c0,0.833-0.404,1.263-1.188,1.263C371.46,136.411,369.666,136.411,369.666,136.411z"/>
		<path style="fill:#444444;" d="M379.074,125.647c-0.581,1.061-1.175,1.945-1.781,2.628c-0.632,0.72-1.479,1.439-2.526,2.173
			l-0.493-0.796c0.859-0.506,1.643-1.15,2.337-1.959c0.619-0.707,1.188-1.541,1.693-2.501L379.074,125.647z M376.093,130.827v-0.872
			h7.669c-0.038,1.579-0.126,2.855-0.253,3.841c-0.126,0.96-0.328,1.643-0.632,2.021c-0.29,0.366-0.758,0.568-1.415,0.606h-2.35
			l-0.24-0.871c0.759,0.024,1.466,0.037,2.148,0.037c0.707,0,1.162-0.303,1.39-0.884c0.215-0.606,0.354-1.896,0.43-3.879h-3.374
			c-0.303,1.402-0.72,2.502-1.25,3.311c-0.619,0.884-1.555,1.68-2.806,2.388l-0.556-0.721c1.125-0.632,1.971-1.313,2.54-2.047
			c0.53-0.732,0.909-1.718,1.162-2.931L376.093,130.827C376.093,130.826,376.093,130.827,376.093,130.827z M385.783,129.601
			l-0.606,0.72c-1.92-1.25-3.272-2.867-4.03-4.852l0.783-0.429C382.65,126.973,383.938,128.49,385.783,129.601z"/>
		<path style="fill:#444444;" d="M391.97,132.204c0.127-0.379,0.215-0.783,0.266-1.213h0.936c-0.063,0.43-0.152,0.834-0.253,1.213
			h5.18v0.847h-4.725c1.162,1.276,2.779,2.16,4.876,2.666l-0.454,0.809c-2.351-0.632-4.106-1.731-5.269-3.298
			c-0.266,0.53-0.581,0.985-0.961,1.377c-0.82,0.809-2.198,1.44-4.131,1.908l-0.354-0.847c1.73-0.379,2.981-0.922,3.752-1.63
			c0.304-0.29,0.568-0.619,0.771-0.985h-4.371v-0.847H391.97z M392.197,127.454v-2.527h0.936v2.527h4.864v0.846h-4.864v0.253
			c1.718,0.493,3.284,1.074,4.699,1.756l-0.492,0.759c-1.377-0.783-2.779-1.415-4.207-1.896v1.377h-0.936V128.3h-0.062
			c-0.759,1.125-2.198,2.098-4.321,2.919l-0.493-0.796c1.946-0.632,3.272-1.339,3.98-2.123h-3.968v-0.846
			C387.333,127.454,392.197,127.454,392.197,127.454z M390.618,126.873l-0.821,0.214c-0.277-0.556-0.632-1.099-1.062-1.604
			l0.834-0.265C389.961,125.697,390.315,126.241,390.618,126.873z M396.531,125.344c-0.253,0.657-0.568,1.238-0.973,1.743
			l-0.783-0.29c0.341-0.442,0.644-0.998,0.909-1.681L396.531,125.344z"/>
	</g>
</g>
<rect x="487.348" y="119.001" style="opacity:0.6;fill:#BBBBBB;enable-background:new    ;" width="87.511" height="45.109"/>
<rect x="485.543" y="117.197" style="fill:#FFFFFF;stroke:#E5E5E5;" width="87.511" height="45.109"/>
<g transform="translate(20 9)">
	<g style="enable-background:new    ;">
		<path style="fill:#444444;" d="M488.44,128.363v1.958h1.276v0.834h-1.276v1.77c0.48-0.102,0.936-0.202,1.364-0.304v0.847
			c-0.441,0.101-0.896,0.215-1.364,0.315v2.755h-0.872v-2.591c-0.732,0.127-1.516,0.24-2.324,0.342l-0.113-0.885
			c0.871-0.101,1.68-0.202,2.438-0.328v-1.921h-2.097l-0.189-0.796c0.354-0.771,0.694-1.756,1.011-2.956h-1.125v-0.872h1.34
			c0.113-0.518,0.228-1.049,0.328-1.592l0.859,0.139c-0.102,0.506-0.202,0.986-0.304,1.453h2.287v0.872h-2.502
			c-0.29,1.111-0.606,2.085-0.96,2.918h1.352v-1.958C487.569,128.363,488.44,128.363,488.44,128.363z M492.787,126.544v-1.554h0.858
			v1.554h1.681c-0.278-0.379-0.619-0.783-1.023-1.213l0.606-0.379c0.455,0.48,0.821,0.909,1.074,1.264l-0.468,0.328h1.149v0.859
			h-3.02v1.162h2.591v6.86c0,0.683-0.316,1.036-0.948,1.036h-0.871l-0.228-0.859l0.809,0.038c0.252,0,0.392-0.139,0.392-0.392
			v-1.503h-1.744v2.69h-0.858v-2.69h-1.655v2.767h-0.847v-7.947h2.502v-1.162h-2.704v-0.859
			C490.083,126.544,492.787,126.544,492.787,126.544z M491.132,129.374v1.428h1.655v-1.428H491.132z M491.132,132.962h1.655v-1.377
			h-1.655V132.962z M495.39,129.374h-1.744v1.428h1.744V129.374z M495.39,131.585h-1.744v1.377h1.744V131.585z"/>
		<path style="fill:#444444;" d="M502.928,133.404c0.278-0.088,0.557-0.177,0.821-0.266v0.872c-1.63,0.581-3.537,1.125-5.71,1.604
			l-0.253-0.871c0.303-0.063,0.594-0.127,0.872-0.189v-8.883h4.27L502.928,133.404L502.928,133.404z M502.019,128.414v-1.908h-2.438
			v1.908H502.019z M502.019,131.193v-1.958h-2.438v1.958H502.019z M502.019,133.682v-1.668h-2.438v2.325
			C500.439,134.125,501.248,133.91,502.019,133.682z M506.074,125.003v2.337h2.805c0,4.056-0.063,6.558-0.189,7.518
			c-0.139,1.023-0.809,1.541-2.009,1.541c-0.189,0-0.506-0.013-0.947-0.037l-0.215-0.809c0.404,0.024,0.745,0.05,1.036,0.05
			c0.732,0,1.149-0.366,1.263-1.086c0.076-0.683,0.127-2.792,0.152-6.317h-1.896v0.113c-0.038,3.766-0.923,6.52-2.666,8.275
			l-0.72-0.644c1.604-1.58,2.426-4.119,2.451-7.632v-0.113h-1.529v-0.859h1.529v-2.337
			C505.139,125.003,506.074,125.003,506.074,125.003z"/>
		<path style="fill:#444444;" d="M513.373,130.916c-0.606,1.869-1.289,3.626-2.047,5.268l-0.859-0.379
			c0.809-1.692,1.517-3.437,2.11-5.205L513.373,130.916z M513.233,128.262l-0.745,0.518c-0.479-0.885-1.124-1.857-1.945-2.943
			l0.745-0.468C512.135,126.469,512.779,127.429,513.233,128.262z M516.91,126.835v-1.883h0.897v1.883h2.881v3.714h1.124v0.859
			h-3.752c0.809,1.819,2.122,3.272,3.941,4.371l-0.606,0.695c-1.845-1.251-3.171-2.83-3.992-4.738
			c-0.619,2.187-1.921,3.791-3.892,4.814l-0.568-0.746c1.896-0.909,3.108-2.375,3.639-4.396h-2.729v-0.859h2.919
			c0.089-0.581,0.139-1.188,0.139-1.819v-1.023h-2.539v-0.871L516.91,126.835C516.91,126.836,516.91,126.835,516.91,126.835z
			 M517.808,128.527c0,0.721-0.051,1.39-0.151,2.021h2.147v-2.843h-1.996V128.527z"/>
		<path style="fill:#444444;" d="M523.894,128.11l-0.783-0.492c0.809-0.859,1.39-1.807,1.756-2.843l0.872,0.189
			c-0.127,0.354-0.266,0.695-0.417,1.011h3.26v0.809h-2.136c0.316,0.455,0.581,0.885,0.783,1.276l-0.821,0.303
			c-0.252-0.556-0.556-1.074-0.909-1.579h-0.619C524.575,127.264,524.247,127.706,523.894,128.11z M528.328,128.704v-0.871h0.935
			v0.871h5.079v0.834h-5.079v0.985h4.145v2.376c0,0.644-0.342,0.973-1.011,0.973h-0.859l-0.228-0.809l0.821,0.038
			c0.24,0,0.366-0.14,0.366-0.392v-1.39h-3.234v1.111c1.377,1.289,3.171,2.287,5.37,3.02l-0.48,0.821
			c-1.896-0.72-3.525-1.706-4.89-2.956v3.247h-0.935v-3.197c-1.327,1.276-2.843,2.262-4.536,2.97l-0.53-0.796
			c1.983-0.733,3.677-1.77,5.066-3.121v-1.099h-3.032v2.526h-0.897v-3.323h3.93v-0.985h-5.079v-0.834L528.328,128.704
			L528.328,128.704z M529.478,127.933l-0.771-0.505c0.568-0.796,0.985-1.681,1.238-2.641l0.884,0.189
			c-0.101,0.341-0.202,0.67-0.315,0.998h3.79v0.809h-2.35c0.303,0.455,0.556,0.885,0.745,1.276l-0.796,0.303
			c-0.253-0.556-0.556-1.074-0.885-1.579h-0.858C529.958,127.188,529.73,127.58,529.478,127.933z"/>
	</g>
</g>
<g id="RectEndPoint5" transform="translate(758,169)">
	<rect x="-132.62" y="-50.901" style="opacity:0.6;fill:#BBBBBB;enable-background:new    ;" width="87.511" height="45.109"/>
	<rect x="-134.424" y="-52.706" style="fill:#FFFFFF;stroke:#E5E5E5;" width="87.511" height="45.109"/>
	<g transform="translate(20 9)">
		<g style="enable-background:new    ;">
			<path style="fill:#444444;" d="M-134.914-41.892l-0.797-0.506c0.759-0.783,1.314-1.667,1.668-2.628l0.872,0.189
				c-0.102,0.278-0.215,0.531-0.316,0.784h3.387v0.796h-2.123c0.278,0.379,0.519,0.745,0.695,1.086l-0.834,0.316
				c-0.228-0.48-0.506-0.948-0.821-1.402h-0.72C-134.207-42.764-134.535-42.309-134.914-41.892z M-124.706-39.214h-0.885v-1.504
				h-8.944v1.504h-0.885v-2.287h5.003c-0.126-0.304-0.252-0.568-0.392-0.821l0.885-0.151L-130-42.524
				c0.606-0.758,1.036-1.579,1.314-2.489l0.871,0.189c-0.088,0.266-0.177,0.519-0.277,0.771h3.651v0.796h-2.249
				c0.266,0.354,0.479,0.682,0.632,0.985l-0.809,0.303c-0.228-0.455-0.493-0.884-0.796-1.288h-0.796
				c-0.228,0.429-0.493,0.833-0.771,1.213l-0.682-0.417c0.139,0.29,0.277,0.606,0.404,0.96h4.801L-124.706-39.214
				C-124.707-39.214-124.706-39.214-124.706-39.214z M-126.449-37.496h-6.305v0.872h6.886v3.247h-0.897v-0.531h-5.988v0.519h-0.91
				v-6.583h7.215L-126.449-37.496L-126.449-37.496z M-127.334-38.228v-1.011h-5.42v1.011H-127.334z M-126.766-34.717v-1.175h-5.988
				v1.175H-126.766z"/>
			<path style="fill:#444444;" d="M-121.576-40.288v-2.981h-1.529v-0.859h3.979v0.859h-1.516v2.981h1.377v0.885h-1.377v2.83
				c0.505-0.178,1.011-0.38,1.516-0.606v0.871c-1.213,0.531-2.526,0.961-3.916,1.314l-0.228-0.872
				c0.568-0.113,1.137-0.253,1.693-0.404v-3.133h-1.353v-0.885C-122.93-40.288-121.576-40.288-121.576-40.288z M-112.303-44.469
				v5.85h-2.578v1.541h2.78v0.847h-2.78v1.604h3.185v0.872h-7.277v-0.872h3.184v-1.604h-2.805v-0.847h2.805v-1.541h-2.59v-5.85
				H-112.303z M-115.79-41.93v-1.73h-1.719v1.73H-115.79z M-115.79-41.147h-1.719v1.719h1.719V-41.147z M-114.881-41.93h1.706v-1.73
				h-1.706V-41.93z M-113.175-41.147h-1.706v1.719h1.706V-41.147z"/>
			<path style="fill:#444444;" d="M-109.704-41.792l-0.783-0.492c0.809-0.859,1.39-1.807,1.756-2.843l0.872,0.189
				c-0.127,0.354-0.266,0.695-0.417,1.011h3.26v0.809h-2.136c0.316,0.455,0.581,0.885,0.783,1.276l-0.821,0.303
				c-0.252-0.556-0.556-1.074-0.909-1.579h-0.619C-109.022-42.637-109.351-42.196-109.704-41.792z M-105.27-41.198v-0.871h0.935
				v0.871h5.079v0.834h-5.079v0.985h4.145v2.376c0,0.644-0.342,0.973-1.011,0.973h-0.859l-0.228-0.809l0.821,0.038
				c0.24,0,0.366-0.14,0.366-0.392v-1.39h-3.234v1.111c1.377,1.289,3.172,2.287,5.37,3.02l-0.48,0.821
				c-1.896-0.72-3.525-1.706-4.89-2.956v3.247h-0.935v-3.197c-1.327,1.276-2.843,2.262-4.536,2.97l-0.53-0.796
				c1.983-0.733,3.677-1.77,5.066-3.121v-1.099h-3.032v2.526h-0.897v-3.323h3.93v-0.985h-5.079v-0.834L-105.27-41.198
				L-105.27-41.198z M-104.12-41.968l-0.771-0.505c0.568-0.796,0.985-1.681,1.238-2.641l0.884,0.189
				c-0.101,0.341-0.202,0.67-0.315,0.998h3.79v0.809h-2.35c0.303,0.455,0.556,0.885,0.745,1.276l-0.796,0.303
				c-0.253-0.556-0.556-1.074-0.884-1.579h-0.859C-103.64-42.714-103.867-42.322-104.12-41.968z"/>
			<path style="fill:#444444;" d="M-96.683-34.451h-0.821v-9.614h4.195v5.218c1.162-0.455,2.135-0.998,2.931-1.617
				c-0.53-0.506-0.985-1.049-1.339-1.617c-0.304,0.417-0.632,0.796-0.985,1.137l-0.594-0.694c0.884-0.847,1.604-1.946,2.173-3.311
				l0.896,0.189c-0.151,0.341-0.29,0.657-0.429,0.96h3.424v0.695c-0.43,1.011-1.062,1.907-1.87,2.691
				c0.783,0.568,1.705,1.061,2.792,1.478l-0.392,0.809c-1.175-0.518-2.173-1.099-3.007-1.756c-0.885,0.694-1.934,1.289-3.146,1.794
				l-0.454-0.606v4.245h-0.783v-0.581h-2.591V-34.451z M-96.683-43.232v3.247h0.923v-3.247H-96.683z M-96.683-35.841h0.923v-3.349
				h-0.923V-35.841z M-94.092-43.232h-0.936v3.247h0.936V-43.232z M-94.092-39.189h-0.936v3.349h0.936V-39.189z M-87.32-33.44
				h-0.885v-0.556h-3.158v0.556h-0.885v-4.688h4.928V-33.44z M-88.205-34.855v-2.426h-3.158v2.426H-88.205z M-88.268-42.941h-2.868
				c-0.051,0.063-0.089,0.126-0.114,0.189c0.38,0.657,0.859,1.251,1.466,1.781C-89.152-41.577-88.646-42.233-88.268-42.941z"/>
		</g>
	</g>
</g>
<rect x="234.288" y="182.531" style="opacity:0.6;fill:#BBBBBB;enable-background:new    ;" width="45.109" height="144.968"/>
<rect x="232.484" y="180.727" style="fill:#FFFFFF;stroke:#E5E5E5;" width="45.109" height="144.968"/>
<g style="enable-background:new    ;">
	<path d="M259.552,205.272l-9.021,3.613v-0.847l2.691-1.049v-4.346l-2.691-1.049v-0.847l9.021,3.613V205.272z M253.879,206.737
		l4.839-1.895v-0.038l-4.839-1.908L253.879,206.737L253.879,206.737z"/>
	<path d="M259.552,210.525h-9.021v-0.771h9.021V210.525z"/>
</g>
<path d="M249.999,216.499l-0.429-0.506c0.631-0.581,1.149-1.402,1.528-2.464l0.632,0.14c-0.126,0.328-0.252,0.644-0.392,0.947h3.752
	v0.606h-1.971c-0.025,0.518-0.076,0.998-0.151,1.428h2.464v0.632h-2.603c-0.05,0.164-0.088,0.315-0.139,0.467
	c0.985,0.506,1.807,1.023,2.476,1.529l-0.493,0.492c-0.556-0.479-1.289-0.985-2.198-1.516c-0.493,0.922-1.39,1.693-2.691,2.3
	l-0.455-0.557c1.314-0.581,2.198-1.326,2.628-2.236c0.063-0.164,0.126-0.328,0.177-0.479h-2.666v-0.632h2.83
	c0.088-0.455,0.139-0.923,0.151-1.428h-1.428C250.719,215.728,250.378,216.145,249.999,216.499z M259.146,225.166h-0.695v-0.632
	h-6.481v0.632h-0.682v-5.117h7.858L259.146,225.166L259.146,225.166z M258.452,222.02v-1.339h-6.481v1.339H258.452z
	 M258.452,223.915v-1.289h-6.481v1.289H258.452z M260.043,214.491v4.51h-3.98v-4.51H260.043z M259.361,215.109h-2.628v3.272h2.628
	V215.109z"/>
<path d="M255.558,230.863l-0.556,0.392c-0.152-0.278-0.303-0.568-0.48-0.859c-1.352,0.215-2.995,0.379-4.915,0.48l-0.189-0.594
	c0.126-0.038,0.228-0.102,0.316-0.177c0.796-0.771,1.478-1.719,2.06-2.843l0.657,0.189c-0.632,1.213-1.327,2.147-2.059,2.792
	c1.2-0.051,2.476-0.177,3.815-0.354c-0.303-0.455-0.632-0.936-0.985-1.415l0.53-0.341
	C254.535,229.169,255.141,230.079,255.558,230.863z M250.871,238.785h-0.67v-7.012h4.485v5.976c0,0.632-0.329,0.947-0.96,0.947
	h-1.036l-0.165-0.645l0.986,0.038c0.328,0,0.505-0.164,0.505-0.479v-1.264h-3.146L250.871,238.785L250.871,238.785z
	 M254.017,232.391h-3.146v1.391h3.146V232.391z M250.871,235.752h3.146v-1.364h-3.146V235.752z M257.1,232.695
	c-0.682,0-1.023-0.354-1.023-1.062v-4.371h0.67v1.769c1.465-0.228,2.64-0.468,3.525-0.72l0.228,0.619
	c-1.087,0.277-2.337,0.518-3.752,0.732v1.832c0,0.379,0.177,0.568,0.556,0.568h1.769c0.278,0,0.467-0.063,0.594-0.189
	c0.151-0.189,0.24-0.708,0.291-1.554l0.644,0.215c-0.076,1.011-0.227,1.63-0.455,1.869c-0.202,0.189-0.518,0.291-0.948,0.291H257.1
	V232.695z M256.746,237.521c0,0.291,0.164,0.442,0.518,0.442h1.857c0.303,0,0.505-0.076,0.632-0.202
	c0.151-0.177,0.252-0.683,0.303-1.517l0.632,0.202c-0.076,0.998-0.24,1.617-0.468,1.857c-0.202,0.177-0.518,0.266-0.973,0.266
	h-2.186c-0.657,0-0.986-0.304-0.986-0.91v-4.435h0.67v1.668c1.327-0.139,2.501-0.366,3.525-0.683l0.228,0.632
	c-1.163,0.329-2.414,0.557-3.752,0.67V237.521L256.746,237.521z"/>
<path d="M258.452,245.44v0.619c-0.859,0.556-1.832,1.1-2.918,1.617v0.783h4.902v0.657h-4.902v2.274c0,0.632-0.329,0.96-0.96,0.96
	h-1.592l-0.177-0.645c0.467,0.013,0.973,0.025,1.528,0.025c0.354,0,0.531-0.189,0.531-0.568v-2.047h-5.218v-0.657h5.218v-1.124
	c1.188-0.53,2.047-0.96,2.59-1.276h-5.799v-0.619L258.452,245.44L258.452,245.44z M260.284,246.148h-0.683v-1.996h-9.122v1.996
	h-0.683v-2.653h7.214c0.594-0.834,1.099-1.743,1.516-2.704l0.682,0.253c-0.467,0.973-0.947,1.794-1.453,2.451h2.527v2.653
	L260.284,246.148L260.284,246.148z M252.703,243.001l-0.606,0.291c-0.43-0.758-0.872-1.428-1.352-2.021l0.619-0.291
	C251.844,241.586,252.286,242.269,252.703,243.001z M255.647,242.85l-0.606,0.316c-0.379-0.796-0.784-1.504-1.213-2.11l0.631-0.303
	C254.889,241.397,255.28,242.092,255.647,242.85z"/>
<path d="M257.011,261.156c-1.781,1.111-4.005,2.11-6.671,2.981l-0.278-0.645c2.641-0.809,4.902-1.794,6.785-2.969L257.011,261.156z
	 M255.306,265.3c0.682,0,1.364,0.012,2.059,0.012c0.417,0,0.733-0.189,0.935-0.543c0.202-0.379,0.329-1.264,0.379-2.679
	c0.012-0.884,0.025-2.905,0.05-6.064h-8.338v-0.669h9.008c-0.05,4.03-0.088,6.431-0.113,7.188c-0.051,1.314-0.19,2.198-0.43,2.679
	c-0.253,0.468-0.695,0.707-1.352,0.707c-0.543,0-1.213,0.013-2.021,0.013L255.306,265.3z M254.409,259.867l-0.468,0.48
	c-0.682-0.783-1.592-1.604-2.754-2.477l0.493-0.467C252.766,258.237,253.676,259.058,254.409,259.867z"/>
<g style="enable-background:new    ;">
	<path d="M256.987,273.82h-2.754v2.754h-0.859v-2.754h-2.767v-0.859h2.767v-2.768h0.859v2.768h2.754V273.82z"/>
</g>
<path d="M251.528,282.714v-1.806h0.683v1.807h1.781v0.657h-1.781v1.883c0,0.139-0.013,0.277-0.013,0.417h1.971v0.656h-1.996
	c-0.025,0.367-0.063,0.721-0.114,1.062c0.733,0.733,1.478,1.555,2.236,2.477l-0.392,0.568c-0.758-1.036-1.415-1.832-1.958-2.4
	c-0.354,1.845-1.074,3.285-2.148,4.309l-0.518-0.455c1.289-1.213,2.034-3.058,2.211-5.56h-2.009v-0.656h2.034
	c0-0.14,0.013-0.278,0.013-0.417v-1.883h-1.882v-0.657h1.882L251.528,282.714L251.528,282.714z M257.643,283.195v2.173
	c-0.025,1.87-0.367,3.373-0.998,4.498c-0.632,1.049-1.655,1.87-3.083,2.464l-0.366-0.568c1.39-0.582,2.388-1.365,2.981-2.376
	c0.531-1.023,0.796-2.362,0.821-4.018v-2.173L257.643,283.195L257.643,283.195z M259.778,288.185h-0.67v-6.19h-3.575v6.19h-0.67
	v-6.835h4.915V288.185z M258.502,292.14c-0.606,0-0.897-0.329-0.897-0.974v-2.867h0.645v2.741c0,0.329,0.151,0.493,0.455,0.493
	h0.695c0.253,0,0.442-0.076,0.543-0.202c0.152-0.177,0.24-0.683,0.291-1.517l0.594,0.202c-0.076,0.998-0.215,1.617-0.43,1.857
	c-0.189,0.177-0.48,0.266-0.884,0.266h-1.012L258.502,292.14L258.502,292.14z"/>
<path d="M252.981,296.395v3.992c-0.025,1.466-0.291,2.641-0.821,3.525c-0.531,0.809-1.39,1.44-2.565,1.921l-0.392-0.619
	c1.137-0.43,1.958-1.023,2.438-1.782c0.43-0.783,0.657-1.807,0.682-3.045v-3.992L252.981,296.395L252.981,296.395z M255.255,302.472
	h-0.682v-6.986h-3.841v7.101h-0.669v-7.758h5.192L255.255,302.472L255.255,302.472z M255.836,305.202l-0.505,0.505
	c-0.569-0.758-1.327-1.554-2.287-2.388l0.48-0.468C254.446,303.634,255.217,304.418,255.836,305.202z M257.542,295.346v7.922h-0.67
	v-7.922H257.542z M257.353,305.631l-0.152-0.657c0.556,0.025,1.074,0.051,1.579,0.051c0.468,0,0.708-0.24,0.708-0.708v-10.031h0.682
	v10.208c0,0.758-0.392,1.138-1.15,1.138L257.353,305.631L257.353,305.631z"/>
<rect x="371.418" y="181.023" style="opacity:0.6;fill:#BBBBBB;enable-background:new    ;" width="45.109" height="144.038"/>
<rect x="369.614" y="179.218" style="fill:#FFFFFF;stroke:#E5E5E5;" width="45.109" height="144.038"/>
<path d="M390.01,203.223c-0.72,1.415-1.845,2.653-3.386,3.702l-0.215-0.683c1.377-0.973,2.375-2.072,2.981-3.311L390.01,203.223z
	 M390.604,206.103c-0.392,0.758-0.871,1.465-1.453,2.122v6.115h-0.669v-5.42c-0.556,0.505-1.15,0.985-1.794,1.428l-0.215-0.683
	c1.63-1.137,2.805-2.413,3.524-3.854L390.604,206.103z M397.806,206.949v0.67h-2.098v5.647c0,0.67-0.392,1.011-1.149,1.011h-1.857
	l-0.151-0.657c0.619,0.025,1.213,0.051,1.781,0.051c0.455,0,0.682-0.189,0.682-0.568v-5.483h-4.118v-0.67h6.91L397.806,206.949
	L397.806,206.949z M397.225,203.703v0.669h-5.964v-0.669H397.225z"/>
<path d="M391.829,217.436v1.302c-0.013,0.656-0.038,1.288-0.088,1.882h5.243c0,3.563-0.164,5.824-0.48,6.785
	c-0.328,0.96-0.909,1.452-1.743,1.452c-0.606,0-1.1-0.012-1.504-0.037l-0.189-0.67c0.606,0.051,1.149,0.076,1.655,0.076
	c0.809-0.063,1.264-0.809,1.39-2.236c0.113-1.44,0.177-2.995,0.177-4.688h-4.611c-0.202,1.592-0.556,2.931-1.062,4.018
	c-0.745,1.528-1.983,2.729-3.701,3.601l-0.38-0.606c1.693-0.859,2.894-2.047,3.602-3.562c0.404-0.973,0.694-2.123,0.858-3.449h-4.03
	v-0.683h4.106c0.051-0.606,0.076-1.226,0.089-1.882v-1.302L391.829,217.436L391.829,217.436z M389.808,219.824l-0.556,0.366
	c-0.455-0.656-1.011-1.326-1.693-2.034l0.531-0.379C388.822,218.548,389.403,219.23,389.808,219.824z M394.621,225.801l-0.594,0.404
	c-0.518-0.834-1.226-1.744-2.135-2.742l0.556-0.354C393.384,224.133,394.116,225.029,394.621,225.801z"/>
<path d="M391.122,232.71c-0.581,1.061-1.175,1.934-1.781,2.615c-0.67,0.758-1.517,1.467-2.527,2.148l-0.379-0.607
	c0.909-0.529,1.705-1.188,2.388-1.982c0.632-0.721,1.213-1.566,1.719-2.527L391.122,232.71z M388.292,237.839v-0.668h7.454
	c-0.038,1.541-0.114,2.791-0.228,3.752c-0.126,0.934-0.328,1.604-0.606,1.982c-0.278,0.367-0.732,0.568-1.364,0.594h-2.236
	l-0.177-0.668c0.732,0.012,1.415,0.025,2.071,0.025c0.708,0,1.176-0.316,1.402-0.924c0.228-0.645,0.38-2.008,0.455-4.094h-3.411
	c-0.303,1.428-0.72,2.553-1.276,3.387c-0.644,0.885-1.604,1.693-2.893,2.4l-0.43-0.557c1.188-0.643,2.072-1.352,2.679-2.121
	c0.556-0.783,0.973-1.82,1.25-3.109h-2.69V237.839z M397.855,236.88l-0.454,0.543c-1.972-1.25-3.349-2.893-4.119-4.914l0.594-0.33
	C394.634,234.175,395.961,235.744,397.855,236.88z"/>
<path d="M390.982,257.324c-0.846,0.809-2.211,1.428-4.08,1.871l-0.278-0.633c1.756-0.404,3.032-0.959,3.815-1.68
	c0.354-0.354,0.632-0.746,0.859-1.201h-4.523v-0.643h4.801c0.127-0.404,0.228-0.848,0.291-1.303h0.683
	c-0.063,0.48-0.152,0.91-0.266,1.303h5.281v0.643h-5.016c1.213,1.416,2.943,2.389,5.205,2.932l-0.354,0.594
	c-2.438-0.645-4.245-1.742-5.433-3.311C391.703,256.453,391.374,256.919,390.982,257.324z M392.512,253.331h-0.683v-2.4h-0.139
	c-0.783,1.162-2.262,2.16-4.435,2.982l-0.366-0.594c2.071-0.695,3.474-1.492,4.182-2.389h-4.194v-0.645h4.952v-2.602h0.683v2.602
	h4.952v0.645h-4.952v0.291c1.73,0.531,3.31,1.176,4.737,1.934l-0.379,0.58c-1.415-0.834-2.868-1.516-4.358-2.021V253.331z
	 M390.01,249.63l-0.594,0.152c-0.266-0.594-0.594-1.164-0.998-1.707l0.594-0.189C389.378,248.392,389.707,248.974,390.01,249.63z
	 M395.897,248.013c-0.278,0.682-0.632,1.275-1.062,1.793l-0.581-0.201c0.392-0.455,0.733-1.049,1.036-1.756L395.897,248.013z"/>
<path d="M387.458,262.64v-0.682h7.365v0.443c-0.227,1.162-0.467,2.16-0.694,2.98h2.564v0.418c-0.354,1.742-1.188,3.221-2.477,4.422
	c1.011,0.783,2.187,1.465,3.538,2.059l-0.455,0.594c-1.402-0.631-2.603-1.363-3.613-2.186c-1.111,0.896-2.515,1.643-4.182,2.225
	l-0.392-0.633c1.617-0.557,2.956-1.238,4.03-2.059c-1.34-1.213-2.287-2.615-2.855-4.207c-0.366,3.006-1.466,5.268-3.311,6.797
	l-0.53-0.455c2.147-1.756,3.247-4.574,3.285-8.439v-1.277H387.458L387.458,262.64z M395.974,266.027h-2.704
	c0.253-0.771,0.519-1.895,0.809-3.387h-3.664v1.277c0,0.15-0.013,0.316-0.013,0.467c0.442,2.098,1.529,3.904,3.272,5.395
	C394.836,268.718,395.595,267.468,395.974,266.027z"/>
<path d="M389.05,274.995v2.465h1.554v0.668h-1.554v1.062c0.632,0.656,1.264,1.402,1.896,2.223l-0.392,0.582
	c-0.582-0.885-1.087-1.566-1.504-2.072v6.557h-0.67v-6.772c-0.43,1.352-0.998,2.564-1.718,3.625l-0.304-0.719
	c0.961-1.326,1.63-2.818,2.009-4.486h-1.617v-0.668h1.63v-2.465L389.05,274.995L389.05,274.995z M392.739,280.833
	c-0.417,1.768-1.011,3.297-1.794,4.586l-0.606-0.379c0.796-1.289,1.39-2.729,1.769-4.334L392.739,280.833z M392.448,286.355
	l-0.139-0.645c0.417,0.025,0.821,0.049,1.2,0.049c0.354,0,0.543-0.201,0.543-0.58v-5.635h-3.158v-0.67h7.024v0.67h-3.184v5.799
	c0,0.67-0.341,1.012-0.998,1.012L392.448,286.355L392.448,286.355z M397.262,275.779v0.67h-5.71v-0.67H397.262z M397.881,285.242
	l-0.632,0.291c-0.429-1.77-0.909-3.322-1.415-4.674l0.606-0.215C396.997,282.083,397.477,283.613,397.881,285.242z"/>
<path d="M392.385,292.771c1.593,1.176,3.412,2.111,5.483,2.793l-0.328,0.594c-2.098-0.721-3.892-1.654-5.369-2.818
	c-1.365,1.074-3.146,2.01-5.37,2.805l-0.328-0.605c2.198-0.746,4.018-1.668,5.483-2.768L392.385,292.771L392.385,292.771z
	 M387.129,293.15l-0.581-0.365c0.783-0.961,1.365-2.035,1.731-3.234l0.669,0.139c-0.126,0.354-0.252,0.707-0.392,1.049h3.487v0.631
	h-1.996c0.228,0.494,0.417,0.947,0.543,1.377l-0.619,0.229c-0.177-0.557-0.379-1.086-0.606-1.605h-1.099
	C387.938,292.027,387.559,292.62,387.129,293.15z M395.923,297.003c-0.354,1.125-0.796,2.123-1.326,3.008h2.88v0.645H386.89v-0.645
	h6.974c0.531-0.871,0.985-1.934,1.39-3.197L395.923,297.003z M389.984,299.404l-0.619,0.152c-0.265-0.82-0.606-1.604-1.011-2.363
	l0.619-0.201C389.353,297.687,389.682,298.495,389.984,299.404z M395.43,295.576v0.607h-6.506v-0.607H395.43z M392.701,299.316
	l-0.619,0.152c-0.228-0.873-0.493-1.719-0.821-2.539l0.632-0.203C392.195,297.484,392.474,298.343,392.701,299.316z M392.84,292.658
	l-0.568-0.379c0.581-0.795,1.023-1.705,1.314-2.729l0.656,0.139c-0.113,0.367-0.24,0.721-0.366,1.049h3.815v0.631h-2.173
	c0.303,0.531,0.543,1.023,0.72,1.479l-0.631,0.24c-0.228-0.594-0.506-1.162-0.809-1.719h-1.201
	C393.371,291.837,393.118,292.267,392.84,292.658z"/>
<rect x="508.549" y="181.023" style="opacity:0.6;fill:#BBBBBB;enable-background:new    ;" width="45.109" height="146.476"/>
<rect x="506.745" y="179.218" style="fill:#FFFFFF;stroke:#E5E5E5;" width="45.109" height="146.476"/>
<g style="enable-background:new    ;">
	<path d="M533.812,207.13c0,0.809-0.189,1.466-0.594,1.945c-0.404,0.48-0.96,0.721-1.668,0.721c-0.518,0-0.96-0.152-1.326-0.442
		c-0.354-0.291-0.594-0.67-0.732-1.125c-0.102,0.594-0.342,1.062-0.721,1.415c-0.392,0.342-0.885,0.519-1.491,0.519
		c-0.858,0-1.503-0.316-1.933-0.923c-0.366-0.53-0.556-1.25-0.556-2.147v-3.93h9.021L533.812,207.13L533.812,207.13z
		 M525.461,203.933v3.133c0,0.67,0.14,1.213,0.404,1.617c0.329,0.468,0.797,0.708,1.428,0.708c0.619,0,1.087-0.228,1.391-0.657
		c0.303-0.417,0.441-0.973,0.441-1.681v-3.12H525.461z M529.782,203.933v3.032c0,0.644,0.151,1.149,0.43,1.503
		c0.291,0.366,0.707,0.556,1.264,0.556c0.556,0,0.985-0.189,1.263-0.543c0.278-0.366,0.404-0.872,0.404-1.503v-3.045H529.782z"/>
	<path d="M530.465,216.666c-0.645,0.53-1.453,0.796-2.413,0.796c-0.961,0-1.757-0.266-2.4-0.796
		c-0.683-0.582-1.036-1.353-1.036-2.312s0.354-1.73,1.036-2.312c0.644-0.53,1.439-0.796,2.4-0.796c0.96,0,1.769,0.266,2.413,0.809
		c0.694,0.569,1.036,1.34,1.036,2.3S531.159,216.084,530.465,216.666z M529.984,212.598c-0.505-0.392-1.149-0.582-1.933-0.582
		c-0.771,0-1.415,0.19-1.921,0.582c-0.568,0.43-0.859,1.011-0.859,1.756s0.291,1.339,0.859,1.769
		c0.519,0.379,1.162,0.581,1.921,0.581c0.783,0,1.428-0.202,1.933-0.581c0.581-0.43,0.859-1.023,0.859-1.769
		S530.565,213.027,529.984,212.598z"/>
	<path d="M531.323,220.378v1.706h-0.656v-1.706h-4.422c-0.278,0-0.493,0.051-0.619,0.151c-0.114,0.102-0.177,0.291-0.177,0.569
		v0.821h-0.657v-0.923c0-0.505,0.139-0.872,0.392-1.086c0.228-0.202,0.581-0.291,1.062-0.291h4.422v-1.39h0.656v1.39h1.795
		l0.315,0.758h-2.111V220.378z"/>
</g>
<path d="M525.675,230.791v-2.071c-0.581,0.101-1.175,0.177-1.794,0.239l-0.139-0.656c1.604-0.152,3.02-0.417,4.232-0.821l0.24,0.645
	c-0.594,0.177-1.227,0.341-1.896,0.479v2.186h1.781v0.645h-1.781v0.771c0.619,0.619,1.251,1.327,1.882,2.123l-0.391,0.581
	c-0.582-0.885-1.074-1.579-1.491-2.085v5.9h-0.645v-6.039c-0.454,1.364-1.099,2.59-1.907,3.677l-0.304-0.746
	c1.011-1.225,1.731-2.615,2.136-4.182h-1.846v-0.645L525.675,230.791L525.675,230.791z M534.684,232.586v0.631h-2.844v1.87h2.465
	v0.619h-2.465v1.945h3.146v0.645h-7.024v-0.645h3.196v-1.945h-2.388v-0.619h2.388v-1.87h-2.691v-0.631H534.684z M534.039,227.759
	v3.5h-4.979v-3.5H534.039z M533.382,228.378h-3.651v2.262h3.651V228.378z"/>
<path d="M530.223,241.984h4.625v0.657h-9.412v3.475c-0.051,2.603-0.493,4.688-1.353,6.254l-0.519-0.468
	c0.759-1.39,1.15-3.31,1.188-5.786v-4.132h4.776c-0.177-0.379-0.366-0.72-0.568-1.022l0.694-0.127
	C529.857,241.175,530.047,241.555,530.223,241.984z M530.362,246.154c0.834-0.506,1.579-1.087,2.262-1.744h-5.749v-0.606h6.607
	v0.519c-0.783,0.834-1.643,1.566-2.59,2.173c0.253,0.164,0.48,0.328,0.695,0.493l-0.215,0.215h3.209v0.543
	c-0.531,0.985-1.111,1.819-1.756,2.515l-0.531-0.404c0.582-0.582,1.1-1.251,1.555-2.021h-3.209v3.588
	c0,0.656-0.342,0.998-1.012,0.998h-1.844l-0.152-0.645c0.607,0.025,1.201,0.051,1.77,0.051c0.366,0,0.556-0.189,0.556-0.568v-3.424
	h-3.79v-0.632h4.738c-0.695-0.519-1.58-1.062-2.666-1.617l0.416-0.404C529.289,245.509,529.857,245.825,530.362,246.154z"/>
<path d="M528.252,255.147c-0.58,1.061-1.174,1.933-1.781,2.615c-0.67,0.758-1.516,1.466-2.527,2.147l-0.379-0.606
	c0.91-0.53,1.706-1.188,2.389-1.983c0.631-0.72,1.213-1.566,1.719-2.526L528.252,255.147z M525.422,260.276v-0.669h7.455
	c-0.039,1.541-0.114,2.792-0.229,3.752c-0.125,0.935-0.328,1.604-0.605,1.983c-0.278,0.367-0.732,0.568-1.365,0.594h-2.236
	l-0.176-0.669c0.732,0.013,1.414,0.025,2.071,0.025c0.708,0,1.175-0.316,1.402-0.923c0.228-0.645,0.38-2.009,0.455-4.094h-3.411
	c-0.303,1.428-0.721,2.553-1.276,3.387c-0.644,0.884-1.604,1.692-2.894,2.4l-0.43-0.557c1.188-0.644,2.072-1.352,2.68-2.122
	c0.555-0.783,0.973-1.819,1.25-3.108h-2.691V260.276z M534.986,259.316l-0.455,0.543c-1.971-1.25-3.348-2.893-4.119-4.914
	l0.595-0.329C531.765,256.612,533.092,258.179,534.986,259.316z"/>
<path d="M526.357,279.63h-0.683v-6.81c-0.454,1.415-1.073,2.678-1.856,3.79l-0.291-0.732c1.011-1.327,1.719-2.83,2.123-4.523h-1.883
	v-0.67h1.907v-2.552h0.683v2.552h1.794v0.67h-1.794v0.732c0.631,0.657,1.264,1.415,1.895,2.249l-0.379,0.557
	c-0.581-0.859-1.086-1.555-1.516-2.085L526.357,279.63L526.357,279.63z M534.569,268.829c-1.452,0.543-3.083,0.858-4.89,0.935v2.489
	h5.219v0.669h-1.971v6.722h-0.695v-6.722h-2.553v0.253c-0.076,2.679-0.707,4.801-1.895,6.393l-0.493-0.518
	c1.062-1.415,1.643-3.373,1.731-5.875v-3.992c1.92-0.051,3.65-0.366,5.205-0.973L534.569,268.829z"/>
<path d="M533.205,293.235h-0.682v-1.023h-6.191v1.036h-0.682v-10.929h7.555V293.235z M532.523,286.855v-3.866h-6.191v3.866H532.523z
	 M532.523,291.542v-4.019h-6.191v4.019H532.523z"/>
<path d="M525.561,302.393c-0.303,1.44-0.707,2.691-1.225,3.753l-0.594-0.379c0.518-1.036,0.896-2.198,1.137-3.513L525.561,302.393z
	 M529.643,295.369v1.731h5.027v0.682h-5.027v2.173h4.207v0.645h-9.059v-0.645h4.169v-2.173h-5.041V297.1h5.041v-1.731
	L529.643,295.369L529.643,295.369z M527.887,306.651c-0.759,0-1.138-0.404-1.138-1.213v-3.575h0.683v3.437
	c0,0.455,0.215,0.683,0.656,0.683h2.805c0.342,0,0.582-0.089,0.708-0.253c0.177-0.24,0.304-0.91,0.366-2.021l0.645,0.215
	c-0.088,1.275-0.266,2.072-0.518,2.375c-0.229,0.228-0.582,0.354-1.062,0.354h-3.145V306.651z M530.615,304.112l-0.632,0.29
	c-0.366-0.973-0.771-1.832-1.2-2.59l0.645-0.215C529.883,302.38,530.287,303.227,530.615,304.112z M534.961,305.514l-0.631,0.29
	c-0.506-1.39-1.074-2.615-1.682-3.676l0.658-0.215C533.938,303.037,534.494,304.238,534.961,305.514z"/>
<rect x="646.582" y="181.023" style="opacity:0.6;fill:#BBBBBB;enable-background:new    ;" width="45.109" height="146.476"/>
<rect x="644.777" y="179.218" style="fill:#FFFFFF;stroke:#E5E5E5;" width="45.109" height="146.476"/>
<g style="enable-background:new    ;">
	<path d="M671.846,204.13c0,0.809-0.189,1.466-0.594,1.945c-0.404,0.48-0.961,0.721-1.668,0.721c-0.519,0-0.96-0.152-1.327-0.442
		c-0.354-0.291-0.594-0.67-0.732-1.125c-0.102,0.594-0.341,1.062-0.72,1.415c-0.393,0.342-0.885,0.519-1.491,0.519
		c-0.859,0-1.504-0.316-1.934-0.923c-0.366-0.53-0.556-1.25-0.556-2.147v-3.93h9.021v3.967L671.846,204.13L671.846,204.13z
		 M663.494,200.933v3.133c0,0.67,0.139,1.213,0.404,1.617c0.328,0.468,0.796,0.708,1.428,0.708c0.619,0,1.086-0.228,1.39-0.657
		c0.303-0.417,0.442-0.973,0.442-1.681v-3.12H663.494z M667.815,200.933v3.032c0,0.644,0.151,1.149,0.429,1.503
		c0.291,0.366,0.708,0.556,1.264,0.556s0.985-0.189,1.264-0.543c0.278-0.366,0.404-0.872,0.404-1.503v-3.045H667.815z"/>
	<path d="M668.497,213.666c-0.645,0.53-1.453,0.796-2.413,0.796s-1.756-0.266-2.4-0.796c-0.683-0.582-1.036-1.353-1.036-2.312
		s0.354-1.73,1.036-2.312c0.645-0.53,1.44-0.796,2.4-0.796s1.769,0.266,2.413,0.809c0.695,0.569,1.036,1.34,1.036,2.3
		S669.192,213.084,668.497,213.666z M668.018,209.598c-0.506-0.392-1.15-0.582-1.934-0.582c-0.771,0-1.415,0.19-1.92,0.582
		c-0.569,0.43-0.859,1.011-0.859,1.756s0.29,1.339,0.859,1.769c0.518,0.379,1.162,0.581,1.92,0.581c0.783,0,1.428-0.202,1.934-0.581
		c0.581-0.43,0.858-1.023,0.858-1.769S668.599,210.027,668.018,209.598z"/>
	<path d="M669.356,217.378v1.706h-0.657v-1.706h-4.422c-0.278,0-0.493,0.051-0.619,0.151c-0.113,0.102-0.177,0.291-0.177,0.569
		v0.821h-0.657v-0.923c0-0.505,0.14-0.872,0.392-1.086c0.228-0.202,0.581-0.291,1.062-0.291h4.422v-1.39h0.657v1.39h1.794
		l0.315,0.758h-2.11L669.356,217.378L669.356,217.378z"/>
</g>
<path d="M662.305,227.248l-0.58-0.366c0.783-0.809,1.364-1.706,1.73-2.704l0.67,0.14c-0.127,0.303-0.253,0.606-0.393,0.896h3.551
	v0.619h-2.287c0.328,0.442,0.582,0.847,0.771,1.226l-0.619,0.24c-0.253-0.506-0.557-0.985-0.885-1.466h-0.872
	C663.076,226.339,662.709,226.819,662.305,227.248z M672.627,229.94h-0.669v-1.579h-9.249v1.579h-0.669v-2.174h5.104
	c-0.152-0.341-0.304-0.644-0.455-0.922l0.67-0.126c0.164,0.303,0.315,0.656,0.455,1.048h4.812v2.174H672.627z M670.896,231.608
	h-6.431v1.022h7.012v3.134h-0.683v-0.568h-6.329v0.556h-0.683v-6.507h7.113L670.896,231.608L670.896,231.608z M670.227,231.038
	v-1.213h-5.761v1.213H670.227z M670.795,234.577V233.2h-6.329v1.377H670.795z M668.041,227.084l-0.581-0.379
	c0.619-0.746,1.074-1.579,1.364-2.515l0.645,0.14c-0.102,0.303-0.215,0.605-0.328,0.884h3.777v0.619h-2.388
	c0.304,0.404,0.543,0.771,0.72,1.124l-0.619,0.215c-0.24-0.454-0.518-0.909-0.846-1.339h-0.936
	C668.609,226.288,668.345,226.705,668.041,227.084z"/>
<path d="M663.316,242.635v-3.209h-1.668v-0.656h4.005v0.656h-1.655v3.209h1.504v0.67h-1.504v3.146
	c0.531-0.19,1.036-0.393,1.517-0.595v0.67c-1.163,0.493-2.426,0.897-3.778,1.226l-0.164-0.645c0.606-0.126,1.188-0.265,1.744-0.442
	v-3.36h-1.491v-0.67L663.316,242.635L663.316,242.635z M672.375,238.428v5.686h-2.666v1.693h2.918v0.645h-2.918v1.882h3.398v0.67
	h-7.555v-0.67h3.475v-1.882h-2.919v-0.645h2.919v-1.693h-2.666v-5.686H672.375z M669.027,240.993v-1.945h-2.01v1.945H669.027z
	 M669.027,241.587h-2.01v1.907h2.01V241.587z M669.709,240.993h1.996v-1.945h-1.996V240.993z M671.705,241.587h-1.996v1.907h1.996
	V241.587z"/>
<path d="M662.293,254.611l-0.594-0.38c0.834-0.858,1.453-1.832,1.844-2.918l0.657,0.139c-0.151,0.404-0.328,0.796-0.505,1.15h3.437
	v0.631h-2.325c0.367,0.506,0.657,0.974,0.872,1.415l-0.606,0.228c-0.277-0.556-0.606-1.111-0.985-1.643h-0.745
	C663.038,253.726,662.685,254.181,662.293,254.611z M666.992,255.343v-0.973h0.683v0.973h5.155v0.632h-5.155v1.175h4.157v2.337
	c0,0.582-0.304,0.885-0.897,0.885h-0.859l-0.177-0.619l0.834,0.038c0.277,0,0.417-0.151,0.417-0.455v-1.566h-3.475v1.149
	c1.415,1.377,3.222,2.451,5.445,3.209l-0.354,0.632c-1.983-0.758-3.677-1.794-5.092-3.133v3.449h-0.683v-3.424
	c-1.364,1.377-2.943,2.438-4.725,3.171l-0.417-0.606c2.021-0.771,3.739-1.87,5.142-3.311v-1.137h-3.271v2.615h-0.67v-3.234h3.941
	v-1.175h-5.154v-0.632L666.992,255.343L666.992,255.343z M667.877,254.383l-0.568-0.367c0.581-0.796,1.011-1.692,1.289-2.69
	l0.656,0.139c-0.126,0.404-0.252,0.783-0.404,1.138h3.98v0.631h-2.515c0.354,0.506,0.645,0.986,0.847,1.415l-0.606,0.228
	c-0.278-0.556-0.594-1.111-0.948-1.643h-1.035C668.369,253.637,668.13,254.029,667.877,254.383z"/>
<path d="M662.709,275.607h-0.631v-9.526h4.043v9.526h-0.606v-0.657h-2.806V275.607z M662.709,266.712v3.487h1.112v-3.487H662.709z
	 M662.709,274.343h1.112v-3.537h-1.112V274.343z M665.515,266.712h-1.112v3.487h1.112V266.712z M665.515,270.806h-1.112v3.537h1.112
	V270.806z M669.128,265.272c-0.151,0.379-0.304,0.733-0.468,1.062h3.525v0.543c-0.455,1.049-1.112,1.972-1.959,2.768
	c0.822,0.632,1.795,1.175,2.906,1.617l-0.291,0.594c-1.213-0.531-2.223-1.125-3.057-1.807c-0.897,0.732-1.971,1.364-3.209,1.882
	l-0.418-0.53c1.227-0.506,2.262-1.1,3.108-1.794c-0.606-0.556-1.099-1.162-1.478-1.807c-0.342,0.455-0.708,0.884-1.087,1.264
	l-0.442-0.531c0.936-0.909,1.668-2.047,2.198-3.411L669.128,265.272z M672.122,276.605h-0.669v-0.606h-3.463v0.606h-0.669v-4.586
	h4.801V276.605z M671.453,275.354v-2.69h-3.463v2.69H671.453z M671.402,266.991h-3.096l-0.164,0.277
	c0.404,0.721,0.922,1.365,1.566,1.946C670.416,268.544,670.984,267.799,671.402,266.991z"/>
<path d="M667.359,279.37v0.657h-1.719v1.667h1.504v8.554h-0.632v-0.745h-3.828v0.745h-0.619v-8.554h1.402v-1.667h-1.769v-0.657
	H667.359z M662.685,282.326v4.485h3.828v-1.289h-0.771c-0.493,0-0.733-0.277-0.733-0.82v-2.376h-0.935v0.923
	c-0.013,1.352-0.303,2.337-0.859,2.956l-0.392-0.341c0.493-0.543,0.745-1.415,0.759-2.615v-0.923L662.685,282.326L662.685,282.326z
	 M666.513,288.845v-1.402h-3.828v1.402H666.513z M665.034,281.694v-1.667h-0.973v1.667H665.034z M666.513,282.326h-0.998v2.262
	c0,0.253,0.113,0.392,0.341,0.392h0.657V282.326z M672.602,289.439c-0.201,0.379-0.594,0.568-1.162,0.568h-2.412
	c-0.607,0-0.91-0.392-0.91-1.149v-5.205h3.525v-3.613h-3.791v-0.657h4.447v4.927h-3.5v4.334c0,0.468,0.152,0.708,0.455,0.721h2.072
	c0.404,0,0.67-0.19,0.796-0.544c0.101-0.354,0.189-1.049,0.24-2.109l0.669,0.215C672.956,288.213,672.805,289.06,672.602,289.439z"
	/>
<path d="M666.941,297.007l0.076-0.834h-4.182v-2.262h9.021v2.262h-4.145c-0.025,0.278-0.063,0.556-0.102,0.834h5.143v0.543h-5.218
	c-0.051,0.291-0.114,0.569-0.165,0.834h3.74v5.635h1.857v0.557h-11.258v-0.557h1.857v-5.635h3.134
	c0.063-0.277,0.114-0.556,0.164-0.834h-4.94v-0.543H666.941z M665.604,294.455h-2.123v1.2h2.123V294.455z M670.441,299.812v-0.922
	h-6.19v0.922H670.441z M670.441,301.202v-0.935h-6.19v0.935H670.441z M670.441,302.579v-0.922h-6.19v0.922H670.441z
	 M670.441,304.019v-0.973h-6.19v0.973H670.441z M668.458,294.455h-2.224v1.2h2.224V294.455z M671.199,294.455h-2.122v1.2h2.122
	V294.455z"/>
<rect x="88.138" y="191.827" style="fill:#CEE3FF;fill-opacity:0;" width="72.174" height="18.043"/>
<g transform="translate(0 0)">
	<g style="enable-background:new    ;">
		<path style="fill:#444444;" d="M92.768,195.727v8.601h1.536v-8.601h0.79v8.601h3.246v0.758h-9.585v-0.759h3.224v-8.601
			L92.768,195.727L92.768,195.727z M91.199,202.704l-0.714,0.185c-0.39-1.731-0.876-3.397-1.46-4.998l0.66-0.217
			C90.247,199.135,90.756,200.812,91.199,202.704z M98.047,197.891c-0.433,1.882-0.974,3.526-1.633,4.943l-0.704-0.249
			c0.627-1.276,1.179-2.91,1.645-4.89L98.047,197.891z"/>
		<path style="fill:#444444;" d="M103.475,195.695c-0.119,0.292-0.26,0.562-0.411,0.822h4.717v0.627
			c-0.692,0.801-1.536,1.482-2.531,2.045c1.222,0.52,2.585,0.854,4.089,1.006l-0.357,0.725c-1.709-0.194-3.235-0.627-4.576-1.298
			c-1.32,0.605-2.867,1.05-4.62,1.32l-0.357-0.736c1.568-0.216,2.942-0.562,4.132-1.038c-0.605-0.357-1.168-0.769-1.688-1.223
			c-0.411,0.368-0.854,0.703-1.353,1.006l-0.476-0.627c1.298-0.747,2.185-1.655,2.64-2.737L103.475,195.695z M104.503,200.401
			c0,0.433-0.043,0.844-0.108,1.233h3.808c-0.021,1.828-0.184,2.921-0.498,3.277c-0.313,0.357-0.854,0.541-1.623,0.541
			c-0.346,0-0.768-0.021-1.266-0.043l-0.195-0.703l1.276,0.054c0.649-0.011,1.049-0.151,1.223-0.411
			c0.162-0.26,0.26-0.931,0.292-2.012h-3.202c-0.086,0.281-0.206,0.552-0.346,0.812c-0.552,0.974-1.817,1.784-3.808,2.412
			l-0.52-0.639c1.774-0.519,2.954-1.179,3.516-1.969c0.13-0.194,0.249-0.4,0.335-0.616h-3.224v-0.703h3.44
			c0.086-0.39,0.13-0.801,0.13-1.233H104.503z M106.667,197.252h-4.132l-0.141,0.173c0.605,0.53,1.276,0.984,2.001,1.363
			C105.271,198.356,106.028,197.836,106.667,197.252z"/>
		<path style="fill:#444444;" d="M114.605,201.839c0.108-0.324,0.184-0.671,0.227-1.038h0.8c-0.054,0.367-0.13,0.714-0.216,1.038
			h4.436v0.725h-4.046c0.995,1.093,2.38,1.851,4.176,2.283l-0.39,0.692c-2.013-0.541-3.516-1.482-4.512-2.824
			c-0.227,0.455-0.498,0.845-0.822,1.18c-0.703,0.692-1.882,1.233-3.538,1.634l-0.303-0.726c1.482-0.324,2.553-0.789,3.213-1.396
			c0.26-0.248,0.487-0.529,0.66-0.844h-3.743v-0.724L114.605,201.839L114.605,201.839z M114.799,197.772v-2.164h0.801v2.164h4.165
			v0.725H115.6v0.217c1.471,0.421,2.813,0.918,4.024,1.502l-0.422,0.65c-1.179-0.671-2.38-1.212-3.603-1.623v1.18h-0.801v-1.927
			h-0.054c-0.649,0.963-1.883,1.796-3.7,2.499l-0.422-0.682c1.666-0.541,2.802-1.146,3.408-1.817h-3.396v-0.724L114.799,197.772
			L114.799,197.772z M113.447,197.274l-0.703,0.183c-0.238-0.476-0.541-0.94-0.909-1.373l0.714-0.228
			C112.884,196.268,113.187,196.733,113.447,197.274z M118.51,195.965c-0.216,0.563-0.487,1.06-0.833,1.492l-0.671-0.248
			c0.292-0.379,0.552-0.855,0.779-1.439L118.51,195.965z"/>
		<path style="fill:#444444;" d="M125.679,202.575v-0.94h0.779v0.94h3.722v0.715h-3.722v1.266h4.317v0.714h-9.499v-0.715h4.403
			v-1.266h-3.797v-0.714H125.679z M126.707,196.106v0.692h-1.093v1.622h1.331v0.715h-1.331v2.38h-0.757v-2.38h-1.417
			c-0.119,1.114-0.53,1.947-1.244,2.51l-0.585-0.509c0.606-0.454,0.963-1.114,1.072-2.001h-1.342v-0.715h1.385v-1.622h-1.103v-0.692
			L126.707,196.106L126.707,196.106z M123.472,198.42h1.385v-1.622h-1.385V198.42z M128.33,196.354v3.722h-0.746v-3.722H128.33z
			 M127.973,201.612l-0.162-0.735c0.476,0.032,0.919,0.055,1.352,0.055c0.249,0,0.379-0.152,0.379-0.455v-4.717h0.747v4.901
			c0,0.627-0.292,0.951-0.866,0.951H127.973z"/>
		<path style="fill:#444444;" d="M132.6,200.227l-0.725-0.205c0.368-1.136,0.562-2.337,0.606-3.592l0.725,0.064
			c-0.021,0.466-0.054,0.931-0.108,1.385h0.93v-2.25h0.768v2.25h0.92v0.758h-0.92v2.586c0.346-0.13,0.692-0.271,1.028-0.422v0.735
			c-0.347,0.152-0.682,0.282-1.028,0.412v3.592h-0.768v-3.322c-0.617,0.205-1.255,0.39-1.904,0.552l-0.184-0.747
			c0.714-0.141,1.417-0.313,2.088-0.529v-2.857h-1.039C132.881,199.178,132.751,199.708,132.6,200.227z M139.275,195.618v1.158
			h2.001v0.703h-2.001v1.276h2.478v0.735h-5.755v-0.734h2.499v-1.276h-1.904v-0.703h1.904v-1.159L139.275,195.618L139.275,195.618z
			 M139.642,200.833v-0.8h0.801v0.801h1.211v0.735h-1.211v2.91c0,0.649-0.314,0.984-0.941,0.984h-1.276l-0.173-0.757
			c0.411,0.021,0.812,0.043,1.18,0.043c0.27,0,0.411-0.162,0.411-0.465v-2.715h-3.41v-0.736H139.642z M138.312,203.7l-0.617,0.433
			c-0.303-0.52-0.714-1.093-1.255-1.721l0.606-0.379C137.587,202.672,138.009,203.224,138.312,203.7z"/>
		<path style="fill:#444444;" d="M145.6,195.9c-0.541,1.19-1.428,2.239-2.661,3.148l-0.228-0.779
			c1.006-0.778,1.742-1.677,2.207-2.693L145.6,195.9z M145.979,198.669c-0.271,0.562-0.606,1.093-1.017,1.602v5.269h-0.757v-4.458
			c-0.368,0.346-0.779,0.682-1.212,1.006l-0.227-0.758c1.158-0.865,2.001-1.85,2.542-2.964L145.979,198.669z M146.336,196.992
			v-0.757h6.145v0.757h-2.358v2.91h2.121v0.725h-2.121v3.7h2.564v0.758h-6.87v-0.758h1.114v-5.669h0.757v5.669h1.655v-7.335H146.336
			z"/>
	</g>
</g>
<rect x="88.138" y="242.653" style="fill:#CEE3FF;fill-opacity:0;" width="75.769" height="18.043"/>
<g transform="translate(0 0)">
	<g style="enable-background:new    ;">
		<path style="fill:#444444;" d="M90.377,248.565v-2.109h0.779v2.109h1.341v0.748h-1.341v0.552c0.498,0.52,1.006,1.093,1.525,1.73
			l-0.455,0.671c-0.411-0.682-0.768-1.233-1.071-1.655v5.701h-0.779v-5.495c-0.378,1.082-0.876,2.056-1.482,2.942l-0.335-0.844
			c0.833-1.061,1.428-2.261,1.785-3.603h-1.58v-0.748L90.377,248.565L90.377,248.565z M92.963,253.661
			c0.141-0.659,0.216-1.547,0.216-2.661v-4.101h3.494v8.168c0,0.195,0.076,0.304,0.249,0.304h0.368c0.13,0,0.227-0.022,0.303-0.065
			c0.086-0.064,0.141-0.162,0.162-0.313c0.043-0.217,0.076-0.833,0.076-1.872l0.714,0.228c0,0.779-0.032,1.363-0.076,1.774
			c-0.043,0.39-0.151,0.649-0.324,0.801c-0.173,0.118-0.433,0.184-0.779,0.184h-0.443c-0.692,0-1.039-0.324-1.039-0.963v-7.508
			h-1.926v3.365c0,1.19-0.097,2.186-0.292,2.986c-0.184,0.844-0.53,1.644-1.039,2.423l-0.638-0.573
			C92.454,255.154,92.779,254.429,92.963,253.661z"/>
		<path style="fill:#444444;" d="M103.248,250.567c0.206-0.281,0.368-0.573,0.498-0.876l0.747,0.075
			c-0.108,0.281-0.249,0.541-0.4,0.801h2.791c-0.151-0.271-0.313-0.52-0.487-0.735l0.66-0.217c0.227,0.303,0.422,0.617,0.595,0.952
			h1.493v0.692h-2.921c0.703,0.671,1.752,1.19,3.148,1.568l-0.313,0.66c-0.281-0.087-0.53-0.184-0.757-0.271v3.159h-0.692v-0.465
			h-2.023v0.465h-0.692v-3.408h2.845c-1.028-0.476-1.807-1.049-2.348-1.709h-1.817c-0.606,0.692-1.417,1.255-2.435,1.709h2.716
			v3.408h-0.692v-0.465h-1.85v0.465h-0.682v-3.191c-0.292,0.108-0.584,0.205-0.887,0.303l-0.357-0.639
			c1.385-0.411,2.445-0.94,3.202-1.59h-2.986v-0.692L103.248,250.567L103.248,250.567z M103.778,246.856v2.629h-3.3v-2.629H103.778z
			 M103.064,247.527h-1.882v1.298h1.882C103.064,248.825,103.064,247.527,103.064,247.527z M103.162,255.241v-1.623h-1.85v1.623
			H103.162z M108.343,246.856v2.629h-3.364v-2.629H108.343z M107.608,255.241v-1.623h-2.023v1.623H107.608z M107.64,247.527h-1.947
			v1.298h1.947V247.527z"/>
		<path style="fill:#444444;" d="M115.513,248.869c0.605,2.942,2.174,5.192,4.695,6.739l-0.508,0.682
			c-2.207-1.449-3.7-3.396-4.468-5.842c-0.649,2.358-2.186,4.306-4.587,5.853l-0.476-0.692c2.975-1.828,4.512-4.306,4.609-7.421
			c0.011-0.736,0.021-1.31,0.021-1.721h0.79C115.589,247.397,115.556,248.198,115.513,248.869z"/>
		<path style="fill:#444444;" d="M122.823,249.41v-1.57c-0.455,0.065-0.931,0.13-1.417,0.185l-0.151-0.737
			c1.353-0.13,2.553-0.356,3.592-0.682l0.271,0.736c-0.487,0.141-1.006,0.26-1.547,0.367v1.7h1.396v0.746h-1.397v0.573
			c0.508,0.498,1.028,1.061,1.547,1.677l-0.433,0.65c-0.433-0.671-0.812-1.212-1.114-1.612v4.88h-0.747v-4.88
			c-0.379,1.061-0.876,2.013-1.493,2.867l-0.335-0.865c0.822-0.963,1.407-2.056,1.753-3.289h-1.504v-0.746L122.823,249.41
			L122.823,249.41z M130.667,250.978v0.714h-2.358v1.385h2.023v0.703h-2.023v1.461h2.618v0.735h-6.07v-0.735h2.651v-1.461h-1.969
			v-0.703h1.969v-1.385h-2.218v-0.714H130.667z M130.201,246.845v3.127h-4.489v-3.127H130.201z M129.444,247.537h-2.964v1.732h2.964
			V247.537z"/>
		<path style="fill:#444444;" d="M137.706,247.343h3.917v0.714h-7.984v2.781c-0.043,2.293-0.422,4.122-1.158,5.507l-0.584-0.52
			c0.616-1.201,0.941-2.867,0.962-4.987v-3.495h4.068c-0.141-0.292-0.292-0.562-0.454-0.812l0.79-0.13
			C137.414,246.683,137.565,246.996,137.706,247.343z M137.749,250.913c0.649-0.378,1.244-0.822,1.785-1.319h-4.771v-0.671h5.745
			v0.562c-0.66,0.703-1.385,1.31-2.164,1.817c0.173,0.108,0.335,0.228,0.487,0.347l-0.163,0.162h2.748v0.605
			c-0.443,0.844-0.941,1.559-1.493,2.143l-0.584-0.466c0.455-0.433,0.866-0.951,1.244-1.558h-2.488v2.889
			c0,0.639-0.325,0.963-0.963,0.963h-1.59l-0.162-0.735c0.519,0.032,1.017,0.054,1.493,0.054c0.292,0,0.444-0.162,0.444-0.465
			v-2.705h-3.181v-0.725h3.852c-0.563-0.39-1.277-0.812-2.131-1.244l0.465-0.454C136.84,250.373,137.317,250.642,137.749,250.913z"
			/>
		<path style="fill:#444444;" d="M143.426,251.054l-0.725-0.205c0.368-1.136,0.562-2.337,0.606-3.592l0.725,0.064
			c-0.021,0.466-0.054,0.931-0.108,1.385h0.93v-2.25h0.768v2.25h0.92v0.758h-0.92v2.586c0.346-0.13,0.692-0.271,1.028-0.422v0.735
			c-0.346,0.151-0.682,0.281-1.028,0.411v3.592h-0.768v-3.321c-0.617,0.205-1.255,0.39-1.904,0.552l-0.184-0.747
			c0.714-0.141,1.417-0.313,2.088-0.529v-2.856h-1.039C143.707,250.005,143.577,250.535,143.426,251.054z M150.101,246.445v1.158
			h2.001v0.703h-2.001v1.277h2.478v0.735h-5.755v-0.735h2.499v-1.277h-1.904v-0.703h1.904v-1.158H150.101z M150.468,251.66v-0.801
			h0.801v0.801h1.211v0.735h-1.211v2.91c0,0.649-0.314,0.984-0.941,0.984h-1.276l-0.173-0.757c0.411,0.021,0.812,0.043,1.18,0.043
			c0.27,0,0.411-0.162,0.411-0.465v-2.716h-3.408v-0.735L150.468,251.66L150.468,251.66z M149.138,254.527l-0.617,0.433
			c-0.303-0.52-0.714-1.093-1.255-1.721l0.606-0.379C148.413,253.499,148.835,254.051,149.138,254.527z"/>
		<path style="fill:#444444;" d="M156.426,246.726c-0.541,1.19-1.428,2.24-2.661,3.149l-0.228-0.779
			c1.006-0.779,1.742-1.677,2.207-2.694L156.426,246.726z M156.805,249.496c-0.271,0.562-0.606,1.093-1.017,1.602v5.269h-0.757
			v-4.457c-0.368,0.346-0.779,0.682-1.212,1.006l-0.227-0.758c1.158-0.865,2.001-1.85,2.542-2.964L156.805,249.496z
			 M157.162,247.819v-0.757h6.145v0.757h-2.358v2.911h2.121v0.725h-2.121v3.7h2.564v0.758h-6.87v-0.758h1.114v-5.669h0.757v5.669
			h1.655v-7.335L157.162,247.819L157.162,247.819z"/>
	</g>
</g>
<rect x="88.138" y="294.381" style="fill:#CEE3FF;fill-opacity:0;" width="72.174" height="18.043"/>
<g transform="translate(0 0)">
	<g style="enable-background:new    ;">
		<path style="fill:#444444;" d="M89.371,299.504v-0.769h8.546v0.769H94.25v3.148h3.116v0.746H94.25v3.462h4.122v0.757h-9.639
			v-0.757h1.698v-5.193h0.757v5.193h2.272v-7.356L89.371,299.504L89.371,299.504z"/>
		<path style="fill:#444444;" d="M104.774,298.119v1.655h1.374c0.335-0.477,0.627-0.974,0.865-1.504l0.725,0.271
			c-0.249,0.476-0.509,0.887-0.768,1.233h1.904v2.186h-0.8v-1.45h-7.4v1.461h-0.801v-2.196h1.764
			c-0.206-0.411-0.455-0.801-0.736-1.158l0.736-0.271c0.281,0.4,0.541,0.877,0.768,1.429h1.568v-1.655L104.774,298.119
			C104.774,298.12,104.774,298.119,104.774,298.119z M101.593,303.722v-2.38h5.583v2.38h-2.402v0.865h3.44v1.97
			c0,0.648-0.335,0.974-1.006,0.974h-0.844l-0.206-0.747l0.8,0.033c0.325,0,0.487-0.151,0.487-0.434v-1.081h-2.672v2.812h-0.801
			v-2.812h-2.618v2.293h-0.769v-3.008h3.386v-0.865C103.971,303.722,101.593,303.722,101.593,303.722z M106.429,302.003h-4.079v1.06
			h4.079V302.003z"/>
		<path style="fill:#444444;" d="M112.538,301.505v4.761c0.368-0.314,0.757-0.682,1.168-1.093l0.206,0.822
			c-0.649,0.638-1.342,1.211-2.077,1.709l-0.292-0.692c0.152-0.151,0.238-0.313,0.238-0.498v-4.262h-1.504v-0.747
			C110.277,301.505,112.538,301.505,112.538,301.505z M113.36,300.012l-0.541,0.552c-0.455-0.552-1.093-1.125-1.894-1.73l0.541-0.52
			C112.224,298.887,112.852,299.449,113.36,300.012z M116.66,299.839c-0.238-0.541-0.508-1.06-0.833-1.558l0.757-0.217
			c0.346,0.596,0.627,1.137,0.822,1.634l-0.357,0.141h3.148v0.747h-3.635c-0.011,0.454-0.033,1.081-0.076,1.882h2.975
			c-0.022,2.38-0.108,3.916-0.238,4.598c-0.184,0.606-0.627,0.909-1.341,0.931c-0.346,0-0.747-0.021-1.201-0.043l-0.238-0.703
			c0.541,0.02,0.985,0.042,1.353,0.042c0.422-0.021,0.681-0.238,0.779-0.671c0.065-0.53,0.097-1.666,0.119-3.419h-2.272
			c-0.108,0.888-0.314,1.688-0.617,2.413c-0.411,0.92-0.974,1.764-1.699,2.521l-0.573-0.541c0.854-0.963,1.428-1.86,1.72-2.683
			c0.271-0.812,0.422-1.731,0.465-2.759c0.021-0.692,0.043-1.212,0.054-1.568h-2.044v-0.747L116.66,299.839L116.66,299.839z"/>
		<path style="fill:#444444;" d="M122.423,299.969v8.136h-0.79v-8.136H122.423z M124.587,300.045l-0.692,0.356
			c-0.411-0.757-0.876-1.417-1.374-2.001l0.725-0.313C123.743,298.681,124.197,299.331,124.587,300.045z M127.951,301.526v4.068
			h-3.894v-4.068H127.951z M127.162,302.273h-2.316v2.574h2.315L127.162,302.273L127.162,302.273z M128.016,308.028l-0.195-0.725
			l1.19,0.021c0.411,0,0.617-0.237,0.617-0.714v-7.054h-4.197v-0.757h4.987v8.017c0,0.8-0.422,1.211-1.244,1.211L128.016,308.028
			L128.016,308.028z"/>
		<path style="fill:#444444;" d="M132.6,302.781l-0.725-0.205c0.368-1.136,0.562-2.337,0.606-3.592l0.725,0.064
			c-0.021,0.466-0.054,0.931-0.108,1.385h0.93v-2.25h0.768v2.25h0.92v0.758h-0.92v2.586c0.346-0.13,0.692-0.271,1.028-0.422v0.735
			c-0.346,0.151-0.682,0.281-1.028,0.411v3.592h-0.768v-3.321c-0.617,0.205-1.255,0.39-1.904,0.552l-0.184-0.747
			c0.714-0.141,1.417-0.313,2.088-0.529v-2.856h-1.039C132.881,301.732,132.751,302.262,132.6,302.781z M139.275,298.173v1.158
			h2.001v0.703h-2.001v1.276h2.478v0.735h-5.755v-0.735h2.499v-1.276h-1.904v-0.703h1.904v-1.158H139.275z M139.642,303.387v-0.801
			h0.801v0.801h1.211v0.735h-1.211v2.91c0,0.649-0.314,0.984-0.941,0.984h-1.276l-0.173-0.757c0.411,0.021,0.812,0.043,1.18,0.043
			c0.27,0,0.411-0.162,0.411-0.465v-2.716h-3.41v-0.735L139.642,303.387L139.642,303.387z M138.312,306.255l-0.617,0.433
			c-0.303-0.52-0.714-1.093-1.255-1.721l0.606-0.379C137.587,305.226,138.009,305.778,138.312,306.255z"/>
		<path style="fill:#444444;" d="M145.6,298.454c-0.541,1.19-1.428,2.239-2.661,3.148l-0.228-0.779
			c1.006-0.778,1.742-1.677,2.207-2.693L145.6,298.454z M145.979,301.223c-0.271,0.562-0.606,1.093-1.017,1.602v5.269h-0.757v-4.457
			c-0.368,0.346-0.779,0.682-1.212,1.006l-0.227-0.758c1.158-0.865,2.001-1.85,2.542-2.964L145.979,301.223z M146.336,299.547
			v-0.757h6.145v0.757h-2.358v2.91h2.121v0.725h-2.121v3.7h2.564v0.758h-6.87v-0.758h1.114v-5.669h0.757v5.669h1.655v-7.335
			L146.336,299.547L146.336,299.547z"/>
	</g>
</g>
<g transform="translate(-0.5, 0)">
	<polygon style="fill:#888888;" points="168.788,207.468 174.788,211.968 168.788,216.468 	"/>
</g>
<path style="fill:none;stroke:#888888;" d="M86.288,211.968h86.799"/>
<g transform="translate(-0.5, 0)">
	<polygon style="fill:#888888;" points="168.788,259.468 174.788,263.968 168.788,268.468 	"/>
</g>
<path style="fill:none;stroke:#888888;" d="M86.288,263.968h85.75"/>
<g transform="translate(-0.5, 0)">
	<polygon style="fill:#888888;" points="168.788,311.468 174.788,315.968 168.788,320.468 	"/>
</g>
<path style="fill:none;stroke:#888888;" d="M86.288,315.968h86.799"/>
<g transform="translate(-0.5, 0)">
	<polygon style="fill:#888888;" points="348.788,239.468 354.788,243.968 348.788,248.468 	"/>
</g>
<path style="fill:none;stroke:#888888;" d="M293.288,243.968h59.125"/>
<g transform="translate(-0.5, 0)">
	<polygon style="fill:#888888;" points="487.788,239.468 493.788,243.968 487.788,248.468 	"/>
</g>
<path style="fill:none;stroke:#888888;" d="M432.288,243.968h59.125"/>
<g transform="translate(-0.5, 0)">
	<polygon style="fill:#888888;" points="624.788,239.468 630.788,243.968 624.788,248.468 	"/>
</g>
<path style="fill:none;stroke:#888888;" d="M569.288,243.968h59.125"/>
<path style="fill:none;stroke:#BABABA;stroke-dasharray:5;" d="M62.523,62.329h700v320h-700L62.523,62.329"/>
</svg>
