<?xml version="1.0" encoding="UTF-8"?>
<svg width="32px" height="32px" viewBox="0 0 32 32" version="1.1" xmlns="http://www.w3.org/2000/svg" xmlns:xlink="http://www.w3.org/1999/xlink">
    <!-- Generator: Sketch 52.6 (67491) - http://www.bohemiancoding.com/sketch -->
    <title>网络-32px</title>
    <desc>Created with Sketch.</desc>
    <g id="网络-32px" stroke="none" stroke-width="1" fill="none" fill-rule="evenodd">
        <rect id="Rectangle-Copy" fill="#444444" opacity="0" x="0" y="0" width="32" height="32"></rect>
        <g id="image-2" transform="translate(1.000000, 1.000000)" fill="#00A4FF">
            <path d="M19,13.1 C19,13.7 19,14.3 19,15 C19,15.7 19,16.3 19,16.9 C19.7,16.9 20.4,16.8 21,16.7 C21,16.1 21,15.6 21,15 C21,14.4 21,13.9 21,13.3 C20.3,13.2 19.7,13.2 19,13.1 Z M15,0 C6.7,0 0,6.7 0,15 C0,23.3 6.7,30 15,30 C23.3,30 30,23.3 30,15 C30,6.7 23.3,0 15,0 Z M27.6,11.7 C25.9,10.7 23.5,9.9 20.6,9.4 C20.1,6.5 19.3,4.1 18.3,2.4 C22.8,3.6 26.4,7.2 27.6,11.7 Z M2.4,18.3 C3.7,19.1 5.4,19.7 7.3,20.2 C7.2,19.6 7.1,18.9 7.1,18.2 C4,17.5 2,16.3 2,15 C2,13.7 4,12.5 7.1,11.8 C7.2,11.1 7.2,10.5 7.3,9.8 C5.3,10.3 3.6,10.9 2.4,11.7 C3.6,7.1 7.2,3.6 11.7,2.4 C10.1,5.1 9,9.7 9,15 C9,20.3 10.1,24.9 11.7,27.6 C7.2,26.4 3.6,22.8 2.4,18.3 Z M18.3,27.6 C19.3,25.9 20.1,23.5 20.6,20.6 C23.5,20.1 25.9,19.3 27.6,18.3 C26.4,22.8 22.8,26.4 18.3,27.6 Z M27.9,15.5 C27.9,15.6 27.8,15.7 27.8,15.8 C27.8,15.8 27.8,15.9 27.8,15.9 C27.7,16 27.6,16.1 27.5,16.2 C27.5,16.2 27.4,16.3 27.4,16.3 C27.3,16.4 27.2,16.4 27.1,16.5 C27,16.5 27,16.6 26.9,16.6 C26.8,16.7 26.7,16.8 26.5,16.8 C26.4,16.9 26.3,16.9 26.2,17 C26.1,17.1 26,17.1 25.9,17.2 C25.8,17.3 25.7,17.3 25.6,17.4 C25.5,17.4 25.4,17.5 25.3,17.5 C24.8,17.7 24.3,17.9 23.8,18 C23.7,18 23.7,18 23.6,18 C23,18.2 22.3,18.3 21.6,18.5 C21.6,18.5 21.6,18.5 21.6,18.5 C21.3,18.5 21.1,18.6 20.8,18.6 C20.8,18.6 20.8,18.6 20.8,18.6 C20.2,18.7 19.5,18.8 18.8,18.9 C18.8,18.9 18.8,18.9 18.8,18.9 C18.3,19 17.7,19 17.1,19 C17,19 16.8,19 16.7,19 C16.1,19 15.5,19 14.9,19 C14.3,19 13.7,19 13.1,19 C13.2,19.7 13.3,20.4 13.4,21 C13.9,21 14.4,21 14.9,21 C16.1,21 17.3,20.9 18.5,20.8 C17.8,25.1 16.5,28 14.9,28 C12.7,28 10.9,22.2 10.9,15 C10.9,7.8 12.7,2 14.9,2 C16.5,2 17.8,4.9 18.5,9.2 C17.4,9.1 16.2,9 15,9 C14.5,9 14,9 13.5,9 C13.4,9.6 13.3,10.3 13.2,11 C13.8,11 14.4,11 15,11 C15.6,11 16.2,11 16.8,11 C16.9,11 17.1,11 17.2,11 C17.8,11 18.3,11.1 18.9,11.1 C18.9,11.1 18.9,11.1 18.9,11.1 C19.6,11.2 20.3,11.3 20.9,11.4 C20.9,11.4 20.9,11.4 20.9,11.4 C21.2,11.4 21.4,11.5 21.7,11.5 C21.7,11.5 21.7,11.5 21.7,11.5 C22.4,11.6 23.1,11.8 23.7,12 C23.8,12 23.8,12 23.9,12 C24.5,12.2 25,12.3 25.4,12.5 C25.5,12.5 25.6,12.6 25.7,12.6 C25.8,12.6 25.9,12.7 26,12.8 C26.1,12.9 26.2,12.9 26.3,13 C26.4,13.1 26.5,13.1 26.6,13.2 C26.7,13.3 26.9,13.4 27,13.4 C27.1,13.4 27.1,13.5 27.2,13.5 C27.3,13.6 27.4,13.6 27.5,13.7 C27.5,13.7 27.6,13.8 27.6,13.8 C27.7,13.9 27.8,14 27.9,14.1 C27.9,14.1 27.9,14.2 27.9,14.2 C28,14.3 28,14.4 28,14.5 C28,14.5 28,14.6 28,14.6 C28,14.7 28.1,14.8 28.1,15 C28.1,15.2 28.1,15.2 28,15.4 C27.9,15.4 27.9,15.4 27.9,15.5 Z" id="XMLID_64_"></path>
        </g>
    </g>
</svg>