<?xml version="1.0" encoding="utf-8"?>
<!-- Generator: Adobe Illustrator 21.1.0, SVG Export Plug-In . SVG Version: 6.00 Build 0)  -->
<svg version="1.1" id="图层_1" xmlns="http://www.w3.org/2000/svg" xmlns:xlink="http://www.w3.org/1999/xlink" x="0px" y="0px"
	 viewBox="0 0 48 48" style="enable-background:new 0 0 48 48;" xml:space="preserve">
<style type="text/css">
	.st0{fill:#00A4FF;}
	.st1{fill:#334966;}
	.st2{fill:#FFFFFF;}
</style>
<title>企业组织-48px</title>
<desc>Created with Sketch.</desc>
<g>
	<rect x="17.6" y="22.9" class="st0" width="13.8" height="7.6"/>
	<path class="st1" d="M24,45.5c-2.7,0-5.7-1.4-8.7-4c-2.6-2.2-5.1-5.2-6.9-8.4c-1.9-3.1-2.9-6-2.9-8V9.9C5.4,9,6.1,8.3,7,8.2
		c1,0,2.5-0.2,4.3-0.4c5.8-1.2,10-3.9,11.6-5c0.3-0.2,0.6-0.3,1-0.3c0,0,0.1,0,0.2,0l0.3,0c0.4,0,0.7,0.1,1,0.3
		c1.5,1.1,5.8,3.8,11.5,5C38.5,8.1,40,8.2,41,8.2c0.9,0,1.6,0.8,1.6,1.7v15.2c0,2.1-1,4.9-2.9,8c-1.9,3.2-4.4,6.2-7,8.4
		C29.7,44.1,26.7,45.5,24,45.5L24,45.5z M23.7,4.8c-3.4,2.9-8.4,4.2-12,4.7C10.4,9.8,9.1,9.9,7.8,10l-0.5,0v15.5
		c0,1.5,0.8,3.8,2.3,6.3c0,0.1,0.1,0.1,0.1,0.2c0.1,0.1,0.1,0.2,0.1,0.2l0.2,0.3c1.1,1.7,2.3,3.4,3.7,4.9c0.1,0.1,0.2,0.2,0.2,0.2
		l0.1,0.1c3.5,3.7,7.3,6,10,6c2.8,0,6.6-2.3,10.1-6c0.1-0.1,0.1-0.1,0.2-0.2c1.4-1.5,2.7-3.3,3.7-5l0.1-0.2c0-0.1,0.1-0.1,0.1-0.2
		l0.2-0.3c1.5-2.5,2.3-4.8,2.3-6.3V10.1l-0.5,0c-1.3-0.1-2.6-0.3-3.9-0.5c-3.6-0.6-8.6-1.8-12-4.7L24,4.5L23.7,4.8z"/>
	<g>
		<path class="st1" d="M29.7,20.4H33v11.8H15V20.4h3.3v-1.7c0-3.3,2.6-5.9,5.7-5.9s5.7,2.6,5.7,5.9V20.4z M28.1,20.4v-1.7
			c0-2.3-1.8-4.2-4.1-4.2s-4.1,1.9-4.1,4.2v1.7H28.1L28.1,20.4z M16.6,30.6h14.8v-8.4H16.6V30.6z M27.3,24.7"/>
	</g>
	<rect x="19.1" y="24.7" class="st2" width="1.6" height="3.4"/>
	<polygon class="st2" points="23.2,24.7 24.8,24.7 24.8,28 23.2,28 23.2,24.7 	"/>
	<rect x="27.3" y="24.7" class="st2" width="1.6" height="3.4"/>
</g>
</svg>
