<?xml version="1.0" encoding="utf-8"?>
<!-- Generator: Adobe Illustrator 22.1.0, SVG Export Plug-In . SVG Version: 6.00 Build 0)  -->
<svg version="1.1" id="图层_1" xmlns="http://www.w3.org/2000/svg" xmlns:xlink="http://www.w3.org/1999/xlink" x="0px" y="0px"
	 width="830px" height="702.3px" viewBox="0 0 830 702.3" style="enable-background:new 0 0 830 702.3;" xml:space="preserve">
<style type="text/css">
	.st0{fill:#EAEBEC;}
	.st1{opacity:0.6;enable-background:new    ;}
	.st2{fill:#BBBBBB;}
	.st3{fill:#FFFFFF;}
	.st4{fill:#E5E5E5;}
	.st5{fill:#00A4FF;}
	.st6{fill:#444444;}
	.st7{fill:#878787;}
	.st8{fill:#BABABA;}
	.st9{fill:#00A3FF;}
	.st10{fill:#00C5D9;}
	.st11{fill:#006EFF;}
</style>
<rect x="156.1" y="40.1" class="st0" width="478" height="73"/>
<g class="st1">
	<rect x="313.8" y="53" class="st2" width="165" height="50"/>
</g>
<g>
	<rect x="311.8" y="51" class="st3" width="165" height="50"/>
	<path class="st4" d="M477.3,101.5h-166v-51h166V101.5z M312.3,100.5h164v-49h-164V100.5z"/>
</g>
<g>
	<g id="_复合路径__2_">
		<path class="st5" d="M350.7,79c0,1.1-0.9,2-2,2c-0.2,0-0.4,0-0.6-0.1l-3.4,2V83c0,1.1-0.9,2-2,2s-2-0.9-2-2v-0.1l-3.4-2
			c-0.2,0.1-0.4,0.1-0.6,0.1c-1.1,0-2-0.9-2-2c0-0.7,0.4-1.3,1-1.7v-3.6c-1-0.5-1.3-1.7-0.8-2.7s1.7-1.3,2.7-0.8
			c0.2,0.1,0.4,0.2,0.5,0.4l2.6-1.5V69c0-1.1,0.9-2,2-2s2,0.9,2,2c0,0.1,0,0.1,0,0.2l2.6,1.5c0.7-0.8,2-0.9,2.8-0.1
			c0.8,0.7,0.9,2,0.1,2.8c-0.1,0.2-0.3,0.3-0.5,0.4v3.5C350.3,77.6,350.7,78.3,350.7,79z M337.7,74.2v3.1c0.2,0.1,0.4,0.3,0.5,0.5
			l2.6-1.7L337.7,74.2z M341.7,70.7L341.7,70.7l-3,1.7l0,0l3,1.8V70.7z M341.7,77.9l-2.8,1.8l2.7,1.6l0.1-0.1L341.7,77.9L341.7,77.9
			z M347.7,77.3V74l-3.1,2l2.7,1.6C347.4,77.5,347.6,77.4,347.7,77.3z M343.7,81.3l0.1,0.1l2.9-1.8l-3-1.8V81.3z M343.8,70.7
			l-0.1,0.1v3.5l2.9-1.9L343.8,70.7z M355.5,74c-1.1-7.1-7.8-11.9-14.8-10.8c-7.1,1.1-11.9,7.8-10.8,14.8
			c1.1,7.1,7.8,11.9,14.8,10.8c5.6-0.9,10-5.3,10.8-10.8h2c-1.1,8.2-8.7,14-16.9,12.9s-14-8.7-12.9-16.9s8.7-14,16.9-12.9
			c6.7,0.9,12,6.2,12.9,12.9H355.5z"/>
	</g>
	<g>
		<g>
			<g>
				<path class="st6" d="M368.1,81.4l-0.7-0.7c0.5-1.6,0.7-3.2,0.7-4.8v-6.8h3.6v11.1c0.1,0.5-0.3,1-0.9,1.1c-0.1,0-0.2,0-0.3,0h-1
					l-0.2-0.9c0.3,0,0.6,0,0.9,0s0.5-0.2,0.5-0.6v-3.1H369C369,78.3,368.7,79.9,368.1,81.4z M370.7,70.1h-1.6v2.4h1.6V70.1z
					 M369.1,75.8h1.6v-2.3h-1.6V75.8z M373.6,70.5c-0.2-0.5-0.4-0.9-0.7-1.3l0.9-0.3c0.3,0.5,0.6,1.1,0.7,1.6h0.7
					c0.2-0.7,0.3-1.3,0.4-2l1,0.1c-0.1,0.6-0.2,1.3-0.4,1.9h1.1c0.3-0.5,0.6-1.1,0.8-1.7l0.9,0.3c-0.2,0.5-0.5,0.9-0.8,1.4h1.2v0.8
					h-3.5c-0.1,0.4-0.3,0.8-0.5,1.1h4.4v0.8h-2.1c0.7,0.8,1.6,1.4,2.5,1.7l-0.4,0.9c-0.6-0.3-1.1-0.6-1.6-0.9V75
					c-0.1,0.8-0.2,1.5-0.4,2h1.5c0,2.3-0.2,3.6-0.5,3.9c-0.5,0.3-1.1,0.5-1.7,0.4h-0.6l-0.2-0.9h0.9c0.3,0,0.7,0,1-0.2
					c0.3-0.8,0.4-1.6,0.3-2.4h-5.2c0.2-0.7,0.4-1.4,0.6-2.1l0.9,0.1c-0.1,0.4-0.2,0.8-0.3,1.2h2.6c0.2-0.5,0.3-1.1,0.3-1.7h-3.7V75
					c-0.4,0.4-0.9,0.7-1.4,1l-0.5-0.8c0.8-0.5,1.6-1.1,2.2-1.8h-1.7v-0.8h2.3c0.2-0.4,0.4-0.7,0.5-1.1h-2.4v-0.8L373.6,70.5z
					 M377.3,78.8v0.9h-5v-0.9H377.3z M377.9,74.7c-0.5-0.4-0.9-0.8-1.2-1.3h-1.8c-0.3,0.5-0.7,0.9-1.1,1.3H377.9z"/>
			</g>
			<g>
				<path class="st6" d="M384.2,72.9v6.2c0.5-0.4,0.9-0.8,1.4-1.4l0.3,1.1c-0.8,0.8-1.7,1.5-2.6,2.2l-0.4-0.9
					c0.2-0.2,0.3-0.4,0.3-0.6V74h-1.9v-1L384.2,72.9z M385.2,70.9l-0.7,0.7c-0.7-0.8-1.5-1.5-2.3-2.2l0.7-0.7
					C383.8,69.3,384.5,70.1,385.2,70.9L385.2,70.9z M387.6,74.1v-3.8h-1.9v-1h6.4v4.3c-0.1,2,0.1,4,0.6,5.9c0.2,0.4,0.4,0.7,0.5,0.7
					s0.1-0.2,0.1-0.5s0.1-1,0.1-1.7l0.8,0.4c0,0.9-0.1,1.7-0.3,2.6c-0.1,0.3-0.3,0.4-0.5,0.4c-0.6-0.1-1.1-0.4-1.4-1
					c-0.7-1.2-1-3.4-1-6.7v-3.3h-2.6v3.8h1.9v1h-1.9v6.4h-1V75h-2.1v-1L387.6,74.1z"/>
			</g>
			<g>
				<path class="st6" d="M407.5,70c0.8,0,1.6,0.2,2.2,0.7c0.5,0.5,0.8,1.1,0.8,1.8c0,0.5-0.1,1-0.5,1.5c-0.3,0.4-0.7,0.7-1.2,0.8
					c0.6,0.1,1.1,0.4,1.5,0.8c0.4,0.5,0.6,1,0.6,1.6c0.1,0.9-0.3,1.7-1,2.2c-0.7,0.4-1.6,0.6-2.4,0.6h-4.4V70H407.5L407.5,70z
					 M404.2,74.4h3c0.6,0,1.1-0.1,1.6-0.4c0.4-0.3,0.6-0.8,0.6-1.3s-0.2-1-0.5-1.3c-0.5-0.3-1-0.5-1.6-0.4h-3L404.2,74.4z M404.2,79
					h3.2c0.6,0,1.2-0.1,1.7-0.4s0.8-0.9,0.7-1.4c0-0.6-0.2-1.1-0.6-1.4c-0.5-0.3-1.1-0.5-1.8-0.4h-3.2L404.2,79L404.2,79z"/>
			</g>
			<g>
				<path class="st6" d="M417.8,73.4c0.5,0.6,0.7,1.3,0.6,2V80h-1v-1.2c-0.3,0.4-0.7,0.8-1.1,1c-0.6,0.3-1.2,0.5-1.8,0.4
					c-0.6,0-1.2-0.2-1.7-0.6c-0.4-0.4-0.7-0.9-0.7-1.5c0-0.8,0.3-1.5,1-1.9c0.8-0.4,1.6-0.7,2.5-0.6h1.7v-0.4c0-1.2-0.6-1.8-1.9-1.8
					c-0.5,0-0.9,0.1-1.3,0.3c-0.4,0.2-0.6,0.6-0.7,1l-1.1-0.1c0.1-0.7,0.5-1.3,1.1-1.7s1.4-0.5,2.1-0.5
					C416.4,72.5,417.2,72.8,417.8,73.4z M415.7,76.6c-1.6,0-2.4,0.6-2.4,1.6c0,0.3,0.1,0.6,0.4,0.8c0.3,0.2,0.7,0.3,1.1,0.3
					c0.7,0,1.3-0.2,1.8-0.7c0.5-0.4,0.8-0.9,0.8-1.5v-0.6L415.7,76.6z"/>
			</g>
			<g>
				<path class="st6" d="M425.6,73.4c0.5,0.6,0.7,1.3,0.6,2V80h-1v-1.2c-0.3,0.4-0.7,0.8-1.1,1c-0.6,0.3-1.2,0.5-1.8,0.4
					c-0.6,0-1.2-0.2-1.7-0.6c-0.4-0.4-0.7-0.9-0.7-1.5c0-0.8,0.3-1.5,1-1.9c0.8-0.4,1.6-0.7,2.5-0.6h1.7v-0.4c0-1.2-0.6-1.8-1.9-1.8
					c-0.5,0-0.9,0.1-1.3,0.3c-0.4,0.2-0.6,0.6-0.7,1l-1.1-0.1c0.1-0.7,0.5-1.3,1.1-1.7s1.4-0.5,2.1-0.5
					C424.2,72.5,425,72.8,425.6,73.4z M423.5,76.6c-1.6,0-2.4,0.6-2.4,1.6c0,0.3,0.1,0.6,0.4,0.8c0.3,0.2,0.7,0.3,1.1,0.3
					c0.7,0,1.3-0.2,1.8-0.7c0.5-0.4,0.8-0.9,0.8-1.5v-0.6L423.5,76.6z"/>
			</g>
			<g>
				<path class="st6" d="M434.2,70.6c0.7,0.6,1.1,1.5,1.1,2.4h-1.1c-0.1-0.6-0.4-1.2-0.8-1.6c-0.6-0.4-1.2-0.6-1.9-0.5
					c-0.6,0-1.2,0.1-1.7,0.4c-0.7,0.4-0.9,1.2-0.5,1.9c0.2,0.3,0.4,0.5,0.7,0.6c0.6,0.3,1.2,0.5,1.8,0.6c0.9,0.2,1.8,0.6,2.6,1
					s1.3,1.2,1.2,2.1c0,0.8-0.4,1.6-1,2.1c-0.8,0.5-1.8,0.8-2.8,0.7c-1,0.1-2-0.2-2.8-0.8c-0.8-0.7-1.3-1.7-1.3-2.7h1.1
					c0,0.7,0.4,1.4,0.9,1.9c0.6,0.4,1.3,0.6,2,0.6s1.4-0.1,2-0.5c0.5-0.2,0.8-0.7,0.8-1.3s-0.4-1.2-1-1.5c-0.7-0.3-1.4-0.6-2.1-0.7
					c-0.8-0.2-1.6-0.5-2.3-0.8c-0.7-0.4-1.2-1.1-1.1-1.9c0-0.8,0.4-1.6,1.1-2c0.8-0.5,1.7-0.7,2.5-0.7
					C432.4,69.8,433.4,70.1,434.2,70.6z"/>
			</g>
			<g>
				<path class="st6" d="M445.9,70l3.9,10h-1.2l-1.1-2.8h-4.6l-1.1,2.8h-1.2l3.9-10H445.9z M447.2,76.2l-1.9-5h-0.1l-1.9,5H447.2z"
					/>
			</g>
			<g>
				<path class="st6" d="M454.9,70c2.3,0,3.5,1,3.5,2.9c0,2-1.2,3-3.5,3H452V80h-1.1V70H454.9z M452,74.9h2.9c0.6,0,1.3-0.1,1.8-0.5
					c0.4-0.4,0.6-0.9,0.6-1.5c0.1-0.5-0.1-1.1-0.5-1.4c-0.5-0.4-1.1-0.5-1.8-0.5h-2.9L452,74.9L452,74.9z"/>
			</g>
			<g>
				<path class="st6" d="M461.1,70v10H460V70H461.1z"/>
			</g>
		</g>
		<g>
			<path class="st6" d="M402.1,70.1v1h-3.5v9h-1.1v-9H394v-1H402.1z"/>
		</g>
	</g>
</g>
<rect x="157.6" y="621.1" class="st2" width="156" height="50"/>
<rect x="155.6" y="619.1" class="st3" width="156" height="50"/>
<path class="st4" d="M312.1,669.6h-157v-51h157V669.6z M156.1,668.6h155v-49h-155V668.6z"/>
<rect x="324.1" y="561.1" class="st2" width="156" height="50"/>
<rect x="489.7" y="561.1" class="st2" width="146" height="50"/>
<rect x="157.6" y="561.1" class="st2" width="156" height="50"/>
<rect x="324.1" y="621.1" class="st2" width="156" height="50"/>
<rect x="489.7" y="621.1" class="st2" width="146" height="50"/>
<rect x="322.1" y="559.1" class="st3" width="156" height="50"/>
<path class="st4" d="M478.6,609.6h-157v-51h157V609.6z M322.6,608.6h155v-49h-155V608.6z"/>
<rect x="487.7" y="559.1" class="st3" width="146" height="50"/>
<path class="st4" d="M634.2,609.6h-147v-51h147V609.6L634.2,609.6z M488.2,608.6h145v-49h-145V608.6L488.2,608.6z"/>
<rect x="156.2" y="254.1" class="st0" width="478" height="130"/>
<rect x="156.2" y="414.1" class="st0" width="478" height="70"/>
<rect x="158.2" y="151.1" class="st0" width="476" height="70"/>
<rect x="678" y="56.1" class="st2" width="150" height="50"/>
<rect x="678" y="326.1" class="st2" width="150" height="50"/>
<rect x="169.2" y="426.4" class="st2" width="145" height="50"/>
<rect x="15.3" y="51.1" class="st2" width="108.8" height="50"/>
<rect x="319.2" y="265.1" class="st2" width="145" height="50"/>
<rect x="169.2" y="325.1" class="st2" width="138" height="50"/>
<rect x="319.2" y="325.1" class="st2" width="145" height="50"/>
<rect x="476.1" y="325.1" class="st2" width="148" height="50"/>
<rect x="325.2" y="426.4" class="st2" width="145" height="50"/>
<rect x="481.2" y="426.4" class="st2" width="145" height="50"/>
<path class="st5" d="M20,23.7v3.1h1v-3.1c0.8-0.3,1.2-1.1,0.9-1.9c-0.3-0.8-1.1-1.2-1.9-0.9c-0.8,0.3-1.2,1.1-0.9,1.9
	C19.2,23.2,19.5,23.5,20,23.7z M25,18.8v-2c-0.3-2.5-2.5-4.3-5-4c-2.1,0.2-3.7,1.9-4,4v2h-2v10h13v-10H25z M17,17.3
	c0-1.9,1.6-3.5,3.5-3.5s3.5,1.6,3.5,3.5v1.5h-7V17.3L17,17.3z M26,27.8H15v-8h11V27.8z"/>
<polygon class="st7" points="748.2,304 753.2,312.2 758.2,304 "/>
<rect x="752.7" y="115.3" class="st7" width="1" height="190.7"/>
<polygon class="st7" points="131.1,619.1 136.1,624.1 131.1,629.1 "/>
<polygon class="st7" points="134.1,624.6 55.6,624.6 55.6,124.1 56.6,124.1 56.6,623.6 134.1,623.6 "/>
<rect x="676" y="54.1" class="st3" width="150" height="50"/>
<path class="st4" d="M826.5,104.6h-151v-51h151V104.6z M676.5,103.6h149v-49h-149V103.6z"/>
<g>
	<path class="st6" d="M740.6,75.8l-0.9-0.6c0.8-0.8,1.4-1.8,1.8-2.9l1,0.2c-0.1,0.3-0.2,0.6-0.3,0.9h3.8v0.9h-2.3
		c0.3,0.4,0.5,0.8,0.8,1.2l-0.9,0.3c-0.3-0.5-0.6-1.1-0.9-1.6h-0.8C741.5,74.8,741.1,75.3,740.6,75.8z M752,78.8h-1v-1.7h-9.9v1.7
		h-1v-2.5h5.5c-0.1-0.3-0.3-0.6-0.4-0.9l1-0.2l-0.1-0.1c0.6-0.8,1.1-1.8,1.4-2.8l1,0.2c-0.1,0.3-0.2,0.6-0.3,0.8h4v0.9h-2.5
		c0.3,0.3,0.5,0.7,0.7,1.1l-0.9,0.3c-0.2-0.5-0.5-1-0.9-1.4h-0.9c-0.3,0.5-0.5,0.9-0.8,1.3l-0.8-0.5c0.2,0.3,0.3,0.7,0.5,1.1h5.3
		L752,78.8z M750,80.7h-7v1h7.6v3.6h-1v-0.6H743v0.6h-1V78h8V80.7z M749,79.9v-1.2h-6v1.1L749,79.9z M749.7,83.8v-1.3h-6.6v1.3
		H749.7z"/>
</g>
<g>
	<path class="st6" d="M755.4,77.6v-3.3h-1.7v-1h4.5v1h-1.7v3.3h1.5v1h-1.5v3.2c0.5-0.2,1-0.4,1.5-0.6v1c-1.4,0.6-2.7,1-4.2,1.3
		l-0.2-1c0.6-0.1,1.2-0.2,1.8-0.4v-3.5h-1.5v-1H755.4z M765.7,73v6.5h-2.9v1.6h3.2v1h-3.2v1.8h3.7v1h-8.4v-1h3.8V82h-3.2v-0.9h3.2
		v-1.7H759v-6.5L765.7,73L765.7,73z M761.8,75.8v-1.9h-2v1.9H761.8z M761.8,76.6h-2v1.9h2V76.6z M762.8,75.8h2v-1.9h-2V75.8z
		 M764.7,76.6h-2v1.9h2V76.6z"/>
</g>
<g>
	<path class="st6" d="M774.7,79.4c-0.2,2.1-0.6,3.4-1.3,4.2c-0.7,0.8-2.4,1.4-5,1.7l-0.4-0.9c2.3-0.1,3.8-0.6,4.5-1.4
		c0.8-1.1,1.2-2.3,1.2-3.7L774.7,79.4z M778.7,82.7h-1v-4.3h-7.4v4.5h-1v-5.4h9.4V82.7z M777.9,72.9v3.5h-7.8v-3.5H777.9z
		 M776.9,73.8h-5.8v1.7h5.8V73.8z M780,84.4l-0.5,0.8c-1.6-0.8-3.3-1.5-5-2l0.5-0.8C776.7,83,778.4,83.7,780,84.4L780,84.4z"/>
</g>
<rect x="709" y="63.1" class="st3" width="32" height="32"/>
<path class="st7" d="M709,68.1c2.2,0,4,1.8,4,4s-1.8,4-4,4s-4-1.8-4-4S706.8,68.1,709,68.1 M709,66.1c-3.3,0-6,2.7-6,6s2.7,6,6,6
	s6-2.7,6-6S712.3,66.1,709,66.1z"/>
<path class="st7" d="M713,82.1c3.3,0,6,2.7,6,6v1h-20v-1c0-3.3,2.7-6,6-6H713 M713,80.1h-8c-4.4,0-8,3.6-8,8v3h24v-3
	C721,83.7,717.4,80.1,713,80.1z"/>
<path class="st7" d="M722,80.1h-3c0.8,0.6,1.4,1.2,2,2h1c2.2,0,4,1.8,4,4v1h-3c0,0.3,0,0.7,0,1v1h5v-3C728,82.8,725.3,80.1,722,80.1
	z"/>
<path class="st7" d="M718,67c-0.8,0-1.6,0.2-2.3,0.6c0.4,0.6,0.7,1.2,0.9,1.8c0.4-0.3,0.9-0.4,1.5-0.4c1.7,0,3,1.3,3,3s-1.3,3-3,3
	c-0.5,0-1-0.1-1.5-0.4c-0.2,0.6-0.5,1.2-0.9,1.8c0.7,0.4,1.5,0.6,2.3,0.6c2.8,0,5-2.2,5-5S720.8,67,718,67z"/>
<path class="st8" d="M397.2,239.6h-5v-1h5V239.6z M387.2,239.6h-5v-1h5V239.6z M377.2,239.6h-5v-1h5V239.6z M367.2,239.6h-5v-1h5
	V239.6z M357.2,239.6h-5v-1h5V239.6z M347.2,239.6h-5v-1h5V239.6z M337.2,239.6h-5v-1h5V239.6z M327.2,239.6h-5v-1h5V239.6z
	 M317.2,239.6h-5v-1h5V239.6z M307.2,239.6h-5v-1h5V239.6z M297.2,239.6h-5v-1h5V239.6z M287.2,239.6h-5v-1h5V239.6z M277.2,239.6
	h-5v-1h5V239.6z M267.2,239.6h-5v-1h5V239.6z M257.2,239.6h-5v-1h5V239.6z M247.2,239.6h-5v-1h5V239.6z M237.2,239.6h-5v-1h5V239.6z
	 M227.2,239.6h-5v-1h5V239.6z"/>
<path class="st8" d="M135.1,123.6h-6v-1h6V123.6z M125.1,123.6h-6v-1h6V123.6z M115.1,123.6h-6v-1h6V123.6z M105.1,123.6h-6v-1h6
	V123.6z M95.1,123.6h-6v-1h6V123.6z M85.1,123.6h-6v-1h6V123.6z M75.1,123.6h-6v-1h6V123.6z M65.1,123.6h-6v-1h6V123.6z M55.1,123.6
	h-6v-1h6V123.6z M45.1,123.6h-6v-1h6V123.6z M35.1,123.6h-6v-1h6V123.6z M25.1,123.6h-6v-1h6V123.6z M15.1,123.6h-6v-1h6V123.6z
	 M5.1,123.6H3.6v-5.5h1v4.5h0.5V123.6z M135.6,119.1h-1v-6h1V119.1z M4.6,114.1h-1v-6h1V114.1z M135.6,109.1h-1v-6h1V109.1z
	 M4.6,104.1h-1v-6h1V104.1z M135.6,99.1h-1v-6h1V99.1z M4.6,94.1h-1v-6h1V94.1z M135.6,89.1h-1v-6h1V89.1z M4.6,84.1h-1v-6h1V84.1z
	 M135.6,79.1h-1v-6h1V79.1z M4.6,74.1h-1v-6h1V74.1z M135.6,69.1h-1v-6h1V69.1z M4.6,64.1h-1v-6h1V64.1z M135.6,59.1h-1v-6h1V59.1z
	 M4.6,54.1h-1v-6h1V54.1z M135.6,49.1h-1v-6h1V49.1z M4.6,44.1h-1v-6h1V44.1z M135.6,39.1h-1v-6h1V39.1z M4.6,34.1h-1v-6h1V34.1z
	 M135.6,29.1h-1v-6h1V29.1z M4.6,24.1h-1v-6h1V24.1z M135.6,19.1h-1v-6h1V19.1z M4.6,14.1h-1v-6h1V14.1z M135.6,9.1h-1V4.6h-0.5v-1
	h1.5V9.1z M130.1,4.6h-6v-1h6V4.6z M120.1,4.6h-6v-1h6V4.6z M110.1,4.6h-6v-1h6V4.6z M100.1,4.6h-6v-1h6V4.6z M90.1,4.6h-6v-1h6V4.6
	z M80.1,4.6h-6v-1h6V4.6z M70.1,4.6h-6v-1h6V4.6z M60.1,4.6h-6v-1h6V4.6z M50.1,4.6h-6v-1h6V4.6z M40.1,4.6h-6v-1h6V4.6z M30.1,4.6
	h-6v-1h6V4.6z M20.1,4.6h-6v-1h6V4.6z M10.1,4.6h-6v-1h6V4.6z"/>
<path class="st8" d="M644.5,494.6h-6v-1h6V494.6z M634.5,494.6h-6v-1h6V494.6z M624.5,494.6h-6v-1h6V494.6z M614.5,494.6h-6v-1h6
	V494.6z M604.5,494.6h-6v-1h6V494.6z M594.5,494.6h-6v-1h6V494.6z M584.5,494.6h-6v-1h6V494.6z M574.5,494.6h-6v-1h6V494.6z
	 M564.5,494.6h-6v-1h6V494.6z M554.5,494.6h-6v-1h6V494.6z M544.5,494.6h-6v-1h6V494.6z M534.5,494.6h-6v-1h6V494.6z M524.5,494.6
	h-6v-1h6V494.6z M514.5,494.6h-6v-1h6V494.6z M504.5,494.6h-6v-1h6V494.6z M494.5,494.6h-6v-1h6V494.6z M484.5,494.6h-6v-1h6V494.6z
	 M474.5,494.6h-6v-1h6V494.6z M464.5,494.6h-6v-1h6V494.6z M454.5,494.6h-6v-1h6V494.6z M444.5,494.6h-6v-1h6V494.6z M434.5,494.6
	h-6v-1h6V494.6z M424.5,494.6h-6v-1h6V494.6z M414.5,494.6h-6v-1h6V494.6z M404.5,494.6h-6v-1h6V494.6z M394.5,494.6h-6v-1h6V494.6z
	 M384.5,494.6h-6v-1h6V494.6z M374.5,494.6h-6v-1h6V494.6z M364.5,494.6h-6v-1h6V494.6z M354.5,494.6h-6v-1h6V494.6z M344.5,494.6
	h-6v-1h6V494.6z M334.5,494.6h-6v-1h6V494.6z M324.5,494.6h-6v-1h6V494.6z M314.5,494.6h-6v-1h6V494.6z M304.5,494.6h-6v-1h6V494.6z
	 M294.5,494.6h-6v-1h6V494.6z M284.5,494.6h-6v-1h6V494.6z M274.5,494.6h-6v-1h6V494.6z M264.5,494.6h-6v-1h6V494.6z M254.5,494.6
	h-6v-1h6V494.6z M244.5,494.6h-6v-1h6V494.6z M234.5,494.6h-6v-1h6V494.6z M224.5,494.6h-6v-1h6V494.6z M214.5,494.6h-6v-1h6V494.6z
	 M204.5,494.6h-6v-1h6V494.6z M194.5,494.6h-6v-1h6V494.6z M184.5,494.6h-6v-1h6V494.6z M174.5,494.6h-6v-1h6V494.6z M164.5,494.6
	h-6v-1h6V494.6z M154.5,494.6h-6v-1h6V494.6z M146.1,493.1h-1v-6h1V493.1z M645.5,490.6h-1v-6h1V490.6z M146.1,483.1h-1v-6h1V483.1z
	 M645.5,480.6h-1v-6h1V480.6z M146.1,473.1h-1v-6h1V473.1z M645.5,470.6h-1v-6h1V470.6z M146.1,463.1h-1v-6h1V463.1z M645.5,460.6
	h-1v-6h1V460.6z M146.1,453.1h-1v-6h1V453.1z M645.5,450.6h-1v-6h1V450.6z M146.1,443.1h-1v-6h1V443.1z M645.5,440.6h-1v-6h1V440.6z
	 M146.1,433.1h-1v-6h1V433.1z M645.5,430.6h-1v-6h1V430.6z M146.1,423.1h-1v-6h1V423.1z M645.5,420.6h-1v-6h1V420.6z M146.1,413.1
	h-1v-6h1V413.1z M645.5,410.6h-1v-6h1V410.6z M146.1,403.1h-1v-6h1V403.1z M645.5,400.6h-1v-6h1V400.6z M146.1,393.1h-1v-6h1V393.1z
	 M645.5,390.6h-1v-6h1V390.6z M146.1,383.1h-1v-6h1V383.1z M645.5,380.6h-1v-6h1V380.6z M146.1,373.1h-1v-6h1V373.1z M645.5,370.6
	h-1v-6h1V370.6z M146.1,363.1h-1v-6h1V363.1z M645.5,360.6h-1v-6h1V360.6z M146.1,353.1h-1v-6h1V353.1z M645.5,350.6h-1v-6h1V350.6z
	 M146.1,343.1h-1v-6h1V343.1z M645.5,340.6h-1v-6h1V340.6z M146.1,333.1h-1v-6h1V333.1z M645.5,330.6h-1v-6h1V330.6z M146.1,323.1
	h-1v-6h1V323.1z M645.5,320.6h-1v-6h1V320.6z M146.1,313.1h-1v-6h1V313.1z M645.5,310.6h-1v-6h1V310.6z M146.1,303.1h-1v-6h1V303.1z
	 M645.5,300.6h-1v-6h1V300.6z M146.1,293.1h-1v-6h1V293.1z M645.5,290.6h-1v-6h1V290.6z M146.1,283.1h-1v-6h1V283.1z M645.5,280.6
	h-1v-6h1V280.6z M146.1,273.1h-1v-6h1V273.1z M645.5,270.6h-1v-6h1V270.6z M146.1,263.1h-1v-6h1V263.1z M645.5,260.6h-1v-6h1V260.6z
	 M146.1,253.1h-1v-6h1V253.1z M645.5,250.6h-1v-6h1V250.6z M146.1,243.1h-1v-6h1V243.1z M645.5,240.6h-1v-6h1V240.6z M146.1,233.1
	h-1v-6h1V233.1z M645.5,230.6h-1v-6h1V230.6z M146.1,223.1h-1v-6h1V223.1z M645.5,220.6h-1v-6h1V220.6z M146.1,213.1h-1v-6h1V213.1z
	 M645.5,210.6h-1v-6h1V210.6z M146.1,203.1h-1v-6h1V203.1z M645.5,200.6h-1v-6h1V200.6z M146.1,193.1h-1v-6h1V193.1z M645.5,190.6
	h-1v-6h1V190.6z M146.1,183.1h-1v-6h1V183.1z M645.5,180.6h-1v-6h1V180.6z M146.1,173.1h-1v-6h1V173.1z M645.5,170.6h-1v-6h1V170.6z
	 M146.1,163.1h-1v-6h1V163.1z M645.5,160.6h-1v-6h1V160.6z M146.1,153.1h-1v-6h1V153.1z M645.5,150.6h-1v-6h1V150.6z M146.1,143.1
	h-1v-6h1V143.1z M645.5,140.6h-1v-6h1V140.6z M146.1,133.1h-1v-6h1V133.1z M645.5,130.6h-1v-6h1V130.6z M146.1,123.1h-1v-6h1V123.1z
	 M645.5,120.6h-1v-6h1V120.6z M146.1,113.1h-1v-6h1V113.1z M645.5,110.6h-1v-6h1V110.6z M146.1,103.1h-1v-6h1V103.1z M645.5,100.6
	h-1v-6h1V100.6z M146.1,93.1h-1v-6h1V93.1z M645.5,90.6h-1v-6h1V90.6z M146.1,83.1h-1v-6h1V83.1z M645.5,80.6h-1v-6h1V80.6z
	 M146.1,73.1h-1v-6h1V73.1z M645.5,70.6h-1v-6h1V70.6z M146.1,63.1h-1v-6h1V63.1z M645.5,60.6h-1v-6h1V60.6z M146.1,53.1h-1v-6h1
	V53.1z M645.5,50.6h-1v-6h1V50.6z M146.1,43.1h-1v-6h1V43.1z M645.5,40.6h-1v-6h1V40.6z M146.1,33.1h-1v-6h1V33.1z M645.5,30.6h-1
	v-6h1V30.6z M146.1,23.1h-1v-6h1V23.1z M645.5,20.6h-1v-6h1V20.6z M146.1,13.1h-1v-6h1V13.1z M645.5,10.6h-1v-6h1V10.6z M641.6,4.6
	h-6v-1h6V4.6z M631.6,4.6h-6v-1h6V4.6z M621.6,4.6h-6v-1h6V4.6z M611.6,4.6h-6v-1h6V4.6z M601.6,4.6h-6v-1h6V4.6z M591.6,4.6h-6v-1
	h6V4.6z M581.6,4.6h-6v-1h6V4.6z M571.6,4.6h-6v-1h6V4.6z M561.6,4.6h-6v-1h6V4.6z M551.6,4.6h-6v-1h6V4.6z M541.6,4.6h-6v-1h6V4.6z
	 M531.6,4.6h-6v-1h6V4.6z M521.6,4.6h-6v-1h6V4.6z M511.6,4.6h-6v-1h6V4.6z M501.6,4.6h-6v-1h6V4.6z M491.6,4.6h-6v-1h6V4.6z
	 M481.6,4.6h-6v-1h6V4.6z M471.6,4.6h-6v-1h6V4.6z M461.6,4.6h-6v-1h6V4.6z M451.6,4.6h-6v-1h6V4.6z M441.6,4.6h-6v-1h6V4.6z
	 M431.6,4.6h-6v-1h6V4.6z M421.6,4.6h-6v-1h6V4.6z M411.6,4.6h-6v-1h6V4.6z M401.6,4.6h-6v-1h6V4.6z M391.6,4.6h-6v-1h6V4.6z
	 M381.6,4.6h-6v-1h6V4.6z M371.6,4.6h-6v-1h6V4.6z M361.6,4.6h-6v-1h6V4.6z M351.6,4.6h-6v-1h6V4.6z M341.6,4.6h-6v-1h6V4.6z
	 M331.6,4.6h-6v-1h6V4.6z M321.6,4.6h-6v-1h6V4.6z M311.6,4.6h-6v-1h6V4.6z M301.6,4.6h-6v-1h6V4.6z M291.6,4.6h-6v-1h6V4.6z
	 M281.6,4.6h-6v-1h6V4.6z M271.6,4.6h-6v-1h6V4.6z M261.6,4.6h-6v-1h6V4.6z M251.6,4.6h-6v-1h6V4.6z M241.6,4.6h-6v-1h6V4.6z
	 M231.6,4.6h-6v-1h6V4.6z M221.6,4.6h-6v-1h6V4.6z M211.6,4.6h-6v-1h6V4.6z M201.6,4.6h-6v-1h6V4.6z M191.6,4.6h-6v-1h6V4.6z
	 M181.6,4.6h-6v-1h6V4.6z M171.6,4.6h-6v-1h6V4.6z M161.6,4.6h-6v-1h6V4.6z M151.6,4.6h-6v-1h6V4.6z"/>
<path class="st8" d="M644.1,682.1h-6.5v-1h6v0.5h0.5V682.1z M633.6,682.1h-6v-1h6V682.1z M633.6,682.1h-6v-1h6V682.1z M623.6,682.1
	h-6v-1h6V682.1z M613.6,682.1h-6v-1h6V682.1z M603.6,682.1h-6v-1h6V682.1z M593.6,682.1h-6v-1h6V682.1z M583.6,682.1h-6v-1h6V682.1z
	 M573.6,682.1h-6v-1h6V682.1z M563.6,682.1h-6v-1h6V682.1z M553.6,682.1h-6v-1h6V682.1z M543.6,682.1h-6v-1h6V682.1z M533.6,682.1
	h-6v-1h6V682.1z M523.6,682.1h-6v-1h6V682.1z M513.6,682.1h-6v-1h6V682.1z M503.6,682.1h-6v-1h6V682.1z M493.6,682.1h-6v-1h6V682.1z
	 M483.6,682.1h-6v-1h6V682.1z M473.6,682.1h-6v-1h6V682.1z M463.6,682.1h-6v-1h6V682.1z M453.6,682.1h-6v-1h6V682.1z M443.6,682.1
	h-6v-1h6V682.1z M433.6,682.1h-6v-1h6V682.1z M423.6,682.1h-6v-1h6V682.1z M413.6,682.1h-6v-1h6V682.1z M403.6,682.1h-6v-1h6V682.1z
	 M393.6,682.1h-6v-1h6V682.1z M383.6,682.1h-6v-1h6V682.1z M373.6,682.1h-6v-1h6V682.1z M363.6,682.1h-6v-1h6V682.1z M353.6,682.1
	h-6v-1h6V682.1z M343.6,682.1h-6v-1h6V682.1z M333.6,682.1h-6v-1h6V682.1z M323.6,682.1h-6v-1h6V682.1z M313.6,682.1h-6v-1h6V682.1z
	 M303.6,682.1h-6v-1h6V682.1z M293.6,682.1h-6v-1h6V682.1z M283.6,682.1h-6v-1h6V682.1z M273.6,682.1h-6v-1h6V682.1z M263.6,682.1
	h-6v-1h6V682.1z M253.6,682.1h-6v-1h6V682.1z M243.6,682.1h-6v-1h6V682.1z M233.6,682.1h-6v-1h6V682.1z M223.6,682.1h-6v-1h6V682.1z
	 M213.6,682.1h-6v-1h6V682.1z M203.6,682.1h-6v-1h6V682.1z M193.6,682.1h-6v-1h6V682.1z M183.6,682.1h-6v-1h6V682.1z M173.6,682.1
	h-6v-1h6V682.1z M163.6,682.1h-6v-1h6V682.1z M153.6,682.1h-6v-1h6V682.1z M146.1,679.6h-1v-6h1V679.6z M644.1,677.6h-1v-6h1V677.6z
	 M146.1,669.6h-1v-6h1V669.6z M644.1,667.6h-1v-6h1V667.6z M146.1,659.6h-1v-6h1V659.6z M644.1,657.6h-1v-6h1V657.6z M146.1,649.6
	h-1v-6h1V649.6z M644.1,647.6h-1v-6h1V647.6z M146.1,639.6h-1v-6h1V639.6z M644.1,637.6h-1v-6h1V637.6z M146.1,629.6h-1v-6h1V629.6z
	 M644.1,627.6h-1v-6h1V627.6z M146.1,619.6h-1v-6h1V619.6z M644.1,617.6h-1v-6h1V617.6z M146.1,609.6h-1v-6h1V609.6z M644.1,607.6
	h-1v-6h1V607.6z M146.1,599.6h-1v-6h1V599.6z M644.1,597.6h-1v-6h1V597.6z M146.1,589.6h-1v-6h1V589.6z M644.1,587.6h-1v-6h1V587.6z
	 M146.1,579.6h-1v-6h1V579.6z M644.1,577.6h-1v-6h1V577.6z M146.1,569.6h-1v-6h1V569.6z M644.1,567.6h-1v-6h1V567.6z M146.1,559.6
	h-1v-6h1V559.6z M644.1,557.6h-1v-6h1V557.6z M146.1,549.6h-1v-6h1V549.6z M644.1,547.6h-1v-6h1V547.6z M146.1,539.6h-1v-6h1V539.6z
	 M644.1,537.6h-1v-6h1V537.6z M146.1,529.6h-1v-6h1V529.6z M644.1,527.6h-1v-6h1V527.6z M641.6,520.1h-6v-1h6V520.1z M631.6,520.1
	h-6v-1h6V520.1z M631.6,520.1h-6v-1h6V520.1z M621.6,520.1h-6v-1h6V520.1z M611.6,520.1h-6v-1h6V520.1z M601.6,520.1h-6v-1h6V520.1z
	 M591.6,520.1h-6v-1h6V520.1z M581.6,520.1h-6v-1h6V520.1z M571.6,520.1h-6v-1h6V520.1z M561.6,520.1h-6v-1h6V520.1z M551.6,520.1
	h-6v-1h6V520.1z M541.6,520.1h-6v-1h6V520.1z M531.6,520.1h-6v-1h6V520.1z M521.6,520.1h-6v-1h6V520.1z M511.6,520.1h-6v-1h6V520.1z
	 M501.6,520.1h-6v-1h6V520.1z M491.6,520.1h-6v-1h6V520.1z M481.6,520.1h-6v-1h6V520.1z M471.6,520.1h-6v-1h6V520.1z M461.6,520.1
	h-6v-1h6V520.1z M451.6,520.1h-6v-1h6V520.1z M441.6,520.1h-6v-1h6V520.1z M431.6,520.1h-6v-1h6V520.1z M421.6,520.1h-6v-1h6V520.1z
	 M411.6,520.1h-6v-1h6V520.1z M401.6,520.1h-6v-1h6V520.1z M391.6,520.1h-6v-1h6V520.1z M381.6,520.1h-6v-1h6V520.1z M371.6,520.1
	h-6v-1h6V520.1z M361.6,520.1h-6v-1h6V520.1z M351.6,520.1h-6v-1h6V520.1z M341.6,520.1h-6v-1h6V520.1z M331.6,520.1h-6v-1h6V520.1z
	 M321.6,520.1h-6v-1h6V520.1z M311.6,520.1h-6v-1h6V520.1z M301.6,520.1h-6v-1h6V520.1z M291.6,520.1h-6v-1h6V520.1z M281.6,520.1
	h-6v-1h6V520.1z M271.6,520.1h-6v-1h6V520.1z M261.6,520.1h-6v-1h6V520.1z M251.6,520.1h-6v-1h6V520.1z M241.6,520.1h-6v-1h6V520.1z
	 M231.6,520.1h-6v-1h6V520.1z M221.6,520.1h-6v-1h6V520.1z M211.6,520.1h-6v-1h6V520.1z M201.6,520.1h-6v-1h6V520.1z M191.6,520.1
	h-6v-1h6V520.1z M181.6,520.1h-6v-1h6V520.1z M171.6,520.1h-6v-1h6V520.1z M161.6,520.1h-6v-1h6V520.1z M151.6,520.1h-6v-0.5h-0.5
	V519h6.5V520.1z"/>
<g>
	<path class="st6" d="M34.5,27.4l-0.2-1c0.4,0,0.7,0.1,1.1,0.1c0.3,0,0.5-0.1,0.6-0.4V26v-3.4c-0.6,0.2-1.1,0.4-1.7,0.6l-0.2-1
		c0.7-0.2,1.3-0.4,2-0.6v-3.1h-1.8v-1H36v-2.6h1v2.6h1.2v1h-1.1v2.6l1.2-0.6v1c-0.4,0.2-0.8,0.4-1.2,0.6v4c0.1,0.6-0.3,1.1-0.9,1.2
		c-0.1,0-0.2,0-0.3,0L34.5,27.4z M42.4,20.6c-0.1,0.4-0.3,0.7-0.5,1.1h4.8v1h-1.5c-0.2,1-0.6,1.9-1.3,2.6c1,0.5,1.9,0.9,2.8,1.4
		l-0.5,0.8c-0.9-0.6-1.9-1.1-2.9-1.6c-1.3,0.8-2.8,1.4-4.4,1.6l-0.4-0.9c1.3-0.2,2.6-0.6,3.8-1.2c-0.8-0.4-1.8-0.8-2.8-1.2
		c0.4-0.6,0.7-1.1,1-1.6h-1.9v-1H41c0.2-0.4,0.4-0.8,0.5-1.2L42.4,20.6z M41.8,19.1h1.4c0.4-0.7,0.7-1.5,1-2.2l1,0.3
		c-0.3,0.7-0.6,1.3-0.9,1.9h2.3v1h-7.9v-1h2.1c-0.3-0.6-0.5-1.1-0.8-1.7l0.8-0.4C41.2,17.7,41.6,18.4,41.8,19.1z M43.2,15.9h3.1v0.9
		h-7.2v-0.9h3.1c-0.2-0.4-0.3-0.8-0.5-1.2l1-0.2C42.9,15,43,15.4,43.2,15.9L43.2,15.9z M41.5,22.6c-0.2,0.4-0.5,0.9-0.8,1.2
		c0.8,0.3,1.6,0.6,2.3,1c0.6-0.6,1.1-1.4,1.3-2.2H41.5z"/>
</g>
<g>
	<path class="st6" d="M51.5,15.2l0.8-0.5c1.5,1.2,2.6,2.9,3.2,4.7c1.3,3.4,3.1,5.7,5.3,7.1l-0.6,0.8c-2.3-1.4-4.1-3.9-5.6-7.6
		c-0.1-0.2-0.2-0.4-0.2-0.6c-0.8,3.4-2.9,6.3-5.8,8.2L48,26.4c3-2,5.1-5,5.8-8.5C53.3,16.8,52.5,15.9,51.5,15.2z"/>
</g>
<g>
	<path class="st6" d="M74.2,15.2v1H64.1V26h10.5v1H63.1V15.2H74.2z M69.7,20.4c0.8-1.1,1.5-2.3,2.1-3.5l0.9,0.5
		c-0.6,1.3-1.3,2.6-2.2,3.7c1.1,1,2.1,2,3,3l-0.9,0.8c-0.9-1.1-1.9-2.1-2.9-3c-1.2,1.3-2.6,2.3-4.3,3L64.8,24
		c1.5-0.6,2.9-1.6,4.1-2.8c-1.1-1-2.3-2-3.7-3l0.7-0.7C67.3,18.5,68.5,19.5,69.7,20.4z"/>
</g>
<g>
	<path class="st6" d="M76.8,16.1l3.1,8.8l0,0l3.2-8.8h1.3l-3.8,10h-1.4l-3.7-10C75.5,16.1,76.8,16.1,76.8,16.1z"/>
</g>
<g>
	<path class="st6" d="M89.5,16.1c2.3,0,3.4,1,3.4,2.9c0,2-1.2,3-3.5,3h-2.9v4.1h-1.1v-10H89.5z M86.5,21h2.9c0.6,0,1.3-0.1,1.8-0.5
		c0.4-0.4,0.6-0.9,0.6-1.5c0.1-0.6-0.2-1.1-0.6-1.5c-0.5-0.4-1.1-0.5-1.8-0.5h-2.9V21z"/>
</g>
<g>
	<path class="st6" d="M101.5,16.8c0.7,0.6,1.2,1.4,1.3,2.4h-1.1c-0.1-0.7-0.5-1.3-1.1-1.7c-0.6-0.4-1.3-0.6-2-0.6
		c-1-0.1-2,0.4-2.7,1.2C95.3,19,95,20,95,21.1c-0.1,1.1,0.2,2.1,0.9,3c0.7,0.8,1.7,1.2,2.7,1.2c1.6,0.1,3-1,3.2-2.6h1.1
		c-0.5,2.5-2.9,4.1-5.4,3.5c-1-0.2-1.8-0.7-2.5-1.4c-0.8-1-1.2-2.3-1.1-3.6c-0.1-1.3,0.3-2.6,1.2-3.7c0.9-1.1,2.2-1.6,3.6-1.5
		C99.7,15.9,100.7,16.2,101.5,16.8z"/>
</g>
<rect x="676" y="324.1" class="st3" width="150" height="50"/>
<path class="st4" d="M826.5,374.6h-151v-51h151V374.6z M676.5,373.6h149v-49h-149V373.6z"/>
<g>
	<path class="st6" d="M736.4,347.5l-0.7-0.7c0.5-1.6,0.7-3.2,0.7-4.8v-6.8h3.6v11.1c0.1,0.5-0.3,1-0.9,1.1c-0.1,0-0.2,0-0.3,0h-1
		l-0.2-0.9c0.3,0,0.6,0,0.9,0s0.5-0.2,0.5-0.6v-3.2h-1.7C737.3,344.4,737,346,736.4,347.5z M739,336.1h-1.7v2.4h1.7V336.1z
		 M737.3,341.8h1.7v-2.3h-1.7V341.8z M741.9,336.6c-0.2-0.5-0.4-0.9-0.7-1.3l0.9-0.3c0.3,0.5,0.6,1.1,0.7,1.6h0.7
		c0.2-0.7,0.3-1.3,0.4-2l1,0.1c-0.1,0.6-0.2,1.3-0.4,1.9h1.1c0.3-0.5,0.6-1.1,0.8-1.7l0.9,0.3c-0.2,0.5-0.5,0.9-0.8,1.4h1.2v0.8
		h-3.5c-0.1,0.4-0.3,0.8-0.5,1.1h4.4v0.9h-2.2c0.7,0.8,1.5,1.4,2.5,1.7L748,342c-0.6-0.3-1.1-0.6-1.6-0.9v0.1
		c-0.1,0.8-0.2,1.5-0.3,2h1.5c0,2.3-0.2,3.6-0.5,3.9c-0.5,0.3-1.1,0.5-1.7,0.4h-0.6l-0.2-0.9h0.9c0.3,0,0.7,0,1-0.2
		c0.3-0.8,0.4-1.6,0.3-2.4h-5.3c0.2-0.7,0.4-1.4,0.6-2.1l0.9,0.1c-0.1,0.4-0.2,0.8-0.3,1.2h2.6c0.2-0.5,0.3-1.1,0.3-1.6h-3.7v-0.5
		c-0.4,0.4-0.9,0.7-1.4,1l-0.5-0.8c0.8-0.5,1.6-1.1,2.2-1.9h-1.7v-0.9h2.3c0.2-0.4,0.4-0.7,0.5-1.1h-2.4v-0.8L741.9,336.6
		L741.9,336.6z M745.6,344.9v0.9h-5v-0.9H745.6z M746.1,340.7c-0.4-0.4-0.8-0.8-1.1-1.3h-1.8c-0.3,0.5-0.7,0.9-1.1,1.3
		C742.1,340.7,746.1,340.7,746.1,340.7z"/>
</g>
<g>
	<path class="st6" d="M752.5,338.9v6.2c0.5-0.4,0.9-0.8,1.4-1.4l0.3,1.1c-0.8,0.8-1.7,1.5-2.6,2.2l-0.4-0.9c0.2-0.2,0.3-0.4,0.3-0.6
		V340h-1.9v-1L752.5,338.9z M753.5,336.9l-0.7,0.7c-0.7-0.8-1.5-1.5-2.3-2.2l0.7-0.7C752,335.4,752.8,336.1,753.5,336.9L753.5,336.9
		z M755.8,340.1v-3.8H754v-1h6.4v4.3c-0.1,2,0.1,4,0.6,5.9c0.2,0.5,0.3,0.7,0.5,0.7s0.1-0.2,0.2-0.5c0.1-0.3,0.1-1,0.1-1.7l0.8,0.4
		c0,0.9-0.1,1.7-0.3,2.6c-0.1,0.3-0.3,0.4-0.5,0.4c-0.6-0.1-1.1-0.4-1.4-1c-0.7-1.2-1-3.4-1-6.7v-3.3h-2.6v3.9h1.9v1h-1.9v6.4h-1
		v-6.6h-2.1v-1L755.8,340.1L755.8,340.1z"/>
</g>
<g>
	<path class="st6" d="M778.8,336.1c0.8,0,1.6,0.2,2.2,0.7c0.5,0.5,0.8,1.1,0.8,1.9c0,0.5-0.1,1-0.5,1.5c-0.3,0.4-0.7,0.7-1.2,0.8
		c0.6,0.1,1.1,0.4,1.5,0.8c0.4,0.5,0.6,1,0.6,1.6c0.1,0.9-0.3,1.7-1,2.2c-0.7,0.4-1.6,0.6-2.4,0.6h-4.4v-10L778.8,336.1L778.8,336.1
		L778.8,336.1z M775.5,340.5h3c0.6,0,1.1-0.1,1.6-0.4c0.4-0.3,0.6-0.8,0.6-1.3s-0.2-1-0.5-1.3c-0.5-0.3-1.1-0.4-1.6-0.4h-3
		L775.5,340.5L775.5,340.5z M775.5,345.1h3.2c0.6,0,1.2-0.1,1.7-0.4s0.8-0.9,0.7-1.4c0-0.6-0.2-1.1-0.6-1.4
		c-0.5-0.3-1.1-0.5-1.8-0.5h-3.2L775.5,345.1L775.5,345.1z"/>
</g>
<g>
	<path class="st6" d="M789.1,339.5c0.5,0.6,0.7,1.3,0.6,2v4.6h-1v-1.2c-0.3,0.4-0.7,0.8-1.1,1c-0.6,0.3-1.2,0.5-1.8,0.5
		s-1.2-0.2-1.7-0.5c-0.4-0.4-0.7-0.9-0.7-1.5c0-0.8,0.3-1.5,1-1.9c0.8-0.4,1.6-0.7,2.5-0.6h1.7v-0.4c0-1.2-0.6-1.8-1.9-1.8
		c-0.5,0-0.9,0.1-1.3,0.3c-0.4,0.2-0.6,0.6-0.7,1l-1.1-0.1c0.1-0.7,0.5-1.3,1.1-1.7s1.4-0.5,2.1-0.5
		C787.7,338.6,788.5,338.9,789.1,339.5z M787,342.6c-1.6,0-2.4,0.6-2.4,1.6c0,0.3,0.1,0.6,0.4,0.8c0.3,0.2,0.7,0.3,1.1,0.3
		c0.7,0,1.3-0.2,1.8-0.7c0.5-0.4,0.8-0.9,0.8-1.5v-0.6L787,342.6z"/>
</g>
<g>
	<path class="st6" d="M797,339.5c0.5,0.6,0.7,1.3,0.6,2v4.6h-1.1v-1.2c-0.3,0.4-0.7,0.8-1.1,1c-0.6,0.3-1.2,0.5-1.8,0.5
		s-1.2-0.2-1.7-0.5c-0.4-0.4-0.7-0.9-0.7-1.5c0-0.8,0.3-1.5,1-1.9c0.8-0.4,1.6-0.7,2.5-0.6h1.7v-0.4c0-1.2-0.6-1.8-1.9-1.8
		c-0.5,0-0.9,0.1-1.3,0.3c-0.4,0.2-0.6,0.6-0.7,1l-1.1-0.1c0.1-0.7,0.5-1.3,1.1-1.7s1.4-0.5,2.1-0.5
		C795.5,338.6,796.3,338.9,797,339.5z M794.8,342.6c-1.6,0-2.4,0.6-2.4,1.6c0,0.3,0.1,0.6,0.4,0.8c0.3,0.2,0.7,0.3,1.1,0.3
		c0.7,0,1.3-0.2,1.8-0.7c0.5-0.4,0.8-0.9,0.8-1.5v-0.6L794.8,342.6z"/>
</g>
<g>
	<path class="st6" d="M805.5,336.7c0.7,0.6,1.1,1.5,1.2,2.4h-1.2c-0.1-0.6-0.4-1.2-0.8-1.6c-0.5-0.4-1.2-0.6-1.9-0.5
		c-0.6,0-1.2,0.1-1.7,0.4c-0.7,0.4-0.9,1.2-0.5,1.9c0.2,0.3,0.4,0.5,0.7,0.6c0.6,0.3,1.2,0.5,1.8,0.6c0.9,0.2,1.8,0.6,2.6,1
		s1.3,1.2,1.2,2.1c0,0.8-0.4,1.6-1,2.1c-0.8,0.5-1.8,0.8-2.8,0.7c-1,0.1-2-0.2-2.8-0.8c-0.8-0.7-1.3-1.7-1.3-2.8h1.1
		c0,0.7,0.4,1.4,0.9,1.9c0.6,0.4,1.3,0.6,2,0.6s1.4-0.1,2-0.5c0.5-0.2,0.8-0.7,0.8-1.3c0-0.6-0.4-1.2-1-1.5
		c-0.7-0.3-1.4-0.6-2.1-0.7c-0.8-0.2-1.6-0.5-2.3-0.8c-0.7-0.4-1.2-1.1-1.2-1.9s0.4-1.6,1.1-2c0.8-0.5,1.7-0.7,2.5-0.7
		C803.8,335.9,804.7,336.1,805.5,336.7z"/>
</g>
<g>
	<path class="st6" d="M738.2,356.8c0,2.6-0.6,5.2-1.9,7.5l-0.7-0.8c1.1-2.1,1.7-4.4,1.7-6.7v-4.2c3.3,0,6.5-0.4,9.7-1l0.5,0.9
		c-3,0.6-6.1,0.9-9.2,1v2h10.1v1h-10.1L738.2,356.8L738.2,356.8z M747.2,364.3h-1v-0.7h-5.7v0.7h-1v-5.9h7.7V364.3z M746.2,362.7
		v-3.3h-5.7v3.3H746.2z"/>
</g>
<g>
	<path class="st6" d="M750.1,356.1c1.2-0.4,2.8-2,4.6-4.6l1,0.4c-1.1,1.6-2.3,3-3.8,4.3c2.7-0.1,5.2-0.3,7.7-0.5
		c-0.5-0.7-1.1-1.4-1.6-2.1l0.9-0.4c1.2,1.5,2.4,3,3.4,4.6l-1,0.5c-0.3-0.6-0.7-1.1-1-1.7c-3,0.3-6.2,0.5-9.9,0.6L750.1,356.1z
		 M760.7,364.3h-1v-0.7h-7.3v0.7h-1v-5.8h9.4L760.7,364.3z M759.7,362.7v-3.2h-7.3v3.2H759.7z"/>
</g>
<g>
	<path class="st6" d="M774.8,362.9h1.5v0.9h-12.7v-0.9h1.6V359h9.6L774.8,362.9L774.8,362.9z M765.6,352.1v5.7h-1v-5.7H765.6z
		 M768,362.9v-3h-1.9v3H768z M768.5,351.4v6.9h-1v-6.9H768.5z M771,362.9v-3h-2v3H771z M769.8,356.9l-0.6-0.8c1.1-1.4,1.8-3.1,2-4.8
		l1,0.2c-0.1,0.6-0.2,1.1-0.4,1.6h4.2v1h-4.5C771.1,355.2,770.5,356.1,769.8,356.9L769.8,356.9z M773.9,362.9v-3H772v3H773.9z
		 M774.7,357.5l-0.8,0.6c-0.5-0.9-1.1-1.8-1.7-2.6l0.8-0.5C773.6,355.8,774.1,356.7,774.7,357.5L774.7,357.5z"/>
</g>
<g>
	<path class="st6" d="M778,364.2l-0.2-1c0.4,0,0.7,0.1,1.1,0.1c0.3,0,0.5-0.1,0.5-0.4c0-0.1,0-0.1,0-0.2v-3.5
		c-0.6,0.2-1.1,0.4-1.7,0.6l-0.2-1c0.7-0.2,1.3-0.4,1.9-0.6v-3.1h-1.7v-1h1.7v-2.7h1v2.7h1.2v1h-1.1v2.7c0.4-0.2,0.8-0.4,1.2-0.6v1
		l-1.2,0.6v4.1c0.1,0.6-0.3,1.1-0.9,1.2c-0.1,0-0.2,0-0.3,0L778,364.2z M782.4,359.8v-0.9h7.5v0.9h-3.2v3.1h3.7v1h-8.6v-1h3.8v-3.1
		H782.4z M786.7,353h3.3v2.6h-0.9v-1.7h-5.9v1.7h-1V353h3.5c-0.2-0.5-0.4-1-0.7-1.5l1-0.2C786.3,351.9,786.5,352.4,786.7,353
		L786.7,353z M785.6,355.1c-0.5,1.3-1.4,2.4-2.5,3.2l-0.7-0.6c1-0.7,1.9-1.7,2.4-2.9L785.6,355.1z M789.8,357.7l-0.9,0.5
		c-0.6-1.1-1.4-2.1-2.3-3.1l0.8-0.4C788.3,355.6,789.1,356.7,789.8,357.7L789.8,357.7z"/>
</g>
<rect x="167.2" y="424.4" class="st3" width="145" height="50"/>
<path class="st4" d="M312.7,474.9h-146v-51h146V474.9L312.7,474.9z M167.7,473.9h144v-49h-144L167.7,473.9L167.7,473.9z"/>
<g>
	<path class="st6" d="M215.6,449.6l-0.9-0.2c0.5-1.5,0.8-3.1,0.9-4.7l0.9,0.1c0,0.6-0.1,1.2-0.2,1.8h1v-2.9h1v2.9h1.2v1h-1.2v3.4
		c0.4-0.2,0.8-0.4,1.1-0.6v1c-0.4,0.2-0.7,0.4-1.1,0.6v4.6h-1v-4.2c-0.7,0.3-1.4,0.5-2.2,0.8l-0.2-1c0.8-0.2,1.6-0.4,2.4-0.8v-3.8
		h-1.1C216,448.3,215.8,449,215.6,449.6z M222.2,443.9c-0.1,0.7-0.3,1.4-0.5,2h5.4c0,4.7-0.1,7.6-0.2,8.7c-0.1,1.1-1,1.9-2.1,1.9
		h-0.1h-1.1l-0.2-0.9c0.4,0,0.8,0.1,1.1,0.1c0.7,0.1,1.4-0.5,1.5-1.2v-0.1c0.1-0.8,0.1-3.2,0.2-7.3h-1c-0.2,1.9-0.6,3.8-1.3,5.5
		c-0.7,1.5-1.6,2.8-2.9,3.9l-0.6-0.8c1.1-1,2-2.2,2.6-3.5c0.6-1.7,1-3.4,1.2-5.1h-1.1c-0.6,3.1-1.6,5.3-3.2,6.6l-0.7-0.8
		c1.6-1.6,2.7-3.7,3-5.9h-1c-0.3,0.8-0.8,1.5-1.3,2.2l-0.7-0.6c1-1.4,1.7-3.1,1.9-4.8L222.2,443.9z"/>
</g>
<g>
	<path class="st6" d="M230.6,448.9v-3.3h-1.7v-1h4.5v1h-1.7v3.3h1.5v1h-1.5v3.2c0.5-0.2,1-0.4,1.5-0.6v1c-1.4,0.6-2.7,1-4.2,1.3
		l-0.2-1c0.6-0.1,1.2-0.2,1.8-0.4v-3.5h-1.5v-1H230.6z M240.9,444.2v6.5H238v1.6h3.1v1H238v1.8h3.7v1h-8.4v-1h3.8v-1.8h-3.2v-1h3.2
		v-1.6h-2.9v-6.5H240.9z M237,447v-1.9h-2v1.9H237z M237,447.9h-2v1.9h2V447.9z M238,447h2v-1.9h-2V447z M239.9,447.9h-2v1.9h2
		V447.9z"/>
</g>
<g>
	<path class="st6" d="M245.1,446.4v-2.7h1v2.7h1.7v1h-1.7v0.7c0.6,0.7,1.3,1.4,2,2.2l-0.6,0.9c-0.5-0.9-1-1.6-1.4-2.1v7.4h-1v-7.1
		c-0.5,1.3-1.1,2.6-1.9,3.8l-0.4-1.1c1.1-1.4,1.9-3,2.3-4.7h-2v-1L245.1,446.4L245.1,446.4z M248.5,453c0.2-1.1,0.3-2.3,0.3-3.5
		v-5.3h4.5v10.6c0,0.2,0.1,0.4,0.3,0.4h0.5c0.1,0,0.3,0,0.4-0.1c0.1-0.1,0.2-0.2,0.2-0.4c0.1-0.8,0.1-1.6,0.1-2.4l0.9,0.3
		c0,0.8,0,1.5-0.1,2.3c0,0.4-0.2,0.7-0.4,1c-0.3,0.2-0.7,0.3-1,0.2h-0.6c-0.9,0-1.3-0.4-1.3-1.2v-9.7h-2.6v4.4
		c0,1.3-0.1,2.6-0.4,3.9c-0.2,1.1-0.7,2.2-1.3,3.1l-0.8-0.7C247.8,455,248.2,454,248.5,453z"/>
</g>
<g>
	<path class="st6" d="M262.7,443.6l-5,12.9h-1l5-12.9H262.7z"/>
</g>
<g>
	<path class="st6" d="M276.5,448.4v1h-6.7c-0.9,2-2,3.8-3.4,5.5c2.5-0.1,5-0.4,7.5-0.7c-0.5-0.9-1.1-1.8-1.7-2.8l0.8-0.5
		c1.1,1.6,2.1,3.3,3,5.1l-0.9,0.6c-0.2-0.5-0.5-1-0.7-1.5c-2.8,0.4-5.9,0.6-9.3,0.9l-0.3-1c0.1,0,0.2-0.1,0.2-0.1
		c0.9-0.7,2.1-2.5,3.6-5.5h-4.7v-1H276.5z M275.3,444.5v1h-10v-1H275.3z"/>
</g>
<g>
	<path class="st6" d="M278.5,447v-1h5.3c-0.2-0.7-0.5-1.4-0.9-2.1l1-0.3c0.3,0.7,0.6,1.4,0.8,2.2l-0.5,0.2h5.8v1h-5.3v3.3h4.5v0.9
		h-4.5v3.8h5.7v1H278v-1h5.7v-3.8h-4.5v-0.9h4.5V447H278.5L278.5,447z"/>
</g>
<g>
	<path class="st6" d="M294.1,446.4v-2.7h1v2.7h1.7v1h-1.7v0.7c0.6,0.7,1.3,1.4,2,2.2l-0.6,0.9c-0.5-0.9-1-1.6-1.4-2.1v7.4h-1v-7.1
		c-0.5,1.3-1.1,2.6-1.9,3.8l-0.4-1.1c1.1-1.4,1.9-3,2.3-4.7h-2v-1L294.1,446.4L294.1,446.4z M297.5,453c0.2-1.1,0.3-2.3,0.3-3.5
		v-5.3h4.5v10.6c0,0.2,0.1,0.4,0.3,0.4h0.5c0.1,0,0.3,0,0.4-0.1s0.2-0.2,0.2-0.4c0.1-0.8,0.1-1.6,0.1-2.4l0.9,0.3
		c0,0.8,0,1.5-0.1,2.3c0,0.4-0.2,0.7-0.4,1c-0.3,0.2-0.7,0.3-1,0.2h-0.6c-0.9,0-1.3-0.4-1.3-1.2v-9.7h-2.6v4.4
		c0,1.3-0.1,2.6-0.4,3.9c-0.2,1.1-0.7,2.2-1.3,3.1l-0.8-0.7C296.8,455,297.2,454,297.5,453z"/>
</g>
<g>
	<g>
		<path class="st6" d="M257.8,15.1v1.4h-9.9v9.1h10.3V27h-11.7V15.1H257.8z M253.4,20.1c0.7-1,1.4-2.1,1.8-3.2l1.3,0.7
			c-0.5,1.2-1.2,2.4-2,3.5c1,0.9,1.9,1.8,2.7,2.7l-1.1,1.1c-0.8-1-1.6-1.9-2.5-2.7c-1.1,1.2-2.5,2.1-4,2.8l-1-1.3
			c1.4-0.6,2.7-1.4,3.8-2.5c-1.1-0.9-2.2-1.9-3.5-2.9l1.1-1C251.2,18.3,252.3,19.2,253.4,20.1z"/>
	</g>
	<g>
		<path class="st6" d="M261.1,18.2v-3.5h1.4v3.5h1.5v1.4h-1.5v4.1c0.6-0.2,1.2-0.5,1.7-0.7v1.5c-1.4,0.6-2.9,1.2-4.4,1.6l-0.4-1.5
			c0.5-0.1,1.1-0.2,1.6-0.4v-4.6h-1.4v-1.4C259.6,18.2,261.1,18.2,261.1,18.2z M264.1,27.6l-0.9-1.2c1.7-0.9,2.9-2.5,3.4-4.4H264
			v-1.4h2.9c0.1-0.6,0.1-1.2,0.1-1.8v-0.9h-2.4v-1.4h2.4v-2h1.4v2h3v4.1h1.1V22h-3.7c0.8,1.8,2.1,3.3,3.8,4.4l-1,1.2
			c-1.7-1.2-3-2.8-3.8-4.7C267.2,24.9,265.9,26.6,264.1,27.6L264.1,27.6z M268.4,18.5c0,0.7,0,1.5-0.1,2.2h1.7V18h-1.6V18.5
			L268.4,18.5z"/>
	</g>
	<g>
		<path class="st6" d="M276.3,14.9c-0.1,0.4-0.2,0.8-0.2,1.1h1.8v1.4h-2.2c-0.2,0.5-0.4,1-0.5,1.5h2.6v1.3h-1v1.3h1.4v1.3h-1.4v2.6
			c0.3-0.2,0.6-0.4,0.9-0.7l0.2,1.3c-0.8,0.5-1.6,0.9-2.4,1.2L275,26c0.2-0.1,0.4-0.3,0.4-0.5v-2.7H274v-1.3h1.4v-1.3h-0.5v-0.7
			l-0.2,0.4l-1.1-0.7c0.7-1.4,1.2-3,1.4-4.6L276.3,14.9z M286.7,25.9l-0.4,1.4h-2H283c-0.6,0-1.1-0.1-1.7-0.2
			c-0.5-0.2-0.9-0.4-1.2-0.8c-0.1-0.2-0.3-0.3-0.5-0.3s-0.5,0.5-1.1,1.6l-0.8-1.1c0.4-0.6,0.8-1.2,1.3-1.6v-4.4h-0.9v-1.3h2.3V25
			c0.3,0.3,0.6,0.6,1,0.8c0.5,0.2,0.9,0.2,1.4,0.3h1.6C285.2,26,286,26,286.7,25.9L286.7,25.9z M280.5,17.1l-1.1,0.8
			c-0.4-0.8-0.9-1.6-1.4-2.3l1.1-0.7C279.6,15.6,280.1,16.3,280.5,17.1z M283.4,22.3V21h-2.1l-0.3-1.2c0.5-0.8,0.8-1.6,1.1-2.5h-1.2
			V16h1.6c0.1-0.5,0.2-0.9,0.4-1.4l1.3,0.3c-0.1,0.4-0.2,0.8-0.3,1.1h2.5v1.3h-2.8c-0.3,0.8-0.6,1.6-1,2.4h0.9V18h1.3v1.7h1.4V21
			h-1.4v1.3h1.8v1.3h-1.8v2h-1.3v-2h-2.4v-1.3H283.4z"/>
	</g>
	<g>
		<path class="st6" d="M294.5,27.3c-0.8,0-1.5-0.1-2.2-0.2c-0.6-0.2-1.1-0.5-1.5-1c-0.2-0.2-0.4-0.4-0.5-0.4s-0.8,0.6-1.5,1.9
			l-1.1-1c0.4-0.8,1.1-1.6,1.8-2.1v-3.9h-1.9v-1.3h3.2v5.3l0.1,0.1c0.3,0.3,0.6,0.6,1,0.8c0.3,0.1,0.5,0.2,0.8,0.3l-0.7-1.2
			c1-0.2,2-0.6,3-1c-0.4-0.4-0.8-0.8-1.3-1.2l0.9-0.9c0.5,0.4,1,0.9,1.5,1.4c0.7-0.5,1.3-1.1,1.8-1.9h-3.5c-0.7,0.6-1.4,1.2-2.2,1.7
			l-0.9-1.1c1.2-0.6,2.3-1.5,3.1-2.6h-2.5v-3.9h7.8v4.1h-4.6l0.8,0.2l-0.4,0.6h3.8v1.1c-0.7,2.3-2.9,3.9-6.6,4.8
			c0.3,0,0.7,0.1,1,0.1c0.8,0,1.8,0,2.8,0h2.1l1.6-0.1l-0.4,1.4h-3.2L294.5,27.3L294.5,27.3z M291.4,16.9l-1,1
			c-0.7-0.8-1.5-1.6-2.3-2.3l1-0.9C289.9,15.4,290.7,16.1,291.4,16.9L291.4,16.9z M294.6,16.3h-1v1.6h1V16.3z M296.6,16.3h-1v1.6h1
			V16.3z M298.8,16.3h-1v1.6h1V16.3z"/>
	</g>
	<g>
		<path class="st6" d="M305.7,18.5v1.9h1.4v1.3h-1.4v1.5l1.6-0.3v1.3c-0.5,0.1-1,0.2-1.6,0.4v3h-1.4v-2.7c-0.8,0.1-1.6,0.2-2.4,0.4
			l-0.2-1.4c0.9-0.1,1.8-0.2,2.6-0.4v-1.7h-2.1l-0.3-1.3c0.4-0.9,0.7-1.7,0.9-2.7h-1v-1.4h1.3c0.1-0.6,0.2-1.2,0.4-1.8l1.4,0.2
			c-0.1,0.6-0.2,1.1-0.3,1.6h2.8v1.4h-3.1c-0.2,0.9-0.5,1.8-0.9,2.6h1v-1.9L305.7,18.5L305.7,18.5z M307.1,20.1v-1.3h7.4v1.3h-0.9
			v4.5l1.1-0.2v1.2l-1.1,0.2v1.7h-1.4v-1.4c-1.6,0.2-3.3,0.4-5.2,0.6l-0.2-1.3l1.2-0.1v-5.2L307.1,20.1L307.1,20.1z M313.8,15v3.2
			H308V15H313.8z M312.4,16.2h-3v1h3V16.2z M309.4,20.1v0.8h2.8v-0.8H309.4z M312.2,23v-0.9h-2.8V23H312.2z M312.2,24.8v-0.7h-2.8v1
			L312.2,24.8z"/>
	</g>
	<g>
		<path class="st6" d="M318.5,19.9c0.1,2.6-0.5,5.3-1.7,7.6l-1.1-1c1-2.1,1.4-4.4,1.3-6.7V15h10.6v3.9h-9.2L318.5,19.9z M318.5,16.4
			v1.2h7.7v-1.2H318.5z M328.2,22.1v1.3h-5.3c-0.6,0.9-1.2,1.7-1.9,2.5c1.5-0.1,3-0.3,4.5-0.5c-0.3-0.4-0.6-0.7-0.9-1.1l1.1-0.7
			c0.9,1,1.8,2,2.5,3.1l-1.2,0.8c-0.2-0.3-0.4-0.7-0.7-1c-2.2,0.3-4.6,0.5-7.1,0.7l-0.3-1.2c0.1,0,0.2-0.1,0.3-0.1
			c0.9-0.7,1.6-1.5,2.1-2.5h-2.7v-1.3L328.2,22.1L328.2,22.1z M327.3,19.8v1.3h-7.7v-1.3H327.3z"/>
	</g>
	<g>
		<path class="st6" d="M331,16.1l2.8,8.1l0,0l2.8-8.1h1.8l-3.6,10h-2l-3.6-10H331z"/>
	</g>
	<g>
		<path class="st6" d="M343.5,16.1c2.4,0,3.6,1,3.6,3.1s-1.2,3.1-3.7,3.1h-2.5v3.8h-1.6v-10H343.5L343.5,16.1z M340.9,20.9h2.4
			c0.6,0,1.1-0.1,1.6-0.4c0.4-0.3,0.5-0.8,0.5-1.3s-0.2-1-0.5-1.3c-0.5-0.3-1-0.4-1.6-0.4h-2.4V20.9z"/>
	</g>
	<g>
		<path class="st6" d="M355.7,16.8c0.7,0.6,1.2,1.5,1.3,2.4h-1.6c-0.1-0.6-0.5-1.1-0.9-1.4c-0.5-0.3-1.1-0.5-1.7-0.4
			c-0.9-0.1-1.8,0.3-2.4,1.1c-0.5,0.8-0.8,1.7-0.7,2.7c-0.1,1,0.2,1.9,0.7,2.7c1.1,1.1,2.8,1.3,4.2,0.5c0.5-0.4,0.9-1,1-1.7h1.6
			c-0.2,1.1-0.7,2.1-1.6,2.8c-0.8,0.6-1.8,0.9-2.8,0.9c-1.4,0.1-2.8-0.5-3.7-1.6c-0.8-1.1-1.1-2.3-1-3.6c-0.1-1.3,0.3-2.6,1.1-3.6
			c0.9-1.1,2.3-1.7,3.7-1.6C353.9,15.9,354.9,16.2,355.7,16.8z"/>
	</g>
</g>
<g>
	<rect x="234.1" y="13.1" class="st7" width="1" height="18"/>
</g>
<g>
	<g>
		<g>
			<path class="st9" d="M179.3,20.3c-1.1-1.1-2.6-1.7-4.1-1.7c-1.3,0-2.6,0.5-3.6,1.3c-0.5,0.4-0.9,0.8-1.5,1.4l-9,8.7
				c0.5,0.1,1.1,0.1,1.6,0.1h10.9c0.8,0,1.4,0,2,0c1.4-0.1,2.7-0.6,3.6-1.6C181.5,26.3,181.6,22.6,179.3,20.3
				C179.4,20.3,179.3,20.3,179.3,20.3z M177.7,26.8c-0.7,0.6-1.6,1-2.5,1c-0.6,0-1.3,0-1.6,0h-7l5-4.9c0.2-0.2,0.8-0.7,1.2-1.1
				c0.7-0.7,1.5-1,2.5-1c1.9,0,3.5,1.6,3.5,3.5C178.7,25.3,178.3,26.2,177.7,26.8L177.7,26.8z"/>
		</g>
		<g>
			<path class="st10" d="M165.3,19.7c-1-0.8-2.2-1.2-3.5-1.2c-3.2,0-5.8,2.6-5.7,5.8c0,1.5,0.6,3,1.7,4.1c0.9,0.9,2,1.4,3.2,1.6
				l2.2-2.2h-1.3c-0.9,0-1.8-0.4-2.5-1c-1.4-1.4-1.4-3.6,0-5c0.7-0.7,1.5-1,2.5-1c0.9,0,1.7,0.4,2.4,1c0.5,0.4,1.5,1.3,1.9,1.7
				l1.6-1.6C167,21.2,166,20.2,165.3,19.7z"/>
		</g>
		<g>
			<path class="st11" d="M175.8,17.2c-1.4-4-5.8-6.1-9.9-4.7c-2.7,0.9-4.6,3.3-5,6.1c0.3-0.1,0.7-0.1,1-0.1c0.4,0,0.9,0,1.3,0.1l0,0
				c0.6-3,3.5-4.9,6.5-4.2c1.7,0.4,3.1,1.5,3.9,3.1 M173.6,17.5c0.7-0.2,1.4-0.3,2.2-0.2c0.1,0.1,0.1,0,0.1-0.1L173.6,17.5z"/>
		</g>
	</g>
	<g>
		<g>
			<path d="M209.4,15.1h-7.3v1.1h2.2v3.9h-2.5v1h2.5v6.5h1.2v-6.5h2.8v6.4h2.2v-1h-1L209.4,15.1z M205.4,20v-3.8h2.8v3.9L205.4,20z"
				/>
		</g>
		<g>
			<rect x="189" y="24.7" width="5.8" height="1.1"/>
		</g>
		<g>
			<path d="M185.1,22.7c0,1.6-0.1,3.2-0.5,4.7c0,0.1,0,0.1,0.1,0.1h1.1c0.3-1.4,0.4-2.9,0.4-4.3h1.5v3.3h-1c-0.1,0-0.1,0-0.1,0.1
				l0.3,1h1.9V15.2h-3.6L185.1,22.7z M186.1,22.2v-2.5h1.5v2.5H186.1z M187.6,16.2v2.5h-1.5v-2.5H187.6z"/>
		</g>
		<g>
			<path d="M195.2,19.5h1.4v-1h-4.1c0.1-0.3,0.2-0.7,0.3-1h3.6v-1h-1l0.4-1.3c0-0.1,0-0.1-0.1-0.1h-0.9l-0.4,1.4h-1.3
				c0.1-0.6,0.2-1.2,0.3-1.9c0-0.1,0-0.1-0.1-0.1h-1c-0.1,0.7-0.2,1.4-0.4,1.9h-0.6l-0.5-1.4h-0.9c0,0-0.1,0-0.1,0.1l0.4,1.3h-1v1
				h2.3c-0.1,0.3-0.2,0.7-0.4,1h-2.2v1h1.7c-0.4,0.6-1,1.2-1.6,1.6v1c0,0.1,0,0.1,0.2,0c0.3-0.2,0.7-0.4,1-0.6h4v1.4h-3.1v-0.9
				c0,0,0-0.1-0.1-0.1h-1l-0.1,1.8c0,0,0,0.1,0.1,0.1h5.4v2.6H193c-0.1,0-0.1,0-0.1,0.1l0.3,1h3.4v-4.6h-1.4v-1.7
				c0.4,0.4,0.9,0.8,1.4,1.1c0.2,0.1,0.2,0,0.2,0v-1.1C196.2,20.7,195.6,20.1,195.2,19.5z M193.9,19.5c0.2,0.4,0.5,0.8,0.8,1.1h-3.5
				c0.3-0.3,0.6-0.7,0.8-1.1H193.9z"/>
		</g>
		<g>
			<path d="M202.8,23.9l-2,1.5v-6.9h-2.7v1.2h1.6v6.6l-0.6,0.5l0.6,0.9l3.2-2.4L202.8,23.9C202.8,24,202.8,23.9,202.8,23.9z"/>
		</g>
		<g>
			<path d="M199.8,17.5h1.3c0,0,0.1,0,0.1-0.1l0,0l-1.6-2.5h-1.3h-0.1c0,0,0,0,0,0.1L199.8,17.5z"/>
		</g>
		<g>
			<rect x="212.9" y="15.4" width="9.2" height="1.2"/>
		</g>
		<g>
			<path d="M216.2,21h7.2v-1.2h-11.8V21h3.3l-2.4,6.3v0.1l0,0h10.2c0,0,0.1,0,0.1-0.1l0,0l-1.5-4H220c0,0-0.1,0-0.1,0.1l0,0l1.1,2.8
				h-6.8L216.2,21z"/>
		</g>
	</g>
</g>
<g>
	<g>
		<path class="st6" d="M247.3,533.7v-1.1h1.5v1.1h4.6v-1.1h1.5v1.1h2.3v1.4h-2.3v5.9h2.6v1.4h-12.7V541h2.6v-5.9h-2.3v-1.4
			L247.3,533.7L247.3,533.7z M250,543.4c-1.3,0.9-2.7,1.6-4.1,2.2l-0.9-1.2c1.4-0.5,2.8-1.1,4-1.9L250,543.4z M253.4,536.2v-1.1
			h-4.6v1.1H253.4z M253.4,538.6v-1.1h-4.6v1.1H253.4z M253.4,541v-1.2h-4.6v1.2H253.4z M257.3,544.3l-0.8,1.3
			c-1.3-0.8-2.7-1.4-4.1-1.9l0.7-1.1C254.5,543,255.9,543.6,257.3,544.3L257.3,544.3z"/>
	</g>
	<g>
		<path class="st6" d="M262.8,533.1c-0.3,1-0.7,2-1.2,2.9v9.6h-1.4v-7.3c-0.4,0.5-0.8,0.9-1.2,1.4l-0.5-1.5c1.4-1.7,2.4-3.6,3-5.7
			L262.8,533.1z M264.8,545.3c-1.2,0-1.8-0.6-1.8-1.8v-5.1l-1.1,0.3v-1.5l1.1-0.3v-3h1.5v2.5l1.6-0.5v-3.3h1.5v2.9l3-1
			c0.1,1.9,0,3.8-0.2,5.7c-0.1,0.7-0.8,1-1.9,1h-0.1l-0.4-1.4h0.9c0.1,0,0.2-0.2,0.3-0.5s0.1-1.2,0.1-2.9l-1.6,0.5v5.5h-1.5v-5.1
			l-1.6,0.5v5.3c0,0.3,0.2,0.6,0.5,0.6h0.1h4.1c0.2,0,0.5-0.1,0.6-0.3c0.2-0.6,0.3-1.3,0.2-2l1.4,0.5c0,0.9-0.2,1.8-0.5,2.7
			c-0.4,0.3-0.9,0.5-1.5,0.5L264.8,545.3z"/>
	</g>
	<g>
		<path class="st6" d="M273.8,545.6l-1.1-1c0.6-1.4,0.9-3,0.9-4.6v-6.9h4.5v11c0,1-0.5,1.5-1.3,1.5h-1.2l-0.4-1.3
			c0.4,0,0.7,0.1,1.1,0.1s0.4-0.2,0.4-0.7V541h-1.9C274.8,542.6,274.4,544.1,273.8,545.6z M276.7,534.4h-1.8v2h1.8V534.4z
			 M274.9,539.6h1.8v-1.9h-1.8V539.6z M280.2,545.6h-1.4v-12.5h6c0,1.2,0,2.5-0.3,3.7c-0.2,0.6-0.7,0.9-1.6,0.9h-1.2l-0.4-1.2h0.9
			c0.2,0,0.4,0,0.6-0.1s0.3-0.2,0.3-0.3c0.1-0.5,0.2-1.1,0.1-1.7H280v3.8h4.7v1.2c-0.2,1.2-0.6,2.4-1.2,3.4c0.6,0.5,1.2,1,1.9,1.4
			l-0.7,1.2c-0.7-0.4-1.4-0.9-2-1.5c-0.6,0.6-1.3,1.1-2,1.5l-0.7-1.1L280.2,545.6z M280.2,544.4c0.6-0.4,1.2-0.8,1.7-1.4
			c-0.8-1-1.3-2.2-1.6-3.5h-0.1V544.4L280.2,544.4z M282.8,541.8c0.4-0.7,0.7-1.5,0.9-2.3h-2.1C281.9,540.3,282.3,541.1,282.8,541.8
			L282.8,541.8z"/>
	</g>
	<g>
		<path class="st6" d="M292.1,532.8c-0.1,0.3-0.3,0.6-0.4,0.9h6v1.2c-0.9,1-1.9,1.8-3,2.4c1.6,0.5,3.2,0.9,4.9,1l-0.7,1.4
			c-2-0.2-4-0.7-5.9-1.5c-1.9,0.8-3.8,1.3-5.8,1.6l-0.7-1.4c1.7-0.2,3.3-0.6,4.9-1.1c-0.6-0.4-1.2-0.8-1.7-1.2
			c-0.5,0.4-1,0.7-1.5,1.1l-0.9-1.2c1.4-0.7,2.6-1.9,3.3-3.4L292.1,532.8z M293.5,538.9c0,0.5,0,0.9-0.1,1.4h4.8
			c0,2.5-0.2,4-0.6,4.5c-0.5,0.6-1.3,0.8-2.1,0.7c-0.5,0-1.1,0-1.8-0.1l-0.4-1.3l1.8,0.1c0.7,0,1.1-0.2,1.2-0.4
			c0.3-0.7,0.4-1.4,0.3-2.2h-3.7c-0.1,0.3-0.2,0.6-0.4,0.9c-0.7,1.2-2.3,2.3-4.9,3.1l-1-1.2c2.3-0.7,3.8-1.5,4.4-2.4
			c0.1-0.2,0.2-0.3,0.3-0.5h-3.7v-1.3h4.3c0.1-0.4,0.1-0.9,0.1-1.4L293.5,538.9z M295.5,535h-4.7l0,0c0.7,0.6,1.5,1.1,2.4,1.5
			C293.9,536.1,294.8,535.6,295.5,535L295.5,535z"/>
	</g>
</g>
<g>
	<rect x="233.1" y="531.1" class="st7" width="1" height="18"/>
</g>
<g>
	<g>
		<g>
			<path class="st9" d="M178.3,538.3c-1.1-1.1-2.6-1.7-4.1-1.7c-1.3,0-2.6,0.5-3.6,1.3c-0.5,0.4-0.9,0.8-1.5,1.4l-9,8.7
				c0.5,0.1,1.1,0.1,1.6,0.1h10.9c0.8,0,1.4,0,2,0c1.4-0.1,2.7-0.6,3.6-1.6C180.5,544.3,180.6,540.6,178.3,538.3
				C178.4,538.3,178.3,538.3,178.3,538.3z M176.7,544.8c-0.7,0.6-1.6,1-2.5,1c-0.6,0-1.3,0-1.6,0h-7l5-4.8c0.2-0.2,0.8-0.7,1.2-1.1
				c0.7-0.7,1.5-1,2.5-1c1.9,0,3.5,1.6,3.5,3.5C177.7,543.3,177.3,544.2,176.7,544.8L176.7,544.8z"/>
		</g>
		<g>
			<path class="st10" d="M164.3,537.7c-1-0.8-2.2-1.2-3.5-1.2c-3.2,0-5.8,2.6-5.7,5.8c0,1.5,0.6,3,1.7,4.1c0.9,0.9,2,1.4,3.2,1.6
				l2.2-2.2h-1.3c-0.9,0-1.8-0.4-2.5-1c-1.4-1.4-1.4-3.6,0-5c0.7-0.7,1.5-1,2.5-1c0.9,0,1.7,0.4,2.4,1c0.5,0.4,1.5,1.3,1.9,1.7
				l1.6-1.6C166,539.2,165,538.2,164.3,537.7z"/>
		</g>
		<g>
			<path class="st11" d="M174.8,535.3c-1.4-4-5.8-6.1-9.9-4.7c-2.7,0.9-4.6,3.3-5,6.1c0.3-0.1,0.7-0.1,1-0.1c0.4,0,0.9,0,1.3,0.2
				l0,0c0.6-3,3.5-4.9,6.5-4.2c1.7,0.4,3.1,1.5,3.9,3.1 M172.6,535.5c0.7-0.2,1.4-0.3,2.2-0.2c0.1,0,0.1,0,0.1-0.1L172.6,535.5z"/>
		</g>
	</g>
	<g>
		<g>
			<path d="M208.4,533.1h-7.3v1.1h2.2v3.9h-2.5v1h2.5v6.5h1.2v-6.5h2.8v6.4h2.2v-1.1h-1L208.4,533.1z M204.4,538v-3.8h2.8v3.9
				L204.4,538z"/>
		</g>
		<g>
			<rect x="188" y="542.7" width="5.8" height="1.1"/>
		</g>
		<g>
			<path d="M184.1,540.7c0,1.6-0.1,3.2-0.5,4.7c0,0.1,0,0.2,0.1,0.2h1.1c0.3-1.4,0.4-2.9,0.4-4.3h1.5v3.3h-1c-0.1,0-0.1,0-0.1,0.1
				l0.3,1h1.9v-12.4h-3.6L184.1,540.7z M185.1,540.2v-2.5h1.5v2.5H185.1z M186.6,534.2v2.5h-1.5v-2.5H186.6L186.6,534.2z"/>
		</g>
		<g>
			<path d="M194.2,537.5h1.4v-1h-4.1c0.1-0.3,0.2-0.7,0.3-1h3.6v-1h-1l0.4-1.3c0-0.1,0-0.1-0.1-0.1h-0.9l-0.4,1.4h-1.3
				c0.1-0.5,0.2-1.2,0.3-1.8c0-0.1,0-0.1-0.1-0.1h-1c-0.1,0.7-0.2,1.4-0.4,2h-0.6l-0.4-1.4H189c0,0-0.1,0-0.1,0.1l0.4,1.3h-1v1h2.3
				c-0.1,0.3-0.2,0.7-0.4,1H188v1h1.7c-0.4,0.6-1,1.2-1.7,1.6v1c0,0.1,0,0.1,0.2,0c0.3-0.2,0.7-0.4,1-0.6h4v1.4h-3.1v-0.9
				c0,0,0-0.1-0.1-0.1h-1l-0.1,1.8c0,0,0,0.1,0.1,0.1h5.4v2.6H192c-0.1,0-0.1,0-0.1,0.1l0.3,1h3.4V541h-1.3v-1.9
				c0.4,0.4,0.9,0.8,1.4,1.1c0.2,0.1,0.2,0,0.2,0v-1C195.2,538.7,194.6,538.1,194.2,537.5z M192.9,537.5c0.2,0.4,0.5,0.8,0.8,1.1
				h-3.5c0.3-0.3,0.6-0.7,0.8-1.1H192.9z"/>
		</g>
		<g>
			<path d="M201.8,541.9l-2,1.5v-6.9h-2.7v1.2h1.6v6.6l-0.6,0.5l0.6,0.8l3.2-2.4L201.8,541.9C201.8,542,201.8,541.9,201.8,541.9z"/>
		</g>
		<g>
			<path d="M198.8,535.5h1.3c0,0,0.1,0,0.1-0.1l0,0l-1.6-2.5h-1.3h-0.1c0,0,0,0,0,0.1L198.8,535.5z"/>
		</g>
		<g>
			<rect x="211.9" y="533.4" width="9.2" height="1.2"/>
		</g>
		<g>
			<path d="M215.2,539h7.2v-1.2h-11.8v1.2h3.3l-2.4,6.3v0.1l0,0h10.2c0,0,0.1,0,0.1-0.1l0,0l-1.5-4H219c0,0-0.1,0-0.1,0.1l0,0
				l1.1,2.8h-6.8L215.2,539z"/>
		</g>
	</g>
</g>
<rect x="13.3" y="49.1" class="st3" width="108.8" height="50"/>
<path class="st4" d="M122.6,99.6H12.8v-51h109.8C122.6,48.6,122.6,99.6,122.6,99.6z M13.8,98.6h107.8v-49H13.8V98.6L13.8,98.6z"/>
<g>
	<path class="st6" d="M28.5,80.2l-0.8-0.7c0.9-1.4,1.4-3.1,1.4-4.8v-6.6h10.4v10.5c0.1,0.7-0.4,1.4-1.1,1.5c-0.1,0-0.2,0-0.4,0h-1.6
		l-0.3-1c0.6,0,1.1,0.1,1.6,0.1s0.8-0.3,0.8-0.9v-2.4h-3.8V80h-1.1v-4.1H30C29.9,77.4,29.4,78.9,28.5,80.2z M30.1,69.1v2.4h3.5v-2.4
		H30.1z M30.1,74.9h3.5v-2.5h-3.5C30.1,72.4,30.1,74.9,30.1,74.9z M38.5,69.1h-3.8v2.4h3.8V69.1z M38.5,72.4h-3.8v2.4h3.8V72.4z"/>
</g>
<g>
	<path class="st6" d="M42.3,80.4l-0.7-0.7c1.2-1.8,1.8-3.9,1.7-6.1v-4.4h4.6c-0.2-0.6-0.5-1.1-0.8-1.6l1.1-0.2
		c0.3,0.5,0.5,1.1,0.8,1.8h4.4v4.7h-9C44.3,76.3,43.6,78.5,42.3,80.4z M44.3,70.2v2.7h8v-2.7H44.3z"/>
</g>
<g>
	<path class="st6" d="M61.1,67.7v11.1h2V67.7h1v11.1h4.2v1H55.9v-1h4.2V67.7H61.1z M59.1,76.7l-0.9,0.2c-0.5-2.2-1.1-4.4-1.9-6.5
		l0.8-0.3C57.9,72.3,58.6,74.5,59.1,76.7L59.1,76.7z M68,70.4c-0.5,2.2-1.2,4.3-2.1,6.4L65,76.5c0.9-2,1.7-4.1,2.1-6.3L68,70.4z"/>
</g>
<g>
	<path class="st6" d="M74.9,67.6c-0.2,0.4-0.3,0.7-0.5,1.1h6.1v0.8c-0.9,1.1-2,1.9-3.3,2.6c1.7,0.7,3.5,1.1,5.3,1.3L82,74.3
		c-2.1-0.2-4.1-0.8-5.9-1.7c-1.9,0.8-3.9,1.4-6,1.7l-0.5-1c1.8-0.2,3.6-0.6,5.4-1.3c-0.8-0.5-1.5-1-2.2-1.6
		c-0.5,0.5-1.1,0.9-1.8,1.3l-0.6-0.8c1.5-0.8,2.7-2,3.4-3.5L74.9,67.6z M76.3,73.7c0,0.5,0,1.1-0.1,1.6h4.9c0,2.4-0.2,3.8-0.6,4.2
		c-0.6,0.5-1.3,0.8-2.1,0.7c-0.4,0-1,0-1.6-0.1l-0.2-0.9l1.7,0.1c0.8,0,1.4-0.2,1.6-0.5c0.3-0.8,0.4-1.7,0.4-2.6h-4.2
		c-0.1,0.4-0.3,0.7-0.4,1.1c-0.7,1.3-2.3,2.3-4.9,3.1l-0.7-0.8c2.3-0.7,3.8-1.5,4.6-2.6c0.2-0.3,0.3-0.5,0.4-0.8h-4.2v-0.9h4.4
		c0.1-0.5,0.2-1.1,0.2-1.6L76.3,73.7L76.3,73.7z M79.1,69.6h-5.3l-0.2,0.2c0.8,0.7,1.7,1.3,2.6,1.8C77.2,71.1,78.2,70.4,79.1,69.6
		L79.1,69.6z"/>
</g>
<g>
	<path class="st6" d="M88.1,76.9c-1,1.2-2.2,2.2-3.5,3l-0.7-0.8c1.3-0.7,2.5-1.7,3.4-2.8L88.1,76.9z M88,80.3l-0.2-1
		c0.5,0,1,0.1,1.4,0.1c0.3,0,0.5-0.1,0.5-0.4v-0.1v-3.4c-1.3,0.1-2.8,0.2-4.4,0.2L85,74.8c0.3,0,0.6-0.1,0.9-0.2
		c1.4-0.6,2.7-1.4,3.9-2.3c-1.2,0.1-2.5,0.2-3.9,0.3l-0.2-0.9c0.2,0,0.5-0.1,0.7-0.2c0.9-0.5,1.8-1.2,2.5-2.1
		c-1.2,0.1-2.4,0.1-3.8,0.1l-0.3-0.9c3.4,0.1,6.7-0.2,10-0.9l0.5,0.9c-1.7,0.4-3.4,0.6-5.2,0.7c-0.8,0.9-1.7,1.7-2.7,2.4
		c1.1-0.1,2.2-0.1,3.4-0.2c0.6-0.5,1.3-1.1,1.9-1.7l0.9,0.5c-1.9,1.7-3.9,3.2-6.1,4.5c2.3-0.1,4.2-0.3,5.9-0.5
		c-0.3-0.4-0.7-0.9-1.1-1.4l0.8-0.5c1,1.1,1.9,2.3,2.7,3.5L95,76.5c-0.3-0.5-0.6-1-0.9-1.4c-1,0.1-2,0.2-3.2,0.3v3.7
		c0.1,0.6-0.3,1.1-0.9,1.2c-0.1,0-0.2,0-0.3,0L88,80.3L88,80.3z M96.2,79.3L95.5,80c-1.1-1.2-2.2-2.2-3.5-3.2l0.7-0.6
		C94,77.1,95.2,78.2,96.2,79.3L96.2,79.3z"/>
</g>
<g>
	<path class="st6" d="M101.2,67.9c-0.6,1.5-1.3,2.9-2.1,4.3c0.6-0.1,1.2-0.2,1.8-0.3c0.2-0.5,0.5-1,0.8-1.5l0.9,0.3
		c-0.9,1.8-1.9,3.4-3.1,5c1-0.3,2-0.6,3-1v0.9c-1.4,0.6-2.8,1-4.2,1.2L98,75.9c0.2-0.1,0.3-0.2,0.5-0.3c0.8-0.9,1.4-1.8,2-2.8
		c-0.8,0.1-1.5,0.3-2.3,0.4l-0.3-0.9c0.2-0.1,0.3-0.2,0.4-0.4c0.8-1.4,1.5-2.9,2-4.4L101.2,67.9z M102.4,78.1
		c-1.4,0.7-2.9,1.2-4.4,1.6l-0.1-1c1.6-0.3,3.1-0.8,4.5-1.5V78.1z M105,74.2c0,1.3-0.2,2.6-0.7,3.9c-0.4,0.9-1.1,1.7-2,2.2l-0.6-0.8
		c0.7-0.4,1.4-1.1,1.8-1.9c0.4-1.1,0.6-2.3,0.6-3.5h0.9L105,74.2L105,74.2z M102.7,72.7l0.2-0.1c0.8-0.8,1.4-1.7,1.8-2.7h-2.4v-1
		h3.6c-0.2-0.5-0.4-1-0.6-1.4l1-0.2c0.2,0.5,0.4,1,0.6,1.6h3.2v1h-4.3c-0.4,0.9-1,1.8-1.6,2.7c1.3-0.1,2.6-0.3,3.9-0.5
		c-0.3-0.4-0.6-0.9-1-1.4l0.8-0.5c0.8,1,1.6,2.1,2.2,3.2l-0.8,0.6c-0.2-0.4-0.4-0.7-0.6-1.1c-1.7,0.3-3.6,0.5-5.7,0.6L102.7,72.7z
		 M108.1,80.1c-0.6,0.1-1.2-0.3-1.3-0.9c0-0.1,0-0.2,0-0.3v-4.8h1v4.6c0,0.3,0.1,0.4,0.3,0.5h0.9c0.3,0,0.5-0.2,0.6-0.5
		c0.1-0.6,0.1-1.2,0.1-1.8l0.9,0.3c0.1,0.8,0,1.7-0.3,2.4c-0.3,0.3-0.7,0.5-1.2,0.5L108.1,80.1L108.1,80.1z"/>
</g>
<rect x="317.2" y="263.1" class="st3" width="145" height="50"/>
<path class="st4" d="M462.7,313.6h-146v-51h146V313.6z M317.7,312.6h144v-49h-144V312.6z"/>
<rect x="167.2" y="323.1" class="st3" width="138" height="50"/>
<path class="st4" d="M305.7,373.6h-139v-51h139V373.6L305.7,373.6z M167.7,372.6h137v-49h-137L167.7,372.6L167.7,372.6z"/>
<rect x="155.6" y="559.1" class="st3" width="156" height="50"/>
<path class="st4" d="M312.1,609.6h-157v-51h157V609.6z M156.1,608.6h155v-49h-155V608.6z"/>
<rect x="322.1" y="619.1" class="st3" width="156" height="50"/>
<path class="st4" d="M478.6,669.6h-157v-51h157V669.6z M322.6,668.6h155v-49h-155V668.6z"/>
<rect x="487.7" y="619.1" class="st3" width="146" height="50"/>
<path class="st4" d="M634.2,669.6h-147v-51h147V669.6L634.2,669.6z M488.2,668.6h145v-49h-145V668.6L488.2,668.6z"/>
<polygon class="st7" points="298.2,84.2 303.2,79.2 298.2,74.2 "/>
<rect x="125.1" y="78.3" class="st7" width="175" height="1"/>
<path class="st8" d="M218.7,239.1h-1v-5h1V239.1z M218.7,229.1h-1v-4h1V229.1z"/>
<g>
	<path class="st8" d="M573.2,137.6h-5v-1h5V137.6z M563.2,137.6h-5v-1h5V137.6z M553.2,137.6h-5v-1h5V137.6z M543.2,137.6h-5v-1h5
		V137.6z M533.2,137.6h-5v-1h5V137.6z M523.2,137.6h-5v-1h5V137.6z M513.2,137.6h-5v-1h5V137.6z M503.2,137.6h-5v-1h5V137.6z
		 M493.2,137.6h-5v-1h5V137.6z M483.2,137.6h-5v-1h5V137.6z M473.2,137.6h-5v-1h5V137.6z M463.2,137.6h-5v-1h5V137.6z M453.2,137.6
		h-5v-1h5V137.6z M443.2,137.6h-5v-1h5V137.6z M433.2,137.6h-5v-1h5V137.6z M423.2,137.6h-5v-1h5V137.6z M413.2,137.6h-5v-1h5V137.6
		z M403.2,137.6h-5v-1h5V137.6z M393.2,137.6h-5v-1h5V137.6z M383.2,137.6h-5v-1h5V137.6z M373.2,137.6h-5v-1h5V137.6z M363.2,137.6
		h-5v-1h5V137.6z M353.2,137.6h-5v-1h5V137.6z M343.2,137.6h-5v-1h5V137.6z M333.2,137.6h-5v-1h5V137.6z M323.2,137.6h-5v-1h5V137.6
		z M313.2,137.6h-5v-1h5V137.6z M303.2,137.6h-5v-1h5V137.6z M293.2,137.6h-5v-1h5V137.6z M283.2,137.6h-5v-1h5V137.6z M273.2,137.6
		h-5v-1h5V137.6z M263.2,137.6h-5v-1h5V137.6z M253.2,137.6h-5v-1h5V137.6z M243.2,137.6h-5v-1h5V137.6z M233.2,137.6h-5v-1h5V137.6
		z M223.2,137.6h-4v-1h4V137.6z"/>
</g>
<g>
	<path class="st8" d="M397.7,148.2h-1v-5h1V148.2z M397.7,138.2h-1v-5h1V138.2z M397.7,128.2h-1v-5h1V128.2z"/>
</g>
<path class="st8" d="M396.7,250.1h-1v-5h1V250.1z M396.7,240.1h-1v-1h1V240.1z"/>
<path class="st8" d="M236.7,408.1h-1v-5h1V408.1z M236.7,398.1h-1v-5h1V398.1z"/>
<path class="st8" d="M390.2,408.1h-1v-5h1V408.1z M390.2,398.1h-1v-5h1V398.1z"/>
<path class="st8" d="M548.6,408.1h-1v-5h1V408.1z M548.6,398.1h-1v-5h1V398.1z"/>
<path class="st8" d="M573.7,149.1h-1v-5h1V149.1z M573.7,139.1h-1V137h1V139.1z"/>
<path class="st8" d="M219.7,149.1h-1v-5h1V149.1z M219.7,139.1h-1V137h1V139.1z"/>
<g>
	<g>
		<path class="st6" d="M236.8,343c1.3-0.1,2.7,0.4,3.6,1.4c0.8,1,1.2,2.3,1.1,3.6c0.1,1.3-0.4,2.6-1.2,3.6c-1,1-2.3,1.5-3.6,1.4
			h-3.5v-10C233.2,343,236.8,343,236.8,343z M234.3,352h2.1c1.1,0.1,2.1-0.3,2.9-1c0.7-0.8,1-1.9,0.9-3c0.1-1.1-0.2-2.1-0.9-3
			c-0.8-0.7-1.8-1.1-2.9-1h-2.2L234.3,352z"/>
	</g>
	<g>
		<path class="st6" d="M248.8,346.6c1.2,1.6,1.2,3.8,0,5.4c-0.7,0.8-1.6,1.2-2.6,1.1c-1,0-1.9-0.4-2.6-1.1c-0.6-0.7-1-1.7-0.9-2.7
			c0-1,0.3-1.9,0.9-2.7c1.3-1.4,3.6-1.5,5-0.1C248.7,346.5,248.7,346.6,248.8,346.6L248.8,346.6z M244.4,347.3c-0.8,1.2-0.8,2.8,0,4
			c0.4,0.6,1.1,0.9,1.8,0.9s1.4-0.3,1.8-0.9c0.8-1.2,0.8-2.8,0-4c-0.4-0.6-1.1-0.9-1.8-0.9S244.8,346.8,244.4,347.3L244.4,347.3z"/>
	</g>
	<g>
		<path class="st6" d="M256.4,346.1c0.6,0.5,0.9,1.2,1,2h-1.1c-0.1-0.5-0.3-0.9-0.7-1.3c-0.4-0.3-0.9-0.4-1.4-0.4
			c-0.7,0-1.3,0.3-1.7,0.8c-0.4,0.6-0.6,1.4-0.6,2.1s0.2,1.5,0.6,2.1c0.4,0.5,1,0.8,1.7,0.8c1.1,0.1,2-0.7,2.1-1.7v-0.1h1.1
			c-0.1,0.8-0.5,1.6-1.1,2.1s-1.4,0.7-2.2,0.7c-1,0.1-1.9-0.3-2.5-1c-0.6-0.8-0.9-1.7-0.9-2.7s0.3-1.9,0.9-2.7s1.6-1.2,2.5-1.1
			C255,345.5,255.8,345.7,256.4,346.1z"/>
	</g>
	<g>
		<path class="st6" d="M259.9,342.8v6.3l3.6-3.4h1.5l-3.2,2.9l3.5,4.3h-1.4l-2.8-3.6l-1.1,1v2.6h-1.1v-10.2L259.9,342.8z"/>
	</g>
	<g>
		<path class="st6" d="M271.8,346.7c0.6,0.9,0.9,1.9,0.8,3h-5.7c0,0.7,0.2,1.3,0.7,1.9c0.4,0.5,1,0.7,1.6,0.7c0.5,0,1-0.1,1.4-0.5
			c0.3-0.3,0.6-0.7,0.7-1.1h1.1c-0.1,0.7-0.5,1.3-1,1.7c-0.6,0.5-1.5,0.8-2.3,0.8c-0.9,0-1.8-0.3-2.5-1c-1.2-1.6-1.2-3.9,0-5.5
			c0.6-0.8,1.5-1.2,2.5-1.1C270.2,345.5,271.2,345.9,271.8,346.7z M267.7,347.1c-0.4,0.5-0.7,1.1-0.7,1.7h4.5
			c-0.1-1.6-0.9-2.3-2.3-2.3C268.7,346.4,268.1,346.7,267.7,347.1z"/>
	</g>
	<g>
		<path class="st6" d="M278.2,345.7v1.1c-0.4-0.1-0.7-0.2-1.1-0.1c-0.6,0-1.1,0.3-1.4,0.7c-0.4,0.5-0.6,1.1-0.6,1.7v3.8H274v-7.2
			h1.1v1.3c0.2-0.4,0.4-0.7,0.8-1s0.8-0.5,1.3-0.5C277.5,345.5,277.8,345.6,278.2,345.7z"/>
	</g>
</g>
<g id="_编组__2_">
	<g id="_编组_2_2_">
		<g>
			<path class="st5" d="M222,350.1c-1.1,7.1-7.8,11.9-14.8,10.8c-7.1-1.1-11.9-7.8-10.8-14.8s7.8-11.9,14.8-10.8
				c5.6,0.9,10,5.3,10.8,10.8h2c-1.1-8.2-8.7-14-16.9-12.9s-14,8.7-12.9,16.9c1.1,8.2,8.7,14,16.9,12.9c6.7-0.9,12-6.2,12.9-12.9
				H222z"/>
		</g>
	</g>
	<g id="_编组_3_2_">
		<g id="_复合路径_2_2_">
			<path class="st5" d="M202.2,344.1v3h6v-6.4L202.2,344.1z M206.2,345.1h-1.7l1.7-1V345.1z"/>
		</g>
		<g id="_复合路径_3_2_">
			<path class="st5" d="M210.2,340.7v6.4h6v-3L210.2,340.7z M212.2,344.1l1.7,1h-1.7V344.1z"/>
		</g>
		<g id="_复合路径_4_2_">
			<path class="st5" d="M216.2,352.1v-3h-6v6.4L216.2,352.1z M212.2,351.1h1.7l-1.7,1V351.1z"/>
		</g>
		<g id="_复合路径_5_2_">
			<path class="st5" d="M208.2,355.5v-6.4h-6v3L208.2,355.5z M206.2,352.1l-1.7-1h1.7V352.1z"/>
		</g>
	</g>
</g>
<rect x="317.2" y="323.1" class="st3" width="145" height="50"/>
<path class="st4" d="M462.7,373.6h-146v-51h146V373.6z M317.7,372.6h144v-49h-144V372.6z"/>
<g>
	<g>
		<path class="st6" d="M390.3,343c1.3-0.1,2.7,0.4,3.6,1.4c0.8,1,1.2,2.3,1.1,3.6c0.1,1.3-0.4,2.6-1.2,3.6c-1,1-2.3,1.5-3.6,1.4
			h-3.5v-10H390.3L390.3,343z M387.8,352h2.1c1.1,0.1,2.1-0.3,2.9-1c0.7-0.8,1-1.9,0.9-3c0.1-1.1-0.2-2.1-0.9-3
			c-0.8-0.7-1.8-1.1-2.9-1h-2.2L387.8,352L387.8,352z"/>
	</g>
	<g>
		<path class="st6" d="M402.3,346.6c1.2,1.6,1.2,3.8,0,5.4c-0.7,0.8-1.6,1.2-2.6,1.1c-1,0-1.9-0.4-2.6-1.1c-0.6-0.7-1-1.7-0.9-2.7
			c0-1,0.3-1.9,0.9-2.7c1.3-1.4,3.6-1.5,5-0.1C402.2,346.5,402.2,346.6,402.3,346.6L402.3,346.6z M397.9,347.3c-0.8,1.2-0.8,2.8,0,4
			c0.4,0.6,1.1,0.9,1.8,0.9s1.4-0.3,1.8-0.9c0.8-1.2,0.8-2.8,0-4c-0.4-0.6-1.1-0.9-1.8-0.9S398.3,346.8,397.9,347.3L397.9,347.3z"/>
	</g>
	<g>
		<path class="st6" d="M409.9,346.1c0.6,0.5,0.9,1.2,1,2h-1.1c-0.1-0.5-0.3-0.9-0.7-1.3c-0.4-0.3-0.9-0.4-1.4-0.4
			c-0.7,0-1.3,0.3-1.7,0.8c-0.4,0.6-0.6,1.4-0.6,2.1s0.2,1.5,0.6,2.1c0.4,0.5,1,0.8,1.7,0.8c1.1,0.1,2-0.7,2.1-1.7v-0.1h1.1
			c-0.1,0.8-0.5,1.6-1.1,2.1s-1.4,0.7-2.2,0.7c-1,0.1-1.9-0.3-2.5-1c-0.6-0.8-0.9-1.7-0.9-2.7s0.3-1.9,0.9-2.7s1.6-1.2,2.5-1.1
			C408.5,345.5,409.3,345.7,409.9,346.1z"/>
	</g>
	<g>
		<path class="st6" d="M413.4,342.8v6.3l3.6-3.4h1.5l-3.2,2.9l3.5,4.3h-1.4l-2.8-3.6l-1.1,1v2.6h-1.1v-10.2L413.4,342.8z"/>
	</g>
	<g>
		<path class="st6" d="M425.3,346.7c0.6,0.9,0.9,1.9,0.8,3h-5.7c0,0.7,0.2,1.3,0.7,1.9c0.4,0.5,1,0.7,1.6,0.7c0.5,0,1-0.1,1.4-0.5
			c0.3-0.3,0.6-0.7,0.7-1.1h1.1c-0.1,0.7-0.5,1.3-1,1.7c-0.6,0.5-1.5,0.8-2.3,0.8c-0.9,0-1.8-0.3-2.5-1c-1.2-1.6-1.2-3.9,0-5.5
			c0.6-0.8,1.5-1.2,2.5-1.1C423.7,345.5,424.7,345.9,425.3,346.7z M421.2,347.1c-0.4,0.5-0.7,1.1-0.7,1.7h4.5
			c-0.1-1.6-0.9-2.3-2.3-2.3C422.2,346.4,421.6,346.7,421.2,347.1z"/>
	</g>
	<g>
		<path class="st6" d="M431.7,345.7v1.1c-0.4-0.1-0.7-0.2-1.1-0.1c-0.6,0-1.1,0.3-1.4,0.7c-0.4,0.5-0.6,1.1-0.6,1.7v3.8h-1.1v-7.2
			h1.1v1.3c0.2-0.4,0.4-0.7,0.8-1s0.8-0.5,1.3-0.5C431,345.5,431.3,345.6,431.7,345.7z"/>
	</g>
</g>
<g id="_编组_4_2_">
	<g id="_编组_5_2_">
		<g>
			<path class="st5" d="M375.5,350.1c-1.1,7.1-7.8,11.9-14.8,10.8c-7.1-1.1-11.9-7.8-10.8-14.8c1.1-7.1,7.8-11.9,14.8-10.8
				c5.6,0.9,10,5.3,10.8,10.8h2c-1.1-8.2-8.7-14-16.9-12.9s-14,8.7-12.9,16.9c1.1,8.2,8.7,14,16.9,12.9c6.7-0.9,12-6.2,12.9-12.9
				H375.5z"/>
		</g>
	</g>
	<g id="_编组_6_2_">
		<g id="_复合路径_6_2_">
			<path class="st5" d="M355.7,344.1v3h6v-6.4L355.7,344.1z M359.7,345.1H358l1.7-1V345.1z"/>
		</g>
		<g id="_复合路径_7_2_">
			<path class="st5" d="M363.7,340.7v6.4h6v-3L363.7,340.7z M365.7,344.1l1.7,1h-1.7V344.1z"/>
		</g>
		<g id="_复合路径_8_2_">
			<path class="st5" d="M369.7,352.1v-3h-6v6.4L369.7,352.1z M365.7,351.1h1.7l-1.7,1V351.1z"/>
		</g>
		<g id="_复合路径_9_2_">
			<path class="st5" d="M361.7,355.5v-6.4h-6v3L361.7,355.5z M359.7,352.1l-1.7-1h1.7V352.1z"/>
		</g>
	</g>
</g>
<rect x="474.1" y="323.1" class="st3" width="148" height="50"/>
<path class="st4" d="M622.6,373.6h-149v-51h149V373.6L622.6,373.6z M474.7,372.6h147v-49h-147V372.6z"/>
<rect x="169.2" y="162.3" class="st2" width="138" height="50"/>
<rect x="319.2" y="162.3" class="st2" width="145" height="50"/>
<rect x="476.1" y="162.3" class="st2" width="148" height="50"/>
<rect x="167.2" y="160.3" class="st3" width="138" height="50"/>
<path class="st4" d="M305.7,210.8h-139v-51h139V210.8L305.7,210.8z M167.7,209.8h137v-49h-137L167.7,209.8L167.7,209.8z"/>
<rect x="317.2" y="160.3" class="st3" width="145" height="50"/>
<path class="st4" d="M462.7,210.8h-146v-51h146V210.8z M317.7,209.8h144v-49h-144V209.8z"/>
<rect x="474.1" y="160.3" class="st3" width="148" height="50"/>
<path class="st4" d="M622.6,210.8h-149v-51h149V210.8L622.6,210.8z M474.7,209.8h147v-49h-147V209.8z"/>
<g>
	<g>
		<path class="st6" d="M548.8,343c1.3-0.1,2.7,0.4,3.6,1.4c0.8,1,1.2,2.3,1.1,3.6c0.1,1.3-0.4,2.6-1.2,3.6c-1,1-2.3,1.5-3.6,1.4
			h-3.5v-10C545.2,343,548.8,343,548.8,343z M546.4,352h2.1c1.1,0.1,2.1-0.3,2.9-1c0.7-0.8,1-1.9,0.9-3c0.1-1.1-0.2-2.1-0.9-3
			c-0.8-0.7-1.8-1.1-2.9-1h-2.2L546.4,352L546.4,352z"/>
	</g>
	<g>
		<path class="st6" d="M560.8,346.6c1.2,1.6,1.2,3.8,0,5.4c-0.7,0.8-1.6,1.2-2.6,1.1c-1,0-1.9-0.4-2.6-1.1c-0.6-0.7-1-1.7-0.9-2.7
			c0-1,0.3-1.9,0.9-2.7c1.3-1.4,3.6-1.5,5-0.1C560.7,346.5,560.7,346.6,560.8,346.6L560.8,346.6z M556.4,347.3c-0.8,1.2-0.8,2.8,0,4
			c0.4,0.6,1.1,0.9,1.8,0.9s1.4-0.3,1.8-0.9c0.8-1.2,0.8-2.8,0-4c-0.4-0.6-1.1-0.9-1.8-0.9S556.8,346.8,556.4,347.3L556.4,347.3z"/>
	</g>
	<g>
		<path class="st6" d="M568.4,346.1c0.6,0.5,0.9,1.2,1,2h-1.1c-0.1-0.5-0.3-0.9-0.7-1.3c-0.4-0.3-0.9-0.4-1.4-0.4
			c-0.7,0-1.3,0.3-1.7,0.8c-0.4,0.6-0.6,1.4-0.6,2.1s0.2,1.5,0.6,2.1c0.4,0.5,1,0.8,1.7,0.8c1.1,0.1,2-0.7,2.1-1.7v-0.1h1.1
			c-0.1,0.8-0.5,1.6-1.1,2.1s-1.4,0.7-2.2,0.7c-1,0.1-1.9-0.3-2.5-1c-0.6-0.8-0.9-1.7-0.8-2.7c0-1,0.3-1.9,0.8-2.7
			c0.6-0.8,1.6-1.2,2.5-1.1C567,345.5,567.8,345.7,568.4,346.1z"/>
	</g>
	<g>
		<path class="st6" d="M571.9,342.8v6.3l3.6-3.4h1.5l-3.2,2.9l3.5,4.3h-1.4l-2.8-3.6l-1.2,1v2.6h-1.1v-10.2L571.9,342.8z"/>
	</g>
	<g>
		<path class="st6" d="M583.8,346.7c0.6,0.9,0.9,1.9,0.8,3h-5.7c0,0.7,0.2,1.3,0.7,1.9c0.4,0.5,1,0.7,1.6,0.7c0.5,0,1-0.1,1.4-0.5
			c0.3-0.3,0.6-0.7,0.7-1.1h1.1c-0.1,0.7-0.5,1.3-1,1.7c-0.6,0.5-1.5,0.8-2.3,0.8c-0.9,0-1.8-0.3-2.5-1c-1.2-1.6-1.2-3.9,0-5.5
			c0.6-0.8,1.5-1.2,2.5-1.1C582.2,345.5,583.2,345.9,583.8,346.7z M579.7,347.1c-0.4,0.5-0.7,1.1-0.7,1.7h4.5
			c-0.1-1.6-0.9-2.3-2.3-2.3C580.7,346.4,580.1,346.7,579.7,347.1z"/>
	</g>
	<g>
		<path class="st6" d="M590.2,345.7v1.1c-0.4-0.1-0.7-0.2-1.1-0.1c-0.6,0-1.1,0.3-1.4,0.7c-0.4,0.5-0.6,1.1-0.6,1.7v3.8H586v-7.2
			h1.1v1.3c0.2-0.4,0.4-0.7,0.8-1c0.4-0.3,0.8-0.5,1.3-0.5C589.5,345.5,589.8,345.6,590.2,345.7z"/>
	</g>
</g>
<g id="_编组_7_2_">
	<g id="_编组_8_2_">
		<g>
			<path class="st5" d="M534,350.1c-1.1,7.1-7.8,11.9-14.8,10.8c-7.1-1.1-11.9-7.8-10.8-14.8c1.1-7.1,7.8-11.9,14.8-10.8
				c5.6,0.9,10,5.3,10.8,10.8h2c-1.1-8.2-8.7-14-16.9-12.9s-14,8.7-12.9,16.9c1.1,8.2,8.7,14,16.9,12.9c6.7-0.9,12-6.2,12.9-12.9
				H534z"/>
		</g>
	</g>
	<g id="_编组_9_2_">
		<g id="_复合路径_10_2_">
			<path class="st5" d="M514.2,344.1v3h6v-6.4L514.2,344.1z M518.2,345.1h-1.7l1.7-1V345.1z"/>
		</g>
		<g id="_复合路径_11_2_">
			<path class="st5" d="M522.2,340.7v6.4h6v-3L522.2,340.7z M524.2,344.1l1.7,1h-1.7V344.1z"/>
		</g>
		<g id="_复合路径_12_2_">
			<path class="st5" d="M528.2,352.1v-3h-6v6.4L528.2,352.1z M524.2,351.1h1.7l-1.7,1V351.1z"/>
		</g>
		<g id="_复合路径_13_2_">
			<path class="st5" d="M520.2,355.5v-6.4h-6v3L520.2,355.5z M518.2,352.1l-1.7-1h1.7V352.1z"/>
		</g>
	</g>
</g>
<g>
	<path class="st5" d="M191.2,462.1c-7.2,0-13-5.8-13-13s5.8-13,13-13c6.4,0,11.9,4.7,12.9,11h2c-1.1-8.2-8.7-14-16.9-12.9
		s-14,8.7-12.9,16.9c1.1,8.2,8.7,14,16.9,12.9c6.7-0.9,12-6.2,12.9-12.9h-2C203,457.4,197.6,462.1,191.2,462.1z M198.2,445.1l-7-4
		l-7,4v2l2,1.1l0,0l5,2.9l5-2.9l0,0l2-1.1V445.1z M191.2,448.8l-4.7-2.7l4.7-2.7l4.7,2.7L191.2,448.8z M184.2,449.4v3.7l7,4l7-4
		v-3.7l-2,1.1v1.4l-5,2.9l-5-2.9v-1.4L184.2,449.4z"/>
</g>
<rect x="323.2" y="424.4" class="st3" width="145" height="50"/>
<path class="st4" d="M468.7,474.9h-146v-51h146V474.9z M323.7,473.9h144v-49h-144V473.9z"/>
<g>
	<path class="st6" d="M371.6,449.6l-0.9-0.2c0.5-1.5,0.8-3.1,0.9-4.7l0.9,0.1c0,0.6-0.1,1.2-0.2,1.8h1v-2.9h1v2.9h1.2v1h-1.2v3.4
		c0.4-0.2,0.8-0.4,1.1-0.6v1c-0.4,0.2-0.7,0.4-1.1,0.6v4.6h-1v-4.2c-0.7,0.3-1.4,0.5-2.2,0.8l-0.2-1c0.8-0.2,1.6-0.4,2.4-0.8v-3.8
		h-1.1C372,448.3,371.8,449,371.6,449.6z M378.2,443.9c-0.1,0.7-0.3,1.4-0.5,2h5.4c0,4.7-0.1,7.6-0.2,8.7s-1,1.9-2.1,1.9h-0.1h-1
		l-0.2-0.9c0.5,0,0.8,0.1,1.1,0.1c0.7,0.1,1.4-0.5,1.5-1.2v-0.1c0.1-0.8,0.1-3.2,0.2-7.3h-1c-0.2,1.9-0.6,3.8-1.3,5.5
		c-0.7,1.5-1.6,2.8-2.9,3.9l-0.6-0.8c1.1-1,2-2.2,2.6-3.5c0.6-1.7,1-3.4,1.2-5.1h-1.1c-0.6,3.1-1.6,5.3-3.2,6.6l-0.7-0.8
		c1.6-1.6,2.7-3.7,3-5.9h-1c-0.3,0.8-0.8,1.5-1.3,2.2l-0.7-0.6c1-1.4,1.7-3.1,1.9-4.8L378.2,443.9z"/>
</g>
<g>
	<path class="st6" d="M386.6,448.9v-3.3h-1.7v-1h4.5v1h-1.7v3.3h1.5v1h-1.5v3.2c0.5-0.2,1-0.4,1.5-0.6v1c-1.4,0.6-2.7,1-4.2,1.3
		l-0.2-1c0.6-0.1,1.2-0.2,1.8-0.4v-3.5h-1.5v-1H386.6z M396.9,444.2v6.5H394v1.6h3.1v1H394v1.8h3.7v1h-8.4v-1h3.8v-1.8h-3.2v-1h3.2
		v-1.6h-2.9v-6.5H396.9z M393,447v-1.9h-2v1.9H393z M393,447.9h-2v1.9h2V447.9z M394,447h2v-1.9h-2V447z M395.9,447.9h-2v1.9h2
		V447.9z"/>
</g>
<g>
	<path class="st6" d="M401.1,446.4v-2.7h1v2.7h1.7v1h-1.7v0.7c0.6,0.7,1.3,1.4,2,2.2l-0.6,0.9c-0.5-0.9-1-1.6-1.4-2.1v7.4h-1v-7.1
		c-0.5,1.3-1.1,2.6-1.9,3.8l-0.4-1.1c1.1-1.4,1.9-3,2.3-4.7h-2v-1L401.1,446.4L401.1,446.4z M404.5,453c0.2-1.1,0.3-2.3,0.3-3.5
		v-5.3h4.5v10.6c0,0.2,0.1,0.4,0.3,0.4h0.5c0.1,0,0.3,0,0.4-0.1s0.2-0.2,0.2-0.4c0.1-0.8,0.1-1.6,0.1-2.4l0.9,0.3
		c0,0.8,0,1.5-0.1,2.3c0,0.4-0.2,0.7-0.4,1c-0.3,0.2-0.7,0.3-1,0.2h-0.6c-0.9,0-1.3-0.4-1.3-1.2v-9.7h-2.6v4.4
		c0,1.3-0.1,2.6-0.4,3.9c-0.2,1.1-0.7,2.2-1.3,3.1l-0.8-0.7C403.8,455,404.2,454,404.5,453z"/>
</g>
<g>
	<path class="st6" d="M418.7,443.6l-5,12.9h-1l5-12.9H418.7z"/>
</g>
<g>
	<path class="st6" d="M432.5,448.4v1h-6.7c-0.9,2-2,3.8-3.4,5.5c2.5-0.1,5-0.4,7.5-0.7c-0.5-0.9-1.1-1.8-1.7-2.8l0.8-0.5
		c1.1,1.6,2.1,3.3,3,5.1l-0.9,0.6c-0.2-0.5-0.5-1-0.7-1.5c-2.8,0.4-5.9,0.6-9.3,0.9l-0.3-1c0.1,0,0.2-0.1,0.2-0.1
		c0.9-0.7,2.1-2.5,3.6-5.5h-4.7v-1H432.5z M431.3,444.5v1h-10v-1H431.3z"/>
</g>
<g>
	<path class="st6" d="M434.5,447v-1h5.3c-0.2-0.7-0.5-1.4-0.9-2.1l1-0.3c0.3,0.7,0.6,1.4,0.8,2.2l-0.5,0.2h5.8v1h-5.3v3.3h4.5v0.9
		h-4.5v3.8h5.7v1H434v-1h5.7v-3.8h-4.5v-0.9h4.5V447H434.5L434.5,447z"/>
</g>
<g>
	<path class="st6" d="M450.1,446.4v-2.7h1v2.7h1.7v1h-1.7v0.7c0.6,0.7,1.3,1.4,2,2.2l-0.6,0.9c-0.5-0.9-1-1.6-1.4-2.1v7.4h-1v-7.1
		c-0.5,1.3-1.1,2.6-1.9,3.8l-0.4-1.1c1.1-1.4,1.9-3,2.3-4.7h-2v-1L450.1,446.4L450.1,446.4z M453.5,453c0.2-1.1,0.3-2.3,0.3-3.5
		v-5.3h4.5v10.6c0,0.2,0.1,0.4,0.3,0.4h0.5c0.1,0,0.3,0,0.4-0.1s0.2-0.2,0.2-0.4c0.1-0.8,0.1-1.6,0.1-2.4l0.9,0.3
		c0,0.8,0,1.5-0.1,2.3c0,0.4-0.2,0.7-0.4,1c-0.3,0.2-0.7,0.3-1,0.2h-0.6c-0.9,0-1.3-0.4-1.3-1.2v-9.7h-2.6v4.4
		c0,1.3-0.1,2.6-0.4,3.9c-0.2,1.1-0.7,2.2-1.3,3.1l-0.8-0.7C452.8,455,453.2,454,453.5,453z"/>
</g>
<g>
	<path class="st5" d="M347.2,462.1c-7.2,0-13-5.8-13-13s5.8-13,13-13c6.4,0,11.9,4.7,12.9,11h2c-1.1-8.2-8.7-14-16.9-12.9
		s-14,8.7-12.9,16.9c1.1,8.2,8.7,14,16.9,12.9c6.7-0.9,12-6.2,12.9-12.9h-2C359,457.4,353.6,462.1,347.2,462.1z M354.2,445.1l-7-4
		l-7,4v2l2,1.1l0,0l5,2.9l5-2.9l0,0l2-1.1V445.1z M347.2,448.8l-4.7-2.7l4.7-2.7l4.7,2.7L347.2,448.8z M340.2,449.4v3.7l7,4l7-4
		v-3.7l-2,1.1v1.4l-5,2.9l-5-2.9v-1.4L340.2,449.4z"/>
</g>
<rect x="479.2" y="424.4" class="st3" width="145" height="50"/>
<path class="st4" d="M624.6,474.9h-146v-51h146V474.9L624.6,474.9z M479.7,473.9h144v-49h-144V473.9z"/>
<g>
	<path class="st6" d="M527.5,449.6l-0.9-0.2c0.5-1.5,0.8-3.1,0.9-4.7l0.9,0.1c0,0.6-0.1,1.2-0.2,1.8h1v-2.9h1v2.9h1.2v1h-1.2v3.4
		c0.4-0.2,0.8-0.4,1.1-0.6v1c-0.4,0.2-0.7,0.4-1.1,0.6v4.6h-1v-4.2c-0.7,0.3-1.4,0.5-2.2,0.8l-0.2-1c0.8-0.2,1.6-0.4,2.4-0.8v-3.8
		H528C527.9,448.3,527.7,449,527.5,449.6z M534.1,443.9c-0.2,0.7-0.3,1.4-0.5,2h5.4c0,4.7-0.1,7.6-0.2,8.7c-0.1,1.1-1,1.9-2.1,1.9
		h-0.1h-1l-0.2-0.9c0.5,0,0.8,0.1,1.2,0.1c0.7,0.1,1.4-0.5,1.5-1.2v-0.1c0.1-0.8,0.2-3.2,0.2-7.3h-1c-0.2,1.9-0.6,3.8-1.3,5.5
		c-0.7,1.5-1.6,2.8-2.9,3.9l-0.6-0.8c1.1-1,2-2.2,2.6-3.5c0.6-1.7,1-3.4,1.2-5.1h-1.1c-0.6,3.1-1.6,5.3-3.2,6.6l-0.7-0.8
		c1.6-1.6,2.7-3.7,3-5.9h-1c-0.3,0.8-0.8,1.5-1.3,2.2l-0.7-0.6c1-1.4,1.7-3.1,1.9-4.8L534.1,443.9z"/>
</g>
<g>
	<path class="st6" d="M542.5,448.9v-3.3h-1.7v-1h4.5v1h-1.7v3.3h1.5v1h-1.5v3.2c0.5-0.2,1-0.4,1.5-0.6v1c-1.4,0.6-2.7,1-4.2,1.3
		l-0.2-1c0.6-0.1,1.2-0.2,1.8-0.4v-3.5H541v-1H542.5z M552.8,444.2v6.5h-2.9v1.6h3.2v1h-3.2v1.8h3.7v1h-8.4v-1h3.8v-1.8h-3.2v-1h3.2
		v-1.6h-2.9v-6.5H552.8z M548.9,447v-1.9h-2v1.9H548.9z M548.9,447.9h-2v1.9h2V447.9z M549.9,447h2v-1.9h-2V447z M551.8,447.9h-2
		v1.9h2V447.9z"/>
</g>
<g>
	<path class="st6" d="M557,446.4v-2.7h1v2.7h1.7v1H558v0.7c0.6,0.7,1.3,1.4,2,2.2l-0.6,0.9c-0.5-0.9-1-1.6-1.4-2.1v7.4h-1v-7.1
		c-0.5,1.3-1.1,2.6-1.9,3.8l-0.4-1.1c1.1-1.4,1.9-3,2.3-4.7h-2v-1L557,446.4L557,446.4z M560.4,453c0.2-1.1,0.3-2.3,0.3-3.5v-5.3
		h4.5v10.6c0,0.2,0.1,0.4,0.3,0.4h0.5c0.1,0,0.3,0,0.4-0.1c0.1-0.1,0.2-0.2,0.2-0.4c0.1-0.8,0.1-1.6,0.1-2.4l0.9,0.3
		c0,0.8,0,1.5-0.1,2.3c0,0.4-0.2,0.7-0.4,1c-0.3,0.2-0.7,0.3-1,0.2h-0.6c-0.9,0-1.3-0.4-1.3-1.2v-9.7h-2.6v4.4
		c0,1.3-0.1,2.6-0.4,3.9c-0.2,1.1-0.7,2.2-1.3,3.1l-0.8-0.7C559.7,455,560.1,454,560.4,453z"/>
</g>
<g>
	<path class="st6" d="M574.6,443.6l-5,12.9h-1l5-12.9H574.6z"/>
</g>
<g>
	<path class="st6" d="M588.4,448.4v1h-6.7c-0.9,2-2,3.8-3.4,5.5c2.5-0.1,5-0.4,7.5-0.7c-0.5-0.9-1.1-1.8-1.7-2.8l0.8-0.5
		c1.1,1.6,2.1,3.3,3,5.1l-0.9,0.6c-0.2-0.5-0.5-1-0.7-1.5c-2.8,0.4-5.9,0.6-9.3,0.9l-0.3-1c0.1,0,0.2-0.1,0.2-0.1
		c0.9-0.7,2.1-2.5,3.6-5.5h-4.7v-1H588.4z M587.2,444.5v1h-10v-1H587.2z"/>
</g>
<g>
	<path class="st6" d="M590.4,447v-1h5.3c-0.2-0.7-0.5-1.4-0.9-2.1l1-0.3c0.3,0.7,0.6,1.4,0.8,2.2l-0.5,0.2h5.8v1h-5.3v3.3h4.5v0.9
		h-4.5v3.8h5.7v1h-12.4v-1h5.7v-3.8h-4.5v-0.9h4.5V447H590.4L590.4,447z"/>
</g>
<g>
	<path class="st6" d="M606,446.4v-2.7h1v2.7h1.7v1H607v0.7c0.6,0.7,1.3,1.4,2,2.2l-0.6,0.9c-0.5-0.9-1-1.6-1.4-2.1v7.4h-1v-7.1
		c-0.5,1.3-1.1,2.6-1.9,3.8l-0.4-1.1c1.1-1.4,1.9-3,2.3-4.7h-2v-1L606,446.4L606,446.4z M609.4,453c0.2-1.1,0.3-2.3,0.3-3.5v-5.3
		h4.5v10.6c0,0.2,0.1,0.4,0.3,0.4h0.5c0.1,0,0.3,0,0.4-0.1c0.1-0.1,0.2-0.2,0.2-0.4c0.1-0.8,0.1-1.6,0.1-2.4l0.9,0.3
		c0,0.8,0,1.5-0.1,2.3c0,0.4-0.2,0.7-0.4,1c-0.3,0.2-0.7,0.3-1,0.2h-0.6c-0.9,0-1.3-0.4-1.3-1.2v-9.7h-2.6v4.4
		c0,1.3-0.1,2.6-0.4,3.9c-0.2,1.1-0.7,2.2-1.3,3.1l-0.8-0.7C608.7,455,609.1,454,609.4,453z"/>
</g>
<g>
	<path class="st5" d="M503.1,462.1c-7.2,0-13-5.8-13-13s5.8-13,13-13c6.4,0,11.9,4.7,12.9,11h2c-1.1-8.2-8.7-14-16.9-12.9
		s-14,8.7-12.9,16.9c1.1,8.2,8.7,14,16.9,12.9c6.7-0.9,12-6.2,12.9-12.9h-2C514.9,457.4,509.5,462.1,503.1,462.1z M510.1,445.1l-7-4
		l-7,4v2l2,1.1l0,0l5,2.9l5-2.9l0,0l2-1.1V445.1z M503.1,448.8l-4.7-2.7l4.7-2.7l4.7,2.7L503.1,448.8z M496.1,449.4v3.7l7,4l7-4
		v-3.7l-2,1.1v1.4l-5,2.9l-5-2.9v-1.4L496.1,449.4z"/>
</g>
<g>
	<g>
		<path class="st6" d="M399.4,579.8c0.7,3.7,2.9,6.8,6.1,8.7l-0.7,0.9c-2.8-1.8-4.8-4.4-5.8-7.6c-0.9,3.2-3.1,5.9-5.9,7.6l-0.6-0.9
			c3.9-2.4,5.9-5.6,6-9.6c0-1,0-1.7,0-2.2h1C399.5,577.9,399.5,578.9,399.4,579.8z"/>
	</g>
	<g>
		<path class="st6" d="M407.7,578.6v-1h10.8v1h-4.9v9.3h5.5v1h-12.2v-1h5.6v-9.3H407.7z"/>
	</g>
	<g>
		<path class="st6" d="M421.5,579.9l-0.6-0.8c0.7-0.7,1.3-1.6,1.7-2.6l0.9,0.2c-0.1,0.3-0.2,0.6-0.4,0.9h4v0.9H425
			c0,0.5-0.1,0.9-0.1,1.4h2.6v0.9h-2.8c0,0.1-0.1,0.3-0.1,0.4c0.9,0.5,1.8,1,2.7,1.6l-0.7,0.7c-0.7-0.6-1.5-1.2-2.3-1.6
			c-0.7,1.1-1.7,2-2.9,2.4l-0.7-0.8c1.2-0.4,2.2-1.3,2.9-2.4l0.1-0.3h-2.8v-0.9h3.1c0.1-0.4,0.1-0.9,0.1-1.4h-1.4
			C422.3,579.1,421.9,579.5,421.5,579.9z M431.7,589.6h-1V589h-6.9v0.6h-1v-5.8h9L431.7,589.6z M430.7,585.9v-1.3h-6.9v1.3H430.7z
			 M430.7,588v-1.2h-6.9v1.2H430.7z M432.7,577.6v5.1h-4.6v-5.1H432.7z M431.7,578.5h-2.6v3.3h2.6V578.5z"/>
	</g>
	<g>
		<path class="st6" d="M441.7,580.6l-0.8,0.6c-0.2-0.3-0.3-0.6-0.5-0.9c-1.8,0.3-3.6,0.4-5.4,0.5l-0.3-0.8c0.2-0.1,0.3-0.1,0.5-0.3
			c0.9-0.9,1.6-1.9,2.2-3l1,0.3c-0.5,1.1-1.3,2.1-2.1,2.9c1.2-0.1,2.4-0.2,3.7-0.3c-0.3-0.5-0.6-0.9-1-1.4l0.8-0.5
			C440.4,578.6,441.1,579.6,441.7,580.6z M436.5,589.6h-1v-7.9h5.2v6.6c0,0.8-0.4,1.2-1.2,1.2h-1.1l-0.2-1h1c0.3,0,0.5-0.1,0.5-0.4
			V588v-1.1h-3.2L436.5,589.6L436.5,589.6z M439.7,582.6h-3.2v1.4h3.2V582.6z M436.5,586.1h3.2v-1.3h-3.2V586.1z M443.3,582.8
			c-0.9,0-1.3-0.5-1.3-1.4v-4.7h1v1.8c1.5-0.2,2.8-0.5,3.8-0.7l0.3,0.9c-1.3,0.3-2.7,0.6-4.1,0.8v1.8c0,0.5,0.2,0.7,0.6,0.7h1.8
			c0.2,0,0.4-0.1,0.6-0.2c0.2-0.5,0.3-1,0.3-1.6l0.9,0.3c0,0.7-0.2,1.5-0.5,2.1c-0.3,0.2-0.7,0.4-1.1,0.3L443.3,582.8z M443,588
			c0,0.3,0.2,0.4,0.5,0.4h1.9c0.2,0,0.4-0.1,0.6-0.2c0.2-0.5,0.3-1,0.3-1.6l0.9,0.3c0,0.7-0.2,1.4-0.5,2.1c-0.3,0.2-0.7,0.4-1.1,0.3
			h-2.4c-0.8,0-1.2-0.4-1.2-1.1v-5h1v1.7c1.3-0.1,2.5-0.4,3.8-0.7l0.3,0.9c-1.3,0.4-2.7,0.6-4.1,0.7L443,588L443,588z"/>
	</g>
</g>
<g id="_编组_13_2_">
	<g>
		<path class="st5" d="M361,591.1h2c0-1.7,1.3-3,3-3h4c1.7,0,3,1.3,3,3h2c0-2.8-2.2-5-5-5h-4C363.2,586.1,361,588.3,361,591.1z
			 M356.7,574.1H380v15h2v-17h-25.3c-0.6-1-1.8-1.3-2.7-0.7c-1,0.6-1.3,1.8-0.7,2.7c0.6,1,1.8,1.3,2.7,0.7
			C356.3,574.7,356.5,574.4,356.7,574.1z M381,593.1c-0.7,0-1.4,0.4-1.7,1H356v-15h-2v17h25.3c0.6,1,1.8,1.3,2.7,0.7
			s1.3-1.8,0.7-2.7C382.4,593.5,381.7,593.1,381,593.1z M372,581.1c0-2.2-1.8-4-4-4s-4,1.8-4,4s1.8,4,4,4S372,583.3,372,581.1z
			 M366,581.1c0-1.1,0.9-2,2-2s2,0.9,2,2s-0.9,2-2,2S366,582.2,366,581.1z"/>
	</g>
</g>
<g>
	<g>
		<path class="st6" d="M223.7,580.4c0.1-0.8,0.2-1.7,0.2-2.5v-1.1h1v0.9c0,0.9-0.1,1.8-0.2,2.8h5.8v1H225c0.9,3.1,3,5.7,5.8,7.3
			l-0.6,0.8c-2.8-1.7-4.8-4.3-5.8-7.3c-0.7,3.2-2.8,5.9-5.8,7.4l-0.6-0.8c2.9-1.4,5-4.2,5.6-7.4h-5.3v-1L223.7,580.4z"/>
	</g>
	<g>
		<path class="st6" d="M235.6,583.3c-0.1,0.3-0.2,0.5-0.3,0.8h2.9v0.8c-0.3,0.9-0.8,1.7-1.5,2.4c0.7,0.3,1.3,0.6,1.9,1l-0.5,0.8
			c-0.7-0.4-1.4-0.8-2.2-1.1c-1.1,0.7-2.2,1.2-3.5,1.5l-0.5-0.8c1-0.3,2.1-0.6,3-1.2c-0.6-0.3-1.3-0.5-2-0.8c0.4-0.6,0.7-1.2,1-1.8
			h-1.6v-0.8h2c0.1-0.3,0.2-0.6,0.3-0.9L235.6,583.3z M235.1,579.4v-2.7h0.9v2.7h2.5v0.9H236v0.2c0.8,0.4,1.5,0.8,2.3,1.3l-0.5,0.8
			c-0.7-0.6-1.3-1-1.8-1.3v1.8h-0.9v-2.7c-0.5,1.2-1.4,2.2-2.5,2.9l-0.5-0.8c0.9-0.5,1.7-1.2,2.3-2.1h-2v-0.9L235.1,579.4z
			 M234.3,578.7l-0.7,0.3c-0.3-0.6-0.6-1.2-0.9-1.8l0.8-0.3C233.8,577.5,234,578.1,234.3,578.7z M237.4,585H235
			c-0.2,0.5-0.5,0.9-0.8,1.3c0.6,0.2,1.1,0.4,1.6,0.6C236.5,586.4,237,585.7,237.4,585L237.4,585z M238.4,577.2
			c-0.3,0.6-0.7,1.2-1.1,1.8l-0.7-0.4c0.4-0.5,0.8-1.1,1.1-1.8L238.4,577.2z M239.9,582c-0.2,0.6-0.5,1.2-0.8,1.7l-0.6-0.8
			c0.9-2,1.5-4.1,1.7-6.3l1,0.2c-0.1,0.7-0.2,1.4-0.3,2h3.7v1h-0.9c0,2.1-0.5,4.1-1.3,6c0.6,1.2,1.5,2.1,2.6,2.9l-0.5,0.8
			c-1-0.8-1.9-1.7-2.5-2.8c-0.7,1.1-1.5,2.1-2.6,2.8l-0.5-0.8c1.1-0.7,2-1.7,2.6-2.9C240.7,584.6,240.2,583.3,239.9,582L239.9,582z
			 M240.4,580.5c0.3,1.5,0.7,2.9,1.4,4.2c0.6-1.6,0.9-3.3,0.9-5h-2.1L240.4,580.5z"/>
	</g>
	<g>
		<path class="st6" d="M246.5,589.4l-0.2-1c0.4,0,0.7,0.1,1.1,0.1s0.5-0.2,0.5-0.6v-3.4c-0.6,0.2-1.1,0.4-1.6,0.6l-0.2-1
			c0.6-0.2,1.3-0.3,1.9-0.6v-3.2h-1.7v-1h1.7v-2.7h1v2.7h1.3v1h-1.4v2.8c0.5-0.2,0.9-0.4,1.3-0.6v1c-0.4,0.2-0.9,0.4-1.3,0.6v4.1
			c0,0.8-0.4,1.2-1.2,1.2L246.5,589.4L246.5,589.4z M250.2,589.5l-0.8-0.7c1.1-2.2,1.6-4.7,1.5-7.2v-4.4h7.4v3.4h-2.6v1.7h3v0.9h-3
			v1.7h2.4v4.6h-0.9v-0.7h-3.8v0.7h-0.9v-4.6h2.3v-1.7h-2.9C251.8,585.4,251.2,587.5,250.2,589.5L250.2,589.5z M252,580.6v1
			c0,0.2,0,0.5,0,0.7h2.8v-1.7H252z M252,578.2v1.5h5.4v-1.5H252z M257.1,587.9v-2.1h-3.8v2.1H257.1z"/>
	</g>
	<g>
		<path class="st6" d="M265.3,577.5c-0.5,1-1.2,2-2,2.9s-1.8,1.7-2.8,2.4l-0.5-0.9c1-0.6,1.8-1.3,2.6-2.2c0.7-0.8,1.3-1.8,1.9-2.8
			L265.3,577.5z M262,583.2v-1h8.6c0,1.4-0.1,2.8-0.3,4.3c-0.1,0.8-0.3,1.6-0.8,2.2c-0.5,0.4-1.1,0.7-1.7,0.7h-2.4l-0.3-1
			c0.8,0,1.5,0,2.2,0c0.7,0.1,1.4-0.3,1.8-1c0.4-1.4,0.6-2.8,0.5-4.3h-3.8c-0.2,1.3-0.7,2.5-1.4,3.6c-0.8,1.1-1.9,2-3.1,2.6
			l-0.6-0.8c1.1-0.5,2-1.3,2.8-2.3c0.7-1,1.1-2.1,1.3-3.2L262,583.2z M272.8,581.9l-0.7,0.8c-2-1.3-3.6-3.2-4.5-5.4l0.9-0.5
			C269.3,578.9,270.8,580.7,272.8,581.9L272.8,581.9z"/>
	</g>
	<g>
		<path class="st6" d="M277.3,589.5h-1v-7.2c-0.4,1.4-1.1,2.7-1.9,3.9l-0.5-1.1c1.1-1.4,1.8-3,2.3-4.7h-2v-1h2v-2.8h1v2.8h1.9v1
			h-1.9v0.7c0.7,0.7,1.3,1.5,2,2.3l-0.5,0.8c-0.5-0.7-0.9-1.4-1.5-2.1L277.3,589.5z M286.3,577.6c-1.7,0.6-3.5,0.9-5.3,1v2.5h5.7v1
			h-2.1v7.4h-1v-7.4h-2.7v0.2c0,2.5-0.7,5-2.1,7.1l-0.7-0.7c1.3-1.9,1.9-4.1,1.9-6.4v-4.5c2,0,3.9-0.3,5.8-1L286.3,577.6z"/>
	</g>
</g>
<g id="_复合路径_14_2_">
	<path class="st5" d="M208.4,597.1c-0.7,0-1.4-0.4-1.7-1h-25.3v-17h2v15h23.3c0.6-1,1.8-1.3,2.7-0.7s1.3,1.8,0.7,2.7
		C209.8,596.7,209.1,597.1,208.4,597.1z M198.4,581.1h5v9h1v2h-19v-2h1v-5h5v5h1v-12h5v12h1V581.1z M200.4,590.1h1v-7h-1V590.1z
		 M189.4,587.1h-1v3h1V587.1z M194.4,580.1v10h1v-10H194.4z M207.4,574.1h-23.3c-0.6,1-1.8,1.3-2.7,0.7c-1-0.6-1.3-1.8-0.7-2.7
		c0.6-1,1.8-1.3,2.7-0.7c0.3,0.2,0.6,0.4,0.7,0.7h25.3v17h-2V574.1z"/>
</g>
<g>
	<g>
		<path class="st6" d="M571.3,582.6v1h-6.7c-0.9,2-2,3.8-3.4,5.5c2.5-0.1,5-0.4,7.5-0.7c-0.5-0.9-1.1-1.8-1.7-2.8l0.8-0.5
			c1.1,1.6,2.1,3.3,3,5.1l-0.9,0.6c-0.2-0.5-0.5-1-0.7-1.5c-2.8,0.4-5.9,0.6-9.3,0.9l-0.3-1c0.1,0,0.2-0.1,0.2-0.1
			c0.9-0.7,2.1-2.5,3.6-5.5h-4.7v-1H571.3z M570.1,578.7v1h-10v-1H570.1z"/>
	</g>
	<g>
		<path class="st6" d="M576.8,583.1c0.4-0.8,0.8-1.5,1.2-2.3l1,0.3c-0.4,0.7-0.7,1.4-1,2h7.2v1h-2.8c-0.5,1.3-1.1,2.5-2,3.5
			c1.5,0.6,3,1.4,4.4,2.2l-0.7,0.9c-1.4-0.8-2.9-1.6-4.5-2.3c-1.7,1.5-4,2.2-6.2,2.2l-0.6-0.9c2.1,0.1,4.1-0.5,5.8-1.7
			c-1.3-0.6-2.6-1-3.9-1.5c0.5-0.8,1-1.6,1.4-2.3h-3.4v-1L576.8,583.1z M584.8,582.3h-1v-2h-9.6v2h-1v-3h5.3
			c-0.2-0.4-0.4-0.9-0.6-1.3l1.1-0.2c0.2,0.5,0.4,1,0.6,1.5h5.2V582.3z M576.2,586.1c1.1,0.3,2.2,0.7,3.2,1.2c0.8-0.9,1.4-2,1.8-3.1
			h-3.9C577,584.8,576.6,585.5,576.2,586.1L576.2,586.1z"/>
	</g>
	<g>
		<path class="st6" d="M593.4,577.9c1.7,1.8,3.8,3.3,6.1,4.4l-0.5,0.9c-2.3-1.1-4.3-2.5-6-4.3c-1.7,1.8-3.7,3.3-6,4.4l-0.5-0.9
			c2.3-1.1,4.4-2.6,6.1-4.4L593.4,577.9z M596.9,582.3v1h-3.4v2.4h4v1h-4v2.5h5.3v1h-11.6v-1h5.3v-2.6h-4.1v-1h4.1v-2.3h-3.4v-1
			L596.9,582.3L596.9,582.3z"/>
	</g>
</g>
<g>
	<g id="_编组_14_2_">
		<g>
			<path class="st5" d="M546,575.6v9.2c-0.1,1.7-0.6,3.4-1.4,4.8c-1.8,3.4-5.1,5.7-9.6,6.9c-10.7-2.7-11-11.4-11-11.7v-13.2h24v-2
				h-26v15.1c0,0,0.1,10.8,13,13.8c12.9-3,13-13.8,13-13.8v-9.2L546,575.6L546,575.6z"/>
		</g>
	</g>
	<g id="_编组_15_2_">
		<g>
			<path class="st5" d="M540.5,580.6v-1l0,0c0-2.8-2.2-5-5-5s-5,2.2-5,5l0,0v1h-1v9h12v-9H540.5z M535.5,576.6c1.7,0,3,1.3,3,3l0,0
				v1h-6v-1l0,0C532.5,577.9,533.8,576.6,535.5,576.6z M539.5,587.6h-8v-5h8V587.6z"/>
		</g>
	</g>
</g>
<path class="st5" d="M719,352.1c0,1.1-0.9,2-2,2c-0.2,0-0.4,0-0.6-0.1l-3.4,2v0.1c0,1.1-0.9,2-2,2s-2-0.9-2-2V356l-3.4-2
	c-0.2,0.1-0.4,0.1-0.6,0.1c-1.1,0-2-0.9-2-2c0-0.7,0.4-1.3,1-1.7v-3.5c-1-0.5-1.3-1.7-0.8-2.7s1.7-1.3,2.7-0.8
	c0.2,0.1,0.4,0.2,0.5,0.4l2.6-1.5v-0.1c0-1.1,0.9-2,2-2s2,0.9,2,2v0.1l2.6,1.5c0.7-0.8,2-0.9,2.8-0.1c0.8,0.7,0.9,2,0.1,2.8
	c-0.2,0.2-0.3,0.3-0.5,0.4v3.5C718.6,350.7,719,351.4,719,352.1z M706,347.3v3.1c0.2,0.1,0.4,0.3,0.5,0.5l2.6-1.7L706,347.3z
	 M710,343.8L710,343.8l-3,1.7l0,0l3,1.8V343.8z M710,351l-2.8,1.8l2.7,1.6l0.1-0.1V351L710,351z M716,350.4v-3.3l-3.1,2l2.7,1.6
	C715.7,350.6,715.8,350.5,716,350.4L716,350.4z M712,354.4L712,354.4l3-1.7l-3-1.8V354.4z M712.1,343.8L712.1,343.8l-0.1,3.6
	l2.9-1.9L712.1,343.8z M723.8,347.1c-1.1-7.1-7.8-11.9-14.8-10.8c-7.1,1.1-11.9,7.8-10.8,14.8c1.1,7.1,7.8,11.9,14.8,10.8
	c5.6-0.9,10-5.3,10.8-10.8h2c-1.1,8.2-8.7,14-16.9,12.9s-14-8.7-12.9-16.9c1.1-8.2,8.7-14,16.9-12.9c6.7,0.9,12,6.2,12.9,12.9H723.8
	z"/>
<path class="st8" d="M670,348.6h-5v-1h5V348.6z M660,348.6h-5v-1h5V348.6z M650,348.6h-5v-1h5V348.6z"/>
<g>
	<g>
		<path class="st6" d="M229.6,649.5h-1v-0.9h-7.4v0.9h-1v-11.2h3c0.3-0.5,0.5-1.1,0.7-1.7l1,0.1c-0.2,0.5-0.4,1.1-0.7,1.6h5.4V649.5
			z M228.6,641.4v-2.1h-7.4v2.1H228.6z M228.6,644.5v-2.1h-7.4v2.1H228.6z M228.6,647.7v-2.3h-7.4v2.3H228.6z"/>
	</g>
	<g>
		<path class="st6" d="M238.8,641.4v1h-3.2c-0.4,1.6-0.9,3.1-1.5,4.6c1.1-0.2,2.2-0.6,3.3-1c-0.4-0.8-0.7-1.4-1.1-2.1l0.9-0.4
			c0.7,1.3,1.3,2.6,1.9,3.9l-0.9,0.5c-0.1-0.4-0.3-0.7-0.4-1c-1.6,0.6-3.2,1-4.9,1.3l-0.2-1l0.2-0.1c0.8-1.5,1.3-3.1,1.7-4.7h-2v-1
			H238.8L238.8,641.4z M238.2,637.7v1h-5.1v-1H238.2z M241.9,636.7v2.5h3.1c0,4.6-0.1,7.5-0.2,8.5c-0.1,0.9-0.9,1.6-1.8,1.6h-0.1
			h-1.3l-0.2-0.9c0.5,0,1,0.1,1.4,0.1c0.6,0,1-0.4,1-1.1c0-0.7,0.1-3.2,0.2-7.2h-2.1v0.2c0,4.1-1,7.2-2.9,9.1l-0.8-0.7
			c1.8-1.7,2.7-4.5,2.7-8.4v-0.2h-1.7v-1h1.7v-2.5L241.9,636.7L241.9,636.7z"/>
	</g>
	<g>
		<path class="st6" d="M251.7,637c-0.5,1.2-1.1,2.3-1.9,3.3v9.2h-1v-8c-0.6,0.7-1.3,1.4-2.1,2l-0.3-1c1.9-1.6,3.4-3.6,4.3-5.9
			L251.7,637z M254.5,649.3c-0.7,0.1-1.4-0.4-1.5-1.1c0-0.1,0-0.2,0-0.4v-4.3c-0.6,0.3-1.2,0.6-1.8,0.9l-0.5-1
			c0.8-0.4,1.5-0.7,2.2-1.2v-5.6h1v5c1.4-0.9,2.7-2.1,3.9-3.3l0.7,0.8c-1.4,1.4-2.9,2.7-4.6,3.7v4.7c0,0.4,0.2,0.7,0.7,0.7h2.3
			c0.3,0,0.6-0.1,0.8-0.3c0.2-0.8,0.3-1.6,0.3-2.4l0.9,0.3c0,1-0.1,2-0.5,2.9c-0.4,0.4-0.9,0.6-1.4,0.5L254.5,649.3z"/>
	</g>
	<g>
		<path class="st6" d="M267.4,649.2c-0.7,0-1.5-0.1-2.2-0.2c-0.6-0.2-1.1-0.5-1.5-1c-0.1-0.2-0.3-0.3-0.5-0.3
			c-0.3,0-0.9,0.6-1.7,1.9l-0.8-0.7c0.5-0.9,1.2-1.6,2-2.1v-4.3h-2v-0.9h2.9v5.2c0.1,0.1,0.2,0.2,0.3,0.3c0.3,0.4,0.7,0.7,1.1,0.9
			c0.6,0.2,1.2,0.3,1.9,0.3s1.6,0,2.7,0h2.1c0.7,0,1.2,0,1.6-0.1l-0.2,1h-3.3L267.4,649.2L267.4,649.2z M264.1,639l-0.7,0.7
			c-0.7-0.8-1.5-1.6-2.4-2.2l0.7-0.7C262.5,637.5,263.3,638.2,264.1,639L264.1,639z M273.1,640.7v1h-4.4c-0.5,1.5-1.2,2.9-2.1,4.2
			c1.5-0.2,3-0.4,4.5-0.7c-0.3-0.8-0.7-1.5-1.1-2.3l0.8-0.3c0.8,1.4,1.5,2.9,2,4.4l-0.9,0.2c-0.1-0.4-0.3-0.9-0.5-1.2
			c-2,0.4-4,0.7-6,0.9l-0.2-0.9c0.6-0.2,1.4-1.6,2.5-4.4h-2.9v-1L273.1,640.7z M272.1,637.5v0.9h-6.4v-0.9H272.1z"/>
	</g>
	<g>
		<path class="st6" d="M279.4,647.7c-1.5,0.6-3.1,1-4.7,1.3l-0.1-1c1.7-0.3,3.3-0.7,4.9-1.3L279.4,647.7z M277.8,637
			c-0.5,1.5-1.2,2.9-2,4.3c0.6-0.1,1.2-0.2,1.8-0.3l0.8-1.7l0.9,0.3c-0.8,1.8-1.8,3.5-2.9,5.2c0.9-0.2,1.9-0.5,2.8-0.9v0.9
			c-1.3,0.5-2.6,0.9-4,1.2l-0.3-0.9c0.2-0.1,0.3-0.2,0.5-0.3c0.7-0.9,1.3-1.9,1.8-2.9c-0.7,0.1-1.5,0.3-2.2,0.4l-0.2-0.9
			c0.2-0.1,0.3-0.2,0.4-0.4c0.7-1.4,1.4-2.9,1.8-4.4L277.8,637z M281.4,649.5h-1v-8.3c-0.4,0.7-0.8,1.3-1.3,1.9l-0.3-1
			c1.1-1.6,1.9-3.5,2.4-5.4l1,0.2c-0.2,0.7-0.5,1.5-0.8,2.2h2.5c-0.2-0.7-0.5-1.5-0.8-2.2l1-0.3c0.3,0.8,0.6,1.6,0.7,2.3l-0.4,0.1
			h2.5v1h-2.2v1.9h2v0.9h-2v1.9h2v0.9h-2v2.1h2.6v0.9h-6L281.4,649.5L281.4,649.5z M281.4,640v1.9h2.5V640H281.4z M281.4,644.8h2.5
			v-1.9h-2.5V644.8z M281.4,647.8h2.5v-2.1h-2.5V647.8z"/>
	</g>
</g>
<g>
	<path class="st5" d="M181.9,634.1h4v-2h-6v24h6v-2h-4V634.1z M203.9,632.1v2h4v20h-4v2h6v-24H203.9z M185.9,639.1h15v-2h-15V639.1z
		 M203.9,637.1h-2v2h2V637.1z M189.9,642.1h11v-2h-11V642.1z M193.9,645.1h7v-2h-7V645.1z M189.9,648.1h11v-2h-11V648.1z
		 M185.9,651.1h15v-2h-15V651.1z M203.9,649.1h-2v2h2V649.1z"/>
</g>
<g id="_编组_19_2_">
	<g id="_路径_2_2_">
		<polygon class="st5" points="372.1,645.1 378.1,648.1 378.1,646.1 372.1,643.1 		"/>
	</g>
</g>
<g>
	<g>
		<g>
			<path class="st6" d="M399.7,638.1c1.3-0.1,2.7,0.4,3.6,1.4c0.8,1,1.2,2.3,1.1,3.6c0.1,1.3-0.4,2.6-1.2,3.6c-1,1-2.3,1.5-3.6,1.4
				h-3.5v-10H399.7z M397.3,647.1h2.1c1.1,0.1,2.1-0.3,2.9-1c0.7-0.8,1-1.9,0.9-3c0.1-1.1-0.2-2.1-0.9-3c-0.8-0.7-1.8-1.1-2.9-1
				h-2.2L397.3,647.1L397.3,647.1z"/>
		</g>
		<g>
			<path class="st6" d="M411.5,641.9c0.6,0.9,0.9,1.9,0.8,3h-5.7c0,0.7,0.2,1.3,0.7,1.9c0.4,0.5,1,0.7,1.6,0.7c0.5,0,1-0.1,1.4-0.5
				c0.3-0.3,0.6-0.7,0.7-1.1h1.1c-0.1,0.7-0.5,1.3-1,1.7c-0.6,0.5-1.5,0.8-2.3,0.8c-0.9,0-1.8-0.3-2.5-1c-1.2-1.6-1.2-3.9,0-5.5
				c0.6-0.8,1.5-1.2,2.5-1.1C409.9,640.7,410.9,641.1,411.5,641.9z M407.3,642.3c-0.4,0.5-0.7,1.1-0.7,1.7h4.5
				c-0.1-1.5-0.9-2.3-2.3-2.3C408.3,641.6,407.7,641.8,407.3,642.3z"/>
		</g>
		<g>
			<path class="st6" d="M414.1,640.9l2.1,5.8l2.1-5.8h1.2l-2.7,7.2h-1.2l-2.7-7.2H414.1z"/>
		</g>
		<g>
			<path class="st6" d="M428.5,639.4c1.6,2.2,1.6,5.2,0,7.4c-1.9,2-5.1,2-7.1,0l0,0c-1.6-2.2-1.6-5.2,0-7.4
				C423.3,637.4,426.4,637.4,428.5,639.4C428.4,639.4,428.4,639.4,428.5,639.4L428.5,639.4z M422.2,640.1c-1.2,1.8-1.2,4.2,0,6
				c0.7,0.8,1.7,1.2,2.7,1.2s2-0.4,2.7-1.2c0.7-0.9,1-1.9,0.9-3c0-1.1-0.3-2.1-0.9-3c-1.4-1.5-3.8-1.6-5.2-0.2
				C422.3,640,422.2,640,422.2,640.1L422.2,640.1z"/>
		</g>
		<g>
			<path class="st6" d="M437.1,641.8c0.6,0.8,0.9,1.7,0.8,2.7c0,0.9-0.3,1.9-0.8,2.7c-0.6,0.8-1.5,1.2-2.4,1.2c-1,0-2-0.6-2.4-1.5
				v4.1h-1.1v-10h1v1.2c0.5-0.9,1.4-1.4,2.4-1.4C435.6,640.7,436.5,641.1,437.1,641.8z M432.8,642.5c-0.4,0.6-0.6,1.3-0.5,2v0.1
				c0,0.7,0.2,1.4,0.6,2c0.4,0.5,1,0.8,1.6,0.8c0.7,0,1.4-0.3,1.8-0.8c0.4-0.6,0.6-1.3,0.5-2.1c0-0.7-0.2-1.4-0.5-2
				c-0.4-0.6-1.1-0.9-1.8-0.9C433.8,641.6,433.1,641.9,432.8,642.5z"/>
		</g>
		<g>
			<path class="st6" d="M444.9,642.9h-1.1c-0.1-0.4-0.3-0.8-0.6-1c-0.4-0.2-0.9-0.4-1.3-0.3c-0.4,0-0.8,0.1-1.2,0.3
				c-0.3,0.1-0.5,0.4-0.5,0.8c0,0.3,0.2,0.6,0.6,0.8c0.5,0.2,1,0.4,1.5,0.5c0.7,0.1,1.3,0.4,1.9,0.7c0.5,0.3,0.9,0.9,0.9,1.5
				c0,1.5-1,2.2-3.1,2.2s-2.9-0.8-3.1-2.5h1.1c0,0.5,0.3,0.9,0.6,1.2c0.4,0.3,0.9,0.4,1.4,0.3c1.3,0,2-0.4,2-1.2
				c0-0.4-0.3-0.8-0.7-0.9c-0.5-0.2-1-0.3-1.5-0.5c-0.6-0.1-1.2-0.3-1.8-0.6c-0.5-0.3-0.8-0.8-0.8-1.4s0.3-1.2,0.8-1.5
				c0.6-0.4,1.3-0.6,2-0.5C443.7,640.7,444.7,641.4,444.9,642.9z"/>
		</g>
	</g>
	<g id="_编组_16_2_">
		<g id="_编组_17_2_">
			<g>
				<path class="st5" d="M385.1,650.1v-18h-30v24h30v-2h-28v-15h26v11H385.1z M357.1,637.1v-3h26v3H357.1z"/>
			</g>
		</g>
	</g>
	<g id="_路径__2_">
		<polygon class="st5" points="368.1,645.1 362.1,648.1 362.1,646.1 368.1,643.1 		"/>
	</g>
	<g id="_编组_18_2_">
		<g>
			<polygon class="st5" points="362.1,648.1 368.1,651.1 368.1,649.1 362.1,646.1 			"/>
		</g>
	</g>
	<g id="_编组_20_2_">
		<g>
			<polygon class="st5" points="378.1,648.1 372.1,651.1 372.1,649.1 378.1,646.1 			"/>
		</g>
	</g>
</g>
<path class="st6" d="M772.9,336.3v1h-3.5v9h-1.1v-9h-3.5v-1H772.9z"/>
<path class="st6" d="M354.7,282h1.1v6.4l3.6-3.4h1.5l-3.2,2.9l3.5,4.3h-1.4l-2.8-3.6l-1.1,1v2.6h-1.1L354.7,282L354.7,282z"/>
<path class="st6" d="M362.1,285h1.1v4.4c0,0.7,0.1,1.2,0.4,1.5s0.8,0.5,1.4,0.5c0.5,0,0.9-0.2,1.3-0.6s0.6-0.9,0.7-1.5v-4.4h1.1v7.2
	H367v-1c-0.6,0.9-1.3,1.3-2.3,1.3c-1.8,0-2.6-1-2.6-3V285L362.1,285z"/>
<path class="st6" d="M369.9,282h1.1v4.3c0.6-1,1.4-1.5,2.4-1.5s1.8,0.4,2.4,1.2c0.5,0.7,0.8,1.6,0.8,2.6c0,1.1-0.3,2-0.8,2.7
	c-0.6,0.7-1.4,1.1-2.4,1.1c-1.1,0-1.9-0.5-2.4-1.4v1.2h-1L369.9,282L369.9,282z M371.6,286.5c-0.4,0.5-0.6,1.2-0.6,2v0.1
	c0,0.8,0.2,1.5,0.5,2c0.4,0.6,1,0.8,1.7,0.8c0.8,0,1.4-0.3,1.8-0.9c0.3-0.5,0.5-1.2,0.5-2.1s-0.2-1.5-0.5-2c-0.4-0.6-1-0.8-1.8-0.8
	C372.5,285.7,372,286,371.6,286.5z"/>
<path class="st6" d="M383.7,286c0.5,0.7,0.8,1.7,0.8,3h-5.7c0.1,0.8,0.3,1.5,0.7,1.9s0.9,0.7,1.6,0.7c0.6,0,1.1-0.1,1.4-0.4
	c0.3-0.2,0.5-0.6,0.7-1.1h1.1c-0.2,0.7-0.5,1.3-1,1.7c-0.6,0.5-1.4,0.8-2.3,0.8c-1,0-1.9-0.3-2.5-1s-1-1.6-1-2.8
	c0-1.1,0.3-2,0.9-2.7c0.6-0.8,1.4-1.1,2.5-1.1C382.3,284.8,383.1,285.2,383.7,286z M379.6,286.4c-0.4,0.4-0.6,1-0.7,1.7h4.5
	c-0.1-1.5-0.9-2.3-2.3-2.3C380.5,285.7,379.9,285.9,379.6,286.4z"/>
<path class="st6" d="M390,285v1.1c-0.3-0.1-0.7-0.2-1.1-0.2c-0.6,0-1,0.2-1.4,0.7s-0.6,1-0.6,1.7v3.8h-1.1v-7.2h1.1v1.3
	c0.2-0.4,0.4-0.8,0.8-1c0.4-0.3,0.8-0.5,1.3-0.5C389.5,284.8,389.8,284.9,390,285z"/>
<path class="st6" d="M397.1,287.8v4.5H396v-4.4c0-1.4-0.6-2.1-1.9-2.1c-0.5,0-0.9,0.2-1.3,0.5c-0.4,0.4-0.6,0.9-0.6,1.6v4.4h-1.1
	v-7.2h1.1v1.1c0.3-0.4,0.6-0.7,1-0.9s0.8-0.3,1.3-0.3C396.2,284.8,397.1,285.8,397.1,287.8z"/>
<path class="st6" d="M404.4,286c0.5,0.7,0.8,1.7,0.8,3h-5.7c0.1,0.8,0.3,1.5,0.7,1.9s0.9,0.7,1.6,0.7c0.6,0,1.1-0.1,1.4-0.4
	c0.3-0.2,0.5-0.6,0.7-1.1h1.1c-0.2,0.7-0.5,1.3-1,1.7c-0.6,0.5-1.4,0.8-2.3,0.8c-1,0-1.9-0.3-2.5-1s-1-1.6-1-2.8
	c0-1.1,0.3-2,0.9-2.7c0.6-0.8,1.4-1.1,2.5-1.1C403,284.8,403.8,285.2,404.4,286z M400.3,286.4c-0.4,0.4-0.6,1-0.7,1.7h4.5
	c-0.1-1.5-0.9-2.3-2.3-2.3C401.2,285.7,400.7,285.9,400.3,286.4z"/>
<path class="st6" d="M408.5,282.7v2.3h1.8v0.9h-1.8v4.6c0,0.3,0.1,0.5,0.2,0.6s0.3,0.2,0.5,0.2h0.9v0.9H409c-0.6,0-1-0.2-1.3-0.5
	c-0.2-0.3-0.3-0.7-0.3-1.2v-4.6h-1.5V285h1.5v-1.9L408.5,282.7z"/>
<path class="st6" d="M417.2,286c0.5,0.7,0.8,1.7,0.8,3h-5.7c0.1,0.8,0.3,1.5,0.7,1.9s0.9,0.7,1.6,0.7c0.6,0,1.1-0.1,1.4-0.4
	c0.3-0.2,0.5-0.6,0.7-1.1h1.1c-0.2,0.7-0.5,1.3-1,1.7c-0.6,0.5-1.4,0.8-2.3,0.8c-1,0-1.9-0.3-2.5-1s-1-1.6-1-2.8
	c0-1.1,0.3-2,0.9-2.7c0.6-0.8,1.4-1.1,2.5-1.1C415.7,284.8,416.6,285.2,417.2,286z M413,286.4c-0.4,0.4-0.6,1-0.7,1.7h4.5
	c-0.1-1.5-0.9-2.3-2.3-2.3C413.9,285.7,413.4,285.9,413,286.4z"/>
<path class="st6" d="M424.8,287.1h-1.1c-0.1-0.5-0.3-0.8-0.6-1c-0.3-0.2-0.8-0.3-1.3-0.3s-0.9,0.1-1.2,0.3c-0.3,0.2-0.5,0.4-0.5,0.8
	c0,0.3,0.2,0.6,0.6,0.8c0.2,0.1,0.7,0.3,1.5,0.5c0.9,0.2,1.5,0.4,1.9,0.7c0.6,0.4,0.9,0.9,0.9,1.5c0,1.5-1,2.2-3.1,2.2
	c-1.9,0-2.9-0.8-3.1-2.5h1.1c0.1,0.6,0.3,1,0.6,1.2s0.8,0.3,1.4,0.3c1.3,0,1.9-0.4,1.9-1.2c0-0.4-0.2-0.7-0.7-0.9
	c-0.2-0.1-0.7-0.3-1.5-0.5c-0.9-0.2-1.5-0.4-1.8-0.6c-0.6-0.3-0.8-0.8-0.8-1.4s0.3-1.1,0.8-1.5s1.2-0.5,2-0.5
	C423.7,284.8,424.7,285.6,424.8,287.1z"/>
<path id="XMLID_674_" class="st6" d="M557.6,643.5c0.2,0.1,0.3,0.3,0.3,0.6s-0.1,0.4-0.3,0.6s-0.4,0.2-0.6,0.2
	c-0.2,0-0.4-0.1-0.6-0.2c-0.2-0.2-0.3-0.4-0.3-0.6c0-0.2,0.1-0.4,0.3-0.6s0.4-0.2,0.6-0.2C557.2,643.3,557.4,643.3,557.6,643.5z"/>
<path id="XMLID_676_" class="st6" d="M561.3,643.5c0.2,0.1,0.3,0.3,0.3,0.6s-0.1,0.4-0.3,0.6s-0.4,0.2-0.6,0.2
	c-0.2,0-0.4-0.1-0.6-0.2c-0.2-0.2-0.3-0.4-0.3-0.6c0-0.2,0.1-0.4,0.3-0.6s0.4-0.2,0.6-0.2S561.1,643.3,561.3,643.5z"/>
<path id="XMLID_678_" class="st6" d="M565,643.5c0.2,0.1,0.3,0.3,0.3,0.6s-0.1,0.4-0.3,0.6s-0.4,0.2-0.6,0.2c-0.2,0-0.4-0.1-0.6-0.2
	c-0.2-0.2-0.3-0.4-0.3-0.6c0-0.2,0.1-0.4,0.3-0.6s0.4-0.2,0.6-0.2S564.8,643.3,565,643.5z"/>
<g>
	<g>
		<path class="st6" d="M518.4,180.4h8.2v1h-3.5v9H522v-9h-3.5L518.4,180.4L518.4,180.4z"/>
		<path class="st6" d="M531.9,183.1v1.1c-0.3-0.1-0.7-0.2-1.1-0.2c-0.6,0-1,0.2-1.4,0.7s-0.6,1-0.6,1.7v3.8h-1.1V183h1.1v1.3
			c0.2-0.4,0.4-0.8,0.8-1c0.4-0.3,0.8-0.5,1.3-0.5C531.3,183,531.6,183,531.9,183.1z"/>
		<path class="st6" d="M532.8,183.2h1.1v4.4c0,0.7,0.1,1.2,0.4,1.5c0.3,0.3,0.8,0.5,1.4,0.5c0.5,0,0.9-0.2,1.3-0.6
			c0.4-0.4,0.6-0.9,0.7-1.5v-4.4h1.1v7.2h-1.1v-1.1c-0.6,0.9-1.4,1.3-2.4,1.3c-1.8,0-2.6-1-2.6-3L532.8,183.2L532.8,183.2z"/>
		<path class="st6" d="M546.2,185.2h-1.1c-0.1-0.5-0.3-0.8-0.6-1s-0.8-0.3-1.3-0.3s-0.9,0.1-1.2,0.3s-0.5,0.4-0.5,0.8
			c0,0.3,0.2,0.6,0.6,0.8c0.2,0.1,0.7,0.3,1.5,0.5c0.9,0.2,1.5,0.4,1.9,0.7c0.6,0.4,0.9,0.9,0.9,1.5c0,1.5-1,2.2-3.1,2.2
			c-1.9,0-2.9-0.8-3.1-2.5h1.1c0.1,0.6,0.3,1,0.6,1.2s0.8,0.3,1.4,0.3c1.3,0,1.9-0.4,1.9-1.2c0-0.4-0.2-0.7-0.7-0.9
			c-0.2-0.1-0.7-0.3-1.5-0.5c-0.9-0.2-1.5-0.4-1.8-0.6c-0.6-0.3-0.8-0.8-0.8-1.4c0-0.6,0.3-1.1,0.8-1.5s1.2-0.5,2-0.5
			C545,183,546,183.7,546.2,185.2z"/>
		<path class="st6" d="M549.7,180.8v2.3h1.8v0.9h-1.8v4.6c0,0.3,0.1,0.5,0.2,0.6c0.1,0.1,0.3,0.2,0.5,0.2h0.9v0.9h-1.1
			c-0.6,0-1-0.2-1.3-0.5c-0.2-0.3-0.3-0.7-0.3-1.2V184h-1.5v-0.9h1.5v-1.9L549.7,180.8z"/>
		<path class="st6" d="M558.9,181c0.7,0.5,1,1.3,1.1,2.4h-1.1c-0.1-0.7-0.4-1.3-0.8-1.6c-0.4-0.4-1.1-0.5-1.9-0.5
			c-0.8,0-1.3,0.1-1.7,0.4c-0.5,0.3-0.7,0.7-0.7,1.3c0,0.5,0.3,0.9,0.9,1.2c0.2,0.1,0.9,0.4,1.8,0.6c1.3,0.4,2.2,0.7,2.6,1
			c0.8,0.5,1.2,1.2,1.2,2.1c0,0.9-0.4,1.6-1.1,2.1c-0.7,0.5-1.7,0.7-2.8,0.7c-1.2,0-2.1-0.3-2.8-0.8c-0.8-0.6-1.2-1.5-1.3-2.7h1.1
			c0.1,0.9,0.4,1.5,0.9,1.9s1.2,0.6,2,0.6s1.5-0.2,2-0.5s0.8-0.7,0.8-1.3s-0.3-1.1-1-1.5c-0.3-0.1-1-0.4-2.1-0.7
			c-1.2-0.4-1.9-0.6-2.3-0.8c-0.8-0.4-1.1-1.1-1.1-1.9c0-0.9,0.4-1.6,1.1-2c0.7-0.4,1.5-0.7,2.5-0.7
			C557.4,180.2,558.2,180.5,558.9,181z"/>
		<path class="st6" d="M569.6,181.7c0.8,1,1.2,2.2,1.2,3.7s-0.4,2.7-1.2,3.7l-0.1,0.1c0.3,0.4,0.7,0.9,1.1,1.6l-0.8,0.7
			c-0.5-0.7-0.8-1.2-1.1-1.6c-0.8,0.5-1.7,0.8-2.7,0.8c-1.5,0-2.7-0.5-3.5-1.5c-0.8-0.9-1.2-2.2-1.2-3.7s0.4-2.8,1.2-3.7
			c0.9-1,2.1-1.5,3.6-1.5S568.8,180.7,569.6,181.7z M563.4,182.4c-0.6,0.8-0.9,1.8-0.9,3s0.3,2.2,0.9,3c0.6,0.8,1.5,1.2,2.7,1.2
			c0.8,0,1.5-0.2,2.1-0.6c-0.6-0.7-1.1-1.4-1.7-2l0.7-0.7c0.6,0.7,1.2,1.3,1.7,1.9c0.6-0.7,0.8-1.7,0.8-2.9c0-1.3-0.3-2.3-0.9-3
			c-0.6-0.8-1.5-1.1-2.7-1.1C564.9,181.2,564,181.6,563.4,182.4z"/>
		<path class="st6" d="M572.4,180.4h1.1v9h5.8v1h-6.9L572.4,180.4L572.4,180.4z"/>
	</g>
</g>
<g>
	<g>
		<path class="st6" d="M374.8,180.4h4.5c0.9,0,1.7,0.2,2.2,0.7c0.5,0.4,0.8,1.1,0.8,1.8c0,0.6-0.1,1-0.4,1.5
			c-0.3,0.4-0.7,0.6-1.2,0.8c0.6,0.1,1.2,0.4,1.5,0.8c0.4,0.4,0.6,1,0.6,1.6c0,1-0.3,1.7-1,2.2c-0.6,0.4-1.4,0.6-2.4,0.6H375v-10
			H374.8z M376,181.4v3.4h3c0.7,0,1.2-0.1,1.6-0.4c0.4-0.3,0.6-0.7,0.6-1.3s-0.2-1-0.5-1.3c-0.4-0.3-0.9-0.4-1.6-0.4H376z
			 M376,185.7v3.7h3.2c0.7,0,1.2-0.1,1.7-0.4c0.5-0.3,0.7-0.8,0.7-1.4c0-0.6-0.2-1.1-0.6-1.4c-0.4-0.3-1-0.4-1.8-0.4H376V185.7z"/>
		<path class="st6" d="M391.4,181.1c0.8,0.6,1.2,1.4,1.3,2.4h-1.1c-0.1-0.7-0.5-1.3-1.1-1.7c-0.5-0.4-1.2-0.6-2-0.6
			c-1.2,0-2.1,0.4-2.7,1.2s-0.9,1.8-0.9,3c0,1.3,0.3,2.2,0.9,3s1.5,1.2,2.7,1.2c0.8,0,1.5-0.2,2-0.6c0.6-0.5,1-1.1,1.2-2h1.1
			c-0.2,1.2-0.7,2.1-1.6,2.7c-0.8,0.6-1.7,0.9-2.8,0.9c-1.5,0-2.7-0.5-3.6-1.5c-0.7-0.9-1.1-2.1-1.1-3.6s0.4-2.7,1.1-3.7
			c0.8-1.1,2-1.6,3.6-1.6C389.7,180.2,390.6,180.5,391.4,181.1z"/>
		<path class="st6" d="M402.4,181.7c0.8,1,1.2,2.2,1.2,3.7s-0.4,2.7-1.2,3.7c-0.9,1-2.1,1.5-3.6,1.5s-2.7-0.5-3.5-1.5
			c-0.8-0.9-1.2-2.2-1.2-3.7s0.4-2.8,1.2-3.7c0.9-1,2.1-1.5,3.6-1.5S401.5,180.7,402.4,181.7z M396.1,182.4c-0.6,0.8-0.9,1.8-0.9,3
			s0.3,2.2,0.9,3s1.5,1.2,2.7,1.2c1.1,0,2-0.4,2.7-1.1c0.6-0.8,0.9-1.8,0.9-3c0-1.3-0.3-2.3-0.9-3c-0.6-0.8-1.5-1.1-2.7-1.1
			C397.7,181.2,396.8,181.6,396.1,182.4z"/>
		<path class="st6" d="M411.2,181c0.7,0.5,1,1.3,1.1,2.4h-1.1c-0.1-0.7-0.4-1.3-0.8-1.6c-0.4-0.4-1.1-0.5-1.9-0.5s-1.3,0.1-1.7,0.4
			c-0.5,0.3-0.7,0.7-0.7,1.3c0,0.5,0.3,0.9,0.9,1.2c0.2,0.1,0.9,0.4,1.8,0.6c1.3,0.4,2.2,0.7,2.6,1c0.8,0.5,1.2,1.2,1.2,2.1
			c0,0.9-0.4,1.6-1.1,2.1s-1.7,0.7-2.8,0.7c-1.2,0-2.1-0.3-2.8-0.8c-0.8-0.6-1.2-1.5-1.3-2.7h1.1c0.1,0.9,0.4,1.5,0.9,1.9
			s1.2,0.6,2,0.6s1.5-0.2,2-0.5s0.8-0.7,0.8-1.3s-0.3-1.1-1-1.5c-0.3-0.1-1-0.4-2.1-0.7c-1.2-0.4-1.9-0.6-2.3-0.8
			c-0.8-0.4-1.1-1.1-1.1-1.9c0-0.9,0.4-1.6,1.1-2s1.5-0.7,2.5-0.7C409.7,180.2,410.6,180.5,411.2,181z"/>
	</g>
</g>
<g>
	<path class="st6" d="M217.7,179.6h6.7v1h-5.5v3.4h5.2v1h-5.2v4.6h-1.1V179.6z"/>
	<path class="st6" d="M231.1,183c0.4,0.5,0.6,1.1,0.6,2v4.6h-1v-1.2c-0.3,0.4-0.7,0.7-1.1,1c-0.6,0.3-1.1,0.4-1.8,0.4
		c-0.7,0-1.3-0.2-1.7-0.6c-0.4-0.4-0.7-0.9-0.7-1.5c0-0.9,0.4-1.6,1.1-2c0.6-0.4,1.4-0.5,2.4-0.5l1.7,0v-0.2c0-1.2-0.6-1.8-1.9-1.8
		c-0.6,0-1,0.1-1.4,0.4c-0.4,0.3-0.6,0.6-0.7,1.1h-1.1c0.1-0.8,0.5-1.4,1.1-1.8c0.5-0.4,1.2-0.6,2.2-0.6
		C229.8,182.2,230.6,182.4,231.1,183z M230.6,186l-1.7,0c-1.6,0-2.4,0.6-2.4,1.7c0,0.4,0.1,0.6,0.4,0.9c0.3,0.2,0.6,0.3,1.1,0.3
		c0.7,0,1.3-0.2,1.9-0.7c0.5-0.4,0.7-1,0.7-1.6V186z"/>
	<path class="st6" d="M233.5,179.4h1.1v4.3c0.6-1,1.4-1.5,2.4-1.5s1.8,0.4,2.4,1.2c0.5,0.7,0.8,1.6,0.8,2.6c0,1.1-0.3,2-0.8,2.7
		c-0.6,0.8-1.4,1.1-2.5,1.1c-1.1,0-1.9-0.5-2.4-1.4v1.2h-1V179.4z M235.2,183.9c-0.4,0.5-0.6,1.2-0.6,2v0.1c0,0.8,0.2,1.5,0.5,2
		c0.4,0.6,1,0.8,1.7,0.8c0.8,0,1.4-0.3,1.8-0.9c0.3-0.5,0.5-1.2,0.5-2.1c0-0.9-0.2-1.5-0.5-2c-0.4-0.6-1-0.8-1.8-0.8
		C236.1,183.1,235.5,183.4,235.2,183.9z"/>
	<path class="st6" d="M245.8,182.3v1.1c-0.3-0.1-0.7-0.2-1.1-0.2c-0.6,0-1,0.2-1.4,0.7c-0.4,0.5-0.6,1-0.6,1.7v3.8h-1.1v-7.2h1.1
		v1.3c0.2-0.4,0.4-0.8,0.8-1c0.4-0.3,0.8-0.5,1.3-0.5C245.3,182.2,245.6,182.2,245.8,182.3z"/>
	<path class="st6" d="M248.3,179.9c0.2,0.1,0.3,0.3,0.3,0.6c0,0.2-0.1,0.4-0.3,0.6c-0.2,0.2-0.4,0.2-0.6,0.2s-0.4-0.1-0.6-0.2
		c-0.2-0.2-0.2-0.4-0.2-0.6c0-0.3,0.1-0.5,0.2-0.6c0.2-0.2,0.4-0.2,0.6-0.2C248,179.6,248.2,179.7,248.3,179.9z M247.2,182.4h1.1
		v7.2h-1.1V182.4z"/>
	<path class="st6" d="M255.6,182.8c0.5,0.4,0.9,1.1,1,2h-1.1c-0.1-0.6-0.3-1-0.7-1.3c-0.4-0.3-0.8-0.4-1.4-0.4
		c-0.7,0-1.3,0.3-1.7,0.8c-0.4,0.5-0.6,1.2-0.6,2.1c0,0.9,0.2,1.6,0.6,2.1c0.4,0.5,0.9,0.8,1.7,0.8c1.2,0,1.9-0.6,2.1-1.9h1.1
		c-0.2,0.9-0.5,1.6-1.1,2.1s-1.3,0.7-2.2,0.7c-1.1,0-1.9-0.4-2.5-1.1c-0.6-0.7-0.9-1.6-0.9-2.7s0.3-2,0.9-2.7
		c0.6-0.8,1.5-1.1,2.5-1.1C254.4,182.2,255.1,182.4,255.6,182.8z"/>
</g>
</svg>
