<?xml version="1.0" encoding="UTF-8"?>
<svg width="32px" height="32px" viewBox="0 0 32 32" version="1.1" xmlns="http://www.w3.org/2000/svg" xmlns:xlink="http://www.w3.org/1999/xlink">
    <!-- Generator: Sketch 52.6 (67491) - http://www.bohemiancoding.com/sketch -->
    <title>密钥管理服务-32px</title>
    <desc>Created with Sketch.</desc>
    <g id="密钥管理服务-32px" stroke="none" stroke-width="1" fill="none" fill-rule="evenodd">
        <rect id="Rectangle-Copy" fill="#444444" opacity="0" x="0" y="0" width="32" height="32"></rect>
        <g id="Group" transform="translate(1.000000, 3.000000)" fill="#00A4FF">
            <path d="M21,5 L10,5 L10,13 L21,13 L21,5 Z M19,11 L12,11 L12,7 L19,7 L19,11 Z M13.9375,10 L17.0625,10 C17.5833333,10 18,9.55555556 18,9 C18,8.44444444 17.5833333,8 17.0625,8 L13.9375,8 C13.4166667,8 13,8.44444444 13,9 C13,9.55555556 13.4166667,10 13.9375,10 Z" id="Shape" fill-rule="nonzero"></path>
            <polygon id="Path" fill-rule="nonzero" points="18 18.9802479 18 20.7511134 15.5 23 13 20.7511134 13 14 14.7741935 14 14.7741935 20.0683463 15.5 20.7212489 16.2258065 20.0683463 16.2258065 19.573393 15.259588 18.2043701 16.2258065 16.8353472 16.2258065 14 18 14 18 17.4284923 17.4926337 18.2043701"></polygon>
            <path d="M8.52388938,1.71 L7.52388938,-8.52651283e-14 C3.01750742,2.71366793 0.261944689,7.58963195 0.261944689,12.85 C0.261944689,18.110368 3.01750742,22.9863321 7.52388938,25.7 L8.52388938,23.99 C4.60724105,21.6440464 2.20827019,17.4154806 2.20388938,12.85 C2.20455613,12.1551442 2.26069153,11.4680927 2.36920399,10.794295 C2.97366179,7.04097219 5.20334608,3.6989048 8.52388938,1.71 Z" id="_复合路径_-path-copy-3"></path>
            <path d="M22.2619447,1.72 C26.1659052,4.07222177 28.5528632,8.29716553 28.5528632,12.855 C28.5528632,17.4128345 26.1659052,21.6377782 22.2619447,23.99 L23.2619447,25.7 C27.7683266,22.9863321 30.5238894,18.110368 30.5238894,12.85 C30.5238894,7.58963195 27.7683266,2.71366793 23.2619447,-9.05941988e-14 L22.2619447,1.72 Z" id="_复合路径_-path-copy-4"></path>
        </g>
    </g>
</svg>