<svg id="图层_1" data-name="图层 1" xmlns="http://www.w3.org/2000/svg" xmlns:xlink="http://www.w3.org/1999/xlink" width="830" height="152" viewBox="0 0 830 152">
  <defs>
    <linearGradient id="未命名的渐变" x1="145.263" y1="-57.737" x2="85.674" y2="-117.326" gradientTransform="translate(0 142)" gradientUnits="userSpaceOnUse">
      <stop offset="0" stop-color="#006eff"/>
      <stop offset="1" stop-color="#00c8dc"/>
    </linearGradient>
    <linearGradient id="未命名的渐变_2" data-name="未命名的渐变 2" x1="116.41" y1="-39.14" x2="68.857" y2="-86.693" gradientTransform="translate(0 142)" gradientUnits="userSpaceOnUse">
      <stop offset="0" stop-color="#0063ff"/>
      <stop offset="1" stop-color="#00c8de"/>
    </linearGradient>
    <linearGradient id="未命名的渐变_3" data-name="未命名的渐变 3" x1="121.485" y1="-44.215" x2="73.932" y2="-91.768" xlink:href="#未命名的渐变_2"/>
    <linearGradient id="未命名的渐变_4" data-name="未命名的渐变 4" x1="120.435" y1="-43.165" x2="72.882" y2="-90.718" xlink:href="#未命名的渐变_2"/>
    <linearGradient id="未命名的渐变_5" data-name="未命名的渐变 5" x1="119.335" y1="-42.065" x2="71.782" y2="-89.618" xlink:href="#未命名的渐变_2"/>
    <linearGradient id="未命名的渐变_6" data-name="未命名的渐变 6" x1="118.285" y1="-41.015" x2="70.732" y2="-88.568" xlink:href="#未命名的渐变_2"/>
    <linearGradient id="未命名的渐变_7" data-name="未命名的渐变 7" x1="117.185" y1="-39.915" x2="69.632" y2="-87.468" xlink:href="#未命名的渐变_2"/>
    <linearGradient id="未命名的渐变_8" data-name="未命名的渐变 8" x1="122.835" y1="-45.565" x2="75.282" y2="-93.118" xlink:href="#未命名的渐变_2"/>
    <linearGradient id="未命名的渐变_9" data-name="未命名的渐变 9" x1="126.585" y1="-49.315" x2="79.032" y2="-96.868" xlink:href="#未命名的渐变_2"/>
    <linearGradient id="未命名的渐变_10" data-name="未命名的渐变 10" x1="130.585" y1="-53.315" x2="83.032" y2="-100.868" xlink:href="#未命名的渐变_2"/>
    <linearGradient id="未命名的渐变_11" data-name="未命名的渐变 11" x1="134.585" y1="-57.315" x2="87.032" y2="-104.868" xlink:href="#未命名的渐变_2"/>
    <linearGradient id="未命名的渐变_12" data-name="未命名的渐变 12" x1="138.585" y1="-61.315" x2="91.032" y2="-108.868" xlink:href="#未命名的渐变_2"/>
    <linearGradient id="未命名的渐变_13" data-name="未命名的渐变 13" x1="142.585" y1="-65.315" x2="95.032" y2="-112.868" xlink:href="#未命名的渐变_2"/>
    <linearGradient id="未命名的渐变_14" data-name="未命名的渐变 14" x1="146.26" y1="-68.99" x2="98.707" y2="-116.543" xlink:href="#未命名的渐变_2"/>
    <linearGradient id="未命名的渐变_15" data-name="未命名的渐变 15" x1="145.535" y1="-68.265" x2="97.982" y2="-115.818" xlink:href="#未命名的渐变_2"/>
    <linearGradient id="未命名的渐变_16" data-name="未命名的渐变 16" x1="144.435" y1="-67.165" x2="96.882" y2="-114.718" xlink:href="#未命名的渐变_2"/>
    <linearGradient id="未命名的渐变_17" data-name="未命名的渐变 17" x1="120.135" y1="-42.865" x2="72.582" y2="-90.418" xlink:href="#未命名的渐变_2"/>
    <linearGradient id="未命名的渐变_18" data-name="未命名的渐变 18" x1="124.085" y1="-46.815" x2="76.532" y2="-94.368" xlink:href="#未命名的渐变_2"/>
    <linearGradient id="未命名的渐变_19" data-name="未命名的渐变 19" x1="144.51" y1="-67.24" x2="96.957" y2="-114.793" xlink:href="#未命名的渐变_2"/>
    <linearGradient id="未命名的渐变_20" data-name="未命名的渐变 20" x1="452.45" y1="270.05" x2="388.7" y2="333.8" gradientTransform="matrix(1, 0, 0, -1, 0, 358)" xlink:href="#未命名的渐变"/>
    <linearGradient id="未命名的渐变_22" data-name="未命名的渐变 22" x1="765.319" y1="-78.693" x2="677.194" y2="-136.818" xlink:href="#未命名的渐变_2"/>
    <linearGradient id="未命名的渐变_23" data-name="未命名的渐变 23" x1="749.669" y1="-54.965" x2="661.544" y2="-113.09" xlink:href="#未命名的渐变_2"/>
    <linearGradient id="未命名的渐变_24" data-name="未命名的渐变 24" x1="452.825" y1="-53.575" x2="387.145" y2="-119.255" gradientTransform="translate(0 142)" gradientUnits="userSpaceOnUse">
      <stop offset="0" stop-color="#06f"/>
      <stop offset="1" stop-color="#00c8dc"/>
    </linearGradient>
    <linearGradient id="未命名的渐变_25" data-name="未命名的渐变 25" x1="456.875" y1="-57.625" x2="391.195" y2="-123.305" xlink:href="#未命名的渐变_24"/>
    <linearGradient id="未命名的渐变_26" data-name="未命名的渐变 26" x1="757.773" y1="-58.668" x2="661.273" y2="-124.668" xlink:href="#未命名的渐变_24"/>
    <linearGradient id="未命名的渐变_27" data-name="未命名的渐变 27" x1="753.351" y1="-52.203" x2="656.851" y2="-118.203" xlink:href="#未命名的渐变_24"/>
    <linearGradient id="未命名的渐变_28" data-name="未命名的渐变 28" x1="147.753" y1="93.253" x2="81.866" y2="159.14" gradientTransform="matrix(1, 0, 0, -1, 0, 180)" xlink:href="#未命名的渐变_24"/>
    <linearGradient id="未命名的渐变_29" data-name="未命名的渐变 29" x1="148.741" y1="94.241" x2="82.853" y2="160.128" gradientTransform="matrix(1, 0, 0, -1, 0, 180)" xlink:href="#未命名的渐变_24"/>
  </defs>
  <title>数据分析</title>
  <g style="isolation: isolate">
    <path d="M74.1,125.6v-1h4.3v1H76.8v6.3c.6-.2,1.2-.4,1.7-.6v1a31.073,31.073,0,0,1-4.3,1.4l-.3-1c.6-.2,1.2-.3,1.8-.5v-6.7H74.1Zm9.1,2.6v2.4a5.757,5.757,0,0,1-1.2,3.6,7.571,7.571,0,0,1-3.6,2l-.5-.9a6.055,6.055,0,0,0,3.4-1.8,5.646,5.646,0,0,0,1-3v-2.4l.9.1Zm3.5-4.3v1H83.4l-.3,1.5h3V133h-1v-5.7H80.6V133h-1v-6.6H82l.3-1.5H78.9v-1Zm.1,11.6-.7.7a19.41,19.41,0,0,0-2.9-2.6l.7-.6A12.18,12.18,0,0,1,86.8,135.5Z" style="fill: #333"/>
    <path d="M99,136.1H98v-.9H90.6v.9h-1V123.9H99Zm-1-8.9v-2.3H90.6v2.3Zm0,3.4v-2.5H90.6v2.5Zm0,3.6v-2.6H90.6v2.6Z" style="fill: #333"/>
    <path d="M103.7,125.6v10.5h-1V125.6Zm2.8,0-.9.5a9.424,9.424,0,0,0-1.8-2.5l.9-.4A10.765,10.765,0,0,1,106.5,125.6Zm-1.8,3.3v-1h4.2v-2.1h1v2.1h1.9v1h-1.9v5c0,.9-.4,1.3-1.2,1.3h-1.4l-.2-1c.4,0,.9.1,1.3.1s.6-.2.6-.7v-3.7a11.048,11.048,0,0,1-4.1,3.9l-.5-.9a10.388,10.388,0,0,0,4.4-4.1l-4.1.1Zm6.6,7.1-.3-.9h1.2c.4,0,.6-.3.6-.8v-9.4h-5.4V124h6.4v10.6a1.224,1.224,0,0,1-1.4,1.4Z" style="fill: #333"/>
    <path d="M117.8,128.4v-3H116v-1h4.5v1h-1.8v3h1.6v1h-1.6v3.3a14.579,14.579,0,0,0,1.9-.7v1a42.075,42.075,0,0,1-4.6,1.4l-.3-1c.7-.1,1.3-.3,1.9-.4v-3.6H116v-1Zm10.5-4.5v1h-2.5l-.6,1.8v9.4h-1v-7.5a15.231,15.231,0,0,1-3,3.7l-.6-.8a14.613,14.613,0,0,0,4.3-6.6h-3.6v-1Zm.6,7.6-.8.6a34.784,34.784,0,0,0-2.7-3.9l.8-.5C127.3,129.2,128.2,130.5,128.9,131.5Z" style="fill: #333"/>
    <path d="M135.2,124.1a18.169,18.169,0,0,1-2,2.9,13.91,13.91,0,0,1-2.8,2.4l-.5-.9a10.437,10.437,0,0,0,2.6-2.1,11.227,11.227,0,0,0,1.8-2.8Zm-3.2,5.7v-1h8.4a22.643,22.643,0,0,1-.3,4.2,4.321,4.321,0,0,1-.7,2.2,2.132,2.132,0,0,1-1.5.7h-2.5l-.3-1h2.3a1.421,1.421,0,0,0,1.5-1,15.79,15.79,0,0,0,.5-4.3h-3.5a10.024,10.024,0,0,1-1.4,3.6,9.733,9.733,0,0,1-3.2,2.7l-.6-.8a8.908,8.908,0,0,0,2.9-2.3,8.57,8.57,0,0,0,1.3-3.2H132Zm10.6-1.3-.7.8a10.663,10.663,0,0,1-4.5-5.4l.9-.5A10.616,10.616,0,0,0,142.6,128.5Z" style="fill: #333"/>
    <path d="M147.2,136.1h-1v-7.2a17.624,17.624,0,0,1-1.9,3.9l-.4-1.1a13.731,13.731,0,0,0,2.3-4.7h-2v-1h2v-2.7h1V126h1.9v1h-1.9v.8c.7.7,1.3,1.5,2,2.3l-.5.8q-.9-1.35-1.5-2.1v7.3Zm9-11.9a17.817,17.817,0,0,1-5.3,1v2.5h5.7v1h-2.1v7.4h-1v-7.4h-2.6v.2a12.215,12.215,0,0,1-2.1,7.1l-.7-.7a11.567,11.567,0,0,0,1.9-6.4v-4.5a17.106,17.106,0,0,0,5.8-1.1Z" style="fill: #333"/>
  </g>
  <g style="isolation: isolate">
    <path d="M384.1,133.8a8.312,8.312,0,0,0,3.7-2.9h-4.1a16.355,16.355,0,0,1-4.4,1.3l-.6-.9c3.1-.3,5.3-1.2,6.8-2.8l.9.5a10.948,10.948,0,0,1-1.1,1h3.8v.8q-3,4.95-11.1,5.1l-.4-1a19.109,19.109,0,0,0,5.7-.8c-.5-.6-1-1.2-1.5-1.7l.9-.4A21.976,21.976,0,0,0,384.1,133.8Zm-.1-10-.8.8h4v.8q-2.25,4.05-8.4,4.5l-.4-.9a15.947,15.947,0,0,0,3.4-.6,19.2,19.2,0,0,0-1.4-1.5l.9-.4a19.2,19.2,0,0,1,1.4,1.5,7.566,7.566,0,0,0,3.4-2.6H382a17.633,17.633,0,0,1-3.9,1.5l-.6-.9a10.171,10.171,0,0,0,5.6-2.7Z" style="fill: #333"/>
    <path d="M395.7,134.4a29.076,29.076,0,0,1-4.7,1.3l-.1-1a21.852,21.852,0,0,0,4.9-1.3l-.1,1Zm-1.6-10.7a25.2,25.2,0,0,1-2,4.3l1.8-.3c.3-.5.5-1.1.8-1.7l.9.3a40.521,40.521,0,0,1-2.9,5.2,18.045,18.045,0,0,0,2.8-.9v.9a16.446,16.446,0,0,1-4,1.2l-.3-.9c.2-.1.3-.2.5-.3a15,15,0,0,0,1.8-2.9c-.7.1-1.5.3-2.2.4l-.3-.9a.781.781,0,0,0,.4-.4,25.25,25.25,0,0,0,1.8-4.4Zm3.6,12.5h-1v-8.3a12.734,12.734,0,0,1-1.3,1.9l-.3-1a17.5,17.5,0,0,0,2.4-5.4l1,.2a14.16,14.16,0,0,1-.7,2.2h2.5a19.457,19.457,0,0,0-.8-2.2l1-.3a11.882,11.882,0,0,1,.7,2.3l-.4.1h2.5v1h-2.2v1.9h2v.9h-2v1.9h2v.9h-2v2.1h2.5v.9h-6l.1.9Zm0-9.5v1.9h2.5v-1.9Zm0,4.8h2.5v-1.9h-2.5Zm0,3h2.5v-2.1h-2.5Z" style="fill: #333"/>
    <path d="M408.2,123.7a24.667,24.667,0,0,1-2.1,4.3l1.8-.3c.3-.5.5-1,.8-1.5l.9.4a32.561,32.561,0,0,1-3.1,5c1-.3,2-.6,3-1v.9a19.3,19.3,0,0,1-4.2,1.2l-.3-.9c.2-.1.3-.2.5-.3a23.644,23.644,0,0,0,2-2.8c-.8.1-1.5.3-2.3.4l-.3-.9a.781.781,0,0,0,.4-.4,22.425,22.425,0,0,0,2-4.4Zm1.3,10.3a22.513,22.513,0,0,1-4.4,1.6l-.1-1a23.716,23.716,0,0,0,4.5-1.5Zm2.6-3.9a10.838,10.838,0,0,1-.7,3.9,5.257,5.257,0,0,1-2,2.2l-.6-.8a4.689,4.689,0,0,0,1.8-1.9,11.717,11.717,0,0,0,.6-3.5h.9v.1Zm-2.3-1.5c.1,0,.1-.1.2-.1a7.557,7.557,0,0,0,1.8-2.7h-2.4v-1H413c-.2-.5-.4-1-.6-1.4l1-.2c.2.5.4,1,.6,1.6h3.2v1h-4.3a24.027,24.027,0,0,1-1.6,2.7c1.3-.1,2.6-.3,3.9-.5-.3-.4-.6-.9-1-1.4l.8-.5a20.6,20.6,0,0,1,2.2,3.2l-.8.5c-.2-.4-.4-.7-.6-1.1a45.414,45.414,0,0,1-5.7.6Zm5.3,7.3c-.8,0-1.3-.4-1.3-1.2v-4.8h1v4.6a.462.462,0,0,0,.3.5h.9a.472.472,0,0,0,.5-.5,8.663,8.663,0,0,0,.1-1.8l.9.3a6.513,6.513,0,0,1-.3,2.5c-.2.3-.6.4-1.2.5h-.9Z" style="fill: #333"/>
    <path d="M431.5,129.2v1H418.9v-1Z" style="fill: #333"/>
    <path d="M438.1,124.2a18.169,18.169,0,0,1-2,2.9,13.911,13.911,0,0,1-2.8,2.4l-.5-.9a10.437,10.437,0,0,0,2.6-2.1,11.226,11.226,0,0,0,1.8-2.8Zm-3.2,5.7v-1h8.4a22.645,22.645,0,0,1-.3,4.2,4.321,4.321,0,0,1-.7,2.2,2.132,2.132,0,0,1-1.5.7h-2.5l-.3-1h2.3a1.421,1.421,0,0,0,1.5-1,15.791,15.791,0,0,0,.5-4.3h-3.5a10.023,10.023,0,0,1-1.4,3.6,9.733,9.733,0,0,1-3.2,2.7l-.6-.8a8.908,8.908,0,0,0,2.9-2.3,8.57,8.57,0,0,0,1.3-3.2h-2.9v.2Zm10.6-1.3-.7.8a10.662,10.662,0,0,1-4.5-5.4l.9-.5A10.1,10.1,0,0,0,445.5,128.6Z" style="fill: #333"/>
    <path d="M450,136.2h-1V129a17.624,17.624,0,0,1-1.9,3.9l-.4-1.1a13.731,13.731,0,0,0,2.3-4.7h-2v-1h2v-2.7h1v2.7h1.9v1H450v.8c.7.7,1.3,1.5,2,2.3l-.5.8q-.9-1.35-1.5-2.1Zm9.1-11.9a17.817,17.817,0,0,1-5.3,1v2.5h5.7v1h-2.1v7.4h-1v-7.4h-2.6v.2a12.215,12.215,0,0,1-2.1,7.1l-.7-.7a11.567,11.567,0,0,0,1.9-6.4v-4.5a17.105,17.105,0,0,0,5.8-1.1Z" style="fill: #333"/>
  </g>
  <g style="isolation: isolate">
    <path d="M675.8,124.5c.1-.4.1-.9.2-1.3l1,.1c0,.4-.1.8-.1,1.2h5.4v1h-5.6a5.021,5.021,0,0,0-.2,1.2h4v8.2h2.1v.9H670.2v-.9h2v-8.2h3.3a5.021,5.021,0,0,0,.2-1.2h-5.3v-1Zm3.6,4.3v-1.2H673v1.2Zm0,2v-1.2H673v1.2Zm0,2v-1.2H673v1.2Zm0,2v-1.2H673v1.2Z" style="fill: #333"/>
    <path d="M687,129.4a16.708,16.708,0,0,0,.7-4h-3.5v-1h4.4v.8a20.121,20.121,0,0,1-.9,5.2c.6.9,1.1,1.8,1.6,2.6l-.7.7a15.918,15.918,0,0,0-1.3-2.2,12.988,12.988,0,0,1-2.8,4.1l-.6-.7a12.81,12.81,0,0,0,2.8-4.3,35.849,35.849,0,0,0-2.5-3.3l.7-.7C685.6,127.5,686.3,128.4,687,129.4Zm6.1-3.6v2.7a10.288,10.288,0,0,1-1.1,5,7.319,7.319,0,0,1-3.4,2.7l-.5-.9a6.741,6.741,0,0,0,3.3-2.5,8.863,8.863,0,0,0,.9-4.3v-2.7Zm2.4,5.7h-1v-6.8h-3.9v6.8h-1v-7.7h5.9Zm-1.6,4.3c-.8,0-1.1-.4-1.1-1.2v-3.1h1v2.9a.472.472,0,0,0,.5.5h.9a.764.764,0,0,0,.5-.2,6.341,6.341,0,0,0,.3-1.7l.9.3a5.316,5.316,0,0,1-.5,2.2,1.493,1.493,0,0,1-1,.3Z" style="fill: #333"/>
    <path d="M701.5,129.9c-.1.3-.2.5-.3.8h2.9v.8a5.357,5.357,0,0,1-1.6,2.4,11.4,11.4,0,0,1,1.9,1l-.5.8a14.955,14.955,0,0,0-2.2-1.1,12.673,12.673,0,0,1-3.5,1.6l-.5-.8a20.918,20.918,0,0,0,3-1.1c-.6-.3-1.3-.5-1.9-.8a16.173,16.173,0,0,0,1-1.8h-1.7v-.9h2l.3-.9Zm-.5-4v-2.7h.9v2.7h2.5v.9h-2.5v.2c.8.4,1.5.8,2.3,1.3l-.5.8a12.887,12.887,0,0,0-1.8-1.3v1.8H701v-2.7a6.853,6.853,0,0,1-2.5,2.9l-.5-.8a5.927,5.927,0,0,0,2.3-2.1h-2V126l2.7-.1Zm-.8-.6-.7.3a15.034,15.034,0,0,0-.9-1.8l.8-.3A14.171,14.171,0,0,0,700.2,125.3Zm3,6.2h-2.4a5.671,5.671,0,0,1-.8,1.3c.6.2,1.1.4,1.6.6A3.678,3.678,0,0,0,703.2,131.5Zm1.1-7.7a8.711,8.711,0,0,1-1.1,1.8l-.7-.4a17.387,17.387,0,0,0,1.1-1.8Zm1.5,4.8c-.3.6-.5,1.2-.8,1.7l-.6-.8a19.062,19.062,0,0,0,1.7-6.3l1,.2c-.1.7-.2,1.4-.3,2h3.7v1h-.9a15.6,15.6,0,0,1-1.3,6,8.2,8.2,0,0,0,2.6,2.9l-.5.8a9.67,9.67,0,0,1-2.5-2.8,8.715,8.715,0,0,1-2.6,2.8l-.5-.8a9.058,9.058,0,0,0,2.6-2.9A14.484,14.484,0,0,1,705.8,128.6Zm.5-1.5a14.778,14.778,0,0,0,1.4,4.2,17.863,17.863,0,0,0,.9-5h-2.1Z" style="fill: #333"/>
    <path d="M712.4,136l-.2-1c.4,0,.7.1,1.1.1s.5-.2.5-.6v-3.4c-.6.2-1.1.4-1.7.6l-.3-1c.6-.2,1.3-.4,1.9-.6v-3.2H712v-1h1.7v-2.6h1v2.6H716v1h-1.3v2.8c.4-.2.9-.4,1.3-.6v1c-.4.2-.9.4-1.3.6v4.1a1.061,1.061,0,0,1-1.2,1.2Zm3.7.1-.8-.7a15.094,15.094,0,0,0,1.5-7.2v-4.4h7.4v3.4h-2.6v1.7h3v.9h-3v1.7H724v4.6h-1v-.7h-3.8v.7h-.9v-4.6h2.3v-1.7h-2.9A13.976,13.976,0,0,1,716.1,136.1Zm1.7-8.9v1.7h2.8v-1.7Zm0-2.4v1.6h5.4v-1.6Zm5.2,9.7v-2.1h-3.8v2.1Z" style="fill: #333"/>
    <path d="M726.6,136.1l-.8-.7a14.874,14.874,0,0,0,1.5-6.8v-4.7h10.4v3.4h-1.9v1.4H738v.9h-2.2v1.5h2.7v.9H734a7.456,7.456,0,0,0,1.4,1.7,6.479,6.479,0,0,0,1.8-1.6l.7.7a7.964,7.964,0,0,1-1.7,1.5,7.816,7.816,0,0,0,2.8,1.1l-.5,1a7.844,7.844,0,0,1-5.5-4.3h-1.9v3.1a13.492,13.492,0,0,0,2.4-.8l.2.9a25.842,25.842,0,0,1-3.8,1l-.3-.9a.752.752,0,0,0,.5-.7v-2.6h-2A32.513,32.513,0,0,1,726.6,136.1Zm4.3-7.5v-1.4h-2.6v1.4c0,.8-.1,1.6-.1,2.4H731v-1.5h-2v-.9Zm-2.6-3.9v1.5h8.4v-1.5Zm3.6,2.5v1.4h2.8v-1.4Zm2.8,3.7v-1.5h-2.8v1.5Z" style="fill: #333"/>
    <path d="M743.5,130.3a15.64,15.64,0,0,1-2.5,5l-.9-.5a13.965,13.965,0,0,0,2.4-4.7Zm.2,5.6-.2-1c.6,0,1.1.1,1.7.1a.53.53,0,0,0,.6-.6v-5.8h-5.5v-1h11.9v1h-5.4v6.1a1.162,1.162,0,0,1-1.3,1.3h-1.8ZM751,124v1h-9.4v-1Zm1.4,10.8-.9.4a31.85,31.85,0,0,0-2.5-4.9l.9-.3A36.243,36.243,0,0,1,752.4,134.8Z" style="fill: #333"/>
  </g>
  <circle cx="115" cy="54" r="43.3" style="opacity: 0.20000000298023224;isolation: isolate;fill: url(#未命名的渐变)"/>
  <polygon points="114.9 72.8 97.1 61.9 81.4 71.6 115 91.7 148.6 71.6 133.8 61.9 114.9 72.8" style="fill: #fff"/>
  <polygon points="81.7 36.4 114.9 17 148.1 36.4 114.9 56.5 81.7 36.4" style="fill: #fff"/>
  <polygon points="109.3 51.4 97.2 44.4 81.4 54 114.9 73.6 148.1 54.1 131.7 44.4 109.3 51.4" style="fill: #fff"/>
  <g>
    <polygon points="85.6 70.4 83.5 71.6 85.6 72.8 86.1 71.9 85.6 71.6 86.1 71.3 85.6 70.4" style="fill: url(#未命名的渐变_2)"/>
    <polygon points="108.3 85.8 110.8 87.3 111.3 86.4 108.8 84.9 108.3 85.8" style="fill: url(#未命名的渐变_3)"/>
    <polygon points="103.3 82.9 105.8 84.4 106.3 83.5 103.8 82 103.3 82.9" style="fill: url(#未命名的渐变_4)"/>
    <polygon points="98.2 80 100.7 81.5 101.2 80.6 98.7 79.1 98.2 80" style="fill: url(#未命名的渐变_5)"/>
    <polygon points="93.2 77.1 95.7 78.6 96.2 77.7 93.7 76.2 93.2 77.1" style="fill: url(#未命名的渐变_6)"/>
    <polygon points="88.1 74.2 90.6 75.7 91.1 74.8 88.6 73.3 88.1 74.2" style="fill: url(#未命名的渐变_7)"/>
    <polygon points="115 88.5 113.9 87.9 113.4 88.8 114.9 89.7 116.6 88.8 116.1 87.9 115 88.5" style="fill: url(#未命名的渐变_8)"/>
    <polygon points="118.5 86.4 119 87.3 121.5 85.8 121 84.9 118.5 86.4" style="fill: url(#未命名的渐变_9)"/>
    <polygon points="123.6 83.5 124.1 84.4 126.6 82.9 126.1 82 123.6 83.5" style="fill: url(#未命名的渐变_10)"/>
    <polygon points="128.7 80.6 129.2 81.5 131.7 80 131.2 79.1 128.7 80.6" style="fill: url(#未命名的渐变_11)"/>
    <polygon points="133.8 77.7 134.3 78.6 136.8 77.1 136.3 76.2 133.8 77.7" style="fill: url(#未命名的渐变_12)"/>
    <polygon points="138.9 74.8 139.4 75.7 141.9 74.2 141.4 73.3 138.9 74.8" style="fill: url(#未命名的渐变_13)"/>
    <polygon points="143.9 71.3 144.4 71.6 143.9 71.9 144.4 72.8 146.5 71.6 144.4 70.4 143.9 71.3" style="fill: url(#未命名的渐变_14)"/>
    <polygon points="138.9 68.3 141.4 69.8 141.9 68.9 139.4 67.4 138.9 68.3" style="fill: url(#未命名的渐变_15)"/>
    <polygon points="133.8 65.4 136.3 66.9 136.8 66 134.3 64.5 133.8 65.4" style="fill: url(#未命名的渐变_16)"/>
    <polygon points="88.1 68.9 88.6 69.8 91.1 68.3 90.6 67.4 88.1 68.9" style="fill: url(#未命名的渐变_17)"/>
    <polygon points="96.1 65.4 95.6 64.5 93.1 66 93.6 66.9 96.1 65.4" style="fill: url(#未命名的渐变_18)"/>
    <path d="M83.5,54l31.4,18.1,31.6-18-15.3-8.8-1,.6,14.3,8.2L114.9,71,85.5,54l14.2-8.2,15.2,8.8,31.6-18.1L114.9,18.4,83.5,36.5l15.1,8.7Zm31.4-34.5,29.6,17L114.9,53.4,85.5,36.5Z" style="fill: url(#未命名的渐变_19)"/>
  </g>
  <circle cx="142.7" cy="81.5" r="20" style="fill: #fff"/>
  <polygon points="420.4 9.5 380.1 32.8 380.1 79.3 420.4 102.5 461.1 79.3 461.1 32.9 420.4 9.5" style="opacity: 0.20000000298023224;isolation: isolate;fill: url(#未命名的渐变_20)"/>
  <g>
    <g>
      <path d="M200.8,55.3H208v1.4h-7.2Z" style="fill: #c2c5ca"/>
      <path d="M212.1,55.3h7.2v1.4h-7.2Z" style="fill: #c2c5ca"/>
      <path d="M223.3,55.3h7.2v1.4h-7.2Z" style="fill: #c2c5ca"/>
      <path d="M234.6,55.3h7.2v1.4h-7.2Z" style="fill: #c2c5ca"/>
      <path d="M245.8,55.3H253v1.4h-7.2Z" style="fill: #c2c5ca"/>
      <path d="M257.1,55.3h7.2v1.4h-7.2V55.3Z" style="fill: #c2c5ca"/>
      <path d="M268.3,55.3h7.2v1.4h-7.2Z" style="fill: #c2c5ca"/>
      <path d="M279.6,55.3h7.2v1.4h-7.2Z" style="fill: #c2c5ca"/>
      <path d="M290.8,55.3H298v1.4h-7.2Z" style="fill: #c2c5ca"/>
    </g>
    <polygon points="312.5 56 302.5 61 302.5 51 312.5 56" style="fill: #c2c5ca"/>
  </g>
  <g>
    <g>
      <path d="M512.4,55.3h7.2v1.4h-7.2V55.3Z" style="fill: #c2c5ca"/>
      <path d="M523.6,55.3h7.2v1.4h-7.2Z" style="fill: #c2c5ca"/>
      <path d="M534.9,55.3h7.2v1.4h-7.2Z" style="fill: #c2c5ca"/>
      <path d="M546.1,55.3h7.2v1.4h-7.2Z" style="fill: #c2c5ca"/>
      <path d="M557.4,55.3h7.2v1.4h-7.2Z" style="fill: #c2c5ca"/>
      <path d="M568.6,55.3h7.2v1.4h-7.2Z" style="fill: #c2c5ca"/>
      <path d="M579.9,55.3h7.2v1.4h-7.2Z" style="fill: #c2c5ca"/>
      <path d="M591.1,55.3h7.2v1.4h-7.2Z" style="fill: #c2c5ca"/>
      <path d="M602.4,55.3h7.2v1.4h-7.2Z" style="fill: #c2c5ca"/>
    </g>
    <polygon points="624.1 56 614.1 61 614.1 51 624.1 56" style="fill: #c2c5ca"/>
  </g>
  <path d="M749.1,53h0a2.006,2.006,0,0,1-2-2h0a2.006,2.006,0,0,1,2-2h0a2.006,2.006,0,0,1,2,2h0A2.006,2.006,0,0,1,749.1,53Z" style="fill: #fff"/>
  <g>
    <rect x="665.9" y="21.4" width="89.2" height="11.5" style="opacity: 0.20000000298023224;isolation: isolate;fill: url(#未命名的渐变_22)"/>
    <rect x="665.9" y="41.8" width="89.2" height="38.8" style="opacity: 0.20000000298023224;isolation: isolate;fill: url(#未命名的渐变_23)"/>
  </g>
  <rect x="669.2" y="24.4" width="6" height="6" style="fill: #fff"/>
  <path d="M742.1,29.1h0a2.006,2.006,0,0,1-2-2h0a2.006,2.006,0,0,1,2-2h0a2.006,2.006,0,0,1,2,2h0A2.006,2.006,0,0,1,742.1,29.1Z" style="fill: #fff"/>
  <path d="M749.9,29.1h0a2.006,2.006,0,0,1-2-2h0a2.006,2.006,0,0,1,2-2h0a2.006,2.006,0,0,1,2,2h0A2.006,2.006,0,0,1,749.9,29.1Z" style="fill: #fff"/>
  <path d="M734.2,29.1h0a2.006,2.006,0,0,1-2-2h0a2.006,2.006,0,0,1,2-2h0a2.006,2.006,0,0,1,2,2h0A2.006,2.006,0,0,1,734.2,29.1Z" style="fill: #fff"/>
  <circle cx="395.9" cy="40.6" r="4.8" style="fill: #fff"/>
  <circle cx="446" cy="40.7" r="4.8" style="fill: #fff"/>
  <circle cx="420.5" cy="80.4" r="4.8" style="fill: #fff"/>
  <g>
    <path d="M420.4,3.7,375,29.9V82.3l44.9,25.9.4.2,45.1-25.8.6-.2V29.9ZM465,81.6l-44.7,25.6L376,81.7V30.4L420.4,4.8,465,30.4Z" style="fill: url(#未命名的渐变_24)"/>
    <path d="M395.6,34.3a6.4,6.4,0,0,0,0,12.8,7.772,7.772,0,0,0,1.6-.2l18.6,29.3a6.131,6.131,0,0,0-1.7,4.3,6.4,6.4,0,1,0,12.8,0,6.259,6.259,0,0,0-1.6-4.2L444,46.8a7.772,7.772,0,0,0,1.6.2,6.4,6.4,0,0,0,0-12.8,6.528,6.528,0,0,0-6.3,5.2H401.9A6.543,6.543,0,0,0,395.6,34.3Zm0,10.7a4.4,4.4,0,1,1,4.4-4.4A4.439,4.439,0,0,1,395.6,45Zm24.9,39.8a4.4,4.4,0,1,1,4.4-4.4A4.439,4.439,0,0,1,420.5,84.8Zm25-48.5a4.4,4.4,0,1,1-4.4,4.4A4.439,4.439,0,0,1,445.5,36.3Zm-6.3,5.2a6.341,6.341,0,0,0,2.9,4.5L423.7,74.9a6.645,6.645,0,0,0-3.2-.9,6.5,6.5,0,0,0-3.1.8L399.1,46a6.224,6.224,0,0,0,2.8-4.5Z" style="fill: url(#未命名的渐变_25)"/>
  </g>
  <path d="M687.7,69.9h0a2.006,2.006,0,0,1-2-2h0a2.006,2.006,0,0,1,2-2h0a2.006,2.006,0,0,1,2,2h0A2.006,2.006,0,0,1,687.7,69.9Z" style="fill: #fff"/>
  <g>
    <path d="M661.5,17V36.8h0v1h0V85h98V17Zm97,67h-96V37.8h96Zm0-47.2h-96V18h96Z" style="fill: url(#未命名的渐变_26)"/>
    <path d="M687.7,71.9a4.012,4.012,0,0,0,4-4,3.606,3.606,0,0,0-.6-2l8.7-8.7a4.006,4.006,0,0,0,2.3.8,4.217,4.217,0,0,0,2.5-.9l12.8,12.8L731,56.3a4.1,4.1,0,0,0,2.2.7,4,4,0,1,0-4-4,4.136,4.136,0,0,0,.5,1.9L717.5,67.1,705.9,55.5a3.194,3.194,0,0,0,.3-1.4,4,4,0,1,0-8,0,3.286,3.286,0,0,0,.4,1.7l-8.8,8.8a3.606,3.606,0,0,0-2-.6,4.012,4.012,0,0,0-4,4A3.842,3.842,0,0,0,687.7,71.9ZM731.2,53a2,2,0,1,1,2,2c-.3,0-.5-.1-.7-.1l1.5-1.5L732.6,52l-1.4,1.4C731.3,53.2,731.2,53.1,731.2,53Zm-29.1,3a2.92,2.92,0,0,1-.9-.2l1.1-1.1.9.9A1.5,1.5,0,0,1,702.1,56Zm2-2.3L702.4,52A2.129,2.129,0,0,1,704.1,53.7Zm-4,.3a2.006,2.006,0,0,1,2-2h.1l-2.1,2ZM687.7,65.9a.749.749,0,0,1,.5.1L687,67.2l1.4,1.4,1.2-1.2c0,.2.1.3.1.5a2,2,0,1,1-2-2Z" style="fill: url(#未命名的渐变_27)"/>
  </g>
  <circle cx="702.1" cy="54" r="2" style="fill: #fff"/>
  <circle cx="687.7" cy="67.9" r="2" style="fill: #fff"/>
  <circle cx="733.2" cy="53" r="2" style="fill: #fff"/>
  <g>
    <path d="M115,5.5a48.5,48.5,0,0,0,0,97A46.575,46.575,0,0,0,133,99a6.726,6.726,0,0,1-1.1-.7A47.6,47.6,0,0,1,67.4,53.9a47.55,47.55,0,0,1,95.1.1,48.492,48.492,0,0,1-3,16.7,6.726,6.726,0,0,0,.7,1.1A47.789,47.789,0,0,0,163.6,54,48.761,48.761,0,0,0,115,5.5Z" style="fill: url(#未命名的渐变_28)"/>
    <path d="M151.3,71.1a5.03,5.03,0,0,0-4.9,4h-8.3a5.03,5.03,0,0,0-4.9-4,5,5,0,0,0,0,10,5.019,5.019,0,0,0,1.2-.2l4.2,7.5a5.26,5.26,0,0,0-1.2,3.2,5,5,0,1,0,10,0,4.457,4.457,0,0,0-.8-2.6l4.4-7.9h.3a4.951,4.951,0,0,0,5-5A5.015,5.015,0,0,0,151.3,71.1Zm-18.1,8a3,3,0,1,1,3-3A2.946,2.946,0,0,1,133.2,79.1Zm9.2,15.5a3,3,0,1,1,3-3A2.946,2.946,0,0,1,142.4,94.6Zm2.8-7.1a5.207,5.207,0,0,0-5-.3l-3.9-7.1a5.571,5.571,0,0,0,1.9-3h8.3a5.01,5.01,0,0,0,2.6,3.4Zm6.1-8.4a3,3,0,1,1,3-3A2.946,2.946,0,0,1,151.3,79.1Z" style="fill: url(#未命名的渐变_29)"/>
  </g>
</svg>
