<?xml version="1.0" encoding="utf-8"?>
<!-- Generator: Adobe Illustrator 21.0.0, SVG Export Plug-In . SVG Version: 6.00 Build 0)  -->
<svg version="1.1" id="图层_1" xmlns="http://www.w3.org/2000/svg" xmlns:xlink="http://www.w3.org/1999/xlink" x="0px" y="0px"
	 width="48px" height="48px" viewBox="0 0 48 48" style="enable-background:new 0 0 48 48;" xml:space="preserve">
<style type="text/css">
	.st0{fill:#334966;}
	.st1{fill:#00A4FF;}
</style>
<g id="数据安全-48x48">
	<g id="Fill-6">
		<path class="st0" d="M24,0l-2.178,1.187C16,4.363,9.6,6.34,3,7v21.529c0,5.207,2.891,9.985,7.504,12.402L24,48l13.496-7.069
			C42.109,38.514,45,33.736,45,28.529V7c-6.6-0.66-13-2.637-18.822-5.813L24,0z M24,2.278l1.22,0.665
			C30.777,5.976,36.752,7.935,43,8.778v19.751c0,4.479-2.465,8.552-6.432,10.63L24,45.742l-12.568-6.583
			C7.465,37.081,5,33.008,5,28.529V8.778c6.248-0.843,12.223-2.802,17.78-5.835L24,2.278z"/>
	</g>
	<g id="Rectangle-74">
		<rect x="15" y="17" class="st1" width="6" height="16"/>
	</g>
	<g id="Rectangle-74-Copy">
		<rect x="27" y="13" class="st1" width="6" height="20"/>
	</g>
	<g id="Path-5-Copy">
		<polygon class="st0" points="18.016,30.262 9.4,23.8 10.6,22.2 17.984,27.738 30.32,18 38,18 38,20 31.014,20 		"/>
	</g>
</g>
</svg>
