<?xml version="1.0" encoding="UTF-8"?>
<svg width="830px" height="292px" viewBox="0 0 830 292" version="1.1" xmlns="http://www.w3.org/2000/svg" xmlns:xlink="http://www.w3.org/1999/xlink">
    <!-- Generator: Sketch 54.1 (76490) - https://sketchapp.com -->
    <title>瀑布流开发实践</title>
    <desc>Created with Sketch.</desc>
    <defs>
        <rect id="path-1" x="0" y="0" width="132" height="50"></rect>
        <filter x="-1.5%" y="-2.0%" width="103.0%" height="108.0%" filterUnits="objectBoundingBox" id="filter-2">
            <feOffset dx="0" dy="1" in="SourceAlpha" result="shadowOffsetOuter1"></feOffset>
            <feGaussianBlur stdDeviation="0.5" in="shadowOffsetOuter1" result="shadowBlurOuter1"></feGaussianBlur>
            <feColorMatrix values="0 0 0 0 0   0 0 0 0 0   0 0 0 0 0  0 0 0 0.35 0" type="matrix" in="shadowBlurOuter1"></feColorMatrix>
        </filter>
        <rect id="path-3" x="0" y="0" width="132" height="50"></rect>
        <filter x="-1.5%" y="-2.0%" width="103.0%" height="108.0%" filterUnits="objectBoundingBox" id="filter-4">
            <feOffset dx="0" dy="1" in="SourceAlpha" result="shadowOffsetOuter1"></feOffset>
            <feGaussianBlur stdDeviation="0.5" in="shadowOffsetOuter1" result="shadowBlurOuter1"></feGaussianBlur>
            <feColorMatrix values="0 0 0 0 0   0 0 0 0 0   0 0 0 0 0  0 0 0 0.35 0" type="matrix" in="shadowBlurOuter1"></feColorMatrix>
        </filter>
        <rect id="path-5" x="0" y="0" width="132" height="50"></rect>
        <filter x="-1.5%" y="-2.0%" width="103.0%" height="108.0%" filterUnits="objectBoundingBox" id="filter-6">
            <feOffset dx="0" dy="1" in="SourceAlpha" result="shadowOffsetOuter1"></feOffset>
            <feGaussianBlur stdDeviation="0.5" in="shadowOffsetOuter1" result="shadowBlurOuter1"></feGaussianBlur>
            <feColorMatrix values="0 0 0 0 0   0 0 0 0 0   0 0 0 0 0  0 0 0 0.35 0" type="matrix" in="shadowBlurOuter1"></feColorMatrix>
        </filter>
        <rect id="path-7" x="0" y="0" width="132" height="50"></rect>
        <filter x="-1.5%" y="-2.0%" width="103.0%" height="108.0%" filterUnits="objectBoundingBox" id="filter-8">
            <feOffset dx="0" dy="1" in="SourceAlpha" result="shadowOffsetOuter1"></feOffset>
            <feGaussianBlur stdDeviation="0.5" in="shadowOffsetOuter1" result="shadowBlurOuter1"></feGaussianBlur>
            <feColorMatrix values="0 0 0 0 0   0 0 0 0 0   0 0 0 0 0  0 0 0 0.35 0" type="matrix" in="shadowBlurOuter1"></feColorMatrix>
        </filter>
        <rect id="path-9" x="0" y="0" width="132" height="50"></rect>
        <filter x="-1.5%" y="-2.0%" width="103.0%" height="108.0%" filterUnits="objectBoundingBox" id="filter-10">
            <feOffset dx="0" dy="1" in="SourceAlpha" result="shadowOffsetOuter1"></feOffset>
            <feGaussianBlur stdDeviation="0.5" in="shadowOffsetOuter1" result="shadowBlurOuter1"></feGaussianBlur>
            <feColorMatrix values="0 0 0 0 0   0 0 0 0 0   0 0 0 0 0  0 0 0 0.35 0" type="matrix" in="shadowBlurOuter1"></feColorMatrix>
        </filter>
    </defs>
    <g id="介绍页配图设计" stroke="none" stroke-width="1" fill="none" fill-rule="evenodd">
        <g id="应用场景复制" transform="translate(-201.000000, -4670.000000)">
            <g id="流程1-copy-2复制-14" transform="translate(201.000000, 4670.000000)">
                <g id="编组-15" transform="translate(11.000000, 0.000000)">
                    <g id="XMLID_25_">
                        <g id="分组-copy">
                            <g id="XMLID_134_">
                                <use fill="black" fill-opacity="1" filter="url(#filter-2)" xlink:href="#path-1"></use>
                                <use fill="#FFFFFF" fill-rule="evenodd" xlink:href="#path-1"></use>
                            </g>
                            <path d="M56.798,25.212 L69.202,25.212 L69.202,26.08 L63.294,26.08 L62.818,27.088 L68.264,27.088 L68.264,30.154 C68.264,30.966 67.844,31.386 67.018,31.386 L66.024,31.386 L65.8,30.518 L66.738,30.56 C67.102,30.56 67.284,30.35 67.284,29.944 L67.284,27.956 L65.03,27.956 L65.03,31.274 L64.064,31.274 L64.064,27.956 L61.992,27.956 L61.992,31.274 L61.026,31.274 L61.026,27.956 L58.926,27.956 L58.926,31.442 L57.974,31.442 L57.974,27.088 L61.796,27.088 L62.272,26.08 L56.798,26.08 L56.798,25.212 Z M57.652,19.038 L68.362,19.038 L68.362,19.864 L63.49,19.864 L63.49,20.746 L68.866,20.746 L68.866,23.63 L67.9,23.63 L67.9,21.544 L63.49,21.544 L63.49,24.638 L62.51,24.638 L62.51,21.544 L58.1,21.544 L58.1,23.63 L57.134,23.63 L57.134,20.746 L62.51,20.746 L62.51,19.864 L57.652,19.864 L57.652,19.038 Z M58.856,22.328 L61.768,22.328 L61.768,23 L58.856,23 L58.856,22.328 Z M58.856,23.728 L61.768,23.728 L61.768,24.4 L58.856,24.4 L58.856,23.728 Z M64.218,22.328 L67.116,22.328 L67.116,23 L64.218,23 L64.218,22.328 Z M64.232,23.728 L67.158,23.728 L67.158,24.4 L64.232,24.4 L64.232,23.728 Z M71.008,21.138 L76.58,21.138 L76.58,18.52 L77.616,18.52 L77.616,21.138 L80.78,21.138 C80.262,20.536 79.576,19.906 78.736,19.234 L79.394,18.618 C80.234,19.234 80.934,19.864 81.494,20.48 L80.836,21.138 L82.964,21.138 L82.964,22.104 L77.616,22.104 L77.616,22.916 C77.994,23.77 78.456,24.582 79.002,25.338 C79.996,24.582 80.85,23.728 81.564,22.776 L82.306,23.434 C81.536,24.428 80.612,25.296 79.534,26.038 C80.584,27.34 81.886,28.488 83.426,29.468 L82.726,30.294 C80.458,28.726 78.764,26.822 77.616,24.568 L77.616,30.014 C77.616,30.882 77.196,31.316 76.356,31.316 L74.466,31.316 L74.256,30.35 C74.872,30.392 75.446,30.42 76.006,30.42 C76.384,30.42 76.58,30.196 76.58,29.762 L76.58,25.94 C75.11,27.732 73.388,29.244 71.414,30.448 L70.868,29.538 C73.024,28.362 74.928,26.766 76.58,24.722 L76.58,22.104 L71.008,22.104 L71.008,21.138 Z M72.366,23.07 C73.318,23.91 74.116,24.764 74.76,25.604 L74.06,26.29 C73.486,25.492 72.688,24.638 71.666,23.728 L72.366,23.07 Z M85.26,28.628 L84.952,27.774 C85.148,27.69 85.26,27.578 85.26,27.438 L85.26,19.766 L86.24,19.766 L86.24,27.41 C86.94,27.214 87.64,26.976 88.34,26.71 L88.34,18.632 L89.334,18.632 L89.334,31.316 L88.34,31.316 L88.34,27.69 C87.36,28.04 86.324,28.348 85.26,28.628 Z M92.19,21.684 C92.022,22.132 91.854,22.552 91.672,22.944 C92.176,24.316 92.82,25.576 93.632,26.724 C94.472,25.296 94.92,23.616 95.004,21.684 L92.19,21.684 Z M91.084,24.036 C90.818,24.456 90.538,24.834 90.244,25.184 L89.614,24.414 C90.762,22.958 91.546,20.984 91.952,18.52 L92.96,18.688 C92.82,19.402 92.666,20.074 92.498,20.69 L97.174,20.69 L97.174,21.684 L95.97,21.684 C95.872,23.98 95.312,25.954 94.276,27.578 C95.2,28.726 96.264,29.748 97.496,30.644 L96.81,31.456 C95.592,30.546 94.542,29.538 93.66,28.446 C92.736,29.608 91.546,30.574 90.09,31.358 L89.516,30.448 C90.986,29.72 92.162,28.782 93.03,27.634 C92.246,26.514 91.588,25.324 91.084,24.036 Z M103.278,27.998 L98.966,27.998 L98.966,27.088 L104.538,27.088 L104.538,26.36 L105.546,26.36 L105.546,27.088 L111.034,27.088 L111.034,27.998 L106.792,27.998 C107.744,28.894 109.214,29.608 111.188,30.14 L110.754,31.036 C108.43,30.252 106.792,29.244 105.812,27.998 L105.546,27.998 L105.546,31.414 L104.538,31.414 L104.538,27.998 L104.272,27.998 C103.39,29.188 101.752,30.224 99.358,31.092 L98.826,30.224 C100.982,29.566 102.466,28.824 103.278,27.998 Z M100.338,22.048 C99.974,22.468 99.582,22.86 99.162,23.252 L98.588,22.468 C99.834,21.348 100.758,20.032 101.374,18.52 L102.312,18.758 C102.172,19.136 102.004,19.5 101.836,19.85 L104.86,19.85 C104.664,19.416 104.468,19.01 104.244,18.646 L105.28,18.478 C105.476,18.884 105.658,19.346 105.84,19.85 L110.362,19.85 L110.362,20.69 L105.91,20.69 L105.91,21.642 L109.844,21.642 L109.844,22.426 L105.91,22.426 L105.91,23.35 L109.844,23.35 L109.844,24.134 L105.91,24.134 L105.91,25.128 L110.628,25.128 L110.628,25.982 L100.338,25.982 L100.338,22.048 Z M104.916,25.128 L104.916,24.134 L101.276,24.134 L101.276,25.128 L104.916,25.128 Z M104.916,23.35 L104.916,22.426 L101.276,22.426 L101.276,23.35 L104.916,23.35 Z M104.916,21.642 L104.916,20.69 L101.346,20.69 L101.276,20.802 L101.276,21.642 L104.916,21.642 Z" id="需求收集" fill="#444444" fill-rule="nonzero"></path>
                            <g id="project-menu/requirements" transform="translate(19.000000, 11.000000)">
                                <rect id="Rectangle" fill="#000000" opacity="0" x="0" y="0" width="28" height="28"></rect>
                                <path d="M17.28125,24.28125 L10.71875,24.28125 C10.5984375,24.28125 10.5,24.3796875 10.5,24.5 L10.5,25.375 C10.5,25.8589844 10.8910156,26.25 11.375,26.25 L16.625,26.25 C17.1089844,26.25 17.5,25.8589844 17.5,25.375 L17.5,24.5 C17.5,24.3796875 17.4015625,24.28125 17.28125,24.28125 Z M14,1.75 C9.04804688,1.75 5.03125,5.76679687 5.03125,10.71875 C5.03125,14.0382812 6.8359375,16.9367188 9.515625,18.4871094 L9.515625,21.65625 C9.515625,22.1402344 9.90664062,22.53125 10.390625,22.53125 L17.609375,22.53125 C18.0933594,22.53125 18.484375,22.1402344 18.484375,21.65625 L18.484375,18.4871094 C21.1640625,16.9367188 22.96875,14.0382813 22.96875,10.71875 C22.96875,5.76679687 18.9519531,1.75 14,1.75 Z M17.4972656,16.7835938 L16.515625,17.3523438 L16.515625,20.5625 L11.484375,20.5625 L11.484375,17.3523438 L10.5027344,16.7835938 C8.35078125,15.5394531 7,13.2480469 7,10.71875 C7,6.85234375 10.1335938,3.71875 14,3.71875 C17.8664062,3.71875 21,6.85234375 21,10.71875 C21,13.2480469 19.6492188,15.5394531 17.4972656,16.7835938 Z" id="Shape" fill="#00A4FF" fill-rule="nonzero"></path>
                            </g>
                        </g>
                    </g>
                    <g id="XMLID_25_复制-7" transform="translate(168.000000, 60.000000)">
                        <g id="分组-copy">
                            <g id="XMLID_134_">
                                <use fill="black" fill-opacity="1" filter="url(#filter-4)" xlink:href="#path-3"></use>
                                <use fill="#FFFFFF" fill-rule="evenodd" xlink:href="#path-3"></use>
                            </g>
                            <path d="M59.738,22.482 L60.732,22.482 L60.732,24.54 L62.496,24.54 L62.496,25.45 L60.732,25.45 L60.732,27.34 C61.432,27.2 62.09,27.06 62.706,26.906 L62.706,27.872 C62.076,28.04 61.418,28.18 60.732,28.32 L60.732,31.4 L59.738,31.4 L59.738,28.502 C58.814,28.656 57.862,28.796 56.868,28.922 L56.742,27.942 C57.806,27.816 58.814,27.676 59.738,27.522 L59.738,25.45 L57.176,25.45 L56.966,24.554 C57.358,23.742 57.736,22.72 58.086,21.488 L56.77,21.488 L56.77,20.508 L58.352,20.508 C58.492,19.892 58.646,19.234 58.786,18.562 L59.752,18.716 C59.612,19.346 59.486,19.948 59.346,20.508 L62.734,20.508 L62.734,21.488 L59.08,21.488 C58.744,22.636 58.394,23.658 58.016,24.54 L59.738,24.54 L59.738,22.482 Z M64.106,18.45 L65.1,18.604 C65.002,19.374 64.876,20.088 64.736,20.732 L69.09,20.732 L69.09,21.376 C68.838,22.594 68.516,23.798 68.096,24.974 L67.088,24.694 C67.466,23.812 67.788,22.818 68.04,21.698 L64.498,21.698 C64.162,22.804 63.742,23.714 63.238,24.414 L62.412,23.826 C63.28,22.538 63.854,20.746 64.106,18.45 Z M65.268,22.636 L66.234,22.636 C66.234,23.602 66.178,24.484 66.094,25.282 C66.766,27.508 67.9,29.272 69.496,30.574 L68.782,31.4 C67.48,30.21 66.486,28.754 65.8,27.032 C65.772,27.13 65.758,27.228 65.73,27.326 C65.282,29.006 64.274,30.378 62.706,31.442 L62.034,30.63 C63.392,29.706 64.288,28.544 64.736,27.144 C65.072,25.968 65.254,24.456 65.268,22.636 Z M73.668,18.478 L74.62,18.912 C74.256,20.018 73.794,21.068 73.234,22.062 L73.234,31.414 L72.24,31.414 L72.24,23.602 C71.792,24.218 71.302,24.806 70.77,25.366 L70.448,24.288 C71.932,22.608 72.996,20.662 73.668,18.478 Z M76.02,19.402 L77.014,19.528 C76.902,20.228 76.748,20.9 76.552,21.516 L78.61,21.516 L78.61,18.604 L79.618,18.604 L79.618,21.516 L82.838,21.516 L82.838,22.496 L79.618,22.496 L79.618,25.87 L83.356,25.87 L83.356,26.836 L79.618,26.836 L79.618,31.344 L78.61,31.344 L78.61,26.836 L74.494,26.836 L74.494,25.87 L78.61,25.87 L78.61,22.496 L76.23,22.496 C75.88,23.42 75.446,24.246 74.928,24.974 L74.284,24.134 C75.138,22.846 75.712,21.264 76.02,19.402 Z M86.254,18.828 C87.136,19.528 87.878,20.214 88.48,20.9 L87.794,21.6 C87.248,20.928 86.506,20.228 85.554,19.486 L86.254,18.828 Z M84.63,22.874 L87.556,22.874 L87.556,29.09 C88.06,28.67 88.606,28.194 89.18,27.648 L89.46,28.712 C88.578,29.538 87.64,30.266 86.66,30.91 L86.268,30.014 C86.464,29.818 86.576,29.608 86.576,29.384 L86.576,23.84 L84.63,23.84 L84.63,22.874 Z M89.6,24.512 L96.264,24.512 L96.264,25.436 C95.816,26.752 95.088,27.886 94.066,28.838 C95.018,29.496 96.18,30.07 97.552,30.574 L97.006,31.442 C95.55,30.854 94.318,30.196 93.338,29.44 C92.218,30.28 90.832,30.938 89.194,31.442 L88.634,30.588 C90.188,30.126 91.49,29.524 92.54,28.782 C91.476,27.802 90.762,26.71 90.37,25.492 L89.6,25.492 L89.6,24.512 Z M91.322,25.492 C91.686,26.5 92.33,27.41 93.254,28.208 C94.15,27.424 94.822,26.528 95.27,25.492 L91.322,25.492 Z M90.678,19.108 L95.382,19.108 L95.382,22.132 C95.382,22.482 95.564,22.664 95.928,22.664 L97.216,22.664 L97.216,23.588 L95.676,23.588 C94.808,23.588 94.388,23.168 94.388,22.342 L94.388,20.06 L91.672,20.06 L91.672,20.55 C91.672,22.034 90.944,23.182 89.516,23.994 L88.844,23.224 C90.062,22.622 90.678,21.768 90.678,20.662 L90.678,19.108 Z M103.012,22.762 L106.806,22.762 L106.806,18.548 L107.842,18.548 L107.842,22.762 L111.44,22.762 L111.44,23.77 L107.842,23.77 L107.842,31.428 L106.806,31.428 L106.806,23.77 L103.012,23.77 L103.012,22.762 Z M100.268,18.702 C101.22,19.416 102.018,20.13 102.662,20.858 L101.976,21.558 C101.388,20.872 100.576,20.144 99.568,19.388 L100.268,18.702 Z M98.63,22.846 L101.654,22.846 L101.654,29.076 C102.158,28.656 102.718,28.18 103.306,27.62 L103.558,28.656 C102.69,29.496 101.752,30.238 100.758,30.896 L100.366,29.986 C100.576,29.818 100.688,29.622 100.688,29.398 L100.688,23.812 L98.63,23.812 L98.63,22.846 Z" id="软件设计" fill="#444444" fill-rule="nonzero"></path>
                            <g id="设计" transform="translate(18.000000, 12.000000)">
                                <path d="M11.6715516,1.51607743 L18.5567975,1.51607743 C19.063813,1.51607743 19.4748303,1.93394499 19.4748303,2.44941076 L19.4748303,24.3827441 C19.4748303,24.8982099 19.063813,25.3160774 18.5567975,25.3160774 L11.6715516,25.3160774 C11.1645361,25.3160774 10.7535188,24.8982099 10.7535188,24.3827441 L10.7535188,2.44941076 C10.7535188,1.93394499 11.1645361,1.51607743 11.6715516,1.51607743 Z M12.5895844,3.38274409 L12.5895844,23.4494108 L17.6387647,23.4494108 L17.6387647,3.38274409 L12.5895844,3.38274409 Z" id="矩形" fill="#00A4FF" fill-rule="nonzero" transform="translate(15.114175, 13.416077) rotate(-45.000000) translate(-15.114175, -13.416077) "></path>
                                <g id="编组-2" transform="translate(13.333797, 15.339360) rotate(-315.000000) translate(-13.333797, -15.339360) translate(8.973141, 2.039360)">
                                    <path d="M7.1477935,22.3544293 C7.15549037,22.4257366 7.15943931,22.4981671 7.15943931,22.5715199 C7.15943931,23.0960778 6.95335502,23.5996383 6.58559564,23.973689 L4.42473117,26.1715199 L2.20139816,24.0034015 C1.74542704,23.558754 1.54707147,22.94952 1.60867049,22.3617327 C0.691457995,22.1797895 -2.72836524e-12,21.3706441 -2.72848411e-12,20.4 L-2.72848411e-12,2 C-2.72861938e-12,0.8954305 0.8954305,-4.54544445e-13 2,-4.54747351e-13 L6.72131148,-4.54747351e-13 C7.82588098,-4.54950257e-13 8.72131148,0.8954305 8.72131148,2 L8.72131148,20.4 C8.72131148,21.3582044 8.04746323,22.1590231 7.1477935,22.3544293 Z" id="形状结合" fill="#FFFFFF"></path>
                                    <path d="M4.42473117,26.1715199 L0.360529438,22.2082492 C0.141354785,22.037683 -3.91150135e-12,21.7689575 -3.91153776e-12,21.4666667 L-3.91153776e-12,0.933333333 C-3.91159985e-12,0.417867567 0.411017279,-1.46717606e-12 0.918032787,-1.46727075e-12 L7.80327869,-1.46727075e-12 C8.3102942,-1.46736544e-12 8.72131148,0.417867567 8.72131148,0.933333333 L8.72131148,21.4666667 C8.72131148,21.8185773 8.52974249,22.1249989 8.246843,22.2840223 L4.42473117,26.1715199 Z M6.8852459,1.86666667 L1.83606557,1.86666667 L1.83606557,21.0605953 L4.39768111,23.5585953 L6.8852459,21.0284752 L6.8852459,1.86666667 Z" id="形状结合" fill="#00A4FF" fill-rule="nonzero"></path>
                                    <rect id="矩形" fill="#00A4FF" x="1.37704918" y="19.6" width="5.96721311" height="1.86666667"></rect>
                                </g>
                            </g>
                        </g>
                    </g>
                    <g id="XMLID_25_复制-18" transform="translate(336.000000, 120.000000)">
                        <g id="分组-copy">
                            <g id="XMLID_134_">
                                <use fill="black" fill-opacity="1" filter="url(#filter-6)" xlink:href="#path-5"></use>
                                <use fill="#FFFFFF" fill-rule="evenodd" xlink:href="#path-5"></use>
                            </g>
                            <path d="M62.594,19.08 L68.404,19.08 L68.404,23.126 L62.594,23.126 L62.594,19.08 Z M67.424,22.216 L67.424,19.976 L63.588,19.976 L63.588,22.216 L67.424,22.216 Z M62.048,24.428 L69.006,24.428 L69.006,25.352 L65.954,25.352 L65.954,27.144 L68.572,27.144 L68.572,28.054 L65.954,28.054 L65.954,29.944 L69.342,29.944 L69.342,30.896 L61.488,30.896 L61.488,29.944 L64.918,29.944 L64.918,28.054 L62.37,28.054 L62.37,27.144 L64.918,27.144 L64.918,25.352 L62.048,25.352 L62.048,24.428 Z M56.812,22.398 L58.856,22.398 L58.856,20.368 C58.268,20.452 57.652,20.536 57.022,20.606 L56.826,19.654 C58.576,19.486 60.13,19.192 61.474,18.772 L61.824,19.724 C61.194,19.906 60.522,20.06 59.822,20.2 L59.822,22.398 L61.628,22.398 L61.628,23.364 L59.822,23.364 L59.822,24.106 C60.48,24.75 61.152,25.478 61.824,26.276 L61.264,27.116 C60.704,26.248 60.214,25.548 59.822,25.03 L59.822,31.344 L58.856,31.344 L58.856,25.03 C58.366,26.402 57.722,27.634 56.924,28.74 L56.49,27.62 C57.554,26.374 58.31,24.96 58.758,23.364 L56.812,23.364 L56.812,22.398 Z M77.532,18.506 C77.728,18.87 77.924,19.276 78.106,19.724 L83.174,19.724 L83.174,20.648 L72.842,20.648 L72.842,24.246 C72.786,27.214 72.296,29.58 71.344,31.372 L70.588,30.7 C71.386,29.146 71.806,26.99 71.834,24.246 L71.834,19.724 L77.098,19.724 C76.916,19.346 76.72,18.996 76.51,18.674 L77.532,18.506 Z M76.314,23.308 C76.986,23.644 77.602,23.994 78.162,24.344 C79.002,23.854 79.772,23.28 80.472,22.636 L74.298,22.636 L74.298,21.768 L81.732,21.768 L81.732,22.496 C80.878,23.406 79.94,24.19 78.932,24.848 C79.156,24.988 79.366,25.142 79.562,25.296 L79.352,25.506 L82.908,25.506 L82.908,26.29 C82.334,27.382 81.69,28.306 80.976,29.062 L80.22,28.46 C80.808,27.9 81.34,27.228 81.83,26.444 L78.61,26.444 L78.61,30.182 C78.61,31.008 78.19,31.428 77.364,31.428 L75.306,31.428 L75.096,30.476 C75.768,30.518 76.412,30.546 77.028,30.546 C77.406,30.546 77.602,30.336 77.602,29.944 L77.602,26.444 L73.486,26.444 L73.486,25.506 L78.47,25.506 C77.742,25.002 76.818,24.456 75.712,23.896 L76.314,23.308 Z M88.228,28.432 L88.228,29.356 C87.248,29.874 86.128,30.294 84.882,30.602 L84.756,29.622 C86.072,29.328 87.234,28.936 88.228,28.432 Z M86.8,18.534 L87.738,18.898 C87.08,20.676 86.408,22.09 85.736,23.14 C86.338,23.056 86.94,22.958 87.528,22.832 C87.752,22.384 88.004,21.908 88.256,21.404 L89.138,21.726 C87.962,23.994 86.982,25.604 86.226,26.556 C87.038,26.388 87.836,26.15 88.648,25.87 L88.648,26.766 C87.388,27.186 86.198,27.48 85.05,27.648 L84.77,26.738 C84.952,26.668 85.106,26.57 85.232,26.458 C85.736,25.926 86.338,25.016 87.052,23.728 C86.31,23.882 85.568,24.008 84.826,24.12 L84.574,23.21 C84.728,23.154 84.868,23.028 84.98,22.846 C85.68,21.586 86.296,20.158 86.8,18.534 Z M95.956,31.358 L95.354,31.358 L95.13,30.574 L95.69,30.602 C95.942,30.602 96.068,30.462 96.068,30.182 L96.068,28.292 L94.948,28.292 L94.948,31.162 L94.206,31.162 L94.206,28.292 L93.184,28.292 L93.184,31.162 L92.442,31.162 L92.442,28.292 L91.336,28.292 L91.336,31.414 L90.51,31.414 L90.51,24.75 L96.908,24.75 L96.908,30.378 C96.908,31.022 96.586,31.358 95.956,31.358 Z M91.336,27.452 L92.442,27.452 L92.442,25.618 L91.336,25.618 L91.336,27.452 Z M93.184,25.618 L93.184,27.452 L94.206,27.452 L94.206,25.618 L93.184,25.618 Z M94.948,25.618 L94.948,27.452 L96.068,27.452 L96.068,25.618 L94.948,25.618 Z M95.928,20.872 L90.468,20.872 L90.468,22.664 L95.928,22.664 L95.928,20.872 Z M90.468,23.532 C90.426,26.584 89.796,29.202 88.564,31.386 L87.836,30.742 C88.956,28.838 89.516,26.388 89.53,23.378 L89.53,19.976 L92.722,19.976 C92.54,19.5 92.344,19.052 92.12,18.66 L93.17,18.492 C93.352,18.926 93.534,19.416 93.702,19.976 L96.852,19.976 L96.852,23.532 L90.468,23.532 Z M102.83,23.084 C102.662,23.742 102.48,24.358 102.298,24.932 L109.816,24.932 C109.774,28.348 109.55,30.28 109.13,30.728 C108.78,31.106 108.024,31.302 106.862,31.316 L105.644,31.316 L105.364,30.378 C105.924,30.392 106.428,30.406 106.904,30.406 C107.66,30.392 108.136,30.252 108.36,30 C108.612,29.706 108.766,28.334 108.808,25.87 L101.024,25.87 C101.612,23.91 102.06,22.174 102.354,20.676 L103.348,20.774 C103.25,21.25 103.152,21.698 103.054,22.132 L108.766,22.132 L108.766,23.084 L102.83,23.084 Z M99.022,27.55 L107.422,27.55 L107.422,28.516 L99.022,28.516 L99.022,27.55 Z M110.586,19.15 L110.586,22.188 L109.592,22.188 L109.592,20.102 L100.408,20.102 L100.408,22.174 L99.414,22.174 L99.414,19.15 L110.586,19.15 Z" id="程序编写" fill="#444444" fill-rule="nonzero"></path>
                            <g id="编组-7" transform="translate(20.000000, 14.000000)" fill-rule="nonzero" stroke="#00A4FF" stroke-width="2">
                                <rect id="矩形" x="1" y="1" width="24" height="20"></rect>
                                <polyline id="路径-6" points="9.29980989 15.7778633 6 11.3889316 9.29980989 7"></polyline>
                                <path d="M16.7134538,15.5 C13.1054046,15.5 11.3013801,15.5 11.3013801,15.5" id="路径-6复制-2"></path>
                            </g>
                        </g>
                    </g>
                    <g id="XMLID_25_复制-9" transform="translate(509.000000, 180.000000)">
                        <g id="分组-copy">
                            <g id="XMLID_134_">
                                <use fill="black" fill-opacity="1" filter="url(#filter-8)" xlink:href="#path-7"></use>
                                <use fill="#FFFFFF" fill-rule="evenodd" xlink:href="#path-7"></use>
                            </g>
                            <path d="M59.738,22.482 L60.732,22.482 L60.732,24.54 L62.496,24.54 L62.496,25.45 L60.732,25.45 L60.732,27.34 C61.432,27.2 62.09,27.06 62.706,26.906 L62.706,27.872 C62.076,28.04 61.418,28.18 60.732,28.32 L60.732,31.4 L59.738,31.4 L59.738,28.502 C58.814,28.656 57.862,28.796 56.868,28.922 L56.742,27.942 C57.806,27.816 58.814,27.676 59.738,27.522 L59.738,25.45 L57.176,25.45 L56.966,24.554 C57.358,23.742 57.736,22.72 58.086,21.488 L56.77,21.488 L56.77,20.508 L58.352,20.508 C58.492,19.892 58.646,19.234 58.786,18.562 L59.752,18.716 C59.612,19.346 59.486,19.948 59.346,20.508 L62.734,20.508 L62.734,21.488 L59.08,21.488 C58.744,22.636 58.394,23.658 58.016,24.54 L59.738,24.54 L59.738,22.482 Z M64.106,18.45 L65.1,18.604 C65.002,19.374 64.876,20.088 64.736,20.732 L69.09,20.732 L69.09,21.376 C68.838,22.594 68.516,23.798 68.096,24.974 L67.088,24.694 C67.466,23.812 67.788,22.818 68.04,21.698 L64.498,21.698 C64.162,22.804 63.742,23.714 63.238,24.414 L62.412,23.826 C63.28,22.538 63.854,20.746 64.106,18.45 Z M65.268,22.636 L66.234,22.636 C66.234,23.602 66.178,24.484 66.094,25.282 C66.766,27.508 67.9,29.272 69.496,30.574 L68.782,31.4 C67.48,30.21 66.486,28.754 65.8,27.032 C65.772,27.13 65.758,27.228 65.73,27.326 C65.282,29.006 64.274,30.378 62.706,31.442 L62.034,30.63 C63.392,29.706 64.288,28.544 64.736,27.144 C65.072,25.968 65.254,24.456 65.268,22.636 Z M73.668,18.478 L74.62,18.912 C74.256,20.018 73.794,21.068 73.234,22.062 L73.234,31.414 L72.24,31.414 L72.24,23.602 C71.792,24.218 71.302,24.806 70.77,25.366 L70.448,24.288 C71.932,22.608 72.996,20.662 73.668,18.478 Z M76.02,19.402 L77.014,19.528 C76.902,20.228 76.748,20.9 76.552,21.516 L78.61,21.516 L78.61,18.604 L79.618,18.604 L79.618,21.516 L82.838,21.516 L82.838,22.496 L79.618,22.496 L79.618,25.87 L83.356,25.87 L83.356,26.836 L79.618,26.836 L79.618,31.344 L78.61,31.344 L78.61,26.836 L74.494,26.836 L74.494,25.87 L78.61,25.87 L78.61,22.496 L76.23,22.496 C75.88,23.42 75.446,24.246 74.928,24.974 L74.284,24.134 C75.138,22.846 75.712,21.264 76.02,19.402 Z M85.512,18.856 C86.296,19.472 86.954,20.102 87.486,20.718 L86.828,21.39 C86.352,20.802 85.68,20.172 84.826,19.514 L85.512,18.856 Z M85.288,22.3 C86.044,22.972 86.688,23.63 87.206,24.302 L86.548,24.96 C86.072,24.33 85.428,23.658 84.602,22.944 L85.288,22.3 Z M86.52,26.066 L87.374,26.402 C86.842,28.11 86.24,29.72 85.596,31.232 L84.672,30.84 C85.372,29.286 85.988,27.69 86.52,26.066 Z M92.736,19.248 L92.736,27.788 L91.84,27.788 L91.84,20.116 L88.942,20.116 L88.942,27.872 L88.046,27.872 L88.046,19.248 L92.736,19.248 Z M91.238,28.446 C92.092,29.202 92.806,29.972 93.38,30.728 L92.708,31.4 C92.204,30.658 91.518,29.874 90.622,29.034 L91.238,28.446 Z M89.978,21.082 L90.818,21.082 L90.818,25.52 C90.79,27.116 90.538,28.39 90.062,29.342 C89.6,30.21 88.844,30.91 87.808,31.414 L87.276,30.574 C88.284,30.098 88.984,29.468 89.376,28.684 C89.74,27.872 89.95,26.822 89.978,25.52 L89.978,21.082 Z M95.76,31.288 L94.22,31.288 L94.01,30.35 C94.5,30.392 94.976,30.42 95.424,30.42 C95.746,30.42 95.914,30.224 95.914,29.86 L95.914,18.646 L96.866,18.646 L96.866,30.098 C96.866,30.882 96.488,31.288 95.76,31.288 Z M93.842,19.794 L94.724,19.794 L94.724,28.53 L93.842,28.53 L93.842,19.794 Z M104.58,25.198 L103.264,25.198 L103.264,24.26 L106.89,24.26 L106.89,25.198 L105.574,25.198 L105.574,28.992 C106.19,28.852 106.806,28.698 107.394,28.53 L107.394,29.468 C106.176,29.818 104.86,30.112 103.46,30.35 L103.208,29.398 C103.67,29.342 104.132,29.272 104.58,29.188 L104.58,25.198 Z M109.886,31.19 C109.41,31.19 108.976,30.826 108.612,30.098 C108.192,29.258 107.884,28.124 107.688,26.668 C107.534,25.436 107.436,23.896 107.38,22.062 L102.942,22.062 L102.942,21.082 L107.352,21.082 C107.324,20.27 107.324,19.416 107.324,18.52 L108.304,18.52 C108.304,19.43 108.304,20.284 108.332,21.082 L111.118,21.082 L111.118,22.062 L108.346,22.062 C108.416,24.47 108.57,26.318 108.794,27.634 C109.102,29.23 109.466,30.042 109.886,30.098 C110.166,30.042 110.46,29.188 110.74,27.522 L111.538,28.166 C111.076,30.182 110.53,31.19 109.886,31.19 Z M109.508,18.506 C110.11,19.178 110.572,19.766 110.908,20.27 L110.208,20.76 C109.858,20.214 109.382,19.612 108.794,18.94 L109.508,18.506 Z M100.268,18.702 C101.164,19.416 101.906,20.13 102.522,20.858 L101.836,21.558 C101.276,20.872 100.52,20.144 99.568,19.388 L100.268,18.702 Z M98.588,22.846 L101.528,22.846 L101.528,28.95 C101.948,28.544 102.368,28.096 102.816,27.606 L103.082,28.67 C102.312,29.51 101.5,30.252 100.632,30.896 L100.24,30 C100.436,29.832 100.548,29.636 100.548,29.426 L100.548,23.812 L98.588,23.812 L98.588,22.846 Z" id="软件测试" fill="#444444" fill-rule="nonzero"></path>
                            <g id="Icons-/-flask" transform="translate(18.000000, 12.000000)">
                                <g id="flask">
                                    <rect id="Rectangle" fill="#000000" opacity="0" x="0" y="0" width="28" height="26"></rect>
                                    <path d="M14,11.984375 C14,12.5452892 14.4896886,13 15.09375,13 C15.6978114,13 16.1875,12.5452892 16.1875,11.984375 C16.1875,11.4234608 15.6978114,10.96875 15.09375,10.96875 C14.4896886,10.96875 14,11.4234608 14,11.984375 Z M24.0351562,20.9447266 L19.0394531,8.9375 L19.0394531,4.51953125 L21,4.51953125 L21,2.79296875 L7,2.79296875 L7,4.51953125 L8.96054687,4.51953125 L8.96054687,8.9375 L3.96484375,20.9447266 C3.88828125,21.1326172 3.84726562,21.3306641 3.84726562,21.53125 C3.84726562,22.4275391 4.63203125,23.15625 5.59726562,23.15625 L22.4027344,23.15625 C22.61875,23.15625 22.8320312,23.1181641 23.034375,23.0470703 C23.9367187,22.7246094 24.3851562,21.7826172 24.0351562,20.9447266 Z M10.8199219,9.25996094 L10.8199219,4.5703125 L17.1800781,4.5703125 L17.1800781,9.25996094 L19.665625,15.234375 C19.0996094,15.0998047 18.5144531,15.03125 17.9183594,15.03125 C16.2449219,15.03125 14.6589844,15.5771484 13.3984375,16.5546875 C12.4714844,17.2707031 11.3121094,17.6693359 10.0816406,17.6693359 C9.1875,17.6693359 8.32890625,17.4585938 7.57148438,17.0675781 L10.8199219,9.25996094 Z M5.75585938,21.4296875 L6.89609375,18.6925781 C7.87226563,19.1521484 8.9578125,19.3984375 10.084375,19.3984375 C11.7578125,19.3984375 13.34375,18.8525391 14.6042969,17.875 C15.53125,17.1589844 16.690625,16.7603516 17.9210937,16.7603516 C18.878125,16.7603516 19.7914062,17.0015625 20.5898438,17.4484375 L22.2441406,21.4296875 L5.75585938,21.4296875 Z" id="Shape" fill="#00A4FF" fill-rule="nonzero"></path>
                                </g>
                            </g>
                        </g>
                    </g>
                    <g id="XMLID_25_复制-10" transform="translate(677.000000, 240.000000)">
                        <g id="分组-copy">
                            <g id="XMLID_134_">
                                <use fill="black" fill-opacity="1" filter="url(#filter-10)" xlink:href="#path-9"></use>
                                <use fill="#FFFFFF" fill-rule="evenodd" xlink:href="#path-9"></use>
                            </g>
                            <path d="M58.632,21.418 C58.968,22.062 59.29,22.846 59.57,23.77 L61.04,23.77 C61.446,23 61.796,22.174 62.076,21.306 L63.014,21.628 C62.72,22.426 62.398,23.14 62.034,23.77 L63.728,23.77 L63.728,24.75 L56.714,24.75 L56.714,23.77 L58.604,23.77 C58.352,23.042 58.058,22.37 57.708,21.754 L58.632,21.418 Z M64.372,19.15 L68.964,19.15 L68.964,19.906 C68.53,21.376 68.068,22.748 67.564,24.008 C68.614,25.324 69.146,26.416 69.16,27.256 C69.16,28.124 68.978,28.726 68.614,29.062 C68.222,29.398 67.452,29.58 66.304,29.58 L65.982,28.516 C66.374,28.544 66.696,28.572 66.962,28.572 C67.466,28.544 67.788,28.446 67.928,28.278 C68.068,28.096 68.138,27.76 68.152,27.256 C68.138,26.43 67.578,25.352 66.486,24.008 C66.948,22.902 67.41,21.586 67.858,20.074 L65.352,20.074 L65.352,31.372 L64.372,31.372 L64.372,19.15 Z M56.98,19.92 L59.794,19.92 C59.626,19.458 59.458,19.038 59.276,18.66 L60.312,18.478 C60.466,18.898 60.62,19.388 60.774,19.92 L63.63,19.92 L63.63,20.9 L56.98,20.9 L56.98,19.92 Z M63.084,26.024 L63.084,31.302 L62.09,31.302 L62.09,30.518 L58.506,30.518 L58.506,31.302 L57.512,31.302 L57.512,26.024 L63.084,26.024 Z M58.506,29.566 L62.09,29.566 L62.09,26.976 L58.506,26.976 L58.506,29.566 Z M72.016,19.08 L81.928,19.08 L81.928,21.74 L77.042,21.74 L77.042,22.65 L80.024,22.65 L80.024,23.462 L77.042,23.462 L77.042,24.47 L78.834,24.47 C79.926,23.798 80.878,23.014 81.676,22.118 L82.502,22.552 C81.844,23.252 81.088,23.896 80.248,24.47 L83.202,24.47 L83.202,25.338 L78.806,25.338 C78.078,25.716 77.322,26.052 76.51,26.36 L81.438,26.36 L81.438,31.498 L80.444,31.498 L80.444,30.868 L74.494,30.868 L74.494,31.498 L73.5,31.498 L73.5,27.27 C72.8,27.438 72.072,27.578 71.33,27.718 L70.784,26.878 C73.22,26.626 75.334,26.108 77.14,25.338 L70.868,25.338 L70.868,24.47 L76.062,24.47 L76.062,23.462 L72.394,23.462 L72.394,22.65 L76.062,22.65 L76.062,21.74 L72.016,21.74 L72.016,19.08 Z M80.962,20.998 L80.962,19.836 L78.904,19.836 L78.904,20.998 L80.962,20.998 Z M77.994,20.998 L77.994,19.836 L75.978,19.836 L75.978,20.998 L77.994,20.998 Z M75.068,20.998 L75.068,19.836 L72.982,19.836 L72.982,20.998 L75.068,20.998 Z M74.494,28.992 L74.494,30.042 L80.444,30.042 L80.444,28.992 L74.494,28.992 Z M80.444,28.222 L80.444,27.144 L74.494,27.144 L74.494,28.222 L80.444,28.222 Z M89.488,18.52 L90.482,18.52 L85.526,31.4 L84.518,31.4 L89.488,18.52 Z M92.624,22.86 L93.73,18.968 L94.724,19.136 L93.926,21.894 L96.376,21.894 C96.656,20.802 96.88,19.668 97.048,18.464 L98.07,18.59 C97.888,19.766 97.664,20.858 97.412,21.894 L103.964,21.894 L103.964,22.86 L97.146,22.86 C96.978,23.42 96.81,23.952 96.614,24.456 L102.34,24.456 L102.34,25.324 C101.962,26.528 101.206,27.62 100.058,28.6 C101.192,29.272 102.578,29.888 104.202,30.448 L103.684,31.386 C101.892,30.728 100.408,30.014 99.232,29.244 C98.084,30.056 96.656,30.784 94.962,31.442 L94.43,30.504 C95.998,29.93 97.3,29.3 98.35,28.614 C97.258,27.774 96.488,26.864 96.026,25.884 C95.004,28.096 93.688,29.846 92.092,31.148 L91.574,30.224 C93.618,28.432 95.116,25.982 96.096,22.86 L92.624,22.86 Z M96.782,25.38 C97.258,26.332 98.056,27.214 99.176,28.026 C100.212,27.214 100.926,26.332 101.318,25.38 L96.782,25.38 Z M100.422,18.576 C101.43,19.346 102.256,20.116 102.928,20.886 L102.214,21.6 C101.626,20.858 100.8,20.074 99.75,19.234 L100.422,18.576 Z M112.406,22.244 L113.372,22.244 L113.372,23.952 L117.32,23.952 L117.32,28.656 C117.32,29.524 116.872,29.972 116.004,29.972 L114.688,29.972 L114.436,29.034 L115.682,29.062 C116.13,29.062 116.354,28.852 116.354,28.446 L116.354,24.89 L113.372,24.89 L113.372,31.4 L112.406,31.4 L112.406,24.89 L109.41,24.89 L109.41,30.07 L108.444,30.07 L108.444,24.708 C107.744,25.422 106.988,26.094 106.162,26.724 L105.518,25.884 C107.296,24.568 108.696,23.07 109.718,21.362 L105.98,21.362 L105.98,20.382 L110.25,20.382 C110.558,19.766 110.81,19.15 111.02,18.506 L112.042,18.632 C111.846,19.248 111.622,19.836 111.37,20.382 L118.16,20.382 L118.16,21.362 L110.88,21.362 C110.376,22.286 109.788,23.154 109.116,23.952 L112.406,23.952 L112.406,22.244 Z" id="部署/发布" fill="#444444" fill-rule="nonzero"></path>
                            <g id="Icons-/-rocket" transform="translate(20.000000, 12.000000)">
                                <g id="rocket">
                                    <rect id="Rectangle" fill="#000000" opacity="0" x="0" y="0" width="28" height="28"></rect>
                                    <path d="M23.625,20.125 C23.625,17.0734375 21.8367187,14.4375 19.25,13.2097656 L19.25,8.67617187 C19.25,8.26328125 19.1050781,7.8640625 18.8371094,7.54960937 L14.6699219,2.60859375 C14.4949219,2.40078125 14.2460938,2.296875 14,2.296875 C13.7539062,2.296875 13.5050781,2.40078125 13.3300781,2.60859375 L9.16289062,7.54960937 C8.89765625,7.8640625 8.75,8.26328125 8.75,8.67617187 L8.75,13.2097656 C6.16328125,14.4375 4.375,17.0734375 4.375,20.125 L8.65429688,20.125 C8.59140625,20.321875 8.55859375,20.5351562 8.55859375,20.7757812 C8.55859375,21.3800781 8.76640625,21.9707031 9.14375,22.4382812 C9.45273437,22.8210937 9.86015625,23.1109375 10.3222656,23.275 C10.9539063,24.7515625 12.3894531,25.703125 14,25.703125 C14.7957031,25.703125 15.5667969,25.4679687 16.2257812,25.025 C16.8710938,24.5929687 17.3714844,23.9886719 17.675,23.275 C18.1371094,23.1109375 18.5445312,22.8238281 18.8535156,22.4410156 C19.2308594,21.9707031 19.4386719,21.3800781 19.4386719,20.7785156 C19.4386719,20.5488281 19.4085937,20.3300781 19.3539063,20.1277344 L23.625,20.1277344 L23.625,20.125 Z M20.8441406,16.9914062 C21.1011719,17.390625 21.3089844,17.8199219 21.459375,18.265625 L19.140625,18.265625 L19.140625,15.2769531 C19.81875,15.7199219 20.4011719,16.3023438 20.8441406,16.9914063 L20.8441406,16.9914062 Z M10.609375,13.2097656 L10.609375,8.7171875 L14,4.69765625 L17.390625,8.7171875 L17.390625,18.265625 L10.609375,18.265625 L10.609375,13.2097656 Z M6.540625,18.265625 C6.69101563,17.8199219 6.89882812,17.390625 7.15585938,16.9914063 C7.6015625,16.3023437 8.18125,15.7199219 8.859375,15.2769531 L8.859375,18.265625 L6.540625,18.265625 Z M17.1746094,21.4429688 C17.0324219,21.525 16.8683594,21.5578125 16.7070312,21.5359375 L16.1738281,21.4703125 L16.0972656,22.0007813 C15.9496094,23.0371094 15.0472656,23.8191406 14,23.8191406 C12.9527344,23.8191406 12.0503906,23.0371094 11.9027344,22.0007813 L11.8261719,21.4675781 L11.2929687,21.5359375 C11.265625,21.5386719 11.2355469,21.5414063 11.2027344,21.5414063 C11.06875,21.5414063 10.9402344,21.5058594 10.8253906,21.4402344 C10.5875,21.3035156 10.4398437,21.0492188 10.4398437,20.7730469 C10.4398437,20.4832031 10.6011719,20.2425781 10.8390625,20.1222656 L17.1636719,20.1222656 C17.4042969,20.2453125 17.5628906,20.4859375 17.5628906,20.7730469 C17.5601562,21.0519531 17.4125,21.3089844 17.1746094,21.4429688 Z M12.6875,10.9375 C12.6875,11.6623737 13.2751263,12.25 14,12.25 C14.7248737,12.25 15.3125,11.6623737 15.3125,10.9375 C15.3125,10.2126263 14.7248737,9.625 14,9.625 C13.2751263,9.625 12.6875,10.2126263 12.6875,10.9375 L12.6875,10.9375 Z" id="Shape" fill="#00A4FF" fill-rule="nonzero"></path>
                                </g>
                            </g>
                        </g>
                    </g>
                    <g id="分组-30-copy" transform="translate(132.000000, 25.000000)">
                        <polygon id="XMLID_22_" fill="#878787" transform="translate(102.500000, 22.500000) rotate(-270.000000) translate(-102.500000, -22.500000) " points="100 27 105 22.5 100 18"></polygon>
                        <path d="M102.5,0.5 L0.534114682,0.5" id="直线-3" stroke="#878787" stroke-linecap="square"></path>
                        <path d="M102.5,0.5 L102.5,22.5" id="直线-4" stroke="#878787" stroke-linecap="square"></path>
                    </g>
                    <g id="分组-30-copy复制-18" transform="translate(300.000000, 85.000000)">
                        <polygon id="XMLID_22_" fill="#878787" transform="translate(102.500000, 22.500000) rotate(-270.000000) translate(-102.500000, -22.500000) " points="100 27 105 22.5 100 18"></polygon>
                        <path d="M102.5,0.5 L0.534114682,0.5" id="直线-3" stroke="#878787" stroke-linecap="square"></path>
                        <path d="M102.5,0.5 L102.5,22.5" id="直线-4" stroke="#878787" stroke-linecap="square"></path>
                    </g>
                    <g id="分组-30-copy复制-19" transform="translate(468.000000, 145.000000)">
                        <polygon id="XMLID_22_" fill="#878787" transform="translate(102.500000, 22.500000) rotate(-270.000000) translate(-102.500000, -22.500000) " points="100 27 105 22.5 100 18"></polygon>
                        <path d="M102.5,0.5 L0.534114682,0.5" id="直线-3" stroke="#878787" stroke-linecap="square"></path>
                        <path d="M102.5,0.5 L102.5,22.5" id="直线-4" stroke="#878787" stroke-linecap="square"></path>
                    </g>
                    <g id="分组-30-copy复制-20" transform="translate(641.000000, 205.000000)">
                        <polygon id="XMLID_22_" fill="#878787" transform="translate(102.500000, 22.500000) rotate(-270.000000) translate(-102.500000, -22.500000) " points="100 27 105 22.5 100 18"></polygon>
                        <path d="M102.5,0.5 L0.534114682,0.5" id="直线-3" stroke="#878787" stroke-linecap="square"></path>
                        <path d="M102.5,0.5 L102.5,22.5" id="直线-4" stroke="#878787" stroke-linecap="square"></path>
                    </g>
                </g>
            </g>
        </g>
    </g>
</svg>