<?xml version="1.0" encoding="utf-8"?>
<!-- Generator: Adobe Illustrator 16.0.0, SVG Export Plug-In . SVG Version: 6.00 Build 0)  -->
<!DOCTYPE svg PUBLIC "-//W3C//DTD SVG 1.1//EN" "http://www.w3.org/Graphics/SVG/1.1/DTD/svg11.dtd">
<svg version="1.1" id="图层_1" xmlns="http://www.w3.org/2000/svg" xmlns:xlink="http://www.w3.org/1999/xlink" x="0px" y="0px"
	 width="820px" height="320px" viewBox="0 0 820 320" enable-background="new 0 0 820 320" xml:space="preserve">
<linearGradient id="SVGID_1_" gradientUnits="userSpaceOnUse" x1="580.5999" y1="-238.8398" x2="690.5999" y2="-238.8398" gradientTransform="matrix(1 0 0 -1 -281.5996 -83.8398)">
	<stop  offset="0" style="stop-color:#0063FF"/>
	<stop  offset="1" style="stop-color:#00C8DE"/>
</linearGradient>
<path opacity="0.2" fill="url(#SVGID_1_)" enable-background="new    " d="M299,107v96h110v-96H299z M361,140.482
	c-3-2.278-8.18-3.417-13.105-3.417c-5.623,0-10.058,1.796-13.426,5.386c-3.366,3.591-5.023,8.282-5.023,14.077
	c0,5.646,1.613,10.189,4.809,13.631c3.192,3.442,7.405,5.163,12.854,5.163c5.125,0,9.894-1.238,13.894-3.715v11.254
	c-4,2.057-9.528,3.084-16.265,3.084c-8.668,0-15.484-2.594-20.573-7.782c-5.09-5.187-7.605-12.103-7.605-20.744
	c0-9.087,2.856-16.522,8.54-22.304c5.684-5.782,12.91-8.673,21.898-8.673c5.619,0,11.005,0.73,14.005,2.191L361,140.482L361,140.482
	z M388,137h-5v39h5v9h-21v-9h4v-39h-4v-9h21V137z"/>
<g>
	<g>
		<polyline fill="none" stroke="#D3D3D3" stroke-miterlimit="10" points="775.5,309.5 775.5,311.5 773.5,311.5 		"/>
		<line fill="none" stroke="#D3D3D3" stroke-miterlimit="10" stroke-dasharray="4,4" x1="770" y1="311.5" x2="559" y2="311.5"/>
		<polyline fill="none" stroke="#D3D3D3" stroke-miterlimit="10" points="557.5,311.5 555.5,311.5 555.5,309.5 		"/>
		<line fill="none" stroke="#D3D3D3" stroke-miterlimit="10" stroke-dasharray="4,4" x1="555.5" y1="306" x2="555.5" y2="14"/>
		<polyline fill="none" stroke="#D3D3D3" stroke-miterlimit="10" points="555.5,11.667 555.5,9.667 557.5,9.667 		"/>
		<line fill="none" stroke="#D3D3D3" stroke-miterlimit="10" stroke-dasharray="4,4" x1="561" y1="9.5" x2="772" y2="9.5"/>
		<polyline fill="none" stroke="#D3D3D3" stroke-miterlimit="10" points="773.5,9.667 775.5,9.667 775.5,11.667 		"/>
		<line fill="none" stroke="#D3D3D3" stroke-miterlimit="10" stroke-dasharray="4,4" x1="775.5" y1="16" x2="775.5" y2="308"/>
	</g>
</g>
<g opacity="0.3" enable-background="new    ">
	<g>
		
			<linearGradient id="SVGID_2_" gradientUnits="userSpaceOnUse" x1="945.0559" y1="-376.1729" x2="882.0563" y2="-313.1733" gradientTransform="matrix(1 0 0 -1 -281.5996 -83.8398)">
			<stop  offset="0" style="stop-color:#0063FF"/>
			<stop  offset="1" style="stop-color:#00C8DE"/>
		</linearGradient>
		<path fill="url(#SVGID_2_)" d="M630.906,249.689v37.192h38v-37.192H630.906z M632.906,234.883h-38v37h30.018l0.451-28.633
			l7.531-7.367V234.883z"/>
	</g>
</g>
<linearGradient id="SVGID_3_" gradientUnits="userSpaceOnUse" x1="1197.7952" y1="687.2119" x2="1154.6437" y2="644.0605" gradientTransform="matrix(1 0 0 1 -547.2002 -503.6797)">
	<stop  offset="0" style="stop-color:#0063FF"/>
	<stop  offset="1" style="stop-color:#00C8DE"/>
</linearGradient>
<polygon opacity="0.3" fill="url(#SVGID_3_)" enable-background="new    " points="647.779,176.381 647.78,170.715 657.444,170.682 
	663.444,170.682 663.444,148.38 599.444,148.38 599.444,180.381 647.779,180.381 "/>
<g>
	<g>
		<path fill="#DDDDDD" d="M219.545,156.979h8v-2h-8V156.979z M231.545,156.979h8v-2h-8V156.979z M243.545,156.979h8v-2h-8V156.979z
			 M255.545,156.979h8v-2h-8V156.979L255.545,156.979z M267.547,151.776V160l9.242-4.154L267.547,151.776z M171.683,156.979h8v-2h-8
			V156.979z M183.683,156.979h8v-2h-8V156.979z M195.683,156.979h8v-2h-8V156.979z M207.683,156.979h8v-2h-8V156.979z"/>
	</g>
</g>
<g>
	<g>
		<path fill="#DDDDDD" d="M476.854,156.979h8v-2h-8V156.979z M488.854,156.979h8v-2h-8V156.979z M500.854,156.979h8v-2h-8V156.979z
			 M512.854,156.979h8v-2h-8V156.979z M524.855,151.776V160l9.242-4.154L524.855,151.776z M428.99,156.979h8v-2h-8V156.979z
			 M440.99,156.979h8v-2h-8V156.979z M464.99,156.979h8v-2h-8V156.979z M452.99,156.979h8v-2h-8V156.979z"/>
	</g>
</g>
<g>
	<path fill="#888888" d="M694.959,77.896v9.659h-3.15v1.106h-1.008V77.896H694.959z M691.809,82.165h2.185v-3.276h-2.185V82.165z
		 M691.809,86.562h2.185v-3.431h-2.185V86.562z M697.438,85.287c-0.188,1.913-0.738,3.481-1.652,4.704l-0.798-0.729
		c0.97-1.334,1.47-3.033,1.498-5.096V77.56h5.739v10.976c0,0.85-0.429,1.274-1.287,1.274h-1.834l-0.266-0.994
		c0.856,0.037,1.451,0.056,1.776,0.056c0.394,0,0.588-0.233,0.588-0.7v-2.884L697.438,85.287L697.438,85.287z M701.202,80.989
		v-2.464h-3.71v2.464H701.202z M697.492,81.927v2.423h3.71v-2.423H697.492z"/>
	<path fill="#888888" d="M708.483,78.049v10.234h-0.966v-0.756h-1.808v1.05h-0.979V78.049H708.483z M705.711,82.333h1.807v-3.346
		h-1.807V82.333z M705.711,86.575h1.807v-3.29h-1.807V86.575z M712.99,76.999c0.168,0.354,0.346,0.84,0.532,1.456h3.107v0.952
		h-1.135c-0.148,0.793-0.367,1.572-0.656,2.338h2.002v0.952h-7.631v-0.952h1.987l-0.561-2.338h-1.078v-0.952h2.982
		c-0.168-0.448-0.363-0.877-0.589-1.288L712.99,76.999z M716.043,83.775v6.202h-0.967v-0.658h-4.06v0.686h-0.98v-6.229
		L716.043,83.775L716.043,83.775z M711.018,86.142h4.06v-1.471h-4.06V86.142z M711.018,88.423h4.06v-1.414h-4.06V88.423z
		 M712.151,81.745h1.722c0.326-0.746,0.562-1.526,0.7-2.338h-2.996L712.151,81.745z"/>
	<path fill="#888888" d="M718.549,80.653h4.551v0.798c-0.729,3.108-2.166,5.455-4.313,7.042l-0.645-0.826
		c1.914-1.409,3.234-3.421,3.963-6.034h-3.557L718.549,80.653L718.549,80.653z M730.197,79.911c-1.102,1.363-2.245,2.501-3.43,3.416
		c1.082,1.764,2.515,3.239,4.297,4.424l-0.615,0.91c-2.444-1.885-4.186-4.041-5.223-6.468v6.37c0,0.877-0.415,1.315-1.246,1.315
		h-1.834l-0.209-0.994c0.652,0.047,1.218,0.07,1.693,0.07c0.373,0,0.561-0.215,0.561-0.644V77.041h1.035v2.968
		c0.289,0.878,0.649,1.718,1.078,2.521c1.11-0.915,2.138-1.988,3.08-3.22L730.197,79.911z"/>
	<path fill="#888888" d="M734.174,83.104v4.102c1.166-0.242,2.454-0.56,3.862-0.952l0.267,0.924
		c-1.754,0.485-3.473,0.888-5.151,1.204l-0.406-0.84c0.28-0.14,0.42-0.359,0.42-0.658v-8.638c1.766-0.299,3.348-0.681,4.746-1.148
		l0.63,0.799c-1.287,0.447-2.743,0.821-4.366,1.12v3.121h4.018v0.967L734.174,83.104L734.174,83.104z M741.719,88.06l-0.279-0.98
		l1.302,0.028c0.411,0,0.616-0.21,0.616-0.63v-7.645h-3.164v11.116h-1.021V77.881h5.207v8.807c0,0.914-0.435,1.372-1.303,1.372
		H741.719z"/>
</g>
<g>
	<path fill="#C6C6C6" d="M567.979,18.328h0.84v3.168h0.78v0.876h-2.894l-0.012,1.656h2.28v5.147h-0.84v-4.271h-1.5
		c-0.145,1.808-0.477,3.176-0.996,4.104l-0.636-0.576c0.543-1.119,0.818-2.896,0.828-5.328v-4.535h0.875v2.928h1.271v-3.169H567.979
		z M571.004,22.492v1.319c-0.05,2.217-0.438,3.992-1.164,5.328l-0.601-0.636c0.601-1.128,0.925-2.691,0.972-4.692v-4.764
		c1.889-0.023,3.588-0.275,5.101-0.756l0.433,0.78c-1.416,0.408-2.995,0.647-4.739,0.72v1.884h4.438v0.732
		c-0.271,1.664-0.796,3.067-1.572,4.212c0.576,0.776,1.298,1.384,2.16,1.824L575.6,29.2c-0.912-0.473-1.664-1.101-2.256-1.884
		c-0.664,0.768-1.452,1.399-2.364,1.896l-0.42-0.768c0.888-0.488,1.646-1.108,2.28-1.86c-0.681-1.112-1.16-2.476-1.44-4.092H571.004
		z M572.18,22.492c0.264,1.304,0.66,2.424,1.188,3.359c0.608-0.976,1.021-2.096,1.236-3.359H572.18z"/>
	<path fill="#C6C6C6" d="M579.943,29.152h-0.863v-6.229c-0.425,1.24-1.004,2.384-1.739,3.433l-0.396-0.973
		c0.992-1.184,1.696-2.52,2.112-4.008h-1.86v-0.828h1.885v-2.34h0.863v2.34h1.584v0.828h-1.584v0.684
		c0.584,0.561,1.191,1.213,1.824,1.956l-0.492,0.732c-0.512-0.744-0.956-1.344-1.332-1.8L579.943,29.152L579.943,29.152z
		 M582.295,19.756h-0.479v-0.828h5.399v0.816c-0.345,2.24-1.023,4.168-2.039,5.784c0.783,1.104,1.752,2.084,2.903,2.939
		l-0.588,0.696c-1.137-0.896-2.076-1.864-2.819-2.904c-0.832,1.128-1.86,2.092-3.084,2.893l-0.554-0.696
		c1.272-0.848,2.313-1.836,3.12-2.964C583.084,23.756,582.463,21.844,582.295,19.756z M583.136,19.756
		c0.144,1.856,0.65,3.512,1.523,4.968c0.855-1.424,1.429-3.079,1.716-4.968H583.136z"/>
	<path fill="#C6C6C6" d="M592.411,18.496c-0.271,0.848-0.629,1.684-1.067,2.508v8.22h-0.877V22.42
		c-0.433,0.6-0.867,1.136-1.308,1.608l-0.289-0.925c1.248-1.439,2.156-3.1,2.726-4.979L592.411,18.496z M593.118,18.736h5.664v3.779
		h-2.412v1.309h3.457v0.84h-2.604c0.688,1.208,1.624,2.252,2.808,3.132l-0.552,0.756c-1.185-1.048-2.168-2.344-2.952-3.888h-0.156
		V29.2h-0.862v-4.536h-0.146c-0.8,1.664-1.813,2.964-3.035,3.9l-0.479-0.78c1.176-0.809,2.115-1.849,2.82-3.12h-2.496v-0.84h3.336
		v-1.309h-2.39L593.118,18.736L593.118,18.736z M597.932,21.688v-2.124h-3.96v2.124H597.932z"/>
	<path fill="#C6C6C6" d="M601.304,29.092l-0.182-0.84c0.496,0.032,0.856,0.048,1.08,0.048c0.313,0,0.47-0.164,0.47-0.492v-2.88
		c-0.656,0.225-1.152,0.384-1.488,0.48l-0.217-0.864c0.576-0.128,1.145-0.284,1.705-0.468v-2.748h-1.513V20.5h1.513v-2.268h0.875
		V20.5h1.309v0.828h-1.309v2.436c0.439-0.176,0.899-0.38,1.381-0.611v0.852c-0.24,0.112-0.7,0.313-1.381,0.6v3.421
		c0,0.712-0.349,1.067-1.043,1.067L601.304,29.092L601.304,29.092z M606.428,23.596c-0.024,2.168-0.536,4.036-1.536,5.604
		l-0.647-0.576c0.871-1.328,1.313-3.04,1.319-5.136V19.66h2.651c-0.151-0.448-0.336-0.904-0.552-1.368l0.912-0.144
		c0.168,0.439,0.336,0.943,0.504,1.512h2.567v3.936H606.428z M610.808,20.488h-4.38v2.279h4.38V20.488z"/>
</g>
<g>
	<path fill="#888888" d="M693.84,166.475h2.926c0.131-0.391,0.232-0.824,0.308-1.301h-4.788v4.48
		c-0.057,2.828-0.509,5.082-1.356,6.762l-0.756-0.672c0.698-1.475,1.063-3.506,1.092-6.09v-5.475h11.396v0.993h-4.578
		c-0.084,0.447-0.195,0.882-0.336,1.302h3.893v5.35h-3.248v3.471c0,0.738-0.377,1.107-1.133,1.107h-1.414l-0.211-0.994
		c0.495,0.045,0.92,0.068,1.273,0.068c0.317,0,0.477-0.14,0.477-0.42v-3.232h-3.541v-5.35H693.84z M695.729,172.902
		c-0.635,1.192-1.381,2.225-2.239,3.094l-0.841-0.588c0.841-0.793,1.573-1.77,2.199-2.926L695.729,172.902z M694.819,168.701h5.838
		V167.4h-5.838V168.701z M700.656,170.914v-1.344h-5.838v1.344H700.656z M700.531,172.467c0.952,1.139,1.693,2.143,2.228,3.01
		l-0.842,0.574c-0.531-0.914-1.265-1.941-2.197-3.08L700.531,172.467z"/>
	<path fill="#888888" d="M716.309,164.221v12.223h-0.979v-0.573h-9.464v0.573h-0.979v-12.223H716.309z M705.865,174.973h9.464
		v-9.854h-9.464V174.973z M710.148,165.537c-0.13,0.318-0.252,0.574-0.363,0.77h3.695v0.701c-0.4,0.756-0.993,1.408-1.777,1.959
		c0.98,0.467,2.05,0.836,3.206,1.107l-0.531,0.756c-1.363-0.365-2.529-0.816-3.5-1.359c-1.082,0.58-2.417,1.041-4.004,1.387
		l-0.447-0.813c1.437-0.252,2.649-0.611,3.639-1.078c-0.559-0.373-1.031-0.764-1.413-1.176c-0.421,0.393-0.896,0.756-1.429,1.092
		l-0.561-0.727c1.278-0.756,2.143-1.666,2.591-2.73L710.148,165.537z M708.105,172.299c1.848,0.346,3.635,0.846,5.361,1.498
		l-0.336,0.813c-1.736-0.672-3.541-1.188-5.418-1.555L708.105,172.299z M709.561,170.34c1.064,0.354,2.068,0.793,3.011,1.316
		l-0.476,0.727c-0.943-0.568-1.941-1.025-2.996-1.371L709.561,170.34z M712.473,167.063h-3.178c-0.057,0.058-0.099,0.113-0.126,0.17
		c0.484,0.468,1.055,0.9,1.708,1.302C711.568,168.113,712.1,167.623,712.473,167.063z"/>
	<path fill="#888888" d="M722.16,163.955c-0.316,0.99-0.732,1.965-1.246,2.926v9.59h-1.021v-7.938
		c-0.504,0.701-1.012,1.326-1.525,1.877l-0.336-1.078c1.456-1.68,2.517-3.617,3.179-5.811L722.16,163.955z M722.987,164.236h6.608
		v4.408h-2.814v1.526h4.031v0.979h-3.037c0.803,1.408,1.896,2.627,3.275,3.652l-0.645,0.883c-1.382-1.223-2.528-2.733-3.443-4.535
		h-0.183v5.291h-1.008v-5.291h-0.168c-0.934,1.941-2.114,3.457-3.543,4.55l-0.561-0.91c1.372-0.94,2.47-2.156,3.29-3.64h-2.911
		v-0.979h3.893v-1.526h-2.786L722.987,164.236L722.987,164.236z M728.602,167.68v-2.479h-4.621v2.479H728.602z"/>
	<path fill="#888888" d="M732.534,176.318l-0.21-0.98c0.579,0.037,0.999,0.055,1.26,0.055c0.364,0,0.547-0.19,0.547-0.572v-3.36
		c-0.767,0.263-1.345,0.449-1.736,0.562l-0.252-1.008c0.672-0.15,1.335-0.332,1.988-0.548v-3.205h-1.765v-0.967h1.765v-2.646h1.021
		v2.646h1.526v0.967h-1.526v2.843c0.513-0.205,1.05-0.443,1.61-0.715v0.993c-0.28,0.132-0.817,0.365-1.61,0.701v3.99
		c0,0.829-0.406,1.245-1.218,1.245H732.534L732.534,176.318z M738.514,169.906c-0.028,2.529-0.626,4.709-1.793,6.537l-0.756-0.672
		c1.018-1.549,1.53-3.547,1.541-5.992v-4.467h3.094c-0.178-0.521-0.394-1.054-0.646-1.597l1.064-0.168
		c0.195,0.515,0.392,1.103,0.588,1.765h2.996v4.594H738.514z M743.622,166.279h-5.108v2.66h5.108V166.279z"/>
</g>
<g>
	<path fill="#888888" d="M691.6,257.107h10.01v4.83h-4.508v1.119h4.746v0.896h-4.746v1.176h5.558v0.91h-12.124v-0.91h5.56v-1.176
		h-4.746v-0.896h4.746v-1.119H691.6V257.107z M692.859,266.852c-0.364,0.99-0.822,1.84-1.372,2.549l-0.925-0.321
		c0.542-0.653,1.014-1.476,1.414-2.464L692.859,266.852z M696.135,261.084v-3.094h-3.57v3.094H696.135z M694.26,258.438
		c0.345,0.578,0.656,1.246,0.938,2.002l-0.826,0.225c-0.262-0.682-0.568-1.335-0.924-1.96L694.26,258.438z M695.029,266.754
		c0.347,0.729,0.672,1.555,0.98,2.479l-0.98,0.225c-0.243-0.98-0.541-1.814-0.896-2.506L695.029,266.754z M700.643,261.084v-3.094
		h-3.584v3.094H700.643z M698.025,266.684c0.4,0.729,0.76,1.56,1.078,2.492l-0.967,0.225c-0.279-0.951-0.615-1.791-1.008-2.521
		L698.025,266.684z M699.678,258.592c-0.252,0.784-0.574,1.471-0.967,2.059l-0.813-0.293c0.355-0.523,0.668-1.187,0.939-1.988
		L699.678,258.592z M700.824,266.559c0.747,0.83,1.339,1.592,1.778,2.281l-0.799,0.561c-0.42-0.69-0.998-1.479-1.735-2.365
		L700.824,266.559z"/>
	<path fill="#888888" d="M715.483,258.788v10.584h-1.021v-1.106h-7.715v1.135h-1.021v-10.611h3.332
		c0.318-0.736,0.551-1.498,0.701-2.282l1.104,0.154c-0.158,0.784-0.388,1.493-0.686,2.128L715.483,258.788L715.483,258.788z
		 M706.746,262.918h7.715v-3.164h-7.715V262.918z M706.746,267.286h7.715v-3.416h-7.715V267.286z"/>
	<path fill="#888888" d="M722.567,268.532v0.825h-1.009v-4.941c-0.84,0.271-1.759,0.527-2.758,0.77l-0.531-0.965
		c2.454-0.514,4.471-1.166,6.048-1.961c-0.616-0.521-1.456-1.082-2.521-1.68l0.867-0.546c1.083,0.672,1.919,1.26,2.508,1.764
		c1.428-0.849,2.468-1.848,3.12-2.995h-5.18c-0.952,0.877-2.166,1.665-3.641,2.365l-0.672-0.868
		c2.381-1.017,3.995-2.272,4.844-3.766l1.105,0.126c-0.215,0.4-0.467,0.798-0.756,1.189h5.46v0.896
		c-1.008,1.923-2.822,3.489-5.444,4.704h5.838v5.908h-1.022v-0.826L722.567,268.532L722.567,268.532z M728.824,267.552v-3.163
		h-6.258v3.163H728.824z"/>
	<path fill="#888888" d="M733.922,258.746h2.674c-0.43-0.689-0.869-1.293-1.316-1.807l0.882-0.42
		c0.438,0.531,0.883,1.162,1.33,1.891l-0.644,0.336h2.896c0.438-0.729,0.809-1.488,1.106-2.282l0.966,0.351
		c-0.316,0.729-0.667,1.371-1.05,1.933h2.521v5.823h-4.173v1.273h5.712v0.967h-5.712v2.633h-1.021v-2.633h-5.728v-0.967h5.728
		v-1.273h-4.172V258.746L733.922,258.746z M734.914,261.225h3.18v-1.555h-3.18V261.225z M738.094,263.674v-1.566h-3.18v1.566
		H738.094z M739.115,259.67v1.555h3.164v-1.555H739.115z M742.279,263.674v-1.566h-3.164v1.566H742.279z"/>
</g>
<g>
	<path fill="#888888" d="M330.256,240.053l-0.28,0.771h2.912v0.854c-0.309,0.915-0.817,1.708-1.526,2.381
		c0.663,0.279,1.293,0.588,1.891,0.924l-0.547,0.813c-0.644-0.383-1.354-0.747-2.128-1.092c-0.942,0.645-2.108,1.162-3.5,1.554
		l-0.489-0.868c1.167-0.308,2.146-0.689,2.939-1.146l-1.945-0.784c0.392-0.646,0.709-1.219,0.951-1.724h-1.638v-0.908h2.058
		c0.233-0.653,0.341-0.947,0.322-0.883L330.256,240.053z M326.938,236.133h2.73v-2.674h0.938v2.674h2.548v0.883h-2.548v0.153
		c0.765,0.383,1.54,0.812,2.324,1.288l-0.519,0.784c-0.699-0.562-1.302-1.009-1.806-1.345v1.819h-0.938v-2.659
		c-0.458,1.092-1.293,2.049-2.507,2.869l-0.489-0.813c1.083-0.635,1.834-1.334,2.254-2.1h-1.988V236.133z M328.002,233.753
		c0.363,0.569,0.662,1.144,0.896,1.722l-0.784,0.364c-0.289-0.663-0.605-1.265-0.952-1.806L328.002,233.753z M331.937,241.732
		h-2.366c-0.232,0.477-0.484,0.92-0.756,1.33c0.561,0.195,1.087,0.393,1.582,0.588C331.097,243.082,331.61,242.441,331.937,241.732z
		 M333.028,234.047c-0.289,0.635-0.647,1.241-1.078,1.82l-0.756-0.406c0.448-0.635,0.793-1.236,1.036-1.807L333.028,234.047z
		 M334.54,238.807c-0.242,0.616-0.518,1.19-0.825,1.723l-0.63-0.771c0.83-1.577,1.386-3.69,1.665-6.342l0.98,0.168
		c-0.065,0.579-0.168,1.246-0.308,2.002h3.695v0.966h-0.909c-0.057,2.334-0.472,4.331-1.246,5.992c0.736,1.23,1.601,2.18,2.59,2.842
		l-0.574,0.854c-0.961-0.673-1.797-1.593-2.506-2.759c-0.683,1.119-1.55,2.059-2.604,2.813l-0.531-0.854
		c1.092-0.756,1.954-1.729,2.59-2.926C335.375,241.416,334.913,240.18,334.54,238.807z M335.212,236.553
		c-0.094,0.336-0.159,0.583-0.196,0.742c0.345,1.587,0.802,2.98,1.372,4.186c0.541-1.418,0.84-3.061,0.896-4.928H335.212
		L335.212,236.553z"/>
	<path fill="#888888" d="M341.106,246.157l-0.21-0.952c0.401,0.046,0.756,0.068,1.064,0.068c0.354,0,0.531-0.205,0.531-0.614v-3.416
		c-0.653,0.241-1.204,0.434-1.651,0.573l-0.252-0.979c0.635-0.149,1.27-0.341,1.903-0.573V237.1h-1.68v-0.967h1.68v-2.646h0.98
		v2.646h1.344v0.967h-1.344v2.758c0.448-0.195,0.882-0.405,1.302-0.631v0.994c-0.29,0.149-0.723,0.354-1.302,0.616v4.074
		c0,0.83-0.393,1.246-1.176,1.246H341.106L341.106,246.157z M346.482,239.969c-0.168,2.391-0.714,4.494-1.638,6.314l-0.784-0.7
		c0.989-1.849,1.493-4.247,1.512-7.196v-4.382h7.378v3.402h-2.632v1.651h2.996v0.909h-2.996v1.722h2.353v4.594h-0.938v-0.688h-3.794
		v0.688H347v-4.594h2.338v-1.722L346.482,239.969L346.482,239.969z M349.338,237.407h-2.786l-0.015,1.651h2.801V237.407
		L349.338,237.407z M351.971,234.941h-5.418v1.556h5.418V234.941z M347.938,244.701h3.794v-2.114h-3.794V244.701z"/>
	<path fill="#888888" d="M354.868,234.396h12.265v0.967h-7.21v0.615c-0.02,0.904-0.065,1.703-0.141,2.395h6.034
		c-0.028,3.725-0.191,5.939-0.49,6.648c-0.336,0.729-0.896,1.094-1.68,1.094c-0.308,0-0.985-0.02-2.03-0.057l-0.252-0.967l2.03,0.07
		c0.588-0.028,0.966-0.354,1.134-0.98c0.149-0.662,0.238-2.291,0.267-4.886h-5.124c-0.206,1.325-0.51,2.44-0.91,3.347
		c-0.729,1.549-1.909,2.754-3.542,3.611l-0.561-0.882c1.586-0.858,2.697-2.024,3.332-3.5c0.578-1.503,0.892-3.468,0.938-5.896
		v-0.615h-4.061V234.396z"/>
	<path fill="#888888" d="M370.311,236.691c-0.29,0.16-0.607,0.313-0.952,0.463l-0.63-0.771c1.876-0.774,3.402-1.782,4.578-3.024
		l1.05,0.238c-0.317,0.336-0.56,0.588-0.728,0.756h4.451v0.672c-0.43,0.449-0.877,0.847-1.344,1.19h3.654v3.122h-5.614
		c0.784,0.645,1.367,1.32,1.75,2.03c1.392-0.438,2.543-0.985,3.458-1.64l0.658,0.756c-0.672,0.449-1.414,0.842-2.227,1.178
		c0.589,1.204,1.615,2.268,3.08,3.191l-0.672,0.84c-1.54-1.129-2.627-2.365-3.262-3.711l-0.658,0.211
		c0.159,0.447,0.252,0.947,0.28,1.498c0,0.951-0.191,1.619-0.574,2.002c-0.364,0.316-0.979,0.519-1.848,0.603
		c-0.309,0.028-0.641,0.042-0.994,0.042l-0.308-0.924l1.189-0.016c0.448-0.026,0.817-0.148,1.106-0.362
		c0.271-0.226,0.405-0.673,0.405-1.345c0-0.215-0.022-0.438-0.069-0.672c-1.605,1.186-3.757,2.146-6.454,2.885l-0.504-0.868
		c2.912-0.757,5.146-1.728,6.706-2.912c-0.112-0.28-0.267-0.569-0.462-0.868c-1.372,1.008-3.243,1.834-5.614,2.479l-0.49-0.854
		c2.437-0.588,4.313-1.335,5.628-2.239c-0.252-0.281-0.518-0.533-0.798-0.757c-1.092,0.821-2.59,1.396-4.494,1.722l-0.392-0.84
		c1.735-0.279,3.094-0.756,4.073-1.428h-2.981V236.691L370.311,236.691z M375.448,236.217c0.401-0.261,0.854-0.615,1.358-1.064
		h-4.103c-0.43,0.347-0.942,0.701-1.54,1.064H375.448z M374.23,238.499c0.364-0.448,0.63-0.929,0.798-1.442h-3.724v1.442H374.23z
		 M379.396,238.499v-1.442h-3.36c-0.158,0.551-0.368,1.031-0.63,1.442H379.396z"/>
</g>
<g>
	<path fill="#888888" d="M80.212,234.061v12.224h-0.98v-0.574h-9.464v0.574h-0.979v-12.224H80.212z M69.769,244.813h9.464v-9.854
		h-9.464V244.813z M74.052,235.377c-0.13,0.316-0.252,0.574-0.364,0.77h3.696v0.701c-0.401,0.756-0.994,1.408-1.778,1.959
		c0.98,0.467,2.049,0.836,3.206,1.106l-0.532,0.756c-1.362-0.364-2.528-0.815-3.5-1.358c-1.083,0.58-2.417,1.041-4.004,1.388
		l-0.447-0.813c1.437-0.252,2.649-0.611,3.64-1.078c-0.56-0.373-1.031-0.765-1.414-1.176c-0.42,0.393-0.896,0.756-1.428,1.092
		l-0.561-0.728c1.279-0.757,2.143-1.666,2.59-2.729L74.052,235.377z M72.008,242.139c1.848,0.346,3.635,0.846,5.362,1.498
		l-0.336,0.813c-1.736-0.673-3.542-1.19-5.418-1.556L72.008,242.139z M73.464,240.18c1.063,0.354,2.066,0.793,3.01,1.315
		l-0.476,0.728c-0.943-0.568-1.941-1.025-2.996-1.371L73.464,240.18z M76.376,236.902h-3.179c-0.056,0.057-0.098,0.111-0.126,0.168
		c0.485,0.468,1.056,0.9,1.708,1.303C75.471,237.953,76.003,237.463,76.376,236.902z"/>
	<path fill="#888888" d="M85.238,241.243c-0.308,2.081-0.993,3.682-2.058,4.802l-0.756-0.672c1.279-1.354,1.927-3.533,1.946-6.538
		v-5.222h1.035v3.262h4.396v-3.432h0.98v3.432h3.863v0.979h-9.24v0.98c-0.009,0.354-0.032,0.835-0.069,1.441h6.397v6.033h-1.021
		v-5.066L85.238,241.243L85.238,241.243z"/>
	<path fill="#888888" d="M99.561,233.6h0.98v3.695h0.91v1.021h-3.374l-0.015,1.933h2.66v6.006h-0.979v-4.983h-1.75
		c-0.168,2.108-0.557,3.705-1.162,4.787l-0.742-0.672c0.635-1.307,0.957-3.379,0.966-6.216v-5.292h1.022v3.416h1.483V233.6z
		 M103.088,238.457v1.54c-0.056,2.585-0.509,4.657-1.358,6.216l-0.7-0.742c0.7-1.314,1.078-3.141,1.135-5.474v-5.56
		c2.203-0.026,4.186-0.32,5.949-0.881l0.505,0.909c-1.652,0.476-3.496,0.757-5.53,0.841v2.197h5.18v0.854
		c-0.316,1.941-0.929,3.58-1.834,4.914c0.672,0.905,1.512,1.615,2.521,2.129l-0.504,0.883c-1.064-0.551-1.941-1.284-2.633-2.198
		c-0.774,0.896-1.693,1.633-2.758,2.212l-0.49-0.896c1.036-0.567,1.924-1.291,2.66-2.17c-0.793-1.297-1.354-2.889-1.68-4.772
		L103.088,238.457L103.088,238.457z M104.46,238.457c0.308,1.521,0.77,2.828,1.386,3.92c0.709-1.139,1.19-2.445,1.442-3.92H104.46z"
		/>
	<path fill="#888888" d="M113.519,246.227h-1.008v-7.266c-0.495,1.446-1.171,2.781-2.03,4.004l-0.462-1.134
		c1.157-1.382,1.979-2.94,2.464-4.677h-2.17v-0.967h2.198v-2.729h1.008v2.729h1.849v0.967h-1.849v0.799
		c0.682,0.652,1.392,1.414,2.128,2.281l-0.574,0.854c-0.597-0.867-1.114-1.568-1.554-2.1V246.227z M116.263,235.266h-0.56v-0.967
		h6.3v0.952c-0.401,2.612-1.195,4.862-2.38,6.748c0.915,1.288,2.044,2.433,3.388,3.431l-0.686,0.813
		c-1.326-1.047-2.423-2.176-3.29-3.389c-0.972,1.315-2.17,2.439-3.599,3.373l-0.644-0.812c1.483-0.989,2.697-2.144,3.64-3.458
		C117.182,239.932,116.458,237.701,116.263,235.266z M117.243,235.266c0.168,2.166,0.76,4.098,1.777,5.795
		c0.999-1.66,1.666-3.593,2.002-5.795H117.243z"/>
</g>
<g>
	<g>
		
			<linearGradient id="SVGID_4_" gradientUnits="userSpaceOnUse" x1="945.2629" y1="-195.3643" x2="877.7698" y2="-127.8711" gradientTransform="matrix(1 0 0 -1 -281.5996 -83.8398)">
			<stop  offset="0" style="stop-color:#0063FF"/>
			<stop  offset="1" style="stop-color:#00C8DE"/>
		</linearGradient>
		<path fill="url(#SVGID_4_)" d="M660.123,84.944l-2.947-5.972l-2.947,5.972l-6.591,0.958l4.771,4.647l-1.127,6.564l5.896-3.1
			l5.895,3.1l-1.126-6.564l4.771-4.647L660.123,84.944z M660.413,93.458l-3.237-1.703l-3.238,1.702l0.619-3.605l-2.62-2.553
			l3.62-0.526l1.619-3.281l1.62,3.281l3.619,0.526l-2.619,2.553L660.413,93.458z M670.352,92.633v-7.706
			c0.054,0.177,0.049-2.939,0-3.031v-9.488h-0.002V50.711h-80.86v54.14h49.815v0.035h4.969c0.023,0.017,0.047,0.033,0.068,0.052
			l3.452-0.043c-0.005-0.003-0.01-0.006-0.015-0.009h22.521l0.058-0.356c0.002-0.002,0.043-2.659-0.008-2.608v-6.257
			C670.4,95.574,670.405,92.456,670.352,92.633z M669.346,95.109c-2.273,4.283-6.77,7.212-11.947,7.212
			c-7.467,0-13.542-6.074-13.542-13.542c0-7.467,6.075-13.542,13.542-13.542c5.179,0,9.674,2.929,11.947,7.212V95.109z
			 M669.346,80.264c-2.667-3.735-7.02-6.188-11.947-6.188c-8.107,0-14.704,6.597-14.704,14.704c0,8.108,6.597,14.704,14.704,14.704
			c4.929,0,9.28-2.452,11.947-6.188v5.545c-0.417,0.361-0.849,0.707-1.289,1.038l-23.158-0.027
			c-4.42-3.034-7.262-8.663-7.262-15.027c0-10.617,8.639-19.253,19.253-19.253c4.854,0,9.068,1.377,12.456,4.353V80.264z
			 M669.35,72.408h-0.004v0.139c-3.407-2.526-7.605-4.039-12.162-4.039c-11.298,0-20.489,9.191-20.489,20.489
			c0,5.849,2.478,11.118,6.42,14.855H590.49v-52.14h78.86V72.408L669.35,72.408z"/>
	</g>
</g>
<linearGradient id="SVGID_5_" gradientUnits="userSpaceOnUse" x1="939.0999" y1="-189.3403" x2="883.0998" y2="-133.3404" gradientTransform="matrix(1 0 0 -1 -281.5996 -83.8398)">
	<stop  offset="0" style="stop-color:#0063FF"/>
	<stop  offset="1" style="stop-color:#00C8DE"/>
</linearGradient>
<path opacity="0.2" fill="url(#SVGID_5_)" enable-background="new    " d="M649.235,56l0.673,0.673l-0.855,0.857l-1.53-1.53h-1.305
	l1.521,3.371c0.463,1.027,0.413,1.822-0.147,2.384c-0.224,0.222-0.418,0.371-0.586,0.448l-0.689-0.689
	c0.182-0.05,0.341-0.145,0.479-0.282c0.233-0.234,0.285-0.513,0.154-0.836l-0.224-0.548l-4.128-1.748l0.953-0.953l2.419,1.27
	c0.146,0.076,0.298,0.176,0.452,0.298l0.016-0.016c-0.081-0.106-0.175-0.26-0.282-0.458L644.993,56h-25.259l0.048,0.048
	l-0.855,0.857L618.021,56h-1.647l1.238,2.746c0.463,1.027,0.413,1.822-0.147,2.384c-0.224,0.222-0.418,0.371-0.586,0.448
	l-0.689-0.689c0.182-0.05,0.341-0.145,0.479-0.282c0.232-0.234,0.284-0.513,0.153-0.836l-0.224-0.548l-4.128-1.748l0.953-0.953
	l2.419,1.27c0.146,0.076,0.298,0.176,0.452,0.298l0.016-0.016c-0.081-0.106-0.175-0.26-0.282-0.458L615.193,56H595v43h9.886
	c0.205-0.263,0.239-0.474,0.086-0.628c-0.135-0.135-0.395-0.102-0.777,0.101c-0.479,0.251-0.854,0.377-1.133,0.374
	c-0.275-0.003-0.531-0.123-0.771-0.361c-0.288-0.289-0.397-0.632-0.328-1.031c0.07-0.398,0.296-0.787,0.675-1.167
	c0.27-0.27,0.569-0.489,0.899-0.66l0.677,0.676c-0.363,0.093-0.685,0.278-0.958,0.553c-0.138,0.137-0.224,0.271-0.258,0.403
	c-0.034,0.132-0.012,0.238,0.068,0.318c0.135,0.135,0.367,0.121,0.699-0.044c0.354-0.178,0.636-0.297,0.842-0.358
	c0.207-0.061,0.404-0.068,0.594-0.019c0.189,0.049,0.361,0.151,0.519,0.307c0.304,0.304,0.418,0.661,0.342,1.072
	c-0.028,0.155-0.088,0.31-0.164,0.464h28.707c-0.146-0.235-0.192-0.5-0.142-0.795c0.07-0.398,0.296-0.787,0.675-1.167
	c0.27-0.27,0.569-0.489,0.899-0.66l0.677,0.676c-0.363,0.093-0.685,0.278-0.958,0.553c-0.138,0.137-0.224,0.271-0.258,0.403
	c-0.034,0.132-0.012,0.238,0.068,0.318c0.135,0.135,0.367,0.121,0.699-0.044c0.354-0.178,0.636-0.297,0.842-0.358
	c0.207-0.061,0.404-0.068,0.594-0.019c0.189,0.049,0.361,0.151,0.519,0.307c0.23,0.231,0.351,0.493,0.361,0.786H664V56H649.235z
	 M647.522,82.008c0.149-0.149,0.313-0.227,0.489-0.236c0.176-0.008,0.328,0.052,0.456,0.18c0.13,0.13,0.189,0.284,0.182,0.464
	c-0.008,0.181-0.084,0.343-0.229,0.489c-0.146,0.144-0.308,0.219-0.487,0.226c-0.181,0.008-0.335-0.053-0.463-0.181
	c-0.131-0.131-0.191-0.284-0.182-0.46C647.299,82.314,647.378,82.153,647.522,82.008z M645.166,61.415l-0.856,0.856l-2.943-2.943
	l0.857-0.856L645.166,61.415z M643.907,87.158c-0.009,0.181-0.085,0.343-0.229,0.489c-0.145,0.144-0.307,0.219-0.487,0.226
	c-0.18,0.007-0.334-0.053-0.462-0.181c-0.132-0.132-0.192-0.285-0.182-0.461c0.011-0.175,0.089-0.336,0.232-0.481
	c0.15-0.149,0.313-0.228,0.49-0.236c0.176-0.007,0.327,0.052,0.455,0.18C643.855,86.824,643.916,86.979,643.907,87.158z
	 M640.405,57.5c0.15-0.149,0.313-0.228,0.49-0.236c0.176-0.007,0.327,0.052,0.455,0.18c0.13,0.13,0.189,0.284,0.183,0.464
	c-0.009,0.181-0.085,0.343-0.229,0.489c-0.145,0.144-0.307,0.219-0.487,0.226c-0.18,0.007-0.334-0.053-0.462-0.181
	c-0.132-0.132-0.192-0.285-0.182-0.461C640.183,57.807,640.261,57.646,640.405,57.5z M638.662,62.032l1.695,1.695
	c0.439,0.44,0.832,0.488,1.176,0.144c0.174-0.172,0.25-0.37,0.232-0.593c-0.02-0.224-0.131-0.438-0.336-0.644l-1.686-1.685
	l0.854-0.854l2.943,2.943l-0.854,0.854l-0.45-0.45l-0.014,0.013c0.129,0.568,0.002,1.042-0.38,1.423
	c-0.686,0.686-1.44,0.614-2.269-0.213l-1.773-1.774L638.662,62.032z M633.776,64.092l1.855,1.855l0.011-0.011
	c-0.118-0.568,0.015-1.042,0.396-1.424c0.667-0.668,1.403-0.599,2.209,0.207l1.808,1.807l-0.856,0.857l-1.677-1.677
	c-0.452-0.452-0.844-0.514-1.174-0.184c-0.165,0.165-0.238,0.364-0.22,0.598c0.019,0.233,0.129,0.45,0.327,0.65l1.678,1.676
	l-0.858,0.859l-4.355-4.356L633.776,64.092z M615.968,81.202c0.13,0.13,0.189,0.284,0.182,0.464
	c-0.008,0.181-0.084,0.343-0.229,0.489c-0.146,0.144-0.308,0.219-0.487,0.226c-0.181,0.008-0.335-0.053-0.463-0.181
	c-0.131-0.131-0.191-0.284-0.182-0.46c0.011-0.176,0.09-0.337,0.233-0.482c0.149-0.149,0.313-0.227,0.489-0.236
	C615.688,81.015,615.84,81.074,615.968,81.202z M615.041,60.79l-0.856,0.856l-2.943-2.943l0.857-0.856L615.041,60.79z
	 M610.28,56.875c0.15-0.149,0.313-0.228,0.49-0.236c0.176-0.007,0.327,0.052,0.455,0.18c0.13,0.13,0.189,0.284,0.183,0.464
	c-0.009,0.181-0.085,0.343-0.229,0.489c-0.145,0.144-0.307,0.219-0.487,0.226c-0.18,0.007-0.334-0.053-0.462-0.181
	c-0.132-0.132-0.192-0.285-0.182-0.461C610.058,57.182,610.136,57.021,610.28,56.875z M608.537,61.407l1.695,1.695
	c0.439,0.44,0.832,0.488,1.176,0.144c0.174-0.172,0.25-0.37,0.232-0.593c-0.02-0.224-0.131-0.438-0.336-0.644l-1.686-1.685
	l0.854-0.854l2.943,2.943l-0.854,0.854l-0.45-0.45l-0.014,0.013c0.129,0.568,0.002,1.042-0.38,1.423
	c-0.686,0.686-1.44,0.614-2.269-0.213l-1.773-1.774L608.537,61.407z M611.407,86.408c-0.009,0.181-0.085,0.343-0.229,0.489
	c-0.145,0.144-0.307,0.219-0.487,0.226c-0.18,0.007-0.334-0.053-0.462-0.181c-0.132-0.132-0.192-0.285-0.182-0.461
	c0.011-0.175,0.089-0.336,0.232-0.481c0.15-0.149,0.313-0.228,0.49-0.236c0.176-0.007,0.327,0.052,0.455,0.18
	C611.355,86.074,611.416,86.229,611.407,86.408z M603.651,63.467l1.855,1.855l0.011-0.011c-0.118-0.568,0.015-1.042,0.396-1.424
	c0.667-0.668,1.403-0.599,2.209,0.207l1.808,1.807l-0.856,0.857l-1.677-1.677c-0.452-0.452-0.844-0.514-1.174-0.184
	c-0.165,0.165-0.238,0.364-0.22,0.598c0.019,0.233,0.129,0.45,0.327,0.65l1.678,1.676l-0.858,0.859l-4.355-4.356L603.651,63.467z
	 M602.291,69.361c-0.288-0.289-0.397-0.632-0.328-1.031c0.07-0.398,0.296-0.787,0.675-1.167c0.27-0.27,0.569-0.489,0.899-0.66
	l0.677,0.676c-0.363,0.093-0.685,0.278-0.958,0.553c-0.138,0.137-0.224,0.271-0.258,0.403c-0.034,0.132-0.012,0.238,0.068,0.318
	c0.135,0.135,0.367,0.121,0.699-0.044c0.354-0.178,0.636-0.297,0.842-0.358c0.207-0.061,0.404-0.068,0.594-0.019
	c0.189,0.049,0.361,0.151,0.519,0.307c0.304,0.304,0.418,0.661,0.342,1.072c-0.075,0.411-0.316,0.82-0.723,1.225
	c-0.319,0.319-0.665,0.564-1.037,0.735l-0.711-0.71c0.474-0.115,0.852-0.314,1.133-0.596c0.354-0.355,0.438-0.627,0.248-0.817
	c-0.136-0.135-0.395-0.102-0.777,0.101c-0.479,0.251-0.854,0.377-1.133,0.374C602.785,69.719,602.53,69.599,602.291,69.361z
	 M609.073,95.884l-1.677-1.677c-0.452-0.452-0.844-0.514-1.174-0.184c-0.165,0.165-0.238,0.364-0.22,0.598
	c0.019,0.233,0.129,0.45,0.327,0.65l1.678,1.676l-0.858,0.859l-4.355-4.356l0.857-0.859l1.855,1.855l0.011-0.011
	c-0.118-0.568,0.015-1.042,0.396-1.424c0.667-0.668,1.403-0.599,2.209,0.207l1.808,1.807L609.073,95.884z M612.564,92.393
	l-0.45-0.45l-0.014,0.013c0.129,0.568,0.002,1.042-0.38,1.423c-0.686,0.686-1.44,0.614-2.269-0.213l-1.773-1.774l0.858-0.859
	l1.695,1.695c0.439,0.44,0.832,0.488,1.176,0.144c0.173-0.172,0.25-0.37,0.232-0.593c-0.019-0.224-0.131-0.438-0.336-0.644
	l-1.686-1.685l0.854-0.854l2.943,2.943L612.564,92.393z M614.185,90.771l-2.943-2.943l0.857-0.856l2.942,2.943L614.185,90.771z
	 M617.464,90.255c-0.224,0.222-0.418,0.371-0.586,0.448l-0.689-0.689c0.182-0.05,0.341-0.145,0.479-0.282
	c0.232-0.234,0.284-0.513,0.153-0.836l-0.224-0.548L612.47,86.6l0.953-0.953l2.419,1.27c0.146,0.076,0.298,0.176,0.452,0.298
	l0.016-0.016c-0.081-0.106-0.175-0.26-0.282-0.458l-1.261-2.438l0.852-0.852l1.993,4.42
	C618.074,88.898,618.025,89.693,617.464,90.255z M618.927,86.03l-2.943-2.943l0.856-0.857l2.942,2.943L618.927,86.03z
	 M622.495,82.461l-1.643-1.643c-0.476-0.475-0.884-0.542-1.228-0.199c-0.161,0.163-0.234,0.362-0.217,0.598
	c0.02,0.234,0.126,0.451,0.323,0.648l1.68,1.679l-0.858,0.859l-2.943-2.943l0.859-0.859l0.469,0.468l0.01-0.011
	c-0.145-0.575-0.01-1.071,0.407-1.488c0.653-0.652,1.384-0.575,2.193,0.234l1.802,1.802L622.495,82.461z M634.427,71.996
	l-0.711-0.71c0.474-0.115,0.852-0.314,1.133-0.596c0.354-0.355,0.438-0.627,0.248-0.817c-0.135-0.135-0.395-0.102-0.777,0.101
	c-0.479,0.251-0.854,0.377-1.133,0.374c-0.275-0.003-0.531-0.123-0.771-0.361c-0.288-0.289-0.397-0.632-0.328-1.031
	c0.07-0.398,0.296-0.787,0.675-1.167c0.27-0.27,0.569-0.489,0.899-0.66l0.677,0.676c-0.363,0.093-0.685,0.278-0.958,0.553
	c-0.138,0.137-0.224,0.271-0.258,0.403c-0.034,0.132-0.012,0.238,0.068,0.318c0.135,0.135,0.367,0.121,0.699-0.044
	c0.354-0.178,0.636-0.297,0.842-0.358c0.207-0.061,0.404-0.068,0.594-0.019c0.189,0.049,0.361,0.151,0.519,0.307
	c0.304,0.304,0.418,0.661,0.342,1.072c-0.075,0.411-0.316,0.82-0.723,1.225C635.145,71.58,634.799,71.825,634.427,71.996z
	 M641.573,96.634l-1.677-1.677c-0.452-0.452-0.844-0.514-1.174-0.184c-0.165,0.165-0.238,0.364-0.22,0.598
	c0.019,0.233,0.129,0.45,0.327,0.65l1.678,1.676l-0.858,0.859l-4.355-4.356l0.857-0.859l1.855,1.855l0.011-0.011
	c-0.118-0.568,0.015-1.042,0.396-1.424c0.667-0.668,1.403-0.599,2.209,0.207l1.808,1.807L641.573,96.634z M645.064,93.143
	l-0.45-0.45l-0.014,0.013c0.129,0.568,0.002,1.042-0.38,1.423c-0.686,0.686-1.44,0.614-2.269-0.213l-1.773-1.774l0.858-0.859
	l1.695,1.695c0.439,0.44,0.832,0.488,1.176,0.144c0.173-0.172,0.25-0.37,0.232-0.593c-0.019-0.224-0.131-0.438-0.336-0.644
	l-1.686-1.685l0.854-0.854l2.943,2.943L645.064,93.143z M646.685,91.521l-2.943-2.943l0.857-0.856l2.942,2.943L646.685,91.521z
	 M649.964,91.005c-0.224,0.222-0.418,0.371-0.586,0.448l-0.689-0.689c0.182-0.05,0.341-0.145,0.479-0.282
	c0.232-0.234,0.284-0.513,0.153-0.836l-0.224-0.548l-4.128-1.748l0.953-0.953l2.419,1.27c0.146,0.076,0.298,0.176,0.452,0.298
	l0.016-0.016c-0.081-0.106-0.175-0.26-0.282-0.458l-1.261-2.438l0.852-0.852l1.993,4.42
	C650.574,89.648,650.525,90.443,649.964,91.005z M651.427,86.78l-2.943-2.943l0.856-0.857l2.942,2.943L651.427,86.78z
	 M654.995,83.211l-1.643-1.643c-0.476-0.475-0.884-0.542-1.228-0.199c-0.161,0.163-0.234,0.362-0.217,0.598
	c0.02,0.234,0.126,0.451,0.323,0.648l1.68,1.679l-0.858,0.859l-2.943-2.943l0.859-0.859l0.469,0.468l0.01-0.011
	c-0.145-0.575-0.01-1.071,0.407-1.488c0.653-0.652,1.384-0.575,2.193,0.234l1.802,1.802L654.995,83.211z"/>
<linearGradient id="SVGID_6_" gradientUnits="userSpaceOnUse" x1="947.0403" y1="-285.4155" x2="876.1017" y2="-214.4771" gradientTransform="matrix(1 0 0 -1 -281.5996 -83.8398)">
	<stop  offset="0" style="stop-color:#0063FF"/>
	<stop  offset="1" style="stop-color:#00C8DE"/>
</linearGradient>
<path fill="url(#SVGID_6_)" d="M663.901,201.285l-0.438,0.215l-0.44-0.213c-0.43-0.209-10.521-5.193-10.521-13.049v-12.602h22
	v12.602C674.5,195.967,664.334,201.07,663.901,201.285z M672.5,177.639h-18v10.6c0,5.779,7.098,10.013,8.954,11.021
	c1.867-1.026,9.046-5.35,9.046-11.021V177.639z M667.945,191.098c-0.013,2.004-1.954,3.539-4.42,3.539h-0.033
	c-1.133,0-2.207-0.313-3.023-0.941c-0.886-0.682-1.391-1.625-1.384-2.627c0.011-1.723,1.448-3.11,3.416-3.469v-1.961v-2v-2h2v2h2v2
	h-2v1.965C666.488,187.975,667.954,189.387,667.945,191.098z M663.523,189.512c-1.327,0-2.435,0.729-2.438,1.592
	c-0.004,0.506,0.377,0.873,0.604,1.047c0.466,0.357,1.115,0.566,1.804,0.57l0.009,1v-1c1,0,2.429-0.729,2.434-1.59
	C665.938,190.262,664.842,189.521,663.523,189.512z M648.949,156.058c0-2.48,2.019-4.499,4.498-4.499s4.497,2.018,4.497,4.499
	s-2.018,4.499-4.497,4.499S648.949,158.538,648.949,156.058z M656.425,156.049c0-1.637-1.329-2.969-2.967-2.969
	c-1.639,0-2.969,1.331-2.969,2.969c0,1.636,1.33,2.968,2.969,2.968C655.096,159.017,656.425,157.685,656.425,156.049z
	 M658.088,170.691l-5.568-3.481l-13.827,6.646l-19.658-14.275l-18.363,13.732H600.5v6.326h47.334v1H599.5v-33h65v23.167h-1v-22.167
	h-63v22.549l18.515-13.851l19.768,14.358l13.8-6.625l8.294,5.602L658.088,170.691z M668.5,143.638h-73v48.999h52.334v1H594.5v-6h-6
	v-50.999h75v6h6v28.167h-1V143.638z M662.5,137.638h-73v48.999h5v-43.999h68V137.638z"/>
<linearGradient id="SVGID_7_" gradientUnits="userSpaceOnUse" x1="407.9026" y1="-275.6416" x2="335.8508" y2="-203.5898" gradientTransform="matrix(1 0 0 -1 -281.5996 -83.8398)">
	<stop  offset="0" style="stop-color:#0063FF"/>
	<stop  offset="1" style="stop-color:#00C8DE"/>
</linearGradient>
<path opacity="0.2" fill="url(#SVGID_7_)" enable-background="new    " d="M118.604,184.068c0-12.213,9.9-22.111,22.111-22.111
	c0.771,0,1.534,0.039,2.285,0.117V126H48v70h74.104C119.892,192.557,118.604,188.465,118.604,184.068z"/>
<g>
	
		<linearGradient id="SVGID_8_" gradientUnits="userSpaceOnUse" x1="358.7737" y1="-234.4351" x2="347.4561" y2="-223.1174" gradientTransform="matrix(1 0 0 -1 -281.5996 -83.8398)">
		<stop  offset="0" style="stop-color:#0063FF"/>
		<stop  offset="1" style="stop-color:#00C8DE"/>
	</linearGradient>
	<path fill="url(#SVGID_8_)" d="M63.508,144.936c0,4.415,3.592,8.007,8.007,8.007c4.414,0,8.006-3.592,8.006-8.007
		s-3.592-8.006-8.006-8.006C67.1,136.929,63.508,140.521,63.508,144.936z M77.521,144.936c0,3.312-2.693,6.007-6.006,6.007
		s-6.007-2.695-6.007-6.007s2.694-6.006,6.007-6.006C74.826,138.929,77.521,141.624,77.521,144.936z"/>
	
		<linearGradient id="SVGID_9_" gradientUnits="userSpaceOnUse" x1="403.0828" y1="-265.3218" x2="340.6008" y2="-202.8398" gradientTransform="matrix(1 0 0 -1 -281.5996 -83.8398)">
		<stop  offset="0" style="stop-color:#0063FF"/>
		<stop  offset="1" style="stop-color:#00C8DE"/>
	</linearGradient>
	<path fill="url(#SVGID_9_)" d="M140.715,161.957c0.096,0,0.188,0.006,0.285,0.007V128H50v55h68.631
		c0.016-0.336,0.041-0.668,0.072-1H51v-6.241l18.933-13.235l15.277,13.092l30.051-26.007l14.778,15.097
		c0.611-0.339,1.243-0.648,1.89-0.93l-16.555-16.911l-30.17,26.11l-15.138-12.968L51,173.082V129h89v32.975
		C140.238,161.967,140.475,161.957,140.715,161.957z"/>
	
		<linearGradient id="SVGID_10_" gradientUnits="userSpaceOnUse" x1="411.5461" y1="-279.2842" x2="331.8513" y2="-199.5894" gradientTransform="matrix(1 0 0 -1 -281.5996 -83.8398)">
		<stop  offset="0" style="stop-color:#0063FF"/>
		<stop  offset="1" style="stop-color:#00C8DE"/>
	</linearGradient>
	<path fill="url(#SVGID_10_)" d="M45,199v-76h101v39.375c0.679,0.133,0.346,0.299,1,0.493V122H44v78h81.39
		c-0.653-0.629-1.27-0.295-1.843-1H45z"/>
</g>
<linearGradient id="SVGID_11_" gradientUnits="userSpaceOnUse" x1="433.4055" y1="-278.4482" x2="411.2294" y2="-256.2721" gradientTransform="matrix(1 0 0 -1 -281.5996 -83.8398)">
	<stop  offset="0" style="stop-color:#0063FF"/>
	<stop  offset="1" style="stop-color:#0088F3"/>
</linearGradient>
<path fill="url(#SVGID_11_)" d="M140.717,167.832c-8.65,0-15.688,7.037-15.688,15.688c0,8.651,7.037,15.688,15.688,15.688
	s15.688-7.037,15.688-15.688C156.405,174.869,149.367,167.832,140.717,167.832z M140.717,197.207
	c-7.547,0-13.688-6.141-13.688-13.688c0-7.549,6.142-13.688,13.688-13.688s13.688,6.14,13.688,13.688
	C154.404,191.066,148.264,197.207,140.717,197.207z"/>
<linearGradient id="SVGID_12_" gradientUnits="userSpaceOnUse" x1="692.1008" y1="-295.3184" x2="579.101" y2="-182.3186" gradientTransform="matrix(1 0 0 -1 -281.5996 -83.8398)">
	<stop  offset="0" style="stop-color:#0063FF"/>
	<stop  offset="1" style="stop-color:#00C8DE"/>
</linearGradient>
<path fill="url(#SVGID_12_)" d="M294,207.979v-106h120v106H294z M413,102.979H295v104h118V102.979z M406,199.979H302v-90h104
	V199.979z M405,110.979H303v88h102V110.979z M327.332,130.557c1.693,0,3.066,1.373,3.066,3.066c0,1.694-1.373,3.067-3.066,3.067
	c-1.692,0-3.065-1.373-3.065-3.067C324.267,131.93,325.64,130.557,327.332,130.557z M327.938,139.307v-0.216
	C328.555,139.173,328.325,139.256,327.938,139.307z M327.938,170.824v-0.203C328.136,170.674,328.199,170.748,327.938,170.824z
	 M327.332,170.557c-0.399,0-0.665,0.135-1.065,0.269v-31.467c0,0,0.533,0,0.934,0c0.202,0,0.499-0.02,0.737-0.05v31.314
	C327.786,170.583,327.563,170.557,327.332,170.557z M327.332,173.225c1.693,0,3.066,1.373,3.066,3.066s-1.373,3.066-3.066,3.066
	c-1.692,0-3.065-1.373-3.065-3.066S325.64,173.225,327.332,173.225z M357.865,156.957l4.935-4.666l15.467,19.066H376l-13.418-16.378
	l-3.753,3.476l9.971,12.902h-2.197l-16.52-22.294L332.8,171.357h-2l19.334-24.935L357.865,156.957z M332.76,174.99h-0.228
	C332.611,174.902,332.688,174.917,332.76,174.99z M375.467,174.99h-0.279C375.258,174.917,375.35,174.902,375.467,174.99z
	 M375.066,176.291c0,0.133,0,0.266,0,0.4h-42c0-0.135,0-0.269,0-0.4c0-0.566-0.135-1.125-0.307-1.301h42.428
	C375.014,175.166,374.972,175.725,375.066,176.291z M380.666,173.225c1.693,0,3.066,1.373,3.066,3.066s-1.373,3.066-3.066,3.066
	c-1.692,0-3.065-1.373-3.065-3.066S378.974,173.225,380.666,173.225z M380.529,139.344v0.013
	C380.221,139.356,380.068,139.355,380.529,139.344z M380.666,139.357c0.533,0,1.066-0.133,1.601-0.267v31.734
	c-0.533-0.133-1.066-0.268-1.601-0.268c-0.052,0-0.092,0.008-0.138,0.012v-31.211C380.574,139.357,380.615,139.357,380.666,139.357z
	 M380.529,170.568v0.242C380.068,170.707,380.221,170.598,380.529,170.568z M380.666,136.69c-1.692,0-3.065-1.373-3.065-3.067
	c0-1.693,1.373-3.066,3.065-3.066c1.693,0,3.066,1.373,3.066,3.066C383.733,135.317,382.36,136.69,380.666,136.69z M366.666,145.396
	c-2.268,0-5.261,1.647-5.261,5.317l-1.673,1.311c-0.133-0.533-0.133-0.933-0.133-1.466c0-3.867,3.199-7.067,7.066-7.067
	c3.865,0,7.065,3.067,6.934,7.067c0,2.8-1.734,5.333-4.134,6.399l-1.17-1.478c1.519-0.883,3.486-2.542,3.486-5.255
	C371.783,147.155,369.066,145.396,366.666,145.396z M375.01,134.389h0.189C375.13,134.618,375.061,134.574,375.01,134.389z
	 M332.933,134.389c0-0.365,0.134,0.168,0.134-0.232c0-0.533-0.134-1.466-0.267-1.466h42.267c-0.134,0.267-0.134,0.667-0.134,0.933
	c0,0.316,0.03,0.598,0.077,0.765H332.933z"/>
<g>
	<linearGradient id="SVGID_13_" gradientUnits="userSpaceOnUse" x1="134.1204" y1="183.5195" x2="147.3132" y2="183.5195">
		<stop  offset="0" style="stop-color:#0063FF"/>
		<stop  offset="1" style="stop-color:#0063FF"/>
	</linearGradient>
	<path fill="url(#SVGID_13_)" d="M145.338,185.749l1.975,0.499c-0.414,1.622-1.159,2.858-2.234,3.71
		c-1.076,0.853-2.391,1.278-3.945,1.278c-1.608,0-2.917-0.328-3.924-0.982c-1.008-0.655-1.775-1.604-2.301-2.846
		s-0.789-2.575-0.789-4.001c0-1.554,0.296-2.909,0.891-4.066c0.594-1.157,1.438-2.036,2.535-2.637c1.096-0.601,2.302-0.9,3.619-0.9
		c1.493,0,2.749,0.38,3.767,1.14c1.018,0.761,1.727,1.829,2.128,3.207l-1.944,0.458c-0.346-1.086-0.849-1.877-1.507-2.372
		s-1.486-0.743-2.484-0.743c-1.147,0-2.105,0.275-2.876,0.824c-0.77,0.55-1.312,1.288-1.624,2.215
		c-0.312,0.926-0.468,1.882-0.468,2.865c0,1.27,0.185,2.377,0.555,3.324c0.37,0.946,0.945,1.653,1.726,2.122
		c0.78,0.468,1.625,0.702,2.535,0.702c1.106,0,2.043-0.318,2.81-0.957C144.548,187.951,145.067,187.005,145.338,185.749z"/>
</g>
<g>
	<g>
		<linearGradient id="SVGID_14_" gradientUnits="userSpaceOnUse" x1="669.4065" y1="298.9453" x2="594.4069" y2="223.9457">
			<stop  offset="0" style="stop-color:#0063FF"/>
			<stop  offset="1" style="stop-color:#00C8DE"/>
		</linearGradient>
		<path fill="url(#SVGID_14_)" d="M611.403,245.445l-6.744,17h2.111l1.823-5h7.872l1.824,5h2.136l-6.743-17H611.403z
			 M609.217,255.445l3.288-8h0.097l3.239,8H609.217z M655.949,276.858c1.184-0.815,1.774-2.063,1.774-3.744
			c0-1.119-0.319-2.047-0.96-2.784c-0.64-0.734-1.512-1.199-2.614-1.392c0.862-0.288,1.56-0.743,2.088-1.367
			c0.512-0.704,0.768-1.537,0.768-2.496c0-1.345-0.456-2.332-1.368-3.101c-0.928-0.768-2.191-1.084-3.792-1.084h-7.384v17h7.336
			C653.541,277.891,654.924,277.547,655.949,276.858z M646.462,262.891h4.927c1.216,0,2.128-0.008,2.736,0.455
			c0.624,0.479,0.936,1.08,0.936,2.041c0,0.977-0.319,1.483-0.96,1.996c-0.64,0.496-1.552,0.508-2.734,0.508h-4.904V262.891z
			 M646.461,275.891v-6h5.168c1.344,0,2.352,0.248,3.024,0.76c0.734,0.544,1.104,1.355,1.104,2.443c0,1.121-0.424,1.771-1.271,2.299
			c-0.753,0.447-1.704,0.498-2.856,0.498H646.461z M638.906,243.445v-14h-50v50h36v14h50v-50H638.906z M624.906,244.363v34.082h-35
			v-48h48v0.008l-13,12.992h-0.005L624.906,244.363z M638.021,231.633v11.807h-11.815L638.021,231.633z M673.906,292.445h-48v-13
			l0.021-0.166l-0.016-34.834h47.995V292.445z"/>
	</g>
</g>
</svg>
