<?xml version="1.0" encoding="UTF-8"?>
<svg width="781px" height="722px" viewBox="0 0 781 722" version="1.1" xmlns="http://www.w3.org/2000/svg" xmlns:xlink="http://www.w3.org/1999/xlink">
    <!-- Generator: Sketch 52.5 (67469) - http://www.bohemiancoding.com/sketch -->
    <title>znny</title>
    <desc>Created with Sketch.</desc>
    <g id="Page-1" stroke="none" stroke-width="1" fill="none" fill-rule="evenodd">
        <g id="znny">
            <g id="GrayRectGroup2-Copy" transform="translate(0.796875, 0.031250)">
                <rect id="Rectangle-path" fill="#EAEBEC" x="0" y="0" width="780" height="99.4263795"></rect>
                <g id="Group" transform="translate(10.064516, 5.848611)" fill="#444444" font-family="PingFangSC-Regular, PingFang SC" font-size="14" font-weight="normal">
                    <g id="应用">
                        <text>
                            <tspan x="0" y="15">应用</tspan>
                        </text>
                    </g>
                </g>
            </g>
            <rect id="Rectangle-path" fill="#EAEBEC" x="0.796875" y="591.207031" width="780" height="130"></rect>
            <g id="Group" transform="translate(10.796875, 600.207031)" fill="#444444" font-family="PingFangSC-Regular, PingFang SC" font-size="14" font-weight="normal">
                <g id="智能终端">
                    <text>
                        <tspan x="0" y="15">智能终端</tspan>
                    </text>
                </g>
            </g>
            <rect id="Rectangle-path-Copy" fill="#EAEBEC" x="395.796875" y="127.207031" width="385" height="230"></rect>
            <g id="Group-Copy" transform="translate(405.796875, 137.207031)" fill="#444444" font-family="PingFangSC-Regular, PingFang SC" font-size="14" font-weight="normal">
                <g id="物联云平台">
                    <text>
                        <tspan x="0" y="15">物联云平台</tspan>
                    </text>
                </g>
            </g>
            <rect id="Rectangle-path-Copy-2" fill="#CEE3FF" x="0.796875" y="127.207031" width="385" height="230"></rect>
            <g id="Group-Copy-2" transform="translate(10.928454, 135.819471)" fill="#00A4FF">
                <g id="Group" transform="translate(0.000000, 2.870813)">
                    <g>
                        <path d="M7.59868421,0 C6.78815789,0 6.07894737,0.669856459 6.07894737,1.4354067 C6.07894737,2.10526316 6.48421053,2.58373206 7.09210526,2.77511962 L7.09210526,4.784689 L8.10526316,4.784689 L8.10526316,2.77511962 C8.71315789,2.58373206 9.11842105,2.00956938 9.11842105,1.4354067 C9.11842105,0.669856459 8.40921053,0 7.59868421,0 Z" id="Shape"></path>
                        <ellipse id="Oval" cx="7.59868421" cy="12.9186603" rx="1.51973684" ry="1.4354067"></ellipse>
                        <path d="M3.34342105,3.06220096 C2.53289474,2.67942584 1.62105263,2.8708134 1.21578947,3.63636364 C0.810526316,4.3062201 1.01315789,5.16746411 1.82368421,5.55023923 C1.925,5.55023923 2.02631579,5.64593301 2.02631579,5.64593301 L2.02631579,7.65550239 L3.03947368,7.65550239 L3.03947368,5.64593301 C3.14078947,5.64593301 3.34342105,5.55023923 3.44473684,5.45454545 L5.16710526,6.41148325 L5.67368421,5.55023923 L3.95131579,4.68899522 C4.15394737,4.01913876 3.85,3.3492823 3.34342105,3.06220096 Z" id="Shape"></path>
                        <ellipse id="Oval" transform="translate(12.664575, 10.048421) rotate(-59.999272) translate(-12.664575, -10.048421) " cx="12.6645751" cy="10.0484211" rx="1.51970341" ry="1.43537512"></ellipse>
                        <ellipse id="Oval" transform="translate(2.533097, 10.047560) rotate(-30.000728) translate(-2.533097, -10.047560) " cx="2.53309722" cy="10.0475596" rx="1.51970341" ry="1.43537512"></ellipse>
                        <path d="M12.1578947,5.64593301 L12.1578947,7.65550239 L13.1710526,7.65550239 L13.1710526,5.64593301 C13.2723684,5.64593301 13.3736842,5.55023923 13.3736842,5.55023923 C14.0828947,5.16746411 14.3868421,4.3062201 13.8802632,3.63636364 C13.475,2.96650718 12.5631579,2.67942584 11.8539474,3.15789474 C11.2460526,3.44497608 10.9421053,4.11483254 11.1447368,4.784689 L9.52368421,5.55023923 L10.0302632,6.41148325 L11.7526316,5.45454545 C11.8539474,5.55023923 12.0565789,5.64593301 12.1578947,5.64593301 Z" id="Shape"></path>
                        <path d="M7.59868421,5.74162679 C6.78815789,5.74162679 6.07894737,6.41148325 6.07894737,7.17703349 C6.07894737,7.84688995 6.48421053,8.32535885 7.09210526,8.51674641 L7.09210526,10.5263158 L8.10526316,10.5263158 L8.10526316,8.51674641 C8.71315789,8.32535885 9.11842105,7.75119617 9.11842105,7.17703349 C9.11842105,6.41148325 8.40921053,5.74162679 7.59868421,5.74162679 Z" id="Shape"></path>
                    </g>
                </g>
                <g id="网络管理" transform="translate(21.000000, 0.000000)" font-family="PingFangSC-Regular, PingFang SC" font-size="14" font-weight="normal">
                    <text id="物联网络管理">
                        <tspan x="0.2763158" y="15">物联网络管理</tspan>
                    </text>
                </g>
            </g>
            <rect id="Rectangle-path-Copy-3" fill="#CEE3FF" x="0.796875" y="384.207031" width="780" height="180"></rect>
            <g id="Group-Copy-3" transform="translate(10.796875, 393.207031)" fill="#00A4FF">
                <g id="Group" transform="translate(0.000000, 3.000000)">
                    <g>
                        <path d="M7.5,0 C6.7,0 6,0.7 6,1.5 C6,2.2 6.4,2.7 7,2.9 L7,5 L8,5 L8,2.9 C8.6,2.7 9,2.1 9,1.5 C9,0.7 8.3,0 7.5,0 Z" id="Shape"></path>
                        <circle id="Oval" cx="7.5" cy="13.5" r="1.5"></circle>
                        <path d="M3.3,3.2 C2.5,2.8 1.6,3 1.2,3.8 C0.8,4.5 1,5.4 1.8,5.8 C1.9,5.8 2,5.9 2,5.9 L2,8 L3,8 L3,5.9 C3.1,5.9 3.3,5.8 3.4,5.7 L5.1,6.7 L5.6,5.8 L3.9,4.9 C4.1,4.2 3.8,3.5 3.3,3.2 Z" id="Shape"></path>
                        <circle id="Oval" transform="translate(12.500100, 10.500600) rotate(-59.999272) translate(-12.500100, -10.500600) " cx="12.5001" cy="10.5006" r="1.499967"></circle>
                        <circle id="Oval" transform="translate(2.500200, 10.499700) rotate(-30.000728) translate(-2.500200, -10.499700) " cx="2.5002" cy="10.4997" r="1.499967"></circle>
                        <path d="M12,5.9 L12,8 L13,8 L13,5.9 C13.1,5.9 13.2,5.8 13.2,5.8 C13.9,5.4 14.2,4.5 13.7,3.8 C13.3,3.1 12.4,2.8 11.7,3.3 C11.1,3.6 10.8,4.3 11,5 L9.4,5.8 L9.9,6.7 L11.6,5.7 C11.7,5.8 11.9,5.9 12,5.9 Z" id="Shape"></path>
                        <path d="M7.5,6 C6.7,6 6,6.7 6,7.5 C6,8.2 6.4,8.7 7,8.9 L7,11 L8,11 L8,8.9 C8.6,8.7 9,8.1 9,7.5 C9,6.7 8.3,6 7.5,6 Z" id="Shape"></path>
                    </g>
                </g>
                <g id="网络连接" transform="translate(21.000000, 0.000000)" font-family="PingFangSC-Regular, PingFang SC" font-size="14" font-weight="normal">
                    <text id="物联网络连接">
                        <tspan x="0" y="15">物联网络连接</tspan>
                    </text>
                </g>
            </g>
            <g id="RectEndPoint4-Copy" transform="translate(320.796875, 24.031250)">
                <rect id="Rectangle-path" fill="#BBBBBB" opacity="0.6" x="2" y="2" width="138" height="50"></rect>
                <rect id="Rectangle-path" stroke="#E5E5E5" fill="#FFFFFF" x="0" y="0" width="138" height="50"></rect>
                <g id="Group" transform="translate(20.000000, 15.000000)" fill="#444444" font-family="PingFangSC-Regular, PingFang SC" font-size="14" font-weight="normal">
                    <g id="智能水肥一体化">
                        <text>
                            <tspan x="0" y="15">智能水肥一体化</tspan>
                        </text>
                    </g>
                </g>
            </g>
            <g id="Group-3" transform="translate(61.796875, 184.707031)">
                <g id="RectEndPoint10-Copy" transform="translate(0.585938, 0.679688)">
                    <rect id="Rectangle-path" fill="#BBBBBB" opacity="0.6" x="2" y="2" width="124" height="50"></rect>
                    <rect id="Rectangle-path" stroke="#E5E5E5" fill="#FFFFFF" x="0" y="0" width="124" height="50"></rect>
                    <g id="Group" transform="translate(20.000000, 15.000000)" fill="#444444" font-family="PingFangSC-Regular, PingFang SC" font-size="14" font-weight="normal">
                        <g id="通信网关管理">
                            <text>
                                <tspan x="0" y="15">通信网关管理</tspan>
                            </text>
                        </g>
                    </g>
                </g>
                <g id="RectEndPoint11-Copy" transform="translate(136.585938, 0.679688)">
                    <rect id="Rectangle-path" fill="#BBBBBB" opacity="0.6" x="2" y="2" width="124" height="50"></rect>
                    <rect id="Rectangle-path" stroke="#E5E5E5" fill="#FFFFFF" x="0" y="0" width="124" height="50"></rect>
                    <g id="Group" transform="translate(20.000000, 15.000000)" fill="#444444" font-family="PingFangSC-Regular, PingFang SC" font-size="14" font-weight="normal">
                        <g id="云核心网管理">
                            <text>
                                <tspan x="0" y="15">云核心网管理</tspan>
                            </text>
                        </g>
                    </g>
                </g>
                <g id="RectEndPoint12-Copy" transform="translate(0.585938, 62.679688)">
                    <rect id="Rectangle-path" fill="#BBBBBB" opacity="0.6" x="2" y="2" width="124" height="50"></rect>
                    <rect id="Rectangle-path" stroke="#E5E5E5" fill="#FFFFFF" x="0" y="0" width="124" height="50"></rect>
                    <g id="Group" transform="translate(34.000000, 15.000000)" fill="#444444" font-family="PingFangSC-Regular, PingFang SC" font-size="14" font-weight="normal">
                        <g id="位置服务">
                            <text>
                                <tspan x="0" y="15">位置服务</tspan>
                            </text>
                        </g>
                    </g>
                </g>
                <g id="RectEndPoint13-Copy" transform="translate(136.585938, 62.679688)">
                    <rect id="Rectangle-path" fill="#BBBBBB" opacity="0.6" x="2" y="2" width="124" height="50"></rect>
                    <rect id="Rectangle-path" stroke="#E5E5E5" fill="#FFFFFF" x="0" y="0" width="124" height="50"></rect>
                    <g id="Group" transform="translate(34.000000, 15.000000)" fill="#444444" font-family="PingFangSC-Regular, PingFang SC" font-size="14" font-weight="normal">
                        <g id="网络监控">
                            <text>
                                <tspan x="0" y="15">网络监控</tspan>
                            </text>
                        </g>
                    </g>
                </g>
            </g>
            <g id="Group-4" transform="translate(503.796875, 153.707031)">
                <g id="RectEndPoint14-Copy" transform="translate(0.171875, 0.679688)">
                    <rect id="Rectangle-path" fill="#BBBBBB" opacity="0.6" x="2" y="2" width="166" height="50"></rect>
                    <rect id="Rectangle-path" stroke="#E5E5E5" fill="#FFFFFF" x="0" y="0" width="166" height="50"></rect>
                    <g id="Group" transform="translate(20.000000, 15.000000)" fill="#444444" font-family="PingFangSC-Regular, PingFang SC" font-size="14" font-weight="normal">
                        <g id="服务器接口连接管理">
                            <text>
                                <tspan x="0" y="15">服务器接口连接管理</tspan>
                            </text>
                        </g>
                    </g>
                </g>
                <g id="RectEndPoint15-Copy" transform="translate(0.171875, 62.679688)">
                    <rect id="Rectangle-path" fill="#BBBBBB" opacity="0.6" x="2" y="2" width="166" height="50"></rect>
                    <rect id="Rectangle-path" stroke="#E5E5E5" fill="#FFFFFF" x="0" y="0" width="166" height="50"></rect>
                    <g id="Group" transform="translate(20.000000, 15.000000)" fill="#444444" font-family="PingFangSC-Regular, PingFang SC" font-size="14" font-weight="normal">
                        <g id="应用注册及数据分发">
                            <text>
                                <tspan x="0" y="15">应用注册及数据分发</tspan>
                            </text>
                        </g>
                    </g>
                </g>
                <g id="RectEndPoint16-Copy" transform="translate(0.171875, 124.679688)">
                    <rect id="Rectangle-path" fill="#BBBBBB" opacity="0.6" x="2" y="2" width="166" height="50"></rect>
                    <rect id="Rectangle-path" stroke="#E5E5E5" fill="#FFFFFF" x="0" y="0" width="166" height="50"></rect>
                    <g id="Group" transform="translate(27.000000, 15.000000)" fill="#444444" font-family="PingFangSC-Regular, PingFang SC" font-size="14" font-weight="normal">
                        <g id="数据加解密及缓存">
                            <text>
                                <tspan x="0" y="15">数据加解密及缓存</tspan>
                            </text>
                        </g>
                    </g>
                </g>
            </g>
            <g id="Group-5" transform="translate(128.796875, 416.707031)">
                <g id="RectEndPoint17-Copy-2" transform="translate(0.000000, 0.855469)">
                    <rect id="Rectangle-path" fill="#BBBBBB" opacity="0.6" x="2" y="2" width="166" height="50"></rect>
                    <rect id="Rectangle-path" stroke="#E5E5E5" fill="#FFFFFF" x="0" y="0" width="166" height="50"></rect>
                    <g id="Group" transform="translate(20.000000, 15.000000)" fill="#444444" font-family="PingFangSC-Regular, PingFang SC" font-size="14" font-weight="normal">
                        <g id="会话密钥生成与发放">
                            <text>
                                <tspan x="0" y="15">会话密钥生成与发放</tspan>
                            </text>
                        </g>
                    </g>
                </g>
                <g id="RectEndPoint17-Copy-3" transform="translate(0.000000, 62.855469)">
                    <rect id="Rectangle-path" fill="#BBBBBB" opacity="0.6" x="2" y="2" width="166" height="50"></rect>
                    <rect id="Rectangle-path" stroke="#E5E5E5" fill="#FFFFFF" x="0" y="0" width="166" height="50"></rect>
                    <g id="Group" transform="translate(26.500000, 15.000000)" fill="#444444" font-family="PingFangSC-Regular, PingFang SC" font-size="14" font-weight="normal">
                        <g id="通信网关连接管理">
                            <text>
                                <tspan x="0" y="15">通信网关连接管理</tspan>
                            </text>
                        </g>
                    </g>
                </g>
                <g id="RectEndPoint19-Copy" transform="translate(178.000000, 0.855469)">
                    <rect id="Rectangle-path" fill="#BBBBBB" opacity="0.6" x="2" y="2" width="166" height="50"></rect>
                    <rect id="Rectangle-path" stroke="#E5E5E5" fill="#FFFFFF" x="0" y="0" width="166" height="50"></rect>
                    <g id="Group" transform="translate(55.000000, 15.000000)" fill="#444444" font-family="PingFangSC-Regular, PingFang SC" font-size="14" font-weight="normal">
                        <g id="报文管理">
                            <text>
                                <tspan x="0" y="15">报文管理</tspan>
                            </text>
                        </g>
                    </g>
                </g>
                <g id="RectEndPoint20-Copy" transform="translate(178.000000, 62.855469)">
                    <rect id="Rectangle-path" fill="#BBBBBB" opacity="0.6" x="2" y="2" width="166" height="50"></rect>
                    <rect id="Rectangle-path" stroke="#E5E5E5" fill="#FFFFFF" x="0" y="0" width="166" height="50"></rect>
                    <g id="Group" transform="translate(55.000000, 15.000000)" fill="#444444" font-family="PingFangSC-Regular, PingFang SC" font-size="14" font-weight="normal">
                        <g id="连接控制">
                            <text>
                                <tspan x="0" y="15">连接控制</tspan>
                            </text>
                        </g>
                    </g>
                </g>
                <g id="RectEndPoint21-Copy" transform="translate(358.052632, 0.855469)">
                    <rect id="Rectangle-path" fill="#BBBBBB" opacity="0.6" x="2" y="2" width="166" height="50"></rect>
                    <rect id="Rectangle-path" stroke="#E5E5E5" fill="#FFFFFF" x="0" y="0" width="166" height="50"></rect>
                    <g id="Group" transform="translate(55.000000, 15.000000)" fill="#444444" font-family="PingFangSC-Regular, PingFang SC" font-size="14" font-weight="normal">
                        <g id="鉴权认证">
                            <text>
                                <tspan x="0" y="15">鉴权认证</tspan>
                            </text>
                        </g>
                    </g>
                </g>
                <g id="RectEndPoint22-Copy" transform="translate(358.052632, 62.855469)">
                    <rect id="Rectangle-path" fill="#BBBBBB" opacity="0.6" x="2" y="2" width="166" height="50"></rect>
                    <rect id="Rectangle-path" stroke="#E5E5E5" fill="#FFFFFF" x="0" y="0" width="166" height="50"></rect>
                    <g id="Group" transform="translate(55.000000, 15.000000)" fill="#444444" font-family="PingFangSC-Regular, PingFang SC" font-size="14" font-weight="normal">
                        <g id="设备注册">
                            <text>
                                <tspan x="0" y="15">设备注册</tspan>
                            </text>
                        </g>
                    </g>
                </g>
            </g>
            <g id="Group-26" transform="translate(20.796875, 634.707031)">
                <g id="Group-25" transform="translate(150.000000, 0.000000)">
                    <rect id="Rectangle-path" fill="#BBBBBB" opacity="0.6" x="2" y="2.20703125" width="138" height="50"></rect>
                    <rect id="Rectangle-path" stroke="#E5E5E5" fill="#FFFFFF" x="0" y="0.20703125" width="138" height="50"></rect>
                    <g id="CO2传感器" transform="translate(33.000000, 18.000000)" fill-rule="nonzero">
                        <g id="path-1-link" fill="#000000">
                            <path d="M5.6559375,2.0150312 C6.7619375,2.0150312 7.6999375,2.3090312 8.4559375,2.8970313 C9.2119375,3.4850312 9.6599375,4.2830313 9.7999375,5.2770313 L8.6939375,5.2770313 C8.5539375,4.5490313 8.1899375,3.9890313 7.6299375,3.5970312 C7.0839375,3.2190313 6.4259375,3.0370312 5.6419375,3.0370312 C4.4799375,3.0370312 3.5839375,3.4430312 2.9539375,4.2550312 C2.3659375,5.0110313 2.0719375,6.0050312 2.0719375,7.2510312 C2.0719375,8.4970312 2.3519375,9.4910313 2.9399375,10.2190313 C3.5559375,10.9890313 4.4379375,11.3810312 5.6139375,11.3810312 C6.4119375,11.3810312 7.0839375,11.1710312 7.6439375,10.7510312 C8.2319375,10.3030313 8.6379375,9.6450313 8.8339375,8.7770313 L9.9399375,8.7770313 C9.7159375,9.9390312 9.1979375,10.8490312 8.3719375,11.4930313 C7.6019375,12.0950312 6.6779375,12.4030312 5.6139375,12.4030312 C4.0599375,12.4030312 2.8699375,11.8850312 2.0439375,10.8630312 C1.2879375,9.9390312 0.9239375,8.7350312 0.9239375,7.2510312 C0.9239375,5.7670312 1.3019375,4.5490313 2.0719375,3.5970312 C2.9119375,2.5330313 4.1159375,2.0150312 5.6559375,2.0150312 Z M15.9039375,2.0150312 C17.3879375,2.0150312 18.5779375,2.5050312 19.4459375,3.5130313 C20.2579375,4.4650312 20.6779375,5.6970312 20.6779375,7.2230313 C20.6779375,8.7350312 20.2579375,9.9530313 19.4459375,10.9050312 C18.5779375,11.8990313 17.3879375,12.4030312 15.8899375,12.4030312 C14.3919375,12.4030312 13.2159375,11.8990313 12.3479375,10.9050312 C11.5219375,9.9530313 11.1159375,8.7210313 11.1159375,7.2230313 C11.1159375,5.7110312 11.5219375,4.4790312 12.3479375,3.5270313 C13.2159375,2.5190312 14.3919375,2.0150312 15.9039375,2.0150312 Z M15.9039375,3.0370312 C14.7559375,3.0370312 13.8459375,3.4290313 13.1879375,4.2270312 C12.5719375,4.9830312 12.2639375,5.9770312 12.2639375,7.2230313 C12.2639375,8.4550313 12.5719375,9.4490313 13.1879375,10.2050313 C13.8319375,10.9890313 14.7419375,11.3810312 15.8899375,11.3810312 C17.0379375,11.3810312 17.9479375,10.9890313 18.5919375,10.2330312 C19.2079375,9.4770312 19.5299375,8.4830312 19.5299375,7.2230313 C19.5299375,5.9490313 19.2079375,4.9410312 18.5919375,4.1850313 C17.9479375,3.4150313 17.0519375,3.0370312 15.9039375,3.0370312 Z M25.0478051,5.7950313 C25.6024269,5.7950313 26.0562085,5.9546951 26.417553,6.2740228 C26.7704942,6.5933506 26.9553681,7.021922 26.9553681,7.5429304 C26.9553681,8.0639388 26.7536875,8.534527 26.3671328,8.9546951 C26.1570488,9.1731825 25.7452841,9.5009136 25.1234353,9.9210817 C24.3587295,10.4336867 23.9217547,10.8958716 23.812511,11.2992329 L26.9637715,11.2992329 L26.9637715,11.9126783 L22.9637715,11.9126783 C22.9637715,11.3664598 23.1570488,10.8706615 23.5604101,10.4252834 C23.7957043,10.1563758 24.2242757,9.7950313 24.8629311,9.3580565 C25.3335194,9.021922 25.6444438,8.7782245 25.8041076,8.6101573 C26.1066286,8.2824262 26.2662925,7.9210817 26.2662925,7.534527 C26.2662925,7.1647791 26.1570488,6.8874682 25.9385614,6.6857876 C25.720074,6.4841069 25.4091496,6.3832665 25.022595,6.3832665 C24.6108303,6.3832665 24.2915026,6.5177203 24.0730152,6.8034346 C23.8377211,7.0723422 23.7116706,7.4757035 23.7032673,8.0051153 L23.0141917,8.0051153 C23.0141917,7.3328464 23.207469,6.7950313 23.5772169,6.4000733 C23.9469648,5.9967119 24.4427631,5.7950313 25.0478051,5.7950313 Z M32.0039375,5.7950313 C31.5419375,6.4110313 31.0379375,7.0130313 30.4919375,7.5730312 L30.1699375,6.4950313 C31.6539375,4.8290312 32.7459375,2.9110313 33.4319375,0.7550312 L34.3839375,1.2030313 C34.0199375,2.2810313 33.5719375,3.3030313 33.0119375,4.2690312 L33.0119375,13.6350312 L32.0039375,13.6350312 L32.0039375,5.7950313 Z M34.5659375,2.5610312 L37.2959375,2.5610312 L37.7159375,0.7550312 L38.6959375,0.8530313 C38.5559375,1.4410312 38.4299375,2.0150312 38.3039375,2.5610312 L42.5319375,2.5610312 L42.5319375,3.5410312 L38.0519375,3.5410312 C37.8979375,4.1010312 37.7439375,4.6470313 37.5759375,5.1650313 L43.1059375,5.1650313 L43.1059375,6.1310312 L37.2539375,6.1310312 C37.0299375,6.7750313 36.7919375,7.3630312 36.5679375,7.9090313 L42.3219375,7.9090313 L42.3219375,8.7770313 C41.7339375,9.7570313 40.7959375,10.7370313 39.5079375,11.7170313 C40.1659375,12.0670313 40.7959375,12.4450312 41.4119375,12.8510312 L40.8379375,13.7190313 C39.1299375,12.5430312 37.3659375,11.6190312 35.5739375,10.9470312 L36.1059375,10.1630313 C36.9739375,10.4990312 37.8139375,10.8630312 38.6259375,11.2550312 C39.7319375,10.4850312 40.5999375,9.6870313 41.2439375,8.8470312 L35.2519375,8.8470312 C35.6159375,7.9790312 35.9659375,7.0690313 36.2879375,6.1310312 L33.9499375,6.1310312 L33.9499375,5.1650313 L36.5959375,5.1650313 C36.7639375,4.6190312 36.9179375,4.0730312 37.0579375,3.5410312 L34.5659375,3.5410312 L34.5659375,2.5610312 Z M47.1239375,4.0730312 L51.7299375,4.0730312 L51.7299375,4.8990313 L47.1239375,4.8990313 L47.1239375,4.0730312 Z M47.5019375,5.7950313 L51.4079375,5.7950313 L51.4079375,8.6510312 L47.5019375,8.6510312 L47.5019375,5.7950313 Z M50.4699375,7.8670312 L50.4699375,6.5790312 L48.4539375,6.5790312 L48.4539375,7.8670312 L50.4699375,7.8670312 Z M56.4619375,2.0290313 L56.4619375,2.9530313 L53.1579375,2.9530313 C53.2139375,3.9330313 53.3259375,4.7450313 53.4939375,5.3750313 C53.5919375,5.8090312 53.7039375,6.2010313 53.8439375,6.5510313 C54.3479375,5.7390313 54.7819375,4.8010313 55.1179375,3.7090312 L55.9019375,4.1150312 C55.4679375,5.4870313 54.9359375,6.6070313 54.2919375,7.5030312 L54.4179375,7.6990313 C54.7819375,8.1890312 55.1179375,8.4410312 55.4259375,8.4410312 C55.6779375,8.4410312 55.9439375,7.8530313 56.2239375,6.6910312 L57.0359375,7.1670313 C56.6159375,8.6370312 56.1119375,9.3790313 55.5239375,9.3790313 C54.9639375,9.3790313 54.4319375,9.0850313 53.9139375,8.5250313 C53.8299375,8.4270312 53.7459375,8.3290312 53.6899375,8.2450313 C53.2279375,8.7350312 52.7379375,9.1270313 52.2339375,9.4350313 L51.7159375,8.6510312 C52.2619375,8.3290312 52.7659375,7.9090313 53.2139375,7.4050312 C52.9899375,6.9570313 52.7939375,6.4390312 52.6259375,5.8650312 C52.4019375,5.0810312 52.2619375,4.1150312 52.1919375,2.9530313 L46.4799375,2.9530313 L46.4799375,4.7870312 C46.4379375,6.6350312 45.9619375,8.1330312 45.0659375,9.2670312 L44.3099375,8.5810312 C45.0659375,7.6710312 45.4579375,6.4110313 45.4999375,4.7870312 L45.4999375,2.0290313 L52.1499375,2.0290313 C52.1219375,1.6090313 52.1219375,1.1610313 52.1219375,0.7130312 L53.0879375,0.7130312 C53.0879375,1.1750312 53.0879375,1.6090313 53.1159375,2.0290313 L54.6419375,2.0290313 C54.5019375,1.6370312 54.3479375,1.2730312 54.1799375,0.9370313 L55.0759375,0.7830313 C55.2299375,1.1470313 55.3839375,1.5670313 55.5239375,2.0290313 L56.4619375,2.0290313 Z M45.9339375,9.5330313 L46.8579375,9.7290312 C46.4659375,11.0450313 45.9339375,12.1790313 45.2339375,13.1450313 L44.3799375,12.5990312 C45.0799375,11.6750312 45.5979375,10.6530312 45.9339375,9.5330313 Z M52.4999375,13.3830312 L49.0279375,13.3830312 C48.2019375,13.3830312 47.7959375,12.9350313 47.7959375,12.0530313 L47.7959375,9.3790313 L48.8179375,9.3790313 L48.8179375,11.8430312 C48.8179375,12.2350312 48.9859375,12.4310313 49.3359375,12.4310313 L52.3179375,12.4310313 C52.5979375,12.4310313 52.8079375,12.3610312 52.9339375,12.2210313 C53.0739375,12.0530313 53.1859375,11.5770312 53.2419375,10.7650312 L54.1939375,11.0870313 C54.1099375,12.1790313 53.9279375,12.8370313 53.6479375,13.0890313 C53.3959375,13.2850312 53.0179375,13.3830312 52.4999375,13.3830312 Z M55.1459375,9.8270312 C55.9859375,10.7510312 56.6159375,11.5630313 57.0499375,12.2630313 L56.2519375,12.8370313 C55.7759375,12.0810312 55.1459375,11.2410313 54.3339375,10.3310312 L55.1459375,9.8270312 Z M50.6659375,9.1410313 C51.3239375,9.8410313 51.8279375,10.4710313 52.1779375,11.0030312 L51.4219375,11.5350312 C51.0579375,10.9470312 50.5539375,10.3030313 49.9099375,9.6030313 L50.6659375,9.1410313 Z M59.6259375,1.3010313 L63.8959375,1.3010313 L63.8959375,4.7030313 L59.6259375,4.7030313 L59.6259375,1.3010313 Z M62.9719375,3.8490312 L62.9719375,2.1690312 L60.5359375,2.1690312 L60.5359375,3.8490312 L62.9719375,3.8490312 Z M65.4499375,1.3010313 L69.803937,1.3010313 L69.803937,4.7030313 L65.4499375,4.7030313 L65.4499375,1.3010313 Z M68.893937,3.8490312 L68.893937,2.1690312 L66.3739375,2.1690312 L66.3739375,3.8490312 L68.893937,3.8490312 Z M58.4919375,6.1030313 L63.2099375,6.1030313 C63.4759375,5.7390313 63.6859375,5.3610312 63.8539375,4.9690313 L64.8199375,5.0670313 C64.6799375,5.4310313 64.4979375,5.7670312 64.3019375,6.1030313 L67.913937,6.1030313 C67.717938,5.7530312 67.507938,5.4310313 67.283937,5.1510312 L68.137938,4.8710313 C68.431938,5.2630313 68.683937,5.6690312 68.907938,6.1030313 L70.839938,6.1030313 L70.839938,6.9990312 L67.059938,6.9990312 C67.969938,7.8390313 69.327937,8.5110313 71.133938,9.0010312 L70.727938,9.8550313 C70.377938,9.7430313 70.055938,9.6170312 69.747938,9.5050312 L69.747938,13.6210313 L68.851937,13.6210313 L68.851937,13.0190312 L66.2339375,13.0190312 L66.2339375,13.6210313 L65.3379375,13.6210313 L65.3379375,9.2110312 L69.075938,9.2110312 C67.731937,8.5950312 66.6959375,7.8530313 65.9959375,6.9990312 L63.6299375,6.9990312 C62.8459375,7.8950313 61.7959375,8.6230313 60.4799375,9.2110312 L63.9939375,9.2110312 L63.9939375,13.6210313 L63.0979375,13.6210313 L63.0979375,13.0190312 L60.7039375,13.0190312 L60.7039375,13.6210313 L59.8219375,13.6210313 L59.8219375,9.4910313 C59.4439375,9.6310312 59.0659375,9.7570313 58.6739375,9.8830312 L58.2119375,9.0570312 C60.0039375,8.5250313 61.3759375,7.8390313 62.3559375,6.9990312 L58.4919375,6.9990312 L58.4919375,6.1030313 Z M60.7039375,12.1510312 L63.0979375,12.1510312 L63.0979375,10.0510313 L60.7039375,10.0510313 L60.7039375,12.1510312 Z M66.2339375,12.1510312 L68.851937,12.1510312 L68.851937,10.0510313 L66.2339375,10.0510313 L66.2339375,12.1510312 Z" id="path-1"></path>
                        </g>
                        <g id="path-1-link" fill="#444444">
                            <path d="M5.6559375,2.0150312 C6.7619375,2.0150312 7.6999375,2.3090312 8.4559375,2.8970313 C9.2119375,3.4850312 9.6599375,4.2830313 9.7999375,5.2770313 L8.6939375,5.2770313 C8.5539375,4.5490313 8.1899375,3.9890313 7.6299375,3.5970312 C7.0839375,3.2190313 6.4259375,3.0370312 5.6419375,3.0370312 C4.4799375,3.0370312 3.5839375,3.4430312 2.9539375,4.2550312 C2.3659375,5.0110313 2.0719375,6.0050312 2.0719375,7.2510312 C2.0719375,8.4970312 2.3519375,9.4910313 2.9399375,10.2190313 C3.5559375,10.9890313 4.4379375,11.3810312 5.6139375,11.3810312 C6.4119375,11.3810312 7.0839375,11.1710312 7.6439375,10.7510312 C8.2319375,10.3030313 8.6379375,9.6450313 8.8339375,8.7770313 L9.9399375,8.7770313 C9.7159375,9.9390312 9.1979375,10.8490312 8.3719375,11.4930313 C7.6019375,12.0950312 6.6779375,12.4030312 5.6139375,12.4030312 C4.0599375,12.4030312 2.8699375,11.8850312 2.0439375,10.8630312 C1.2879375,9.9390312 0.9239375,8.7350312 0.9239375,7.2510312 C0.9239375,5.7670312 1.3019375,4.5490313 2.0719375,3.5970312 C2.9119375,2.5330313 4.1159375,2.0150312 5.6559375,2.0150312 Z M15.9039375,2.0150312 C17.3879375,2.0150312 18.5779375,2.5050312 19.4459375,3.5130313 C20.2579375,4.4650312 20.6779375,5.6970312 20.6779375,7.2230313 C20.6779375,8.7350312 20.2579375,9.9530313 19.4459375,10.9050312 C18.5779375,11.8990313 17.3879375,12.4030312 15.8899375,12.4030312 C14.3919375,12.4030312 13.2159375,11.8990313 12.3479375,10.9050312 C11.5219375,9.9530313 11.1159375,8.7210313 11.1159375,7.2230313 C11.1159375,5.7110312 11.5219375,4.4790312 12.3479375,3.5270313 C13.2159375,2.5190312 14.3919375,2.0150312 15.9039375,2.0150312 Z M15.9039375,3.0370312 C14.7559375,3.0370312 13.8459375,3.4290313 13.1879375,4.2270312 C12.5719375,4.9830312 12.2639375,5.9770312 12.2639375,7.2230313 C12.2639375,8.4550313 12.5719375,9.4490313 13.1879375,10.2050313 C13.8319375,10.9890313 14.7419375,11.3810312 15.8899375,11.3810312 C17.0379375,11.3810312 17.9479375,10.9890313 18.5919375,10.2330312 C19.2079375,9.4770312 19.5299375,8.4830312 19.5299375,7.2230313 C19.5299375,5.9490313 19.2079375,4.9410312 18.5919375,4.1850313 C17.9479375,3.4150313 17.0519375,3.0370312 15.9039375,3.0370312 Z M25.0478051,5.7950313 C25.6024269,5.7950313 26.0562085,5.9546951 26.417553,6.2740228 C26.7704942,6.5933506 26.9553681,7.021922 26.9553681,7.5429304 C26.9553681,8.0639388 26.7536875,8.534527 26.3671328,8.9546951 C26.1570488,9.1731825 25.7452841,9.5009136 25.1234353,9.9210817 C24.3587295,10.4336867 23.9217547,10.8958716 23.812511,11.2992329 L26.9637715,11.2992329 L26.9637715,11.9126783 L22.9637715,11.9126783 C22.9637715,11.3664598 23.1570488,10.8706615 23.5604101,10.4252834 C23.7957043,10.1563758 24.2242757,9.7950313 24.8629311,9.3580565 C25.3335194,9.021922 25.6444438,8.7782245 25.8041076,8.6101573 C26.1066286,8.2824262 26.2662925,7.9210817 26.2662925,7.534527 C26.2662925,7.1647791 26.1570488,6.8874682 25.9385614,6.6857876 C25.720074,6.4841069 25.4091496,6.3832665 25.022595,6.3832665 C24.6108303,6.3832665 24.2915026,6.5177203 24.0730152,6.8034346 C23.8377211,7.0723422 23.7116706,7.4757035 23.7032673,8.0051153 L23.0141917,8.0051153 C23.0141917,7.3328464 23.207469,6.7950313 23.5772169,6.4000733 C23.9469648,5.9967119 24.4427631,5.7950313 25.0478051,5.7950313 Z M32.0039375,5.7950313 C31.5419375,6.4110313 31.0379375,7.0130313 30.4919375,7.5730312 L30.1699375,6.4950313 C31.6539375,4.8290312 32.7459375,2.9110313 33.4319375,0.7550312 L34.3839375,1.2030313 C34.0199375,2.2810313 33.5719375,3.3030313 33.0119375,4.2690312 L33.0119375,13.6350312 L32.0039375,13.6350312 L32.0039375,5.7950313 Z M34.5659375,2.5610312 L37.2959375,2.5610312 L37.7159375,0.7550312 L38.6959375,0.8530313 C38.5559375,1.4410312 38.4299375,2.0150312 38.3039375,2.5610312 L42.5319375,2.5610312 L42.5319375,3.5410312 L38.0519375,3.5410312 C37.8979375,4.1010312 37.7439375,4.6470313 37.5759375,5.1650313 L43.1059375,5.1650313 L43.1059375,6.1310312 L37.2539375,6.1310312 C37.0299375,6.7750313 36.7919375,7.3630312 36.5679375,7.9090313 L42.3219375,7.9090313 L42.3219375,8.7770313 C41.7339375,9.7570313 40.7959375,10.7370313 39.5079375,11.7170313 C40.1659375,12.0670313 40.7959375,12.4450312 41.4119375,12.8510312 L40.8379375,13.7190313 C39.1299375,12.5430312 37.3659375,11.6190312 35.5739375,10.9470312 L36.1059375,10.1630313 C36.9739375,10.4990312 37.8139375,10.8630312 38.6259375,11.2550312 C39.7319375,10.4850312 40.5999375,9.6870313 41.2439375,8.8470312 L35.2519375,8.8470312 C35.6159375,7.9790312 35.9659375,7.0690313 36.2879375,6.1310312 L33.9499375,6.1310312 L33.9499375,5.1650313 L36.5959375,5.1650313 C36.7639375,4.6190312 36.9179375,4.0730312 37.0579375,3.5410312 L34.5659375,3.5410312 L34.5659375,2.5610312 Z M47.1239375,4.0730312 L51.7299375,4.0730312 L51.7299375,4.8990313 L47.1239375,4.8990313 L47.1239375,4.0730312 Z M47.5019375,5.7950313 L51.4079375,5.7950313 L51.4079375,8.6510312 L47.5019375,8.6510312 L47.5019375,5.7950313 Z M50.4699375,7.8670312 L50.4699375,6.5790312 L48.4539375,6.5790312 L48.4539375,7.8670312 L50.4699375,7.8670312 Z M56.4619375,2.0290313 L56.4619375,2.9530313 L53.1579375,2.9530313 C53.2139375,3.9330313 53.3259375,4.7450313 53.4939375,5.3750313 C53.5919375,5.8090312 53.7039375,6.2010313 53.8439375,6.5510313 C54.3479375,5.7390313 54.7819375,4.8010313 55.1179375,3.7090312 L55.9019375,4.1150312 C55.4679375,5.4870313 54.9359375,6.6070313 54.2919375,7.5030312 L54.4179375,7.6990313 C54.7819375,8.1890312 55.1179375,8.4410312 55.4259375,8.4410312 C55.6779375,8.4410312 55.9439375,7.8530313 56.2239375,6.6910312 L57.0359375,7.1670313 C56.6159375,8.6370312 56.1119375,9.3790313 55.5239375,9.3790313 C54.9639375,9.3790313 54.4319375,9.0850313 53.9139375,8.5250313 C53.8299375,8.4270312 53.7459375,8.3290312 53.6899375,8.2450313 C53.2279375,8.7350312 52.7379375,9.1270313 52.2339375,9.4350313 L51.7159375,8.6510312 C52.2619375,8.3290312 52.7659375,7.9090313 53.2139375,7.4050312 C52.9899375,6.9570313 52.7939375,6.4390312 52.6259375,5.8650312 C52.4019375,5.0810312 52.2619375,4.1150312 52.1919375,2.9530313 L46.4799375,2.9530313 L46.4799375,4.7870312 C46.4379375,6.6350312 45.9619375,8.1330312 45.0659375,9.2670312 L44.3099375,8.5810312 C45.0659375,7.6710312 45.4579375,6.4110313 45.4999375,4.7870312 L45.4999375,2.0290313 L52.1499375,2.0290313 C52.1219375,1.6090313 52.1219375,1.1610313 52.1219375,0.7130312 L53.0879375,0.7130312 C53.0879375,1.1750312 53.0879375,1.6090313 53.1159375,2.0290313 L54.6419375,2.0290313 C54.5019375,1.6370312 54.3479375,1.2730312 54.1799375,0.9370313 L55.0759375,0.7830313 C55.2299375,1.1470313 55.3839375,1.5670313 55.5239375,2.0290313 L56.4619375,2.0290313 Z M45.9339375,9.5330313 L46.8579375,9.7290312 C46.4659375,11.0450313 45.9339375,12.1790313 45.2339375,13.1450313 L44.3799375,12.5990312 C45.0799375,11.6750312 45.5979375,10.6530312 45.9339375,9.5330313 Z M52.4999375,13.3830312 L49.0279375,13.3830312 C48.2019375,13.3830312 47.7959375,12.9350313 47.7959375,12.0530313 L47.7959375,9.3790313 L48.8179375,9.3790313 L48.8179375,11.8430312 C48.8179375,12.2350312 48.9859375,12.4310313 49.3359375,12.4310313 L52.3179375,12.4310313 C52.5979375,12.4310313 52.8079375,12.3610312 52.9339375,12.2210313 C53.0739375,12.0530313 53.1859375,11.5770312 53.2419375,10.7650312 L54.1939375,11.0870313 C54.1099375,12.1790313 53.9279375,12.8370313 53.6479375,13.0890313 C53.3959375,13.2850312 53.0179375,13.3830312 52.4999375,13.3830312 Z M55.1459375,9.8270312 C55.9859375,10.7510312 56.6159375,11.5630313 57.0499375,12.2630313 L56.2519375,12.8370313 C55.7759375,12.0810312 55.1459375,11.2410313 54.3339375,10.3310312 L55.1459375,9.8270312 Z M50.6659375,9.1410313 C51.3239375,9.8410313 51.8279375,10.4710313 52.1779375,11.0030312 L51.4219375,11.5350312 C51.0579375,10.9470312 50.5539375,10.3030313 49.9099375,9.6030313 L50.6659375,9.1410313 Z M59.6259375,1.3010313 L63.8959375,1.3010313 L63.8959375,4.7030313 L59.6259375,4.7030313 L59.6259375,1.3010313 Z M62.9719375,3.8490312 L62.9719375,2.1690312 L60.5359375,2.1690312 L60.5359375,3.8490312 L62.9719375,3.8490312 Z M65.4499375,1.3010313 L69.803937,1.3010313 L69.803937,4.7030313 L65.4499375,4.7030313 L65.4499375,1.3010313 Z M68.893937,3.8490312 L68.893937,2.1690312 L66.3739375,2.1690312 L66.3739375,3.8490312 L68.893937,3.8490312 Z M58.4919375,6.1030313 L63.2099375,6.1030313 C63.4759375,5.7390313 63.6859375,5.3610312 63.8539375,4.9690313 L64.8199375,5.0670313 C64.6799375,5.4310313 64.4979375,5.7670312 64.3019375,6.1030313 L67.913937,6.1030313 C67.717938,5.7530312 67.507938,5.4310313 67.283937,5.1510312 L68.137938,4.8710313 C68.431938,5.2630313 68.683937,5.6690312 68.907938,6.1030313 L70.839938,6.1030313 L70.839938,6.9990312 L67.059938,6.9990312 C67.969938,7.8390313 69.327937,8.5110313 71.133938,9.0010312 L70.727938,9.8550313 C70.377938,9.7430313 70.055938,9.6170312 69.747938,9.5050312 L69.747938,13.6210313 L68.851937,13.6210313 L68.851937,13.0190312 L66.2339375,13.0190312 L66.2339375,13.6210313 L65.3379375,13.6210313 L65.3379375,9.2110312 L69.075938,9.2110312 C67.731937,8.5950312 66.6959375,7.8530313 65.9959375,6.9990312 L63.6299375,6.9990312 C62.8459375,7.8950313 61.7959375,8.6230313 60.4799375,9.2110312 L63.9939375,9.2110312 L63.9939375,13.6210313 L63.0979375,13.6210313 L63.0979375,13.0190312 L60.7039375,13.0190312 L60.7039375,13.6210313 L59.8219375,13.6210313 L59.8219375,9.4910313 C59.4439375,9.6310312 59.0659375,9.7570313 58.6739375,9.8830312 L58.2119375,9.0570312 C60.0039375,8.5250313 61.3759375,7.8390313 62.3559375,6.9990312 L58.4919375,6.9990312 L58.4919375,6.1030313 Z M60.7039375,12.1510312 L63.0979375,12.1510312 L63.0979375,10.0510313 L60.7039375,10.0510313 L60.7039375,12.1510312 Z M66.2339375,12.1510312 L68.851937,12.1510312 L68.851937,10.0510313 L66.2339375,10.0510313 L66.2339375,12.1510312 Z" id="path-1"></path>
                        </g>
                    </g>
                </g>
                <g id="RectEndPoint26-Copy" transform="translate(450.000000, 0.207031)">
                    <rect id="Rectangle-path" fill="#BBBBBB" opacity="0.6" x="2" y="2" width="138" height="50"></rect>
                    <rect id="Rectangle-path" stroke="#E5E5E5" fill="#FFFFFF" x="0" y="0" width="138" height="50"></rect>
                    <g id="Group" transform="translate(20.000000, 15.000000)" fill="#444444" font-family="PingFangSC-Regular, PingFang SC" font-size="14" font-weight="normal">
                        <g id="气象环境传感器">
                            <text>
                                <tspan x="0" y="15">气象环境传感器</tspan>
                            </text>
                        </g>
                    </g>
                </g>
                <g id="RectEndPoint23-Copy" transform="translate(0.000000, 0.207031)">
                    <rect id="Rectangle-path" fill="#BBBBBB" opacity="0.6" x="2" y="2" width="138" height="50"></rect>
                    <rect id="Rectangle-path" stroke="#E5E5E5" fill="#FFFFFF" x="0" y="0" width="138" height="50"></rect>
                    <g id="Group" transform="translate(27.000000, 15.000000)" fill="#444444" font-family="PingFangSC-Regular, PingFang SC" font-size="14" font-weight="normal">
                        <g id="温湿度传感器">
                            <text>
                                <tspan x="0" y="15">温湿度传感器</tspan>
                            </text>
                        </g>
                    </g>
                </g>
                <g id="RectEndPoint25-Copy" transform="translate(300.000000, 0.207031)">
                    <rect id="Rectangle-path" fill="#BBBBBB" opacity="0.6" x="2" y="2" width="138" height="50"></rect>
                    <rect id="Rectangle-path" stroke="#E5E5E5" fill="#FFFFFF" x="0" y="0" width="138" height="50"></rect>
                    <g id="Group" transform="translate(20.000000, 15.000000)" fill="#444444" font-family="PingFangSC-Regular, PingFang SC" font-size="14" font-weight="normal">
                        <g id="土壤环境传感器">
                            <text>
                                <tspan x="0" y="15">土壤环境传感器</tspan>
                            </text>
                        </g>
                    </g>
                </g>
                <g id="RectEndPoint27-Copy" transform="translate(600.000000, 0.207031)">
                    <rect id="Rectangle-path" fill="#BBBBBB" opacity="0.6" x="2" y="2" width="138" height="50"></rect>
                    <rect id="Rectangle-path" stroke="#E5E5E5" fill="#FFFFFF" x="0" y="0" width="138" height="50"></rect>
                    <g id="Group" transform="translate(34.000000, 15.000000)" fill="#444444" font-family="PingFangSC-Regular, PingFang SC" font-size="14" font-weight="normal">
                        <g id="灌溉控制器">
                            <text>
                                <tspan x="0" y="15">灌溉控制器</tspan>
                            </text>
                        </g>
                    </g>
                </g>
            </g>
            <g id="RectEndPoint9-Copy" transform="translate(517.968750, 24.031250)">
                <rect id="Rectangle-path" fill="#BBBBBB" opacity="0.6" x="2" y="2" width="138" height="50"></rect>
                <rect id="Rectangle-path" stroke="#E5E5E5" fill="#FFFFFF" x="0" y="0" width="138" height="50"></rect>
                <g id="Group" transform="translate(27.000000, 15.000000)" fill="#444444" font-family="PingFangSC-Regular, PingFang SC" font-size="14" font-weight="normal">
                    <g id="畜牧及养殖厂">
                        <text>
                            <tspan x="0" y="15">畜牧及养殖厂</tspan>
                        </text>
                    </g>
                </g>
            </g>
            <g id="RectEndPoint3-Copy" transform="translate(123.296875, 24.031250)">
                <rect id="Rectangle-path" fill="#BBBBBB" opacity="0.6" x="2" y="2" width="138" height="50"></rect>
                <rect id="Rectangle-path" stroke="#E5E5E5" fill="#FFFFFF" x="0" y="0" width="138" height="50"></rect>
                <g id="Group" transform="translate(41.000000, 15.000000)" fill="#444444" font-family="PingFangSC-Regular, PingFang SC" font-size="14" font-weight="normal">
                    <g id="智慧大棚">
                        <text>
                            <tspan x="0" y="15">智慧大棚</tspan>
                        </text>
                    </g>
                </g>
            </g>
            <g id="Link59-Copy-5" transform="translate(583.796875, 100.031250)">
                <path d="M4.5,3.5 L4.5,24.5" id="Shape" stroke="#888888"></path>
                <g id="Group" transform="translate(0.000000, 19.500000)" fill="#888888">
                    <polygon id="Shape" points="0 0.5 4.5 6.5 9 0.5"></polygon>
                </g>
                <g id="Group" transform="translate(4.500000, 4.000000) scale(-1, 1) rotate(-180.000000) translate(-4.500000, -4.000000) translate(0.000000, 0.500000)" fill="#888888">
                    <polygon id="Shape" points="0 0.5 4.5 6.5 9 0.5"></polygon>
                </g>
            </g>
            <g id="Link59-Copy-6" transform="translate(583.796875, 357.207031)">
                <path d="M4.5,3.5 L4.5,24.5" id="Shape" stroke="#888888"></path>
                <g id="Group" transform="translate(0.000000, 19.500000)" fill="#888888">
                    <polygon id="Shape" points="0 0.5 4.5 6.5 9 0.5"></polygon>
                </g>
                <g id="Group" transform="translate(4.500000, 4.000000) scale(-1, 1) rotate(-180.000000) translate(-4.500000, -4.000000) translate(0.000000, 0.500000)" fill="#888888">
                    <polygon id="Shape" points="0 0.5 4.5 6.5 9 0.5"></polygon>
                </g>
            </g>
            <g id="Link59-Copy-7" transform="translate(386.296875, 564.207031)">
                <path d="M4.5,3.5 L4.5,24.5" id="Shape" stroke="#888888"></path>
                <g id="Group" transform="translate(0.000000, 19.500000)" fill="#888888">
                    <polygon id="Shape" points="0 0.5 4.5 6.5 9 0.5"></polygon>
                </g>
                <g id="Group" transform="translate(4.500000, 4.000000) scale(-1, 1) rotate(-180.000000) translate(-4.500000, -4.000000) translate(0.000000, 0.500000)" fill="#888888">
                    <polygon id="Shape" points="0 0.5 4.5 6.5 9 0.5"></polygon>
                </g>
            </g>
            <g id="Link59-Copy-8" transform="translate(188.796875, 357.207031)">
                <path d="M4.5,3.5 L4.5,24.5" id="Shape" stroke="#888888"></path>
                <g id="Group" transform="translate(0.000000, 19.500000)" fill="#888888">
                    <polygon id="Shape" points="0 0.5 4.5 6.5 9 0.5"></polygon>
                </g>
                <g id="Group" transform="translate(4.500000, 4.000000) scale(-1, 1) rotate(-180.000000) translate(-4.500000, -4.000000) translate(0.000000, 0.500000)" fill="#888888">
                    <polygon id="Shape" points="0 0.5 4.5 6.5 9 0.5"></polygon>
                </g>
            </g>
        </g>
    </g>
</svg>