<?xml version="1.0" encoding="UTF-8"?>
<svg width="830px" height="195px" viewBox="0 0 830 195" version="1.1" xmlns="http://www.w3.org/2000/svg" xmlns:xlink="http://www.w3.org/1999/xlink">
    <!-- Generator: Sketch 54.1 (76490) - https://sketchapp.com -->
    <title>应用分发</title>
    <desc>Created with Sketch.</desc>
    <defs>
        <rect id="path-1" x="0" y="0" width="138" height="50"></rect>
        <filter x="-1.4%" y="-2.0%" width="102.9%" height="108.0%" filterUnits="objectBoundingBox" id="filter-2">
            <feOffset dx="0" dy="1" in="SourceAlpha" result="shadowOffsetOuter1"></feOffset>
            <feGaussianBlur stdDeviation="0.5" in="shadowOffsetOuter1" result="shadowBlurOuter1"></feGaussianBlur>
            <feColorMatrix values="0 0 0 0 0   0 0 0 0 0   0 0 0 0 0  0 0 0 0.35 0" type="matrix" in="shadowBlurOuter1"></feColorMatrix>
        </filter>
        <path d="M56.122,29.818 L61.96,29.818 C62.828,27.83 63.584,25.38 64.228,22.44 L65.222,22.706 C64.634,25.366 63.92,27.746 63.052,29.818 L66.006,29.818 L66.006,30.798 L56.122,30.798 L56.122,29.818 Z M57.648,23.126 C58.208,24.61 58.712,26.332 59.16,28.264 L58.208,28.502 C57.83,26.738 57.354,25.03 56.766,23.406 L57.648,23.126 Z M60.35,22.132 C60.826,23.672 61.26,25.45 61.652,27.438 L60.686,27.662 C60.378,25.842 59.972,24.092 59.468,22.412 L60.35,22.132 Z M60.364,18.45 C60.63,18.884 60.882,19.374 61.106,19.906 L66.23,19.906 L66.23,20.886 L55.856,20.886 L55.856,24.008 C55.8,27.088 55.324,29.552 54.414,31.4 L53.588,30.658 C54.372,29.062 54.792,26.85 54.82,24.008 L54.82,19.906 L60.014,19.906 C59.79,19.458 59.538,19.038 59.258,18.646 L60.364,18.45 Z M69.982,23.448 L69.982,25.898 L73.538,25.898 L73.538,23.448 L69.982,23.448 Z M69.926,26.822 C69.772,28.614 69.254,30.098 68.358,31.274 L67.588,30.588 C68.484,29.342 68.946,27.76 68.974,25.842 L68.974,19.122 L79.404,19.122 L79.404,29.608 C79.404,30.588 78.914,31.078 77.934,31.078 L76.324,31.078 L76.058,30.084 C76.618,30.112 77.136,30.14 77.612,30.14 C78.116,30.14 78.382,29.846 78.382,29.258 L78.382,26.822 L74.574,26.822 L74.574,30.924 L73.538,30.924 L73.538,26.822 L69.926,26.822 Z M78.382,25.898 L78.382,23.448 L74.574,23.448 L74.574,25.898 L78.382,25.898 Z M78.382,22.51 L78.382,20.102 L74.574,20.102 L74.574,22.51 L78.382,22.51 Z M73.538,20.102 L69.982,20.102 L69.982,22.51 L73.538,22.51 L73.538,20.102 Z M87.594,19.08 L93.404,19.08 L93.404,23.126 L87.594,23.126 L87.594,19.08 Z M92.424,22.216 L92.424,19.976 L88.588,19.976 L88.588,22.216 L92.424,22.216 Z M87.048,24.428 L94.006,24.428 L94.006,25.352 L90.954,25.352 L90.954,27.144 L93.572,27.144 L93.572,28.054 L90.954,28.054 L90.954,29.944 L94.342,29.944 L94.342,30.896 L86.488,30.896 L86.488,29.944 L89.918,29.944 L89.918,28.054 L87.37,28.054 L87.37,27.144 L89.918,27.144 L89.918,25.352 L87.048,25.352 L87.048,24.428 Z M81.812,22.398 L83.856,22.398 L83.856,20.368 C83.268,20.452 82.652,20.536 82.022,20.606 L81.826,19.654 C83.576,19.486 85.13,19.192 86.474,18.772 L86.824,19.724 C86.194,19.906 85.522,20.06 84.822,20.2 L84.822,22.398 L86.628,22.398 L86.628,23.364 L84.822,23.364 L84.822,24.106 C85.48,24.75 86.152,25.478 86.824,26.276 L86.264,27.116 C85.704,26.248 85.214,25.548 84.822,25.03 L84.822,31.344 L83.856,31.344 L83.856,25.03 C83.366,26.402 82.722,27.634 81.924,28.74 L81.49,27.62 C82.554,26.374 83.31,24.96 83.758,23.364 L81.812,23.364 L81.812,22.398 Z M102.532,18.506 C102.728,18.87 102.924,19.276 103.106,19.724 L108.174,19.724 L108.174,20.648 L97.842,20.648 L97.842,24.246 C97.786,27.214 97.296,29.58 96.344,31.372 L95.588,30.7 C96.386,29.146 96.806,26.99 96.834,24.246 L96.834,19.724 L102.098,19.724 C101.916,19.346 101.72,18.996 101.51,18.674 L102.532,18.506 Z M101.314,23.308 C101.986,23.644 102.602,23.994 103.162,24.344 C104.002,23.854 104.772,23.28 105.472,22.636 L99.298,22.636 L99.298,21.768 L106.732,21.768 L106.732,22.496 C105.878,23.406 104.94,24.19 103.932,24.848 C104.156,24.988 104.366,25.142 104.562,25.296 L104.352,25.506 L107.908,25.506 L107.908,26.29 C107.334,27.382 106.69,28.306 105.976,29.062 L105.22,28.46 C105.808,27.9 106.34,27.228 106.83,26.444 L103.61,26.444 L103.61,30.182 C103.61,31.008 103.19,31.428 102.364,31.428 L100.306,31.428 L100.096,30.476 C100.768,30.518 101.412,30.546 102.028,30.546 C102.406,30.546 102.602,30.336 102.602,29.944 L102.602,26.444 L98.486,26.444 L98.486,25.506 L103.47,25.506 C102.742,25.002 101.818,24.456 100.712,23.896 L101.314,23.308 Z" id="path-3"></path>
        <rect id="path-4" x="0" y="0" width="138" height="50"></rect>
        <filter x="-1.4%" y="-2.0%" width="102.9%" height="108.0%" filterUnits="objectBoundingBox" id="filter-5">
            <feOffset dx="0" dy="1" in="SourceAlpha" result="shadowOffsetOuter1"></feOffset>
            <feGaussianBlur stdDeviation="0.5" in="shadowOffsetOuter1" result="shadowBlurOuter1"></feGaussianBlur>
            <feColorMatrix values="0 0 0 0 0   0 0 0 0 0   0 0 0 0 0  0 0 0 0.35 0" type="matrix" in="shadowBlurOuter1"></feColorMatrix>
        </filter>
        <path d="M60.168,18.492 C60.336,18.856 60.49,19.276 60.644,19.738 L65.726,19.738 L65.726,22.23 L64.746,22.23 L64.746,20.676 L55.254,20.676 L55.254,22.3 L54.274,22.3 L54.274,19.738 L59.594,19.738 C59.426,19.346 59.258,18.996 59.09,18.674 L60.168,18.492 Z M59.636,22.972 L60.406,22.972 C61.54,24.386 63.5,25.618 66.272,26.682 L65.726,27.508 C65.166,27.284 64.648,27.06 64.172,26.836 L64.172,31.414 L63.206,31.414 L63.206,30.826 L56.948,30.826 L56.948,31.414 L55.968,31.414 L55.968,26.78 C55.394,27.06 54.82,27.298 54.232,27.522 L53.7,26.696 C56.262,25.744 58.236,24.512 59.636,22.972 Z M56.948,29.902 L63.206,29.902 L63.206,27.662 L56.948,27.662 L56.948,29.902 Z M55.996,26.766 L64.018,26.766 C62.31,25.926 60.966,24.946 60.014,23.854 C58.894,25.03 57.55,25.996 55.996,26.766 Z M61.638,21.264 C63.318,22.132 64.746,23 65.894,23.868 L65.194,24.554 C64.172,23.714 62.772,22.832 60.994,21.894 L61.638,21.264 Z M58.32,21.25 L58.992,21.852 C57.802,22.888 56.346,23.798 54.61,24.582 L54.008,23.798 C55.716,23.07 57.144,22.23 58.32,21.25 Z M68.96,19.094 L73.23,19.094 L73.23,22.496 L68.96,22.496 L68.96,19.094 Z M72.306,21.642 L72.306,19.962 L69.87,19.962 L69.87,21.642 L72.306,21.642 Z M74.784,19.094 L79.138,19.094 L79.138,22.496 L74.784,22.496 L74.784,19.094 Z M78.228,21.642 L78.228,19.962 L75.708,19.962 L75.708,21.642 L78.228,21.642 Z M67.826,23.896 L72.544,23.896 C72.81,23.532 73.02,23.154 73.188,22.762 L74.154,22.86 C74.014,23.224 73.832,23.56 73.636,23.896 L77.248,23.896 C77.052,23.546 76.842,23.224 76.618,22.944 L77.472,22.664 C77.766,23.056 78.018,23.462 78.242,23.896 L80.174,23.896 L80.174,24.792 L76.394,24.792 C77.304,25.632 78.662,26.304 80.468,26.794 L80.062,27.648 C79.712,27.536 79.39,27.41 79.082,27.298 L79.082,31.414 L78.186,31.414 L78.186,30.812 L75.568,30.812 L75.568,31.414 L74.672,31.414 L74.672,27.004 L78.41,27.004 C77.066,26.388 76.03,25.646 75.33,24.792 L72.964,24.792 C72.18,25.688 71.13,26.416 69.814,27.004 L73.328,27.004 L73.328,31.414 L72.432,31.414 L72.432,30.812 L70.038,30.812 L70.038,31.414 L69.156,31.414 L69.156,27.284 C68.778,27.424 68.4,27.55 68.008,27.676 L67.546,26.85 C69.338,26.318 70.71,25.632 71.69,24.792 L67.826,24.792 L67.826,23.896 Z M70.038,29.944 L72.432,29.944 L72.432,27.844 L70.038,27.844 L70.038,29.944 Z M75.568,29.944 L78.186,29.944 L78.186,27.844 L75.568,27.844 L75.568,29.944 Z M86.964,19.626 L89.75,19.626 C89.61,19.262 89.442,18.912 89.274,18.59 L90.282,18.422 C90.422,18.772 90.576,19.178 90.716,19.626 L93.684,19.626 L93.684,20.466 L92.536,20.466 C92.41,20.998 92.242,21.502 92.018,21.978 L94.146,21.978 L94.146,22.832 L86.544,22.832 L86.544,21.978 L88.63,21.978 C88.462,21.418 88.28,20.914 88.084,20.466 L86.964,20.466 L86.964,19.626 Z M91.052,21.978 C91.304,21.488 91.486,20.984 91.598,20.466 L89.064,20.466 C89.232,20.928 89.386,21.432 89.54,21.978 L91.052,21.978 Z M87.398,23.672 L93.194,23.672 L93.194,28.068 L91.766,28.068 L91.766,29.888 C91.766,30.238 91.934,30.42 92.284,30.42 L92.886,30.42 C93.11,30.42 93.278,30.35 93.376,30.224 C93.502,30.056 93.586,29.566 93.628,28.768 L94.454,29.02 C94.37,30.084 94.216,30.728 93.992,30.966 C93.796,31.148 93.474,31.246 93.04,31.246 L92.018,31.246 C91.22,31.246 90.828,30.854 90.828,30.084 L90.828,28.068 L89.596,28.068 C89.442,28.908 89.148,29.594 88.714,30.112 C88.21,30.7 87.384,31.148 86.222,31.47 L85.872,30.63 C86.824,30.378 87.524,30.014 87.958,29.566 C88.294,29.174 88.532,28.684 88.658,28.068 L87.398,28.068 L87.398,23.672 Z M92.284,27.256 L92.284,26.234 L88.308,26.234 L88.308,27.256 L92.284,27.256 Z M88.308,25.492 L92.284,25.492 L92.284,24.47 L88.308,24.47 L88.308,25.492 Z M83.282,18.478 L84.248,18.688 C84.122,19.206 83.996,19.696 83.856,20.144 L86.278,20.144 L86.278,21.11 L83.534,21.11 C83.17,22.076 82.764,22.958 82.302,23.742 L81.476,23.224 C82.302,21.796 82.904,20.214 83.282,18.478 Z M82.932,22.972 L86.11,22.972 L86.11,23.882 L84.64,23.882 L84.64,25.604 L86.432,25.604 L86.432,26.528 L84.64,26.528 L84.64,29.776 C85.116,29.552 85.606,29.258 86.096,28.908 L86.278,29.776 C85.522,30.28 84.668,30.686 83.688,30.994 L83.296,30.154 C83.534,30.07 83.66,29.916 83.66,29.706 L83.66,26.528 L81.91,26.528 L81.91,25.604 L83.66,25.604 L83.66,23.882 L82.932,23.882 L82.932,22.972 Z M99.886,21.894 C99.69,22.006 99.522,22.118 99.354,22.23 L98.738,21.474 C100.11,20.718 101.244,19.71 102.112,18.464 L103.148,18.702 C102.952,18.982 102.77,19.234 102.574,19.472 L106.088,19.472 L106.088,20.13 C105.724,20.606 105.36,21.012 104.996,21.362 L107.6,21.362 L107.6,24.414 L103.414,24.414 L103.4,24.428 C104.002,25.044 104.464,25.688 104.772,26.388 C105.724,25.968 106.536,25.45 107.18,24.834 L107.838,25.59 C107.404,25.968 106.928,26.304 106.396,26.598 C106.788,27.858 107.488,28.978 108.496,29.958 L107.838,30.784 C106.816,29.636 106.088,28.376 105.64,26.99 C105.444,27.074 105.262,27.158 105.08,27.242 C105.22,27.746 105.304,28.25 105.332,28.782 C105.332,29.734 105.178,30.406 104.87,30.784 C104.604,31.092 104.114,31.302 103.414,31.386 C103.162,31.414 102.882,31.428 102.574,31.428 L102.28,30.518 C102.686,30.518 103.022,30.504 103.302,30.49 C103.61,30.462 103.862,30.35 104.058,30.126 C104.226,29.902 104.324,29.454 104.324,28.782 C104.324,28.6 104.31,28.432 104.296,28.264 C103.092,29.356 101.51,30.266 99.55,30.966 L99.046,30.098 C101.23,29.398 102.91,28.474 104.114,27.354 C104.016,27.046 103.904,26.752 103.778,26.486 C102.742,27.41 101.342,28.18 99.578,28.768 L99.088,27.942 C100.936,27.382 102.364,26.668 103.372,25.8 C103.204,25.548 103.008,25.31 102.812,25.086 C101.972,25.856 100.852,26.402 99.48,26.71 L99.102,25.87 C100.432,25.59 101.454,25.1 102.182,24.414 L99.886,24.414 L99.886,21.894 Z M103.722,21.362 C104.128,21.026 104.52,20.648 104.912,20.256 L101.874,20.256 C101.468,20.662 101.048,21.026 100.628,21.362 L103.722,21.362 Z M106.62,23.588 L106.62,22.188 L104.394,22.188 C104.282,22.692 104.114,23.168 103.918,23.588 L106.62,23.588 Z M102.854,23.588 C103.106,23.154 103.302,22.692 103.414,22.188 L100.866,22.188 L100.866,23.588 L102.854,23.588 Z M97.17,23.504 C96.764,24.12 96.316,24.722 95.84,25.296 L95.518,24.232 C96.806,22.566 97.73,20.648 98.318,18.492 L99.256,18.94 C98.976,19.906 98.612,20.83 98.192,21.698 L98.192,31.386 L97.17,31.386 L97.17,23.504 Z" id="path-6"></path>
        <rect id="path-7" x="0" y="0" width="138" height="50"></rect>
        <filter x="-1.4%" y="-2.0%" width="102.9%" height="108.0%" filterUnits="objectBoundingBox" id="filter-8">
            <feOffset dx="0" dy="1" in="SourceAlpha" result="shadowOffsetOuter1"></feOffset>
            <feGaussianBlur stdDeviation="0.5" in="shadowOffsetOuter1" result="shadowBlurOuter1"></feGaussianBlur>
            <feColorMatrix values="0 0 0 0 0   0 0 0 0 0   0 0 0 0 0  0 0 0 0.35 0" type="matrix" in="shadowBlurOuter1"></feColorMatrix>
        </filter>
        <polygon id="path-9" points="0 0 186 1.77635684e-13 186 50 0 50"></polygon>
        <filter x="-1.1%" y="-2.0%" width="102.2%" height="108.0%" filterUnits="objectBoundingBox" id="filter-10">
            <feOffset dx="0" dy="1" in="SourceAlpha" result="shadowOffsetOuter1"></feOffset>
            <feGaussianBlur stdDeviation="0.5" in="shadowOffsetOuter1" result="shadowBlurOuter1"></feGaussianBlur>
            <feColorMatrix values="0 0 0 0 0   0 0 0 0 0   0 0 0 0 0  0 0 0 0.35 0" type="matrix" in="shadowBlurOuter1"></feColorMatrix>
        </filter>
        <polygon id="path-11" points="10 0 146 1.77635684e-13 146 50 10 50"></polygon>
        <filter x="-1.5%" y="-2.0%" width="102.9%" height="108.0%" filterUnits="objectBoundingBox" id="filter-12">
            <feOffset dx="0" dy="1" in="SourceAlpha" result="shadowOffsetOuter1"></feOffset>
            <feGaussianBlur stdDeviation="0.5" in="shadowOffsetOuter1" result="shadowBlurOuter1"></feGaussianBlur>
            <feColorMatrix values="0 0 0 0 0   0 0 0 0 0   0 0 0 0 0  0 0 0 0.35 0" type="matrix" in="shadowBlurOuter1"></feColorMatrix>
        </filter>
        <path d="M72.982,23.448 L72.982,25.898 L76.538,25.898 L76.538,23.448 L72.982,23.448 Z M72.926,26.822 C72.772,28.614 72.254,30.098 71.358,31.274 L70.588,30.588 C71.484,29.342 71.946,27.76 71.974,25.842 L71.974,19.122 L82.404,19.122 L82.404,29.608 C82.404,30.588 81.914,31.078 80.934,31.078 L79.324,31.078 L79.058,30.084 C79.618,30.112 80.136,30.14 80.612,30.14 C81.116,30.14 81.382,29.846 81.382,29.258 L81.382,26.822 L77.574,26.822 L77.574,30.924 L76.538,30.924 L76.538,26.822 L72.926,26.822 Z M81.382,25.898 L81.382,23.448 L77.574,23.448 L77.574,25.898 L81.382,25.898 Z M81.382,22.51 L81.382,20.102 L77.574,20.102 L77.574,22.51 L81.382,22.51 Z M76.538,20.102 L72.982,20.102 L72.982,22.51 L76.538,22.51 L76.538,20.102 Z M95.186,21.278 L87.192,21.278 L87.192,24.008 L95.186,24.008 L95.186,21.278 Z M87.192,24.988 C87.122,27.494 86.464,29.65 85.204,31.456 L84.462,30.784 C85.596,29.216 86.17,27.172 86.198,24.666 L86.198,20.284 L90.762,20.284 C90.51,19.696 90.244,19.15 89.95,18.646 L91.028,18.478 C91.28,19.01 91.532,19.612 91.784,20.284 L96.208,20.284 L96.208,24.988 L87.192,24.988 Z M98.77,19.304 L111.216,19.304 L111.216,20.298 L105.14,20.298 L105.14,22.412 C106.876,23.28 108.64,24.288 110.432,25.436 L109.83,26.332 C107.968,25.1 106.4,24.148 105.14,23.476 L105.14,31.428 L104.118,31.428 L104.118,20.298 L98.77,20.298 L98.77,19.304 Z M113.568,19.696 L116.298,19.696 L116.298,18.52 L117.278,18.52 L117.278,19.696 L119.812,19.696 L119.812,20.62 L117.278,20.62 L117.278,21.908 L120.638,21.908 C120.582,20.858 120.554,19.724 120.554,18.492 L121.534,18.492 C121.534,19.766 121.562,20.9 121.618,21.908 L125.146,21.908 L125.146,22.818 L121.674,22.818 C121.758,24.064 121.87,25.086 122.024,25.87 C122.108,26.276 122.192,26.654 122.276,27.018 C122.78,26.01 123.186,24.834 123.494,23.518 L124.39,23.924 C123.942,25.674 123.368,27.144 122.668,28.32 C122.78,28.642 122.906,28.922 123.032,29.174 C123.396,29.86 123.69,30.21 123.914,30.21 C124.138,30.196 124.334,29.454 124.502,27.97 L125.37,28.432 C125.062,30.294 124.628,31.232 124.04,31.232 C123.564,31.232 123.046,30.798 122.5,29.958 C122.346,29.72 122.206,29.468 122.094,29.202 C121.366,30.154 120.54,30.868 119.616,31.372 L119.07,30.56 C120.078,30 120.946,29.188 121.66,28.11 C121.464,27.494 121.282,26.822 121.128,26.08 C120.932,25.156 120.778,24.078 120.694,22.818 L112.84,22.818 L112.84,21.908 L116.298,21.908 L116.298,20.62 L113.568,20.62 L113.568,19.696 Z M122.976,18.674 C123.676,19.458 124.222,20.144 124.6,20.732 L123.844,21.264 C123.452,20.634 122.906,19.934 122.206,19.164 L122.976,18.674 Z M119.812,28.544 L119.812,29.44 C119.112,29.524 118.384,29.622 117.628,29.706 L117.628,31.358 L116.634,31.358 L116.634,29.804 C115.626,29.902 114.562,29.986 113.442,30.07 L113.316,29.132 C114.492,29.062 115.598,28.978 116.634,28.894 L116.634,27.648 L113.904,27.648 L113.708,26.822 C114.1,26.346 114.464,25.772 114.8,25.072 L113.26,25.072 L113.26,24.176 L115.192,24.176 C115.332,23.84 115.458,23.476 115.584,23.112 L116.55,23.294 C116.438,23.602 116.326,23.896 116.214,24.176 L119.882,24.176 L119.882,25.072 L115.822,25.072 C115.514,25.716 115.178,26.29 114.828,26.794 L116.634,26.794 L116.634,25.702 L117.628,25.702 L117.628,26.794 L119.756,26.794 L119.756,27.648 L117.628,27.648 L117.628,28.796 C118.398,28.712 119.126,28.628 119.812,28.544 Z" id="path-13"></path>
    </defs>
    <g id="介绍页配图设计" stroke="none" stroke-width="1" fill="none" fill-rule="evenodd">
        <g id="应用场景复制（SVG转曲）" transform="translate(-201.000000, -2017.000000)">
            <g id="流程1" transform="translate(201.000000, 2013.000000)">
                <g id="ce55d0acbf344d121aee68366e8d65ee-copy-2" transform="translate(91.000000, 5.000000)">
                    <g id="XMLID_25_">
                        <g id="分组">
                            <g id="XMLID_134_">
                                <use fill="black" fill-opacity="1" filter="url(#filter-2)" xlink:href="#path-1"></use>
                                <use fill="#FFFFFF" fill-rule="evenodd" xlink:href="#path-1"></use>
                            </g>
                            <g id="Group-19" transform="translate(20.000000, 14.000000)" stroke="#878787" stroke-width="2">
                                <rect id="Rectangle" x="0" y="0" width="22" height="22" rx="1"></rect>
                                <rect id="Rectangle" x="6" y="6" width="10" height="10"></rect>
                            </g>
                            <g id="应用程序" fill-rule="nonzero">
                                <use fill="#000000" xlink:href="#path-3"></use>
                                <use fill="#444444" xlink:href="#path-3"></use>
                            </g>
                        </g>
                        <g id="分组-copy" transform="translate(0.000000, 71.000000)">
                            <g id="XMLID_134_">
                                <use fill="black" fill-opacity="1" filter="url(#filter-5)" xlink:href="#path-4"></use>
                                <use fill="#FFFFFF" fill-rule="evenodd" xlink:href="#path-4"></use>
                            </g>
                            <path d="M42.7633054,21.4382248 C42.6982119,21.3824775 42.0905715,20.8876698 40.8091223,20.8876698 C40.4707568,20.8892637 40.1330967,20.9205604 39.7994336,20.9812704 C39.5514198,19.1479465 38.1459637,18.2541051 38.0829527,18.2140061 L37.7388437,18 L37.5125278,18.3521973 C37.2291123,18.8253073 37.0222102,19.3468476 36.900756,19.8946496 C36.6713164,20.9411714 36.810841,21.9241216 37.3037784,22.7644615 C36.7085319,23.1222009 35.7536588,23.2102592 35.5604271,23.2180472 L19.7512632,23.2180472 C19.3383324,23.218663 19.0032586,23.5785396 19.0010082,24.0238302 C18.9825684,25.5174538 19.2172141,27.0021665 19.6933911,28.4048701 C20.2379869,29.9451128 21.0481965,31.0796567 22.1022885,31.7739812 C23.2834775,32.5541183 25.2025276,32.9999161 27.3778541,32.9999161 C28.3605717,33.0032486 29.3414419,32.9073298 30.3076006,32.7135 C31.6506501,32.4475499 32.9430154,31.9412958 34.1312243,31.2156021 C35.1102808,30.604156 35.9914282,29.826301 36.7406085,28.9119574 C37.9931048,27.3828713 38.7392621,25.6799144 39.2941694,24.1664768 C39.3685668,24.1664768 39.4429978,24.1664768 39.5153127,24.1664768 C40.8866434,24.1664768 41.7299372,23.5746637 42.1949629,23.0787331 C42.5040061,22.762433 42.7452686,22.3771278 42.9018223,21.9497676 L43,21.6399513 L42.7633054,21.4382248 Z" id="Path" stroke="#878787" stroke-width="2"></path>
                            <g id="容器镜像" fill-rule="nonzero">
                                <use fill="#000000" xlink:href="#path-6"></use>
                                <use fill="#444444" xlink:href="#path-6"></use>
                            </g>
                        </g>
                        <g id="分组-copy-8" transform="translate(0.000000, 142.000000)">
                            <g id="XMLID_134_">
                                <use fill="black" fill-opacity="1" filter="url(#filter-8)" xlink:href="#path-7"></use>
                                <use fill="#FFFFFF" fill-rule="evenodd" xlink:href="#path-7"></use>
                            </g>
                            <path d="M59.4825046,24 C59.927256,24 60.2731737,24.1260504 60.5696746,24.4285714 C60.8414672,24.7058824 60.9897176,25.0588235 60.9897176,25.487395 C60.9897176,25.9411765 60.8414672,26.2941176 60.5696746,26.5714286 C60.2731737,26.8487395 59.9025476,27 59.4825046,27 C59.0624616,27 58.7165439,26.8487395 58.4447514,26.5714286 C58.1482505,26.2689076 58,25.9159664 58,25.487395 C58,25.0588235 58.1482505,24.7058824 58.4447514,24.4285714 C58.7165439,24.1260504 59.0624616,24 59.4825046,24 Z M69.5,24 C69.920043,24 70.2906691,24.1260504 70.58717,24.4285714 C70.8589626,24.7058824 71.007213,25.0588235 71.007213,25.487395 C71.007213,25.9411765 70.8589626,26.2941176 70.58717,26.5714286 C70.2906691,26.8487395 69.920043,27 69.5,27 C69.079957,27 68.7340393,26.8487395 68.4375384,26.5714286 C68.1410374,26.2689076 68.0174954,25.9159664 68.0174954,25.487395 C68.0174954,25.0588235 68.1410374,24.7058824 68.4375384,24.4285714 C68.7340393,24.1260504 69.079957,24 69.5,24 Z M79.492787,24 C79.91283,24 80.2587477,24.1260504 80.5552486,24.4285714 C80.8517495,24.7058824 81,25.0588235 81,25.487395 C81,25.9411765 80.8517495,26.2941176 80.5552486,26.5714286 C80.2587477,26.8487395 79.91283,27 79.492787,27 C79.072744,27 78.7268263,26.8487395 78.4303254,26.5714286 C78.1338244,26.2689076 78.0102824,25.9159664 78.0102824,25.487395 C78.0102824,25.0588235 78.1338244,24.7058824 78.4303254,24.4285714 C78.7268263,24.1260504 79.072744,24 79.492787,24 Z" id="…" fill="#878787" fill-rule="nonzero"></path>
                        </g>
                    </g>
                    <g id="分组-13" transform="translate(250.000000, 71.000000)">
                        <g id="XMLID_110_">
                            <use fill="black" fill-opacity="1" filter="url(#filter-10)" xlink:href="#path-9"></use>
                            <use fill="#FFFFFF" fill-rule="evenodd" xlink:href="#path-9"></use>
                        </g>
                        <path d="M57.85,24.316 L57.85,31.344 L56.828,31.344 L56.828,24.204 C56.366,25.632 55.75,26.92 54.994,28.068 L54.56,26.962 C55.582,25.59 56.31,24.036 56.758,22.272 L54.784,22.272 L54.784,21.306 L56.828,21.306 L56.828,18.576 L57.85,18.576 L57.85,21.306 L59.53,21.306 L59.53,22.272 L57.85,22.272 L57.85,23.196 C58.466,23.882 59.096,24.652 59.74,25.492 L59.138,26.374 C58.634,25.534 58.214,24.848 57.85,24.316 Z M60.804,20.102 L59.208,20.102 L59.208,19.136 L65.774,19.136 L65.774,19.78 C65.494,21.026 65.228,22.104 64.948,23 L66.768,23 L66.768,23.56 C66.474,25.478 65.83,27.102 64.85,28.418 C65.592,29.188 66.446,29.874 67.426,30.49 L66.782,31.344 C65.788,30.7 64.934,29.986 64.206,29.188 C63.366,30.07 62.344,30.798 61.14,31.372 L60.58,30.448 C61.756,29.874 62.736,29.174 63.52,28.348 C62.68,27.228 62.05,25.968 61.616,24.582 C61.266,27.508 60.44,29.748 59.138,31.302 L58.368,30.63 C59.964,28.726 60.776,25.66 60.804,21.46 L60.804,20.102 Z M64.136,27.606 C64.934,26.542 65.48,25.296 65.76,23.882 L63.744,23.882 C64.024,23.028 64.346,21.768 64.71,20.102 L61.798,20.102 L61.798,21.46 C61.798,21.656 61.784,21.838 61.784,22.02 C62.12,24.176 62.904,26.038 64.136,27.606 Z M72.956,19.71 L76.526,19.71 L76.526,18.576 L77.464,18.576 L77.464,19.71 L80.978,19.71 L80.978,20.634 L77.464,20.634 L77.464,21.824 L80.516,21.824 L80.516,25.394 L77.464,25.394 L77.464,29.678 L76.526,29.678 L76.526,25.8 C75.812,27.046 74.706,28.11 73.208,28.992 L72.578,28.194 C74.118,27.41 75.21,26.472 75.868,25.394 L73.474,25.394 L73.474,21.824 L76.526,21.824 L76.526,20.634 L72.956,20.634 L72.956,19.71 Z M79.592,24.498 L79.592,22.706 L77.464,22.706 L77.464,24.498 L79.592,24.498 Z M76.526,24.498 L76.526,22.706 L74.412,22.706 L74.412,24.498 L76.526,24.498 Z M78.57,25.814 C79.564,26.612 80.404,27.41 81.09,28.222 L80.418,28.894 C79.802,28.11 78.976,27.298 77.912,26.43 L78.57,25.814 Z M69.764,18.786 C70.73,19.514 71.542,20.242 72.2,20.97 L71.486,21.67 C70.898,20.97 70.1,20.228 69.078,19.444 L69.764,18.786 Z M77.926,31.148 C77.156,31.148 76.316,31.134 75.42,31.12 C74.524,31.106 73.782,31.022 73.222,30.868 C72.662,30.7 72.172,30.35 71.738,29.846 C71.542,29.608 71.36,29.496 71.192,29.496 C70.856,29.496 70.31,30.14 69.554,31.428 L68.798,30.742 C69.526,29.566 70.184,28.852 70.744,28.6 L70.744,24.344 L68.756,24.344 L68.756,23.42 L71.682,23.42 L71.682,28.656 C71.794,28.74 71.906,28.838 72.032,28.978 C72.368,29.384 72.732,29.678 73.124,29.86 C73.558,30.056 74.188,30.168 75.028,30.196 C75.77,30.21 76.694,30.224 77.786,30.224 C78.458,30.224 79.13,30.21 79.816,30.196 C80.502,30.182 81.034,30.168 81.398,30.14 L81.146,31.148 L77.926,31.148 Z M88.636,18.604 L89.364,18.604 C91.128,20.452 93.158,21.894 95.454,22.958 L94.95,23.854 C92.626,22.734 90.652,21.292 89,19.514 C87.474,21.208 85.472,22.678 82.994,23.924 L82.504,23.042 C84.968,21.852 87.012,20.368 88.636,18.604 Z M85.094,23.028 L92.906,23.028 L92.906,23.994 L89.518,23.994 L89.518,26.43 L93.564,26.43 L93.564,27.396 L89.518,27.396 L89.518,29.986 L94.838,29.986 L94.838,30.98 L83.176,30.98 L83.176,29.986 L88.482,29.986 L88.482,27.396 L84.422,27.396 L84.422,26.43 L88.482,26.43 L88.482,23.994 L85.094,23.994 L85.094,23.028 Z M101.362,20.984 L104.54,20.984 L104.54,18.59 L105.52,18.59 L105.52,20.984 L107.9,20.984 C107.452,20.452 106.892,19.906 106.192,19.332 L106.78,18.772 C107.48,19.318 108.082,19.864 108.558,20.41 L107.998,20.984 L108.838,20.984 L108.838,21.964 L105.52,21.964 L105.52,23.308 C105.73,23.98 105.982,24.624 106.262,25.24 C106.906,24.554 107.48,23.784 107.998,22.93 L108.754,23.49 C108.082,24.526 107.396,25.394 106.71,26.094 C107.41,27.382 108.306,28.516 109.398,29.482 L108.74,30.266 C107.368,28.95 106.29,27.354 105.52,25.492 L105.52,30.112 C105.52,30.882 105.114,31.274 104.33,31.274 L102.79,31.274 L102.594,30.322 C103.07,30.364 103.546,30.392 103.994,30.392 C104.358,30.392 104.54,30.21 104.54,29.874 L104.54,26.374 C103.616,27.732 102.538,28.866 101.32,29.79 L100.802,28.922 C102.216,27.97 103.462,26.654 104.54,25.002 L104.54,21.964 L101.362,21.964 L101.362,20.984 Z M102.174,23.07 C102.818,23.98 103.308,24.778 103.658,25.45 L102.958,25.94 C102.566,25.226 102.048,24.428 101.39,23.56 L102.174,23.07 Z M96.882,23.728 L98.464,23.728 L98.464,20.452 L96.714,20.452 L96.714,19.514 L101.152,19.514 L101.152,20.452 L99.5,20.452 L99.5,23.728 L100.872,23.728 L100.872,24.68 L99.5,24.68 L99.5,27.536 C100.074,27.298 100.634,27.046 101.166,26.766 L101.166,27.746 C99.808,28.446 98.338,29.02 96.77,29.496 L96.504,28.488 C97.176,28.334 97.82,28.152 98.464,27.928 L98.464,24.68 L96.882,24.68 L96.882,23.728 Z M111.792,18.786 C112.73,19.514 113.528,20.228 114.172,20.956 L113.444,21.67 C112.884,20.984 112.1,20.242 111.106,19.444 L111.792,18.786 Z M119.926,31.148 C119.17,31.148 118.344,31.134 117.462,31.12 C116.566,31.106 115.852,31.022 115.292,30.868 C114.746,30.7 114.256,30.35 113.822,29.846 C113.64,29.608 113.458,29.496 113.29,29.496 C112.954,29.496 112.408,30.14 111.638,31.428 L110.882,30.742 C111.624,29.566 112.282,28.852 112.856,28.6 L112.856,24.344 L110.854,24.344 L110.854,23.42 L113.794,23.42 L113.794,28.656 C113.906,28.74 114.018,28.852 114.13,28.978 C114.466,29.384 114.816,29.678 115.208,29.86 C115.628,30.056 116.258,30.168 117.07,30.196 C117.798,30.21 118.708,30.224 119.786,30.224 C120.444,30.224 121.116,30.21 121.802,30.196 C122.474,30.182 123.006,30.168 123.37,30.14 L123.132,31.148 L119.926,31.148 Z M114.76,20.004 L117.014,20.004 C117.21,19.514 117.406,18.996 117.574,18.464 L118.54,18.688 C118.386,19.15 118.232,19.584 118.064,20.004 L122.978,20.004 L122.978,20.942 L117.672,20.942 C117.252,21.88 116.776,22.72 116.272,23.448 L118.526,23.448 L118.526,21.782 L119.492,21.782 L119.492,23.448 L122.544,23.448 L122.544,24.372 L119.492,24.372 L119.492,26.038 L123.16,26.038 L123.16,26.99 L119.492,26.99 L119.492,29.594 L118.526,29.594 L118.526,26.99 L114.648,26.99 L114.648,26.038 L118.526,26.038 L118.526,24.372 L115.292,24.372 L115.068,23.448 C115.628,22.776 116.146,21.936 116.608,20.942 L114.76,20.942 L114.76,20.004 Z M125.764,18.786 C126.73,19.514 127.542,20.242 128.2,20.97 L127.486,21.67 C126.898,20.97 126.1,20.228 125.078,19.444 L125.764,18.786 Z M133.954,31.148 C133.184,31.148 132.344,31.134 131.448,31.12 C130.538,31.106 129.796,31.022 129.236,30.868 C128.676,30.7 128.172,30.35 127.738,29.846 C127.542,29.608 127.36,29.496 127.192,29.496 C126.856,29.496 126.296,30.14 125.526,31.428 L124.77,30.742 C125.512,29.566 126.17,28.852 126.744,28.6 L126.744,24.344 L124.756,24.344 L124.756,23.42 L127.682,23.42 L127.682,28.656 C127.794,28.74 127.906,28.838 128.032,28.978 C128.368,29.384 128.732,29.678 129.124,29.86 C129.572,30.056 130.202,30.168 131.042,30.196 C131.784,30.21 132.708,30.224 133.814,30.224 C134.458,30.224 135.13,30.21 135.816,30.196 C136.488,30.182 137.006,30.168 137.37,30.14 L137.132,31.148 L133.954,31.148 Z M131.448,20.13 C132.036,20.48 132.582,20.83 133.058,21.18 C133.786,20.802 134.458,20.382 135.074,19.906 L128.858,19.906 L128.858,19.052 L136.432,19.052 L136.432,19.78 C135.592,20.508 134.682,21.138 133.702,21.67 L133.926,21.852 L136.698,21.852 L136.698,28.11 C136.698,28.824 136.306,29.188 135.522,29.188 L134.36,29.188 L134.136,28.334 L135.242,28.376 C135.578,28.376 135.746,28.208 135.746,27.9 L135.746,26.85 L133.394,26.85 L133.394,29.258 L132.456,29.258 L132.456,26.85 L130.118,26.85 L130.118,29.3 L129.166,29.3 L129.166,21.852 L132.666,21.852 C132.134,21.474 131.518,21.096 130.832,20.732 L131.448,20.13 Z M130.118,24.792 L130.118,26.024 L132.456,26.024 L132.456,24.792 L130.118,24.792 Z M133.394,24.792 L133.394,26.024 L135.746,26.024 L135.746,24.792 L133.394,24.792 Z M135.746,23.952 L135.746,22.692 L133.394,22.692 L133.394,23.952 L135.746,23.952 Z M132.456,23.952 L132.456,22.692 L130.118,22.692 L130.118,23.952 L132.456,23.952 Z M144.594,28.222 C144.146,27.508 143.698,26.836 143.264,26.206 C142.76,27.578 142.144,28.754 141.43,29.734 L140.786,28.95 C141.514,27.914 142.116,26.682 142.592,25.268 C141.92,24.372 141.262,23.56 140.618,22.818 L141.248,22.216 C141.766,22.762 142.326,23.42 142.914,24.204 C143.18,23.224 143.404,22.16 143.572,21.04 L144.496,21.208 C144.272,22.65 143.978,23.966 143.614,25.156 C144.146,25.884 144.706,26.682 145.266,27.55 L144.594,28.222 Z M148.696,28.866 C148.22,28.04 147.744,27.27 147.282,26.542 C146.722,27.914 146.064,29.09 145.308,30.07 L144.664,29.3 C145.448,28.236 146.106,26.99 146.624,25.562 C145.98,24.61 145.35,23.742 144.706,22.958 L145.336,22.356 C145.84,22.93 146.4,23.63 146.988,24.47 C147.296,23.42 147.534,22.286 147.73,21.082 L148.682,21.25 C148.43,22.804 148.094,24.204 147.674,25.464 C148.206,26.276 148.78,27.186 149.382,28.194 L148.696,28.866 Z M149.34,31.316 L147.926,31.316 L147.66,30.336 L149.004,30.378 C149.396,30.378 149.592,30.182 149.592,29.804 L149.592,20.102 L140.408,20.102 L140.408,31.372 L139.414,31.372 L139.414,19.136 L150.586,19.136 L150.586,30.028 C150.586,30.882 150.166,31.316 149.34,31.316 Z M157.642,28.614 L157.642,29.566 C156.27,30.098 154.716,30.518 152.952,30.854 L152.826,29.86 C154.66,29.552 156.27,29.132 157.642,28.614 Z M155.136,18.534 L156.074,18.898 C155.374,20.704 154.674,22.146 153.974,23.21 C154.576,23.126 155.178,23.028 155.794,22.916 C156.032,22.44 156.284,21.936 156.536,21.418 L157.404,21.74 C156.2,24.106 155.206,25.786 154.422,26.794 C155.402,26.584 156.382,26.304 157.376,25.94 L157.376,26.85 C155.934,27.354 154.562,27.704 153.246,27.886 L152.98,26.976 C153.162,26.892 153.316,26.794 153.428,26.682 C153.932,26.122 154.562,25.184 155.304,23.84 C154.548,23.98 153.792,24.106 153.022,24.218 L152.77,23.294 C152.924,23.224 153.064,23.098 153.19,22.916 C153.932,21.642 154.576,20.186 155.136,18.534 Z M164.236,26.15 L164.236,31.316 L163.27,31.316 L163.27,30.714 L159.448,30.714 L159.448,31.316 L158.482,31.316 L158.482,26.15 L164.236,26.15 Z M159.448,29.79 L163.27,29.79 L163.27,27.074 L159.448,27.074 L159.448,29.79 Z M159.868,18.534 L160.834,18.716 C160.722,19.108 160.582,19.472 160.442,19.822 L164.236,19.822 L164.236,20.55 C163.718,21.712 162.976,22.734 162.01,23.616 C162.99,24.33 164.18,24.89 165.552,25.282 L164.978,26.108 C163.508,25.66 162.276,25.044 161.268,24.232 C160.26,24.988 159.056,25.646 157.684,26.178 L157.068,25.366 C158.412,24.862 159.574,24.274 160.54,23.574 C160.008,23.042 159.56,22.454 159.182,21.838 C158.804,22.286 158.384,22.706 157.922,23.084 L157.334,22.3 C158.58,21.278 159.42,20.018 159.868,18.534 Z M159.728,21.124 C160.148,21.824 160.652,22.454 161.254,23 C162.052,22.314 162.682,21.558 163.144,20.718 L159.98,20.718 C159.896,20.858 159.812,20.998 159.728,21.124 Z" id="极速全球连通网络" fill="#444444" fill-rule="nonzero"></path>
                        <g id="Group-19" transform="translate(20.000000, 13.000000)" stroke="#00A4FF" stroke-width="2">
                            <circle id="Oval" cx="12" cy="12" r="12"></circle>
                            <polyline id="Path" points="12.3185754 0 7.85659259 6.35525133 7 11.185209 12.0711432 12.2501037 12.6417293 18 18.5544321 7.57835488 24 8.4342867"></polyline>
                        </g>
                    </g>
                    <g id="分组-30" transform="translate(436.000000, 92.000000)" fill="#878787">
                        <polygon id="XMLID_22_" points="72 9 77 4.5 72 0"></polygon>
                        <rect id="XMLID_10_" x="0" y="4" width="72" height="1"></rect>
                    </g>
                    <g id="分组-13-copy" transform="translate(513.000000, 71.000000)">
                        <g id="XMLID_110_">
                            <use fill="black" fill-opacity="1" filter="url(#filter-12)" xlink:href="#path-11"></use>
                            <use fill="#FFFFFF" fill-rule="evenodd" xlink:href="#path-11"></use>
                        </g>
                        <g id="用户下载" fill-rule="nonzero">
                            <use fill="#000000" xlink:href="#path-13"></use>
                            <use fill="#444444" xlink:href="#path-13"></use>
                        </g>
                        <g id="Group-18" transform="translate(33.000000, 15.000000)" stroke="#00A4FF" stroke-width="2">
                            <rect id="Rectangle" x="2.30021868" y="0" width="20" height="14" rx="2"></rect>
                            <path d="M2.30021868,14 L22.2226947,14 L25.2386512,18.4379234 C25.5490776,18.8947099 25.4304292,19.5166588 24.9736426,19.8270852 C24.8078494,19.9397562 24.6120209,20 24.411566,20 L0.11134736,20 C-0.44093739,20 -0.88865264,19.5522847 -0.88865264,19 C-0.88865264,18.7995451 -0.828408831,18.6037167 -0.715737818,18.4379234 L2.30021868,14 Z" id="Rectangle"></path>
                            <polyline id="Path-5" points="7.30021868 4 10.3002187 6.94014191 7.30021868 10"></polyline>
                            <path d="M12.8002187,10 L16.6985068,10" id="Line-4"></path>
                        </g>
                    </g>
                    <g id="分组" transform="translate(138.000000, 26.000000)">
                        <polygon id="Fill-3" fill="#878787" points="97 74 102 69.5 97 65"></polygon>
                        <path d="M97.5,69.4998 L0.510276062,69.4998" id="Stroke-5" stroke="#878787"></path>
                        <path d="M32,0.5 L0.510276062,0.5" id="Stroke-6" stroke="#878787"></path>
                        <polyline id="Stroke-7" stroke="#878787" points="0.510276062 139.5 31.4962236 139.397236 31.5102761 0.0617385336"></polyline>
                    </g>
                </g>
            </g>
        </g>
    </g>
</svg>