<?xml version="1.0" encoding="utf-8"?>
<!-- Generator: Adobe Illustrator 22.0.0, SVG Export Plug-In . SVG Version: 6.00 Build 0)  -->
<svg version="1.1" id="图层_1" xmlns="http://www.w3.org/2000/svg" xmlns:xlink="http://www.w3.org/1999/xlink" x="0px" y="0px"
	 width="48px" height="48px" viewBox="0 0 48 48" style="enable-background:new 0 0 48 48;" xml:space="preserve">
<path style="fill:#00A4FF;" d="M42,10v15c0,0.1-0.3,14.6-18,18.9C6.5,39.7,6,25.6,6,25.1V4h38V2H4v23.1c0,0,0.2,16.4,20,20.9
	c19.8-4.6,20-20.9,20-20.9V10H42z"/>
<rect x="24" y="20" transform="matrix(-1.836970e-16 1 -1 -1.836970e-16 54 4)" style="fill-rule:evenodd;clip-rule:evenodd;fill:#00A4FF;" width="2" height="18"/>
<rect x="14" y="10" style="fill-rule:evenodd;clip-rule:evenodd;fill:#00A4FF;" width="2" height="20"/>
<polygon style="fill-rule:evenodd;clip-rule:evenodd;fill:#00A4FF;" points="32,20.3 32,30 34,30 34,18.3 "/>
<g>
	
		<rect x="27.6" y="10.6" transform="matrix(0.7071 0.7071 -0.7071 0.7071 21.5563 -14.7696)" style="fill-rule:evenodd;clip-rule:evenodd;fill:#00A4FF;" width="2" height="16"/>
	
		<rect x="20.5" y="17.5" transform="matrix(-0.7071 0.7071 -0.7071 -0.7071 51.9411 21.4142)" style="fill-rule:evenodd;clip-rule:evenodd;fill:#00A4FF;" width="2" height="8"/>
</g>
<polygon style="fill-rule:evenodd;clip-rule:evenodd;fill:#00A4FF;" points="32.3,10 14,10 14,12 30.3,12 "/>
</svg>
