<?xml version="1.0" encoding="UTF-8"?>
<svg width="16px" height="16px" viewBox="0 0 16 16" version="1.1" xmlns="http://www.w3.org/2000/svg" xmlns:xlink="http://www.w3.org/1999/xlink">
    <!-- Generator: Sketch 52.6 (67491) - http://www.bohemiancoding.com/sketch -->
    <title>专家服务</title>
    <desc>Created with Sketch.</desc>
    <g id="专家服务" stroke="none" stroke-width="1" fill="none" fill-rule="evenodd">
        <rect id="Rectangle" fill-rule="nonzero" x="0" y="0" width="16" height="16"></rect>
        <path d="M9,7 L12,7 L12,9 L9,9 L9,12 L7,12 L7,9 L4,9 L4,7 L7,7 L7,4 L9,4 L9,7 Z M8,13.934 C3.268,12.589 3.013,8.803 3,8.4 L3,3 L13,3 L13,8.362 C12.987,8.802 12.732,12.589 8,13.934 Z M1,1 L1,8.4 C1,8.4 1.054,14.359 8,16 C14.946,14.359 15,8.4 15,8.4 L15,1 L1,1 Z" id="Fill-1" fill="#00A4FF"></path>
    </g>
</svg>