<?xml version="1.0" encoding="UTF-8"?>
<svg width="48px" height="48px" viewBox="0 0 48 48" version="1.1" xmlns="http://www.w3.org/2000/svg" xmlns:xlink="http://www.w3.org/1999/xlink">
    <!-- Generator: Sketch 52.6 (67491) - http://www.bohemiancoding.com/sketch -->
    <title>iPhone 8 Plus Copy 5</title>
    <desc>Created with Sketch.</desc>
    <g id="iPhone-8-Plus-Copy-5" stroke="none" stroke-width="1" fill="none" fill-rule="evenodd">
        <path d="M24,46.1319523 C11.8956522,46.1319523 1.9826087,36.2189088 1.9826087,24.114561 C1.9826087,12.0102131 11.8956522,2.09716965 24,2.09716965 C35.0608696,2.09716965 44.2434783,10.3406479 45.7043478,20.9841262 L47.7913043,20.9841262 C46.226087,9.19282183 36.2086957,0.114560957 24,0.114560957 C10.7478261,0.114560957 0,10.862387 0,24.114561 C0,37.3667349 10.7478261,48.114561 24,48.114561 C36.2086957,48.114561 46.226087,39.0363001 47.7913043,27.2449957 L45.7043478,27.2449957 C44.2434783,37.888474 35.0608696,46.1319523 24,46.1319523 Z" id="Path-Copy-16" fill="#7C848E"></path>
        <path d="M33.1276512,33.3422436 C30.7782809,35.6452631 27.5601547,37.0653153 24.0103576,37.0653153 C20.5510344,37.0653153 17.4066909,35.7167266 15.0743838,33.5166057 L16.7735253,32.3579236 C18.7100026,34.0441986 21.2409328,35.0653153 24.0103576,35.0653153 C26.8661465,35.0653153 29.468334,33.9795188 31.4266111,32.198235 L33.1276512,33.3422436 Z M36.3339513,28.2678998 L34.6039922,27.1044421 C34.8848708,26.1316412 35.035382,25.1035429 35.035382,24.0402909 C35.035382,18.9975331 31.6498069,14.7455186 27.0276482,13.4332391 L27.0276482,11.3665256 C32.7662811,12.7276329 37.035382,17.8854109 37.035382,24.0402909 C37.035382,25.5201021 36.788602,26.9422748 36.3339513,28.2678998 Z M11.7713142,28.5067668 C11.2627884,27.1136679 10.9853332,25.609381 10.9853332,24.0402909 C10.9853332,17.8730541 15.2715929,12.7069269 21.0276482,11.3583736 L21.0276482,13.4234825 C16.3878044,14.7243297 12.9853332,18.9849655 12.9853332,24.0402909 C12.9853332,25.1886683 13.1609093,26.2960377 13.486682,27.3370195 L11.7713142,28.5067668 Z" id="Combined-Shape" fill="#7B848E" fill-rule="nonzero"></path>
        <path d="M24.0276482,11.9855442 L24.0276482,19.229247" id="Path-11" stroke="#7B848E" stroke-width="2" fill-rule="nonzero"></path>
        <path d="M18.4641286,24.1887135 L17.0112477,31.972722" id="Path-11-Copy-5" stroke="#7B848E" stroke-width="2" fill-rule="nonzero" transform="translate(17.737688, 28.080718) rotate(-315.000000) translate(-17.737688, -28.080718) "></path>
        <path d="M31.3438101,24.1887135 L29.8909292,31.972722" id="Path-11-Copy-6" stroke="#7B848E" stroke-width="2" fill-rule="nonzero" transform="translate(30.617370, 28.080718) scale(-1, 1) rotate(-315.000000) translate(-30.617370, -28.080718) "></path>
        <circle id="Oval" fill="#7B848E" fill-rule="nonzero" cx="14.3237934" cy="30.4134912" r="1.5"></circle>
        <circle id="Oval-Copy-3" fill="#7B848E" fill-rule="nonzero" cx="24.0276482" cy="12.5152665" r="1.5"></circle>
        <circle id="Oval-Copy-2" fill="#7B848E" fill-rule="nonzero" cx="33.8831032" cy="30.4134912" r="1.5"></circle>
        <circle id="Oval-Copy" stroke="#7B848E" stroke-width="2" fill-rule="nonzero" cx="24.095688" cy="23.6292663" r="4.02777778"></circle>
    </g>
</svg>