<svg id="svgwrapper_svg" data-name="svgwrapper svg" xmlns="http://www.w3.org/2000/svg" viewBox="0 0 830 373.4"><defs><style>.cls-1,.cls-3,.cls-5{fill:none;}.cls-1{stroke:#bababa;stroke-dasharray:5;}.cls-2{fill:#cee3ff;}.cls-3{stroke:#888;}.cls-4{fill:#888;}.cls-5{stroke:red;stroke-opacity:0;stroke-width:15px;}.cls-6{fill:#bbb;opacity:0.6;isolation:isolate;}.cls-11,.cls-7{fill:#fff;}.cls-7{stroke:#e5e5e5;}.cls-8{fill:#00a4ff;}.cls-9{fill:#444;}.cls-10{fill:#878787;}.cls-12{fill:#e5e5e5;}</style></defs><title>云API场景图_1-01</title><g id="DashRectGroup5"><path class="cls-1" d="M264.7.5H752.3V372.9H264.7V.5"/></g><g id="BlueRectGroup17"><rect class="cls-2" x="523.6" y="15.1" width="195.5" height="343.2"/></g><g id="Link30"><path class="cls-3" d="M282.2,173.4H208.7"/><polygon class="cls-4" points="277.7 177.9 283.7 173.4 277.7 168.9 277.7 177.9"/><path class="cls-5" d="M282.2,173.4H208.7"/></g><path class="cls-3" d="M506,173.4H434"/><polygon class="cls-4" points="506 177.9 512 173.4 506 168.9 506 177.9"/><g id="ShadowBasicRect21"><rect class="cls-6" x="548.3" y="186.7" width="148" height="50"/><rect class="cls-7" x="546.3" y="184.7" width="148" height="50"/><g id="_编组_" data-name=" 编组 "><g id="_编组_2" data-name=" 编组 2"><path id="_复合路径_" data-name=" 复合路径 " class="cls-8" d="M575.3,205.7v8l7,4,7-4v-8l-7-4Zm6,9.1-4-2.3v-3.7l4,2.3Zm6-2.3-4,2.3v-3.7l4-2.3Zm-5-3.1-4.7-2.7,4.7-2.7,4.7,2.7Zm12,7.1-12,6.9-12-6.9V202.8l12-6.9,12,6.9h0l2-1.2-14-8-14,8v16l14,8,14-8v-12l-2,1.1Z"/></g></g><path class="cls-9" d="M616.5,205.4a3.59,3.59,0,0,1,1.3,2.4h-1.5a2.38,2.38,0,0,0-1-1.5,3.45,3.45,0,0,0-1.8-.5,2.78,2.78,0,0,0-2.4,1.1,5.3,5.3,0,0,0,0,5.6,3,3,0,0,0,2.5,1.1,3.45,3.45,0,0,0,1.8-.5,2.69,2.69,0,0,0,1-1.8h1.5a3.78,3.78,0,0,1-1.6,2.7,4.47,4.47,0,0,1-2.8.9,4.32,4.32,0,0,1-3.7-1.6,6.44,6.44,0,0,1,0-7.2,4.13,4.13,0,0,1,3.6-1.6A4.59,4.59,0,0,1,616.5,205.4Z"/><path class="cls-9" d="M623.2,204.7a4.62,4.62,0,0,1,3.7,1.4,5.05,5.05,0,0,1,1.2,3.6,5.31,5.31,0,0,1-1.2,3.7,4.78,4.78,0,0,1-3.7,1.3h-3.6v-10Zm-2.2,8.7h1.8a3.72,3.72,0,1,0,0-7.4H621Z"/><path class="cls-9" d="M631.1,204.7l5.1,7.4h.1v-7.4h1.5v10h-1.5l-5.2-7.5H631v7.5h-1.5v-10Z"/></g><g id="RectEndPoint10"><rect class="cls-6" x="547.7" y="262.2" width="148.8" height="60"/><rect class="cls-7" x="545.7" y="260.2" width="148.8" height="60"/><path class="cls-9" d="M617.3,272.5a1,1,0,1,1-.7-.3A1.08,1.08,0,0,1,617.3,272.5Zm4.6,0a1,1,0,1,1-.7-.3.78.78,0,0,1,.7.3Zm4.7,0a1,1,0,1,1-.7-.3A.91.91,0,0,1,626.6,272.5Z"/><path class="cls-9" d="M585.9,280v1.2h-5.4v1h4.3V288h-4.5a7.71,7.71,0,0,1-.7,2,17.58,17.58,0,0,0,6.8,1.2l-.3,1.3a18.24,18.24,0,0,1-7.3-1.6,10,10,0,0,1-4.8,1.6l-.6-1.2a8,8,0,0,0,4-1,15.34,15.34,0,0,1-2.1-1.4l1-.7a8.18,8.18,0,0,0,2,1.2,3.51,3.51,0,0,0,.6-1.4h-4v-5.8h4.2v-1h-5.4V280Zm-6.7,4.5v-1.2h-3v1.2Zm0,1.4v-.3h-3v1.2h2.9A2.77,2.77,0,0,0,579.2,285.9Zm4.3-.3h-3v1.2h3Zm-3-1.1h3v-1.2h-3Z"/><path class="cls-9" d="M594.8,280l-.6.6h3.7v1c-1.5,2.7-4.3,4.2-8.4,4.6l-.6-1.2a15.33,15.33,0,0,0,3.2-.5,15.37,15.37,0,0,0-1.2-1.3l1.1-.5a8.63,8.63,0,0,1,1.3,1.4,7.23,7.23,0,0,0,3.1-2.3h-3.8a14.25,14.25,0,0,1-3.8,1.4L588,282a9.19,9.19,0,0,0,5.5-2.6Zm0,9.8a7.64,7.64,0,0,0,3.3-2.5h-3.8a15.59,15.59,0,0,1-4.3,1.3l-.8-1.2c3.1-.3,5.3-1.2,6.7-2.7l1.1.6a5,5,0,0,1-.8.7h3.6v1c-2,3.3-5.7,5-11.2,5.1l-.5-1.3a18.37,18.37,0,0,0,5.5-.7,10,10,0,0,0-1.3-1.5l1.2-.6C593.9,288.7,594.4,289.2,594.8,289.8Z"/><path class="cls-9" d="M601.9,292.3l-.3-1.3c.4,0,.7.1,1.1.1a.47.47,0,0,0,.5-.44.48.48,0,0,0,0-.06v-3a7.49,7.49,0,0,1-1.6.5l-.3-1.3a13.32,13.32,0,0,0,1.9-.5v-2.9h-1.6v-1.3h1.6v-2.5h1.3v2.5h1.1v1.3h-1.1v2.3a5.36,5.36,0,0,1,1.1-.5v1.3a5.36,5.36,0,0,1-1.1.5v3.9a1.27,1.27,0,0,1-1.13,1.4H601.9Zm8-6.8c-.1.3-.3.6-.4.9h4.6v1.3h-1.5a5.45,5.45,0,0,1-1.2,2.4,19.65,19.65,0,0,1,2.5,1.3l-.7,1.1a23.68,23.68,0,0,0-2.8-1.5,13.87,13.87,0,0,1-4.3,1.6l-.5-1.2a14.06,14.06,0,0,0,3.4-1c-.8-.3-1.7-.7-2.6-1.1a8.46,8.46,0,0,0,.9-1.5h-1.7v-1.3h2.3a4.88,4.88,0,0,0,.4-1.1Zm-.6-1.7h1.2c.3-.6.6-1.3.9-2h-5v-1.2h2.9a3.13,3.13,0,0,0-.5-1l1.4-.2c.1.4.3.8.4,1.3h3.1v1.2h-1.8l.8.3a8.87,8.87,0,0,1-.8,1.7H614v1.3h-7.9v-1.3h2c-.3-.5-.5-1-.8-1.5l1.1-.5a17.15,17.15,0,0,1,.9,1.9Zm-.4,3.9c-.2.3-.4.7-.6,1,.7.3,1.4.5,2.1.8a4.18,4.18,0,0,0,1.1-1.8Z"/><path class="cls-9" d="M618.8,280.2l1.1-.7c1.2.8,2.2,2.4,3.1,4.7a14.5,14.5,0,0,0,5.2,7l-.8,1.1c-2.2-1.3-4-3.8-5.5-7.6,0-.1-.1-.2-.1-.3a13.53,13.53,0,0,1-5.7,7.9l-.8-1.1a14,14,0,0,0,5.8-8.3A7.81,7.81,0,0,0,618.8,280.2Z"/><path class="cls-9" d="M642.2,284.1v1.3h-6.6a28.56,28.56,0,0,1-3.2,5.2c2.3-.1,4.6-.4,6.9-.7a23.58,23.58,0,0,0-1.5-2.5l1.1-.7a43.54,43.54,0,0,1,3,4.9l-1.2.8a6.11,6.11,0,0,0-.7-1.4c-2.8.4-5.9.7-9.2.9l-.3-1.4a1,1,0,0,0,.3-.1c.9-.6,2-2.4,3.4-5.1h-4.5V284h12.5Zm-1.3-3.9v1.3H630.8v-1.3Z"/><path class="cls-9" d="M653.1,281l3.9,10h-1.6l-.9-2.6h-4.3l-.9,2.6h-1.6l3.9-10Zm.8,6.1-1.7-4.5h0l-1.7,4.5Z"/><path class="cls-9" d="M662,281q3.6,0,3.6,3c0,2-1.2,3.1-3.6,3.1h-2.6V291h-1.5V281Zm-2.6,4.8h2.5a2.67,2.67,0,0,0,1.7-.4,1.73,1.73,0,0,0,.5-1.3,1.58,1.58,0,0,0-.5-1.3,2.54,2.54,0,0,0-1.6-.4h-2.5v3.4Z"/><path class="cls-9" d="M668.6,281v10h-1.5V281Z"/><path class="cls-9" d="M599.2,298.1a10.91,10.91,0,0,0-.6-1.1l1.1-.4a6.89,6.89,0,0,1,.7,1.5h.5a10.62,10.62,0,0,0,.4-1.9l1.3.2a8.47,8.47,0,0,1-.4,1.7h.9a11.11,11.11,0,0,0,.7-1.6l1.2.4-.6,1.2h1v1.1h-3.5a3.55,3.55,0,0,1-.4.9h4.2v1.1h-2a5.15,5.15,0,0,0,2.3,1.3l-.6,1.2a6.38,6.38,0,0,1-1.4-.8q-.15,1.05-.3,1.8h1.5c-.1,2.4-.2,3.7-.5,4s-.9.4-1.9.4h-.6l-.3-1.1h1a2,2,0,0,0,.9-.2,7.32,7.32,0,0,0,.3-2.1h-5.2a10.41,10.41,0,0,0,.6-2.2l1.2.1c-.1.4-.2.7-.3,1h2.2c.1-.4.2-.9.3-1.4h-3.5v-.4l-1.2.9-.6-.9v5a1.16,1.16,0,0,1-1.3,1.3h-.9l-.3-1.2c.3,0,.6.1.8.1s.4-.2.4-.6v-2.8H595a14.42,14.42,0,0,1-.9,4.6l-1-.9a14.84,14.84,0,0,0,.7-4.6v-6.9h3.8v6a6.55,6.55,0,0,0,1.8-1.5h-1.5v-1.1h2.2a3.55,3.55,0,0,0,.4-.9h-2.2v-1.1h.9Zm-2.9-.1H595v2.1h1.3Zm-1.3,5.4h1.3v-2H595Zm8.1,3v1.1H598v-1.1Zm.2-4.1a4.81,4.81,0,0,1-.9-1.1h-1.6c-.3.4-.5.7-.8,1.1Z"/><path class="cls-9" d="M610.2,300.5v5.9a6.79,6.79,0,0,0,1.2-1.2l.4,1.4a18.57,18.57,0,0,1-2.7,2.2l-.5-1.2a1.23,1.23,0,0,0,.4-.8v-5.1h-1.8v-1.3h3Zm.9-2-.9.9a11.16,11.16,0,0,0-2.2-2.1l.9-.9a22.33,22.33,0,0,1,2.2,2.1Zm2.1,3.2v-3.5h-1.7v-1.3h6.6v4.4a21.4,21.4,0,0,0,.5,5.5c.1.4.3.7.4.7a1.45,1.45,0,0,0,.1-.6c0-.4.1-.9.1-1.4l1,.5a8.54,8.54,0,0,1-.4,2.6.51.51,0,0,1-.5.4,1.68,1.68,0,0,1-1.5-1c-.7-1.1-1-3.4-1-6.8V298h-2.3v3.5h1.8v1.3h-1.8v6.3h-1.3v-6.3h-2v-1.3h2Z"/><path class="cls-9" d="M633.8,300.9v1.3h-6.6a28.56,28.56,0,0,1-3.2,5.2c2.3-.1,4.6-.4,6.9-.7a23.58,23.58,0,0,0-1.5-2.5l1.1-.7a43.54,43.54,0,0,1,3,4.9l-1.2.8a6.11,6.11,0,0,0-.7-1.4c-2.8.4-5.9.7-9.2.9l-.3-1.4a1,1,0,0,0,.3-.1c.9-.6,2-2.4,3.4-5.1h-4.5v-1.3h12.5Zm-1.2-3.9v1.3H622.5V297Z"/><path class="cls-9" d="M642.3,297.6h4.9v1.3h-2.4a6.36,6.36,0,0,1-.6,1.8h3.2V302h-9.9v1.9a9.25,9.25,0,0,1-1.5,5.3l-1-.9a7.92,7.92,0,0,0,1.2-4.4v-3.2H639l-.5-1.8H636v-1.3h4.9c-.2-.5-.4-.9-.6-1.3l1.4-.2A9.39,9.39,0,0,1,642.3,297.6Zm.7,3.1a12.65,12.65,0,0,0,.6-1.8h-3.7l.5,1.8Z"/><path class="cls-9" d="M654.8,309h-1.3v-.7h-2.6v.7h-1.3v-6.3h5.2V309Zm-1.3-1.9V304h-2.6v3.1Zm6-10.3v4.9h-8v-4.9Zm-1.3,1.2h-5.3v2.4h5.3Zm3.2,11h-1.2v-.7h-2.7v.7h-1.3v-6.3h5.3V309Zm-1.4-1.9V304h-2.7v3.1Z"/><path class="cls-9" d="M584.7,308.4h-1.3v-.7h-2.2v1.1h-1.3V298.6h1.3a19.49,19.49,0,0,0,.6-2.3l1.3.2a7.94,7.94,0,0,1-.6,2.2h2.2Zm-1.3-6v-2.6h-2.2v2.6Zm0,4v-2.8h-2.2v2.8Zm8.3,1.2c-.1,1-.8,1.5-2,1.5a9.89,9.89,0,0,1-1.5-.1l-.3-1.2c.6,0,1.1.1,1.6.1a.92.92,0,0,0,1-.84s0,0,0-.06c.1-.7.1-3.1.2-7h-3.5a10.89,10.89,0,0,1-1.4,2.3l-.8-1.1a12,12,0,0,0,1.9-4.9l1.3.2a7.94,7.94,0,0,1-.6,2.2h4.3A63.1,63.1,0,0,1,591.7,307.6Zm-2.3-2.6-1.1.7a31.32,31.32,0,0,0-2.2-3.1l1.1-.7A20.39,20.39,0,0,1,589.4,305Z"/></g><g id="RectEndPoint13"><rect class="cls-6" x="89.7" y="149.4" width="120" height="50"/><rect class="cls-7" x="87.7" y="147.4" width="120" height="50"/><path class="cls-10" d="M119.7,161.6a4,4,0,1,1-4,4,4,4,0,0,1,4-4m0-2a6,6,0,1,0,6,6A6,6,0,0,0,119.7,159.6Z"/><path class="cls-10" d="M123.7,175.6a6,6,0,0,1,6,6v1h-20v-1a6,6,0,0,1,6-6h8m0-2h-8a8,8,0,0,0-8,8v3h24v-3A8,8,0,0,0,123.7,173.6Z"/><path class="cls-10" d="M132.7,173.5h-3a9.48,9.48,0,0,1,2,2h1a4,4,0,0,1,4,4v1h-3v2h5v-3A6,6,0,0,0,132.7,173.5Z"/><path class="cls-10" d="M128.7,160.5a4.65,4.65,0,0,0-2.3.6,7.57,7.57,0,0,1,.9,1.8,3,3,0,1,1,3,5.2,3.19,3.19,0,0,1-3,0,7.57,7.57,0,0,1-.9,1.8,4.65,4.65,0,0,0,2.3.6,5,5,0,0,0,0-10Z"/><path class="cls-9" d="M151.2,178.8l-1-.9a8.07,8.07,0,0,0,1.3-4.6v-6.9h10.7V177a1.43,1.43,0,0,1-1.6,1.6H159l-.4-1.3c.5,0,1.1.1,1.5.1a.71.71,0,0,0,.7-.8v-2.1h-3.5v4H156v-4h-3.3A7.68,7.68,0,0,1,151.2,178.8Zm1.7-11.1v2.1h3.2v-2.1Zm0,5.5h3.2V171h-3.2Zm8-5.5h-3.5v2.1h3.5Zm0,3.3h-3.5v2.1h3.5Z"/><path class="cls-9" d="M165.1,178.9l-1-.9a9.8,9.8,0,0,0,1.6-5.9v-4.6h4.5a10.93,10.93,0,0,0-.8-1.5l1.4-.2c.2.5.5,1.1.7,1.7h4.4v5h-9A10.48,10.48,0,0,1,165.1,178.9Zm1.9-10.1v2.4h7.6v-2.4Z"/></g><g id="ShadowBasicRect22"><rect class="cls-6" x="548.3" y="39.7" width="148" height="50"/><rect class="cls-7" x="546.3" y="37.7" width="148" height="50"/><path class="cls-8" d="M582.3,75.7a13,13,0,1,1,12.8-15h2a15,15,0,1,0,0,4h-2A12.92,12.92,0,0,1,582.3,75.7Zm7-17-7-4-7,4v8l3.2,1.8a4.25,4.25,0,0,1,1-1.7l-2.2-1.3V61.8l5,2.9,5-2.9v3.7l-4.1,2.4a2,2,0,1,0,.9,2.7,2.92,2.92,0,0,0,.2-.9v-.1l5-2.9v-8Zm-7,3.7-4.7-2.7,4.7-2.7,4.7,2.7Z"/><path class="cls-9" d="M616.5,58.4a3.59,3.59,0,0,1,1.3,2.4h-1.5a2.38,2.38,0,0,0-1-1.5,3.45,3.45,0,0,0-1.8-.5,2.78,2.78,0,0,0-2.4,1.1,5.3,5.3,0,0,0,0,5.6,3,3,0,0,0,2.5,1.1,3.45,3.45,0,0,0,1.8-.5,2.69,2.69,0,0,0,1-1.8h1.5a3.78,3.78,0,0,1-1.6,2.7,4.47,4.47,0,0,1-2.8.9,4.32,4.32,0,0,1-3.7-1.6,6.44,6.44,0,0,1,0-7.2,4.13,4.13,0,0,1,3.6-1.6A4.59,4.59,0,0,1,616.5,58.4Z"/><path class="cls-9" d="M620.3,57.7l2.8,8.3h0l2.8-8.3h1.7l-3.6,10h-1.8l-3.6-10Z"/><path class="cls-9" d="M630.5,57.7l3.5,8h0l3.5-8h1.8v10h-1.5V60.6h-.1l-3.1,7.1h-1.3l-3.1-7.1h0v7.1h-1.5v-10Z"/></g><rect class="cls-6" x="548.9" y="115.3" width="148" height="50"/><rect class="cls-11" x="546.9" y="113.3" width="148" height="50"/><path class="cls-12" d="M695.4,163.8h-149v-51h149Zm-148-1h147v-49h-147Z"/><g id="_编组_2-2" data-name=" 编组 2-2"><g id="_编组_2-3" data-name=" 编组 2-3"><path id="_复合路径_2" data-name=" 复合路径 2" class="cls-8" d="M581.5,141.3h-.6c-5.5,0-10-1.4-10-3V132c2.2,1.4,5.8,2.3,10,2.3a20.34,20.34,0,0,0,10-2.2v4.5a11.92,11.92,0,0,1,2,.8v-8.1c0-2.8-5.4-5-12-5s-12,2.2-12,5v18h2V141c2,1.3,5.3,2.1,9.2,2.3a10.62,10.62,0,0,1,1.1-.9A2,2,0,0,1,581.5,141.3Zm-.6-15c5.5,0,10,1.3,10,3s-4.5,3-10,3-10-1.4-10-3S575.4,126.3,580.9,126.3Zm-10,21h-2c0,2.5,4.4,4.6,10.2,4.9a5.12,5.12,0,0,1-1-2.1c-4.1-.3-7.2-1.4-7.2-2.8Zm23-2.9v-.1a5,5,0,0,0-10,0v.1a4,4,0,0,0-2.8,4.9,4.18,4.18,0,0,0,3.8,3h8a4,4,0,0,0,4-4A4.3,4.3,0,0,0,593.9,144.4Zm-1,5.9h-8a2,2,0,0,1-1.9-2.09h0a2,2,0,0,1,1.4-1.9l1.5-.4v-1.8a3,3,0,1,1,6,0v1.8l1.6.4a1.94,1.94,0,0,1,1.41,2.35v.15A2.13,2.13,0,0,1,592.9,150.3Z"/></g></g><g id="ShadowBasicRect22-2"><rect class="cls-6" x="296.3" y="149.4" width="138" height="50"/><rect class="cls-7" x="294.3" y="147.4" width="138" height="50"/><path class="cls-9" d="M361.9,167.4l3.9,10h-1.6l-.9-2.6H359l-.9,2.6h-1.6l3.9-10Zm.8,6.2-1.7-4.5h-.1l-1.7,4.5Z"/><path class="cls-9" d="M370.9,167.4q3.6,0,3.6,3c0,2-1.2,3.1-3.6,3.1h-2.7v3.9h-1.5v-10Zm-2.7,4.8h2.5a2.67,2.67,0,0,0,1.7-.4,1.73,1.73,0,0,0,.5-1.3,1.58,1.58,0,0,0-.5-1.3,2.36,2.36,0,0,0-1.6-.4h-2.6Z"/><path class="cls-9" d="M377.4,167.4v10h-1.5v-10Z"/></g><path class="cls-8" d="M345.7,170.2a15,15,0,1,0-16.9,16.9v-2a13,13,0,1,1,4,0v2a15,15,0,0,0,12.91-16.83Z"/><rect class="cls-8" x="336.9" y="168.2" width="2" height="8"/><path class="cls-8" d="M326.9,168.2h-2a2,2,0,0,0-2,2v6h2v-2h2v2h2v-6A2.07,2.07,0,0,0,326.9,168.2Zm0,4h-2v-2h2Z"/><path class="cls-8" d="M335.9,172.2v-2a2,2,0,0,0-2-2h-4v8h2v-2h2A2,2,0,0,0,335.9,172.2Zm-4-2h2v2h-2Z"/><path class="cls-9" d="M616.9,134v1.3h-3.33V144h-1.51v-8.7h-3.35V134Z"/><path class="cls-9" d="M623.74,137.77a5,5,0,0,1,.87,3h-5.49a2.71,2.71,0,0,0,.57,1.62,1.8,1.8,0,0,0,1.39.56,2.07,2.07,0,0,0,1.26-.36,2.53,2.53,0,0,0,.66-.94h1.48a3.27,3.27,0,0,1-1,1.69,3.53,3.53,0,0,1-2.4.83,3.32,3.32,0,0,1-2.54-1,4.39,4.39,0,0,1-.06-5.53,3.13,3.13,0,0,1,2.54-1.11A3.18,3.18,0,0,1,623.74,137.77Zm-4,.5a2.46,2.46,0,0,0-.6,1.4H623a1.83,1.83,0,0,0-2-1.89A1.78,1.78,0,0,0,619.74,138.27Z"/><path class="cls-9" d="M632.23,139.53V144h-1.48v-4.34c0-1.23-.58-1.85-1.7-1.85a1.51,1.51,0,0,0-1.11.45,2.19,2.19,0,0,0-.6,1.39V144h-1.48v-7.24h1.48v.9a2.78,2.78,0,0,1,1-.81,2.52,2.52,0,0,1,1.22-.28C631.32,136.56,632.23,137.54,632.23,139.53Z"/><path class="cls-9" d="M639.37,137.19a3.08,3.08,0,0,1,1.06,2H639a1.67,1.67,0,0,0-.6-1.08,1.94,1.94,0,0,0-1.22-.35,1.7,1.7,0,0,0-1.44.69,3,3,0,0,0-.53,1.91,3.12,3.12,0,0,0,.52,1.92,1.67,1.67,0,0,0,1.44.69,1.69,1.69,0,0,0,1.86-1.65h1.47a3.54,3.54,0,0,1-1.11,2.17,3.43,3.43,0,0,1-2.24.7,3.19,3.19,0,0,1-2.58-1.09,4,4,0,0,1-.9-2.72,4,4,0,0,1,.88-2.69,3.22,3.22,0,0,1,2.62-1.13A3.62,3.62,0,0,1,639.37,137.19Z"/><path class="cls-9" d="M647.51,137.77a5,5,0,0,1,.87,3h-5.49a2.71,2.71,0,0,0,.57,1.62,1.8,1.8,0,0,0,1.39.56,2.07,2.07,0,0,0,1.26-.36,2.53,2.53,0,0,0,.66-.94h1.48a3.27,3.27,0,0,1-1,1.69,3.53,3.53,0,0,1-2.4.83,3.32,3.32,0,0,1-2.54-1,4.39,4.39,0,0,1-.06-5.53,3.13,3.13,0,0,1,2.54-1.11A3.18,3.18,0,0,1,647.51,137.77Zm-4,.5a2.46,2.46,0,0,0-.6,1.4h3.91a1.83,1.83,0,0,0-2-1.89A1.78,1.78,0,0,0,643.51,138.27Z"/><path class="cls-9" d="M656,139.53V144h-1.48v-4.34c0-1.23-.57-1.85-1.7-1.85a1.51,1.51,0,0,0-1.11.45,2.19,2.19,0,0,0-.6,1.39V144h-1.48v-7.24h1.48v.9a2.78,2.78,0,0,1,1-.81,2.52,2.52,0,0,1,1.22-.28C655.1,136.56,656,137.54,656,139.53Z"/><path class="cls-9" d="M659.9,136.76h1.65V138H659.9v4.2a.64.64,0,0,0,.13.43.53.53,0,0,0,.39.14h1V144h-1.19a1.73,1.73,0,0,1-1.36-.49,1.88,1.88,0,0,1-.41-1.32V138h-1.34v-1.23h1.34V135l1.49-.62Z"/><path class="cls-9" d="M666.52,134a4.74,4.74,0,0,1,3.67,1.36,5.15,5.15,0,0,1,1.18,3.64,5.21,5.21,0,0,1-1.2,3.66,4.78,4.78,0,0,1-3.67,1.34h-3.61V134Zm-2.11,8.7h1.81a3.77,3.77,0,0,0,2.79-.91,5,5,0,0,0,0-5.59,3.73,3.73,0,0,0-2.77-.9H664.4Z"/><path class="cls-9" d="M677.48,134a3.41,3.41,0,0,1,2.3.7,2.25,2.25,0,0,1,.8,1.82,2.39,2.39,0,0,1-.42,1.43,2.48,2.48,0,0,1-1.16.83,2.23,2.23,0,0,1,2,2.42,2.5,2.5,0,0,1-1,2.21,4.45,4.45,0,0,1-2.48.59h-4.57V134Zm-3,4.24h2.63a2.5,2.5,0,0,0,1.51-.36,1.43,1.43,0,0,0,.46-1.18,1.26,1.26,0,0,0-.46-1.09,2.47,2.47,0,0,0-1.48-.35h-2.66Zm0,4.5h2.83a3.21,3.21,0,0,0,1.51-.31,1.37,1.37,0,0,0,.69-1.26,1.53,1.53,0,0,0-.53-1.29,2.7,2.7,0,0,0-1.62-.39h-2.87Z"/></svg>