<?xml version="1.0" encoding="UTF-8"?>
<svg width="76px" height="18px" viewBox="0 0 76 18" version="1.1" xmlns="http://www.w3.org/2000/svg" xmlns:xlink="http://www.w3.org/1999/xlink">
    <!-- Generator: Sketch 53.2 (72643) - https://sketchapp.com -->
    <title>Group 21 Copy 3</title>
    <desc>Created with Sketch.</desc>
    <defs>
        <polygon id="path-1" points="0 17.5 74.98275 17.5 74.98275 0.20275 0 0.20275"></polygon>
    </defs>
    <g id="Page-1" stroke="none" stroke-width="1" fill="none" fill-rule="evenodd" opacity="0.5">
        <g id="Group-21-Copy-3" transform="translate(0.305664, 0.000000)">
            <polygon id="Fill-1" fill="#FFFFFF" points="39.6485 7.560875 47.14175 7.560875 47.14175 6.888875 39.6485 6.888875"></polygon>
            <g id="Group-20" transform="translate(0.000000, 0.047375)">
                <path d="M43.526725,4.689725 L43.993475,4.421225 L44.009975,4.411725 L44.002725,4.394475 C43.948725,4.269475 43.808475,3.975225 43.660225,3.663975 C43.521975,3.373725 43.378725,3.074225 43.310725,2.920475 L43.301225,2.899225 L42.633475,3.284475 L42.643225,3.302225 C42.881975,3.752225 43.087475,4.164225 43.271225,4.562725 C43.297725,4.616975 43.313975,4.659475 43.319225,4.689725 L38.913975,4.689725 L38.913975,5.414475 L47.929225,5.414475 L47.929225,4.689725 L43.526725,4.689725 Z" id="Fill-2" fill="#FFFFFF"></path>
                <polygon id="Fill-4" fill="#FFFFFF" points="29.213175 4.13965 28.541175 4.13965 28.541175 6.50115 27.271925 6.50115 27.271925 3.1429 26.599675 3.1429 26.599675 6.50115 25.277925 6.50115 25.277925 4.13965 24.605925 4.13965 24.605925 7.1734 29.213175 7.1734"></polygon>
                <path d="M21.69205,7.0207 C22.73455,5.97645 23.6258,4.7227 24.2863,3.3667 L23.65905,3.0047 C23.0118,4.32645 22.1988,5.4622 21.2863,6.31795 L21.69205,7.0207 Z" id="Fill-6" fill="#FFFFFF"></path>
                <mask id="mask-2" fill="white">
                    <use xlink:href="#path-1"></use>
                </mask>
                <g id="Clip-9"></g>
                <polygon id="Fill-8" fill="#FFFFFF" mask="url(#mask-2)" points="39.6485 9.66475 47.14175 9.66475 47.14175 8.94025 39.6485 8.94025"></polygon>
                <path d="M40.56325,14.47525 L46.228,14.47525 L46.228,11.7635 L40.56325,11.7635 L40.56325,14.47525 Z M39.8385,15.1475 L46.95225,15.1475 L46.95225,11.09175 L39.8385,11.09175 L39.8385,15.1475 Z" id="Fill-10" fill="#FFFFFF" mask="url(#mask-2)"></path>
                <path d="M38.029625,2.9491 L38.029625,2.9491 C37.368375,5.2796 36.398875,7.39835 35.182125,9.17135 L35.581875,9.8581 C36.003375,9.23485 36.448375,8.5016 36.867375,7.7326 L36.867375,15.56885 L37.591625,15.56885 L37.591625,6.2376 C38.016375,5.32235 38.392375,4.33535 38.700125,3.33635 L38.029625,2.9491 Z" id="Fill-11" fill="#FFFFFF" mask="url(#mask-2)"></path>
                <polygon id="Fill-12" fill="#FFFFFF" mask="url(#mask-2)" points="24.8155 9.16725 28.89825 9.16725 28.89825 8.495 24.8155 8.495"></polygon>
                <path d="M29.7943,12.72065 L29.47005,12.15915 L29.4573,12.13715 L28.42655,13.0214 L28.42655,10.4894 L24.97305,10.4894 L24.97305,11.5089 C25.07105,12.90565 24.72255,13.9044 23.9373,14.47715 L23.9218,14.4884 L24.2958,15.1369 L24.3083,15.1584 L24.3278,15.14265 C25.3063,14.33665 25.7673,13.20165 25.69755,11.76965 L25.69755,11.16115 L27.7543,11.16115 L27.7543,12.66065 C27.72855,13.18365 27.70255,13.34365 27.52305,13.59315 L27.5153,13.6044 L27.9278,14.3194 L27.9468,14.30415 C28.3088,14.0139 28.9258,13.4849 29.78155,12.7319 L29.7943,12.72065 Z" id="Fill-13" fill="#FFFFFF" mask="url(#mask-2)"></path>
                <path d="M24.21725,6.8137 L23.567,6.4397 L23.558,6.4622 C22.9365,8.01595 22.11375,9.38395 21.11275,10.52845 L21.10275,10.5397 L21.47525,11.1852 L21.49025,11.21095 L21.5095,11.1882 C21.90625,10.72495 22.29475,10.23645 22.66425,9.7352 L22.66425,15.56895 L23.3365,15.56895 L23.3365,8.62695 C23.64025,8.0862 23.93425,7.48195 24.21,6.83095 L24.21725,6.8137 Z" id="Fill-14" fill="#FFFFFF" mask="url(#mask-2)"></path>
                <path d="M31.656725,11.3473 C31.214475,10.2058 30.885975,8.6538 30.679725,6.73355 C30.747225,6.53205 30.832475,6.3268 30.933725,6.1228 L32.734725,6.1228 C32.595725,8.3138 32.233225,10.07105 31.656725,11.3473 L31.656725,11.3473 Z M31.159975,5.4508 C31.418725,4.6708 31.714975,3.7628 31.814975,2.98555 L31.113475,2.98455 C30.677475,5.02905 30.011475,6.80355 29.153975,8.20405 L29.578225,8.9388 L29.889225,8.3163 C30.006475,8.1113 30.101475,7.93805 30.172975,7.80005 C30.383225,9.61155 30.749975,11.06955 31.264225,12.13505 C30.770725,12.98805 30.011475,13.87405 29.007225,14.7693 L28.994225,14.7808 L29.381725,15.45155 L29.395225,15.47455 L29.414475,15.4563 C30.477975,14.4603 31.214225,13.5878 31.603225,12.86255 C32.046975,13.65255 32.797975,14.60955 33.669725,15.4948 L33.689225,15.51455 L34.087225,14.8258 L34.095725,14.8113 L34.083475,14.80005 C33.148225,13.90655 32.406475,12.97955 31.993975,12.18905 C32.755975,10.79705 33.231225,8.75605 33.406725,6.1228 L34.142475,6.1228 L34.142475,5.4508 L31.159725,5.4508 L31.159975,5.4508 Z" id="Fill-15" fill="#FFFFFF" mask="url(#mask-2)"></path>
                <path d="M57.22225,8.28875 L60.04225,8.28875 L60.04225,5.27775 L57.22225,5.27775 L57.22225,8.28875 Z M56.50525,8.95775 L60.759,8.95775 L60.759,4.6085 L56.50525,4.6085 L56.50525,8.95775 Z M52.5385,14.44925 L58.89525,14.44925 L58.89525,12.8985 L52.5385,12.8985 L52.5385,14.44925 Z M52.5385,12.27725 L58.89525,12.27725 L58.89525,10.63075 L52.5385,10.63075 L52.5385,12.27725 Z M51.77375,15.12325 L59.70775,15.12325 L59.70775,9.9615 L51.77375,9.9615 L51.77375,15.12325 Z M50.531,6.42475 C50.49875,6.3935 50.4355,6.3135 50.33975,6.18575 C50.212,6.059 50.1165,5.9635 50.053,5.899 C50.81775,5.23 51.3435,4.46525 51.63025,3.605 L52.34725,3.74825 C52.283,3.90825 52.1875,4.0995 52.0605,4.32175 C51.96475,4.513 51.90075,4.6565 51.86925,4.752 L55.50175,4.752 L55.50175,5.37325 L53.6855,5.37325 C53.6855,5.9155 53.65325,6.377 53.58975,6.7595 L55.83625,6.7595 L55.83625,7.4285 L53.39875,7.4285 L53.351,7.47625 C53.73325,7.6995 54.2745,8.04975 54.976,8.52775 C55.326,8.751 55.59725,8.92675 55.7885,9.0535 L55.3105,9.627 C55.18275,9.5315 54.9915,9.388 54.737,9.197 C54.03575,8.6555 53.49425,8.2575 53.112,8.002 C52.793,8.76675 51.90075,9.51575 50.4355,10.2485 C50.30775,9.99375 50.14875,9.7705 49.9575,9.57925 C51.45475,9.00575 52.34725,8.28875 52.634,7.4285 L50.053,7.4285 L50.053,6.7595 L52.82525,6.7595 C52.8885,6.377 52.92075,5.9155 52.92075,5.37325 L51.439,5.37325 C51.21575,5.69225 50.91325,6.0425 50.531,6.42475 L50.531,6.42475 Z" id="Fill-16" fill="#FFFFFF" mask="url(#mask-2)"></path>
                <path d="M71.5894,9.1969 C71.20715,8.6234 70.82465,8.0664 70.4424,7.52415 L71.06365,7.1894 C71.31815,7.4764 71.6529,7.9384 72.0674,8.57565 C72.13065,8.67115 72.17865,8.7509 72.21065,8.81465 L71.5894,9.1969 Z M72.5454,15.17115 C71.36615,14.2789 70.10765,13.4194 68.7694,12.5904 L69.2474,12.0169 C69.34315,12.08115 71.0159,13.21165 71.0159,13.21165 L73.26215,10.5829 L68.48265,10.5829 L68.48265,9.8659 L74.1704,9.8659 L74.1704,10.7264 L71.63715,13.6419 L73.07115,14.50215 L72.5454,15.17115 Z M74.5049,8.67115 C73.07115,7.46065 72.03515,6.2024 71.39815,4.8954 C70.6334,6.26565 69.59765,7.55615 68.29165,8.76665 C68.1639,8.5119 68.0049,8.27315 67.81365,8.0499 C69.2789,6.90265 70.37815,5.43765 71.1114,3.65265 L71.97165,3.7484 L71.78065,4.1784 C72.60865,5.77215 73.6759,7.0304 74.9829,7.95415 C74.95065,8.01865 74.8709,8.12965 74.7439,8.2889 C74.64815,8.44865 74.5684,8.57565 74.5049,8.67115 L74.5049,8.67115 Z M64.89815,12.39915 L66.76215,12.06465 L66.76215,10.2484 L64.89815,10.2484 L64.89815,12.39915 Z M64.89815,9.57915 L66.76215,9.57915 L66.76215,7.71515 L64.89815,7.71515 L64.89815,9.57915 Z M64.89815,7.04615 L66.76215,7.04615 L66.76215,5.1344 L64.89815,5.1344 L64.89815,7.04615 Z M63.4644,5.1344 L63.4644,4.46515 L68.3394,4.46515 L68.3394,5.1344 L67.47915,5.1344 L67.47915,11.92115 L68.38715,11.7779 L68.38715,12.49465 L67.47915,12.63815 L67.47915,15.07565 L66.76215,15.07565 L66.76215,12.7814 C66.31565,12.8459 65.6629,12.97265 64.80265,13.1639 C64.2289,13.2914 63.7824,13.38715 63.4644,13.45065 L63.3209,12.63815 L64.18115,12.54265 L64.18115,5.1344 L63.4644,5.1344 Z" id="Fill-17" fill="#FFFFFF" mask="url(#mask-2)"></path>
                <path d="M0.4934,11.27245 C0.4934,11.27245 2.6864,8.25745 6.79915,10.01995 C9.8504,11.3277 12.8019,10.4892 14.0644,7.54995 C15.31915,4.6277 13.7634,1.5232 11.0639,0.6092 C8.0984,-0.3923 4.6344,0.39695 2.54965,3.64145 C0.4934,6.84145 0.4934,11.27245 0.4934,11.27245" id="Fill-18" fill="#FFFFFF" mask="url(#mask-2)"></path>
                <path d="M0.205875,15.5248 C0.877125,17.21655 2.988875,17.96605 4.922875,17.19905 C6.856875,16.4318 7.880625,14.4383 7.209375,12.74655 C6.538375,11.0548 4.426375,10.3053 2.492375,11.0723 C0.558375,11.83955 -0.465375,13.83305 0.205875,15.5248" id="Fill-19" fill="#FFFFFF" mask="url(#mask-2)"></path>
            </g>
        </g>
    </g>
</svg>