<?xml version="1.0" encoding="utf-8"?>
<!-- Generator: Adobe Illustrator 22.1.0, SVG Export Plug-In . SVG Version: 6.00 Build 0)  -->
<svg version="1.1" id="svgwrapper_svg" xmlns="http://www.w3.org/2000/svg" xmlns:xlink="http://www.w3.org/1999/xlink" x="0px"
	 y="0px" width="894px" height="455px" viewBox="0 0 894 455" style="enable-background:new 0 0 894 455;" xml:space="preserve">
<style type="text/css">
	.st0{display:none;fill:none;stroke:#999999;}
	.st1{fill:#EAEBEC;}
	.st2{enable-background:new    ;}
	.st3{fill:#444444;}
	.st4{opacity:0.6;fill:#BBBBBB;enable-background:new    ;}
	.st5{fill:#FFFFFF;stroke:#E5E5E5;}
</style>
<path class="st0" d="M840.1,220.7L808,227"/>
<rect x="1.1" y="196.9" class="st1" width="366.9" height="114.8"/>
<g transform="translate(10 10)">
	<g class="st2">
		<path class="st3" d="M17.1,209.8v6.2c0.5-0.4,1.1-0.9,1.7-1.5l0.3,1c-0.9,0.8-1.8,1.6-2.8,2.2l-0.4-0.9c0.2-0.2,0.3-0.4,0.3-0.6
			v-5.6h-2.1v-1h3V209.8z M18.1,207.8l-0.7,0.7c-0.6-0.7-1.4-1.4-2.4-2.2l0.7-0.7C16.7,206.3,17.5,207,18.1,207.8z M22.3,209.7v-4.2
			h1v4.2h3.6v1h-3.6v7.7h-1v-7.7h-3.8v-1H22.3z"/>
		<path class="st3" d="M39.2,208.6v5.5h-1.7v0.9h3.2v0.9h-3.2v2.4h-1V216h-4c-0.1,0.4-0.3,0.8-0.6,1.1c-0.5,0.5-1.3,1-2.3,1.3
			l-0.5-0.8c1-0.3,1.7-0.6,2.1-1c0.1-0.2,0.2-0.3,0.3-0.5h-3.2v-0.9h3.4c0-0.1,0-0.3,0-0.4v-0.5h-1.8v-5.5h9.3V208.6z M29.2,208.8
			l-0.8-0.5c0.9-0.9,1.5-1.9,1.8-2.9l1,0.2c-0.1,0.3-0.2,0.6-0.4,0.8h3.5v0.9h-1.8c0.2,0.3,0.4,0.6,0.6,0.9l-0.8,0.3
			c-0.2-0.4-0.5-0.8-0.8-1.2h-1.1C30,207.8,29.6,208.4,29.2,208.8z M38.2,210.3v-0.8h-7.3v0.8H38.2z M38.2,211.8V211h-7.3v0.8H38.2z
			 M38.2,212.5h-7.3v0.9h7.3V212.5z M32.7,214.7c0,0.1,0,0.3,0,0.4h3.8v-0.9h-3.8V214.7z M35.2,208.5l-0.8-0.5
			c0.7-0.8,1.2-1.7,1.5-2.6l1,0.2l-0.3,0.8h4v0.9h-2.3c0.3,0.3,0.4,0.6,0.6,0.9l-0.8,0.3c-0.2-0.4-0.5-0.8-0.8-1.2h-1.1
			C35.8,207.7,35.5,208.1,35.2,208.5z"/>
		<path class="st3" d="M43.2,207.1v-1h8.3v0.7c-0.3,1.2-0.5,2.3-0.8,3.2h2.8v0.6c-0.4,1.9-1.3,3.5-2.6,4.8c1.1,0.8,2.3,1.5,3.7,2.1
			l-0.7,0.9c-1.5-0.7-2.8-1.5-3.9-2.3c-1.2,1-2.8,1.8-4.6,2.4l-0.6-0.9c1.7-0.6,3.2-1.3,4.3-2.2c-1.3-1.2-2.3-2.6-2.9-4.1
			c-0.5,3.1-1.7,5.5-3.6,7.1l-0.8-0.7c2.3-1.9,3.5-5,3.5-9.2v-1.3h-2.1V207.1z M52.6,210.8h-3c0.3-0.8,0.6-2.1,0.9-3.7h-3.8v1.3
			c0,0.2,0,0.4,0,0.7c0.5,2.2,1.7,4.1,3.5,5.6C51.3,213.5,52.1,212.3,52.6,210.8z"/>
		<path class="st3" d="M56.4,214.2l-0.3-1.1c1.9-1.6,3.1-3.2,3.8-4.7h-3.4v-1h2.2c-0.2-0.6-0.5-1.2-0.8-1.8l1-0.3
			c0.3,0.7,0.6,1.4,0.8,1.9l-0.4,0.2h1.8v0.9c-0.4,1-0.9,2-1.7,3c0.8,0.5,1.5,1,2.1,1.6l-0.6,0.9c-0.5-0.6-1-1-1.5-1.4v5.9h-1v-5.8
			C57.6,213.1,57,213.6,56.4,214.2z M65.3,208v2.7c-0.1,2.1-0.4,3.8-1.1,5c-0.7,1.2-1.8,2.1-3.3,2.7l-0.5-0.9
			c1.5-0.6,2.5-1.5,3.1-2.5c0.5-1.1,0.8-2.5,0.9-4.3V208H65.3z M67.8,213.8h-1V207h-3.9v6.8h-1V206h6L67.8,213.8L67.8,213.8z
			 M66.2,218.1c-0.8,0-1.1-0.4-1.1-1.2v-3.1h1v2.9c0,0.3,0.2,0.5,0.5,0.5h0.9c0.2,0,0.3-0.1,0.4-0.2c0.1-0.2,0.2-0.7,0.2-1.6
			l0.9,0.3c-0.1,1.1-0.2,1.9-0.5,2.1c-0.2,0.2-0.5,0.3-1,0.3H66.2z"/>
		<path class="st3" d="M76.7,212.4v1.5c-0.1,1.2-0.5,2.2-1.4,2.9s-2.3,1.2-4.2,1.6l-0.6-0.9c1.9-0.3,3.3-0.8,4.1-1.3
			c0.7-0.6,1.1-1.3,1.1-2.2v-1.5h1V212.4z M82.3,210.9h-1v-1.8h-9.7v1.8h-1v-2.8h2.2c-0.4-0.7-0.8-1.3-1.2-1.9l0.9-0.4
			c0.4,0.6,0.9,1.3,1.3,2l-0.6,0.3h5.4c0.6-0.8,1.1-1.7,1.5-2.6l1,0.4c-0.4,0.9-0.9,1.6-1.4,2.2h2.7v2.8H82.3z M80.2,215.6h-1v-4
			h-5.6v4h-1v-5h7.6V215.6z M77.1,207.5l-0.9,0.5c-0.4-0.8-0.7-1.5-1.1-2.1l0.9-0.4C76.4,206.1,76.8,206.8,77.1,207.5z M78.2,218.1
			c-0.9,0-1.3-0.5-1.3-1.4v-2.5h1v2.4c0,0.4,0.2,0.6,0.7,0.6h2.3c0.3,0,0.5-0.1,0.6-0.2c0.1-0.2,0.2-0.7,0.3-1.6l0.9,0.3
			c-0.1,1.2-0.3,1.9-0.5,2.2c-0.2,0.2-0.6,0.3-1.1,0.3h-2.9V218.1z"/>
	</g>
</g>
<rect x="380" y="196.9" class="st1" width="359" height="114.8"/>
<g transform="translate(10 10)">
	<g class="st2">
		<path class="st3" d="M392.1,208.7l-0.6-0.8c0.7-0.6,1.2-1.5,1.7-2.6l0.9,0.2c-0.1,0.3-0.3,0.6-0.4,0.9h4v0.9h-2.1
			c0,0.5-0.1,0.9-0.1,1.4h2.6v0.9h-2.8c0,0.1-0.1,0.3-0.1,0.4c1.1,0.5,2,1.1,2.7,1.6l-0.7,0.7c-0.6-0.5-1.3-1.1-2.3-1.6
			c-0.6,1-1.5,1.8-2.9,2.4l-0.7-0.8c1.5-0.6,2.4-1.4,2.9-2.4l0.1-0.3h-2.8v-0.9h3.1c0.1-0.4,0.1-0.9,0.2-1.4h-1.4
			C392.9,207.9,392.6,208.4,392.1,208.7z M402.4,218.3h-1v-0.6h-6.9v0.6h-1v-5.8h9v5.8H402.4z M401.3,214.7v-1.3h-6.9v1.3H401.3z
			 M401.3,216.8v-1.2h-6.9v1.2H401.3z M403.4,206.4v5.1h-4.6v-5.1H403.4z M402.4,207.3h-2.6v3.3h2.6V207.3z"/>
		<path class="st3" d="M412.3,209.4l-0.8,0.6c-0.2-0.3-0.3-0.6-0.5-0.9c-1.5,0.2-3.3,0.4-5.4,0.5l-0.3-0.8c0.2-0.1,0.3-0.2,0.5-0.3
			c0.9-0.9,1.6-1.9,2.2-3l1,0.3c-0.6,1.2-1.3,2.2-2.1,2.9c1.2-0.1,2.4-0.2,3.7-0.4c-0.3-0.4-0.6-0.9-1-1.4l0.8-0.5
			C411.2,207.6,411.9,208.6,412.3,209.4z M407.2,218.3h-1v-7.9h5.2v6.6c0,0.8-0.4,1.2-1.2,1.2h-1.1l-0.3-1h1.1
			c0.4,0,0.5-0.2,0.5-0.5v-1.1h-3.2V218.3z M410.4,211.3h-3.2v1.4h3.2V211.3z M407.2,214.8h3.2v-1.3h-3.2V214.8z M414,211.6
			c-0.9,0-1.3-0.5-1.3-1.4v-4.7h1v1.8c1.5-0.2,2.8-0.5,3.8-0.7l0.3,0.9c-1.2,0.3-2.5,0.6-4.1,0.8v1.8c0,0.4,0.2,0.7,0.6,0.7h1.8
			c0.3,0,0.5-0.1,0.6-0.2c0.1-0.2,0.2-0.7,0.3-1.6l0.9,0.3c-0.1,1.1-0.3,1.8-0.5,2.1c-0.2,0.2-0.6,0.3-1.1,0.3H414V211.6z
			 M413.7,216.8c0,0.3,0.2,0.4,0.5,0.4h1.9c0.3,0,0.5-0.1,0.6-0.2c0.2-0.2,0.3-0.7,0.3-1.6l0.9,0.3c-0.1,1.1-0.3,1.8-0.5,2.1
			c-0.2,0.2-0.6,0.3-1.1,0.3H414c-0.8,0-1.2-0.4-1.2-1.1v-4.9h1v1.7c1.4-0.1,2.6-0.4,3.8-0.7l0.3,0.9c-1.3,0.4-2.6,0.6-4.1,0.7
			L413.7,216.8L413.7,216.8z"/>
		<path class="st3" d="M422.3,209.8v6.2c0.4-0.4,0.9-0.9,1.4-1.4l0.3,1.1c-0.8,0.8-1.7,1.5-2.6,2.2L421,217c0.2-0.2,0.3-0.4,0.3-0.6
			v-5.6h-2.1v-1H422.3z M423.3,207.7l-0.7,0.7c-0.6-0.6-1.3-1.3-2.3-2l0.7-0.7C421.9,206.3,422.7,207,423.3,207.7z M431.7,206v0.9
			h-3.9l-0.3,1.6h3.4v2.8h1.3v0.9h-8.5v-0.9h2.2l0.4-1.8h-1.9v-0.9h2.1l0.3-1.6h-2.7v-1H431.7z M431.2,218.3h-1v-0.7h-4.5v0.7h-1
			v-4.8h6.5V218.3z M430.2,216.7v-2.3h-4.5v2.3H430.2z M429.8,211.3v-1.8h-2.5l-0.4,1.8H429.8z"/>
		<path class="st3" d="M439.3,206.8c-0.2-0.5-0.4-0.9-0.7-1.3l1.1-0.2c0.2,0.4,0.4,0.9,0.6,1.5h4.9v0.9H443
			c-0.2,0.8-0.5,1.5-0.9,2.2h3.7v0.9h-12.4V210h3.6c-0.2-0.8-0.5-1.6-0.8-2.2H434v-0.9h5.3V206.8z M444.1,218.3h-1v-0.6h-6.6v0.6h-1
			v-6.2h8.7v6.2H444.1z M443,214.4V213h-6.6v1.5h6.6V214.4z M443,216.8v-1.5h-6.6v1.5H443z M438.1,210h3c0.4-0.7,0.7-1.5,0.8-2.2
			h-4.6C437.7,208.4,437.9,209.2,438.1,210z"/>
	</g>
</g>
<rect x="750.9" y="196.9" class="st1" width="143.1" height="114.8"/>
<g transform="translate(10 10)">
	<g class="st2">
		<path class="st3" d="M761.6,206.5v-1.1h1v1.1h4.8v-1.1h1v1.1h2.5v0.9h-2.5v4.6h2.7v0.9h-2.9c0.7,0.8,1.7,1.5,3.1,2l-0.4,0.9
			c-1.7-0.7-3-1.7-3.7-2.8h-4.4c-0.7,1.2-1.9,2.1-3.5,2.9l-0.5-0.9c1.4-0.5,2.4-1.2,3.1-2H759v-1h2.7v-4.6h-2.5v-0.9H761.6z
			 M765.5,213.4v1.1h2.8v0.9h-2.8v1.5h4.8v0.9h-10.7v-0.9h4.9v-1.5h-2.9v-0.9h2.9v-1.1H765.5z M767.4,208.4v-1h-4.8v1H767.4z
			 M767.4,210.2v-1h-4.8v1H767.4z M767.4,212v-1h-4.8v1H767.4z"/>
		<path class="st3" d="M772.8,207.2v-1h4.7v1h-2.1c-0.2,1.1-0.4,2.2-0.8,3.2h2.6v7.5h-0.9V217h-1.5v1H774v-6.1
			c-0.3,0.6-0.6,1.1-1,1.7l-0.5-0.9c1-1.6,1.7-3.4,2-5.4h-1.7V207.2z M776.4,216.1v-4.8h-1.5v4.8H776.4z M783.7,206.7h0.9v4.6H782
			v5.3h2v-4h0.9v5.9H784v-0.9h-4.9v0.9h-0.9v-5.9h0.9v4h1.9v-5.3h-2.6v-4.6h0.9v3.7h1.7v-4.8h0.9v4.8h1.7L783.7,206.7L783.7,206.7z"
			/>
		<path class="st3" d="M789.5,218.3h-1v-6.9c-0.4,1.3-1,2.6-1.6,3.7l-0.4-1.1c1-1.4,1.6-3,2-4.8h-1.8v-1h1.8v-2.7h1v2.7h1.5v1h-1.5
			v0.9c0.6,0.7,1.2,1.5,1.8,2.4l-0.5,0.8c-0.5-0.9-0.9-1.6-1.2-2.1L789.5,218.3L789.5,218.3z M799.2,205.9v1h-6.4V217h6.7v1h-7.6
			v-12h7.3V205.9z M798.8,208.3v0.9h-2.1v2.3h1.8v0.9h-1.8v2.5h2.3v0.9h-5.5v-0.9h2.3v-2.5H794v-0.9h1.8v-2.3h-2.1v-0.9H798.8z"/>
		<path class="st3" d="M804.1,205.5v1.3h2.7c0,2.4-0.2,3.8-0.4,4.3c-0.3,0.5-0.8,0.7-1.5,0.7c-0.2,0-0.5,0-0.8-0.1l-0.3-0.9l0.8,0.1
			c0.5,0,0.8-0.2,1-0.5c0.1-0.3,0.2-1.2,0.2-2.7H804c-0.3,2-1.1,3.4-2.6,4.4l-0.7-0.7c1.3-0.8,2.1-2.1,2.4-3.8h-2v-0.9h2.1v-1.3
			L804.1,205.5L804.1,205.5z M806.5,213v-1.1h1v1.1h5.6v1h-4.7c1,1.1,2.6,2.1,4.8,3l-0.7,0.9c-2.4-1.2-4-2.5-5-3.9h-0.1v4.3h-1V214
			h-0.1c-1,1.6-2.7,2.9-5.1,3.9l-0.6-0.9c2.2-0.8,3.8-1.8,4.8-3h-4.7v-1H806.5z M812.5,206.5v4.8H808v-4.8H812.5z M811.6,207.4H809
			v3h2.6V207.4z"/>
	</g>
</g>
<rect x="0.6" y="320.5" class="st1" width="893.4" height="124.5"/>
<g transform="translate(10 10)">
	<g class="st2">
		<path class="st3" d="M17.1,334.1V333h1v1.1h4.8V333h1v1.1h2.5v0.9h-2.5v4.6h2.7v0.9h-2.9c0.7,0.8,1.7,1.5,3.1,2l-0.4,0.9
			c-1.7-0.7-3-1.7-3.7-2.8h-4.4c-0.7,1.2-1.9,2.1-3.5,2.9l-0.5-0.9c1.4-0.5,2.4-1.2,3.1-2h-2.9v-0.9h2.7v-4.6h-2.5v-0.9h2.4V334.1z
			 M21,341v1.1h2.8v0.9H21v1.5h4.8v0.9H15.1v-0.9H20V343h-2.9v-0.9H20V341H21z M22.9,336v-1H18v1H22.9z M22.9,337.8v-1H18v1H22.9z
			 M22.9,339.6v-1H18v1H22.9z"/>
		<path class="st3" d="M28.3,334.8v-1H33v1h-2.1c-0.2,1.1-0.4,2.2-0.8,3.2h2.6v7.5h-0.9v-0.9h-1.5v1h-0.9v-6.1
			c-0.3,0.6-0.6,1.1-1,1.7l-0.5-0.9c1-1.6,1.7-3.4,2-5.4h-1.6V334.8z M31.8,343.7v-4.8h-1.5v4.8H31.8z M39.2,334.2h0.9v4.6h-2.6v5.3
			h2v-4h0.9v5.9h-0.9v-1h-4.9v0.9h-0.9V340h0.9v4h1.9v-5.3h-2.6v-4.6h0.9v3.7h1.7V333h0.9v4.8h1.7L39.2,334.2L39.2,334.2z"/>
		<path class="st3" d="M43,345.9l-0.8-0.7c0.6-1.3,0.8-2.9,0.9-4.8v-6.7h4.1v10.9c0,0.8-0.4,1.3-1.2,1.3h-1.1l-0.2-0.9
			c0.4,0,0.7,0.1,1.1,0.1c0.3,0,0.5-0.3,0.5-0.8v-3.2H44C43.9,343,43.6,344.6,43,345.9z M46.3,334.5H44v2.4h2.3V334.5z M44,340.2
			h2.3v-2.3H44V340.2z M49.3,345.9h-1v-12.3H54c0,1.7-0.1,2.9-0.3,3.4c-0.2,0.6-0.7,0.9-1.6,0.9H51l-0.3-0.9c0.2,0,0.5,0,0.9,0
			c0.3,0,0.6,0,0.7-0.1c0.2-0.1,0.3-0.2,0.4-0.4c0.1-0.3,0.2-1,0.2-2.1h-3.7v4.2H54v0.9c-0.3,1.4-0.7,2.7-1.4,3.7
			c0.6,0.6,1.4,1.2,2.2,1.7l-0.5,0.9c-0.9-0.5-1.7-1.1-2.3-1.7c-0.6,0.7-1.3,1.3-2.2,1.7l-0.5-0.8c0.8-0.4,1.5-1,2-1.7
			c-0.9-1.1-1.5-2.3-1.8-3.7h-0.3L49.3,345.9L49.3,345.9z M52,342.6c0.5-0.8,0.9-1.8,1.1-2.9h-2.7C50.8,340.8,51.3,341.7,52,342.6z"
			/>
		<path class="st3" d="M61.3,333.1c-0.2,0.4-0.3,0.7-0.5,1.1h6.1v0.8c-0.9,1-2,1.9-3.3,2.6c1.6,0.7,3.3,1.1,5.3,1.3l-0.5,0.9
			c-2.2-0.3-4.2-0.8-5.9-1.7c-1.7,0.8-3.7,1.4-6,1.7l-0.5-1c2-0.3,3.8-0.7,5.4-1.3c-0.8-0.5-1.5-1-2.2-1.6c-0.5,0.5-1.1,0.9-1.8,1.3
			l-0.6-0.8c1.7-1,2.8-2.1,3.4-3.5L61.3,333.1z M62.6,339.2c0,0.6-0.1,1.1-0.1,1.6h4.9c0,2.4-0.2,3.8-0.6,4.2
			c-0.4,0.5-1.1,0.7-2.1,0.7c-0.4,0-1,0-1.6-0.1l-0.3-0.9l1.7,0.1c0.8,0,1.4-0.2,1.6-0.5s0.3-1.2,0.4-2.6h-4.1
			c-0.1,0.4-0.3,0.7-0.4,1c-0.7,1.3-2.4,2.3-4.9,3.1l-0.7-0.8c2.3-0.7,3.8-1.5,4.6-2.5c0.2-0.3,0.3-0.5,0.4-0.8H57v-0.9h4.5
			c0.1-0.5,0.2-1,0.2-1.6L62.6,339.2L62.6,339.2z M65.4,335.1H60l-0.2,0.2c0.8,0.7,1.7,1.3,2.6,1.8
			C63.6,336.6,64.6,335.9,65.4,335.1z"/>
	</g>
</g>
<rect class="st1" width="894" height="186"/>
<g transform="translate(10 10)">
	<g class="st2">
		<path class="st3" d="M21.6,9.9h5.1v1H16.3V14c-0.1,3.1-0.5,5.5-1.4,7.4l-0.8-0.7c0.8-1.6,1.2-3.8,1.2-6.7V9.9h5.2
			C20.3,9.5,20,9,19.7,8.6l1.1-0.2C21.1,8.9,21.3,9.4,21.6,9.9z M22.4,19.8c0.9-2,1.6-4.4,2.3-7.4l1,0.3c-0.6,2.7-1.3,5-2.2,7.1h3v1
			h-9.9v-1H22.4z M19.6,18.3l-1,0.2c-0.4-1.8-0.9-3.5-1.4-5.1l0.9-0.3C18.7,14.6,19.2,16.3,19.6,18.3z M22.1,17.4l-1,0.2
			c-0.3-1.8-0.7-3.6-1.2-5.3l0.9-0.3C21.3,13.7,21.7,15.4,22.1,17.4z"/>
		<path class="st3" d="M28.8,21.3L28,20.6c0.9-1.2,1.4-2.8,1.4-4.7V9.1h10.4v10.5c0,1-0.5,1.5-1.5,1.5h-1.6l-0.3-1
			c0.6,0,1.1,0.1,1.6,0.1s0.8-0.3,0.8-0.9v-2.4H35V21h-1v-4.1h-3.6C30.2,18.6,29.7,20.1,28.8,21.3z M30.4,10.1v2.4H34v-2.4H30.4z
			 M30.4,15.9H34v-2.5h-3.6V15.9z M38.9,10.1H35v2.4h3.8v-2.4H38.9z M38.9,13.4H35v2.5h3.8v-2.5H38.9z"/>
		<path class="st3" d="M43,21.4l-0.8-0.7c0.6-1.3,0.8-2.9,0.9-4.8V9.2h4.1v10.9c0,0.8-0.4,1.3-1.2,1.3h-1.1l-0.2-0.9
			c0.4,0,0.7,0.1,1.1,0.1c0.3,0,0.5-0.3,0.5-0.8v-3.2H44C43.9,18.6,43.6,20.2,43,21.4z M46.3,10.1H44v2.4h2.3V10.1z M44,15.7h2.3
			v-2.3H44V15.7z M49.3,21.4h-1V9.1H54c0,1.7-0.1,2.9-0.3,3.4c-0.2,0.6-0.7,0.9-1.6,0.9H51l-0.3-0.9c0.2,0,0.5,0,0.9,0
			c0.3,0,0.6,0,0.7-0.1c0.2-0.1,0.3-0.2,0.4-0.4c0.1-0.3,0.2-1,0.2-2.1h-3.7v4.2H54V15c-0.3,1.4-0.7,2.7-1.4,3.7
			c0.6,0.6,1.4,1.2,2.2,1.7l-0.5,0.9c-0.9-0.5-1.7-1.1-2.3-1.7c-0.6,0.7-1.3,1.3-2.2,1.7l-0.5-0.8c0.8-0.4,1.5-1,2-1.7
			c-0.9-1.1-1.5-2.3-1.8-3.7h-0.3L49.3,21.4L49.3,21.4z M52,18.1c0.5-0.8,0.9-1.8,1.1-2.9h-2.7C50.8,16.3,51.3,17.3,52,18.1z"/>
		<path class="st3" d="M61.3,8.7c-0.1,0.3-0.3,0.7-0.5,1h6.1v0.8c-0.9,1-2,1.9-3.3,2.6c1.6,0.7,3.3,1.1,5.3,1.3l-0.5,0.9
			c-2.2-0.3-4.2-0.8-5.9-1.7c-1.7,0.8-3.7,1.4-6,1.7l-0.5-1c2-0.3,3.8-0.7,5.4-1.3c-0.8-0.5-1.5-1-2.2-1.6c-0.5,0.5-1.1,0.9-1.8,1.3
			l-0.6-0.8c1.7-1,2.8-2.1,3.4-3.5L61.3,8.7z M62.6,14.7c0,0.6-0.1,1.1-0.1,1.6h4.9c0,2.4-0.2,3.8-0.6,4.2c-0.4,0.5-1.1,0.7-2.1,0.7
			c-0.4,0-1,0-1.6-0.1l-0.3-0.9l1.7,0.1c0.8,0,1.4-0.2,1.6-0.5s0.3-1.2,0.4-2.6h-4.1c-0.1,0.4-0.3,0.7-0.4,1
			c-0.7,1.3-2.4,2.3-4.9,3.1l-0.7-0.8c2.3-0.7,3.8-1.5,4.6-2.5c0.2-0.3,0.3-0.5,0.4-0.8H57v-0.9h4.5c0.1-0.5,0.2-1,0.2-1.6
			C61.7,14.7,62.6,14.7,62.6,14.7z M65.4,10.7H60l-0.2,0.2c0.8,0.7,1.7,1.3,2.6,1.8C63.6,12.1,64.6,11.4,65.4,10.7z"/>
	</g>
</g>
<g id="middlegroup" transform="translate(0,0)">
</g>
<g>
	<rect x="209.4" y="53.4" class="st4" width="111" height="45.7"/>
	<rect x="207.4" y="50.5" class="st5" width="111" height="45.7"/>
	<g transform="translate(26.5,3)">
		<g class="st2">
			<path class="st3" d="M214.8,69.3c0.8,3.8,2.8,6.7,6.1,8.7l-0.7,0.9c-2.9-1.9-4.8-4.4-5.8-7.6c-0.8,3.1-2.8,5.6-5.9,7.6l-0.6-0.9
				c3.9-2.4,5.8-5.6,6-9.6c0-1,0-1.7,0-2.2h1C214.9,67.4,214.8,68.4,214.8,69.3z"/>
			<path class="st3" d="M222.6,79l-0.7-0.7c0.5-1.3,0.8-2.9,0.8-4.9v-6.7h3.5v10.9c0,0.9-0.4,1.3-1.3,1.3H224l-0.2-0.9
				c0.3,0,0.6,0,0.8,0c0.4,0,0.7-0.3,0.7-0.8v-3h-1.7C223.5,76.2,223.2,77.8,222.6,79z M225.3,67.7h-1.7v2.4h1.7V67.7z M223.6,73.4
				h1.7V71h-1.7V73.4z M226.9,71.8l-0.5-0.8c1.6-1.2,2.9-2.8,3.8-4.7h0.9c0.7,1.8,2,3.3,3.9,4.7l-0.5,0.8c-0.6-0.4-1.1-0.9-1.6-1.4
				v0.8h-4.3v-0.8C228,70.9,227.4,71.3,226.9,71.8z M231.4,77.6c0.6-1.5,1.2-3.3,1.6-5.5l1,0.3c-0.4,2-1,3.7-1.6,5.2h2.3v1h-7.9v-1
				H231.4z M229.3,76.5l-0.9,0.2c-0.3-1.4-0.7-2.7-1.2-4l0.9-0.3C228.6,73.7,229,75,229.3,76.5z M230.6,67.2c-0.6,1.2-1.2,2.2-2,3h4
				C231.8,69.3,231.1,68.3,230.6,67.2z M231.3,75.8l-0.9,0.2c-0.3-1.3-0.6-2.6-1-3.9l0.9-0.3C230.7,73.1,231,74.4,231.3,75.8z"/>
			<path class="st3" d="M239,79h-1v-7c-0.4,1.4-1,2.7-1.8,3.9l-0.4-1c1-1.5,1.7-3.1,2.1-5H236v-1h1.9v-2.7h1v2.7h1.7v1H239v0.9
				c0.7,0.8,1.3,1.6,2,2.6l-0.6,0.9c-0.6-1-1.1-1.8-1.5-2.4V79H239z M240.8,78.9l-0.5-0.9c3.3-1.1,5.8-3.2,7.4-6.2l0.9,0.4
				c-0.7,1.3-1.5,2.4-2.4,3.3c1,0.9,1.9,1.8,2.6,2.7l-0.7,0.7c-0.6-0.9-1.4-1.8-2.5-2.8C244.1,77.4,242.6,78.3,240.8,78.9z
				 M244.5,67.7c-0.2-0.5-0.4-1-0.7-1.4l1-0.2c0.2,0.4,0.4,1,0.6,1.6h3.1v0.9h-3.8c-0.8,1.4-1.4,2.3-2,2.9c0.9-0.1,1.8-0.1,2.6-0.2
				c0.4-0.5,0.7-1,1-1.6l0.8,0.4c-1.4,2.8-3.4,4.7-6.2,5.7l-0.5-0.8c1.7-0.6,3.1-1.5,4.3-2.8c-1,0.1-2,0.1-3.1,0.2l-0.2-0.8
				c0.1,0,0.1-0.1,0.2-0.1c0.6-0.4,1.3-1.3,2.2-2.8H241v-0.9L244.5,67.7L244.5,67.7z"/>
			<path class="st3" d="M256.5,66.2c-0.1,0.4-0.3,0.8-0.4,1.2h4.1v6.2c0.7-0.8,1.3-1.7,1.6-2.5l0.9,0.5c-0.7,1.3-1.5,2.4-2.5,3.3v3
				c0,0.8-0.4,1.2-1.1,1.2h-1.5l-0.3-1h1.4c0.3,0,0.4-0.2,0.4-0.5v-1.9c-0.3,0.2-0.6,0.4-0.9,0.6c-1.9,1.1-4.3,1.9-7.2,2.5l-0.4-0.9
				c3.7-0.6,6.3-1.6,7.9-2.8l0.2-0.2h-8.2V74h1.7v-6.6h2.8c0.2-0.4,0.3-0.9,0.4-1.3L256.5,66.2z M259.1,69.6v-1.3h-6v1.3H259.1z
				 M259.1,71.7v-1.3h-6v1.3H259.1z M259.1,74v-1.4h-6V74H259.1z"/>
		</g>
	</g>
</g>
<g>
	<rect x="393.2" y="53.4" class="st4" width="111" height="45.7"/>
	<rect x="391.2" y="50.5" class="st5" width="111" height="45.7"/>
	<g transform="translate(26.5,3)">
		<g class="st2">
			<path class="st3" d="M392.7,69.4l-0.6-0.8c0.7-0.6,1.2-1.5,1.7-2.6l0.9,0.2c-0.1,0.3-0.3,0.6-0.4,0.9h4V68h-2.1
				c0,0.5-0.1,0.9-0.1,1.4h2.6v0.9h-2.8c0,0.1-0.1,0.3-0.1,0.4c1.1,0.5,2,1.1,2.7,1.6l-0.7,0.7c-0.6-0.5-1.3-1.1-2.3-1.6
				c-0.6,1-1.5,1.8-2.9,2.4l-0.7-0.8c1.5-0.6,2.4-1.4,2.9-2.4l0.1-0.3H392v-0.9h3.1c0.1-0.4,0.1-0.9,0.2-1.4h-1.4
				C393.5,68.6,393.1,69.1,392.7,69.4z M402.9,79h-1v-0.6H395V79h-1v-5.8h9V79H402.9z M401.9,75.4v-1.3H395v1.3H401.9z M401.9,77.5
				v-1.2H395v1.2H401.9z M403.9,67.1v5.1h-4.6v-5.1H403.9z M402.9,68h-2.6v3.3h2.6V68z"/>
			<path class="st3" d="M412.9,70.1l-0.8,0.6c-0.2-0.3-0.3-0.6-0.5-0.9c-1.5,0.2-3.3,0.4-5.4,0.5l-0.3-0.8c0.2-0.1,0.3-0.2,0.5-0.3
				c0.9-0.9,1.6-1.9,2.2-3l1,0.3c-0.6,1.2-1.3,2.2-2.1,2.9c1.2-0.1,2.4-0.2,3.7-0.4c-0.3-0.4-0.6-0.9-1-1.4l0.8-0.5
				C411.8,68.3,412.4,69.3,412.9,70.1z M407.7,79h-1v-7.9h5.2v6.6c0,0.8-0.4,1.2-1.2,1.2h-1.1l-0.3-1h1.1c0.4,0,0.5-0.2,0.5-0.5
				v-1.1h-3.2V79z M411,72h-3.2v1.4h3.2V72z M407.7,75.5h3.2v-1.3h-3.2V75.5z M414.6,72.3c-0.9,0-1.3-0.5-1.3-1.4v-4.7h1V68
				c1.5-0.2,2.8-0.5,3.8-0.7l0.3,0.9c-1.2,0.3-2.5,0.6-4.1,0.8v1.8c0,0.4,0.2,0.7,0.6,0.7h1.8c0.3,0,0.5-0.1,0.6-0.2
				c0.1-0.2,0.2-0.7,0.3-1.6l0.9,0.3c-0.1,1.1-0.3,1.8-0.5,2.1c-0.2,0.2-0.6,0.3-1.1,0.3h-2.3V72.3z M414.3,77.5
				c0,0.3,0.2,0.4,0.5,0.4h1.9c0.3,0,0.5-0.1,0.6-0.2c0.2-0.2,0.3-0.7,0.3-1.6l0.9,0.3c-0.1,1.1-0.3,1.8-0.5,2.1
				c-0.2,0.2-0.6,0.3-1.1,0.3h-2.4c-0.8,0-1.2-0.4-1.2-1.1v-4.9h1v1.7c1.4-0.1,2.6-0.4,3.8-0.7l0.3,0.9c-1.3,0.4-2.6,0.6-4.1,0.7
				L414.3,77.5L414.3,77.5z"/>
			<path class="st3" d="M420.3,78.9l-0.2-1c0.4,0,0.7,0.1,1.1,0.1s0.6-0.2,0.6-0.6V74c-0.6,0.2-1.1,0.5-1.7,0.7l-0.3-1
				c0.7-0.2,1.3-0.4,2-0.7v-3.2H420v-1h1.7v-2.6h1v2.6h1.6v1h-1.6v2.7c0.5-0.3,1-0.5,1.5-0.8v1c-0.5,0.3-1,0.6-1.5,0.8v4.1
				c0,0.8-0.4,1.3-1.2,1.3H420.3z M431.5,72.2v0.9c-0.4,1.3-1.1,2.5-2.2,3.4c0.9,0.6,2.1,1.2,3.4,1.7l-0.5,0.9
				c-1.4-0.6-2.6-1.2-3.6-1.9c-1.1,0.8-2.4,1.5-4,2l-0.5-0.9c1.5-0.5,2.7-1.1,3.8-1.8c-1.1-1-1.8-2.1-2.2-3.3h-0.8v-1
				C424.9,72.2,431.5,72.2,431.5,72.2z M430.6,66.7v3c0,0.3,0.2,0.5,0.6,0.5h1.2v0.9H431c-0.9,0-1.3-0.4-1.3-1.2v-2.3H427v0.8
				c0,1.3-0.6,2.3-1.9,3.1l-0.7-0.8c1.1-0.5,1.6-1.2,1.6-2.2v-1.9L430.6,66.7L430.6,66.7z M428.5,75.9c0.9-0.8,1.5-1.7,2-2.7h-3.9
				C426.9,74.2,427.6,75.1,428.5,75.9z"/>
			<path class="st3" d="M440.1,67.8h-4.4v4.7c0,2.7-0.4,4.8-1.1,6.5l-0.8-0.7c0.6-1.4,0.9-3.3,0.9-5.8v-5.7h5.4V67.8z M436.2,77.4
				c0.3-0.1,0.4-0.3,0.4-0.5v-7.2h3.2v4c0,0.6-0.3,1-1,1c-0.2,0-0.5,0-0.8,0l-0.2-0.8c0.3,0,0.5,0,0.7,0c0.3,0,0.4-0.1,0.4-0.4v-2.9
				h-1.5v6.5c0.8-0.3,1.6-0.6,2.4-1.1l0.2,0.9c-1,0.6-2.1,1-3.4,1.4L436.2,77.4z M443.9,70.9v2.4c0,1.6-0.3,2.8-0.9,3.8
				c-0.6,0.9-1.5,1.5-2.8,2l-0.5-0.8c1.3-0.5,2.1-1.1,2.6-1.8c0.5-0.8,0.7-1.8,0.7-3.1V71L443.9,70.9L443.9,70.9z M446.5,66.8v0.9
				H444c-0.1,0.5-0.2,1-0.3,1.6h2.3V76h-1v-5.9h-3.2V76h-0.9v-6.7h1.8c0.1-0.5,0.2-1,0.2-1.6h-2.4v-0.9H446.5z M446.7,78.4l-0.7,0.7
				c-0.6-0.7-1.4-1.5-2.4-2.3l0.6-0.6C445.2,77,446.1,77.7,446.7,78.4z"/>
		</g>
	</g>
</g>
<g>
	<rect x="25.5" y="53.4" class="st4" width="111" height="45.7"/>
	<rect x="23.5" y="50.5" class="st5" width="111" height="45.7"/>
	<g transform="translate(26.1875,3.632817268371582)">
		<g class="st2">
			<path class="st3" d="M24.9,68.8L24.3,68c0.7-0.6,1.2-1.5,1.7-2.6l0.9,0.2c-0.1,0.3-0.3,0.6-0.4,0.9h4v0.9h-2.1
				c0,0.5-0.1,0.9-0.1,1.4h2.6v0.9h-2.8c0,0.1-0.1,0.3-0.1,0.4c1.1,0.5,2,1.1,2.7,1.6L30,72.5c-0.6-0.5-1.3-1.1-2.3-1.6
				c-0.6,1-1.5,1.8-2.9,2.4l-0.7-0.8c1.5-0.6,2.4-1.4,2.9-2.4l0.1-0.3h-2.8v-0.9h3.1c0.1-0.4,0.1-0.9,0.2-1.4h-1.4
				C25.7,68,25.3,68.4,24.9,68.8z M35.1,78.4h-1v-0.6h-6.9v0.6h-1v-5.8h9L35.1,78.4L35.1,78.4z M34.1,74.8v-1.3h-6.9v1.3H34.1z
				 M34.1,76.9v-1.2h-6.9v1.2H34.1z M36.1,66.5v5.1h-4.6v-5.1H36.1z M35.2,67.4h-2.6v3.3h2.6V67.4z"/>
			<path class="st3" d="M45.1,69.5l-0.8,0.6c-0.2-0.3-0.3-0.6-0.5-0.9c-1.5,0.2-3.3,0.4-5.4,0.5l-0.3-0.8c0.2-0.1,0.3-0.2,0.5-0.3
				c0.9-0.9,1.6-1.9,2.2-3l1,0.3c-0.6,1.2-1.3,2.2-2.1,2.9c1.2-0.1,2.4-0.2,3.7-0.4c-0.3-0.4-0.6-0.9-1-1.4l0.8-0.5
				C44,67.7,44.7,68.6,45.1,69.5z M40,78.4h-1v-7.9h5.2v6.6c0,0.8-0.4,1.2-1.2,1.2h-1.1l-0.3-1h1.1c0.4,0,0.5-0.2,0.5-0.5v-1.1H40
				V78.4z M43.2,71.4H40v1.4h3.2V71.4z M40,74.9h3.2v-1.3H40V74.9z M46.8,71.7c-0.9,0-1.3-0.5-1.3-1.4v-4.7h1v1.8
				c1.5-0.2,2.8-0.5,3.8-0.7l0.3,0.9c-1.2,0.3-2.5,0.6-4.1,0.8v1.8c0,0.4,0.2,0.7,0.6,0.7h1.8c0.3,0,0.5-0.1,0.6-0.2
				c0.1-0.2,0.2-0.7,0.3-1.6l0.9,0.3c-0.1,1.1-0.3,1.8-0.5,2.1c-0.2,0.2-0.6,0.3-1.1,0.3h-2.3V71.7z M46.5,76.8
				c0,0.3,0.2,0.4,0.5,0.4h1.9c0.3,0,0.5-0.1,0.6-0.2c0.2-0.2,0.3-0.7,0.3-1.6l0.9,0.3c-0.1,1.1-0.3,1.8-0.5,2.1
				c-0.2,0.2-0.6,0.3-1.1,0.3h-2.4c-0.8,0-1.2-0.4-1.2-1.1v-4.9h1v1.7c1.4-0.1,2.6-0.4,3.8-0.7l0.3,0.9c-1.3,0.4-2.6,0.6-4.1,0.7
				V76.8z"/>
			<path class="st3" d="M57.7,68c-0.2,0.3-0.4,0.6-0.6,0.9h5.2v0.8c-0.6,0.8-1.4,1.5-2.5,2.1c1.5,0.6,3.2,1,5.1,1.1l-0.2,0.9
				c-2.2-0.2-4.2-0.7-6-1.5c-1.7,0.8-3.7,1.3-6.3,1.8L52,73.3c2.3-0.4,4.1-0.8,5.6-1.4c-0.7-0.4-1.4-0.9-2-1.4
				c-0.5,0.5-1.1,0.9-1.8,1.3L53.2,71c1.4-0.8,2.5-1.8,3.4-3.2L57.7,68z M64.2,69.2h-1v-1.7h-9.3v1.7h-1v-2.6H58
				c-0.2-0.4-0.3-0.7-0.5-1l1.1-0.2c0.2,0.3,0.3,0.7,0.5,1.1h5.2L64.2,69.2L64.2,69.2z M62.6,78.4h-1v-0.6h-6v0.6h-1V74h8V78.4z
				 M61.6,76.9v-2h-6v2H61.6z M61,69.8h-4.7l0,0c0.7,0.6,1.6,1.1,2.4,1.6C59.7,70.9,60.4,70.4,61,69.8z"/>
			<path class="st3" d="M67,78.4l-0.8-0.7c0.6-1.3,0.8-2.9,0.9-4.8v-6.7h4.1v10.9c0,0.8-0.4,1.3-1.2,1.3h-1.1l-0.2-0.9
				c0.4,0,0.7,0.1,1.1,0.1c0.3,0,0.5-0.3,0.5-0.8v-3.2H68C67.9,75.5,67.6,77.1,67,78.4z M70.3,67H68v2.4h2.3V67z M68,72.7h2.3v-2.3
				H68V72.7z M73.3,78.4h-1V66.1H78c0,1.7-0.1,2.9-0.3,3.4c-0.2,0.6-0.7,0.9-1.6,0.9H75l-0.3-0.9c0.2,0,0.5,0,0.9,0
				c0.3,0,0.6,0,0.7-0.1c0.2-0.1,0.3-0.2,0.4-0.4c0.1-0.3,0.2-1,0.2-2.1h-3.7v4.2H78V72c-0.3,1.4-0.7,2.7-1.4,3.7
				c0.6,0.6,1.4,1.2,2.2,1.7l-0.5,0.9c-0.9-0.5-1.7-1.1-2.3-1.7c-0.6,0.7-1.3,1.3-2.2,1.7l-0.5-0.8c0.8-0.4,1.5-1,2-1.7
				c-0.9-1.1-1.5-2.3-1.8-3.7h-0.3v6.3H73.3z M76,75.1c0.5-0.8,0.9-1.8,1.1-2.9h-2.7C74.8,73.3,75.3,74.2,76,75.1z"/>
		</g>
	</g>
</g>
<g>
	<rect x="577.1" y="53.4" class="st4" width="111" height="45.7"/>
	<rect x="575.1" y="50.5" class="st5" width="111" height="45.7"/>
	<g transform="translate(26.1875,3.6328125)">
		<g class="st2">
			<path class="st3" d="M579.4,71.7c0.4-1.3,0.7-2.8,0.9-4.3h-4.1v-1h5.1v0.8c-0.1,2-0.5,3.9-1.1,5.5c0.6,0.9,1.2,1.8,1.7,2.7
				l-0.8,0.8c-0.4-0.8-0.9-1.6-1.4-2.4c-0.8,1.6-1.8,3-3.2,4.1l-0.7-0.8c1.4-1.2,2.4-2.7,3.2-4.3c-0.8-1.1-1.7-2.3-2.7-3.5l0.7-0.7
				C577.8,69.6,578.6,70.6,579.4,71.7z M587.8,66.4v0.9c-0.3,2.3-1.1,4.4-2.3,6.4c0.8,1.3,1.8,2.5,3,3.8l-0.7,0.8
				c-1.2-1.2-2.2-2.4-2.9-3.7c-0.9,1.3-2,2.5-3.2,3.7l-0.7-0.8c1.3-1.2,2.5-2.5,3.4-3.8c-1.1-2-1.7-4.1-1.8-6.3H582v-1H587.8z
				 M585,72.7c1-1.7,1.6-3.5,1.9-5.4h-3.4C583.5,69.2,584,71,585,72.7z"/>
			<path class="st3" d="M599.6,66.1v4.6h2.5v0.9h-5.6v1.6c0.3,0.4,0.7,0.8,1.1,1.1c1-0.6,1.9-1.4,2.6-2.4l0.8,0.6
				c-0.8,1-1.7,1.8-2.7,2.3c1.1,0.9,2.4,1.6,3.9,2.3l-0.5,0.9c-2.2-1-3.9-2.2-5.1-3.7v2.9c0,0.8-0.4,1.3-1.1,1.3h-1.6l-0.2-1
				c0.5,0,1,0.1,1.5,0.1c0.3,0,0.4-0.2,0.4-0.6v-2.6c-1.4,1.3-3.2,2.5-5.2,3.6l-0.4-0.9c2.2-1,4-2.2,5.6-3.7v-1.8h-5.4v-0.9h8.5
				v-1.4H592v-0.9h6.6V67h-7.1v-0.9H599.6z M593.8,73.8l-0.6,0.7c-0.5-0.6-1.2-1.2-2.2-1.8l0.7-0.6
				C592.5,72.6,593.2,73.3,593.8,73.8z"/>
			<path class="st3" d="M608.1,75c-1,1.1-2.1,2.1-3.5,3l-0.6-0.8c1.4-0.8,2.5-1.8,3.4-2.8L608.1,75z M608,78.3l-0.2-1
				c0.5,0,1,0.1,1.4,0.1c0.3,0,0.5-0.2,0.5-0.5v-3.4c-1.3,0.1-2.8,0.2-4.4,0.2l-0.3-0.9c0.3,0,0.6-0.1,0.9-0.2
				c1.1-0.5,2.4-1.3,3.9-2.4c-1.2,0.1-2.5,0.2-3.9,0.3l-0.2-0.9c0.3,0,0.5-0.1,0.7-0.2c0.7-0.3,1.5-1,2.5-2.1
				c-1.2,0.1-2.5,0.1-3.8,0.1l-0.3-0.9c4,0,7.4-0.3,10-0.9l0.5,0.9c-1.5,0.3-3.2,0.6-5.2,0.7c-0.9,1-1.8,1.8-2.6,2.4
				c1.1-0.1,2.3-0.1,3.4-0.2c0.6-0.5,1.3-1.1,1.9-1.7l0.9,0.5c-2.4,2.1-4.4,3.6-6.2,4.5c2.3-0.1,4.2-0.3,5.9-0.5
				c-0.4-0.4-0.7-0.9-1.1-1.4l0.8-0.5c1.1,1.3,2,2.5,2.6,3.5l-0.8,0.6c-0.3-0.5-0.6-1-0.9-1.4c-1,0.1-2,0.2-3.2,0.3v3.8
				c0,0.8-0.4,1.2-1.2,1.2H608z M616.3,77.3l-0.7,0.7c-0.9-1-2-2-3.5-3.2l0.7-0.6C614.1,75.3,615.3,76.3,616.3,77.3z"/>
			<path class="st3" d="M621.2,65.9c-0.7,1.8-1.4,3.2-2.1,4.3c0.6-0.1,1.2-0.2,1.8-0.3c0.3-0.5,0.5-1,0.8-1.5l0.9,0.4
				c-1.2,2.3-2.3,4-3.1,5c1-0.3,2-0.6,3-1v0.9c-1.5,0.6-2.9,1-4.2,1.2L618,74c0.2-0.1,0.3-0.2,0.5-0.3c0.5-0.6,1.2-1.5,2-2.8
				c-0.8,0.1-1.5,0.3-2.3,0.4l-0.3-0.9c0.2-0.1,0.3-0.2,0.4-0.4c0.8-1.3,1.4-2.7,2-4.4L621.2,65.9z M622.5,76.2
				c-1.3,0.6-2.7,1.2-4.4,1.6l-0.1-1c1.7-0.4,3.2-0.9,4.5-1.5V76.2z M625.1,72.2c-0.1,1.8-0.3,3.1-0.7,3.9c-0.4,0.9-1.1,1.6-2,2.2
				l-0.6-0.8c0.8-0.5,1.4-1.1,1.8-1.9c0.3-0.7,0.5-1.9,0.6-3.5h0.9V72.2z M622.7,70.8c0.1,0,0.1-0.1,0.2-0.1
				c0.5-0.4,1.1-1.2,1.8-2.7h-2.4v-1h3.6c-0.2-0.5-0.4-1-0.6-1.4l1-0.2c0.2,0.5,0.4,1,0.6,1.6h3.2v1h-4.3c-0.6,1.2-1.2,2.1-1.6,2.7
				c1.3-0.1,2.6-0.3,3.9-0.5c-0.3-0.4-0.6-0.9-1-1.4l0.8-0.5c1,1.2,1.7,2.3,2.2,3.2l-0.8,0.5c-0.2-0.4-0.4-0.7-0.6-1.1
				c-1.7,0.3-3.6,0.5-5.7,0.6L622.7,70.8z M628.1,78.1c-0.8,0-1.3-0.4-1.3-1.2v-4.8h1v4.6c0,0.3,0.1,0.4,0.3,0.5h0.9
				c0.3,0,0.5-0.2,0.5-0.5c0.1-0.4,0.1-1,0.1-1.8l0.9,0.3c0,1.3-0.1,2.1-0.3,2.5c-0.2,0.3-0.6,0.4-1.2,0.5L628.1,78.1L628.1,78.1z"
				/>
		</g>
	</g>
</g>
<g>
	<g>
		<rect x="761" y="54.8" class="st4" width="111" height="45.7"/>
		<rect x="759" y="51.9" class="st5" width="111" height="45.7"/>
	</g>
	<g transform="translate(26.1875,3.6328125)">
		<g class="st2">
			<path class="st3" d="M762.8,68.8l-0.6-0.8c0.7-0.6,1.2-1.5,1.7-2.6l0.9,0.2c-0.1,0.3-0.3,0.6-0.4,0.9h4v0.9h-2.1
				c0,0.5-0.1,0.9-0.1,1.4h2.6v0.9H766c0,0.1-0.1,0.3-0.1,0.4c1.1,0.5,2,1.1,2.7,1.6l-0.7,0.7c-0.6-0.5-1.3-1.1-2.3-1.6
				c-0.6,1-1.5,1.8-2.9,2.4l-0.7-0.8c1.5-0.6,2.4-1.4,2.9-2.4l0.1-0.3h-2.8v-0.9h3.1c0.1-0.4,0.1-0.9,0.2-1.4h-1.4
				C763.6,68,763.2,68.4,762.8,68.8z M773,78.4h-1v-0.6h-6.9v0.6h-1v-5.8h9L773,78.4L773,78.4z M772,74.8v-1.3h-6.9v1.3H772z
				 M772,76.9v-1.2h-6.9v1.2H772z M774,66.5v5.1h-4.6v-5.1H774z M773,67.4h-2.6v3.3h2.6V67.4z"/>
			<path class="st3" d="M783,69.5l-0.8,0.6c-0.2-0.3-0.3-0.6-0.5-0.9c-1.5,0.2-3.3,0.4-5.4,0.5l-0.3-0.8c0.2-0.1,0.3-0.2,0.5-0.3
				c0.9-0.9,1.6-1.9,2.2-3l1,0.3c-0.6,1.2-1.3,2.2-2.1,2.9c1.2-0.1,2.4-0.2,3.7-0.4c-0.3-0.4-0.6-0.9-1-1.4l0.8-0.5
				C781.9,67.7,782.5,68.6,783,69.5z M777.8,78.4h-1v-7.9h5.2v6.6c0,0.8-0.4,1.2-1.2,1.2h-1.1l-0.3-1h1.1c0.4,0,0.5-0.2,0.5-0.5
				v-1.1h-3.2V78.4z M781.1,71.4h-3.2v1.4h3.2V71.4z M777.8,74.9h3.2v-1.3h-3.2V74.9z M784.6,71.7c-0.9,0-1.3-0.5-1.3-1.4v-4.7h1
				v1.8c1.5-0.2,2.8-0.5,3.8-0.7l0.3,0.9c-1.2,0.3-2.5,0.6-4.1,0.8v1.8c0,0.4,0.2,0.7,0.6,0.7h1.8c0.3,0,0.5-0.1,0.6-0.2
				c0.1-0.2,0.2-0.7,0.3-1.6l0.9,0.3c-0.1,1.1-0.3,1.8-0.5,2.1c-0.2,0.2-0.6,0.3-1.1,0.3h-2.3V71.7z M784.4,76.8
				c0,0.3,0.2,0.4,0.5,0.4h1.9c0.3,0,0.5-0.1,0.6-0.2c0.2-0.2,0.3-0.7,0.3-1.6l0.9,0.3c-0.1,1.1-0.3,1.8-0.5,2.1
				c-0.2,0.2-0.6,0.3-1.1,0.3h-2.4c-0.8,0-1.2-0.4-1.2-1.1v-4.9h1v1.7c1.4-0.1,2.6-0.4,3.8-0.7l0.3,0.9c-1.3,0.4-2.6,0.6-4.1,0.7
				V76.8z"/>
			<path class="st3" d="M793,78.4h-1v-7c-0.4,1.4-1,2.7-1.8,3.9l-0.4-1c1-1.5,1.7-3.1,2.1-5H790v-1h1.9v-2.7h1v2.7h1.7v1H793v0.9
				c0.7,0.8,1.3,1.6,2,2.6l-0.6,0.9c-0.6-1-1.1-1.8-1.5-2.4L793,78.4L793,78.4z M794.8,78.3l-0.5-0.9c3.3-1.1,5.8-3.2,7.4-6.2
				l0.9,0.4c-0.7,1.3-1.5,2.4-2.4,3.3c1,0.9,1.9,1.8,2.6,2.7l-0.7,0.7c-0.6-0.9-1.4-1.8-2.5-2.8C798.1,76.7,796.6,77.7,794.8,78.3z
				 M798.5,67.1c-0.2-0.5-0.4-1-0.7-1.4l1-0.2c0.2,0.4,0.4,1,0.6,1.6h3.1V68h-3.8c-0.8,1.4-1.4,2.3-2,2.9c0.9-0.1,1.8-0.1,2.6-0.2
				c0.4-0.5,0.7-1,1-1.6l0.8,0.4c-1.4,2.8-3.4,4.7-6.2,5.7l-0.5-0.8c1.7-0.6,3.1-1.5,4.3-2.8c-1,0.1-2,0.1-3.1,0.2l-0.2-0.8
				c0.1,0,0.1-0.1,0.2-0.1c0.6-0.4,1.3-1.3,2.2-2.8H795v-0.9L798.5,67.1L798.5,67.1z"/>
			<path class="st3" d="M807.9,65.9c-0.3,1-0.8,2-1.2,2.9v9.6h-1v-7.9c-0.5,0.7-1,1.3-1.5,1.9l-0.3-1.1c1.5-1.7,2.5-3.6,3.2-5.8
				L807.9,65.9z M815.3,66.2v4.4h-2.8v1.5h4v1h-3c0.8,1.4,1.9,2.6,3.3,3.7l-0.6,0.9c-1.4-1.2-2.5-2.7-3.5-4.5h-0.2v5.3h-1v-5.3h-0.2
				c-0.9,1.9-2.1,3.5-3.5,4.6l-0.6-0.9c1.3-0.9,2.4-2.1,3.3-3.6h-2.9v-1h3.9v-1.5h-2.8v-4.4h6.6V66.2z M814.3,67.1h-4.6v2.5h4.6
				V67.1z"/>
		</g>
	</g>
</g>
<g>
	<g>
		<rect x="25.5" y="117.6" class="st4" width="111" height="46.7"/>
		<rect x="23.5" y="114.7" class="st5" width="111" height="46.7"/>
	</g>
	<g transform="translate(26.1875,3.632817268371582)">
		<g class="st2">
			<path class="st3" d="M29.7,131.6c-0.2,0.3-0.4,0.6-0.6,0.9h5.2v0.8c-0.6,0.8-1.4,1.5-2.5,2.1c1.5,0.6,3.2,1,5.1,1.1l-0.2,0.9
				c-2.2-0.2-4.2-0.7-6-1.5c-1.7,0.8-3.7,1.3-6.3,1.8l-0.4-0.9c2.3-0.4,4.1-0.8,5.6-1.4c-0.7-0.4-1.4-0.9-2-1.4
				c-0.5,0.5-1.1,0.9-1.8,1.3l-0.6-0.8c1.4-0.8,2.5-1.8,3.4-3.2L29.7,131.6z M36.2,132.9h-1v-1.7h-9.3v1.7h-1v-2.6H30
				c-0.2-0.4-0.3-0.7-0.5-1l1.1-0.2c0.2,0.3,0.3,0.7,0.5,1.1h5.2v2.7H36.2z M34.6,142h-1v-0.6h-6v0.6h-1v-4.4h8V142z M33.6,140.5v-2
				h-6v2H33.6z M33,133.4h-4.7l0,0c0.7,0.6,1.6,1.1,2.4,1.6C31.7,134.5,32.4,134,33,133.4z"/>
			<path class="st3" d="M39,142l-0.8-0.7c0.6-1.3,0.8-2.9,0.9-4.8v-6.7h4.1v10.9c0,0.8-0.4,1.3-1.2,1.3h-1.1l-0.2-0.9
				c0.4,0,0.7,0.1,1.1,0.1c0.4,0,0.5-0.3,0.5-0.8v-3.2H40C39.9,139.2,39.6,140.8,39,142z M42.3,130.7H40v2.4h2.3V130.7z M40,136.3
				h2.3V134H40V136.3z M45.3,142h-1v-12.3H50c0,1.7-0.1,2.9-0.3,3.4c-0.2,0.6-0.7,0.9-1.6,0.9H47l-0.3-0.9c0.2,0,0.5,0,0.9,0
				c0.3,0,0.6,0,0.7-0.1c0.2-0.1,0.3-0.2,0.4-0.4c0.1-0.3,0.2-1,0.2-2.1h-3.7v4.2H50v0.9c-0.3,1.4-0.7,2.7-1.4,3.7
				c0.6,0.6,1.4,1.2,2.2,1.7l-0.5,0.9c-0.9-0.5-1.7-1.1-2.3-1.7c-0.6,0.7-1.3,1.3-2.2,1.7l-0.5-0.8c0.8-0.4,1.5-1,2-1.7
				c-0.9-1.1-1.5-2.3-1.8-3.7h-0.3L45.3,142L45.3,142z M48,138.7c0.5-0.8,0.9-1.8,1.1-2.9h-2.7C46.8,136.9,47.3,137.9,48,138.7z"/>
			<path class="st3" d="M54.5,134.5c-0.1,3.1-0.7,5.5-1.8,7.4l-0.7-0.7c1-1.6,1.5-3.8,1.6-6.7v-4.4c3.7,0,7-0.3,10-0.9l0.5,0.9
				c-2.8,0.5-6,0.7-9.5,0.8v1.4h4.7c0.1-0.4,0.1-0.9,0.2-1.3l1,0.1c0,0.4-0.1,0.8-0.2,1.1h4.4v0.9H60c-0.1,0.5-0.2,0.9-0.3,1.3h3.6
				v4.8h-1v-3.8h-5.5v3.9h-1v-4.8h2.8c0.1-0.4,0.2-0.9,0.3-1.3h-4.5v1.3H54.5z M60.4,136.1c-0.2,1.7-0.7,2.9-1.5,3.8
				c-0.9,0.9-2.2,1.6-4,2.1l-0.5-0.9c1.7-0.4,2.9-1,3.7-1.8s1.2-1.8,1.4-3.3L60.4,136.1z M64.7,141.1l-0.6,0.9
				c-1.4-0.9-2.8-1.7-4.2-2.2l0.5-0.8C62,139.6,63.4,140.3,64.7,141.1z"/>
			<path class="st3" d="M68.1,131.9v-2.7h1v2.7h1.4v1H69v0.7c0.6,0.6,1.1,1.3,1.7,2.1l-0.6,0.9c-0.4-0.8-0.8-1.5-1.1-2v7.4h-1v-6.9
				c-0.4,1.4-1,2.7-1.7,3.8l-0.4-1.1c1-1.4,1.7-3.1,2.1-4.9h-1.7v-1H68.1z M70.9,134.7l-0.5-0.9c1.7-1.2,2.9-2.7,3.8-4.7h0.9
				c0.8,1.8,2,3.3,3.9,4.6l-0.5,0.9c-0.6-0.4-1.1-0.9-1.6-1.4v0.9h-4.3v-0.9C72,133.8,71.5,134.3,70.9,134.7z M75.5,140.6
				c0.6-1.5,1.1-3.3,1.5-5.5l1,0.3c-0.4,2-0.9,3.7-1.5,5.3h2.2v1h-8v-1h4.8V140.6z M73.3,139.5l-0.9,0.2c-0.3-1.4-0.6-2.7-1-4
				l0.9-0.3C72.6,136.6,73,138,73.3,139.5z M74.6,130.2c-0.6,1.2-1.3,2.2-2.1,3h4.2C75.9,132.3,75.2,131.3,74.6,130.2z M75.4,138.9
				l-0.9,0.2c-0.2-1.3-0.5-2.6-0.9-3.9l0.9-0.3C74.8,136.1,75.1,137.4,75.4,138.9z"/>
		</g>
	</g>
</g>
<g>
	<g>
		<rect x="209.4" y="117.6" class="st4" width="111" height="46.7"/>
		<rect x="207.4" y="114.7" class="st5" width="111" height="46.7"/>
	</g>
	<g transform="translate(26.1875,3.6328125)">
		<g class="st2">
			<path class="st3" d="M208.8,132.4l-0.6-0.8c0.7-0.6,1.2-1.5,1.7-2.6l0.9,0.2c-0.1,0.3-0.3,0.6-0.4,0.9h4v0.9h-2.1
				c0,0.5-0.1,0.9-0.1,1.4h2.6v0.9H212c0,0.1-0.1,0.3-0.1,0.4c1.1,0.5,2,1.1,2.7,1.6l-0.7,0.7c-0.6-0.5-1.3-1.1-2.3-1.6
				c-0.6,1-1.5,1.8-2.9,2.4L208,136c1.5-0.6,2.4-1.4,2.9-2.4l0.1-0.3h-2.8v-0.9h3.1c0.1-0.4,0.1-0.9,0.2-1.4h-1.4
				C209.6,131.6,209.2,132,208.8,132.4z M219,142h-1v-0.6h-6.9v0.6h-1v-5.8h9v5.8H219z M218,138.4v-1.3h-6.9v1.3H218z M218,140.5
				v-1.2h-6.9v1.2H218z M220,130.1v5.1h-4.6v-5.1H220z M219,131h-2.6v3.3h2.6V131z"/>
			<path class="st3" d="M229,133.1l-0.8,0.6c-0.2-0.3-0.3-0.6-0.5-0.9c-1.5,0.2-3.3,0.4-5.4,0.5l-0.3-0.8c0.2-0.1,0.3-0.2,0.5-0.3
				c0.9-0.9,1.6-1.9,2.2-3l1,0.3c-0.6,1.2-1.3,2.2-2.1,2.9c1.2-0.1,2.4-0.2,3.7-0.4c-0.3-0.4-0.6-0.9-1-1.4l0.8-0.5
				C227.9,131.3,228.6,132.3,229,133.1z M223.9,142h-1v-7.9h5.2v6.6c0,0.8-0.4,1.2-1.2,1.2h-1.1l-0.3-1h1.1c0.4,0,0.5-0.2,0.5-0.5
				v-1.1h-3.2V142z M227.1,135h-3.2v1.4h3.2V135z M223.9,138.5h3.2v-1.3h-3.2V138.5z M230.7,135.3c-0.9,0-1.3-0.5-1.3-1.4v-4.7h1
				v1.8c1.5-0.2,2.8-0.5,3.8-0.7l0.3,0.9c-1.2,0.3-2.5,0.6-4.1,0.8v1.8c0,0.4,0.2,0.7,0.6,0.7h1.8c0.3,0,0.5-0.1,0.6-0.2
				c0.1-0.2,0.2-0.7,0.3-1.6l0.9,0.3c-0.1,1.1-0.3,1.8-0.5,2.1c-0.2,0.2-0.6,0.3-1.1,0.3h-2.3V135.3z M230.4,140.5
				c0,0.3,0.2,0.4,0.5,0.4h1.9c0.3,0,0.5-0.1,0.6-0.2c0.2-0.2,0.3-0.7,0.3-1.6l0.9,0.3c-0.1,1.1-0.3,1.8-0.5,2.1
				c-0.2,0.2-0.6,0.3-1.1,0.3h-2.4c-0.8,0-1.2-0.4-1.2-1.1v-4.9h1v1.7c1.4-0.1,2.6-0.4,3.8-0.7l0.3,0.9c-1.3,0.4-2.6,0.6-4.1,0.7
				V140.5z"/>
			<path class="st3" d="M236.3,141.9l-0.2-1c0.4,0,0.8,0.1,1.2,0.1c0.3,0,0.5-0.2,0.5-0.6V137c-0.5,0.2-1.1,0.4-1.6,0.5l-0.2-1
				c0.6-0.2,1.2-0.4,1.8-0.6v-3.2h-1.6v-1h1.6v-2.6h1v2.6h1.3v1h-1.3v2.8c0.5-0.2,1-0.4,1.4-0.7v1c-0.5,0.2-0.9,0.5-1.4,0.7v4.1
				c0,0.8-0.4,1.2-1.1,1.2L236.3,141.9L236.3,141.9z M241.7,134.5h2.3v-5.3h0.9v5.3h2.3v-1.4h-1.5v-0.8h1.5v-1.5h-1.5v-0.9h2.5v5.5
				H245v1.2h3.1v0.9c-0.5,1-1.3,1.9-2.5,2.6c0.9,0.4,2,0.8,3.2,1l-0.4,0.9c-1.5-0.3-2.8-0.8-3.9-1.4c-1.2,0.6-2.6,1-4.2,1.4
				l-0.5-0.9c1.5-0.3,2.7-0.6,3.8-1.1c-1-0.7-1.8-1.6-2.3-2.5h-0.6v-0.9h3.3v-1.2h-3.2v-5.1c0.7-0.2,1.4-0.5,2.1-0.9l0.6,0.7
				c-0.5,0.3-1.1,0.5-1.7,0.8v1.3h1.5v0.8h-1.5v1.5H241.7z M244.6,139.5c1-0.6,1.8-1.3,2.4-2.1h-4.7
				C242.9,138.3,243.6,139,244.6,139.5z"/>
			<path class="st3" d="M254.6,139.6c-1.1,0.8-2.4,1.5-4,2.1l-0.4-0.9c1.5-0.5,2.8-1.1,3.8-1.8L254.6,139.6z M255.8,130.3v-1.1h1
				v1.1h4.7v0.9h-4.7v1.2h5.3v2.6h-1v-1.7h-5.4l0.8,0.4c-0.8,0.7-1.7,1.2-2.6,1.7c1.3,0,2.3-0.1,3.1-0.1c0.5-0.3,1-0.7,1.5-1.1
				l0.8,0.5c-1.7,1.2-3.4,2.2-5.3,2.8c1.8-0.1,3.6-0.2,5.4-0.3c-0.3-0.3-0.6-0.7-1-1l0.7-0.5c1,1,1.8,1.9,2.4,2.6l-0.8,0.5
				c-0.2-0.3-0.5-0.7-0.8-1c-1.1,0.1-2.2,0.1-3.2,0.2v2.7c0,0.7-0.4,1.1-1.1,1.1h-1.3l-0.2-0.9c0.4,0,0.8,0.1,1.1,0.1
				s0.5-0.2,0.5-0.4v-2.4c-1.5,0.1-3,0.1-4.2,0.2l-0.2-0.9c0.3,0,0.6,0,0.9,0c1.1-0.3,2.3-0.8,3.6-1.5c-1,0-2,0.1-3.2,0.1l-0.2-0.8
				c0.2,0,0.4-0.1,0.6-0.2c0.9-0.5,1.8-1.1,2.6-1.8h-4.2v1.7h-1v-2.5h5.3v-1.2H251v-0.9h4.8V130.3z M262.4,140.9l-0.5,0.8
				c-1.3-0.8-2.6-1.5-4-2l0.5-0.7C259.9,139.5,261.2,140.2,262.4,140.9z"/>
		</g>
	</g>
</g>
<rect x="393.2" y="117.6" class="st4" width="111" height="46.7"/>
<rect x="391.2" y="114.7" class="st5" width="111" height="46.7"/>
<g>
	<g>
		<rect x="577.1" y="117.6" class="st4" width="111" height="47.1"/>
		<rect x="575.1" y="114.7" class="st5" width="111" height="47.1"/>
	</g>
	<g transform="translate(26.7421875,3.7578125)">
		<g class="st2">
			<path class="st3" d="M576.6,132.3l-0.6-0.8c0.7-0.6,1.2-1.5,1.7-2.6l0.9,0.2c-0.1,0.3-0.3,0.6-0.4,0.9h4v0.9h-2.1
				c0,0.5-0.1,0.9-0.1,1.4h2.6v0.9h-2.8c0,0.1-0.1,0.3-0.1,0.4c1.1,0.5,2,1.1,2.7,1.6l-0.7,0.7c-0.6-0.5-1.3-1.1-2.3-1.6
				c-0.6,1-1.5,1.8-2.9,2.4l-0.7-0.8c1.5-0.6,2.4-1.4,2.9-2.4l0.1-0.3H576v-0.9h3.1c0.1-0.4,0.1-0.9,0.2-1.4h-1.4
				C577.4,131.5,577,131.9,576.6,132.3z M586.8,141.9h-1v-0.6h-6.9v0.6h-1v-5.8h9L586.8,141.9L586.8,141.9z M585.8,138.3V137h-6.9
				v1.3H585.8z M585.8,140.4v-1.2h-6.9v1.2H585.8z M587.8,130v5.1h-4.6V130H587.8z M586.8,130.9h-2.6v3.3h2.6V130.9z"/>
			<path class="st3" d="M596.8,133l-0.8,0.6c-0.2-0.3-0.3-0.6-0.5-0.9c-1.5,0.2-3.3,0.4-5.4,0.5l-0.3-0.8c0.2-0.1,0.3-0.2,0.5-0.3
				c0.9-0.9,1.6-1.9,2.2-3l1,0.3c-0.6,1.2-1.3,2.2-2.1,2.9c1.2-0.1,2.4-0.2,3.7-0.4c-0.3-0.4-0.6-0.9-1-1.4l0.8-0.5
				C595.7,131.2,596.3,132.1,596.8,133z M591.6,141.9h-1V134h5.2v6.6c0,0.8-0.4,1.2-1.2,1.2h-1.1l-0.3-1h1.1c0.3,0,0.5-0.2,0.5-0.5
				v-1.1h-3.2V141.9z M594.9,134.9h-3.2v1.4h3.2V134.9z M591.6,138.4h3.2v-1.3h-3.2V138.4z M598.4,135.2c-0.9,0-1.3-0.5-1.3-1.4
				v-4.7h1v1.8c1.5-0.2,2.8-0.5,3.8-0.7l0.3,0.9c-1.2,0.3-2.5,0.6-4.1,0.8v1.8c0,0.4,0.2,0.7,0.6,0.7h1.8c0.3,0,0.5-0.1,0.6-0.2
				c0.1-0.2,0.2-0.7,0.3-1.6l0.9,0.3c-0.1,1.1-0.3,1.8-0.5,2.1c-0.2,0.2-0.6,0.3-1.1,0.3h-2.3V135.2z M598.2,140.3
				c0,0.3,0.2,0.4,0.5,0.4h1.9c0.3,0,0.5-0.1,0.6-0.2c0.2-0.2,0.3-0.7,0.3-1.6l0.9,0.3c-0.1,1.1-0.3,1.8-0.5,2.1
				c-0.2,0.2-0.6,0.3-1.1,0.3h-2.4c-0.8,0-1.2-0.4-1.2-1.1v-4.9h1v1.7c1.4-0.1,2.6-0.4,3.8-0.7l0.3,0.9c-1.3,0.4-2.6,0.6-4.1,0.7
				V140.3z"/>
			<path class="st3" d="M604.4,136.7l-0.5-0.8c2.5-0.7,4.5-1.6,5.8-2.7h0.8c1.1,1,3.1,1.9,5.8,2.7l-0.5,0.9
				c-0.9-0.3-1.6-0.5-2.3-0.8v0.6h-2.9v1.1h4.8v0.9h-4.8v2.1h1.7c0.3-0.6,0.6-1.2,0.8-1.9l1,0.4c-0.2,0.6-0.5,1.1-0.8,1.5h2.6v0.9
				h-11.6v-0.9h2.5c-0.2-0.5-0.4-1-0.7-1.5l1-0.4c0.3,0.5,0.5,1.1,0.7,1.8h1.7v-2.1h-4.9v-0.9h4.9v-1.1h-2.8v-0.6
				C606,136.2,605.2,136.5,604.4,136.7z M605.5,129.8v4h-0.9v-4H605.5z M610.2,134c-0.8,0.6-1.8,1.2-2.8,1.7h5.7
				C611.8,135.2,610.9,134.6,610.2,134z M608.3,129.2v4.9h-1v-4.9H608.3z M610.1,133.1l-0.7-0.6c0.9-0.9,1.6-2.1,2.1-3.5l0.9,0.2
				c-0.1,0.4-0.2,0.7-0.4,1h4.1v0.9h-4.6C611.2,131.9,610.7,132.6,610.1,133.1z M615.2,133.5l-0.6,0.7c-0.7-0.8-1.5-1.4-2.3-1.9
				l0.7-0.6C613.8,132.2,614.5,132.8,615.2,133.5z"/>
			<path class="st3" d="M622.8,140c-1.2,0.7-2.7,1.3-4.4,1.8l-0.4-0.9c1.7-0.4,3.2-0.9,4.3-1.6L622.8,140z M621.6,130.3v-1.2h1v1.2
				h3.1v-1.2h1v1.2h3v0.9h-3v1.3h3.7v0.9h-5.7v1.1h4.1v4.9h-9.2v-4.9h4.1v-1.1H618v-0.9h3.7v-1.3h-2.9v-0.9H621.6z M623.6,136.4
				v-1.1h-3.1v1.1H623.6z M623.6,137.2h-3.1v1.2h3.1V137.2z M625.6,131.2h-3.1v1.3h3.1V131.2z M624.6,136.4h3.1v-1.1h-3.1V136.4z
				 M627.8,137.2h-3.1v1.2h3.1V137.2z M630.3,141l-0.5,0.8c-1.5-0.7-3-1.3-4.5-1.7l0.5-0.7C627.5,139.9,629,140.4,630.3,141z"/>
		</g>
	</g>
</g>
<g>
	<g>
		<rect x="761" y="117.9" class="st4" width="111" height="46.7"/>
		<rect x="759" y="115" class="st5" width="111" height="46.7"/>
	</g>
	<g transform="translate(26.1875,3.6328125)">
		<g class="st2">
			<path class="st3" d="M764.9,133.4v6.2c0.4-0.4,0.9-0.9,1.4-1.4l0.3,1.1c-0.8,0.8-1.7,1.5-2.6,2.2l-0.4-0.9
				c0.2-0.2,0.3-0.4,0.3-0.6v-5.6h-2.1v-1H764.9z M765.9,131.4l-0.7,0.7c-0.6-0.6-1.3-1.3-2.3-2l0.7-0.7
				C764.5,130,765.3,130.7,765.9,131.4z M774.4,129.7v0.9h-3.9l-0.3,1.6h3.4v2.8h1.3v0.9h-8.5V135h2.2l0.4-1.8h-2v-0.9h2.1l0.3-1.6
				h-2.7v-0.9h7.7V129.7z M773.9,142h-1v-0.7h-4.5v0.7h-1v-4.8h6.5V142z M772.9,140.4v-2.3h-4.5v2.3H772.9z M772.5,135v-1.8H770
				l-0.4,1.8H772.5z"/>
			<path class="st3" d="M782.1,130.9c-0.2-0.6-0.5-1.1-0.8-1.6l1-0.3c0.3,0.6,0.5,1.2,0.7,1.7l-0.6,0.2h6.1v1h-12.6v-1L782.1,130.9
				L782.1,130.9z M787,142h-1v-0.7h-7.5v0.7h-1v-4.5h9.4L787,142L787,142z M786.8,133.1v0.9h-9v-0.9H786.8z M786.8,135.3v0.9h-9
				v-0.9H786.8z M786.1,140.4v-1.9h-7.5v1.9H786.1z"/>
			<path class="st3" d="M790.7,130.8l-0.3-0.8c2.1,0,3.8-0.2,5.2-0.7l0.4,0.8c-0.6,0.2-1.4,0.4-2.2,0.5v2.3h0.6
				c0.3-0.6,0.5-1.2,0.7-1.9l0.8,0.3c-0.2,0.6-0.4,1.1-0.7,1.6h1v0.9h-2.4v2h-0.9v-2h-0.1c-0.5,1.1-1.3,2-2.5,2.7l-0.5-0.8
				c1-0.5,1.7-1.2,2.2-1.9h-1.8v-0.9h1.2c-0.2-0.5-0.4-0.9-0.6-1.3l0.7-0.3c0.2,0.4,0.4,1,0.6,1.6h0.7v-2.2
				C792.2,130.7,791.5,130.8,790.7,130.8z M791.7,141.4v0.6h-0.9v-5.7h5.1v5.7H795v-0.6H791.7z M791.7,137v1.3h1.3V137H791.7z
				 M791.7,139.1v1.5h1.3v-1.5H791.7z M795,138.4V137h-1.2v1.3L795,138.4L795,138.4z M795,140.6v-1.5h-1.2v1.5H795z M796.6,135.4
				l-0.4,0.7c-0.6-0.5-1.3-1-1.9-1.3l0.4-0.6C795.3,134.6,796,135,796.6,135.4z M796.7,140.9h1.2c0.3,0,0.4-0.2,0.4-0.5v-3.2
				c-0.5,0.7-1,1.3-1.7,1.9l-0.4-0.9c0.8-0.6,1.5-1.4,2.1-2.3v-5.2h-1.8v-0.8h2.7v10.9c0,0.7-0.4,1.1-1.1,1.1H797L796.7,140.9z
				 M797.9,135.1l-0.6,0.3c-0.3-1.2-0.6-2.3-0.9-3.2l0.7-0.2C797.4,133,797.6,134,797.9,135.1z M801,134.9l-0.6,0.3
				c-0.3-1.2-0.5-2.3-0.8-3.2l0.7-0.2C800.5,132.8,800.8,133.8,801,134.9z M799.9,140.9h1.2c0.3,0,0.4-0.2,0.4-0.6v-3.5
				c-0.4,0.7-0.9,1.4-1.5,1.9l-0.4-0.9c0.7-0.7,1.3-1.5,1.9-2.4v-4.7h-1.8v-0.9h2.6v10.8c0,0.8-0.4,1.2-1.1,1.2H800L799.9,140.9z"/>
			<path class="st3" d="M806.9,133.4v6.1c0.4-0.4,0.9-0.9,1.4-1.4l0.3,1.1c-0.8,0.9-1.6,1.7-2.5,2.3l-0.4-0.9
				c0.2-0.2,0.3-0.4,0.3-0.6v-5.5h-2v-1h2.9V133.4z M808,131.5l-0.7,0.7c-0.6-0.7-1.4-1.4-2.4-2.2l0.7-0.7
				C806.5,130,807.3,130.8,808,131.5z M815.7,129.8v0.8c-0.4,1-1.1,1.9-2.2,2.6c0.9,0.4,2,0.7,3.3,0.9l-0.3,0.9
				c-1.6-0.2-2.9-0.6-3.9-1.2c-1.1,0.6-2.4,1-4,1.4l-0.5-0.8c1.4-0.3,2.6-0.7,3.6-1.1c-0.8-0.7-1.4-1.5-1.8-2.5H809v-0.9
				L815.7,129.8L815.7,129.8z M812,136.2v-1.3h1v1.3h2.8v0.9H813v1.6h3.5v1H813v2.4h-1v-2.4h-3.2v-1h3.2v-1.6h-2.6v-0.9H812z
				 M812.6,132.7c1-0.6,1.6-1.3,2.1-2h-3.8C811.2,131.5,811.8,132.1,812.6,132.7z"/>
		</g>
	</g>
</g>
<g>
	<g>
		<rect x="25.5" y="248.9" class="st4" width="97.5" height="46.7"/>
		<g>
			<rect x="23.5" y="246" class="st5" width="97.5" height="46.7"/>
		</g>
	</g>
	<g transform="translate(20,3.6328125)">
		<g class="st2">
			<path class="st3" d="M30.2,262.6c-0.4-0.7-0.8-1.4-1.4-2.1l1-0.4c0.5,0.7,1,1.5,1.5,2.5h5.4v1h-2.2c-0.7,2.2-1.7,4.1-3.1,5.6
				c1.5,1.3,3.3,2.3,5.6,3.1l-0.5,0.8c-2.3-0.9-4.2-1.9-5.7-3.2c-1.6,1.5-3.6,2.5-6,3.2l-0.5-0.9c2.4-0.6,4.3-1.6,5.8-3
				c-1.6-1.6-2.7-3.5-3.4-5.6h-2.2v-1H30.2z M30.6,268.5c1.2-1.4,2.2-3,2.7-4.9h-5.8C28.1,265.5,29.1,267.1,30.6,268.5z"/>
			<path class="st3" d="M48.2,264.2v0.9c-0.9,0.6-1.9,1.3-3.1,1.9v0.9h5.5v1h-5.5v3c0,0.8-0.4,1.2-1.2,1.2h-1.7l-0.2-0.9
				c0.5,0,1,0,1.6,0c0.4,0,0.5-0.2,0.5-0.6V269h-5.9v-1h5.9v-1.4c1.1-0.6,2-1.1,2.6-1.4h-6v-0.9h7.5V264.2z M50.4,264.8h-1v-2.2
				h-9.9v2.2h-1v-3.1H44c-0.2-0.5-0.4-1-0.6-1.4l1.1-0.2c0.2,0.5,0.4,1,0.6,1.6h5.3C50.4,261.7,50.4,264.8,50.4,264.8z"/>
			<path class="st3" d="M55.1,264.5v6.2c0.4-0.4,0.9-0.9,1.4-1.4l0.3,1.1c-0.8,0.8-1.7,1.5-2.6,2.2l-0.4-0.9
				c0.2-0.2,0.3-0.4,0.3-0.6v-5.6h-2v-1L55.1,264.5L55.1,264.5z M56.1,262.5l-0.7,0.7c-0.6-0.7-1.4-1.4-2.4-2.1l0.7-0.7
				C54.7,261.1,55.5,261.8,56.1,262.5z M60,268.9c-0.7,1.6-1.5,3.1-2.5,4.3l-0.9-0.6c1-1.1,1.8-2.5,2.5-4L60,268.9z M64,261.1v6.5
				h-6.4v-6.5H64z M63,262h-4.4v4.6H63V262z M65,272.5l-0.9,0.6c-0.6-1.3-1.4-2.6-2.5-4.2l0.8-0.5C63.5,270,64.4,271.3,65,272.5z"/>
			<path class="st3" d="M66.8,265.3v-4.5h6v4.5H70c0,0.6-0.1,1.2-0.1,1.7h3c0,2.4-0.1,3.9-0.2,4.5c-0.1,0.9-0.8,1.4-2,1.4
				c-0.2,0-0.5,0-1,0l-0.2-0.9c0.4,0,0.8,0.1,1,0.1c0.7,0,1.1-0.3,1.2-0.9c0.1-0.4,0.1-1.4,0.2-3.2h-2.1c-0.2,0.9-0.3,1.6-0.6,2.1
				c-0.5,1.2-1.4,2.2-2.6,3.1l-0.6-0.8c1.1-0.7,1.8-1.6,2.3-2.7c0.2-0.4,0.3-1,0.5-1.7h-2.5v-1h2.6c0.1-0.5,0.1-1.1,0.1-1.7H66.8z
				 M71.8,261.7h-4v2.6h4V261.7z M75.3,261.5v8.7h-1v-8.7H75.3z M75,273l-0.2-1c0.7,0,1.3,0.1,1.9,0.1c0.4,0,0.7-0.3,0.7-0.8v-11h1
				v11.3c0,0.9-0.4,1.4-1.3,1.4H75z"/>
		</g>
	</g>
</g>
<g>
	<g>
		<rect x="137.7" y="248.9" class="st4" width="97.5" height="46.7"/>
		<rect x="135.7" y="246" class="st5" width="97.5" height="46.7"/>
	</g>
	<g transform="translate(20,3.6328125)">
		<g class="st2">
			<path class="st3" d="M143.1,263.4c0.8,3.8,2.8,6.7,6.1,8.7l-0.7,0.9c-2.9-1.9-4.8-4.4-5.8-7.6c-0.8,3.1-2.8,5.6-5.9,7.6l-0.6-0.9
				c3.9-2.4,5.8-5.6,6-9.6c0-1,0-1.7,0-2.2h1C143.2,261.5,143.2,262.5,143.1,263.4z"/>
			<path class="st3" d="M151,273.1l-0.7-0.7c0.5-1.3,0.8-2.9,0.8-4.9v-6.7h3.5v10.9c0,0.9-0.4,1.3-1.3,1.3h-0.9l-0.2-0.9
				c0.3,0,0.6,0,0.8,0c0.4,0,0.7-0.3,0.7-0.8v-3H152C151.9,270.3,151.6,271.8,151,273.1z M153.7,261.8H152v2.4h1.7V261.8z
				 M152,267.4h1.7V265H152V267.4z M155.2,265.8l-0.5-0.8c1.6-1.2,2.9-2.8,3.8-4.7h0.9c0.7,1.8,2,3.3,3.9,4.7l-0.5,0.8
				c-0.6-0.4-1.1-0.9-1.6-1.4v0.8h-4.3v-0.8C156.3,264.9,155.8,265.4,155.2,265.8z M159.7,271.6c0.6-1.5,1.2-3.3,1.6-5.5l1,0.3
				c-0.4,2-1,3.7-1.6,5.2h2.3v1h-7.9v-1H159.7z M157.6,270.6l-0.9,0.2c-0.3-1.4-0.7-2.7-1.2-4l0.9-0.3
				C156.9,267.7,157.3,269.1,157.6,270.6z M158.9,261.3c-0.6,1.2-1.2,2.2-2,3h4C160.1,263.4,159.4,262.4,158.9,261.3z M159.7,269.9
				l-0.9,0.2c-0.3-1.3-0.6-2.6-1-3.9l0.9-0.3C159,267.1,159.4,268.4,159.7,269.9z"/>
			<path class="st3" d="M167.3,264.5v6.2c0.4-0.4,0.9-0.9,1.4-1.4l0.3,1.1c-0.8,0.8-1.7,1.5-2.6,2.2l-0.4-0.9
				c0.2-0.2,0.3-0.4,0.3-0.6v-5.6h-2v-1L167.3,264.5L167.3,264.5z M168.3,262.5l-0.7,0.7c-0.6-0.7-1.4-1.4-2.4-2.1l0.7-0.7
				C166.9,261.1,167.7,261.8,168.3,262.5z M172.2,268.9c-0.7,1.6-1.5,3.1-2.5,4.3l-0.9-0.6c1-1.1,1.8-2.5,2.5-4L172.2,268.9z
				 M176.3,261.1v6.5h-6.4v-6.5H176.3z M175.2,262h-4.4v4.6h4.4V262z M177.2,272.5l-0.9,0.6c-0.6-1.3-1.4-2.6-2.5-4.2l0.8-0.5
				C175.8,270,176.6,271.3,177.2,272.5z"/>
			<path class="st3" d="M179.1,265.3v-4.5h6v4.5h-2.7c0,0.6-0.1,1.2-0.1,1.7h3c0,2.4-0.1,3.9-0.2,4.5c-0.1,0.9-0.8,1.4-2,1.4
				c-0.2,0-0.5,0-1,0l-0.2-0.9c0.4,0,0.8,0.1,1,0.1c0.7,0,1.1-0.3,1.2-0.9c0.1-0.4,0.1-1.4,0.2-3.2H182c-0.2,0.9-0.3,1.6-0.6,2.1
				c-0.5,1.2-1.4,2.2-2.6,3.1l-0.6-0.8c1.1-0.7,1.8-1.6,2.3-2.7c0.2-0.4,0.3-1,0.5-1.7h-2.5v-1h2.6c0.1-0.5,0.1-1.1,0.1-1.7H179.1z
				 M184.1,261.7h-4v2.6h4V261.7z M187.6,261.5v8.7h-1v-8.7H187.6z M187.2,273l-0.2-1c0.7,0,1.3,0.1,1.9,0.1c0.4,0,0.7-0.3,0.7-0.8
				v-11h1v11.3c0,0.9-0.4,1.4-1.3,1.4H187.2z"/>
		</g>
	</g>
</g>
<g>
	<g>
		<rect x="247.7" y="248.9" class="st4" width="97.5" height="46.7"/>
		<rect x="245.7" y="246" class="st5" width="97.5" height="46.7"/>
	</g>
	<g transform="translate(20.5546875,3.6328125)">
		<g class="st2">
			<path class="st3" d="M258.4,273.1h-1v-0.6H248v0.6h-1v-12.2h11.4V273.1z M257.4,271.6v-9.9H248v9.9H257.4z M252.3,262.2
				c-0.1,0.3-0.2,0.5-0.4,0.8h3.7v0.7c-0.4,0.7-1,1.4-1.8,2c0.9,0.4,2,0.8,3.2,1.1l-0.5,0.8c-1.4-0.4-2.5-0.8-3.5-1.4
				c-1.1,0.6-2.4,1-4,1.4l-0.4-0.8c1.4-0.3,2.7-0.6,3.6-1.1c-0.5-0.4-1-0.8-1.4-1.2c-0.4,0.4-0.9,0.8-1.4,1.1l-0.6-0.7
				c1.3-0.8,2.1-1.7,2.6-2.7L252.3,262.2z M255.6,270.4l-0.3,0.8c-1.7-0.7-3.5-1.2-5.4-1.6l0.4-0.8
				C252.1,269.3,253.9,269.8,255.6,270.4z M254.7,268.3l-0.5,0.7c-1-0.6-2-1-3-1.4l0.5-0.7C252.8,267.3,253.8,267.8,254.7,268.3z
				 M254.6,263.7h-3.2c-0.1,0.1-0.1,0.1-0.1,0.2c0.5,0.5,1.1,0.9,1.7,1.3C253.7,264.8,254.2,264.3,254.6,263.7z"/>
			<path class="st3" d="M260.5,267l-0.3-1.1c1.3-1.7,2.2-3.6,2.8-5.7l0.9,0.4c-0.3,1-0.6,1.9-1.1,2.8v9.7h-1v-7.9
				C261.5,265.8,261,266.4,260.5,267z M264.1,263.9l-0.6-0.8c1.4-0.8,2.5-1.8,3.4-3l1,0.2c-0.2,0.3-0.4,0.5-0.6,0.8h3.5v0.7
				c-0.4,0.5-0.7,0.9-1.1,1.2h2.6v3.1h-4.2l0,0c0.6,0.6,1.1,1.3,1.4,2c1-0.4,1.8-0.9,2.4-1.6l0.7,0.8c-0.4,0.4-0.9,0.7-1.4,1
				c0.4,1.3,1.1,2.4,2.1,3.4l-0.7,0.8c-1-1.1-1.8-2.4-2.2-3.8c-0.2,0.1-0.4,0.2-0.6,0.3c0.1,0.5,0.2,1,0.3,1.5c0,1-0.2,1.6-0.5,2
				c-0.3,0.3-0.8,0.5-1.5,0.6c-0.3,0-0.5,0-0.8,0l-0.3-0.9c0.4,0,0.7,0,1,0s0.6-0.1,0.8-0.4c0.2-0.2,0.3-0.7,0.3-1.3
				c0-0.2,0-0.3,0-0.5c-1.2,1.1-2.8,2-4.7,2.7l-0.5-0.9c2.2-0.7,3.9-1.6,5.1-2.7c-0.1-0.3-0.2-0.6-0.3-0.9c-1,0.9-2.4,1.7-4.2,2.3
				l-0.5-0.8c1.8-0.6,3.3-1.3,4.3-2.1c-0.2-0.3-0.4-0.5-0.6-0.7c-0.8,0.8-2,1.3-3.3,1.6l-0.4-0.8c1.3-0.3,2.4-0.8,3.1-1.5h-2.3v-2.5
				C264.4,263.7,264.2,263.8,264.1,263.9z M269.6,261.9h-3c-0.4,0.4-0.8,0.8-1.2,1.1h3.1C268.8,262.7,269.2,262.3,269.6,261.9z
				 M268.1,263.9h-2.5v1.4h2C267.8,264.8,268,264.4,268.1,263.9z M271.3,263.9h-2.2c-0.1,0.5-0.3,1-0.5,1.4h2.7V263.9z"/>
			<path class="st3" d="M277.3,264.5v6.2c0.4-0.4,0.9-0.9,1.4-1.4l0.3,1.1c-0.8,0.8-1.7,1.5-2.6,2.2l-0.4-0.9
				c0.2-0.2,0.3-0.4,0.3-0.6v-5.6h-2v-1L277.3,264.5L277.3,264.5z M278.3,262.5l-0.7,0.7c-0.6-0.7-1.4-1.4-2.4-2.1l0.7-0.7
				C276.9,261.1,277.7,261.8,278.3,262.5z M282.2,268.9c-0.7,1.6-1.5,3.1-2.5,4.3l-0.9-0.6c1-1.1,1.8-2.5,2.5-4L282.2,268.9z
				 M286.3,261.1v6.5h-6.4v-6.5H286.3z M285.2,262h-4.4v4.6h4.4V262z M287.2,272.5l-0.9,0.6c-0.6-1.3-1.4-2.6-2.5-4.2l0.8-0.5
				C285.8,270,286.6,271.3,287.2,272.5z"/>
			<path class="st3" d="M289.1,265.3v-4.5h6v4.5h-2.7c0,0.6-0.1,1.2-0.1,1.7h3c0,2.4-0.1,3.9-0.2,4.5c-0.1,0.9-0.8,1.4-2,1.4
				c-0.2,0-0.5,0-1,0l-0.2-0.9c0.4,0,0.8,0.1,1,0.1c0.7,0,1.1-0.3,1.2-0.9c0.1-0.4,0.1-1.4,0.2-3.2H292c-0.2,0.9-0.3,1.6-0.6,2.1
				c-0.5,1.2-1.4,2.2-2.6,3.1l-0.6-0.8c1.1-0.7,1.8-1.6,2.3-2.7c0.2-0.4,0.3-1,0.5-1.7h-2.5v-1h2.6c0.1-0.5,0.1-1.1,0.1-1.7H289.1z
				 M294.1,261.7h-4v2.6h4V261.7z M297.6,261.5v8.7h-1v-8.7H297.6z M297.2,273l-0.2-1c0.7,0,1.3,0.1,1.9,0.1c0.4,0,0.7-0.3,0.7-0.8
				v-11h1v11.3c0,0.9-0.4,1.4-1.3,1.4H297.2z"/>
		</g>
	</g>
</g>
<g>
	<g>
		<rect x="396.5" y="247.3" class="st4" width="97.5" height="47.1"/>
		<rect x="394.5" y="244.4" class="st5" width="97.5" height="47.1"/>
	</g>
	<g transform="translate(20,3.7578125)">
		<g class="st2">
			<path class="st3" d="M398.1,262.8v6.2c0.4-0.4,0.9-0.9,1.4-1.4l0.3,1.1c-0.8,0.8-1.7,1.5-2.6,2.2l-0.4-0.9
				c0.2-0.2,0.3-0.4,0.3-0.6v-5.6H395v-1L398.1,262.8L398.1,262.8z M399.1,260.7l-0.7,0.7c-0.6-0.6-1.3-1.3-2.3-2l0.7-0.7
				C397.7,259.3,398.5,260,399.1,260.7z M407.5,259v0.9h-3.9l-0.3,1.6h3.4v2.8h1.3v0.9h-8.5v-0.9h2.2l0.4-1.8h-1.9v-0.9h2.1l0.3-1.6
				h-2.7v-1H407.5z M407,271.3h-1v-0.7h-4.5v0.7h-1v-4.8h6.5V271.3z M406,269.7v-2.3h-4.5v2.3H406z M405.6,264.3v-1.8h-2.5l-0.4,1.8
				H405.6z"/>
			<path class="st3" d="M415.1,259.8c-0.2-0.5-0.4-0.9-0.7-1.3l1.1-0.2c0.2,0.4,0.4,0.9,0.6,1.5h4.9v0.9h-2.2
				c-0.2,0.8-0.5,1.5-0.9,2.2h3.7v0.9h-12.4V263h3.6c-0.2-0.8-0.5-1.6-0.8-2.2h-2v-0.9h5.1V259.8z M419.9,271.3h-1v-0.6h-6.6v0.6h-1
				v-6.2h8.7v6.2H419.9z M418.9,267.4V266h-6.6v1.5h6.6V267.4z M418.9,269.8v-1.5h-6.6v1.5H418.9z M414,263h3
				c0.4-0.7,0.7-1.5,0.8-2.2h-4.6C413.5,261.4,413.7,262.2,414,263z"/>
			<path class="st3" d="M426.1,262.8v6.2c0.4-0.4,0.9-0.9,1.4-1.4l0.3,1.1c-0.8,0.8-1.7,1.5-2.6,2.2l-0.4-0.9
				c0.2-0.2,0.3-0.4,0.3-0.6v-5.6h-2v-1L426.1,262.8L426.1,262.8z M427.1,260.7l-0.7,0.7c-0.6-0.7-1.4-1.4-2.4-2.1l0.7-0.7
				C425.7,259.3,426.5,260,427.1,260.7z M431,267.1c-0.7,1.6-1.5,3.1-2.5,4.3l-0.9-0.6c1-1.1,1.8-2.5,2.5-4L431,267.1z M435.1,259.3
				v6.5h-6.4v-6.5H435.1z M434,260.3h-4.4v4.6h4.4V260.3z M436,270.7l-0.9,0.6c-0.6-1.3-1.4-2.6-2.5-4.2l0.8-0.5
				C434.6,268.2,435.4,269.6,436,270.7z"/>
			<path class="st3" d="M437.9,263.5V259h6v4.5h-2.7c0,0.6-0.1,1.2-0.1,1.7h3c0,2.4-0.1,3.9-0.2,4.5c-0.1,0.9-0.8,1.4-2,1.4
				c-0.2,0-0.5,0-1,0l-0.2-0.9c0.4,0,0.8,0.1,1,0.1c0.7,0,1.1-0.3,1.2-0.9c0.1-0.4,0.1-1.4,0.2-3.2H441c-0.2,0.9-0.3,1.6-0.6,2.1
				c-0.5,1.2-1.4,2.2-2.6,3.1l-0.6-0.8c1.1-0.7,1.8-1.6,2.3-2.7c0.2-0.4,0.3-1,0.5-1.7h-2.5v-0.9h2.6c0.1-0.5,0.1-1.1,0.1-1.7h-2.3
				V263.5z M442.9,259.9h-4v2.6h4V259.9z M446.4,259.7v8.7h-1v-8.7H446.4z M446,271.2l-0.2-1c0.7,0,1.3,0.1,1.9,0.1
				c0.4,0,0.7-0.3,0.7-0.8v-11h1v11.3c0,0.9-0.4,1.4-1.3,1.4H446z"/>
		</g>
	</g>
</g>
<g>
	<g>
		<rect x="510.1" y="247.3" class="st4" width="98.6" height="46.7"/>
		<rect x="508.1" y="244.4" class="st5" width="98.6" height="46.7"/>
	</g>
	<g transform="translate(20,3.6328125)">
		<g class="st2">
			<path class="st3" d="M511.7,262.9v6.2c0.4-0.4,0.9-0.9,1.4-1.4l0.3,1.1c-0.8,0.8-1.7,1.5-2.6,2.2l-0.4-0.9
				c0.2-0.2,0.3-0.4,0.3-0.6v-5.6h-2.1v-1L511.7,262.9L511.7,262.9z M512.7,260.8l-0.7,0.7c-0.6-0.6-1.3-1.3-2.3-2l0.7-0.7
				C511.3,259.5,512.1,260.1,512.7,260.8z M521.1,259.2v0.9h-3.9l-0.3,1.6h3.4v2.8h1.3v0.9h-8.5v-0.9h2.2l0.4-1.8h-1.9v-0.9h2.1
				l0.3-1.6h-2.7v-0.9h7.6V259.2z M520.6,271.5h-1v-0.7h-4.5v0.7h-1v-4.8h6.5V271.5z M519.6,269.8v-2.3h-4.5v2.3H519.6z
				 M519.2,264.4v-1.8h-2.5l-0.4,1.8H519.2z"/>
			<path class="st3" d="M528.6,260c-0.2-0.5-0.4-0.9-0.7-1.3l1.1-0.2c0.2,0.4,0.4,0.9,0.6,1.5h4.9v0.9h-2.2
				c-0.2,0.8-0.5,1.5-0.9,2.2h3.7v0.9h-12.4v-0.9h3.6c-0.2-0.8-0.5-1.6-0.8-2.2h-2.2V260H528.6z M533.4,271.4h-1v-0.6h-6.6v0.6h-1
				v-6.2h8.7v6.2H533.4z M532.4,267.6v-1.5h-6.6v1.5H532.4z M532.4,269.9v-1.5h-6.6v1.5H532.4z M527.5,263.1h3
				c0.4-0.7,0.7-1.5,0.8-2.2h-4.6C527,261.6,527.3,262.3,527.5,263.1z"/>
			<path class="st3" d="M543.4,258.6c1.8,2.1,3.8,3.7,6.2,4.9l-0.5,1c-2.3-1.3-4.3-2.9-6-4.9c-1.5,1.9-3.5,3.5-6,4.9l-0.5-1
				c2.5-1.3,4.6-2.9,6.2-4.9H543.4z M547.5,271.4h-1v-0.8h-6.9v0.8h-1v-5.6h8.9V271.4z M546.7,263v1h-7.3v-1H546.7z M546.5,269.6
				v-2.9h-6.9v2.9H546.5z"/>
			<path class="st3" d="M562.2,260.1l-0.6,0.6h1.7v1H559c0.1,1.7,0.3,3.1,0.5,4.1c0.1,0.3,0.2,0.7,0.3,1c0.7-1.1,1.3-2.4,1.7-3.9
				l0.9,0.4c-0.6,1.8-1.3,3.4-2.2,4.7c0.2,0.4,0.4,0.8,0.6,1.2c0.5,0.7,0.8,1,1.1,1s0.5-0.7,0.7-2.2l0.9,0.5
				c-0.3,1.9-0.8,2.8-1.4,2.8c-0.6,0-1.2-0.4-1.9-1.3c-0.3-0.3-0.5-0.7-0.7-1.2c-1,1.1-2.1,2-3.4,2.6l-0.6-0.8
				c1.4-0.6,2.6-1.6,3.6-2.8c-0.2-0.5-0.4-1.1-0.5-1.7c-0.3-1.2-0.5-2.6-0.6-4.4h-4.8v2.3h3.4c0,2.4-0.1,3.9-0.3,4.6
				c-0.2,0.6-0.6,0.9-1.3,0.9c-0.3,0-0.7,0-1.2-0.1l-0.3-0.9c0.5,0,1,0,1.4,0c0.3,0,0.5-0.2,0.6-0.6c0.1-0.5,0.1-1.5,0.2-3h-2.4v0.4
				c-0.1,2.5-0.6,4.5-1.7,6l-0.8-0.7c0.9-1.3,1.4-3.1,1.4-5.4v-4.7h5.8c0-0.7,0-1.4,0-2.2h1c0,0.8,0,1.5,0,2.2h2.6
				c-0.4-0.5-1-1-1.7-1.6l0.6-0.6C561.2,259.1,561.7,259.6,562.2,260.1z"/>
		</g>
	</g>
</g>
<g>
	<g>
		<rect x="628.2" y="247.3" class="st4" width="92.6" height="47.1"/>
		<rect x="626.2" y="244.4" class="st5" width="92.6" height="47.1"/>
	</g>
	<g transform="translate(10.000011444091797,3.7598876953125)">
		<g class="st2">
			<path class="st3" d="M636.8,258.7c-0.3,1-0.8,1.9-1.3,2.7h2.9v1h-4.7v0.7c0,0.7-0.1,1.4-0.2,1.9h5.7v1h-5.1
				c0.7,1.9,2.5,3.4,5.4,4.4l-0.6,0.9c-3.1-1.2-5-2.9-5.7-5.1c-0.3,0.8-0.6,1.5-1.1,2.1c-1,1.2-2.5,2.2-4.7,2.9l-0.5-0.9
				c2.1-0.7,3.6-1.6,4.5-2.7c0.3-0.5,0.6-1.1,0.8-1.7h-5v-1h5.3c0.1-0.6,0.2-1.3,0.2-1.9v-0.7H628v-1h6.4c0.5-0.8,1-1.8,1.4-3
				L636.8,258.7z M632.1,260.9l-0.9,0.5c-0.5-0.9-1-1.7-1.6-2.4l0.9-0.4C631.1,259.3,631.6,260,632.1,260.9z"/>
			<path class="st3" d="M641.4,263.7l-0.8-0.5c0.7-1.5,1.1-3.1,1.4-4.8l1,0.2c-0.1,0.5-0.2,1-0.3,1.5h2.1v1h-2.4
				c-0.2,0.7-0.4,1.3-0.7,1.9h3v0.9h-1.2v1.7h1.4v0.9h-1.4v3.2c0.5-0.3,0.9-0.6,1.4-1l0.2,0.9c-0.7,0.5-1.5,1-2.5,1.3l-0.4-0.8
				c0.3-0.1,0.4-0.2,0.4-0.4v-3.2H641v-0.9h1.6v-1.7L641.4,263.7l0.1-0.2C641.5,263.6,641.5,263.6,641.4,263.7z M653.6,270.1l-0.2,1
				h-1.5c-2.1,0-3.5-0.3-4.2-0.8c-0.3-0.2-0.6-0.5-0.9-0.8c-0.3,0.6-0.7,1.2-1.1,1.7l-0.7-0.7c0.5-0.5,0.9-1.1,1.2-1.8
				c-0.5-0.8-0.9-1.8-1.2-2.9l0.8-0.3c0.2,0.8,0.4,1.6,0.8,2.2c0.3-1,0.4-2,0.5-3.3h-1.7v-0.7c0.6-1,1.1-2,1.5-3.1h-1.6v-0.9h2.5
				v0.8c-0.5,1.2-0.9,2.2-1.4,3h1.4v0.5c0,1.8-0.3,3.2-0.7,4.5c0.4,0.4,0.8,0.8,1.2,1c0.6,0.3,1.6,0.5,3,0.5
				C652.4,270.2,653.1,270.1,653.6,270.1z M650.8,264.4v1.1h2.1v0.8h-2.1v1.1h2.5v0.8h-2.5v1.4h-0.9v-1.4H648v-0.8h1.9v-1.1h-1.5
				v-0.8h1.5v-1.1h-1.4v-0.8h1.4v-1.1H648v-0.8h1.9v-1.2h-1.4v-0.8h1.4v-1h0.9v1h1.9v2h0.7v0.8h-0.7v1.9H650.8z M650.8,261.6h1.1
				v-1.2h-1.1V261.6z M650.8,263.5h1.1v-1.1h-1.1V263.5z"/>
			<path class="st3" d="M657.8,262.8v6.1c0.4-0.4,0.8-0.8,1.3-1.3l0.3,1.1c-0.8,0.8-1.6,1.5-2.5,2.1l-0.4-0.9
				c0.2-0.2,0.3-0.4,0.3-0.6v-5.6h-2v-1L657.8,262.8L657.8,262.8z M658.8,260.8l-0.7,0.7c-0.6-0.7-1.4-1.4-2.4-2.2l0.7-0.7
				C657.4,259.3,658.2,260,658.8,260.8z M663.9,271.3l-0.3-1h1.7c0.5,0,0.7-0.3,0.7-0.8V260h-6.7v-1h7.7v10.8c0,0.9-0.5,1.4-1.5,1.4
				h-1.6V271.3z M665.1,261.7v1h-5.4v-1H665.1z M664.5,264.2v4.3h-4.3v-4.3H664.5z M663.6,265h-2.4v2.6h2.4V265z"/>
			<path class="st3" d="M670.8,261.2v-2.7h1v2.7h1.4v1h-1.4v0.7c0.6,0.6,1.1,1.3,1.7,2.1l-0.6,0.9c-0.4-0.8-0.8-1.5-1.1-2v7.4h-1
				v-6.9c-0.4,1.4-1,2.7-1.7,3.8l-0.4-1.1c1-1.4,1.7-3.1,2.1-4.9H669v-1H670.8z M673.6,264l-0.5-0.9c1.7-1.2,2.9-2.7,3.8-4.7h0.9
				c0.8,1.8,2,3.3,3.9,4.6l-0.5,0.9c-0.6-0.4-1.1-0.9-1.6-1.4v0.9h-4.3v-0.9C674.7,263.1,674.2,263.6,673.6,264z M678.2,269.9
				c0.6-1.5,1.1-3.3,1.5-5.5l1,0.3c-0.4,2-0.9,3.7-1.5,5.3h2.2v1h-8v-1L678.2,269.9L678.2,269.9z M676,268.8l-0.9,0.2
				c-0.3-1.4-0.6-2.7-1-4l0.9-0.3C675.3,265.9,675.7,267.3,676,268.8z M677.4,259.5c-0.6,1.2-1.3,2.2-2.1,3h4.2
				C678.6,261.6,677.9,260.6,677.4,259.5z M678.1,268.2l-0.9,0.2c-0.2-1.3-0.5-2.6-0.9-3.9l0.9-0.3
				C677.5,265.4,677.8,266.7,678.1,268.2z"/>
			<path class="st3" d="M687.4,268.9c-1.1,0.8-2.4,1.5-4,2.1l-0.4-0.9c1.5-0.5,2.8-1.1,3.8-1.8L687.4,268.9z M688.7,259.6v-1.1h1
				v1.1h4.7v0.9h-4.7v1.2h5.3v2.6h-1v-1.7h-5.4l0.8,0.4c-0.8,0.7-1.7,1.2-2.6,1.7c1.3,0,2.3-0.1,3.1-0.1c0.5-0.3,1-0.7,1.5-1.1
				l0.8,0.5c-1.7,1.2-3.4,2.2-5.3,2.8c1.8-0.1,3.6-0.2,5.4-0.3c-0.3-0.3-0.6-0.7-1-1l0.7-0.5c1,1,1.8,1.9,2.4,2.6l-0.8,0.5
				c-0.2-0.3-0.5-0.7-0.8-1c-1.1,0.1-2.2,0.1-3.2,0.2v2.7c0,0.7-0.4,1.1-1.1,1.1h-1.3l-0.2-0.9c0.4,0,0.8,0.1,1.1,0.1
				s0.5-0.2,0.5-0.4v-2.4c-1.5,0.1-3,0.1-4.2,0.2l-0.2-0.9c0.3,0,0.6,0,0.9,0c1.1-0.3,2.3-0.8,3.6-1.5c-1,0-2,0.1-3.2,0.1l-0.2-0.8
				c0.2,0,0.4-0.1,0.6-0.2c0.9-0.5,1.8-1.1,2.6-1.8h-4.2v1.7h-1v-2.5h5.3v-1.2h-4.7v-0.9h4.8V259.6z M695.2,270.2l-0.5,0.8
				c-1.3-0.8-2.6-1.5-4-2l0.5-0.7C692.7,268.8,694,269.5,695.2,270.2z"/>
		</g>
	</g>
</g>
<g>
	<g>
		<rect x="768" y="245.7" class="st4" width="106" height="46.9"/>
		<rect x="766" y="242.8" class="st5" width="106" height="46.9"/>
	</g>
	<g transform="translate(10.004501342773438,3.0625)">
		<g class="st2">
			<path class="st3" d="M770.9,260.4v-2.7h1v2.7h1.7v1h-1.7v0.7c0.6,0.7,1.3,1.4,2,2.2l-0.6,0.9c-0.5-0.9-1-1.6-1.4-2.1v7.4h-1v-7.1
				c-0.5,1.4-1.1,2.7-1.9,3.8l-0.4-1.1c1.1-1.4,1.8-2.9,2.3-4.7h-2v-1L770.9,260.4L770.9,260.4z M774.3,267c0.2-0.9,0.3-2,0.3-3.4
				v-5.3h4.5v10.6c0,0.2,0.1,0.4,0.3,0.4h0.5c0.2,0,0.3,0,0.4-0.1c0.1-0.1,0.2-0.2,0.2-0.4c0.1-0.3,0.1-1.1,0.1-2.4l0.9,0.3
				c0,1,0,1.8-0.1,2.3s-0.2,0.8-0.4,1s-0.6,0.2-1,0.2h-0.6c-0.9,0-1.3-0.4-1.3-1.2v-9.7h-2.5v4.4c0,1.5-0.1,2.8-0.4,3.9
				c-0.2,1.1-0.7,2.1-1.3,3.1l-0.8-0.7C773.6,268.9,774,268,774.3,267z"/>
			<path class="st3" d="M787.6,263c0.3-0.4,0.5-0.7,0.6-1.1l1,0.1c-0.1,0.4-0.3,0.7-0.5,1h3.6c-0.2-0.3-0.4-0.7-0.6-1l0.9-0.3
				c0.3,0.4,0.5,0.8,0.8,1.2h1.9v0.9h-3.8c0.9,0.8,2.3,1.5,4.1,2l-0.4,0.9c-0.4-0.1-0.7-0.2-1-0.3v4.1h-0.9v-0.6h-2.6v0.6h-0.9v-4.4
				h3.7c-1.3-0.6-2.4-1.4-3.1-2.2H788c-0.8,0.9-1.8,1.6-3.2,2.2h3.5v4.4h-0.9v-0.6H785v0.6h-0.9v-4.1c-0.4,0.1-0.8,0.3-1.1,0.4
				l-0.5-0.8c1.8-0.5,3.2-1.2,4.1-2.1h-3.9V263H787.6z M788.2,258.1v3.4H784v-3.4H788.2z M787.3,259h-2.4v1.7h2.4V259z M787.4,269
				v-2.1H785v2.1H787.4z M794.1,258.1v3.4h-4.4v-3.4H794.1z M793.2,269v-2.1h-2.6v2.1H793.2z M793.2,259h-2.5v1.7h2.5V259z"/>
			<path class="st3" d="M806.8,262.6v0.9c-0.9,0.6-1.9,1.2-3.1,1.7v0.7h5.3v1h-5.3v2.4c0,0.8-0.4,1.1-1.2,1.1h-1.8l-0.2-0.9
				c0.5,0,1.1,0,1.7,0c0.3,0,0.5-0.2,0.5-0.6v-2H797v-1h5.7v-1.2c1.2-0.5,2.1-0.9,2.7-1.3h-6.1v-0.9L806.8,262.6L806.8,262.6z
				 M808.9,263.6h-1v-2.2h-9.8v2.2h-1v-3.1h8c0.6-0.9,1.1-1.9,1.6-2.9l1,0.4c-0.5,1-1,1.8-1.5,2.5h2.7V263.6z M800.5,259.9l-0.9,0.4
				c-0.5-0.8-1-1.5-1.5-2.2l0.9-0.4C799.6,258.4,800.1,259.1,800.5,259.9z M803.8,259.8l-0.9,0.4c-0.4-0.9-0.9-1.6-1.3-2.3l0.9-0.4
				C802.9,258.2,803.4,258.9,803.8,259.8z"/>
			<path class="st3" d="M819.2,265.1c-2,1.2-4.4,2.3-7.4,3.3l-0.4-0.9c2.9-0.9,5.4-2,7.5-3.3L819.2,265.1z M817.2,269.4
				c0.8,0,1.5,0,2.3,0c0.4,0,0.7-0.2,1-0.6c0.2-0.4,0.3-1.3,0.4-2.8c0-1,0-3.2,0.1-6.6h-9.1v-1H822c-0.1,4.6-0.1,7.4-0.2,8.3
				c-0.1,1.4-0.2,2.3-0.5,2.8s-0.8,0.8-1.5,0.8c-0.6,0-1.3,0-2.2,0L817.2,269.4z M816.4,263.5l-0.7,0.7c-0.7-0.8-1.7-1.7-3-2.7
				l0.7-0.7C814.6,261.7,815.6,262.6,816.4,263.5z"/>
			<path class="st3" d="M836.7,258.2v1h-5.2v5.3h5.7v1h-5.7v5h-1v-5h-5.6v-1h5.6v-5.3h-5.1v-1H836.7z M828.6,263.3l-0.9,0.5
				c-0.5-1.2-1-2.3-1.5-3.2l0.9-0.5C827.6,261.1,828.1,262.2,828.6,263.3z M835.9,260.5c-0.4,1.1-1,2.2-1.7,3.2l-0.9-0.5
				c0.7-1.1,1.2-2.2,1.6-3.2L835.9,260.5z"/>
			<path class="st3" d="M839.1,262.2c1.2-0.4,2.8-2,4.6-4.7l1,0.4c-1.3,1.8-2.5,3.2-3.8,4.3c2.7-0.1,5.2-0.3,7.6-0.5
				c-0.5-0.8-1.1-1.5-1.6-2.1l0.9-0.4c1.2,1.4,2.3,3,3.4,4.7l-1,0.5c-0.4-0.6-0.7-1.1-1-1.7c-3,0.3-6.2,0.5-9.9,0.6L839.1,262.2z
				 M849.7,270.5h-1v-0.7h-7.3v0.7h-1v-5.8h9.4v5.8H849.7z M848.7,268.8v-3.2h-7.3v3.2H848.7z"/>
		</g>
	</g>
</g>
<g>
	<rect x="23.5" y="376.2" class="st4" width="115.5" height="47.1"/>
	<rect x="21.5" y="373.3" class="st5" width="115.5" height="47.1"/>
	<g transform="translate(20,3.125)">
		<g class="st2">
			<path class="st3" d="M29.6,390c0.8,0.6,1.2,1.4,1.3,2.4h-1.1c-0.1-0.7-0.5-1.3-1.1-1.7c-0.5-0.4-1.2-0.6-2-0.6
				c-1.2,0-2.1,0.4-2.7,1.2c-0.6,0.8-0.9,1.8-0.9,3s0.3,2.2,0.9,3s1.5,1.2,2.7,1.2c0.8,0,1.5-0.2,2-0.6c0.6-0.4,1-1.1,1.2-2H31
				c-0.2,1.2-0.7,2.1-1.6,2.7c-0.8,0.6-1.7,0.9-2.8,0.9c-1.6,0-2.7-0.5-3.6-1.5c-0.8-0.9-1.1-2.1-1.1-3.6s0.4-2.7,1.1-3.7
				c0.8-1.1,2-1.6,3.6-1.6C27.9,389.1,28.8,389.4,29.6,390z"/>
			<path class="st3" d="M36.8,389.3c2.3,0,3.4,1,3.4,2.9c0,2-1.2,3-3.5,3h-2.9v4.1h-1.1v-10H36.8z M33.8,394.3h2.9
				c0.8,0,1.4-0.2,1.8-0.5c0.4-0.3,0.6-0.8,0.6-1.5s-0.2-1.2-0.6-1.5c-0.4-0.3-1-0.5-1.8-0.5h-2.9V394.3z"/>
			<path class="st3" d="M42.8,389.3v6.2c0,1,0.2,1.7,0.7,2.2s1.2,0.8,2.2,0.8s1.7-0.3,2.2-0.8c0.4-0.5,0.7-1.2,0.7-2.2v-6.2h1.1v6.2
				c0,1.3-0.3,2.3-1,3s-1.7,1.1-3,1.1s-2.3-0.4-3-1c-0.7-0.7-1-1.7-1-3v-6.2h1.1V389.3z"/>
			<path class="st3" d="M56.8,400.8l-0.8-0.7c0.6-1.3,0.8-2.9,0.9-4.8v-6.7H61v10.9c0,0.8-0.4,1.3-1.2,1.3h-1.1l-0.2-0.9
				c0.4,0,0.7,0.1,1.1,0.1c0.3,0,0.5-0.3,0.5-0.8V396h-2.3C57.8,397.9,57.4,399.5,56.8,400.8z M60.1,389.4h-2.3v2.4h2.3V389.4z
				 M57.9,395h2.3v-2.3h-2.3V395z M63.2,400.8h-1v-12.3h5.7c0,1.7-0.1,2.9-0.3,3.4c-0.2,0.6-0.7,0.9-1.6,0.9h-1.1l-0.3-0.9
				c0.2,0,0.5,0,0.9,0c0.3,0,0.6,0,0.7-0.1c0.2-0.1,0.3-0.2,0.4-0.4c0.1-0.3,0.2-1,0.2-2.1h-3.7v4.2h4.8v0.9
				c-0.3,1.4-0.7,2.7-1.4,3.7c0.6,0.6,1.4,1.2,2.2,1.7l-0.5,0.9c-0.9-0.5-1.7-1.1-2.3-1.7c-0.6,0.7-1.3,1.3-2.2,1.7l-0.5-0.8
				c0.8-0.4,1.5-1,2-1.7c-0.9-1.1-1.5-2.3-1.8-3.7h-0.3v6.3H63.2z M65.9,397.5c0.5-0.8,0.9-1.8,1.1-2.9h-2.7
				C64.7,395.6,65.2,396.6,65.9,397.5z"/>
			<path class="st3" d="M75.1,388c-0.2,0.4-0.3,0.7-0.5,1.1h6.1v0.8c-0.9,1-2,1.9-3.3,2.6c1.6,0.7,3.3,1.1,5.3,1.3l-0.5,0.9
				c-2.2-0.3-4.2-0.8-5.9-1.7c-1.7,0.8-3.7,1.4-6,1.7l-0.5-1c2-0.3,3.8-0.7,5.4-1.3c-0.8-0.5-1.5-1-2.2-1.6
				c-0.5,0.5-1.1,0.9-1.8,1.3l-0.6-0.8c1.7-1,2.8-2.1,3.4-3.5L75.1,388z M76.5,394.1c0,0.6-0.1,1.1-0.1,1.6h4.9
				c0,2.4-0.2,3.8-0.6,4.2c-0.4,0.5-1.1,0.7-2.1,0.7c-0.4,0-1,0-1.6-0.1l-0.3-0.9l1.7,0.1c0.8,0,1.4-0.2,1.6-0.5s0.3-1.2,0.4-2.6
				h-4.1c-0.1,0.4-0.3,0.7-0.4,1c-0.7,1.3-2.4,2.3-4.9,3.1l-0.7-0.8c2.3-0.7,3.8-1.5,4.6-2.5c0.2-0.3,0.3-0.5,0.4-0.8h-4.2v-0.9h4.5
				c0.1-0.5,0.2-1,0.2-1.6L76.5,394.1L76.5,394.1z M79.3,390h-5.4l-0.2,0.2c0.8,0.7,1.7,1.3,2.6,1.8C77.5,391.4,78.4,390.8,79.3,390
				z"/>
			<path class="st3" d="M88.8,393.2c0.3-0.4,0.5-0.7,0.6-1.1l1,0.1c-0.1,0.4-0.3,0.7-0.5,1h3.6c-0.2-0.3-0.4-0.7-0.6-1l0.9-0.3
				c0.3,0.4,0.5,0.8,0.8,1.2h1.9v0.9h-3.8c0.9,0.8,2.3,1.5,4.1,2l-0.4,0.9c-0.4-0.1-0.7-0.2-1-0.3v4.1h-0.9v-0.6h-2.6v0.6H91v-4.4
				h3.7c-1.3-0.6-2.4-1.4-3.1-2.2h-2.4c-0.8,0.9-1.8,1.6-3.2,2.2h3.5v4.4h-0.9v-0.6h-2.4v0.6h-0.9v-4.1c-0.4,0.1-0.8,0.3-1.1,0.4
				l-0.5-0.8c1.8-0.5,3.2-1.2,4.1-2.1h-3.9v-0.9L88.8,393.2L88.8,393.2z M89.5,388.4v3.4h-4.3v-3.4H89.5z M88.6,389.3h-2.4v1.7h2.4
				V389.3z M88.7,399.3v-2.1h-2.4v2.1H88.7z M95.4,388.4v3.4H91v-3.4H95.4z M94.5,399.3v-2.1h-2.6v2.1H94.5z M94.5,389.3H92v1.7h2.5
				V389.3z"/>
		</g>
	</g>
</g>
<rect x="210.2" y="376.2" class="st4" width="112" height="46.7"/>
<rect x="208.2" y="373.3" class="st5" width="112" height="46.7"/>
<g>
	<rect x="381.6" y="376.2" class="st4" width="139" height="46.7"/>
	<rect x="379.6" y="373.3" class="st5" width="139" height="46.7"/>
	<g transform="translate(20,3)">
		<g class="st2">
			<path class="st3" d="M387.2,389.2h5.5v0.9h-12.4v-0.9h5.7c-0.1-0.4-0.3-0.7-0.5-1.1l1.1-0.2C387,388.3,387.1,388.7,387.2,389.2z
				 M389.4,400.8l-0.2-0.9h1.1c0.6,0,0.9-0.2,0.9-0.7v-3.8h-9v5.4h-1v-6.3h11v4.9c0,0.9-0.5,1.3-1.5,1.3h-1.3V400.8z M390.5,391v2.7
				h-7.8V391H390.5z M389.6,391.8h-5.9v1.1h5.9V391.8z M389.4,396.4v2.8h-5.5v-2.8H389.4z M388.5,397.1h-3.7v1.3h3.7V397.1z"/>
			<path class="st3" d="M395.5,390.8c0,1.4-0.2,2.7-0.5,4l-0.8-0.2c0.3-1.2,0.5-2.5,0.5-3.8H395.5z M397.2,388.1v12.7h-1v-12.7
				H397.2z M399,392.8c0.5-1.2,0.8-2.5,0.8-3.9l0.9,0.1c0,0.6-0.1,1.1-0.2,1.7h2v-2.6h1v2.6h3.1v1h-3.1v3.4h2.8v1h-2.8v3.4h3.4v1
				h-8.5v-1h4v-3.4h-3.2v-1h3.2v-3.4h-2.2c-0.3,1-0.6,2-1.1,2.8l-0.7-0.7c0.2-0.3,0.3-0.6,0.4-0.9l-0.7,0.2
				c-0.2-0.9-0.5-1.7-0.8-2.5l0.7-0.2C398.5,391.1,398.7,391.9,399,392.8z"/>
			<path class="st3" d="M415.3,392l-0.8,0.6c-0.2-0.3-0.3-0.6-0.5-0.9c-1.5,0.2-3.3,0.4-5.4,0.5l-0.3-0.8c0.2-0.1,0.3-0.2,0.5-0.3
				c0.9-0.9,1.6-1.9,2.2-3l1,0.3c-0.6,1.2-1.3,2.2-2.1,2.9c1.2-0.1,2.4-0.2,3.7-0.4c-0.3-0.4-0.6-0.9-1-1.4l0.8-0.5
				C414.2,390.2,414.8,391.1,415.3,392z M410.1,400.9h-1V393h5.2v6.6c0,0.8-0.4,1.2-1.2,1.2H412l-0.3-1h1.1c0.3,0,0.5-0.2,0.5-0.5
				v-1.1h-3.2V400.9z M413.4,393.9h-3.2v1.4h3.2V393.9z M410.1,397.4h3.2v-1.3h-3.2V397.4z M416.9,394.1c-0.9,0-1.3-0.5-1.3-1.4V388
				h1v1.8c1.5-0.2,2.8-0.5,3.8-0.7l0.3,0.9c-1.2,0.3-2.5,0.6-4.1,0.8v1.8c0,0.4,0.2,0.7,0.6,0.7h1.8c0.3,0,0.5-0.1,0.6-0.2
				c0.1-0.2,0.2-0.7,0.3-1.6l0.9,0.3c-0.1,1.1-0.3,1.8-0.5,2.1c-0.2,0.2-0.6,0.3-1.1,0.3L416.9,394.1L416.9,394.1z M416.7,399.3
				c0,0.3,0.2,0.4,0.5,0.4h1.9c0.3,0,0.5-0.1,0.6-0.2c0.2-0.2,0.3-0.7,0.3-1.6l0.9,0.3c-0.1,1.1-0.3,1.8-0.5,2.1
				c-0.2,0.2-0.6,0.3-1.1,0.3h-2.4c-0.8,0-1.2-0.4-1.2-1.1v-4.9h1v1.7c1.4-0.1,2.6-0.4,3.8-0.7l0.3,0.9c-1.3,0.4-2.6,0.6-4.1,0.7
				L416.7,399.3L416.7,399.3z"/>
			<path class="st3" d="M434.9,392.7v1h-6.7c-1.3,2.6-2.4,4.5-3.4,5.5c2.5-0.1,5-0.4,7.5-0.7c-0.5-0.9-1.1-1.8-1.7-2.8l0.8-0.5
				c1.3,1.9,2.3,3.6,3,5.1l-0.9,0.6c-0.2-0.5-0.5-1-0.7-1.5c-2.8,0.4-5.9,0.6-9.3,0.9l-0.3-1c0.1,0,0.2-0.1,0.2-0.1
				c0.9-0.7,2.1-2.5,3.6-5.5h-4.7v-1H434.9z M433.7,388.8v1h-10v-1H433.7z"/>
			<path class="st3" d="M439.8,394.7c-0.1,0.3-0.2,0.5-0.3,0.8h2.9v0.8c-0.3,0.9-0.8,1.7-1.6,2.4c0.7,0.3,1.3,0.6,1.9,1l-0.5,0.8
				c-0.6-0.4-1.3-0.7-2.2-1.1c-0.9,0.6-2.1,1.2-3.5,1.6l-0.5-0.8c1.1-0.3,2.1-0.7,3-1.1c-0.6-0.3-1.3-0.5-1.9-0.8
				c0.4-0.6,0.7-1.2,1-1.8h-1.7v-0.9h2c0.1-0.3,0.2-0.6,0.3-0.9H439.8z M439.3,390.7V388h0.9v2.7h2.5v0.9h-2.5v0.2
				c0.8,0.4,1.5,0.8,2.3,1.3l-0.5,0.8c-0.7-0.6-1.3-1-1.8-1.3v1.8h-0.9v-2.7c-0.5,1.1-1.3,2.1-2.5,2.9l-0.5-0.8
				c1.1-0.6,1.8-1.3,2.3-2.1h-2v-0.9L439.3,390.7L439.3,390.7z M438.5,390l-0.7,0.3c-0.3-0.7-0.6-1.3-0.9-1.8l0.8-0.3
				C438,388.8,438.2,389.4,438.5,390z M441.6,396.3h-2.4c-0.2,0.5-0.5,0.9-0.8,1.3c0.6,0.2,1.1,0.4,1.6,0.6
				C440.7,397.7,441.2,397,441.6,396.3z M442.6,388.6c-0.3,0.6-0.6,1.2-1.1,1.8l-0.7-0.4c0.4-0.6,0.8-1.2,1.1-1.8L442.6,388.6z
				 M444.2,393.4c-0.3,0.6-0.5,1.2-0.8,1.7l-0.6-0.8c0.8-1.6,1.4-3.7,1.7-6.3l1,0.2c-0.1,0.7-0.2,1.4-0.3,2h3.7v1H448
				c-0.1,2.3-0.5,4.3-1.3,6c0.7,1.3,1.6,2.2,2.6,2.9l-0.5,0.8c-1-0.7-1.8-1.7-2.5-2.8c-0.7,1.1-1.5,2.1-2.6,2.8L443,400
				c1.1-0.8,1.9-1.7,2.6-2.9C445,396,444.5,394.8,444.2,393.4z M444.7,391.9c0.3,1.6,0.8,3.1,1.4,4.2c0.5-1.4,0.8-3.1,0.9-5h-2.1
				L444.7,391.9z"/>
			<path class="st3" d="M450.7,400.7l-0.2-1c0.4,0,0.7,0.1,1.1,0.1s0.5-0.2,0.5-0.6v-3.4c-0.6,0.2-1.1,0.4-1.7,0.6l-0.3-1
				c0.6-0.2,1.3-0.4,1.9-0.6v-3.2h-1.7v-1h1.7V388h1v2.6h1.3v1H453v2.8c0.4-0.2,0.9-0.4,1.3-0.6v1c-0.4,0.2-0.9,0.4-1.3,0.6v4.1
				c0,0.8-0.4,1.2-1.2,1.2H450.7z M454.5,400.9l-0.8-0.7c1-1.8,1.5-4.3,1.5-7.2v-4.4h7.4v3.4H460v1.7h3v0.9h-3v1.7h2.4v4.6h-0.9
				v-0.7h-3.8v0.7h-0.9v-4.6h2.3v-1.7h-2.9C455.9,396.9,455.4,399.1,454.5,400.9z M456.2,392v1c0,0.2,0,0.4,0,0.7h2.8V392H456.2z
				 M456.2,389.5v1.6h5.4v-1.6H456.2z M461.4,399.3v-2.1h-3.8v2.1H461.4z"/>
			<path class="st3" d="M471.8,389.3h5v1h-10.4v3.2c-0.1,3.1-0.5,5.6-1.4,7.4l-0.8-0.7c0.8-1.6,1.2-3.8,1.2-6.7v-4.2h5.3
				c-0.2-0.4-0.5-0.8-0.7-1.2l1.1-0.2C471.3,388.3,471.6,388.8,471.8,389.3z M471.2,390.9c-0.1,0.4-0.3,0.8-0.4,1.1h5.5v0.9h-5.8
				c-0.4,0.9-0.8,1.7-1.3,2.4h2.6v-1.7h1v1.7h3.1v0.9h-3.1v1.6h4.2v0.9h-4.2v2.2h-1v-2.2h-5.1v-0.9h5.1v-1.6h-3.7l-0.2-0.9
				c0.5-0.7,1-1.5,1.5-2.4h-2.1V392h2.5c0.2-0.4,0.3-0.9,0.5-1.3L471.2,390.9z"/>
		</g>
	</g>
</g>
<g>
	<rect x="573.1" y="376.2" class="st4" width="126" height="46.7"/>
	<rect x="571.1" y="373.3" class="st5" width="126" height="46.7"/>
	<g transform="translate(20,3)">
		<g class="st2">
			<path class="st3" d="M575.2,394.5c0.5-1.3,0.8-2.6,0.9-4.1h-3.8v-1h4.7v0.7c-0.1,1.9-0.5,3.6-1.2,5.2c0.6,0.8,1.1,1.6,1.6,2.4
				l-0.7,0.7c-0.4-0.7-0.9-1.4-1.4-2.1c-0.8,1.3-1.8,2.5-3.1,3.6l-0.6-0.9c1.3-1,2.3-2.2,3.1-3.6c-0.8-1.1-1.7-2.1-2.7-3.2l0.7-0.6
				C573.6,392.6,574.4,393.6,575.2,394.5z M580.7,396.4l-0.8,0.6c-0.6-1-1.3-2-2.1-3.1l0.8-0.6C579.4,394.5,580.2,395.5,580.7,396.4
				z M581.8,390.7V388h1v2.7h1.6v1h-1.6v7.7c0,0.9-0.5,1.4-1.4,1.4h-2.2l-0.2-1c0.7,0,1.4,0.1,2.1,0.1c0.5,0,0.8-0.3,0.8-0.7v-7.5
				h-4.1v-1H581.8z"/>
			<path class="st3" d="M586.4,391.7l-0.6-0.8c1.9-0.8,3.4-1.8,4.6-3l1,0.2c-0.2,0.3-0.5,0.5-0.7,0.8h4.5v0.7
				c-0.4,0.5-0.9,0.9-1.3,1.2h3.6v3.1h-5.6c0.8,0.6,1.4,1.3,1.8,2c1.4-0.4,2.5-1,3.5-1.6l0.7,0.8c-0.7,0.4-1.4,0.8-2.2,1.2
				c0.6,1.2,1.6,2.3,3.1,3.2l-0.7,0.8c-1.5-1.1-2.6-2.4-3.3-3.7c-0.2,0.1-0.5,0.2-0.7,0.2c0.2,0.5,0.3,1,0.3,1.5c0,1-0.2,1.6-0.6,2
				c-0.4,0.3-1,0.5-1.8,0.6c-0.3,0-0.6,0-1,0l-0.3-0.9c0.5,0,0.9,0,1.2,0c0.4,0,0.8-0.2,1.1-0.4c0.3-0.2,0.4-0.7,0.4-1.3
				c0-0.2,0-0.5-0.1-0.7c-1.6,1.2-3.8,2.1-6.5,2.9l-0.5-0.9c2.9-0.8,5.1-1.7,6.7-2.9c-0.1-0.3-0.3-0.6-0.5-0.9
				c-1.4,1-3.2,1.8-5.6,2.5l-0.5-0.9c2.4-0.6,4.3-1.3,5.6-2.2c-0.3-0.3-0.5-0.5-0.8-0.8c-1.1,0.8-2.6,1.4-4.5,1.7l-0.4-0.8
				c1.7-0.3,3.1-0.8,4.1-1.4h-3v-2.6C587.1,391.4,586.7,391.6,586.4,391.7z M593.9,389.7h-4.1c-0.5,0.4-1,0.7-1.5,1.1h4.3
				C593,390.5,593.4,390.1,593.9,389.7z M592.1,391.6h-3.7v1.4h2.9C591.7,392.6,591.9,392.2,592.1,391.6z M596.5,391.6h-3.4
				c-0.2,0.5-0.4,1-0.6,1.4h4V391.6z"/>
			<path class="st3" d="M604,389.5c0.2-0.5,0.4-1,0.5-1.5l1,0.1c-0.1,0.5-0.3,0.9-0.4,1.4h7.2v1h-7.5c-0.5,1.2-1.2,2.3-1.9,3.3v7.1
				h-1V395c-0.5,0.5-1,1-1.5,1.5l-0.6-0.8c1.7-1.5,3-3.2,3.9-5.2h-3.4v-1H604z M607.9,396v-1.3c0.8-0.4,1.6-1,2.3-1.6h-5.3v-0.9h6.6
				v0.9c-0.8,0.7-1.6,1.4-2.6,2v0.9h3.5v1h-3.5v2.6c0,0.8-0.4,1.2-1.2,1.2h-1.8l-0.3-1c0.5,0,1,0,1.6,0c0.4,0,0.6-0.2,0.6-0.6v-2.3
				h-4.1v-1L607.9,396L607.9,396z"/>
			<path class="st3" d="M613.9,394.6l-0.3-1.1c1.1-1.6,1.9-3.4,2.4-5.5l0.9,0.4c-0.3,1-0.6,1.9-0.9,2.7v9.7h-1V393
				C614.6,393.6,614.3,394.1,613.9,394.6z M619,392.4v5.9c0.4-0.4,0.7-0.8,1.1-1.3l0.2,1c-0.7,0.9-1.5,1.7-2.2,2.4l-0.4-0.9
				c0.2-0.2,0.3-0.4,0.3-0.5v-5.6h-1.6v-0.9h2.6V392.4z M619.9,390.7l-0.7,0.7c-0.5-0.7-1.2-1.4-2-2.2l0.7-0.7
				C618.6,389.3,619.3,390,619.9,390.7z M622.3,389.7v-1.6h0.9v1.6h1.6v0.8c0.3-0.6,0.5-1.1,0.8-1.7l0.8,0.4c-0.5,1.2-1,2.2-1.7,3.2
				h1.6v0.9H624c-0.4,0.5-0.8,0.9-1.2,1.3h2.9v6.2h-1v-0.6h-2.6v0.6h-0.9v-5c-0.3,0.2-0.7,0.4-1,0.5l-0.5-0.8
				c1.2-0.5,2.3-1.3,3.2-2.3h-2.5v-0.9h2v-1.8h-1.7v-0.9L622.3,389.7L622.3,389.7z M624.7,395.5h-2.6v1.5h2.6V395.5z M622.1,399.4
				h2.6v-1.5h-2.6V399.4z M624.7,390.5h-1.6v1.8h0.4C624,391.8,624.4,391.2,624.7,390.5z"/>
			<path class="st3" d="M628.6,400.9l-0.8-0.7c0.6-1.3,0.8-2.9,0.9-4.8v-6.7h4.1v10.9c0,0.8-0.4,1.3-1.2,1.3h-1.1l-0.2-0.9
				c0.4,0,0.7,0.1,1.1,0.1c0.3,0,0.5-0.3,0.5-0.8v-3.2h-2.3C629.5,398,629.2,399.6,628.6,400.9z M631.9,389.5h-2.3v2.4h2.3V389.5z
				 M629.6,395.2h2.3v-2.3h-2.3V395.2z M634.9,400.9h-1v-12.3h5.7c0,1.7-0.1,2.9-0.3,3.4c-0.2,0.6-0.7,0.9-1.6,0.9h-1.1l-0.3-0.9
				c0.2,0,0.5,0,0.9,0c0.3,0,0.6,0,0.7-0.1c0.2-0.1,0.3-0.2,0.4-0.4c0.1-0.3,0.2-1,0.2-2.1h-3.7v4.2h4.8v0.9
				c-0.3,1.4-0.7,2.7-1.4,3.7c0.6,0.6,1.4,1.2,2.2,1.7l-0.5,0.9c-0.9-0.5-1.7-1.1-2.3-1.7c-0.6,0.7-1.3,1.3-2.2,1.7L635,400
				c0.8-0.4,1.5-1,2-1.7c-0.9-1.1-1.5-2.3-1.8-3.7h-0.3V400.9z M637.6,397.6c0.5-0.8,0.9-1.8,1.1-2.9H636
				C636.4,395.8,636.9,396.7,637.6,397.6z"/>
			<path class="st3" d="M646.9,388.1c-0.2,0.4-0.3,0.7-0.5,1.1h6.1v0.8c-0.9,1-2,1.9-3.3,2.6c1.6,0.7,3.3,1.1,5.3,1.3l-0.5,0.9
				c-2.2-0.3-4.2-0.8-5.9-1.7c-1.7,0.8-3.7,1.4-6,1.7l-0.5-1c2-0.3,3.8-0.7,5.4-1.3c-0.8-0.5-1.5-1-2.2-1.6
				c-0.5,0.5-1.1,0.9-1.8,1.3l-0.6-0.8c1.7-1,2.8-2.1,3.4-3.5L646.9,388.1z M648.2,394.2c0,0.6-0.1,1.1-0.1,1.6h4.9
				c0,2.4-0.2,3.8-0.6,4.2c-0.4,0.5-1.1,0.7-2.1,0.7c-0.4,0-1,0-1.6-0.1l-0.3-0.9l1.7,0.1c0.8,0,1.4-0.2,1.6-0.5
				c0.2-0.3,0.3-1.2,0.4-2.6H648c-0.1,0.4-0.3,0.7-0.4,1c-0.7,1.3-2.4,2.3-4.9,3.1L642,400c2.3-0.7,3.8-1.5,4.6-2.5
				c0.2-0.3,0.3-0.5,0.4-0.8h-4.2v-0.9h4.5c0.1-0.5,0.2-1,0.2-1.6L648.2,394.2L648.2,394.2z M651,390.1h-5.4l-0.2,0.2
				c0.8,0.7,1.7,1.3,2.6,1.8C649.2,391.6,650.2,390.9,651,390.1z"/>
		</g>
	</g>
</g>
<g>
	<g>
		<rect x="765" y="376.2" class="st4" width="112" height="46.7"/>
		<rect x="763" y="373.3" class="st5" width="112" height="46.7"/>
	</g>
	<g transform="translate(20,3)">
		<g class="st2">
			<path class="st3" d="M771.3,391.7c0.1-0.8,0.2-1.7,0.2-2.5V388h1v0.9c0,1-0.1,1.9-0.2,2.8h5.8v1h-5.5c1,3.2,2.9,5.6,5.8,7.3
				l-0.6,0.8c-2.8-1.7-4.7-4.2-5.8-7.3c-0.9,3.4-2.8,5.9-5.8,7.4l-0.6-0.8c3-1.5,4.8-3.9,5.6-7.4h-5.3v-1L771.3,391.7L771.3,391.7z"
				/>
			<path class="st3" d="M783.2,394.7c-0.1,0.3-0.2,0.5-0.3,0.8h2.9v0.8c-0.3,0.9-0.8,1.7-1.6,2.4c0.7,0.3,1.3,0.6,1.9,1l-0.5,0.8
				c-0.6-0.4-1.3-0.7-2.2-1.1c-0.9,0.6-2.1,1.2-3.5,1.6l-0.5-0.8c1.1-0.3,2.1-0.7,3-1.1c-0.6-0.3-1.3-0.5-1.9-0.8
				c0.4-0.6,0.7-1.2,1-1.8h-1.7v-0.9h2c0.1-0.3,0.2-0.6,0.3-0.9H783.2z M782.7,390.7V388h0.9v2.7h2.5v0.9h-2.5v0.2
				c0.8,0.4,1.5,0.8,2.3,1.3l-0.5,0.8c-0.7-0.6-1.3-1-1.8-1.3v1.8h-0.9v-2.7c-0.5,1.1-1.3,2.1-2.5,2.9l-0.5-0.8
				c1.1-0.6,1.8-1.3,2.3-2.1h-2v-0.9L782.7,390.7L782.7,390.7z M781.9,390l-0.7,0.3c-0.3-0.7-0.6-1.3-0.9-1.8l0.8-0.3
				C781.4,388.8,781.6,389.4,781.9,390z M785,396.3h-2.4c-0.2,0.5-0.5,0.9-0.8,1.3c0.6,0.2,1.1,0.4,1.6,0.6
				C784.1,397.7,784.6,397,785,396.3z M786,388.6c-0.3,0.6-0.6,1.2-1.1,1.8l-0.7-0.4c0.4-0.6,0.8-1.2,1.1-1.8L786,388.6z
				 M787.6,393.4c-0.3,0.6-0.5,1.2-0.8,1.7l-0.6-0.8c0.8-1.6,1.4-3.7,1.7-6.3l1,0.2c-0.1,0.7-0.2,1.4-0.3,2h3.7v1h-0.9
				c-0.1,2.3-0.5,4.3-1.3,6c0.7,1.3,1.6,2.2,2.6,2.9l-0.5,0.8c-1-0.7-1.8-1.7-2.5-2.8c-0.7,1.1-1.5,2.1-2.6,2.8l-0.5-0.8
				c1.1-0.8,1.9-1.7,2.6-2.9C788.4,396,787.9,394.8,787.6,393.4z M788,391.9c0.4,1.6,0.8,3.1,1.4,4.2c0.5-1.4,0.8-3.1,0.9-5h-2.1
				L788,391.9z"/>
			<path class="st3" d="M794.1,400.7l-0.2-1c0.4,0,0.7,0.1,1.1,0.1c0.4,0,0.5-0.2,0.5-0.6v-3.4c-0.6,0.2-1.1,0.4-1.7,0.6l-0.3-1
				c0.6-0.2,1.3-0.4,1.9-0.6v-3.2h-1.7v-1h1.7V388h1v2.6h1.3v1h-1.3v2.8c0.4-0.2,0.9-0.4,1.3-0.6v1c-0.4,0.2-0.9,0.4-1.3,0.6v4.1
				c0,0.8-0.4,1.2-1.2,1.2H794.1z M797.9,400.9l-0.8-0.7c1-1.8,1.5-4.3,1.5-7.2v-4.4h7.4v3.4h-2.6v1.7h3v0.9h-3v1.7h2.4v4.6h-0.9
				v-0.7H801v0.7h-1v-4.6h2.3v-1.7h-2.9C799.3,397,798.8,399.1,797.9,400.9z M799.6,392v1c0,0.2,0,0.4,0,0.7h2.8V392H799.6z
				 M799.6,389.5v1.6h5.4v-1.6H799.6z M804.7,399.3v-2.1H801v2.1H804.7z"/>
			<path class="st3" d="M811.4,388.2c-0.1,0.7-0.3,1.4-0.4,2h3.1v0.9c-0.4,2.5-1.1,4.5-2.2,6.2c0.3,0.5,0.7,0.9,1.1,1.2
				c1.1,0.8,2.8,1.2,5.2,1.2c0.7,0,1.5,0,2.2-0.1l-0.2,1.1h-1.5c-2.9,0-5-0.5-6.3-1.4c-0.4-0.3-0.7-0.7-1.1-1.1
				c-0.9,1.1-1.9,2-3.1,2.7l-0.5-1c1.2-0.7,2.2-1.6,3-2.7c-0.5-0.9-0.9-2-1.2-3.2c-0.4,0.7-0.8,1.2-1.2,1.8l-0.7-0.9
				c1.3-1.7,2.2-3.9,2.7-6.7H811.4z M811.3,396.2c0.8-1.4,1.4-3.1,1.8-5h-2.4c-0.2,0.5-0.4,1-0.5,1.5
				C810.5,394.1,810.9,395.2,811.3,396.2z M817,388.1v3.6c1.1,0.8,2.3,1.8,3.5,2.9l-0.6,0.9c-1.1-1.1-2.1-2.1-2.9-2.7v5.8h-1v-10.4
				L817,388.1L817,388.1z"/>
			<path class="st3" d="M823.4,393.2v-3.3h-1.7v-1h4.5v1h-1.7v3.3h1.5v1h-1.5v3.2c0.5-0.2,1-0.4,1.5-0.6v1c-1.3,0.5-2.7,1-4.2,1.3
				l-0.3-1c0.6-0.1,1.2-0.3,1.8-0.4v-3.5h-1.5v-1H823.4z M833.7,388.6v6.5h-2.9v1.7h3.2v1h-3.2v1.8h3.7v1H826v-1h3.8v-1.8h-3.2v-1
				h3.2v-1.7h-2.9v-6.5H833.7z M829.8,391.4v-1.9h-2v1.9H829.8z M829.8,392.3h-2v1.9h2V392.3z M830.8,391.4h1.9v-1.9h-1.9V391.4z
				 M832.7,392.3h-1.9v1.9h1.9V392.3z"/>
		</g>
	</g>
</g>
<g id="textgroup" transform="translate(0,0)">
</g>
<g id="assistantgroup" transform="translate(0,0)">
</g>
<g>
	<path class="st3" d="M236.7,392.4c0.7,0.6,1.1,1.4,1.3,2.5h-1.1c-0.2-0.8-0.5-1.3-1-1.7c-0.5-0.4-1.3-0.6-2.1-0.6
		c-1.1,0-1.9,0.4-2.6,1.1c-0.6,0.8-1,1.8-1,3.1c0,1.3,0.3,2.3,0.9,3c0.7,0.8,1.6,1.2,2.9,1.2c0.5,0,1.1-0.1,1.6-0.2
		c0.5-0.1,0.9-0.3,1.3-0.6v-2.5h-3.1v-1h4.3v4.1c-0.5,0.4-1.1,0.7-1.8,0.9c-0.7,0.2-1.5,0.3-2.3,0.3c-1.6,0-2.8-0.5-3.7-1.5
		c-0.8-0.9-1.2-2.2-1.2-3.6c0-1.5,0.4-2.7,1.2-3.7c0.9-1.1,2-1.6,3.5-1.6C235,391.5,236,391.8,236.7,392.4z"/>
	<path class="st3" d="M244,391.7c2.3,0,3.4,1,3.4,2.9c0,2-1.2,3-3.5,3h-2.9v4.1h-1.1v-10H244z M241.1,396.6h2.9
		c0.8,0,1.4-0.2,1.8-0.5c0.4-0.3,0.6-0.8,0.6-1.5c0-0.7-0.2-1.2-0.6-1.5c-0.4-0.3-1-0.5-1.8-0.5h-2.9V396.6z"/>
	<path class="st3" d="M250.1,391.7v6.2c0,1,0.2,1.7,0.7,2.2c0.5,0.5,1.2,0.8,2.2,0.8c1,0,1.7-0.3,2.2-0.8c0.4-0.5,0.7-1.2,0.7-2.2
		v-6.2h1.1v6.2c0,1.3-0.3,2.3-1,3c-0.7,0.7-1.7,1.1-3,1.1c-1.3,0-2.3-0.4-3-1c-0.7-0.7-1-1.7-1-3v-6.2H250.1z"/>
	<path class="st3" d="M259.4,403.1l-0.8-0.7c0.6-1.3,0.8-2.9,0.9-4.8v-6.7h4.1v10.9c0,0.8-0.4,1.3-1.2,1.3h-1.1l-0.2-0.9
		c0.4,0,0.7,0.1,1.1,0.1c0.4,0,0.5-0.3,0.5-0.8v-3.2h-2.3C260.3,400.2,260,401.8,259.4,403.1z M262.7,391.7h-2.3v2.4h2.3V391.7z
		 M260.4,397.4h2.3V395h-2.3V397.4z M265.8,403.1h-1v-12.3h5.7c0,1.7-0.1,2.9-0.3,3.4c-0.2,0.6-0.7,0.9-1.6,0.9h-1.1l-0.3-0.9
		c0.2,0,0.5,0,0.9,0c0.3,0,0.6,0,0.7-0.1c0.2-0.1,0.3-0.2,0.4-0.4c0.1-0.3,0.2-1,0.2-2.1h-3.7v4.2h4.8v0.9c-0.3,1.4-0.7,2.7-1.4,3.7
		c0.6,0.6,1.4,1.2,2.2,1.7l-0.5,0.9c-0.9-0.5-1.7-1.1-2.3-1.7c-0.6,0.7-1.3,1.3-2.2,1.7l-0.5-0.8c0.8-0.4,1.5-1,2-1.7
		c-0.9-1.1-1.5-2.3-1.8-3.7h-0.3V403.1z M268.5,399.8c0.5-0.8,0.9-1.8,1.1-2.9H267C267.3,398,267.8,398.9,268.5,399.8z"/>
	<path class="st3" d="M277.7,390.3c-0.2,0.4-0.3,0.7-0.5,1.1h6.1v0.8c-0.9,1-2,1.9-3.3,2.6c1.6,0.7,3.3,1.1,5.3,1.3l-0.5,0.9
		c-2.2-0.3-4.2-0.8-5.9-1.7c-1.7,0.8-3.7,1.4-6,1.7l-0.5-1c2-0.3,3.8-0.7,5.4-1.3c-0.8-0.5-1.5-1-2.2-1.6c-0.5,0.5-1.1,0.9-1.8,1.3
		l-0.6-0.8c1.7-1,2.8-2.1,3.4-3.5L277.7,390.3z M279.1,396.4c0,0.6-0.1,1.1-0.1,1.6h4.9c0,2.4-0.2,3.8-0.6,4.2
		c-0.4,0.5-1.1,0.7-2.1,0.7c-0.4,0-1,0-1.6-0.1l-0.3-0.9l1.7,0.1c0.8,0,1.4-0.2,1.6-0.5c0.2-0.3,0.3-1.2,0.4-2.6h-4.1
		c-0.1,0.4-0.3,0.7-0.4,1c-0.7,1.3-2.4,2.3-4.9,3.1l-0.7-0.8c2.3-0.7,3.8-1.5,4.6-2.5c0.2-0.3,0.3-0.5,0.4-0.8h-4.2V398h4.5
		c0.1-0.5,0.2-1,0.2-1.6H279.1z M281.9,392.3h-5.4l-0.2,0.2c0.8,0.7,1.7,1.3,2.6,1.8C280.1,393.8,281,393.1,281.9,392.3z"/>
	<path class="st3" d="M291.4,395.6c0.3-0.4,0.5-0.7,0.6-1.1l1,0.1c-0.1,0.4-0.3,0.7-0.5,1h3.6c-0.2-0.3-0.4-0.7-0.6-1l0.9-0.3
		c0.3,0.4,0.5,0.8,0.8,1.2h1.9v0.9h-3.8c0.9,0.8,2.3,1.5,4.1,2l-0.4,0.9c-0.4-0.1-0.7-0.2-1-0.3v4.1h-0.9v-0.6h-2.6v0.6h-0.9v-4.4
		h3.7c-1.3-0.6-2.4-1.4-3.1-2.2h-2.4c-0.8,0.9-1.8,1.6-3.2,2.2h3.5v4.4h-0.9v-0.6h-2.4v0.6h-0.9V399c-0.4,0.1-0.8,0.3-1.1,0.4
		l-0.5-0.8c1.8-0.5,3.2-1.2,4.1-2.1h-3.9v-0.9H291.4z M292.1,390.8v3.4h-4.3v-3.4H292.1z M291.2,391.6h-2.4v1.7h2.4V391.6z
		 M291.3,401.6v-2.1h-2.4v2.1H291.3z M298,390.8v3.4h-4.4v-3.4H298z M297.1,401.6v-2.1h-2.6v2.1H297.1z M297.1,391.6h-2.5v1.7h2.5
		V391.6z"/>
</g>
<g>
	<path class="st3" d="M420.2,135l-0.6-0.8c0.7-0.6,1.2-1.5,1.7-2.6l0.9,0.2c-0.1,0.3-0.3,0.6-0.4,0.9h4v0.9h-2.1
		c0,0.5-0.1,0.9-0.1,1.4h2.6v0.9h-2.8c0,0.1-0.1,0.3-0.1,0.4c1.1,0.5,2,1.1,2.7,1.6l-0.7,0.7c-0.6-0.5-1.3-1.1-2.3-1.6
		c-0.6,1-1.5,1.8-2.9,2.4l-0.7-0.8c1.5-0.6,2.4-1.4,2.9-2.4l0.1-0.3h-2.8V135h3.1c0.1-0.4,0.1-0.9,0.2-1.4h-1.4
		C421,134.1,420.6,134.6,420.2,135z M430.4,144.6h-1v-0.6h-6.9v0.6h-1v-5.8h9V144.6z M429.4,140.9v-1.3h-6.9v1.3H429.4z M429.4,143
		v-1.2h-6.9v1.2H429.4z M431.4,132.6v5.1h-4.6v-5.1H431.4z M430.4,133.5h-2.6v3.3h2.6V133.5z"/>
	<path class="st3" d="M440.4,135.6l-0.8,0.6c-0.2-0.3-0.3-0.6-0.5-0.9c-1.5,0.2-3.3,0.4-5.4,0.5l-0.3-0.8c0.2-0.1,0.3-0.2,0.5-0.3
		c0.9-0.9,1.6-1.9,2.2-3l1,0.3c-0.6,1.2-1.3,2.2-2.1,2.9c1.2-0.1,2.4-0.2,3.7-0.4c-0.3-0.4-0.6-0.9-1-1.4l0.8-0.5
		C439.2,133.8,439.9,134.8,440.4,135.6z M435.2,144.6h-1v-7.9h5.2v6.6c0,0.8-0.4,1.2-1.2,1.2h-1.1l-0.3-1l1.1,0
		c0.4,0,0.5-0.2,0.5-0.5v-1.1h-3.2V144.6z M438.4,137.5h-3.2v1.4h3.2V137.5z M435.2,141h3.2v-1.3h-3.2V141z M442,137.8
		c-0.9,0-1.3-0.5-1.3-1.4v-4.7h1v1.8c1.5-0.2,2.8-0.5,3.8-0.7l0.3,0.9c-1.2,0.3-2.5,0.6-4.1,0.8v1.8c0,0.4,0.2,0.7,0.6,0.7h1.8
		c0.3,0,0.5-0.1,0.6-0.2c0.1-0.2,0.2-0.7,0.3-1.6l0.9,0.3c-0.1,1.1-0.3,1.8-0.5,2.1c-0.2,0.2-0.6,0.3-1.1,0.3H442z M441.7,143
		c0,0.3,0.2,0.4,0.5,0.4h1.9c0.3,0,0.5-0.1,0.6-0.2c0.2-0.2,0.3-0.7,0.3-1.6l0.9,0.3c-0.1,1.1-0.3,1.8-0.5,2.1
		c-0.2,0.2-0.6,0.3-1.1,0.3H442c-0.8,0-1.2-0.4-1.2-1.1v-4.9h1v1.7c1.4-0.1,2.6-0.4,3.8-0.7l0.3,0.9c-1.3,0.4-2.6,0.6-4.1,0.7V143z"
		/>
	<path class="st3" d="M458.5,143.2h1.5v0.9h-12.7v-0.9h1.6v-3.9h9.6V143.2z M449.3,132.3v5.7h-1v-5.7H449.3z M451.7,143.2v-3h-1.9v3
		H451.7z M452.2,131.6v6.9h-1v-6.9H452.2z M454.7,143.2v-3h-2v3H454.7z M453.5,137.2l-0.6-0.8c1-1.2,1.7-2.8,2-4.8l1,0.2
		c-0.1,0.6-0.2,1.1-0.4,1.6h4.2v1h-4.5C454.7,135.5,454.1,136.4,453.5,137.2z M457.6,143.2v-3h-1.9v3H457.6z M458.4,137.8l-0.8,0.6
		c-0.4-0.8-1-1.6-1.7-2.6l0.8-0.5C457.4,136.2,458,137.1,458.4,137.8z"/>
	<path class="st3" d="M461.7,144.4l-0.2-1c0.4,0,0.7,0.1,1.1,0.1c0.4,0,0.5-0.2,0.5-0.5v-3.4c-0.6,0.2-1.1,0.4-1.7,0.6l-0.3-1
		c0.7-0.2,1.3-0.4,1.9-0.6v-3.1h-1.7v-1h1.7v-2.7h1v2.7h1.2v1h-1.2v2.7c0.4-0.2,0.8-0.4,1.2-0.6v1c-0.4,0.2-0.8,0.4-1.2,0.6v4.1
		c0,0.8-0.4,1.2-1.2,1.2H461.7z M466.1,140v-0.9h7.5v0.9h-3.2v3.1h3.7v1h-8.6v-1h3.8V140H466.1z M470.4,133.2h3.3v2.6h-0.9v-1.7
		h-5.9v1.7h-1v-2.6h3.5c-0.2-0.6-0.5-1.1-0.7-1.5l1-0.2C470,132,470.2,132.6,470.4,133.2z M469.3,135.4c-0.6,1.4-1.5,2.5-2.5,3.2
		l-0.7-0.6c1-0.7,1.8-1.7,2.4-2.9L469.3,135.4z M473.5,138l-0.9,0.4c-0.7-1.1-1.4-2.2-2.3-3.1l0.9-0.4
		C472,135.9,472.8,136.9,473.5,138z"/>
</g>
</svg>
