<?xml version="1.0" encoding="utf-8"?>
<!-- Generator: Adobe Illustrator 22.1.0, SVG Export Plug-In . SVG Version: 6.00 Build 0)  -->
<svg version="1.1" id="图层_1" xmlns="http://www.w3.org/2000/svg" xmlns:xlink="http://www.w3.org/1999/xlink" x="0px" y="0px"
	 width="48px" height="48px" viewBox="0 0 48 48" style="enable-background:new 0 0 48 48;" xml:space="preserve">
<style type="text/css">
	.st0{fill:url(#SVGID_1_);}
	.st1{fill:url(#SVGID_2_);}
	.st2{fill:url(#SVGID_3_);}
	.st3{fill:url(#SVGID_4_);}
	.st4{fill:#00A4FF;}
	.st5{fill-rule:evenodd;clip-rule:evenodd;fill:#00A4FF;}
	.st6{fill:url(#SVGID_5_);}
	.st7{fill:url(#SVGID_6_);}
</style>
<g>
	<g>
		<path class="st4" d="M39,22c-1.2,2.4-2.8,4.5-4.7,6.1l-1.4-1.4c1.5-1.3,2.9-2.8,4-4.7c-2.9-5-7.8-8-13-8c-1.1,0-2.3,0.2-3.3,0.4
			l-1.6-1.6c1.6-0.5,3.2-0.8,4.9-0.8C30.4,12,36,16,39,22z"/>
		<path class="st4" d="M28.9,31.2C27.4,31.7,25.7,32,24,32c-6.4,0-12-4-15-10c1.2-2.4,2.8-4.5,4.7-6.1l1.4,1.4
			c-1.5,1.3-2.9,2.8-4,4.7c2.9,5,7.8,8,13,8c1.1,0,2.3-0.2,3.3-0.4L28.9,31.2z"/>
		<path class="st4" d="M25.5,27.8c-0.5,0.1-1,0.2-1.5,0.2c-3.3,0-6-2.7-6-6c0-0.5,0.1-1.1,0.2-1.5l1.8,1.8c0.1,2,1.7,3.6,3.7,3.7
			L25.5,27.8z"/>
		<path class="st4" d="M30,22c0,0.5-0.1,1.1-0.2,1.5L28,21.8c-0.1-2-1.7-3.6-3.7-3.7l-1.8-1.8c0.5-0.1,1-0.2,1.5-0.2
			C27.3,16,30,18.7,30,22z"/>
	</g>
	<path class="st4" d="M42,10v15c0,0.1-0.3,14.6-18,18.9C6.5,39.7,6,25.6,6,25.1V4h38V2H4v23.1c0,0,0.2,16.4,20,20.9
		c19.8-4.6,20-20.9,20-20.9V10H42z"/>
	<polygon class="st4" points="35.3,31.9 33.9,33.3 30.9,30.3 27.5,26.9 26,25.4 20.6,20 19.1,18.5 15.3,14.7 12.7,12.1 14.1,10.7 
		17.1,13.7 20.5,17.1 22,18.6 27.4,24 28.9,25.5 32.7,29.3 	"/>
</g>
</svg>
