<?xml version="1.0" encoding="utf-8"?>
<!-- Generator: Adobe Illustrator 22.1.0, SVG Export Plug-In . SVG Version: 6.00 Build 0)  -->
<svg version="1.1" id="图层_1" xmlns="http://www.w3.org/2000/svg" xmlns:xlink="http://www.w3.org/1999/xlink" x="0px" y="0px"
	 viewBox="0 0 820 302" style="enable-background:new 0 0 820 302;" xml:space="preserve">
<style type="text/css">
	.st0{fill-opacity:0;}
	.st1{fill:none;stroke:#BABABA;stroke-dasharray:5;}
	.st2{fill:#444444;}
	.st3{fill:#EAEBEC;}
	.st4{opacity:0.6;fill:#BBBBBB;enable-background:new    ;}
	.st5{fill:#FFFFFF;stroke:#E5E5E5;}
	.st6{fill:#00A4FF;}
	.st7{fill:#878787;}
	.st8{fill:none;stroke:#878787;stroke-miterlimit:10;}
</style>
<title>画板 1</title>
<g>
	<rect x="1" y="0.7" class="st0" width="150" height="300"/>
	<path class="st1" d="M1,0.7h134v300H1V0.7"/>
	<g>
		<path class="st2" d="M22.5,26h-1v-1.1h-6.6V26h-1V13.8h8.7V26z M21.5,18.8v-4h-6.6v4L21.5,18.8z M21.5,24v-4.2h-6.6V24L21.5,24z"
			/>
		<path class="st2" d="M28,21c-0.3,1.5-0.7,2.9-1.4,4.2l-0.9-0.5c0.6-1.2,1-2.5,1.2-3.9L28,21z M32.6,13.2V15H38v1h-5.5v2.2h4.6v1
			H27v-1h4.5V16H26v-1h5.5v-1.8L32.6,13.2z M30.4,25.8c-0.9,0-1.4-0.5-1.4-1.5v-3.9h1v3.7c0,0.5,0.2,0.7,0.7,0.7h3
			c0.3,0,0.5-0.1,0.7-0.3c0.3-0.7,0.4-1.4,0.4-2.1l1,0.3c0,0.9-0.2,1.8-0.6,2.6c-0.3,0.3-0.8,0.4-1.2,0.4H30.4z M33.6,22.8l-0.9,0.4
			c-0.3-1-0.8-1.9-1.3-2.8l1-0.3C32.8,21,33.2,21.9,33.6,22.8z M38.4,24.4l-0.9,0.4c-0.5-1.4-1.1-2.7-1.8-4l0.9-0.3
			C37.3,21.7,37.9,23,38.4,24.4L38.4,24.4z"/>
		<path class="st2" d="M45.5,19.8v-1.4h1v1.4h5.1v1h-4.1c1.3,1.7,2.9,3,4.8,3.8l-0.7,0.9c-2-1.1-3.7-2.7-4.9-4.7h-0.2V26h-1v-5.3
			h-0.1c-1.2,2.1-2.9,3.8-5.1,4.8l-0.6-0.9c1.9-0.8,3.6-2.1,4.8-3.9h-4.1v-1H45.5z M51.5,14.1c-3.5,0.6-7.1,0.9-10.7,0.9l-0.3-1
			c3.5,0.1,7-0.2,10.5-0.8L51.5,14.1z M43.5,18.2l-0.9,0.4c-0.4-0.9-0.8-1.8-1.4-2.6l1-0.3C42.6,16.5,43.1,17.3,43.5,18.2L43.5,18.2
			z M47.1,17.8l-1,0.2c-0.3-0.8-0.7-1.6-1.1-2.4l0.9-0.3C46.4,16.2,46.8,17,47.1,17.8L47.1,17.8z M51.3,15.6
			c-0.6,1.1-1.3,2.2-2.1,3.1l-0.8-0.6c0.8-0.9,1.5-1.9,2-3L51.3,15.6z"/>
		<path class="st2" d="M54.2,17.9l-0.6-0.8c1.2-1.1,2.2-2.4,2.8-4l0.9,0.2c-0.1,0.4-0.3,0.7-0.5,1.1h3c-0.2-0.4-0.4-0.8-0.6-1.2
			l1-0.2c0.2,0.4,0.4,0.9,0.6,1.4h4.5v0.8h-4.5v0.9h3.9v0.8h-3.9V18h3.9v0.8h-3.9v1h4.7v0.9H55.4v-3.9C55,17.1,54.6,17.5,54.2,17.9z
			 M54,22.7v-0.9h5.6V21h1v0.7h5.5v0.9h-4.2c1.3,1.1,2.8,1.8,4.4,2.1l-0.4,0.9c-1.9-0.5-3.6-1.6-4.9-3h-0.3v3.4h-1v-3.4h-0.3
			c-1.3,1.5-3,2.6-4.9,3.1l-0.5-0.9c1.6-0.4,3.2-1.1,4.5-2.2L54,22.7z M59.9,15.4h-3.6l-0.1,0.1v0.8h3.6L59.9,15.4z M59.9,17.1h-3.6
			V18h3.6L59.9,17.1z M59.9,18.8h-3.6v1h3.6L59.9,18.8z"/>
	</g>
</g>
<g>
	<rect x="267.2" y="0.8" class="st0" width="130" height="300"/>
	<path class="st1" d="M267.2,0.8h130v300h-130V0.8"/>
	<g>
		<path class="st2" d="M281.5,20c-0.1,0.3-0.2,0.5-0.3,0.8h2.9v0.8c-0.3,0.9-0.8,1.7-1.6,2.4c0.7,0.3,1.3,0.6,1.9,1l-0.5,0.8
			c-0.7-0.4-1.4-0.8-2.2-1.1c-1.1,0.7-2.2,1.2-3.5,1.6l-0.5-0.8c1-0.3,2-0.6,3-1.1c-0.6-0.3-1.3-0.5-1.9-0.8c0.4-0.6,0.7-1.2,1-1.8
			h-1.7v-0.9h2c0.1-0.3,0.2-0.6,0.3-0.9L281.5,20z M280.9,16.1v-2.7h0.9v2.7h2.5V17h-2.5v0.2c0.8,0.4,1.5,0.8,2.3,1.3l-0.5,0.8
			c-0.7-0.6-1.3-1-1.8-1.3v1.8h-0.9V17c-0.5,1.2-1.4,2.2-2.5,2.9l-0.5-0.8c0.9-0.5,1.7-1.2,2.3-2.1h-2v-0.9L280.9,16.1z M280.1,15.4
			l-0.7,0.3c-0.3-0.6-0.6-1.2-0.9-1.8l0.8-0.3C279.6,14.2,279.9,14.8,280.1,15.4z M283.2,21.7h-2.4c-0.2,0.5-0.5,0.9-0.8,1.3
			c0.6,0.2,1.1,0.4,1.6,0.6C282.3,23.1,282.8,22.4,283.2,21.7z M284.2,13.9c-0.3,0.6-0.7,1.2-1.1,1.8l-0.7-0.4
			c0.4-0.5,0.8-1.1,1.1-1.8L284.2,13.9z M285.8,18.7c-0.2,0.6-0.5,1.2-0.8,1.7l-0.6-0.8c0.9-2,1.5-4.1,1.7-6.3l1,0.2
			c-0.1,0.7-0.2,1.4-0.3,2h3.7v1h-0.9c0,2.1-0.5,4.1-1.3,6c0.6,1.2,1.5,2.2,2.6,2.9l-0.5,0.8c-1-0.8-1.9-1.7-2.5-2.8
			c-0.7,1.1-1.5,2.1-2.6,2.8l-0.5-0.8c1.1-0.7,2-1.7,2.6-2.9C286.6,21.3,286.1,20,285.8,18.7L285.8,18.7z M286.3,17.2
			c0.3,1.5,0.7,2.9,1.4,4.2c0.6-1.6,0.9-3.3,0.9-5h-2.1L286.3,17.2z"/>
		<path class="st2" d="M292.4,26.1l-0.2-1c0.4,0,0.7,0.1,1.1,0.1c0.4,0,0.5-0.2,0.5-0.6v-3.4c-0.6,0.2-1.1,0.4-1.7,0.6l-0.3-1
			c0.6-0.2,1.3-0.3,1.9-0.6V17h-1.7v-1h1.7v-2.6h1v2.6h1.3v1h-1.3v2.8c0.4-0.2,0.9-0.4,1.3-0.6v1c-0.4,0.2-0.9,0.4-1.3,0.6v4.1
			c0,0.8-0.4,1.2-1.2,1.2L292.4,26.1z M296.1,26.2l-0.8-0.7c1.1-2.2,1.6-4.7,1.5-7.2v-4.4h7.4v3.4h-2.6V19h3v0.9h-3v1.7h2.4v4.6H303
			v-0.7h-3.8v0.7h-0.9v-4.6h2.3v-1.7h-2.9C297.6,22.1,297.1,24.3,296.1,26.2z M297.8,17.4v1c0,0.2,0,0.4,0,0.7h2.8v-1.7H297.8z
			 M297.8,14.9v1.6h5.4v-1.6L297.8,14.9z M303,24.7v-2.1h-3.8v2.1H303z"/>
		<path class="st2" d="M306.1,20.2l-0.3-1.1c1.5-1.7,2.6-3.6,3.3-5.7l1,0.4c-0.4,1.1-0.8,2.1-1.4,3.1v9.4h-1v-7.8
			C307.1,19,306.6,19.6,306.1,20.2z M312.9,15.2l0.4-1.8l1,0.1c-0.1,0.6-0.3,1.2-0.4,1.7h4.2v1h-4.5c-0.2,0.6-0.3,1.1-0.5,1.6h5.5v1
			h-5.9c-0.2,0.6-0.5,1.2-0.7,1.8h5.8v0.9c-0.7,1.1-1.7,2.1-2.8,2.9c0.7,0.4,1.3,0.7,1.9,1.1l-0.6,0.9c-1.6-1.1-3.4-2.1-5.3-2.8
			l0.5-0.8c0.9,0.3,1.7,0.7,2.5,1.1c1-0.7,1.9-1.5,2.6-2.4h-6c0.4-0.9,0.7-1.8,1-2.7h-2.3v-1h2.6c0.2-0.5,0.3-1.1,0.5-1.6h-2.5v-1
			L312.9,15.2z"/>
		<path class="st2" d="M323.4,17.3v2.1h1.3v0.9h-1.3v1.9c0.5-0.1,0.9-0.2,1.3-0.3v1l-1.3,0.3v3.1h-0.9v-2.9
			c-0.8,0.2-1.6,0.3-2.5,0.4l-0.1-1c0.9-0.1,1.8-0.3,2.6-0.4v-2.1h-2.2l-0.2-0.8c0.4-1,0.8-2.1,1.1-3.1H320v-1h1.4
			c0.1-0.6,0.3-1.3,0.4-2l0.9,0.2c-0.1,0.6-0.3,1.2-0.4,1.8h2.5v0.9H322c-0.3,1-0.6,2.1-1,3.1h1.4v-2.1H323.4z M325,17.9l-0.5-0.8
			c1.4-1.1,2.7-2.3,3.9-3.7h0.7c1.1,1.4,2.3,2.6,3.7,3.6l-0.5,0.8c-1.4-1-2.6-2.2-3.6-3.5c-0.6,0.8-1.3,1.5-2,2.2h4v0.8h-4v-0.8
			C326.1,17.1,325.5,17.5,325,17.9z M326.9,26.1l-0.2-0.8l0.6,0c0.2,0,0.4-0.1,0.5-0.3c0,0,0-0.1,0-0.1v-1.3h-1.6v2.6h-0.9v-7.7h3.3
			v6.5c0.1,0.5-0.3,1-0.8,1.1c-0.1,0-0.2,0-0.3,0L326.9,26.1z M327.7,20.7v-1.4h-1.6v1.4L327.7,20.7z M327.7,22.8v-1.3h-1.6v1.3
			L327.7,22.8z M330.2,18.9v5h-0.8v-5L330.2,18.9z M329.8,26.2l-0.2-0.9c0.4,0,0.7,0.1,1.1,0.1c0.3,0,0.4-0.2,0.4-0.6v-6.5h0.9V25
			c0,0.8-0.4,1.2-1,1.2L329.8,26.2z"/>
		<path class="st2" d="M337.2,19.1l-0.7,0.7c-0.8-0.8-1.6-1.5-2.5-2.1l0.7-0.7C335.6,17.7,336.4,18.4,337.2,19.1z M337.3,21.6
			c-0.6,1.6-1.3,3.1-2.1,4.6l-1-0.5c0.8-1.5,1.6-3,2.2-4.5L337.3,21.6z M337.7,15.8l-0.7,0.7c-0.8-0.8-1.7-1.5-2.7-2.1l0.7-0.7
			C335.9,14.3,336.8,15,337.7,15.8L337.7,15.8z M346.5,24.7v1h-7.8V14h7.7v1h-6.7v9.8L346.5,24.7z"/>
		<path class="st2" d="M354.7,13.9v0.8h-1v3.6c0.3-0.1,0.7-0.1,1-0.2v0.8c-0.3,0.1-0.7,0.1-1,0.2V20h-0.9v-0.8
			c-1.4,0.2-3,0.4-4.7,0.5l-0.1-0.8c0.5,0,0.9-0.1,1.4-0.1v-4.1h-1.1v-0.8L354.7,13.9z M352.1,22.1c-0.4,0.4-0.9,0.7-1.4,1
			c-0.6,0.3-1.3,0.6-2,0.8l-0.5-0.8c0.6-0.2,1.2-0.4,1.8-0.7c0.5-0.2,0.9-0.5,1.3-0.9L352.1,22.1z M353.2,23.7
			c-0.5,0.5-1.1,0.9-1.8,1.3c-0.8,0.4-1.7,0.8-2.5,1.1l-0.5-0.8c0.8-0.2,1.6-0.5,2.3-0.9c0.6-0.3,1.2-0.7,1.7-1.1L353.2,23.7z
			 M349.5,21.6l-0.3-0.9c3.1,0.1,6.3-0.4,9.3-1.3l0.4,0.8c-0.9,0.3-1.7,0.6-2.6,0.8c0.2,0.7,0.5,1.3,0.9,1.9c0.7-0.4,1.4-0.9,2-1.5
			l0.5,0.7c-0.6,0.5-1.3,1-2,1.4c0.8,0.7,1.7,1.3,2.7,1.8l-0.5,0.9c-2.1-0.9-3.7-2.7-4.4-5l-0.7,0.1v5h-0.9v-4.8
			C352.4,21.5,350.9,21.6,349.5,21.6L349.5,21.6z M352.8,15.5v-0.8h-2.5v0.8H352.8z M352.8,17v-0.8h-2.5V17H352.8z M352.8,18.4v-0.7
			h-2.5v1C351.2,18.6,352,18.5,352.8,18.4L352.8,18.4z M357.7,17.1c0.5-0.6,0.8-1.2,1.1-1.9h-3.8v-0.9h4.8v0.7
			c-0.3,0.9-0.8,1.8-1.4,2.6c0.6,0.5,1.2,0.9,1.7,1.4l-0.7,0.6c-0.5-0.5-1-1-1.6-1.4c-0.7,0.7-1.6,1.2-2.5,1.6l-0.4-0.8
			c0.8-0.3,1.6-0.7,2.2-1.3c-0.6-0.5-1.4-1-2.1-1.5l0.6-0.6C356.4,16.2,357.1,16.6,357.7,17.1L357.7,17.1z"/>
	</g>
</g>
<g>
	<rect x="458" y="1" class="st0" width="168" height="300"/>
	<path class="st1" d="M454,1h175v300H454V1"/>
	<g>
		<path class="st2" d="M468.2,19.2c-0.1,0.3-0.2,0.5-0.3,0.8h2.9v0.8c-0.3,0.9-0.8,1.7-1.6,2.4c0.7,0.3,1.3,0.6,1.9,0.9l-0.5,0.8
			c-0.7-0.4-1.4-0.8-2.2-1.1c-1.1,0.7-2.2,1.2-3.5,1.5l-0.5-0.8c1-0.3,2-0.6,3-1.1c-0.6-0.3-1.3-0.5-1.9-0.8c0.4-0.6,0.7-1.2,1-1.7
			h-1.7V20h2c0.1-0.3,0.2-0.6,0.3-0.9L468.2,19.2z M467.7,15.3v-2.7h0.9v2.7h2.5v0.9h-2.5v0.2c0.8,0.4,1.5,0.8,2.3,1.3l-0.5,0.8
			c-0.7-0.6-1.3-1-1.8-1.3v1.8h-0.9v-2.7c-0.5,1.2-1.4,2.2-2.5,2.9l-0.5-0.8c0.9-0.5,1.7-1.2,2.3-2.1h-2v-0.9L467.7,15.3z
			 M466.9,14.6l-0.7,0.3c-0.3-0.6-0.6-1.2-0.9-1.8l0.8-0.3C466.4,13.4,466.6,14,466.9,14.6L466.9,14.6z M470,20.8h-2.4
			c-0.2,0.5-0.5,0.9-0.8,1.3c0.6,0.2,1.1,0.4,1.6,0.6C469.1,22.3,469.6,21.6,470,20.8L470,20.8z M471,13.2c-0.3,0.6-0.7,1.2-1.1,1.8
			l-0.7-0.4c0.4-0.5,0.8-1.1,1.1-1.8L471,13.2z M472.5,17.9c-0.2,0.6-0.5,1.2-0.8,1.7l-0.6-0.8c0.9-2,1.5-4.1,1.7-6.3l1,0.2
			c-0.1,0.7-0.2,1.4-0.3,2h3.7v1h-0.9c0,2.1-0.5,4.1-1.3,6c0.6,1.2,1.5,2.1,2.6,2.9l-0.5,0.8c-1-0.8-1.9-1.7-2.5-2.8
			c-0.7,1.1-1.5,2.1-2.6,2.8l-0.5-0.8c1.1-0.7,2-1.7,2.6-2.9C473.3,20.5,472.9,19.2,472.5,17.9L472.5,17.9z M473,16.4
			c0.3,1.5,0.7,2.9,1.4,4.2c0.6-1.6,0.9-3.3,0.9-4.9h-2.1L473,16.4z"/>
		<path class="st2" d="M479.1,25.3l-0.2-0.9c0.4,0,0.7,0.1,1.1,0.1c0.4,0,0.5-0.2,0.5-0.6v-3.4c-0.6,0.2-1.1,0.4-1.7,0.6l-0.3-1
			c0.6-0.2,1.3-0.3,1.9-0.6v-3.2h-1.7v-1h1.7v-2.6h1v2.6h1.3v1h-1.3V19c0.4-0.2,0.9-0.4,1.3-0.6v1c-0.4,0.2-0.9,0.4-1.3,0.6V24
			c0,0.8-0.4,1.2-1.2,1.2H479.1z M482.8,25.4l-0.8-0.7c1.1-2.2,1.6-4.7,1.5-7.2v-4.4h7.4v3.4h-2.6v1.6h3v0.9h-3v1.7h2.4v4.6h-0.9
			v-0.7h-3.8v0.7H485v-4.6h2.3v-1.7h-2.9C484.4,21.3,483.8,23.4,482.8,25.4L482.8,25.4z M484.6,16.6v1c0,0.2,0,0.4,0,0.7h2.8v-1.6
			L484.6,16.6z M484.6,14.1v1.5h5.4v-1.5L484.6,14.1z M489.7,23.8v-2.1h-3.8v2.1L489.7,23.8z"/>
		<path class="st2" d="M496.9,14c0.2-0.5,0.4-1,0.5-1.5l1,0.1c-0.1,0.5-0.3,0.9-0.4,1.4h7.2v1h-7.5c-0.5,1.2-1.2,2.3-1.9,3.3v7.1h-1
			v-5.9c-0.5,0.5-1,1-1.5,1.5l-0.6-0.8c1.7-1.4,3-3.2,3.9-5.2h-3.4v-1L496.9,14z M500.8,20.5v-1.3c0.8-0.5,1.6-1,2.3-1.6h-5.3v-0.9
			h6.6v0.9c-0.8,0.7-1.7,1.4-2.6,2v0.9h3.5v1h-3.5v2.6c0.1,0.6-0.3,1.2-0.9,1.2c-0.1,0-0.2,0-0.3,0h-1.8l-0.3-0.9c0.5,0,1,0,1.6,0
			c0.3,0,0.6-0.2,0.6-0.5c0,0,0-0.1,0-0.1v-2.3h-4.1v-1L500.8,20.5z"/>
		<path class="st2" d="M506.8,19.2l-0.3-1.1c1.1-1.7,2-3.5,2.4-5.5l0.9,0.4c-0.2,0.9-0.6,1.8-0.9,2.7v9.7h-1v-7.8
			C507.6,18.2,507.2,18.7,506.8,19.2z M512,16.9v5.9c0.4-0.4,0.7-0.8,1.1-1.3l0.2,1c-0.7,0.8-1.4,1.6-2.2,2.4l-0.4-0.9
			c0.2-0.1,0.3-0.3,0.3-0.5v-5.6h-1.6v-0.9L512,16.9z M512.8,15.2l-0.7,0.7c-0.6-0.8-1.3-1.5-2-2.1l0.7-0.7
			C511.5,13.8,512.2,14.5,512.8,15.2L512.8,15.2z M515.2,14.2v-1.6h0.9v1.6h1.6v0.8c0.3-0.6,0.5-1.1,0.8-1.7l0.8,0.4
			c-0.4,1.1-1,2.2-1.7,3.1h1.6v0.9H517c-0.4,0.5-0.8,0.9-1.2,1.3h2.9v6.2h-1v-0.6H515v0.6h-0.9v-5c-0.3,0.2-0.7,0.4-1,0.5l-0.5-0.8
			c1.2-0.5,2.3-1.3,3.2-2.3h-2.5v-0.9h2v-1.8h-1.7v-0.9L515.2,14.2z M517.7,20H515v1.5h2.6V20z M515,23.9h2.6v-1.5H515V23.9z
			 M517.7,15.1h-1.6v1.8h0.4C517,16.3,517.3,15.7,517.7,15.1z"/>
		<path class="st2" d="M525.3,23c-1.2,0.9-2.5,1.6-4,2.1l-0.4-0.9c1.4-0.4,2.6-1,3.8-1.8L525.3,23z M526.5,13.7v-1.1h1v1.1h4.7v0.9
			h-4.7v1.2h5.3v2.6h-1v-1.7h-5.4l0.8,0.4c-0.8,0.7-1.7,1.2-2.6,1.7c1.3,0,2.3-0.1,3.1-0.1c0.5-0.3,1-0.7,1.5-1l0.8,0.5
			c-1.6,1.2-3.4,2.2-5.3,2.8c1.8-0.1,3.6-0.2,5.4-0.3c-0.3-0.3-0.6-0.7-1-1l0.7-0.5c0.9,0.8,1.6,1.7,2.4,2.6l-0.8,0.5
			c-0.2-0.3-0.5-0.7-0.8-1c-1.1,0.1-2.2,0.1-3.2,0.2v2.7c0,0.7-0.4,1.1-1.1,1.1h-1.3l-0.2-0.9c0.4,0,0.8,0.1,1.1,0.1
			c0.3,0,0.5-0.2,0.5-0.4v-2.4c-1.5,0.1-3,0.1-4.2,0.2l-0.2-0.9c0.3,0,0.6,0,0.9,0c1.2-0.4,2.4-0.9,3.6-1.5c-1,0-2,0.1-3.2,0.1
			l-0.2-0.8c0.2,0,0.4-0.1,0.6-0.2c0.9-0.5,1.8-1.1,2.6-1.8h-4.2v1.7h-1v-2.5h5.3v-1.2h-4.7v-0.9H526.5z M533,24.3l-0.5,0.8
			c-1.2-0.8-2.6-1.5-4-2l0.5-0.7C530.5,22.9,531.8,23.5,533,24.3z"/>
		<path class="st2" d="M536.1,19.5h5.4c0.1,1.5,0,3-0.3,4.5c-0.2,0.8-1.1,1.2-2.6,1.3c-0.4,0-0.9,0-1.3-0.1l-0.3-0.9
			c0.4,0,0.9,0.1,1.3,0.1c1.1,0,1.7-0.3,1.9-0.7c0.2-1.1,0.3-2.1,0.2-3.2H535l0.7-4.2h4.7v-2.2h-5.1v-0.9h6.1v4h-4.8L536.1,19.5z
			 M545.8,12.6v12.8h-1V12.6L545.8,12.6z"/>
	</g>
</g>
<g>
	<path class="st1" d="M681,1h138v300H681V1"/>
	<g>
		<path class="st2" d="M695.2,20.1c0-0.4,0-0.9,0-1.5h1c0,0.7,0,1.2,0,1.5h3.7v-1.5h1v1.5h3.5V21h-3.5v3.3h-1V21h-3.8
			c-0.3,1.6-1.5,2.9-3.1,3.4l-0.5-0.9c1.3-0.2,2.3-1.2,2.6-2.5h-3.5v-0.9L695.2,20.1z M702.2,15.5h-8v0.9c0,0.3,0.2,0.7,0.5,0.7
			c0.1,0,0.1,0,0.2,0h7.4c0.2,0,0.5-0.1,0.6-0.3c0.1-0.4,0.2-0.7,0.2-1.1L704,16c0,0.5-0.1,0.9-0.3,1.4c-0.2,0.4-0.7,0.7-1.2,0.6h-8
			c-0.9,0-1.3-0.4-1.3-1.3v-4.5h9L702.2,15.5z M701.2,14.6v-1.5h-7v1.5L701.2,14.6z"/>
		<path class="st2" d="M712.5,11.6v2.1h1.8c0.4-0.6,0.8-1.3,1.1-1.9l0.9,0.3c-0.3,0.6-0.6,1.1-1,1.6h2.5v2.8h-1v-1.9h-9.6v1.9h-1
			v-2.8h2.3c-0.3-0.5-0.6-1-1-1.5l1-0.3c0.4,0.6,0.7,1.2,1,1.8h2v-2.1H712.5z M708.4,18.8v-3.1h7.2v3.1h-3.1v1.1h4.5v2.5
			c0.1,0.6-0.4,1.2-1,1.3c-0.1,0-0.2,0-0.3,0h-1.1l-0.3-1l1.1,0c0.4,0,0.6-0.2,0.6-0.6v-1.4h-3.5v3.6h-1v-3.6h-3.4v3h-1v-3.9h4.4
			v-1.1H708.4z M714.7,16.6h-5.3v1.4h5.3V16.6z"/>
		<path class="st2" d="M730.1,15.8v0.9h-3.6v2.4h4.2v0.9h-4.2V23c1.2,0.2,2.4,0.2,3.6,0.2c0.7,0,1.4,0,2.2-0.1l-0.2,1h-1.6
			c-2.1,0.1-4.1-0.2-6.1-0.8c-0.9-0.4-1.7-1.1-2.3-2c-0.5,1.1-1.2,2.1-2,3l-0.6-0.8c1.4-1.6,2.4-3.6,2.7-5.7l1,0.2
			c-0.2,0.8-0.4,1.6-0.6,2.4c0.5,1.1,1.4,1.9,2.5,2.3c0.1,0,0.3,0.1,0.4,0.1v-6.1h-3.7v-0.9L730.1,15.8z M731.7,16h-1v-2h-9.5v2.1
			h-1v-3h5.4c-0.2-0.5-0.4-0.9-0.7-1.4l1.1-0.2c0.2,0.5,0.5,1,0.6,1.5h5.1L731.7,16z"/>
		<path class="st2" d="M737.7,12c-0.4,1.1-0.8,2.1-1.4,3.1v9.4h-1v-7.8c-0.5,0.6-1,1.2-1.5,1.8l-0.3-1.1c1.5-1.7,2.6-3.6,3.3-5.7
			L737.7,12z M742.2,22.8c0.8-2.3,1.4-4.6,1.9-7l1,0.2c-0.4,2.3-1,4.6-1.8,6.8h3.2v1h-9v-1H742.2z M741.4,13.9
			c-0.2-0.7-0.4-1.4-0.7-2l1.1-0.2c0.2,0.7,0.5,1.5,0.6,2.2h3.7v1h-8.4v-1H741.4z M740.8,22.1l-0.9,0.2c-0.4-2.1-0.9-4.1-1.5-6.1
			l0.9-0.3C740,17.9,740.5,20,740.8,22.1L740.8,22.1z"/>
		<path class="st2" d="M755.6,19.9v1h-7.9v-1H755.6z M751.2,11.7l-0.2,1.9h8.5v1h-8.6l-0.2,2.3h7.9c0,3.8-0.3,6-0.8,6.6
			c-0.5,0.6-1.6,0.9-3.3,0.9c-0.4,0-0.9,0-1.4-0.1l-0.3-0.9c0.7,0.1,1.2,0.1,1.4,0.1c1.6,0,2.5-0.3,2.8-0.8c0.3-0.6,0.5-2.2,0.5-4.8
			h-8l0.7-6.1L751.2,11.7z"/>
		<path class="st2" d="M772.8,23h1.5v0.9h-12.7V23h1.6v-3.9h9.6V23z M763.6,12.3V18h-1v-5.7H763.6z M766,23v-2.9h-1.9V23H766z
			 M766.5,11.6v6.9h-1v-6.9L766.5,11.6z M769,23v-2.9h-2V23H769z M767.8,17.1l-0.6-0.8c1.1-1.4,1.8-3,2-4.8l1,0.2
			c-0.1,0.6-0.2,1.1-0.4,1.6h4.2v1h-4.5C769.1,15.3,768.5,16.3,767.8,17.1z M771.9,23v-2.9h-1.9V23H771.9z M772.7,17.7l-0.8,0.6
			c-0.5-0.9-1.1-1.7-1.7-2.5l0.8-0.5C771.6,16,772.1,16.8,772.7,17.7L772.7,17.7z"/>
		<path class="st2" d="M776.1,24.3l-0.2-1c0.4,0,0.7,0.1,1.1,0.1c0.3,0,0.5-0.1,0.5-0.4c0,0,0-0.1,0-0.1v-3.4
			c-0.6,0.2-1.1,0.4-1.7,0.6l-0.3-1c0.7-0.2,1.3-0.4,1.9-0.6v-3.1h-1.7v-1h1.7v-2.7h1v2.7h1.2v1h-1.2V18c0.4-0.2,0.8-0.4,1.2-0.6v1
			c-0.4,0.2-0.8,0.4-1.2,0.6v4.1c0.1,0.6-0.3,1.1-0.9,1.2c-0.1,0-0.2,0-0.3,0L776.1,24.3z M780.4,19.9V19h7.5v0.9h-3.2v3h3.7v1h-8.6
			v-1h3.8v-3H780.4z M784.7,13.2h3.3v2.6h-0.9v-1.7h-5.9v1.7h-1v-2.6h3.5c-0.2-0.5-0.4-1-0.7-1.5l1-0.2
			C784.3,12,784.5,12.6,784.7,13.2L784.7,13.2z M783.6,15.3c-0.5,1.3-1.4,2.3-2.5,3.2l-0.7-0.6c1-0.7,1.9-1.7,2.4-2.9L783.6,15.3z
			 M787.8,17.9l-0.9,0.4c-0.6-1.1-1.4-2.1-2.3-3.1l0.9-0.4C786.3,15.8,787.1,16.8,787.8,17.9L787.8,17.9z"/>
	</g>
</g>
<g>
	<rect x="469" y="40" class="st3" width="146" height="246"/>
	<g>
		<path class="st2" d="M487.1,54.1v1h-5.9v3.4h5.6v1h-5.6v3.7h6.2v1H480v-10H487.1z"/>
		<path class="st2" d="M490.1,53.9v10.2H489V53.9H490.1z"/>
		<path class="st2" d="M497.5,57.5c0.5,0.6,0.7,1.3,0.6,2v4.7h-1.1v-1.2c-0.3,0.4-0.7,0.7-1.1,1c-0.6,0.3-1.2,0.5-1.8,0.4
			c-0.6,0-1.2-0.2-1.7-0.5c-0.4-0.4-0.7-0.9-0.7-1.5c0-0.8,0.3-1.5,1-1.9c0.8-0.4,1.6-0.7,2.5-0.6l1.7,0v-0.4c0-1.2-0.6-1.8-1.9-1.8
			c-0.5,0-0.9,0.1-1.3,0.3c-0.4,0.2-0.6,0.6-0.7,1l-1.1-0.1c0.1-0.7,0.5-1.3,1.1-1.7c0.6-0.4,1.4-0.5,2.1-0.5
			C496.1,56.6,496.9,56.9,497.5,57.5z M495.4,60.6c-1.6,0-2.4,0.6-2.4,1.6c0,0.3,0.1,0.6,0.4,0.8c0.3,0.2,0.7,0.3,1.1,0.3
			c0.7,0,1.3-0.2,1.8-0.7c0.5-0.4,0.8-0.9,0.8-1.5v-0.6L495.4,60.6z"/>
		<path class="st2" d="M505.4,58.9h-1.1c-0.1-0.4-0.3-0.7-0.6-1c-0.4-0.2-0.9-0.4-1.3-0.3c-0.4,0-0.8,0.1-1.2,0.3
			c-0.3,0.1-0.5,0.4-0.5,0.8c0,0.3,0.2,0.6,0.6,0.8c0.5,0.2,1,0.4,1.5,0.5c0.7,0.1,1.3,0.4,1.9,0.7c0.5,0.3,0.9,0.9,0.9,1.5
			c0,1.5-1,2.2-3.1,2.2c-1.9,0-2.9-0.8-3.1-2.5h1.1c0,0.5,0.3,0.9,0.6,1.2c0.4,0.3,0.9,0.4,1.4,0.3c1.3,0,1.9-0.4,1.9-1.2
			c0-0.4-0.3-0.8-0.7-0.9c-0.5-0.2-1-0.3-1.5-0.5c-0.6-0.1-1.2-0.3-1.8-0.6c-0.5-0.3-0.8-0.8-0.8-1.4c0-0.6,0.3-1.2,0.8-1.5
			c0.6-0.4,1.3-0.6,2-0.5C504.3,56.6,505.2,57.4,505.4,58.9z"/>
		<path class="st2" d="M508.9,56.8h1.8v0.9h-1.8v4.6c0,0.2,0,0.4,0.2,0.6c0.1,0.1,0.3,0.2,0.5,0.2h0.9v0.9h-1.1
			c-0.5,0-0.9-0.1-1.3-0.5c-0.3-0.4-0.4-0.8-0.4-1.2v-4.6h-1.5v-0.9h1.5v-1.9l1.1-0.5L508.9,56.8z"/>
		<path class="st2" d="M513.5,54.3c0.2,0.1,0.3,0.4,0.3,0.6c0,0.2-0.1,0.4-0.3,0.6c-0.3,0.3-0.9,0.3-1.2,0c-0.2-0.2-0.2-0.4-0.2-0.6
			c0-0.2,0.1-0.4,0.2-0.6C512.6,54,513.1,54,513.5,54.3z M513.4,56.8v7.3h-1.1v-7.3L513.4,56.8z"/>
		<path class="st2" d="M520.8,57.3c0.6,0.5,1,1.2,1,2h-1.1c-0.1-0.5-0.3-0.9-0.7-1.3c-0.4-0.3-0.9-0.4-1.4-0.4
			c-0.7,0-1.3,0.3-1.7,0.8c-0.4,0.6-0.6,1.4-0.6,2.1c0,0.7,0.2,1.5,0.6,2.1c0.4,0.5,1,0.8,1.7,0.8c1.1,0.1,2-0.7,2.1-1.8
			c0,0,0-0.1,0-0.1h1.1c-0.1,0.8-0.5,1.6-1.1,2.1c-0.6,0.5-1.4,0.7-2.2,0.7c-1,0.1-1.9-0.4-2.5-1.1c-0.6-0.8-0.9-1.7-0.9-2.7
			c0-1,0.3-1.9,0.9-2.7c0.6-0.8,1.6-1.2,2.5-1.2C519.4,56.6,520.2,56.8,520.8,57.3z"/>
		<path class="st2" d="M528.7,58.9h-1.1c-0.1-0.4-0.3-0.7-0.6-1c-0.4-0.2-0.9-0.4-1.3-0.3c-0.4,0-0.8,0.1-1.2,0.3
			c-0.3,0.1-0.5,0.4-0.5,0.8c0,0.3,0.2,0.6,0.6,0.8c0.5,0.2,1,0.4,1.5,0.5c0.7,0.1,1.3,0.4,1.9,0.7c0.5,0.3,0.9,0.9,0.9,1.5
			c0,1.5-1,2.2-3.1,2.2c-1.9,0-2.9-0.8-3.1-2.5h1.1c0,0.5,0.3,0.9,0.6,1.2c0.4,0.3,0.9,0.4,1.4,0.3c1.3,0,1.9-0.4,1.9-1.2
			c0-0.4-0.3-0.8-0.7-0.9c-0.5-0.2-1-0.3-1.5-0.5c-0.6-0.1-1.2-0.3-1.8-0.6c-0.5-0.3-0.8-0.8-0.8-1.4c0-0.6,0.3-1.2,0.8-1.5
			c0.6-0.4,1.3-0.6,2-0.5C527.5,56.6,528.5,57.4,528.7,58.9z"/>
		<path class="st2" d="M535.9,57.8c0.6,0.9,0.9,1.9,0.8,3H531c0,0.7,0.2,1.4,0.7,1.9c0.4,0.5,1,0.7,1.6,0.7c0.5,0,1-0.1,1.4-0.5
			c0.3-0.3,0.6-0.7,0.7-1.1h1.1c-0.1,0.7-0.5,1.3-1,1.7c-0.6,0.6-1.5,0.8-2.3,0.8c-0.9,0-1.9-0.3-2.5-1c-1.3-1.6-1.3-3.9,0-5.5
			c0.6-0.8,1.5-1.2,2.5-1.1C534.3,56.6,535.2,57,535.9,57.8z M531.7,58.2c-0.4,0.5-0.7,1.1-0.7,1.7h4.5c-0.1-1.6-0.9-2.3-2.3-2.3
			C532.7,57.6,532.1,57.8,531.7,58.2z"/>
		<path class="st2" d="M543.5,57.5c0.5,0.6,0.7,1.3,0.6,2v4.7h-1.1v-1.2c-0.3,0.4-0.7,0.7-1.1,1c-0.6,0.3-1.2,0.5-1.8,0.4
			c-0.6,0-1.2-0.2-1.7-0.5c-0.4-0.4-0.7-0.9-0.7-1.5c0-0.8,0.3-1.5,1-1.9c0.8-0.4,1.6-0.7,2.5-0.6l1.7,0v-0.4c0-1.2-0.6-1.8-1.9-1.8
			c-0.5,0-0.9,0.1-1.3,0.3c-0.4,0.2-0.6,0.6-0.7,1l-1.1-0.1c0.1-0.7,0.5-1.3,1.1-1.7c0.6-0.4,1.4-0.5,2.1-0.5
			C542,56.6,542.9,56.9,543.5,57.5z M541.3,60.6c-1.6,0-2.4,0.6-2.4,1.6c0,0.3,0.1,0.6,0.4,0.8c0.3,0.2,0.7,0.3,1.1,0.3
			c0.7,0,1.3-0.2,1.8-0.7c0.5-0.4,0.8-0.9,0.8-1.5v-0.6L541.3,60.6z"/>
		<path class="st2" d="M550,56.8v1.1c-0.3-0.1-0.7-0.2-1.1-0.2c-0.6,0-1.1,0.3-1.4,0.7c-0.4,0.5-0.6,1.1-0.6,1.7v3.9h-1.1v-7.3h1.1
			v1.3c0.2-0.4,0.4-0.7,0.8-1c0.4-0.3,0.8-0.5,1.3-0.5C549.4,56.6,549.7,56.7,550,56.8z"/>
		<path class="st2" d="M556.2,57.3c0.6,0.5,1,1.2,1,2h-1.1c-0.1-0.5-0.3-0.9-0.7-1.3c-0.4-0.3-0.9-0.4-1.4-0.4
			c-0.7,0-1.3,0.3-1.7,0.8c-0.4,0.6-0.6,1.4-0.6,2.1c0,0.7,0.2,1.5,0.6,2.1c0.4,0.5,1,0.8,1.7,0.8c1.1,0.1,2-0.7,2.1-1.8
			c0,0,0-0.1,0-0.1h1.1c-0.1,0.8-0.5,1.6-1.1,2.1c-0.6,0.5-1.4,0.7-2.2,0.7c-1,0.1-1.9-0.4-2.5-1.1c-0.6-0.8-0.9-1.7-0.9-2.7
			c0-1,0.3-1.9,0.9-2.7c0.6-0.8,1.6-1.2,2.5-1.2C554.9,56.6,555.6,56.8,556.2,57.3z"/>
		<path class="st2" d="M559.7,53.9V58c0.4-0.9,1.3-1.4,2.3-1.4c0.7-0.1,1.4,0.2,1.9,0.7c0.5,0.6,0.7,1.4,0.7,2.1v4.6h-1.1v-4.4
			c0-0.6-0.1-1.1-0.5-1.6c-0.4-0.4-0.9-0.6-1.4-0.5c-0.5,0-1.1,0.2-1.4,0.7c-0.4,0.5-0.6,1.1-0.6,1.7v4.1h-1.1V53.9H559.7z"/>
		<path class="st2" d="M566.7,57.3l-0.6-0.8c1.2-1.1,2.2-2.4,2.8-4l0.9,0.2c-0.1,0.4-0.3,0.7-0.5,1.1h3c-0.2-0.4-0.4-0.8-0.6-1.2
			l1-0.2c0.2,0.4,0.4,0.9,0.6,1.4h4.5v0.8h-4.5v1h3.9v0.8h-3.9v0.9h3.9v0.8h-3.9v1h4.7v0.9h-10.3v-4
			C567.5,56.5,567.1,56.9,566.7,57.3z M566.5,62.1v-0.9h5.6v-0.7h1v0.7h5.5v0.9h-4.2c1.3,1.1,2.8,1.8,4.4,2.1l-0.4,0.9
			c-1.9-0.5-3.6-1.6-4.9-3h-0.3v3.4h-1v-3.4h-0.3c-1.3,1.5-3,2.6-4.9,3.1l-0.5-0.9c1.6-0.4,3.2-1.2,4.5-2.2L566.5,62.1z M572.5,54.8
			h-3.6l-0.1,0.1v0.8h3.6L572.5,54.8z M572.5,56.5h-3.6v0.9h3.6V56.5z M572.5,58.2h-3.6v1h3.6V58.2z"/>
		<path class="st2" d="M582.7,59c-0.1,0.5-0.3,0.9-0.4,1.4h3.7v5h-0.9v-0.8h-2.2v0.8h-0.9v-4.2c-0.3,0.8-0.8,1.5-1.4,2.1l-0.5-0.8
			c0.8-1,1.4-2.2,1.7-3.5h-1.1v-0.9h1.3c0.1-0.5,0.2-1,0.2-1.6h-1.9v-0.9h2c0-0.5,0.1-1.1,0.1-1.6h-1.6v-0.9h4.8v2.5h0.8v0.9h-0.8
			V59L582.7,59z M585.1,63.7v-2.4h-2.2v2.4L585.1,63.7z M582.9,58.2h1.8v-1.6h-1.5C583.1,57.1,583,57.6,582.9,58.2L582.9,58.2z
			 M583.2,55.7h1.4V54h-1.4C583.3,54.6,583.3,55.1,583.2,55.7L583.2,55.7z M586.8,56.3v-1h1.7c-0.4-0.8-0.8-1.5-1.2-2.2l0.9-0.4
			c0.4,0.7,0.8,1.5,1.2,2.2l-0.8,0.4h1.6c0.4-0.9,0.8-1.8,1.1-2.8l1,0.3c-0.3,0.8-0.6,1.6-1,2.4h1.6v1h-2.3v2h2v0.9h-2v2h2.6v1h-2.6
			v3.2h-1v-3.2h-2.6v-1h2.6v-2h-2.2v-0.9h2.2v-2L586.8,56.3z"/>
	</g>
</g>
<g>
	<rect x="16" y="58.7" class="st4" width="104.7" height="50"/>
	<rect x="14" y="56.7" class="st5" width="104.7" height="50"/>
	<g>
		<path class="st2" d="M48.1,88.1l-0.8-0.7c0.6-1.5,0.9-3.2,0.9-4.8v-6.7h4.1v10.9c0,0.8-0.4,1.3-1.2,1.3H50l-0.2-0.9
			c0.4,0,0.7,0.1,1.1,0.1s0.5-0.3,0.5-0.8v-3.2h-2.3C49,84.9,48.7,86.6,48.1,88.1z M51.3,76.7h-2.3v2.4h2.3L51.3,76.7z M49.1,82.4
			h2.3V80h-2.3L49.1,82.4z M54.4,88.1h-1V75.8h5.7c0.1,1.2,0,2.3-0.3,3.4c-0.2,0.6-0.7,0.9-1.6,0.9h-1.1l-0.3-0.9c0.2,0,0.5,0,0.9,0
			c0.2,0,0.5,0,0.7-0.1c0.2-0.1,0.3-0.2,0.4-0.4c0.1-0.7,0.2-1.4,0.2-2.1h-3.7V81h4.8v0.9c-0.2,1.3-0.7,2.6-1.4,3.7
			c0.7,0.6,1.4,1.2,2.2,1.7L59.5,88c-0.8-0.5-1.6-1.1-2.3-1.7C56.6,87,55.9,87.6,55,88l-0.5-0.8c0.8-0.4,1.5-1,2-1.7
			c-0.9-1.1-1.5-2.3-1.8-3.7h-0.3L54.4,88.1z M57.1,84.8c0.5-0.9,0.9-1.9,1.1-2.9h-2.7C55.9,82.9,56.4,83.9,57.1,84.8L57.1,84.8z"/>
		<path class="st2" d="M66.4,75.3c-0.2,0.4-0.3,0.7-0.5,1.1h6.1v0.8c-0.9,1.1-2,2-3.3,2.6c1.7,0.7,3.5,1.1,5.3,1.3l-0.5,0.9
			c-2.1-0.2-4.1-0.8-5.9-1.7c-1.9,0.8-3.9,1.4-6,1.7l-0.5-1c1.8-0.2,3.6-0.7,5.4-1.3c-0.8-0.5-1.5-1-2.2-1.6
			c-0.5,0.5-1.1,0.9-1.8,1.3l-0.6-0.8c1.5-0.8,2.7-2,3.4-3.5L66.4,75.3z M67.7,81.4c0,0.5,0,1.1-0.1,1.6h4.9c0,2.4-0.2,3.8-0.6,4.2
			c-0.6,0.5-1.3,0.8-2.1,0.7c-0.4,0-1,0-1.6-0.1L67.9,87l1.7,0.1c0.8,0,1.4-0.2,1.6-0.5c0.3-0.8,0.4-1.7,0.4-2.6h-4.1
			c-0.1,0.4-0.3,0.7-0.4,1.1c-0.7,1.3-2.4,2.3-4.9,3.1l-0.7-0.8c2.3-0.7,3.8-1.5,4.6-2.6c0.2-0.3,0.3-0.5,0.4-0.8h-4.2V83h4.5
			c0.1-0.5,0.2-1.1,0.2-1.6L67.7,81.4z M70.5,77.3h-5.4L65,77.6c0.8,0.7,1.7,1.3,2.6,1.8C68.6,78.8,69.6,78.1,70.5,77.3z"/>
		<path class="st2" d="M80.1,80.6c0.3-0.4,0.5-0.7,0.6-1.1l1,0.1c-0.1,0.4-0.3,0.7-0.5,1h3.6c-0.2-0.3-0.4-0.7-0.6-1l0.9-0.3
			c0.3,0.4,0.5,0.8,0.8,1.2h1.9v0.9h-3.8c1.2,1,2.6,1.7,4.1,2l-0.4,0.9c-0.4-0.1-0.7-0.2-1-0.3v4.1h-0.9v-0.6h-2.6v0.6h-0.9v-4.4
			h3.7c-1.2-0.5-2.2-1.3-3.1-2.2h-2.4c-0.9,1-2,1.7-3.2,2.2h3.5v4.4H80v-0.6h-2.4v0.6h-0.9v-4.1c-0.4,0.1-0.8,0.3-1.1,0.4l-0.5-0.8
			c1.5-0.4,2.9-1.1,4.1-2.1h-3.9v-0.9L80.1,80.6z M80.8,75.8v3.4h-4.3v-3.4H80.8z M79.8,76.6h-2.4v1.7h2.4L79.8,76.6z M80,86.6v-2.1
			h-2.4v2.1H80z M86.7,75.8v3.4h-4.4v-3.4H86.7z M85.7,86.6v-2.1h-2.6v2.1H85.7z M85.8,76.6h-2.5v1.7h2.5L85.8,76.6z"/>
	</g>
</g>
<g>
	<rect x="16" y="141.7" class="st4" width="104.7" height="50"/>
	<rect x="14" y="139.7" class="st5" width="104.7" height="50"/>
	<g>
		<path class="st2" d="M38.7,159.2c1.5-0.1,3-0.4,4.5-0.9l0.3,1c-0.6,0.2-1.2,0.3-1.8,0.4v2.4h1.8v1h-1.8v0.8c0.7,0.5,1.3,1.1,2,1.8
			l-0.6,0.8c-0.5-0.6-0.9-1.2-1.5-1.8v6.3h-1v-6.4c-0.5,1.3-1.2,2.5-2,3.6l-0.4-1.1c1.1-1.2,1.9-2.6,2.3-4.1h-2v-1h2.1v-2.2
			c-0.6,0.1-1.2,0.2-1.9,0.2L38.7,159.2z M49.3,163.9c-0.2,0.4-0.5,0.7-0.8,1h2.7v0.9c-0.9,2.5-3.4,4.2-7.6,5.2l-0.5-0.9
			c1.4-0.3,2.7-0.7,4-1.3l-1.2-1.2l0.7-0.5c0.5,0.4,0.9,0.8,1.3,1.3c1-0.6,1.8-1.4,2.3-2.5h-2.7c-1.1,0.7-2.3,1.2-3.5,1.6l-0.6-0.9
			c2.4-0.6,4.1-1.6,5-2.9L49.3,163.9z M47.2,159.3h3.1v0.8c-0.8,2.2-2.9,3.7-6.2,4.6l-0.5-0.8c1-0.2,1.9-0.6,2.8-1.1
			c-0.3-0.4-0.6-0.8-1-1.2l0.7-0.5c0.4,0.4,0.7,0.8,1,1.3c0.9-0.6,1.6-1.4,2.2-2.3h-2.9c-0.7,0.7-1.4,1.2-2.2,1.7l-0.7-0.8
			c1.3-0.7,2.4-1.7,3.2-2.9l1,0.2C47.6,158.7,47.4,159,47.2,159.3z"/>
		<path class="st2" d="M58.7,163v1h-3.2c-0.4,1.6-0.9,3.1-1.5,4.6c1.1-0.2,2.2-0.5,3.3-1c-0.4-0.8-0.7-1.4-1.1-2.1l0.9-0.4
			c0.7,1.3,1.3,2.6,1.9,3.9l-0.9,0.4c-0.1-0.4-0.3-0.7-0.4-1c-1.6,0.6-3.2,1-4.8,1.3l-0.2-1c0.1,0,0.2,0,0.2-0.1
			c0.8-1.5,1.3-3.1,1.7-4.7h-1.9v-1H58.7z M58.2,159.2v1h-5.1v-1H58.2z M61.8,158.3v2.8h3.1c0,4.4-0.1,7.1-0.2,8.1
			c0,1-0.9,1.8-1.9,1.7c-0.1,0-0.1,0-0.2,0c-0.2,0-0.6,0-1.2,0l-0.2-0.9c0.5,0,1,0.1,1.3,0.1c0.7,0,1.1-0.4,1.2-1.2
			c0.1-0.7,0.1-3,0.2-6.8h-2.1v0.2c0,4-1,7-2.9,8.9l-0.8-0.7c1.8-1.7,2.6-4.4,2.7-8.2v-0.2h-1.9v-1h1.9v-2.8L61.8,158.3z"/>
		<path class="st2" d="M69.4,162.5v6.2c0.5-0.4,1.1-0.9,1.6-1.4l0.3,1.1c-0.9,0.8-1.8,1.5-2.8,2.2l-0.4-0.9c0.2-0.2,0.3-0.4,0.3-0.6
			v-5.5h-1.9v-1L69.4,162.5z M70.3,160.6l-0.7,0.7c-0.7-0.8-1.4-1.5-2.2-2.1l0.7-0.7C68.9,159.1,69.7,159.8,70.3,160.6z M78.1,164.2
			v0.9c-0.4,1.3-1.2,2.5-2.2,3.4c1.1,0.7,2.3,1.3,3.5,1.7l-0.5,0.9c-1.3-0.5-2.5-1.2-3.7-2c-1.3,0.9-2.7,1.6-4.1,2l-0.6-0.9
			c1.4-0.4,2.7-1,3.9-1.8c-1-0.9-1.7-2-2.2-3.3h-0.8v-1L78.1,164.2z M77.2,158.8v3c0,0.3,0.2,0.5,0.4,0.5c0,0,0.1,0,0.1,0h1.3v0.9
			h-1.5c-0.9,0-1.3-0.4-1.3-1.2v-2.3h-2.7v0.5c0,1.5-0.8,2.8-2.2,3.4l-0.7-0.8c1.1-0.4,1.8-1.4,1.8-2.6v-1.6L77.2,158.8z
			 M75.1,167.9c0.9-0.7,1.6-1.7,2-2.7h-3.9C73.6,166.2,74.2,167.1,75.1,167.9L75.1,167.9z"/>
		<path class="st2" d="M86,158.3c-0.2,0.3-0.4,0.6-0.7,0.9H91v0.8c-0.9,1.1-2,2-3.2,2.7c1.7,0.7,3.5,1.2,5.4,1.4l-0.4,0.9
			c-2-0.3-4-0.9-5.9-1.7c-1.9,0.9-3.9,1.5-6,1.9l-0.4-0.9c1.9-0.2,3.7-0.7,5.5-1.5c-0.8-0.5-1.6-1.1-2.2-1.8c-0.6,0.6-1.3,1.1-2,1.5
			l-0.6-0.8c1.6-0.9,2.9-2.1,3.9-3.6L86,158.3z M91.3,171.1h-1v-0.6h-6.9v0.6h-1V165h8.8L91.3,171.1z M86.4,167.3v-1.5h-3v1.5
			L86.4,167.3z M86.4,169.6v-1.5h-3v1.5L86.4,169.6z M86.9,162.2c1.1-0.6,2-1.3,2.9-2.1h-5.2l-0.3,0.3
			C85.1,161.1,85.9,161.8,86.9,162.2L86.9,162.2z M87.3,167.3h3v-1.5h-3L87.3,167.3z M90.3,169.6v-1.5h-3v1.5L90.3,169.6z"/>
	</g>
</g>
<g>
	<rect x="16" y="224.7" class="st4" width="104.7" height="50"/>
	<rect x="14" y="222.7" class="st5" width="104.7" height="50"/>
	<g>
		<path class="st2" d="M36.2,242.7v10h-1.1v-10H36.2z"/>
		<path class="st2" d="M46.2,244c1.6,2.2,1.6,5.2,0,7.4c-1.9,2-5,2-7,0.1c0,0,0,0,0,0l-0.1-0.1c-1.6-2.2-1.6-5.2,0-7.4
			c0.9-1,2.2-1.6,3.6-1.5C44,242.4,45.3,243,46.2,244z M40,244.7c-1.2,1.8-1.2,4.2,0,6c0.7,0.8,1.7,1.2,2.7,1.2c1,0,2-0.4,2.7-1.1
			c0.7-0.9,1-1.9,0.9-3c0.1-1.1-0.3-2.2-0.9-3c-1.4-1.5-3.8-1.5-5.2-0.1C40.1,244.6,40,244.6,40,244.7L40,244.7z"/>
		<path class="st2" d="M56.5,242.7v1H53v9h-1.1v-9h-3.5v-1L56.5,242.7z"/>
		<path class="st2" d="M57.5,248l-0.3-1.1c1.5-1.7,2.6-3.6,3.3-5.7l1,0.4c-0.4,1.1-0.8,2.1-1.4,3.1v9.4h-1v-7.8
			C58.6,246.9,58.1,247.5,57.5,248z M64.4,243l0.4-1.8l1,0.1c-0.1,0.6-0.3,1.2-0.4,1.7h4.2v1h-4.5c-0.2,0.6-0.3,1.1-0.5,1.6h5.5v1
			h-5.9c-0.2,0.6-0.5,1.2-0.7,1.8h5.8v0.9c-0.7,1.1-1.7,2.1-2.8,2.9c0.7,0.4,1.3,0.7,1.9,1.1l-0.6,0.9c-1.6-1.1-3.4-2.1-5.3-2.8
			l0.5-0.8c0.9,0.3,1.7,0.7,2.5,1.1c1-0.7,1.9-1.5,2.6-2.4h-6c0.4-0.9,0.7-1.8,1-2.7H61v-1h2.6c0.2-0.5,0.3-1.1,0.5-1.6h-2.5v-1
			L64.4,243z"/>
		<path class="st2" d="M83.5,243.4h-3.3c0,0.8,0.1,1.6,0.3,2.4c0.1,0.4,0.2,0.8,0.4,1.2c0.5-0.9,1-1.8,1.3-2.8l0.8,0.4
			c-0.4,1.2-0.9,2.4-1.6,3.4l0.1,0.2c0.4,0.5,0.7,0.7,1,0.7c0.3,0,0.5-0.6,0.8-1.8l0.8,0.5c-0.4,1.5-0.9,2.2-1.5,2.2
			c-0.6,0-1.2-0.4-1.6-0.9c-0.1-0.1-0.2-0.2-0.2-0.3c-0.4,0.5-0.9,0.9-1.5,1.2l-0.5-0.8c0.6-0.3,1.1-0.8,1.5-1.2
			c-0.2-0.5-0.4-1-0.6-1.5c-0.2-1-0.4-1.9-0.4-2.9h-5.7v1.8c0,1.6-0.5,3.2-1.4,4.5l-0.8-0.7c0.8-1.1,1.2-2.4,1.2-3.8v-2.8h6.7
			c0-0.4,0-0.9,0-1.3h1c0,0.5,0,0.9,0,1.3h1.5c-0.1-0.4-0.3-0.7-0.5-1.1l0.9-0.2c0.2,0.4,0.3,0.8,0.4,1.2h0.9V243.4z M73.9,250.2
			c-0.3,1.2-0.9,2.4-1.6,3.4l-0.9-0.5c0.7-0.9,1.2-2,1.6-3.1L73.9,250.2z M78.8,244.5v0.8h-4.6v-0.8H78.8z M78.5,246.3v2.9h-3.9
			v-2.9H78.5z M76.1,253.8c-0.8,0-1.2-0.4-1.2-1.3v-2.7h1v2.5c0,0.4,0.2,0.6,0.5,0.6h3c0.2,0,0.5-0.1,0.6-0.2c0.2-0.5,0.3-1,0.3-1.5
			l1,0.3c0,0.7-0.2,1.4-0.5,2c-0.3,0.2-0.7,0.3-1.1,0.3L76.1,253.8z M77.5,247h-2v1.3h2L77.5,247z M79.2,251.5l-0.8,0.5
			c-0.4-0.7-0.9-1.3-1.5-1.9l0.8-0.5C78.3,250.2,78.8,250.8,79.2,251.5z M84.1,252.7l-0.8,0.6c-0.6-0.9-1.2-1.7-1.9-2.5l0.8-0.5
			C82.9,251,83.6,251.9,84.1,252.7L84.1,252.7z"/>
		<path class="st2" d="M90.3,246.6c0.3-0.4,0.5-0.7,0.6-1.1l1,0.1c-0.1,0.4-0.3,0.7-0.5,1H95c-0.2-0.3-0.4-0.7-0.6-1l0.9-0.3
			c0.3,0.4,0.5,0.8,0.8,1.2h1.9v0.9h-3.8c1.2,1,2.6,1.7,4.1,2l-0.4,0.9c-0.4-0.1-0.7-0.2-1-0.4v4.1h-0.9v-0.6h-2.6v0.6h-0.9v-4.4
			h3.7c-1.2-0.5-2.2-1.3-3.1-2.2h-2.4c-0.9,1-2,1.7-3.2,2.2h3.5v4.4h-0.9v-0.6h-2.4v0.6h-0.9v-4.1c-0.4,0.1-0.8,0.3-1.1,0.4
			l-0.5-0.8c1.5-0.4,2.9-1.1,4.1-2.1h-3.9v-0.9L90.3,246.6z M91,241.8v3.4h-4.3v-3.4H91z M90,242.6h-2.4v1.7H90L90,242.6z
			 M90.2,252.6v-2.1h-2.4v2.1H90.2z M96.9,241.8v3.4h-4.4v-3.4H96.9z M95.9,252.6v-2.1h-2.6v2.1H95.9z M96,242.6h-2.5v1.7H96
			L96,242.6z"/>
	</g>
</g>
<g>
	<rect x="285.7" y="93" class="st4" width="97" height="50"/>
	<rect x="283.7" y="91" class="st5" width="97" height="50"/>
	<g>
		<path class="st2" d="M320.4,111l-4.5,4.3l5.2,5.7h-1.5l-4.4-5l-1.6,1.5v3.5h-1.1v-10h1.1v5.2l5.4-5.2H320.4z"/>
		<path class="st2" d="M327.4,114.4c0.5,0.6,0.7,1.3,0.6,2v4.7h-1.1v-1.2c-0.3,0.4-0.7,0.7-1.1,1c-0.6,0.3-1.2,0.5-1.8,0.4
			c-0.6,0-1.2-0.2-1.7-0.5c-0.4-0.4-0.7-0.9-0.7-1.5c0-0.8,0.3-1.5,1-1.9c0.8-0.4,1.6-0.7,2.5-0.6l1.7,0v-0.4c0-1.2-0.6-1.8-1.9-1.8
			c-0.5,0-0.9,0.1-1.3,0.3c-0.4,0.2-0.6,0.6-0.7,1l-1.1-0.1c0.1-0.7,0.5-1.3,1.1-1.7c0.6-0.4,1.4-0.5,2.1-0.5
			C325.9,113.5,326.7,113.8,327.4,114.4z M325.2,117.6c-1.6,0-2.4,0.6-2.4,1.6c0,0.3,0.1,0.6,0.4,0.8c0.3,0.2,0.7,0.3,1.1,0.3
			c0.7,0,1.3-0.2,1.8-0.7c0.5-0.4,0.8-0.9,0.8-1.5v-0.6L325.2,117.6z"/>
		<path class="st2" d="M334,111v1h-1.2c-0.3,0-0.5,0.1-0.7,0.2c-0.2,0.2-0.2,0.5-0.2,0.8v0.8h2v0.9h-2v6.3h-1.1v-6.3h-1.8v-0.9h1.8
			v-0.8c0-0.5,0.1-1,0.5-1.4c0.4-0.4,0.9-0.6,1.4-0.5H334z"/>
		<path class="st2" d="M336.1,110.8v6.3l3.6-3.4h1.5l-3.2,2.9l3.5,4.3H340l-2.8-3.6l-1.1,1v2.6H335v-10.2H336.1z"/>
		<path class="st2" d="M347.8,114.4c0.5,0.6,0.7,1.3,0.6,2v4.7h-1.1v-1.2c-0.3,0.4-0.7,0.7-1.1,1c-0.6,0.3-1.2,0.5-1.8,0.4
			c-0.6,0-1.2-0.2-1.7-0.5c-0.4-0.4-0.7-0.9-0.7-1.5c0-0.8,0.3-1.5,1-1.9c0.8-0.4,1.6-0.7,2.5-0.6l1.7,0v-0.4c0-1.2-0.6-1.8-1.9-1.8
			c-0.5,0-0.9,0.1-1.3,0.3c-0.4,0.2-0.6,0.6-0.7,1l-1.1-0.1c0.1-0.7,0.5-1.3,1.1-1.7c0.6-0.4,1.4-0.5,2.1-0.5
			C346.4,113.5,347.2,113.8,347.8,114.4z M345.7,117.6c-1.6,0-2.4,0.6-2.4,1.6c0,0.3,0.1,0.6,0.4,0.8c0.3,0.2,0.7,0.3,1.1,0.3
			c0.7,0,1.3-0.2,1.8-0.7c0.5-0.4,0.8-0.9,0.8-1.5v-0.6L345.7,117.6z"/>
	</g>
</g>
<g>
	<rect x="284.5" y="183" class="st4" width="99.4" height="50"/>
	<rect x="282.5" y="181" class="st5" width="99.4" height="50"/>
	<g>
		<path class="st2" d="M304.8,201v9h5.8v1h-6.9v-10H304.8z"/>
		<path class="st2" d="M317.6,204.7c1.2,1.6,1.2,3.8,0,5.4c-0.7,0.8-1.6,1.2-2.6,1.1c-1,0-1.9-0.4-2.6-1.1c-0.6-0.7-1-1.7-0.9-2.7
			c0-1,0.3-1.9,0.9-2.7c1.3-1.4,3.6-1.5,5-0.2C317.5,204.6,317.5,204.6,317.6,204.7L317.6,204.7z M313.2,205.4c-0.8,1.2-0.8,2.8,0,4
			c0.4,0.6,1.1,0.9,1.8,0.9c0.7,0,1.4-0.3,1.8-0.9c0.8-1.2,0.8-2.8,0-4c-0.4-0.6-1.1-0.9-1.8-0.9
			C314.3,204.5,313.6,204.8,313.2,205.4z"/>
		<path class="st2" d="M325.4,205v-1.2h1.1v6.7c0,2.3-1.1,3.5-3.3,3.5c-0.8,0.1-1.6-0.2-2.2-0.6c-0.5-0.4-0.9-1.1-1-1.8h1.1
			c0,0.4,0.3,0.8,0.6,1.1c0.4,0.3,1,0.4,1.5,0.4c1.5,0,2.2-0.8,2.2-2.4v-1.3c-0.5,0.9-1.4,1.5-2.4,1.5c-0.9,0-1.8-0.3-2.4-1
			c-1.2-1.5-1.2-3.6,0-5.2c0.6-0.7,1.5-1.1,2.4-1.1C324,203.5,324.9,204.1,325.4,205z M321.4,205.3c-0.4,0.6-0.6,1.2-0.6,1.9
			c0,0.7,0.2,1.3,0.5,1.9c0.4,0.5,1.1,0.9,1.8,0.8c0.7,0,1.3-0.3,1.7-0.8c0.8-1.2,0.8-2.7,0-3.9c-0.4-0.5-1-0.8-1.7-0.8
			C322.5,204.4,321.8,204.7,321.4,205.3L321.4,205.3z"/>
		<path class="st2" d="M333.8,205.8h-1.1c-0.1-0.4-0.3-0.7-0.6-1c-0.4-0.2-0.9-0.4-1.3-0.3c-0.4,0-0.8,0.1-1.2,0.3
			c-0.3,0.1-0.5,0.4-0.5,0.8c0,0.3,0.2,0.6,0.6,0.8c0.5,0.2,1,0.4,1.5,0.5c0.7,0.1,1.3,0.4,1.9,0.7c0.5,0.3,0.9,0.9,0.9,1.5
			c0,1.5-1,2.2-3.1,2.2c-1.9,0-2.9-0.8-3.1-2.5h1.1c0,0.5,0.3,0.9,0.6,1.2c0.4,0.3,0.9,0.4,1.4,0.3c1.3,0,1.9-0.4,1.9-1.2
			c0-0.4-0.3-0.8-0.7-0.9c-0.5-0.2-1-0.3-1.5-0.5c-0.6-0.1-1.2-0.3-1.8-0.6c-0.5-0.3-0.8-0.8-0.8-1.4c0-0.6,0.3-1.2,0.8-1.5
			c0.6-0.4,1.3-0.6,2-0.5C332.6,203.6,333.6,204.3,333.8,205.8z"/>
		<path class="st2" d="M337.2,203.8h1.8v0.9h-1.8v4.6c0,0.2,0,0.4,0.2,0.6c0.1,0.1,0.3,0.2,0.5,0.2h0.9v0.9h-1.1
			c-0.5,0-0.9-0.1-1.3-0.5c-0.3-0.4-0.4-0.8-0.4-1.2v-4.6h-1.5v-0.9h1.5v-1.9l1.1-0.5L337.2,203.8z"/>
		<path class="st2" d="M345.7,204.4c0.5,0.6,0.7,1.3,0.6,2v4.7h-1.1v-1.2c-0.3,0.4-0.7,0.7-1.1,1c-0.6,0.3-1.2,0.5-1.8,0.4
			c-0.6,0-1.2-0.2-1.7-0.5c-0.4-0.4-0.7-0.9-0.7-1.5c0-0.8,0.3-1.5,1-1.9c0.8-0.4,1.6-0.7,2.5-0.6l1.7,0v-0.4c0-1.2-0.6-1.8-1.9-1.8
			c-0.5,0-0.9,0.1-1.3,0.3c-0.4,0.2-0.6,0.6-0.7,1l-1.1-0.1c0.1-0.7,0.5-1.3,1.1-1.7c0.6-0.4,1.4-0.5,2.1-0.5
			C344.3,203.5,345.1,203.8,345.7,204.4z M343.6,207.6c-1.6,0-2.4,0.6-2.4,1.6c0,0.3,0.1,0.6,0.4,0.8c0.3,0.2,0.7,0.3,1.1,0.3
			c0.7,0,1.3-0.2,1.8-0.7c0.5-0.4,0.8-0.9,0.8-1.5v-0.6L343.6,207.6z"/>
		<path class="st2" d="M353.6,205.8h-1.1c-0.1-0.4-0.3-0.7-0.6-1c-0.4-0.2-0.9-0.4-1.3-0.3c-0.4,0-0.8,0.1-1.2,0.3
			c-0.3,0.1-0.5,0.4-0.5,0.8c0,0.3,0.2,0.6,0.6,0.8c0.5,0.2,1,0.4,1.5,0.5c0.7,0.1,1.3,0.4,1.9,0.7c0.5,0.3,0.9,0.9,0.9,1.5
			c0,1.5-1,2.2-3.1,2.2c-1.9,0-2.9-0.8-3.1-2.5h1.1c0,0.5,0.3,0.9,0.6,1.2c0.4,0.3,0.9,0.4,1.4,0.3c1.3,0,1.9-0.4,1.9-1.2
			c0-0.4-0.3-0.8-0.7-0.9c-0.5-0.2-1-0.3-1.5-0.5c-0.6-0.1-1.2-0.3-1.8-0.6c-0.5-0.3-0.8-0.8-0.8-1.4c0-0.6,0.3-1.2,0.8-1.5
			c0.6-0.4,1.3-0.6,2-0.5C352.5,203.6,353.4,204.3,353.6,205.8z"/>
		<path class="st2" d="M356.3,200.8v4.1c0.4-0.9,1.3-1.4,2.3-1.4c0.7-0.1,1.4,0.2,1.9,0.7c0.5,0.6,0.7,1.4,0.7,2.1v4.6h-1.1v-4.4
			c0-0.6-0.1-1.1-0.5-1.6c-0.4-0.4-0.9-0.6-1.4-0.5c-0.5,0-1.1,0.2-1.4,0.7c-0.4,0.5-0.6,1.1-0.6,1.7v4.1h-1.1v-10.2H356.3z"/>
	</g>
</g>
<g>
	<rect x="697.5" y="66" class="st4" width="109" height="47"/>
	<rect x="695.5" y="64" class="st5" width="109" height="47"/>
	<g>
		<path class="st2" d="M729.4,82.6c1.7,1.8,3.8,3.3,6.1,4.4l-0.5,0.9c-2.2-1.1-4.3-2.5-6-4.3c-1.7,1.8-3.7,3.3-6,4.4l-0.5-0.9
			c2.3-1.1,4.4-2.6,6.1-4.4L729.4,82.6z M732.9,87v1h-3.4v2.4h4v1h-4V94h5.3v1h-11.7v-1h5.3v-2.6h-4.1v-1h4.1V88h-3.4v-1L732.9,87z"
			/>
		<path class="st2" d="M742.7,84.9c-0.4-0.8-0.9-1.5-1.4-2.1l1-0.4c0.6,0.8,1.1,1.6,1.5,2.5h5.4v1h-2.2c-0.6,2.1-1.7,4-3.1,5.6
			c1.7,1.4,3.6,2.4,5.6,3.1l-0.5,0.8c-2.1-0.7-4-1.8-5.7-3.2c-1.7,1.5-3.8,2.6-6,3.2l-0.5-0.9c2.1-0.5,4.1-1.5,5.8-3
			c-1.6-1.6-2.8-3.5-3.4-5.6h-2.2v-1H742.7z M743.1,90.9c1.3-1.4,2.2-3.1,2.7-4.9h-5.8C740.6,87.8,741.7,89.5,743.1,90.9L743.1,90.9
			z"/>
		<path class="st2" d="M751,95.3l-0.2-1c0.4,0,0.8,0.1,1.2,0.1c0.3,0,0.5-0.2,0.5-0.6v-3.4c-0.5,0.2-1.1,0.4-1.6,0.5l-0.2-1
			c0.6-0.2,1.2-0.4,1.8-0.6v-3.2h-1.6v-1h1.6v-2.6h1v2.6h1.3v1h-1.3V89c0.5-0.2,1-0.4,1.4-0.7v1c-0.5,0.2-0.9,0.5-1.4,0.7v4.1
			c0,0.8-0.4,1.2-1.1,1.2L751,95.3z M756.3,87.9h2.3v-5.3h0.9v5.3h2.3v-1.4h-1.5v-0.8h1.5v-1.5h-1.5v-0.9h2.5v5.5h-3.2V90h3.1v0.9
			c-0.6,1.1-1.4,2-2.5,2.6c1,0.5,2.1,0.8,3.2,1l-0.4,0.9c-1.4-0.3-2.7-0.7-3.9-1.4c-1.3,0.6-2.8,1.1-4.2,1.4l-0.5-0.9
			c1.3-0.2,2.6-0.6,3.8-1.1c-1-0.7-1.7-1.5-2.3-2.6h-0.6V90h3.3v-1.2h-3.2v-5.1c0.7-0.2,1.4-0.5,2.1-0.9l0.6,0.7
			c-0.6,0.3-1.1,0.5-1.7,0.8v1.3h1.5v0.8h-1.5L756.3,87.9z M759.2,92.9c0.9-0.5,1.8-1.2,2.4-2.1H757
			C757.6,91.7,758.3,92.4,759.2,92.9L759.2,92.9z"/>
		<path class="st2" d="M769.3,93c-1.2,0.9-2.5,1.6-4,2.1l-0.4-0.9c1.4-0.4,2.6-1,3.8-1.8L769.3,93z M770.5,83.7v-1.1h1v1.1h4.7v0.9
			h-4.7v1.2h5.3v2.6h-1v-1.7h-5.4l0.8,0.4c-0.8,0.7-1.7,1.2-2.6,1.7c1.3,0,2.3-0.1,3.1-0.1c0.5-0.3,1-0.7,1.5-1.1l0.8,0.5
			c-1.6,1.2-3.4,2.2-5.3,2.8c1.8-0.1,3.6-0.2,5.4-0.3c-0.3-0.3-0.6-0.7-1-1l0.7-0.5c0.9,0.8,1.6,1.7,2.4,2.6l-0.8,0.5
			c-0.2-0.3-0.5-0.7-0.8-1c-1.1,0.1-2.2,0.1-3.2,0.2v2.7c0,0.7-0.4,1.1-1.1,1.1h-1.3l-0.2-0.9c0.4,0,0.8,0.1,1.1,0.1
			c0.3,0,0.5-0.2,0.5-0.4v-2.4c-1.5,0.1-3,0.1-4.2,0.2l-0.2-0.9c0.3,0,0.6,0,0.9,0c1.2-0.4,2.4-0.9,3.6-1.5c-1,0-2,0.1-3.2,0.1
			l-0.2-0.8c0.2,0,0.4-0.1,0.6-0.2c0.9-0.5,1.8-1.1,2.6-1.8h-4.2v1.7h-1v-2.5h5.3v-1.2h-4.7v-0.9H770.5z M777,94.3l-0.5,0.8
			c-1.2-0.8-2.6-1.5-4-2l0.5-0.7C774.5,92.9,775.8,93.5,777,94.3L777,94.3z"/>
	</g>
</g>
<g>
	<rect x="696.5" y="136.5" class="st4" width="110" height="50"/>
	<rect x="694.5" y="134.5" class="st5" width="110" height="50"/>
	<g>
		<path class="st2" d="M720.1,153.4c-0.6,1.5-1.3,3-2.2,4.4c0.7-0.1,1.3-0.2,2-0.3c0.3-0.5,0.5-1,0.8-1.6l0.9,0.3
			c-0.9,1.8-2,3.5-3.2,5.1c1.1-0.2,2.1-0.5,3.2-0.8v0.9c-1.4,0.5-2.9,0.8-4.4,1.1l-0.3-0.9c0.2-0.1,0.3-0.2,0.5-0.3
			c0.8-0.9,1.4-1.8,2-2.8c-0.8,0.1-1.6,0.2-2.4,0.4l-0.3-0.9c0.2-0.1,0.3-0.2,0.4-0.4c0.8-1.4,1.5-2.9,2-4.4L720.1,153.4z
			 M721.8,164.1c-1.6,0.6-3.2,1-4.9,1.3l-0.1-1c1.7-0.3,3.4-0.7,5-1.2V164.1z M725,154.8v-1.7h1v1.7h3.3v1H726v2.1h2.9v1h-6.8v-1
			h2.9v-2.1h-3.4v-1H725z M728.5,165.9h-1v-0.7h-4v0.7h-1v-5.6h6L728.5,165.9z M727.5,164.2v-3.1h-4v3.1L727.5,164.2z"/>
		<path class="st2" d="M733.8,165.8h-1v-7.1c-0.4,1.4-1.1,2.7-1.9,3.9l-0.4-1.1c1.1-1.4,1.8-3,2.2-4.7h-2v-1h2v-2.7h1v2.7h1.7v1
			h-1.7v0.9c0.6,0.7,1.3,1.4,2,2.2l-0.6,0.9c-0.5-0.8-1-1.5-1.4-2L733.8,165.8z M738.3,153.2c-0.1,0.7-0.2,1.3-0.4,1.9h4.9
			c0,4.8-0.1,7.8-0.2,9c0,1-0.9,1.8-1.9,1.7c0,0-0.1,0-0.1,0c-0.3,0-0.8,0-1.5,0l-0.2-0.9c0.6,0,1.1,0.1,1.6,0.1
			c0.6,0,1.2-0.5,1.2-1.1v0c0.1-0.8,0.2-3.4,0.2-7.7h-4.3c-0.4,1-0.8,2-1.4,2.9l-0.6-0.8c0.9-1.5,1.5-3.3,1.8-5L738.3,153.2z
			 M736,162c0.4-0.2,1.1-1.7,2.1-4.5l0.9,0.3c-0.5,1.3-1,2.6-1.6,3.9c0.8-0.2,1.6-0.3,2.3-0.5c-0.2-0.6-0.4-1.1-0.6-1.6l0.8-0.3
			c0.5,1.1,0.9,2.3,1.3,3.5l-0.9,0.4c-0.1-0.4-0.3-0.9-0.4-1.3c-1.1,0.3-2.3,0.6-3.7,0.9L736,162z"/>
		<path class="st2" d="M749.8,153.4c-0.5,1.2-1.1,2.3-1.9,3.3v9.2h-1v-8c-0.6,0.7-1.3,1.4-2.1,2l-0.3-1.1c1.9-1.6,3.4-3.6,4.3-5.9
			L749.8,153.4z M752.6,165.7c-0.7,0.1-1.4-0.4-1.5-1.1c0-0.1,0-0.2,0-0.4v-4.3c-0.6,0.3-1.2,0.6-1.8,0.9l-0.4-1
			c0.8-0.4,1.5-0.7,2.3-1.2v-5.6h1v5c1.4-0.9,2.7-2.1,3.9-3.3l0.7,0.8c-1.4,1.4-2.9,2.7-4.6,3.7v4.7c0,0.4,0.2,0.7,0.7,0.7h2.3
			c0.3,0,0.6-0.1,0.8-0.4c0.2-0.8,0.3-1.6,0.3-2.4l0.9,0.3c0,1-0.1,2-0.5,2.9c-0.4,0.4-0.9,0.6-1.4,0.5L752.6,165.7z"/>
		<path class="st2" d="M764.5,154.3V153h1v1.3h5.3v0.9h-4.3c1.4,1.2,3.1,2,4.9,2.4l-0.4,0.9c-2.1-0.6-3.9-1.7-5.3-3.3h-0.1v2.6h-1
			v-2.6h-0.1c-1.4,1.6-3.3,2.7-5.3,3.3l-0.5-0.9c1.8-0.4,3.5-1.3,5-2.5h-4.3v-0.9L764.5,154.3z M771,164.6v0.9h-12v-0.9H771z
			 M769.2,158.3v5.2h-8.4v-5.2H769.2z M768.2,160.5v-1.3h-6.4v1.3H768.2z M768.2,161.3h-6.4v1.2h6.4V161.3z"/>
		<path class="st2" d="M775.6,157.3v6.2c0.4-0.4,0.9-0.9,1.4-1.4l0.3,1.1c-0.8,0.8-1.7,1.5-2.6,2.2l-0.4-0.9
			c0.2-0.2,0.3-0.4,0.3-0.6v-5.6h-2.1v-1L775.6,157.3z M776.6,155.4l-0.7,0.7c-0.7-0.8-1.5-1.5-2.4-2.2l0.7-0.7
			C775.1,153.8,775.9,154.6,776.6,155.4L776.6,155.4z M779.9,153.2c-0.1,0.5-0.3,0.9-0.4,1.4h5.5c0,5.1-0.1,8.3-0.2,9.5
			c0,1-0.8,1.8-1.8,1.8c0,0,0,0,0,0c-0.1,0-0.1,0-0.2,0c-0.3,0-0.7,0-1.3,0l-0.2-0.9c0.6,0,1,0.1,1.4,0.1c0.6,0,1-0.4,1.1-1.2
			c0.1-0.9,0.2-3.6,0.2-8.1h-5c-0.5,0.9-1.1,1.8-1.9,2.5l-0.6-0.8c1.2-1.1,2-2.6,2.4-4.2L779.9,153.2z M782.2,157.1v6.4h-4.3v-6.4
			H782.2z M781.3,159.9V158h-2.4v1.9L781.3,159.9z M781.3,160.7h-2.4v1.9h2.4L781.3,160.7z"/>
	</g>
</g>
<g>
	<rect x="696.5" y="214" class="st4" width="110" height="50"/>
	<rect x="694.5" y="212" class="st5" width="110" height="50"/>
	<g>
		<path class="st2" d="M720.2,237.2c-0.1,0.3-0.2,0.5-0.3,0.8h2.9v0.8c-0.3,0.9-0.8,1.7-1.6,2.4c0.7,0.3,1.3,0.6,1.9,1l-0.5,0.8
			c-0.7-0.4-1.4-0.8-2.2-1.1c-1.1,0.7-2.2,1.2-3.5,1.6l-0.5-0.8c1-0.3,2-0.6,3-1.1c-0.6-0.3-1.3-0.5-1.9-0.8c0.4-0.6,0.7-1.2,1-1.8
			h-1.7V238h2c0.1-0.3,0.2-0.6,0.3-0.9L720.2,237.2z M719.7,233.2v-2.7h0.9v2.7h2.5v0.9h-2.5v0.2c0.8,0.4,1.5,0.8,2.3,1.3l-0.5,0.8
			c-0.7-0.6-1.3-1-1.8-1.3v1.8h-0.9v-2.7c-0.5,1.2-1.4,2.2-2.5,2.9l-0.5-0.8c0.9-0.5,1.7-1.2,2.3-2.1h-2v-0.9L719.7,233.2z
			 M718.9,232.6l-0.7,0.3c-0.3-0.6-0.6-1.2-0.9-1.8l0.8-0.3C718.4,231.4,718.6,232,718.9,232.6L718.9,232.6z M722,238.8h-2.4
			c-0.2,0.5-0.5,0.9-0.8,1.3c0.6,0.2,1.1,0.4,1.6,0.6C721.1,240.3,721.6,239.6,722,238.8L722,238.8z M723,231.1
			c-0.3,0.6-0.7,1.2-1.1,1.8l-0.7-0.4c0.4-0.5,0.8-1.1,1.1-1.8L723,231.1z M724.5,235.9c-0.2,0.6-0.5,1.2-0.8,1.7l-0.6-0.8
			c0.9-2,1.5-4.1,1.7-6.3l1,0.2c-0.1,0.7-0.2,1.4-0.3,2h3.7v1h-0.9c0,2.1-0.5,4.1-1.3,6c0.6,1.2,1.5,2.2,2.6,2.9l-0.5,0.8
			c-1-0.8-1.9-1.7-2.5-2.8c-0.7,1.1-1.5,2.1-2.6,2.8l-0.5-0.8c1.1-0.7,2-1.7,2.6-2.9C725.3,238.4,724.9,237.2,724.5,235.9
			L724.5,235.9z M725,234.4c0.3,1.5,0.7,2.9,1.4,4.2c0.6-1.6,0.9-3.3,0.9-5h-2.1L725,234.4z"/>
		<path class="st2" d="M731.1,243.3l-0.2-1c0.4,0,0.7,0.1,1.1,0.1c0.4,0,0.5-0.2,0.5-0.6v-3.4c-0.6,0.2-1.1,0.4-1.7,0.6l-0.3-1
			c0.6-0.2,1.3-0.3,1.9-0.6v-3.2h-1.7v-1h1.7v-2.6h1v2.6h1.3v1h-1.3v2.8c0.4-0.2,0.9-0.4,1.3-0.6v1c-0.4,0.2-0.9,0.4-1.3,0.6v4.1
			c0,0.8-0.4,1.2-1.2,1.2L731.1,243.3z M734.8,243.4l-0.8-0.7c1.1-2.2,1.6-4.7,1.5-7.2v-4.4h7.4v3.4h-2.6v1.7h3v0.9h-3v1.7h2.4v4.6
			h-0.9v-0.7h-3.8v0.7H737v-4.6h2.3v-1.7h-2.9C736.4,239.3,735.8,241.4,734.8,243.4L734.8,243.4z M736.6,234.5v1c0,0.2,0,0.4,0,0.7
			h2.8v-1.7L736.6,234.5z M736.6,232.1v1.6h5.4v-1.6H736.6z M741.7,241.8v-2.1h-3.8v2.1L741.7,241.8z"/>
		<path class="st2" d="M757.3,231.4v1h-1.8v9.5c0.1,0.7-0.3,1.3-1,1.4c-0.1,0-0.2,0-0.3,0h-2.3l-0.2-1c0.8,0,1.5,0.1,2.2,0.1
			c0.4,0,0.7-0.3,0.7-0.7v-9.3h-9.6v-1L757.3,231.4z M751.8,239.7h-4.5v1.2h-1v-6.4h5.4V239.7z M750.9,238.7v-3.3h-3.5v3.3H750.9z"
			/>
		<path class="st2" d="M758.9,239.3l-0.3-1.1c1.6-1.3,2.9-2.9,3.8-4.7h-3.5v-1h2.2c-0.2-0.6-0.5-1.2-0.8-1.8l1-0.3
			c0.3,0.6,0.6,1.3,0.8,1.9l-0.4,0.2h1.8v0.9c-0.4,1.1-1,2.1-1.7,3c0.8,0.5,1.5,1,2.1,1.6l-0.6,0.9c-0.5-0.5-1-1-1.5-1.4v5.9h-1
			v-5.8C760.1,238.1,759.5,238.7,758.9,239.3z M767.8,233.1v2.7c0,1.7-0.3,3.5-1.1,5c-0.8,1.2-1.9,2.2-3.3,2.7l-0.5-0.9
			c1.3-0.5,2.4-1.4,3.1-2.6c0.6-1.4,0.9-2.8,0.9-4.3v-2.7L767.8,233.1z M770.4,238.9h-1v-6.8h-3.9v6.8h-1v-7.7h6L770.4,238.9z
			 M768.7,243.2c-0.8,0-1.1-0.4-1.1-1.2v-3.1h1v2.9c0,0.3,0.2,0.5,0.5,0.5h0.9c0.2,0,0.3-0.1,0.4-0.2c0.2-0.5,0.3-1,0.2-1.6l0.9,0.3
			c0,0.7-0.1,1.5-0.5,2.1c-0.3,0.2-0.6,0.3-1,0.3L768.7,243.2z"/>
		<path class="st2" d="M777.8,230.9c-0.5,1.2-1.1,2.3-1.9,3.3v9.2h-1v-8c-0.6,0.7-1.3,1.4-2.1,2l-0.3-1.1c1.9-1.6,3.4-3.6,4.3-5.9
			L777.8,230.9z M780.6,243.2c-0.7,0.1-1.4-0.4-1.5-1.1c0-0.1,0-0.2,0-0.4v-4.3c-0.6,0.3-1.2,0.6-1.8,0.9l-0.4-1
			c0.8-0.4,1.5-0.7,2.3-1.2v-5.6h1v5c1.4-0.9,2.7-2.1,3.9-3.3l0.7,0.8c-1.4,1.4-2.9,2.7-4.6,3.7v4.7c0,0.4,0.2,0.7,0.7,0.7h2.3
			c0.3,0,0.6-0.1,0.8-0.4c0.2-0.8,0.3-1.6,0.3-2.4l0.9,0.3c0,1-0.1,2-0.5,2.9c-0.4,0.4-0.9,0.6-1.4,0.5L780.6,243.2z"/>
	</g>
</g>
<g>
	<rect x="483" y="87" class="st4" width="120" height="50"/>
	<rect x="481" y="85" class="st5" width="120" height="50"/>
	<g>
		<g>
			<path class="st2" d="M551.3,105v1h-5.9v3.3h5.6v1h-5.6v3.7h6.2v1h-7.3v-10H551.3z"/>
			<path class="st2" d="M559.2,105.6c0.7,0.6,1.1,1.5,1.1,2.4h-1.1c-0.1-0.6-0.4-1.2-0.8-1.6c-0.5-0.4-1.2-0.6-1.9-0.5
				c-0.6,0-1.2,0.1-1.7,0.4c-0.7,0.4-0.9,1.2-0.5,1.9c0.2,0.3,0.4,0.5,0.7,0.6c0.6,0.3,1.2,0.5,1.8,0.6c0.9,0.2,1.8,0.6,2.6,1
				c0.8,0.4,1.3,1.2,1.2,2.1c0,0.8-0.4,1.6-1.1,2.1c-0.8,0.5-1.8,0.8-2.8,0.7c-1,0.1-2-0.2-2.8-0.8c-0.8-0.7-1.3-1.7-1.3-2.7h1.1
				c0,0.7,0.4,1.4,0.9,1.9c0.6,0.4,1.3,0.6,2,0.6c0.7,0,1.4-0.1,2-0.5c0.5-0.2,0.8-0.7,0.8-1.3c0-0.6-0.4-1.2-1-1.5
				c-0.7-0.3-1.4-0.6-2.1-0.7c-0.8-0.2-1.6-0.5-2.3-0.8c-0.7-0.4-1.2-1.1-1.1-1.9c0-0.8,0.4-1.6,1.1-2c0.8-0.5,1.7-0.7,2.5-0.7
				C557.4,104.7,558.4,105,559.2,105.6z"/>
			<path class="st2" d="M565.1,104.9v-1.4h1v1.4h3.7v-1.4h1v1.4h3.2v1h-3.2v1.3h-1v-1.3h-3.7v1.3h-1v-1.3h-3.2v-1H565.1z
				 M562.5,108.9v-1h10.4c-0.1,2.3-0.1,3.7-0.2,4.2c0,0.5-0.1,1.1-0.4,1.5c-0.4,0.3-0.9,0.5-1.3,0.4c-0.4,0-0.9,0-1.5,0l-0.3-1
				c0.5,0,1,0,1.5,0c0.3,0,0.6-0.1,0.8-0.3c0.2-0.4,0.3-0.9,0.3-1.4c0-0.4,0-1.2,0.1-2.5h-4.4v7.4h-1v-7.4H562.5z"/>
			<path class="st2" d="M578.3,113.2c-0.5,1.1-1.1,2.2-1.8,3.2l-0.8-0.6c0.7-0.9,1.4-1.9,1.8-3L578.3,113.2z M582.2,103.6v1.4h5.4v1
				h-5.4v1.8h4.5v4.5h-9.3v-4.5h3.8v-4.1H582.2z M585.7,108.6h-7.3v2.6h7.3L585.7,108.6z M581.2,116.2l-1,0.2c-0.2-1-0.4-2-0.7-3
				l0.9-0.2C580.7,114.1,581,115.1,581.2,116.2L581.2,116.2z M584.5,116.2l-1,0.2c-0.2-1.1-0.6-2.1-1.1-3.2l1-0.2
				C583.8,114.1,584.2,115.1,584.5,116.2L584.5,116.2z M588.3,115.8l-0.8,0.6c-0.6-1.1-1.3-2.1-2-3.1l0.8-0.5
				C587,113.7,587.7,114.8,588.3,115.8L588.3,115.8z"/>
		</g>
		<path class="st6" d="M505.8,100H529v15h2V98h-25.3c-0.6-1-1.8-1.3-2.7-0.7c-1,0.6-1.3,1.8-0.7,2.7c0.6,1,1.8,1.3,2.7,0.7
			C505.3,100.6,505.6,100.3,505.8,100L505.8,100z M530,119c-0.7,0-1.4,0.4-1.7,1H505v-15h-2v17h25.3c0.6,1,1.8,1.3,2.7,0.7
			c1-0.6,1.3-1.8,0.7-2.7C531.4,119.4,530.7,119,530,119z"/>
		<g>
			<path class="st6" d="M511.8,107c1-1.8,3-3,5.2-3s4.1,1.2,5.2,3h2.2c-1.2-2.9-4.1-5-7.4-5s-6.2,2.1-7.4,5H511.8z"/>
			<path class="st6" d="M522.2,113c-1,1.8-3,3-5.2,3s-4.1-1.2-5.2-3h-2.2c1.2,2.9,4.1,5,7.4,5s6.2-2.1,7.4-5H522.2z"/>
		</g>
		<rect x="509" y="109" class="st6" width="12" height="2"/>
	</g>
</g>
<g>
	<rect x="483" y="154" class="st4" width="120" height="50"/>
	<rect x="481" y="152" class="st5" width="120" height="50"/>
	<g>
		<g>
			<path class="st2" d="M551.3,172v1h-5.9v3.3h5.6v1h-5.6v3.7h6.2v1h-7.3v-10H551.3z"/>
			<path class="st2" d="M559.2,172.6c0.7,0.6,1.1,1.5,1.1,2.4h-1.1c-0.1-0.6-0.4-1.2-0.8-1.6c-0.5-0.4-1.2-0.6-1.9-0.5
				c-0.6,0-1.2,0.1-1.7,0.4c-0.7,0.4-0.9,1.2-0.5,1.9c0.2,0.3,0.4,0.5,0.7,0.6c0.6,0.3,1.2,0.5,1.8,0.6c0.9,0.2,1.8,0.6,2.6,1
				c0.8,0.4,1.3,1.2,1.2,2.1c0,0.8-0.4,1.6-1.1,2.1c-0.8,0.5-1.8,0.8-2.8,0.7c-1,0.1-2-0.2-2.8-0.8c-0.8-0.7-1.3-1.7-1.3-2.7h1.1
				c0,0.7,0.4,1.4,0.9,1.9c0.6,0.4,1.3,0.6,2,0.6c0.7,0,1.4-0.1,2-0.5c0.5-0.2,0.8-0.7,0.8-1.3c0-0.6-0.4-1.2-1-1.5
				c-0.7-0.3-1.4-0.6-2.1-0.7c-0.8-0.2-1.6-0.5-2.3-0.8c-0.7-0.4-1.2-1.1-1.1-1.9c0-0.8,0.4-1.6,1.1-2c0.8-0.5,1.7-0.7,2.5-0.7
				C557.4,171.7,558.4,172,559.2,172.6z"/>
			<path class="st2" d="M565.1,171.9v-1.4h1v1.4h3.7v-1.4h1v1.4h3.2v1h-3.2v1.3h-1v-1.3h-3.7v1.3h-1v-1.3h-3.2v-1H565.1z
				 M562.5,175.9v-1h10.4c-0.1,2.3-0.1,3.7-0.2,4.2c0,0.5-0.1,1.1-0.4,1.5c-0.4,0.3-0.9,0.5-1.3,0.4c-0.4,0-0.9,0-1.5,0l-0.3-1
				c0.5,0,1,0,1.5,0c0.3,0,0.6-0.1,0.8-0.3c0.2-0.4,0.3-0.9,0.3-1.4c0-0.4,0-1.2,0.1-2.5h-4.4v7.4h-1v-7.4H562.5z"/>
			<path class="st2" d="M578.3,180.2c-0.5,1.1-1.1,2.2-1.8,3.2l-0.8-0.6c0.7-0.9,1.4-1.9,1.8-3L578.3,180.2z M582.2,170.6v1.4h5.4v1
				h-5.4v1.8h4.5v4.5h-9.3v-4.5h3.8v-4.1H582.2z M585.7,175.6h-7.3v2.6h7.3L585.7,175.6z M581.2,183.2l-1,0.2c-0.2-1-0.4-2-0.7-3
				l0.9-0.2C580.7,181.1,581,182.1,581.2,183.2L581.2,183.2z M584.5,183.2l-1,0.2c-0.2-1.1-0.6-2.1-1.1-3.2l1-0.2
				C583.8,181.1,584.2,182.1,584.5,183.2L584.5,183.2z M588.3,182.8l-0.8,0.6c-0.6-1.1-1.3-2.1-2-3.1l0.8-0.5
				C587,180.7,587.7,181.8,588.3,182.8L588.3,182.8z"/>
		</g>
		<path class="st6" d="M505.8,167H529v15h2v-17h-25.3c-0.6-1-1.8-1.3-2.7-0.7c-1,0.6-1.3,1.8-0.7,2.7c0.6,1,1.8,1.3,2.7,0.7
			C505.3,167.6,505.6,167.3,505.8,167L505.8,167z M530,186c-0.7,0-1.4,0.4-1.7,1H505v-15h-2v17h25.3c0.6,1,1.8,1.3,2.7,0.7
			c1-0.6,1.3-1.8,0.7-2.7C531.4,186.4,530.7,186,530,186z"/>
		<g>
			<path class="st6" d="M511.8,174c1-1.8,3-3,5.2-3s4.1,1.2,5.2,3h2.2c-1.2-2.9-4.1-5-7.4-5s-6.2,2.1-7.4,5H511.8z"/>
			<path class="st6" d="M522.2,180c-1,1.8-3,3-5.2,3s-4.1-1.2-5.2-3h-2.2c1.2,2.9,4.1,5,7.4,5s6.2-2.1,7.4-5H522.2z"/>
		</g>
		<rect x="509" y="176" class="st6" width="12" height="2"/>
	</g>
</g>
<g>
	<rect x="483" y="221" class="st4" width="120" height="50"/>
	<rect x="481" y="219" class="st5" width="120" height="50"/>
	<g>
		<g>
			<path class="st2" d="M551.3,239v1h-5.9v3.3h5.6v1h-5.6v3.7h6.2v1h-7.3v-10H551.3z"/>
			<path class="st2" d="M559.2,239.6c0.7,0.6,1.1,1.5,1.1,2.4h-1.1c-0.1-0.6-0.4-1.2-0.8-1.6c-0.5-0.4-1.2-0.6-1.9-0.5
				c-0.6,0-1.2,0.1-1.7,0.4c-0.7,0.4-0.9,1.2-0.5,1.9c0.2,0.3,0.4,0.5,0.7,0.6c0.6,0.3,1.2,0.5,1.8,0.6c0.9,0.2,1.8,0.6,2.6,1
				c0.8,0.4,1.3,1.2,1.2,2.1c0,0.8-0.4,1.6-1.1,2.1c-0.8,0.5-1.8,0.8-2.8,0.7c-1,0.1-2-0.2-2.8-0.8c-0.8-0.7-1.3-1.7-1.3-2.7h1.1
				c0,0.7,0.4,1.4,0.9,1.9c0.6,0.4,1.3,0.6,2,0.6c0.7,0,1.4-0.1,2-0.5c0.5-0.2,0.8-0.7,0.8-1.3c0-0.6-0.4-1.2-1-1.5
				c-0.7-0.3-1.4-0.6-2.1-0.7c-0.8-0.2-1.6-0.5-2.3-0.8c-0.7-0.4-1.2-1.1-1.1-1.9c0-0.8,0.4-1.6,1.1-2c0.8-0.5,1.7-0.7,2.5-0.7
				C557.4,238.7,558.4,239,559.2,239.6z"/>
			<path class="st2" d="M565.1,238.9v-1.4h1v1.4h3.7v-1.4h1v1.4h3.2v1h-3.2v1.3h-1v-1.3h-3.7v1.3h-1v-1.3h-3.2v-1H565.1z
				 M562.5,242.9v-1h10.4c-0.1,2.3-0.1,3.7-0.2,4.2c0,0.5-0.1,1.1-0.4,1.5c-0.4,0.3-0.9,0.5-1.3,0.4c-0.4,0-0.9,0-1.5,0l-0.3-1
				c0.5,0,1,0,1.5,0c0.3,0,0.6-0.1,0.8-0.3c0.2-0.4,0.3-0.9,0.3-1.4c0-0.4,0-1.2,0.1-2.5h-4.4v7.4h-1v-7.4H562.5z"/>
			<path class="st2" d="M578.3,247.2c-0.5,1.1-1.1,2.2-1.8,3.2l-0.8-0.6c0.7-0.9,1.4-1.9,1.8-3L578.3,247.2z M582.2,237.6v1.4h5.4v1
				h-5.4v1.8h4.5v4.5h-9.3v-4.5h3.8v-4.1H582.2z M585.7,242.6h-7.3v2.6h7.3L585.7,242.6z M581.2,250.2l-1,0.2c-0.2-1-0.4-2-0.7-3
				l0.9-0.2C580.7,248.1,581,249.1,581.2,250.2L581.2,250.2z M584.5,250.2l-1,0.2c-0.2-1.1-0.6-2.1-1.1-3.2l1-0.2
				C583.8,248.1,584.2,249.1,584.5,250.2L584.5,250.2z M588.3,249.8l-0.8,0.6c-0.6-1.1-1.3-2.1-2-3.1l0.8-0.5
				C587,247.7,587.7,248.8,588.3,249.8L588.3,249.8z"/>
		</g>
		<path class="st6" d="M505.8,234H529v15h2v-17h-25.3c-0.6-1-1.8-1.3-2.7-0.7c-1,0.6-1.3,1.8-0.7,2.7c0.6,1,1.8,1.3,2.7,0.7
			C505.3,234.6,505.6,234.3,505.8,234L505.8,234z M530,253c-0.7,0-1.4,0.4-1.7,1H505v-15h-2v17h25.3c0.6,1,1.8,1.3,2.7,0.7
			c1-0.6,1.3-1.8,0.7-2.7C531.4,253.4,530.7,253,530,253z"/>
		<g>
			<path class="st6" d="M511.8,241c1-1.8,3-3,5.2-3s4.1,1.2,5.2,3h2.2c-1.2-2.9-4.1-5-7.4-5s-6.2,2.1-7.4,5H511.8z"/>
			<path class="st6" d="M522.2,247c-1,1.8-3,3-5.2,3s-4.1-1.2-5.2-3h-2.2c1.2,2.9,4.1,5,7.4,5s6.2-2.1,7.4-5H522.2z"/>
		</g>
		<rect x="509" y="243" class="st6" width="12" height="2"/>
	</g>
</g>
<g>
	<path class="st7" d="M193,148.2v6.4c0,1.3,0,1.4-1.9,1.6c0-0.4-0.2-0.8-0.4-1.1c1.2,0.1,1.5,0,1.5-0.7V147h-7.1v9h-1.1
		c0.1-0.7,0.2-1.5,0.2-2.2v-5.6c0-0.7,0-1.5-0.1-2.2c1.5,0.1,3.1,0.2,4.6,0.1c1.5,0,3.1,0,4.6-0.1C193,146.7,192.9,147.5,193,148.2z
		 M187.5,147.7c0.3,0.2,0.6,0.3,1,0.3c0.2,0,0.2,0.1,0,0.2c-0.2,0.2-0.4,0.5-0.5,0.9c-0.2,0.6-0.4,1.3-0.7,1.9
		c0.4,0.7,0.7,1.4,0.9,1.8l-0.7,0.4c-0.2-0.4-0.3-0.9-0.5-1.3c-0.4,0.8-0.8,1.7-1.3,2.4c-0.2-0.2-0.5-0.3-0.7-0.5
		c0.6-0.9,1.2-1.9,1.6-2.9c-0.4-0.8-0.9-1.7-1.4-2.5l0.7-0.3c0.2,0.4,0.6,1.1,1,1.9C187.2,149.4,187.4,148.6,187.5,147.7
		L187.5,147.7z M190.5,147.8c0.3,0.2,0.7,0.3,1,0.3c0.2,0,0.2,0.1,0,0.2c-0.2,0.1-0.3,0.3-0.4,0.9c-0.2,0.7-0.5,1.4-0.8,2.1
		c0.5,0.9,0.8,1.8,1,2.3l-0.8,0.4c-0.1-0.5-0.4-1.1-0.7-1.8c-0.4,0.8-0.8,1.6-1.4,2.3c-0.3-0.2-0.5-0.3-0.8-0.4
		c0.7-0.8,1.3-1.8,1.8-2.8c-0.3-0.8-0.7-1.5-1.2-2.3l0.6-0.3c0.3,0.5,0.6,1.1,0.9,1.7C190.2,149.6,190.4,148.7,190.5,147.8
		L190.5,147.8z"/>
	<path class="st7" d="M196.4,149.8c-0.3,0-0.6,0.1-0.9,0.2c0-0.3-0.1-0.6-0.3-0.9c0.6-0.4,1.4-2.1,1.8-3.7c0.4,0.2,0.8,0.3,1.2,0.4
		c0.2,0,0.2,0.1,0,0.2c-0.7,1-1.3,2-1.8,3.1l1.5-0.1c0.3-0.5,0.5-1.1,0.7-1.6c0.3,0.2,0.7,0.4,1.1,0.5c0.2,0,0.2,0.2,0,0.3
		s-0.5,0.6-2.5,3.8c0.6,0,1.2-0.1,1.8-0.2c0,0.3,0,0.5,0,0.8l-1.9,0.2c-0.4,0-0.7,0.1-1.1,0.2c0-0.3-0.1-0.6-0.3-0.9
		c0.4-0.2,0.8-0.6,1.8-2.4L196.4,149.8z M199.1,154.6c-1.2,0.2-2.4,0.5-3.5,1c0-0.4-0.1-0.9-0.3-1.3c1.3,0,2.6-0.2,3.8-0.6
		C199.1,154,199.1,154.3,199.1,154.6L199.1,154.6z M200.4,151.7c0.7,0.1,1.3,0.1,2,0.1c0.8,0,1.5,0,2.3-0.1c-0.1,0.3-0.1,0.6-0.1,1
		v1.9c0,0.5,0,1,0.1,1.5h-1v-0.8h-2.6v1.1h-1c0.1-0.5,0.1-1,0.1-1.5v-2.1c0-0.3,0-0.5-0.1-0.8l-0.4,0.2c-0.2-0.3-0.4-0.5-0.7-0.7
		c1-0.4,2-0.9,2.8-1.6c-0.4-0.5-0.7-1-0.9-1.6c-0.2,0.5-0.5,1-0.8,1.4c-0.3-0.2-0.6-0.3-0.9-0.3c0.9-1.1,1.5-2.4,1.8-3.9
		c0.4,0.1,0.7,0.2,1.1,0.2c0.2,0,0.2,0.1,0.1,0.2c-0.2,0.1-0.3,0.3-0.6,0.8h3.3c-0.4,1.2-1.1,2.2-2,3.1c0.8,0.6,1.8,1,2.9,1.1
		c-0.2,0.3-0.4,0.7-0.5,1.1c-1.1-0.3-2.2-0.8-3.1-1.6C201.8,150.9,201.1,151.3,200.4,151.7L200.4,151.7z M203.7,152.6h-2.6v1.9h2.6
		V152.6z M203.6,147.3h-2.3l0,0c0.3,0.7,0.7,1.2,1.1,1.8C202.9,148.6,203.3,148,203.6,147.3L203.6,147.3z"/>
	<path class="st7" d="M210,155.8h-1.2c0.1-0.8,0.1-1.4,0.1-2.2v-5.6c0-0.6,0-1.1-0.1-1.7c0.7,0.1,1.3,0.1,3.7,0.1s3.1,0,3.7-0.1
		c-0.1,0.6-0.1,1.1-0.1,1.7v5.8c0,0.7,0,1.3,0.1,2H215v-0.8h-5L210,155.8z M215,147.3h-5v2.8h5V147.3z M210,153.9h5v-3h-5V153.9z"/>
	<path class="st7" d="M220.2,155.5l-1.3-0.4c0.6-0.9,1-2,1.1-3.1l1.1,0.4C220.7,153.3,220.4,154.4,220.2,155.5z M219.6,148v-1.1
		c1.1,0.1,2.5,0.1,4.4,0.1c0-0.6,0-1.2,0-1.9c0.4,0.1,0.8,0.1,1.2,0.1c0.2,0,0.2,0.1,0,0.2c-0.1,0.2-0.2,0.3-0.2,0.5v1
		c1.9,0,3.3,0,4.4-0.1v1.1c-1.1-0.1-2.5-0.1-4.4-0.1v1.8c1.6,0,2.7,0,3.6-0.1v1.1c-0.9-0.1-2.2-0.1-3.9-0.1c-1.7,0-3,0-3.9,0.1v-1.1
		c0.8,0.1,1.9,0.1,3.3,0.1v-1.8C222,147.9,220.6,147.9,219.6,148z M226.1,156c-1.1,0.1-2.2,0.1-3.2,0c-0.5-0.1-0.7-0.5-0.7-1.5v-1.1
		c0-0.4,0-0.9-0.1-1.3c0.4,0.1,0.8,0.1,1.2,0.1c0.2,0,0.3,0,0.1,0.2c-0.1,0.1-0.2,0.2-0.2,0.4v1.5c0,0.5,0.1,0.7,0.4,0.8
		c0.8,0.1,1.5,0,2.3-0.1c0.5-0.1,0.7-0.3,0.8-1.4c0.2,0.4,0.6,0.7,1.1,0.7C227.1,155.7,226.9,155.9,226.1,156L226.1,156z
		 M224.9,153.6c-0.2-0.7-0.6-1.4-1-2l0.9-0.4c0.4,0.7,0.8,1.3,1.2,1.9L224.9,153.6z M228.9,154.9c-0.5-1-1.1-1.9-1.9-2.6l0.9-0.6
		c0.7,0.9,1.4,1.7,2.1,2.4L228.9,154.9z"/>
</g>
<polygon class="st7" points="250,171 255,166 250,161 "/>
<line class="st8" x1="118.4" y1="166" x2="253" y2="166"/>
<polyline class="st8" points="119,247.7 160,247.7 160,82.2 "/>
<line class="st8" x1="160.4" y1="81.9" x2="118.4" y2="81.9"/>
<polygon class="st7" points="435.6,171 440.6,166 435.6,161 "/>
<line class="st8" x1="398" y1="166" x2="438.6" y2="166"/>
<polygon class="st7" points="667,172 672,167 667,162 "/>
<line class="st8" x1="628.4" y1="167" x2="668" y2="167"/>
</svg>
