<?xml version="1.0" encoding="UTF-8"?>
<svg width="32px" height="32px" viewBox="0 0 32 32" version="1.1" xmlns="http://www.w3.org/2000/svg" xmlns:xlink="http://www.w3.org/1999/xlink">
    <!-- Generator: Sketch 52.6 (67491) - http://www.bohemiancoding.com/sketch -->
    <title>腾讯文智公众趋势分析-32px</title>
    <desc>Created with Sketch.</desc>
    <g id="腾讯文智公众趋势分析-32px" stroke="none" stroke-width="1" fill="none" fill-rule="evenodd">
        <rect id="Rectangle-Copy" fill="#444444" opacity="0" x="0" y="0" width="32" height="32"></rect>
        <g id="Group-27" transform="translate(1.000000, 3.000000)">
            <g id="Group-26">
                <path d="M28,26 C27.2897779,25.9957131 26.6351046,25.6150891 26.28,25 L1,25 L1,8 L3,8 L3,23 L26.28,23 C26.7660656,22.1581503 27.7870648,21.7877158 28.6998631,22.1220358 C29.6126615,22.4563558 30.1528813,23.3985996 29.9802345,24.3552416 C29.8075876,25.3118835 28.9720785,26.0058471 28,26 Z" id="_复合路径_-path" fill="#00A4FF"></path>
                <path d="M27.0120508,3.00018082 L3.73205081,3.00018082 C3.27944513,3.78411685 2.35672894,4.16631841 1.48236191,3.93203247 C0.607994882,3.69774653 1.11022302e-16,2.90539218 0,2.00018082 C-1.11022302e-16,1.09496946 0.607994882,0.302615105 1.48236191,0.0683291662 C2.35672894,-0.165956773 3.27944513,0.216244788 3.73205081,1.00018082 L29.0120508,1.00018082 L29.0120508,18.0001808 L27.0120508,18.0001808 L27.0120508,3.00018082 Z" id="_复合路径_-path" fill="#00A4FF"></path>
                <polyline id="Triangle-8" stroke="#00A4FF" stroke-width="2" points="8 17 13 10 18 17"></polyline>
                <circle id="Oval-64" fill="#00A4FF" cx="23" cy="10" r="2"></circle>
                <circle id="Oval-64-Copy" fill="#00A4FF" cx="18" cy="17" r="2"></circle>
                <circle id="Oval-64-Copy-2" fill="#00A4FF" cx="13" cy="10" r="2"></circle>
                <circle id="Oval-64-Copy-3" fill="#00A4FF" cx="8" cy="17" r="2"></circle>
                <polyline id="Triangle-8-Copy" stroke="#00A4FF" stroke-width="2" transform="translate(18.000000, 13.500000) scale(1, -1) translate(-18.000000, -13.500000) " points="13 17 18 10 23 17"></polyline>
            </g>
        </g>
    </g>
</svg>