<?xml version="1.0" encoding="UTF-8"?>
<svg width="32px" height="32px" viewBox="0 0 32 32" version="1.1" xmlns="http://www.w3.org/2000/svg" xmlns:xlink="http://www.w3.org/1999/xlink">
    <!-- Generator: Sketch 52.6 (67491) - http://www.bohemiancoding.com/sketch -->
    <title>企业应用-32px</title>
    <desc>Created with Sketch.</desc>
    <g id="企业应用-32px" stroke="none" stroke-width="1" fill="none" fill-rule="evenodd">
        <rect id="Rectangle-Copy" fill="#444444" opacity="0" x="0" y="0" width="32" height="32"></rect>
        <path d="M9,12 L9,20 L16,24 L23,20 L23,12 L16,8 L9,12 Z M15,21.13 L11,18.84 L11,15.14 L15,17.43 L15,21.13 Z M21,18.84 L17,21.13 L17,17.43 L21,15.14 L21,18.84 Z M16,15.7 L11.28,13 L16,10.3 L20.72,13 L16,15.7 Z" id="_复合路径_" fill="#00A4FF" fill-rule="nonzero"></path>
        <path d="M3.8540637,25.059465 L5.85923836,23.9017768 L16,29.6964978 L25.7055169,24.1504882 L27.7106915,25.3081763 L16,32 L3.8540637,25.059465 Z M2,21.511107 L2,8 L14,1.14285714 L14,3.44635936 L4,9.16064507 L4,20.3564065 L2,21.511107 Z M30,22.011107 L28,20.8564065 L28,9.16064507 L18,3.44635936 L18,1.14285714 L30,8 L30,22.011107 Z" id="Combined-Shape" fill="#00A4FF" fill-rule="nonzero"></path>
    </g>
</svg>