<?xml version="1.0" encoding="utf-8"?>
<!-- Generator: Adobe Illustrator 19.0.0, SVG Export Plug-In . SVG Version: 6.00 Build 0)  -->
<svg version="1.1" id="图层_1" xmlns="http://www.w3.org/2000/svg" xmlns:xlink="http://www.w3.org/1999/xlink" x="0px" y="0px"
	 viewBox="0 0 64 64" style="enable-background:new 0 0 64 64;" xml:space="preserve">
<style type="text/css">
	.st0{fill:#00A4FF;}
</style>
<rect id="XMLID_47_" y="16" class="st0" width="64" height="2"/>
<rect id="XMLID_46_" x="14" y="28" class="st0" width="17" height="2"/>
<rect id="XMLID_45_" x="14" y="36" class="st0" width="17" height="2"/>
<rect id="XMLID_44_" x="14" y="44" class="st0" width="10" height="2"/>
<polygon id="XMLID_42_" class="st0" points="2,56 2,8 62,8 62,51 64,51 64,6 0,6 0,58 64,58 64,56 "/>
<rect id="XMLID_39_" x="38" y="36" class="st0" width="8" height="2"/>
<rect id="XMLID_40_" x="41" y="33" class="st0" width="2" height="8"/>
<path id="XMLID_80_" class="st0" d="M42,28c-5,0-9,4-9,9s4,9,9,9s9-4,9-9S47,28,42,28z M42,44c-3.9,0-7-3.1-7-7s3.1-7,7-7s7,3.1,7,7
	S45.9,44,42,44z"/>
</svg>
