<?xml version="1.0" encoding="utf-8"?>
<!-- Generator: Adobe Illustrator 19.0.0, SVG Export Plug-In . SVG Version: 6.00 Build 0)  -->
<svg version="1.1" id="图层_1" xmlns="http://www.w3.org/2000/svg" xmlns:xlink="http://www.w3.org/1999/xlink" x="0px" y="0px"
	 viewBox="330 -70 820 300" style="enable-background:new 330 -70 820 300;" xml:space="preserve">
<style type="text/css">
	.st0{display:none;opacity:5.000000e-02;}
	.st1{display:inline;}
	.st2{display:none;opacity:0.5;fill:none;stroke:#000000;stroke-miterlimit:10;enable-background:new    ;}
	.st3{display:none;opacity:0.2;enable-background:new    ;}
	.st4{fill:#C2C5CA;}
	.st5{opacity:0.2;}
	.st6{fill:url(#SVGID_1_);}
	.st7{fill:url(#SVGID_2_);}
	.st8{opacity:0.2;fill:url(#SVGID_3_);enable-background:new    ;}
	.st9{fill:url(#SVGID_4_);}
	.st10{fill:url(#SVGID_5_);}
	.st11{fill:url(#SVGID_6_);}
	.st12{fill:url(#SVGID_7_);}
	.st13{opacity:0.2;fill:url(#SVGID_8_);enable-background:new    ;}
	.st14{fill:url(#SVGID_9_);}
	.st15{fill:url(#SVGID_10_);}
	.st16{fill:#333333;}
</style>
<g class="st0">
	<rect x="330" y="-52" class="st1" width="820" height="2"/>
	<rect x="330" y="-32" class="st1" width="820" height="2"/>
	<rect x="330" y="-12" class="st1" width="820" height="2"/>
	<rect x="330" y="8" class="st1" width="820" height="2"/>
	<rect x="331" y="28" class="st1" width="820" height="2"/>
	<rect x="331" y="48" class="st1" width="820" height="2"/>
	<rect x="331" y="68" class="st1" width="820" height="2"/>
	<polygon class="st1" points="331,88 330,88 330,90 331,90 1150,90 1151,90 1151,88 1150,88 	"/>
	<rect x="330" y="108" class="st1" width="820" height="2"/>
	<rect x="330" y="128" class="st1" width="820" height="2"/>
	<rect x="330" y="148" class="st1" width="820" height="2"/>
	<rect x="331" y="168" class="st1" width="820" height="2"/>
	<rect x="331" y="188" class="st1" width="820" height="2"/>
	<rect x="331" y="208" class="st1" width="820" height="2"/>
	<rect x="331" y="228" class="st1" width="820" height="2"/>
</g>
<g class="st0">
	<rect x="349" y="-69" class="st1" width="2" height="299"/>
	<rect x="369" y="-69" class="st1" width="2" height="299"/>
	<rect x="389" y="-69" class="st1" width="2" height="299"/>
	<rect x="409" y="-69" class="st1" width="2" height="299"/>
	<rect x="429" y="-67" class="st1" width="2" height="297"/>
	<rect x="449" y="-67" class="st1" width="2" height="297"/>
	<rect x="469" y="-67" class="st1" width="2" height="297"/>
	<polygon class="st1" points="489,228.4 489,230 491,230 491,228.4 491,-69 489,-69 	"/>
	<rect x="509" y="-69" class="st1" width="2" height="299"/>
	<rect x="529" y="-69" class="st1" width="2" height="299"/>
	<rect x="549" y="-69" class="st1" width="2" height="299"/>
	<rect x="569" y="-67" class="st1" width="2" height="297"/>
	<rect x="589" y="-67" class="st1" width="2" height="297"/>
	<rect x="609" y="-67" class="st1" width="2" height="297"/>
	<rect x="629" y="-67" class="st1" width="2" height="297"/>
	<rect x="649" y="-68" class="st1" width="2" height="298"/>
	<rect x="669" y="-68" class="st1" width="2" height="298"/>
	<rect x="689" y="-68" class="st1" width="2" height="298"/>
	<rect x="709" y="-68" class="st1" width="2" height="298"/>
	<rect x="729" y="-67" class="st1" width="2" height="297"/>
	<rect x="749" y="-67" class="st1" width="2" height="297"/>
	<rect x="769" y="-67" class="st1" width="2" height="297"/>
	<polygon class="st1" points="789,229.2 789,230 791,230 791,229.2 791,-68 789,-68 	"/>
	<rect x="809" y="-68" class="st1" width="2" height="298"/>
	<rect x="829" y="-68" class="st1" width="2" height="298"/>
	<rect x="849" y="-68" class="st1" width="2" height="298"/>
	<rect x="869" y="-67" class="st1" width="2" height="297"/>
	<rect x="889" y="-67" class="st1" width="2" height="297"/>
	<rect x="909" y="-67" class="st1" width="2" height="297"/>
	<rect x="929" y="-67" class="st1" width="2" height="297"/>
	<rect x="949" y="-67" class="st1" width="2" height="297"/>
	<rect x="969" y="-67" class="st1" width="2" height="297"/>
	<polygon class="st1" points="989,229.2 989,230 991,230 991,229.2 991,-68 989,-68 	"/>
	<rect x="1009" y="-68" class="st1" width="2" height="298"/>
	<rect x="1029" y="-68" class="st1" width="2" height="298"/>
	<rect x="1049" y="-68" class="st1" width="2" height="298"/>
	<rect x="1069" y="-67" class="st1" width="2" height="297"/>
	<rect x="1089" y="-67" class="st1" width="2" height="297"/>
	<rect x="1109" y="-67" class="st1" width="2" height="297"/>
	<rect x="1129" y="-67" class="st1" width="2" height="297"/>
	<rect x="1149" y="-67" class="st1" width="2" height="297"/>
</g>
<path class="st2" d="M370.5-10.5h140v140h-140V-10.5z"/>
<path class="st2" d="M570-12h140v140H570V-12z"/>
<path class="st2" d="M770-11h140v140H770V-11z"/>
<path class="st2" d="M970-31h140v60H970V-31z"/>
<rect x="330" y="-70" class="st3" width="820" height="40"/>
<rect x="1110" y="-70" class="st3" width="40" height="300"/>
<rect x="330" y="190" class="st3" width="820" height="40"/>
<rect x="330" y="-70" class="st3" width="40" height="300"/>
<g>
	<g>
		<path class="st4" d="M711,58.7h8v-2h-8V58.7z M723,58.7h8v-2h-8V58.7z M735,58.7h8v-2h-8V58.7z M747,58.7h8v-2h-8V58.7z M759,53.5
			v8.2l9.2-4.2L759,53.5z"/>
	</g>
</g>
<g>
	<g>
		<path class="st4" d="M511.5,63.3h8v-2h-8V63.3z M523.5,63.3h8v-2h-8V63.3z M535.5,63.3h8v-2h-8V63.3z M547.5,63.3h8v-2h-8V63.3z
			 M559.5,58.1v8.2l9.2-4.2L559.5,58.1z"/>
	</g>
</g>
<g>
	<g>
		<path class="st4" d="M913,0h8v-2h-8V0z M949,0h8v-2h-8V0z M961-5.2V3l9.2-4.2L961-5.2z M938.8-1.8h-1.5v3.8h1.5V-1.8z M935.8-4.8
			h-1.5v6.7h1.5V-4.8z M941.8-7.8h-1.5v9.7h1.5V-7.8z M929.7-10H929V3.4h-1.9v0.8h1.9v2.2h0.8V4.2h15.1V3.4h-15.1V-10z M932.8-3.3
			h-1.5v5.2h1.5V-3.3z"/>
	</g>
</g>
<g>
	<g>
		<path class="st4" d="M912,119.2h8v-2h-8V119.2z M924,119.2h8v-2h-8V119.2z M936,119.2h8v-2h-8V119.2z M948,119.2h8v-2h-8V119.2z
			 M960,114v8.2l9.2-4.2L960,114z"/>
	</g>
</g>
<path class="st2" d="M969.6,89.4h140v60h-140V89.4z"/>
<g class="st5">
	<g>
		
			<linearGradient id="SVGID_1_" gradientUnits="userSpaceOnUse" x1="470.6037" y1="71.4459" x2="410.4125" y2="131.637" gradientTransform="matrix(1 0 0 -1 0 160)">
			<stop  offset="0" style="stop-color:#0063FF"/>
			<stop  offset="1" style="stop-color:#00C8DE"/>
		</linearGradient>
		<path class="st6" d="M440.5,15.9c-23.5,0-42.6,19-42.6,42.5c0,23.5,19.1,42.5,42.6,42.5c23.5,0,42.6-19,42.6-42.5
			C483.1,35,464,15.9,440.5,15.9z M445.8,80.7c-1.3-0.7-2.6-1.7-3.8-2.8c-5.8-5.8-6.5-14.5-1.5-19.4c-5,5-13.7,4.3-19.5-1.5
			c-1.2-1.2-2.1-2.4-2.8-3.7l17-17c1.3,0.7,2.6,1.7,3.8,2.8c5.8,5.8,6.5,14.5,1.5,19.4c5-5,13.7-4.3,19.5,1.5
			c1.2,1.1,2.1,2.4,2.8,3.7L445.8,80.7z"/>
	</g>
</g>
<g>
	<g>
		
			<linearGradient id="SVGID_2_" gradientUnits="userSpaceOnUse" x1="474.7324" y1="67.3234" x2="406.2962" y2="135.7596" gradientTransform="matrix(1 0 0 -1 0 160)">
			<stop  offset="0" style="stop-color:#0063FF"/>
			<stop  offset="1" style="stop-color:#00C8DE"/>
		</linearGradient>
		<path class="st7" d="M456.4,63.2l-1.3-1.3l-11.3,11.3l1.3,1.3L456.4,63.2z M440.1,49.4l-1.3-1.3l-8.8,8.8l1.3,1.3L440.1,49.4z
			 M424.4,53.8l1.3,1.3L437,43.7l-1.3-1.3L424.4,53.8z M440.7,67.6l1.3,1.3l8.8-8.8l-1.3-1.3L440.7,67.6z M440.5,10.1
			c-26.7,0-48.4,21.7-48.4,48.4s21.7,48.4,48.4,48.4c26.7,0,48.4-21.7,48.4-48.4S467.2,10.1,440.5,10.1z M440.5,105.9
			c-26.3,0-47.6-21.3-47.6-47.5c0-26.3,21.3-47.5,47.6-47.5c26.3,0,47.6,21.3,47.6,47.5C488.1,84.6,466.8,105.9,440.5,105.9z
			 M440.3,58.2c-5.2,5.2-4.5,14.3,1.6,20.4c1.2,1.2,2.5,2.2,3.9,3l1.3-1.3c-1.4-0.7-2.8-1.7-4-2.9c-5.4-5.4-6.1-13.4-1.6-17.9
			c4.5-4.5,12.5-3.8,17.9,1.6c1.2,1.2,2.2,2.6,2.9,4l1.3-1.3c-0.8-1.4-1.8-2.7-3-3.9C454.7,53.7,445.5,53,440.3,58.2z M438.8,37.8
			c-1.2-1.2-2.5-2.2-3.9-3l-1.3,1.3c1.4,0.7,2.8,1.7,4,2.9c5.4,5.4,6.1,13.4,1.6,17.9c-4.5,4.5-12.5,3.8-17.9-1.6
			c-1.2-1.2-2.2-2.6-2.9-4l-1.3,1.3c0.8,1.4,1.8,2.7,3,3.9c6.1,6.1,15.2,6.8,20.4,1.6C445.5,53,444.8,43.9,438.8,37.8z"/>
	</g>
</g>
<linearGradient id="SVGID_3_" gradientUnits="userSpaceOnUse" x1="670.1592" y1="74.1482" x2="611.1152" y2="133.1922" gradientTransform="matrix(1 0 0 -1 0 160)">
	<stop  offset="0" style="stop-color:#0063FF"/>
	<stop  offset="1" style="stop-color:#00C8DE"/>
</linearGradient>
<path class="st8" d="M678,34.3l-37.7-21.5L603,34.9l0.1,43.3L640,99.7L678,78V34.3z M640.1,75.7l-16.5-9.9l0-19.8l16.7-9.5l17.4,9.8
	l0,18.7L640.1,75.7z"/>
<linearGradient id="SVGID_4_" gradientUnits="userSpaceOnUse" x1="674.7767" y1="69.4617" x2="606.1303" y2="138.1083" gradientTransform="matrix(1 0 0 -1 0 160)">
	<stop  offset="0" style="stop-color:#0063FF"/>
	<stop  offset="1" style="stop-color:#00C8DE"/>
</linearGradient>
<path class="st9" d="M640.6,106.7L597,81.6V31l43.4-25.4l43.6,25.2v50.5L640.6,106.7z M598,81l42.6,24.6l42.4-24.8V31.4L640.3,6.8
	L598,31.6V81z M640.5,75.9L623.3,66V46.1l17.2-9.9l17.3,9.9V66L640.5,75.9z M625.3,65l13.9,8.1V57.2l-13.9-8V65z M640.4,38.2
	l-15,8.8l15,8.7l15.4-8.7L640.4,38.2z M655.9,47.1l0,0.2l0,1.8l-14.9,8.5v15.9l14.9-8.5L655.9,47.1L655.9,47.1z"/>
<g class="st5">
	<g>
		
			<linearGradient id="SVGID_5_" gradientUnits="userSpaceOnUse" x1="869.499" y1="86.517" x2="809.468" y2="146.548" gradientTransform="matrix(1 0 0 -1 0 160)">
			<stop  offset="0" style="stop-color:#0063FF"/>
			<stop  offset="1" style="stop-color:#00C8DE"/>
		</linearGradient>
		<path class="st10" d="M841.5,40.8h-1.7c-1.4,0-1.7,0.6-2,2.4l-0.7,3.8c-0.2,1.2-0.3,2.1-0.3,2.5c0,1,0.6,1.1,2.1,1.1h1.8
			c1.4,0,1.7-0.6,2-2.4l0.7-3.8c0.2-1.2,0.4-2.1,0.4-2.5C843.7,41,843,40.8,841.5,40.8z M800.8,22.1l6.1,48.9h65l6.4-48.9H800.8z
			 M833,40.9h-3.4c-1.4,0-1.7,0.6-2,2.4l-0.6,3.6c-0.2,1.2-0.4,2.1-0.4,2.5c0,1,0.6,1.1,2.1,1.1h3.4l-0.8,2h-3.5
			c-2.5,0-3.6-0.7-3.6-2.7c0-0.5,0.1-1.1,0.3-2.2l0.9-5.2c0.3-1.5,0.6-2.5,1.4-3c0.8-0.5,1.7-0.5,2.5-0.5h4.5L833,40.9z M845.8,43.7
			l-1,5.5c-0.3,1.5-0.6,2.5-1.4,3c-0.8,0.5-1.7,0.5-2.5,0.5h-3c-2.5,0-3.6-0.7-3.6-2.7c0-0.5,0.1-1.1,0.3-2.2l1-5.5
			c0.3-1.5,0.7-2.5,1.4-3c0.8-0.5,1.7-0.5,2.6-0.5h3c2.5,0,3.6,0.7,3.6,2.7C846.1,42,846,42.7,845.8,43.7z M856.5,40.9h-4.4
			c-0.8,0-1,0.2-1.2,1.1l-0.2,1.1c-0.1,0.5-0.1,0.8-0.1,1c0,0.3,0.3,0.4,0.8,0.4h2.3c1.5,0,2.5,0.2,2.5,1.6c0,0.5-0.2,1.6-0.2,1.9
			l-0.3,1.8c-0.2,1.1-0.6,1.9-1.2,2.3c-0.6,0.4-1.5,0.5-2.7,0.5h-4.2l-0.4-2h4.6c1.2,0,1.4-0.1,1.6-1.4l0.2-0.9
			c0.1-0.6,0.2-1,0.2-1.2c0-0.4-0.3-0.4-0.9-0.4h-2.7c-1.5,0-1.9-0.6-1.9-1.7c0-0.4,0.1-0.9,0.2-1.4l0.3-1.9
			c0.4-2.2,1.1-2.7,3.3-2.7h5.3L856.5,40.9z"/>
	</g>
</g>
<g>
	<g>
		
			<linearGradient id="SVGID_6_" gradientUnits="userSpaceOnUse" x1="881.2283" y1="63.3042" x2="797.7737" y2="146.7587" gradientTransform="matrix(1 0 0 -1 0 160)">
			<stop  offset="0" style="stop-color:#0063FF"/>
			<stop  offset="1" style="stop-color:#00C8DE"/>
		</linearGradient>
		<path class="st11" d="M794,17l11,87h68.9l11.2-87C885.1,17,794,17,794,17z M872.9,103H806L802.6,76h73.9L872.9,103z M802.4,75.1
			l-7.3-57L884,18l-7.5,57.1L802.4,75.1L802.4,75.1z M835.6,90.4l-0.7,1.3l0.4,0.7h0.8l1.1-1.9h2.5l-1.2,2.1h-2.2l-0.4,0.6l0.4,0.7
			h1.4l-0.8,1.4l0.4,0.7h0.8l0.8-1.4l0.7,1.3h0.8l0.4-0.7l-1.1-1.9l1.2-2.1l1.2,2.1l-1.1,1.9l0.4,0.7h0.8l0.7-1.3l0.8,1.4h0.8
			l0.4-0.7l-0.8-1.4h1.4l0.4-0.7l-0.4-0.6H843l-1.2-2.1h2.5l1.1,1.9h0.8l0.4-0.7l-0.7-1.3h1.7l0.4-0.7l-0.4-0.7h-1.7l0.7-1.3
			l-0.4-0.6h-0.8l-1.1,1.9h-2.5L843,87h2.2l0.4-0.7l-0.4-0.7h-1.4l0.8-1.4l-0.4-0.7h-0.8l-0.8,1.4l-0.7-1.3h-0.8l-0.4,0.6l1.1,1.9
			l-1.2,2.1l-1.2-2.1l1.1-1.9l-0.4-0.6h-0.8l-0.7,1.3l-0.8-1.4h-0.8l-0.4,0.7l0.8,1.4h-1.4l-0.4,0.7l0.4,0.7h2.2l1.2,2.1h-2.5
			l-1.1-1.9h-0.8l-0.4,0.6l0.7,1.3h-1.7l-0.4,0.7l0.4,0.7H835.6z"/>
	</g>
</g>
<g>
	<g>
		
			<linearGradient id="SVGID_7_" gradientUnits="userSpaceOnUse" x1="1057.5662" y1="142.5253" x2="1024.9613" y2="175.1302" gradientTransform="matrix(1 0 0 -1 0 160)">
			<stop  offset="0" style="stop-color:#0063FF"/>
			<stop  offset="1" style="stop-color:#00C8DE"/>
		</linearGradient>
		<path class="st12" d="M1029-19.2v20c-0.5-0.2-1-0.3-1.5-0.3c-2.1,0-3.8,1.7-3.8,3.8s1.7,3.7,3.8,3.7c2.1,0,3.7-1.6,3.7-3.7
			c0-1.1-0.4-2-1.2-2.7v-19.6h28V15h-16.8v-1.7c0-2.6-1.8-4.2-4.3-4.2h-2.1c0.6,0.4,1.4,1,1.8,1.9h0.2c1.7,0,2.2,1.1,2.2,1.6V13
			h-1.5c0,0.3,0.3,0.9,0.3,1.7v0.4h3.2l0,0.9h18v-35.2H1029z M1027.5,5.8c-1,0-1.5-0.7-1.5-1.5s0.7-1.5,1.5-1.5
			c0.9,0,1.5,0.7,1.5,1.5C1029,5,1028.5,5.8,1027.5,5.8z M1030.1,9h-4.6c-3.4,0-6.5,2.3-6.5,5.8V17h16.9v-2.2
			C1035.9,11.3,1033.5,9,1030.1,9z M1034,15h-13.1l0.1-0.3c0-2.2,1.9-3.8,4.5-3.8h4.6c2.6,0,4,1.7,4,3.8L1034,15z M1033.1,5.6
			c-0.2,0-0.4,0-0.6-0.1c-0.1,0.3-0.7,1.3-0.9,1.7c0.5,0.2,0.8,0.3,1.4,0.3c1.8,0,3.2-1.4,3.2-3.2c0-1.8-1.5-3.2-3.2-3.2
			c-0.5,0-0.9,0.1-1.4,0.3c0.2,0.4,0.8,1.4,0.9,1.7c0.2-0.1,0.3-0.1,0.6-0.1c0.8,0,1.4,0.6,1.4,1.4S1033.9,5.6,1033.1,5.6z"/>
	</g>
</g>
<linearGradient id="SVGID_8_" gradientUnits="userSpaceOnUse" x1="1059.9502" y1="150.8263" x2="1033.4822" y2="177.2942" gradientTransform="matrix(1 0 0 -1 0 160)">
	<stop  offset="0" style="stop-color:#0063FF"/>
	<stop  offset="1" style="stop-color:#00C8DE"/>
</linearGradient>
<path class="st13" d="M1042.9,13.1c0.1-0.4,0.1-0.1,0.1-0.5c0-2.5-2-5.1-6.1-5.3c0.9-0.9,1-2.1,1-3.4c0-2.8-2.6-5-5.3-5
	c-0.5,0-0.2,0-0.7,0.2l0.2-15h23.9v29H1042.9z M1038.9-3.4l3.7-3.7l0.7,0.7l-3.8,3.8L1038.9-3.4z M1036.4-4.8l4.9-4.9l0.7,0.8
	l-4.9,4.9L1036.4-4.8z M1034.6-3.3c-0.5-0.5-0.9-1.1-1.3-1.7l0.8-0.6c0.3,0.6,0.7,1.1,1.2,1.6c2.2,2.2,5.5,2.5,7.3,0.6
	s1.6-5.1-0.6-7.3c-0.5-0.5-1.1-0.9-1.6-1.2l0.6-0.8c0.6,0.3,1.2,0.8,1.7,1.3c2.6,2.6,2.9,6.5,0.7,8.8
	C1041.2-0.4,1037.2-0.7,1034.6-3.3z M1047.9-1.8l-3.7,3.7l-0.7-0.7l3.8-3.8L1047.9-1.8z M1050.4-0.5l-4.9,4.9l-0.7-0.8l4.9-4.9
	L1050.4-0.5z M1052.2-1.9c0.5,0.5,0.9,1.1,1.3,1.7l-0.8,0.6c-0.3-0.6-0.7-1.1-1.2-1.6c-2.2-2.2-5.5-2.5-7.3-0.6
	c-1.8,1.8-1.6,5.1,0.6,7.3c0.5,0.5,1.1,0.9,1.6,1.2l-0.6,0.8c-0.6-0.3-1.2-0.8-1.7-1.3c-2.6-2.6-2.9-6.5-0.7-8.8
	C1045.7-4.8,1049.6-4.5,1052.2-1.9z"/>
<g class="st5">
	<g>
		
			<linearGradient id="SVGID_9_" gradientUnits="userSpaceOnUse" x1="1058.2607" y1="28.2228" x2="1031.7491" y2="54.7342" gradientTransform="matrix(1 0 0 -1 0 160)">
			<stop  offset="0" style="stop-color:#0063FF"/>
			<stop  offset="1" style="stop-color:#00C8DE"/>
		</linearGradient>
		<path class="st14" d="M1030,107v14.5l2.5,2.4h9.5v12h12.1v-29H1030z M1049.1,133h-4v-1h4V133z M1052,127h-7v-1h7V127z M1052,122
			h-16v-1h16V122z M1052,117.1h-20v-1h20V117.1z M1052,112h-20v-1h20V112z"/>
	</g>
</g>
<g>
	<g>
		
			<linearGradient id="SVGID_10_" gradientUnits="userSpaceOnUse" x1="1056.3177" y1="20.0808" x2="1023.7297" y2="52.6687" gradientTransform="matrix(1 0 0 -1 0 160)">
			<stop  offset="0" style="stop-color:#0063FF"/>
			<stop  offset="1" style="stop-color:#00C8DE"/>
		</linearGradient>
		<path class="st15" d="M1027,104V123h-8v16.3h20.2v0h17.7V104H1027z M1037.9,137H1021l0-12h6l2.9,3h8L1037.9,137z M1056,138h-16
			v-12h-9.1l-2.9-3h0V105h28.1L1056,138L1056,138z"/>
	</g>
</g>
<g>
	<g>
		<path class="st16" d="M990.2,60.6h1.5c0.7,0,1-0.4,1-1.1V48.6h-0.9v10.6c0,0.4-0.2,0.5-0.5,0.5c-0.4,0-0.8,0-1.3-0.1L990.2,60.6z
			 M985.2,50h2.7v7.3h0.9v-8.1h-4.4v8.2h0.8L985.2,50L985.2,50z M983.2,51.2l0.6-0.6c-0.5-0.6-1.1-1.2-1.9-1.8l-0.7,0.6
			C982.1,50,982.7,50.6,983.2,51.2z M982.9,55.6c-0.5,1.5-1.1,3.1-1.8,4.6l0.9,0.4c0.6-1.5,1.2-3,1.7-4.6L982.9,55.6z M987,50.9
			h-0.8v4.2c0,1.2-0.2,2.2-0.6,3c-0.4,0.7-1,1.3-2,1.8l0.5,0.8c1-0.5,1.7-1.1,2.1-2c0.4-0.9,0.7-2.1,0.7-3.6L987,50.9L987,50.9z
			 M989.4,60c-0.6-0.7-1.2-1.5-2-2.2l-0.6,0.6c0.8,0.8,1.5,1.5,2,2.2L989.4,60z M990.7,49.7h-0.8V58h0.8V49.7z M983,54.6l0.6-0.6
			c-0.5-0.7-1.1-1.3-1.9-2l-0.6,0.6C981.9,53.3,982.5,54,983,54.6z M996.5,53.9v-3.4h9.8v-0.9h-4.8c-0.2-0.4-0.3-0.8-0.5-1.2l-1,0.2
			c0.2,0.3,0.4,0.6,0.6,1h-5v4.3c0,2.6-0.4,4.6-1.2,6.1l0.7,0.6C996,59,996.4,56.7,996.5,53.9z M1002,59.5V56h3.1
			c-0.5,0.8-1,1.4-1.5,1.9l0.7,0.6c0.7-0.7,1.3-1.6,1.8-2.6v-0.7h-3.4l0.2-0.2c-0.2-0.2-0.4-0.3-0.6-0.4c1-0.6,1.8-1.4,2.7-2.2v-0.7
			h-7.1v0.8h5.9c-0.7,0.6-1.4,1.2-2.2,1.6c-0.6-0.4-1.2-0.7-1.8-1l-0.6,0.6c1,0.5,1.9,1,2.6,1.5h-4.7V56h3.9v3.3
			c0,0.4-0.2,0.6-0.5,0.6c-0.5,0-1.1,0-1.8-0.1l0.2,0.9h2C1001.6,60.7,1002,60.3,1002,59.5z M1018,60.6h0.9v-5.3h-5.7v5.3h0.9V60
			h3.8L1018,60.6L1018,60.6z M1014.2,59.1v-2.9h3.8v2.9H1014.2z M1015.6,53h-2.7V54h6.5V53h-2.8v-2h3.2v-0.9h-3.2v-1.6h-1v1.6h-3.2
			v0.9h3.2V53z M1010.3,53.6c-0.7,1.2-1.4,2.1-1.9,2.6c-0.1,0.1-0.3,0.2-0.4,0.3l0.3,0.9c1.3-0.2,2.7-0.5,4.1-1v-0.8
			c-1,0.3-2,0.6-3,0.8c0.8-1,1.8-2.6,3-4.8l-0.8-0.3l-0.8,1.5c-0.7,0.1-1.3,0.2-1.9,0.3c0.7-1.1,1.4-2.4,2.1-4.1l-0.9-0.3
			c-0.5,1.6-1.2,3-1.9,4.2c-0.1,0.2-0.2,0.3-0.4,0.4l0.2,0.9C1009,53.8,1009.7,53.6,1010.3,53.6z M1008,60.1
			c1.7-0.3,3.3-0.7,4.6-1.2V58c-1.4,0.5-3,0.9-4.7,1.2L1008,60.1z M1032.4,60.3l0.7-0.8c-2.2-0.9-3.8-2-4.7-3.2h4.4v-0.9h-5.3v-1.2
			h3.9V49h-8.9v5.1h4v1.2h-5.3v0.9h4.4c-1,1.3-2.5,2.3-4.7,3.1l0.5,0.9c2.3-1,4-2.4,5-4h0.1v4.4h1v-4.4h0.1
			C1028.5,57.8,1030.1,59.1,1032.4,60.3z M1027.5,49.9h3v1.3h-3V49.9z M1027.5,52h3v1.3h-3V52z M1026.5,53.3h-3V52h3V53.3z
			 M1026.5,51.2h-3v-1.3h3V51.2z M1037.4,52c0.6-0.7,1.3-1.6,1.9-2.8l-0.8-0.5c-0.5,1-1.1,1.9-1.8,2.6c-0.7,0.8-1.5,1.5-2.5,2.1
			l0.5,0.8C1035.9,53.5,1036.8,52.7,1037.4,52z M1041.3,59.7c-0.7,0-1.5,0-2.3,0l0.3,0.9h2.5c0.7,0,1.2-0.2,1.5-0.6
			c0.3-0.4,0.5-1.1,0.7-2.1c0.1-1.1,0.2-2.4,0.3-4h-8.1v0.9h2.6c-0.3,1.3-0.7,2.3-1.2,3.1c-0.6,0.8-1.5,1.5-2.7,2.2l0.6,0.8
			c1.3-0.7,2.3-1.6,2.9-2.5c0.6-0.9,1-2,1.3-3.5h3.6c-0.1,2.1-0.2,3.5-0.5,4.1C1042.6,59.4,1042.1,59.7,1041.3,59.7z M1045.7,54.2
			l0.6-0.8c-1.9-1.2-3.3-2.8-4.1-4.8l-0.8,0.5C1042.3,51.1,1043.7,52.8,1045.7,54.2z M1051.7,55.4c0.4,0.9,1.2,1.8,2.2,2.6
			c-1,0.7-2.2,1.3-3.7,1.8l0.5,0.9c1.6-0.6,3-1.3,4.1-2.1c1.1,0.7,2.5,1.4,4.2,2l0.5-0.9c-1.6-0.5-2.9-1.1-3.9-1.8
			c1.1-0.9,1.8-2,2.2-3.1v-0.8h-5.4c0.2-0.4,0.3-0.9,0.5-1.5h6.5v-0.9h-6.2c0.3-1,0.5-2.1,0.6-3.1l-1-0.1c-0.2,1.1-0.4,2.2-0.6,3.3
			h-2.3l0.8-2.6l-0.9-0.2l-1,3.7h3.3c-0.9,3-2.4,5.3-4.3,7l0.5,0.9C1049.5,59.2,1050.8,57.5,1051.7,55.4z M1056.7,55
			c-0.4,0.9-1,1.7-2,2.5c-1.1-0.8-1.8-1.6-2.3-2.5H1056.7z M1057.6,51.4l0.7-0.7c-0.7-0.8-1.4-1.5-2.4-2.2l-0.6,0.6
			C1056.3,49.9,1057.1,50.7,1057.6,51.4z M1070.9,60.5h0.9v-5.3h-5.5v5.3h0.9v-0.7h3.6L1070.9,60.5L1070.9,60.5z M1067.3,58.9v-2.8
			h3.6v2.8H1067.3z M1065.7,53.5c1.3-1,2.5-2.4,3.4-4c0.8,1.6,2,3,3.4,4l0.6-0.8c-1.5-1.1-2.7-2.4-3.5-4.1h-0.9
			c-0.9,1.7-2.1,3.1-3.5,4.1L1065.7,53.5z M1067,53.6h4.3v-0.9h-4.3V53.6z M1061.1,60.1c1.7-0.3,3.2-0.7,4.5-1.2V58
			c-1.3,0.5-2.8,0.9-4.7,1.2L1061.1,60.1z M1063.3,53.5c-0.7,1.2-1.3,2.1-1.8,2.7c-0.1,0.1-0.2,0.2-0.4,0.3l0.3,0.9
			c1.3-0.2,2.6-0.5,4-1v-0.9c-0.9,0.3-1.9,0.6-2.9,0.8c0.7-0.9,1.7-2.5,2.9-4.8l-0.9-0.3l-0.7,1.5c-0.5,0.1-1.1,0.2-1.8,0.3
			c0.7-1.1,1.4-2.5,2-4.1l-0.9-0.3c-0.5,1.6-1.2,3-1.9,4.2c-0.1,0.2-0.3,0.3-0.4,0.3l0.2,0.9C1061.6,53.8,1062.3,53.7,1063.3,53.5z
			 M1084.3,58.6c0,0.6-0.2,0.8-0.7,0.8c-0.3,0-0.8,0-1.5-0.1l0.3,0.9h1.5c0.9,0,1.4-0.5,1.4-1.4V49h-9.9v6.4c0,1.8-0.5,3.3-1.3,4.5
			l0.7,0.7c0.8-1.1,1.3-2.5,1.5-4.2h3.4v3.9h1v-3.9h3.6L1084.3,58.6L1084.3,58.6z M1079.7,55.5h-3.4v-2.3h3.4V55.5z M1079.7,52.2
			h-3.4V50h3.4V52.2z M1080.7,50h3.6v2.3h-3.6V50z M1080.7,55.5v-2.3h3.6v2.3H1080.7z M1094.2,50.1c-0.2-0.6-0.5-1.2-0.7-1.7l-1,0.2
			c0.3,0.5,0.5,1,0.8,1.6h-4.3v4.2c0,2.4-0.6,4.3-1.6,5.8l0.7,0.6c1.2-1.7,1.8-3.8,1.9-6.1h8.6v-4.5H1094.2z M1097.4,53.7h-7.6v-2.6
			h7.6V53.7z M989.9,185.2h0.9v-0.6h6.5v0.6h0.9v-5.8h-8.4L989.9,185.2L989.9,185.2z M994.5,180.2h2.8v1.4h-2.8V180.2z M994.5,182.3
			h2.8v1.4h-2.8V182.3z M990.8,180.2h2.8v1.4h-2.8V180.2z M990.8,182.3h2.8v1.4h-2.8V182.3z M998.1,174.7v-0.7h-5.4
			c0.3-0.3,0.5-0.6,0.6-0.9l-0.9-0.2c-1,1.4-2.2,2.6-3.7,3.4l0.6,0.7c0.7-0.4,1.3-0.9,1.9-1.4c0.6,0.6,1.3,1.2,2.1,1.7
			c-1.5,0.7-3.2,1.1-5.2,1.4l0.4,0.8c2.2-0.4,4.1-0.9,5.7-1.8c1.5,0.8,3.4,1.3,5.6,1.6l0.4-0.9c-2-0.3-3.7-0.7-5.1-1.3
			C996.3,176.5,997.3,175.6,998.1,174.7z M994.1,176.8c-1-0.5-1.8-1.1-2.4-1.8l0.3-0.3h4.9C996.1,175.5,995.2,176.2,994.1,176.8z
			 M1004.4,172.9c-0.7,2.1-1.7,4-3.2,5.6l0.3,1c0.5-0.5,1-1.1,1.4-1.7v7.3h1v-8.9c0.5-1,1-2,1.3-3L1004.4,172.9z M1010.3,173
			l-0.8,0.5c0.6,2.1,1.8,3.7,3.4,5.1l0.7-0.8C1012,176.5,1010.9,174.9,1010.3,173z M1008.2,173.5l-0.9-0.3c-0.7,2.1-1.7,3.7-3,4.9
			l0.7,0.6C1006.4,177.5,1007.4,175.7,1008.2,173.5z M1005.9,179.1h1.7c-0.2,1.2-0.5,2.3-0.9,3c-0.4,0.8-1.1,1.5-1.9,2.2l0.6,0.8
			c0.9-0.8,1.6-1.6,2.1-2.5c0.4-0.8,0.7-2,0.9-3.5h2.2c0,2.2-0.1,3.5-0.2,3.9c-0.1,0.7-0.4,1-0.9,1c-0.2,0-0.7,0-1.5-0.1l0.2,0.9
			c0.7,0,1.1,0,1.4,0c1,0,1.5-0.5,1.6-1.6c0.1-0.7,0.2-2.4,0.2-5.2h-5.9L1005.9,179.1L1005.9,179.1z M1019.7,175.3
			c0.4-0.5,0.8-1.1,1-1.7l-0.8-0.4c-0.2,0.5-0.6,1.1-1,1.7L1019.7,175.3z M1020.6,180.8V180h-2.8l0.3-0.7l-0.9-0.1
			c0-0.1-0.1,0.2-0.3,0.8h-2v0.9h1.6c-0.2,0.5-0.5,1-0.9,1.6l1.8,0.7c-0.8,0.4-1.7,0.8-2.8,1.1l0.5,0.8c1.3-0.4,2.4-0.9,3.3-1.5
			c0.7,0.3,1.4,0.7,2,1l0.5-0.8c-0.6-0.3-1.2-0.6-1.8-0.9C1019.8,182.4,1020.3,181.7,1020.6,180.8z M1018.2,182.7
			c-0.5-0.2-1-0.4-1.5-0.6c0.3-0.4,0.5-0.8,0.7-1.3h2.2C1019.4,181.5,1018.9,182.1,1018.2,182.7z M1024.4,181.6
			c0.7-1.6,1.1-3.5,1.2-5.7h0.9V175h-3.5c0.1-0.7,0.2-1.4,0.3-1.9l-0.9-0.2c-0.3,2.5-0.8,4.5-1.6,6l0.6,0.7c0.3-0.5,0.6-1.1,0.8-1.6
			c0.4,1.3,0.8,2.5,1.3,3.5c-0.6,1.1-1.4,2.1-2.5,2.8l0.5,0.8c1-0.7,1.8-1.6,2.5-2.7c0.7,1.1,1.5,2,2.4,2.6l0.5-0.8
			C1025.9,183.7,1025.1,182.8,1024.4,181.6z M1023.9,180.6c-0.5-1.1-1-2.5-1.3-4c0-0.2,0.1-0.4,0.2-0.7h2
			C1024.7,177.7,1024.4,179.3,1023.9,180.6z M1015.9,173.3l-0.8,0.3c0.3,0.5,0.6,1.1,0.9,1.7l0.7-0.3
			C1016.6,174.4,1016.3,173.8,1015.9,173.3z M1020.8,176.4v-0.8h-2.4V173h-0.9v2.5h-2.6v0.8h1.9c-0.4,0.7-1.1,1.4-2.1,2l0.5,0.8
			c1.2-0.8,1.9-1.7,2.4-2.7v2.5h0.9v-1.7c0.5,0.3,1.1,0.7,1.7,1.3l0.5-0.7c-0.7-0.5-1.5-0.9-2.2-1.2v-0.1L1020.8,176.4L1020.8,176.4
			z M1037.1,176.7h2.5v-3.2h-7v4.2c0,2.8-0.5,5.1-1.4,6.8l0.7,0.7c0.9-1.7,1.4-3.7,1.6-6h2.7v1.6h-2.2v4.4h0.9v-0.7h3.6v0.7h0.9
			v-4.4h-2.2v-1.6h2.8v-0.9h-2.8L1037.1,176.7L1037.1,176.7z M1033.5,178.3l0-1.6h2.6v1.6H1033.5z M1038.4,181.7v2h-3.6v-2H1038.4z
			 M1033.5,175.9v-1.5h5.1v1.5H1033.5z M1031.8,178.5c-0.4,0.2-0.8,0.4-1.2,0.6v-2.6h1.3v-0.9h-1.3V173h-0.9v2.5h-1.6v0.9h1.6v3
			c-0.6,0.2-1.2,0.4-1.8,0.5l0.2,0.9c0.4-0.1,0.9-0.3,1.6-0.5v3.2c0,0.4-0.2,0.6-0.5,0.6c-0.3,0-0.6,0-1-0.1l0.2,0.9h1.1
			c0.7,0,1.1-0.4,1.1-1.2V180c0.5-0.2,1-0.4,1.2-0.6L1031.8,178.5L1031.8,178.5z M1042.5,175.5l-0.7,0.6c0.9,0.6,1.7,1.1,2.2,1.6
			l0.7-0.7C1044.2,176.5,1043.4,176,1042.5,175.5z M1041.4,178.8c1,0.6,1.8,1.1,2.3,1.5l0.7-0.7c-0.6-0.5-1.4-1-2.3-1.5
			L1041.4,178.8z M1050,175.7v-1h3.1v-0.9h-3.1V173h-1v0.9h-3.5V173h-1v0.9h-3.1v0.9h3.1v0.9h1v-0.9h3.5v1H1050z M1051.8,177.1v-0.7
			h-3.9c0.1-0.2,0.3-0.5,0.4-0.9l-0.9-0.2c-0.5,1.2-1.5,2.3-3,3.1l0.5,0.7c0.5-0.3,1.1-0.7,1.6-1.2c0.4,0.5,0.9,0.9,1.4,1.4
			c-1,0.5-2.3,1-3.7,1.4l0.6,0.7c0.4-0.1,0.7-0.2,0.9-0.3v3.9h0.9v-0.6h4.2v0.6h0.9v-4h-5.8c1-0.4,2-0.8,2.8-1.3
			c1.1,0.7,2.5,1.2,4.1,1.5l0.5-0.8c-1.4-0.3-2.7-0.7-3.8-1.2C1050.6,178.7,1051.3,177.9,1051.8,177.1z M1046.7,182h4.2v1.8h-4.2
			V182z M1047.1,177.4c0.1-0.1,0.1-0.2,0.2-0.2h3.4c-0.5,0.6-1.1,1.2-1.9,1.7C1048.2,178.5,1047.6,178,1047.1,177.4z M1041.3,184.6
			l0.9,0.4c0.7-1.1,1.3-2.3,1.8-3.6l-0.8-0.3C1042.7,182.3,1042.1,183.5,1041.3,184.6z M1056.7,176.6l0.8-0.5
			c-0.5-0.8-1.2-1.7-2.1-2.7l-0.8,0.5C1055.5,174.9,1056.2,175.8,1056.7,176.6z M1054.6,184.4l0.9,0.4c0.8-1.6,1.5-3.3,2.1-5
			l-0.9-0.3C1056.2,181.1,1055.4,182.7,1054.6,184.4z M1058.4,179.9h5.8c-0.8,1.1-1.7,2-2.5,2.7c-0.7-0.4-1.3-0.8-2-1.1l-0.7,0.6
			c2,1.1,3.5,2.1,4.5,3l0.7-0.7c-0.6-0.5-1.2-0.9-1.9-1.4c1.1-1,2-2.1,2.8-3.3V179h-6.9L1058.4,179.9L1058.4,179.9z M1061.3,176.4
			l-0.6,0.6c0.6,0.5,1.2,1,1.8,1.6l0.6-0.7C1062.5,177.3,1061.9,176.8,1061.3,176.4z M1062.4,173.1h-0.8c-1,1.8-2.4,3.2-4.2,4.4
			l0.5,0.8c1.7-1,3-2.4,4.1-4.2c0.9,1.7,2.3,3,4.2,4.2l0.5-0.8C1064.6,176.2,1063.2,174.7,1062.4,173.1z M1079.6,175.3v-0.9h-6.8
			c0.1-0.3,0.3-0.8,0.4-1.3l-1-0.1c-0.1,0.4-0.3,0.9-0.5,1.4h-3.6v0.9h3.2c-0.9,1.9-2.1,3.5-3.7,4.9l0.6,0.8c0.5-0.4,1-0.9,1.4-1.4
			v5.6h0.9v-6.8c0.7-1,1.3-2,1.8-3.1H1079.6z M1076.5,179.7c0.9-0.6,1.7-1.2,2.4-1.9v-0.9h-6.2v0.9h5c-0.7,0.6-1.4,1.1-2.2,1.5v1.2
			h-3.9v0.9h3.9v2.2c0,0.4-0.2,0.6-0.6,0.6c-0.4,0-0.9,0-1.5,0l0.3,0.9h1.7c0.8,0,1.2-0.4,1.2-1.2v-2.5h3.3v-0.9h-3.3L1076.5,179.7
			L1076.5,179.7z M1086.1,182.7v-5.6h-2.4v0.9h1.5v5.3c0,0.2-0.1,0.4-0.3,0.5l0.4,0.9c0.8-0.7,1.5-1.4,2.1-2.2l-0.2-0.9
			C1086.8,182,1086.4,182.4,1086.1,182.7z M1092.3,173.7c-0.2,0.6-0.5,1.1-0.8,1.6v-0.8h-1.5V173h-0.9v1.5h-1.6v0.8h1.6v1.7h-1.9
			v0.9h2.4c-0.9,0.9-1.9,1.6-3,2.2l0.5,0.8c0.4-0.2,0.7-0.4,1-0.5v4.8h0.9v-0.6h2.5v0.6h0.9v-5.9h-2.7c0.4-0.4,0.8-0.8,1.2-1.2h2.2
			v-0.9h-1.5c0.6-0.9,1.1-1.9,1.6-3L1092.3,173.7z M1091.5,183.7h-2.5v-1.5h2.5V183.7z M1091.5,180.1v1.4h-2.5v-1.4H1091.5z
			 M1090.5,177.1h-0.4v-1.7h1.5C1091.2,176,1090.8,176.6,1090.5,177.1z M1084.3,174.1c0.8,0.7,1.4,1.4,1.9,2l0.7-0.7
			c-0.5-0.6-1.2-1.3-2-2L1084.3,174.1z M1083.2,173c-0.5,2-1.2,3.7-2.3,5.2l0.3,1c0.4-0.5,0.7-1,1-1.5v7.4h0.9V176
			c0.4-0.9,0.7-1.7,0.9-2.6L1083.2,173z M807.6,179.8h5.8c-0.9,1.1-1.7,2-2.5,2.7c-0.7-0.4-1.3-0.8-2-1.1l-0.7,0.6
			c2,1.1,3.5,2.1,4.5,3l0.7-0.7c-0.6-0.5-1.2-0.9-1.9-1.4c1.1-1,2-2.1,2.8-3.3v-0.8h-6.9L807.6,179.8L807.6,179.8z M810.5,176.3
			l-0.6,0.6c0.6,0.5,1.2,1,1.8,1.6l0.6-0.7C811.7,177.2,811.1,176.7,810.5,176.3z M806.7,175.9c-0.5-0.8-1.2-1.7-2.1-2.7l-0.8,0.5
			c0.9,1,1.6,1.9,2.1,2.7L806.7,175.9z M811.5,173h-0.8c-1,1.8-2.4,3.2-4.2,4.4l0.5,0.8c1.7-1,3-2.4,4.1-4.2c0.9,1.7,2.3,3,4.2,4.2
			l0.5-0.8C813.8,176.1,812.4,174.6,811.5,173z M803.7,184.3l0.9,0.4c0.8-1.6,1.5-3.3,2.1-5l-0.9-0.3
			C805.3,181,804.6,182.6,803.7,184.3z M826.1,182.4c0.7,0.9,1.3,1.8,1.8,2.7l0.8-0.6c-0.4-0.8-1-1.6-1.8-2.6L826.1,182.4z
			 M828.3,180.2c-0.1,0.3-0.2,0.5-0.3,0.5c-0.1,0-0.2-0.1-0.3-0.4c-0.3-0.6-0.4-1.6-0.4-3.2v-2.6h-2.7v-1.7h-0.9v1.7h-1.5v0.9h1.5
			c0,0.8-0.1,1.5-0.3,2.2c-0.3-0.2-0.6-0.4-1-0.7l-0.5,0.7c0.4,0.2,0.9,0.5,1.3,0.8c-0.4,1.1-1,1.9-1.8,2.5l0.7,0.6
			c0.8-0.7,1.5-1.5,1.9-2.6c0.6,0.5,1.1,1,1.5,1.4l0.5-0.8c-0.6-0.6-1.2-1.1-1.7-1.5c0.2-0.8,0.3-1.8,0.4-2.8h1.8v1.6
			c0,1.9,0.3,3.2,0.8,3.9c0.3,0.4,0.6,0.6,1.1,0.6c0.2,0,0.4-0.1,0.6-0.4c0.2-0.3,0.3-1,0.4-2.2l-0.7-0.4
			C828.4,179.4,828.4,179.9,828.3,180.2z M823.4,182.4c0.4,0.7,0.7,1.6,1,2.7l1-0.2c-0.3-0.9-0.6-1.8-1-2.6L823.4,182.4z M817,184.6
			l0.8,0.6c0.7-0.8,1.2-1.7,1.7-2.7l-0.8-0.4C818.2,183.1,817.6,183.9,817,184.6z M820.6,182.6c0.3,0.7,0.5,1.6,0.7,2.5l1-0.2
			c-0.2-0.8-0.5-1.7-0.7-2.5L820.6,182.6z M821.6,177c-0.6,0.2-1.1,0.3-1.6,0.5v-2h1.6v-0.9H820v-1.7h-1v1.7h-1.9v0.9h1.9v2.2
			c-0.9,0.2-1.6,0.3-2.2,0.4l0.2,0.9c0.9-0.2,1.6-0.3,2-0.4v1.6c0,0.4-0.2,0.5-0.5,0.5c-0.3,0-0.7,0-1.1-0.1l0.2,0.9h1.2
			c0.7,0,1.1-0.4,1.1-1.2v-2.1c0.7-0.2,1.2-0.3,1.6-0.4V177z M838.3,173l-0.8,0.5c0.8,2.1,2.2,3.8,4.2,5.1l0.6-0.8
			C840.4,176.6,839,175,838.3,173z M833.4,176.4c0.6-0.7,1.3-1.6,1.9-2.8l-0.8-0.5c-0.5,1-1.1,1.9-1.8,2.6c-0.7,0.8-1.5,1.5-2.5,2.1
			l0.5,0.8C831.9,177.9,832.8,177.1,833.4,176.4z M832.1,179.1h2.6c-0.3,1.3-0.7,2.3-1.2,3.1c-0.6,0.8-1.5,1.5-2.7,2.1l0.6,0.8
			c1.3-0.7,2.3-1.6,2.9-2.5c0.6-0.9,1-2,1.3-3.5h3.5c-0.1,2.1-0.2,3.5-0.5,4.1c-0.2,0.6-0.7,0.9-1.5,0.9c-0.7,0-1.5,0-2.3,0l0.3,0.9
			h2.5c0.7,0,1.2-0.2,1.5-0.6c0.3-0.4,0.5-1.1,0.7-2.1c0.1-1.1,0.2-2.4,0.3-4h-8.1L832.1,179.1L832.1,179.1z M854.5,178.8V178h-7.2
			v0.9H854.5z M854.6,173.4H845v4.4c0,2.7-0.5,4.8-1.4,6.5l0.7,0.6c1.1-2,1.6-4.4,1.6-7.2v-1.1h8.7L854.6,173.4L854.6,173.4z
			 M853.7,175.8h-7.8v-1.5h7.8V175.8z M852.1,181.9l1.2,1.3c-1.7,0.2-3.4,0.4-5.2,0.6c0.6-0.6,1.3-1.5,2.1-2.8h5.1v-0.9h-9v0.9h2.9
			c-1,1.5-1.7,2.4-2.3,2.8l-0.2,0.1l0.2,0.8c2.5-0.2,4.8-0.4,6.9-0.7c0.3,0.3,0.5,0.7,0.7,1l0.8-0.5c-0.6-0.8-1.4-1.8-2.5-3
			L852.1,181.9z M865.5,179.6c0.9-0.6,1.7-1.2,2.4-1.9v-0.9h-6.2v0.9h5c-0.7,0.6-1.4,1.1-2.2,1.5v1.2h-3.9v0.9h3.9v2.2
			c0,0.4-0.2,0.6-0.6,0.6c-0.4,0-0.9,0-1.5,0l0.3,0.9h1.7c0.8,0,1.2-0.4,1.2-1.2v-2.5h3.3v-0.9h-3.3L865.5,179.6L865.5,179.6z
			 M868.7,175.2v-0.9h-6.8c0.1-0.3,0.3-0.8,0.4-1.3l-1-0.1c-0.1,0.4-0.3,0.9-0.5,1.4h-3.6v0.9h3.2c-0.9,1.9-2.1,3.5-3.7,4.9l0.6,0.8
			c0.5-0.4,1-0.9,1.4-1.4v5.6h0.9v-6.8c0.7-1,1.3-2,1.8-3.1L868.7,175.2L868.7,175.2z M872.2,172.9c-0.5,2-1.2,3.7-2.3,5.2l0.3,1
			c0.4-0.5,0.7-1,1-1.5v7.4h0.9v-9.2c0.4-0.9,0.7-1.7,0.9-2.6L872.2,172.9z M875.3,176.1l0.7-0.7c-0.5-0.6-1.2-1.3-2-2l-0.7,0.6
			C874.1,174.8,874.8,175.4,875.3,176.1z M881.4,173.6c-0.2,0.6-0.5,1.1-0.8,1.6v-0.8h-1.5v-1.5h-0.9v1.5h-1.6v0.8h1.6v1.7h-1.9v0.9
			h2.4c-0.9,0.9-1.9,1.6-3,2.2l0.5,0.8c0.4-0.2,0.7-0.4,1-0.5v4.8h0.9v-0.6h2.5v0.6h0.9v-5.9h-2.7c0.4-0.4,0.8-0.8,1.2-1.2h2.2V177
			h-1.5c0.6-0.9,1.1-1.9,1.6-3L881.4,173.6z M880.6,183.6h-2.5v-1.5h2.5V183.6z M880.6,179.9v1.4h-2.5v-1.4H880.6z M879.5,177h-0.4
			v-1.7h1.5C880.2,175.9,879.9,176.5,879.5,177z M875.2,182.6V177h-2.4v0.9h1.5v5.3c0,0.2-0.1,0.4-0.3,0.5l0.4,0.9
			c0.8-0.7,1.5-1.4,2.1-2.2l-0.2-0.9C875.8,181.9,875.4,182.3,875.2,182.6z M610.2,175c-0.2-0.5-0.5-1.1-0.9-1.6l-0.8,0.3
			c0.3,0.5,0.6,1.1,0.9,1.7L610.2,175z M614.1,173.7l-0.8-0.4c-0.2,0.5-0.6,1.1-1,1.7l0.7,0.4C613.5,174.8,613.8,174.3,614.1,173.7z
			 M614,180.9v-0.8h-2.8l0.3-0.7l-0.9-0.1c0-0.1-0.1,0.2-0.3,0.8h-2v0.9h1.6c-0.2,0.5-0.5,1-0.9,1.6l1.8,0.7
			c-0.8,0.4-1.7,0.8-2.8,1.1l0.5,0.8c1.3-0.4,2.4-0.9,3.3-1.5c0.7,0.3,1.4,0.7,2,1l0.5-0.8c-0.6-0.3-1.2-0.6-1.8-0.9
			C613.2,182.5,613.7,181.8,614,180.9z M611.6,182.8c-0.5-0.2-1-0.4-1.5-0.6c0.3-0.4,0.5-0.8,0.7-1.3h2.2
			C612.8,181.6,612.3,182.2,611.6,182.8z M608.1,178.5l0.5,0.8c1.2-0.8,1.9-1.7,2.4-2.7v2.5h0.9v-1.7c0.5,0.3,1,0.7,1.7,1.3l0.5-0.7
			c-0.7-0.5-1.5-0.9-2.2-1.2v-0.1h2.4v-0.8h-2.4v-2.5h-0.9v2.5h-2.6v0.8h1.9C609.8,177.2,609.1,177.9,608.1,178.5z M617.9,181.7
			c0.7-1.6,1.1-3.5,1.2-5.7h0.9v-0.9h-3.5c0.1-0.7,0.2-1.4,0.3-1.9l-0.9-0.2c-0.3,2.5-0.8,4.5-1.6,6l0.6,0.7c0.3-0.5,0.6-1,0.8-1.6
			c0.4,1.3,0.8,2.5,1.3,3.5c-0.6,1.1-1.4,2.1-2.5,2.8l0.5,0.8c1-0.7,1.8-1.6,2.5-2.7c0.7,1.1,1.5,2,2.4,2.6l0.5-0.8
			C619.4,183.8,618.6,182.9,617.9,181.7z M617.3,180.7c-0.5-1.1-1-2.5-1.3-4c0-0.2,0.1-0.4,0.2-0.7h2
			C618.1,177.8,617.8,179.4,617.3,180.7z M627.4,180.9v4.4h0.9v-0.6h3.6v0.6h0.9v-4.4h-2.2v-1.6h2.8v-0.9h-2.8v-1.6h2.5v-3.2h-7v4.2
			c0,2.8-0.5,5.1-1.4,6.8l0.7,0.7c0.9-1.7,1.4-3.7,1.6-6h2.7v1.6L627.4,180.9L627.4,180.9z M627,174.5h5.1v1.5H627V174.5z
			 M626.9,178.4l0-1.6h2.6v1.6H626.9z M631.9,181.8v2h-3.6v-2H631.9z M621.3,180.1l0.2,0.9c0.4-0.1,0.9-0.3,1.6-0.5v3.2
			c0,0.4-0.2,0.6-0.5,0.6c-0.3,0-0.6,0-1-0.1l0.2,0.9h1.1c0.7,0,1.1-0.4,1.1-1.2v-3.9c0.5-0.2,1-0.4,1.2-0.6v-0.9
			c-0.4,0.2-0.8,0.4-1.2,0.6v-2.6h1.3v-0.9H624v-2.5h-0.9v2.5h-1.6v0.9h1.6v3C622.5,179.8,621.9,180,621.3,180.1z M646.6,183.8h-6.1
			v-5.7h4.9v-0.9h-4.9v-4.1h-1v10.7h-4.8v0.9h11.8L646.6,183.8L646.6,183.8z M653.9,177.3h-2.5v0.9h2.2c-0.3,0.9-0.6,1.7-1,2.6h5.7
			c-0.6,0.8-1.5,1.6-2.5,2.3c-0.8-0.4-1.6-0.7-2.4-1l-0.5,0.7c1.7,0.6,3.4,1.5,5,2.6l0.5-0.8c-0.6-0.4-1.2-0.8-1.8-1.1
			c1.2-0.9,2.1-1.9,2.7-2.8v-0.8h-5.5c0.3-0.7,0.5-1.2,0.7-1.7h5.6v-0.9h-5.2c0.1-0.4,0.3-0.9,0.5-1.5h4.3v-0.9h-4l0.4-1.6l-0.9-0.1
			l-0.4,1.7H652v0.9h2.4C654.2,176.3,654,176.8,653.9,177.3z M649.5,177.9v7.4h1v-8.9c0.5-0.9,0.9-1.8,1.3-2.9l-0.9-0.4
			c-0.6,2-1.7,3.9-3.1,5.4l0.3,1C648.6,179,649.1,178.5,649.5,177.9z M667.7,181.6h4.4v-0.9h-4.4v-1.5h-1v1.5h-4.4v0.9h4.4v2.2h-5.4
			v0.9h11.7v-0.9h-5.4L667.7,181.6L667.7,181.6z M662.1,178l0.3,0.8c2.9-0.2,5.7-0.4,8.4-0.9c0.4,0.5,0.7,0.9,0.9,1.3l0.8-0.6
			c-0.7-1-1.6-2.1-2.8-3.4l-0.8,0.5c0.4,0.4,0.8,0.9,1.2,1.4c-2,0.3-4.1,0.6-6.3,0.7c1-0.8,1.9-1.9,2.7-3.2h6.2v-0.9h-11v0.9h3.7
			C664.5,176.2,663.4,177.3,662.1,178z M625.2,190.8h-1v2.6h-3.9v0.9h3.9v7.1c0,0.5-0.2,0.7-0.7,0.7c-0.5,0-1.2,0-2-0.1l0.2,0.9h2.1
			c0.9,0,1.4-0.4,1.4-1.3v-7.3h1.5v-0.9h-1.5L625.2,190.8L625.2,190.8z M623.2,198.8c-0.5-0.8-1.2-1.8-2.1-2.9l-0.7,0.5
			c0.8,1,1.5,2,2,2.9L623.2,198.8z M619.7,192.8v-0.7h-4.5v0.9h3.6c-0.1,1.4-0.4,2.7-0.9,3.9c-0.8-1-1.6-1.9-2.3-2.7l-0.6,0.6
			c1,1.1,1.8,2.1,2.5,3.1c-0.7,1.3-1.7,2.4-2.9,3.4l0.6,0.8c1.2-1,2.2-2.2,2.9-3.4c0.5,0.7,0.9,1.4,1.3,2l0.7-0.7
			c-0.5-0.8-1-1.5-1.5-2.2C619.3,196.3,619.7,194.7,619.7,192.8z M637.3,198.6c0.8-0.3,1.5-0.7,2.1-1.1l-0.6-0.7
			c-0.9,0.6-2,1.1-3.3,1.6c-0.4-0.7-0.9-1.3-1.7-1.9h5.3v-3h-3.5c0.4-0.3,0.9-0.7,1.3-1.1v-0.6h-4.2c0.2-0.2,0.4-0.4,0.7-0.7l-1-0.2
			c-1.1,1.2-2.6,2.1-4.3,2.9l0.6,0.7c0.3-0.1,0.6-0.3,0.9-0.4v2.5h2.8c-0.9,0.6-2.2,1.1-3.9,1.4l0.4,0.8c1.8-0.3,3.2-0.9,4.3-1.6
			c0.3,0.2,0.5,0.5,0.8,0.7c-1.2,0.9-3,1.6-5.3,2.1l0.5,0.8c2.2-0.6,4-1.4,5.3-2.4c0.2,0.3,0.3,0.6,0.4,0.8c-1.5,1.1-3.6,2-6.4,2.8
			l0.5,0.8c2.6-0.7,4.6-1.6,6.1-2.7c0,0.2,0.1,0.4,0.1,0.6c0,0.6-0.1,1.1-0.4,1.3c-0.3,0.2-0.6,0.3-1,0.3l-1.1,0l0.3,0.9
			c0.3,0,0.6,0,0.9,0c0.8-0.1,1.4-0.3,1.8-0.6c0.4-0.4,0.5-1,0.5-1.9c0-0.5-0.1-1-0.3-1.4l0.6-0.2c0.6,1.3,1.6,2.4,3.1,3.5l0.6-0.8
			C638.8,200.8,637.8,199.8,637.3,198.6z M638.2,194.2v1.4h-3.8c0.2-0.4,0.4-0.8,0.6-1.4H638.2z M631.8,192.4h3.9
			c-0.5,0.4-0.9,0.8-1.3,1h-4.1C631,193.1,631.4,192.8,631.8,192.4z M630.5,195.6v-1.4h3.5c-0.2,0.5-0.4,0.9-0.8,1.4H630.5z
			 M650,197.5c0.9-0.6,1.7-1.2,2.4-1.9v-0.9h-6.2v0.9h5c-0.7,0.6-1.4,1.1-2.2,1.5v1.2h-3.9v0.9h3.9v2.2c0,0.4-0.2,0.6-0.6,0.6
			c-0.4,0-0.9,0-1.5,0l0.3,0.9h1.7c0.8,0,1.2-0.4,1.2-1.2v-2.5h3.3v-0.9H650L650,197.5L650,197.5z M653.1,193.1v-0.9h-6.8
			c0.1-0.3,0.3-0.8,0.4-1.3l-1-0.1c-0.1,0.4-0.3,0.9-0.5,1.4h-3.6v0.9h3.2c-0.9,1.9-2.1,3.5-3.7,4.9l0.6,0.8c0.5-0.4,1-0.9,1.4-1.4
			v5.6h0.9v-6.8c0.7-1,1.3-2,1.8-3.1H653.1z M656.7,190.8c-0.5,2-1.2,3.7-2.3,5.2l0.3,1c0.4-0.5,0.7-1,1-1.5v7.4h0.9v-9.2
			c0.4-0.9,0.7-1.7,0.9-2.6L656.7,190.8z M659.6,200.6v-5.6h-2.4v0.9h1.5v5.3c0,0.2-0.1,0.4-0.3,0.5l0.4,0.9
			c0.8-0.7,1.5-1.4,2.1-2.2l-0.2-0.9C660.3,199.9,659.9,200.3,659.6,200.6z M658.5,191.3l-0.7,0.6c0.8,0.7,1.4,1.4,1.9,2l0.7-0.7
			C659.9,192.7,659.3,192,658.5,191.3z M665.8,191.5c-0.2,0.6-0.5,1.1-0.8,1.6v-0.8h-1.5v-1.5h-0.9v1.5h-1.6v0.8h1.6v1.7h-1.9v0.9
			h2.4c-0.9,0.9-1.9,1.6-3,2.2l0.5,0.8c0.4-0.2,0.7-0.4,1-0.5v4.8h0.9v-0.6h2.5v0.6h0.9V197h-2.7c0.4-0.4,0.8-0.8,1.2-1.2h2.2v-0.9
			H665c0.6-0.9,1.1-1.9,1.6-3L665.8,191.5z M665,201.6h-2.5v-1.5h2.5V201.6z M665,197.9v1.4h-2.5v-1.4H665z M664,194.9h-0.4v-1.7
			h1.5C664.7,193.8,664.3,194.4,664,194.9z M404.4,181.6c-0.6,1.1-1.3,2-2.1,2.8l0.8,0.6c0.8-0.8,1.5-1.8,2.1-2.9L404.4,181.6z
			 M410.9,175.9h-3.7c0.1-0.4,0.2-0.8,0.3-1.2h4.3v-0.9H401v5.2c0,2.5-0.4,4.4-1,5.8l0.7,0.6c0.8-1.6,1.2-3.7,1.3-6.4v-4.3h4.5
			c-0.1,0.5-0.2,0.9-0.3,1.2h-2.8v5.1h3.4v3.1c0,0.3-0.2,0.4-0.5,0.4c-0.3,0-0.7,0-1.2-0.1l0.2,0.9h1.3c0.7,0,1.1-0.4,1.1-1.1V181
			h3.1L410.9,175.9L410.9,175.9z M409.9,180.1h-5.5v-1.3h5.5V180.1z M409.9,178h-5.5v-1.2h5.5V178z M409.1,182.1
			c0.9,1.1,1.6,2.1,2.1,2.9l0.8-0.5c-0.5-0.8-1.2-1.8-2.1-2.9L409.1,182.1z M418.6,185.4h0.9v-0.8h4.1v0.8h0.9v-5.7h-5.9
			L418.6,185.4L418.6,185.4z M419.5,180.6h4.1v3.1h-4.1V180.6z M422.4,175.1c0.4,0.6,0.7,1.2,1.1,2c-1.3,0.2-2.8,0.4-4.3,0.5
			c0.8-1.1,1.6-2.4,2.4-4.1l-0.9-0.3c-1.1,2.6-2.1,4.1-2.9,4.5l0.1,0.9c2.1-0.1,4.1-0.3,5.9-0.6c0,0.1,0.2,0.4,0.5,1l0.9-0.4
			c-0.6-1.4-1.3-2.6-2.1-3.8L422.4,175.1z M417.5,176.3v-0.6h-2c0.1-0.8,0.2-1.6,0.4-2.5l-0.9-0.1c-0.1,0.9-0.2,1.8-0.4,2.6h-1.2
			v0.9h1.1c-0.2,1.3-0.5,2.6-0.8,3.7c0.7,0.6,1.2,1.2,1.7,1.7c-0.5,1-1.1,1.9-1.9,2.6l0.6,0.8c0.8-0.7,1.4-1.6,2-2.6
			c0.5,0.5,0.9,1,1.3,1.6l0.6-0.7c-0.4-0.5-0.9-1.1-1.5-1.8C417,180.3,417.4,178.4,417.5,176.3z M415.7,181.1
			c-0.3-0.3-0.7-0.7-1.1-1c0.3-0.9,0.5-2,0.8-3.5h1.2C416.5,178.3,416.2,179.8,415.7,181.1z M433.1,182.6h2.7v-0.9h-2.7v-1.1h-0.9
			v1.1h-2.7v0.9h2.7v1.4h-4.6v0.9h10.1V184h-4.6L433.1,182.6L433.1,182.6z M435.7,180.2h2.8v-0.9h-2.6V175h2.4v-0.8h-2.4v-1H435v1
			h-4.6v-1h-0.9v1h-2.4v0.8h2.4v4.4h-2.6v0.9h2.8c-0.6,0.8-1.6,1.4-2.9,1.9l0.5,0.8c1.5-0.7,2.7-1.6,3.3-2.7h4.2
			c0.7,1.1,1.9,2,3.5,2.7l0.4-0.8C437.3,181.6,436.3,181,435.7,180.2z M435,179.4h-4.6v-1h4.6V179.4z M435,177.7h-4.6v-0.9h4.6
			V177.7z M435,176h-4.6v-1h4.6V176z M446.1,179c0.1-0.2,0.1-0.5,0.2-0.9h3.3v-0.9h-3.2c0.1-0.6,0.1-1.3,0.1-1.9h-0.9
			c0,0.6,0,1.3-0.1,1.9h-3.2v0.9h3.1c-0.1,0.4-0.2,0.8-0.3,1.1c-0.5,1.2-1.5,2.3-3,3.1l0.6,0.7c1.6-0.9,2.6-2,3.2-3.3
			c1.3,1.1,2.3,2.2,3.1,3.3l0.7-0.7C448.7,181.3,447.6,180.1,446.1,179z M440.6,185.3h1v-0.6h8.8v0.6h1v-11.5h-10.7V185.3z
			 M441.5,174.7h8.8v9.1h-8.8V174.7z M453.2,178.6l0.5,0.8c1.2-0.8,1.9-1.7,2.4-2.7v2.5h0.9v-1.7c0.5,0.3,1,0.7,1.7,1.3l0.5-0.7
			c-0.7-0.5-1.5-0.9-2.2-1.2v-0.1h2.4v-0.8H457v-2.5h-0.9v2.5h-2.6v0.8h1.9C455,177.3,454.3,178,453.2,178.6z M459.1,181v-0.8h-2.8
			l0.3-0.7l-0.9-0.1c0-0.1-0.1,0.2-0.3,0.8h-2v0.9h1.6c-0.2,0.5-0.5,1-0.9,1.6l1.8,0.7c-0.8,0.4-1.7,0.8-2.8,1.1l0.5,0.8
			c1.3-0.4,2.4-0.9,3.3-1.5c0.7,0.3,1.4,0.7,2,1l0.5-0.8c-0.6-0.3-1.2-0.6-1.8-0.9C458.4,182.6,458.8,181.9,459.1,181z M456.8,182.9
			c-0.5-0.2-1-0.4-1.5-0.6c0.3-0.4,0.5-0.8,0.7-1.3h2.2C457.9,181.7,457.4,182.3,456.8,182.9z M463,181.8c0.7-1.6,1.1-3.5,1.2-5.7
			h0.9v-0.9h-3.5c0.1-0.7,0.2-1.4,0.3-1.9l-0.9-0.2c-0.3,2.5-0.8,4.5-1.6,6l0.6,0.7c0.3-0.5,0.6-1,0.8-1.6c0.4,1.3,0.8,2.5,1.3,3.5
			c-0.6,1.1-1.4,2.1-2.5,2.8l0.5,0.8c1-0.7,1.8-1.6,2.5-2.7c0.7,1.1,1.5,2,2.4,2.6l0.5-0.8C464.5,183.9,463.7,183,463,181.8z
			 M462.5,180.8c-0.5-1.1-1-2.5-1.3-4c0-0.2,0.1-0.4,0.2-0.7h2C463.3,177.9,463,179.5,462.5,180.8z M455.4,175.1
			c-0.2-0.5-0.5-1.1-0.8-1.6l-0.8,0.3c0.3,0.5,0.6,1.1,0.9,1.7L455.4,175.1z M459.3,173.7l-0.8-0.4c-0.2,0.5-0.6,1.1-1,1.7l0.7,0.4
			C458.7,174.9,459,174.3,459.3,173.7z M475.7,176.9h2.5v-3.2h-7v4.2c0,2.8-0.5,5.1-1.4,6.8l0.7,0.7c0.9-1.7,1.4-3.7,1.6-6h2.7v1.6
			h-2.2v4.4h0.9v-0.7h3.6v0.7h0.9V181h-2.2v-1.6h2.8v-0.9h-2.8L475.7,176.9L475.7,176.9z M472.1,178.5l0-1.6h2.6v1.6H472.1z
			 M477,181.9v2h-3.6v-2H477z M472.1,176.1v-1.5h5.1v1.5H472.1z M470.4,178.7c-0.4,0.2-0.8,0.4-1.2,0.6v-2.6h1.3v-0.9h-1.3v-2.5
			h-0.9v2.5h-1.6v0.9h1.6v3c-0.6,0.2-1.2,0.4-1.8,0.5l0.2,0.9c0.4-0.1,0.9-0.3,1.6-0.5v3.2c0,0.4-0.2,0.6-0.5,0.6
			c-0.3,0-0.6,0-1-0.1l0.2,0.9h1.1c0.7,0,1.1-0.4,1.1-1.2v-3.9c0.5-0.2,1-0.4,1.2-0.6V178.7z"/>
	</g>
</g>
</svg>
