<?xml version="1.0" encoding="UTF-8"?>
<svg width="112px" height="24px" viewBox="0 0 112 24" version="1.1" xmlns="http://www.w3.org/2000/svg" xmlns:xlink="http://www.w3.org/1999/xlink">
    <!-- Generator: Sketch 54.1 (76490) - https://sketchapp.com -->
    <title>腾讯云小微</title>
    <desc>Created with Sketch.</desc>
    <defs>
        <polygon id="path-1" points="0 0 27.2970167 0 27.2970167 19.7529762 0 19.7529762"></polygon>
    </defs>
    <g id="腾讯云小微" stroke="none" stroke-width="1" fill="none" fill-rule="evenodd" opacity="0.5">
        <g id="编组-2" transform="translate(0.000000, 0.500000)">
            <text id="腾讯云小微" font-family="PingFangSC-Medium, PingFang SC" font-size="16" font-weight="400" fill="#FFFFFF">
                <tspan x="31.8213588" y="17.4815136">腾讯云小微</tspan>
            </text>
            <g id="编组" transform="translate(0.334871, 1.343583)">
                <mask id="mask-2" fill="white">
                    <use xlink:href="#path-1"></use>
                </mask>
                <g id="Clip-2"></g>
                <path d="M23.6552439,16.1732593 C23.1693871,16.6542594 22.3025204,17.2004911 20.8791372,17.2487721 C20.2212975,17.2709604 19.452421,17.2736268 19.1008367,17.2736268 L11.4539732,17.2736268 C14.2360792,14.5711319 16.6631728,12.2141266 16.9385742,11.9467245 C17.1905493,11.7018915 17.7579218,11.1589928 18.2472068,10.7184649 C19.3215768,9.75122709 20.2884337,9.55657966 20.9723661,9.56295998 C22.0440697,9.57276853 23.0184497,10.0103443 23.7148571,10.7169412 C25.2052812,12.2402193 25.1698562,14.6740741 23.6552439,16.1732593 M25.4870629,8.9831125 C24.3444139,7.81789429 22.7518093,7.08377634 20.9814128,7.08377634 C19.4509926,7.08339543 18.1333133,7.61115281 16.982665,8.54782217 C16.4813812,8.95635324 15.9555284,9.44525732 15.2934034,10.088051 C15.0739012,10.3015537 10.7368059,14.5096141 7.88908725,17.2728649 C7.492555,17.2714365 6.92299222,17.2657228 6.41780404,17.2487721 C4.99451608,17.2004911 4.12764935,16.6542594 3.64179259,16.1732593 C2.12718032,14.6740741 2.09166002,12.2402193 3.58217943,10.7169412 C4.27849159,10.0103443 5.25334766,9.57276853 6.32467038,9.56295998 C6.99612786,9.56029357 7.90756162,9.75532193 8.93698373,10.6090471 L8.93717418,10.6089519 C9.42874467,11.0164354 10.5201606,11.9757692 10.9989705,12.4075361 C11.023349,12.4295339 11.0526795,12.4315337 11.0812481,12.4081075 L12.7707954,10.7596989 C12.7999354,10.7313207 12.7982213,10.6930388 12.769367,10.6669461 C11.9569711,9.93254251 10.8050849,8.90483452 10.1117248,8.38859981 C9.38332058,7.8435108 8.59787437,7.45573959 7.7468156,7.2512836 C7.75548141,7.25318817 7.76452813,7.25423569 7.77357486,7.25614026 C8.34742293,4.51707754 10.768898,2.48261187 13.6483278,2.48261187 C16.0467575,2.48261187 18.1506449,3.92894517 19.0994083,5.97883788 C19.1140735,6.01131087 19.1393091,6.02188125 19.1654018,6.01464387 C19.8787599,5.81847278 20.7339135,5.70457927 21.5601176,5.76571608 C21.6403953,5.77171549 21.6717256,5.72610095 21.6457282,5.65287009 C20.4796529,2.36005255 17.3407249,-2.84217094e-14 13.6483278,-2.84217094e-14 C9.41312716,-2.84217094e-14 5.90328344,3.11445421 5.26763196,7.1712915 C5.26953653,7.1712915 5.27144111,7.17167242 5.27325045,7.1712915 C3.9243361,7.39726918 2.72321667,8.05177594 1.80987833,8.9831125 C-0.637975066,11.4849606 -0.600264506,15.4825656 1.90758297,17.9454652 C2.91443587,18.9342246 4.13441058,19.4721715 5.43552013,19.6540583 L5.43513922,19.6540583 C5.93461368,19.7252893 6.6214982,19.7464301 7.23458049,19.7502392 C7.80833333,19.7539531 18.7576325,19.7528104 19.2159682,19.7528104 C20.1386389,19.7528104 20.7388654,19.7520486 21.3839445,19.7049104 C22.8626555,19.5966354 24.2599461,19.0545937 25.3893583,17.9454652 C27.897301,15.4825656 27.9350116,11.4849606 25.4870629,8.9831125" id="Fill-1" fill="#FFFFFF" mask="url(#mask-2)"></path>
            </g>
        </g>
    </g>
</svg>