<?xml version="1.0" encoding="UTF-8"?>
<svg width="48px" height="48px" viewBox="0 0 48 48" version="1.1" xmlns="http://www.w3.org/2000/svg" xmlns:xlink="http://www.w3.org/1999/xlink">
    <!-- Generator: Sketch 52.2 (67145) - http://www.bohemiancoding.com/sketch -->
    <title>计划性-48x48</title>
    <desc>Created with Sketch.</desc>
    <g id="计划性-48x48" stroke="none" stroke-width="1" fill="none" fill-rule="evenodd">
        <g id="计划性-48x48-01" transform="translate(2.000000, 0.000000)" fill-rule="nonzero">
            <path d="M40,20.575 C39.3581001,20.1723845 38.6899359,19.8132463 38,19.5 L38,2 L2,2 L2,46 L18.038,46 C18.6505214,46.7210391 19.3218252,47.3900016 20.045,48 L0,48 L0,0 L40,0 L40,20.575 Z" id="Combined-Shape" fill="#334966"></path>
            <rect id="Rectangle-60" fill="#334966" x="5" y="7" width="29" height="2"></rect>
            <rect id="Rectangle-60-Copy" fill="#334966" x="5" y="16" width="29" height="2"></rect>
            <path d="M16.5,25 C16.0217359,25.6363605 15.5873963,26.3045754 15.2,27 L5,27 L5,25 L16.5,25 Z" id="Combined-Shape-2" fill="#334966"></path>
            <path d="M31,24 C24.9248678,24 20,28.9248678 20,35 C20,41.0751322 24.9248678,46 31,46 C37.0751322,46 42,41.0751322 42,35 C42,32.0826186 40.8410748,29.2847256 38.7781746,27.2218254 C36.7152744,25.1589252 33.9173814,24 31,24 Z M37,36 L30,36 L30,29 C30,28.4477153 30.4477153,28 31,28 C31.5522847,28 32,28.4477153 32,29 L32,34 L37,34 C37.5522847,34 38,34.4477153 38,35 C38,35.5522847 37.5522847,36 37,36 Z" id="Shape" fill="#00A4FF"></path>
            <path d="M31,48 C23.8202983,48 18,42.1797017 18,35 C18,27.8202983 23.8202983,22 31,22 C38.1797017,22 44,27.8202983 44,35 C44,42.1797017 38.1797017,48 31,48 Z M31,46 C37.0751322,46 42,41.0751322 42,35 C42,28.9248678 37.0751322,24 31,24 C24.9248678,24 20,28.9248678 20,35 C20,41.0751322 24.9248678,46 31,46 Z" id="Combined-Shape-3" fill="#334966"></path>
        </g>
    </g>
</svg>