<svg id="图层_1" data-name="图层 1" xmlns="http://www.w3.org/2000/svg" viewBox="0 0 48 48"><defs><style>.cls-1{fill:#00a4ff;}.cls-2{fill:#334966;}</style></defs><title>特性区_更懂行业产品_icon_48*48</title><path class="cls-1" d="M35.11,22.45c-.4.65-4.35.86-9.67-2.39s-7-6.85-6.55-7.51,4.35-.86,9.67,2.39,7,6.85,6.55,7.51m1.71,1c1.44-2.36-1.79-6.95-7.22-10.26s-11-4.08-12.42-1.72,1.79,7,7.22,10.26,11,4.08,12.42,1.72Z"/><path class="cls-2" d="M36,22a1,1,0,1,0,.61.21A1,1,0,0,0,36,22Z"/><path class="cls-2" d="M27,8c.77,0,3,3.27,3,9.5S27.77,27,27,27s-3-3.27-3-9.5S26.23,8,27,8m0-2c-2.76,0-5,5.15-5,11.5S24.24,29,27,29s5-5.15,5-11.5S29.76,6,27,6Z"/><circle class="cls-1" cx="27" cy="7" r="1"/><path class="cls-1" d="M35.11,12.55c.4.66-1.23,4.27-6.55,7.51s-9.27,3-9.67,2.39,1.23-4.27,6.55-7.51,9.27-3,9.67-2.39m1.71-1c-1.44-2.36-7-1.59-12.42,1.72s-8.66,7.9-7.22,10.26,7,1.59,12.42-1.72,8.66-7.9,7.22-10.26Z"/><path class="cls-2" d="M17,22a1,1,0,0,0-.61.21A1,1,0,0,0,17,24a1,1,0,0,0,.61-.21A1,1,0,0,0,17,22Z"/><path class="cls-2" d="M19.64,48a1,1,0,0,1-1-1V42.9a3.18,3.18,0,0,0-3.19-3.12H10.31a1,1,0,0,1-1-1V28l-4.5-.91A1,1,0,0,1,4,26.4a1,1,0,0,1,.26-1l5-5.05V17.09A17.59,17.59,0,0,1,27.17,0h.58C38.07.35,45,8.81,45,16.5a15.37,15.37,0,0,1-2.22,8.9l-.24.39c-3.24,5.18-5.72,9.32-5.72,11.57V43A1,1,0,0,1,36,44L19.87,48ZM11.31,37.74h4.14a5.2,5.2,0,0,1,5.19,5.15v2.79l14.15-3.5V37.36c0-2.82,2.39-6.84,6-12.67l.23-.37A13.4,13.4,0,0,0,43,16.56C43,9.76,36.84,2.35,27.72,2h-.63A15.58,15.58,0,0,0,11.33,17.12v3.64a1.06,1.06,0,0,1-.3.73l-4,4,3.46.71a1,1,0,0,1,.8,1Z"/></svg>