<?xml version="1.0" encoding="utf-8"?>
<!-- Generator: Adobe Illustrator 22.0.0, SVG Export Plug-In . SVG Version: 6.00 Build 0)  -->
<svg version="1.1" id="图层_1" xmlns="http://www.w3.org/2000/svg" xmlns:xlink="http://www.w3.org/1999/xlink" x="0px" y="0px"
	 viewBox="0 0 32 32" style="enable-background:new 0 0 32 32;" xml:space="preserve">
<style type="text/css">
	.st0{fill:#FFFFFF;}
</style>
<title>画板 1 副本 5</title>
<g>
	<g id="_编组_">
		<path class="st0" d="M27,8v9.2c-0.1,1.7-0.6,3.3-1.4,4.8c-1.8,3.4-5.1,5.7-9.6,6.9C5.3,26.3,5,17.6,5,17.2V4h24V2H3v15.2
			C3,17.2,3.1,28,16,31c12.9-3,13-13.8,13-13.8V8H27z"/>
	</g>
	<rect x="8" y="7" class="st0" width="16" height="2"/>
	<rect x="8" y="19" class="st0" width="16" height="2"/>
	<rect x="12" y="15" class="st0" width="8" height="2"/>
	<rect x="8" y="7" class="st0" width="2" height="14"/>
	<rect x="22" y="7" class="st0" width="2" height="14"/>
	<circle class="st0" cx="13" cy="12" r="1"/>
</g>
</svg>
