<?xml version="1.0" encoding="utf-8"?>
<!-- Generator: Adobe Illustrator 22.1.0, SVG Export Plug-In . SVG Version: 6.00 Build 0)  -->
<svg version="1.1" id="图层_1" xmlns="http://www.w3.org/2000/svg" xmlns:xlink="http://www.w3.org/1999/xlink" x="0px" y="0px"
	 width="830px" height="554.7px" viewBox="0 0 830 554.7" style="enable-background:new 0 0 830 554.7;" xml:space="preserve">
<style type="text/css">
	.st0{fill:#CEE3FF;}
	.st1{fill:#00A4FF;}
	.st2{fill:#878787;}
	.st3{fill:none;stroke:#878787;stroke-miterlimit:10;}
	.st4{opacity:0.6;}
	.st5{fill:#BBBBBB;}
	.st6{fill:#FFFFFF;}
	.st7{fill:#E5E5E5;}
	.st8{fill:#CB3333;fill-opacity:0;}
	.st9{fill:#444444;}
	.st10{enable-background:new    ;}
	.st11{fill:#EAEBEC;}
	.st12{fill:#FFFFFF;stroke:#E5E5E5;}
	.st13{fill:#F1F1F1;}
	.st14{fill:#FFFFFF;stroke:#E5E5E5;stroke-miterlimit:10;}
	.st15{fill:none;}
</style>
<rect x="442.7" y="1" class="st0" width="370.9" height="230.5"/>
<rect x="17.5" y="1" class="st0" width="395" height="230.5"/>
<g>
	<g>
		<path class="st1" d="M326.2,16.3h12.6v1h-6.7c-1.3,2.6-2.4,4.5-3.4,5.5c2.5-0.1,5-0.4,7.5-0.7c-0.5-0.9-1.1-1.8-1.7-2.8l0.8-0.5
			c1.3,1.9,2.3,3.6,3,5.1l-0.9,0.6c-0.2-0.5-0.5-1-0.7-1.5c-2.7,0.3-5.8,0.6-9.3,0.9l-0.3-1c0.1,0,0.1-0.1,0.2-0.1
			c0.9-0.7,2.1-2.5,3.6-5.5h-4.7V16.3L326.2,16.3z M327.6,12.4h10v1h-10V12.4z"/>
		<path class="st1" d="M345.3,11.6h1v4.3h5.2v1h-5.2v6h6.4v1h-12.5v-1h5L345.3,11.6L345.3,11.6z"/>
		<path class="st1" d="M359.6,11.6c-0.2,0.3-0.4,0.6-0.7,0.9h5.7v0.8c-0.8,1-1.9,1.9-3.1,2.7c1.5,0.6,3.3,1.1,5.4,1.4l-0.4,0.9
			c-2.3-0.4-4.3-0.9-5.9-1.7c-1.7,0.9-3.7,1.5-6,1.8l-0.4-0.9c2.1-0.3,3.9-0.8,5.5-1.5c-0.8-0.5-1.6-1.1-2.2-1.8
			c-0.6,0.5-1.2,1-2,1.5l-0.6-0.8c1.6-0.9,2.9-2.1,3.9-3.6L359.6,11.6z M364.9,18.3v6.1h-1v-0.6H357v0.6h-1v-6.1H364.9z M357.1,20.6
			h3v-1.5h-3V20.6z M357.1,22.9h3v-1.5h-3V22.9z M358,13.7c0.7,0.7,1.5,1.3,2.6,1.9c1.1-0.6,2.1-1.3,2.9-2.1h-5.2L358,13.7z
			 M361,19.1v1.5h3v-1.5H361z M361,22.9h3v-1.5h-3V22.9z"/>
		<path class="st1" d="M372.2,11.9c-0.4,1.1-0.8,2.2-1.4,3.2v9.3h-1v-7.7c-0.5,0.6-1,1.2-1.5,1.8l-0.3-1.1c1.5-1.7,2.6-3.7,3.3-5.9
			L372.2,11.9z M375.4,12.1c-0.8,2.4-1.9,4.2-3.3,5.5l-0.8-0.7c1.4-1.3,2.5-3,3.1-5.2L375.4,12.1z M372.9,18v-1h6.2
			c0,3-0.1,4.8-0.2,5.5c-0.1,1.1-0.7,1.6-1.7,1.6c-0.3,0-0.8,0-1.5,0l-0.2-1c0.8,0,1.3,0.1,1.6,0.1c0.5,0,0.8-0.4,0.9-1.1
			c0.1-0.4,0.1-1.8,0.2-4.1h-2.4c-0.3,1.6-0.6,2.8-1,3.7c-0.5,1-1.3,1.9-2.2,2.7l-0.7-0.8c0.9-0.7,1.5-1.4,2-2.3
			c0.4-0.8,0.7-1.9,0.9-3.2L372.9,18L372.9,18z M377.6,11.5c0.6,2,1.8,3.7,3.4,5l-0.7,0.8c-1.7-1.4-2.9-3.1-3.6-5.3L377.6,11.5z"/>
		<path class="st1" d="M383.2,12.1h11.1v1h-10.1v9.7h10.6v1h-11.5L383.2,12.1L383.2,12.1z M386.1,14.4c1.3,1,2.5,2,3.6,2.9
			c0.8-1,1.5-2.2,2.1-3.5l0.9,0.5c-0.6,1.4-1.4,2.7-2.2,3.7c1.1,1,2.1,2,3,3l-0.8,0.8c-0.8-1-1.8-2-2.9-3c-1.2,1.3-2.7,2.3-4.3,3
			l-0.6-0.9c1.5-0.6,2.9-1.6,4.1-2.8c-1.2-1-2.4-2-3.7-3L386.1,14.4z"/>
	</g>
</g>
<g>
	<g>
		<path class="st1" d="M38.6,11.4c0.3,0.5,0.5,1.1,0.8,1.7h5.1v1H34.1v3.1c-0.1,3.1-0.5,5.5-1.4,7.4l-0.8-0.7
			c0.8-1.6,1.2-3.8,1.2-6.6V13h5.2c-0.2-0.5-0.5-1-0.8-1.5L38.6,11.4z"/>
		<path class="st1" d="M48,15.2c-0.2,1.4-0.5,2.8-1,4.1L46.1,19c0.5-1.2,0.9-2.6,1.1-4L48,15.2z M49,11.7h1V16
			c0,3.8-0.9,6.6-2.7,8.4l-0.7-0.7c1.6-1.6,2.4-4.2,2.4-7.7V11.7z M50.9,15.3c0.6,1.1,1.1,2.3,1.5,3.5l-0.8,0.4
			c-0.4-1.3-0.9-2.4-1.5-3.5L50.9,15.3z M52.9,12.1h1V24h-1V12.1z M54.7,15.1c0.6,1.1,1.1,2.2,1.5,3.5L55.4,19
			c-0.4-1.3-1-2.5-1.5-3.5L54.7,15.1z M56.8,11.6h1v12.8h-1V11.6z"/>
		<path class="st1" d="M59.3,13h1.3l3.1,8.8l0,0l3.1-8.8h1.3l-3.7,10H63L59.3,13z"/>
		<path class="st1" d="M69.2,13h4.1c2.3,0,3.4,1,3.4,2.9c0,2-1.2,3-3.5,3h-2.9V23h-1.1V13L69.2,13z M70.3,14v3.9h2.9
			c0.8,0,1.4-0.2,1.8-0.5s0.6-0.8,0.6-1.5c0-0.7-0.2-1.2-0.6-1.5s-1-0.5-1.8-0.5L70.3,14L70.3,14z"/>
		<path class="st1" d="M85.3,13.7c0.8,0.6,1.2,1.4,1.3,2.4h-1.1c-0.1-0.7-0.5-1.3-1.1-1.7c-0.5-0.4-1.2-0.6-2-0.6
			c-1.2,0-2.1,0.4-2.7,1.2s-0.9,1.8-0.9,3c0,1.3,0.3,2.2,0.9,3s1.5,1.2,2.7,1.2c0.8,0,1.5-0.2,2-0.6c0.6-0.5,1-1.1,1.2-2h1.1
			c-0.2,1.2-0.7,2.1-1.6,2.7c-0.8,0.6-1.7,0.9-2.8,0.9c-1.5,0-2.7-0.5-3.6-1.5c-0.7-0.9-1.1-2.1-1.1-3.6s0.4-2.7,1.1-3.7
			c0.8-1.1,2-1.6,3.6-1.6C83.6,12.8,84.5,13.1,85.3,13.7z"/>
	</g>
</g>
<g>
	<polygon class="st2" points="87.8,216 82.8,211 77.8,216 	"/>
	<polygon class="st2" points="77.8,356 82.8,361 87.8,356 	"/>
	<line class="st3" x1="82.8" y1="213" x2="82.8" y2="360"/>
</g>
<g>
	<g>
		<path class="st1" d="M673.4,16.3H686v1h-6.7c-1.3,2.6-2.4,4.5-3.4,5.5c2.5-0.1,5-0.4,7.5-0.7c-0.5-0.9-1.1-1.8-1.7-2.8l0.8-0.5
			c1.3,1.9,2.3,3.6,3,5.1l-0.9,0.6c-0.2-0.5-0.5-1-0.7-1.5c-2.7,0.3-5.8,0.6-9.3,0.9l-0.3-1c0.1,0,0.1-0.1,0.2-0.1
			c0.9-0.7,2.1-2.5,3.6-5.5h-4.7L673.4,16.3L673.4,16.3L673.4,16.3z M674.8,12.4h10v1h-10V12.4z"/>
		<path class="st1" d="M692.5,11.6h1v4.3h5.2v1h-5.2v6h6.4v1h-12.5v-1h5L692.5,11.6L692.5,11.6z"/>
		<path class="st1" d="M705.7,11.7h1v11.1h2V11.7h1v11.1h4.2v1h-12.4v-1h4.2V11.7L705.7,11.7z M702.7,14.2c0.7,1.9,1.4,4.1,2,6.5
			l-1,0.3c-0.5-2.2-1.1-4.4-1.9-6.5L702.7,14.2z M713.5,14.5c-0.6,2.4-1.3,4.6-2.1,6.4l-0.9-0.3c0.8-1.7,1.5-3.8,2.1-6.3L713.5,14.5
			z"/>
		<path class="st1" d="M720.5,11.7c-0.1,0.3-0.3,0.7-0.5,1.1h6.1v0.8c-0.9,1-2,1.9-3.3,2.6c1.6,0.7,3.4,1.1,5.3,1.3l-0.5,0.9
			c-2.2-0.3-4.2-0.8-5.9-1.7c-1.7,0.8-3.7,1.4-6,1.7l-0.5-1c2-0.3,3.8-0.7,5.3-1.3c-0.8-0.4-1.5-1-2.2-1.6c-0.6,0.5-1.1,0.9-1.8,1.3
			l-0.6-0.8c1.7-1,2.8-2.1,3.4-3.5L720.5,11.7z M721.9,17.8c0,0.5,0,1-0.1,1.6h4.9c0,2.4-0.2,3.8-0.6,4.2c-0.4,0.5-1.1,0.7-2.1,0.7
			c-0.2,0-0.8,0-1.6-0.1l-0.3-0.9l1.7,0.1c0.8,0,1.4-0.2,1.6-0.5c0.2-0.3,0.3-1.2,0.4-2.6h-4.1c-0.1,0.3-0.3,0.7-0.4,1.1
			c-0.7,1.3-2.4,2.3-4.9,3.1l-0.7-0.8c2.3-0.7,3.8-1.5,4.5-2.5c0.2-0.3,0.3-0.6,0.4-0.8h-4.2v-0.9h4.5c0.1-0.5,0.2-1,0.2-1.6
			C720.9,17.8,721.9,17.8,721.9,17.8z M724.7,13.7h-5.3l-0.2,0.2c0.8,0.7,1.6,1.3,2.6,1.8C722.8,15.1,723.8,14.5,724.7,13.7z"/>
		<path class="st1" d="M730.8,16.1l-0.2,2.3h3c0,2.3-0.1,3.9-0.2,4.6c-0.2,0.8-0.9,1.2-2.1,1.3c-0.2,0-0.5,0-1-0.1l-0.3-0.9
			c0.4,0,0.8,0.1,1,0.1c0.8,0,1.3-0.3,1.4-0.8c0.1-0.5,0.2-1.6,0.2-3.3h-3.1l0.4-4h2.5V13h-2.7v-0.9h3.7V16L730.8,16.1L730.8,16.1z
			 M734.6,13.8h4.1c0.4-0.7,0.8-1.5,1.1-2.4l1,0.3c-0.3,0.7-0.7,1.4-1.1,2h1.8v5.6h-3v1.4h3.6v0.9h-3.6v2.7h-1v-2.7H734v-0.9h3.5
			v-1.4h-2.9V13.8L734.6,13.8z M736.2,11.5c0.4,0.6,0.8,1.2,1.1,1.8l-0.9,0.4c-0.3-0.7-0.7-1.3-1.1-1.9L736.2,11.5z M735.5,16.2h2
			v-1.6h-2V16.2z M737.5,18.6v-1.5h-2v1.5H737.5z M738.5,14.7v1.6h2.1v-1.6C740.6,14.7,738.5,14.7,738.5,14.7z M740.6,18.6v-1.5
			h-2.1v1.5H740.6z"/>
		<path class="st1" d="M744.5,14.3c0,1.4-0.2,2.7-0.5,4l-0.8-0.2c0.3-1.2,0.5-2.5,0.5-3.8L744.5,14.3z M745.2,11.6h1v12.7h-1V11.6z
			 M747.2,14c0.3,0.7,0.6,1.5,0.8,2.4c0.5-1.2,0.8-2.5,0.8-3.9l0.9,0.1c0,0.6-0.1,1.1-0.2,1.7h2v-2.6h1v2.6h3.1v1h-2.9v3.4h2.8v1
			h-2.8V23h3.4v1h-8.5v-1h4v-3.4h-3.2v-1h3.2v-3.4h-2.2c-0.3,1-0.6,2-1.1,2.8l-0.8-0.7c0.2-0.3,0.3-0.6,0.4-0.9l-0.7,0.2
			c-0.2-0.9-0.5-1.7-0.8-2.5L747.2,14z"/>
		<path class="st1" d="M762,18.1c-0.3,0.1-0.8,0.4-1.6,0.8V23c0,0.9-0.4,1.3-1.2,1.3h-1.3l-0.2-1c0.5,0,0.9,0.1,1.1,0.1
			c0.4,0,0.6-0.2,0.6-0.6v-3.4c-0.6,0.2-1.3,0.5-1.9,0.7l-0.3-1c0.8-0.2,1.5-0.4,2.2-0.7v-3.2h-1.9v-1h1.9v-2.5h1v2.5h1.6v1h-1.6V18
			c0.6-0.3,1.1-0.5,1.6-0.8L762,18.1L762,18.1z M766.4,11.5c0.3,0.6,0.6,1.3,0.8,2h2.9v1h-6.3v3.1c-0.1,2.8-0.7,5.1-2.1,6.8
			l-0.8-0.7c1.2-1.5,1.8-3.5,1.8-6.1v-4.1h3.4c-0.2-0.7-0.5-1.3-0.8-1.8L766.4,11.5z"/>
		<path class="st1" d="M773.4,20.2c-0.3,1.6-0.7,3-1.4,4.2l-0.8-0.7c1-1.8,1.4-4.1,1.5-6.8v-4.7h10.4v3.4h-1.9V17h2.2v0.9h-2.2v1.5
			h2.7v0.9h-4.5c0.3,0.6,0.8,1.2,1.4,1.7c0.6-0.3,1.2-0.9,1.8-1.6l0.7,0.7c-0.5,0.6-1.1,1.1-1.7,1.5c0.8,0.5,1.7,0.9,2.8,1.1l-0.5,1
			c-2.6-0.6-4.4-2.1-5.5-4.3h-1.9v3.1c0.8-0.2,1.6-0.5,2.4-0.8l0.2,0.9c-1,0.4-2.3,0.7-3.8,1l-0.3-0.9c0.3-0.1,0.5-0.4,0.5-0.7v-2.6
			L773.4,20.2L773.4,20.2z M774.3,16.9h2v-1.4h-2.6v1.4c0,0.8,0,1.6-0.1,2.4h2.8v-1.5h-2L774.3,16.9L774.3,16.9z M782,13h-8.3v1.5
			h8.4V13H782z M780.1,15.5h-2.8v1.4h2.8V15.5z M777.3,19.2h2.8v-1.5h-2.8V19.2z"/>
		<path class="st1" d="M786.4,12.1h11.1v1h-10.1v9.7H798v1h-11.5L786.4,12.1L786.4,12.1z M789.3,14.4c1.3,1,2.5,2,3.6,2.9
			c0.8-1,1.5-2.2,2.1-3.5l0.9,0.5c-0.6,1.4-1.4,2.7-2.2,3.7c1.1,1,2.1,2,3,3l-0.8,0.8c-0.8-1-1.8-2-2.9-3c-1.2,1.3-2.7,2.3-4.3,3
			l-0.6-0.9c1.5-0.6,2.9-1.6,4.1-2.8c-1.2-1-2.4-2-3.7-3L789.3,14.4z"/>
	</g>
</g>
<g>
	<g>
		<line class="st3" x1="315" y1="307" x2="352" y2="307"/>
	</g>
	<line class="st3" x1="315" y1="210" x2="315" y2="307"/>
	<g>
		<line class="st3" x1="504.5" y1="307" x2="467" y2="307"/>
	</g>
	<line class="st3" x1="504.5" y1="210" x2="504.5" y2="307"/>
</g>
<g class="st4">
	<rect x="283.8" y="162" class="st5" width="114" height="50"/>
</g>
<g>
	<rect x="282.3" y="160.5" class="st6" width="113" height="49"/>
	<path class="st7" d="M394.8,161v48h-112v-48H394.8 M395.8,160h-114v50h114V160L395.8,160z"/>
</g>
<g>
	<g class="st4">
		<rect x="267.5" y="72" class="st5" width="129" height="50"/>
	</g>
	<g>
		<rect x="266" y="70.5" class="st6" width="128" height="49"/>
		<path class="st7" d="M393.5,71v48h-127V71H393.5 M394.5,70h-129v50h129V70L394.5,70z"/>
	</g>
	<g class="st4">
		<rect x="265.5" y="70" class="st5" width="125.9" height="47"/>
	</g>
	<g>
		<rect x="261" y="65.5" class="st6" width="128" height="49"/>
		<path class="st7" d="M388.5,66v48h-127V66H388.5 M389.5,65h-129v50h129V65L389.5,65z"/>
	</g>
	<g class="st4">
		<rect x="260.5" y="65" class="st5" width="126" height="47"/>
	</g>
	<g>
		<rect x="255.9" y="60.5" class="st6" width="128" height="49"/>
		<path class="st7" d="M383.5,61v48h-127V61H383.5 M384.5,60h-129v50h129V60L384.5,60z"/>
	</g>
	<rect x="275.5" y="69" class="st8" width="32" height="32"/>
	<g>
		<path class="st9" d="M318.5,80.5c0.8,0.6,1.2,1.4,1.3,2.4h-1.1c-0.1-0.7-0.5-1.3-1.1-1.7c-0.5-0.4-1.2-0.6-2-0.6
			c-1.2,0-2.1,0.4-2.7,1.2c-0.6,0.8-0.9,1.8-0.9,3c0,1.3,0.3,2.3,0.9,3c0.6,0.8,1.5,1.2,2.7,1.2c0.8,0,1.5-0.2,2-0.6
			c0.6-0.5,1-1.1,1.2-2h1.1c-0.2,1.2-0.7,2.1-1.6,2.7c-0.8,0.6-1.7,0.9-2.8,0.9c-1.5,0-2.7-0.5-3.6-1.5c-0.7-0.9-1.1-2.1-1.1-3.6
			s0.4-2.7,1.1-3.7c0.8-1.1,2-1.6,3.6-1.6C316.9,79.7,317.9,80,318.5,80.5z"/>
		<path class="st9" d="M320.8,79.9h1.3l3.1,8.8l0,0l3.1-8.8h1.3l-3.7,10h-1.4L320.8,79.9z"/>
		<path class="st9" d="M330.5,79.9h1.4l3.7,8.5l0,0l3.7-8.5h1.4v10h-1.1v-8l0,0l-3.5,8h-1l-3.5-8l0,0v8h-1.1V79.9L330.5,79.9z"/>
		<path class="st9" d="M344.3,81.9c-0.3,0.4-0.7,0.8-1.2,1.2l-0.6-0.8c1.2-1.1,2.2-2.4,2.8-3.9l0.9,0.2c-0.1,0.3-0.3,0.7-0.5,1.1h3
			c-0.2-0.5-0.4-0.9-0.6-1.2l1-0.2c0.2,0.4,0.4,0.8,0.6,1.4h4.5v0.8h-4.5v1h3.9v0.8h-3.9v0.9h3.9V84h-3.9v1h4.7v0.9H344L344.3,81.9
			L344.3,81.9z M343,87.9V87h5.6v-0.7h1V87h5.5v0.9h-4.2c1,0.9,2.4,1.6,4.4,2.2l-0.4,0.9c-2.3-0.8-4-1.8-4.9-3h-0.5v3.4h-1V88h-0.3
			c-0.9,1.2-2.5,2.2-4.9,3.1l-0.5-0.9c2.1-0.7,3.6-1.4,4.5-2.2C347.3,87.9,343,87.9,343,87.9z M348.9,81.5v-1h-3.6l-0.1,0.1v0.8
			L348.9,81.5L348.9,81.5z M348.9,83.2v-0.9h-3.6v0.9H348.9z M348.9,85v-1h-3.6v1H348.9z"/>
		<path class="st9" d="M362,84.8h-2.9c-0.1,0.5-0.3,0.9-0.4,1.4h3.7v5h-0.9v-0.8h-2.2v0.8h-0.9V87c-0.4,0.8-0.8,1.5-1.4,2.1
			l-0.5-0.8c0.8-0.9,1.3-2,1.7-3.5h-1.1v-0.9h1.3c0.1-0.6,0.2-1.1,0.2-1.6h-1.9v-0.9h2c0-0.7,0.1-1.3,0.1-1.6h-1.6V79h4.8v2.5h0.8
			v0.9H362V84.8L362,84.8z M359.3,89.4h2.2V87h-2.2V89.4z M359.5,82.4c0,0.4-0.1,0.9-0.2,1.6h1.8v-1.6H359.5z M359.8,79.8
			c0,0.4,0,1-0.1,1.6h1.4v-1.6H359.8z M365.6,82.1h-2.5v-1h1.7c-0.4-0.8-0.8-1.6-1.2-2.2l0.9-0.4c0.4,0.7,0.8,1.4,1.2,2.2l-0.8,0.4
			h1.6c0.4-0.9,0.8-1.8,1-2.7l1,0.3c-0.3,0.9-0.6,1.7-1,2.4h1.6v1h-2.3v2h2V85h-2v2h2.6v1h-2.6v3.2h-1V88h-2.6v-1h2.6v-2h-2.4v-0.9
			h2.2L365.6,82.1L365.6,82.1z"/>
	</g>
	<g id="XMLID_258_">
		<g>
			<path class="st1" d="M288.5,98c-7.2,0-13-5.8-13-13s5.8-13,13-13c6.5,0,11.9,4.8,12.8,11h2c-1-7.3-7.2-13-14.9-13
				c-8.3,0-15,6.7-15,15s6.7,15,15,15c7.6,0,13.9-5.7,14.9-13h-2C300.4,93.2,295,98,288.5,98z M295.5,81l-7-4l-7,4v8l3.2,1.8
				c0.2-0.7,0.6-1.2,1-1.7l-2.2-1.3v-3.7l5,2.9l5-2.9v3.7l-4.1,2.4c-0.3-0.1-0.6-0.2-0.9-0.2c-1.1,0-2,0.9-2,2s0.9,2,2,2s2-0.9,2-2
				v-0.1l5-2.9V81z M288.5,84.7l-4.7-2.7l4.7-2.7l4.7,2.7L288.5,84.7z"/>
		</g>
	</g>
</g>
<g>
	<g class="st4">
		<rect x="38" y="37" class="st5" width="114" height="50"/>
	</g>
	<g>
		<rect x="36.5" y="35.5" class="st6" width="113" height="49"/>
		<path class="st7" d="M148.9,36v48h-112V36H148.9 M149.9,35h-114v50h114V35L149.9,35z"/>
	</g>
	<g>
		<path class="st9" d="M106.1,55.5c0.8,0.6,1.2,1.4,1.3,2.4h-1.1c-0.1-0.7-0.5-1.3-1.1-1.7c-0.5-0.4-1.2-0.6-2-0.6
			c-1.2,0-2.1,0.4-2.7,1.2s-0.9,1.8-0.9,3c0,1.3,0.3,2.3,0.9,3c0.6,0.8,1.5,1.2,2.7,1.2c0.8,0,1.5-0.2,2-0.6c0.6-0.5,1-1.1,1.2-2
			h1.1c-0.2,1.2-0.7,2.1-1.6,2.7c-0.8,0.6-1.7,0.9-2.8,0.9c-1.6,0-2.7-0.5-3.6-1.5c-0.7-0.9-1.1-2.1-1.1-3.6s0.4-2.7,1.1-3.7
			c0.8-1.1,2-1.6,3.6-1.6C104.3,54.7,105.3,55,106.1,55.5z"/>
		<path class="st9" d="M109.2,54.9h3.6c1.6,0,2.8,0.5,3.6,1.4c0.7,0.8,1.1,2.1,1.1,3.6s-0.4,2.7-1.2,3.6c-0.8,0.9-2,1.4-3.6,1.4
			h-3.5V54.9L109.2,54.9z M110.3,55.9v8h2.1c1.3,0,2.3-0.3,2.9-1s0.9-1.7,0.9-3s-0.3-2.3-0.9-3s-1.6-1-2.9-1H110.3L110.3,55.9z"/>
		<path class="st9" d="M119.1,54.9h4.5c0.9,0,1.7,0.2,2.2,0.7c0.5,0.4,0.8,1.1,0.8,1.8c0,0.6-0.1,1-0.4,1.5
			c-0.3,0.4-0.7,0.6-1.2,0.8c0.6,0.1,1.2,0.4,1.5,0.8s0.6,1,0.6,1.6c0,1-0.3,1.7-1,2.2c-0.6,0.4-1.4,0.6-2.4,0.6h-4.4L119.1,54.9
			L119.1,54.9L119.1,54.9z M120.2,55.8v3.4h3c0.7,0,1.2-0.1,1.6-0.4c0.4-0.3,0.6-0.7,0.6-1.3s-0.2-1-0.5-1.3
			c-0.4-0.3-0.9-0.4-1.6-0.4H120.2L120.2,55.8z M120.2,60.2v3.7h3.2c0.7,0,1.2-0.1,1.7-0.4c0.5-0.3,0.7-0.8,0.7-1.4
			c0-0.6-0.2-1.1-0.6-1.4c-0.4-0.3-1-0.4-1.8-0.4L120.2,60.2L120.2,60.2z"/>
	</g>
	<g id="XMLID_274_">
		<g>
			<path class="st1" d="M60,69h-2c0,2.5,4.4,4.6,10.2,4.9c-0.4-0.6-0.7-1.3-1-2.1C63,71.5,60,70.4,60,69z M70.6,63
				c-0.2,0-0.4,0-0.6,0c-5.5,0-10-1.3-10-3v-6.2c2.1,1.3,5.8,2.2,10,2.2s7.9-0.9,10-2.2v4.5c0.7,0.2,1.4,0.5,2,0.8V51
				c0-2.8-5.4-5-12-5s-12,2.2-12,5v18h2v-6.2c2,1.3,5.3,2.1,9.2,2.2c0.3-0.3,0.7-0.6,1.1-0.9C70.3,63.7,70.4,63.4,70.6,63z M69.9,48
				c5.5,0,10,1.3,10,3s-4.5,3-10,3s-10-1.3-10-3S64.4,48,69.9,48z M82.9,66.1L82.9,66.1c0-2.9-2.2-5.1-5-5.1s-5,2.2-5,5v0.1
				c-1.7,0.4-3,2-3,3.9c0,2.2,1.8,4,4,4h8c2.2,0,4-1.8,4-4C85.9,68.1,84.7,66.6,82.9,66.1z M81.9,72h-8c-1.1,0-2-0.9-2-2
				c0-0.9,0.6-1.7,1.5-1.9l1.5-0.4v-1.6c0-0.1,0-0.1,0-0.2c0-1.6,1.4-2.9,3-2.9s2.9,1.3,3,2.9c0,0.1,0,0.1,0,0.2v1.6l1.5,0.4
				c0.9,0.2,1.5,1,1.5,1.9C83.9,71.1,83.1,72,81.9,72z"/>
		</g>
	</g>
</g>
<g>
	<g class="st4">
		<rect x="34.3" y="162" class="st5" width="114" height="50"/>
	</g>
	<g>
		<rect x="32.8" y="160.5" class="st6" width="113" height="49"/>
		<path class="st7" d="M145.3,161v48h-112v-48H145.3 M146.3,160h-114v50h114V160L146.3,160z"/>
	</g>
</g>
<g>
	<g class="st4">
		<rect x="175.4" y="162" class="st5" width="80.5" height="50"/>
	</g>
	<g>
		<rect x="174.4" y="160.5" class="st6" width="79.8" height="49"/>
		<path class="st7" d="M253.9,161v48h-79.1v-48H253.9 M254.6,160h-80.5v50h80.5V160L254.6,160z"/>
	</g>
</g>
<g>
	<path class="st9" d="M311.5,182.7h4c0.1-0.5,0.3-1,0.4-1.7h-3.5v-1h3.7c0.1-0.4,0.2-0.9,0.4-1.7l1,0.1l-0.3,1.6h6v0.9H317
		c-0.1,0.6-0.3,1.2-0.4,1.7h7.5v1h-7.8c-0.1,0.4-0.3,1.1-0.6,1.9h6.7v0.9c-0.7,1.1-1.7,2.1-3.2,3.1c0.8,0.3,1.6,0.6,2.4,1l-0.6,0.9
		c-2.1-1-4.2-1.8-6.5-2.4l0.5-0.8c0.9,0.3,1.9,0.6,3,0.9c1.3-0.8,2.3-1.7,3.1-2.7h-6.9c0.4-1,0.7-1.9,1-2.8h-3.7V182.7L311.5,182.7z
		"/>
	<path class="st9" d="M328.8,178.7c-0.7,1.8-1.4,3.3-2.2,4.4c0.5,0,1.2-0.1,1.9-0.2l0.8-1.6l0.9,0.3c-1.2,2.3-2.2,4-3.1,5
		c1-0.2,2-0.5,3-0.8v0.9c-1.5,0.5-2.9,0.8-4.2,1l-0.3-0.9c0.2-0.1,0.3-0.2,0.5-0.3c0.5-0.5,1.1-1.5,1.9-2.8
		c-0.5,0.1-1.3,0.2-2.3,0.3l-0.2-0.9c0.1-0.1,0.3-0.2,0.4-0.4c0.8-1.3,1.4-2.8,2-4.4L328.8,178.7z M330.4,189.4
		c-1.4,0.5-3,1-4.7,1.3l-0.1-1c1.8-0.3,3.4-0.7,4.8-1.3L330.4,189.4L330.4,189.4z M337.1,180.9l0.1,0.9l-3.6,0.5
		c0,0.7,0.1,1.3,0.1,1.9l3.7-0.6l0.2,1l-3.8,0.6c0,0.2,0.1,0.5,0.1,0.7c0.1,0.7,0.3,1.3,0.5,1.9c0.8-0.7,1.4-1.5,2-2.4l0.8,0.5
		c-0.8,1.1-1.6,2-2.4,2.8l0.2,0.3c0.5,0.7,0.9,1,1.2,1c0.4,0,0.7-0.8,0.9-2.3l0.9,0.6c-0.4,1.9-1,2.8-1.7,2.8s-1.3-0.5-1.9-1.3
		c-0.1-0.2-0.2-0.4-0.3-0.5c-1,0.8-2.2,1.3-3.3,1.7l-0.6-0.8c1.3-0.4,2.5-1,3.5-1.8c-0.3-0.6-0.5-1.3-0.6-2
		c-0.1-0.3-0.1-0.6-0.2-1.1l-2.5,0.4l-0.1-1l2.5-0.4c-0.1-0.6-0.1-1.2-0.1-1.9l-2,0.3l-0.2-0.9l2.1-0.3v-3.1h1v3L337.1,180.9z
		 M335.1,178.4c0.7,0.7,1.3,1.3,1.7,1.7l-0.8,0.5c-0.4-0.5-0.9-1.1-1.7-1.8L335.1,178.4z"/>
	<path class="st9" d="M348.6,191.2l-0.3-1h1.3c0.4,0,0.6-0.2,0.6-0.6V180H341v11.3h-1V179h11.2v10.9c0,0.9-0.4,1.3-1.2,1.3H348.6
		L348.6,191.2L348.6,191.2z M345.4,188.1c-0.4-0.6-0.8-1.3-1.3-2c-0.5,1.4-1.1,2.5-1.8,3.5l-0.6-0.8c0.7-1,1.3-2.3,1.8-3.7
		c-0.6-0.9-1.3-1.7-2-2.4l0.6-0.6c0.6,0.6,1.1,1.3,1.7,2c0.3-1,0.5-2.1,0.7-3.2l0.9,0.2c-0.2,1.4-0.5,2.8-0.9,3.9
		c0.6,0.8,1.2,1.6,1.7,2.4L345.4,188.1z M349.5,188.7c-0.4-0.7-0.9-1.5-1.4-2.3c-0.6,1.4-1.2,2.5-2,3.5l-0.6-0.8
		c0.8-1.1,1.4-2.3,2-3.7c-0.7-1-1.3-1.9-1.9-2.6l0.6-0.6c0.6,0.6,1.1,1.4,1.7,2.1c0.3-1,0.5-2.1,0.7-3.4l1,0.2c-0.3,1.5-0.6,3-1,4.2
		c0.6,0.9,1.2,1.8,1.7,2.7L349.5,188.7z"/>
	<path class="st9" d="M363.4,178.6c-0.3,1-0.8,1.9-1.3,2.7h2.9v1h-4.7v0.7c0,0.8-0.1,1.4-0.2,1.9h5.7v1h-5.1
		c0.7,1.9,2.5,3.4,5.4,4.4l-0.6,0.9c-3.1-1.2-5-2.9-5.7-5.1c-0.3,0.8-0.6,1.5-1.1,2.1c-1,1.2-2.5,2.2-4.7,2.9l-0.5-0.9
		c2.1-0.7,3.6-1.6,4.5-2.7c0.3-0.5,0.6-1.1,0.8-1.7h-5v-1h5.3c0.1-0.6,0.2-1.3,0.2-1.9v-0.7h-4.7v-1h6.4c0.5-0.8,1-1.8,1.4-3
		L363.4,178.6z M357,178.5c0.6,0.8,1.1,1.5,1.6,2.4l-0.9,0.5c-0.5-0.9-1.1-1.7-1.6-2.4L357,178.5z"/>
</g>
<g>
	<g class="st4">
		<rect x="38" y="96" class="st5" width="114" height="50"/>
	</g>
	<g>
		<rect x="36.5" y="94.5" class="st6" width="113" height="49"/>
		<path class="st7" d="M148.9,95v48h-112V95H148.9 M149.9,94h-114v50h114V94L149.9,94z"/>
	</g>
	<g>
		<path class="st9" d="M106.1,114.5c0.8,0.6,1.2,1.4,1.3,2.4h-1.1c-0.1-0.7-0.5-1.3-1.1-1.7c-0.5-0.4-1.2-0.6-2-0.6
			c-1.2,0-2.1,0.4-2.7,1.2c-0.6,0.8-0.9,1.8-0.9,3c0,1.3,0.3,2.3,0.9,3c0.6,0.8,1.5,1.2,2.7,1.2c0.8,0,1.5-0.2,2-0.6
			c0.6-0.5,1-1.1,1.2-2h1.1c-0.2,1.2-0.7,2.1-1.6,2.7c-0.8,0.6-1.7,0.9-2.8,0.9c-1.6,0-2.7-0.5-3.6-1.5c-0.7-0.9-1.1-2.1-1.1-3.6
			s0.4-2.7,1.1-3.7c0.8-1.1,2-1.6,3.6-1.6C104.3,113.7,105.3,114,106.1,114.5z"/>
		<path class="st9" d="M109.2,113.9h3.6c1.6,0,2.8,0.5,3.6,1.4c0.7,0.9,1.1,2.1,1.1,3.6s-0.4,2.7-1.2,3.6s-2,1.4-3.6,1.4h-3.5V113.9
			L109.2,113.9z M110.3,114.9v8h2.1c1.3,0,2.3-0.3,2.9-1s0.9-1.7,0.9-3s-0.3-2.3-0.9-3s-1.6-1-2.9-1H110.3L110.3,114.9z"/>
		<path class="st9" d="M119.1,113.9h4.5c0.9,0,1.7,0.2,2.2,0.7c0.5,0.4,0.8,1.1,0.8,1.8c0,0.6-0.1,1-0.4,1.5
			c-0.3,0.4-0.7,0.6-1.2,0.8c0.6,0.1,1.2,0.4,1.5,0.8s0.6,1,0.6,1.6c0,1-0.3,1.7-1,2.2c-0.6,0.4-1.4,0.6-2.4,0.6h-4.4L119.1,113.9
			L119.1,113.9z M120.2,114.8v3.4h3c0.7,0,1.2-0.1,1.6-0.4s0.6-0.7,0.6-1.3c0-0.6-0.2-1-0.5-1.3c-0.4-0.3-0.9-0.4-1.6-0.4
			L120.2,114.8L120.2,114.8L120.2,114.8z M120.2,119.2v3.7h3.2c0.7,0,1.2-0.1,1.7-0.4s0.7-0.8,0.7-1.4s-0.2-1.1-0.6-1.4
			s-1-0.4-1.8-0.4L120.2,119.2L120.2,119.2z"/>
	</g>
	<g id="XMLID_748_">
		<g>
			<path class="st1" d="M60,128h-2c0,2.5,4.4,4.6,10.2,4.9c-0.4-0.6-0.7-1.3-1-2.1C63,130.5,60,129.4,60,128z M70.6,122
				c-0.2,0-0.4,0-0.6,0c-5.5,0-10-1.3-10-3v-6.2c2.1,1.3,5.8,2.2,10,2.2s7.9-0.9,10-2.2v4.5c0.7,0.2,1.4,0.5,2,0.8V110
				c0-2.8-5.4-5-12-5s-12,2.2-12,5v18h2v-6.2c2,1.3,5.3,2.1,9.2,2.2c0.3-0.3,0.7-0.6,1.1-0.9C70.3,122.7,70.4,122.4,70.6,122z
				 M69.9,107c5.5,0,10,1.3,10,3s-4.5,3-10,3s-10-1.3-10-3S64.4,107,69.9,107z M82.9,125.1L82.9,125.1c0-2.9-2.2-5.1-5-5.1
				s-5,2.2-5,5v0.1c-1.7,0.4-3,2-3,3.9c0,2.2,1.8,4,4,4h8c2.2,0,4-1.8,4-4C85.9,127.1,84.7,125.6,82.9,125.1z M81.9,131h-8
				c-1.1,0-2-0.9-2-2c0-0.9,0.6-1.7,1.5-1.9l1.5-0.4v-1.6c0-0.1,0-0.1,0-0.2c0-1.6,1.4-2.9,3-2.9s2.9,1.3,3,2.9c0,0.1,0,0.1,0,0.2
				v1.6l1.5,0.4c0.9,0.2,1.5,1,1.5,1.9C83.9,130.1,83.1,131,81.9,131z"/>
		</g>
	</g>
</g>
<polygon class="st2" points="249.6,87.1 254.6,82.1 249.6,77.1 "/>
<line class="st3" x1="250.4" y1="82.1" x2="211.6" y2="82.1"/>
<polygon class="st2" points="160.9,49 155.9,54 160.9,59 "/>
<line class="st3" x1="211.1" y1="54" x2="160.9" y2="54"/>
<polygon class="st2" points="160.9,113 155.9,118 160.9,123 "/>
<polygon class="st2" points="217.4,154.8 222.4,159.8 227.4,154.8 "/>
<polygon class="st2" points="169.1,191 174.1,186 169.1,181 "/>
<line class="st3" x1="172.1" y1="186" x2="147.6" y2="186"/>
<polygon class="st2" points="151.4,181 146.4,186 151.4,191 "/>
<polygon class="st2" points="278,191 283,186 278,181 "/>
<line class="st3" x1="281" y1="186" x2="256.5" y2="186"/>
<polygon class="st2" points="260.5,181 255.4,186 260.5,191 "/>
<line class="st3" x1="211.1" y1="118" x2="160.9" y2="118"/>
<line class="st3" x1="211.1" y1="118" x2="211.1" y2="54"/>
<polygon class="st2" points="249.6,98 254.6,93 249.6,88 "/>
<line class="st3" x1="252.6" y1="93" x2="221.8" y2="93"/>
<line class="st3" x1="222.4" y1="158.2" x2="222.4" y2="93.2"/>
<g class="st10">
	<path class="st9" d="M195.3,179.3h4.3v4.4h-1.4v2.3h1.5v1h-1.5v2.6c0.8-0.2,1.3-0.4,1.8-0.6v1c-1.4,0.5-3.1,1-5.1,1.5l-0.3-1
		l0.7-0.2v-5.1h0.9v4.9l1-0.3v-6.1h-2v-4.4H195.3z M198.6,182.8v-2.5h-2.4v2.5H198.6z M203.2,178.9c-0.1,0.3-0.2,0.7-0.4,1h3.5v0.7
		c-0.5,1.2-1.2,2.2-2.1,3.1c0.9,0.8,2,1.3,3.3,1.8l-0.6,0.8c-1.4-0.4-2.5-1.1-3.5-1.9c-1,0.8-2.1,1.4-3.4,2l-0.6-0.8
		c1.3-0.5,2.4-1.1,3.3-1.9c-0.5-0.5-0.9-1.1-1.3-1.8c-0.3,0.4-0.7,0.8-1.2,1.2l-0.6-0.8c1.2-1,2.1-2.2,2.5-3.6L203.2,178.9z
		 M206.3,186.3v5.2h-1v-0.6h-3.5v0.6h-1v-5.2H206.3z M201.8,190h3.5v-2.7h-3.5V190z M202.1,181.1c0.4,0.8,0.9,1.4,1.4,1.9
		c0.7-0.7,1.3-1.5,1.7-2.3h-2.9L202.1,181.1z"/>
	<path class="st9" d="M220.2,181v10.5h-1v-0.9h-8.4v0.9h-1V181h4.7v-2.2h1v2.2H220.2z M210.8,185.2h3.7V182h-3.7V185.2z
		 M210.8,189.6h3.7v-3.5h-3.7V189.6z M215.5,181.9v3.2h3.7v-3.2H215.5z M215.5,189.6h3.7v-3.5h-3.7V189.6z"/>
	<path class="st9" d="M223.5,179.9h5v-1.2h1v1.2h5v0.9h-5v1.3h4.2v0.9h-4.2v1.3h5.5v0.9h-5.1c0.4,0.9,0.8,1.7,1.4,2.4
		c0.8-0.4,1.5-0.9,2.3-1.7l0.7,0.7c-0.7,0.7-1.5,1.3-2.4,1.7c0.9,1,2,1.7,3.3,2.2l-0.5,0.9c-2.6-1.1-4.5-3.1-5.7-6.1h-0.5
		c-0.5,0.7-1.1,1.3-1.9,1.9v3c1-0.3,2-0.6,3.1-1.1l0.2,0.9c-1.5,0.6-2.9,1.1-4.4,1.4l-0.3-0.9c0.3-0.1,0.4-0.3,0.4-0.5v-2
		c-0.8,0.5-1.6,0.9-2.5,1.3l-0.5-0.9c2.2-0.8,3.9-1.8,4.9-3H223v-0.9h5.5v-1.3h-4.2v-0.9h4.2V181h-5V179.9z"/>
</g>
<g class="st10">
	<path class="st9" d="M62.3,180.2h1.3l3.1,8.8l0,0l3.1-8.8h1.3l-3.7,10H66L62.3,180.2z"/>
	<path class="st9" d="M72.2,180.2h4.1c2.3,0,3.4,1,3.4,2.9c0,2-1.2,3-3.5,3h-2.9v4.1h-1.1V180.2z M73.4,181.2v3.9h2.9
		c0.8,0,1.4-0.2,1.8-0.5s0.6-0.8,0.6-1.5s-0.2-1.2-0.6-1.5s-1-0.5-1.8-0.5h-2.9V181.2z"/>
	<path class="st9" d="M81.2,180.2h1.2l5.7,8.1l0,0v-8.1h1.1v10H88l-5.7-8.2l0,0v8.2h-1.1V180.2z"/>
	<path class="st9" d="M100.2,191.5l-0.3-1h1.3c0.4,0,0.6-0.2,0.6-0.6v-9.7h-9.2v11.3h-1v-12.2h11.2v10.9c0,0.9-0.4,1.3-1.2,1.3
		H100.2z M96.8,188.4c-0.4-0.6-0.8-1.3-1.3-2c-0.5,1.4-1.1,2.5-1.8,3.5l-0.6-0.8c0.7-1,1.3-2.3,1.8-3.7c-0.6-0.9-1.3-1.7-2-2.4
		l0.6-0.6c0.6,0.6,1.1,1.3,1.7,2c0.3-1,0.5-2.1,0.7-3.2l0.9,0.2c-0.2,1.4-0.5,2.8-0.9,3.9c0.6,0.8,1.2,1.6,1.7,2.4L96.8,188.4z
		 M100.9,189c-0.4-0.7-0.9-1.5-1.4-2.3c-0.6,1.4-1.2,2.5-2,3.5l-0.6-0.8c0.8-1.1,1.4-2.3,2-3.7c-0.7-1-1.3-1.9-1.9-2.6l0.6-0.6
		c0.6,0.6,1.1,1.3,1.7,2.1c0.3-1,0.5-2.1,0.7-3.4l1,0.2c-0.3,1.5-0.6,3-1,4.2c0.6,0.9,1.2,1.8,1.7,2.7L100.9,189z"/>
	<path class="st9" d="M114.8,178.9c-0.3,1-0.8,1.9-1.3,2.7h2.9v1h-4.7v0.7c0,0.8-0.1,1.4-0.2,1.9h5.7v1h-5.1
		c0.7,1.9,2.5,3.4,5.4,4.4l-0.6,0.9c-3.1-1.2-5-2.9-5.7-5.1c-0.3,0.8-0.6,1.5-1.1,2.1c-1,1.2-2.5,2.2-4.7,2.9l-0.5-0.9
		c2.1-0.7,3.6-1.6,4.5-2.7c0.3-0.5,0.6-1.1,0.8-1.7h-5v-1h5.3c0.1-0.6,0.2-1.3,0.2-1.9v-0.7H106v-1h6.4c0.5-0.8,1-1.8,1.4-3
		L114.8,178.9z M108.6,178.8c0.6,0.8,1.1,1.5,1.6,2.4l-0.9,0.5c-0.5-0.9-1-1.7-1.6-2.4L108.6,178.8z"/>
</g>
<g>
	<g>
		<g class="st4">
			<rect x="353.8" y="282" class="st5" width="114" height="50"/>
		</g>
		<g>
			<rect x="352.3" y="280.5" class="st6" width="113" height="49"/>
			<path class="st7" d="M464.8,281v48h-112v-48H464.8 M465.8,280h-114v50h114V280L465.8,280z"/>
		</g>
	</g>
	<g class="st10">
		<path class="st9" d="M389.7,298.8h4.3v4.4h-1.4v2.3h1.5v1h-1.5v2.6c0.8-0.2,1.3-0.4,1.8-0.6v1c-1.4,0.5-3.1,1-5.1,1.5l-0.3-1
			l0.7-0.2v-5.1h0.9v4.9l1-0.3v-6.1h-2v-4.4H389.7z M393,302.2v-2.5h-2.4v2.5H393z M397.6,298.4c-0.1,0.3-0.2,0.7-0.4,1h3.5v0.7
			c-0.5,1.2-1.2,2.2-2.1,3.1c0.9,0.8,2,1.3,3.3,1.8l-0.6,0.8c-1.4-0.4-2.5-1.1-3.5-1.9c-1,0.8-2.1,1.4-3.4,2l-0.6-0.8
			c1.3-0.5,2.4-1.1,3.3-1.9c-0.5-0.5-0.9-1.1-1.3-1.8c-0.3,0.4-0.7,0.8-1.2,1.2l-0.6-0.8c1.2-1,2.1-2.2,2.5-3.6L397.6,298.4z
			 M400.7,305.8v5.2h-1v-0.6h-3.5v0.6h-1v-5.2H400.7z M396.2,309.5h3.5v-2.7h-3.5V309.5z M396.5,300.6c0.4,0.8,0.9,1.4,1.4,1.9
			c0.7-0.7,1.3-1.5,1.7-2.3h-2.9L396.5,300.6z"/>
		<path class="st9" d="M414.6,300.5V311h-1v-0.9h-8.4v0.9h-1v-10.5h4.7v-2.2h1v2.2H414.6z M405.2,304.6h3.7v-3.2h-3.7V304.6z
			 M405.2,309.1h3.7v-3.5h-3.7V309.1z M409.9,301.4v3.2h3.7v-3.2H409.9z M409.9,309.1h3.7v-3.5h-3.7V309.1z"/>
		<path class="st9" d="M417.2,303.5h4.7c0.3-0.3,0.5-0.7,0.6-1.1l1,0.1c-0.1,0.3-0.3,0.6-0.5,1h3.6c-0.2-0.4-0.4-0.7-0.6-1l0.9-0.3
			c0.3,0.4,0.5,0.8,0.8,1.2h1.9v0.9h-3.8c0.9,0.9,2.3,1.5,4.1,2l-0.4,0.9c-0.2-0.1-0.5-0.2-1-0.3v4.1h-0.9v-0.6H425v0.6h-0.9v-4.4
			h3.7c-1.3-0.6-2.3-1.3-3-2.2h-2.4c-0.8,0.9-1.8,1.6-3.1,2.2h3.5v4.4h-0.9v-0.6h-2.4v0.6h-0.9v-4.1l-1.1,0.4l-0.5-0.8
			c1.8-0.5,3.2-1.2,4.1-2.1h-3.9L417.2,303.5L417.2,303.5z M418.4,298.7h4.3v3.4h-4.3V298.7z M421.7,301.3v-1.7h-2.4v1.7H421.7z
			 M419.4,309.6h2.4v-2.1h-2.4V309.6z M424.2,298.7h4.4v3.4h-4.4V298.7z M425,309.6h2.6v-2.1H425V309.6z M427.6,301.3v-1.7h-2.5v1.7
			H427.6z"/>
	</g>
</g>
<g class="st10">
	<path class="st9" d="M67.2,262.9c-0.9,2.5-2.1,4.5-3.6,5.8l-0.5-0.4c1.6-1.4,2.7-3.2,3.5-5.6L67.2,262.9z M70.4,269
		c0.9,1.4,1.7,2.7,2.3,4.2l-0.6,0.3c-0.2-0.5-0.4-0.9-0.6-1.3c-2.1,0.4-4.5,0.6-6.9,0.8l-0.1-0.6c1.1-0.6,2.3-2.5,3.7-5.6l0.6,0.2
		c-1.1,2.4-2.2,4.2-3.3,5.4c2-0.1,3.9-0.4,5.7-0.7c-0.4-0.8-0.9-1.6-1.4-2.4L70.4,269z M70.2,262.6c0.7,2.3,2,4.2,3.7,5.6l-0.4,0.5
		c-1.8-1.5-3.1-3.4-3.8-5.8L70.2,262.6z"/>
	<path class="st9" d="M71,285.4l-0.2-0.6H72c0.4,0,0.5-0.2,0.5-0.5v-8.6h-8.1v9.7h-0.6V275h9.4v9.3c0,0.7-0.3,1-1,1H71V285.4z
		 M68.2,282.8c-0.4-0.7-0.9-1.3-1.3-1.9c-0.4,1.2-1,2.3-1.7,3.2l-0.4-0.5c0.7-0.9,1.2-2,1.7-3.3c-0.6-0.9-1.2-1.6-1.8-2.2l0.4-0.4
		c0.5,0.5,1,1.1,1.6,1.9c0.2-0.8,0.5-1.8,0.6-3l0.6,0.1c-0.2,1.3-0.5,2.4-0.8,3.5c0.4,0.6,0.9,1.3,1.5,2.2L68.2,282.8z M71.8,283.3
		c-0.4-0.7-0.9-1.4-1.4-2.2c-0.5,1.2-1.1,2.3-1.8,3.2l-0.4-0.5c0.7-0.9,1.3-2,1.8-3.3c-0.6-0.9-1.2-1.7-1.7-2.3l0.4-0.4
		c0.5,0.6,1,1.3,1.6,2c0.3-0.9,0.5-2,0.7-3.2l0.6,0.1c-0.2,1.4-0.5,2.6-0.9,3.7c0.5,0.8,1,1.6,1.5,2.4L71.8,283.3z"/>
	<path class="st9" d="M67.7,286.6c-0.2,0.3-0.4,0.6-0.6,0.9h5v0.5c-0.8,0.9-1.7,1.7-2.9,2.4c1.3,0.6,2.9,1,4.8,1.3l-0.3,0.6
		c-2-0.3-3.7-0.8-5.1-1.5c-1.5,0.7-3.2,1.3-5.2,1.6l-0.3-0.6c1.8-0.3,3.5-0.7,4.9-1.4c-0.8-0.5-1.5-1-2.1-1.6
		c-0.6,0.5-1.1,0.9-1.8,1.3l-0.4-0.5c1.4-0.8,2.5-1.9,3.4-3.2L67.7,286.6z M72.2,292.3v5.1h-0.6v-0.6h-6.1v0.6h-0.6v-5.1H72.2z
		 M65.4,294.4h2.7V293h-2.7V294.4z M65.4,296.3h2.7v-1.4h-2.7V296.3z M68.5,290.1c1-0.6,1.9-1.3,2.7-2.1h-4.7
		c-0.2,0.2-0.3,0.3-0.3,0.3C66.8,289,67.6,289.6,68.5,290.1z M68.8,292.9v1.4h2.8v-1.4H68.8z M68.8,296.3h2.8v-1.4h-2.8V296.3z"/>
	<path class="st9" d="M66.5,298.8c-0.4,1-0.8,2-1.2,2.8v7.9h-0.6v-6.9c-0.4,0.6-0.9,1.2-1.5,1.8l-0.2-0.7c1.4-1.5,2.4-3.3,3-5.2
		L66.5,298.8z M69.2,298.9c-0.8,2-1.7,3.6-2.9,4.7l-0.5-0.4c1.2-1.1,2.2-2.6,2.8-4.5L69.2,298.9z M67.2,304v-0.6h5.2
		c0,2.4-0.1,3.9-0.2,4.5c-0.1,1-0.6,1.5-1.4,1.5c-0.2,0-0.7,0-1.3,0l-0.2-0.6c0.7,0,1.1,0,1.3,0c0.5,0,0.8-0.4,0.8-1.1
		c0.1-0.4,0.1-1.6,0.2-3.7h-2.2c-0.2,1.3-0.5,2.4-0.9,3.2c-0.4,0.8-1.1,1.6-1.9,2.3l-0.4-0.5c0.8-0.6,1.4-1.3,1.8-2
		c0.4-0.8,0.6-1.7,0.8-2.9L67.2,304L67.2,304z M71,298.5c0.6,1.8,1.6,3.2,3,4.4l-0.4,0.5c-1.5-1.2-2.5-2.7-3.1-4.6L71,298.5z"/>
</g>
<g class="st10">
	<path class="st9" d="M90.5,281.3h10.6v0.6h-1.6v8.3c0,0.7-0.4,1.1-1.1,1.1h-2l-0.1-0.6c0.9,0,1.5,0,1.9,0s0.7-0.2,0.7-0.7v-8h-8.4
		V281.3z M96.4,284v4.2h-3.9v1.1H92V284H96.4z M92.6,287.6h3.2v-3.1h-3.2V287.6z"/>
	<path class="st9" d="M98.4,303.3c-0.4,0-1.1,0-2.2,0c-0.8,0-1.4-0.1-1.9-0.2s-0.9-0.4-1.3-0.9c-0.2-0.2-0.3-0.3-0.5-0.3
		c-0.3,0-0.8,0.6-1.5,1.7l-0.5-0.4c0.7-1,1.3-1.7,1.7-1.8v-3.8h-1.8V297h2.4v4.5c0.1,0.1,0.3,0.2,0.4,0.3c0.3,0.4,0.6,0.6,1,0.8
		c0.4,0.1,1,0.2,1.7,0.3c0.8,0,1.6,0,2.4,0h1.7h1.3l-0.2,0.7h-2.7V303.3z M91.2,292.8c0.9,0.7,1.6,1.3,2.1,1.9l-0.5,0.5
		c-0.5-0.6-1.2-1.2-2.1-1.9L91.2,292.8z M97.3,292.5H98v1.6h2.4v0.6H98v1.9h2.9v0.6h-2.1v3.5c0,0.2,0.1,0.3,0.4,0.3h0.6
		c0.2,0,0.4,0,0.5-0.1c0.2-0.1,0.3-0.6,0.3-1.5l0.6,0.2c-0.1,0.9-0.2,1.5-0.4,1.7c-0.2,0.2-0.5,0.2-0.9,0.3H99
		c-0.3,0-0.5-0.1-0.6-0.2s-0.2-0.3-0.2-0.6v-3.6h-1.3c0,0.9-0.1,1.6-0.4,2.2c-0.3,0.9-1,1.6-2.2,2.2l-0.4-0.5c1-0.5,1.6-1.1,2-1.9
		c0.2-0.6,0.3-1.3,0.4-2.1h-2v-0.6h3.1v-1.9h-2.1c-0.2,0.4-0.5,0.9-0.7,1.3l-0.6-0.4c0.6-0.9,1.1-1.9,1.4-3l0.6,0.1
		c-0.1,0.5-0.3,0.9-0.4,1.3h1.8v-1.4H97.3z"/>
</g>
<g>
	<g>
		<rect x="17.1" y="364.2" class="st11" width="796.5" height="190.2"/>
	</g>
	<g>
		<line class="st3" x1="409.3" y1="506" x2="409.3" y2="433"/>
	</g>
	<g>
		<path class="st9" d="M32.3,377c-0.2,0.3-0.4,0.7-0.7,1h5.3v0.6c-0.6,0.9-1.5,1.6-2.7,2.2c1.6,0.7,3.4,1.1,5.4,1.3l-0.2,0.7
			c-2.3-0.2-4.3-0.7-6-1.6c-1.7,0.8-3.8,1.4-6.3,1.9l-0.3-0.7c2.4-0.4,4.3-0.9,5.8-1.6c-0.8-0.4-1.5-1-2.3-1.6
			c-0.6,0.5-1.2,1-1.8,1.4L28,380c1.5-0.9,2.6-2,3.5-3.3L32.3,377z M38.8,375.7v2.5H38v-1.8h-9.7v1.8h-0.8v-2.5h5.2
			c-0.1-0.4-0.3-0.7-0.6-1.1l0.8-0.1c0.2,0.3,0.3,0.7,0.5,1.2H38.8z M37.2,383.1v4.3h-0.7v-0.6h-6.3v0.6h-0.7v-4.3H37.2z
			 M30.2,386.1h6.3v-2.2h-6.3V386.1z M36,378.7h-5c-0.1,0.1-0.1,0.1-0.1,0.1c0.8,0.7,1.6,1.2,2.5,1.7C34.5,380,35.3,379.4,36,378.7z
			"/>
		<path class="st9" d="M43.3,380.9c-0.1,2.5-0.7,4.7-2,6.5l-0.6-0.5c1.2-1.6,1.8-3.7,1.8-6.3v-4.3h4.6c-0.3-0.6-0.5-1.2-0.8-1.7
			l0.8-0.1c0.3,0.6,0.6,1.2,0.8,1.9h4.4v4.5H43.3L43.3,380.9z M51.6,377.1h-8.3v3h8.3V377.1z"/>
		<path class="st9" d="M55.3,376h0.9v10h-0.9V376z"/>
		<path class="st9" d="M58.4,376H62c1.6,0,2.7,0.5,3.5,1.4c0.7,0.8,1.1,2,1.1,3.6c0,1.5-0.4,2.7-1.2,3.6s-2,1.4-3.6,1.4h-3.4V376z
			 M59.2,376.8v8.5h2.4c1.3,0,2.4-0.4,3.1-1.1s1-1.8,1-3.1c0-1.4-0.3-2.4-0.9-3.1s-1.6-1.1-3-1.1L59.2,376.8L59.2,376.8z"/>
		<path class="st9" d="M75.2,376.7c0.8,0.6,1.2,1.4,1.4,2.4h-0.8c-0.1-0.8-0.5-1.4-1.1-1.8s-1.3-0.6-2.1-0.6c-1.2,0-2.2,0.4-2.9,1.3
			c-0.7,0.8-1,1.9-1,3.1c0,1.3,0.3,2.3,1,3.1c0.7,0.8,1.6,1.2,2.8,1.2c0.8,0,1.6-0.2,2.2-0.7c0.7-0.5,1.1-1.2,1.3-2.1h0.8
			c-0.2,1.2-0.7,2.1-1.6,2.7c-0.8,0.6-1.7,0.9-2.7,0.9c-1.5,0-2.7-0.5-3.5-1.5c-0.8-0.9-1.1-2.1-1.1-3.6s0.4-2.7,1.2-3.7
			c0.8-1.1,2-1.6,3.6-1.6C73.5,375.8,74.4,376.1,75.2,376.7z"/>
		<path class="st9" d="M78,382h7.1v0.7H78V382z"/>
		<path class="st9" d="M91.7,374.6h0.8v4.4h5.2v0.7h-5.2v6.3H99v0.7H86.6V386h5.1V374.6L91.7,374.6z"/>
		<path class="st9" d="M101,378.3c0.9,0.6,1.6,1.2,2.2,1.8l-0.5,0.5c-0.6-0.6-1.3-1.2-2.2-1.8L101,378.3z M103.3,382.6
			c-0.6,1.6-1.2,3.1-2,4.6l-0.7-0.3c0.7-1.4,1.4-2.9,2-4.6L103.3,382.6z M101.2,374.9c0.9,0.6,1.6,1.2,2.2,1.7l-0.5,0.5
			c-0.5-0.5-1.2-1.1-2.2-1.7L101.2,374.9z M103.3,381.1h1.6c0.1-1.1,0.2-2.2,0.2-3.3h6.9l-0.1,3.3h1.3v0.7h-1.3l-0.1,2.8h1.2v0.7
			h-1.3c-0.1,0.4-0.1,0.7-0.1,0.8c-0.1,0.4-0.4,0.8-0.8,1s-1,0.3-1.7,0.3H108l-0.2-0.7c0.6,0,1,0,1.3,0c0.4,0,0.8,0,1.1-0.1
			s0.6-0.3,0.8-0.7c0-0.1,0.1-0.3,0.1-0.6h-6.9c0.2-1.1,0.4-2.3,0.5-3.4h-1.5L103.3,381.1L103.3,381.1L103.3,381.1z M105.7,376.5
			c-0.5,0.9-1.1,1.6-1.8,2.2l-0.5-0.6c1-0.9,1.8-2.2,2.4-3.6l0.7,0.2c-0.1,0.3-0.3,0.7-0.5,1.1h6.6v0.7L105.7,376.5L105.7,376.5z
			 M105.5,381.8c-0.1,1-0.3,1.9-0.4,2.8h5.9c0-0.4,0.1-1.3,0.2-2.8H105.5z M111.2,381.1l0.1-2.6h-5.5c0,0.9-0.1,1.8-0.2,2.6H111.2z
			 M107.6,382.2c0.7,0.5,1.3,1,1.8,1.6l-0.5,0.5c-0.4-0.5-1-1-1.8-1.6L107.6,382.2z M107.7,378.9c0.7,0.5,1.3,1,1.8,1.4l-0.5,0.5
			c-0.4-0.5-1-0.9-1.8-1.5L107.7,378.9z"/>
		<path class="st9" d="M117.1,381.1l0.7,0.1l-0.3,0.9h3v0.6c-0.3,1-0.9,1.8-1.7,2.5c0.7,0.3,1.4,0.6,2.1,1l-0.4,0.6
			c-0.7-0.4-1.4-0.8-2.3-1.1c-0.9,0.7-2.1,1.2-3.5,1.6l-0.4-0.6c1.2-0.3,2.3-0.8,3.1-1.3c-0.6-0.3-1.3-0.5-2-0.8
			c0.4-0.6,0.7-1.2,1-1.8h-1.8v-0.7h2.1L117.1,381.1z M114.7,377.3h2.8v-2.7h0.7v2.7h2.6v0.7h-2.6v0.2c0.9,0.5,1.7,1,2.4,1.5
			l-0.4,0.6c-0.8-0.6-1.4-1.1-2-1.5v2h-0.7V378l0,0c-0.4,1.1-1.3,2.1-2.6,2.9l-0.4-0.6c1.2-0.7,2-1.4,2.4-2.3h-2.2
			C114.7,378,114.7,377.3,114.7,377.3z M115.6,374.9c0.4,0.5,0.7,1.1,0.9,1.8l-0.6,0.3c-0.3-0.6-0.6-1.2-1-1.8L115.6,374.9z
			 M119.8,382.7h-2.6c-0.2,0.5-0.5,1-0.8,1.5c0.6,0.2,1.2,0.4,1.7,0.7C118.9,384.3,119.4,383.6,119.8,382.7z M120.7,375.1
			c-0.3,0.6-0.6,1.3-1.1,1.9l-0.6-0.3c0.4-0.7,0.8-1.3,1-1.9L120.7,375.1z M122.3,379.6c-0.3,0.7-0.6,1.4-0.9,2l-0.5-0.6
			c0.8-1.6,1.4-3.7,1.7-6.4l0.8,0.1c-0.1,0.7-0.2,1.4-0.3,2.1h3.8v0.7h-1c-0.1,2.4-0.5,4.5-1.3,6.1c0.7,1.3,1.6,2.3,2.7,3l-0.4,0.6
			c-1-0.7-1.9-1.7-2.6-2.9c-0.7,1.2-1.6,2.2-2.7,3l-0.4-0.6c1.1-0.8,2-1.8,2.7-3.1C123.2,382.5,122.7,381.2,122.3,379.6z
			 M122.9,377.6c-0.1,0.4-0.2,0.6-0.2,0.8c0.4,1.7,0.9,3.2,1.5,4.5c0.6-1.5,1-3.3,1-5.3H122.9L122.9,377.6z"/>
		<path class="st9" d="M128.8,387.2l-0.2-0.7c0.5,0,0.8,0.1,1.1,0.1c0.4,0,0.6-0.2,0.6-0.7v-3.7c-0.6,0.2-1.1,0.4-1.8,0.6l-0.2-0.7
			c0.7-0.2,1.4-0.4,2-0.6v-3.3h-1.8v-0.7h1.8v-2.7h0.8v2.7h1.4v0.7h-1.4v3.1c0.5-0.2,0.9-0.4,1.4-0.7v0.7c-0.5,0.3-0.9,0.5-1.4,0.7
			v4.2c0,0.8-0.4,1.1-1.1,1.1h-1.2L128.8,387.2L128.8,387.2z M134.1,381c-0.2,2.4-0.7,4.5-1.7,6.4l-0.6-0.5c1-1.9,1.5-4.3,1.6-7.4
			v-4.2h7.3v3.2H138v1.8h3.1v0.7H138v1.9h2.4v4.5h-0.7v-0.7h-4.2v0.7h-0.7v-4.5h2.4V381H134.1L134.1,381z M137.2,378.4h-3.1v1.8h3.1
			V378.4L137.2,378.4z M139.9,375.9h-5.8v1.8h5.8V375.9z M135.5,385.9h4.2v-2.3h-4.2V385.9z"/>
		<path class="st9" d="M148.3,374.5h0.8v2.6h5.1v6.4h-0.8v-0.9h-4.3v4.8h-0.8v-4.8H144v0.9h-0.8v-6.4h5.1V374.5z M144.1,381.9h4.3
			v-4h-4.3V381.9z M149.1,381.9h4.3v-4h-4.3V381.9z"/>
		<path class="st9" d="M158.7,379.2c-0.4,2.3-1,4.3-1.7,6l-0.7-0.4c0.7-1.7,1.3-3.6,1.6-5.8L158.7,379.2z M161.4,386.9
			c-0.9,0-1.3-0.4-1.3-1.3v-8.1h0.8v8c0,0.4,0.3,0.7,0.8,0.7h2.8c0.4,0,0.7-0.1,0.8-0.4c0.2-0.4,0.3-1.4,0.4-3.1l0.7,0.2
			c-0.1,1.9-0.3,3-0.6,3.5c-0.3,0.4-0.7,0.5-1.2,0.5L161.4,386.9L161.4,386.9z M161.6,374.7c1.3,1.3,2.4,2.5,3.1,3.5l-0.6,0.4
			c-0.7-1.1-1.8-2.2-3.1-3.5L161.6,374.7z M166.7,378.6c1,1.8,1.8,3.7,2.5,5.7l-0.7,0.3c-0.7-2.1-1.6-4-2.5-5.8L166.7,378.6z"/>
	</g>
	<g>
		<line class="st3" x1="88.2" y1="506" x2="88.2" y2="433"/>
	</g>
	<g>
		<line class="st3" x1="739.6" y1="506" x2="739.6" y2="433"/>
	</g>
	<g class="st4">
		<rect x="32.2" y="399" class="st5" width="114" height="40"/>
	</g>
	<rect x="30.7" y="397" class="st12" width="113" height="40"/>
	<g class="st4">
		<rect x="683.6" y="504.3" class="st5" width="114" height="40"/>
	</g>
	<rect x="682.1" y="502.3" class="st12" width="113" height="40"/>
	<g class="st4">
		<rect x="32.2" y="504.3" class="st5" width="114" height="40"/>
	</g>
	<rect x="30.7" y="502.3" class="st12" width="113" height="40"/>
	<g>
		<path class="st9" d="M47.2,411h11.9v1h-7.4l-0.6,2.3h6l-1.1,7.5h3.4v1H46.9v-1H55l0.4-2.5h-6.6l1.8-7.3h-3.4V411z M55.7,418.4
			l0.5-3.1H51l-0.8,3.1H55.7z"/>
		<path class="st9" d="M60.8,411h5.6v0.9h-0.9v7.7c0.2-0.1,0.5-0.2,0.9-0.3v1c-0.4,0.1-0.7,0.2-0.9,0.3v2.8h-1v-2.5
			c-1.3,0.3-2.5,0.6-3.5,0.8l-0.3-1l0.9-0.1V412h-0.9C60.8,411.9,60.8,411,60.8,411z M62.7,414h1.9v-2.1h-1.9
			C62.7,411.9,62.7,414,62.7,414z M62.7,416.9h1.9v-2h-1.9C62.7,414.9,62.7,416.9,62.7,416.9z M62.7,420.3c0.7-0.2,1.3-0.3,1.9-0.4
			v-2.1h-1.9C62.7,417.8,62.7,420.3,62.7,420.3z M66.6,413.5h3.5c0.5-1,1-2,1.4-3l0.9,0.4c-0.4,1.1-0.9,2-1.3,2.7h2.1v1h-2.9v0.4
			c0,0.7,0,1.3-0.1,2h3.2v1h-2.9c0.3,1.5,1.4,3.1,3.1,4.7l-0.7,0.7c-1.6-1.6-2.6-3.2-3-4.7c-0.5,2.2-1.6,3.8-3.2,4.8l-0.6-0.8
			c1.6-1,2.6-2.5,3-4.7h-2.7v-1h2.8c0.1-0.6,0.1-1.2,0.1-1.8v-0.6h-2.7L66.6,413.5L66.6,413.5z M68,410.5c0.6,0.8,1,1.5,1.3,2.2
			l-0.8,0.5c-0.3-0.7-0.8-1.4-1.3-2.2L68,410.5z"/>
		<path class="st9" d="M84.1,423.2l-0.3-1h1.3c0.4,0,0.6-0.2,0.6-0.6V412h-9.2v11.3h-1V411h11.2v10.9c0,0.9-0.4,1.3-1.2,1.3
			L84.1,423.2L84.1,423.2L84.1,423.2z M80.8,420.1c-0.4-0.6-0.8-1.3-1.3-2c-0.5,1.4-1.1,2.5-1.8,3.5l-0.6-0.8c0.7-1,1.3-2.3,1.8-3.7
			c-0.6-0.9-1.3-1.7-2-2.4l0.6-0.6c0.6,0.6,1.1,1.3,1.7,2c0.3-1,0.5-2.1,0.7-3.2l0.9,0.2c-0.2,1.4-0.5,2.8-0.9,3.9
			c0.6,0.8,1.2,1.6,1.7,2.4L80.8,420.1z M84.9,420.7c-0.4-0.7-0.9-1.5-1.4-2.3c-0.6,1.4-1.2,2.5-2,3.5l-0.6-0.8
			c0.8-1.1,1.4-2.3,2-3.7c-0.7-1-1.3-1.9-1.9-2.6l0.6-0.6c0.6,0.6,1.1,1.3,1.7,2.1c0.3-1,0.5-2.1,0.7-3.4l1,0.2
			c-0.3,1.5-0.6,3-1,4.2c0.6,0.9,1.2,1.8,1.7,2.7L84.9,420.7z"/>
		<path class="st9" d="M93.2,410.6h1v11.1h2v-11.1h1v11.1h4.2v1H89v-1h4.2V410.6L93.2,410.6z M90.2,413.1c0.7,1.9,1.4,4.1,2,6.5
			l-0.9,0.2c-0.5-2.2-1.1-4.4-1.9-6.5L90.2,413.1z M101,413.4c-0.6,2.4-1.3,4.6-2.1,6.4l-0.9-0.3c0.8-1.7,1.5-3.8,2.1-6.3L101,413.4
			z"/>
		<path class="st9" d="M108,410.5c-0.1,0.3-0.3,0.7-0.5,1.1h6.1v0.8c-0.9,1-2,1.9-3.3,2.6c1.6,0.7,3.4,1.1,5.3,1.3l-0.5,0.9
			c-2.2-0.3-4.2-0.8-5.9-1.7c-1.7,0.8-3.7,1.4-6,1.7l-0.5-1c2-0.3,3.8-0.7,5.3-1.3c-0.8-0.4-1.5-1-2.2-1.6c-0.6,0.5-1.1,0.9-1.8,1.3
			l-0.6-0.8c1.7-1,2.8-2.1,3.4-3.5L108,410.5z M109.4,416.6c0,0.5,0,1-0.1,1.6h4.9c0,2.4-0.2,3.8-0.6,4.2c-0.4,0.5-1.1,0.7-2.1,0.7
			c-0.2,0-0.8,0-1.6-0.1l-0.3-0.9l1.7,0.1c0.8,0,1.4-0.2,1.6-0.5s0.3-1.2,0.4-2.6h-4.1c-0.1,0.3-0.3,0.7-0.4,1
			c-0.7,1.3-2.4,2.3-4.9,3.1l-0.7-0.8c2.3-0.7,3.8-1.5,4.6-2.5c0.2-0.3,0.3-0.6,0.4-0.8H104v-0.9h4.5c0.1-0.5,0.2-1,0.2-1.6
			L109.4,416.6L109.4,416.6L109.4,416.6z M112.2,412.5h-5.3l-0.2,0.2c0.8,0.7,1.6,1.3,2.6,1.8C110.3,414,111.3,413.3,112.2,412.5z"
			/>
		<path class="st9" d="M117.9,411H129v1h-10.1v9.7h10.6v1H118L117.9,411L117.9,411z M120.8,413.2c1.3,1,2.5,2,3.6,2.9
			c0.8-1,1.5-2.2,2.1-3.5l0.9,0.5c-0.6,1.4-1.4,2.7-2.2,3.7c1.1,1,2.1,2,3,3l-0.8,0.8c-0.8-1-1.8-2-2.9-3c-1.2,1.3-2.7,2.3-4.3,3
			l-0.6-0.9c1.6-0.6,2.9-1.6,4.1-2.8c-1.2-1-2.4-2-3.7-3L120.8,413.2z"/>
	</g>
	<g class="st4">
		<rect x="31.5" y="452" class="st5" width="766.1" height="40"/>
	</g>
	<rect x="30.2" y="450" class="st12" width="763.8" height="40"/>
	<g>
		<path class="st5" d="M67.8,518.3h10.9v1h-2.3v3.7h3.1v1h-3.1v6.2h-1V524h-4c-0.1,1.4-0.4,2.6-0.8,3.6c-0.5,1.2-1.4,2.1-2.6,2.7
			l-0.5-0.9c1.1-0.6,1.9-1.5,2.4-2.6c0.3-0.8,0.5-1.8,0.6-2.9h-3.2v-1h3.3v-0.5v-3.2h-2.5L67.8,518.3L67.8,518.3z M71.4,519.2v3.5
			v0.2h4v-3.7H71.4z"/>
		<path class="st5" d="M81.8,521.7l1.1-3.9l1,0.2l-0.8,2.8h2.4c0.3-1.1,0.5-2.2,0.7-3.4l1,0.1c-0.2,1.1-0.4,2.2-0.7,3.3h6.6v1h-6.8
			c-0.2,0.7-0.4,1.2-0.5,1.6h5.7v0.9c-0.4,1.2-1.1,2.3-2.3,3.3c1.1,0.7,2.5,1.3,4.1,1.8l-0.5,0.9c-1.8-0.7-3.3-1.4-4.5-2.1
			c-1.1,0.8-2.6,1.5-4.3,2.2l-0.5-0.9c1.6-0.6,2.9-1.2,3.9-1.9c-1.1-0.8-1.9-1.7-2.3-2.7c-1,2.2-2.3,4-3.9,5.3l-0.5-0.9
			c2-1.8,3.5-4.2,4.5-7.4h-3.4L81.8,521.7L81.8,521.7z M86,524.2c0.5,1,1.3,1.8,2.4,2.6c1-0.8,1.8-1.7,2.1-2.6H86z M89.6,517.4
			c1,0.7,1.8,1.5,2.5,2.3l-0.7,0.7c-0.6-0.7-1.4-1.5-2.5-2.4L89.6,517.4z"/>
		<path class="st5" d="M95.9,518H107v1H96.9v9.7h10.6v1H96L95.9,518L95.9,518z M98.8,520.2c1.3,1,2.5,2,3.6,2.9
			c0.8-1,1.5-2.2,2.1-3.5l0.9,0.5c-0.6,1.4-1.4,2.7-2.2,3.7c1.1,1,2.1,2,3,3l-0.8,0.8c-0.8-1-1.8-2-2.9-3c-1.2,1.3-2.7,2.3-4.3,3
			l-0.6-0.9c1.6-0.6,2.9-1.6,4.1-2.8c-1.2-1-2.4-2-3.7-3L98.8,520.2z"/>
	</g>
	<g>
		<path class="st5" d="M718.9,521.1c0.8,0.7,1.4,1.3,2,2.1l-0.7,0.7c-0.5-0.6-1.1-1.3-2-2.1L718.9,521.1z M721,525.2
			c-0.5,1.7-1.1,3.3-1.8,4.9l-0.9-0.4c0.7-1.6,1.3-3.2,1.8-4.8L721,525.2z M719.1,517.7c0.8,0.7,1.5,1.3,2,1.9l-0.7,0.7
			c-0.5-0.6-1.2-1.3-2-1.9L719.1,517.7z M723.6,519.9h0.8v4.4c0,1.6-0.3,2.9-0.8,3.8c-0.5,0.9-1.2,1.6-2.3,2.1l-0.5-0.8
			c1-0.5,1.7-1.1,2.1-1.9c0.4-0.8,0.6-1.9,0.6-3.2L723.6,519.9L723.6,519.9z M726.3,518.1v8.5h-0.9V519h-2.9v7.8h-0.9v-8.6
			L726.3,518.1L726.3,518.1z M724.8,527.3c0.8,0.7,1.5,1.5,2.1,2.3l-0.7,0.7c-0.5-0.8-1.2-1.5-2.1-2.4L724.8,527.3z M727.4,518.7
			h0.9v8.7h-0.9V518.7z M727.8,530.1l-0.2-0.9c0.5,0,1,0.1,1.4,0.1c0.3,0,0.5-0.2,0.5-0.6v-11.2h1V529c0,0.8-0.4,1.2-1.1,1.2
			L727.8,530.1L727.8,530.1z"/>
		<path class="st5" d="M732.2,521.7h2.9v6.1c0.3-0.3,0.8-0.8,1.3-1.3l0.3,1.1c-0.8,0.9-1.6,1.6-2.5,2.2l-0.4-0.9
			c0.2-0.2,0.3-0.4,0.3-0.6v-5.6h-2L732.2,521.7L732.2,521.7z M733.9,517.6c0.9,0.7,1.6,1.4,2.3,2.2l-0.7,0.7
			c-0.6-0.7-1.3-1.4-2.3-2.2L733.9,517.6z M742.2,529c-0.4-0.8-0.7-2-0.9-3.4c-0.1-1.2-0.3-2.7-0.3-4.6h-4.4v-1h4.4
			c0-0.5,0-1.4,0-2.6h1c0,1.2,0,2,0,2.6h2.8v1H742c0.1,2.4,0.2,4.2,0.4,5.6c0.3,1.6,0.7,2.4,1.1,2.5c0.3-0.1,0.6-0.9,0.9-2.6
			l0.8,0.6c-0.5,2-1,3-1.7,3C743,530,742.6,529.7,742.2,529z M738.2,524.1h-1.3v-0.9h3.6v0.9h-1.3v3.8c0.7-0.1,1.3-0.3,1.8-0.5v0.9
			c-1.2,0.3-2.5,0.6-3.9,0.9l-0.3-1c0.5-0.1,0.9-0.1,1.4-0.2V524.1L738.2,524.1z M743.1,517.4c0.6,0.7,1.1,1.2,1.4,1.8l-0.7,0.5
			c-0.3-0.5-0.8-1.1-1.4-1.8L743.1,517.4z"/>
		<path class="st5" d="M747.3,518h11.1v1h-10.1v9.7h10.6v1h-11.5L747.3,518L747.3,518z M750.2,520.2c1.3,1,2.5,2,3.6,2.9
			c0.8-1,1.5-2.2,2.1-3.5l0.9,0.5c-0.6,1.4-1.4,2.7-2.2,3.7c1.1,1,2.1,2,3,3l-0.8,0.8c-0.8-1-1.8-2-2.9-3c-1.2,1.3-2.7,2.3-4.3,3
			l-0.6-0.9c1.5-0.6,2.9-1.6,4.1-2.8c-1.2-1-2.4-2-3.7-3L750.2,520.2z"/>
	</g>
	<g class="st4">
		<rect x="683.6" y="399" class="st5" width="114" height="40"/>
	</g>
	<rect x="682.1" y="397" class="st12" width="113" height="40"/>
	<g>
		<path class="st5" d="M699.4,412.3c-0.3,0.5-0.7,1-1.1,1.4l-0.9-0.5c0.9-0.9,1.5-1.8,1.9-2.8l1,0.2c-0.1,0.2-0.2,0.5-0.4,0.9h3.7
			v0.9h-2.3c0.4,0.4,0.6,0.8,0.8,1.2l-0.9,0.3c-0.3-0.5-0.6-1-1-1.5h-0.8V412.3z M703.2,415h-4.7v-0.9h10.2v3.2h-4.6v1.4h5.1
			c0,1.6-0.1,2.7-0.3,3.1c-0.2,0.5-0.7,0.7-1.5,0.7c-0.4,0-1,0-1.7,0l-0.3-1c0.6,0,1.3,0,1.8,0c0.4,0,0.7-0.2,0.8-0.5
			s0.1-0.8,0.1-1.5h-4v3.7h-1v-3.7l0,0c-0.9,1.3-2.6,2.5-5.2,3.4l-0.6-0.9c2.3-0.7,3.8-1.6,4.6-2.5h-3.8l0.6-3.2h4.3L703.2,415
			L703.2,415L703.2,415z M703.2,417.3h-3.4l-0.3,1.4h3.8L703.2,417.3L703.2,417.3z M705.3,412.2c-0.3,0.6-0.7,1.1-1,1.5l-0.9-0.5
			c0.8-0.8,1.3-1.8,1.7-2.8l1,0.2c-0.1,0.2-0.2,0.5-0.3,0.8h4.1v0.9h-2.5c0.4,0.5,0.6,0.9,0.8,1.2l-0.9,0.3c-0.3-0.5-0.6-1-1-1.6
			H705.3z M704.2,416.4h3.5V415h-3.5V416.4z"/>
		<path class="st5" d="M711.3,421.5h12.6v1h-12.6V421.5z M712.2,411.5h10.9v1h-10.9V411.5z M713.2,416.3h8.8v1h-8.8V416.3z"/>
		<path class="st5" d="M725.5,412.5h6c-0.3-0.7-0.6-1.3-1-1.8l1-0.4c0.4,0.6,0.7,1.3,1.1,2.1h5.2v1h-7.4l-0.1,2.5h5.8
			c0,2.8-0.1,4.5-0.3,5.3c-0.3,1.2-1,1.8-2.1,1.8c-0.3,0-0.8,0-1.6-0.1l-0.3-0.9c0.7,0,1.3,0,1.8,0c0.7,0,1.1-0.5,1.3-1.5
			c0.1-0.5,0.1-1.8,0.2-3.8h-4.9c-0.2,1.1-0.5,2.1-1,3.1c-0.7,1.2-1.6,2.3-2.9,3.3l-0.7-0.7c1.5-1.3,2.5-2.4,3-3.5s0.7-2.3,0.8-3.6
			c0-0.9,0.1-1.6,0.1-2h-3.9L725.5,412.5L725.5,412.5z"/>
		<path class="st5" d="M739.6,423.1l-0.2-1c0.5,0,0.9,0.1,1.1,0.1c0.4,0,0.5-0.2,0.5-0.6v-3.4c-0.4,0.1-1,0.4-1.7,0.6l-0.3-1
			c0.6-0.2,1.3-0.4,2-0.6v-3.1h-1.7v-1h1.7v-2.6h1v2.6h1.2v1H742v2.7c0.4-0.2,0.8-0.4,1.2-0.6v1c-0.4,0.2-0.8,0.4-1.2,0.6v4.1
			c0,0.9-0.4,1.3-1.2,1.3L739.6,423.1L739.6,423.1z M747.6,416.3c-0.1,0.4-0.3,0.7-0.5,1.1h4.8v1h-1.5c-0.2,1-0.6,1.9-1.3,2.6
			c1,0.5,1.9,0.9,2.8,1.4l-0.5,0.8c-0.8-0.5-1.8-1-2.9-1.6c-0.9,0.7-2.4,1.2-4.4,1.6l-0.4-0.9c1.7-0.3,2.9-0.7,3.8-1.2
			c-0.7-0.3-1.6-0.7-2.7-1.2c0.4-0.6,0.7-1.1,1-1.7h-1.9v-1h2.4c0.2-0.4,0.4-0.8,0.5-1.2L747.6,416.3z M746,412.8
			c0.3,0.6,0.7,1.3,1,2.1h1.4c0.4-0.7,0.7-1.4,1-2.2l1,0.3c-0.3,0.7-0.6,1.3-0.9,1.9h2.3v1H744v-1h2.1c-0.3-0.7-0.6-1.2-0.9-1.7
			L746,412.8z M747.9,410.3c0.1,0.4,0.3,0.8,0.5,1.3h3.1v0.9h-7.2v-0.9h3.1c-0.1-0.4-0.3-0.8-0.5-1.2L747.9,410.3z M746.6,418.4
			c-0.3,0.5-0.5,0.9-0.8,1.2c0.8,0.3,1.6,0.6,2.4,1c0.6-0.6,1.1-1.3,1.3-2.2H746.6z"/>
		<path class="st5" d="M756.7,411l0.8-0.5c1.2,0.9,2.3,2.4,3.2,4.7c1.3,3.4,3.1,5.7,5.3,7.1l-0.6,0.8c-2.3-1.4-4.1-3.9-5.6-7.6
			c-0.1-0.3-0.2-0.5-0.2-0.6c-0.9,3.6-2.9,6.3-5.8,8.2l-0.6-0.9c3-2,4.9-4.8,5.8-8.5C758.3,412.5,757.6,411.6,756.7,411z"/>
		<path class="st5" d="M768.3,411h11.1v1h-10.1v9.7h10.6v1h-11.5L768.3,411L768.3,411z M771.2,413.2c1.3,1,2.5,2,3.6,2.9
			c0.8-1,1.5-2.2,2.1-3.5l0.9,0.5c-0.6,1.4-1.4,2.7-2.2,3.7c1.1,1,2.1,2,3,3l-0.8,0.8c-0.8-1-1.8-2-2.9-3c-1.2,1.3-2.7,2.3-4.3,3
			l-0.6-0.9c1.5-0.6,2.9-1.6,4.1-2.8c-1.2-1-2.4-2-3.7-3L771.2,413.2z"/>
	</g>
	<g>
		<g class="st4">
			<rect x="353.1" y="504.3" class="st5" width="114" height="40"/>
		</g>
		<rect x="351.6" y="502.3" class="st12" width="113" height="40"/>
	</g>
	<g>
		<path class="st5" d="M383.5,476.3h-1v-7c-0.4,1.4-1,2.7-1.8,3.9l-0.4-1c1-1.4,1.7-3.1,2.1-4.9h-1.9v-1h1.9v-2.7h1v2.7h1.7v1h-1.7
			v0.9c0.6,0.7,1.3,1.6,2,2.6l-0.6,0.9c-0.6-1.1-1.1-1.9-1.5-2.4L383.5,476.3L383.5,476.3z M385.2,476.2l-0.5-0.9
			c3.3-1.1,5.8-3.2,7.4-6.2l0.9,0.4c-0.7,1.3-1.5,2.3-2.4,3.3c1.1,0.9,1.9,1.8,2.6,2.7l-0.7,0.7c-0.6-0.9-1.4-1.8-2.5-2.8
			C388.6,474.6,387,475.6,385.2,476.2z M385.5,465h3.5c-0.2-0.5-0.4-1-0.7-1.4l1-0.2c0.2,0.5,0.4,1,0.6,1.6h3.1v0.9h-3.8
			c-0.8,1.4-1.5,2.3-2,2.9c1.2-0.1,2-0.1,2.6-0.2c0.4-0.5,0.7-1,1-1.6l0.8,0.4c-1.4,2.8-3.5,4.7-6.2,5.7l-0.5-0.8
			c1.7-0.6,3.1-1.5,4.3-2.8c-1.2,0.1-2.3,0.1-3.1,0.2l-0.2-0.8c0.1,0,0.1,0,0.2-0.1c0.6-0.4,1.3-1.3,2.2-2.8h-2.7L385.5,465
			L385.5,465z"/>
		<path class="st5" d="M396.9,468c-0.4,2.4-1,4.5-1.7,6.2l-0.9-0.5c0.7-1.7,1.2-3.7,1.6-5.9L396.9,468z M399.5,475.8
			c-1,0-1.5-0.5-1.5-1.4v-8h1v7.8c0,0.4,0.3,0.6,0.8,0.6h2.6c0.3,0,0.6-0.1,0.7-0.4c0.2-0.3,0.3-1.3,0.4-3l1,0.3
			c-0.1,1.9-0.3,3.1-0.6,3.5c-0.3,0.4-0.7,0.5-1.2,0.5L399.5,475.8L399.5,475.8z M399.9,463.5c1.3,1.4,2.3,2.6,3,3.6l-0.8,0.6
			c-0.8-1.2-1.8-2.4-3-3.6L399.9,463.5z M405,467.4c0.9,1.8,1.7,3.7,2.3,5.8l-0.9,0.4c-0.7-2.2-1.5-4.2-2.4-5.9L405,467.4z"/>
		<path class="st5" d="M418.1,469.5c-0.7,1.3-1.5,2.4-2.5,3.3c1.5,1.1,3.3,1.9,5.5,2.5l-0.6,0.9c-2.3-0.7-4.2-1.6-5.7-2.7
			c-1.6,1.3-3.5,2.2-5.7,2.8l-0.6-0.9c2.2-0.6,4-1.4,5.5-2.5c-1-0.9-1.8-2-2.5-3.2l0.9-0.5c0.6,1.1,1.4,2.1,2.4,3
			c1-0.9,1.8-1.9,2.3-3.1L418.1,469.5z M408.6,465.1h5.8c-0.2-0.6-0.5-1.1-0.8-1.6l1.1-0.2c0.3,0.6,0.6,1.2,0.8,1.8h5.5v1h-12.4
			V465.1L408.6,465.1z M413.2,467.1c-1.1,1.4-2.4,2.6-3.9,3.6l-0.6-0.9c1.5-1,2.8-2.1,3.9-3.4L413.2,467.1z M417,466.5
			c1.6,1.3,2.9,2.5,3.9,3.7l-0.7,0.7c-0.9-1.1-2.2-2.4-3.9-3.8L417,466.5z"/>
		<path class="st5" d="M422.8,476.1l-0.2-1c0.4,0,0.8,0.1,1,0.1c0.4,0,0.6-0.2,0.6-0.6v-3.3c-0.5,0.2-1.1,0.4-1.7,0.6l-0.3-1
			c0.7-0.2,1.3-0.4,1.9-0.6V467h-1.7v-1h1.7v-2.6h1v2.6h1.4v1h-1.4v2.9c0.5-0.2,1-0.5,1.5-0.8v1c-0.7,0.3-1.1,0.6-1.5,0.7v4
			c0,0.8-0.4,1.3-1.2,1.3H422.8L422.8,476.1z M434.4,467.3v3.8h0.9v0.9h-3.5c0.7,1.4,1.9,2.5,3.6,3.3l-0.5,1c-1.9-1-3.2-2.4-4-4.1
			c-0.6,1.6-1.9,3-4,4.1l-0.7-0.8c1.9-0.9,3.1-2,3.7-3.4h-3.3v-0.9h1v-3.8h3.2c0.4-0.6,0.8-1.2,1.2-1.9h-2.4
			c-0.6,0.8-1.3,1.5-2.3,2.2l-0.6-0.8c1.4-0.9,2.4-2.1,2.9-3.4l1,0.1c-0.1,0.4-0.3,0.7-0.4,1h3v0.7c-0.4,0.8-0.8,1.5-1.2,2.1
			L434.4,467.3L434.4,467.3z M428.6,471.1h1.7c0.2-0.8,0.3-1.8,0.3-2.9h-1.9v2.9H428.6z M433.5,471.1v-2.9h-2c0,1.2-0.1,2.1-0.3,2.9
			H433.5z"/>
		<path class="st5" d="M437.5,464h11.1v1h-10.1v9.7h10.6v1h-11.5L437.5,464L437.5,464z M440.4,466.2c1.3,1,2.5,2,3.6,2.9
			c0.8-1,1.5-2.2,2.1-3.5l0.9,0.5c-0.6,1.4-1.4,2.7-2.2,3.7c1.1,1,2.1,2,3,3l-0.8,0.8c-0.8-1-1.8-2-2.9-3c-1.2,1.3-2.7,2.3-4.3,3
			l-0.6-0.9c1.5-0.6,2.9-1.6,4.1-2.8c-1.2-1-2.4-2-3.7-3L440.4,466.2z"/>
	</g>
	<g>
		<path class="st5" d="M377,530.3h-1v-7c-0.4,1.4-1,2.7-1.8,3.9l-0.4-1c1-1.4,1.7-3.1,2.1-4.9H374v-1h1.9v-2.7h1v2.7h1.7v1h-1.7v0.9
			c0.6,0.7,1.3,1.6,2,2.6l-0.6,0.9c-0.6-1.1-1.1-1.8-1.5-2.4L377,530.3L377,530.3z M378.7,530.2l-0.5-0.9c3.3-1.1,5.8-3.2,7.4-6.2
			l0.9,0.4c-0.7,1.3-1.5,2.3-2.4,3.3c1.1,0.9,1.9,1.8,2.6,2.7l-0.7,0.7c-0.6-0.9-1.4-1.8-2.5-2.8
			C382.1,528.6,380.5,529.6,378.7,530.2z M379,519h3.5c-0.2-0.5-0.4-1-0.7-1.4l1-0.2c0.2,0.5,0.4,1,0.6,1.6h3.1v0.9h-3.8
			c-0.8,1.4-1.5,2.3-2,2.9c1.2-0.1,2-0.1,2.6-0.2c0.4-0.5,0.7-1,1-1.6l0.8,0.4c-1.4,2.8-3.5,4.7-6.2,5.7l-0.5-0.8
			c1.7-0.6,3.1-1.5,4.3-2.8c-1.2,0.1-2.3,0.1-3.1,0.2l-0.2-0.8c0.1,0,0.1,0,0.2-0.1c0.6-0.4,1.3-1.3,2.2-2.8h-2.7L379,519L379,519z"
			/>
		<path class="st5" d="M390.4,522c-0.4,2.4-1,4.5-1.7,6.2l-0.9-0.5c0.7-1.7,1.2-3.7,1.6-5.9L390.4,522z M393,529.8
			c-1,0-1.5-0.5-1.5-1.4v-8h1v7.8c0,0.4,0.3,0.6,0.8,0.6h2.6c0.3,0,0.6-0.1,0.7-0.4c0.2-0.3,0.3-1.3,0.4-3l1,0.3
			c-0.1,1.9-0.3,3.1-0.6,3.5c-0.3,0.4-0.7,0.5-1.2,0.5L393,529.8L393,529.8z M393.4,517.5c1.3,1.4,2.3,2.6,3,3.6l-0.8,0.6
			c-0.8-1.2-1.8-2.4-3-3.6L393.4,517.5z M398.5,521.4c0.9,1.8,1.7,3.7,2.3,5.8l-0.9,0.4c-0.7-2.2-1.5-4.2-2.4-5.9L398.5,521.4z"/>
		<path class="st5" d="M406.3,517.6h1v11.1h2v-11.1h1v11.1h4.2v1h-12.4v-1h4.2L406.3,517.6L406.3,517.6z M403.3,520.1
			c0.7,1.9,1.4,4.1,2,6.5l-0.9,0.2c-0.5-2.2-1.1-4.4-1.9-6.5L403.3,520.1z M414.1,520.4c-0.6,2.4-1.3,4.6-2.1,6.4l-0.9-0.3
			c0.8-1.7,1.5-3.8,2.1-6.3L414.1,520.4z"/>
		<path class="st5" d="M421.1,517.5c-0.1,0.3-0.3,0.7-0.5,1.1h6.1v0.8c-0.9,1-2,1.9-3.3,2.6c1.6,0.7,3.4,1.1,5.3,1.3l-0.5,0.9
			c-2.2-0.3-4.2-0.8-5.9-1.7c-1.7,0.8-3.7,1.4-6,1.7l-0.5-1c2-0.3,3.8-0.7,5.3-1.3c-0.8-0.4-1.5-1-2.2-1.6c-0.6,0.5-1.1,0.9-1.8,1.3
			l-0.6-0.8c1.7-1,2.8-2.1,3.4-3.5L421.1,517.5z M422.5,523.6c0,0.5,0,1-0.1,1.6h4.9c0,2.4-0.2,3.8-0.6,4.2
			c-0.4,0.5-1.1,0.7-2.1,0.7c-0.2,0-0.8,0-1.6-0.1l-0.3-0.9l1.7,0.1c0.8,0,1.4-0.2,1.6-0.5s0.3-1.2,0.4-2.6h-4.1
			c-0.1,0.3-0.3,0.7-0.4,1c-0.7,1.3-2.4,2.3-4.9,3.1l-0.7-0.8c2.3-0.7,3.8-1.5,4.5-2.5c0.2-0.3,0.3-0.6,0.4-0.8H417v-0.9h4.5
			c0.1-0.5,0.2-1,0.2-1.6H422.5L422.5,523.6z M425.3,519.5H420l-0.2,0.2c0.8,0.7,1.6,1.3,2.6,1.8C423.4,521,424.4,520.3,425.3,519.5
			z"/>
		<path class="st5" d="M431,518h11.1v1H432v9.7h10.6v1h-11.5L431,518L431,518z M433.9,520.2c1.3,1,2.5,2,3.6,2.9
			c0.8-1,1.5-2.2,2.1-3.5l0.9,0.5c-0.6,1.4-1.4,2.7-2.2,3.7c1.1,1,2.1,2,3,3l-0.8,0.8c-0.8-1-1.8-2-2.9-3c-1.2,1.3-2.7,2.3-4.3,3
			l-0.6-0.9c1.5-0.6,2.9-1.6,4.1-2.8c-1.2-1-2.4-2-3.7-3L433.9,520.2z"/>
	</g>
	<g>
		<g class="st4">
			<rect x="353.1" y="399" class="st5" width="114" height="40"/>
		</g>
		<rect x="351.6" y="397" class="st12" width="113" height="40"/>
	</g>
	<g>
		<path class="st9" d="M389.8,411h11.9v1h-7.4l-0.6,2.3h6l-1.1,7.5h3.4v1h-12.5v-1h8.1l0.4-2.5h-6.6l1.8-7.3h-3.4L389.8,411
			L389.8,411z M398.3,418.4l0.5-3.1h-5.2l-0.8,3.1H398.3z"/>
		<path class="st9" d="M403.4,411h5.6v0.9h-0.9v7.7c0.2-0.1,0.5-0.2,0.9-0.3v1c-0.4,0.1-0.7,0.2-0.9,0.3v2.8h-1v-2.5
			c-1.3,0.3-2.5,0.6-3.5,0.8l-0.3-1l0.9-0.1V412h-0.9L403.4,411L403.4,411z M405.3,414h1.9v-2.1h-1.9V414z M405.3,416.9h1.9v-2h-1.9
			V416.9z M405.3,420.3c0.7-0.2,1.3-0.3,1.9-0.4v-2.1h-1.9V420.3z M409.2,413.5h3.5c0.5-1,1-2,1.4-3l0.9,0.4c-0.4,1.1-0.9,2-1.3,2.7
			h2.1v1h-2.9v0.4c0,0.7,0,1.3-0.1,2h3.2v1h-2.9c0.3,1.5,1.4,3.1,3.1,4.7l-0.7,0.7c-1.6-1.6-2.6-3.2-3-4.7c-0.5,2.2-1.6,3.8-3.2,4.8
			l-0.6-0.8c1.6-1,2.6-2.5,3-4.7H409v-1h2.8c0.1-0.6,0.1-1.2,0.1-1.8v-0.6h-2.7L409.2,413.5L409.2,413.5z M410.6,410.5
			c0.6,0.8,1,1.5,1.3,2.2l-0.8,0.5c-0.3-0.7-0.8-1.4-1.3-2.2L410.6,410.5z"/>
		<path class="st9" d="M418.5,411h11.1v1h-10.1v9.7h10.6v1h-11.5L418.5,411L418.5,411z M421.4,413.2c1.3,1,2.5,2,3.6,2.9
			c0.8-1,1.5-2.2,2.1-3.5l0.9,0.5c-0.6,1.4-1.4,2.7-2.2,3.7c1.1,1,2.1,2,3,3l-0.8,0.8c-0.8-1-1.8-2-2.9-3c-1.2,1.3-2.7,2.3-4.3,3
			l-0.6-0.9c1.5-0.6,2.9-1.6,4.1-2.8c-1.2-1-2.4-2-3.7-3L421.4,413.2z"/>
	</g>
</g>
<g>
	<g class="st10">
		<path class="st1" d="M460.8,21.1c-0.4,1.4-0.9,2.6-1.5,3.7l-0.8-0.5c0.7-1,1.1-2.1,1.4-3.4L460.8,21.1z M458.6,16.8h1.6
			c-0.2-0.6-0.5-1.1-0.7-1.6l0.9-0.3c0.3,0.5,0.5,1.2,0.7,1.9h1.5c0.3-0.6,0.5-1.2,0.7-1.9l0.9,0.3c-0.2,0.6-0.5,1.2-0.7,1.6h1.6
			v0.9h-2.7v1.6h2.5v0.9h-2.5v3.9c0,0.8-0.4,1.2-1.2,1.2h-0.8l-0.2-0.9c0.3,0,0.5,0.1,0.6,0.1c0.4,0,0.5-0.2,0.5-0.6v-3.7h-2.6v-0.9
			h2.6v-1.6h-2.8v-0.9H458.6z M458.8,13.6h2.7c-0.2-0.5-0.5-0.9-0.7-1.2l1-0.2c0.2,0.4,0.4,0.9,0.7,1.4h2.6v0.9h-6.3L458.8,13.6
			L458.8,13.6z M463.9,20.8c0.4,1,0.8,1.8,1,2.5l-0.8,0.3c-0.3-0.9-0.6-1.8-1-2.6L463.9,20.8z M470.9,13.4c-1.3,0.5-2.6,0.8-4.1,0.9
			v2.5h4.6v1h-1.5v7.5h-1v-7.5h-2.1v1.7c-0.1,2.4-0.6,4.3-1.6,5.8l-0.7-0.8c0.8-1.2,1.3-2.9,1.3-5v-6c1.7,0,3.2-0.3,4.6-0.9
			L470.9,13.4z"/>
		<path class="st1" d="M474.9,12.4h1v2.4h2.9c0,4.6-0.1,7.4-0.2,8.5c-0.1,1.2-0.8,1.7-2.1,1.7l-1.1-0.1l-0.3-0.9
			c0.6,0,1,0.1,1.2,0.1c0.7,0,1.2-0.4,1.3-1.2c0.1-0.8,0.1-3.2,0.2-7.1H476v0.3c0,4.2-1,7.3-2.7,9.2l-0.8-0.7
			c1.7-1.7,2.5-4.6,2.5-8.5v-0.3h-2.2v-1h2.2v-2.4H474.9z M484.6,14.1V25h-1v-0.9h-2.5V25h-1V14.1H484.6z M481.1,23.1h2.5v-8h-2.5
			V23.1z"/>
		<path class="st1" d="M486.5,16.1h1.7v-3.7h1v3.7h1.4v1h-1.4v4.6c0.3-0.1,0.7-0.3,1.2-0.5v1c-1.1,0.5-2.3,0.9-3.7,1.2l-0.3-1
			c0.5-0.1,1.1-0.2,1.7-0.4v-4.9h-1.7L486.5,16.1L486.5,16.1z M494.7,12.4h1v1.8h3.3v0.5c-0.1,0.8-0.4,1.6-0.7,2.4l-0.9-0.3
			c0.2-0.5,0.4-1.1,0.6-1.7h-2.3v2.8h2.4v0.9c-0.3,1.4-1,2.7-1.9,3.7c0.8,0.7,1.9,1.3,3.1,1.9l-0.6,0.9c-1.3-0.6-2.4-1.3-3.2-2.1
			c-0.9,0.8-2.1,1.6-3.4,2.1l-0.6-0.8c1.4-0.5,2.5-1.2,3.4-2c-1-1.1-1.7-2.3-2-3.7h-0.5c-0.1,2.5-0.7,4.6-1.9,6.4l-0.8-0.7
			c1.1-1.6,1.7-3.7,1.7-6.2v-4.2h3.3V12.4z M494.7,15.1h-2.4v2.8h2.4V15.1z M497.1,18.8h-3.3c0.3,1.1,0.9,2.1,1.8,3
			C496.3,20.9,496.8,19.9,497.1,18.8z"/>
		<path class="st1" d="M500,13.8h1.3l3.1,8.8l0,0l3.1-8.8h1.3l-3.7,10h-1.4L500,13.8z"/>
		<path class="st1" d="M509.9,13.8h4.1c2.3,0,3.4,1,3.4,2.9c0,2-1.2,3-3.5,3H511v4.1h-1.1V13.8z M511,14.8v3.9h2.9
			c0.8,0,1.4-0.2,1.8-0.5c0.4-0.3,0.6-0.8,0.6-1.5s-0.2-1.2-0.6-1.5c-0.4-0.3-1-0.5-1.8-0.5L511,14.8L511,14.8z"/>
		<path class="st1" d="M526,14.5c0.8,0.6,1.2,1.4,1.3,2.4h-1.1c-0.1-0.7-0.5-1.3-1.1-1.7c-0.5-0.4-1.2-0.6-2-0.6
			c-1.2,0-2.1,0.4-2.7,1.2c-0.6,0.8-0.9,1.8-0.9,3c0,1.3,0.3,2.2,0.9,3c0.6,0.8,1.5,1.2,2.7,1.2c0.8,0,1.5-0.2,2-0.6
			c0.6-0.5,1-1.1,1.2-2h1.1c-0.2,1.2-0.7,2.1-1.6,2.7c-0.8,0.6-1.7,0.9-2.8,0.9c-1.5,0-2.7-0.5-3.6-1.5c-0.7-0.9-1.1-2.1-1.1-3.6
			s0.4-2.7,1.1-3.7c0.8-1.1,2-1.6,3.6-1.6C524.3,13.6,525.2,13.9,526,14.5z"/>
	</g>
</g>
<g>
	<g>
		<g class="st4">
			<rect x="464.3" y="162" class="st5" width="114" height="50"/>
		</g>
		<g>
			<rect x="462.8" y="160.5" class="st6" width="113" height="49"/>
			<path class="st7" d="M575.3,161v48h-112v-48H575.3 M576.3,160h-114v50h114V160L576.3,160z"/>
		</g>
	</g>
	<g>
		<g class="st4">
			<rect x="680.1" y="162" class="st5" width="114" height="50"/>
		</g>
		<g>
			<rect x="678.6" y="160.5" class="st6" width="113" height="49"/>
			<path class="st7" d="M791.1,161v48h-112v-48H791.1 M792.1,160h-114v50h114V160L792.1,160z"/>
		</g>
	</g>
	<polygon class="st2" points="709.2,154.8 714.2,159.8 719.2,154.8 	"/>
	<polygon class="st2" points="719.2,122.9 714.2,117.9 709.2,122.9 	"/>
	<line class="st3" x1="714.2" y1="158.2" x2="714.2" y2="121.4"/>
	<g>
		<g class="st4">
			<rect x="636.1" y="48.3" class="st5" width="158" height="70"/>
		</g>
		<g>
			<rect x="634.4" y="46" class="st13" width="158" height="70"/>
		</g>
		<rect x="654.4" y="55" class="st8" width="32" height="32"/>
		<g>
			<path class="st2" d="M709.9,101.3l3.3,8.6h-1.3l-0.9-2.6h-3.6l-1,2.6h-1.2l3.3-8.6H709.9z M710.7,106.3l-1.4-4l0,0l-1.5,4H710.7z
				"/>
			<path class="st2" d="M718.1,109.9v-1l0,0c-0.2,0.4-0.5,0.7-0.8,0.8s-0.7,0.3-1.2,0.3c-0.4,0-0.7-0.1-1-0.2s-0.5-0.3-0.7-0.5
				s-0.3-0.4-0.4-0.7c-0.1-0.3-0.1-0.6-0.1-0.9v-4.1h1v4.2c0,0.4,0.1,0.7,0.3,0.9c0.2,0.2,0.5,0.3,0.9,0.3c0.3,0,0.6,0,0.8-0.1
				s0.4-0.2,0.6-0.4c0.2-0.2,0.3-0.4,0.3-0.6c0.1-0.2,0.1-0.5,0.1-0.8v-3.5h1v6.2L718.1,109.9L718.1,109.9L718.1,109.9z"/>
			<path class="st2" d="M723.3,103.7v0.9h-1.2v3.9c0,0.1,0,0.2,0,0.3s0.1,0.1,0.1,0.2c0.1,0,0.1,0.1,0.2,0.1s0.2,0,0.4,0h0.5v0.9
				h-0.8c-0.3,0-0.5,0-0.7-0.1c-0.2,0-0.3-0.1-0.5-0.2c-0.1-0.1-0.2-0.2-0.3-0.4c-0.1-0.2-0.1-0.4-0.1-0.7v-3.9h-1.1v-0.9h1.1v-1.9
				h1v1.9L723.3,103.7L723.3,103.7z"/>
			<path class="st2" d="M724.3,105.5c0.1-0.4,0.3-0.7,0.6-1s0.6-0.5,0.9-0.7c0.4-0.2,0.8-0.3,1.3-0.3s0.9,0.1,1.3,0.3
				c0.4,0.2,0.7,0.4,0.9,0.7c0.3,0.3,0.4,0.6,0.6,1c0.1,0.4,0.2,0.8,0.2,1.3s-0.1,0.9-0.2,1.3c-0.1,0.4-0.3,0.7-0.6,1
				s-0.6,0.5-0.9,0.7c-0.4,0.2-0.8,0.2-1.3,0.2s-0.9-0.1-1.3-0.2c-0.4-0.2-0.7-0.4-0.9-0.7c-0.3-0.3-0.4-0.6-0.6-1
				c-0.1-0.4-0.2-0.8-0.2-1.3S724.1,105.9,724.3,105.5z M725.3,107.8c0.1,0.3,0.2,0.5,0.4,0.7s0.4,0.3,0.6,0.5s0.5,0.2,0.8,0.2
				s0.5-0.1,0.8-0.2s0.4-0.3,0.6-0.5c0.2-0.2,0.3-0.4,0.4-0.7c0.1-0.3,0.2-0.6,0.2-1s0-0.7-0.2-1c-0.1-0.3-0.2-0.5-0.4-0.7
				s-0.4-0.4-0.6-0.5c-0.2-0.1-0.5-0.2-0.8-0.2s-0.5,0.1-0.8,0.2c-0.2,0.1-0.4,0.3-0.6,0.5c-0.2,0.2-0.3,0.4-0.4,0.7
				c-0.1,0.3-0.2,0.6-0.2,1C725.1,107.1,725.2,107.5,725.3,107.8z"/>
			<path class="st2" d="M739.1,102.5c-0.4-0.3-0.9-0.4-1.5-0.4c-0.2,0-0.5,0-0.7,0.1c-0.2,0-0.4,0.1-0.6,0.2
				c-0.2,0.1-0.3,0.3-0.4,0.4c-0.1,0.2-0.2,0.4-0.2,0.7c0,0.3,0.1,0.5,0.2,0.6s0.4,0.3,0.6,0.4s0.6,0.2,0.9,0.3s0.7,0.1,1,0.2
				s0.7,0.2,1,0.3c0.3,0.1,0.6,0.3,0.9,0.4c0.3,0.2,0.5,0.4,0.6,0.7c0.2,0.3,0.2,0.6,0.2,1.1s-0.1,0.8-0.3,1.2
				c-0.2,0.3-0.5,0.6-0.8,0.8c-0.3,0.2-0.7,0.4-1.1,0.4s-0.8,0.1-1.2,0.1c-0.5,0-0.9-0.1-1.4-0.2c-0.4-0.1-0.8-0.3-1.1-0.5
				s-0.6-0.6-0.8-0.9c-0.2-0.4-0.3-0.8-0.3-1.3h1.1c0,0.4,0.1,0.7,0.2,0.9s0.3,0.5,0.6,0.6c0.2,0.2,0.5,0.3,0.8,0.4s0.6,0.1,0.9,0.1
				c0.3,0,0.5,0,0.8-0.1c0.3,0,0.5-0.1,0.7-0.2s0.4-0.3,0.5-0.5s0.2-0.5,0.2-0.8s-0.1-0.5-0.2-0.7c-0.2-0.2-0.4-0.3-0.6-0.4
				s-0.6-0.2-0.9-0.3c-0.3-0.1-0.7-0.1-1-0.2s-0.7-0.2-1-0.3s-0.6-0.2-0.9-0.4s-0.5-0.4-0.6-0.6c-0.2-0.3-0.2-0.6-0.2-1
				s0.1-0.8,0.3-1.1s0.4-0.6,0.7-0.8c0.3-0.2,0.6-0.4,1-0.5s0.8-0.2,1.1-0.2c0.4,0,0.8,0.1,1.2,0.2s0.7,0.3,1,0.5s0.5,0.5,0.7,0.8
				s0.3,0.7,0.3,1.2h-1.1C739.7,103.2,739.5,102.7,739.1,102.5z"/>
			<path class="st2" d="M746.1,104.7c-0.3-0.2-0.6-0.3-1-0.3s-0.7,0.1-0.9,0.2s-0.4,0.3-0.6,0.5c-0.1,0.2-0.3,0.5-0.3,0.8
				c-0.1,0.3-0.1,0.6-0.1,0.9s0,0.6,0.1,0.8c0.1,0.3,0.2,0.5,0.3,0.7s0.3,0.4,0.6,0.5c0.2,0.1,0.5,0.2,0.8,0.2
				c0.5,0,0.9-0.1,1.2-0.4s0.5-0.6,0.5-1.1h1c-0.1,0.8-0.4,1.4-0.9,1.8s-1.1,0.6-1.9,0.6c-0.5,0-0.9-0.1-1.3-0.2
				c-0.4-0.2-0.7-0.4-0.9-0.6c-0.2-0.3-0.4-0.6-0.6-1c-0.1-0.4-0.2-0.8-0.2-1.3s0.1-0.9,0.2-1.3c0.1-0.4,0.3-0.8,0.5-1.1
				c0.2-0.3,0.5-0.5,0.9-0.7s0.8-0.3,1.3-0.3c0.4,0,0.7,0,1,0.1s0.6,0.2,0.8,0.4s0.4,0.4,0.6,0.7c0.2,0.3,0.2,0.6,0.3,1h-1.1
				C746.5,105.3,746.4,104.9,746.1,104.7z"/>
			<path class="st2" d="M754.3,109.8c-0.2,0.1-0.4,0.2-0.7,0.2s-0.5-0.1-0.6-0.2c-0.2-0.1-0.2-0.4-0.2-0.7c-0.3,0.3-0.6,0.6-1,0.7
				s-0.8,0.2-1.2,0.2c-0.3,0-0.5,0-0.8-0.1s-0.5-0.2-0.7-0.3c-0.2-0.1-0.3-0.3-0.4-0.5c-0.1-0.2-0.2-0.5-0.2-0.8
				c0-0.4,0.1-0.6,0.2-0.9c0.1-0.2,0.3-0.4,0.5-0.5s0.4-0.2,0.7-0.3s0.5-0.1,0.8-0.2s0.5-0.1,0.8-0.1s0.5-0.1,0.7-0.1
				c0.2-0.1,0.3-0.1,0.5-0.2s0.2-0.2,0.2-0.4c0-0.2,0-0.4-0.1-0.5s-0.2-0.2-0.3-0.3c-0.1-0.1-0.3-0.1-0.4-0.1s-0.3,0-0.5,0
				c-0.4,0-0.8,0.1-1.1,0.2c-0.3,0.2-0.4,0.5-0.5,0.9h-1c0-0.4,0.1-0.7,0.2-1c0.1-0.3,0.3-0.5,0.6-0.6c0.2-0.2,0.5-0.3,0.8-0.4
				s0.6-0.1,1-0.1c0.3,0,0.6,0,0.8,0.1c0.3,0,0.5,0.1,0.8,0.2c0.2,0.1,0.4,0.3,0.5,0.5s0.2,0.5,0.2,0.9v3.2c0,0.2,0,0.4,0,0.5
				s0.1,0.2,0.3,0.2c0.1,0,0.2,0,0.3,0L754.3,109.8L754.3,109.8z M752.7,106.7c-0.1,0.1-0.3,0.2-0.5,0.2s-0.4,0.1-0.7,0.1
				c-0.2,0-0.5,0.1-0.7,0.1s-0.4,0.1-0.6,0.2c-0.2,0.1-0.3,0.2-0.4,0.3c-0.1,0.1-0.2,0.3-0.2,0.6c0,0.2,0,0.3,0.1,0.4
				s0.2,0.2,0.3,0.3c0.1,0.1,0.2,0.1,0.4,0.2s0.3,0,0.5,0c0.3,0,0.6,0,0.9-0.1s0.4-0.2,0.6-0.3c0.2-0.1,0.3-0.3,0.3-0.5
				c0.1-0.2,0.1-0.3,0.1-0.5L752.7,106.7L752.7,106.7z"/>
			<path class="st2" d="M756.4,101.3v8.6h-1v-8.6H756.4z"/>
			<path class="st2" d="M758,102.5v-1.2h1v1.2H758z M759,103.7v6.2h-1v-6.2H759z"/>
			<path class="st2" d="M761.6,103.7v1l0,0c0.4-0.8,1.1-1.1,2-1.1c0.4,0,0.7,0.1,1,0.2s0.5,0.3,0.7,0.5s0.3,0.4,0.4,0.7
				c0.1,0.3,0.1,0.6,0.1,0.9v4.1h-1v-4.2c0-0.4-0.1-0.7-0.3-0.9c-0.2-0.2-0.5-0.3-0.9-0.3c-0.3,0-0.6,0-0.8,0.1s-0.4,0.2-0.6,0.4
				c-0.2,0.2-0.3,0.4-0.3,0.6c-0.1,0.2-0.1,0.5-0.1,0.8v3.5h-1v-6.2L761.6,103.7L761.6,103.7z"/>
			<path class="st2" d="M771.9,111.6c-0.5,0.5-1.2,0.8-2.2,0.8c-0.3,0-0.6,0-0.9-0.1c-0.3-0.1-0.6-0.2-0.8-0.3s-0.4-0.3-0.6-0.6
				s-0.2-0.5-0.3-0.9h1c0,0.2,0.1,0.3,0.2,0.5c0.1,0.1,0.2,0.2,0.4,0.3s0.3,0.1,0.5,0.2c0.2,0,0.4,0.1,0.5,0.1
				c0.3,0,0.6-0.1,0.9-0.2c0.2-0.1,0.4-0.3,0.6-0.5c0.2-0.2,0.3-0.4,0.3-0.7c0.1-0.3,0.1-0.6,0.1-0.9v-0.4l0,0
				c-0.2,0.4-0.4,0.7-0.8,0.8s-0.7,0.3-1.1,0.3c-0.5,0-0.9-0.1-1.2-0.3c-0.3-0.2-0.6-0.4-0.9-0.7c-0.2-0.3-0.4-0.6-0.5-1
				s-0.2-0.8-0.2-1.2c0-0.4,0-0.7,0.1-1.1s0.3-0.7,0.5-1.1c0.2-0.3,0.5-0.6,0.9-0.8c0.4-0.2,0.8-0.3,1.4-0.3c0.4,0,0.8,0.1,1.1,0.3
				s0.6,0.4,0.8,0.8l0,0v-0.9h1v5.7C772.6,110.3,772.4,111.1,771.9,111.6z M770.6,108.8c0.2-0.1,0.4-0.3,0.6-0.6
				c0.1-0.2,0.3-0.5,0.3-0.8c0.1-0.3,0.1-0.6,0.1-0.9s0-0.5-0.1-0.8s-0.2-0.5-0.3-0.7s-0.3-0.4-0.5-0.5s-0.5-0.2-0.8-0.2
				s-0.6,0.1-0.8,0.2s-0.4,0.3-0.6,0.5c-0.1,0.2-0.3,0.4-0.3,0.7c-0.1,0.3-0.1,0.6-0.1,0.9s0,0.6,0.1,0.8c0.1,0.3,0.2,0.5,0.3,0.8
				c0.1,0.2,0.3,0.4,0.5,0.6c0.2,0.1,0.5,0.2,0.8,0.2S770.4,109,770.6,108.8z"/>
		</g>
		<g>
			<g>
				<polygon class="st2" points="785.3,108.1 776.9,99.8 776.2,100.5 784.6,108.8 782.4,111 787.4,111 787.4,106 				"/>
			</g>
		</g>
		<rect x="634.9" y="46.5" class="st14" width="141.7" height="49"/>
		<g id="XMLID_785_">
			<g>
				<path class="st1" d="M670.4,84c-7.2,0-13-5.8-13-13s5.8-13,13-13c6.5,0,11.9,4.8,12.8,11h2c-1-7.3-7.2-13-14.9-13
					c-8.3,0-15,6.7-15,15s6.7,15,15,15c7.6,0,13.9-5.7,14.9-13h-2C682.3,79.2,676.9,84,670.4,84z M677.4,67l-7-4l-7,4v8l3.2,1.8
					c0.2-0.7,0.6-1.2,1-1.7l-2.2-1.3v-3.7l5,2.9l5-2.9v3.7l-4.1,2.4c-0.3-0.1-0.6-0.2-0.9-0.2c-1.1,0-2,0.9-2,2s0.9,2,2,2s2-0.9,2-2
					v-0.1l5-2.9V67z M670.4,70.7l-4.7-2.7l4.7-2.7l4.7,2.7L670.4,70.7z"/>
			</g>
		</g>
		<g>
			<path class="st9" d="M715.5,66.5c0.8,0.6,1.2,1.4,1.3,2.4h-1.1c-0.1-0.7-0.5-1.3-1.1-1.7c-0.5-0.4-1.2-0.6-2-0.6
				c-1.2,0-2.1,0.4-2.7,1.2c-0.6,0.8-0.9,1.8-0.9,3c0,1.3,0.3,2.3,0.9,3c0.6,0.8,1.5,1.2,2.7,1.2c0.8,0,1.5-0.2,2-0.6
				c0.6-0.5,1-1.1,1.2-2h1.1c-0.2,1.2-0.7,2.1-1.6,2.7c-0.8,0.6-1.7,0.9-2.8,0.9c-1.5,0-2.7-0.5-3.6-1.5c-0.7-0.9-1.1-2.1-1.1-3.6
				s0.4-2.7,1.1-3.7c0.8-1.1,2-1.6,3.6-1.6C713.8,65.7,714.8,66,715.5,66.5z"/>
			<path class="st9" d="M717.7,65.9h1.3l3.1,8.8l0,0l3.1-8.8h1.3l-3.7,10h-1.4L717.7,65.9z"/>
			<path class="st9" d="M727.5,65.9h1.4l3.7,8.5l0,0l3.7-8.5h1.4v10h-1.1v-8l0,0l-3.5,8h-1l-3.5-8l0,0v8h-1.1L727.5,65.9L727.5,65.9
				z"/>
		</g>
	</g>
	<g>
		<path class="st9" d="M493,183.9h4c0.1-0.5,0.3-1,0.4-1.7h-3.5v-1h3.7c0.1-0.4,0.2-0.9,0.4-1.7l1,0.1l-0.3,1.6h6v0.9h-6.2
			c-0.1,0.6-0.3,1.2-0.4,1.7h7.5v1h-7.8c-0.1,0.4-0.3,1.1-0.6,1.9h6.7v0.9c-0.7,1.1-1.7,2.1-3.2,3.1c0.8,0.3,1.6,0.6,2.4,1l-0.6,0.9
			c-2.1-1-4.2-1.8-6.5-2.4l0.5-0.8c0.9,0.3,1.9,0.6,3,0.9c1.3-0.8,2.3-1.7,3.1-2.7h-6.9c0.4-1,0.7-1.9,1-2.8H493V183.9L493,183.9z"
			/>
		<path class="st9" d="M510.3,179.9c-0.7,1.8-1.4,3.3-2.2,4.4c0.5,0,1.2-0.1,1.9-0.2l0.8-1.6l0.9,0.3c-1.2,2.3-2.2,4-3.1,5
			c1-0.2,2-0.5,3-0.8v0.9c-1.5,0.5-2.9,0.8-4.2,1l-0.3-0.9c0.2-0.1,0.3-0.2,0.5-0.3c0.5-0.5,1.1-1.5,1.9-2.8
			c-0.5,0.1-1.3,0.2-2.3,0.3l-0.2-0.9c0.1-0.1,0.3-0.2,0.4-0.4c0.8-1.3,1.4-2.8,2-4.4L510.3,179.9z M511.9,190.6
			c-1.4,0.5-3,1-4.7,1.3l-0.1-1c1.8-0.3,3.4-0.7,4.8-1.3L511.9,190.6L511.9,190.6z M518.7,182.1l0.1,0.9l-3.6,0.5
			c0,0.7,0.1,1.3,0.1,1.9l3.7-0.6l0.2,1l-3.8,0.6c0,0.2,0.1,0.5,0.1,0.7c0.1,0.7,0.3,1.3,0.5,1.9c0.8-0.7,1.4-1.5,2-2.4l0.8,0.5
			c-0.8,1.1-1.6,2-2.4,2.8l0.2,0.3c0.5,0.7,0.9,1,1.2,1c0.4,0,0.7-0.8,0.9-2.3l0.9,0.6c-0.4,1.9-1,2.8-1.7,2.8s-1.3-0.5-1.9-1.3
			c-0.1-0.2-0.2-0.4-0.3-0.5c-1,0.8-2.2,1.3-3.3,1.7l-0.6-0.8c1.3-0.4,2.5-1,3.5-1.8c-0.3-0.6-0.5-1.3-0.6-2
			c-0.1-0.3-0.1-0.6-0.2-1.1l-2.5,0.4l-0.1-1l2.5-0.4c-0.1-0.6-0.1-1.2-0.1-1.9l-2,0.3l-0.2-0.9l2.1-0.3v-3.1h1v3L518.7,182.1z
			 M516.7,179.6c0.7,0.7,1.3,1.3,1.7,1.7l-0.8,0.5c-0.4-0.5-0.9-1.1-1.7-1.8L516.7,179.6z"/>
		<path class="st9" d="M530.2,192.4l-0.3-1h1.3c0.4,0,0.6-0.2,0.6-0.6v-9.6h-9.2v11.3h-1v-12.3h11.2v10.9c0,0.9-0.4,1.3-1.2,1.3
			L530.2,192.4L530.2,192.4L530.2,192.4z M526.9,189.3c-0.4-0.6-0.8-1.3-1.3-2c-0.5,1.4-1.1,2.5-1.8,3.5l-0.6-0.8
			c0.7-1,1.3-2.3,1.8-3.7c-0.6-0.9-1.3-1.7-2-2.4l0.6-0.6c0.6,0.6,1.1,1.3,1.7,2c0.3-1,0.5-2.1,0.7-3.2l0.9,0.2
			c-0.2,1.4-0.5,2.8-0.9,3.9c0.6,0.8,1.2,1.6,1.7,2.4L526.9,189.3z M531,189.9c-0.4-0.7-0.9-1.5-1.4-2.3c-0.6,1.4-1.2,2.5-2,3.5
			l-0.6-0.8c0.8-1.1,1.4-2.3,2-3.7c-0.7-1-1.3-1.9-1.9-2.6l0.6-0.6c0.6,0.6,1.1,1.4,1.7,2.1c0.3-1,0.5-2.1,0.7-3.4l1,0.2
			c-0.3,1.5-0.6,3-1,4.2c0.6,0.9,1.2,1.8,1.7,2.7L531,189.9z"/>
		<path class="st9" d="M544.9,179.8c-0.3,1-0.8,1.9-1.3,2.7h2.9v1h-4.7v0.7c0,0.8-0.1,1.4-0.2,1.9h5.7v1h-5.1
			c0.7,1.9,2.5,3.4,5.4,4.4l-0.6,0.9c-3.1-1.2-5-2.9-5.7-5.1c-0.3,0.8-0.6,1.5-1.1,2.1c-1,1.2-2.5,2.2-4.7,2.9l-0.5-0.9
			c2.1-0.7,3.6-1.6,4.5-2.7c0.3-0.5,0.6-1.1,0.8-1.7h-5v-1h5.3c0.1-0.6,0.2-1.3,0.2-1.9v-0.7h-4.7v-1h6.4c0.5-0.8,1-1.8,1.4-3
			L544.9,179.8z M538.6,179.7c0.6,0.8,1.1,1.5,1.6,2.4l-0.9,0.5c-0.5-0.9-1.1-1.7-1.6-2.4L538.6,179.7z"/>
	</g>
	<polygon class="st2" points="671.9,191.1 676.9,186.1 671.9,181.1 	"/>
	<polygon class="st2" points="581.5,181.1 576.5,186.1 581.5,191.1 	"/>
	<g class="st10">
		<path class="st9" d="M713.4,179.3h4.3v4.4h-1.4v2.3h1.5v1h-1.5v2.6c0.8-0.2,1.3-0.4,1.8-0.6v1c-1.4,0.5-3.2,1-5.1,1.5l-0.3-1
			l0.7-0.2v-5.1h0.9v4.9l1-0.3v-6.1h-2L713.4,179.3L713.4,179.3z M716.7,182.8v-2.5h-2.4v2.5H716.7z M721.3,178.9
			c-0.1,0.3-0.2,0.7-0.4,1h3.5v0.7c-0.5,1.2-1.2,2.2-2.1,3.1c0.9,0.8,2,1.3,3.3,1.8l-0.6,0.8c-1.4-0.4-2.5-1.1-3.5-1.9
			c-1,0.8-2.1,1.4-3.4,2l-0.6-0.8c1.3-0.5,2.4-1.1,3.3-1.9c-0.5-0.5-0.9-1.1-1.3-1.8c-0.3,0.4-0.7,0.8-1.2,1.2l-0.6-0.8
			c1.2-1,2.1-2.2,2.5-3.6L721.3,178.9z M724.3,186.3v5.2h-1v-0.6h-3.5v0.6h-1v-5.2H724.3z M719.9,190h3.5v-2.7h-3.5V190z
			 M720.2,181.1c0.4,0.8,0.9,1.4,1.4,1.9c0.7-0.7,1.3-1.5,1.7-2.3h-2.9L720.2,181.1z"/>
		<path class="st9" d="M738.3,181v10.5h-1v-0.9h-8.4v0.9h-1V181h4.7v-2.2h1v2.2H738.3z M728.9,185.2h3.7V182h-3.7V185.2z
			 M728.9,189.6h3.7v-3.5h-3.7V189.6z M733.6,181.9v3.2h3.7v-3.2H733.6z M733.6,189.6h3.7v-3.5h-3.7V189.6z"/>
		<path class="st9" d="M741.5,179.9h5v-1.2h1v1.2h5v0.9h-5v1.3h4.2v0.9h-4.2v1.3h5.5v0.9h-5c0.4,0.9,0.8,1.7,1.4,2.4
			c0.8-0.4,1.5-0.9,2.3-1.7l0.7,0.7c-0.7,0.7-1.5,1.3-2.4,1.7c0.9,1,2,1.7,3.3,2.2l-0.5,0.9c-2.6-1.1-4.5-3.1-5.7-6.1h-0.5
			c-0.5,0.7-1.1,1.3-1.9,1.9v3c1-0.3,2-0.6,3.1-1.1l0.2,0.9c-1.5,0.6-2.9,1.1-4.4,1.4l-0.3-0.9c0.3-0.1,0.4-0.3,0.4-0.5v-2
			c-0.8,0.5-1.6,0.9-2.5,1.3l-0.5-0.9c2.2-0.8,3.9-1.8,4.9-3H741v-0.9h5.5v-1.3h-4.2v-0.9h4.2V181h-5V179.9z"/>
	</g>
	<polygon class="st15" points="499.4,58.3 528,58.3 528,58.3 	"/>
	<line class="st3" x1="671.9" y1="186.1" x2="577.6" y2="186.1"/>
</g>
<polygon class="st2" points="404.7,389.3 409.7,394.3 414.7,389.3 "/>
<polygon class="st2" points="414.7,337.5 409.7,332.5 404.7,337.5 "/>
<line class="st3" x1="409.7" y1="392.3" x2="409.7" y2="335.7"/>
<g class="st10">
	<path class="st9" d="M418.2,372.9c-0.1,0.6-0.3,1.2-0.6,1.8l-0.6-0.2c0.5-1.3,0.8-2.6,0.9-4h0.6c0,0.5-0.1,1.1-0.2,1.7h1v-2.6h0.6
		v2.6h1.1v0.6h-1v3.1c0.3-0.2,0.7-0.3,1.1-0.5v0.6c-0.4,0.2-0.8,0.4-1.1,0.5v4h-0.6V377c-0.7,0.3-1.3,0.5-2,0.7l-0.2-0.6
		c0.7-0.2,1.5-0.4,2.1-0.7V373h-1.1V372.9z M423.4,369.8c-0.2,0.8-0.3,1.4-0.5,1.9h4.7c0,3.9-0.1,6.3-0.2,7.2
		c-0.1,1.1-0.8,1.6-1.9,1.6c-0.2,0-0.5,0-0.9,0l-0.1-0.6c0.4,0,0.7,0,1,0c0.8,0,1.2-0.4,1.4-1.2c0.1-0.7,0.1-2.8,0.2-6.4h-1
		c-0.3,2.1-0.6,3.7-1.1,4.8c-0.6,1.2-1.4,2.4-2.4,3.3L422,380c1-0.9,1.8-1.9,2.3-3.1c0.5-1.1,0.9-2.7,1.1-4.6h-1.1
		c-0.5,2.6-1.4,4.6-2.8,5.8l-0.4-0.5c1.3-1.1,2.1-2.9,2.6-5.3h-1c-0.3,0.8-0.7,1.4-1.1,2l-0.5-0.4c0.8-1,1.4-2.4,1.7-4.2
		L423.4,369.8z"/>
	<path class="st9" d="M429.4,374.2h1.4v-3h-1.5v-0.6h3.7v0.6h-1.5v3h1.4v0.6h-1.4v2.9c0.5-0.2,1-0.4,1.6-0.6v0.6
		c-1.1,0.5-2.4,0.9-3.8,1.3l-0.2-0.6c0.5-0.1,1.1-0.3,1.7-0.4v-3.2h-1.4L429.4,374.2L429.4,374.2z M433.8,370.2h5.7v5.4H437v1.6h2.7
		v0.6H437v1.7h3.1v0.6h-6.9v-0.6h3.1v-1.7h-2.8v-0.6h2.8v-1.6h-2.5L433.8,370.2L433.8,370.2z M434.4,372.6h1.9v-1.8h-1.9V372.6z
		 M436.3,375v-1.8h-1.9v1.8H436.3z M436.9,370.8v1.8h1.9v-1.8H436.9z M438.8,375v-1.8h-1.9v1.8H438.8z"/>
	<path class="st9" d="M441.3,373.4h3.5c0.1-0.4,0.3-0.9,0.4-1.7h-3.1v-0.6h3.2c0.1-0.7,0.2-1.2,0.3-1.5l0.6,0.1
		c-0.1,0.5-0.2,1-0.3,1.5h5.3v0.6h-5.4c-0.2,0.8-0.3,1.4-0.4,1.7h6.6v0.6h-6.7c-0.2,0.6-0.4,1.2-0.6,1.8h5.9v0.6
		c-0.6,1-1.6,1.9-2.8,2.8c0.8,0.3,1.5,0.6,2.2,1l-0.4,0.6c-1.8-0.9-3.7-1.6-5.6-2.2l0.3-0.5c0.9,0.2,1.8,0.5,2.7,0.9
		c1.2-0.8,2.1-1.7,2.8-2.5h-6c0.3-0.8,0.6-1.6,0.8-2.4h-3.3V373.4z"/>
	<path class="st9" d="M456,369.9c-0.6,1.7-1.3,3-2,3.9c0.6-0.1,1.2-0.1,1.9-0.2c0.5-1,0.8-1.5,0.7-1.4l0.6,0.2
		c-1.1,2.1-2.1,3.6-2.8,4.5c1-0.2,1.9-0.4,2.8-0.7v0.6c-1.3,0.4-2.4,0.7-3.6,0.8l-0.2-0.6c0.1,0,0.2-0.1,0.3-0.2
		c0.5-0.5,1.1-1.4,1.8-2.6c-0.8,0.1-1.5,0.2-2.2,0.3l-0.2-0.6c0.1,0,0.2-0.1,0.3-0.3c0.7-1.1,1.3-2.4,1.9-4L456,369.9z M457.4,379
		c-1.2,0.5-2.6,0.9-4,1.1l-0.1-0.6c1.6-0.3,3-0.7,4.1-1.1V379z M463.2,371.9l0.1,0.6l-3.2,0.4c0,0.7,0.1,1.3,0.1,1.8l3.3-0.5
		l0.1,0.6l-3.3,0.5c0,0.2,0.1,0.5,0.1,0.8c0.1,0.6,0.3,1.2,0.5,1.7c0.7-0.6,1.3-1.3,1.9-2.2l0.5,0.3c-0.7,1-1.4,1.8-2.2,2.5
		c0.1,0.2,0.2,0.3,0.2,0.4c0.4,0.6,0.8,0.9,1.1,0.9s0.6-0.7,0.9-2.1l0.6,0.4c-0.3,1.6-0.8,2.4-1.4,2.4s-1.1-0.4-1.6-1.1
		c-0.1-0.1-0.2-0.3-0.3-0.5c-0.9,0.7-1.9,1.2-2.9,1.5l-0.4-0.5c1.1-0.4,2.2-0.9,3-1.6c-0.2-0.5-0.4-1.1-0.6-1.8c0-0.2-0.1-0.6-0.2-1
		l-2.2,0.4l-0.1-0.6l2.3-0.4c-0.1-0.6-0.1-1.2-0.1-1.8l-1.8,0.3l-0.1-0.6l1.9-0.3v-2.7h0.6v2.6L463.2,371.9z M461.5,369.7
		c0.6,0.6,1.1,1.1,1.5,1.5l-0.5,0.4c-0.3-0.5-0.8-1-1.5-1.6L461.5,369.7z"/>
</g>
<g>
	<path class="st9" d="M326.9,241.2c0.1-0.5,0.3-1.1,0.4-1.6H324v-0.9h3.4c0.1-0.5,0.2-1,0.3-1.6l1,0.1c-0.1,0.5-0.2,1-0.3,1.5h5.6
		v0.9h-5.8c-0.1,0.6-0.3,1.1-0.4,1.6h6.9v0.9h-7.2c-0.2,0.6-0.4,1.2-0.6,1.7h6.2v0.8c-0.6,1-1.6,1.9-2.9,2.9
		c0.8,0.3,1.5,0.6,2.2,0.9l-0.5,0.8c-1.9-1-3.9-1.7-6-2.3l0.5-0.7c1,0.3,1.9,0.6,2.8,0.9c1.2-0.8,2.1-1.6,2.8-2.5h-6.4
		c0.3-0.8,0.6-1.7,0.9-2.6h-3.4v-0.9H326.9z"/>
	<path class="st9" d="M323.8,264.5l-0.7-0.6c0.8-1.2,1.3-2.6,1.3-4.4v-6.2h9.6v9.7c0,0.9-0.5,1.4-1.4,1.4h-1.5l-0.2-0.9
		c0.5,0,1,0.1,1.4,0.1c0.5,0,0.7-0.3,0.7-0.8v-2.3h-3.5v3.8h-1v-3.8h-3.3C325.1,262.1,324.6,263.4,323.8,264.5z M325.3,254.2v2.2
		h3.3v-2.2H325.3z M325.3,259.5h3.3v-2.3h-3.3V259.5z M333,254.2h-3.5v2.2h3.5V254.2z M333,257.3h-3.5v2.3h3.5V257.3z"/>
	<path class="st9" d="M329.4,279.9c-0.8,0-1.5-0.1-2-0.2c-0.5-0.2-1-0.5-1.4-0.9c-0.2-0.2-0.3-0.3-0.5-0.3c-0.3,0-0.8,0.6-1.5,1.8
		l-0.7-0.6c0.7-1.1,1.3-1.7,1.8-2v-3.9h-1.8v-0.9h2.7v4.8c0.1,0.1,0.2,0.2,0.3,0.3c0.3,0.4,0.6,0.6,1,0.8c0.4,0.2,1,0.3,1.8,0.3
		c0.7,0,1.5,0,2.6,0c0.6,0,1.2,0,1.9,0c0.6,0,1.1,0,1.4-0.1l-0.2,0.9h-2.9C331,279.9,330.2,279.9,329.4,279.9z M326.4,270.5
		l-0.7,0.6c-0.5-0.6-1.3-1.3-2.2-2.1l0.6-0.6C325,269.2,325.8,269.8,326.4,270.5z M330.9,270.7c0.7-0.3,1.3-0.7,1.9-1.2H327v-0.8h7
		v0.7c-0.8,0.7-1.6,1.3-2.5,1.7l0.2,0.2h2.6v5.8c0,0.7-0.4,1-1.1,1h-1.1l-0.2-0.8l1,0c0.3,0,0.5-0.2,0.5-0.4v-1h-2.2v2.2h-0.9V276
		h-2.2v2.3h-0.9v-6.9h3.2c-0.5-0.3-1.1-0.7-1.7-1l0.6-0.6C329.9,270.1,330.4,270.4,330.9,270.7z M330.3,272.1h-2.2v1.2h2.2V272.1z
		 M328.2,275.2h2.2v-1.1h-2.2V275.2z M333.4,272.1h-2.2v1.2h2.2V272.1z M331.2,275.2h2.2v-1.1h-2.2V275.2z"/>
	<path class="st9" d="M329.4,295.4c-0.8,0-1.5-0.1-2-0.2c-0.5-0.2-1-0.5-1.4-0.9c-0.2-0.2-0.3-0.3-0.5-0.3c-0.3,0-0.8,0.6-1.6,1.8
		l-0.7-0.6c0.7-1.1,1.3-1.8,1.9-2v-3.9h-1.9v-0.9h2.8v4.8c0.1,0.1,0.2,0.2,0.3,0.3c0.3,0.4,0.6,0.6,1,0.8c0.4,0.2,1,0.3,1.7,0.3
		c0.7,0,1.5,0,2.5,0c0.6,0,1.2,0,1.9,0c0.6,0,1.1,0,1.4-0.1l-0.2,0.9h-3C331,295.5,330.2,295.4,329.4,295.4z M326.4,286.1l-0.7,0.6
		c-0.5-0.6-1.3-1.3-2.2-2.1l0.6-0.6C325,284.7,325.8,285.4,326.4,286.1z M329,285.3c-0.2-0.4-0.4-0.8-0.7-1.1l0.9-0.3
		c0.3,0.4,0.6,0.9,0.8,1.4h1.5c0.3-0.5,0.6-1,0.8-1.5l0.9,0.3c-0.2,0.4-0.5,0.8-0.7,1.2h2.2v0.9H331c-0.1,0.4-0.2,0.7-0.3,1h3.1v6.2
		h-6.1v-6.2h2.1c0.1-0.3,0.2-0.7,0.3-1h-3.2v-0.9H329z M332.9,289v-1h-4.4v1H332.9z M332.9,290.8v-1h-4.4v1H332.9z M332.9,291.5
		h-4.4v1.1h4.4V291.5z"/>
</g>
<g>
	<path class="st9" d="M489.1,241.2c0.1-0.5,0.3-1.1,0.4-1.6h-3.2v-0.9h3.4c0.1-0.5,0.2-1,0.3-1.6l1,0.1c-0.1,0.5-0.2,1-0.3,1.5h5.6
		v0.9h-5.8c-0.1,0.6-0.3,1.1-0.4,1.6h6.9v0.9h-7.2c-0.2,0.6-0.4,1.2-0.6,1.7h6.2v0.8c-0.6,1-1.6,1.9-2.9,2.9
		c0.8,0.3,1.5,0.6,2.2,0.9l-0.5,0.8c-1.9-1-3.9-1.7-6-2.3l0.5-0.7c1,0.3,1.9,0.6,2.8,0.9c1.2-0.8,2.1-1.6,2.8-2.5H488
		c0.3-0.8,0.6-1.7,0.9-2.6h-3.4v-0.9H489.1z"/>
	<path class="st9" d="M486,264.5l-0.7-0.6c0.8-1.2,1.3-2.6,1.3-4.4v-6.2h9.6v9.7c0,0.9-0.5,1.4-1.4,1.4h-1.5l-0.2-0.9
		c0.5,0,1,0.1,1.4,0.1c0.5,0,0.7-0.3,0.7-0.8v-2.3h-3.5v3.8h-1v-3.8h-3.3C487.3,262.1,486.8,263.4,486,264.5z M487.5,254.2v2.2h3.3
		v-2.2H487.5z M487.5,259.5h3.3v-2.3h-3.3V259.5z M495.3,254.2h-3.5v2.2h3.5V254.2z M495.3,257.3h-3.5v2.3h3.5V257.3z"/>
	<path class="st9" d="M491.6,279.9c-0.8,0-1.5-0.1-2-0.2c-0.5-0.2-1-0.5-1.4-0.9c-0.2-0.2-0.3-0.3-0.5-0.3c-0.3,0-0.8,0.6-1.5,1.8
		l-0.7-0.6c0.7-1.1,1.3-1.7,1.8-2v-3.9h-1.8v-0.9h2.7v4.8c0.1,0.1,0.2,0.2,0.3,0.3c0.3,0.4,0.6,0.6,1,0.8c0.4,0.2,1,0.3,1.8,0.3
		c0.7,0,1.5,0,2.6,0c0.6,0,1.2,0,1.9,0c0.6,0,1.1,0,1.4-0.1l-0.2,0.9h-2.9C493.2,279.9,492.5,279.9,491.6,279.9z M488.6,270.5
		l-0.7,0.6c-0.5-0.6-1.3-1.3-2.2-2.1l0.6-0.6C487.3,269.2,488,269.8,488.6,270.5z M493.1,270.7c0.7-0.3,1.3-0.7,1.9-1.2h-5.7v-0.8h7
		v0.7c-0.8,0.7-1.6,1.3-2.5,1.7l0.2,0.2h2.6v5.8c0,0.7-0.4,1-1.1,1h-1.1l-0.2-0.8l1,0c0.3,0,0.5-0.2,0.5-0.4v-1h-2.2v2.2h-0.9V276
		h-2.2v2.3h-0.9v-6.9h3.2c-0.5-0.3-1.1-0.7-1.7-1l0.6-0.6C492.2,270.1,492.7,270.4,493.1,270.7z M492.6,272.1h-2.2v1.2h2.2V272.1z
		 M490.4,275.2h2.2v-1.1h-2.2V275.2z M495.6,272.1h-2.2v1.2h2.2V272.1z M493.4,275.2h2.2v-1.1h-2.2V275.2z"/>
	<path class="st9" d="M491.6,295.4c-0.8,0-1.5-0.1-2-0.2c-0.5-0.2-1-0.5-1.4-0.9c-0.2-0.2-0.3-0.3-0.5-0.3c-0.3,0-0.8,0.6-1.6,1.8
		l-0.7-0.6c0.7-1.1,1.3-1.8,1.9-2v-3.9h-1.9v-0.9h2.8v4.8c0.1,0.1,0.2,0.2,0.3,0.3c0.3,0.4,0.6,0.6,1,0.8c0.4,0.2,1,0.3,1.7,0.3
		c0.7,0,1.5,0,2.5,0c0.6,0,1.2,0,1.9,0c0.6,0,1.1,0,1.4-0.1l-0.2,0.9h-3C493.2,295.5,492.5,295.4,491.6,295.4z M488.6,286.1
		l-0.7,0.6c-0.5-0.6-1.3-1.3-2.2-2.1l0.6-0.6C487.3,284.7,488,285.4,488.6,286.1z M491.2,285.3c-0.2-0.4-0.4-0.8-0.7-1.1l0.9-0.3
		c0.3,0.4,0.6,0.9,0.8,1.4h1.5c0.3-0.5,0.6-1,0.8-1.5l0.9,0.3c-0.2,0.4-0.5,0.8-0.7,1.2h2.2v0.9h-3.6c-0.1,0.4-0.2,0.7-0.3,1h3.1
		v6.2h-6.1v-6.2h2.1c0.1-0.3,0.2-0.7,0.3-1h-3.2v-0.9H491.2z M495.2,289v-1h-4.4v1H495.2z M495.2,290.8v-1h-4.4v1H495.2z
		 M495.2,291.5h-4.4v1.1h4.4V291.5z"/>
</g>
</svg>
