<?xml version="1.0" encoding="utf-8"?>
<!-- Generator: Adobe Illustrator 21.0.0, SVG Export Plug-In . SVG Version: 6.00 Build 0)  -->
<svg version="1.1" id="svgwrapper_svg" xmlns="http://www.w3.org/2000/svg" xmlns:xlink="http://www.w3.org/1999/xlink" x="0px"
	 y="0px" width="830px" height="110px" viewBox="0 0 830 110" style="enable-background:new 0 0 830 110;" xml:space="preserve">
<style type="text/css">
	.st0{display:none;fill:none;stroke:#999999;}
	.st1{fill:none;stroke:#888888;}
	.st2{fill:#888888;}
	.st3{fill:none;stroke:#FF0000;stroke-width:15;stroke-opacity:0;}
	.st4{opacity:0.6;fill:#BBBBBB;enable-background:new    ;}
	.st5{fill:#FFFFFF;stroke:#E5E5E5;}
	.st6{enable-background:new    ;}
	.st7{fill:#444444;}
	.st8{fill:#CEE3FF;fill-opacity:0;}
</style>
<path class="st0" d="M174.5,72l23.5,8"/>
<g id="bottomgroup" transform="translate(0,0)">
</g>
<g id="middlegroup" transform="translate(0,0)">
	<g id="Link8" transform="translate(0,0)">
		<path class="st1" d="M192.5,39h88l0,0h57"/>
		<g transform="translate(0.5, 0)">
			<polygon class="st2" points="332.5,43.5 338.5,39 332.5,34.5 			"/>
		</g>
		<path class="st3" d="M192.5,39h88"/>
		<path class="st3" d="M280.5,39L280.5,39"/>
		<path class="st3" d="M280.5,39h57"/>
	</g>
	<g id="Link9" transform="translate(0,0)">
		<path class="st1" d="M439.5,39h94l0,0h63"/>
		<g transform="translate(0.5, 0)">
			<polygon class="st2" points="591.5,43.5 597.5,39 591.5,34.5 			"/>
		</g>
		<path class="st3" d="M439.5,39h94"/>
		<path class="st3" d="M533.5,39L533.5,39"/>
		<path class="st3" d="M533.5,39h63"/>
	</g>
</g>
<g id="maingroup" transform="translate(0,0)">
	<g id="RectEndPoint5" transform="translate(86,42)">
		<rect x="12" y="-25.5" class="st4" width="97" height="50"/>
		<rect x="10" y="-27.5" class="st5" width="97" height="50"/>
		<g transform="translate(27,9)">
			<g class="st6">
				<path class="st7" d="M10.9-16.2v-1h4.8v1h-2.2C13.3-15.1,13-14,12.6-13h2.6v6.3h-2.4v1.1H12v-5.9c-0.3,0.5-0.6,1-1,1.5l-0.5-0.9
					c1.1-1.6,1.8-3.4,2.2-5.4L10.9-16.2L10.9-16.2z M12.9-7.6h1.5v-4.6h-1.5V-7.6z M20.8-11.4h-2.2c-0.1,2.9-0.9,5-2.5,6.4l-0.7-0.7
					c1.4-1.2,2.2-3.1,2.3-5.7h-1.5v-1h1.5v-3.9h-1.2v-1h6.6v1h-1.3v3.9h1.7v1h-1.7v6.3h-1V-11.4z M20.8-16.3h-2.2v3.9h2.2V-16.3z"/>
				<path class="st7" d="M25.6-13.6l1.1-3.9l1,0.2l-0.8,2.8h2.5c0.3-1.1,0.5-2.2,0.7-3.4l1,0.1c-0.2,1.1-0.4,2.2-0.7,3.3H37v1h-6.8
					c-0.2,0.7-0.4,1.2-0.5,1.6h5.7v0.9c-0.4,1.2-1.1,2.3-2.3,3.3c1.1,0.7,2.5,1.3,4.1,1.8L36.7-5c-1.8-0.7-3.3-1.4-4.5-2.1
					c-1.1,0.8-2.6,1.5-4.3,2.2l-0.5-0.9C29-6.4,30.3-7,31.3-7.7c-1.1-0.8-1.9-1.7-2.3-2.7c-1,2.2-2.3,4-3.9,5.3L24.6-6
					c2-1.8,3.5-4.2,4.5-7.4h-3.5V-13.6z M29.8-11.1c0.5,1,1.3,1.8,2.4,2.6c1-0.8,1.8-1.7,2.1-2.6H29.8z M33.4-17.9
					c1,0.7,1.8,1.5,2.5,2.3l-0.7,0.7c-0.6-0.7-1.4-1.5-2.5-2.4L33.4-17.9z"/>
				<path class="st7" d="M41.3-7.8c-0.5,1-1.2,1.9-1.8,2.6l-0.8-0.6c0.7-0.7,1.3-1.5,1.8-2.5L41.3-7.8z M39.7-17.9h1v1.6h2.7v-1.6h1
					v1.5h0.8v0.9h-0.8v6h0.9v1h-6.6v-1h1v-5.9h-0.9v-0.9h0.9C39.7-16.3,39.7-17.9,39.7-17.9z M43.5-15.4h-2.7v1.4h2.7V-15.4z
					 M40.7-11.7h2.7v-1.4h-2.7V-11.7z M40.7-9.5h2.7v-1.4h-2.7V-9.5z M43.2-8.2c0.6,0.8,1.1,1.5,1.5,2.2c0.9-1.3,1.4-2.9,1.4-4.9
					v-6.6h4.6v11c0,0.9-0.4,1.3-1.2,1.3H48l-0.3-1c0.7,0,1.2,0.1,1.4,0.1c0.4,0,0.5-0.2,0.5-0.7v-2.8h-2.7c-0.2,1.8-0.8,3.4-1.7,4.6
					l-0.8-0.7c0,0,0,0,0.1-0.1l-0.7,0.5c-0.4-0.7-0.9-1.5-1.5-2.3L43.2-8.2z M47.1-13.1v2.3v0.2h2.7v-2.5H47.1z M49.8-14v-2.5h-2.6
					v2.5H49.8z"/>
			</g>
		</g>
	</g>
	<g id="RectEndPoint6" transform="translate(303,42)">
		<rect x="42" y="-25.5" class="st4" width="97" height="50"/>
		<rect x="40" y="-27.5" class="st5" width="97" height="50"/>
		<g transform="translate(27,9)">
			<g class="st6">
				<path class="st7" d="M45.8-17.9h1v4.3H52v1h-5.2v6h6.4v1H40.8v-1h5V-17.9z"/>
				<path class="st7" d="M58-17.6c-0.7,1.8-1.4,3.3-2.2,4.4c0.5,0,1.2-0.1,1.9-0.2l0.8-1.6l0.9,0.3c-1.2,2.3-2.2,4-3.1,5
					c1-0.2,2-0.5,3-0.8v0.9c-1.5,0.5-2.9,0.8-4.2,1l-0.2-0.9c0.2-0.1,0.3-0.2,0.5-0.3c0.5-0.5,1.1-1.5,1.9-2.8
					c-0.5,0.1-1.3,0.2-2.3,0.3l-0.2-0.9c0.1-0.1,0.3-0.2,0.4-0.4c0.8-1.3,1.4-2.8,2-4.4L58-17.6z M59.6-6.9c-1.4,0.5-3,1-4.7,1.3
					l-0.1-1c1.8-0.3,3.4-0.7,4.8-1.3V-6.9z M66.4-15.5l0.1,0.9l-3.6,0.5c0,0.7,0.1,1.3,0.1,1.9l3.7-0.6l0.2,1l-3.8,0.6
					c0,0.2,0.1,0.5,0.1,0.7c0.1,0.7,0.3,1.3,0.5,1.9c0.8-0.7,1.4-1.5,2-2.4l0.8,0.5c-0.8,1.1-1.6,2-2.4,2.8l0.2,0.3
					c0.5,0.7,0.9,1,1.2,1c0.4,0,0.7-0.8,0.9-2.3l0.9,0.6c-0.4,1.9-1,2.8-1.7,2.8s-1.3-0.5-1.9-1.3c-0.1-0.2-0.2-0.4-0.3-0.5
					c-1,0.8-2.2,1.3-3.3,1.7l-0.6-0.8C60.8-6.6,62-7.2,63-8c-0.3-0.6-0.5-1.3-0.6-2c-0.1-0.3-0.1-0.6-0.2-1.1l-2.5,0.4l-0.1-1
					l2.5-0.4C62-12.7,62-13.3,62-14l-2,0.3l-0.3-0.8l2.1-0.3v-3.1h1v3L66.4-15.5z M64.4-18c0.7,0.7,1.3,1.3,1.7,1.7l-0.8,0.5
					c-0.4-0.5-0.9-1.1-1.7-1.8L64.4-18z"/>
				<path class="st7" d="M78.4-17.7c-0.3,0.5-0.6,1-1,1.5h3.8v1H68.7v-1h3.8c-0.3-0.6-0.6-1.1-0.9-1.6l1.1-0.2
					c0.3,0.5,0.6,1.1,0.9,1.8h2.7c0.4-0.6,0.8-1.2,1.1-1.8L78.4-17.7z M72.5-5.2l-0.3-1h1.1c0.4,0,0.5-0.2,0.5-0.7v-1.3h-3.1v3.1h-1
					v-9h5.1v7.5c0,1-0.4,1.4-1.2,1.4H72.5z M70.7-11.5h3.1v-1.6h-3.1V-11.5z M70.7-9h3.1v-1.6h-3.1V-9z M76.4-13.4h1v6h-1V-13.4z
					 M77.2-5.2l-0.2-1c0.7,0,1.2,0.1,1.7,0.1c0.4,0,0.6-0.2,0.6-0.6v-7.8h1v8c0,0.9-0.4,1.3-1.2,1.3H77.2z"/>
			</g>
		</g>
	</g>
	<g id="RectEndPoint7" transform="translate(532,42)">
		<rect x="72" y="-25.5" class="st4" width="97" height="50"/>
		<rect x="70" y="-27.5" class="st5" width="97" height="50"/>
		<g transform="translate(27.5,9)">
			<g class="st6">
				<path class="st7" d="M75.8-17.9h1v4.3H82v1h-5.2v6h6.4v1H70.8v-1h5V-17.9z"/>
				<path class="st7" d="M88-17.6c-0.7,1.8-1.4,3.3-2.2,4.4c0.5,0,1.2-0.1,1.9-0.2l0.8-1.6l0.9,0.3c-1.2,2.3-2.2,4-3.1,5
					c1-0.2,2-0.5,3-0.8v0.9c-1.5,0.5-2.9,0.8-4.2,1l-0.2-0.9c0.2-0.1,0.3-0.2,0.5-0.3c0.5-0.5,1.1-1.5,1.9-2.8
					c-0.5,0.1-1.3,0.2-2.3,0.3l-0.2-0.9c0.1-0.1,0.3-0.2,0.4-0.4c0.8-1.3,1.4-2.8,2-4.4L88-17.6z M89.6-6.9c-1.4,0.5-3,1-4.7,1.3
					l-0.1-1c1.8-0.3,3.4-0.7,4.8-1.3C89.6-7.9,89.6-6.9,89.6-6.9z M96.4-15.5l0.1,0.9l-3.6,0.5c0,0.7,0.1,1.3,0.1,1.9l3.7-0.6l0.2,1
					l-3.8,0.6c0,0.2,0.1,0.5,0.1,0.7c0.1,0.7,0.3,1.3,0.5,1.9c0.8-0.7,1.4-1.5,2-2.4l0.8,0.5c-0.8,1.1-1.6,2-2.4,2.8l0.2,0.3
					c0.5,0.7,0.9,1,1.2,1c0.4,0,0.7-0.8,0.9-2.3l0.9,0.6c-0.4,1.9-1,2.8-1.7,2.8s-1.3-0.5-1.9-1.3c-0.1-0.2-0.2-0.4-0.3-0.5
					c-1,0.8-2.2,1.3-3.3,1.7l-0.6-0.8C90.8-6.6,92-7.2,93-8c-0.3-0.6-0.5-1.3-0.6-2c-0.1-0.3-0.1-0.6-0.2-1.1l-2.5,0.4l-0.1-1
					l2.5-0.4C92-12.7,92-13.3,92-14l-2,0.3l-0.3-0.8l2.1-0.3v-3.1h1v3L96.4-15.5z M94.4-18c0.7,0.7,1.3,1.3,1.7,1.7l-0.8,0.5
					c-0.4-0.5-0.9-1.1-1.7-1.8L94.4-18z"/>
				<path class="st7" d="M101.2-13v0.4c-0.1,3.1-0.7,5.6-1.9,7.5l-0.7-0.8c1-1.6,1.6-3.9,1.7-6.7v-4.2c3.6,0,6.8-0.4,9.7-1l0.5,0.9
					c-2.7,0.6-5.8,0.9-9.2,1v2h10.1v1h-10.2V-13z M110.2-11v5.9h-1v-0.7h-5.7v0.7h-1V-11H110.2z M103.5-6.7h5.7V-10h-5.7V-6.7z"/>
			</g>
		</g>
	</g>
</g>
<g id="textgroup" transform="translate(0,0)">
	<g id="Textbasic10" transform="translate(98.5,103)">
		<rect x="10" y="-27.5" class="st8" width="80" height="20"/>
		<g transform="translate(0 0)">
			<g class="st6">
				<path class="st7" d="M11.2-23.9h2.2v-1h0.9v1h2.2v0.9h-2.3c0,0.4-0.1,0.8-0.1,1.2h2.5v0.9H14v0.3c0.9,0.5,1.8,1.1,2.7,1.8
					L16.2-18c-1-0.8-1.8-1.5-2.4-1.9c0,0.1-0.1,0.2-0.1,0.3c-0.7,0.9-1.5,1.6-2.6,2.1l-0.5-0.8c1.1-0.5,1.8-1.1,2.2-1.9
					c0.1-0.1,0.2-0.4,0.3-0.7h-2.4v-0.9h2.6c0.1-0.4,0.1-0.8,0.1-1.2h-2.2C11.2-23,11.2-23.9,11.2-23.9z M21.5-18v5.9h-1v-0.6h-6.8
					v0.6h-1V-18H21.5z M13.7-15.8h6.8v-1.3h-6.8V-15.8z M13.7-13.6h6.8v-1.3h-6.8V-13.6z M17.4-23.9h2.2v-1h0.9v1h2.4v0.9h-2.4
					c0,0.4-0.1,0.8-0.1,1.2h2.9v0.9h-2.7c0.6,0.9,1.5,1.7,2.8,2.4l-0.6,0.8c-1.3-0.8-2.2-1.7-2.8-2.7L19.8-20
					c-0.5,0.7-1.3,1.3-2.4,1.7l-0.5-0.8c1-0.4,1.7-0.9,2.2-1.5l0.2-0.3h-1.9v-0.9h2.2c0.1-0.4,0.1-0.8,0.1-1.2h-2.2v-0.9H17.4z"/>
				<path class="st7" d="M26.3-20c-0.4,0.6-0.9,1.2-1.6,1.8l-0.3-1c1.5-1.7,2.6-3.6,3.3-5.8l1,0.5c-0.3,1-0.8,2-1.3,3v9.5h-1v-8
					H26.3z M36.8-21.6l0.2,1L32.4-20c0.1,0.9,0.2,1.7,0.3,2.3c0.3,1.5,0.8,2.6,1.4,3.4c0.5,0.7,1.1,1.1,1.5,1.1s0.7-0.9,0.9-2.7
					l0.9,0.5c-0.2,1.2-0.4,2-0.7,2.6c-0.3,0.4-0.6,0.6-1,0.6c-0.7,0-1.4-0.4-2.1-1.3c-0.8-1-1.4-2.2-1.8-3.8
					c-0.2-0.7-0.3-1.6-0.4-2.6l-3,0.4l-0.2-1l3.1-0.4c-0.1-1.2-0.1-2.5-0.2-4.1h1c0,1.5,0,2.8,0.1,3.9L36.8-21.6z M33.6-24.9
					c0.9,0.7,1.6,1.4,2.2,2.1l-0.7,0.7c-0.5-0.7-1.2-1.4-2.1-2.2L33.6-24.9z"/>
				<path class="st7" d="M41.5-12.1h-1v-7c-0.4,1.3-1,2.5-1.7,3.7l-0.4-1.1c1-1.4,1.7-2.9,2.1-4.6h-1.8v-1.1h1.8v-2.7h1v2.8h1.4v0.9
					h-1.4v1c0.6,0.7,1.1,1.5,1.7,2.3l-0.5,0.8c-0.4-0.8-0.8-1.5-1.1-2L41.5-12.1L41.5-12.1z M43.8-21.5h6.6v4.3h-2.9
					c0,0.5-0.1,0.8-0.1,1.1h3.9v0.9h-3.6c0.8,0.9,2,1.7,3.6,2.3l-0.7,0.8c-1.7-0.7-2.9-1.6-3.7-2.7c0,0,0,0.1-0.1,0.1
					c-0.5,1-1.7,1.9-3.4,2.6l-0.6-0.8c1.6-0.5,2.6-1.2,3.2-2l0.1-0.2h-3.4V-16h3.7c0.1-0.3,0.1-0.6,0.2-1.1h-2.8V-21.5z M42.9-23.7
					H45v-1.2h1v1.2h2.2v-1.2h1v1.2h2.2v0.9h-2.2v1h-1v-1H46v1h-1v-1h-2.1V-23.7z M44.7-19.7h4.7v-1h-4.7V-19.7z M49.5-17.9v-1h-4.7
					v1H49.5z"/>
				<path class="st7" d="M53.1-12.3l-0.2-1c0.4,0,0.8,0.1,1.1,0.1c0.4,0,0.5-0.2,0.5-0.5v-3.4c-0.5,0.2-1,0.4-1.6,0.5l-0.2-1
					c0.6-0.2,1.3-0.3,1.8-0.5v-3.3h-1.7v-1h1.7v-2.5h1v2.6H57v1h-1.5v2.8c0.5-0.2,1-0.5,1.5-0.7v1c-0.5,0.2-1,0.5-1.5,0.7v4
					c0,0.8-0.4,1.2-1.2,1.2H53.1z M57.2-15.1c0.3-0.1,0.5-0.3,0.5-0.6v-8.4h1v8.5c0.6-0.3,1.3-0.6,1.9-0.9l0.3,0.9
					c-1.1,0.6-2.2,1-3.3,1.4L57.2-15.1z M64.1-24.7c0,2.6-0.2,4.9-0.6,6.7c-0.1,0.5-0.2,0.9-0.4,1.2c1,1.5,1.7,2.8,2.2,3.9l-0.8,0.6
					c-0.4-1-1.1-2.2-1.9-3.5c-0.7,1.4-1.7,2.6-3,3.7L59-12.9c1.7-1.4,2.8-3.1,3.4-5.2c0.4-1.8,0.6-4,0.6-6.7L64.1-24.7L64.1-24.7z
					 M60.3-23.2c0.7,1.1,1.2,2.3,1.7,3.5l-0.8,0.4c-0.5-1.4-1.1-2.6-1.7-3.6L60.3-23.2z"/>
				<path class="st7" d="M66.8-19.6h4.7c0.3-0.3,0.5-0.7,0.6-1.1l1,0.1c-0.1,0.3-0.3,0.6-0.5,1h3.6c-0.2-0.4-0.4-0.7-0.6-1l0.9-0.3
					c0.3,0.4,0.5,0.9,0.7,1.3h1.9v0.9h-3.8c0.9,0.9,2.3,1.5,4.1,2L79-15.8c-0.2-0.1-0.5-0.2-1-0.3v4.1h-0.9v-0.6h-2.6v0.6h-0.9v-4.5
					h3.7c-1.3-0.6-2.3-1.3-3-2.2H72c-0.8,0.9-1.8,1.6-3.1,2.2h3.5v4.4h-0.9v-0.6H69v0.6h-0.9v-4.1L67-15.8l-0.5-0.8
					c1.8-0.5,3.2-1.2,4.1-2.1h-3.9v-0.9H66.8z M68-24.4h4.3v3.4H68V-24.4z M71.3-21.9v-1.6h-2.4v1.7h2.4V-21.9z M69-13.6h2.4v-2.1
					H69V-13.6z M73.8-24.4h4.4v3.4h-4.4V-24.4z M74.6-13.6h2.6v-2.1h-2.6V-13.6z M77.2-21.9v-1.6h-2.5v1.7h2.5V-21.9z"/>
			</g>
		</g>
	</g>
	<g id="Textbasic11" transform="translate(269.5,103)">
		<rect x="40" y="-27.5" class="st8" width="184" height="20"/>
		<g transform="translate(0 0)">
			<g class="st6">
				<path class="st7" d="M40.6-20.7h2.9v5.8c0.4-0.4,0.8-0.7,1-1l0.3,1c-0.7,0.7-1.4,1.3-2.2,1.9l-0.4-0.9c0.2-0.2,0.3-0.4,0.3-0.6
					v-5.2h-1.9C40.6-19.7,40.6-20.7,40.6-20.7z M42.3-24.8c0.9,0.7,1.6,1.4,2.2,2.1L43.8-22c-0.6-0.7-1.3-1.4-2.2-2.1L42.3-24.8z
					 M52.9-24.4v11c0,0.8-0.4,1.2-1.3,1.2h-1.3l-0.2-0.9c0.5,0,0.9,0,1.3,0c0.4,0,0.6-0.2,0.6-0.7v-9.7h-5.7v6.8
					c0,1.9-0.5,3.4-1.3,4.6l-0.7-0.7c0.7-1,1.1-2.3,1.1-3.9v-7.7H52.9z M47-21.8h1.6v-1.1h1v1.1h1.6v0.8h-1.6v1.3h1.9v0.8h-4.6v-0.8
					h1.8V-21H47V-21.8z M47.2-17.8h3.7v3.6h-3.7V-17.8z M50.1-15.1V-17h-2v1.9H50.1z"/>
				<path class="st7" d="M54.6-20.7h2.9v6.2c0.3-0.3,0.8-0.8,1.3-1.3l0.3,1.1c-0.8,0.8-1.6,1.6-2.5,2.2l-0.4-1
					c0.2-0.2,0.3-0.4,0.3-0.6v-5.6h-2L54.6-20.7L54.6-20.7z M56.3-24.8c0.9,0.7,1.6,1.4,2.3,2.2l-0.7,0.7c-0.6-0.7-1.3-1.4-2.3-2.2
					L56.3-24.8z M64.6-13.4c-0.4-0.8-0.7-2-0.9-3.4c-0.1-1.2-0.3-2.7-0.3-4.6H59v-1h4.4c0-0.5,0-1.4,0-2.6h1c0,1.2,0,2,0,2.6h2.8v1
					h-2.8c0.1,2.4,0.2,4.2,0.4,5.6c0.3,1.6,0.7,2.4,1.1,2.5c0.3-0.1,0.6-0.9,0.9-2.6l0.8,0.6c-0.5,2-1,3-1.7,3
					C65.4-12.3,65-12.7,64.6-13.4z M60.6-18.3h-1.3v-0.9h3.6v0.9h-1.3v3.8c0.7-0.1,1.3-0.3,1.8-0.5v0.9c-1.2,0.3-2.5,0.6-3.9,0.9
					l-0.3-1c0.5-0.1,0.9-0.1,1.4-0.2V-18.3z M65.5-25c0.6,0.7,1.1,1.2,1.4,1.8l-0.7,0.5c-0.3-0.5-0.8-1.1-1.4-1.8L65.5-25z"/>
				<path class="st7" d="M69.2-23.4h3.2c-0.2-0.4-0.5-0.9-0.8-1.3l1-0.4c0.3,0.4,0.6,1,0.8,1.6h3.1c0.3-0.5,0.6-1.1,0.8-1.7l1,0.3
					c-0.2,0.5-0.4,0.9-0.7,1.3h3.3v1.1H77v1.2h2.9v2.1h1.5v0.9h-1.5v2.1h-2.6c0.9,1.2,2.3,2.1,4.2,2.8l-0.5,1
					c-1.8-0.8-3.1-1.9-4-3.1v3.5h-1v-4.2h-2.1v4.2h-1v-3.5c-0.9,1.2-2.1,2.2-3.7,3.1l-0.6-0.9c1.8-0.7,3.1-1.7,4-2.8H70V-17h2.9
					v-1.3h-4.1v-0.9h4.1v-1.2h-2.7v-0.9h2.7v-1.2h-3.7L69.2-23.4L69.2-23.4z M75.9-21.3v-1.2h-2.1v1.2H75.9z M73.8-20.4v1.3h2.1
					v-1.3H73.8z M73.8-18.3v1.2h2.1v-1.2H73.8z M76.9-20.4v1.3h1.9v-1.3H76.9z M76.9-18.3v1.2h1.9v-1.2H76.9z"/>
				<path class="st7" d="M89.4-20.5c1.1,1.4,3.1,2.6,5.9,3.7L94.8-16c-0.6-0.2-1.1-0.4-1.6-0.7v4.6h-1v-0.6h-6.3v0.6h-1v-4.6
					c-0.5,0.2-1.1,0.5-1.7,0.7l-0.5-0.8c2.6-1,4.5-2.2,5.9-3.7C88.6-20.5,89.4-20.5,89.4-20.5z M88-21.6c-1.2,1-2.7,1.9-4.4,2.7
					L83-19.7c1.7-0.7,3.1-1.6,4.3-2.5L88-21.6z M89.2-25c0.1,0.3,0.3,0.7,0.5,1.2h5.1v2.5h-1v-1.5h-9.5v1.6h-1v-2.6h5.3
					c-0.2-0.4-0.3-0.7-0.5-1.1L89.2-25z M93-16.7c-1.7-0.8-3-1.8-4-2.9c-1.1,1.2-2.5,2.1-4,2.9H93z M85.9-13.6h6.3v-2.2h-6.3V-13.6z
					 M90.6-22.2c1.7,0.9,3.1,1.8,4.3,2.6l-0.7,0.7c-1-0.8-2.4-1.7-4.2-2.7L90.6-22.2z"/>
				<path class="st7" d="M97.3-21.2c0.8,0.7,1.4,1.3,2,2.1l-0.7,0.6c-0.5-0.6-1.1-1.3-2-2.1L97.3-21.2z M99.4-17.1
					c-0.5,1.7-1.1,3.3-1.8,4.9l-0.9-0.4c0.7-1.6,1.3-3.2,1.8-4.8L99.4-17.1z M97.5-24.7c0.8,0.7,1.5,1.3,2,1.9l-0.7,0.7
					c-0.5-0.6-1.2-1.3-2-1.9L97.5-24.7z M102-22.4h0.8v4.4c0,1.6-0.3,2.9-0.8,3.8c-0.5,0.9-1.2,1.6-2.3,2.1l-0.5-0.8
					c1-0.5,1.7-1.1,2.1-1.9c0.4-0.8,0.6-1.9,0.6-3.2v-4.4H102z M104.7-24.3v8.5h-0.9v-7.6h-2.9v7.8H100v-8.7H104.7z M103.2-15.1
					c0.8,0.7,1.5,1.5,2.1,2.3l-0.7,0.7c-0.5-0.8-1.2-1.5-2.1-2.4L103.2-15.1z M105.8-23.7h0.9v8.7h-0.9V-23.7z M106.2-12.2l-0.2-0.9
					c0.5,0,1,0.1,1.4,0.1c0.3,0,0.5-0.2,0.5-0.6v-11.3h1v11.5c0,0.8-0.4,1.2-1.1,1.2H106.2z"/>
				<path class="st7" d="M110.6-20.7h2.9v6.2c0.3-0.3,0.8-0.8,1.3-1.3l0.3,1.1c-0.8,0.8-1.6,1.6-2.5,2.2l-0.4-0.9
					c0.2-0.2,0.3-0.4,0.3-0.6v-5.7h-2L110.6-20.7L110.6-20.7z M112.3-24.8c0.9,0.7,1.6,1.4,2.3,2.2l-0.7,0.7
					c-0.6-0.7-1.3-1.4-2.3-2.2L112.3-24.8z M120.6-13.4c-0.4-0.8-0.7-2-0.9-3.4c-0.1-1.2-0.3-2.7-0.3-4.6H115v-1h4.4
					c0-0.5,0-1.4,0-2.6h1c0,1.2,0,2,0,2.6h2.8v1h-2.8c0.1,2.4,0.2,4.2,0.4,5.6c0.3,1.6,0.7,2.4,1.1,2.5c0.3-0.1,0.6-0.9,0.9-2.6
					l0.8,0.6c-0.5,2-1,3-1.7,3C121.4-12.3,121-12.7,120.6-13.4z M116.6-18.3h-1.3v-0.9h3.6v0.9h-1.3v3.8c0.7-0.1,1.3-0.3,1.8-0.5
					v0.9c-1.2,0.3-2.5,0.6-3.9,0.9l-0.3-1c0.5-0.1,0.9-0.1,1.4-0.2C116.6-14.4,116.6-18.3,116.6-18.3z M121.5-25
					c0.6,0.7,1.1,1.2,1.4,1.8l-0.7,0.5c-0.3-0.5-0.8-1.1-1.4-1.8L121.5-25z"/>
				<path class="st7" d="M125.6-20.6l1.1-3.9l1,0.2l-0.8,2.8h2.5c0.3-1.1,0.5-2.2,0.7-3.4l1,0.1c-0.2,1.1-0.4,2.2-0.7,3.3h6.6v1
					h-6.8c-0.2,0.7-0.4,1.2-0.5,1.6h5.7v0.9c-0.4,1.2-1.1,2.3-2.3,3.3c1.1,0.7,2.5,1.3,4.1,1.8l-0.5,0.9c-1.8-0.7-3.3-1.4-4.5-2.1
					c-1.1,0.8-2.6,1.5-4.3,2.2l-0.5-0.9c1.6-0.6,2.9-1.2,3.9-1.9c-1.1-0.8-1.9-1.7-2.3-2.7c-1,2.2-2.3,4-3.9,5.3l-0.5-0.9
					c2-1.8,3.5-4.2,4.5-7.4h-3.5V-20.6z M129.8-18.1c0.5,1,1.3,1.8,2.4,2.6c1-0.8,1.8-1.7,2.1-2.6H129.8z M133.4-24.9
					c1,0.7,1.8,1.5,2.5,2.3l-0.7,0.7c-0.6-0.7-1.4-1.5-2.5-2.4L133.4-24.9z"/>
				<path class="st7" d="M138.9-19.8h1.6V-23h-1.8v-1h4.6v1h-1.8v3.3h1.6v1h-1.6v3.2c0.6-0.2,1.2-0.4,1.8-0.7v1
					c-1.4,0.6-2.8,1-4.5,1.4l-0.2-1c0.6-0.1,1.2-0.3,1.9-0.4v-3.6h-1.6V-19.8z M146.6-22.4h1v3.4c-0.1,1.9-0.4,3.4-1.1,4.5
					c-0.7,1-1.8,1.9-3.4,2.5l-0.5-0.9c1.5-0.6,2.6-1.3,3.2-2.3c0.6-1,0.9-2.3,0.9-3.8L146.6-22.4L146.6-22.4z M150.3-24.4v7.7h-1
					v-6.7h-4.2v6.8h-1v-7.8H150.3z M148.5-12.3c-0.8,0-1.1-0.4-1.1-1.2v-3.2h1v3c0,0.3,0.1,0.4,0.4,0.4h1c0.2,0,0.4-0.1,0.5-0.2
					c0.1-0.2,0.2-0.7,0.3-1.6l0.9,0.3c-0.1,1.2-0.2,1.9-0.5,2.1c-0.2,0.2-0.6,0.3-1,0.3h-1.5V-12.3z"/>
				<path class="st7" d="M157.7-22.5v9.5h-1v-0.8h-2.5v1.2h-1v-9.9h1.3c0.3-0.8,0.5-1.6,0.6-2.4l1,0.1c-0.2,0.9-0.4,1.7-0.7,2.3
					H157.7z M154.1-18.7h2.5v-2.9h-2.5V-18.7z M154.1-14.7h2.5v-3.1h-2.5V-14.7z M164.9-22.5c0,4.7-0.1,7.5-0.2,8.6
					c-0.1,1.1-0.8,1.6-2,1.6l-1.4-0.1l-0.2-0.9c0.6,0,1.1,0,1.5,0c0.7,0,1-0.4,1.1-1.1c0.1-0.8,0.1-3.2,0.2-7.2H160
					c-0.4,0.9-0.9,1.7-1.4,2.4l-0.6-0.7c1-1.4,1.6-3,2-5l1,0.1c-0.2,0.9-0.4,1.7-0.6,2.3H164.9z M160.1-19.3c1,1.1,1.7,2.1,2.3,3.1
					l-0.8,0.6c-0.6-0.9-1.3-2-2.3-3.1L160.1-19.3z"/>
				<path class="st7" d="M167.2-23.4h3.2c-0.2-0.4-0.5-0.9-0.8-1.3l1-0.4c0.3,0.4,0.6,1,0.8,1.6h3.1c0.3-0.5,0.6-1.1,0.8-1.7l1,0.3
					c-0.2,0.5-0.4,0.9-0.7,1.3h3.3v1.1H175v1.2h2.9v2.1h1.5v0.9h-1.5v2.1h-2.6c0.9,1.2,2.3,2.1,4.2,2.8l-0.5,1
					c-1.8-0.8-3.1-1.9-4-3.1v3.5h-1v-4.2h-2.1v4.2h-1v-3.5c-0.9,1.2-2.1,2.2-3.7,3.1l-0.6-0.9c1.8-0.7,3.1-1.7,4-2.8H168V-17h2.9
					v-1.3h-4.1v-0.9h4.1v-1.2h-2.7v-0.9h2.7v-1.2h-3.7L167.2-23.4L167.2-23.4z M173.9-21.3v-1.2h-2.1v1.2H173.9z M171.8-20.4v1.3
					h2.1v-1.3H171.8z M171.8-18.3v1.2h2.1v-1.2H171.8z M174.9-20.4v1.3h1.9v-1.3H174.9z M174.9-18.3v1.2h1.9v-1.2H174.9z"/>
				<path class="st7" d="M187.4-20.5c1.1,1.4,3.1,2.6,5.9,3.7l-0.5,0.8c-0.6-0.2-1.1-0.4-1.6-0.7v4.6h-1v-0.6h-6.3v0.6h-1v-4.6
					c-0.5,0.2-1.1,0.5-1.7,0.7l-0.5-0.8c2.6-1,4.5-2.2,5.9-3.7C186.6-20.5,187.4-20.5,187.4-20.5z M186-21.6c-1.2,1-2.7,1.9-4.4,2.7
					l-0.6-0.8c1.7-0.7,3.1-1.6,4.3-2.5L186-21.6z M187.2-25c0.1,0.3,0.3,0.7,0.5,1.2h5.1v2.5h-1v-1.5h-9.5v1.6h-1v-2.6h5.3
					c-0.2-0.4-0.3-0.7-0.5-1.1L187.2-25z M191-16.7c-1.7-0.8-3-1.8-4-2.9c-1.1,1.2-2.4,2.1-4,2.9H191z M183.9-13.6h6.3v-2.2h-6.3
					V-13.6z M188.6-22.2c1.7,0.9,3.1,1.8,4.3,2.6l-0.7,0.7c-1-0.8-2.4-1.7-4.2-2.7L188.6-22.2z"/>
				<path class="st7" d="M195.3-22.6h1v10.5h-1V-22.6z M197.4-25c0.7,0.8,1.3,1.7,1.7,2.5l-0.9,0.5c-0.5-0.9-1.1-1.8-1.8-2.6
					L197.4-25z M198.5-20.6h5v5.3h-5V-20.6z M202.5-16.3v-3.3h-3v3.3H202.5z M203.6-12.2l-0.3-0.9h1.5c0.5,0,0.8-0.3,0.8-0.9v-9.1
					h-5.4v-1h6.5v10.4c0,1-0.5,1.6-1.6,1.6L203.6-12.2L203.6-12.2z"/>
				<path class="st7" d="M221.4-13.3l-0.2,1h-2.8c-3.4,0-5.4-0.2-6.3-0.5c-0.7-0.3-1.4-0.9-2-1.7c-0.3,0.9-0.6,1.7-1,2.5l-0.7-0.6
					c0.7-1.3,1.2-2.7,1.2-4.3l0.9,0.1c0,0.5-0.1,0.9-0.1,1.3c0.4,0.6,0.8,1,1.2,1.3v-3.4h-2.8v-1h5.9v0.9h-2.3v1.5h1.9v0.9h-1.9v1.5
					c0.1,0,0.2,0.1,0.2,0.1c0.8,0.3,2.7,0.4,5.5,0.4C219.5-13.3,220.5-13.3,221.4-13.3z M209.5-24.4h4.8v4.9h-4.8V-24.4z
					 M210.5-22.3h2.8v-1.3h-2.8V-22.3z M213.3-20.3v-1.2h-2.8v1.2H213.3z M217.6-20.8h0.9v2c0,1.3-0.3,2.4-0.8,3.2
					c-0.5,0.7-1.2,1.3-2.3,1.7l-0.5-0.9c1-0.4,1.7-0.9,2.1-1.5c0.4-0.7,0.6-1.5,0.6-2.6V-20.8z M215-24.4h6v0.9h-2.5
					c0,0.4-0.1,0.8-0.2,1.1h2.3v5.7h-0.9v-4.8h-3.4v4.8h-0.9v-5.6h2c0.1-0.3,0.1-0.7,0.2-1.1H215V-24.4z M219.1-16.6
					c0.9,0.7,1.6,1.3,2.2,2l-0.7,0.7c-0.5-0.7-1.3-1.4-2.1-2.1L219.1-16.6z"/>
			</g>
		</g>
	</g>
	<g id="Textbasic12" transform="translate(488.5,103)">
		<rect x="70" y="-27.5" class="st8" width="184" height="20"/>
		<g transform="translate(0 0)">
			<g class="st6">
				<path class="st7" d="M70.6-20.7h2.9v5.8c0.4-0.4,0.8-0.7,1-1l0.3,1c-0.7,0.7-1.4,1.3-2.2,1.9l-0.4-0.9c0.2-0.2,0.3-0.4,0.3-0.6
					v-5.2h-1.9C70.6-19.7,70.6-20.7,70.6-20.7z M72.3-24.8c0.9,0.7,1.6,1.4,2.2,2.1L73.8-22c-0.6-0.7-1.3-1.4-2.2-2.1L72.3-24.8z
					 M82.9-24.4v11c0,0.8-0.4,1.2-1.3,1.2h-1.3l-0.2-0.9c0.5,0,0.9,0,1.3,0s0.6-0.2,0.6-0.7v-9.7h-5.7v6.8c0,1.9-0.5,3.4-1.3,4.6
					l-0.7-0.7c0.7-1,1.1-2.3,1.1-3.9v-7.7H82.9z M77-21.8h1.6v-1.1h1v1.1h1.6v0.8h-1.6v1.3h1.9v0.8h-4.6v-0.8h1.8V-21H77V-21.8z
					 M77.2-17.8H81v3.6h-3.7v-3.6H77.2z M80.1-15.1V-17h-2v1.9H80.1z"/>
				<path class="st7" d="M84.6-20.7h2.9v6.2c0.3-0.3,0.8-0.8,1.3-1.3l0.3,1.1c-0.8,0.8-1.6,1.6-2.5,2.2l-0.4-1
					c0.2-0.2,0.3-0.4,0.3-0.6v-5.6h-2L84.6-20.7L84.6-20.7z M86.3-24.8c0.9,0.7,1.6,1.4,2.3,2.2l-0.7,0.7c-0.6-0.7-1.3-1.4-2.3-2.2
					L86.3-24.8z M94.6-13.4c-0.4-0.8-0.7-2-0.9-3.4c-0.2-1.2-0.3-2.7-0.3-4.6H89v-1h4.4c0-0.5,0-1.4,0-2.6h1c0,1.2,0,2,0,2.6h2.8v1
					h-2.8c0.1,2.4,0.2,4.2,0.4,5.6c0.3,1.6,0.7,2.4,1.1,2.5c0.3-0.1,0.6-0.9,0.9-2.6l0.8,0.6c-0.5,2-1,3-1.7,3
					C95.4-12.3,95-12.7,94.6-13.4z M90.6-18.3h-1.3v-0.9h3.6v0.9h-1.3v3.8c0.7-0.1,1.3-0.3,1.8-0.5v0.9c-1.2,0.3-2.5,0.6-3.9,0.9
					l-0.3-1c0.5-0.1,0.9-0.1,1.4-0.2C90.6-14.4,90.6-18.3,90.6-18.3z M95.5-25c0.6,0.7,1.1,1.2,1.4,1.8l-0.7,0.5
					c-0.3-0.5-0.8-1.1-1.4-1.8L95.5-25z"/>
				<path class="st7" d="M100.9-16.7c-0.2,1.8-0.7,3.3-1.6,4.5l-0.8-0.7c0.9-1.3,1.4-2.8,1.4-4.7v-6.8h10.4v10.5
					c0,1-0.5,1.5-1.5,1.5h-1.6l-0.3-1c0.7,0,1.3,0.1,1.6,0.1c0.5,0,0.8-0.3,0.8-0.9v-2.4h-3.8v4.1h-1v-4.1h-3.6V-16.7z M104.5-23.4
					H101v2.4h3.6L104.5-23.4L104.5-23.4z M101-20.1v2.5h3.6v-2.5H101z M109.4-21v-2.4h-3.8v2.4H109.4z M109.4-17.6v-2.5h-3.8v2.5
					H109.4z"/>
				<path class="st7" d="M115.2-18.5c-0.1,2.5-0.7,4.7-2,6.5l-0.7-0.7c1.1-1.6,1.7-3.6,1.7-6.1v-4.4h4.6c-0.3-0.6-0.5-1.2-0.8-1.6
					l1.1-0.2c0.3,0.5,0.5,1.1,0.8,1.8h4.4v4.7H115.2z M123.2-22.2h-8v2.7h8V-22.2z"/>
				<path class="st7" d="M129.5-19.7v0.1c-0.1,3.1-0.8,5.6-2.1,7.4l-0.7-0.7c1.1-1.6,1.8-3.9,1.8-6.7v-4.3c3.5,0,6.6-0.3,9.5-0.9
					l0.5,0.9c-2.7,0.5-5.6,0.8-8.9,0.9v2.4h8.4v0.9c-0.5,1.8-1.5,3.3-2.9,4.6c1.2,0.8,2.7,1.6,4.4,2.2L139-12
					c-1.8-0.7-3.3-1.5-4.5-2.5c-1.3,1-2.9,1.8-4.8,2.5l-0.6-0.9c1.8-0.6,3.3-1.4,4.5-2.3c-1.5-1.3-2.5-2.8-3-4.5
					C130.6-19.7,129.5-19.7,129.5-19.7z M136.9-19.7h-5.5c0.5,1.5,1.4,2.8,2.8,3.9C135.5-16.9,136.4-18.2,136.9-19.7z"/>
				<path class="st7" d="M142.6-21.6c-0.4,1.1-0.9,2.1-1.5,2.9l-0.6-0.8c0.9-1.3,1.6-3.1,1.9-5.3l1,0.2c-0.1,0.7-0.3,1.5-0.5,2.1
					h2.6v0.8c-0.4,0.9-0.8,1.6-1.2,2.1l-0.7-0.6c0.3-0.4,0.6-0.9,0.9-1.4H142.6z M142.6-19.8h1v6.1c0.6-0.3,1.2-0.8,1.8-1.3l0.2,0.9
					c-0.8,0.7-1.8,1.2-2.8,1.7l-0.4-0.9c0.2-0.1,0.3-0.3,0.3-0.6v-5.9H142.6z M148.8-17.4h1v1.4c0,1.1-0.4,1.9-1,2.6
					c-0.6,0.6-1.6,1.1-3.1,1.4l-0.5-0.9c1.3-0.3,2.3-0.7,2.9-1.1c0.5-0.5,0.8-1.2,0.8-2L148.8-17.4L148.8-17.4z M146.2-24.2h2.6V-25
					h1v0.8h2.6v2.7h-2.6v1h3.4v0.9h-7.8v-0.9h3.4v-0.9h-2.6L146.2-24.2L146.2-24.2z M152.3-18.7v4.2h-0.9v-3.4h-4.2v3.3h-0.9v-4.1
					H152.3z M148.9-22.2v-1.2h-1.7v1.1L148.9-22.2L148.9-22.2z M150.3-14.5c1.1,0.4,2.1,1,3,1.6l-0.5,0.8c-1-0.7-2-1.3-3-1.7
					L150.3-14.5z M151.6-22.2v-1.2h-1.8v1.1L151.6-22.2L151.6-22.2z"/>
				<path class="st7" d="M159.7-22.5v9.5h-1v-0.8h-2.5v1.2h-1v-9.9h1.3c0.3-0.8,0.5-1.6,0.6-2.4l1,0.1c-0.2,0.9-0.4,1.7-0.7,2.3
					H159.7z M156.1-18.7h2.5v-2.9h-2.5V-18.7z M156.1-14.7h2.5v-3.1h-2.5V-14.7z M166.9-22.5c0,4.7-0.1,7.5-0.2,8.6
					c-0.1,1.1-0.8,1.6-2,1.6l-1.4-0.1l-0.2-0.9c0.6,0,1.1,0,1.5,0c0.7,0,1-0.4,1.1-1.1c0.1-0.8,0.1-3.2,0.2-7.2h-3.8
					c-0.4,0.9-0.9,1.7-1.4,2.4l-0.6-0.8c1-1.4,1.6-3,2-5l1,0.1c-0.2,0.9-0.4,1.7-0.6,2.3L166.9-22.5L166.9-22.5z M162.1-19.3
					c1,1.1,1.7,2.1,2.3,3.1l-0.8,0.6c-0.6-0.9-1.3-2-2.3-3.1L162.1-19.3z"/>
				<path class="st7" d="M170-21c-0.1,0.7-0.3,1.4-0.5,2.1l-0.9-0.3c0.5-1.4,0.7-3,0.8-4.6l0.9,0.1c0,0.7-0.1,1.3-0.1,1.8h1.2v-3h1
					v2.9h1.2v1h-1.2v3.3c0.5-0.2,0.9-0.4,1.3-0.5v1c-0.4,0.2-0.8,0.3-1.3,0.5v4.6h-1v-4.3c-0.8,0.3-1.6,0.5-2.5,0.7l-0.2-1
					c1-0.2,1.9-0.4,2.7-0.7V-21H170z M177.1-24.9h1v1.5h2.6v0.9h-2.6v1.7h3.2v1h-7.4v-1h3.2v-1.7h-2.5v-0.9h2.5V-24.9z M174.2-18.2
					h4.4v-1h1v1h1.6v1h-1.6v3.7c0,0.8-0.4,1.3-1.2,1.3h-1.7l-0.2-1c0.7,0,1.2,0.1,1.5,0.1c0.4,0,0.5-0.2,0.5-0.6v-3.5h-4.4
					L174.2-18.2L174.2-18.2z M175.3-16.6c0.7,0.8,1.3,1.6,1.6,2.2l-0.8,0.6c-0.4-0.7-1-1.5-1.6-2.2L175.3-16.6z"/>
				<path class="st7" d="M184.9-20.8h8.2v1h-3.6v2.5h4.2v1h-4.2v2.8c1,0.1,2.2,0.2,3.6,0.2c0.7,0,1.4,0,2.2-0.1l-0.2,1h-1.6
					c-2.8,0-4.8-0.3-6.1-0.8c-0.9-0.4-1.7-1.1-2.3-2c-0.5,1.2-1.2,2.2-2,3l-0.6-0.8c1.3-1.4,2.2-3.3,2.7-5.8l1,0.2
					c-0.2,0.8-0.4,1.6-0.6,2.4c0.7,1.2,1.5,2,2.5,2.3l0.4,0.1v-6h-3.7v-1H184.9z M194.7-23.5v3h-1v-2.1h-9.5v2.1h-1v-3h5.3
					c-0.2-0.5-0.4-0.9-0.7-1.4l1.1-0.2c0.3,0.5,0.5,1,0.6,1.6H194.7z"/>
				<path class="st7" d="M196.8-22.2h2.1v-2.7h1v2.7h1.7v1h-1.7v0.7c0.7,0.7,1.3,1.4,2,2.2l-0.6,0.9c-0.5-0.9-1-1.6-1.4-2.1v7.4h-1
					v-7.2c-0.5,1.4-1.1,2.6-1.9,3.8l-0.4-1.1c1.1-1.4,1.9-2.9,2.3-4.7h-2v-0.9H196.8z M201-12.8c0.6-0.9,1-1.8,1.3-2.8
					c0.2-0.9,0.3-2,0.3-3.4v-5.3h4.5v10.6c0,0.3,0.1,0.4,0.3,0.4h0.5c0.2,0,0.3,0,0.4-0.1c0.1-0.1,0.2-0.2,0.2-0.4
					c0.1-0.3,0.1-1.1,0.1-2.4l0.9,0.3c0,0.9,0,1.7-0.1,2.3c-0.1,0.5-0.2,0.8-0.4,1s-0.6,0.2-1,0.2h-0.6c-0.9,0-1.3-0.4-1.3-1.2v-9.8
					h-2.5v4.4c0,1.5-0.1,2.8-0.4,3.9c-0.2,1.1-0.7,2.1-1.3,3.1L201-12.8z"/>
				<path class="st7" d="M211.6-15.9h4.9v-1.2h1v1.2h4.8v0.9h-4.8v1.6h5.6v0.9h-12.3v-0.9h5.7V-15h-4.9V-15.9z M211.3-24.3h6.6v0.9
					h-1.4v2.1h1.7v0.9h-1.7v3.1h-1v-3.1h-1.8c-0.1,1.4-0.7,2.5-1.6,3.2l-0.8-0.7c0.8-0.6,1.2-1.5,1.4-2.6H211v-0.8h1.8v-2.1h-1.4
					v-0.9H211.3z M213.7-23.4v2.1h1.8v-2.1H213.7z M219-24h1v4.8h-1V-24z M219.5-17.2l-0.2-1c0.7,0,1.3,0.1,1.8,0.1
					c0.3,0,0.5-0.2,0.5-0.6v-6.1h1v6.3c0,0.8-0.4,1.2-1.1,1.2L219.5-17.2L219.5-17.2z"/>
				<path class="st7" d="M225.3-22.6h1v10.5h-1V-22.6z M227.4-25c0.7,0.8,1.3,1.7,1.7,2.5l-0.9,0.5c-0.5-0.9-1.1-1.8-1.8-2.6
					L227.4-25z M228.5-20.6h5v5.3h-5V-20.6z M232.5-16.3v-3.3h-3v3.3H232.5z M233.6-12.2l-0.3-0.9h1.5c0.5,0,0.8-0.3,0.8-0.9v-9.1
					h-5.4v-1h6.5v10.4c0,1-0.5,1.6-1.6,1.6L233.6-12.2L233.6-12.2z"/>
				<path class="st7" d="M251.4-13.3l-0.2,1h-2.8c-3.4,0-5.4-0.2-6.3-0.5c-0.7-0.3-1.4-0.9-2-1.7c-0.3,0.9-0.6,1.7-1,2.5l-0.7-0.6
					c0.7-1.3,1.2-2.7,1.2-4.3l0.9,0.1c0,0.5-0.1,0.9-0.1,1.3c0.4,0.6,0.8,1,1.2,1.3v-3.4h-2.8v-1h5.9v0.9h-2.3v1.5h1.9v0.9h-1.9v1.5
					c0.1,0,0.2,0.1,0.2,0.1c0.8,0.3,2.7,0.4,5.5,0.4C249.5-13.3,250.5-13.3,251.4-13.3z M239.5-24.4h4.8v4.9h-4.8V-24.4z
					 M240.5-22.3h2.8v-1.3h-2.8V-22.3z M243.3-20.3v-1.2h-2.8v1.2H243.3z M247.6-20.8h0.9v2c0,1.3-0.3,2.4-0.8,3.2
					c-0.5,0.7-1.2,1.3-2.3,1.7l-0.5-0.9c1-0.4,1.7-0.9,2.1-1.5c0.4-0.7,0.6-1.5,0.6-2.6V-20.8z M245-24.4h6v0.9h-2.5
					c0,0.4-0.1,0.8-0.2,1.1h2.3v5.7h-0.9v-4.8h-3.4v4.8h-0.9v-5.6h2c0.1-0.3,0.1-0.7,0.2-1.1H245V-24.4z M249.1-16.6
					c0.9,0.7,1.6,1.3,2.2,2l-0.7,0.7c-0.5-0.7-1.3-1.4-2.1-2.1L249.1-16.6z"/>
			</g>
		</g>
	</g>
</g>
<g id="assistantgroup" transform="translate(0,0)">
</g>
</svg>
