<?xml version="1.0" encoding="UTF-8"?>
<svg width="32px" height="32px" viewBox="0 0 32 32" version="1.1" xmlns="http://www.w3.org/2000/svg" xmlns:xlink="http://www.w3.org/1999/xlink">
    <!-- Generator: Sketch 52.6 (67491) - http://www.bohemiancoding.com/sketch -->
    <title>教育服务-32px</title>
    <desc>Created with Sketch.</desc>
    <g id="教育服务-32px" stroke="none" stroke-width="1" fill="none" fill-rule="evenodd">
        <rect id="Rectangle-Copy" fill="#444444" opacity="0" x="0" y="0" width="32" height="32"></rect>
        <g id="28e2ffcd86ac8ed6f5799dda1d767197" transform="translate(-1.000000, 1.000000)" fill="#888888" fill-rule="nonzero">
            <path d="M27.6,10.9 C28.8,10.7 32,9.9 32.7,11.8 C33.4,14.1 33,16.5 31.3,18.2 C30.4,19 29,19.2 27.8,18.7 C27.8,18.3 27.6,18 27.6,17.5 L28.4,17.3 L27.6,17.1 C27.4,16.5 27.4,15.9 27.4,15.3 L28.2,15.1 L27.4,14.6 C27.4,14 27.4,13.5 27.4,12.9 L28.5,12.7 L27.4,12.4 C27.4,12 27.6,11.4 27.6,10.9 Z M6.5,10.9 C6.5,11.4 6.7,11.9 6.7,12.5 L5.6,12.8 L6.7,13 L6.7,14.7 L5.9,15 L6.7,15.2 C6.7,15.8 6.5,16.4 6.5,17 L5.7,17.3 L6.5,17.5 C6.5,17.9 6.3,18.2 6.3,18.7 C5.2,19 3.9,19 2.8,18.1 C1.1,16.4 0.5,14 1.3,11.7 C2.1,9.8 5.3,10.6 6.5,10.9 Z M31.2,19.2 L31.6,18.9 L31.6,19.5 L31.6,24.4 C31.6,25.3 31,26.1 30.1,26.2 L29.9,26.2 C28.7,26 27.6,26 26.4,26 C23.2,26 20.2,26.9 17.9,28.6 C17.6,29 17.2,29.2 17,29.2 C16.7,29.2 16.4,29 16.2,28.9 L16.1,28.8 C13.6,27 10.9,26.1 8.3,26.1 C8.1,26.1 7.8,26.1 7.6,26.1 C6.8,26.1 6.1,26.2 5.1,26.3 C4.7,26.3 4.3,26.4 3.9,26.4 L3.7,26.4 C2.8,26.2 2.3,25.5 2.3,24.6 L2.3,19.7 L2.3,19.3 L2.7,19.4 L3,19.5 L3.1,19.5 L3.2,19.6 C3.3,19.7 3.5,19.7 3.6,19.7 L3.9,19.7 L4.1,19.7 L4.3,19.7 L4.3,20 L4.3,20.3 L4.3,24.2 C5.4,24.1 6.4,24 7.5,24 C10.6,24 13.5,24.8 16,26.3 L16,7 C15.3,6.2 14.5,5.6 13.9,5.2 L13.7,5.1 C12.9,4.5 12,4.2 11.1,3.9 C9.9,3.5 8.8,3.3 7.6,3.3 C6.5,3.3 5.3,3.5 4.2,3.8 L4.2,9.6 L4.2,9.9 L3.9,9.9 L3.8,9.9 C3.4,9.9 3.2,9.9 3,9.8 C2.9,9.7 2.8,9.7 2.7,9.7 L2.5,9.7 L2.2,9.7 L2.2,9.4 L2.2,3.4 C2.2,2.6 2.6,1.9 3.2,1.7 C4.9,1.2 6.3,0.9 7.6,0.9 C11.3,1.1 14.6,2.5 16.9,4.8 C19.6,2.4 22.8,1.1 26.2,0.9 C27.6,0.9 29,1.1 30.6,1.7 C31.4,2.1 31.7,2.7 31.6,3.4 L31.6,9.4 L31.6,9.7 L31.3,9.7 L31.1,9.7 C30.8,9.7 30.6,9.7 30.4,9.8 L30.3,9.9 L30.2,9.9 L30,9.9 L29.6,9.9 L29.6,9.6 L29.6,3.8 C28.5,3.5 27.4,3.3 26.3,3.3 C25.1,3.3 23.9,3.5 22.8,3.9 C22.1,4.1 21.6,4.4 21,4.7 C20.8,4.8 20.5,5 20.2,5.1 C19.3,5.6 18.6,6.1 18,6.8 L18,26 C20.6,24.5 23.5,23.7 26.5,23.7 C27.3,23.7 28.1,23.8 28.8,23.9 C29.1,23.9 29.4,24 29.7,24 L29.7,19.8 L29.7,19.5 L30,19.5 L30.2,19.5 L30.5,19.5 C30.7,19.5 30.8,19.5 30.8,19.5 L30.8,19.4 L30.9,19.4 L31.2,19.2 Z" id="Combined-Shape"></path>
        </g>
    </g>
</svg>