<?xml version="1.0" encoding="UTF-8"?>
<svg width="32px" height="32px" viewBox="0 0 32 32" version="1.1" xmlns="http://www.w3.org/2000/svg" xmlns:xlink="http://www.w3.org/1999/xlink">
    <!-- Generator: Sketch 52.4 (67378) - http://www.bohemiancoding.com/sketch -->
    <title>专有云</title>
    <desc>Created with Sketch.</desc>
    <g id="专有云" stroke="none" stroke-width="1" fill="none" fill-rule="evenodd">
        <g id="Group-3" transform="translate(0.000000, 2.000000)">
            <path d="M6.38511132,21.8386901 L6.21580719,21.8320561 L6.30793784,21.8317606 C6.33360121,21.8342726 6.35932622,21.836583 6.38511132,21.8386901 Z M2,17.0913051 C2,14.6091857 3.91559433,12.5514509 6.37393943,12.364448 L8.22224631,12.2238498 L8.22224043,10.3702031 C8.22222685,6.08505354 11.861615,2.53476308 15.5949983,2.53476308 C19.5449701,2.53476308 21.717092,4.65921739 22.4983931,7.65761831 L24.433768,7.15331266 C23.7969311,4.7093224 21.6004205,0.534763076 15.5949983,0.534763076 C11.1227458,0.534763076 6.22222222,4.62316693 6.22224043,10.3702094 C2.74170334,10.6349691 0,13.5429575 0,17.0913051 C0,20.6396464 2.74169378,23.5476309 6.22222222,23.8320458 L12.8184894,23.8108881 L12.8120744,21.8108984 L6.30793784,21.8317606 C3.87753206,21.5938616 2,19.5472313 2,17.0913051 Z M6.38511132,21.8386901 L6.21580719,21.8320561 L6.30793784,21.8317606 C6.33360121,21.8342726 6.35932622,21.836583 6.38511132,21.8386901 Z" id="Combined-Shape" fill="#00A4FF" fill-rule="nonzero"></path>
            <g id="Group-18" transform="translate(13.000000, 9.000000)" stroke="#00A4FF" stroke-width="2">
                <g id="Group-2" transform="translate(9.707107, 9.292893) rotate(-45.000000) translate(-9.707107, -9.292893) translate(5.707107, 6.292893)" stroke-linecap="square">
                    <path d="M1.34165184,0 L1.65834816,4" id="Line"></path>
                    <path d="M1.70710678,4.41282005 L7.70710678,4.00139351" id="Line-2"></path>
                </g>
                <circle id="Oval-7" cx="9.5" cy="9.5" r="8.5"></circle>
            </g>
        </g>
    </g>
</svg>