<?xml version="1.0" encoding="UTF-8"?>
<svg width="16px" height="16px" viewBox="0 0 16 16" version="1.1" xmlns="http://www.w3.org/2000/svg" xmlns:xlink="http://www.w3.org/1999/xlink">
    <!-- Generator: Sketch 52.6 (67491) - http://www.bohemiancoding.com/sketch -->
    <title>安全管理</title>
    <desc>Created with Sketch.</desc>
    <g id="安全管理" stroke="none" stroke-width="1" fill="none" fill-rule="evenodd">
        <rect id="Rectangle" fill-rule="nonzero" x="0" y="0" width="16" height="16"></rect>
        <path d="M1,1 L15,1 L15,8.4 C15,8.4 14.946,14.359 8,16 C1.054,14.359 1,8.4 1,8.4 L1,1 Z M8,13.934 C12.732,12.589 12.987,8.802 13,8.362 L13,3 L3,3 L3,8.4 C3.013,8.803 3.268,12.589 8,13.934 Z M4,5 L6,5 L6,9 L4,9 L4,5 Z M7,4 L9,4 L9,11 L7,11 L7,4 Z M10,5 L12,5 L12,9 L10,9 L10,5 Z" id="Combined-Shape" fill="#00A4FF"></path>
    </g>
</svg>