<svg xmlns="http://www.w3.org/2000/svg" width="810" height="325" viewBox="0 0 810 325">
  <title>场景2</title>
  <g>
    <g>
      <path d="M477.5,246.5h51" style="fill: none;stroke: #888"/>
      <polygon points="524 251 530 246.5 524 242 524 251" style="fill: #888"/>
      <path d="M477.5,246.5h51" style="fill: none;stroke: red;stroke-opacity: 0;stroke-width: 15px"/>
    </g>
    <g>
      <path d="M533.5,256.5h-51" style="fill: none;stroke: #888"/>
      <polygon points="487 252 481 256.5 487 261 487 252" style="fill: #888"/>
      <path d="M533.5,256.5h-51" style="fill: none;stroke: red;stroke-opacity: 0;stroke-width: 15px"/>
    </g>
    <g>
      <path d="M407.5,226.5v-31h0v-32" style="fill: none;stroke: #888"/>
      <polygon points="412 168 407.5 162 403 168 412 168" style="fill: #888"/>
      <path d="M407.5,226.5v-31" style="fill: none;stroke: red;stroke-opacity: 0;stroke-width: 15px"/>
      <path d="M407.5,195.5v-32" style="fill: none;stroke: red;stroke-opacity: 0;stroke-width: 15px"/>
    </g>
    <g>
      <path d="M407.5,108.5v-23h0v-23" style="fill: none;stroke: #888"/>
      <polygon points="412 67 407.5 61 403 67 412 67" style="fill: #888"/>
      <path d="M407.5,108.5v-23" style="fill: none;stroke: red;stroke-opacity: 0;stroke-width: 15px"/>
      <path d="M407.5,85.5v-23" style="fill: none;stroke: red;stroke-opacity: 0;stroke-width: 15px"/>
    </g>
    <g>
      <path d="M257.5,251.5h76" style="fill: none;stroke: #888"/>
      <polygon points="329 256 335 251.5 329 247 329 256" style="fill: #888"/>
      <path d="M257.5,251.5h38" style="fill: none;stroke: red;stroke-opacity: 0;stroke-width: 15px"/>
      <path d="M295.5,251.5h38" style="fill: none;stroke: red;stroke-opacity: 0;stroke-width: 15px"/>
    </g>
  </g>
  <g>
    <g>
      <rect x="536" y="229" width="138" height="50" style="fill: #bbb;opacity: 0.6000000238418579;isolation: isolate"/>
      <rect x="534" y="227" width="138" height="50" style="fill: #fff;stroke: #e5e5e5"/>
      <g>
        <path d="M558.7,242H582v15h2V240H558.7a1.9,1.9,0,0,0-2.7-.7,1.962,1.962,0,0,0-.7,2.7,1.9,1.9,0,0,0,2.7.7A1.575,1.575,0,0,0,558.7,242ZM583,261a1.936,1.936,0,0,0-1.7,1H558V247h-2v17h25.3a1.972,1.972,0,0,0,3.4-2A1.936,1.936,0,0,0,583,261Zm-10-5v-8h-2l-1.5,4-1.5-4h-2v8h2v-3l1.5,3,1.5-3v3Zm-8-6v-2h-5v8h5v-2h-3v-1h3v-2h-3v-1Zm15,0a1.923,1.923,0,0,0-1.9-2H574v8h2v-3h1.1l1.1,3h2.4l-1.3-3.5a1.717,1.717,0,0,0,.6-1.5v-1Zm-2,1h-2v-1h2Z" style="fill: #00a4ff"/>
        <g style="isolation: isolate">
          <path d="M603.031,247.573a3.267,3.267,0,0,1,1.15,2.381h-1.135a2.517,2.517,0,0,0-.841-1.61,2.915,2.915,0,0,0-1.891-.533,3.379,3.379,0,0,0-1.737.364,1.387,1.387,0,0,0,.14,2.494,11.687,11.687,0,0,0,1.836.63,13.472,13.472,0,0,1,2.605.967,2.359,2.359,0,0,1,1.246,2.115,2.428,2.428,0,0,1-1.05,2.073,4.843,4.843,0,0,1-2.83.742,4.525,4.525,0,0,1-2.773-.757,3.564,3.564,0,0,1-1.3-2.745h1.135a2.75,2.75,0,0,0,.91,1.919,3.215,3.215,0,0,0,2.031.561,3.794,3.794,0,0,0,1.99-.463,1.418,1.418,0,0,0,.756-1.261,1.625,1.625,0,0,0-1-1.471,12.089,12.089,0,0,0-2.115-.728,16.623,16.623,0,0,1-2.3-.812,2.114,2.114,0,0,1-1.148-1.933,2.281,2.281,0,0,1,1.105-2.031,4.45,4.45,0,0,1,2.55-.672A4.148,4.148,0,0,1,603.031,247.573Z" style="fill: #444"/>
          <path d="M611.641,250.725a4.2,4.2,0,0,1,.827,2.675,4.255,4.255,0,0,1-.813,2.648,2.9,2.9,0,0,1-2.423,1.148,2.621,2.621,0,0,1-2.395-1.512v4.089h-1.12V249.758h1.05v1.191a2.571,2.571,0,0,1,2.409-1.387A2.932,2.932,0,0,1,611.641,250.725Zm-4.3.616a3.345,3.345,0,0,0-.546,1.989v.14a3.106,3.106,0,0,0,.616,2.031,1.9,1.9,0,0,0,1.583.77,2.105,2.105,0,0,0,1.779-.812,3.452,3.452,0,0,0,.546-2.059,3.658,3.658,0,0,0-.518-2.046,2,2,0,0,0-1.765-.868A1.934,1.934,0,0,0,607.341,251.341Z" style="fill: #444"/>
          <path d="M619.369,250.374a2.892,2.892,0,0,1,.645,1.976V257h-1.051v-1.219a3.353,3.353,0,0,1-1.107.967,3.676,3.676,0,0,1-1.807.448,2.6,2.6,0,0,1-1.737-.547,1.824,1.824,0,0,1-.671-1.456,2.041,2.041,0,0,1,.994-1.863,4.641,4.641,0,0,1,2.521-.616l1.737-.028v-.378c0-1.219-.63-1.822-1.891-1.822a2.307,2.307,0,0,0-1.3.323,1.57,1.57,0,0,0-.728,1.037l-1.107-.085a2.488,2.488,0,0,1,1.12-1.695,3.844,3.844,0,0,1,2.088-.5A2.963,2.963,0,0,1,619.369,250.374Zm-2.142,3.18c-1.625.028-2.438.56-2.438,1.611a.991.991,0,0,0,.406.826,1.777,1.777,0,0,0,1.092.322,2.738,2.738,0,0,0,1.821-.671,1.935,1.935,0,0,0,.785-1.5v-.617Z" style="fill: #444"/>
          <path d="M625.921,249.73v1.121a3.624,3.624,0,0,0-1.079-.155,1.7,1.7,0,0,0-1.414.743,2.607,2.607,0,0,0-.574,1.723V257h-1.108v-7.242h1.108v1.261a2.64,2.64,0,0,1,.755-1,2.018,2.018,0,0,1,1.317-.462A2.6,2.6,0,0,1,625.921,249.73Z" style="fill: #444"/>
          <path d="M627.977,246.8v6.317l3.627-3.362h1.486l-3.194,2.914L633.4,257h-1.442l-2.83-3.6-1.148,1.037V257h-1.122V246.8Z" style="fill: #444"/>
        </g>
      </g>
    </g>
    <g>
      <rect x="341" y="229" width="138" height="50" style="fill: #bbb;opacity: 0.6000000238418579;isolation: isolate"/>
      <rect x="339" y="227" width="138" height="50" style="fill: #fff;stroke: #e5e5e5"/>
      <g>
        <path d="M375.1,265A13,13,0,1,1,388,250h2a15,15,0,1,0,0,4h-2A13.115,13.115,0,0,1,375.1,265Zm6.9-14v-6H368v6h4l-1,1v2h9v2h0v2h2v-6h-4l1-1v-2h-9v-2h10v4Zm-8,0h3l-1,1h-3Zm-6,1v6h8.5l1.5,2h2l-3-4h-7v-4Z" style="fill: #00a4ff"/>
        <g style="isolation: isolate">
          <path d="M409.125,247.685a3.521,3.521,0,0,1,1.344,2.381h-1.107a2.559,2.559,0,0,0-1.064-1.68,3.387,3.387,0,0,0-1.989-.561,3.2,3.2,0,0,0-2.689,1.219,4.734,4.734,0,0,0-.883,3,4.6,4.6,0,0,0,.868,2.97,3.22,3.22,0,0,0,2.676,1.163,3.116,3.116,0,0,0,3.221-2.606h1.107a4.573,4.573,0,0,1-7.9,2.087,5.522,5.522,0,0,1-1.121-3.614,5.62,5.62,0,0,1,1.149-3.655,4.3,4.3,0,0,1,3.585-1.583A4.438,4.438,0,0,1,409.125,247.685Z" style="fill: #444"/>
          <path d="M420.227,247l-4.525,4.286L420.857,257h-1.541l-4.412-4.973L413.35,253.5V257H412.2V247h1.15v5.2l5.379-5.2Z" style="fill: #444"/>
          <path d="M427.169,250.374a2.887,2.887,0,0,1,.644,1.976V257h-1.05v-1.219a3.373,3.373,0,0,1-1.107.967,3.677,3.677,0,0,1-1.806.448,2.606,2.606,0,0,1-1.738-.547,1.826,1.826,0,0,1-.673-1.456,2.041,2.041,0,0,1,1-1.863,4.64,4.64,0,0,1,2.52-.616l1.738-.028v-.378c0-1.219-.631-1.822-1.891-1.822a2.307,2.307,0,0,0-1.3.323,1.573,1.573,0,0,0-.728,1.037l-1.107-.085a2.486,2.486,0,0,1,1.121-1.695,3.834,3.834,0,0,1,2.086-.5A2.966,2.966,0,0,1,427.169,250.374Zm-2.144,3.18c-1.625.028-2.437.56-2.437,1.611a1,1,0,0,0,.406.826,1.781,1.781,0,0,0,1.094.322,2.739,2.739,0,0,0,1.82-.671,1.935,1.935,0,0,0,.785-1.5v-.617Z" style="fill: #444"/>
          <path d="M433.832,247v.966h-1.246a.855.855,0,0,0-.687.238,1.115,1.115,0,0,0-.21.757v.8h2.045v.938h-2.045V257h-1.121v-6.3h-1.82v-.938h1.82v-.826a2,2,0,0,1,.463-1.415,1.833,1.833,0,0,1,1.414-.518Z" style="fill: #444"/>
          <path d="M435.889,246.8v6.317l3.628-3.362H441l-3.194,2.914,3.5,4.328h-1.443l-2.83-3.6-1.148,1.037V257h-1.121V246.8Z" style="fill: #444"/>
          <path d="M447.623,250.374a2.892,2.892,0,0,1,.645,1.976V257h-1.051v-1.219a3.356,3.356,0,0,1-1.108.967,3.672,3.672,0,0,1-1.806.448,2.6,2.6,0,0,1-1.737-.547,1.822,1.822,0,0,1-.672-1.456,2.04,2.04,0,0,1,1-1.863,4.637,4.637,0,0,1,2.52-.616l1.737-.028v-.378c0-1.219-.63-1.822-1.89-1.822a2.305,2.305,0,0,0-1.3.323,1.566,1.566,0,0,0-.728,1.037l-1.108-.085a2.489,2.489,0,0,1,1.121-1.695,3.84,3.84,0,0,1,2.087-.5A2.967,2.967,0,0,1,447.623,250.374Zm-2.144,3.18c-1.625.028-2.437.56-2.437,1.611a.994.994,0,0,0,.406.826,1.78,1.78,0,0,0,1.093.322,2.733,2.733,0,0,0,1.82-.671,1.932,1.932,0,0,0,.785-1.5v-.617Z" style="fill: #444"/>
        </g>
      </g>
    </g>
    <g>
      <rect x="341" y="111" width="138" height="50" style="fill: #bbb;opacity: 0.6000000238418579;isolation: isolate"/>
      <rect x="339" y="109" width="138" height="50" style="fill: #fff;stroke: #e5e5e5"/>
      <g>
        <path d="M363.7,124H387v15h2V122H363.7a1.9,1.9,0,0,0-2.7-.7,1.962,1.962,0,0,0-.7,2.7,1.9,1.9,0,0,0,2.7.7A1.575,1.575,0,0,0,363.7,124ZM388,143a1.936,1.936,0,0,0-1.7,1H363V129h-2v17h25.3a1.972,1.972,0,1,0,3.4-2A1.936,1.936,0,0,0,388,143Zm-10-5v-8h-2l-1.5,4-1.5-4h-2v8h2v-3l1.5,3,1.5-3v3Zm-8-6v-2h-5v8h5v-2h-3v-1h3v-2h-3v-1Zm15,0a1.923,1.923,0,0,0-1.9-2H379v8h2v-3h1.1l1.1,3h2.4l-1.3-3.5a1.717,1.717,0,0,0,.6-1.5v-1Zm-2,1h-2v-1h2Z" style="fill: #00a4ff"/>
        <g style="isolation: isolate">
          <path d="M403.157,129v4.342h5.785V129h1.149v10h-1.149v-4.664h-5.785V139h-1.148V129Z" style="fill: #444"/>
          <path d="M417.564,132.738a5,5,0,0,1,.842,2.956H412.69a3.116,3.116,0,0,0,.659,1.891,2.053,2.053,0,0,0,1.625.673,2.244,2.244,0,0,0,1.442-.448,2.526,2.526,0,0,0,.729-1.135h1.121a3.273,3.273,0,0,1-.981,1.709,3.37,3.37,0,0,1-2.311.812,3.244,3.244,0,0,1-2.494-1.022,4.491,4.491,0,0,1-.042-5.478,3.044,3.044,0,0,1,2.494-1.134A3.086,3.086,0,0,1,417.564,132.738Zm-4.16.393a2.8,2.8,0,0,0-.685,1.695h4.524c-.139-1.555-.911-2.326-2.284-2.326A2.03,2.03,0,0,0,413.4,133.131Z" style="fill: #444"/>
          <path d="M423.893,131.73v1.121a3.629,3.629,0,0,0-1.079-.155,1.7,1.7,0,0,0-1.416.743,2.617,2.617,0,0,0-.574,1.723V139h-1.105v-7.242h1.105v1.261a2.664,2.664,0,0,1,.757-1,2.016,2.016,0,0,1,1.317-.462A2.6,2.6,0,0,1,423.893,131.73Z" style="fill: #444"/>
          <path d="M430.263,132.935a2.658,2.658,0,0,1,1.008-1.037,2.307,2.307,0,0,1,1.275-.336,2.47,2.47,0,0,1,1.835.714,2.824,2.824,0,0,1,.686,1.975V139h-1.12v-4.566a2.145,2.145,0,0,0-.406-1.429,1.652,1.652,0,0,0-1.346-.49,1.486,1.486,0,0,0-1.189.532,1.975,1.975,0,0,0-.49,1.415V139H429.4v-4.566c0-1.289-.561-1.919-1.667-1.919a1.546,1.546,0,0,0-1.275.616,2.17,2.17,0,0,0-.5,1.457V139h-1.121v-7.242h1.121v.967a2.413,2.413,0,0,1,2.045-1.163A2.247,2.247,0,0,1,430.263,132.935Z" style="fill: #444"/>
          <path d="M442.415,132.738a5.012,5.012,0,0,1,.841,2.956h-5.715a3.116,3.116,0,0,0,.658,1.891,2.054,2.054,0,0,0,1.625.673,2.251,2.251,0,0,0,1.443-.448,2.55,2.55,0,0,0,.728-1.135h1.12a3.271,3.271,0,0,1-.98,1.709,3.37,3.37,0,0,1-2.311.812,3.243,3.243,0,0,1-2.494-1.022,4.493,4.493,0,0,1-.041-5.478,3.039,3.039,0,0,1,2.492-1.134A3.091,3.091,0,0,1,442.415,132.738Zm-4.16.393a2.8,2.8,0,0,0-.687,1.695h4.525c-.14-1.555-.91-2.326-2.283-2.326A2.027,2.027,0,0,0,438.255,133.131Z" style="fill: #444"/>
          <path d="M450.1,133.817h-1.093a1.535,1.535,0,0,0-.561-.98,2.239,2.239,0,0,0-1.33-.337,2.045,2.045,0,0,0-1.177.28.845.845,0,0,0-.461.757c0,.309.195.574.616.784a10.664,10.664,0,0,0,1.5.477,6.641,6.641,0,0,1,1.863.672,1.681,1.681,0,0,1,.867,1.485c0,1.484-1.021,2.241-3.066,2.241-1.906,0-2.943-.841-3.111-2.508h1.093a1.88,1.88,0,0,0,.6,1.234,2.356,2.356,0,0,0,1.387.336c1.289,0,1.947-.421,1.947-1.233a1.045,1.045,0,0,0-.686-.939,10.716,10.716,0,0,0-1.541-.462,6.2,6.2,0,0,1-1.793-.645,1.545,1.545,0,0,1-.826-1.414,1.659,1.659,0,0,1,.813-1.457,3.335,3.335,0,0,1,1.988-.546C448.924,131.562,449.9,132.305,450.1,133.817Z" style="fill: #444"/>
        </g>
      </g>
    </g>
    <g>
      <rect x="341" y="10" width="138" height="50" style="fill: #bbb;opacity: 0.6000000238418579;isolation: isolate"/>
      <rect x="339" y="8" width="138" height="50" style="fill: #fff;stroke: #e5e5e5"/>
      <g>
        <path d="M363.7,23H387V38h2V21H363.7a1.9,1.9,0,0,0-2.7-.7,1.962,1.962,0,0,0-.7,2.7,1.9,1.9,0,0,0,2.7.7A1.575,1.575,0,0,0,363.7,23ZM388,42a1.936,1.936,0,0,0-1.7,1H363V28h-2V45h25.3a1.972,1.972,0,0,0,3.4-2A1.936,1.936,0,0,0,388,42Zm-10-5V29h-2l-1.5,4L373,29h-2v8h2V34l1.5,3,1.5-3v3Zm-8-6V29h-5v8h5V35h-3V34h3V32h-3V31Zm15,0a1.923,1.923,0,0,0-1.9-2H379v8h2V34h1.1l1.1,3h2.4l-1.3-3.5a1.717,1.717,0,0,0,.6-1.5V31Zm-2,1h-2V31h2Z" style="fill: #00a4ff"/>
        <g style="isolation: isolate">
          <path d="M403.157,28v4.342h5.785V28h1.149V38h-1.149V33.336h-5.785V38h-1.148V28Z" style="fill: #444"/>
          <path d="M415.674,28a4.508,4.508,0,0,1,3.586,1.372A5.334,5.334,0,0,1,420.381,33a5.175,5.175,0,0,1-1.2,3.628A4.675,4.675,0,0,1,415.562,38h-3.474V28Zm-2.438,9.007h2.129a3.9,3.9,0,0,0,2.943-1.037,4.266,4.266,0,0,0,.938-2.97,4.385,4.385,0,0,0-.869-2.983,3.67,3.67,0,0,0-2.885-1.023h-2.256Z" style="fill: #444"/>
          <path d="M428.668,28v.994h-5.547v3.361h5.253v1h-5.253V38h-1.148V28Z" style="fill: #444"/>
          <path d="M436.073,28.573a3.262,3.262,0,0,1,1.149,2.381h-1.134a2.522,2.522,0,0,0-.841-1.61,2.92,2.92,0,0,0-1.892-.533,3.372,3.372,0,0,0-1.736.364,1.386,1.386,0,0,0,.14,2.494,11.66,11.66,0,0,0,1.835.63,13.472,13.472,0,0,1,2.605.967,2.36,2.36,0,0,1,1.247,2.115,2.431,2.431,0,0,1-1.05,2.073,4.845,4.845,0,0,1-2.83.742,4.521,4.521,0,0,1-2.773-.757,3.561,3.561,0,0,1-1.3-2.745h1.135a2.75,2.75,0,0,0,.91,1.919,3.215,3.215,0,0,0,2.031.561,3.791,3.791,0,0,0,1.989-.463,1.419,1.419,0,0,0,.757-1.261,1.626,1.626,0,0,0-1-1.471,12.056,12.056,0,0,0-2.115-.728,16.677,16.677,0,0,1-2.3-.812,2.116,2.116,0,0,1-1.148-1.933,2.282,2.282,0,0,1,1.106-2.031,4.448,4.448,0,0,1,2.55-.672A4.151,4.151,0,0,1,436.073,28.573Z" style="fill: #444"/>
        </g>
      </g>
    </g>
    <g>
      <rect x="122" y="229" width="138" height="50" style="fill: #bbb;opacity: 0.6000000238418579;isolation: isolate"/>
      <rect x="120" y="227" width="138" height="50" style="fill: #fff;stroke: #e5e5e5"/>
      <g>
        <path d="M156,265a13,13,0,1,1,12.9-15h2a15.034,15.034,0,1,0,0,4h-2A13.181,13.181,0,0,1,156,265Zm7-17-7-4-7,4v8l3.2,1.8a4.248,4.248,0,0,1,1-1.7l-2.2-1.3v-3.7l5,2.9,5-2.9v3.7l-4.1,2.4a2.012,2.012,0,1,0,.9,2.7,2.92,2.92,0,0,0,.2-.9v-.1l5-2.9Zm-7,3.7-4.7-2.7,4.7-2.7,4.7,2.7Z" style="fill: #00a4ff"/>
        <g style="isolation: isolate">
          <path d="M195.307,250.276v1.009h-6.724a24.463,24.463,0,0,1-3.375,5.519c2.521-.14,5.028-.378,7.536-.714q-.756-1.345-1.681-2.774l.812-.5a45.406,45.406,0,0,1,2.984,5.056l-.9.631c-.224-.49-.462-.98-.728-1.485-2.843.364-5.939.644-9.3.869l-.266-1.023a1.016,1.016,0,0,0,.238-.1q1.345-1.008,3.558-5.477h-4.721v-1.009Zm-1.246-3.908v.981h-9.974v-.981Z" style="fill: #444"/>
          <path d="M197.541,258.429l-.757-.7a12.255,12.255,0,0,0,.855-4.847v-6.724h4.09v10.926c0,.841-.392,1.274-1.177,1.274h-1.12l-.238-.9c.392.028.742.057,1.078.057.351,0,.533-.252.533-.757V253.6h-2.27A13.078,13.078,0,0,1,197.541,258.429Zm3.264-11.361h-2.256v2.368h2.256Zm-2.256,5.618h2.256v-2.339h-2.256Zm5.309,5.729h-.952v-12.27h5.673a14.761,14.761,0,0,1-.252,3.445c-.168.574-.687.868-1.569.868h-1.135l-.266-.868c.238,0,.546.014.938.014a3.143,3.143,0,0,0,.743-.07.644.644,0,0,0,.378-.406,9.724,9.724,0,0,0,.182-2.06h-3.74v4.244h4.763v.855a10.26,10.26,0,0,1-1.373,3.685,10.957,10.957,0,0,0,2.227,1.652l-.5.854a11.366,11.366,0,0,1-2.3-1.722,7.452,7.452,0,0,1-2.172,1.737l-.532-.812A6.879,6.879,0,0,0,206,255.907a8.793,8.793,0,0,1-1.807-3.7h-.336Zm2.718-3.292a9.531,9.531,0,0,0,1.148-2.914h-2.661A7.72,7.72,0,0,0,206.576,255.123Z" style="fill: #444"/>
          <path d="M215.841,245.654a8.461,8.461,0,0,1-.532,1.065h6.107v.812a12.271,12.271,0,0,1-3.278,2.648,18.131,18.131,0,0,0,5.295,1.3l-.462.939a17.614,17.614,0,0,1-5.925-1.682,22.553,22.553,0,0,1-5.982,1.709l-.461-.952a22.748,22.748,0,0,0,5.35-1.345,14.428,14.428,0,0,1-2.185-1.583,11.729,11.729,0,0,1-1.751,1.3l-.616-.812a7.6,7.6,0,0,0,3.417-3.544Zm1.331,6.093a9.674,9.674,0,0,1-.14,1.6h4.93c-.027,2.367-.238,3.782-.644,4.244a2.686,2.686,0,0,1-2.1.7c-.448,0-.994-.028-1.639-.057l-.252-.91,1.653.071c.84-.015,1.358-.2,1.583-.533a6.692,6.692,0,0,0,.378-2.605h-4.147a5.708,5.708,0,0,1-.448,1.05c-.714,1.26-2.353,2.311-4.93,3.124l-.673-.826c2.3-.673,3.824-1.528,4.553-2.55a4.407,4.407,0,0,0,.434-.8h-4.174v-.911h4.454a7.343,7.343,0,0,0,.168-1.6Zm2.8-4.076h-5.351l-.183.225a13.267,13.267,0,0,0,2.592,1.764A12.574,12.574,0,0,0,219.974,247.671Z" style="fill: #444"/>
          <path d="M229.547,250.893a5.777,5.777,0,0,0,.644-1.135l.967.1a7.115,7.115,0,0,1-.518,1.037h3.613a7,7,0,0,0-.63-.953l.855-.28a8.645,8.645,0,0,1,.77,1.233h1.933v.9H233.4a9.706,9.706,0,0,0,4.076,2l-.406.854c-.35-.111-.673-.238-.981-.349v4.118h-.9v-.6h-2.619v.6h-.9V254h3.74a8.482,8.482,0,0,1-3.082-2.213h-2.367A8.925,8.925,0,0,1,226.815,254h3.517v4.413h-.9v-.6h-2.4v.6h-.883v-4.133c-.378.141-.756.267-1.148.393l-.463-.826a11.224,11.224,0,0,0,4.146-2.06h-3.865v-.9Zm.686-4.805v3.4h-4.272v-3.4Zm-.924.869h-2.437v1.681h2.437Zm.126,9.987v-2.1h-2.4v2.1Zm6.71-10.856v3.4h-4.357v-3.4Zm-.953,10.856v-2.1h-2.619v2.1Zm.042-9.987h-2.521v1.681h2.521Z" style="fill: #444"/>
        </g>
      </g>
    </g>
  </g>
  <g>
    <g>
      <rect x="173" y="300" width="160.3" height="20" style="fill: #cee3ff;fill-opacity: 0"/>
      <g style="isolation: isolate">
        <path d="M176.526,305.437V314h-.984v-7.364a4.587,4.587,0,0,1-2.014,1.176v-.984a5.094,5.094,0,0,0,1.2-.516,4.9,4.9,0,0,0,1.031-.875Z" style="fill: #878787"/>
        <path d="M179.911,312.789a.7.7,0,0,1,.216.527.7.7,0,0,1-.216.516.717.717,0,0,1-.516.216.662.662,0,0,1-.516-.216.7.7,0,0,1-.215-.516.7.7,0,0,1,.215-.527.662.662,0,0,1,.516-.216A.717.717,0,0,1,179.911,312.789Z" style="fill: #878787"/>
        <path d="M182.814,305.437v7.711h4.954V314h-5.925v-8.563Z" style="fill: #878787"/>
        <path d="M193.769,308.591a3.767,3.767,0,0,1,.011,4.605,2.811,2.811,0,0,1-2.23.972,2.755,2.755,0,0,1-2.219-.972,3.344,3.344,0,0,1-.791-2.291,3.41,3.41,0,0,1,.791-2.314,3.047,3.047,0,0,1,4.438,0Zm-3.754.6a3.214,3.214,0,0,0,0,3.418,1.778,1.778,0,0,0,1.535.756,1.845,1.845,0,0,0,1.547-.756,3.22,3.22,0,0,0,0-3.418,1.846,1.846,0,0,0-1.547-.754A1.779,1.779,0,0,0,190.015,309.19Z" style="fill: #878787"/>
        <path d="M200.453,308.867V307.8h.96v5.768c0,1.979-.948,2.975-2.831,2.975a3.1,3.1,0,0,1-1.919-.5,2.251,2.251,0,0,1-.828-1.512h.96a1.347,1.347,0,0,0,.528.924,2.113,2.113,0,0,0,1.259.312c1.247,0,1.871-.7,1.871-2.063v-1.092a2.237,2.237,0,0,1-2.087,1.248,2.564,2.564,0,0,1-2.051-.887,3.667,3.667,0,0,1,0-4.426,2.513,2.513,0,0,1,2.051-.911A2.228,2.228,0,0,1,200.453,308.867Zm-3.394.228a2.558,2.558,0,0,0-.5,1.667,2.637,2.637,0,0,0,.444,1.594,1.74,1.74,0,0,0,1.5.7,1.792,1.792,0,0,0,1.463-.648,2.969,2.969,0,0,0,0-3.31,1.736,1.736,0,0,0-1.451-.672A1.707,1.707,0,0,0,197.059,309.1Z" style="fill: #878787"/>
        <path d="M207.641,309.562h-.936a1.326,1.326,0,0,0-.479-.839,1.93,1.93,0,0,0-1.14-.287,1.736,1.736,0,0,0-1.007.239.721.721,0,0,0-.4.647c0,.264.168.492.527.672a9.052,9.052,0,0,0,1.284.408,5.645,5.645,0,0,1,1.595.576,1.439,1.439,0,0,1,.744,1.271c0,1.272-.876,1.919-2.627,1.919-1.631,0-2.518-.72-2.663-2.147h.936a1.6,1.6,0,0,0,.516,1.055,2,2,0,0,0,1.187.288c1.1,0,1.667-.359,1.667-1.055a.892.892,0,0,0-.588-.8,8.813,8.813,0,0,0-1.319-.4,5.3,5.3,0,0,1-1.535-.551,1.325,1.325,0,0,1-.708-1.211,1.416,1.416,0,0,1,.7-1.247,2.852,2.852,0,0,1,1.7-.468C206.633,307.632,207.473,308.268,207.641,309.562Z" style="fill: #878787"/>
        <path d="M210.618,307.8h1.535v.8h-1.535v3.946a.694.694,0,0,0,.132.492.593.593,0,0,0,.456.155H212v.8h-.935a1.347,1.347,0,0,1-1.092-.4,1.587,1.587,0,0,1-.3-1.055V308.6h-1.247v-.8h1.247v-1.608l.948-.395Z" style="fill: #878787"/>
        <path d="M217.889,308.327a2.473,2.473,0,0,1,.551,1.692V314h-.9v-1.043a2.9,2.9,0,0,1-.948.827,3.143,3.143,0,0,1-1.547.384,2.23,2.23,0,0,1-1.487-.468,1.563,1.563,0,0,1-.576-1.247,1.75,1.75,0,0,1,.852-1.6,3.971,3.971,0,0,1,2.159-.527l1.487-.024v-.324c0-1.044-.54-1.559-1.619-1.559a1.975,1.975,0,0,0-1.116.276,1.345,1.345,0,0,0-.623.887l-.948-.071a2.129,2.129,0,0,1,.96-1.452,3.28,3.28,0,0,1,1.786-.431A2.538,2.538,0,0,1,217.889,308.327Zm-1.835,2.723c-1.392.023-2.087.479-2.087,1.379a.856.856,0,0,0,.347.708,1.527,1.527,0,0,0,.936.275,2.341,2.341,0,0,0,1.559-.575,1.657,1.657,0,0,0,.672-1.283v-.529Z" style="fill: #878787"/>
        <path d="M224.668,309.562h-.935a1.323,1.323,0,0,0-.48-.839,1.926,1.926,0,0,0-1.139-.287,1.742,1.742,0,0,0-1.008.239.723.723,0,0,0-.4.647c0,.264.168.492.528.672a9.072,9.072,0,0,0,1.283.408,5.642,5.642,0,0,1,1.6.576,1.44,1.44,0,0,1,.743,1.271c0,1.272-.875,1.919-2.626,1.919-1.631,0-2.519-.72-2.663-2.147h.936a1.608,1.608,0,0,0,.515,1.055,2.009,2.009,0,0,0,1.188.288c1.1,0,1.667-.359,1.667-1.055a.892.892,0,0,0-.588-.8,8.853,8.853,0,0,0-1.319-.4,5.3,5.3,0,0,1-1.535-.551,1.325,1.325,0,0,1-.708-1.211,1.416,1.416,0,0,1,.7-1.247,2.85,2.85,0,0,1,1.7-.468C223.661,307.632,224.5,308.268,224.668,309.562Z" style="fill: #878787"/>
        <path d="M226.95,305.269v3.549a2.193,2.193,0,0,1,1.991-1.186,2.114,2.114,0,0,1,1.667.636,2.614,2.614,0,0,1,.576,1.822V314h-.96v-3.766a2,2,0,0,0-.408-1.332,1.545,1.545,0,0,0-1.2-.466,1.464,1.464,0,0,0-1.187.575,2.184,2.184,0,0,0-.48,1.451V314h-.959v-8.731Z" style="fill: #878787"/>
        <path d="M240.291,314a4.479,4.479,0,0,1-.433-.72,8.61,8.61,0,0,1-2.218,1.944l-.468-.745a8.191,8.191,0,0,0,2.291-2.1,11.871,11.871,0,0,1-.42-1.476,20.475,20.475,0,0,1-.432-4.317h-6.032v-.84h6.032v-1.535h.864v1.535h1.763a9.461,9.461,0,0,0-.672-1.2l.876-.144a12.779,12.779,0,0,1,.635,1.343h1.164v.84h-3.754a24.3,24.3,0,0,0,.336,3.886c.072.372.143.719.239,1.044a16.915,16.915,0,0,0,1.691-3.922l.756.407a16.856,16.856,0,0,1-2.1,4.546,6.192,6.192,0,0,0,.372.743c.42.624.792.936,1.128.936.287,0,.539-.684.743-2.051l.743.492c-.323,1.655-.791,2.494-1.391,2.494A2.276,2.276,0,0,1,240.291,314Zm-2.327-.972a51.192,51.192,0,0,1-5.17,1.1l-.215-.852a36.459,36.459,0,0,0,5.385-1.091Zm-.372-5.18v3.658h-4.4v-3.658Zm-.852.8h-2.686v2.075h2.686Z" style="fill: #878787"/>
        <path d="M248.333,305.437v.828h-1.068a.731.731,0,0,0-.588.2.956.956,0,0,0-.179.648v.684h3.777V314h-.947v-5.4H246.5V314h-.96v-5.4h-1.559v-.8h1.559v-.708a1.71,1.71,0,0,1,.4-1.211,1.566,1.566,0,0,1,1.211-.444Z" style="fill: #878787"/>
        <path d="M253.1,305.269V314h-.948v-8.731Z" style="fill: #878787"/>
        <path d="M259.587,308.639a4.283,4.283,0,0,1,.72,2.531h-4.893a2.669,2.669,0,0,0,.564,1.619,1.754,1.754,0,0,0,1.391.575,1.922,1.922,0,0,0,1.235-.384,2.164,2.164,0,0,0,.624-.971h.96a2.812,2.812,0,0,1-.84,1.464,2.89,2.89,0,0,1-1.979.695,2.774,2.774,0,0,1-2.135-.876,3.843,3.843,0,0,1-.036-4.689,2.6,2.6,0,0,1,2.135-.971A2.644,2.644,0,0,1,259.587,308.639Zm-3.562.336a2.394,2.394,0,0,0-.587,1.451h3.874c-.12-1.331-.78-1.99-1.955-1.99A1.735,1.735,0,0,0,256.025,308.975Z" style="fill: #878787"/>
        <path d="M262.4,305.269v3.669a2.235,2.235,0,0,1,2.051-1.306,2.444,2.444,0,0,1,2.074,1,3.61,3.61,0,0,1,.7,2.255,3.705,3.705,0,0,1-.7,2.3,2.575,2.575,0,0,1-2.122.983,2.155,2.155,0,0,1-2.063-1.188V314h-.9v-8.731Zm.492,3.826a2.694,2.694,0,0,0-.528,1.751v.12a2.817,2.817,0,0,0,.468,1.69,1.669,1.669,0,0,0,1.451.72,1.732,1.732,0,0,0,1.511-.731,3.141,3.141,0,0,0,.444-1.763,2.85,2.85,0,0,0-.468-1.739,1.758,1.758,0,0,0-1.523-.72A1.591,1.591,0,0,0,262.89,309.1Z" style="fill: #878787"/>
        <path d="M273.279,308.639a4.283,4.283,0,0,1,.72,2.531h-4.893a2.669,2.669,0,0,0,.563,1.619,1.758,1.758,0,0,0,1.392.575,1.924,1.924,0,0,0,1.235-.384,2.164,2.164,0,0,0,.624-.971h.959a2.81,2.81,0,0,1-.839,1.464,2.89,2.89,0,0,1-1.979.695,2.774,2.774,0,0,1-2.135-.876,3.843,3.843,0,0,1-.036-4.689,2.6,2.6,0,0,1,2.135-.971A2.644,2.644,0,0,1,273.279,308.639Zm-3.562.336a2.394,2.394,0,0,0-.587,1.451H273c-.12-1.331-.78-1.99-1.955-1.99A1.735,1.735,0,0,0,269.717,308.975Z" style="fill: #878787"/>
        <path d="M279.8,308.327a2.474,2.474,0,0,1,.552,1.692V314h-.9v-1.043a2.9,2.9,0,0,1-.948.827,3.143,3.143,0,0,1-1.547.384,2.232,2.232,0,0,1-1.487-.468,1.565,1.565,0,0,1-.575-1.247,1.751,1.751,0,0,1,.851-1.6,3.974,3.974,0,0,1,2.159-.527l1.487-.024v-.324c0-1.044-.54-1.559-1.619-1.559a1.975,1.975,0,0,0-1.116.276,1.349,1.349,0,0,0-.623.887l-.947-.071a2.124,2.124,0,0,1,.959-1.452,3.283,3.283,0,0,1,1.787-.431A2.537,2.537,0,0,1,279.8,308.327Zm-1.835,2.723c-1.392.023-2.087.479-2.087,1.379a.854.854,0,0,0,.348.708,1.522,1.522,0,0,0,.935.275,2.341,2.341,0,0,0,1.559-.575,1.657,1.657,0,0,0,.672-1.283v-.529Z" style="fill: #878787"/>
        <path d="M283.493,307.8h1.535v.8h-1.535v3.946a.694.694,0,0,0,.132.492.593.593,0,0,0,.456.155h.792v.8h-.936a1.347,1.347,0,0,1-1.091-.4,1.581,1.581,0,0,1-.3-1.055V308.6H281.3v-.8h1.247v-1.608l.947-.395Z" style="fill: #878787"/>
        <path d="M295.177,315.14H294.3v-.912h-5.673v.923h-.864v-10.47h7.412Zm-.875-6.2v-3.417h-5.673v3.417Zm0,4.451v-3.611h-5.673v3.611Z" style="fill: #878787"/>
        <path d="M299.9,310.894a14.16,14.16,0,0,1-1.163,3.585l-.744-.455a12.54,12.54,0,0,0,1.055-3.31Zm3.9-6.716v1.57h4.677v.84H303.8v1.848h3.9v.827h-8.659v-.827h3.873v-1.848h-4.689v-.84h4.689v-1.57Zm-1.811,10.769c-.792,0-1.175-.431-1.175-1.3V310.33h.887v3.154c0,.408.18.624.564.624h2.6a.668.668,0,0,0,.588-.252,3.819,3.819,0,0,0,.324-1.775l.815.275a4.473,4.473,0,0,1-.515,2.244,1.419,1.419,0,0,1-1.056.347Zm2.7-2.53-.792.348a15.366,15.366,0,0,0-1.1-2.423l.815-.276A16.882,16.882,0,0,1,304.683,312.417Zm4.113,1.355-.791.348a23.443,23.443,0,0,0-1.535-3.454l.8-.264A23.958,23.958,0,0,1,308.8,313.772Z" style="fill: #878787"/>
        <path d="M310.17,312.093c.168-.072.264-.168.264-.287v-6.574h.839v6.549c.6-.168,1.2-.372,1.8-.6v-6.92h.852v10.865h-.852v-3.106c-.839.3-1.727.564-2.638.8Zm4.534-2.219-.54-.659a10.931,10.931,0,0,0,2-5.05l.863.145c-.12.611-.252,1.187-.4,1.714h4.006v.852h-1.031a10.036,10.036,0,0,1-1.451,5.049,14.38,14.38,0,0,0,2.758,2.627l-.587.695a14.948,14.948,0,0,1-2.7-2.578,9.73,9.73,0,0,1-3.058,2.494l-.492-.779a8.318,8.318,0,0,0,3.01-2.411,14.689,14.689,0,0,1-1.667-3.082A9.03,9.03,0,0,1,314.7,309.874Zm1.223-1.919a13.742,13.742,0,0,0,1.679,3.238,9.153,9.153,0,0,0,1.175-4.317h-2.41C316.227,307.26,316.083,307.619,315.927,307.955Z" style="fill: #878787"/>
        <path d="M322.35,308.219l-.492-.671a9.118,9.118,0,0,0,2.387-3.383l.8.2c-.119.324-.263.636-.407.936h2.59a9.2,9.2,0,0,0-.527-1.032l.887-.143a12.51,12.51,0,0,1,.48,1.175h3.874v.719h-3.814v.816h3.37v.672h-3.37v.791h3.37v.672h-3.37v.851h4.041v.732h-8.815v-3.37A13.373,13.373,0,0,1,322.35,308.219Zm-.168,4.066v-.779h4.774v-.624h.863v.624h4.7v.779h-3.635a8.822,8.822,0,0,0,3.766,1.835l-.372.768a8.816,8.816,0,0,1-4.233-2.6h-.228v2.926h-.863v-2.926h-.228a8.938,8.938,0,0,1-4.21,2.651l-.456-.745a9.275,9.275,0,0,0,3.814-1.906Zm5.1-6.261h-3.058l-.06.1v.72h3.118Zm0,1.488h-3.118v.791h3.118Zm0,1.463h-3.118v.851h3.118Z" style="fill: #878787"/>
      </g>
    </g>
    <g>
      <rect x="461" y="300" width="130.4" height="20" style="fill: #cee3ff;fill-opacity: 0"/>
      <g style="isolation: isolate">
        <path d="M466.673,305.952a2.346,2.346,0,0,1,.767,1.812,2.92,2.92,0,0,1-.838,2.014,12.15,12.15,0,0,1-1.776,1.379,4.237,4.237,0,0,0-1.871,1.967h4.5V314h-5.709a3.076,3.076,0,0,1,.852-2.123,10.416,10.416,0,0,1,1.858-1.523,10.584,10.584,0,0,0,1.343-1.068,2.241,2.241,0,0,0,.66-1.535,1.555,1.555,0,0,0-.468-1.211,1.865,1.865,0,0,0-1.307-.432,1.6,1.6,0,0,0-1.356.6,2.613,2.613,0,0,0-.527,1.715h-.984a3.231,3.231,0,0,1,.8-2.29,2.72,2.72,0,0,1,2.1-.864A2.84,2.84,0,0,1,466.673,305.952Z" style="fill: #878787"/>
        <path d="M470.3,312.789a.709.709,0,0,1,.216.527.7.7,0,0,1-.216.516.719.719,0,0,1-.516.216.655.655,0,0,1-.515-.216.693.693,0,0,1-.217-.516.7.7,0,0,1,.217-.527.655.655,0,0,1,.515-.216A.719.719,0,0,1,470.3,312.789Z" style="fill: #878787"/>
        <path d="M481.385,305.929a2.8,2.8,0,0,1,.983,2.039H481.4a2.158,2.158,0,0,0-.719-1.38,2.5,2.5,0,0,0-1.619-.455,2.9,2.9,0,0,0-1.488.311,1.187,1.187,0,0,0,.12,2.135,9.972,9.972,0,0,0,1.572.54,11.462,11.462,0,0,1,2.23.827,2.021,2.021,0,0,1,1.068,1.811,2.078,2.078,0,0,1-.9,1.775,4.14,4.14,0,0,1-2.422.636,3.881,3.881,0,0,1-2.375-.647,3.049,3.049,0,0,1-1.115-2.351h.971a2.349,2.349,0,0,0,.779,1.642,2.762,2.762,0,0,0,1.74.48,3.252,3.252,0,0,0,1.7-.4,1.21,1.21,0,0,0,.647-1.079,1.387,1.387,0,0,0-.852-1.259,10.193,10.193,0,0,0-1.81-.623,14.262,14.262,0,0,1-1.967-.7,1.809,1.809,0,0,1-.983-1.654,1.951,1.951,0,0,1,.947-1.739,3.809,3.809,0,0,1,2.182-.576A3.55,3.55,0,0,1,481.385,305.929Z" style="fill: #878787"/>
        <path d="M488.765,308.627a3.606,3.606,0,0,1,.708,2.291,3.646,3.646,0,0,1-.7,2.267,2.483,2.483,0,0,1-2.075.983,2.247,2.247,0,0,1-2.051-1.3v3.5h-.959V307.8h.9v1.018a2.2,2.2,0,0,1,2.063-1.186A2.513,2.513,0,0,1,488.765,308.627Zm-3.683.527a2.868,2.868,0,0,0-.467,1.7v.121a2.664,2.664,0,0,0,.528,1.739,1.629,1.629,0,0,0,1.355.659,1.8,1.8,0,0,0,1.523-.695,2.957,2.957,0,0,0,.467-1.763,3.126,3.126,0,0,0-.443-1.751,1.714,1.714,0,0,0-1.512-.744A1.656,1.656,0,0,0,485.082,309.154Z" style="fill: #878787"/>
        <path d="M495.389,308.327a2.478,2.478,0,0,1,.551,1.692V314h-.9v-1.043a2.9,2.9,0,0,1-.947.827,3.152,3.152,0,0,1-1.548.384,2.23,2.23,0,0,1-1.487-.468,1.566,1.566,0,0,1-.576-1.247,1.752,1.752,0,0,1,.852-1.6,3.974,3.974,0,0,1,2.159-.527l1.486-.024v-.324c0-1.044-.539-1.559-1.619-1.559a1.974,1.974,0,0,0-1.115.276,1.345,1.345,0,0,0-.623.887l-.947-.071a2.124,2.124,0,0,1,.959-1.452,3.281,3.281,0,0,1,1.787-.431A2.537,2.537,0,0,1,495.389,308.327Zm-1.835,2.723c-1.392.023-2.087.479-2.087,1.379a.853.853,0,0,0,.347.708,1.53,1.53,0,0,0,.936.275,2.341,2.341,0,0,0,1.559-.575,1.656,1.656,0,0,0,.671-1.283v-.529Z" style="fill: #878787"/>
        <path d="M501.005,307.775v.96a3.126,3.126,0,0,0-.923-.132,1.458,1.458,0,0,0-1.212.635,2.243,2.243,0,0,0-.491,1.476V314h-.947v-6.2h.947v1.079a2.261,2.261,0,0,1,.647-.852,1.73,1.73,0,0,1,1.128-.395A2.235,2.235,0,0,1,501.005,307.775Z" style="fill: #878787"/>
        <path d="M502.771,305.269v5.409l3.106-2.878h1.271l-2.734,2.494,3,3.706h-1.235l-2.423-3.082-.983.888V314h-.96v-8.731Z" style="fill: #878787"/>
        <path d="M511.037,304.609a15.814,15.814,0,0,1-.959,2.447v8.168h-.84v-6.7a16.825,16.825,0,0,1-1.127,1.5l-.276-.924a13.8,13.8,0,0,0,2.423-4.858Zm3.37,9.2h-2.579v.779h-.814v-4.93H512.3v-2.35h-1.56v-.8h1.56v-2.135h.814V306.5h1.535v.8h-1.535v2.35h1.3Zm-.815-.756v-2.627h-1.764v2.627Zm1.163-3.491-.516-.624a11.37,11.37,0,0,0,1.451-4.617l.8.144c-.084.564-.18,1.092-.3,1.6h2.591v.8h-.564a13.734,13.734,0,0,1-1.007,5.373,8.848,8.848,0,0,0,1.774,2.351l-.6.575a9.817,9.817,0,0,1-1.608-2.11,6.865,6.865,0,0,1-1.967,2.135l-.5-.661a5.965,5.965,0,0,0,2.051-2.3,12.425,12.425,0,0,1-1-3.73A7.992,7.992,0,0,1,514.755,309.562Zm2.71-2.7h-1.486l-.073.252a12.865,12.865,0,0,0,.864,4.161A13.672,13.672,0,0,0,517.465,306.864Z" style="fill: #878787"/>
        <path d="M526.215,313.173a7.437,7.437,0,0,0,3.142-2.459h-3.549a14.434,14.434,0,0,1-3.754,1.14l-.516-.768a8.934,8.934,0,0,0,5.792-2.387l.744.407a8.43,8.43,0,0,1-.924.816h3.288v.683c-1.7,2.832-4.87,4.294-9.524,4.4l-.348-.828a15.6,15.6,0,0,0,4.846-.7,12.885,12.885,0,0,0-1.271-1.463l.767-.36A15.98,15.98,0,0,1,526.215,313.173Zm-.084-8.6a8.829,8.829,0,0,1-.684.684h3.443v.683c-1.295,2.3-3.706,3.6-7.208,3.874l-.371-.779a13.571,13.571,0,0,0,2.9-.48,11.793,11.793,0,0,0-1.176-1.247l.756-.36a12.532,12.532,0,0,1,1.223,1.32,6.224,6.224,0,0,0,2.89-2.244h-3.5a11.378,11.378,0,0,1-3.322,1.259l-.5-.791a8.42,8.42,0,0,0,4.785-2.327Z" style="fill: #878787"/>
        <path d="M534.93,310.15a39.113,39.113,0,0,1-2.243,4.665l-.8-.359a36.478,36.478,0,0,0,2.291-4.594Zm-.061-2.986-.672.48a21.578,21.578,0,0,0-2.182-2.5l.7-.431A21.269,21.269,0,0,1,534.869,307.164Zm4.414.5a16.9,16.9,0,0,1-.1,1.8,9.772,9.772,0,0,0,3.79,5.073l-.564.659a10.881,10.881,0,0,1-3.477-4.342,8.087,8.087,0,0,1-.252.84,6.538,6.538,0,0,1-3.539,3.527l-.564-.684a6.421,6.421,0,0,0,3.251-3,11.67,11.67,0,0,0,.611-3.873Zm-3.551,1.906-.718-.5a9.551,9.551,0,0,0,1.906-4.9l.863.132c-.1.624-.2,1.2-.336,1.727h5.037v.564a21.766,21.766,0,0,1-.982,3.022l-.852-.24a12.7,12.7,0,0,0,.912-2.518h-4.354A7.812,7.812,0,0,1,535.732,309.574Z" style="fill: #878787"/>
        <path d="M546.545,307.871v5.337c.432-.359.912-.768,1.416-1.247l.215.888a16.669,16.669,0,0,1-2.4,1.919l-.336-.78a.639.639,0,0,0,.277-.5V308.7h-1.763v-.828Zm.863-1.7-.587.6a13.083,13.083,0,0,0-2.063-1.859l.6-.588A13.638,13.638,0,0,1,547.408,306.168Zm3.551,1.632v-3.611h.887V307.8h3.083v.863h-3.083v6.561h-.887v-6.561h-3.25V307.8Z" style="fill: #878787"/>
        <path d="M565.43,306.912v4.713H564v.8h2.723v.767H564v2.028h-.852V313.2h-3.406a2.694,2.694,0,0,1-.491.9,4.1,4.1,0,0,1-2,1.092l-.443-.684a3.867,3.867,0,0,0,1.762-.9,2.765,2.765,0,0,0,.252-.408H556.1v-.767h2.938c.012-.12.024-.24.024-.336v-.468h-1.523v-4.713Zm-8.539.168-.721-.444a7.068,7.068,0,0,0,1.584-2.519l.827.18c-.1.24-.2.48-.3.708h2.975v.731h-1.571a6.594,6.594,0,0,1,.5.732l-.719.264a10.187,10.187,0,0,0-.648-1H557.9A7.957,7.957,0,0,1,556.891,307.08Zm7.7,1.223v-.719h-6.213v.719Zm0,1.283v-.671h-6.213v.671Zm0,.624h-6.213v.744h6.213Zm-4.665,1.883a2.944,2.944,0,0,1-.025.336h3.25v-.8h-3.225Zm2.1-5.253-.707-.456a6.209,6.209,0,0,0,1.295-2.242l.84.179-.252.648h3.418v.731h-2a7.451,7.451,0,0,1,.529.78l-.72.264a7.089,7.089,0,0,0-.684-1.044h-.911A7.773,7.773,0,0,1,562.023,306.84Z" style="fill: #878787"/>
        <path d="M570.653,309l-.612.611a13.078,13.078,0,0,0-1.967-1.823l.613-.587A13.276,13.276,0,0,1,570.653,309Zm.312,1.727A41.26,41.26,0,0,1,569,315.067l-.791-.347a37.475,37.475,0,0,0,2-4.294Zm.156-4.545-.611.611a12.754,12.754,0,0,0-2.088-1.823l.612-.588A14.665,14.665,0,0,1,571.121,306.181Zm2.363.419-.7.336a13.567,13.567,0,0,0-1.331-2.039l.719-.348A20.612,20.612,0,0,1,573.484,306.6Zm1.967-2.363v3.275h2.59v6.428c0,.791-.384,1.187-1.127,1.187h-1.4l-.228-.839,1.343.024a.5.5,0,0,0,.563-.564v-1.175h-4.33v2.567H572v-7.628h2.566v-3.275Zm1.738,4.1h-4.33v1.38h4.33Zm-4.33,3.49h4.33v-1.367h-4.33Zm5.7-7a10.708,10.708,0,0,1-1.4,2.207l-.683-.348a11.827,11.827,0,0,0,1.379-2.2Z" style="fill: #878787"/>
        <path d="M585.963,311.338a4.175,4.175,0,0,1-1.079,2.758c-.624.588-2,.96-4.161,1.115l-.348-.768c1.906-.095,3.166-.371,3.777-.851a3.362,3.362,0,0,0,.948-2.338Zm1.141-3.622h3.225a3.158,3.158,0,0,1-.276,1.667c-.18.263-.6.4-1.247.4-.193,0-.384-.011-.552-.011l-.168-.613c.217.013.42.025.611.025.373,0,.6-.06.7-.18a1.346,1.346,0,0,0,.12-.624H587.1v1.367h-.84v-1.367h-2.1a3.543,3.543,0,0,1-.563.792,4.436,4.436,0,0,1-1.607.9h7.363v3.262h-.851v-2.494h-5.877v2.494h-.852v-3.19c-.3.1-.611.18-.923.252l-.432-.684a5.552,5.552,0,0,0,2.531-1.043c.084-.1.168-.192.24-.288H580.83l.42-2.1h2.423v-.767h-2.735V304.8h2.735v-.623h.839v.623h1.752v-.623h.84v.623h2.65v2.159H587.1Zm-5.338,0h1.775a3.165,3.165,0,0,0,.132-.756h-1.716Zm2.638,0h1.86v-.756h-1.752A7.162,7.162,0,0,1,584.4,307.716Zm.108-1.44h1.752v-.767h-1.752Zm5.949,8.264-.468.72a23.191,23.191,0,0,0-4.21-1.451l.432-.649A26.271,26.271,0,0,1,590.461,314.54Zm-3.357-8.264h1.834v-.767H587.1Z" style="fill: #878787"/>
      </g>
    </g>
    <g>
      <rect x="423" y="186" width="105" height="20" style="fill: #cee3ff;fill-opacity: 0"/>
      <g style="isolation: isolate">
        <path d="M428.673,191.893a2.123,2.123,0,0,1,.743,1.7,1.869,1.869,0,0,1-1.4,1.919,2.244,2.244,0,0,1,1.15.731,1.863,1.863,0,0,1,.432,1.26,2.466,2.466,0,0,1-.815,1.906,3.076,3.076,0,0,1-2.159.756,3.109,3.109,0,0,1-1.991-.624,2.988,2.988,0,0,1-1.02-2.194h1a1.987,1.987,0,0,0,.672,1.535,2.3,2.3,0,0,0,2.819-.084,1.719,1.719,0,0,0,.515-1.26,1.488,1.488,0,0,0-.5-1.2,2.053,2.053,0,0,0-1.391-.42h-.7v-.768h.66a1.98,1.98,0,0,0,1.307-.383,1.412,1.412,0,0,0,.456-1.116A1.447,1.447,0,0,0,428,192.54a1.868,1.868,0,0,0-1.309-.42,1.845,1.845,0,0,0-1.342.456,2.021,2.021,0,0,0-.587,1.331h-.973a2.819,2.819,0,0,1,.912-1.942,2.788,2.788,0,0,1,1.979-.7A3.019,3.019,0,0,1,428.673,191.893Z" style="fill: #878787"/>
        <path d="M432.3,198.789a.709.709,0,0,1,.216.527.7.7,0,0,1-.216.516.719.719,0,0,1-.516.216.655.655,0,0,1-.515-.216.693.693,0,0,1-.217-.516.7.7,0,0,1,.217-.527.655.655,0,0,1,.515-.216A.719.719,0,0,1,432.3,198.789Z" style="fill: #878787"/>
        <path d="M439.211,191.437v3.717h4.953v-3.717h.983V200h-.983v-3.994h-4.953V200h-.983v-8.563Z" style="fill: #878787"/>
        <path d="M451.557,194.639a4.283,4.283,0,0,1,.718,2.531h-4.892a2.669,2.669,0,0,0,.563,1.619,1.758,1.758,0,0,0,1.392.575,1.915,1.915,0,0,0,1.234-.384,2.157,2.157,0,0,0,.625-.971h.959a2.805,2.805,0,0,1-.84,1.464,2.886,2.886,0,0,1-1.978.695,2.772,2.772,0,0,1-2.135-.876,3.843,3.843,0,0,1-.036-4.689,2.6,2.6,0,0,1,2.135-.971A2.647,2.647,0,0,1,451.557,194.639Zm-3.563.336a2.4,2.4,0,0,0-.588,1.451h3.874c-.12-1.331-.779-1.99-1.954-1.99A1.734,1.734,0,0,0,447.994,194.975Z" style="fill: #878787"/>
        <path d="M456.981,193.775v.96a3.121,3.121,0,0,0-.923-.132,1.458,1.458,0,0,0-1.212.635,2.243,2.243,0,0,0-.492,1.476V200h-.947v-6.2h.947v1.079a2.263,2.263,0,0,1,.648-.852,1.728,1.728,0,0,1,1.128-.395A2.232,2.232,0,0,1,456.981,193.775Z" style="fill: #878787"/>
        <path d="M462.44,194.807a2.29,2.29,0,0,1,.865-.888,1.977,1.977,0,0,1,1.091-.287,2.114,2.114,0,0,1,1.571.611,2.417,2.417,0,0,1,.588,1.692V200h-.96v-3.91a1.837,1.837,0,0,0-.348-1.223,1.412,1.412,0,0,0-1.151-.42,1.278,1.278,0,0,0-1.02.455,1.7,1.7,0,0,0-.42,1.212V200H461.7v-3.91c0-1.1-.48-1.643-1.427-1.643a1.326,1.326,0,0,0-1.092.528,1.86,1.86,0,0,0-.432,1.247V200h-.959v-6.2h.959v.827a2.069,2.069,0,0,1,1.752-1A1.923,1.923,0,0,1,462.44,194.807Z" style="fill: #878787"/>
        <path d="M472.855,194.639a4.275,4.275,0,0,1,.721,2.531h-4.893a2.662,2.662,0,0,0,.563,1.619,1.757,1.757,0,0,0,1.391.575,1.925,1.925,0,0,0,1.236-.384,2.163,2.163,0,0,0,.623-.971h.96a2.805,2.805,0,0,1-.84,1.464,2.887,2.887,0,0,1-1.979.695,2.775,2.775,0,0,1-2.135-.876,3.849,3.849,0,0,1-.035-4.689,2.6,2.6,0,0,1,2.135-.971A2.641,2.641,0,0,1,472.855,194.639Zm-3.561.336a2.394,2.394,0,0,0-.587,1.451h3.873c-.119-1.331-.779-1.99-1.955-1.99A1.735,1.735,0,0,0,469.294,194.975Z" style="fill: #878787"/>
        <path d="M479.444,195.562h-.935a1.319,1.319,0,0,0-.48-.839,1.924,1.924,0,0,0-1.139-.287,1.736,1.736,0,0,0-1.007.239.722.722,0,0,0-.4.647c0,.264.168.492.528.672a9.072,9.072,0,0,0,1.283.408,5.654,5.654,0,0,1,1.6.576,1.439,1.439,0,0,1,.744,1.271c0,1.272-.876,1.919-2.627,1.919-1.631,0-2.519-.72-2.662-2.147h.935a1.6,1.6,0,0,0,.516,1.055,2,2,0,0,0,1.187.288c1.1,0,1.666-.359,1.666-1.055a.89.89,0,0,0-.588-.8,8.787,8.787,0,0,0-1.318-.4,5.288,5.288,0,0,1-1.535-.551,1.323,1.323,0,0,1-.708-1.211,1.414,1.414,0,0,1,.7-1.247,2.852,2.852,0,0,1,1.7-.468C478.438,193.632,479.276,194.268,479.444,195.562Z" style="fill: #878787"/>
        <path d="M483.645,195.874c-.084.229-.168.444-.24.66h2.507v.707a4.824,4.824,0,0,1-1.332,2.051c.576.265,1.128.528,1.655.816l-.467.671a17.634,17.634,0,0,0-1.847-.947,9.842,9.842,0,0,1-2.986,1.331l-.408-.72a10.778,10.778,0,0,0,2.53-.983c-.528-.228-1.078-.455-1.666-.671.311-.528.588-1.019.827-1.5H480.8v-.755h1.751q.162-.394.288-.756Zm-.48-3.37v-2.291h.8V192.5h2.182v.756h-2.182v.132c.647.324,1.319.695,1.99,1.1l-.443.672q-.9-.72-1.547-1.151v1.558h-.8V193.3a5.61,5.61,0,0,1-2.146,2.458l-.42-.695a4.974,4.974,0,0,0,1.93-1.8h-1.7V192.5Zm-.671-.575-.624.287a11.14,11.14,0,0,0-.8-1.559l.684-.227A10.256,10.256,0,0,1,482.494,191.929Zm2.639,5.36h-2.064a8.836,8.836,0,0,1-.647,1.151c.479.168.935.336,1.367.517A4.658,4.658,0,0,0,485.133,197.289Zm.887-6.608a8.041,8.041,0,0,1-.924,1.548l-.612-.313a7.649,7.649,0,0,0,.912-1.522Zm1.319,4.114a10.641,10.641,0,0,1-.708,1.476l-.539-.661a15.233,15.233,0,0,0,1.428-5.432l.838.143c-.071.612-.168,1.188-.263,1.715h3.166v.828h-.78a12.813,12.813,0,0,1-1.1,5.133,7.418,7.418,0,0,0,2.219,2.495l-.468.707a7.84,7.84,0,0,1-2.158-2.423,8.073,8.073,0,0,1-2.219,2.412l-.444-.72a7.063,7.063,0,0,0,2.218-2.495A16.582,16.582,0,0,1,487.339,194.8Zm.42-1.308a16.449,16.449,0,0,0,1.163,3.622,12.792,12.792,0,0,0,.767-4.245h-1.775Z" style="fill: #878787"/>
        <path d="M492.971,201.092l-.18-.817a7.872,7.872,0,0,0,.911.061c.3,0,.456-.18.456-.516v-2.938c-.48.18-.947.347-1.416.491l-.215-.839a15.107,15.107,0,0,0,1.631-.492v-2.71h-1.439V192.5h1.439v-2.267H495V192.5h1.151v.828H495v2.362c.384-.168.756-.347,1.116-.54v.852c-.373.192-.744.36-1.116.528v3.5c0,.695-.335,1.056-1.007,1.056Zm3.2.107-.672-.6a13.141,13.141,0,0,0,1.3-6.164v-3.755h6.32V193.6h-2.255v1.415h2.567v.779h-2.567v1.476h2.015V201.2h-.8v-.588h-3.25v.588h-.8v-3.933h2V195.79h-2.446A13.976,13.976,0,0,1,496.173,201.2Zm1.463-7.6v.84c0,.191-.012.382-.012.575h2.4V193.6Zm0-2.112v1.332h4.641v-1.332Zm4.437,8.36v-1.811h-3.25v1.811Z" style="fill: #878787"/>
        <path d="M506.242,192.552v-2.339h.852v2.339h1.234v.828h-1.234v.611q.719.792,1.474,1.8l-.492.731c-.383-.683-.707-1.247-.982-1.678v6.3h-.852v-5.889a14.993,14.993,0,0,1-1.464,3.262l-.372-.948a12.1,12.1,0,0,0,1.812-4.185h-1.476v-.828Zm2.422,2.4-.467-.732a10.119,10.119,0,0,0,3.285-3.993h.792A9.6,9.6,0,0,0,515.6,194.2l-.468.732a10.475,10.475,0,0,1-1.391-1.188v.732h-3.646V193.7A9.791,9.791,0,0,1,508.664,194.951ZM512.622,200a29.441,29.441,0,0,0,1.3-4.726l.827.216a27.819,27.819,0,0,1-1.271,4.51h1.871v.84h-6.872V200Zm-1.931-.911-.755.2c-.241-1.2-.528-2.338-.864-3.441l.744-.252A27.485,27.485,0,0,1,510.691,199.089Zm1.188-8.012a12.267,12.267,0,0,1-1.764,2.6h3.563A9.356,9.356,0,0,1,511.879,191.077Zm.611,7.436-.791.2a30.826,30.826,0,0,0-.78-3.311l.743-.239A28.214,28.214,0,0,1,512.49,198.513Z" style="fill: #878787"/>
        <path d="M520.521,199.16a11.238,11.238,0,0,1-3.382,1.776l-.361-.768a10.208,10.208,0,0,0,3.239-1.571Zm1.055-8.012V190.2h.887v.947h4.043v.792h-4.043v1.043H527v2.2h-.84v-1.44h-4.581l.659.324a14.781,14.781,0,0,1-2.243,1.488c1.1-.025,2-.048,2.676-.1.419-.287.852-.587,1.283-.9l.695.467a17.03,17.03,0,0,1-4.557,2.435c1.559-.048,3.106-.132,4.665-.239-.264-.288-.539-.564-.827-.852l.624-.4a17.7,17.7,0,0,1,2.013,2.242l-.646.468a10.128,10.128,0,0,0-.648-.864c-.971.06-1.883.121-2.747.168v2.29c0,.6-.335.913-.983.913h-1.091l-.18-.8a9.357,9.357,0,0,0,.983.059c.264,0,.408-.131.408-.371v-2.051c-1.319.06-2.531.108-3.635.132l-.168-.78c.252.013.5.024.745.024a13.686,13.686,0,0,0,3.046-1.307c-.816.024-1.74.06-2.783.084l-.168-.659a2.021,2.021,0,0,0,.54-.2,14.05,14.05,0,0,0,2.219-1.572h-3.574v1.428h-.839v-2.184h4.533V191.94h-4.042v-.792Zm5.613,9.127-.444.7a16.567,16.567,0,0,0-3.382-1.715l.432-.636A17.48,17.48,0,0,1,527.189,200.275Z" style="fill: #878787"/>
      </g>
    </g>
    <g>
      <rect x="423" y="74" width="135.1" height="20" style="fill: #cee3ff;fill-opacity: 0"/>
      <g style="isolation: isolate">
        <path d="M428.529,79.437v5.817h1.391v.8h-1.391V88h-.935V86.057h-4.306v-.936l4.317-5.684Zm-4.414,5.817h3.479V80.72h-.036Z" style="fill: #878787"/>
        <path d="M432.3,86.789a.709.709,0,0,1,.216.527.7.7,0,0,1-.216.516.719.719,0,0,1-.516.216.655.655,0,0,1-.515-.216.693.693,0,0,1-.217-.516.7.7,0,0,1,.217-.527.655.655,0,0,1,.515-.216A.719.719,0,0,1,432.3,86.789Z" style="fill: #878787"/>
        <path d="M439.211,79.437v3.717h4.953V79.437h.983V88h-.983V84.006h-4.953V88h-.983V79.437Z" style="fill: #878787"/>
        <path d="M449.938,79.437a3.857,3.857,0,0,1,3.07,1.175,4.568,4.568,0,0,1,.959,3.107,4.433,4.433,0,0,1-1.031,3.105A4,4,0,0,1,449.842,88h-2.975V79.437Zm-2.087,7.711h1.823a3.329,3.329,0,0,0,2.517-.887A3.643,3.643,0,0,0,453,83.719a3.755,3.755,0,0,0-.744-2.555,3.147,3.147,0,0,0-2.471-.876h-1.93Z" style="fill: #878787"/>
        <path d="M461.072,79.437v.851h-4.75v2.879h4.5v.852h-4.5V88h-.983V79.437Z" style="fill: #878787"/>
        <path d="M467.42,79.929a2.788,2.788,0,0,1,.983,2.039h-.971a2.167,2.167,0,0,0-.719-1.38,2.5,2.5,0,0,0-1.619-.455,2.9,2.9,0,0,0-1.488.311,1.186,1.186,0,0,0,.121,2.135,9.88,9.88,0,0,0,1.57.54,11.435,11.435,0,0,1,2.23.827,2.02,2.02,0,0,1,1.069,1.811,2.079,2.079,0,0,1-.9,1.775,4.138,4.138,0,0,1-2.422.636,3.888,3.888,0,0,1-2.375-.647,3.056,3.056,0,0,1-1.115-2.351h.972a2.353,2.353,0,0,0,.779,1.642,2.757,2.757,0,0,0,1.739.48,3.256,3.256,0,0,0,1.7-.4,1.212,1.212,0,0,0,.647-1.079,1.389,1.389,0,0,0-.852-1.259,10.183,10.183,0,0,0-1.811-.623,14.369,14.369,0,0,1-1.967-.7,1.81,1.81,0,0,1-.982-1.654,1.949,1.949,0,0,1,.947-1.739,3.807,3.807,0,0,1,2.183-.576A3.546,3.546,0,0,1,467.42,79.929Z" style="fill: #878787"/>
        <path d="M474.536,78.165,470.291,89.2h-.863l4.257-11.034Z" style="fill: #878787"/>
        <path d="M476.83,79.437v3.717h4.953V79.437h.985V88h-.985V84.006H476.83V88h-.983V79.437Z" style="fill: #878787"/>
        <path d="M485.326,79.269v3.669a2.236,2.236,0,0,1,2.051-1.306,2.444,2.444,0,0,1,2.074.995,3.6,3.6,0,0,1,.7,2.255,3.7,3.7,0,0,1-.7,2.3,2.573,2.573,0,0,1-2.122.983,2.155,2.155,0,0,1-2.063-1.188V88h-.9V79.269Zm.492,3.826a2.694,2.694,0,0,0-.528,1.751v.12a2.817,2.817,0,0,0,.468,1.69,1.67,1.67,0,0,0,1.451.72,1.734,1.734,0,0,0,1.512-.731,3.149,3.149,0,0,0,.443-1.763,2.85,2.85,0,0,0-.468-1.739,1.756,1.756,0,0,0-1.523-.72A1.591,1.591,0,0,0,485.818,83.1Z" style="fill: #878787"/>
        <path d="M496.064,82.327a2.474,2.474,0,0,1,.552,1.692V88h-.9V86.957a2.912,2.912,0,0,1-.947.827,3.155,3.155,0,0,1-1.548.384,2.233,2.233,0,0,1-1.488-.468,1.568,1.568,0,0,1-.575-1.247,1.752,1.752,0,0,1,.852-1.6,3.971,3.971,0,0,1,2.159-.527l1.486-.024v-.324c0-1.044-.539-1.559-1.619-1.559a1.974,1.974,0,0,0-1.115.276,1.345,1.345,0,0,0-.623.887l-.947-.071a2.121,2.121,0,0,1,.959-1.452,3.281,3.281,0,0,1,1.787-.431A2.534,2.534,0,0,1,496.064,82.327Zm-1.835,2.723c-1.391.023-2.086.479-2.086,1.379a.853.853,0,0,0,.347.708,1.527,1.527,0,0,0,.936.275,2.339,2.339,0,0,0,1.558-.575,1.654,1.654,0,0,0,.672-1.283v-.529Z" style="fill: #878787"/>
        <path d="M502.844,83.562h-.936a1.326,1.326,0,0,0-.479-.839,1.93,1.93,0,0,0-1.14-.287,1.742,1.742,0,0,0-1.008.239.722.722,0,0,0-.395.647c0,.264.168.492.528.672a9.026,9.026,0,0,0,1.283.408,5.633,5.633,0,0,1,1.595.576,1.44,1.44,0,0,1,.743,1.271c0,1.272-.875,1.919-2.626,1.919-1.632,0-2.518-.72-2.663-2.147h.936a1.608,1.608,0,0,0,.515,1.055,2.009,2.009,0,0,0,1.188.288c1.1,0,1.668-.359,1.668-1.055a.893.893,0,0,0-.588-.8,8.935,8.935,0,0,0-1.319-.4,5.309,5.309,0,0,1-1.536-.551,1.327,1.327,0,0,1-.708-1.211,1.418,1.418,0,0,1,.7-1.247,2.85,2.85,0,0,1,1.7-.468C501.836,81.632,502.676,82.268,502.844,83.562Z" style="fill: #878787"/>
        <path d="M508.976,82.639a4.275,4.275,0,0,1,.719,2.531H504.8a2.662,2.662,0,0,0,.562,1.619,1.759,1.759,0,0,0,1.392.575,1.92,1.92,0,0,0,1.235-.384,2.164,2.164,0,0,0,.624-.971h.96a2.805,2.805,0,0,1-.84,1.464,2.887,2.887,0,0,1-1.979.7,2.774,2.774,0,0,1-2.135-.876,3.847,3.847,0,0,1-.036-4.689,2.6,2.6,0,0,1,2.135-.971A2.645,2.645,0,0,1,508.976,82.639Zm-3.562.336a2.4,2.4,0,0,0-.588,1.451H508.7c-.12-1.331-.78-1.99-1.955-1.99A1.733,1.733,0,0,0,505.414,82.975Z" style="fill: #878787"/>
        <path d="M513.321,83l-.612.611a13.078,13.078,0,0,0-1.967-1.823l.612-.587A13.287,13.287,0,0,1,513.321,83Zm.312,1.727a41.26,41.26,0,0,1-1.967,4.341l-.791-.347a37.475,37.475,0,0,0,2-4.294Zm.156-4.545-.611.611a12.754,12.754,0,0,0-2.088-1.823l.612-.588A14.665,14.665,0,0,1,513.789,80.181Zm2.363.419-.7.336a13.645,13.645,0,0,0-1.331-2.039l.719-.348A20.612,20.612,0,0,1,516.152,80.6Zm1.967-2.363v3.275h2.59V87.94c0,.791-.384,1.187-1.127,1.187h-1.4l-.228-.839,1.343.024a.5.5,0,0,0,.563-.564V86.573h-4.33V89.14h-.863V81.512h2.566V78.237Zm1.738,4.1h-4.33v1.38h4.33Zm-4.33,3.49h4.33V84.462h-4.33Zm5.7-7a10.708,10.708,0,0,1-1.4,2.207l-.683-.348a11.827,11.827,0,0,0,1.379-2.195Z" style="fill: #878787"/>
        <path d="M524.59,85.938a10.09,10.09,0,0,1-1.2,2.866l-.733-.468a7.908,7.908,0,0,0,1.115-2.566Zm2.422-6.849a4.09,4.09,0,0,0,.373-.959l.9.119a4.709,4.709,0,0,1-.359.84h3.958v5.865h-7.509V79.089Zm4.03,1.739v-.983h-5.829v.983Zm0,1.679v-.984h-5.829v.984Zm0,.7h-5.829V84.21h5.829Zm-4.569,5.817A.907.907,0,0,1,525.441,88V85.709h.875V87.82a.367.367,0,0,0,.409.42h2.662a.706.706,0,0,0,.564-.192,2.918,2.918,0,0,0,.3-1.415l.828.263a3.343,3.343,0,0,1-.5,1.847,1.584,1.584,0,0,1-1.019.277Zm2.963-2.1-.661.455a12.794,12.794,0,0,0-1.463-1.7l.635-.4A13.8,13.8,0,0,1,529.436,86.921Zm4.148,1.163-.684.479a20.955,20.955,0,0,0-1.75-2.59l.672-.419A19.687,19.687,0,0,1,533.584,88.084Z" style="fill: #878787"/>
        <path d="M537.213,85.793a25.511,25.511,0,0,1-1.619,3.227l-.839-.373a26.045,26.045,0,0,0,1.726-3.141Zm.192-1.547-.6.588a13.936,13.936,0,0,0-2.015-1.344l.6-.563A13.628,13.628,0,0,1,537.405,84.246Zm.228-5.266v-.767h.84v.767h3.215v-.767h.838v.767h2.747v.756h-2.747v.912h-.838v-.912h-3.215V80.6h-.84v-.864h-2.746V78.98Zm.156,2.843-.588.6a11.827,11.827,0,0,0-1.967-1.367l.6-.564A11.52,11.52,0,0,1,537.789,81.823Zm6.332,7.4h-.8v-.5h-3.742v.5h-.8V85.649c-.288.1-.575.18-.864.276l-.5-.671a16.833,16.833,0,0,0,3.359-1.272A7.239,7.239,0,0,1,539.48,82.8a8.71,8.71,0,0,1-1.475,1.1l-.491-.647a6.219,6.219,0,0,0,2.781-2.915l.792.144a5.838,5.838,0,0,1-.384.791h3.49v.613a6.706,6.706,0,0,1-1.99,2.087,13,13,0,0,0,3.442,1.138l-.493.708a12.125,12.125,0,0,1-3.681-1.367,15.184,15.184,0,0,1-2.519,1.139h5.169Zm-.8-1.26V86.345h-3.742v1.619Zm-1.836-4.4a7.272,7.272,0,0,0,1.728-1.546H540.2a2.432,2.432,0,0,1-.215.252A6.364,6.364,0,0,0,541.482,83.562Z" style="fill: #878787"/>
        <path d="M556.182,88.1H557.5v.78H546.719V88.1h1.26v-2.71h8.2ZM548.89,81.68V78.957h2.29a3.928,3.928,0,0,0,.408-.888l.863.12a3.532,3.532,0,0,1-.383.768h3.549V81.68h1.572v.8h-1.572v1.463c0,.624-.347.936-1.031.936h-.923l-.2-.779c.312.023.611.035.875.035.288,0,.444-.167.444-.492V82.483h-5.121a4.064,4.064,0,0,1-1.5,2.579l-.66-.588a3.385,3.385,0,0,0,1.319-1.991h-1.762v-.8Zm1.522,6.416V86.165h-1.606V88.1Zm4.366-8.36h-5.061V81.68h5.061Zm-1.7,4.342-.515.611a8.825,8.825,0,0,0-1.908-1.415l.456-.551A9.457,9.457,0,0,1,553.075,84.078Zm.155-3-.491.575a8.107,8.107,0,0,0-1.69-1.222l.443-.517A8.615,8.615,0,0,1,553.23,81.08Zm-.347,7.016V86.165H551.24V88.1Zm2.471,0V86.165h-1.643V88.1Z" style="fill: #878787"/>
      </g>
    </g>
  </g>
</svg>
