<?xml version="1.0" encoding="utf-8"?>
<!-- Generator: Adobe Illustrator 22.1.0, SVG Export Plug-In . SVG Version: 6.00 Build 0)  -->
<svg version="1.1" id="svgwrapper_svg" xmlns="http://www.w3.org/2000/svg" xmlns:xlink="http://www.w3.org/1999/xlink" x="0px"
	 y="0px" width="830px" height="370px" viewBox="0 0 830 370" style="enable-background:new 0 0 830 370;" xml:space="preserve">
<style type="text/css">
	.st0{fill:#878787;}
	.st1{fill:none;stroke:#878787;stroke-miterlimit:10;}
	.st2{opacity:0.6;fill:#BBBBBB;enable-background:new    ;}
	.st3{fill:#FFFFFF;}
	.st4{fill:#E5E5E5;}
	.st5{enable-background:new    ;}
	.st6{fill:#444444;}
	.st7{opacity:0.15;fill:#FFFFFF;enable-background:new    ;}
	.st8{fill:#EAEBEC;}
	.st9{fill:#CEE3FF;}
	.st10{fill:#00A4FF;}
	.st11{clip-path:url(#SVGID_2_);}
	.st12{clip-path:url(#SVGID_4_);fill:#00A4FF;}
	.st13{clip-path:url(#SVGID_8_);}
	.st14{clip-path:url(#SVGID_10_);}
	.st15{clip-path:url(#SVGID_12_);fill:#00A4FF;}
</style>
<g>
	<polygon class="st0" points="431,105 436,109 431,113 	"/>
	<line class="st1" x1="432.6" y1="109" x2="412" y2="109"/>
</g>
<g>
	<polygon class="st0" points="725,105 730,109 725,113 	"/>
	<line class="st1" x1="726.6" y1="109" x2="688" y2="109"/>
</g>
<g>
	<polygon class="st0" points="269,105 274,109 269,113 	"/>
	<line class="st1" x1="270.6" y1="109" x2="250" y2="109"/>
</g>
<g>
	<polygon class="st0" points="257,316 252,320 257,324 	"/>
	<line class="st1" x1="255.4" y1="320" x2="276" y2="320"/>
</g>
<g>
	<polygon class="st0" points="419,316 414,320 419,324 	"/>
	<line class="st1" x1="417.4" y1="320" x2="672" y2="320"/>
</g>
<g>
	<g>
		<g>
			<rect x="734" y="82" class="st2" width="96" height="50"/>
			<g>
				<rect x="732.5" y="80.5" class="st3" width="95" height="49"/>
				<path class="st4" d="M827,81v48h-94V81H827 M828,80h-96v50h96V80L828,80z"/>
			</g>
		</g>
		<g>
			<g transform="translate(20 9)">
				<g class="st5">
					<path class="st6" d="M769.4,102.7l-0.8-0.7c0.9-1.2,1.4-2.8,1.4-4.7v-6.7h10.4V101c0,1-0.5,1.5-1.5,1.5h-1.6l-0.3-1
						c0.6,0,1.1,0.1,1.6,0.1s0.8-0.3,0.8-0.9v-2.4h-3.8v4.1h-1v-4.1H771C770.8,100,770.3,101.5,769.4,102.7z M771,91.5v2.4h3.6v-2.4
						H771z M771,97.3h3.6v-2.5H771V97.3z M779.4,91.5h-3.8v2.4h3.8V91.5z M779.4,94.8h-3.8v2.5h3.8V94.8z"/>
					<path class="st6" d="M783.2,102.9l-0.7-0.7c1.1-1.6,1.7-3.6,1.7-6.1v-4.4h4.6c-0.3-0.6-0.5-1.1-0.8-1.6l1.1-0.2
						c0.3,0.5,0.5,1.1,0.8,1.8h4.4v4.7h-9C785.1,98.9,784.5,101,783.2,102.9z M785.2,92.7v2.7h8v-2.7H785.2z"/>
				</g>
			</g>
		</g>
	</g>
	<g>
		<rect x="747" y="88.6" class="st7" width="32" height="32"/>
		<g>
			<path class="st0" d="M759,93.6c2.2,0,4,1.8,4,4s-1.8,4-4,4s-4-1.8-4-4S756.8,93.6,759,93.6 M759,91.6c-3.3,0-6,2.7-6,6s2.7,6,6,6
				s6-2.7,6-6C765,94.3,762.3,91.6,759,91.6L759,91.6z"/>
		</g>
		<g>
			<path class="st0" d="M763,107.6c3.3,0,6,2.7,6,6v1h-20v-1c0-3.3,2.7-6,6-6H763 M763,105.6h-8c-4.4,0-8,3.6-8,8v3h24v-3
				C771,109.2,767.4,105.6,763,105.6L763,105.6z"/>
		</g>
		<path class="st0" d="M772,105.6h-3c0.8,0.6,1.4,1.2,2,2h1c2.2,0,4,1.8,4,4v1h-3.1c0,0.3,0.1,0.7,0.1,1v1h5v-3
			C778,108.3,775.3,105.6,772,105.6z"/>
		<path class="st0" d="M768,92.6c-0.8,0-1.6,0.2-2.3,0.6c0.4,0.6,0.7,1.2,0.9,1.8c0.4-0.2,0.9-0.4,1.4-0.4c1.7,0,3,1.3,3,3
			s-1.3,3-3,3c-0.5,0-1-0.1-1.4-0.4c-0.2,0.6-0.5,1.2-0.9,1.8c0.7,0.4,1.5,0.6,2.3,0.6c2.8,0,5-2.2,5-5S770.8,92.6,768,92.6z"/>
	</g>
</g>
<g>
	<g>
		<g>
			<rect x="674" y="296" class="st2" width="156" height="50"/>
			<g>
				<rect x="672.5" y="294.5" class="st3" width="155" height="49"/>
				<path class="st4" d="M827,295v48H673v-48H827 M828,294H672v50h156V294L828,294z"/>
			</g>
		</g>
		<g>
			<g transform="translate(20 9)">
				<g class="st5">
					<path class="st6" d="M696.6,305.3c-0.2-0.5-0.4-0.9-0.7-1.3l1.1-0.2c0.2,0.4,0.4,0.9,0.6,1.5h4.9v0.9h-2.2
						c-0.2,0.8-0.5,1.5-0.9,2.2h3.7v0.9h-12.4v-0.9h3.6c-0.2-0.8-0.5-1.6-0.8-2.2h-2.2v-0.9H696.6z M701.4,316.8h-1v-0.6h-6.6v0.6
						h-1v-6.2h8.7v6.2H701.4z M700.4,312.9v-1.5h-6.6v1.5H700.4z M700.4,315.3v-1.5h-6.6v1.5H700.4z M695.4,308.5h3
						c0.4-0.7,0.7-1.5,0.8-2.2h-4.6C695,306.9,695.2,307.7,695.4,308.5z"/>
					<path class="st6" d="M704.9,312.7l-0.3-1.1c1.9-1.6,3.1-3.2,3.8-4.7H705v-1h2.2c-0.2-0.6-0.5-1.2-0.8-1.8l1-0.3
						c0.3,0.7,0.6,1.4,0.8,1.9l-0.4,0.2h1.8v0.9c-0.4,1-0.9,2-1.7,3c0.8,0.5,1.5,1,2.1,1.6l-0.6,0.9c-0.5-0.6-1-1-1.5-1.4v5.9h-1
						V311C706.1,311.5,705.5,312.1,704.9,312.7z M713.8,306.5v2.7c-0.1,2.1-0.4,3.8-1.1,5c-0.7,1.2-1.8,2.1-3.3,2.7l-0.5-0.9
						c1.5-0.6,2.5-1.5,3.1-2.5c0.5-1.1,0.8-2.5,0.9-4.3v-2.7L713.8,306.5L713.8,306.5z M716.4,312.3h-1v-6.8h-3.9v6.8h-1v-7.7h6
						L716.4,312.3L716.4,312.3z M714.7,316.6c-0.8,0-1.1-0.4-1.1-1.2v-3.1h1v2.9c0,0.3,0.2,0.5,0.5,0.5h0.9c0.2,0,0.4-0.1,0.4-0.2
						c0.1-0.2,0.2-0.7,0.2-1.6l0.9,0.3c-0.1,1.1-0.2,1.9-0.5,2.1c-0.2,0.2-0.5,0.3-1,0.3L714.7,316.6L714.7,316.6z"/>
					<path class="st6" d="M722.5,304v1.7h1.9v1h-1.9v1.6h2.1v1h-5.9v-1h0.8v-3.1h1v3.1h1.1V304H722.5z M720.7,310.7
						c-0.3,1.3-0.8,2.3-1.3,3l-0.7-0.6c0.5-0.7,0.9-1.6,1.1-2.7L720.7,310.7z M724.7,310.5c-0.6,3.1-2.4,5.2-5.4,6.2l-0.6-0.9
						c2.8-0.9,4.5-2.7,5.1-5.4L724.7,310.5z M722.4,309.7v3.7h-1v-3.7H722.4z M728.5,308.8v2.5c0,1.5-0.3,2.7-0.9,3.6
						c-0.6,0.8-1.5,1.5-2.8,1.9l-0.6-0.9c1.2-0.4,2.1-1,2.6-1.7c0.5-0.8,0.7-1.7,0.7-2.9v-2.5H728.5z M731.3,304.5v1h-2.8
						c0,0.5-0.1,1-0.2,1.5h2.5v6.7h-1V308h-3.6v5.7h-1V307h2.1c0.1-0.5,0.1-1,0.2-1.5h-2.7v-1H731.3z M731.5,316.1l-0.7,0.7
						c-0.6-0.8-1.4-1.6-2.4-2.5l0.7-0.6C730,314.5,730.8,315.3,731.5,316.1z"/>
					<path class="st6" d="M735.7,309.7l-0.7,0.7c-0.6-0.7-1.3-1.4-2.3-2.1l0.7-0.7C734.3,308.4,735.1,309.1,735.7,309.7z
						 M735.9,311.8c-0.6,1.8-1.3,3.4-2.1,5l-0.9-0.4c0.8-1.6,1.6-3.2,2.2-4.9L735.9,311.8z M736.1,306.4l-0.7,0.7
						c-0.6-0.7-1.5-1.4-2.5-2.2l0.7-0.7C734.6,305,735.4,305.7,736.1,306.4z M740.7,306.7c0.2-0.4,0.3-0.9,0.4-1.3h-3.4v4.1
						c-0.1,3-0.6,5.5-1.6,7.3l-0.8-0.7c0.9-1.6,1.3-3.8,1.4-6.6v-5h8.4v0.9H742c-0.1,0.5-0.2,0.9-0.4,1.3h2.7v4.9H742v4
						c0,0.8-0.4,1.1-1.1,1.1h-1.2l-0.2-0.9c0.4,0,0.7,0.1,1.1,0.1c0.3,0,0.5-0.2,0.5-0.5v-3.7h-2.4v-4.9L740.7,306.7L740.7,306.7z
						 M740,312.8c-0.4,1.2-0.9,2.3-1.5,3.2l-0.8-0.5c0.7-0.9,1.1-1.8,1.4-2.9L740,312.8z M743.5,308.8v-1.3h-3.9v1.3H743.5z
						 M743.5,309.6h-3.9v1.3h3.9V309.6z M745.3,315.7l-0.9,0.4c-0.4-1.2-1-2.3-1.5-3.2l0.8-0.3C744.4,313.5,744.9,314.6,745.3,315.7
						z"/>
					<path class="st6" d="M752.7,306.3c-0.4-0.7-0.8-1.4-1.4-2.1l1-0.4c0.5,0.7,1,1.5,1.5,2.5h5.4v1H757c-0.7,2.2-1.7,4.1-3.1,5.6
						c1.5,1.3,3.3,2.3,5.6,3.1l-0.5,0.8c-2.3-0.9-4.2-1.9-5.7-3.2c-1.6,1.5-3.6,2.5-6,3.2l-0.5-0.9c2.4-0.6,4.3-1.6,5.8-3
						c-1.6-1.6-2.7-3.5-3.4-5.6H747v-1H752.7z M753.1,312.3c1.2-1.4,2.2-3,2.7-4.9H750C750.7,309.2,751.7,310.9,753.1,312.3z"/>
					<path class="st6" d="M764.6,304.3c-0.4,1.1-0.8,2.2-1.4,3.2v9.4h-1V309c-0.4,0.6-0.9,1.2-1.5,1.8l-0.3-1.1
						c1.5-1.7,2.5-3.6,3.2-5.8L764.6,304.3z M767,304.9c-0.1,0.7-0.3,1.4-0.5,2h2.1V304h1v2.9h3.2v1h-3.2v3.4h3.7v1h-3.7v4.5h-1
						v-4.5h-4.1v-1h4.1v-3.4h-2.4c-0.4,0.9-0.8,1.8-1.3,2.5l-0.6-0.8c0.9-1.3,1.4-2.9,1.7-4.7H767z"/>
				</g>
			</g>
		</g>
	</g>
</g>
<g>
	<g>
		<g>
			<rect x="278" y="296" class="st2" width="134" height="50"/>
			<g>
				<rect x="276.5" y="294.5" class="st3" width="133" height="49"/>
				<path class="st4" d="M409,295v48H277v-48H409 M410,294H276v50h134V294L410,294z"/>
			</g>
		</g>
		<g>
			<g transform="translate(20 9)">
				<g class="st5">
					<path class="st6" d="M281.6,305.3c-0.2-0.5-0.4-0.9-0.7-1.3l1.1-0.2c0.2,0.4,0.4,0.9,0.6,1.5h4.9v0.9h-2.2
						c-0.2,0.8-0.5,1.5-0.9,2.2h3.7v0.9h-12.4v-0.9h3.6c-0.2-0.8-0.5-1.6-0.8-2.2h-2.2v-0.9H281.6z M286.4,316.8h-1v-0.6h-6.6v0.6
						h-1v-6.2h8.7v6.2H286.4z M285.4,312.9v-1.5h-6.6v1.5H285.4z M285.4,315.3v-1.5h-6.6v1.5H285.4z M280.4,308.5h3
						c0.4-0.7,0.7-1.5,0.8-2.2h-4.6C280,306.9,280.2,307.7,280.4,308.5z"/>
					<path class="st6" d="M289.9,312.7l-0.3-1.1c1.9-1.6,3.1-3.2,3.8-4.7H290v-1h2.2c-0.2-0.6-0.5-1.2-0.8-1.8l1-0.3
						c0.3,0.7,0.6,1.4,0.8,1.9l-0.4,0.2h1.8v0.9c-0.4,1-0.9,2-1.7,3c0.8,0.5,1.5,1,2.1,1.6l-0.6,0.9c-0.5-0.6-1-1-1.5-1.4v5.9h-1
						V311C291.1,311.5,290.5,312.1,289.9,312.7z M298.8,306.5v2.7c-0.1,2.1-0.4,3.8-1.1,5s-1.8,2.1-3.3,2.7l-0.5-0.9
						c1.5-0.6,2.5-1.5,3.1-2.5c0.5-1.1,0.8-2.5,0.9-4.3v-2.7L298.8,306.5L298.8,306.5z M301.4,312.3h-1v-6.8h-3.9v6.8h-1v-7.7h6v7.7
						H301.4z M299.7,316.6c-0.8,0-1.1-0.4-1.1-1.2v-3.1h1v2.9c0,0.3,0.2,0.5,0.5,0.5h0.9c0.2,0,0.4-0.1,0.4-0.2
						c0.1-0.2,0.2-0.7,0.2-1.6l0.9,0.3c-0.1,1.1-0.2,1.9-0.5,2.1c-0.2,0.2-0.5,0.3-1,0.3L299.7,316.6L299.7,316.6z"/>
					<path class="st6" d="M307.5,304v1.7h1.9v1h-1.9v1.6h2.1v1h-5.9v-1h0.8v-3.1h1v3.1h1.1V304H307.5z M305.7,310.7
						c-0.3,1.3-0.8,2.3-1.3,3l-0.7-0.6c0.5-0.7,0.9-1.6,1.1-2.7L305.7,310.7z M309.7,310.5c-0.6,3.1-2.4,5.2-5.4,6.2l-0.6-0.9
						c2.8-0.9,4.5-2.7,5.1-5.4L309.7,310.5z M307.4,309.7v3.7h-1v-3.7H307.4z M313.5,308.8v2.5c0,1.5-0.3,2.7-0.9,3.6
						c-0.6,0.8-1.5,1.5-2.8,1.9l-0.6-0.9c1.2-0.4,2.1-1,2.6-1.7c0.5-0.8,0.7-1.7,0.7-2.9v-2.5H313.5z M316.3,304.5v1h-2.8
						c0,0.5-0.1,1-0.2,1.5h2.5v6.7h-1V308h-3.6v5.7h-1V307h2.1c0.1-0.5,0.1-1,0.2-1.5h-2.7v-1H316.3z M316.5,316.1l-0.7,0.7
						c-0.6-0.8-1.4-1.6-2.4-2.5l0.7-0.6C315,314.5,315.8,315.3,316.5,316.1z"/>
					<path class="st6" d="M321.9,305.4c0.2-0.5,0.3-1,0.5-1.5l1,0.1c-0.1,0.5-0.3,0.9-0.4,1.4h7.2v1h-7.5c-0.5,1.2-1.2,2.3-1.9,3.3
						v7.1h-1v-5.9c-0.5,0.5-1,1-1.5,1.5l-0.6-0.8c1.7-1.5,3-3.2,3.9-5.2h-3.4v-1H321.9z M325.8,311.9v-1.3c0.8-0.4,1.6-1,2.3-1.6
						h-5.3v-0.9h6.6v0.9c-0.8,0.7-1.6,1.4-2.6,2v0.9h3.5v1h-3.5v2.6c0,0.8-0.4,1.2-1.2,1.2h-1.8l-0.3-1c0.5,0,1,0,1.6,0
						c0.4,0,0.6-0.2,0.6-0.6v-2.3h-4.1v-1L325.8,311.9L325.8,311.9z"/>
					<path class="st6" d="M331.8,310.5l-0.3-1.1c1.1-1.6,1.9-3.4,2.4-5.5l0.9,0.4c-0.3,1-0.6,1.9-0.9,2.7v9.7h-1V309
						C332.6,309.5,332.2,310,331.8,310.5z M337,308.3v5.9c0.4-0.4,0.7-0.8,1.1-1.3l0.2,1c-0.7,0.9-1.5,1.7-2.2,2.4l-0.4-0.9
						c0.2-0.2,0.3-0.4,0.3-0.5v-5.6h-1.6v-0.9h2.6V308.3z M337.8,306.6l-0.7,0.7c-0.5-0.7-1.2-1.4-2-2.2l0.7-0.7
						C336.6,305.2,337.2,305.9,337.8,306.6z M340.2,305.6V304h0.9v1.6h1.6v0.8c0.3-0.6,0.5-1.1,0.8-1.7l0.8,0.4
						c-0.5,1.2-1,2.2-1.7,3.2h1.6v0.9H342c-0.4,0.5-0.8,0.9-1.2,1.3h2.9v6.2h-1v-0.6H340v0.6h-0.9v-5c-0.3,0.2-0.7,0.4-1,0.5
						l-0.5-0.8c1.2-0.5,2.3-1.3,3.2-2.3h-2.5v-0.9h2v-1.8h-1.7v-0.9L340.2,305.6L340.2,305.6z M342.7,311.4H340v1.5h2.6v-1.5H342.7z
						 M340,315.3h2.6v-1.5H340V315.3z M342.7,306.5h-1.6v1.8h0.4C341.9,307.7,342.3,307.1,342.7,306.5z"/>
					<path class="st6" d="M346.6,307.4l-0.9-0.6c0.8-0.9,1.5-1.8,1.8-2.9l1,0.2c-0.1,0.3-0.2,0.6-0.4,0.9h3.8v0.9h-2.4
						c0.3,0.4,0.6,0.8,0.8,1.2l-0.9,0.4c-0.3-0.5-0.6-1.1-0.9-1.6h-0.8C347.4,306.4,347,306.9,346.6,307.4z M357.9,310.3h-1v-1.7
						H347v1.7h-1v-2.5h5.5c-0.1-0.3-0.3-0.6-0.4-0.9l1-0.2l-0.1-0.1c0.7-0.8,1.1-1.8,1.5-2.8l1,0.2c-0.1,0.3-0.2,0.6-0.3,0.9h4v0.9
						h-2.5c0.3,0.4,0.5,0.8,0.7,1.1l-0.9,0.3c-0.3-0.5-0.5-1-0.9-1.4h-0.9c-0.3,0.5-0.5,0.9-0.9,1.3l-0.8-0.5
						c0.2,0.3,0.3,0.7,0.4,1.1h5.3v2.6H357.9z M356,312.2h-7v1h7.6v3.6h-1v-0.6H349v0.6h-1v-7.3h8V312.2z M355,311.4v-1.1h-6v1.1
						H355z M355.7,315.3V314H349v1.3H355.7z"/>
					<path class="st6" d="M361.4,309.1v-3.3h-1.7v-1h4.5v1h-1.7v3.3h1.5v1h-1.5v3.2c0.5-0.2,1-0.4,1.5-0.6v1c-1.3,0.5-2.7,1-4.2,1.3
						l-0.3-1c0.6-0.1,1.2-0.3,1.8-0.4v-3.5h-1.5v-1H361.4z M371.7,304.5v6.5h-2.9v1.7h3.2v1h-3.2v1.8h3.7v1H364v-1h3.8v-1.8h-3.2v-1
						h3.2V311h-2.9v-6.5H371.7z M367.8,307.3v-1.9h-2v1.9H367.8z M367.8,308.2h-2v1.9h2V308.2z M368.8,307.3h1.9v-1.9h-1.9V307.3z
						 M370.7,308.2h-1.9v1.9h1.9V308.2z"/>
				</g>
			</g>
		</g>
	</g>
</g>
<g>
	<g>
		<g transform="translate(20 9)">
			<g class="st5">
				<path class="st0" d="M683.5,92.6v0.6h-0.8v-4.9c-0.2,0.1-0.3,0.2-0.5,0.2l-0.4-0.7V88c-0.3,0.2-0.6,0.3-1,0.5v3.6
					c0,0.7-0.3,1-1,1h-1l-0.2-0.8c0.3,0,0.6,0.1,0.9,0.1c0.3,0,0.5-0.2,0.5-0.5V89c-0.5,0.2-0.9,0.4-1.4,0.5l-0.2-0.9
					c0.6-0.1,1.1-0.3,1.6-0.5v-2.8h-1.4v-0.8h1.4v-2.3h0.9v2.3h1v0.8h-1v2.4c0.3-0.2,0.7-0.3,1-0.5v0.6c1.2-0.5,2.1-1.1,2.7-1.8
					h-2.3v-0.8h1.4c-0.2-0.4-0.3-0.7-0.6-1l0.7-0.3c0.2,0.4,0.4,0.8,0.6,1.3h1v-1.7c-0.9,0-1.8,0.1-2.8,0.1l-0.3-0.7
					c2.6,0,4.7-0.2,6.4-0.6l0.4,0.7c-0.9,0.2-1.9,0.4-3,0.5v1.8h0.9c0.3-0.5,0.5-1,0.7-1.6l0.7,0.3c-0.2,0.5-0.4,0.9-0.7,1.3h1.5
					v0.8h-2.4c0.6,0.6,1.5,1.2,2.7,1.7l-0.4,0.7c-1.2-0.6-2.2-1.4-3-2.4H686v1.7h-0.8v-1.7h-0.1c-0.5,0.8-1.2,1.5-2.2,2.1h5.7v5.1
					h-0.8v-0.6L683.5,92.6L683.5,92.6z M683.5,88.9v1.2h1.8v-1.2H683.5z M683.5,90.7v1.2h1.8v-1.2H683.5z M687.9,90.1v-1.2h-1.8v1.2
					H687.9z M687.9,91.9v-1.2h-1.8v1.2H687.9z"/>
				<path class="st0" d="M693,84c-0.2-0.6-0.5-1.1-0.8-1.7l0.8-0.2c0.3,0.7,0.6,1.3,0.8,1.9h1.8v0.8h-2.9v1.1c0,0.2,0,0.5,0,0.7h2.3
					c0,2.9-0.1,4.7-0.2,5.4c-0.1,0.7-0.6,1-1.5,1c-0.2,0-0.4,0-0.8,0l-0.2-0.7c0.3,0,0.6,0,0.9,0c0.4,0,0.7-0.2,0.8-0.6
					c0.1-0.5,0.1-1.9,0.1-4.3h-1.5c-0.2,2.6-0.7,4.5-1.6,5.8l-0.7-0.6c1-1.4,1.5-3.6,1.5-6.6v-1.1h-1.2V84H693z M695.8,87.6
					l-0.5-0.6c0.9-1.2,1.6-2.8,1.9-4.8l0.9,0.1c-0.1,0.6-0.2,1.2-0.4,1.7h3.5v0.8h-0.9c-0.1,2-0.5,3.7-1.4,5.2
					c0.8,1.1,1.7,1.9,2.7,2.5l-0.5,0.7c-1-0.6-1.9-1.4-2.7-2.5c-0.7,1-1.6,1.8-2.8,2.4l-0.5-0.8c1.2-0.6,2.1-1.4,2.8-2.4
					c-0.6-1-1-2.1-1.4-3.3C696.3,87,696,87.4,695.8,87.6z M697,85.8c0.4,1.3,0.8,2.5,1.4,3.4c0.7-1.2,1-2.7,1.1-4.4h-2.1
					C697.3,85.2,697.1,85.5,697,85.8z"/>
			</g>
		</g>
	</g>
</g>
<g>
	<g>
		<g transform="translate(20 9)">
			<g class="st5">
				<path class="st0" d="M681.2,112.4c0.3-1.1,0.5-2.2,0.6-3.4h-3v-0.8h3.8v0.7c-0.1,1.7-0.3,3.1-0.8,4.5c0.5,0.8,1,1.5,1.4,2.3
					l-0.6,0.6c-0.3-0.6-0.7-1.3-1.1-1.9c-0.6,1.3-1.4,2.5-2.4,3.5l-0.6-0.6c1-1,1.8-2.3,2.4-3.7c-0.6-0.9-1.4-1.9-2.1-2.8l0.6-0.6
					C680,110.8,680.6,111.6,681.2,112.4z M686.4,109.4v2.3c0,1.8-0.4,3.2-1,4.2s-1.6,1.8-3,2.3l-0.5-0.7c1.3-0.6,2.3-1.3,2.8-2.2
					c0.5-0.9,0.7-2.1,0.8-3.6v-2.3C685.5,109.4,686.4,109.4,686.4,109.4z M688.5,114.3h-0.8v-5.8h-3.4v5.8h-0.8v-6.6h5V114.3z
					 M687.1,118c-0.7,0-1-0.3-1-1v-2.7h0.8v2.5c0,0.3,0.1,0.4,0.4,0.4h0.8c0.2,0,0.3-0.1,0.4-0.2c0.1-0.2,0.2-0.6,0.2-1.4l0.8,0.3
					c-0.1,1-0.2,1.6-0.4,1.9c-0.2,0.2-0.5,0.3-0.9,0.3h-1.1V118z"/>
				<path class="st0" d="M695.3,109.4c0.1-0.3,0.3-0.6,0.4-0.9c-1.2,0.1-2.4,0.1-3.8,0.1l-0.3-0.7c3.4,0,6.2-0.2,8.5-0.7l0.4,0.7
					c-1.1,0.3-2.5,0.4-4,0.6c-0.1,0.3-0.2,0.6-0.3,0.9h4.5v0.7h-4.8c-0.1,0.3-0.3,0.6-0.5,0.8h6v0.8h-6.5c-0.2,0.3-0.4,0.6-0.7,0.8
					h5.9v5.6h-0.8v-0.5h-5.4v0.5H693v-4.5c-0.6,0.6-1.3,1.1-2,1.6l-0.5-0.7c1.3-0.9,2.4-1.8,3.2-2.8h-2.9V111h3.5
					c0.2-0.3,0.4-0.6,0.5-0.8h-3.4v-0.7L695.3,109.4L695.3,109.4z M699.2,113.3h-5.4v0.8h5.4V113.3z M693.8,115.5h5.4v-0.8h-5.4
					V115.5z M693.8,117h5.4v-0.8h-5.4V117z"/>
			</g>
		</g>
	</g>
</g>
<g>
	<g>
		<g transform="translate(20 9)">
			<g class="st5">
				<path class="st0" d="M450.5,280.4v-2.2h0.9v2.2h4.7v0.8h-3.9c0.8,1.9,2.2,3.6,4.3,5.1l-0.6,0.7c-2.1-1.7-3.6-3.7-4.4-5.9h-0.1
					v4.7h2.6v0.8h-2.6v2.5h-0.9v-2.5H448v-0.8h2.5v-4.7h-0.1c-0.9,2.4-2.4,4.4-4.5,6l-0.5-0.8c2-1.3,3.5-3.1,4.3-5.2h-3.9v-0.8
					L450.5,280.4L450.5,280.4z"/>
				<path class="st0" d="M461.1,286.5c-1.1,0.5-2.3,0.9-3.6,1.3l-0.2-0.9c0.5-0.1,1-0.2,1.5-0.4v-4.3h-1.4v-0.8h1.4v-3.1h0.9v3.1
					h1.2v0.8h-1.2v4c0.5-0.2,1-0.4,1.4-0.6L461.1,286.5L461.1,286.5z M467.8,284.9c-0.1,0.5-0.6,0.8-1.5,0.8h-0.1l-0.2-0.9
					c0.2,0,0.3,0,0.5,0c0.3,0,0.5-0.1,0.6-0.4s0.1-1.2,0.1-2.8l-1.8,0.5v4.5h-0.8v-4.3l-1.8,0.5v4.7c0,0.4,0.2,0.6,0.6,0.6h3.4
					c0.3,0,0.4-0.1,0.5-0.2c0.1-0.2,0.2-0.8,0.3-1.8l0.8,0.3c-0.1,1.2-0.2,1.9-0.5,2.2c-0.2,0.2-0.5,0.3-1,0.3h-3.8
					c-0.8,0-1.2-0.4-1.2-1.2v-4.6l-1,0.3v-0.8l1-0.3v-3h0.8v2.7l1.8-0.5v-3.4h0.8v3.1l2.6-0.8C468,282.9,467.9,284.4,467.8,284.9z"
					/>
				<path class="st0" d="M474.8,278.2v3.7h4.4v0.8h-4.4v5.1h5.5v0.8h-10.7v-0.8h4.3v-9.7h0.9V278.2z"/>
				<path class="st0" d="M481.6,284l-0.3-0.9c1.3-1.4,2.2-3.1,2.8-4.9l0.8,0.4c-0.3,0.9-0.7,1.8-1.2,2.6v8h-0.9v-6.7
					C482.5,283,482.1,283.6,481.6,284z M487.5,279.7l0.4-1.5l0.8,0.1c-0.1,0.5-0.2,1-0.3,1.5h3.6v0.8h-3.8c-0.1,0.5-0.3,0.9-0.4,1.4
					h4.7v0.8h-5c-0.2,0.6-0.4,1.1-0.6,1.5h4.9v0.7c-0.5,0.8-1.3,1.7-2.4,2.5c0.6,0.3,1.1,0.6,1.6,1l-0.5,0.7c-1.5-1-3-1.8-4.5-2.4
					l0.5-0.7c0.7,0.3,1.5,0.6,2.2,0.9c0.9-0.7,1.7-1.3,2.2-2.1h-5.1c0.3-0.7,0.6-1.5,0.9-2.3h-2V282h2.3c0.1-0.5,0.3-0.9,0.4-1.4
					h-2.1v-0.8h2.2V279.7z"/>
				<path class="st0" d="M502.5,278.2l-4.2,11h-0.9l4.3-11H502.5z"/>
				<path class="st0" d="M508.8,279.4v5.3c0,0.8,0.2,1.5,0.6,1.9s1,0.7,1.9,0.7c0.8,0,1.5-0.2,1.9-0.7c0.4-0.4,0.6-1.1,0.6-1.9v-5.3
					h1v5.3c0,1.1-0.3,2-0.9,2.6c-0.6,0.6-1.4,0.9-2.6,0.9c-1.1,0-2-0.3-2.6-0.9s-0.9-1.5-0.9-2.6v-5.3H508.8z"/>
				<path class="st0" d="M520,279.4c0.9,0,1.5,0.2,2,0.6s0.8,1,0.8,1.8c0,0.5-0.1,0.9-0.4,1.3c-0.3,0.4-0.7,0.6-1.2,0.7l0,0
					c0.8,0.2,1.3,0.7,1.4,1.6l0.1,1.3c0,0.5,0.2,0.9,0.5,1.3h-1.1c-0.2-0.3-0.3-0.7-0.3-1.1l-0.1-1.1c0-0.5-0.2-0.9-0.5-1.1
					s-0.7-0.3-1.2-0.3h-2.6v3.7h-1v-8.6L520,279.4L520,279.4z M517.3,283.5h2.6c0.6,0,1.1-0.2,1.5-0.4c0.3-0.3,0.5-0.7,0.5-1.2
					s-0.2-0.9-0.4-1.2c-0.3-0.3-0.8-0.4-1.5-0.4h-2.6L517.3,283.5L517.3,283.5z"/>
				<path class="st0" d="M525.4,279.4v7.7h5v0.9h-5.9v-8.6H525.4z"/>
				<path class="st0" d="M535.2,283.8c-0.5,0.2-0.9,0.5-1.4,0.7v3.5c0,0.7-0.4,1.1-1.1,1.1h-1.1l-0.2-0.8c0.3,0,0.7,0,1,0
					s0.5-0.2,0.5-0.5v-2.9c-0.5,0.2-1.1,0.4-1.6,0.6l-0.2-0.9c0.6-0.2,1.2-0.3,1.8-0.6v-2.8h-1.6v-0.8h1.6v-2.2h0.9v2.2h1.3v0.8
					h-1.3v2.4c0.5-0.2,0.9-0.5,1.4-0.7L535.2,283.8L535.2,283.8z M538.9,287.9c0.6-1.6,1-3.7,1.5-6.1l0.8,0.2
					c-0.4,2.2-0.9,4.2-1.4,5.9h2.4v0.8h-6.9v-0.8H538.9z M538.3,280.1c-0.2-0.6-0.4-1.2-0.6-1.8l0.9-0.1c0.2,0.6,0.4,1.2,0.6,1.9
					h2.7v0.8h-6.3v-0.8H538.3z M537.9,287.1l-0.8,0.2c-0.3-1.8-0.6-3.5-1-5.1l0.8-0.3C537.3,283.4,537.6,285.1,537.9,287.1z"/>
				<path class="st0" d="M549.2,286.8c-0.4,0.1-0.7,0.2-1.1,0.3v2.2h-0.8v-2c-1.2,0.3-2.5,0.5-3.9,0.7l-0.2-0.8
					c0.4,0,0.7-0.1,1.1-0.2v-7.4h-0.9v-0.8h5.7v0.6h4.6v0.8c-0.3,2.2-0.8,4.1-1.6,5.7c0.6,1,1.3,1.9,2.1,2.7l-0.6,0.7
					c-0.8-0.8-1.5-1.7-2-2.6c-0.6,1-1.4,1.9-2.3,2.6l-0.6-0.7c1-0.8,1.8-1.7,2.4-2.8c-0.9-1.7-1.4-3.6-1.6-5.6H549v-0.7h-0.9v6.7
					c0.4-0.1,0.7-0.2,1.1-0.3L549.2,286.8L549.2,286.8z M547.3,281.3v-1.9h-2.2v1.9H547.3z M547.3,284v-1.8h-2.2v1.8H547.3z
					 M547.3,284.7h-2.2v2c0.7-0.1,1.5-0.3,2.2-0.4V284.7z M551.6,284.9c0.6-1.4,1.1-2.9,1.3-4.7h-2.6
					C550.5,281.9,550.9,283.5,551.6,284.9z"/>
				<path class="st0" d="M564.2,278.2l-4.2,11h-0.9l4.3-11H564.2z"/>
				<path class="st0" d="M573.2,279.4l3.4,8.6h-1.1l-0.9-2.4h-3.9l-0.9,2.4h-1.1l3.4-8.6H573.2z M574.2,284.8l-1.6-4.3l0,0l-1.6,4.3
					H574.2z"/>
				<path class="st0" d="M580.9,279.4c2,0,3,0.8,3,2.5s-1,2.5-3,2.5h-2.5v3.5h-1v-8.6h3.5V279.4z M578.4,283.6h2.5
					c0.7,0,1.2-0.1,1.5-0.4s0.5-0.7,0.5-1.3c0-0.6-0.2-1-0.5-1.2c-0.3-0.3-0.8-0.4-1.5-0.4h-2.5V283.6z"/>
				<path class="st0" d="M586.1,279.4v8.6h-1v-8.6H586.1z"/>
				<path class="st0" d="M593,278.2v3.7h4.4v0.8H593v5.1h5.5v0.8h-10.7v-0.8h4.3v-9.7h0.9V278.2z"/>
				<path class="st0" d="M599.8,284l-0.3-0.9c1.3-1.4,2.2-3.1,2.8-4.9l0.8,0.4c-0.3,0.9-0.7,1.8-1.2,2.6v8H601v-6.7
					C600.7,283,600.3,283.6,599.8,284z M605.6,279.7l0.4-1.5l0.8,0.1c-0.1,0.5-0.2,1-0.3,1.5h3.6v0.8h-3.8c-0.1,0.5-0.3,0.9-0.4,1.4
					h4.7v0.8h-5c-0.2,0.6-0.4,1.1-0.6,1.5h4.9v0.7c-0.5,0.8-1.3,1.7-2.4,2.5c0.6,0.3,1.1,0.6,1.6,1l-0.5,0.7c-1.5-1-3-1.8-4.5-2.4
					l0.5-0.7c0.7,0.3,1.5,0.6,2.2,0.9c0.9-0.7,1.7-1.3,2.2-2.1h-5.1c0.3-0.7,0.6-1.5,0.9-2.3h-2V282h2.3c0.1-0.5,0.3-0.9,0.4-1.4
					h-2.1v-0.8h2.2V279.7z"/>
				<path class="st0" d="M434.4,293.8l1.9,7.2l0,0l2-7.2h1.1l1.9,7.2l0,0l1.9-7.2h1.1l-2.5,8.6h-1.1l-1.9-7.1l0,0l-2,7.1h-1.1
					l-2.5-8.6H434.4z"/>
				<path class="st0" d="M450,297c0.5,0.6,0.7,1.5,0.7,2.5h-4.9c0,0.7,0.2,1.2,0.6,1.6s0.8,0.6,1.4,0.6c0.5,0,0.9-0.1,1.2-0.4
					c0.3-0.2,0.5-0.5,0.6-1h1c-0.1,0.6-0.4,1.1-0.8,1.5c-0.5,0.5-1.2,0.7-2,0.7c-0.9,0-1.6-0.3-2.1-0.9c-0.6-0.6-0.8-1.4-0.8-2.4
					c0-0.9,0.3-1.7,0.8-2.3c0.5-0.6,1.2-1,2.1-1C448.7,296,449.5,296.4,450,297z M446.4,297.4c-0.3,0.4-0.5,0.8-0.6,1.5h3.9
					c-0.1-1.3-0.8-2-2-2C447.2,296.8,446.7,297,446.4,297.4z"/>
				<path class="st0" d="M452.8,293.7v3.7c0.5-0.9,1.2-1.3,2.1-1.3s1.6,0.3,2.1,1c0.5,0.6,0.7,1.3,0.7,2.3c0,0.9-0.2,1.7-0.7,2.3
					c-0.5,0.6-1.2,1-2.1,1c-1,0-1.6-0.4-2.1-1.2v1h-0.9v-8.7L452.8,293.7L452.8,293.7z M453.3,297.5c-0.4,0.4-0.5,1-0.5,1.8v0.1
					c0,0.7,0.2,1.3,0.5,1.7c0.3,0.5,0.8,0.7,1.5,0.7s1.2-0.3,1.5-0.7c0.3-0.4,0.4-1,0.4-1.8c0-0.7-0.2-1.3-0.5-1.7
					c-0.3-0.5-0.9-0.7-1.5-0.7C454.1,296.8,453.6,297,453.3,297.5z"/>
				<path class="st0" d="M468.1,294.3c0.6,0.5,0.9,1.1,1,2h-1c-0.1-0.6-0.3-1.1-0.7-1.4c-0.4-0.3-0.9-0.5-1.6-0.5
					c-0.6,0-1.1,0.1-1.5,0.3c-0.4,0.2-0.6,0.6-0.6,1.1c0,0.4,0.2,0.8,0.7,1c0.2,0.1,0.7,0.3,1.6,0.5c1.1,0.3,1.9,0.6,2.2,0.8
					c0.7,0.4,1.1,1,1.1,1.8c0,0.7-0.3,1.3-0.9,1.8c-0.6,0.4-1.4,0.6-2.4,0.6s-1.8-0.2-2.4-0.6c-0.7-0.5-1-1.3-1.1-2.4h1
					c0.1,0.7,0.3,1.3,0.8,1.6c0.4,0.3,1,0.5,1.7,0.5s1.3-0.1,1.7-0.4c0.4-0.3,0.6-0.6,0.6-1.1s-0.3-1-0.9-1.3
					c-0.2-0.1-0.9-0.3-1.8-0.6c-1-0.3-1.7-0.6-2-0.7c-0.7-0.4-1-0.9-1-1.7c0-0.7,0.3-1.3,0.9-1.7c0.6-0.4,1.3-0.6,2.2-0.6
					C466.8,293.7,467.6,293.9,468.1,294.3z"/>
				<path class="st0" d="M473.6,293.8c1.4,0,2.4,0.4,3.1,1.2c0.6,0.7,1,1.8,1,3.1c0,1.3-0.3,2.4-1,3.1c-0.7,0.8-1.8,1.2-3.1,1.2h-3
					v-8.6L473.6,293.8L473.6,293.8z M471.5,301.5h1.8c1.1,0,2-0.3,2.5-0.9s0.8-1.4,0.8-2.5c0-1.2-0.3-2-0.7-2.6
					c-0.5-0.6-1.3-0.9-2.5-0.9h-1.9L471.5,301.5L471.5,301.5z"/>
				<path class="st0" d="M485.9,293.8l-3.9,3.7l4.4,4.9h-1.3l-3.8-4.3l-1.3,1.3v3h-1v-8.6h1v4.5l4.6-4.5H485.9z"/>
				<path class="st0" d="M496,292.6l-4.2,11h-0.9l4.3-11H496z"/>
				<path class="st0" d="M501.7,296.8l-0.6-0.6c0.6-1,1-2.1,1.3-3.6l0.8,0.2c-0.1,0.6-0.3,1.1-0.4,1.5h2.7v0.8h-1.2
					c0,0.9,0,1.6-0.1,2.4h1.4v0.8H504c0,0.3-0.1,0.6-0.2,0.9l0,0c0.6,0.6,1.2,1.2,1.8,1.9l-0.5,0.8c-0.6-0.8-1.1-1.4-1.5-1.9
					c-0.4,1.3-1.1,2.3-2.1,3.2l-0.6-0.7c1-0.9,1.7-2,2-3.4c0.1-0.3,0.1-0.5,0.2-0.8H501v-0.8h2.2c0.1-0.7,0.1-1.5,0.1-2.4h-0.9
					C502.3,295.8,502,296.4,501.7,296.8z M511,299.6c-0.3,1-0.6,1.9-1,2.7h2v0.8h-6.7v-0.8h3.9c0.4-0.8,0.7-1.8,1-3L511,299.6z
					 M511.7,293.2v0.8h-6.1v-0.8H511.7z M511.1,295.3v3.7h-5v-3.7H511.1z M508,301.8l-0.8,0.2c-0.2-0.8-0.5-1.6-0.8-2.3l0.8-0.3
					C507.5,300.1,507.7,300.9,508,301.8z M510.3,296.1H507v2.1h3.3V296.1z"/>
				<path class="st0" d="M513.2,300.1l-0.3-0.9c1.6-1.4,2.7-2.7,3.2-4h-3v-0.8h1.9c-0.2-0.5-0.4-1.1-0.7-1.6l0.8-0.2
					c0.3,0.6,0.5,1.2,0.7,1.7l-0.3,0.1h1.5v0.7c-0.3,0.9-0.8,1.7-1.4,2.6c0.7,0.4,1.3,0.9,1.8,1.4l-0.5,0.7
					c-0.4-0.5-0.9-0.9-1.3-1.2v5.1h-0.9v-5C514.3,299.1,513.7,299.6,513.2,300.1z M520.8,294.8v2.3c0,1.8-0.4,3.2-0.9,4.3
					c-0.6,1-1.5,1.8-2.8,2.3l-0.5-0.8c1.3-0.6,2.1-1.3,2.6-2.2c0.5-0.9,0.7-2.2,0.7-3.7v-2.3h0.9V294.8z M523,299.7h-0.9v-5.8h-3.4
					v5.8h-0.9v-6.6h5.1v6.6H523z M521.6,303.4c-0.7,0-1-0.3-1-1v-2.7h0.8v2.5c0,0.3,0.1,0.4,0.4,0.4h0.7c0.2,0,0.3-0.1,0.4-0.2
					c0.1-0.2,0.2-0.6,0.2-1.4l0.8,0.3c-0.1,1-0.2,1.6-0.4,1.8c-0.2,0.2-0.5,0.3-0.8,0.3L521.6,303.4L521.6,303.4z"/>
				<path class="st0" d="M528.2,292.6v1.4h1.6v0.8h-1.6v1.4h1.8v0.8h-5v-0.8h0.7v-2.7h0.8v2.7h0.9v-3.6L528.2,292.6L528.2,292.6z
					 M526.7,298.4c-0.3,1.1-0.6,2-1.1,2.6l-0.6-0.6c0.4-0.6,0.8-1.4,1-2.3L526.7,298.4z M530.1,298.2c-0.5,2.7-2.1,4.4-4.6,5.3
					l-0.5-0.8c2.4-0.7,3.9-2.3,4.3-4.7L530.1,298.2z M528.2,297.5v3.1h-0.8v-3.1H528.2z M533.4,296.7v2.1c0,1.3-0.3,2.3-0.8,3.1
					c-0.5,0.7-1.3,1.3-2.4,1.7l-0.5-0.7c1.1-0.4,1.8-0.9,2.2-1.5s0.6-1.5,0.6-2.5v-2.1h0.9V296.7z M535.8,293.1v0.8h-2.4
					c0,0.5-0.1,0.9-0.1,1.3h2.1v5.7h-0.8V296h-3.1v4.9h-0.8v-5.7h1.8c0.1-0.4,0.1-0.9,0.2-1.3h-2.3v-0.8H535.8z M536,303l-0.6,0.6
					c-0.5-0.7-1.2-1.4-2-2.1l0.6-0.6C534.7,301.7,535.4,302.3,536,303z"/>
				<path class="st0" d="M542.4,294.3c0.6,0.5,0.9,1.1,1,2h-1c-0.1-0.6-0.3-1.1-0.7-1.4s-0.9-0.5-1.6-0.5c-0.6,0-1.1,0.1-1.5,0.3
					c-0.4,0.2-0.6,0.6-0.6,1.1c0,0.4,0.2,0.8,0.7,1c0.2,0.1,0.7,0.3,1.6,0.5c1.1,0.3,1.9,0.6,2.2,0.8c0.7,0.4,1.1,1,1.1,1.8
					c0,0.7-0.3,1.3-0.9,1.8c-0.6,0.4-1.4,0.6-2.4,0.6s-1.8-0.2-2.4-0.6c-0.7-0.5-1-1.3-1.1-2.4h1c0.1,0.7,0.3,1.3,0.8,1.6
					c0.4,0.3,1,0.5,1.7,0.5s1.3-0.1,1.7-0.4s0.6-0.6,0.6-1.1s-0.3-1-0.9-1.3c-0.2-0.1-0.9-0.3-1.8-0.6c-1-0.3-1.7-0.6-2-0.7
					c-0.7-0.4-1-0.9-1-1.7c0-0.7,0.3-1.3,0.9-1.7c0.6-0.4,1.3-0.6,2.2-0.6C541.1,293.7,541.9,293.9,542.4,294.3z"/>
				<path class="st0" d="M547.9,293.8c1.4,0,2.4,0.4,3.1,1.2c0.6,0.7,1,1.8,1,3.1c0,1.3-0.3,2.4-1,3.1c-0.7,0.8-1.8,1.2-3.1,1.2h-3
					v-8.6L547.9,293.8L547.9,293.8z M545.9,301.5h1.8c1.1,0,2-0.3,2.5-0.9s0.8-1.4,0.8-2.5c0-1.2-0.3-2-0.7-2.6
					c-0.5-0.6-1.3-0.9-2.5-0.9h-1.9L545.9,301.5L545.9,301.5z"/>
				<path class="st0" d="M560.2,293.8l-3.9,3.7l4.4,4.9h-1.3l-3.8-4.3l-1.3,1.3v3h-1v-8.6h1v4.5l4.6-4.5H560.2z"/>
				<path class="st0" d="M570.3,292.6l-4.2,11h-0.9l4.3-11H570.3z"/>
				<path class="st0" d="M580.3,293.7c0-0.4,0.1-0.8,0.1-1.1l0.9,0.1c0,0.3-0.1,0.7-0.1,1h4.7v0.8H581c-0.1,0.3-0.1,0.7-0.2,1h3.5v7
					h1.8v0.8h-10.6v-0.8h1.7v-7h2.8c0.1-0.3,0.1-0.7,0.2-1h-4.5v-0.8H580.3z M583.4,297.3v-1H578v1H583.4z M583.4,299v-1H578v1
					H583.4z M583.4,300.8v-1H578v1H583.4z M583.4,302.5v-1.1H578v1.1H583.4z"/>
				<path class="st0" d="M592.3,303v0.6h-0.8v-4.9c-0.2,0.1-0.3,0.2-0.5,0.2l-0.4-0.7v0.2c-0.3,0.2-0.6,0.3-1,0.5v3.6
					c0,0.7-0.3,1-1,1h-1l-0.2-0.8c0.3,0,0.6,0.1,0.9,0.1c0.3,0,0.5-0.2,0.5-0.5v-2.9c-0.5,0.2-0.9,0.4-1.4,0.5l-0.2-0.9
					c0.6-0.1,1.1-0.3,1.6-0.5v-2.8h-1.4v-0.8h1.4v-2.3h0.9v2.3h1v0.8h-1v2.4c0.3-0.2,0.7-0.3,1-0.5v0.6c1.2-0.5,2.1-1.1,2.7-1.8H591
					v-0.8h1.4c-0.2-0.4-0.3-0.7-0.6-1l0.7-0.3c0.2,0.4,0.4,0.8,0.6,1.3h1v-1.7c-0.9,0-1.8,0.1-2.8,0.1l-0.3-0.7
					c2.6,0,4.7-0.2,6.4-0.6l0.4,0.7c-0.9,0.2-1.9,0.4-3,0.5v1.8h0.9c0.3-0.5,0.5-1,0.7-1.6l0.7,0.3c-0.2,0.5-0.4,0.9-0.7,1.3h1.5
					v0.8h-2.4c0.6,0.6,1.5,1.2,2.7,1.7l-0.4,0.7c-1.2-0.6-2.2-1.4-3-2.4h-0.1v1.7h-0.8v-1.7h-0.1c-0.5,0.8-1.2,1.5-2.2,2.1h5.7v5.1
					h-0.8V303H592.3z M592.3,299.3v1.2h1.8v-1.2H592.3z M592.3,301.1v1.2h1.8v-1.2H592.3z M596.6,300.5v-1.2h-1.8v1.2H596.6z
					 M596.6,302.3v-1.2h-1.8v1.2H596.6z"/>
				<path class="st0" d="M607.7,293.1v3.9h2.2v0.8h-4.8v1.4c0.3,0.3,0.6,0.6,0.9,0.9c0.9-0.5,1.6-1.2,2.2-2.1l0.7,0.6
					c-0.7,0.9-1.4,1.5-2.3,2c0.9,0.7,2,1.4,3.3,1.9l-0.4,0.8c-1.8-0.9-3.3-1.9-4.4-3.2v2.5c0,0.7-0.3,1.1-0.9,1.1h-1.4l-0.2-0.8
					c0.4,0,0.9,0.1,1.3,0.1c0.2,0,0.4-0.2,0.4-0.5v-2.2c-1.2,1.1-2.7,2.1-4.4,3l-0.3-0.8c1.8-0.9,3.4-1.9,4.8-3.1v-1.5h-4.6V297h7.2
					v-1.2h-5.6V295h5.6v-1.2h-6V293h6.7V293.1z M602.7,299.7l-0.6,0.6c-0.5-0.5-1.1-1-1.9-1.5l0.6-0.6
					C601.6,298.7,602.3,299.2,602.7,299.7z"/>
				<path class="st0" d="M611.9,296.1l-0.7-0.5c0.6-0.6,1-1.5,1.2-2.7l0.8,0.1c-0.1,0.4-0.1,0.7-0.2,1.1h1.4v-1.5h0.9v1.5h2.2v0.8
					h-2.2v1.5h2.6v0.8h-2.6v1.3h2.3v3.2c0,0.7-0.4,1.1-1.1,1.1h-0.6l-0.2-0.8h0.6c0.3,0,0.5-0.2,0.5-0.5v-2.2h-1.5v4.3h-0.9v-4.3
					h-1.5v3.5h-0.8v-4.3h2.4v-1.3h-2.9v-0.8h2.9v-1.5h-1.7C612.4,295.4,612.2,295.8,611.9,296.1z M619.3,293.7v7.4h-0.8v-7.4H619.3z
					 M618.9,303.5l-0.2-0.8c0.6,0,1.1,0.1,1.7,0.1c0.4,0,0.6-0.2,0.6-0.6v-9.5h0.9v9.7c0,0.7-0.4,1.1-1.1,1.1L618.9,303.5
					L618.9,303.5z"/>
			</g>
		</g>
	</g>
</g>
<g>
	<g>
		<g transform="translate(20 9)">
			<g class="st5">
				<path class="st0" d="M504.8,327.7l-0.3-0.9c1.6-1.4,2.7-2.7,3.2-4h-3V322h1.9c-0.2-0.5-0.4-1.1-0.7-1.6l0.8-0.2
					c0.3,0.6,0.5,1.2,0.7,1.7l-0.3,0.1h1.5v0.7c-0.3,0.9-0.8,1.7-1.4,2.6c0.7,0.4,1.3,0.9,1.8,1.4l-0.5,0.7
					c-0.4-0.5-0.9-0.9-1.3-1.2v5.1h-0.9v-5C505.8,326.7,505.3,327.2,504.8,327.7z M512.4,322.4v2.3c0,1.8-0.4,3.2-0.9,4.3
					c-0.6,1-1.5,1.8-2.8,2.3l-0.5-0.8c1.3-0.6,2.1-1.3,2.6-2.2c0.5-0.9,0.7-2.2,0.7-3.7v-2.3h0.9V322.4z M514.6,327.3h-0.9v-5.8
					h-3.4v5.8h-0.9v-6.6h5.1v6.6H514.6z M513.2,331c-0.7,0-1-0.3-1-1v-2.7h0.8v2.5c0,0.3,0.1,0.4,0.4,0.4h0.7c0.2,0,0.3-0.1,0.4-0.2
					c0.1-0.2,0.2-0.6,0.2-1.4l0.8,0.3c-0.1,1-0.2,1.6-0.4,1.8c-0.2,0.2-0.5,0.3-0.8,0.3L513.2,331L513.2,331z"/>
				<path class="st0" d="M519.8,320.2v1.4h1.6v0.8h-1.6v1.4h1.8v0.8h-5.1v-0.8h0.7v-2.7h0.8v2.7h0.9v-3.6L519.8,320.2L519.8,320.2z
					 M518.3,326c-0.3,1.1-0.6,2-1.1,2.6l-0.6-0.6c0.4-0.6,0.8-1.4,1-2.3L518.3,326z M521.7,325.8c-0.5,2.7-2.1,4.4-4.6,5.3l-0.5-0.8
					c2.4-0.7,3.9-2.3,4.3-4.7L521.7,325.8z M519.8,325.1v3.1H519v-3.1H519.8z M525,324.3v2.1c0,1.3-0.3,2.3-0.8,3.1
					c-0.5,0.7-1.3,1.3-2.4,1.7l-0.5-0.7c1.1-0.4,1.8-0.9,2.2-1.5s0.6-1.5,0.6-2.5v-2.1h0.9V324.3z M527.4,320.7v0.8H525
					c0,0.5-0.1,0.9-0.1,1.3h2.1v5.7h-0.8v-4.9H523v4.9h-0.8v-5.7h1.8c0.1-0.4,0.1-0.9,0.2-1.3h-2.4v-0.8H527.4z M527.5,330.6
					l-0.6,0.6c-0.5-0.7-1.2-1.4-2-2.1l0.6-0.6C526.3,329.3,527,329.9,527.5,330.6z"/>
				<path class="st0" d="M533.9,320.2v3.7h4.4v0.8h-4.4v5.1h5.5v0.8h-10.7v-0.8h4.3v-9.7h0.9V320.2z"/>
				<path class="st0" d="M540.7,326l-0.3-0.9c1.3-1.4,2.2-3.1,2.8-4.9l0.8,0.4c-0.3,0.9-0.7,1.8-1.2,2.6v8H542v-6.7
					C541.6,325,541.2,325.6,540.7,326z M546.5,321.7l0.4-1.5l0.8,0.1c-0.1,0.5-0.2,1-0.3,1.5h3.6v0.8h-3.8c-0.1,0.5-0.3,0.9-0.4,1.4
					h4.7v0.8h-5c-0.2,0.6-0.4,1.1-0.6,1.5h4.9v0.7c-0.5,0.8-1.3,1.7-2.4,2.5c0.6,0.3,1.1,0.6,1.6,1l-0.5,0.7c-1.5-1-3-1.8-4.5-2.4
					l0.5-0.7c0.7,0.3,1.5,0.6,2.2,0.9c0.9-0.7,1.7-1.3,2.2-2.1h-5.1c0.3-0.7,0.6-1.5,0.9-2.3h-2V324h2.3c0.1-0.5,0.3-0.9,0.4-1.4
					h-2.1v-0.8h2.2V321.7z"/>
			</g>
		</g>
	</g>
</g>
<rect x="438" y="12" class="st8" width="250" height="167"/>
<g>
	<g>
		<g transform="translate(20 9)">
			<g class="st5">
				<path class="st6" d="M455.6,16.9c-0.2-0.5-0.4-0.9-0.7-1.3l1.1-0.2c0.2,0.4,0.4,0.9,0.6,1.5h4.9v0.9h-2.2
					c-0.2,0.8-0.5,1.5-0.9,2.2h3.7v1h-12.4v-0.9h3.6c-0.2-0.8-0.5-1.6-0.8-2.2h-2.2V17h5.3V16.9z M460.4,28.4h-1v-0.6h-6.6v0.6h-1
					v-6.2h8.7v6.2H460.4z M459.4,24.5V23h-6.6v1.5H459.4z M459.4,26.9v-1.5h-6.6v1.5H459.4z M454.4,20.1h3c0.4-0.7,0.7-1.5,0.8-2.2
					h-4.6C454,18.5,454.2,19.3,454.4,20.1z"/>
				<path class="st6" d="M463.9,24.3l-0.3-1.1c1.9-1.6,3.1-3.2,3.8-4.7H464v-1h2.2c-0.2-0.6-0.5-1.2-0.8-1.8l1-0.3
					c0.3,0.7,0.6,1.4,0.8,1.9l-0.4,0.2h1.8v0.9c-0.4,1-0.9,2-1.7,3c0.8,0.5,1.5,1,2.1,1.6l-0.6,0.9c-0.5-0.6-1-1-1.5-1.4v5.9h-1
					v-5.8C465.1,23.1,464.5,23.7,463.9,24.3z M472.8,18.1v2.7c-0.1,2.1-0.4,3.8-1.1,5s-1.8,2.1-3.3,2.7l-0.5-0.9
					c1.5-0.6,2.5-1.5,3.1-2.5c0.5-1.1,0.8-2.5,0.9-4.3v-2.7C471.9,18.1,472.8,18.1,472.8,18.1z M475.4,23.9h-1v-6.8h-3.9v6.8h-1
					v-7.7h6v7.7H475.4z M473.7,28.2c-0.8,0-1.1-0.4-1.1-1.2v-3.1h1v2.9c0,0.3,0.2,0.5,0.5,0.5h0.9c0.2,0,0.4-0.1,0.4-0.2
					c0.1-0.2,0.2-0.7,0.2-1.6l0.9,0.3c-0.1,1.1-0.2,1.9-0.5,2.1c-0.2,0.2-0.5,0.3-1,0.3C475,28.2,473.7,28.2,473.7,28.2z"/>
				<path class="st6" d="M481.5,15.6v1.7h1.9v1h-1.9v1.6h2.1v1h-5.9v-1h0.8v-3.1h1v3.1h1.1v-4.2h0.9V15.6z M479.7,22.3
					c-0.3,1.3-0.8,2.3-1.3,3l-0.7-0.6c0.5-0.7,0.9-1.6,1.1-2.7L479.7,22.3z M483.7,22.1c-0.6,3.1-2.4,5.2-5.4,6.2l-0.6-0.9
					c2.8-0.9,4.5-2.7,5.1-5.4L483.7,22.1z M481.4,21.3V25h-1v-3.7H481.4z M487.5,20.4v2.5c0,1.5-0.3,2.7-0.9,3.6
					c-0.6,0.8-1.5,1.5-2.8,1.9l-0.6-0.9c1.2-0.4,2.1-1,2.6-1.7c0.5-0.8,0.7-1.7,0.7-2.9v-2.5H487.5z M490.3,16.1v1h-2.8
					c0,0.5-0.1,1-0.2,1.5h2.5v6.7h-1v-5.7h-3.6v5.7h-1v-6.7h2.1c0.1-0.5,0.1-1,0.2-1.5h-2.7v-1C483.8,16.1,490.3,16.1,490.3,16.1z
					 M490.5,27.7l-0.7,0.7c-0.6-0.8-1.4-1.6-2.4-2.5l0.7-0.6C489,26.1,489.8,26.9,490.5,27.7z"/>
				<path class="st6" d="M493.7,16l1,0.2l-0.8,2.8h2.5c0.3-1.1,0.5-2.2,0.7-3.4l1,0.1c-0.2,1.2-0.4,2.3-0.7,3.3h6.6v1h-6.8
					c-0.2,0.6-0.3,1.1-0.5,1.6h5.7v0.9c-0.4,1.2-1.1,2.3-2.3,3.3c1.1,0.7,2.5,1.3,4.1,1.8l-0.5,0.9c-1.8-0.7-3.3-1.4-4.5-2.1
					c-1.1,0.8-2.6,1.5-4.3,2.2l-0.5-0.9c1.6-0.6,2.9-1.2,3.9-1.9c-1.1-0.8-1.9-1.8-2.3-2.7c-1,2.2-2.3,4-3.9,5.3l-0.5-0.9
					c2-1.8,3.5-4.2,4.5-7.4h-3.5L493.7,16z M499.2,25c1-0.8,1.8-1.7,2.1-2.6h-4.5C497.3,23.3,498.1,24.2,499.2,25z M502.9,17.9
					l-0.7,0.7c-0.6-0.7-1.4-1.5-2.5-2.4l0.7-0.7C501.4,16.3,502.3,17.1,502.9,17.9z"/>
				<path class="st6" d="M513.4,19.2v1.7h4v4.7c0,0.9-0.4,1.3-1.3,1.3h-1.3l-0.3-0.9h1.2c0.4,0,0.7-0.2,0.7-0.6v-3.6h-3v6.5h-1v-6.5
					h-3V27h-1v-5.4c-0.7,0.7-1.5,1.4-2.3,2l-0.6-0.8c1.8-1.3,3.2-2.8,4.2-4.5H506v-1h4.3c0.3-0.6,0.6-1.2,0.8-1.9l1,0.1
					c-0.2,0.6-0.4,1.2-0.7,1.8h6.8v1h-7.3c-0.5,0.9-1.1,1.8-1.8,2.6h3.3v-1.7H513.4z"/>
			</g>
		</g>
	</g>
</g>
<g>
	<g>
		<rect x="452" y="53" class="st2" width="101" height="50"/>
		<g>
			<rect x="450.5" y="51.5" class="st3" width="100" height="49"/>
			<path class="st4" d="M550,52v48h-99V52H550 M551,51H450v50h101V51L551,51z"/>
		</g>
	</g>
	<g>
		<g transform="translate(20 9)">
			<g class="st5">
				<path class="st6" d="M452.3,73.1v0.7h-0.9V68c-0.2,0.1-0.4,0.2-0.5,0.3l-0.5-0.8v0.2c-0.4,0.2-0.8,0.4-1.1,0.6v4.2
					c0,0.8-0.4,1.2-1.2,1.2h-1.2l-0.2-1c0.4,0,0.7,0.1,1.1,0.1s0.5-0.2,0.5-0.5v-3.4c-0.5,0.2-1.1,0.4-1.6,0.6l-0.3-1
					c0.6-0.2,1.3-0.4,1.9-0.6v-3.2h-1.6v-1h1.6V61h1v2.6h1.2v1h-1.2v2.8c0.4-0.2,0.8-0.4,1.1-0.6v0.8c1.4-0.5,2.4-1.2,3.1-2.1h-2.7
					v-0.9h1.6c-0.2-0.4-0.4-0.8-0.6-1.2l0.8-0.3c0.2,0.4,0.5,0.9,0.7,1.5h1.1v-2c-1,0.1-2.1,0.1-3.2,0.1l-0.3-0.8
					c3,0,5.5-0.3,7.5-0.7l0.5,0.8c-1,0.3-2.2,0.5-3.5,0.6v2.1h1.1c0.3-0.6,0.6-1.2,0.8-1.8L458,63c-0.2,0.6-0.5,1.1-0.8,1.5h1.7v0.9
					h-2.8c0.7,0.8,1.8,1.4,3.2,2l-0.4,0.8c-1.5-0.7-2.6-1.6-3.5-2.8h-0.2v2h-0.9v-2h-0.2c-0.6,1-1.4,1.8-2.6,2.5h6.6v5.9h-0.9v-0.7
					C457.2,73.1,452.3,73.1,452.3,73.1z M452.3,68.7v1.4h2.1v-1.4H452.3z M452.3,70.9v1.3h2.1v-1.3H452.3z M457.3,70.1v-1.4h-2.1
					v1.4H457.3z M457.3,72.3V71h-2.1v1.3H457.3z"/>
				<path class="st6" d="M463.2,63.1c-0.3-0.7-0.6-1.3-0.9-1.9l1-0.3c0.4,0.8,0.7,1.6,0.9,2.2h2.1v1H463v1.3c0,0.3,0,0.5,0,0.8h2.7
					c0,3.4-0.1,5.5-0.2,6.3s-0.7,1.2-1.7,1.2c-0.2,0-0.5,0-1-0.1l-0.2-0.9c0.4,0,0.7,0,1,0c0.5,0,0.8-0.2,0.9-0.7s0.2-2.2,0.2-5
					h-1.8c-0.2,3-0.8,5.2-1.8,6.7l-0.8-0.7c1.1-1.6,1.7-4.2,1.8-7.8V64h-1.5v-1L463.2,63.1L463.2,63.1z M466.6,67.3l-0.6-0.7
					c1.1-1.4,1.8-3.3,2.2-5.7l1,0.2c-0.1,0.7-0.3,1.4-0.5,2h4.1v1h-1c-0.1,2.4-0.6,4.4-1.6,6c0.9,1.3,1.9,2.2,3.1,2.9l-0.6,0.9
					c-1.2-0.7-2.3-1.7-3.1-2.9c-0.8,1.1-1.9,2.1-3.2,2.8l-0.6-0.9c1.3-0.7,2.4-1.7,3.2-2.8c-0.7-1.1-1.2-2.4-1.7-3.8
					C467.1,66.6,466.9,67,466.6,67.3z M468,65.2c0.4,1.5,1,2.9,1.6,4c0.8-1.4,1.2-3.2,1.3-5.1h-2.4C468.3,64.4,468.1,64.8,468,65.2z
					"/>
				<path class="st6" d="M479.4,66.3c0.3-0.4,0.5-0.7,0.6-1.1l1,0.1c-0.1,0.4-0.3,0.7-0.5,1h3.6c-0.2-0.3-0.4-0.7-0.6-1l0.9-0.3
					c0.3,0.4,0.5,0.8,0.8,1.2h1.9v0.9h-3.8c0.9,0.8,2.3,1.5,4.1,2L487,70c-0.3-0.1-0.7-0.2-1-0.3v4.1h-1v-0.6h-2.6v0.6h-0.9v-4.4
					h3.7c-1.3-0.6-2.4-1.4-3.1-2.2h-2.4c-0.8,0.9-1.8,1.6-3.2,2.2h3.5v4.4h-0.9v-0.6h-2.4v0.6H476v-4.1c-0.4,0.1-0.8,0.3-1.1,0.4
					l-0.5-0.8c1.8-0.5,3.2-1.2,4.1-2.1h-3.9v-0.9C474.6,66.3,479.4,66.3,479.4,66.3z M480,61.5v3.4h-4.3v-3.4H480z M479.1,62.4h-2.4
					V64h2.4V62.4z M479.2,72.3v-2.1h-2.4v2.1H479.2z M485.9,61.5v3.4h-4.4v-3.4H485.9z M485,72.3v-2.1h-2.6v2.1H485z M485,62.4h-2.5
					V64h2.5V62.4z"/>
				<path class="st6" d="M494.8,63c0.7,0.5,1.1,1.3,1.1,2.4h-1.1c-0.1-0.7-0.4-1.3-0.8-1.6c-0.4-0.4-1.1-0.5-1.9-0.5
					c-0.7,0-1.3,0.1-1.7,0.4c-0.5,0.3-0.7,0.7-0.7,1.3c0,0.5,0.3,0.9,0.9,1.2c0.3,0.1,0.9,0.3,1.8,0.6c1.3,0.4,2.2,0.7,2.6,1
					c0.8,0.5,1.2,1.2,1.2,2.1s-0.4,1.6-1.1,2.1s-1.6,0.7-2.8,0.7c-1.2,0-2.1-0.3-2.8-0.8c-0.8-0.6-1.2-1.5-1.3-2.7h1.1
					c0.1,0.9,0.4,1.5,0.9,1.9s1.1,0.6,2,0.6c0.8,0,1.5-0.2,2-0.5s0.8-0.7,0.8-1.3c0-0.6-0.3-1.1-1-1.5c-0.3-0.2-1-0.4-2.1-0.7
					c-1.2-0.4-2-0.6-2.3-0.8c-0.8-0.4-1.1-1.1-1.1-1.9c0-0.9,0.4-1.6,1.1-2s1.5-0.7,2.5-0.7C493.3,62.2,494.2,62.5,494.8,63z"/>
				<path class="st6" d="M501.2,62.4c1.6,0,2.8,0.4,3.6,1.4c0.7,0.8,1.1,2.1,1.1,3.6s-0.4,2.8-1.2,3.6c-0.8,0.9-2,1.4-3.6,1.4h-3.5
					v-10H501.2z M498.8,71.4h2.1c1.3,0,2.3-0.4,2.9-1c0.6-0.7,0.9-1.7,0.9-3s-0.3-2.3-0.9-3c-0.6-0.7-1.6-1-2.9-1h-2.3v8H498.8z"/>
				<path class="st6" d="M515.6,62.4l-4.5,4.3l5.2,5.7h-1.5l-4.4-5l-1.6,1.5v3.5h-1.1v-10h1.1v5.2l5.4-5.2
					C514.2,62.4,515.6,62.4,515.6,62.4z"/>
			</g>
		</g>
	</g>
</g>
<g>
	<g>
		<rect x="567" y="53" class="st2" width="109" height="50"/>
		<g>
			<rect x="565.5" y="51.5" class="st3" width="108" height="49"/>
			<path class="st4" d="M673,52v48H566V52H673 M674,51H565v50h109V51L674,51z"/>
		</g>
	</g>
	<g>
		<g transform="translate(20 9)">
			<g class="st5">
				<path class="st6" d="M556.7,61.4c-0.6,1.5-1.6,2.8-2.9,4l-0.3-1c1.1-1,1.8-2.1,2.3-3.4L556.7,61.4z M556.7,65.2
					c-0.2,0.5-0.4,1.1-0.7,1.5v7.1h-0.9V68c-0.4,0.5-0.8,0.9-1.3,1.3l-0.3-1c1.1-1.1,1.9-2.3,2.4-3.6L556.7,65.2z M559.8,72.1
					c0.1-0.1,0.2-0.2,0.3-0.4v-2.5h-1.5v0.6c0,1.8-0.5,3.1-1.3,3.9l-0.7-0.6c0.7-0.8,1.1-1.8,1.1-3.3v-1.5h3.3v3.1
					c0.4-0.3,0.8-0.7,1.2-1.1l0.2,0.9c-0.7,0.8-1.4,1.4-2.2,1.8L559.8,72.1z M561.5,66.2v0.9h-4.4v-0.9H561.5z M559.9,61v3.2h1v-2.4
					h0.8V65h-4.5v-3.3h0.8v2.4h1V61H559.9z M562.8,66.5c-0.3,0.7-0.5,1.3-0.8,1.8l-0.6-0.7c0.8-1.7,1.4-3.9,1.7-6.7l0.9,0.2
					c-0.1,0.8-0.2,1.5-0.3,2.1h2.6v0.9h-0.6c-0.1,2.4-0.4,4.4-1.1,6.1c0.5,1.1,1.1,2,1.8,2.7l-0.6,0.9c-0.7-0.6-1.2-1.5-1.7-2.6
					c-0.5,1-1.2,1.9-2,2.6l-0.5-0.8c0.9-0.7,1.6-1.7,2.1-2.9C563.4,69,563.1,67.8,562.8,66.5z M563.3,65.1c0.2,1.5,0.5,2.7,0.9,3.8
					c0.4-1.4,0.6-3,0.7-4.8h-1.4C563.4,64.5,563.4,64.8,563.3,65.1z"/>
				<path class="st6" d="M567.8,67.7l-0.3-1.1c1.4-1.7,2.4-3.6,3-5.8l0.9,0.4c-0.3,1.1-0.7,2.1-1.2,3v9.5h-1V66
					C568.7,66.6,568.3,67.2,567.8,67.7z M575.6,62.8c-0.2-0.6-0.4-1.1-0.7-1.6l1-0.3c0.3,0.6,0.5,1.2,0.7,1.7l-0.5,0.2h4.4v1h-9.1
					v-1C571.4,62.8,575.6,62.8,575.6,62.8z M579.5,73.8h-1V73h-5.2v0.8h-1v-4.9h7.1v4.9H579.5z M579.2,64.9v0.9h-6.6v-0.9H579.2z
					 M579.2,66.9v0.9h-6.6v-0.9H579.2z M578.5,72.1v-2.2h-5.2v2.2H578.5z"/>
				<path class="st6" d="M586.5,61.5c-1,2.9-2.4,5.2-4.1,6.7l-0.8-0.7c1.8-1.6,3.1-3.7,4-6.4L586.5,61.5z M593.2,73.4l-0.9,0.4
					c-0.2-0.5-0.4-0.9-0.6-1.3c-2.5,0.4-5.2,0.7-8.3,0.9l-0.2-1c1.1-0.6,2.5-2.8,4.2-6.6l1,0.3c-1.2,2.7-2.4,4.7-3.6,6.3
					c2.3-0.1,4.4-0.4,6.4-0.7c-0.5-1-1.1-1.9-1.7-2.8l0.9-0.3C591.5,70,592.4,71.7,593.2,73.4z M594.4,67.4l-0.7,0.8
					c-2.1-1.7-3.5-4-4.4-6.7l0.9-0.5C591,63.6,592.4,65.7,594.4,67.4z"/>
				<path class="st6" d="M602.4,61c1.7,2.2,3.7,3.9,5.9,5.1l-0.5,0.9c-2.2-1.3-4.2-3-5.7-5.1c-1.5,2-3.4,3.7-5.8,5.1l-0.5-0.9
					c2.4-1.4,4.4-3.1,6-5.1H602.4z M599.9,65.9c0,1-0.1,1.9-0.2,2.6c0.9,0.8,1.6,1.6,2.2,2.4l-0.7,0.7c-0.4-0.7-1-1.4-1.7-2.2
					l-0.1,0.4c-0.4,1.4-1.5,2.6-3.1,3.6l-0.6-0.8c1.4-0.8,2.3-1.8,2.7-3c0.3-1,0.5-2.3,0.5-3.9h1V65.9z M604.8,65.8
					c0,0.8,0,1.6-0.1,2.3c0.7,2,1.9,3.5,3.7,4.7l-0.7,0.8c-1.5-1-2.5-2.3-3.3-3.8l-0.1,0.2c-0.4,1.5-1.3,2.7-2.8,3.7l-0.6-0.8
					c1.2-0.8,2-1.9,2.4-3.1c0.3-1,0.4-2.4,0.5-4C603.8,65.8,604.8,65.8,604.8,65.8z"/>
				<path class="st6" d="M609.7,67.4v-1h12.6v1h-8.4l-0.5,1.6h6.8c-0.1,2.2-0.3,3.6-0.6,4s-1,0.6-1.9,0.6c-0.7,0-1.3,0-1.9-0.1
					l-0.3-0.9c0.7,0.1,1.4,0.1,2,0.1c0.8,0,1.2-0.2,1.4-0.5s0.3-1.1,0.4-2.4h-7l0.7-2.5h-3.3V67.4z M620.1,61.5v3.8h-8.2v-3.8
					C611.9,61.5,620.1,61.5,620.1,61.5z M619.1,62.4H613v2h6.1V62.4z"/>
				<path class="st6" d="M625.7,61.4l1,0.2l-0.8,2.8h2.5c0.3-1.1,0.5-2.2,0.7-3.4l1,0.1c-0.2,1.2-0.4,2.3-0.7,3.3h6.6v1h-6.8
					c-0.2,0.6-0.3,1.1-0.5,1.6h5.7v0.9c-0.4,1.2-1.1,2.3-2.3,3.3c1.1,0.7,2.5,1.3,4.1,1.8l-0.5,0.9c-1.8-0.7-3.3-1.4-4.5-2.1
					c-1.1,0.8-2.6,1.5-4.3,2.2l-0.5-0.9c1.6-0.6,2.9-1.2,3.9-1.9c-1.1-0.8-1.9-1.8-2.3-2.7c-1,2.2-2.3,4-3.9,5.3l-0.5-0.9
					c2-1.8,3.5-4.2,4.5-7.4h-3.5L625.7,61.4z M631.2,70.4c1-0.8,1.8-1.7,2.1-2.6h-4.5C629.3,68.7,630.1,69.6,631.2,70.4z
					 M634.9,63.3l-0.7,0.7c-0.6-0.7-1.4-1.5-2.5-2.4l0.7-0.7C633.4,61.7,634.3,62.5,634.9,63.3z"/>
				<path class="st6" d="M645.4,64.6v1.7h4V71c0,0.9-0.4,1.3-1.3,1.3h-1.3l-0.3-0.9h1.2c0.4,0,0.7-0.2,0.7-0.6v-3.6h-3v6.5h-1v-6.5
					h-3v5.2h-1V67c-0.7,0.7-1.5,1.4-2.3,2l-0.6-0.8c1.8-1.3,3.2-2.8,4.2-4.5H638v-1h4.3c0.3-0.6,0.6-1.2,0.8-1.9l1,0.1
					c-0.2,0.6-0.4,1.2-0.7,1.8h6.8v1h-7.3c-0.5,0.9-1.1,1.8-1.8,2.6h3.3v-1.7C644.4,64.6,645.4,64.6,645.4,64.6z"/>
			</g>
		</g>
	</g>
</g>
<g>
	<g>
		<rect x="452" y="117" class="st2" width="101" height="50"/>
		<g>
			<rect x="450.5" y="115.5" class="st3" width="100" height="49"/>
			<path class="st4" d="M550,116v48h-99v-48H550 M551,115H450v50h101V115L551,115z"/>
		</g>
	</g>
	<g>
		<g transform="translate(20 9)">
			<g class="st5">
				<path class="st6" d="M473.2,133.7l-0.3-1.1c1.9-1.6,3.1-3.2,3.8-4.7h-3.4v-1h2.2c-0.2-0.6-0.5-1.2-0.8-1.8l1-0.3
					c0.3,0.7,0.6,1.4,0.8,1.9l-0.4,0.2h1.8v0.9c-0.4,1-0.9,2-1.7,3c0.8,0.5,1.5,1,2.1,1.6l-0.6,0.9c-0.5-0.6-1-1-1.5-1.4v5.9h-1V132
					C474.4,132.5,473.8,133.1,473.2,133.7z M482.1,127.5v2.7c-0.1,2.1-0.4,3.8-1.1,5s-1.8,2.1-3.3,2.7l-0.5-0.9
					c1.5-0.6,2.5-1.5,3.1-2.5c0.5-1.1,0.8-2.5,0.9-4.3v-2.7H482.1z M484.6,133.3h-1v-6.8h-3.9v6.8h-1v-7.7h6v7.7H484.6z M483,137.6
					c-0.8,0-1.1-0.4-1.1-1.2v-3.1h1v2.9c0,0.3,0.2,0.5,0.5,0.5h0.9c0.2,0,0.3-0.1,0.4-0.2c0.1-0.2,0.2-0.7,0.2-1.6l0.9,0.3
					c-0.1,1.1-0.2,1.9-0.5,2.1c-0.2,0.2-0.5,0.3-1,0.3H483z"/>
				<path class="st6" d="M490.7,125v1.7h1.9v1h-1.9v1.6h2.1v1h-5.9v-1h0.8v-3.1h1v3.1h1.1V125H490.7z M489,131.7
					c-0.3,1.3-0.8,2.3-1.3,3l-0.7-0.6c0.5-0.7,0.9-1.6,1.1-2.7L489,131.7z M493,131.5c-0.6,3.1-2.4,5.2-5.4,6.2l-0.6-0.9
					c2.8-0.9,4.5-2.7,5.1-5.4L493,131.5z M490.7,130.7v3.7h-1v-3.7H490.7z M496.8,129.8v2.5c0,1.5-0.3,2.7-0.9,3.6
					c-0.6,0.8-1.5,1.5-2.8,1.9l-0.6-0.9c1.2-0.4,2.1-1,2.6-1.7c0.5-0.8,0.7-1.7,0.7-2.9v-2.5L496.8,129.8L496.8,129.8z M499.6,125.5
					v1h-2.8c0,0.5-0.1,1-0.2,1.5h2.5v6.7h-1V129h-3.6v5.7h-1V128h2.1c0.1-0.5,0.1-1,0.2-1.5H493v-1H499.6z M499.8,137.1l-0.7,0.7
					c-0.6-0.8-1.4-1.6-2.4-2.5l0.7-0.6C498.3,135.5,499.1,136.3,499.8,137.1z"/>
				<path class="st6" d="M501.6,126.4l3.1,8.8l0,0l3.1-8.8h1.3l-3.7,10H504l-3.7-10C500.3,126.4,501.6,126.4,501.6,126.4z"/>
				<path class="st6" d="M514,129.2v3.1h3.1v1H514v3.1h-1v-3.1h-3.1v-1h3.1v-3.1H514z"/>
			</g>
			<g>
				<path class="st6" d="M445.2,137.9l-0.8-0.7c0.5-1.3,0.7-3,0.7-5v-7h3.7v11.5c0,0.8-0.4,1.2-1.2,1.2h-1l-0.2-1c0.3,0,0.7,0,0.9,0
					c0.3,0,0.5-0.2,0.5-0.6V133h-1.7C446,135,445.7,136.6,445.2,137.9z M447.8,126.1h-1.7v2.5h1.7V126.1z M446.1,132h1.7v-2.4h-1.7
					V132z M450.9,126.6c-0.2-0.5-0.5-0.9-0.8-1.3l0.9-0.3c0.3,0.5,0.5,1,0.8,1.7h0.7c0.2-0.6,0.3-1.3,0.4-2l1,0.1
					c-0.1,0.7-0.2,1.3-0.4,1.9h1.1c0.3-0.6,0.6-1.1,0.8-1.8l0.9,0.3c-0.3,0.6-0.5,1-0.8,1.4h1.3v0.9h-3.7c-0.1,0.4-0.3,0.8-0.5,1.2
					h4.6v0.9h-2.3c0.6,0.7,1.5,1.3,2.7,1.7l-0.4,0.9c-0.6-0.3-1.2-0.6-1.7-1v0.1c-0.1,0.8-0.2,1.5-0.4,2.1h1.6c0,2.4-0.2,3.7-0.6,4
					c-0.3,0.3-0.9,0.4-1.8,0.4h-0.7l-0.3-0.9c0.3,0,0.7,0,1,0c0.5,0,0.9-0.1,1-0.2c0.2-0.2,0.3-1,0.3-2.5h-5.4
					c0.3-0.8,0.5-1.6,0.6-2.2l1,0.1c-0.1,0.4-0.2,0.9-0.3,1.3h2.7c0.1-0.5,0.3-1.1,0.3-1.7h-3.8v-0.5c-0.4,0.4-0.9,0.7-1.4,1
					l-0.5-0.8c0.9-0.5,1.7-1.1,2.2-1.9h-1.8v-0.9h2.3c0.2-0.4,0.4-0.8,0.6-1.2h-2.5v-0.9H450.9z M454.7,135.2v0.9h-5.2v-0.9H454.7z
					 M455.3,130.9c-0.5-0.4-0.9-0.9-1.1-1.4h-1.8c-0.3,0.5-0.7,1-1.1,1.4H455.3z"/>
				<path class="st6" d="M461.9,129v6.4c0.5-0.4,1-0.9,1.5-1.4l0.3,1.1c-0.8,0.8-1.7,1.6-2.7,2.2l-0.4-0.9c0.2-0.2,0.3-0.4,0.3-0.7
					V130h-2v-1H461.9z M462.9,127l-0.7,0.7c-0.6-0.7-1.4-1.5-2.4-2.2l0.7-0.7C461.5,125.5,462.3,126.2,462.9,127z M465.3,130.3v-4
					h-1.9v-1h6.6v4.5c0,2.9,0.2,4.9,0.7,6.1c0.2,0.5,0.4,0.7,0.5,0.7c0.1,0,0.1-0.2,0.2-0.6c0-0.4,0.1-1,0.1-1.8l0.8,0.4
					c-0.1,1.4-0.2,2.3-0.3,2.7c-0.1,0.3-0.3,0.4-0.5,0.4c-0.5,0-1-0.3-1.4-1c-0.7-1.2-1-3.5-1-7v-3.4h-2.7v4h2v1h-2v6.6h-1v-6.6
					h-2.2v-1H465.3z"/>
			</g>
		</g>
	</g>
</g>
<g>
	<g>
		<rect x="567" y="117" class="st2" width="109" height="50"/>
		<g>
			<rect x="565.5" y="115.5" class="st3" width="108" height="49"/>
			<path class="st4" d="M673,116v48H566v-48H673 M674,115H565v50h109V115L674,115z"/>
		</g>
	</g>
	<g>
		<g transform="translate(20 9)">
			<g class="st5">
				<path class="st6" d="M570.7,125.4c-0.6,1.5-1.6,2.8-2.9,4l-0.3-1c1.1-1,1.8-2.1,2.3-3.4L570.7,125.4z M570.7,129.2
					c-0.2,0.5-0.4,1.1-0.7,1.5v7.1h-0.9V132c-0.4,0.5-0.8,0.9-1.3,1.3l-0.3-1c1.1-1.1,1.9-2.3,2.4-3.6L570.7,129.2z M573.8,136.1
					c0.1-0.1,0.2-0.2,0.3-0.4v-2.5h-1.5v0.6c0,1.8-0.5,3.1-1.3,3.9l-0.7-0.6c0.7-0.8,1.1-1.8,1.1-3.3v-1.5h3.3v3.1
					c0.4-0.3,0.8-0.7,1.2-1.1l0.2,0.9c-0.7,0.8-1.4,1.4-2.2,1.8L573.8,136.1z M575.5,130.2v0.9h-4.4v-0.9H575.5z M573.9,125v3.2h1
					v-2.4h0.8v3.3h-4.5v-3.3h0.8v2.4h1V125H573.9z M576.8,130.5c-0.3,0.7-0.5,1.3-0.8,1.8l-0.6-0.7c0.8-1.7,1.4-3.9,1.7-6.7l0.9,0.2
					c-0.1,0.8-0.2,1.5-0.3,2.1h2.6v0.9h-0.6c-0.1,2.4-0.4,4.4-1.1,6.1c0.5,1.1,1.1,2,1.8,2.7l-0.6,0.9c-0.7-0.6-1.2-1.5-1.7-2.6
					c-0.5,1-1.2,1.9-2,2.6l-0.5-0.8c0.9-0.7,1.6-1.7,2.1-2.9C577.4,133,577.1,131.8,576.8,130.5z M577.3,129.1
					c0.2,1.5,0.5,2.7,0.9,3.8c0.4-1.4,0.6-3,0.7-4.8h-1.4C577.4,128.5,577.4,128.8,577.3,129.1z"/>
				<path class="st6" d="M581.8,131.7l-0.3-1.1c1.4-1.7,2.4-3.6,3-5.8l0.9,0.4c-0.3,1.1-0.7,2.1-1.2,3v9.5h-1V130
					C582.7,130.6,582.3,131.2,581.8,131.7z M589.6,126.8c-0.2-0.6-0.4-1.1-0.7-1.6l1-0.3c0.3,0.6,0.5,1.2,0.7,1.7l-0.5,0.2h4.4v1
					h-9.1v-1C585.4,126.8,589.6,126.8,589.6,126.8z M593.5,137.8h-1V137h-5.2v0.8h-1v-4.9h7.1v4.9H593.5z M593.2,128.9v0.9h-6.6
					v-0.9H593.2z M593.2,130.9v0.9h-6.6v-0.9H593.2z M592.5,136.1v-2.2h-5.2v2.2H592.5z"/>
				<path class="st6" d="M599,128.8c-0.7,2.8-1.6,4.9-2.6,6.4l-0.9-0.8c1.1-1.5,1.9-3.5,2.5-6L599,128.8z M599.2,137.6l-0.2-1.1
					c0.7,0.1,1.4,0.1,2,0.1c0.5,0,0.8-0.3,0.8-0.8v-10.7h1v11c0,1-0.5,1.5-1.4,1.5H599.2z M608.5,134.6l-0.9,0.6
					c-0.6-2-1.5-4.2-2.6-6.6l0.9-0.6C607,130.6,607.9,132.8,608.5,134.6z"/>
				<path class="st6" d="M611.9,128.8v-2c-0.6,0.1-1.2,0.2-1.8,0.2l-0.2-1c1.8-0.2,3.3-0.5,4.7-0.9l0.4,1c-0.6,0.2-1.3,0.3-2,0.5
					v2.2h1.8v1H613v0.7c0.7,0.6,1.3,1.4,2,2.2l-0.6,0.8c-0.6-0.9-1.1-1.6-1.4-2.1v6.3h-1v-6.3c-0.5,1.4-1.1,2.6-1.9,3.7l-0.4-1.1
					c1.1-1.2,1.8-2.7,2.3-4.3h-1.9v-1h1.8V128.8z M622,130.8v0.9h-3v1.8h2.6v0.9H619v1.9h3.4v1h-7.9v-1h3.4v-1.9h-2.5v-0.9h2.5v-1.8
					H615v-0.9H622z M621.4,125.5v4h-5.8v-4H621.4z M620.4,126.4h-3.8v2.2h3.8V126.4z"/>
				<path class="st6" d="M631.1,126.1h5.1v0.9h-10.3v3.6c-0.1,3-0.5,5.3-1.5,7.1l-0.8-0.7c0.8-1.6,1.2-3.7,1.2-6.5V126h5.3
					c-0.2-0.4-0.4-0.7-0.6-1.1l1-0.2C630.7,125.3,630.9,125.7,631.1,126.1z M631.2,130.7c0.8-0.5,1.6-1.1,2.3-1.7h-6.2v-0.9h7.4v0.7
					c-0.9,0.9-1.8,1.7-2.8,2.4c0.2,0.1,0.4,0.3,0.6,0.4l-0.2,0.2h3.6v0.8c-0.6,1.1-1.2,2-1.9,2.8l-0.8-0.6c0.6-0.6,1.1-1.2,1.6-2
					h-3.2v3.7c0,0.8-0.4,1.2-1.2,1.2h-2.1l-0.2-1c0.7,0,1.3,0.1,1.9,0.1c0.4,0,0.6-0.2,0.6-0.6v-3.5h-4.1v-0.9h5
					c-0.7-0.5-1.7-1.1-2.8-1.6l0.6-0.6C630,130,630.6,130.4,631.2,130.7z"/>
			</g>
		</g>
	</g>
</g>
<g>
	<rect x="276" y="11" class="st9" width="136" height="231"/>
	<g>
		<g>
			<g transform="translate(20 9)">
				<g class="st5">
					<path class="st10" d="M293.6,15.9c-0.2-0.5-0.4-0.9-0.7-1.3l1.1-0.2c0.2,0.4,0.4,0.9,0.6,1.5h4.9v0.9h-2.2
						c-0.2,0.8-0.5,1.5-0.9,2.2h3.7v1h-12.4v-0.9h3.6c-0.2-0.8-0.5-1.6-0.8-2.2h-2.2V16h5.3V15.9z M298.4,27.4h-1v-0.6h-6.6v0.6h-1
						v-6.2h8.7v6.2H298.4z M297.4,23.5V22h-6.6v1.5H297.4z M297.4,25.9v-1.5h-6.6v1.5H297.4z M292.4,19.1h3c0.4-0.7,0.7-1.5,0.8-2.2
						h-4.6C292,17.5,292.2,18.3,292.4,19.1z"/>
					<path class="st10" d="M301.9,23.3l-0.3-1.1c1.9-1.6,3.1-3.2,3.8-4.7H302v-1h2.2c-0.2-0.6-0.5-1.2-0.8-1.8l1-0.3
						c0.3,0.7,0.6,1.4,0.8,1.9l-0.4,0.2h1.8v0.9c-0.4,1-0.9,2-1.7,3c0.8,0.5,1.5,1,2.1,1.6l-0.6,0.9c-0.5-0.6-1-1-1.5-1.4v5.9h-1
						v-5.8C303.1,22.1,302.5,22.7,301.9,23.3z M310.8,17.1v2.7c-0.1,2.1-0.4,3.8-1.1,5s-1.8,2.1-3.3,2.7l-0.5-0.9
						c1.5-0.6,2.5-1.5,3.1-2.5c0.5-1.1,0.8-2.5,0.9-4.3v-2.7C309.9,17.1,310.8,17.1,310.8,17.1z M313.4,22.9h-1v-6.8h-3.9v6.8h-1
						v-7.7h6v7.7H313.4z M311.7,27.2c-0.8,0-1.1-0.4-1.1-1.2v-3.1h1v2.9c0,0.3,0.2,0.5,0.5,0.5h0.9c0.2,0,0.4-0.1,0.4-0.2
						c0.1-0.2,0.2-0.7,0.2-1.6l0.9,0.3c-0.1,1.1-0.2,1.9-0.5,2.1c-0.2,0.2-0.5,0.3-1,0.3C313,27.2,311.7,27.2,311.7,27.2z"/>
					<path class="st10" d="M319.5,14.6v1.7h1.9v1h-1.9v1.6h2.1v1h-5.9v-1h0.8v-3.1h1v3.1h1.1v-4.2h0.9V14.6z M317.7,21.3
						c-0.3,1.3-0.8,2.3-1.3,3l-0.7-0.6c0.5-0.7,0.9-1.6,1.1-2.7L317.7,21.3z M321.7,21.1c-0.6,3.1-2.4,5.2-5.4,6.2l-0.6-0.9
						c2.8-0.9,4.5-2.7,5.1-5.4L321.7,21.1z M319.4,20.3V24h-1v-3.7H319.4z M325.5,19.4v2.5c0,1.5-0.3,2.7-0.9,3.6
						c-0.6,0.8-1.5,1.5-2.8,1.9l-0.6-0.9c1.2-0.4,2.1-1,2.6-1.7c0.5-0.8,0.7-1.7,0.7-2.9v-2.5H325.5z M328.3,15.1v1h-2.8
						c0,0.5-0.1,1-0.2,1.5h2.5v6.7h-1v-5.7h-3.6v5.7h-1v-6.7h2.1c0.1-0.5,0.1-1,0.2-1.5h-2.7v-1C321.8,15.1,328.3,15.1,328.3,15.1z
						 M328.5,26.7l-0.7,0.7c-0.6-0.8-1.4-1.6-2.4-2.5l0.7-0.6C327,25.1,327.8,25.9,328.5,26.7z"/>
					<path class="st10" d="M333,14.6v2.8h2.9c0,4.4-0.1,7.1-0.2,8.1c-0.1,1.1-0.8,1.7-2.1,1.7c-0.2,0-0.6,0-1.1-0.1l-0.3-0.9
						c0.4,0,0.8,0.1,1.2,0.1c0.7,0,1.1-0.4,1.2-1.2c0.1-0.7,0.1-3,0.2-6.7H333c-0.1,4.1-1,7.1-2.8,9l-0.7-0.7
						c1.6-1.8,2.5-4.6,2.5-8.4h-2.2v-1h2.2v-2.8L333,14.6L333,14.6z M341.8,27.2h-1v-0.9h-2.6v0.9h-1V16.6h4.6V27.2z M340.8,25.3
						v-7.7h-2.6v7.7H340.8z"/>
					<path class="st10" d="M350.4,27.1c-0.9,0-1.6-0.1-2.2-0.3c-0.6-0.2-1.1-0.5-1.5-1c-0.2-0.2-0.4-0.3-0.5-0.3
						c-0.3,0-0.9,0.6-1.6,1.9l-0.8-0.7c0.7-1.2,1.4-1.9,1.9-2.1v-4.3h-2v-0.9h2.9v5.2c0.1,0.1,0.2,0.2,0.4,0.3
						c0.3,0.4,0.7,0.7,1.1,0.9c0.4,0.2,1.1,0.3,1.9,0.3c0.7,0,1.7,0,2.8,0c0.7,0,1.3,0,2,0s1.2,0,1.6-0.1l-0.3,1h-3.2
						C352.2,27.1,351.3,27.1,350.4,27.1z M347.2,17l-0.7,0.7c-0.6-0.7-1.4-1.4-2.4-2.2l0.7-0.7C345.7,15.5,346.5,16.2,347.2,17z
						 M351.5,15.7v-1.1h0.9v1.1h3.5v0.9h-3.5v1.2h3.1v3.6h-3.1v4.3h-0.9v-3.9c-0.7,1.2-1.8,2.3-3.3,3.2l-0.6-0.8
						c1.5-0.8,2.6-1.7,3.3-2.8h-2.4v-3.6h3.1v-1.2H348v-0.9C348,15.7,351.5,15.7,351.5,15.7z M351.5,18.7h-2.1v1.8h2.1V18.7z
						 M354.6,18.7h-2.1v1.8h2.1V18.7z M356.1,24.2l-0.7,0.7c-0.6-0.8-1.4-1.6-2.5-2.5l0.7-0.6C354.6,22.6,355.4,23.4,356.1,24.2z"/>
					<path class="st10" d="M362.9,15.4c-0.7,1.2-1.3,2.1-2,2.9s-1.6,1.6-2.8,2.4l-0.5-0.9c1-0.5,1.8-1.3,2.6-2.1
						c0.7-0.8,1.3-1.7,1.8-2.8L362.9,15.4z M359.7,21.1v-1h8.4c0,1.8-0.1,3.2-0.3,4.2c-0.1,1.1-0.4,1.8-0.7,2.2
						c-0.3,0.4-0.8,0.6-1.5,0.7H363l-0.3-1c0.8,0,1.6,0,2.3,0c0.8,0,1.2-0.3,1.5-1s0.4-2.1,0.5-4.3h-3.5c-0.3,1.5-0.8,2.7-1.4,3.6
						c-0.7,1-1.8,1.9-3.2,2.7l-0.6-0.8c1.3-0.7,2.3-1.5,2.9-2.3s1-1.9,1.3-3.2h-2.8V21.1z M370.3,19.8l-0.7,0.8
						c-2.2-1.4-3.7-3.2-4.5-5.4l0.9-0.5C366.8,16.8,368.3,18.5,370.3,19.8z"/>
					<path class="st10" d="M373.7,15l1,0.2l-0.8,2.8h2.5c0.3-1.1,0.5-2.2,0.7-3.4l1,0.1c-0.2,1.2-0.4,2.3-0.7,3.3h6.6v1h-6.8
						c-0.2,0.6-0.3,1.1-0.5,1.6h5.7v0.9c-0.4,1.2-1.1,2.3-2.3,3.3c1.1,0.7,2.5,1.3,4.1,1.8l-0.5,0.9c-1.8-0.7-3.3-1.4-4.5-2.1
						c-1.1,0.8-2.6,1.5-4.3,2.2l-0.5-0.9c1.6-0.6,2.9-1.2,3.9-1.9c-1.1-0.8-1.9-1.8-2.3-2.7c-1,2.2-2.3,4-3.9,5.3l-0.5-0.9
						c2-1.8,3.5-4.2,4.5-7.4h-3.5L373.7,15z M379.2,24c1-0.8,1.8-1.7,2.1-2.6h-4.5C377.3,22.3,378.1,23.2,379.2,24z M382.9,16.9
						l-0.7,0.7c-0.6-0.7-1.4-1.5-2.5-2.4l0.7-0.7C381.4,15.3,382.3,16.1,382.9,16.9z"/>
				</g>
			</g>
		</g>
	</g>
	<g>
		<g>
			<rect x="290" y="52" class="st2" width="109.5" height="50"/>
			<g>
				<rect x="288.5" y="50.5" class="st3" width="108.5" height="49"/>
				<path class="st4" d="M396.5,51v48H289V51H396.5 M397.5,50H288v50h109.5V50L397.5,50z"/>
			</g>
		</g>
		<g>
			<g transform="translate(20 9)">
				<g class="st5">
					<path class="st6" d="M284.2,61.4c1,0,1.8,0.2,2.4,0.7s0.9,1.2,0.9,2.1c0,0.6-0.2,1.1-0.5,1.5s-0.8,0.7-1.4,0.9l0,0
						c1,0.2,1.5,0.8,1.6,1.8l0.2,1.5c0.1,0.6,0.2,1.1,0.5,1.5h-1.2c-0.2-0.3-0.4-0.8-0.4-1.3l-0.1-1.3c-0.1-0.6-0.3-1-0.6-1.3
						c-0.3-0.3-0.8-0.4-1.4-0.4h-3v4.3h-1.1v-10H284.2z M281,66.1h3c0.7,0,1.3-0.2,1.7-0.5c0.3-0.3,0.5-0.8,0.5-1.4
						s-0.2-1.1-0.5-1.4c-0.4-0.3-0.9-0.5-1.7-0.5h-3V66.1z"/>
					<path class="st6" d="M294.8,65.1c0.5,0.7,0.8,1.7,0.8,3H290c0.1,0.8,0.3,1.4,0.7,1.9c0.4,0.4,0.9,0.7,1.6,0.7
						c0.6,0,1.1-0.2,1.4-0.4c0.3-0.3,0.5-0.6,0.7-1.1h1.1c-0.2,0.7-0.5,1.3-1,1.7c-0.6,0.5-1.4,0.8-2.3,0.8c-1,0-1.9-0.4-2.5-1
						c-0.6-0.7-1-1.6-1-2.8c0-1.1,0.3-2,0.9-2.7c0.6-0.8,1.4-1.1,2.5-1.1C293.4,64,294.3,64.4,294.8,65.1z M290.7,65.5
						c-0.4,0.4-0.6,1-0.7,1.7h4.5c-0.1-1.6-0.9-2.3-2.3-2.3C291.6,64.9,291.1,65.1,290.7,65.5z"/>
					<path class="st6" d="M301.3,61.4v1H300c-0.3,0-0.5,0.1-0.7,0.2c-0.1,0.2-0.2,0.4-0.2,0.8v0.8h2v0.9h-2v6.3H298v-6.3h-1.8v-0.9
						h1.8v-0.8c0-0.6,0.2-1.1,0.5-1.4c0.3-0.3,0.8-0.5,1.4-0.5h1.4V61.4z"/>
					<path class="st6" d="M307.8,65.1c0.5,0.7,0.8,1.7,0.8,3H303c0.1,0.8,0.3,1.4,0.7,1.9s0.9,0.7,1.6,0.7c0.6,0,1.1-0.2,1.4-0.4
						c0.3-0.3,0.5-0.6,0.7-1.1h1.1c-0.2,0.7-0.5,1.3-1,1.7c-0.6,0.5-1.4,0.8-2.3,0.8c-1,0-1.9-0.4-2.5-1c-0.6-0.7-1-1.6-1-2.8
						c0-1.1,0.3-2,0.9-2.7c0.6-0.8,1.4-1.1,2.5-1.1C306.4,64,307.2,64.4,307.8,65.1z M303.7,65.5c-0.4,0.4-0.6,1-0.7,1.7h4.5
						c-0.1-1.6-0.9-2.3-2.3-2.3C304.6,64.9,304.1,65.1,303.7,65.5z"/>
					<path class="st6" d="M314.2,64.1v1.1c-0.4-0.1-0.7-0.2-1.1-0.2c-0.6,0-1,0.2-1.4,0.7s-0.6,1-0.6,1.7v3.8H310V64h1.1v1.3
						c0.2-0.4,0.4-0.8,0.8-1c0.4-0.3,0.8-0.5,1.3-0.5C313.6,64,313.9,64,314.2,64.1z"/>
					<path class="st6" d="M320.7,65.1c0.5,0.7,0.8,1.7,0.8,3h-5.7c0.1,0.8,0.3,1.4,0.7,1.9s0.9,0.7,1.6,0.7c0.6,0,1.1-0.2,1.4-0.4
						c0.3-0.3,0.5-0.6,0.7-1.1h1.1c-0.2,0.7-0.5,1.3-1,1.7c-0.6,0.5-1.4,0.8-2.3,0.8c-1,0-1.9-0.4-2.5-1c-0.6-0.7-1-1.6-1-2.8
						c0-1.1,0.3-2,0.9-2.7c0.6-0.8,1.4-1.1,2.5-1.1C319.2,64,320.1,64.4,320.7,65.1z M316.6,65.5c-0.4,0.4-0.6,1-0.7,1.7h4.5
						c-0.1-1.6-0.9-2.3-2.3-2.3C317.5,64.9,316.9,65.1,316.6,65.5z"/>
					<path class="st6" d="M327,64.1v1.1c-0.4-0.1-0.7-0.2-1.1-0.2c-0.6,0-1,0.2-1.4,0.7s-0.6,1-0.6,1.7v3.8h-1.1V64h1.1v1.3
						c0.2-0.4,0.4-0.8,0.8-1c0.4-0.3,0.8-0.5,1.3-0.5C326.4,64,326.8,64,327,64.1z"/>
					<path class="st6" d="M332.6,60.5v0.8c-0.4,1.3-0.9,2.6-1.5,4c0.9,1.3,1.3,2.4,1.4,3.4c0,0.6-0.2,1-0.4,1.3
						c-0.4,0.3-1.1,0.5-2.1,0.5l-0.3-1c0.2,0,0.4,0.1,0.5,0.1c0.5,0,0.9-0.1,1.1-0.2s0.3-0.3,0.3-0.6c0-1-0.5-2.1-1.4-3.3
						c0.6-1.5,1.2-2.8,1.5-4h-2.3v11.3h-1V60.5H332.6z M336.3,62c-0.2-0.7-0.4-1.4-0.7-2l1-0.2c0.2,0.6,0.5,1.3,0.7,2.1h3v1h-4.6
						c0,0.5,0,1.4-0.1,2.4h4c0,3-0.1,4.9-0.3,5.8c-0.3,0.9-0.9,1.4-1.9,1.4c-0.3,0-0.7,0-1.2-0.1l-0.3-0.9c0.6,0,1.1,0.1,1.4,0.1
						c0.6,0,1-0.4,1.1-1.1s0.1-2.1,0.1-4.2h-3.1c-0.1,1.2-0.4,2.2-0.8,3.2c-0.5,1.2-1.3,2.3-2.3,3.2l-0.7-0.7
						c1.1-1.2,1.9-2.4,2.3-3.5s0.6-2.3,0.6-3.6c0-1,0.1-1.7,0.1-2.1h-1.9v-1h3.6V62z"/>
					<path class="st6" d="M345.5,64c-1,1.5-2,2.7-3.1,3.7l-0.7-0.8c1.1-1,2.1-2.2,3-3.5L345.5,64z M352.9,71.4h1.5v0.9H342v-0.9h1.4
						v-3.5h9.6v3.5H352.9z M345.1,62.1l-0.7,0.7c-0.6-0.7-1.3-1.4-2.3-2.1l0.7-0.7C343.7,60.7,344.5,61.4,345.1,62.1z M346.2,71.4
						v-2.5h-1.9v2.5H346.2z M348.7,60c-0.1,0.4-0.3,0.9-0.4,1.3h5.3V62c-0.4,0.9-0.8,1.7-1.3,2.3l-0.8-0.6c0.4-0.4,0.7-1,1-1.6h-2.2
						c0,0.4-0.1,0.8-0.1,1.1c0.7,1.6,2.1,2.7,4.3,3.2l-0.4,1c-2.1-0.6-3.5-1.7-4.2-3.1c-0.7,1.4-2.1,2.4-4.2,3l-0.4-0.9
						c2.3-0.6,3.7-1.7,4-3.2c0.1-0.3,0.1-0.6,0.1-1.1H348c-0.4,0.8-0.9,1.4-1.6,2l-0.6-0.8c1-1,1.7-2.2,2.1-3.6L348.7,60z
						 M349.1,71.4v-2.5h-1.9v2.5H349.1z M351.9,71.4v-2.5H350v2.5H351.9z"/>
					<path class="st6" d="M358.1,60.2c-0.1,0.5-0.2,0.9-0.3,1.4h2.1v1h-2.4c-0.3,1-0.7,1.8-1.1,2.6l-0.8-0.5c0.7-1.4,1.2-3,1.5-4.7
						L358.1,60.2z M359.7,64.4v0.9h-1.1V67h1.5v0.9h-1.5v3.3c0.4-0.2,0.8-0.5,1.2-0.8l0.2,0.9c-0.7,0.5-1.4,0.9-2.3,1.2l-0.4-0.8
						c0.2-0.1,0.3-0.3,0.3-0.4v-3.2H356V67h1.6v-1.8h-0.7v-0.9h2.8V64.4z M368.6,71.6l-0.3,1h-1.9c-0.4,0-0.9,0-1.3,0
						c-0.6,0-1.2-0.1-1.7-0.3c-0.5-0.2-0.9-0.5-1.2-0.9c-0.2-0.2-0.3-0.3-0.5-0.3s-0.7,0.5-1.3,1.7l-0.6-0.8
						c0.6-0.9,1.1-1.5,1.5-1.7v-4.7h-1.1v-0.9h2.1v5.7c0.1,0.1,0.1,0.1,0.2,0.2c0.3,0.4,0.6,0.6,1.1,0.9c0.4,0.2,0.9,0.3,1.4,0.3
						s1.1,0,1.6,0C367.2,71.6,367.9,71.6,368.6,71.6z M362.4,62.5l-0.8,0.5c-0.4-0.7-0.9-1.5-1.5-2.3l0.7-0.5
						C361.6,61.1,362.1,61.8,362.4,62.5z M365.5,67.9v-1.7h-2.3l-0.2-0.8c0.5-0.8,0.9-1.7,1.3-2.9h-1.4v-0.9h1.7
						c0.1-0.5,0.3-1,0.4-1.6l0.9,0.2c-0.1,0.5-0.2,0.9-0.4,1.4h2.7v0.9h-3c-0.4,1.1-0.8,2-1.2,2.8h1.4v-1.9h0.9v1.9h1.6v0.9h-1.6
						v1.7h2v0.9h-2v2.3h-0.9v-2.3h-2.6v-0.9H365.5z"/>
				</g>
			</g>
		</g>
	</g>
	<g>
		<g>
			<rect x="290" y="116" class="st2" width="109.5" height="50"/>
			<g>
				<rect x="288.5" y="114.5" class="st3" width="108.5" height="49"/>
				<path class="st4" d="M396.5,115v48H289v-48H396.5 M397.5,114H288v50h109.5V114L397.5,114z"/>
			</g>
		</g>
		<g>
			<g transform="translate(20 9)">
				<g class="st5">
					<path class="st6" d="M299.8,125.4l-4.5,4.3l5.2,5.7H299l-4.4-5l-1.6,1.5v3.5h-1.1v-10h1.1v5.2l5.4-5.2
						C298.4,125.4,299.8,125.4,299.8,125.4z"/>
					<path class="st6" d="M307,129.1c0.5,0.7,0.8,1.7,0.8,3h-5.7c0.1,0.8,0.3,1.4,0.7,1.9c0.4,0.4,0.9,0.7,1.6,0.7
						c0.6,0,1.1-0.2,1.4-0.4c0.3-0.3,0.5-0.6,0.7-1.1h1.1c-0.2,0.7-0.5,1.3-1,1.7c-0.6,0.5-1.4,0.8-2.3,0.8c-1,0-1.9-0.4-2.5-1
						c-0.6-0.7-1-1.6-1-2.8c0-1.1,0.3-2,0.9-2.7c0.6-0.8,1.4-1.1,2.5-1.1C305.5,128,306.4,128.4,307,129.1z M302.8,129.5
						c-0.4,0.4-0.6,1-0.7,1.7h4.5c-0.1-1.6-0.9-2.3-2.3-2.3C303.7,128.9,303.2,129.1,302.8,129.5z"/>
					<path class="st6" d="M309.5,128.2l2.2,5.7l2.1-5.7h1.2l-4,10h-1.2l1.2-2.9l-2.9-7.1H309.5z"/>
					<path class="st6" d="M320.7,124.5v0.8c-0.4,1.3-0.9,2.6-1.5,4c0.9,1.3,1.3,2.4,1.4,3.4c0,0.6-0.2,1-0.4,1.3
						c-0.4,0.3-1.1,0.5-2.1,0.5l-0.3-1c0.2,0,0.4,0.1,0.5,0.1c0.5,0,0.9-0.1,1-0.2c0.2-0.1,0.3-0.3,0.3-0.6c0-1-0.5-2.1-1.4-3.3
						c0.6-1.5,1.2-2.8,1.5-4h-2.3v11.3h-1v-12.3H320.7z M324.4,126c-0.2-0.7-0.4-1.4-0.7-2l1-0.2c0.2,0.6,0.5,1.3,0.7,2.1h3v1h-4.6
						c0,0.5,0,1.4-0.1,2.4h4c0,3-0.1,4.9-0.3,5.8c-0.3,0.9-0.9,1.4-1.9,1.4c-0.3,0-0.7,0-1.2-0.1l-0.3-0.9c0.6,0,1.1,0.1,1.4,0.1
						c0.6,0,1-0.4,1.1-1.1c0.1-0.7,0.1-2.1,0.1-4.2h-3.1c-0.1,1.2-0.4,2.2-0.8,3.2c-0.5,1.2-1.3,2.3-2.3,3.2l-0.7-0.7
						c1.1-1.2,1.9-2.4,2.3-3.5s0.6-2.3,0.6-3.6c0-1,0.1-1.7,0.1-2.1h-1.9v-1h3.6V126z"/>
					<path class="st6" d="M333.5,128c-1,1.5-2,2.7-3.1,3.7l-0.7-0.8c1.1-1,2.1-2.2,3-3.5L333.5,128z M341,135.4h1.5v0.9H330v-0.9
						h1.4v-3.5h9.6V135.4z M333.2,126.1l-0.7,0.7c-0.6-0.7-1.3-1.4-2.3-2.1l0.7-0.7C331.8,124.7,332.6,125.4,333.2,126.1z
						 M334.3,135.4v-2.5h-1.9v2.5H334.3z M336.8,124c-0.1,0.4-0.3,0.9-0.4,1.3h5.3v0.8c-0.4,0.9-0.8,1.7-1.3,2.3l-0.8-0.6
						c0.4-0.4,0.7-1,1-1.6h-2.2c0,0.4-0.1,0.8-0.1,1.1c0.7,1.6,2.1,2.7,4.3,3.2l-0.4,1c-2.1-0.6-3.5-1.7-4.2-3.1
						c-0.7,1.4-2.1,2.4-4.2,3l-0.4-0.9c2.3-0.6,3.7-1.7,4-3.2c0.1-0.3,0.1-0.6,0.1-1.1H336c-0.4,0.8-0.9,1.4-1.6,2l-0.6-0.8
						c1-1,1.7-2.2,2.1-3.6L336.8,124z M337.2,135.4v-2.5h-1.9v2.5H337.2z M340,135.4v-2.5h-1.9v2.5H340z"/>
					<path class="st6" d="M346.2,124.2c-0.1,0.5-0.2,0.9-0.3,1.4h2.1v1h-2.4c-0.3,1-0.7,1.8-1.1,2.6l-0.8-0.5c0.7-1.4,1.2-3,1.5-4.7
						L346.2,124.2z M347.8,128.4v0.9h-1.1v1.8h1.5v0.9h-1.5v3.3c0.4-0.2,0.8-0.5,1.2-0.8l0.2,0.9c-0.7,0.5-1.4,0.9-2.3,1.2l-0.4-0.8
						c0.2-0.1,0.3-0.3,0.3-0.4v-3.2h-1.6V131h1.6v-1.8H345v-0.9L347.8,128.4L347.8,128.4z M356.6,135.6l-0.3,1h-1.9
						c-0.4,0-0.9,0-1.3,0c-0.6,0-1.2-0.1-1.7-0.3s-0.9-0.5-1.2-0.9c-0.2-0.2-0.3-0.3-0.5-0.3s-0.7,0.5-1.3,1.7l-0.6-0.8
						c0.6-0.9,1.1-1.5,1.5-1.7v-4.7h-1.1v-0.9h2.1v5.7c0.1,0.1,0.1,0.1,0.2,0.2c0.3,0.4,0.6,0.6,1.1,0.9c0.4,0.2,0.9,0.3,1.4,0.3
						s1.1,0,1.6,0C355.3,135.6,356,135.6,356.6,135.6z M350.5,126.5l-0.8,0.5c-0.4-0.7-0.9-1.5-1.5-2.3l0.7-0.5
						C349.6,125.1,350.1,125.8,350.5,126.5z M353.6,131.9v-1.7h-2.3l-0.2-0.8c0.5-0.8,0.9-1.7,1.3-2.9H351v-0.9h1.7
						c0.1-0.5,0.3-1,0.4-1.6l0.9,0.2c-0.1,0.5-0.2,0.9-0.4,1.4h2.7v0.9h-3c-0.4,1.1-0.8,2-1.2,2.8h1.4v-1.9h0.9v1.9h1.6v0.9h-1.6
						v1.7h2v0.9h-2v2.3h-0.9v-2.3H351v-0.9L353.6,131.9L353.6,131.9z"/>
				</g>
			</g>
		</g>
	</g>
	<g>
		<g>
			<rect x="290" y="180" class="st2" width="109.5" height="50"/>
			<g>
				<rect x="288.5" y="178.5" class="st3" width="108.5" height="49"/>
				<path class="st4" d="M396.5,179v48H289v-48H396.5 M397.5,178H288v50h109.5V178L397.5,178z"/>
			</g>
		</g>
		<g>
			<g transform="translate(20 9)">
				<g class="st5">
					<path class="st6" d="M297.5,193.9l-0.9-0.3c0.4-1.5,0.7-3,0.7-4.6l0.9,0.1c0,0.6-0.1,1.2-0.1,1.7h1.2V188h1v2.9h1.3v1h-1.3v3.4
						c0.4-0.2,0.9-0.4,1.3-0.6v1c-0.4,0.2-0.9,0.4-1.3,0.5v4.6h-1v-4.3c-0.8,0.3-1.6,0.5-2.4,0.7l-0.2-1c0.9-0.2,1.8-0.4,2.6-0.7
						v-3.7H298C297.8,192.6,297.7,193.3,297.5,193.9z M306.1,188v1.5h2.6v0.9h-2.6v1.6h3.2v1h-7.5v-1h3.2v-1.6h-2.5v-0.9h2.5V188
						H306.1z M306.7,194.6v-0.9h1v0.9h1.5v1h-1.5v4c0,0.8-0.4,1.2-1.1,1.2h-1.8l-0.2-1c0.6,0,1.1,0.1,1.6,0.1c0.3,0,0.5-0.2,0.5-0.6
						v-3.7h-4.5v-1H306.7z M305,198.3l-0.8,0.6c-0.4-0.7-1-1.4-1.7-2.2l0.8-0.5C304,197,304.6,197.7,305,198.3z"/>
					<path class="st6" d="M310.9,189.7v-1h5.2v1h-2.7c-0.1,0.7-0.2,1.3-0.3,1.9h2.5v0.9c-0.5,3.9-1.9,6.7-4.2,8.3l-0.5-0.9
						c1.2-0.8,2.1-2,2.8-3.6c-0.5-0.4-1-0.7-1.5-1l0.4-0.8c0.5,0.2,1,0.5,1.4,0.9c0.3-0.9,0.5-1.8,0.7-2.9h-1.8
						c-0.4,1.4-1,2.5-1.7,3.3l-0.5-0.9c0.9-1.2,1.5-2.9,1.7-5.3h-1.5V189.7z M316.8,192.8l-0.8-0.5c0.6-1.2,1-2.5,1.3-4l0.9,0.2
						c-0.1,0.6-0.3,1.2-0.4,1.7h1.5v-2.3h1v2.3h2.5v1h-2.5v2.3h3.1v1h-2.3c0.5,1.6,1.4,3.1,2.7,4.4l-0.6,0.8
						c-1.3-1.5-2.2-3.2-2.7-5.2v6.4h-1v-6.3c-0.8,2.1-2,3.8-3.8,5.1l-0.5-0.9c1.7-1.1,2.9-2.6,3.6-4.4H316v-1h3.3v-2.3h-1.8
						C317.3,191.8,317,192.3,316.8,192.8z"/>
					<path class="st6" d="M325.3,195.6l-0.5-0.8c2.5-0.7,4.5-1.6,5.8-2.7h0.8c1.1,1,3.1,1.9,5.8,2.7l-0.5,0.9
						c-0.9-0.3-1.6-0.5-2.3-0.8v0.6h-2.9v1.1h4.8v0.9h-4.8v2.1h1.7c0.3-0.6,0.6-1.2,0.8-1.9l1,0.4c-0.2,0.6-0.5,1.1-0.8,1.5h2.6v0.9
						h-11.6v-0.9h2.5c-0.2-0.5-0.4-1-0.7-1.5l1-0.4c0.3,0.5,0.5,1.1,0.7,1.8h1.7v-2.1h-4.9v-0.9h4.9v-1.1h-2.8v-0.6
						C326.9,195.1,326.1,195.4,325.3,195.6z M326.4,188.7v4h-0.9v-4H326.4z M331,192.9c-0.8,0.6-1.8,1.2-2.8,1.7h5.7
						C332.7,194.1,331.7,193.5,331,192.9z M329.2,188.1v4.9h-1v-4.9H329.2z M331,192l-0.7-0.6c0.9-0.9,1.6-2.1,2.1-3.5l0.9,0.2
						c-0.1,0.4-0.2,0.7-0.4,1h4.1v0.9h-4.6C332,190.9,331.5,191.5,331,192z M336.1,192.4l-0.6,0.7c-0.7-0.8-1.5-1.4-2.3-1.9l0.7-0.6
						C334.7,191.1,335.4,191.7,336.1,192.4z"/>
					<path class="st6" d="M342,200.7h-1v-7.3c-0.5,1.5-1.2,2.8-2,4l-0.4-1.1c1.1-1.4,2-2.9,2.5-4.7h-2.2v-1h2.2V188h1v2.7h1.8v1H342
						v0.8c0.7,0.7,1.4,1.4,2.1,2.3l-0.6,0.9c-0.6-0.9-1.1-1.6-1.6-2.1v7.1H342z M344.8,189.8h-0.6v-1h6.3v1
						c-0.4,2.6-1.2,4.9-2.4,6.8c0.9,1.3,2,2.4,3.4,3.4l-0.7,0.8c-1.3-1-2.4-2.2-3.3-3.4c-1,1.3-2.2,2.5-3.6,3.4l-0.6-0.8
						c1.5-1,2.7-2.1,3.6-3.5C345.7,194.5,345,192.2,344.8,189.8z M345.7,189.8c0.2,2.2,0.8,4.1,1.8,5.8c1-1.7,1.7-3.6,2-5.8H345.7z"
						/>
				</g>
			</g>
		</g>
	</g>
</g>
<rect class="st8" width="250" height="370"/>
<rect x="12" y="12" class="st9" width="226" height="231"/>
<g>
	<g>
		<g transform="translate(20 9)">
			<g class="st5">
				<path class="st10" d="M34.6,16.9c-0.2-0.5-0.4-0.9-0.7-1.3l1.1-0.2c0.2,0.4,0.4,0.9,0.6,1.5h4.9v0.9h-2.2
					c-0.2,0.8-0.5,1.5-0.9,2.2h3.7v1H28.8v-0.9h3.6c-0.2-0.8-0.5-1.6-0.8-2.2h-2.2V17h5.2V16.9z M39.4,28.4h-1v-0.6h-6.6v0.6h-1
					v-6.2h8.7L39.4,28.4L39.4,28.4z M38.4,24.5V23h-6.6v1.5H38.4z M38.4,26.9v-1.5h-6.6v1.5H38.4z M33.4,20.1h3
					c0.4-0.7,0.7-1.5,0.8-2.2h-4.6C33,18.5,33.2,19.3,33.4,20.1z"/>
				<path class="st10" d="M42.9,24.3l-0.3-1.1c1.9-1.6,3.1-3.2,3.8-4.7H43v-1h2.2c-0.2-0.6-0.5-1.2-0.8-1.8l1-0.3
					c0.3,0.7,0.6,1.4,0.8,1.9l-0.4,0.2h1.8v0.9c-0.4,1-0.9,2-1.7,3c0.8,0.5,1.5,1,2.1,1.6l-0.6,0.9c-0.5-0.6-1-1-1.5-1.4v5.9h-1
					v-5.8C44.1,23.1,43.5,23.7,42.9,24.3z M51.8,18.1v2.7c-0.1,2.1-0.4,3.8-1.1,5c-0.7,1.2-1.8,2.1-3.3,2.7l-0.5-0.9
					c1.5-0.6,2.5-1.5,3.1-2.5c0.5-1.1,0.8-2.5,0.9-4.3v-2.7C50.9,18.1,51.8,18.1,51.8,18.1z M54.4,23.9h-1v-6.8h-3.9v6.8h-1v-7.7h6
					L54.4,23.9L54.4,23.9z M52.7,28.2c-0.8,0-1.1-0.4-1.1-1.2v-3.1h1v2.9c0,0.3,0.2,0.5,0.5,0.5H54c0.2,0,0.4-0.1,0.4-0.2
					c0.1-0.2,0.2-0.7,0.2-1.6l0.9,0.3c-0.1,1.1-0.2,1.9-0.5,2.1c-0.2,0.2-0.5,0.3-1,0.3C54,28.2,52.7,28.2,52.7,28.2z"/>
				<path class="st10" d="M60.5,15.6v1.7h1.9v1h-1.9v1.6h2.1v1h-5.9v-1h0.8v-3.1h1v3.1h1.1v-4.2h0.9V15.6z M58.7,22.3
					c-0.3,1.3-0.8,2.3-1.3,3l-0.7-0.6c0.5-0.7,0.9-1.6,1.1-2.7L58.7,22.3z M62.7,22.1c-0.6,3.1-2.4,5.2-5.4,6.2l-0.6-0.9
					c2.8-0.9,4.5-2.7,5.1-5.4L62.7,22.1z M60.4,21.3V25h-1v-3.7H60.4z M66.5,20.4v2.5c0,1.5-0.4,2.7-0.9,3.6
					c-0.6,0.8-1.5,1.5-2.8,1.9l-0.6-0.9c1.2-0.4,2.1-1,2.6-1.7c0.5-0.8,0.7-1.7,0.7-2.9v-2.5H66.5z M69.3,16.1v1h-2.8
					c0,0.5-0.1,1-0.2,1.5h2.5v6.7h-1v-5.7h-3.6v5.7h-1v-6.7h2.1c0.1-0.5,0.1-1,0.2-1.5h-2.7v-1C62.8,16.1,69.3,16.1,69.3,16.1z
					 M69.5,27.7l-0.7,0.7c-0.6-0.8-1.4-1.6-2.4-2.5l0.7-0.6C68,26.1,68.8,26.9,69.5,27.7z"/>
				<path class="st10" d="M74.4,19.4v2.1H76v0.9h-1.6v1.9c0.7-0.1,1.3-0.3,1.9-0.4v1c-0.6,0.2-1.3,0.3-1.9,0.5v3h-1v-2.8
					c-0.9,0.2-1.8,0.3-2.7,0.4l-0.1-1c1-0.1,1.9-0.3,2.8-0.4v-2.1H71l-0.2-0.9c0.4-0.8,0.8-1.9,1.1-3.2h-1.4v-1h1.7
					c0.1-0.6,0.3-1.2,0.4-1.9l1,0.1c-0.1,0.6-0.3,1.2-0.4,1.7h2.7v1H73c-0.3,1.2-0.7,2.3-1.1,3.2h1.5v-2.1
					C73.4,19.4,74.4,19.4,74.4,19.4z M78.7,17.4c0.1-0.6,0.2-1.2,0.3-1.9l1,0.1c-0.1,0.6-0.2,1.2-0.3,1.8h3.4v1h-3.6L79.1,20h4.3v1
					h-4.6c-0.2,0.6-0.4,1.2-0.5,1.8h4.5v0.8c-0.5,1-1.2,1.9-2.2,2.9c0.6,0.3,1.1,0.7,1.6,1.1l-0.6,0.9c-1.5-1.1-3-2-4.5-2.7l0.5-0.8
					c0.7,0.3,1.4,0.7,2.1,1c0.8-0.7,1.5-1.5,2-2.3H77c0.3-0.9,0.5-1.8,0.8-2.7H76v-1h2c0.1-0.5,0.3-1.1,0.4-1.6h-2v-1
					C76.4,17.4,78.7,17.4,78.7,17.4z"/>
				<path class="st10" d="M89.3,27.7h-0.9v-0.8h-1.5V28H86v-5.7c-0.3,0.5-0.6,1-0.9,1.5L84.6,23c1.1-1.6,1.8-3.5,2.1-5.6H85v-1h4.8
					v1h-2.1c-0.2,1.1-0.5,2.2-0.8,3.2h2.6v7.1H89.3z M88.4,26v-4.6h-1.5V26H88.4z M95.1,24.4v1H90v-1H95.1z M92.2,18.1l-0.6,3.5h3
					l0.7-4.6h-4.9v-1h6l-0.8,5.5H97c0,3.4-0.2,5.3-0.6,5.9c-0.4,0.5-1.2,0.8-2.4,0.8c-0.4,0-0.8,0-1.3,0l-0.3-1
					c0.6,0.1,1.1,0.1,1.3,0.1c1.1,0,1.7-0.2,1.9-0.7c0.2-0.5,0.3-1.8,0.3-4.1h-5.7L91,18L92.2,18.1z"/>
				<path class="st10" d="M102.4,15.7c-0.1,0.7-0.3,1.4-0.4,2h3.1v0.9c-0.4,2.5-1.1,4.5-2.2,6.2c0.3,0.5,0.7,0.9,1.1,1.2
					c1.1,0.8,2.8,1.2,5.2,1.2c0.7,0,1.5,0,2.2-0.1l-0.2,1.1h-1.5c-2.9,0-5-0.5-6.3-1.4c-0.4-0.3-0.7-0.7-1.1-1.1
					c-0.9,1.1-1.9,2-3.1,2.7l-0.5-1c1.2-0.7,2.2-1.6,3-2.7c-0.5-0.9-0.9-2-1.2-3.2c-0.4,0.7-0.8,1.2-1.2,1.8l-0.7-0.9
					c1.3-1.7,2.2-3.9,2.7-6.7H102.4z M102.3,23.7c0.8-1.4,1.4-3.1,1.8-5h-2.4c-0.2,0.5-0.4,1-0.5,1.5
					C101.5,21.6,101.9,22.8,102.3,23.7z M108,15.6v3.6c1.1,0.8,2.3,1.8,3.5,2.9l-0.6,0.9c-1.1-1.1-2.1-2.1-2.9-2.7v5.8h-1V15.6H108z
					"/>
				<path class="st10" d="M114.4,20.8v-3.3h-1.7v-1h4.5v1h-1.7v3.3h1.5v1h-1.5V25c0.5-0.2,1-0.4,1.5-0.6v1c-1.3,0.5-2.7,1-4.2,1.3
					l-0.3-1c0.6-0.1,1.2-0.3,1.8-0.4v-3.5h-1.5v-1H114.4z M124.7,16.1v6.5h-2.9v1.7h3.2v1h-3.2V27h3.7v1H117v-1h3.8v-1.8h-3.2v-1
					h3.2v-1.7h-2.9V16h6.8V16.1z M120.8,18.9V17h-2v1.9H120.8z M120.8,19.8h-2v1.9h2V19.8z M121.8,18.9h1.9V17h-1.9V18.9z
					 M123.7,19.8h-1.9v1.9h1.9V19.8z"/>
			</g>
		</g>
	</g>
</g>
<g>
	<g>
		<rect x="26" y="53" class="st2" width="93" height="50"/>
		<g>
			<rect x="24.5" y="51.5" class="st3" width="92" height="49"/>
			<path class="st4" d="M116,52v48H25V52H116 M117,51H24v50h93V51L117,51z"/>
		</g>
	</g>
	<g>
		<g transform="translate(20 9)">
			<g class="st5">
				<path class="st6" d="M23.9,71.4c1.6-0.7,2.8-1.6,3.7-2.9h-4.1c-1.2,0.6-2.7,1-4.4,1.3L18.5,69c3.1-0.3,5.3-1.2,6.8-2.8l0.9,0.5
					c-0.3,0.3-0.7,0.7-1.1,1h3.8v0.8c-2,3.3-5.7,5-11.1,5.1l-0.4-1c2.2,0,4.1-0.3,5.7-0.8c-0.5-0.6-1-1.2-1.5-1.7l0.9-0.4
					C22.9,70.2,23.5,70.8,23.9,71.4z M23.8,61.4c-0.3,0.3-0.5,0.5-0.8,0.8h4V63c-1.5,2.7-4.3,4.2-8.4,4.5l-0.4-0.9
					c1.3-0.1,2.4-0.3,3.4-0.6c-0.4-0.5-0.9-1-1.4-1.5l0.9-0.4c0.5,0.5,1,1,1.4,1.5c1.5-0.6,2.6-1.5,3.4-2.6h-4.1
					c-1.1,0.6-2.4,1.1-3.9,1.5l-0.6-0.9c2.5-0.5,4.4-1.4,5.6-2.7L23.8,61.4z"/>
				<path class="st6" d="M35.3,73.1h-0.9v-0.8h-1.5v1.1H32v-5.7c-0.3,0.5-0.6,1-0.9,1.5l-0.5-0.8c1.1-1.6,1.8-3.5,2.1-5.6H31v-1h4.8
					v1h-2.1c-0.2,1.1-0.5,2.2-0.8,3.2h2.6v7.1H35.3z M34.4,71.4v-4.6h-1.5v4.6H34.4z M41.1,69.8v1H36v-1H41.1z M38.2,63.5L37.6,67h3
					l0.7-4.6h-4.9v-1h6l-0.8,5.5H43c0,3.4-0.2,5.3-0.6,5.9c-0.4,0.5-1.2,0.8-2.4,0.8c-0.4,0-0.8,0-1.3,0l-0.3-1
					c0.6,0.1,1.1,0.1,1.3,0.1c1.1,0,1.7-0.2,1.9-0.7s0.3-1.8,0.3-4.1h-5.7l0.8-4.5L38.2,63.5z"/>
				<path class="st6" d="M50.5,62.1c-0.2-0.4-0.4-0.8-0.6-1.2l1-0.2c0.2,0.4,0.4,0.8,0.6,1.3H57v1h-5.9c-0.4,0.8-0.9,1.5-1.4,2
					l1.8-0.2c0.3-0.4,0.6-0.8,1-1.3l0.9,0.4c-1.3,1.7-2.5,3-3.5,3.8c0.9-0.1,1.8-0.2,2.6-0.4c-0.2-0.4-0.3-0.7-0.5-1l0.9-0.3
					c0.5,0.8,0.9,1.7,1.2,2.6L53.2,69c-0.1-0.3-0.2-0.7-0.4-1c-0.4,0.1-0.9,0.2-1.4,0.2V70h5.7v1h-5.7v2.9h-1V71h-5.7v-1h5.7v-1.5
					c-0.6,0.1-1.3,0.1-2,0.2l-0.2-0.9l0.4-0.1c0.6-0.4,1.4-1,2.2-2c-0.8,0.1-1.5,0.1-2.4,0.2l-0.2-0.8c0.7-0.4,1.3-1.1,1.8-2h-5v-1
					C45,62.1,50.5,62.1,50.5,62.1z M48.1,66.9c-0.7,0.9-1.5,1.6-2.3,2.2l-0.7-0.8c0.8-0.6,1.6-1.2,2.2-2L48.1,66.9z M47.9,65.3
					L47.2,66c-0.5-0.5-1.1-1.1-2-1.7l0.7-0.7C46.7,64.1,47.4,64.7,47.9,65.3z M56.6,64.1c-0.6,0.7-1.3,1.4-2,1.9L54,65.2
					c0.7-0.5,1.3-1.1,1.8-1.7L56.6,64.1z M56.9,68.4l-0.7,0.7c-0.5-0.7-1.2-1.4-2.1-2.2l0.6-0.6C55.6,67,56.3,67.7,56.9,68.4z"/>
				<path class="st6" d="M62.4,64.8v2.1H64v0.9h-1.6v1.9c0.7-0.1,1.3-0.3,1.9-0.4v1c-0.6,0.2-1.3,0.3-1.9,0.5v3h-1V71
					c-0.9,0.2-1.8,0.3-2.7,0.4l-0.1-1c1-0.1,1.9-0.3,2.8-0.4v-2.1H59L58.8,67c0.4-0.8,0.8-1.9,1.1-3.2h-1.4v-1h1.7
					c0.1-0.6,0.3-1.2,0.4-1.9l1,0.1c-0.1,0.6-0.3,1.2-0.4,1.7h2.7v1H61c-0.3,1.2-0.7,2.3-1.1,3.2h1.5v-2.1
					C61.4,64.8,62.4,64.8,62.4,64.8z M66.7,62.8c0.1-0.6,0.2-1.2,0.3-1.9l1,0.1c-0.1,0.6-0.2,1.2-0.3,1.8h3.4v1h-3.6l-0.4,1.6h4.3v1
					h-4.6c-0.2,0.6-0.4,1.2-0.5,1.8h4.5V69c-0.5,1-1.2,1.9-2.2,2.9c0.6,0.3,1.1,0.7,1.6,1.1l-0.6,0.9c-1.5-1.1-3-2-4.5-2.7l0.5-0.8
					c0.7,0.3,1.4,0.7,2.1,1c0.8-0.7,1.5-1.5,2-2.3H65c0.3-0.9,0.5-1.8,0.8-2.7H64v-1h2c0.1-0.5,0.3-1.1,0.4-1.6h-2v-1
					C64.4,62.8,66.7,62.8,66.7,62.8z"/>
				<path class="st6" d="M77.3,73.1h-0.9v-0.8h-1.5v1.1H74v-5.7c-0.3,0.5-0.6,1-0.9,1.5l-0.5-0.8c1.1-1.6,1.8-3.5,2.1-5.6H73v-1h4.8
					v1h-2.1c-0.2,1.1-0.5,2.2-0.8,3.2h2.6v7.1H77.3z M76.4,71.4v-4.6h-1.5v4.6H76.4z M83.1,69.8v1H78v-1H83.1z M80.2,63.5L79.6,67h3
					l0.7-4.6h-4.9v-1h6l-0.8,5.5H85c0,3.4-0.2,5.3-0.6,5.9c-0.4,0.5-1.2,0.8-2.4,0.8c-0.4,0-0.8,0-1.3,0l-0.3-1
					c0.6,0.1,1.1,0.1,1.3,0.1c1.1,0,1.7-0.2,1.9-0.7c0.2-0.5,0.3-1.8,0.3-4.1h-5.7l0.8-4.5L80.2,63.5z"/>
			</g>
		</g>
	</g>
</g>
<g>
	<g>
		<rect x="133" y="53" class="st2" width="93" height="50"/>
		<g>
			<rect x="131.5" y="51.5" class="st3" width="92" height="49"/>
			<path class="st4" d="M223,52v48h-91V52H223 M224,51h-93v50h93V51L224,51z"/>
		</g>
	</g>
	<g>
		<g transform="translate(20 9)">
			<g class="st5">
				<path class="st6" d="M134.7,73.8h-1v-0.9h-7.4v0.9h-1V62.6h3c0.3-0.6,0.5-1.1,0.7-1.7l1,0.1c-0.2,0.6-0.4,1.1-0.7,1.6h5.4
					L134.7,73.8L134.7,73.8z M133.7,65.7v-2.1h-7.4v2.1H133.7z M133.7,68.7v-2.1h-7.4v2.1H133.7z M133.7,71.9v-2.3h-7.4v2.3H133.7z"
					/>
				<path class="st6" d="M148.1,65.1v1h-3.6v2.5h4.2v1h-4.2v2.9c1,0.1,2.2,0.2,3.6,0.2c0.7,0,1.4,0,2.2-0.1l-0.2,1h-1.6
					c-2.8,0-4.8-0.3-6.1-0.8c-0.9-0.4-1.7-1.1-2.3-2c-0.5,1.2-1.2,2.2-2,3l-0.6-0.8c1.3-1.4,2.2-3.3,2.7-5.8l1,0.2
					c-0.2,0.9-0.4,1.7-0.6,2.4c0.7,1.2,1.5,2,2.5,2.3c0.1,0,0.3,0.1,0.4,0.1v-6.1h-3.7v-1C139.8,65.1,148.1,65.1,148.1,65.1z
					 M149.7,65.4h-1v-2.1h-9.5v2.1h-1v-3.1h5.4c-0.2-0.5-0.4-1-0.7-1.4l1.1-0.2c0.2,0.5,0.4,1,0.6,1.6h5.1L149.7,65.4L149.7,65.4z"
					/>
				<path class="st6" d="M162.8,61.8c-0.6,3.3-1.9,5.9-3.9,8c1.6,1.3,3.4,2.3,5.5,3l-0.6,0.9c-2.2-0.8-4-1.9-5.6-3.2
					c-1.6,1.4-3.5,2.5-5.8,3.2l-0.6-0.9c2.2-0.7,4.1-1.7,5.6-3.1c-1.8-1.8-3.2-3.9-4.3-6.4l0.9-0.5c1,2.5,2.4,4.6,4.1,6.2
					c1.9-1.9,3.1-4.4,3.7-7.5L162.8,61.8z M159.2,64.3l-0.9,0.5c-0.7-1.3-1.5-2.4-2.4-3.4l1-0.4C157.8,62,158.6,63.1,159.2,64.3z"/>
				<path class="st6" d="M170.5,64.5v0.8c-0.7,3.1-2.2,5.4-4.3,7l-0.6-0.8c1.9-1.4,3.2-3.4,4-6H166v-1H170.5z M177.6,63.8
					c-1.1,1.3-2.2,2.5-3.4,3.4c1.1,1.8,2.5,3.2,4.3,4.4l-0.6,0.9c-2.4-1.9-4.2-4-5.2-6.5v6.4c0,0.9-0.4,1.3-1.2,1.3h-1.8l-0.2-1
					c0.6,0,1.2,0.1,1.7,0.1c0.4,0,0.6-0.2,0.6-0.6V60.9h1v3c0.3,0.9,0.7,1.7,1.1,2.5c1.1-0.9,2.2-2,3.1-3.2L177.6,63.8z"/>
				<path class="st6" d="M181.6,71.1c1.2-0.3,2.5-0.6,3.9-1l0.3,0.9c-1.7,0.5-3.4,0.9-5.2,1.2l-0.4-0.8c0.3-0.1,0.4-0.4,0.4-0.6
					v-8.7c1.7-0.3,3.3-0.7,4.7-1.1l0.6,0.8c-1.3,0.4-2.7,0.8-4.4,1.1V66h4v1h-4L181.6,71.1L181.6,71.1z M189.1,71.9l-0.3-1h1.3
					c0.4,0,0.6-0.2,0.6-0.6v-7.6h-3.2v11.1h-1V61.7h5.2v8.8c0,0.9-0.4,1.4-1.3,1.4H189.1z"/>
			</g>
		</g>
	</g>
</g>
<rect x="12" y="255" class="st9" width="226" height="103"/>
<g>
	<g>
		<g transform="translate(20 9)">
			<g class="st5">
				<path class="st10" d="M28.9,267.3l-0.3-1.1c1.9-1.6,3.1-3.2,3.8-4.7H29v-1h2.2c-0.2-0.6-0.5-1.2-0.8-1.8l1-0.3
					c0.3,0.7,0.6,1.4,0.8,1.9l-0.4,0.2h1.8v0.9c-0.4,1-0.9,2-1.7,3c0.8,0.5,1.5,1,2.1,1.6l-0.6,0.9c-0.5-0.6-1-1-1.5-1.4v5.9h-1
					v-5.8C30.1,266.1,29.5,266.7,28.9,267.3z M37.8,261.1v2.7c-0.1,2.1-0.4,3.8-1.1,5c-0.7,1.2-1.8,2.1-3.3,2.7l-0.5-0.9
					c1.5-0.6,2.5-1.5,3.1-2.5c0.5-1.1,0.8-2.5,0.9-4.3v-2.7L37.8,261.1L37.8,261.1z M40.4,266.9h-1v-6.8h-3.9v6.8h-1v-7.7h6
					L40.4,266.9L40.4,266.9z M38.7,271.2c-0.8,0-1.1-0.4-1.1-1.2v-3.1h1v2.9c0,0.3,0.2,0.5,0.5,0.5H40c0.2,0,0.4-0.1,0.4-0.2
					c0.1-0.2,0.2-0.7,0.2-1.6l0.9,0.3c-0.1,1.1-0.2,1.9-0.5,2.1c-0.2,0.2-0.5,0.3-1,0.3L38.7,271.2L38.7,271.2z"/>
				<path class="st10" d="M46.5,258.6v1.7h1.9v1h-1.9v1.6h2.1v1h-5.9v-1h0.8v-3.1h1v3.1h1.1v-4.2h0.9V258.6z M44.7,265.3
					c-0.3,1.3-0.8,2.3-1.3,3l-0.7-0.6c0.5-0.7,0.9-1.6,1.1-2.7L44.7,265.3z M48.7,265.1c-0.6,3.1-2.4,5.2-5.4,6.2l-0.6-0.9
					c2.8-0.9,4.5-2.7,5.1-5.4L48.7,265.1z M46.4,264.3v3.7h-1v-3.7H46.4z M52.5,263.4v2.5c0,1.5-0.4,2.7-0.9,3.6
					c-0.6,0.8-1.5,1.5-2.8,1.9l-0.6-0.9c1.2-0.4,2.1-1,2.6-1.7c0.5-0.8,0.7-1.7,0.7-2.9v-2.5H52.5z M55.3,259.1v1h-2.8
					c0,0.5-0.1,1-0.2,1.5h2.5v6.7h-1v-5.7h-3.6v5.7h-1v-6.7h2.1c0.1-0.5,0.1-1,0.2-1.5h-2.7v-1H55.3z M55.5,270.7l-0.7,0.7
					c-0.6-0.8-1.4-1.6-2.4-2.5l0.7-0.6C54,269.1,54.8,269.9,55.5,270.7z"/>
				<path class="st10" d="M61.3,260l3.9,10H64l-1.1-2.8h-4.6l-1.1,2.8H56l3.9-10H61.3z M62.5,266.2l-1.9-5h-0.1l-1.9,5H62.5z"/>
				<path class="st10" d="M67.4,260v10h-1.1v-10H67.4z"/>
			</g>
		</g>
	</g>
</g>
<g>
	<g>
		<rect x="26" y="296" class="st2" width="93" height="50"/>
		<g>
			<rect x="24.5" y="294.5" class="st3" width="92" height="49"/>
			<path class="st4" d="M116,295v48H25v-48H116 M117,294H24v50h93V294L117,294z"/>
		</g>
	</g>
	<g>
		<g transform="translate(20 9)">
			<g class="st5">
				<path class="st6" d="M23.9,312.7l-0.3-1.1c1.9-1.6,3.1-3.2,3.8-4.7H24v-1h2.2c-0.2-0.6-0.5-1.2-0.8-1.8l1-0.3
					c0.3,0.7,0.6,1.4,0.8,1.9l-0.4,0.2h1.8v0.9c-0.4,1-0.9,2-1.7,3c0.8,0.5,1.5,1,2.1,1.6l-0.6,0.9c-0.5-0.6-1-1-1.5-1.4v5.9h-1V311
					C25.1,311.5,24.5,312.1,23.9,312.7z M32.8,306.5v2.7c-0.1,2.1-0.4,3.8-1.1,5c-0.7,1.2-1.8,2.1-3.3,2.7l-0.5-0.9
					c1.5-0.6,2.5-1.5,3.1-2.5c0.5-1.1,0.8-2.5,0.9-4.3v-2.7L32.8,306.5L32.8,306.5z M35.4,312.3h-1v-6.8h-3.9v6.8h-1v-7.7h6
					L35.4,312.3L35.4,312.3z M33.7,316.6c-0.8,0-1.1-0.4-1.1-1.2v-3.1h1v2.9c0,0.3,0.2,0.5,0.5,0.5H35c0.2,0,0.4-0.1,0.4-0.2
					c0.1-0.2,0.2-0.7,0.2-1.6l0.9,0.3c-0.1,1.1-0.2,1.9-0.5,2.1c-0.2,0.2-0.5,0.3-1,0.3L33.7,316.6L33.7,316.6z"/>
				<path class="st6" d="M41.5,304v1.7h1.9v1h-1.9v1.6h2.1v1h-5.9v-1h0.8v-3.1h1v3.1h1.1V304H41.5z M39.7,310.7
					c-0.3,1.3-0.8,2.3-1.3,3l-0.7-0.6c0.5-0.7,0.9-1.6,1.1-2.7L39.7,310.7z M43.7,310.5c-0.6,3.1-2.4,5.2-5.4,6.2l-0.6-0.9
					c2.8-0.9,4.5-2.7,5.1-5.4L43.7,310.5z M41.4,309.7v3.7h-1v-3.7H41.4z M47.5,308.8v2.5c0,1.5-0.4,2.7-0.9,3.6
					c-0.6,0.8-1.5,1.5-2.8,1.9l-0.6-0.9c1.2-0.4,2.1-1,2.6-1.7c0.5-0.8,0.7-1.7,0.7-2.9v-2.5H47.5z M50.3,304.5v1h-2.8
					c0,0.5-0.1,1-0.2,1.5h2.5v6.7h-1V308h-3.6v5.7h-1V307h2.1c0.1-0.5,0.1-1,0.2-1.5h-2.7v-1H50.3z M50.5,316.1l-0.7,0.7
					c-0.6-0.8-1.4-1.6-2.4-2.5l0.7-0.6C49,314.5,49.8,315.3,50.5,316.1z"/>
				<path class="st6" d="M63.8,307.5h-1V306h-9.7v1.6h-1V305h5.3c-0.1-0.4-0.3-0.7-0.4-1l1.1-0.2c0.1,0.4,0.3,0.7,0.4,1.2h5.3
					C63.8,305,63.8,307.5,63.8,307.5z M54.4,314v0.8h-1V308h4.1v-1.4h1v1.4h4.1v6.8h-1V314h-3.2v2.8h-1V314H54.4z M54.4,309v1.6h3.1
					V309H54.4z M54.4,313.1h3.1v-1.6h-3.1V313.1z M61.7,309h-3.2v1.6h3.2V309z M61.7,313.1v-1.6h-3.2v1.6H61.7z"/>
				<path class="st6" d="M68.7,316.8h-1v-7c-0.4,1.4-1,2.7-1.8,3.9l-0.4-1c1-1.5,1.7-3.1,2.1-5h-1.9v-1h1.9V304h1v2.7h1.7v1h-1.7
					v0.9c0.7,0.8,1.3,1.6,2,2.6l-0.6,0.9c-0.6-1-1.1-1.8-1.5-2.4v7.1H68.7z M70.4,316.7l-0.5-0.9c3.3-1.1,5.8-3.2,7.4-6.2l0.9,0.4
					c-0.7,1.3-1.5,2.4-2.4,3.3c1,0.9,1.9,1.8,2.6,2.7l-0.7,0.7c-0.6-0.9-1.4-1.8-2.5-2.8C73.8,315.2,72.2,316.1,70.4,316.7z
					 M74.2,305.5c-0.2-0.5-0.4-1-0.7-1.4l1-0.2c0.2,0.4,0.4,1,0.6,1.6h3.1v0.9h-3.8c-0.8,1.4-1.4,2.3-2,2.9c0.9-0.1,1.8-0.1,2.6-0.2
					c0.4-0.5,0.7-1,1-1.6l0.8,0.4c-1.4,2.8-3.4,4.7-6.2,5.7l-0.5-0.8c1.7-0.6,3.1-1.5,4.3-2.8c-1,0.1-2,0.1-3.1,0.2l-0.2-0.8
					c0.1,0,0.1-0.1,0.2-0.1c0.6-0.4,1.3-1.3,2.2-2.8h-2.7v-0.9h3.4V305.5z"/>
			</g>
		</g>
	</g>
</g>
<g>
	<g>
		<rect x="133" y="296" class="st2" width="93" height="50"/>
		<g>
			<rect x="131.5" y="294.5" class="st3" width="92" height="49"/>
			<path class="st4" d="M223,295v48h-91v-48H223 M224,294h-93v50h93V294L224,294z"/>
		</g>
	</g>
	<g>
		<g transform="translate(20 9)">
			<g class="st5">
				<path class="st6" d="M133.7,313.7l-0.7-0.8c1.6-1,2.6-2.3,3.1-3.9c0.2-0.5,0.3-1.1,0.4-1.8h-4v9.6h-1v-10.6h5.1
					c0.1-0.7,0.1-1.5,0.1-2.3h1c0,0.8,0,1.6-0.1,2.3h4.9v9c0,0.9-0.5,1.4-1.4,1.4H139l-0.3-1l2.1,0.1c0.4,0,0.7-0.2,0.7-0.7v-7.8h-4
					c-0.1,0.5-0.2,1-0.3,1.5c1.5,1.4,2.7,2.7,3.7,4.1l-0.8,0.8c-0.8-1.2-1.9-2.5-3.2-3.8C136.4,311.3,135.3,312.6,133.7,313.7z"/>
				<path class="st6" d="M151.4,308.4c1.1,1.4,3.1,2.6,5.9,3.7l-0.5,0.8c-0.6-0.2-1.1-0.4-1.6-0.7v4.6h-1v-0.6H148v0.6h-1v-4.6
					c-0.6,0.3-1.1,0.5-1.7,0.7l-0.5-0.8c2.6-1,4.5-2.2,5.9-3.7H151.4z M150,307.2c-1.2,1-2.6,1.9-4.4,2.7l-0.6-0.8
					c1.7-0.7,3.1-1.6,4.3-2.5L150,307.2z M151.6,305.1h5.1v2.5h-1V306h-9.5v1.6h-1V305h5.3c-0.2-0.4-0.3-0.7-0.5-1.1l1.1-0.2
					C151.3,304.2,151.5,304.7,151.6,305.1z M155,312.2c-1.7-0.8-3.1-1.8-4-2.9c-1.1,1.2-2.5,2.1-4,2.9H155z M154.2,315.3v-2.2H148
					v2.2H154.2z M156.9,309.3l-0.7,0.7c-1-0.8-2.4-1.7-4.2-2.7l0.6-0.6C154.3,307.5,155.8,308.4,156.9,309.3z"/>
				<path class="st6" d="M161.6,308.2v6.2c0.4-0.4,0.9-0.9,1.4-1.4l0.3,1.1c-0.8,0.8-1.7,1.5-2.6,2.2l-0.4-0.9
					c0.2-0.2,0.3-0.4,0.3-0.6v-5.6h-2v-1L161.6,308.2L161.6,308.2z M162.6,306.2l-0.7,0.7c-0.6-0.7-1.4-1.4-2.4-2.1l0.7-0.7
					C161.2,304.8,162,305.5,162.6,306.2z M166.5,312.6c-0.7,1.6-1.5,3.1-2.5,4.3l-0.9-0.6c1-1.1,1.8-2.5,2.5-4L166.5,312.6z
					 M170.6,304.8v6.5h-6.4v-6.5H170.6z M169.5,305.8h-4.4v4.6h4.4V305.8z M171.5,316.2l-0.9,0.6c-0.6-1.3-1.4-2.6-2.5-4.2l0.8-0.5
					C170.1,313.7,170.9,315,171.5,316.2z"/>
				<path class="st6" d="M173.4,309v-4.5h6v4.5h-2.7c0,0.6-0.1,1.2-0.1,1.7h3c0,2.4-0.1,3.9-0.2,4.5c-0.1,0.9-0.8,1.4-2,1.4
					c-0.2,0-0.5,0-1,0l-0.2-0.9c0.4,0,0.8,0.1,1.1,0.1c0.7,0,1.1-0.3,1.2-0.9c0.1-0.4,0.1-1.4,0.2-3.2h-2.1
					c-0.2,0.9-0.3,1.6-0.6,2.1c-0.5,1.2-1.4,2.2-2.6,3.1l-0.6-0.8c1.1-0.7,1.8-1.6,2.3-2.7c0.2-0.4,0.4-1,0.5-1.7h-2.5v-0.9h2.6
					c0.1-0.5,0.1-1.1,0.1-1.7h-2.4V309z M178.3,305.4h-4v2.6h4V305.4z M181.9,305.2v8.7h-1v-8.7H181.9z M181.5,316.7l-0.2-1
					c0.7,0,1.3,0.1,1.9,0.1c0.4,0,0.7-0.3,0.7-0.8v-11h1v11.3c0,0.9-0.4,1.4-1.3,1.4H181.5z"/>
			</g>
		</g>
	</g>
</g>
<g>
	<g>
		<rect x="26" y="117" class="st2" width="93" height="50"/>
		<g>
			<rect x="24.5" y="115.5" class="st3" width="92" height="49"/>
			<path class="st4" d="M116,116v48H25v-48H116 M117,115H24v50h93V115L117,115z"/>
		</g>
	</g>
	<g>
		<g transform="translate(20 9)">
			<g class="st5">
				<path class="st6" d="M23.9,133.7l-0.3-1.1c1.9-1.6,3.1-3.2,3.8-4.7H24v-1h2.2c-0.2-0.6-0.5-1.2-0.8-1.8l1-0.3
					c0.3,0.7,0.6,1.4,0.8,1.9l-0.4,0.2h1.8v0.9c-0.4,1-0.9,2-1.7,3c0.8,0.5,1.5,1,2.1,1.6l-0.6,0.9c-0.5-0.6-1-1-1.5-1.4v5.9h-1V132
					C25.1,132.5,24.5,133.1,23.9,133.7z M32.8,127.5v2.7c-0.1,2.1-0.4,3.8-1.1,5c-0.7,1.2-1.8,2.1-3.3,2.7l-0.5-0.9
					c1.5-0.6,2.5-1.5,3.1-2.5c0.5-1.1,0.8-2.5,0.9-4.3v-2.7H32.8z M35.4,133.3h-1v-6.8h-3.9v6.8h-1v-7.7h6L35.4,133.3L35.4,133.3z
					 M33.7,137.6c-0.8,0-1.1-0.4-1.1-1.2v-3.1h1v2.9c0,0.3,0.2,0.5,0.5,0.5H35c0.2,0,0.4-0.1,0.4-0.2c0.1-0.2,0.2-0.7,0.2-1.6
					l0.9,0.3c-0.1,1.1-0.2,1.9-0.5,2.1c-0.2,0.2-0.5,0.3-1,0.3H33.7z"/>
				<path class="st6" d="M41.5,125v1.7h1.9v1h-1.9v1.6h2.1v1h-5.9v-1h0.8v-3.1h1v3.1h1.1V125H41.5z M39.7,131.7
					c-0.3,1.3-0.8,2.3-1.3,3l-0.7-0.6c0.5-0.7,0.9-1.6,1.1-2.7L39.7,131.7z M43.7,131.5c-0.6,3.1-2.4,5.2-5.4,6.2l-0.6-0.9
					c2.8-0.9,4.5-2.7,5.1-5.4L43.7,131.5z M41.4,130.7v3.7h-1v-3.7H41.4z M47.5,129.8v2.5c0,1.5-0.4,2.7-0.9,3.6
					c-0.6,0.8-1.5,1.5-2.8,1.9l-0.6-0.9c1.2-0.4,2.1-1,2.6-1.7c0.5-0.8,0.7-1.7,0.7-2.9v-2.5L47.5,129.8L47.5,129.8z M50.3,125.5v1
					h-2.8c0,0.5-0.1,1-0.2,1.5h2.5v6.7h-1V129h-3.6v5.7h-1V128h2.1c0.1-0.5,0.1-1,0.2-1.5h-2.7v-1H50.3z M50.5,137.1l-0.7,0.7
					c-0.6-0.8-1.4-1.6-2.4-2.5l0.7-0.6C49,135.5,49.8,136.3,50.5,137.1z"/>
				<path class="st6" d="M52.2,133.5l-0.6-0.7c0.9-0.8,1.6-1.9,2.1-3.2l0.8,0.2c-0.1,0.4-0.3,0.7-0.5,1h1.9c-0.1-0.4-0.3-0.7-0.4-1
					l1-0.2c0.1,0.3,0.3,0.7,0.4,1.1h2.3v0.8h-2.4v1h2v0.7h-2v1h2v0.7h-2v1H59v0.6c0.6-0.5,1.2-1.1,1.7-1.8c-0.2-0.6-0.4-1.4-0.6-2.2
					c-0.2-0.9-0.3-2.1-0.4-3.3h-7.9v-0.9h3.5V127h-2.8v-0.9h2.8V125h1v1.1h2.5v0.9h-2.5v1.3h3.3c-0.1-1-0.1-2.1-0.1-3.3h1
					c0,1.2,0,2.4,0.1,3.3h3.6v0.9h-3.6c0.1,1.3,0.2,2.3,0.3,3.1c0.1,0.5,0.2,1,0.3,1.4c0.5-1.1,0.9-2.3,1.2-3.8l0.9,0.4
					c-0.4,1.9-1,3.4-1.7,4.7c0.1,0.2,0.2,0.4,0.3,0.6c0.4,0.7,0.6,1,0.8,1s0.4-0.7,0.6-2.1l0.9,0.5c-0.3,1.8-0.7,2.8-1.3,2.8
					c-0.5,0-1-0.4-1.5-1.3c-0.1-0.2-0.2-0.4-0.3-0.6c-0.6,0.8-1.2,1.4-2,1.8l-0.5-0.8l0.1-0.1h-4.8v0.7H53v-5
					C52.8,132.8,52.5,133.2,52.2,133.5z M55.9,131.6h-2v1h2V131.6z M55.9,133.3h-2v1h2V133.3z M55.9,136v-1h-2v1H55.9z M63.4,127.2
					l-0.7,0.5c-0.4-0.6-0.9-1.3-1.5-2.1l0.7-0.5C62.6,126,63.1,126.6,63.4,127.2z"/>
				<path class="st6" d="M77.7,137.8h-1v-0.6h-9.5v0.6h-1v-12.2h11.4L77.7,137.8L77.7,137.8z M76.7,136.3v-9.9h-9.5v9.9H76.7z
					 M71.6,126.9c-0.1,0.3-0.2,0.5-0.4,0.8h3.7v0.7c-0.4,0.7-1,1.4-1.8,2c0.9,0.4,2,0.8,3.2,1.1l-0.5,0.8c-1.4-0.4-2.5-0.8-3.5-1.4
					c-1.1,0.6-2.4,1-4,1.4l-0.4-0.8c1.4-0.3,2.7-0.6,3.6-1.1c-0.5-0.4-1-0.8-1.4-1.2c-0.4,0.4-0.9,0.8-1.4,1.1l-0.6-0.7
					c1.3-0.8,2.1-1.7,2.6-2.7L71.6,126.9z M74.9,135.1l-0.3,0.8c-1.7-0.7-3.5-1.2-5.4-1.6l0.4-0.8C71.4,134,73.2,134.5,74.9,135.1z
					 M74,133l-0.5,0.7c-1-0.6-2-1-3-1.4l0.5-0.7C72.1,132.1,73.1,132.5,74,133z M73.9,128.4h-3.2c-0.1,0.1-0.1,0.1-0.1,0.2
					c0.5,0.5,1.1,0.9,1.7,1.3C73,129.5,73.5,129,73.9,128.4z"/>
			</g>
		</g>
	</g>
</g>
<g>
	<g>
		<rect x="133" y="117" class="st2" width="93" height="50"/>
		<g>
			<rect x="131.5" y="115.5" class="st3" width="92" height="49"/>
			<path class="st4" d="M223,116v48h-91v-48H223 M224,115h-93v50h93V115L224,115z"/>
		</g>
	</g>
	<g>
		<g transform="translate(20 9)">
			<g class="st5">
				<path class="st6" d="M132.7,126.4c1.6,0,2.8,0.4,3.6,1.4c0.7,0.8,1.1,2.1,1.1,3.6s-0.4,2.8-1.2,3.6c-0.8,0.9-2,1.4-3.6,1.4h-3.5
					v-10C129.1,126.4,132.7,126.4,132.7,126.4z M130.3,135.4h2.1c1.3,0,2.3-0.4,2.9-1c0.6-0.7,0.9-1.7,0.9-3s-0.3-2.3-0.9-3
					c-0.6-0.7-1.6-1-2.9-1h-2.3v8H130.3z"/>
				<path class="st6" d="M143.4,126.4c1,0,1.8,0.2,2.4,0.7c0.6,0.5,0.9,1.2,0.9,2.1c0,0.6-0.2,1.1-0.5,1.5s-0.8,0.7-1.4,0.9l0,0
					c1,0.2,1.5,0.8,1.6,1.8l0.2,1.5c0.1,0.6,0.2,1.1,0.5,1.5h-1.2c-0.2-0.3-0.4-0.8-0.4-1.3l-0.1-1.3c-0.1-0.6-0.3-1-0.6-1.3
					s-0.8-0.4-1.4-0.4h-3v4.3H139v-10C139,126.4,143.4,126.4,143.4,126.4z M140.2,131.1h3c0.7,0,1.3-0.2,1.7-0.5s0.5-0.8,0.5-1.4
					c0-0.6-0.2-1.1-0.5-1.4c-0.4-0.3-0.9-0.5-1.7-0.5h-3V131.1z"/>
				<path class="st6" d="M149.9,126.4l3.7,8.5l0,0l3.7-8.5h1.4v10h-1.1v-8l0,0l-3.5,8h-1l-3.5-8l0,0v8h-1.1v-10
					C148.5,126.4,149.9,126.4,149.9,126.4z"/>
				<path class="st6" d="M163.9,125v2.8h2.9c0,4.4-0.1,7.1-0.2,8.1c-0.1,1.1-0.8,1.7-2.1,1.7c-0.2,0-0.6,0-1.1-0.1l-0.3-0.9
					c0.4,0,0.8,0.1,1.2,0.1c0.7,0,1.1-0.4,1.2-1.2c0.1-0.7,0.1-3,0.2-6.7h-1.9c-0.1,4.1-1,7.1-2.8,9l-0.7-0.7
					c1.6-1.8,2.5-4.6,2.5-8.4h-2.2v-1h2.2V125H163.9z M172.6,137.6h-1v-0.9H169v0.9h-1V127h4.6V137.6z M171.6,135.7V128H169v7.7
					H171.6z"/>
				<path class="st6" d="M184.5,128.2c-1.3,1.6-3,2.9-5,3.9c0.1,0.1,0.2,0.1,0.4,0.1h2.7c0.3,0,0.6-0.1,0.7-0.2
					c0.2-0.2,0.3-0.7,0.4-1.5l1,0.3c-0.1,1.1-0.3,1.8-0.6,2s-0.7,0.3-1.2,0.3h-3.2c-0.5,0-0.9-0.2-1.1-0.5c-1.1,0.5-2.3,0.9-3.6,1.3
					l-0.4-0.9c1.4-0.4,2.7-0.8,3.8-1.3v-2.8h1v2.4c1.8-1,3.3-2.2,4.5-3.6L184.5,128.2z M186.7,129h-1v-2H176v1.9h-1V126h5.4
					c-0.2-0.4-0.3-0.7-0.5-1l1.1-0.2c0.2,0.3,0.3,0.8,0.4,1.2h5.3V129z M177.8,128.5c-0.4,1.3-1,2.4-1.8,3.3l-0.8-0.5
					c0.8-0.9,1.4-1.9,1.7-3L177.8,128.5z M181.4,133.5v2.7h3.5v-2.4h1v4h-1v-0.6H177v0.6h-1V134h1v2.3h3.4v-2.7h1V133.5z M181.7,129
					l-0.7,0.5c-0.4-0.5-0.9-1.1-1.5-1.7l0.7-0.5C180.8,127.9,181.3,128.5,181.7,129z M187.2,131.9l-0.8,0.6
					c-0.6-0.9-1.3-1.9-2.1-2.9l0.7-0.5C185.9,130.1,186.7,131.1,187.2,131.9z"/>
			</g>
		</g>
	</g>
</g>
<g>
	<g>
		<rect x="26" y="181" class="st2" width="93" height="50"/>
		<g>
			<rect x="24.5" y="179.5" class="st3" width="92" height="49"/>
			<path class="st4" d="M116,180v48H25v-48H116 M117,179H24v50h93V179L117,179z"/>
		</g>
	</g>
	<g>
		<g transform="translate(20 9)">
			<g class="st5">
				<path class="st6" d="M26.9,201.7h-1v-7.1c-0.5,1.4-1.1,2.7-1.8,3.9l-0.4-1.1c1-1.4,1.8-2.9,2.2-4.7h-2v-1h2V189h1v2.7h1.7v1
					h-1.7v0.9c0.6,0.7,1.2,1.5,1.9,2.3l-0.6,0.9c-0.5-0.8-0.9-1.5-1.3-2.1C26.9,194.7,26.9,201.7,26.9,201.7z M28.2,190.5v-1h6.6
					v0.6c-0.3,1.2-0.5,2.3-0.8,3.2h1.8v0.6c-0.3,1.9-0.9,3.5-1.9,4.9c0.7,0.8,1.6,1.5,2.6,2.1l-0.6,0.9c-1-0.6-1.8-1.4-2.6-2.2
					c-0.8,0.9-1.9,1.6-3.1,2.2l-0.6-0.9c1.2-0.6,2.2-1.3,2.9-2.1c-0.8-1.1-1.5-2.4-1.9-3.8c-0.4,2.9-1.2,5.2-2.5,6.7l-0.8-0.7
					c1.6-1.9,2.4-5,2.4-9.2v-1.4L28.2,190.5L28.2,190.5z M34.8,194.3h-2c0.3-0.9,0.6-2.1,1-3.8h-2.9v1.4c0,0.2,0,0.4,0,0.6
					c0.3,2.2,1.1,4,2.4,5.6C33.9,196.9,34.5,195.7,34.8,194.3z"/>
				<path class="st6" d="M44.4,201.5c-0.9,0-1.6-0.1-2.2-0.3c-0.6-0.2-1.1-0.5-1.5-1c-0.2-0.2-0.4-0.3-0.5-0.3
					c-0.3,0-0.9,0.6-1.6,1.9l-0.8-0.7c0.7-1.2,1.4-1.9,1.9-2.1v-4.3h-2v-0.9h2.9v5.2c0.1,0.1,0.2,0.2,0.4,0.3
					c0.3,0.4,0.7,0.7,1.1,0.9c0.4,0.2,1.1,0.3,1.9,0.3c0.7,0,1.7,0,2.8,0c0.7,0,1.3,0,2,0s1.2,0,1.6-0.1l-0.3,1h-3.2
					C46.2,201.5,45.3,201.5,44.4,201.5z M41.2,191.4l-0.7,0.7c-0.6-0.7-1.4-1.4-2.4-2.2l0.7-0.7C39.7,189.9,40.5,190.6,41.2,191.4z
					 M45.5,190.1V189h0.9v1.1H50v0.9h-3.5v1.2h3.1v3.6h-3.1v4.3h-0.9v-3.9c-0.7,1.2-1.8,2.3-3.3,3.2l-0.6-0.8
					c1.5-0.8,2.6-1.7,3.3-2.8h-2.4v-3.6h3.1V191H42v-0.9H45.5z M45.5,193.1h-2.1v1.8h2.1V193.1z M48.6,193.1h-2.1v1.8h2.1V193.1z
					 M50.1,198.6l-0.7,0.7c-0.6-0.8-1.4-1.6-2.5-2.5l0.7-0.6C48.6,197,49.4,197.8,50.1,198.6z"/>
				<path class="st6" d="M58.6,190.1h5.5v0.9H51.8v-0.9h5.7c-0.1-0.4-0.3-0.7-0.5-1.1l1.1-0.2C58.3,189.2,58.5,189.7,58.6,190.1z
					 M60.8,201.8l-0.2-0.9h1.1c0.6,0,0.9-0.2,0.9-0.7v-3.8h-9v5.4h-1v-6.3h11v4.9c0,0.9-0.5,1.3-1.5,1.3h-1.3V201.8z M61.9,192v2.7
					h-7.8V192H61.9z M60.9,192.7H55v1.1h5.9V192.7z M60.8,197.3v2.8h-5.5v-2.8H60.8z M59.9,198.1h-3.7v1.3h3.7V198.1z"/>
				<path class="st6" d="M68.8,194.6l-0.7,0.7c-0.5-0.6-1.3-1.3-2.3-2.1l0.7-0.7C67.4,193.2,68.2,193.9,68.8,194.6z M68.8,196.7
					c-0.6,1.7-1.2,3.4-1.9,4.9l-0.9-0.4c0.7-1.6,1.4-3.2,1.9-4.8L68.8,196.7z M69.1,190.9l-0.7,0.7c-0.5-0.6-1.2-1.2-2.1-1.8
					l0.7-0.7C67.8,189.7,68.5,190.3,69.1,190.9z M74.2,189v0.9H78v0.8h-3.7v0.9h3.2v0.8h-3.2v1h4.1v0.8h-9.2v-0.8h4.1v-1h-3.1v-0.8
					h3.1v-0.9h-3.6v-0.8h3.6V189H74.2z M71.4,201.8h-1v-6.7h6.7v5.4c0,0.8-0.4,1.1-1.1,1.1h-1.3l-0.3-0.9h1.3c0.3,0,0.4-0.2,0.4-0.5
					v-0.8h-4.7V201.8z M76.1,195.9h-4.7v1h4.7V195.9z M71.4,198.8h4.7v-1h-4.7V198.8z"/>
			</g>
		</g>
	</g>
</g>
<g>
	<g>
		<rect x="133" y="181" class="st2" width="93" height="50"/>
		<g>
			<rect x="131.5" y="179.5" class="st3" width="92" height="49"/>
			<path class="st4" d="M223,180v48h-91v-48H223 M224,179h-93v50h93V179L224,179z"/>
		</g>
	</g>
	<g>
		<g transform="translate(20 9)">
			<g class="st5">
				<path class="st6" d="M134.7,201.8h-1v-0.9h-7.4v0.9h-1v-11.2h3c0.3-0.6,0.5-1.1,0.7-1.7l1,0.1c-0.2,0.6-0.4,1.1-0.7,1.6h5.4
					L134.7,201.8L134.7,201.8z M133.7,193.7v-2.1h-7.4v2.1H133.7z M133.7,196.7v-2.1h-7.4v2.1H133.7z M133.7,199.9v-2.3h-7.4v2.3
					H133.7z"/>
				<path class="st6" d="M144.4,201.5c-0.9,0-1.6-0.1-2.2-0.3c-0.5-0.2-1-0.5-1.5-1c-0.2-0.2-0.4-0.3-0.5-0.3
					c-0.4,0-0.9,0.6-1.7,1.9l-0.8-0.7c0.8-1.2,1.4-1.9,2-2.2v-4.3h-2v-0.9h2.9v5.2c0.1,0.1,0.2,0.2,0.3,0.3c0.3,0.4,0.7,0.7,1.1,0.9
					c0.4,0.2,1.1,0.3,1.9,0.3c0.7,0,1.7,0,2.8,0c0.7,0,1.3,0,2,0s1.2,0,1.6-0.1l-0.2,0.9h-3.3C146.1,201.5,145.3,201.5,144.4,201.5z
					 M141.1,191.3l-0.7,0.7c-0.6-0.7-1.4-1.4-2.4-2.2l0.7-0.7C139.7,189.8,140.5,190.6,141.1,191.3z M145.4,192.9v-2
					c-1,0.1-2.1,0.2-3.3,0.2l-0.3-0.9c2.9,0,5.3-0.4,7.3-1.1l0.5,0.8c-0.9,0.4-2,0.7-3.2,0.9v2.1h3.7v0.9h-3.7v1.7h2.7v4.1h-6.4
					v-4.1h2.7v-1.7h-3.6v-0.9H145.4z M148.1,196.4h-4.5v2.3h4.5V196.4z"/>
				<path class="st6" d="M159.1,190.3h5.1v1h-10.4v3.1c-0.1,3.1-0.5,5.5-1.4,7.4l-0.8-0.7c0.8-1.6,1.2-3.8,1.2-6.7v-4.1h5.2
					c-0.2-0.4-0.5-0.9-0.8-1.3l1.1-0.2C158.6,189.3,158.9,189.8,159.1,190.3z M160,200.2c0.9-2,1.6-4.4,2.3-7.4l1,0.3
					c-0.6,2.7-1.3,5-2.2,7.1h3v1h-9.9v-1L160,200.2L160,200.2z M157.2,198.7l-1,0.2c-0.4-1.8-0.9-3.5-1.4-5.1l0.9-0.3
					C156.2,195,156.7,196.7,157.2,198.7z M159.7,197.8l-1,0.2c-0.3-1.8-0.7-3.6-1.2-5.3l0.9-0.3
					C158.8,194.1,159.3,195.8,159.7,197.8z"/>
				<path class="st6" d="M170.3,201.1h-0.9v-0.8h-1.5v1.1H167v-5.7c-0.3,0.5-0.6,1-0.9,1.5l-0.5-0.8c1.1-1.6,1.8-3.5,2.1-5.6H166v-1
					h4.8v1h-2.1c-0.2,1.1-0.5,2.2-0.8,3.2h2.6v7.1H170.3z M169.4,199.4v-4.6h-1.5v4.6H169.4z M176.1,197.8v1H171v-1H176.1z
					 M173.2,191.5l-0.6,3.5h3l0.7-4.6h-4.9v-1h6l-0.8,5.5h1.5c0,3.4-0.2,5.3-0.6,5.9c-0.4,0.5-1.2,0.8-2.4,0.8c-0.4,0-0.8,0-1.3,0
					l-0.3-1c0.6,0.1,1.1,0.1,1.3,0.1c1.1,0,1.7-0.2,1.9-0.7s0.3-1.8,0.3-4.1h-5.7l0.8-4.5L173.2,191.5z"/>
				<path class="st6" d="M182.7,194.5l-0.7,0.7c-0.5-0.6-1.3-1.3-2.2-2.1l0.7-0.7C181.4,193.2,182.1,193.9,182.7,194.5z
					 M182.8,196.6c-0.6,1.8-1.2,3.5-1.8,5l-0.9-0.4c0.7-1.6,1.3-3.3,1.9-5L182.8,196.6z M183,191l-0.7,0.7c-0.5-0.6-1.2-1.2-2.2-1.8
					l0.7-0.7C181.7,189.8,182.4,190.4,183,191z M185.4,195.4c-0.1,1.8-0.2,3.2-0.5,4c-0.3,0.9-0.9,1.7-1.7,2.3l-0.6-0.8
					c0.7-0.5,1.1-1.2,1.4-1.9c0.3-0.7,0.4-1.9,0.5-3.6H185.4z M183.6,194c0.1,0,0.2-0.1,0.2-0.1c0.5-0.3,1.2-1.2,2-2.6h-2.5v-0.9
					h3.9c-0.2-0.5-0.4-1-0.6-1.4l1-0.2c0.2,0.5,0.4,1,0.6,1.6h3.7v0.9h-5.1c-0.7,1.2-1.2,2-1.7,2.6c1.6-0.1,3.2-0.2,4.8-0.4
					c-0.3-0.4-0.6-0.8-1-1.2l0.8-0.5c1,1.1,1.7,2.1,2.2,3l-0.8,0.6c-0.2-0.3-0.4-0.7-0.6-1.1c-2.1,0.2-4.3,0.4-6.7,0.6L183.6,194z
					 M187.7,195.5v6.1h-1v-6.1H187.7z M190.4,201.7c-0.8,0-1.2-0.4-1.2-1.1v-5.1h1v4.9c0,0.2,0.1,0.3,0.3,0.3h0.6
					c0.3,0,0.4-0.2,0.4-0.5c0.1-0.3,0.1-0.9,0.1-1.6l0.9,0.3c0,1.2-0.1,2-0.3,2.3s-0.5,0.4-1.1,0.4h-0.7V201.7z"/>
			</g>
		</g>
	</g>
</g>
<g>
	<g>
		<defs>
			<path id="SVGID_1_" d="M40,25h-9v2l-4-4h4h9h2v11h-2V25z M30,37h9v-2l4,4h-4h-9h-2V27h2V37z M37.8,31.5l-4,2.5
				c-0.2,0.1-0.5,0.1-0.7-0.2c0-0.1-0.1-0.2-0.1-0.3v-5.1c0-0.3,0.2-0.5,0.5-0.5c0.1,0,0.2,0,0.3,0.1l4.1,2.6
				c0.2,0.1,0.3,0.5,0.2,0.7C38,31.4,37.9,31.4,37.8,31.5z"/>
		</defs>
		<clipPath id="SVGID_2_">
			<use xlink:href="#SVGID_1_"  style="overflow:visible;"/>
		</clipPath>
		<g class="st11">
			<g>
				<defs>
					<rect id="SVGID_3_" x="27" y="23" width="16" height="16"/>
				</defs>
				<clipPath id="SVGID_4_">
					<use xlink:href="#SVGID_3_"  style="overflow:visible;"/>
				</clipPath>
				<rect x="22" y="18" class="st12" width="26" height="26"/>
			</g>
		</g>
		<g class="st11">
			<g>
				<g>
					<path id="SVGID_5_" class="st10" d="M37.8,274.5l-4.1,2.5c-0.2,0.1-0.5,0.1-0.7-0.2c0-0.1-0.1-0.2-0.1-0.3v-5.1
						c0-0.3,0.2-0.5,0.5-0.5c0.1,0,0.2,0,0.3,0.1l4.1,2.6c0.2,0.1,0.3,0.5,0.2,0.7C38,274.4,37.9,274.4,37.8,274.5z M30.7,269
						c-0.3,0.6-1,1-1.7,1c-1.1,0-2-0.9-2-2s0.9-2,2-2c0.7,0,1.4,0.4,1.7,1H43v10h-2v-8H30.7z M39.3,281H27v-10h2v8h10.3
						c0.3-0.6,1-1,1.7-1c1.1,0,2,0.9,2,2s-0.9,2-2,2C40.3,282,39.6,281.6,39.3,281z"/>
				</g>
				<g>
					<defs>
						<path id="SVGID_6_" d="M37.8,274.5l-4.1,2.5c-0.2,0.1-0.5,0.1-0.7-0.2c0-0.1-0.1-0.2-0.1-0.3v-5.1c0-0.3,0.2-0.5,0.5-0.5
							c0.1,0,0.2,0,0.3,0.1l4.1,2.6c0.2,0.1,0.3,0.5,0.2,0.7C38,274.4,37.9,274.4,37.8,274.5z M30.7,269c-0.3,0.6-1,1-1.7,1
							c-1.1,0-2-0.9-2-2s0.9-2,2-2c0.7,0,1.4,0.4,1.7,1H43v10h-2v-8H30.7z M39.3,281H27v-10h2v8h10.3c0.3-0.6,1-1,1.7-1
							c1.1,0,2,0.9,2,2s-0.9,2-2,2C40.3,282,39.6,281.6,39.3,281z"/>
					</defs>
					<clipPath id="SVGID_8_">
						<use xlink:href="#SVGID_6_"  style="overflow:visible;"/>
					</clipPath>
					<g class="st13">
						<g>
							<rect id="SVGID_7_" x="27" y="266" class="st10" width="16" height="16"/>
						</g>
					</g>
				</g>
			</g>
		</g>
		<g class="st11">
			<g>
				<defs>
					<path id="SVGID_9_" d="M296.6,26v2.7h2.4l-3.6,5.3v-3.1H293L296.6,26z M301,32.8V29l2-1v3.7V34l-7,4l-7-4v-8l7-4l6.5,3.7
						l-2.1,0.9l-4.4-2.4l-5,2.9v5.7l5,2.9L301,32.8z"/>
				</defs>
				<clipPath id="SVGID_10_">
					<use xlink:href="#SVGID_9_"  style="overflow:visible;"/>
				</clipPath>
				<g class="st14">
					<g>
						<defs>
							<rect id="SVGID_11_" x="288" y="22" width="16" height="16"/>
						</defs>
						<clipPath id="SVGID_12_">
							<use xlink:href="#SVGID_11_"  style="overflow:visible;"/>
						</clipPath>
						<rect x="284" y="17" class="st15" width="24" height="26"/>
					</g>
				</g>
				<g class="st14">
					<g>
						<g>
							<polygon id="SVGID_13_" class="st0" points="451,24 451,38 465,38 465,32 463,32 463,36 453,36 453,26 457,26 457,24 							
								"/>
						</g>
						<g>
							<polygon id="SVGID_14_" class="st0" points="459,24 459,26 461.6,26 457.3,30.3 458.7,31.7 463,27.4 463,30 465,30 465,24 
															"/>
						</g>
						<g>
							<defs>
								<polygon id="SVGID_15_" points="451,24 451,38 465,38 465,32 463,32 463,36 453,36 453,26 457,26 457,24 								"/>
							</defs>
							<clipPath id="SVGID_16_">
								<use xlink:href="#SVGID_15_"  style="overflow:visible;"/>
							</clipPath>
						</g>
					</g>
				</g>
			</g>
		</g>
	</g>
</g>
</svg>
