<?xml version="1.0" encoding="utf-8"?>
<!-- Generator: Adobe Illustrator 22.0.0, SVG Export Plug-In . SVG Version: 6.00 Build 0)  -->
<svg version="1.1" id="图层_1" xmlns="http://www.w3.org/2000/svg" xmlns:xlink="http://www.w3.org/1999/xlink" x="0px" y="0px"
	 width="830px" height="708px" viewBox="0 0 830 708" style="enable-background:new 0 0 830 708;" xml:space="preserve">
<g>
	<rect x="264.8" y="195.6" style="fill:#EAEBEC;" width="565.2" height="380"/>
	<g>
		<g style="enable-background:new    ;">
			<path style="fill:#444444;" d="M281.7,223l-0.8-0.7c0.6-1.3,0.8-2.9,0.9-4.8v-6.7h4.1v10.9c0,0.8-0.4,1.3-1.2,1.3h-1.1l-0.2-0.9
				c0.4,0,0.7,0.1,1.1,0.1c0.4,0,0.5-0.3,0.5-0.8v-3.2h-2.3C282.7,220.1,282.3,221.8,281.7,223z M285,211.7h-2.3v2.4h2.3V211.7z
				 M282.8,217.3h2.3v-2.3h-2.3V217.3z M288.1,223h-1v-12.3h5.7c0,1.7-0.1,2.9-0.3,3.4c-0.2,0.6-0.7,0.9-1.6,0.9h-1.1l-0.3-0.9
				c0.2,0,0.5,0,0.9,0c0.3,0,0.6,0,0.7-0.1c0.2-0.1,0.3-0.2,0.4-0.4c0.1-0.3,0.2-1,0.2-2.1h-3.7v4.2h4.8v0.9
				c-0.3,1.4-0.7,2.7-1.4,3.7c0.6,0.6,1.4,1.2,2.2,1.7l-0.5,0.9c-0.9-0.5-1.7-1.1-2.3-1.7c-0.6,0.7-1.3,1.3-2.2,1.7l-0.5-0.8
				c0.8-0.4,1.5-1,2-1.7c-0.9-1.1-1.5-2.3-1.8-3.7h-0.3V223z M290.8,219.7c0.5-0.8,0.9-1.8,1.1-2.9h-2.7
				C289.6,217.9,290.1,218.8,290.8,219.7z"/>
			<path style="fill:#444444;" d="M300,210.2c-0.2,0.4-0.3,0.7-0.5,1.1h6.1v0.8c-0.9,1-2,1.9-3.3,2.6c1.6,0.7,3.3,1.1,5.3,1.3
				l-0.5,0.9c-2.2-0.3-4.2-0.8-5.9-1.7c-1.7,0.8-3.7,1.4-6,1.7l-0.5-1c2-0.3,3.8-0.7,5.4-1.3c-0.8-0.5-1.5-1-2.2-1.6
				c-0.5,0.5-1.1,0.9-1.8,1.3l-0.6-0.8c1.7-1,2.8-2.1,3.4-3.5L300,210.2z M301.4,216.3c0,0.6-0.1,1.1-0.1,1.6h4.9
				c0,2.4-0.2,3.8-0.6,4.2c-0.4,0.5-1.1,0.7-2.1,0.7c-0.4,0-1,0-1.6-0.1l-0.3-0.9l1.7,0.1c0.8,0,1.4-0.2,1.6-0.5
				c0.2-0.3,0.3-1.2,0.4-2.6H301c-0.1,0.4-0.3,0.7-0.4,1c-0.7,1.3-2.4,2.3-4.9,3.1l-0.7-0.8c2.3-0.7,3.8-1.5,4.6-2.5
				c0.2-0.3,0.3-0.5,0.4-0.8h-4.2v-0.9h4.5c0.1-0.5,0.2-1,0.2-1.6H301.4z M304.2,212.3h-5.4l-0.2,0.2c0.8,0.7,1.7,1.3,2.6,1.8
				C302.4,213.7,303.4,213,304.2,212.3z"/>
			<path style="fill:#444444;" d="M312,215.7l-0.7,0.7c-0.6-0.7-1.4-1.4-2.4-2.1l0.7-0.7C310.6,214.3,311.4,215,312,215.7z
				 M312.4,217.9c-0.7,1.8-1.4,3.4-2.2,4.9l-1-0.4c0.9-1.6,1.7-3.2,2.3-4.9L312.4,217.9z M312.7,212.5l-0.7,0.7
				c-0.6-0.7-1.5-1.4-2.6-2.1l0.7-0.7C311.1,211.1,312,211.8,312.7,212.5z M321.4,215.8l-0.9,0.5c-0.2-0.4-0.4-0.8-0.6-1.1
				c-2.1,0.3-4.4,0.5-7,0.6l-0.2-0.9c0.9-0.4,2-2,3.4-4.7l1,0.3c-1,1.8-1.9,3.3-2.9,4.4c1.8-0.1,3.5-0.3,5.1-0.5
				c-0.4-0.8-0.9-1.5-1.4-2.1l0.9-0.4C319.8,213,320.7,214.3,321.4,215.8z M320.4,223h-1v-0.8h-4.9v0.8h-1V217h6.8V223z
				 M319.4,221.2V218h-4.9v3.2H319.4z"/>
			<path style="fill:#444444;" d="M324.6,215.3V212h-1.7v-1h4.5v1h-1.7v3.3h1.5v1h-1.5v3.2c0.5-0.2,1-0.4,1.5-0.6v1
				c-1.3,0.5-2.7,1-4.2,1.3l-0.3-1c0.6-0.1,1.2-0.3,1.8-0.4v-3.5h-1.5v-1H324.6z M334.9,210.7v6.5H332v1.7h3.2v1H332v1.8h3.7v1h-8.4
				v-1h3.8v-1.8h-3.2v-1h3.2v-1.7H328v-6.5H334.9z M331,213.5v-1.9h-2v1.9H331z M331,214.4h-2v1.9h2V214.4z M332,213.5h1.9v-1.9H332
				V213.5z M333.9,214.4H332v1.9h1.9V214.4z"/>
		</g>
	</g>
</g>
<g>
	<g>
		<polyline style="fill:none;stroke:#BABABA;stroke-miterlimit:10;" points="768,415.6 768,418.6 765,418.6 		"/>
		
			<line style="fill:none;stroke:#BABABA;stroke-miterlimit:10;stroke-dasharray:6.0704,6.0704;" x1="758.9" y1="418.6" x2="337" y2="418.6"/>
		<polyline style="fill:none;stroke:#BABABA;stroke-miterlimit:10;" points="334,418.6 331,418.6 331,415.6 		"/>
		
			<line style="fill:none;stroke:#BABABA;stroke-miterlimit:10;stroke-dasharray:6.1247,6.1247;" x1="331" y1="409.5" x2="331" y2="326.8"/>
		<polyline style="fill:none;stroke:#BABABA;stroke-miterlimit:10;" points="331,323.8 331,320.8 334,320.8 		"/>
		
			<line style="fill:none;stroke:#BABABA;stroke-miterlimit:10;stroke-dasharray:6.0704,6.0704;" x1="340.1" y1="320.8" x2="762" y2="320.8"/>
		<polyline style="fill:none;stroke:#BABABA;stroke-miterlimit:10;" points="765,320.8 768,320.8 768,323.8 		"/>
		
			<line style="fill:none;stroke:#BABABA;stroke-miterlimit:10;stroke-dasharray:6.1247,6.1247;" x1="768" y1="329.9" x2="768" y2="412.6"/>
	</g>
</g>
<rect y="603.6" style="fill:#EAEBEC;" width="830" height="100"/>
<g>
	<polygon style="fill:#878787;" points="157.3,218.1 152.3,222.6 157.3,227.1 	"/>
	<polygon style="fill:#878787;" points="246,218.1 251,222.6 246,227.1 	"/>
	<rect x="157.3" y="222.1" style="fill:#878787;" width="88.7" height="1"/>
</g>
<g>
	<polygon style="fill:#878787;" points="414.5,64.7 410,59.7 405.5,64.7 	"/>
	<polygon style="fill:#878787;" points="414.5,90.4 410,95.4 405.5,90.4 	"/>
	<rect x="409.5" y="64.7" style="fill:#878787;" width="1" height="25.7"/>
</g>
<g>
	<polygon style="fill:#878787;" points="695.1,64.7 690.6,59.7 686.1,64.7 	"/>
	<polygon style="fill:#878787;" points="695.1,90.4 690.6,95.4 686.1,90.4 	"/>
	<rect x="690.1" y="64.7" style="fill:#878787;" width="1" height="25.7"/>
</g>
<g>
	<polygon style="fill:#878787;" points="551.5,206 547,211 542.5,206 	"/>
	<rect x="546.5" y="155" style="fill:#878787;" width="1" height="51"/>
</g>
<g>
	<polygon style="fill:#878787;" points="541.8,282.8 546.3,277.8 550.8,282.8 	"/>
	<rect x="545.8" y="282.8" style="fill:#878787;" width="1" height="21"/>
	<rect x="434.5" y="303.3" style="fill:#878787;" width="1" height="32.3"/>
	<rect x="657.5" y="303.3" style="fill:#878787;" width="1" height="32.3"/>
	<rect x="434.8" y="303.3" style="fill:#878787;" width="223.1" height="1"/>
</g>
<g>
	<polygon style="fill:#878787;" points="157.3,298.1 152.3,302.6 157.3,307.1 	"/>
	<polygon style="fill:#878787;" points="246,298.1 251,302.6 246,307.1 	"/>
	<rect x="157.3" y="302.1" style="fill:#878787;" width="88.7" height="1"/>
</g>
<g>
	<polygon style="fill:#878787;" points="157.3,380.1 152.3,384.6 157.3,389.1 	"/>
	<polygon style="fill:#878787;" points="246,380.1 251,384.6 246,389.1 	"/>
	<rect x="157.3" y="384.1" style="fill:#878787;" width="88.7" height="1"/>
</g>
<g>
	<polygon style="fill:#878787;" points="600.4,367.8 605.4,372.3 600.4,376.8 	"/>
	<rect x="495.7" y="371.8" style="fill:#878787;" width="104.7" height="1"/>
</g>
<g>
	<polygon style="fill:#878787;" points="415.5,299.6 411,304.6 406.5,299.6 	"/>
	<rect x="410.5" y="156" style="fill:#878787;" width="1" height="143.6"/>
</g>
<g>
	<polygon style="fill:#878787;" points="695.6,299.6 691.1,304.6 686.6,299.6 	"/>
	<rect x="690.6" y="156" style="fill:#878787;" width="1" height="143.6"/>
</g>
<g>
	<polygon style="fill:#878787;" points="157.3,464.1 152.3,468.6 157.3,473.1 	"/>
	<polygon style="fill:#878787;" points="246,464.1 251,468.6 246,473.1 	"/>
	<rect x="157.3" y="468.1" style="fill:#878787;" width="88.7" height="1"/>
</g>
<g>
	<polygon style="fill:#878787;" points="157.3,546.1 152.3,550.6 157.3,555.1 	"/>
	<polygon style="fill:#878787;" points="246,546.1 251,550.6 246,555.1 	"/>
	<rect x="157.3" y="550.1" style="fill:#878787;" width="88.7" height="1"/>
</g>
<g>
	<g>
		<rect x="266.8" y="106" style="opacity:0.6;fill:#BBBBBB;enable-background:new    ;" width="563.2" height="50"/>
		<rect x="264.8" y="104" style="fill:#FFFFFF;stroke:#E5E5E5;" width="563.2" height="50"/>
	</g>
	<g>
		<g>
			<g>
				<path style="fill:#00A4FF;" d="M503.4,142c-7.2,0-13-5.8-13-13c0-7.2,5.8-13,13-13c6.4,0,11.9,4.7,12.9,11h2
					c-1.1-8.2-8.7-14-16.9-12.9c-8.2,1.1-14,8.7-12.9,16.9c1.1,8.2,8.7,14,16.9,12.9c6.7-0.9,12-6.2,12.9-12.9h-2
					C515.2,137.3,509.8,142,503.4,142z"/>
				<rect x="495.4" y="124" style="fill:#00A4FF;" width="16" height="2"/>
				<rect x="495.4" y="135" style="fill:#00A4FF;" width="16" height="2"/>
				<rect x="495.4" y="124" style="fill:#00A4FF;" width="2" height="3"/>
				<rect x="495.4" y="134" style="fill:#00A4FF;" width="2" height="3"/>
				<rect x="509.4" y="134" style="fill:#00A4FF;" width="2" height="3"/>
				<rect x="509.4" y="124" style="fill:#00A4FF;" width="2" height="3"/>
				<rect x="498.4" y="120" style="fill:#00A4FF;" width="2" height="4"/>
				<rect x="506.4" y="120" style="fill:#00A4FF;" width="2" height="4"/>
				<rect x="496.4" y="128" style="fill:#00A4FF;" width="2" height="5"/>
				<rect x="499.4" y="128" style="fill:#00A4FF;" width="2" height="5"/>
				<rect x="497.4" y="128" style="fill:#00A4FF;" width="3" height="1"/>
				<rect x="497.4" y="130" style="fill:#00A4FF;" width="3" height="1"/>
				<rect x="503.4" y="128" style="fill:#00A4FF;" width="4" height="1"/>
				<rect x="502.4" y="130" style="fill:#00A4FF;" width="4" height="1"/>
				<rect x="502.4" y="128" style="fill:#00A4FF;" width="2" height="5"/>
				<rect x="505.4" y="128" style="fill:#00A4FF;" width="2" height="3"/>
				<rect x="508.4" y="128" style="fill:#00A4FF;" width="2" height="5"/>
			</g>
		</g>
		<g style="enable-background:new    ;">
			<path style="fill:#444444;" d="M534.7,124l3.9,10h-1.2l-1.1-2.8h-4.6l-1.1,2.8h-1.2l3.9-10H534.7z M535.9,130.2l-1.9-5H534
				l-1.9,5H535.9z"/>
			<path style="fill:#444444;" d="M543.7,124c2.3,0,3.4,1,3.4,2.9c0,2-1.2,3-3.5,3h-2.9v4.1h-1.1v-10H543.7z M540.7,128.9h2.9
				c0.8,0,1.4-0.2,1.8-0.5c0.4-0.3,0.6-0.8,0.6-1.5c0-0.7-0.2-1.2-0.6-1.5c-0.4-0.3-1-0.5-1.8-0.5h-2.9V128.9z"/>
			<path style="fill:#444444;" d="M549.8,124v10h-1.1v-10H549.8z"/>
			<path style="fill:#444444;" d="M563.8,124.7c0.7,0.6,1.1,1.4,1.3,2.5H564c-0.2-0.8-0.5-1.3-1-1.7c-0.5-0.4-1.3-0.6-2.1-0.6
				c-1.1,0-1.9,0.4-2.6,1.1c-0.6,0.8-1,1.8-1,3.1c0,1.3,0.3,2.3,0.9,3c0.7,0.8,1.6,1.2,2.9,1.2c0.5,0,1.1-0.1,1.6-0.2
				c0.5-0.1,0.9-0.3,1.3-0.6v-2.5h-3.1v-1h4.3v4.1c-0.5,0.4-1.1,0.7-1.8,0.9c-0.7,0.2-1.5,0.3-2.3,0.3c-1.6,0-2.8-0.5-3.7-1.5
				c-0.8-0.9-1.2-2.2-1.2-3.6c0-1.5,0.4-2.7,1.2-3.7c0.9-1.1,2-1.6,3.5-1.6C562.1,123.8,563.1,124.1,563.8,124.7z"/>
			<path style="fill:#444444;" d="M572.3,127.4c0.4,0.5,0.6,1.1,0.6,2v4.7h-1.1v-1.2c-0.3,0.4-0.7,0.7-1.1,1
				c-0.5,0.3-1.1,0.4-1.8,0.4c-0.7,0-1.3-0.2-1.7-0.5c-0.4-0.4-0.7-0.9-0.7-1.5c0-0.8,0.3-1.4,1-1.9c0.6-0.4,1.4-0.6,2.5-0.6l1.7,0
				v-0.4c0-1.2-0.6-1.8-1.9-1.8c-0.5,0-1,0.1-1.3,0.3c-0.4,0.2-0.6,0.6-0.7,1l-1.1-0.1c0.2-0.8,0.5-1.3,1.1-1.7
				c0.5-0.3,1.2-0.5,2.1-0.5C571.1,126.6,571.8,126.8,572.3,127.4z M570.2,130.6c-1.6,0-2.4,0.6-2.4,1.6c0,0.3,0.1,0.6,0.4,0.8
				c0.3,0.2,0.6,0.3,1.1,0.3c0.7,0,1.3-0.2,1.8-0.7c0.5-0.4,0.8-0.9,0.8-1.5v-0.6L570.2,130.6z"/>
			<path style="fill:#444444;" d="M576.7,126.8h1.8v0.9h-1.8v4.6c0,0.3,0,0.5,0.2,0.6c0.1,0.1,0.3,0.2,0.5,0.2h0.9v0.9h-1.1
				c-0.6,0-1-0.2-1.3-0.5c-0.2-0.3-0.3-0.7-0.3-1.2v-4.6h-1.5v-0.9h1.5v-1.9l1.1-0.5V126.8z"/>
			<path style="fill:#444444;" d="M585.3,127.7c0.5,0.7,0.8,1.7,0.8,3h-5.7c0.1,0.8,0.3,1.4,0.7,1.9s0.9,0.7,1.6,0.7
				c0.6,0,1.1-0.2,1.4-0.4c0.3-0.3,0.5-0.6,0.7-1.1h1.1c-0.2,0.7-0.5,1.3-1,1.7c-0.6,0.5-1.4,0.8-2.3,0.8c-1,0-1.9-0.4-2.5-1
				c-0.6-0.7-1-1.6-1-2.8c0-1.1,0.3-2,0.9-2.7c0.6-0.8,1.4-1.1,2.5-1.1C583.8,126.6,584.7,127,585.3,127.7z M581.1,128.1
				c-0.4,0.4-0.6,1-0.7,1.7h4.5c-0.1-1.6-0.9-2.3-2.3-2.3C582.1,127.5,581.5,127.7,581.1,128.1z"/>
			<path style="fill:#444444;" d="M587.9,126.8l1.8,5.9l1.7-5.9h1l1.7,5.9l1.8-5.9h1.2l-2.5,7.2h-1.1l-1.7-5.8l-1.7,5.8h-1.1
				l-2.5-7.2H587.9z"/>
			<path style="fill:#444444;" d="M603.5,127.4c0.4,0.5,0.6,1.1,0.6,2v4.7h-1.1v-1.2c-0.3,0.4-0.7,0.7-1.1,1
				c-0.5,0.3-1.1,0.4-1.8,0.4c-0.7,0-1.3-0.2-1.7-0.5c-0.4-0.4-0.7-0.9-0.7-1.5c0-0.8,0.3-1.4,1-1.9c0.6-0.4,1.4-0.6,2.5-0.6l1.7,0
				v-0.4c0-1.2-0.6-1.8-1.9-1.8c-0.5,0-1,0.1-1.3,0.3c-0.4,0.2-0.6,0.6-0.7,1l-1.1-0.1c0.2-0.8,0.5-1.3,1.1-1.7
				c0.5-0.3,1.2-0.5,2.1-0.5C602.2,126.6,603,126.8,603.5,127.4z M601.3,130.6c-1.6,0-2.4,0.6-2.4,1.6c0,0.3,0.1,0.6,0.4,0.8
				c0.3,0.2,0.6,0.3,1.1,0.3c0.7,0,1.3-0.2,1.8-0.7c0.5-0.4,0.8-0.9,0.8-1.5v-0.6L601.3,130.6z"/>
			<path style="fill:#444444;" d="M606.3,126.8l2.2,5.7l2.1-5.7h1.2l-4,10h-1.2l1.2-2.9l-2.9-7.1H606.3z"/>
		</g>
	</g>
</g>
<g>
	<g>
		<rect x="18.9" y="197.6" style="opacity:0.6;fill:#BBBBBB;enable-background:new    ;" width="118" height="50"/>
		<rect x="16.9" y="195.6" style="fill:#FFFFFF;stroke:#E5E5E5;" width="118" height="50"/>
	</g>
	<g style="enable-background:new    ;">
		<path style="fill:#444444;" d="M56.3,214.6c1.8,1.8,3.8,3.3,6.1,4.4l-0.5,0.9c-2.3-1.1-4.3-2.6-6-4.3c-1.5,1.7-3.5,3.2-6,4.4
			l-0.5-0.9c2.5-1.2,4.5-2.7,6.1-4.4H56.3z M59.8,219.1v1h-3.4v2.4h4v1h-4v2.6h5.3v1H50.1v-1h5.3v-2.6h-4.1v-1h4.1V220H52v-1H59.8z"
			/>
		<path style="fill:#444444;" d="M65.9,214.8c-0.1,0.5-0.2,0.9-0.3,1.4h2.1v1h-2.4c-0.3,1-0.7,1.8-1.1,2.6l-0.8-0.5
			c0.7-1.4,1.2-3,1.5-4.7L65.9,214.8z M67.5,219v0.9h-1.1v1.8h1.5v0.9h-1.5v3.3c0.4-0.2,0.8-0.5,1.2-0.8l0.2,0.9
			c-0.7,0.5-1.4,0.9-2.3,1.2l-0.4-0.8c0.2-0.1,0.3-0.3,0.3-0.4v-3.2h-1.6v-0.9h1.6v-1.8h-0.7V219H67.5z M76.3,226.3l-0.3,1h-1.9
			c-0.4,0-0.9,0-1.3,0c-0.6,0-1.2-0.1-1.7-0.3c-0.5-0.2-0.9-0.5-1.2-0.9c-0.2-0.2-0.3-0.3-0.5-0.3c-0.2,0-0.7,0.5-1.3,1.7l-0.6-0.8
			c0.6-0.9,1.1-1.5,1.5-1.7v-4.7h-1.1v-0.9H70v5.7c0.1,0.1,0.1,0.1,0.2,0.2c0.3,0.4,0.6,0.6,1.1,0.9c0.4,0.2,0.9,0.3,1.4,0.3
			c0.5,0,1.1,0,1.6,0C75,226.3,75.7,226.3,76.3,226.3z M70.2,217.1l-0.8,0.5c-0.4-0.7-0.9-1.5-1.5-2.3l0.7-0.5
			C69.3,215.7,69.9,216.5,70.2,217.1z M73.3,222.5v-1.7H71l-0.2-0.8c0.5-0.8,0.9-1.7,1.3-2.9h-1.4v-0.9h1.7c0.1-0.5,0.3-1,0.4-1.6
			l0.9,0.2c-0.1,0.5-0.2,0.9-0.4,1.4H76v0.9h-3c-0.4,1.1-0.8,2-1.2,2.8h1.4V218h0.9v1.9h1.6v0.9h-1.6v1.7h2v0.9h-2v2.3h-0.9v-2.3
			h-2.6v-0.9H73.3z"/>
		<path style="fill:#444444;" d="M82.4,215.2v4.3h-1.3v2.2h1.5v0.9h-1.5v2.6c0.6-0.2,1.1-0.3,1.6-0.5v1c-1.4,0.5-3.1,1-4.9,1.4
			l-0.3-1l0.6-0.1v-5.1H79v4.8c0.4-0.1,0.7-0.2,1.1-0.3v-6h-2.1v-4.3H82.4z M81.4,216.1H79v2.5h2.4V216.1z M90.1,222.4
			c-0.6,0.8-1.3,1.3-2,1.7c0.6,0.9,1.4,1.6,2.4,2.2l-0.6,0.9c-2.2-1.5-3.5-3.5-4-6.2h-1.4v4.8c0.8-0.2,1.6-0.5,2.4-0.9l0.3,0.9
			c-1,0.4-2.2,0.8-3.7,1.2l-0.2-0.9c0.2-0.1,0.3-0.2,0.3-0.4v-10.7h5.8v5.9h-2.5c0.2,0.9,0.4,1.7,0.8,2.4c0.6-0.4,1.2-0.9,1.8-1.6
			L90.1,222.4z M88.3,216.1h-3.8v1.6h3.8V216.1z M84.4,220.2h3.8v-1.6h-3.8V220.2z"/>
		<path style="fill:#444444;" d="M96.1,215.2v4.4h-1.2v2.2h1.4v1h-1.4v2.5c0.4-0.2,0.9-0.3,1.3-0.5v1c-1.3,0.5-2.8,1-4.6,1.5l-0.3-1
			c0.2-0.1,0.5-0.1,0.7-0.2V221h0.9v4.8l1-0.3v-5.9H92v-4.4H96.1z M95.1,216.1H93v2.5h2.2V216.1z M98.7,223.1
			c-0.4,1.5-0.9,2.8-1.6,3.9l-0.9-0.5c0.7-1.1,1.2-2.2,1.5-3.5L98.7,223.1z M104,218.8h-1V217h-5.3v1.8h-1v-2.7h3
			c-0.2-0.5-0.4-1-0.6-1.4l1-0.2c0.2,0.5,0.4,1,0.5,1.6h3.2V218.8z M98.7,227.2l-0.2-1c0.4,0,0.7,0.1,1.1,0.1c0.3,0,0.5-0.2,0.5-0.7
			v-3.7h-3.2v-1h7.1v1h-2.9v4c0,0.9-0.4,1.3-1.2,1.3H98.7z M102.9,218.5v0.9h-5v-0.9H102.9z M104.4,226.2l-0.9,0.4
			c-0.4-1.3-0.9-2.5-1.5-3.6l0.9-0.3C103.4,223.8,103.9,225,104.4,226.2z"/>
	</g>
</g>
<g>
	<g>
		<rect x="18.9" y="279.6" style="opacity:0.6;fill:#BBBBBB;enable-background:new    ;" width="118" height="50"/>
		<rect x="16.9" y="277.6" style="fill:#FFFFFF;stroke:#E5E5E5;" width="118" height="50"/>
	</g>
	<g style="enable-background:new    ;">
		<path style="fill:#444444;" d="M36.1,303.4l-0.6-0.8c1.3-1.4,2.2-3.2,2.7-5.6l1,0.2c-0.2,0.7-0.3,1.4-0.5,2h3v-2.5h1v2.5h4.6v1
			h-4.6v3.2H47v1h-4.3v3.6h5.5v1H35.8v-1h5.8v-3.6h-4.1v-1h4.1v-3.2h-3.4C37.7,301.5,37,302.5,36.1,303.4z"/>
		<path style="fill:#444444;" d="M56.3,296.6c1.5,1.7,3.5,3.1,6,4.2l-0.6,0.9c-2.5-1.1-4.5-2.5-5.8-4.1c-1.4,1.6-3.4,3-5.9,4.1
			l-0.5-0.9c2.6-1.2,4.6-2.6,6-4.2H56.3z M55.2,307.9h-1v-0.7h-2.3v1h-1v-5.6h4.2V307.9z M54.2,306.2v-2.7h-2.3v2.7H54.2z
			 M58.8,300.1v0.9H53v-0.9H58.8z M58.5,308l-0.3-0.9l1.1,0c0.4,0,0.6-0.2,0.6-0.6v-3h-2.5v6.1h-1v-7h4.4v4.1c0,0.8-0.4,1.3-1.3,1.3
			H58.5z"/>
		<path style="fill:#444444;" d="M75.3,308.2c0,0.7-0.4,1.1-1.3,1.1h-1.8l-0.3-1c0.6,0,1.2,0,1.8,0c0.4,0,0.6-0.2,0.6-0.6v-9.8h-8.5
			v4.6c0,2.7-0.5,5-1.4,6.7l-0.8-0.7c0.8-1.6,1.1-3.5,1.2-5.9v-5.7h10.5V308.2z M70.5,298.5v1.2h2.5v0.8h-2.5v1.4h3v0.9h-6.9v-0.9h3
			v-1.4H67v-0.8h2.5v-1.2H70.5z M72.8,303.9v3.5h-5.7v-3.5H72.8z M71.9,304.7h-3.7v1.8h3.7V304.7z"/>
		<path style="fill:#444444;" d="M80.2,306.8c-0.5,1-1.1,1.9-1.8,2.6l-0.8-0.6c0.7-0.7,1.3-1.5,1.8-2.5L80.2,306.8z M79.6,296.6v1.6
			h2.7v-1.5h1v1.5h0.8v0.9h-0.8v5.9h0.9v1h-6.6v-1h1v-5.9h-0.9v-0.9h0.9v-1.6H79.6z M79.6,299.2v1.4h2.7v-1.4H79.6z M82.4,302.8
			v-1.4h-2.7v1.4H82.4z M82.4,305.1v-1.4h-2.7v1.4H82.4z M83.6,308.6c0.9-1.3,1.4-2.9,1.4-4.9v-6.6h4.7v11c0,0.8-0.4,1.2-1.2,1.2H87
			l-0.3-1c0.5,0,1,0.1,1.4,0.1c0.4,0,0.5-0.2,0.5-0.6v-2.9H86c-0.2,1.8-0.8,3.4-1.7,4.6l-0.8-0.7C83.5,308.7,83.5,308.7,83.6,308.6
			l-0.8,0.6c-0.4-0.7-0.9-1.5-1.5-2.3l0.8-0.5C82.8,307.2,83.3,308,83.6,308.6z M86,303.6c0,0.1,0,0.2,0,0.4h2.7v-2.5H86V303.6z
			 M88.7,298.1H86v2.5h2.6V298.1z"/>
		<path style="fill:#444444;" d="M92.5,300l-0.9-0.6c0.8-0.9,1.5-1.8,1.8-2.9l1,0.2c-0.1,0.3-0.2,0.6-0.4,0.9h3.8v0.9h-2.4
			c0.3,0.4,0.6,0.8,0.8,1.2l-0.9,0.4c-0.3-0.5-0.6-1.1-0.9-1.6h-0.8C93.3,299,92.9,299.5,92.5,300z M103.8,303h-1v-1.7h-9.9v1.7h-1
			v-2.5h5.5c-0.1-0.3-0.3-0.6-0.4-0.9l1-0.2l-0.1-0.1c0.7-0.8,1.1-1.8,1.5-2.8l1,0.2c-0.1,0.3-0.2,0.6-0.3,0.9h4v0.9h-2.5
			c0.3,0.4,0.5,0.8,0.7,1.1l-0.9,0.3c-0.3-0.5-0.5-1-0.9-1.4h-0.9c-0.3,0.5-0.5,0.9-0.9,1.3l-0.8-0.5c0.2,0.3,0.3,0.7,0.4,1.1h5.3
			V303z M101.9,304.9h-7v1h7.6v3.6h-1v-0.6h-6.6v0.6h-1v-7.3h8V304.9z M100.9,304.1v-1.1h-6v1.1H100.9z M101.6,308v-1.3h-6.6v1.3
			H101.6z"/>
		<path style="fill:#444444;" d="M107.3,301.8v-3.3h-1.7v-1h4.5v1h-1.7v3.3h1.5v1h-1.5v3.2c0.5-0.2,1-0.4,1.5-0.6v1
			c-1.3,0.5-2.7,1-4.2,1.3l-0.3-1c0.6-0.1,1.2-0.3,1.8-0.4v-3.5h-1.5v-1H107.3z M117.6,297.2v6.5h-2.9v1.7h3.2v1h-3.2v1.8h3.7v1
			h-8.4v-1h3.8v-1.8h-3.2v-1h3.2v-1.7h-2.9v-6.5H117.6z M113.6,300v-1.9h-2v1.9H113.6z M113.6,300.8h-2v1.9h2V300.8z M114.7,300h1.9
			v-1.9h-1.9V300z M116.6,300.8h-1.9v1.9h1.9V300.8z"/>
	</g>
</g>
<g>
	<g>
		<rect x="18.9" y="361.6" style="opacity:0.6;fill:#BBBBBB;enable-background:new    ;" width="118" height="50"/>
		<rect x="16.9" y="359.6" style="fill:#FFFFFF;stroke:#E5E5E5;" width="118" height="50"/>
	</g>
	<g>
		<g style="enable-background:new    ;">
			<path style="fill:#444444;" d="M39.9,378.8v3.7h0.8v1h-3.3v0.7c0,0.4,0,0.9,0,1.3h2.7v6h-1v-5h-1.8c-0.2,2.1-0.5,3.7-1.1,4.8
				l-0.8-0.7c0.6-1.3,1-3.5,1-6.4V379h1v3.4H39v-3.7H39.9z M42.5,385.2c-0.1,2.6-0.5,4.7-1.4,6.2l-0.7-0.7c0.7-1.3,1.1-3.2,1.1-5.5
				v-5.6c2.2,0,4.2-0.3,6-0.9l0.5,0.9c-1.7,0.5-3.5,0.8-5.5,0.8v2.2h5.2v0.9c-0.3,1.9-0.9,3.6-1.8,4.9c0.7,0.9,1.5,1.6,2.5,2.1
				l-0.5,0.9c-1.1-0.5-1.9-1.3-2.6-2.2c-0.8,0.9-1.7,1.6-2.8,2.2l-0.5-0.9c1.1-0.6,1.9-1.3,2.7-2.2c-0.8-1.3-1.4-2.9-1.7-4.8h-0.5
				V385.2z M45.2,387.5c0.7-1.1,1.2-2.4,1.4-3.9h-2.8C44.2,385.1,44.6,386.4,45.2,387.5z"/>
			<path style="fill:#444444;" d="M55.4,381.2v-2.5h1v2.5h5.5v1h-4.6c0.9,2.2,2.6,4.2,5,6l-0.7,0.9c-2.5-2-4.2-4.3-5.1-6.8h-0.1v5.5
				h3v1h-3v2.9h-1v-2.9h-2.9v-1h2.9v-5.5h-0.1c-1,2.8-2.8,5.2-5.3,7l-0.6-0.9c2.4-1.6,4-3.6,5.1-6.1h-4.6v-1H55.4z"/>
			<path style="fill:#444444;" d="M63.9,391.3l-0.2-1c0.4,0,0.7,0.1,1.1,0.1c0.4,0,0.5-0.2,0.5-0.5v-3.4c-0.6,0.2-1.1,0.4-1.7,0.6
				l-0.3-1c0.7-0.2,1.3-0.4,1.9-0.6v-3.1h-1.7v-1h1.7v-2.7h1v2.7h1.2v1h-1.2v2.7c0.4-0.2,0.8-0.4,1.2-0.6v1
				c-0.4,0.2-0.8,0.4-1.2,0.6v4.1c0,0.8-0.4,1.2-1.2,1.2H63.9z M68.3,386.9V386h7.5v0.9h-3.2v3.1h3.7v1h-8.6v-1h3.8v-3.1H68.3z
				 M72.6,380.1h3.3v2.6H75v-1.7h-5.9v1.7h-1v-2.6h3.5c-0.2-0.6-0.5-1.1-0.7-1.5l1-0.2C72.2,379,72.4,379.5,72.6,380.1z M71.5,382.3
				c-0.6,1.4-1.5,2.5-2.5,3.2l-0.7-0.6c1.1-0.7,1.8-1.7,2.4-2.9L71.5,382.3z M75.7,384.9l-0.9,0.4c-0.7-1.1-1.4-2.2-2.3-3.1l0.9-0.4
				C74.2,382.8,75,383.8,75.7,384.9z"/>
			<path style="fill:#444444;" d="M78.2,382.7l-0.8-0.6c0.7-0.8,1.1-1.8,1.3-3.1l1,0.2c-0.1,0.4-0.2,0.9-0.3,1.2H81v-1.7h1v1.7h2.6
				v0.9H82v1.8h3v0.9h-3v1.5h2.7v3.7c0,0.8-0.4,1.2-1.3,1.2h-0.7l-0.3-1l0.7,0c0.4,0,0.6-0.2,0.6-0.5v-2.5H82v5h-1v-5h-1.8v4.1h-1
				v-5H81v-1.5h-3.4v-0.9H81v-1.8h-2C78.8,381.9,78.5,382.3,78.2,382.7z M86.9,379.9v8.7h-1v-8.7H86.9z M86.4,391.3l-0.2-1
				c0.7,0,1.3,0.1,1.9,0.1c0.4,0,0.6-0.2,0.6-0.7v-11.1h1V390c0,0.9-0.4,1.3-1.3,1.3H86.4z"/>
			<path style="fill:#444444;" d="M92.4,391.5l-0.8-0.7c0.6-1.3,0.8-2.9,0.9-4.8v-6.7h4.1v10.9c0,0.8-0.4,1.3-1.2,1.3h-1.1l-0.2-0.9
				c0.4,0,0.7,0.1,1.1,0.1c0.4,0,0.5-0.3,0.5-0.8v-3.2h-2.3C93.3,388.6,93,390.2,92.4,391.5z M95.7,380.1h-2.3v2.4h2.3V380.1z
				 M93.4,385.7h2.3v-2.3h-2.3V385.7z M98.7,391.5h-1v-12.3h5.7c0,1.7-0.1,2.9-0.3,3.4c-0.2,0.6-0.7,0.9-1.6,0.9h-1.1l-0.3-0.9
				c0.2,0,0.5,0,0.9,0c0.3,0,0.6,0,0.7-0.1c0.2-0.1,0.3-0.2,0.4-0.4c0.1-0.3,0.2-1,0.2-2.1h-3.7v4.2h4.8v0.9
				c-0.3,1.4-0.7,2.7-1.4,3.7c0.6,0.6,1.4,1.2,2.2,1.7l-0.5,0.9c-0.9-0.5-1.7-1.1-2.3-1.7c-0.6,0.7-1.3,1.3-2.2,1.7l-0.5-0.8
				c0.8-0.4,1.5-1,2-1.7c-0.9-1.1-1.5-2.3-1.8-3.7h-0.3V391.5z M101.5,388.2c0.5-0.8,0.9-1.8,1.1-2.9H100
				C100.2,386.3,100.8,387.3,101.5,388.2z"/>
			<path style="fill:#444444;" d="M110.7,378.7c-0.2,0.4-0.3,0.7-0.5,1.1h6.1v0.8c-0.9,1-2,1.9-3.3,2.6c1.6,0.7,3.3,1.1,5.3,1.3
				l-0.5,0.9c-2.2-0.3-4.2-0.8-5.9-1.7c-1.7,0.8-3.7,1.4-6,1.7l-0.5-1c2-0.3,3.8-0.7,5.4-1.3c-0.8-0.5-1.5-1-2.2-1.6
				c-0.5,0.5-1.1,0.9-1.8,1.3l-0.6-0.8c1.7-1,2.8-2.1,3.4-3.5L110.7,378.7z M112.1,384.8c0,0.6-0.1,1.1-0.1,1.6h4.9
				c0,2.4-0.2,3.8-0.6,4.2c-0.4,0.5-1.1,0.7-2.1,0.7c-0.4,0-1,0-1.6-0.1l-0.3-0.9l1.7,0.1c0.8,0,1.4-0.2,1.6-0.5
				c0.2-0.3,0.3-1.2,0.4-2.6h-4.1c-0.1,0.4-0.3,0.7-0.4,1c-0.7,1.3-2.4,2.3-4.9,3.1l-0.7-0.8c2.3-0.7,3.8-1.5,4.6-2.5
				c0.2-0.3,0.3-0.5,0.4-0.8h-4.2v-0.9h4.5c0.1-0.5,0.2-1,0.2-1.6H112.1z M114.9,380.7h-5.4l-0.2,0.2c0.8,0.7,1.7,1.3,2.6,1.8
				C113.1,382.1,114,381.5,114.9,380.7z"/>
		</g>
	</g>
</g>
<g>
	<g>
		<rect x="18.9" y="443.6" style="opacity:0.6;fill:#BBBBBB;enable-background:new    ;" width="118" height="50"/>
		<rect x="16.9" y="441.6" style="fill:#FFFFFF;stroke:#E5E5E5;" width="118" height="50"/>
	</g>
	<g style="enable-background:new    ;">
		<path style="fill:#444444;" d="M52.5,461.7v-1.1h1v1.1h4.8v-1.1h1v1.1h2.5v0.9h-2.5v4.6H62v0.9h-2.9c0.7,0.8,1.7,1.5,3.1,2
			l-0.4,0.9c-1.7-0.7-3-1.7-3.7-2.8h-4.4c-0.7,1.2-1.9,2.1-3.5,2.9l-0.5-0.9c1.4-0.5,2.4-1.2,3.1-2h-2.9v-0.9h2.7v-4.6H50v-0.9H52.5
			z M56.4,468.5v1.1h2.8v0.9h-2.8v1.5h4.8v0.9H50.5V472h4.9v-1.5h-2.9v-0.9h2.9v-1.1H56.4z M58.3,463.5v-1h-4.8v1H58.3z M58.3,465.3
			v-1h-4.8v1H58.3z M58.3,467.1v-1h-4.8v1H58.3z"/>
		<path style="fill:#444444;" d="M63.7,462.4v-1h4.7v1h-2.1c-0.2,1.1-0.4,2.2-0.8,3.2h2.6v7.5h-0.9v-0.9h-1.5v1h-0.9V467
			c-0.3,0.6-0.6,1.1-1,1.7l-0.5-0.9c1-1.6,1.7-3.4,2-5.4H63.7z M67.3,471.2v-4.8h-1.5v4.8H67.3z M74.6,461.8h0.9v4.6h-2.6v5.3h2v-4
			h0.9v5.9h-0.9v-0.9H70v0.9h-0.9v-5.9H70v4H72v-5.3h-2.6v-4.6h0.9v3.7H72v-4.8h0.9v4.8h1.7V461.8z"/>
		<path style="fill:#444444;" d="M78.4,473.5l-0.8-0.7c0.6-1.3,0.8-2.9,0.9-4.8v-6.7h4.1v10.9c0,0.8-0.4,1.3-1.2,1.3h-1.1l-0.2-0.9
			c0.4,0,0.7,0.1,1.1,0.1c0.4,0,0.5-0.3,0.5-0.8v-3.2h-2.3C79.3,470.6,79,472.2,78.4,473.5z M81.7,462.1h-2.3v2.4h2.3V462.1z
			 M79.4,467.7h2.3v-2.3h-2.3V467.7z M84.7,473.5h-1v-12.3h5.7c0,1.7-0.1,2.9-0.3,3.4c-0.2,0.6-0.7,0.9-1.6,0.9h-1.1l-0.3-0.9
			c0.2,0,0.5,0,0.9,0c0.3,0,0.6,0,0.7-0.1c0.2-0.1,0.3-0.2,0.4-0.4c0.1-0.3,0.2-1,0.2-2.1h-3.7v4.2h4.8v0.9
			c-0.3,1.4-0.7,2.7-1.4,3.7c0.6,0.6,1.4,1.2,2.2,1.7l-0.5,0.9c-0.9-0.5-1.7-1.1-2.3-1.7c-0.6,0.7-1.3,1.3-2.2,1.7l-0.5-0.8
			c0.8-0.4,1.5-1,2-1.7c-0.9-1.1-1.5-2.3-1.8-3.7h-0.3V473.5z M87.5,470.2c0.5-0.8,0.9-1.8,1.1-2.9H86
			C86.2,468.3,86.8,469.3,87.5,470.2z"/>
		<path style="fill:#444444;" d="M96.7,460.7c-0.2,0.4-0.3,0.7-0.5,1.1h6.1v0.8c-0.9,1-2,1.9-3.3,2.6c1.6,0.7,3.3,1.1,5.3,1.3
			l-0.5,0.9c-2.2-0.3-4.2-0.8-5.9-1.7c-1.7,0.8-3.7,1.4-6,1.7l-0.5-1c2-0.3,3.8-0.7,5.4-1.3c-0.8-0.5-1.5-1-2.2-1.6
			c-0.5,0.5-1.1,0.9-1.8,1.3l-0.6-0.8c1.7-1,2.8-2.1,3.4-3.5L96.7,460.7z M98.1,466.8c0,0.6-0.1,1.1-0.1,1.6h4.9
			c0,2.4-0.2,3.8-0.6,4.2c-0.4,0.5-1.1,0.7-2.1,0.7c-0.4,0-1,0-1.6-0.1l-0.3-0.9l1.7,0.1c0.8,0,1.4-0.2,1.6-0.5
			c0.2-0.3,0.3-1.2,0.4-2.6h-4.1c-0.1,0.4-0.3,0.7-0.4,1c-0.7,1.3-2.4,2.3-4.9,3.1l-0.7-0.8c2.3-0.7,3.8-1.5,4.6-2.5
			c0.2-0.3,0.3-0.5,0.4-0.8h-4.2v-0.9h4.5c0.1-0.5,0.2-1,0.2-1.6H98.1z M100.9,462.7h-5.4l-0.2,0.2c0.8,0.7,1.7,1.3,2.6,1.8
			C99.1,464.1,100,463.5,100.9,462.7z"/>
	</g>
</g>
<g>
	<g>
		<rect x="289.4" y="441.6" style="opacity:0.6;fill:#BBBBBB;enable-background:new    ;" width="118" height="50"/>
		<rect x="287.4" y="439.6" style="fill:#FFFFFF;stroke:#E5E5E5;" width="118" height="50"/>
	</g>
	<g style="enable-background:new    ;">
		<path style="fill:#444444;" d="M326.8,463c1.1,1.4,3.1,2.6,5.9,3.7l-0.5,0.8c-0.6-0.2-1.1-0.4-1.6-0.7v4.6h-1v-0.6h-6.3v0.6h-1
			v-4.6c-0.6,0.3-1.1,0.5-1.7,0.7l-0.5-0.8c2.6-1,4.5-2.2,5.9-3.7H326.8z M325.4,461.9c-1.2,1-2.6,1.9-4.4,2.7l-0.6-0.8
			c1.7-0.7,3.1-1.6,4.3-2.5L325.4,461.9z M327,459.8h5.1v2.5h-1v-1.6h-9.5v1.6h-1v-2.6h5.3c-0.2-0.4-0.3-0.7-0.5-1.1l1.1-0.2
			C326.7,458.9,326.9,459.3,327,459.8z M330.4,466.8c-1.7-0.8-3.1-1.8-4-2.9c-1.1,1.2-2.5,2.1-4,2.9H330.4z M329.6,469.9v-2.2h-6.3
			v2.2H329.6z M332.3,463.9l-0.7,0.7c-1-0.8-2.4-1.7-4.2-2.7l0.6-0.6C329.7,462.2,331.1,463,332.3,463.9z"/>
		<path style="fill:#444444;" d="M336.8,458.8c-0.1,0.5-0.3,0.9-0.4,1.4h2.6v1h-3c-0.4,1-0.8,1.8-1.4,2.6l-0.8-0.5
			c0.9-1.4,1.6-2.9,2-4.6L336.8,458.8z M338.7,463v0.9h-1.5v1.7h1.9v0.9h-1.9v3.3c0.7-0.2,1.3-0.5,2-1l0.2,0.9
			c-0.9,0.5-2,0.9-3.2,1.3l-0.4-0.9c0.3-0.1,0.4-0.2,0.4-0.4v-3.2h-1.9v-0.9h1.9v-1.7h-0.9V463H338.7z M341,460.2v-1.6h1v1.6h2v-1.6
			h1v1.6h1.6v0.9h-1.6v1.8h1.9v0.9h-7.7v-0.9h1.9v-1.8h-1.5v-0.9H341z M345.9,471.5h-1v-0.7h-3.9v0.7h-1v-6.5h5.8V471.5z M345,467.4
			v-1.6h-3.9v1.6H345z M345,469.9v-1.6h-3.9v1.6H345z M344,462.9v-1.8h-2v1.8H344z"/>
		<path style="fill:#444444;" d="M351.9,459c-0.3,1-0.8,2-1.2,2.9v9.6h-1v-7.9c-0.5,0.7-1,1.3-1.5,1.9l-0.3-1.1
			c1.5-1.7,2.5-3.6,3.2-5.8L351.9,459z M359.4,459.2v4.4h-2.8v1.5h4v1h-3c0.8,1.4,1.9,2.6,3.3,3.7l-0.6,0.9
			c-1.4-1.2-2.5-2.7-3.5-4.5h-0.2v5.3h-1v-5.3h-0.2c-0.9,1.9-2.1,3.5-3.5,4.6l-0.6-0.9c1.3-0.9,2.4-2.1,3.3-3.6h-2.9v-1h3.9v-1.5
			h-2.8v-4.4H359.4z M358.4,460.2h-4.6v2.5h4.6V460.2z"/>
		<path style="fill:#444444;" d="M362.3,471.3l-0.2-1c0.4,0,0.9,0.1,1.3,0.1c0.4,0,0.5-0.2,0.5-0.6v-3.4c-0.6,0.2-1.1,0.4-1.7,0.6
			l-0.3-1c0.7-0.2,1.3-0.3,2-0.5v-3.2h-1.8v-1h1.8v-2.6h1v2.6h1.5v1h-1.5v2.8c0.5-0.2,1.1-0.5,1.6-0.7v1c-0.5,0.3-1.1,0.5-1.6,0.7v4
			c0,0.8-0.4,1.2-1.2,1.2H362.3z M366.5,471.4l-0.8-0.7c1-1.5,1.5-3.5,1.5-6v-4.5h3.1c-0.2-0.6-0.4-1.1-0.6-1.6l1.1-0.2
			c0.2,0.5,0.4,1.1,0.6,1.8h3v4.6h-6.1C368.3,467.5,367.7,469.6,366.5,471.4z M368.3,461.3v2.7h5.1v-2.7H368.3z"/>
	</g>
</g>
<g>
	<g>
		<rect x="289.4" y="502" style="opacity:0.6;fill:#BBBBBB;enable-background:new    ;" width="118" height="50"/>
		<rect x="287.4" y="500" style="fill:#FFFFFF;stroke:#E5E5E5;" width="118" height="50"/>
	</g>
	<g style="enable-background:new    ;">
		<path style="fill:#444444;" d="M326.8,523.4c1.1,1.4,3.1,2.6,5.9,3.7l-0.5,0.8c-0.6-0.2-1.1-0.4-1.6-0.7v4.6h-1v-0.6h-6.3v0.6h-1
			v-4.6c-0.6,0.3-1.1,0.5-1.7,0.7l-0.5-0.8c2.6-1,4.5-2.2,5.9-3.7H326.8z M325.4,522.2c-1.2,1-2.6,1.9-4.4,2.7l-0.6-0.8
			c1.7-0.7,3.1-1.6,4.3-2.5L325.4,522.2z M327,520.1h5.1v2.5h-1v-1.6h-9.5v1.6h-1v-2.6h5.3c-0.2-0.4-0.3-0.7-0.5-1.1l1.1-0.2
			C326.7,519.2,326.9,519.7,327,520.1z M330.4,527.2c-1.7-0.8-3.1-1.8-4-2.9c-1.1,1.2-2.5,2.1-4,2.9H330.4z M329.6,530.3v-2.2h-6.3
			v2.2H329.6z M332.3,524.3l-0.7,0.7c-1-0.8-2.4-1.7-4.2-2.7l0.6-0.6C329.7,522.5,331.1,523.4,332.3,524.3z"/>
		<path style="fill:#444444;" d="M346.7,523.4v0.8h-12.6v-0.8H346.7z M345.3,524.8v3.6h-4.4v0.8h4.7v0.7h-4.7v0.8h5.8v0.8h-12.5
			v-0.8h5.7v-0.8h-4.7v-0.7h4.7v-0.8h-4.3v-3.6H345.3z M345,519.2v3.5h-9.1v-3.5H345z M339.9,526.3v-0.9h-3.4v0.9H339.9z
			 M339.9,526.9h-3.4v0.9h3.4V526.9z M344,520.6v-0.8h-7.2v0.8H344z M344,521.2h-7.2v0.8h7.2V521.2z M340.9,526.3h3.4v-0.9h-3.4
			V526.3z M344.3,526.9h-3.4v0.9h3.4V526.9z"/>
		<path style="fill:#444444;" d="M349,522.4l-0.9-0.6c0.8-0.9,1.5-1.8,1.8-2.9l1,0.2c-0.1,0.3-0.2,0.6-0.4,0.9h3.8v0.9H352
			c0.3,0.4,0.6,0.8,0.8,1.2l-0.9,0.4c-0.3-0.5-0.6-1.1-0.9-1.6h-0.8C349.8,521.4,349.4,521.9,349,522.4z M360.3,525.3h-1v-1.7h-9.9
			v1.7h-1v-2.5h5.5c-0.1-0.3-0.3-0.6-0.4-0.9l1-0.2l-0.1-0.1c0.7-0.8,1.1-1.8,1.5-2.8l1,0.2c-0.1,0.3-0.2,0.6-0.3,0.9h4v0.9h-2.5
			c0.3,0.4,0.5,0.8,0.7,1.1l-0.9,0.3c-0.3-0.5-0.5-1-0.9-1.4h-0.9c-0.3,0.5-0.5,0.9-0.9,1.3l-0.8-0.5c0.2,0.3,0.3,0.7,0.4,1.1h5.3
			V525.3z M358.4,527.2h-7v1h7.6v3.6h-1v-0.6h-6.6v0.6h-1v-7.3h8V527.2z M357.4,526.4v-1.1h-6v1.1H357.4z M358,530.3V529h-6.6v1.3
			H358z"/>
		<path style="fill:#444444;" d="M363.8,524.1v-3.3h-1.7v-1h4.5v1h-1.7v3.3h1.5v1h-1.5v3.2c0.5-0.2,1-0.4,1.5-0.6v1
			c-1.3,0.5-2.7,1-4.2,1.3l-0.3-1c0.6-0.1,1.2-0.3,1.8-0.4v-3.5h-1.5v-1H363.8z M374.1,519.5v6.5h-2.9v1.7h3.2v1h-3.2v1.8h3.7v1
			h-8.4v-1h3.8v-1.8H367v-1h3.2V526h-2.9v-6.5H374.1z M370.1,522.3v-1.9h-2v1.9H370.1z M370.1,523.2h-2v1.9h2V523.2z M371.1,522.3
			h1.9v-1.9h-1.9V522.3z M373.1,523.2h-1.9v1.9h1.9V523.2z"/>
	</g>
</g>
<g>
	<g>
		<rect x="424.6" y="441.6" style="opacity:0.6;fill:#BBBBBB;enable-background:new    ;" width="118" height="50"/>
		<rect x="422.6" y="439.6" style="fill:#FFFFFF;stroke:#E5E5E5;" width="118" height="50"/>
	</g>
	<g style="enable-background:new    ;">
		<path style="fill:#444444;" d="M466.4,468.6h-1v-5.4h-6.9v5.5h-1v-6.1c-0.4,0.3-0.9,0.6-1.3,0.9l-0.6-0.8c1.7-1,3.1-2.4,4.2-4.1
			l1,0.2c-0.2,0.3-0.4,0.7-0.6,1h4.6v0.7c-0.5,0.7-1,1.2-1.5,1.7h3.1V468.6z M462.4,464v1.9c-0.1,1.5-0.5,2.7-1.5,3.6
			c-0.9,0.8-2.4,1.5-4.4,1.9l-0.5-0.9c2-0.4,3.4-1,4.2-1.8c0.7-0.8,1.1-1.7,1.2-2.9V464H462.4z M463.6,460.7h-4.1
			c-0.5,0.6-1,1.1-1.5,1.5h4.2C462.6,461.8,463.1,461.3,463.6,460.7z M467.7,470.6l-0.6,0.9c-1.6-1.1-3.3-1.9-5-2.5l0.5-0.8
			C464.5,468.9,466.2,469.7,467.7,470.6z"/>
		<path style="fill:#444444;" d="M472.9,459.7v-1.2h1v1.2h2.5v0.9h-2.5v1.3h3.4c-0.1-1-0.1-2.2-0.1-3.4h1c0,1.3,0,2.4,0.1,3.4h3.5
			v0.9h-3.5c0.1,1.2,0.2,2.3,0.4,3.1c0.1,0.4,0.2,0.8,0.3,1.1c0.5-1,0.9-2.2,1.2-3.5l0.9,0.4c-0.4,1.8-1,3.2-1.7,4.4
			c0.1,0.3,0.2,0.6,0.4,0.9c0.4,0.7,0.7,1,0.9,1c0.2,0,0.4-0.8,0.6-2.2l0.9,0.5c-0.3,1.9-0.7,2.8-1.3,2.8c-0.5,0-1-0.4-1.5-1.3
			c-0.2-0.2-0.3-0.5-0.4-0.8c-0.7,1-1.6,1.7-2.5,2.2l-0.5-0.8c1-0.6,1.9-1.4,2.6-2.5c-0.2-0.6-0.4-1.3-0.5-2c-0.2-0.9-0.4-2-0.4-3.3
			h-7.9v-0.9h3.5v-1.3h-2.7v-0.9H472.9z M476.4,469.5c-0.7,0.1-1.4,0.2-2.2,0.3v1.7h-1v-1.6c-1,0.1-2.1,0.2-3.2,0.3l-0.1-0.9
			c1.2-0.1,2.3-0.2,3.3-0.2v-1.2h-2.7l-0.2-0.8c0.4-0.5,0.8-1.1,1.1-1.8h-1.5v-0.9h1.9c0.1-0.3,0.3-0.7,0.4-1.1l1,0.2
			c-0.1,0.3-0.2,0.6-0.3,0.9h3.7v0.9h-4.1c-0.3,0.6-0.6,1.2-1,1.7h1.8v-1.1h1v1.1h2.1v0.9h-2.1v1.1c0.8-0.1,1.5-0.2,2.2-0.3V469.5z
			 M481.2,460.8l-0.8,0.5c-0.4-0.6-0.9-1.3-1.6-2.1l0.8-0.5C480.3,459.5,480.9,460.2,481.2,460.8z"/>
		<path style="fill:#444444;" d="M484.8,462.3v-3.7h1v3.7h1.4v1h-1.4v4.7c0.7-0.2,1.3-0.4,2-0.7v1.1c-1.4,0.5-2.8,1-4.4,1.3
			l-0.3-1.1c0.6-0.1,1.1-0.2,1.7-0.4v-5h-1.5v-1H484.8z M491,458.6c-0.2,0.7-0.4,1.4-0.6,2.1h5.1c0,4.8-0.1,7.8-0.3,8.9
			c-0.2,1.1-0.8,1.7-2.1,1.7c-0.4,0-1,0-1.9-0.1l-0.3-1c0.8,0,1.4,0.1,2,0.1c0.7,0,1.1-0.4,1.3-1.1c0.1-0.8,0.2-3.3,0.2-7.6H490
			c-0.5,1-1.1,1.9-1.8,2.7l-0.7-0.9c1.2-1.4,2-3.1,2.4-5.1L491,458.6z M493.4,467.1c-1.2,0.8-2.7,1.6-4.5,2.2l-0.4-1
			c1.8-0.6,3.3-1.3,4.6-2.2L493.4,467.1z M492.6,465.1l-0.7,0.7c-0.5-0.6-1.3-1.3-2.2-2l0.6-0.6C491.2,463.8,492,464.5,492.6,465.1z
			"/>
		<path style="fill:#444444;" d="M500.7,462.7c-0.3,0.6-0.6,1.3-1,1.9v6.9h-0.9v-5.7c-0.4,0.4-0.8,0.8-1.3,1.2l-0.3-0.9
			c1.2-1.1,2.1-2.3,2.7-3.7L500.7,462.7z M500.5,459c-0.6,1.5-1.6,2.8-3,4l-0.3-1c1.1-1,1.9-2.1,2.4-3.4L500.5,459z M500.9,462
			l-0.6-0.7c1-0.7,1.8-1.7,2.5-2.8l1,0.2c-0.2,0.3-0.3,0.6-0.5,0.8h2.2v0.7c-0.3,0.5-0.6,0.9-0.9,1.3h1.6v5H504c0,0.4,0,0.7-0.1,1
			h2.7v0.9h-2.9l-0.1,0.2c1,0.5,1.8,1,2.6,1.7l-0.5,0.8c-0.8-0.7-1.6-1.3-2.4-1.8c-0.4,0.8-1.2,1.5-2.3,2l-0.6-0.7
			c1.1-0.5,1.9-1.2,2.2-2l0.1-0.2h-2.2v-0.9h2.5c0.1-0.3,0.1-0.7,0.1-1H501v-4.6L500.9,462z M504.5,460.4h-1.8
			c-0.3,0.4-0.7,0.8-1.1,1.1h2C503.9,461.2,504.2,460.8,504.5,460.4z M503.2,463.7v-1.4h-1.3v1.4H503.2z M503.2,464.4h-1.3v1.4h1.3
			V464.4z M504,463.7h1.3v-1.4H504V463.7z M505.3,464.4H504v1.4h1.3V464.4z M506.9,471.4l-0.2-0.9c0.3,0,0.6,0.1,0.8,0.1
			c0.3,0,0.5-0.2,0.5-0.5v-6h-1.5v-1h3.5v1h-1v6.2c0,0.7-0.4,1.1-1.1,1.1H506.9z M509.8,459.6v0.9h-3.1v-0.9H509.8z"/>
	</g>
</g>
<g>
	<g>
		<rect x="353" y="348.3" style="opacity:0.6;fill:#BBBBBB;enable-background:new    ;" width="118" height="50"/>
		<rect x="351" y="346.3" style="fill:#FFFFFF;stroke:#E5E5E5;" width="118" height="50"/>
	</g>
	<g style="enable-background:new    ;">
		<path style="fill:#444444;" d="M383.7,367.4c0.8,0.6,1.2,1.4,1.3,2.4h-1.1c-0.1-0.7-0.5-1.3-1.1-1.7c-0.5-0.4-1.2-0.6-2-0.6
			c-1.2,0-2.1,0.4-2.7,1.2c-0.6,0.8-0.9,1.8-0.9,3c0,1.2,0.3,2.2,0.9,3c0.6,0.8,1.5,1.2,2.7,1.2c0.8,0,1.5-0.2,2-0.6
			c0.6-0.4,1-1.1,1.2-2h1.1c-0.2,1.2-0.7,2.1-1.6,2.7c-0.8,0.6-1.7,0.9-2.8,0.9c-1.6,0-2.7-0.5-3.6-1.5c-0.8-0.9-1.1-2.1-1.1-3.6
			c0-1.5,0.4-2.7,1.1-3.7c0.8-1.1,2-1.6,3.6-1.6C382,366.5,382.9,366.8,383.7,367.4z"/>
		<path style="fill:#444444;" d="M393.1,370.4c0.6,0.7,0.9,1.6,0.9,2.7c0,1.1-0.3,2-0.9,2.7c-0.7,0.8-1.5,1.1-2.6,1.1
			c-1.1,0-1.9-0.4-2.6-1.1c-0.6-0.7-0.9-1.6-0.9-2.7c0-1.1,0.3-2,0.9-2.7c0.6-0.8,1.5-1.1,2.6-1.1
			C391.6,369.3,392.5,369.7,393.1,370.4z M388.8,371.1c-0.4,0.5-0.6,1.2-0.6,2c0,0.8,0.2,1.5,0.6,2c0.4,0.6,1,0.9,1.8,0.9
			c0.8,0,1.4-0.3,1.8-0.9c0.4-0.5,0.6-1.2,0.6-2c0-0.8-0.2-1.5-0.6-2c-0.4-0.6-1.1-0.9-1.8-0.9C389.8,370.2,389.2,370.5,388.8,371.1
			z"/>
		<path style="fill:#444444;" d="M402.3,372.3v4.5h-1.1v-4.4c0-1.4-0.6-2.1-1.9-2.1c-0.5,0-0.9,0.2-1.3,0.5
			c-0.4,0.4-0.6,0.9-0.6,1.6v4.4h-1.1v-7.2h1.1v1.1c0.3-0.4,0.6-0.7,1-0.9c0.4-0.2,0.8-0.3,1.3-0.3
			C401.4,369.3,402.3,370.3,402.3,372.3z"/>
		<path style="fill:#444444;" d="M410.3,371.5h-1.1c-0.1-0.4-0.3-0.8-0.6-1c-0.3-0.2-0.8-0.3-1.3-0.3c-0.5,0-0.9,0.1-1.2,0.3
			c-0.3,0.2-0.5,0.4-0.5,0.8c0,0.3,0.2,0.6,0.6,0.8c0.3,0.1,0.8,0.3,1.5,0.5c0.9,0.2,1.5,0.4,1.9,0.7c0.6,0.4,0.9,0.9,0.9,1.5
			c0,1.5-1,2.2-3.1,2.2c-1.9,0-2.9-0.8-3.1-2.5h1.1c0.1,0.6,0.3,1,0.6,1.2c0.3,0.2,0.8,0.3,1.4,0.3c1.3,0,1.9-0.4,1.9-1.2
			c0-0.4-0.2-0.7-0.7-0.9c-0.2-0.1-0.8-0.3-1.5-0.5c-0.9-0.2-1.5-0.4-1.8-0.6c-0.6-0.3-0.8-0.8-0.8-1.4s0.3-1.1,0.8-1.5
			c0.5-0.4,1.2-0.5,2-0.5C409.1,369.3,410.1,370,410.3,371.5z"/>
		<path style="fill:#444444;" d="M413.6,369.5v4.4c0,0.7,0.1,1.2,0.4,1.5c0.3,0.3,0.8,0.5,1.4,0.5c0.5,0,0.9-0.2,1.3-0.6
			c0.4-0.4,0.6-0.9,0.7-1.5v-4.4h1.1v7.2h-1.1v-1.1c-0.6,0.9-1.4,1.3-2.4,1.3c-1.8,0-2.6-1-2.6-3v-4.5H413.6z"/>
		<path style="fill:#444444;" d="M426.5,370.7c0.3-0.5,0.6-0.8,1-1c0.4-0.2,0.8-0.3,1.3-0.3c0.8,0,1.4,0.2,1.8,0.7
			c0.4,0.5,0.7,1.1,0.7,2v4.7h-1.1v-4.6c0-0.6-0.1-1.1-0.4-1.4c-0.3-0.3-0.7-0.5-1.3-0.5c-0.5,0-0.9,0.2-1.2,0.5
			c-0.3,0.4-0.5,0.8-0.5,1.4v4.5h-1.1v-4.6c0-1.3-0.6-1.9-1.7-1.9c-0.5,0-0.9,0.2-1.3,0.6c-0.3,0.4-0.5,0.9-0.5,1.5v4.4h-1.1v-7.2
			h1.1v1c0.5-0.8,1.2-1.2,2-1.2C425.3,369.3,426.1,369.7,426.5,370.7z"/>
		<path style="fill:#444444;" d="M439.3,370.5c0.5,0.7,0.8,1.7,0.8,3h-5.7c0.1,0.8,0.3,1.4,0.7,1.9c0.4,0.4,0.9,0.7,1.6,0.7
			c0.6,0,1.1-0.2,1.4-0.4c0.3-0.3,0.5-0.6,0.7-1.1h1.1c-0.2,0.7-0.5,1.3-1,1.7c-0.6,0.5-1.4,0.8-2.3,0.8c-1,0-1.9-0.4-2.5-1
			c-0.6-0.7-1-1.6-1-2.8c0-1.1,0.3-2,0.9-2.7c0.6-0.8,1.4-1.1,2.5-1.1C437.9,369.3,438.8,369.7,439.3,370.5z M435.2,370.9
			c-0.4,0.4-0.6,1-0.7,1.7h4.5c-0.1-1.6-0.9-2.3-2.3-2.3C436.1,370.2,435.6,370.4,435.2,370.9z"/>
		<path style="fill:#444444;" d="M446.4,369.5v1.1c-0.4-0.1-0.7-0.2-1.1-0.2c-0.6,0-1,0.2-1.4,0.7c-0.4,0.5-0.6,1-0.6,1.7v3.8h-1.1
			v-7.2h1.1v1.3c0.2-0.4,0.4-0.8,0.8-1c0.4-0.3,0.8-0.5,1.3-0.5C445.8,369.3,446.1,369.3,446.4,369.5z"/>
	</g>
</g>
<g>
	<g>
		<rect x="488.4" y="220.3" style="opacity:0.6;fill:#BBBBBB;enable-background:new    ;" width="118" height="50"/>
		<rect x="486.4" y="218.3" style="fill:#FFFFFF;stroke:#E5E5E5;" width="118" height="50"/>
	</g>
	<g style="enable-background:new    ;">
		<path style="fill:#444444;" d="M505.9,250.2l-0.8-0.7c0.6-1.3,0.8-2.9,0.9-4.8v-6.7h4.1v10.9c0,0.8-0.4,1.3-1.2,1.3h-1.1l-0.2-0.9
			c0.4,0,0.7,0.1,1.1,0.1c0.4,0,0.5-0.3,0.5-0.8v-3.2h-2.3C506.8,247.3,506.5,248.9,505.9,250.2z M509.2,238.8h-2.3v2.4h2.3V238.8z
			 M506.9,244.4h2.3v-2.3h-2.3V244.4z M512.2,250.1h-1v-12.3h5.7c0,1.7-0.1,2.9-0.3,3.4c-0.2,0.6-0.7,0.9-1.6,0.9H514l-0.3-0.9
			c0.2,0,0.5,0,0.9,0c0.3,0,0.6,0,0.7-0.1c0.2-0.1,0.3-0.2,0.4-0.4c0.1-0.3,0.2-1,0.2-2.1h-3.7v4.2h4.8v0.9
			c-0.3,1.4-0.7,2.7-1.4,3.7c0.6,0.6,1.4,1.2,2.2,1.7l-0.5,0.9c-0.9-0.5-1.7-1.1-2.3-1.7c-0.6,0.7-1.3,1.3-2.2,1.7l-0.5-0.8
			c0.8-0.4,1.5-1,2-1.7c-0.9-1.1-1.5-2.3-1.8-3.7h-0.3V250.1z M515,246.9c0.5-0.8,0.9-1.8,1.1-2.9h-2.7
			C513.7,245,514.2,246,515,246.9z"/>
		<path style="fill:#444444;" d="M524.2,237.4c-0.2,0.4-0.3,0.7-0.5,1.1h6.1v0.8c-0.9,1-2,1.9-3.3,2.6c1.6,0.7,3.3,1.1,5.3,1.3
			l-0.5,0.9c-2.2-0.3-4.2-0.8-5.9-1.7c-1.7,0.8-3.7,1.4-6,1.7l-0.5-1c2-0.3,3.8-0.7,5.4-1.3c-0.8-0.5-1.5-1-2.2-1.6
			c-0.5,0.5-1.1,0.9-1.8,1.3l-0.6-0.8c1.7-1,2.8-2.1,3.4-3.5L524.2,237.4z M525.6,243.5c0,0.6-0.1,1.1-0.1,1.6h4.9
			c0,2.4-0.2,3.8-0.6,4.2c-0.4,0.5-1.1,0.7-2.1,0.7c-0.4,0-1,0-1.6-0.1l-0.3-0.9l1.7,0.1c0.8,0,1.4-0.2,1.6-0.5
			c0.2-0.3,0.3-1.2,0.4-2.6h-4.1c-0.1,0.4-0.3,0.7-0.4,1c-0.7,1.3-2.4,2.3-4.9,3.1l-0.7-0.8c2.3-0.7,3.8-1.5,4.6-2.5
			c0.2-0.3,0.3-0.5,0.4-0.8h-4.2v-0.9h4.5c0.1-0.5,0.2-1,0.2-1.6H525.6z M528.4,239.4H523l-0.2,0.2c0.8,0.7,1.7,1.3,2.6,1.8
			C526.6,240.8,527.5,240.2,528.4,239.4z"/>
		<path style="fill:#444444;" d="M536.2,242.9l-0.7,0.7c-0.6-0.6-1.3-1.3-2.3-2.1l0.7-0.7C534.8,241.5,535.6,242.2,536.2,242.9z
			 M536.5,245c-0.6,1.8-1.3,3.4-2.1,5l-1-0.4c0.8-1.6,1.6-3.2,2.2-4.9L536.5,245z M536.7,239.6l-0.7,0.7c-0.6-0.7-1.4-1.4-2.5-2.1
			l0.7-0.7C535.2,238.2,536,238.9,536.7,239.6z M541,239.7c-0.3-0.8-0.6-1.5-1-2.2l1-0.3c0.4,0.8,0.7,1.5,0.9,2.2l-0.6,0.2h4.2v1
			h-3.6v3.4h3.2v1h-3.2v3.7h3.9v1h-8.9v-1h4V245h-3.2v-1h3.2v-3.4h-3.6v-1H541z"/>
		<path style="fill:#444444;" d="M548.7,242.9v-5h4v5h1.6v-5h4v5h1.5v1h-1.5v5c0,0.8-0.4,1.1-1.2,1.1h-1.3l-0.3-1c0.4,0,0.9,0,1.3,0
			c0.4,0,0.5-0.2,0.5-0.6v-4.6h-2v0.7c0,2.3-0.4,4.1-1.3,5.6l-0.7-0.7c0.7-1.3,1-2.9,1.1-4.8v-0.8h-1.6v5c0,0.8-0.4,1.2-1.1,1.2
			h-1.3l-0.3-1c0.4,0,0.9,0,1.3,0c0.3,0,0.4-0.2,0.4-0.6v-4.6h-2v0.7c0,2.3-0.5,4.2-1.4,5.6l-0.7-0.7c0.8-1.3,1.2-2.9,1.2-4.8v-0.8
			H547v-1H548.7z M551.7,238.8h-2v4.1h2V238.8z M557.2,238.8h-2v4.1h2V238.8z"/>
		<path style="fill:#444444;" d="M567.9,237.2v2.5h5v6.6h-1v-0.9h-4v4.8h-1v-4.8h-4v0.9h-1v-6.6h5v-2.5H567.9z M566.9,244.5v-3.7h-4
			v3.7H566.9z M571.9,244.5v-3.7h-4v3.7H571.9z"/>
		<path style="fill:#444444;" d="M577.5,241.9c-0.4,2.4-1,4.5-1.7,6.2l-0.9-0.5c0.7-1.8,1.2-3.7,1.6-5.9L577.5,241.9z M580.1,249.7
			c-1,0-1.5-0.5-1.5-1.4v-8h1v7.8c0,0.4,0.3,0.6,0.8,0.6h2.6c0.3,0,0.6-0.1,0.7-0.4c0.2-0.3,0.3-1.3,0.4-3l1,0.3
			c-0.1,1.9-0.3,3.1-0.6,3.5c-0.3,0.4-0.7,0.5-1.2,0.5H580.1z M583.5,240.9l-0.8,0.6c-0.7-1.1-1.7-2.3-3-3.6l0.8-0.5
			C581.8,238.7,582.8,239.9,583.5,240.9z M587.9,247.1l-0.9,0.4c-0.7-2.2-1.5-4.2-2.4-5.9l1-0.3C586.4,243.1,587.2,245,587.9,247.1z
			"/>
	</g>
</g>
<g>
	<g>
		<rect x="632.1" y="348.3" style="opacity:0.6;fill:#BBBBBB;enable-background:new    ;" width="118" height="50"/>
		<rect x="630.1" y="346.3" style="fill:#FFFFFF;stroke:#E5E5E5;" width="118" height="50"/>
	</g>
	<g style="enable-background:new    ;">
		<path style="fill:#444444;" d="M665.9,366.7c2.3,0,3.4,1,3.4,2.9c0,2-1.2,3-3.5,3h-2.9v4.1h-1.1v-10H665.9z M662.9,371.6h2.9
			c0.8,0,1.4-0.2,1.8-0.5c0.4-0.3,0.6-0.8,0.6-1.5c0-0.7-0.2-1.2-0.6-1.5c-0.4-0.3-1-0.5-1.8-0.5h-2.9V371.6z"/>
		<path style="fill:#444444;" d="M675.5,369.5v1.1c-0.4-0.1-0.7-0.2-1.1-0.2c-0.6,0-1,0.2-1.4,0.7c-0.4,0.5-0.6,1-0.6,1.7v3.8h-1.1
			v-7.2h1.1v1.3c0.2-0.4,0.4-0.8,0.8-1c0.4-0.3,0.8-0.5,1.3-0.5C674.9,369.3,675.3,369.3,675.5,369.5z"/>
		<path style="fill:#444444;" d="M683,370.4c0.6,0.7,0.9,1.6,0.9,2.7c0,1.1-0.3,2-0.9,2.7c-0.7,0.8-1.5,1.1-2.6,1.1
			c-1.1,0-1.9-0.4-2.6-1.1c-0.6-0.7-0.9-1.6-0.9-2.7c0-1.1,0.3-2,0.9-2.7c0.6-0.8,1.5-1.1,2.6-1.1
			C681.5,369.3,682.3,369.7,683,370.4z M678.6,371.1c-0.4,0.5-0.6,1.2-0.6,2c0,0.8,0.2,1.5,0.6,2c0.4,0.6,1,0.9,1.8,0.9
			c0.8,0,1.4-0.3,1.8-0.9c0.4-0.5,0.6-1.2,0.6-2c0-0.8-0.2-1.5-0.6-2c-0.4-0.6-1-0.9-1.8-0.9C679.6,370.2,679,370.5,678.6,371.1z"/>
		<path style="fill:#444444;" d="M686.5,369.5l2.1,5.8l2.1-5.8h1.2l-2.7,7.2H688l-2.7-7.2H686.5z"/>
		<path style="fill:#444444;" d="M695,367c0.2,0.1,0.3,0.3,0.3,0.6c0,0.2-0.1,0.4-0.3,0.6c-0.2,0.2-0.4,0.2-0.6,0.2
			s-0.4-0.1-0.6-0.2c-0.2-0.2-0.2-0.4-0.2-0.6c0-0.3,0.1-0.4,0.2-0.6c0.2-0.2,0.4-0.2,0.6-0.2S694.9,366.8,695,367z M695,369.5v7.2
			h-1.1v-7.2H695z"/>
		<path style="fill:#444444;" d="M704.3,366.5v10.2h-1.1v-1.2c-0.5,0.9-1.3,1.4-2.4,1.4c-1.1,0-1.9-0.4-2.5-1.1
			c-0.5-0.7-0.8-1.6-0.8-2.7c0-1.1,0.3-1.9,0.8-2.6c0.6-0.8,1.4-1.2,2.4-1.2c1,0,1.8,0.5,2.4,1.5v-4.3H704.3z M699.2,371.1
			c-0.4,0.5-0.5,1.2-0.5,2c0,0.9,0.2,1.6,0.5,2.1c0.4,0.6,1,0.9,1.8,0.9c0.7,0,1.3-0.3,1.7-0.8c0.3-0.5,0.5-1.2,0.5-2V373
			c0-0.8-0.2-1.5-0.6-2c-0.4-0.5-0.9-0.8-1.6-0.8C700.2,370.2,699.6,370.5,699.2,371.1z"/>
		<path style="fill:#444444;" d="M712.3,370.5c0.5,0.7,0.8,1.7,0.8,3h-5.7c0.1,0.8,0.3,1.4,0.7,1.9c0.4,0.4,0.9,0.7,1.6,0.7
			c0.6,0,1.1-0.2,1.4-0.4c0.3-0.3,0.5-0.6,0.7-1.1h1.1c-0.2,0.7-0.5,1.3-1,1.7c-0.6,0.5-1.4,0.8-2.3,0.8c-1,0-1.9-0.4-2.5-1
			c-0.6-0.7-1-1.6-1-2.8c0-1.1,0.3-2,0.9-2.7c0.6-0.8,1.4-1.1,2.5-1.1C710.8,369.3,711.7,369.7,712.3,370.5z M708.2,370.9
			c-0.4,0.4-0.6,1-0.7,1.7h4.5c-0.1-1.6-0.9-2.3-2.3-2.3C709.1,370.2,708.5,370.4,708.2,370.9z"/>
		<path style="fill:#444444;" d="M719.3,369.5v1.1c-0.4-0.1-0.7-0.2-1.1-0.2c-0.6,0-1,0.2-1.4,0.7c-0.4,0.5-0.6,1-0.6,1.7v3.8h-1.1
			v-7.2h1.1v1.3c0.2-0.4,0.4-0.8,0.8-1c0.4-0.3,0.8-0.5,1.3-0.5C718.7,369.3,719.1,369.3,719.3,369.5z"/>
	</g>
</g>
<g>
	<g>
		<rect x="353" y="4" style="opacity:0.6;fill:#BBBBBB;enable-background:new    ;" width="118" height="50"/>
		<rect x="351" y="2" style="fill:#FFFFFF;stroke:#E5E5E5;" width="118" height="50"/>
	</g>
	<g style="enable-background:new    ;">
		<path style="fill:#444444;" d="M388.4,28c0.6-1.2,1.1-2.6,1.3-4.1h-2.8c-0.7,1.6-1.6,2.9-2.7,3.9l-0.7-0.9c1.6-1.5,2.7-3.5,3.2-6
			l1,0.2c-0.1,0.6-0.3,1.2-0.5,1.8h3.4v0.9c-0.5,4.2-2.5,7.5-6.2,9.6l-0.7-0.9c1.8-1,3.1-2.3,4.1-3.8c-0.7-0.6-1.5-1.1-2.2-1.5
			l0.5-0.8C387,27,387.7,27.5,388.4,28z M392.9,21v4.2c1.2,0.9,2.3,1.8,3.5,2.9l-0.6,0.9c-1.1-1.1-2.1-2.1-2.9-2.7v7.5h-1V21H392.9z
			"/>
		<path style="fill:#444444;" d="M406.9,33.7l-0.3-1l1.3,0c0.4,0,0.6-0.2,0.6-0.6v-9.7h-9.2v11.3h-1V21.5h11.2v10.9
			c0,0.9-0.4,1.3-1.2,1.3H406.9z M402.3,28.6c-0.5,1.4-1.1,2.5-1.8,3.5l-0.6-0.8c0.7-1,1.3-2.3,1.8-3.7c-0.7-0.9-1.3-1.7-2-2.5
			l0.6-0.6c0.5,0.5,1.1,1.2,1.7,2c0.3-1,0.5-2,0.7-3.2l0.9,0.2c-0.2,1.4-0.5,2.8-0.9,4c0.5,0.7,1.1,1.5,1.7,2.4l-0.7,0.7
			C403.1,29.9,402.7,29.2,402.3,28.6z M406.3,28.9c-0.6,1.4-1.2,2.5-2,3.5l-0.6-0.8c0.8-1.1,1.4-2.3,2-3.7c-0.6-1-1.3-1.8-1.9-2.6
			l0.6-0.6c0.5,0.6,1.1,1.3,1.7,2.1c0.3-1.1,0.5-2.2,0.7-3.4l1,0.2c-0.3,1.6-0.6,3-1,4.2c0.5,0.8,1.1,1.7,1.7,2.7l-0.7,0.7
			C407.2,30.4,406.7,29.7,406.3,28.9z"/>
		<path style="fill:#444444;" d="M412.4,33.7l-0.8-0.7c0.9-1.2,1.4-2.8,1.4-4.7v-6.7h10.4V32c0,1-0.5,1.5-1.5,1.5h-1.6l-0.3-1
			c0.6,0,1.1,0.1,1.6,0.1c0.5,0,0.8-0.3,0.8-0.9v-2.4h-3.8v4.1h-1v-4.1h-3.6C413.8,31,413.3,32.5,412.4,33.7z M414,22.5v2.4h3.6
			v-2.4H414z M414,28.3h3.6v-2.5H414V28.3z M422.4,22.5h-3.8v2.4h3.8V22.5z M422.4,25.8h-3.8v2.5h3.8V25.8z"/>
		<path style="fill:#444444;" d="M426.2,33.9l-0.7-0.7c1.1-1.6,1.7-3.6,1.7-6.1v-4.4h4.6c-0.3-0.6-0.5-1.1-0.8-1.6l1.1-0.2
			c0.3,0.5,0.5,1.1,0.8,1.8h4.4v4.7h-9C428.1,29.9,427.5,32,426.2,33.9z M428.2,23.7v2.7h8v-2.7H428.2z"/>
	</g>
</g>
<g>
	<g>
		<rect x="632.1" y="4" style="opacity:0.6;fill:#BBBBBB;enable-background:new    ;" width="118" height="50"/>
		<rect x="630.1" y="2" style="fill:#FFFFFF;stroke:#E5E5E5;" width="118" height="50"/>
	</g>
	<g style="enable-background:new    ;">
		<path style="fill:#444444;" d="M648.7,24.2l-0.9-0.5c0.9-0.9,1.5-1.8,1.9-2.8l1,0.2c-0.1,0.3-0.3,0.6-0.4,0.9h3.7v0.9h-2.3
			c0.4,0.4,0.6,0.8,0.8,1.2l-0.9,0.3c-0.3-0.5-0.6-1-1-1.5h-0.9C649.5,23.3,649.1,23.8,648.7,24.2z M649,25.6v-0.9h10.2v3.2h-4.6
			v1.4h5.1c0,1.7-0.1,2.7-0.3,3.1c-0.2,0.5-0.7,0.7-1.5,0.7c-0.6,0-1.2,0-1.7,0l-0.3-1c0.6,0,1.3,0,1.8,0c0.4,0,0.7-0.2,0.8-0.5
			c0.1-0.3,0.1-0.8,0.1-1.6h-4v3.7h-1v-3.7h0c-0.9,1.3-2.6,2.5-5.2,3.4l-0.6-0.9c2.2-0.7,3.8-1.6,4.6-2.5h-3.8l0.6-3.2h4.3v-1.3H649
			z M650.2,27.8l-0.3,1.4h3.8v-1.4H650.2z M654.7,24.2l-0.9-0.5c0.8-0.9,1.3-1.8,1.7-2.8l1,0.2c-0.1,0.3-0.2,0.6-0.3,0.8h4.1v0.9
			h-2.5c0.4,0.4,0.6,0.9,0.8,1.2l-0.9,0.3c-0.3-0.5-0.6-1.1-1-1.6h-1C655.4,23.3,655.1,23.8,654.7,24.2z M658.1,26.9v-1.3h-3.5v1.3
			H658.1z"/>
		<path style="fill:#444444;" d="M674.7,32v1h-12.6v-1H674.7z M673.7,22v1h-10.6v-1H673.7z M672.7,26.9v1H664v-1H672.7z"/>
		<path style="fill:#444444;" d="M682.7,23c-0.3-0.6-0.6-1.2-1-1.8l1-0.3c0.4,0.6,0.8,1.3,1.1,2.1h5.2v1h-7.4l-0.1,2.5v0h5.8
			c0,2.8-0.1,4.6-0.3,5.3c-0.3,1.2-1,1.8-2.1,1.8c-0.4,0-1,0-1.6-0.1l-0.3-0.9c0.7,0,1.3,0,1.8,0c0.7,0,1.1-0.5,1.3-1.5
			c0.1-0.6,0.1-1.9,0.2-3.8h-4.9c-0.2,1.1-0.5,2.2-1,3.1c-0.7,1.2-1.6,2.3-2.9,3.3l-0.7-0.7c1.5-1.3,2.5-2.4,3-3.5
			c0.5-1.1,0.7-2.3,0.8-3.6c0-0.9,0.1-1.6,0.1-2h-3.9v-1H682.7z"/>
		<path style="fill:#444444;" d="M697.1,23c0.7,0.5,1.1,1.3,1.1,2.4h-1.1c-0.1-0.7-0.4-1.3-0.8-1.6c-0.4-0.4-1.1-0.5-1.9-0.5
			c-0.7,0-1.3,0.1-1.7,0.4c-0.5,0.3-0.7,0.7-0.7,1.3c0,0.5,0.3,0.9,0.9,1.2c0.3,0.1,0.9,0.3,1.8,0.6c1.3,0.4,2.2,0.7,2.6,1
			c0.8,0.5,1.2,1.2,1.2,2.1c0,0.9-0.3,1.6-1.1,2.1c-0.7,0.5-1.6,0.7-2.8,0.7c-1.2,0-2.1-0.3-2.8-0.8c-0.8-0.6-1.2-1.5-1.3-2.7h1.1
			c0.1,0.9,0.4,1.5,0.9,1.9c0.5,0.4,1.1,0.6,2,0.6c0.8,0,1.5-0.2,2-0.5c0.5-0.3,0.8-0.7,0.8-1.3c0-0.6-0.3-1.1-1-1.5
			c-0.3-0.2-1-0.4-2.1-0.7c-1.2-0.4-2-0.6-2.3-0.8c-0.8-0.4-1.1-1.1-1.1-1.9c0-0.9,0.4-1.6,1.1-2c0.7-0.4,1.5-0.7,2.6-0.7
			C695.6,22.2,696.5,22.5,697.1,23z"/>
		<path style="fill:#444444;" d="M705.8,26.1c0.5,0.7,0.8,1.7,0.8,3h-5.7c0.1,0.8,0.3,1.4,0.7,1.9s0.9,0.7,1.6,0.7
			c0.6,0,1.1-0.2,1.4-0.4c0.3-0.3,0.5-0.6,0.7-1.1h1.1c-0.2,0.7-0.5,1.3-1,1.7c-0.6,0.5-1.4,0.8-2.3,0.8c-1,0-1.9-0.4-2.5-1
			c-0.6-0.7-1-1.6-1-2.8c0-1.1,0.3-2,0.9-2.7c0.6-0.8,1.4-1.1,2.5-1.1C704.3,25,705.2,25.4,705.8,26.1z M701.6,26.5
			c-0.4,0.4-0.6,1-0.7,1.7h4.5c-0.1-1.6-0.9-2.3-2.3-2.3C702.5,25.9,702,26.1,701.6,26.5z"/>
		<path style="fill:#444444;" d="M712.4,25.1v1.1c-0.4-0.1-0.7-0.2-1.1-0.2c-0.6,0-1,0.2-1.4,0.7c-0.4,0.5-0.6,1-0.6,1.7v3.8h-1.1
			v-7.2h1.1v1.3c0.2-0.4,0.4-0.8,0.8-1c0.4-0.3,0.8-0.5,1.3-0.5C711.8,25,712.2,25,712.4,25.1z"/>
		<path style="fill:#444444;" d="M714.2,25.2l2.1,5.8l2.1-5.8h1.2l-2.7,7.2h-1.1l-2.7-7.2H714.2z"/>
		<path style="fill:#444444;" d="M726.4,26.1c0.5,0.7,0.8,1.7,0.8,3h-5.7c0.1,0.8,0.3,1.4,0.7,1.9c0.4,0.4,0.9,0.7,1.6,0.7
			c0.6,0,1.1-0.2,1.4-0.4c0.3-0.3,0.5-0.6,0.7-1.1h1.1c-0.2,0.7-0.5,1.3-1,1.7c-0.6,0.5-1.4,0.8-2.3,0.8c-1,0-1.9-0.4-2.5-1
			c-0.6-0.7-1-1.6-1-2.8c0-1.1,0.3-2,0.9-2.7c0.6-0.8,1.4-1.1,2.5-1.1C725,25,725.8,25.4,726.4,26.1z M722.3,26.5
			c-0.4,0.4-0.6,1-0.7,1.7h4.5c-0.1-1.6-0.9-2.3-2.3-2.3C723.2,25.9,722.7,26.1,722.3,26.5z"/>
		<path style="fill:#444444;" d="M733.1,25.1v1.1c-0.4-0.1-0.7-0.2-1.1-0.2c-0.6,0-1,0.2-1.4,0.7c-0.4,0.5-0.6,1-0.6,1.7v3.8h-1.1
			v-7.2h1.1v1.3c0.2-0.4,0.4-0.8,0.8-1c0.4-0.3,0.8-0.5,1.3-0.5C732.5,25,732.8,25,733.1,25.1z"/>
	</g>
</g>
<g>
	<g>
		<rect x="424.6" y="502" style="opacity:0.6;fill:#BBBBBB;enable-background:new    ;" width="118" height="50"/>
		<rect x="422.6" y="500" style="fill:#FFFFFF;stroke:#E5E5E5;" width="118" height="50"/>
	</g>
	<g style="enable-background:new    ;">
		<path style="fill:#444444;" d="M456.2,531.8l-0.8-0.7c0.6-1.3,0.8-2.9,0.9-4.8v-6.7h4.1v10.9c0,0.8-0.4,1.3-1.2,1.3h-1.1l-0.2-0.9
			c0.4,0,0.7,0.1,1.1,0.1c0.3,0,0.5-0.3,0.5-0.8V527h-2.3C457.1,529,456.7,530.6,456.2,531.8z M459.4,520.5h-2.3v2.4h2.3V520.5z
			 M457.2,526.1h2.3v-2.3h-2.3V526.1z M462.5,531.8h-1v-12.3h5.7c0,1.7-0.1,2.9-0.3,3.4c-0.2,0.6-0.7,0.9-1.6,0.9h-1.1L464,523
			c0.2,0,0.5,0,0.9,0c0.3,0,0.6,0,0.7-0.1c0.2-0.1,0.3-0.2,0.4-0.4c0.1-0.3,0.2-1,0.2-2.1h-3.7v4.2h4.8v0.9
			c-0.3,1.4-0.7,2.7-1.4,3.7c0.6,0.6,1.4,1.2,2.2,1.7l-0.5,0.9c-0.9-0.5-1.7-1.1-2.3-1.7c-0.6,0.7-1.3,1.3-2.2,1.7l-0.5-0.8
			c0.8-0.4,1.5-1,2-1.7c-0.9-1.1-1.5-2.3-1.8-3.7h-0.3V531.8z M465.2,528.5c0.5-0.8,0.9-1.8,1.1-2.9h-2.7
			C464,526.7,464.5,527.7,465.2,528.5z"/>
		<path style="fill:#444444;" d="M474.5,519c-0.2,0.4-0.3,0.7-0.5,1.1h6.1v0.8c-0.9,1-2,1.9-3.3,2.6c1.6,0.7,3.3,1.1,5.3,1.3
			l-0.5,0.9c-2.2-0.3-4.2-0.8-5.9-1.7c-1.7,0.8-3.7,1.4-6,1.7l-0.5-1c2-0.3,3.8-0.7,5.4-1.3c-0.8-0.5-1.5-1-2.2-1.6
			c-0.5,0.5-1.1,0.9-1.8,1.3l-0.6-0.8c1.7-1,2.8-2.1,3.4-3.5L474.5,519z M475.8,525.1c0,0.6-0.1,1.1-0.1,1.6h4.9
			c0,2.4-0.2,3.8-0.6,4.2c-0.4,0.5-1.1,0.7-2.1,0.7c-0.4,0-1,0-1.6-0.1l-0.3-0.9l1.7,0.1c0.8,0,1.4-0.2,1.6-0.5
			c0.2-0.3,0.3-1.2,0.4-2.6h-4.1c-0.1,0.4-0.3,0.7-0.4,1c-0.7,1.3-2.4,2.3-4.9,3.1l-0.7-0.8c2.3-0.7,3.8-1.5,4.6-2.5
			c0.2-0.3,0.3-0.5,0.4-0.8h-4.2v-0.9h4.5c0.1-0.5,0.2-1,0.2-1.6H475.8z M478.6,521.1h-5.4l-0.2,0.2c0.8,0.7,1.7,1.3,2.6,1.8
			C476.8,522.5,477.8,521.8,478.6,521.1z"/>
		<path style="fill:#444444;" d="M488.2,519.5v4.4h-1.4v2.3h1.5v1h-1.5v2.6c0.6-0.2,1.2-0.4,1.8-0.6v1c-1.5,0.5-3.2,1.1-5.1,1.5
			l-0.3-1l0.7-0.2v-5.1h0.9v4.9c0.4-0.1,0.7-0.2,1-0.3v-6.1h-2v-4.4H488.2z M487.2,520.4h-2.4v2.5h2.4V520.4z M491.8,519.1
			c-0.1,0.4-0.2,0.7-0.4,1h3.5v0.7c-0.5,1.2-1.2,2.2-2.1,3.1c0.9,0.8,2,1.3,3.3,1.8l-0.6,0.8c-1.4-0.4-2.5-1.1-3.5-1.9
			c-1,0.8-2.1,1.4-3.4,2l-0.6-0.8c1.3-0.5,2.4-1.1,3.3-1.9c-0.5-0.5-0.9-1.1-1.3-1.8c-0.4,0.4-0.8,0.8-1.2,1.2l-0.6-0.8
			c1.2-1,2.1-2.2,2.5-3.6L491.8,519.1z M494.9,531.8h-1v-0.6h-3.5v0.6h-1v-5.2h5.5V531.8z M493.9,530.2v-2.7h-3.5v2.7H493.9z
			 M492.1,523.3c0.7-0.7,1.3-1.5,1.7-2.3H491c-0.1,0.1-0.2,0.2-0.2,0.4C491.1,522.1,491.6,522.8,492.1,523.3z"/>
		<path style="fill:#444444;" d="M508.9,531.7h-1v-0.9h-8.4v0.9h-1v-10.5h4.7V519h1v2.2h4.7V531.7z M503.1,525.4v-3.2h-3.7v3.2
			H503.1z M503.1,529.8v-3.5h-3.7v3.5H503.1z M504.1,525.4h3.7v-3.2h-3.7V525.4z M507.8,529.8v-3.5h-3.7v3.5H507.8z"/>
	</g>
</g>
<g>
	<g>
		<rect x="559.9" y="441.6" style="opacity:0.6;fill:#BBBBBB;enable-background:new    ;" width="118" height="50"/>
		<rect x="557.9" y="439.6" style="fill:#FFFFFF;stroke:#E5E5E5;" width="118" height="50"/>
	</g>
	<g style="enable-background:new    ;">
		<path style="fill:#444444;" d="M591.4,471.5l-0.8-0.7c0.6-1.3,0.8-2.9,0.9-4.8v-6.7h4.1v10.9c0,0.8-0.4,1.3-1.2,1.3h-1.1l-0.2-0.9
			c0.4,0,0.7,0.1,1.1,0.1c0.3,0,0.5-0.3,0.5-0.8v-3.2h-2.3C592.3,468.6,592,470.2,591.4,471.5z M594.7,460.1h-2.3v2.4h2.3V460.1z
			 M592.4,465.7h2.3v-2.3h-2.3V465.7z M597.7,471.5h-1v-12.3h5.7c0,1.7-0.1,2.9-0.3,3.4c-0.2,0.6-0.7,0.9-1.6,0.9h-1.1l-0.3-0.9
			c0.2,0,0.5,0,0.9,0c0.3,0,0.6,0,0.7-0.1c0.2-0.1,0.3-0.2,0.4-0.4c0.1-0.3,0.2-1,0.2-2.1h-3.7v4.2h4.8v0.9
			c-0.3,1.4-0.7,2.7-1.4,3.7c0.6,0.6,1.4,1.2,2.2,1.7l-0.5,0.9c-0.9-0.5-1.7-1.1-2.3-1.7c-0.6,0.7-1.3,1.3-2.2,1.7l-0.5-0.8
			c0.8-0.4,1.5-1,2-1.7c-0.9-1.1-1.5-2.3-1.8-3.7h-0.3V471.5z M600.4,468.2c0.5-0.8,0.9-1.8,1.1-2.9h-2.7
			C599.2,466.3,599.7,467.3,600.4,468.2z"/>
		<path style="fill:#444444;" d="M609.7,458.7c-0.2,0.4-0.3,0.7-0.5,1.1h6.1v0.8c-0.9,1-2,1.9-3.3,2.6c1.6,0.7,3.3,1.1,5.3,1.3
			l-0.5,0.9c-2.2-0.3-4.2-0.8-5.9-1.7c-1.7,0.8-3.7,1.4-6,1.7l-0.5-1c2-0.3,3.8-0.7,5.4-1.3c-0.8-0.5-1.5-1-2.2-1.6
			c-0.5,0.5-1.1,0.9-1.8,1.3l-0.6-0.8c1.7-1,2.8-2.1,3.4-3.5L609.7,458.7z M611,464.8c0,0.6-0.1,1.1-0.1,1.6h4.9
			c0,2.4-0.2,3.8-0.6,4.2c-0.4,0.5-1.1,0.7-2.1,0.7c-0.4,0-1,0-1.6-0.1l-0.3-0.9l1.7,0.1c0.8,0,1.4-0.2,1.6-0.5
			c0.2-0.3,0.3-1.2,0.4-2.6h-4.1c-0.1,0.4-0.3,0.7-0.4,1c-0.7,1.3-2.4,2.3-4.9,3.1l-0.7-0.8c2.3-0.7,3.8-1.5,4.6-2.5
			c0.2-0.3,0.3-0.5,0.4-0.8h-4.2v-0.9h4.5c0.1-0.5,0.2-1,0.2-1.6H611z M613.8,460.7h-5.4l-0.2,0.2c0.8,0.7,1.7,1.3,2.6,1.8
			C612,462.1,613,461.5,613.8,460.7z"/>
		<path style="fill:#444444;" d="M619.2,466.3l-0.5-0.8c2.5-0.7,4.5-1.6,5.8-2.7h0.8c1.1,1,3.1,1.9,5.8,2.7l-0.5,0.9
			c-0.9-0.3-1.6-0.5-2.3-0.8v0.6h-2.9v1.1h4.8v0.9h-4.8v2.1h1.7c0.3-0.6,0.6-1.2,0.8-1.9l1,0.4c-0.2,0.6-0.5,1.1-0.8,1.5h2.6v0.9
			h-11.6v-0.9h2.5c-0.2-0.5-0.4-1-0.7-1.5l1-0.4c0.3,0.5,0.5,1.1,0.7,1.8h1.7v-2.1h-4.9v-0.9h4.9v-1.1h-2.8v-0.6
			C620.8,465.8,620,466.1,619.2,466.3z M620.3,459.3v4h-0.9v-4H620.3z M624.9,463.5c-0.8,0.6-1.8,1.2-2.8,1.7h5.7
			C626.6,464.7,625.6,464.2,624.9,463.5z M623.1,458.8v4.9h-1v-4.9H623.1z M624.9,462.7l-0.7-0.6c0.9-0.9,1.6-2.1,2.1-3.5l0.9,0.2
			c-0.1,0.4-0.2,0.7-0.4,1h4.1v0.9h-4.6C625.9,461.5,625.4,462.1,624.9,462.7z M630,463.1l-0.6,0.7c-0.7-0.8-1.5-1.4-2.3-1.9
			l0.7-0.6C628.5,461.7,629.3,462.3,630,463.1z"/>
		<path style="fill:#444444;" d="M635.9,471.4h-1v-7.3c-0.5,1.5-1.2,2.8-2,4l-0.4-1.1c1.1-1.4,2-2.9,2.5-4.7h-2.2v-1h2.2v-2.7h1v2.7
			h1.8v1h-1.8v0.8c0.7,0.7,1.4,1.4,2.1,2.3l-0.6,0.9c-0.6-0.9-1.1-1.6-1.6-2.1V471.4z M638.6,460.4h-0.6v-1h6.3v1
			c-0.4,2.6-1.2,4.9-2.4,6.8c0.9,1.3,2,2.4,3.4,3.4l-0.7,0.8c-1.3-1-2.4-2.2-3.3-3.4c-1,1.3-2.2,2.5-3.6,3.4l-0.6-0.8
			c1.5-1,2.7-2.1,3.6-3.5C639.6,465.1,638.8,462.9,638.6,460.4z M639.6,460.4c0.2,2.2,0.8,4.1,1.8,5.8c1-1.7,1.7-3.6,2-5.8H639.6z"
			/>
	</g>
</g>
<g>
	<g>
		<rect x="559.9" y="502" style="opacity:0.6;fill:#BBBBBB;enable-background:new    ;" width="118" height="50"/>
		<rect x="557.9" y="500" style="fill:#FFFFFF;stroke:#E5E5E5;" width="118" height="50"/>
	</g>
	<g style="enable-background:new    ;">
		<path style="fill:#444444;" d="M591.4,531.8l-0.8-0.7c0.6-1.3,0.8-2.9,0.9-4.8v-6.7h4.1v10.9c0,0.8-0.4,1.3-1.2,1.3h-1.1l-0.2-0.9
			c0.4,0,0.7,0.1,1.1,0.1c0.3,0,0.5-0.3,0.5-0.8V527h-2.3C592.3,529,592,530.6,591.4,531.8z M594.7,520.5h-2.3v2.4h2.3V520.5z
			 M592.4,526.1h2.3v-2.3h-2.3V526.1z M597.7,531.8h-1v-12.3h5.7c0,1.7-0.1,2.9-0.3,3.4c-0.2,0.6-0.7,0.9-1.6,0.9h-1.1l-0.3-0.9
			c0.2,0,0.5,0,0.9,0c0.3,0,0.6,0,0.7-0.1c0.2-0.1,0.3-0.2,0.4-0.4c0.1-0.3,0.2-1,0.2-2.1h-3.7v4.2h4.8v0.9
			c-0.3,1.4-0.7,2.7-1.4,3.7c0.6,0.6,1.4,1.2,2.2,1.7l-0.5,0.9c-0.9-0.5-1.7-1.1-2.3-1.7c-0.6,0.7-1.3,1.3-2.2,1.7l-0.5-0.8
			c0.8-0.4,1.5-1,2-1.7c-0.9-1.1-1.5-2.3-1.8-3.7h-0.3V531.8z M600.4,528.5c0.5-0.8,0.9-1.8,1.1-2.9h-2.7
			C599.2,526.7,599.7,527.7,600.4,528.5z"/>
		<path style="fill:#444444;" d="M609.7,519c-0.2,0.4-0.3,0.7-0.5,1.1h6.1v0.8c-0.9,1-2,1.9-3.3,2.6c1.6,0.7,3.3,1.1,5.3,1.3
			l-0.5,0.9c-2.2-0.3-4.2-0.8-5.9-1.7c-1.7,0.8-3.7,1.4-6,1.7l-0.5-1c2-0.3,3.8-0.7,5.4-1.3c-0.8-0.5-1.5-1-2.2-1.6
			c-0.5,0.5-1.1,0.9-1.8,1.3l-0.6-0.8c1.7-1,2.8-2.1,3.4-3.5L609.7,519z M611,525.1c0,0.6-0.1,1.1-0.1,1.6h4.9
			c0,2.4-0.2,3.8-0.6,4.2c-0.4,0.5-1.1,0.7-2.1,0.7c-0.4,0-1,0-1.6-0.1l-0.3-0.9l1.7,0.1c0.8,0,1.4-0.2,1.6-0.5
			c0.2-0.3,0.3-1.2,0.4-2.6h-4.1c-0.1,0.4-0.3,0.7-0.4,1c-0.7,1.3-2.4,2.3-4.9,3.1l-0.7-0.8c2.3-0.7,3.8-1.5,4.6-2.5
			c0.2-0.3,0.3-0.5,0.4-0.8h-4.2v-0.9h4.5c0.1-0.5,0.2-1,0.2-1.6H611z M613.8,521.1h-5.4l-0.2,0.2c0.8,0.7,1.7,1.3,2.6,1.8
			C612,522.5,613,521.8,613.8,521.1z"/>
		<path style="fill:#444444;" d="M623.2,519.5v0.8c-0.4,1.3-0.9,2.6-1.5,4c0.9,1.2,1.3,2.4,1.4,3.4c0,0.6-0.1,1-0.4,1.3
			c-0.4,0.3-1,0.5-2,0.5l-0.3-1c0.2,0,0.4,0.1,0.5,0.1c0.5,0,0.8-0.1,1-0.2c0.2-0.1,0.2-0.3,0.2-0.6c0-1-0.5-2-1.4-3.2
			c0.6-1.5,1.1-2.8,1.5-4H620v11.3h-1v-12.3H623.2z M626.7,519.1c-0.2,0.3-0.4,0.6-0.5,0.9h4.1v0.8c-0.4,0.9-1.1,1.7-2.1,2.4
			c0.9,0.4,2,0.7,3.2,0.9l-0.4,0.9c-1.5-0.3-2.8-0.7-3.8-1.2c-1,0.5-2.3,1-3.7,1.3l-0.5-0.9c1.3-0.3,2.4-0.6,3.3-1
			c-0.6-0.4-1.1-0.9-1.5-1.4c-0.4,0.3-0.7,0.7-1.1,1l-0.6-0.8c1.1-0.8,2.1-1.9,2.8-3.2L626.7,519.1z M624.2,527.1l0.9,0.1l-0.4,1.4
			h2.2v-2h-3.4v-0.9h3.4v-1h1v1h2.5v0.9h-2.5v2h3v0.9h-3v2.2h-1v-2.2h-3.4L624.2,527.1z M629.1,520.9h-3.6c-0.1,0.1-0.1,0.2-0.2,0.3
			c0.4,0.6,1,1.1,1.8,1.6C628,522.3,628.7,521.6,629.1,520.9z"/>
		<path style="fill:#444444;" d="M636.7,529.8c-1.2,0.5-2.6,0.9-4.2,1.2l-0.1-1c1.6-0.3,3.1-0.7,4.3-1.2V529.8z M636,519.3
			c-0.7,1.8-1.5,3.2-2.2,4.2c0.7-0.1,1.3-0.2,2-0.3c0.3-0.5,0.5-1,0.8-1.5l0.9,0.3c-1.3,2.3-2.4,3.9-3.3,4.9c1-0.2,2-0.4,3-0.7v0.9
			c-1.5,0.4-2.9,0.7-4.3,0.9l-0.3-0.9c0.2-0.1,0.3-0.2,0.5-0.3c0.6-0.5,1.2-1.4,2-2.7c-0.8,0.1-1.6,0.2-2.4,0.3l-0.3-0.9
			c0.2-0.1,0.3-0.2,0.4-0.4c0.8-1.2,1.5-2.7,2.1-4.3L636,519.3z M637.5,520.5v-1h6.1v0.6c-0.2,1.3-0.4,2.3-0.7,3.2h1.8v0.6
			c-0.3,1.9-0.9,3.6-1.9,4.9c0.7,0.8,1.6,1.5,2.6,2.1l-0.6,0.8c-1-0.6-1.8-1.4-2.5-2.2c-0.8,0.9-1.9,1.6-3.1,2.2l-0.6-0.9
			c1.2-0.6,2.2-1.3,3-2.1c-0.8-1.1-1.5-2.4-1.9-3.9c-0.4,3-1.3,5.2-2.8,6.8l-0.7-0.7c1.8-2,2.7-5.3,2.8-9.8v-0.8H637.5z
			 M643.7,524.3h-1.9c0.3-0.9,0.5-2.1,0.8-3.8h-2.7v0.8c0,0.5,0,1,0,1.5c0.4,2,1.1,3.8,2.3,5.3C642.9,527,643.4,525.7,643.7,524.3z"
			/>
	</g>
</g>
<g>
	<g>
		<rect x="695.1" y="441.6" style="opacity:0.6;fill:#BBBBBB;enable-background:new    ;" width="118" height="50"/>
		<rect x="693.1" y="439.6" style="fill:#FFFFFF;stroke:#E5E5E5;" width="118" height="50"/>
	</g>
	<g style="enable-background:new    ;">
		<path style="fill:#444444;" d="M726.7,471.5l-0.8-0.7c0.6-1.3,0.8-2.9,0.9-4.8v-6.7h4.1v10.9c0,0.8-0.4,1.3-1.2,1.3h-1.1l-0.2-0.9
			c0.4,0,0.7,0.1,1.1,0.1c0.4,0,0.5-0.3,0.5-0.8v-3.2h-2.3C727.6,468.6,727.2,470.2,726.7,471.5z M729.9,460.1h-2.3v2.4h2.3V460.1z
			 M727.7,465.7h2.3v-2.3h-2.3V465.7z M733,471.5h-1v-12.3h5.7c0,1.7-0.1,2.9-0.3,3.4c-0.2,0.6-0.7,0.9-1.6,0.9h-1.1l-0.3-0.9
			c0.2,0,0.5,0,0.9,0c0.3,0,0.6,0,0.7-0.1c0.2-0.1,0.3-0.2,0.4-0.4c0.1-0.3,0.2-1,0.2-2.1H733v4.2h4.8v0.9c-0.3,1.4-0.7,2.7-1.4,3.7
			c0.6,0.6,1.4,1.2,2.2,1.7l-0.5,0.9c-0.9-0.5-1.7-1.1-2.3-1.7c-0.6,0.7-1.3,1.3-2.2,1.7l-0.5-0.8c0.8-0.4,1.5-1,2-1.7
			c-0.9-1.1-1.5-2.3-1.8-3.7H733V471.5z M735.7,468.2c0.5-0.8,0.9-1.8,1.1-2.9h-2.7C734.5,466.3,735,467.3,735.7,468.2z"/>
		<path style="fill:#444444;" d="M745,458.7c-0.2,0.4-0.3,0.7-0.5,1.1h6.1v0.8c-0.9,1-2,1.9-3.3,2.6c1.6,0.7,3.3,1.1,5.3,1.3
			l-0.5,0.9c-2.2-0.3-4.2-0.8-5.9-1.7c-1.7,0.8-3.7,1.4-6,1.7l-0.5-1c2-0.3,3.8-0.7,5.4-1.3c-0.8-0.5-1.5-1-2.2-1.6
			c-0.5,0.5-1.1,0.9-1.8,1.3l-0.6-0.8c1.7-1,2.8-2.1,3.4-3.5L745,458.7z M746.3,464.8c0,0.6-0.1,1.1-0.1,1.6h4.9
			c0,2.4-0.2,3.8-0.6,4.2c-0.4,0.5-1.1,0.7-2.1,0.7c-0.4,0-1,0-1.6-0.1l-0.3-0.9l1.7,0.1c0.8,0,1.4-0.2,1.6-0.5
			c0.2-0.3,0.3-1.2,0.4-2.6h-4.1c-0.1,0.4-0.3,0.7-0.4,1c-0.7,1.3-2.4,2.3-4.9,3.1l-0.7-0.8c2.3-0.7,3.8-1.5,4.6-2.5
			c0.2-0.3,0.3-0.5,0.4-0.8h-4.2v-0.9h4.5c0.1-0.5,0.2-1,0.2-1.6H746.3z M749.1,460.7h-5.4l-0.2,0.2c0.8,0.7,1.7,1.3,2.6,1.8
			C747.3,462.1,748.3,461.5,749.1,460.7z"/>
		<path style="fill:#444444;" d="M756.6,462.9v5.8c0.3-0.3,0.7-0.6,1-1l0.3,1c-0.7,0.7-1.4,1.3-2.2,1.9l-0.4-0.9
			c0.2-0.2,0.3-0.3,0.3-0.6v-5.3h-1.9v-1H756.6z M757.6,460.9l-0.7,0.7c-0.6-0.7-1.3-1.4-2.2-2.1l0.7-0.7
			C756.3,459.5,757,460.2,757.6,460.9z M766,470.1c0,0.8-0.4,1.2-1.3,1.2h-1.3l-0.2-0.9c0.5,0,0.9,0,1.3,0c0.4,0,0.6-0.2,0.6-0.7
			v-9.7h-5.7v6.8c0,1.9-0.4,3.4-1.2,4.6l-0.7-0.7c0.7-1,1-2.3,1-3.9v-7.7h7.6V470.1z M761.7,461.7v-1.1h1v1.1h1.6v0.8h-1.6v1.3h1.9
			v0.8h-4.7v-0.8h1.8v-1.3h-1.6v-0.8H761.7z M764.1,465.7v3.6h-3.7v-3.6H764.1z M763.2,466.5h-2v1.9h2V466.5z"/>
		<path style="fill:#444444;" d="M770,464.3c-0.1,3-0.6,5.4-1.5,7.1l-0.8-0.7c0.8-1.6,1.2-3.7,1.3-6.5v-4.6h5.4
			c-0.2-0.4-0.3-0.7-0.5-1l1.1-0.2c0.2,0.4,0.3,0.7,0.5,1.2h4.8v1H770v1.6h2.4v-1.1h1v1.1h3.7v-1.1h1v1.1h2.2v0.9H778v2.2h-5.7v-2.2
			H770V464.3z M779,466.3v0.7c-0.8,1-1.7,1.8-2.9,2.5c1.3,0.5,2.7,0.9,4.4,1.1l-0.4,0.9c-1.9-0.3-3.6-0.8-4.9-1.5
			c-1.4,0.7-3.1,1.2-4.9,1.5l-0.4-0.9c1.6-0.2,3.1-0.6,4.3-1.1c-1-0.6-1.9-1.4-2.5-2.3h-0.9v-0.9H779z M775.1,469
			c1-0.5,1.8-1.1,2.6-1.8h-5C773.3,467.9,774.1,468.5,775.1,469z M773.3,464.5h3.7v-1.3h-3.7V464.5z"/>
	</g>
</g>
<g>
	<g>
		<rect x="695.1" y="502" style="opacity:0.6;fill:#BBBBBB;enable-background:new    ;" width="118" height="50"/>
		<rect x="693.1" y="500" style="fill:#FFFFFF;stroke:#E5E5E5;" width="118" height="50"/>
	</g>
	<g style="enable-background:new    ;">
		<path style="fill:#444444;" d="M728.8,524.5l-0.7,0.7c-0.5-0.6-1.3-1.3-2.2-2.1l0.7-0.7C727.5,523.2,728.2,523.9,728.8,524.5z
			 M728.9,526.6c-0.6,1.8-1.2,3.5-1.8,5l-0.9-0.4c0.7-1.6,1.3-3.3,1.9-5L728.9,526.6z M729.1,521l-0.7,0.7c-0.5-0.6-1.2-1.2-2.2-1.8
			l0.7-0.7C727.8,519.8,728.5,520.4,729.1,521z M731.5,525.4c-0.1,1.8-0.2,3.2-0.5,4c-0.3,0.9-0.9,1.7-1.7,2.3l-0.6-0.8
			c0.7-0.5,1.1-1.2,1.4-1.9c0.3-0.7,0.4-1.9,0.5-3.6H731.5z M729.7,524c0.1,0,0.2-0.1,0.2-0.1c0.5-0.3,1.2-1.2,2-2.6h-2.5v-0.9h3.9
			c-0.2-0.5-0.4-1-0.6-1.4l1-0.2c0.2,0.5,0.4,1,0.6,1.6h3.7v0.9H733c-0.7,1.2-1.2,2-1.7,2.6c1.6-0.1,3.2-0.2,4.8-0.4
			c-0.3-0.4-0.6-0.8-1-1.2l0.8-0.5c1,1.1,1.7,2.1,2.2,3l-0.8,0.6c-0.2-0.3-0.4-0.7-0.6-1.1c-2.1,0.2-4.3,0.4-6.7,0.6L729.7,524z
			 M733.8,525.5v6.1h-1v-6.1H733.8z M736.5,531.7c-0.8,0-1.2-0.4-1.2-1.1v-5.1h1v4.9c0,0.2,0.1,0.3,0.3,0.3h0.6
			c0.3,0,0.4-0.2,0.4-0.5c0.1-0.3,0.1-0.9,0.1-1.6l0.9,0.3c0,1.2-0.1,2-0.3,2.3c-0.2,0.3-0.5,0.4-1.1,0.4H736.5z"/>
		<path style="fill:#444444;" d="M752.4,523.4v0.8h-12.6v-0.8H752.4z M751,524.8v3.6h-4.4v0.8h4.7v0.7h-4.7v0.8h5.8v0.8h-12.5v-0.8
			h5.7v-0.8h-4.7v-0.7h4.7v-0.8h-4.3v-3.6H751z M750.7,519.2v3.5h-9.1v-3.5H750.7z M745.6,526.3v-0.9h-3.4v0.9H745.6z M745.6,526.9
			h-3.4v0.9h3.4V526.9z M749.7,520.6v-0.8h-7.2v0.8H749.7z M749.7,521.2h-7.2v0.8h7.2V521.2z M746.6,526.3h3.4v-0.9h-3.4V526.3z
			 M750,526.9h-3.4v0.9h3.4V526.9z"/>
		<path style="fill:#444444;" d="M754.2,531.7l-0.2-1c0.4,0,0.7,0.1,1.1,0.1c0.4,0,0.5-0.2,0.5-0.5v-3.4c-0.6,0.2-1.1,0.4-1.7,0.6
			l-0.3-1c0.7-0.2,1.3-0.4,1.9-0.6v-3.1h-1.7v-1h1.7V519h1v2.7h1.2v1h-1.2v2.7c0.4-0.2,0.8-0.4,1.2-0.6v1c-0.4,0.2-0.8,0.4-1.2,0.6
			v4.1c0,0.8-0.4,1.2-1.2,1.2H754.2z M758.5,527.3v-0.9h7.5v0.9h-3.2v3.1h3.7v1H758v-1h3.8v-3.1H758.5z M762.9,520.5h3.3v2.6h-0.9
			v-1.7h-5.9v1.7h-1v-2.6h3.5c-0.2-0.6-0.5-1.1-0.7-1.5l1-0.2C762.4,519.3,762.6,519.9,762.9,520.5z M761.7,522.6
			c-0.6,1.4-1.5,2.5-2.5,3.2l-0.7-0.6c1.1-0.7,1.8-1.7,2.4-2.9L761.7,522.6z M765.9,525.2l-0.9,0.4c-0.7-1.1-1.4-2.2-2.3-3.1
			l0.9-0.4C764.4,523.1,765.2,524.1,765.9,525.2z"/>
		<path style="fill:#444444;" d="M768.4,523.1l-0.8-0.6c0.7-0.8,1.1-1.8,1.3-3.1l1,0.2c-0.1,0.4-0.2,0.9-0.3,1.2h1.6V519h1v1.7h2.6
			v0.9h-2.6v1.8h3v0.9h-3v1.5h2.7v3.7c0,0.8-0.4,1.2-1.3,1.2H773l-0.3-1l0.7,0c0.4,0,0.6-0.2,0.6-0.5v-2.5h-1.8v5h-1v-5h-1.8v4.1h-1
			v-5h2.8v-1.5h-3.4v-0.9h3.4v-1.8h-2C769,522.2,768.7,522.7,768.4,523.1z M777.1,520.3v8.7h-1v-8.7H777.1z M776.6,531.7l-0.2-1
			c0.7,0,1.3,0.1,1.9,0.1c0.4,0,0.6-0.2,0.6-0.7V519h1v11.4c0,0.9-0.4,1.3-1.3,1.3H776.6z"/>
	</g>
</g>
<g>
	<g>
		<rect x="289.4" y="629.6" style="opacity:0.6;fill:#BBBBBB;enable-background:new    ;" width="118" height="50"/>
		<rect x="287.4" y="627.6" style="fill:#FFFFFF;stroke:#E5E5E5;" width="118" height="50"/>
	</g>
	<g style="enable-background:new    ;">
		<path style="fill:#444444;" d="M323.2,652.2l-0.7,0.7c-0.6-0.7-1.3-1.4-2.3-2.1l0.7-0.7C321.8,650.8,322.5,651.5,323.2,652.2z
			 M323.5,654.2c-0.7,1.8-1.5,3.5-2.3,5.1l-0.9-0.4c0.9-1.6,1.7-3.3,2.3-5L323.5,654.2z M323.7,648.9l-0.7,0.7
			c-0.6-0.7-1.4-1.4-2.4-2.1l0.7-0.7C322.2,647.5,323,648.2,323.7,648.9z M326.5,649.4l-0.8,0.4c-0.5-0.9-1-1.7-1.6-2.4l0.8-0.4
			C325.5,647.7,326,648.5,326.5,649.4z M328.8,646.6v3.8h3v7.5c0,0.9-0.4,1.4-1.3,1.4h-1.6l-0.3-1l1.6,0c0.4,0,0.7-0.2,0.7-0.7v-1.4
			h-5.1v3h-1v-8.9h3v-3.8H328.8z M330.8,651.4h-5.1v1.6h5.1V651.4z M325.7,655.5h5.1v-1.6h-5.1V655.5z M332.4,647.3
			c-0.4,0.9-1,1.8-1.6,2.6l-0.8-0.4c0.7-0.9,1.2-1.7,1.6-2.6L332.4,647.3z"/>
		<path style="fill:#444444;" d="M336.3,655.6c-0.3,1.3-0.8,2.4-1.4,3.3l-0.9-0.5c0.6-0.9,1-1.9,1.3-3L336.3,655.6z M339.1,647.6
			c0.2-0.4,0.3-0.7,0.4-1.1l1.1,0.1c-0.1,0.3-0.3,0.7-0.4,1h4.6v6.8h-8.8v-6.8H339.1z M343.8,649.7v-1.1H337v1.1H343.8z
			 M343.8,651.6v-1.1H337v1.1H343.8z M343.8,652.4H337v1.2h6.8V652.4z M338.5,659.2c-0.8,0-1.2-0.4-1.2-1.2v-2.7h1v2.5
			c0,0.3,0.2,0.5,0.5,0.5h3.1c0.3,0,0.5-0.1,0.7-0.2c0.2-0.2,0.3-0.7,0.4-1.7l1,0.3c-0.1,1.2-0.3,1.9-0.6,2.2
			c-0.3,0.2-0.7,0.3-1.2,0.3H338.5z M342,656.8l-0.8,0.5c-0.4-0.6-1-1.3-1.7-2l0.7-0.5C341,655.6,341.6,656.2,342,656.8z
			 M346.8,658.1l-0.8,0.6c-0.5-0.9-1.2-1.9-2-3l0.8-0.5C345.6,656.3,346.3,657.3,346.8,658.1z"/>
		<path style="fill:#444444;" d="M352.8,647.2v0.8c-0.4,1.3-0.9,2.6-1.5,4c0.9,1.2,1.4,2.3,1.5,3.3c0,0.6-0.2,1-0.4,1.3
			c-0.4,0.3-1.1,0.5-2,0.5l-0.3-1c0.2,0,0.4,0.1,0.5,0.1c0.5,0,0.9-0.1,1-0.2c0.2-0.1,0.3-0.3,0.3-0.6c0-1-0.5-2-1.5-3.2
			c0.7-1.5,1.2-2.8,1.5-4h-2.3v11.3h-1v-12.3H352.8z M356.9,646.7c0,1.4-0.1,2.7-0.2,3.8c0.8,3.4,2.2,6,4.2,8l-0.7,0.9
			c-1.7-1.8-2.9-4-3.8-6.6c-0.1,0.3-0.1,0.5-0.2,0.7c-0.5,2.4-1.8,4.4-3.7,5.9l-0.7-0.8c1.7-1.4,2.8-3.1,3.4-5.2
			c0.4-1.8,0.6-4,0.7-6.7H356.9z"/>
		<path style="fill:#444444;" d="M369.2,647.2v1h-3.6c-0.1,0.7-0.2,1.3-0.4,1.9h3.3v0.9c-0.7,4-2.6,6.7-5.7,8.3l-0.5-0.9
			c1.6-0.8,2.8-1.9,3.7-3.4c-0.7-0.6-1.5-1.1-2.5-1.6c-0.3,0.4-0.7,0.8-1.1,1.2l-0.5-0.9c1.4-1.3,2.2-3.1,2.5-5.4h-2.2v-1H369.2z
			 M366.5,654.2c0.5-0.9,0.8-2,1-3.1h-2.7c-0.2,0.6-0.5,1.1-0.8,1.5C365,653.1,365.8,653.6,366.5,654.2z M371.2,647.8v8.9h-1v-8.9
			H371.2z M370.9,659.3l-0.2-1c0.6,0,1.2,0.1,1.8,0.1c0.5,0,0.8-0.3,0.8-0.8v-10.9h1v11.1c0,1-0.5,1.5-1.4,1.5H370.9z"/>
	</g>
</g>
<g>
	<g>
		<rect x="424.6" y="629.6" style="opacity:0.6;fill:#BBBBBB;enable-background:new    ;" width="118" height="50"/>
		<rect x="422.6" y="627.6" style="fill:#FFFFFF;stroke:#E5E5E5;" width="118" height="50"/>
	</g>
	<g style="enable-background:new    ;">
		<path style="fill:#444444;" d="M452.1,659.4h-1v-1.1h-6.6v1.1h-1v-12.2h8.7V659.4z M451.1,652.1v-4h-6.6v4H451.1z M451.1,657.3
			v-4.2h-6.6v4.2H451.1z"/>
		<path style="fill:#444444;" d="M457.6,654.4c-0.3,1.6-0.8,3-1.4,4.2l-0.9-0.5c0.6-1.2,1-2.5,1.2-3.9L457.6,654.4z M462.1,646.6
			v1.8h5.5v1h-5.5v2.2h4.6v1h-10.1v-1h4.5v-2.2h-5.5v-1h5.5v-1.8H462.1z M460,659.2c-0.9,0-1.4-0.5-1.4-1.5v-3.9h1v3.7
			c0,0.5,0.2,0.7,0.7,0.7h3c0.3,0,0.5-0.1,0.7-0.3c0.2-0.2,0.3-0.9,0.4-2.1l1,0.3c-0.1,1.4-0.3,2.3-0.6,2.6
			c-0.3,0.3-0.7,0.4-1.2,0.4H460z M463.2,656.2l-0.9,0.4c-0.4-1.1-0.8-2-1.3-2.8l1-0.3C462.4,654.3,462.8,655.2,463.2,656.2z
			 M468,657.8l-0.9,0.4c-0.5-1.5-1.1-2.9-1.8-4l0.9-0.3C466.9,655.1,467.5,656.4,468,657.8z"/>
		<path style="fill:#444444;" d="M470.2,650l-0.9-0.6c0.8-0.9,1.5-1.8,1.8-2.9l1,0.2c-0.1,0.3-0.2,0.6-0.4,0.9h3.8v0.9h-2.4
			c0.3,0.4,0.6,0.8,0.8,1.2l-0.9,0.4c-0.3-0.5-0.6-1.1-0.9-1.6h-0.8C471,649,470.7,649.5,470.2,650z M481.6,653h-1v-1.7h-9.9v1.7h-1
			v-2.5h5.5c-0.1-0.3-0.3-0.6-0.4-0.9l1-0.2l-0.1-0.1c0.7-0.8,1.1-1.8,1.5-2.8l1,0.2c-0.1,0.3-0.2,0.6-0.3,0.9h4v0.9h-2.5
			c0.3,0.4,0.5,0.8,0.7,1.1l-0.9,0.3c-0.3-0.5-0.5-1-0.9-1.4h-0.9c-0.3,0.5-0.5,0.9-0.9,1.3l-0.8-0.5c0.2,0.3,0.3,0.7,0.4,1.1h5.3
			V653z M479.6,654.9h-7v1h7.6v3.6h-1v-0.6h-6.6v0.6h-1v-7.3h8V654.9z M478.7,654.1v-1.1h-6v1.1H478.7z M479.3,658v-1.3h-6.6v1.3
			H479.3z"/>
		<path style="fill:#444444;" d="M485,651.8v-3.3h-1.7v-1h4.5v1h-1.7v3.3h1.5v1h-1.5v3.2c0.5-0.2,1-0.4,1.5-0.6v1
			c-1.3,0.5-2.7,1-4.2,1.3l-0.3-1c0.6-0.1,1.2-0.3,1.8-0.4v-3.5h-1.5v-1H485z M495.3,647.2v6.5h-2.9v1.7h3.2v1h-3.2v1.8h3.7v1h-8.4
			v-1h3.8v-1.8h-3.2v-1h3.2v-1.7h-2.9v-6.5H495.3z M491.4,650v-1.9h-2v1.9H491.4z M491.4,650.8h-2v1.9h2V650.8z M492.4,650h1.9v-1.9
			h-1.9V650z M494.3,650.8h-1.9v1.9h1.9V650.8z"/>
		<path style="fill:#444444;" d="M509.3,647.2v1h-5.2v5.3h5.7v1h-5.7v5h-1v-5h-5.6v-1h5.6v-5.3H498v-1H509.3z M501.2,652.3l-0.9,0.5
			c-0.5-1.2-1-2.3-1.5-3.2l0.9-0.5C500.2,650.1,500.7,651.2,501.2,652.3z M508.6,649.5c-0.4,1.1-1,2.2-1.7,3.2l-0.9-0.5
			c0.7-1.1,1.2-2.2,1.6-3.2L508.6,649.5z"/>
		<path style="fill:#444444;" d="M511.8,651.2c1.2-0.4,2.8-2,4.6-4.7l1,0.4c-1.3,1.8-2.5,3.2-3.8,4.3c2.7-0.1,5.2-0.3,7.6-0.5
			c-0.5-0.8-1.1-1.5-1.6-2.1l0.9-0.4c1.2,1.4,2.3,3,3.4,4.7l-1,0.5c-0.4-0.6-0.7-1.1-1-1.7c-3,0.3-6.2,0.5-9.9,0.6L511.8,651.2z
			 M522.3,659.5h-1v-0.7H514v0.7h-1v-5.8h9.4V659.5z M521.3,657.8v-3.2H514v3.2H521.3z"/>
	</g>
</g>
<g>
	<g>
		<rect x="18.9" y="629.6" style="opacity:0.6;fill:#BBBBBB;enable-background:new    ;" width="118" height="50"/>
		<rect x="16.9" y="627.6" style="fill:#FFFFFF;stroke:#E5E5E5;" width="118" height="50"/>
	</g>
	<g style="enable-background:new    ;">
		<path style="fill:#444444;" d="M47.8,647.4c-0.7,1.2-1.3,2.1-2,2.9c-0.7,0.8-1.6,1.6-2.8,2.4l-0.5-0.9c1-0.5,1.8-1.3,2.6-2.1
			c0.7-0.8,1.3-1.7,1.8-2.8L47.8,647.4z M44.6,653.1v-1h8.4c0,1.8-0.1,3.2-0.3,4.2c-0.1,1.1-0.4,1.8-0.7,2.2
			c-0.3,0.4-0.8,0.6-1.5,0.7h-2.5l-0.3-1c0.8,0,1.6,0,2.3,0c0.8,0,1.2-0.3,1.5-1c0.3-0.7,0.4-2.1,0.5-4.3h-3.5
			c-0.3,1.5-0.8,2.7-1.4,3.6c-0.7,1-1.8,1.9-3.2,2.7l-0.6-0.8c1.3-0.7,2.3-1.5,2.9-2.3c0.6-0.8,1-1.9,1.3-3.2H44.6z M55.2,651.8
			l-0.7,0.8c-2.2-1.4-3.7-3.2-4.5-5.4l0.9-0.5C51.7,648.9,53.2,650.6,55.2,651.8z"/>
		<path style="fill:#444444;" d="M64.3,650.3v1.7h4v4.7c0,0.9-0.4,1.3-1.3,1.3h-1.3l-0.3-0.9l1.2,0c0.4,0,0.7-0.2,0.7-0.6v-3.6h-3
			v6.5h-1v-6.5h-3v5.2h-1v-5.4c-0.7,0.7-1.5,1.4-2.3,2l-0.6-0.8c1.8-1.3,3.2-2.8,4.2-4.5h-3.7v-1h4.3c0.3-0.6,0.6-1.2,0.8-1.9l1,0.1
			c-0.2,0.6-0.4,1.2-0.7,1.8h6.8v1h-7.3c-0.5,0.9-1.1,1.8-1.8,2.6h3.3v-1.7H64.3z"/>
		<path style="fill:#444444;" d="M77,652.4v1h-2.5v3.6c1-0.2,2-0.4,3-0.7v1c-2,0.5-4.2,0.9-6.5,1.2l-0.2-1c0.9-0.1,1.8-0.3,2.7-0.4
			v-3.8H71v-1H77z M77.7,649.1c0-0.8-0.1-1.6-0.1-2.5h1c0,0.9,0,1.7,0.1,2.5H83v1h-4.3c0.2,2.4,0.5,4.3,1.1,5.9
			c0.6,1.5,1.1,2.3,1.6,2.3c0.3,0,0.6-0.8,0.9-2.4l0.9,0.5c-0.4,2-1,3-1.7,3.1c-1.2-0.1-2.3-1.6-3.1-4.7c-0.3-1.3-0.5-2.9-0.6-4.6
			h-6.9v-1H77.7z M82.1,648.5l-0.8,0.4c-0.4-0.7-0.8-1.3-1.3-1.9l0.8-0.4C81.2,647.3,81.6,647.9,82.1,648.5z"/>
		<path style="fill:#444444;" d="M91,647.2v1h-1.8v1.6h1.6v9.6h-0.9v-0.8h-4v0.8H85v-9.6h1.5v-1.6h-1.9v-1H91z M85.9,650.7v4.7h4
			v-1.2h-0.7c-0.6,0-0.9-0.3-0.9-1v-2.5h-0.9v0.9c0,1.5-0.3,2.6-0.9,3.3l-0.5-0.5c0.5-0.6,0.8-1.5,0.8-2.8v-0.9H85.9z M89.8,657.7
			v-1.4h-4v1.4H89.8z M88.3,649.8v-1.6h-0.9v1.6H88.3z M89.8,650.7h-0.9v2.3c0,0.2,0.1,0.4,0.4,0.4h0.5V650.7z M96.8,658.5
			c-0.2,0.4-0.7,0.6-1.3,0.6h-2.8c-0.7,0-1-0.4-1-1.3v-5.9h3.8v-3.7h-4.1v-1h5v5.7h-3.8v4.6c0,0.5,0.1,0.7,0.4,0.7h2.2
			c0.4,0,0.6-0.2,0.8-0.6c0.1-0.4,0.2-1.1,0.2-2.3l1,0.3C97.2,657.1,97,658.1,96.8,658.5z"/>
		<path style="fill:#444444;" d="M104.3,650.6l0.1-0.8h-4.6v-2.6H110v2.6h-4.5l-0.1,0.8h5.6v0.8h-5.7c-0.1,0.3-0.1,0.5-0.2,0.8h4.1
			v6.2h2v0.8H98.6v-0.8h2v-6.2h3.4c0.1-0.3,0.1-0.5,0.2-0.8h-5.3v-0.8H104.3z M102.9,647.9h-2.1v1.2h2.1V647.9z M108.1,653.7v-0.9
			h-6.5v0.9H108.1z M108.1,655.2v-0.9h-6.5v0.9H108.1z M108.1,656.8v-0.9h-6.5v0.9H108.1z M108.1,658.3v-0.9h-6.5v0.9H108.1z
			 M106,647.9h-2.2v1.2h2.2V647.9z M109,647.9h-2.1v1.2h2.1V647.9z"/>
	</g>
</g>
<g>
	<g>
		<rect x="154.1" y="629.6" style="opacity:0.6;fill:#BBBBBB;enable-background:new    ;" width="118" height="50"/>
		<rect x="152.1" y="627.6" style="fill:#FFFFFF;stroke:#E5E5E5;" width="118" height="50"/>
	</g>
	<g style="enable-background:new    ;">
		<path style="fill:#444444;" d="M187.9,652.2l-0.7,0.7c-0.6-0.7-1.3-1.4-2.3-2.1l0.7-0.7C186.5,650.8,187.3,651.5,187.9,652.2z
			 M188.3,654.2c-0.7,1.8-1.5,3.5-2.3,5.1l-0.9-0.4c0.9-1.6,1.7-3.3,2.3-5L188.3,654.2z M188.5,648.9l-0.7,0.7
			c-0.6-0.7-1.4-1.4-2.4-2.1l0.7-0.7C187,647.5,187.8,648.2,188.5,648.9z M191.2,649.4l-0.8,0.4c-0.5-0.9-1-1.7-1.6-2.4l0.8-0.4
			C190.2,647.7,190.7,648.5,191.2,649.4z M193.5,646.6v3.8h3v7.5c0,0.9-0.4,1.4-1.3,1.4h-1.6l-0.3-1l1.6,0c0.4,0,0.7-0.2,0.7-0.7
			v-1.4h-5.1v3h-1v-8.9h3v-3.8H193.5z M195.6,651.4h-5.1v1.6h5.1V651.4z M190.5,655.5h5.1v-1.6h-5.1V655.5z M197.1,647.3
			c-0.4,0.9-1,1.8-1.6,2.6l-0.8-0.4c0.7-0.9,1.2-1.7,1.6-2.6L197.1,647.3z"/>
		<path style="fill:#444444;" d="M201.1,655.6c-0.3,1.3-0.8,2.4-1.4,3.3l-0.9-0.5c0.6-0.9,1-1.9,1.3-3L201.1,655.6z M203.9,647.6
			c0.2-0.4,0.3-0.7,0.4-1.1l1.1,0.1c-0.1,0.3-0.3,0.7-0.4,1h4.6v6.8h-8.8v-6.8H203.9z M208.6,649.7v-1.1h-6.8v1.1H208.6z
			 M208.6,651.6v-1.1h-6.8v1.1H208.6z M208.6,652.4h-6.8v1.2h6.8V652.4z M203.3,659.2c-0.8,0-1.2-0.4-1.2-1.2v-2.7h1v2.5
			c0,0.3,0.2,0.5,0.5,0.5h3.1c0.3,0,0.5-0.1,0.7-0.2c0.2-0.2,0.3-0.7,0.4-1.7l1,0.3c-0.1,1.2-0.3,1.9-0.6,2.2
			c-0.3,0.2-0.7,0.3-1.2,0.3H203.3z M206.7,656.8l-0.8,0.5c-0.4-0.6-1-1.3-1.7-2l0.7-0.5C205.7,655.6,206.3,656.2,206.7,656.8z
			 M211.6,658.1l-0.8,0.6c-0.5-0.9-1.2-1.9-2-3l0.8-0.5C210.4,656.3,211.1,657.3,211.6,658.1z"/>
		<path style="fill:#444444;" d="M215.1,655c-0.4,1.5-0.9,2.7-1.5,3.8l-0.9-0.5c0.6-1.1,1.1-2.2,1.4-3.5L215.1,655z M220.1,649.1
			c0.6-0.8,1.1-1.7,1.5-2.6l1,0.4c-0.4,0.9-0.9,1.7-1.4,2.3h2.3v4.6h-8.8v-4.6H220.1z M218,648.6l-0.9,0.4c-0.5-0.8-1-1.5-1.5-2.1
			l0.9-0.4C217,647.1,217.5,647.8,218,648.6z M222.5,650h-6.8v2.7h6.8V650z M217.6,659.3c-0.9,0-1.3-0.5-1.3-1.4v-2.9h1v2.7
			c0,0.4,0.2,0.7,0.6,0.7h3.1c0.3,0,0.5-0.1,0.6-0.3c0.2-0.2,0.3-0.8,0.3-1.8l1,0.3c-0.1,1.3-0.3,2-0.6,2.3
			c-0.3,0.2-0.6,0.3-1.2,0.3H217.6z M220.8,656.5l-0.9,0.4c-0.4-0.9-0.8-1.7-1.3-2.5l0.9-0.3C219.9,654.9,220.4,655.7,220.8,656.5z
			 M225.5,658l-0.9,0.4c-0.5-1.3-1.1-2.5-1.7-3.5l1-0.3C224.5,655.6,225,656.7,225.5,658z"/>
		<path style="fill:#444444;" d="M230.2,646.9c-0.7,1.8-1.4,3.3-2.2,4.4c0.6-0.1,1.3-0.1,1.9-0.2c0.3-0.5,0.5-1,0.8-1.6l0.9,0.3
			c-1.2,2.4-2.3,4-3.1,5c1-0.2,2-0.5,3-0.8v0.9c-1.5,0.5-2.9,0.8-4.2,1l-0.3-0.9c0.2-0.1,0.3-0.2,0.5-0.3c0.5-0.5,1.1-1.5,1.9-2.8
			c-0.8,0.1-1.6,0.2-2.3,0.3l-0.2-0.9c0.2-0.1,0.3-0.2,0.4-0.4c0.8-1.3,1.4-2.8,2-4.4L230.2,646.9z M231.7,657.6
			c-1.4,0.5-2.9,1-4.7,1.3l-0.1-1c1.8-0.3,3.5-0.7,4.8-1.3V657.6z M238.6,650l-3.6,0.5c0,0.7,0.1,1.3,0.1,1.9l3.7-0.6l0.2,1
			l-3.8,0.6c0,0.3,0.1,0.5,0.1,0.7c0.1,0.7,0.3,1.4,0.5,1.9c0.8-0.7,1.4-1.5,2-2.4l0.8,0.5c-0.7,1.1-1.5,2-2.4,2.8
			c0.1,0.1,0.1,0.2,0.2,0.3c0.5,0.7,0.9,1,1.2,1s0.7-0.8,0.9-2.3l0.9,0.6c-0.4,1.8-1,2.8-1.7,2.8c-0.7,0-1.3-0.4-1.9-1.3
			c-0.1-0.2-0.2-0.3-0.3-0.5c-1,0.8-2.2,1.3-3.3,1.7l-0.6-0.8c1.3-0.4,2.5-1,3.5-1.8c-0.3-0.6-0.5-1.3-0.6-2
			c-0.1-0.4-0.1-0.7-0.2-1.1l-2.5,0.4l-0.1-1l2.5-0.4c-0.1-0.6-0.1-1.2-0.1-1.9l-2,0.3l-0.2-0.9l2.1-0.3v-3.1h1v3l3.5-0.5L238.6,650
			z M238.2,648.3l-0.8,0.5c-0.4-0.5-1-1.1-1.7-1.8l0.8-0.5C237.3,647.2,237.8,647.8,238.2,648.3z"/>
	</g>
</g>
<g>
	<g>
		<rect x="559.9" y="629.6" style="opacity:0.6;fill:#BBBBBB;enable-background:new    ;" width="118" height="50"/>
		<rect x="557.9" y="627.6" style="fill:#FFFFFF;stroke:#E5E5E5;" width="118" height="50"/>
	</g>
	<g style="enable-background:new    ;">
		<path style="fill:#444444;" d="M588.8,647.4c-0.7,1.2-1.3,2.1-2,2.9c-0.7,0.8-1.6,1.6-2.8,2.4l-0.5-0.9c1-0.5,1.8-1.3,2.6-2.1
			c0.7-0.8,1.3-1.7,1.8-2.8L588.8,647.4z M585.6,653.1v-1h8.4c0,1.8-0.1,3.2-0.3,4.2c-0.1,1.1-0.4,1.8-0.7,2.2
			c-0.3,0.4-0.8,0.6-1.5,0.7h-2.5l-0.3-1c0.8,0,1.6,0,2.3,0c0.8,0,1.2-0.3,1.5-1c0.3-0.7,0.4-2.1,0.5-4.3h-3.5
			c-0.3,1.5-0.8,2.7-1.4,3.6c-0.7,1-1.8,1.9-3.2,2.7l-0.6-0.8c1.3-0.7,2.3-1.5,2.9-2.3c0.6-0.8,1-1.9,1.3-3.2H585.6z M596.2,651.8
			l-0.7,0.8c-2.2-1.4-3.7-3.2-4.5-5.4l0.9-0.5C592.7,648.9,594.1,650.6,596.2,651.8z"/>
		<path style="fill:#444444;" d="M605.2,650.3v1.7h4v4.7c0,0.9-0.4,1.3-1.3,1.3h-1.3l-0.3-0.9l1.2,0c0.4,0,0.7-0.2,0.7-0.6v-3.6h-3
			v6.5h-1v-6.5h-3v5.2h-1v-5.4c-0.7,0.7-1.5,1.4-2.3,2l-0.6-0.8c1.8-1.3,3.2-2.8,4.2-4.5h-3.7v-1h4.3c0.3-0.6,0.6-1.2,0.8-1.9l1,0.1
			c-0.2,0.6-0.4,1.2-0.7,1.8h6.8v1h-7.3c-0.5,0.9-1.1,1.8-1.8,2.6h3.3v-1.7H605.2z"/>
		<path style="fill:#444444;" d="M617.9,652.4v1h-2.5v3.6c1-0.2,2-0.4,3-0.7v1c-2,0.5-4.2,0.9-6.5,1.2l-0.2-1
			c0.9-0.1,1.8-0.3,2.7-0.4v-3.8H612v-1H617.9z M618.6,649.1c0-0.8-0.1-1.6-0.1-2.5h1c0,0.9,0,1.7,0.1,2.5h4.3v1h-4.3
			c0.2,2.4,0.5,4.3,1.1,5.9c0.6,1.5,1.1,2.3,1.6,2.3c0.3,0,0.6-0.8,0.9-2.4l0.9,0.5c-0.4,2-1,3-1.7,3.1c-1.2-0.1-2.3-1.6-3.1-4.7
			c-0.3-1.3-0.5-2.9-0.6-4.6h-6.9v-1H618.6z M623,648.5l-0.8,0.4c-0.4-0.7-0.8-1.3-1.3-1.9l0.8-0.4
			C622.2,647.3,622.6,647.9,623,648.5z"/>
		<path style="fill:#444444;" d="M628.4,650.9v5.8c0.3-0.3,0.7-0.6,1.1-1l0.3,1c-0.7,0.7-1.4,1.3-2.2,1.9l-0.4-0.9
			c0.2-0.2,0.3-0.3,0.3-0.6v-5.3h-1.9v-1H628.4z M629.4,648.9l-0.7,0.7c-0.6-0.7-1.3-1.4-2.2-2.1l0.7-0.7
			C628,647.5,628.8,648.2,629.4,648.9z M637.8,658.1c0,0.8-0.4,1.2-1.3,1.2h-1.3l-0.2-0.9c0.5,0,0.9,0,1.3,0c0.4,0,0.6-0.2,0.6-0.7
			v-9.7h-5.7v6.8c0,1.9-0.4,3.4-1.2,4.6l-0.7-0.7c0.7-1,1-2.3,1-3.9v-7.7h7.6V658.1z M633.5,649.7v-1.1h1v1.1h1.6v0.8h-1.6v1.3h1.9
			v0.8h-4.7v-0.8h1.8v-1.3h-1.6v-0.8H633.5z M635.8,653.7v3.6h-3.7v-3.6H635.8z M635,654.5h-2v1.9h2V654.5z"/>
		<path style="fill:#444444;" d="M641.7,652.3c-0.1,3-0.6,5.4-1.5,7.1l-0.8-0.7c0.8-1.6,1.2-3.7,1.3-6.5v-4.6h5.4
			c-0.2-0.4-0.3-0.7-0.5-1l1.1-0.2c0.2,0.4,0.3,0.7,0.5,1.2h4.8v1h-10.2v1.6h2.4v-1.1h1v1.1h3.7v-1.1h1v1.1h2.2v0.9h-2.2v2.2h-5.7
			v-2.2h-2.4V652.3z M650.7,654.3v0.7c-0.8,1-1.7,1.8-2.9,2.5c1.3,0.5,2.7,0.9,4.4,1.1l-0.4,0.9c-1.9-0.3-3.6-0.8-4.9-1.5
			c-1.4,0.7-3.1,1.2-4.9,1.5l-0.4-0.9c1.6-0.2,3.1-0.6,4.3-1.1c-1-0.6-1.9-1.4-2.5-2.3h-0.9v-0.9H650.7z M646.9,657
			c1-0.5,1.8-1.1,2.6-1.8h-5C645.1,655.9,645.9,656.5,646.9,657z M645,652.5h3.7v-1.3H645V652.5z"/>
	</g>
</g>
<g>
	<g>
		<rect x="695.1" y="629.6" style="opacity:0.6;fill:#BBBBBB;enable-background:new    ;" width="118" height="50"/>
		<rect x="693.1" y="627.6" style="fill:#FFFFFF;stroke:#E5E5E5;" width="118" height="50"/>
	</g>
	<g style="enable-background:new    ;">
		<path style="fill:#444444;" d="M724,647.4c-0.7,1.2-1.3,2.1-2,2.9c-0.7,0.8-1.6,1.6-2.8,2.4l-0.5-0.9c1-0.5,1.8-1.3,2.6-2.1
			c0.7-0.8,1.3-1.7,1.8-2.8L724,647.4z M720.8,653.1v-1h8.4c0,1.8-0.1,3.2-0.3,4.2c-0.1,1.1-0.4,1.8-0.7,2.2
			c-0.3,0.4-0.8,0.6-1.5,0.7h-2.5l-0.3-1c0.8,0,1.6,0,2.3,0c0.8,0,1.2-0.3,1.5-1c0.3-0.7,0.4-2.1,0.5-4.3h-3.5
			c-0.3,1.5-0.8,2.7-1.4,3.6c-0.7,1-1.8,1.9-3.2,2.7l-0.6-0.8c1.3-0.7,2.3-1.5,2.9-2.3c0.6-0.8,1-1.9,1.3-3.2H720.8z M731.5,651.8
			l-0.7,0.8c-2.2-1.4-3.7-3.2-4.5-5.4l0.9-0.5C727.9,648.9,729.4,650.6,731.5,651.8z"/>
		<path style="fill:#444444;" d="M740.5,650.3v1.7h4v4.7c0,0.9-0.4,1.3-1.3,1.3h-1.3l-0.3-0.9l1.2,0c0.4,0,0.7-0.2,0.7-0.6v-3.6h-3
			v6.5h-1v-6.5h-3v5.2h-1v-5.4c-0.7,0.7-1.5,1.4-2.3,2l-0.6-0.8c1.8-1.3,3.2-2.8,4.2-4.5h-3.7v-1h4.3c0.3-0.6,0.6-1.2,0.8-1.9l1,0.1
			c-0.2,0.6-0.4,1.2-0.7,1.8h6.8v1H738c-0.5,0.9-1.1,1.8-1.8,2.6h3.3v-1.7H740.5z"/>
		<path style="fill:#444444;" d="M753.2,652.4v1h-2.5v3.6c1-0.2,2-0.4,3-0.7v1c-2,0.5-4.2,0.9-6.5,1.2l-0.2-1
			c0.9-0.1,1.8-0.3,2.7-0.4v-3.8h-2.5v-1H753.2z M753.9,649.1c0-0.8-0.1-1.6-0.1-2.5h1c0,0.9,0,1.7,0.1,2.5h4.3v1H755
			c0.2,2.4,0.5,4.3,1.1,5.9c0.6,1.5,1.1,2.3,1.6,2.3c0.3,0,0.6-0.8,0.9-2.4l0.9,0.5c-0.4,2-1,3-1.7,3.1c-1.2-0.1-2.3-1.6-3.1-4.7
			c-0.3-1.3-0.5-2.9-0.6-4.6H747v-1H753.9z M758.3,648.5l-0.8,0.4c-0.4-0.7-0.8-1.3-1.3-1.9l0.8-0.4
			C757.4,647.3,757.9,647.9,758.3,648.5z"/>
		<path style="fill:#444444;" d="M766.6,649.1v-0.9h-5.5v-0.9h5.5v-0.8h1v0.8h5.5v0.9h-5.5v0.9h4.1v2.7h-4.1v0.9h4.3v1.9h1.5v0.8
			H772v1.8h-4.3v0.9c0,0.8-0.4,1.2-1.2,1.2h-1.7l-0.2-1c0.6,0,1.1,0.1,1.6,0.1c0.4,0,0.6-0.2,0.6-0.5v-0.7H762v-0.8h4.6v-1h-5.9
			v-0.8h5.9v-1.1H762v-0.8h4.6v-0.9h-4.1v-2.7H766.6z M766.6,649.9h-3.1v1.2h3.1V649.9z M770.8,649.9h-3.1v1.2h3.1V649.9z
			 M767.6,654.6h3.4v-1.1h-3.4V654.6z M767.6,655.5v1h3.4v-1H767.6z"/>
		<path style="fill:#444444;" d="M780,646.7c-0.2,0.4-0.3,0.7-0.5,1.1h6.1v0.8c-0.9,1-2,1.9-3.3,2.6c1.6,0.7,3.3,1.1,5.3,1.3
			l-0.5,0.9c-2.2-0.3-4.2-0.8-5.9-1.7c-1.7,0.8-3.7,1.4-6,1.7l-0.5-1c2-0.3,3.8-0.7,5.4-1.3c-0.8-0.5-1.5-1-2.2-1.6
			c-0.5,0.5-1.1,0.9-1.8,1.3l-0.6-0.8c1.7-1,2.8-2.1,3.4-3.5L780,646.7z M781.3,652.8c0,0.6-0.1,1.1-0.1,1.6h4.9
			c0,2.4-0.2,3.8-0.6,4.2c-0.4,0.5-1.1,0.7-2.1,0.7c-0.4,0-1,0-1.6-0.1l-0.3-0.9l1.7,0.1c0.8,0,1.4-0.2,1.6-0.5
			c0.2-0.3,0.3-1.2,0.4-2.6h-4.1c-0.1,0.4-0.3,0.7-0.4,1c-0.7,1.3-2.4,2.3-4.9,3.1l-0.7-0.8c2.3-0.7,3.8-1.5,4.6-2.5
			c0.2-0.3,0.3-0.5,0.4-0.8h-4.2v-0.9h4.5c0.1-0.5,0.2-1,0.2-1.6H781.3z M784.1,648.7h-5.4l-0.2,0.2c0.8,0.7,1.7,1.3,2.6,1.8
			C782.3,650.1,783.3,649.5,784.1,648.7z"/>
	</g>
</g>
<g>
	<g>
		<rect x="18.9" y="525.6" style="opacity:0.6;fill:#BBBBBB;enable-background:new    ;" width="118" height="50"/>
		<rect x="16.9" y="523.6" style="fill:#FFFFFF;stroke:#E5E5E5;" width="118" height="50"/>
	</g>
	<g style="enable-background:new    ;">
		<path style="fill:#444444;" d="M50.5,547.3l-0.6-0.8c1.3-1,2.1-2.3,2.6-3.7l1,0.1c-0.2,0.6-0.4,1.1-0.7,1.7h2.7v-2h1v2h4.6v1h-4.6
			v2.3h5.6v1H49.6v-1h6v-2.3h-3.3C51.7,546.2,51.2,546.8,50.5,547.3z M60.5,555.4h-1v-0.7h-7.1v0.7h-1v-5.2h9.1V555.4z M59.5,553.7
			v-2.5h-7.1v2.5H59.5z"/>
		<path style="fill:#444444;" d="M65.6,543.2v-0.6h0.8v0.6H68v-0.6h0.8v0.6h1.7v0.7h-1.7v0.6H68v-0.6h-1.5v0.6h-0.7
			c0,0.1-0.1,0.2-0.1,0.3H70c0,1.6-0.1,2.6-0.3,3c-0.1,0.1-0.1,0.2-0.2,0.2l0.5-0.1c0.1,0.3,0.3,0.6,0.4,0.9h5.4v0.7H63.9v-0.7h5.7
			c-0.1-0.2-0.2-0.4-0.4-0.6c-0.2,0.1-0.4,0.1-0.6,0.1H68l-0.1-0.4h-2.8v-1.9h3v1.6h0.4c0.3,0,0.5-0.2,0.6-0.4
			c0.1-0.3,0.1-0.9,0.1-1.8h-3.8c-0.3,0.6-0.7,1.1-1.2,1.6l-0.5-0.7c0.7-0.5,1.1-1.2,1.3-2.1l0.7,0.1v-0.5h-1.7v-0.7H65.6z
			 M74.8,555.6h-1v-0.4h-7.7v0.4h-1v-2.7h9.7V555.6z M74.3,550.3v0.6h-8.8v-0.6H74.3z M74.3,551.6v0.6h-8.8v-0.6H74.3z M67.3,546.7
			h-1.5v0.8h1.5V546.7z M73.8,554.5v-0.9h-7.7v0.9H73.8z M70.6,546.3l-0.6-0.7c0.8-0.8,1.4-1.8,1.7-3.2l0.9,0.2
			c-0.1,0.3-0.1,0.5-0.2,0.8h3.3v0.8H75c-0.2,1-0.6,1.8-1.2,2.4c0.6,0.4,1.4,0.7,2.3,1l-0.5,0.8c-1-0.3-1.8-0.7-2.5-1.2
			c-0.7,0.5-1.5,0.9-2.5,1.1l-0.4-0.8c0.9-0.2,1.6-0.5,2.2-0.9c-0.4-0.4-0.8-0.9-1-1.3C71.2,545.7,70.9,546,70.6,546.3z M72,544.5
			c0.2,0.6,0.6,1.2,1.1,1.6c0.5-0.5,0.8-1.2,1-1.9h-2C72.1,544.4,72,544.5,72,544.5z"/>
		<path style="fill:#444444;" d="M78.5,546l-0.9-0.6c0.8-0.9,1.5-1.8,1.8-2.9l1,0.2c-0.1,0.3-0.2,0.6-0.4,0.9h3.8v0.9h-2.4
			c0.3,0.4,0.6,0.8,0.8,1.2l-0.9,0.4c-0.3-0.5-0.6-1.1-0.9-1.6h-0.8C79.3,545,78.9,545.5,78.5,546z M89.8,549h-1v-1.7h-9.9v1.7h-1
			v-2.5h5.5c-0.1-0.3-0.3-0.6-0.4-0.9l1-0.2l-0.1-0.1c0.7-0.8,1.1-1.8,1.5-2.8l1,0.2c-0.1,0.3-0.2,0.6-0.3,0.9h4v0.9h-2.5
			c0.3,0.4,0.5,0.8,0.7,1.1l-0.9,0.3c-0.3-0.5-0.5-1-0.9-1.4h-0.9c-0.3,0.5-0.5,0.9-0.9,1.3l-0.8-0.5c0.2,0.3,0.3,0.7,0.4,1.1h5.3
			V549z M87.9,550.9h-7v1h7.6v3.6h-1v-0.6h-6.6v0.6h-1v-7.3h8V550.9z M86.9,550.1v-1.1h-6v1.1H86.9z M87.6,554v-1.3h-6.6v1.3H87.6z"
			/>
		<path style="fill:#444444;" d="M93.3,547.8v-3.3h-1.7v-1H96v1h-1.7v3.3h1.5v1h-1.5v3.2c0.5-0.2,1-0.4,1.5-0.6v1
			c-1.3,0.5-2.7,1-4.2,1.3l-0.3-1c0.6-0.1,1.2-0.3,1.8-0.4v-3.5h-1.5v-1H93.3z M103.6,543.2v6.5h-2.9v1.7h3.2v1h-3.2v1.8h3.7v1h-8.4
			v-1h3.8v-1.8h-3.2v-1h3.2v-1.7h-2.9v-6.5H103.6z M99.6,546v-1.9h-2v1.9H99.6z M99.6,546.8h-2v1.9h2V546.8z M100.7,546h1.9v-1.9
			h-1.9V546z M102.6,546.8h-1.9v1.9h1.9V546.8z"/>
	</g>
</g>
<g>
	<g style="enable-background:new    ;">
		<path style="fill:#878787;" d="M319.4,248.1l-5,12.9h-0.8l5-12.9H319.4z"/>
		<path style="fill:#878787;" d="M321.4,252.4l2.1,2.8l2.1-2.8h1l-2.6,3.4l2.9,3.8h-1l-2.4-3.2l-2.4,3.2h-1l2.9-3.8l-2.6-3.4H321.4z
			"/>
		<path style="fill:#878787;" d="M328.3,252.4l2.1,2.8l2.1-2.8h1l-2.6,3.4l2.9,3.8h-1l-2.4-3.2l-2.4,3.2h-1l2.9-3.8l-2.6-3.4H328.3z
			"/>
		<path style="fill:#878787;" d="M340.7,250.2c0.7,0.5,1,1.3,1.1,2.4H341c-0.1-0.8-0.4-1.4-0.9-1.8s-1.1-0.6-2-0.6
			c-0.8,0-1.4,0.1-1.9,0.4c-0.5,0.3-0.8,0.8-0.8,1.4c0,0.6,0.3,1,0.9,1.3c0.3,0.1,0.9,0.4,1.9,0.6c1.3,0.4,2.1,0.7,2.6,1
			c0.8,0.5,1.2,1.2,1.2,2.1c0,0.9-0.4,1.5-1.1,2c-0.7,0.5-1.6,0.7-2.7,0.7c-1.1,0-2.1-0.3-2.7-0.8c-0.8-0.6-1.2-1.5-1.3-2.7h0.8
			c0.1,0.9,0.4,1.6,1,2.1c0.5,0.4,1.2,0.6,2.1,0.6c0.9,0,1.6-0.2,2.1-0.5c0.5-0.4,0.8-0.8,0.8-1.4c0-0.7-0.4-1.2-1-1.6
			c-0.3-0.2-1.1-0.5-2.2-0.8c-1.2-0.3-2-0.6-2.3-0.8c-0.8-0.4-1.1-1.1-1.1-1.9c0-0.9,0.4-1.5,1.1-2c0.6-0.4,1.5-0.6,2.5-0.6
			C339.2,249.4,340.1,249.7,340.7,250.2z"/>
		<path style="fill:#878787;" d="M348.9,253.3c0.5,0.7,0.8,1.7,0.8,2.9h-5.9c0,0.9,0.3,1.6,0.7,2.1c0.4,0.5,1,0.8,1.8,0.8
			c0.7,0,1.2-0.2,1.6-0.5c0.3-0.3,0.6-0.7,0.8-1.3h0.9c-0.2,0.7-0.5,1.3-1,1.7c-0.6,0.5-1.3,0.8-2.3,0.8c-1,0-1.8-0.4-2.4-1
			c-0.6-0.7-0.9-1.6-0.9-2.8c0-1.1,0.3-1.9,0.9-2.7c0.6-0.8,1.4-1.1,2.5-1.1C347.5,252.2,348.3,252.5,348.9,253.3z M344.6,253.6
			c-0.4,0.5-0.7,1.1-0.8,1.9h5c-0.1-1.8-1-2.6-2.5-2.6C345.6,252.9,345,253.1,344.6,253.6z"/>
		<path style="fill:#878787;" d="M355.2,252.3v0.9c-0.4-0.1-0.7-0.2-1.1-0.2c-0.6,0-1.2,0.3-1.6,0.9c-0.4,0.5-0.6,1.2-0.6,1.9v3.8
			h-0.8v-7.2h0.8v1.4c0.2-0.4,0.5-0.8,0.8-1.1c0.4-0.3,0.9-0.5,1.4-0.5C354.5,252.2,354.9,252.2,355.2,252.3z"/>
		<path style="fill:#878787;" d="M356.2,252.4l2.3,6.2l2.3-6.2h0.9l-2.8,7.2h-0.9l-2.8-7.2H356.2z"/>
		<path style="fill:#878787;" d="M364,250c0.1,0.1,0.2,0.3,0.2,0.5c0,0.2-0.1,0.4-0.2,0.5c-0.1,0.1-0.3,0.2-0.5,0.2
			c-0.2,0-0.4-0.1-0.5-0.2c-0.1-0.1-0.2-0.3-0.2-0.5c0-0.2,0.1-0.4,0.2-0.5c0.1-0.1,0.3-0.2,0.5-0.2
			C363.7,249.7,363.9,249.8,364,250z M363.9,252.4v7.2h-0.8v-7.2H363.9z"/>
		<path style="fill:#878787;" d="M371.3,252.8c0.5,0.4,0.9,1.1,1,1.9h-0.8c-0.1-0.6-0.3-1.1-0.7-1.4c-0.4-0.3-0.9-0.5-1.5-0.5
			c-0.8,0-1.4,0.3-1.8,0.9c-0.4,0.6-0.7,1.3-0.7,2.3c0,0.9,0.2,1.7,0.6,2.2c0.4,0.5,1,0.8,1.8,0.8c1.3,0,2.1-0.7,2.3-2.1h0.8
			c-0.1,0.9-0.5,1.6-1,2.1c-0.5,0.5-1.2,0.7-2.1,0.7c-1.1,0-1.9-0.4-2.5-1.1c-0.6-0.7-0.8-1.6-0.8-2.7c0-1.1,0.3-2,0.9-2.7
			c0.6-0.8,1.4-1.1,2.5-1.1C370,252.2,370.7,252.4,371.3,252.8z"/>
		<path style="fill:#878787;" d="M379.1,253.3c0.5,0.7,0.8,1.7,0.8,2.9h-5.9c0,0.9,0.3,1.6,0.7,2.1c0.4,0.5,1,0.8,1.8,0.8
			c0.7,0,1.2-0.2,1.6-0.5c0.3-0.3,0.6-0.7,0.8-1.3h0.9c-0.2,0.7-0.5,1.3-1,1.7c-0.6,0.5-1.3,0.8-2.3,0.8c-1,0-1.8-0.4-2.4-1
			c-0.6-0.7-0.9-1.6-0.9-2.8c0-1.1,0.3-1.9,0.9-2.7c0.6-0.8,1.4-1.1,2.5-1.1C377.7,252.2,378.6,252.5,379.1,253.3z M374.9,253.6
			c-0.4,0.5-0.7,1.1-0.8,1.9h5c-0.1-1.8-1-2.6-2.5-2.6C375.9,252.9,375.3,253.1,374.9,253.6z"/>
		<path style="fill:#878787;" d="M386.8,248.1l-5,12.9H381l5-12.9H386.8z"/>
		<path style="fill:#878787;" d="M391.3,249.6l-0.1,2.9l2.6-1l0.2,0.7l-2.7,0.8l1.8,2.2l-0.6,0.5l-1.7-2.3l-1.7,2.3l-0.6-0.5
			l1.8-2.2l-2.7-0.8l0.2-0.7l2.6,1l-0.1-2.9H391.3z"/>
		<path style="fill:#878787;" d="M398.3,249.6l-0.1,2.9l2.6-1l0.2,0.7l-2.7,0.8l1.8,2.2l-0.6,0.5l-1.7-2.3l-1.7,2.3l-0.6-0.5
			l1.8-2.2l-2.7-0.8l0.2-0.7l2.6,1l-0.1-2.9H398.3z"/>
	</g>
</g>
<g>
	<g style="enable-background:new    ;">
		<path style="fill:#878787;" d="M703.5,248.1l-5,12.9h-0.8l5-12.9H703.5z"/>
		<path style="fill:#878787;" d="M705.5,252.4l2.1,2.8l2.1-2.8h1l-2.6,3.4l2.9,3.8h-1l-2.4-3.2l-2.4,3.2h-1l2.9-3.8l-2.6-3.4H705.5z
			"/>
		<path style="fill:#878787;" d="M712.4,252.4l2.1,2.8l2.1-2.8h1l-2.6,3.4l2.9,3.8h-1l-2.4-3.2l-2.4,3.2h-1l2.9-3.8l-2.6-3.4H712.4z
			"/>
		<path style="fill:#878787;" d="M724.8,250.2c0.7,0.5,1,1.3,1.1,2.4h-0.9c-0.1-0.8-0.4-1.4-0.9-1.8c-0.5-0.4-1.1-0.6-2-0.6
			c-0.8,0-1.4,0.1-1.9,0.4c-0.5,0.3-0.8,0.8-0.8,1.4c0,0.6,0.3,1,0.9,1.3c0.3,0.1,0.9,0.4,1.9,0.6c1.3,0.4,2.1,0.7,2.6,1
			c0.8,0.5,1.2,1.2,1.2,2.1c0,0.9-0.4,1.5-1.1,2c-0.7,0.5-1.6,0.7-2.7,0.7c-1.1,0-2.1-0.3-2.7-0.8c-0.8-0.6-1.2-1.5-1.3-2.7h0.8
			c0.1,0.9,0.4,1.6,1,2.1c0.5,0.4,1.2,0.6,2.1,0.6c0.9,0,1.6-0.2,2.1-0.5c0.5-0.4,0.8-0.8,0.8-1.4c0-0.7-0.3-1.2-1-1.6
			c-0.3-0.2-1.1-0.5-2.2-0.8c-1.2-0.3-2-0.6-2.3-0.8c-0.8-0.4-1.1-1.1-1.1-1.9c0-0.9,0.3-1.5,1.1-2c0.6-0.4,1.5-0.6,2.5-0.6
			C723.3,249.4,724.2,249.7,724.8,250.2z"/>
		<path style="fill:#878787;" d="M733,253.3c0.5,0.7,0.8,1.7,0.8,2.9H728c0,0.9,0.3,1.6,0.7,2.1c0.4,0.5,1,0.8,1.8,0.8
			c0.7,0,1.2-0.2,1.6-0.5c0.3-0.3,0.6-0.7,0.8-1.3h0.9c-0.2,0.7-0.5,1.3-1,1.7c-0.6,0.5-1.3,0.8-2.3,0.8c-1,0-1.8-0.4-2.4-1
			c-0.6-0.7-0.9-1.6-0.9-2.8c0-1.1,0.3-1.9,0.9-2.7c0.6-0.8,1.4-1.1,2.5-1.1C731.6,252.2,732.4,252.5,733,253.3z M728.7,253.6
			c-0.4,0.5-0.7,1.1-0.8,1.9h5c-0.1-1.8-1-2.6-2.5-2.6C729.7,252.9,729.2,253.1,728.7,253.6z"/>
		<path style="fill:#878787;" d="M739.3,252.3v0.9c-0.4-0.1-0.7-0.2-1.1-0.2c-0.6,0-1.2,0.3-1.6,0.9c-0.4,0.5-0.6,1.2-0.6,1.9v3.8
			h-0.8v-7.2h0.8v1.4c0.2-0.4,0.5-0.8,0.8-1.1c0.4-0.3,0.9-0.5,1.4-0.5C738.6,252.2,739,252.2,739.3,252.3z"/>
		<path style="fill:#878787;" d="M740.3,252.4l2.3,6.2l2.3-6.2h0.9l-2.8,7.2h-0.9l-2.8-7.2H740.3z"/>
		<path style="fill:#878787;" d="M748.1,250c0.1,0.1,0.2,0.3,0.2,0.5c0,0.2-0.1,0.4-0.2,0.5c-0.1,0.1-0.3,0.2-0.5,0.2
			c-0.2,0-0.4-0.1-0.5-0.2c-0.1-0.1-0.2-0.3-0.2-0.5c0-0.2,0.1-0.4,0.2-0.5c0.1-0.1,0.3-0.2,0.5-0.2
			C747.8,249.7,748,249.8,748.1,250z M748,252.4v7.2h-0.8v-7.2H748z"/>
		<path style="fill:#878787;" d="M755.4,252.8c0.5,0.4,0.9,1.1,1,1.9h-0.8c-0.1-0.6-0.3-1.1-0.7-1.4c-0.4-0.3-0.9-0.5-1.5-0.5
			c-0.8,0-1.4,0.3-1.8,0.9c-0.4,0.6-0.7,1.3-0.7,2.3c0,0.9,0.2,1.7,0.6,2.2c0.4,0.5,1,0.8,1.8,0.8c1.3,0,2.1-0.7,2.3-2.1h0.8
			c-0.1,0.9-0.5,1.6-1,2.1c-0.5,0.5-1.2,0.7-2.1,0.7c-1.1,0-1.9-0.4-2.5-1.1c-0.6-0.7-0.8-1.6-0.8-2.7c0-1.1,0.3-2,0.9-2.7
			c0.6-0.8,1.4-1.1,2.5-1.1C754.1,252.2,754.8,252.4,755.4,252.8z"/>
		<path style="fill:#878787;" d="M763.2,253.3c0.5,0.7,0.8,1.7,0.8,2.9h-5.9c0,0.9,0.3,1.6,0.7,2.1c0.4,0.5,1,0.8,1.8,0.8
			c0.7,0,1.2-0.2,1.6-0.5c0.3-0.3,0.6-0.7,0.8-1.3h0.9c-0.2,0.7-0.5,1.3-1,1.7c-0.6,0.5-1.3,0.8-2.3,0.8c-1,0-1.8-0.4-2.4-1
			c-0.6-0.7-0.9-1.6-0.9-2.8c0-1.1,0.3-1.9,0.9-2.7c0.6-0.8,1.4-1.1,2.5-1.1C761.8,252.2,762.7,252.5,763.2,253.3z M759,253.6
			c-0.4,0.5-0.7,1.1-0.8,1.9h5c-0.1-1.8-1-2.6-2.5-2.6C760,252.9,759.4,253.1,759,253.6z"/>
		<path style="fill:#878787;" d="M770.9,248.1l-5,12.9h-0.8l5-12.9H770.9z"/>
		<path style="fill:#878787;" d="M778.2,253.3c0.5,0.7,0.8,1.6,0.8,2.7c0,1.1-0.3,1.9-0.8,2.6c-0.6,0.8-1.4,1.1-2.4,1.1
			c-1.2,0-2-0.6-2.5-1.7v4.3h-0.8v-10h0.8v1.4c0.5-1.1,1.4-1.6,2.5-1.6C776.8,252.2,777.6,252.5,778.2,253.3z M773.8,253.8
			c-0.4,0.5-0.6,1.3-0.6,2.1v0.2c0,0.9,0.2,1.6,0.6,2.1c0.4,0.6,1,0.8,1.8,0.8c0.8,0,1.5-0.3,1.9-0.9c0.4-0.5,0.6-1.3,0.6-2.2
			c0-0.9-0.2-1.6-0.6-2.2c-0.4-0.6-1.1-0.9-1.9-0.9C774.9,252.9,774.3,253.2,773.8,253.8z"/>
		<path style="fill:#878787;" d="M785.8,253c0.4,0.5,0.6,1.1,0.6,1.9v4.7h-0.8v-1.4c-0.3,0.4-0.7,0.8-1.2,1.1
			c-0.6,0.3-1.2,0.5-1.9,0.5c-0.7,0-1.3-0.2-1.7-0.5c-0.5-0.4-0.7-0.9-0.7-1.4c0-0.8,0.3-1.5,1-1.8c0.6-0.4,1.4-0.6,2.5-0.6l1.8,0
			v-0.4c0-1.4-0.7-2.1-2.1-2.1c-0.6,0-1.1,0.1-1.4,0.4c-0.4,0.3-0.7,0.6-0.8,1.1l-0.8-0.1c0.1-0.7,0.5-1.3,1.1-1.7
			c0.5-0.3,1.2-0.5,2-0.5C784.6,252.2,785.3,252.4,785.8,253z M783.8,256c-1.8,0-2.7,0.6-2.7,1.8c0,0.4,0.2,0.7,0.5,0.9
			c0.3,0.2,0.7,0.4,1.2,0.4c0.7,0,1.4-0.3,2-0.8c0.6-0.5,0.9-1,0.9-1.6V256L783.8,256z"/>
		<path style="fill:#878787;" d="M790,252.4h1.9v0.7H790v4.9c0,0.3,0.1,0.5,0.2,0.7c0.1,0.1,0.3,0.2,0.6,0.2h0.9v0.7h-1
			c-0.6,0-1-0.2-1.2-0.4c-0.2-0.3-0.3-0.6-0.3-1.2v-4.9h-1.5v-0.7h1.5v-2l0.8-0.3V252.4z"/>
		<path style="fill:#878787;" d="M794,249.4v4.3c0.3-0.5,0.6-0.9,1-1.1c0.4-0.3,0.9-0.4,1.4-0.4c0.8,0,1.5,0.2,1.9,0.7
			c0.5,0.5,0.7,1.2,0.7,2.1v4.6h-0.8v-4.5c0-0.7-0.2-1.2-0.5-1.6c-0.4-0.4-0.9-0.6-1.5-0.6c-0.6,0-1.1,0.2-1.5,0.7
			c-0.4,0.5-0.6,1.1-0.6,1.8v4.2h-0.9v-10.2H794z"/>
	</g>
</g>
</svg>
