<?xml version="1.0" encoding="UTF-8"?>
<svg width="32px" height="32px" viewBox="0 0 32 32" version="1.1" xmlns="http://www.w3.org/2000/svg" xmlns:xlink="http://www.w3.org/1999/xlink">
    <!-- Generator: Sketch 56.3 (81716) - https://sketch.com -->
    <title>32x32备份</title>
    <desc>Created with Sketch.</desc>
    <g id="页面-1" stroke="none" stroke-width="1" fill="none" fill-rule="evenodd">
        <g id="画板" fill="#888888" fill-rule="nonzero">
            <g id="32x32备份">
                <path d="M31.7193022,13.0004945 L29.6779284,13.0004945 C28.3047737,6.70988283 22.7024129,2 16,2 C8.2680135,2 2,8.2680135 2,16 C2,23.7319865 8.2680135,30 16,30 C23.0527724,30 28.8874794,24.7848417 29.8581515,18.0004945 L31.8761508,18.0004945 C30.8917351,25.8928783 24.1590649,32 16,32 C7.163444,32 0,24.836556 0,16 C0,7.163444 7.163444,0 16,0 C23.8113418,0 30.3152783,5.59766728 31.7193022,13.0004945 Z" id="Combined-Shape"></path>
                <path d="M19.6232542,23.4829007 C19.4960625,22.7944355 19.1338002,22.1883861 18.622817,21.7511023 L22.6014792,19.4540206 L22.6014792,15.0305286 C22.6253435,15.0310891 22.6492768,15.0313709 22.673276,15.0313709 C23.4074672,15.0313709 24.0800591,14.7676328 24.6014792,14.329729 L24.6014792,20.6087212 L19.6232542,23.4829007 L19.6232542,23.4829007 Z M13.7232977,23.4829007 L8.74507272,20.6087212 L8.74507272,14.329729 C9.2664928,14.7676328 9.9390847,15.0313709 10.673276,15.0313709 C10.6972751,15.0313709 10.7212084,15.0310891 10.7450727,15.0305286 L10.7450727,19.4540206 L14.7237349,21.7511023 C14.2127518,22.1883861 13.8504894,22.7944355 13.7232977,23.4829007 L13.7232977,23.4829007 Z M19.8483191,11.0191835 L16.673276,9.18607149 L13.4982328,11.0191835 C13.2620695,10.3601441 12.8018352,9.80778422 12.2093471,9.45392094 L16.673276,6.87667041 L21.1372048,9.45392094 C20.5447168,9.80778422 20.0844825,10.3601441 19.8483191,11.0191835 L19.8483191,11.0191835 Z M14.7237349,13.7511023 C14.2127518,14.1883861 13.8504894,14.7944355 13.7232977,15.4829007 L11.6839518,14.3054838 L12.7177302,12.5929349 L14.7237349,13.7511023 Z M18.622817,13.7511023 L20.470332,12.684439 L21.7271064,14.2682411 L19.6232542,15.4829007 C19.4960625,14.7944355 19.1338002,14.1883861 18.622817,13.7511023 Z" id="形状" transform="translate(16.673276, 15.179786) rotate(45.000000) translate(-16.673276, -15.179786) "></path>
                <path d="M13.6569001,20.366867 L13.6569001,17.0254556 C12.4917077,16.6136192 11.6569001,15.5023801 11.6569001,14.1961613 C11.6569001,12.539307 13.0000459,11.1961613 14.6569001,11.1961613 C16.3137544,11.1961613 17.6569001,12.539307 17.6569001,14.1961613 C17.6569001,15.5023801 16.8220925,16.6136192 15.6569001,17.0254556 L15.6569001,20.366867 C16.8220925,20.7787034 17.6569001,21.8899425 17.6569001,23.1961613 C17.6569001,24.8530155 16.3137544,26.1961613 14.6569001,26.1961613 C13.0000459,26.1961613 11.6569001,24.8530155 11.6569001,23.1961613 C11.6569001,21.8899425 12.4917077,20.7787034 13.6569001,20.366867 L13.6569001,20.366867 Z M14.6569001,24.1961613 C15.2091849,24.1961613 15.6569001,23.748446 15.6569001,23.1961613 C15.6569001,22.6438765 15.2091849,22.1961613 14.6569001,22.1961613 C14.1046154,22.1961613 13.6569001,22.6438765 13.6569001,23.1961613 C13.6569001,23.748446 14.1046154,24.1961613 14.6569001,24.1961613 Z M20.6569001,14.1961613 C19.0000459,14.1961613 17.6569001,12.8530155 17.6569001,11.1961613 C17.6569001,9.53930703 19.0000459,8.19616128 20.6569001,8.19616128 C22.3137544,8.19616128 23.6569001,9.53930703 23.6569001,11.1961613 C23.6569001,12.8530155 22.3137544,14.1961613 20.6569001,14.1961613 Z M20.6569001,12.1961613 C21.2091849,12.1961613 21.6569001,11.748446 21.6569001,11.1961613 C21.6569001,10.6438765 21.2091849,10.1961613 20.6569001,10.1961613 C20.1046154,10.1961613 19.6569001,10.6438765 19.6569001,11.1961613 C19.6569001,11.748446 20.1046154,12.1961613 20.6569001,12.1961613 Z M8.65690016,14.1961613 C7.00004591,14.1961613 5.65690016,12.8530155 5.65690016,11.1961613 C5.65690016,9.53930703 7.00004591,8.19616128 8.65690016,8.19616128 C10.3137544,8.19616128 11.6569002,9.53930703 11.6569002,11.1961613 C11.6569002,12.8530155 10.3137544,14.1961613 8.65690016,14.1961613 Z M8.65690016,12.1961613 C9.20918491,12.1961613 9.65690016,11.748446 9.65690016,11.1961613 C9.65690016,10.6438765 9.20918491,10.1961613 8.65690016,10.1961613 C8.10461541,10.1961613 7.65690016,10.6438765 7.65690016,11.1961613 C7.65690016,11.748446 8.10461541,12.1961613 8.65690016,12.1961613 Z M14.6569001,15.1961613 C15.2091849,15.1961613 15.6569001,14.748446 15.6569001,14.1961613 C15.6569001,13.6438765 15.2091849,13.1961613 14.6569001,13.1961613 C14.1046154,13.1961613 13.6569001,13.6438765 13.6569001,14.1961613 C13.6569001,14.748446 14.1046154,15.1961613 14.6569001,15.1961613 Z" id="形状" transform="translate(14.656900, 17.196161) rotate(45.000000) translate(-14.656900, -17.196161) "></path>
            </g>
        </g>
    </g>
</svg>