<?xml version="1.0" encoding="UTF-8"?>
<svg width="48px" height="48px" viewBox="0 0 48 48" version="1.1" xmlns="http://www.w3.org/2000/svg" xmlns:xlink="http://www.w3.org/1999/xlink">
    <!-- Generator: Sketch 52.6 (67491) - http://www.bohemiancoding.com/sketch -->
    <title>iPhone 8 Plus Copy 3</title>
    <desc>Created with Sketch.</desc>
    <g id="iPhone-8-Plus-Copy-3" stroke="none" stroke-width="1" fill="none" fill-rule="evenodd">
        <g id="Group-12" transform="translate(14.664518, 14.000000)" fill-rule="nonzero" stroke="#7B848E" stroke-width="2">
            <rect id="Rectangle-Copy-9" x="1.28518073" y="1.46130319" width="6.96103896" height="6.96103896" rx="1"></rect>
            <rect id="Rectangle-Copy-10" x="1.28518073" y="12.0101272" width="6.96103896" height="6.96103896" rx="1"></rect>
            <rect id="Rectangle-Copy-28" x="11.8340047" y="1.46130319" width="6.96103896" height="6.96103896" rx="1"></rect>
            <rect id="Rectangle-Copy-30" x="11.8340047" y="12.0101272" width="6.96103896" height="6.96103896" rx="1"></rect>
        </g>
        <path d="M24.7645041,46.0173913 C12.6601563,46.0173913 2.74711277,36.1043478 2.74711277,24 C2.74711277,11.8956522 12.6601563,1.9826087 24.7645041,1.9826087 C35.8253736,1.9826087 45.0079823,10.226087 46.4688519,20.8695652 L48.5558084,20.8695652 C46.990591,9.07826087 36.9731997,0 24.7645041,0 C11.5123302,0 0.764504076,10.7478261 0.764504076,24 C0.764504076,37.2521739 11.5123302,48 24.7645041,48 C36.9731997,48 46.990591,38.9217391 48.5558084,27.1304348 L46.4688519,27.1304348 C45.0079823,37.773913 35.8253736,46.0173913 24.7645041,46.0173913 Z" id="Path-Copy-9" fill="#7C848E"></path>
    </g>
</svg>