<?xml version="1.0" encoding="UTF-8"?>
<svg width="32px" height="33px" viewBox="0 0 32 33" version="1.1" xmlns="http://www.w3.org/2000/svg" xmlns:xlink="http://www.w3.org/1999/xlink">
    <!-- Generator: Sketch 52.5 (67469) - http://www.bohemiancoding.com/sketch -->
    <title>腾讯云IPv6解决方案</title>
    <desc>Created with Sketch.</desc>
    <g id="Welcome" stroke="none" stroke-width="1" fill="none" fill-rule="evenodd">
        <g id="腾讯云产品图标32px" transform="translate(-636.000000, -220.000000)" fill="#00A4FF" fill-rule="nonzero">
            <g id="网络" transform="translate(81.000000, 220.153846)">
                <g id="腾讯云IPv6解决方案" transform="translate(555.000000, 0.000000)">
                    <path d="M16.0743669,29 C8.85876993,29 3.00991558,23.18 3.00991558,16 C3.00991558,8.82 8.85876993,3 16.0743669,3 C22.6045826,3 27.999196,7.772 28.9689803,14 L31,14 C30.0141364,6.664 23.7160659,1 16.0743669,1 C7.74929653,1 1,7.716 1,16 C1,24.284 7.74929653,31 16.0743669,31 C23.7160659,31 30.0141364,25.336 30.998995,18 L28.9679753,18 C27.999196,24.228 22.6045826,29 16.0743669,29 Z" id="Shape"></path>
                    <path d="M17.5504211,22.0749928 L18.4651038,23.6165794 L16.0553688,25 L13.5501696,23.5815451 L14.4440652,22.0749928 L15.9972431,22.9386074 L17.5504211,22.0749928 Z M20.6567769,20.3477636 L22.2582415,19.4573002 L22.2582415,17.7166466 L24,17.7166466 L24,20.4390146 L21.5466225,21.8474902 L20.6567769,20.3477636 Z M22.2582415,14.2353394 L22.2582415,12.4946858 L20.6567769,11.6042223 L21.5364924,10.1215688 L24,11.4796715 L24,14.2353394 L22.2582415,14.2353394 Z M9.73624475,17.7166466 L9.73624475,19.4573002 L11.3377093,20.3477636 L10.4578497,21.83066 L8,20.4390146 L8,17.7166466 L9.73624475,17.7166466 Z" id="Combined-Shape"></path>
                    <path d="M12.0002515,11.479915 L12.9149343,13.0215017 L10.5051992,14.4049222 L8,12.9864674 L8.8938956,11.479915 L10.4470735,12.3435296 L12.0002515,11.479915 Z M15.1066074,9.75268583 L16.7080719,8.8622224 L16.7080719,7.1215688 L18.4498304,7.1215688 L18.4498304,9.84393684 L15.9964529,11.2524124 L15.1066074,9.75268583 Z" id="Combined-Shape" transform="translate(13.224915, 10.763246) scale(-1, -1) translate(-13.224915, -10.763246) "></path>
                    <g id="字母P" transform="translate(12.000000, 13.000000)">
                        <rect id="Rectangle-path" x="3.5" y="0" width="2" height="7"></rect>
                        <rect id="Rectangle-path-Copy-5" x="0.5" y="0" width="2" height="7"></rect>
                        <rect id="Rectangle-path" x="5" y="0" width="2" height="1"></rect>
                        <rect id="Rectangle-path" x="5" y="4" width="2" height="1"></rect>
                        <path d="M7.5,0 L7,0 L7,0.092 L7,2.092 L7,2.908 L7,4.908 L7,5 L7.5,5 C8.328,5 9,4.328 9,3.5 L9,1.5 C9,0.672 8.328,0 7.5,0 Z" id="Shape"></path>
                    </g>
                </g>
            </g>
        </g>
    </g>
</svg>