<svg xmlns="http://www.w3.org/2000/svg" width="48" height="48" viewBox="0 0 48 48">
  <title>安全_天御注册保护_48x48</title>
  <rect x="-371.875" y="-411.25" width="595" height="842" style="fill: none"/>
  <path d="M24.013,46.023l-.294-.088C3.183,39.774,3.965,26.464,4.008,25.9l0-23.923H43.5v2H6.005v22C5.969,26.546,5.386,38.222,24,43.93,41.8,38.178,42.005,26.1,42.005,25.977v-16h2v16c0,.561-.224,13.8-19.7,19.953Z" style="fill: #00a4ff"/>
  <path d="M12.5,33.517c0-9.319,5.343-11.934,11.934-11.934" style="fill: none;stroke: #00a4ff;stroke-miterlimit: 10;stroke-width: 2px"/>
  <rect x="29.667" y="31.517" width="7" height="2" style="fill: #00a4ff"/>
  <circle cx="24.75" cy="15.25" r="6.333" style="fill: none;stroke: #00a4ff;stroke-miterlimit: 10;stroke-width: 2px"/>
  <rect x="13.079" y="31.502" width="14.004" height="2" transform="translate(-0.063 0.039) rotate(-0.112)" style="fill: #00a4ff"/>
  <rect x="29.667" y="23.583" width="7" height="2" style="fill: #00a4ff"/>
  <rect x="29.667" y="27.55" width="7" height="2" style="fill: #00a4ff"/>
</svg>
