<?xml version="1.0" encoding="utf-8"?>
<!-- Generator: Adobe Illustrator 21.0.0, SVG Export Plug-In . SVG Version: 6.00 Build 0)  -->
<svg version="1.1" id="svgwrapper_svg" xmlns="http://www.w3.org/2000/svg" xmlns:xlink="http://www.w3.org/1999/xlink" x="0px"
	 y="0px" width="830px" height="214px" viewBox="0 0 830 214" style="enable-background:new 0 0 830 214;" xml:space="preserve">
<style type="text/css">
	.st0{display:none;fill:none;stroke:#999999;}
	.st1{fill-opacity:0;}
	.st2{fill:#BABABA;}
	.st3{enable-background:new    ;}
	.st4{fill:#444444;}
	.st5{fill:#888888;}
	.st6{fill:#FF0000;fill-opacity:0;}
	.st7{opacity:0.6;fill:#BBBBBB;enable-background:new    ;}
	.st8{fill:#FFFFFF;}
	.st9{fill:#E5E5E5;}
	.st10{fill:#878787;}
	.st11{fill:#00A4FF;}
</style>
<path class="st0" d="M0,0L0,0"/>
<g id="textgroup" transform="translate(0,0)">
</g>
<g id="assistantgroup" transform="translate(0,0)">
</g>
<g>
	<g id="DashRectGroup3" transform="translate(2.9921875,68.5)">
		<rect x="0" y="-50" class="st1" width="193" height="182"/>
		<path class="st2" d="M188,132.5h-5v-1h5V132.5z M178,132.5h-5v-1h5V132.5z M168,132.5h-5v-1h5V132.5z M158,132.5h-5v-1h5V132.5z
			 M148,132.5h-5v-1h5V132.5z M138,132.5h-5v-1h5V132.5z M128,132.5h-5v-1h5V132.5z M118,132.5h-5v-1h5V132.5z M108,132.5h-5v-1h5
			V132.5z M98,132.5h-5v-1h5V132.5z M88,132.5h-5v-1h5V132.5z M78,132.5h-5v-1h5V132.5z M68,132.5h-5v-1h5V132.5z M58,132.5h-5v-1h5
			V132.5z M48,132.5h-5v-1h5V132.5z M38,132.5h-5v-1h5V132.5z M28,132.5h-5v-1h5V132.5z M18,132.5h-5v-1h5V132.5z M8,132.5H3v-1h5
			V132.5z M193.5,132h-1v-5h1V132z M0.5,130h-1v-5h1V130z M193.5,122h-1v-5h1V122z M0.5,120h-1v-5h1V120z M193.5,112h-1v-5h1V112z
			 M0.5,110h-1v-5h1V110z M193.5,102h-1v-5h1V102z M0.5,100h-1v-5h1V100z M193.5,92h-1v-5h1V92z M0.5,90h-1v-5h1V90z M193.5,82h-1
			v-5h1V82z M0.5,80h-1v-5h1V80z M193.5,72h-1v-5h1V72z M0.5,70h-1v-5h1V70z M193.5,62h-1v-5h1V62z M0.5,60h-1v-5h1V60z M193.5,52
			h-1v-5h1V52z M0.5,50h-1v-5h1V50z M193.5,42h-1v-5h1V42z M0.5,40h-1v-5h1V40z M193.5,32h-1v-5h1V32z M0.5,30h-1v-5h1V30z
			 M193.5,22h-1v-5h1V22z M0.5,20h-1v-5h1V20z M193.5,12h-1V7h1V12z M0.5,10h-1V5h1V10z M193.5,2h-1v-5h1V2z M0.5,0h-1v-5h1V0z
			 M193.5-8h-1v-5h1V-8z M0.5-10h-1v-5h1V-10z M193.5-18h-1v-5h1V-18z M0.5-20h-1v-5h1V-20z M193.5-28h-1v-5h1V-28z M0.5-30h-1v-5h1
			V-30z M193.5-38h-1v-5h1V-38z M0.5-40h-1v-5h1V-40z M193.5-48h-1v-1.5H190v-1h3.5V-48z M185-49.5h-5v-1h5V-49.5z M175-49.5h-5v-1
			h5V-49.5z M165-49.5h-5v-1h5V-49.5z M155-49.5h-5v-1h5V-49.5z M145-49.5h-5v-1h5V-49.5z M135-49.5h-5v-1h5V-49.5z M125-49.5h-5v-1
			h5V-49.5z M115-49.5h-5v-1h5V-49.5z M105-49.5h-5v-1h5V-49.5z M95-49.5h-5v-1h5V-49.5z M85-49.5h-5v-1h5V-49.5z M75-49.5h-5v-1h5
			V-49.5z M65-49.5h-5v-1h5V-49.5z M55-49.5h-5v-1h5V-49.5z M45-49.5h-5v-1h5V-49.5z M35-49.5h-5v-1h5V-49.5z M25-49.5h-5v-1h5
			V-49.5z M15-49.5h-5v-1h5V-49.5z M5-49.5H0v-1h5V-49.5z"/>
		<g transform="translate(10 10)">
			<g class="st3">
				<path class="st4" d="M1.5-44c0.9,0.7,1.7,1.4,2.3,2.1L3-41.2c-0.5-0.6-1.3-1.3-2.3-2.1L1.5-44z M3.8-39.9
					c-0.5,1.8-1.1,3.5-1.8,5.1L1-35.2c0.7-1.6,1.3-3.3,1.8-5L3.8-39.9z M1.8-47.3C2.7-46.7,3.4-46,4-45.5l-0.7,0.7
					c-0.5-0.6-1.3-1.2-2.2-1.8L1.8-47.3z M6.4-41c-0.1,1.8-0.2,3.2-0.5,4c-0.3,0.9-0.9,1.7-1.7,2.3l-0.6-0.8C4.2-36,4.7-36.6,5-37.4
					c0.3-0.7,0.4-1.9,0.5-3.6H6.4z M4.6-42.5c0.1,0,0.2-0.1,0.2-0.1c0.5-0.3,1.2-1.2,2-2.6H4.4V-46h3.9c-0.2-0.5-0.4-1-0.6-1.4
					l1-0.2c0.2,0.4,0.4,0.9,0.6,1.6H13v0.9H7.9c-0.7,1.2-1.2,2-1.7,2.6c1.6-0.1,3.2-0.2,4.8-0.4c-0.4-0.5-0.7-1-1-1.2l0.8-0.5
					c0.9,1.1,1.7,2.1,2.2,3l-0.8,0.6c-0.1-0.1-0.3-0.5-0.6-1.1c-2,0.2-4.2,0.4-6.7,0.6L4.6-42.5z M7.7-41h1v6.1h-1V-41z M11.4-34.8
					c-0.8,0-1.2-0.4-1.2-1.1V-41h1v4.9c0,0.2,0.1,0.3,0.3,0.3H12c0.3,0,0.4-0.2,0.4-0.5c0.1-0.3,0.1-0.9,0.1-1.6l0.9,0.3
					c0,1.2-0.1,2-0.3,2.3c-0.2,0.3-0.5,0.4-1.1,0.4H11.4z"/>
				<path class="st4" d="M15.1-41.7h5.9v1h-2.5v3.6c0.9-0.2,1.9-0.4,3-0.7v1c-2,0.5-4.1,0.9-6.5,1.2l-0.2-1c0.7-0.1,1.6-0.2,2.7-0.4
					v-3.8h-2.5V-41.7z M14.9-45h6.8c0-0.7-0.1-1.5-0.1-2.5h1c0,1,0,1.8,0.1,2.5h4.3v1h-4.3c0.2,2.3,0.5,4.3,1.1,5.9
					c0.6,1.5,1.1,2.3,1.6,2.3c0.3,0,0.6-0.8,0.9-2.4l0.9,0.5c-0.4,2-1,3-1.7,3.1c-1.2-0.1-2.3-1.6-3.1-4.7c-0.3-1.3-0.5-2.9-0.6-4.6
					h-6.9V-45z M24.9-47.4c0.4,0.5,0.9,1.1,1.3,1.8l-0.8,0.4c-0.4-0.7-0.8-1.3-1.3-1.9L24.9-47.4z"/>
				<path class="st4" d="M32.3-40.9L32-40.1h2.9v0.9c-0.3,0.9-0.8,1.7-1.5,2.4c0.7,0.3,1.3,0.6,1.9,0.9l-0.5,0.8
					c-0.6-0.4-1.4-0.7-2.1-1.1c-0.9,0.6-2.1,1.2-3.5,1.6l-0.5-0.9c1.2-0.3,2.1-0.7,2.9-1.1l-1.9-0.8c0.4-0.6,0.7-1.2,1-1.7h-1.6
					v-0.9H31c0.2-0.7,0.3-0.9,0.3-0.9L32.3-40.9z M28.9-44.8h2.7v-2.7h0.9v2.7h2.5v0.9h-2.5v0.2c0.8,0.4,1.5,0.8,2.3,1.3l-0.5,0.8
					c-0.7-0.6-1.3-1-1.8-1.3v1.8h-0.9v-2.7c-0.5,1.1-1.3,2-2.5,2.9l-0.5-0.8c1.1-0.6,1.8-1.3,2.3-2.1h-2V-44.8z M30-47.2
					c0.4,0.6,0.7,1.1,0.9,1.7l-0.8,0.4c-0.3-0.7-0.6-1.3-1-1.8L30-47.2z M33.9-39.2h-2.4c-0.2,0.5-0.5,0.9-0.8,1.3
					c0.6,0.2,1.1,0.4,1.6,0.6C33.1-37.8,33.6-38.5,33.9-39.2z M35-46.9c-0.3,0.6-0.6,1.2-1.1,1.8l-0.8-0.4c0.4-0.6,0.8-1.2,1-1.8
					L35-46.9z M36.5-42.1c-0.2,0.6-0.5,1.2-0.8,1.7l-0.6-0.8c0.8-1.6,1.4-3.7,1.7-6.3l1,0.2c-0.1,0.6-0.2,1.2-0.3,2h3.7v1h-0.9
					c-0.1,2.3-0.5,4.3-1.2,6c0.7,1.2,1.6,2.2,2.6,2.8L41-34.7c-1-0.7-1.8-1.6-2.5-2.8c-0.7,1.1-1.5,2.1-2.6,2.8l-0.5-0.9
					c1.1-0.8,2-1.7,2.6-2.9C37.4-39.5,36.9-40.7,36.5-42.1z M37.2-44.4c-0.1,0.3-0.2,0.6-0.2,0.7c0.3,1.6,0.8,3,1.4,4.2
					c0.5-1.4,0.8-3.1,0.9-4.9H37.2z"/>
				<path class="st4" d="M43.1-34.8l-0.2-1c0.4,0,0.8,0.1,1.1,0.1c0.4,0,0.5-0.2,0.5-0.6v-3.4c-0.7,0.2-1.2,0.4-1.7,0.6l-0.3-1
					c0.6-0.1,1.3-0.3,1.9-0.6v-3.2h-1.7v-1h1.7v-2.6h1v2.6h1.3v1h-1.3v2.8c0.4-0.2,0.9-0.4,1.3-0.6v1c-0.3,0.1-0.7,0.4-1.3,0.6v4.1
					c0,0.8-0.4,1.2-1.2,1.2H43.1z M48.5-40.9c-0.2,2.4-0.7,4.5-1.6,6.3l-0.8-0.7c1-1.8,1.5-4.2,1.5-7.2v-4.4H55v3.4h-2.6v1.7h3v0.9
					h-3v1.7h2.4v4.6h-0.9v-0.7h-3.8v0.7H49v-4.6h2.3v-1.7H48.5z M51.3-43.5h-2.8l0,1.7h2.8V-43.5z M54-46h-5.4v1.6H54V-46z
					 M49.9-36.2h3.8v-2.1h-3.8V-36.2z"/>
			</g>
		</g>
	</g>
	<g id="DashRectGroup15" transform="translate(614.8966522216797,68.5)">
		<rect x="0" y="-50" class="st1" width="212" height="182"/>
		<path class="st2" d="M212.5,132.5H211v-1h0.5V128h1V132.5z M206,132.5h-5v-1h5V132.5z M196,132.5h-5v-1h5V132.5z M186,132.5h-5v-1
			h5V132.5z M176,132.5h-5v-1h5V132.5z M166,132.5h-5v-1h5V132.5z M156,132.5h-5v-1h5V132.5z M146,132.5h-5v-1h5V132.5z M136,132.5
			h-5v-1h5V132.5z M126,132.5h-5v-1h5V132.5z M116,132.5h-5v-1h5V132.5z M106,132.5h-5v-1h5V132.5z M96,132.5h-5v-1h5V132.5z
			 M86,132.5h-5v-1h5V132.5z M76,132.5h-5v-1h5V132.5z M66,132.5h-5v-1h5V132.5z M56,132.5h-5v-1h5V132.5z M46,132.5h-5v-1h5V132.5z
			 M36,132.5h-5v-1h5V132.5z M26,132.5h-5v-1h5V132.5z M16,132.5h-5v-1h5V132.5z M6,132.5H1v-1h5V132.5z M0.5,128h-1v-5h1V128z
			 M212.5,123h-1v-5h1V123z M0.5,118h-1v-5h1V118z M212.5,113h-1v-5h1V113z M0.5,108h-1v-5h1V108z M212.5,103h-1v-5h1V103z M0.5,98
			h-1v-5h1V98z M212.5,93h-1v-5h1V93z M0.5,88h-1v-5h1V88z M212.5,83h-1v-5h1V83z M0.5,78h-1v-5h1V78z M212.5,73h-1v-5h1V73z
			 M0.5,68h-1v-5h1V68z M212.5,63h-1v-5h1V63z M0.5,58h-1v-5h1V58z M212.5,53h-1v-5h1V53z M0.5,48h-1v-5h1V48z M212.5,43h-1v-5h1V43
			z M0.5,38h-1v-5h1V38z M212.5,33h-1v-5h1V33z M0.5,28h-1v-5h1V28z M212.5,23h-1v-5h1V23z M0.5,18h-1v-5h1V18z M212.5,13h-1V8h1V13
			z M0.5,8h-1V3h1V8z M212.5,3h-1v-5h1V3z M0.5-2h-1v-5h1V-2z M212.5-7h-1v-5h1V-7z M0.5-12h-1v-5h1V-12z M212.5-17h-1v-5h1V-17z
			 M0.5-22h-1v-5h1V-22z M212.5-27h-1v-5h1V-27z M0.5-32h-1v-5h1V-32z M212.5-37h-1v-5h1V-37z M0.5-42h-1v-5h1V-42z M212.5-47h-1
			v-2.5H210v-1h2.5V-47z M205-49.5h-5v-1h5V-49.5z M195-49.5h-5v-1h5V-49.5z M185-49.5h-5v-1h5V-49.5z M175-49.5h-5v-1h5V-49.5z
			 M165-49.5h-5v-1h5V-49.5z M155-49.5h-5v-1h5V-49.5z M145-49.5h-5v-1h5V-49.5z M135-49.5h-5v-1h5V-49.5z M125-49.5h-5v-1h5V-49.5z
			 M115-49.5h-5v-1h5V-49.5z M105-49.5h-5v-1h5V-49.5z M95-49.5h-5v-1h5V-49.5z M85-49.5h-5v-1h5V-49.5z M75-49.5h-5v-1h5V-49.5z
			 M65-49.5h-5v-1h5V-49.5z M55-49.5h-5v-1h5V-49.5z M45-49.5h-5v-1h5V-49.5z M35-49.5h-5v-1h5V-49.5z M25-49.5h-5v-1h5V-49.5z
			 M15-49.5h-5v-1h5V-49.5z M5-49.5H0v-1h5V-49.5z"/>
		<g transform="translate(10 10)">
			<g class="st3">
				<path class="st4" d="M5.9-46.7c-0.7,1.2-1.3,2.2-2,2.9c-0.7,0.8-1.6,1.6-2.8,2.4l-0.5-0.9c1-0.6,1.8-1.3,2.6-2.2
					c0.7-0.8,1.3-1.7,1.9-2.8L5.9-46.7z M2.6-40.9v-1h8.5c0,1.7-0.1,3.1-0.3,4.3c-0.1,1.1-0.4,1.8-0.7,2.2c-0.3,0.4-0.8,0.6-1.6,0.7
					H6l-0.3-1c0.8,0,1.6,0,2.4,0c0.8,0,1.3-0.3,1.5-1c0.2-0.7,0.4-2.1,0.5-4.3H6.4C6-39.4,5.6-38.2,5-37.3c-0.7,1-1.7,1.9-3.1,2.6
					l-0.6-0.8c1.3-0.7,2.2-1.5,2.8-2.3c0.6-0.8,1-1.9,1.3-3.2H2.6z M9.1-47.4c0.8,2.1,2.2,3.8,4.3,5.1l-0.7,0.8
					c-2.1-1.4-3.6-3.2-4.5-5.4L9.1-47.4z"/>
				<path class="st4" d="M17.9-34.7h-1v-7.2c-0.5,1.4-1.1,2.7-1.9,3.9l-0.4-1.1c1.1-1.4,1.8-2.9,2.3-4.7h-2v-1h2v-2.7h1v2.7h1.9v1
					h-1.9v0.8c0.7,0.7,1.4,1.5,2,2.3l-0.5,0.8c-0.5-0.8-1-1.5-1.5-2.1V-34.7z M26.9-46.5c-1.6,0.6-3.4,0.9-5.3,1v2.5h5.7v1h-2.1v7.4
					h-1V-42h-2.6v0.2c-0.1,3-0.8,5.4-2.1,7.1l-0.7-0.7c1.2-1.5,1.8-3.7,1.9-6.4v-4.5c2.1-0.1,4.1-0.4,5.8-1L26.9-46.5z"/>
				<path class="st4" d="M35.4-47.6c0.3,0.4,0.5,0.9,0.7,1.5h5.1v1H30.9v3.1c-0.1,3.1-0.5,5.6-1.4,7.4l-0.8-0.7
					c0.8-1.6,1.2-3.8,1.2-6.7v-4.1H35c-0.2-0.4-0.5-0.9-0.8-1.3L35.4-47.6z M31.1-36.2H37c0.9-2,1.6-4.5,2.3-7.4l1,0.3
					c-0.6,2.7-1.3,5.1-2.2,7.1h3v1h-9.9V-36.2z M32.6-42.9c0.6,1.5,1.1,3.2,1.5,5.1l-1,0.2c-0.4-1.8-0.9-3.5-1.4-5.1L32.6-42.9z
					 M35.4-43.9c0.5,1.5,0.9,3.3,1.3,5.3l-1,0.2c-0.3-1.8-0.7-3.6-1.2-5.2L35.4-43.9z"/>
				<path class="st4" d="M44.9-39.2c-0.2,1.8-0.7,3.3-1.6,4.5l-0.8-0.7c0.9-1.2,1.4-2.8,1.4-4.7v-6.7h10.4v10.5c0,1-0.5,1.5-1.5,1.5
					h-1.6l-0.3-1c0.7,0,1.3,0.1,1.6,0.1c0.5,0,0.8-0.3,0.8-0.9v-2.4h-3.8v4.1h-1v-4.1H44.9z M48.5-45.9H45v2.4h3.6V-45.9z M45-42.6
					v2.5h3.6v-2.5H45z M53.4-43.5v-2.4h-3.8v2.4H53.4z M53.4-40.1v-2.5h-3.8v2.5H53.4z"/>
			</g>
		</g>
	</g>
	<g id="middlegroup" transform="translate(0,0)">
		<g id="Link24" transform="translate(0,0)">
			<rect x="386.5" y="109" class="st5" width="29" height="1"/>
			<g transform="translate(0.5, 0)">
				<polygon class="st5" points="410.5,114 416.5,109.5 410.5,105 				"/>
			</g>
			<rect x="386.5" y="102" class="st6" width="29" height="15"/>
		</g>
		<g id="Link25" transform="translate(0,0)">
			<rect x="579" y="109" class="st5" width="30.5" height="1"/>
			<g transform="translate(0.5, 0)">
				<polygon class="st5" points="604.5,114 610.5,109.5 604.5,105 				"/>
			</g>
			<rect x="579" y="102" class="st6" width="30.5" height="15"/>
		</g>
		<g id="Link23" transform="translate(0,0)">
			<rect x="195.5" y="109" class="st5" width="35" height="1"/>
			<g transform="translate(0.5, 0)">
				<polygon class="st5" points="225.5,114 231.5,109.5 225.5,105 				"/>
			</g>
			<rect x="195.5" y="102" class="st6" width="35" height="15"/>
		</g>
	</g>
	<g id="RectEndPoint1" transform="translate(21.4921875,112)">
		<rect x="2" y="-48" class="st7" width="156" height="50"/>
		<g>
			<rect x="0" y="-50" class="st8" width="156" height="50"/>
			<path class="st9" d="M156.5,0.5h-157v-51h157V0.5z M0.5-0.5h155v-49H0.5V-0.5z"/>
		</g>
		<g transform="translate(20 9)">
			<g>
				<g>
					<path class="st10" d="M5-48.9v30h22v-30H5z M25-20.9H7v-26h18V-20.9z M14-21.9h4v-2h-4V-21.9z M25-26.9H7v2h18V-26.9z"/>
				</g>
			</g>
			<g class="st3">
				<path class="st4" d="M45.2-32.7c-0.6,1.8-1.1,3.4-1.8,4.8l-0.9-0.4c0.7-1.5,1.3-3.1,1.8-4.8L45.2-32.7z M43.3-36.7
					c0.8,0.7,1.5,1.3,2.1,1.9l-0.7,0.7c-0.5-0.7-1.2-1.3-2-2L43.3-36.7z M43.4-40.3c0.8,0.6,1.4,1.2,2,1.8l-0.7,0.7
					c-0.5-0.6-1.1-1.2-2-1.9L43.4-40.3z M46.6-37.3h-1.1v-1h2c-0.1-0.7-0.3-1.4-0.6-2.1l1-0.2c0.2,0.7,0.4,1.4,0.6,2.3H50v1h-2.5v1
					c0,0.3,0,0.6,0,1.1h2.3c0,3.2-0.1,5.2-0.2,6c-0.1,0.9-0.5,1.3-1.3,1.3l-1-0.1l-0.2-0.9c0.6,0,1,0,1.1,0c0.3,0,0.4-0.3,0.5-0.8
					c0.1-0.5,0.2-2.1,0.2-4.7h-1.4c-0.2,2.9-0.8,5.1-1.9,6.6l-0.7-0.7c1.1-1.7,1.7-4.3,1.7-8V-37.3z M51.6-37.5
					c-0.4,0.9-0.8,1.7-1.3,2.3L49.6-36c0.9-1.1,1.5-2.6,1.8-4.5l1,0.2c-0.1,0.6-0.3,1.2-0.4,1.9h3.5v1H51.6z M51.2-36H55v0.9
					c-0.4,0.6-0.9,1.1-1.5,1.7v0.9h1.9v0.9h-1.9v2.5c0,0.9-0.4,1.3-1.1,1.3h-1.2L51-28.7c0.4,0,0.8,0,1.1,0c0.3,0,0.4-0.3,0.4-0.8
					v-2.2h-2.1v-0.9h2.1v-1c0.6-0.6,1-1.1,1.3-1.5h-2.7V-36z"/>
				<path class="st4" d="M57.8-36.8c0.8,0.9,1.6,1.8,2.2,2.6c0.4-1.2,0.7-2.5,0.9-3.9h-3.7v-1h4.7v0.9c-0.1,1.8-0.5,3.5-1.1,4.9
					c0.6,0.8,1.2,1.7,1.7,2.4l-0.7,0.7c-0.4-0.7-0.9-1.5-1.4-2.1c-0.8,1.4-1.8,2.7-3.1,3.7l-0.6-0.8c1.3-1.1,2.3-2.4,3-3.8
					c-0.8-1.1-1.7-2-2.5-2.9L57.8-36.8z M68.8-37.2l0.2,1l-3.8,0.6c0,0.6,0.1,1.2,0.2,1.8c0.1,0.6,0.2,1.2,0.4,1.8
					c0.8-0.9,1.4-1.9,2-3.1l0.8,0.5c-0.8,1.4-1.6,2.6-2.5,3.6c0.1,0.3,0.2,0.6,0.3,0.8c0.4,0.8,0.8,1.2,1.2,1.2
					c0.2-0.1,0.5-0.9,0.7-2.5l0.9,0.6c-0.2,0.8-0.4,1.5-0.6,2c-0.3,0.7-0.6,1-0.9,1c-0.6,0-1.1-0.4-1.7-1.3
					c-0.2-0.4-0.4-0.7-0.6-1.1c-0.9,0.8-1.9,1.5-2.9,1.9l-0.6-0.8c1.2-0.5,2.2-1.2,3.2-2c-0.2-0.6-0.4-1.2-0.5-1.8
					c-0.2-0.6-0.3-1.4-0.4-2.4l-1.8,0.3l-0.2-1l1.8-0.3c-0.1-1.3-0.2-2.6-0.2-4h1c0,1.4,0,2.7,0.1,3.9L68.8-37.2z M66.7-40.1
					c0.7,0.7,1.2,1.3,1.5,1.8l-0.8,0.6c-0.4-0.6-0.9-1.2-1.5-1.9L66.7-40.1z"/>
				<path class="st4" d="M72.9-32.2c-0.2,1.8-0.7,3.3-1.6,4.5l-0.8-0.7c0.9-1.2,1.4-2.8,1.4-4.7v-6.7h10.4v10.5c0,1-0.5,1.5-1.5,1.5
					h-1.6l-0.3-1c0.7,0,1.3,0.1,1.6,0.1c0.5,0,0.8-0.3,0.8-0.9v-2.4h-3.8v4.1h-1v-4.1H72.9z M76.5-38.9H73v2.4h3.6V-38.9z M73-35.6
					v2.5h3.6v-2.5H73z M81.4-36.5v-2.4h-3.8v2.4H81.4z M81.4-33.1v-2.5h-3.8v2.5H81.4z"/>
				<path class="st4" d="M87.2-34c-0.1,2.5-0.7,4.7-2,6.5l-0.7-0.7c1.1-1.6,1.7-3.6,1.7-6.1v-4.4h4.6c-0.3-0.6-0.5-1.2-0.8-1.6
					l1.1-0.2c0.3,0.5,0.5,1.1,0.8,1.8h4.4v4.7H87.2z M95.2-37.8h-8v2.7h8V-37.8z"/>
				<path class="st4" d="M102.6-39.9c-0.8,1.5-2,2.9-3.8,4.1l-0.3-1c1.4-1,2.5-2.2,3.2-3.5L102.6-39.9z M103.3-36.7
					c-0.4,0.8-0.9,1.6-1.5,2.2v6.9h-1v-5.8c-0.6,0.6-1.2,1-1.8,1.5l-0.3-1c1.7-1.2,3-2.6,3.7-4.1L103.3-36.7z M103.6-36h7.7v1H109v6
					c0,0.9-0.5,1.3-1.4,1.3h-2l-0.2-1c0.7,0,1.4,0.1,1.9,0.1c0.5,0,0.7-0.2,0.7-0.7V-35h-4.4V-36z M104-39.6h6.7v1H104V-39.6z"/>
				<path class="st4" d="M117.8-40.5h1v1.7c0,0.6,0,1.2-0.1,1.8h5.8c0,4-0.2,6.5-0.5,7.6c-0.4,1.1-1,1.6-2,1.6c-0.5,0-1.1,0-1.7-0.1
					l-0.3-1c0.7,0.1,1.4,0.1,1.9,0.1c0.8-0.1,1.2-0.8,1.4-2.4c0.1-1.5,0.2-3.2,0.2-5h-4.8c-0.2,1.8-0.6,3.2-1.2,4.4
					c-0.8,1.7-2.2,3-4.1,3.9l-0.6-0.9c1.9-1,3.2-2.2,3.9-3.8c0.4-1,0.7-2.3,0.9-3.7h-4.4v-1h4.5c0-0.6,0.1-1.2,0.1-1.8V-40.5z
					 M114.6-40.1c0.8,0.8,1.4,1.6,1.9,2.2l-0.8,0.5c-0.5-0.7-1.1-1.4-1.9-2.2L114.6-40.1z M119.5-34.2c1,1.1,1.8,2,2.3,2.9l-0.9,0.6
					c-0.6-1-1.4-2-2.3-3L119.5-34.2z"/>
			</g>
		</g>
	</g>
	<g id="RectEndPoint2" transform="translate(21.4921875,180)">
		<rect x="2" y="-48" class="st7" width="156" height="50"/>
		<g>
			<rect x="0" y="-50" class="st8" width="156" height="50"/>
			<path class="st9" d="M156.5,0.5h-157v-51h157V0.5z M0.5-0.5h155v-49H0.5V-0.5z"/>
		</g>
		<g transform="translate(20 9)">
			<g>
				<g>
					<path class="st10" d="M1-46.9v25h30v-25H1z M29-23.9H3v-15h26V-23.9z M29-40.9H3v-4h26V-40.9z M8-43.9H4v2h4V-43.9z"/>
				</g>
			</g>
			<g class="st3">
				<path class="st4" d="M51.9-27.7l-0.3-1l1.3,0c0.4,0,0.6-0.2,0.6-0.6v-9.7h-9.2v11.3h-1v-12.2h11.2V-29c0,0.9-0.4,1.3-1.2,1.3
					H51.9z M48.6-30.8c-0.4-0.6-0.8-1.3-1.3-2c-0.5,1.4-1.1,2.5-1.8,3.5l-0.6-0.8c0.7-1,1.3-2.3,1.8-3.7c-0.6-0.9-1.3-1.7-2-2.4
					l0.6-0.6c0.6,0.6,1.1,1.3,1.7,2c0.3-1,0.5-2.1,0.7-3.2l0.9,0.2c-0.2,1.4-0.5,2.8-0.9,3.9c0.6,0.8,1.2,1.6,1.7,2.4L48.6-30.8z
					 M52.7-30.2c-0.4-0.7-0.9-1.5-1.4-2.3c-0.6,1.4-1.2,2.5-2,3.5l-0.6-0.8c0.8-1.1,1.4-2.3,2-3.7c-0.7-1-1.3-1.9-1.9-2.6l0.6-0.6
					c0.6,0.6,1.1,1.3,1.7,2.1c0.3-1,0.5-2.1,0.7-3.4l1,0.2c-0.3,1.5-0.6,3-1,4.2c0.6,0.9,1.2,1.8,1.7,2.7L52.7-30.2z"/>
				<path class="st4" d="M62.1-29.7c-1.6,0.5-3.3,0.8-5.1,1.1l-0.2-1c1-0.1,2-0.3,3-0.5c0.4-1.9,0.7-4,1-6.3l1,0.1
					c-0.2,2.2-0.6,4.2-1,6c0.6-0.1,1-0.3,1.4-0.4V-29.7z M56.8-38.1h2.3c-0.1-0.7-0.3-1.4-0.6-2.1l1-0.2c0.2,0.6,0.4,1.4,0.5,2.2
					h2.3v1h-5.5V-38.1z M58.1-36.3c0.3,1.7,0.6,3.5,0.9,5.6l-0.8,0.2c-0.2-1.9-0.6-3.7-1-5.5L58.1-36.3z M64.7-40.5h1v2.5h3.5v1
					h-3.5v2.7h2.8v6.6h-1v-0.9h-3.9v0.9h-1v-6.6h2V-40.5z M63.7-29.6h3.9v-3.9h-3.9V-29.6z"/>
				<path class="st4" d="M73.3-30.8c-0.5,1.2-1.2,2.3-1.8,3.2l-0.8-0.6c0.7-0.8,1.3-1.8,1.8-3L73.3-30.8z M76.3-40.4h1v1.4h5.4v1
					h-5.4v1.8h4.5v4.5h-9.3v-4.5h3.8V-40.4z M80.7-32.8v-2.6h-7.3v2.6H80.7z M75.5-30.8c0.3,0.9,0.5,1.9,0.8,3l-1,0.2
					c-0.2-1.2-0.4-2.2-0.7-3L75.5-30.8z M78.4-31c0.4,0.9,0.8,2,1.1,3.1l-1,0.2c-0.3-1.2-0.6-2.2-1.1-3.1L78.4-31z M81.3-31.3
					c0.9,1.1,1.5,2.2,2,3.1l-0.8,0.6c-0.5-0.9-1.1-2-2-3.1L81.3-31.3z"/>
				<path class="st4" d="M85.9-38.4h4.6v-2h1v2H96v1h-4.5v2.3h5.7v1h-5.7v4.9h3.3v-3.7h1v5.3h-1v-0.6h-7.6v0.6h-1v-5.3h1v3.7h3.3
					v-4.9h-5.7v-1h5.7v-2.3h-4.6V-38.4z"/>
				<path class="st4" d="M99.5-37c0.9,0.7,1.7,1.4,2.3,2.1l-0.7,0.7c-0.5-0.6-1.3-1.3-2.3-2.1L99.5-37z M101.8-32.9
					c-0.5,1.8-1.1,3.5-1.8,5.1L99-28.2c0.7-1.6,1.3-3.3,1.8-5L101.8-32.9z M99.8-40.3c0.9,0.6,1.6,1.2,2.2,1.8l-0.7,0.7
					c-0.5-0.6-1.3-1.2-2.2-1.8L99.8-40.3z M104.4-34c-0.1,1.8-0.2,3.2-0.5,4c-0.3,0.9-0.9,1.7-1.7,2.3l-0.6-0.8
					c0.7-0.6,1.1-1.2,1.4-1.9c0.3-0.7,0.4-1.9,0.5-3.6H104.4z M102.6-35.5c0.1,0,0.2-0.1,0.2-0.1c0.5-0.3,1.2-1.2,2-2.6h-2.5V-39
					h3.9c-0.2-0.5-0.4-1-0.6-1.4l1-0.2c0.2,0.4,0.4,0.9,0.6,1.6h3.7v0.9h-5.1c-0.7,1.2-1.2,2-1.7,2.6c1.6-0.1,3.2-0.2,4.8-0.4
					c-0.4-0.5-0.7-1-1-1.2l0.8-0.5c0.9,1.1,1.7,2.1,2.2,3l-0.8,0.6c-0.1-0.1-0.3-0.5-0.6-1.1c-2,0.2-4.2,0.4-6.7,0.6L102.6-35.5z
					 M105.7-34h1v6.1h-1V-34z M109.4-27.8c-0.8,0-1.2-0.4-1.2-1.1V-34h1v4.9c0,0.2,0.1,0.3,0.3,0.3h0.6c0.3,0,0.4-0.2,0.4-0.5
					c0.1-0.3,0.1-0.9,0.1-1.6l0.9,0.3c0,1.2-0.1,2-0.3,2.3c-0.2,0.3-0.5,0.4-1.1,0.4H109.4z"/>
			</g>
		</g>
	</g>
	<g id="ShadowBasicRect4" transform="translate(409.5078125,134.5)">
		<rect x="13" y="-48" class="st7" width="158.5" height="50"/>
		<g>
			<rect x="11" y="-50" class="st8" width="158.5" height="50"/>
			<path class="st9" d="M170,0.5H10.5v-51H170V0.5z M11.5-0.5H169v-49H11.5V-0.5z"/>
		</g>
		<g transform="translate(20 9)">
			<path class="st11" d="M10.5-43.5c-1.1,0-2-0.9-2-2c0-1.1,0.9-2,2-2c0.7,0,1.4,0.4,1.7,1h23.3h2v2v15h-2v-15H12.2
				C11.9-43.9,11.2-43.5,10.5-43.5z M36.5-25.5c-0.7,0-1.4,0.4-1.7,1H11.5v-15h-2v17h1h1h23.3c0.3,0.6,1,1,1.7,1c1.1,0,2-0.9,2-2
				S37.6-25.5,36.5-25.5z M23.5-38.5l7,4v8h-14v-8L23.5-38.5z M28.5-33.3l-5-2.9l-5,2.9v4.8h10V-33.3z M32.5-37.5l-9-5l-9,5v2.4l9-5
				l9,5V-37.5z"/>
			<g transform="translate(20 9)">
				<g class="st3">
					<path class="st4" d="M36-47.5c0.6,0.5,0.9,1.2,1,2.1h-1c-0.1-0.6-0.4-1.1-0.8-1.5s-1-0.5-1.7-0.5c-0.7,0-1.2,0.1-1.6,0.3
						c-0.4,0.3-0.6,0.6-0.6,1.1c0,0.5,0.3,0.8,0.8,1.1c0.2,0.1,0.8,0.3,1.7,0.6c1.2,0.4,2,0.6,2.3,0.9c0.7,0.5,1.1,1.1,1.1,1.9
						c0,0.8-0.3,1.4-0.9,1.9c-0.6,0.4-1.5,0.7-2.6,0.7c-1.1,0-1.9-0.2-2.5-0.7c-0.7-0.5-1.1-1.4-1.2-2.5h1c0.1,0.8,0.4,1.4,0.8,1.7
						c0.4,0.3,1,0.5,1.8,0.5c0.7,0,1.3-0.1,1.8-0.4c0.5-0.3,0.7-0.7,0.7-1.1c0-0.6-0.3-1-0.9-1.3c-0.2-0.1-0.9-0.4-1.9-0.7
						c-1.1-0.3-1.8-0.6-2.1-0.7c-0.7-0.4-1-1-1-1.7c0-0.8,0.3-1.4,1-1.8c0.6-0.4,1.4-0.6,2.3-0.6C34.7-48.2,35.5-47.9,36-47.5z"/>
					<path class="st4" d="M44-43v4h-1v-3.9c0-1.3-0.6-1.9-1.7-1.9c-0.5,0-0.8,0.2-1.2,0.5c-0.3,0.3-0.5,0.8-0.6,1.4v3.9h-1v-6.5h1v1
						c0.2-0.4,0.5-0.6,0.9-0.8c0.4-0.2,0.7-0.3,1.2-0.3C43.1-45.7,44-44.8,44-43z"/>
					<path class="st4" d="M50.8-44.7c0.6,0.6,0.8,1.5,0.8,2.4c0,1-0.3,1.8-0.8,2.4c-0.6,0.7-1.4,1-2.3,1c-1,0-1.8-0.3-2.3-1
						c-0.6-0.6-0.8-1.4-0.8-2.4c0-1,0.3-1.8,0.8-2.4c0.6-0.7,1.4-1,2.3-1S50.2-45.3,50.8-44.7z M46.8-44c-0.3,0.5-0.5,1.1-0.5,1.8
						c0,0.7,0.2,1.3,0.5,1.8c0.4,0.5,0.9,0.8,1.6,0.8c0.7,0,1.2-0.3,1.6-0.8c0.3-0.5,0.5-1.1,0.5-1.8c0-0.7-0.2-1.3-0.5-1.8
						c-0.4-0.5-0.9-0.8-1.6-0.8C47.7-44.8,47.2-44.6,46.8-44z"/>
					<path class="st4" d="M52.2-45.5h1.1l1.9,5.3l1.9-5.3h1.1L55.7-39h-1L52.2-45.5z"/>
					<path class="st4" d="M63.9-44.9c0.4,0.4,0.6,1,0.6,1.8v4.2h-0.9v-1.1c-0.3,0.4-0.6,0.7-1,0.9c-0.5,0.3-1,0.4-1.6,0.4
						c-0.7,0-1.2-0.2-1.6-0.5c-0.4-0.3-0.6-0.8-0.6-1.4c0-0.8,0.3-1.4,1-1.8c0.5-0.3,1.3-0.5,2.2-0.5l1.6,0v-0.2
						c0-1.1-0.6-1.6-1.7-1.6c-0.5,0-0.9,0.1-1.2,0.3c-0.3,0.2-0.5,0.6-0.6,1h-1c0.1-0.7,0.4-1.3,1-1.7c0.5-0.3,1.1-0.5,1.9-0.5
						C62.8-45.7,63.5-45.4,63.9-44.9z M63.5-42.2l-1.5,0c-1.5,0-2.2,0.5-2.2,1.5c0,0.3,0.1,0.6,0.4,0.8c0.2,0.2,0.6,0.3,1,0.3
						c0.7,0,1.2-0.2,1.7-0.6c0.4-0.4,0.7-0.9,0.7-1.4V-42.2z"/>
					<path class="st4" d="M69.1-43.3l-0.3,0.7h2.6v0.8c-0.3,0.8-0.7,1.5-1.4,2.1c0.6,0.3,1.2,0.5,1.7,0.8l-0.5,0.7
						c-0.6-0.3-1.2-0.7-1.9-1c-0.9,0.6-1.9,1-3.2,1.4l-0.4-0.8c1.1-0.3,1.9-0.6,2.7-1l-1.8-0.7c0.4-0.6,0.6-1.1,0.9-1.6h-1.5v-0.8
						H68c0.2-0.6,0.3-0.9,0.3-0.8L69.1-43.3z M66.1-46.9h2.5v-2.4h0.8v2.4h2.3v0.8h-2.3v0.1c0.7,0.3,1.4,0.7,2.1,1.2L71.1-44
						c-0.6-0.5-1.2-0.9-1.6-1.2v1.6h-0.8V-46c-0.4,1-1.2,1.8-2.3,2.6l-0.4-0.7c1-0.6,1.7-1.2,2-1.9h-1.8V-46.9z M67.1-49
						c0.3,0.5,0.6,1,0.8,1.6l-0.7,0.3c-0.3-0.6-0.5-1.1-0.9-1.6L67.1-49z M70.6-41.8h-2.1c-0.2,0.4-0.4,0.8-0.7,1.2
						c0.5,0.2,1,0.4,1.4,0.5C69.9-40.6,70.4-41.2,70.6-41.8z M71.6-48.7c-0.3,0.6-0.6,1.1-1,1.6L70-47.5c0.4-0.6,0.7-1.1,0.9-1.6
						L71.6-48.7z M73-44.4c-0.2,0.6-0.5,1.1-0.7,1.6l-0.6-0.7c0.7-1.4,1.3-3.3,1.5-5.7l0.9,0.2c-0.1,0.5-0.2,1.1-0.3,1.8h3.3v0.9
						h-0.8c-0.1,2.1-0.4,3.9-1.1,5.4c0.7,1.1,1.4,2,2.3,2.6L77-37.7c-0.9-0.6-1.6-1.4-2.3-2.5c-0.6,1-1.4,1.9-2.3,2.5l-0.5-0.8
						c1-0.7,1.8-1.6,2.3-2.6C73.7-42.1,73.3-43.2,73-44.4z M73.6-46.5c-0.1,0.3-0.1,0.5-0.2,0.7c0.3,1.4,0.7,2.7,1.2,3.8
						c0.5-1.3,0.8-2.8,0.8-4.4H73.6z"/>
					<path class="st4" d="M78.9-37.8l-0.2-0.9c0.4,0,0.7,0.1,1,0.1c0.3,0,0.5-0.2,0.5-0.6v-3.1c-0.6,0.2-1.1,0.4-1.5,0.5l-0.2-0.9
						c0.6-0.1,1.1-0.3,1.7-0.5V-46h-1.5v-0.9h1.5v-2.4h0.9v2.4h1.2v0.9h-1.2v2.5c0.4-0.2,0.8-0.4,1.2-0.6v0.9
						c-0.3,0.1-0.7,0.3-1.2,0.6v3.7c0,0.7-0.4,1.1-1.1,1.1H78.9z M83.8-43.4c-0.2,2.2-0.6,4.1-1.5,5.7l-0.7-0.6
						c0.9-1.7,1.3-3.8,1.4-6.5v-4h6.7v3.1h-2.4v1.5h2.7v0.8h-2.7v1.6h2.1v4.1h-0.8v-0.6h-3.4v0.6h-0.8v-4.1h2.1v-1.6H83.8z
						 M86.3-45.7h-2.5l0,1.5h2.5V-45.7z M88.7-47.9h-4.9v1.4h4.9V-47.9z M85.1-39.1h3.4V-41h-3.4V-39.1z"/>
					<path class="st4" d="M97.2-49.2c1.6,1.9,3.4,3.4,5.5,4.5l-0.5,0.8c-2.1-1.1-3.9-2.6-5.3-4.5c-1.4,1.7-3.2,3.2-5.4,4.5L91-44.7
						c2.2-1.2,4-2.7,5.5-4.5H97.2z M99.1-43.9h-4.4v4.4c0,0.5,0.3,0.7,0.8,0.7h3.7c0.7,0,1.2-0.1,1.3-0.4c0.2-0.3,0.3-0.8,0.4-1.7
						l0.8,0.3c-0.1,1.2-0.3,2-0.7,2.3c-0.3,0.2-0.9,0.4-1.7,0.4h-4.3c-0.9,0-1.4-0.4-1.4-1.3v-5.5h6.3v2.9c0,0.8-0.4,1.2-1.1,1.2
						c-0.6,0-1.2,0-1.8,0l-0.2-0.9c0.6,0.1,1.2,0.1,1.7,0.1c0.3,0,0.5-0.2,0.5-0.7V-43.9z"/>
					<path class="st4" d="M109.9-49.4c0.2,0.4,0.5,0.8,0.6,1.2h4.5v0.9h-9.4v2.9c-0.1,2.8-0.5,5-1.3,6.7l-0.7-0.7
						c0.7-1.4,1.1-3.5,1.1-6v-3.8h4.7c-0.2-0.4-0.4-0.7-0.7-1L109.9-49.4z M110-46.7c-0.1,0.2-0.2,0.6-0.3,1h4.9v0.8h-5.2
						c-0.4,0.8-0.7,1.5-1.1,2.2h2.4v-1.5h0.9v1.5h2.8v0.8h-2.8v1.4h3.8v0.8h-3.8v2h-0.9v-2H106v-0.8h4.6v-1.4h-3.3l-0.2-0.8
						c0.5-0.6,0.9-1.3,1.3-2.2h-1.9v-0.8h2.2c0.1-0.4,0.3-0.8,0.4-1.2L110-46.7z"/>
				</g>
			</g>
		</g>
	</g>
	<g id="ShadowBasicRect8" transform="translate(632,112)">
		<rect x="2" y="-48" class="st7" width="177.8" height="50"/>
		<g>
			<rect y="-50" class="st8" width="177.8" height="50"/>
			<path class="st9" d="M178.3,0.5H-0.5v-51h178.8V0.5z M0.5-0.5h176.8v-49H0.5V-0.5z"/>
		</g>
		<g transform="translate(20 9)">
			<g>
				<title  xmlns="http://www.w3.org/2000/svg">Product Icons【32】</title>
				<g id="_编组_">
					<path id="_复合路径_" class="st11" d="M29-21c-0.7,0-1.4-0.4-1.7-1H2v-17h2v15h23.3c0.6-1,1.8-1.3,2.7-0.7
						c1,0.6,1.3,1.8,0.7,2.7C30.4-21.4,29.7-21,29-21z M14.9-38.9c1.6-2.3,4.7-2.8,7-1.2c2.3,1.6,2.8,4.7,1.2,7
						c-0.8,1.2-2.1,1.9-3.5,2.1c-1,3.2-4.4,5-7.6,4s-5-4.4-4-7.6C8.9-37.7,11.9-39.4,14.9-38.9z M16-36c0,1.3,0.8,2.4,2,2.8
						c-0.1-1.3-0.8-2.6-1.9-3.2C16-36.3,16-36.1,16-36z M22-36c0-1.7-1.3-3-3-3c-0.7,0-1.5,0.3-2,0.8c1.8,1,2.9,2.9,3,5
						C21.2-33.6,22-34.7,22-36z M10-33c0,2.2,1.8,4,4,4c1.5,0,2.9-0.9,3.6-2.2c-2.5-0.7-4-3.2-3.5-5.8H14C11.8-37,10-35.2,10-33z
						 M28-44H4.7c-0.5,1-1.8,1.3-2.7,0.7C1.1-43.9,0.7-45,1.3-46S3-47.3,4-46.7c0.3,0.1,0.5,0.4,0.7,0.7H30v17h-2V-44z"/>
				</g>
			</g>
			<g class="st3">
				<path class="st4" d="M49.1-40.6c0.2,0.5,0.4,0.9,0.5,1.3h5.6v1h-3c-0.2,0.6-0.5,1.1-0.8,1.7h3.1v7.5c0,1-0.4,1.5-1.2,1.5h-1.4
					l-0.3-0.9l1.4,0c0.4,0,0.6-0.3,0.6-0.8v-6.4h-9v8h-1v-8.9h3c-0.2-0.6-0.4-1.1-0.7-1.7h-2.9v-1h5.7c-0.2-0.4-0.3-0.8-0.5-1.1
					L49.1-40.6z M48.3-34.9c-0.8,1-1.8,1.8-3,2.5l-0.6-0.8c1.1-0.6,2.1-1.4,2.9-2.3L48.3-34.9z M46.4-32.8h5.2v3.4h-5.2V-32.8z
					 M50.3-36.6c0.3-0.6,0.6-1.1,0.8-1.7h-4.2c0.2,0.5,0.4,1,0.7,1.7H50.3z M50.6-30.2v-1.6h-3.3v1.6H50.6z M50.4-35.5
					c1.2,0.8,2.1,1.6,2.9,2.4l-0.8,0.7c-0.7-0.8-1.7-1.6-2.8-2.5L50.4-35.5z"/>
				<path class="st4" d="M61-40.3h1v11.1h2v-11.1h1v11.1h4.2v1H56.8v-1H61V-40.3z M58-37.8c0.7,1.9,1.4,4.1,2,6.5L59-31.1
					c-0.5-2.2-1.1-4.4-1.9-6.5L58-37.8z M68.8-37.5c-0.6,2.4-1.3,4.6-2.1,6.4l-0.9-0.3c0.8-1.7,1.5-3.8,2.1-6.3L68.8-37.5z"/>
				<path class="st4" d="M72.6-38.5c-0.3,0.5-0.7,1-1.1,1.3L70.9-38c0.7-0.6,1.2-1.5,1.7-2.6l0.9,0.2c-0.1,0.3-0.2,0.6-0.4,0.9h4
					v0.9H75c0,0.5-0.1,0.9-0.1,1.4h2.6v0.9h-2.8c-0.1,0.2-0.1,0.3-0.1,0.4c1.1,0.5,2,1.1,2.7,1.6l-0.7,0.7c-0.6-0.5-1.3-1.1-2.3-1.6
					c-0.6,1-1.5,1.8-2.9,2.4l-0.7-0.8c1.4-0.6,2.4-1.4,2.9-2.4l0.1-0.3h-2.8v-0.9h3.1c0.1-0.4,0.1-0.8,0.2-1.4H72.6z M81.7-33.4v5.8
					h-1v-0.6h-6.9v0.6h-1v-5.8H81.7z M73.7-31.2h6.9v-1.3h-6.9V-31.2z M73.7-29.1h6.9v-1.2h-6.9V-29.1z M78.1-39.5h4.6v5.1h-4.6
					V-39.5z M81.7-35.3v-3.3H79v3.3H81.7z"/>
				<path class="st4" d="M89.7-39.5c0.9,1.2,1.5,2.2,2,3l-0.8,0.6c-0.1-0.3-0.3-0.6-0.5-0.9c-1.4,0.2-3.2,0.4-5.4,0.5l-0.3-0.8
					c0.2,0,0.3-0.1,0.5-0.3c0.9-0.9,1.6-1.9,2.2-3l1,0.3c-0.7,1.3-1.4,2.2-2.1,2.9c1.2-0.1,2.5-0.2,3.7-0.3c-0.3-0.5-0.6-1-1-1.4
					L89.7-39.5z M86.5-30.3v2.7h-1v-7.9h5.2v6.6c0,0.8-0.4,1.2-1.2,1.2h-1.2l-0.3-1l1.1,0c0.4,0,0.5-0.2,0.5-0.5v-1.1H86.5z
					 M89.8-33.3v-1.3h-3.3v1.3H89.8z M86.5-32.4v1.3h3.3v-1.3H86.5z M93.3-34.4c-0.9,0-1.3-0.5-1.3-1.4v-4.7h1v1.9
					c1.5-0.2,2.8-0.5,3.8-0.7l0.3,0.9c-1.2,0.3-2.6,0.6-4.1,0.8v1.7c0,0.5,0.2,0.7,0.6,0.7h1.8c0.3,0,0.5-0.1,0.6-0.2
					c0.1-0.2,0.2-0.7,0.3-1.6l0.9,0.3c-0.1,1.1-0.3,1.8-0.5,2.1c-0.2,0.2-0.6,0.3-1.1,0.3H93.3z M93-29.3c0,0.3,0.2,0.5,0.5,0.5h1.8
					c0.3,0,0.5-0.1,0.6-0.2c0.1-0.2,0.2-0.7,0.3-1.6l0.9,0.3c-0.1,1.1-0.3,1.8-0.5,2.1c-0.2,0.2-0.6,0.3-1.1,0.3h-2.3
					c-0.8,0-1.3-0.4-1.3-1.2v-4.8h1v1.7c1.4-0.1,2.7-0.4,3.8-0.7l0.3,0.9c-1.2,0.4-2.6,0.6-4.1,0.7V-29.3z"/>
				<path class="st4" d="M103.9-39.7c-0.7,1.2-1.3,2.2-2,2.9c-0.7,0.8-1.6,1.6-2.8,2.4l-0.5-0.9c1-0.6,1.8-1.3,2.6-2.2
					c0.7-0.8,1.3-1.7,1.9-2.8L103.9-39.7z M100.6-33.9v-1h8.5c0,1.7-0.1,3.1-0.3,4.3c-0.1,1.1-0.4,1.8-0.7,2.2
					c-0.3,0.4-0.8,0.6-1.6,0.7H104l-0.3-1c0.8,0,1.6,0,2.4,0c0.8,0,1.3-0.3,1.5-1c0.2-0.7,0.4-2.1,0.5-4.3h-3.7
					c-0.3,1.5-0.8,2.8-1.4,3.7c-0.7,1-1.7,1.9-3.1,2.6l-0.6-0.8c1.3-0.7,2.2-1.5,2.8-2.3c0.6-0.8,1-1.9,1.3-3.2H100.6z M107.1-40.4
					c0.8,2.1,2.2,3.8,4.3,5.1l-0.7,0.8c-2.1-1.4-3.6-3.2-4.5-5.4L107.1-40.4z"/>
				<path class="st4" d="M115.9-27.7h-1v-7.2c-0.5,1.4-1.1,2.7-1.9,3.9l-0.4-1.1c1.1-1.4,1.8-2.9,2.3-4.7h-2v-1h2v-2.7h1v2.7h1.9v1
					h-1.9v0.8c0.7,0.7,1.4,1.5,2,2.3l-0.5,0.8c-0.5-0.8-1-1.5-1.5-2.1V-27.7z M124.9-39.5c-1.6,0.6-3.4,0.9-5.3,1v2.5h5.7v1h-2.1
					v7.4h-1V-35h-2.6v0.2c-0.1,3-0.8,5.4-2.1,7.1l-0.7-0.7c1.2-1.5,1.8-3.7,1.9-6.4v-4.5c2.1-0.1,4.1-0.4,5.8-1L124.9-39.5z"/>
				<path class="st4" d="M127-39h4.5c0.9,0,1.7,0.2,2.2,0.7c0.5,0.4,0.8,1.1,0.8,1.8c0,0.6-0.2,1-0.4,1.5c-0.3,0.4-0.7,0.6-1.2,0.8
					c0.6,0.1,1.2,0.4,1.5,0.8c0.4,0.4,0.6,1,0.6,1.6c0,1-0.3,1.7-1,2.2c-0.6,0.4-1.4,0.6-2.4,0.6H127V-39z M128.2-38.1v3.4h3
					c0.7,0,1.2-0.1,1.6-0.4c0.4-0.3,0.6-0.7,0.6-1.3c0-0.6-0.2-1-0.5-1.3c-0.4-0.3-0.9-0.4-1.6-0.4H128.2z M128.2-33.7v3.7h3.2
					c0.7,0,1.2-0.1,1.7-0.4c0.5-0.3,0.7-0.8,0.7-1.4c0-0.6-0.2-1.1-0.6-1.4c-0.4-0.3-1-0.4-1.8-0.4H128.2z"/>
				<path class="st4" d="M136.6-39h1.1v10h-1.1V-39z"/>
			</g>
		</g>
	</g>
	<g id="ShadowBasicRect10" transform="translate(632,180)">
		<rect x="2" y="-48" class="st7" width="177.8" height="50"/>
		<g>
			<rect y="-50" class="st8" width="177.8" height="50"/>
			<path class="st9" d="M178.3,0.5H-0.5v-51h178.8V0.5z M0.5-0.5h176.8v-49H0.5V-0.5z"/>
		</g>
		<g transform="translate(60.89665222167969,9)">
			<g class="st3">
				<path class="st4" d="M5-40.3h1v11.1h2v-11.1h1v11.1h4.2v1H0.8v-1H5V-40.3z M2-37.8c0.7,1.9,1.4,4.1,2,6.5L3-31.1
					c-0.5-2.2-1.1-4.4-1.9-6.5L2-37.8z M12.8-37.5c-0.6,2.4-1.3,4.6-2.1,6.4l-0.9-0.3c0.8-1.7,1.5-3.8,2.1-6.3L12.8-37.5z"/>
				<path class="st4" d="M19.8-40.4c-0.1,0.3-0.3,0.7-0.5,1.1h6.1v0.8c-0.9,1-2,1.9-3.3,2.6c1.6,0.7,3.4,1.1,5.3,1.3L27-33.6
					c-2.2-0.3-4.2-0.8-5.9-1.7c-1.7,0.8-3.7,1.4-6,1.7l-0.5-1c2-0.3,3.8-0.7,5.3-1.3c-0.8-0.4-1.5-1-2.2-1.6
					c-0.6,0.5-1.1,0.9-1.8,1.3L15.4-37c1.7-1,2.8-2.2,3.4-3.5L19.8-40.4z M21.2-34.3c0,0.5,0,1-0.1,1.6H26c0,2.4-0.2,3.8-0.6,4.2
					c-0.4,0.5-1.1,0.7-2.1,0.7c-0.2,0-0.8,0-1.6-0.1l-0.3-0.9l1.7,0.1c0.8,0,1.4-0.2,1.6-0.5c0.2-0.3,0.3-1.2,0.4-2.6h-4.1
					c-0.1,0.3-0.3,0.7-0.4,1c-0.7,1.3-2.4,2.3-4.9,3.1l-0.7-0.8c2.3-0.7,3.8-1.5,4.5-2.5c0.2-0.3,0.3-0.6,0.4-0.8h-4.2v-0.9H20
					c0.1-0.5,0.2-1,0.2-1.6H21.2z M24-38.4h-5.3l-0.2,0.2c0.8,0.7,1.6,1.3,2.6,1.8C22.1-36.9,23.1-37.6,24-38.4z"/>
				<path class="st4" d="M35.4-40.6c0.3,0.4,0.5,0.9,0.7,1.5h5.1v1H30.9v3.1c-0.1,3.1-0.5,5.6-1.4,7.4l-0.8-0.7
					c0.8-1.6,1.2-3.8,1.2-6.6v-4.1H35c-0.2-0.4-0.5-0.9-0.8-1.3L35.4-40.6z M31.1-29.2H37c0.9-2,1.6-4.5,2.3-7.4l1,0.3
					c-0.6,2.7-1.3,5.1-2.2,7.1h3v1h-9.9V-29.2z M32.6-35.9c0.6,1.5,1.1,3.2,1.5,5.1l-1,0.2c-0.4-1.8-0.9-3.5-1.4-5.1L32.6-35.9z
					 M35.4-36.9c0.5,1.5,0.9,3.3,1.3,5.3l-1,0.2c-0.3-1.8-0.7-3.6-1.2-5.2L35.4-36.9z"/>
				<path class="st4" d="M44.9-32.2c-0.2,1.8-0.7,3.3-1.6,4.5l-0.8-0.7c0.9-1.2,1.4-2.8,1.4-4.7v-6.7h10.4v10.5c0,1-0.5,1.5-1.5,1.5
					h-1.6l-0.3-1c0.7,0,1.3,0.1,1.6,0.1c0.5,0,0.8-0.3,0.8-0.9v-2.4h-3.8v4.1h-1v-4.1H44.9z M48.5-38.9H45v2.4h3.6V-38.9z M45-35.6
					v2.5h3.6v-2.5H45z M53.4-36.5v-2.4h-3.8v2.4H53.4z M53.4-33.1v-2.5h-3.8v2.5H53.4z"/>
			</g>
		</g>
	</g>
	<g>
		<path class="st11" d="M666,149v2h-2v-2H666 M668,147h-6v6h6V147L668,147z"/>
		<path class="st11" d="M674,149v2h-2v-2H674 M676,147h-6v6h6V147L676,147z"/>
		<path class="st11" d="M666,157v2h-2v-2H666 M668,155h-6v6h6V155L668,155z"/>
		<path class="st11" d="M674,157v2h-2v-2H674 M676,155h-6v6h6V155L676,155z"/>
		<path class="st11" d="M669,142c6.6,0,12,5.4,12,12s-5.4,12-12,12s-12-5.4-12-12S662.4,142,669,142 M669,140c-7.7,0-14,6.3-14,14
			s6.3,14,14,14s14-6.3,14-14S676.7,140,669,140L669,140z"/>
	</g>
	<g>
		<g id="DashRectGroup3_1_" transform="translate(2.9921875,68.5)">
			<g transform="translate(10 10)">
				<g class="st3">
					<path class="st4" d="M233.5-43.8c0.9,0.7,1.7,1.4,2.3,2.1L235-41c-0.5-0.6-1.3-1.3-2.3-2.1L233.5-43.8z M235.8-39.8
						c-0.5,1.8-1.1,3.5-1.8,5.1l-0.9-0.4c0.7-1.6,1.3-3.3,1.8-5L235.8-39.8z M233.8-47.1c0.9,0.6,1.6,1.2,2.2,1.8l-0.7,0.7
						c-0.5-0.6-1.3-1.2-2.2-1.8L233.8-47.1z M238.4-40.9c-0.1,1.8-0.2,3.2-0.5,4c-0.3,0.9-0.9,1.7-1.7,2.3l-0.6-0.8
						c0.7-0.6,1.1-1.2,1.4-1.9c0.3-0.7,0.4-1.9,0.5-3.6H238.4z M236.6-42.3c0.1,0,0.2-0.1,0.2-0.1c0.5-0.3,1.2-1.2,2-2.6h-2.5v-0.9
						h3.9c-0.2-0.5-0.4-1-0.6-1.4l1-0.2c0.2,0.4,0.4,0.9,0.6,1.6h3.7v0.9h-5.1c-0.7,1.2-1.2,2-1.7,2.6c1.6-0.1,3.2-0.2,4.8-0.4
						c-0.4-0.5-0.7-1-1-1.2l0.8-0.5c0.9,1.1,1.7,2.1,2.2,3l-0.8,0.6c-0.1-0.1-0.3-0.5-0.6-1.1c-2,0.2-4.2,0.4-6.7,0.6L236.6-42.3z
						 M239.7-40.8h1v6.1h-1V-40.8z M243.4-34.6c-0.8,0-1.2-0.4-1.2-1.1v-5.1h1v4.9c0,0.2,0.1,0.3,0.3,0.3h0.6c0.3,0,0.4-0.2,0.4-0.5
						c0.1-0.3,0.1-0.9,0.1-1.6l0.9,0.3c0,1.2-0.1,2-0.3,2.3c-0.2,0.3-0.5,0.4-1.1,0.4H243.4z"/>
					<path class="st4" d="M246.6-43.1h3v6.2c0.7-0.6,1.2-1,1.7-1.5l0.3,1c-0.8,0.8-1.8,1.6-2.8,2.2l-0.4-0.9
						c0.2-0.2,0.3-0.4,0.3-0.6v-5.6h-2.1V-43.1z M248.3-47.2c1,0.7,1.8,1.4,2.4,2.2l-0.7,0.7c-0.6-0.7-1.4-1.4-2.4-2.2L248.3-47.2z
						 M251-43.1h3.8v-4.2h1v4.2h3.6v1h-3.6v7.7h-1v-7.7H251V-43.1z"/>
					<path class="st4" d="M262.5-44.2h9.2v5.5H270v0.9h3.2v0.9H270v2.4h-1v-2.4h-4c-0.1,0.4-0.3,0.8-0.6,1.1c-0.5,0.5-1.2,1-2.3,1.3
						l-0.5-0.8c1-0.3,1.7-0.6,2.1-1c0.1-0.2,0.2-0.3,0.3-0.5h-3.2v-0.9h3.4c0-0.2,0-0.3,0-0.4v-0.5h-1.8V-44.2z M262.9-45.5
						c-0.4,0.6-0.7,1.1-1.2,1.6l-0.8-0.5c0.9-0.9,1.5-1.9,1.8-2.9l1,0.2l-0.3,0.8h3.5v0.9H265c0.3,0.3,0.4,0.6,0.6,0.9l-0.8,0.3
						c-0.2-0.4-0.5-0.8-0.8-1.2H262.9z M263.5-42.5h7.3v-0.8h-7.3V-42.5z M263.5-41h7.3v-0.8h-7.3V-41z M270.7-39.5v-0.9h-7.3v0.9
						H270.7z M265.3-38.7v0.5c0,0.1,0,0.2,0,0.4h3.8v-0.9H265.3z M268.7-45.6c-0.3,0.5-0.6,0.9-0.9,1.3l-0.8-0.5
						c0.7-0.8,1.2-1.6,1.5-2.6l1,0.2l-0.3,0.8h4v0.9h-2.3c0.2,0.3,0.4,0.6,0.6,0.9l-0.8,0.3c-0.2-0.4-0.5-0.8-0.8-1.2H268.7z"/>
					<path class="st4" d="M276.6-39.3c-0.1,2-0.4,3.6-1,4.8l-0.8-0.7c0.6-1.2,0.8-2.9,0.9-4.8v-6.7h4.1v10.9c0,0.9-0.4,1.3-1.2,1.3
						h-1.1l-0.2-0.9c0.5,0,0.9,0.1,1.1,0.1c0.4,0,0.5-0.3,0.5-0.8v-3.2H276.6z M278.8-43.5v-2.4h-2.3v2.4H278.8z M276.6-42.5v2.3
						h2.3v-2.3H276.6z M281.9-40.7v6.2h-1v-12.3h5.7c0,1.7-0.1,2.9-0.3,3.4c-0.2,0.6-0.7,0.9-1.6,0.9h-1.1l-0.3-0.9l0.9,0
						c0.3,0,0.6,0,0.7-0.1c0.2-0.1,0.3-0.2,0.4-0.4c0.1-0.3,0.2-1,0.2-2.1h-3.7v4.2h4.8v0.9c-0.3,1.4-0.7,2.7-1.4,3.7
						c0.6,0.6,1.4,1.2,2.2,1.7l-0.5,0.9c-0.9-0.5-1.6-1.1-2.3-1.7c-0.6,0.7-1.3,1.3-2.2,1.7l-0.5-0.8c0.8-0.4,1.5-1,2-1.7
						c-0.9-1.1-1.5-2.3-1.8-3.7H281.9z M283.1-40.7c0.3,1.1,0.8,2,1.5,2.9c0.5-0.8,0.9-1.8,1.1-2.9H283.1z"/>
					<path class="st4" d="M293.9-47.2c-0.1,0.3-0.3,0.7-0.5,1.1h6.1v0.8c-0.9,1-2,1.9-3.3,2.6c1.6,0.7,3.4,1.1,5.3,1.3l-0.5,0.9
						c-2.2-0.3-4.2-0.8-5.9-1.7c-1.7,0.8-3.7,1.4-6,1.7l-0.5-1c2-0.3,3.8-0.7,5.3-1.3c-0.8-0.4-1.5-1-2.2-1.6
						c-0.6,0.5-1.1,0.9-1.8,1.3l-0.6-0.8c1.7-1,2.8-2.2,3.4-3.5L293.9-47.2z M295.2-41.1c0,0.5,0,1-0.1,1.6h4.9
						c0,2.4-0.2,3.8-0.6,4.2c-0.4,0.5-1.1,0.7-2.1,0.7c-0.2,0-0.8,0-1.6-0.1l-0.3-0.9l1.7,0.1c0.8,0,1.4-0.2,1.6-0.5
						c0.2-0.3,0.3-1.2,0.4-2.6h-4.1c-0.1,0.3-0.3,0.7-0.4,1c-0.7,1.3-2.4,2.3-4.9,3.1l-0.7-0.8c2.3-0.7,3.8-1.5,4.5-2.5
						c0.2-0.3,0.3-0.6,0.4-0.8h-4.2v-0.9h4.5c0.1-0.5,0.2-1,0.2-1.6H295.2z M298-45.2h-5.3l-0.2,0.2c0.8,0.7,1.6,1.3,2.6,1.8
						C296.2-43.8,297.1-44.4,298-45.2z"/>
				</g>
			</g>
		</g>
		<g id="RectEndPoint1_1_" transform="translate(21.4921875,112)">
			<rect x="230" y="-47.9" class="st7" width="119" height="50"/>
			<g>
				<rect x="228" y="-49.9" class="st8" width="119" height="50"/>
				<path class="st9" d="M347.5,0.6h-120v-51h120V0.6z M228.5-0.4h118v-49h-118V-0.4z"/>
			</g>
			<g transform="translate(20 9)">
				<g class="st3">
					<path class="st4" d="M269.5-36.8c0.9,0.7,1.7,1.4,2.3,2.1L271-34c-0.5-0.6-1.3-1.3-2.3-2.1L269.5-36.8z M271.8-32.8
						c-0.5,1.8-1.1,3.5-1.8,5.1l-0.9-0.4c0.7-1.6,1.3-3.3,1.8-5L271.8-32.8z M269.8-40.1c0.9,0.6,1.6,1.2,2.2,1.8l-0.7,0.7
						c-0.5-0.6-1.3-1.2-2.2-1.8L269.8-40.1z M274.4-33.9c-0.1,1.8-0.2,3.2-0.5,4c-0.3,0.9-0.9,1.7-1.7,2.3l-0.6-0.8
						c0.7-0.6,1.1-1.2,1.4-1.9c0.3-0.7,0.4-1.9,0.5-3.6H274.4z M272.6-35.3c0.1,0,0.2-0.1,0.2-0.1c0.5-0.3,1.2-1.2,2-2.6h-2.5v-0.9
						h3.9c-0.2-0.5-0.4-1-0.6-1.4l1-0.2c0.2,0.4,0.4,0.9,0.6,1.6h3.7v0.9h-5.1c-0.7,1.2-1.2,2-1.7,2.6c1.6-0.1,3.2-0.2,4.8-0.4
						c-0.4-0.5-0.7-1-1-1.2l0.8-0.5c0.9,1.1,1.7,2.1,2.2,3l-0.8,0.6c-0.1-0.1-0.3-0.5-0.6-1.1c-2,0.2-4.2,0.4-6.7,0.6L272.6-35.3z
						 M275.7-33.8h1v6.1h-1V-33.8z M279.4-27.6c-0.8,0-1.2-0.4-1.2-1.1v-5.1h1v4.9c0,0.2,0.1,0.3,0.3,0.3h0.6c0.3,0,0.4-0.2,0.4-0.5
						c0.1-0.3,0.1-0.9,0.1-1.6l0.9,0.3c0,1.2-0.1,2-0.3,2.3c-0.2,0.3-0.5,0.4-1.1,0.4H279.4z"/>
					<path class="st4" d="M291.9-27.7c-0.5,0-1.3,0-2.5,0c-0.9,0-1.6-0.1-2.2-0.3c-0.5-0.2-1-0.5-1.5-1c-0.2-0.2-0.4-0.3-0.5-0.3
						c-0.3,0-0.9,0.6-1.7,1.9l-0.8-0.7c0.7-1.2,1.4-1.9,2-2.1v-4.3h-2v-0.9h2.9v5.2c0.1,0.1,0.2,0.2,0.3,0.3
						c0.3,0.4,0.7,0.7,1.1,0.9c0.4,0.2,1,0.3,1.9,0.3c1,0,1.9,0,2.7,0c0.4,0,1.1,0,2,0c0.8,0,1.3,0,1.6-0.1l-0.2,1H291.9z
						 M283.8-40.1c1,0.8,1.8,1.5,2.4,2.2l-0.7,0.7c-0.6-0.7-1.3-1.4-2.3-2.2L283.8-40.1z M286.8-38.9h2.3c0.2-0.6,0.4-1.1,0.6-1.5
						l1,0.2c-0.2,0.5-0.3,0.9-0.5,1.3h4.9v0.9h-5.3c-0.4,0.9-0.9,1.8-1.4,2.5h2.3v-1.7h1v1.7h3.1v0.9h-3.1v1.7h3.7v1h-3.7v2.6h-1
						v-2.6h-3.9v-1h3.9v-1.7h-3.2l-0.2-0.9c0.6-0.7,1.1-1.5,1.5-2.5h-1.8V-38.9z"/>
					<path class="st4" d="M297.1-27.6l-0.2-1c0.5,0,0.9,0.1,1.1,0.1c0.4,0,0.5-0.2,0.5-0.6v-3.4c-0.4,0.1-1,0.4-1.7,0.6l-0.3-1
						c0.6-0.2,1.3-0.4,2-0.6v-3.1h-1.7v-1h1.7v-2.6h1v2.6h1.2v1h-1.2v2.7c0.4-0.2,0.8-0.4,1.2-0.6v1c-0.4,0.2-0.8,0.4-1.2,0.6v4.1
						c0,0.8-0.4,1.3-1.2,1.3H297.1z M305-34.4c-0.1,0.4-0.3,0.7-0.5,1.1h4.8v1h-1.5c-0.2,1-0.6,1.9-1.3,2.6c1,0.5,1.9,0.9,2.8,1.4
						l-0.5,0.8c-0.8-0.5-1.8-1-2.9-1.6c-0.9,0.7-2.4,1.2-4.4,1.6l-0.4-0.9c1.7-0.3,2.9-0.7,3.8-1.2c-0.7-0.3-1.6-0.7-2.7-1.2
						c0.4-0.6,0.7-1.1,1-1.7h-1.9v-1h2.4c0.2-0.4,0.4-0.8,0.5-1.2L305-34.4z M303.4-38c0.3,0.6,0.7,1.3,1,2.1h1.4
						c0.4-0.7,0.7-1.4,1-2.2l1,0.3c-0.3,0.7-0.6,1.3-0.9,1.9h2.3v1h-7.8v-1h2.1c-0.3-0.7-0.6-1.2-0.9-1.7L303.4-38z M305.3-40.4
						c0.1,0.4,0.3,0.8,0.5,1.3h3.1v0.9h-7.2v-0.9h3.1c-0.1-0.4-0.3-0.8-0.5-1.2L305.3-40.4z M304-32.4c-0.3,0.5-0.5,0.9-0.8,1.2
						c0.8,0.3,1.6,0.6,2.4,1c0.6-0.6,1-1.3,1.3-2.2H304z"/>
				</g>
			</g>
		</g>
		<g id="RectEndPoint2_1_" transform="translate(21.4921875,180)">
			<rect x="230" y="-47.9" class="st7" width="119" height="50"/>
			<g>
				<rect x="228" y="-49.9" class="st8" width="119" height="50"/>
				<path class="st9" d="M347.5,0.6h-120v-51h120V0.6z M228.5-0.4h118v-49h-118V-0.4z"/>
			</g>
			<g transform="translate(20 9)">
				<g class="st3">
					<path class="st4" d="M269.5-36.8c0.9,0.7,1.7,1.4,2.3,2.1L271-34c-0.5-0.6-1.3-1.3-2.3-2.1L269.5-36.8z M271.8-32.8
						c-0.5,1.8-1.1,3.5-1.8,5.1l-0.9-0.4c0.7-1.6,1.3-3.3,1.8-5L271.8-32.8z M269.8-40.1c0.9,0.6,1.6,1.2,2.2,1.8l-0.7,0.7
						c-0.5-0.6-1.3-1.2-2.2-1.8L269.8-40.1z M274.4-33.9c-0.1,1.8-0.2,3.2-0.5,4c-0.3,0.9-0.9,1.7-1.7,2.3l-0.6-0.8
						c0.7-0.6,1.1-1.2,1.4-1.9c0.3-0.7,0.4-1.9,0.5-3.6H274.4z M272.6-35.3c0.1,0,0.2-0.1,0.2-0.1c0.5-0.3,1.2-1.2,2-2.6h-2.5v-0.9
						h3.9c-0.2-0.5-0.4-1-0.6-1.4l1-0.2c0.2,0.4,0.4,0.9,0.6,1.6h3.7v0.9h-5.1c-0.7,1.2-1.2,2-1.7,2.6c1.6-0.1,3.2-0.2,4.8-0.4
						c-0.4-0.5-0.7-1-1-1.2l0.8-0.5c0.9,1.1,1.7,2.1,2.2,3l-0.8,0.6c-0.1-0.1-0.3-0.5-0.6-1.1c-2,0.2-4.2,0.4-6.7,0.6L272.6-35.3z
						 M275.7-33.8h1v6.1h-1V-33.8z M279.4-27.6c-0.8,0-1.2-0.4-1.2-1.1v-5.1h1v4.9c0,0.2,0.1,0.3,0.3,0.3h0.6c0.3,0,0.4-0.2,0.4-0.5
						c0.1-0.3,0.1-0.9,0.1-1.6l0.9,0.3c0,1.2-0.1,2-0.3,2.3c-0.2,0.3-0.5,0.4-1.1,0.4H279.4z"/>
					<path class="st4" d="M282.6-36.1h3v6.2c0.7-0.6,1.2-1,1.7-1.5l0.3,1c-0.8,0.8-1.8,1.6-2.8,2.2l-0.4-0.9
						c0.2-0.2,0.3-0.4,0.3-0.6v-5.6h-2.1V-36.1z M284.3-40.2c1,0.7,1.8,1.4,2.4,2.2l-0.7,0.7c-0.6-0.7-1.4-1.4-2.4-2.2L284.3-40.2z
						 M287-36.1h3.8v-4.2h1v4.2h3.6v1h-3.6v7.7h-1v-7.7H287V-36.1z"/>
					<path class="st4" d="M298.5-37.2h9.2v5.5H306v0.9h3.2v0.9H306v2.4h-1v-2.4h-4c-0.1,0.4-0.3,0.8-0.6,1.1c-0.5,0.5-1.2,1-2.3,1.3
						l-0.5-0.8c1-0.3,1.7-0.6,2.1-1c0.1-0.2,0.2-0.3,0.3-0.5h-3.2v-0.9h3.4c0-0.2,0-0.3,0-0.4v-0.5h-1.8V-37.2z M298.9-38.5
						c-0.4,0.6-0.7,1.1-1.2,1.6l-0.8-0.5c0.9-0.9,1.5-1.9,1.8-2.9l1,0.2l-0.3,0.8h3.5v0.9H301c0.3,0.3,0.4,0.6,0.6,0.9l-0.8,0.3
						c-0.2-0.4-0.5-0.8-0.8-1.2H298.9z M299.5-35.5h7.3v-0.8h-7.3V-35.5z M299.5-34h7.3v-0.8h-7.3V-34z M306.7-32.5v-0.9h-7.3v0.9
						H306.7z M301.3-31.7v0.5c0,0.1,0,0.2,0,0.4h3.8v-0.9H301.3z M304.7-38.6c-0.3,0.5-0.6,0.9-0.9,1.3l-0.8-0.5
						c0.7-0.8,1.2-1.6,1.5-2.6l1,0.2l-0.3,0.8h4v0.9h-2.3c0.2,0.3,0.4,0.6,0.6,0.9l-0.8,0.3c-0.2-0.4-0.5-0.8-0.8-1.2H304.7z"/>
				</g>
			</g>
		</g>
		<g>
			<path class="st11" d="M272.3,79h23.3v15h2V77h-25.3c-0.3-0.6-1-1-1.7-1c-1.1,0-2,0.9-2,2c0,1.1,0.9,2,2,2
				C271.3,80,272,79.6,272.3,79z"/>
			<path class="st11" d="M296.6,98c-0.7,0-1.4,0.4-1.7,1h-23.3V84h-2v17h25.3c0.3,0.6,1,1,1.7,1c1.1,0,2-0.9,2-2
				C298.6,98.9,297.7,98,296.6,98z"/>
			<path class="st11" d="M288.3,93c-0.3-0.6-1-1-1.7-1c-1.1,0-2,0.9-2,2c0,1.1,0.9,2,2,2c0.7,0,1.4-0.4,1.7-1h2.3h1h1V83h-1h-1H286
				l-6,10h-3.4v-8h2.3c0.3,0.6,1,1,1.7,1c1.1,0,2-0.9,2-2c0-1.1-0.9-2-2-2c-0.7,0-1.4,0.4-1.7,1h-2.3h-1h-1v12h1h1h4.6l6-10h3.4v8
				H288.3z"/>
		</g>
		<g>
			<g>
				<path class="st11" d="M296.6,164.3c-0.7,0-1.4,0.4-1.7,1h-23.3v-15h-2v17h25.3c0.3,0.6,1,1,1.7,1c1.1,0,2-0.9,2-2
					C298.6,165.2,297.7,164.3,296.6,164.3z"/>
				<path class="st11" d="M272.3,145.3h23.3v15h2v-17h-25.3c-0.3-0.6-1-1-1.7-1c-1.1,0-2,0.9-2,2c0,1.1,0.9,2,2,2
					C271.3,146.3,272,145.9,272.3,145.3z"/>
				<path class="st11" d="M289.6,147.3c-0.7,0-1.4,0.4-1.7,1h-2.7c-0.9,0-1.9,0.6-2.8,1.2c-0.6,0.4-1.3,0.8-1.7,0.8h-5.1v2h5.1
					c0.9,0,1.9-0.6,2.7-1.2c0.6-0.4,1.3-0.9,1.7-0.9h2.7c0.3,0.6,1,1,1.7,1c1.1,0,2-0.9,2-2C291.6,148.2,290.7,147.3,289.6,147.3z"
					/>
				<path class="st11" d="M289.6,153.3c-0.7,0-1.4,0.4-1.7,1h-12.3v2h12.3c0.3,0.6,1,1,1.7,1c1.1,0,2-0.9,2-2
					C291.6,154.2,290.7,153.3,289.6,153.3z"/>
				<path class="st11" d="M289.6,159.3c-0.7,0-1.4,0.4-1.7,1h-2.7c-0.4,0-1.1-0.5-1.7-0.9c-0.9-0.6-1.8-1.2-2.7-1.2h-5.1v2h5.1
					c0.3,0,1.1,0.5,1.7,0.8c0.9,0.6,1.8,1.2,2.8,1.2h2.7c0.3,0.6,1,1,1.7,1c1.1,0,2-0.9,2-2C291.6,160.2,290.7,159.3,289.6,159.3z"
					/>
			</g>
		</g>
		<path class="st2" d="M386.4,201h-2.5v-1h1.5v-2.5h1V201z M378.9,201h-5v-1h5V201z M368.9,201h-5v-1h5V201z M358.9,201h-5v-1h5V201
			z M348.9,201h-5v-1h5V201z M338.9,201h-5v-1h5V201z M328.9,201h-5v-1h5V201z M318.9,201h-5v-1h5V201z M308.9,201h-5v-1h5V201z
			 M298.9,201h-5v-1h5V201z M288.9,201h-5v-1h5V201z M278.9,201h-5v-1h5V201z M268.9,201h-5v-1h5V201z M258.9,201h-5v-1h5V201z
			 M248.9,201h-5v-1h5V201z M238.9,201h-4.4v-1.6h1v0.6h3.4V201z M235.5,194.4h-1v-5h1V194.4z M386.4,192.5h-1v-5h1V192.5z
			 M235.5,184.4h-1v-5h1V184.4z M386.4,182.5h-1v-5h1V182.5z M235.5,174.4h-1v-5h1V174.4z M386.4,172.5h-1v-5h1V172.5z M235.5,164.4
			h-1v-5h1V164.4z M386.4,162.5h-1v-5h1V162.5z M235.5,154.4h-1v-5h1V154.4z M386.4,152.5h-1v-5h1V152.5z M235.5,144.4h-1v-5h1
			V144.4z M386.4,142.5h-1v-5h1V142.5z M235.5,134.4h-1v-5h1V134.4z M386.4,132.5h-1v-5h1V132.5z M235.5,124.4h-1v-5h1V124.4z
			 M386.4,122.5h-1v-5h1V122.5z M235.5,114.4h-1v-5h1V114.4z M386.4,112.5h-1v-5h1V112.5z M235.5,104.4h-1v-5h1V104.4z M386.4,102.5
			h-1v-5h1V102.5z M235.5,94.4h-1v-5h1V94.4z M386.4,92.5h-1v-5h1V92.5z M235.5,84.4h-1v-5h1V84.4z M386.4,82.5h-1v-5h1V82.5z
			 M235.5,74.4h-1v-5h1V74.4z M386.4,72.5h-1v-5h1V72.5z M235.5,64.4h-1v-5h1V64.4z M386.4,62.5h-1v-5h1V62.5z M235.5,54.4h-1v-5h1
			V54.4z M386.4,52.5h-1v-5h1V52.5z M235.5,44.4h-1v-5h1V44.4z M386.4,42.5h-1v-5h1V42.5z M235.5,34.4h-1v-5h1V34.4z M386.4,32.5h-1
			v-5h1V32.5z M235.5,24.4h-1v-5h1V24.4z M386.4,22.5h-1V19H385v-1h1.5V22.5z M380,19h-5v-1h5V19z M370,19h-5v-1h5V19z M360,19h-5
			v-1h5V19z M350,19h-5v-1h5V19z M340,19h-5v-1h5V19z M330,19h-5v-1h5V19z M320,19h-5v-1h5V19z M310,19h-5v-1h5V19z M300,19h-5v-1h5
			V19z M290,19h-5v-1h5V19z M280,19h-5v-1h5V19z M270,19h-5v-1h5V19z M260,19h-5v-1h5V19z M250,19h-5v-1h5V19z M240,19h-5v-1h5V19z"
			/>
	</g>
</g>
</svg>
