<?xml version="1.0" encoding="UTF-8"?>
<svg width="42px" height="48px" viewBox="0 0 42 48" version="1.1" xmlns="http://www.w3.org/2000/svg" xmlns:xlink="http://www.w3.org/1999/xlink">
    <!-- Generator: Sketch 52.5 (67469) - http://www.bohemiancoding.com/sketch -->
    <title>弹性存储</title>
    <desc>Created with Sketch.</desc>
    <g id="模块" stroke="none" stroke-width="1" fill="none" fill-rule="evenodd">
        <g id="行为呼唤区" transform="translate(-939.000000, -1014.000000)">
            <g id="Group-8" transform="translate(0.000000, 856.000000)">
                <g id="弹性存储" transform="translate(939.000000, 158.000000)">
                    <path d="M21,1.15175111 L1,12.5803225 L1,35.4196775 L21,46.8482489 L41,35.4196775 L41,12.5803225 L21,1.15175111 Z" id="Polygon-3" stroke="#334966" stroke-width="2"></path>
                    <polygon id="Polygon-3" fill="#00A4FF" points="21 11 32 17.5 32 30.5 21 37 10 30.5 10 17.5"></polygon>
                    <path d="M41.0077221,12.2635137 L40,12.8393549 L40,13.1606451 L41.0077221,13.7364863 L41.4285714,13 L41.0077221,12.2635137 Z M39.7188711,13 L21,2.30350221 L2.28112887,13 L21,23.6964978 L39.7188711,13 Z M2,13.1606451 L2,12.8393549 L0.992277877,12.2635137 L0.571428571,13 L0.992277877,13.7364863 L2,13.1606451 Z M22,25.4285714 L22,47 L20,47 L20,25.4285714 L1.33226763e-15,14 L0,12 L21,0 L42,12 L42,14 L22,25.4285714 Z" id="Combined-Shape" fill="#334966" fill-rule="nonzero"></path>
                    <polygon id="Fill-1-Copy" fill="#334966" points="21 10 15 13.6 16.94 14.77 20 12.93 20 18 22 18 22 12.93 25.06 14.77 27 13.6"></polygon>
                    <polygon id="Fill-2-Copy" fill="#334966" points="31.28 26.2 31.28 28.661 27.08 26.24 26 27.931 30.51 30.531 27.28 32.47 27.28 34.8 33.28 31.2 33.28 25"></polygon>
                    <polygon id="Fill-3-Copy" fill="#334966" points="9 31.2 15 34.8 15 32.47 11.77 30.53 16.28 27.93 15.2 26.24 11 28.66 11 26.2 9 25"></polygon>
                </g>
            </g>
        </g>
    </g>
</svg>