<?xml version="1.0" encoding="utf-8"?>
<!-- Generator: Adobe Illustrator 22.1.0, SVG Export Plug-In . SVG Version: 6.00 Build 0)  -->
<svg version="1.1" id="svgwrapper_svg" xmlns="http://www.w3.org/2000/svg" xmlns:xlink="http://www.w3.org/1999/xlink" x="0px"
	 y="0px" viewBox="0 0 830 282.8" style="enable-background:new 0 0 830 282.8;" xml:space="preserve">
<style type="text/css">
	.st0{display:none;fill:none;stroke:#999999;}
	.st1{fill:none;stroke:#BABABA;stroke-dasharray:5;}
	.st2{enable-background:new    ;}
	.st3{fill:#444444;}
	.st4{opacity:0.6;fill:#BBBBBB;enable-background:new    ;}
	.st5{fill:#FFFFFF;stroke:#E5E5E5;}
	.st6{fill:#878787;}
	.st7{fill:#EAEBEC;}
	.st8{fill:#00A4FF;}
	.st9{clip-path:url(#SVGID_2_);fill:none;stroke:#00A3FF;stroke-width:2;stroke-miterlimit:10;}
</style>
<path class="st0" d="M296,66.4l-106-2"/>
<g id="middlegroup" transform="translate(0,0)">
</g>
<g>
	<g>
		<path class="st1" d="M7.2,1.9h129v279.4H7.2V1.9"/>
		<g transform="translate(10 10)">
			<g class="st2">
				<path class="st3" d="M16.4,5.7h5.1v1H11.1v3.1c-0.1,3.1-0.5,5.5-1.4,7.4l-0.8-0.7c0.8-1.6,1.2-3.8,1.2-6.7V5.7h5.2
					c-0.2-0.4-0.5-0.9-0.8-1.3l1.1-0.2C15.9,4.7,16.1,5.2,16.4,5.7z M17.2,15.7c0.9-2,1.6-4.4,2.3-7.4l1,0.3c-0.6,2.7-1.3,5-2.2,7.1
					h3v1h-9.9v-1C11.4,15.7,17.2,15.7,17.2,15.7z M14.4,14.1l-1,0.2c-0.4-1.8-0.9-3.5-1.4-5.1L12.9,9C13.5,10.5,14,12.2,14.4,14.1z
					 M16.9,13.3l-1,0.2c-0.3-1.8-0.7-3.6-1.2-5.3L15.6,8C16.1,9.5,16.5,11.3,16.9,13.3z"/>
				<path class="st3" d="M23.6,17.1l-0.8-0.7c0.9-1.2,1.4-2.8,1.4-4.7V5h10.4v10.5c0,1-0.5,1.5-1.5,1.5h-1.6l-0.3-1
					c0.6,0,1.1,0.1,1.6,0.1s0.8-0.3,0.8-0.9v-2.4h-3.8v4.1h-1v-4.1h-3.6C25,14.5,24.5,15.9,23.6,17.1z M25.2,5.9v2.4h3.6V5.9H25.2z
					 M25.2,11.7h3.6V9.3h-3.6V11.7z M33.6,5.9h-3.8v2.4h3.8V5.9z M33.6,9.3h-3.8v2.5h3.8V9.3z"/>
				<path class="st3" d="M40.5,11c-0.1,0.3-0.2,0.5-0.3,0.8h2.9v0.8c-0.3,0.9-0.8,1.7-1.6,2.4c0.7,0.3,1.3,0.6,1.9,1L43,16.8
					c-0.6-0.4-1.3-0.7-2.2-1.1c-0.9,0.6-2.1,1.2-3.5,1.6l-0.5-0.8c1.1-0.3,2.1-0.7,3-1.1c-0.6-0.3-1.3-0.5-1.9-0.8
					c0.4-0.6,0.7-1.2,1-1.8h-1.7v-0.9h2c0.1-0.3,0.2-0.6,0.3-0.9H40.5z M39.9,7.1V4.4h0.9v2.7h2.5V8h-2.5v0.2
					c0.8,0.4,1.5,0.8,2.3,1.3l-0.5,0.8c-0.7-0.6-1.3-1-1.8-1.3v1.8h-0.9V8c-0.5,1.1-1.3,2.1-2.5,2.9l-0.5-0.8
					C38,9.4,38.8,8.7,39.2,8h-2V7.1H39.9z M39.1,6.4l-0.7,0.3c-0.3-0.7-0.6-1.3-0.9-1.8l0.8-0.3C38.6,5.2,38.9,5.8,39.1,6.4z
					 M42.2,12.7h-2.4c-0.2,0.5-0.5,0.9-0.8,1.3c0.6,0.2,1.1,0.4,1.6,0.6C41.3,14.1,41.9,13.4,42.2,12.7z M43.3,5
					c-0.3,0.6-0.6,1.2-1.1,1.8l-0.7-0.4c0.4-0.6,0.8-1.2,1.1-1.8L43.3,5z M44.8,9.8c-0.3,0.6-0.5,1.2-0.8,1.7l-0.6-0.8
					C44.2,9.2,44.7,7,45,4.4l1,0.2c-0.1,0.7-0.2,1.4-0.3,2h3.7v1h-0.9c-0.1,2.3-0.5,4.3-1.3,6c0.7,1.3,1.6,2.2,2.6,2.9l-0.5,0.8
					c-1-0.7-1.8-1.7-2.5-2.8c-0.7,1.1-1.5,2.1-2.6,2.8l-0.5-0.8c1.1-0.8,1.9-1.7,2.6-2.9C45.6,12.4,45.2,11.2,44.8,9.8z M45.3,8.2
					c0.4,1.6,0.8,3.1,1.4,4.2c0.5-1.4,0.8-3.1,0.9-5h-2.1L45.3,8.2z"/>
				<path class="st3" d="M51.4,17.1l-0.2-1c0.4,0,0.7,0.1,1.1,0.1c0.4,0,0.5-0.2,0.5-0.6v-3.4c-0.6,0.2-1.1,0.4-1.7,0.6l-0.3-1
					c0.6-0.2,1.3-0.4,1.9-0.6V8.1H51v-1h1.7V4.4h1V7H55v1h-1.3v2.8c0.4-0.2,0.9-0.4,1.3-0.6v1c-0.4,0.2-0.9,0.4-1.3,0.6v4.1
					c0,0.8-0.4,1.2-1.2,1.2H51.4z M55.1,17.2l-0.8-0.7c1-1.8,1.5-4.3,1.5-7.2V5h7.4v3.4h-2.6V10h3v0.9h-3v1.7H63v4.6h-1v-0.7h-3.8
					v0.7h-0.9v-4.6h2.3v-1.7h-2.9C56.6,13.3,56,15.4,55.1,17.2z M56.8,8.4v1c0,0.2,0,0.4,0,0.7h2.8V8.4H56.8z M56.8,5.9v1.6h5.4V5.9
					H56.8z M62,15.7v-2.1h-3.8v2.1C58.2,15.7,62,15.7,62,15.7z"/>
			</g>
		</g>
	</g>
	<g>
		<g>
			<g>
				<rect x="23.9" y="165.3" class="st4" width="97.4" height="50"/>
				<rect x="22.2" y="163.3" class="st5" width="97.4" height="50"/>
			</g>
			<g transform="translate(20 9)">
				<g>
					<g>
						<path class="st6" d="M19.2,164.4v30h22v-30H19.2z M39.2,192.4h-18v-26h18V192.4z M28.2,191.4h4v-2h-4V191.4z M39.2,186.4h-18
							v2h18V186.4z"/>
					</g>
				</g>
				<g class="st2">
					<path class="st3" d="M61.5,174.3l3.9,10h-1.2l-1.1-2.8h-4.6l-1.1,2.8h-1.2l3.9-10H61.5z M62.8,180.6l-1.9-5h-0.1l-1.9,5H62.8z"
						/>
					<path class="st3" d="M72.2,178.1c0.5,0.7,0.8,1.6,0.8,2.7c0,1.1-0.3,1.9-0.8,2.6c-0.6,0.8-1.4,1.1-2.4,1.1S68,184,67.4,183v4.1
						h-1.1v-10h1.1v1.2c0.5-0.9,1.3-1.4,2.4-1.4C70.8,176.9,71.6,177.3,72.2,178.1z M67.9,178.7c-0.4,0.5-0.5,1.2-0.5,2v0.1
						c0,0.8,0.2,1.5,0.6,2s0.9,0.8,1.6,0.8c0.8,0,1.4-0.3,1.8-0.8s0.5-1.2,0.5-2.1c0-0.9-0.2-1.5-0.5-2c-0.4-0.6-1-0.9-1.8-0.9
						C68.9,177.8,68.3,178.1,67.9,178.7z"/>
					<path class="st3" d="M80.4,178.1c0.5,0.7,0.8,1.6,0.8,2.7c0,1.1-0.3,1.9-0.8,2.6c-0.6,0.8-1.4,1.1-2.4,1.1s-1.8-0.5-2.4-1.5
						v4.1h-1.1v-10h1.1v1.2c0.5-0.9,1.3-1.4,2.4-1.4C79,176.9,79.8,177.3,80.4,178.1z M76.1,178.7c-0.4,0.5-0.5,1.2-0.5,2v0.1
						c0,0.8,0.2,1.5,0.6,2s0.9,0.8,1.6,0.8c0.8,0,1.4-0.3,1.8-0.8s0.5-1.2,0.5-2.1c0-0.9-0.2-1.5-0.5-2c-0.4-0.6-1-0.9-1.8-0.9
						C77.1,177.8,76.5,178.1,76.1,178.7z"/>
				</g>
			</g>
		</g>
		<g>
			<g>
				<rect x="23.9" y="93.3" class="st4" width="97.4" height="50"/>
				<rect x="22.2" y="91.3" class="st5" width="97.4" height="50"/>
			</g>
			<g transform="translate(20 9)">
				<g>
					<g>
						<path class="st6" d="M17.2,94.4v25h30v-25H17.2z M45.2,117.4h-26v-15h26V117.4z M45.2,100.4h-26v-4h26V100.4z M24.2,97.4h-4v2
							h4V97.4z"/>
					</g>
				</g>
				<g class="st2">
					<path class="st3" d="M59.6,102.3l2.2,8.4h0.1l2.3-8.4h1.2l2.3,8.4h0.1l2.2-8.4h1.3l-2.9,10h-1.3l-2.3-8.3l0,0l-2.3,8.3h-1.3
						l-2.9-10H59.6z"/>
					<path class="st3" d="M77.8,106.1c0.5,0.7,0.8,1.7,0.8,3h-5.7c0.1,0.8,0.3,1.4,0.7,1.9c0.4,0.4,0.9,0.7,1.6,0.7
						c0.6,0,1.1-0.2,1.4-0.4c0.3-0.3,0.5-0.6,0.7-1.1h1.1c-0.2,0.7-0.5,1.3-1,1.7c-0.6,0.5-1.4,0.8-2.3,0.8c-1,0-1.9-0.4-2.5-1
						c-0.6-0.7-1-1.6-1-2.8c0-1.1,0.3-2,0.9-2.7c0.6-0.8,1.4-1.1,2.5-1.1C76.3,104.9,77.2,105.3,77.8,106.1z M73.6,106.5
						c-0.4,0.4-0.6,1-0.7,1.7h4.5c-0.1-1.6-0.9-2.3-2.3-2.3C74.5,105.8,74,106,73.6,106.5z"/>
					<path class="st3" d="M81,102.1v4.3c0.6-1,1.4-1.5,2.4-1.5s1.8,0.4,2.4,1.2c0.5,0.7,0.8,1.6,0.8,2.6c0,1.1-0.3,2-0.8,2.7
						c-0.6,0.8-1.4,1.1-2.5,1.1s-1.9-0.5-2.4-1.4v1.2h-1.1v-10.2C79.8,102.1,81,102.1,81,102.1z M81.6,106.6c-0.4,0.5-0.6,1.2-0.6,2
						v0.1c0,0.8,0.2,1.5,0.5,2c0.4,0.6,1,0.8,1.7,0.8c0.8,0,1.4-0.3,1.8-0.9c0.3-0.5,0.5-1.2,0.5-2.1s-0.2-1.5-0.5-2
						c-0.4-0.6-1-0.8-1.8-0.8C82.5,105.8,82,106.1,81.6,106.6z"/>
				</g>
			</g>
		</g>
	</g>
</g>
<g>
	<g>
		<path class="st1" d="M182.8,2.2h129v278.9h-129L182.8,2.2"/>
		<g transform="translate(10 10)">
			<g class="st2">
				<path class="st3" d="M190.3,3.6v2.5h5v6.6h-1v-0.9h-4v4.8h-1v-4.8h-4v0.9h-1V6.1h5V3.6H190.3z M189.3,10.8V7.1h-4v3.7H189.3z
					 M194.4,10.8V7.1h-4v3.7H194.4z"/>
				<path class="st3" d="M199.2,6v10.5h-1V6H199.2z M201.9,6.1L201,6.6c-0.5-1-1.1-1.8-1.7-2.6l0.9-0.4
					C200.9,4.3,201.5,5.1,201.9,6.1z M206.4,7.5V14h-5.3V7.5H206.4z M205.5,10.3v-2h-3.4v1.9h3.4V10.3z M205.5,11.2h-3.4v1.9h3.4
					V11.2z M206.8,16.4l-0.3-0.9h1.2c0.4,0,0.6-0.3,0.6-0.9V5.3H203V4.4h6.4v10.5c0,1-0.5,1.5-1.4,1.5H206.8z"/>
				<path class="st3" d="M215.4,4c-0.4,1.1-0.8,2.2-1.4,3.2v9.4h-1V8.7c-0.4,0.6-0.9,1.2-1.5,1.8l-0.3-1.1c1.5-1.7,2.5-3.6,3.2-5.8
					L215.4,4z M217.8,4.6c-0.1,0.7-0.3,1.4-0.5,2h2.1V3.7h1v2.9h3.2v1h-3.2V11h3.7v1h-3.7v4.5h-1V12h-4.1v-1h4.1V7.6H217
					c-0.3,0.9-0.8,1.8-1.3,2.5l-0.6-0.8c0.9-1.3,1.4-2.9,1.7-4.7L217.8,4.6z"/>
			</g>
		</g>
	</g>
	<g>
		<rect x="199.8" y="70.8" class="st4" width="97" height="50"/>
		<rect x="197.8" y="68.8" class="st5" width="97" height="50"/>
	</g>
	<g transform="translate(20 9)">
		<g class="st2">
			<path class="st3" d="M213.1,79.8v1h-5.5v3.4h5.3v1h-5.3v4.7h-1.1v-10L213.1,79.8L213.1,79.8z"/>
			<path class="st3" d="M215.6,79.8v9h5.8v1h-6.9v-10H215.6z"/>
			<path class="st3" d="M223.7,82.6V87c0,0.7,0.1,1.2,0.4,1.5c0.3,0.3,0.8,0.5,1.4,0.5c0.5,0,0.9-0.2,1.3-0.6
				c0.4-0.4,0.6-0.9,0.7-1.5v-4.4h1.1v7.2h-1.1v-1.1c-0.6,0.9-1.4,1.3-2.4,1.3c-1.8,0-2.6-1-2.6-3v-4.5h1.2L223.7,82.6L223.7,82.6z"
				/>
			<path class="st3" d="M235.8,83.7c0.3-0.5,0.6-0.8,1-1c0.3-0.2,0.8-0.3,1.3-0.3c0.8,0,1.4,0.2,1.8,0.7c0.4,0.5,0.7,1.1,0.7,2v4.7
				h-1.1v-4.6c0-0.6-0.1-1.1-0.4-1.4c-0.3-0.3-0.7-0.5-1.3-0.5c-0.5,0-0.9,0.2-1.2,0.5c-0.3,0.4-0.5,0.8-0.5,1.4v4.5H235v-4.6
				c0-1.3-0.6-1.9-1.7-1.9c-0.5,0-0.9,0.2-1.3,0.6c-0.3,0.4-0.5,0.9-0.5,1.5v4.4h-1.1v-7.2h1.1v1c0.5-0.8,1.2-1.2,2-1.2
				C234.7,82.4,235.4,82.8,235.8,83.7z"/>
			<path class="st3" d="M248,83.5c0.5,0.7,0.8,1.7,0.8,3h-5.7c0.1,0.8,0.3,1.4,0.7,1.9s0.9,0.7,1.6,0.7c0.6,0,1.1-0.2,1.4-0.4
				c0.3-0.3,0.5-0.6,0.7-1.1h1.1c-0.2,0.7-0.5,1.3-1,1.7c-0.6,0.5-1.4,0.8-2.3,0.8c-1,0-1.9-0.4-2.5-1c-0.6-0.7-1-1.6-1-2.8
				c0-1.1,0.3-2,0.9-2.7c0.6-0.8,1.4-1.1,2.5-1.1C246.5,82.4,247.4,82.8,248,83.5z M243.8,83.9c-0.4,0.4-0.6,1-0.7,1.7h4.5
				c-0.1-1.6-0.9-2.3-2.3-2.3C244.7,83.3,244.2,83.5,243.8,83.9z"/>
		</g>
	</g>
	<g>
		<g>
			<rect x="199.8" y="140.9" class="st4" width="97" height="50"/>
			<rect x="197.8" y="138.9" class="st5" width="97" height="50"/>
		</g>
		<g transform="translate(20 9)">
			<g class="st2">
				<path class="st3" d="M212.5,150.6c0.8,0.6,1.2,1.4,1.3,2.4h-1.1c-0.1-0.7-0.5-1.3-1.1-1.7c-0.5-0.4-1.2-0.6-2-0.6
					c-1.2,0-2.1,0.4-2.7,1.2c-0.6,0.8-0.9,1.8-0.9,3s0.3,2.2,0.9,3c0.6,0.8,1.5,1.2,2.7,1.2c0.8,0,1.5-0.2,2-0.6
					c0.6-0.4,1-1.1,1.2-2h1.1c-0.2,1.2-0.7,2.1-1.6,2.7c-0.8,0.6-1.7,0.9-2.8,0.9c-1.6,0-2.7-0.5-3.6-1.5c-0.8-0.9-1.1-2.1-1.1-3.6
					s0.4-2.7,1.1-3.7c0.8-1.1,2-1.6,3.6-1.6C210.8,149.7,211.8,150,212.5,150.6z"/>
				<path class="st3" d="M216.6,149.7v6.3l3.6-3.4h1.5l-3.2,2.9l3.5,4.3h-1.4l-2.8-3.6l-1.1,1v2.6h-1.1v-10.2L216.6,149.7
					L216.6,149.7z"/>
				<path class="st3" d="M228.3,153.3c0.4,0.5,0.6,1.1,0.6,2v4.7h-1.1v-1.2c-0.3,0.4-0.7,0.7-1.1,1c-0.5,0.3-1.1,0.4-1.8,0.4
					s-1.3-0.2-1.7-0.5c-0.4-0.4-0.7-0.9-0.7-1.5c0-0.8,0.3-1.4,1-1.9c0.6-0.4,1.4-0.6,2.5-0.6h1.7v-0.4c0-1.2-0.6-1.8-1.9-1.8
					c-0.5,0-1,0.1-1.3,0.3c-0.4,0.2-0.6,0.6-0.7,1l-1.1-0.1c0.2-0.8,0.5-1.3,1.1-1.7c0.5-0.3,1.2-0.5,2.1-0.5
					C227,152.5,227.8,152.8,228.3,153.3z M226.2,156.5c-1.6,0-2.4,0.6-2.4,1.6c0,0.3,0.1,0.6,0.4,0.8c0.3,0.2,0.6,0.3,1.1,0.3
					c0.7,0,1.3-0.2,1.8-0.7c0.5-0.4,0.8-0.9,0.8-1.5v-0.6L226.2,156.5z"/>
				<path class="st3" d="M235,149.9v1h-1.2c-0.3,0-0.5,0.1-0.7,0.2c-0.1,0.2-0.2,0.4-0.2,0.8v0.8h2v0.9h-2v6.3h-1.1v-6.3H230v-0.9
					h1.8v-0.8c0-0.6,0.2-1.1,0.5-1.4c0.3-0.3,0.8-0.5,1.4-0.5h1.3V149.9z"/>
				<path class="st3" d="M237,149.7v6.3l3.6-3.4h1.5l-3.2,2.9l3.5,4.3H241l-2.8-3.6l-1.1,1v2.6H236v-10.2L237,149.7L237,149.7z"/>
				<path class="st3" d="M248.8,153.3c0.4,0.5,0.6,1.1,0.6,2v4.7h-1.1v-1.2c-0.3,0.4-0.7,0.7-1.1,1c-0.5,0.3-1.1,0.4-1.8,0.4
					s-1.3-0.2-1.7-0.5c-0.4-0.4-0.7-0.9-0.7-1.5c0-0.8,0.3-1.4,1-1.9c0.6-0.4,1.4-0.6,2.5-0.6h1.7v-0.4c0-1.2-0.6-1.8-1.9-1.8
					c-0.5,0-1,0.1-1.3,0.3c-0.4,0.2-0.6,0.6-0.7,1l-1.1-0.1c0.2-0.8,0.5-1.3,1.1-1.7c0.5-0.3,1.2-0.5,2.1-0.5
					C247.5,152.5,248.2,152.8,248.8,153.3z M246.6,156.5c-1.6,0-2.4,0.6-2.4,1.6c0,0.3,0.1,0.6,0.4,0.8c0.3,0.2,0.6,0.3,1.1,0.3
					c0.7,0,1.3-0.2,1.8-0.7c0.5-0.4,0.8-0.9,0.8-1.5v-0.6L246.6,156.5z"/>
			</g>
		</g>
	</g>
	<g>
		<g>
			<rect x="199.8" y="211" class="st4" width="97" height="50"/>
			<rect x="197.8" y="209" class="st5" width="97" height="50"/>
		</g>
		<g transform="translate(20 9)">
			<g class="st2">
				<path class="st3" d="M214.6,220.1c1,0,1.8,0.2,2.4,0.7c0.6,0.5,0.9,1.2,0.9,2.1c0,0.6-0.2,1.1-0.5,1.5s-0.8,0.7-1.4,0.9l0,0
					c1,0.2,1.5,0.8,1.6,1.8l0.2,1.5c0.1,0.6,0.2,1.1,0.5,1.5h-1.2c-0.2-0.3-0.4-0.8-0.4-1.3l-0.1-1.3c-0.1-0.6-0.3-1-0.6-1.3
					s-0.8-0.4-1.4-0.4h-3v4.3h-1.1v-10H214.6z M211.4,224.8h3c0.7,0,1.3-0.2,1.7-0.5s0.5-0.8,0.5-1.4c0-0.6-0.2-1.1-0.5-1.4
					c-0.4-0.3-0.9-0.5-1.7-0.5h-3V224.8z"/>
				<path class="st3" d="M225.2,223.8c0.5,0.7,0.8,1.7,0.8,3h-5.7c0.1,0.8,0.3,1.4,0.7,1.9s0.9,0.7,1.6,0.7c0.6,0,1.1-0.2,1.4-0.4
					c0.3-0.3,0.5-0.6,0.7-1.1h1.1c-0.2,0.7-0.5,1.3-1,1.7c-0.6,0.5-1.4,0.8-2.3,0.8c-1,0-1.9-0.4-2.5-1c-0.6-0.7-1-1.6-1-2.8
					c0-1.1,0.3-2,0.9-2.7c0.6-0.8,1.4-1.1,2.5-1.1C223.8,222.6,224.6,223,225.2,223.8z M221.1,224.2c-0.4,0.4-0.6,1-0.7,1.7h4.5
					c-0.1-1.6-0.9-2.3-2.3-2.3C222,223.6,221.5,223.8,221.1,224.2z"/>
				<path class="st3" d="M233.9,219.9v10.2h-1.1v-1.2c-0.5,0.9-1.3,1.4-2.4,1.4c-1.1,0-1.9-0.4-2.5-1.1c-0.5-0.7-0.8-1.6-0.8-2.7
					c0-1.1,0.3-1.9,0.8-2.6c0.6-0.8,1.4-1.2,2.4-1.2s1.8,0.5,2.4,1.5v-4.3L233.9,219.9L233.9,219.9z M228.8,224.4
					c-0.4,0.5-0.5,1.2-0.5,2c0,0.9,0.2,1.6,0.5,2.1c0.4,0.6,1,0.9,1.8,0.9c0.7,0,1.3-0.3,1.7-0.8s0.5-1.2,0.5-2v-0.1
					c0-0.8-0.2-1.5-0.6-2c-0.4-0.5-0.9-0.8-1.6-0.8C229.8,223.5,229.2,223.8,228.8,224.4z"/>
				<path class="st3" d="M237.1,220.3c0.2,0.1,0.3,0.3,0.3,0.6c0,0.2-0.1,0.4-0.3,0.6c-0.2,0.2-0.4,0.2-0.6,0.2s-0.4-0.1-0.6-0.2
					c-0.2-0.2-0.2-0.4-0.2-0.6c0-0.3,0.1-0.4,0.2-0.6c0.2-0.2,0.4-0.2,0.6-0.2S236.9,220.2,237.1,220.3z M237.1,222.8v7.2H236v-7.2
					H237.1z"/>
				<path class="st3" d="M244.7,224.9h-1.1c-0.1-0.4-0.3-0.8-0.6-1s-0.8-0.3-1.3-0.3s-0.9,0.1-1.2,0.3s-0.5,0.4-0.5,0.8
					c0,0.3,0.2,0.6,0.6,0.8c0.3,0.1,0.8,0.3,1.5,0.5c0.9,0.2,1.5,0.4,1.9,0.7c0.6,0.4,0.9,0.9,0.9,1.5c0,1.5-1,2.2-3.1,2.2
					c-1.9,0-2.9-0.8-3.1-2.5h1.1c0.1,0.6,0.3,1,0.6,1.2s0.8,0.3,1.4,0.3c1.3,0,1.9-0.4,1.9-1.2c0-0.4-0.2-0.7-0.7-0.9
					c-0.2-0.1-0.8-0.3-1.5-0.5c-0.9-0.2-1.5-0.4-1.8-0.6c-0.6-0.3-0.8-0.8-0.8-1.4s0.3-1.1,0.8-1.5s1.2-0.5,2-0.5
					C243.5,222.6,244.5,223.4,244.7,224.9z"/>
			</g>
		</g>
	</g>
</g>
<g id="textgroup" transform="translate(0,0)">
</g>
<g id="assistantgroup" transform="translate(0,0)">
</g>
<g>
	<title>Product Icons【32】</title>
	<g id="_编组_">
		<g id="_编组_2">
		</g>
	</g>
</g>
<g>
	<g id="DashRectGroup4_1_" transform="translate(16,172)">
		<path class="st1" d="M342.4-170.4h292.3v280H342.4V-170.4"/>
		<g transform="translate(10 10)">
			<g class="st2">
				<path class="st3" d="M344.5-162.8h3c0,2.4-0.1,3.9-0.2,4.6c-0.2,0.8-0.9,1.2-2.1,1.3c-0.3,0-0.7,0-1-0.1l-0.3-0.9
					c0.3,0,0.7,0.1,1,0.1c0.8,0,1.3-0.3,1.4-0.8s0.2-1.7,0.2-3.3h-3.1l0.4-4h2.5v-2.2h-2.8v-0.9h3.7v4h-2.6L344.5-162.8z
					 M352.6-167.4c0.4-0.8,0.8-1.5,1.1-2.4l1,0.3c-0.3,0.8-0.7,1.4-1.1,2h1.8v5.6h-3v1.4h3.6v0.9h-3.6v2.7h-1v-2.7h-3.5v-0.9h3.5
					v-1.4h-2.9v-5.6L352.6-167.4L352.6-167.4z M351.2-167.8l-0.9,0.4c-0.3-0.7-0.7-1.4-1.1-1.9l0.9-0.3
					C350.6-169.1,351-168.5,351.2-167.8z M351.5-165v-1.6h-2v1.6H351.5z M351.5-164.1h-2v1.5h2V-164.1z M352.5-165h2.1v-1.6h-2.1
					V-165z M354.5-164.1h-2.1v1.5h2.1V-164.1z"/>
				<path class="st3" d="M358.5-166.9c0,1.4-0.2,2.7-0.5,4l-0.8-0.2c0.3-1.2,0.5-2.5,0.5-3.8H358.5z M360.2-169.6v12.7h-1v-12.7
					H360.2z M362-164.9c0.5-1.2,0.8-2.5,0.8-3.9l0.9,0.1c0,0.6-0.1,1.1-0.2,1.7h2v-2.6h1v2.6h3.1v1h-3.1v3.4h2.8v1h-2.8v3.4h3.4v1
					h-8.5v-1h4v-3.4h-3.2v-1h3.2v-3.4h-2.2c-0.3,1-0.6,2-1.1,2.8l-0.7-0.7c0.2-0.3,0.3-0.6,0.4-0.9l-0.7,0.2
					c-0.2-0.9-0.5-1.7-0.8-2.5l0.7-0.2C361.5-166.6,361.8-165.8,362-164.9z"/>
				<path class="st3" d="M373.1-168.2l3.7,8.5l0,0l3.7-8.5h1.4v10h-1.1v-8l0,0l-3.5,8h-1l-3.5-8l0,0v8h-1.1v-10H373.1z"/>
				<path class="st3" d="M389.2-164.8c0.4,0.5,0.6,1.1,0.6,2v4.7h-1.1v-1.2c-0.3,0.4-0.7,0.7-1.1,1c-0.5,0.3-1.1,0.4-1.8,0.4
					c-0.7,0-1.3-0.2-1.7-0.5c-0.4-0.4-0.7-0.9-0.7-1.5c0-0.8,0.3-1.4,1-1.9c0.6-0.4,1.4-0.6,2.5-0.6h1.7v-0.4c0-1.2-0.6-1.8-1.9-1.8
					c-0.5,0-1,0.1-1.3,0.3c-0.4,0.2-0.6,0.6-0.7,1l-1.1-0.1c0.2-0.8,0.5-1.3,1.1-1.7c0.5-0.3,1.2-0.5,2.1-0.5
					C388.1-165.6,388.8-165.4,389.2-164.8z M387.2-161.7c-1.6,0-2.4,0.6-2.4,1.6c0,0.3,0.1,0.6,0.4,0.8s0.6,0.3,1.1,0.3
					c0.7,0,1.3-0.2,1.8-0.7c0.5-0.4,0.8-0.9,0.8-1.5v-0.6L387.2-161.7z"/>
				<path class="st3" d="M397.6-164.5c0.5,0.7,0.8,1.6,0.8,2.7c0,1.1-0.3,1.9-0.8,2.6c-0.6,0.8-1.4,1.1-2.4,1.1s-1.8-0.5-2.4-1.5
					v4.1h-1.1v-10h1.1v1.2c0.5-0.9,1.3-1.4,2.4-1.4C396.2-165.6,397-165.3,397.6-164.5z M393.2-163.9c-0.4,0.5-0.5,1.2-0.5,2v0.1
					c0,0.8,0.2,1.5,0.6,2s0.9,0.8,1.6,0.8c0.8,0,1.4-0.3,1.8-0.8s0.5-1.2,0.5-2.1c0-0.9-0.2-1.5-0.5-2c-0.4-0.6-1-0.9-1.8-0.9
					C394.2-164.7,393.7-164.4,393.2-163.9z"/>
				<path class="st3" d="M404.4-168.2c1,0,1.8,0.2,2.4,0.7s0.9,1.2,0.9,2.1c0,0.6-0.2,1.1-0.5,1.5s-0.8,0.7-1.4,0.9l0,0
					c1,0.2,1.5,0.8,1.6,1.8l0.2,1.5c0.1,0.6,0.2,1.1,0.5,1.5h-1.2c-0.2-0.3-0.4-0.8-0.4-1.3l-0.1-1.3c-0.1-0.6-0.3-1-0.6-1.3
					c-0.3-0.3-0.8-0.4-1.4-0.4h-3v4.3H400v-10H404.4z M401.2-163.5h3c0.7,0,1.3-0.2,1.7-0.5c0.4-0.3,0.5-0.8,0.5-1.4
					c0-0.6-0.2-1.1-0.5-1.4c-0.4-0.3-0.9-0.5-1.7-0.5h-3V-163.5z"/>
				<path class="st3" d="M415-164.5c0.5,0.7,0.8,1.7,0.8,3H410c0.1,0.8,0.3,1.4,0.7,1.9c0.4,0.4,0.9,0.7,1.6,0.7
					c0.6,0,1.1-0.2,1.4-0.4c0.3-0.3,0.5-0.6,0.7-1.1h1.1c-0.2,0.7-0.5,1.3-1,1.7c-0.6,0.5-1.4,0.8-2.3,0.8c-1,0-1.9-0.4-2.5-1
					c-0.6-0.7-1-1.6-1-2.8c0-1.1,0.3-2,0.9-2.7c0.6-0.8,1.4-1.1,2.5-1.1C413.5-165.6,414.4-165.3,415-164.5z M410.8-164.1
					c-0.4,0.4-0.6,1-0.7,1.7h4.5c-0.1-1.6-0.9-2.3-2.3-2.3C411.7-164.7,411.2-164.5,410.8-164.1z"/>
				<path class="st3" d="M423.6-168.4v10.2h-1v-1.2c-0.5,0.9-1.3,1.4-2.4,1.4s-1.9-0.4-2.5-1.1c-0.5-0.7-0.8-1.6-0.8-2.7
					c0-1.1,0.3-1.9,0.8-2.6c0.6-0.8,1.4-1.2,2.4-1.2s1.8,0.5,2.4,1.5v-4.3L423.6-168.4L423.6-168.4z M418.5-163.9
					c-0.4,0.5-0.5,1.2-0.5,2c0,0.9,0.2,1.6,0.5,2.1c0.4,0.6,1,0.9,1.8,0.9c0.7,0,1.3-0.3,1.7-0.8c0.4-0.5,0.5-1.2,0.5-2v-0.1
					c0-0.8-0.2-1.5-0.6-2s-0.9-0.8-1.6-0.8C419.5-164.7,418.9-164.4,418.5-163.9z"/>
				<path class="st3" d="M426.5-165.4v4.4c0,0.7,0.1,1.2,0.4,1.5s0.8,0.5,1.4,0.5c0.5,0,0.9-0.2,1.3-0.6c0.4-0.4,0.6-0.9,0.7-1.5
					v-4.4h1.1v7.2h-1.1v-1.1c-0.6,0.9-1.4,1.3-2.4,1.3c-1.8,0-2.6-1-2.6-3v-4.5h1.2V-165.4z"/>
				<path class="st3" d="M438.5-165c0.6,0.4,0.9,1.1,1,2h-1.1c-0.1-0.6-0.3-1-0.7-1.3c-0.4-0.3-0.8-0.4-1.4-0.4
					c-0.7,0-1.3,0.3-1.7,0.8c-0.4,0.5-0.6,1.2-0.6,2.1c0,0.9,0.2,1.6,0.6,2.1s0.9,0.8,1.7,0.8c1.2,0,1.9-0.6,2.1-1.9h1.1
					c-0.2,0.9-0.5,1.6-1.1,2.1c-0.5,0.5-1.3,0.7-2.2,0.7c-1.1,0-1.9-0.4-2.5-1.1c-0.6-0.7-0.9-1.6-0.9-2.7s0.3-2,0.9-2.7
					c0.6-0.8,1.5-1.1,2.5-1.1C437.2-165.6,437.9-165.4,438.5-165z"/>
				<path class="st3" d="M446.5-164.5c0.5,0.7,0.8,1.7,0.8,3h-5.7c0.1,0.8,0.3,1.4,0.7,1.9s0.9,0.7,1.6,0.7c0.6,0,1.1-0.2,1.4-0.4
					c0.3-0.3,0.5-0.6,0.7-1.1h1.1c-0.2,0.7-0.5,1.3-1,1.7c-0.6,0.5-1.4,0.8-2.3,0.8c-1,0-1.9-0.4-2.5-1c-0.6-0.7-1-1.6-1-2.8
					c0-1.1,0.3-2,0.9-2.7c0.6-0.8,1.4-1.1,2.5-1.1C445-165.6,445.9-165.3,446.5-164.5z M442.2-164.1c-0.4,0.4-0.6,1-0.7,1.7h4.5
					c-0.1-1.6-0.9-2.3-2.3-2.3C443.2-164.7,442.7-164.5,442.2-164.1z"/>
			</g>
		</g>
	</g>
	<g id="GrayRectGroup6" transform="translate(448,157)">
		<rect x="-74.3" y="-94.9" class="st7" width="126" height="202.7"/>
		<g transform="translate(10 10)">
			<g class="st2">
				<path class="st3" d="M-67.9-89v6.3c0.5-0.4,1.1-0.9,1.8-1.5l0.3,1.1c-0.9,0.8-1.9,1.6-2.9,2.2l-0.4-0.9c0.2-0.2,0.3-0.4,0.3-0.6
					V-88h-2.1v-1H-67.9z M-66.9-91l-0.7,0.7c-0.6-0.7-1.4-1.4-2.4-2.2l0.7-0.7C-68.3-92.5-67.5-91.8-66.9-91z M-58-92.5v1h-3v9.7
					c0,0.9-0.4,1.3-1.3,1.3h-1.8l-0.2-1c0.6,0,1.2,0.1,1.7,0.1c0.4,0,0.6-0.2,0.6-0.7v-9.4h-4.1v-1H-58z"/>
				<path class="st3" d="M-49.4-91.1c0.4-0.7,0.9-1.5,1.2-2.3l1,0.3c-0.3,0.7-0.7,1.4-1.1,1.9h2.7v5.8H-50v1.3h5.7v1H-50v2.7h-1
					v-2.7h-5.7v-1h5.7v-1.3h-4.4v-5.8L-49.4-91.1L-49.4-91.1z M-51-88.7v-1.5h-3.4v1.5H-51z M-51-87.8h-3.4v1.6h3.4V-87.8z
					 M-51.6-91.6l-0.8,0.4c-0.4-0.7-0.9-1.3-1.3-1.8l0.9-0.4C-52.5-92.8-52-92.2-51.6-91.6z M-50-88.7h3.4v-1.5H-50V-88.7z
					 M-46.6-87.8H-50v1.6h3.4V-87.8z"/>
				<path class="st3" d="M-42.7-86.7l-0.3-1.1c1.1-1.6,1.9-3.4,2.4-5.5l0.9,0.4c-0.3,1-0.6,1.9-0.9,2.7v9.7h-1v-7.8
					C-42-87.7-42.3-87.2-42.7-86.7z M-37.6-89v5.9c0.4-0.4,0.7-0.8,1.1-1.3l0.2,1c-0.7,0.9-1.5,1.7-2.2,2.4l-0.4-0.9
					c0.2-0.2,0.3-0.4,0.3-0.5V-88h-1.6v-1H-37.6z M-36.7-90.7l-0.7,0.7c-0.5-0.7-1.2-1.4-2-2.2l0.7-0.7
					C-38-92.1-37.3-91.4-36.7-90.7z M-34.3-91.7v-1.6h0.9v1.6h1.6v0.8c0.3-0.6,0.5-1.1,0.8-1.7l0.8,0.4c-0.5,1.2-1,2.2-1.7,3.2h1.6
					v0.9h-2.3c-0.4,0.5-0.8,0.9-1.2,1.3h2.9v6.2h-1v-0.6h-2.6v0.6h-0.9v-5c-0.3,0.2-0.7,0.4-1,0.5l-0.5-0.8c1.2-0.5,2.3-1.3,3.2-2.3
					h-2.5V-89h2v-1.8H-36v-0.9C-36-91.7-34.3-91.7-34.3-91.7z M-31.9-85.9h-2.6v1.5h2.6V-85.9z M-34.5-82h2.6v-1.5h-2.6V-82z
					 M-31.9-90.8h-1.6v1.8h0.4C-32.6-89.5-32.2-90.1-31.9-90.8z"/>
				<path class="st3" d="M-24.6-91.9c0.2-0.5,0.3-1,0.5-1.5l1,0.1c-0.1,0.5-0.3,0.9-0.4,1.4h7.2v1h-7.5c-0.5,1.2-1.2,2.3-1.9,3.3
					v7.1h-1v-5.9c-0.5,0.5-1,1-1.5,1.5l-0.6-0.8c1.7-1.5,3-3.2,3.9-5.2h-3.4v-1H-24.6z M-20.7-85.4v-1.3c0.8-0.4,1.6-1,2.3-1.6h-5.3
					v-0.9h6.6v0.9c-0.8,0.7-1.6,1.4-2.6,2v0.9h3.5v1h-3.5v2.6c0,0.8-0.4,1.2-1.2,1.2h-1.8l-0.3-1c0.5,0,1,0,1.6,0
					c0.4,0,0.6-0.2,0.6-0.6v-2.3h-4.1v-1h4.2V-85.4z"/>
			</g>
		</g>
	</g>
	<g>
		<g>
			<rect x="389.5" y="139.4" class="st4" width="97" height="50"/>
			<rect x="387.5" y="137.4" class="st5" width="97" height="50"/>
		</g>
		<g>
			<g class="st2">
				<path class="st3" d="M435.1,157.9v4.3h5.8v-4.3h1.1v10h-1.1v-4.7h-5.8v4.7H434v-10H435.1z"/>
				<path class="st3" d="M445,157.7v4.3c0.6-1,1.4-1.5,2.4-1.5s1.8,0.4,2.4,1.2c0.5,0.7,0.8,1.6,0.8,2.6c0,1.1-0.3,2-0.8,2.7
					c-0.6,0.8-1.4,1.1-2.5,1.1s-1.9-0.5-2.4-1.4v1.2h-1.1v-10.2L445,157.7L445,157.7z M445.5,162.1c-0.4,0.5-0.6,1.2-0.6,2v0.1
					c0,0.8,0.2,1.5,0.5,2c0.4,0.6,1,0.8,1.7,0.8c0.8,0,1.4-0.3,1.8-0.9c0.3-0.5,0.5-1.2,0.5-2.1c0-0.9-0.2-1.5-0.5-2
					c-0.4-0.6-1-0.8-1.8-0.8C446.5,161.4,445.9,161.6,445.5,162.1z"/>
				<path class="st3" d="M457.5,161.2c0.4,0.5,0.6,1.1,0.6,2v4.7H457v-1.2c-0.3,0.4-0.7,0.7-1.1,1c-0.5,0.3-1.1,0.4-1.8,0.4
					c-0.7,0-1.3-0.2-1.7-0.5c-0.4-0.4-0.7-0.9-0.7-1.5c0-0.8,0.3-1.4,1-1.9c0.6-0.4,1.4-0.6,2.5-0.6h1.7v-0.4c0-1.2-0.6-1.8-1.9-1.8
					c-0.5,0-1,0.1-1.3,0.3c-0.4,0.2-0.6,0.6-0.7,1l-1.1-0.1c0.2-0.8,0.5-1.3,1.1-1.7c0.5-0.3,1.2-0.5,2.1-0.5
					C456.2,160.4,457,160.7,457.5,161.2z M455.4,164.4c-1.6,0-2.4,0.6-2.4,1.6c0,0.3,0.1,0.6,0.4,0.8s0.6,0.3,1.1,0.3
					c0.7,0,1.3-0.2,1.8-0.7c0.5-0.4,0.8-0.9,0.8-1.5v-0.6L455.4,164.4z"/>
				<path class="st3" d="M465.4,162.7h-1.1c-0.1-0.4-0.3-0.8-0.6-1c-0.3-0.2-0.8-0.3-1.3-0.3s-0.9,0.1-1.2,0.3
					c-0.3,0.2-0.5,0.4-0.5,0.8c0,0.3,0.2,0.6,0.6,0.8c0.3,0.1,0.8,0.3,1.5,0.5c0.9,0.2,1.5,0.4,1.9,0.7c0.6,0.4,0.9,0.9,0.9,1.5
					c0,1.5-1,2.2-3.1,2.2c-1.9,0-2.9-0.8-3.1-2.5h1.1c0.1,0.6,0.3,1,0.6,1.2c0.3,0.2,0.8,0.3,1.4,0.3c1.3,0,1.9-0.4,1.9-1.2
					c0-0.4-0.2-0.7-0.7-0.9c-0.2-0.1-0.8-0.3-1.5-0.5c-0.9-0.2-1.5-0.4-1.8-0.6c-0.6-0.3-0.8-0.8-0.8-1.4s0.3-1.1,0.8-1.5
					s1.2-0.5,2-0.5C464.2,160.4,465.2,161.2,465.4,162.7z"/>
				<path class="st3" d="M472.6,161.6c0.5,0.7,0.8,1.7,0.8,3h-5.7c0.1,0.8,0.3,1.4,0.7,1.9s0.9,0.7,1.6,0.7c0.6,0,1.1-0.2,1.4-0.4
					c0.3-0.3,0.5-0.6,0.7-1.1h1.1c-0.2,0.7-0.5,1.3-1,1.7c-0.6,0.5-1.4,0.8-2.3,0.8c-1,0-1.9-0.4-2.5-1c-0.6-0.7-1-1.6-1-2.8
					c0-1.1,0.3-2,0.9-2.7c0.6-0.8,1.4-1.1,2.5-1.1C471.1,160.4,472,160.8,472.6,161.6z M468.4,162c-0.4,0.4-0.6,1-0.7,1.7h4.5
					c-0.1-1.6-0.9-2.3-2.3-2.3C469.3,161.4,468.8,161.6,468.4,162z"/>
			</g>
			<g>
				<g>
					<g>
						<path class="st8" d="M412,148.8c-6.6,0-12,2.2-12,5s5.4,5,12,5s12-2.2,12-5S418.6,148.8,412,148.8z M412,156.8
							c-5.5,0-10-1.3-10-3s4.5-3,10-3s10,1.3,10,3S417.5,156.8,412,156.8z"/>
					</g>
				</g>
				<rect x="400" y="153.8" class="st8" width="2" height="18"/>
				<rect x="422" y="153.8" class="st8" width="2" height="6"/>
				<rect x="414" y="163.8" class="st8" width="2" height="13"/>
				<rect x="414" y="168.8" class="st8" width="12" height="2"/>
				<rect x="424" y="168.8" class="st8" width="2" height="8"/>
				<rect x="424" y="163.8" class="st8" width="2" height="3"/>
				<g>
					<path class="st8" d="M410,165.7c-4.6-0.3-8-1.5-8-2.9h-2c0,2.5,4.3,4.5,10,4.9V165.7z"/>
				</g>
				<g>
					<path class="st8" d="M410,174.7c-4.6-0.3-8-1.5-8-2.9h-2c0,2.5,4.3,4.5,10,4.9V174.7z"/>
				</g>
			</g>
		</g>
	</g>
	<g id="GrayRectGroup6_1_" transform="translate(448,157)">
		<rect x="61.7" y="-94.6" class="st7" width="126" height="202.7"/>
		<g transform="translate(10 10)">
			<g class="st2">
				<path class="st3" d="M68.1-88.8v6.3c0.5-0.4,1.1-0.9,1.8-1.5l0.3,1.1c-0.9,0.8-1.9,1.6-2.9,2.2l-0.4-0.9
					c0.2-0.2,0.3-0.4,0.3-0.6v-5.6h-2.1v-1H68.1z M69.1-90.8l-0.7,0.7c-0.6-0.7-1.4-1.4-2.4-2.2l0.7-0.7
					C67.7-92.2,68.5-91.5,69.1-90.8z M78-92.3v1h-3v9.7c0,0.9-0.4,1.3-1.3,1.3h-1.8l-0.2-1c0.6,0,1.2,0.1,1.7,0.1
					c0.4,0,0.6-0.2,0.6-0.7v-9.4h-4.1v-1H78z"/>
				<path class="st3" d="M86.6-90.9c0.4-0.7,0.9-1.5,1.2-2.3l1,0.3c-0.3,0.7-0.7,1.4-1.1,1.9h2.7v5.8H86v1.3h5.7v1H86v2.7h-1v-2.7
					h-5.7v-1H85v-1.3h-4.4V-91L86.6-90.9L86.6-90.9z M85-88.5V-90h-3.4v1.5H85z M85-87.6h-3.4v1.6H85V-87.6z M84.4-91.3l-0.8,0.4
					c-0.4-0.7-0.9-1.3-1.3-1.8l0.9-0.4C83.5-92.6,84-92,84.4-91.3z M86-88.5h3.4V-90H86V-88.5z M89.4-87.6H86v1.6h3.4V-87.6z"/>
				<path class="st3" d="M98.4-92.2c-0.7,1.2-1.3,2.1-2,2.9s-1.6,1.6-2.8,2.4l-0.5-0.9c1-0.5,1.8-1.3,2.6-2.1
					c0.7-0.8,1.3-1.7,1.8-2.8L98.4-92.2z M95.2-86.5v-1h8.4c0,1.8-0.1,3.2-0.3,4.2c-0.1,1.1-0.4,1.8-0.7,2.2
					c-0.3,0.4-0.8,0.6-1.5,0.7h-2.5l-0.3-1c0.8,0,1.6,0,2.3,0c0.8,0,1.2-0.3,1.5-1s0.4-2.1,0.5-4.3H99c-0.3,1.5-0.8,2.7-1.4,3.6
					c-0.7,1-1.8,1.9-3.2,2.7L93.8-81c1.3-0.7,2.3-1.5,2.9-2.3s1-1.9,1.3-3.2H95.2z M105.8-87.8l-0.7,0.8c-2.2-1.4-3.7-3.2-4.5-5.4
					l0.9-0.5C102.3-90.8,103.7-89.1,105.8-87.8z"/>
				<path class="st3" d="M110.3-80.3h-1v-7.2c-0.5,1.4-1.1,2.7-1.9,3.9l-0.4-1.1c1.1-1.4,1.8-3,2.3-4.7h-2v-1h2v-2.7h1v2.7h1.9v1
					h-1.9v0.8c0.7,0.7,1.3,1.5,2,2.3l-0.5,0.8c-0.6-0.9-1.1-1.6-1.5-2.1V-80.3z M119.4-92.1c-1.6,0.6-3.4,0.9-5.3,1v2.5h5.7v1h-2.1
					v7.4h-1v-7.4H114v0.2c-0.1,3-0.8,5.4-2.1,7.1l-0.7-0.7c1.1-1.5,1.8-3.7,1.9-6.4V-92c2.2-0.1,4.1-0.4,5.8-1L119.4-92.1z"/>
			</g>
		</g>
	</g>
	<g>
		<g>
			<rect x="525.2" y="115.9" class="st4" width="97" height="50"/>
			<rect x="523.2" y="113.9" class="st5" width="97" height="50"/>
		</g>
		<g transform="translate(20 9)">
			<g class="st2">
				<path class="st3" d="M540.8,125v4.3h5.8V125h1.1v10h-1.1v-4.7h-5.8v4.7h-1.1v-10H540.8z"/>
				<path class="st3" d="M551.1,125.2c0.2,0.1,0.3,0.3,0.3,0.6c0,0.2-0.1,0.4-0.3,0.6s-0.4,0.2-0.6,0.2s-0.4-0.1-0.6-0.2
					c-0.2-0.2-0.2-0.4-0.2-0.6c0-0.3,0.1-0.4,0.2-0.6c0.2-0.2,0.4-0.2,0.6-0.2S550.9,125.1,551.1,125.2z M551.1,127.7v7.2H550v-7.2
					H551.1z"/>
				<path class="st3" d="M553.6,127.7l2.1,5.8l2.1-5.8h1.2l-2.7,7.2h-1.1l-2.7-7.2H553.6z"/>
				<path class="st3" d="M565.5,128.7c0.5,0.7,0.8,1.7,0.8,3h-5.7c0.1,0.8,0.3,1.4,0.7,1.9s0.9,0.7,1.6,0.7c0.6,0,1.1-0.2,1.4-0.4
					c0.3-0.3,0.5-0.6,0.7-1.1h1.1c-0.2,0.7-0.5,1.3-1,1.7c-0.6,0.5-1.4,0.8-2.3,0.8c-1,0-1.9-0.4-2.5-1c-0.6-0.7-1-1.6-1-2.8
					c0-1.1,0.3-2,0.9-2.7c0.6-0.8,1.4-1.1,2.5-1.1C564.1,127.5,564.9,127.9,565.5,128.7z M561.4,129.1c-0.4,0.4-0.6,1-0.7,1.7h4.5
					c-0.1-1.6-0.9-2.3-2.3-2.3C562.3,128.5,561.8,128.7,561.4,129.1z"/>
			</g>
		</g>
		<g>
			<rect x="525.2" y="176.8" class="st4" width="97" height="50"/>
			<rect x="523.2" y="174.8" class="st5" width="97" height="50"/>
		</g>
		<g transform="translate(20 9)">
			<g class="st2">
				<path class="st3" d="M541.1,186.8c0.7,0.5,1.1,1.3,1.1,2.4h-1.1c-0.1-0.7-0.4-1.3-0.8-1.6c-0.4-0.4-1.1-0.5-1.9-0.5
					c-0.7,0-1.3,0.1-1.7,0.4c-0.5,0.3-0.7,0.7-0.7,1.3c0,0.5,0.3,0.9,0.9,1.2c0.3,0.1,0.9,0.3,1.8,0.6c1.3,0.4,2.2,0.7,2.6,1
					c0.8,0.5,1.2,1.2,1.2,2.1c0,0.9-0.3,1.6-1.1,2.1c-0.7,0.5-1.6,0.7-2.8,0.7s-2.1-0.3-2.8-0.8c-0.8-0.6-1.2-1.5-1.3-2.7h1.1
					c0.1,0.9,0.4,1.5,0.9,1.9s1.1,0.6,2,0.6c0.8,0,1.5-0.2,2-0.5s0.8-0.7,0.8-1.3s-0.3-1.1-1-1.5c-0.3-0.2-1-0.4-2.1-0.7
					c-1.2-0.4-2-0.6-2.3-0.8c-0.8-0.4-1.1-1.1-1.1-1.9c0-0.9,0.4-1.6,1.1-2c0.7-0.4,1.5-0.7,2.5-0.7
					C539.5,186,540.4,186.2,541.1,186.8z"/>
				<path class="st3" d="M549.7,189.9c0.5,0.7,0.8,1.6,0.8,2.7c0,1.1-0.3,1.9-0.8,2.6c-0.6,0.8-1.4,1.1-2.4,1.1s-1.8-0.5-2.4-1.5
					v4.1h-1.1v-10h1v1.2c0.5-0.9,1.3-1.4,2.4-1.4C548.2,188.7,549.1,189.1,549.7,189.9z M545.4,190.5c-0.4,0.5-0.5,1.2-0.5,2v0.1
					c0,0.8,0.2,1.5,0.6,2c0.4,0.5,0.9,0.8,1.6,0.8c0.8,0,1.4-0.3,1.8-0.8c0.4-0.5,0.5-1.2,0.5-2.1c0-0.9-0.2-1.5-0.5-2
					c-0.4-0.6-1-0.9-1.8-0.9C546.3,189.7,545.8,190,545.4,190.5z"/>
				<path class="st3" d="M557.4,189.6c0.4,0.5,0.6,1.1,0.6,2v4.7h-1V195c-0.3,0.4-0.7,0.7-1.1,1c-0.5,0.3-1.1,0.4-1.8,0.4
					s-1.3-0.2-1.7-0.5c-0.4-0.4-0.7-0.9-0.7-1.5c0-0.8,0.3-1.4,1-1.9c0.6-0.4,1.4-0.6,2.5-0.6h1.7v-0.4c0-1.2-0.6-1.8-1.9-1.8
					c-0.5,0-1,0.1-1.3,0.3c-0.4,0.2-0.6,0.6-0.7,1l-1.1-0.1c0.2-0.8,0.5-1.3,1.1-1.7c0.5-0.3,1.2-0.5,2.1-0.5
					C556.1,188.7,556.9,189,557.4,189.6z M555.3,192.7c-1.6,0-2.4,0.6-2.4,1.6c0,0.3,0.1,0.6,0.4,0.8c0.3,0.2,0.6,0.3,1.1,0.3
					c0.7,0,1.3-0.2,1.8-0.7c0.5-0.4,0.8-0.9,0.8-1.5v-0.6L555.3,192.7z"/>
				<path class="st3" d="M564,188.9v1.1c-0.4-0.1-0.7-0.2-1.1-0.2c-0.6,0-1,0.2-1.4,0.7s-0.6,1-0.6,1.7v3.8h-1.1v-7.2h1.1v1.3
					c0.2-0.4,0.4-0.8,0.8-1c0.4-0.3,0.8-0.5,1.3-0.5C563.4,188.7,563.7,188.8,564,188.9z"/>
				<path class="st3" d="M566,186v6.3l3.6-3.4h1.5l-3.2,2.9l3.5,4.3H570l-2.8-3.6l-1.1,1v2.6H565V186H566z"/>
			</g>
		</g>
	</g>
</g>
<g>
	<g>
		<g>
			<rect x="714.4" y="140.9" class="st4" width="97" height="50"/>
			<rect x="712.4" y="138.9" class="st5" width="97" height="50"/>
		</g>
		<g transform="translate(20 9)">
			<g class="st2">
				<path class="st3" d="M733.3,155.2c-0.5,0.3-1.1,0.5-1.6,0.7v4.2c0,0.8-0.4,1.3-1.2,1.3h-1.3l-0.2-1c0.4,0,0.8,0.1,1.2,0.1
					s0.6-0.2,0.6-0.6v-3.5c-0.6,0.2-1.3,0.5-2,0.7l-0.3-1c0.8-0.2,1.5-0.4,2.2-0.7v-3.2h-2v-1h2v-2.5h1v2.5h1.6v1h-1.6v2.9
					c0.5-0.2,1.1-0.5,1.6-0.8V155.2z M735,161.4h-1v-12.3h6.1c0,1.6-0.1,2.6-0.2,3.1c-0.2,0.5-0.7,0.8-1.6,0.8h-1l-0.3-0.9
					c0.2,0,0.5,0,0.8,0s0.6,0,0.8-0.1s0.3-0.2,0.4-0.3c0.1-0.3,0.2-0.8,0.2-1.7H735v4.1h5.3v0.9c-0.3,1.5-0.8,2.8-1.5,3.8
					c0.7,0.6,1.5,1.2,2.5,1.8l-0.7,0.8c-0.9-0.6-1.7-1.2-2.4-1.8c-0.7,0.8-1.5,1.4-2.5,1.9l-0.5-0.9c0.9-0.4,1.7-1,2.3-1.7
					c-1-1.1-1.6-2.4-1.8-3.7H735V161.4z M738.2,158c0.6-0.9,1-1.9,1.2-3h-2.6C736.9,156.1,737.4,157.1,738.2,158z"/>
				<path class="st3" d="M748.4,149.7v-1.2h1v1.2h5v0.9h-5v1.3h4.2v0.9h-4.2v1.3h5.5v0.9h-5.1c0.4,0.9,0.8,1.7,1.4,2.4
					c0.8-0.4,1.5-0.9,2.3-1.7l0.7,0.7c-0.7,0.7-1.5,1.3-2.4,1.7c0.9,1,2,1.7,3.3,2.2l-0.5,0.9c-2.6-1.1-4.5-3.1-5.7-6.1h-0.5
					c-0.5,0.7-1.1,1.3-1.9,1.9v3c1-0.3,2.1-0.7,3.1-1.1l0.2,0.9c-1.5,0.6-2.9,1.1-4.4,1.4l-0.3-0.9c0.3-0.1,0.4-0.3,0.4-0.5v-2.2
					c-0.8,0.5-1.6,0.9-2.5,1.3l-0.5-0.9c2.2-0.8,3.9-1.8,4.9-3h-4.5v-0.9h5.5v-1.3h-4.2V152h4.2v-1.3h-5v-0.9h5V149.7z"/>
			</g>
		</g>
	</g>
	<g>
		<g>
			<rect x="714.4" y="211.1" class="st4" width="97" height="50"/>
			<rect x="712.4" y="209.1" class="st5" width="97" height="50"/>
		</g>
		<g transform="translate(20 9)">
			<g class="st2">
				<path class="st3" d="M731,222.4c0.5-0.5,1-1.2,1.4-1.9h-3.5v-0.9h4.6v0.8c-0.6,1-1.2,1.9-1.9,2.7c0.3,0.3,0.5,0.6,0.7,0.8h1.6
					v0.6c-0.2,1.1-0.5,1.9-0.8,2.6l-0.8-0.3c0.3-0.5,0.5-1.2,0.7-1.9h-1.5v5.9c0,0.7-0.4,1.1-1.1,1.1h-1.3l-0.2-0.9
					c0.4,0,0.8,0.1,1.2,0.1c0.3,0,0.4-0.2,0.4-0.5V225h-2v-0.9h2.7c-0.5-0.6-1.2-1.3-2-2.1l0.7-0.5
					C730.4,221.8,730.7,222.1,731,222.4z M738.2,223.8v2.5c0,1.5-0.4,2.7-1,3.6c-0.6,0.8-1.6,1.5-3,1.9l-0.5-0.9
					c1.3-0.4,2.3-1,2.8-1.7c0.5-0.8,0.7-1.7,0.8-2.9v-2.5L738.2,223.8L738.2,223.8z M741.2,219.6v1h-2.8c-0.1,0.5-0.2,1.1-0.3,1.6
					h2.6v6.6h-1V223h-4v5.7h-1v-6.6h2.3c0.1-0.5,0.2-1,0.3-1.6h-3.1v-1h7V219.6z M741.4,231.2l-0.7,0.7c-0.6-0.8-1.5-1.6-2.5-2.5
					l0.6-0.6C739.8,229.6,740.7,230.4,741.4,231.2z"/>
				<path class="st3" d="M745.1,224.8l-0.7,0.7c-0.5-0.6-1.1-1.3-1.9-2l0.7-0.6C743.9,223.5,744.6,224.1,745.1,224.8z M745.3,226.9
					c-0.5,1.7-1.1,3.3-1.8,4.8l-0.9-0.4c0.7-1.6,1.3-3.2,1.8-4.8L745.3,226.9z M745.4,221.2l-0.7,0.7c-0.5-0.6-1.1-1.2-2-1.9
					l0.7-0.7C744.2,220,744.8,220.6,745.4,221.2z M748.7,221.6v4.4c0,1.6-0.3,2.9-0.8,3.8c-0.5,0.9-1.2,1.6-2.3,2.1l-0.5-0.8
					c1-0.5,1.7-1.1,2.1-1.9c0.4-0.8,0.6-1.9,0.6-3.2v-4.4L748.7,221.6L748.7,221.6z M750.6,228.3h-0.9v-7.7h-2.9v7.8h-0.9v-8.6h4.7
					L750.6,228.3L750.6,228.3z M751.3,231.2l-0.7,0.7c-0.5-0.7-1.2-1.5-2.1-2.4l0.6-0.6C750,229.7,750.7,230.5,751.3,231.2z
					 M752.6,220.3v8.7h-0.9v-8.7H752.6z M752.1,231.8l-0.2-0.9c0.5,0,1,0.1,1.4,0.1c0.3,0,0.5-0.2,0.5-0.6v-11.2h1v11.5
					c0,0.8-0.4,1.2-1.1,1.2h-1.6L752.1,231.8L752.1,231.8z"/>
			</g>
		</g>
	</g>
	<g>
		<g>
			<rect x="714.4" y="70.8" class="st4" width="97" height="50"/>
			<rect x="712.4" y="68.8" class="st5" width="97" height="50"/>
		</g>
		<g transform="translate(20 9)">
			<g class="st2">
				<path class="st3" d="M761.4,80.7c0.9,0,1.7,0.2,2.2,0.7c0.5,0.4,0.8,1.1,0.8,1.8c0,0.6-0.2,1.1-0.4,1.5
					c-0.3,0.4-0.7,0.6-1.2,0.8c0.7,0.1,1.2,0.4,1.5,0.8c0.4,0.4,0.6,1,0.6,1.6c0,1-0.3,1.7-1,2.2c-0.6,0.4-1.4,0.6-2.4,0.6h-4.4v-10
					H761.4z M758.1,85.1h3c0.7,0,1.2-0.2,1.6-0.4c0.4-0.3,0.6-0.7,0.6-1.3c0-0.6-0.2-1-0.5-1.3c-0.4-0.3-0.9-0.4-1.6-0.4h-3.1V85.1z
					 M758.1,89.7h3.2c0.7,0,1.2-0.1,1.7-0.4s0.7-0.8,0.7-1.4s-0.2-1.1-0.6-1.4c-0.4-0.3-1-0.4-1.8-0.4h-3.2L758.1,89.7L758.1,89.7z"
					/>
				<path class="st3" d="M767.6,80.7v10h-1.1v-10H767.6z"/>
			</g>
			<g>
				<g>
					<g>
						<g>
							<g>
								<g>
									<g>
										<g>
											<g>
												<g>
													<g>
														<g>
															<g>
																<g>
																	<g>
																		<defs>
																			<rect id="SVGID_1_" x="715" y="72.3" width="30" height="27"/>
																		</defs>
																		<clipPath id="SVGID_2_">
																			<use xlink:href="#SVGID_1_"  style="overflow:visible;"/>
																		</clipPath>
																		<path class="st9" d="M728,93c2.8,0,5-2.2,5-5s-2.2-5-5-5s-5,2.2-5,5S725.2,93,728,93L728,93z M733,88
																			c2.2,0,4-1.8,4-4s-1.8-4-4-4s-4,1.8-4,4S730.7,88,733,88L733,88z"/>
																	</g>
																</g>
															</g>
														</g>
													</g>
												</g>
											</g>
										</g>
									</g>
								</g>
							</g>
						</g>
					</g>
				</g>
			</g>
		</g>
	</g>
	<g id="DashRectGroup4_4_" transform="translate(16,172)">
		<path class="st1" d="M681.4-169.8h129v278.9h-129V-169.8"/>
		<g transform="translate(10 10)">
			<g class="st2">
				<path class="st3" d="M687.3-165.5c-0.7,1.2-1.3,2.1-2,2.9c-0.7,0.8-1.6,1.6-2.8,2.4l-0.5-0.9c1-0.5,1.8-1.3,2.6-2.1
					c0.7-0.8,1.3-1.7,1.8-2.8L687.3-165.5z M684.1-159.8v-1h8.4c0,1.8-0.1,3.2-0.3,4.2c-0.1,1.1-0.4,1.8-0.7,2.2s-0.8,0.6-1.5,0.7
					h-2.5l-0.3-1c0.8,0,1.6,0,2.3,0c0.8,0,1.2-0.3,1.5-1s0.4-2.1,0.5-4.3H688c-0.3,1.5-0.8,2.7-1.4,3.6c-0.7,1-1.8,1.9-3.2,2.7
					l-0.6-0.8c1.3-0.7,2.3-1.5,2.9-2.3c0.6-0.8,1-1.9,1.3-3.2h-2.9V-159.8z M694.7-161.1l-0.7,0.8c-2.2-1.4-3.7-3.2-4.5-5.4l0.9-0.5
					C691.2-164.1,692.6-162.4,694.7-161.1z"/>
				<path class="st3" d="M699.2-153.5h-1v-7.2c-0.5,1.4-1.1,2.7-1.9,3.9l-0.4-1.1c1.1-1.4,1.8-3,2.3-4.7h-2v-1h2v-2.7h1v2.7h1.9v1
					h-1.9v0.8c0.7,0.7,1.3,1.5,2,2.3l-0.5,0.8c-0.6-0.9-1.1-1.6-1.5-2.1L699.2-153.5L699.2-153.5z M708.3-165.4
					c-1.6,0.6-3.4,0.9-5.3,1v2.5h5.7v1h-2.1v7.4h-1v-7.4H703v0.2c-0.1,3-0.8,5.4-2.1,7.1l-0.7-0.7c1.1-1.5,1.8-3.7,1.9-6.4v-4.5
					c2.2-0.1,4.1-0.4,5.8-1L708.3-165.4z"/>
				<path class="st3" d="M713.3-159.7c-0.7,2.1-1.4,4-2.3,5.8l-1-0.4c0.9-1.9,1.7-3.8,2.3-5.8L713.3-159.7z M713.1-162.7l-0.8,0.6
					c-0.5-1-1.2-2.1-2.2-3.3l0.8-0.5C711.9-164.7,712.6-163.6,713.1-162.7z M717.2-164.2v-2.1h1v2.1h3.2v4.1h1.2v1h-4.2
					c0.9,2,2.4,3.6,4.4,4.8l-0.7,0.8c-2-1.4-3.5-3.1-4.4-5.3c-0.7,2.4-2.1,4.2-4.3,5.3l-0.6-0.8c2.1-1,3.4-2.6,4-4.8h-3v-1h3.2
					c0.1-0.6,0.2-1.3,0.2-2v-1.2h-2.8v-1L717.2-164.2L717.2-164.2z M718.2-162.3c0,0.8-0.1,1.5-0.2,2.2h2.4v-3.2h-2.2V-162.3z"/>
				<path class="st3" d="M724.9-162.8l-0.9-0.5c0.9-1,1.5-2,1.9-3.2l1,0.2c-0.1,0.4-0.3,0.8-0.5,1.1h3.6v0.9h-2.4
					c0.3,0.5,0.6,1,0.9,1.4l-0.9,0.3c-0.3-0.6-0.6-1.2-1-1.8H726C725.7-163.8,725.3-163.3,724.9-162.8z M729.9-162.2v-1h1v1h5.6v0.9
					h-5.6v1.1h4.6v2.6c0,0.7-0.4,1.1-1.1,1.1h-1l-0.3-0.9h0.9c0.3,0,0.4-0.2,0.4-0.4v-1.5h-3.6v1.2c1.5,1.4,3.5,2.5,6,3.3l-0.5,0.9
					c-2.1-0.8-3.9-1.9-5.4-3.3v3.6h-1v-3.5c-1.5,1.4-3.2,2.5-5,3.3l-0.6-0.9c2.2-0.8,4.1-2,5.6-3.5v-1.2h-3.4v2.8h-1v-3.7h4.4v-1.1
					h-5.6v-0.9L729.9-162.2L729.9-162.2z M731.1-163l-0.9-0.6c0.6-0.9,1.1-1.9,1.4-2.9l1,0.2c-0.1,0.4-0.2,0.7-0.4,1.1h4.2v0.9h-2.6
					c0.3,0.5,0.6,1,0.8,1.4l-0.9,0.3c-0.3-0.6-0.6-1.2-1-1.8h-1C731.7-163.9,731.4-163.4,731.1-163z"/>
			</g>
		</g>
	</g>
</g>
<g>
	<polygon class="st6" points="167.1,146.1 172.1,141.6 167.1,137.1 	"/>
	<rect x="136.2" y="141.1" class="st6" width="30.9" height="1"/>
</g>
<g>
	<polygon class="st6" points="342.6,146.1 347.6,141.6 342.6,137.1 	"/>
	<rect x="311.8" y="141.1" class="st6" width="30.9" height="1"/>
</g>
<g>
	<polygon class="st6" points="681.5,146.1 686.5,141.6 681.5,137.1 	"/>
	<rect x="650.7" y="141.1" class="st6" width="30.9" height="1"/>
</g>
<path class="st8" d="M737,85.8L737,85.8c-1.1,0-2-0.9-2-2l0,0c0-1.1,0.9-2,2-2l0,0c1.1,0,2,0.9,2,2l0,0
	C739,84.9,738.1,85.8,737,85.8z"/>
<rect x="738" y="82.8" class="st8" width="26" height="2"/>
<rect x="762" y="82.8" class="st8" width="2" height="17"/>
<path class="st8" d="M763,103.8L763,103.8c1.1,0,2,0.9,2,2l0,0c0,1.1-0.9,2-2,2l0,0c-1.1,0-2-0.9-2-2l0,0
	C761,104.7,761.9,103.8,763,103.8z"/>
<rect x="736" y="104.8" class="st8" width="26" height="2"/>
<rect x="736" y="89.8" class="st8" width="2" height="17"/>
</svg>
