<?xml version="1.0" encoding="utf-8"?>
<!-- Generator: Adobe Illustrator 19.0.0, SVG Export Plug-In . SVG Version: 6.00 Build 0)  -->
<svg version="1.1" id="图层_1" xmlns="http://www.w3.org/2000/svg" xmlns:xlink="http://www.w3.org/1999/xlink" x="0px" y="0px"
	 width="820px" height="162px" viewBox="404 -75 820 162" style="enable-background:new 404 -75 820 162;" xml:space="preserve">
<style type="text/css">
	.st0{fill:url(#SVGID_1_);}
	.st1{opacity:0.2;fill:url(#SVGID_2_);enable-background:new    ;}
	.st2{opacity:0.2;}
	.st3{fill:url(#SVGID_3_);}
	.st4{fill:url(#SVGID_4_);}
	.st5{opacity:0.8;}
	.st6{opacity:0.8;fill:url(#SVGID_5_);enable-background:new    ;}
	.st7{opacity:0.8;fill:url(#SVGID_6_);enable-background:new    ;}
	.st8{opacity:0.2;fill:url(#SVGID_7_);enable-background:new    ;}
	.st9{fill:url(#SVGID_8_);}
	.st10{fill:#333333;}
	.st11{fill:#FFFFFF;}
	.st12{fill:url(#SVGID_9_);}
</style>
<linearGradient id="SVGID_1_" gradientUnits="userSpaceOnUse" x1="626.774" y1="806.6611" x2="542.9241" y2="722.811" gradientTransform="matrix(1 0 0 1 -59.1992 -783.998)">
	<stop  offset="0" style="stop-color:#0063FF"/>
	<stop  offset="1" style="stop-color:#00C8DE"/>
</linearGradient>
<path class="st0" d="M506-72.7l19.2,11.1l0.5,0.3l0.5-0.3l19-11l22.7,13.4v22v0.6l0.5,0.3l19.5,11.6V0.8l-22.6,13L546.4,2.6
	l-0.5-0.3l-0.5,0.3L526,13.8L506.4,2.5l-0.5-0.3l-0.5,0.3L486,13.7L463.8,0.9v-25.6L483.3-36l0.5-0.3v-0.6V-60L506-72.7 M506-73.8
	l-23.1,13.4v23.7l-20,11.6V1.5L486,14.9l19.9-11.5L526,14.9l19.9-11.4L565.2,15l23.6-13.6v-26.7l-20-11.8v-22.6l-23.6-14l-19.5,11.2
	L506-73.8L506-73.8z"/>
<linearGradient id="SVGID_2_" gradientUnits="userSpaceOnUse" x1="623.8741" y1="803.8611" x2="545.9241" y2="725.9111" gradientTransform="matrix(1 0 0 1 -59.1992 -783.998)">
	<stop  offset="0" style="stop-color:#0063FF"/>
	<stop  offset="1" style="stop-color:#00C8DE"/>
</linearGradient>
<path class="st1" d="M565.2,10.5L546.9-0.3v-22.5l19.5-11.1l18.5,10.7v22.8L565.2,10.5z M573.9-17.8c0-1.1-0.9-2-2-2h-13
	c-1.1,0-2,0.9-2,2v13.1c0,1.1,0.9,2,2,2h13c1.1,0,2-0.9,2-2V-17.8z M526.9-35.2v-22.9l18.4-10.8L565-57.4v21.9l-19.2,11.1
	L526.9-35.2z M554.1-39.7v-13.1c0-1.1-0.9-2-2-2h-13.2c-1.1,0-2,0.9-2,2v13.1c0,1.1,0.9,2,2,2h13.2
	C553.2-37.7,554.1-38.6,554.1-39.7z M524.9-35.4l-19.1,10.9l-19-11.1l0.1-22.7L506-68.9L524.9-58V-35.4L524.9-35.4z M504.9-0.6
	l-18.6,10.7L466.8-0.5v-22.8L485-34l19.8,11.3v22.1C504.8-0.6,504.9-0.6,504.9-0.6z M544.9-22.6v22.4l-18.7,10.7l-19.3-11v-22.3
	l18.9-10.8L544.9-22.6z M535.9-18.1c0-1.1-0.9-2-2-2h-16.7c-1.1,0-2,0.9-2,2V-5c0,1.1,0.9,2,2,2h16.7c1.1,0,2-0.9,2-2V-18.1z
	 M536.9-14.8h-22v-1h22V-14.8z M520.9-17.8v-6h9v6H520.9z M528.6-20.6h-6.5v1.6h6.5V-20.6z"/>
<g class="st2">
	<g>
		
			<linearGradient id="SVGID_3_" gradientUnits="userSpaceOnUse" x1="965.4007" y1="862.2235" x2="893.5977" y2="790.4204" gradientTransform="matrix(1 0 0 1 -102.1992 -849.998)">
			<stop  offset="0" style="stop-color:#0063FF"/>
			<stop  offset="1" style="stop-color:#00C8DE"/>
		</linearGradient>
		<path class="st3" d="M867.5-13.2H838v-0.1c0,0-1,0.9-2.4,2.2v-8.1h22.9v-18.9h-66.9v45h35.1c-1.9-1.6-3.8-3.3-5.2-4.7
			c0,0,0,0-0.1-0.1c-1.5-0.7-2.3-2.7-2.3-4.4c0-1.5,0.8-2.9,1.9-3.7l0,0l14.6-13.2v8.1c-2.4,2.2-6,5.5-7.8,7.2
			c-0.4,0.1-0.7,0.2-0.9,0.5c-0.7,0.7-0.6,1.9,0.1,2.6c0.2,0.2,0.5,0.3,0.8,0.4l0,0l7.9,6.4v0.8l0,0V6.1l2.4,1.9V7.9h29.6
			L867.5-13.2z M832.6-0.9c-0.6,0.7-1.7,0.7-2.4,0.1s-0.7-1.7-0.1-2.4c0.7-0.7,1.7-0.7,2.4-0.1C833.3-2.7,833.3-1.6,832.6-0.9z
			 M862.5-52.1h-75v10.8h75V-52.1z M814.6-55.2l-5.9-0.3c0,0-3.4-3.5-0.6-5.1c3.5-2,9.2,2.5,9.2,2.5l0.2,2.8h13.9l0.2-2.8
			c0,0,5.7-4.5,9.2-2.5c2.8,1.6-0.6,5.1-0.6,5.1l-5.9,0.3h18.2c2.1-4.9,1.1-12.2-6.6-13.7c-8.4-1.7-14.6,3.6-16.7,5.7h-0.1H820h-0.1
			c-2.1-2.1-8.4-7.4-16.7-5.7c-7.7,1.5-8.7,8.8-6.6,13.7H814.6z"/>
	</g>
</g>
<g>
	<g>
		
			<linearGradient id="SVGID_4_" gradientUnits="userSpaceOnUse" x1="968.343" y1="866.3772" x2="889.5458" y2="787.58" gradientTransform="matrix(1 0 0 1 -102.2139 -851.0684)">
			<stop  offset="0" style="stop-color:#0063FF"/>
			<stop  offset="1" style="stop-color:#00C8DE"/>
		</linearGradient>
		<path class="st4" d="M857.5-3.3c-1,0-1.8,0.3-2.3,1c-0.5,0.6-0.7,1.4-0.7,2.4s0.2,1.8,0.7,2.4c0.5,0.7,1.3,1,2.3,1s1.7-0.3,2.3-1
			c0.5-0.6,0.7-1.4,0.7-2.4s-0.2-1.8-0.7-2.4C859.2-2.9,858.5-3.3,857.5-3.3z M858.4,1.6c-0.2,0.5-0.5,0.7-0.9,0.7s-0.8-0.2-0.9-0.7
			c-0.1-0.3-0.2-0.8-0.2-1.5c0-0.6,0.1-1.1,0.2-1.5c0.2-0.5,0.5-0.7,0.9-0.7s0.7,0.2,0.9,0.7c0.1,0.3,0.2,0.8,0.2,1.5
			C858.6,0.8,858.5,1.2,858.4,1.6z M870.5-16.3h-34v-0.2c0,0-9,8.5-12.9,12c-0.1,0-0.1,0.1-0.1,0.2c-0.2,0.1-0.3,0.2-0.4,0.4
			c-0.9,1-0.9,2.6,0.1,3.6c0.2,0.2,0.5,0.4,0.8,0.5c0,0.1,0,0.1,0,0.1l12.5,10.6v-0.1h34.1L870.5-16.3z M837.1,9.8v0.1l-11.9-10
			c0,0,0,0,0-0.1c-0.3-0.1-0.5-0.2-0.7-0.4c-1-0.9-1.3-1.6-0.4-2.6c0.1-0.1,0.3-0.2,0.4-0.3c0-0.1,0.1-0.1,0.1-0.2
			c3.7-3.3,12.3-11.7,12.3-11.7v0.2h32.6v25H837.1z M788.5-37.2h73v18h1v-18h4v-19.1h-8c0.2-1.1,0.4-2.4,0.5-4.1
			c0.3-5.6-4.4-12.5-11.2-13.6c-13.4-2.3-21,6.7-21,6.7h-4.2c0,0-6.6-5.6-13.9-6.6C799-75.3,790-71,790.1-59.8
			c0,1.5,0.2,2.7,0.6,3.5h-7.2v19.1h4v48.1h44.9v-1h-43.9L788.5-37.2L788.5-37.2z M788.2-38.2h-3.7v-17h7.8c-0.3-0.8-1-1.8-1.1-3.2
			c-0.7-11.2,7.5-15.6,16.5-14.6c8.1,0.9,14.5,6.8,14.5,6.8h5.3c0,0,6.9-8.8,19.3-6.7c8.3,1.4,11.1,8.7,10.9,13.8
			c-0.1,1.5-0.6,2.9-0.8,3.9h8.6v17h-1.3l0,0L788.2-38.2L788.2-38.2L788.2-38.2z M830.2-3.4c-0.9,1-0.9,2.5,0.1,3.5
			c1,0.9,2.5,0.9,3.5-0.1c0.9-1,0.9-2.5-0.1-3.5C832.6-4.5,831.1-4.4,830.2-3.4z M833-0.8c-0.6,0.6-1.5,0.6-2.1,0.1
			c-0.6-0.6-0.6-1.5-0.1-2.1c0.6-0.6,1.5-0.6,2.1-0.1C833.6-2.4,833.6-1.4,833-0.8z M855.4-9.1l-7,13h1.9l7-13H855.4z M850.4-3.1
			c0.5-0.6,0.7-1.4,0.7-2.4s-0.2-1.8-0.7-2.4c-0.5-0.7-1.3-1-2.3-1s-1.8,0.3-2.3,1c-0.5,0.6-0.7,1.4-0.7,2.4s0.2,1.8,0.7,2.4
			c0.5,0.7,1.3,1,2.3,1C849.1-2.1,849.9-2.4,850.4-3.1z M849.1-4.1c-0.2,0.5-0.5,0.7-0.9,0.7s-0.8-0.2-0.9-0.7
			c-0.1-0.3-0.2-0.8-0.2-1.5c0-0.6,0.1-1.1,0.2-1.5c0.2-0.5,0.5-0.7,0.9-0.7s0.7,0.2,0.9,0.7c0.1,0.4,0.2,0.8,0.2,1.5
			S849.2-4.4,849.1-4.1z"/>
	</g>
</g>
<g class="st5">
	
		<linearGradient id="SVGID_5_" gradientUnits="userSpaceOnUse" x1="1214.3195" y1="-765.809" x2="1159.6932" y2="-711.1826" gradientTransform="matrix(1 0 0 -1 -43.3594 -772.3984)">
		<stop  offset="0" style="stop-color:#0063FF"/>
		<stop  offset="1" style="stop-color:#00C8DE"/>
	</linearGradient>
	<path class="st6" d="M1173.4-41.7c0-0.2,0-0.3,0-0.3h0.1l-0.3-0.7c-2-16.3-15.9-29-32.8-29c-10.5,0-19.9,5-26,12.7h1.3
		c5.9-7.1,14.8-11.6,24.7-11.6c16.1,0,29.8,12.1,31.8,28.1v0.1v0.1l0.3,0.7l0.3,0.6l6,15l-5.2-0.1h-1.2v1.2V-12
		c0,4.5-3.2,4.9-5.2,4.9c-0.2,0-0.3,0-0.3,0h-0.2h-10.1h-1.2v1.3V2h-23v1h24v-9h10.3c0,0,0.2,0,0.5,0c1.6,0,6.2-0.2,6.2-5.9
		c0-3.7,0-8.4,0-12.9h6.7L1173.4-41.7z"/>
	
		<linearGradient id="SVGID_6_" gradientUnits="userSpaceOnUse" x1="1203.1096" y1="-731.4866" x2="1198.236" y2="-726.613" gradientTransform="matrix(1 0 0 -1 -43.3594 -772.3984)">
		<stop  offset="0" style="stop-color:#0063FF"/>
		<stop  offset="1" style="stop-color:#00C8DE"/>
	</linearGradient>
	<path class="st7" d="M1161.4-43.4c0-1.4-1.7-2.5-4.1-2.5s-4.1,1-4.1,2.5c0,1.4,1.7,2.5,4.1,2.5
		C1159.7-40.9,1161.4-41.9,1161.4-43.4z M1154.1-43.4c0-0.8,1.4-1.5,3.1-1.5s3.1,0.7,3.1,1.5s-1.4,1.5-3.1,1.5
		S1154.1-42.6,1154.1-43.4z"/>
</g>
<linearGradient id="SVGID_7_" gradientUnits="userSpaceOnUse" x1="1179.6935" y1="-774.0023" x2="1135.8018" y2="-730.1105" gradientTransform="matrix(1 0 0 -1 -43.3594 -772.3984)">
	<stop  offset="0" style="stop-color:#0063FF"/>
	<stop  offset="1" style="stop-color:#00C8DE"/>
</linearGradient>
<path class="st8" d="M1127.4-1.3v11.8h-23V3.6h-8.8c0,0-8.6-0.4-8.6-10.3c0-3.4,0-7.1,0-10.4l-4.5-0.4l5.9-14.1
	c2.5-12.6,13.7-22.2,27.1-22.2c15.3,0,27.6,12.4,27.6,27.7C1142.9-15.2,1136.6-5.8,1127.4-1.3z M1099.3-34.7c-1.6,0-2.8,1.3-2.8,2.8
	c0,1.6,1.3,2.8,2.8,2.8c1.6,0,2.8-1.3,2.8-2.8C1102.1-33.5,1100.9-34.7,1099.3-34.7z"/>
<linearGradient id="SVGID_8_" gradientUnits="userSpaceOnUse" x1="1184.59" y1="-778.6058" x2="1131.9442" y2="-725.9601" gradientTransform="matrix(1 0 0 -1 -43.3594 -772.3984)">
	<stop  offset="0" style="stop-color:#0063FF"/>
	<stop  offset="1" style="stop-color:#00C8DE"/>
</linearGradient>
<path class="st9" d="M1115.4-58.5c17.7,0,32,14.4,32,32.1c0,11.3-5.8,21.6-15.5,27.4l-0.5,0.3v0.6V14h-31.1V7.1v-1h-1h-7.1
	c-0.6,0-8.8-0.8-8.8-11.4v-7.6v-1h-1l-5.8-0.2l6.9-16.5l0.1-0.1v-0.1C1085.8-46.6,1099.4-58.5,1115.4-58.5 M1099.5-28.8
	c1.7,0,3.1-1.4,3.1-3.1s-1.4-3.1-3.1-3.1s-3.1,1.4-3.1,3.1C1096.4-30.2,1097.8-28.8,1099.5-28.8 M1115.4-59.5
	c-16.7,0-30.5,12.4-32.7,28.6l-7.5,17.8l7.2,0.3c0,2.6,0,5.2,0,7.6c0,11.8,9.8,12.4,9.8,12.4h7.1V15h33.1V1.8
	c9.6-5.8,15.9-16.3,15.9-28.3C1148.4-44.7,1133.6-59.5,1115.4-59.5L1115.4-59.5z M1099.5-29.8c-1.2,0-2.1-0.9-2.1-2.1
	s0.9-2.1,2.1-2.1s2.1,0.9,2.1,2.1C1101.6-30.7,1100.7-29.8,1099.5-29.8L1099.5-29.8z"/>
<g>
	<path class="st10" d="M447.9,53.2h3v6.2c0.7-0.6,1.2-1,1.7-1.5l0.3,1c-0.8,0.8-1.8,1.6-2.8,2.2l-0.4-0.9c0.2-0.2,0.3-0.4,0.3-0.6
		V54h-2.1V53.2z M449.6,49c1,0.7,1.8,1.4,2.4,2.2l-0.7,0.7c-0.6-0.7-1.4-1.4-2.4-2.2L449.6,49z M452.3,53.1h3.8v-4.2h1v4.2h3.6v1
		h-3.6v7.7h-1v-7.7h-3.8V53.1z"/>
	<path class="st10" d="M469,57.2c-0.2,1.6-0.6,2.7-1.3,3.2c-0.7,0.7-2.3,1.1-4.9,1.3l-0.4-0.9c2.2-0.1,3.7-0.4,4.4-1
		c0.6-0.5,1-1.5,1.1-2.7L469,57.2z M470.3,52.1V53h3.8c0,1-0.1,1.7-0.3,1.9c-0.2,0.3-0.7,0.5-1.5,0.5h-0.6l-0.2-0.7
		c0.3,0,0.6,0,0.7,0c0.4,0,0.7-0.1,0.8-0.2c0.1-0.1,0.1-0.4,0.1-0.7h-2.8v1.6h-1v-1.6h-2.5c-0.2,0.3-0.4,0.6-0.7,0.9
		c-0.5,0.4-1.1,0.8-1.9,1.1h8.6v3.8h-1v-2.9h-6.9v2.9h-1v-3.7c-0.3,0.1-0.7,0.2-1.1,0.3l-0.5-0.8c1.4-0.3,2.4-0.7,3-1.2
		c0.1-0.1,0.2-0.3,0.3-0.3H463l0.5-2.4h2.8v-0.9h-3.2v-0.8h3.2v-0.7h1v0.7h2v-0.7h1v0.7h3.1v2.5L470.3,52.1L470.3,52.1z M464.3,52.1
		l-0.2,0.9h2.1c0.1-0.3,0.1-0.6,0.2-0.9H464.3z M467.3,52.1c0,0.3-0.1,0.6-0.1,0.9h2.2v-0.9H467.3z M467.3,50.4v0.9h2v-0.9H467.3z
		 M469.3,59.3c1.8,0.4,3.5,1,5,1.6l-0.5,0.8c-1.6-0.7-3.2-1.3-4.9-1.7L469.3,59.3z M470.3,50.4v0.9h2.1v-0.9H470.3z"/>
	<path class="st10" d="M479.6,49.3c-0.8,1.8-1.5,3.1-2.3,4.2c0.5,0,1.2-0.1,2-0.3c0.3-0.5,0.6-1.1,0.9-1.7l0.9,0.4
		c-1.3,2.4-2.5,4.1-3.3,5.1c1-0.2,2.1-0.5,3.1-0.9V57c-1.5,0.6-3,0.9-4.4,1.1l-0.3-0.9c0.2-0.1,0.3-0.2,0.5-0.3
		c0.5-0.5,1.2-1.5,2-2.8c-0.7,0.1-1.5,0.2-2.5,0.4l-0.3-0.9c0.1-0.1,0.3-0.2,0.4-0.4c0.8-1.2,1.5-2.6,2.2-4.2L479.6,49.3z
		 M480.8,59.5c-1.4,0.6-2.9,1.1-4.5,1.5l-0.1-1c1.8-0.4,3.4-0.8,4.7-1.4v0.9H480.8z M487.5,49.5v10.7h1.2v1h-8.1v-1h1.2V49.5H487.5z
		 M482.8,53h3.7v-2.5h-3.7V53z M482.8,56.6h3.7V54h-3.7V56.6z M482.8,60.3h3.7v-2.7h-3.7V60.3z"/>
	<path class="st10" d="M496.7,48.9c1.8,2.1,3.8,3.7,6.2,4.9l-0.5,1c-2.3-1.3-4.3-2.9-6-4.9c-1.5,1.9-3.5,3.5-6,4.9l-0.5-1
		c2.5-1.3,4.5-2.9,6.2-4.9H496.7L496.7,48.9z M500.7,56.1v5.6h-1v-0.8h-6.9v0.8h-1v-5.6H500.7z M492.7,53.3h7.3v1h-7.3V53.3z
		 M492.9,59.9h6.9V57h-6.9V59.9z"/>
	<path class="st10" d="M507.4,52.1c0.2,0.2,0.2,0.4,0.2,0.6c0,0.2-0.1,0.4-0.2,0.6c-0.2,0.2-0.4,0.2-0.6,0.2s-0.4-0.1-0.6-0.2
		c-0.2-0.2-0.2-0.4-0.2-0.6s0.1-0.4,0.2-0.6c0.2-0.2,0.4-0.2,0.6-0.2C507.1,51.8,507.3,51.9,507.4,52.1z M507.4,57.2
		c0.2,0.2,0.2,0.4,0.2,0.6c0,0.2-0.1,0.4-0.2,0.6c-0.2,0.2-0.4,0.2-0.6,0.2s-0.4-0.1-0.6-0.2c-0.2-0.2-0.2-0.4-0.2-0.6
		c0-0.2,0.1-0.4,0.2-0.6c0.2-0.2,0.4-0.2,0.6-0.2C507.1,57,507.3,57,507.4,57.2z"/>
	<path class="st10" d="M526.4,51c1,0.9,2.4,1.7,4.3,2.2l-0.4,0.9c-1-0.4-1.9-0.8-2.6-1.2v0.4h-5.8v0.9h6.5V55h-6.5v0.8h6.5v0.8h-6.5
		v0.9h8.5v0.9H523c-0.6,0.9-1.1,1.6-1.6,2.1c2.1-0.1,4.1-0.3,6.1-0.6c-0.3-0.4-0.6-0.8-0.8-1.1l0.9-0.3c0.7,0.9,1.4,1.8,1.9,2.8
		l-0.9,0.4c-0.2-0.3-0.3-0.6-0.5-1c-2.5,0.4-5.3,0.6-8.1,0.7l-0.3-0.8c0.7-0.1,1.4-0.8,2.2-2.2h-3.6v-0.9h2.5v-4.3
		c-0.8,0.4-1.5,0.7-2.4,1l-0.5-0.9c1.9-0.6,3.4-1.4,4.5-2.3h-4v-0.9h4.8c0.3-0.3,0.5-0.7,0.6-1.2l1,0.1c-0.1,0.3-0.3,0.7-0.5,1.1
		h5.8V51H526.4L526.4,51L526.4,51z M526.9,52.5c-0.7-0.5-1.2-1-1.7-1.5h-1.6c-0.5,0.6-1,1.1-1.7,1.5H526.9z"/>
	<path class="st10" d="M535.2,48.9h0.9v0.5h1.9v0.7h-1.9v0.8h1.8v0.6c-1.2,1.5-3,2.6-5.5,3.1l-0.4-0.7c0.9-0.2,1.7-0.4,2.4-0.7
		c-0.3-0.3-0.7-0.6-1.2-0.9c-0.3,0.3-0.5,0.5-0.8,0.7l-0.5-0.7c0.8-0.6,1.4-1.4,1.7-2.3l0.9,0.1c-0.1,0.3-0.2,0.6-0.4,0.9h1.1V48.9z
		 M543.9,58.7c-0.6,0.7-1.3,1.3-2,1.9c0.7,0.2,1.5,0.3,2.5,0.3l-0.3,0.9c-1.4-0.1-2.7-0.3-3.6-0.8c-0.8-0.4-1.5-0.9-2-1.7h-3.2v1.5
		c1-0.2,1.9-0.4,2.7-0.6l0.2,0.8c-1,0.3-2.3,0.5-4,0.7l-0.3-0.9c0.3-0.1,0.4-0.2,0.4-0.4v-4.5c-0.6,0.3-1.2,0.5-1.9,0.7l-0.5-0.8
		c2.6-0.7,4.5-1.7,5.9-3h0.8c1.3,1.2,3.3,2.2,6,2.9l-0.5,0.8c-0.9-0.3-1.6-0.5-2.1-0.7v3.6h-2.6c0.4,0.4,1,0.8,1.5,1
		c0.8-0.6,1.4-1.3,2-2L543.9,58.7z M536.8,51.6h-3c-0.1,0.1-0.1,0.1-0.1,0.2c0.6,0.4,1.1,0.7,1.5,1C535.8,52.4,536.3,52,536.8,51.6z
		 M538.4,54.6c0.2,0.3,0.3,0.6,0.5,1h2.9c-1.6-0.7-2.7-1.3-3.5-2c-0.8,0.7-1.9,1.4-3.2,2h2.9c-0.2-0.3-0.4-0.6-0.5-0.8L538.4,54.6z
		 M541.1,57.1v-0.9h-5.7v0.9H541.1z M535.4,57.7v0.9h5.7v-0.9H535.4z M539.2,50.5c0.8,0.3,1.5,0.7,2,1c0.6-0.4,1.1-0.9,1.4-1.4h-3.9
		v-0.8h5V50c-0.4,0.8-0.9,1.4-1.7,2c0.8,0.5,1.6,1,2.4,1.5l-0.5,0.8c-0.9-0.7-1.7-1.3-2.6-1.8c-0.5,0.3-1.1,0.6-1.6,0.8l-0.5-0.7
		c0.5-0.2,0.9-0.3,1.3-0.5c-0.5-0.3-1.1-0.6-1.7-0.8L539.2,50.5z"/>
	<path class="st10" d="M547.6,54.2c-0.4,0.6-0.9,1.2-1.4,1.8l-0.3-1c1.5-1.8,2.5-3.8,3.1-6.1l0.9,0.4c-0.4,1.2-0.8,2.3-1.4,3.3v9.2
		h-1v-7.6C547.5,54.2,547.6,54.2,547.6,54.2z M549.7,51.3h3.7v-2.4h1v2.4h3.8v1h-3c0.7,2.3,1.8,4.4,3.5,6.2l-0.7,0.8
		c-1.7-2.1-2.9-4.4-3.6-7h-0.1v5.6h2.2v1h-2.2v2.9h-1v-2.9h-2.1v-1h2.1v-5.6h-0.2c-0.7,2.9-1.9,5.3-3.7,7.1l-0.5-0.9
		c1.6-1.6,2.7-3.7,3.4-6.3h-2.8L549.7,51.3L549.7,51.3z"/>
	<path class="st10" d="M564.3,58.3c-0.9,1.1-2.1,2.1-3.5,3l-0.6-0.8c1.4-0.8,2.5-1.8,3.4-2.8L564.3,58.3z M564.2,61.7l-0.2-1
		c0.6,0,1,0.1,1.4,0.1c0.3,0,0.5-0.2,0.5-0.5v-3.4c-1.6,0.1-3.1,0.2-4.4,0.2l-0.3-0.9c0.3,0,0.6-0.1,0.9-0.2
		c1.1-0.5,2.4-1.3,3.9-2.4c-1,0.1-2.3,0.2-3.9,0.3l-0.2-0.9c0.2,0,0.4-0.1,0.7-0.2c0.7-0.4,1.5-1,2.5-2.1c-1.2,0.1-2.5,0.1-3.8,0.1
		l-0.3-0.9c4,0,7.4-0.3,10-0.9l0.5,0.9c-1.5,0.3-3.2,0.6-5.2,0.7c-0.8,1-1.7,1.8-2.6,2.4c1,0,2.1-0.1,3.4-0.2c0.5-0.4,1.2-1,1.9-1.7
		l0.9,0.5c-2.4,2.1-4.4,3.6-6.2,4.5c2.4-0.1,4.3-0.3,5.9-0.5c-0.4-0.6-0.8-1-1.1-1.4l0.8-0.5c1.2,1.4,2,2.5,2.6,3.5l-0.8,0.6
		c-0.2-0.4-0.5-0.9-0.9-1.4c-0.8,0.1-1.9,0.2-3.2,0.3v3.8c0,0.8-0.4,1.2-1.2,1.2L564.2,61.7L564.2,61.7L564.2,61.7z M568.9,57.6
		c1.4,1,2.6,2,3.5,3.1l-0.7,0.7c-0.9-1-2-2-3.5-3.1L568.9,57.6z"/>
	<path class="st10" d="M578.8,48.8h1l-5,12.9h-1L578.8,48.8z"/>
	<path class="st10" d="M590.2,61.5c-0.5,0-1.3,0-2.5,0c-0.9,0-1.6-0.1-2.2-0.3c-0.5-0.2-1-0.5-1.5-1c-0.2-0.2-0.4-0.4-0.5-0.4
		c-0.3,0-0.9,0.6-1.7,1.9L581,61c0.7-1.2,1.4-1.9,2-2.1v-4.3h-2v-0.9h2.9V59c0.1,0.1,0.2,0.2,0.3,0.3c0.3,0.4,0.7,0.7,1.1,0.9
		c0.4,0.2,1,0.3,1.9,0.3c1,0,1.9,0,2.7,0c0.4,0,1.1,0,2,0c0.8,0,1.3,0,1.6-0.1l-0.2,1L590.2,61.5L590.2,61.5z M582.1,49.1
		c1,0.8,1.8,1.5,2.4,2.2l-0.7,0.7c-0.6-0.7-1.3-1.4-2.3-2.2L582.1,49.1z M585.1,50.3h2.3c0.2-0.6,0.4-1.1,0.6-1.5l1,0.2
		c-0.2,0.5-0.3,0.9-0.5,1.3h4.9v0.9H588c-0.4,0.9-0.9,1.8-1.4,2.5h2.3V52h1v1.7h3.1v0.9h-3.1v1.7h3.7v1h-3.7v2.6h-1v-2.6H585v-1h3.9
		v-1.7h-3.2l-0.2-0.9c0.6-0.7,1.1-1.5,1.5-2.5h-1.8v-0.9H585.1z"/>
	<path class="st10" d="M598.2,49.3c-0.6,1.7-1.3,3.1-2,4.2c0.5-0.1,1.1-0.1,1.7-0.3l0.8-1.5l0.9,0.4c-1.2,2.3-2.2,3.9-3,4.8
		c0.9-0.2,1.7-0.4,2.5-0.7v0.9c-1.3,0.4-2.5,0.7-3.8,0.9l-0.3-0.9c0.2-0.1,0.3-0.1,0.5-0.3c0.5-0.5,1.1-1.4,1.8-2.7
		c-0.5,0.1-1.2,0.2-2.2,0.4l-0.3-0.9c0.1-0.1,0.3-0.2,0.4-0.4c0.7-1.3,1.3-2.7,1.8-4.3L598.2,49.3z M599.4,59.7
		c-1.2,0.5-2.6,0.9-4.1,1.2l-0.1-1c1.6-0.3,3.1-0.7,4.3-1.2L599.4,59.7L599.4,59.7z M599.6,57h3.9c0-0.3,0.1-0.6,0.1-1v-2.6h1V56
		c0,0.2,0,0.5-0.1,1h3.3v0.9h-3.4c-0.1,0.3-0.1,0.5-0.2,0.7c1.4,0.7,2.6,1.4,3.8,2.3l-0.6,0.9c-1.2-1-2.4-1.8-3.6-2.4l-0.3,0.4
		c-0.7,0.9-1.8,1.5-3.3,2l-0.6-0.9c1.5-0.4,2.5-1.1,3.1-1.8c0.3-0.3,0.4-0.7,0.6-1.2h-3.7V57L599.6,57z M600.2,54.7
		c0.7,0.3,1.4,0.8,2.1,1.4l-0.5,0.7c-0.7-0.6-1.4-1.1-2.1-1.4L600.2,54.7z M600.3,49.8h2.8v-0.9h1v0.9h3v0.9h-3V52h3.2v0.6
		c-0.2,0.9-0.5,1.8-0.8,2.6l-1-0.3c0.3-0.6,0.5-1.3,0.7-2.1h-6.4V52h3.2v-1.3h-2.8L600.3,49.8L600.3,49.8z M601.2,53.3
		c0.7,0.3,1.3,0.8,2,1.3l-0.5,0.7c-0.7-0.6-1.3-1-1.9-1.3L601.2,53.3z"/>
	<path class="st10" d="M469.9,73.5c-0.2,0.4-0.4,0.9-0.6,1.4h7.8c0,3.5-0.1,5.7-0.2,6.6c-0.1,0.9-0.7,1.3-1.6,1.3
		c-0.2,0-0.5,0-0.9,0l-0.2-0.9c0.5,0,0.8,0.1,1,0.1c0.5,0,0.7-0.3,0.8-0.8c0.1-0.6,0.1-2.3,0.2-5.2h-7.3c-0.7,1.2-1.5,2.2-2.4,3
		l-0.7-0.8c1.3-1.2,2.4-2.8,3.2-4.8L469.9,73.5z M473.7,77.6v4.3h-5.1v2.6c0,0.4,0.2,0.6,0.7,0.6h6.7c0.3,0,0.6-0.2,0.7-0.4
		c0.1-0.2,0.2-0.8,0.3-1.6l1,0.3c-0.1,0.9-0.2,1.5-0.3,1.8c-0.2,0.6-0.6,0.8-1.3,0.9H469c-0.9,0-1.3-0.4-1.3-1.2v-7.2L473.7,77.6
		C473.7,77.7,473.7,77.6,473.7,77.6z M468.6,81h4v-2.4h-4V81z"/>
	<path class="st10" d="M483.1,81.8c-0.2,1.8-0.7,3.3-1.6,4.5l-0.8-0.7c0.9-1.3,1.4-2.8,1.4-4.8V74h8v10.9c0,0.8-0.4,1.2-1.2,1.2
		h-1.8l-0.3-1c0.9,0,1.4,0.1,1.8,0.1c0.3,0,0.5-0.2,0.5-0.6v-2.8L483.1,81.8L483.1,81.8z M489.2,77.4V75h-6v2.4H489.2z M483.2,78.3
		v2.5h6v-2.5H483.2z"/>
	<path class="st10" d="M498.3,73.3h1l-5,12.9h-1L498.3,73.3z"/>
	<path class="st10" d="M502.3,77.5c-0.4,0.3-0.7,0.5-1.1,0.8l-0.6-0.8c1.8-1.1,3.2-2.5,4.3-4.2l1,0.2c-0.2,0.4-0.5,0.7-0.7,1.1h4.8
		v0.8c-0.6,0.7-1.2,1.4-1.7,1.9h3.4v4.2h-3.2v2.9c0,0.5,0.2,0.7,0.6,0.7h2.3c0.2,0,0.4-0.1,0.5-0.3c0.1-0.2,0.2-0.9,0.3-1.9l1,0.3
		c-0.1,1.4-0.3,2.2-0.5,2.5s-0.6,0.4-1.1,0.4h-2.7c-0.9,0-1.3-0.5-1.3-1.5v-3.1h-0.7c-0.1,0.2-0.2,0.4-0.3,0.8
		c-0.7,1.6-2.5,2.9-5.2,4l-0.6-0.8c2.4-0.9,4.1-2,4.8-3.4c0-0.1,0.1-0.3,0.3-0.6h-3.4C502.3,81.5,502.3,77.5,502.3,77.5z M507,77.2
		c0.6-0.5,1.2-1.1,1.7-1.7h-4.3c-0.5,0.6-1.1,1.2-1.8,1.7H507z M506,80.5c0.2-0.7,0.3-1.5,0.3-2.4h-3.1v2.4H506z M510.7,80.5v-2.4
		h-3.4c0,0.9-0.1,1.7-0.3,2.4H510.7z"/>
	<path class="st10" d="M521.5,81.7c-0.2,1.6-0.6,2.7-1.3,3.2c-0.7,0.7-2.3,1.1-4.9,1.3l-0.4-0.9c2.2-0.1,3.7-0.4,4.4-1
		c0.6-0.5,1-1.5,1.1-2.7L521.5,81.7z M522.8,76.6v0.9h3.8c0,1-0.1,1.7-0.3,1.9c-0.2,0.3-0.7,0.5-1.5,0.5h-0.6l-0.2-0.7
		c0.3,0,0.6,0,0.7,0c0.4,0,0.7-0.1,0.8-0.2s0.1-0.4,0.1-0.7h-2.8v1.6h-1v-1.6h-2.5c-0.2,0.3-0.4,0.6-0.7,0.9
		c-0.5,0.4-1.1,0.8-1.9,1.1h8.6V84h-1v-2.9h-6.9V84h-1v-3.7c-0.3,0.1-0.7,0.2-1.1,0.3l-0.5-0.8c1.4-0.3,2.4-0.7,3-1.2
		c0.1-0.1,0.2-0.3,0.3-0.3h-2.8l0.5-2.4h2.8V75h-3.2v-0.8h3.2v-0.7h1v0.7h2v-0.7h1v0.7h3.1v2.5L522.8,76.6L522.8,76.6z M516.8,76.6
		l-0.2,0.9h2.1c0.1-0.3,0.1-0.6,0.2-0.9H516.8z M519.8,76.6c0,0.3-0.1,0.6-0.1,0.9h2.2v-0.9H519.8z M519.8,74.9v0.9h2v-0.9H519.8z
		 M521.8,83.8c1.8,0.4,3.5,1,5,1.6l-0.5,0.8c-1.6-0.7-3.2-1.3-4.9-1.7L521.8,83.8z M522.8,74.9v0.9h2.1v-0.9H522.8z"/>
	<path class="st10" d="M528.4,77.7h2.9v6.1c0.3-0.3,0.8-0.8,1.3-1.3l0.3,1.1c-0.8,0.9-1.6,1.6-2.5,2.2l-0.4-0.9
		c0.2-0.2,0.3-0.4,0.3-0.6v-5.6h-2C528.4,78.6,528.4,77.7,528.4,77.7z M530.1,73.5c0.9,0.7,1.6,1.4,2.3,2.2l-0.7,0.7
		c-0.6-0.7-1.3-1.4-2.3-2.2L530.1,73.5z M538.4,84.9c-0.4-0.8-0.7-2-0.9-3.4c-0.1-1.2-0.3-2.7-0.3-4.6h-4.4v-1h4.4
		c0-0.5,0-1.4,0-2.6h1c0,1.2,0,2,0,2.6h2.8v1h-2.8c0.1,2.4,0.2,4.2,0.4,5.6c0.3,1.6,0.7,2.4,1.1,2.5c0.3-0.1,0.6-0.9,0.9-2.6
		l0.8,0.6c-0.5,2-1,3-1.7,3C539.2,86,538.8,85.7,538.4,84.9z M534.4,80h-1.3v-0.9h3.6V80h-1.3v3.8c0.7-0.1,1.3-0.3,1.8-0.5v0.9
		c-1.2,0.3-2.5,0.6-3.9,0.9l-0.3-0.9c0.5-0.1,0.9-0.1,1.4-0.2V80L534.4,80z M539.3,73.3c0.6,0.7,1.1,1.2,1.4,1.8l-0.7,0.5
		c-0.3-0.5-0.8-1.1-1.4-1.8L539.3,73.3z"/>
	<path class="st10" d="M544.7,81.6c-0.2,1.8-0.7,3.3-1.6,4.5l-0.8-0.7c0.9-1.3,1.4-2.8,1.4-4.7V74h10.4v10.5c0,1-0.5,1.5-1.5,1.5
		H551l-0.3-1c0.7,0,1.3,0.1,1.6,0.1c0.5,0,0.8-0.3,0.8-0.9v-2.4h-3.8v4.1h-1v-4.1L544.7,81.6L544.7,81.6z M548.4,74.9h-3.6v2.4h3.6
		V74.9z M544.8,78.3v2.4h3.6v-2.4H544.8z M553.2,77.3v-2.4h-3.8v2.4H553.2z M553.2,80.7v-2.4h-3.8v2.4H553.2z"/>
	<path class="st10" d="M561.3,73.3h1l-5,12.9h-1L561.3,73.3z"/>
	<path class="st10" d="M563.4,77.7h3V84c0.6-0.5,1.2-1,1.8-1.5l0.3,1.1c-0.9,0.8-1.9,1.5-2.9,2.2l-0.4-0.9c0.2-0.2,0.3-0.4,0.3-0.6
		v-5.6h-2.1L563.4,77.7L563.4,77.7z M565.1,73.5c1,0.7,1.8,1.5,2.4,2.2l-0.7,0.7c-0.6-0.7-1.4-1.4-2.4-2.2L565.1,73.5z M568.2,74.2
		h8.1v1h-2.9v9.6c0,0.9-0.4,1.3-1.3,1.3h-1.8l-0.2-1c0.7,0,1.2,0.1,1.7,0.1c0.4,0,0.6-0.2,0.6-0.7v-9.4h-4.1L568.2,74.2L568.2,74.2z
		"/>
	<path class="st10" d="M578.1,75.6h1v10.6h-1V75.6z M580.1,73.3c0.6,0.7,1.1,1.4,1.5,2.2l-0.9,0.5c-0.5-0.8-1-1.6-1.6-2.2
		L580.1,73.3z M586.2,76.1c-0.3,0.7-0.6,1.4-1,2.1h1.5V82h-1.5v2.1c0,0.2,0.1,0.4,0.3,0.4h0.6c0.2,0,0.4-0.1,0.5-0.2
		c0.1-0.2,0.2-0.6,0.2-1.2l0.9,0.3c-0.1,1-0.2,1.6-0.5,1.8c-0.2,0.2-0.5,0.3-0.9,0.3h-1c-0.6,0-0.9-0.4-0.9-1.1V82h-1.1
		c-0.2,1.6-1.1,2.8-2.9,3.6l-0.5-0.8c1.5-0.6,2.4-1.5,2.6-2.8h-1.4v-3.8h3.3c0.4-0.8,0.8-1.6,1-2.4L586.2,76.1z M582.2,76
		c0.4,0.5,0.8,1.1,1.1,1.7l-0.8,0.4c-0.4-0.7-0.7-1.2-1.1-1.7L582.2,76z M585.7,81.2v-2.1h-3.9v2.1H585.7z M587.3,86.1l-0.2-0.9h1
		c0.3,0,0.5-0.2,0.5-0.6V75H583v-1h6.5v10.9c0,0.8-0.4,1.2-1.3,1.2H587.3L587.3,86.1z"/>
</g>
<g>
	<path class="st10" d="M756.9,62.5c-0.5,0-1.3,0-2.5,0c-0.9,0-1.6-0.1-2.2-0.3c-0.6-0.2-1-0.5-1.5-1c-0.2-0.2-0.4-0.4-0.5-0.4
		c-0.3,0-0.9,0.6-1.7,1.9l-0.8-0.7c0.8-1.2,1.4-1.9,2-2.1v-4.3h-2v-0.9h2.9V60c0.1,0.1,0.2,0.2,0.3,0.3c0.3,0.4,0.7,0.7,1.1,0.9
		c0.4,0.2,1.1,0.3,1.9,0.3c1,0,1.9,0,2.7,0c0.4,0,1.1,0,2,0c0.8,0,1.3,0,1.6-0.1l-0.2,1L756.9,62.5L756.9,62.5z M748.8,50.1
		c1,0.8,1.8,1.5,2.4,2.2l-0.7,0.7c-0.6-0.7-1.3-1.4-2.3-2.2L748.8,50.1z M751.7,53.8h8.3v0.9h-4.4c-0.8,2-1.5,3.4-2.1,4.2
		c1.9-0.2,3.5-0.4,4.7-0.7c-0.3-0.7-0.7-1.4-1.1-2.2l0.8-0.3c0.7,1.2,1.4,2.7,2,4.4l-0.9,0.2c-0.1-0.3-0.3-0.7-0.5-1.3
		c-1.5,0.3-3.6,0.6-6.2,0.8l-0.3-0.9c0.6-0.2,1.4-1.6,2.5-4.3h-2.8V53.8z M752.7,50.4h6.3v0.9h-6.3V50.4z"/>
	<path class="st10" d="M761.9,50.9h3.2V50h1v0.9h3.7V50h1v0.9h3.1v0.9h-3.1v0.8h-1v-0.8h-3.7v0.8h-1v-0.8h-3.2V50.9z M773.6,53.2
		v2.6h-1V54h-9.3v1.8h-1v-2.7L773.6,53.2L773.6,53.2z M772.8,58.8v3.9h-1v-0.6h-7.6v0.6h-1v-3.9H772.8z M764.2,61.3h7.6v-1.7h-7.6
		V61.3z M764.5,55h7v2.8h-7V55z M770.5,57.1v-1.3h-5.1v1.3H770.5z"/>
	<path class="st10" d="M784.9,62.5c-0.5,0-1.3,0-2.5,0c-0.9,0-1.7-0.1-2.2-0.3c-0.6-0.2-1.1-0.5-1.5-1c-0.2-0.2-0.4-0.4-0.5-0.4
		c-0.3,0-0.9,0.6-1.7,1.9l-0.8-0.7c0.7-1.2,1.4-1.9,2-2.1v-4.3h-2v-0.9h2.9V60c0.1,0.1,0.2,0.2,0.3,0.3c0.3,0.4,0.7,0.7,1.1,0.9
		c0.4,0.2,1.1,0.3,1.9,0.3c1,0,1.9,0,2.8,0c0.4,0,1.1,0,2,0c0.8,0,1.3,0,1.6-0.1l-0.2,1L784.9,62.5L784.9,62.5z M776.7,50.1
		c0.9,0.7,1.7,1.4,2.4,2.2l-0.7,0.7c-0.6-0.7-1.4-1.4-2.4-2.2L776.7,50.1z M783.6,49.9h1v1.8h2.8v1h-2.8v2h3.3v1h-2.3v3.7
		c0,0.2,0.1,0.3,0.4,0.3h0.5c0.2,0,0.4,0,0.5-0.1c0.2-0.1,0.3-0.6,0.3-1.6l0.9,0.3c-0.1,1.1-0.3,1.8-0.5,2s-0.6,0.3-1.1,0.3h-1
		c-0.3,0-0.6-0.1-0.8-0.3s-0.3-0.4-0.3-0.7v-4h-1.4c0,0.9-0.2,1.8-0.4,2.5c-0.4,1.1-1.2,1.9-2.5,2.6l-0.6-0.8
		c1.1-0.5,1.9-1.2,2.2-2.1c0.2-0.6,0.4-1.3,0.4-2.2H780v-1h3.5v-2h-2.3c-0.3,0.5-0.5,1-0.8,1.5l-0.9-0.5c0.7-1,1.2-2.2,1.6-3.5
		l1,0.2c-0.2,0.6-0.3,1-0.4,1.4h1.8L783.6,49.9L783.6,49.9z"/>
	<path class="st10" d="M790,62.6l-0.2-1c0.5,0,0.8,0.1,1.1,0.1c0.4,0,0.6-0.2,0.6-0.6v-3.3c-0.6,0.2-1.1,0.4-1.7,0.5l-0.3-1
		c0.7-0.2,1.3-0.3,1.9-0.5v-3.2h-1.7v-1h1.7V50h1v2.6h1.6v1h-1.6v2.8c0.5-0.2,1-0.4,1.6-0.7v1c-0.5,0.3-1,0.5-1.6,0.7v4
		c0,0.8-0.4,1.2-1.2,1.2H790L790,62.6z M794.7,50.4h6.6v0.8c-0.4,1.1-1.1,2-2.2,2.8c0.9,0.4,2,0.7,3.3,0.9l-0.4,0.9
		c-1.5-0.2-2.8-0.6-3.8-1.2c-0.9,0.5-2.1,0.9-3.5,1.3l-0.5-0.9c1.2-0.3,2.3-0.6,3.1-1c-0.9-0.7-1.5-1.6-1.9-2.7h-0.7L794.7,50.4
		L794.7,50.4z M795,56.9h2.8v-1.2h1v1.2h2.8v0.9h-2.8v1.6h3.5v0.9h-3.5v2.2h-1v-2.2h-3.5v-0.9h3.5v-1.6H795V56.9z M796.4,51.4
		c0.4,0.9,1,1.6,1.8,2.2c1-0.6,1.6-1.3,2.1-2.2H796.4z"/>
	<path class="st10" d="M805.4,54.8c0.2,0.1,0.3,0.3,0.3,0.6c0,0.2-0.1,0.4-0.3,0.6c-0.2,0.2-0.4,0.2-0.6,0.2s-0.4-0.1-0.6-0.2
		c-0.2-0.2-0.3-0.4-0.3-0.6c0-0.2,0.1-0.4,0.3-0.6c0.2-0.2,0.4-0.2,0.6-0.2S805.3,54.6,805.4,54.8z M805.4,59.9
		c0.2,0.1,0.3,0.3,0.3,0.6c0,0.2-0.1,0.4-0.3,0.6c-0.2,0.2-0.4,0.2-0.6,0.2s-0.4-0.1-0.6-0.2c-0.2-0.2-0.3-0.4-0.3-0.6
		c0-0.2,0.1-0.4,0.3-0.6c0.2-0.2,0.4-0.2,0.6-0.2C805.1,59.7,805.3,59.7,805.4,59.9z"/>
	<path class="st10" d="M814,49.9c1.8,2,3.8,3.6,6.1,4.7l-0.5,1c-2.3-1.2-4.3-2.8-5.9-4.8c-1.5,1.8-3.5,3.4-6,4.8l-0.5-1
		c2.5-1.3,4.5-2.8,6.2-4.7H814L814,49.9z M808,57h11.3v1h-6.6c-0.7,1.3-1.5,2.5-2.4,3.4c2.3-0.1,4.5-0.3,6.5-0.6
		c-0.6-0.7-1.1-1.4-1.6-1.9l0.8-0.5c1.3,1.4,2.3,2.7,2.9,3.7l-0.8,0.6c-0.3-0.4-0.5-0.8-0.8-1.1c-2.2,0.4-5,0.6-8.3,0.8l-0.3-0.9
		c0.2-0.1,0.4-0.2,0.5-0.3c0.9-1.1,1.7-2.1,2.3-3.3H808V57L808,57z M810.2,54.2h6.9v1h-6.9V54.2z"/>
	<path class="st10" d="M828.3,56.9c-0.2,2.1-0.6,3.4-1.3,4.2c-0.7,0.9-2.4,1.4-5,1.7l-0.4-0.9c2.3-0.1,3.8-0.6,4.5-1.4
		c0.7-0.7,1-1.9,1.1-3.7L828.3,56.9z M832.2,55v5.1h-1v-4.2h-6.9v4.4h-1V55H832.2L832.2,55z M823.9,50.4h7.4v3.5h-7.4V50.4z
		 M830.4,52.9v-1.6H825v1.6H830.4z M828.7,60c1.7,0.5,3.4,1.2,4.9,2l-0.5,0.8c-1.6-0.9-3.2-1.5-4.9-2L828.7,60z"/>
	<path class="st10" d="M840.2,49.8h1l-5,12.9h-1L840.2,49.8z"/>
	<path class="st10" d="M842.5,51.1c1.6-0.2,3.1-0.5,4.4-1l0.4,0.9c-0.6,0.2-1.1,0.4-1.7,0.5v2.2h1.7v1h-1.7v0.7
		c0.6,0.6,1.3,1.4,2,2.3l-0.6,0.8c-0.6-1-1.1-1.8-1.5-2.3v6.4h-1v-6.3c-0.5,1.4-1.2,2.6-2.1,3.7l-0.4-1.1c1.1-1.3,2-2.7,2.4-4.3h-2
		v-1h2.1v-2c-0.8,0.1-1.4,0.2-1.9,0.3L842.5,51.1z M850.3,58.6c-0.6,1.6-1.4,3-2.3,4.2l-0.9-0.6c0.9-1.1,1.7-2.4,2.3-4L850.3,58.6z
		 M848.2,50.7h6v6.5h-6V50.7z M853.2,56.3v-4.6h-4v4.6H853.2z M852.8,58.1c1,1.5,1.8,2.9,2.4,4.1l-0.9,0.6c-0.6-1.3-1.4-2.7-2.4-4.2
		L852.8,58.1z"/>
	<path class="st10" d="M861.6,50.7c-0.7,1.2-1.3,2.2-2,2.9c-0.7,0.8-1.6,1.6-2.8,2.4l-0.5-0.9c1-0.6,1.8-1.3,2.6-2.2
		c0.7-0.8,1.3-1.7,1.9-2.8L861.6,50.7z M858.3,56.4v-1h8.5c0,1.7-0.1,3.1-0.3,4.3c-0.1,1.1-0.4,1.8-0.7,2.2s-0.8,0.6-1.6,0.7h-2.6
		l-0.3-1c0.8,0,1.6,0,2.4,0c0.8,0,1.3-0.3,1.5-1s0.4-2.1,0.5-4.3H862c-0.3,1.5-0.8,2.8-1.4,3.7c-0.7,1-1.7,1.9-3.1,2.6l-0.6-0.8
		c1.3-0.7,2.2-1.5,2.8-2.3s1-1.9,1.3-3.2L858.3,56.4L858.3,56.4L858.3,56.4L858.3,56.4z M864.8,50c0.8,2.1,2.2,3.8,4.3,5.1l-0.7,0.8
		c-2.1-1.4-3.6-3.2-4.5-5.4L864.8,50z"/>
	<path class="st10" d="M875.2,49.8h1l-5,12.9h-1L875.2,49.8z"/>
	<path class="st10" d="M878.7,53.8c-0.1,0.7-0.3,1.4-0.5,2.1l-0.9-0.3c0.5-1.4,0.7-3,0.8-4.6l0.9,0.1c0,0.7-0.1,1.3-0.1,1.8h1.2V50
		h1v2.9h1.2v1H881v3.3c0.5-0.2,0.9-0.4,1.3-0.5v1c-0.4,0.2-0.8,0.3-1.3,0.5v4.6h-1v-4.3c-0.8,0.3-1.6,0.5-2.5,0.7l-0.2-1
		c1-0.2,1.9-0.4,2.7-0.7v-3.7H878.7L878.7,53.8z M885.8,49.9h1v1.5h2.6v0.9h-2.6v1.6h3.2v1h-7.4v-1h3.2v-1.6h-2.5v-0.9h2.5V49.9z
		 M882.9,56.6h4.4v-1h1v1h1.6v1h-1.6v3.8c0,0.9-0.4,1.3-1.2,1.3h-1.7l-0.2-1c0.7,0,1.2,0.1,1.5,0.1c0.4,0,0.5-0.2,0.5-0.6v-3.5h-4.4
		L882.9,56.6L882.9,56.6z M883.9,58.2c0.7,0.8,1.3,1.6,1.6,2.2l-0.8,0.6c-0.4-0.7-1-1.4-1.6-2.2L883.9,58.2z"/>
	<path class="st10" d="M893,54.7c-0.4,0.6-0.9,1.3-1.5,1.9l-0.3-1.1c1.4-1.7,2.4-3.6,3-5.7l1,0.4c-0.3,0.9-0.7,1.8-1.1,2.7v9.7h-1
		L893,54.7L893,54.7z M899.7,50c0.9,1.9,2.4,3.5,4.5,4.9l-0.6,0.9c-2-1.3-3.4-2.9-4.4-4.8c-1.1,2.1-2.5,3.8-4.2,5l-0.6-0.9
		c1.9-1.3,3.3-3,4.3-5.1L899.7,50L899.7,50L899.7,50z M897,54.8h1v2.1c0,2.6-0.7,4.6-2.1,5.8l-0.8-0.7c1.2-1.1,1.8-2.8,1.8-5.1
		L897,54.8L897,54.8z M900.6,54.8h1v7.8h-1V54.8z"/>
</g>
<g>
	<path class="st10" d="M1099.6,55.9h2V51h1v4.9h1.7v0.9h-1.7v0.4c0.6,0.7,1.3,1.5,2.1,2.4l-0.6,0.9c-0.6-1-1.1-1.8-1.5-2.4v5.6h-1
		v-5.4c-0.5,1.3-1.1,2.4-1.9,3.4l-0.4-1.1c1-1.1,1.8-2.4,2.2-3.9h-1.9L1099.6,55.9L1099.6,55.9z M1100.4,52.1
		c0.2,0.9,0.4,1.8,0.6,2.9l-0.7,0.2c-0.2-1-0.4-1.9-0.6-2.9L1100.4,52.1z M1104.4,51.9c-0.1,1.1-0.3,2.2-0.6,3.1l-0.7-0.2
		c0.3-0.9,0.5-1.9,0.6-3L1104.4,51.9z M1108,50.9h1v0.9h2.9v0.8h-2.9v0.9h2.5v0.8h-2.5v1h3.3v0.8h-7.6v-0.8h3.3v-1h-2.6v-0.8h2.6
		v-0.9h-3v-0.8h3L1108,50.9L1108,50.9z M1106.4,61.5v2.2h-1V57h6v5.5c0,0.7-0.4,1.1-1.1,1.1h-1l-0.3-0.9h1c0.3,0,0.4-0.2,0.4-0.5
		v-0.9L1106.4,61.5L1106.4,61.5L1106.4,61.5z M1110.5,58.9v-1h-4.1v1H1110.5z M1106.4,59.7v1h4.1v-1H1106.4z"/>
	<path class="st10" d="M1114.4,51.4c1,1.3,1.7,2.3,2.2,3.2l-0.8,0.6c-0.5-0.9-1.3-2-2.2-3.2L1114.4,51.4z M1116.6,57.8
		c-0.6,2-1.3,3.9-2.2,5.8l-1-0.4c0.9-1.9,1.6-3.9,2.2-5.8L1116.6,57.8z M1119,63v0.8h-1v-8.3c-0.4,0.6-0.8,1.3-1.3,1.9l-0.3-1.1
		c1.2-1.6,2.1-3.5,2.6-5.4l1,0.2c-0.2,0.8-0.5,1.5-0.8,2.2h3c-0.2-0.8-0.5-1.5-0.8-2.2l1-0.3c0.3,0.8,0.6,1.6,0.8,2.4l-0.4,0.1h3.1
		v1h-3v1.9h2.7v0.9h-2.7V59h2.7v1h-2.7v2h3.2v1H1119L1119,63L1119,63z M1121.9,54.2h-2.9v1.9h2.9V54.2z M1119,57.1V59h2.9v-1.9H1119
		z M1119,59.9V62h2.9v-2.1H1119z"/>
	<path class="st10" d="M1127.6,51.7h12.4v1h-12.4V51.7z M1138.5,55.1h1v8.6h-1v-0.8h-9.4v0.8h-1v-8.6h1V62h9.4V55.1z M1130.5,54.1
		h6.7v6.4h-6.7V54.1z M1133.4,55h-1.9v1.9h1.9V55z M1131.5,57.7v1.9h1.9v-1.9H1131.5z M1136.2,56.9V55h-1.9v1.9H1136.2z
		 M1134.3,59.6h1.9v-1.9h-1.9V59.6z"/>
	<path class="st10" d="M1143,55.8c-0.4,0.6-0.8,1.2-1.3,1.8l-0.3-1.1c1.3-1.6,2.2-3.6,2.8-5.7l0.9,0.4c-0.3,0.9-0.6,1.9-1.1,2.8v9.7
		h-1V55.8z M1145.7,54.2c-0.1,0.1-0.3,0.2-0.5,0.3l-0.6-0.8c1.4-0.8,2.5-1.8,3.4-3l1,0.2c-0.2,0.3-0.4,0.6-0.6,0.8h3.5v0.7
		c-0.4,0.5-0.7,0.9-1.1,1.2h2.6v3.1h-4.2l0,0c0.6,0.6,1.1,1.3,1.4,2c1-0.4,1.8-0.9,2.4-1.6l0.7,0.8c-0.4,0.4-0.9,0.7-1.4,1
		c0.4,1.3,1.1,2.4,2.1,3.4l-0.7,0.8c-1-1.1-1.8-2.4-2.2-3.8l-0.6,0.3c0.1,0.5,0.2,1,0.3,1.5c0,1-0.2,1.6-0.5,2
		c-0.3,0.3-0.8,0.5-1.5,0.6c-0.3,0-0.5,0-0.8,0l-0.3-0.9c0.3,0,0.6,0,1,0c0.3,0,0.6-0.1,0.8-0.4c0.2-0.2,0.3-0.7,0.3-1.3
		c0-0.1,0-0.3,0-0.5c-1.2,1.1-2.8,2-4.7,2.7l-0.5-0.9c2.2-0.7,3.8-1.6,5.1-2.7c-0.1-0.3-0.2-0.6-0.3-0.9c-1.1,0.9-2.5,1.7-4.2,2.3
		l-0.5-0.8c1.8-0.6,3.3-1.3,4.3-2.1c-0.1-0.2-0.3-0.4-0.6-0.7c-0.8,0.8-2,1.3-3.3,1.6l-0.4-0.8c1.3-0.3,2.3-0.8,3.1-1.5h-2.3
		L1145.7,54.2L1145.7,54.2z M1149.5,53.7c0.3-0.3,0.7-0.6,1.2-1.1h-3c-0.4,0.4-0.8,0.7-1.2,1.1H1149.5z M1148.7,55.9
		c0.3-0.5,0.5-0.9,0.6-1.4h-2.5v1.4H1148.7z M1152.4,55.9v-1.4h-2.2c-0.1,0.5-0.3,0.9-0.5,1.4H1152.4z"/>
</g>
<g>
	<circle class="st11" cx="477.9" cy="-11.5" r="2.6"/>
	<circle class="st11" cx="485.9" cy="-11.5" r="2.6"/>
	<circle class="st11" cx="493.9" cy="-11.5" r="2.6"/>
</g>
<rect x="499.9" y="-56.8" class="st11" width="16" height="15"/>
<circle class="st11" cx="502.9" cy="-43.7" r="9.6"/>
<g>
	<g>
		
			<linearGradient id="SVGID_9_" gradientUnits="userSpaceOnUse" x1="584.5943" y1="-350.1019" x2="526.8578" y2="-292.3655" gradientTransform="matrix(1 0 0 -1 -21.6797 -349.1992)">
			<stop  offset="0" style="stop-color:#0063FF"/>
			<stop  offset="1" style="stop-color:#00C8DE"/>
		</linearGradient>
		<path class="st12" d="M570.2-9.6c-0.2,1.3-0.4,2-0.5,2.1c-0.3-0.1-0.6-0.8-0.8-2.2c-0.2-1.1-0.3-2.3-0.3-4.3h1.9v-1h-1.9
			c0-1,0-1,0-2h-1.2c0,1,0,1,0,2h-3.8v1h3.9c0,0.8,0,1.5,0.1,2h-4v1h1.6v2.7l-1.4,0.2l0.4,1.2c1.1-0.2,2.4-0.4,3.4-0.7v-1.2
			c-0.8,0.3-1.4,0.3-1.4,0.3v-2.6h1.4v-0.6c0,0.6,0.1,1,0.2,1.5c0.2,1.2,0.5,2.2,0.9,3c0.3,0.6,0.7,1,1.2,1c0.6,0,1.1-0.9,1.5-2.6
			L570.2-9.6z M542.3-44.3c-0.7,0-1.3,0.6-1.3,1.3s0.6,1.3,1.3,1.3s1.3-0.6,1.3-1.3S543-44.3,542.3-44.3z M570.7-15.8
			c-0.3-0.4-0.7-0.9-1.2-1.4l-0.9,0.5c0.5,0.5,0.9,1,1.1,1.5L570.7-15.8z M562.6-14.5l0.9-0.9c-0.5-0.6-1.1-1.2-1.8-1.8l-0.9,0.9
			C561.5-15.7,562.2-15.1,562.6-14.5z M563.4-9.7c-0.4,0.4-0.9,0.6-0.9,0.8v-5.2h-3v1.2h2v4.7c0,0.2-0.1,0.5-0.3,0.6l0.5,1.1
			c0.8-0.6,1.5-1.2,2.2-1.9L563.4-9.7z M542.1-51.2c-0.2,0-0.6,0-0.6,0v1.5c0,0,0.4,0,0.6,0c3.7,0,6.7,3,6.7,6.6c0,0.2,0,0.3,0,0.5
			l1.3,0.1c0-0.2,0-0.5,0-0.7C550.1-47.6,546.5-51.2,542.1-51.2z M546.9-42.8c0-2.6-2.2-4.9-4.8-4.9c-0.2,0-0.7,0-0.7,0v1.5
			c0,0,0.5-0.1,0.7-0.1c1.8,0,3.3,1.7,3.3,3.5c0,0.1,0-0.3,0,0.7h1.4C546.9-43.1,546.9-42.6,546.9-42.8z M523.9-11.8
			c0.4-0.2,0.7-0.5,1-0.8c0.2-0.3,0.3-0.7,0.3-1.1c0-0.4-0.1-0.8-0.3-1.2s-0.6-0.7-1-0.9s-0.9-0.3-1.4-0.3c-0.7,0-1.4,0.2-1.8,0.6
			c-0.5,0.4-0.8,1-1,1.8l1.1,0.2c0.1-0.6,0.3-1,0.6-1.3s0.7-0.4,1.1-0.4c0.4,0,0.8,0.1,1.1,0.4s0.4,0.6,0.4,1c0,0.5-0.2,0.9-0.6,1.2
			c-0.4,0.3-0.8,0.4-1.3,0.4c0,0-0.1,0-0.2,0l-0.1,1c0.3-0.1,0.6-0.1,0.8-0.1c0.5,0,1,0.2,1.3,0.5s0.5,0.8,0.5,1.3
			c0,0.6-0.2,1-0.6,1.4c-0.4,0.4-0.8,0.6-1.4,0.6c-0.5,0-0.8-0.1-1.2-0.4c-0.3-0.3-0.5-0.8-0.7-1.4l-1.1,0.2
			c0.1,0.8,0.4,1.4,0.9,1.9s1.2,0.7,2,0.7c0.9,0,1.7-0.3,2.2-0.8c0.6-0.6,0.9-1.3,0.9-2.1c0-0.6-0.2-1.1-0.5-1.5
			C524.9-11.4,524.4-11.6,523.9-11.8z M532-14.9c-0.2-0.4-0.6-0.7-0.9-0.9c-0.4-0.2-0.8-0.3-1.3-0.3c-0.7,0-1.2,0.2-1.7,0.5
			c-0.4,0.4-0.8,0.9-1,1.6c-0.2,0.7-0.3,1.6-0.3,2.7c0,1.7,0.3,3,0.9,3.8c0.5,0.6,1.2,1,2.1,1c0.7,0,1.2-0.2,1.7-0.5
			c0.4-0.4,0.8-0.9,1-1.6s0.3-1.6,0.3-2.6c0-0.9-0.1-1.7-0.2-2.2C532.5-14.1,532.3-14.5,532-14.9z M531.1-8.3
			c-0.4,0.5-0.8,0.8-1.3,0.8s-1-0.3-1.3-0.8c-0.4-0.5-0.5-1.5-0.5-3.1s0.2-2.6,0.6-3.1c0.3-0.4,0.7-0.7,1.3-0.7c0.5,0,1,0.3,1.3,0.8
			c0.4,0.5,0.5,1.5,0.5,3.1C531.6-9.8,531.5-8.8,531.1-8.3z M502.5-50.9c-3.1,0.6-5.4,3.3-5.4,6.5c0,3.7,3,6.7,6.7,6.7
			c3.6,0,6.5-2.9,6.7-6.4h3.1v-10h-11L502.5-50.9L502.5-50.9z M503.7-39.2c-2.8,0-5.2-2.3-5.2-5.2c0-2.4,1.7-4.4,3.9-5v5.2h6.4
			C508.7-41.3,506.5-39.2,503.7-39.2z M504.5-52.1h7v6h-1.3c-0.7-2.6-3-4.6-5.7-4.9V-52.1z M504.5-49.4c1.9,0.3,3.5,1.6,4.1,3.3
			h-4.1V-49.4z"/>
	</g>
</g>
</svg>
