<?xml version="1.0" encoding="utf-8"?>
<!-- Generator: Adobe Illustrator 22.0.0, SVG Export Plug-In . SVG Version: 6.00 Build 0)  -->
<svg version="1.1" id="图层_1" xmlns="http://www.w3.org/2000/svg" xmlns:xlink="http://www.w3.org/1999/xlink" x="0px" y="0px"
	 width="830px" height="123.698px" viewBox="0 0 830 123.698" style="enable-background:new 0 0 830 123.698;" xml:space="preserve"
	>
<title>04异地容灾</title>
<rect x="317.084" y="16.057" style="fill:#CEE3FF;" width="193.833" height="89.5"/>
<g>
	<g>
		<path style="fill:none;stroke:#888888;" d="M193.5,59.167h146"/>
		<polygon style="fill:#888888;" points="335,63.667 341,59.167 335,54.667 		"/>
		<path style="fill:none;stroke:#FF0000;stroke-width:15;stroke-opacity:0;" d="M193.5,59.167h73"/>
		<path style="fill:none;stroke:#FF0000;stroke-width:15;stroke-opacity:0;" d="M266.5,59.167h73"/>
	</g>
	<g>
		<path style="fill:none;stroke:#888888;" d="M633.5,59.167h-146"/>
		<polygon style="fill:#888888;" points="492,54.667 486,59.167 492,63.667 		"/>
		<path style="fill:none;stroke:#FF0000;stroke-width:15;stroke-opacity:0;" d="M633.5,59.167h-73"/>
		<path style="fill:none;stroke:#FF0000;stroke-width:15;stroke-opacity:0;" d="M560.5,59.167h-73"/>
	</g>
</g>
<rect x="58" y="36.667" style="opacity:0.6;fill:#BBBBBB;enable-background:new    ;" width="138" height="50"/>
<rect x="56" y="34.667" style="fill:#FFFFFF;stroke:#E5E5E5;" width="138" height="50"/>
<path style="fill:#00A4FF;" d="M85,55.667v8l7,4l7-4v-8l-7-4L85,55.667z M91,64.797l-4-2.29v-3.7l4,2.29V64.797z M97,62.507l-4,2.29
	v-3.7l4-2.29V62.507z M92,59.367l-4.72-2.7l4.72-2.7l4.72,2.7L92,59.367z M104,66.507l-12,6.86l-12-6.86v-13.68l12-6.86l12,6.86l0,0
	l2-1.16l-14-8l-14,8v16l14,8l14-8v-12l-2,1.14V66.507z"/>
<g style="enable-background:new    ;">
	<path style="fill:#444444;" d="M130.761,66.04h-1.022v-0.603h-9.469v0.603h-1.022V53.867h11.514V66.04z M129.738,64.485v-9.666
		h-9.469v9.666H129.738z M128.464,56.094v0.91h-2.942v2.017h2.507v0.896h-2.507v2.228h3.348v0.925h-7.718v-0.925h3.333v-2.228
		h-2.507v-0.896h2.507v-2.017h-2.956v-0.91H128.464z M128.085,61.753l-0.785,0.364c-0.28-0.63-0.588-1.176-0.924-1.639l0.798-0.266
		C127.525,60.688,127.833,61.207,128.085,61.753z"/>
	<path style="fill:#444444;" d="M135.67,62.944l-0.672-0.827c1.569-1.036,2.605-2.325,3.11-3.88c0.154-0.546,0.28-1.135,0.378-1.778
		h-3.992v9.595h-1.022V55.477h5.127c0.07-0.714,0.112-1.484,0.112-2.297h1.023c0,0.826-0.042,1.597-0.098,2.297h4.917v9.021
		c0,0.938-0.462,1.415-1.359,1.415h-2.199l-0.28-1.009l2.143,0.056c0.448,0,0.672-0.238,0.672-0.687v-7.815h-4.006
		c-0.07,0.532-0.154,1.036-0.266,1.498c1.457,1.373,2.675,2.731,3.67,4.062l-0.756,0.771c-0.812-1.205-1.891-2.479-3.208-3.824
		C138.388,60.562,137.295,61.88,135.67,62.944z"/>
	<path style="fill:#444444;" d="M154.124,55.351c0.757,0.589,1.205,1.387,1.345,2.382h-1.106c-0.14-0.729-0.504-1.289-1.064-1.681
		c-0.546-0.379-1.204-0.561-1.989-0.561c-1.162,0-2.059,0.406-2.689,1.219c-0.588,0.756-0.883,1.751-0.883,2.997
		c0,1.247,0.28,2.241,0.869,2.97c0.616,0.771,1.499,1.163,2.676,1.163c0.798,0,1.471-0.21,2.03-0.631
		c0.589-0.448,0.995-1.106,1.191-1.975h1.106c-0.225,1.162-0.742,2.073-1.569,2.717c-0.771,0.603-1.694,0.911-2.759,0.911
		c-1.555,0-2.746-0.519-3.572-1.541c-0.756-0.925-1.121-2.129-1.121-3.614c0-1.484,0.378-2.703,1.148-3.655
		c0.84-1.065,2.045-1.583,3.586-1.583C152.43,54.469,153.368,54.763,154.124,55.351z"/>
	<path style="fill:#444444;" d="M165.115,55.968c0.812,0.952,1.232,2.185,1.232,3.712c0,1.513-0.42,2.731-1.232,3.684
		c-0.868,0.994-2.06,1.499-3.558,1.499c-1.499,0-2.676-0.505-3.544-1.499c-0.827-0.952-1.233-2.186-1.233-3.684
		c0-1.514,0.406-2.746,1.233-3.698c0.868-1.009,2.045-1.513,3.558-1.513C163.056,54.469,164.247,54.96,165.115,55.968z
		 M158.854,56.682c-0.616,0.757-0.924,1.751-0.924,2.998c0,1.232,0.308,2.227,0.924,2.983c0.645,0.784,1.555,1.177,2.704,1.177
		c1.148,0,2.059-0.393,2.703-1.148c0.616-0.757,0.938-1.751,0.938-3.012c0-1.275-0.322-2.283-0.938-3.04
		c-0.645-0.771-1.541-1.148-2.689-1.148S159.512,55.883,158.854,56.682z"/>
	<path style="fill:#444444;" d="M173.962,55.24c0.672,0.532,1.05,1.33,1.148,2.381h-1.135c-0.126-0.729-0.406-1.261-0.841-1.61
		c-0.448-0.364-1.078-0.533-1.891-0.533c-0.742,0-1.316,0.112-1.737,0.364c-0.476,0.28-0.714,0.701-0.714,1.275
		c0,0.504,0.28,0.91,0.854,1.219c0.252,0.14,0.868,0.35,1.835,0.63c1.316,0.393,2.185,0.715,2.605,0.967
		c0.826,0.504,1.246,1.204,1.246,2.115c0,0.868-0.35,1.568-1.051,2.073c-0.7,0.49-1.639,0.742-2.829,0.742
		c-1.177,0-2.102-0.252-2.773-0.757c-0.784-0.603-1.219-1.513-1.303-2.745h1.135c0.098,0.868,0.406,1.513,0.91,1.919
		c0.463,0.364,1.135,0.561,2.031,0.561c0.812,0,1.484-0.154,1.989-0.463c0.504-0.308,0.756-0.729,0.756-1.261
		c0-0.63-0.336-1.12-0.994-1.471c-0.28-0.168-0.994-0.406-2.115-0.729c-1.204-0.363-1.975-0.644-2.297-0.812
		c-0.771-0.448-1.148-1.093-1.148-1.934c0-0.868,0.363-1.555,1.106-2.031c0.658-0.448,1.513-0.672,2.549-0.672
		C172.421,54.469,173.317,54.721,173.962,55.24z"/>
</g>
<rect x="636" y="36.667" style="opacity:0.6;fill:#BBBBBB;enable-background:new    ;" width="138" height="50"/>
<rect x="634" y="34.667" style="fill:#FFFFFF;stroke:#E5E5E5;" width="138" height="50"/>
<path style="fill:#00A4FF;" d="M663,55.667v8l7,4l7-4v-8l-7-4L663,55.667z M669,64.797l-4-2.29v-3.7l4,2.29V64.797z M675,62.507
	l-4,2.29v-3.7l4-2.29V62.507z M670,59.367l-4.72-2.7l4.72-2.7l4.72,2.7L670,59.367z M682,66.507l-12,6.86l-12-6.86v-13.68l12-6.86
	l12,6.86l0,0l2-1.16l-14-8l-14,8v16l14,8l14-8v-12l-2,1.14V66.507z"/>
<g style="enable-background:new    ;">
	<path style="fill:#444444;" d="M699.544,58.643l-0.714,0.715c-0.52-0.561-1.233-1.148-2.158-1.793l0.729-0.7
		C698.241,57.453,698.955,58.055,699.544,58.643z M699.684,61.277c-0.588,1.639-1.232,3.18-1.961,4.608l-0.938-0.406
		c0.784-1.484,1.457-2.998,2.031-4.538L699.684,61.277z M699.768,55.183l-0.714,0.729c-0.532-0.561-1.247-1.148-2.157-1.765
		l0.715-0.687C698.465,54.021,699.18,54.595,699.768,55.183z M701.253,56.417h7.116c-0.043,1.232-0.084,2.325-0.112,3.277h1.19
		v0.938h-1.232c-0.057,1.022-0.098,1.849-0.141,2.493h1.148v0.869h-1.219c-0.041,0.392-0.084,0.63-0.111,0.742
		c-0.141,0.448-0.406,0.784-0.799,1.008c-0.393,0.196-0.952,0.295-1.709,0.295c-0.35,0-0.756,0.014-1.219,0.014l-0.294-0.925
		c0.505,0.028,0.967,0.057,1.387,0.057c0.378,0,0.715-0.042,1.022-0.112c0.309-0.098,0.533-0.309,0.673-0.631
		c0.028-0.069,0.056-0.224,0.084-0.447h-6.668c0.225-1.121,0.421-2.242,0.561-3.362h-1.401v-0.938h1.5
		c0.111-1.078,0.182-2.171,0.209-3.264c-0.293,0.378-0.602,0.729-0.924,1.051l-0.645-0.771c0.953-0.911,1.723-2.102,2.325-3.586
		l1.009,0.21c-0.141,0.35-0.295,0.687-0.448,0.994h6.472v0.938h-6.99C701.785,55.674,701.533,56.052,701.253,56.417z
		 M701.491,63.126h5.631c0.042-0.63,0.084-1.457,0.14-2.493h-5.379C701.771,61.529,701.645,62.37,701.491,63.126z M707.389,57.313
		h-5.239c-0.042,0.84-0.099,1.639-0.168,2.381h5.323C707.332,58.965,707.36,58.167,707.389,57.313z M705.651,62.313l-0.659,0.645
		c-0.42-0.477-0.994-0.994-1.723-1.541L703.9,60.8C704.601,61.305,705.175,61.809,705.651,62.313z M705.791,58.924l-0.645,0.645
		c-0.42-0.448-1.008-0.91-1.75-1.401l0.63-0.616C704.727,57.999,705.314,58.462,705.791,58.924z"/>
	<path style="fill:#444444;" d="M715.393,60.282c0.645-1.232,1.079-2.605,1.289-4.104h-2.773c-0.672,1.597-1.583,2.899-2.703,3.936
		l-0.688-0.854c1.598-1.484,2.689-3.502,3.25-6.022l1.009,0.168c-0.14,0.63-0.308,1.232-0.504,1.807h3.403v0.883
		c-0.477,4.244-2.521,7.451-6.163,9.623l-0.687-0.854c1.751-1.009,3.124-2.27,4.104-3.782c-0.729-0.616-1.471-1.121-2.214-1.484
		l0.533-0.785C714.034,59.232,714.748,59.722,715.393,60.282z M719.945,53.251v4.23c1.162,0.854,2.34,1.82,3.544,2.899l-0.616,0.925
		c-1.148-1.149-2.115-2.06-2.928-2.704v7.452h-1.037V53.251H719.945z"/>
	<path style="fill:#444444;" d="M732.124,55.351c0.757,0.589,1.205,1.387,1.345,2.382h-1.106c-0.14-0.729-0.504-1.289-1.064-1.681
		c-0.546-0.379-1.204-0.561-1.989-0.561c-1.162,0-2.059,0.406-2.689,1.219c-0.588,0.756-0.883,1.751-0.883,2.997
		c0,1.247,0.281,2.241,0.869,2.97c0.616,0.771,1.499,1.163,2.676,1.163c0.798,0,1.471-0.21,2.03-0.631
		c0.589-0.448,0.995-1.106,1.191-1.975h1.106c-0.225,1.162-0.742,2.073-1.569,2.717c-0.771,0.603-1.694,0.911-2.759,0.911
		c-1.555,0-2.746-0.519-3.572-1.541c-0.756-0.925-1.121-2.129-1.121-3.614c0-1.484,0.379-2.703,1.148-3.655
		c0.841-1.065,2.046-1.583,3.587-1.583C730.43,54.469,731.368,54.763,732.124,55.351z"/>
	<path style="fill:#444444;" d="M743.115,55.968c0.812,0.952,1.232,2.185,1.232,3.712c0,1.513-0.42,2.731-1.232,3.684
		c-0.868,0.994-2.06,1.499-3.558,1.499c-1.499,0-2.676-0.505-3.544-1.499c-0.827-0.952-1.233-2.186-1.233-3.684
		c0-1.514,0.406-2.746,1.233-3.698c0.868-1.009,2.045-1.513,3.558-1.513C741.056,54.469,742.247,54.96,743.115,55.968z
		 M736.854,56.682c-0.616,0.757-0.924,1.751-0.924,2.998c0,1.232,0.308,2.227,0.924,2.983c0.645,0.784,1.555,1.177,2.704,1.177
		c1.148,0,2.059-0.393,2.703-1.148c0.616-0.757,0.938-1.751,0.938-3.012c0-1.275-0.322-2.283-0.938-3.04
		c-0.645-0.771-1.541-1.148-2.689-1.148S737.512,55.883,736.854,56.682z"/>
	<path style="fill:#444444;" d="M751.962,55.24c0.672,0.532,1.05,1.33,1.148,2.381h-1.135c-0.126-0.729-0.406-1.261-0.841-1.61
		c-0.448-0.364-1.078-0.533-1.891-0.533c-0.742,0-1.316,0.112-1.737,0.364c-0.476,0.28-0.714,0.701-0.714,1.275
		c0,0.504,0.28,0.91,0.854,1.219c0.252,0.14,0.868,0.35,1.835,0.63c1.316,0.393,2.185,0.715,2.605,0.967
		c0.826,0.504,1.246,1.204,1.246,2.115c0,0.868-0.35,1.568-1.051,2.073c-0.7,0.49-1.639,0.742-2.829,0.742
		c-1.177,0-2.102-0.252-2.773-0.757c-0.784-0.603-1.219-1.513-1.303-2.745h1.135c0.098,0.868,0.406,1.513,0.91,1.919
		c0.463,0.364,1.135,0.561,2.031,0.561c0.812,0,1.484-0.154,1.989-0.463c0.504-0.308,0.756-0.729,0.756-1.261
		c0-0.63-0.336-1.12-0.994-1.471c-0.28-0.168-0.994-0.406-2.115-0.729c-1.204-0.363-1.975-0.644-2.297-0.812
		c-0.771-0.448-1.148-1.093-1.148-1.934c0-0.868,0.363-1.555,1.106-2.031c0.658-0.448,1.513-0.672,2.549-0.672
		C750.421,54.469,751.317,54.721,751.962,55.24z"/>
</g>
<rect x="347" y="36.667" style="opacity:0.6;fill:#BBBBBB;enable-background:new    ;" width="138" height="50"/>
<rect x="345" y="34.667" style="fill:#FFFFFF;stroke:#E5E5E5;" width="138" height="50"/>
<path style="fill:#00A4FF;" d="M393,66.527l-11.89,6.83L369,66.517v-13.69l12-6.85l12,6.86l0,0l2-1.17l-14-8l-14,8v16l14.11,8
	l13.89-8v-12l-2,1.14V66.527z M388,55.977v-0.19l-7-4.05l-7,4v5.93l2-1.17l0,0l5.27-3l1,0.59l-6.11,3.52l1.84,1.17l0,0l2.14,1.29
	l0.8,0.49l0,0l5.06-2.89v1.1l-5.23,3l-4.85-2.84v-0.14l-1.92,1.06l7,4l7-4v-5.66l-2,1.11l-5.25,3l-1-0.59l6.25-3.47l-2-1.18l0,0
	l-2.71-1.62l-0.18-0.1l0,0v-0.07l-5.11,2.91v-1.17l5-2.86l5,2.52v0.41L388,55.977z"/>
<g style="enable-background:new    ;">
	<path style="fill:#444444;" d="M415.125,55.351c0.756,0.589,1.204,1.387,1.344,2.382h-1.106c-0.14-0.729-0.504-1.289-1.064-1.681
		c-0.546-0.379-1.205-0.561-1.989-0.561c-1.163,0-2.059,0.406-2.689,1.219c-0.588,0.756-0.883,1.751-0.883,2.997
		c0,1.247,0.28,2.241,0.869,2.97c0.616,0.771,1.499,1.163,2.675,1.163c0.798,0,1.471-0.21,2.031-0.631
		c0.588-0.448,0.995-1.106,1.19-1.975h1.107c-0.225,1.162-0.742,2.073-1.568,2.717c-0.771,0.603-1.696,0.911-2.76,0.911
		c-1.555,0-2.746-0.519-3.572-1.541c-0.756-0.925-1.121-2.129-1.121-3.614c0-1.484,0.378-2.703,1.148-3.655
		c0.84-1.065,2.045-1.583,3.586-1.583C413.43,54.469,414.368,54.763,415.125,55.351z"/>
	<path style="fill:#444444;" d="M422.459,54.666l3.936,10.001h-1.246l-1.064-2.802h-4.595l-1.064,2.802h-1.233l3.937-10.001H422.459
		z M423.719,60.899l-1.891-5.001h-0.056l-1.919,5.001H423.719z"/>
	<path style="fill:#444444;" d="M433.422,55.24c0.672,0.532,1.051,1.33,1.148,2.381h-1.135c-0.125-0.729-0.406-1.261-0.84-1.61
		c-0.448-0.364-1.078-0.533-1.891-0.533c-0.743,0-1.317,0.112-1.737,0.364c-0.477,0.28-0.715,0.701-0.715,1.275
		c0,0.504,0.28,0.91,0.854,1.219c0.252,0.14,0.869,0.35,1.835,0.63c1.317,0.393,2.186,0.715,2.605,0.967
		c0.827,0.504,1.247,1.204,1.247,2.115c0,0.868-0.351,1.568-1.051,2.073c-0.7,0.49-1.639,0.742-2.83,0.742
		c-1.176,0-2.101-0.252-2.773-0.757c-0.784-0.603-1.219-1.513-1.303-2.745h1.135c0.099,0.868,0.406,1.513,0.91,1.919
		c0.463,0.364,1.135,0.561,2.031,0.561c0.812,0,1.485-0.154,1.99-0.463c0.504-0.308,0.756-0.729,0.756-1.261
		c0-0.63-0.336-1.12-0.994-1.471c-0.281-0.168-0.995-0.406-2.115-0.729c-1.205-0.363-1.976-0.644-2.298-0.812
		c-0.771-0.448-1.148-1.093-1.148-1.934c0-0.868,0.364-1.555,1.106-2.031c0.658-0.448,1.514-0.672,2.55-0.672
		C431.881,54.469,432.777,54.721,433.422,55.24z"/>
</g>
<g style="enable-background:new    ;">
	<path style="fill:#878787;" d="M249.135,37.279c-0.21,0.336-0.434,0.644-0.658,0.938h5.701v0.77
		c-0.869,1.065-1.919,1.962-3.152,2.718c1.513,0.645,3.292,1.093,5.365,1.373l-0.434,0.896c-2.297-0.351-4.258-0.925-5.883-1.737
		c-1.709,0.854-3.726,1.471-6.037,1.85l-0.434-0.883c2.101-0.294,3.922-0.799,5.491-1.499c-0.84-0.504-1.583-1.093-2.227-1.751
		c-0.616,0.561-1.275,1.051-1.975,1.499l-0.645-0.784c1.569-0.911,2.872-2.115,3.894-3.614L249.135,37.279z M254.43,50.067h-0.966
		v-0.616h-6.892v0.616h-0.966V43.96h8.825V50.067z M249.527,46.286V44.8h-2.956v1.485H249.527z M249.527,48.583v-1.484h-2.956v1.484
		H249.527z M250.032,41.243c1.121-0.616,2.087-1.331,2.899-2.144h-5.183l-0.28,0.28C248.169,40.094,249.023,40.711,250.032,41.243z
		 M250.48,46.286h2.984V44.8h-2.984V46.286z M253.464,48.583v-1.484h-2.984v1.484H253.464z"/>
	<path style="fill:#878787;" d="M261.734,37.573c-0.364,1.12-0.84,2.185-1.4,3.18v9.343h-1.037v-7.746
		c-0.462,0.63-0.967,1.232-1.513,1.807l-0.322-1.064c1.541-1.736,2.647-3.712,3.348-5.939L261.734,37.573z M264.886,37.727
		c-0.84,2.395-1.933,4.216-3.306,5.477l-0.785-0.673c1.401-1.274,2.452-2.997,3.152-5.168L264.886,37.727z M262.407,43.68V42.7
		h6.191c0,2.969-0.07,4.818-0.21,5.519c-0.112,1.093-0.687,1.639-1.709,1.639c-0.294,0-0.784-0.014-1.485-0.042l-0.238-0.967
		c0.603,0.028,1.121,0.057,1.569,0.057c0.532,0,0.826-0.378,0.91-1.106c0.084-0.448,0.14-1.821,0.168-4.118h-2.367
		c-0.252,1.54-0.574,2.759-0.995,3.655c-0.504,0.98-1.26,1.877-2.241,2.662l-0.658-0.841c0.882-0.687,1.541-1.442,1.989-2.283
		c0.406-0.812,0.714-1.877,0.91-3.193H262.407z M270.461,42.195l-0.687,0.799c-1.709-1.373-2.899-3.152-3.572-5.323l0.868-0.477
		C267.716,39.225,268.851,40.892,270.461,42.195z"/>
</g>
<g style="enable-background:new    ;">
	<path style="fill:#878787;" d="M557.135,37.279c-0.209,0.336-0.434,0.644-0.658,0.938h5.701v0.77
		c-0.868,1.065-1.919,1.962-3.151,2.718c1.513,0.645,3.292,1.093,5.364,1.373l-0.434,0.896c-2.297-0.351-4.258-0.925-5.883-1.737
		c-1.709,0.854-3.727,1.471-6.037,1.85l-0.435-0.883c2.101-0.294,3.922-0.799,5.491-1.499c-0.841-0.504-1.584-1.093-2.228-1.751
		c-0.616,0.561-1.274,1.051-1.976,1.499l-0.645-0.784c1.569-0.911,2.872-2.115,3.895-3.614L557.135,37.279z M562.43,50.067h-0.966
		v-0.616h-6.892v0.616h-0.967V43.96h8.824V50.067z M557.527,46.286V44.8h-2.955v1.485H557.527z M557.527,48.583v-1.484h-2.955v1.484
		H557.527z M558.031,41.243c1.121-0.616,2.088-1.331,2.9-2.144h-5.184l-0.279,0.28C556.169,40.094,557.023,40.711,558.031,41.243z
		 M558.48,46.286h2.983V44.8h-2.983V46.286z M561.464,48.583v-1.484h-2.983v1.484H561.464z"/>
	<path style="fill:#878787;" d="M569.734,37.573c-0.364,1.12-0.84,2.185-1.4,3.18v9.343h-1.037v-7.746
		c-0.462,0.63-0.967,1.232-1.513,1.807l-0.321-1.064c1.54-1.736,2.646-3.712,3.348-5.939L569.734,37.573z M572.887,37.727
		c-0.841,2.395-1.934,4.216-3.307,5.477l-0.784-0.673c1.401-1.274,2.452-2.997,3.151-5.168L572.887,37.727z M570.406,43.68V42.7
		h6.191c0,2.969-0.069,4.818-0.209,5.519c-0.113,1.093-0.688,1.639-1.709,1.639c-0.295,0-0.785-0.014-1.485-0.042l-0.238-0.967
		c0.603,0.028,1.121,0.057,1.569,0.057c0.532,0,0.826-0.378,0.91-1.106c0.084-0.448,0.141-1.821,0.168-4.118h-2.367
		c-0.252,1.54-0.574,2.759-0.994,3.655c-0.504,0.98-1.261,1.877-2.242,2.662l-0.658-0.841c0.883-0.687,1.541-1.442,1.99-2.283
		c0.406-0.812,0.714-1.877,0.91-3.193H570.406z M578.461,42.195l-0.686,0.799c-1.709-1.373-2.9-3.152-3.572-5.323l0.868-0.477
		C575.716,39.225,576.851,40.892,578.461,42.195z"/>
</g>
<g>
	<rect x="25" y="0.667" style="fill-opacity:0;" width="781" height="122.499"/>
	<path style="fill:none;stroke:#BABABA;stroke-dasharray:5;" d="M25,0.667h781v122.5H25V0.667"/>
</g>
</svg>
