<?xml version="1.0" encoding="UTF-8"?>
<svg width="48px" height="48px" viewBox="0 0 48 48" version="1.1" xmlns="http://www.w3.org/2000/svg" xmlns:xlink="http://www.w3.org/1999/xlink">
    <!-- Generator: Sketch 54.1 (76490) - https://sketchapp.com -->
    <title>涉恐检测</title>
    <desc>Created with Sketch.</desc>
    <g id="页面1" stroke="none" stroke-width="1" fill="none" fill-rule="evenodd">
        <g id="图片内容安全" transform="translate(-229.000000, -518.000000)">
            <g id="涉恐检测" transform="translate(229.000000, 518.000000)">
                <rect id="矩形" x="0" y="0" width="48" height="48"></rect>
                <polygon id="路径" fill="#344966" fill-rule="nonzero" transform="translate(26.707013, 25.496160) rotate(45.000000) translate(-26.707013, -25.496160) " points="28.1961157 17.6485267 30.098882 15.7457604 23.3151435 15.6639861 23.3151435 35.3283334 25.3151435 35.3283334 25.3151435 17.6639861"></polygon>
                <polyline id="路径复制" stroke="#334966" stroke-width="2" transform="translate(15.156854, 28.414756) rotate(45.000000) translate(-15.156854, -28.414756) " points="10.863961 33.8442297 10.863961 22.9852814 19.449747 22.9852814"></polyline>
                <circle id="椭圆形" stroke="#334966" stroke-width="2" cx="16" cy="13.5" r="2.5"></circle>
                <rect id="矩形" stroke="#334966" stroke-width="2" fill="#FFFFFF" transform="translate(36.284126, 31.161338) rotate(35.000000) translate(-36.284126, -31.161338) " x="33.2841257" y="28.6613379" width="6" height="5"></rect>
                <circle id="椭圆形" stroke="#334966" stroke-width="2" fill="#00A4FF" cx="31.5" cy="38.5" r="8.5"></circle>
                <path d="M27,36 C28.593177,34.6666667 30.593177,34 33,34" id="路径-6" stroke="#FFFFFF" stroke-width="2" transform="translate(30.000000, 35.000000) rotate(-10.000000) translate(-30.000000, -35.000000) "></path>
                <path d="M38,29.2544434 C39.6962891,27.0848145 41.6962891,26 44,26" id="路径-2" stroke="#334966" stroke-width="2"></path>
                <polygon id="路径-4" fill="#334966" transform="translate(43.464102, 25.464102) scale(-1, 1) rotate(30.000000) translate(-43.464102, -25.464102) " points="44.3886391 26.7184446 42.8053157 29.3226092 42.8053157 27.1359478 39.9742296 27.8945351 42.1553245 26.1742597 40.1932075 26.0605194 42.0422089 25.3697374 39.4641016 23.852289 42.1553245 24.2540469 41.4755272 23.2496522 42.6909491 23.7312152 41.9263704 21.4641016 44.052457 23.5557877 44.5377426 21.7069681 45.0016857 23.5557877 46.8810818 21.9023829 45.7865766 24.8457554 47.4641016 25.4928243 45.6362956 26.0605194 47.4641016 29.4641016"></polygon>
                <path d="M4,40.9238281 L17,40.9238281 L17,43 L2,42.9238281 L2,12 L4,12 L4,40.9238281 Z M46,3.92382812 L1.04345703,3.92382812 L1.04345703,1.92382812 L48,1.92382812 L48,18.9873047 L46,18.9873047 L46,3.92382812 Z" id="形状" fill="#334966" fill-rule="nonzero"></path>
                <circle id="椭圆形" fill="#334966" cx="3" cy="3" r="3"></circle>
            </g>
        </g>
    </g>
</svg>