<?xml version="1.0" encoding="UTF-8"?>
<svg width="32px" height="32px" viewBox="0 0 32 32" version="1.1" xmlns="http://www.w3.org/2000/svg" xmlns:xlink="http://www.w3.org/1999/xlink">
    <!-- Generator: Sketch 52.6 (67491) - http://www.bohemiancoding.com/sketch -->
    <title>图像识别-32px</title>
    <desc>Created with Sketch.</desc>
    <g id="图像识别-32px" stroke="none" stroke-width="1" fill="none" fill-rule="evenodd">
        <rect id="Rectangle-Copy" fill="#444444" opacity="0" x="0" y="0" width="32" height="32"></rect>
        <path d="M12.4662879,21 L17.4352879,16 L21,20.1146458 L21,11 L11,11 L11,21 L12.4662879,21 Z M19.1208514,21 L17.3347847,18.9383939 L15.2859606,21 L19.1208514,21 Z M27.2675644,26 C27.6133738,25.4021986 28.2597176,25 29,25 C30.1045695,25 31,25.8954305 31,27 C31,28.1045695 30.1045695,29 29,29 C28.2597176,29 27.6133738,28.5978014 27.2675644,28 L2,28 L2,26 L2,11 L4,11 L4,26 L27.2675644,26 Z M4.73243561,4 L30,4 L30,6 L30,21 L28,21 L28,6 L4.73243561,6 C4.38662619,6.59780137 3.74028236,7 3,7 C1.8954305,7 1,6.1045695 1,5 C1,3.8954305 1.8954305,3 3,3 C3.74028236,3 4.38662619,3.40219863 4.73243561,4 Z M16,14.5 C16,15.329 15.329,16 14.5,16 C13.671,16 13,15.329 13,14.5 C13,13.671 13.671,13 14.5,13 C15.329,13 16,13.671 16,14.5 Z M9,23 L9,9 L23,9 L23,23 L9,23 Z" id="Combined-Shape" fill="#00A4FF"></path>
    </g>
</svg>