<?xml version="1.0" encoding="UTF-8"?>
<svg width="32px" height="32px" viewBox="0 0 32 32" version="1.1" xmlns="http://www.w3.org/2000/svg" xmlns:xlink="http://www.w3.org/1999/xlink">
    <!-- Generator: Sketch 52.6 (67491) - http://www.bohemiancoding.com/sketch -->
    <title>数据处理-32px</title>
    <desc>Created with Sketch.</desc>
    <g id="数据处理-32px" stroke="none" stroke-width="1" fill="none" fill-rule="evenodd">
        <rect id="Rectangle-Copy" fill="#444444" opacity="0" x="0" y="0" width="32" height="32"></rect>
        <g id="image-4" transform="translate(0.000000, 2.000000)" fill="#00A4FF" fill-rule="nonzero">
            <path d="M0,0.984 L0,2.994 L30.086,2.994 L30.086,21.053 L32.164,21.053 L32.164,0.984 L0,0.984 Z M2.078,6.98 L0,6.98 L0,27.016 L32.082,27.016 L32.082,25.016 L2.078,25.016 L2.078,6.98 Z M11.056,11.001 L26.133,11.001 L22.111,6.98 L22.111,8.99 L11.056,8.99 C9.448,8.99 8.04,10.397 8.04,12.005 C8.04,13.613 9.448,15.022 11.056,15.022 L14.071,15.022 L14.071,13.011 L11.056,13.011 C10.453,13.011 10.051,12.608 10.051,12.006 C10.051,11.404 10.454,11.001 11.056,11.001 Z M10.051,21.053 L10.051,19.041 L21.108,19.041 C22.715,19.041 24.125,17.635 24.125,16.025 C24.125,14.418 22.717,13.01 21.108,13.01 L18.092,13.01 L18.092,15.021 L21.108,15.021 C21.711,15.021 22.112,15.422 22.112,16.025 C22.112,16.629 21.711,17.031 21.108,17.031 L6.031,17.031 L10.051,21.053 Z" id="Shape"></path>
        </g>
    </g>
</svg>