<?xml version="1.0" encoding="UTF-8"?>
<svg width="32px" height="32px" viewBox="0 0 32 32" version="1.1" xmlns="http://www.w3.org/2000/svg" xmlns:xlink="http://www.w3.org/1999/xlink">
    <!-- Generator: Sketch 52.6 (67491) - http://www.bohemiancoding.com/sketch -->
    <title>pstn号码保护-32px</title>
    <desc>Created with Sketch.</desc>
    <g id="pstn号码保护-32px" stroke="none" stroke-width="1" fill="none" fill-rule="evenodd">
        <rect id="Rectangle-Copy" fill="#444444" opacity="0" x="0" y="0" width="32" height="32"></rect>
        <g id="Group" transform="translate(5.000000, 1.000000)" fill="#00A4FF">
            <polygon id="_复合路径_-path" points="22 24 22 0 0 0 0 30 22 30 22 28 2 28 2 2 20 2 20 24"></polygon>
            <polygon id="_复合路径_-path" points="13 24 13 22 9 22 9 24"></polygon>
            <path d="M7.25007353,13.892424 C4.11905067,10.8993325 3.04773398,6.86033243 5.21802613,4.7856484 C7.35029309,2.74731441 11.5027322,3.75381683 14.6141613,6.7281778 C17.7451842,9.72126938 18.8165008,13.7602694 16.6462087,15.8349535 C14.5139417,17.8732874 10.3615026,16.866785 7.25007353,13.892424 Z M8.63208478,12.4467253 C11.0690029,14.7762896 14.0926548,15.5091873 15.2641975,14.3892547 C16.3977149,13.3056722 15.6494744,10.4847103 13.2321501,8.17387657 C10.7952319,5.84431224 7.77158005,5.11141458 6.60003737,6.23134716 C5.46651988,7.31492969 6.21476041,10.1358916 8.63208478,12.4467253 Z" id="Oval-44" fill-rule="nonzero"></path>
            <path d="M7.25007353,6.7281778 C10.3615026,3.75381683 14.5139417,2.74731441 16.6462087,4.7856484 C18.8165008,6.86033243 17.7451842,10.8993325 14.6141613,13.892424 C11.5027322,16.866785 7.35029309,17.8732874 5.21802613,15.8349535 C3.04773398,13.7602694 4.11905067,9.72126938 7.25007353,6.7281778 Z M8.63208478,8.17387657 C6.21476041,10.4847103 5.46651988,13.3056722 6.60003737,14.3892547 C7.77158005,15.5091873 10.7952319,14.7762896 13.2321501,12.4467253 C15.6494744,10.1358916 16.3977149,7.31492969 15.2641975,6.23134716 C14.0926548,5.11141458 11.0690029,5.84431224 8.63208478,8.17387657 Z" id="Oval-44" fill-rule="nonzero"></path>
            <circle id="Oval-45" cx="11" cy="10" r="1"></circle>
        </g>
    </g>
</svg>