<?xml version="1.0" encoding="UTF-8"?>
<svg width="32px" height="32px" viewBox="0 0 32 32" version="1.1" xmlns="http://www.w3.org/2000/svg" xmlns:xlink="http://www.w3.org/1999/xlink">
    <!-- Generator: Sketch 52.6 (67491) - http://www.bohemiancoding.com/sketch -->
    <title>终端无边界访问控制系统-32px</title>
    <desc>Created with Sketch.</desc>
    <g id="终端无边界访问控制系统-32px" stroke="none" stroke-width="1" fill="none" fill-rule="evenodd">
        <rect id="Rectangle-Copy" fill="#444444" opacity="0" x="0" y="0" width="32" height="32"></rect>
        <path d="M7.8403,14.5499 L6.9643,14.8199 C3.3223,11.7139 2.5023,6.8759 2.4693,6.6719 L2.5113,6.3779 C2.6033,6.1829 4.9033,1.5829 16.1323,1.0469 C17.0543,1.0029 17.9643,0.9899 18.8353,1.0079 L19.2923,1.0209 C27.9083,1.3169 30.2103,4.7059 30.3023,4.8499 L30.3833,5.0839 L30.1873,5.5219 C29.9623,5.6929 29.7613,5.6219 29.4843,5.5219 C25.1763,3.9779 20.3433,4.3629 15.8773,6.6099 C10.5343,9.2979 8.2443,13.6959 7.8403,14.5499 Z M19.2353,3.0199 L18.7943,3.0079 C17.9673,2.9899 17.1033,3.0029 16.2283,3.0449 C11.6263,3.2639 8.3643,4.1899 6.2043,5.5369 C5.3653,6.0599 4.8413,6.5359 4.5563,6.8819 C4.5713,6.9459 4.5893,7.0159 4.6083,7.0899 C4.7573,7.6599 4.9573,8.2719 5.2143,8.8999 C5.6783,10.0349 6.2693,11.0799 6.9933,11.9839 C7.4023,11.3509 7.8933,10.6759 8.4733,9.9839 C10.1943,7.9269 12.3503,6.1459 14.9783,4.8229 C16.5893,4.0129 18.2483,3.4209 19.9203,3.0509 C19.6963,3.0379 19.4673,3.0279 19.2353,3.0199 Z M20.9424,22.6329 L21.1774,22.6249 L21.7204,23.1949 C21.0144,28.0599 17.2554,31.4729 17.0954,31.6159 L16.8194,31.7399 C16.7974,31.7419 16.7284,31.7489 16.6144,31.7489 C15.5904,31.7489 10.9654,31.2129 5.2724,22.2599 C4.7714,21.4719 4.3034,20.6809 3.8814,19.9089 L3.6704,19.5159 C-0.4606,11.7219 1.4114,8.1339 1.4934,7.9849 L2.4314,8.2349 C2.4304,8.2959 2.4334,14.5349 10.1344,19.5989 C14.7004,22.6009 19.9394,22.6529 20.9424,22.6329 Z M5.4324,18.5699 L5.6364,18.9489 C6.0374,19.6829 6.4824,20.4359 6.9604,21.1869 C9.3424,24.9329 11.6374,27.3369 13.7574,28.6679 C14.7714,29.3039 15.5854,29.6099 16.1824,29.7099 C16.2264,29.6639 16.2724,29.6149 16.3204,29.5639 C16.7374,29.1129 17.1634,28.5959 17.5714,28.0199 C18.3424,26.9309 18.9514,25.7789 19.3424,24.5889 C18.4844,24.5289 17.5254,24.4109 16.4974,24.2129 C13.8404,23.7019 11.3004,22.7589 9.0354,21.2699 C7.5684,20.3059 6.3034,19.2679 5.2254,18.1729 C5.2934,18.3049 5.3614,18.4369 5.4324,18.5699 Z M21.5,7.2281 L21.713,6.3371 C26.615,4.6041 30.748,6.2801 30.921,6.3531 L31.136,6.5241 C31.254,6.6891 33.96,10.6821 29.148,20.8341 C28.599,21.9931 28.021,23.0861 27.428,24.0851 L27.104,24.6201 C22.744,31.6601 18.812,31.8771 18.647,31.8831 L18.324,30.9871 C18.378,30.9461 23.681,26.7351 24.275,18.0461 C24.684,12.0761 22.035,7.9861 21.5,7.2281 Z M25.393,23.5841 L25.707,23.0641 C26.266,22.1241 26.815,21.0861 27.341,19.9781 C29.321,15.7991 30.091,12.5051 29.992,10.0131 C29.955,9.0681 29.814,8.4191 29.678,8.0371 C29.636,8.0241 29.593,8.0121 29.547,7.9991 C29.041,7.8531 28.468,7.7321 27.839,7.6521 C26.632,7.4991 25.391,7.5181 24.142,7.7501 C24.482,8.4101 24.816,9.1621 25.121,9.9991 C26.028,12.4951 26.472,15.2401 26.271,18.1831 C26.127,20.2741 25.732,22.2141 25.13,24.0001 C25.218,23.8641 25.305,23.7261 25.393,23.5841 Z M17.9395,10.5065 C16.1255,11.0845 14.0245,12.6575 12.0575,15.7365 C12.0455,15.7555 12.0495,15.7725 12.0645,15.7835 C14.6465,17.5895 17.2065,18.3165 19.3005,18.3795 L19.3365,18.3795 C19.3475,18.3785 19.3535,18.3705 19.3555,18.3525 C19.8365,14.4855 19.1235,11.9635 17.9585,10.5135 C17.9515,10.5045 17.9495,10.5035 17.9395,10.5065 L17.6355,9.5535 L17.9395,10.5065 Z M19.5185,9.2615 C21.0215,11.1325 21.8885,14.1955 21.3405,18.5995 C21.2145,19.6185 20.3575,20.3805 19.3335,20.3805 C19.2935,20.3795 19.2935,20.3795 19.2775,20.3785 L19.2715,20.3785 C16.7825,20.3045 13.8475,19.4715 10.9195,17.4235 C10.0225,16.7985 9.7835,15.5805 10.3725,14.6595 C12.5955,11.1795 15.0815,9.3175 17.3335,8.6005 C18.1315,8.3465 18.9955,8.6085 19.5185,9.2615 Z" id="Combined-Shape" fill="#00A4FF"></path>
    </g>
</svg>