<?xml version="1.0" encoding="UTF-8"?>
<svg width="830px" height="420px" viewBox="0 0 830 420" version="1.1" xmlns="http://www.w3.org/2000/svg" xmlns:xlink="http://www.w3.org/1999/xlink">
    <!-- Generator: Sketch 52.5 (67469) - http://www.bohemiancoding.com/sketch -->
    <title>iPhone 8 Copy 8</title>
    <desc>Created with Sketch.</desc>
    <defs>
        <linearGradient x1="50%" y1="0%" x2="50%" y2="100%" id="linearGradient-1">
            <stop stop-color="#C5EDF4" offset="0%"></stop>
            <stop stop-color="#C5DCFA" offset="100%"></stop>
        </linearGradient>
        <linearGradient x1="18.0596459%" y1="9.05782445%" x2="82.7933247%" y2="88.7140121%" id="linearGradient-2">
            <stop stop-color="#1FBDDF" offset="0%"></stop>
            <stop stop-color="#1783F6" offset="100%"></stop>
        </linearGradient>
        <linearGradient x1="100%" y1="-2.48949813e-15%" x2="0%" y2="-2.48949813e-15%" id="linearGradient-3">
            <stop stop-color="#1783F6" offset="0%"></stop>
            <stop stop-color="#1FBCDF" offset="100%"></stop>
        </linearGradient>
    </defs>
    <g id="iPhone-8-Copy-8" stroke="none" stroke-width="1" fill="none" fill-rule="evenodd">
        <path d="M327.627887,81.5466809 L332.807575,81.5466809 L403.6982,81.5466809 L403.6982,298.195311 L327.627887,298.195311" id="Path-Copy" stroke="#E5E5E5" stroke-width="2" stroke-dasharray="8,4"></path>
        <g id="Group-33-Copy-2" transform="translate(199.000000, 249.762402)">
            <polyline id="Shape-Copy-13" stroke="#1FBDDF" stroke-width="2" fill-rule="nonzero" points="0.167506836 10.5736785 0.167506836 0.133602061 10.6075833 0.133602061"></polyline>
            <polyline id="Shape-Copy-14" stroke="#1DACE6" stroke-width="2" fill-rule="nonzero" transform="translate(5.387545, 99.325549) scale(1, -1) translate(-5.387545, -99.325549) " points="0.167506836 104.545587 0.167506836 94.1055103 10.6075833 94.1055103"></polyline>
            <polyline id="Shape-Copy-15" stroke="#1A93F0" stroke-width="2" fill-rule="nonzero" transform="translate(112.417341, 5.353640) scale(-1, 1) translate(-112.417341, -5.353640) " points="107.197302 10.5736785 107.197302 0.133602061 117.637379 0.133602061"></polyline>
            <polyline id="Shape-Copy-16" stroke="#1783F6" stroke-width="2" fill-rule="nonzero" transform="translate(112.417341, 99.325549) scale(-1, -1) translate(-112.417341, -99.325549) " points="107.197302 104.545587 107.197302 94.1055103 117.637379 94.1055103"></polyline>
            <path d="M15.7784048,25.0111959 C15.1735252,25.0111959 14.6831733,25.5015477 14.6831733,26.1064273 L14.6831733,78.5774905 C14.6831733,79.1823701 15.1735252,79.672722 15.7784048,79.672722 L102.131822,79.672722 C102.736702,79.672722 103.227053,79.1823701 103.227053,78.5774905 L103.227053,26.1064273 C103.227053,25.5015477 102.736702,25.0111959 102.131822,25.0111959 L15.7784048,25.0111959 Z" id="Rectangle-Copy-5" fill="url(#linearGradient-1)"></path>
            <path d="M10.9597691,20.4853723 C10.2547248,20.4853723 9.68317339,21.0569237 9.68317339,21.7619681 L9.68317339,82.9219497 C9.68317339,83.6269941 10.2547248,84.1985455 10.9597691,84.1985455 L106.950458,84.1985455 C107.655502,84.1985455 108.227053,83.6269941 108.227053,82.9219497 L108.227053,21.7619681 C108.227053,21.0569237 107.655502,20.4853723 106.950458,20.4853723 L10.9597691,20.4853723 Z M10.9597691,19.6343085 L106.950458,19.6343085 C108.125531,19.6343085 109.078117,20.5868941 109.078117,21.7619681 L109.078117,82.9219497 C109.078117,84.0970237 108.125531,85.0496093 106.950458,85.0496093 L10.9597691,85.0496093 C9.7846952,85.0496093 8.83210956,84.0970237 8.83210956,82.9219497 L8.83210956,21.7619681 C8.83210956,20.5868941 9.7846952,19.6343085 10.9597691,19.6343085 Z" id="Rectangle-Copy-5" fill="url(#linearGradient-2)" fill-rule="nonzero"></path>
        </g>
        <text id="客户预留照片" font-family="PingFangSC-Medium, PingFang SC" font-size="14" font-weight="400" letter-spacing="-0.00921052" fill="#666666">
            <tspan x="216" y="398.162207">客户预留照片</tspan>
        </text>
        <text id="活体检测自拍视频-copy-3" font-family="PingFangSC-Medium, PingFang SC" font-size="14" font-weight="400" letter-spacing="-0.00921052" fill="#666666">
            <tspan x="202" y="174.300098">活体检测自拍视频</tspan>
        </text>
        <text id="核身结果" font-family="PingFangSC-Medium, PingFang SC" font-size="14" font-weight="400" letter-spacing="-0.00921052" fill="#666666">
            <tspan x="542.441367" y="279.491504">核身结果</tspan>
        </text>
        <g id="Group-6" transform="translate(240.421875, 281.247431)" fill="#FFFFFF" fill-rule="nonzero">
            <path d="M20.1844531,42.1268392 L19.4512603,30.0273722 L17.4674636,30.0273722 L16.6923023,42.1268392 L1.11152503,42.1268392 L0.54516778,40.1674173 C-0.781935135,35.5760493 1.6073913,30.7296802 6.05748824,28.986551 L12.6553529,26.4021285 C13.4134611,26.1051731 13.9122456,25.3741114 13.9122456,24.5599182 L13.9122308,24.3240118 C13.9122308,23.7363265 13.6537541,23.178384 13.2054553,22.798381 C12.9942713,22.6193697 12.7625304,22.3844023 12.5102325,22.0934789 C11.6498502,21.1013763 12.0048011,18.9197418 11.5253146,18.5898709 C11.0458281,18.26 9.53894043,17.6703177 9.25402832,17.1767874 C9.06408691,16.8477673 8.82650421,16.1370666 8.54128022,15.0446853 L8.54128022,8.20449715 C8.61178446,7.74399573 8.70596858,7.29066004 8.82383256,6.84449008 C9.00062854,6.17523515 9.3953617,5.3441913 9.642456,5.0856728 C9.80718554,4.91332714 10.0470318,4.20697982 10.3619946,2.96663086 L11.7367038,2.96663086 L13.8942078,1.17750568 L14.840579,0.328860285 C16.4657182,0.152434949 17.812444,0.0642222815 18.8807562,0.0642222815 C20.4832246,0.0642222815 21.220554,0.124142651 23.3561901,0.972788051 C25.4918262,1.82143345 28.3464128,4.77717556 28.7826282,5.42103763 C29.2188436,6.0648997 29.5307062,10.5582878 29.5307062,11.6962807 C29.5307062,12.4549426 29.3622291,13.5710774 29.0252748,15.0446853 L29.0095215,15.0446853 L28.655004,16.6659946 C28.3406176,17.1697893 27.9599277,17.6163841 27.5129341,18.0057788 C27.5359331,17.9857434 27.5589461,17.9654902 27.5819732,17.9450193 C26.7648496,18.6714506 26.2083484,19.6456886 25.9976994,20.7185449 C25.8528819,21.4561145 25.6342621,21.9386219 25.3418399,22.1660668 C25.1042519,22.350862 24.8767356,22.543122 24.6592908,22.7428468 C24.2469349,23.1216154 24.0122255,23.6558896 24.0122255,24.215803 L24.0122255,24.6507254 C24.0122255,25.4125188 24.4721241,26.098947 25.176656,26.3887125 L31.4930056,28.986551 C35.6841166,30.7103045 37.7882042,35.4169503 36.2777471,39.6895674 L35.416122,42.1268392 L20.1844531,42.1268392 Z M16.6665074,26.9910774 L17.5202183,29.5213231 L19.4101191,29.5213231 L20.2088514,26.9910774 L16.6665074,26.9910774 Z" id="Combined-Shape"></path>
        </g>
        <g id="Group-21-Copy-3" transform="translate(207.361702, 16.837793)">
            <path d="M1.78935286,1.05321642 C1.55433808,1.05321642 1.36382095,1.24373355 1.36382095,1.47874834 L1.36382095,118.074493 C1.36382095,118.309508 1.55433808,118.500025 1.78935286,118.500025 L99.6616933,118.500025 C99.8967081,118.500025 100.087225,118.309508 100.087225,118.074493 L100.087225,1.47874834 C100.087225,1.24373355 99.8967081,1.05321642 99.6616933,1.05321642 L1.78935286,1.05321642 Z M1.78935286,0.202152593 L99.6616933,0.202152593 C100.366738,0.202152593 100.938289,0.773703976 100.938289,1.47874834 L100.938289,118.074493 C100.938289,118.779537 100.366738,119.351089 99.6616933,119.351089 L1.78935286,119.351089 C1.0843085,119.351089 0.512757118,118.779537 0.512757118,118.074493 L0.512757118,1.47874834 C0.512757118,0.773703976 1.0843085,0.202152593 1.78935286,0.202152593 Z" id="Rectangle" fill="url(#linearGradient-2)" fill-rule="nonzero"></path>
            <rect id="Rectangle" fill="url(#linearGradient-1)" x="5.6191401" y="4.88300366" width="90.212766" height="109.787234" rx="2"></rect>
            <rect id="Rectangle-Copy-4" fill="#23CBDD" fill-rule="nonzero" x="11.8261719" y="6.99757314" width="2.55319149" height="2.55319149"></rect>
            <rect id="Rectangle-Copy-8" fill="#23CBDD" fill-rule="nonzero" x="6.30984043" y="6.99757314" width="2.55319149" height="2.55319149"></rect>
            <rect id="Rectangle-Copy-9" fill="#23CBDD" fill-rule="nonzero" x="17.4027593" y="6.99757314" width="2.55319149" height="2.55319149"></rect>
            <polyline id="Path-8" stroke="#1FBDDF" stroke-width="2" fill-rule="nonzero" points="34.7997008 26.7580037 24.6426197 26.7580037 24.6426197 36.6050781"></polyline>
            <polyline id="Path-8-Copy-2" stroke="#1DACE6" stroke-width="2" fill-rule="nonzero" transform="translate(29.721160, 75.690849) scale(1, -1) translate(-29.721160, -75.690849) " points="34.7997008 70.7673122 24.6426197 70.7673122 24.6426197 80.6143866"></polyline>
            <polyline id="Path-8-Copy" stroke="#1A93F0" stroke-width="2" fill-rule="nonzero" transform="translate(73.555934, 31.681541) scale(-1, 1) translate(-73.555934, -31.681541) " points="78.6344747 26.7580037 68.4773936 26.7580037 68.4773936 36.6050781"></polyline>
            <polyline id="Path-8-Copy-3" stroke="#1783F6" stroke-width="2" fill-rule="nonzero" transform="translate(73.555934, 75.690849) scale(-1, -1) translate(-73.555934, -75.690849) " points="78.6344747 70.7673122 68.4773936 70.7673122 68.4773936 80.6143866"></polyline>
            <polygon id="Path-9" fill="url(#linearGradient-3)" fill-rule="nonzero" points="17.4027593 65.5256233 17.4027593 63.5256233 85.887633 63.5256233 85.887633 65.5256233"></polygon>
            <path d="M44.6218418,37.0501413 L43.0302527,38.477377 L39.4018035,41.4862937 L37.0898437,41.4862937 C36.5601452,43.572289 36.1567764,44.7602105 35.8797374,45.0500582 C35.4641789,45.4848297 34.8003241,46.8824634 34.502992,48.0080037 C34.3047706,48.7583638 34.1463736,49.5207752 34.0278009,50.2952377 L34.0278009,61.7989362 L68.4773936,61.7989362 C69.0440769,59.3206504 69.3274186,57.443556 69.3274186,56.1676528 C69.3274186,54.2537981 68.8029339,46.6969034 68.0693152,45.6140684 C67.3356964,44.5312334 62.5349069,39.5603225 58.9432347,38.1330868 C55.3515625,36.7058511 54.1115359,36.6050781 51.4165351,36.6050781 C49.6198679,36.6050781 47.3549701,36.7534325 44.6218418,37.0501413 Z" id="Path-10" fill="#FFFFFF" fill-rule="nonzero"></path>
            <path d="M53.6090677,110.351338 L52.375998,90.0026845 L49.0396865,90.0026845 L47.7360349,110.351338 L21.5325798,110.351338 L19.9328344,104.816711 C18.0676398,98.3637112 21.4257506,91.5523169 27.680199,89.1024127 L40.9467701,83.9058185 C42.221742,83.4064045 43.0605884,82.176919 43.0605884,80.8076243 L43.0606081,79.7476561 C43.0606081,79.1017927 42.748717,78.4956816 42.2231802,78.1202475 C41.7785257,77.8025942 41.2717022,77.3157163 40.7027094,76.6596136 C39.2557347,74.9911142 39.8526845,71.3220828 39.0462932,70.7673122 C38.508699,70.3974651 36.9459912,69.3189522 34.3581699,67.5317736 L67.8546792,67.5317736 C67.3259502,68.379046 66.6857131,69.1301205 65.9339678,69.7849972 C65.7515975,69.9438675 65.5697531,70.094595 65.3884345,70.2371796 C64.3657805,71.0413719 63.6968434,72.2124955 63.5236541,73.5018953 C63.2922181,75.224943 62.8785544,76.3182081 62.2826629,76.7816905 C61.6979493,77.2364787 61.1495074,77.7181507 60.6373372,78.2267064 C60.2592045,78.6021826 60.0465426,79.1130337 60.0465426,79.645919 L60.0465426,80.9603421 C60.0465426,82.2415118 60.8199914,83.3959336 62.0048597,83.8832557 L73.7768624,88.7249386 C80.1815052,91.359091 83.3968648,98.551548 81.0886611,105.080744 L79.2253989,110.351338 L53.6090677,110.351338 Z M47.6926535,84.8963015 L49.1284082,89.1516207 L52.3068075,89.1516207 L53.6501004,84.8963015 L47.6926535,84.8963015 Z" id="Combined-Shape" fill="#FFFFFF" fill-rule="nonzero"></path>
            <path d="M0.938289033,16.2343999 L101.102216,16.2343999" id="Path-7" stroke="url(#linearGradient-3)" fill-rule="nonzero"></path>
        </g>
        <g id="Group-31-Copy-2" transform="translate(510.441367, 122.091699)">
            <path d="M60.0485539,119.517857 C27.1481624,119.517857 0.477125369,92.8468201 0.477125369,59.9464286 C0.477125369,27.046037 27.1481624,0.375 60.0485539,0.375 C92.9489455,0.375 119.619983,27.046037 119.619983,59.9464286 C119.619983,92.8468201 92.9489455,119.517857 60.0485539,119.517857 Z M60.0485539,118.660714 C92.4755585,118.660714 118.76284,92.3734332 118.76284,59.9464286 C118.76284,27.519424 92.4755585,1.23214286 60.0485539,1.23214286 C27.6215493,1.23214286 1.33426823,27.519424 1.33426823,59.9464286 C1.33426823,92.3734332 27.6215493,118.660714 60.0485539,118.660714 Z" id="Oval" fill="url(#linearGradient-2)" fill-rule="nonzero"></path>
            <circle id="Oval" fill="url(#linearGradient-1)" cx="60.3833754" cy="60.7332589" r="51.8571429"></circle>
            <path d="M60.3833754,104.75014 C36.0735235,104.75014 16.3664948,85.0431108 16.3664948,60.7332589 C16.3664948,36.4234071 36.0735235,16.7163783 60.3833754,16.7163783 C84.6932272,16.7163783 104.400256,36.4234071 104.400256,60.7332589 C104.400256,85.0431108 84.6932272,104.75014 60.3833754,104.75014 Z M60.3833754,103.892997 C84.2198403,103.892997 103.543113,84.5697239 103.543113,60.7332589 C103.543113,36.896794 84.2198403,17.5735212 60.3833754,17.5735212 C36.5469104,17.5735212 17.2236376,36.896794 17.2236376,60.7332589 C17.2236376,84.5697239 36.5469104,103.892997 60.3833754,103.892997 Z" id="Oval-Copy-9" fill="url(#linearGradient-2)" fill-rule="nonzero"></path>
            <path d="M43.8348263,41.7821904 L78.5184133,41.7821904 L78.5184133,64.5742618 L77.9632795,65.9914986 C75.0424786,73.4482004 68.850575,79.1444479 61.1766198,81.4344023 L61.1766198,81.4344023 C53.3729258,79.1507347 47.1027087,73.3214191 44.2571257,65.7046328 L43.8348263,64.5742618 L43.8348263,41.7821904 Z" id="Rectangle-45-Copy-2" fill="#FFFFFF"></path>
            <polyline id="Path-12" stroke="url(#linearGradient-3)" stroke-width="2" fill-rule="nonzero" points="53.0315339 58.2945033 59.0386488 63.8408203 67.7888076 54.7924123"></polyline>
            <path d="M43.8348263,64.4010573 L44.2029213,65.3863393 C46.9243409,72.6707766 52.8857127,78.264137 60.3171222,80.5209607 C67.6260062,78.2596311 73.5143176,72.7928256 76.3080362,65.6605607 L76.8041276,64.3940569 L76.8041276,42.6210124 L43.8348263,42.6210124 L43.8348263,64.4010573 Z M78.5184133,40.9067267 L78.5184133,64.7178251 L77.9042372,66.2857949 C74.8872161,73.9881431 68.4913324,79.8720425 60.5645737,82.2374348 L60.321847,82.3098659 L60.0787396,82.2387232 C52.0157444,79.8791738 45.5371804,73.8561617 42.5970443,65.9862847 L42.1205405,64.7108246 L42.1205405,40.9067267 L78.5184133,40.9067267 Z" id="Rectangle-45-Copy" fill="url(#linearGradient-2)" fill-rule="nonzero"></path>
        </g>
        <text id="人脸对比-copy" font-family="PingFangSC-Semibold, PingFang SC" font-size="16" font-weight="500" fill="#00A4FF">
            <tspan x="418.465022" y="176.517686">人脸对比</tspan>
        </text>
        <polygon id="Rectangle-14-Copy-15" fill="#E5E5E5" points="489.276669 186.517686 496.276669 190.517686 489.276669 194.517686"></polygon>
        <path d="M412.821689,190.517686 L488.108356,190.517686" id="Path-15-Copy-17" stroke="#E5E5E5" stroke-width="2" stroke-dasharray="8,4"></path>
    </g>
</svg>