<?xml version="1.0" encoding="UTF-8"?>
<svg width="48px" height="48px" viewBox="0 0 48 48" version="1.1" xmlns="http://www.w3.org/2000/svg" xmlns:xlink="http://www.w3.org/1999/xlink">
    <!-- Generator: Sketch 51.2 (57519) - http://www.bohemiancoding.com/sketch -->
    <title>用户审核-48x48</title>
    <desc>Created with Sketch.</desc>
    <defs></defs>
    <g id="用户审核-48x48" stroke="none" stroke-width="1" fill="none" fill-rule="evenodd">
        <path d="M36,2 L46,2 L46,12 L44,12 L44,4 L36,4 L36,2 Z M12,2 L12,4 L4,4 L4,12 L2,12 L2,2 L12,2 Z M36,45 L36,43 L44,43 L44,35 L46,35 L46,45 L36,45 Z M12,46 L2,46 L2,36 L4,36 L4,44 L12,44 L12,46 Z" id="Combined-Shape" fill="#334966" fill-rule="nonzero"></path>
        <rect id="Rectangle-37" fill="#00A4FF" x="2" y="16" width="44" height="16"></rect>
        <path d="M36,37 L12,37 L12,35.063 C12,33.417 12.987,31.959 14.515,31.349 L20.743,28.857 L22,28.354 L22,27 L26,27 L26,28.354 L27.257,28.857 L33.485,31.349 C35.013,31.959 36,33.417 36,35.063 L36,37 Z M18,17 C18,10.039 21.759,9 24,9 C26.241,9 30,10.039 30,17 C30,21.121 26.62,25 24,25 C21.38,25 18,21.121 18,17 Z M34.229,29.491 L28,27 L28,25.388 C30.294,23.514 32,20.262 32,17 C32,12 30,7 24,7 C18,7 16,12 16,17 C16,20.262 17.706,23.514 20,25.388 L20,27 L13.771,29.491 C11.494,30.402 10,32.608 10,35.063 L10,39 L38,39 L38,35.063 C38,32.608 36.506,30.402 34.229,29.491 Z" id="Fill-1" fill="#334966"></path>
    </g>
</svg>