<?xml version="1.0" encoding="utf-8"?>
<!-- Generator: Adobe Illustrator 23.0.2, SVG Export Plug-In . SVG Version: 6.00 Build 0)  -->
<svg version="1.1" id="svgwrapper_svg" xmlns="http://www.w3.org/2000/svg" xmlns:xlink="http://www.w3.org/1999/xlink" x="0px"
	 y="0px" width="830px" height="500px" viewBox="0 0 830 500" style="enable-background:new 0 0 830 500;" xml:space="preserve">
<g>
	<g>
		<rect x="138" y="110" style="fill:#EAEBEC;" width="646" height="358.5"/>
	</g>
	<g id="RectEndPoint15_4_" transform="translate(82,215)">
		<g>
			<rect x="-34" y="13.5" style="opacity:0.6;fill:#BBBBBB;enable-background:new    ;" width="50" height="160"/>
			<g>
				<rect x="-35.5" y="12" style="fill:#FFFFFF;" width="49" height="159"/>
				<path style="fill:#E5E5E5;" d="M13,12.5v158h-48v-158H13 M14,11.5h-50v160h50V11.5L14,11.5z"/>
			</g>
		</g>
		<g transform="translate(20 9)">
			<g style="enable-background:new    ;">
				<path style="fill:#444444;" d="M-35.7,52.8l-0.3-0.8c2.1,0,3.8-0.2,5.2-0.7l0.4,0.8c-0.6,0.2-1.4,0.4-2.2,0.5V55h0.6
					c0.3-0.6,0.5-1.2,0.7-1.9l0.8,0.3c-0.2,0.6-0.4,1.1-0.7,1.6h1v0.9h-2.4v2h-0.9v-2h-0.1c-0.5,1.1-1.3,2-2.5,2.7l-0.5-0.8
					c1-0.5,1.7-1.2,2.2-1.9H-36V55h1.2c-0.2-0.5-0.4-0.9-0.6-1.3l0.7-0.3c0.2,0.4,0.4,1,0.6,1.6h0.7v-2.2
					C-34.1,52.8-34.9,52.8-35.7,52.8z M-34.7,63.5V64h-0.9v-5.7h5.1V64h-0.9v-0.6H-34.7z M-34.7,59.1v1.3h1.3v-1.3H-34.7z
					 M-34.7,61.2v1.5h1.3v-1.5H-34.7z M-31.4,60.4v-1.3h-1.2v1.3H-31.4z M-31.4,62.7v-1.5h-1.2v1.5H-31.4z M-29.8,57.5l-0.4,0.7
					c-0.6-0.5-1.3-1-1.9-1.3l0.4-0.6C-31,56.6-30.3,57.1-29.8,57.5z M-29.6,63l1.2,0c0.3,0,0.4-0.2,0.4-0.5v-3.2
					c-0.5,0.7-1,1.3-1.7,1.9l-0.4-0.9c0.8-0.6,1.5-1.4,2.1-2.3v-5.2h-1.8v-0.8h2.7v10.9c0,0.7-0.4,1.1-1.1,1.1h-1.1L-29.6,63z
					 M-28.4,57.2l-0.6,0.3c-0.3-1.2-0.6-2.3-0.9-3.2l0.7-0.2C-29,55-28.7,56.1-28.4,57.2z M-25.3,57l-0.6,0.3
					c-0.3-1.2-0.5-2.3-0.8-3.2l0.7-0.2C-25.8,54.9-25.6,55.9-25.3,57z M-26.5,63l1.2,0c0.3,0,0.4-0.2,0.4-0.6v-3.5
					c-0.4,0.7-0.9,1.4-1.5,1.9l-0.4-0.9c0.7-0.7,1.3-1.5,1.9-2.4v-4.7h-1.8v-0.9h2.6v10.8c0,0.8-0.4,1.2-1.1,1.2h-1.2L-26.5,63z"/>
				<path style="fill:#444444;" d="M-33.4,72.3v6.1c0.4-0.4,0.9-0.9,1.4-1.4l0.3,1.1c-0.8,0.9-1.6,1.7-2.5,2.3l-0.4-0.9
					c0.2-0.2,0.3-0.4,0.3-0.6v-5.5h-2v-1H-33.4z M-32.3,70.4l-0.7,0.7c-0.6-0.7-1.4-1.4-2.4-2.2l0.7-0.7
					C-33.8,68.9-33,69.6-32.3,70.4z M-24.6,68.6v0.8c-0.4,1-1.1,1.9-2.2,2.6c0.9,0.4,2,0.7,3.3,0.9l-0.4,0.9
					c-1.6-0.2-2.9-0.6-3.9-1.2c-1.1,0.6-2.4,1-4,1.4l-0.5-0.8c1.4-0.3,2.6-0.7,3.6-1.1c-0.8-0.7-1.4-1.5-1.8-2.5h-0.9v-0.9H-24.6z
					 M-28.3,75.1v-1.3h1v1.3h2.8V76h-2.8v1.6h3.5v1h-3.5v2.4h-1v-2.4h-3.2v-1h3.2V76h-2.6v-0.9H-28.3z M-27.8,71.6
					c1-0.6,1.6-1.3,2.1-2h-3.8C-29.2,70.3-28.6,71-27.8,71.6z"/>
				<path style="fill:#444444;" d="M-33.5,97.7h-1v-7c-0.4,1.3-1,2.5-1.7,3.6l-0.4-1.1c1-1.3,1.7-2.9,2.1-4.6v-0.1H-36v-0.9h1.6
					v-2.7h1v2.7h1.5v0.9h-1.5v0.9c0.6,0.7,1.2,1.6,1.9,2.5l-0.5,0.8c-0.5-0.9-1-1.7-1.3-2.2V97.7z M-28.8,95.8
					c-0.6,0.8-1.8,1.4-3.4,1.9l-0.4-0.8c1.4-0.4,2.4-0.9,3-1.6c0.1-0.2,0.3-0.4,0.4-0.6h-3.3v-0.9h3.7c0.1-0.3,0.2-0.7,0.3-1.1h-2.9
					v-4.2h6.7v4.2h-2.9c-0.1,0.4-0.1,0.7-0.2,1.1h4v0.9h-3.5c0.8,1,2,1.7,3.7,2.3l-0.7,0.8c-1.8-0.8-3.1-1.8-3.9-2.9
					C-28.3,95.2-28.6,95.5-28.8,95.8z M-30.1,86v-1.1h0.9V86h2.3v-1.1h1V86h2.2v0.9h-2.2v1h-1v-1h-2.3v1h-0.9v-1h-2V86H-30.1z
					 M-25.6,90.1v-0.9h-4.9v0.9H-25.6z M-25.6,90.9h-4.9v1h4.9V90.9z"/>
				<path style="fill:#444444;" d="M-30.4,110.7v-1.2h1v1.2h4.8v0.9h-4.8v1.6h5.6v0.9h-12.3v-0.9h5.7v-1.6h-4.9v-0.9H-30.4z
					 M-29.1,102.3v0.9h-1.4v2.1h1.7v0.9h-1.7v3.1h-1v-3.1h-1.8c-0.2,1.4-0.7,2.5-1.6,3.2l-0.8-0.7c0.8-0.6,1.2-1.4,1.4-2.6h-1.7
					v-0.9h1.8v-2.1h-1.4v-0.9H-29.1z M-33.3,105.3h1.8v-2.1h-1.8V105.3z M-27,102.6v4.8h-1v-4.8H-27z M-27.5,109.4l-0.2-1
					c0.6,0,1.2,0.1,1.8,0.1c0.3,0,0.5-0.2,0.5-0.6v-6.1h1v6.3c0,0.9-0.4,1.3-1.1,1.3H-27.5z"/>
			</g>
		</g>
	</g>
	<rect x="150" y="380.5" style="fill:#CEE3FF;" width="622" height="76"/>
	<g>
		<g>
			<rect x="622" y="394.5" style="opacity:0.6;fill:#BBBBBB;enable-background:new    ;" width="138" height="50"/>
			<g>
				<rect x="620.5" y="393" style="fill:#FFFFFF;" width="137" height="49"/>
				<path style="fill:#E5E5E5;" d="M757,393.5v48H621v-48H757 M758,392.5H620v50h138V392.5L758,392.5z"/>
			</g>
		</g>
		<g>
			<g transform="translate(20 9)">
				<g style="enable-background:new    ;">
					<path style="fill:#444444;" d="M649.5,414.9l-0.8-0.7c0.6-1.3,0.8-2.9,0.9-4.8v-6.7h4.1v10.9c0,0.8-0.4,1.3-1.2,1.3h-1.1
						l-0.2-0.9c0.4,0,0.7,0.1,1.1,0.1c0.4,0,0.5-0.3,0.5-0.8v-3.2h-2.3C650.5,412.1,650.1,413.7,649.5,414.9z M652.8,403.6h-2.3v2.4
						h2.3V403.6z M650.5,409.2h2.3v-2.3h-2.3V409.2z M655.9,414.9h-1v-12.3h5.7c0,1.7-0.1,2.9-0.3,3.4c-0.2,0.6-0.7,0.9-1.6,0.9
						h-1.1l-0.3-0.9c0.2,0,0.5,0,0.9,0c0.3,0,0.6,0,0.7-0.1c0.2-0.1,0.3-0.2,0.4-0.4c0.1-0.3,0.2-1,0.2-2.1h-3.7v4.2h4.8v0.9
						c-0.3,1.4-0.7,2.7-1.4,3.7c0.6,0.6,1.4,1.2,2.2,1.7l-0.5,0.9c-0.9-0.5-1.7-1.1-2.3-1.7c-0.6,0.7-1.3,1.3-2.2,1.7l-0.5-0.8
						c0.8-0.4,1.5-1,2-1.7c-0.9-1.1-1.5-2.3-1.8-3.7h-0.3V414.9z M658.6,411.6c0.5-0.8,0.9-1.8,1.1-2.9h-2.7
						C657.4,409.8,657.9,410.8,658.6,411.6z"/>
					<path style="fill:#444444;" d="M667.8,402.2c-0.2,0.4-0.3,0.7-0.5,1.1h6.1v0.8c-0.9,1-2,1.9-3.3,2.6c1.6,0.7,3.3,1.1,5.3,1.3
						l-0.5,0.9c-2.2-0.3-4.2-0.8-5.9-1.7c-1.7,0.8-3.7,1.4-6,1.7l-0.5-1c2-0.3,3.8-0.7,5.4-1.3c-0.8-0.5-1.5-1-2.2-1.6
						c-0.5,0.5-1.1,0.9-1.8,1.3l-0.6-0.8c1.7-1,2.8-2.1,3.4-3.5L667.8,402.2z M669.2,408.2c0,0.6-0.1,1.1-0.1,1.6h4.9
						c0,2.4-0.2,3.8-0.6,4.2c-0.4,0.5-1.1,0.7-2.1,0.7c-0.4,0-1,0-1.6-0.1l-0.3-0.9l1.7,0.1c0.8,0,1.4-0.2,1.6-0.5
						c0.2-0.3,0.3-1.2,0.4-2.6h-4.1c-0.1,0.4-0.3,0.7-0.4,1c-0.7,1.3-2.4,2.3-4.9,3.1l-0.7-0.8c2.3-0.7,3.8-1.5,4.6-2.5
						c0.2-0.3,0.3-0.5,0.4-0.8h-4.2v-0.9h4.5c0.1-0.5,0.2-1,0.2-1.6H669.2z M672,404.2h-5.4l-0.2,0.2c0.8,0.7,1.7,1.3,2.6,1.8
						C670.2,405.6,671.1,404.9,672,404.2z"/>
					<path style="fill:#444444;" d="M681.5,407.4c0.3-0.4,0.5-0.7,0.6-1.1l1,0.1c-0.1,0.4-0.3,0.7-0.5,1h3.6c-0.2-0.3-0.4-0.7-0.6-1
						l0.9-0.3c0.3,0.4,0.5,0.8,0.8,1.2h1.9v0.9h-3.8c0.9,0.8,2.3,1.5,4.1,2l-0.4,0.9c-0.3-0.1-0.7-0.2-1-0.3v4.1h-0.9v-0.6h-2.6v0.6
						h-0.9v-4.4h3.7c-1.3-0.6-2.4-1.4-3.1-2.2H682c-0.8,0.9-1.8,1.6-3.2,2.2h3.5v4.4h-0.9v-0.6H679v0.6h-0.9v-4.1
						c-0.4,0.1-0.8,0.3-1.1,0.4l-0.5-0.8c1.8-0.5,3.2-1.2,4.1-2.1h-3.9v-0.9H681.5z M682.2,402.6v3.4H678v-3.4H682.2z M681.3,403.5
						h-2.4v1.7h2.4V403.5z M681.4,413.4v-2.1H679v2.1H681.4z M688.1,402.6v3.4h-4.4v-3.4H688.1z M687.2,413.4v-2.1h-2.6v2.1H687.2z
						 M687.2,403.5h-2.5v1.7h2.5V403.5z"/>
				</g>
			</g>
		</g>
	</g>
	<g>
		<g>
			<rect x="470" y="394.5" style="opacity:0.6;fill:#BBBBBB;enable-background:new    ;" width="138" height="50"/>
			<g>
				<rect x="468.5" y="393" style="fill:#FFFFFF;" width="137" height="49"/>
				<path style="fill:#E5E5E5;" d="M605,393.5v48H469v-48H605 M606,392.5H468v50h138V392.5L606,392.5z"/>
			</g>
		</g>
		<g>
			<g transform="translate(20 9)">
				<g style="enable-background:new    ;">
					<path style="fill:#444444;" d="M497.5,414.9l-0.8-0.7c0.6-1.3,0.8-2.9,0.9-4.8v-6.7h4.1v10.9c0,0.8-0.4,1.3-1.2,1.3h-1.1
						l-0.2-0.9c0.4,0,0.7,0.1,1.1,0.1c0.4,0,0.5-0.3,0.5-0.8v-3.2h-2.3C498.5,412.1,498.1,413.7,497.5,414.9z M500.8,403.6h-2.3v2.4
						h2.3V403.6z M498.5,409.2h2.3v-2.3h-2.3V409.2z M503.9,414.9h-1v-12.3h5.7c0,1.7-0.1,2.9-0.3,3.4c-0.2,0.6-0.7,0.9-1.6,0.9
						h-1.1l-0.3-0.9c0.2,0,0.5,0,0.9,0c0.3,0,0.6,0,0.7-0.1c0.2-0.1,0.3-0.2,0.4-0.4c0.1-0.3,0.2-1,0.2-2.1h-3.7v4.2h4.8v0.9
						c-0.3,1.4-0.7,2.7-1.4,3.7c0.6,0.6,1.4,1.2,2.2,1.7l-0.5,0.9c-0.9-0.5-1.7-1.1-2.3-1.7c-0.6,0.7-1.3,1.3-2.2,1.7l-0.5-0.8
						c0.8-0.4,1.5-1,2-1.7c-0.9-1.1-1.5-2.3-1.8-3.7h-0.3V414.9z M506.6,411.6c0.5-0.8,0.9-1.8,1.1-2.9h-2.7
						C505.4,409.8,505.9,410.8,506.6,411.6z"/>
					<path style="fill:#444444;" d="M515.8,402.2c-0.2,0.4-0.3,0.7-0.5,1.1h6.1v0.8c-0.9,1-2,1.9-3.3,2.6c1.6,0.7,3.3,1.1,5.3,1.3
						l-0.5,0.9c-2.2-0.3-4.2-0.8-5.9-1.7c-1.7,0.8-3.7,1.4-6,1.7l-0.5-1c2-0.3,3.8-0.7,5.4-1.3c-0.8-0.5-1.5-1-2.2-1.6
						c-0.5,0.5-1.1,0.9-1.8,1.3l-0.6-0.8c1.7-1,2.8-2.1,3.4-3.5L515.8,402.2z M517.2,408.2c0,0.6-0.1,1.1-0.1,1.6h4.9
						c0,2.4-0.2,3.8-0.6,4.2c-0.4,0.5-1.1,0.7-2.1,0.7c-0.4,0-1,0-1.6-0.1l-0.3-0.9l1.7,0.1c0.8,0,1.4-0.2,1.6-0.5
						c0.2-0.3,0.3-1.2,0.4-2.6h-4.1c-0.1,0.4-0.3,0.7-0.4,1c-0.7,1.3-2.4,2.3-4.9,3.1l-0.7-0.8c2.3-0.7,3.8-1.5,4.6-2.5
						c0.2-0.3,0.3-0.5,0.4-0.8h-4.2v-0.9h4.5c0.1-0.5,0.2-1,0.2-1.6H517.2z M520,404.2h-5.4l-0.2,0.2c0.8,0.7,1.7,1.3,2.6,1.8
						C518.2,405.6,519.1,404.9,520,404.2z"/>
					<path style="fill:#444444;" d="M529.5,407.4c0.3-0.4,0.5-0.7,0.6-1.1l1,0.1c-0.1,0.4-0.3,0.7-0.5,1h3.6c-0.2-0.3-0.4-0.7-0.6-1
						l0.9-0.3c0.3,0.4,0.5,0.8,0.8,1.2h1.9v0.9h-3.8c0.9,0.8,2.3,1.5,4.1,2l-0.4,0.9c-0.3-0.1-0.7-0.2-1-0.3v4.1h-0.9v-0.6h-2.6v0.6
						h-0.9v-4.4h3.7c-1.3-0.6-2.4-1.4-3.1-2.2H530c-0.8,0.9-1.8,1.6-3.2,2.2h3.5v4.4h-0.9v-0.6H527v0.6h-0.9v-4.1
						c-0.4,0.1-0.8,0.3-1.1,0.4l-0.5-0.8c1.8-0.5,3.2-1.2,4.1-2.1h-3.9v-0.9H529.5z M530.2,402.6v3.4H526v-3.4H530.2z M529.3,403.5
						h-2.4v1.7h2.4V403.5z M529.4,413.4v-2.1H527v2.1H529.4z M536.1,402.6v3.4h-4.4v-3.4H536.1z M535.2,413.4v-2.1h-2.6v2.1H535.2z
						 M535.2,403.5h-2.5v1.7h2.5V403.5z"/>
				</g>
			</g>
		</g>
	</g>
	<g>
		<g>
			<rect x="317" y="394.5" style="opacity:0.6;fill:#BBBBBB;enable-background:new    ;" width="138" height="50"/>
			<g>
				<rect x="315.5" y="393" style="fill:#FFFFFF;" width="137" height="49"/>
				<path style="fill:#E5E5E5;" d="M452,393.5v48H316v-48H452 M453,392.5H315v50h138V392.5L453,392.5z"/>
			</g>
		</g>
		<g>
			<g transform="translate(20 9)">
				<g style="enable-background:new    ;">
					<path style="fill:#444444;" d="M344.5,414.9l-0.8-0.7c0.6-1.3,0.8-2.9,0.9-4.8v-6.7h4.1v10.9c0,0.8-0.4,1.3-1.2,1.3h-1.1
						l-0.2-0.9c0.4,0,0.7,0.1,1.1,0.1c0.4,0,0.5-0.3,0.5-0.8v-3.2h-2.3C345.5,412.1,345.1,413.7,344.5,414.9z M347.8,403.6h-2.3v2.4
						h2.3V403.6z M345.5,409.2h2.3v-2.3h-2.3V409.2z M350.9,414.9h-1v-12.3h5.7c0,1.7-0.1,2.9-0.3,3.4c-0.2,0.6-0.7,0.9-1.6,0.9
						h-1.1l-0.3-0.9c0.2,0,0.5,0,0.9,0c0.3,0,0.6,0,0.7-0.1c0.2-0.1,0.3-0.2,0.4-0.4c0.1-0.3,0.2-1,0.2-2.1h-3.7v4.2h4.8v0.9
						c-0.3,1.4-0.7,2.7-1.4,3.7c0.6,0.6,1.4,1.2,2.2,1.7l-0.5,0.9c-0.9-0.5-1.7-1.1-2.3-1.7c-0.6,0.7-1.3,1.3-2.2,1.7l-0.5-0.8
						c0.8-0.4,1.5-1,2-1.7c-0.9-1.1-1.5-2.3-1.8-3.7h-0.3V414.9z M353.6,411.6c0.5-0.8,0.9-1.8,1.1-2.9h-2.7
						C352.4,409.8,352.9,410.8,353.6,411.6z"/>
					<path style="fill:#444444;" d="M362.8,402.2c-0.2,0.4-0.3,0.7-0.5,1.1h6.1v0.8c-0.9,1-2,1.9-3.3,2.6c1.6,0.7,3.3,1.1,5.3,1.3
						l-0.5,0.9c-2.2-0.3-4.2-0.8-5.9-1.7c-1.7,0.8-3.7,1.4-6,1.7l-0.5-1c2-0.3,3.8-0.7,5.4-1.3c-0.8-0.5-1.5-1-2.2-1.6
						c-0.5,0.5-1.1,0.9-1.8,1.3l-0.6-0.8c1.7-1,2.8-2.1,3.4-3.5L362.8,402.2z M364.2,408.2c0,0.6-0.1,1.1-0.1,1.6h4.9
						c0,2.4-0.2,3.8-0.6,4.2c-0.4,0.5-1.1,0.7-2.1,0.7c-0.4,0-1,0-1.6-0.1l-0.3-0.9l1.7,0.1c0.8,0,1.4-0.2,1.6-0.5
						c0.2-0.3,0.3-1.2,0.4-2.6h-4.1c-0.1,0.4-0.3,0.7-0.4,1c-0.7,1.3-2.4,2.3-4.9,3.1l-0.7-0.8c2.3-0.7,3.8-1.5,4.6-2.5
						c0.2-0.3,0.3-0.5,0.4-0.8h-4.2v-0.9h4.5c0.1-0.5,0.2-1,0.2-1.6H364.2z M367,404.2h-5.4l-0.2,0.2c0.8,0.7,1.7,1.3,2.6,1.8
						C365.2,405.6,366.1,404.9,367,404.2z"/>
					<path style="fill:#444444;" d="M376.5,407.4c0.3-0.4,0.5-0.7,0.6-1.1l1,0.1c-0.1,0.4-0.3,0.7-0.5,1h3.6c-0.2-0.3-0.4-0.7-0.6-1
						l0.9-0.3c0.3,0.4,0.5,0.8,0.8,1.2h1.9v0.9h-3.8c0.9,0.8,2.3,1.5,4.1,2l-0.4,0.9c-0.3-0.1-0.7-0.2-1-0.3v4.1h-0.9v-0.6h-2.6v0.6
						h-0.9v-4.4h3.7c-1.3-0.6-2.4-1.4-3.1-2.2H377c-0.8,0.9-1.8,1.6-3.2,2.2h3.5v4.4h-0.9v-0.6H374v0.6h-0.9v-4.1
						c-0.4,0.1-0.8,0.3-1.1,0.4l-0.5-0.8c1.8-0.5,3.2-1.2,4.1-2.1h-3.9v-0.9H376.5z M377.2,402.6v3.4H373v-3.4H377.2z M376.3,403.5
						h-2.4v1.7h2.4V403.5z M376.4,413.4v-2.1H374v2.1H376.4z M383.1,402.6v3.4h-4.4v-3.4H383.1z M382.2,413.4v-2.1h-2.6v2.1H382.2z
						 M382.2,403.5h-2.5v1.7h2.5V403.5z"/>
				</g>
			</g>
		</g>
	</g>
	<g>
		<g>
			<rect x="164" y="394.5" style="opacity:0.6;fill:#BBBBBB;enable-background:new    ;" width="138" height="50"/>
			<g>
				<rect x="162.5" y="393" style="fill:#FFFFFF;" width="137" height="49"/>
				<path style="fill:#E5E5E5;" d="M299,393.5v48H163v-48H299 M300,392.5H162v50h138V392.5L300,392.5z"/>
			</g>
		</g>
		<g>
			<g transform="translate(20 9)">
				<g style="enable-background:new    ;">
					<path style="fill:#444444;" d="M191.5,414.9l-0.8-0.7c0.6-1.3,0.8-2.9,0.9-4.8v-6.7h4.1v10.9c0,0.8-0.4,1.3-1.2,1.3h-1.1
						l-0.2-0.9c0.4,0,0.7,0.1,1.1,0.1c0.4,0,0.5-0.3,0.5-0.8v-3.2h-2.3C192.5,412.1,192.1,413.7,191.5,414.9z M194.8,403.6h-2.3v2.4
						h2.3V403.6z M192.5,409.2h2.3v-2.3h-2.3V409.2z M197.9,414.9h-1v-12.3h5.7c0,1.7-0.1,2.9-0.3,3.4c-0.2,0.6-0.7,0.9-1.6,0.9
						h-1.1l-0.3-0.9c0.2,0,0.5,0,0.9,0c0.3,0,0.6,0,0.7-0.1c0.2-0.1,0.3-0.2,0.4-0.4c0.1-0.3,0.2-1,0.2-2.1h-3.7v4.2h4.8v0.9
						c-0.3,1.4-0.7,2.7-1.4,3.7c0.6,0.6,1.4,1.2,2.2,1.7l-0.5,0.9c-0.9-0.5-1.7-1.1-2.3-1.7c-0.6,0.7-1.3,1.3-2.2,1.7l-0.5-0.8
						c0.8-0.4,1.5-1,2-1.7c-0.9-1.1-1.5-2.3-1.8-3.7h-0.3V414.9z M200.6,411.6c0.5-0.8,0.9-1.8,1.1-2.9h-2.7
						C199.4,409.8,199.9,410.8,200.6,411.6z"/>
					<path style="fill:#444444;" d="M209.8,402.2c-0.2,0.4-0.3,0.7-0.5,1.1h6.1v0.8c-0.9,1-2,1.9-3.3,2.6c1.6,0.7,3.3,1.1,5.3,1.3
						l-0.5,0.9c-2.2-0.3-4.2-0.8-5.9-1.7c-1.7,0.8-3.7,1.4-6,1.7l-0.5-1c2-0.3,3.8-0.7,5.4-1.3c-0.8-0.5-1.5-1-2.2-1.6
						c-0.5,0.5-1.1,0.9-1.8,1.3l-0.6-0.8c1.7-1,2.8-2.1,3.4-3.5L209.8,402.2z M211.2,408.2c0,0.6-0.1,1.1-0.1,1.6h4.9
						c0,2.4-0.2,3.8-0.6,4.2c-0.4,0.5-1.1,0.7-2.1,0.7c-0.4,0-1,0-1.6-0.1l-0.3-0.9l1.7,0.1c0.8,0,1.4-0.2,1.6-0.5
						c0.2-0.3,0.3-1.2,0.4-2.6h-4.1c-0.1,0.4-0.3,0.7-0.4,1c-0.7,1.3-2.4,2.3-4.9,3.1l-0.7-0.8c2.3-0.7,3.8-1.5,4.6-2.5
						c0.2-0.3,0.3-0.5,0.4-0.8h-4.2v-0.9h4.5c0.1-0.5,0.2-1,0.2-1.6H211.2z M214,404.2h-5.4l-0.2,0.2c0.8,0.7,1.7,1.3,2.6,1.8
						C212.2,405.6,213.1,404.9,214,404.2z"/>
					<path style="fill:#444444;" d="M223.5,407.4c0.3-0.4,0.5-0.7,0.6-1.1l1,0.1c-0.1,0.4-0.3,0.7-0.5,1h3.6c-0.2-0.3-0.4-0.7-0.6-1
						l0.9-0.3c0.3,0.4,0.5,0.8,0.8,1.2h1.9v0.9h-3.8c0.9,0.8,2.3,1.5,4.1,2l-0.4,0.9c-0.3-0.1-0.7-0.2-1-0.3v4.1h-0.9v-0.6h-2.6v0.6
						h-0.9v-4.4h3.7c-1.3-0.6-2.4-1.4-3.1-2.2H224c-0.8,0.9-1.8,1.6-3.2,2.2h3.5v4.4h-0.9v-0.6H221v0.6h-0.9v-4.1
						c-0.4,0.1-0.8,0.3-1.1,0.4l-0.5-0.8c1.8-0.5,3.2-1.2,4.1-2.1h-3.9v-0.9H223.5z M224.2,402.6v3.4H220v-3.4H224.2z M223.3,403.5
						h-2.4v1.7h2.4V403.5z M223.4,413.4v-2.1H221v2.1H223.4z M230.1,402.6v3.4h-4.4v-3.4H230.1z M229.2,413.4v-2.1h-2.6v2.1H229.2z
						 M229.2,403.5h-2.5v1.7h2.5V403.5z"/>
				</g>
			</g>
		</g>
	</g>
	<g id="ShadowBasicRect7_1_" transform="translate(172,216)">
		<rect x="-20" y="-53.5" style="opacity:0.6;fill:#BBBBBB;enable-background:new    ;" width="620" height="50"/>
		<g>
			<rect x="-21.5" y="-55" style="fill:#FFFFFF;" width="619" height="49"/>
			<path style="fill:#E5E5E5;" d="M597-54.5v48H-21v-48H597 M598-55.5H-22v50h620V-55.5L598-55.5z"/>
		</g>
		<g transform="translate(20 9)">
			<g style="enable-background:new    ;">
				<path style="fill:#444444;" d="M252.8-35h-1v-5.4h-6.9v5.5h-1V-41c-0.4,0.3-0.9,0.6-1.3,0.9l-0.6-0.8c1.7-1,3.1-2.4,4.2-4.1
					l1,0.2c-0.2,0.3-0.4,0.7-0.6,1h4.6v0.7c-0.5,0.7-1,1.2-1.5,1.7h3.1V-35z M248.8-39.6v1.9c-0.1,1.5-0.5,2.7-1.5,3.6
					c-0.9,0.8-2.4,1.5-4.4,1.9l-0.5-0.9c2-0.4,3.4-1,4.2-1.8c0.7-0.8,1.1-1.7,1.2-2.9v-1.9H248.8z M250-42.9h-4.1
					c-0.5,0.6-1,1.1-1.5,1.5h4.2C249-41.8,249.5-42.3,250-42.9z M254.1-32.9l-0.6,0.9c-1.6-1.1-3.3-1.9-5-2.5l0.5-0.8
					C250.9-34.7,252.6-33.9,254.1-32.9z"/>
				<path style="fill:#444444;" d="M259.3-43.8V-45h1v1.2h2.5v0.9h-2.5v1.3h3.4c-0.1-1-0.1-2.2-0.1-3.4h1c0,1.3,0,2.4,0.1,3.4h3.5
					v0.9h-3.5c0.1,1.2,0.2,2.3,0.3,3.1c0.1,0.4,0.2,0.8,0.3,1.1c0.5-1,0.9-2.2,1.2-3.5l0.9,0.4c-0.4,1.8-1,3.2-1.7,4.4
					c0.1,0.3,0.2,0.6,0.4,0.9c0.4,0.7,0.7,1,0.9,1c0.2,0,0.4-0.8,0.6-2.2l0.9,0.5c-0.3,1.9-0.7,2.8-1.3,2.8c-0.5,0-1-0.4-1.5-1.3
					c-0.2-0.2-0.3-0.5-0.4-0.8c-0.7,1-1.6,1.7-2.5,2.2l-0.5-0.8c1-0.6,1.9-1.4,2.6-2.5c-0.2-0.6-0.4-1.3-0.5-2
					c-0.2-0.9-0.3-2-0.4-3.3h-7.9v-0.9h3.5v-1.3h-2.7v-0.9H259.3z M262.8-34.1c-0.7,0.1-1.4,0.2-2.2,0.3v1.7h-1v-1.6
					c-1,0.1-2.1,0.2-3.2,0.3l-0.1-0.9c1.2-0.1,2.3-0.2,3.3-0.2v-1.2h-2.7l-0.2-0.8c0.4-0.5,0.8-1.1,1.1-1.8h-1.5v-0.9h1.9
					c0.1-0.3,0.3-0.7,0.4-1.1l1,0.2c-0.1,0.3-0.2,0.6-0.3,0.9h3.7v0.9h-4.1c-0.3,0.6-0.6,1.2-1,1.7h1.8v-1.1h1v1.1h2.1v0.9h-2.1v1.1
					c0.8-0.1,1.5-0.2,2.2-0.3V-34.1z M267.6-42.8l-0.8,0.5c-0.4-0.6-0.9-1.3-1.6-2.1l0.8-0.5C266.7-44,267.2-43.4,267.6-42.8z"/>
				<path style="fill:#444444;" d="M271.2-41.2v-3.7h1v3.7h1.4v1h-1.4v4.7c0.7-0.2,1.3-0.4,2-0.7v1.1c-1.4,0.5-2.8,1-4.4,1.3
					l-0.3-1.1c0.6-0.1,1.1-0.2,1.7-0.4v-5h-1.5v-1H271.2z M277.4-44.9c-0.2,0.7-0.4,1.4-0.6,2.1h5.1c0,4.8-0.1,7.8-0.3,8.9
					c-0.2,1.1-0.8,1.7-2.1,1.7c-0.4,0-1,0-1.9-0.1l-0.3-1c0.8,0,1.4,0.1,2,0.1c0.7,0,1.1-0.4,1.3-1.1c0.1-0.8,0.2-3.3,0.2-7.6h-4.6
					c-0.5,1-1.1,1.9-1.8,2.7l-0.7-0.9c1.2-1.4,2-3.1,2.4-5.1L277.4-44.9z M279.8-36.5c-1.2,0.8-2.7,1.6-4.5,2.2l-0.4-1
					c1.8-0.6,3.3-1.3,4.6-2.2L279.8-36.5z M279-38.4l-0.7,0.7c-0.5-0.6-1.3-1.3-2.2-2l0.6-0.6C277.6-39.7,278.4-39.1,279-38.4z"/>
				<path style="fill:#444444;" d="M287-40.8c-0.3,0.6-0.6,1.3-1,1.9v6.9h-0.9v-5.7c-0.4,0.4-0.8,0.8-1.3,1.2l-0.3-0.9
					c1.2-1.1,2.1-2.3,2.7-3.7L287-40.8z M286.9-44.5c-0.6,1.5-1.6,2.8-3,4l-0.3-1c1.1-1,1.9-2.1,2.4-3.4L286.9-44.5z M287.3-41.5
					l-0.6-0.7c1-0.7,1.8-1.7,2.5-2.8l1,0.2c-0.2,0.3-0.3,0.6-0.5,0.8h2.2v0.7c-0.3,0.5-0.6,0.9-0.9,1.3h1.6v5h-2.1
					c0,0.4,0,0.7-0.1,1h2.7v0.9h-2.9l-0.1,0.2c1,0.5,1.8,1,2.6,1.7l-0.5,0.8c-0.8-0.7-1.6-1.3-2.4-1.8c-0.4,0.8-1.2,1.5-2.3,2
					l-0.6-0.7c1.1-0.5,1.9-1.2,2.2-2l0.1-0.2H287V-36h2.5c0.1-0.3,0.1-0.7,0.1-1h-2.1v-4.6L287.3-41.5z M290.8-43.2H289
					c-0.3,0.4-0.7,0.8-1.1,1.1h2C290.3-42.4,290.6-42.8,290.8-43.2z M289.6-39.9v-1.4h-1.3v1.4H289.6z M289.6-39.2h-1.3v1.4h1.3
					V-39.2z M290.4-39.9h1.3v-1.4h-1.3V-39.9z M291.7-39.2h-1.3v1.4h1.3V-39.2z M293.3-32.2l-0.2-0.9c0.3,0,0.6,0.1,0.8,0.1
					c0.3,0,0.5-0.2,0.5-0.5v-6h-1.5v-1h3.5v1h-1.1v6.2c0,0.7-0.4,1.1-1.1,1.1H293.3z M296.2-44v0.9h-3.1V-44H296.2z"/>
			</g>
		</g>
	</g>
	<rect x="150" y="260.5" style="fill:#CEE3FF;" width="622" height="76"/>
	<g>
		<polygon style="fill:#878787;" points="458,254.5 461,258.5 464,254.5 		"/>
		<line style="fill:none;stroke:#878787;stroke-miterlimit:10;" x1="461" y1="212.5" x2="461" y2="255.5"/>
	</g>
	<g>
		<polygon style="fill:#878787;" points="458,374.5 461,378.5 464,374.5 		"/>
		<line style="fill:none;stroke:#878787;stroke-miterlimit:10;" x1="461" y1="336.5" x2="461" y2="377.5"/>
	</g>
	<g>
		<g>
			<polygon style="fill:#878787;" points="467,287.5 463,290.5 467,293.5 			"/>
			<line style="fill:none;stroke:#878787;stroke-miterlimit:10;" x1="612" y1="290.5" x2="466" y2="290.5"/>
		</g>
		<g>
			<polygon style="fill:#878787;" points="608,303.5 612,306.5 608,309.5 			"/>
			<line style="fill:none;stroke:#878787;stroke-miterlimit:10;" x1="463" y1="306.5" x2="609" y2="306.5"/>
		</g>
	</g>
	<g>
		<polygon style="fill:#878787;" points="131,304.5 135,307.5 131,310.5 		"/>
		<line style="fill:none;stroke:#878787;stroke-miterlimit:10;" x1="98" y1="307.5" x2="132" y2="307.5"/>
	</g>
	<g>
		<polygon style="fill:#878787;" points="688,154.5 691,158.5 694,154.5 		"/>
		<line style="fill:none;stroke:#878787;stroke-miterlimit:10;" x1="691" y1="83.5" x2="691" y2="155.5"/>
	</g>
	<g>
		<polygon style="fill:#878787;" points="458,154.5 461,158.5 464,154.5 		"/>
		<line style="fill:none;stroke:#878787;stroke-miterlimit:10;" x1="461" y1="83.5" x2="461" y2="155.5"/>
	</g>
	<g>
		<polygon style="fill:#878787;" points="228,154.5 231,158.5 234,154.5 		"/>
		<line style="fill:none;stroke:#878787;stroke-miterlimit:10;" x1="231" y1="83.5" x2="231" y2="155.5"/>
	</g>
	<g id="RectEndPoint15_3_" transform="translate(82,215)">
		<rect x="70" y="-181.5" style="opacity:0.6;fill:#BBBBBB;enable-background:new    ;" width="160" height="50"/>
		<g>
			<rect x="68.5" y="-183" style="fill:#FFFFFF;" width="159" height="49"/>
			<path style="fill:#E5E5E5;" d="M227-182.5v48H69v-48H227 M228-183.5H68v50h160V-183.5L228-183.5z"/>
		</g>
		<g transform="translate(20 9)">
			<g style="enable-background:new    ;">
				<path style="fill:#444444;" d="M118.6-169.7v6.1c0.4-0.4,0.9-0.8,1.3-1.3l0.3,1.1c-0.8,0.8-1.6,1.5-2.5,2.2l-0.4-0.9
					c0.2-0.2,0.3-0.4,0.3-0.6v-5.6h-2v-1H118.6z M119.7-171.7L119-171c-0.6-0.7-1.4-1.4-2.4-2.1l0.7-0.7
					C118.2-173.1,119-172.4,119.7-171.7z M124.6-173.9v0.9h3.5v0.8h-3.5v0.9h3v0.8h-3v1h3.8v0.8h-8.6v-0.8h3.8v-1h-2.8v-0.8h2.8
					v-0.9h-3.4v-0.8h3.4v-0.9H124.6z M121.8-161.1h-1v-6.7h6.5v5.5c0,0.8-0.4,1.1-1.2,1.1H125l-0.2-0.9l1.1,0c0.3,0,0.5-0.2,0.5-0.5
					v-0.8h-4.5V-161.1z M126.4-167h-4.5v1h4.5V-167z M121.8-164.1h4.5v-1h-4.5V-164.1z"/>
				<path style="fill:#444444;" d="M135.6-171.4v-2.6h1v2.6h3.2c-0.5-0.6-1.2-1.2-2-1.9l0.7-0.6c0.8,0.6,1.5,1.2,2.1,1.9l-0.7,0.7
					h2.1v1h-5.4v0.8c0.4,0.9,0.8,1.7,1.4,2.4c1-0.8,1.8-1.6,2.6-2.6l0.7,0.7c-0.8,1-1.7,1.9-2.8,2.6c1.1,1.3,2.4,2.5,3.9,3.4
					l-0.7,0.8c-2.3-1.6-4-3.5-5.1-5.7v5.4c0,0.9-0.4,1.3-1.3,1.3h-1.9l-0.2-1c0.6,0,1.2,0.1,1.8,0.1c0.4,0,0.6-0.2,0.6-0.7v-3.8
					c-1.5,1.8-3.2,3.3-5.2,4.5l-0.5-0.9c2.2-1.2,4.1-2.8,5.7-4.8v-2.6H130v-1H135.6z M133.8-166.9l-0.7,0.7
					c-0.6-0.8-1.4-1.7-2.4-2.6l0.7-0.7C132.3-168.6,133.1-167.7,133.8-166.9z"/>
			</g>
		</g>
	</g>
	<g id="RectEndPoint15_2_" transform="translate(82,215)">
		<rect x="530" y="-181.5" style="opacity:0.6;fill:#BBBBBB;enable-background:new    ;" width="160" height="50"/>
		<g>
			<rect x="528.5" y="-183" style="fill:#FFFFFF;" width="159" height="49"/>
			<path style="fill:#E5E5E5;" d="M687-182.5v48H529v-48H687 M688-183.5H528v50h160V-183.5L688-183.5z"/>
		</g>
		<g transform="translate(20 9)">
			<g style="enable-background:new    ;">
				<path style="fill:#444444;" d="M578.6-169.7v6.1c0.4-0.4,0.9-0.8,1.3-1.3l0.3,1.1c-0.8,0.8-1.6,1.5-2.5,2.2l-0.4-0.9
					c0.2-0.2,0.3-0.4,0.3-0.6v-5.6h-2v-1H578.6z M579.7-171.7L579-171c-0.6-0.7-1.4-1.4-2.4-2.1l0.7-0.7
					C578.2-173.1,579-172.4,579.7-171.7z M584.6-173.9v0.9h3.5v0.8h-3.5v0.9h3v0.8h-3v1h3.8v0.8h-8.6v-0.8h3.8v-1h-2.8v-0.8h2.8
					v-0.9h-3.4v-0.8h3.4v-0.9H584.6z M581.8-161.1h-1v-6.7h6.5v5.5c0,0.8-0.4,1.1-1.2,1.1H585l-0.2-0.9l1.1,0c0.3,0,0.5-0.2,0.5-0.5
					v-0.8h-4.5V-161.1z M586.4-167h-4.5v1h4.5V-167z M581.8-164.1h4.5v-1h-4.5V-164.1z"/>
				<path style="fill:#444444;" d="M595.6-171.4v-2.6h1v2.6h3.2c-0.5-0.6-1.2-1.2-2-1.9l0.7-0.6c0.8,0.6,1.5,1.2,2.1,1.9l-0.7,0.7
					h2.1v1h-5.4v0.8c0.4,0.9,0.8,1.7,1.4,2.4c1-0.8,1.8-1.6,2.6-2.6l0.7,0.7c-0.8,1-1.7,1.9-2.8,2.6c1.1,1.3,2.4,2.5,3.9,3.4
					l-0.7,0.8c-2.3-1.6-4-3.5-5.1-5.7v5.4c0,0.9-0.4,1.3-1.3,1.3h-1.9l-0.2-1c0.6,0,1.2,0.1,1.8,0.1c0.4,0,0.6-0.2,0.6-0.7v-3.8
					c-1.5,1.8-3.2,3.3-5.2,4.5l-0.5-0.9c2.2-1.2,4.1-2.8,5.7-4.8v-2.6H590v-1H595.6z M593.8-166.9l-0.7,0.7
					c-0.6-0.8-1.4-1.7-2.4-2.6l0.7-0.7C592.3-168.6,593.1-167.7,593.8-166.9z"/>
			</g>
		</g>
	</g>
	<g id="RectEndPoint15_1_" transform="translate(82,215)">
		<rect x="300" y="-181.5" style="opacity:0.6;fill:#BBBBBB;enable-background:new    ;" width="160" height="50"/>
		<g>
			<rect x="298.5" y="-183" style="fill:#FFFFFF;" width="159" height="49"/>
			<path style="fill:#E5E5E5;" d="M457-182.5v48H299v-48H457 M458-183.5H298v50h160V-183.5L458-183.5z"/>
		</g>
		<g transform="translate(20 9)">
			<g style="enable-background:new    ;">
				<path style="fill:#444444;" d="M348.6-169.7v6.1c0.4-0.4,0.9-0.8,1.3-1.3l0.3,1.1c-0.8,0.8-1.6,1.5-2.5,2.2l-0.4-0.9
					c0.2-0.2,0.3-0.4,0.3-0.6v-5.6h-2v-1H348.6z M349.7-171.7L349-171c-0.6-0.7-1.4-1.4-2.4-2.1l0.7-0.7
					C348.2-173.1,349-172.4,349.7-171.7z M354.6-173.9v0.9h3.5v0.8h-3.5v0.9h3v0.8h-3v1h3.8v0.8h-8.6v-0.8h3.8v-1h-2.8v-0.8h2.8
					v-0.9h-3.4v-0.8h3.4v-0.9H354.6z M351.8-161.1h-1v-6.7h6.5v5.5c0,0.8-0.4,1.1-1.2,1.1H355l-0.2-0.9l1.1,0c0.3,0,0.5-0.2,0.5-0.5
					v-0.8h-4.5V-161.1z M356.4-167h-4.5v1h4.5V-167z M351.8-164.1h4.5v-1h-4.5V-164.1z"/>
				<path style="fill:#444444;" d="M365.6-171.4v-2.6h1v2.6h3.2c-0.5-0.6-1.2-1.2-2-1.9l0.7-0.6c0.8,0.6,1.5,1.2,2.1,1.9l-0.7,0.7
					h2.1v1h-5.4v0.8c0.4,0.9,0.8,1.7,1.4,2.4c1-0.8,1.8-1.6,2.6-2.6l0.7,0.7c-0.8,1-1.7,1.9-2.8,2.6c1.1,1.3,2.4,2.5,3.9,3.4
					l-0.7,0.8c-2.3-1.6-4-3.5-5.1-5.7v5.4c0,0.9-0.4,1.3-1.3,1.3h-1.9l-0.2-1c0.6,0,1.2,0.1,1.8,0.1c0.4,0,0.6-0.2,0.6-0.7v-3.8
					c-1.5,1.8-3.2,3.3-5.2,4.5l-0.5-0.9c2.2-1.2,4.1-2.8,5.7-4.8v-2.6H360v-1H365.6z M363.8-166.9l-0.7,0.7
					c-0.6-0.8-1.4-1.7-2.4-2.6l0.7-0.7C362.3-168.6,363.1-167.7,363.8-166.9z"/>
			</g>
		</g>
	</g>
	<g>
		<g>
			<rect x="622" y="274.5" style="opacity:0.6;fill:#BBBBBB;enable-background:new    ;" width="138" height="50"/>
			<g>
				<rect x="620.5" y="273" style="fill:#FFFFFF;" width="137" height="49"/>
				<path style="fill:#E5E5E5;" d="M757,273.5v48H621v-48H757 M758,272.5H620v50h138V272.5L758,272.5z"/>
			</g>
		</g>
		<g>
			<g transform="translate(20 9)">
				<g style="enable-background:new    ;">
					<path style="fill:#444444;" d="M643.3,283.7l-0.3-0.8c2.1,0,3.8-0.2,5.2-0.7l0.4,0.8c-0.6,0.2-1.4,0.4-2.2,0.5v2.3h0.6
						c0.3-0.6,0.5-1.2,0.7-1.9l0.8,0.3c-0.2,0.6-0.4,1.1-0.7,1.6h1v0.9h-2.4v2h-0.9v-2h-0.1c-0.5,1.1-1.3,2-2.5,2.7l-0.5-0.8
						c1-0.5,1.7-1.2,2.2-1.9H643v-0.9h1.2c-0.2-0.5-0.4-0.9-0.6-1.3l0.7-0.3c0.2,0.4,0.4,1,0.6,1.6h0.7v-2.2
						C644.9,283.6,644.1,283.7,643.3,283.7z M644.3,294.3v0.6h-0.9v-5.7h5.1v5.7h-0.9v-0.6H644.3z M644.3,289.9v1.3h1.3v-1.3H644.3z
						 M644.3,292v1.5h1.3V292H644.3z M647.6,291.2v-1.3h-1.2v1.3H647.6z M647.6,293.5V292h-1.2v1.5H647.6z M649.2,288.3l-0.4,0.7
						c-0.6-0.5-1.3-1-1.9-1.3l0.4-0.6C648,287.4,648.7,287.9,649.2,288.3z M649.4,293.8l1.2,0c0.3,0,0.4-0.2,0.4-0.5v-3.2
						c-0.5,0.7-1,1.3-1.7,1.9l-0.4-0.9c0.8-0.6,1.5-1.4,2.1-2.3v-5.2h-1.8v-0.8h2.7v10.9c0,0.7-0.4,1.1-1.1,1.1h-1.1L649.4,293.8z
						 M650.6,288l-0.6,0.3c-0.3-1.2-0.6-2.3-0.9-3.2l0.7-0.2C650,285.9,650.3,286.9,650.6,288z M653.7,287.8l-0.6,0.3
						c-0.3-1.2-0.5-2.3-0.8-3.2l0.7-0.2C653.2,285.7,653.4,286.7,653.7,287.8z M652.5,293.8l1.2,0c0.3,0,0.4-0.2,0.4-0.6v-3.5
						c-0.4,0.7-0.9,1.4-1.5,1.9l-0.4-0.9c0.7-0.7,1.3-1.5,1.9-2.4v-4.7h-1.8v-0.9h2.6v10.8c0,0.8-0.4,1.2-1.1,1.2h-1.2L652.5,293.8z
						"/>
					<path style="fill:#444444;" d="M659.6,286.3v6.1c0.4-0.4,0.9-0.9,1.4-1.4l0.3,1.1c-0.8,0.9-1.6,1.7-2.5,2.3l-0.4-0.9
						c0.2-0.2,0.3-0.4,0.3-0.6v-5.5h-2v-1H659.6z M660.7,284.4l-0.7,0.7c-0.6-0.7-1.4-1.4-2.4-2.2l0.7-0.7
						C659.2,282.9,660,283.7,660.7,284.4z M668.4,282.6v0.8c-0.4,1-1.1,1.9-2.2,2.6c0.9,0.4,2,0.7,3.3,0.9l-0.4,0.9
						c-1.6-0.2-2.9-0.6-3.9-1.2c-1.1,0.6-2.4,1-4,1.4l-0.5-0.8c1.4-0.3,2.6-0.7,3.6-1.1c-0.8-0.7-1.4-1.5-1.8-2.5h-0.9v-0.9H668.4z
						 M664.7,289.1v-1.3h1v1.3h2.8v0.9h-2.8v1.6h3.5v1h-3.5v2.4h-1v-2.4h-3.2v-1h3.2V290h-2.6v-0.9H664.7z M665.2,285.6
						c1-0.6,1.6-1.3,2.1-2h-3.8C663.8,284.4,664.4,285,665.2,285.6z"/>
					<path style="fill:#444444;" d="M677.4,286.5c1.1,1.4,3.1,2.6,5.9,3.7l-0.5,0.8c-0.6-0.2-1.1-0.4-1.6-0.7v4.6h-1v-0.6H674v0.6
						h-1v-4.6c-0.6,0.3-1.1,0.5-1.7,0.7l-0.5-0.8c2.6-1,4.5-2.2,5.9-3.7H677.4z M676,285.3c-1.2,1-2.6,1.9-4.4,2.7l-0.6-0.8
						c1.7-0.7,3.1-1.6,4.3-2.5L676,285.3z M677.6,283.2h5.1v2.5h-1v-1.6h-9.5v1.6h-1v-2.6h5.3c-0.2-0.4-0.3-0.7-0.5-1.1l1.1-0.2
						C677.3,282.3,677.5,282.8,677.6,283.2z M681,290.3c-1.7-0.8-3.1-1.8-4-2.9c-1.1,1.2-2.5,2.1-4,2.9H681z M680.2,293.4v-2.2H674
						v2.2H680.2z M682.9,287.4l-0.7,0.7c-1-0.8-2.4-1.7-4.2-2.7l0.6-0.6C680.3,285.6,681.8,286.5,682.9,287.4z"/>
					<path style="fill:#444444;" d="M689.5,287.4c0.3-0.4,0.5-0.7,0.6-1.1l1,0.1c-0.1,0.4-0.3,0.7-0.5,1h3.6c-0.2-0.3-0.4-0.7-0.6-1
						l0.9-0.3c0.3,0.4,0.5,0.8,0.8,1.2h1.9v0.9h-3.8c0.9,0.8,2.3,1.5,4.1,2l-0.4,0.9c-0.3-0.1-0.7-0.2-1-0.3v4.1h-0.9v-0.6h-2.6v0.6
						h-0.9v-4.4h3.7c-1.3-0.6-2.4-1.4-3.1-2.2H690c-0.8,0.9-1.8,1.6-3.2,2.2h3.5v4.4h-0.9v-0.6H687v0.6h-0.9v-4.1
						c-0.4,0.1-0.8,0.3-1.1,0.4l-0.5-0.8c1.8-0.5,3.2-1.2,4.1-2.1h-3.9v-0.9H689.5z M690.2,282.6v3.4H686v-3.4H690.2z M689.3,283.5
						h-2.4v1.7h2.4V283.5z M689.4,293.4v-2.1H687v2.1H689.4z M696.1,282.6v3.4h-4.4v-3.4H696.1z M695.2,293.4v-2.1h-2.6v2.1H695.2z
						 M695.2,283.5h-2.5v1.7h2.5V283.5z"/>
				</g>
			</g>
		</g>
	</g>
	<g>
		<g>
			<rect x="317" y="274.5" style="opacity:0.6;fill:#BBBBBB;enable-background:new    ;" width="138" height="50"/>
			<g>
				<rect x="315.5" y="273" style="fill:#FFFFFF;" width="137" height="49"/>
				<path style="fill:#E5E5E5;" d="M452,273.5v48H316v-48H452 M453,272.5H315v50h138V272.5L453,272.5z"/>
			</g>
		</g>
		<g>
			<g transform="translate(20 9)">
				<g style="enable-background:new    ;">
					<path style="fill:#444444;" d="M338.3,283.7l-0.3-0.8c2.1,0,3.8-0.2,5.2-0.7l0.4,0.8c-0.6,0.2-1.4,0.4-2.2,0.5v2.3h0.6
						c0.3-0.6,0.5-1.2,0.7-1.9l0.8,0.3c-0.2,0.6-0.4,1.1-0.7,1.6h1v0.9h-2.4v2h-0.9v-2h-0.1c-0.5,1.1-1.3,2-2.5,2.7l-0.5-0.8
						c1-0.5,1.7-1.2,2.2-1.9H338v-0.9h1.2c-0.2-0.5-0.4-0.9-0.6-1.3l0.7-0.3c0.2,0.4,0.4,1,0.6,1.6h0.7v-2.2
						C339.9,283.6,339.1,283.7,338.3,283.7z M339.3,294.3v0.6h-0.9v-5.7h5.1v5.7h-0.9v-0.6H339.3z M339.3,289.9v1.3h1.3v-1.3H339.3z
						 M339.3,292v1.5h1.3V292H339.3z M342.6,291.2v-1.3h-1.2v1.3H342.6z M342.6,293.5V292h-1.2v1.5H342.6z M344.2,288.3l-0.4,0.7
						c-0.6-0.5-1.3-1-1.9-1.3l0.4-0.6C343,287.4,343.7,287.9,344.2,288.3z M344.4,293.8l1.2,0c0.3,0,0.4-0.2,0.4-0.5v-3.2
						c-0.5,0.7-1,1.3-1.7,1.9l-0.4-0.9c0.8-0.6,1.5-1.4,2.1-2.3v-5.2h-1.8v-0.8h2.7v10.9c0,0.7-0.4,1.1-1.1,1.1h-1.1L344.4,293.8z
						 M345.6,288l-0.6,0.3c-0.3-1.2-0.6-2.3-0.9-3.2l0.7-0.2C345,285.9,345.3,286.9,345.6,288z M348.7,287.8l-0.6,0.3
						c-0.3-1.2-0.5-2.3-0.8-3.2l0.7-0.2C348.2,285.7,348.4,286.7,348.7,287.8z M347.5,293.8l1.2,0c0.3,0,0.4-0.2,0.4-0.6v-3.5
						c-0.4,0.7-0.9,1.4-1.5,1.9l-0.4-0.9c0.7-0.7,1.3-1.5,1.9-2.4v-4.7h-1.8v-0.9h2.6v10.8c0,0.8-0.4,1.2-1.1,1.2h-1.2L347.5,293.8z
						"/>
					<path style="fill:#444444;" d="M354.6,286.3v6.1c0.4-0.4,0.9-0.9,1.4-1.4l0.3,1.1c-0.8,0.9-1.6,1.7-2.5,2.3l-0.4-0.9
						c0.2-0.2,0.3-0.4,0.3-0.6v-5.5h-2v-1H354.6z M355.7,284.4l-0.7,0.7c-0.6-0.7-1.4-1.4-2.4-2.2l0.7-0.7
						C354.2,282.9,355,283.7,355.7,284.4z M363.4,282.6v0.8c-0.4,1-1.1,1.9-2.2,2.6c0.9,0.4,2,0.7,3.3,0.9l-0.4,0.9
						c-1.6-0.2-2.9-0.6-3.9-1.2c-1.1,0.6-2.4,1-4,1.4l-0.5-0.8c1.4-0.3,2.6-0.7,3.6-1.1c-0.8-0.7-1.4-1.5-1.8-2.5h-0.9v-0.9H363.4z
						 M359.7,289.1v-1.3h1v1.3h2.8v0.9h-2.8v1.6h3.5v1h-3.5v2.4h-1v-2.4h-3.2v-1h3.2V290h-2.6v-0.9H359.7z M360.2,285.6
						c1-0.6,1.6-1.3,2.1-2h-3.8C358.8,284.4,359.4,285,360.2,285.6z"/>
					<path style="fill:#444444;" d="M372.4,286.5c1.1,1.4,3.1,2.6,5.9,3.7l-0.5,0.8c-0.6-0.2-1.1-0.4-1.6-0.7v4.6h-1v-0.6H369v0.6
						h-1v-4.6c-0.6,0.3-1.1,0.5-1.7,0.7l-0.5-0.8c2.6-1,4.5-2.2,5.9-3.7H372.4z M371,285.3c-1.2,1-2.6,1.9-4.4,2.7l-0.6-0.8
						c1.7-0.7,3.1-1.6,4.3-2.5L371,285.3z M372.6,283.2h5.1v2.5h-1v-1.6h-9.5v1.6h-1v-2.6h5.3c-0.2-0.4-0.3-0.7-0.5-1.1l1.1-0.2
						C372.3,282.3,372.5,282.8,372.6,283.2z M376,290.3c-1.7-0.8-3.1-1.8-4-2.9c-1.1,1.2-2.5,2.1-4,2.9H376z M375.2,293.4v-2.2H369
						v2.2H375.2z M377.9,287.4l-0.7,0.7c-1-0.8-2.4-1.7-4.2-2.7l0.6-0.6C375.3,285.6,376.8,286.5,377.9,287.4z"/>
					<path style="fill:#444444;" d="M384.5,287.4c0.3-0.4,0.5-0.7,0.6-1.1l1,0.1c-0.1,0.4-0.3,0.7-0.5,1h3.6c-0.2-0.3-0.4-0.7-0.6-1
						l0.9-0.3c0.3,0.4,0.5,0.8,0.8,1.2h1.9v0.9h-3.8c0.9,0.8,2.3,1.5,4.1,2l-0.4,0.9c-0.3-0.1-0.7-0.2-1-0.3v4.1h-0.9v-0.6h-2.6v0.6
						h-0.9v-4.4h3.7c-1.3-0.6-2.4-1.4-3.1-2.2H385c-0.8,0.9-1.8,1.6-3.2,2.2h3.5v4.4h-0.9v-0.6H382v0.6h-0.9v-4.1
						c-0.4,0.1-0.8,0.3-1.1,0.4l-0.5-0.8c1.8-0.5,3.2-1.2,4.1-2.1h-3.9v-0.9H384.5z M385.2,282.6v3.4H381v-3.4H385.2z M384.3,283.5
						h-2.4v1.7h2.4V283.5z M384.4,293.4v-2.1H382v2.1H384.4z M391.1,282.6v3.4h-4.4v-3.4H391.1z M390.2,293.4v-2.1h-2.6v2.1H390.2z
						 M390.2,283.5h-2.5v1.7h2.5V283.5z"/>
				</g>
			</g>
		</g>
	</g>
	<g>
		<g>
			<rect x="164" y="274.5" style="opacity:0.6;fill:#BBBBBB;enable-background:new    ;" width="138" height="50"/>
			<g>
				<rect x="162.5" y="273" style="fill:#FFFFFF;" width="137" height="49"/>
				<path style="fill:#E5E5E5;" d="M299,273.5v48H163v-48H299 M300,272.5H162v50h138V272.5L300,272.5z"/>
			</g>
		</g>
		<g>
			<g transform="translate(20 9)">
				<g style="enable-background:new    ;">
					<path style="fill:#444444;" d="M185.3,283.7l-0.3-0.8c2.1,0,3.8-0.2,5.2-0.7l0.4,0.8c-0.6,0.2-1.4,0.4-2.2,0.5v2.3h0.6
						c0.3-0.6,0.5-1.2,0.7-1.9l0.8,0.3c-0.2,0.6-0.4,1.1-0.7,1.6h1v0.9h-2.4v2h-0.9v-2h-0.1c-0.5,1.1-1.3,2-2.5,2.7l-0.5-0.8
						c1-0.5,1.7-1.2,2.2-1.9H185v-0.9h1.2c-0.2-0.5-0.4-0.9-0.6-1.3l0.7-0.3c0.2,0.4,0.4,1,0.6,1.6h0.7v-2.2
						C186.9,283.6,186.1,283.7,185.3,283.7z M186.3,294.3v0.6h-0.9v-5.7h5.1v5.7h-0.9v-0.6H186.3z M186.3,289.9v1.3h1.3v-1.3H186.3z
						 M186.3,292v1.5h1.3V292H186.3z M189.6,291.2v-1.3h-1.2v1.3H189.6z M189.6,293.5V292h-1.2v1.5H189.6z M191.2,288.3l-0.4,0.7
						c-0.6-0.5-1.3-1-1.9-1.3l0.4-0.6C190,287.4,190.7,287.9,191.2,288.3z M191.4,293.8l1.2,0c0.3,0,0.4-0.2,0.4-0.5v-3.2
						c-0.5,0.7-1,1.3-1.7,1.9l-0.4-0.9c0.8-0.6,1.5-1.4,2.1-2.3v-5.2h-1.8v-0.8h2.7v10.9c0,0.7-0.4,1.1-1.1,1.1h-1.1L191.4,293.8z
						 M192.6,288l-0.6,0.3c-0.3-1.2-0.6-2.3-0.9-3.2l0.7-0.2C192,285.9,192.3,286.9,192.6,288z M195.7,287.8l-0.6,0.3
						c-0.3-1.2-0.5-2.3-0.8-3.2l0.7-0.2C195.2,285.7,195.4,286.7,195.7,287.8z M194.5,293.8l1.2,0c0.3,0,0.4-0.2,0.4-0.6v-3.5
						c-0.4,0.7-0.9,1.4-1.5,1.9l-0.4-0.9c0.7-0.7,1.3-1.5,1.9-2.4v-4.7h-1.8v-0.9h2.6v10.8c0,0.8-0.4,1.2-1.1,1.2h-1.2L194.5,293.8z
						"/>
					<path style="fill:#444444;" d="M201.6,286.3v6.1c0.4-0.4,0.9-0.9,1.4-1.4l0.3,1.1c-0.8,0.9-1.6,1.7-2.5,2.3l-0.4-0.9
						c0.2-0.2,0.3-0.4,0.3-0.6v-5.5h-2v-1H201.6z M202.7,284.4l-0.7,0.7c-0.6-0.7-1.4-1.4-2.4-2.2l0.7-0.7
						C201.2,282.9,202,283.7,202.7,284.4z M210.4,282.6v0.8c-0.4,1-1.1,1.9-2.2,2.6c0.9,0.4,2,0.7,3.3,0.9l-0.4,0.9
						c-1.6-0.2-2.9-0.6-3.9-1.2c-1.1,0.6-2.4,1-4,1.4l-0.5-0.8c1.4-0.3,2.6-0.7,3.6-1.1c-0.8-0.7-1.4-1.5-1.8-2.5h-0.9v-0.9H210.4z
						 M206.7,289.1v-1.3h1v1.3h2.8v0.9h-2.8v1.6h3.5v1h-3.5v2.4h-1v-2.4h-3.2v-1h3.2V290h-2.6v-0.9H206.7z M207.2,285.6
						c1-0.6,1.6-1.3,2.1-2h-3.8C205.8,284.4,206.4,285,207.2,285.6z"/>
					<path style="fill:#444444;" d="M219.4,286.5c1.1,1.4,3.1,2.6,5.9,3.7l-0.5,0.8c-0.6-0.2-1.1-0.4-1.6-0.7v4.6h-1v-0.6H216v0.6
						h-1v-4.6c-0.6,0.3-1.1,0.5-1.7,0.7l-0.5-0.8c2.6-1,4.5-2.2,5.9-3.7H219.4z M218,285.3c-1.2,1-2.6,1.9-4.4,2.7l-0.6-0.8
						c1.7-0.7,3.1-1.6,4.3-2.5L218,285.3z M219.6,283.2h5.1v2.5h-1v-1.6h-9.5v1.6h-1v-2.6h5.3c-0.2-0.4-0.3-0.7-0.5-1.1l1.1-0.2
						C219.3,282.3,219.5,282.8,219.6,283.2z M223,290.3c-1.7-0.8-3.1-1.8-4-2.9c-1.1,1.2-2.5,2.1-4,2.9H223z M222.2,293.4v-2.2H216
						v2.2H222.2z M224.9,287.4l-0.7,0.7c-1-0.8-2.4-1.7-4.2-2.7l0.6-0.6C222.3,285.6,223.8,286.5,224.9,287.4z"/>
					<path style="fill:#444444;" d="M231.5,287.4c0.3-0.4,0.5-0.7,0.6-1.1l1,0.1c-0.1,0.4-0.3,0.7-0.5,1h3.6c-0.2-0.3-0.4-0.7-0.6-1
						l0.9-0.3c0.3,0.4,0.5,0.8,0.8,1.2h1.9v0.9h-3.8c0.9,0.8,2.3,1.5,4.1,2l-0.4,0.9c-0.3-0.1-0.7-0.2-1-0.3v4.1h-0.9v-0.6h-2.6v0.6
						h-0.9v-4.4h3.7c-1.3-0.6-2.4-1.4-3.1-2.2H232c-0.8,0.9-1.8,1.6-3.2,2.2h3.5v4.4h-0.9v-0.6H229v0.6h-0.9v-4.1
						c-0.4,0.1-0.8,0.3-1.1,0.4l-0.5-0.8c1.8-0.5,3.2-1.2,4.1-2.1h-3.9v-0.9H231.5z M232.2,282.6v3.4H228v-3.4H232.2z M231.3,283.5
						h-2.4v1.7h2.4V283.5z M231.4,293.4v-2.1H229v2.1H231.4z M238.1,282.6v3.4h-4.4v-3.4H238.1z M237.2,293.4v-2.1h-2.6v2.1H237.2z
						 M237.2,283.5h-2.5v1.7h2.5V283.5z"/>
				</g>
			</g>
		</g>
	</g>
	<g>
		<rect x="152" y="134.5" style="fill-rule:evenodd;clip-rule:evenodd;fill:#00A3FF;" width="3" height="1"/>
		<rect x="152" y="134.5" style="fill-rule:evenodd;clip-rule:evenodd;fill:#00A3FF;" width="1" height="4.5"/>
		<rect x="154" y="130" style="fill-rule:evenodd;clip-rule:evenodd;fill:#00A3FF;" width="3" height="1"/>
		<rect x="155" y="130" style="fill-rule:evenodd;clip-rule:evenodd;fill:#00A3FF;" width="1" height="3.5"/>
		<rect x="159" y="130" style="fill-rule:evenodd;clip-rule:evenodd;fill:#00A3FF;" width="1" height="3.5"/>
		<rect x="156" y="134.5" style="fill-rule:evenodd;clip-rule:evenodd;fill:#00A3FF;" width="1" height="4.5"/>
		<polygon style="fill-rule:evenodd;clip-rule:evenodd;fill:#00A3FF;" points="158.5,139 157.5,139 156.5,134.5 157.5,134.5 		"/>
		<polygon style="fill-rule:evenodd;clip-rule:evenodd;fill:#00A3FF;" points="157.5,139 158.5,139 159.5,134.5 158.5,134.5 		"/>
		<rect x="159" y="134.5" style="fill-rule:evenodd;clip-rule:evenodd;fill:#00A3FF;" width="1" height="4.5"/>
		<rect x="152" y="136.2" style="fill-rule:evenodd;clip-rule:evenodd;fill:#00A3FF;" width="3" height="1"/>
		<rect x="152" y="138" style="fill-rule:evenodd;clip-rule:evenodd;fill:#00A3FF;" width="3" height="1"/>
		<rect x="161" y="134.5" style="fill-rule:evenodd;clip-rule:evenodd;fill:#00A3FF;" width="3" height="1"/>
		<rect x="161" y="134.5" style="fill-rule:evenodd;clip-rule:evenodd;fill:#00A3FF;" width="1" height="2.5"/>
		<rect x="163" y="136.2" style="fill-rule:evenodd;clip-rule:evenodd;fill:#00A3FF;" width="1" height="2.8"/>
		<rect x="161" y="136.2" style="fill-rule:evenodd;clip-rule:evenodd;fill:#00A3FF;" width="3" height="1"/>
		<rect x="161" y="138" style="fill-rule:evenodd;clip-rule:evenodd;fill:#00A3FF;" width="3" height="1"/>
		<rect x="150" y="140" style="fill-rule:evenodd;clip-rule:evenodd;fill:#00A3FF;" width="16" height="1"/>
		<rect x="150" y="128" style="fill-rule:evenodd;clip-rule:evenodd;fill:#00A3FF;" width="16" height="1"/>
		<rect x="165" y="128" style="fill-rule:evenodd;clip-rule:evenodd;fill:#00A3FF;" width="1" height="10"/>
		<rect x="150" y="131" style="fill-rule:evenodd;clip-rule:evenodd;fill:#00A3FF;" width="1" height="10"/>
	</g>
	<g>
		<g>
			<path style="fill:#444444;" d="M178.4,128.9v1.3h-3.3v8.7h-1.5v-8.7h-3.3v-1.3H178.4z"/>
			<path style="fill:#444444;" d="M181.1,128.9v10h-1.5v-10H181.1z"/>
			<path style="fill:#444444;" d="M189.9,134.7v1.2h-7.1v-1.2H189.9z"/>
			<path style="fill:#444444;" d="M198.8,128.9v1.3h-5.7v2.9h5.3v1.3h-5.3v3.2h5.9v1.3h-7.4v-10H198.8z"/>
			<path style="fill:#444444;" d="M202.4,128.9l3.5,8h0l3.5-8h1.8v10h-1.5v-7.1h-0.1l-3.1,7.1h-1.3l-3.1-7.1h-0.1v7.1h-1.5v-10
				H202.4z"/>
			<path style="fill:#444444;" d="M219.4,129.4c0.7,0.5,1.1,1.3,1.2,2.4h-1.5c-0.1-0.6-0.4-1.1-0.8-1.4c-0.4-0.3-1-0.4-1.7-0.4
				c-0.7,0-1.2,0.1-1.5,0.3c-0.4,0.2-0.6,0.6-0.6,1.1c0,0.4,0.2,0.8,0.7,1.1c0.2,0.1,0.8,0.3,1.7,0.6c1.3,0.4,2.2,0.7,2.6,1
				c0.9,0.5,1.3,1.2,1.3,2.2c0,0.9-0.4,1.6-1,2.1c-0.7,0.5-1.7,0.8-2.9,0.8c-1.2,0-2.2-0.3-2.9-0.7c-0.8-0.6-1.3-1.5-1.4-2.8h1.5
				c0.1,0.8,0.4,1.4,0.8,1.7c0.4,0.3,1,0.5,1.9,0.5c0.8,0,1.4-0.1,1.8-0.4c0.4-0.3,0.7-0.6,0.7-1.1c0-0.6-0.3-1-1-1.3
				c-0.2-0.1-0.9-0.3-2-0.7c-1.2-0.4-2-0.7-2.3-0.8c-0.8-0.5-1.1-1.1-1.1-2c0-0.9,0.4-1.6,1.1-2.1c0.7-0.5,1.6-0.7,2.6-0.7
				C217.8,128.7,218.7,128.9,219.4,129.4z"/>
		</g>
	</g>
</g>
</svg>
