<?xml version="1.0" encoding="UTF-8"?>
<svg width="16px" height="16px" viewBox="0 0 16 16" version="1.1" xmlns="http://www.w3.org/2000/svg" xmlns:xlink="http://www.w3.org/1999/xlink">
    <!-- Generator: Sketch 53.2 (72643) - https://sketchapp.com -->
    <title>1</title>
    <desc>Created with Sketch.</desc>
    <g id="1" stroke="none" stroke-width="1" fill="none" fill-rule="evenodd">
        <g id="语音识别-copy" transform="translate(0.000000, 1.066667)" fill="#00A4FF" fill-rule="nonzero">
            <path d="M1.97333333,1.6 L14.4,1.6 L14.4,9.6 L15.4666667,9.6 L15.4666667,0.533333333 L1.97333333,0.533333333 C1.81333333,0.213333333 1.44,0 1.06666667,0 C0.48,0 0,0.48 0,1.06666667 C0,1.65333333 0.48,2.13333333 1.06666667,2.13333333 C1.44,2.13333333 1.81333333,1.92 1.97333333,1.6 Z M14.9333333,11.7333333 C14.56,11.7333333 14.1866667,11.9466667 14.0266667,12.2666667 L1.6,12.2666667 L1.6,4.26666667 L0.533333333,4.26666667 L0.533333333,13.3333333 L14.0266667,13.3333333 C14.1866667,13.6533333 14.56,13.8666667 14.9333333,13.8666667 C15.52,13.8666667 16,13.3866667 16,12.8 C16,12.2133333 15.52,11.7333333 14.9333333,11.7333333 Z" id="Shape"></path>
            <rect id="Rectangle" x="5.86666667" y="8.53333333" width="1.06666667" height="1.6"></rect>
            <rect id="Rectangle" x="5.33333333" y="9.6" width="2.13333333" height="1.06666667"></rect>
            <path d="M6.4,4.26666667 L7.89333333,4.26666667 C7.68,3.73333333 7.09333333,3.2 6.4,3.2 C5.49333333,3.2 4.8,3.89333333 4.8,4.8 L4.8,8 L5.86666667,8 L5.86666667,4.8 C5.86666667,4.48 6.08,4.26666667 6.4,4.26666667 L6.4,4.26666667 Z" id="Path"></path>
            <rect id="Rectangle" x="6.93333333" y="4.8" width="1.06666667" height="1.6"></rect>
            <rect id="Rectangle" x="11.2" y="4.8" width="1.06666667" height="1.6"></rect>
            <rect id="Rectangle" x="9.06666667" y="4.26666667" width="1.06666667" height="2.66666667"></rect>
            <path d="M7.57333333,7.46666667 C7.30666667,7.78666667 6.88,8 6.4,8 C5.70666667,8 5.12,7.57333333 4.90666667,6.93333333 L3.78666667,6.93333333 C4.05333333,8.16 5.12,9.06666667 6.4,9.06666667 C7.46666667,9.06666667 8.42666667,8.42666667 8.85333333,7.46666667 L7.57333333,7.46666667 Z" id="Path"></path>
        </g>
    </g>
</svg>