<svg xmlns="http://www.w3.org/2000/svg" width="32" height="32" viewBox="0 0 32 32">
  <title>12网站安全监测32x32白色</title>
  <g>
    <path d="M29,3.5v-2H3V16.7s.1,10.8,13,13.8c12.9-3,13-13.8,13-13.8V7.5H27v9.2a11.583,11.583,0,0,1-1.4,4.8c-1.8,3.4-5.1,5.7-9.6,6.9C5.3,25.8,5,17.1,5,16.7V3.5Z" style="fill: #fff"/>
    <path d="M19.256,8.043l-.918,1.533h0l-2.377,3.962c-.01,0-.019,0-.029,0a1.778,1.778,0,1,0,1.778,1.778,1.757,1.757,0,0,0-.228-.855L19.862,10.5a6.225,6.225,0,1,1-7.144-.5L11.807,8.47a8,8,0,1,0,7.449-.427Z" style="fill: #fff"/>
  </g>
</svg>
