<?xml version="1.0" encoding="utf-8"?>
<!-- Generator: Adobe Illustrator 22.1.0, SVG Export Plug-In . SVG Version: 6.00 Build 0)  -->
<svg version="1.1" id="svgwrapper_svg" xmlns="http://www.w3.org/2000/svg" xmlns:xlink="http://www.w3.org/1999/xlink" x="0px"
	 y="0px" width="810px" height="645px" viewBox="0 0 810 645" style="enable-background:new 0 0 810 645;" xml:space="preserve">
<style type="text/css">
	.st0{display:none;fill:none;stroke:#999999;}
	.st1{fill-opacity:0;}
	.st2{fill:none;stroke:#BABABA;stroke-dasharray:5;}
	.st3{enable-background:new    ;}
	.st4{fill:#444444;}
	.st5{fill:#EAEBEC;}
	.st6{fill:none;stroke:#888888;}
	.st7{fill:#888888;}
	.st8{fill:none;stroke:#FF0000;stroke-width:15;stroke-opacity:0;}
	.st9{opacity:0.6;fill:#BBBBBB;enable-background:new    ;}
	.st10{fill:#FFFFFF;stroke:#E5E5E5;}
	.st11{fill:#878787;}
</style>
<path class="st0" d="M0,0L0,0"/>
<g id="DashRectGroup3" transform="translate(14,85)">
	<rect x="4" class="st1" width="775" height="122"/>
	<path class="st2" d="M4,0h775v122H4V0"/>
	<g transform="translate(10 10)">
		<g class="st3">
			<path class="st4" d="M11.6,3.7h5.6v1h-3c-0.3,0.6-0.5,1.2-0.8,1.7h3.1V14c0,0.9-0.4,1.4-1.2,1.4h-1.5l-0.3-0.9h1.4
				c0.4,0,0.6-0.3,0.6-0.7V7.3h-9v8h-1V6.4h3C8.2,5.8,8,5.2,7.7,4.7H4.8v-1h5.7c-0.2-0.4-0.3-0.8-0.5-1.1l1.1-0.2
				C11.3,2.8,11.4,3.2,11.6,3.7z M10.3,8.2c-0.8,1-1.8,1.8-3,2.5L6.6,9.8c1.1-0.6,2.1-1.4,2.9-2.3L10.3,8.2z M13.6,10.2v3.4H8.4
				v-3.4C8.4,10.2,13.6,10.2,13.6,10.2z M12.3,6.4c0.3-0.6,0.6-1.1,0.8-1.7H8.8C9,5.2,9.3,5.8,9.5,6.4H12.3z M12.6,11.2H9.4v1.6h3.3
				L12.6,11.2L12.6,11.2z M15.3,9.9l-0.8,0.7c-0.7-0.7-1.6-1.6-2.8-2.4l0.7-0.6C13.5,8.3,14.5,9.1,15.3,9.9z"/>
			<path class="st4" d="M26.1,3.9h5.2v1H20.9V8c0,3.1-0.5,5.5-1.5,7.4l-0.8-0.7c0.8-1.6,1.3-3.8,1.3-6.7V4H25
				c-0.2-0.5-0.4-0.9-0.7-1.3l1.1-0.2C25.6,2.9,25.9,3.4,26.1,3.9z M26.3,5.5v1.7H31v1h-4.6v2H30v5.2h-1v-0.7h-5.9v0.7h-1v-5.2h3.2
				V5.5H26.3z M29,13.7v-2.6h-5.9v2.6C23.1,13.7,29,13.7,29,13.7z"/>
			<path class="st4" d="M33,11.8c0.2-0.1,0.3-0.2,0.3-0.3V3.8h1v7.6c0.7-0.2,1.4-0.4,2.1-0.7V2.6h1v12.7h-1v-3.6
				c-1,0.4-2,0.7-3.1,0.9L33,11.8z M38.2,9.2l-0.6-0.8C38.8,7,39.5,5,40,2.5l1,0.2c-0.1,0.7-0.3,1.4-0.5,2h4.7v1H44
				c-0.1,2.3-0.7,4.3-1.7,5.9c0.9,1.1,2,2.2,3.2,3.1l-0.7,0.8c-1.2-0.9-2.3-1.9-3.2-3c-0.9,1.2-2.1,2.1-3.6,2.9l-0.6-0.9
				c1.5-0.7,2.6-1.7,3.5-2.8c-0.8-1.1-1.4-2.3-1.9-3.6C38.8,8.5,38.5,8.8,38.2,9.2z M39.7,6.9c0.5,1.4,1.1,2.6,2,3.8
				c0.8-1.4,1.3-3.1,1.4-5h-2.8C40,6.1,39.9,6.5,39.7,6.9z"/>
			<path class="st4" d="M49.4,2.8c-0.1,0.5-0.3,0.9-0.4,1.4h2.7v1h-3.1c-0.4,1-0.8,1.8-1.3,2.6l-0.8-0.5c0.9-1.4,1.5-2.9,1.8-4.7
				L49.4,2.8z M51.4,6.9v0.9h-1.5v1.8h1.9v0.9h-1.9v3.3c0.5-0.2,1-0.4,1.6-0.7l0.2,0.9c-0.8,0.4-1.7,0.8-2.8,1l-0.4-0.8
				c0.3-0.1,0.5-0.2,0.5-0.4v-3.2h-2.1v-1H49V7.8h-1V6.9H51.4z M59.3,10.4c-0.6,0.8-1.3,1.3-2.1,1.7c0.6,0.9,1.3,1.7,2.3,2.3
				L59,15.3c-2.1-1.5-3.4-3.6-3.9-6.2h-1.6V14c0.8-0.2,1.6-0.5,2.4-0.9l0.2,0.9c-1,0.4-2.2,0.8-3.7,1.2l-0.2-0.8
				c0.2-0.1,0.3-0.2,0.3-0.3v-11h5.9V9h-2.5c0.2,0.9,0.4,1.6,0.8,2.3c0.7-0.4,1.3-0.9,1.9-1.6L59.3,10.4z M57.5,4h-4v1.6h4V4z
				 M53.5,8.1h4V6.5h-4V8.1z"/>
			<path class="st4" d="M65,12c-1,1.1-2.1,2.1-3.5,3l-0.6-0.8c1.4-0.8,2.5-1.8,3.4-2.8L65,12z M64.9,15.4l-0.2-1
				c0.5,0,1,0.1,1.4,0.1c0.3,0,0.5-0.2,0.5-0.5v-3.4c-1.3,0.1-2.8,0.2-4.4,0.2l-0.2-1c0.3,0,0.6-0.1,0.9-0.2
				c1.1-0.5,2.4-1.3,3.9-2.4c-1.2,0.1-2.5,0.2-3.9,0.3l-0.2-0.9c0.3,0,0.5-0.1,0.7-0.2c0.7-0.3,1.5-1,2.5-2.1
				c-1.2,0.1-2.5,0.1-3.8,0.1l-0.3-0.9c4,0,7.4-0.3,10-0.9l0.5,0.9C70.7,3.9,69,4.2,67,4.3c-0.9,1-1.8,1.8-2.6,2.4
				c1.1-0.1,2.3-0.1,3.4-0.2c0.6-0.5,1.3-1.1,1.9-1.7l0.9,0.5c-2.4,2.1-4.4,3.6-6.2,4.5c2.3-0.1,4.2-0.3,5.9-0.5
				c-0.4-0.4-0.7-0.9-1.1-1.4L70,7.5c1.1,1.3,2,2.5,2.6,3.5l-0.8,0.6c-0.3-0.5-0.6-1-0.9-1.4c-1,0.1-2,0.2-3.2,0.3v3.8
				c0,0.8-0.4,1.2-1.2,1.2h-1.6C64.9,15.5,64.9,15.4,64.9,15.4z M73.1,14.4l-0.7,0.7c-0.9-1-2-2-3.5-3.2l0.7-0.6
				C71,12.3,72.2,13.3,73.1,14.4z"/>
			<path class="st4" d="M78.1,2.9c-0.7,1.8-1.4,3.2-2.1,4.3c0.6-0.1,1.2-0.2,1.8-0.3c0.3-0.5,0.5-1,0.8-1.5l0.9,0.4
				c-1.2,2.3-2.3,4-3.1,5c1-0.3,2-0.6,3-1v0.9c-1.5,0.6-2.9,1-4.2,1.2L74.8,11c0.2-0.1,0.3-0.2,0.5-0.3c0.5-0.6,1.2-1.5,2-2.8
				C76.5,8,75.7,8.1,75,8.2l-0.3-0.9c0.2-0.1,0.3-0.2,0.4-0.4c0.8-1.3,1.4-2.7,2-4.4L78.1,2.9z M79.4,13.2c-1.3,0.6-2.7,1.2-4.4,1.6
				l-0.1-1c1.7-0.4,3.2-0.9,4.5-1.5V13.2z M81.9,9.3c-0.1,1.8-0.3,3.1-0.7,3.9c-0.4,0.9-1.1,1.6-2,2.2l-0.6-0.8
				c0.8-0.5,1.4-1.1,1.8-1.9c0.3-0.7,0.5-1.9,0.6-3.5L81.9,9.3L81.9,9.3z M79.6,7.8c0.1,0,0.1-0.1,0.2-0.1c0.5-0.4,1.1-1.2,1.8-2.7
				h-2.4V4h3.6c-0.2-0.5-0.4-1-0.6-1.4l1-0.2c0.2,0.5,0.4,1,0.6,1.6H87v1h-4.3c-0.6,1.2-1.2,2.1-1.6,2.7c1.3-0.1,2.6-0.3,3.9-0.5
				c-0.3-0.4-0.6-0.9-1-1.4l0.8-0.5c1,1.2,1.7,2.3,2.2,3.2L86.2,9c-0.2-0.4-0.4-0.7-0.6-1.1c-1.7,0.3-3.6,0.5-5.7,0.6L79.6,7.8z
				 M85,15.1c-0.8,0-1.3-0.4-1.3-1.2V9.1h1v4.6c0,0.3,0.1,0.4,0.3,0.5h0.9c0.3,0,0.5-0.2,0.5-0.5c0.1-0.4,0.1-1,0.1-1.8l0.9,0.3
				c0,1.3-0.1,2.1-0.3,2.5c-0.2,0.3-0.6,0.4-1.2,0.5H85V15.1z"/>
		</g>
	</g>
</g>
<g id="DashRectGroup8" transform="translate(14,223.5)">
	<rect x="4" class="st1" width="775" height="274.5"/>
	<path class="st2" d="M4,0h775v274.5H4V0"/>
	<g transform="translate(10 10)">
		<g class="st3">
			<path class="st4" d="M5.5,15.4l-0.8-0.7c0.6-1.3,0.8-2.9,0.9-4.8V3.2h4.1v10.9c0,0.8-0.4,1.3-1.2,1.3H7.4l-0.2-0.9
				c0.4,0,0.7,0.1,1.1,0.1c0.4,0,0.5-0.3,0.5-0.8v-3.2H6.5C6.5,12.6,6.1,14.2,5.5,15.4z M8.8,4.1H6.5v2.4h2.3V4.1z M6.5,9.7h2.3V7.3
				H6.5V9.7z M11.9,15.4h-1V3.1h5.7c0,1.7-0.1,2.9-0.3,3.4c-0.2,0.6-0.7,0.9-1.6,0.9h-1.1l-0.2-0.8c0.2,0,0.5,0,0.9,0
				c0.3,0,0.6,0,0.7-0.1c0.2-0.1,0.3-0.2,0.4-0.4c0.1-0.3,0.2-1,0.2-2.1h-3.7v4.2h4.8v0.9c-0.3,1.4-0.7,2.7-1.4,3.7
				c0.6,0.6,1.4,1.2,2.2,1.7L17,15.4c-0.9-0.5-1.7-1.1-2.3-1.7c-0.6,0.7-1.3,1.3-2.2,1.7L12,14.6c0.8-0.4,1.5-1,2-1.7
				c-0.9-1.1-1.5-2.3-1.8-3.7h-0.3V15.4z M14.6,12.1c0.5-0.8,0.9-1.8,1.1-2.9h-2.6C13.4,10.3,13.9,11.3,14.6,12.1z"/>
			<path class="st4" d="M23.8,2.7c-0.2,0.4-0.3,0.7-0.5,1.1h6.1v0.8c-0.9,1-2,1.9-3.3,2.6c1.6,0.7,3.3,1.1,5.3,1.3L31,9.4
				c-2.2-0.3-4.2-0.8-5.9-1.7c-1.7,0.8-3.7,1.4-6,1.7l-0.5-1c2-0.3,3.8-0.7,5.4-1.3c-0.8-0.5-1.5-1-2.2-1.6c-0.6,0.5-1.1,1-1.8,1.4
				l-0.6-0.8c1.7-1,2.8-2.1,3.4-3.5L23.8,2.7z M25.2,8.7c0,0.6-0.1,1.1-0.1,1.6H30c0,2.4-0.2,3.8-0.6,4.2c-0.4,0.5-1.1,0.7-2.1,0.7
				c-0.4,0-1,0-1.6-0.1l-0.3-0.9l1.7,0.1c0.8,0,1.4-0.2,1.6-0.5s0.3-1.2,0.4-2.6H25c-0.1,0.4-0.3,0.7-0.4,1
				c-0.7,1.3-2.4,2.3-4.9,3.1L19,14.5c2.3-0.7,3.8-1.5,4.6-2.5c0.2-0.3,0.3-0.5,0.4-0.8h-4.2v-0.9H24c0.1-0.5,0.2-1,0.2-1.6H25.2z
				 M28,4.7h-5.4l-0.2,0.2c0.8,0.7,1.7,1.3,2.6,1.8C26.2,6.1,27.1,5.4,28,4.7z"/>
			<path class="st4" d="M39.6,3.7h5.6v1h-3c-0.3,0.6-0.5,1.2-0.8,1.7h3.1V14c0,0.9-0.4,1.4-1.2,1.4h-1.4l-0.3-0.9H43
				c0.4,0,0.6-0.3,0.6-0.7V7.3h-9v8h-1V6.4h3c-0.2-0.6-0.5-1.2-0.7-1.7H33v-1h5.7c-0.2-0.4-0.3-0.8-0.5-1.1l1.1-0.2
				C39.3,2.8,39.4,3.2,39.6,3.7z M38.3,8.2c-0.8,1-1.8,1.8-3,2.5l-0.6-0.8c1.1-0.6,2.1-1.4,2.9-2.3L38.3,8.2z M41.6,10.2v3.4h-5.2
				v-3.4C36.4,10.2,41.6,10.2,41.6,10.2z M40.3,6.4c0.3-0.6,0.6-1.1,0.8-1.7h-4.2c0.2,0.5,0.5,1.1,0.7,1.7
				C37.6,6.4,40.3,6.4,40.3,6.4z M40.6,11.2h-3.3v1.6h3.3V11.2z M43.3,9.9l-0.8,0.7c-0.7-0.8-1.6-1.6-2.8-2.5l0.7-0.6
				C41.5,8.3,42.5,9.1,43.3,9.9z"/>
			<path class="st4" d="M51,12c-1,1.1-2.1,2.1-3.5,3l-0.6-0.8c1.4-0.8,2.5-1.8,3.4-2.8L51,12z M50.9,15.4l-0.2-1
				c0.5,0,1,0.1,1.4,0.1c0.3,0,0.5-0.2,0.5-0.5v-3.4c-1.3,0.1-2.8,0.2-4.4,0.2l-0.2-1c0.3,0,0.6-0.1,0.9-0.2
				c1.1-0.5,2.4-1.3,3.9-2.4c-1.2,0.1-2.5,0.2-3.9,0.3l-0.2-0.9c0.3,0,0.5-0.1,0.7-0.2c0.7-0.3,1.5-1,2.5-2.1
				c-1.2,0.1-2.5,0.1-3.8,0.1l-0.3-0.9c4,0,7.4-0.3,10-0.9l0.5,0.9C56.7,3.9,55,4.2,53,4.3c-0.9,1-1.8,1.8-2.6,2.4
				c1.1-0.1,2.3-0.1,3.4-0.2c0.6-0.5,1.3-1.1,1.9-1.7l0.9,0.5c-2.4,2.1-4.4,3.6-6.2,4.5c2.3-0.1,4.2-0.3,5.9-0.5
				c-0.4-0.4-0.7-0.9-1.1-1.4L56,7.5c1.1,1.3,2,2.5,2.6,3.5l-0.8,0.6c-0.3-0.5-0.6-1-0.9-1.4c-1,0.1-2,0.2-3.2,0.3v3.8
				c0,0.8-0.4,1.2-1.2,1.2h-1.6C50.9,15.5,50.9,15.4,50.9,15.4z M59.1,14.4l-0.7,0.7c-0.9-1-2-2-3.5-3.2l0.7-0.6
				C57,12.3,58.2,13.3,59.1,14.4z"/>
			<path class="st4" d="M64.1,2.9c-0.7,1.8-1.4,3.2-2.1,4.3c0.6-0.1,1.2-0.2,1.8-0.3c0.3-0.5,0.5-1,0.8-1.5l0.9,0.4
				c-1.2,2.3-2.3,4-3.1,5c1-0.3,2-0.6,3-1v0.9c-1.5,0.6-2.9,1-4.2,1.2L60.8,11c0.2-0.1,0.3-0.2,0.5-0.3c0.5-0.6,1.2-1.5,2-2.8
				C62.5,8,61.7,8.1,61,8.2l-0.3-0.9c0.2-0.1,0.3-0.2,0.4-0.4c0.8-1.3,1.4-2.7,2-4.4L64.1,2.9z M65.4,13.2c-1.3,0.6-2.7,1.2-4.4,1.6
				l-0.1-1c1.7-0.4,3.2-0.9,4.5-1.5V13.2z M67.9,9.3c-0.1,1.8-0.3,3.1-0.7,3.9c-0.4,0.9-1.1,1.6-2,2.2l-0.6-0.8
				c0.8-0.5,1.4-1.1,1.8-1.9c0.3-0.7,0.5-1.9,0.6-3.5L67.9,9.3L67.9,9.3z M65.6,7.8c0.1,0,0.1-0.1,0.2-0.1c0.5-0.4,1.1-1.2,1.8-2.7
				h-2.4V4h3.6c-0.2-0.5-0.4-1-0.6-1.4l1-0.2c0.2,0.5,0.4,1,0.6,1.6H73v1h-4.3c-0.6,1.2-1.2,2.1-1.6,2.7c1.3-0.1,2.6-0.3,3.9-0.5
				c-0.3-0.4-0.6-0.9-1-1.4l0.8-0.5c1,1.2,1.7,2.3,2.2,3.2L72.2,9c-0.2-0.4-0.4-0.7-0.6-1.1c-1.7,0.3-3.6,0.5-5.7,0.6L65.6,7.8z
				 M71,15.1c-0.8,0-1.3-0.4-1.3-1.2V9.1h1v4.6c0,0.3,0.1,0.4,0.3,0.5h0.9c0.3,0,0.5-0.2,0.5-0.5c0.1-0.4,0.1-1,0.1-1.8l0.9,0.3
				c0,1.3-0.1,2.1-0.3,2.5c-0.2,0.3-0.6,0.4-1.2,0.5H71V15.1z"/>
		</g>
	</g>
</g>
<g id="GrayRectGroup9" transform="translate(17.9375,262.5)">
	<rect x="11.6" y="-2" class="st5" width="262.5" height="228.8"/>
	<g transform="translate(10 10)">
		<g class="st3">
			<path class="st4" d="M19.2,1.7h5.6v1h-3c-0.3,0.6-0.5,1.2-0.8,1.7h3.1V12c0,0.9-0.4,1.4-1.2,1.4h-1.4l-0.3-0.9h1.4
				c0.4,0,0.6-0.3,0.6-0.7V5.3h-9v8h-1V4.4h3c-0.2-0.6-0.5-1.2-0.7-1.7h-3.1v-1h5.7c-0.2-0.4-0.3-0.8-0.5-1.1l1.1-0.2
				C18.8,0.8,19,1.2,19.2,1.7z M17.9,6.2c-0.8,1-1.8,1.8-3,2.5l-0.6-0.8c1.1-0.6,2.1-1.4,2.9-2.3L17.9,6.2z M21.2,8.2v3.4H16V8.2
				H21.2z M19.9,4.4c0.3-0.6,0.6-1.1,0.8-1.7h-4.2c0.2,0.5,0.5,1.1,0.7,1.7H19.9z M20.2,9.2H17v1.6h3.3L20.2,9.2L20.2,9.2z
				 M22.9,7.9l-0.8,0.7c-0.7-0.8-1.6-1.6-2.8-2.5L20,5.5C21.1,6.3,22.1,7.1,22.9,7.9z"/>
			<path class="st4" d="M26.8,13.5l-0.7-0.7c1.1-1.6,1.7-3.6,1.7-6.1V2.3h4.6c-0.3-0.6-0.5-1.1-0.8-1.6l1.1-0.2
				C33,1,33.2,1.6,33.5,2.3h4.4V7h-9C28.7,9.5,28.1,11.6,26.8,13.5z M28.8,3.3V6h8V3.3H28.8z"/>
			<path class="st4" d="M47,0.6c1.2,1.9,3.2,3.6,6.1,5.1l-0.6,0.9c-2.6-1.4-4.6-3.1-5.9-5.1c-1.6,2.2-3.5,3.9-5.9,5.1l-0.6-0.9
				c2.6-1.3,4.6-3.1,6.1-5.2H47V0.6z M47.1,4.7v8.7h-1V4.7H47.1z"/>
			<path class="st4" d="M55.4,3.3c0,1.4-0.2,2.7-0.5,4l-0.8-0.2c0.3-1.2,0.5-2.5,0.5-3.8L55.4,3.3z M57.2,0.6v12.7h-1V0.6H57.2z
				 M59,5.3c0.5-1.2,0.8-2.5,0.8-3.9l0.9,0.1c0,0.6-0.1,1.1-0.2,1.7h2V0.6h1v2.6h3.1v1h-3.1v3.4h2.8v1h-2.8V12H67v1h-8.5v-1h4V8.6
				h-3.2v-1h3.2V4.2h-2.2c-0.3,1-0.6,2-1.1,2.8l-0.7-0.7C58.7,6,58.8,5.7,59,5.3l-0.8,0.3C58,4.8,57.7,4,57.4,3.2L58.1,3
				C58.5,3.7,58.7,4.4,59,5.3z"/>
			<path class="st4" d="M73.4,0.9c-0.5,1.2-1.1,2.3-1.9,3.3v9.2h-1v-8c-0.6,0.7-1.3,1.3-2.1,2l-0.3-1.1c2-1.7,3.4-3.7,4.3-5.9
				L73.4,0.9z M76.2,13.2c-1,0-1.5-0.5-1.5-1.5V7.4c-0.6,0.3-1.2,0.6-1.8,0.9l-0.4-1c0.8-0.4,1.5-0.7,2.3-1.2V0.6h1v5
				c1.5-1,2.8-2.1,3.9-3.3l0.7,0.8c-1.3,1.4-2.8,2.6-4.6,3.7v4.7c0,0.4,0.2,0.7,0.7,0.7h2.3c0.4,0,0.6-0.1,0.8-0.3
				c0.2-0.2,0.3-1,0.3-2.4l0.9,0.3c-0.1,1.6-0.3,2.6-0.5,2.9c-0.3,0.3-0.7,0.5-1.4,0.5C78.9,13.2,76.2,13.2,76.2,13.2z"/>
			<path class="st4" d="M85.1,13.4h-1v-7c-0.4,1.3-1,2.5-1.7,3.6L82,8.9c1-1.3,1.7-2.9,2.1-4.6V4.2h-1.6V3.3h1.6V0.6h1v2.7h1.5v0.9
				h-1.5v0.9c0.6,0.7,1.2,1.6,1.9,2.5l-0.5,0.8c-0.5-0.9-1-1.7-1.3-2.2L85.1,13.4L85.1,13.4z M89.8,11.5c-0.6,0.8-1.8,1.4-3.4,1.9
				L86,12.6c1.4-0.4,2.4-0.9,3-1.6c0.1-0.2,0.3-0.4,0.4-0.6h-3.3v-1h3.7c0.1-0.3,0.2-0.7,0.3-1.1h-2.9V4.1h6.7v4.2H91
				c-0.1,0.4-0.1,0.7-0.2,1.1h4v0.9h-3.5c0.8,1,2,1.7,3.7,2.3l-0.7,0.8c-1.8-0.8-3.1-1.8-3.9-2.9C90.2,10.9,90,11.2,89.8,11.5z
				 M88.5,1.7V0.6h0.9v1.1h2.3V0.6h1v1.1h2.2v0.9h-2.2v1h-1v-1h-2.3v1h-0.9v-1h-2V1.7H88.5z M93,5.9v-1h-4.9v0.9L93,5.9L93,5.9z
				 M93,6.6h-4.9v1H93V6.6z"/>
			<path class="st4" d="M97.8,4.3V0.6h1v3.6h1.6v1h-1.6v4.7c0.6-0.2,1.3-0.5,1.9-0.8v1c-1.4,0.6-2.8,1.2-4.4,1.6l-0.3-1
				c0.6-0.1,1.2-0.3,1.8-0.5v-5h-1.6v-1h1.6V4.3z M100.5,13.4l-0.6-0.8c1.8-1,3-2.6,3.5-4.8h-2.9v-1h3c0.1-0.6,0.1-1.2,0.1-1.9V3.7
				H101v-1h2.6V0.6h1v2.1h3v4.1h1.2v1h-4c0.9,2,2.2,3.6,4.1,4.8l-0.7,0.8c-1.9-1.4-3.3-3.1-4.1-5.1
				C103.6,10.6,102.3,12.3,100.5,13.4z M104.6,4.7c0,0.7-0.1,1.4-0.1,2.1h2.2V3.7h-2.1V4.7z"/>
		</g>
	</g>
</g>
<rect x="307.8" y="260.5" class="st5" width="472.2" height="228.8"/>
<g transform="translate(10 10)">
	<g class="st3">
		<path class="st4" d="M324.4,267.8v1h-6.7c-1.3,2.6-2.4,4.5-3.4,5.5c2.5-0.1,5-0.4,7.5-0.7c-0.5-0.9-1.1-1.8-1.7-2.8l0.8-0.5
			c1.3,1.9,2.3,3.6,3,5.1L323,276c-0.2-0.5-0.5-1-0.7-1.5c-2.8,0.4-5.9,0.6-9.3,0.9l-0.3-1c0.1,0,0.2-0.1,0.2-0.1
			c0.9-0.7,2.1-2.5,3.6-5.5h-4.6v-1H324.4z M323.1,263.9v1h-10v-1H323.1z"/>
		<path class="st4" d="M332.5,263.1v1.8h5.5v1h-5.5v2.1h3.8v0.9c-0.8,1.6-1.9,2.9-3.4,4c0.7,0.4,1.5,0.8,2.3,1.1
			c1,0.4,2.1,0.7,3.2,1l-0.6,0.9c-1.2-0.3-2.4-0.7-3.4-1.2c-0.9-0.4-1.6-0.8-2.3-1.2c-1.6,1-3.5,1.8-5.7,2.4l-0.6-0.9
			c2.1-0.5,4-1.2,5.5-2.1c-0.7-0.5-1.4-1.2-1.9-1.9c-0.5-0.6-0.9-1.4-1.1-2.1h-1.1V268h4.3v-2.1h-5.4v-1h5.4v-1.8H332.5z M335.2,269
			h-6c0.3,0.7,0.6,1.4,1.2,2c0.5,0.6,1.1,1.1,1.7,1.5C333.4,271.4,334.4,270.3,335.2,269z"/>
		<path class="st4" d="M343.8,263.4c-0.3,1-0.7,1.9-1.1,2.8v9.8h-1v-8.2c-0.5,0.7-1.1,1.4-1.7,2.1l-0.4-1c1.5-1.7,2.6-3.7,3.2-5.9
			L343.8,263.4z M349.4,266.1v-3h1v3h2v1h-2v7.3c0,1-0.4,1.4-1.3,1.4h-2l-0.2-1c0.7,0,1.3,0.1,1.9,0.1c0.4,0,0.7-0.3,0.7-0.8v-7H344
			v-1H349.4z M347.8,271.9l-0.8,0.6c-0.6-1-1.4-2.2-2.4-3.4l0.8-0.5C346.4,269.9,347.2,271,347.8,271.9z"/>
		<path class="st4" d="M365.8,263.7v1h-5.2v5.3h5.7v1h-5.7v5h-1v-5H354v-1h5.6v-5.3h-5.1v-1H365.8z M357.6,268.8l-0.9,0.5
			c-0.5-1.2-1-2.3-1.5-3.2l0.9-0.5C356.6,266.5,357.1,267.6,357.6,268.8z M365,265.9c-0.4,1.1-1,2.2-1.7,3.2l-0.9-0.5
			c0.7-1.1,1.2-2.2,1.6-3.2L365,265.9z"/>
		<path class="st4" d="M368.2,267.7c1.2-0.4,2.8-2,4.6-4.7l1,0.4c-1.3,1.8-2.5,3.2-3.8,4.3c2.7-0.1,5.2-0.3,7.6-0.5
			c-0.5-0.8-1.1-1.5-1.6-2.1l0.9-0.4c1.2,1.4,2.3,3,3.4,4.7l-1,0.5c-0.4-0.6-0.7-1.1-1-1.7c-3,0.3-6.2,0.5-9.9,0.6L368.2,267.7z
			 M378.8,275.9h-1v-0.7h-7.3v0.7h-1v-5.8h9.4L378.8,275.9L378.8,275.9z M377.8,274.2V271h-7.3v3.2H377.8z"/>
		<path class="st4" d="M394,262.9c-0.6,0.9-1,1.9-1.3,2.9c-0.4,1.2-0.6,2.4-0.6,3.6s0.2,2.4,0.6,3.6c0.3,1,0.8,2,1.3,2.9h-1
			c-0.6-0.9-1.1-1.9-1.4-2.9c-0.4-1.2-0.6-2.4-0.6-3.6s0.2-2.5,0.6-3.7c0.3-1,0.8-2,1.4-2.9h1V262.9z"/>
		<path class="st4" d="M396.5,275.9l-0.7-0.7c0.4-1.3,0.7-2.9,0.7-4.8v-6.8h3.6v11.1c0,0.7-0.4,1.1-1.1,1.1h-1l-0.2-0.9
			c0.3,0,0.6,0,0.9,0s0.5-0.2,0.5-0.6v-3.1h-1.7C397.2,273.1,397,274.6,396.5,275.9z M399,264.6h-1.7v2.4h1.7V264.6z M397.4,270.2
			h1.7v-2.3h-1.7V270.2z M402,265c-0.2-0.5-0.4-0.9-0.7-1.3l0.9-0.3c0.3,0.4,0.5,1,0.7,1.6h0.7c0.2-0.6,0.3-1.3,0.4-2l1,0.1
			c-0.1,0.7-0.2,1.3-0.4,1.9h1.1c0.3-0.5,0.6-1.1,0.8-1.7l0.9,0.3c-0.3,0.5-0.5,1-0.8,1.4h1.2v0.8h-3.5c-0.1,0.4-0.3,0.8-0.5,1.1
			h4.4v0.9H406c0.6,0.7,1.4,1.3,2.6,1.7l-0.4,0.9c-0.6-0.3-1.1-0.6-1.6-0.9v0.1c-0.1,0.8-0.2,1.5-0.4,2h1.5c0,2.3-0.2,3.6-0.5,3.9
			s-0.8,0.4-1.7,0.4h-0.6l-0.3-0.9c0.3,0,0.6,0,0.9,0c0.5,0,0.8-0.1,1-0.2c0.2-0.2,0.3-1,0.3-2.4h-5.2c0.3-0.8,0.5-1.5,0.6-2.1
			l0.9,0.1c-0.1,0.4-0.2,0.8-0.3,1.2h2.6c0.1-0.5,0.3-1,0.3-1.7H402v-0.4c-0.4,0.3-0.9,0.7-1.4,1l-0.5-0.8c0.9-0.5,1.6-1.1,2.2-1.8
			h-1.7V267h2.3c0.2-0.4,0.4-0.7,0.5-1.1H401V265H402z M405.6,273.3v0.9h-5v-0.9H405.6z M406.2,269.1c-0.5-0.4-0.8-0.9-1.1-1.3h-1.8
			c-0.3,0.5-0.7,0.9-1.1,1.3H406.2z"/>
		<path class="st4" d="M412.6,267.3v6.2c0.4-0.4,0.9-0.8,1.4-1.4l0.3,1.1c-0.8,0.8-1.7,1.5-2.6,2.2l-0.4-0.9
			c0.2-0.2,0.3-0.4,0.3-0.6v-5.6h-1.9v-1L412.6,267.3L412.6,267.3z M413.5,265.4l-0.7,0.7c-0.6-0.7-1.3-1.4-2.3-2.2l0.7-0.7
			C412.2,263.9,413,264.6,413.5,265.4z M416,268.5v-3.8h-2v-1h6.4v4.3c0,2.8,0.2,4.7,0.6,5.9c0.2,0.4,0.4,0.7,0.5,0.7
			s0.1-0.2,0.2-0.5c0-0.4,0.1-1,0.1-1.7l0.8,0.4c-0.1,1.3-0.2,2.2-0.3,2.6c-0.1,0.3-0.3,0.4-0.5,0.4c-0.5,0-1-0.3-1.4-1
			c-0.7-1.2-1-3.4-1-6.7v-3.4h-2.6v3.8h1.9v1h-1.9v6.4h-1v-6.4h-2.1v-1L416,268.5L416,268.5z"/>
		<path class="st4" d="M436.4,267.8v1h-6.7c-1.3,2.6-2.4,4.5-3.4,5.5c2.5-0.1,5-0.4,7.5-0.7c-0.5-0.9-1.1-1.8-1.7-2.8l0.8-0.5
			c1.3,1.9,2.3,3.6,3,5.1L435,276c-0.2-0.5-0.5-1-0.7-1.5c-2.8,0.4-5.9,0.6-9.3,0.9l-0.3-1c0.1,0,0.2-0.1,0.2-0.1
			c0.9-0.7,2.1-2.5,3.6-5.5h-4.7v-1C423.8,267.8,436.4,267.8,436.4,267.8z M435.1,263.9v1h-10v-1H435.1z"/>
		<path class="st4" d="M438.1,275.8l-0.2-1c0.4,0,0.8,0.1,1.1,0.1c0.3,0,0.5-0.2,0.5-0.5v-3.5c-0.5,0.2-1.1,0.4-1.6,0.6l-0.2-1
			c0.6-0.2,1.2-0.4,1.9-0.6v-3.2H438v-1h1.7v-2.6h1v2.6h1.4v1h-1.5v2.7c0.4-0.2,0.8-0.4,1.2-0.6v1c-0.4,0.2-0.8,0.4-1.2,0.6v4.1
			c0,0.8-0.4,1.2-1.2,1.2L438.1,275.8L438.1,275.8z M450.1,269.4v0.9h-3.5v1.6h2.9v0.9h-2.9v1.8c0.6,0.1,1.2,0.1,2,0.1
			c0.7,0,1.4,0,1.9-0.1l-0.3,1c-0.6,0-1.1,0-1.5,0c-1.8,0-3.1-0.2-3.8-0.5c-0.5-0.3-1-0.8-1.4-1.6c-0.3,0.9-0.8,1.7-1.4,2.4
			l-0.7-0.6c1.1-1.3,1.7-2.7,1.8-4.3l0.9,0.1c0,0.5-0.1,1-0.2,1.5c0.4,0.9,1,1.5,1.6,1.8c0.1,0,0.2,0.1,0.3,0.1v-4.2h-3.5v-0.9
			L450.1,269.4L450.1,269.4z M449.2,263.5v4.9h-6.1v-4.9H449.2z M448.2,265.6v-1.2h-4.1v1.2H448.2z M448.2,266.4h-4.1v1.2h4.1V266.4
			z"/>
		<path class="st4" d="M451.9,269.8l-0.3-1c1.5-1.7,2.6-3.7,3.3-5.8l1,0.4c-0.4,1.1-0.9,2.1-1.4,3.1v9.4h-1v-7.8
			C452.9,268.7,452.4,269.3,451.9,269.8z M457.6,266v-2.9h1v2.9h2.5v-2.9h1v2.9h1.9v1h-1.9v3.3h2.3v1h-9v-1h2.2V267h-1.8v-1H457.6z
			 M459,272.3c-0.7,1.4-1.6,2.6-2.6,3.6l-0.9-0.6c1-0.9,1.8-2.1,2.5-3.4L459,272.3z M461.2,270.3V267h-2.5v3.3H461.2z M464.4,275.2
			l-0.9,0.6c-0.6-1.1-1.5-2.3-2.6-3.6l0.8-0.5C462.9,273.1,463.8,274.3,464.4,275.2z"/>
		<path class="st4" d="M467.1,262.9c0.6,0.9,1.1,1.9,1.4,2.9c0.4,1.2,0.6,2.4,0.6,3.7c0,1.2-0.2,2.4-0.6,3.6c-0.4,1-0.8,2-1.4,2.9
			h-1c0.6-0.9,1-1.9,1.3-2.9c0.4-1.2,0.6-2.5,0.6-3.6c0-1.2-0.2-2.4-0.6-3.6c-0.3-1-0.8-2-1.3-2.9h1V262.9z"/>
	</g>
</g>
<rect x="18" y="518.7" class="st5" width="382.5" height="116"/>
<g transform="translate(10 10)">
	<g class="st3">
		<path class="st4" d="M19.7,524.5L19,524c0.8-0.9,1.4-1.8,1.7-2.8l0.9,0.2c-0.2,0.3-0.3,0.6-0.4,0.8h3.4v0.9h-2.1
			c0.4,0.4,0.6,0.8,0.7,1.2l-0.8,0.3c-0.3-0.5-0.6-1-0.9-1.5h-0.7C20.5,523.6,20.2,524.1,19.7,524.5z M20,525.9V525h9.4v3.2h-4.1
			v1.4H30c0,1.7-0.1,2.7-0.3,3.1c-0.2,0.5-0.6,0.7-1.4,0.7c-0.6,0-1.1,0-1.6,0l-0.3-1c0.6,0,1.2,0,1.7,0c0.4,0,0.6-0.2,0.7-0.5
			s0.1-0.8,0.1-1.6h-3.7v3.7h-0.9v-3.7l0,0c-0.8,1.3-2.4,2.5-4.8,3.4l-0.6-0.9c2-0.7,3.5-1.6,4.2-2.5h-3.5l0.6-3.2h3.9v-1.2H20z
			 M21.2,528.1l-0.3,1.4h3.5v-1.4H21.2z M25.2,524.5l-0.7-0.5c0.7-0.9,1.2-1.8,1.6-2.8l0.9,0.2c-0.1,0.2-0.3,0.5-0.4,0.8h3.8v0.9
			h-2.3c0.4,0.4,0.6,0.9,0.7,1.2l-0.8,0.3c-0.3-0.5-0.6-1.1-0.9-1.6h-0.9C26,523.6,25.6,524.1,25.2,524.5z M28.4,527.2v-1.3h-3.2
			v1.3H28.4z"/>
		<path class="st4" d="M43.3,532.3v1H31.7v-1H43.3z M42.4,522.3v1h-9.7v-1H42.4z M41.6,527.2v1h-8v-1H41.6z"/>
		<path class="st4" d="M50.3,523.3c-0.3-0.6-0.6-1.2-0.9-1.8l0.9-0.3c0.4,0.6,0.7,1.3,1,2.1H56v1h-6.8l-0.1,2.5l0,0h5.3
			c0,2.8-0.1,4.6-0.3,5.3c-0.3,1.2-0.9,1.8-1.9,1.8c-0.4,0-0.9,0-1.5-0.1l-0.3-0.9c0.6,0,1.2,0,1.7,0c0.6,0,1-0.5,1.2-1.5
			c0.1-0.6,0.1-1.9,0.2-3.8H49c-0.2,1.1-0.5,2.2-0.9,3.1c-0.6,1.2-1.5,2.3-2.7,3.3l-0.6-0.6c1.4-1.3,2.3-2.4,2.8-3.5
			s0.6-2.3,0.7-3.6c0-0.9,0.1-1.6,0.1-2h-3.6v-1H50.3z"/>
		<path class="st4" d="M63.6,521.3v1.8h5v1h-5v2.1h3.5v0.9c-0.7,1.6-1.7,2.9-3.1,4c0.6,0.4,1.4,0.8,2.1,1.1c0.9,0.4,1.9,0.7,2.9,1
			l-0.6,0.9c-1.1-0.3-2.2-0.7-3.1-1.2c-0.8-0.4-1.5-0.8-2.1-1.2c-1.5,1-3.2,1.8-5.2,2.4l-0.6-0.9c1.9-0.5,3.7-1.2,5-2.1
			c-0.6-0.5-1.3-1.2-1.7-1.9c-0.5-0.6-0.8-1.4-1-2.1h-1v-0.9h4v-2.1h-5.1v-1h5v-1.8H63.6z M66,527.2h-5.5c0.3,0.7,0.6,1.4,1.1,2
			s0.9,1.1,1.6,1.5C64.4,529.6,65.4,528.5,66,527.2z"/>
		<path class="st4" d="M73.9,521.6c-0.3,1-0.6,1.9-1,2.8v9.8H72V526c-0.6,0.7-1.1,1.4-1.7,2.1L70,527c1.4-1.7,2.3-3.6,2.9-5.9
			L73.9,521.6z M79.1,524.3v-3H80v3h1.8v1H80v7.3c0,1-0.4,1.4-1.2,1.4H77l-0.2-1c0.6,0,1.2,0.1,1.7,0.1c0.4,0,0.6-0.3,0.6-0.8v-7h-5
			v-1C74.2,524.3,79.1,524.3,79.1,524.3z M77.6,530.1l-0.8,0.6c-0.6-1-1.3-2.2-2.2-3.4l0.7-0.5C76.3,528.1,77,529.2,77.6,530.1z"/>
	</g>
</g>
<rect x="410.6" y="517" class="st5" width="383" height="119.3"/>
<g transform="translate(10 10)">
	<g class="st3">
		<path class="st4" d="M420.3,518.3c-0.1,0.5-0.3,0.9-0.4,1.4h2.7v1h-3.1c-0.4,1-0.8,1.8-1.3,2.6l-0.8-0.5c0.9-1.4,1.5-2.9,1.8-4.7
			L420.3,518.3z M422.3,522.4v0.9h-1.5v1.8h1.9v0.9h-1.9v3.3c0.5-0.2,1-0.4,1.6-0.7l0.2,0.9c-0.8,0.4-1.7,0.8-2.8,1l-0.4-0.8
			c0.3-0.1,0.5-0.2,0.5-0.4v-3.2h-2.1v-0.9h2.1v-1.8h-1v-0.9L422.3,522.4L422.3,522.4z M430.2,525.9c-0.6,0.8-1.3,1.3-2.1,1.7
			c0.6,0.9,1.3,1.7,2.3,2.3l-0.5,0.9c-2.1-1.5-3.4-3.6-3.9-6.2h-1.6v4.9c0.8-0.2,1.6-0.5,2.4-0.9l0.2,0.9c-1,0.4-2.2,0.8-3.7,1.2
			l-0.2-0.8c0.2-0.1,0.3-0.2,0.3-0.3v-10.9h5.9v5.9h-2.5c0.2,0.9,0.4,1.6,0.8,2.3c0.7-0.4,1.3-0.9,1.9-1.6L430.2,525.9z
			 M428.4,519.5h-4v1.6h4V519.5z M424.4,523.6h4V522h-4V523.6z"/>
		<path class="st4" d="M435.6,518.6c-0.8,1.6-2,2.9-3.8,4.1l-0.3-1c1.5-1,2.5-2.2,3.2-3.5L435.6,518.6z M436.2,521.8
			c-0.4,0.8-0.9,1.5-1.5,2.2v6.9h-1v-5.8c-0.6,0.5-1.2,1-1.8,1.5l-0.3-1c1.7-1.2,3-2.6,3.7-4.1L436.2,521.8z M444.2,522.5v1h-2.3
			v6.1c0,0.8-0.5,1.2-1.4,1.2h-2.1l-0.2-1c0.7,0,1.3,0.1,1.9,0.1c0.4,0,0.7-0.2,0.7-0.5v-5.9h-4.4v-1L444.2,522.5L444.2,522.5z
			 M443.6,519v1h-6.7v-1H443.6z"/>
		<path class="st4" d="M446.4,530.9l-0.8-0.7c0.6-1.3,0.8-2.9,0.9-4.8v-6.7h4.1v10.9c0,0.8-0.4,1.3-1.2,1.3h-1.1l-0.2-0.9
			c0.4,0,0.7,0.1,1.1,0.1c0.3,0,0.5-0.3,0.5-0.8v-3.2h-2.3C447.4,528.1,447,529.7,446.4,530.9z M449.7,519.6h-2.3v2.4h2.3V519.6z
			 M447.4,525.2h2.3v-2.3h-2.3V525.2z M452.8,530.9h-1v-12.3h5.7c0,1.7-0.1,2.9-0.3,3.4c-0.2,0.6-0.7,0.9-1.6,0.9h-1.1l-0.3-0.9
			c0.2,0,0.5,0,0.9,0c0.3,0,0.6,0,0.7-0.1c0.2-0.1,0.3-0.2,0.4-0.4c0.1-0.3,0.2-1,0.2-2.1h-3.7v4.2h4.8v0.9
			c-0.3,1.4-0.7,2.7-1.4,3.7c0.6,0.6,1.4,1.2,2.2,1.7l-0.5,0.9c-0.9-0.5-1.7-1.1-2.3-1.7c-0.6,0.7-1.3,1.3-2.2,1.7l-0.5-0.8
			c0.8-0.4,1.5-1,2-1.7c-0.9-1.1-1.5-2.3-1.8-3.7h-0.3L452.8,530.9L452.8,530.9z M455.5,527.6c0.5-0.8,0.9-1.8,1.1-2.9h-2.7
			C454.3,525.8,454.8,526.8,455.5,527.6z"/>
		<path class="st4" d="M464.7,518.2c-0.2,0.4-0.3,0.7-0.5,1.1h6.1v0.8c-0.9,1-2,1.9-3.3,2.6c1.6,0.7,3.3,1.1,5.3,1.3l-0.5,0.9
			c-2.2-0.3-4.2-0.8-5.9-1.7c-1.7,0.8-3.7,1.4-6,1.7l-0.5-1c2-0.3,3.8-0.7,5.4-1.3c-0.8-0.5-1.5-1-2.2-1.6c-0.5,0.5-1.1,0.9-1.8,1.3
			l-0.6-0.8c1.7-1,2.8-2.1,3.4-3.5L464.7,518.2z M466.1,524.2c0,0.6-0.1,1.1-0.1,1.6h4.9c0,2.4-0.2,3.8-0.6,4.2
			c-0.4,0.5-1.1,0.7-2.1,0.7c-0.4,0-1,0-1.6-0.1l-0.3-0.9l1.7,0.1c0.8,0,1.4-0.2,1.6-0.5s0.3-1.2,0.4-2.6h-4.1
			c-0.1,0.4-0.3,0.7-0.4,1c-0.7,1.3-2.4,2.3-4.9,3.1l-0.7-0.8c2.3-0.7,3.8-1.5,4.6-2.5c0.2-0.3,0.3-0.5,0.4-0.8h-4.2v-0.9h4.5
			c0.1-0.5,0.2-1,0.2-1.6H466.1z M468.9,520.2h-5.4l-0.2,0.2c0.8,0.7,1.7,1.3,2.6,1.8C467.1,521.6,468,520.9,468.9,520.2z"/>
		<path class="st4" d="M480.5,519.2h5.6v1h-3c-0.3,0.6-0.5,1.2-0.8,1.7h3.1v7.6c0,0.9-0.4,1.4-1.2,1.4h-1.4l-0.3-0.9h1.4
			c0.4,0,0.6-0.3,0.6-0.7v-6.4h-9v8h-1V522h3c-0.2-0.6-0.5-1.2-0.7-1.7h-2.9v-1h5.7c-0.2-0.4-0.3-0.8-0.5-1.1l1.1-0.2
			C480.2,518.3,480.3,518.7,480.5,519.2z M479.2,523.7c-0.8,1-1.8,1.8-3,2.5l-0.6-0.8c1.1-0.6,2.1-1.4,2.9-2.3L479.2,523.7z
			 M482.5,525.7v3.4h-5.2v-3.4H482.5z M481.2,521.9c0.3-0.6,0.6-1.1,0.8-1.7h-4.2c0.2,0.5,0.5,1.1,0.7,1.7H481.2z M481.5,526.7h-3.3
			v1.6h3.3V526.7z M484.2,525.4l-0.8,0.7c-0.7-0.8-1.6-1.6-2.8-2.5l0.7-0.6C482.4,523.8,483.4,524.6,484.2,525.4z"/>
	</g>
</g>
<g id="Link34" transform="translate(0,0)">
	<path class="st6" d="M294.5,206.5v12"/>
	<g transform="translate(0, 0.5)">
		<polygon class="st7" points="290,213.5 294.5,219.5 299,213.5 		"/>
	</g>
	<path class="st8" d="M294.5,206.5v12"/>
</g>
<g id="Link35" transform="translate(0,0)">
	<path class="st6" d="M616.5,50.5v15l0,0v14"/>
	<g transform="translate(0, 0.5)">
		<polygon class="st7" points="612,74.5 616.5,80.5 621,74.5 		"/>
	</g>
	<path class="st8" d="M616.5,50.5v15"/>
	<path class="st8" d="M616.5,65.5L616.5,65.5"/>
	<path class="st8" d="M616.5,65.5v14"/>
</g>
<g id="Link36" transform="translate(0,0)">
	<path class="st6" d="M186.6,55.5v12l0,0v12"/>
	<g transform="translate(0, 0.5)">
		<polygon class="st7" points="182.1,74.5 186.6,80.5 191.1,74.5 		"/>
	</g>
	<path class="st8" d="M186.6,55.5v12"/>
	<path class="st8" d="M186.6,67.5L186.6,67.5"/>
	<path class="st8" d="M186.6,67.5v12"/>
</g>
<g id="Link37" transform="translate(0,0)">
	<path class="st6" d="M521.5,223.5v-12"/>
	<g transform="translate(0, -0.5)">
		<polygon class="st7" points="526,216.5 521.5,210.5 517,216.5 		"/>
	</g>
	<path class="st8" d="M521.5,223.5v-12"/>
</g>
<g id="Link38" transform="translate(0,0)">
	<path class="st6" d="M574,498.4v17"/>
	<g transform="translate(0, 0.5)">
		<polygon class="st7" points="569.5,510.4 574,516.4 578.5,510.4 		"/>
	</g>
	<path class="st8" d="M574,498.4v17"/>
</g>
<g id="Link39" transform="translate(0,0)">
	<path class="st6" d="M619,517.4v-17"/>
	<g transform="translate(0, -0.5)">
		<polygon class="st7" points="623.5,505.4 619,499.4 614.5,505.4 		"/>
	</g>
	<path class="st8" d="M619,517.4v-17"/>
</g>
<g id="RectEndPoint1" transform="translate(14,6)">
	<rect x="115.1" y="2" class="st9" width="120" height="50"/>
	<rect x="113.1" class="st10" width="120" height="50"/>
	<g transform="translate(20 9)">
		<g>
			<g>
				<path class="st11" d="M125.1,5.1c2.2,0,4,1.8,4,4s-1.8,4-4,4s-4-1.8-4-4S122.9,5.1,125.1,5.1 M125.1,3.1c-3.3,0-6,2.7-6,6
					s2.7,6,6,6c3.3,0,6-2.7,6-6S128.4,3.1,125.1,3.1z"/>
				<path class="st11" d="M129.1,19.1c3.3,0,6,2.7,6,6v1h-20v-1c0-3.3,2.7-6,6-6H129.1 M129.1,17.1h-8c-4.4,0-8,3.6-8,8v3h24v-3
					C137.1,20.7,133.5,17.1,129.1,17.1z"/>
				<path class="st11" d="M138.1,17.1h-3c0.8,0.6,1.4,1.2,2,2h1c2.2,0,4,1.8,4,4v1h-3c0,0.3,0,0.7,0,1v1h5v-3
					C144.1,19.8,141.4,17.1,138.1,17.1z"/>
				<path class="st11" d="M134.1,4.1c-0.8,0-1.6,0.2-2.3,0.6c0.4,0.6,0.7,1.2,0.9,1.8c1.4-0.8,3.3-0.3,4.1,1.1s0.3,3.3-1.1,4.1
					c-0.9,0.5-2,0.5-3,0c-0.2,0.6-0.5,1.2-0.9,1.8c0.7,0.4,1.5,0.6,2.3,0.6c2.8,0,5-2.2,5-5S136.9,4.1,134.1,4.1z"/>
			</g>
		</g>
		<g class="st3">
			<path class="st4" d="M161.3,12c-0.2,0.3-0.4,0.6-0.6,0.9h5.2v0.8c-0.6,0.8-1.4,1.5-2.5,2.1c1.5,0.6,3.2,1,5.1,1.1l-0.2,0.9
				c-2.2-0.2-4.2-0.7-6-1.5c-1.7,0.8-3.7,1.3-6.3,1.8l-0.4-0.9c2.3-0.4,4.1-0.8,5.6-1.4c-0.7-0.4-1.4-0.9-2-1.4
				c-0.5,0.5-1.1,0.9-1.8,1.3l-0.5-0.7c1.4-0.8,2.5-1.8,3.4-3.2L161.3,12z M167.8,13.3h-1v-1.7h-9.3v1.7h-1v-2.6h5.1
				c-0.2-0.4-0.3-0.7-0.5-1l1-0.2c0.2,0.3,0.3,0.7,0.5,1.1h5.2V13.3z M166.2,22.4h-1v-0.6h-6v0.6h-1V18h8V22.4z M165.2,20.9v-2h-6v2
				H165.2z M164.6,13.8h-4.7l0,0c0.7,0.6,1.6,1.1,2.4,1.6C163.3,14.9,164.1,14.4,164.6,13.8z"/>
			<path class="st4" d="M170.3,22.5l-0.7-0.7c1.1-1.6,1.7-3.6,1.7-6.1v-4.4h4.6c-0.3-0.6-0.5-1.1-0.8-1.6l1-0.2
				c0.3,0.5,0.5,1.1,0.8,1.8h4.4V16h-9C172.2,18.5,171.6,20.6,170.3,22.5z M172.3,12.3V15h8v-2.7H172.3z"/>
		</g>
	</g>
</g>
<g id="RectEndPoint2" transform="translate(443,1)">
	<rect x="116" y="7.1" class="st9" width="120" height="50"/>
	<rect x="114" y="5.1" class="st10" width="120" height="50"/>
	<g transform="translate(20 9)">
		<g>
			<g>
				<path class="st11" d="M126,10.3c2.2,0,4,1.8,4,4s-1.8,4-4,4s-4-1.8-4-4S123.8,10.3,126,10.3 M126,8.3c-3.3,0-6,2.7-6,6
					s2.7,6,6,6s6-2.7,6-6S129.3,8.3,126,8.3z"/>
				<path class="st11" d="M130,24.3c3.3,0,6,2.7,6,6v1h-20v-1c0-3.3,2.7-6,6-6H130 M130,22.3h-8c-4.4,0-8,3.6-8,8v3h24v-3
					C138,25.8,134.4,22.3,130,22.3z"/>
				<path class="st11" d="M139,22.2h-3c0.8,0.6,1.4,1.2,2,2h1c2.2,0,4,1.8,4,4v1h-3c0,0.3,0,0.7,0,1v1h5v-3
					C145,24.9,142.3,22.2,139,22.2z"/>
				<path class="st11" d="M135,9.2c-0.8,0-1.6,0.2-2.3,0.6c0.4,0.6,0.7,1.2,0.9,1.8c1.4-0.8,3.3-0.3,4.1,1.1s0.3,3.3-1.1,4.1
					c-0.9,0.5-2,0.5-3,0c-0.2,0.6-0.5,1.2-0.9,1.8c0.7,0.4,1.5,0.6,2.3,0.6c2.8,0,5-2.2,5-5S137.8,9.2,135,9.2z"/>
			</g>
		</g>
		<g class="st3">
			<path class="st4" d="M164.1,16.1h5.2v1h-10.4v3.1c0,3.1-0.5,5.5-1.5,7.4l-0.8-0.7c0.8-1.6,1.3-3.8,1.3-6.7v-4h5.1
				c-0.2-0.5-0.4-0.9-0.7-1.3l1.1-0.2C163.6,15,163.9,15.5,164.1,16.1z M164.3,17.6v1.7h4.7v1h-4.6v2h3.6v5.2h-1v-0.7h-5.9v0.7h-1
				v-5.2h3.2v-4.7C163.3,17.6,164.3,17.6,164.3,17.6z M167,25.9v-2.6h-5.9v2.6H167z"/>
			<path class="st4" d="M177.6,21.7c-0.2,2.1-0.6,3.4-1.3,4.2c-0.7,0.9-2.4,1.4-5,1.7l-0.3-1c2.3-0.1,3.8-0.6,4.5-1.4
				c0.6-0.7,1-1.9,1.1-3.7L177.6,21.7z M181.7,25h-1v-4.3h-7.4v4.5h-1v-5.4h9.4V25z M180.9,15.2v3.5h-7.7v-3.5
				C173.2,15.2,180.9,15.2,180.9,15.2z M179.9,16.1h-5.8v1.7h5.8V16.1z M183,26.7l-0.5,0.8c-1.6-0.8-3.3-1.5-5-2l0.5-0.8
				C179.8,25.4,181.5,26,183,26.7z"/>
		</g>
	</g>
</g>
<g id="RectEndPoint4" transform="translate(30.9375,127)">
	<rect x="12.3" y="5" class="st9" width="110.6" height="50"/>
	<rect x="10.3" y="3" class="st10" width="110.6" height="50"/>
	<g transform="translate(20 9)">
		<g class="st3">
			<path class="st4" d="M15.4,14c2.3,0,3.4,1,3.4,2.9c0,2-1.2,3-3.5,3h-2.8V24h-1.2V14H15.4z M12.5,18.9h2.9c0.8,0,1.4-0.2,1.8-0.5
				s0.6-0.8,0.6-1.5s-0.2-1.2-0.6-1.5s-1-0.5-1.8-0.5h-2.9C12.5,14.9,12.5,18.9,12.5,18.9z"/>
			<path class="st4" d="M28.2,15.3c0.8,1,1.2,2.2,1.2,3.7s-0.4,2.7-1.2,3.7c-0.9,1-2.1,1.5-3.6,1.5s-2.7-0.5-3.5-1.5
				s-1.2-2.2-1.2-3.7s0.4-2.7,1.2-3.7c0.9-1,2-1.5,3.6-1.5C26.2,13.8,27.4,14.3,28.2,15.3z M22,16c-0.6,0.8-0.9,1.8-0.9,3
				s0.3,2.2,0.9,3s1.6,1.2,2.7,1.2s2.1-0.4,2.7-1.1c0.6-0.8,0.9-1.8,0.9-3c0-1.3-0.3-2.3-0.9-3c-0.6-0.8-1.5-1.1-2.7-1.1
				S22.6,15.2,22,16z"/>
			<path class="st4" d="M37.1,14.6c0.7,0.5,1.1,1.3,1.1,2.4h-1.1c-0.1-0.7-0.4-1.3-0.8-1.6c-0.4-0.4-1.1-0.5-1.9-0.5
				c-0.7,0-1.3,0.1-1.7,0.4C32.2,15.6,32,16,32,16.6c0,0.5,0.3,0.9,0.9,1.2c0.3,0.1,0.9,0.3,1.8,0.6c1.3,0.4,2.2,0.7,2.6,1
				c0.8,0.5,1.2,1.2,1.2,2.1s-0.4,1.6-1.1,2.1c-0.7,0.5-1.6,0.7-2.8,0.7s-2.1-0.3-2.8-0.8c-0.8-0.6-1.2-1.5-1.3-2.7h1.1
				c0.1,0.9,0.4,1.5,0.9,1.9s1.1,0.6,2,0.6c0.8,0,1.5-0.2,2-0.5s0.8-0.7,0.8-1.3c0-0.6-0.3-1.1-1-1.5c-0.3-0.2-1-0.4-2.1-0.7
				c-1.2-0.4-2-0.6-2.3-0.8c-0.8-0.4-1.1-1.1-1.1-1.9c0-0.9,0.4-1.6,1.1-2s1.5-0.7,2.5-0.7C35.5,13.8,36.4,14.1,37.1,14.6z"/>
			<path class="st4" d="M41.8,15.3v-2.7h1v2.7h1.7v1h-1.7V17c0.6,0.7,1.3,1.4,2,2.2l-0.6,0.9c-0.5-0.9-1-1.6-1.4-2.1v7.4h-1v-7.1
				c-0.5,1.4-1.1,2.7-1.9,3.8L39.5,21c1.1-1.4,1.8-2.9,2.3-4.7h-2v-1C39.8,15.3,41.8,15.3,41.8,15.3z M45.1,21.9
				c0.2-0.9,0.3-2,0.3-3.4v-5.3h4.5v10.6c0,0.2,0.1,0.4,0.3,0.4h0.5c0.2,0,0.3,0,0.4-0.1c0.1-0.1,0.2-0.2,0.2-0.4
				c0.1-0.3,0.1-1.1,0.1-2.4l0.9,0.3c0,1,0,1.8-0.1,2.3s-0.2,0.8-0.4,1s-0.6,0.2-1,0.2h-0.6c-0.9,0-1.3-0.4-1.3-1.2v-9.7h-2.5v4.4
				c0,1.5-0.1,2.8-0.4,3.9c-0.2,1.1-0.7,2.1-1.3,3.1l-0.8-0.7C44.5,23.8,44.9,22.9,45.1,21.9z"/>
			<path class="st4" d="M53.8,21.8c0.2-0.1,0.3-0.2,0.3-0.3v-7.7h1v7.6c0.7-0.2,1.4-0.4,2.1-0.7v-8.1h1v12.7h-1v-3.6
				c-1,0.4-2,0.7-3.1,0.9L53.8,21.8z M59.1,19.2l-0.6-0.8c1.1-1.5,1.9-3.4,2.3-5.9l1,0.2c-0.1,0.7-0.3,1.4-0.5,2H66v1h-1.2
				c-0.1,2.3-0.7,4.3-1.7,5.9c0.9,1.1,2,2.2,3.2,3.1l-0.7,0.8c-1.2-0.9-2.3-1.9-3.2-3c-0.9,1.2-2.1,2.1-3.6,2.9l-0.6-0.9
				c1.5-0.7,2.6-1.7,3.5-2.8c-0.8-1.1-1.4-2.3-1.9-3.6C59.7,18.5,59.4,18.8,59.1,19.2z M60.6,16.9c0.5,1.4,1.1,2.6,2,3.8
				c0.8-1.4,1.3-3.1,1.4-5h-2.8C60.9,16.1,60.7,16.5,60.6,16.9z"/>
			<path class="st4" d="M69.5,21.6c-0.3,1.1-0.7,2-1.3,2.8l-0.8-0.5c0.6-0.8,1-1.6,1.2-2.5L69.5,21.6z M70.5,13.8v-1.3h1v1.3h2.6
				v0.9h-2.6V16h2.3v0.9h-5.7V16h2.5v-1.2h-3v-0.9h2.9C70.5,13.9,70.5,13.8,70.5,13.8z M74.2,19.9v0.9h-2.7v3.5
				c0,0.7-0.4,1.1-1.2,1.1h-1.2l-0.2-0.9c0.4,0,0.7,0.1,1.1,0.1s0.5-0.2,0.5-0.5v-3.3h-2.9v-0.9C67.6,19.9,74.2,19.9,74.2,19.9z
				 M73.3,17.9v0.9h-4.8v-0.9H73.3z M74,23.4l-0.8,0.4c-0.3-0.8-0.6-1.5-0.9-2.2l0.8-0.3C73.4,22,73.7,22.7,74,23.4z M77.3,16.8
				c0,0.9-0.1,1.8-0.1,2.6c0.6,2.2,1.7,4,3.2,5.3l-0.7,0.8c-1.2-1.2-2.1-2.6-2.8-4.3c0,0.1,0,0.2-0.1,0.3c-0.4,1.7-1.4,3-3,4.1
				l-0.6-0.7c1.3-0.9,2.2-2.1,2.6-3.5c0.3-1.2,0.5-2.7,0.5-4.5h1V16.8z M76.4,12.8c-0.1,0.7-0.2,1.4-0.3,2h3.7v0.6
				c-0.2,1.2-0.4,2.4-0.7,3.5l-0.9-0.3c0.3-0.9,0.5-1.8,0.7-3h-3c-0.3,1.2-0.7,2.1-1.3,2.9L73.8,18c0.9-1.3,1.4-3.1,1.7-5.4
				L76.4,12.8z"/>
		</g>
	</g>
</g>
<g id="RectEndPoint5" transform="translate(421.9375,127)">
	<rect x="253" y="5" class="st9" width="97" height="50"/>
	<rect x="251" y="3" class="st10" width="97" height="50"/>
	<g transform="translate(34.5,9)">
		<g class="st3">
			<path class="st4" d="M254.3,13.8v-1.3h1v1.3h5.3v-1.3h1v1.3h2.4v1h-2.4v6.4h2.6v0.9h-12.5v-0.9h2.6v-6.4h-2.4v-1
				C251.9,13.8,254.3,13.8,254.3,13.8z M256.8,23.1c-1.1,0.9-2.6,1.6-4.2,2.3l-0.6-0.8c1.7-0.6,3-1.3,4.2-2.1L256.8,23.1z
				 M260.6,16.3v-1.5h-5.3v1.5H260.6z M260.6,18.7v-1.6h-5.3v1.6H260.6z M260.6,21.2v-1.6h-5.3v1.6H260.6z M264,24.5l-0.6,0.9
				c-1.4-0.9-2.8-1.6-4.2-2.1l0.5-0.8C261.3,23,262.8,23.7,264,24.5z"/>
			<path class="st4" d="M269.4,12.9c-0.3,1.1-0.7,2-1.2,3v9.6h-1v-7.9c-0.4,0.6-1,1.3-1.5,1.9l-0.3-1.2c1.4-1.7,2.5-3.7,3.1-5.8
				L269.4,12.9z M271.6,25.1c-1,0-1.5-0.5-1.5-1.5V18l-1.3,0.4v-1l1.3-0.4v-3.1h1v2.8l2.1-0.7v-3.4h1v3.1l3.1-1c0,3-0.1,4.7-0.2,5.4
				c-0.1,0.6-0.7,0.9-1.7,0.9h-0.2l-0.3-1c0.3,0,0.5,0,0.7,0c0.3,0,0.5-0.2,0.5-0.5c0.1-0.3,0.1-1.5,0.1-3.5l-2.1,0.6v5.6h-1V17
				l-2.1,0.7v5.8c0,0.4,0.2,0.7,0.7,0.7h4.4c0.4,0,0.6-0.1,0.8-0.3c0.1-0.2,0.2-0.9,0.3-2.2l1,0.3c-0.1,1.5-0.3,2.4-0.5,2.7
				c-0.3,0.3-0.7,0.5-1.4,0.5h-4.7C271.6,25.2,271.6,25.1,271.6,25.1z"/>
		</g>
	</g>
</g>
<g id="RectEndPoint6" transform="translate(286.5,127)">
	<rect x="173.6" y="5" class="st9" width="110" height="50"/>
	<rect x="171.6" y="3" class="st10" width="110" height="50"/>
	<g transform="translate(20 9)">
		<g class="st3">
			<path class="st4" d="M179.1,12.6v1.8h5.5v1h-5.5v2.1h3.8v0.9c-0.8,1.6-1.9,2.9-3.4,4c0.7,0.4,1.5,0.8,2.3,1.1
				c1,0.4,2.1,0.7,3.2,1l-0.6,0.9c-1.2-0.3-2.4-0.7-3.4-1.2c-0.9-0.4-1.6-0.8-2.3-1.2c-1.6,1-3.5,1.8-5.7,2.4l-0.7-0.9
				c2.1-0.5,4-1.2,5.5-2.1c-0.7-0.5-1.4-1.2-1.9-1.9c-0.5-0.6-0.9-1.4-1.1-2.1h-1.1v-0.9h4.4v-2.1h-5.4v-1h5.4v-1.8
				C178.1,12.6,179.1,12.6,179.1,12.6z M181.8,18.5h-6c0.3,0.7,0.6,1.4,1.2,2c0.5,0.6,1.1,1.1,1.7,1.5C180,20.9,181,19.8,181.8,18.5
				z"/>
			<path class="st4" d="M190.3,12.9c-0.3,1-0.7,1.9-1.1,2.8v9.8h-1v-8.1c-0.5,0.7-1.1,1.4-1.7,2.1l-0.3-1.1c1.5-1.7,2.6-3.7,3.2-5.9
				L190.3,12.9z M196,15.6v-3h1v3h2v1h-2v7.3c0,1-0.4,1.4-1.3,1.4h-2l-0.2-1c0.7,0,1.3,0.1,1.9,0.1c0.4,0,0.7-0.3,0.7-0.8v-7.1h-5.4
				v-1L196,15.6L196,15.6z M194.3,21.4l-0.8,0.6c-0.6-1-1.4-2.2-2.4-3.4l0.8-0.5C192.9,19.4,193.8,20.5,194.3,21.4z"/>
			<path class="st4" d="M212.9,22.9v1h-12.5v-1H212.9z M211.6,14.1v1h-9.9v-1H211.6z"/>
			<path class="st4" d="M219.2,23.6c-1.4,0.5-3,1-4.7,1.3l-0.1-1c1.8-0.3,3.5-0.7,4.9-1.3L219.2,23.6L219.2,23.6z M217.6,12.9
				c-0.7,1.8-1.3,3.2-2,4.3c0.6-0.1,1.2-0.2,1.8-0.3c0.3-0.5,0.5-1.1,0.8-1.7l0.9,0.3c-1.2,2.4-2.1,4.1-2.9,5.2
				c0.9-0.2,1.8-0.5,2.8-0.9v0.9c-1.4,0.6-2.7,1-4,1.2l-0.4-0.9c0.2-0.1,0.3-0.2,0.5-0.3c0.5-0.6,1.1-1.5,1.8-2.9
				c-0.7,0.1-1.5,0.3-2.2,0.4l-0.3-0.9c0.2-0.1,0.3-0.2,0.4-0.4c0.7-1.3,1.3-2.8,1.8-4.4L217.6,12.9z M221.1,25.4h-1v-8.3
				c-0.4,0.7-0.8,1.3-1.3,1.9l-0.3-1c1.1-1.7,1.9-3.4,2.4-5.4l1,0.2c-0.2,0.8-0.4,1.5-0.7,2.2h2.5c-0.2-0.7-0.5-1.5-0.8-2.2l1-0.3
				c0.3,0.8,0.6,1.6,0.7,2.3l-0.3,0.2h2.5v1h-2.2v1.9h2v0.9h-2v1.9h2v0.9h-2v2.1h2.5v0.9h-6L221.1,25.4L221.1,25.4z M221.1,15.9v1.9
				h2.5v-1.9H221.1z M221.1,20.7h2.5v-1.9h-2.5V20.7z M221.1,23.7h2.5v-2.1h-2.5V23.7z"/>
			<path class="st4" d="M232.9,24.7H232v-0.8h-1.5V25h-0.9v-5.7c-0.3,0.5-0.6,1-0.9,1.5l-0.5-0.8c1.1-1.6,1.8-3.5,2.1-5.6h-1.7v-1
				h4.7v1h-2.1c-0.2,1.1-0.5,2.2-0.8,3.2h2.6L232.9,24.7L232.9,24.7z M232,23v-4.6h-1.5V23H232z M238.8,21.4v1h-5.1v-1H238.8z
				 M235.8,15.1l-0.6,3.5h3l0.7-4.6H234v-1h6l-0.8,5.5h1.5c0,3.4-0.2,5.3-0.6,5.9c-0.4,0.5-1.2,0.8-2.4,0.8c-0.4,0-0.8,0-1.3,0
				l-0.3-1c0.6,0.1,1.1,0.1,1.3,0.1c1.1,0,1.7-0.2,1.9-0.7s0.3-1.8,0.3-4.1h-5.7l0.8-4.5L235.8,15.1z"/>
		</g>
	</g>
</g>
<g id="RectEndPoint7" transform="translate(165.5,127)">
	<rect x="92.8" y="5" class="st9" width="97" height="50"/>
	<rect x="90.8" y="3" class="st10" width="97" height="50"/>
	<g transform="translate(20 9)">
		<g class="st3">
			<path class="st4" d="M91.7,21.8c0.2-0.1,0.3-0.2,0.3-0.3v-7.7h1v7.6c0.7-0.2,1.4-0.4,2.1-0.7v-8.1h1v12.7h-1v-3.6
				c-1,0.4-2,0.7-3.1,0.9L91.7,21.8z M97,19.2l-0.6-0.8c1.1-1.5,1.9-3.4,2.3-5.9l1,0.2c-0.1,0.7-0.3,1.4-0.5,2h4.7v1h-1.2
				c0,2.3-0.6,4.3-1.6,5.9c0.9,1.1,2,2.2,3.2,3.1l-0.7,0.8c-1.2-0.9-2.3-1.9-3.2-3c-0.9,1.2-2.1,2.1-3.6,2.9l-0.6-0.9
				c1.5-0.7,2.6-1.7,3.5-2.8c-0.8-1.1-1.4-2.3-1.9-3.6C97.6,18.5,97.3,18.8,97,19.2z M98.5,16.9c0.5,1.4,1.1,2.6,2,3.8
				c0.8-1.4,1.3-3.1,1.4-5h-2.8C98.8,16.1,98.6,16.5,98.5,16.9z"/>
			<path class="st4" d="M108.2,12.8c-0.1,0.5-0.3,0.9-0.4,1.4h2.7v1h-3.1c-0.4,1-0.8,1.8-1.3,2.6l-0.8-0.5c0.9-1.4,1.5-2.9,1.8-4.7
				L108.2,12.8z M110.2,16.9v0.9h-1.5v1.8h1.9v0.9h-1.9v3.3c0.5-0.2,1-0.4,1.6-0.7l0.2,0.9c-0.8,0.4-1.7,0.8-2.8,1l-0.4-0.8
				c0.3-0.1,0.5-0.2,0.5-0.4v-3.2h-2.1v-0.9h2.1v-1.8h-0.9V17L110.2,16.9L110.2,16.9z M118.1,20.4c-0.6,0.8-1.3,1.3-2.1,1.7
				c0.6,0.9,1.3,1.7,2.3,2.3l-0.5,0.9c-2.1-1.5-3.4-3.6-3.9-6.2h-1.6V24c0.8-0.2,1.6-0.5,2.4-0.9l0.2,0.9c-1,0.4-2.2,0.8-3.7,1.2
				l-0.2-0.8c0.2-0.1,0.3-0.2,0.3-0.3v-11h5.9V19h-2.5c0.2,0.9,0.4,1.6,0.8,2.3c0.7-0.4,1.3-0.9,1.9-1.6L118.1,20.4z M116.3,14h-4
				v1.6h4V14z M112.3,18.1h4v-1.6h-4V18.1z"/>
			<path class="st4" d="M124.1,14l3.9,10h-1.2l-1.1-2.8h-4.6L120,24h-1.2l3.9-10H124.1z M125.3,20.2l-1.9-5h-0.1l-1.9,5H125.3z"/>
			<path class="st4" d="M133.1,14c2.3,0,3.4,1,3.4,2.9c0,2-1.2,3-3.5,3h-2.9V24H129V14H133.1z M130.1,18.9h2.9
				c0.8,0,1.4-0.2,1.8-0.5c0.4-0.3,0.6-0.8,0.6-1.5s-0.2-1.2-0.6-1.5c-0.4-0.3-1-0.5-1.8-0.5h-2.9V18.9z"/>
			<path class="st4" d="M142.1,14c2.3,0,3.4,1,3.4,2.9c0,2-1.2,3-3.5,3h-2.9V24H138V14H142.1z M139.1,18.9h2.9
				c0.8,0,1.4-0.2,1.8-0.5c0.4-0.3,0.6-0.8,0.6-1.5s-0.2-1.2-0.6-1.5c-0.4-0.3-1-0.5-1.8-0.5h-2.9V18.9z"/>
		</g>
	</g>
</g>
<rect x="44.5" y="298" class="st9" width="110" height="50"/>
<rect x="42.5" y="296" class="st10" width="110" height="50"/>
<g transform="translate(20 9)">
	<g class="st3">
		<path class="st4" d="M57,305.6c1.8,2,3.8,3.6,6.1,4.7l-0.5,1c-2.3-1.2-4.3-2.8-6-4.8c-1.5,1.8-3.5,3.4-6,4.8l-0.5-1
			c2.5-1.3,4.5-2.8,6.2-4.7H57z M62.2,312.7v1h-6.6c-0.7,1.3-1.5,2.5-2.4,3.5c2.3-0.1,4.5-0.3,6.5-0.6c-0.5-0.6-1-1.3-1.6-1.9
			l0.8-0.5c1.3,1.4,2.3,2.7,2.9,3.7l-0.8,0.6c-0.2-0.4-0.5-0.8-0.8-1.1c-2.2,0.3-4.9,0.6-8.3,0.8l-0.3-0.9c0.3-0.1,0.4-0.2,0.5-0.3
			c0.9-1,1.7-2.1,2.3-3.3H51v-1C51,312.7,62.2,312.7,62.2,312.7z M60.1,309.9v1h-6.9v-1H60.1z"/>
		<path class="st4" d="M71.2,312.6c-0.2,2.1-0.6,3.4-1.3,4.2c-0.7,0.9-2.4,1.4-5,1.7l-0.4-0.9c2.3-0.1,3.8-0.6,4.5-1.4
			c0.6-0.7,1-1.9,1.1-3.7L71.2,312.6z M75.3,315.9h-1v-4.3h-7.4v4.4h-1v-5.4h9.4V315.9z M74.5,306.1v3.5h-7.7v-3.5H74.5z M73.5,307
			h-5.8v1.7h5.8V307z M76.6,317.6l-0.5,0.8c-1.6-0.8-3.3-1.5-5-2l0.5-0.8C73.4,316.2,75.1,316.9,76.6,317.6z"/>
		<path class="st4" d="M79.2,309l-0.9-0.6c0.8-0.9,1.5-1.8,1.8-2.9l1,0.2c-0.1,0.3-0.2,0.6-0.3,0.9h3.8v0.9h-2.4
			c0.3,0.4,0.6,0.8,0.8,1.2l-1,0.3c-0.3-0.5-0.6-1.1-0.9-1.6h-0.8C80,308,79.6,308.5,79.2,309z M90.5,311.9h-1v-1.7h-9.9v1.7h-1
			v-2.5h5.5c-0.1-0.3-0.3-0.6-0.4-0.9l1-0.2l-0.1-0.1c0.7-0.8,1.1-1.8,1.5-2.8l1,0.2c-0.1,0.4-0.2,0.7-0.3,1h4v0.9h-2.5
			c0.3,0.4,0.5,0.8,0.7,1.1l-0.9,0.3c-0.3-0.5-0.5-1-0.9-1.4h-0.9c-0.3,0.5-0.5,0.9-0.9,1.3l-0.8-0.5c0.2,0.3,0.3,0.7,0.4,1.1h5.3
			v2.5H90.5z M88.6,313.8h-7v1h7.6v3.6h-1v-0.6h-6.6v0.6h-1v-7.3h8V313.8z M87.6,313v-1.1h-6v1.1H87.6z M88.3,316.9v-1.3h-6.6v1.3
			H88.3z"/>
		<path class="st4" d="M94,310.8v-3.4h-1.7v-1h4.5v1H95v3.3h1.5v1H95v3.2c0.5-0.2,1-0.4,1.5-0.6v1c-1.3,0.5-2.7,1-4.2,1.3l-0.3-1
			c0.6-0.1,1.2-0.3,1.8-0.4v-3.5h-1.5v-1L94,310.8L94,310.8z M104.3,306.1v6.5h-2.9v1.7h3.2v1h-3.2v1.7h3.6v1h-8.4v-1h3.8v-1.8h-3.2
			v-1h3.2v-1.7h-2.9v-6.4L104.3,306.1L104.3,306.1z M100.3,308.9V307h-2v1.9H100.3z M100.3,309.8h-2v1.9h2V309.8z M101.4,308.9h1.9
			V307h-1.9V308.9z M103.3,309.8h-1.9v1.9h1.9V309.8z"/>
	</g>
</g>
<g id="RectEndPoint11" transform="translate(30.9375,490)">
	<rect x="132.5" y="-130.7" class="st9" width="110" height="50"/>
	<rect x="130.5" y="-132.7" class="st10" width="110" height="50"/>
	<g transform="translate(20 9)">
		<g class="st3">
			<path class="st4" d="M143.5-122.6v0.9H138v1.2h4.3v5.5h-4.5c-0.2,0.9-0.4,1.7-0.8,2.2c2,0.8,4.3,1.3,7,1.4l-0.3,1
				c-2.8-0.1-5.3-0.7-7.4-1.6c-1,0.8-2.6,1.4-4.8,1.6l-0.4-0.9c1.9-0.2,3.4-0.5,4.3-1.2c-0.8-0.4-1.6-1-2.3-1.6l0.8-0.5
				c0.7,0.5,1.4,1,2.2,1.4c0.3-0.5,0.6-1.1,0.7-1.8h-4.1v-5.5h4.3v-1.1h-5.5v-1H143.5z M137-118.1v-1.5h-3.3v1.5H137z M137-116.8
				v-0.5h-3.3v1.5h3.2C137-116.1,137-116.4,137-116.8z M141.3-117.2H138v0.5v1h3.4L141.3-117.2L141.3-117.2z M138-118.1h3.3v-1.5
				H138V-118.1z"/>
			<path class="st4" d="M152.4-112.7c1.6-0.7,2.8-1.6,3.7-2.9H152c-1.2,0.6-2.7,1-4.4,1.3l-0.6-0.9c3.1-0.3,5.3-1.2,6.8-2.8l0.9,0.5
				c-0.3,0.3-0.7,0.7-1.1,1h3.8v0.8c-2,3.3-5.7,5-11.1,5.1l-0.4-1c2.2,0,4.1-0.3,5.7-0.8c-0.5-0.6-1-1.2-1.5-1.7l0.9-0.4
				C151.4-113.9,152-113.3,152.4-112.7z M152.3-122.7c-0.3,0.3-0.5,0.5-0.8,0.8h4v0.8c-1.5,2.7-4.3,4.2-8.4,4.5l-0.4-0.9
				c1.3-0.1,2.4-0.3,3.4-0.6c-0.4-0.5-0.9-1-1.4-1.5l0.9-0.4c0.5,0.5,1,1,1.4,1.5c1.5-0.6,2.6-1.5,3.4-2.6h-4.1
				c-1.1,0.6-2.4,1.1-3.9,1.5l-0.5-0.9c2.5-0.5,4.4-1.4,5.6-2.7L152.3-122.7z"/>
			<path class="st4" d="M170.2-110.3h-1v-0.9h-7.4v0.9h-1v-11.2h3c0.3-0.6,0.5-1.1,0.7-1.7l1,0.1c-0.2,0.6-0.4,1.1-0.7,1.6h5.4
				V-110.3z M169.2-118.4v-2.1h-7.4v2.1H169.2z M169.2-115.4v-2.1h-7.4v2.1H169.2z M169.2-112.1v-2.3h-7.4v2.3H169.2z"/>
			<path class="st4" d="M183.6-119v1H180v2.5h4.2v1H180v2.8c1,0.1,2.2,0.2,3.6,0.2c0.7,0,1.4,0,2.2-0.1l-0.2,1H184
				c-2.8,0-4.8-0.3-6.1-0.8c-0.9-0.4-1.7-1.1-2.3-2c-0.5,1.2-1.2,2.2-2,3l-0.6-0.8c1.3-1.4,2.2-3.3,2.7-5.8l1,0.2
				c-0.2,0.9-0.4,1.7-0.6,2.4c0.7,1.2,1.5,2,2.5,2.3c0.1,0,0.3,0.1,0.4,0.1v-6.1h-3.7v-1L183.6-119L183.6-119z M185.2-118.7h-1v-2.1
				h-9.5v2.1h-1v-3h5.4c-0.2-0.5-0.4-1-0.7-1.4l1.1-0.2c0.2,0.5,0.4,1,0.6,1.6h5.1C185.2-121.7,185.2-118.7,185.2-118.7z"/>
			<path class="st4" d="M198.3-122.3c-0.6,3.3-1.9,5.9-3.9,8c1.6,1.3,3.4,2.3,5.5,3l-0.6,0.9c-2.2-0.8-4-1.9-5.6-3.2
				c-1.6,1.4-3.5,2.5-5.8,3.2l-0.6-0.9c2.2-0.7,4.1-1.7,5.6-3.1c-1.8-1.8-3.2-3.9-4.3-6.4l0.9-0.5c1,2.5,2.4,4.6,4.1,6.2
				c1.9-1.9,3.1-4.4,3.7-7.5L198.3-122.3z M194.7-119.8l-0.9,0.5c-0.7-1.3-1.5-2.4-2.4-3.4l1-0.4C193.3-122.1,194-121,194.7-119.8z"
				/>
		</g>
	</g>
</g>
<rect x="162.4" y="299.1" class="st9" width="110" height="50"/>
<rect x="160.4" y="297.1" class="st10" width="110" height="50"/>
<g transform="translate(20 9)">
	<g class="st3">
		<path class="st4" d="M171.4,309.2v4.6c0,1.6-0.3,2.8-0.7,3.8c-0.4,0.9-1.1,1.6-2.1,2l-0.5-0.8c0.9-0.5,1.6-1.1,1.9-1.8
			c0.3-0.8,0.5-1.8,0.5-3.1v-4.6h0.9C171.4,309.4,171.4,309.2,171.4,309.2z M173.4,316h-0.9v-7.8h-3v7.9h-1v-8.9h4.8L173.4,316
			L173.4,316z M173.8,318.8l-0.7,0.7c-0.4-0.8-1.1-1.6-1.9-2.4l0.6-0.6C172.6,317.2,173.3,318,173.8,318.8z M176,313.4v4.8
			c0.6-0.2,1.3-0.6,1.9-1l0.2,0.9c-0.9,0.5-1.8,1-3,1.3l-0.4-0.9c0.2-0.1,0.3-0.2,0.3-0.4v-4.7h-1v-1h1v-5.7h1v5.8h4.7v1h-2.5
			c0.6,2.2,1.6,3.9,2.8,5.2l-0.7,0.8c-1.3-1.3-2.3-3.3-3-5.9H176V313.4z M180.4,307.9c-1,1.6-2.1,2.7-3.5,3.5l-0.5-0.8
			c1.3-0.7,2.3-1.8,3.2-3.3L180.4,307.9z"/>
		<path class="st4" d="M189.5,308.9c0.5-0.7,0.9-1.4,1.3-2.2l1,0.3c-0.3,0.7-0.7,1.4-1.1,1.9h2.7v5.8H189v1.3h5.7v1H189v2.7h-1V317
			h-5.7v-1h5.7v-1.3h-4.4v-5.8L189.5,308.9L189.5,308.9z M187.9,311.4v-1.5h-3.4v1.5H187.9z M187.9,312.1h-3.4v1.6h3.4V312.1z
			 M187.3,308.4l-0.8,0.4c-0.4-0.7-0.9-1.3-1.3-1.8l0.9-0.4C186.5,307.2,186.9,307.9,187.3,308.4z M188.9,311.4h3.4v-1.5h-3.4V311.4
			z M192.3,312.1h-3.4v1.6h3.4V312.1z"/>
		<path class="st4" d="M200.4,316.1c-1,1.1-2.1,2.1-3.5,3l-0.6-0.8c1.4-0.8,2.5-1.8,3.4-2.8L200.4,316.1z M200.3,319.5l-0.2-1
			c0.5,0,1,0.1,1.4,0.1c0.3,0,0.5-0.2,0.5-0.5v-3.4c-1.3,0.1-2.8,0.2-4.4,0.2l-0.3-0.9c0.3,0,0.6-0.1,0.9-0.2
			c1.1-0.5,2.4-1.3,3.9-2.4c-1.2,0.1-2.5,0.2-3.9,0.3l-0.2-0.9c0.3,0,0.5-0.1,0.7-0.2c0.7-0.3,1.5-1,2.5-2.1
			c-1.2,0.1-2.5,0.1-3.8,0.1l-0.3-0.9c4,0,7.4-0.3,10-0.9l0.5,0.9c-1.5,0.3-3.2,0.6-5.2,0.7c-0.9,1-1.8,1.8-2.6,2.4
			c1.1-0.1,2.3-0.1,3.4-0.2c0.6-0.5,1.3-1.1,1.9-1.7l0.9,0.5c-2.4,2.1-4.4,3.6-6.2,4.5c2.3-0.1,4.2-0.3,5.9-0.5
			c-0.4-0.4-0.7-0.9-1.1-1.4l0.8-0.5c1.1,1.3,2,2.5,2.6,3.5l-0.8,0.6c-0.3-0.5-0.6-1-0.9-1.4c-1,0.1-2,0.2-3.2,0.3v3.8
			c0,0.8-0.4,1.2-1.2,1.2C201.9,319.5,200.3,319.5,200.3,319.5z M208.5,318.5l-0.7,0.7c-0.9-1-2-2-3.5-3.2l0.7-0.6
			C206.4,316.4,207.6,317.4,208.5,318.5z"/>
		<path class="st4" d="M213.5,307c-0.7,1.8-1.4,3.2-2.1,4.3c0.6-0.1,1.2-0.2,1.8-0.3c0.3-0.5,0.5-1,0.8-1.5l0.9,0.4
			c-1.2,2.3-2.3,4-3.1,5c1-0.3,2-0.6,3-1v0.9c-1.5,0.6-2.9,1-4.2,1.2l-0.4-0.9c0.2-0.1,0.3-0.2,0.5-0.3c0.5-0.6,1.2-1.5,2-2.8
			c-0.8,0.1-1.5,0.3-2.3,0.4l-0.3-0.9c0.2-0.1,0.3-0.2,0.4-0.4c0.8-1.3,1.4-2.7,2-4.4L213.5,307z M214.7,317.4
			c-1.3,0.6-2.7,1.2-4.4,1.6l-0.1-1c1.7-0.4,3.2-0.9,4.5-1.5V317.4z M217.3,313.4c-0.1,1.8-0.3,3.1-0.7,3.9c-0.4,0.9-1.1,1.6-2,2.2
			l-0.6-0.8c0.8-0.5,1.4-1.1,1.8-1.9c0.3-0.7,0.5-1.9,0.6-3.5L217.3,313.4L217.3,313.4z M215,311.9c0.1,0,0.1-0.1,0.2-0.1
			c0.5-0.4,1.1-1.2,1.8-2.7h-2.4v-1h3.6c-0.2-0.5-0.4-1-0.6-1.4l1-0.2c0.2,0.5,0.4,1,0.6,1.6h3.2v1h-4.3c-0.6,1.2-1.2,2.1-1.6,2.7
			c1.3-0.1,2.6-0.3,3.9-0.5c-0.3-0.4-0.6-0.9-1-1.4l0.8-0.5c1,1.2,1.7,2.3,2.2,3.2l-0.8,0.5c-0.2-0.4-0.4-0.7-0.6-1.1
			c-1.7,0.3-3.6,0.5-5.7,0.6L215,311.9z M220.4,319.2c-0.8,0-1.3-0.4-1.3-1.2v-4.8h1v4.6c0,0.3,0.1,0.4,0.3,0.5h0.9
			c0.3,0,0.5-0.2,0.5-0.5c0.1-0.4,0.1-1,0.1-1.8l0.9,0.3c0,1.3-0.1,2.1-0.3,2.5c-0.2,0.3-0.6,0.4-1.2,0.5h-0.9V319.2z"/>
	</g>
</g>
<rect x="44.5" y="360" class="st9" width="110" height="50"/>
<rect x="42.5" y="358" class="st10" width="110" height="50"/>
<g transform="translate(20 9)">
	<g class="st3">
		<path class="st4" d="M53.4,368.5v-0.9h1v0.9h3.7v-0.9h1v0.9h3.2v0.9h-3.2v0.8h-1v-0.8h-3.7v0.8h-1v-0.8h-3.1v-0.9H53.4z
			 M61.9,373.4h-1v-1.8h-9.3v1.8h-0.9v-2.7H62L61.9,373.4L61.9,373.4z M61.1,380.4h-1v-0.6h-7.6v0.6h-1v-4h9.6V380.4z M60.2,379
			v-1.7h-7.6v1.7H60.2z M59.8,372.7v2.8h-7v-2.8H59.8z M58.9,373.5h-5.1v1.3h5.1V373.5z"/>
		<path class="st4" d="M66.7,367.8c-0.1,0.5-0.3,0.9-0.4,1.4h2.6v1H66c-0.4,1-0.8,1.8-1.3,2.6l-0.8-0.5c0.9-1.4,1.5-2.9,1.9-4.6
			L66.7,367.8z M68.6,372v0.9h-1.5v1.8H69v0.9h-1.9v3.3c0.6-0.2,1.3-0.5,1.9-0.9l0.2,0.9c-0.9,0.5-1.9,0.9-3.1,1.2l-0.4-0.9
			c0.3-0.1,0.4-0.2,0.4-0.4v-3.2h-1.9v-0.9h1.9v-1.8h-0.9V372H68.6z M71.6,370.5l-0.8,0.4c-0.4-0.9-0.8-1.7-1.3-2.4l0.9-0.4
			C70.7,368.8,71.2,369.6,71.6,370.5z M73.5,367.6v3.9h2.6v7.5c0,0.9-0.4,1.4-1.2,1.4h-1.4l-0.3-1h1.3c0.4,0,0.5-0.2,0.5-0.7v-1.5
			h-4.3v3.1h-1v-8.9h2.7v-3.8H73.5z M75.1,372.4h-4.3v1.6h4.3V372.4z M70.8,376.4h4.3v-1.5h-4.3V376.4z M76.5,368.4
			c-0.3,0.9-0.8,1.7-1.3,2.5l-0.8-0.4c0.6-0.8,1-1.7,1.3-2.5L76.5,368.4z"/>
		<path class="st4" d="M78.9,371l-0.9-0.6c0.8-0.9,1.5-1.8,1.8-2.9l1,0.2c-0.1,0.3-0.2,0.6-0.3,0.9h3.8v0.9h-2.4
			c0.3,0.4,0.6,0.8,0.8,1.2l-1,0.3c-0.3-0.5-0.6-1.1-0.9-1.6H80C79.7,370,79.3,370.5,78.9,371z M90.2,373.9h-1v-1.7h-9.9v1.7h-1
			v-2.5h5.5c-0.1-0.3-0.3-0.6-0.4-0.9l1-0.2l-0.1-0.1c0.7-0.8,1.1-1.8,1.5-2.8l1,0.2c-0.1,0.4-0.2,0.7-0.3,1h4v0.9H88
			c0.3,0.4,0.5,0.8,0.7,1.1l-0.9,0.3c-0.3-0.5-0.5-1-0.9-1.4H86c-0.3,0.5-0.5,0.9-0.9,1.3l-0.8-0.5c0.2,0.3,0.3,0.7,0.4,1.1H90v2.5
			H90.2z M88.3,375.8h-7v1h7.6v3.6h-1v-0.6h-6.6v0.6h-1v-7.3h8V375.8z M87.3,375v-1.1h-6v1.1H87.3z M88,378.9v-1.3h-6.6v1.3H88z"/>
		<path class="st4" d="M93.7,372.8v-3.4H92v-1h4.5v1h-1.8v3.3h1.5v1h-1.5v3.2c0.5-0.2,1-0.4,1.5-0.6v1c-1.3,0.5-2.7,1-4.2,1.3
			l-0.3-1c0.6-0.1,1.2-0.3,1.8-0.4v-3.5H92v-1L93.7,372.8L93.7,372.8z M104,368.1v6.5h-2.9v1.7h3.2v1h-3.2v1.7h3.6v1h-8.4v-1h3.8
			v-1.8h-3.2v-1h3.2v-1.7h-2.9v-6.4L104,368.1L104,368.1z M100,370.9V369h-2v1.9H100z M100,371.8h-2v1.9h2V371.8z M101.1,370.9h1.9
			V369h-1.9V370.9z M103,371.8h-1.9v1.9h1.9V371.8z"/>
	</g>
</g>
<g id="RectEndPoint15" transform="translate(188.9375,298)">
	<rect x="133.5" y="62.3" class="st9" width="97" height="50"/>
	<rect x="131.5" y="60.3" class="st10" width="97" height="50"/>
	<g transform="translate(20 9)">
		<g class="st3">
			<path class="st4" d="M144.8,75.7v1h-12.6v-1H144.8z"/>
			<path class="st4" d="M150.8,82h-0.9v-0.8h-1.5v1.1h-0.9v-5.7c-0.3,0.5-0.6,1-0.9,1.5l-0.6-0.9c1.1-1.6,1.8-3.5,2.1-5.6h-1.7v-1
				h4.8v1h-2.1c-0.2,1.1-0.5,2.2-0.8,3.2h2.6L150.8,82C150.9,82,150.8,82,150.8,82z M149.9,80.3v-4.6h-1.5v4.6H149.9z M156.7,78.7v1
				h-5.1v-1H156.7z M153.7,72.4l-0.6,3.5h3l0.7-4.6h-4.9v-1h6l-0.8,5.5h1.5c0,3.4-0.2,5.3-0.6,5.9c-0.4,0.5-1.2,0.8-2.4,0.8
				c-0.4,0-0.8,0-1.3,0l-0.3-1c0.6,0.1,1.1,0.1,1.3,0.1c1.1,0,1.7-0.2,1.9-0.7s0.3-1.8,0.3-4.1H152l0.8-4.5L153.7,72.4z"/>
			<path class="st4" d="M167.5,80.3c1.6-0.7,2.8-1.6,3.7-2.9H167c-1.2,0.6-2.7,1-4.4,1.3l-0.6-0.8c3.1-0.3,5.3-1.2,6.8-2.8l0.9,0.5
				c-0.3,0.3-0.7,0.7-1.1,1h3.8v0.7c-2,3.3-5.7,5-11.1,5.1l-0.4-1c2.2,0,4.1-0.3,5.7-0.8c-0.5-0.6-1-1.2-1.5-1.7l0.9-0.4
				C166.5,79.1,167,79.7,167.5,80.3z M167.4,70.3c-0.3,0.3-0.5,0.5-0.8,0.8h4v0.8c-1.5,2.7-4.3,4.2-8.4,4.5l-0.4-0.9
				c1.3-0.1,2.4-0.3,3.4-0.6c-0.4-0.5-0.9-1-1.4-1.5l0.9-0.4c0.5,0.5,1,1,1.4,1.5c1.5-0.6,2.6-1.5,3.4-2.6h-4.1
				c-1.1,0.6-2.4,1.1-3.9,1.5l-0.6-0.9c2.5-0.5,4.4-1.4,5.6-2.7L167.4,70.3z"/>
			<path class="st4" d="M178.2,70.2c-0.3,1-0.7,1.9-1.1,2.8v9.8h-1v-8.1c-0.5,0.7-1.1,1.4-1.7,2.1l-0.4-1.1c1.5-1.7,2.6-3.7,3.2-5.9
				L178.2,70.2z M183.8,72.9v-3h1v3h2v1h-2v7.3c0,1-0.4,1.4-1.3,1.4h-2l-0.2-1c0.7,0,1.3,0.1,1.9,0.1c0.4,0,0.7-0.3,0.7-0.8v-7.1
				h-5.4v-1L183.8,72.9L183.8,72.9z M182.2,78.7l-0.8,0.6c-0.6-1-1.4-2.2-2.4-3.4l0.8-0.5C180.8,76.7,181.7,77.8,182.2,78.7z"/>
		</g>
	</g>
</g>
<g id="RectEndPoint16" transform="translate(306.9375,298)">
	<rect x="14.5" class="st9" width="97" height="50"/>
	<rect x="12.5" y="-2" class="st10" width="97" height="50"/>
	<g transform="translate(20 9)">
		<g class="st3">
			<path class="st4" d="M15,13.1c0,2.8-0.4,5.3-1.3,7.3L13,19.7c0.7-1.7,1.1-3.9,1.1-6.6v-5h6.8v3.4H15V13.1z M15,9.1v1.6h4.9V9.1
				H15z M18.7,12.1v1.4h2.2V18c0,0.8-0.4,1.1-1.1,1.1h-0.6L19,18.2h0.6c0.3,0,0.4-0.2,0.4-0.5v-3.4h-1.3v6h-0.9v-6h-1.3v4.8h-0.9
				v-5.7h2.2V12L18.7,12.1L18.7,12.1z M22.1,20.3l-0.2-1c0.7,0,1.3,0.1,1.9,0.1c0.4,0,0.6-0.2,0.6-0.7V7.6h1V19
				c0,0.9-0.4,1.3-1.3,1.3H22.1z M22.9,8.8v8.7H22V8.8H22.9z"/>
			<path class="st4" d="M33.4,7.6v1.7H38v1h-4.6v2.1h6.4v1h-6.4v1.4c1.7,0.7,3.3,1.6,5,2.6l-0.6,0.9c-1.8-1.1-3.2-1.9-4.4-2.5v4.6
				h-1v-7h-5v-1h5V7.6H33.4z"/>
			<path class="st4" d="M48,7.6v1.8h5.5v1H48v2.1h3.8v0.9c-0.8,1.6-1.9,2.9-3.4,4c0.7,0.4,1.5,0.8,2.3,1.1c1,0.4,2.1,0.7,3.2,1
				l-0.6,0.9c-1.2-0.3-2.4-0.7-3.4-1.2c-0.9-0.4-1.6-0.8-2.3-1.2c-1.6,1-3.5,1.8-5.7,2.4l-0.6-0.9c2.1-0.5,4-1.2,5.5-2.1
				c-0.7-0.5-1.4-1.2-1.9-1.9c-0.5-0.6-0.9-1.4-1.1-2.1h-1.1v-0.9H47v-2.1h-5.4v-1H47V7.6H48z M50.7,13.5h-6c0.3,0.7,0.6,1.4,1.2,2
				c0.5,0.6,1,1.1,1.7,1.5C48.9,15.9,49.9,14.8,50.7,13.5z"/>
			<path class="st4" d="M59.2,7.9c-0.3,1-0.7,1.9-1.1,2.8v9.8h-1v-8.1c-0.5,0.7-1.1,1.4-1.7,2.1L55,13.4c1.5-1.7,2.6-3.7,3.2-5.9
				L59.2,7.9z M64.8,10.6v-3h1v3h2v1h-2v7.3c0,1-0.4,1.4-1.3,1.4h-2l-0.2-1c0.7,0,1.3,0.1,1.9,0.1c0.4,0,0.7-0.3,0.7-0.8v-7.1h-5.4
				v-1L64.8,10.6L64.8,10.6z M63.2,16.4L62.4,17c-0.6-1-1.4-2.2-2.4-3.4l0.8-0.5C61.8,14.4,62.7,15.5,63.2,16.4z"/>
		</g>
	</g>
</g>
<g id="RectEndPoint17" transform="translate(421.9375,298)">
	<rect x="14.5" class="st9" width="97" height="50"/>
	<rect x="12.5" y="-2" class="st10" width="97" height="50"/>
	<g transform="translate(20 9)">
		<g class="st3">
			<path class="st4" d="M17.9,14.3c-0.6,0.3-1.1,0.5-1.7,0.7v4c0,0.8-0.4,1.2-1.2,1.2h-1.1l-0.2-1c0.4,0,0.7,0.1,1.1,0.1
				c0.3,0,0.5-0.2,0.5-0.5v-3.5c-0.6,0.2-1.2,0.4-1.8,0.5l-0.2-1c0.7-0.2,1.4-0.3,2.1-0.6V11h-2.1v-1h1.9V7.6h1v2.6h1.5v1h-1.5V14
				c0.6-0.2,1.1-0.5,1.7-0.7V14.3z M25.3,8.6V20h-1v-0.9H18v-1h6.2v-3.9h-5.6v-1h5.6V9.6h-5.9v-1H25.3z"/>
			<path class="st4" d="M31.8,19.7h-0.9v-0.8h-1.5V20h-0.9v-5.7c-0.3,0.5-0.6,1-0.9,1.5L27,14.9c1.1-1.6,1.8-3.5,2.1-5.6h-1.7v-1
				h4.8v1h-2.1c-0.2,1.1-0.5,2.2-0.8,3.2h2.6v7.2C31.9,19.7,31.8,19.7,31.8,19.7z M30.9,18v-4.6h-1.5V18H30.9z M37.7,16.4v1h-5.1v-1
				H37.7z M34.7,10.1l-0.6,3.5h3L37.8,9h-4.9V8h6l-0.8,5.5h1.5c0,3.4-0.2,5.3-0.6,5.9c-0.4,0.5-1.2,0.8-2.4,0.8c-0.4,0-0.8,0-1.3,0
				l-0.3-1c0.6,0.1,1.1,0.1,1.3,0.1c1.1,0,1.7-0.2,1.9-0.7s0.3-1.8,0.3-4.1H33l0.8-4.5L34.7,10.1z"/>
			<path class="st4" d="M48,7.6v1.8h5.5v1H48v2.1h3.8v0.9c-0.8,1.6-1.9,2.9-3.4,4c0.7,0.4,1.5,0.8,2.3,1.1c1,0.4,2.1,0.7,3.2,1
				l-0.6,0.9c-1.2-0.3-2.4-0.7-3.4-1.2c-0.9-0.4-1.6-0.8-2.3-1.2c-1.6,1-3.5,1.8-5.7,2.4l-0.6-0.9c2.1-0.5,4-1.2,5.5-2.1
				c-0.7-0.5-1.4-1.2-1.9-1.9c-0.5-0.6-0.9-1.4-1.1-2.1h-1.1v-0.9H47v-2.1h-5.4v-1H47V7.6H48z M50.7,13.5h-6c0.3,0.7,0.6,1.4,1.2,2
				c0.5,0.6,1,1.1,1.7,1.5C48.9,15.9,49.9,14.8,50.7,13.5z"/>
			<path class="st4" d="M59.2,7.9c-0.3,1-0.7,1.9-1.1,2.8v9.8h-1v-8.1c-0.5,0.7-1.1,1.4-1.7,2.1L55,13.4c1.5-1.7,2.6-3.7,3.2-5.9
				L59.2,7.9z M64.8,10.6v-3h1v3h2v1h-2v7.3c0,1-0.4,1.4-1.3,1.4h-2l-0.2-1c0.7,0,1.3,0.1,1.9,0.1c0.4,0,0.7-0.3,0.7-0.8v-7.1h-5.4
				v-1L64.8,10.6L64.8,10.6z M63.2,16.4L62.4,17c-0.6-1-1.4-2.2-2.4-3.4l0.8-0.5C61.8,14.4,62.7,15.5,63.2,16.4z"/>
		</g>
	</g>
</g>
<g id="RectEndPoint18" transform="translate(421.9375,360)">
	<rect x="14.5" y="0.3" class="st9" width="97" height="50"/>
	<rect x="12.5" y="-1.7" class="st10" width="97" height="50"/>
	<g transform="translate(20 9)">
		<g class="st3">
			<path class="st4" d="M16.2,12.1v6.3c0.5-0.4,1.1-0.9,1.8-1.5l0.3,1.1c-0.9,0.8-1.9,1.6-2.9,2.2l-0.5-0.9c0.2-0.2,0.3-0.4,0.3-0.6
				v-5.6h-2v-1C13.2,12.1,16.2,12.1,16.2,12.1z M17.2,10.1l-0.7,0.7c-0.6-0.7-1.4-1.4-2.4-2.2l0.7-0.7C15.8,8.7,16.6,9.4,17.2,10.1z
				 M26,8.7v1h-2.9v9.6c0,0.9-0.4,1.3-1.3,1.3H20l-0.2-1c0.6,0,1.2,0.1,1.7,0.1c0.4,0,0.6-0.2,0.6-0.7V9.6H18v-1L26,8.7L26,8.7z"/>
			<path class="st4" d="M34.7,10c0.4-0.7,0.9-1.5,1.2-2.3l1,0.3c-0.3,0.7-0.7,1.4-1.1,1.9h2.7v5.8H34V17h5.7v1H34v2.7h-1V18h-5.7v-1
				H33v-1.3h-4.4V10H34.7z M33,12.5V11h-3.4v1.5H33z M33,13.3h-3.4v1.6H33V13.3z M32.4,9.6L31.6,10c-0.4-0.7-0.9-1.3-1.3-1.8
				l0.9-0.4C31.6,8.4,32,9,32.4,9.6z M34,12.5h3.4V11H34V12.5z M37.4,13.3H34v1.6h3.4V13.3z"/>
			<path class="st4" d="M42.2,11.3l-0.9-0.6c0.8-0.9,1.5-1.8,1.8-2.9l1,0.2c-0.1,0.3-0.2,0.6-0.4,0.9h3.8v0.9h-2.4
				c0.3,0.4,0.6,0.8,0.8,1.2L45,11.3c-0.3-0.5-0.6-1.1-0.9-1.6h-0.8C42.9,10.3,42.6,10.8,42.2,11.3z M53.5,14.2h-1v-1.7h-9.9v1.7h-1
				v-2.5h5.5c-0.1-0.3-0.3-0.6-0.4-0.9l1-0.2l-0.1-0.1c0.7-0.8,1.1-1.8,1.5-2.8l1,0.2c-0.1,0.3-0.2,0.6-0.3,0.9h4v0.9h-2.5
				c0.3,0.4,0.5,0.8,0.7,1.1l-0.9,0.3c-0.3-0.5-0.5-1-0.9-1.4h-0.9c-0.3,0.5-0.5,0.9-0.9,1.3l-0.8-0.5c0.2,0.3,0.3,0.7,0.4,1.1h5.3
				v2.6C53.3,14.2,53.5,14.2,53.5,14.2z M51.5,16.1h-7v1h7.6v3.6h-1v-0.6h-6.6v0.6h-1v-7.3h8V16.1z M50.6,15.3v-1.1h-6v1.1H50.6z
				 M51.2,19.2v-1.3h-6.6v1.3H51.2z"/>
			<path class="st4" d="M56.9,13.1V9.7h-1.7v-1h4.5v1H58V13h1.5v1H58v3.2c0.5-0.2,1-0.4,1.5-0.6v1c-1.3,0.5-2.7,1-4.2,1.3l-0.3-1
				c0.6-0.1,1.2-0.3,1.8-0.4V14h-1.5v-1h1.6C56.9,13,56.9,13.1,56.9,13.1z M67.2,8.4v6.5h-2.9v1.7h3.2v1h-3.2v1.7H68v1h-8.4v-1h3.8
				v-1.8h-3.2v-1h3.2v-1.7h-2.9V8.4H67.2z M63.3,11.2V9.3h-2v1.9H63.3z M63.3,12.1h-2V14h2V12.1z M64.3,11.2h1.9V9.3h-1.9V11.2z
				 M66.2,12.1h-1.9V14h1.9V12.1z"/>
		</g>
	</g>
</g>
<rect x="674.3" y="299.4" class="st9" width="97" height="50"/>
<rect x="672.3" y="297.4" class="st10" width="97" height="50"/>
<g id="RectEndPoint20" transform="translate(189.9375,360)">
	<rect x="368.2" y="-61.4" class="st9" width="97" height="50"/>
	<rect x="366.2" y="-63.4" class="st10" width="97" height="50"/>
	<g transform="translate(20 9)">
		<g class="st3">
			<path class="st4" d="M373.8-52.7h5.6v1h-3c-0.3,0.6-0.5,1.2-0.8,1.7h3.1v7.6c0,0.9-0.4,1.4-1.2,1.4h-1.4l-0.3-0.9h1.4
				c0.4,0,0.6-0.3,0.6-0.7V-49h-9v8h-1v-8.9h3c-0.2-0.6-0.5-1.2-0.7-1.7H367v-1h5.7c-0.2-0.4-0.3-0.8-0.5-1.1l1.1-0.2
				C373.5-53.6,373.7-53.2,373.8-52.7z M372.5-48.2c-0.8,1-1.8,1.8-3,2.5l-0.6-0.8c1.1-0.6,2.1-1.4,2.9-2.3L372.5-48.2z M375.8-46.2
				v3.4h-5.2v-3.4C370.6-46.2,375.8-46.2,375.8-46.2z M374.5-50c0.3-0.6,0.6-1.1,0.8-1.7h-4.2c0.2,0.5,0.5,1.1,0.7,1.7H374.5z
				 M374.9-45.2h-3.3v1.6h3.3V-45.2z M377.5-46.5l-0.8,0.8c-0.7-0.8-1.6-1.6-2.8-2.5l0.7-0.6C375.7-48.1,376.7-47.3,377.5-46.5z"/>
			<path class="st4" d="M381.4-40.9l-0.7-0.7c1.1-1.6,1.7-3.6,1.7-6.1v-4.4h4.6c-0.3-0.6-0.5-1.1-0.8-1.6l1.1-0.2
				c0.3,0.5,0.5,1.1,0.8,1.8h4.4v4.7h-9C383.4-44.9,382.7-42.8,381.4-40.9z M383.4-51.1v2.7h8v-2.7H383.4z"/>
			<path class="st4" d="M395.9-50.4L395-51c0.8-0.9,1.5-1.8,1.8-2.9l1,0.2c-0.1,0.3-0.2,0.6-0.4,0.9h3.8v0.9h-2.4
				c0.3,0.4,0.6,0.8,0.8,1.2l-0.9,0.3c-0.3-0.5-0.6-1.1-0.9-1.6H397C396.6-51.4,396.3-50.9,395.9-50.4z M407.2-47.5h-1v-1.7h-9.9
				v1.7h-1V-50h5.5c-0.1-0.3-0.3-0.6-0.4-0.9l1-0.2l-0.1-0.1c0.7-0.8,1.1-1.8,1.5-2.8l1,0.2c-0.1,0.3-0.2,0.6-0.3,0.9h4v0.9H405
				c0.3,0.4,0.5,0.8,0.7,1.1l-0.9,0.3c-0.3-0.5-0.5-1-0.9-1.4H403c-0.3,0.5-0.5,0.9-0.9,1.3l-0.8-0.5c0.2,0.3,0.3,0.7,0.4,1.1h5.3
				v2.6C407-47.5,407.2-47.5,407.2-47.5z M405.2-45.6h-7v1h7.6v3.6h-1v-0.6h-6.6v0.6h-1v-7.3h8V-45.6z M404.3-46.4v-1.1h-6v1.1
				H404.3z M404.9-42.5v-1.3h-6.6v1.3H404.9z"/>
			<path class="st4" d="M410.6-48.6V-52h-1.7v-1h4.5v1h-1.7v3.3h1.5v1h-1.5v3.2c0.5-0.2,1-0.4,1.5-0.6v1c-1.3,0.5-2.7,1-4.2,1.3
				l-0.3-1c0.6-0.1,1.2-0.3,1.8-0.4v-3.5H409v-1h1.6V-48.6z M420.9-53.3v6.5H418v1.7h3.2v1H418v1.7h3.7v1h-8.4v-1h3.8v-1.8h-3.2v-1
				h3.2v-1.7h-2.9v-6.4H420.9z M417-50.5v-1.9h-2v1.9H417z M417-49.6h-2v1.9h2V-49.6z M418-50.5h1.9v-1.9H418V-50.5z M419.9-49.6
				H418v1.9h1.9V-49.6z"/>
		</g>
	</g>
</g>
<g id="RectEndPoint21" transform="translate(421.9375,424)">
	<rect x="14.5" y="-2.8" class="st9" width="97" height="50"/>
	<rect x="12.5" y="-4.8" class="st10" width="97" height="50"/>
	<g transform="translate(20 9)">
		<g class="st3">
			<path class="st4" d="M19.9,4.8c1.8,2,3.8,3.6,6.1,4.7l-0.5,1c-2.3-1.2-4.3-2.8-6-4.8c-1.5,1.8-3.5,3.4-6,4.8l-0.5-1
				c2.5-1.3,4.5-2.8,6.2-4.7H19.9z M25.2,11.9v1h-6.6c-0.7,1.3-1.5,2.5-2.4,3.5c2.3-0.1,4.5-0.3,6.5-0.6c-0.5-0.6-1-1.3-1.6-1.9
				l0.8-0.5c1.3,1.4,2.3,2.7,2.9,3.7L24,17.6c-0.2-0.4-0.5-0.8-0.8-1.1c-2.2,0.3-4.9,0.6-8.3,0.8l-0.3-0.9c0.3-0.1,0.4-0.2,0.5-0.3
				c0.9-1,1.7-2.1,2.3-3.3h-3.5v-1L25.2,11.9L25.2,11.9z M23,9.1v1h-6.9v-1H23z"/>
			<path class="st4" d="M34.2,11.8c-0.2,2.1-0.6,3.4-1.3,4.2c-0.7,0.9-2.4,1.4-5,1.7l-0.4-0.9c2.3-0.1,3.8-0.6,4.5-1.4
				c0.6-0.7,1-1.9,1.1-3.7L34.2,11.8z M38.3,15.1h-1v-4.3h-7.4v4.4h-1V9.8h9.4V15.1z M37.4,5.3v3.5h-7.7V5.3H37.4z M36.4,6.2h-5.8
				v1.7h5.8V6.2z M39.5,16.8L39,17.6c-1.6-0.8-3.3-1.5-5-2l0.5-0.8C36.4,15.4,38,16.1,39.5,16.8z"/>
			<path class="st4" d="M47.4,4.8v1.7H52v1h-4.6v2.1h6.4v1h-6.4V12c1.7,0.7,3.3,1.6,5,2.6l-0.6,0.9c-1.8-1.1-3.2-1.9-4.4-2.5v4.6h-1
				v-7h-5v-1h5V4.8H47.4z"/>
			<path class="st4" d="M57.9,13.2v-0.8c-0.7,0.5-1.5,1-2.3,1.4L55,12.9c1.5-0.6,2.7-1.5,3.7-2.6h-3.2V9.4h4c0.3-0.5,0.6-1,0.8-1.5
				h-4V7h4.4c0.3-0.8,0.4-1.6,0.6-2.4l1,0.1C62.2,5.5,62,6.3,61.8,7h2.8l-0.7-0.4C64.3,6,64.7,5.4,65,4.7L65.8,5
				c-0.3,0.8-0.7,1.5-1.2,2h2.2v0.9h-5.4c-0.2,0.5-0.5,1.1-0.8,1.5h7v0.9h-3.1c0.7,1,1.9,1.8,3.5,2.6l-0.6,0.8
				c-0.8-0.5-1.5-0.9-2.1-1.4c0,1.2-0.1,2.2-0.2,3s-0.3,1.3-0.6,1.6c-0.3,0.3-0.7,0.5-1.3,0.5h-2.1l-0.3-0.9c0.7,0,1.3,0,1.9,0
				c0.6,0,1-0.2,1.2-0.6s0.3-1.4,0.4-2.8h-3.4c-0.3,1.1-0.7,1.9-1.2,2.5c-0.6,0.7-1.5,1.3-2.7,1.9l-0.6-0.8c1.1-0.5,1.9-1,2.5-1.6
				c0.5-0.5,0.8-1.2,1.1-2.1h-2.1C57.9,13,57.9,13.2,57.9,13.2z M59.3,6.6L58.5,7c-0.3-0.7-0.7-1.4-1.1-2l0.9-0.3
				C58.7,5.3,59,5.9,59.3,6.6z M58.2,12.2h7c-0.7-0.6-1.3-1.2-1.7-1.9H60C59.4,11.1,58.8,11.7,58.2,12.2z"/>
		</g>
	</g>
</g>
<g id="RectEndPoint22" transform="translate(307.9375,424)">
	<rect x="250.2" y="-63.7" class="st9" width="97" height="50"/>
	<rect x="248.2" y="-65.7" class="st10" width="97" height="50"/>
	<g transform="translate(20 9)">
		<g class="st3">
			<path class="st4" d="M251.9-55.7c-0.6,1.5-1.6,2.8-2.9,4l-0.3-1c1.1-1,1.8-2.1,2.3-3.4L251.9-55.7z M252-51.9
				c-0.2,0.5-0.4,1.1-0.7,1.5v7.1h-0.9v-5.8c-0.4,0.5-0.8,0.9-1.3,1.3l-0.3-1c1.1-1.1,1.9-2.3,2.4-3.6L252-51.9z M255.1-45
				c0.1-0.1,0.2-0.2,0.3-0.4v-2.5h-1.5v0.6c0,1.8-0.5,3.1-1.3,3.9l-0.7-0.6c0.7-0.8,1.1-1.8,1.1-3.3v-1.5h3.3v3.1
				c0.4-0.3,0.8-0.7,1.2-1.1l0.2,0.9c-0.7,0.8-1.4,1.4-2.2,1.8L255.1-45z M256.8-50.8v0.9h-4.4v-0.9H256.8z M255.1-56.1v3.2h1v-2.5
				h0.8v3.3h-4.5v-3.3h0.8v2.4h1v-3.1C254.2-56.1,255.1-56.1,255.1-56.1z M258.1-50.6c-0.3,0.7-0.5,1.3-0.8,1.8l-0.6-0.7
				c0.8-1.7,1.4-3.9,1.7-6.7l0.9,0.2c-0.1,0.8-0.2,1.5-0.3,2.1h2.6v0.9H261c-0.1,2.4-0.4,4.4-1.1,6.1c0.5,1.1,1.1,2,1.8,2.7
				l-0.6,0.9c-0.7-0.6-1.2-1.5-1.7-2.6c-0.5,1-1.2,1.9-2,2.6l-0.5-0.8c0.9-0.7,1.6-1.7,2.1-2.9C258.6-48.1,258.3-49.3,258.1-50.6z
				 M258.5-52c0.2,1.5,0.5,2.7,0.9,3.8c0.4-1.4,0.6-3,0.7-4.8h-1.4C258.7-52.6,258.6-52.3,258.5-52z"/>
			<path class="st4" d="M263-49.4l-0.3-1c1.4-1.7,2.4-3.6,3-5.8l0.9,0.4c-0.3,1.1-0.7,2.1-1.2,3v9.5h-1v-7.9
				C264-50.5,263.5-49.9,263-49.4z M270.9-54.3c-0.2-0.6-0.4-1.1-0.7-1.6l1-0.3c0.3,0.6,0.5,1.2,0.7,1.7l-0.5,0.2h4.3v1h-9.1v-1
				C266.6-54.3,270.9-54.3,270.9-54.3z M274.7-43.3h-1v-0.8h-5.2v0.8h-1v-4.9h7.2V-43.3z M274.5-52.2v0.9h-6.6v-0.9H274.5z
				 M274.5-50.2v0.9h-6.6v-0.9H274.5z M273.7-45v-2.2h-5.2v2.2H273.7z"/>
			<path class="st4" d="M284.5-53.7v3c0,0.8-0.1,1.5-0.3,2.1h5.2v1h-5.5c-0.1,0.2-0.2,0.4-0.3,0.6c2,0.9,3.9,1.9,5.5,2.9l-0.7,0.8
				c-1.7-1.1-3.5-2.1-5.4-2.9c-0.1,0.1-0.2,0.2-0.2,0.3c-1,1.1-2.7,2-5,2.6l-0.6-0.9c2.3-0.6,3.9-1.4,4.9-2.4c0.3-0.3,0.5-0.6,0.6-1
				h-5.6v-1h6c0.2-0.6,0.3-1.4,0.3-2.1v-3C283.4-53.7,284.5-53.7,284.5-53.7z M288.4-55.3v0.6c-0.2,0.8-0.5,1.7-0.8,2.5l-1-0.3
				c0.3-0.6,0.5-1.2,0.7-1.9h-9.6v-0.9C277.7-55.3,288.4-55.3,288.4-55.3z M281.3-50.1l-0.5,0.8c-0.9-0.7-1.9-1.3-2.9-1.7l0.5-0.7
				C279.5-51.3,280.4-50.7,281.3-50.1z M282.6-52.1l-0.5,0.8c-0.9-0.7-1.9-1.3-2.8-1.7l0.4-0.7C280.7-53.2,281.7-52.7,282.6-52.1z"
				/>
			<path class="st4" d="M298.4-54c0.4-0.7,0.9-1.5,1.2-2.3l1,0.3c-0.3,0.7-0.7,1.4-1.1,1.9h2.7v5.8h-4.5v1.3h5.7v1h-5.7v2.7h-1V-46
				H291v-1h5.7v-1.3h-4.4V-54H298.4z M296.7-51.5V-53h-3.4v1.5H296.7z M296.7-50.7h-3.4v1.6h3.4V-50.7z M296.1-54.4l-0.8,0.4
				c-0.4-0.7-0.9-1.3-1.3-1.8l0.9-0.4C295.3-55.6,295.7-55,296.1-54.4z M297.7-51.5h3.4V-53h-3.4V-51.5z M301.1-50.7h-3.4v1.6h3.4
				V-50.7z"/>
		</g>
	</g>
</g>
<g id="RectEndPoint23" transform="translate(189.9375,424)">
	<rect x="484" y="-63.7" class="st9" width="97" height="50"/>
	<rect x="482" y="-65.7" class="st10" width="97" height="50"/>
	<g transform="translate(20 9)">
		<g class="st3">
			<path class="st4" d="M489.5-43.6c-0.9,0-1.6-0.1-2.2-0.3c-0.5-0.2-1-0.5-1.5-1c-0.2-0.2-0.4-0.3-0.5-0.3c-0.3,0-0.9,0.6-1.7,1.9
				l-0.8-0.7c0.7-1.2,1.4-1.9,2-2.1v-4.3h-2v-0.9h2.9v5.2c0.1,0.1,0.2,0.2,0.3,0.3c0.3,0.4,0.7,0.7,1.1,0.9s1.1,0.3,1.9,0.3
				c0.7,0,1.6,0,2.7,0c0.7,0,1.3,0,2,0s1.2,0,1.6-0.1l-0.2,1h-3.2C491.2-43.6,490.4-43.6,489.5-43.6z M486.2-53.7l-0.7,0.7
				c-0.6-0.7-1.3-1.4-2.3-2.2l0.7-0.7C484.8-55.2,485.6-54.5,486.2-53.7z M488.8-53.9v-2.3h1v2.2h2.2v-2.1h1v2.2h1.8v0.9H493v2.8
				h2.2v1H493v4h-1v-4h-2.5c-0.4,1.7-1.1,2.9-2.2,3.7l-0.6-0.8c0.9-0.6,1.5-1.6,1.8-2.9h-1.8v-1h2c0.1-0.5,0.1-1.1,0.1-1.7V-53h-1.7
				v-0.9H488.8z M489.8-52.1c0,0.7,0,1.3-0.1,1.9h2.3V-53h-2.2C489.8-53,489.8-52.1,489.8-52.1z"/>
			<path class="st4" d="M500.7-55.8c-0.4,1.1-0.8,2.2-1.4,3.2v9.4h-1V-51c-0.4,0.6-0.9,1.2-1.5,1.8l-0.3-1.2
				c1.5-1.7,2.5-3.6,3.2-5.8L500.7-55.8z M503-55.2c-0.1,0.7-0.3,1.4-0.5,2h2.1v-2.9h1v2.9h3.2v1h-3.2v3.4h3.7v1h-3.7v4.5h-1v-4.5
				h-4.1v-1h4.1v-3.4h-2.4c-0.4,0.9-0.8,1.8-1.3,2.5l-0.6-0.8c0.9-1.3,1.4-2.9,1.7-4.7H503z"/>
			<path class="st4" d="M511.7-52.7l-0.9-0.6c0.8-0.9,1.5-1.8,1.8-2.9l1,0.2c-0.1,0.3-0.2,0.6-0.4,0.9h3.8v0.9h-2.4
				c0.3,0.4,0.6,0.8,0.8,1.2l-0.9,0.3c-0.3-0.5-0.6-1.1-0.9-1.6h-0.8C512.4-53.7,512.1-53.2,511.7-52.7z M523-49.8h-1v-1.7h-9.9v1.7
				h-1v-2.5h5.5c-0.1-0.3-0.3-0.6-0.4-0.9l1-0.2l-0.1-0.1c0.7-0.8,1.1-1.8,1.5-2.8l1,0.2c-0.1,0.3-0.2,0.6-0.3,0.9h4v0.9h-2.5
				c0.3,0.4,0.5,0.8,0.7,1.1l-0.9,0.3c-0.3-0.5-0.5-1-0.9-1.4h-0.9c-0.3,0.5-0.5,0.9-0.9,1.3l-0.8-0.5c0.2,0.3,0.3,0.7,0.4,1.1h5.3
				v2.6C522.8-49.8,523-49.8,523-49.8z M521-47.9h-7v1h7.6v3.6h-1v-0.6H514v0.6h-1v-7.3h8V-47.9z M520.1-48.7v-1.1h-6v1.1H520.1z
				 M520.7-44.8v-1.3h-6.6v1.3H520.7z"/>
			<path class="st4" d="M526.4-50.9v-3.4h-1.7v-1h4.5v1h-1.7v3.3h1.5v1h-1.5v3.2c0.5-0.2,1-0.4,1.5-0.6v1c-1.3,0.5-2.7,1-4.2,1.3
				l-0.3-1c0.6-0.1,1.2-0.3,1.8-0.4V-50h-1.5v-1L526.4-50.9C526.4-51,526.4-50.9,526.4-50.9z M536.7-55.6v6.5h-2.9v1.7h3.2v1h-3.2
				v1.7h3.7v1h-8.4v-1h3.8v-1.8h-3.2v-1h3.2v-1.7H530v-6.4H536.7z M532.8-52.8v-1.9h-2v1.9H532.8z M532.8-51.9h-2v1.9h2V-51.9z
				 M533.8-52.8h1.9v-1.9h-1.9V-52.8z M535.7-51.9h-1.9v1.9h1.9V-51.9z"/>
		</g>
	</g>
</g>
<g id="RectEndPoint24" transform="translate(421.9375,490)">
	<rect x="252" y="-68.8" class="st9" width="97" height="50"/>
	<rect x="250" y="-70.8" class="st10" width="97" height="50"/>
	<g transform="translate(20 9)">
		<g class="st3">
			<path class="st4" d="M251-52c0.2-0.1,0.3-0.2,0.3-0.3V-60h1v7.6c0.7-0.2,1.4-0.4,2.1-0.7v-8.1h1v12.7h-1v-3.6
				c-1,0.4-2,0.7-3.1,0.9L251-52z M256.3-54.6l-0.6-0.8c1.1-1.5,1.9-3.4,2.3-5.9l1,0.2c-0.1,0.7-0.3,1.4-0.5,2h4.7v1H262
				c-0.1,2.3-0.7,4.3-1.7,5.9c0.9,1.1,2,2.2,3.2,3.1l-0.7,0.8c-1.2-0.9-2.3-1.9-3.2-3c-0.9,1.2-2.1,2.1-3.6,2.9l-0.6-0.9
				c1.5-0.7,2.6-1.7,3.5-2.8c-0.8-1.1-1.4-2.3-1.9-3.6C256.9-55.3,256.6-55,256.3-54.6z M257.7-56.9c0.5,1.4,1.1,2.6,2,3.8
				c0.8-1.4,1.3-3.1,1.4-5h-2.8C258.1-57.7,257.9-57.3,257.7-56.9z"/>
			<path class="st4" d="M267.4-61c-0.1,0.5-0.3,0.9-0.4,1.4h2.7v1h-3.1c-0.4,1-0.8,1.8-1.3,2.6l-0.8-0.5c0.9-1.4,1.5-2.9,1.8-4.7
				L267.4-61z M269.4-56.9v0.9h-1.5v1.8h1.9v0.9h-1.9v3.3c0.5-0.2,1-0.4,1.6-0.7l0.2,0.9c-0.8,0.4-1.7,0.8-2.8,1l-0.4-0.8
				c0.3-0.1,0.5-0.2,0.5-0.4v-3.2h-2.1v-0.9h2.1v-1.8h-0.9v-0.9L269.4-56.9L269.4-56.9L269.4-56.9z M277.3-53.4
				c-0.6,0.8-1.3,1.3-2.1,1.7c0.6,0.9,1.3,1.7,2.3,2.3l-0.5,0.9c-2.1-1.5-3.4-3.6-3.9-6.2h-1.6v4.9c0.8-0.2,1.6-0.5,2.4-0.9l0.2,0.9
				c-1,0.4-2.2,0.8-3.7,1.2l-0.2-0.8c0.2-0.1,0.3-0.2,0.3-0.3v-11h5.9v5.9h-2.5c0.2,0.9,0.4,1.6,0.8,2.3c0.7-0.4,1.3-0.9,1.9-1.6
				L277.3-53.4z M275.5-59.8h-4v1.6h4V-59.8z M271.5-55.7h4v-1.6h-4V-55.7z"/>
			<path class="st4" d="M282.8-57.3v2.1h1.7v0.9h-1.8v1.9c0.7-0.1,1.4-0.3,2-0.4v1c-0.6,0.2-1.3,0.3-2,0.4v3.1h-1v-2.9
				c-0.9,0.2-1.9,0.3-2.9,0.4l-0.1-1c1.1-0.1,2.1-0.3,3-0.4v-2.1h-2.6l-0.2-0.9c0.4-0.8,0.8-1.8,1.1-3.1h-1.3v-1h1.6
				c0.1-0.6,0.3-1.3,0.4-1.9l1,0.2c-0.1,0.6-0.3,1.2-0.4,1.8h3.4v1H281c-0.3,1.1-0.7,2.2-1.1,3.1h1.7v-2.1L282.8-57.3L282.8-57.3z
				 M288.3-57.2c0,1-0.1,1.8-0.1,2.6c0.7,2.2,1.8,4,3.4,5.3l-0.7,0.8c-1.3-1.2-2.3-2.6-3-4.4c0,0.1,0,0.2-0.1,0.3
				c-0.4,1.7-1.5,3.1-3,4.1l-0.7-0.8c1.4-0.9,2.3-2.1,2.7-3.5c0.3-1.2,0.5-2.7,0.5-4.5L288.3-57.2C288.3-57.3,288.3-57.2,288.3-57.2
				z M287.1-61.2c-0.1,0.8-0.2,1.5-0.4,2.1h4.4v0.6c-0.3,1.2-0.6,2.4-1,3.6l-1-0.3c0.4-0.9,0.7-1.9,1-3h-3.6c-0.3,1.1-0.8,2-1.3,2.7
				l-0.8-0.6c0.9-1.3,1.4-3.1,1.7-5.4L287.1-61.2z"/>
			<path class="st4" d="M296.7-60.9c-0.4,1.1-0.8,2.2-1.4,3.2v9.4h-1v-7.8c-0.4,0.6-0.9,1.2-1.5,1.8l-0.3-1.2
				c1.5-1.7,2.5-3.6,3.2-5.8L296.7-60.9z M299-60.3c-0.1,0.7-0.3,1.4-0.5,2h2.1v-2.9h1v2.9h3.2v1h-3.2v3.4h3.7v1h-3.7v4.5h-1v-4.5
				h-4.1v-1h4.1v-3.4h-2.4c-0.4,0.9-0.8,1.8-1.3,2.5l-0.6-0.8c0.9-1.3,1.4-2.9,1.7-4.7H299z"/>
		</g>
	</g>
</g>
<g id="RectEndPoint25" transform="translate(307.9375,490)">
	<rect x="14.4" y="-68.8" class="st9" width="97" height="50"/>
	<rect x="12.4" y="-70.8" class="st10" width="97" height="50"/>
	<g transform="translate(20 9)">
		<g class="st3">
			<path class="st4" d="M13.4-52c0.2-0.1,0.3-0.2,0.3-0.3V-60h1v7.6c0.7-0.2,1.4-0.4,2.1-0.7v-8.1h1v12.7h-1v-3.6
				c-1,0.4-2,0.7-3.1,0.9L13.4-52z M18.7-54.6l-0.6-0.8c1.1-1.5,1.9-3.4,2.3-5.9l1,0.2c-0.1,0.7-0.3,1.4-0.5,2h4.7v1h-1.2
				c-0.1,2.3-0.7,4.3-1.7,5.9c0.9,1.1,2,2.2,3.2,3.1l-0.7,0.8c-1.2-0.9-2.3-1.9-3.2-3c-0.9,1.2-2.1,2.1-3.6,2.9l-0.6-0.9
				c1.5-0.7,2.6-1.7,3.5-2.8c-0.8-1.1-1.4-2.3-1.9-3.6C19.3-55.3,19-55,18.7-54.6z M20.1-56.9c0.5,1.4,1.1,2.6,2,3.8
				c0.8-1.4,1.3-3.1,1.4-5h-2.8C20.5-57.7,20.3-57.3,20.1-56.9z"/>
			<path class="st4" d="M29.8-61c-0.1,0.5-0.3,0.9-0.4,1.4h2.7v1H29c-0.4,1-0.8,1.8-1.3,2.6l-0.8-0.5c0.9-1.4,1.5-2.9,1.8-4.7
				L29.8-61z M31.8-56.9v0.9h-1.5v1.8h1.9v0.9h-1.9v3.3c0.5-0.2,1-0.4,1.6-0.7l0.2,0.9c-0.8,0.4-1.7,0.8-2.8,1l-0.4-0.8
				c0.3-0.1,0.5-0.2,0.5-0.4v-3.2h-2.1v-0.9h2.1v-1.8h-0.9v-0.9L31.8-56.9C31.8-56.8,31.8-56.9,31.8-56.9z M39.7-53.4
				c-0.6,0.8-1.3,1.3-2.1,1.7c0.6,0.9,1.3,1.7,2.3,2.3l-0.5,0.9c-2.1-1.5-3.4-3.6-3.9-6.2h-1.6v4.9c0.8-0.2,1.6-0.5,2.4-0.9l0.2,0.9
				c-1,0.4-2.2,0.8-3.7,1.2l-0.2-0.8c0.2-0.1,0.3-0.2,0.3-0.3v-11h5.9v5.9h-2.5c0.2,0.9,0.4,1.6,0.8,2.3c0.7-0.4,1.3-0.9,1.9-1.6
				L39.7-53.4z M37.9-59.8h-4v1.6h4V-59.8z M33.9-55.7h4v-1.6h-4V-55.7z"/>
			<path class="st4" d="M45.2-54.5c-0.4,0.2-0.8,0.5-1.2,0.7v4.2c0,0.8-0.4,1.2-1.1,1.2h-1.2l-0.2-1c0.4,0,0.7,0.1,1.1,0.1
				c0.3,0,0.5-0.2,0.5-0.5v-3.5c-0.5,0.2-1.1,0.4-1.6,0.6l-0.2-1c0.6-0.2,1.2-0.4,1.9-0.7v-3.3h-1.8v-1h1.8v-2.5h1v2.6h1.2v1h-1.2
				v2.8c0.4-0.2,0.8-0.4,1.2-0.7v1C45.4-54.5,45.2-54.5,45.2-54.5z M53.6-60.1c-1,0.2-2.2,0.4-3.5,0.5v1.5h3.8v0.9h-3.8v7.1h2.4v-2
				h-1.7V-53h1.7v-1.8h-1.7v-0.9h2.6v7.3h-0.9v-0.8h-5.7v0.7h-0.9v-6.8c0.8-0.2,1.6-0.5,2.3-0.9l0.6,0.8c-0.6,0.3-1.3,0.5-2,0.7v1.7
				h1.7v0.9h-1.7v2h2.4v-7.1h-3.4v-0.9h3.4v-1.4c-1,0.1-2.1,0.1-3.2,0.1l-0.3-0.9c3,0,5.5-0.2,7.5-0.5L53.6-60.1z"/>
			<path class="st4" d="M59.1-60.9c-0.4,1.1-0.8,2.2-1.4,3.2v9.4h-1v-7.8c-0.4,0.6-0.9,1.2-1.5,1.8l-0.3-1.2
				c1.5-1.7,2.5-3.6,3.2-5.8L59.1-60.9z M61.4-60.3c-0.1,0.7-0.3,1.4-0.5,2H63v-2.9h1v2.9h3.2v1H64v3.4h3.7v1H64v4.5h-1v-4.5h-4.1
				v-1H63v-3.4h-2.4c-0.4,0.9-0.8,1.8-1.3,2.5l-0.6-0.8c0.9-1.3,1.4-2.9,1.7-4.7H61.4z"/>
		</g>
	</g>
</g>
<g id="RectEndPoint26" transform="translate(189.9375,490)">
	<rect x="368.2" y="-68.8" class="st9" width="97" height="50"/>
	<rect x="366.2" y="-70.8" class="st10" width="97" height="50"/>
	<g transform="translate(20 9)">
		<g class="st3">
			<path class="st4" d="M369-52.3v1.2h-1v-8.2h4.5v-1.9h1v1.9h4.5v7h-4.5v1.7c0,0.7,0.3,1,0.9,1h3.2c0.4,0,0.6-0.1,0.8-0.2
				c0.1-0.2,0.2-0.7,0.3-1.7l1,0.3c-0.1,1.2-0.2,1.9-0.5,2.2c-0.3,0.2-0.7,0.4-1.4,0.4h-3.6c-1.1,0-1.7-0.6-1.7-1.8v-1.9H369z
				 M369-58.3v2.1h3.4v-2.1H369z M369-53.3h3.4v-2.1H369C369-55.4,369-53.3,369-53.3z M377.1-58.3h-3.5v2.1h3.5V-58.3z M377.1-53.3
				v-2.1h-3.5v2.1H377.1z"/>
			<path class="st4" d="M387-55.2v-2c1.2-0.7,2.4-1.5,3.4-2.5h-7.9v-1h9.2v1c-1.1,1-2.4,2-3.8,3v1.5h5.3v1h-5.3v4.4
				c0,0.8-0.4,1.3-1.3,1.3h-2.4l-0.3-1c0.7,0,1.4,0,2.3,0c0.4,0,0.7-0.2,0.7-0.6v-4.2H381v-1L387-55.2L387-55.2z"/>
			<path class="st4" d="M401.6-61.3c1.8,2.1,3.8,3.7,6.2,4.9l-0.5,1c-2.3-1.3-4.3-2.9-6-4.9c-1.5,1.9-3.5,3.5-6,4.9l-0.5-1
				c2.5-1.3,4.6-2.9,6.2-4.9C401-61.3,401.6-61.3,401.6-61.3z M405.7-48.4h-1v-0.8h-6.9v0.8h-1V-54h8.9V-48.4z M404.9-56.8v1h-7.3
				v-1H404.9z M404.7-50.2v-2.9h-6.9v2.9H404.7z"/>
			<path class="st4" d="M417.8-48.5l-0.3-1h1.8c0.3,0,0.5-0.2,0.5-0.6v-9.6h-9.2v11.3h-1v-12.3h11.2v10.9c0,0.9-0.4,1.4-1.2,1.4
				L417.8-48.5L417.8-48.5z M418.8-58.1v0.9h-7.2v-0.9H418.8z M418.1-55.7v4.5h-5.6v-4.5H418.1z M417.1-54.7h-3.7v2.7h3.7V-54.7z"/>
		</g>
	</g>
</g>
<g id="RectEndPoint28" transform="translate(30.9375,657)">
	<rect x="19.1" y="-92.3" class="st9" width="97" height="50"/>
	<rect x="17.1" y="-94.3" class="st10" width="97" height="50"/>
	<g transform="translate(20 9)">
		<g class="st3">
			<path class="st4" d="M20.7-84.3c-0.6,1.5-1.6,2.8-2.9,4l-0.3-1c1.1-1,1.8-2.1,2.3-3.4L20.7-84.3z M20.8-80.5
				c-0.2,0.5-0.4,1.1-0.7,1.5v7.1h-0.9v-5.8c-0.4,0.5-0.8,0.9-1.3,1.3l-0.3-1c1.1-1.1,1.9-2.3,2.4-3.6L20.8-80.5z M23.9-73.6
				c0.1-0.1,0.2-0.2,0.3-0.4v-2.5h-1.5v0.6c0,1.8-0.5,3.1-1.3,3.9l-0.7-0.6c0.7-0.8,1.1-1.8,1.1-3.3v-1.5h3.3v3.1
				c0.4-0.3,0.8-0.7,1.2-1.1l0.2,0.9c-0.7,0.8-1.4,1.4-2.2,1.8L23.9-73.6z M25.6-79.4v0.9h-4.4v-0.9H25.6z M23.9-84.7v3.2h1v-2.4
				h0.8v3.3h-4.5v-3.3H22v2.4h1v-3.2H23.9z M26.9-79.2c-0.3,0.7-0.5,1.3-0.8,1.8l-0.6-0.7c0.8-1.7,1.4-3.9,1.7-6.7l0.9,0.2
				c-0.1,0.8-0.2,1.5-0.3,2.1h2.6v0.9h-0.6c-0.1,2.4-0.4,4.4-1.1,6.1c0.5,1.1,1.1,2,1.8,2.7L30-72c-0.7-0.6-1.2-1.5-1.7-2.6
				c-0.5,1-1.2,1.9-2,2.6l-0.5-0.8c0.9-0.7,1.6-1.7,2.1-2.9C27.5-76.7,27.1-77.9,26.9-79.2z M27.3-80.6c0.2,1.5,0.5,2.7,0.9,3.8
				c0.4-1.4,0.6-3,0.7-4.8h-1.3C27.5-81.2,27.4-80.9,27.3-80.6z"/>
			<path class="st4" d="M31.8-78l-0.3-1.1c1.4-1.7,2.4-3.6,3-5.8l0.9,0.4c-0.3,1.1-0.7,2.1-1.2,3v9.5h-1v-7.9
				C32.8-79.1,32.3-78.5,31.8-78z M39.7-82.9c-0.2-0.6-0.4-1.1-0.7-1.6l1-0.3c0.3,0.6,0.5,1.2,0.7,1.7l-0.5,0.2h4.4v1h-9.1v-1
				C35.5-82.9,39.7-82.9,39.7-82.9z M43.6-71.9h-1v-0.8h-5.2v0.8h-1v-4.9h7.1L43.6-71.9L43.6-71.9z M43.3-80.8v0.9h-6.6v-0.9H43.3z
				 M43.3-78.8v0.9h-6.6v-0.9H43.3z M42.6-73.6v-2.2h-5.2v2.2H42.6z"/>
			<path class="st4" d="M52.6-84.7v1.8h5.5v1h-5.5v2.1h3.8v0.9c-0.8,1.6-1.9,2.9-3.4,4c0.7,0.4,1.5,0.8,2.3,1.1c1,0.4,2.1,0.7,3.2,1
				l-0.6,0.9c-1.2-0.3-2.4-0.7-3.4-1.2c-0.9-0.4-1.6-0.8-2.3-1.2c-1.6,1-3.5,1.8-5.7,2.4l-0.6-0.9c2.1-0.5,4-1.2,5.5-2.1
				c-0.7-0.5-1.4-1.2-1.9-1.9c-0.5-0.6-0.9-1.4-1.1-2.1h-1.1v-0.9h4.4v-2.1h-5.4v-1h5.4v-1.8C51.7-84.7,52.6-84.7,52.6-84.7z
				 M55.2-78.8h-6c0.3,0.7,0.6,1.4,1.2,2c0.5,0.6,1,1.1,1.7,1.5C53.4-76.4,54.5-77.5,55.2-78.8z"/>
			<path class="st4" d="M63.7-84.4c-0.3,1-0.7,1.9-1.1,2.8v9.8h-1v-8.1c-0.5,0.7-1.1,1.4-1.7,2.1l-0.3-1.1c1.5-1.7,2.6-3.7,3.2-5.9
				L63.7-84.4z M69.4-81.7v-3h1v3h2v1h-2v7.3c0,1-0.4,1.4-1.3,1.4h-2l-0.2-1c0.7,0,1.3,0.1,1.9,0.1c0.4,0,0.7-0.3,0.7-0.8v-7.1H64
				v-1L69.4-81.7L69.4-81.7z M67.8-75.9l-0.9,0.6c-0.6-1-1.4-2.2-2.4-3.4l0.8-0.5C66.4-77.9,67.2-76.8,67.8-75.9z"/>
		</g>
	</g>
</g>
<g id="RectEndPoint29" transform="translate(140.9375,657)">
	<rect x="82.3" y="-92.3" class="st9" width="138" height="50"/>
	<rect x="80.3" y="-94.3" class="st10" width="138" height="50"/>
	<g transform="translate(20 9)">
		<g class="st3">
			<path class="st4" d="M83.6-83.5v-1.3h1v1.3h5.3v-1.3h1v1.3h2.4v1h-2.4v6.4h2.6v0.9H81v-0.9h2.6v-6.4h-2.4v-1H83.6z M86.1-74.2
				c-1.1,0.9-2.6,1.6-4.2,2.3l-0.7-0.9c1.7-0.6,3-1.3,4.2-2.1L86.1-74.2z M89.9-81v-1.5h-5.3v1.5H89.9z M89.9-78.6v-1.6h-5.3v1.6
				H89.9z M89.9-76.1v-1.6h-5.3v1.6H89.9z M93.3-72.8l-0.6,0.9c-1.4-0.9-2.8-1.6-4.2-2.1l0.5-0.8C90.6-74.3,92.1-73.6,93.3-72.8z"/>
			<path class="st4" d="M98.7-84.4c-0.3,1.1-0.7,2-1.2,3v9.6h-1v-7.9c-0.4,0.6-1,1.3-1.5,1.9l-0.3-1.1c1.4-1.7,2.5-3.7,3.1-5.8
				L98.7-84.4z M100.9-72.2c-1,0-1.5-0.5-1.5-1.5v-5.6l-1.3,0.4v-1l1.3-0.4v-3.1h1v2.8l2.1-0.7v-3.5h1v3.1l3.1-1
				c0,3-0.1,4.7-0.2,5.4c-0.1,0.6-0.7,0.9-1.7,0.9h-0.2l-0.3-0.9c0.3,0,0.5,0,0.7,0c0.3,0,0.5-0.2,0.5-0.5c0.1-0.3,0.1-1.5,0.1-3.5
				l-2.1,0.6v5.6h-1v-5.2l-2.1,0.7v5.8c0,0.4,0.2,0.7,0.7,0.7h4.4c0.4,0,0.6-0.1,0.8-0.3c0.1-0.2,0.2-0.9,0.3-2.2l1,0.3
				c-0.1,1.5-0.3,2.4-0.5,2.7c-0.3,0.3-0.7,0.5-1.4,0.5L100.9-72.2C100.9-72.1,100.9-72.2,100.9-72.2z"/>
			<path class="st4" d="M109.9-81.5L109-82c0.9-0.9,1.5-1.8,1.9-2.8l1,0.2c-0.1,0.3-0.3,0.6-0.4,0.9h3.7v0.9h-2.3
				c0.3,0.4,0.6,0.8,0.8,1.2l-0.9,0.3c-0.3-0.5-0.6-1-1-1.5h-0.9C110.7-82.4,110.3-81.9,109.9-81.5z M110.2-80.1V-81h10.2v3.2h-4.6
				v1.4h5.1c0,1.7-0.1,2.7-0.3,3.1c-0.2,0.5-0.7,0.7-1.5,0.7c-0.6,0-1.2,0-1.7,0l-0.3-1c0.6,0,1.3,0,1.8,0c0.4,0,0.7-0.2,0.8-0.5
				c0.1-0.3,0.1-0.8,0.1-1.6h-4v3.7h-1v-3.7l0,0c-0.9,1.3-2.6,2.5-5.2,3.4l-0.6-0.9c2.2-0.7,3.8-1.6,4.6-2.5h-3.8l0.6-3.2h4.3v-1.3
				L110.2-80.1L110.2-80.1z M111.4-77.9l-0.3,1.4h3.8v-1.4H111.4z M115.9-81.5L115-82c0.8-0.9,1.3-1.8,1.7-2.8l1,0.2
				c-0.1,0.3-0.2,0.6-0.3,0.8h4.1v0.9H119c0.4,0.4,0.6,0.9,0.8,1.2l-0.9,0.3c-0.3-0.5-0.6-1.1-1-1.6h-1
				C116.6-82.4,116.3-81.9,115.9-81.5z M119.4-78.8v-1.3h-3.5v1.3H119.4z"/>
			<path class="st4" d="M135.6-73.7v1h-12.7v-1C122.9-73.7,135.6-73.7,135.6-73.7z M134.6-83.7v1H124v-1H134.6z M133.6-78.8v1h-8.7
				v-1H133.6z"/>
			<path class="st4" d="M143.2-82.7c-0.3-0.6-0.6-1.2-1-1.8l1-0.3c0.4,0.6,0.8,1.3,1.1,2.1h5.2v1h-7.4l-0.1,2.5l0,0h5.8
				c0,2.8-0.1,4.6-0.3,5.3c-0.3,1.2-1,1.8-2.1,1.8c-0.4,0-1,0-1.6-0.1l-0.3-0.9c0.7,0,1.3,0,1.8,0c0.7,0,1.1-0.5,1.3-1.5
				c0.1-0.6,0.1-1.9,0.2-3.8h-4.9c-0.2,1.1-0.5,2.2-1,3.1c-0.7,1.2-1.6,2.3-2.9,3.3l-0.8-0.6c1.5-1.3,2.5-2.4,3-3.5s0.7-2.3,0.8-3.6
				c0-0.9,0.1-1.6,0.1-2h-3.9v-1C137.2-82.7,143.2-82.7,143.2-82.7z"/>
			<path class="st4" d="M157.8-84.7v1.8h5.5v1h-5.5v2.1h3.8v0.9c-0.8,1.6-1.9,2.9-3.4,4c0.7,0.4,1.5,0.8,2.3,1.1
				c1,0.4,2.1,0.7,3.2,1l-0.6,0.9c-1.2-0.3-2.4-0.7-3.4-1.2c-0.9-0.4-1.6-0.8-2.3-1.2c-1.6,1-3.5,1.8-5.7,2.4l-0.6-0.9
				c2.1-0.5,4-1.2,5.5-2.1c-0.7-0.5-1.4-1.2-1.9-1.9c-0.5-0.6-0.9-1.4-1.1-2.1h-1.1v-0.9h4.4v-2.1h-5.4v-1h5.4v-1.8
				C156.9-84.7,157.8-84.7,157.8-84.7z M160.4-78.8h-6c0.3,0.7,0.6,1.4,1.2,2c0.5,0.6,1,1.1,1.7,1.5
				C158.6-76.4,159.7-77.5,160.4-78.8z"/>
			<path class="st4" d="M168.9-84.4c-0.3,1-0.7,1.9-1.1,2.8v9.8h-1v-8.1c-0.5,0.7-1.1,1.4-1.7,2.1l-0.3-1.1c1.5-1.7,2.6-3.7,3.2-5.9
				L168.9-84.4z M174.6-81.7v-3h1v3h2v1h-2v7.3c0,1-0.4,1.4-1.3,1.4h-2l-0.2-1c0.7,0,1.3,0.1,1.9,0.1c0.4,0,0.7-0.3,0.7-0.8v-7.1
				h-5.5v-1L174.6-81.7L174.6-81.7z M173-75.9l-0.9,0.6c-0.6-1-1.4-2.2-2.4-3.4l0.8-0.5C171.6-77.9,172.4-76.8,173-75.9z"/>
		</g>
	</g>
</g>
<g id="RectEndPoint31" transform="translate(319.9375,657)">
	<rect x="147.7" y="-91.1" class="st9" width="97" height="50"/>
	<rect x="145.7" y="-93.1" class="st10" width="97" height="50"/>
	<g transform="translate(20 9)">
		<g class="st3">
			<path class="st4" d="M149.5-77.9l-0.7,0.7c-0.5-0.6-1.3-1.3-2.3-2.1l0.7-0.7C148.1-79.3,148.9-78.6,149.5-77.9z M149.5-75.8
				c-0.6,1.7-1.2,3.4-1.9,4.9l-0.9-0.4c0.7-1.6,1.4-3.2,1.9-4.8L149.5-75.8z M149.8-81.6l-0.7,0.7c-0.5-0.6-1.2-1.2-2.1-1.8l0.7-0.7
				C148.5-82.8,149.2-82.2,149.8-81.6z M154.9-83.5v0.9h3.8v0.8h-3.8v0.9h3.2v0.8h-3.2v1h4.1v0.8h-9.2v-0.8h4.1v-1h-3.1v-0.8h3.1
				v-0.9h-3.6v-0.8h3.6v-0.9H154.9z M152.1-70.7h-1v-6.7h6.7v5.4c0,0.8-0.4,1.1-1.1,1.1h-1.3l-0.3-0.9h1.3c0.3,0,0.4-0.2,0.4-0.5
				v-0.8h-4.7C152.1-73.1,152.1-70.7,152.1-70.7z M156.8-76.6h-4.7v1h4.7V-76.6z M152.1-73.7h4.7v-1h-4.7V-73.7z"/>
			<path class="st4" d="M171.4-80.4v5.5h-1.7v0.9h3.2v0.9h-3.2v2.4h-1v-2.4h-4c-0.1,0.4-0.3,0.8-0.6,1.1c-0.5,0.5-1.3,1-2.3,1.3
				l-0.5-0.8c1-0.3,1.7-0.6,2.1-1c0.1-0.2,0.2-0.3,0.3-0.5h-3.2v-0.9h3.4c0-0.1,0-0.3,0-0.4v-0.5h-1.7v-5.5L171.4-80.4L171.4-80.4z
				 M161.4-80.2l-0.8-0.5c0.9-0.9,1.5-1.9,1.8-2.9l1,0.2c-0.1,0.3-0.2,0.6-0.4,0.8h3.5v0.9h-1.8c0.2,0.3,0.4,0.6,0.6,0.9l-0.8,0.3
				c-0.2-0.4-0.5-0.8-0.8-1.2h-1.1C162.3-81.2,161.9-80.7,161.4-80.2z M170.4-78.8v-0.8h-7.3v0.8H170.4z M170.4-77.3v-0.8h-7.3v0.8
				H170.4z M170.4-76.5h-7.3v0.9h7.3V-76.5z M165-74.3c0,0.1,0,0.3,0,0.4h3.7v-0.9h-3.8v0.5H165z M167.4-80.5l-0.8-0.5
				c0.7-0.8,1.2-1.7,1.5-2.6l1,0.2l-0.3,0.8h4v0.9h-2.3c0.3,0.3,0.4,0.6,0.6,0.9l-0.8,0.3c-0.2-0.4-0.5-0.8-0.8-1.2h-1.1
				C168.1-81.3,167.8-80.9,167.4-80.5z"/>
			<path class="st4" d="M178.7-74.1c-1,1.1-2.1,2.1-3.5,3l-0.6-0.8c1.4-0.8,2.5-1.8,3.4-2.8L178.7-74.1z M178.6-70.7l-0.2-1
				c0.5,0,1,0.1,1.4,0.1c0.3,0,0.5-0.2,0.5-0.5v-3.4c-1.3,0.1-2.8,0.2-4.4,0.2l-0.2-1c0.3,0,0.6-0.1,0.9-0.2
				c1.1-0.5,2.4-1.3,3.9-2.4c-1.2,0.1-2.5,0.2-3.9,0.3l-0.2-0.9c0.3,0,0.5-0.1,0.7-0.2c0.7-0.3,1.5-1,2.5-2.1
				c-1.2,0.1-2.5,0.1-3.8,0.1l-0.3-0.9c4,0,7.4-0.3,10-0.9l0.5,0.9c-1.5,0.3-3.2,0.6-5.2,0.7c-0.9,1-1.8,1.8-2.6,2.4
				c1.1-0.1,2.3-0.1,3.4-0.2c0.6-0.5,1.3-1.1,1.9-1.7l0.9,0.5c-2.4,2.1-4.4,3.6-6.2,4.5c2.3-0.1,4.2-0.3,5.9-0.5
				c-0.4-0.4-0.7-0.9-1.1-1.4l0.8-0.5c1.1,1.3,2,2.5,2.6,3.5l-0.8,0.6c-0.3-0.5-0.6-1-0.9-1.4c-1,0.1-2,0.2-3.2,0.3v3.8
				c0,0.8-0.4,1.2-1.2,1.2L178.6-70.7L178.6-70.7z M186.8-71.7l-0.7,0.7c-0.9-1-2-2-3.5-3.2l0.7-0.6
				C184.7-73.8,185.9-72.8,186.8-71.7z"/>
			<path class="st4" d="M191.8-83.2c-0.7,1.8-1.4,3.2-2.1,4.3c0.6-0.1,1.2-0.2,1.8-0.3c0.3-0.5,0.5-1,0.8-1.5l0.9,0.4
				c-1.2,2.3-2.3,4-3.1,5c1-0.3,2-0.6,3-1v0.9c-1.5,0.6-2.9,1-4.2,1.2l-0.4-0.9c0.2-0.1,0.3-0.2,0.5-0.3c0.5-0.6,1.2-1.5,2-2.8
				c-0.8,0.1-1.5,0.3-2.3,0.4l-0.3-0.9c0.2-0.1,0.3-0.2,0.4-0.4c0.8-1.3,1.4-2.7,2-4.4L191.8-83.2z M193.1-72.9
				c-1.3,0.6-2.7,1.2-4.4,1.6l-0.1-1c1.7-0.4,3.2-0.9,4.5-1.5V-72.9z M195.6-76.8c-0.1,1.8-0.3,3.1-0.7,3.9c-0.4,0.9-1.1,1.6-2,2.2
				l-0.6-0.8c0.8-0.5,1.4-1.1,1.8-1.9c0.3-0.7,0.5-1.9,0.6-3.5L195.6-76.8L195.6-76.8z M193.3-78.3c0.1,0,0.1-0.1,0.2-0.1
				c0.5-0.4,1.1-1.2,1.8-2.7h-2.4v-1h3.6c-0.2-0.5-0.4-1-0.6-1.4l1-0.2c0.2,0.5,0.4,1,0.6,1.6h3.2v1h-4.3c-0.6,1.2-1.2,2.1-1.6,2.7
				c1.3-0.1,2.6-0.3,3.9-0.5c-0.3-0.4-0.6-0.9-1-1.4l0.8-0.5c1,1.2,1.7,2.3,2.2,3.2l-0.8,0.5c-0.2-0.4-0.4-0.7-0.6-1.1
				c-1.7,0.3-3.6,0.5-5.7,0.6L193.3-78.3z M198.7-71c-0.8,0-1.3-0.4-1.3-1.2V-77h1v4.6c0,0.3,0.1,0.4,0.3,0.5h0.9
				c0.3,0,0.5-0.2,0.5-0.5c0.1-0.4,0.1-1,0.1-1.8l0.9,0.3c0,1.3-0.1,2.1-0.3,2.5c-0.2,0.3-0.6,0.4-1.2,0.5L198.7-71L198.7-71z"/>
		</g>
	</g>
</g>
<g id="RectEndPoint32" transform="translate(429.9375,657)">
	<rect x="202.8" y="-91.1" class="st9" width="122" height="50"/>
	<rect x="200.8" y="-93.1" class="st10" width="122" height="50"/>
	<g transform="translate(20 9)">
		<g class="st3">
			<path class="st4" d="M208.3-71c-0.9,0-1.6-0.1-2.2-0.3c-0.5-0.2-1-0.5-1.5-1c-0.2-0.2-0.4-0.3-0.5-0.3c-0.3,0-0.9,0.6-1.7,1.9
				l-0.8-0.7c0.7-1.2,1.4-1.9,2-2.1v-4.3h-2v-0.9h2.9v5.2c0.1,0.1,0.2,0.2,0.3,0.3c0.3,0.4,0.7,0.7,1.1,0.9c0.4,0.2,1.1,0.3,1.9,0.3
				c0.7,0,1.6,0,2.7,0c0.7,0,1.3,0,2,0s1.2,0,1.6-0.1l-0.2,1h-3.2C210-71,209.1-71,208.3-71z M205-81.1l-0.7,0.7
				c-0.6-0.7-1.3-1.4-2.3-2.2l0.7-0.7C203.5-82.6,204.3-81.9,205-81.1z M207.6-81.3v-2.3h1v2.2h2.2v-2.1h1v2.2h1.8v0.9h-1.8v2.8h2.2
				v1h-2.2v4h-1v-4h-2.5c-0.4,1.7-1.1,2.9-2.2,3.7l-0.6-0.8c0.9-0.6,1.5-1.6,1.8-2.9h-1.8v-1h2c0.1-0.5,0.1-1.1,0.1-1.7v-1.1h-1.7
				v-0.9C205.9-81.3,207.6-81.3,207.6-81.3z M208.6-79.5c0,0.7,0,1.3-0.1,1.9h2.3v-2.8h-2.2V-79.5z"/>
			<path class="st4" d="M219.5-83c-0.8,1.6-2,2.9-3.8,4.1l-0.3-1c1.5-1,2.5-2.2,3.2-3.5L219.5-83z M220.1-79.8
				c-0.4,0.8-0.9,1.5-1.5,2.2v6.9h-1v-5.8c-0.6,0.5-1.2,1-1.8,1.5l-0.3-1c1.7-1.2,3-2.6,3.7-4.1L220.1-79.8z M228.1-79.1v1h-2.3v6.1
				c0,0.8-0.5,1.2-1.4,1.2h-2.1l-0.2-1c0.7,0,1.3,0.1,1.9,0.1c0.4,0,0.7-0.2,0.7-0.5v-5.9h-4.4v-1C220.3-79.1,228.1-79.1,228.1-79.1
				z M227.5-82.6v1h-6.7v-1H227.5z"/>
			<path class="st4" d="M241.6-80h-1v-1.5h-9.7v1.6h-1v-2.5h5.3c-0.1-0.4-0.3-0.7-0.4-1l1.1-0.2c0.1,0.4,0.3,0.7,0.4,1.2h5.3
				L241.6-80L241.6-80z M232.2-73.5v0.8h-1v-6.8h4.1v-1.4h1v1.4h4.1v6.8h-1v-0.8h-3.2v2.8h-1v-2.8H232.2z M232.2-78.5v1.6h3.1v-1.6
				H232.2z M232.2-74.4h3.1V-76h-3.1V-74.4z M239.5-78.5h-3.2v1.6h3.2V-78.5z M239.5-74.4V-76h-3.2v1.6H239.5z"/>
			<path class="st4" d="M246.5-70.7h-1v-7c-0.4,1.4-1,2.7-1.8,3.9l-0.4-1c1-1.5,1.7-3.1,2.1-5h-1.9v-1h1.9v-2.7h1v2.7h1.7v1h-1.7
				v0.9c0.7,0.8,1.3,1.6,2,2.6l-0.6,0.9c-0.6-1-1.1-1.8-1.5-2.4v7.1H246.5z M248.2-70.8l-0.5-0.9c3.3-1.1,5.8-3.2,7.4-6.2l0.9,0.4
				c-0.7,1.3-1.5,2.4-2.4,3.3c1,0.9,1.9,1.8,2.6,2.7l-0.7,0.7c-0.6-0.9-1.4-1.8-2.5-2.8C251.6-72.3,250-71.4,248.2-70.8z M252-82
				c-0.2-0.5-0.4-1-0.7-1.4l1-0.2c0.2,0.4,0.4,1,0.6,1.6h3.1v0.9h-3.8c-0.8,1.4-1.4,2.3-2,2.9c0.9-0.1,1.8-0.1,2.6-0.2
				c0.4-0.5,0.7-1,1-1.6l0.8,0.4c-1.4,2.8-3.4,4.7-6.2,5.7l-0.5-0.8c1.7-0.6,3.1-1.5,4.3-2.8c-1,0.1-2,0.1-3.1,0.2l-0.3-0.9
				c0.1,0,0.1-0.1,0.2-0.1c0.6-0.4,1.3-1.3,2.2-2.8h-2.7V-82H252z"/>
			<path class="st4" d="M258.4-80.1l-0.9-0.6c0.8-0.9,1.5-1.8,1.8-2.9l1,0.2c-0.1,0.3-0.2,0.6-0.3,0.9h3.8v0.9h-2.4
				c0.3,0.4,0.6,0.8,0.8,1.2l-0.9,0.3c-0.3-0.5-0.6-1.1-0.9-1.6h-0.8C259.2-81.1,258.8-80.6,258.4-80.1z M269.7-77.2h-1v-1.7h-9.9
				v1.7h-1v-2.5h5.5c-0.1-0.3-0.3-0.6-0.4-0.9l1-0.2l-0.1-0.1c0.7-0.8,1.1-1.8,1.5-2.8l1,0.2c-0.1,0.3-0.2,0.6-0.3,0.9h4v0.9h-2.5
				c0.3,0.4,0.5,0.8,0.7,1.1l-0.9,0.3c-0.3-0.5-0.5-1-0.9-1.4h-0.9c-0.3,0.5-0.5,0.9-0.9,1.3l-0.8-0.5c0.2,0.3,0.3,0.7,0.4,1.1h5.3
				v2.6C269.5-77.2,269.7-77.2,269.7-77.2z M267.8-75.3h-7v1h7.6v3.6h-1v-0.6h-6.6v0.6h-1V-78h8V-75.3z M266.8-76.1v-1.1h-6v1.1
				H266.8z M267.5-72.2v-1.3h-6.7v1.3H267.5z"/>
			<path class="st4" d="M273.2-78.3v-3.3h-1.7v-1h4.5v1h-1.7v3.3h1.5v1h-1.5v3.2c0.5-0.2,1-0.4,1.5-0.6v1c-1.3,0.5-2.7,1-4.2,1.3
				l-0.3-1c0.6-0.1,1.2-0.3,1.8-0.4v-3.5h-1.5v-1C271.6-78.3,273.2-78.3,273.2-78.3z M283.5-83v6.5h-2.9v1.7h3.2v1h-3.2v1.7h3.7v1
				h-8.5v-1h3.8v-1.8h-3.2v-1h3.2v-1.7h-2.9v-6.5h6.8C283.5-83.1,283.5-83,283.5-83z M279.6-80.2v-1.9h-2v1.9H279.6z M279.6-79.3h-2
				v1.9h2V-79.3z M280.6-80.2h1.9v-1.9h-1.9V-80.2z M282.5-79.3h-1.9v1.9h1.9V-79.3z"/>
		</g>
	</g>
</g>
<g id="textgroup" transform="translate(0,0)">
</g>
<g id="assistantgroup" transform="translate(0,0)">
</g>
<g id="Link38_1_" transform="translate(0,0)">
	<path class="st6" d="M161.5,498.7v17"/>
	<g transform="translate(0, 0.5)">
		<polygon class="st7" points="157,510.7 161.5,516.7 166,510.7 		"/>
	</g>
	<path class="st8" d="M161.5,498.7v17"/>
</g>
<g id="Link39_1_" transform="translate(0,0)">
	<path class="st6" d="M206.5,518.7v-17"/>
	<g transform="translate(0, -0.5)">
		<polygon class="st7" points="211,506.7 206.5,500.7 202,506.7 		"/>
	</g>
	<path class="st8" d="M206.5,518.7v-17"/>
</g>
<g>
	<path class="st4" d="M694.1,317.9v10.5h-1v-10.5H694.1z M696.9,318l-0.9,0.5c-0.5-1-1.1-1.8-1.8-2.6l0.9-0.4
		C695.8,316.2,696.4,317,696.9,318z M701.7,328.3l-0.3-0.9l1.2,0c0.4,0,0.6-0.3,0.6-0.8v-9.4H698v-0.9h6.4v10.6c0,1-0.5,1.4-1.4,1.4
		H701.7z"/>
	<path class="st4" d="M713.8,316.9h5.2v1h-10.3v3.1c0,3.1-0.5,5.5-1.5,7.4l-0.8-0.7c0.8-1.6,1.3-3.8,1.3-6.7v-4h5.1
		c-0.2-0.5-0.4-0.9-0.7-1.3l1.1-0.2C713.4,315.9,713.6,316.4,713.8,316.9z M714.1,318.5v1.7h4.6v1h-4.6v2h3.7v5.2h-1v-0.7h-5.9v0.7
		h-1v-5.2h3.2v-4.7H714.1z M716.8,326.7v-2.6h-5.9v2.6H716.8z"/>
	<path class="st4" d="M721.4,319l-0.9-0.6c0.8-0.9,1.5-1.8,1.8-2.9l1,0.2c-0.1,0.3-0.2,0.6-0.3,0.9h3.8v0.9h-2.4
		c0.3,0.4,0.6,0.8,0.8,1.2l-0.9,0.4c-0.3-0.5-0.6-1.1-0.9-1.6h-0.8C722.1,318,721.8,318.5,721.4,319z M732.7,321.9h-1v-1.7h-9.9v1.7
		h-1v-2.5h5.5c-0.1-0.3-0.3-0.6-0.4-0.9l1-0.2l-0.1-0.1c0.7-0.8,1.1-1.8,1.5-2.8l1,0.2c-0.1,0.3-0.2,0.6-0.3,0.9h4v0.9h-2.5
		c0.3,0.4,0.5,0.8,0.7,1.1l-0.9,0.3c-0.3-0.5-0.5-1-0.9-1.4h-0.9c-0.3,0.5-0.5,0.9-0.9,1.3l-0.8-0.5c0.2,0.3,0.3,0.7,0.4,1.1h5.3
		V321.9z M730.7,323.8h-7v1h7.6v3.6h-1v-0.6h-6.6v0.6h-1v-7.3h8V323.8z M729.8,323v-1.1h-6v1.1H729.8z M730.4,326.9v-1.3h-6.6v1.3
		H730.4z"/>
	<path class="st4" d="M736.1,320.7v-3.3h-1.7v-1h4.5v1h-1.7v3.3h1.5v1h-1.5v3.2c0.5-0.2,1-0.4,1.5-0.6v1c-1.3,0.5-2.7,1-4.2,1.3
		l-0.3-1c0.6-0.1,1.2-0.3,1.8-0.4v-3.5h-1.5v-1H736.1z M746.4,316.1v6.5h-2.9v1.7h3.2v1h-3.2v1.8h3.7v1h-8.4v-1h3.8v-1.8h-3.2v-1
		h3.2v-1.7h-2.9v-6.5H746.4z M742.5,318.9V317h-2v1.9H742.5z M742.5,319.8h-2v1.9h2V319.8z M743.5,318.9h1.9V317h-1.9V318.9z
		 M745.4,319.8h-1.9v1.9h1.9V319.8z"/>
</g>
</svg>
