<?xml version="1.0" encoding="utf-8"?>
<!-- Generator: Adobe Illustrator 20.1.0, SVG Export Plug-In . SVG Version: 6.00 Build 0)  -->
<svg version="1.1" id="图层_1" xmlns="http://www.w3.org/2000/svg" xmlns:xlink="http://www.w3.org/1999/xlink" x="0px" y="0px"
	 viewBox="0 0 32 32" style="enable-background:new 0 0 32 32;" xml:space="preserve">
<style type="text/css">
	.st0{fill:#FFFFFF;}
</style>
<title>32</title>
<desc>Created with Sketch.</desc>
<g id="路径">
	<path class="st0" d="M16,23.6c-2.8,0-5.4-1.1-7.4-3.2c-4-4.2-4-11,0-15.1L10,6.7c-3.3,3.4-3.3,9,0,12.4c1.6,1.6,3.7,2.5,5.9,2.5
		s4.3-0.9,5.9-2.5c3.3-3.4,3.3-9,0-12.4l1.4-1.4c4,4.2,4,11,0,15.1C21.3,22.5,18.7,23.6,16,23.6z"/>
</g>
<g id="路径-copy">
	<path class="st0" d="M20.4,17.6l-1.2-1.4c1.9-1.8,2.1-4.9,0.4-6.9c-0.8-1-2-1.5-3.3-1.6c-1.2-0.1-2.5,0.4-3.4,1.2
		c-1.9,1.8-2.1,4.9-0.4,6.9L11.1,17c-2.4-2.7-2.2-7,0.5-9.4c1.3-1.2,3-1.8,4.7-1.7c1.8,0.1,3.4,0.9,4.6,2.2
		C23.3,10.9,23,15.1,20.4,17.6z"/>
</g>
<g id="路径_1_">
	<path class="st0" d="M16,32c-6,0-13.3-8.9-13.7-10.9C2,20.2,1.6,17.3,2,1V0h20.6v2H4C3.7,16.8,4,20,4.2,20.6
		C4.5,21.9,11.1,30,16,30c4.8,0,11.7-8,11.9-9.3V1h2v19.7C29.9,23,21.8,32,16,32z"/>
</g>
<polygon id="路径-2" class="st0" points="15.4,9.8 17.3,9.8 16.4,12.6 18.3,12.6 15,19.4 15.9,14.7 14,14.7 "/>
</svg>
