<?xml version="1.0" encoding="utf-8"?>
<!-- Generator: Adobe Illustrator 22.1.0, SVG Export Plug-In . SVG Version: 6.00 Build 0)  -->
<svg version="1.1" id="图层_1" xmlns="http://www.w3.org/2000/svg" xmlns:xlink="http://www.w3.org/1999/xlink" x="0px" y="0px"
	 width="830px" height="248.5px" viewBox="0 0 830 248.5" style="enable-background:new 0 0 830 248.5;" xml:space="preserve">
<style type="text/css">
	.st0{fill-opacity:0;}
	.st1{fill:none;stroke:#BABABA;stroke-dasharray:5;}
	.st2{fill:#EAEBEC;}
	.st3{fill:#CEE3FF;}
	.st4{opacity:0.6;fill:#BBBBBB;enable-background:new    ;}
	.st5{fill:#FFFFFF;stroke:#E5E5E5;}
	.st6{fill:#878787;}
	.st7{fill:none;stroke:#878787;stroke-miterlimit:10;}
	.st8{enable-background:new    ;}
	.st9{fill:#444444;}
	.st10{fill:#00A4FF;}
	.st11{clip-path:url(#SVGID_4_);fill:#00A4FF;}
	.st12{clip-path:url(#SVGID_8_);fill:#00A4FF;}
	.st13{clip-path:url(#SVGID_12_);fill:#00A4FF;}
</style>
<g id="DashRectGroup11" transform="translate(163.994140625,134.5)">
	<rect x="-163.2" y="-133.2" class="st0" width="133.9" height="245.2"/>
	<path class="st1" d="M-163.2-133.2h133.9V112h-133.9V-133.2"/>
</g>
<g id="DashRectGroup11_1_" transform="translate(163.994140625,134.5)">
	<rect x="55" y="-133.2" class="st0" width="406.6" height="245.2"/>
	<path class="st1" d="M55-133.2h406.6V112H55V-133.2"/>
</g>
<rect x="672.3" class="st2" width="156.9" height="248.5"/>
<rect x="234.2" y="12" class="st3" width="218.5" height="225"/>
<g id="RectEndPoint2_2_" transform="translate(179.01953125,177)">
	<g>
		<rect x="70.7" y="-118.4" class="st4" width="191.4" height="46.2"/>
		<rect x="67.7" y="-120.2" class="st5" width="192.8" height="46.2"/>
	</g>
</g>
<g id="RectEndPoint2_3_" transform="translate(179.01953125,177)">
	<g>
		<rect x="70.7" y="-35" class="st4" width="191.4" height="57.3"/>
		<rect x="67.7" y="-37.2" class="st5" width="192.8" height="57.3"/>
	</g>
</g>
<g id="RectEndPoint2_1_" transform="translate(179.01953125,177)">
	<g>
		<rect x="-164.6" y="-163.6" class="st4" width="107.3" height="35.5"/>
		<rect x="-166.3" y="-165" class="st5" width="107.3" height="35.5"/>
	</g>
</g>
<g>
	<polygon class="st6" points="667.6,122.9 671.6,126.9 667.6,130.9 	"/>
	<line class="st7" x1="669.6" y1="126.9" x2="625.6" y2="126.9"/>
</g>
<g>
	<polygon class="st6" points="492.7,122.9 496.7,126.9 492.7,130.9 	"/>
	<line class="st7" x1="494.7" y1="126.9" x2="452.7" y2="126.9"/>
</g>
<g>
	<polygon class="st6" points="215,122.9 219,126.9 215,130.9 	"/>
	<line class="st7" x1="217" y1="126.9" x2="134.7" y2="126.9"/>
</g>
<g class="st8">
	<path class="st9" d="M32.5,35.6l-1-0.9c0.7-1.1,1.1-2.4,1.1-4.1v-6.3h9.8v9.5c0,1-0.5,1.5-1.5,1.5h-1.5L39,34
		c0.5,0.1,1,0.1,1.4,0.1s0.6-0.3,0.6-0.7v-1.8h-3v3.6h-1.3v-3.6h-2.8C33.7,33.3,33.2,34.6,32.5,35.6z M33.9,25.7v1.8h2.8v-1.8H33.9z
		 M33.9,30.5h2.8v-1.8h-2.8V30.5z M41.1,25.7h-3v1.8h3V25.7z M41.1,28.7h-3v1.8h3V28.7z"/>
	<path class="st9" d="M45,35.8l-1-0.9c0.9-1.4,1.4-3.1,1.4-5.3v-4.2h4c-0.2-0.5-0.4-0.9-0.7-1.3l1.4-0.2c0.2,0.5,0.4,1,0.6,1.5h4V30
		h-8.1C46.6,32.2,46.1,34.2,45,35.8z M46.7,26.7v2h6.7v-2H46.7z"/>
	<path class="st9" d="M60.6,24.6c-0.7,1.4-1.8,2.6-3.4,3.8l-0.4-1.3c1.2-0.8,2.1-1.8,2.7-3L60.6,24.6z M61.1,27.5
		c-0.3,0.7-0.7,1.3-1.3,1.9v6.3h-1.3v-5c-0.4,0.4-0.9,0.7-1.4,1l-0.4-1.3c1.4-1,2.5-2.2,3.1-3.5L61.1,27.5z M68.3,27.8v1.3h-1.9v5.3
		c0,0.8-0.5,1.3-1.4,1.3h-1.8l-0.3-1.3c0.6,0.1,1.1,0.1,1.7,0.1c0.3,0,0.5-0.1,0.5-0.4v-5h-3.8v-1.3C61.3,27.8,68.3,27.8,68.3,27.8z
		 M67.8,24.7V26h-6.2v-1.3H67.8z"/>
	<path class="st9" d="M75.2,24v1.9c0,0.4,0,0.7-0.1,1.1h5.1c0,3.7-0.2,6.1-0.5,7.1s-0.9,1.5-1.8,1.5c-0.7,0-1.2,0-1.7-0.1L76,34.3
		c0.7,0.1,1.4,0.1,2,0.1c0.5-0.1,0.8-0.7,0.9-2s0.1-2.7,0.1-4.1h-4c-0.2,1.6-0.6,2.9-1.1,4c-0.7,1.5-2,2.6-3.7,3.4l-0.7-1.2
		c1.7-0.9,2.8-1.9,3.4-3.2c0.4-0.8,0.6-1.8,0.8-3h-3.8V27h3.9c0-0.4,0.1-0.7,0.1-1.1V24H75.2L75.2,24z M73.1,26.3l-1,0.7
		c-0.4-0.6-1-1.2-1.7-1.9l1-0.7C72.1,25,72.7,25.7,73.1,26.3z M78,32.1l-1.2,0.8c-0.5-0.8-1.1-1.7-1.9-2.6l1.1-0.7
		C76.8,30.5,77.5,31.4,78,32.1z"/>
	<path class="st9" d="M92.1,35.7h-1.3v-0.9h-5.6v0.9h-1.3V24.4h8.2L92.1,35.7L92.1,35.7z M90.8,28.8v-3.1h-5.6v3.1H90.8z M90.8,33.5
		v-3.4h-5.6v3.4H90.8z"/>
	<path class="st9" d="M97.1,31.2c-0.3,1.5-0.7,2.8-1.3,3.8l-1.1-0.7c0.5-1.1,0.9-2.2,1.1-3.4L97.1,31.2z M101.2,24v1.5h4.8v1.3h-4.8
		v1.5h4v1.3H96v-1.3h3.9v-1.5H95v-1.3h4.8V24H101.2z M99,35.4c-0.9,0-1.4-0.5-1.4-1.6v-3.4h1.3v3.1c0,0.4,0.2,0.6,0.5,0.6h2.6
		c0.2,0,0.4-0.1,0.5-0.3s0.2-0.7,0.3-1.6l1.3,0.4c-0.1,1.3-0.3,2.1-0.6,2.4c-0.3,0.2-0.7,0.4-1.2,0.4L99,35.4L99,35.4z M102,32.5
		l-1.2,0.5c-0.3-0.9-0.7-1.8-1.1-2.5l1.3-0.4C101.4,30.9,101.8,31.7,102,32.5z M106.4,34l-1.2,0.5c-0.5-1.4-1-2.6-1.5-3.6l1.2-0.4
		C105.4,31.6,105.9,32.8,106.4,34z"/>
</g>
<g id="RectEndPoint2_4_" transform="translate(179.01953125,177)">
	<g>
		<rect x="-164.6" y="-117.4" class="st4" width="107.3" height="35.5"/>
		<rect x="-166.3" y="-118.7" class="st5" width="107.3" height="35.5"/>
	</g>
</g>
<g class="st8">
	<path class="st9" d="M32.5,81.9l-1-0.9c0.7-1.1,1.1-2.4,1.1-4.1v-6.3h9.8v9.5c0,1-0.5,1.5-1.5,1.5h-1.5L39,80.3
		c0.5,0.1,1,0.1,1.4,0.1s0.6-0.3,0.6-0.7V78h-3v3.6h-1.3V78h-2.8C33.7,79.6,33.2,80.9,32.5,81.9z M33.9,72v1.8h2.8V72H33.9z
		 M33.9,76.8h2.8V75h-2.8V76.8z M41.1,72h-3v1.8h3V72z M41.1,75h-3v1.8h3V75z"/>
	<path class="st9" d="M45,82.1l-1-0.9c0.9-1.4,1.4-3.1,1.4-5.3v-4.2h4c-0.2-0.5-0.4-0.9-0.7-1.3l1.4-0.2c0.2,0.5,0.4,1,0.6,1.5h4
		v4.6h-8.1C46.6,78.5,46.1,80.4,45,82.1z M46.7,73v2h6.7v-2H46.7z"/>
	<path class="st9" d="M59.2,74.5c0,2.8-0.5,5.2-1.5,7.3l-1-0.9c0.8-1.6,1.1-3.8,1.2-6.4v-3.8h9.9v2.6h-8.6
		C59.2,73.3,59.2,74.5,59.2,74.5z M59.2,71.7v0.6h7.4v-0.6H59.2z M62.9,75.1v-0.4c-1,0-2.1,0-3.2,0l-0.3-0.9c3,0,5.5-0.1,7.6-0.3
		l0.5,0.9c-1,0.1-2.1,0.2-3.4,0.3v0.5h3v2.4h-3V78H68v2.7c0,0.8-0.4,1.3-1.2,1.3h-1.3l-0.3-1.1h0.3c-0.1-0.1-0.1-0.2-0.1-0.3
		c-1.3,0.2-2.7,0.4-4.1,0.5L61.1,80c0.6,0,1.2-0.1,1.8-0.1V79h-2.3v3h-1.2v-4H63v-0.5h-3v-2.4H62.9L62.9,75.1z M62.9,76h-1.8v0.6
		h1.8V76z M64.1,79.7l1-0.1c-0.1-0.2-0.2-0.4-0.3-0.6H64L64.1,79.7L64.1,79.7z M66,76h-1.8v0.6H66V76z M66.5,80.9
		c0.2,0,0.4-0.2,0.4-0.5V79h-1c0.2,0.5,0.4,1,0.6,1.6l-0.6,0.3H66.5z"/>
	<path class="st9" d="M70.7,72.9c0,1.3-0.2,2.5-0.4,3.6l-1.1-0.3c0.3-1.1,0.4-2.2,0.4-3.4L70.7,72.9z M73.8,74
		c0.3-0.9,0.5-1.9,0.5-2.9l1.2,0.2c0,0.4-0.1,0.8-0.1,1.2h1.4v-2.2h1.3v2.2h2.6v1.3h-2.6v2.7h2.5v1.3h-2.5v2.6H81v1.3h-7.7v-1.3h3.5
		v-2.6H74v-1.3h2.8v-2.7h-1.6c-0.2,0.9-0.5,1.7-0.9,2.4l-1-0.9c0.1-0.2,0.2-0.3,0.2-0.5L73,75c-0.2-0.7-0.4-1.5-0.6-2.1V82H71V70.3
		h1.3v2.4l0.9-0.3C73.4,72.9,73.6,73.5,73.8,74z"/>
	<path class="st9" d="M85.6,76.3c-0.1,0.2-0.1,0.4-0.2,0.6h2.5V78c-0.2,0.7-0.6,1.4-1.2,1.9c0.5,0.2,1,0.4,1.4,0.7l-0.7,1
		c-0.5-0.3-1.1-0.6-1.7-0.9c-0.8,0.5-1.9,0.9-3.1,1.3L82,80.9c0.9-0.2,1.7-0.5,2.4-0.8c-0.5-0.2-1-0.4-1.6-0.6
		c0.3-0.5,0.6-1,0.8-1.5h-1.3v-1.1h1.8c0.1-0.3,0.2-0.5,0.3-0.7L85.6,76.3z M84.7,72.6v-2.3h1.2v2.3H88v1.1h-2.1l0,0
		c0.7,0.3,1.3,0.6,2,0.9l-0.7,1c-0.5-0.4-1-0.7-1.3-1v1.3h-1.2v-2c-0.4,0.9-1.1,1.6-2,2.3L82,75.3c0.8-0.5,1.4-1,1.8-1.5h-1.5v-1.1
		L84.7,72.6L84.7,72.6z M84.3,72l-0.9,0.4c-0.3-0.6-0.5-1.1-0.8-1.6l1-0.3C83.8,70.9,84.1,71.4,84.3,72z M86.7,78h-1.9
		c-0.2,0.3-0.3,0.6-0.5,0.9c0.4,0.1,0.8,0.3,1.2,0.4C86.1,79,86.5,78.5,86.7,78z M88,70.9c-0.3,0.5-0.6,1-1,1.6L86.1,72
		c0.4-0.5,0.7-1,1-1.5L88,70.9z M89.2,75.7c-0.2,0.4-0.4,0.8-0.6,1.2l-0.8-1c0.7-1.4,1.2-3.2,1.4-5.6l1.3,0.2
		c-0.1,0.6-0.2,1.1-0.2,1.6h3.2v1.3h-0.7c-0.1,2-0.4,3.8-1.1,5.2c0.6,1,1.3,1.8,2.2,2.4l-0.8,1c-0.8-0.6-1.5-1.3-2.1-2.3
		c-0.6,0.9-1.3,1.6-2.2,2.3l-0.7-1.1c0.9-0.6,1.6-1.4,2.2-2.4C89.9,77.7,89.5,76.8,89.2,75.7z M89.9,73.9c0.3,1.2,0.6,2.3,1,3.3
		c0.4-1.1,0.6-2.4,0.6-3.8H90C90,73.5,89.9,73.7,89.9,73.9z"/>
	<path class="st9" d="M95.2,81.9l-0.3-1.2c0.3,0.1,0.6,0.1,0.9,0.1s0.4-0.2,0.4-0.5v-2.6c-0.4,0.2-0.8,0.3-1.3,0.4l-0.3-1.3
		c0.5-0.1,1.1-0.3,1.6-0.5v-2.5h-1.4v-1.3h1.4v-2.2h1.3v2.2h1.1v1.3h-1.1v2c0.4-0.2,0.7-0.3,1-0.5v1.3c-0.4,0.2-0.7,0.3-1,0.5v3.4
		c0,0.9-0.4,1.3-1.3,1.3L95.2,81.9L95.2,81.9z M98.8,82l-1-0.9c0.8-1.6,1.2-3.7,1.3-6.2v-4.2h6.9V74h-2.3v1.2h2.6v1.2h-2.6v1.2h2V82
		h-1.2v-0.5h-2.8V82h-1.2v-4.3h2v-1.2h-2.1C100.1,78.5,99.6,80.4,98.8,82z M100.3,74v0.8c0,0.1,0,0.2,0,0.3h2.1V74H100.3z
		 M100.3,71.9v1h4.4v-1H100.3z M104.5,80.3v-1.5h-2.8v1.5H104.5z"/>
</g>
<g id="RectEndPoint2_10_" transform="translate(179.01953125,177)">
	<g>
		<rect x="-164.6" y="-71.1" class="st4" width="107.3" height="35.5"/>
		<rect x="-166.3" y="-72.5" class="st5" width="107.3" height="35.5"/>
	</g>
</g>
<g class="st8">
	<path class="st9" d="M38.5,117.8H43v1.3h-9.2v2.6c0,2.8-0.4,5-1.2,6.7l-1.1-1c0.6-1.4,1-3.3,1-5.7v-3.9H37
		c-0.2-0.4-0.4-0.8-0.6-1.1l1.5-0.3C38.1,116.8,38.3,117.3,38.5,117.8z"/>
	<path class="st9" d="M45.2,121l-0.8-1c1.1-0.9,1.9-2,2.2-3.3l1.3,0.2c-0.1,0.5-0.3,0.9-0.5,1.4h2v-1.6h1.3v1.6h4v1.3h-4v1.6h5v1.3
		H44.2v-1.3h5.3v-1.6h-2.7C46.3,120,45.8,120.6,45.2,121z M54.3,128.3H53v-0.6h-5.9v0.6h-1.3v-4.9h8.6v4.9H54.3z M53,126.4v-1.8
		h-5.9v1.8H53z"/>
	<path class="st9" d="M61.9,116.6v9.9h1.4v-9.9h1.3v9.9h3.6v1.3H57v-1.3h3.6v-9.9H61.9z M60,124.8l-1.2,0.3c-0.4-2-1-3.9-1.6-5.7
		l1.1-0.4C58.9,120.7,59.5,122.6,60,124.8z M68,119.4c-0.5,2.2-1.1,4.1-1.8,5.7l-1.2-0.4c0.7-1.5,1.3-3.3,1.8-5.6L68,119.4z"/>
	<path class="st9" d="M74.4,116.7c-0.1,0.3-0.3,0.6-0.4,0.8h5.4v1.1c-0.7,0.9-1.6,1.6-2.7,2.2c1.3,0.5,2.8,0.8,4.4,0.9l-0.6,1.2
		c-2-0.2-3.7-0.7-5.3-1.4c-1.5,0.7-3.2,1.2-5.2,1.5l-0.6-1.2c1.6-0.2,3.1-0.5,4.4-1c-0.6-0.3-1.1-0.7-1.6-1.1
		c-0.4,0.3-0.9,0.7-1.4,1l-0.8-1c1.5-0.8,2.5-1.9,3-3.1L74.4,116.7z M75.6,122.3c0,0.4,0,0.8-0.1,1.2h4.3c0,2.2-0.2,3.6-0.6,4
		s-1,0.7-1.9,0.7c-0.4,0-1,0-1.6-0.1l-0.3-1.2c0.7,0,1.2,0.1,1.6,0.1c0.6,0,1-0.1,1.1-0.4c0.2-0.3,0.3-0.9,0.3-1.9h-3.3
		c-0.1,0.3-0.2,0.6-0.4,0.8c-0.6,1.1-2.1,2.1-4.4,2.8l-0.9-1.1c2-0.6,3.4-1.3,4-2.2c0.1-0.1,0.2-0.3,0.2-0.4h-3.5v-1.2H74
		c0.1-0.4,0.1-0.8,0.1-1.2L75.6,122.3L75.6,122.3z M77.4,118.8h-4.3l0,0c0.7,0.5,1.4,1,2.1,1.4C76,119.8,76.7,119.3,77.4,118.8z"/>
	<path class="st9" d="M85.6,122.6c-0.1,0.2-0.1,0.4-0.2,0.6h2.5v1.1c-0.2,0.7-0.6,1.4-1.2,1.9c0.5,0.2,1,0.4,1.4,0.7l-0.7,1
		c-0.5-0.3-1.1-0.6-1.7-0.9c-0.8,0.5-1.9,0.9-3.1,1.3l-0.6-1.1c0.9-0.2,1.7-0.5,2.4-0.8c-0.5-0.2-1-0.4-1.6-0.6
		c0.3-0.5,0.6-1,0.8-1.5h-1.3v-1.1h1.8c0.1-0.3,0.2-0.5,0.3-0.7L85.6,122.6z M84.7,118.9v-2.3h1.2v2.3H88v1.1h-2.1l0,0
		c0.7,0.3,1.3,0.6,2,0.9l-0.7,1c-0.5-0.4-1-0.7-1.3-1v1.3h-1.2v-2c-0.4,0.9-1.1,1.6-2,2.3l-0.7-1.1c0.8-0.5,1.4-1,1.8-1.5h-1.5v-1.1
		L84.7,118.9L84.7,118.9z M84.3,118.3l-0.9,0.4c-0.3-0.6-0.5-1.1-0.8-1.6l1-0.3C83.8,117.2,84.1,117.7,84.3,118.3z M86.7,124.3h-1.9
		c-0.2,0.3-0.3,0.6-0.5,0.9c0.4,0.1,0.8,0.3,1.2,0.4C86.1,125.2,86.5,124.8,86.7,124.3z M88,117.2c-0.3,0.5-0.6,1-1,1.6l-0.9-0.5
		c0.4-0.5,0.7-1,1-1.5L88,117.2z M89.2,122c-0.2,0.4-0.4,0.8-0.6,1.2l-0.8-1c0.7-1.4,1.2-3.2,1.4-5.6l1.3,0.2
		c-0.1,0.6-0.2,1.1-0.2,1.6h3.2v1.3h-0.7c-0.1,2-0.4,3.8-1.1,5.2c0.6,1,1.3,1.8,2.2,2.4l-0.7,1.1c-0.8-0.6-1.5-1.3-2.1-2.3
		c-0.6,0.9-1.3,1.6-2.2,2.3l-0.7-1.1c0.9-0.6,1.6-1.4,2.2-2.4C89.9,124,89.5,123,89.2,122z M89.9,120.1c0.3,1.2,0.6,2.3,1,3.3
		c0.4-1.1,0.6-2.4,0.6-3.8H90C90,119.8,89.9,120,89.9,120.1z"/>
	<path class="st9" d="M95.2,128.1l-0.3-1.2c0.3,0.1,0.6,0.1,0.9,0.1s0.4-0.2,0.4-0.5V124c-0.4,0.2-0.8,0.3-1.3,0.4l-0.3-1.3
		c0.5-0.1,1.1-0.3,1.6-0.5v-2.5h-1.4v-1.3h1.4v-2.2h1.3v2.2h1.1v1.3h-1.1v2c0.4-0.2,0.7-0.3,1-0.5v1.3c-0.4,0.2-0.7,0.3-1,0.5v3.4
		c0,0.9-0.4,1.3-1.3,1.3H95.2L95.2,128.1z M98.8,128.3l-1-0.9c0.8-1.6,1.2-3.7,1.3-6.2V117h6.9v3.3h-2.3v1.2h2.6v1.2h-2.6v1.2h2v4.3
		h-1.2v-0.5h-2.8v0.5h-1.2v-4.3h2v-1.2h-2.1C100.1,124.8,99.6,126.7,98.8,128.3z M100.3,120.3v0.8c0,0.1,0,0.2,0,0.3h2.1v-1.2
		L100.3,120.3L100.3,120.3z M100.3,118.2v1h4.4v-1H100.3z M104.5,126.6v-1.5h-2.8v1.5H104.5z"/>
</g>
<g id="RectEndPoint2_11_" transform="translate(179.01953125,177)">
	<g>
		<rect x="-164.6" y="-23.4" class="st4" width="107.3" height="35.5"/>
		<rect x="-166.3" y="-24.8" class="st5" width="107.3" height="35.5"/>
	</g>
</g>
<g id="RectEndPoint2_12_" transform="translate(179.01953125,177)">
	<g>
		<rect x="-164.6" y="24.3" class="st4" width="107.3" height="35.5"/>
		<rect x="-166.3" y="23" class="st5" width="107.3" height="35.5"/>
	</g>
</g>
<g id="RectEndPoint2_14_" transform="translate(179.01953125,177)">
	<g>
		<rect x="320.1" y="-163.6" class="st4" width="114.9" height="35.5"/>
		<rect x="318.3" y="-165" class="st5" width="114.9" height="35.5"/>
	</g>
</g>
<g class="st8">
	<path class="st9" d="M516,35.7h-1.2v-5.5c-0.3,0.9-0.7,1.8-1.2,2.6l-0.6-1.5c0.8-1.1,1.4-2.3,1.7-3.6v-0.1h-1.3v-1.2h1.3v-2.3h1.2
		v2.3h1.2v1.2H516v0.7c0.5,0.6,1,1.3,1.6,2l-0.7,1c-0.3-0.6-0.6-1.1-0.9-1.6L516,35.7L516,35.7z M520.2,34c-0.6,0.7-1.6,1.3-3.1,1.8
		l-0.5-1.1c1.2-0.3,2.1-0.8,2.6-1.4c0.1-0.1,0.1-0.1,0.1-0.2h-2.7v-1.2h3.3c0.1-0.2,0.1-0.4,0.2-0.7h-2.6v-4.1h6.3v4.1h-2.5
		c0,0.2-0.1,0.5-0.1,0.7h3.4v1.2h-2.8c0.7,0.7,1.7,1.2,2.9,1.6l-0.9,1.1c-1.5-0.7-2.6-1.5-3.3-2.4C520.5,33.6,520.3,33.8,520.2,34z
		 M518.7,25v-0.9h1.2V25h1.7v-0.9h1.2V25h1.8v1.2h-1.8v0.7h-1.2v-0.7h-1.7v0.7h-1.2v-0.7H517V25H518.7z M522.7,28.7v-0.5h-3.9v0.5
		H522.7z M522.7,29.7h-3.9v0.6h3.9V29.7z"/>
	<path class="st9" d="M530.9,32v-0.8h1.3V32h4.2v1.2h-4.2v1h4.9v1.2H526v-1.2h5v-1h-4.3V32H530.9z M532.4,24.5v1.2h-1.2v1.5h1.4v1.2
		h-1.4V31H530v-2.6h-1.3c-0.2,1.2-0.6,2.2-1.4,2.8l-1-0.9c0.6-0.4,0.9-1.1,1.1-1.9H526v-1.2h1.5v-1.5h-1.1v-1.2
		C526.4,24.5,532.4,24.5,532.4,24.5z M528.7,27.2h1.3v-1.5h-1.3V27.2z M534.4,24.9v4.3h-1.3v-4.3C533.2,24.9,534.4,24.9,534.4,24.9z
		 M533.8,31.2l-0.3-1.2c0.5,0.1,1.1,0.1,1.5,0.1c0.2,0,0.4-0.2,0.4-0.6v-5.2h1.3v5.5c0,1-0.4,1.4-1.2,1.4L533.8,31.2L533.8,31.2z"/>
	<path class="st9" d="M541.4,27.7v5c0.3-0.3,0.5-0.5,0.8-0.8l0.4,1.4c-0.7,0.7-1.5,1.4-2.3,2l-0.5-1.2c0.2-0.2,0.4-0.4,0.4-0.7V29
		h-1.7v-1.3H541.4L541.4,27.7z M542.2,25.9l-0.9,0.9c-0.5-0.6-1.2-1.2-2.1-1.9l0.9-0.9C540.9,24.7,541.6,25.3,542.2,25.9z
		 M544.5,24.3v5.6c0,2.7-0.6,4.6-1.7,5.9l-1-0.9c0.9-1,1.4-2.7,1.4-5v-5.6C543.2,24.3,544.5,24.3,544.5,24.3z M547,24.9v10h-1.3v-10
		C545.7,24.9,547,24.9,547,24.9z M549.6,24.3v11.5h-1.3V24.3H549.6z"/>
	<path class="st9" d="M555,34.2c-1.1,0.5-2.4,0.8-3.9,1.1L551,34c1.6-0.3,2.9-0.6,4.1-1.1L555,34.2L555,34.2z M554.1,24.5
		c-0.5,1.5-1,2.7-1.6,3.6l1-0.2l0.6-1.4l1.2,0.5c-0.9,1.9-1.7,3.2-2.3,4.2c0.7-0.2,1.4-0.4,2.1-0.6v1.2c-1.3,0.5-2.5,0.8-3.7,1
		l-0.3-1.2c0.2-0.1,0.4-0.2,0.6-0.4c0.3-0.4,0.7-1.1,1.2-2c-0.5,0.1-1.1,0.2-1.7,0.3l-0.3-1.2c0.2-0.1,0.4-0.3,0.6-0.5
		c0.5-1.1,0.9-2.4,1.3-3.7L554.1,24.5z M557.3,35.6l-0.3-1.2l1.2,0.1c0.3,0,0.4-0.1,0.4-0.4v-2.9H556l-0.3-1.1
		c0.2-0.4,0.5-0.8,0.7-1.3h-1.1v-1.2h1.5c0.1-0.3,0.2-0.7,0.3-1h-2.3v-1.2h2.7c0.1-0.4,0.2-0.8,0.3-1.3l1.3,0.2
		c-0.1,0.4-0.2,0.7-0.3,1h3.5v1.2h-3.9c-0.1,0.3-0.2,0.7-0.3,1h1.6V30h2.6v1.1h-2.6v3.3c0,0.8-0.4,1.1-1.3,1.1L557.3,35.6
		L557.3,35.6z M557.5,32.1c-0.5,1.2-1,2.3-1.5,3.1l-1.1-0.6c0.7-1,1.2-2,1.5-3L557.5,32.1z M557.1,30h1.4v-1.3h-0.8
		C557.5,29.2,557.3,29.6,557.1,30z M562.8,34.7l-1.1,0.5c-0.4-1.2-0.8-2.3-1.3-3.2l1.2-0.4C562,32.6,562.4,33.6,562.8,34.7z"/>
	<path class="st9" d="M566,27.4V26c-0.6,0.1-1.1,0.2-1.7,0.2l-0.4-1.2c2-0.2,3.5-0.5,4.7-0.9l0.6,1.1c-0.6,0.2-1.3,0.4-2,0.6v1.6h2
		v1.2h-2V29c0.7,0.6,1.4,1.3,2.1,2l-0.8,1.1c-0.5-0.8-1-1.4-1.4-1.9v5.2H566v-4.9c-0.5,1-1.1,1.9-1.9,2.8l-0.6-1.5
		c1.1-1,1.9-2.1,2.4-3.3v-0.1H564v-1.2h2V27.4z M574.8,35.2h-1.3v-0.9h-2.6v1.1h-1.3V24.7h5.2L574.8,35.2L574.8,35.2z M573.5,33v-7
		h-2.6v7H573.5z"/>
	<path class="st9" d="M579.1,27.7v4.9c0.2-0.2,0.4-0.4,0.7-0.6l0.3,1.3c-0.7,0.7-1.4,1.3-2.1,1.8l-0.5-1.2c0.2-0.2,0.3-0.4,0.3-0.7
		V29h-1.6v-1.3H579.1L579.1,27.7z M579.9,25.9l-0.9,0.9c-0.5-0.6-1.1-1.2-2-1.8l0.9-0.9C578.8,24.7,579.4,25.3,579.9,25.9z
		 M587.5,34.3c0,0.9-0.5,1.3-1.4,1.3H585l-0.3-1.2c0.4,0,0.7,0.1,1.1,0.1c0.3,0,0.5-0.2,0.5-0.6v-8.3h-4.7v5.9
		c0,1.7-0.4,3.1-1.1,4.2l-1-0.9c0.6-0.9,0.8-1.9,0.9-3.2v-7.2h7.2L587.5,34.3L587.5,34.3z M583.3,26.8V26h1.2v0.8h1.3v1h-1.3v0.9
		h1.4v1.1h-4.1v-1.1h1.4v-0.9h-1.3v-1H583.3z M585.7,30.4v3.4h-3.4v-3.4C582.2,30.4,585.7,30.4,585.7,30.4z M584.6,31.4h-1.2v1.3
		h1.2V31.4z"/>
	<path class="st9" d="M589.2,30.3l-0.4-1.3c1.3-1.4,2.2-3.1,2.8-5l1.2,0.6c-0.3,0.9-0.7,1.7-1.1,2.6v8.6h-1.3V29
		C590,29.5,589.6,29.9,589.2,30.3z M594.8,27c0-0.2,0-0.4,0-0.6v-2.3h1.3v2.3c0,0.2,0,0.4,0,0.6h4.1v1.3h-2.5V34
		c0,0.2,0.1,0.3,0.3,0.3h0.9c0.1,0,0.2-0.1,0.3-0.2c0.1-0.1,0.1-0.7,0.2-1.8l1.2,0.4c-0.1,1.4-0.3,2.2-0.4,2.4
		c-0.2,0.2-0.5,0.4-0.9,0.4h-1.6c-0.8,0-1.2-0.4-1.2-1.2v-6.1H596c-0.3,3.3-1.3,5.8-3.1,7.5l-1-0.9c1.6-1.5,2.5-3.7,2.8-6.6h-2.4V27
		H594.8L594.8,27z M599.7,25.8l-0.9,0.9c-0.5-0.5-1.1-1.1-2-1.7l0.8-0.8C598.5,24.7,599.2,25.3,599.7,25.8z"/>
</g>
<g id="RectEndPoint2_13_" transform="translate(179.01953125,177)">
	<g>
		<rect x="320.1" y="-117.4" class="st4" width="114.9" height="35.5"/>
		<rect x="318.3" y="-118.7" class="st5" width="114.9" height="35.5"/>
	</g>
</g>
<g class="st8">
	<path class="st9" d="M522.9,76.3c-0.1,0.2-0.1,0.4-0.2,0.6h2.5V78c-0.2,0.7-0.6,1.4-1.1,1.9c0.5,0.2,1,0.4,1.4,0.7l-0.7,1
		c-0.5-0.3-1.1-0.6-1.7-0.9c-0.8,0.5-1.9,0.9-3.1,1.3l-0.6-1.1c0.9-0.2,1.7-0.5,2.4-0.8c-0.5-0.2-1-0.4-1.6-0.6
		c0.3-0.5,0.6-1,0.8-1.5h-1.3v-1.1h1.8c0.1-0.3,0.2-0.5,0.3-0.7L522.9,76.3z M522.1,72.6v-2.3h1.2v2.3h2.1v1.1h-2.1l0,0
		c0.7,0.3,1.3,0.6,2,0.9l-0.7,1c-0.5-0.4-1-0.7-1.3-1v1.3h-1.2v-2c-0.4,0.9-1.1,1.6-2,2.3l-0.7-1.1c0.8-0.5,1.4-1,1.8-1.5h-1.5v-1.1
		L522.1,72.6L522.1,72.6z M521.6,72l-0.9,0.4c-0.3-0.6-0.5-1.1-0.8-1.6l1-0.3C521.2,70.9,521.4,71.4,521.6,72z M524.1,78h-1.9
		c-0.2,0.3-0.3,0.6-0.5,0.9c0.4,0.1,0.8,0.3,1.2,0.4C523.5,79,523.8,78.5,524.1,78z M525.4,70.9c-0.3,0.5-0.6,1-1,1.6l-0.9-0.5
		c0.4-0.5,0.7-1,1-1.5L525.4,70.9z M526.6,75.7c-0.2,0.4-0.4,0.8-0.6,1.2l-0.8-1c0.7-1.4,1.2-3.2,1.4-5.6l1.3,0.2
		c-0.1,0.6-0.2,1.1-0.2,1.6h3.2v1.3h-0.7c-0.1,2-0.4,3.8-1.1,5.2c0.6,1,1.3,1.8,2.2,2.4l-0.7,1.1c-0.8-0.6-1.5-1.3-2.1-2.3
		c-0.6,0.9-1.3,1.6-2.2,2.3l-0.7-1.1c0.9-0.6,1.6-1.4,2.2-2.4C527.3,77.7,526.9,76.8,526.6,75.7z M527.2,73.9c0.3,1.2,0.6,2.3,1,3.3
		c0.4-1.1,0.6-2.4,0.6-3.8h-1.5C527.3,73.5,527.3,73.7,527.2,73.9z"/>
	<path class="st9" d="M532.6,81.9l-0.3-1.2c0.3,0.1,0.6,0.1,0.9,0.1c0.3,0,0.4-0.2,0.4-0.5v-2.6c-0.4,0.2-0.8,0.3-1.3,0.4l-0.3-1.3
		c0.5-0.1,1.1-0.3,1.6-0.5v-2.5h-1.4v-1.3h1.4v-2.2h1.3v2.2h1.1v1.3h-1.1v2c0.4-0.2,0.7-0.3,1-0.5v1.3c-0.4,0.2-0.7,0.3-1,0.5v3.4
		c0,0.9-0.4,1.3-1.3,1.3L532.6,81.9L532.6,81.9z M536.2,82l-1-0.9c0.8-1.6,1.2-3.7,1.3-6.2v-4.2h6.9V74h-2.3v1.2h2.6v1.2h-2.6v1.2h2
		V82h-1.2v-0.5H539V82h-1.2v-4.3h2v-1.2h-2.1C537.5,78.5,537,80.4,536.2,82z M537.7,74v0.8c0,0.1,0,0.2,0,0.3h2.1V74H537.7z
		 M537.7,71.9v1h4.4v-1H537.7z M541.8,80.3v-1.5H539v1.5H541.8z"/>
	<path class="st9" d="M545.7,82l-0.7-1.1c2.3-0.6,3.9-1.4,4.8-2.3c0.1-0.1,0.1-0.1,0.1-0.2h-4.8v-1.2h5.5c0.3-0.7,0.5-1.6,0.5-2.5
		v-1.6h1.3v1.6c0,0.9-0.2,1.8-0.4,2.5h3.9v1.2h-4.5l-0.1,0.2c1.7,0.7,3.3,1.5,4.8,2.4l-0.7,1.1c-1.6-1-3.1-1.9-4.8-2.6
		C549.6,80.6,547.9,81.4,545.7,82z M555.8,74h-1.3v-1.5h-8.1V74h-1.3v-2.7h4.7c-0.1-0.3-0.3-0.6-0.4-0.9l1.4-0.2
		c0.1,0.3,0.3,0.7,0.4,1.1h4.6L555.8,74L555.8,74z M549.4,76l-0.7,1c-0.8-0.6-1.6-1-2.4-1.4l0.7-1C547.9,75.1,548.7,75.5,549.4,76z
		 M550.7,74.2l-0.7,1c-0.8-0.6-1.6-1-2.4-1.3l0.7-1C549.1,73.3,549.9,73.7,550.7,74.2z"/>
	<path class="st9" d="M561.6,80.7h-1.3v-0.8H559V81h-1.3v-9.8h3.9L561.6,80.7L561.6,80.7z M560.3,74.8v-2.5H559v2.5H560.3z
		 M560.3,78.7v-2.6H559v2.6H560.3z M564,81.9l-0.3-1.3c0.7,0.1,1.4,0.1,2.1,0.1c0.3,0,0.4-0.2,0.4-0.5v-6.5h-4.1v-1.3h4.1v-2.1h1.3
		v2.1h1.4v1.3h-1.4v6.8c0,0.9-0.4,1.3-1.3,1.3L564,81.9L564,81.9z M565.3,78l-1.1,0.8c-0.4-0.9-1-2-1.7-3.2l1.1-0.7
		C564.3,76.1,564.9,77.2,565.3,78z"/>
	<path class="st9" d="M575.1,71.3v-1h1.3v1h4.6v1.2h-3.4c0.9,0.7,2.3,1.3,4,1.7l-0.6,1.2c-2.1-0.7-3.6-1.7-4.6-2.8v2h-1.3v-2
		c-1,1.1-2.5,2.1-4.5,2.8l-0.7-1.2c1.8-0.5,3.2-1,4.1-1.7h-3.5v-1.2H575.1L575.1,71.3z M581.2,80.5v1.2h-11v-1.2H581.2z M579.7,75
		v4.8h-7.8V75H579.7z M578.4,76.8v-0.7h-5.2v0.7H578.4z M578.4,77.9h-5.2v0.7h5.2V77.9z"/>
	<path class="st9" d="M585.5,74v5.2c0.3-0.3,0.7-0.6,1-1l0.4,1.4c-0.8,0.8-1.6,1.4-2.5,2l-0.5-1.2c0.2-0.2,0.3-0.4,0.3-0.7v-4.5
		h-1.7V74H585.5L585.5,74z M586.4,72.2l-0.9,0.9c-0.5-0.6-1.2-1.2-2.1-1.9l0.9-0.9C585.1,71,585.8,71.6,586.4,72.2z M586.9,74.9
		l-0.8-1c1-1,1.7-2.2,2-3.6l1.3,0.2c-0.1,0.4-0.2,0.7-0.3,1.1h4.8c0,4.8-0.1,7.8-0.2,9c-0.1,0.9-0.7,1.4-1.8,1.4
		c-0.3,0-0.7,0-1.3-0.1l-0.3-1.2c0.5,0,1,0.1,1.4,0.1s0.7-0.3,0.8-0.8c0.1-0.7,0.1-3,0.1-7.1h-4.1c-0.2,0.4-0.5,0.8-0.8,1.2h3.7v6
		h-4.1v-5.5C587.2,74.6,587,74.8,586.9,74.9z M590.2,76.4v-1.3h-1.6v1.3H590.2z M590.2,77.5h-1.6v1.4h1.6V77.5z"/>
</g>
<g id="RectEndPoint2_7_" transform="translate(179.01953125,177)">
	<g>
		<rect x="320.1" y="-71.1" class="st4" width="114.9" height="35.5"/>
		<rect x="318.3" y="-72.5" class="st5" width="114.9" height="35.5"/>
	</g>
</g>
<g class="st8">
	<path class="st9" d="M538.6,119.4l-0.9-0.6c0.6-0.7,1.1-1.5,1.3-2.3l1.3,0.3c-0.1,0.2-0.1,0.3-0.2,0.5h3.3v1.1h-1.8
		c0.1,0.2,0.3,0.4,0.4,0.6l-1.1,0.4c-0.2-0.3-0.4-0.7-0.6-1h-0.8c-0.2,0.4-0.4,0.7-0.7,1h3.4v5.2h-1.5v0.6h2.7v1.1h-2.7v2h-1.3v-2
		h-3.3c-0.1,0.3-0.3,0.6-0.5,0.8c-0.4,0.5-1.2,0.9-2.1,1.2l-0.7-1c0.9-0.2,1.5-0.5,1.8-0.9c0,0,0,0,0-0.1h-2.5v-1.1h2.9
		c0-0.1,0-0.2,0-0.2v-0.4h-1.6v-5.2L538.6,119.4L538.6,119.4z M533.3,119.7l-1.1-0.7c0.8-0.8,1.3-1.7,1.6-2.6l1.3,0.3
		c-0.1,0.2-0.2,0.4-0.2,0.6h2.9v1.1h-1.3c0.1,0.2,0.2,0.3,0.3,0.5l-1.1,0.4c-0.2-0.3-0.4-0.6-0.6-0.9h-0.8
		C534,118.9,533.7,119.3,533.3,119.7z M541,120.8v-0.5h-6v0.5H541z M541,122.2v-0.5h-6v0.5H541z M541,123.1h-6v0.5h6V123.1z
		 M536.5,124.9c0,0.1,0,0.2,0,0.2h3v-0.6h-3V124.9z"/>
	<path class="st9" d="M547.5,121.5l-0.9,0.9c-0.4-0.6-1.1-1.2-1.9-1.9l0.9-0.9C546.4,120.3,547,120.9,547.5,121.5z M548,123.7
		c-0.5,1.6-1.1,3.1-1.8,4.5l-1.3-0.6c0.7-1.4,1.4-2.9,1.9-4.4L548,123.7z M548,118.5l-0.9,0.9c-0.5-0.6-1.2-1.2-2.1-1.9l0.9-0.9
		C546.8,117.3,547.4,117.9,548,118.5z M552.7,116.6v1.9h3.1v1.3h-3.1v2h3.4v1.3H552c-0.7,1.6-1.3,2.8-1.8,3.6
		c1.3-0.2,2.6-0.4,3.9-0.6c-0.3-0.7-0.6-1.3-1-1.8l1.3-0.4c0.7,1.3,1.4,2.6,1.9,4l-1.2,0.6c-0.2-0.4-0.3-0.8-0.5-1.2
		c-1.9,0.4-3.9,0.7-6.1,0.9l-0.3-1.2c0.1,0,0.2-0.1,0.3-0.1c0.5-0.5,1.2-1.7,2.1-3.7h-2.7v-1.3h3.5v-2h-2.9v-1.3h2.9v-1.9
		L552.7,116.6L552.7,116.6z"/>
	<path class="st9" d="M560.2,128.2H559v-5.5c-0.3,0.9-0.7,1.8-1.2,2.6l-0.6-1.5c0.8-1.1,1.4-2.3,1.7-3.6v-0.1h-1.3v-1.2h1.3v-2.3
		h1.2v2.3h1.2v1.2h-1.2v0.7c0.5,0.6,1,1.3,1.6,2l-0.7,1c-0.3-0.6-0.6-1.1-0.9-1.6v6H560.2z M564.4,126.5c-0.6,0.7-1.6,1.3-3.1,1.8
		l-0.5-1.1c1.2-0.3,2.1-0.8,2.6-1.4c0.1-0.1,0.1-0.1,0.1-0.2h-2.7v-1.2h3.3c0.1-0.2,0.1-0.4,0.2-0.7h-2.6v-4.1h6.3v4.1h-2.5
		c0,0.2-0.1,0.5-0.1,0.7h3.4v1.2H566c0.7,0.7,1.7,1.2,2.9,1.6l-0.9,1.1c-1.5-0.7-2.6-1.5-3.3-2.4
		C564.7,126.1,564.6,126.3,564.4,126.5z M562.9,117.5v-0.9h1.2v0.9h1.7v-0.9h1.2v0.9h1.8v1.2H567v0.7h-1.2v-0.7h-1.7v0.7h-1.2v-0.7
		h-1.7v-1.2H562.9z M566.9,121.3v-0.5H563v0.5H566.9z M566.9,122.2H563v0.6h3.9V122.2z"/>
	<path class="st9" d="M575.2,124.5v-0.8h1.3v0.8h4.2v1.2h-4.2v1h4.9v1.2h-11.2v-1.2h5v-1h-4.3v-1.2H575.2z M576.6,117v1.2h-1.2v1.5
		h1.4v1.2h-1.4v2.6h-1.3v-2.6h-1.3c-0.2,1.2-0.6,2.2-1.4,2.8l-1-0.9c0.6-0.4,0.9-1.1,1.1-1.9h-1.4v-1.2h1.5v-1.5h-1.1V117H576.6z
		 M573,119.7h1.2v-1.5H573V119.7z M578.6,117.4v4.3h-1.3v-4.3H578.6z M578,123.7l-0.3-1.2c0.5,0.1,1.1,0.1,1.5,0.1
		c0.2,0,0.4-0.2,0.4-0.6v-5.2h1.3v5.5c0,1-0.4,1.4-1.2,1.4L578,123.7L578,123.7z"/>
</g>
<g id="RectEndPoint2_6_" transform="translate(179.01953125,177)">
	<g>
		<rect x="320.1" y="-23.4" class="st4" width="114.9" height="35.5"/>
		<rect x="318.3" y="-24.8" class="st5" width="114.9" height="35.5"/>
	</g>
</g>
<g class="st8">
	<path class="st9" d="M522.2,169.1l-0.9,0.9c-0.4-0.5-1.1-1.1-1.9-1.7l0.9-0.9C521.1,168,521.7,168.5,522.2,169.1z M522.4,171.7
		c-0.5,1.5-1.1,2.8-1.7,4.1l-1.2-0.5c0.7-1.3,1.3-2.7,1.8-4L522.4,171.7z M522.4,166l-0.9,0.9c-0.4-0.5-1.1-1-1.9-1.6l0.9-0.9
		C521.3,164.9,521.9,165.4,522.4,166z M524,167.1h6.2c0,1.1-0.1,2-0.1,2.9h1v1.2h-1c0,0.7-0.1,1.3-0.1,1.8h0.9v1.1h-1
		c0,0.3-0.1,0.5-0.1,0.6c-0.1,0.4-0.4,0.7-0.7,0.9c-0.4,0.2-0.9,0.3-1.6,0.3c-0.4,0-0.8,0-1.2,0l-0.4-1.2c0.5,0,1,0.1,1.4,0.1
		c0.3,0,0.5,0,0.8-0.1c0.2-0.1,0.4-0.2,0.5-0.5v-0.1h-6c0.2-1,0.4-2,0.5-2.9H522V170h1.3c0.1-0.8,0.1-1.5,0.2-2.2
		c-0.2,0.2-0.4,0.4-0.5,0.6l-0.8-1c0.8-0.7,1.5-1.8,2-3.2l1.3,0.3l-0.3,0.7h5.6v1.2h-6.2C524.3,166.6,524.2,166.9,524,167.1z
		 M524.1,173h2.6c-0.4-0.4-0.8-0.8-1.4-1.2l0.6-0.6h-1.5C524.3,171.9,524.2,172.5,524.1,173z M524.7,168.2c0,0.6-0.1,1.2-0.1,1.8
		h2.3c-0.4-0.3-0.8-0.7-1.4-1l0.8-0.8H524.7z M528.9,168.2h-2.6c0.6,0.4,1.1,0.7,1.5,1.1l-0.7,0.7h1.7
		C528.9,169.4,528.9,168.9,528.9,168.2z M528.7,173c0-0.5,0.1-1.1,0.1-1.8h-2.5c0.5,0.4,0.9,0.7,1.3,1.1L527,173H528.7z"/>
	<path class="st9" d="M543.6,168.2v0.9h-11.4v-0.9H543.6z M542.4,169.6v3.3h-3.9v0.5h4.1v0.8h-4.1v0.5h5.1v1h-11.4v-1h5v-0.5h-4.1
		v-0.8h4.1v-0.5h-3.9v-3.3H542.4L542.4,169.6z M542.2,164.5v3.2h-8.5v-3.2H542.2z M537.2,170.9v-0.5h-2.6v0.5H537.2z M537.2,171.6
		h-2.6v0.5h2.6V171.6z M540.9,165.7v-0.5h-6v0.5H540.9z M540.9,166.5h-6v0.5h6V166.5z M538.5,170.9h2.7v-0.5h-2.7V170.9z
		 M541.2,171.6h-2.7v0.5h2.7V171.6z"/>
	<path class="st9" d="M548.2,170.3c-0.1,0.2-0.1,0.4-0.2,0.6h2.5v1.1c-0.2,0.7-0.6,1.4-1.1,1.9c0.5,0.2,1,0.4,1.4,0.7l-0.7,1
		c-0.5-0.3-1.1-0.6-1.7-0.9c-0.8,0.5-1.9,0.9-3.1,1.3l-0.6-1.1c0.9-0.2,1.7-0.5,2.4-0.8c-0.5-0.2-1-0.4-1.6-0.6
		c0.3-0.5,0.6-1,0.8-1.5H545v-1.1h1.8c0.1-0.3,0.2-0.5,0.3-0.7L548.2,170.3z M547.3,166.6v-2.3h1.2v2.3h2.1v1.1h-2.1l0,0
		c0.7,0.3,1.3,0.6,2,0.9l-0.7,1c-0.5-0.4-1-0.7-1.3-1v1.3h-1.2v-2c-0.4,0.9-1.1,1.6-2,2.3l-0.7-1.1c0.8-0.5,1.4-1,1.8-1.5H545v-1.1
		L547.3,166.6L547.3,166.6z M546.9,166l-0.9,0.4c-0.3-0.6-0.5-1.1-0.8-1.6l1-0.3C546.5,164.9,546.7,165.4,546.9,166z M549.4,172
		h-1.9c-0.2,0.3-0.3,0.6-0.5,0.9c0.4,0.1,0.8,0.3,1.2,0.4C548.7,172.9,549.1,172.5,549.4,172z M550.7,164.9c-0.3,0.5-0.6,1-1,1.6
		l-0.9-0.5c0.4-0.5,0.7-1,1-1.5L550.7,164.9z M551.9,169.7c-0.2,0.4-0.4,0.8-0.6,1.2l-0.8-1c0.7-1.4,1.2-3.2,1.4-5.6l1.3,0.2
		c-0.1,0.6-0.2,1.1-0.2,1.6h3.2v1.3h-0.7c-0.1,2-0.4,3.8-1.1,5.2c0.6,1,1.3,1.8,2.2,2.4l-0.7,1.1c-0.8-0.6-1.5-1.3-2.1-2.3
		c-0.6,0.9-1.3,1.6-2.2,2.3l-0.7-1.1c0.9-0.6,1.6-1.4,2.2-2.4C552.5,171.7,552.2,170.7,551.9,169.7z M552.5,167.9
		c0.3,1.2,0.6,2.4,1,3.3c0.4-1.1,0.6-2.4,0.6-3.8h-1.5C552.6,167.5,552.6,167.7,552.5,167.9z"/>
	<path class="st9" d="M557.8,175.9l-0.3-1.2c0.3,0.1,0.6,0.1,0.9,0.1c0.3,0,0.4-0.2,0.4-0.5v-2.6c-0.4,0.2-0.8,0.3-1.3,0.4l-0.3-1.3
		c0.5-0.1,1.1-0.3,1.6-0.5v-2.5h-1.4v-1.3h1.4v-2.2h1.3v2.2h1.1v1.3h-1.1v2c0.4-0.2,0.7-0.3,1-0.5v1.3c-0.4,0.2-0.7,0.3-1,0.5v3.4
		c0,0.9-0.4,1.3-1.2,1.3L557.8,175.9L557.8,175.9z M561.5,176l-1-0.9c0.8-1.6,1.2-3.7,1.3-6.2v-4.2h6.9v3.3h-2.3v1.2h2.6v1.2h-2.6
		v1.2h2v4.3h-1.2v-0.5h-2.8v0.5h-1.2v-4.3h2v-1.2h-2.1C562.7,172.5,562.3,174.4,561.5,176z M563,168v0.8c0,0.1,0,0.2,0,0.3h2.1V168
		H563z M563,165.9v1h4.4v-1H563z M567.1,174.3v-1.5h-2.8v1.5H567.1z"/>
	<path class="st9" d="M573.6,164.5c-0.1,0.6-0.2,1.1-0.3,1.6h2.8v1.2c-0.3,2.1-0.9,4-1.8,5.4c0.2,0.3,0.5,0.6,0.7,0.8
		c0.9,0.7,2.4,1,4.4,1c0.7,0,1.5,0,2.3-0.1l-0.3,1.4H580c-2.7,0-4.6-0.5-5.7-1.3c-0.3-0.2-0.5-0.5-0.7-0.7c-0.8,0.9-1.7,1.6-2.7,2.2
		l-0.7-1.3c1-0.6,1.9-1.3,2.6-2.2c-0.3-0.7-0.7-1.5-0.9-2.4c-0.3,0.5-0.6,0.9-0.9,1.3l-0.9-1.1c1.2-1.5,2-3.4,2.4-5.9L573.6,164.5z
		 M573.4,171.3c0.6-1.1,1-2.4,1.3-3.9h-1.8c-0.1,0.4-0.3,0.8-0.4,1.1C572.8,169.6,573.1,170.5,573.4,171.3z M578.6,164.3v3.2
		c1,0.7,2,1.5,3.1,2.4l-0.8,1.2c-0.9-0.9-1.7-1.7-2.3-2.2v4.8h-1.3v-9.4H578.6z"/>
	<path class="st9" d="M584,168.8v-2.6h-1.4V165h4.1v1.3h-1.4v2.6h1.2v1.3h-1.2v2.4c0.4-0.1,0.8-0.3,1.2-0.5v1.3
		c-1.2,0.5-2.4,0.8-3.7,1.1l-0.3-1.3c0.5-0.1,1-0.2,1.5-0.3v-2.8h-1.2v-1.3H584L584,168.8z M593.6,164.7v6.1H591v1.2h2.7v1.2H591
		v1.2h3.1v1.3h-7.7v-1.3h3.2v-1.2H587V172h2.7v-1.2h-2.6v-6.1H593.6z M589.8,167.2v-1.3h-1.3v1.3H589.8z M589.8,168.3h-1.3v1.3h1.3
		V168.3z M591.1,167.2h1.3v-1.3h-1.3V167.2z M592.4,168.3h-1.3v1.3h1.3V168.3z"/>
</g>
<g id="RectEndPoint2_5_" transform="translate(179.01953125,177)">
	<g>
		<rect x="320.1" y="24.3" class="st4" width="114.9" height="35.5"/>
		<rect x="318.3" y="23" class="st5" width="114.9" height="35.5"/>
	</g>
</g>
<g class="st8">
	<path class="st9" d="M553.1,220.7c0.2,0.2,0.3,0.4,0.3,0.7s-0.1,0.5-0.3,0.7s-0.4,0.3-0.7,0.3s-0.5-0.1-0.7-0.3s-0.3-0.4-0.3-0.7
		s0.1-0.5,0.3-0.7s0.4-0.3,0.7-0.3S552.9,220.6,553.1,220.7z M557.3,220.7c0.2,0.2,0.3,0.4,0.3,0.7s-0.1,0.5-0.3,0.7
		s-0.4,0.3-0.7,0.3s-0.5-0.1-0.7-0.3s-0.3-0.4-0.3-0.7s0.1-0.5,0.3-0.7s0.4-0.3,0.7-0.3C556.9,220.5,557.1,220.6,557.3,220.7z
		 M561.5,220.7c0.2,0.2,0.3,0.4,0.3,0.7s-0.1,0.5-0.3,0.7s-0.4,0.3-0.7,0.3s-0.5-0.1-0.7-0.3s-0.3-0.4-0.3-0.7s0.1-0.5,0.3-0.7
		s0.4-0.3,0.7-0.3C561.1,220.5,561.3,220.6,561.5,220.7z"/>
</g>
<g class="st8">
	<path class="st9" d="M690.6,30.2c-0.1,0.2-0.1,0.4-0.2,0.5h2.4v1c-0.2,0.7-0.6,1.3-1.1,1.8c0.5,0.2,0.9,0.4,1.4,0.7l-0.7,1
		c-0.5-0.3-1-0.6-1.7-0.9c-0.8,0.5-1.8,0.9-3,1.2l-0.6-1c0.9-0.2,1.6-0.4,2.2-0.7c-0.5-0.2-1-0.4-1.5-0.6c0.3-0.5,0.5-0.9,0.8-1.4
		h-1.2v-1.1h1.7c0.1-0.2,0.2-0.5,0.2-0.7L690.6,30.2z M689.8,26.7v-2.2h1.2v2.2h2v1.1h-2l0,0c0.6,0.3,1.3,0.5,1.9,0.9l-0.6,1
		c-0.5-0.4-0.9-0.7-1.3-0.9V30h-1.2v-1.9c-0.4,0.8-1,1.5-1.9,2.1l-0.6-1c0.8-0.4,1.4-0.9,1.7-1.5h-1.4v-1.1L689.8,26.7L689.8,26.7z
		 M689.4,26.2l-0.9,0.4c-0.2-0.6-0.5-1.1-0.8-1.5l1-0.3C688.9,25.2,689.2,25.6,689.4,26.2z M691.7,31.8h-1.8
		c-0.2,0.3-0.3,0.6-0.5,0.9c0.4,0.1,0.8,0.3,1.2,0.4C691.1,32.8,691.5,32.3,691.7,31.8z M692.9,25.1c-0.2,0.5-0.5,1-0.9,1.5
		l-0.9-0.4c0.4-0.5,0.7-1,0.9-1.5L692.9,25.1z M694.1,29.7c-0.2,0.4-0.4,0.8-0.6,1.1l-0.8-1c0.7-1.3,1.1-3.1,1.3-5.3l1.2,0.2
		c-0.1,0.5-0.1,1-0.2,1.5h3v1.2h-0.7c-0.1,1.9-0.4,3.6-1.1,4.9c0.6,1,1.3,1.7,2.1,2.3l-0.7,1c-0.7-0.6-1.4-1.3-2-2.2
		c-0.6,0.8-1.3,1.6-2.1,2.1l-0.6-1.1c0.9-0.6,1.6-1.3,2.1-2.2C694.7,31.6,694.4,30.7,694.1,29.7z M694.7,27.9c0.3,1.2,0.6,2.2,1,3.1
		c0.4-1.1,0.6-2.3,0.6-3.6h-1.5C694.8,27.6,694.7,27.8,694.7,27.9z"/>
	<path class="st9" d="M699.7,35.5l-0.3-1.2c0.3,0,0.6,0.1,0.9,0.1c0.3,0,0.4-0.2,0.4-0.5v-2.4c-0.4,0.1-0.8,0.3-1.2,0.4l-0.3-1.2
		c0.5-0.1,1-0.3,1.5-0.4v-2.4h-1.3v-1.2h1.3v-2.1h1.2v2.1h1v1.2h-1v1.9c0.3-0.2,0.7-0.3,1-0.5v1.2c-0.3,0.2-0.7,0.3-1,0.5v3.3
		c0,0.8-0.4,1.2-1.2,1.2H699.7z M703.2,35.7l-1-0.9c0.8-1.5,1.2-3.5,1.2-5.9v-4h6.6v3.2h-2.2v1.1h2.4v1.1h-2.4v1.1h1.9v4.1h-1.2V35
		h-2.7v0.5h-1.2v-4.1h1.9v-1.1h-2C704.4,32.4,704,34.1,703.2,35.7z M704.6,28.1v0.8c0,0.1,0,0.2,0,0.3h2v-1.1
		C706.6,28.1,704.6,28.1,704.6,28.1z M704.6,26.1V27h4.1v-0.9H704.6z M708.6,34v-1.4h-2.7V34H708.6z"/>
	<path class="st9" d="M717.9,25.6h4.3v1.2h-8.7v2.4c0,2.7-0.4,4.8-1.1,6.4l-1.1-0.9c0.6-1.3,0.9-3.1,0.9-5.5v-3.7h4.3
		c-0.2-0.3-0.3-0.6-0.5-0.9l1.4-0.2C717.5,24.8,717.7,25.2,717.9,25.6z M718.3,34c0.7-1.7,1.3-3.7,1.8-6.1l1.2,0.3
		c-0.5,2.1-1,4-1.7,5.7h2.3v1.2h-8.6V34H718.3z M716.3,32.8l-1.2,0.3c-0.3-1.5-0.7-2.9-1.2-4.3l1.1-0.4
		C715.5,29.8,715.9,31.2,716.3,32.8z M718.4,32.1l-1.2,0.3c-0.3-1.5-0.6-3-1-4.5l1.1-0.4C717.7,28.9,718,30.4,718.4,32.1z"/>
	<path class="st9" d="M724.2,35.6l-1-0.9c0.7-1,1.1-2.3,1.1-3.9v-5.9h9.3V34c0,0.9-0.5,1.4-1.4,1.4h-1.4l-0.3-1.2
		c0.5,0,0.9,0.1,1.3,0.1c0.4,0,0.6-0.2,0.6-0.7v-1.7h-2.9v3.4h-1.3v-3.4h-2.7C725.3,33.3,724.9,34.6,724.2,35.6z M725.6,26.1v1.7
		h2.6v-1.7H725.6z M725.6,30.7h2.6V29h-2.6V30.7z M732.3,26.1h-2.9v1.7h2.9V26.1z M732.3,29h-2.9v1.7h2.9V29z"/>
</g>
<g id="RectEndPoint2_8_" transform="translate(179.01953125,177)">
	<g>
		<rect x="510.2" y="-117.6" class="st4" width="126.5" height="46.2"/>
		<rect x="508.2" y="-119.4" class="st5" width="127.5" height="46.2"/>
	</g>
</g>
<g class="st8">
	<path class="st9" d="M739.8,75.9h5v1.4h-10.2v2.9c0,3.1-0.5,5.6-1.3,7.4l-1.2-1.1c0.7-1.5,1.1-3.6,1.1-6.3v-4.3h5.1
		c-0.2-0.4-0.4-0.9-0.6-1.2l1.6-0.3C739.4,74.8,739.6,75.3,739.8,75.9z"/>
	<path class="st9" d="M747.2,79.5l-0.9-1.1c1.2-1,2.1-2.2,2.5-3.6l1.5,0.2c-0.2,0.5-0.4,1-0.6,1.5h2.2v-1.8h1.5v1.8h4.4v1.4h-4.4
		v1.8h5.5V81h-12.8v-1.4h5.8v-1.8h-3C748.4,78.4,747.9,78.9,747.2,79.5z M757.3,87.5h-1.5v-0.7h-6.5v0.7h-1.5v-5.4h9.5V87.5
		L757.3,87.5z M755.8,85.5v-2h-6.5v2H755.8z"/>
	<path class="st9" d="M760.4,81.5l-0.4-1.4c1.4-1.6,2.5-3.4,3.1-5.6l1.3,0.6c-0.3,1-0.7,1.9-1.3,2.8v9.5h-1.5V80
		C761.3,80.6,760.9,81.1,760.4,81.5z M766.6,77.8c0-0.2,0-0.4,0-0.6v-2.6h1.4v2.6c0,0.2,0,0.4,0,0.6h4.5v1.4h-2.8v6.4
		c0,0.2,0.1,0.3,0.3,0.3h1c0.1,0,0.2-0.1,0.3-0.2c0.1-0.2,0.2-0.8,0.2-2l1.3,0.4c-0.1,1.5-0.3,2.4-0.5,2.7c-0.2,0.3-0.6,0.4-1,0.4
		h-1.8c-0.9,0-1.3-0.5-1.3-1.4v-6.7h-0.5c-0.3,3.7-1.5,6.4-3.4,8.3l-1.1-1c1.8-1.6,2.8-4.1,3.1-7.3h-2.7v-1.4L766.6,77.8L766.6,77.8
		z M772,76.5l-1,1c-0.5-0.6-1.2-1.2-2.2-1.9l0.9-0.9C770.7,75.3,771.4,75.9,772,76.5z"/>
	<path class="st9" d="M779.5,75c-0.5,1.1-1.1,2.2-1.8,3.2v9.2h-1.5V80c-0.5,0.5-1.1,1.1-1.8,1.6l-0.5-1.5c1.9-1.6,3.2-3.5,4.1-5.7
		L779.5,75z M782.2,87.3c-1.2,0-1.8-0.6-1.8-1.8v-3.8c-0.5,0.3-1,0.5-1.5,0.7l-0.7-1.4c0.7-0.3,1.4-0.7,2.1-1.1v-5.4h1.5V79
		c1.3-0.9,2.5-1.9,3.5-3l1,1.2c-1.3,1.4-2.9,2.6-4.6,3.6v4.4c0,0.4,0.2,0.6,0.6,0.6h2c0.3,0,0.5-0.1,0.7-0.3
		c0.1-0.2,0.2-0.9,0.3-2.2l1.3,0.5c-0.1,1.6-0.3,2.6-0.5,2.9c-0.3,0.3-0.8,0.5-1.5,0.5L782.2,87.3L782.2,87.3z"/>
</g>
<g id="RectEndPoint2_9_" transform="translate(179.01953125,177)">
	<g>
		<rect x="510.2" y="-51.8" class="st4" width="126.5" height="46.2"/>
		<rect x="508.2" y="-53.6" class="st5" width="127.5" height="46.2"/>
	</g>
</g>
<g class="st8">
	<path class="st9" d="M739.7,143c0.7,0.6,1.2,1.4,1.3,2.4h-1.6c-0.2-0.7-0.5-1.1-0.9-1.4c-0.4-0.3-1-0.4-1.7-0.4
		c-1.1,0-1.8,0.4-2.4,1.1c-0.5,0.6-0.7,1.5-0.7,2.7s0.2,2.1,0.7,2.7c0.5,0.7,1.3,1,2.4,1c0.7,0,1.3-0.2,1.8-0.5c0.5-0.4,0.8-1,1-1.7
		h1.6c-0.2,1.2-0.7,2.1-1.6,2.7c-0.8,0.6-1.7,0.9-2.8,0.9c-1.7,0-2.9-0.5-3.7-1.6c-0.7-0.9-1.1-2.1-1.1-3.6s0.4-2.7,1.1-3.6
		c0.8-1.1,2.1-1.6,3.7-1.6C738,142,739,142.4,739.7,143z"/>
	<path class="st9" d="M750.1,142.2v1.4h-3.3v8.6h-1.6v-8.6H742v-1.4H750.1z"/>
	<path class="st9" d="M755.8,142.2c1,0,1.8,0.2,2.4,0.7c0.6,0.5,0.9,1.2,0.9,2.2c0,0.5-0.1,1-0.4,1.4c-0.3,0.4-0.7,0.7-1.3,0.9l0,0
		c0.9,0.2,1.4,0.8,1.5,1.8l0.2,1.6c0.1,0.6,0.3,1.1,0.6,1.5h-1.8c-0.2-0.3-0.4-0.7-0.4-1.3l-0.1-1.2c-0.1-0.5-0.2-0.9-0.5-1.2
		s-0.7-0.4-1.3-0.4H753v4.1h-1.6v-10L755.8,142.2L755.8,142.2z M753,146.8h2.6c0.6,0,1.1-0.1,1.5-0.4c0.3-0.3,0.5-0.7,0.5-1.2
		s-0.2-0.9-0.5-1.2s-0.8-0.4-1.5-0.4H753V146.8z"/>
	<path class="st9" d="M763.3,144c0.4-0.4,0.7-0.9,1.1-1.4h-3.3v-1.3h4.8v1.1c-0.5,1-1.1,1.9-1.8,2.6c0.2,0.2,0.3,0.4,0.5,0.6h1.7
		v0.9c-0.2,1.1-0.5,1.9-0.8,2.6l-1.2-0.5c0.2-0.5,0.4-1,0.6-1.6h-1v5.4c0,0.9-0.4,1.3-1.2,1.3h-1.4l-0.3-1.3
		c0.4,0.1,0.8,0.1,1.2,0.1c0.2,0,0.3-0.2,0.3-0.4V147h-1.9v-1.3h2.4c-0.5-0.6-1.1-1.2-1.7-1.8l1.1-0.7
		C762.7,143.3,763,143.7,763.3,144z M770.7,145.6v2.5c-0.1,1.5-0.4,2.7-1,3.6c-0.6,0.8-1.6,1.5-3,1.9l-0.8-1.2
		c1.3-0.4,2.2-1,2.7-1.6c0.4-0.7,0.7-1.6,0.8-2.7v-2.5H770.7L770.7,145.6z M773.5,141.2v1.4h-2.7c-0.1,0.4-0.1,0.8-0.2,1.1h2.5v6.8
		h-1.4V145h-3.5v5.5h-1.4v-6.8h2.3c0.1-0.4,0.1-0.8,0.2-1.1h-2.9v-1.4H773.5z M773.7,152.7l-1,1c-0.6-0.7-1.3-1.5-2.4-2.4l0.9-0.9
		C772.2,151.2,773,151.9,773.7,152.7z"/>
	<path class="st9" d="M778.9,141.3c-0.4,1.1-0.8,2.2-1.4,3.1v9.3H776v-7.2c-0.3,0.4-0.7,0.8-1.1,1.2l-0.5-1.6c1.4-1.6,2.4-3.5,3-5.6
		L778.9,141.3z M782.2,143.4v-2.6h1.5v2.6h3.8v1.4h-3.8v2.5h3.1v6.4h-1.4v-0.5h-4.6v0.5h-1.5v-6.4h3v-2.5h-3.7v-1.4H782.2z
		 M785.3,151.8v-3.1h-4.6v3.1H785.3z"/>
</g>
<g id="RectEndPoint2_15_" transform="translate(179.01953125,177)">
	<g>
		<rect x="509.7" y="13.9" class="st4" width="126.5" height="46.2"/>
		<rect x="507.8" y="12.1" class="st5" width="127.5" height="46.2"/>
	</g>
</g>
<g class="st8">
	<path class="st9" d="M739.1,209.2c0.8,3.7,2.8,6.5,6,8.4l-1,1.3c-2.6-1.8-4.5-4.1-5.5-7.1c-0.9,2.9-2.8,5.2-5.8,7.1l-0.9-1.3
		c3.8-2.2,5.7-5.4,5.8-9.4c0-0.9,0-1.7,0-2.2h1.5C739.2,207.2,739.1,208.3,739.1,209.2z"/>
	<path class="st9" d="M748.8,212.6c-0.1,0.3-0.2,0.6-0.3,1h3.5v5.2h-1.3v-0.7H749v0.8h-1.3v-3.5c-0.3,0.6-0.7,1.1-1.1,1.5l-0.8-1.2
		c0.7-0.7,1.2-1.8,1.6-3h-0.9v-1.2h1.2c0.1-0.4,0.1-0.8,0.2-1.2h-1.7V209h1.8v-1.2h-1.4v-1.2h5v2.5h0.7v1.3h-0.7v2.5L748.8,212.6
		L748.8,212.6z M750.8,216.8v-1.9h-1.7v1.9H750.8z M749.1,211.4h1.3v-1.2h-1.1C749.2,210.6,749.2,211,749.1,211.4z M749.4,208.9h1
		v-1.2h-0.9C749.4,208.1,749.4,208.5,749.4,208.9z M752.7,209.9v-1.4h1.4c-0.3-0.7-0.6-1.4-1-1.9l1.2-0.6c0.4,0.6,0.7,1.3,1.1,2.1
		l-0.8,0.4h1.3c0.4-0.8,0.7-1.7,1-2.6l1.4,0.5c-0.3,0.8-0.6,1.5-0.9,2.2h1.3v1.4h-2.2v1.6h1.9v1.4h-1.9v1.6h2.5v1.4h-2.5v3.1H755
		V216h-2.5v-1.4h2.5V213h-2v-1.4h2V210L752.7,209.9L752.7,209.9z"/>
	<path class="st9" d="M772.8,206.6v1.4h-12.6v-1.4H772.8z M772.4,210.2v8.7H771v-0.6h-8.9v0.6h-1.4v-8.7h1.4v6.7h8.9v-6.7H772.4
		L772.4,210.2z M770,209.1v6.8h-7v-6.8H770z M764.4,210.4v1.5h1.5v-1.5H764.4z M764.4,214.5h1.5V213h-1.5V214.5z M768.6,210.4h-1.5
		v1.5h1.5V210.4z M768.6,214.5V213h-1.5v1.5H768.6z"/>
	<path class="st9" d="M778,209.8l-0.9-1.1c-0.1,0.2-0.1,0.3-0.2,0.4v9.7h-1.5v-7.2c-0.3,0.5-0.7,0.9-1.1,1.3l-0.5-1.6
		c1.2-1.6,2.1-3.4,2.7-5.6l1.4,0.6c-0.2,0.8-0.5,1.5-0.8,2.2c1.3-0.7,2.4-1.6,3.3-2.9l1.5,0.3l-0.5,0.6h3.3v0.9
		c-0.3,0.4-0.5,0.7-0.8,1h2.3v3.4h-3.9c0.4,0.5,0.8,1,1.1,1.6c0.8-0.4,1.6-0.8,2.1-1.4l1,1.1c-0.4,0.3-0.8,0.6-1.2,0.8
		c0.3,1.1,1,2.1,1.8,3l-1,1.2c-0.9-1.1-1.6-2.3-2-3.7c-0.1,0.1-0.2,0.1-0.3,0.1c0.1,0.4,0.2,0.9,0.2,1.4c0,1-0.2,1.7-0.5,2.1
		c-0.3,0.3-0.8,0.5-1.6,0.6c-0.3,0-0.5,0-0.8,0l-0.4-1.3c0.4,0,0.8,0,1.1,0s0.5-0.1,0.6-0.3s0.2-0.6,0.2-1.1v-0.1
		c-1.1,1-2.6,1.8-4.3,2.5l-0.7-1.2c2.1-0.7,3.7-1.5,4.9-2.5c-0.1-0.2-0.1-0.4-0.2-0.5c-1,0.9-2.3,1.6-3.9,2.1l-0.7-1.2
		c1.8-0.5,3.1-1.1,4.1-1.9c-0.1-0.2-0.2-0.3-0.3-0.4c-0.8,0.7-1.9,1.2-3.2,1.5l-0.5-1.2c1.1-0.2,2-0.6,2.7-1.1h-2v-2.4L778,209.8z
		 M783,207.9h-2.5c-0.3,0.3-0.6,0.5-0.9,0.8h2.5C782.4,208.5,782.7,208.2,783,207.9z M781.7,209.9h-2v1h1.6
		C781.4,210.6,781.6,210.2,781.7,209.9z M784.9,209.9H783c-0.1,0.4-0.2,0.7-0.3,1h2.1L784.9,209.9L784.9,209.9z"/>
</g>
<g>
	<g class="st8">
		<path class="st6" d="M142.8,139.4c-0.1,0.2-0.2,0.4-0.2,0.7h2.5v0.7c-0.3,0.8-0.7,1.5-1.3,2.1c0.6,0.3,1.1,0.5,1.7,0.8l-0.5,0.7
			c-0.5-0.3-1.1-0.6-1.8-0.9c-0.8,0.6-1.8,1-3,1.3l-0.4-0.7c1-0.3,1.8-0.6,2.5-1c-0.5-0.2-1.1-0.5-1.7-0.7c0.3-0.5,0.6-1,0.8-1.5
			H140V140h1.8c0.1-0.3,0.2-0.5,0.3-0.8L142.8,139.4z M142.3,136v-2.3h0.8v2.3h2.2v0.8h-2.2v0.1c0.6,0.3,1.3,0.7,2,1.1l-0.4,0.7
			c-0.6-0.5-1.1-0.9-1.5-1.2v1.6h-0.8v-2.3c-0.4,0.9-1.1,1.8-2.1,2.5l-0.4-0.7c0.9-0.5,1.6-1.1,1.9-1.8H140V136H142.3L142.3,136z
			 M141.6,135.4l-0.6,0.3c-0.3-0.6-0.5-1.1-0.8-1.6l0.7-0.2C141.2,134.4,141.4,134.9,141.6,135.4z M144.3,140.8h-2.1
			c-0.2,0.4-0.4,0.8-0.6,1.2c0.5,0.2,0.9,0.3,1.4,0.5C143.5,142,144,141.4,144.3,140.8z M145.2,134.2c-0.2,0.5-0.5,1-0.9,1.5
			l-0.6-0.3c0.4-0.5,0.7-1,0.9-1.5L145.2,134.2z M146.5,138.3c-0.2,0.6-0.5,1-0.7,1.5l-0.5-0.7c0.7-1.3,1.2-3.2,1.4-5.4l0.8,0.1
			c-0.1,0.6-0.2,1.2-0.3,1.7h3.2v0.8h-0.8c-0.1,2-0.4,3.7-1.1,5.1c0.6,1.1,1.4,1.9,2.2,2.5l-0.5,0.7c-0.8-0.6-1.6-1.4-2.2-2.4
			c-0.6,1-1.3,1.8-2.2,2.4l-0.4-0.7c0.9-0.6,1.7-1.5,2.2-2.5C147.2,140.6,146.8,139.5,146.5,138.3z M146.9,137
			c0.3,1.4,0.7,2.6,1.2,3.6c0.5-1.2,0.7-2.6,0.8-4.2h-1.8L146.9,137z"/>
		<path class="st6" d="M152.1,144.6l-0.2-0.8c0.3,0,0.6,0.1,0.9,0.1c0.3,0,0.5-0.2,0.5-0.5v-2.9c-0.5,0.2-0.9,0.3-1.4,0.5l-0.2-0.8
			c0.6-0.1,1.1-0.3,1.6-0.5V137h-1.4v-1h1.4v-2.3h0.8v2.3h1.2v0.8h-1.2v2.4c0.4-0.2,0.8-0.3,1.1-0.5v0.9c-0.4,0.2-0.7,0.4-1.1,0.5
			v3.5c0,0.7-0.3,1.1-1,1.1L152.1,144.6L152.1,144.6z M155.3,144.7l-0.7-0.6c0.9-1.6,1.3-3.6,1.3-6.2v-3.8h6.3v2.9H160v1.4h2.6v0.8
			H160v1.5h2v3.9h-0.8V144H158v0.6h-0.8v-3.9h2v-1.5h-2.4C156.6,141.3,156.1,143.1,155.3,144.7z M156.8,137.1v0.8c0,0.2,0,0.4,0,0.6
			h2.4v-1.4L156.8,137.1L156.8,137.1z M156.8,135v1.3h4.6V135H156.8z M161.2,143.3v-1.8H158v1.8H161.2z"/>
		<path class="st6" d="M164.2,137.7l-0.5-0.7c1.1-1,1.9-2.1,2.4-3.4l0.8,0.2c-0.1,0.3-0.3,0.6-0.4,0.9h2.6c-0.2-0.4-0.3-0.7-0.5-1
			l0.9-0.1c0.2,0.3,0.3,0.7,0.5,1.2h3.9v0.7h-3.8v0.8h3.4v0.7h-3.4v0.8h3.4v0.7h-3.4v0.9h4v0.7h-8.8v-3.4
			C164.9,137,164.5,137.4,164.2,137.7z M164,141.8V141h4.8v-0.6h0.9v0.6h4.7v0.8h-3.6c0.8,0.8,2.1,1.4,3.8,1.8l-0.4,0.8
			c-2-0.7-3.4-1.5-4.2-2.6h-0.2v2.9h-0.9v-2.9h-0.2c-0.8,1-2.2,1.9-4.2,2.6l-0.5-0.7c1.8-0.6,3.1-1.2,3.8-1.9L164,141.8L164,141.8z
			 M169.1,135.5H166l-0.1,0.1v0.7h3.1L169.1,135.5L169.1,135.5z M169.1,137H166v0.8h3.1V137z M169.1,138.5H166v0.9h3.1V138.5z"/>
		<path class="st6" d="M185.6,135l-0.6,0.6h1.5v0.8h-3.7c0.1,1.5,0.2,2.7,0.5,3.5c0.1,0.3,0.2,0.6,0.2,0.8c0.6-1,1.1-2.1,1.5-3.4
			l0.8,0.3c-0.5,1.6-1.1,2.9-1.9,4c0.2,0.4,0.3,0.7,0.5,1c0.4,0.6,0.7,0.9,1,0.9c0.2,0,0.4-0.6,0.6-1.9l0.8,0.4
			c-0.3,1.6-0.7,2.4-1.2,2.4s-1-0.4-1.6-1.1c-0.2-0.3-0.4-0.6-0.6-1c-0.8,1-1.8,1.7-2.9,2.2l-0.5-0.7c1.2-0.5,2.2-1.3,3-2.4
			c-0.2-0.4-0.3-0.9-0.5-1.4c-0.3-1-0.4-2.3-0.5-3.8h-4.1v2h2.9c0,2-0.1,3.3-0.3,3.9c-0.2,0.5-0.5,0.8-1.1,0.8c-0.3,0-0.6,0-1,0
			l-0.3-0.8c0.5,0,0.9,0,1.2,0s0.4-0.2,0.5-0.5c0.1-0.4,0.1-1.3,0.1-2.6h-2.1v0.4c0,2.1-0.5,3.9-1.4,5.2l-0.7-0.6
			c0.8-1.1,1.2-2.6,1.2-4.6v-4h5c0-0.6,0-1.2,0-1.9h0.9c0,0.7,0,1.3,0,1.9h2.2c-0.4-0.4-0.8-0.9-1.5-1.3l0.6-0.5
			C184.7,134.1,185.2,134.5,185.6,135z"/>
		<path class="st6" d="M188.6,135.5v-0.8h9.1v0.8h-4.1v7.6h4.9v0.8h-10.7V143h4.9v-7.6h-4.1V135.5z"/>
		<path class="st6" d="M208.8,141.5h1.7v0.8h-3.6c1.2,0.5,2.4,1,3.4,1.6l-0.5,0.7c-1.1-0.7-2.3-1.3-3.5-1.8l0.4-0.6h-3.4l0.6,0.5
			c-0.9,0.7-2,1.3-3.4,1.9l-0.5-0.7c1.3-0.5,2.4-1.1,3.3-1.7h-3.5v-0.8h1.7v-7.3h7.2L208.8,141.5L208.8,141.5z M207.9,136.1V135
			h-5.4v1.1H207.9z M207.9,137.9v-1.1h-5.4v1.1H207.9z M207.9,139.7v-1.1h-5.4v1.1H207.9z M207.9,141.5v-1.1h-5.4v1.1H207.9z"/>
	</g>
</g>
<g>
	<path id="_复合路径_" class="st6" d="M699.8,138.3H723v15h2v-17h-25.3c-0.6-1-1.8-1.3-2.7-0.7s-1.3,1.8-0.7,2.7
		s1.8,1.3,2.7,0.7C699.3,138.8,699.6,138.6,699.8,138.3z M724,157.3c-0.7,0-1.4,0.4-1.7,1H699v-15h-2v17h25.3c0.6,1,1.8,1.3,2.7,0.7
		c1-0.6,1.3-1.8,0.7-2.7C725.4,157.6,724.8,157.3,724,157.3z M703,146.3h3v-2h-5v8h5v-2h-3V146.3z M721,146.3c0-1.1-0.8-2-1.9-2H719
		h-4v8h2v-3h1.2l1.2,3h2.4l-1.3-3.5c0.4-0.4,0.7-0.9,0.6-1.5L721,146.3L721,146.3z M719,147.3h-2v-1h2V147.3z M711.5,152.3h-2v-8h2
		V152.3z M714,144.3v2h-7v-2H714z"/>
</g>
<g>
	<path class="st6" d="M711.5,213.5c3.7,0,6.6-3,6.6-6.6s-3-6.6-6.6-6.6c-3.7,0-6.6,3-6.6,6.6S707.9,213.5,711.5,213.5z M706.9,206.8
		c0-2.5,2.1-4.6,4.6-4.6s4.6,2.1,4.6,4.6s-2.1,4.6-4.6,4.6C709,211.5,706.9,209.4,706.9,206.8z"/>
	<path class="st6" d="M700.4,222v2.2H712v-2h-9.6V222c0-3.4,2.4-6.3,5.3-6.3h4.3v-2h-4.3C703.7,213.7,700.4,217.4,700.4,222z"/>
	<rect x="712.8" y="219.3" class="st6" width="4.8" height="2"/>
	<rect x="712.8" y="222.2" class="st6" width="9.9" height="2"/>
	<rect x="712.8" y="216.5" class="st6" width="8.2" height="2"/>
	<rect x="712.8" y="213.7" class="st6" width="5.4" height="2"/>
</g>
<g>
	<g>
		<path class="st6" d="M722.5,72.6v15.9h-24V72.6H722.5 M724.5,70.6h-28v19.9h28V70.6L724.5,70.6z"/>
	</g>
	<path class="st6" d="M711.4,76.4v8h2h5v-8H711.4z M716.4,82.4h-3v-4h3V82.4z"/>
	<path class="st6" d="M707.7,76.4h-2.3l-2.9,8h2.5l0.5-1.7h2.1l0.5,1.7h2.5L707.7,76.4z M706.5,79.4L707,81h-1.1L706.5,79.4z"/>
	<rect x="703.1" y="92.5" class="st6" width="16.4" height="2"/>
</g>
<g class="st8">
	<path class="st9" d="M309.4,76.2c1.6,0,2.8,0.4,3.7,1.3c0.8,0.8,1.2,2.1,1.2,3.7s-0.4,2.8-1.2,3.7c-0.8,0.9-2.1,1.3-3.7,1.3h-3.7
		v-10H309.4z M307.4,84.8h1.7c1.2,0,2.2-0.3,2.7-0.9c0.6-0.6,0.8-1.5,0.8-2.7c0-1.3-0.3-2.2-0.8-2.7c-0.6-0.6-1.5-0.9-2.7-0.9h-1.7
		V84.8z"/>
	<path class="st9" d="M321.4,79.5c0.4,0.5,0.7,1.1,0.7,2v4.6h-1.5v-1c-0.3,0.4-0.6,0.6-1,0.8c-0.5,0.2-1,0.3-1.6,0.3
		c-0.8,0-1.3-0.2-1.8-0.6c-0.4-0.4-0.7-0.9-0.7-1.5c0-0.8,0.3-1.4,1-1.9c0.6-0.4,1.4-0.6,2.5-0.7h1.6v-0.3c0-1-0.5-1.4-1.6-1.4
		c-0.4,0-0.8,0.1-1.1,0.2c-0.3,0.2-0.5,0.5-0.6,0.8l-1.6-0.1c0.2-0.8,0.5-1.4,1.2-1.8c0.5-0.3,1.3-0.5,2.2-0.5
		C320.1,78.8,320.9,79,321.4,79.5z M319,82.9c-1.3,0-1.9,0.5-1.9,1.3c0,0.3,0.1,0.5,0.3,0.6s0.5,0.3,0.9,0.3c0.6,0,1.1-0.2,1.6-0.5
		c0.4-0.4,0.6-0.8,0.6-1.4v-0.4L319,82.9z"/>
	<path class="st9" d="M326,78.9h1.6v1.3H326v4.1c0,0.2,0,0.3,0.1,0.4s0.2,0.1,0.4,0.1h1v1.3h-1.2c-0.6,0-1.1-0.2-1.4-0.5
		s-0.4-0.7-0.4-1.3v-4.1h-1.3v-1.3h1.3v-1.7l1.6-0.7v2.4H326z"/>
	<path class="st9" d="M334.5,79.5c0.4,0.5,0.7,1.1,0.7,2v4.6h-1.5v-1c-0.3,0.4-0.6,0.6-1,0.8c-0.5,0.2-1,0.3-1.6,0.3
		c-0.8,0-1.3-0.2-1.8-0.6c-0.4-0.4-0.7-0.9-0.7-1.5c0-0.8,0.3-1.4,1-1.9c0.6-0.4,1.4-0.6,2.5-0.7h1.6v-0.3c0-1-0.5-1.4-1.6-1.4
		c-0.4,0-0.8,0.1-1.1,0.2c-0.3,0.2-0.5,0.5-0.6,0.8l-1.6-0.1c0.2-0.8,0.5-1.4,1.2-1.8c0.5-0.3,1.3-0.5,2.2-0.5
		C333.2,78.8,334,79,334.5,79.5z M332.1,82.9c-1.3,0-1.9,0.5-1.9,1.3c0,0.3,0.1,0.5,0.3,0.6s0.5,0.3,0.9,0.3c0.6,0,1.1-0.2,1.6-0.5
		c0.4-0.4,0.6-0.8,0.6-1.4v-0.4L332.1,82.9z"/>
	<path class="st9" d="M347.9,76.7c0.7,0.5,1.1,1.3,1.2,2.4h-1.6c-0.1-0.6-0.4-1.1-0.8-1.3c-0.4-0.3-0.9-0.4-1.7-0.4
		c-0.6,0-1.1,0.1-1.4,0.3c-0.4,0.2-0.6,0.6-0.6,1s0.2,0.8,0.7,1c0.2,0.1,0.8,0.3,1.7,0.6c1.4,0.4,2.2,0.8,2.6,1
		c0.9,0.5,1.3,1.2,1.3,2.2c0,0.9-0.4,1.6-1,2.1c-0.7,0.5-1.7,0.8-3,0.8c-1.2,0-2.2-0.2-2.9-0.7c-0.8-0.6-1.3-1.5-1.4-2.8h1.6
		c0.1,0.8,0.4,1.3,0.8,1.6c0.4,0.3,1,0.4,1.8,0.4c0.7,0,1.3-0.1,1.7-0.4c0.4-0.3,0.6-0.6,0.6-1c0-0.5-0.3-1-0.9-1.3
		c-0.2-0.1-0.8-0.3-1.9-0.7c-1.2-0.4-2-0.7-2.3-0.8c-0.8-0.5-1.1-1.1-1.1-2s0.4-1.6,1.1-2.1s1.6-0.7,2.7-0.7
		C346.3,76,347.2,76.2,347.9,76.7z"/>
	<path class="st9" d="M352.9,78.9h1.6v1.3h-1.6v4.1c0,0.2,0,0.3,0.1,0.4s0.2,0.1,0.4,0.1h1v1.3h-1.2c-0.6,0-1.1-0.2-1.4-0.5
		s-0.4-0.7-0.4-1.3v-4.1H350v-1.3h1.3v-1.7l1.6-0.7V78.9L352.9,78.9z"/>
	<path class="st9" d="M357.3,78.9v4.4c0,0.6,0.1,1,0.4,1.3s0.6,0.4,1.2,0.4c0.4,0,0.7-0.2,1-0.4c0.3-0.3,0.6-0.7,0.7-1.2V79h1.6v7.2
		h-1.6v-0.9c-0.6,0.8-1.4,1.1-2.3,1.1c-1.7,0-2.6-1-2.6-2.9V79L357.3,78.9L357.3,78.9z"/>
	<path class="st9" d="M370.6,76v10.2h-1.5v-0.8c-0.5,0.6-1.2,1-2.2,1c-1.1,0-1.9-0.4-2.5-1.1s-0.8-1.6-0.8-2.7s0.3-1.9,0.8-2.6
		c0.6-0.8,1.4-1.1,2.5-1.1c0.8,0,1.6,0.4,2.2,1.2V76H370.6L370.6,76z M365.6,80.8c-0.3,0.4-0.4,1-0.4,1.8s0.1,1.4,0.4,1.8
		c0.3,0.5,0.8,0.8,1.6,0.8c0.6,0,1.1-0.3,1.4-0.7c0.3-0.4,0.4-1,0.4-1.7v-0.1c0-0.8-0.2-1.4-0.6-1.8c-0.3-0.4-0.8-0.6-1.3-0.6
		C366.5,80,365.9,80.3,365.6,80.8z"/>
	<path class="st9" d="M374.1,76.3c0.2,0.2,0.3,0.4,0.3,0.8c0,0.3-0.1,0.6-0.3,0.8s-0.5,0.3-0.8,0.3s-0.6-0.1-0.8-0.3
		c-0.2-0.2-0.3-0.5-0.3-0.8s0.1-0.6,0.3-0.8s0.5-0.3,0.8-0.3S373.9,76.1,374.1,76.3z M374.1,78.9v7.2h-1.6v-7.2H374.1z"/>
	<path class="st9" d="M382.1,79.8c0.7,0.7,1,1.6,1,2.7s-0.3,2-1,2.7s-1.6,1.1-2.7,1.1s-2-0.4-2.7-1.1s-1-1.6-1-2.7s0.3-2,1-2.7
		s1.5-1.1,2.6-1.1C380.5,78.8,381.4,79.1,382.1,79.8z M377.9,80.8c-0.3,0.4-0.5,1-0.5,1.7s0.2,1.3,0.5,1.7c0.4,0.5,0.9,0.8,1.5,0.8
		c0.7,0,1.2-0.3,1.5-0.8s0.5-1,0.5-1.7s-0.2-1.3-0.5-1.7c-0.4-0.5-0.9-0.8-1.5-0.8C378.8,80.1,378.3,80.3,377.9,80.8z"/>
</g>
<g class="st8">
	<path class="st9" d="M300,157c0.7,0.5,1.1,1.3,1.2,2.4h-1.6c-0.1-0.6-0.4-1.1-0.8-1.3c-0.4-0.3-0.9-0.4-1.7-0.4
		c-0.6,0-1.1,0.1-1.4,0.3c-0.4,0.2-0.6,0.6-0.6,1s0.2,0.8,0.7,1c0.2,0.1,0.8,0.3,1.7,0.6c1.4,0.4,2.2,0.8,2.6,1
		c0.9,0.5,1.3,1.2,1.3,2.2c0,0.9-0.4,1.6-1.1,2.1s-1.7,0.8-3,0.8c-1.2,0-2.2-0.2-2.9-0.7c-0.8-0.6-1.3-1.5-1.4-2.8h1.6
		c0.1,0.8,0.4,1.3,0.8,1.6s1,0.4,1.8,0.4c0.7,0,1.3-0.1,1.7-0.4c0.4-0.3,0.6-0.6,0.6-1c0-0.5-0.3-1-0.9-1.3
		c-0.2-0.1-0.8-0.3-1.9-0.7c-1.2-0.4-2-0.7-2.3-0.8c-0.8-0.5-1.1-1.1-1.1-2s0.4-1.6,1.1-2.1s1.6-0.7,2.7-0.7
		C298.4,156.3,299.4,156.5,300,157z"/>
	<path class="st9" d="M308.9,160.2c0.6,0.7,0.8,1.6,0.8,2.7c0,1.1-0.3,1.9-0.8,2.6c-0.6,0.8-1.4,1.1-2.5,1.1c-0.8,0-1.6-0.4-2.2-1.2
		v3.8h-1.6v-10h1.5v0.8c0.5-0.6,1.2-1,2.2-1C307.4,159,308.3,159.4,308.9,160.2z M304.7,161c-0.3,0.4-0.4,1-0.4,1.7v0.1
		c0,0.8,0.2,1.4,0.6,1.8c0.3,0.4,0.8,0.6,1.3,0.6c0.7,0,1.2-0.2,1.6-0.7c0.3-0.4,0.4-1,0.4-1.8s-0.1-1.4-0.4-1.8
		c-0.3-0.5-0.9-0.8-1.6-0.8C305.5,160.3,305,160.5,304.7,161z"/>
	<path class="st9" d="M316.8,159.8c0.4,0.5,0.7,1.1,0.7,2v4.6H316v-1c-0.3,0.4-0.6,0.6-1,0.8c-0.5,0.2-1,0.3-1.6,0.3
		c-0.8,0-1.3-0.2-1.8-0.6c-0.4-0.4-0.7-0.9-0.7-1.5c0-0.8,0.3-1.4,1-1.9c0.6-0.4,1.4-0.6,2.5-0.7h1.6v-0.3c0-1-0.5-1.4-1.6-1.4
		c-0.4,0-0.8,0.1-1.1,0.2c-0.3,0.2-0.5,0.5-0.6,0.8l-1.6-0.1c0.2-0.8,0.5-1.4,1.2-1.8c0.5-0.3,1.3-0.5,2.2-0.5
		C315.5,159,316.3,159.3,316.8,159.8z M314.4,163.2c-1.3,0-1.9,0.5-1.9,1.3c0,0.3,0.1,0.5,0.3,0.6s0.5,0.3,0.9,0.3
		c0.6,0,1.1-0.2,1.6-0.5c0.4-0.4,0.6-0.8,0.6-1.4v-0.4L314.4,163.2z"/>
	<path class="st9" d="M323.5,159.2v1.6c-0.4-0.1-0.7-0.2-1-0.2c-0.4,0-0.8,0.2-1.1,0.5c-0.4,0.4-0.6,0.9-0.6,1.5v3.8h-1.6v-7.2h1.6
		v1c0.2-0.4,0.4-0.6,0.7-0.8c0.3-0.3,0.7-0.4,1.1-0.4C322.9,159,323.2,159.1,323.5,159.2z"/>
	<path class="st9" d="M326,156.3v5.8l3-2.9h2.1l-3.2,3l3.5,4.2h-2l-2.5-3.2l-0.7,0.7v2.5h-1.6v-10.2L326,156.3L326,156.3z"/>
	<path class="st9" d="M333.8,156.3v10.2h-1.6v-10.2H333.8z"/>
	<path class="st9" d="M337.5,156.6c0.2,0.2,0.3,0.4,0.3,0.8c0,0.3-0.1,0.6-0.3,0.8s-0.5,0.3-0.8,0.3s-0.6-0.1-0.8-0.3
		c-0.2-0.2-0.3-0.5-0.3-0.8s0.1-0.6,0.3-0.8s0.5-0.3,0.8-0.3C337.1,156.3,337.3,156.4,337.5,156.6z M337.5,159.2v7.2h-1.6v-7.2
		H337.5z"/>
	<path class="st9" d="M346,162v4.5h-1.6v-4.3c0-1.2-0.5-1.8-1.6-1.8c-0.4,0-0.7,0.1-1,0.4c-0.3,0.3-0.5,0.8-0.6,1.3v4.4h-1.6v-7.2
		h1.6v0.8c0.3-0.3,0.6-0.6,1-0.8s0.8-0.3,1.2-0.3C345.1,159,346,160,346,162z"/>
	<path class="st9" d="M352.8,160.1v-0.9h1.6v6.8c0,2.3-1.1,3.4-3.4,3.4c-1,0-1.8-0.2-2.3-0.6c-0.5-0.4-0.9-1-1-1.8h1.6
		c0.1,0.4,0.3,0.7,0.5,0.9c0.3,0.2,0.7,0.2,1.2,0.2c1.2,0,1.8-0.6,1.8-1.9v-1.1c-0.5,0.7-1.2,1.1-2.1,1.1c-1,0-1.8-0.3-2.4-1
		s-0.9-1.5-0.9-2.6s0.3-2,0.9-2.6c0.6-0.7,1.4-1,2.4-1C351.6,159,352.3,159.4,352.8,160.1z M349.5,160.9c-0.3,0.4-0.5,1-0.5,1.7
		s0.1,1.2,0.4,1.6c0.3,0.5,0.8,0.7,1.5,0.7c0.6,0,1.1-0.2,1.4-0.6c0.3-0.4,0.5-1,0.5-1.7s-0.2-1.3-0.5-1.7s-0.8-0.6-1.4-0.6
		C350.3,160.3,349.8,160.5,349.5,160.9z"/>
	<path class="st9" d="M364.5,156.5c1.6,0,2.8,0.4,3.7,1.3c0.8,0.8,1.2,2.1,1.2,3.7c0,1.6-0.4,2.8-1.2,3.7c-0.8,0.9-2.1,1.3-3.7,1.3
		h-3.7v-10H364.5z M362.5,165.1h1.7c1.2,0,2.2-0.3,2.7-0.9c0.6-0.6,0.8-1.5,0.8-2.7c0-1.3-0.3-2.2-0.8-2.7c-0.6-0.6-1.5-0.9-2.7-0.9
		h-1.7V165.1z"/>
	<path class="st9" d="M376.5,159.8c0.4,0.5,0.7,1.1,0.7,2v4.6h-1.5v-1c-0.3,0.4-0.6,0.6-1,0.8c-0.5,0.2-1,0.3-1.6,0.3
		c-0.8,0-1.3-0.2-1.8-0.6c-0.4-0.4-0.7-0.9-0.7-1.5c0-0.8,0.3-1.4,1-1.9c0.6-0.4,1.4-0.6,2.5-0.7h1.6v-0.3c0-1-0.5-1.4-1.6-1.4
		c-0.4,0-0.8,0.1-1.1,0.2c-0.3,0.2-0.5,0.5-0.6,0.8l-1.6-0.1c0.2-0.8,0.5-1.4,1.2-1.8c0.5-0.3,1.3-0.5,2.2-0.5
		C375.2,159,376,159.3,376.5,159.8z M374.1,163.2c-1.3,0-1.9,0.5-1.9,1.3c0,0.3,0.1,0.5,0.3,0.6s0.5,0.3,0.9,0.3
		c0.6,0,1.1-0.2,1.6-0.5c0.4-0.4,0.6-0.8,0.6-1.4v-0.4L374.1,163.2z"/>
	<path class="st9" d="M381.1,159.2h1.6v1.3h-1.6v4.1c0,0.2,0,0.3,0.1,0.4c0.1,0.1,0.2,0.1,0.4,0.1h1v1.3h-1.2
		c-0.6,0-1.1-0.2-1.4-0.5s-0.4-0.7-0.4-1.3v-4.1h-1.3v-1.3h1.3v-1.7l1.6-0.7L381.1,159.2L381.1,159.2z"/>
	<path class="st9" d="M389.6,159.8c0.4,0.5,0.7,1.1,0.7,2v4.6h-1.5v-1c-0.3,0.4-0.6,0.6-1,0.8c-0.5,0.2-1,0.3-1.6,0.3
		c-0.8,0-1.3-0.2-1.8-0.6c-0.4-0.4-0.7-0.9-0.7-1.5c0-0.8,0.3-1.4,1-1.9c0.6-0.4,1.4-0.6,2.5-0.7h1.6v-0.3c0-1-0.5-1.4-1.6-1.4
		c-0.4,0-0.8,0.1-1.1,0.2c-0.3,0.2-0.5,0.5-0.6,0.8l-1.6-0.1c0.2-0.8,0.5-1.4,1.2-1.8c0.5-0.3,1.3-0.5,2.2-0.5
		C388.2,159,389,159.3,389.6,159.8z M387.2,163.2c-1.3,0-1.9,0.5-1.9,1.3c0,0.3,0.1,0.5,0.3,0.6s0.5,0.3,0.9,0.3
		c0.6,0,1.1-0.2,1.6-0.5c0.4-0.4,0.6-0.8,0.6-1.4v-0.4L387.2,163.2z"/>
</g>
<g class="st8">
	<path class="st9" d="M308.9,173.3l1.9,7.6h0.1l2-7.6h1.7l2,7.6h0.1l1.9-7.6h1.8l-2.9,10h-1.7l-1.9-7.5h-0.1l-2,7.5H310l-2.9-10
		H308.9z"/>
	<path class="st9" d="M326.9,176.6c0.4,0.5,0.7,1.1,0.7,2v4.6H326v-1c-0.3,0.4-0.6,0.6-1,0.8c-0.5,0.2-1,0.3-1.6,0.3
		c-0.8,0-1.3-0.2-1.8-0.6c-0.4-0.4-0.7-0.9-0.7-1.5c0-0.8,0.3-1.4,1-1.9c0.6-0.4,1.4-0.6,2.5-0.7h1.6v-0.3c0-1-0.5-1.4-1.6-1.4
		c-0.4,0-0.8,0.1-1.1,0.2c-0.3,0.2-0.5,0.5-0.6,0.8l-1.6-0.1c0.2-0.8,0.5-1.4,1.2-1.8c0.5-0.3,1.3-0.5,2.2-0.5
		C325.6,175.8,326.4,176.1,326.9,176.6z M324.5,180c-1.3,0-1.9,0.5-1.9,1.3c0,0.3,0.1,0.5,0.3,0.6s0.5,0.3,0.9,0.3
		c0.6,0,1.1-0.2,1.6-0.5c0.4-0.4,0.6-0.8,0.6-1.4V180H324.5z"/>
	<path class="st9" d="M333.5,176v1.6c-0.4-0.1-0.7-0.2-1-0.2c-0.4,0-0.8,0.2-1.1,0.5c-0.4,0.4-0.6,0.9-0.6,1.5v3.8h-1.6V176h1.6v1
		c0.2-0.4,0.4-0.6,0.7-0.8c0.3-0.3,0.7-0.4,1.1-0.4S333.3,175.9,333.5,176z"/>
	<path class="st9" d="M340.3,177c0.6,0.7,0.9,1.8,0.9,3.1h-5.4c0.1,0.7,0.2,1.2,0.5,1.5c0.3,0.4,0.8,0.5,1.3,0.5s0.9-0.1,1.2-0.3
		c0.2-0.2,0.4-0.5,0.6-0.9h1.6c-0.2,0.7-0.5,1.2-1,1.7c-0.6,0.5-1.4,0.8-2.4,0.8c-1.1,0-1.9-0.3-2.6-1s-1-1.6-1-2.8
		c0-1.1,0.3-2,1-2.7c0.6-0.7,1.5-1.1,2.5-1.1C338.7,175.8,339.6,176.2,340.3,177z M336.3,177.6c-0.3,0.3-0.5,0.7-0.6,1.3h3.7
		c-0.1-1.2-0.8-1.8-1.9-1.8C337,177.1,336.6,177.3,336.3,177.6z"/>
	<path class="st9" d="M344,173.1v3.9c0.3-0.4,0.6-0.7,1-0.9s0.8-0.3,1.2-0.3c0.9,0,1.5,0.3,2,0.8c0.4,0.5,0.6,1.2,0.6,2.2v4.5h-1.6
		v-4.2c0-0.6-0.1-1.1-0.4-1.4c-0.3-0.4-0.7-0.5-1.2-0.5s-0.9,0.2-1.2,0.6c-0.3,0.4-0.4,0.9-0.4,1.5v4h-1.6v-10.2L344,173.1
		L344,173.1z"/>
	<path class="st9" d="M356.5,176.9c0.7,0.7,1,1.6,1,2.7c0,1.1-0.3,2-1,2.7s-1.6,1.1-2.7,1.1s-2-0.4-2.7-1.1c-0.7-0.7-1-1.6-1-2.7
		c0-1.1,0.3-2,1-2.7s1.5-1.1,2.6-1.1C354.9,175.8,355.8,176.2,356.5,176.9z M352.3,177.9c-0.3,0.4-0.5,1-0.5,1.7s0.2,1.3,0.5,1.7
		c0.4,0.5,0.9,0.8,1.5,0.8c0.7,0,1.2-0.3,1.5-0.8s0.5-1,0.5-1.7s-0.2-1.3-0.5-1.7c-0.4-0.5-0.9-0.8-1.5-0.8
		C353.1,177.1,352.6,177.4,352.3,177.9z"/>
	<path class="st9" d="M360.5,176v4.4c0,0.6,0.1,1,0.4,1.3s0.6,0.4,1.2,0.4c0.4,0,0.7-0.2,1-0.4c0.3-0.3,0.6-0.7,0.7-1.2V176h1.6v7.2
		h-1.6v-0.9c-0.6,0.8-1.4,1.1-2.3,1.1c-1.7,0-2.6-1-2.6-2.9V176H360.5z"/>
	<path class="st9" d="M372.9,178.1h-1.6c-0.1-0.4-0.3-0.6-0.5-0.8s-0.6-0.2-1.1-0.2c-0.4,0-0.7,0.1-1,0.2c-0.3,0.1-0.4,0.3-0.4,0.6
		c0,0.2,0.2,0.4,0.6,0.6c0.2,0.1,0.7,0.2,1.4,0.4c0.8,0.2,1.4,0.4,1.8,0.7c0.6,0.4,0.9,0.9,0.9,1.5c0,1.5-1.1,2.3-3.3,2.3
		c-2,0-3.1-0.9-3.2-2.6h1.6c0.1,0.5,0.3,0.8,0.5,1s0.6,0.3,1.1,0.3c1.1,0,1.7-0.3,1.7-0.9c0-0.3-0.2-0.6-0.6-0.8
		c-0.2-0.1-0.7-0.2-1.4-0.4c-0.9-0.2-1.5-0.4-1.8-0.6c-0.6-0.4-0.8-0.8-0.8-1.5s0.3-1.2,0.8-1.6c0.5-0.4,1.3-0.6,2.2-0.6
		C371.6,175.8,372.7,176.6,372.9,178.1z"/>
	<path class="st9" d="M380.2,177c0.6,0.7,0.9,1.8,0.9,3.1h-5.4c0.1,0.7,0.2,1.2,0.5,1.5c0.3,0.4,0.8,0.5,1.3,0.5s0.9-0.1,1.2-0.3
		c0.2-0.2,0.4-0.5,0.6-0.9h1.6c-0.2,0.7-0.5,1.2-1,1.7c-0.6,0.5-1.4,0.8-2.4,0.8c-1.1,0-1.9-0.3-2.6-1s-1-1.6-1-2.8
		c0-1.1,0.3-2,1-2.7c0.6-0.7,1.5-1.1,2.5-1.1C378.6,175.8,379.5,176.2,380.2,177z M376.2,177.6c-0.3,0.3-0.5,0.7-0.6,1.3h3.7
		c-0.1-1.2-0.8-1.8-1.9-1.8C376.9,177.1,376.5,177.3,376.2,177.6z"/>
</g>
<g class="st8">
	<path class="st10" d="M320.8,31.9c-0.1,0.2-0.1,0.4-0.2,0.5h2.4v1c-0.2,0.7-0.6,1.3-1.1,1.8c0.5,0.2,0.9,0.4,1.4,0.7l-0.7,1
		c-0.5-0.3-1-0.6-1.7-0.9c-0.8,0.5-1.8,0.9-3,1.2l-0.6-1c0.9-0.2,1.6-0.4,2.2-0.7c-0.5-0.2-1-0.4-1.5-0.6c0.3-0.5,0.5-0.9,0.8-1.4
		h-1.2v-1.1h1.7c0.1-0.2,0.2-0.5,0.2-0.7L320.8,31.9z M320,28.4v-2.2h1.2v2.2h2v1.1h-2l0,0c0.6,0.3,1.3,0.5,1.9,0.9l-0.6,1
		c-0.5-0.4-0.9-0.7-1.3-0.9v1.3H320v-1.9c-0.4,0.8-1,1.5-1.9,2.1l-0.6-1c0.8-0.4,1.4-0.9,1.7-1.5h-1.4v-1.1H320L320,28.4z
		 M319.6,27.8l-0.9,0.4c-0.2-0.6-0.5-1.1-0.8-1.5l1-0.3C319.2,26.8,319.4,27.3,319.6,27.8z M322,33.5h-1.8c-0.2,0.3-0.3,0.6-0.5,0.9
		c0.4,0.1,0.8,0.3,1.2,0.4C321.3,34.4,321.7,34,322,33.5z M323.2,26.8c-0.2,0.5-0.5,1-0.9,1.5l-0.9-0.4c0.4-0.5,0.7-1,0.9-1.5
		L323.2,26.8z M324.3,31.3c-0.2,0.4-0.4,0.8-0.6,1.1l-0.8-1c0.7-1.3,1.1-3.1,1.3-5.3l1.2,0.2c-0.1,0.5-0.1,1-0.2,1.5h3V29h-0.7
		c-0.1,1.9-0.4,3.6-1.1,4.9c0.6,1,1.3,1.7,2.1,2.3l-0.7,1c-0.7-0.6-1.4-1.3-2-2.2c-0.6,0.8-1.3,1.6-2.1,2.1l-0.6-1.1
		c0.9-0.6,1.6-1.3,2.1-2.2C325,33.2,324.6,32.3,324.3,31.3z M324.9,29.6c0.3,1.2,0.6,2.2,1,3.1c0.4-1.1,0.6-2.3,0.6-3.6H325
		C325,29.3,325,29.4,324.9,29.6z"/>
	<path class="st10" d="M330,37.2l-0.3-1.2c0.3,0,0.6,0.1,0.9,0.1s0.4-0.2,0.4-0.5v-2.4c-0.4,0.1-0.8,0.3-1.2,0.4l-0.3-1.2
		c0.5-0.1,1-0.3,1.5-0.4v-2.4h-1.3v-1.2h1.3v-2.1h1.2v2.1h1v1.2h-1v1.9c0.3-0.2,0.7-0.3,1-0.5v1.2c-0.3,0.2-0.7,0.3-1,0.5v3.2
		c0,0.8-0.4,1.2-1.2,1.2h-1V37.2z M333.4,37.3l-1-0.9c0.8-1.5,1.2-3.5,1.2-5.9v-4h6.6v3.2H338v1.1h2.4V32H338v1.2h1.9v4.1h-1.2v-0.5
		H336v0.5h-1v-4.1h1.9V32h-2C334.7,34,334.2,35.8,333.4,37.3z M334.9,29.7v0.8c0,0.1,0,0.2,0,0.3h2v-1.1
		C336.9,29.7,334.9,29.7,334.9,29.7z M334.9,27.7v0.9h4.1v-0.9H334.9z M338.8,35.7v-1.4h-2.7v1.4H338.8z"/>
	<path class="st10" d="M347.5,26.2c1.5,1.7,3.2,3,5.1,4l-0.6,1.1c-1.9-1-3.6-2.4-4.9-4c-1.2,1.5-2.9,2.9-5,4l-0.6-1.1
		c2.1-1.1,3.8-2.4,5.1-4H347.5z M345.1,31.5v3.8c0,0.4,0.2,0.7,0.6,0.7h3.2c0.7,0,1.1-0.1,1.3-0.3c0.2-0.2,0.3-0.7,0.4-1.5l1.2,0.4
		c-0.1,1.2-0.4,2-0.7,2.2c-0.3,0.2-0.9,0.3-1.8,0.3h-4.2c-0.9,0-1.3-0.5-1.3-1.4v-5.4h6.2v2.9c0,0.8-0.4,1.3-1.1,1.3
		c-0.6,0-1.2,0-1.7,0l-0.3-1.2c0.6,0,1.1,0.1,1.5,0.1c0.3,0,0.4-0.2,0.4-0.6v-1.3H345.1z"/>
	<path class="st10" d="M360.2,27.1h4.2v1.2h-8.7v2.5c0,2.7-0.4,4.8-1.1,6.4l-1.1-0.9c0.6-1.3,0.9-3.1,0.9-5.5v-3.7h4.4
		c-0.2-0.3-0.3-0.6-0.5-0.8l1.4-0.2C359.8,26.4,360,26.7,360.2,27.1z M359.7,28.7c-0.1,0.2-0.2,0.5-0.2,0.7h4.5v1.1h-5
		c-0.3,0.6-0.6,1.2-0.9,1.7h1.7V31h1.2v1.3h2.6v1.1H361v1h3.4v1.1H361v1.8h-1.2v-1.8h-4.1v-1.1h4.1v-1h-3l-0.3-1.1
		c0.4-0.5,0.7-1.1,1.1-1.8h-1.5v-1.1h2c0.1-0.3,0.2-0.7,0.3-1L359.7,28.7z"/>
	<path class="st10" d="M376.6,29.7l-0.6,1.2c-0.8-0.3-1.5-0.6-2.1-0.9v0.3h-4.8v0.4h5.4v1h-5.4V32h5.4v1h-5.4v0.4h7.2v1.1H374
		c0.6,0.7,1.1,1.4,1.5,2.2l-1.1,0.5c-0.1-0.3-0.3-0.6-0.4-0.8c-2.1,0.3-4.4,0.5-6.7,0.6l-0.3-1c0.5,0,1.1-0.6,1.7-1.6h-2.9v-1.1h2.1
		V30c-0.5,0.3-1.1,0.5-1.7,0.7l-0.6-1.1c1.4-0.4,2.5-1,3.4-1.6h-3v-1.1h4c0.2-0.3,0.4-0.6,0.5-0.9l1.2,0.1c-0.1,0.3-0.2,0.5-0.3,0.7
		h4.7v1.1h-2.8C374,28.8,375.1,29.3,376.6,29.7z M372.9,34.8l0.7-0.2h-3.5c-0.4,0.6-0.7,1.1-1.1,1.5c1.5-0.1,3-0.3,4.4-0.5
		C373.2,35.3,373.1,35,372.9,34.8z M371.8,28.2h-1.2c-0.3,0.3-0.6,0.7-1,1h3.3C372.4,28.8,372.1,28.5,371.8,28.2z"/>
	<path class="st10" d="M381.2,26.6c-0.3,0.9-0.7,1.8-1.2,2.6v8h-1.2V31c-0.3,0.4-0.6,0.8-1,1.1l-0.4-1.3c1.2-1.4,2.1-3,2.6-4.8
		L381.2,26.6z M383.2,27.1c-0.1,0.5-0.2,1-0.3,1.5h1.3v-2.4h1.3v2.4h2.6v1.2h-2.6v2.5h3.1v1.2h-3.1v3.8h-1.3v-3.8h-3.3v-1.2h3.3
		v-2.5h-1.7c-0.3,0.7-0.7,1.4-1.1,2l-0.8-1c0.7-1,1.2-2.3,1.4-3.8L383.2,27.1z"/>
</g>
<g>
	<g>
		<g>
			<path id="SVGID_1_" class="st10" d="M265.1,33.3c0-0.1-0.1-0.3-0.1-0.6h0.8c0,0.1,0,0.1,0,0.2c0.3,1.2,1.1,1.8,2.2,1.8
				c0.4,0,0.8-0.1,1.2-0.3c0.9-0.6,0.9-1.7,0.2-2.4c-0.4-0.4-0.9-0.6-1.5-0.7c-0.5-0.2-1-0.3-1.5-0.6c-1.5-0.8-1.6-2.4-0.3-3.4
				c1.4-1.1,3.5-0.6,4.2,1c0,0.1,0.1,0.2,0.1,0.4h-0.9c-0.1-0.2-0.2-0.3-0.2-0.4c-0.7-1.1-2.5-1-3.1,0.1c-0.3,0.5-0.2,1.1,0.3,1.5
				c0.5,0.3,1.1,0.5,1.6,0.7s1,0.3,1.4,0.6c0.8,0.5,1.2,1.2,1.1,2.1c0,0.9-0.5,1.6-1.3,2c-0.5,0.2-1,0.3-1.5,0.3
				C266.6,35.5,265.4,34.6,265.1,33.3L265.1,33.3z M272.2,38.4h-0.9v-6.3c0-0.5,0.1-0.9,0.3-1.3c0.2-0.4,0.4-0.8,0.7-1.1
				c0.3-0.3,0.6-0.5,1-0.7s0.8-0.3,1.3-0.3c0.4,0,0.9,0.1,1.3,0.3c0.4,0.2,0.7,0.4,1,0.7s0.5,0.7,0.7,1.1s0.3,0.8,0.3,1.3
				s-0.1,0.9-0.3,1.3c-0.2,0.4-0.4,0.8-0.7,1.1c-0.3,0.3-0.6,0.5-1,0.7s-0.8,0.3-1.3,0.3s-1-0.1-1.5-0.4c-0.3-0.2-0.6-0.4-0.8-0.6
				L272.2,38.4L272.2,38.4z M274.5,29.6c-0.3,0-0.7,0.1-1,0.2s-0.6,0.3-0.8,0.5c-0.2,0.2-0.4,0.5-0.5,0.8s-0.2,0.6-0.2,1
				c0,0.4,0.1,0.7,0.2,1s0.3,0.6,0.5,0.8s0.5,0.4,0.8,0.5s0.6,0.2,1,0.2c0.3,0,0.7-0.1,1-0.2c0.3-0.1,0.6-0.3,0.8-0.5
				s0.4-0.5,0.5-0.8s0.2-0.6,0.2-1c0-0.4-0.1-0.7-0.2-1s-0.3-0.6-0.5-0.8c-0.2-0.2-0.5-0.4-0.8-0.5
				C275.2,29.6,274.9,29.6,274.5,29.6L274.5,29.6z M283,35.1c-0.5,0.2-0.9,0.4-1.5,0.4c-0.4,0-0.9-0.1-1.3-0.3s-0.7-0.4-1-0.7
				s-0.5-0.7-0.7-1.1c-0.2-0.4-0.3-0.8-0.3-1.3s0.1-0.9,0.3-1.3c0.2-0.4,0.4-0.8,0.7-1.1c0.3-0.3,0.6-0.5,1-0.7s0.8-0.3,1.3-0.3
				c0.4,0,0.9,0.1,1.3,0.3c0.4,0.2,0.7,0.4,1,0.7s0.5,0.7,0.7,1.1s0.3,0.8,0.3,1.3v3.2h-0.9v-0.9C283.6,34.7,283.3,34.9,283,35.1
				L283,35.1z M281.5,29.5c-0.3,0-0.7,0.1-1,0.2s-0.6,0.3-0.8,0.5s-0.4,0.5-0.5,0.8s-0.2,0.6-0.2,1c0,0.3,0.1,0.7,0.2,1
				s0.3,0.6,0.5,0.8s0.5,0.4,0.8,0.5s0.6,0.2,1,0.2s0.7-0.1,1-0.2c0.3-0.1,0.6-0.3,0.8-0.5s0.4-0.5,0.5-0.8s0.2-0.6,0.2-1
				c0-0.4-0.1-0.7-0.2-1s-0.3-0.6-0.5-0.8c-0.2-0.2-0.5-0.4-0.8-0.5S281.9,29.5,281.5,29.5L281.5,29.5z M286.2,35.3h-0.9v-3.2
				c0-0.5,0.1-0.9,0.3-1.3c0.2-0.4,0.4-0.8,0.7-1.1c0.3-0.3,0.6-0.5,1-0.7s0.8-0.3,1.3-0.3h0.1v0.9h-0.1c-0.3,0-0.6,0.1-0.9,0.2
				s-0.5,0.3-0.7,0.5s-0.4,0.5-0.5,0.8s-0.2,0.6-0.2,0.9L286.2,35.3L286.2,35.3z M292.9,28.9h1.3l-3.1,3.2l3.1,3.2h-1.3l-2.7-2.8
				v2.8h-0.9v-9.5h0.9v5.9L292.9,28.9L292.9,28.9z M294.8,25.8h0.9v7.8c0,0.2,0.1,0.4,0.2,0.6s0.3,0.2,0.6,0.2h0.1v0.9h-0.1
				c-0.2,0-0.5,0-0.7-0.1s-0.4-0.2-0.5-0.4s-0.3-0.3-0.4-0.6c-0.1-0.2-0.1-0.4-0.1-0.7V25.8L294.8,25.8z M297.5,28.9h0.9v6.4h-0.9
				V28.9L297.5,28.9z M297.5,25.8h0.9v1.3h-0.9V25.8L297.5,25.8z M302.6,28.8c0.4,0,0.9,0.1,1.3,0.3c0.4,0.2,0.7,0.4,1,0.7
				s0.5,0.7,0.7,1.1s0.3,0.8,0.3,1.3v3.2H305v-3.2c0-0.3-0.1-0.6-0.2-0.9s-0.3-0.6-0.5-0.8c-0.2-0.2-0.5-0.4-0.7-0.5
				c-0.3-0.1-0.6-0.2-0.9-0.2s-0.6,0.1-0.9,0.2s-0.5,0.3-0.7,0.5s-0.4,0.5-0.5,0.8s-0.2,0.6-0.2,0.9v3.2h-0.9v-3.2
				c0-0.5,0.1-0.9,0.3-1.3c0.2-0.4,0.4-0.8,0.7-1.1c0.3-0.3,0.6-0.5,1-0.7C301.7,28.8,302.1,28.8,302.6,28.8L302.6,28.8z
				 M311.9,30.5v-1.6h0.9v5.2c0,0.6,0.3,5.1-3.4,5.1v-0.9c2,0,2.5-1.9,2.5-4v-1c0.2-0.6,0.3-1,0.3-1.3
				C312.2,31.8,312.1,31.3,311.9,30.5L311.9,30.5z"/>
		</g>
		<g>
			<g>
				<defs>
					<path id="SVGID_2_" d="M265.1,33.3c0-0.1-0.1-0.3-0.1-0.6h0.8c0,0.1,0,0.1,0,0.2c0.3,1.2,1.1,1.8,2.2,1.8
						c0.4,0,0.8-0.1,1.2-0.3c0.9-0.6,0.9-1.7,0.2-2.4c-0.4-0.4-0.9-0.6-1.5-0.7c-0.5-0.2-1-0.3-1.5-0.6c-1.5-0.8-1.6-2.4-0.3-3.4
						c1.4-1.1,3.5-0.6,4.2,1c0,0.1,0.1,0.2,0.1,0.4h-0.9c-0.1-0.2-0.2-0.3-0.2-0.4c-0.7-1.1-2.5-1-3.1,0.1c-0.3,0.5-0.2,1.1,0.3,1.5
						c0.5,0.3,1.1,0.5,1.6,0.7s1,0.3,1.4,0.6c0.8,0.5,1.2,1.2,1.1,2.1c0,0.9-0.5,1.6-1.3,2c-0.5,0.2-1,0.3-1.5,0.3
						C266.6,35.5,265.4,34.6,265.1,33.3L265.1,33.3z M272.2,38.4h-0.9v-6.3c0-0.5,0.1-0.9,0.3-1.3c0.2-0.4,0.4-0.8,0.7-1.1
						c0.3-0.3,0.6-0.5,1-0.7s0.8-0.3,1.3-0.3c0.4,0,0.9,0.1,1.3,0.3c0.4,0.2,0.7,0.4,1,0.7s0.5,0.7,0.7,1.1s0.3,0.8,0.3,1.3
						s-0.1,0.9-0.3,1.3c-0.2,0.4-0.4,0.8-0.7,1.1c-0.3,0.3-0.6,0.5-1,0.7s-0.8,0.3-1.3,0.3s-1-0.1-1.5-0.4c-0.3-0.2-0.6-0.4-0.8-0.6
						L272.2,38.4L272.2,38.4z M274.5,29.6c-0.3,0-0.7,0.1-1,0.2s-0.6,0.3-0.8,0.5c-0.2,0.2-0.4,0.5-0.5,0.8s-0.2,0.6-0.2,1
						c0,0.4,0.1,0.7,0.2,1s0.3,0.6,0.5,0.8s0.5,0.4,0.8,0.5s0.6,0.2,1,0.2c0.3,0,0.7-0.1,1-0.2c0.3-0.1,0.6-0.3,0.8-0.5
						s0.4-0.5,0.5-0.8s0.2-0.6,0.2-1c0-0.4-0.1-0.7-0.2-1s-0.3-0.6-0.5-0.8c-0.2-0.2-0.5-0.4-0.8-0.5
						C275.2,29.6,274.9,29.6,274.5,29.6L274.5,29.6z M283,35.1c-0.5,0.2-0.9,0.4-1.5,0.4c-0.4,0-0.9-0.1-1.3-0.3s-0.7-0.4-1-0.7
						s-0.5-0.7-0.7-1.1c-0.2-0.4-0.3-0.8-0.3-1.3s0.1-0.9,0.3-1.3c0.2-0.4,0.4-0.8,0.7-1.1c0.3-0.3,0.6-0.5,1-0.7s0.8-0.3,1.3-0.3
						c0.4,0,0.9,0.1,1.3,0.3c0.4,0.2,0.7,0.4,1,0.7s0.5,0.7,0.7,1.1s0.3,0.8,0.3,1.3v3.2h-0.9v-0.9C283.6,34.7,283.3,34.9,283,35.1
						L283,35.1z M281.5,29.5c-0.3,0-0.7,0.1-1,0.2s-0.6,0.3-0.8,0.5s-0.4,0.5-0.5,0.8s-0.2,0.6-0.2,1c0,0.3,0.1,0.7,0.2,1
						s0.3,0.6,0.5,0.8s0.5,0.4,0.8,0.5s0.6,0.2,1,0.2s0.7-0.1,1-0.2c0.3-0.1,0.6-0.3,0.8-0.5s0.4-0.5,0.5-0.8s0.2-0.6,0.2-1
						c0-0.4-0.1-0.7-0.2-1s-0.3-0.6-0.5-0.8c-0.2-0.2-0.5-0.4-0.8-0.5S281.9,29.5,281.5,29.5L281.5,29.5z M286.2,35.3h-0.9v-3.2
						c0-0.5,0.1-0.9,0.3-1.3c0.2-0.4,0.4-0.8,0.7-1.1c0.3-0.3,0.6-0.5,1-0.7s0.8-0.3,1.3-0.3h0.1v0.9h-0.1c-0.3,0-0.6,0.1-0.9,0.2
						s-0.5,0.3-0.7,0.5s-0.4,0.5-0.5,0.8s-0.2,0.6-0.2,0.9L286.2,35.3L286.2,35.3z M292.9,28.9h1.3l-3.1,3.2l3.1,3.2h-1.3l-2.7-2.8
						v2.8h-0.9v-9.5h0.9v5.9L292.9,28.9L292.9,28.9z M294.8,25.8h0.9v7.8c0,0.2,0.1,0.4,0.2,0.6s0.3,0.2,0.6,0.2h0.1v0.9h-0.1
						c-0.2,0-0.5,0-0.7-0.1s-0.4-0.2-0.5-0.4s-0.3-0.3-0.4-0.6c-0.1-0.2-0.1-0.4-0.1-0.7V25.8L294.8,25.8z M297.5,28.9h0.9v6.4h-0.9
						V28.9L297.5,28.9z M297.5,25.8h0.9v1.3h-0.9V25.8L297.5,25.8z M302.6,28.8c0.4,0,0.9,0.1,1.3,0.3c0.4,0.2,0.7,0.4,1,0.7
						s0.5,0.7,0.7,1.1s0.3,0.8,0.3,1.3v3.2H305v-3.2c0-0.3-0.1-0.6-0.2-0.9s-0.3-0.6-0.5-0.8c-0.2-0.2-0.5-0.4-0.7-0.5
						c-0.3-0.1-0.6-0.2-0.9-0.2s-0.6,0.1-0.9,0.2s-0.5,0.3-0.7,0.5s-0.4,0.5-0.5,0.8s-0.2,0.6-0.2,0.9v3.2h-0.9v-3.2
						c0-0.5,0.1-0.9,0.3-1.3c0.2-0.4,0.4-0.8,0.7-1.1c0.3-0.3,0.6-0.5,1-0.7C301.7,28.8,302.1,28.8,302.6,28.8L302.6,28.8z
						 M311.9,30.5v-1.6h0.9v5.2c0,0.6,0.3,5.1-3.4,5.1v-0.9c2,0,2.5-1.9,2.5-4v-1c0.2-0.6,0.3-1,0.3-1.3
						C312.2,31.8,312.1,31.3,311.9,30.5L311.9,30.5z"/>
				</defs>
				<clipPath id="SVGID_4_">
					<use xlink:href="#SVGID_2_"  style="overflow:visible;"/>
				</clipPath>
				<rect x="264.3" y="25.1" class="st11" width="49.3" height="14.9"/>
			</g>
		</g>
	</g>
	<g>
		<g>
			<path id="SVGID_3_" class="st10" d="M309.5,34.6c-1.4,0-2.5-1.1-2.5-2.5c0-1.4,1.1-2.5,2.5-2.5s2.5,1.1,2.5,2.5
				C311.9,33.4,310.8,34.6,309.5,34.6 M309.5,28.7c-1.8,0-3.2,1.5-3.2,3.3s1.4,3.3,3.2,3.3s3.2-1.5,3.2-3.3S311.3,28.7,309.5,28.7"
				/>
		</g>
		<g>
			<g>
				<defs>
					<path id="SVGID_6_" d="M309.5,34.6c-1.4,0-2.5-1.1-2.5-2.5c0-1.4,1.1-2.5,2.5-2.5s2.5,1.1,2.5,2.5
						C311.9,33.4,310.8,34.6,309.5,34.6 M309.5,28.7c-1.8,0-3.2,1.5-3.2,3.3s1.4,3.3,3.2,3.3s3.2-1.5,3.2-3.3S311.3,28.7,309.5,28.7
						"/>
				</defs>
				<clipPath id="SVGID_8_">
					<use xlink:href="#SVGID_6_"  style="overflow:visible;"/>
				</clipPath>
				<rect x="305.5" y="28" class="st12" width="7.9" height="8.1"/>
			</g>
		</g>
	</g>
	<g>
		<g>
			<path id="SVGID_5_" class="st10" d="M259.8,24L259.8,24l0.5-0.9l0.9,0.5l0,0l0,0l0,0l0,0c1.2,5.6,1.8,8.6,1.9,9.1
				C263,32.7,262,29.8,259.8,24L259.8,24L259.8,24z M260.1,23.9l0.6,0.3l0.3-0.6l-0.6-0.3L260.1,23.9L260.1,23.9z"/>
		</g>
		<g>
			<g>
				<defs>
					<path id="SVGID_10_" d="M259.8,24L259.8,24l0.5-0.9l0.9,0.5l0,0l0,0l0,0l0,0c1.2,5.6,1.8,8.6,1.9,9.1
						C263,32.7,262,29.8,259.8,24L259.8,24L259.8,24z M260.1,23.9l0.6,0.3l0.3-0.6l-0.6-0.3L260.1,23.9L260.1,23.9z"/>
				</defs>
				<clipPath id="SVGID_12_">
					<use xlink:href="#SVGID_10_"  style="overflow:visible;"/>
				</clipPath>
				<rect x="259.1" y="22.4" class="st13" width="4.7" height="11.1"/>
			</g>
		</g>
	</g>
	<g>
		<g>
			<path id="SVGID_7_" class="st10" d="M254.5,26.9L254.5,26.9l-0.1-0.7l0.7-0.1l0,0l0,0l0,0l0,0c4.9,4.2,7.5,6.4,7.8,6.8
				C262.9,32.9,260.1,30.9,254.5,26.9L254.5,26.9L254.5,26.9z M254.6,26.7h0.5v-0.5h-0.5V26.7L254.6,26.7z"/>
		</g>
	</g>
	<g>
		<g>
			<path id="SVGID_9_" class="st10" d="M250.2,30.7L250.2,30.7l-0.5-0.8l0.9-0.5l0,0l0,0l0,0l0,0c7.8,2.4,11.9,3.7,12.4,3.9
				C263,33.2,258.7,32.4,250.2,30.7L250.2,30.7L250.2,30.7z M250.3,30.4l0.6-0.3l-0.3-0.5l-0.6,0.3L250.3,30.4L250.3,30.4z"/>
		</g>
	</g>
	<g>
		<g>
			<path id="SVGID_11_" class="st10" d="M251.9,33.2L251.9,33.2l-0.6-0.6L252,32l0,0l0,0l0,0l0,0c6.4,0.8,9.8,1.2,10.2,1.3
				C262.3,33.3,258.8,33.3,251.9,33.2L251.9,33.2L251.9,33.2z M252,32.9l0.4-0.4l-0.3-0.4l-0.4,0.4L252,32.9L252,32.9z"/>
		</g>
	</g>
	<g>
		<g>
			<path id="SVGID_13_" class="st10" d="M258.6,36.3L258.6,36.3l-1.1-0.4l0.4-1.1l0,0l0,0l0,0l0,0c3-0.9,4.7-1.3,5.2-1.5
				C263.2,33.4,261.7,34.4,258.6,36.3L258.6,36.3L258.6,36.3z M258.5,36.1l0.3-0.7l-0.7-0.3l-0.3,0.7L258.5,36.1L258.5,36.1z"/>
		</g>
	</g>
</g>
<g class="st8">
	<path class="st9" d="M43.8,166.4c1.5,0,2.6,0.4,3.3,1.2c0.7,0.8,1.1,1.9,1.1,3.3c0,1.4-0.4,2.5-1.1,3.3c-0.8,0.8-1.9,1.2-3.3,1.2
		h-3.3v-9H43.8z M42,174.2h1.5c1.1,0,1.9-0.3,2.5-0.8c0.5-0.5,0.8-1.4,0.8-2.5c0-1.1-0.3-2-0.8-2.5c-0.5-0.5-1.3-0.8-2.5-0.8H42
		V174.2z"/>
	<path class="st9" d="M51.4,166.4l3.1,7.1h0.1l3.1-7.1h1.7v9h-1.5v-6.2h-0.1l-2.7,6.2h-1.3l-2.7-6.2h-0.1v6.2h-1.5v-9H51.4z"/>
	<path class="st9" d="M64.8,166.4c2.2,0,3.3,0.9,3.3,2.8c0,1.9-1.1,2.8-3.3,2.8h-2.2v3.5H61v-9H64.8z M62.5,170.7h2.1
		c0.7,0,1.1-0.1,1.4-0.4c0.3-0.2,0.5-0.6,0.5-1.2s-0.2-0.9-0.5-1.1c-0.3-0.2-0.8-0.4-1.4-0.4h-2.1V170.7z"/>
	<path class="st9" d="M72.4,171.1c-0.1,0.2-0.1,0.4-0.2,0.6h2.5v1.1c-0.2,0.7-0.6,1.4-1.1,1.9c0.5,0.2,1,0.4,1.4,0.7l-0.7,1
		c-0.5-0.3-1.1-0.6-1.7-0.9c-0.8,0.5-1.9,0.9-3.1,1.3l-0.6-1.1c0.9-0.2,1.7-0.5,2.4-0.8c-0.5-0.2-1-0.4-1.6-0.6
		c0.3-0.5,0.6-1,0.8-1.5h-1.3v-1.1h1.8c0.1-0.3,0.2-0.5,0.3-0.7L72.4,171.1z M71.6,167.4v-2.3h1.2v2.3h2.1v1.1h-2.1v0
		c0.7,0.3,1.3,0.6,2,0.9l-0.7,1c-0.5-0.4-1-0.7-1.3-1v1.3h-1.2v-2c-0.4,0.9-1.1,1.6-2,2.3l-0.7-1.1c0.8-0.5,1.4-1,1.8-1.5h-1.5v-1.1
		H71.6z M71.1,166.8l-0.9,0.4c-0.3-0.6-0.5-1.1-0.8-1.6l1-0.3C70.7,165.7,70.9,166.2,71.1,166.8z M73.6,172.8h-1.9
		c-0.2,0.3-0.3,0.6-0.5,0.9c0.4,0.1,0.8,0.3,1.2,0.4C73,173.7,73.3,173.3,73.6,172.8z M74.9,165.7c-0.3,0.5-0.6,1-1,1.6l-0.9-0.5
		c0.4-0.5,0.7-1,1-1.5L74.9,165.7z M76.1,170.5c-0.2,0.4-0.4,0.8-0.6,1.2l-0.8-1c0.7-1.4,1.2-3.2,1.4-5.6l1.3,0.2
		c-0.1,0.6-0.2,1.1-0.2,1.6h3.2v1.3h-0.7c-0.1,2-0.4,3.8-1.1,5.2c0.6,1,1.3,1.8,2.2,2.4l-0.7,1.1c-0.8-0.6-1.5-1.3-2.1-2.3
		c-0.6,0.9-1.3,1.6-2.2,2.3l-0.7-1.1c0.9-0.6,1.6-1.4,2.2-2.4C76.8,172.5,76.4,171.5,76.1,170.5z M76.7,168.6c0.3,1.2,0.6,2.3,1,3.3
		c0.4-1.1,0.6-2.4,0.6-3.8h-1.5C76.8,168.3,76.8,168.5,76.7,168.6z"/>
	<path class="st9" d="M82.1,176.6l-0.3-1.2c0.3,0.1,0.6,0.1,0.9,0.1c0.3,0,0.4-0.2,0.4-0.5v-2.6c-0.4,0.2-0.8,0.3-1.3,0.4l-0.3-1.3
		c0.5-0.1,1.1-0.3,1.6-0.5v-2.5h-1.4v-1.3h1.4v-2.2h1.3v2.2h1.1v1.3h-1.1v2c0.4-0.2,0.7-0.3,1-0.5v1.3c-0.4,0.2-0.7,0.3-1,0.5v3.4
		c0,0.9-0.4,1.3-1.3,1.3H82.1z M85.7,176.8l-1-0.9c0.8-1.6,1.2-3.7,1.3-6.2v-4.2h6.9v3.3h-2.3v1.2h2.6v1.2h-2.6v1.2h2v4.3h-1.2v-0.5
		h-2.8v0.5h-1.2v-4.3h2v-1.2h-2.1C87,173.3,86.5,175.2,85.7,176.8z M87.2,168.8v0.8c0,0.1,0,0.2,0,0.3h2.1v-1.2H87.2z M87.2,166.7v1
		h4.4v-1H87.2z M91.3,175.1v-1.5h-2.8v1.5H91.3z"/>
</g>
<g class="st8">
	<path class="st9" d="M35.6,214h4.5v1.3h-9.2v2.6c0,2.8-0.4,5-1.2,6.7l-1.1-1c0.6-1.4,1-3.3,1-5.7V214h4.6c-0.2-0.4-0.4-0.8-0.6-1.1
		l1.5-0.3C35.3,213,35.5,213.5,35.6,214z"/>
	<path class="st9" d="M42.4,217.2l-0.8-1c1.1-0.9,1.9-2,2.2-3.3l1.3,0.2c-0.1,0.5-0.3,0.9-0.5,1.4h2v-1.6h1.3v1.6h4v1.3h-4v1.6h5
		v1.3H41.3v-1.3h5.3v-1.6h-2.7C43.4,216.2,42.9,216.8,42.4,217.2z M51.4,224.5h-1.3v-0.6h-5.9v0.6h-1.3v-4.9h8.6V224.5z M50.1,222.6
		v-1.8h-5.9v1.8H50.1z"/>
	<path class="st9" d="M61.7,224.2c-0.9,0-1.3-0.4-1.3-1.2v-1.6h-1.2c-0.3,0.8-0.7,1.5-1.1,1.9c-0.6,0.6-1.8,1-3.6,1.3l-0.5-1.2
		c1.5-0.2,2.5-0.5,3.1-0.9c0.3-0.2,0.6-0.6,0.8-1.1h-2.2v-3.6h8.2v3.6h-2.1v1.3c0,0.2,0.1,0.3,0.4,0.3h1.7c0.2,0,0.3-0.1,0.4-0.2
		c0.1-0.2,0.2-0.6,0.2-1.3l1.2,0.4c-0.1,1.1-0.3,1.8-0.5,2c-0.2,0.2-0.6,0.3-1,0.3H61.7z M54.8,214.8v-1.1h4.3
		c-0.1-0.3-0.3-0.5-0.4-0.8l1.5-0.2c0.1,0.3,0.2,0.6,0.4,1h4.1v1.1h-1.9l-0.5,1.1h3v1.1h-11v-1.1h3l-0.4-1.1H54.8z M62.5,218.9h-5.6
		v1.3h5.6V218.9z M60.9,215.9l0.5-1.1h-3.2l0.4,1.1H60.9z"/>
	<path class="st9" d="M66.9,219.1l-0.4-1.4c1.1-1.4,2-3.1,2.6-5l1.2,0.6c-0.3,0.8-0.6,1.6-0.9,2.3v8.8h-1.3v-6.6
		C67.6,218.3,67.2,218.7,66.9,219.1z M74.4,212.8c0.8,1.6,2.1,3,3.9,4.2l-0.7,1.1c-1.7-1.1-3-2.5-3.8-4.1c-0.9,1.8-2.1,3.2-3.6,4.2
		l-0.7-1.1c1.6-1.1,2.9-2.6,3.8-4.4H74.4z M72.8,217.3v1.9c0,2.5-0.6,4.3-1.8,5.4l-1-0.9c1-0.9,1.5-2.5,1.6-4.5v-1.9H72.8z
		 M76,217.3v7.1h-1.3v-7.1H76z"/>
	<path class="st9" d="M89.2,224.4h-1.3v-0.9h-5.6v0.9H81v-11.3h8.2V224.4z M87.9,217.6v-3.1h-5.6v3.1H87.9z M87.9,222.3v-3.4h-5.6
		v3.4H87.9z"/>
	<path class="st9" d="M94.2,219.9c-0.3,1.5-0.7,2.8-1.3,3.8l-1.1-0.7c0.5-1.1,0.9-2.2,1.1-3.4L94.2,219.9z M98.3,212.8v1.5h4.8v1.3
		h-4.8v1.5h4v1.3H93v-1.3h3.9v-1.5h-4.8v-1.3h4.8v-1.5H98.3z M96.2,224.2c-0.9,0-1.4-0.5-1.4-1.6v-3.4h1.3v3.1
		c0,0.4,0.2,0.6,0.5,0.6h2.6c0.2,0,0.4-0.1,0.5-0.3c0.1-0.2,0.2-0.7,0.3-1.6l1.3,0.4c-0.1,1.3-0.3,2.1-0.6,2.4
		c-0.3,0.2-0.7,0.4-1.2,0.4H96.2z M99.2,221.3l-1.2,0.5c-0.3-0.9-0.7-1.8-1.1-2.5l1.3-0.4C98.5,219.7,98.9,220.5,99.2,221.3z
		 M103.5,222.8l-1.2,0.5c-0.5-1.4-1-2.6-1.5-3.6l1.2-0.4C102.6,220.4,103.1,221.6,103.5,222.8z"/>
</g>
</svg>
