<?xml version="1.0" encoding="utf-8"?>
<!-- Generator: Adobe Illustrator 23.0.2, SVG Export Plug-In . SVG Version: 6.00 Build 0)  -->
<svg version="1.1" id="svgwrapper_svg" xmlns="http://www.w3.org/2000/svg" xmlns:xlink="http://www.w3.org/1999/xlink" x="0px"
	 y="0px" width="830px" height="480px" viewBox="0 0 830 480" style="enable-background:new 0 0 830 480;" xml:space="preserve">
<g id="Link24_6_" transform="translate(0,0)">
	<path style="fill:none;stroke:#888888;" d="M541,239h64"/>
</g>
<g id="Link24_7_" transform="translate(0,0)">
	<path style="fill:none;stroke:#888888;" d="M235,239h54"/>
</g>
<g>
	<g>
		<rect x="291" y="215.5" style="opacity:0.6;fill:#BBBBBB;enable-background:new    ;" width="250" height="50"/>
		<g>
			<rect x="289.5" y="214" style="fill:#FFFFFF;" width="249" height="49"/>
			<path style="fill:#E5E5E5;" d="M538,214.5v48H290v-48H538 M539,213.5H289v50h250V213.5L539,213.5z"/>
		</g>
	</g>
	<g id="maingroup_14_" transform="translate(0,0)">
		<g id="Rects1_17_" transform="translate(220,163)">
			<g transform="translate(20 9)">
				<g style="enable-background:new    ;">
					<path style="fill:#444444;" d="M152.9,60.6c-0.2,0.4-0.4,0.7-0.6,1h5.3v0.8c-0.8,1.1-1.8,2.1-3,3c1.5,0.8,3.4,1.4,5.5,1.8
						l-0.4,0.9c-2.3-0.4-4.3-1.1-5.9-2.1c-1.7,1-3.7,1.7-5.9,2.2l-0.4-0.9c2.1-0.3,3.9-1,5.5-1.8c-0.8-0.6-1.5-1.2-2.1-1.9
						c-0.6,0.6-1.3,1.2-2,1.7l-0.6-0.8c1.5-1,2.7-2.4,3.7-4L152.9,60.6z M157.7,73.3h-1v-0.7h-5.9v0.7h-1V68h7.9V73.3z M156.7,71.7
						V69h-5.9v2.7H156.7z M153.7,64.9c1-0.7,1.9-1.4,2.6-2.3h-4.7c-0.1,0.1-0.2,0.2-0.2,0.3C152,63.6,152.8,64.3,153.7,64.9z"/>
					<path style="fill:#444444;" d="M166.5,71.2c-0.9,0.9-2.4,1.6-4.6,2.1l-0.4-0.9c1.9-0.4,3.3-1,4.2-1.8c0.3-0.3,0.6-0.7,0.9-1.1
						h-4.8v-0.9h5.2c0.1-0.4,0.2-0.9,0.3-1.3h1c-0.1,0.5-0.2,0.9-0.3,1.3h5.7v0.9h-5.3c1.3,1.4,3.1,2.4,5.5,3l-0.5,0.9
						c-2.6-0.7-4.6-1.9-5.9-3.6C167.3,70.3,166.9,70.7,166.5,71.2z M168.3,66.7h-1v-2.5h-0.1c-0.8,1.3-2.4,2.4-4.8,3.3l-0.5-0.9
						c2.2-0.7,3.7-1.5,4.4-2.4h-4.4v-0.9h5.4v-2.8h1v2.8h5.4v0.9h-5.4v0.3c1.9,0.6,3.6,1.2,5.2,2l-0.5,0.8c-1.5-0.9-3.1-1.6-4.6-2.1
						V66.7z M165.4,62.6l-0.9,0.2c-0.3-0.6-0.6-1.3-1.1-1.9l0.9-0.3C164.7,61.2,165.1,61.9,165.4,62.6z M172,60.8
						c-0.3,0.8-0.7,1.4-1.2,2l-0.8-0.3c0.4-0.5,0.8-1.1,1.1-1.9L172,60.8z"/>
					<path style="fill:#444444;" d="M180,61.9l3.9,10h-1.2l-1.1-2.8H177l-1.1,2.8h-1.2l3.9-10H180z M181.3,68.1l-1.9-5h-0.1l-1.9,5
						H181.3z"/>
					<path style="fill:#444444;" d="M186.2,61.9v10H185v-10H186.2z"/>
					<path style="fill:#444444;" d="M198.9,63.6v5.5h-1.7v0.9h3.2V71h-3.2v2.4h-1V71h-4c-0.1,0.4-0.3,0.8-0.6,1.1
						c-0.5,0.5-1.3,1-2.3,1.3l-0.5-0.8c1-0.3,1.7-0.6,2.1-1c0.1-0.2,0.2-0.3,0.3-0.5h-3.2v-0.9h3.4c0-0.1,0-0.3,0-0.4v-0.5h-1.8
						v-5.5H198.9z M189,63.8l-0.8-0.5c0.9-0.9,1.5-1.9,1.8-2.9l1,0.2c-0.1,0.3-0.2,0.6-0.3,0.8h3.5v0.9h-1.8
						c0.2,0.3,0.4,0.6,0.6,0.9l-0.8,0.3c-0.2-0.4-0.5-0.8-0.8-1.2h-1.1C189.8,62.8,189.4,63.3,189,63.8z M198,65.2v-0.8h-7.2v0.8
						H198z M198,66.7V66h-7.2v0.8H198z M198,67.5h-7.2v0.9h7.2V67.5z M192.5,69.7c0,0.1,0,0.3,0,0.4h3.8v-0.9h-3.8V69.7z M195,63.5
						l-0.8-0.5c0.7-0.8,1.2-1.7,1.5-2.6l1,0.2l-0.3,0.8h4v0.9H198c0.3,0.3,0.4,0.6,0.6,0.9l-0.8,0.3c-0.2-0.4-0.5-0.8-0.8-1.2h-1.1
						C195.6,62.7,195.3,63.1,195,63.5z"/>
					<path style="fill:#444444;" d="M204.8,66l-0.7,0.7c-0.5-0.7-1.2-1.4-2.1-2.1l0.7-0.7C203.6,64.6,204.3,65.3,204.8,66z
						 M205.2,68.2c-0.6,1.8-1.3,3.4-2,5l-1-0.4c0.8-1.6,1.5-3.2,2.1-4.9L205.2,68.2z M205.3,62.8l-0.7,0.7c-0.6-0.7-1.3-1.4-2.3-2.1
						l0.7-0.7C204,61.4,204.7,62,205.3,62.8z M210.4,60.5v2.3h3.6v1h-3.6v2.6h4v1h-4.6c-0.9,2.1-1.7,3.7-2.4,4.5
						c1.7-0.2,3.4-0.4,5.2-0.8c-0.4-0.8-0.8-1.6-1.2-2.3l1-0.3c0.8,1.4,1.6,2.9,2.2,4.5l-1,0.4c-0.2-0.5-0.4-1-0.6-1.4
						c-2.1,0.4-4.4,0.7-6.9,1l-0.2-0.9c0.1,0,0.2-0.1,0.2-0.1c0.7-0.6,1.5-2.1,2.6-4.6h-3.3v-1h4v-2.6h-3.3v-1h3.3v-2.3H210.4z"/>
					<path style="fill:#444444;" d="M221.6,64.1c0.1-0.8,0.2-1.7,0.2-2.5v-1.1h1v0.9c0,1-0.1,1.9-0.2,2.8h5.8v1h-5.5
						c1,3.2,2.9,5.6,5.8,7.3l-0.6,0.8c-2.8-1.7-4.7-4.2-5.8-7.3c-0.9,3.4-2.8,5.9-5.8,7.4l-0.6-0.8c3-1.5,4.8-3.9,5.6-7.4h-5.3v-1
						H221.6z"/>
					<path style="fill:#444444;" d="M242.5,68.4l-0.4,0.9c-0.8-0.2-1.4-0.5-2-0.8v2.7h-1v-2.5h-5.6v2.5h-1v-2.8
						c-0.6,0.3-1.3,0.6-2.1,0.9l-0.5-0.8c1.5-0.4,2.7-0.9,3.4-1.5h-3v-0.8h3.8v-0.8h-1.8v-0.7h1.8v-0.8h-2.1v-0.8h2.1v-0.8h-2.6v1.4
						h-1v-2.3h5.2c-0.2-0.3-0.3-0.5-0.5-0.8l1.1-0.2c0.2,0.3,0.4,0.6,0.5,1h5.1v2.3h-1v-1.4h-2.6v0.8h2.1v0.8h-2.1v0.8h1.8v0.7h-1.8
						v0.8h3.8v0.8h-3.1C239.8,67.5,241,68,242.5,68.4z M236.6,69.2c-0.2,1.5-0.5,2.5-1.1,3c-0.6,0.6-2,1-4.2,1.2l-0.4-0.9
						c1.9-0.1,3.1-0.4,3.8-0.9c0.6-0.5,0.9-1.3,1-2.5L236.6,69.2z M238,66.9h-3.6c-0.3,0.3-0.7,0.6-1.1,0.9h5.8
						C238.7,67.5,238.3,67.2,238,66.9z M235.1,62.1v0.8h2.2v-0.8H235.1z M237.4,63.7h-2.2v0.8h2.2V63.7z M237.4,66.1v-0.8h-2.2v0.8
						H237.4z M241.4,72.6l-0.5,0.8c-1.4-0.7-2.8-1.3-4.2-1.7l0.5-0.7C238.7,71.4,240.1,72,241.4,72.6z"/>
				</g>
			</g>
		</g>
	</g>
</g>
<g>
	<path style="fill:#CEE3FF;" d="M15,38h227v403H15V38"/>
	<g id="maingroup_28_" transform="translate(0,0)">
		<g>
			<g id="Rects1_27_" transform="translate(220,163)">
				<g transform="translate(20 9)">
					<g style="enable-background:new    ;">
						<path style="fill:#00A4FF;" d="M-205.8-120h4.9v1h-2.4c-0.2,0.7-0.4,1.5-0.7,2.1h3.4v1h-10.1v2.1c-0.1,2.2-0.6,3.9-1.5,5.3
							l-0.8-0.7c0.8-1.1,1.2-2.6,1.3-4.6v-3h2.9l-0.6-2.1h-2.6v-1h5.1c-0.2-0.5-0.4-1-0.7-1.4l1.1-0.2
							C-206.2-121.2-206-120.6-205.8-120z M-205-116.9c0.3-0.7,0.5-1.4,0.7-2.1h-4.1l0.6,2.1H-205z"/>
						<path style="fill:#00A4FF;" d="M-193.3-108.8h-1v-0.7h-3v0.7h-1v-6.1h4.9V-108.8z M-194.3-110.5v-3.4h-3v3.4H-194.3z
							 M-188.6-120.9v4.6h-7.7v-4.6H-188.6z M-189.7-119.9h-5.7v2.7h5.7V-119.9z M-186.8-108.8h-1v-0.7h-3.1v0.7h-1v-6.1h5.1V-108.8
							z M-187.8-110.5v-3.4h-3.1v3.4H-187.8z"/>
						<path style="fill:#00A4FF;" d="M-184-115.5l-0.9-0.3c0.4-1.5,0.7-3,0.7-4.6l0.9,0.1c0,0.6-0.1,1.2-0.1,1.7h1.2v-2.9h1v2.9h1.3
							v1h-1.3v3.4c0.4-0.2,0.9-0.4,1.3-0.6v1c-0.4,0.2-0.9,0.4-1.3,0.5v4.6h-1v-4.3c-0.8,0.3-1.6,0.5-2.4,0.7l-0.2-1
							c0.9-0.2,1.8-0.4,2.6-0.7v-3.7h-1.3C-183.7-116.8-183.8-116.1-184-115.5z M-175.4-121.4v1.5h2.6v0.9h-2.6v1.6h3.2v1h-7.5v-1
							h3.2v-1.6h-2.5v-0.9h2.5v-1.5H-175.4z M-174.8-114.8v-0.9h1v0.9h1.5v1h-1.5v4c0,0.8-0.4,1.2-1.1,1.2h-1.8l-0.2-1
							c0.6,0,1.1,0.1,1.6,0.1c0.3,0,0.5-0.2,0.5-0.6v-3.7h-4.5v-1H-174.8z M-176.5-111.1l-0.8,0.6c-0.4-0.7-1-1.4-1.7-2.2l0.8-0.5
							C-177.5-112.4-176.9-111.7-176.5-111.1z"/>
						<path style="fill:#00A4FF;" d="M-169.7-118.7c0,1.4-0.2,2.7-0.5,4l-0.8-0.2c0.3-1.2,0.5-2.5,0.5-3.8L-169.7-118.7z
							 M-167.9-121.4v12.7h-1v-12.7H-167.9z M-166.1-116.7c0.5-1.2,0.8-2.5,0.8-3.9l0.9,0.1c0,0.6-0.1,1.1-0.2,1.7h2v-2.6h1v2.6h3.1
							v1h-3.1v3.4h2.8v1h-2.8v3.4h3.4v1h-8.5v-1h4v-3.4h-3.2v-1h3.2v-3.4h-2.2c-0.3,1-0.6,2-1.1,2.8l-0.7-0.7
							c0.2-0.3,0.3-0.6,0.4-0.9l-0.7,0.2c-0.2-0.9-0.5-1.7-0.8-2.5l0.7-0.2C-166.6-118.3-166.4-117.6-166.1-116.7z"/>
					</g>
				</g>
			</g>
		</g>
	</g>
	<g>
		<rect x="28.9" y="79" style="opacity:0.6;fill:#BBBBBB;enable-background:new    ;" width="201.1" height="103"/>
		<g>
			<rect x="27.4" y="77.5" style="fill:#FFFFFF;" width="200.1" height="102"/>
			<path style="fill:#E5E5E5;" d="M227.1,78v101H27.9V78H227.1 M228.1,77H26.9v103h201.1V77L228.1,77z"/>
		</g>
	</g>
	<g id="maingroup_23_" transform="translate(0,0)">
		<g id="Rects1_19_" transform="translate(220,163)">
			<g transform="translate(20 9)">
				<g style="enable-background:new    ;">
					<path style="fill:#444444;" d="M-156.3-75.2v1h-1.8v9.5c0,0.9-0.4,1.4-1.3,1.4h-2.3l-0.2-1c0.8,0,1.5,0.1,2.2,0.1
						c0.4,0,0.7-0.3,0.7-0.7v-9.3h-9.6v-1H-156.3z M-161.7-66.9h-4.4v1.2h-1v-6.4h5.4V-66.9z M-162.7-67.9v-3.3h-3.5v3.3H-162.7z"/>
					<path style="fill:#444444;" d="M-154.7-67.3l-0.3-1.1c1.9-1.6,3.1-3.2,3.7-4.7h-3.4v-1h2.2c-0.2-0.6-0.5-1.2-0.8-1.8l1-0.3
						c0.3,0.7,0.6,1.4,0.8,1.9l-0.4,0.2h1.7v0.9c-0.4,1-0.9,2-1.7,3c0.8,0.5,1.5,1,2.1,1.6l-0.6,0.9c-0.5-0.6-1-1-1.5-1.4v5.9h-1
						V-69C-153.4-68.5-154-67.9-154.7-67.3z M-145.8-73.5v2.7c-0.1,2.1-0.4,3.8-1.1,5c-0.7,1.2-1.7,2.1-3.2,2.7l-0.5-0.9
						c1.5-0.6,2.5-1.5,3.1-2.5c0.5-1.1,0.8-2.5,0.8-4.3v-2.7H-145.8z M-143.3-67.7h-1v-6.8h-3.9v6.8h-1v-7.7h5.9V-67.7z
						 M-144.9-63.4c-0.8,0-1.1-0.4-1.1-1.2v-3.1h1v2.9c0,0.3,0.2,0.5,0.5,0.5h0.9c0.2,0,0.3-0.1,0.4-0.2c0.1-0.2,0.2-0.7,0.2-1.6
						l0.9,0.3c-0.1,1.1-0.2,1.9-0.5,2.1c-0.2,0.2-0.5,0.3-1,0.3H-144.9z"/>
					<path style="fill:#444444;" d="M-135.9-75.7c-0.5,1.2-1.1,2.3-1.9,3.3v9.2h-1v-8c-0.6,0.7-1.3,1.3-2,2l-0.3-1.1
						c2-1.7,3.4-3.7,4.3-5.9L-135.9-75.7z M-133-63.4c-1,0-1.5-0.5-1.5-1.5v-4.3c-0.6,0.3-1.2,0.6-1.8,0.9l-0.4-1
						c0.8-0.4,1.5-0.7,2.2-1.2V-76h1v5c1.5-1,2.7-2.1,3.8-3.3l0.7,0.8c-1.3,1.4-2.8,2.6-4.5,3.7v4.7c0,0.4,0.2,0.7,0.7,0.7h2.3
						c0.4,0,0.6-0.1,0.8-0.3c0.2-0.2,0.3-1,0.3-2.4l0.9,0.3c-0.1,1.6-0.3,2.6-0.5,2.9c-0.3,0.3-0.7,0.5-1.4,0.5H-133z"/>
					<path style="fill:#444444;" d="M-126.7-63.3l-0.2-1c0.4,0,0.7,0.1,1,0.1c0.4,0,0.6-0.2,0.6-0.6v-3.3c-0.6,0.2-1.1,0.4-1.7,0.6
						l-0.3-1c0.7-0.2,1.3-0.3,1.9-0.6v-3.2h-1.7v-1h1.7V-76h1v2.6h1.4v1h-1.4v2.9c0.5-0.2,1-0.5,1.5-0.7v1c-0.5,0.3-1,0.5-1.5,0.7
						v3.9c0,0.8-0.4,1.3-1.2,1.3H-126.7z M-122.4-70.9l-0.7-0.8c1-1.1,1.8-2.6,2.4-4.4l0.9,0.2c-0.2,0.5-0.4,1-0.6,1.4h5.5v1h-6
						C-121.2-72.5-121.8-71.6-122.4-70.9z M-115.4-67.4c-0.1,0.5-0.6,0.8-1.5,0.8h-0.4l-0.3-0.9c0.3,0,0.6,0,0.8,0
						c0.3,0,0.4-0.1,0.5-0.4c0.1-0.3,0.1-1.1,0.1-2.7L-118-70v4.3h-0.9v-4l-1.5,0.5v4.1c0,0.5,0.2,0.7,0.6,0.7h3
						c0.5,0,0.8-0.1,1-0.3c0.2-0.2,0.3-0.8,0.4-1.9l0.9,0.3c-0.1,1.3-0.3,2.1-0.6,2.4c-0.3,0.3-0.8,0.4-1.6,0.4h-3.4
						c-0.8,0-1.3-0.5-1.3-1.5v-4l-1.1,0.4v-0.9l1.1-0.4v-2h0.9v1.7l1.5-0.5v-2.1h0.9v1.8l2.7-0.9C-115.3-69.4-115.3-68-115.4-67.4z"
						/>
					<path style="fill:#444444;" d="M-112.7-63.4l-0.2-1c0.4,0,0.7,0.1,1.1,0.1c0.4,0,0.6-0.2,0.6-0.6v-3.4
						c-0.6,0.2-1.2,0.4-1.8,0.6l-0.3-1c0.7-0.2,1.4-0.4,2-0.6v-3.3h-1.8v-1h1.8V-76h1v2.6h1.5v1h-1.5v2.9c0.6-0.3,1.1-0.5,1.6-0.8v1
						c-0.5,0.3-1.1,0.5-1.6,0.8v4c0,0.8-0.4,1.2-1.2,1.2H-112.7z M-105.2-74.6V-76h0.9v1.4h2.9v6h-2.9c0,0.6,0.1,1.2,0.2,1.7l0,0.2
						c0.8-0.4,1.4-0.9,2-1.5l0.8,0.6c-0.7,0.7-1.5,1.3-2.5,1.8c0.1,0.3,0.3,0.6,0.4,0.9c0.3,0.4,0.6,0.7,0.9,0.7
						c0.4,0,0.7-0.7,1-2.1l0.8,0.5c-0.4,1.7-1,2.6-1.7,2.6c-0.5,0-1-0.3-1.5-0.9c-0.3-0.4-0.5-0.8-0.7-1.2c-1.3,0.6-2.8,1.1-4.4,1.4
						l-0.4-0.9c1.7-0.4,3.2-0.8,4.5-1.4c0-0.1,0-0.1,0-0.2c-0.2-0.6-0.3-1.4-0.3-2.2h-2.9v-6H-105.2z M-105.2-72.1v-1.7h-1.9v1.7
						H-105.2z M-105.2-71.2h-1.9v1.6h1.9V-71.2z M-104.2-72.1h2v-1.7h-2V-72.1z M-102.2-71.2h-2v1.2c0,0.2,0,0.3,0,0.4h2V-71.2z"/>
				</g>
			</g>
		</g>
	</g>
	<g style="enable-background:new    ;">
		<rect x="52.3" y="140.2" style="fill:none;" width="162.8" height="27.8"/>
		<path style="fill:#878787;" d="M62.5,141.3v0.8h-4.3v0.8c0,0.7-0.1,1.5-0.2,2.1h5.4v0.8h-3.7v4.2c0,0.4,0.2,0.6,0.6,0.6h1.5
			c0.3,0,0.5-0.1,0.6-0.2c0.2-0.2,0.3-0.7,0.3-1.7l0.8,0.3c-0.1,1.2-0.3,1.9-0.5,2.1c-0.2,0.2-0.6,0.3-1.1,0.3h-1.9
			c-0.8,0-1.2-0.4-1.2-1.2v-4.4h-1c-0.2,1-0.5,1.9-0.9,2.7c-0.7,1.3-1.9,2.3-3.6,3l-0.5-0.8c1.7-0.7,2.8-1.7,3.4-2.9
			c0.3-0.6,0.5-1.3,0.7-2h-3.9v-0.8h4.1c0.1-0.6,0.1-1.4,0.2-2.1v-0.8h-3.4v-0.8H62.5z"/>
		<path style="fill:#878787;" d="M75.6,146.4v0.7h-5.1l-0.4,0.9h4.7v2.6c0,0.7-0.4,1.1-1.1,1.1h-0.9l-0.2-0.7l0.8,0
			c0.3,0,0.5-0.2,0.5-0.5v-1.7h-1.9v2.8h-0.8v-2.8h-1.8v2.8h-0.8v-2.8h-1.8v3H66V148h3.3l0.4-0.9H65v-0.7H75.6z M74.9,141.1v0.7
			h-4.2v0.8h4.6v2.5h-0.8v-1.8h-3.8v2.7h-0.8v-2.7h-3.8v1.8h-0.8v-2.5h4.6v-0.8h-4.2v-0.7H74.9z M69.3,143.9v0.6h-2.5v-0.6H69.3z
			 M69.3,145.1v0.6h-2.5v-0.6H69.3z M73.9,143.9v0.6h-2.5v-0.6H73.9z M73.9,145.1v0.6h-2.5v-0.6H73.9z"/>
		<path style="fill:#878787;" d="M79.5,141c-0.6,1.5-1.1,2.7-1.7,3.6c0.5-0.1,1-0.2,1.5-0.3c0.2-0.4,0.4-0.8,0.6-1.2l0.8,0.3
			c-1,1.9-1.8,3.3-2.5,4.1c0.7-0.1,1.4-0.3,2.1-0.6v0.8c-1.1,0.4-2.1,0.6-3.1,0.8l-0.2-0.8c0.2-0.1,0.3-0.1,0.4-0.2
			c0.4-0.5,0.9-1.2,1.6-2.3c-0.6,0.1-1.3,0.2-1.9,0.3l-0.2-0.8c0.1,0,0.3-0.2,0.3-0.3c0.6-1.1,1.1-2.3,1.6-3.7L79.5,141z M80,149.9
			c-0.8,0.4-1.8,0.8-2.9,1.1l-0.1-0.8c1.1-0.3,2.1-0.6,3-1V149.9z M80.2,151.7l-0.6-0.6c1-1.6,1.4-3.7,1.5-6.3v-2.9h2.7
			c-0.2-0.4-0.3-0.8-0.5-1.1l0.9-0.1c0.2,0.4,0.3,0.8,0.5,1.3h2.7v3h-5.5C81.8,147.6,81.3,149.8,80.2,151.7z M81.9,142.7v1.5h4.7
			v-1.5H81.9z M86.1,151.7l-0.2-0.7l0.5,0c0.2,0,0.3-0.1,0.3-0.4V149h-1v2.5h-0.6V149h-0.9v2.5h-0.6V149h-0.9v2.7h-0.7V146h5.5v4.8
			c0,0.6-0.3,0.8-0.8,0.8H86.1z M83.6,148.3v-1.6h-0.9v1.6H83.6z M84.2,148.3h0.9v-1.6h-0.9V148.3z M85.7,148.3h1v-1.6h-1V148.3z"/>
		<path style="fill:#878787;" d="M90.8,144v-1.7c-0.5,0.1-1,0.1-1.6,0.2l-0.2-0.8c1.5-0.1,2.8-0.4,4-0.8l0.3,0.8
			c-0.5,0.2-1.1,0.3-1.7,0.4v1.9h1.5v0.8h-1.5v0.6c0.6,0.6,1.1,1.2,1.7,1.9l-0.5,0.7c-0.5-0.7-0.9-1.3-1.2-1.8v5.4h-0.8v-5.4
			c-0.4,1.2-1,2.2-1.7,3.2l-0.4-1c0.9-1.1,1.6-2.3,1.9-3.6H89V144H90.8z M99.5,145.7v0.8h-2.6v1.5h2.2v0.8h-2.2v1.6h2.9v0.8H93v-0.8
			H96v-1.6h-2.2v-0.8H96v-1.5h-2.5v-0.8H99.5z M99,141.1v3.5h-5v-3.5H99z M98.1,141.9h-3.3v1.9h3.3V141.9z"/>
		<path style="fill:#878787;" d="M101.1,150.5c0.3-0.1,0.4-0.2,0.4-0.5v-8.9h4.5v5.6h-3.7v3.5c1.1-0.3,2-0.6,2.8-0.9
			c-0.2-0.4-0.5-0.8-0.8-1.2l0.7-0.4c0.8,1.2,1.3,2.2,1.7,3l-0.7,0.5c-0.2-0.4-0.4-0.8-0.6-1.1c-1.2,0.5-2.6,1-4.2,1.3L101.1,150.5z
			 M105.2,142h-2.8v1.6h2.8V142z M102.4,146h2.8v-1.7h-2.8V146z M109.2,150l-0.2-0.8l1,0c0.3,0,0.5-0.2,0.5-0.5V142h-2.2v9.7h-0.9
			v-10.5h3.9v7.7c0,0.7-0.4,1.1-1.1,1.1H109.2z"/>
		<path style="fill:#878787;" d="M123.7,141.4v0.8h-1.6v8.2c0,0.8-0.4,1.2-1.2,1.2h-2l-0.2-0.8c0.7,0,1.3,0,1.9,0
			c0.4,0,0.6-0.2,0.6-0.6v-7.9H113v-0.8H123.7z M119.1,148.5h-3.8v1.1h-0.8v-5.5h4.7V148.5z M118.2,147.7v-2.8h-3v2.8H118.2z"/>
		<path style="fill:#878787;" d="M125.6,151.7l-0.5-0.7c2.2-0.6,3.8-1.4,4.7-2.3c0.1-0.2,0.3-0.3,0.4-0.5h-5v-0.8h5.4
			c0.3-0.7,0.5-1.6,0.5-2.5v-1.4h0.8v1.4c0,0.9-0.2,1.8-0.4,2.5h3.8v0.8h-4.2c-0.1,0.2-0.2,0.4-0.3,0.5c1.7,0.7,3.3,1.5,4.7,2.4
			l-0.5,0.7c-1.5-1-3.1-1.8-4.7-2.5C129.4,150.3,127.8,151.1,125.6,151.7z M135.2,144.2h-0.8v-1.5h-8.1v1.5h-0.8v-2.3h4.6
			c-0.1-0.4-0.3-0.8-0.5-1.1l0.9-0.1c0.2,0.4,0.3,0.8,0.5,1.2h4.3V144.2z M129.3,146.3l-0.4,0.7c-0.8-0.6-1.6-1-2.4-1.4l0.4-0.6
			C127.7,145.4,128.5,145.8,129.3,146.3z M130.4,144.6l-0.4,0.7c-0.8-0.6-1.6-1.1-2.5-1.4l0.4-0.6
			C128.8,143.7,129.7,144.1,130.4,144.6z"/>
		<path style="fill:#878787;" d="M138.5,145.1v-2.8h-1.5v-0.8h3.9v0.8h-1.5v2.8h1.3v0.8h-1.3v2.7c0.5-0.2,1-0.4,1.5-0.6v0.8
			c-1.2,0.5-2.5,0.9-3.8,1.2l-0.2-0.8c0.5-0.1,1.1-0.2,1.6-0.4v-3h-1.4v-0.8H138.5z M144.6,142.9v2.9c0,1.6-0.4,2.9-1,3.9
			c-0.6,0.9-1.5,1.6-2.9,2.1l-0.5-0.7c1.3-0.5,2.2-1.2,2.7-1.9c0.5-0.8,0.7-1.9,0.8-3.3v-2.9H144.6z M146.9,147.8H146V142h-3.6v5.8
			h-0.9v-6.6h5.3V147.8z M145.4,151.5c-0.7,0-1-0.3-1-1v-2.7h0.9v2.6c0,0.3,0.1,0.4,0.4,0.4h0.8c0.2,0,0.3-0.1,0.4-0.2
			c0.1-0.2,0.2-0.6,0.2-1.4l0.8,0.3c-0.1,1-0.2,1.6-0.4,1.8c-0.2,0.2-0.5,0.3-0.9,0.3H145.4z"/>
		<path style="fill:#878787;" d="M158.4,143.4v4.7h-1.4v0.8h2.7v0.8h-2.7v2h-0.9v-2h-3.4c-0.1,0.3-0.3,0.6-0.5,0.9
			c-0.4,0.5-1.1,0.8-2,1.1l-0.4-0.7c0.8-0.2,1.4-0.5,1.8-0.9c0.1-0.1,0.2-0.3,0.3-0.4H149v-0.8h2.9c0-0.1,0-0.2,0-0.3v-0.5h-1.5
			v-4.7H158.4z M149.8,143.6l-0.7-0.4c0.7-0.8,1.3-1.6,1.6-2.5l0.8,0.2c-0.1,0.2-0.2,0.5-0.3,0.7h3v0.7h-1.6
			c0.2,0.3,0.4,0.5,0.5,0.7l-0.7,0.3c-0.2-0.3-0.4-0.7-0.6-1h-0.9C150.5,142.7,150.2,143.2,149.8,143.6z M157.5,144.8v-0.7h-6.2v0.7
			H157.5z M157.5,146.1v-0.7h-6.2v0.7H157.5z M157.5,146.7h-6.2v0.7h6.2V146.7z M152.8,148.6c0,0.1,0,0.2,0,0.3h3.3v-0.8h-3.2V148.6
			z M154.9,143.3l-0.7-0.5c0.6-0.7,1-1.4,1.3-2.2l0.8,0.2l-0.3,0.6h3.4v0.7h-2c0.2,0.3,0.4,0.5,0.5,0.8l-0.7,0.3
			c-0.2-0.4-0.4-0.7-0.7-1h-0.9C155.5,142.6,155.2,143,154.9,143.3z"/>
		<path style="fill:#878787;" d="M163.4,145.5l-0.6,0.6c-0.4-0.6-1-1.2-1.8-1.8l0.6-0.6C162.3,144.3,162.9,144.9,163.4,145.5z
			 M163.7,147.3c-0.5,1.5-1.1,2.9-1.7,4.3l-0.9-0.4c0.7-1.4,1.3-2.8,1.8-4.2L163.7,147.3z M163.8,142.7l-0.6,0.6
			c-0.5-0.6-1.1-1.2-2-1.8l0.6-0.6C162.7,141.5,163.3,142.1,163.8,142.7z M168.2,140.7v1.9h3.1v0.8h-3.1v2.2h3.4v0.8h-3.9
			c-0.8,1.8-1.4,3.1-2,3.9c1.5-0.2,3-0.4,4.4-0.7c-0.3-0.7-0.7-1.4-1.1-2l0.8-0.3c0.7,1.2,1.4,2.5,1.9,3.9l-0.8,0.4
			c-0.2-0.4-0.3-0.8-0.5-1.2c-1.8,0.3-3.8,0.6-5.9,0.8l-0.2-0.8c0.1,0,0.1-0.1,0.2-0.1c0.6-0.5,1.3-1.8,2.2-4h-2.8v-0.8h3.4v-2.2
			h-2.8v-0.8h2.8v-1.9H168.2z"/>
		<path style="fill:#878787;" d="M173.7,143.7l-0.7-0.5c0.8-0.8,1.3-1.7,1.7-2.7l0.8,0.2c-0.1,0.3-0.3,0.7-0.4,1h3.1v0.8h-2
			c0.3,0.4,0.6,0.8,0.7,1.2l-0.8,0.3c-0.2-0.5-0.5-1-0.9-1.5h-0.6C174.3,142.9,174,143.3,173.7,143.7z M177.9,144.3v-0.8h0.9v0.8
			h4.8v0.8h-4.8v0.9h3.9v2.3c0,0.6-0.3,0.9-1,0.9h-0.8l-0.2-0.8l0.8,0c0.2,0,0.3-0.1,0.3-0.4v-1.3h-3.1v1.1c1.3,1.2,3,2.2,5.1,2.9
			l-0.5,0.8c-1.8-0.7-3.3-1.6-4.6-2.8v3.1h-0.9v-3c-1.3,1.2-2.7,2.1-4.3,2.8l-0.5-0.8c1.9-0.7,3.5-1.7,4.8-3v-1H175v2.4h-0.9V146
			h3.7v-0.9h-4.8v-0.8H177.9z M179,143.5l-0.7-0.5c0.5-0.8,0.9-1.6,1.2-2.5l0.8,0.2c-0.1,0.3-0.2,0.6-0.3,0.9h3.6v0.8h-2.2
			c0.3,0.4,0.5,0.8,0.7,1.2l-0.8,0.3c-0.2-0.5-0.5-1-0.8-1.5h-0.8C179.4,142.8,179.2,143.2,179,143.5z"/>
		<path style="fill:#878787;" d="M186.1,150.7h-0.8v-9.1h4v5c1.1-0.4,2-0.9,2.8-1.5c-0.5-0.5-0.9-1-1.3-1.5
			c-0.3,0.4-0.6,0.8-0.9,1.1l-0.6-0.7c0.8-0.8,1.5-1.8,2.1-3.1l0.9,0.2c-0.1,0.3-0.3,0.6-0.4,0.9h3.2v0.7c-0.4,1-1,1.8-1.8,2.6
			c0.7,0.5,1.6,1,2.7,1.4l-0.4,0.8c-1.1-0.5-2.1-1-2.9-1.7c-0.8,0.7-1.8,1.2-3,1.7l-0.4-0.6v4h-0.7v-0.6h-2.5V150.7z M186.1,142.3
			v3.1h0.9v-3.1H186.1z M186.1,149.4h0.9v-3.2h-0.9V149.4z M188.5,142.3h-0.9v3.1h0.9V142.3z M188.5,146.2h-0.9v3.2h0.9V146.2z
			 M194.9,151.6h-0.8v-0.5h-3v0.5h-0.8v-4.5h4.7V151.6z M194.1,150.3V148h-3v2.3H194.1z M194,142.6h-2.7c0,0.1-0.1,0.1-0.1,0.2
			c0.4,0.6,0.8,1.2,1.4,1.7C193.2,143.9,193.7,143.3,194,142.6z"/>
	</g>
	<circle style="fill:#878787;" cx="41" cy="146.5" r="1.5"/>
	<g transform="translate(20 9)">
		<line style="fill:none;stroke:#BABABA;" x1="19.9" y1="118" x2="196" y2="118"/>
	</g>
	<g>
		<rect x="28.9" y="196" style="opacity:0.6;fill:#BBBBBB;enable-background:new    ;" width="201.1" height="117"/>
		<g>
			<rect x="27.4" y="194.5" style="fill:#FFFFFF;" width="200.1" height="116"/>
			<path style="fill:#E5E5E5;" d="M227.1,195v115H27.9V195H227.1 M228.1,194H26.9v117h201.1V194L228.1,194z"/>
		</g>
	</g>
	<g id="maingroup_50_" transform="translate(0,0)">
		<g id="Rects1_20_" transform="translate(220,163)">
			<g transform="translate(20 9)">
				<g style="enable-background:new    ;">
					<path style="fill:#444444;" d="M-163.1,46.1v-2.3h-5.1v-1h5.1V41h1v1.9h5.2v1h-5.2v2.3h4.5v1h-4.5v2.2h5.5v1h-5.5v3.4h-1v-3.4
						h-5.5v-1h5.5v-2.2h-4.4v-1H-163.1z"/>
					<path style="fill:#444444;" d="M-142.7,44.7h-1V43h-9.8v1.8h-1v-2.6h5.4c-0.2-0.4-0.3-0.7-0.5-1l1.1-0.2
						c0.2,0.4,0.3,0.8,0.5,1.2h5.3V44.7z M-143.6,53.8h-1v-0.5h-8v0.5h-1v-5h9.9V53.8z M-144.4,43.8v0.8h-8.4v-0.8H-144.4z
						 M-149.1,50.7v-1h-3.5v1H-149.1z M-149.1,52.5v-1.1h-3.5v1.1H-149.1z M-144.8,45.4v2.7h-7.5v-2.7H-144.8z M-145.8,46.2h-5.6
						v1.2h5.6V46.2z M-148.1,50.7h3.5v-1h-3.5V50.7z M-144.6,52.5v-1.1h-3.5v1.1H-144.6z"/>
					<path style="fill:#444444;" d="M-136,52.9h-1v-0.8h-2.5v1.2h-1v-10h1.3c0.3-0.8,0.5-1.6,0.6-2.4l1,0.1
						c-0.2,0.8-0.4,1.6-0.7,2.3h2.2V52.9z M-137,47.2v-2.9h-2.5v2.9H-137z M-137,51.2v-3.1h-2.5v3.1H-137z M-129,52
						c-0.1,1.1-0.8,1.6-2,1.6c-0.3,0-0.8,0-1.4-0.1l-0.2-0.9c0.6,0,1.1,0,1.5,0c0.7,0,1-0.4,1.1-1.1c0.1-0.8,0.1-3.2,0.2-7.2h-3.8
						c-0.4,0.9-0.8,1.7-1.4,2.4l-0.6-0.8c1-1.4,1.6-3.1,2-5l1,0.1c-0.2,0.8-0.4,1.6-0.6,2.3h4.4C-128.8,48-128.9,50.9-129,52z
						 M-131.3,49.7l-0.8,0.6c-0.6-0.9-1.3-2-2.3-3.1l0.8-0.5C-132.6,47.8-131.8,48.8-131.3,49.7z"/>
					<path style="fill:#444444;" d="M-116.1,44.1v5.5h-1.7v0.9h3.2v0.9h-3.2v2.4h-1v-2.4h-4c-0.1,0.4-0.3,0.8-0.6,1.1
						c-0.5,0.5-1.3,1-2.3,1.3l-0.5-0.8c1-0.3,1.7-0.6,2-1c0.1-0.2,0.2-0.3,0.3-0.5h-3.2v-0.9h3.4c0-0.1,0-0.3,0-0.4v-0.5h-1.8v-5.5
						H-116.1z M-126,44.3l-0.8-0.5c0.8-0.9,1.5-1.9,1.8-2.9l1,0.2c-0.1,0.3-0.2,0.6-0.3,0.8h3.5v0.9h-1.8c0.2,0.3,0.4,0.6,0.6,0.9
						l-0.8,0.3c-0.2-0.4-0.5-0.8-0.8-1.2h-1.1C-125.2,43.3-125.5,43.8-126,44.3z M-117.1,45.7v-0.8h-7.2v0.8H-117.1z M-117.1,47.2
						v-0.8h-7.2v0.8H-117.1z M-117.1,48h-7.2v0.9h7.2V48z M-122.5,50.2c0,0.1,0,0.3,0,0.4h3.8v-0.9h-3.7V50.2z M-120,44l-0.8-0.5
						c0.7-0.8,1.2-1.7,1.5-2.6l1,0.2l-0.3,0.8h4v0.9h-2.3c0.3,0.3,0.4,0.6,0.6,0.9l-0.8,0.3c-0.2-0.4-0.5-0.8-0.8-1.2h-1.1
						C-119.4,43.2-119.7,43.6-120,44z"/>
					<path style="fill:#444444;" d="M-110.2,46.5l-0.7,0.7c-0.5-0.7-1.2-1.4-2.1-2.1l0.7-0.7C-111.5,45.1-110.8,45.8-110.2,46.5z
						 M-109.8,48.7c-0.6,1.8-1.3,3.4-2,5l-1-0.4c0.8-1.6,1.5-3.2,2.1-4.9L-109.8,48.7z M-109.7,43.2l-0.7,0.7
						c-0.6-0.7-1.3-1.4-2.3-2.1l0.7-0.7C-111.1,41.9-110.3,42.5-109.7,43.2z M-104.6,41v2.3h3.6v1h-3.6v2.6h4v1h-4.6
						c-0.9,2.1-1.7,3.7-2.3,4.5c1.7-0.2,3.4-0.4,5.2-0.8c-0.4-0.8-0.8-1.6-1.2-2.3l1-0.3c0.8,1.4,1.6,2.9,2.2,4.5l-0.9,0.4
						c-0.2-0.5-0.4-1-0.6-1.4c-2.1,0.4-4.4,0.7-6.9,1l-0.2-0.9c0.1,0,0.2-0.1,0.2-0.1c0.7-0.6,1.5-2.1,2.6-4.6h-3.3v-1h4v-2.6h-3.3
						v-1h3.3V41H-104.6z"/>
					<path style="fill:#444444;" d="M-95.6,41.3c-0.8,1.7-1.5,3.1-2.3,4.2c0.7-0.1,1.3-0.2,2-0.3c0.3-0.5,0.6-1.1,0.9-1.7l0.9,0.4
						c-1.3,2.4-2.4,4.1-3.3,5.1c1-0.2,2.1-0.5,3.1-0.9V49c-1.5,0.5-3,0.9-4.4,1.1l-0.3-0.9c0.2-0.1,0.3-0.2,0.5-0.3
						c0.6-0.5,1.2-1.5,2-2.8c-0.8,0.1-1.6,0.2-2.5,0.4l-0.3-0.9c0.2-0.1,0.3-0.2,0.4-0.4c0.8-1.2,1.5-2.6,2.1-4.2L-95.6,41.3z
						 M-94.4,51.6c-1.3,0.6-2.8,1.1-4.5,1.5l-0.1-1c1.8-0.4,3.3-0.8,4.6-1.4V51.6z M-87.7,52.3h1.2v1h-8.1v-1h1.2V41.6h5.7V52.3z
						 M-88.7,45.1v-2.5h-3.7v2.5H-88.7z M-88.7,48.7v-2.6h-3.7v2.6H-88.7z M-88.7,52.3v-2.7h-3.7v2.7H-88.7z"/>
					<path style="fill:#444444;" d="M-81.3,41.3c-0.4,1.1-0.8,2.2-1.4,3.2v9.4h-1V46c-0.4,0.6-0.9,1.2-1.5,1.8l-0.3-1.1
						c1.5-1.7,2.5-3.6,3.2-5.8L-81.3,41.3z M-78.9,41.9c-0.1,0.7-0.3,1.4-0.5,2h2V41h1v2.9h3.2v1h-3.2v3.4h3.7v1h-3.7v4.5h-1v-4.5
						h-4.1v-1h4.1v-3.4h-2.4c-0.3,0.9-0.8,1.8-1.3,2.5l-0.6-0.8c0.8-1.3,1.4-2.9,1.7-4.7L-78.9,41.9z"/>
				</g>
			</g>
		</g>
	</g>
	<g style="enable-background:new    ;">
		<rect x="58.3" y="257.2" style="fill:none;" width="156.8" height="40.8"/>
		<path style="fill:#878787;" d="M62.7,257.8c-0.2,0.4-0.4,0.8-0.5,1.2h6.7c0,3-0.1,4.9-0.2,5.6c-0.1,0.8-0.6,1.2-1.4,1.2
			c-0.1,0-0.4,0-0.8,0l-0.2-0.8c0.3,0,0.6,0,0.8,0c0.4,0,0.6-0.2,0.7-0.7c0.1-0.5,0.1-2,0.1-4.5h-6.2c-0.6,1-1.3,1.8-2,2.6l-0.6-0.7
			c1.1-1,2-2.4,2.8-4.1L62.7,257.8z M65.9,265h-4.3v2.2c0,0.3,0.2,0.5,0.6,0.5h5.7c0.3,0,0.5-0.1,0.6-0.4c0.1-0.2,0.2-0.7,0.2-1.4
			l0.8,0.3c-0.1,0.7-0.2,1.3-0.3,1.6c-0.2,0.5-0.5,0.7-1.1,0.7h-6.3c-0.8,0-1.1-0.3-1.1-1v-6.2h5.2V265z M65,264.2v-2.1h-3.5v2.1H65
			z"/>
		<path style="fill:#878787;" d="M76.6,257.8c1,1.3,2.7,2.4,5.2,3.4l-0.5,0.7c-2.3-0.9-4-2-5.1-3.3c-1.4,1.4-3.1,2.5-5.1,3.3
			l-0.5-0.7c2.3-0.9,4-2,5.2-3.4H76.6z M80.1,268.7h-0.8v-0.6h-6.1v0.6h-0.8v-4.1h4.4c0.6-0.5,1.2-1,1.8-1.7h-5.9v-0.8h7v0.7
			c-0.5,0.6-1,1.2-1.6,1.8h2.2V268.7z M79.3,267.3v-1.9h-6.1v1.9H79.3z M77.2,261.2l-0.5,0.6c-0.5-0.5-1-1-1.6-1.3l0.6-0.5
			C76.3,260.3,76.8,260.7,77.2,261.2z"/>
		<path style="fill:#878787;" d="M84.7,260.1v-2.3h0.9v2.3H87v0.8h-1.5v0.6c0.5,0.6,1.1,1.2,1.7,1.9l-0.5,0.7
			c-0.5-0.8-0.8-1.4-1.2-1.8v6.3h-0.9v-6.1c-0.4,1.2-1,2.3-1.6,3.3l-0.4-0.9c0.9-1.2,1.6-2.5,2-4h-1.7v-0.8H84.7z M87.5,265.7
			c0.2-0.7,0.2-1.7,0.2-3v-4.5h3.9v9.1c0,0.2,0.1,0.3,0.3,0.3h0.4c0.1,0,0.3,0,0.3-0.1c0.1-0.1,0.2-0.2,0.2-0.3
			c0-0.2,0.1-0.9,0.1-2.1l0.8,0.3c0,0.9,0,1.5-0.1,2c0,0.4-0.2,0.7-0.4,0.9c-0.2,0.1-0.5,0.2-0.9,0.2h-0.5c-0.8,0-1.1-0.3-1.1-1V259
			h-2.1v3.7c0,1.3-0.1,2.4-0.3,3.3c-0.2,0.9-0.6,1.8-1.1,2.7l-0.7-0.6C87,267.4,87.3,266.6,87.5,265.7z"/>
		<path style="fill:#878787;" d="M98.9,262.3c0.2-0.3,0.4-0.6,0.5-1l0.8,0.1c-0.1,0.3-0.3,0.6-0.4,0.9h3.1c-0.2-0.3-0.3-0.6-0.5-0.8
			l0.7-0.2c0.3,0.3,0.5,0.7,0.7,1.1h1.6v0.8h-3.2c0.8,0.7,1.9,1.3,3.5,1.7l-0.3,0.7c-0.3-0.1-0.6-0.2-0.8-0.3v3.5h-0.8v-0.5h-2.2
			v0.5h-0.8v-3.8h3.2c-1.1-0.5-2-1.2-2.6-1.9h-2c-0.7,0.8-1.6,1.4-2.7,1.9h3v3.8h-0.8v-0.5h-2v0.5H96v-3.5c-0.3,0.1-0.6,0.2-1,0.3
			l-0.4-0.7c1.5-0.5,2.7-1,3.5-1.8h-3.3v-0.8H98.9z M99.5,258.2v2.9h-3.6v-2.9H99.5z M98.7,258.9h-2.1v1.4h2.1V258.9z M98.8,267.5
			v-1.8h-2v1.8H98.8z M104.5,258.2v2.9h-3.7v-2.9H104.5z M103.7,267.5v-1.8h-2.2v1.8H103.7z M103.7,258.9h-2.2v1.4h2.2V258.9z"/>
		<path style="fill:#878787;" d="M115.3,262v0.8c-0.8,0.5-1.7,1-2.6,1.5v0.6h4.6v0.8h-4.6v2c0,0.6-0.3,1-1,1h-1.5l-0.2-0.8
			c0.4,0,0.9,0,1.4,0c0.3,0,0.4-0.2,0.4-0.5v-1.7h-4.8v-0.8h4.8v-1c1-0.4,1.8-0.8,2.3-1.1h-5.2V262H115.3z M117.1,262.8h-0.8V261
			h-8.4v1.9H107v-2.7h6.8c0.5-0.8,1-1.6,1.4-2.5l0.9,0.3c-0.4,0.9-0.8,1.6-1.3,2.2h2.3V262.8z M110,259.7l-0.7,0.4
			c-0.4-0.7-0.8-1.3-1.3-1.9l0.8-0.4C109.2,258.4,109.6,259,110,259.7z M112.8,259.6l-0.8,0.4c-0.4-0.7-0.7-1.4-1.1-2l0.8-0.4
			C112,258.2,112.4,258.8,112.8,259.6z"/>
		<path style="fill:#878787;" d="M125.9,264.1c-1.7,1.1-3.8,2-6.3,2.8l-0.3-0.8c2.5-0.8,4.6-1.7,6.4-2.8L125.9,264.1z M124.2,267.8
			c0.7,0,1.3,0,2,0c0.4,0,0.6-0.2,0.8-0.5c0.2-0.3,0.3-1.1,0.3-2.4c0-0.8,0-2.7,0.1-5.7h-7.8v-0.8h8.7c-0.1,4-0.1,6.3-0.2,7.1
			c0,1.2-0.2,2-0.4,2.4c-0.2,0.4-0.7,0.6-1.3,0.6c-0.5,0-1.1,0-1.9,0L124.2,267.8z M123.5,262.7l-0.6,0.6c-0.6-0.7-1.5-1.5-2.5-2.3
			l0.6-0.6C121.9,261.2,122.8,262,123.5,262.7z"/>
		<path style="fill:#878787;" d="M132.9,266.4c0.2,0.2,0.2,0.5,0.2,0.8c0,0.5-0.2,1-0.5,1.4c-0.3,0.4-0.7,0.6-1.2,0.8v-0.6
			c0.3-0.1,0.6-0.3,0.8-0.5c0.2-0.3,0.3-0.5,0.3-0.8c0,0-0.1,0-0.3,0c-0.2,0-0.4-0.1-0.5-0.2c-0.1-0.1-0.2-0.3-0.2-0.5
			c0-0.2,0.1-0.4,0.2-0.5c0.1-0.1,0.3-0.2,0.6-0.2C132.5,266.1,132.7,266.2,132.9,266.4z"/>
		<path style="fill:#878787;" d="M145.2,262.5l-0.6,0.6c-0.5-0.6-1.2-1.2-2.1-1.8l0.6-0.6C144,261.3,144.7,261.9,145.2,262.5z
			 M145.6,264.3c-0.6,1.5-1.2,2.9-2,4.2l-0.8-0.3c0.8-1.4,1.5-2.7,2.1-4.2L145.6,264.3z M145.7,259.7l-0.6,0.6
			c-0.5-0.6-1.3-1.2-2.2-1.8l0.6-0.6C144.3,258.5,145,259.1,145.7,259.7z M146,264.2v-0.8h3.1v-1.3h0.8v1.3h3.1v0.8h-2.3
			c0.5,1.1,1.4,2.1,2.7,3l-0.5,0.7c-1.3-1.1-2.2-2.3-2.8-3.6h-0.2v4.4h-0.8v-4.4h-0.2c-0.6,1.5-1.7,2.8-3.2,3.8l-0.4-0.7
			c1.4-0.8,2.3-1.8,3-3H146z M149.1,260.1c-0.6,1.1-1.3,2-2.3,2.6l-0.6-0.5c1-0.6,1.7-1.3,2.2-2.3L149.1,260.1z M152.8,260.4H152
			V259h-5v1.5h-0.8v-2.3h6.6V260.4z M152.6,262.1l-0.7,0.5c-0.5-0.7-1.2-1.5-2.1-2.4l0.6-0.4C151.4,260.6,152.1,261.4,152.6,262.1z"
			/>
		<path style="fill:#878787;" d="M156.3,262.5c0,2.5-0.5,4.6-1.3,6.1l-0.6-0.6c0.7-1.3,1.1-3.2,1.1-5.5v-3.9h4.6
			c-0.1-0.3-0.3-0.6-0.5-0.9l0.9-0.1c0.1,0.3,0.3,0.6,0.4,1h4.1v0.8h-8.7v1.4h2v-1h0.8v1h3.2v-1h0.8v1h1.8v0.8h-1.8v1.9h-4.8v-1.9
			h-2V262.5z M164,264.3v0.6c-0.7,0.8-1.5,1.5-2.4,2.1c1.1,0.5,2.3,0.8,3.7,1l-0.4,0.7c-1.6-0.3-3-0.7-4.2-1.3
			c-1.2,0.6-2.6,1-4.2,1.3l-0.4-0.8c1.4-0.2,2.6-0.5,3.7-1c-0.9-0.6-1.6-1.2-2.2-2H157v-0.7H164z M160.7,266.6
			c0.8-0.4,1.6-1,2.2-1.6h-4.2C159.2,265.7,159.9,266.2,160.7,266.6z M159.2,262.8h3.2v-1.1h-3.2V262.8z"/>
		<path style="fill:#878787;" d="M175,262v0.8c-0.8,0.5-1.7,1-2.6,1.5v0.6h4.6v0.8h-4.6v2c0,0.6-0.3,1-1,1h-1.5l-0.2-0.8
			c0.4,0,0.9,0,1.4,0c0.3,0,0.4-0.2,0.4-0.5v-1.7h-4.8v-0.8h4.8v-1c1-0.4,1.8-0.8,2.3-1.1h-5.2V262H175z M176.9,262.8H176V261h-8.4
			v1.9h-0.8v-2.7h6.8c0.5-0.8,1-1.6,1.4-2.5l0.9,0.3c-0.4,0.9-0.8,1.6-1.3,2.2h2.3V262.8z M169.7,259.7l-0.7,0.4
			c-0.4-0.7-0.8-1.3-1.3-1.9l0.8-0.4C168.9,258.4,169.3,259,169.7,259.7z M172.5,259.6l-0.8,0.4c-0.4-0.7-0.7-1.4-1.1-2l0.8-0.4
			C171.7,258.2,172.1,258.8,172.5,259.6z"/>
		<path style="fill:#878787;" d="M185.7,264.1c-1.7,1.1-3.8,2-6.3,2.8l-0.3-0.8c2.5-0.8,4.6-1.7,6.4-2.8L185.7,264.1z M184,267.8
			c0.7,0,1.3,0,2,0c0.4,0,0.6-0.2,0.8-0.5c0.2-0.3,0.3-1.1,0.3-2.4c0-0.8,0-2.7,0.1-5.7h-7.8v-0.8h8.7c-0.1,4-0.1,6.3-0.2,7.1
			c0,1.2-0.2,2-0.4,2.4c-0.2,0.4-0.7,0.6-1.3,0.6c-0.5,0-1.1,0-1.9,0L184,267.8z M183.2,262.7l-0.6,0.6c-0.6-0.7-1.5-1.5-2.5-2.3
			l0.6-0.6C181.7,261.2,182.5,262,183.2,262.7z"/>
		<path style="fill:#878787;" d="M194.6,268h-0.8v-0.7h-2.2v1h-0.8v-8.5h1.1c0.2-0.7,0.4-1.4,0.5-2.1l0.9,0.1
			c-0.1,0.7-0.3,1.4-0.6,2h1.9V268z M193.7,263.1v-2.5h-2.2v2.5H193.7z M193.7,266.5v-2.6h-2.2v2.6H193.7z M200.6,267.2
			c-0.1,0.9-0.7,1.4-1.7,1.4c-0.2,0-0.6,0-1.2,0l-0.2-0.8c0.5,0,0.9,0,1.3,0c0.6,0,0.9-0.3,1-0.9c0.1-0.7,0.1-2.7,0.1-6.2h-3.3
			c-0.3,0.8-0.7,1.4-1.2,2.1l-0.5-0.7c0.8-1.2,1.4-2.6,1.7-4.3l0.8,0.1c-0.1,0.7-0.3,1.4-0.5,2h3.8
			C200.7,263.8,200.7,266.2,200.6,267.2z M198.6,265.2l-0.7,0.5c-0.5-0.8-1.1-1.7-2-2.7l0.7-0.4
			C197.5,263.6,198.1,264.4,198.6,265.2z"/>
		<path style="fill:#878787;" d="M208.1,257.6v1.8h1.5c0.4-0.5,0.7-1.1,1-1.7l0.8,0.3c-0.3,0.5-0.6,1-0.8,1.4h2.1v2.4h-0.9v-1.6
			h-8.2v1.6h-0.9v-2.4h1.9c-0.2-0.5-0.5-0.9-0.8-1.3l0.8-0.3c0.3,0.4,0.6,1,0.8,1.6h1.7v-1.8H208.1z M204.6,263.9v-2.6h6.2v2.6h-2.7
			v1h3.8v2.2c0,0.7-0.4,1.1-1.1,1.1h-1l-0.2-0.8l0.9,0c0.3,0,0.5-0.2,0.5-0.5v-1.2h-3v3.1h-0.9v-3.1h-2.9v2.5h-0.8v-3.3h3.7v-1
			H204.6z M209.9,261.9h-4.5v1.2h4.5V261.9z"/>
		<path style="fill:#878787;" d="M59.5,283l-0.7-0.6c0.8-1.1,1.2-2.4,1.2-4.1v-5.8h8.9v9c0,0.8-0.4,1.3-1.3,1.3h-1.4L66,282
			c0.5,0,0.9,0,1.3,0c0.4,0,0.7-0.3,0.7-0.8v-2.1h-3.2v3.5h-0.9v-3.5h-3.1C60.7,280.7,60.2,282,59.5,283z M60.9,273.4v2.1h3v-2.1
			H60.9z M60.9,278.4h3v-2.1h-3V278.4z M68,273.4h-3.2v2.1H68V273.4z M68,276.3h-3.2v2.1H68V276.3z"/>
		<path style="fill:#878787;" d="M80.2,274.8v4.7h-1.4v0.8h2.7v0.8h-2.7v2H78v-2h-3.4c-0.1,0.3-0.3,0.6-0.5,0.9
			c-0.4,0.5-1.1,0.8-2,1.1l-0.4-0.7c0.8-0.2,1.4-0.5,1.8-0.9c0.1-0.1,0.2-0.3,0.3-0.4h-2.7v-0.8h2.9c0-0.1,0-0.2,0-0.3v-0.5h-1.5
			v-4.7H80.2z M71.7,275l-0.7-0.4c0.7-0.8,1.3-1.6,1.6-2.5l0.8,0.2c-0.1,0.2-0.2,0.5-0.3,0.7h3v0.7h-1.6c0.2,0.3,0.4,0.5,0.5,0.7
			l-0.7,0.3c-0.2-0.3-0.4-0.7-0.6-1h-0.9C72.4,274.1,72.1,274.6,71.7,275z M79.4,276.2v-0.7h-6.2v0.7H79.4z M79.4,277.5v-0.7h-6.2
			v0.7H79.4z M79.4,278.1h-6.2v0.7h6.2V278.1z M74.7,280c0,0.1,0,0.2,0,0.3H78v-0.8h-3.2V280z M76.8,274.7l-0.7-0.5
			c0.6-0.7,1-1.4,1.3-2.2l0.8,0.2l-0.3,0.6h3.4v0.7h-2c0.2,0.3,0.4,0.5,0.5,0.8l-0.7,0.3c-0.2-0.4-0.4-0.7-0.7-1h-0.9
			C77.4,274,77.1,274.4,76.8,274.7z"/>
		<path style="fill:#878787;" d="M85.3,276.9l-0.6,0.6c-0.4-0.6-1-1.2-1.8-1.8l0.6-0.6C84.2,275.7,84.8,276.3,85.3,276.9z
			 M85.6,278.7c-0.5,1.5-1.1,2.9-1.7,4.3l-0.9-0.4c0.7-1.4,1.3-2.8,1.8-4.2L85.6,278.7z M85.7,274.1l-0.6,0.6
			c-0.5-0.6-1.1-1.2-2-1.8l0.6-0.6C84.5,272.9,85.2,273.5,85.7,274.1z M90,272.1v1.9h3.1v0.8H90v2.2h3.4v0.8h-3.9
			c-0.8,1.8-1.4,3.1-2,3.9c1.5-0.2,2.9-0.4,4.4-0.7c-0.3-0.7-0.7-1.4-1.1-2l0.8-0.3c0.7,1.2,1.4,2.5,1.9,3.9l-0.8,0.4
			c-0.2-0.4-0.3-0.8-0.5-1.2c-1.8,0.3-3.8,0.6-5.9,0.8l-0.2-0.8c0.1,0,0.1-0.1,0.2-0.1c0.6-0.5,1.3-1.8,2.2-4h-2.8v-0.8h3.4v-2.2
			h-2.8V274h2.8v-1.9H90z"/>
		<path style="fill:#878787;" d="M97,280.8c0.2,0.2,0.2,0.5,0.2,0.8c0,0.5-0.2,1-0.5,1.4c-0.3,0.4-0.7,0.6-1.2,0.8v-0.6
			c0.3-0.1,0.6-0.3,0.8-0.5c0.2-0.3,0.3-0.5,0.3-0.8c0,0-0.1,0-0.3,0c-0.2,0-0.4-0.1-0.5-0.2c-0.1-0.1-0.2-0.3-0.2-0.5
			c0-0.2,0.1-0.4,0.2-0.5c0.1-0.1,0.3-0.2,0.6-0.2C96.6,280.5,96.9,280.6,97,280.8z"/>
		<path style="fill:#878787;" d="M110.4,278.8c-0.1,0.7-0.3,1.4-0.6,1.9c-0.5,1-1.3,1.8-2.4,2.4l-0.5-0.8c1.1-0.6,1.8-1.3,2.3-2.2
			c0.2-0.4,0.3-0.8,0.4-1.3h-2.8V278h2.9c0.1-0.5,0.1-1.1,0.1-1.7v-1.2h-2.5v-0.8h6c0.5-0.7,0.8-1.5,1.2-2.4l0.9,0.3
			c-0.3,0.8-0.7,1.5-1.1,2.1h2.7v0.8h-2.3v2.8h2.8v0.8h-2.8v4.2h-0.9v-4.2H110.4z M110.9,273.9l-0.8,0.4c-0.4-0.7-0.7-1.4-1.1-2
			l0.8-0.4C110.1,272.6,110.5,273.2,110.9,273.9z M110.6,275.2v1.2c0,0.6,0,1.2-0.1,1.7h3.2v-2.8H110.6z"/>
		<path style="fill:#878787;" d="M122.7,277.6c-0.1,1.6-0.4,2.8-0.9,3.6c-0.5,0.8-1.4,1.5-2.7,2l-0.5-0.7c1.1-0.5,2-1.1,2.4-1.7
			c0.5-0.7,0.7-1.7,0.8-3.2H122.7z M128.7,277.5l-0.8,0.4c-0.2-0.5-0.5-1-0.7-1.4c-2.2,0.2-4.7,0.4-7.4,0.5l-0.2-0.8
			c0.9-0.4,2-1.8,3.3-4.2l0.8,0.3c-0.9,1.6-1.8,2.9-2.7,3.9c2-0.1,4-0.3,5.8-0.4c-0.4-0.7-0.8-1.4-1.3-2l0.8-0.4
			C127.1,274.7,127.9,276,128.7,277.5z M125.9,282.9c-0.8,0-1.1-0.4-1.1-1.2v-4.3h0.8v4.1c0,0.4,0.2,0.6,0.5,0.6h1.3
			c0.3,0,0.6-0.1,0.7-0.3c0.2-0.2,0.3-0.9,0.4-1.9l0.8,0.3c-0.1,1.3-0.3,2.1-0.6,2.4c-0.3,0.2-0.7,0.4-1.2,0.4H125.9z"/>
		<path style="fill:#878787;" d="M133.1,275.8v5.3c0.4-0.4,0.9-0.8,1.4-1.2l0.2,0.9c-0.7,0.7-1.5,1.3-2.4,1.9l-0.3-0.8
			c0.2-0.2,0.3-0.3,0.3-0.5v-4.7h-1.7v-0.8H133.1z M133.9,274.1l-0.6,0.6c-0.5-0.6-1.2-1.2-2.1-1.9l0.6-0.6
			C132.7,272.8,133.4,273.4,133.9,274.1z M134.4,276.7l-0.5-0.7c1-1,1.7-2.3,2.1-3.9l0.8,0.1c-0.1,0.5-0.3,1-0.4,1.5h4.8v0.8h-2.5
			v2.9h3v0.8h-3v4.9h-0.9v-4.9h-3.5v-0.8h3.5v-2.9h-1.7C135.5,275.4,135,276.1,134.4,276.7z"/>
		<path style="fill:#878787;" d="M151.9,283.1h-0.9v-0.7h-6.3v0.7h-0.9v-9.6h2.6c0.3-0.5,0.5-1,0.6-1.5l0.9,0.1
			c-0.1,0.5-0.3,0.9-0.6,1.3h4.6V283.1z M151.1,276.1v-1.8h-6.3v1.8H151.1z M151.1,278.8v-1.8h-6.3v1.8H151.1z M151.1,281.5v-2h-6.3
			v2H151.1z"/>
		<path style="fill:#878787;" d="M163.4,275.7v0.8h-3v2.1h3.6v0.8h-3.6v2.5c0.8,0.1,1.8,0.2,3,0.2c0.6,0,1.2,0,1.9-0.1l-0.2,0.9
			h-1.3c-2.4,0-4.1-0.2-5.2-0.7c-0.8-0.4-1.4-0.9-1.9-1.7c-0.5,1-1,1.9-1.7,2.6l-0.5-0.7c1.1-1.2,1.9-2.9,2.3-4.9l0.8,0.1
			c-0.1,0.7-0.3,1.4-0.5,2.1c0.6,1,1.3,1.7,2.2,2c0.1,0,0.2,0.1,0.3,0.1v-5.2h-3.1v-0.8H163.4z M164.7,275.9h-0.8v-1.8h-8.1v1.8H155
			v-2.6h4.6c-0.2-0.4-0.4-0.8-0.6-1.2l0.9-0.1c0.2,0.4,0.4,0.8,0.5,1.3h4.3V275.9z"/>
		<path style="fill:#878787;" d="M175.9,272.9c-0.5,2.8-1.6,5.1-3.3,6.8c1.3,1.1,2.9,2,4.7,2.6l-0.5,0.8c-1.8-0.7-3.4-1.6-4.8-2.8
			c-1.4,1.2-3,2.1-5,2.8l-0.5-0.8c1.9-0.6,3.5-1.5,4.8-2.6c-1.6-1.5-2.8-3.3-3.7-5.5l0.8-0.4c0.8,2.1,2,3.9,3.5,5.3
			c1.6-1.7,2.7-3.8,3.2-6.4L175.9,272.9z M172.8,275l-0.8,0.4c-0.6-1.1-1.3-2-2-2.9l0.8-0.4C171.6,273,172.3,273.9,172.8,275z"/>
	</g>
	<circle style="fill:#878787;" cx="41" cy="263.5" r="1.5"/>
	<g transform="translate(20 9)">
		<line style="fill:none;stroke:#BABABA;" x1="19.9" y1="235" x2="196" y2="235"/>
	</g>
	<g>
		<rect x="28.9" y="327" style="opacity:0.6;fill:#BBBBBB;enable-background:new    ;" width="201.1" height="102"/>
		<g>
			<rect x="27.4" y="325.5" style="fill:#FFFFFF;" width="200.1" height="101"/>
			<path style="fill:#E5E5E5;" d="M227.1,326v100H27.9V326H227.1 M228.1,325H26.9v102h201.1V325L228.1,325z"/>
		</g>
	</g>
	<g id="maingroup_58_" transform="translate(0,0)">
		<g id="Rects1_22_" transform="translate(220,163)">
			<g transform="translate(20 9)">
				<g style="enable-background:new    ;">
					<path style="fill:#444444;" d="M-161.9,173.1h5.5v0.9h-12.3v-0.9h5.7c-0.1-0.4-0.3-0.7-0.5-1.1l1.1-0.2
						C-162.2,172.2-162,172.7-161.9,173.1z M-159.8,184.8l-0.2-0.9l1.1,0c0.6,0,0.9-0.2,0.9-0.7v-3.8h-9v5.4h-1v-6.3h10.9v4.9
						c0,0.9-0.5,1.3-1.5,1.3H-159.8z M-158.6,175v2.7h-7.8V175H-158.6z M-159.6,175.7h-5.8v1.1h5.8V175.7z M-159.8,180.3v2.8h-5.5
						v-2.8H-159.8z M-160.7,181.1h-3.7v1.3h3.7V181.1z"/>
					<path style="fill:#444444;" d="M-153.7,174.7c0,1.4-0.2,2.7-0.5,4l-0.8-0.2c0.3-1.2,0.5-2.5,0.5-3.8L-153.7,174.7z M-152,172
						v12.7h-1V172H-152z M-150.2,176.7c0.5-1.2,0.8-2.5,0.8-3.9l0.9,0.1c0,0.6-0.1,1.1-0.2,1.7h2V172h1v2.6h3v1h-3v3.4h2.8v1h-2.8
						v3.4h3.4v1h-8.4v-1h4V180h-3.2v-1h3.2v-3.4h-2.2c-0.3,1-0.6,2-1.1,2.8l-0.7-0.7c0.2-0.3,0.3-0.6,0.4-0.9l-0.7,0.2
						c-0.2-0.9-0.5-1.7-0.8-2.5l0.7-0.2C-150.7,175-150.5,175.8-150.2,176.7z"/>
					<path style="fill:#444444;" d="M-134,175.9l-0.8,0.6c-0.2-0.3-0.3-0.6-0.5-0.9c-1.5,0.2-3.3,0.4-5.3,0.5l-0.3-0.8
						c0.2-0.1,0.3-0.2,0.5-0.3c0.9-0.9,1.6-1.9,2.1-3l0.9,0.3c-0.6,1.2-1.3,2.2-2.1,2.9c1.2-0.1,2.4-0.2,3.7-0.4
						c-0.3-0.4-0.6-0.9-0.9-1.4l0.8-0.5C-135.1,174.1-134.5,175.1-134,175.9z M-139.1,184.8h-1v-7.9h5.1v6.6c0,0.8-0.4,1.2-1.2,1.2
						h-1.1l-0.3-1l1,0c0.3,0,0.5-0.2,0.5-0.5v-1.1h-3.2V184.8z M-135.9,177.8h-3.2v1.4h3.2V177.8z M-139.1,181.3h3.2V180h-3.2V181.3
						z M-132.4,178.1c-0.9,0-1.3-0.5-1.3-1.4V172h1v1.8c1.5-0.2,2.8-0.5,3.7-0.7l0.3,0.9c-1.2,0.3-2.5,0.6-4.1,0.8v1.8
						c0,0.4,0.2,0.7,0.6,0.7h1.8c0.3,0,0.5-0.1,0.6-0.2c0.1-0.2,0.2-0.7,0.3-1.6l0.9,0.3c-0.1,1.1-0.3,1.8-0.5,2.1
						c-0.2,0.2-0.6,0.3-1.1,0.3H-132.4z M-132.7,183.2c0,0.3,0.2,0.4,0.5,0.4h1.9c0.3,0,0.5-0.1,0.6-0.2c0.2-0.2,0.3-0.7,0.3-1.6
						l0.9,0.3c-0.1,1.1-0.3,1.8-0.5,2.1c-0.2,0.2-0.6,0.3-1.1,0.3h-2.4c-0.8,0-1.2-0.4-1.2-1.1v-4.9h1v1.7c1.4-0.1,2.6-0.4,3.7-0.7
						l0.3,0.9c-1.3,0.4-2.6,0.6-4.1,0.7V183.2z"/>
					<path style="fill:#444444;" d="M-126.6,176.6l-0.6-0.8c1.2-1.1,2.2-2.4,2.8-4l0.9,0.2c-0.1,0.4-0.3,0.7-0.5,1.1h3
						c-0.2-0.4-0.4-0.8-0.6-1.2l1-0.2c0.2,0.4,0.4,0.9,0.6,1.4h4.5v0.8h-4.4v1h3.9v0.8h-3.9v0.9h3.9v0.8h-3.9v1h4.7v0.9h-10.2v-3.9
						C-125.7,175.9-126.1,176.3-126.6,176.6z M-126.7,181.4v-0.9h5.5v-0.7h1v0.7h5.5v0.9h-4.2c0.9,0.9,2.4,1.6,4.4,2.1l-0.4,0.9
						c-2.3-0.8-3.9-1.8-4.9-3h-0.3v3.4h-1v-3.4h-0.3c-0.9,1.2-2.5,2.2-4.9,3.1l-0.5-0.9c2.1-0.7,3.6-1.4,4.4-2.2H-126.7z
						 M-120.8,174.1h-3.6l-0.1,0.1v0.8h3.6V174.1z M-120.8,175.8h-3.6v0.9h3.6V175.8z M-120.8,177.5h-3.6v1h3.6V177.5z"/>
					<path style="fill:#444444;" d="M-110.6,178.3c-0.1,0.5-0.3,0.9-0.4,1.4h3.7v5h-0.9v-0.8h-2.2v0.8h-0.9v-4.2
						c-0.4,0.8-0.8,1.5-1.4,2.1l-0.5-0.8c0.8-0.9,1.3-2,1.7-3.5h-1.1v-0.9h1.3c0.1-0.5,0.2-1,0.2-1.6h-1.9V175h2
						c0-0.5,0.1-1.1,0.1-1.6h-1.6v-0.9h4.8v2.5h0.8v0.9h-0.8v2.5H-110.6z M-108.3,183v-2.4h-2.2v2.4H-108.3z M-110.4,177.5h1.7v-1.6
						h-1.5C-110.3,176.4-110.3,177-110.4,177.5z M-110.1,175h1.4v-1.6h-1.4C-110,173.9-110.1,174.5-110.1,175z M-106.6,175.6v-1h1.6
						c-0.4-0.8-0.8-1.6-1.2-2.2l0.8-0.4c0.4,0.7,0.8,1.4,1.2,2.2l-0.8,0.4h1.6c0.4-0.9,0.8-1.8,1-2.7l0.9,0.3
						c-0.3,0.9-0.6,1.7-1,2.4h1.5v1h-2.3v2h2v0.9h-2v2h2.6v1h-2.6v3.2h-1v-3.2h-2.6v-1h2.6v-2h-2.2v-0.9h2.2v-2H-106.6z"/>
				</g>
			</g>
		</g>
	</g>
	<g style="enable-background:new    ;">
		<rect x="58.3" y="388.2" style="fill:none;" width="156.8" height="26.8"/>
		<path style="fill:#878787;" d="M63,389.1c-0.9,2.5-2,4.4-3.5,5.8l-0.7-0.6c1.5-1.4,2.6-3.2,3.4-5.5L63,389.1z M68.7,399.3
			l-0.8,0.4c-0.2-0.4-0.4-0.8-0.5-1.2c-2.1,0.3-4.5,0.6-7.1,0.7l-0.2-0.8c1-0.5,2.2-2.4,3.6-5.7l0.8,0.3c-1,2.3-2.1,4.1-3.1,5.4
			c1.9-0.1,3.8-0.3,5.5-0.6c-0.5-0.9-0.9-1.7-1.4-2.4l0.8-0.3C67.2,396.5,68,397.9,68.7,399.3z M69.7,394.2l-0.6,0.7
			c-1.8-1.5-3-3.4-3.7-5.8l0.7-0.4C66.8,391,68,392.8,69.7,394.2z"/>
		<path style="fill:#878787;" d="M74.4,397.1v2.6h-0.8v-6.3c-0.7,0.8-1.4,1.6-2.3,2.3l-0.6-0.7c1.5-1.2,2.7-2.6,3.5-4.1h-3.2V390
			h3.6c0.2-0.5,0.4-0.9,0.5-1.4l0.9,0.1c-0.1,0.4-0.3,0.9-0.5,1.3h5.9v0.8h-6.3c-0.2,0.5-0.5,0.9-0.8,1.4H80v6.5
			c0,0.6-0.3,0.9-1,0.9h-1.3l-0.2-0.8c0.5,0,0.9,0,1.3,0c0.3,0,0.5-0.1,0.5-0.4v-1.4H74.4z M74.4,394.3h4.7V393h-4.7V394.3z
			 M74.4,395.1v1.3h4.7v-1.3H74.4z"/>
		<path style="fill:#878787;" d="M93.6,392.7v0.9h-5.7c-1.1,2.3-2.1,3.8-2.9,4.7c2.2-0.1,4.3-0.3,6.4-0.6c-0.4-0.8-0.9-1.6-1.4-2.4
			l0.7-0.4c1.1,1.7,1.9,3.1,2.5,4.3l-0.8,0.5c-0.2-0.4-0.4-0.8-0.6-1.3c-2.4,0.3-5.1,0.6-7.9,0.7l-0.2-0.9c0.1,0,0.2-0.1,0.2-0.1
			c0.8-0.6,1.8-2.1,3-4.7h-4v-0.9H93.6z M92.5,389.4v0.8H84v-0.8H92.5z"/>
		<path style="fill:#878787;" d="M95.5,399.7l-0.6-0.6c0.5-1.1,0.7-2.5,0.7-4.2v-5.8H99v9.4c0,0.7-0.3,1.1-1,1.1h-1l-0.2-0.8
			c0.3,0,0.6,0,0.9,0c0.3,0,0.5-0.2,0.5-0.6v-2.7h-1.9C96.2,397.3,96,398.6,95.5,399.7z M98.2,390h-1.9v2h1.9V390z M96.3,394.8h1.9
			v-2h-1.9V394.8z M100.9,399.7H100v-10.5h4.8c0,1.5-0.1,2.5-0.2,3c-0.1,0.5-0.6,0.7-1.3,0.7h-1l-0.2-0.7c0.2,0,0.5,0,0.8,0
			c0.3,0,0.5,0,0.6-0.1c0.1,0,0.3-0.2,0.3-0.3c0.1-0.3,0.1-0.9,0.2-1.8h-3.2v3.6h4.1v0.7c-0.2,1.2-0.6,2.3-1.2,3.2
			c0.5,0.5,1.2,1,1.9,1.4l-0.4,0.7c-0.8-0.4-1.4-0.9-2-1.5c-0.5,0.6-1.1,1.1-1.9,1.5l-0.5-0.7c0.7-0.4,1.3-0.8,1.7-1.4
			c-0.8-0.9-1.3-2-1.5-3.2h-0.3V399.7z M103.2,396.9c0.4-0.7,0.8-1.5,1-2.5h-2.3C102.1,395.3,102.6,396.1,103.2,396.9z"/>
		<path style="fill:#878787;" d="M111.1,388.8c-0.1,0.3-0.3,0.6-0.5,0.9h5.2v0.7c-0.8,0.9-1.7,1.6-2.8,2.3c1.4,0.6,2.9,0.9,4.5,1.1
			l-0.4,0.8c-1.9-0.2-3.6-0.7-5.1-1.4c-1.5,0.7-3.2,1.2-5.1,1.5l-0.4-0.8c1.7-0.2,3.2-0.6,4.6-1.2c-0.7-0.4-1.3-0.9-1.9-1.4
			c-0.5,0.4-0.9,0.8-1.5,1.1l-0.5-0.7c1.4-0.8,2.4-1.8,2.9-3L111.1,388.8z M112.2,394c0,0.5,0,0.9-0.1,1.4h4.2c0,2-0.2,3.2-0.5,3.6
			c-0.3,0.4-0.9,0.6-1.8,0.6c-0.4,0-0.8,0-1.4,0l-0.2-0.8l1.4,0.1c0.7,0,1.2-0.2,1.4-0.5c0.2-0.3,0.3-1,0.3-2.2h-3.5
			c-0.1,0.3-0.2,0.6-0.4,0.9c-0.6,1.1-2,2-4.2,2.7l-0.6-0.7c2-0.6,3.3-1.3,3.9-2.2c0.1-0.2,0.3-0.4,0.4-0.7h-3.6v-0.8h3.8
			c0.1-0.4,0.1-0.9,0.1-1.4H112.2z M114.6,390.5H110l-0.2,0.2c0.7,0.6,1.4,1.1,2.2,1.5C113.1,391.7,113.9,391.2,114.6,390.5z"/>
		<path style="fill:#878787;" d="M119.6,391.1c0,1.2-0.2,2.4-0.4,3.4l-0.7-0.2c0.3-1,0.4-2.1,0.4-3.3L119.6,391.1z M121.1,388.7
			v10.9h-0.9v-10.9H121.1z M122.6,392.8c0.4-1,0.6-2.2,0.7-3.3l0.8,0.1c0,0.5-0.1,1-0.1,1.4h1.7v-2.2h0.9v2.2h2.6v0.8h-2.6v2.9h2.4
			v0.9h-2.4v2.9h2.9v0.8h-7.2v-0.8h3.4v-2.9h-2.7v-0.9h2.7v-2.9h-1.9c-0.2,0.9-0.5,1.7-1,2.4l-0.6-0.6c0.1-0.3,0.3-0.5,0.4-0.8
			l-0.6,0.2c-0.2-0.7-0.4-1.4-0.7-2.1l0.6-0.2C122.2,391.4,122.4,392,122.6,392.8z"/>
		<path style="fill:#878787;" d="M136.5,392.1l-0.7,0.5c-0.1-0.3-0.3-0.5-0.4-0.8c-1.3,0.2-2.8,0.3-4.6,0.4l-0.2-0.7
			c0.2,0,0.3-0.1,0.4-0.2c0.7-0.8,1.4-1.6,1.8-2.6l0.8,0.3c-0.5,1.1-1.1,1.9-1.8,2.5c1-0.1,2.1-0.2,3.2-0.3
			c-0.3-0.4-0.5-0.8-0.8-1.2l0.7-0.4C135.6,390.5,136.1,391.4,136.5,392.1z M132.1,399.7h-0.8v-6.8h4.4v5.6c0,0.7-0.3,1.1-1,1.1h-1
			l-0.2-0.8l0.9,0c0.3,0,0.5-0.2,0.5-0.5v-1h-2.8V399.7z M134.9,393.7h-2.8v1.2h2.8V393.7z M132.1,396.7h2.8v-1.1h-2.8V396.7z
			 M137.9,393.9c-0.7,0-1.1-0.4-1.1-1.2v-4h0.8v1.6c1.3-0.2,2.4-0.4,3.2-0.6l0.3,0.8c-1,0.3-2.2,0.5-3.5,0.7v1.5
			c0,0.4,0.2,0.6,0.5,0.6h1.6c0.2,0,0.4-0.1,0.5-0.2c0.1-0.2,0.2-0.6,0.2-1.4l0.8,0.3c-0.1,1-0.2,1.6-0.5,1.8
			c-0.2,0.2-0.5,0.3-0.9,0.3H137.9z M137.7,398.4c0,0.2,0.1,0.4,0.5,0.4h1.6c0.2,0,0.4-0.1,0.5-0.2c0.1-0.2,0.2-0.6,0.3-1.3l0.8,0.2
			c-0.1,1-0.2,1.6-0.5,1.8c-0.2,0.2-0.5,0.3-0.9,0.3h-2c-0.7,0-1.1-0.3-1.1-1v-4.2h0.8v1.5c1.2-0.1,2.3-0.3,3.2-0.6l0.3,0.8
			c-1.1,0.3-2.2,0.5-3.5,0.6V398.4z"/>
		<path style="fill:#878787;" d="M148.1,388.7v0.9h4.4v0.8h-4.4v0.9h3.7v4.4h-3.5v1.1h4.7v0.8h-4.7v2.2h-0.9v-2.2h-4.7v-0.8h4.7
			v-1.1h-3.3v-4.4h3.1v-2.5H148.1z M151,393.1V392h-6v1.1H151z M151,393.8h-6v1.1h6V393.8z"/>
		<path style="fill:#878787;" d="M156.7,390.3v-1.6h0.8v1.6h1.7v0.8h-1.7v1.6h1.8v0.8h-1.6v1.6h1.3v0.8h-1.3v2.4c0,0,0.1,0,0.1,0.1
			c0.7,0.3,2.2,0.4,4.7,0.4c1.3,0,2.2,0,2.8,0l-0.1,0.9h-2.5c-2.9,0-4.7-0.2-5.4-0.5c-0.6-0.3-1.2-0.9-1.6-1.6
			c-0.2,0.9-0.4,1.6-0.7,2.4l-0.7-0.6c0.5-1.4,0.8-3,0.9-4.8l0.8,0.1c0,0.6-0.1,1.2-0.1,1.8c0.3,0.6,0.6,1.1,1,1.4v-4.2h-2.3v-0.8
			h2.2v-1.6h-1.9v-0.8H156.7z M163.2,397c-0.1-0.1-0.1-0.2-0.2-0.3c-0.5,0.6-1,1.1-1.5,1.5l-0.4-0.7c0.6-0.5,1.2-1,1.6-1.7
			c-0.2-0.5-0.3-1-0.4-1.6c-0.1-0.8-0.3-1.8-0.3-2.9h-1.5v4.7c0.4-0.2,0.8-0.5,1.3-0.8l0.2,0.8c-0.7,0.5-1.5,0.9-2.3,1.3l-0.2-0.8
			c0.2-0.1,0.3-0.3,0.3-0.5v-5.5h2.2c0-0.6,0-1.2,0-1.8h0.8c0,0.7,0,1.3,0,1.8h2.4v0.7h-2.3c0,1,0.1,1.8,0.2,2.5
			c0.1,0.4,0.1,0.8,0.2,1.2c0.4-0.8,0.7-1.7,1-2.8l0.7,0.3c-0.3,1.4-0.8,2.6-1.4,3.5l0.1,0.3c0.2,0.5,0.5,0.8,0.7,0.8
			c0.1,0,0.3-0.5,0.5-1.3l0.7,0.4c-0.3,1.2-0.6,1.8-1,1.8C164,397.9,163.6,397.6,163.2,397z M165,390l-0.6,0.4
			c-0.3-0.4-0.7-0.9-1.2-1.3l0.6-0.4C164.3,389.2,164.7,389.7,165,390z"/>
		<path style="fill:#878787;" d="M169.3,398c0.4,0.4,0.7,0.8,1,1.2l-0.6,0.5c-0.3-0.4-0.6-0.8-1-1.2c-0.4-0.5-0.9-0.9-1.3-1.2
			l0.5-0.5C168.4,397.1,168.8,397.5,169.3,398z"/>
		<path style="fill:#878787;" d="M178.5,389.7c1.4-0.1,2.6-0.4,3.6-0.8l0.3,0.8c-0.5,0.2-1,0.3-1.5,0.4v1.8h1.4v0.8h-1.4v0.6
			c0.5,0.5,1.1,1.1,1.6,1.8l-0.5,0.7c-0.4-0.7-0.8-1.3-1.1-1.7v5.5h-0.8v-5.4c-0.4,1.1-0.9,2.1-1.5,3l-0.4-0.9
			c0.8-1,1.4-2.2,1.8-3.5h-1.6V392h1.7v-1.7c-0.5,0.1-1,0.2-1.5,0.2L178.5,389.7z M183.5,396.7c-0.2,1-0.5,1.8-0.9,2.5l-0.7-0.4
			c0.4-0.7,0.6-1.4,0.8-2.2L183.5,396.7z M183,395.8V395h4.5v-0.9h-4.3v-0.7h4.3v-0.9h-4.4v-0.7c-0.1,0.1-0.3,0.2-0.4,0.3l-0.5-0.6
			c1.1-0.8,1.9-1.7,2.3-2.8l0.8,0.1c-0.1,0.3-0.2,0.5-0.3,0.8h2.7v0.6c-0.4,0.6-0.7,1.1-1.1,1.6h1.7v4H183z M183.2,391.7h2.5
			c0.4-0.4,0.7-0.9,1.1-1.4h-2.2C184.2,390.8,183.7,391.3,183.2,391.7z M185,399.6c-0.7,0-1-0.4-1-1.1v-2.2h0.8v2
			c0,0.3,0.2,0.5,0.5,0.5h1.1c0.2,0,0.3,0,0.4-0.1c0.1-0.1,0.2-0.4,0.2-1l0.7,0.2c-0.1,0.8-0.2,1.3-0.4,1.4
			c-0.2,0.1-0.4,0.2-0.8,0.2H185z M186.8,397.6l-0.6,0.4c-0.3-0.4-0.6-0.9-1-1.5l0.6-0.4C186.2,396.7,186.5,397.2,186.8,397.6z
			 M189.3,398.7l-0.7,0.3c-0.4-0.9-0.7-1.7-1.2-2.4l0.7-0.2C188.6,397.1,189,397.9,189.3,398.7z"/>
		<path style="fill:#878787;" d="M199.2,392.3v0.8h-3v2.1h3.6v0.8h-3.6v2.5c0.8,0.1,1.8,0.2,3,0.2c0.6,0,1.2,0,1.9-0.1l-0.2,0.9
			h-1.3c-2.4,0-4.1-0.2-5.2-0.7c-0.8-0.4-1.4-0.9-1.9-1.7c-0.5,1-1,1.9-1.7,2.6l-0.5-0.7c1.1-1.2,1.9-2.9,2.3-4.9l0.8,0.1
			c-0.1,0.7-0.3,1.4-0.5,2.1c0.6,1,1.3,1.7,2.2,2c0.1,0,0.2,0.1,0.3,0.1v-5.2h-3.1v-0.8H199.2z M200.6,392.5h-0.8v-1.8h-8.1v1.8
			h-0.8v-2.6h4.6c-0.2-0.4-0.4-0.8-0.6-1.2l0.9-0.1c0.2,0.4,0.4,0.8,0.5,1.3h4.3V392.5z"/>
		<path style="fill:#878787;" d="M205.1,398c0.4,0.4,0.7,0.8,1,1.2l-0.6,0.5c-0.3-0.4-0.6-0.8-1-1.2c-0.4-0.5-0.9-0.9-1.3-1.2
			l0.5-0.5C204.2,397.1,204.7,397.5,205.1,398z"/>
		<path style="fill:#878787;" d="M62.4,407.6c0.4-0.7,0.7-1.3,1-2l0.9,0.3c-0.3,0.6-0.6,1.2-0.9,1.7h6.2v0.8h-2.4
			c-0.5,1.3-1.1,2.3-1.7,3c1.2,0.5,2.5,1.2,3.8,1.9l-0.6,0.8c-1.3-0.7-2.5-1.4-3.8-2c-1.3,1.2-3.1,1.8-5.3,1.9l-0.5-0.8
			c2,0,3.7-0.5,5-1.5c-1.1-0.5-2.2-0.9-3.3-1.3c0.4-0.7,0.8-1.3,1.2-2H59v-0.8H62.4z M69.2,406.9h-0.9v-1.7h-8.2v1.7h-0.9v-2.6h4.5
			c-0.2-0.4-0.3-0.8-0.5-1.1l1-0.2c0.2,0.4,0.4,0.8,0.5,1.3h4.4V406.9z M61.9,410.1c0.9,0.3,1.8,0.6,2.8,1c0.6-0.7,1.2-1.6,1.6-2.7
			h-3.3C62.6,409.1,62.2,409.6,61.9,410.1z"/>
		<path style="fill:#878787;" d="M76.5,403.1c1.5,1.6,3.2,2.8,5.2,3.7l-0.4,0.8c-2-1-3.7-2.2-5.1-3.7c-1.3,1.5-3,2.7-5.1,3.8
			l-0.4-0.8c2.1-1,3.8-2.3,5.2-3.8H76.5z M79.6,406.9v0.8h-2.9v2.1h3.5v0.8h-3.5v2.2h4.5v0.9h-10v-0.9h4.5v-2.2h-3.5v-0.8h3.5v-2.1
			h-2.9v-0.8H79.6z"/>
	</g>
	<circle style="fill:#878787;" cx="41" cy="394.5" r="1.5"/>
	<g transform="translate(20 9)">
		<line style="fill:none;stroke:#BABABA;" x1="19.9" y1="366" x2="196" y2="366"/>
	</g>
</g>
<g>
	<path style="fill:#CEE3FF;" d="M588,38h227v403H588V38"/>
	<g id="maingroup_65_" transform="translate(0,0)">
		<g>
			<g id="Rects1_26_" transform="translate(220,163)">
				<g transform="translate(20 9)">
					<g style="enable-background:new    ;">
						<path style="fill:#00A4FF;" d="M367.7-120h4.9v1h-2.4c-0.2,0.7-0.4,1.5-0.7,2.1h3.4v1h-10.1v2.1c-0.1,2.2-0.6,3.9-1.5,5.3
							l-0.8-0.7c0.8-1.1,1.2-2.6,1.3-4.6v-3h2.9l-0.6-2.1h-2.6v-1h5.1c-0.2-0.5-0.4-1-0.7-1.4l1.1-0.2
							C367.3-121.2,367.5-120.6,367.7-120z M368.5-116.9c0.3-0.7,0.5-1.4,0.7-2.1h-4.1l0.6,2.1H368.5z"/>
						<path style="fill:#00A4FF;" d="M380.2-108.8h-1v-0.7h-3v0.7h-1v-6.1h4.9V-108.8z M379.2-110.5v-3.4h-3v3.4H379.2z
							 M384.9-120.9v4.6h-7.7v-4.6H384.9z M383.8-119.9h-5.7v2.7h5.7V-119.9z M386.7-108.8h-1v-0.7h-3.1v0.7h-1v-6.1h5.1V-108.8z
							 M385.7-110.5v-3.4h-3.1v3.4H385.7z"/>
						<path style="fill:#00A4FF;" d="M388.8-114.6l-0.3-1c1.5-1.7,2.6-3.6,3.3-5.8l0.9,0.4c-0.3,1-0.8,2-1.3,2.9v9.5h-1v-8
							C389.9-115.9,389.4-115.2,388.8-114.6z M395.3-118c0-0.3,0-0.6,0-0.8v-2.5h1v2.5c0,0.3,0,0.6,0,0.8h4.7v1h-2.9v6.9
							c0,0.3,0.1,0.4,0.4,0.4h1.2c0.2,0,0.3-0.1,0.4-0.2c0.1-0.2,0.2-1,0.3-2.2l0.9,0.3c-0.1,1.5-0.3,2.4-0.4,2.7
							c-0.2,0.3-0.5,0.4-0.9,0.4h-1.7c-0.7,0-1.1-0.4-1.1-1.2v-7.1h-0.9c-0.3,3.7-1.5,6.5-3.5,8.4l-0.7-0.6c1.9-1.7,3-4.3,3.3-7.8
							h-2.8v-1H395.3z M400.4-119.3l-0.7,0.7c-0.5-0.6-1.2-1.2-2.2-1.9l0.7-0.6C399-120.5,399.8-119.9,400.4-119.3z"/>
						<path style="fill:#00A4FF;" d="M409.3-114.2c-0.1,0.3-0.1,0.7-0.2,1h5.1c0,2-0.2,3.2-0.5,3.7c-0.3,0.5-0.9,0.8-1.8,0.8
							c-0.6,0-1.1,0-1.5,0l-0.3-1c0.6,0.1,1.2,0.1,1.7,0.1c0.7,0,1.1-0.3,1.2-0.8c0.1-0.6,0.1-1.1,0.1-1.8h-4.4
							c-0.3,0.7-0.7,1.2-1.2,1.7c-0.9,0.8-2.3,1.5-4.4,1.9l-0.4-1c1.8-0.4,3.1-0.9,4-1.6c0.3-0.3,0.6-0.7,0.9-1.1h-4.5v-1h4.9
							c0.1-0.3,0.2-0.6,0.2-1H409.3z M405-120v-1.4h1v1.4h1.7v1H406v1.4l1.7-0.3v0.9l-1.7,0.3v1.6c0,0.7-0.4,1.1-1.1,1.1h-1.3
							l-0.2-1c0.4,0,0.8,0.1,1.2,0.1c0.3,0,0.5-0.2,0.5-0.5v-1.2c-0.6,0.1-1.3,0.2-1.9,0.3l-0.2-0.9c0.7-0.1,1.5-0.2,2.2-0.3v-1.6
							h-2v-1H405z M409.7-117.5c0.2-0.5,0.3-1,0.3-1.6h-1.7v-1h1.7v-1.4h1v1.4h2.6v2.7c0,1.5,0.2,2.2,0.6,2.2c0.2,0,0.4-0.6,0.5-1.7
							l0.8,0.4c-0.1,0.8-0.3,1.4-0.5,1.8c-0.3,0.3-0.5,0.5-0.9,0.5c-0.4,0-0.8-0.2-1.1-0.7c-0.3-0.5-0.4-1.3-0.4-2.6v-1.8H411
							c-0.1,0.8-0.2,1.4-0.4,2c0.6,0.3,1.1,0.7,1.6,1l-0.5,0.8c-0.5-0.4-1-0.7-1.4-1c-0.4,0.8-1,1.4-1.8,1.9l-0.8-0.7
							c0.7-0.5,1.3-1,1.7-1.7c-0.5-0.3-0.9-0.5-1.4-0.6l0.5-0.7C408.9-117.9,409.3-117.7,409.7-117.5z"/>
					</g>
				</g>
			</g>
		</g>
	</g>
	<g>
		<rect x="602" y="79" style="opacity:0.6;fill:#BBBBBB;enable-background:new    ;" width="201" height="103"/>
		<g>
			<rect x="600.5" y="77.5" style="fill:#FFFFFF;" width="200" height="102"/>
			<path style="fill:#E5E5E5;" d="M800,78v101H601V78H800 M801,77H600v103h201V77L801,77z"/>
		</g>
	</g>
	<g id="maingroup_63_" transform="translate(0,0)">
		<g id="Rects1_61_" transform="translate(220,163)">
			<g transform="translate(20 9)">
				<g style="enable-background:new    ;">
					<path style="fill:#444444;" d="M409.3-75.5v0.8c-0.4,1.3-0.9,2.6-1.5,4c0.9,1.2,1.3,2.4,1.4,3.4c0,0.6-0.1,1-0.4,1.3
						c-0.4,0.3-1,0.5-2,0.5l-0.3-1c0.2,0,0.4,0.1,0.5,0.1c0.5,0,0.8-0.1,1-0.2c0.2-0.1,0.2-0.3,0.2-0.6c0-1-0.5-2-1.4-3.2
						c0.6-1.5,1.1-2.8,1.5-4h-2.2v11.3h-0.9v-12.3H409.3z M412.7-75.9c-0.2,0.3-0.4,0.6-0.5,0.9h4.1v0.8c-0.4,0.9-1.1,1.7-2.1,2.4
						c0.9,0.4,2,0.7,3.2,0.9L417-70c-1.5-0.3-2.8-0.7-3.8-1.2c-1,0.5-2.3,1-3.7,1.3l-0.5-0.9c1.3-0.3,2.3-0.6,3.3-1
						c-0.6-0.4-1.1-0.9-1.5-1.4c-0.3,0.3-0.7,0.7-1.1,1l-0.6-0.8c1.1-0.8,2-1.9,2.8-3.2L412.7-75.9z M410.3-67.9l0.9,0.1l-0.4,1.4
						h2.2v-2h-3.4v-0.9h3.4v-1h1v1h2.5v0.9H414v2h3v0.9h-3v2.2h-1v-2.2h-3.4L410.3-67.9z M415.2-74.1h-3.6c-0.1,0.1-0.1,0.2-0.2,0.3
						c0.4,0.6,1,1.1,1.8,1.6C414.1-72.7,414.7-73.4,415.2-74.1z"/>
					<path style="fill:#444444;" d="M422.6-75.6c-0.3,1.1-0.8,2.1-1.3,3v9.4h-1v-7.9c-0.5,0.6-1,1.2-1.5,1.8l-0.3-1.1
						c1.5-1.7,2.6-3.6,3.2-5.7L422.6-75.6z M424-64.9c0.4-0.2,0.8-0.4,1.3-0.6l0.2,0.9c-0.7,0.3-1.6,0.6-2.6,0.9l-0.3-0.9
						c0.3-0.1,0.4-0.3,0.4-0.5v-9.2c2.9-0.4,5.2-1,6.9-1.5l0.6,0.8c-0.7,0.2-1.5,0.5-2.5,0.7c0,1.3,0.1,2.5,0.1,3.4h3v1h-2.9
						c0.1,0.6,0.1,1.1,0.2,1.6c0.2,1.2,0.5,2.2,0.8,2.8c0.3,0.6,0.5,0.9,0.7,0.9c0.2,0,0.3-0.8,0.5-2.3l0.8,0.5c-0.3,2-0.7,3-1.2,3
						c-0.4,0-0.9-0.4-1.4-1.1c-0.5-0.8-0.9-1.9-1.2-3.4c-0.1-0.6-0.2-1.2-0.3-1.9H424V-64.9z M424-73.5v2.6h3.2
						c-0.1-1-0.1-2-0.1-3.2C426.1-73.9,425.1-73.7,424-73.5z M428.1-63.8l-0.8,0.5c-0.5-0.8-1-1.7-1.8-2.6l0.7-0.5
						C427-65.4,427.7-64.5,428.1-63.8z"/>
					<path style="fill:#444444;" d="M433.3-64.4c0.2-0.1,0.3-0.3,0.3-0.6v-10.9h1v3.9h3.6v1h-3.6v6.3c1.2-0.3,2.4-0.6,3.7-1l0.3,1
						c-1.5,0.5-3.2,0.9-4.9,1.3L433.3-64.4z M440.2-65.2c0,0.4,0.2,0.6,0.6,0.6h2.1c0.3,0,0.5-0.1,0.7-0.3c0.2-0.2,0.4-1.1,0.4-2.5
						l1,0.3c-0.1,1.6-0.3,2.6-0.6,3c-0.3,0.3-0.7,0.4-1.2,0.4h-2.6c-0.9,0-1.3-0.5-1.3-1.4v-10.9h1v4.4c1.4-0.4,2.7-0.9,4-1.7
						l0.6,0.8c-1.6,0.8-3.1,1.4-4.6,1.8V-65.2z"/>
					<path style="fill:#444444;" d="M459-68.1l-0.4,0.9c-0.8-0.2-1.4-0.5-2-0.8v2.7h-1v-2.5H450v2.5h-1v-2.8
						c-0.6,0.3-1.3,0.6-2.1,0.9l-0.5-0.8c1.5-0.4,2.6-0.9,3.4-1.5h-3v-0.8h3.8v-0.8h-1.8V-72h1.8v-0.8h-2.1v-0.8h2.1v-0.8h-2.6v1.4
						h-1v-2.3h5.2c-0.2-0.3-0.3-0.5-0.5-0.8l1.1-0.2c0.2,0.3,0.3,0.6,0.5,1h5.1v2.3h-1v-1.4h-2.6v0.8h2.1v0.8h-2.1v0.8h1.8v0.7h-1.8
						v0.8h3.8v0.8h-3.1C456.3-69,457.5-68.5,459-68.1z M453.1-67.3c-0.2,1.5-0.5,2.5-1.1,3c-0.6,0.6-2,1-4.2,1.2l-0.4-0.9
						c1.9-0.1,3.1-0.4,3.7-0.9c0.6-0.5,0.9-1.3,1-2.5L453.1-67.3z M454.5-69.6h-3.6c-0.3,0.3-0.7,0.6-1.1,0.9h5.7
						C455.2-69,454.8-69.3,454.5-69.6z M451.6-74.4v0.8h2.2v-0.8H451.6z M453.9-72.8h-2.2v0.8h2.2V-72.8z M453.9-70.4v-0.8h-2.2v0.8
						H453.9z M457.9-63.9l-0.5,0.8c-1.4-0.7-2.8-1.3-4.2-1.7l0.5-0.7C455.2-65.1,456.6-64.5,457.9-63.9z"/>
					<path style="fill:#444444;" d="M465.3-71.8c0.3-0.4,0.5-0.7,0.6-1.1c-1.2,0.1-2.5,0.1-3.8,0.1l-0.2-0.9c0.9-0.2,2-1,3.4-2.4
						l1,0.3c-0.8,0.8-1.6,1.5-2.4,2c1.9-0.1,3.6-0.2,5.3-0.3c-0.4-0.4-0.8-0.7-1.3-1.1l0.8-0.5c1.4,1.1,2.4,2,3.2,2.8l-0.8,0.6
						c-0.3-0.3-0.6-0.7-0.9-1c-1,0.1-2,0.1-3.1,0.2c-0.2,0.4-0.3,0.8-0.6,1.2h6.4v0.9h-3.5c0.8,0.8,2.1,1.5,3.8,2l-0.4,0.9
						c-2.1-0.8-3.6-1.7-4.5-2.9h-2.5c-1.1,1.2-2.7,2.2-4.9,3l-0.5-0.9c1.8-0.5,3.1-1.2,4.1-2.1h-3.8v-0.9H465.3z M471.2-67.9
						c-1.3,2.3-4.1,3.9-8.3,4.8l-0.6-0.8c4.2-0.9,6.9-2.4,8-4.4L471.2-67.9z M469.3-68.7c-1.6,1.9-3.7,3-6.2,3.5l-0.6-0.8
						c2.6-0.4,4.6-1.5,6-3.2L469.3-68.7z M467.5-70c-0.9,1.2-2.4,2.1-4.3,2.8l-0.4-0.8c1.8-0.6,3.1-1.4,4-2.5L467.5-70z"/>
					<path style="fill:#444444;" d="M482.2-67.7v1h-7.9v-1H482.2z M477.8-76l-0.2,1.9h8.4v1h-8.5l-0.2,2.3h7.8c0,3.8-0.3,6-0.8,6.6
						c-0.5,0.6-1.6,0.9-3.3,0.9c-0.4,0-0.9,0-1.4-0.1l-0.3-0.9c0.7,0.1,1.2,0.1,1.4,0.1c1.6,0,2.5-0.3,2.8-0.8
						c0.3-0.6,0.5-2.2,0.5-4.9h-7.9l0.7-6.1L477.8-76z"/>
					<path style="fill:#444444;" d="M489.9-73.7v10.5h-1v-10.5H489.9z M492.7-73.6l-0.9,0.5c-0.5-1-1.1-1.8-1.7-2.6l0.9-0.4
						C491.6-75.4,492.2-74.6,492.7-73.6z M497.5-63.3l-0.2-0.9l1.2,0c0.4,0,0.6-0.3,0.6-0.8v-9.4h-5.3v-0.9h6.3v10.6
						c0,1-0.5,1.4-1.4,1.4H497.5z"/>
					<path style="fill:#444444;" d="M504.8-63.2h-0.9v-6.9c-0.4,1.3-0.9,2.4-1.5,3.5l-0.4-1.1c0.9-1.3,1.5-2.8,1.9-4.6h-1.5v-0.9
						h1.6V-76h0.9v2.8h1.4v0.9h-1.4v0.9c0.6,0.6,1.1,1.4,1.7,2.2l-0.5,0.8c-0.4-0.8-0.8-1.4-1.2-1.9V-63.2z M514.1-64.5h0.9v0.9h-9
						v-0.9h1v-4.1h7.2V-64.5z M507.8-75v4.9h-0.9V-75H507.8z M509.1-64.5v-3.2h-1.2v3.2H509.1z M509.8-76v6.6h-0.9V-76H509.8z
						 M511.1-64.5v-3.2H510v3.2H511.1z M510.7-70.4l-0.7-0.8c0.8-1.2,1.4-2.8,1.7-4.8l0.9,0.2c-0.1,0.6-0.2,1.2-0.3,1.7h2.5v0.9H512
						C511.7-72.1,511.2-71.2,510.7-70.4z M513.2-64.5v-3.2H512v3.2H513.2z M514.4-70l-0.8,0.5c-0.4-0.7-0.9-1.4-1.6-2.3l0.7-0.5
						C513.5-71.3,514-70.6,514.4-70z"/>
				</g>
			</g>
		</g>
	</g>
	<g style="enable-background:new    ;">
		<rect x="625.5" y="140.2" style="fill:none;" width="162.5" height="27.8"/>
		<path style="fill:#878787;" d="M629.6,149h-2.3v0.9h-0.9v-8.1h3.2V149z M628.8,148.2v-5.7h-1.5v5.7H628.8z M630.2,142v-0.9h5.5
			v0.6c-0.2,1.1-0.4,2-0.6,2.8h1.4v0.5c-0.3,1.6-0.8,3-1.7,4.1c0.7,0.7,1.4,1.3,2.3,1.8l-0.6,0.7c-0.9-0.6-1.7-1.2-2.3-1.9
			c-0.7,0.8-1.7,1.4-2.7,1.9l-0.5-0.8c1-0.5,1.9-1.1,2.6-1.8c-0.7-0.9-1.3-1.9-1.6-3.1c-0.4,2.4-1.2,4.3-2.4,5.6l-0.7-0.6
			c1.6-1.6,2.4-4.2,2.4-7.8V142H630.2z M635.6,145.3H634c0.2-0.7,0.5-1.8,0.8-3.2h-2.5v1.2c0,0.3,0,0.5,0,0.8c0.3,1.7,1,3.2,2,4.5
			C634.9,147.5,635.4,146.5,635.6,145.3z"/>
		<path style="fill:#878787;" d="M639.3,146.6h4.7c0,2-0.1,3.3-0.3,3.9c-0.2,0.7-0.9,1-2.2,1.1c-0.4,0-0.7,0-1.1,0l-0.2-0.8
			c0.4,0,0.8,0,1.2,0c0.9,0,1.5-0.2,1.6-0.6c0.1-0.4,0.2-1.4,0.2-2.8h-4.7l0.6-3.6h4V142h-4.4v-0.8h5.2v3.5h-4.1L639.3,146.6z
			 M647.6,140.7v11h-0.9v-11H647.6z"/>
		<path style="fill:#878787;" d="M660.6,141.2v0.8h-4.7v1h3.7v4.7h-3.9c-0.1,0.8-0.4,1.4-0.7,1.9c1.7,0.7,3.7,1.1,6,1.2l-0.2,0.8
			c-2.4-0.1-4.5-0.6-6.3-1.4c-0.8,0.7-2.2,1.2-4.1,1.4l-0.4-0.8c1.7-0.1,2.9-0.5,3.7-1c-0.7-0.4-1.3-0.8-1.9-1.3l0.7-0.5
			c0.6,0.5,1.2,0.9,1.9,1.2c0.3-0.4,0.5-0.9,0.6-1.5h-3.5V143h3.7v-1h-4.7v-0.8H660.6z M655.1,145v-1.3h-2.8v1.3H655.1z
			 M655.1,146.2v-0.4h-2.8v1.3h2.8C655.1,146.7,655.1,146.5,655.1,146.2z M658.8,145.8h-2.9v0.4l0,0.9h2.9V145.8z M655.9,145h2.9
			v-1.3h-2.9V145z"/>
		<path style="fill:#878787;" d="M668.3,149.7c1.3-0.6,2.4-1.4,3.1-2.5h-3.5c-1.1,0.5-2.3,0.9-3.8,1.1l-0.5-0.8
			c2.6-0.3,4.5-1.1,5.8-2.4l0.7,0.4c-0.3,0.3-0.6,0.6-0.9,0.8h3.3v0.7c-1.7,2.8-4.9,4.3-9.5,4.4l-0.3-0.8c1.9,0,3.5-0.2,4.8-0.7
			c-0.4-0.5-0.8-1-1.3-1.5l0.8-0.4C667.4,148.6,667.9,149.1,668.3,149.7z M668.2,141.1c-0.2,0.2-0.4,0.5-0.7,0.7h3.4v0.7
			c-1.3,2.3-3.7,3.6-7.2,3.9l-0.4-0.8c1.1-0.1,2-0.2,2.9-0.5c-0.4-0.5-0.8-0.9-1.2-1.2l0.8-0.4c0.4,0.4,0.8,0.8,1.2,1.3
			c1.2-0.5,2.2-1.3,2.9-2.2h-3.5c-0.9,0.6-2,1-3.3,1.3l-0.5-0.8c2.1-0.4,3.7-1.2,4.8-2.3L668.2,141.1z"/>
		<path style="fill:#878787;" d="M677.5,141.2c-0.7,1.3-1.8,2.5-3.2,3.5l-0.3-0.9c1.2-0.9,2.1-1.9,2.7-3L677.5,141.2z M678,143.9
			c-0.3,0.7-0.8,1.3-1.3,1.9v5.9h-0.9v-5c-0.5,0.4-1,0.9-1.6,1.2l-0.3-0.9c1.5-1,2.5-2.2,3.2-3.5L678,143.9z M684.9,144.5v0.9h-1.9
			v5.2c0,0.7-0.4,1-1.2,1H680l-0.2-0.9c0.6,0,1.1,0.1,1.6,0.1c0.4,0,0.6-0.2,0.6-0.5v-5h-3.8v-0.9H684.9z M684.3,141.5v0.9h-5.7
			v-0.9H684.3z"/>
		<path style="fill:#878787;" d="M690.6,140.8v9.5h1.7v-9.5h0.9v9.5h3.6v0.8h-10.6v-0.8h3.6v-9.5H690.6z M688.9,148.6l-0.8,0.2
			c-0.4-1.9-1-3.8-1.6-5.5l0.7-0.2C687.8,144.6,688.4,146.5,688.9,148.6z M696.5,143.2c-0.5,2.1-1.1,3.9-1.8,5.5l-0.8-0.3
			c0.7-1.4,1.3-3.2,1.8-5.4L696.5,143.2z"/>
		<path style="fill:#878787;" d="M702.3,151h-0.8v-0.7h-2.2v1h-0.8v-8.5h1.1c0.2-0.7,0.4-1.4,0.5-2.1l0.9,0.1
			c-0.1,0.7-0.3,1.4-0.6,2h1.9V151z M701.5,146.1v-2.5h-2.2v2.5H701.5z M701.5,149.5v-2.6h-2.2v2.6H701.5z M708.4,150.2
			c-0.1,0.9-0.7,1.4-1.7,1.4c-0.2,0-0.6,0-1.2,0l-0.2-0.8c0.5,0,0.9,0,1.3,0c0.6,0,0.9-0.3,1-0.9c0.1-0.7,0.1-2.7,0.1-6.2h-3.3
			c-0.3,0.8-0.7,1.4-1.2,2.1l-0.5-0.7c0.8-1.2,1.4-2.6,1.7-4.3l0.9,0.1c-0.1,0.7-0.3,1.4-0.5,2h3.8
			C708.5,146.8,708.5,149.2,708.4,150.2z M706.4,148.2l-0.7,0.5c-0.5-0.8-1.2-1.7-2-2.7l0.7-0.4
			C705.3,146.6,705.9,147.4,706.4,148.2z"/>
		<path style="fill:#878787;" d="M714.3,144.3c0.2-0.3,0.4-0.6,0.5-1c-1.1,0-2.2,0.1-3.3,0.1l-0.1-0.8c0.8-0.2,1.8-0.9,3-2.1
			l0.8,0.3c-0.7,0.7-1.4,1.3-2.1,1.7c1.6,0,3.1-0.1,4.6-0.2c-0.3-0.3-0.7-0.6-1.1-0.9l0.7-0.4c1.2,0.9,2.1,1.7,2.7,2.4l-0.7,0.5
			c-0.2-0.3-0.5-0.6-0.8-0.9c-0.9,0-1.8,0.1-2.7,0.2c-0.1,0.3-0.3,0.7-0.5,1h5.5v0.8h-3c0.7,0.7,1.8,1.3,3.3,1.7l-0.4,0.8
			c-1.8-0.6-3.1-1.5-3.9-2.5h-2.2c-0.9,1-2.3,1.9-4.2,2.6l-0.4-0.8c1.5-0.4,2.7-1,3.5-1.8h-3.3v-0.8H714.3z M719.4,147.7
			c-1.1,2-3.5,3.3-7.2,4.1l-0.5-0.7c3.6-0.8,5.9-2,6.9-3.8L719.4,147.7z M717.7,147c-1.4,1.6-3.2,2.6-5.3,3l-0.5-0.7
			c2.2-0.4,3.9-1.3,5.2-2.8L717.7,147z M716.2,145.9c-0.8,1-2.1,1.8-3.7,2.4l-0.4-0.7c1.6-0.5,2.7-1.2,3.4-2.1L716.2,145.9z"/>
		<path style="fill:#878787;" d="M732.9,147.5l-0.3,0.7c-0.6-0.2-1.2-0.4-1.7-0.7v2.3H730v-2.1h-4.8v2.1h-0.8v-2.4
			c-0.5,0.3-1.1,0.5-1.8,0.8l-0.4-0.7c1.3-0.3,2.3-0.8,2.9-1.3h-2.6v-0.7h3.3v-0.7h-1.5v-0.6h1.5v-0.7h-1.8v-0.7h1.8v-0.7h-2.2v1.2
			h-0.8v-1.9h4.5c-0.1-0.2-0.3-0.5-0.5-0.7l0.9-0.2c0.1,0.2,0.3,0.5,0.4,0.8h4.4v1.9h-0.8v-1.2h-2.2v0.7h1.8v0.7h-1.8v0.7h1.6v0.6
			h-1.6v0.7h3.3v0.7h-2.7C730.6,146.7,731.6,147.2,732.9,147.5z M727.8,148.2c-0.1,1.3-0.5,2.1-0.9,2.6c-0.5,0.5-1.7,0.9-3.6,1
			L723,151c1.6-0.1,2.7-0.3,3.2-0.8c0.5-0.4,0.8-1.1,0.8-2.1L727.8,148.2z M729,146.2h-3.1c-0.3,0.3-0.6,0.6-0.9,0.8h4.9
			C729.6,146.8,729.3,146.5,729,146.2z M726.5,142.1v0.7h1.9v-0.7H726.5z M728.5,143.4h-1.9v0.7h1.9V143.4z M728.5,145.5v-0.7h-1.9
			v0.7H728.5z M731.9,151.1l-0.4,0.7c-1.2-0.6-2.4-1.1-3.6-1.5l0.4-0.6C729.6,150.1,730.8,150.5,731.9,151.1z"/>
		<path style="fill:#878787;" d="M738.5,141.9v-1.3h0.9v1.3h2.8v0.8h-2.8v1.4h1.5c1.1-0.8,2.1-1.7,3-2.7l0.7,0.5
			c-0.7,0.8-1.5,1.6-2.3,2.2h2.6v0.8h-3.7c-0.2,0.1-0.4,0.2-0.5,0.3c-0.6,0.3-1.2,0.7-1.9,1h4.5v5.4h-0.9v-0.5h-5.2v0.5h-0.9v-4.4
			c-0.6,0.2-1.3,0.5-2,0.7l-0.4-0.8c2.1-0.5,3.9-1.2,5.6-2.2h-5.5v-0.8h4.4v-1.4h-3.3v-0.8H738.5z M742.5,147.1h-5.2v1.3h5.2V147.1z
			 M737.3,150.4h5.2v-1.3h-5.2V150.4z"/>
	</g>
	<circle style="fill:#878787;" cx="614.5" cy="146.5" r="1.5"/>
	<g transform="translate(20 9)">
		<line style="fill:none;stroke:#BABABA;" x1="593" y1="118" x2="768.9" y2="118"/>
	</g>
	<g>
		<rect x="602" y="196" style="opacity:0.6;fill:#BBBBBB;enable-background:new    ;" width="201" height="117"/>
		<g>
			<rect x="600.5" y="194.5" style="fill:#FFFFFF;" width="200" height="116"/>
			<path style="fill:#E5E5E5;" d="M800,195v115H601V195H800 M801,194H600v117h201V194L801,194z"/>
		</g>
	</g>
	<g id="maingroup_62_" transform="translate(0,0)">
		<g id="Rects1_58_" transform="translate(220,163)">
			<g transform="translate(20 9)">
				<g style="enable-background:new    ;">
					<path style="fill:#444444;" d="M411.5,41v1.8h5.5v1h-5.5v2.1h3.7v0.9c-0.8,1.6-1.9,2.9-3.4,4c0.7,0.4,1.5,0.8,2.3,1.1
						c1,0.4,2,0.7,3.2,1l-0.6,0.9c-1.2-0.3-2.3-0.7-3.4-1.2c-0.9-0.4-1.6-0.8-2.3-1.2c-1.6,1-3.5,1.8-5.7,2.4l-0.6-0.9
						c2.1-0.5,3.9-1.2,5.4-2.1c-0.7-0.5-1.4-1.2-1.9-1.9c-0.5-0.6-0.9-1.4-1.1-2.1h-1.1v-0.9h4.4v-2.1H405v-1h5.4V41H411.5z
						 M414.1,46.8h-5.9c0.3,0.7,0.6,1.4,1.2,2c0.5,0.6,1,1.1,1.7,1.5C412.3,49.3,413.3,48.2,414.1,46.8z"/>
					<path style="fill:#444444;" d="M419,53.7l-0.2-1c0.4,0,0.7,0.1,1.1,0.1c0.4,0,0.6-0.2,0.6-0.6v-3.3c-0.5,0.2-1.1,0.4-1.6,0.5
						l-0.3-1c0.6-0.2,1.3-0.3,1.9-0.6v-3.2h-1.7v-1h1.7v-2.5h1v2.5h1.4v1h-1.4v2.8c0.5-0.2,1-0.5,1.5-0.7v1c-0.5,0.3-1,0.5-1.5,0.7
						v4c0,0.8-0.4,1.3-1.2,1.3H419z M428.4,47.7v-1.1h1v1.1h1.7v0.9h-1.7v3.8c0,0.8-0.4,1.2-1.2,1.2h-1.9l-0.2-1
						c0.6,0,1.2,0.1,1.7,0.1c0.4,0,0.6-0.2,0.6-0.6v-3.5h-5.1v-0.9H428.4z M427.7,41v1.5h2.9v0.9h-2.9V45h3.4v1h-7.6v-1h3.2v-1.6
						H424v-0.9h2.7V41H427.7z M426.4,51.6l-0.8,0.6c-0.4-0.7-1-1.5-1.7-2.3l0.8-0.5C425.4,50.2,426,51,426.4,51.6z"/>
					<path style="fill:#444444;" d="M437.4,45.2c0.3-0.4,0.5-0.7,0.6-1.1c-1.2,0.1-2.5,0.1-3.8,0.1l-0.2-0.9c0.9-0.2,2-1,3.4-2.4
						l1,0.3c-0.8,0.8-1.6,1.5-2.4,2c1.9-0.1,3.6-0.2,5.3-0.3c-0.4-0.4-0.8-0.7-1.3-1.1l0.8-0.5c1.4,1.1,2.4,2,3.2,2.8l-0.8,0.6
						c-0.3-0.3-0.6-0.7-0.9-1c-1,0.1-2,0.1-3.1,0.2c-0.2,0.4-0.3,0.8-0.6,1.2h6.4v0.9h-3.5c0.8,0.8,2.1,1.5,3.8,2l-0.4,0.9
						c-2.1-0.8-3.6-1.7-4.5-2.9h-2.5c-1.1,1.2-2.7,2.2-4.9,3l-0.5-0.9c1.8-0.5,3.1-1.2,4.1-2.1h-3.8v-0.9H437.4z M443.4,49.1
						c-1.3,2.3-4.1,3.9-8.3,4.8l-0.6-0.8c4.2-0.9,6.9-2.4,8-4.4L443.4,49.1z M441.4,48.3c-1.6,1.9-3.7,3-6.2,3.5l-0.6-0.8
						c2.6-0.4,4.6-1.5,6-3.2L441.4,48.3z M439.6,47c-0.9,1.2-2.4,2.1-4.3,2.8l-0.4-0.8c1.8-0.6,3.1-1.4,4-2.5L439.6,47z"/>
					<path style="fill:#444444;" d="M459,48.9l-0.4,0.9c-0.8-0.2-1.4-0.5-2-0.8v2.7h-1v-2.5H450v2.5h-1v-2.8
						c-0.6,0.3-1.3,0.6-2.1,0.9l-0.5-0.8c1.5-0.4,2.6-0.9,3.4-1.5h-3v-0.8h3.8v-0.8h-1.8V45h1.8v-0.8h-2.1v-0.8h2.1v-0.8h-2.6V44h-1
						v-2.3h5.2c-0.2-0.3-0.3-0.5-0.5-0.8l1.1-0.2c0.2,0.3,0.3,0.6,0.5,1h5.1V44h-1v-1.4h-2.6v0.8h2.1v0.8h-2.1V45h1.8v0.7h-1.8v0.8
						h3.8v0.8h-3.1C456.3,48,457.5,48.5,459,48.9z M453.1,49.7c-0.2,1.5-0.5,2.5-1.1,3c-0.6,0.6-2,1-4.2,1.2l-0.4-0.9
						c1.9-0.1,3.1-0.4,3.7-0.9c0.6-0.5,0.9-1.3,1-2.5L453.1,49.7z M454.5,47.4h-3.6c-0.3,0.3-0.7,0.6-1.1,0.9h5.7
						C455.2,48,454.8,47.7,454.5,47.4z M451.6,42.6v0.8h2.2v-0.8H451.6z M453.9,44.2h-2.2V45h2.2V44.2z M453.9,46.6v-0.8h-2.2v0.8
						H453.9z M457.9,53.1l-0.5,0.8c-1.4-0.7-2.8-1.3-4.2-1.7l0.5-0.7C455.2,51.9,456.6,52.5,457.9,53.1z"/>
					<path style="fill:#444444;" d="M465.6,42.4v-1.5h1v1.5h3.3v0.9h-3.3V45h1.8c1.3-0.9,2.5-2,3.5-3.2l0.8,0.6
						c-0.8,1-1.7,1.9-2.6,2.6h3v1h-4.2c-0.2,0.1-0.4,0.3-0.6,0.4c-0.6,0.4-1.4,0.8-2.2,1.1h5.3v6.3h-1v-0.6h-6v0.6h-1v-5.2
						c-0.8,0.3-1.5,0.5-2.3,0.8l-0.4-0.9c2.4-0.6,4.6-1.4,6.5-2.6h-6.3v-1h5.1v-1.7h-3.8v-0.9H465.6z M470.1,48.4h-6v1.5h6V48.4z
						 M464.1,52.3h6v-1.5h-6V52.3z"/>
					<path style="fill:#444444;" d="M479.3,52.9h-1v-0.8h-2.5v1.2h-1v-10h1.3c0.3-0.8,0.5-1.6,0.6-2.4l1,0.1
						c-0.2,0.8-0.4,1.6-0.7,2.3h2.2V52.9z M478.3,47.2v-2.9h-2.5v2.9H478.3z M478.3,51.2v-3.1h-2.5v3.1H478.3z M486.3,52
						c-0.1,1.1-0.8,1.6-2,1.6c-0.3,0-0.8,0-1.4-0.1l-0.2-0.9c0.6,0,1.1,0,1.5,0c0.7,0,1-0.4,1.1-1.1c0.1-0.8,0.1-3.2,0.2-7.2h-3.8
						c-0.4,0.9-0.8,1.7-1.4,2.4l-0.6-0.8c1-1.4,1.6-3.1,2-5l1,0.1c-0.2,0.8-0.4,1.6-0.6,2.3h4.4C486.5,48,486.4,50.9,486.3,52z
						 M484,49.7l-0.8,0.6c-0.6-0.9-1.3-2-2.3-3.1l0.8-0.5C482.7,47.8,483.5,48.8,484,49.7z"/>
					<path style="fill:#444444;" d="M489.1,44.5l-0.9-0.5c0.9-1,1.5-2,1.9-3.2l1,0.2c-0.1,0.4-0.3,0.8-0.5,1.1h3.6V43H492
						c0.3,0.5,0.6,1,0.9,1.4l-0.9,0.3c-0.3-0.6-0.6-1.2-1-1.8h-0.7C489.9,43.5,489.5,44,489.1,44.5z M494,45.1v-1h1v1h5.6V46h-5.6
						v1.1h4.6v2.6c0,0.7-0.4,1.1-1.1,1.1h-0.9l-0.2-0.9l0.9,0c0.3,0,0.4-0.2,0.4-0.4V48h-3.6v1.2c1.5,1.4,3.5,2.5,5.9,3.3l-0.5,0.9
						c-2.1-0.8-3.9-1.9-5.4-3.3v3.6h-1v-3.5c-1.5,1.4-3.1,2.5-5,3.3l-0.6-0.9c2.2-0.8,4.1-2,5.6-3.5V48h-3.3v2.8h-1v-3.7h4.3V46
						h-5.6v-0.9H494z M495.3,44.3l-0.8-0.6c0.6-0.9,1.1-1.9,1.4-2.9l1,0.2c-0.1,0.4-0.2,0.7-0.3,1.1h4.2V43H498
						c0.3,0.5,0.6,1,0.8,1.4l-0.9,0.3c-0.3-0.6-0.6-1.2-1-1.8h-0.9C495.8,43.4,495.6,43.9,495.3,44.3z"/>
					<path style="fill:#444444;" d="M503.5,52.6h-0.9V41.9h4.6v5.8c1.3-0.5,2.4-1.1,3.2-1.8c-0.6-0.6-1.1-1.2-1.5-1.8
						c-0.3,0.5-0.7,0.9-1.1,1.3l-0.7-0.8c1-0.9,1.8-2.2,2.4-3.7l1,0.2c-0.2,0.4-0.3,0.7-0.5,1.1h3.8V43c-0.5,1.1-1.2,2.1-2.1,3
						c0.9,0.6,1.9,1.2,3.1,1.6l-0.4,0.9c-1.3-0.6-2.4-1.2-3.3-1.9c-1,0.8-2.1,1.4-3.5,2l-0.5-0.7v4.7h-0.9V52h-2.9V52.6z
						 M503.5,42.9v3.6h1v-3.6H503.5z M503.5,51.1h1v-3.7h-1V51.1z M506.4,42.9h-1v3.6h1V42.9z M506.4,47.4h-1v3.7h1V47.4z
						 M513.8,53.7h-1v-0.6h-3.5v0.6h-1v-5.2h5.4V53.7z M512.9,52.2v-2.7h-3.5v2.7H512.9z M512.8,43.2h-3.2c-0.1,0.1-0.1,0.1-0.1,0.2
						c0.4,0.7,0.9,1.4,1.6,2C511.8,44.7,512.4,44,512.8,43.2z"/>
					<path style="fill:#444444;" d="M519.2,53.7h-1v-7.1c-0.5,1.4-1.1,2.7-1.9,3.9l-0.4-1.1c1-1.4,1.8-3,2.2-4.7h-1.9v-1h2V41h1v2.7
						h1.7v1h-1.7v0.9c0.6,0.7,1.3,1.4,2,2.2l-0.6,0.9c-0.5-0.8-1-1.5-1.4-2V53.7z M523.7,41.1c-0.1,0.7-0.2,1.3-0.4,1.9h4.9
						c0,4.8-0.1,7.8-0.2,9c-0.2,1.1-0.8,1.7-2,1.7c-0.3,0-0.8,0-1.5,0l-0.2-0.9c0.6,0,1.1,0.1,1.6,0.1c0.7,0,1.1-0.4,1.2-1.1
						c0.1-0.8,0.2-3.4,0.2-7.7H523c-0.4,1.1-0.9,2-1.4,2.9L521,46c0.9-1.4,1.5-3.1,1.8-5L523.7,41.1z M521.4,49.9
						c0.4-0.2,1.1-1.7,2.1-4.5l0.9,0.3c-0.7,1.9-1.2,3.2-1.6,3.9c0.8-0.2,1.6-0.3,2.3-0.5c-0.2-0.6-0.4-1.1-0.6-1.6l0.8-0.3
						c0.5,1.1,0.9,2.3,1.3,3.5l-0.9,0.4c-0.1-0.4-0.2-0.9-0.4-1.3c-1.1,0.3-2.3,0.6-3.7,0.9L521.4,49.9z"/>
					<path style="fill:#444444;" d="M533.5,48.7h-1v-3.8c-0.6,1.1-1.3,2.2-2.2,3.1l-0.4-1c1.1-1,1.9-2.1,2.6-3.5h-2.3v-0.9h2.3v-1.6
						h1v1.6h1.9v0.9h-1.9v0.7c0.7,0.5,1.5,1.1,2.2,1.8l-0.6,0.8c-0.6-0.7-1.2-1.3-1.7-1.7V48.7z M532.4,49.7
						c-0.4,1.3-0.9,2.5-1.5,3.5l-0.9-0.5c0.6-1,1.1-2,1.4-3.2L532.4,49.7z M534.7,53.5c-0.9,0-1.3-0.5-1.3-1.4v-2.8h1v2.6
						c0,0.4,0.2,0.6,0.6,0.6h3c0.3,0,0.5-0.1,0.7-0.2c0.2-0.2,0.3-0.7,0.3-1.6L540,51c-0.1,1.2-0.3,1.9-0.6,2.1
						c-0.2,0.2-0.6,0.3-1.2,0.3H534.7z M537.8,50.9l-0.8,0.6c-0.4-0.6-0.9-1.2-1.5-1.9l0.8-0.5C536.9,49.7,537.5,50.4,537.8,50.9z
						 M541.6,41.5v6.9h-5.3v-6.9H541.6z M540.6,43.6v-1.2h-3.4v1.2H540.6z M540.6,45.6v-1.1h-3.4v1.1H540.6z M540.6,46.4h-3.4v1.2
						h3.4V46.4z M542.8,52.2l-0.8,0.6c-0.5-1-1.2-2-2.1-3.2l0.8-0.5C541.5,50.3,542.2,51.3,542.8,52.2z"/>
				</g>
			</g>
		</g>
	</g>
	<g style="enable-background:new    ;">
		<rect x="625.5" y="257.2" style="fill:none;" width="162.5" height="40.8"/>
		<path style="fill:#878787;" d="M631.9,268.5c-0.8,0-1.4-0.1-1.9-0.2c-0.5-0.1-0.9-0.4-1.3-0.9c-0.2-0.2-0.3-0.3-0.5-0.3
			c-0.3,0-0.8,0.6-1.4,1.7l-0.6-0.6c0.6-1,1.2-1.6,1.7-1.8v-3.6h-1.7v-0.8h2.5v4.5c0.1,0.1,0.2,0.2,0.3,0.3c0.3,0.3,0.6,0.6,0.9,0.8
			c0.4,0.2,0.9,0.3,1.6,0.3c0.6,0,1.4,0,2.4,0c0.6,0,1.1,0,1.7,0c0.6,0,1,0,1.3,0l-0.2,0.9H634C633.4,268.5,632.6,268.5,631.9,268.5
			z M629.1,259.8l-0.6,0.6c-0.5-0.6-1.2-1.2-2.1-1.9l0.6-0.6C627.8,258.5,628.5,259.1,629.1,259.8z M633.3,259.9
			c0.6-0.3,1.2-0.7,1.7-1.1h-5.3v-0.7h6.5v0.6c-0.7,0.6-1.5,1.2-2.3,1.6l0.2,0.2h2.4v5.4c0,0.6-0.3,0.9-1,0.9h-1l-0.2-0.7l0.9,0
			c0.3,0,0.4-0.1,0.4-0.4v-0.9h-2v2.1h-0.8v-2.1h-2v2.1h-0.8v-6.4h3c-0.5-0.3-1-0.6-1.6-1l0.5-0.5
			C632.4,259.3,632.9,259.6,633.3,259.9z M632.7,261.2h-2v1.1h2V261.2z M630.7,264.1h2V263h-2V264.1z M635.6,261.2h-2v1.1h2V261.2z
			 M633.5,264.1h2V263h-2V264.1z"/>
		<path style="fill:#878787;" d="M644,268.5c-0.8,0-1.5-0.1-2-0.2c-0.5-0.1-0.9-0.4-1.3-0.9c-0.2-0.2-0.3-0.3-0.5-0.3
			c-0.3,0-0.8,0.6-1.5,1.7l-0.6-0.6c0.6-1,1.2-1.7,1.7-1.9v-3.6h-1.7v-0.8h2.6v4.5c0.1,0.1,0.2,0.2,0.3,0.3c0.3,0.3,0.6,0.6,1,0.8
			c0.4,0.2,1,0.2,1.7,0.3c0.7,0,1.5,0,2.5,0c0.5,0,1.1,0,1.6,0c0.5,0,1,0,1.2,0l-0.2,0.9h-2.5C645.6,268.5,644.8,268.5,644,268.5z
			 M641,259.8l-0.6,0.6c-0.5-0.6-1.2-1.3-2-2l0.6-0.6C639.8,258.5,640.5,259.1,641,259.8z M644.2,266.9L644,266
			c0.6,0,1.1,0.1,1.6,0.1c0.3,0,0.5-0.2,0.5-0.5v-5.1h-4.5v-0.9h4.5v-1.9h0.9v1.9h1.8v0.9H647v5.3c0,0.7-0.4,1.1-1.1,1.1H644.2z
			 M644.7,263.9l-0.7,0.5c-0.4-0.7-1-1.5-1.7-2.4l0.7-0.4C643.7,262.5,644.3,263.3,644.7,263.9z"/>
		<path style="fill:#878787;" d="M650.5,261.7L650,261c1.1-1,1.9-2.1,2.4-3.4l0.8,0.2c-0.1,0.3-0.3,0.6-0.4,0.9h2.6
			c-0.2-0.4-0.3-0.7-0.5-1l0.9-0.1c0.2,0.3,0.3,0.7,0.5,1.2h3.9v0.7h-3.8v0.8h3.4v0.7h-3.4v0.8h3.4v0.7h-3.4v0.9h4v0.7h-8.8v-3.4
			C651.2,261,650.9,261.4,650.5,261.7z M650.3,265.8V265h4.8v-0.6h0.9v0.6h4.7v0.8H657c0.8,0.8,2.1,1.4,3.8,1.8l-0.4,0.8
			c-2-0.7-3.4-1.5-4.2-2.6H656v2.9h-0.9v-2.9h-0.2c-0.8,1-2.2,1.9-4.2,2.7l-0.5-0.7c1.8-0.6,3.1-1.2,3.8-1.9H650.3z M655.4,259.5
			h-3.1l-0.1,0.1v0.7h3.1V259.5z M655.4,261h-3.1v0.8h3.1V261z M655.4,262.5h-3.1v0.9h3.1V262.5z"/>
		<path style="fill:#878787;" d="M671.9,259l-0.6,0.6h1.5v0.8h-3.7c0.1,1.5,0.2,2.7,0.5,3.5c0.1,0.3,0.2,0.6,0.2,0.8
			c0.6-1,1.1-2.1,1.5-3.4l0.8,0.3c-0.5,1.6-1.1,2.9-1.9,4c0.2,0.4,0.3,0.7,0.5,1c0.4,0.6,0.7,0.9,1,0.9c0.2,0,0.4-0.6,0.6-1.9
			l0.8,0.4c-0.3,1.6-0.7,2.4-1.2,2.4c-0.5,0-1-0.4-1.6-1.1c-0.2-0.3-0.4-0.6-0.6-1c-0.8,1-1.8,1.7-3,2.2l-0.5-0.7
			c1.2-0.5,2.2-1.3,3-2.4c-0.2-0.4-0.3-0.9-0.5-1.4c-0.3-1-0.4-2.3-0.5-3.8h-4.1v2h2.9c0,2-0.1,3.3-0.3,3.9
			c-0.2,0.5-0.5,0.8-1.1,0.8c-0.3,0-0.6,0-1,0l-0.3-0.8c0.5,0,0.9,0,1.2,0c0.3,0,0.4-0.2,0.5-0.5c0.1-0.4,0.1-1.3,0.1-2.6h-2.1v0.4
			c0,2.1-0.5,3.9-1.4,5.2l-0.7-0.6c0.8-1.1,1.2-2.6,1.2-4.6v-4h5c0-0.6,0-1.2,0-1.9h0.9c0,0.7,0,1.3,0,1.9h2.2
			c-0.4-0.4-0.8-0.9-1.5-1.3l0.6-0.5C671,258.1,671.5,258.5,671.9,259z"/>
		<path style="fill:#878787;" d="M678.3,268h-0.8v-0.7h-2.2v1h-0.8v-8.5h1.1c0.2-0.7,0.4-1.4,0.5-2.1l0.9,0.1
			c-0.1,0.7-0.3,1.4-0.6,2h1.9V268z M677.5,263.1v-2.5h-2.2v2.5H677.5z M677.5,266.5v-2.6h-2.2v2.6H677.5z M684.4,267.2
			c-0.1,0.9-0.7,1.4-1.7,1.4c-0.2,0-0.6,0-1.2,0l-0.2-0.8c0.5,0,0.9,0,1.3,0c0.6,0,0.9-0.3,1-0.9c0.1-0.7,0.1-2.7,0.1-6.2h-3.3
			c-0.3,0.8-0.7,1.4-1.2,2.1l-0.5-0.7c0.8-1.2,1.4-2.6,1.7-4.3l0.9,0.1c-0.1,0.7-0.3,1.4-0.5,2h3.8
			C684.5,263.8,684.5,266.2,684.4,267.2z M682.4,265.2l-0.7,0.5c-0.5-0.8-1.2-1.7-2-2.7l0.7-0.4
			C681.3,263.6,681.9,264.4,682.4,265.2z"/>
		<path style="fill:#878787;" d="M695.5,260.4v4.7h-1.4v0.8h2.7v0.8h-2.7v2h-0.9v-2h-3.4c-0.1,0.3-0.3,0.6-0.5,0.9
			c-0.4,0.5-1.1,0.8-2,1.1l-0.4-0.7c0.8-0.2,1.4-0.5,1.8-0.9c0.1-0.1,0.2-0.3,0.3-0.4h-2.7v-0.8h2.9c0-0.1,0-0.2,0-0.3v-0.5h-1.5
			v-4.7H695.5z M687,260.6l-0.7-0.4c0.7-0.8,1.3-1.6,1.6-2.5l0.8,0.2c-0.1,0.2-0.2,0.5-0.3,0.7h3v0.7h-1.6c0.2,0.3,0.4,0.5,0.5,0.7
			l-0.7,0.3c-0.2-0.3-0.4-0.7-0.6-1H688C687.7,259.7,687.4,260.2,687,260.6z M694.7,261.8v-0.7h-6.2v0.7H694.7z M694.7,263.1v-0.7
			h-6.2v0.7H694.7z M694.7,263.7h-6.2v0.7h6.2V263.7z M690,265.6c0,0.1,0,0.2,0,0.3h3.3v-0.8H690V265.6z M692.1,260.3l-0.7-0.5
			c0.6-0.7,1-1.4,1.3-2.2l0.8,0.2l-0.3,0.6h3.4v0.7h-2c0.2,0.3,0.4,0.5,0.5,0.8l-0.7,0.3c-0.2-0.4-0.4-0.7-0.7-1h-0.9
			C692.7,259.6,692.4,260,692.1,260.3z"/>
		<path style="fill:#878787;" d="M700.6,262.5l-0.6,0.6c-0.4-0.6-1-1.2-1.8-1.8l0.6-0.6C699.5,261.3,700.1,261.9,700.6,262.5z
			 M700.9,264.3c-0.5,1.5-1.1,2.9-1.7,4.3l-0.9-0.4c0.7-1.4,1.3-2.8,1.8-4.2L700.9,264.3z M701,259.7l-0.6,0.6
			c-0.5-0.6-1.1-1.2-2-1.8l0.6-0.6C699.8,258.5,700.5,259.1,701,259.7z M705.4,257.7v1.9h3.1v0.8h-3.1v2.2h3.4v0.8h-3.9
			c-0.8,1.8-1.4,3.1-2,3.9c1.5-0.2,3-0.4,4.4-0.7c-0.3-0.7-0.7-1.4-1.1-2l0.8-0.3c0.7,1.2,1.4,2.5,1.9,3.9l-0.8,0.4
			c-0.2-0.4-0.3-0.8-0.5-1.2c-1.8,0.3-3.8,0.6-5.9,0.8l-0.2-0.8c0.1,0,0.1-0.1,0.2-0.1c0.6-0.5,1.3-1.8,2.2-4h-2.8v-0.8h3.4v-2.2
			h-2.8v-0.8h2.8v-1.9H705.4z"/>
		<path style="fill:#878787;" d="M712.4,266.4c0.2,0.2,0.2,0.5,0.2,0.8c0,0.5-0.2,1-0.5,1.4c-0.3,0.4-0.7,0.6-1.2,0.8v-0.6
			c0.3-0.1,0.6-0.3,0.8-0.5c0.2-0.3,0.3-0.5,0.3-0.8c0,0-0.1,0-0.3,0c-0.2,0-0.4-0.1-0.5-0.2c-0.1-0.1-0.2-0.3-0.2-0.5
			c0-0.2,0.1-0.4,0.2-0.5c0.1-0.1,0.3-0.2,0.6-0.2C712,266.1,712.2,266.2,712.4,266.4z"/>
		<path style="fill:#878787;" d="M728.1,261.1l-0.7,0.5c-0.1-0.3-0.3-0.5-0.4-0.8c-1.3,0.2-2.8,0.3-4.6,0.4l-0.2-0.7
			c0.2,0,0.3-0.1,0.4-0.2c0.7-0.8,1.4-1.6,1.8-2.6l0.8,0.3c-0.6,1.1-1.2,1.9-1.8,2.5c1-0.1,2.1-0.2,3.2-0.3
			c-0.3-0.4-0.5-0.8-0.8-1.2l0.7-0.4C727.1,259.5,727.7,260.4,728.1,261.1z M723.6,268.7h-0.8v-6.8h4.4v5.6c0,0.7-0.3,1.1-1,1.1h-1
			l-0.2-0.8l0.9,0c0.3,0,0.5-0.2,0.5-0.5v-1h-2.8V268.7z M726.4,262.7h-2.8v1.2h2.8V262.7z M723.6,265.7h2.8v-1.1h-2.8V265.7z
			 M729.5,262.9c-0.7,0-1.1-0.4-1.1-1.2v-4h0.9v1.6c1.3-0.2,2.4-0.4,3.2-0.6l0.3,0.8c-1,0.3-2.2,0.5-3.5,0.7v1.5
			c0,0.4,0.2,0.6,0.5,0.6h1.6c0.2,0,0.4-0.1,0.5-0.2c0.1-0.2,0.2-0.6,0.2-1.4l0.8,0.3c-0.1,1-0.2,1.6-0.5,1.8
			c-0.2,0.2-0.5,0.3-0.9,0.3H729.5z M729.2,267.4c0,0.2,0.1,0.4,0.5,0.4h1.6c0.2,0,0.4-0.1,0.5-0.2c0.1-0.2,0.2-0.6,0.3-1.3l0.8,0.2
			c-0.1,1-0.2,1.6-0.5,1.8c-0.2,0.2-0.5,0.3-0.9,0.3h-2c-0.7,0-1.1-0.3-1.1-1v-4.2h0.9v1.5c1.2-0.1,2.3-0.3,3.2-0.6l0.3,0.8
			c-1.1,0.3-2.2,0.5-3.5,0.6V267.4z"/>
		<path style="fill:#878787;" d="M734.4,262.2l-0.5-0.6c0.8-1,1.3-2.3,1.6-3.8l0.9,0.1c-0.1,0.4-0.2,0.8-0.3,1.2h2.9
			c0,4.4-0.1,7.1-0.2,8.1c-0.1,1-0.6,1.5-1.6,1.5c-0.2,0-0.6,0-1,0l-0.2-0.8c0.4,0,0.8,0,1.1,0c0.5,0,0.8-0.4,0.9-1.1
			c0.1-0.7,0.1-3.1,0.1-6.9h-2.4c-0.3,0.7-0.6,1.3-1,1.8h2.6v4.1h-2.7v-3.9L734.4,262.2z M736.6,262.4h-1.3v2.6h1.3V262.4z
			 M743.5,262.6c-0.2,0.3-0.3,0.6-0.6,0.9h2v0.7c-0.6,2.1-2.3,3.6-5.3,4.6l-0.4-0.8c1.1-0.3,2-0.7,2.8-1.2c-0.4-0.4-0.8-0.8-1.1-1.1
			l0.6-0.5c0.4,0.3,0.8,0.7,1.1,1.1c0.7-0.6,1.2-1.3,1.5-2.1h-1.8c-0.7,0.6-1.5,1-2.4,1.4l-0.5-0.7c1.6-0.5,2.8-1.4,3.4-2.6
			L743.5,262.6z M742.5,257.8c-0.1,0.3-0.3,0.6-0.5,0.9h2.3v0.7c-0.6,1.8-2.1,3.1-4.5,3.9l-0.5-0.6c0.9-0.3,1.6-0.6,2.2-1
			c-0.4-0.4-0.7-0.7-0.9-0.9l0.6-0.4c0.4,0.3,0.7,0.6,0.9,0.9c0.6-0.5,1.1-1.1,1.4-1.8h-2.1c-0.4,0.5-1,0.9-1.6,1.3l-0.5-0.6
			c1.2-0.7,1.9-1.5,2.3-2.5L742.5,257.8z"/>
		<path style="fill:#878787;" d="M751.8,257.8c1.5,1.7,3.2,3,5.2,3.9l-0.4,0.8c-2-1-3.7-2.3-5.1-3.9c-1.3,1.6-3,2.9-5.1,4.1
			l-0.4-0.8c2.1-1.1,3.8-2.5,5.2-4.1H751.8z M751.7,266.4c0.9-0.7,1.7-1.5,2.5-2.4h-6.8v-0.8h7.9v0.7c-0.8,1.1-1.8,2-2.8,2.9
			c0.6,0.3,1.2,0.7,1.8,1l-0.5,0.7c-1.6-1.1-3.2-1.9-4.9-2.5l0.5-0.7C750.2,265.7,751,266,751.7,266.4z M752.9,262l-0.4,0.7
			c-0.8-0.6-1.6-1.1-2.4-1.4l0.4-0.6C751.4,261,752.2,261.4,752.9,262z"/>
		<path style="fill:#878787;" d="M762.3,261.3c0.2-0.3,0.4-0.6,0.5-1c-1.1,0-2.2,0.1-3.3,0.1l-0.1-0.8c0.8-0.2,1.8-0.9,3-2.1
			l0.8,0.3c-0.7,0.7-1.4,1.3-2.1,1.7c1.6,0,3.1-0.1,4.6-0.2c-0.3-0.3-0.7-0.6-1.1-0.9l0.7-0.4c1.2,0.9,2.1,1.7,2.7,2.4l-0.7,0.5
			c-0.2-0.3-0.5-0.6-0.8-0.9c-0.9,0-1.8,0.1-2.7,0.2c-0.1,0.3-0.3,0.7-0.5,1h5.5v0.8h-3c0.7,0.7,1.8,1.3,3.3,1.7l-0.4,0.8
			c-1.8-0.6-3.1-1.5-3.9-2.5h-2.2c-0.9,1-2.3,1.9-4.2,2.6l-0.4-0.8c1.5-0.4,2.7-1,3.5-1.8h-3.3v-0.8H762.3z M767.4,264.7
			c-1.1,2-3.5,3.3-7.2,4.1l-0.5-0.7c3.6-0.8,5.9-2,6.9-3.8L767.4,264.7z M765.7,264c-1.4,1.6-3.2,2.6-5.3,3l-0.5-0.7
			c2.2-0.4,3.9-1.3,5.2-2.8L765.7,264z M764.2,262.9c-0.8,1-2.1,1.8-3.7,2.4l-0.4-0.7c1.6-0.5,2.7-1.2,3.4-2.1L764.2,262.9z"/>
		<path style="fill:#878787;" d="M780.9,264.5l-0.3,0.7c-0.6-0.2-1.2-0.4-1.7-0.7v2.3H778v-2.1h-4.8v2.1h-0.8v-2.4
			c-0.5,0.3-1.1,0.5-1.8,0.8l-0.4-0.7c1.3-0.3,2.3-0.8,2.9-1.3h-2.6v-0.7h3.3v-0.7h-1.5v-0.6h1.5v-0.7h-1.8v-0.7h1.8v-0.7h-2.2v1.2
			h-0.8v-1.9h4.5c-0.1-0.2-0.3-0.5-0.5-0.7l0.9-0.2c0.1,0.2,0.3,0.5,0.4,0.8h4.4v1.9h-0.8v-1.2h-2.2v0.7h1.8v0.7h-1.8v0.7h1.6v0.6
			h-1.6v0.7h3.3v0.7h-2.7C778.6,263.7,779.6,264.2,780.9,264.5z M775.8,265.2c-0.1,1.3-0.5,2.1-0.9,2.6c-0.5,0.5-1.7,0.9-3.6,1
			L771,268c1.6-0.1,2.7-0.3,3.2-0.8c0.5-0.4,0.8-1.1,0.8-2.1L775.8,265.2z M777,263.2h-3.1c-0.3,0.3-0.6,0.6-0.9,0.8h4.9
			C777.6,263.8,777.3,263.5,777,263.2z M774.5,259.1v0.7h1.9v-0.7H774.5z M776.5,260.4h-1.9v0.7h1.9V260.4z M776.5,262.5v-0.7h-1.9
			v0.7H776.5z M779.9,268.1l-0.4,0.7c-1.2-0.6-2.4-1.1-3.6-1.5l0.4-0.6C777.6,267.1,778.8,267.5,779.9,268.1z"/>
		<path style="fill:#878787;" d="M630.5,273.3v-1.3h0.9v1.3h2.8v0.8h-2.8v1.4h1.5c1.1-0.8,2.1-1.7,3-2.7l0.7,0.5
			c-0.7,0.8-1.5,1.6-2.3,2.2h2.6v0.8h-3.7c-0.2,0.1-0.4,0.2-0.5,0.3c-0.6,0.3-1.2,0.7-1.9,1h4.5v5.4h-0.9v-0.5h-5.2v0.5h-0.9v-4.4
			c-0.6,0.2-1.3,0.5-2,0.7l-0.4-0.8c2.1-0.5,3.9-1.2,5.6-2.2h-5.5v-0.8h4.4v-1.4h-3.3v-0.8H630.5z M634.5,278.5h-5.2v1.3h5.2V278.5z
			 M629.3,281.8h5.2v-1.3h-5.2V281.8z"/>
		<path style="fill:#878787;" d="M642.3,282.4h-0.8v-0.7h-2.2v1h-0.8v-8.5h1.1c0.2-0.7,0.4-1.4,0.5-2.1l0.9,0.1
			c-0.1,0.7-0.3,1.4-0.6,2h1.9V282.4z M641.5,277.5V275h-2.2v2.5H641.5z M641.5,280.9v-2.6h-2.2v2.6H641.5z M648.4,281.6
			c-0.1,0.9-0.7,1.4-1.7,1.4c-0.2,0-0.6,0-1.2,0l-0.2-0.8c0.5,0,0.9,0,1.3,0c0.6,0,0.9-0.3,1-0.9c0.1-0.7,0.1-2.7,0.1-6.2h-3.3
			c-0.3,0.8-0.7,1.4-1.2,2.1l-0.5-0.7c0.8-1.2,1.4-2.6,1.7-4.3l0.9,0.1c-0.1,0.7-0.3,1.4-0.5,2h3.8
			C648.5,278.2,648.5,280.6,648.4,281.6z M646.4,279.6l-0.7,0.5c-0.5-0.8-1.2-1.7-2-2.7l0.7-0.4C645.3,278,645.9,278.8,646.4,279.6z
			"/>
		<path style="fill:#878787;" d="M650.8,283.1l-0.5-0.7c2.2-0.6,3.8-1.4,4.7-2.3c0.1-0.2,0.3-0.3,0.4-0.5h-5v-0.8h5.4
			c0.3-0.7,0.5-1.6,0.5-2.5v-1.4h0.8v1.4c0,0.9-0.2,1.8-0.4,2.5h3.8v0.8h-4.2c-0.1,0.2-0.2,0.4-0.3,0.5c1.7,0.7,3.3,1.5,4.7,2.4
			l-0.5,0.7c-1.5-1-3.1-1.8-4.7-2.5C654.6,281.7,653,282.5,650.8,283.1z M660.4,275.6h-0.8v-1.5h-8.1v1.5h-0.8v-2.3h4.6
			c-0.1-0.4-0.3-0.8-0.5-1.1l0.9-0.1c0.2,0.4,0.3,0.8,0.5,1.2h4.3V275.6z M654.4,277.7l-0.4,0.7c-0.8-0.6-1.6-1-2.4-1.4l0.4-0.6
			C652.9,276.8,653.7,277.2,654.4,277.7z M655.6,276l-0.4,0.7c-0.8-0.6-1.6-1.1-2.5-1.4l0.4-0.6C654,275.1,654.8,275.5,655.6,276z"
			/>
		<path style="fill:#878787;" d="M666.2,272.6v3.7H665v2h1.3v0.8H665v2.2c0.5-0.1,1-0.3,1.4-0.4v0.9c-1.2,0.4-2.7,0.8-4.3,1.1
			l-0.3-0.8c0.2,0,0.4-0.1,0.6-0.1v-4.3h0.8v4.2c0.3-0.1,0.6-0.2,1-0.2v-5.2h-1.6v-3.7H666.2z M665.4,273.4h-1.9v2.2h1.9V273.4z
			 M672.2,275l-2.8,0.4c0,0.6,0,1.2,0.1,1.7l3.1-0.5l0.1,0.8l-3.1,0.5c0,0.3,0.1,0.5,0.1,0.8c0.1,0.6,0.2,1,0.4,1.5
			c0.6-0.6,1.2-1.2,1.6-1.9l0.7,0.4c-0.6,0.9-1.3,1.6-2,2.2c0.1,0.1,0.1,0.3,0.2,0.4c0.4,0.6,0.7,0.9,1.1,0.9c0.3,0,0.5-0.6,0.7-1.8
			l0.7,0.5c-0.3,1.5-0.8,2.2-1.3,2.2c-0.6,0-1.1-0.4-1.6-1.1c-0.1-0.2-0.2-0.3-0.3-0.5c-0.9,0.6-1.8,1.1-2.8,1.4l-0.5-0.7
			c1.1-0.3,2.1-0.8,2.9-1.4c-0.2-0.5-0.4-1-0.5-1.6c-0.1-0.3-0.1-0.7-0.2-1l-1.9,0.3l-0.1-0.8l1.9-0.3c-0.1-0.5-0.1-1.1-0.1-1.7
			l-1.7,0.2l-0.1-0.8l1.8-0.2v-2.6h0.9v2.5l2.7-0.4L672.2,275z M672,273.6l-0.6,0.5c-0.3-0.5-0.8-1-1.4-1.6l0.7-0.4
			C671.2,272.7,671.7,273.2,672,273.6z"/>
		<path style="fill:#878787;" d="M684.6,272.7v0.9h-3.9c-0.2,0.5-0.5,1-0.7,1.4v8.1h-0.9v-6.8c-1.1,1.4-2.6,2.7-4.4,3.7l-0.6-0.8
			c2.7-1.6,4.6-3.5,5.7-5.7h-5.3v-0.9H684.6z M684.9,279.2l-0.7,0.7c-0.8-1.1-2-2.2-3.4-3.4l0.6-0.6
			C682.8,277,684,278.1,684.9,279.2z"/>
		<path style="fill:#878787;" d="M695,277.8v0.7c-0.5,1-1.4,1.8-2.5,2.5c1.2,0.5,2.6,1,4.4,1.3l-0.5,0.8c-1.9-0.4-3.5-1-4.7-1.6
			c-1.3,0.7-3,1.2-5,1.6l-0.5-0.8c1.8-0.3,3.3-0.8,4.6-1.3c-1.1-0.7-1.9-1.5-2.3-2.4h-0.5v-0.8H695z M696.5,278.5h-0.8v-1.9h-8.3
			v1.9h-0.8v-2.7h6.8c0.5-0.7,0.9-1.5,1.2-2.2l0.9,0.3c-0.4,0.8-0.8,1.4-1.2,1.9h2.3V278.5z M696.2,272.9c-2.3,0.4-5.4,0.6-9.3,0.6
			l-0.3-0.8c3.7,0,6.7-0.2,9.1-0.5L696.2,272.9z M689.3,275.4l-0.7,0.4c-0.4-0.6-0.8-1.1-1.2-1.6l0.8-0.4
			C688.6,274.3,689,274.8,689.3,275.4z M691.6,280.6c1.1-0.6,1.8-1.2,2.4-2h-4.7C689.8,279.3,690.6,280,691.6,280.6z M692.2,275.3
			l-0.8,0.4c-0.4-0.6-0.7-1.2-1.1-1.7l0.8-0.4C691.4,274.1,691.8,274.7,692.2,275.3z"/>
		<path style="fill:#878787;" d="M702.2,272.6v0.7c-0.4,1.1-0.8,2.2-1.3,3.4c0.8,1.1,1.2,2,1.2,2.9c0,0.5-0.1,0.9-0.4,1.1
			c-0.3,0.3-0.9,0.4-1.8,0.4l-0.3-0.9c0.2,0,0.3,0,0.5,0c0.4,0,0.7-0.1,0.9-0.2c0.1-0.1,0.2-0.3,0.2-0.5c0-0.8-0.4-1.7-1.3-2.7
			c0.6-1.2,1-2.4,1.3-3.4h-2v9.7h-0.8v-10.5H702.2z M703.6,277.7v4.1c0.7-0.2,1.4-0.5,2.1-0.8l0.2,0.8c-0.9,0.4-1.9,0.7-3.2,1.1
			l-0.2-0.7c0.2-0.1,0.3-0.2,0.3-0.3v-9.3h5.2v5.1h-2.2c0.1,0.7,0.4,1.4,0.7,2c0.6-0.3,1.1-0.8,1.7-1.5l0.6,0.6
			c-0.6,0.6-1.2,1.2-1.8,1.5c0.6,0.8,1.3,1.4,2.2,1.9l-0.5,0.8c-2-1.3-3.2-3-3.6-5.3H703.6z M707.1,273.4h-3.5v1.4h3.5V273.4z
			 M703.6,276.9h3.5v-1.4h-3.5V276.9z"/>
		<path style="fill:#878787;" d="M710.6,275.6l-0.7-0.5c0.6-0.6,1-1.5,1.2-2.7l0.8,0.1c-0.1,0.4-0.1,0.7-0.2,1.1h1.4v-1.5h0.9v1.5
			h2.2v0.8h-2.2v1.5h2.6v0.8h-2.6v1.3h2.3v3.2c0,0.7-0.4,1.1-1.1,1.1h-0.6l-0.2-0.8l0.6,0c0.3,0,0.5-0.2,0.5-0.5v-2.2h-1.5v4.3H713
			v-4.3h-1.5v3.5h-0.8V278h2.4v-1.3h-2.9V276h2.9v-1.5h-1.7C711.2,274.9,710.9,275.3,710.6,275.6z M718.1,273.2v7.4h-0.8v-7.4H718.1
			z M717.6,283l-0.2-0.8c0.6,0,1.1,0.1,1.7,0.1c0.4,0,0.6-0.2,0.6-0.6v-9.5h0.9v9.7c0,0.7-0.4,1.1-1.1,1.1H717.6z"/>
	</g>
	<circle style="fill:#878787;" cx="614.5" cy="263.5" r="1.5"/>
	<g transform="translate(20 9)">
		<line style="fill:none;stroke:#BABABA;" x1="593" y1="235" x2="768.9" y2="235"/>
	</g>
	<g>
		<rect x="602" y="327" style="opacity:0.6;fill:#BBBBBB;enable-background:new    ;" width="201" height="102"/>
		<g>
			<rect x="600.5" y="325.5" style="fill:#FFFFFF;" width="200" height="101"/>
			<path style="fill:#E5E5E5;" d="M800,326v100H601V326H800 M801,325H600v102h201V325L801,325z"/>
		</g>
	</g>
	<g id="maingroup_61_" transform="translate(0,0)">
		<g id="Rects1_24_" transform="translate(220,163)">
			<g transform="translate(20 9)">
				<g style="enable-background:new    ;">
					<path style="fill:#444444;" d="M411.5,172v1.8h5.5v1h-5.5v2.1h3.7v0.9c-0.8,1.6-1.9,2.9-3.4,4c0.7,0.4,1.5,0.8,2.3,1.1
						c1,0.4,2,0.7,3.2,1l-0.6,0.9c-1.2-0.3-2.3-0.7-3.4-1.2c-0.9-0.4-1.6-0.8-2.3-1.2c-1.6,1-3.5,1.8-5.7,2.4l-0.6-0.9
						c2.1-0.5,3.9-1.2,5.4-2.1c-0.7-0.5-1.4-1.2-1.9-1.9c-0.5-0.6-0.9-1.4-1.1-2.1h-1.1v-0.9h4.4v-2.1H405v-1h5.4V172H411.5z
						 M414.1,177.8h-5.9c0.3,0.7,0.6,1.4,1.2,2c0.5,0.6,1,1.1,1.7,1.5C412.3,180.3,413.3,179.2,414.1,177.8z"/>
					<path style="fill:#444444;" d="M419,184.7l-0.2-1c0.4,0,0.7,0.1,1.1,0.1c0.4,0,0.6-0.2,0.6-0.6v-3.3c-0.5,0.2-1.1,0.4-1.6,0.5
						l-0.3-1c0.6-0.2,1.3-0.3,1.9-0.6v-3.2h-1.7v-1h1.7v-2.5h1v2.5h1.4v1h-1.4v2.8c0.5-0.2,1-0.5,1.5-0.7v1c-0.5,0.3-1,0.5-1.5,0.7
						v4c0,0.8-0.4,1.3-1.2,1.3H419z M428.4,178.7v-1.1h1v1.1h1.7v0.9h-1.7v3.8c0,0.8-0.4,1.2-1.2,1.2h-1.9l-0.2-1
						c0.6,0,1.2,0.1,1.7,0.1c0.4,0,0.6-0.2,0.6-0.6v-3.5h-5.1v-0.9H428.4z M427.7,172v1.5h2.9v0.9h-2.9v1.6h3.4v1h-7.6v-1h3.2v-1.6
						H424v-0.9h2.7V172H427.7z M426.4,182.6l-0.8,0.6c-0.4-0.7-1-1.5-1.7-2.3l0.8-0.5C425.4,181.2,426,182,426.4,182.6z"/>
					<path style="fill:#444444;" d="M438.1,175.6c0.1-0.8,0.2-1.7,0.2-2.5V172h1v0.9c0,1-0.1,1.9-0.2,2.8h5.8v1h-5.5
						c1,3.2,2.9,5.6,5.8,7.3l-0.6,0.8c-2.8-1.7-4.7-4.2-5.8-7.3c-0.9,3.4-2.8,5.9-5.8,7.4l-0.6-0.8c3-1.5,4.8-3.9,5.5-7.4h-5.3v-1
						H438.1z"/>
					<path style="fill:#444444;" d="M448.8,174v-1.9h1v1.9h1.9v1h-1.9v2.3h2v1h-2.1c0,0.4-0.1,0.7-0.1,1.1c0.8,0.7,1.6,1.6,2.4,2.5
						l-0.6,0.9c-0.8-1.1-1.4-1.9-2-2.5c-0.4,2-1.2,3.5-2.3,4.6l-0.7-0.7c1.3-1.3,2.1-3.3,2.3-5.9h-2.1v-1h2.2v-2.3h-2v-1H448.8z
						 M455.7,174.6v2.5c0,2.1-0.4,3.8-1.1,5c-0.7,1.1-1.8,2.1-3.4,2.7l-0.5-0.9c1.5-0.6,2.6-1.5,3.2-2.5c0.6-1.1,0.9-2.5,0.9-4.3
						v-2.5H455.7z M458.1,180.2h-1v-6.8h-3.7v6.8h-1v-7.7h5.6V180.2z M456.6,184.6c-0.7,0-1.1-0.4-1.1-1.2v-3.2h0.9v2.9
						c0,0.3,0.1,0.5,0.4,0.5h0.7c0.2,0,0.4-0.1,0.5-0.2c0.1-0.2,0.2-0.7,0.3-1.6l0.9,0.3c-0.1,1.1-0.2,1.8-0.5,2.1
						c-0.2,0.2-0.5,0.3-1,0.3H456.6z"/>
					<path style="fill:#444444;" d="M463.2,184.8h-0.9v-7c-0.4,1.3-1,2.5-1.6,3.6l-0.4-1.1c1-1.3,1.7-2.9,2.1-4.6v-0.1h-1.6v-0.9
						h1.6V172h0.9v2.7h1.5v0.9h-1.5v0.9c0.6,0.7,1.2,1.6,1.9,2.5l-0.5,0.8c-0.5-0.9-1-1.7-1.3-2.2V184.8z M467.9,182.9
						c-0.6,0.8-1.8,1.4-3.4,1.9l-0.4-0.8c1.4-0.4,2.4-0.9,3-1.6c0.1-0.2,0.3-0.4,0.4-0.6h-3.2v-0.9h3.7c0.1-0.3,0.2-0.7,0.3-1.1
						h-2.9v-4.2h6.7v4.2h-2.9c-0.1,0.4-0.1,0.7-0.2,1.1h4v0.9h-3.5c0.8,1,2,1.7,3.7,2.3l-0.7,0.8c-1.8-0.8-3.1-1.8-3.9-2.9
						C468.3,182.3,468.1,182.6,467.9,182.9z M466.6,173.1V172h0.9v1.1h2.2V172h0.9v1.1h2.2v0.9h-2.2v1h-0.9v-1h-2.2v1h-0.9v-1h-2
						v-0.9H466.6z M471.1,177.2v-0.9h-4.9v0.9H471.1z M471.1,178h-4.9v1h4.9V178z"/>
					<path style="fill:#444444;" d="M475,183.6c0.2-0.1,0.3-0.3,0.3-0.6v-10.9h1v3.9h3.6v1h-3.6v6.3c1.2-0.3,2.4-0.6,3.7-1l0.3,1
						c-1.5,0.5-3.2,0.9-4.9,1.3L475,183.6z M482,182.8c0,0.4,0.2,0.6,0.6,0.6h2.1c0.3,0,0.5-0.1,0.7-0.3c0.2-0.2,0.4-1.1,0.4-2.5
						l1,0.3c-0.1,1.6-0.3,2.6-0.6,3c-0.3,0.3-0.7,0.4-1.2,0.4h-2.6c-0.9,0-1.3-0.5-1.3-1.4v-10.9h1v4.4c1.4-0.4,2.7-0.9,4-1.7
						l0.6,0.8c-1.6,0.8-3.1,1.4-4.6,1.8V182.8z"/>
					<path style="fill:#444444;" d="M500.8,179.9l-0.4,0.9c-0.8-0.2-1.4-0.5-2-0.8v2.7h-1v-2.5h-5.6v2.5h-1v-2.8
						c-0.6,0.3-1.3,0.6-2.1,0.9l-0.5-0.8c1.5-0.4,2.6-0.9,3.4-1.5h-3v-0.8h3.8v-0.8h-1.8V176h1.8v-0.8h-2.1v-0.8h2.1v-0.8h-2.6v1.4
						h-1v-2.3h5.2c-0.2-0.3-0.3-0.5-0.5-0.8l1.1-0.2c0.2,0.3,0.3,0.6,0.5,1h5.1v2.3h-1v-1.4h-2.6v0.8h2.1v0.8h-2.1v0.8h1.8v0.7h-1.8
						v0.8h3.8v0.8h-3.1C498.1,179,499.3,179.5,500.8,179.9z M494.9,180.7c-0.2,1.5-0.5,2.5-1.1,3c-0.6,0.6-2,1-4.2,1.2l-0.4-0.9
						c1.9-0.1,3.1-0.4,3.7-0.9c0.6-0.5,0.9-1.3,1-2.5L494.9,180.7z M496.3,178.4h-3.6c-0.3,0.3-0.7,0.6-1.1,0.9h5.7
						C497,179,496.6,178.7,496.3,178.4z M493.4,173.6v0.8h2.2v-0.8H493.4z M495.7,175.2h-2.2v0.8h2.2V175.2z M495.7,177.6v-0.8h-2.2
						v0.8H495.7z M499.7,184.1l-0.5,0.8c-1.4-0.7-2.8-1.3-4.2-1.7l0.5-0.7C497,182.9,498.4,183.5,499.7,184.1z"/>
				</g>
			</g>
		</g>
	</g>
	<g style="enable-background:new    ;">
		<rect x="625.5" y="388.2" style="fill:none;" width="162.5" height="26.8"/>
		<path style="fill:#878787;" d="M632.1,392.1l-0.7,0.5c-0.1-0.3-0.3-0.5-0.4-0.8c-1.3,0.2-2.8,0.3-4.6,0.4l-0.2-0.7
			c0.2,0,0.3-0.1,0.4-0.2c0.7-0.8,1.4-1.6,1.8-2.6l0.8,0.3c-0.6,1.1-1.2,1.9-1.8,2.5c1-0.1,2.1-0.2,3.2-0.3
			c-0.3-0.4-0.5-0.8-0.8-1.2l0.7-0.4C631.1,390.5,631.7,391.4,632.1,392.1z M627.6,399.7h-0.8v-6.8h4.4v5.6c0,0.7-0.3,1.1-1,1.1h-1
			l-0.2-0.8l0.9,0c0.3,0,0.5-0.2,0.5-0.5v-1h-2.8V399.7z M630.4,393.7h-2.8v1.2h2.8V393.7z M627.6,396.7h2.8v-1.1h-2.8V396.7z
			 M633.5,393.9c-0.7,0-1.1-0.4-1.1-1.2v-4h0.9v1.6c1.3-0.2,2.4-0.4,3.2-0.6l0.3,0.8c-1,0.3-2.2,0.5-3.5,0.7v1.5
			c0,0.4,0.2,0.6,0.5,0.6h1.6c0.2,0,0.4-0.1,0.5-0.2c0.1-0.2,0.2-0.6,0.2-1.4l0.8,0.3c-0.1,1-0.2,1.6-0.5,1.8
			c-0.2,0.2-0.5,0.3-0.9,0.3H633.5z M633.2,398.4c0,0.2,0.1,0.4,0.5,0.4h1.6c0.2,0,0.4-0.1,0.5-0.2c0.1-0.2,0.2-0.6,0.3-1.3l0.8,0.2
			c-0.1,1-0.2,1.6-0.5,1.8c-0.2,0.2-0.5,0.3-0.9,0.3h-2c-0.7,0-1.1-0.3-1.1-1v-4.2h0.9v1.5c1.2-0.1,2.3-0.3,3.2-0.6l0.3,0.8
			c-1.1,0.3-2.2,0.5-3.5,0.6V398.4z"/>
		<path style="fill:#878787;" d="M638.4,393.2l-0.5-0.6c0.8-1,1.3-2.3,1.6-3.8l0.9,0.1c-0.1,0.4-0.2,0.8-0.3,1.2h2.9
			c0,4.4-0.1,7.1-0.2,8.1c-0.1,1-0.6,1.5-1.6,1.5c-0.2,0-0.6,0-1,0l-0.2-0.8c0.4,0,0.8,0,1.1,0c0.5,0,0.8-0.4,0.9-1.1
			c0.1-0.7,0.1-3.1,0.1-6.9h-2.4c-0.3,0.7-0.6,1.3-1,1.8h2.6v4.1h-2.7v-3.9L638.4,393.2z M640.6,393.4h-1.3v2.6h1.3V393.4z
			 M647.5,393.6c-0.2,0.3-0.3,0.6-0.6,0.9h2v0.7c-0.6,2.1-2.3,3.6-5.3,4.6l-0.4-0.8c1.1-0.3,2-0.7,2.8-1.2c-0.4-0.4-0.8-0.8-1.1-1.1
			l0.6-0.5c0.4,0.3,0.8,0.7,1.1,1.1c0.7-0.6,1.2-1.3,1.5-2.1h-1.8c-0.7,0.6-1.5,1-2.4,1.4l-0.5-0.7c1.6-0.5,2.8-1.4,3.4-2.6
			L647.5,393.6z M646.5,388.8c-0.1,0.3-0.3,0.6-0.5,0.9h2.3v0.7c-0.6,1.8-2.1,3.1-4.5,3.9l-0.5-0.6c0.9-0.3,1.6-0.6,2.2-1
			c-0.4-0.4-0.7-0.7-0.9-0.9l0.6-0.4c0.4,0.3,0.7,0.6,0.9,0.9c0.6-0.5,1.1-1.1,1.4-1.8h-2.1c-0.4,0.5-1,0.9-1.6,1.3l-0.5-0.6
			c1.2-0.7,1.9-1.5,2.3-2.5L646.5,388.8z"/>
		<path style="fill:#878787;" d="M655.9,388.7v1.6h4.7v0.8h-4.7v1.8h3.2v0.8c-0.7,1.3-1.6,2.5-2.9,3.5c0.6,0.3,1.3,0.7,2,0.9
			c0.9,0.3,1.8,0.6,2.7,0.8l-0.5,0.8c-1-0.3-2-0.6-2.9-1c-0.7-0.3-1.4-0.7-2-1c-1.4,0.9-3,1.5-4.9,2.1l-0.5-0.8
			c1.8-0.4,3.4-1,4.7-1.8c-0.6-0.5-1.2-1-1.6-1.6c-0.4-0.6-0.7-1.2-0.9-1.8h-0.9v-0.8h3.8v-1.8h-4.7v-0.8h4.7v-1.6H655.9z
			 M658.2,393.8H653c0.2,0.6,0.6,1.2,1,1.7c0.4,0.5,0.9,0.9,1.4,1.3C656.6,395.9,657.5,394.9,658.2,393.8z"/>
		<path style="fill:#878787;" d="M662.4,399.6l-0.2-0.8c0.3,0,0.6,0.1,0.9,0.1c0.3,0,0.5-0.2,0.5-0.5v-2.8c-0.5,0.2-0.9,0.3-1.4,0.5
			l-0.2-0.9c0.6-0.1,1.1-0.3,1.6-0.5v-2.7h-1.5V391h1.5v-2.1h0.9v2.1h1.2v0.8h-1.2v2.4c0.4-0.2,0.9-0.4,1.3-0.6v0.9
			c-0.4,0.2-0.8,0.4-1.3,0.6v3.4c0,0.7-0.3,1.1-1,1.1H662.4z M670.5,394.5v-0.9h0.9v0.9h1.5v0.8h-1.5v3.2c0,0.7-0.4,1.1-1.1,1.1
			h-1.6l-0.2-0.8c0.5,0,1,0,1.5,0c0.3,0,0.5-0.2,0.5-0.5v-3h-4.4v-0.8H670.5z M669.9,388.7v1.2h2.5v0.8h-2.5v1.4h2.9v0.8h-6.5v-0.8
			h2.8v-1.4h-2.4V390h2.4v-1.2H669.9z M668.8,397.8l-0.7,0.5c-0.4-0.6-0.8-1.3-1.5-2l0.7-0.4C667.9,396.6,668.4,397.3,668.8,397.8z"
			/>
		<path style="fill:#878787;" d="M678.9,391.9c0.1-0.7,0.1-1.4,0.2-2.2v-1h0.9v0.8c0,0.8-0.1,1.6-0.2,2.4h5v0.8H680
			c0.8,2.7,2.5,4.8,5,6.3l-0.5,0.7c-2.4-1.5-4.1-3.6-5-6.3c-0.7,2.9-2.4,5-5,6.4L674,399c2.6-1.3,4.1-3.4,4.8-6.3h-4.5v-0.8H678.9z"
			/>
		<path style="fill:#878787;" d="M689.6,394.8c-0.4,0.2-0.8,0.3-1.2,0.5v3.4c0,0.7-0.3,1-1,1h-1l-0.2-0.9c0.3,0,0.6,0.1,0.9,0.1
			c0.3,0,0.4-0.2,0.4-0.5v-2.9c-0.4,0.1-0.9,0.3-1.3,0.4l-0.2-0.8c0.5-0.1,1-0.2,1.5-0.4v-2.9h-1.4v-0.8h1.4v-2.2h0.8v2.2h1.2v0.8
			h-1.2v2.7c0.4-0.1,0.8-0.3,1.2-0.5V394.8z M691,398.5c0.6-0.2,1.1-0.3,1.6-0.6l0.2,0.8c-0.8,0.3-1.7,0.6-2.8,0.9l-0.2-0.8
			c0.3-0.1,0.4-0.3,0.4-0.5v-9.4h0.9v3.5h1.7v0.8H691V398.5z M694.3,399.5c-0.7,0-1-0.4-1-1.1v-9.7h0.9v3.6c0.7-0.2,1.4-0.6,2.1-1
			l0.5,0.7c-0.9,0.5-1.8,0.9-2.6,1.2v5c0,0.3,0.2,0.5,0.5,0.5h0.6c0.3,0,0.5-0.1,0.6-0.3c0.2-0.2,0.3-0.9,0.3-1.9l0.8,0.3
			c-0.1,1.3-0.3,2.1-0.5,2.4c-0.2,0.2-0.6,0.4-1,0.4H694.3z"/>
		<path style="fill:#878787;" d="M708.9,392.5v0.6h-10.7v-0.6H708.9z M707.7,393.7v3.1h-3.8v0.7h4.1v0.6h-4.1v0.7h4.9v0.7h-10.7
			v-0.7h4.9V398h-4v-0.6h4v-0.7h-3.7v-3.1H707.7z M707.4,388.9v3h-7.8v-3H707.4z M703.1,395v-0.7h-2.9v0.7H703.1z M703.1,395.5h-2.9
			v0.7h2.9V395.5z M706.6,390.1v-0.7h-6.2v0.7H706.6z M706.6,390.6h-6.2v0.7h6.2V390.6z M703.9,395h2.9v-0.7h-2.9V395z M706.9,395.5
			h-2.9v0.7h2.9V395.5z"/>
		<path style="fill:#878787;" d="M714.3,399h-0.8v-0.7h-2.2v1h-0.8v-8.5h1.1c0.2-0.7,0.4-1.4,0.5-2.1l0.9,0.1
			c-0.1,0.7-0.3,1.4-0.6,2h1.9V399z M713.5,394.1v-2.5h-2.2v2.5H713.5z M713.5,397.5v-2.6h-2.2v2.6H713.5z M720.4,398.2
			c-0.1,0.9-0.7,1.4-1.7,1.4c-0.2,0-0.6,0-1.2,0l-0.2-0.8c0.5,0,0.9,0,1.3,0c0.6,0,0.9-0.3,1-0.9c0.1-0.7,0.1-2.7,0.1-6.2h-3.3
			c-0.3,0.8-0.7,1.4-1.2,2.1l-0.5-0.7c0.8-1.2,1.4-2.6,1.7-4.3l0.9,0.1c-0.1,0.7-0.3,1.4-0.5,2h3.8
			C720.5,394.8,720.5,397.2,720.4,398.2z M718.4,396.2l-0.7,0.5c-0.5-0.8-1.2-1.7-2-2.7l0.7-0.4
			C717.3,394.6,717.9,395.4,718.4,396.2z"/>
		<path style="fill:#878787;" d="M723,390.5v-0.8h9.1v0.8H728v7.6h4.9v0.8h-10.7V398h4.9v-7.6H723z"/>
		<path style="fill:#878787;" d="M734.2,394.4l-0.3-0.9c1.3-1.4,2.2-3,2.8-4.8l0.8,0.4c-0.3,0.9-0.7,1.8-1.2,2.6v8h-0.9V393
			C735.1,393.5,734.7,394,734.2,394.4z M737.4,394.3l-0.6-0.7c1.1-1.2,1.9-2.9,2.6-4.9l0.9,0.2c-0.2,0.6-0.4,1.1-0.6,1.6h5.2v0.9h-4
			v2h3.5v0.8h-3.5v2h3.6v0.8h-3.6v2.8H740v-8.5h-0.6C738.8,392.4,738.1,393.4,737.4,394.3z"/>
		<path style="fill:#878787;" d="M748.7,393.5l-0.6,0.6c-0.5-0.6-1.1-1.1-1.9-1.8l0.6-0.6C747.5,392.3,748.2,392.9,748.7,393.5z
			 M748.8,395.2c-0.5,1.5-1,3-1.6,4.3l-0.8-0.3c0.6-1.4,1.2-2.8,1.6-4.3L748.8,395.2z M748.9,390.4l-0.6,0.6c-0.5-0.5-1.1-1-1.9-1.6
			l0.6-0.6C747.8,389.4,748.4,389.9,748.9,390.4z M751,394.3c0,1.6-0.2,2.7-0.5,3.5c-0.3,0.8-0.8,1.4-1.5,2l-0.6-0.7
			c0.6-0.5,1-1,1.2-1.7c0.2-0.6,0.4-1.7,0.4-3.1H751z M749.5,393c0.1,0,0.1,0,0.2-0.1c0.5-0.3,1-1,1.8-2.2h-2.1v-0.8h3.3
			c-0.2-0.4-0.3-0.9-0.5-1.2l0.9-0.1c0.2,0.4,0.4,0.9,0.5,1.4h3.2v0.8h-4.4c-0.6,1-1.1,1.7-1.5,2.2c1.4-0.1,2.7-0.2,4.1-0.4
			c-0.3-0.3-0.5-0.7-0.8-1.1l0.7-0.4c0.8,1,1.4,1.8,1.9,2.6l-0.7,0.5c-0.2-0.3-0.4-0.6-0.6-0.9c-1.8,0.2-3.7,0.4-5.7,0.5L749.5,393z
			 M753,394.3v5.2h-0.9v-5.2H753z M755.3,399.6c-0.7,0-1-0.3-1-0.9v-4.4h0.8v4.2c0,0.2,0.1,0.3,0.2,0.3h0.5c0.2,0,0.3-0.2,0.4-0.4
			c0-0.3,0.1-0.8,0.1-1.4l0.8,0.3c0,1.1-0.1,1.7-0.2,1.9c-0.1,0.2-0.4,0.3-0.9,0.4H755.3z"/>
	</g>
	<circle style="fill:#878787;" cx="614.5" cy="394.5" r="1.5"/>
	<g transform="translate(20 9)">
		<line style="fill:none;stroke:#BABABA;" x1="593" y1="366" x2="768.9" y2="366"/>
	</g>
</g>
<g>
	<rect x="613" y="338" style="fill:#FFFFFF;" width="24" height="24"/>
	<g id="RectEndPoint1" transform="translate(217,191)">
		<g transform="translate(20 9)">
			<g>
				<g>
					<path style="fill:#878787;stroke:#878787;stroke-width:0.5;stroke-miterlimit:10;" d="M385.5,142.6c1.6,0,2.8,1.3,2.8,2.8
						c0,1.6-1.3,2.8-2.8,2.8c-1.6,0-2.8-1.3-2.8-2.8C382.7,143.9,383.9,142.6,385.5,142.6 M385.5,141.2c-2.4,0-4.3,1.9-4.3,4.2
						c0,2.3,1.9,4.2,4.3,4.2c2.4,0,4.3-1.9,4.3-4.2C389.8,143.1,387.9,141.2,385.5,141.2z"/>
					<path style="fill:#878787;stroke:#878787;stroke-width:0.5;stroke-miterlimit:10;" d="M388.4,152.5c2.4,0,4.3,1.9,4.3,4.2v0.7
						h-14.2v-0.7c0-2.3,1.9-4.2,4.3-4.2H388.4 M388.4,151.1h-5.7c-3.1,0-5.7,2.5-5.7,5.6v2.1h17v-2.1
						C394,153.6,391.5,151.1,388.4,151.1z"/>
					<path style="fill:#878787;stroke:#878787;stroke-width:0.5;stroke-miterlimit:10;" d="M394.7,151h-2.1c0.5,0.4,1,0.9,1.4,1.4
						h0.7c1.6,0,2.8,1.3,2.8,2.8v0.7h-2.1c0,0.2,0,0.5,0,0.7v0.7h3.5v-2.1C399,152.9,397.1,151,394.7,151z"/>
					<path style="fill:#878787;stroke:#878787;stroke-width:0.5;stroke-miterlimit:10;" d="M391.9,141.9c-0.6,0-1.1,0.1-1.7,0.4
						c0.3,0.4,0.5,0.8,0.6,1.3c1-0.6,2.3-0.2,2.9,0.8c0.6,1,0.2,2.3-0.8,2.9c-0.7,0.4-1.4,0.4-2.1,0c-0.2,0.4-0.4,0.9-0.6,1.3
						c0.5,0.3,1.1,0.4,1.7,0.4c2,0,3.5-1.6,3.5-3.5S393.9,141.9,391.9,141.9z"/>
				</g>
			</g>
		</g>
	</g>
</g>
<g>
	<rect x="40" y="89" style="fill:#FFFFFF;" width="24" height="24"/>
	<g>
		<path style="fill:#878787;" d="M46,100v2h-2v-2H46 M48,98h-6v6h6V98L48,98z"/>
	</g>
	<g>
		<path style="fill:#878787;" d="M60,93v2h-2v-2H60 M62,91h-6v6h6V91L62,91z"/>
	</g>
	<g>
		<path style="fill:#878787;" d="M60,107v2h-2v-2H60 M62,105h-6v6h6V105L62,105z"/>
	</g>
	<g>
		<rect x="46" y="100" style="fill:#878787;" width="7" height="2"/>
	</g>
	<g>
		<rect x="51" y="93" style="fill:#878787;" width="7" height="2"/>
	</g>
	<g>
		<rect x="51" y="108" style="fill:#878787;" width="7" height="2"/>
	</g>
	<g>
		<rect x="51" y="93" style="fill:#878787;" width="2" height="17"/>
	</g>
</g>
<g>
	<rect x="40" y="338" style="fill:#FFFFFF;" width="24" height="24"/>
	<g>
		<polyline style="fill:none;stroke:#878787;stroke-width:2;stroke-miterlimit:10;" points="45,347 47,347 49,350 54,344 57,347 
			59,347 		"/>
		<g>
			<g>
				<path style="fill:#878787;" d="M41,339v16h22v-16H41z M61,353H43v-12h18V353z M56,357h-2v2h-4v-2h-2v2h-5v2h18v-2h-5V357z"/>
			</g>
		</g>
	</g>
</g>
<g>
	<rect x="40" y="207" style="fill:#FFFFFF;" width="24" height="24"/>
	<g>
		<rect x="52" y="211" style="fill:#878787;" width="10" height="2"/>
	</g>
	<g>
		<rect x="44" y="228" style="fill:#878787;" width="18" height="2"/>
	</g>
	<g>
		<rect x="60" y="211" style="fill:#878787;" width="2" height="19"/>
	</g>
	<g>
		<rect x="44" y="219" style="fill:#878787;" width="2" height="11"/>
	</g>
	<g>
		<path style="fill:#878787;" d="M48,210v5h-5v-5H48 M50,208h-9v9h9V208L50,208z"/>
	</g>
</g>
<g>
	<rect x="613" y="207" style="fill:#FFFFFF;" width="24" height="24"/>
	<g>
		<path style="fill:#878787;" d="M625,213.7c2.4,0,4.4,2,4.4,4.4c0,1.4-0.7,2.8-1.9,3.6l-0.9,0.6v1v2.8h-3.3v-2.8v-1l-0.9-0.6
			c-1.2-0.8-1.9-2.2-1.9-3.6C620.6,215.6,622.6,213.7,625,213.7 M625,211.7c-3.5,0-6.4,2.9-6.4,6.4c0,2.2,1.1,4.1,2.8,5.3v4.8h7.3
			v-4.8c1.7-1.2,2.8-3.1,2.8-5.3C631.4,214.5,628.5,211.7,625,211.7L625,211.7z"/>
	</g>
	<g>
		<rect x="624.1" y="208" style="fill:#878787;" width="1.8" height="2.8"/>
	</g>
	<g>
		<rect x="623.2" y="228.2" style="fill:#878787;" width="3.7" height="1.8"/>
	</g>
	<g>
		<rect x="633.2" y="217.2" style="fill:#878787;" width="2.8" height="1.8"/>
	</g>
	<g>
		
			<rect x="631.4" y="210.8" transform="matrix(0.7071 -0.7071 0.7071 0.7071 35.6695 509.447)" style="fill:#878787;" width="2.8" height="1.8"/>
	</g>
	<g>
		
			<rect x="616.5" y="210.3" transform="matrix(0.7071 -0.7071 0.7071 0.7071 31.1771 498.6015)" style="fill:#878787;" width="1.8" height="2.8"/>
	</g>
	<g>
		<rect x="614" y="217.2" style="fill:#878787;" width="2.8" height="1.8"/>
	</g>
</g>
<g>
	<rect x="613" y="89" style="fill:#FFFFFF;" width="24" height="24"/>
	<g>
		<g>
			<polygon style="fill:#878787;" points="620,92 618,92 618,99 620,99 620,92 			"/>
		</g>
		<g>
			<polygon style="fill:#878787;" points="626,92 624,92 624,99 626,99 626,92 			"/>
		</g>
		<g>
			<polygon style="fill:#878787;" points="635,97 615,97 615,99 635,99 635,97 			"/>
		</g>
		<g>
			<polygon style="fill:#878787;" points="632,92 630,92 630,99 632,99 632,92 			"/>
		</g>
		<g>
			<polygon style="fill:#878787;" points="620,97 618,97 618,110 620,110 620,97 			"/>
		</g>
		<g>
			<polygon style="fill:#878787;" points="626,97 624,97 624,110 626,110 626,97 			"/>
		</g>
		<g>
			<polygon style="fill:#878787;" points="632,97 630,97 630,110 632,110 632,97 			"/>
		</g>
	</g>
</g>
<g>
	<rect x="358" y="227" style="fill:#FFFFFF;" width="24" height="24"/>
	<g>
		<path style="fill:#878787;" d="M374,231v6c0,2.2-1.8,4-4,4s-4-1.8-4-4v-6H374 M376,229h-12v8c0,3.3,2.7,6,6,6s6-2.7,6-6V229
			L376,229z"/>
	</g>
	<g>
		<path style="fill:#878787;" d="M364,232.7v4.3h-1c-0.6,0-1-0.4-1-1v-3.3H364 M366,230.7h-6v5.3c0,1.7,1.3,3,3,3h3V230.7L366,230.7
			z"/>
	</g>
	<g>
		<path style="fill:#878787;" d="M378,232.7v3.3c0,0.6-0.4,1-1,1h-1v-4.3H378 M380,230.7h-6v8.3h3c1.7,0,3-1.3,3-3V230.7L380,230.7z
			"/>
	</g>
	<g>
		<polygon style="fill:#878787;" points="371,242 369,242 369,249 371,249 371,242 		"/>
	</g>
	<g>
		<polygon style="fill:#878787;" points="374,247 366,247 366,249 374,249 374,247 		"/>
	</g>
</g>
</svg>
