<?xml version="1.0" encoding="UTF-8"?>
<svg width="833px" height="152px" viewBox="0 0 833 152" version="1.1" xmlns="http://www.w3.org/2000/svg" xmlns:xlink="http://www.w3.org/1999/xlink">
    <!-- Generator: Sketch 54.1 (76490) - https://sketchapp.com -->
    <title>缺陷追踪</title>
    <desc>Created with Sketch.</desc>
    <defs>
        <rect id="path-1" x="0" y="0" width="132" height="50"></rect>
        <filter x="-1.5%" y="-2.0%" width="103.0%" height="108.0%" filterUnits="objectBoundingBox" id="filter-2">
            <feOffset dx="0" dy="1" in="SourceAlpha" result="shadowOffsetOuter1"></feOffset>
            <feGaussianBlur stdDeviation="0.5" in="shadowOffsetOuter1" result="shadowBlurOuter1"></feGaussianBlur>
            <feColorMatrix values="0 0 0 0 0   0 0 0 0 0   0 0 0 0 0  0 0 0 0.35 0" type="matrix" in="shadowBlurOuter1"></feColorMatrix>
        </filter>
        <path d="M23.703125,13 L19.65625,13 L19.65625,10.265625 C21.75625,10.265625 23.4570312,8.56484375 23.4570312,6.46484375 C23.4570312,6.34453125 23.3585937,6.24609375 23.2382812,6.24609375 L21.5976562,6.24609375 C21.4773437,6.24609375 21.3789062,6.34453125 21.3789062,6.46484375 C21.3789062,7.41640625 20.6078125,8.1875 19.65625,8.1875 L4.34375,8.1875 C3.3921875,8.1875 2.62109375,7.41640625 2.62109375,6.46484375 C2.62109375,6.34453125 2.52265625,6.24609375 2.40234375,6.24609375 L0.76171875,6.24609375 C0.64140625,6.24609375 0.54296875,6.34453125 0.54296875,6.46484375 C0.54296875,8.56484375 2.24375,10.265625 4.34375,10.265625 L4.34375,13 L0.296875,13 C0.1765625,13 0.078125,13.0984375 0.078125,13.21875 L0.078125,14.75 C0.078125,14.8703125 0.1765625,14.96875 0.296875,14.96875 L4.34375,14.96875 L4.34375,17.59375 C4.34375,17.7714844 4.34921875,17.9492188 4.36289062,18.1214844 C2.48710937,18.9226563 1.171875,20.7847656 1.171875,22.953125 C1.171875,23.0734375 1.2703125,23.171875 1.390625,23.171875 L2.921875,23.171875 C3.0421875,23.171875 3.140625,23.0734375 3.140625,22.953125 C3.140625,21.7445313 3.79414063,20.6863281 4.7703125,20.1175781 C4.934375,20.5878906 5.1421875,21.0363281 5.39101563,21.4574219 C6.05546875,22.5921875 7.00429687,23.5410156 8.1390625,24.2054687 C9.27382812,24.8699219 10.5917969,25.25 12,25.25 C13.4082031,25.25 14.7289062,24.8699219 15.8636719,24.2054687 C16.9984375,23.5410156 17.9472656,22.5921875 18.6117187,21.4574219 C18.8605469,21.0335938 19.0683594,20.5851562 19.2324219,20.1175781 C20.2058594,20.6863281 20.859375,21.7445313 20.859375,22.953125 C20.859375,23.0734375 20.9578125,23.171875 21.078125,23.171875 L22.609375,23.171875 C22.7296875,23.171875 22.828125,23.0734375 22.828125,22.953125 C22.828125,20.7847656 21.5128906,18.9226563 19.6371094,18.1214844 C19.6480469,17.9464844 19.65625,17.7714844 19.65625,17.59375 L19.65625,14.96875 L23.703125,14.96875 C23.8234375,14.96875 23.921875,14.8703125 23.921875,14.75 L23.921875,13.21875 C23.921875,13.0984375 23.8234375,13 23.703125,13 Z M17.578125,17.59375 C17.578125,18.6 17.3128906,19.5625 16.8179688,20.4074219 C16.3339844,21.2359375 15.6421875,21.9277344 14.8136719,22.4117187 C14.2640625,22.734375 13.6652344,22.9585937 13.0390625,23.0761719 L13.0390625,12.234375 C13.0390625,12.1140625 12.940625,12.015625 12.8203125,12.015625 L11.1796875,12.015625 C11.059375,12.015625 10.9609375,12.1140625 10.9609375,12.234375 L10.9609375,23.0761719 C10.3347656,22.9585938 9.7359375,22.734375 9.18632813,22.4117187 C8.3578125,21.9277344 7.66601563,21.2359375 7.18203125,20.4074219 C6.68710937,19.5625 6.421875,18.6 6.421875,17.59375 L6.421875,10.265625 L17.578125,10.265625 L17.578125,17.59375 Z M6.3125,6.65625 L7.84375,6.65625 C7.9640625,6.65625 8.0625,6.5578125 8.0625,6.4375 C8.0625,5.66367187 8.22382812,4.9828125 8.53007813,4.42773438 C8.81992188,3.89726562 9.24101563,3.47617187 9.77148438,3.18632812 C10.3292969,2.8828125 11.0074219,2.71875 11.78125,2.71875 L12.21875,2.71875 C12.9925781,2.71875 13.6734375,2.88007813 14.2285156,3.18632812 C14.7589844,3.47617187 15.1800781,3.89726562 15.4699219,4.42773438 C15.7734375,4.98554687 15.9375,5.66367187 15.9375,6.4375 C15.9375,6.5578125 16.0359375,6.65625 16.15625,6.65625 L17.6875,6.65625 C17.8078125,6.65625 17.90625,6.5578125 17.90625,6.4375 C17.90625,5.34375 17.665625,4.34023437 17.1980469,3.48164063 C16.7277344,2.6203125 16.0359375,1.92851563 15.1746094,1.45820313 C14.3160156,0.990625 13.3125,0.75 12.21875,0.75 L11.78125,0.75 C10.6875,0.75 9.68398437,0.990625 8.82539062,1.45820313 C7.9640625,1.92851563 7.27226562,2.6203125 6.80195312,3.48164063 C6.334375,4.34023437 6.09375,5.34375 6.09375,6.4375 C6.09375,6.5578125 6.1921875,6.65625 6.3125,6.65625 Z" id="path-3"></path>
        <rect id="path-5" x="0" y="0" width="132" height="50"></rect>
        <filter x="-1.5%" y="-2.0%" width="103.0%" height="108.0%" filterUnits="objectBoundingBox" id="filter-6">
            <feOffset dx="0" dy="1" in="SourceAlpha" result="shadowOffsetOuter1"></feOffset>
            <feGaussianBlur stdDeviation="0.5" in="shadowOffsetOuter1" result="shadowBlurOuter1"></feGaussianBlur>
            <feColorMatrix values="0 0 0 0 0   0 0 0 0 0   0 0 0 0 0  0 0 0 0.35 0" type="matrix" in="shadowBlurOuter1"></feColorMatrix>
        </filter>
        <rect id="path-7" x="0" y="0" width="132" height="50"></rect>
        <filter x="-1.5%" y="-2.0%" width="103.0%" height="108.0%" filterUnits="objectBoundingBox" id="filter-8">
            <feOffset dx="0" dy="1" in="SourceAlpha" result="shadowOffsetOuter1"></feOffset>
            <feGaussianBlur stdDeviation="0.5" in="shadowOffsetOuter1" result="shadowBlurOuter1"></feGaussianBlur>
            <feColorMatrix values="0 0 0 0 0   0 0 0 0 0   0 0 0 0 0  0 0 0 0.35 0" type="matrix" in="shadowBlurOuter1"></feColorMatrix>
        </filter>
        <rect id="path-9" x="0" y="0" width="132" height="50"></rect>
        <filter x="-1.5%" y="-2.0%" width="103.0%" height="108.0%" filterUnits="objectBoundingBox" id="filter-10">
            <feOffset dx="0" dy="1" in="SourceAlpha" result="shadowOffsetOuter1"></feOffset>
            <feGaussianBlur stdDeviation="0.5" in="shadowOffsetOuter1" result="shadowBlurOuter1"></feGaussianBlur>
            <feColorMatrix values="0 0 0 0 0   0 0 0 0 0   0 0 0 0 0  0 0 0 0.35 0" type="matrix" in="shadowBlurOuter1"></feColorMatrix>
        </filter>
        <rect id="path-11" x="0" y="0" width="90" height="50"></rect>
        <filter x="-2.2%" y="-2.0%" width="104.4%" height="108.0%" filterUnits="objectBoundingBox" id="filter-12">
            <feOffset dx="0" dy="1" in="SourceAlpha" result="shadowOffsetOuter1"></feOffset>
            <feGaussianBlur stdDeviation="0.5" in="shadowOffsetOuter1" result="shadowBlurOuter1"></feGaussianBlur>
            <feColorMatrix values="0 0 0 0 0   0 0 0 0 0   0 0 0 0 0  0 0 0 0.35 0" type="matrix" in="shadowBlurOuter1"></feColorMatrix>
        </filter>
        <rect id="path-13" x="0" y="0" width="90" height="50"></rect>
        <filter x="-2.2%" y="-2.0%" width="104.4%" height="108.0%" filterUnits="objectBoundingBox" id="filter-14">
            <feOffset dx="0" dy="1" in="SourceAlpha" result="shadowOffsetOuter1"></feOffset>
            <feGaussianBlur stdDeviation="0.5" in="shadowOffsetOuter1" result="shadowBlurOuter1"></feGaussianBlur>
            <feColorMatrix values="0 0 0 0 0   0 0 0 0 0   0 0 0 0 0  0 0 0 0.35 0" type="matrix" in="shadowBlurOuter1"></feColorMatrix>
        </filter>
        <rect id="path-15" x="0" y="0" width="90" height="50"></rect>
        <filter x="-2.2%" y="-2.0%" width="104.4%" height="108.0%" filterUnits="objectBoundingBox" id="filter-16">
            <feOffset dx="0" dy="1" in="SourceAlpha" result="shadowOffsetOuter1"></feOffset>
            <feGaussianBlur stdDeviation="0.5" in="shadowOffsetOuter1" result="shadowBlurOuter1"></feGaussianBlur>
            <feColorMatrix values="0 0 0 0 0   0 0 0 0 0   0 0 0 0 0  0 0 0 0.35 0" type="matrix" in="shadowBlurOuter1"></feColorMatrix>
        </filter>
        <rect id="path-17" x="0" y="0" width="90" height="50"></rect>
        <filter x="-2.2%" y="-2.0%" width="104.4%" height="108.0%" filterUnits="objectBoundingBox" id="filter-18">
            <feOffset dx="0" dy="1" in="SourceAlpha" result="shadowOffsetOuter1"></feOffset>
            <feGaussianBlur stdDeviation="0.5" in="shadowOffsetOuter1" result="shadowBlurOuter1"></feGaussianBlur>
            <feColorMatrix values="0 0 0 0 0   0 0 0 0 0   0 0 0 0 0  0 0 0 0.35 0" type="matrix" in="shadowBlurOuter1"></feColorMatrix>
        </filter>
    </defs>
    <g id="介绍页配图设计" stroke="none" stroke-width="1" fill="none" fill-rule="evenodd">
        <g id="应用场景复制" transform="translate(-202.000000, -3665.000000)">
            <g id="编组-17" transform="translate(201.000000, 2631.000000)">
                <g id="流程1-copy-2复制-11" transform="translate(1.000000, 1034.000000)">
                    <g id="编组-16" transform="translate(13.000000, 0.000000)">
                        <g id="XMLID_25_复制-11" transform="translate(153.000000, 0.000000)">
                            <g id="分组-copy">
                                <g id="XMLID_134_">
                                    <use fill="black" fill-opacity="1" filter="url(#filter-2)" xlink:href="#path-1"></use>
                                    <use fill="#FFFFFF" fill-rule="evenodd" xlink:href="#path-1"></use>
                                </g>
                                <path d="M57.26,28.628 L56.952,27.774 C57.148,27.69 57.26,27.578 57.26,27.438 L57.26,19.766 L58.24,19.766 L58.24,27.41 C58.94,27.214 59.64,26.976 60.34,26.71 L60.34,18.632 L61.334,18.632 L61.334,31.316 L60.34,31.316 L60.34,27.69 C59.36,28.04 58.324,28.348 57.26,28.628 Z M64.19,21.684 C64.022,22.132 63.854,22.552 63.672,22.944 C64.176,24.316 64.82,25.576 65.632,26.724 C66.472,25.296 66.92,23.616 67.004,21.684 L64.19,21.684 Z M63.084,24.036 C62.818,24.456 62.538,24.834 62.244,25.184 L61.614,24.414 C62.762,22.958 63.546,20.984 63.952,18.52 L64.96,18.688 C64.82,19.402 64.666,20.074 64.498,20.69 L69.174,20.69 L69.174,21.684 L67.97,21.684 C67.872,23.98 67.312,25.954 66.276,27.578 C67.2,28.726 68.264,29.748 69.496,30.644 L68.81,31.456 C67.592,30.546 66.542,29.538 65.66,28.446 C64.736,29.608 63.546,30.574 62.09,31.358 L61.516,30.448 C62.986,29.72 64.162,28.782 65.03,27.634 C64.246,26.514 63.588,25.324 63.084,24.036 Z M75.278,27.998 L70.966,27.998 L70.966,27.088 L76.538,27.088 L76.538,26.36 L77.546,26.36 L77.546,27.088 L83.034,27.088 L83.034,27.998 L78.792,27.998 C79.744,28.894 81.214,29.608 83.188,30.14 L82.754,31.036 C80.43,30.252 78.792,29.244 77.812,27.998 L77.546,27.998 L77.546,31.414 L76.538,31.414 L76.538,27.998 L76.272,27.998 C75.39,29.188 73.752,30.224 71.358,31.092 L70.826,30.224 C72.982,29.566 74.466,28.824 75.278,27.998 Z M72.338,22.048 C71.974,22.468 71.582,22.86 71.162,23.252 L70.588,22.468 C71.834,21.348 72.758,20.032 73.374,18.52 L74.312,18.758 C74.172,19.136 74.004,19.5 73.836,19.85 L76.86,19.85 C76.664,19.416 76.468,19.01 76.244,18.646 L77.28,18.478 C77.476,18.884 77.658,19.346 77.84,19.85 L82.362,19.85 L82.362,20.69 L77.91,20.69 L77.91,21.642 L81.844,21.642 L81.844,22.426 L77.91,22.426 L77.91,23.35 L81.844,23.35 L81.844,24.134 L77.91,24.134 L77.91,25.128 L82.628,25.128 L82.628,25.982 L72.338,25.982 L72.338,22.048 Z M76.916,25.128 L76.916,24.134 L73.276,24.134 L73.276,25.128 L76.916,25.128 Z M76.916,23.35 L76.916,22.426 L73.276,22.426 L73.276,23.35 L76.916,23.35 Z M76.916,21.642 L76.916,20.69 L73.346,20.69 L73.276,20.802 L73.276,21.642 L76.916,21.642 Z M91.252,20.704 L93.086,20.704 L93.086,18.576 L94.038,18.576 L94.038,20.704 L96.488,20.704 L96.488,24.792 L97.37,24.792 L97.37,25.73 L94.374,25.73 C95.018,27.76 96.054,29.384 97.482,30.616 L96.796,31.414 C95.396,30.098 94.374,28.432 93.716,26.43 C93.296,28.684 92.442,30.35 91.154,31.428 L90.538,30.602 C91.77,29.608 92.554,27.984 92.89,25.73 L90.874,25.73 L90.874,24.792 L93.002,24.792 C93.058,24.204 93.086,23.588 93.086,22.972 L93.086,21.642 L91.252,21.642 L91.252,20.704 Z M94.038,21.642 L94.038,22.748 C94.038,23.462 93.996,24.148 93.94,24.792 L95.522,24.792 L95.522,21.642 L94.038,21.642 Z M86.282,21.068 C86.058,21.698 85.792,22.286 85.512,22.818 L84.658,22.286 C85.274,21.152 85.708,19.906 85.988,18.534 L86.954,18.744 C86.842,19.234 86.716,19.71 86.59,20.158 L90.286,20.158 L90.286,21.068 L88.214,21.068 L88.214,23.504 L90.636,23.504 L90.636,24.442 L88.214,24.442 L88.214,29.258 L89.376,29.104 L89.376,25.59 L90.272,25.59 L90.272,30.7 L89.376,30.7 L89.376,30 L85.19,30.518 L85.19,25.59 L86.086,25.59 L86.086,29.538 L87.276,29.384 L87.276,24.442 L84.784,24.442 L84.784,23.504 L87.276,23.504 L87.276,21.068 L86.282,21.068 Z M106.022,18.59 L107.016,18.772 C106.904,19.192 106.778,19.584 106.638,19.948 L110.614,19.948 L110.614,20.732 C110.04,21.88 109.396,22.86 108.696,23.644 L107.94,23.042 C108.5,22.426 109.018,21.712 109.48,20.872 L106.218,20.872 C105.63,22.006 104.874,22.944 103.922,23.672 L103.292,22.902 C104.636,21.838 105.546,20.41 106.022,18.59 Z M106.778,23.21 L107.366,24.008 C106.624,24.428 105.798,24.792 104.902,25.1 L104.902,26.906 L107.002,26.906 L107.002,27.83 L104.902,27.83 L104.902,29.664 L109.886,29.664 L109.886,27.83 L107.912,27.83 L107.912,26.906 L109.886,26.906 L109.886,25.086 L107.94,25.086 L107.94,24.12 L110.866,24.12 L110.866,31.176 L109.886,31.176 L109.886,30.602 L104.902,30.602 L104.902,31.176 L103.936,31.176 L103.936,24.428 C104.958,24.148 105.91,23.742 106.778,23.21 Z M99.19,19.15 L103.32,19.15 L103.32,19.934 C102.9,21.194 102.424,22.51 101.864,23.882 C102.732,25.114 103.194,26.22 103.264,27.228 C103.25,27.816 103.11,28.236 102.844,28.502 C102.466,28.824 101.808,28.992 100.856,29.006 L100.534,27.998 C100.744,28.026 100.926,28.054 101.066,28.054 C101.556,28.026 101.892,27.956 102.06,27.844 C102.228,27.718 102.312,27.508 102.312,27.228 C102.312,26.276 101.836,25.198 100.898,24.022 C101.514,22.566 102.004,21.25 102.354,20.074 L100.17,20.074 L100.17,31.414 L99.19,31.414 L99.19,19.15 Z" id="收集缺陷" fill="#444444" fill-rule="nonzero"></path>
                                <g id="Code/bug" transform="translate(21.000000, 12.000000)">
                                    <mask id="mask-4" fill="white">
                                        <use xlink:href="#path-3"></use>
                                    </mask>
                                    <use id="Mask" fill="#00A4FF" fill-rule="nonzero" xlink:href="#path-3"></use>
                                </g>
                            </g>
                        </g>
                        <g id="XMLID_25_复制-14" transform="translate(153.000000, 100.000000)">
                            <g id="分组-copy">
                                <g id="XMLID_134_">
                                    <use fill="black" fill-opacity="1" filter="url(#filter-6)" xlink:href="#path-5"></use>
                                    <use fill="#FFFFFF" fill-rule="evenodd" xlink:href="#path-5"></use>
                                </g>
                                <path d="M28.34,18.618 C28.9,19.346 29.432,20.13 29.936,20.998 L29.026,21.46 C28.522,20.564 27.99,19.766 27.416,19.066 L28.34,18.618 Z M33.604,18.492 L34.57,18.758 C34.234,19.766 33.814,20.676 33.31,21.474 L36.194,21.474 L36.194,22.454 L31.518,22.454 L31.518,23.112 C31.49,23.812 31.434,24.47 31.322,25.058 L37.006,25.058 L37.006,26.038 L31.91,26.038 C32.596,27.928 34.402,29.398 37.342,30.448 L36.754,31.386 C33.674,30.14 31.77,28.446 31.014,26.318 C30.748,27.116 30.398,27.816 29.95,28.418 C28.998,29.65 27.444,30.616 25.288,31.302 L24.742,30.42 C26.884,29.734 28.382,28.824 29.222,27.704 C29.558,27.2 29.824,26.654 30.02,26.038 L24.994,26.038 L24.994,25.058 L30.272,25.058 C30.398,24.442 30.468,23.798 30.482,23.112 L30.482,22.454 L25.792,22.454 L25.792,21.474 L32.19,21.474 C32.722,20.662 33.184,19.668 33.604,18.492 Z M44.44,21.614 L47.926,21.614 C48.458,20.676 48.92,19.668 49.298,18.59 L50.222,18.94 C49.802,20.004 49.382,20.886 48.934,21.614 L51.02,21.614 L51.02,22.566 L48.15,22.566 L48.15,22.986 C48.15,23.686 48.108,24.344 48.038,24.974 L51.258,24.974 L51.258,25.94 L48.36,25.94 C48.696,27.48 49.732,29.048 51.468,30.644 L50.768,31.386 C49.158,29.79 48.15,28.208 47.744,26.654 C47.198,28.81 46.12,30.406 44.524,31.442 L43.922,30.644 C45.49,29.692 46.498,28.124 46.932,25.94 L44.23,25.94 L44.23,24.974 L47.072,24.974 C47.128,24.414 47.17,23.826 47.184,23.21 L47.184,22.566 L44.44,22.566 L44.44,21.614 Z M45.826,18.674 C46.386,19.5 46.82,20.228 47.128,20.858 L46.372,21.376 C46.05,20.704 45.616,19.976 45.056,19.164 L45.826,18.674 Z M38.644,19.136 L44.216,19.136 L44.216,20.074 L43.306,20.074 L43.306,27.76 C43.628,27.648 43.936,27.55 44.244,27.452 L44.244,28.432 C43.936,28.53 43.614,28.628 43.306,28.712 L43.306,31.47 L42.34,31.47 L42.34,28.978 C41.22,29.258 40.072,29.524 38.868,29.748 L38.616,28.796 L39.498,28.656 L39.498,20.074 L38.644,20.074 L38.644,19.136 Z M40.464,28.474 C41.108,28.334 41.724,28.194 42.34,28.04 L42.34,25.968 L40.464,25.968 L40.464,28.474 Z M40.464,25.044 L42.34,25.044 L42.34,23.042 L40.464,23.042 L40.464,25.044 Z M40.464,22.132 L42.34,22.132 L42.34,20.074 L40.464,20.074 L40.464,22.132 Z M53.512,18.856 C54.296,19.472 54.954,20.102 55.486,20.718 L54.828,21.39 C54.352,20.802 53.68,20.172 52.826,19.514 L53.512,18.856 Z M53.288,22.3 C54.044,22.972 54.688,23.63 55.206,24.302 L54.548,24.96 C54.072,24.33 53.428,23.658 52.602,22.944 L53.288,22.3 Z M54.52,26.066 L55.374,26.402 C54.842,28.11 54.24,29.72 53.596,31.232 L52.672,30.84 C53.372,29.286 53.988,27.69 54.52,26.066 Z M60.736,19.248 L60.736,27.788 L59.84,27.788 L59.84,20.116 L56.942,20.116 L56.942,27.872 L56.046,27.872 L56.046,19.248 L60.736,19.248 Z M59.238,28.446 C60.092,29.202 60.806,29.972 61.38,30.728 L60.708,31.4 C60.204,30.658 59.518,29.874 58.622,29.034 L59.238,28.446 Z M57.978,21.082 L58.818,21.082 L58.818,25.52 C58.79,27.116 58.538,28.39 58.062,29.342 C57.6,30.21 56.844,30.91 55.808,31.414 L55.276,30.574 C56.284,30.098 56.984,29.468 57.376,28.684 C57.74,27.872 57.95,26.822 57.978,25.52 L57.978,21.082 Z M63.76,31.288 L62.22,31.288 L62.01,30.35 C62.5,30.392 62.976,30.42 63.424,30.42 C63.746,30.42 63.914,30.224 63.914,29.86 L63.914,18.646 L64.866,18.646 L64.866,30.098 C64.866,30.882 64.488,31.288 63.76,31.288 Z M61.842,19.794 L62.724,19.794 L62.724,28.53 L61.842,28.53 L61.842,19.794 Z M72.58,25.198 L71.264,25.198 L71.264,24.26 L74.89,24.26 L74.89,25.198 L73.574,25.198 L73.574,28.992 C74.19,28.852 74.806,28.698 75.394,28.53 L75.394,29.468 C74.176,29.818 72.86,30.112 71.46,30.35 L71.208,29.398 C71.67,29.342 72.132,29.272 72.58,29.188 L72.58,25.198 Z M77.886,31.19 C77.41,31.19 76.976,30.826 76.612,30.098 C76.192,29.258 75.884,28.124 75.688,26.668 C75.534,25.436 75.436,23.896 75.38,22.062 L70.942,22.062 L70.942,21.082 L75.352,21.082 C75.324,20.27 75.324,19.416 75.324,18.52 L76.304,18.52 C76.304,19.43 76.304,20.284 76.332,21.082 L79.118,21.082 L79.118,22.062 L76.346,22.062 C76.416,24.47 76.57,26.318 76.794,27.634 C77.102,29.23 77.466,30.042 77.886,30.098 C78.166,30.042 78.46,29.188 78.74,27.522 L79.538,28.166 C79.076,30.182 78.53,31.19 77.886,31.19 Z M77.508,18.506 C78.11,19.178 78.572,19.766 78.908,20.27 L78.208,20.76 C77.858,20.214 77.382,19.612 76.794,18.94 L77.508,18.506 Z M68.268,18.702 C69.164,19.416 69.906,20.13 70.522,20.858 L69.836,21.558 C69.276,20.872 68.52,20.144 67.568,19.388 L68.268,18.702 Z M66.588,22.846 L69.528,22.846 L69.528,28.95 C69.948,28.544 70.368,28.096 70.816,27.606 L71.082,28.67 C70.312,29.51 69.5,30.252 68.632,30.896 L68.24,30 C68.436,29.832 68.548,29.636 68.548,29.426 L68.548,23.812 L66.588,23.812 L66.588,22.846 Z M82.982,23.448 L82.982,25.898 L86.538,25.898 L86.538,23.448 L82.982,23.448 Z M82.926,26.822 C82.772,28.614 82.254,30.098 81.358,31.274 L80.588,30.588 C81.484,29.342 81.946,27.76 81.974,25.842 L81.974,19.122 L92.404,19.122 L92.404,29.608 C92.404,30.588 91.914,31.078 90.934,31.078 L89.324,31.078 L89.058,30.084 C89.618,30.112 90.136,30.14 90.612,30.14 C91.116,30.14 91.382,29.846 91.382,29.258 L91.382,26.822 L87.574,26.822 L87.574,30.924 L86.538,30.924 L86.538,26.822 L82.926,26.822 Z M91.382,25.898 L91.382,23.448 L87.574,23.448 L87.574,25.898 L91.382,25.898 Z M91.382,22.51 L91.382,20.102 L87.574,20.102 L87.574,22.51 L91.382,22.51 Z M86.538,20.102 L82.982,20.102 L82.982,22.51 L86.538,22.51 L86.538,20.102 Z M98.41,19.374 L103.016,19.374 L103.016,20.34 L100.468,20.34 C100.398,21.04 100.3,21.698 100.174,22.328 L102.75,22.328 L102.75,23.196 C102.246,27.074 100.832,29.79 98.536,31.358 L98.032,30.462 C99.152,29.692 100.034,28.614 100.678,27.242 C100.09,26.668 99.502,26.206 98.928,25.842 C98.648,26.332 98.354,26.78 98.032,27.186 L97.528,26.206 C98.62,24.778 99.278,22.818 99.502,20.34 L98.41,20.34 L98.41,19.374 Z M99.334,25.016 C99.95,25.38 100.524,25.814 101.07,26.29 C101.406,25.366 101.644,24.344 101.812,23.252 L99.95,23.252 C99.782,23.882 99.572,24.47 99.334,25.016 Z M105.564,31.302 L104.024,31.302 L103.8,30.336 C104.304,30.378 104.766,30.406 105.214,30.406 C105.62,30.406 105.83,30.196 105.83,29.776 L105.83,18.604 L106.838,18.604 L106.838,30.028 C106.838,30.868 106.404,31.302 105.564,31.302 Z M95.918,23.812 C95.568,24.344 95.204,24.848 94.812,25.324 L94.476,24.26 C95.708,22.58 96.604,20.662 97.164,18.492 L98.116,18.926 C97.808,20.032 97.402,21.068 96.926,22.048 L96.926,31.428 L95.918,31.428 L95.918,23.812 Z M103.618,19.892 L104.542,19.892 L104.542,28.572 L103.618,28.572 L103.618,19.892 Z" id="关联测试用例" fill="#444444" fill-rule="nonzero"></path>
                            </g>
                        </g>
                        <g id="XMLID_25_复制-15" transform="translate(500.000000, 50.000000)">
                            <g id="分组-copy">
                                <g id="XMLID_134_">
                                    <use fill="black" fill-opacity="1" filter="url(#filter-8)" xlink:href="#path-7"></use>
                                    <use fill="#FFFFFF" fill-rule="evenodd" xlink:href="#path-7"></use>
                                </g>
                                <path d="M57.568,19.402 L68.474,19.402 L68.474,20.382 L66.136,20.382 L66.136,24.092 L69.202,24.092 L69.202,25.058 L66.136,25.058 L66.136,31.26 L65.114,31.26 L65.114,25.058 L61.068,25.058 C60.942,26.5 60.676,27.69 60.256,28.642 C59.724,29.818 58.842,30.728 57.61,31.372 L57.064,30.504 C58.198,29.86 58.996,29.006 59.444,27.942 C59.738,27.13 59.934,26.178 60.046,25.058 L56.812,25.058 L56.812,24.092 L60.102,24.092 C60.102,23.91 60.116,23.742 60.116,23.602 L60.116,20.382 L57.568,20.382 L57.568,19.402 Z M61.152,20.382 L61.152,23.602 C61.152,23.77 61.138,23.938 61.138,24.092 L65.114,24.092 L65.114,20.382 L61.152,20.382 Z M71.624,22.86 L72.73,18.968 L73.724,19.136 L72.926,21.894 L75.376,21.894 C75.656,20.802 75.88,19.668 76.048,18.464 L77.07,18.59 C76.888,19.766 76.664,20.858 76.412,21.894 L82.964,21.894 L82.964,22.86 L76.146,22.86 C75.978,23.42 75.81,23.952 75.614,24.456 L81.34,24.456 L81.34,25.324 C80.962,26.528 80.206,27.62 79.058,28.6 C80.192,29.272 81.578,29.888 83.202,30.448 L82.684,31.386 C80.892,30.728 79.408,30.014 78.232,29.244 C77.084,30.056 75.656,30.784 73.962,31.442 L73.43,30.504 C74.998,29.93 76.3,29.3 77.35,28.614 C76.258,27.774 75.488,26.864 75.026,25.884 C74.004,28.096 72.688,29.846 71.092,31.148 L70.574,30.224 C72.618,28.432 74.116,25.982 75.096,22.86 L71.624,22.86 Z M75.782,25.38 C76.258,26.332 77.056,27.214 78.176,28.026 C79.212,27.214 79.926,26.332 80.318,25.38 L75.782,25.38 Z M79.422,18.576 C80.43,19.346 81.256,20.116 81.928,20.886 L81.214,21.6 C80.626,20.858 79.8,20.074 78.75,19.234 L79.422,18.576 Z M87.892,20.48 C87.682,20.816 87.458,21.138 87.22,21.446 L95.452,21.446 L95.452,25.87 L89.908,25.87 C89.698,26.206 89.46,26.514 89.208,26.822 L95.48,26.822 L95.48,27.55 C94.78,28.446 93.856,29.174 92.708,29.762 C94.052,30.154 95.564,30.378 97.216,30.434 L96.978,31.358 C94.934,31.26 93.1,30.91 91.504,30.294 C89.852,30.91 87.864,31.274 85.512,31.414 L85.106,30.532 C87.136,30.448 88.872,30.196 90.314,29.776 C89.362,29.314 88.508,28.754 87.752,28.096 C87.178,28.488 86.52,28.866 85.792,29.202 L85.274,28.348 C86.884,27.704 88.06,26.878 88.816,25.87 L87.024,25.87 L87.024,21.684 C86.548,22.23 86.016,22.734 85.4,23.196 L84.798,22.412 C86.24,21.32 87.22,20.004 87.738,18.436 L88.732,18.604 C88.62,18.94 88.494,19.276 88.354,19.598 L96.544,19.598 L96.544,20.48 L87.892,20.48 Z M91.518,29.37 C92.638,28.908 93.548,28.334 94.234,27.648 L88.48,27.648 C89.376,28.348 90.384,28.922 91.518,29.37 Z M94.472,25.058 L94.472,24.022 L88.018,24.022 L88.018,25.058 L94.472,25.058 Z M88.018,23.266 L94.472,23.266 L94.472,22.244 L88.018,22.244 L88.018,23.266 Z M110.292,19.122 L110.292,26.864 L109.27,26.864 L109.27,20.088 L105.07,20.088 L105.07,26.864 L104.076,26.864 L104.076,19.122 L110.292,19.122 Z M109.984,31.176 L108.528,31.176 C107.758,31.176 107.38,30.784 107.38,30.014 L107.38,26.808 L108.388,26.808 L108.388,29.804 C108.388,30.098 108.528,30.252 108.822,30.252 L109.802,30.252 C110.026,30.252 110.194,30.168 110.292,30.028 C110.404,29.846 110.488,29.314 110.544,28.446 L111.482,28.74 C111.398,29.888 111.23,30.602 110.992,30.854 C110.768,31.064 110.432,31.176 109.984,31.176 Z M106.638,21.082 L107.604,21.082 L107.604,24.498 C107.548,26.374 107.17,27.872 106.47,28.992 C105.798,30.028 104.678,30.854 103.11,31.442 L102.564,30.588 C104.076,30 105.14,29.244 105.742,28.32 C106.302,27.34 106.61,26.066 106.638,24.498 L106.638,21.082 Z M98.882,23.742 L100.492,23.742 L100.492,20.466 L98.7,20.466 L98.7,19.5 L103.292,19.5 L103.292,20.466 L101.528,20.466 L101.528,23.742 L103.096,23.742 L103.096,24.722 L101.528,24.722 L101.528,27.9 C102.144,27.69 102.732,27.466 103.32,27.228 L103.32,28.194 C101.934,28.754 100.45,29.216 98.868,29.594 L98.63,28.628 C99.26,28.516 99.876,28.376 100.492,28.208 L100.492,24.722 L98.882,24.722 L98.882,23.742 Z" id="开发复现" fill="#444444" fill-rule="nonzero"></path>
                                <g id="编组-7" transform="translate(20.000000, 14.000000)" fill-rule="nonzero" stroke="#00A4FF" stroke-width="2">
                                    <rect id="矩形" x="1" y="1" width="24" height="20"></rect>
                                    <polyline id="路径-6" points="9.29980989 15.7778633 6 11.3889316 9.29980989 7"></polyline>
                                    <path d="M16.7134538,15.5 C13.1054046,15.5 11.3013801,15.5 11.3013801,15.5" id="路径-6复制-2"></path>
                                </g>
                            </g>
                        </g>
                        <g id="XMLID_25_复制-16" transform="translate(675.000000, 50.000000)">
                            <g id="分组-copy">
                                <g id="XMLID_134_">
                                    <use fill="black" fill-opacity="1" filter="url(#filter-10)" xlink:href="#path-9"></use>
                                    <use fill="#FFFFFF" fill-rule="evenodd" xlink:href="#path-9"></use>
                                </g>
                                <path d="M64.106,18.52 L65.086,18.646 C64.96,19.01 64.806,19.36 64.638,19.696 L68.642,19.696 L68.642,20.564 C68.18,21.488 67.48,22.286 66.542,22.958 C67.354,23.322 68.292,23.63 69.37,23.882 L68.978,24.82 C67.62,24.484 66.486,24.064 65.576,23.56 C64.596,24.092 63.434,24.526 62.076,24.862 L61.698,23.952 C62.832,23.686 63.826,23.35 64.666,22.958 C64.078,22.51 63.602,22.006 63.266,21.474 C62.972,21.754 62.664,22.006 62.328,22.258 L61.754,21.502 C62.902,20.69 63.686,19.696 64.106,18.52 Z M63.896,20.802 C64.288,21.432 64.848,21.978 65.59,22.454 C66.43,21.922 67.074,21.32 67.55,20.62 L64.036,20.62 C63.98,20.676 63.938,20.746 63.896,20.802 Z M59.528,18.548 L60.424,18.968 C60.088,20.018 59.682,21.012 59.192,21.936 L59.192,31.414 L58.226,31.414 L58.226,23.532 C57.792,24.162 57.316,24.764 56.798,25.324 L56.504,24.316 C57.89,22.636 58.898,20.718 59.528,18.548 Z M60.438,21.026 L61.348,21.026 L61.348,28.95 L60.438,28.95 L60.438,21.026 Z M66.038,24.47 L66.766,24.932 C66.234,25.38 65.702,25.744 65.156,26.038 C64.568,26.346 63.798,26.654 62.846,26.962 L62.356,26.164 C63.14,25.968 63.854,25.73 64.498,25.436 C65.058,25.156 65.562,24.834 66.038,24.47 Z M67.368,25.506 L68.04,26.024 C66.92,27.424 65.282,28.418 63.112,29.034 L62.706,28.18 C64.778,27.634 66.332,26.738 67.368,25.506 Z M62.552,31.498 L62.132,30.574 C63.728,30.154 65.016,29.65 66.01,29.062 C67.004,28.488 67.858,27.732 68.558,26.808 L69.272,27.34 C68.656,28.306 67.718,29.16 66.458,29.888 C65.198,30.588 63.896,31.134 62.552,31.498 Z M73.892,20.48 C73.682,20.816 73.458,21.138 73.22,21.446 L81.452,21.446 L81.452,25.87 L75.908,25.87 C75.698,26.206 75.46,26.514 75.208,26.822 L81.48,26.822 L81.48,27.55 C80.78,28.446 79.856,29.174 78.708,29.762 C80.052,30.154 81.564,30.378 83.216,30.434 L82.978,31.358 C80.934,31.26 79.1,30.91 77.504,30.294 C75.852,30.91 73.864,31.274 71.512,31.414 L71.106,30.532 C73.136,30.448 74.872,30.196 76.314,29.776 C75.362,29.314 74.508,28.754 73.752,28.096 C73.178,28.488 72.52,28.866 71.792,29.202 L71.274,28.348 C72.884,27.704 74.06,26.878 74.816,25.87 L73.024,25.87 L73.024,21.684 C72.548,22.23 72.016,22.734 71.4,23.196 L70.798,22.412 C72.24,21.32 73.22,20.004 73.738,18.436 L74.732,18.604 C74.62,18.94 74.494,19.276 74.354,19.598 L82.544,19.598 L82.544,20.48 L73.892,20.48 Z M77.518,29.37 C78.638,28.908 79.548,28.334 80.234,27.648 L74.48,27.648 C75.376,28.348 76.384,28.922 77.518,29.37 Z M80.472,25.058 L80.472,24.022 L74.018,24.022 L74.018,25.058 L80.472,25.058 Z M74.018,23.266 L80.472,23.266 L80.472,22.244 L74.018,22.244 L74.018,23.266 Z M89.824,18.562 L90.86,18.562 L90.86,22.888 L96.054,22.888 L96.054,23.868 L90.86,23.868 L90.86,29.86 L97.244,29.86 L97.244,30.84 L84.784,30.84 L84.784,29.86 L89.824,29.86 L89.824,18.562 Z M103.572,28.614 L103.572,29.58 C102.2,30.112 100.632,30.546 98.868,30.868 L98.742,29.888 C100.59,29.58 102.2,29.146 103.572,28.614 Z M101.08,18.492 L102.046,18.87 C101.332,20.69 100.604,22.146 99.876,23.238 C100.506,23.182 101.136,23.098 101.766,23 C102.018,22.496 102.298,21.964 102.578,21.404 L103.474,21.74 C102.242,24.106 101.206,25.786 100.394,26.78 C101.402,26.584 102.41,26.318 103.418,25.982 L103.418,26.892 C101.948,27.368 100.548,27.704 99.204,27.886 L98.924,26.962 C99.106,26.878 99.26,26.78 99.386,26.668 C99.904,26.136 100.534,25.212 101.262,23.91 C100.492,24.022 99.708,24.12 98.924,24.218 L98.686,23.294 C98.84,23.238 98.98,23.112 99.106,22.93 C99.862,21.642 100.52,20.158 101.08,18.492 Z M110.362,21.04 L110.502,21.964 L106.904,22.468 C106.932,23.14 106.974,23.77 107.03,24.372 L110.74,23.784 L110.894,24.736 L107.142,25.324 C107.17,25.576 107.212,25.828 107.254,26.052 C107.394,26.78 107.562,27.41 107.758,27.97 C108.514,27.27 109.186,26.486 109.774,25.59 L110.572,26.136 C109.83,27.214 109.032,28.138 108.164,28.894 C108.22,28.978 108.262,29.076 108.318,29.16 C108.78,29.846 109.186,30.196 109.55,30.196 C109.914,30.196 110.236,29.44 110.488,27.942 L111.342,28.502 C110.95,30.35 110.39,31.288 109.662,31.288 C108.99,31.26 108.36,30.84 107.758,30 C107.632,29.832 107.52,29.664 107.436,29.482 C106.4,30.252 105.28,30.826 104.09,31.19 L103.502,30.378 C104.79,29.958 105.952,29.37 106.988,28.6 C106.722,27.984 106.512,27.312 106.344,26.556 C106.26,26.192 106.204,25.842 106.148,25.478 L103.628,25.884 L103.488,24.932 L106.022,24.526 C105.952,23.924 105.91,23.28 105.896,22.608 L103.88,22.902 L103.726,21.978 L105.868,21.67 L105.868,18.562 L106.876,18.562 L106.876,21.53 L110.362,21.04 Z M108.444,18.52 C109.158,19.192 109.704,19.766 110.096,20.256 L109.312,20.802 C108.92,20.256 108.36,19.654 107.66,19.01 L108.444,18.52 Z" id="修复上线" fill="#444444" fill-rule="nonzero"></path>
                                <g id="Group-18" transform="translate(20.000000, 15.000000)" stroke="#00A4FF" stroke-width="2">
                                    <rect id="Rectangle" x="2.30021868" y="0" width="20" height="14" rx="2"></rect>
                                    <path d="M2.30021868,14 L22.2226947,14 L25.2386512,18.4379234 C25.5490776,18.8947099 25.4304292,19.5166588 24.9736426,19.8270852 C24.8078494,19.9397562 24.6120209,20 24.411566,20 L0.11134736,20 C-0.44093739,20 -0.88865264,19.5522847 -0.88865264,19 C-0.88865264,18.7995451 -0.828408831,18.6037167 -0.715737818,18.4379234 L2.30021868,14 Z" id="Rectangle"></path>
                                    <polyline id="Path-5" points="7.30021868 4 10.3002187 6.94014191 7.30021868 10"></polyline>
                                    <path d="M12.8002187,10 L16.6985068,10" id="Line-4"></path>
                                </g>
                            </g>
                        </g>
                        <g id="XMLID_25_复制-12" transform="translate(348.000000, 0.000000)">
                            <g id="分组-copy">
                                <g id="XMLID_134_">
                                    <use fill="black" fill-opacity="1" filter="url(#filter-12)" xlink:href="#path-11"></use>
                                    <use fill="#FFFFFF" fill-rule="evenodd" xlink:href="#path-11"></use>
                                </g>
                                <path d="M17.054,18.856 L17.936,19.388 C17.278,20.55 16.62,21.502 15.962,22.244 C15.262,23.056 14.324,23.854 13.162,24.638 L12.616,23.756 C13.568,23.21 14.436,22.496 15.206,21.614 C15.878,20.83 16.494,19.92 17.054,18.856 Z M17.516,25.1 L14.688,25.1 L14.688,24.134 L23.046,24.134 C23.004,25.884 22.92,27.298 22.78,28.376 C22.64,29.44 22.416,30.196 22.094,30.616 C21.786,31.022 21.282,31.246 20.582,31.288 L18.034,31.288 L17.754,30.294 C18.566,30.322 19.336,30.336 20.064,30.336 C20.82,30.336 21.31,30.014 21.548,29.37 C21.8,28.698 21.954,27.284 22.024,25.1 L18.538,25.1 C18.202,26.626 17.74,27.844 17.138,28.74 C16.424,29.748 15.346,30.644 13.918,31.442 L13.274,30.602 C14.562,29.902 15.542,29.132 16.2,28.292 C16.788,27.48 17.222,26.416 17.516,25.1 Z M21.002,18.674 C21.814,20.83 23.256,22.538 25.342,23.784 L24.67,24.582 C22.5,23.182 20.988,21.376 20.134,19.164 L21.002,18.674 Z M39.356,27.648 C39.258,29.104 39.104,30.042 38.88,30.476 C38.656,30.896 38.222,31.12 37.55,31.12 L34.778,31.12 C34.106,31.12 33.77,30.672 33.77,29.79 L33.77,23.854 L37.592,23.854 L37.592,20.116 L33.532,20.116 L33.532,19.164 L38.572,19.164 L38.572,24.834 L34.75,24.834 L34.75,29.426 C34.75,29.902 34.89,30.154 35.184,30.168 L37.382,30.168 C37.774,30.168 38.026,29.972 38.138,29.58 C38.25,29.202 38.32,28.446 38.362,27.326 L39.356,27.648 Z M26.7,19.15 L33.07,19.15 L33.07,20.102 L31.25,20.102 L31.25,21.726 L32.846,21.726 L32.846,31.344 L31.95,31.344 L31.95,30.588 L27.96,30.588 L27.96,31.344 L27.064,31.344 L27.064,21.726 L28.59,21.726 L28.59,20.102 L26.7,20.102 L26.7,19.15 Z M27.96,29.636 L31.95,29.636 L31.95,28.278 L27.96,28.278 L27.96,29.636 Z M28.786,22.65 L27.96,22.65 L27.96,27.354 L31.95,27.354 L31.95,26.136 L31.236,26.136 C30.648,26.136 30.354,25.814 30.354,25.17 L30.354,22.65 L29.472,22.65 L29.472,23.56 C29.444,25.058 29.136,26.15 28.548,26.85 L28.016,26.36 C28.52,25.772 28.772,24.848 28.786,23.56 L28.786,22.65 Z M29.458,21.726 L30.382,21.726 L30.382,20.102 L29.458,20.102 L29.458,21.726 Z M31.95,25.352 L31.95,22.65 L31.054,22.65 L31.054,24.988 C31.054,25.226 31.166,25.352 31.404,25.352 L31.95,25.352 Z M47.252,20.704 L49.086,20.704 L49.086,18.576 L50.038,18.576 L50.038,20.704 L52.488,20.704 L52.488,24.792 L53.37,24.792 L53.37,25.73 L50.374,25.73 C51.018,27.76 52.054,29.384 53.482,30.616 L52.796,31.414 C51.396,30.098 50.374,28.432 49.716,26.43 C49.296,28.684 48.442,30.35 47.154,31.428 L46.538,30.602 C47.77,29.608 48.554,27.984 48.89,25.73 L46.874,25.73 L46.874,24.792 L49.002,24.792 C49.058,24.204 49.086,23.588 49.086,22.972 L49.086,21.642 L47.252,21.642 L47.252,20.704 Z M50.038,21.642 L50.038,22.748 C50.038,23.462 49.996,24.148 49.94,24.792 L51.522,24.792 L51.522,21.642 L50.038,21.642 Z M42.282,21.068 C42.058,21.698 41.792,22.286 41.512,22.818 L40.658,22.286 C41.274,21.152 41.708,19.906 41.988,18.534 L42.954,18.744 C42.842,19.234 42.716,19.71 42.59,20.158 L46.286,20.158 L46.286,21.068 L44.214,21.068 L44.214,23.504 L46.636,23.504 L46.636,24.442 L44.214,24.442 L44.214,29.258 L45.376,29.104 L45.376,25.59 L46.272,25.59 L46.272,30.7 L45.376,30.7 L45.376,30 L41.19,30.518 L41.19,25.59 L42.086,25.59 L42.086,29.538 L43.276,29.384 L43.276,24.442 L40.784,24.442 L40.784,23.504 L43.276,23.504 L43.276,21.068 L42.282,21.068 Z M62.022,18.59 L63.016,18.772 C62.904,19.192 62.778,19.584 62.638,19.948 L66.614,19.948 L66.614,20.732 C66.04,21.88 65.396,22.86 64.696,23.644 L63.94,23.042 C64.5,22.426 65.018,21.712 65.48,20.872 L62.218,20.872 C61.63,22.006 60.874,22.944 59.922,23.672 L59.292,22.902 C60.636,21.838 61.546,20.41 62.022,18.59 Z M62.778,23.21 L63.366,24.008 C62.624,24.428 61.798,24.792 60.902,25.1 L60.902,26.906 L63.002,26.906 L63.002,27.83 L60.902,27.83 L60.902,29.664 L65.886,29.664 L65.886,27.83 L63.912,27.83 L63.912,26.906 L65.886,26.906 L65.886,25.086 L63.94,25.086 L63.94,24.12 L66.866,24.12 L66.866,31.176 L65.886,31.176 L65.886,30.602 L60.902,30.602 L60.902,31.176 L59.936,31.176 L59.936,24.428 C60.958,24.148 61.91,23.742 62.778,23.21 Z M55.19,19.15 L59.32,19.15 L59.32,19.934 C58.9,21.194 58.424,22.51 57.864,23.882 C58.732,25.114 59.194,26.22 59.264,27.228 C59.25,27.816 59.11,28.236 58.844,28.502 C58.466,28.824 57.808,28.992 56.856,29.006 L56.534,27.998 C56.744,28.026 56.926,28.054 57.066,28.054 C57.556,28.026 57.892,27.956 58.06,27.844 C58.228,27.718 58.312,27.508 58.312,27.228 C58.312,26.276 57.836,25.198 56.898,24.022 C57.514,22.566 58.004,21.25 58.354,20.074 L56.17,20.074 L56.17,31.414 L55.19,31.414 L55.19,19.15 Z M75.882,20.004 L76.778,20.004 L76.778,30 L75.63,30 L75.63,21.404 C75,22.048 74.216,22.496 73.278,22.776 L73.278,21.628 C73.726,21.502 74.202,21.306 74.678,21.026 C75.154,20.718 75.546,20.382 75.882,20.004 Z" id="分配缺陷1" fill="#444444" fill-rule="nonzero"></path>
                            </g>
                            <g id="分组-copy复制-5" transform="translate(0.000000, 100.000000)">
                                <g id="XMLID_134_">
                                    <use fill="black" fill-opacity="1" filter="url(#filter-14)" xlink:href="#path-13"></use>
                                    <use fill="#FFFFFF" fill-rule="evenodd" xlink:href="#path-13"></use>
                                </g>
                                <path d="M15.054,18.856 L15.936,19.388 C15.278,20.55 14.62,21.502 13.962,22.244 C13.262,23.056 12.324,23.854 11.162,24.638 L10.616,23.756 C11.568,23.21 12.436,22.496 13.206,21.614 C13.878,20.83 14.494,19.92 15.054,18.856 Z M15.516,25.1 L12.688,25.1 L12.688,24.134 L21.046,24.134 C21.004,25.884 20.92,27.298 20.78,28.376 C20.64,29.44 20.416,30.196 20.094,30.616 C19.786,31.022 19.282,31.246 18.582,31.288 L16.034,31.288 L15.754,30.294 C16.566,30.322 17.336,30.336 18.064,30.336 C18.82,30.336 19.31,30.014 19.548,29.37 C19.8,28.698 19.954,27.284 20.024,25.1 L16.538,25.1 C16.202,26.626 15.74,27.844 15.138,28.74 C14.424,29.748 13.346,30.644 11.918,31.442 L11.274,30.602 C12.562,29.902 13.542,29.132 14.2,28.292 C14.788,27.48 15.222,26.416 15.516,25.1 Z M19.002,18.674 C19.814,20.83 21.256,22.538 23.342,23.784 L22.67,24.582 C20.5,23.182 18.988,21.376 18.134,19.164 L19.002,18.674 Z M37.356,27.648 C37.258,29.104 37.104,30.042 36.88,30.476 C36.656,30.896 36.222,31.12 35.55,31.12 L32.778,31.12 C32.106,31.12 31.77,30.672 31.77,29.79 L31.77,23.854 L35.592,23.854 L35.592,20.116 L31.532,20.116 L31.532,19.164 L36.572,19.164 L36.572,24.834 L32.75,24.834 L32.75,29.426 C32.75,29.902 32.89,30.154 33.184,30.168 L35.382,30.168 C35.774,30.168 36.026,29.972 36.138,29.58 C36.25,29.202 36.32,28.446 36.362,27.326 L37.356,27.648 Z M24.7,19.15 L31.07,19.15 L31.07,20.102 L29.25,20.102 L29.25,21.726 L30.846,21.726 L30.846,31.344 L29.95,31.344 L29.95,30.588 L25.96,30.588 L25.96,31.344 L25.064,31.344 L25.064,21.726 L26.59,21.726 L26.59,20.102 L24.7,20.102 L24.7,19.15 Z M25.96,29.636 L29.95,29.636 L29.95,28.278 L25.96,28.278 L25.96,29.636 Z M26.786,22.65 L25.96,22.65 L25.96,27.354 L29.95,27.354 L29.95,26.136 L29.236,26.136 C28.648,26.136 28.354,25.814 28.354,25.17 L28.354,22.65 L27.472,22.65 L27.472,23.56 C27.444,25.058 27.136,26.15 26.548,26.85 L26.016,26.36 C26.52,25.772 26.772,24.848 26.786,23.56 L26.786,22.65 Z M27.458,21.726 L28.382,21.726 L28.382,20.102 L27.458,20.102 L27.458,21.726 Z M29.95,25.352 L29.95,22.65 L29.054,22.65 L29.054,24.988 C29.054,25.226 29.166,25.352 29.404,25.352 L29.95,25.352 Z M45.252,20.704 L47.086,20.704 L47.086,18.576 L48.038,18.576 L48.038,20.704 L50.488,20.704 L50.488,24.792 L51.37,24.792 L51.37,25.73 L48.374,25.73 C49.018,27.76 50.054,29.384 51.482,30.616 L50.796,31.414 C49.396,30.098 48.374,28.432 47.716,26.43 C47.296,28.684 46.442,30.35 45.154,31.428 L44.538,30.602 C45.77,29.608 46.554,27.984 46.89,25.73 L44.874,25.73 L44.874,24.792 L47.002,24.792 C47.058,24.204 47.086,23.588 47.086,22.972 L47.086,21.642 L45.252,21.642 L45.252,20.704 Z M48.038,21.642 L48.038,22.748 C48.038,23.462 47.996,24.148 47.94,24.792 L49.522,24.792 L49.522,21.642 L48.038,21.642 Z M40.282,21.068 C40.058,21.698 39.792,22.286 39.512,22.818 L38.658,22.286 C39.274,21.152 39.708,19.906 39.988,18.534 L40.954,18.744 C40.842,19.234 40.716,19.71 40.59,20.158 L44.286,20.158 L44.286,21.068 L42.214,21.068 L42.214,23.504 L44.636,23.504 L44.636,24.442 L42.214,24.442 L42.214,29.258 L43.376,29.104 L43.376,25.59 L44.272,25.59 L44.272,30.7 L43.376,30.7 L43.376,30 L39.19,30.518 L39.19,25.59 L40.086,25.59 L40.086,29.538 L41.276,29.384 L41.276,24.442 L38.784,24.442 L38.784,23.504 L41.276,23.504 L41.276,21.068 L40.282,21.068 Z M60.022,18.59 L61.016,18.772 C60.904,19.192 60.778,19.584 60.638,19.948 L64.614,19.948 L64.614,20.732 C64.04,21.88 63.396,22.86 62.696,23.644 L61.94,23.042 C62.5,22.426 63.018,21.712 63.48,20.872 L60.218,20.872 C59.63,22.006 58.874,22.944 57.922,23.672 L57.292,22.902 C58.636,21.838 59.546,20.41 60.022,18.59 Z M60.778,23.21 L61.366,24.008 C60.624,24.428 59.798,24.792 58.902,25.1 L58.902,26.906 L61.002,26.906 L61.002,27.83 L58.902,27.83 L58.902,29.664 L63.886,29.664 L63.886,27.83 L61.912,27.83 L61.912,26.906 L63.886,26.906 L63.886,25.086 L61.94,25.086 L61.94,24.12 L64.866,24.12 L64.866,31.176 L63.886,31.176 L63.886,30.602 L58.902,30.602 L58.902,31.176 L57.936,31.176 L57.936,24.428 C58.958,24.148 59.91,23.742 60.778,23.21 Z M53.19,19.15 L57.32,19.15 L57.32,19.934 C56.9,21.194 56.424,22.51 55.864,23.882 C56.732,25.114 57.194,26.22 57.264,27.228 C57.25,27.816 57.11,28.236 56.844,28.502 C56.466,28.824 55.808,28.992 54.856,29.006 L54.534,27.998 C54.744,28.026 54.926,28.054 55.066,28.054 C55.556,28.026 55.892,27.956 56.06,27.844 C56.228,27.718 56.312,27.508 56.312,27.228 C56.312,26.276 55.836,25.198 54.898,24.022 C55.514,22.566 56.004,21.25 56.354,20.074 L54.17,20.074 L54.17,31.414 L53.19,31.414 L53.19,19.15 Z M75.002,19.808 C75.926,19.808 76.682,20.074 77.284,20.606 C77.872,21.138 78.18,21.852 78.18,22.72 C78.18,23.588 77.844,24.372 77.2,25.072 C76.85,25.436 76.164,25.982 75.128,26.682 C73.854,27.536 73.126,28.306 72.944,28.978 L78.194,28.978 L78.194,30 L71.53,30 C71.53,29.09 71.852,28.264 72.524,27.522 C72.916,27.074 73.63,26.472 74.694,25.744 C75.478,25.184 75.996,24.778 76.262,24.498 C76.766,23.952 77.032,23.35 77.032,22.706 C77.032,22.09 76.85,21.628 76.486,21.292 C76.122,20.956 75.604,20.788 74.96,20.788 C74.274,20.788 73.742,21.012 73.378,21.488 C72.986,21.936 72.776,22.608 72.762,23.49 L71.614,23.49 C71.614,22.37 71.936,21.474 72.552,20.816 C73.168,20.144 73.994,19.808 75.002,19.808 Z" id="分配缺陷2" fill="#444444" fill-rule="nonzero"></path>
                            </g>
                        </g>
                        <g id="XMLID_25_复制-13">
                            <g id="分组-copy">
                                <g id="XMLID_134_">
                                    <use fill="black" fill-opacity="1" filter="url(#filter-16)" xlink:href="#path-15"></use>
                                    <use fill="#FFFFFF" fill-rule="evenodd" xlink:href="#path-15"></use>
                                </g>
                                <path d="M19.436,20.914 L17.77,20.914 L17.77,19.934 L22.096,19.934 L22.096,20.914 L20.472,20.914 L20.472,27.242 C21.074,27.032 21.648,26.822 22.194,26.598 L22.194,27.606 C20.962,28.124 19.534,28.6 17.91,29.034 L17.616,28.04 C18.246,27.886 18.848,27.732 19.436,27.564 L19.436,20.914 Z M22.628,19.164 L30.384,19.164 L30.384,20.144 L27.038,20.144 C26.954,20.676 26.856,21.166 26.744,21.642 L29.712,21.642 L29.712,28.222 L28.732,28.222 L28.732,22.566 L24.238,22.566 L24.238,28.222 L23.272,28.222 L23.272,21.642 L25.736,21.642 C25.876,21.166 25.974,20.662 26.044,20.144 L22.628,20.144 L22.628,19.164 Z M27.626,28.25 C28.774,29.09 29.754,29.93 30.538,30.77 L29.81,31.498 C29.11,30.686 28.158,29.818 26.954,28.894 L27.626,28.25 Z M25.918,23.462 L26.926,23.462 L26.926,25.87 C26.87,27.382 26.478,28.586 25.722,29.496 C24.98,30.322 23.776,30.98 22.096,31.456 L21.55,30.588 C23.174,30.154 24.322,29.566 24.966,28.838 C25.554,28.082 25.876,27.088 25.918,25.87 L25.918,23.462 Z M42.704,19.248 L42.704,31.386 L41.696,31.386 L41.696,30.476 L34.332,30.476 L34.332,31.414 L33.31,31.414 L33.31,19.248 L42.704,19.248 Z M34.332,29.496 L41.696,29.496 L41.696,26.864 L34.332,26.864 L34.332,29.496 Z M34.332,25.94 L41.696,25.94 L41.696,23.476 L34.332,23.476 L34.332,25.94 Z M34.332,22.552 L41.696,22.552 L41.696,20.228 L34.332,20.228 L34.332,22.552 Z M46.512,18.856 C47.296,19.472 47.954,20.102 48.486,20.718 L47.828,21.39 C47.352,20.802 46.68,20.172 45.826,19.514 L46.512,18.856 Z M46.288,22.3 C47.044,22.972 47.688,23.63 48.206,24.302 L47.548,24.96 C47.072,24.33 46.428,23.658 45.602,22.944 L46.288,22.3 Z M47.52,26.066 L48.374,26.402 C47.842,28.11 47.24,29.72 46.596,31.232 L45.672,30.84 C46.372,29.286 46.988,27.69 47.52,26.066 Z M53.736,19.248 L53.736,27.788 L52.84,27.788 L52.84,20.116 L49.942,20.116 L49.942,27.872 L49.046,27.872 L49.046,19.248 L53.736,19.248 Z M52.238,28.446 C53.092,29.202 53.806,29.972 54.38,30.728 L53.708,31.4 C53.204,30.658 52.518,29.874 51.622,29.034 L52.238,28.446 Z M50.978,21.082 L51.818,21.082 L51.818,25.52 C51.79,27.116 51.538,28.39 51.062,29.342 C50.6,30.21 49.844,30.91 48.808,31.414 L48.276,30.574 C49.284,30.098 49.984,29.468 50.376,28.684 C50.74,27.872 50.95,26.822 50.978,25.52 L50.978,21.082 Z M56.76,31.288 L55.22,31.288 L55.01,30.35 C55.5,30.392 55.976,30.42 56.424,30.42 C56.746,30.42 56.914,30.224 56.914,29.86 L56.914,18.646 L57.866,18.646 L57.866,30.098 C57.866,30.882 57.488,31.288 56.76,31.288 Z M54.842,19.794 L55.724,19.794 L55.724,28.53 L54.842,28.53 L54.842,19.794 Z M65.58,25.198 L64.264,25.198 L64.264,24.26 L67.89,24.26 L67.89,25.198 L66.574,25.198 L66.574,28.992 C67.19,28.852 67.806,28.698 68.394,28.53 L68.394,29.468 C67.176,29.818 65.86,30.112 64.46,30.35 L64.208,29.398 C64.67,29.342 65.132,29.272 65.58,29.188 L65.58,25.198 Z M70.886,31.19 C70.41,31.19 69.976,30.826 69.612,30.098 C69.192,29.258 68.884,28.124 68.688,26.668 C68.534,25.436 68.436,23.896 68.38,22.062 L63.942,22.062 L63.942,21.082 L68.352,21.082 C68.324,20.27 68.324,19.416 68.324,18.52 L69.304,18.52 C69.304,19.43 69.304,20.284 69.332,21.082 L72.118,21.082 L72.118,22.062 L69.346,22.062 C69.416,24.47 69.57,26.318 69.794,27.634 C70.102,29.23 70.466,30.042 70.886,30.098 C71.166,30.042 71.46,29.188 71.74,27.522 L72.538,28.166 C72.076,30.182 71.53,31.19 70.886,31.19 Z M70.508,18.506 C71.11,19.178 71.572,19.766 71.908,20.27 L71.208,20.76 C70.858,20.214 70.382,19.612 69.794,18.94 L70.508,18.506 Z M61.268,18.702 C62.164,19.416 62.906,20.13 63.522,20.858 L62.836,21.558 C62.276,20.872 61.52,20.144 60.568,19.388 L61.268,18.702 Z M59.588,22.846 L62.528,22.846 L62.528,28.95 C62.948,28.544 63.368,28.096 63.816,27.606 L64.082,28.67 C63.312,29.51 62.5,30.252 61.632,30.896 L61.24,30 C61.436,29.832 61.548,29.636 61.548,29.426 L61.548,23.812 L59.588,23.812 L59.588,22.846 Z" id="项目测试" fill="#444444" fill-rule="nonzero"></path>
                            </g>
                            <g id="分组-copy复制-5" transform="translate(0.000000, 100.000000)">
                                <g id="XMLID_134_">
                                    <use fill="black" fill-opacity="1" filter="url(#filter-18)" xlink:href="#path-17"></use>
                                    <use fill="#FFFFFF" fill-rule="evenodd" xlink:href="#path-17"></use>
                                </g>
                                <path d="M28.116,27.06 L28.116,31.442 L27.136,31.442 L27.136,30.84 L21.116,30.84 L21.116,31.442 L20.136,31.442 L20.136,27.06 L28.116,27.06 Z M21.116,29.93 L27.136,29.93 L27.136,27.97 L21.116,27.97 L21.116,29.93 Z M22.236,20.816 L23.216,21.026 C23.006,21.348 22.796,21.656 22.572,21.95 L27.738,21.95 L27.738,22.762 C27.164,23.56 26.338,24.26 25.26,24.876 C26.786,25.478 28.494,25.842 30.384,25.982 L30.16,26.892 C27.92,26.724 25.946,26.234 24.21,25.394 C22.558,26.15 20.472,26.738 17.952,27.172 L17.574,26.276 C19.828,25.912 21.704,25.45 23.188,24.862 C22.474,24.442 21.816,23.966 21.214,23.434 C20.668,23.924 20.08,24.358 19.464,24.75 L18.82,23.966 C20.206,23.168 21.34,22.118 22.236,20.816 Z M24.224,24.414 C25.19,23.938 25.96,23.392 26.534,22.804 L21.844,22.804 L21.802,22.846 C22.544,23.462 23.356,23.98 24.224,24.414 Z M29.684,19.612 L29.684,22.258 L28.662,22.258 L28.662,20.522 L19.338,20.522 L19.338,22.258 L18.316,22.258 L18.316,19.612 L23.44,19.612 C23.272,19.248 23.104,18.926 22.922,18.632 L24.028,18.464 C24.196,18.8 24.35,19.192 24.518,19.612 L29.684,19.612 Z M42.186,21.278 L34.192,21.278 L34.192,24.008 L42.186,24.008 L42.186,21.278 Z M34.192,24.988 C34.122,27.494 33.464,29.65 32.204,31.456 L31.462,30.784 C32.596,29.216 33.17,27.172 33.198,24.666 L33.198,20.284 L37.762,20.284 C37.51,19.696 37.244,19.15 36.95,18.646 L38.028,18.478 C38.28,19.01 38.532,19.612 38.784,20.284 L43.208,20.284 L43.208,24.988 L34.192,24.988 Z M49.508,23.77 L48.514,23.77 L48.514,23.91 C48.416,27.018 47.702,29.51 46.372,31.358 L45.658,30.616 C46.806,28.992 47.422,26.766 47.506,23.91 L47.506,19.584 C51.006,19.542 54.156,19.248 56.956,18.702 L57.432,19.57 C54.772,20.074 51.804,20.368 48.514,20.452 L48.514,22.818 L56.942,22.818 L56.942,23.714 C56.41,25.506 55.43,27.046 54.016,28.334 C55.22,29.174 56.676,29.916 58.384,30.56 L57.838,31.442 C56.018,30.714 54.506,29.874 53.288,28.95 C52,29.944 50.404,30.77 48.528,31.442 L47.968,30.588 C49.76,29.972 51.272,29.202 52.49,28.306 C51.006,26.976 50.012,25.464 49.508,23.77 Z M53.218,27.718 C54.506,26.584 55.402,25.268 55.92,23.77 L50.46,23.77 C50.936,25.254 51.86,26.57 53.218,27.718 Z M65.244,19.332 L67.862,19.332 L67.862,18.548 L68.842,18.548 L68.842,19.332 L71.488,19.332 L71.488,22.076 L68.842,22.076 L68.842,22.958 L72.23,22.958 L72.23,23.826 L64.474,23.826 L64.474,22.958 L67.862,22.958 L67.862,22.076 L65.244,22.076 L65.244,19.332 Z M70.606,21.278 L70.606,20.144 L68.842,20.144 L68.842,21.278 L70.606,21.278 Z M67.862,21.278 L67.862,20.144 L66.126,20.144 L66.126,21.278 L67.862,21.278 Z M71.32,24.75 L71.32,28.908 L70.382,28.908 L70.382,25.59 L66.21,25.59 L66.21,28.908 L65.272,28.908 L65.272,24.75 L71.32,24.75 Z M69.332,28.964 C70.424,29.398 71.432,29.93 72.342,30.574 L71.796,31.414 C70.83,30.686 69.836,30.112 68.828,29.692 L69.332,28.964 Z M67.75,26.136 L68.73,26.136 L68.73,27.508 C68.688,28.572 68.352,29.426 67.708,30.07 C67.092,30.658 66.07,31.134 64.656,31.47 L64.11,30.616 C65.468,30.336 66.42,29.944 66.966,29.468 C67.456,28.964 67.722,28.306 67.75,27.508 L67.75,26.136 Z M61.618,21.866 C61.226,23.014 60.722,23.98 60.12,24.764 L59.49,23.994 C60.414,22.678 61.03,20.9 61.366,18.66 L62.346,18.828 C62.22,19.584 62.066,20.284 61.898,20.942 L64.474,20.942 L64.474,21.726 C64.11,22.566 63.718,23.28 63.284,23.868 L62.556,23.294 C62.864,22.874 63.144,22.398 63.41,21.866 L61.618,21.866 Z M61.548,23.7 L62.514,23.7 L62.514,29.79 C63.102,29.468 63.69,29.034 64.292,28.488 L64.474,29.426 C63.662,30.098 62.71,30.658 61.632,31.092 L61.226,30.238 C61.436,30.112 61.548,29.93 61.548,29.678 L61.548,23.7 Z" id="客户反馈" fill="#444444" fill-rule="nonzero"></path>
                            </g>
                        </g>
                        <g id="分组-30-copy复制-10" transform="translate(632.000000, 71.000000)">
                            <polygon id="XMLID_22_" fill="#878787" transform="translate(30.500000, 4.500000) rotate(-360.000000) translate(-30.500000, -4.500000) " points="28 9 33 4.5 28 0"></polygon>
                            <path d="M28,4.5 L0.534114682,4.5" id="直线-3" stroke="#878787" stroke-linecap="square"></path>
                        </g>
                        <g id="分组-30-copy复制-15" transform="translate(219.500000, 69.500000) rotate(-270.000000) translate(-219.500000, -69.500000) translate(199.000000, 65.000000)">
                            <polygon id="XMLID_22_" fill="#878787" transform="translate(38.500000, 4.500000) rotate(-360.000000) translate(-38.500000, -4.500000) " points="36 9 41 4.5 36 3.63797881e-12"></polygon>
                            <path d="M36,4.5 L1.5,4.5" id="直线-3" stroke="#878787" stroke-linecap="square"></path>
                        </g>
                        <g id="分组" transform="translate(311.500000, 75.000000) rotate(-180.000000) translate(-311.500000, -75.000000) translate(285.000000, 20.000000)">
                            <polygon id="Fill-3" fill="#878787" transform="translate(2.500000, 105.500000) rotate(-180.000000) translate(-2.500000, -105.500000) " points="0 110 5 105.5 0 101"></polygon>
                            <polygon id="Fill-3复制" fill="#878787" transform="translate(2.500000, 4.500000) rotate(-180.000000) translate(-2.500000, -4.500000) " points="0 9 5 4.5 0 3.18323146e-12"></polygon>
                            <path d="M52.5,105 L26.5102761,105" id="Stroke-5" stroke="#878787"></path>
                            <path d="M27,4.5 L5,4.5" id="Stroke-6" stroke="#878787"></path>
                            <polyline id="Stroke-7" stroke="#878787" points="5 105 26.9900273 104.925564 27 4"></polyline>
                        </g>
                        <g id="分组复制-4" transform="translate(90.000000, 20.000000)">
                            <polygon id="Fill-3复制" fill="#878787" points="47 9 52 4.5 47 0"></polygon>
                            <path d="M47.5,4.4998 L21.5102761,4.4998" id="Stroke-5" stroke="#878787"></path>
                            <path d="M22,4.5 L0,4.5" id="Stroke-6" stroke="#878787"></path>
                            <polyline id="Stroke-7" stroke="#878787" points="0 105 21.9900273 104.925564 22 4"></polyline>
                        </g>
                        <g id="分组复制-5" transform="translate(438.000000, 24.000000)">
                            <polygon id="Fill-3复制" fill="#878787" points="47 56 52 51.5 47 47"></polygon>
                            <path d="M47.5,51.4998 L21.5102761,51.4998" id="Stroke-5" stroke="#878787"></path>
                            <path d="M22,0.5 L0,0.5" id="Stroke-6" stroke="#878787"></path>
                            <polyline id="Stroke-7" stroke="#878787" points="0 101 21.9900273 100.925564 22 1.54987134e-12"></polyline>
                        </g>
                    </g>
                </g>
            </g>
        </g>
    </g>
</svg>