<svg id="图层_1" data-name="图层 1" xmlns="http://www.w3.org/2000/svg" viewBox="0 0 48 47.81"><defs><style>.cls-1{fill:#00a4ff;}.cls-2{fill:none;stroke:#00a4ff;stroke-miterlimit:10;stroke-width:2px;}</style></defs><title>KMS(48x48)</title><path class="cls-1" d="M30,13v9H18V13H30m2-2H16V24H32V11Z"/><polyline class="cls-2" points="27 26 27 29.03 26 31 27 33.02 27 35.5 24 38.5 21 35.5 21 26"/><path class="cls-1" d="M26,15H22a1,1,0,0,0,0,2h4a1,1,0,0,0,0-2Z"/><path class="cls-1" d="M24,0a24,24,0,0,0-3,47.81v-2a22,22,0,1,1,6,0v2A24,24,0,0,0,24,0Z"/></svg>