<?xml version="1.0" encoding="UTF-8"?>
<svg width="32px" height="32px" viewBox="0 0 32 32" version="1.1" xmlns="http://www.w3.org/2000/svg" xmlns:xlink="http://www.w3.org/1999/xlink">
    <!-- Generator: Sketch 51.2 (57519) - http://www.bohemiancoding.com/sketch -->
    <title>数据库</title>
    <desc>Created with Sketch.</desc>
    <defs></defs>
    <g id="数据库" stroke="none" stroke-width="1" fill="none" fill-rule="evenodd">
        <g id="云数据库" fill="#00A4FF" fill-rule="nonzero">
            <g id="关系型数据库CDB">
                <path d="M14.4,19.4285714 L13.7142857,19.4285714 C7.42857143,19.4285714 2.28571429,17.9428571 2.28571429,16 L2.28571429,8.8 C4.8,10.4 8.91428571,11.4285714 13.7142857,11.4285714 C18.5142857,11.4285714 22.7428571,10.4 25.1428571,8.91428571 L25.1428571,14.0571429 C25.9307958,14.2922912 26.6958239,14.5983025 27.4285714,14.9714286 L27.4285714,5.71428571 C27.4285714,2.51428571 21.2571429,0 13.7142857,0 C6.17142857,0 0,2.51428571 0,5.71428571 L0,26.2857143 L2.28571429,26.2857143 L2.28571429,19.2 C4.57142857,20.6857143 8.34285714,21.6 12.8,21.7142857 C13.1956254,21.3437594 13.615612,21.0001339 14.0571429,20.6857143 C14.1028496,20.2509124 14.2186325,19.826375 14.4,19.4285714 Z M13.7142857,2.28571429 C20,2.28571429 25.1428571,3.77142857 25.1428571,5.71428571 C25.1428571,7.65714286 20,9.14285714 13.7142857,9.14285714 C7.42857143,9.14285714 2.28571429,7.54285714 2.28571429,5.71428571 C2.28571429,3.77142857 7.42857143,2.28571429 13.7142857,2.28571429 Z M2.28571429,26.2857143 L0,26.2857143 C0,29.1428571 5.02857143,31.5428571 11.6571429,31.8857143 C11.1863011,31.1317021 10.8028773,30.3265122 10.5142857,29.4857143 C5.82857143,29.1428571 2.28571429,27.8857143 2.28571429,26.2857143 Z M28.5714286,22.9714286 L28.5714286,22.8571429 C28.5714286,19.70123 26.0130557,17.1428571 22.8571429,17.1428571 C19.70123,17.1428571 17.1428571,19.70123 17.1428571,22.8571429 L17.1428571,22.9714286 C14.9118951,23.5533275 13.4591595,25.7003384 13.7486973,27.9876875 C14.0382352,30.2750366 15.9801256,31.992348 18.2857143,32 L27.4285714,32 C29.9501757,31.992469 31.992469,29.9501757 32,27.4285714 C31.9827507,25.343214 30.5825911,23.5230066 28.5714286,22.9714286 Z M27.4285714,29.7142857 L18.2857143,29.7142857 C17.0249122,29.7105202 16.0037655,28.6893736 16,27.4285714 C15.9887614,26.3913721 16.7027976,25.4869263 17.7142857,25.2571429 L19.4285714,24.8 L19.4285714,22.7428571 C19.4837148,20.891199 21.0046795,19.4209331 22.8571429,19.4285714 C24.6932639,19.4609638 26.191117,20.9088885 26.2857143,22.7428571 L26.2857143,24.8 L28,25.2571429 C29.0114881,25.4869263 29.7255243,26.3913721 29.7142857,27.4285714 C29.7105202,28.6893736 28.6893736,29.7105202 27.4285714,29.7142857 Z" id="Shape"></path>
            </g>
        </g>
    </g>
</svg>