<?xml version="1.0" encoding="UTF-8"?>
<svg width="32px" height="32px" viewBox="0 0 32 32" version="1.1" xmlns="http://www.w3.org/2000/svg" xmlns:xlink="http://www.w3.org/1999/xlink">
    <!-- Generator: Sketch 52.6 (67491) - http://www.bohemiancoding.com/sketch -->
    <title>一站式教学练平台 T-Lab-32px</title>
    <desc>Created with Sketch.</desc>
    <g id="一站式教学练平台-T-Lab-32px" stroke="none" stroke-width="1" fill="none" fill-rule="evenodd">
        <rect id="Rectangle-Copy" fill="#444444" opacity="0" x="0" y="0" width="32" height="32"></rect>
        <g id="Group" transform="translate(1.000000, 3.000000)" fill="#7C848E">
            <path d="M28,26 C27.2897779,25.9957131 26.6351046,25.6150891 26.28,25 L1,25 L1,8 L3,8 L3,23 L26.28,23 C26.7660656,22.1581503 27.7870648,21.7877158 28.6998631,22.1220358 C29.6126615,22.4563558 30.1528813,23.3985996 29.9802345,24.3552416 C29.8075876,25.3118835 28.9720785,26.0058471 28,26 Z" id="_复合路径_-path"></path>
            <path d="M27.0120508,3.00018082 L3.73205081,3.00018082 C3.27944513,3.78411685 2.35672894,4.16631841 1.48236191,3.93203247 C0.607994882,3.69774653 -3.36397576e-14,2.90539218 -3.37507799e-14,2.00018082 C-3.38618023e-14,1.09496946 0.607994882,0.302615105 1.48236191,0.0683291662 C2.35672894,-0.165956773 3.27944513,0.216244788 3.73205081,1.00018082 L29.0120508,1.00018082 L29.0120508,18.0001808 L27.0120508,18.0001808 L27.0120508,3.00018082 Z" id="_复合路径_-path"></path>
            <circle id="Oval" fill-rule="nonzero" cx="15" cy="13" r="2"></circle>
            <circle id="Oval-Copy" fill-rule="nonzero" cx="22" cy="14" r="2"></circle>
            <circle id="Oval-Copy-2" fill-rule="nonzero" cx="10" cy="18" r="2"></circle>
            <circle id="Oval-Copy-3" fill-rule="nonzero" cx="11" cy="7" r="2"></circle>
            <rect id="Rectangle" fill-rule="nonzero" transform="translate(18.107188, 13.613426) rotate(9.000000) translate(-18.107188, -13.613426) " x="14.1071878" y="12.6134262" width="8" height="2"></rect>
            <rect id="Rectangle-Copy-2" fill-rule="nonzero" transform="translate(12.535534, 15.535534) scale(-1, 1) rotate(45.000000) translate(-12.535534, -15.535534) " x="8.53553391" y="14.5355339" width="8" height="2"></rect>
            <rect id="Rectangle-Copy-3" fill-rule="nonzero" transform="translate(13.017227, 9.899321) scale(-1, 1) rotate(-57.000000) translate(-13.017227, -9.899321) " x="9.01722671" y="8.89932131" width="8" height="2"></rect>
        </g>
        <path d="M12.8548303,23.3580416 C13.3935572,22.9336947 13.7833278,22.3286939 13.9327989,21.634382 C14.5772507,21.8708966 15.2735485,22 16,22 C18.1091429,22 19.9641068,20.9117303 21.0340011,19.2660814 C21.5441863,19.7090878 22.2054495,19.982658 22.9302028,19.999204 C21.5470785,22.3908485 18.961458,24 16,24 C14.8834118,24 13.8202523,23.7712443 12.8548303,23.3580416 Z M8.64195836,19.1451697 C8.22875567,18.1797477 8,17.1165882 8,16 C8,14.3256449 8.51437627,12.7714289 9.39372826,11.4867524 C9.73474185,12.0832613 10.274642,12.551431 10.9230753,12.8009079 C10.338373,13.7268783 10,14.8239235 10,16 C10,16.7264515 10.1291034,17.4227493 10.365618,18.0672011 C9.67130613,18.2166722 9.06630531,18.6064428 8.64195836,19.1451697 Z M21.7477497,14.2730551 C21.0060962,11.8011434 18.7133879,10 16,10 C15.6588931,10 15.3244346,10.0284646 14.99887,10.0831481 C14.9996217,10.0555237 15,10.027806 15,10 C15,9.30900752 14.7663848,8.6725788 14.3738278,8.16538741 C14.8989098,8.05696447 15.4428025,8 16,8 C19.7638052,8 22.9205341,10.5992022 23.7731515,14.1005712 C23.5264834,14.034965 23.2673249,14 23,14 C22.5530134,14 22.128859,14.097756 21.7477497,14.2730551 Z" id="Combined-Shape" fill="#7C848E" fill-rule="nonzero"></path>
    </g>
</svg>