<?xml version="1.0" encoding="UTF-8"?>
<svg width="32px" height="32px" viewBox="0 0 32 32" version="1.1" xmlns="http://www.w3.org/2000/svg" xmlns:xlink="http://www.w3.org/1999/xlink">
    <!-- Generator: Sketch 52.6 (67491) - http://www.bohemiancoding.com/sketch -->
    <title>数据加密服务-32px</title>
    <desc>Created with Sketch.</desc>
    <g id="数据加密服务-32px" stroke="none" stroke-width="1" fill="none" fill-rule="evenodd">
        <rect id="Rectangle-Copy" fill="#444444" opacity="0" x="0" y="0" width="32" height="32"></rect>
        <g id="Group" transform="translate(3.000000, 2.000000)" fill="#7C848E">
            <g id="Group-12" transform="translate(6.000000, 5.000000)">
                <rect id="Rectangle-22" x="0" y="6" width="2" height="9"></rect>
                <rect id="Rectangle-22-Copy" x="12" y="6" width="2" height="10"></rect>
                <rect id="Rectangle-23" x="0" y="14" width="13" height="2"></rect>
                <rect id="Rectangle-23-Copy" x="0" y="5" width="14" height="2"></rect>
                <path d="M12,5 L10,5 C10,3.34314575 8.65685425,2 7,2 C5.34314575,2 4,3.34314575 4,5 L2,5 C2,2.23857625 4.23857625,0 7,0 C9.76142375,0 12,2.23857625 12,5 Z" id="Oval-10" fill-rule="nonzero"></path>
            </g>
            <path d="M24,6 L24,15.2 C24,15.2 24,17.5 22.6,20 C20.8,23.4 17.5,25.7 13,26.9 C2.3,24.3 2,15.6 2,15.2 L2,2 L22,2 L24,2 L26,2 L26,0 L0,0 L0,15.2 C0,15.2 0.1,26 13,29 C25.9,26 26,15.2 26,15.2 L26,6 L24,6 Z" id="Shape" fill-rule="nonzero"></path>
        </g>
    </g>
</svg>