<?xml version="1.0" encoding="UTF-8"?>
<svg width="32px" height="32px" viewBox="0 0 32 32" version="1.1" xmlns="http://www.w3.org/2000/svg" xmlns:xlink="http://www.w3.org/1999/xlink">
    <!-- Generator: Sketch 52.6 (67491) - http://www.bohemiancoding.com/sketch -->
    <title>数据安全网关-32px</title>
    <desc>Created with Sketch.</desc>
    <g id="数据安全网关-32px" stroke="none" stroke-width="1" fill="none" fill-rule="evenodd">
        <rect id="Rectangle-Copy" fill="#444444" opacity="0" x="0" y="0" width="32" height="32"></rect>
        <g id="Group" transform="translate(3.000000, 2.000000)" fill="#7C848E">
            <path d="M8,11 L8,16 L9,16 L9,18 L6,18 L6,17 L6,9 L8,9 L9,9 L9,6 L11,6 L11,9 L15,9 L15,6 L17,6 L17,9 L18,9 L20,9 L20,18 L18,18 L17,18 L17,16 L18,16 L18,11 L8,11 Z M18,19 L14,22 L14,12 L16,12 L16,19 L18,19 Z M8,15 L12,12 L12,22 L10,22 L10,15 L8,15 Z M24,6 L26,6 L26,15.2 C26,15.2 25.9,26 13,29 C0.1,26 0,15.2 0,15.2 L0,0 L26,0 L26,2 L24,2 L22,2 L2,2 L2,15.2 C2,15.6 2.3,24.3 13,26.9 C17.5,25.7 20.8,23.4 22.6,20 C24,17.5 24,15.2 24,15.2 L24,6 Z" id="Combined-Shape"></path>
        </g>
    </g>
</svg>