<?xml version="1.0" encoding="UTF-8"?>
<svg width="144px" height="144px" viewBox="0 0 144 144" version="1.1" xmlns="http://www.w3.org/2000/svg" xmlns:xlink="http://www.w3.org/1999/xlink">
    <!-- Generator: Sketch 48.2 (47327) - http://www.bohemiancoding.com/sketch -->
    <title>CDN</title>
    <desc>Created with Sketch.</desc>
    <defs></defs>
    <g id="切图" stroke="none" stroke-width="1" fill="none" fill-rule="evenodd">
        <g id="CDN" fill="#000000">
            <path d="M72,4 L13,38 L13,40 L13,104 L13,106 L72,140 L131,106 L131,46.999 L128,48.75 L128,104.728 L72,136.999 L16,104.728 L16,39.271 L72,7 L127.283,38.858 L130.07,37.465 L72,4 Z M70,36.286 L101,53.999 L101,88 L101,92.235 L104,94 L104,52 L70,32 L70,36.286 Z M54,45.286 L57,46.999 L85,62.999 L85,97 L85,101.235 L88,103 L88,61 L54,42 L54,45.286 Z M38,91.999 L72,112 L72,70 L38,51 L38,91.999 Z M40.999,89.999 L40.999,55.999 L68.999,71.999 L68.999,107 L40.999,89.999 Z" id="Page-1"></path>
        </g>
    </g>
</svg>