<?xml version="1.0" encoding="UTF-8"?>
<svg width="144px" height="144px" viewBox="0 0 144 144" version="1.1" xmlns="http://www.w3.org/2000/svg" xmlns:xlink="http://www.w3.org/1999/xlink">
    <!-- Generator: Sketch 48.2 (47327) - http://www.bohemiancoding.com/sketch -->
    <title>COS</title>
    <desc>Created with Sketch.</desc>
    <defs></defs>
    <g id="切图" stroke="none" stroke-width="1" fill="none" fill-rule="evenodd">
        <g id="COS" fill="#000000">
            <path d="M72,4 L13,38 L13,40 L13,41 L13,103 L13,104 L13,106 L72,140 L131,106 L131,46.999 L128,48.75 L128,104.728 L72,136.999 L15.999,104.728 L15.999,39.271 L72,7 L127.283,38.858 L130.071,37.465 L72,4 Z M40,53.999 L40,55.999 L40,56.999 L40,87 L40,88 L40,89.999 L73,109.999 L73,109.79 L105.999,89.999 L105.999,88 L105.999,87 L105.999,58 L105.999,55.999 L105.999,54.999 L73,34 L40,53.999 Z M42.605,55.421 L73,36.999 L103.394,56.342 L73,71.999 L42.605,55.421 Z M42.999,88.818 L42.999,58.635 L72,74.454 L72,106.393 L42.999,88.818 Z M75,73.97 L103,59.545 L103,88.818 L75,105.787 L75,73.97 Z" id="Page-1"></path>
        </g>
    </g>
</svg>