<?xml version="1.0" encoding="utf-8"?>
<!-- Generator: Adobe Illustrator 22.0.1, SVG Export Plug-In . SVG Version: 6.00 Build 0)  -->
<svg version="1.1" id="图层_1" xmlns="http://www.w3.org/2000/svg" xmlns:xlink="http://www.w3.org/1999/xlink" x="0px" y="0px"
	 width="32px" height="32px" viewBox="0 0 32 32" style="enable-background:new 0 0 32 32;" xml:space="preserve">
<style type="text/css">
	.st0{fill:#FFFFFF;}
</style>
<g id="XMLID_1755_">
	<g id="XMLID_121_">
		<g>
			<path class="st0" d="M16,29C8.8,29,3,23.2,3,16S8.8,3,16,3c6.5,0,11.9,4.8,12.8,11h2C29.9,6.7,23.6,1,16,1C7.7,1,1,7.7,1,16
				s6.7,15,15,15c7.6,0,13.9-5.7,14.9-13h-2C27.9,24.2,22.5,29,16,29z M23,12l-7-4l-7,4v8l3.2,1.8c0.2-0.7,0.6-1.2,1-1.7L11,18.8
				v-3.7l5,2.9l5-2.9v3.7l-4.1,2.4C16.6,21.1,16.3,21,16,21c-1.1,0-2,0.9-2,2s0.9,2,2,2s2-0.9,2-2c0,0,0-0.1,0-0.1l5-2.9V12z
				 M16,15.7L11.3,13l4.7-2.7l4.7,2.7L16,15.7z"/>
		</g>
	</g>
</g>
</svg>
