<?xml version="1.0" encoding="utf-8"?>
<!-- Generator: Adobe Illustrator 23.0.1, SVG Export Plug-In . SVG Version: 6.00 Build 0)  -->
<!DOCTYPE svg PUBLIC "-//W3C//DTD SVG 1.1//EN" "http://www.w3.org/Graphics/SVG/1.1/DTD/svg11.dtd" [
	<!ENTITY ns_extend "http://ns.adobe.com/Extensibility/1.0/">
	<!ENTITY ns_ai "http://ns.adobe.com/AdobeIllustrator/10.0/">
	<!ENTITY ns_graphs "http://ns.adobe.com/Graphs/1.0/">
	<!ENTITY ns_vars "http://ns.adobe.com/Variables/1.0/">
	<!ENTITY ns_imrep "http://ns.adobe.com/ImageReplacement/1.0/">
	<!ENTITY ns_sfw "http://ns.adobe.com/SaveForWeb/1.0/">
	<!ENTITY ns_custom "http://ns.adobe.com/GenericCustomNamespace/1.0/">
	<!ENTITY ns_adobe_xpath "http://ns.adobe.com/XPath/1.0/">
]>
<svg version="1.1" id="图层_1" xmlns:x="&ns_extend;" xmlns:i="&ns_ai;" xmlns:graph="&ns_graphs;"
	 xmlns="http://www.w3.org/2000/svg" xmlns:xlink="http://www.w3.org/1999/xlink" x="0px" y="0px" width="830px" height="495px"
	 viewBox="0 0 830 495" style="enable-background:new 0 0 830 495;" xml:space="preserve">
<style type="text/css">
	.st0{fill:#BABABA;}
	.st1{fill:#CEE3FF;}
	.st2{fill:#878787;}
	.st3{fill:none;stroke:#878787;stroke-miterlimit:10;}
	.st4{enable-background:new    ;}
	.st5{fill:#00A4FF;}
	.st6{opacity:0.6;fill:#BBBBBB;enable-background:new    ;}
	.st7{fill:#FFFFFF;}
	.st8{fill:#E5E5E5;}
	.st9{fill:#444444;}
	.st10{fill:#FFFFFF;stroke:#E5E5E5;}
	.st11{fill-rule:evenodd;clip-rule:evenodd;fill:#00A4FF;}
</style>
<metadata>
	<sfw  xmlns="&ns_sfw;">
		<slices></slices>
		<sliceSourceBounds  bottomLeftOrigin="true" height="495" width="830" x="0" y="0"></sliceSourceBounds>
	</sfw>
</metadata>
<g>
	<g>
		<path class="st0" d="M803,47h-6v1h6V47L803,47z M793,47h-6v1h6V47L793,47z M783,47h-6v1h6V47L783,47z M773,47h-6v1h6V47L773,47z
			 M763,47h-6v1h6V47L763,47z M753,47h-6v1h6V47L753,47z M743,47h-6v1h6V47L743,47z M733,47h-6v1h6V47L733,47z M723,47h-6v1h6V47
			L723,47z M713,47h-6v1h6V47L713,47z M703,47h-6v1h6V47L703,47z M693,47h-6v1h6V47L693,47z M683,47h-6v1h6V47L683,47z M673,47h-6v1
			h6V47L673,47z M663,47h-6v1h6V47L663,47z M653,47h-6v1h6V47L653,47z M643,47h-6v1h6V47L643,47z M633,47h-6v1h6V47L633,47z M623,47
			h-6v1h6V47L623,47z M613,47h-6v1h6V47L613,47z M603,47h-6v1h6V47L603,47z M593,47h-6v1h6V47L593,47z M583,47h-6v1h6V47L583,47z
			 M573,47h-6v1h6V47L573,47z M563,47h-6v1h6V47L563,47z M553,47h-6v1h6V47L553,47z M543,47h-6v1h6V47L543,47z M533,47h-6v1h6V47
			L533,47z M523,47h-6v1h6V47L523,47z M513,47h-1v1l0,0c0,1.5,0,4,0,4h1V47L513,47z M513,56h-1v6h1V56L513,56z M513,66h-1v6h1V66
			L513,66z M513,76h-1v6h1V76L513,76z M513,86h-1v6h1V86L513,86z M513,96h-1v6h1V96L513,96z M513,106h-1v6h1V106L513,106z M513,116
			h-1v6h1V116L513,116z M513,126h-1v6h1V126L513,126z M513,136h-1v6h1V136L513,136z M513,146h-1v6h1V146L513,146z M513,156h-1v6h1
			V156L513,156z M513,166h-1v6h1V166L513,166z M513,176h-1v6h1V176L513,176z M513,186h-1v6h1V186L513,186z M513,196h-1v6h1V196
			L513,196z M513,206h-1v6h1V206L513,206z M513,216h-1v6h1V216L513,216z M513,226h-1v6h1V226L513,226z M513,236h-1v6h1V236L513,236z
			 M513,246h-1v6h1V246L513,246z M513,256h-1v6h1V256L513,256z M513,266h-1v6h1V266L513,266z M513,276h-1v6h1V276L513,276z M513,286
			h-1v6h1V286L513,286z M513,296h-1v6h1V296L513,296z M513,306h-1v6h1V306L513,306z M513,316h-1v6h1V316L513,316z M513,326h-1v6h1
			V326L513,326z M513,336h-1v6h1V336L513,336z M513,346h-1v6h1V346L513,346z M513,356h-1v6h1V356L513,356z M513,366h-1v6h1V366
			L513,366z M513,376h-1v6h1V376L513,376z M513,386h-1v6h1V386L513,386z M513,396h-1v6h1V396L513,396z M513,406h-1v6h1V406L513,406z
			 M513,416h-1v6h1V416L513,416z M513,426h-1v6h1V426L513,426z M513,436h-1v6h1V436L513,436z M513,446h-1v6h1V446L513,446z M513,456
			h-1v6h1V456L513,456z M513,466h-1v6h1V466L513,466z M513,476h-1v2h1l0,0l0,0l0,0l0,0c1.2,0,3,0,3,0v-1h-3V476L513,476z M526,477
			h-6v1h6V477L526,477z M536,477h-6v1h6V477L536,477z M546,477h-6v1h6V477L546,477z M556,477h-6v1h6V477L556,477z M566,477h-6v1h6
			V477L566,477z M576,477h-6v1h6V477L576,477z M586,477h-6v1h6V477L586,477z M596,477h-6v1h6V477L596,477z M606,477h-6v1h6V477
			L606,477z M616,477h-6v1h6V477L616,477z M626,477h-6v1h6V477L626,477z M636,477h-6v1h6V477L636,477z M646,477h-6v1h6V477L646,477z
			 M656,477h-6v1h6V477L656,477z M666,477h-6v1h6V477L666,477z M676,477h-6v1h6V477L676,477z M686,477h-6v1h6V477L686,477z M696,477
			h-6v1h6V477L696,477z M706,477h-6v1h6V477L706,477z M716,477h-6v1h6V477L716,477z M726,477h-6v1h6V477L726,477z M736,477h-6v1h6
			V477L736,477z M746,477h-6v1h6V477L746,477z M756,477h-6v1h6V477L756,477z M766,477h-6v1h6V477L766,477z M776,477h-6v1h6V477
			L776,477z M786,477h-6v1h6V477L786,477z M796,477h-6v1h6V477L796,477z M806,477h-6v1h6V477L806,477z M813,475h-1v2h-2v1h3V475
			L813,475z M813,465h-1v6h1V465L813,465z M813,455h-1v6h1V455L813,455z M813,445h-1v6h1V445L813,445z M813,435h-1v6h1V435L813,435z
			 M813,425h-1v6h1V425L813,425z M813,415h-1v6h1V415L813,415z M813,405h-1v6h1V405L813,405z M813,395h-1v6h1V395L813,395z M813,385
			h-1v6h1V385L813,385z M813,375h-1v6h1V375L813,375z M813,365h-1v6h1V365L813,365z M813,355h-1v6h1V355L813,355z M813,345h-1v6h1
			V345L813,345z M813,335h-1v6h1V335L813,335z M813,325h-1v6h1V325L813,325z M813,315h-1v6h1V315L813,315z M813,305h-1v6h1V305
			L813,305z M813,295h-1v6h1V295L813,295z M813,285h-1v6h1V285L813,285z M813,275h-1v6h1V275L813,275z M813,265h-1v6h1V265L813,265z
			 M813,255h-1v6h1V255L813,255z M813,245h-1v6h1V245L813,245z M813,235h-1v6h1V235L813,235z M813,225h-1v6h1V225L813,225z M813,215
			h-1v6h1V215L813,215z M813,205h-1v6h1V205L813,205z M813,195h-1v6h1V195L813,195z M813,185h-1v6h1V185L813,185z M813,175h-1v6h1
			V175L813,175z M813,165h-1v6h1V165L813,165z M813,155h-1v6h1V155L813,155z M813,145h-1v6h1V145L813,145z M813,135h-1v6h1V135
			L813,135z M813,125h-1v6h1V125L813,125z M813,115h-1v6h1V115L813,115z M813,105h-1v6h1V105L813,105z M813,95h-1v6h1V95L813,95z
			 M813,85h-1v6h1V85L813,85z M813,75h-1v6h1V75L813,75z M813,65h-1v6h1V65L813,65z M813,55h-1v6h1V55L813,55z M813,47h-6v1h5v3h1
			V47L813,47z"/>
	</g>
	<g>
		<path class="st0" d="M830,0h-6v1h6V0L830,0z M820,0h-6v1h6V0L820,0z M810,0h-6v1h6V0L810,0z M800,0h-6v1h6V0L800,0z M790,0h-6v1h6
			V0L790,0z M780,0h-6v1h6V0L780,0z M770,0h-6v1h6V0L770,0z M760,0h-6v1h6V0L760,0z M750,0h-6v1h6V0L750,0z M740,0h-6v1h6V0L740,0z
			 M730,0h-6v1h6V0L730,0z M720,0h-6v1h6V0L720,0z M710,0h-6v1h6V0L710,0z M700,0h-6v1h6V0L700,0z M690,0h-6v1h6V0L690,0z M680,0h-6
			v1h6V0L680,0z M670,0h-6v1h6V0L670,0z M660,0h-6v1h6V0L660,0z M650,0h-6v1h6V0L650,0z M640,0h-6v1h6V0L640,0z M630,0h-6v1h6V0
			L630,0z M620,0h-6v1h6V0L620,0z M610,0h-6v1h6V0L610,0z M600,0h-6v1h6V0L600,0z M590,0h-6v1h6V0L590,0z M580,0h-6v1h6V0L580,0z
			 M570,0h-6v1h6V0L570,0z M560,0h-6v1h6V0L560,0z M550,0h-6v1h6V0L550,0z M540,0h-6v1h6V0L540,0z M530,0h-6v1h6V0L530,0z M520,0h-6
			v1h6V0L520,0z M510,0h-6v1h6V0L510,0z M500,0h-6v1h6V0L500,0z M490,0h-6v1h6V0L490,0z M480,0h-6v1h6V0L480,0z M470,0h-6v1h6V0
			L470,0z M460,0h-6v1h6V0L460,0z M450,0h-6v1h6V0L450,0z M440,0h-6v1h6V0L440,0z M430,0h-6v1h6V0L430,0z M420,0h-6v1h6V0L420,0z
			 M410,0h-6v1h6V0L410,0z M400,0h-6v1h6V0L400,0z M390,0h-6v1h6V0L390,0z M380,0h-6v1h6V0L380,0z M370,0h-6v1h6V0L370,0z M360,0h-6
			v1h6V0L360,0z M350,0h-6v1h6V0L350,0z M340,0h-6v1h6V0L340,0z M330,0h-6v1h6V0L330,0z M320,0h-6v1h6V0L320,0z M310,0h-6v1h6V0
			L310,0z M300,0h-6v1h6V0L300,0z M290,0h-6v1h6V0L290,0z M280,0h-6v1h6V0L280,0z M270,0h-6v1h6V0L270,0z M260,0h-6v1h6V0L260,0z
			 M250,0h-6v1h6V0L250,0z M240,0h-6v1h6V0L240,0z M230,0h-6v1h6V0L230,0z M220,0h-6v1h6V0L220,0z M210,0h-6v1h6V0L210,0z M200,0h-6
			v1h6V0L200,0z M190,0h-6v1h6V0L190,0z M180,0h-6v1h6V0L180,0z M170,0h-6v1h6V0L170,0z M160,0h-6v1h6V0L160,0z M150,0h-6v1h6V0
			L150,0z M141,0h-1v6h1V0L141,0z M141,10h-1v6h1V10L141,10z M141,20h-1v6h1V20L141,20z M141,30h-1v6h1V30L141,30z M141,40h-1v6h1
			V40L141,40z M141,50h-1v6h1V50L141,50z M141,60h-1v6h1V60L141,60z M141,70h-1v6h1V70L141,70z M141,80h-1v6h1V80L141,80z M141,90
			h-1v6h1V90L141,90z M141,100h-1v6h1V100L141,100z M141,110h-1v6h1V110L141,110z M141,120h-1v6h1V120L141,120z M141,130h-1v6h1V130
			L141,130z M141,140h-1v6h1V140L141,140z M141,150h-1v6h1V150L141,150z M141,160h-1v6h1V160L141,160z M141,170h-1v6h1V170L141,170z
			 M141,180h-1v6h1V180L141,180z M141,190h-1v6h1V190L141,190z M141,200h-1v6h1V200L141,200z M141,210h-1v6h1V210L141,210z M141,220
			h-1v6h1V220L141,220z M141,230h-1v6h1V230L141,230z M141,240h-1v6h1V240L141,240z M141,250h-1v6h1V250L141,250z M141,260h-1v6h1
			V260L141,260z M141,270h-1v6h1V270L141,270z M141,280h-1v6h1V280L141,280z M141,290h-1v6h1V290L141,290z M141,300h-1v6h1V300
			L141,300z M141,310h-1v6h1V310L141,310z M141,320h-1v6h1V320L141,320z M141,330h-1v6h1V330L141,330z M141,340h-1v6h1V340L141,340z
			 M141,350h-1v6h1V350L141,350z M141,360h-1v6h1V360L141,360z M141,370h-1v6h1V370L141,370z M141,380h-1v6h1V380L141,380z M141,390
			h-1v6h1V390L141,390z M141,400h-1v6h1V400L141,400z M141,410h-1v6h1V410L141,410z M141,420h-1v6h1V420L141,420z M141,430h-1v6h1
			V430L141,430z M141,440h-1v6h1V440L141,440z M141,450h-1v6h1V450L141,450z M141,460h-1v6h1V460L141,460z M141,470h-1v6h1V470
			L141,470z M141,480h-1v6h1V480L141,480z M141,490h-1v5h1l0,0l0,0l0,0l0,0l0,0v-1l0,0V490L141,490z M151,494h-6v1h6V494L151,494z
			 M161,494h-6v1h6V494L161,494z M171,494h-6v1h6V494L171,494z M181,494h-6v1h6V494L181,494z M191,494h-6v1h6V494L191,494z M201,494
			h-6v1h6V494L201,494z M211,494h-6v1h6V494L211,494z M221,494h-6v1h6V494L221,494z M231,494h-6v1h6V494L231,494z M241,494h-6v1h6
			V494L241,494z M251,494h-6v1h6V494L251,494z M261,494h-6v1h6V494L261,494z M271,494h-6v1h6V494L271,494z M281,494h-6v1h6V494
			L281,494z M291,494h-6v1h6V494L291,494z M301,494h-6v1h6V494L301,494z M311,494h-6v1h6V494L311,494z M321,494h-6v1h6V494L321,494z
			 M331,494h-6v1h6V494L331,494z M341,494h-6v1h6V494L341,494z M351,494h-6v1h6V494L351,494z M361,494h-6v1h6V494L361,494z M371,494
			h-6v1h6V494L371,494z M381,494h-6v1h6V494L381,494z M391,494h-6v1h6V494L391,494z M401,494h-6v1h6V494L401,494z M411,494h-6v1h6
			V494L411,494z M421,494h-6v1h6V494L421,494z M431,494h-6v1h6V494L431,494z M441,494h-6v1h6V494L441,494z M451,494h-6v1h6V494
			L451,494z M461,494h-6v1h6V494L461,494z M471,494h-6v1h6V494L471,494z M481,494h-6v1h6V494L481,494z M491,494h-6v1h6V494L491,494z
			 M501,494h-6v1h6V494L501,494z M511,494h-6v1h6V494L511,494z M521,494h-6v1h6V494L521,494z M531,494h-6v1h6V494L531,494z M541,494
			h-6v1h6V494L541,494z M551,494h-6v1h6V494L551,494z M561,494h-6v1h6V494L561,494z M571,494h-6v1h6V494L571,494z M581,494h-6v1h6
			V494L581,494z M591,494h-6v1h6V494L591,494z M601,494h-6v1h6V494L601,494z M611,494h-6v1h6V494L611,494z M621,494h-6v1h6V494
			L621,494z M631,494h-6v1h6V494L631,494z M641,494h-6v1h6V494L641,494z M651,494h-6v1h6V494L651,494z M661,494h-6v1h6V494L661,494z
			 M671,494h-6v1h6V494L671,494z M681,494h-6v1h6V494L681,494z M691,494h-6v1h6V494L691,494z M701,494h-6v1h6V494L701,494z M711,494
			h-6v1h6V494L711,494z M721,494h-6v1h6V494L721,494z M731,494h-6v1h6V494L731,494z M741,494h-6v1h6V494L741,494z M751,494h-6v1h6
			V494L751,494z M761,494h-6v1h6V494L761,494z M771,494h-6v1h6V494L771,494z M781,494h-6v1h6V494L781,494z M791,494h-6v1h6V494
			L791,494z M801,494h-6v1h6V494L801,494z M811,494h-6v1h6V494L811,494z M821,494h-6v1h6V494L821,494z M830,494h-1l0,0h-4v1h5V494
			L830,494z M830,484h-1v6h1V484L830,484z M830,474h-1v6h1V474L830,474z M830,464h-1v6h1V464L830,464z M830,454h-1v6h1V454L830,454z
			 M830,444h-1v6h1V444L830,444z M830,434h-1v6h1V434L830,434z M830,424h-1v6h1V424L830,424z M830,414h-1v6h1V414L830,414z M830,404
			h-1v6h1V404L830,404z M830,394h-1v6h1V394L830,394z M830,384h-1v6h1V384L830,384z M830,374h-1v6h1V374L830,374z M830,364h-1v6h1
			V364L830,364z M830,354h-1v6h1V354L830,354z M830,344h-1v6h1V344L830,344z M830,334h-1v6h1V334L830,334z M830,324h-1v6h1V324
			L830,324z M830,314h-1v6h1V314L830,314z M830,304h-1v6h1V304L830,304z M830,294h-1v6h1V294L830,294z M830,284h-1v6h1V284L830,284z
			 M830,274h-1v6h1V274L830,274z M830,264h-1v6h1V264L830,264z M830,254h-1v6h1V254L830,254z M830,244h-1v6h1V244L830,244z M830,234
			h-1v6h1V234L830,234z M830,224h-1v6h1V224L830,224z M830,214h-1v6h1V214L830,214z M830,204h-1v6h1V204L830,204z M830,194h-1v6h1
			V194L830,194z M830,184h-1v6h1V184L830,184z M830,174h-1v6h1V174L830,174z M830,164h-1v6h1V164L830,164z M830,154h-1v6h1V154
			L830,154z M830,144h-1v6h1V144L830,144z M830,134h-1v6h1V134L830,134z M830,124h-1v6h1V124L830,124z M830,114h-1v6h1V114L830,114z
			 M830,104h-1v6h1V104L830,104z M830,94h-1v6h1V94L830,94z M830,84h-1v6h1V84L830,84z M830,74h-1v6h1V74L830,74z M830,64h-1v6h1V64
			L830,64z M830,54h-1v6h1V54L830,54z M830,44h-1v6h1V44L830,44z M830,34h-1v6h1V34L830,34z M830,24h-1v6h1V24L830,24z M830,14h-1v6
			h1V14L830,14z M830,4h-1v6h1V4L830,4z"/>
	</g>
	<g id="GrayRectGroup6" transform="translate(669.5,130)">
		<rect x="-140.5" y="-37" class="st1" width="267" height="112"/>
	</g>
	<g>
		<g>
			<polygon class="st2" points="103,288 98,293 103,298 			"/>
		</g>
		<g>
			<polygon class="st2" points="103,158 98,163 103,168 			"/>
		</g>
		<g>
			<polygon class="st2" points="103,414 98,419 103,424 			"/>
		</g>
		<g>
			<polygon class="st2" points="157,288 162,293 157,298 			"/>
			<line class="st3" x1="157" y1="293" x2="103" y2="293"/>
		</g>
		<g>
			<polyline class="st3" points="103,419 119,419 119,163 103,163 			"/>
		</g>
	</g>
	<g>
		<g>
			<polygon class="st2" points="519,288 524,293 519,298 			"/>
		</g>
		<g>
			<polygon class="st2" points="519,158 524,163 519,168 			"/>
		</g>
		<g>
			<polygon class="st2" points="519,414 524,419 519,424 			"/>
		</g>
		<g>
			<polygon class="st2" points="475,288 470,293 475,298 			"/>
			<line class="st3" x1="475" y1="293" x2="519" y2="293"/>
		</g>
		<g>
			<polyline class="st3" points="519,419 497,419 497,163 519,163 			"/>
		</g>
	</g>
	<g transform="translate(20 9)">
		<g class="st4">
			<path class="st5" d="M532.5,100.5c1.8,1.8,3.8,3.2,6.1,4.3l-0.7,1.2c-0.7-0.3-1.3-0.7-2-1.1v1.3h-3.2v2.1h3.9v1.3h-3.9v2.2h5.2
				v1.3h-11.8v-1.3h5.2v-2.2h-4v-1.3h4v-2.1h-3.2v-1.3c-0.6,0.4-1.3,0.8-2,1.1l-0.6-1.2c2.4-1.2,4.5-2.6,6.1-4.3L532.5,100.5
				L532.5,100.5z M535.9,104.9c-1.5-0.9-2.8-2-3.9-3.2c-1.1,1.2-2.4,2.2-3.9,3.2H535.9z"/>
			<path class="st5" d="M542.5,105.6h9.3c0,3.5-0.1,5.7-0.2,6.5c-0.1,0.8-0.8,1.2-1.9,1.2c-0.3,0-0.9,0-1.7-0.1l-0.3-1.1
				c0.7,0,1.3,0.1,1.8,0.1c0.5,0,0.8-0.2,0.9-0.7c0.1-0.5,0.1-2.1,0.1-4.8h-8c-0.1,2.6-0.7,4.7-1.9,6.6l-1-0.9
				c1.1-1.5,1.7-3.5,1.7-5.9V101h9.9v3.7h-8.6L542.5,105.6L542.5,105.6z M542.5,102.2v1.2h7.3v-1.2H542.5z M548.7,107.8v3.7h-5.2
				v-3.7H548.7z M547.5,108.9h-2.8v1.5h2.8V108.9z"/>
			<path class="st5" d="M554.7,113.5l-1-0.9c0.6-1.2,0.8-2.8,0.9-4.7V101h4.4v11c0,1-0.4,1.4-1.3,1.4h-1.1l-0.3-1.2
				c0.4,0,0.7,0.1,1.1,0.1c0.3,0,0.4-0.3,0.4-0.7v-2.8h-2C555.6,110.6,555.2,112.2,554.7,113.5z M557.7,102.2h-2v2.1h2V102.2z
				 M555.7,107.5h2v-2h-2V107.5z M561.1,113.5h-1.2V101h5.9c0,1.8-0.1,3-0.3,3.6c-0.2,0.6-0.7,0.9-1.6,0.9h-1.2l-0.3-1.1
				c0.2,0,0.5,0,0.9,0c0.3,0,0.5,0,0.7-0.1s0.3-0.2,0.3-0.4c0.1-0.2,0.1-0.8,0.2-1.8h-3.4v3.9h4.7v1.1c-0.3,1.4-0.7,2.6-1.3,3.5
				c0.6,0.5,1.2,1,2,1.5l-0.7,1.1c-0.8-0.5-1.5-1-2.1-1.6c-0.6,0.6-1.3,1.2-2,1.6l-0.7-1L561.1,113.5L561.1,113.5z M561.1,112.4
				c0.7-0.4,1.3-0.9,1.9-1.5c-0.8-1-1.4-2.2-1.7-3.5h-0.2L561.1,112.4L561.1,112.4z M563.6,109.8c0.4-0.7,0.7-1.6,1-2.5h-2.2
				C562.7,108.3,563.1,109.1,563.6,109.8z"/>
			<path class="st5" d="M573,100.7c-0.1,0.3-0.3,0.7-0.5,1h6v1.1c-0.8,1-1.9,1.8-3.1,2.5c1.5,0.6,3.2,0.9,5,1.1l-0.6,1.2
				c-2.2-0.3-4.1-0.8-5.9-1.6c-1.7,0.8-3.6,1.3-5.9,1.6l-0.6-1.2c1.9-0.2,3.6-0.6,5-1.2c-0.7-0.4-1.3-0.8-1.9-1.3
				c-0.5,0.4-1,0.8-1.6,1.1l-0.8-1.1c1.6-0.9,2.7-2.1,3.3-3.4L573,100.7z M574.3,106.8c0,0.5,0,1-0.1,1.4h4.8c0,2.5-0.2,3.9-0.6,4.4
				c-0.4,0.5-1.1,0.7-2.1,0.7c-0.5,0-1.1,0-1.7-0.1l-0.3-1.2c0.7,0,1.3,0.1,1.8,0.1c0.7,0,1.2-0.2,1.3-0.4c0.2-0.3,0.3-1.1,0.3-2.3
				h-3.8c-0.1,0.3-0.3,0.7-0.4,1c-0.7,1.3-2.3,2.3-4.9,3.1l-0.9-1.1c2.3-0.7,3.8-1.5,4.5-2.5c0.1-0.2,0.2-0.4,0.3-0.5h-3.9v-1.2h4.3
				c0.1-0.4,0.1-0.9,0.1-1.4L574.3,106.8L574.3,106.8z M576.6,102.9h-4.9c0,0-0.1,0.1-0.1,0.1c0.7,0.6,1.5,1.1,2.4,1.6
				C575,104.1,575.8,103.5,576.6,102.9z"/>
			<path class="st5" d="M593.3,101v3.6h-1.7c0.3,0.4,0.5,0.7,0.7,1.1h1.9v1.2h-3.5c0.9,0.7,2.1,1.2,3.7,1.7l-0.5,1.1
				c-0.3-0.1-0.5-0.2-0.8-0.3v4H592v-0.5h-2.3v0.5h-1.2v-4.6h3.3c-1.1-0.6-2-1.2-2.6-1.9H587c-0.7,0.8-1.6,1.4-2.7,1.9h3.1v4.6h-1.2
				v-0.5h-2v0.5h-1.2v-4c-0.3,0.1-0.6,0.2-0.9,0.3l-0.6-1.1c1.6-0.4,2.8-1,3.7-1.7h-3.5v-1.2h4.7c0.2-0.3,0.4-0.7,0.6-1l1.3,0.1
				c-0.1,0.3-0.3,0.6-0.4,0.9h3.1c-0.2-0.3-0.4-0.6-0.5-0.8l1-0.3h-2.9V101L593.3,101L593.3,101z M587.4,101v3.6h-4.5V101H587.4z
				 M586.2,102.1h-2.1v1.4h2.1V102.1z M586.3,111.8V110h-2v1.8H586.3z M592,111.8V110h-2.3v1.8H592z M592.1,102.1h-2.2v1.4h2.2
				V102.1z"/>
		</g>
	</g>
	<g transform="translate(20 9)">
		<g>
			<g class="st4">
				<path class="st5" d="M143.7,10.4c-0.2-0.4-0.4-0.8-0.6-1.1l1.1-0.4c0.3,0.4,0.5,1,0.7,1.5h0.5c0.2-0.6,0.3-1.2,0.4-1.9l1.3,0.2
					c-0.1,0.6-0.2,1.2-0.4,1.7h0.9c0.3-0.5,0.5-1.1,0.7-1.6l1.2,0.4c-0.2,0.4-0.4,0.8-0.6,1.2h1v1.1h-3.5c-0.1,0.3-0.2,0.6-0.4,0.9
					h4.2v1.1h-2c0.6,0.6,1.3,1,2.3,1.3l-0.6,1.2c-0.5-0.2-1-0.5-1.4-0.8c-0.1,0.7-0.2,1.3-0.3,1.8h1.5c-0.1,2.4-0.2,3.7-0.5,4
					c-0.3,0.3-0.9,0.4-1.9,0.4h-0.6l-0.3-1.1c0.4,0,0.7,0,1,0c0.4,0,0.7-0.1,0.9-0.2c0.1-0.1,0.2-0.8,0.3-2.1h-5.2
					c0.3-0.8,0.5-1.5,0.6-2.2l1.2,0.1c-0.1,0.4-0.2,0.7-0.3,1h2.2c0.1-0.4,0.2-0.9,0.3-1.4h-3.5v-0.4c-0.4,0.3-0.8,0.6-1.2,0.9
					l-0.6-0.9v5c0,0.8-0.4,1.3-1.3,1.3h-0.9l-0.3-1.2c0.3,0,0.6,0.1,0.8,0.1c0.3,0,0.4-0.2,0.4-0.6v-2.8h-1.3
					c-0.1,1.8-0.4,3.4-0.9,4.6l-1-0.9c0.4-1.2,0.7-2.8,0.7-4.6V9h3.8v6c0.7-0.4,1.3-0.9,1.8-1.5h-1.5v-1.1h2.2
					c0.2-0.3,0.3-0.6,0.4-0.9h-2.2v-1.1L143.7,10.4L143.7,10.4z M140.8,10.2h-1.3v2.1h1.3V10.2z M139.5,15.6h1.3v-2h-1.3V15.6z
					 M147.6,18.6v1.1h-5.1v-1.1H147.6z M147.8,14.5c-0.4-0.4-0.6-0.7-0.9-1.1h-1.6c-0.3,0.4-0.5,0.7-0.8,1.1H147.8z"/>
				<path class="st5" d="M154.7,12.7v5.9c0.4-0.4,0.8-0.7,1.2-1.2l0.4,1.4c-0.8,0.8-1.8,1.6-2.7,2.2l-0.5-1.2
					c0.2-0.2,0.4-0.5,0.4-0.8V14h-1.8v-1.3L154.7,12.7L154.7,12.7z M155.6,10.7l-0.9,0.9c-0.5-0.7-1.3-1.4-2.2-2.1l0.9-0.9
					C154.2,9.3,155,10,155.6,10.7z M157.7,13.9v-3.5H156V9.1h6.6v4.4c0,2.7,0.2,4.5,0.5,5.5c0.1,0.4,0.3,0.7,0.4,0.7
					c0,0,0.1-0.2,0.1-0.6c0-0.4,0.1-0.9,0.1-1.4l1,0.5c-0.1,1.4-0.2,2.2-0.4,2.6c-0.1,0.3-0.3,0.4-0.5,0.4c-0.6,0-1.1-0.3-1.5-1
					c-0.7-1.1-1-3.4-1-6.8v-3.2H159v3.5h1.8v1.3H159v6.3h-1.3v-6.3h-2v-1.3L157.7,13.9L157.7,13.9z"/>
				<path class="st5" d="M178.3,13.1v1.3h-6.6c-1.2,2.4-2.3,4.1-3.2,5.2c2.3-0.1,4.6-0.4,6.9-0.7c-0.4-0.8-0.9-1.6-1.5-2.5l1.1-0.7
					c1.3,1.9,2.3,3.5,3,4.9l-1.2,0.8c-0.2-0.5-0.4-1-0.7-1.4c-2.8,0.4-5.9,0.7-9.2,0.9l-0.4-1.4c0.1,0,0.3-0.1,0.3-0.1
					c0.9-0.6,2-2.4,3.4-5.1h-4.5v-1.3H178.3z M177.1,9.2v1.3H167V9.2H177.1z"/>
			</g>
		</g>
	</g>
	<g>
		<g>
			<rect x="547" y="139" class="st6" width="107" height="50"/>
			<g>
				<rect x="545.5" y="137.5" class="st7" width="106" height="49"/>
				<path class="st8" d="M651,138v48H546v-48H651 M652,137H545v50h107V137L652,137z"/>
			</g>
		</g>
		<g transform="translate(20 9)">
			<g>
				<g>
					<path id="XMLID_39_" class="st5" d="M557,166c-7.2,0-13-5.8-13-13s5.8-13,13-13c6.5,0,11.9,4.8,12.8,11h2
						c-0.9-7.3-7.2-13-14.8-13c-8.3,0-15,6.7-15,15s6.7,15,15,15c7.6,0,13.9-5.7,14.9-13h-2C568.9,161.2,563.5,166,557,166z"/>
					<polygon id="XMLID_1402_" class="st5" points="564,149 557,145 550,149 550,157 557,161 564,157 564,154.7 562,155.8 
						562,155.8 557,158.7 552,155.8 552,150.2 557,147.3 561.7,150 558,152.1 558,154.4 562,152.1 562,152.1 564,151 					"/>
					<polygon id="XMLID_1408_" class="st5" points="560,156.3 564,154 564,151.7 560,154 					"/>
				</g>
			</g>
			<g class="st4">
				<path class="st9" d="M592.1,148.7c0.8,0.6,1.2,1.4,1.3,2.4h-1.1c-0.1-0.7-0.5-1.3-1.1-1.7c-0.5-0.4-1.2-0.6-2-0.6
					c-1.2,0-2.1,0.4-2.7,1.2c-0.6,0.8-0.9,1.8-0.9,3c0,1.2,0.3,2.2,0.9,3c0.6,0.8,1.5,1.2,2.7,1.2c0.8,0,1.5-0.2,2-0.6
					c0.6-0.4,1-1.1,1.2-2h1.1c-0.2,1.2-0.7,2.1-1.6,2.7c-0.8,0.6-1.7,0.9-2.8,0.9c-1.6,0-2.7-0.5-3.6-1.5c-0.8-0.9-1.1-2.1-1.1-3.6
					c0-1.5,0.4-2.7,1.1-3.7c0.8-1.1,2-1.6,3.6-1.6C590.4,147.8,591.4,148.1,592.1,148.7z"/>
				<path class="st9" d="M599.3,148c2.3,0,3.4,1,3.4,2.9c0,2-1.2,3-3.5,3h-2.9v4.1h-1.2v-10H599.3z M596.3,152.9h2.9
					c0.8,0,1.4-0.2,1.8-0.5c0.4-0.3,0.6-0.8,0.6-1.5c0-0.7-0.2-1.2-0.6-1.5c-0.4-0.3-1-0.5-1.8-0.5h-2.9V152.9z"/>
				<path class="st9" d="M605.6,148l3.7,8.5h0l3.7-8.5h1.4v10h-1.1v-8h0l-3.5,8h-1l-3.5-8h0v8h-1.1v-10H605.6z"/>
			</g>
		</g>
	</g>
	<g>
		<g>
			<rect x="672" y="139" class="st6" width="108" height="50"/>
			<g>
				<rect x="670.5" y="137.5" class="st7" width="107" height="49"/>
				<path class="st8" d="M777,138v48H671v-48H777 M778,137H670v50h108V137L778,137z"/>
			</g>
		</g>
		<g transform="translate(20 9)">
			<g>
				<g>
					<path id="XMLID_3_" class="st5" d="M681,166c-7.2,0-13-5.8-13-13s5.8-13,13-13c6.5,0,11.9,4.8,12.8,11h2
						c-0.9-7.3-7.2-13-14.8-13c-8.3,0-15,6.7-15,15s6.7,15,15,15c7.6,0,13.9-5.7,14.9-13h-2C692.9,161.2,687.5,166,681,166z"/>
					<polygon id="XMLID_2_" class="st5" points="688,149 681,145 674,149 674,157 681,161 688,157 688,154.7 686,155.8 686,155.8 
						681,158.7 676,155.8 676,150.2 681,147.3 685.7,150 682,152.1 682,154.4 686,152.1 686,152.1 688,151 					"/>
					<polygon id="XMLID_1_" class="st5" points="684,156.3 688,154 688,151.7 684,154 					"/>
				</g>
			</g>
			<g class="st4">
				<path class="st9" d="M716.1,148.7c0.8,0.6,1.2,1.4,1.3,2.4h-1.1c-0.1-0.7-0.5-1.3-1.1-1.7c-0.5-0.4-1.2-0.6-2-0.6
					c-1.2,0-2.1,0.4-2.7,1.2c-0.6,0.8-0.9,1.8-0.9,3c0,1.2,0.3,2.2,0.9,3c0.6,0.8,1.5,1.2,2.7,1.2c0.8,0,1.5-0.2,2-0.6
					c0.6-0.4,1-1.1,1.2-2h1.1c-0.2,1.2-0.7,2.1-1.6,2.7c-0.8,0.6-1.7,0.9-2.8,0.9c-1.6,0-2.7-0.5-3.6-1.5c-0.8-0.9-1.1-2.1-1.1-3.6
					c0-1.5,0.4-2.7,1.1-3.7c0.8-1.1,2-1.6,3.6-1.6C714.4,147.8,715.4,148.1,716.1,148.7z"/>
				<path class="st9" d="M723.3,148c2.3,0,3.4,1,3.4,2.9c0,2-1.2,3-3.5,3h-2.9v4.1h-1.2v-10H723.3z M720.3,152.9h2.9
					c0.8,0,1.4-0.2,1.8-0.5c0.4-0.3,0.6-0.8,0.6-1.5c0-0.7-0.2-1.2-0.6-1.5c-0.4-0.3-1-0.5-1.8-0.5h-2.9V152.9z"/>
				<path class="st9" d="M729.6,148l3.7,8.5h0l3.7-8.5h1.4v10h-1.1v-8h0l-3.5,8h-1l-3.5-8h0v8h-1.1v-10H729.6z"/>
			</g>
		</g>
	</g>
	<g id="GrayRectGroup6_1_" transform="translate(669.5,130)">
		<rect x="-140.5" y="91" class="st1" width="267" height="112"/>
	</g>
	<g transform="translate(20 9)">
		<g class="st4">
			<path class="st5" d="M537.7,229v1.3h-10v9.3h10.4v1.3h-11.7V229L537.7,229L537.7,229z M533.2,234.1c0.7-1,1.4-2.1,1.9-3.3
				l1.2,0.6c-0.6,1.4-1.3,2.6-2.1,3.6c1,0.9,1.9,1.9,2.8,2.8l-1,1c-0.8-0.9-1.6-1.8-2.6-2.8c-1.2,1.3-2.5,2.2-4.1,2.9l-0.8-1.2
				c1.5-0.6,2.8-1.5,3.9-2.6c-1.1-1-2.3-1.9-3.5-2.9l1-0.9C531,232.2,532.2,233.1,533.2,234.1z"/>
			<path class="st5" d="M540.7,241.5l-1-0.9c0.6-1.2,0.8-2.8,0.9-4.7V229h4.4v11c0,1-0.4,1.4-1.3,1.4h-1.1l-0.3-1.2
				c0.4,0,0.7,0.1,1.1,0.1c0.3,0,0.4-0.3,0.4-0.7v-2.8h-2C541.6,238.6,541.2,240.2,540.7,241.5z M543.7,230.2h-2v2.1h2V230.2z
				 M541.7,235.5h2v-2h-2V235.5z M547.1,241.5h-1.2V229h5.9c0,1.8-0.1,3-0.3,3.6c-0.2,0.6-0.7,0.9-1.6,0.9h-1.2l-0.3-1.1
				c0.2,0,0.5,0,0.9,0c0.3,0,0.5,0,0.7-0.1s0.3-0.2,0.3-0.4c0.1-0.2,0.1-0.8,0.2-1.8h-3.4v3.9h4.7v1.1c-0.3,1.4-0.7,2.6-1.3,3.5
				c0.6,0.5,1.2,1,2,1.5l-0.7,1.1c-0.8-0.5-1.5-1-2.1-1.6c-0.6,0.6-1.3,1.2-2,1.6l-0.7-1L547.1,241.5L547.1,241.5z M547.1,240.4
				c0.7-0.4,1.3-0.9,1.9-1.5c-0.8-1-1.4-2.2-1.7-3.5h-0.2L547.1,240.4L547.1,240.4z M549.6,237.8c0.4-0.7,0.7-1.6,1-2.5h-2.2
				C548.7,236.3,549.1,237.1,549.6,237.8z"/>
			<path class="st5" d="M557.4,230v10h-1.5v-8.2c-0.6,0.6-1.4,1-2.3,1.3v-1.5c0.4-0.1,0.9-0.3,1.4-0.6c0.5-0.3,0.9-0.6,1.3-1H557.4z
				"/>
		</g>
	</g>
	<g>
		<g>
			<rect x="547" y="267" class="st6" width="107" height="50"/>
			<g>
				<rect x="545.5" y="265.5" class="st7" width="106" height="49"/>
				<path class="st8" d="M651,266v48H546v-48H651 M652,265H545v50h107V265L652,265z"/>
			</g>
		</g>
		<g transform="translate(20 9)">
			<g>
				<g>
					<path id="XMLID_9_" class="st5" d="M557,294c-7.2,0-13-5.8-13-13s5.8-13,13-13c6.5,0,11.9,4.8,12.8,11h2
						c-0.9-7.3-7.2-13-14.8-13c-8.3,0-15,6.7-15,15s6.7,15,15,15c7.6,0,13.9-5.7,14.9-13h-2C568.9,289.2,563.5,294,557,294z"/>
					<polygon id="XMLID_8_" class="st5" points="564,277 557,273 550,277 550,285 557,289 564,285 564,282.7 562,283.8 562,283.8 
						557,286.7 552,283.8 552,278.2 557,275.3 561.7,278 558,280.1 558,282.4 562,280.1 562,280.1 564,279 					"/>
					<polygon id="XMLID_7_" class="st5" points="560,284.3 564,282 564,279.7 560,282 					"/>
				</g>
			</g>
			<g class="st4">
				<path class="st9" d="M592.1,276.7c0.8,0.6,1.2,1.4,1.3,2.4h-1.1c-0.1-0.7-0.5-1.3-1.1-1.7c-0.5-0.4-1.2-0.6-2-0.6
					c-1.2,0-2.1,0.4-2.7,1.2c-0.6,0.8-0.9,1.8-0.9,3c0,1.2,0.3,2.2,0.9,3c0.6,0.8,1.5,1.2,2.7,1.2c0.8,0,1.5-0.2,2-0.6
					c0.6-0.4,1-1.1,1.2-2h1.1c-0.2,1.2-0.7,2.1-1.6,2.7c-0.8,0.6-1.7,0.9-2.8,0.9c-1.6,0-2.7-0.5-3.6-1.5c-0.8-0.9-1.1-2.1-1.1-3.6
					c0-1.5,0.4-2.7,1.1-3.7c0.8-1.1,2-1.6,3.6-1.6C590.4,275.8,591.4,276.1,592.1,276.7z"/>
				<path class="st9" d="M599.3,276c2.3,0,3.4,1,3.4,2.9c0,2-1.2,3-3.5,3h-2.9v4.1h-1.2v-10H599.3z M596.3,280.9h2.9
					c0.8,0,1.4-0.2,1.8-0.5c0.4-0.3,0.6-0.8,0.6-1.5c0-0.7-0.2-1.2-0.6-1.5c-0.4-0.3-1-0.5-1.8-0.5h-2.9V280.9z"/>
				<path class="st9" d="M605.6,276l3.7,8.5h0l3.7-8.5h1.4v10h-1.1v-8h0l-3.5,8h-1l-3.5-8h0v8h-1.1v-10H605.6z"/>
			</g>
		</g>
	</g>
	<g>
		<g>
			<rect x="672" y="267" class="st6" width="108" height="50"/>
			<g>
				<rect x="670.5" y="265.5" class="st7" width="107" height="49"/>
				<path class="st8" d="M777,266v48H671v-48H777 M778,265H670v50h108V265L778,265z"/>
			</g>
		</g>
		<g transform="translate(20 9)">
			<g>
				<g>
					<path id="XMLID_6_" class="st5" d="M681,294c-7.2,0-13-5.8-13-13s5.8-13,13-13c6.5,0,11.9,4.8,12.8,11h2
						c-0.9-7.3-7.2-13-14.8-13c-8.3,0-15,6.7-15,15s6.7,15,15,15c7.6,0,13.9-5.7,14.9-13h-2C692.9,289.2,687.5,294,681,294z"/>
					<polygon id="XMLID_5_" class="st5" points="688,277 681,273 674,277 674,285 681,289 688,285 688,282.7 686,283.8 686,283.8 
						681,286.7 676,283.8 676,278.2 681,275.3 685.7,278 682,280.1 682,282.4 686,280.1 686,280.1 688,279 					"/>
					<polygon id="XMLID_4_" class="st5" points="684,284.3 688,282 688,279.7 684,282 					"/>
				</g>
			</g>
			<g class="st4">
				<path class="st9" d="M716.1,276.7c0.8,0.6,1.2,1.4,1.3,2.4h-1.1c-0.1-0.7-0.5-1.3-1.1-1.7c-0.5-0.4-1.2-0.6-2-0.6
					c-1.2,0-2.1,0.4-2.7,1.2c-0.6,0.8-0.9,1.8-0.9,3c0,1.2,0.3,2.2,0.9,3c0.6,0.8,1.5,1.2,2.7,1.2c0.8,0,1.5-0.2,2-0.6
					c0.6-0.4,1-1.1,1.2-2h1.1c-0.2,1.2-0.7,2.1-1.6,2.7c-0.8,0.6-1.7,0.9-2.8,0.9c-1.6,0-2.7-0.5-3.6-1.5c-0.8-0.9-1.1-2.1-1.1-3.6
					c0-1.5,0.4-2.7,1.1-3.7c0.8-1.1,2-1.6,3.6-1.6C714.4,275.8,715.4,276.1,716.1,276.7z"/>
				<path class="st9" d="M723.3,276c2.3,0,3.4,1,3.4,2.9c0,2-1.2,3-3.5,3h-2.9v4.1h-1.2v-10H723.3z M720.3,280.9h2.9
					c0.8,0,1.4-0.2,1.8-0.5c0.4-0.3,0.6-0.8,0.6-1.5c0-0.7-0.2-1.2-0.6-1.5c-0.4-0.3-1-0.5-1.8-0.5h-2.9V280.9z"/>
				<path class="st9" d="M729.6,276l3.7,8.5h0l3.7-8.5h1.4v10h-1.1v-8h0l-3.5,8h-1l-3.5-8h0v8h-1.1v-10H729.6z"/>
			</g>
		</g>
	</g>
	<g id="GrayRectGroup6_2_" transform="translate(669.5,130)">
		<rect x="-140.5" y="219" class="st1" width="267" height="112"/>
	</g>
	<g transform="translate(20 9)">
		<g class="st4">
			<path class="st5" d="M537.7,357v1.3h-10v9.3h10.4v1.3h-11.7V357L537.7,357L537.7,357z M533.2,362.1c0.7-1,1.4-2.1,1.9-3.3
				l1.2,0.6c-0.6,1.4-1.3,2.5-2.1,3.6c1,0.9,1.9,1.9,2.8,2.8l-1,1c-0.8-0.9-1.6-1.8-2.6-2.8c-1.2,1.3-2.5,2.2-4.1,2.9l-0.8-1.2
				c1.5-0.6,2.8-1.5,3.9-2.6c-1.1-1-2.3-1.9-3.5-2.9l1-0.9C531,360.2,532.2,361.1,533.2,362.1z"/>
			<path class="st5" d="M540.7,369.5l-1-0.9c0.6-1.2,0.8-2.8,0.9-4.7V357h4.4v11c0,1-0.4,1.4-1.3,1.4h-1.1l-0.3-1.2
				c0.4,0,0.7,0.1,1.1,0.1c0.3,0,0.4-0.3,0.4-0.7v-2.8h-2C541.6,366.6,541.2,368.2,540.7,369.5z M543.7,358.2h-2v2.1h2V358.2z
				 M541.7,363.5h2v-2h-2V363.5z M547.1,369.5h-1.2V357h5.9c0,1.8-0.1,3-0.3,3.6c-0.2,0.6-0.7,0.9-1.6,0.9h-1.2l-0.3-1.1
				c0.2,0,0.5,0,0.9,0c0.3,0,0.5,0,0.7-0.1s0.3-0.2,0.3-0.4c0.1-0.2,0.1-0.8,0.2-1.8h-3.4v4h4.7v1.1c-0.3,1.4-0.7,2.5-1.3,3.5
				c0.6,0.5,1.2,1,2,1.5l-0.7,1.1c-0.8-0.5-1.5-1-2.1-1.6c-0.6,0.6-1.3,1.2-2,1.6l-0.7-1L547.1,369.5L547.1,369.5z M547.1,368.4
				c0.7-0.4,1.3-0.9,1.9-1.5c-0.8-1-1.4-2.2-1.7-3.5h-0.2L547.1,368.4L547.1,368.4z M549.6,365.8c0.4-0.7,0.7-1.6,1-2.5h-2.2
				C548.7,364.3,549.1,365.1,549.6,365.8z"/>
			<path class="st5" d="M559.7,358.6c0.6,0.6,0.9,1.3,0.9,2.2c0,0.9-0.3,1.7-1,2.4c-0.4,0.4-1.1,0.9-2.1,1.6
				c-1.1,0.7-1.7,1.3-1.9,1.9h5v1.3h-6.9c0-1,0.3-1.9,1-2.6c0.4-0.4,1.1-1,2.3-1.8c0.7-0.5,1.1-0.9,1.4-1.1c0.4-0.5,0.7-1.1,0.7-1.6
				c0-0.6-0.2-1-0.5-1.3s-0.8-0.4-1.4-0.4c-0.6,0-1.1,0.2-1.4,0.6c-0.3,0.4-0.5,1-0.5,1.8h-1.5c0-1.1,0.3-2,1-2.7
				c0.6-0.7,1.5-1.1,2.6-1.1C558.3,357.8,559.1,358.1,559.7,358.6z"/>
		</g>
	</g>
	<g>
		<g>
			<rect x="547" y="395" class="st6" width="107" height="50"/>
			<g>
				<rect x="545.5" y="393.5" class="st7" width="106" height="49"/>
				<path class="st8" d="M651,394v48H546v-48H651 M652,393H545v50h107V393L652,393z"/>
			</g>
		</g>
		<g transform="translate(20 9)">
			<g>
				<g>
					<path id="XMLID_15_" class="st5" d="M557,422c-7.2,0-13-5.8-13-13s5.8-13,13-13c6.5,0,11.9,4.8,12.8,11h2
						c-0.9-7.3-7.2-13-14.8-13c-8.3,0-15,6.7-15,15s6.7,15,15,15c7.6,0,13.9-5.7,14.9-13h-2C568.9,417.2,563.5,422,557,422z"/>
					<polygon id="XMLID_14_" class="st5" points="564,405 557,401 550,405 550,413 557,417 564,413 564,410.7 562,411.8 562,411.8 
						557,414.7 552,411.8 552,406.2 557,403.3 561.7,406 558,408.1 558,410.4 562,408.1 562,408.1 564,407 					"/>
					<polygon id="XMLID_13_" class="st5" points="560,412.3 564,410 564,407.7 560,410 					"/>
				</g>
			</g>
			<g class="st4">
				<path class="st9" d="M592.1,404.7c0.8,0.6,1.2,1.4,1.3,2.4h-1.1c-0.1-0.7-0.5-1.3-1.1-1.7c-0.5-0.4-1.2-0.6-2-0.6
					c-1.2,0-2.1,0.4-2.7,1.2c-0.6,0.8-0.9,1.8-0.9,3c0,1.2,0.3,2.2,0.9,3c0.6,0.8,1.5,1.2,2.7,1.2c0.8,0,1.5-0.2,2-0.6
					c0.6-0.4,1-1.1,1.2-2h1.1c-0.2,1.2-0.7,2.1-1.6,2.7c-0.8,0.6-1.7,0.9-2.8,0.9c-1.6,0-2.7-0.5-3.6-1.5c-0.8-0.9-1.1-2.1-1.1-3.6
					c0-1.5,0.4-2.7,1.1-3.7c0.8-1.1,2-1.6,3.6-1.6C590.4,403.8,591.4,404.1,592.1,404.7z"/>
				<path class="st9" d="M599.3,404c2.3,0,3.4,1,3.4,2.9c0,2-1.2,3-3.5,3h-2.9v4.1h-1.2v-10H599.3z M596.3,408.9h2.9
					c0.8,0,1.4-0.2,1.8-0.5c0.4-0.3,0.6-0.8,0.6-1.5c0-0.7-0.2-1.2-0.6-1.5c-0.4-0.3-1-0.5-1.8-0.5h-2.9V408.9z"/>
				<path class="st9" d="M605.6,404l3.7,8.5h0l3.7-8.5h1.4v10h-1.1v-8h0l-3.5,8h-1l-3.5-8h0v8h-1.1v-10H605.6z"/>
			</g>
		</g>
	</g>
	<g>
		<g>
			<rect x="672" y="395" class="st6" width="108" height="50"/>
			<g>
				<rect x="670.5" y="393.5" class="st7" width="107" height="49"/>
				<path class="st8" d="M777,394v48H671v-48H777 M778,393H670v50h108V393L778,393z"/>
			</g>
		</g>
		<g transform="translate(20 9)">
			<g>
				<g>
					<path id="XMLID_12_" class="st5" d="M681,422c-7.2,0-13-5.8-13-13s5.8-13,13-13c6.5,0,11.9,4.8,12.8,11h2
						c-0.9-7.3-7.2-13-14.8-13c-8.3,0-15,6.7-15,15s6.7,15,15,15c7.6,0,13.9-5.7,14.9-13h-2C692.9,417.2,687.5,422,681,422z"/>
					<polygon id="XMLID_11_" class="st5" points="688,405 681,401 674,405 674,413 681,417 688,413 688,410.7 686,411.8 686,411.8 
						681,414.7 676,411.8 676,406.2 681,403.3 685.7,406 682,408.1 682,410.4 686,408.1 686,408.1 688,407 					"/>
					<polygon id="XMLID_10_" class="st5" points="684,412.3 688,410 688,407.7 684,410 					"/>
				</g>
			</g>
			<g class="st4">
				<path class="st9" d="M716.1,404.7c0.8,0.6,1.2,1.4,1.3,2.4h-1.1c-0.1-0.7-0.5-1.3-1.1-1.7c-0.5-0.4-1.2-0.6-2-0.6
					c-1.2,0-2.1,0.4-2.7,1.2c-0.6,0.8-0.9,1.8-0.9,3c0,1.2,0.3,2.2,0.9,3c0.6,0.8,1.5,1.2,2.7,1.2c0.8,0,1.5-0.2,2-0.6
					c0.6-0.4,1-1.1,1.2-2h1.1c-0.2,1.2-0.7,2.1-1.6,2.7c-0.8,0.6-1.7,0.9-2.8,0.9c-1.6,0-2.7-0.5-3.6-1.5c-0.8-0.9-1.1-2.1-1.1-3.6
					c0-1.5,0.4-2.7,1.1-3.7c0.8-1.1,2-1.6,3.6-1.6C714.4,403.8,715.4,404.1,716.1,404.7z"/>
				<path class="st9" d="M723.3,404c2.3,0,3.4,1,3.4,2.9c0,2-1.2,3-3.5,3h-2.9v4.1h-1.2v-10H723.3z M720.3,408.9h2.9
					c0.8,0,1.4-0.2,1.8-0.5c0.4-0.3,0.6-0.8,0.6-1.5c0-0.7-0.2-1.2-0.6-1.5c-0.4-0.3-1-0.5-1.8-0.5h-2.9V408.9z"/>
				<path class="st9" d="M729.6,404l3.7,8.5h0l3.7-8.5h1.4v10h-1.1v-8h0l-3.5,8h-1l-3.5-8h0v8h-1.1v-10H729.6z"/>
			</g>
		</g>
	</g>
	<g id="ShadowBasicRect1" transform="translate(426,61)">
		<rect x="-82" y="208" class="st6" width="118" height="50"/>
		<rect x="-84" y="206" class="st10" width="118" height="50"/>
		<g transform="translate(20 9)">
			<g>
				<g id="_编组_">
					<g id="_编组_2">
						<path id="_复合路径_" class="st11" d="M-72,220c-1.1,0-2,0.9-2,2s0.9,2,2,2s2-0.9,2-2S-70.9,220-72,220z M-76,235
							c-7.2,0-13-5.8-13-13c0-7.2,5.8-13,13-13c6.4,0,11.9,4.7,12.9,11h2c-1.1-8.2-8.7-14-16.9-12.9s-14,8.7-12.9,16.9
							s8.7,14,16.9,12.9c6.7-0.9,12-6.2,12.9-12.9h-2C-64.2,230.3-69.6,235-76,235z M-76,218v-2h-6v12h6v-2h-4v-3h4v-2h-4v-3H-76z
							 M-72,215c-1.1,0-2,0.9-2,2s0.9,2,2,2s2-0.9,2-2S-70.9,215-72,215z M-72,225c-1.1,0-2,0.9-2,2s0.9,2,2,2s2-0.9,2-2
							S-70.9,225-72,225z"/>
					</g>
				</g>
			</g>
			<g class="st4">
				<path class="st9" d="M-41.2,225.5h-1v-5.4h-6.9v5.5h-1v-6.1c-0.4,0.3-0.9,0.6-1.3,0.9l-0.6-0.8c1.7-1,3.1-2.4,4.2-4.1l1,0.2
					c-0.2,0.3-0.4,0.7-0.6,1h4.6v0.7c-0.5,0.7-1,1.2-1.5,1.7h3.1L-41.2,225.5L-41.2,225.5z M-45.2,220.9v1.9
					c-0.1,1.5-0.5,2.7-1.5,3.6c-0.9,0.8-2.4,1.5-4.4,1.9l-0.5-0.9c2-0.4,3.4-1,4.2-1.8c0.7-0.8,1.1-1.7,1.2-2.9v-1.9L-45.2,220.9
					L-45.2,220.9z M-44,217.6h-4.1c-0.5,0.6-1,1.1-1.5,1.5h4.2C-45,218.7-44.5,218.2-44,217.6z M-39.9,227.6l-0.6,0.9
					c-1.6-1.1-3.3-1.9-5-2.5l0.5-0.8C-43.1,225.8-41.4,226.6-39.9,227.6z"/>
				<path class="st9" d="M-34.7,216.7v-1.2h1v1.2h2.5v0.9h-2.5v1.3h3.4c-0.1-1.1-0.1-2.2-0.1-3.4h1c0,1.3,0,2.4,0.1,3.4h3.5v0.9
					h-3.5c0.1,1.2,0.2,2.3,0.4,3.1c0.1,0.4,0.2,0.8,0.3,1.1c0.5-1,0.9-2.2,1.2-3.5l0.9,0.4c-0.4,1.8-1,3.2-1.7,4.4
					c0.1,0.3,0.2,0.6,0.4,0.9c0.4,0.7,0.7,1,0.9,1c0.2,0,0.4-0.8,0.6-2.2l0.9,0.5c-0.3,1.9-0.7,2.8-1.3,2.8c-0.5,0-1-0.4-1.5-1.3
					c-0.2-0.2-0.3-0.5-0.4-0.8c-0.7,1-1.6,1.7-2.5,2.2l-0.5-0.8c1-0.6,1.9-1.4,2.6-2.5c-0.2-0.6-0.4-1.3-0.5-2
					c-0.2-0.9-0.4-2-0.4-3.3h-7.9v-0.9h3.5v-1.3h-2.7v-0.9L-34.7,216.7L-34.7,216.7z M-31.2,226.4c-0.7,0.1-1.4,0.2-2.2,0.3v1.7h-1
					v-1.6c-1,0.1-2.1,0.2-3.2,0.3l-0.1-0.9c1.2-0.1,2.3-0.2,3.3-0.2v-1.2h-2.7l-0.2-0.8c0.4-0.5,0.8-1.1,1.1-1.8h-1.5v-0.9h1.9
					c0.1-0.3,0.3-0.7,0.4-1.1l1,0.2c-0.1,0.3-0.2,0.6-0.3,0.9h3.7v0.9h-4.1c-0.3,0.6-0.6,1.2-1,1.7h1.8v-1.1h1v1.1h2.1v0.9h-2.1v1.1
					c0.8-0.1,1.5-0.2,2.2-0.3C-31.2,225.5-31.2,226.4-31.2,226.4z M-26.4,217.7l-0.8,0.5c-0.4-0.6-0.9-1.3-1.6-2.1l0.8-0.5
					C-27.3,216.5-26.8,217.1-26.4,217.7z"/>
				<path class="st9" d="M-22.8,219.3v-3.7h1v3.7h1.4v1h-1.4v4.7c0.7-0.2,1.3-0.4,2-0.7v1.1c-1.4,0.5-2.8,1-4.4,1.3l-0.3-1.1
					c0.6-0.1,1.1-0.2,1.7-0.4v-5h-1.5v-1L-22.8,219.3L-22.8,219.3z M-16.6,215.6c-0.2,0.7-0.4,1.4-0.6,2.1h5.1
					c0,4.8-0.1,7.8-0.3,8.9c-0.2,1.1-0.8,1.7-2.1,1.7c-0.4,0-1,0-1.9-0.1l-0.3-1c0.8,0,1.4,0.1,2,0.1c0.7,0,1.1-0.4,1.3-1.1
					c0.1-0.8,0.2-3.3,0.2-7.6h-4.6c-0.5,1-1.1,1.9-1.8,2.7l-0.7-0.9c1.2-1.4,2-3.1,2.4-5.1L-16.6,215.6z M-14.2,224
					c-1.2,0.8-2.7,1.6-4.5,2.2l-0.4-1c1.8-0.6,3.3-1.3,4.6-2.2L-14.2,224z M-15,222.1l-0.7,0.7c-0.5-0.6-1.3-1.3-2.2-2l0.6-0.6
					C-16.4,220.8-15.6,221.4-15,222.1z"/>
				<path class="st9" d="M-7,219.7c-0.3,0.6-0.6,1.3-1,1.9v6.9h-0.9v-5.7c-0.4,0.4-0.8,0.8-1.3,1.2l-0.3-0.9
					c1.2-1.1,2.1-2.3,2.7-3.7L-7,219.7z M-7.1,216c-0.6,1.5-1.6,2.8-3,4l-0.3-1c1.1-1,1.9-2.1,2.4-3.4L-7.1,216z M-6.7,219l-0.6-0.7
					c1-0.7,1.8-1.7,2.5-2.8l1,0.2c-0.2,0.3-0.3,0.6-0.5,0.8h2.2v0.7c-0.3,0.5-0.6,0.9-0.9,1.3h1.6v5h-2.1c0,0.4,0,0.7-0.1,1h2.7v0.9
					h-2.9l-0.1,0.2c1,0.5,1.8,1,2.6,1.7l-0.5,0.8c-0.8-0.7-1.6-1.3-2.4-1.8c-0.4,0.8-1.2,1.5-2.3,2l-0.6-0.7c1.1-0.5,1.9-1.2,2.2-2
					l0.1-0.2h-2.2v-0.9h2.5c0.1-0.3,0.1-0.7,0.1-1h-2.1v-4.6L-6.7,219z M-3.2,217.3H-5c-0.3,0.4-0.7,0.8-1.1,1.1h2
					C-3.7,218.1-3.5,217.7-3.2,217.3z M-4.4,220.6v-1.4h-1.3v1.4H-4.4z M-4.4,221.3h-1.3v1.4h1.3V221.3z M-3.6,220.6h1.3v-1.4h-1.3
					V220.6z M-2.3,221.3h-1.3v1.4h1.3V221.3z M-0.7,228.3l-0.2-0.9c0.3,0,0.6,0.1,0.8,0.1c0.3,0,0.5-0.2,0.5-0.5v-6h-1.5v-1h3.5v1
					h-1v6.2c0,0.7-0.4,1.1-1.1,1.1L-0.7,228.3L-0.7,228.3z M2.2,216.5v0.9h-3.1v-0.9H2.2z"/>
			</g>
		</g>
	</g>
	<g id="ShadowBasicRect2" transform="translate(445,188)">
		<rect x="-274" y="81" class="st6" width="118" height="50"/>
		<rect x="-276" y="79" class="st10" width="118" height="50"/>
		<g transform="translate(20 9)">
			<g>
				<g id="XMLID_512_">
					<g id="XMLID_16_">
						<path id="XMLID_17_" class="st11" d="M-256.7,80.5h-26v15.2c0,0,0.1,10.8,13,13.8c12.9-3,13-13.8,13-13.8v-9.2h-2v9.2
							c0,0,0,2.3-1.4,4.8c-1.8,3.4-5.1,5.7-9.6,6.9c-10.7-2.7-11-11.4-11-11.7V82.5h24V80.5z M-269.7,85.1c-2.8,0-5,2.2-5,5v1h-1v9
							h12v-9h-1v-1C-264.7,87.3-266.9,85.1-269.7,85.1z M-272.7,90.1c0-1.7,1.3-3,3-3s3,1.3,3,3v1h-6V90.1z M-265.7,98.1h-8v-5h8
							V98.1z"/>
					</g>
				</g>
			</g>
			<g class="st4">
				<path class="st9" d="M-240.2,93.8c0.4-0.8,0.8-1.5,1.2-2.3l1,0.3c-0.4,0.7-0.7,1.4-1.1,2h7.2v1h-2.8c-0.6,1.5-1.2,2.6-2,3.5
					c1.4,0.6,2.9,1.3,4.4,2.2l-0.7,0.9c-1.5-0.9-3-1.7-4.5-2.3c-1.6,1.4-3.6,2.1-6.2,2.2l-0.6-0.9c2.4,0,4.3-0.6,5.8-1.7
					c-1.3-0.6-2.6-1.1-3.9-1.5c0.5-0.8,1-1.6,1.4-2.3h-3.4v-1L-240.2,93.8L-240.2,93.8z M-232.2,92.9h-1v-2h-9.6v2h-1v-3h5.3
					c-0.2-0.5-0.4-0.9-0.6-1.3l1.1-0.2c0.2,0.4,0.4,0.9,0.6,1.5h5.2L-232.2,92.9L-232.2,92.9z M-240.8,96.7c1.1,0.3,2.1,0.7,3.2,1.2
					c0.8-0.8,1.4-1.9,1.8-3.1h-3.9C-240,95.5-240.4,96.2-240.8,96.7z"/>
				<path class="st9" d="M-223.6,88.6c1.8,1.8,3.8,3.3,6.1,4.4l-0.5,0.9c-2.3-1.1-4.3-2.6-6-4.3c-1.5,1.7-3.5,3.2-6,4.4l-0.5-0.9
					c2.5-1.2,4.5-2.7,6.1-4.4L-223.6,88.6L-223.6,88.6z M-220.1,93v1h-3.4v2.4h4v1h-4v2.6h5.3v1h-11.7v-1h5.3v-2.6h-4.1v-1h4.1V94
					h-3.4v-1H-220.1z"/>
				<path class="st9" d="M-211.5,89.1v0.8c-0.4,1.3-0.9,2.6-1.5,3.9c0.9,1.3,1.3,2.4,1.4,3.4c0,0.6-0.2,1-0.4,1.3
					c-0.4,0.3-1.1,0.5-2.1,0.5l-0.3-1c0.2,0,0.4,0.1,0.5,0.1c0.5,0,0.9-0.1,1.1-0.2s0.3-0.3,0.3-0.6c0-1-0.5-2.1-1.4-3.3
					c0.6-1.5,1.2-2.8,1.5-3.9h-2.3v11.3h-1V89.1H-211.5z M-207.8,90.6c-0.2-0.7-0.4-1.4-0.7-2l1-0.2c0.2,0.6,0.5,1.3,0.7,2.1h3v1
					h-4.6c0,0.5,0,1.4-0.1,2.4h4c0,3-0.1,4.9-0.3,5.8c-0.3,0.9-0.9,1.4-1.9,1.4c-0.3,0-0.7,0-1.2-0.1l-0.3-0.9
					c0.6,0,1.1,0.1,1.4,0.1c0.6,0,1-0.4,1.1-1.1c0.1-0.7,0.1-2.1,0.1-4.2h-3.1c-0.1,1.2-0.4,2.2-0.8,3.2c-0.5,1.2-1.3,2.3-2.3,3.2
					l-0.7-0.7c1.1-1.2,1.9-2.4,2.3-3.5c0.4-1.1,0.6-2.3,0.6-3.6c0-1,0.1-1.7,0.1-2.1h-1.9v-1C-211.3,90.6-207.8,90.6-207.8,90.6z"/>
				<path class="st9" d="M-202.1,101.3l-0.2-1c0.4,0,0.9,0.1,1.3,0.1c0.4,0,0.5-0.2,0.5-0.6v-3.4c-0.6,0.2-1.1,0.4-1.7,0.6l-0.3-1
					c0.7-0.2,1.3-0.3,2-0.5v-3.2h-1.8v-1h1.8v-2.6h1v2.6h1.5v1h-1.5v2.8c0.5-0.2,1.1-0.5,1.6-0.7v1c-0.5,0.3-1.1,0.5-1.6,0.7v4
					c0,0.8-0.4,1.2-1.2,1.2L-202.1,101.3L-202.1,101.3z M-197.9,101.4l-0.8-0.7c1-1.5,1.5-3.5,1.5-6v-4.5h3.1
					c-0.2-0.6-0.4-1.1-0.6-1.6l1.1-0.2c0.2,0.5,0.4,1.1,0.6,1.8h3v4.6h-6.1C-196.1,97.4-196.7,99.6-197.9,101.4z M-196.1,91.2v2.7
					h5.1v-2.7H-196.1z"/>
			</g>
		</g>
	</g>
	<g id="RectEndPoint3" transform="translate(454,255)">
		<rect x="-452" y="-116" class="st6" width="90" height="50"/>
		<g>
			<rect x="-453.5" y="-117.5" class="st7" width="89" height="49"/>
			<path class="st8" d="M-365-117v48h-88v-48H-365 M-364-118h-90v50h90V-118L-364-118z"/>
		</g>
		<g transform="translate(20 9)">
			<g>
				<g>
					<path class="st2" d="M-459-116.9v30h22v-30H-459z M-439-88.9h-18v-26h18V-88.9z M-450-89.9h4v-2h-4V-89.9z M-439-94.9h-18v2h18
						V-94.9z"/>
				</g>
			</g>
			<g class="st4">
				<path class="st9" d="M-412.8-107.5c-1.3,0.3-2.7,0.6-4.4,0.8v2.4h4.5v1h-4.5v2.3h5.5v1h-5.5v3.1c0,0.8-0.4,1.3-1.3,1.3h-2.2
					l-0.2-1c0.7,0,1.4,0.1,2,0.1c0.4,0,0.6-0.2,0.6-0.6v-2.8h-6v-1h6v-2.3h-4.9v-1h4.9v-2.3c-1.5,0.1-3.1,0.2-4.8,0.2l-0.3-0.9
					c4.1,0,7.4-0.3,10.1-1L-412.8-107.5z"/>
				<path class="st9" d="M-407.8-100.5c-0.5,1.7-1.1,3.3-1.8,4.7l-0.9-0.4c0.7-1.5,1.3-3.1,1.8-4.7L-407.8-100.5z M-407.6-102.8
					l-0.7,0.7c-0.5-0.6-1.1-1.3-2-1.9l0.7-0.7C-408.8-104-408.2-103.4-407.6-102.8z M-407.7-106.4l-0.7,0.7
					c-0.5-0.6-1.1-1.2-1.9-1.8l0.7-0.7C-408.8-107.6-408.2-107-407.7-106.4z M-407.5-105.3v-1h2c-0.2-0.8-0.4-1.5-0.6-2.1l1-0.2
					c0.2,0.7,0.4,1.4,0.6,2.3h1.6v1h-2.5v1c0,0.4,0,0.7,0,1.1h2.3c0,3.3-0.1,5.3-0.2,6.1c-0.1,0.9-0.5,1.3-1.3,1.3
					c-0.2,0-0.5,0-1-0.1l-0.2-0.9c0.4,0,0.8,0,1.1,0c0.3,0,0.4-0.3,0.5-0.8c0.1-0.5,0.2-2.1,0.2-4.7h-1.4c-0.2,2.9-0.8,5.1-1.9,6.6
					l-0.7-0.7c1.1-1.7,1.7-4.3,1.7-8v-1L-407.5-105.3L-407.5-105.3z M-402.8-103.2l-0.6-0.8c0.9-1.1,1.5-2.6,1.8-4.6l1,0.2
					c-0.1,0.7-0.3,1.3-0.4,1.9h3.5v1h-3.8C-401.8-104.6-402.2-103.8-402.8-103.2z M-398-104v0.9c-0.4,0.6-0.9,1.1-1.5,1.7v0.9h1.9
					v0.9h-1.9v2.5c0,0.9-0.4,1.3-1.1,1.3h-1.2l-0.2-0.9c0.3,0,0.7,0,1.1,0c0.3,0,0.4-0.3,0.4-0.7v-2.2h-2.1v-0.9h2.1v-1
					c0.6-0.6,1-1.2,1.3-1.5h-2.7v-0.9H-398z"/>
			</g>
		</g>
	</g>
	<g id="RectEndPoint4" transform="translate(445,318)">
		<rect x="-443" y="-49" class="st6" width="90" height="50"/>
		<g>
			<rect x="-444.5" y="-50.5" class="st7" width="89" height="49"/>
			<path class="st8" d="M-356-50v48h-88v-48H-356 M-355-51h-90v50h90V-51L-355-51z"/>
		</g>
		<g transform="translate(20 9)">
			<g>
				<g>
					<path class="st2" d="M-454-47.9v25h30v-25H-454z M-426-24.9h-26v-15h26V-24.9z M-426-41.9h-26v-4h26V-41.9z M-447-44.9h-4v2h4
						V-44.9z"/>
				</g>
			</g>
			<g class="st4">
				<path class="st9" d="M-404.7-31.8h-1v-5.6h-6.7v5.7h-1v-6.7h3.5c0.1-0.5,0.2-1,0.3-1.5h-5.6v-1h12.3v1h-5.6
					c-0.1,0.5-0.2,1.1-0.3,1.5h4.1L-404.7-31.8L-404.7-31.8z M-408.5-36.6v2.2c-0.1,1.5-0.6,2.8-1.5,3.7c-0.9,0.9-2.4,1.5-4.4,2
					l-0.6-0.9c2-0.4,3.4-1,4.2-1.8c0.8-0.8,1.1-1.8,1.2-3v-2.2L-408.5-36.6L-408.5-36.6z M-403.1-29.5l-0.6,1
					c-1.6-1-3.2-1.8-4.9-2.3l0.6-0.8C-406.3-31.1-404.6-30.4-403.1-29.5z"/>
				<path class="st9" d="M-398.8-33.5c-0.5,1.7-1.1,3.3-1.8,4.7l-0.9-0.4c0.7-1.5,1.3-3.1,1.8-4.7L-398.8-33.5z M-398.6-35.8
					l-0.7,0.7c-0.5-0.6-1.1-1.3-2-1.9l0.7-0.7C-399.8-37-399.2-36.4-398.6-35.8z M-398.7-39.4l-0.7,0.7c-0.5-0.6-1.1-1.2-1.9-1.8
					l0.7-0.7C-399.8-40.6-399.2-40-398.7-39.4z M-398.5-38.3v-1h2c-0.2-0.8-0.4-1.5-0.6-2.1l1-0.2c0.2,0.7,0.4,1.4,0.6,2.3h1.6v1
					h-2.5v1c0,0.4,0,0.7,0,1.1h2.3c0,3.3-0.1,5.3-0.2,6.1c-0.1,0.9-0.5,1.3-1.3,1.3c-0.2,0-0.5,0-1-0.1l-0.2-0.9c0.4,0,0.8,0,1.1,0
					c0.3,0,0.4-0.3,0.5-0.8c0.1-0.5,0.2-2.1,0.2-4.7h-1.4c-0.2,2.9-0.8,5.1-1.9,6.6l-0.7-0.7c1.1-1.7,1.7-4.3,1.7-8v-1
					C-397.4-38.3-398.5-38.3-398.5-38.3z M-393.8-36.2l-0.6-0.8c0.9-1.1,1.5-2.6,1.8-4.6l1,0.2c-0.1,0.7-0.3,1.3-0.4,1.9h3.5v1h-3.8
					C-392.8-37.6-393.2-36.8-393.8-36.2z M-389-37v0.9c-0.4,0.6-0.9,1.1-1.5,1.7v0.9h1.9v0.9h-1.9v2.5c0,0.9-0.4,1.3-1.1,1.3h-1.2
					l-0.2-0.9c0.3,0,0.7,0,1.1,0c0.3,0,0.4-0.3,0.4-0.7v-2.2h-2.1v-0.9h2.1v-1c0.6-0.6,1-1.2,1.3-1.5h-2.7V-37H-389z"/>
			</g>
		</g>
	</g>
	<g id="RectEndPoint5" transform="translate(445,391)">
		<rect x="-443" y="4" class="st6" width="90" height="50"/>
		<g>
			<rect x="-444.5" y="2.5" class="st7" width="89" height="49"/>
			<path class="st8" d="M-356,3v48h-88V3H-356 M-355,2h-90v50h90V2L-355,2z"/>
		</g>
		<g transform="translate(20 9)">
			<g>
				<g>
					<path class="st2" d="M-454,4.1v21h30v-21L-454,4.1z M-426,23.1h-26v-17h26V23.1z M-435,26.1h-2v2h-4v-2h-2v2h-5v2h18v-2h-5
						V26.1z"/>
				</g>
			</g>
			<g class="st4">
				<path class="st9" d="M-411,22.3c-1.3,0.5-2.7,0.9-4.2,1.2l-0.3-1c0.8-0.1,1.6-0.3,2.4-0.5c0.3-2,0.6-4.2,0.7-6.5l0.9,0.1
					c-0.2,2.2-0.4,4.2-0.8,6.1c0.4-0.1,0.8-0.3,1.1-0.4L-411,22.3L-411,22.3z M-413.6,13.9c-0.2-0.7-0.4-1.4-0.6-2l1-0.2
					c0.2,0.6,0.4,1.4,0.6,2.2h1.6v1h-4.4v-1H-413.6z M-413.5,21.2l-0.8,0.2c-0.2-1.9-0.5-3.7-0.8-5.5l0.8-0.3
					C-414,17.3-413.7,19.1-413.5,21.2z M-402.7,16.3v0.9h-3.7c-0.1,0.5-0.2,0.9-0.4,1.3h3.7v4.7c0,0.7-0.3,1.1-0.9,1.1h-0.6
					l-0.2-0.9l0.6,0c0.2,0,0.3-0.1,0.3-0.4v-3.6h-1.3v4.6h-0.9v-4.6h-1.1v4.6h-0.9v-4.6h-1.2v4.8h-0.9v-5.7h2.5
					c0.2-0.4,0.3-0.9,0.4-1.3h-3.3v-0.9C-410.6,16.3-402.7,16.3-402.7,16.3z M-404.3,12.1h1v3h-6.7v-3h1v2.1h1.9v-2.7h1v2.7h1.9
					L-404.3,12.1L-404.3,12.1z"/>
				<path class="st9" d="M-398.8,19.5c-0.5,1.7-1.1,3.3-1.8,4.7l-0.9-0.4c0.7-1.5,1.3-3.1,1.8-4.7L-398.8,19.5z M-398.6,17.2
					l-0.7,0.7c-0.5-0.6-1.1-1.3-2-1.9l0.7-0.7C-399.8,16-399.2,16.6-398.6,17.2z M-398.7,13.6l-0.7,0.7c-0.5-0.6-1.1-1.2-1.9-1.8
					l0.7-0.7C-399.8,12.4-399.2,13-398.7,13.6z M-398.5,14.7v-1h2c-0.2-0.8-0.4-1.5-0.6-2.1l1-0.2c0.2,0.7,0.4,1.4,0.6,2.3h1.6v1
					h-2.5v1c0,0.4,0,0.7,0,1.1h2.3c0,3.3-0.1,5.3-0.2,6.1c-0.1,0.9-0.5,1.3-1.3,1.3c-0.2,0-0.5,0-1-0.1l-0.2-0.9c0.4,0,0.8,0,1.1,0
					c0.3,0,0.4-0.3,0.5-0.8c0.1-0.5,0.2-2.1,0.2-4.7h-1.4c-0.2,2.9-0.8,5.1-1.9,6.6l-0.7-0.7c1.1-1.7,1.7-4.3,1.7-8v-1
					C-397.4,14.7-398.5,14.7-398.5,14.7z M-393.8,16.8l-0.6-0.8c0.9-1.1,1.5-2.6,1.8-4.6l1,0.2c-0.1,0.7-0.3,1.3-0.4,1.9h3.5v1h-3.8
					C-392.8,15.4-393.2,16.2-393.8,16.8z M-389,16v0.9c-0.4,0.6-0.9,1.1-1.5,1.7v0.9h1.9v0.9h-1.9v2.5c0,0.9-0.4,1.3-1.1,1.3h-1.2
					l-0.2-0.9c0.3,0,0.7,0,1.1,0c0.3,0,0.4-0.3,0.4-0.7v-2.2h-2.1v-0.9h2.1v-1c0.6-0.6,1-1.2,1.3-1.5h-2.7V16
					C-392.8,16-389,16-389,16z"/>
			</g>
		</g>
	</g>
	<g>
		<g>
			<polygon class="st2" points="330,288 335,293 330,298 			"/>
		</g>
		<g>
			<polygon class="st2" points="300,288 295,293 300,298 			"/>
			<line class="st3" x1="300" y1="293" x2="330" y2="293"/>
		</g>
	</g>
</g>
<g>
	<path class="st5" d="M542.1,64.9v5.2h-4.4v0.8h4.6v1.3h-4.6v0.7h5.4v1.3h-12.2v-1.3h5.4v-0.7h-4.6v-1.3h4.6v-0.8h-4.4v-5.2H542.1z
		 M533.3,74.9c-0.3,1-0.6,1.8-1.1,2.6l-1.3-0.5c0.4-0.6,0.8-1.5,1.1-2.5L533.3,74.9z M536.3,66.2h-3.1v2.7h3.1V66.2z M535.7,68.4
		l-1.2,0.3c-0.2-0.6-0.4-1.3-0.7-1.9l1.2-0.4C535.2,67,535.5,67.6,535.7,68.4z M536.5,77.2l-1.4,0.3c-0.2-1-0.4-1.8-0.6-2.5l1.3-0.3
		C536,75.5,536.3,76.3,536.5,77.2z M539.7,77.1l-1.4,0.3c-0.2-1-0.5-1.8-0.9-2.5l1.3-0.3C539,75.4,539.4,76.2,539.7,77.1z
		 M540.8,66.2h-3.1v2.7h3.1V66.2z M540.2,66.6c-0.2,0.8-0.5,1.4-0.8,2l-1.2-0.4c0.3-0.5,0.5-1.1,0.8-1.9L540.2,66.6z M543.1,76.7
		l-1.1,0.8c-0.4-0.7-0.9-1.5-1.6-2.4l1.1-0.7C542.2,75.3,542.7,76.1,543.1,76.7z"/>
	<path class="st5" d="M557.2,65.1v1.4h-6.5c-0.4,1.2-1,2.3-1.6,3.3h7.1v7.4h-1.5v-0.7h-5.4v0.7h-1.5v-5.6c-0.8,0.9-1.6,1.7-2.5,2.4
		l-0.9-1.5c2.2-1.6,3.7-3.6,4.7-6.1h-4.3v-1.4H557.2z M554.8,75.2v-3.9h-5.4v3.9H554.8z"/>
	<path class="st5" d="M564.8,66.6c0.6,0.6,0.9,1.3,0.9,2.2c0,0.9-0.3,1.7-1,2.4c-0.4,0.4-1.1,1-2.1,1.6c-1,0.7-1.6,1.3-1.9,1.8h4.9
		V76h-7c0-1,0.3-1.9,1-2.7c0.4-0.4,1.1-1,2.3-1.8c0.6-0.4,1.1-0.8,1.4-1.1c0.4-0.5,0.7-1,0.7-1.6c0-0.5-0.2-1-0.4-1.2
		c-0.3-0.3-0.7-0.4-1.3-0.4c-0.6,0-1.1,0.2-1.4,0.6c-0.3,0.4-0.5,1-0.5,1.8h-1.6c0-1.1,0.3-2,1-2.7c0.7-0.7,1.5-1.1,2.6-1.1
		C563.3,65.8,564.1,66.1,564.8,66.6z"/>
	<path class="st5" d="M569.1,74.2c0.2,0.2,0.3,0.5,0.3,0.8c0,0.3-0.1,0.6-0.3,0.8c-0.2,0.2-0.5,0.3-0.8,0.3c-0.3,0-0.6-0.1-0.8-0.3
		c-0.2-0.2-0.3-0.5-0.3-0.8c0-0.3,0.1-0.6,0.3-0.8c0.2-0.2,0.5-0.3,0.8-0.3C568.6,73.9,568.9,74,569.1,74.2z"/>
	<path class="st5" d="M577.2,67.3c0.6,0.9,0.9,2.2,0.9,3.7s-0.3,2.8-0.9,3.7c-0.7,1-1.6,1.5-2.7,1.5c-1.2,0-2.1-0.5-2.7-1.5
		c-0.6-0.9-0.9-2.2-0.9-3.7s0.3-2.8,0.9-3.7c0.6-1,1.6-1.5,2.7-1.5C575.6,65.8,576.5,66.3,577.2,67.3z M572.8,68.5
		c-0.2,0.6-0.3,1.4-0.3,2.5c0,1,0.1,1.9,0.3,2.5c0.3,0.9,0.9,1.3,1.7,1.3c0.8,0,1.3-0.4,1.7-1.3c0.2-0.6,0.3-1.4,0.3-2.5
		c0-1.1-0.1-1.9-0.3-2.5c-0.3-0.9-0.9-1.3-1.7-1.3C573.7,67.2,573.1,67.6,572.8,68.5z"/>
	<path class="st5" d="M592,69v1.5h-6.6c-1.2,2.3-2.2,4-3.1,5c2.2-0.2,4.4-0.4,6.6-0.7c-0.4-0.8-0.9-1.6-1.4-2.4l1.2-0.7
		c1.3,1.9,2.2,3.5,2.9,4.9l-1.3,0.9c-0.2-0.5-0.4-0.9-0.7-1.4c-2.8,0.4-5.8,0.7-9.1,0.9l-0.4-1.5c0.2-0.1,0.3-0.1,0.4-0.2
		c0.8-0.6,1.9-2.3,3.3-5h-4.5V69H592z M590.8,65.2v1.4h-10.1v-1.4H590.8z"/>
	<path class="st5" d="M605.4,65v1.4h-9.9v9.1h10.3v1.4h-11.7V65H605.4z M600.9,70c0.7-0.9,1.3-2,1.8-3.2l1.3,0.7
		c-0.6,1.3-1.3,2.5-2,3.5c1,0.9,1.9,1.8,2.7,2.7l-1.1,1.1c-0.7-0.9-1.6-1.8-2.5-2.7c-1.2,1.2-2.5,2.2-4,2.8l-0.9-1.3
		c1.4-0.6,2.7-1.4,3.8-2.5c-1.1-0.9-2.2-1.9-3.5-2.9l1.1-1C598.7,68.2,599.9,69.1,600.9,70z"/>
</g>
</svg>
