<?xml version="1.0" encoding="utf-8"?>
<!-- Generator: Adobe Illustrator 23.0.3, SVG Export Plug-In . SVG Version: 6.00 Build 0)  -->
<svg version="1.1" id="svgwrapper_svg" xmlns="http://www.w3.org/2000/svg" xmlns:xlink="http://www.w3.org/1999/xlink" x="0px"
	 y="0px" width="830px" height="260px" viewBox="0 0 830 260" style="enable-background:new 0 0 830 260;" xml:space="preserve">
<path style="display:none;fill:none;stroke:#999999;" d="M720,47L530,91"/>
<g>
	<rect x="0.5" y="30.5" style="fill:#EAEBEC;" width="124" height="179"/>
	<rect x="421.5" y="46.5" style="fill:#CEE3FF;" width="124" height="167"/>
	<g>
		<g>
			<rect x="435.5" y="87.5" style="opacity:0.6;fill:#BBBBBB;enable-background:new    ;" width="98" height="50"/>
			<g>
				<rect x="434" y="86" style="fill:#FFFFFF;" width="97" height="49"/>
				<path style="fill:#E5E5E5;" d="M530.5,86.5v48h-96v-48H530.5 M531.5,85.5h-98v50h98V85.5L531.5,85.5z"/>
			</g>
		</g>
		<g>
			<g transform="translate(20 9)">
				<g style="enable-background:new    ;">
					<path style="fill:#444444;" d="M439.1,99.8v6.2c0.5-0.4,1.1-0.9,1.6-1.4l0.3,1.1c-0.9,0.8-1.8,1.6-2.8,2.2l-0.4-0.9
						c0.2-0.2,0.3-0.4,0.3-0.6v-5.5h-1.9v-1H439.1z M440,97.8l-0.7,0.7c-0.5-0.7-1.3-1.4-2.2-2.1l0.7-0.7
						C438.6,96.4,439.4,97.1,440,97.8z M447.8,101.4v0.9c-0.4,1.3-1.2,2.5-2.2,3.4c1,0.7,2.1,1.2,3.5,1.7l-0.5,0.9
						c-1.5-0.6-2.7-1.2-3.7-2c-1.1,0.8-2.5,1.5-4.1,2l-0.6-0.9c1.6-0.5,2.9-1.1,3.9-1.8c-1.1-1-1.8-2.1-2.2-3.3h-0.8v-1H447.8z
						 M446.9,96v3c0,0.3,0.2,0.5,0.5,0.5h1.3v0.9h-1.5c-0.9,0-1.3-0.4-1.3-1.2V97h-2.7v0.5c0,1.5-0.7,2.6-2.2,3.4l-0.7-0.8
						c1.2-0.6,1.8-1.5,1.8-2.6V96H446.9z M444.8,105.1c0.9-0.8,1.6-1.7,2-2.7h-3.9C443.2,103.4,443.8,104.3,444.8,105.1z"/>
					<path style="fill:#444444;" d="M455.6,95.5c-0.2,0.3-0.4,0.6-0.7,0.9h5.7v0.8c-0.9,1.1-1.9,2-3.2,2.7c1.5,0.6,3.3,1.1,5.4,1.4
						l-0.4,0.9c-2.3-0.4-4.3-0.9-5.9-1.7c-1.7,0.9-3.7,1.5-6,1.8l-0.4-0.9c2.1-0.3,3.9-0.8,5.5-1.5c-0.8-0.5-1.6-1.1-2.2-1.8
						c-0.6,0.6-1.3,1.1-2,1.5l-0.6-0.8c1.6-0.9,2.9-2.1,3.9-3.6L455.6,95.5z M460.9,108.3h-1v-0.6h-6.9v0.6h-1v-6.1h8.8V108.3z
						 M456,104.5V103h-3v1.5H456z M456,106.8v-1.5h-3v1.5H456z M456.5,99.5c1.1-0.6,2.1-1.3,2.9-2.1h-5.2l-0.3,0.3
						C454.7,98.3,455.5,98.9,456.5,99.5z M457,104.5h3V103h-3V104.5z M460,106.8v-1.5h-3v1.5H460z"/>
					<path style="fill:#444444;" d="M467.2,99.7v6.1c0.5-0.4,1.1-0.9,1.6-1.4l0.3,1c-0.9,0.8-1.8,1.6-2.8,2.2l-0.4-0.9
						c0.2-0.2,0.3-0.4,0.3-0.6v-5.5h-2.1v-1H467.2z M468.2,97.7l-0.7,0.7c-0.6-0.7-1.4-1.4-2.4-2.2l0.7-0.7
						C466.7,96.3,467.5,97,468.2,97.7z M473.3,95.5c0,1.2,0,2.3-0.1,3.3c0.7,3.6,2,6.4,3.9,8.5l-0.7,0.8c-1.5-1.9-2.6-4.3-3.4-7
						c-0.1,0.4-0.1,0.8-0.2,1.1c-0.5,2.4-1.7,4.4-3.6,5.9l-0.7-0.8c1.6-1.4,2.7-3.1,3.2-5.2c0.4-1.8,0.6-4,0.6-6.7H473.3z"/>
					<path style="fill:#444444;" d="M481.1,99.7v6.1c0.4-0.4,0.9-0.8,1.4-1.3l0.3,1.1c-0.8,0.8-1.7,1.5-2.6,2.1l-0.4-0.9
						c0.2-0.2,0.3-0.4,0.3-0.6v-5.4h-2v-1H481.1z M482.1,97.7l-0.7,0.7c-0.6-0.7-1.3-1.4-2.3-2.2l0.7-0.7
						C480.7,96.3,481.5,97,482.1,97.7z M482.9,97.1v-1h7.9v1h-2.9v3.9h2.7v0.9h-2.7v4.8h3.2v1h-8.6v-1h1.4v-7.4h1v7.4h2v-9.7H482.9z
						"/>
				</g>
			</g>
		</g>
	</g>
	<g>
		<polygon style="fill:#878787;" points="130.5,130.5 126.5,133.5 130.5,136.5 		"/>
		<polygon style="fill:#878787;" points="146.5,130.5 150.5,133.5 146.5,136.5 		"/>
		<line style="fill:none;stroke:#878787;stroke-miterlimit:10;" x1="148.5" y1="133.5" x2="128.5" y2="133.5"/>
	</g>
	<g>
		<polygon style="fill:#878787;" points="65.5,127.5 62.5,123.5 59.5,127.5 		"/>
		<polygon style="fill:#878787;" points="65.5,139.5 62.5,143.5 59.5,139.5 		"/>
		<line style="fill:none;stroke:#878787;stroke-miterlimit:10;" x1="62.5" y1="141.5" x2="62.5" y2="125.5"/>
	</g>
	<g>
		<polygon style="fill:#878787;" points="258.5,130.5 254.5,133.5 258.5,136.5 		"/>
		<polygon style="fill:#878787;" points="274.5,130.5 278.5,133.5 274.5,136.5 		"/>
		<line style="fill:none;stroke:#878787;stroke-miterlimit:10;" x1="276.5" y1="133.5" x2="256.5" y2="133.5"/>
	</g>
	<g>
		<path style="fill:#BABABA;" d="M829.5,6.5h-6v1h6V6.5L829.5,6.5z M819.5,6.5h-6v1h6V6.5L819.5,6.5z M809.5,6.5h-6v1h6V6.5
			L809.5,6.5z M799.5,6.5h-6v1h6V6.5L799.5,6.5z M789.5,6.5h-6v1h6V6.5L789.5,6.5z M779.5,6.5h-6v1h6V6.5L779.5,6.5z M769.5,6.5h-6
			v1h6V6.5L769.5,6.5z M759.5,6.5h-6v1h6V6.5L759.5,6.5z M749.5,6.5h-6v1h6V6.5L749.5,6.5z M739.5,6.5h-6v1h6V6.5L739.5,6.5z
			 M729.5,6.5h-6v1h6V6.5L729.5,6.5z M719.5,6.5h-6v1h6V6.5L719.5,6.5z M709.5,6.5h-6v1h6V6.5L709.5,6.5z M699.5,6.5h-6v1h6V6.5
			L699.5,6.5z M689.5,6.5h-6v1h6V6.5L689.5,6.5z M679.5,6.5h-6v1h6V6.5L679.5,6.5z M669.5,6.5h-6v1h6V6.5L669.5,6.5z M659.5,6.5h-6
			v1h6V6.5L659.5,6.5z M649.5,6.5h-6v1h6V6.5L649.5,6.5z M639.5,6.5h-6v1h6V6.5L639.5,6.5z M629.5,6.5h-6v1h6V6.5L629.5,6.5z
			 M619.5,6.5h-6v1h6V6.5L619.5,6.5z M609.5,6.5h-6v1h6V6.5L609.5,6.5z M599.5,6.5h-6v1h6V6.5L599.5,6.5z M589.5,6.5h-6v1h6V6.5
			L589.5,6.5z M579.5,6.5h-6v1h6V6.5L579.5,6.5z M569.5,6.5h-6v1h6V6.5L569.5,6.5z M559.5,6.5h-6v1h6V6.5L559.5,6.5z M549.5,6.5h-6
			v1h6V6.5L549.5,6.5z M539.5,6.5h-6v1h6V6.5L539.5,6.5z M529.5,6.5h-6v1h6V6.5L529.5,6.5z M519.5,6.5h-6v1h6V6.5L519.5,6.5z
			 M509.5,6.5h-6v1h6V6.5L509.5,6.5z M499.5,6.5h-6v1h6V6.5L499.5,6.5z M489.5,6.5h-6v1h6V6.5L489.5,6.5z M479.5,6.5h-6v1h6V6.5
			L479.5,6.5z M469.5,6.5h-6v1h6V6.5L469.5,6.5z M459.5,6.5h-6v1h6V6.5L459.5,6.5z M449.5,6.5h-6v1h6V6.5L449.5,6.5z M439.5,6.5h-6
			v1h6V6.5L439.5,6.5z M429.5,6.5h-6v1h6V6.5L429.5,6.5z M419.5,6.5h-6v1h6V6.5L419.5,6.5z M409.5,7.5h-1v6h1V7.5L409.5,7.5
			L409.5,7.5L409.5,7.5z M409.5,17.5h-1v6h1V17.5L409.5,17.5z M409.5,27.5h-1v6h1V27.5L409.5,27.5z M409.5,37.5h-1v6h1V37.5
			L409.5,37.5z M409.5,47.5h-1v6h1V47.5L409.5,47.5z M409.5,57.5h-1v6h1V57.5L409.5,57.5z M409.5,67.5h-1v6h1V67.5L409.5,67.5z
			 M409.5,77.5h-1v6h1V77.5L409.5,77.5z M409.5,87.5h-1v6h1V87.5L409.5,87.5z M409.5,97.5h-1v6h1V97.5L409.5,97.5z M409.5,107.5h-1
			v6h1V107.5L409.5,107.5z M409.5,117.5h-1v6h1V117.5L409.5,117.5z M409.5,127.5h-1v6h1V127.5L409.5,127.5z M409.5,137.5h-1v6h1
			V137.5L409.5,137.5z M409.5,147.5h-1v6h1V147.5L409.5,147.5z M409.5,157.5h-1v6h1V157.5L409.5,157.5z M409.5,167.5h-1v6h1V167.5
			L409.5,167.5z M409.5,177.5h-1v6h1V177.5L409.5,177.5z M409.5,187.5h-1v6h1V187.5L409.5,187.5z M409.5,197.5h-1v6h1V197.5
			L409.5,197.5z M409.5,207.5h-1v6h1V207.5L409.5,207.5z M409.5,217.5h-1v6h1V217.5L409.5,217.5z M417.5,225.5h-6v1h6V225.5
			L417.5,225.5z M427.5,225.5h-6v1h6V225.5L427.5,225.5z M437.5,225.5h-6v1h6V225.5L437.5,225.5z M447.5,225.5h-6v1h6V225.5
			L447.5,225.5z M457.5,225.5h-6v1h6V225.5L457.5,225.5z M467.5,225.5h-6v1h6V225.5L467.5,225.5z M477.5,225.5h-6v1h6V225.5
			L477.5,225.5z M487.5,225.5h-6v1h6V225.5L487.5,225.5z M497.5,225.5h-6v1h6V225.5L497.5,225.5z M507.5,225.5h-6v1h6V225.5
			L507.5,225.5z M517.5,225.5h-6v1h6V225.5L517.5,225.5z M527.5,225.5h-6v1h6V225.5L527.5,225.5z M537.5,225.5h-6v1h6V225.5
			L537.5,225.5z M547.5,225.5h-6v1h6V225.5L547.5,225.5z M557.5,225.5h-6v1h6V225.5L557.5,225.5z M567.5,225.5h-6v1h6V225.5
			L567.5,225.5z M577.5,225.5h-6v1h6V225.5L577.5,225.5z M587.5,225.5h-6v1h6V225.5L587.5,225.5z M597.5,225.5h-6v1h6V225.5
			L597.5,225.5z M607.5,225.5h-6v1h6V225.5L607.5,225.5z M617.5,225.5h-6v1h6V225.5L617.5,225.5z M627.5,225.5h-6v1h6V225.5
			L627.5,225.5z M637.5,225.5h-6v1h6V225.5L637.5,225.5z M647.5,225.5h-6v1h6V225.5L647.5,225.5z M657.5,225.5h-6v1h6V225.5
			L657.5,225.5z M667.5,225.5h-6v1h6V225.5L667.5,225.5z M677.5,225.5h-6v1h6V225.5L677.5,225.5z M687.5,225.5h-6v1h6V225.5
			L687.5,225.5z M697.5,225.5h-6v1h6V225.5L697.5,225.5z M707.5,225.5h-6v1h6V225.5L707.5,225.5z M717.5,225.5h-6v1h6V225.5
			L717.5,225.5z M727.5,225.5h-6v1h6V225.5L727.5,225.5z M737.5,225.5h-6v1h6V225.5L737.5,225.5z M747.5,225.5h-6v1h6V225.5
			L747.5,225.5z M757.5,225.5h-6v1h6V225.5L757.5,225.5z M767.5,225.5h-6v1h6V225.5L767.5,225.5z M777.5,225.5h-6v1h6V225.5
			L777.5,225.5z M787.5,225.5h-6v1h6V225.5L787.5,225.5z M797.5,225.5h-6v1h6V225.5L797.5,225.5z M807.5,225.5h-6v1h6V225.5
			L807.5,225.5z M817.5,225.5h-6v1h6V225.5L817.5,225.5z M827.5,225.5h-6v1h6V225.5L827.5,225.5z M830.5,217.5h-1v6h1V217.5
			L830.5,217.5z M830.5,207.5h-1v6h1V207.5L830.5,207.5z M830.5,197.5h-1v6h1V197.5L830.5,197.5z M830.5,187.5h-1v6h1V187.5
			L830.5,187.5z M830.5,177.5h-1v6h1V177.5L830.5,177.5z M830.5,167.5h-1v6h1V167.5L830.5,167.5z M830.5,157.5h-1v6h1V157.5
			L830.5,157.5z M830.5,147.5h-1v6h1V147.5L830.5,147.5z M830.5,137.5h-1v6h1V137.5L830.5,137.5z M830.5,127.5h-1v6h1V127.5
			L830.5,127.5z M830.5,117.5h-1v6h1V117.5L830.5,117.5z M830.5,107.5h-1v6h1V107.5L830.5,107.5z M830.5,97.5h-1v6h1V97.5
			L830.5,97.5z M830.5,87.5h-1v6h1V87.5L830.5,87.5z M830.5,77.5h-1v6h1V77.5L830.5,77.5z M830.5,67.5h-1v6h1V67.5L830.5,67.5z
			 M830.5,57.5h-1v6h1V57.5L830.5,57.5z M830.5,47.5h-1v6h1V47.5L830.5,47.5z M830.5,37.5h-1v6h1V37.5L830.5,37.5z M830.5,27.5h-1v6
			h1V27.5L830.5,27.5z M830.5,17.5h-1v6h1V17.5L830.5,17.5z M830.5,7.5h-1v6h1V7.5L830.5,7.5z"/>
	</g>
	<g>
		<g>
			<rect x="435.5" y="151.5" style="opacity:0.6;fill:#BBBBBB;enable-background:new    ;" width="98" height="50"/>
			<g>
				<rect x="434" y="150" style="fill:#FFFFFF;" width="97" height="49"/>
				<path style="fill:#E5E5E5;" d="M530.5,150.5v48h-96v-48H530.5 M531.5,149.5h-98v50h98V149.5L531.5,149.5z"/>
			</g>
		</g>
		<g>
			<g transform="translate(20 9)">
				<g style="enable-background:new    ;">
					<path style="fill:#444444;" d="M446.1,162.7c-1.3,1.6-3,2.9-5,3.9c0.1,0.1,0.2,0.1,0.4,0.1h2.7c0.3,0,0.6-0.1,0.7-0.2
						c0.2-0.2,0.3-0.7,0.4-1.5l1,0.3c-0.1,1.1-0.3,1.8-0.6,2c-0.3,0.2-0.7,0.3-1.2,0.3h-3.2c-0.5,0-0.9-0.2-1.1-0.5
						c-1.1,0.5-2.3,0.9-3.6,1.3l-0.4-0.9c1.4-0.4,2.7-0.8,3.8-1.3v-2.8h1v2.4c1.8-1,3.3-2.2,4.5-3.6L446.1,162.7z M448.4,163.5h-1
						v-1.9h-9.7v1.9h-1v-2.9h5.4c-0.2-0.4-0.3-0.7-0.5-1l1.1-0.2c0.2,0.3,0.3,0.8,0.4,1.2h5.3V163.5z M439.5,163
						c-0.4,1.3-1,2.4-1.8,3.3l-0.8-0.5c0.8-0.9,1.4-1.9,1.7-3L439.5,163z M443,168v2.7h3.5v-2.4h1v4h-1v-0.6h-7.9v0.6h-1v-3.8h1v2.3
						h3.4V168H443z M443.3,163.5l-0.7,0.5c-0.4-0.5-0.9-1.1-1.5-1.7l0.7-0.5C442.5,162.4,443,163,443.3,163.5z M448.8,166.4
						l-0.8,0.6c-0.6-0.9-1.3-1.9-2.1-2.9l0.7-0.5C447.6,164.6,448.3,165.6,448.8,166.4z"/>
					<path style="fill:#444444;" d="M453,159.7c-0.1,0.5-0.3,0.9-0.4,1.4h3v0.9h-3.4c-0.4,1-0.9,1.8-1.4,2.6l-0.8-0.5
						c0.9-1.4,1.6-2.9,2-4.6L453,159.7z M455.5,163.9v0.9h-1.8v1.7h2.2v0.9h-2.2v3.3c0.6-0.2,1.2-0.5,1.8-0.9l0.2,0.9
						c-0.9,0.5-1.8,0.8-3,1.1l-0.4-0.9c0.3-0.1,0.4-0.2,0.4-0.4v-3.2h-2.2v-0.9h2.2v-1.7h-1.1v-0.9H455.5z M456.1,172.3l-0.8-0.7
						c0.9-1.4,1.4-3.2,1.4-5.4V160h5.6v11c0,0.7-0.4,1.1-1.1,1.1h-1.6l-0.3-1c0.6,0,1.1,0.1,1.6,0.1c0.3,0,0.5-0.2,0.5-0.5v-2.9
						h-3.7C457.4,169.6,456.9,171.1,456.1,172.3z M457.7,166.1c0,0.3,0,0.5,0,0.7h3.6v-2.5h-3.6V166.1z M461.4,161h-3.6v2.4h3.6V161
						z"/>
					<path style="fill:#444444;" d="M465.7,162.8v-3.2h1v3.2h1.6v0.9h-1.6v8.6h-1v-8.6h-1.6v-0.9H465.7z M469.9,165
						c-0.4,1.7-1,2.9-1.8,3.8l-0.7-0.6c0.7-0.9,1.3-2,1.6-3.4L469.9,165z M472.2,159.6v2.4h2.8c0,4.5-0.1,7.3-0.2,8.4
						c-0.1,1.2-0.8,1.8-2,1.8c-0.2,0-0.6,0-1-0.1l-0.3-0.9c0.4,0,0.8,0,1.2,0c0.7,0,1.1-0.4,1.2-1.2c0.1-0.8,0.1-3.1,0.2-7h-1.8v0.2
						c-0.1,4.2-1.2,7.2-3.4,9.1l-0.8-0.7c2.1-1.8,3.1-4.6,3.2-8.4V163h-2.4v-1h2.4v-2.4H472.2z M477,168.1l-0.8,0.4
						c-0.4-1.3-0.8-2.4-1.2-3.4l0.8-0.3C476.3,165.8,476.7,166.9,477,168.1z"/>
					<path style="fill:#444444;" d="M485.1,160.6h5.6v1h-3c-0.3,0.6-0.5,1.2-0.8,1.7h3.1v7.6c0,0.9-0.4,1.4-1.2,1.4h-1.4l-0.3-0.9
						l1.4,0c0.4,0,0.6-0.3,0.6-0.7v-6.4h-9v8h-1v-8.9h3c-0.2-0.6-0.5-1.2-0.7-1.7h-2.9v-1h5.7c-0.2-0.4-0.3-0.8-0.5-1.1l1.1-0.2
						C484.8,159.7,484.9,160.1,485.1,160.6z M483.8,165.1c-0.8,1-1.8,1.8-3,2.5l-0.6-0.8c1.1-0.6,2.1-1.4,2.9-2.3L483.8,165.1z
						 M487.1,167.1v3.4h-5.2v-3.4H487.1z M485.8,163.3c0.3-0.6,0.6-1.1,0.8-1.7h-4.2c0.2,0.5,0.5,1.1,0.7,1.7H485.8z M486.1,168.1
						h-3.3v1.6h3.3V168.1z M488.8,166.8l-0.8,0.7c-0.7-0.8-1.6-1.6-2.8-2.5l0.7-0.6C487,165.2,488,166,488.8,166.8z"/>
				</g>
			</g>
		</g>
	</g>
	<g>
		<g transform="translate(20 9)">
			<g style="enable-background:new    ;">
				<path style="fill:#00A4FF;" d="M418.3,55.3c0.4-0.8,0.8-1.5,1.2-2.3l1,0.3c-0.4,0.7-0.7,1.4-1.1,2h7.2v1h-2.8
					c-0.6,1.5-1.2,2.6-2,3.5c1.4,0.6,2.9,1.3,4.4,2.2l-0.7,0.9c-1.5-0.9-3-1.7-4.5-2.3c-1.6,1.4-3.6,2.1-6.2,2.2l-0.6-0.9
					c2.4,0,4.3-0.6,5.8-1.7c-1.3-0.6-2.6-1.1-3.9-1.5c0.5-0.8,1-1.6,1.4-2.3h-3.4v-1H418.3z M426.3,54.4h-1v-2h-9.6v2h-1v-3h5.3
					c-0.2-0.5-0.4-0.9-0.6-1.3l1.1-0.2c0.2,0.4,0.4,0.9,0.6,1.5h5.2V54.4z M417.7,58.2c1.1,0.3,2.1,0.7,3.2,1.2
					c0.8-0.8,1.4-1.9,1.8-3.1h-3.9C418.5,57,418.1,57.7,417.7,58.2z"/>
				<path style="fill:#00A4FF;" d="M434.9,50.1c1.8,1.8,3.8,3.3,6.1,4.4l-0.5,0.9c-2.3-1.1-4.3-2.6-6-4.3c-1.5,1.7-3.5,3.2-6,4.4
					l-0.5-0.9c2.5-1.2,4.5-2.7,6.1-4.4H434.9z M438.4,54.5v1H435v2.4h4v1h-4v2.6h5.3v1h-11.7v-1h5.3v-2.6h-4.1v-1h4.1v-2.4h-3.4v-1
					H438.4z"/>
				<path style="fill:#00A4FF;" d="M445.2,54.3v6.1c0.5-0.4,1.1-0.9,1.6-1.4l0.3,1c-0.9,0.8-1.8,1.6-2.8,2.2l-0.4-0.9
					c0.2-0.2,0.3-0.4,0.3-0.6v-5.5h-2.1v-1H445.2z M446.2,52.4l-0.7,0.7c-0.6-0.7-1.4-1.4-2.4-2.2l0.7-0.7
					C444.7,50.9,445.5,51.6,446.2,52.4z M451.3,50.1c0,1.2,0,2.3-0.1,3.3c0.7,3.6,2,6.4,3.9,8.5l-0.7,0.8c-1.5-1.9-2.6-4.3-3.4-7
					c-0.1,0.4-0.1,0.8-0.2,1.1c-0.5,2.4-1.7,4.4-3.6,5.9l-0.7-0.8c1.6-1.4,2.7-3.1,3.2-5.2c0.4-1.8,0.6-4,0.6-6.7H451.3z"/>
				<path style="fill:#00A4FF;" d="M459.1,54.3v6.1c0.4-0.4,0.9-0.8,1.4-1.3l0.3,1.1c-0.8,0.8-1.7,1.5-2.6,2.1l-0.4-0.9
					c0.2-0.2,0.3-0.4,0.3-0.6v-5.4h-2v-1H459.1z M460.1,52.4l-0.7,0.7c-0.6-0.7-1.3-1.4-2.3-2.2l0.7-0.7
					C458.7,50.9,459.5,51.6,460.1,52.4z M460.9,51.7v-1h7.9v1h-2.9v3.9h2.7v0.9h-2.7v4.8h3.2v1h-8.6v-1h1.4V54h1v7.4h2v-9.7H460.9z"
					/>
				<path style="fill:#00A4FF;" d="M482.2,50.7v1H477V57h5.7v1H477v5h-1v-5h-5.6v-1h5.6v-5.3h-5.1v-1H482.2z M474.1,55.8l-0.9,0.5
					c-0.5-1.2-1-2.3-1.5-3.2l0.9-0.5C473.1,53.5,473.6,54.6,474.1,55.8z M481.4,52.9c-0.4,1.1-1,2.2-1.7,3.2l-0.9-0.5
					c0.7-1.1,1.2-2.2,1.6-3.2L481.4,52.9z"/>
				<path style="fill:#00A4FF;" d="M484.6,54.7c1.2-0.4,2.8-2,4.6-4.7l1,0.4c-1.3,1.8-2.5,3.2-3.8,4.3c2.7-0.1,5.2-0.3,7.6-0.5
					c-0.5-0.8-1.1-1.5-1.6-2.1l0.9-0.4c1.2,1.4,2.3,3,3.4,4.7l-1,0.5c-0.4-0.6-0.7-1.1-1-1.7c-3,0.3-6.2,0.5-9.9,0.6L484.6,54.7z
					 M495.2,62.9h-1v-0.7h-7.3v0.7h-1v-5.8h9.4V62.9z M494.2,61.2V58h-7.3v3.2H494.2z"/>
			</g>
		</g>
	</g>
	<g>
		<g>
			<rect x="14.5" y="71.5" style="opacity:0.6;fill:#BBBBBB;enable-background:new    ;" width="98" height="50"/>
			<g>
				<rect x="13" y="70" style="fill:#FFFFFF;" width="97" height="49"/>
				<path style="fill:#E5E5E5;" d="M109.5,70.5v48h-96v-48H109.5 M110.5,69.5h-98v50h98V69.5L110.5,69.5z"/>
			</g>
		</g>
		<g>
			<g transform="translate(20 9)">
				<g style="enable-background:new    ;">
					<path style="fill:#444444;" d="M13.5,82.8v-1h5.3c-0.2-0.7-0.5-1.5-0.9-2.1l1-0.3c0.4,0.8,0.6,1.5,0.8,2.2l-0.5,0.2H25v1h-5.2
						v3.3h4.5v0.9h-4.5v3.8h5.7v1H13v-1h5.7v-3.8h-4.5v-0.9h4.5v-3.3H13.5z"/>
					<path style="fill:#444444;" d="M27.3,92.2l-0.2-1c0.4,0,0.7,0.1,1.1,0.1c0.4,0,0.5-0.2,0.5-0.5v-3.4c-0.6,0.2-1.1,0.4-1.7,0.6
						l-0.3-1c0.7-0.2,1.3-0.4,1.9-0.6v-3.1H27v-1h1.7v-2.7h1v2.7h1.2v1h-1.2v2.7c0.4-0.2,0.8-0.4,1.2-0.6v1
						c-0.4,0.2-0.8,0.4-1.2,0.6V91c0,0.8-0.4,1.2-1.2,1.2H27.3z M31.6,87.8v-0.9h7.5v0.9h-3.2v3.1h3.7v1h-8.6v-1h3.8v-3.1H31.6z
						 M36,81h3.3v2.6h-0.9v-1.7h-5.9v1.7h-1V81H35c-0.2-0.6-0.5-1.1-0.7-1.5l1-0.2C35.5,79.8,35.8,80.4,36,81z M34.9,83.1
						c-0.6,1.4-1.5,2.5-2.5,3.2l-0.7-0.6c1.1-0.7,1.8-1.7,2.4-2.9L34.9,83.1z M39,85.7l-0.9,0.4c-0.7-1.1-1.4-2.2-2.3-3.1l0.9-0.4
						C37.6,83.6,38.3,84.6,39,85.7z"/>
					<path style="fill:#444444;" d="M42.7,80.9l3.7,8.5h0l3.7-8.5h1.4v10h-1.1v-8h0l-3.5,8h-1l-3.5-8h0v8h-1.1v-10H42.7z"/>
					<path style="fill:#444444;" d="M60.7,81.6c0.8,0.6,1.2,1.4,1.3,2.4h-1.1c-0.1-0.7-0.5-1.3-1.1-1.7c-0.5-0.4-1.2-0.6-2-0.6
						c-1.2,0-2.1,0.4-2.7,1.2c-0.6,0.8-0.9,1.8-0.9,3c0,1.2,0.3,2.2,0.9,3c0.6,0.8,1.5,1.2,2.7,1.2c0.8,0,1.5-0.2,2-0.6
						c0.6-0.4,1-1.1,1.2-2h1.1c-0.2,1.2-0.7,2.1-1.6,2.7c-0.8,0.6-1.7,0.9-2.8,0.9c-1.6,0-2.7-0.5-3.6-1.5c-0.8-0.9-1.1-2.1-1.1-3.6
						c0-1.5,0.4-2.7,1.1-3.7c0.8-1.1,2-1.6,3.6-1.6C59,80.7,59.9,81,60.7,81.6z"/>
					<path style="fill:#444444;" d="M64.9,80.9v6.2c0,1,0.2,1.7,0.7,2.2c0.5,0.5,1.2,0.8,2.2,0.8c1,0,1.7-0.3,2.2-0.8
						c0.4-0.5,0.7-1.2,0.7-2.2v-6.2h1.1v6.2c0,1.3-0.3,2.3-1,3c-0.7,0.7-1.7,1.1-3,1.1c-1.3,0-2.3-0.4-3-1c-0.7-0.7-1-1.7-1-3v-6.2
						H64.9z"/>
				</g>
			</g>
		</g>
	</g>
	<g>
		<g>
			<rect x="14.5" y="147.5" style="opacity:0.6;fill:#BBBBBB;enable-background:new    ;" width="98" height="50"/>
			<g>
				<rect x="13" y="146" style="fill:#FFFFFF;" width="97" height="49"/>
				<path style="fill:#E5E5E5;" d="M109.5,146.5v48h-96v-48H109.5 M110.5,145.5h-98v50h98V145.5L110.5,145.5z"/>
			</g>
		</g>
		<g>
			<g transform="translate(20 9)">
				<g style="enable-background:new    ;">
					<path style="fill:#444444;" d="M12.6,157.5c0.7,0.5,1.1,1.3,1.1,2.4h-1.1c-0.1-0.7-0.4-1.3-0.8-1.6c-0.4-0.4-1.1-0.5-1.9-0.5
						c-0.7,0-1.3,0.1-1.7,0.4c-0.5,0.3-0.7,0.7-0.7,1.3c0,0.5,0.3,0.9,0.9,1.2c0.3,0.1,0.9,0.3,1.8,0.6c1.3,0.4,2.2,0.7,2.6,1
						c0.8,0.5,1.2,1.2,1.2,2.1c0,0.9-0.4,1.6-1.1,2.1c-0.7,0.5-1.6,0.7-2.8,0.7c-1.2,0-2.1-0.3-2.8-0.8c-0.8-0.6-1.2-1.5-1.3-2.7
						h1.1c0.1,0.9,0.4,1.5,0.9,1.9c0.5,0.4,1.1,0.6,2,0.6c0.8,0,1.5-0.2,2-0.5c0.5-0.3,0.8-0.7,0.8-1.3c0-0.6-0.3-1.1-1-1.5
						c-0.3-0.2-1-0.4-2.1-0.7c-1.2-0.4-2-0.6-2.3-0.8c-0.8-0.4-1.1-1.1-1.1-1.9c0-0.9,0.4-1.6,1.1-2c0.7-0.4,1.5-0.7,2.5-0.7
						C11.1,156.7,12,157,12.6,157.5z"/>
					<path style="fill:#444444;" d="M22.6,156.9v1h-5.9v3.3h5.6v1h-5.6v3.7h6.2v1h-7.3v-10H22.6z"/>
					<path style="fill:#444444;" d="M28.1,160.7c0.4-0.8,0.8-1.5,1.2-2.3l1,0.3c-0.4,0.7-0.7,1.4-1.1,2h7.2v1h-2.8
						c-0.6,1.5-1.2,2.6-2,3.5c1.4,0.6,2.9,1.3,4.4,2.2l-0.7,0.9c-1.5-0.9-3-1.7-4.5-2.3c-1.6,1.4-3.6,2.1-6.2,2.2l-0.6-0.9
						c2.4,0,4.3-0.6,5.8-1.7c-1.3-0.6-2.6-1.1-3.9-1.5c0.5-0.8,1-1.6,1.4-2.3h-3.4v-1H28.1z M36.2,159.8h-1v-2h-9.6v2h-1v-3h5.3
						c-0.2-0.5-0.4-0.9-0.6-1.3l1.1-0.2c0.2,0.4,0.4,0.9,0.6,1.5h5.2V159.8z M27.6,163.6c1.1,0.3,2.1,0.7,3.2,1.2
						c0.8-0.8,1.4-1.9,1.8-3.1h-3.9C28.4,162.4,28,163.1,27.6,163.6z"/>
					<path style="fill:#444444;" d="M44.8,155.5c1.8,1.8,3.8,3.3,6.1,4.4l-0.5,0.9c-2.3-1.1-4.3-2.6-6-4.3c-1.5,1.7-3.5,3.2-6,4.4
						l-0.5-0.9c2.5-1.2,4.5-2.7,6.1-4.4H44.8z M48.3,159.9v1h-3.4v2.4h4v1h-4v2.6h5.3v1H38.6v-1h5.3v-2.6h-4.1v-1h4.1v-2.4h-3.4v-1
						H48.3z"/>
					<path style="fill:#444444;" d="M54.5,162c-0.4,2-0.9,3.8-1.6,5.3l-0.9-0.5c0.7-1.5,1.2-3.1,1.5-4.9L54.5,162z M56.5,155.5v1.5
						h3.7v-1.5h1v1.5h3.2v0.9h-3.2v1.6h-1v-1.6h-3.7v1.5h-1v-1.5h-3.2V157h3.2v-1.5H56.5z M56.9,168.1c-0.9,0-1.3-0.5-1.3-1.4v-5.5
						h1v5.3c0,0.4,0.2,0.7,0.6,0.7h2.9c0.3,0,0.6-0.1,0.7-0.3c0.2-0.3,0.3-1,0.4-2.2l1,0.3c-0.1,1.5-0.3,2.4-0.6,2.7
						c-0.3,0.3-0.7,0.4-1.2,0.4H56.9z M60.8,162.6l-0.7,0.7c-0.7-1-1.7-2.1-2.9-3.3l0.7-0.6C59,160.4,60,161.5,60.8,162.6z
						 M64.8,166.3l-0.9,0.4c-0.6-1.8-1.3-3.5-2.1-4.9l0.9-0.3C63.5,163,64.2,164.6,64.8,166.3z"/>
					<path style="fill:#444444;" d="M69.7,161c0,0.5,0,1-0.1,1.5h6.5v5.9h-1v-4.9h-5.6c-0.3,2.1-1.1,3.7-2.3,4.8l-0.8-0.7
						c1.5-1.4,2.2-3.6,2.2-6.6v-5.1h1v3.3h4.1v-3.7h1v3.7H78v1h-8.3V161z"/>
				</g>
			</g>
		</g>
	</g>
	<g>
		<g>
			<rect x="154.5" y="109.5" style="opacity:0.6;fill:#BBBBBB;enable-background:new    ;" width="98" height="50"/>
			<g>
				<rect x="153" y="108" style="fill:#FFFFFF;" width="97" height="49"/>
				<path style="fill:#E5E5E5;" d="M249.5,108.5v48h-96v-48H249.5 M250.5,107.5h-98v50h98V107.5L250.5,107.5z"/>
			</g>
		</g>
		<g>
			<g transform="translate(20 9)">
				<g style="enable-background:new    ;">
					<path style="fill:#444444;" d="M159.2,110.5v10h-1.1v-10H159.2z"/>
					<path style="fill:#444444;" d="M167,114.2c0.6,0.7,0.9,1.6,0.9,2.7c0,1.1-0.3,2-0.9,2.7c-0.7,0.8-1.5,1.1-2.6,1.1
						c-1.1,0-1.9-0.4-2.6-1.1c-0.6-0.7-0.9-1.6-0.9-2.7c0-1.1,0.3-2,0.9-2.7c0.6-0.8,1.5-1.1,2.6-1.1
						C165.5,113.1,166.4,113.4,167,114.2z M162.6,114.9c-0.4,0.5-0.6,1.2-0.6,2c0,0.8,0.2,1.5,0.6,2c0.4,0.6,1,0.9,1.8,0.9
						c0.8,0,1.4-0.3,1.8-0.9c0.4-0.5,0.6-1.2,0.6-2c0-0.8-0.2-1.5-0.6-2c-0.4-0.6-1.1-0.9-1.8-0.9
						C163.7,114,163.1,114.3,162.6,114.9z"/>
					<path style="fill:#444444;" d="M177,110.5v1h-3.5v9h-1.1v-9h-3.5v-1H177z"/>
					<path style="fill:#444444;" d="M184,110.5v4.3h5.8v-4.3h1.1v10h-1.1v-4.7H184v4.7h-1.1v-10H184z"/>
					<path style="fill:#444444;" d="M193.9,113.3v4.4c0,0.7,0.1,1.2,0.4,1.5c0.3,0.3,0.8,0.5,1.4,0.5c0.5,0,0.9-0.2,1.3-0.6
						c0.4-0.4,0.6-0.9,0.7-1.5v-4.4h1.1v7.2h-1.1v-1.1c-0.6,0.9-1.4,1.3-2.4,1.3c-1.8,0-2.6-1-2.6-3v-4.5H193.9z"/>
					<path style="fill:#444444;" d="M201.8,110.3v4.3c0.6-1,1.4-1.5,2.4-1.5c1,0,1.8,0.4,2.4,1.2c0.5,0.7,0.8,1.6,0.8,2.6
						c0,1.1-0.3,2-0.8,2.7c-0.6,0.8-1.4,1.1-2.5,1.1c-1.1,0-1.9-0.5-2.4-1.4v1.2h-1.1v-10.2H201.8z M202.3,114.8
						c-0.4,0.5-0.6,1.2-0.6,2v0.1c0,0.8,0.2,1.5,0.5,2c0.4,0.6,1,0.8,1.7,0.8c0.8,0,1.4-0.3,1.8-0.9c0.3-0.5,0.5-1.2,0.5-2.1
						c0-0.9-0.2-1.5-0.5-2c-0.4-0.6-1-0.8-1.8-0.8C203.3,114,202.7,114.2,202.3,114.8z"/>
					<path style="fill:#444444;" d="M141.9,131.8l-0.9-0.3c0.5-1.5,0.8-3,0.9-4.7l0.9,0.1c0,0.6-0.1,1.2-0.2,1.8h1v-2.9h1v2.9h1.2v1
						h-1.2v3.4c0.4-0.2,0.8-0.4,1.1-0.6v1c-0.4,0.2-0.7,0.4-1.1,0.6v4.6h-1v-4.2c-0.7,0.3-1.4,0.5-2.2,0.8l-0.2-1
						c0.8-0.2,1.7-0.4,2.4-0.8v-3.8h-1.1C142.3,130.5,142.1,131.1,141.9,131.8z M148.5,126.1c-0.2,0.7-0.3,1.4-0.5,2h5.4
						c0,4.7-0.1,7.6-0.2,8.7c-0.2,1.2-0.9,1.8-2.3,1.8c-0.2,0-0.5,0-1.1,0l-0.2-0.9c0.4,0,0.8,0.1,1.1,0.1c0.9,0,1.3-0.4,1.5-1.3
						c0.1-0.8,0.2-3.2,0.2-7.3h-1c-0.3,2.3-0.7,4.2-1.3,5.5c-0.6,1.5-1.6,2.8-2.9,3.9l-0.6-0.8c1.2-1.1,2-2.2,2.6-3.5
						c0.5-1.3,1-3,1.2-5.2h-1.1c-0.6,3.1-1.6,5.3-3.2,6.7l-0.7-0.8c1.4-1.2,2.4-3.2,3-5.9h-1c-0.4,0.9-0.8,1.6-1.3,2.2l-0.7-0.6
						c0.9-1.1,1.5-2.7,1.9-4.8L148.5,126.1z"/>
					<path style="fill:#444444;" d="M160.7,126.4v0.9h-0.9v7.7c0.3-0.1,0.6-0.2,0.9-0.3v1c-0.3,0.1-0.6,0.2-0.9,0.3v2.8h-1v-2.5
						c-1.1,0.3-2.3,0.5-3.5,0.8l-0.3-1l0.9-0.1v-8.6h-0.9v-0.9H160.7z M158.8,129.4v-2.1H157v2.1H158.8z M158.8,132.3v-2H157v2
						H158.8z M158.8,135.3v-2.1H157v2.5C157.6,135.6,158.2,135.5,158.8,135.3z M164.4,128.9c0.5-0.9,1-1.9,1.4-3l0.9,0.3
						c-0.4,1.1-0.8,1.9-1.3,2.7h2.1v1h-2.9v0.4c0,0.7,0,1.4-0.1,2h3.2v1h-2.9c0.3,1.5,1.4,3.1,3.1,4.7l-0.7,0.7
						c-1.6-1.6-2.6-3.2-3-4.7c-0.5,2.2-1.6,3.8-3.2,4.8l-0.6-0.8c1.6-1,2.6-2.5,3-4.7h-2.7v-1h2.8c0.1-0.6,0.1-1.1,0.1-1.8v-0.6
						h-2.7v-1H164.4z M163.6,128.1l-0.8,0.5c-0.3-0.7-0.8-1.4-1.3-2.2l0.8-0.5C162.9,126.8,163.3,127.5,163.6,128.1z"/>
					<path style="fill:#444444;" d="M178.4,138.6l-0.3-1l1.3,0c0.4,0,0.6-0.2,0.6-0.6v-9.7h-9.2v11.3h-1v-12.2h11.2v10.9
						c0,0.9-0.4,1.3-1.2,1.3H178.4z M173.8,133.5c-0.5,1.4-1.1,2.5-1.8,3.5l-0.6-0.8c0.7-1,1.3-2.3,1.8-3.7c-0.7-0.9-1.3-1.7-2-2.5
						l0.6-0.6c0.5,0.5,1.1,1.2,1.7,2c0.3-1,0.5-2,0.7-3.2l0.9,0.2c-0.2,1.4-0.5,2.8-0.9,4c0.5,0.7,1.1,1.5,1.7,2.4l-0.7,0.7
						C174.6,134.8,174.2,134.1,173.8,133.5z M177.8,133.8c-0.6,1.4-1.2,2.5-2,3.5l-0.6-0.8c0.8-1.1,1.4-2.3,2-3.7
						c-0.6-1-1.3-1.8-1.9-2.6l0.6-0.6c0.5,0.6,1.1,1.3,1.7,2.1c0.3-1.1,0.5-2.2,0.7-3.4l1,0.2c-0.3,1.6-0.6,3-1,4.2
						c0.5,0.8,1.1,1.7,1.7,2.7l-0.7,0.7C178.7,135.3,178.2,134.6,177.8,133.8z"/>
					<path style="fill:#444444;" d="M195.8,130.6v1h-6.7c-1.3,2.6-2.4,4.5-3.4,5.5c2.5-0.1,5-0.4,7.5-0.7c-0.5-0.9-1.1-1.8-1.7-2.8
						l0.8-0.5c1.3,1.9,2.3,3.6,3,5.1l-0.9,0.6c-0.2-0.5-0.5-1-0.7-1.5c-2.8,0.4-5.9,0.6-9.3,0.9l-0.3-1c0.1,0,0.2-0.1,0.2-0.1
						c0.9-0.7,2.1-2.5,3.6-5.5h-4.7v-1H195.8z M194.6,126.7v1h-10v-1H194.6z"/>
					<path style="fill:#444444;" d="M209.2,126.5v1H204v5.3h5.7v1H204v5h-1v-5h-5.6v-1h5.6v-5.3h-5.1v-1H209.2z M201.1,131.6
						l-0.9,0.5c-0.5-1.2-1-2.3-1.5-3.2l0.9-0.5C200.1,129.3,200.6,130.4,201.1,131.6z M208.4,128.7c-0.4,1.1-1,2.2-1.7,3.2l-0.9-0.5
						c0.7-1.1,1.2-2.2,1.6-3.2L208.4,128.7z"/>
					<path style="fill:#444444;" d="M211.6,130.5c1.2-0.4,2.8-2,4.6-4.7l1,0.4c-1.3,1.8-2.5,3.2-3.8,4.3c2.7-0.1,5.2-0.3,7.6-0.5
						c-0.5-0.8-1.1-1.5-1.6-2.1l0.9-0.4c1.2,1.4,2.3,3,3.4,4.7l-1,0.5c-0.4-0.6-0.7-1.1-1-1.7c-3,0.3-6.2,0.5-9.9,0.6L211.6,130.5z
						 M222.2,138.7h-1V138h-7.3v0.7h-1v-5.8h9.4V138.7z M221.2,137v-3.2h-7.3v3.2H221.2z"/>
				</g>
			</g>
		</g>
	</g>
	<g>
		<g>
			<rect x="282.5" y="109.5" style="opacity:0.6;fill:#BBBBBB;enable-background:new    ;" width="98" height="50"/>
			<g>
				<rect x="281" y="108" style="fill:#FFFFFF;" width="97" height="49"/>
				<path style="fill:#E5E5E5;" d="M377.5,108.5v48h-96v-48H377.5 M378.5,107.5h-98v50h98V107.5L378.5,107.5z"/>
			</g>
		</g>
		<g>
			<g transform="translate(20 9)">
				<g style="enable-background:new    ;">
					<path style="fill:#444444;" d="M284,112.3l-0.6-0.8c0.7-0.6,1.2-1.5,1.7-2.6l0.9,0.2c-0.1,0.3-0.3,0.6-0.4,0.9h4v0.9h-2.1
						c0,0.5-0.1,0.9-0.1,1.4h2.6v0.9h-2.8c0,0.1-0.1,0.3-0.1,0.4c1.1,0.5,2,1.1,2.7,1.6L289,116c-0.6-0.5-1.3-1.1-2.3-1.6
						c-0.6,1-1.5,1.8-2.9,2.4l-0.7-0.8c1.5-0.6,2.4-1.4,2.9-2.4l0.1-0.3h-2.8v-0.9h3.1c0.1-0.4,0.1-0.9,0.2-1.4h-1.4
						C284.8,111.5,284.4,111.9,284,112.3z M294.2,121.9h-1v-0.6h-6.9v0.6h-1v-5.8h9V121.9z M293.2,118.3V117h-6.9v1.3H293.2z
						 M293.2,120.4v-1.2h-6.9v1.2H293.2z M295.2,110v5.1h-4.6V110H295.2z M294.2,110.9h-2.6v3.3h2.6V110.9z"/>
					<path style="fill:#444444;" d="M304.2,113l-0.8,0.6c-0.2-0.3-0.3-0.6-0.5-0.9c-1.5,0.2-3.3,0.4-5.4,0.5l-0.3-0.8
						c0.2-0.1,0.3-0.2,0.5-0.3c0.9-0.9,1.6-1.9,2.2-3l1,0.3c-0.6,1.2-1.3,2.2-2.1,2.9c1.2-0.1,2.4-0.2,3.7-0.4
						c-0.3-0.4-0.6-0.9-1-1.4l0.8-0.5C303,111.2,303.7,112.2,304.2,113z M299,121.9h-1V114h5.2v6.6c0,0.8-0.4,1.2-1.2,1.2h-1.1
						l-0.3-1l1.1,0c0.4,0,0.5-0.2,0.5-0.5v-1.1H299V121.9z M302.2,114.9H299v1.4h3.2V114.9z M299,118.4h3.2v-1.3H299V118.4z
						 M305.8,115.2c-0.9,0-1.3-0.5-1.3-1.4v-4.7h1v1.8c1.5-0.2,2.8-0.5,3.8-0.7l0.3,0.9c-1.2,0.3-2.5,0.6-4.1,0.8v1.8
						c0,0.4,0.2,0.7,0.6,0.7h1.8c0.3,0,0.5-0.1,0.6-0.2c0.1-0.2,0.2-0.7,0.3-1.6l0.9,0.3c-0.1,1.1-0.3,1.8-0.5,2.1
						c-0.2,0.2-0.6,0.3-1.1,0.3H305.8z M305.5,120.3c0,0.3,0.2,0.4,0.5,0.4h1.9c0.3,0,0.5-0.1,0.6-0.2c0.2-0.2,0.3-0.7,0.3-1.6
						l0.9,0.3c-0.1,1.1-0.3,1.8-0.5,2.1c-0.2,0.2-0.6,0.3-1.1,0.3h-2.4c-0.8,0-1.2-0.4-1.2-1.1v-4.9h1v1.7c1.4-0.1,2.6-0.4,3.8-0.7
						l0.3,0.9c-1.3,0.4-2.6,0.6-4.1,0.7V120.3z"/>
					<path style="fill:#444444;" d="M312.9,111.4v10.5h-1v-10.5H312.9z M315.7,111.5l-0.9,0.5c-0.5-1-1.1-1.8-1.8-2.6l0.9-0.4
						C314.6,109.7,315.2,110.5,315.7,111.5z M320.5,121.8l-0.3-0.9l1.2,0c0.4,0,0.6-0.3,0.6-0.8v-9.4h-5.4v-0.9h6.4v10.6
						c0,1-0.5,1.4-1.4,1.4H320.5z"/>
					<path style="fill:#444444;" d="M327.8,109.3c-0.1,0.5-0.2,0.9-0.4,1.4h2.5v1h-2.8c-0.4,1-0.8,1.8-1.2,2.6l-0.8-0.5
						c0.8-1.4,1.4-2.9,1.8-4.6L327.8,109.3z M329.6,113.5v0.9h-1.4v1.7h1.8v0.9h-1.8v3.3c0.6-0.2,1.2-0.5,1.8-0.9l0.2,0.9
						c-0.9,0.5-1.8,0.9-3,1.3l-0.4-0.9c0.3-0.1,0.4-0.3,0.4-0.5V117h-1.8v-0.9h1.8v-1.7h-0.8v-0.9H329.6z M334.6,114.5v1.5
						c0,1.6-0.4,2.8-1,3.8c-0.6,0.9-1.5,1.6-2.9,2l-0.5-0.9c1.3-0.5,2.1-1.1,2.6-1.8c0.5-0.8,0.7-1.8,0.7-3.1v-1.5H334.6z
						 M332.8,111.8l-0.8,0.4c-0.4-0.9-0.9-1.7-1.3-2.3l0.9-0.4C331.9,110.2,332.4,111,332.8,111.8z M334.6,109v3.8h2.7v6h-1v-5.1
						h-4.4v5.2h-1v-6.1h2.7V109H334.6z M338,121.1l-0.6,0.9c-1-1-2-1.8-3-2.4l0.5-0.8C336.1,119.4,337.1,120.2,338,121.1z
						 M337.7,109.7c-0.3,0.9-0.8,1.7-1.3,2.5l-0.8-0.4c0.6-0.8,1-1.7,1.3-2.5L337.7,109.7z"/>
					<path style="fill:#444444;" d="M276.6,127.2h5.1v1h-10.4v3.1c-0.1,3.1-0.5,5.5-1.4,7.4l-0.8-0.7c0.8-1.6,1.2-3.8,1.2-6.7v-4.1
						h5.2c-0.2-0.4-0.5-0.9-0.8-1.3l1.1-0.2C276.1,126.2,276.4,126.7,276.6,127.2z M277.5,137.1c0.9-2,1.6-4.4,2.3-7.4l1,0.3
						c-0.6,2.7-1.3,5-2.2,7.1h3v1h-9.9v-1H277.5z M274.7,135.6l-1,0.2c-0.4-1.8-0.9-3.5-1.4-5.1l0.9-0.3
						C273.7,131.9,274.2,133.6,274.7,135.6z M277.2,134.7l-1,0.2c-0.3-1.8-0.7-3.6-1.2-5.3l0.9-0.3
						C276.3,131,276.8,132.7,277.2,134.7z"/>
					<path style="fill:#444444;" d="M283.9,138.6l-0.8-0.7c0.9-1.2,1.4-2.8,1.4-4.7v-6.7h10.4v10.5c0,1-0.5,1.5-1.5,1.5h-1.6l-0.3-1
						c0.6,0,1.1,0.1,1.6,0.1c0.5,0,0.8-0.3,0.8-0.9v-2.4h-3.8v4.1h-1v-4.1h-3.6C285.3,135.9,284.8,137.4,283.9,138.6z M285.5,127.4
						v2.4h3.6v-2.4H285.5z M285.5,133.2h3.6v-2.5h-3.6V133.2z M293.9,127.4h-3.8v2.4h3.8V127.4z M293.9,130.7h-3.8v2.5h3.8V130.7z"
						/>
					<path style="fill:#444444;" d="M298.1,129.3l-0.9-0.6c0.8-0.9,1.5-1.8,1.8-2.9l1,0.2c-0.1,0.3-0.2,0.6-0.4,0.9h3.8v0.9h-2.4
						c0.3,0.4,0.6,0.8,0.8,1.2l-0.9,0.4c-0.3-0.5-0.6-1.1-0.9-1.6h-0.8C298.9,128.3,298.5,128.8,298.1,129.3z M309.4,132.2h-1v-1.7
						h-9.9v1.7h-1v-2.5h5.5c-0.1-0.3-0.3-0.6-0.4-0.9l1-0.2l-0.1-0.1c0.7-0.8,1.1-1.8,1.5-2.8l1,0.2c-0.1,0.3-0.2,0.6-0.3,0.9h4v0.9
						h-2.5c0.3,0.4,0.5,0.8,0.7,1.1l-0.9,0.3c-0.3-0.5-0.5-1-0.9-1.4h-0.9c-0.3,0.5-0.5,0.9-0.9,1.3l-0.8-0.5
						c0.2,0.3,0.3,0.7,0.4,1.1h5.3V132.2z M307.5,134.1h-7v1h7.6v3.6h-1v-0.6h-6.6v0.6h-1v-7.3h8V134.1z M306.5,133.3v-1.1h-6v1.1
						H306.5z M307.2,137.2v-1.3h-6.6v1.3H307.2z"/>
					<path style="fill:#444444;" d="M312.9,131v-3.3h-1.7v-1h4.5v1h-1.7v3.3h1.5v1h-1.5v3.2c0.5-0.2,1-0.4,1.5-0.6v1
						c-1.3,0.5-2.7,1-4.2,1.3l-0.3-1c0.6-0.1,1.2-0.3,1.8-0.4V132h-1.5v-1H312.9z M323.2,126.4v6.5h-2.9v1.7h3.2v1h-3.2v1.8h3.7v1
						h-8.4v-1h3.8v-1.8h-3.2v-1h3.2v-1.7h-2.9v-6.5H323.2z M319.3,129.2v-1.9h-2v1.9H319.3z M319.3,130.1h-2v1.9h2V130.1z
						 M320.3,129.2h1.9v-1.9h-1.9V129.2z M322.2,130.1h-1.9v1.9h1.9V130.1z"/>
					<path style="fill:#444444;" d="M337.2,126.5v1H332v5.3h5.7v1H332v5h-1v-5h-5.6v-1h5.6v-5.3h-5.1v-1H337.2z M329.1,131.6
						l-0.9,0.5c-0.5-1.2-1-2.3-1.5-3.2l0.9-0.5C328.1,129.3,328.6,130.4,329.1,131.6z M336.4,128.7c-0.4,1.1-1,2.2-1.7,3.2l-0.9-0.5
						c0.7-1.1,1.2-2.2,1.6-3.2L336.4,128.7z"/>
					<path style="fill:#444444;" d="M339.6,130.5c1.2-0.4,2.8-2,4.6-4.7l1,0.4c-1.3,1.8-2.5,3.2-3.8,4.3c2.7-0.1,5.2-0.3,7.6-0.5
						c-0.5-0.8-1.1-1.5-1.6-2.1l0.9-0.4c1.2,1.4,2.3,3,3.4,4.7l-1,0.5c-0.4-0.6-0.7-1.1-1-1.7c-3,0.3-6.2,0.5-9.9,0.6L339.6,130.5z
						 M350.2,138.7h-1V138h-7.3v0.7h-1v-5.8h9.4V138.7z M349.2,137v-3.2h-7.3v3.2H349.2z"/>
				</g>
			</g>
		</g>
	</g>
	<g>
		<g transform="translate(20 9)">
			<g style="enable-background:new    ;">
				<path style="fill:#444444;" d="M-6,37.3l-0.6-0.8C-6,35.9-5.4,35.1-5,34l0.9,0.2c-0.1,0.3-0.3,0.6-0.4,0.9h4V36h-2.1
					c0,0.5-0.1,0.9-0.1,1.4H0v0.9h-2.8c0,0.1-0.1,0.3-0.1,0.4c1.1,0.5,2,1.1,2.7,1.6L-1,41c-0.6-0.5-1.3-1.1-2.3-1.6
					c-0.6,1-1.5,1.8-2.9,2.4L-6.9,41c1.5-0.6,2.4-1.4,2.9-2.4l0.1-0.3h-2.8v-0.9h3.1c0.1-0.4,0.1-0.9,0.2-1.4h-1.4
					C-5.2,36.5-5.6,36.9-6,37.3z M4.2,46.9h-1v-0.6h-6.9v0.6h-1v-5.8h9V46.9z M3.2,43.3V42h-6.9v1.3H3.2z M3.2,45.4v-1.2h-6.9v1.2
					H3.2z M5.2,35v5.1H0.6V35H5.2z M4.2,35.9H1.5v3.3h2.6V35.9z"/>
				<path style="fill:#444444;" d="M14.2,38l-0.8,0.6c-0.2-0.3-0.3-0.6-0.5-0.9c-1.5,0.2-3.3,0.4-5.4,0.5l-0.3-0.8
					c0.2-0.1,0.3-0.2,0.5-0.3c0.9-0.9,1.6-1.9,2.2-3l1,0.3c-0.6,1.2-1.3,2.2-2.1,2.9c1.2-0.1,2.4-0.2,3.7-0.4
					c-0.3-0.4-0.6-0.9-1-1.4l0.8-0.5C13,36.2,13.7,37.2,14.2,38z M9,46.9H8V39h5.2v6.6c0,0.8-0.4,1.2-1.2,1.2h-1.1l-0.3-1l1.1,0
					c0.4,0,0.5-0.2,0.5-0.5v-1.1H9V46.9z M12.2,39.9H9v1.4h3.2V39.9z M9,43.4h3.2v-1.3H9V43.4z M15.8,40.2c-0.9,0-1.3-0.5-1.3-1.4
					v-4.7h1v1.8c1.5-0.2,2.8-0.5,3.8-0.7l0.3,0.9c-1.2,0.3-2.5,0.6-4.1,0.8v1.8c0,0.4,0.2,0.7,0.6,0.7h1.8c0.3,0,0.5-0.1,0.6-0.2
					c0.1-0.2,0.2-0.7,0.3-1.6l0.9,0.3c-0.1,1.1-0.3,1.8-0.5,2.1c-0.2,0.2-0.6,0.3-1.1,0.3H15.8z M15.5,45.3c0,0.3,0.2,0.4,0.5,0.4
					H18c0.3,0,0.5-0.1,0.6-0.2c0.2-0.2,0.3-0.7,0.3-1.6l0.9,0.3c-0.1,1.1-0.3,1.8-0.5,2.1c-0.2,0.2-0.6,0.3-1.1,0.3h-2.4
					c-0.8,0-1.2-0.4-1.2-1.1v-4.9h1v1.7c1.4-0.1,2.6-0.4,3.8-0.7l0.3,0.9c-1.3,0.4-2.6,0.6-4.1,0.7V45.3z"/>
				<path style="fill:#444444;" d="M22.9,36.4v10.5h-1V36.4H22.9z M25.7,36.5l-0.9,0.5c-0.5-1-1.1-1.8-1.8-2.6l0.9-0.4
					C24.6,34.7,25.2,35.5,25.7,36.5z M30.5,46.8l-0.3-0.9l1.2,0c0.4,0,0.6-0.3,0.6-0.8v-9.4h-5.4v-0.9h6.4v10.6c0,1-0.5,1.4-1.4,1.4
					H30.5z"/>
				<path style="fill:#444444;" d="M37.8,34.3c-0.1,0.5-0.2,0.9-0.4,1.4h2.5v1h-2.8c-0.4,1-0.8,1.8-1.2,2.6L35,38.7
					c0.8-1.4,1.4-2.9,1.8-4.6L37.8,34.3z M39.6,38.5v0.9h-1.4v1.7h1.8v0.9h-1.8v3.3c0.6-0.2,1.2-0.5,1.8-0.9l0.2,0.9
					c-0.9,0.5-1.8,0.9-3,1.3l-0.4-0.9c0.3-0.1,0.4-0.3,0.4-0.5v-3.2h-1.8v-0.9h1.8v-1.7h-0.8v-0.9H39.6z M44.6,39.5v1.5
					c0,1.6-0.4,2.8-1,3.8c-0.6,0.9-1.5,1.6-2.9,2L40.2,46c1.3-0.5,2.1-1.1,2.6-1.8c0.5-0.8,0.7-1.8,0.7-3.1v-1.5H44.6z M42.8,36.8
					l-0.8,0.4c-0.4-0.9-0.9-1.7-1.3-2.3l0.9-0.4C41.9,35.2,42.4,36,42.8,36.8z M44.6,34v3.8h2.7v6h-1v-5.1h-4.4v5.2h-1v-6.1h2.7V34
					H44.6z M48,46.1L47.5,47c-1-1-2-1.8-3-2.4l0.5-0.8C46.1,44.4,47.1,45.2,48,46.1z M47.7,34.7c-0.3,0.9-0.8,1.7-1.3,2.5l-0.8-0.4
					c0.6-0.8,1-1.7,1.3-2.5L47.7,34.7z"/>
			</g>
		</g>
	</g>
	<g>
		<g transform="translate(20 9)">
			<g style="enable-background:new    ;">
				<path style="fill:#444444;" d="M402.9,23.9l-0.7-0.7c0.4-1.3,0.7-2.9,0.7-4.8v-6.8h3.6v11.1c0,0.7-0.4,1.1-1.1,1.1h-1l-0.2-0.9
					c0.3,0,0.6,0,0.9,0c0.3,0,0.5-0.2,0.5-0.6v-3.2h-1.7C403.7,21.1,403.4,22.6,402.9,23.9z M405.5,12.6h-1.7V15h1.7V12.6z
					 M403.8,18.2h1.7v-2.3h-1.7V18.2z M408.4,13c-0.2-0.5-0.4-0.9-0.7-1.3l0.9-0.3c0.3,0.4,0.5,1,0.7,1.6h0.7c0.2-0.6,0.3-1.3,0.4-2
					l1,0.1c-0.1,0.7-0.2,1.3-0.4,1.9h1.1c0.3-0.5,0.6-1.1,0.8-1.7l0.9,0.3c-0.3,0.5-0.5,1-0.8,1.4h1.2v0.8h-3.5
					c-0.1,0.4-0.3,0.8-0.5,1.1h4.4v0.9h-2.2c0.6,0.7,1.4,1.3,2.6,1.7l-0.4,0.9c-0.6-0.3-1.1-0.6-1.6-0.9v0.1c-0.1,0.8-0.2,1.5-0.3,2
					h1.5c0,2.3-0.2,3.6-0.5,3.9c-0.3,0.3-0.8,0.4-1.7,0.4h-0.6L411,23c0.3,0,0.6,0,0.9,0c0.5,0,0.8-0.1,1-0.2c0.2-0.2,0.3-1,0.3-2.4
					H408c0.3-0.8,0.5-1.5,0.6-2.1l0.9,0.1c-0.1,0.4-0.2,0.8-0.3,1.2h2.6c0.1-0.5,0.3-1,0.3-1.7h-3.7v-0.5c-0.4,0.4-0.9,0.7-1.4,1
					l-0.5-0.8c0.9-0.5,1.6-1.1,2.2-1.8h-1.7V15h2.3c0.2-0.4,0.4-0.7,0.5-1.1h-2.4V13H408.4z M412.1,21.3v0.9h-5v-0.9H412.1z
					 M412.6,17.1c-0.5-0.4-0.8-0.9-1.1-1.3h-1.8c-0.3,0.5-0.7,0.9-1.1,1.3H412.6z"/>
				<path style="fill:#444444;" d="M419,15.3v6.2c0.4-0.4,0.9-0.8,1.4-1.4l0.3,1.1c-0.8,0.8-1.7,1.5-2.6,2.2l-0.4-0.9
					c0.2-0.2,0.3-0.4,0.3-0.6v-5.5h-1.9v-1H419z M420,13.4l-0.7,0.7c-0.6-0.7-1.3-1.4-2.3-2.2l0.7-0.7
					C418.6,11.9,419.4,12.6,420,13.4z M422.4,16.5v-3.8h-1.9v-1h6.4V16c0,2.8,0.2,4.7,0.6,5.9c0.2,0.4,0.3,0.7,0.5,0.7
					c0.1,0,0.1-0.2,0.2-0.5c0-0.4,0.1-1,0.1-1.7l0.8,0.4c-0.1,1.3-0.2,2.2-0.3,2.6c-0.1,0.3-0.3,0.4-0.5,0.4c-0.5,0-1-0.3-1.4-1
					c-0.7-1.2-1-3.4-1-6.7v-3.3h-2.6v3.8h1.9v1h-1.9v6.4h-1v-6.4h-2.1v-1H422.4z"/>
				<path style="fill:#444444;" d="M437.9,12.5v1h-3.5v9h-1.1v-9h-3.5v-1H437.9z"/>
				<path style="fill:#444444;" d="M440.4,12.5v10h-1.1v-10H440.4z"/>
				<path style="fill:#444444;" d="M446.1,12.5c1.6,0,2.8,0.4,3.6,1.4c0.7,0.8,1.1,2.1,1.1,3.6c0,1.5-0.4,2.8-1.2,3.6
					c-0.8,0.9-2,1.4-3.6,1.4h-3.5v-10H446.1z M443.6,21.5h2.1c1.3,0,2.3-0.4,2.9-1c0.6-0.7,0.9-1.7,0.9-3c0-1.3-0.3-2.3-0.9-3
					c-0.6-0.7-1.6-1-2.9-1h-2.3V21.5z"/>
				<path style="fill:#444444;" d="M452.9,23.9l-0.8-0.7c0.6-1.3,0.8-2.9,0.9-4.8v-6.7h4.1v10.9c0,0.8-0.4,1.3-1.2,1.3h-1.1
					l-0.2-0.9c0.4,0,0.7,0.1,1.1,0.1c0.4,0,0.5-0.3,0.5-0.8v-3.2h-2.3C453.8,21.1,453.5,22.7,452.9,23.9z M456.2,12.6h-2.3v2.4h2.3
					V12.6z M453.9,18.2h2.3v-2.3h-2.3V18.2z M459.2,23.9h-1V11.6h5.7c0,1.7-0.1,2.9-0.3,3.4c-0.2,0.6-0.7,0.9-1.6,0.9H461l-0.3-0.9
					c0.2,0,0.5,0,0.9,0c0.3,0,0.6,0,0.7-0.1c0.2-0.1,0.3-0.2,0.4-0.4c0.1-0.3,0.2-1,0.2-2.1h-3.7v4.2h4.8v0.9
					c-0.3,1.4-0.7,2.7-1.4,3.7c0.6,0.6,1.4,1.2,2.2,1.7l-0.5,0.9c-0.9-0.5-1.7-1.1-2.3-1.7c-0.6,0.7-1.3,1.3-2.2,1.7l-0.5-0.8
					c0.8-0.4,1.5-1,2-1.7c-0.9-1.1-1.5-2.3-1.8-3.7h-0.3V23.9z M461.9,20.6c0.5-0.8,0.9-1.8,1.1-2.9h-2.7
					C460.7,18.8,461.2,19.8,461.9,20.6z"/>
				<path style="fill:#444444;" d="M471.2,11.2c-0.2,0.4-0.3,0.7-0.5,1.1h6.1V13c-0.9,1-2,1.9-3.3,2.6c1.6,0.7,3.3,1.1,5.3,1.3
					l-0.5,0.9c-2.2-0.3-4.2-0.8-5.9-1.7c-1.7,0.8-3.7,1.4-6,1.7l-0.5-1c2-0.3,3.8-0.7,5.4-1.3c-0.8-0.5-1.5-1-2.2-1.6
					c-0.5,0.5-1.1,0.9-1.8,1.3l-0.6-0.8c1.7-1,2.8-2.1,3.4-3.5L471.2,11.2z M472.5,17.2c0,0.6-0.1,1.1-0.1,1.6h4.9
					c0,2.4-0.2,3.8-0.6,4.2c-0.4,0.5-1.1,0.7-2.1,0.7c-0.4,0-1,0-1.6-0.1l-0.3-0.9l1.7,0.1c0.8,0,1.4-0.2,1.6-0.5
					c0.2-0.3,0.3-1.2,0.4-2.6h-4.1c-0.1,0.4-0.3,0.7-0.4,1c-0.7,1.3-2.4,2.3-4.9,3.1l-0.7-0.8c2.3-0.7,3.8-1.5,4.6-2.5
					c0.2-0.3,0.3-0.5,0.4-0.8h-4.2v-0.9h4.5c0.1-0.5,0.2-1,0.2-1.6H472.5z M475.3,13.2H470l-0.2,0.2c0.8,0.7,1.7,1.3,2.6,1.8
					C473.5,14.6,474.5,13.9,475.3,13.2z"/>
				<path style="fill:#444444;" d="M492,11.7v1h-5.2V18h5.7v1h-5.7v5h-1v-5h-5.6v-1h5.6v-5.3h-5.1v-1H492z M483.9,16.8l-0.9,0.5
					c-0.5-1.2-1-2.3-1.5-3.2l0.9-0.5C483,14.5,483.5,15.6,483.9,16.8z M491.3,13.9c-0.4,1.1-1,2.2-1.7,3.2l-0.9-0.5
					c0.7-1.1,1.2-2.2,1.6-3.2L491.3,13.9z"/>
				<path style="fill:#444444;" d="M494.5,15.7c1.2-0.4,2.8-2,4.6-4.7l1,0.4c-1.3,1.8-2.5,3.2-3.8,4.3c2.7-0.1,5.2-0.3,7.6-0.5
					c-0.5-0.8-1.1-1.5-1.6-2.1l0.9-0.4c1.2,1.4,2.3,3,3.4,4.7l-1,0.5c-0.4-0.6-0.7-1.1-1-1.7c-3,0.3-6.2,0.5-9.9,0.6L494.5,15.7z
					 M505,23.9h-1v-0.7h-7.3v0.7h-1v-5.8h9.4V23.9z M504,22.2V19h-7.3v3.2H504z"/>
			</g>
		</g>
	</g>
	<rect x="557.5" y="46.5" style="fill:#CEE3FF;" width="124" height="167"/>
	<g>
		<g>
			<rect x="571.5" y="87.5" style="opacity:0.6;fill:#BBBBBB;enable-background:new    ;" width="98" height="50"/>
			<g>
				<rect x="570" y="86" style="fill:#FFFFFF;" width="97" height="49"/>
				<path style="fill:#E5E5E5;" d="M666.5,86.5v48h-96v-48H666.5 M667.5,85.5h-98v50h98V85.5L667.5,85.5z"/>
			</g>
		</g>
		<g>
			<g transform="translate(20 9)">
				<g style="enable-background:new    ;">
					<path style="fill:#444444;" d="M582.1,98.7c-1.3,1.6-3,2.9-5,3.9c0.1,0.1,0.2,0.1,0.4,0.1h2.7c0.3,0,0.6-0.1,0.7-0.2
						c0.2-0.2,0.3-0.7,0.4-1.5l1,0.3c-0.1,1.1-0.3,1.8-0.6,2c-0.3,0.2-0.7,0.3-1.2,0.3h-3.2c-0.5,0-0.9-0.2-1.1-0.5
						c-1.1,0.5-2.3,0.9-3.6,1.3l-0.4-0.9c1.4-0.4,2.7-0.8,3.8-1.3v-2.8h1v2.4c1.8-1,3.3-2.2,4.5-3.6L582.1,98.7z M584.4,99.5h-1
						v-1.9h-9.7v1.9h-1v-2.9h5.4c-0.2-0.4-0.3-0.7-0.5-1l1.1-0.2c0.2,0.3,0.3,0.8,0.4,1.2h5.3V99.5z M575.5,99
						c-0.4,1.3-1,2.4-1.8,3.3l-0.8-0.5c0.8-0.9,1.4-1.9,1.7-3L575.5,99z M579,104v2.7h3.5v-2.4h1v4h-1v-0.6h-7.9v0.6h-1v-3.8h1v2.3
						h3.4V104H579z M579.3,99.5l-0.7,0.5c-0.4-0.5-0.9-1.1-1.5-1.7l0.7-0.5C578.5,98.4,579,99,579.3,99.5z M584.8,102.4l-0.8,0.6
						c-0.6-0.9-1.3-1.9-2.1-2.9l0.7-0.5C583.6,100.6,584.3,101.6,584.8,102.4z"/>
					<path style="fill:#444444;" d="M589,95.7c-0.1,0.5-0.3,0.9-0.4,1.4h3V98h-3.4c-0.4,1-0.9,1.8-1.4,2.6l-0.8-0.5
						c0.9-1.4,1.6-2.9,2-4.6L589,95.7z M591.5,99.9v0.9h-1.8v1.7h2.2v0.9h-2.2v3.3c0.6-0.2,1.2-0.5,1.8-0.9l0.2,0.9
						c-0.9,0.5-1.8,0.8-3,1.1l-0.4-0.9c0.3-0.1,0.4-0.2,0.4-0.4v-3.2h-2.2v-0.9h2.2v-1.7h-1.1v-0.9H591.5z M592.1,108.3l-0.8-0.7
						c0.9-1.4,1.4-3.2,1.4-5.4V96h5.6v11c0,0.7-0.4,1.1-1.1,1.1h-1.6l-0.3-1c0.6,0,1.1,0.1,1.6,0.1c0.3,0,0.5-0.2,0.5-0.5v-2.9h-3.7
						C593.4,105.6,592.9,107.1,592.1,108.3z M593.7,102.1c0,0.3,0,0.5,0,0.7h3.6v-2.5h-3.6V102.1z M597.4,97h-3.6v2.4h3.6V97z"/>
					<path style="fill:#444444;" d="M601.1,98.9l-0.9-0.6c0.8-0.9,1.5-1.8,1.8-2.9l1,0.2c-0.1,0.3-0.2,0.6-0.4,0.9h3.8v0.9h-2.4
						c0.3,0.4,0.6,0.8,0.8,1.2l-0.9,0.4c-0.3-0.5-0.6-1.1-0.9-1.6h-0.8C601.9,97.9,601.5,98.4,601.1,98.9z M612.4,101.8h-1v-1.7
						h-9.9v1.7h-1v-2.5h5.5c-0.1-0.3-0.3-0.6-0.4-0.9l1-0.2l-0.1-0.1c0.7-0.8,1.1-1.8,1.5-2.8l1,0.2c-0.1,0.3-0.2,0.6-0.3,0.9h4v0.9
						h-2.5c0.3,0.4,0.5,0.8,0.7,1.1l-0.9,0.3c-0.3-0.5-0.5-1-0.9-1.4h-0.9c-0.3,0.5-0.5,0.9-0.9,1.3l-0.8-0.5
						c0.2,0.3,0.3,0.7,0.4,1.1h5.3V101.8z M610.5,103.7h-7v1h7.6v3.6h-1v-0.6h-6.6v0.6h-1V101h8V103.7z M609.5,102.9v-1.1h-6v1.1
						H609.5z M610.2,106.8v-1.3h-6.6v1.3H610.2z"/>
					<path style="fill:#444444;" d="M615.9,100.6v-3.3h-1.7v-1h4.5v1h-1.7v3.3h1.5v1h-1.5v3.2c0.5-0.2,1-0.4,1.5-0.6v1
						c-1.3,0.5-2.7,1-4.2,1.3l-0.3-1c0.6-0.1,1.2-0.3,1.8-0.4v-3.5h-1.5v-1H615.9z M626.2,96v6.5h-2.9v1.7h3.2v1h-3.2v1.8h3.7v1
						h-8.4v-1h3.8v-1.8h-3.2v-1h3.2v-1.7h-2.9V96H626.2z M622.3,98.8v-1.9h-2v1.9H622.3z M622.3,99.7h-2v1.9h2V99.7z M623.3,98.8
						h1.9v-1.9h-1.9V98.8z M625.2,99.7h-1.9v1.9h1.9V99.7z"/>
				</g>
			</g>
		</g>
	</g>
	<g>
		<g>
			<rect x="571.5" y="151.5" style="opacity:0.6;fill:#BBBBBB;enable-background:new    ;" width="98" height="50"/>
			<g>
				<rect x="570" y="150" style="fill:#FFFFFF;" width="97" height="49"/>
				<path style="fill:#E5E5E5;" d="M666.5,150.5v48h-96v-48H666.5 M667.5,149.5h-98v50h98V149.5L667.5,149.5z"/>
			</g>
		</g>
		<g>
			<g transform="translate(20 9)">
				<g style="enable-background:new    ;">
					<path style="fill:#444444;" d="M583.3,166.6v1H579v3.3h5.5v1h-11.9v-1h5.4v-3.3h-4.3v-1H583.3z M579.1,160.8h5.4v2.8h-1v-1.9
						h-9.8v1.9h-1v-2.8h5.5c-0.2-0.5-0.4-0.9-0.6-1.3l1.1-0.2C578.7,159.8,578.9,160.3,579.1,160.8z M577.5,163.5
						c-1.1,1-2.5,1.8-4.1,2.5L573,165c1.6-0.6,2.9-1.3,3.9-2.3L577.5,163.5z M583.8,165.1l-0.6,0.9c-1.3-1.1-2.6-1.9-4-2.5l0.5-0.8
						C581.3,163.3,582.6,164.2,583.8,165.1z"/>
					<path style="fill:#444444;" d="M593,159.4v2.5h5v6.6h-1v-0.9h-4v4.8h-1v-4.8h-4v0.9h-1v-6.6h5v-2.5H593z M592,166.6v-3.7h-4
						v3.7H592z M597,166.6v-3.7h-4v3.7H597z"/>
					<path style="fill:#444444;" d="M602.2,159.9l1,0.2l-0.8,2.8h2.5c0.3-1.1,0.5-2.2,0.7-3.4l1,0.1c-0.2,1.2-0.4,2.3-0.7,3.3h6.6v1
						h-6.8c-0.2,0.6-0.3,1.1-0.5,1.6h5.7v0.9c-0.4,1.2-1.1,2.3-2.3,3.3c1.1,0.7,2.5,1.3,4.1,1.8l-0.5,0.9c-1.8-0.7-3.3-1.4-4.5-2.1
						c-1.1,0.8-2.6,1.5-4.3,2.2l-0.5-0.9c1.6-0.6,2.9-1.2,3.9-1.9c-1.1-0.8-1.9-1.8-2.3-2.7c-1,2.2-2.3,4-3.9,5.3l-0.5-0.9
						c2-1.8,3.5-4.2,4.5-7.4h-3.5L602.2,159.9z M607.7,168.9c1-0.8,1.8-1.7,2.1-2.6h-4.5C605.8,167.2,606.6,168.1,607.7,168.9z
						 M611.4,161.8l-0.7,0.7c-0.6-0.7-1.4-1.5-2.5-2.4l0.7-0.7C609.9,160.2,610.8,161,611.4,161.8z"/>
					<path style="fill:#444444;" d="M618.2,160c-0.8,1.6-2,2.9-3.8,4.1l-0.3-1c1.5-1,2.5-2.2,3.2-3.5L618.2,160z M618.8,163.2
						c-0.4,0.8-0.9,1.5-1.5,2.2v6.9h-1v-5.8c-0.6,0.5-1.2,1-1.8,1.5l-0.3-1c1.7-1.2,3-2.6,3.7-4.1L618.8,163.2z M626.8,163.9v1h-2.3
						v6.1c0,0.8-0.5,1.2-1.4,1.2h-2.1l-0.2-1c0.7,0,1.3,0.1,1.9,0.1c0.4,0,0.7-0.2,0.7-0.5v-5.9h-4.4v-1H626.8z M626.2,160.3v1h-6.7
						v-1H626.2z"/>
				</g>
			</g>
		</g>
	</g>
	<g>
		<g transform="translate(20 9)">
			<g style="enable-background:new    ;">
				<path style="fill:#00A4FF;" d="M554.3,55.3c0.4-0.8,0.8-1.5,1.2-2.3l1,0.3c-0.4,0.7-0.7,1.4-1.1,2h7.2v1h-2.8
					c-0.6,1.5-1.2,2.6-2,3.5c1.4,0.6,2.9,1.3,4.4,2.2l-0.7,0.9c-1.5-0.9-3-1.7-4.5-2.3c-1.6,1.4-3.6,2.1-6.2,2.2l-0.6-0.9
					c2.4,0,4.3-0.6,5.8-1.7c-1.3-0.6-2.6-1.1-3.9-1.5c0.5-0.8,1-1.6,1.4-2.3h-3.4v-1H554.3z M562.3,54.4h-1v-2h-9.6v2h-1v-3h5.3
					c-0.2-0.5-0.4-0.9-0.6-1.3l1.1-0.2c0.2,0.4,0.4,0.9,0.6,1.5h5.2V54.4z M553.7,58.2c1.1,0.3,2.1,0.7,3.2,1.2
					c0.8-0.8,1.4-1.9,1.8-3.1h-3.9C554.5,57,554.1,57.7,553.7,58.2z"/>
				<path style="fill:#00A4FF;" d="M570.9,50.1c1.8,1.8,3.8,3.3,6.1,4.4l-0.5,0.9c-2.3-1.1-4.3-2.6-6-4.3c-1.5,1.7-3.5,3.2-6,4.4
					l-0.5-0.9c2.5-1.2,4.5-2.7,6.1-4.4H570.9z M574.4,54.5v1H571v2.4h4v1h-4v2.6h5.3v1h-11.7v-1h5.3v-2.6h-4.1v-1h4.1v-2.4h-3.4v-1
					H574.4z"/>
				<path style="fill:#00A4FF;" d="M583.4,50.9c-0.7,1.2-1.3,2.1-2,2.9c-0.7,0.8-1.6,1.6-2.8,2.4l-0.5-0.9c1-0.5,1.8-1.3,2.6-2.1
					c0.7-0.8,1.3-1.7,1.8-2.8L583.4,50.9z M580.2,56.6v-1h8.4c0,1.8-0.1,3.2-0.3,4.2c-0.1,1.1-0.4,1.8-0.7,2.2
					c-0.3,0.4-0.8,0.6-1.5,0.7h-2.5l-0.3-1c0.8,0,1.6,0,2.3,0c0.8,0,1.2-0.3,1.5-1c0.3-0.7,0.4-2.1,0.5-4.3H584
					c-0.3,1.5-0.8,2.7-1.4,3.6c-0.7,1-1.8,1.9-3.2,2.7l-0.6-0.8c1.3-0.7,2.3-1.5,2.9-2.3c0.6-0.8,1-1.9,1.3-3.2H580.2z M590.8,55.3
					l-0.7,0.8c-2.2-1.4-3.7-3.2-4.5-5.4l0.9-0.5C587.3,52.3,588.8,54,590.8,55.3z"/>
				<path style="fill:#00A4FF;" d="M594.2,50.5l1,0.2l-0.8,2.8h2.5c0.3-1.1,0.5-2.2,0.7-3.4l1,0.1c-0.2,1.2-0.4,2.3-0.7,3.3h6.6v1
					h-6.8c-0.2,0.6-0.3,1.1-0.5,1.6h5.7v0.9c-0.4,1.2-1.1,2.3-2.3,3.3c1.1,0.7,2.5,1.3,4.1,1.8l-0.5,0.9c-1.8-0.7-3.3-1.4-4.5-2.1
					c-1.1,0.8-2.6,1.5-4.3,2.2l-0.5-0.9c1.6-0.6,2.9-1.2,3.9-1.9c-1.1-0.8-1.9-1.8-2.3-2.7c-1,2.2-2.3,4-3.9,5.3l-0.5-0.9
					c2-1.8,3.5-4.2,4.5-7.4h-3.5L594.2,50.5z M599.7,59.5c1-0.8,1.8-1.7,2.1-2.6h-4.5C597.8,57.8,598.6,58.7,599.7,59.5z
					 M603.4,52.4l-0.7,0.7c-0.6-0.7-1.4-1.5-2.5-2.4l0.7-0.7C601.9,50.8,602.8,51.6,603.4,52.4z"/>
				<path style="fill:#00A4FF;" d="M618.2,50.7v1H613V57h5.7v1H613v5h-1v-5h-5.6v-1h5.6v-5.3h-5.1v-1H618.2z M610.1,55.8l-0.9,0.5
					c-0.5-1.2-1-2.3-1.5-3.2l0.9-0.5C609.1,53.5,609.6,54.6,610.1,55.8z M617.4,52.9c-0.4,1.1-1,2.2-1.7,3.2l-0.9-0.5
					c0.7-1.1,1.2-2.2,1.6-3.2L617.4,52.9z"/>
				<path style="fill:#00A4FF;" d="M620.6,54.7c1.2-0.4,2.8-2,4.6-4.7l1,0.4c-1.3,1.8-2.5,3.2-3.8,4.3c2.7-0.1,5.2-0.3,7.6-0.5
					c-0.5-0.8-1.1-1.5-1.6-2.1l0.9-0.4c1.2,1.4,2.3,3,3.4,4.7l-1,0.5c-0.4-0.6-0.7-1.1-1-1.7c-3,0.3-6.2,0.5-9.9,0.6L620.6,54.7z
					 M631.2,62.9h-1v-0.7h-7.3v0.7h-1v-5.8h9.4V62.9z M630.2,61.2V58h-7.3v3.2H630.2z"/>
			</g>
		</g>
	</g>
	<rect x="693.5" y="46.5" style="fill:#CEE3FF;" width="124" height="167"/>
	<g>
		<g>
			<rect x="707.5" y="87.5" style="opacity:0.6;fill:#BBBBBB;enable-background:new    ;" width="98" height="50"/>
			<g>
				<rect x="706" y="86" style="fill:#FFFFFF;" width="97" height="49"/>
				<path style="fill:#E5E5E5;" d="M802.5,86.5v48h-96v-48H802.5 M803.5,85.5h-98v50h98V85.5L803.5,85.5z"/>
			</g>
		</g>
		<g>
			<g transform="translate(20 9)">
				<g style="enable-background:new    ;">
					<path style="fill:#444444;" d="M708,99.6c-0.9,0-1.6-0.1-2.2-0.3c-0.5-0.2-1-0.5-1.5-1c-0.2-0.2-0.4-0.3-0.5-0.3
						c-0.3,0-0.9,0.6-1.7,1.9l-0.8-0.7c0.8-1.2,1.4-1.9,2-2.1v-4.3h-2v-0.9h2.9v5.3c0.1,0.1,0.2,0.2,0.3,0.3
						c0.3,0.4,0.7,0.7,1.1,0.9c0.4,0.2,1.1,0.3,1.9,0.3c0.7,0,1.6,0,2.7,0c0.7,0,1.4,0,2.1,0c0.7,0,1.2,0,1.6-0.1l-0.3,1h-3.2
						C709.6,99.6,708.8,99.6,708,99.6z M704.6,89.4l-0.7,0.7c-0.6-0.7-1.4-1.4-2.4-2.3l0.7-0.7C703.2,87.9,704,88.7,704.6,89.4z
						 M713.7,91v1h-4.4c-0.8,2-1.5,3.4-2.1,4.2c1.8-0.2,3.3-0.4,4.5-0.7c-0.3-0.8-0.7-1.5-1.1-2.3l0.8-0.3c0.8,1.3,1.4,2.8,2,4.4
						l-0.9,0.2c-0.1-0.4-0.3-0.9-0.5-1.2c-1.5,0.4-3.6,0.7-6.1,0.9l-0.3-0.9c0.6-0.2,1.4-1.6,2.5-4.4h-2.9v-1H713.7z M712.6,87.9
						v0.9h-6.4v-0.9H712.6z"/>
					<path style="fill:#444444;" d="M718.6,88v-0.9h1V88h3.7v-0.9h1V88h3.2v0.9h-3.2v0.8h-1v-0.8h-3.7v0.8h-1v-0.8h-3.2V88H718.6z
						 M727.1,92.9h-1v-1.8h-9.3V93h-1v-2.7h11.3V92.9z M726.4,99.9h-1v-0.6h-7.6v0.6h-1v-4h9.6V99.9z M725.4,98.5v-1.7h-7.6v1.7
						H725.4z M725,92.2V95h-7v-2.8H725z M724.1,93H719v1.3h5.1V93z"/>
					<path style="fill:#444444;" d="M729.3,93.9l-0.3-1.1c1.5-1.7,2.5-3.7,3.2-5.9l1,0.4c-0.3,1.1-0.8,2.1-1.3,3.1v9.4h-1v-7.8
						C730.3,92.7,729.8,93.3,729.3,93.9z M737,88.5v-1.4h1v1.4h3.9v1H738v1.3h3.3v4h-3.3c-0.1,1.3-0.3,2.2-0.7,2.9
						c1.4,0.8,3,1.2,4.9,1.3l-0.3,1c-2-0.1-3.7-0.6-5.2-1.5c-0.8,0.8-1.9,1.3-3.6,1.5l-0.4-0.9c1.4-0.2,2.5-0.5,3.1-1.2
						c-0.8-0.6-1.6-1.3-2.2-2.1l0.8-0.5c0.6,0.8,1.3,1.4,2,1.9c0.3-0.6,0.5-1.4,0.6-2.4h-3.1v-4h3.2v-1.3h-3.7v-1H737z M737,93.5
						v-1.8h-2.2v2.2h2.2C736.9,93.7,737,93.6,737,93.5z M740.3,91.7H738v1.8c0,0.1,0,0.2,0,0.3h2.3V91.7z"/>
					<path style="fill:#444444;" d="M743.9,99.8l-0.8-0.7c0.9-1.2,1.4-2.8,1.4-4.7v-6.7h10.4v10.5c0,1-0.5,1.5-1.5,1.5h-1.6l-0.3-1
						c0.6,0,1.1,0.1,1.6,0.1c0.5,0,0.8-0.3,0.8-0.9v-2.4h-3.8v4.1h-1v-4.1h-3.6C745.3,97.1,744.8,98.6,743.9,99.8z M745.5,88.6V91
						h3.6v-2.4H745.5z M745.5,94.4h3.6v-2.5h-3.6V94.4z M753.9,88.6h-3.8V91h3.8V88.6z M753.9,91.9h-3.8v2.5h3.8V91.9z"/>
					<path style="fill:#444444;" d="M762.4,88.5V87h1v1.5h3.3v0.9h-3.3v1.7h1.8c1.3-0.9,2.5-2,3.5-3.2l0.8,0.6
						c-0.8,1-1.7,1.9-2.6,2.6h3v1h-4.3c-0.2,0.1-0.4,0.3-0.6,0.4c-0.6,0.4-1.4,0.8-2.2,1.1h5.3v6.3h-1v-0.6h-6.1v0.6h-1v-5.2
						c-0.8,0.3-1.5,0.5-2.4,0.8l-0.4-0.9c2.4-0.6,4.6-1.4,6.6-2.6h-6.4v-1h5.1v-1.7h-3.8v-0.9H762.4z M767,94.5h-6.1V96h6.1V94.5z
						 M760.9,98.4h6.1v-1.5h-6.1V98.4z"/>
					<path style="fill:#444444;" d="M725.6,104.4l0.8-0.5c1.2,0.9,2.3,2.5,3.2,4.7c1.3,3.3,3.1,5.7,5.3,7.1l-0.6,0.8
						c-2.3-1.4-4.1-3.9-5.6-7.6c-0.1-0.2-0.2-0.4-0.2-0.6c-0.9,3.6-2.9,6.3-5.8,8.2l-0.6-0.9c3-2,4.9-4.8,5.8-8.5
						C727.2,105.9,726.5,105,725.6,104.4z"/>
					<path style="fill:#444444;" d="M739.5,113.3c-1,0.3-2.2,0.6-3.4,0.8l-0.1-1c1.4-0.2,2.5-0.4,3.6-0.7V113.3z M736.3,105.4v-0.9
						h4.5l-0.7,5.8h1.1c0,3.2-0.2,5-0.4,5.5c-0.3,0.5-0.9,0.7-1.9,0.7c-0.3,0-0.7,0-1,0l-0.3-0.9c0.5,0.1,0.9,0.1,1.1,0.1
						c0.8,0,1.2-0.2,1.4-0.6c0.2-0.4,0.2-1.7,0.2-3.8h-3.8l0.7-4.8l0.9,0l-0.6,3.8h1.6l0.6-4.8H736.3z M744.8,106.2
						c-0.3-0.7-0.5-1.4-0.9-2.1l1-0.3c0.4,0.8,0.6,1.5,0.8,2.1l-0.5,0.2h3.5v1h-2.9v3.3h2.7v1h-2.7v3.8h3.2v1h-7.4v-1h3.2v-3.8h-2.7
						v-1h2.7v-3.3h-3v-1H744.8z"/>
				</g>
			</g>
		</g>
	</g>
	<g>
		<g>
			<rect x="707.5" y="151.5" style="opacity:0.6;fill:#BBBBBB;enable-background:new    ;" width="98" height="50"/>
			<g>
				<rect x="706" y="150" style="fill:#FFFFFF;" width="97" height="49"/>
				<path style="fill:#E5E5E5;" d="M802.5,150.5v48h-96v-48H802.5 M803.5,149.5h-98v50h98V149.5L803.5,149.5z"/>
			</g>
		</g>
		<g>
			<g transform="translate(20 9)">
				<g style="enable-background:new    ;">
					<path style="fill:#444444;" d="M696.6,157.6c-0.4,2-0.9,3.8-1.6,5.3l-0.9-0.5c0.7-1.5,1.2-3.1,1.5-4.9L696.6,157.6z
						 M698.6,151.1v1.5h3.7v-1.5h1v1.5h3.2v0.9h-3.2v1.6h-1v-1.6h-3.7v1.5h-1v-1.5h-3.2v-0.9h3.2v-1.5H698.6z M699,163.7
						c-0.9,0-1.3-0.5-1.3-1.4v-5.5h1v5.3c0,0.4,0.2,0.7,0.6,0.7h2.9c0.3,0,0.6-0.1,0.7-0.3c0.2-0.3,0.3-1,0.4-2.2l1,0.3
						c-0.1,1.5-0.3,2.4-0.6,2.7c-0.3,0.3-0.7,0.4-1.2,0.4H699z M702.9,158.2l-0.7,0.7c-0.7-1-1.7-2.1-2.9-3.3l0.7-0.6
						C701.1,156,702.1,157.1,702.9,158.2z M706.9,161.9l-0.9,0.4c-0.6-1.8-1.3-3.5-2.1-4.9l0.9-0.3
						C705.6,158.6,706.3,160.2,706.9,161.9z"/>
					<path style="fill:#444444;" d="M711.8,156.6c0,0.5,0,1-0.1,1.5h6.5v5.9h-1V159h-5.6c-0.3,2.1-1.1,3.7-2.3,4.8l-0.8-0.7
						c1.5-1.4,2.2-3.6,2.2-6.6v-5.1h1v3.3h4.1v-3.7h1v3.7h3.2v1h-8.3V156.6z"/>
					<path style="fill:#444444;" d="M728.9,151c1.8,2.1,3.8,3.7,6.2,4.9l-0.5,1c-2.3-1.3-4.3-2.9-6-4.9c-1.5,1.9-3.5,3.5-6,4.9
						l-0.5-1c2.5-1.3,4.6-2.9,6.2-4.9H728.9z M732.9,163.9h-1V163h-6.9v0.8h-1v-5.6h8.9V163.9z M732.1,155.5v1h-7.3v-1H732.1z
						 M731.9,162.1v-2.9h-6.9v2.9H731.9z"/>
					<path style="fill:#444444;" d="M736.3,157.7l-0.3-1.1c1.5-1.6,2.6-3.5,3.3-5.6l1,0.4c-0.4,1.1-0.9,2.1-1.4,3.1v9.4h-1V156
						C737.3,156.6,736.9,157.2,736.3,157.7z M740.1,157.6l-0.7-0.9c1.2-1.5,2.3-3.4,3-5.7l1,0.2c-0.2,0.6-0.4,1.3-0.7,1.8h6.1v1
						h-4.7v2.3h4.1v1h-4.1v2.4h4.2v1h-4.2v3.3h-1V154h-0.8C741.6,155.4,740.9,156.6,740.1,157.6z"/>
					<path style="fill:#444444;" d="M750.5,157.7l-0.3-1.1c1.5-1.6,2.5-3.5,3.2-5.6l0.9,0.4c-0.4,1.1-0.8,2.1-1.4,3.1v9.3h-1V156
						C751.5,156.6,751,157.2,750.5,157.7z M758.8,154.7c0,0.4,0,0.9-0.1,1.3c0.6,3.1,2,5.5,4.2,7.1l-0.7,0.8
						c-1.9-1.6-3.2-3.6-3.9-5.9c-0.6,2.4-1.9,4.3-3.9,6l-0.7-0.8c2.6-2.1,4-4.8,4-8.3c0-1.3,0-2.5,0-3.7h1
						C758.9,152.4,758.8,153.5,758.8,154.7z M756.2,153.6c-0.2,1.6-0.5,3.1-1.1,4.4l-0.9-0.3c0.6-1.2,0.9-2.6,1.1-4.2L756.2,153.6z
						 M762.4,153.5c-0.3,1.6-0.8,3-1.3,4.3l-0.9-0.3c0.5-1.1,0.9-2.5,1.3-4.2L762.4,153.5z"/>
					<path style="fill:#444444;" d="M768.1,151.4c-0.4,1.1-0.8,2.1-1.3,3.1v9.4h-1v-7.8c-0.4,0.6-0.9,1.2-1.4,1.7l-0.3-1.1
						c1.4-1.7,2.5-3.6,3.1-5.8L768.1,151.4z M771.8,155.6v-4.6h1v4.6h3.7v1h-3.7v2.3h4v1h-4v4h-1v-4h-4v-1h4v-2.3h-3.5v-1H771.8z
						 M770.7,154.7l-0.9,0.2c-0.3-1-0.7-1.9-1.2-2.8l0.9-0.3C770,152.7,770.4,153.6,770.7,154.7z M776.1,151.8
						c-0.3,1.2-0.8,2.3-1.3,3.2l-0.9-0.3c0.5-0.8,0.9-1.8,1.2-3.1L776.1,151.8z"/>
					<path style="fill:#444444;" d="M725.6,168.4l0.8-0.5c1.2,0.9,2.3,2.5,3.2,4.7c1.3,3.3,3.1,5.7,5.3,7.1l-0.6,0.8
						c-2.3-1.4-4.1-3.9-5.6-7.6c-0.1-0.2-0.2-0.4-0.2-0.6c-0.9,3.6-2.9,6.3-5.8,8.2l-0.6-0.9c3-2,4.9-4.8,5.8-8.5
						C727.2,169.9,726.5,169,725.6,168.4z"/>
					<path style="fill:#444444;" d="M739.5,177.3c-1,0.3-2.2,0.6-3.4,0.8l-0.1-1c1.4-0.2,2.5-0.4,3.6-0.7V177.3z M736.3,169.4v-0.9
						h4.5l-0.7,5.8h1.1c0,3.2-0.2,5-0.4,5.5c-0.3,0.5-0.9,0.7-1.9,0.7c-0.3,0-0.7,0-1,0l-0.3-0.9c0.5,0.1,0.9,0.1,1.1,0.1
						c0.8,0,1.2-0.2,1.4-0.6c0.2-0.4,0.2-1.7,0.2-3.8h-3.8l0.7-4.8l0.9,0l-0.6,3.8h1.6l0.6-4.8H736.3z M744.8,170.2
						c-0.3-0.7-0.5-1.4-0.9-2.1l1-0.3c0.4,0.8,0.6,1.5,0.8,2.1l-0.5,0.2h3.5v1h-2.9v3.3h2.7v1h-2.7v3.8h3.2v1h-7.4v-1h3.2v-3.8h-2.7
						v-1h2.7v-3.3h-3v-1H744.8z"/>
				</g>
			</g>
		</g>
	</g>
	<g>
		<g transform="translate(20 9)">
			<g style="enable-background:new    ;">
				<path style="fill:#00A4FF;" d="M690.3,55.3c0.4-0.8,0.8-1.5,1.2-2.3l1,0.3c-0.4,0.7-0.7,1.4-1.1,2h7.2v1h-2.8
					c-0.6,1.5-1.2,2.6-2,3.5c1.4,0.6,2.9,1.3,4.4,2.2l-0.7,0.9c-1.5-0.9-3-1.7-4.5-2.3c-1.6,1.4-3.6,2.1-6.2,2.2l-0.6-0.9
					c2.4,0,4.3-0.6,5.8-1.7c-1.3-0.6-2.6-1.1-3.9-1.5c0.5-0.8,1-1.6,1.4-2.3h-3.4v-1H690.3z M698.3,54.4h-1v-2h-9.6v2h-1v-3h5.3
					c-0.2-0.5-0.4-0.9-0.6-1.3l1.1-0.2c0.2,0.4,0.4,0.9,0.6,1.5h5.2V54.4z M689.7,58.2c1.1,0.3,2.1,0.7,3.2,1.2
					c0.8-0.8,1.4-1.9,1.8-3.1h-3.9C690.5,57,690.1,57.7,689.7,58.2z"/>
				<path style="fill:#00A4FF;" d="M706.9,50.1c1.8,1.8,3.8,3.3,6.1,4.4l-0.5,0.9c-2.3-1.1-4.3-2.6-6-4.3c-1.5,1.7-3.5,3.2-6,4.4
					l-0.5-0.9c2.5-1.2,4.5-2.7,6.1-4.4H706.9z M710.4,54.5v1H707v2.4h4v1h-4v2.6h5.3v1h-11.7v-1h5.3v-2.6h-4.1v-1h4.1v-2.4h-3.4v-1
					H710.4z"/>
				<path style="fill:#00A4FF;" d="M726,50.9v1h-2.3v3.7h3.1v1h-3.1v6.2h-1v-6.2h-4c-0.1,1.4-0.4,2.6-0.8,3.6
					c-0.5,1.2-1.4,2.1-2.6,2.7l-0.5-0.9c1.1-0.6,1.9-1.5,2.4-2.6c0.3-0.8,0.5-1.8,0.6-2.9h-3.2v-1h3.3c0-0.2,0-0.4,0-0.5v-3.2h-2.5
					v-1H726z M718.7,55.1c0,0.2,0,0.3,0,0.5h4v-3.7h-4V55.1z"/>
				<path style="fill:#00A4FF;" d="M730.9,52.2c-0.3-0.7-0.6-1.3-0.9-1.9l1-0.3c0.4,0.8,0.7,1.6,0.9,2.2h2.1v1h-3.4v1.3
					c0,0.3,0,0.5,0,0.8h2.7c0,3.4-0.1,5.5-0.2,6.3c-0.1,0.8-0.7,1.2-1.7,1.2c-0.2,0-0.5,0-1-0.1l-0.2-0.9c0.4,0,0.7,0,1.1,0
					c0.5,0,0.8-0.2,0.9-0.7c0.1-0.5,0.2-2.2,0.2-5h-1.8c-0.2,3-0.8,5.2-1.8,6.7l-0.8-0.7c1.1-1.6,1.7-4.2,1.8-7.8v-1.3h-1.5v-1
					H730.9z M734.3,56.4l-0.6-0.7c1.1-1.4,1.8-3.3,2.2-5.7l1,0.2c-0.1,0.7-0.3,1.4-0.5,2h4.1v1h-1c-0.1,2.4-0.6,4.4-1.6,6
					c0.9,1.3,1.9,2.2,3.1,2.9l-0.6,0.9c-1.2-0.7-2.3-1.7-3.1-2.9c-0.8,1.1-1.9,2.1-3.2,2.8l-0.6-0.9c1.3-0.7,2.4-1.7,3.2-2.8
					c-0.7-1.1-1.2-2.4-1.7-3.8C734.8,55.7,734.6,56.1,734.3,56.4z M735.7,54.3c0.4,1.5,1,2.9,1.6,4c0.8-1.4,1.2-3.2,1.3-5.1h-2.4
					C736,53.5,735.8,53.9,735.7,54.3z"/>
				<path style="fill:#00A4FF;" d="M754.2,50.7v1H749V57h5.7v1H749v5h-1v-5h-5.6v-1h5.6v-5.3h-5.1v-1H754.2z M746.1,55.8l-0.9,0.5
					c-0.5-1.2-1-2.3-1.5-3.2l0.9-0.5C745.1,53.5,745.6,54.6,746.1,55.8z M753.4,52.9c-0.4,1.1-1,2.2-1.7,3.2l-0.9-0.5
					c0.7-1.1,1.2-2.2,1.6-3.2L753.4,52.9z"/>
				<path style="fill:#00A4FF;" d="M756.6,54.7c1.2-0.4,2.8-2,4.6-4.7l1,0.4c-1.3,1.8-2.5,3.2-3.8,4.3c2.7-0.1,5.2-0.3,7.6-0.5
					c-0.5-0.8-1.1-1.5-1.6-2.1l0.9-0.4c1.2,1.4,2.3,3,3.4,4.7l-1,0.5c-0.4-0.6-0.7-1.1-1-1.7c-3,0.3-6.2,0.5-9.9,0.6L756.6,54.7z
					 M767.2,62.9h-1v-0.7h-7.3v0.7h-1v-5.8h9.4V62.9z M766.2,61.2V58h-7.3v3.2H766.2z"/>
			</g>
		</g>
	</g>
	<g>
		<polygon style="fill:#878787;" points="386.5,130.5 382.5,133.5 386.5,136.5 		"/>
		<polygon style="fill:#878787;" points="403.5,130.5 407.5,133.5 403.5,136.5 		"/>
		<line style="fill:none;stroke:#878787;stroke-miterlimit:10;" x1="405.5" y1="133.5" x2="384.5" y2="133.5"/>
	</g>
	<g>
		<polygon style="fill:#878787;" points="62.5,215.5 59.5,211.5 56.5,215.5 		"/>
		<polygon style="fill:#878787;" points="613.5,233.5 610.5,229.5 607.5,233.5 		"/>
		<polyline style="fill:none;stroke:#878787;stroke-miterlimit:10;" points="59.5,213.5 59.5,252.5 610.5,252.5 610.5,231.5 		"/>
	</g>
</g>
<g>
	<path style="fill:#888888;" d="M187,166.1c-0.5,0.8-0.9,1.6-1.1,2.5c-0.3,1.1-0.5,2.1-0.5,3.1c0,1,0.2,2.1,0.5,3.1
		c0.3,0.9,0.7,1.7,1.1,2.5h-0.7c-0.5-0.8-0.9-1.6-1.2-2.5c-0.3-1.1-0.5-2.1-0.5-3.1c0-1,0.2-2.1,0.5-3.1c0.3-0.9,0.7-1.7,1.2-2.5
		H187z"/>
	<path style="fill:#888888;" d="M199.3,167v0.6h-1.6v8.3c0,0.7-0.4,1.1-1.1,1.1h-2l-0.1-0.6c0.7,0,1.3,0,1.9,0
		c0.4,0,0.7-0.2,0.7-0.7v-8.2h-8.3V167H199.3z M194.6,173.9h-3.9v1.1h-0.6v-5.3h4.5V173.9z M194,173.3v-3.1h-3.2v3.1H194z"/>
	<path style="fill:#888888;" d="M206.3,176.9c-0.8,0-1.4-0.1-1.9-0.2c-0.5-0.1-0.9-0.4-1.3-0.9c-0.2-0.2-0.3-0.3-0.5-0.3
		c-0.3,0-0.9,0.6-1.6,1.7l-0.5-0.4c0.7-1.1,1.3-1.7,1.8-1.9v-3.8h-1.8v-0.6h2.4v4.5c0.1,0.1,0.3,0.2,0.4,0.3c0.3,0.4,0.6,0.6,1,0.8
		c0.4,0.1,0.9,0.2,1.7,0.3c0.6,0,1.4,0,2.3,0h1.7c0.6,0,1,0,1.3,0l-0.2,0.7h-2.8C207.8,176.9,207.1,176.9,206.3,176.9z M203.5,168.3
		l-0.5,0.5c-0.5-0.6-1.2-1.2-2.1-1.9l0.4-0.4C202.2,167.1,202.9,167.7,203.5,168.3z M208.2,166.2v1.6h2.5v0.6h-2.5v1.9h2.9v0.6H209
		v3.4c0,0.2,0.1,0.4,0.4,0.4h0.5c0.2,0,0.4,0,0.5-0.1c0.2-0.1,0.3-0.6,0.3-1.5l0.6,0.2c-0.1,1-0.2,1.5-0.4,1.7
		c-0.2,0.2-0.4,0.3-0.8,0.3h-0.9c-0.3,0-0.5-0.1-0.6-0.2c-0.1-0.2-0.2-0.3-0.2-0.6V171H207c0,0.9-0.1,1.6-0.4,2.2
		c-0.3,0.9-1.1,1.7-2.2,2.3l-0.4-0.5c1-0.5,1.6-1.1,2-1.9c0.2-0.6,0.3-1.3,0.4-2.1h-2v-0.6h3.1v-1.9h-2.1c-0.2,0.5-0.5,0.9-0.8,1.3
		l-0.6-0.4c0.6-0.9,1.1-1.9,1.4-3l0.6,0.1c-0.1,0.5-0.3,0.9-0.4,1.3h1.8v-1.6H208.2z"/>
	<path style="fill:#888888;" d="M213.6,166.1c0.5,0.8,0.9,1.6,1.2,2.5c0.3,1,0.5,2.1,0.5,3.1c0,1-0.2,2.1-0.5,3.1
		c-0.3,0.9-0.7,1.7-1.2,2.5H213c0.5-0.8,0.9-1.6,1.1-2.5c0.3-1.1,0.5-2.1,0.5-3.1c0-1-0.2-2.1-0.5-3.1c-0.3-0.9-0.7-1.7-1.1-2.5
		H213.6z"/>
</g>
</svg>
