<svg id="图层_1" data-name="图层 1" xmlns="http://www.w3.org/2000/svg" viewBox="0 0 48 48"><defs><style>.cls-1{fill:#00a4ff;fill-rule:evenodd;}</style></defs><title>御见logo</title><path class="cls-1" d="M46,8.07a18.48,18.48,0,0,0-3.16-2.26,36,36,0,0,0-7-3A43.58,43.58,0,0,0,24.15,1s-7.41,0-13,2.05A34.39,34.39,0,0,0,6.32,5.21C2.89,7.1,2,8.21,2,8.21A44.81,44.81,0,0,0,3.12,18.28,50.58,50.58,0,0,0,7.2,29.61a50.63,50.63,0,0,0,6.91,9.83A41.13,41.13,0,0,0,24,47a40.6,40.6,0,0,0,9.89-7.48,43.93,43.93,0,0,0,6.79-9.84,50.38,50.38,0,0,0,4.11-11.22A38.23,38.23,0,0,0,46,8.07ZM7.53,7.4a30.68,30.68,0,0,1,4.5-2c5.07-1.85,12.06-1.9,12.14-1.9a41.35,41.35,0,0,1,10.9,1.62A33.75,33.75,0,0,1,41.55,8a18.36,18.36,0,0,1,2,1.31,42.31,42.31,0,0,1-1.16,8.62v.05A82.92,82.92,0,0,1,32,22.82C35.71,6.76,11.3,17.1,6,19.51q-.24-.87-.45-1.8A42.87,42.87,0,0,1,4.5,9.32,22.61,22.61,0,0,1,7.53,7.4ZM19.6,17.47c6.59-1.83,12.55-1.7,9.87,6.23C23.21,25.62,17.7,25.39,19.6,17.47Zm18.82,11.1a42,42,0,0,1-6.34,9.19A39.12,39.12,0,0,1,24,44.11a38.48,38.48,0,0,1-8-6.37,49.19,49.19,0,0,1-6.55-9.32,46.43,46.43,0,0,1-2.46-5.91,86.57,86.57,0,0,1,10.44-4.36c-3.45,15.34,17.52,6.63,23.85,3.69A50,50,0,0,1,38.42,28.57Z"/></svg>