<?xml version="1.0" encoding="UTF-8"?>
<svg width="48px" height="48px" viewBox="0 0 48 48" version="1.1" xmlns="http://www.w3.org/2000/svg" xmlns:xlink="http://www.w3.org/1999/xlink">
    <!-- Generator: Sketch 51.2 (57519) - http://www.bohemiancoding.com/sketch -->
    <title>高度兼容 MySQL 语法-48x48</title>
    <desc>Created with Sketch.</desc>
    <defs></defs>
    <g id="高度兼容-MySQL-语法-48x48" stroke="none" stroke-width="1" fill="none" fill-rule="evenodd">
        <circle id="Oval-48" fill="#00A4FF" cx="18" cy="18" r="10"></circle>
        <path d="M41.049847,38.797231 C40.2416745,38.1673201 39.3577987,36.1278922 35.8247368,32.7084797 C36.0861338,32.6757051 36.3475309,32.6477268 36.5593664,32.6245448 C38.3211984,32.4302957 41.0986772,32.3375677 41.4040401,31.8211686 C41.4644895,31.7040891 41.4991586,31.5849939 41.5080475,31.463883 C41.5169364,31.342772 41.5014524,31.2004702 41.4615955,31.0369775 C40.7981106,29.4222313 35.1644495,27.0240934 32.7958886,26.9265691 C32.5808556,26.9169765 32.0772466,25.8354163 31.7758806,25.1887185 C31.2219107,23.999242 30.4632997,22.370107 29.1443239,20.6514415 C26.8612966,17.5586429 23.5110979,15.5394108 19.6660834,14.9598608 C18.9266575,14.8895154 18.3455087,14.4730388 17.7835451,14.0693522 C17.0169403,13.5193792 15.8578403,12.6880247 14.6419844,13.851921 C13.6899236,14.7592165 13.882574,16.4706877 14.6595707,17.4986895 L14.7259192,17.5762293 C15.0392759,17.8967804 15.3262531,18.2485073 15.5796563,18.621018 C15.6188259,18.753715 15.6587949,18.8952051 15.7003626,19.0430903 C16.0832653,20.3956401 16.6620159,22.4404524 18.2583764,23.929696 C18.2999441,23.9680662 18.1976236,24.4229131 18.1024974,24.6635262 C17.7635606,25.5324516 17.2495597,26.8921958 17.5069598,29.0808963 C17.7667581,31.2919795 18.6029089,33.59121 19.7436232,33.59121 C20.3695372,33.59121 21.108963,32.2288521 21.6397509,30.7651885 C21.8084199,31.1113198 22.0026691,31.4366672 22.2256959,31.7676102 C23.0458591,32.9610835 24.9438011,34.9813306 26.0229632,35.9533759" id="Fill-1" stroke="#334966" stroke-width="2" stroke-linecap="round"></path>
        <path d="M24,0 C10.745,0 0,10.745 0,24 C0,37.255 10.745,48 24,48 C37.255,48 48,37.255 48,24 C48,10.745 37.255,0 24,0 M24,2 C36.131,2 46,11.869 46,24 C46,36.131 36.131,46 24,46 C11.869,46 2,36.131 2,24 C2,11.869 11.869,2 24,2" id="Fill-1" fill="#334966"></path>
        <circle id="Oval-47" fill="#334966" cx="21" cy="19" r="1"></circle>
    </g>
</svg>