<?xml version="1.0" encoding="utf-8"?>
<!-- Generator: Adobe Illustrator 22.0.1, SVG Export Plug-In . SVG Version: 6.00 Build 0)  -->
<svg version="1.1" id="图层_1" xmlns="http://www.w3.org/2000/svg" xmlns:xlink="http://www.w3.org/1999/xlink" x="0px" y="0px"
	 width="32px" height="32px" viewBox="0 0 32 32" style="enable-background:new 0 0 32 32;" xml:space="preserve">
<style type="text/css">
	.st0{fill-rule:evenodd;clip-rule:evenodd;fill:#00A4FF;}
	.st1{fill:#00A4FF;}
</style>
<path id="XMLID_538_" class="st0" d="M22,17H10v-2h12V17z"/>
<path id="XMLID_527_" class="st0" d="M22,23H10v-2h12V23z"/>
<path id="XMLID_490_" class="st0" d="M12,23h-2v-8h2V23z"/>
<path id="XMLID_488_" class="st0" d="M22,23h-2v-8h2V23z"/>
<path id="XMLID_486_" class="st0" d="M13,15h-2v-1h2V15z"/>
<path id="XMLID_477_" class="st0" d="M21,15h-2v-1h2V15z"/>
<path id="XMLID_422_" class="st1" d="M16,11c1.7,0,3,1.3,3,3h2c0-2.8-2.2-5-5-5c-2.8,0-5,2.2-5,5h2C13,12.3,14.4,11,16,11z"/>
<g id="XMLID_1_">
	<g>
		<path class="st1" d="M28.8,18c-1,6.2-6.3,11-12.8,11C8.8,29,3,23.2,3,16C3,8.8,8.8,3,16,3c6.5,0,11.9,4.8,12.8,11h2
			C29.9,6.7,23.6,1,16,1C7.7,1,1,7.7,1,16s6.7,15,15,15c7.6,0,13.9-5.7,14.9-13H28.8z"/>
	</g>
</g>
<g>
</g>
<g>
</g>
<g>
</g>
<g>
</g>
<g>
</g>
<g>
</g>
<g>
</g>
<g>
</g>
<g>
</g>
<g>
</g>
<g>
</g>
<g>
</g>
<g>
</g>
<g>
</g>
<g>
</g>
</svg>
