<svg id="圖層_1" data-name="圖層 1" xmlns="http://www.w3.org/2000/svg" xmlns:xlink="http://www.w3.org/1999/xlink" width="820" height="218" viewBox="0 0 820 218">
  <defs>
    <linearGradient id="未命名的渐变" x1="436.339" y1="119.321" x2="352.09" y2="217.687" gradientTransform="matrix(1, 0, 0, -1, 0, 246)" gradientUnits="userSpaceOnUse">
      <stop offset="0" stop-color="#0063ff"/>
      <stop offset="1" stop-color="#00c8de"/>
    </linearGradient>
    <linearGradient id="未命名的渐变_2" data-name="未命名的渐变 2" x1="741.786" y1="119.345" x2="663.489" y2="211.753" xlink:href="#未命名的渐变"/>
    <linearGradient id="未命名的渐变_3" data-name="未命名的渐变 3" x1="120.737" y1="115.513" x2="40.777" y2="195.473" xlink:href="#未命名的渐变"/>
    <linearGradient id="未命名的渐变_4" data-name="未命名的渐变 4" x1="144.114" y1="-16.036" x2="32.162" y2="-127.988" gradientTransform="translate(0 170)" gradientUnits="userSpaceOnUse">
      <stop offset="0" stop-color="#06f"/>
      <stop offset="1" stop-color="#00c8dc"/>
    </linearGradient>
    <linearGradient id="未命名的渐变_5" data-name="未命名的渐变 5" x1="146.708" y1="-21.042" x2="36.034" y2="-131.716" xlink:href="#未命名的渐变_4"/>
    <linearGradient id="未命名的渐变_6" data-name="未命名的渐变 6" x1="789.253" y1="-45.347" x2="667.452" y2="-167.148" xlink:href="#未命名的渐变_4"/>
    <linearGradient id="未命名的渐变_7" data-name="未命名的渐变 7" x1="780.823" y1="-40.157" x2="664.456" y2="-156.524" xlink:href="#未命名的渐变_4"/>
    <linearGradient id="未命名的渐变_8" data-name="未命名的渐变 8" x1="730.356" y1="11.606" x2="613.011" y2="-105.739" xlink:href="#未命名的渐变_4"/>
    <linearGradient id="未命名的渐变_9" data-name="未命名的渐变 9" x1="767.508" y1="-26.842" x2="651.141" y2="-143.209" xlink:href="#未命名的渐变_4"/>
    <linearGradient id="未命名的渐变_10" data-name="未命名的渐变 10" x1="466.583" y1="-18.917" x2="342.089" y2="-143.411" xlink:href="#未命名的渐变_4"/>
    <linearGradient id="未命名的渐变_11" data-name="未命名的渐变 11" x1="468.908" y1="-21.242" x2="344.414" y2="-145.736" xlink:href="#未命名的渐变_4"/>
  </defs>
  <title>云支付场景图</title>
  <polygon points="426.2 115.4 445.9 98.5 445.9 28.5 352.3 28.5 352.3 137.9 426.2 137.9 426.2 115.4" style="opacity: 0.20000000298023224;isolation: isolate;fill: url(#未命名的渐变)"/>
  <path id="矩形_23_拷贝_3" data-name="矩形 23 拷贝 3" d="M367.2,46.7h64.6V50H367.2Zm0,15.8h64.6v3.3H367.2Zm0,16.6h64.6v3.3H367.2Zm0,16.5h32.3v3.3H367.2Z" style="fill: #fff"/>
  <path d="M732.4,130.4a7.246,7.246,0,0,1-3.2-9.4l9.5-16.7h12.6V34.1H662.7v103h69.8l-.1-6.7Z" style="opacity: 0.20000000298023224;isolation: isolate;fill: url(#未命名的渐变_2)"/>
  <path id="形状_22" data-name="形状 22" d="M721.7,69.1h-4L707,83.3,696.3,69.1h-4l11.5,15.3h-8.9v3.2h10.5V94H694.9v3.2h10.5v8h3.2v-8H719V94H708.5V87.6H719V84.4h-8.9Z" style="fill: #fff"/>
  <path id="箭头_拷贝_5" data-name="箭头 拷贝 5" d="M178.2,83.3h9.2V81h-9.2Zm13.8,0h9.2V81H192Zm13.8,0H215V81h-9.2Zm13.8,0h9.2V81h-9.2Zm13.8,0h9.2V81h-9.2Zm13.8,0h9.2V81h-9.2Zm13.8,0h9.2V81H261Zm13.8,0H284V81h-9.2Zm13.8,0h9.2V81h-9.2Zm12.6-7.5V87.3l12.1-5.2Zm190.6,7.5H501V81h-9.2Zm13.8,0h9.2V81h-9.2v2.3Zm13.8,0h9.2V81h-9.2Zm13.8,0h9.2V81h-9.2Zm13.8,0h9.2V81H547Zm13.8,0H570V81h-9.2Zm13.8,0h9.2V81h-9.2Zm13.8,0h9.2V81h-9.2Zm13.8,0h9.2V81h-9.2Zm12.6-7.5V87.3l12.1-5.2Z" style="fill: #c2c5ca"/>
  <path d="M111.4,135.6c-3.4-1.8-4.5-6-2.6-9.9l9.1-15.1h14.7V55H46.3v88.4h65l.1-7.8Z" style="opacity: 0.20000000298023224;isolation: isolate;fill: url(#未命名的渐变_3)"/>
  <g style="isolation: isolate">
    <path d="M66.4,188.4a19.961,19.961,0,0,1-2.2,4.4c.6-.1,1.3-.1,1.9-.2.3-.5.5-1,.8-1.6l.9.3a28.16,28.16,0,0,1-3.1,5c1-.2,2-.5,3-.8v.9a25.3,25.3,0,0,1-4.2,1l-.3-.9c.2-.1.3-.2.5-.3a18.389,18.389,0,0,0,1.9-2.8c-.8.1-1.6.2-2.3.3l-.2-.9a.781.781,0,0,0,.4-.4,25.464,25.464,0,0,0,2-4.4Zm1.5,10.7a26.463,26.463,0,0,1-4.7,1.3l-.1-1a19.62,19.62,0,0,0,4.8-1.3Zm6.9-7.6-3.6.5c0,.7.1,1.3.1,1.9l3.7-.6.2,1-3.8.6c0,.3.1.5.1.7a8.709,8.709,0,0,0,.5,1.9,11.6,11.6,0,0,0,2-2.4l.8.5a13.121,13.121,0,0,1-2.4,2.8c.1.1.1.2.2.3.5.7.9,1,1.2,1s.7-.8.9-2.3l.9.6c-.4,1.8-1,2.8-1.7,2.8a2.323,2.323,0,0,1-1.9-1.3c-.1-.2-.2-.3-.3-.5a11.515,11.515,0,0,1-3.3,1.7l-.6-.8a10.565,10.565,0,0,0,3.5-1.8,6.637,6.637,0,0,1-.6-2c-.1-.4-.1-.7-.2-1.1l-2.5.4-.1-1,2.5-.4a11.483,11.483,0,0,1-.1-1.9l-2,.3-.2-.9,2.1-.3v-3.1h1v3l3.5-.5Zm-.4-1.7-.8.5c-.4-.5-1-1.1-1.7-1.8l.8-.5A13.128,13.128,0,0,1,74.4,189.8Z"/>
    <path d="M89.5,188.9v1H83.4V192c1.7.9,3.5,1.9,5.3,3l-.6.9c-1.9-1.2-3.4-2.2-4.7-2.9v8h-1V189.9H77v-1Z"/>
    <path d="M94.1,193.7l-.7.7a11.979,11.979,0,0,0-2.3-2.1l.7-.7A15.978,15.978,0,0,1,94.1,193.7Zm.4,2c-.7,1.8-1.5,3.5-2.3,5.1l-.9-.4a32.18,32.18,0,0,0,2.3-5Zm.2-5.3-.7.7a12.856,12.856,0,0,0-2.4-2.1l.7-.7A25.734,25.734,0,0,1,94.7,190.4Zm2.7.5-.8.4a14.31,14.31,0,0,0-1.6-2.4l.8-.4A14.31,14.31,0,0,1,97.4,190.9Zm2.3-2.7V192h3v7.5c0,.9-.4,1.4-1.3,1.4H99.8l-.3-1h1.6a.632.632,0,0,0,.7-.7v-1.4H96.7v3h-1V192h3v-3.8Zm2,4.7H96.6v1.6h5.1Zm-5,4.1h5.1v-1.6H96.7Zm6.6-8.2a13.989,13.989,0,0,1-1.6,2.6l-.8-.4a12.189,12.189,0,0,0,1.6-2.6Z"/>
    <path d="M112,196.4c-.2,1.6-.6,2.7-1.3,3.2-.7.7-2.3,1.1-4.9,1.3l-.4-.9c2.2-.1,3.7-.4,4.4-1a3.982,3.982,0,0,0,1.1-2.7Zm1.3-4.2h3.8a3.563,3.563,0,0,1-.3,1.9c-.2.3-.7.5-1.5.5h-.6l-.2-.7h.7a1.292,1.292,0,0,0,.8-.2c.1-.1.1-.4.1-.7h-2.8v1.6h-1V193h-2.5a3.114,3.114,0,0,1-.7.9,5.6,5.6,0,0,1-1.9,1.1h8.6v3.8h-1v-2.9h-6.9v2.9h-1V195c-.4.1-.7.2-1.1.3l-.5-.8a7.129,7.129,0,0,0,3-1.2l.3-.3H106l.5-2.5h2.8v-.9h-3.2v-.8h3.2v-.7h1v.7h2v-.7h1v.7h3.1v2.5h-3.1Zm-6.2,0h2.1c.1-.3.1-.6.2-.9h-2Zm3.1,0h2.2v-.9h-2A2.92,2.92,0,0,0,110.2,192.2Zm.1-1.7h2v-.9h-2Zm6.9,9.7-.5.8a28.416,28.416,0,0,0-4.9-1.7l.5-.8A31.235,31.235,0,0,1,117.2,200.2Zm-3.9-9.7h2.1v-.9h-2.1Z"/>
  </g>
  <g style="isolation: isolate">
    <path d="M377.9,188.5l1,.2-.8,2.8h2.5a34.027,34.027,0,0,0,.7-3.4l1,.1a27.211,27.211,0,0,1-.7,3.3h6.6v1h-6.8c-.2.6-.3,1.1-.5,1.6h5.7v.9a7.123,7.123,0,0,1-2.3,3.3,17.4,17.4,0,0,0,4.1,1.8l-.5.9a32.226,32.226,0,0,1-4.5-2.1,21.409,21.409,0,0,1-4.3,2.2l-.5-.9a17.724,17.724,0,0,0,3.9-1.9,7.084,7.084,0,0,1-2.3-2.7,14.363,14.363,0,0,1-3.9,5.3l-.5-.9a16.051,16.051,0,0,0,4.5-7.4h-3.5Zm5.5,9.1a6.205,6.205,0,0,0,2.1-2.6H381A6.428,6.428,0,0,0,383.4,197.6Zm3.7-7.2-.7.7a19.627,19.627,0,0,0-2.5-2.4l.7-.7C385.6,188.9,386.4,189.7,387.1,190.4Z"/>
    <path d="M391.8,194.9a16.412,16.412,0,0,1-.2,2.3,4.529,4.529,0,0,0,1.5,1.8v-5.1h-2.9V193h2.6v-2.1h-2.3V190h2.3v-1.9h1V190H396v.9h-2.2V193h2.4v.9H394v2h2v.9h-2v2.6a25.958,25.958,0,0,0,5.2.4,32.33,32.33,0,0,0,3.5-.1l-.2,1h-3.1c-3.3,0-5.3-.2-6.1-.6a4.581,4.581,0,0,1-1.9-1.8,11.423,11.423,0,0,1-.9,2.6l-.8-.7a15.838,15.838,0,0,0,1.2-5.5Zm10.1,3a1.447,1.447,0,0,1-1.3.5h-2.5a1.061,1.061,0,0,1-1.2-1.2v-4.6h3.8v-2.7h-4V189h5v4.6h-3.8v3.2a.53.53,0,0,0,.6.6h1.9a.894.894,0,0,0,.8-.4,5.136,5.136,0,0,0,.2-1.6l1,.3A5.84,5.84,0,0,1,401.9,197.9Z"/>
    <path d="M413.5,194.2a11.969,11.969,0,0,1-2.5,3.3,16.428,16.428,0,0,0,5.5,2.5l-.6.9a15.109,15.109,0,0,1-5.7-2.7,15.214,15.214,0,0,1-5.7,2.8l-.6-.9a16.428,16.428,0,0,0,5.5-2.5,11.089,11.089,0,0,1-2.5-3.2l.9-.5a11.329,11.329,0,0,0,2.4,3,10.027,10.027,0,0,0,2.3-3.1Zm-3.7-4.4c-.3-.6-.5-1.1-.8-1.6l1.1-.2a7.5,7.5,0,0,1,.8,1.8h5.5v1H404v-1Zm-1.2,2a15.4,15.4,0,0,1-4,3.6l-.6-.9a18.337,18.337,0,0,0,3.9-3.4Zm7.7,3-.7.7a23.663,23.663,0,0,0-3.9-3.8l.7-.7A35.708,35.708,0,0,1,416.3,194.8Z"/>
    <path d="M419.9,193.6v-4.9h8.6v4.9H423a10.628,10.628,0,0,1-.9,1.1h7.4a17.256,17.256,0,0,1-.3,3.6,3.506,3.506,0,0,1-.6,1.9,2.594,2.594,0,0,1-1.4.6h-1.8l-.3-.9h1.6a1.486,1.486,0,0,0,1.4-.8,11.655,11.655,0,0,0,.4-3.5h-1.3a8.973,8.973,0,0,1-5.8,5.3l-.6-.8a8.533,8.533,0,0,0,5.3-4.5h-1.8a9.716,9.716,0,0,1-4.8,3.7l-.6-.8a8.38,8.38,0,0,0,4.3-2.9h-2.1a13.77,13.77,0,0,1-2.4,1.4l-.5-.9a8.894,8.894,0,0,0,3.7-2.5h-2Zm7.6-2.9v-1.2h-6.6v1.2Zm0,.8h-6.6v1.2h6.6Z"/>
  </g>
  <g style="isolation: isolate">
    <path d="M688,191.7a19.735,19.735,0,0,1-2.6,2.1l-.7-.8a11.839,11.839,0,0,0,2.7-2Zm3.4,4.2c-.2,1.8-.6,3-1.3,3.6-.7.8-2.4,1.2-4.9,1.4l-.4-.9c2.2-.1,3.7-.5,4.4-1.1a4.71,4.71,0,0,0,1.1-3.1Zm-3.6-6.5-.5.8a11.459,11.459,0,0,0-2.3-1l.5-.8A15.957,15.957,0,0,1,687.8,189.4Zm7.5,9.1h-1v-3.2h-7v3.3h-1v-4.3h9ZM691,188.2a3.551,3.551,0,0,1-.4.9h5.6v.6a11.767,11.767,0,0,1-.7,2l-1-.3a11.631,11.631,0,0,0,.6-1.5h-2.4a3.177,3.177,0,0,1-.3.9c.7,1.1,2.2,1.8,4.3,2.2l-.4.9a7.418,7.418,0,0,1-4.4-2.3,2.036,2.036,0,0,1-.6.7,7.2,7.2,0,0,1-3.4,1.5l-.4-.9a7.129,7.129,0,0,0,3-1.2,3.2,3.2,0,0,0,1-1.9h-1.8a9.267,9.267,0,0,1-1.4,1.4l-.6-.8a5.778,5.778,0,0,0,1.9-2.5Zm5.7,12-.5.8a22.233,22.233,0,0,0-4.9-1.8l.5-.8A31.222,31.222,0,0,1,696.7,200.2Z"/>
    <path d="M699,193.2l-.6-.8a18.974,18.974,0,0,0,6-4.2h.8a14.092,14.092,0,0,0,5.9,4.1l-.6.8c-.7-.3-1.4-.7-2.1-1v.8h-3.2v2h5v.9h-5v3.7h1.6a25.489,25.489,0,0,0,1.3-2.9l.9.3a12.621,12.621,0,0,1-1.2,2.6h2.9v1h-12v-1h2.9a18.891,18.891,0,0,0-1.1-2.5l.9-.3a26.077,26.077,0,0,1,1.2,2.8h1.6v-3.7h-5v-.9h5v-2H701v-.8A7.49,7.49,0,0,1,699,193.2Zm5.8-4a15.96,15.96,0,0,1-3.5,2.8h7A13.918,13.918,0,0,1,704.8,189.2Z"/>
    <path d="M715.6,193.7l-.7.7a16.853,16.853,0,0,0-2.3-2.1l.7-.7A15.975,15.975,0,0,1,715.6,193.7Zm0,2.2c-.6,1.7-1.2,3.4-1.9,4.9l-.9-.4a47.8,47.8,0,0,0,1.9-4.8Zm.3-5.8-.7.7a9.78,9.78,0,0,0-2.1-1.8l.7-.7A19.591,19.591,0,0,1,715.9,190.1Zm5.2-2v.9h3.7v.8h-3.7v.9h3.2v.8h-3.2v1h4.1v.8H716v-.8h4.1v-1H717v-.8h3.1v-.9h-3.6V189h3.6v-.9ZM718.2,201h-1v-6.7h6.7v5.4a.959.959,0,0,1-1.1,1.1h-1.3l-.3-.9h1.3c.3,0,.4-.2.4-.5v-.8h-4.7V201Zm4.8-5.9h-4.7v1H723Zm-4.8,2.8h4.7v-1h-4.7Z"/>
    <path d="M737.5,191.3v5.5h-1.7v.9H739v.9h-3.2V201h-1v-2.4h-4a2.384,2.384,0,0,1-.6,1.1,5.567,5.567,0,0,1-2.3,1.3l-.5-.8a5.113,5.113,0,0,0,2.1-1c.1-.2.2-.3.3-.5h-3.2v-.9H730v-.9h-1.8v-5.5h9.3Zm-10,.2-.8-.5a6.991,6.991,0,0,0,1.8-2.9l1,.2a2.01,2.01,0,0,1-.4.8h3.5v.9h-1.8l.6.9-.8.3a8.343,8.343,0,0,0-.8-1.2h-1.1A7.886,7.886,0,0,1,727.5,191.5Zm9,1.4v-.8h-7.3v.8Zm0,1.5v-.8h-7.3v.8Zm0,.7h-7.3v.9h7.3Zm-5.4,2.2v.4h3.8v-.9h-3.8Zm2.4-6.1-.8-.5a7.644,7.644,0,0,0,1.5-2.6l1,.2-.3.8h4v.9h-2.3a4.694,4.694,0,0,1,.6.9l-.8.3a8.343,8.343,0,0,0-.8-1.2h-1.1C734.2,190.3,733.9,190.8,733.5,191.2Z"/>
  </g>
  <g>
    <path d="M111.5,68.7a4.3,4.3,0,1,0,8.6,0,4.331,4.331,0,0,0-2.9-4.1V49.2h21v61.4h1.4V47.8H117.1V45.3a27.8,27.8,0,1,0-55.6-.1v2.5H39.1V150.6h72.3v-1.4H40.5V49.2h21V64.5a4.326,4.326,0,1,0,5,4.3,4.4,4.4,0,0,0-3.6-4.3V49.2h52.9V64.4A4.268,4.268,0,0,0,111.5,68.7Zm-23.9-21H63V45.2a26.5,26.5,0,1,1,53,0v2.5Z" style="fill: url(#未命名的渐变_4)"/>
    <path d="M152.5,127.4l-6-11.9-.6-1.1h-26l-.6,1-6.6,11.9-.3.5v.6a7,7,0,0,0,2.7,5.1v17.6H150V133.6a6.88,6.88,0,0,0,2.7-5.2v-.5ZM148,135v14H117.2V134.6a5.867,5.867,0,0,0,2.3.4h.5a7.16,7.16,0,0,0,6-4.4,7.121,7.121,0,0,0,6.6,4.4,6.984,6.984,0,0,0,6.5-4.4,7.087,7.087,0,0,0,6.5,4.4,5.867,5.867,0,0,0,2.3-.4l.1.4Zm-2.3-2a5.121,5.121,0,0,1-5.1-5.1h-2.9a5.1,5.1,0,0,1-10.2,0h-2.9a5.122,5.122,0,0,1-4.7,5.1h-.4a5.024,5.024,0,0,1-5-4.7l6.6-11.9h23.6l6,11.9A4.96,4.96,0,0,1,145.7,133Z" style="fill: url(#未命名的渐变_5)"/>
  </g>
  <g>
    <path d="M757.9,83.4a.633.633,0,0,0-.1.9v20h1.6V86l7.4,7.4a.735.735,0,0,0,.6.2,1.421,1.421,0,0,0,.6-.2.785.785,0,0,0,0-1.1l-8.9-8.9A.912.912,0,0,0,757.9,83.4Z" style="fill: url(#未命名的渐变_6)"/>
    <path d="M655,86.3c.1.2.1.1.3.1a.974.974,0,0,0,1-.8V27.7H757.7V67.9a.8.8,0,1,0,1.6,0V26H654.8V83.8l-7.4-7.4a.778.778,0,0,0-1.1,1.1l8.6,8.6A.35.35,0,0,0,655,86.3Z" style="fill: url(#未命名的渐变_7)"/>
    <polygon points="656.4 101.7 654.8 101.7 654.8 145.2 731.4 145.2 731.4 143.5 656.4 143.5 656.4 101.7" style="fill: url(#未命名的渐变_8)"/>
    <path d="M773.2,121.5l-6-11.9-.6-1.1h-26l-.6,1-6.6,11.9-.3.5v.6a7,7,0,0,0,2.7,5.1v17.6h34.8V127.7a6.881,6.881,0,0,0,2.7-5.2V122Zm-4.5,7.6v14H738V128.7a5.867,5.867,0,0,0,2.3.4h.5a7.16,7.16,0,0,0,6-4.4,7.121,7.121,0,0,0,6.6,4.4,6.984,6.984,0,0,0,6.5-4.4,7.087,7.087,0,0,0,6.5,4.4,5.867,5.867,0,0,0,2.3-.4v.4Zm-2.3-2a5.121,5.121,0,0,1-5.1-5.1h-2.9a5.1,5.1,0,1,1-10.2,0h-2.9a5.122,5.122,0,0,1-4.7,5.1h-.4a5.024,5.024,0,0,1-5-4.7l6.6-11.9h23.6l6,11.9A4.96,4.96,0,0,1,766.4,127.1Z" style="fill: url(#未命名的渐变_9)"/>
  </g>
  <g>
    <polygon points="345.7 21.9 451.7 21.9 451.7 94.8 452.6 94.1 453.4 94.8 453.4 20.2 344 20.2 344 146.2 425.7 146.2 425.7 144.5 345.7 144.5 345.7 21.9" style="fill: url(#未命名的渐变_10)"/>
    <path d="M474.2,144.4v-7.2h-6V120.3h6v-2.6l-1.1-.9-19.8-17L452,98.7l-1.3,1.1-19.8,17-.7.6v2.9h6.3v16.9h-6.3v9.2h44v-2Zm-42-26.1,19.8-17,19.8,17H432.2Zm34,2v16.9h-13V120.3Zm-15,0v16.9H438.5V120.3Zm21,24.1h-40v-5.2h40Z" style="fill: url(#未命名的渐变_11)"/>
  </g>
</svg>
