<?xml version="1.0" encoding="utf-8"?>
<!-- Generator: Adobe Illustrator 22.0.0, SVG Export Plug-In . SVG Version: 6.00 Build 0)  -->
<svg version="1.1" id="svgwrapper_svg" xmlns="http://www.w3.org/2000/svg" xmlns:xlink="http://www.w3.org/1999/xlink" x="0px"
	 y="0px" width="830px" height="224.13px" viewBox="0 0 830 224.13" style="enable-background:new 0 0 830 224.13;"
	 xml:space="preserve">
<path style="display:none;fill:none;stroke:#999999;" d="M759,113.07l2,3.5"/>
<rect x="85" y="62" style="fill:#CEE3FF;" width="430" height="120.165"/>
<g>
	<g style="enable-background:new    ;">
		<path style="fill:#878787;" d="M364.443,211.339c1.355,0,2.375,0.384,3.07,1.176c0.636,0.72,0.96,1.763,0.96,3.106
			c0,1.319-0.348,2.362-1.031,3.105c-0.72,0.78-1.751,1.176-3.095,1.176h-2.975v-8.563L364.443,211.339L364.443,211.339z
			 M362.357,219.051h1.822c1.115,0,1.955-0.3,2.519-0.888c0.528-0.575,0.804-1.427,0.804-2.542c0-1.151-0.252-2.003-0.743-2.555
			c-0.528-0.588-1.344-0.876-2.471-0.876h-1.931L362.357,219.051L362.357,219.051z"/>
		<path style="fill:#878787;" d="M370.877,211.339l4.845,6.969h0.036v-6.969h0.983v8.563h-1.007l-4.87-7.04h-0.035v7.04h-0.984
			v-8.563H370.877z"/>
		<path style="fill:#878787;" d="M383.63,211.831c0.576,0.455,0.9,1.139,0.983,2.039h-0.971c-0.108-0.624-0.348-1.08-0.72-1.38
			c-0.384-0.312-0.924-0.455-1.619-0.455c-0.636,0-1.128,0.096-1.487,0.312c-0.408,0.239-0.611,0.6-0.611,1.091
			c0,0.433,0.239,0.78,0.731,1.044c0.216,0.12,0.743,0.3,1.571,0.54c1.127,0.335,1.871,0.611,2.23,0.827
			c0.708,0.432,1.067,1.031,1.067,1.811c0,0.744-0.3,1.344-0.899,1.775c-0.6,0.42-1.403,0.636-2.423,0.636
			c-1.008,0-1.799-0.216-2.375-0.647c-0.671-0.516-1.043-1.296-1.115-2.351h0.972c0.084,0.743,0.348,1.295,0.779,1.643
			c0.396,0.312,0.972,0.479,1.739,0.479c0.695,0,1.271-0.132,1.703-0.396s0.647-0.623,0.647-1.079c0-0.54-0.288-0.96-0.852-1.26
			c-0.239-0.144-0.852-0.348-1.811-0.623c-1.031-0.312-1.691-0.552-1.967-0.696c-0.66-0.384-0.983-0.936-0.983-1.654
			c0-0.744,0.312-1.332,0.947-1.739c0.563-0.384,1.295-0.576,2.183-0.576C382.311,211.171,383.078,211.387,383.63,211.831z"/>
		<path style="fill:#878787;" d="M387.028,213.294v-3.166h0.852v3.166h1.14v0.84h-1.14v3.622c0.384-0.168,0.768-0.36,1.128-0.552
			v0.863c-0.948,0.504-1.967,0.924-3.047,1.259l-0.216-0.875c0.432-0.108,0.863-0.228,1.283-0.372v-3.945h-1.175v-0.84H387.028z
			 M392.665,218.643c-1.175,0.456-2.446,0.84-3.813,1.151l-0.204-0.827c1.392-0.24,2.734-0.611,4.018-1.104v0.78H392.665z
			 M393.277,211.734c-0.012-0.527-0.012-1.067-0.012-1.619h0.839c0,0.564,0,1.104,0.012,1.619h1.224
			c-0.168-0.455-0.336-0.863-0.527-1.234l0.779-0.133c0.156,0.396,0.312,0.852,0.468,1.367h0.588v0.816h-2.519
			c0.036,1.847,0.12,3.357,0.252,4.521c0.468-1.008,0.839-2.171,1.104-3.515l0.743,0.312c-0.396,1.799-0.947,3.31-1.655,4.509
			c0.24,1.14,0.504,1.728,0.815,1.775c0.24-0.024,0.468-0.636,0.708-1.812l0.647,0.528c-0.384,1.439-0.827,2.158-1.355,2.158
			c-0.396,0-0.743-0.312-1.055-0.936c-0.12-0.251-0.24-0.539-0.336-0.851c-0.588,0.768-1.26,1.379-2.003,1.835l-0.528-0.684
			c0.888-0.517,1.655-1.248,2.279-2.195c-0.072-0.336-0.12-0.684-0.168-1.067c-0.156-1.199-0.252-2.734-0.288-4.581h-4.258v-0.816
			h4.246V211.734z M392.558,213.737v3.383h-3.047v-3.383H392.558z M391.79,214.457h-1.523v1.955h1.523V214.457z"/>
		<path style="fill:#878787;" d="M401.451,221.065h-0.863v-4.233c-0.744,0.24-1.523,0.456-2.363,0.659l-0.455-0.827
			c2.074-0.432,3.802-0.983,5.181-1.679c-0.527-0.444-1.247-0.924-2.158-1.439l0.743-0.468c0.911,0.563,1.631,1.067,2.146,1.511
			c1.224-0.731,2.111-1.583,2.675-2.566h-4.438c-0.815,0.756-1.847,1.428-3.118,2.027l-0.576-0.744
			c2.052-0.875,3.431-1.955,4.15-3.226l0.947,0.107c-0.192,0.36-0.408,0.695-0.647,1.02h4.677v0.768
			c-0.863,1.644-2.41,2.986-4.665,4.03h5.001v5.061h-0.875v-0.707h-5.361v0.706H401.451z M406.812,216.808h-5.361v2.711h5.361
			V216.808z"/>
		<path style="fill:#878787;" d="M413.079,210.164v1.967h1.8v0.839h-1.8v2.147h2.339v0.827h-2.771
			c-0.516,1.464-0.959,2.519-1.343,3.179c0.863-0.156,1.715-0.372,2.566-0.66c-0.264-0.504-0.516-0.972-0.779-1.391l0.72-0.336
			c0.539,0.875,1.043,1.835,1.522,2.878l-0.755,0.36c-0.12-0.288-0.24-0.564-0.36-0.815c-1.199,0.371-2.507,0.671-3.91,0.899
			l-0.203-0.756c0.071-0.024,0.132-0.06,0.18-0.084c0.372-0.408,0.863-1.499,1.487-3.274h-1.859v-0.827h2.303v-2.147h-1.967v-0.839
			h1.967v-1.967H413.079z M417.673,210.176v2.435h2.507c0,3.802-0.072,6.141-0.204,7.017c-0.12,0.887-0.672,1.343-1.655,1.343
			c-0.204,0-0.539-0.024-1.02-0.048l-0.216-0.792c0.42,0.024,0.78,0.036,1.092,0.036c0.575,0,0.899-0.275,0.995-0.827
			c0.108-0.636,0.168-2.591,0.18-5.877h-1.69c-0.072,3.479-0.863,6.032-2.375,7.676l-0.636-0.563
			c1.367-1.499,2.075-3.874,2.147-7.112h-1.416v-0.852h1.428v-2.435L417.673,210.176L417.673,210.176z"/>
		<path style="fill:#878787;" d="M422.093,220.994l-0.18-0.84c0.324,0.023,0.636,0.048,0.936,0.048c0.312,0,0.468-0.168,0.468-0.491
			v-2.903c-0.479,0.168-0.972,0.336-1.476,0.48l-0.216-0.864c0.576-0.132,1.14-0.287,1.691-0.468v-2.71h-1.463v-0.84h1.463v-2.267
			h0.888v2.267h1.235v0.84h-1.235v2.375c0.432-0.181,0.863-0.384,1.295-0.6v0.875c-0.432,0.204-0.863,0.396-1.295,0.576v3.454
			c0,0.707-0.36,1.067-1.056,1.067h-1.055V220.994z M430.129,215.849v-0.899h0.863v0.899h1.644v0.827h-1.644v3.251
			c0,0.719-0.359,1.079-1.056,1.079h-1.619l-0.191-0.828c0.527,0.024,1.031,0.049,1.511,0.049c0.324,0,0.492-0.181,0.492-0.516
			v-3.035h-4.294v-0.827L430.129,215.849L430.129,215.849z M429.601,210.104v1.283h2.375v0.78h-2.375v1.438h2.879v0.815h-6.561
			v-0.815h2.795v-1.438h-2.352v-0.78h2.352v-1.283H429.601z M428.558,219.051l-0.684,0.492c-0.396-0.6-0.936-1.248-1.607-1.955
			l0.672-0.42C427.634,217.888,428.174,218.523,428.558,219.051z"/>
		<path style="fill:#878787;" d="M435.412,212.454v-2.339h0.852v2.339h1.235v0.828h-1.235v0.611
			c0.479,0.527,0.972,1.128,1.476,1.799l-0.492,0.731c-0.384-0.684-0.707-1.247-0.983-1.679v6.297h-0.852v-5.865
			c-0.384,1.176-0.863,2.255-1.463,3.238l-0.372-0.947c0.852-1.224,1.464-2.627,1.823-4.186h-1.487v-0.828h1.498L435.412,212.454
			L435.412,212.454z M437.835,214.854l-0.468-0.732c1.415-1.019,2.519-2.351,3.286-3.993h0.792c0.647,1.511,1.751,2.83,3.322,3.97
			l-0.468,0.731c-0.516-0.372-0.983-0.768-1.392-1.188v0.731h-3.646v-0.768C438.807,214.086,438.339,214.493,437.835,214.854z
			 M441.793,219.902c0.491-1.283,0.924-2.854,1.295-4.726l0.828,0.216c-0.336,1.691-0.768,3.19-1.271,4.51h1.871v0.84h-6.872v-0.84
			H441.793z M439.862,218.991l-0.756,0.203c-0.24-1.199-0.527-2.338-0.863-3.441l0.743-0.252
			C439.322,216.508,439.61,217.672,439.862,218.991z M441.049,210.979c-0.527,1.02-1.115,1.883-1.763,2.603h3.562
			C442.093,212.803,441.493,211.938,441.049,210.979z M441.661,218.415l-0.792,0.204c-0.204-1.151-0.468-2.255-0.779-3.311
			l0.743-0.239C441.146,216.04,441.421,217.156,441.661,218.415z"/>
		<path style="fill:#878787;" d="M447.964,215.045l-0.563,0.563c-0.42-0.552-0.983-1.139-1.691-1.763l0.576-0.563
			C446.957,213.87,447.509,214.457,447.964,215.045z M448.084,216.796c-0.456,1.476-0.972,2.866-1.523,4.162l-0.791-0.336
			c0.6-1.344,1.127-2.711,1.583-4.114L448.084,216.796z M448.192,211.986l-0.564,0.564c-0.42-0.516-0.995-1.067-1.738-1.644
			l0.587-0.563C447.16,210.896,447.736,211.435,448.192,211.986z M451.034,212.263v3.802c-0.023,1.367-0.239,2.459-0.647,3.274
			c-0.396,0.743-1.043,1.343-1.931,1.774L448,220.395c0.863-0.408,1.463-0.948,1.799-1.619c0.312-0.696,0.492-1.596,0.516-2.711
			v-3.802H451.034z M452.678,218.008h-0.768v-6.573h-2.482v6.645h-0.768v-7.388h4.018V218.008z M453.229,220.526l-0.576,0.575
			c-0.432-0.636-1.02-1.308-1.787-2.026l0.528-0.504C452.126,219.219,452.737,219.878,453.229,220.526z M454.381,211.159v7.483
			h-0.756v-7.483H454.381z M453.949,221.006l-0.181-0.804c0.42,0.036,0.828,0.06,1.212,0.06c0.275,0,0.42-0.168,0.42-0.479v-9.606
			h0.815v9.811c0,0.672-0.324,1.02-0.948,1.02h-1.318L453.949,221.006L453.949,221.006z"/>
	</g>
</g>
<g id="Link4_1_" transform="translate(0,0)">
	<path style="fill:none;stroke:#888888;" d="M490.51,121.402h53l0,0h71"/>
	<g transform="translate(-0.5, 0)">
		<polygon style="fill:#888888;" points="610.51,116.902 616.51,121.402 610.51,125.902 		"/>
	</g>
	<path style="fill:none;stroke:#FF0000;stroke-width:15;stroke-opacity:0;" d="M490.51,121.402h53"/>
	<path style="fill:none;stroke:#FF0000;stroke-width:15;stroke-opacity:0;" d="M543.51,121.402h71"/>
</g>
<g id="Link5_1_" transform="translate(0,0)">
	<path style="fill:none;stroke:#888888;" d="M207.51,121.402h53l0,0h70"/>
	<g transform="translate(-0.5, 0)">
		<polygon style="fill:#888888;" points="326.51,116.902 332.51,121.402 326.51,125.902 		"/>
	</g>
	<path style="fill:none;stroke:#FF0000;stroke-width:15;stroke-opacity:0;" d="M207.51,121.402h53"/>
	<path style="fill:none;stroke:#FF0000;stroke-width:15;stroke-opacity:0;" d="M260.51,121.402h70"/>
</g>
<rect x="338.51" y="98.902" style="opacity:0.6;fill:#BBBBBB;enable-background:new    ;" width="151.02" height="50"/>
<rect x="340.51" y="96.902" style="fill:#FFFFFF;stroke:#E5E5E5;" width="151.02" height="50"/>
<path style="fill:#00A4FF;" d="M372.51,134.902c-7.18,0.008-13.007-5.805-13.015-12.985c-0.008-7.18,5.805-13.007,12.985-13.015
	c6.413-0.008,11.874,4.663,12.86,11h2c-1.105-8.21-8.656-13.971-16.866-12.866s-13.971,8.656-12.866,16.866
	s8.656,13.971,16.866,12.866c6.697-0.901,11.965-6.169,12.866-12.866h-2C384.355,130.228,378.912,134.894,372.51,134.902z"/>
<g style="enable-background:new    ;">
	<path style="fill:#444444;" d="M399.104,116.901c1.583,0,2.773,0.448,3.586,1.372c0.742,0.841,1.12,2.06,1.12,3.628
		c0,1.541-0.405,2.76-1.204,3.628c-0.841,0.911-2.045,1.373-3.614,1.373h-3.474v-10.001H399.104z M396.667,125.908h2.129
		c1.303,0,2.283-0.351,2.942-1.037c0.616-0.672,0.938-1.667,0.938-2.97c0-1.345-0.295-2.339-0.869-2.983
		c-0.616-0.687-1.568-1.022-2.885-1.022h-2.256v8.012C396.666,125.908,396.667,125.908,396.667,125.908z"/>
	<path style="fill:#444444;" d="M406.607,116.901l5.658,8.138h0.042v-8.138h1.149v10.001h-1.177l-5.688-8.223h-0.042v8.223h-1.148
		v-10.001H406.607z"/>
	<path style="fill:#444444;" d="M421.491,117.476c0.673,0.532,1.051,1.33,1.148,2.381h-1.134c-0.126-0.729-0.406-1.261-0.841-1.61
		c-0.448-0.364-1.078-0.533-1.891-0.533c-0.743,0-1.317,0.112-1.737,0.364c-0.477,0.28-0.715,0.701-0.715,1.275
		c0,0.504,0.28,0.91,0.854,1.219c0.253,0.14,0.869,0.35,1.835,0.63c1.317,0.393,2.186,0.715,2.605,0.967
		c0.827,0.504,1.247,1.204,1.247,2.115c0,0.868-0.351,1.568-1.051,2.073c-0.7,0.49-1.639,0.742-2.829,0.742
		c-1.177,0-2.102-0.252-2.773-0.757c-0.785-0.603-1.219-1.513-1.303-2.745h1.135c0.098,0.868,0.406,1.513,0.91,1.919
		c0.462,0.364,1.135,0.561,2.031,0.561c0.812,0,1.484-0.154,1.989-0.463c0.504-0.308,0.756-0.729,0.756-1.261
		c0-0.63-0.336-1.12-0.994-1.471c-0.28-0.168-0.995-0.406-2.115-0.729c-1.205-0.363-1.976-0.644-2.298-0.812
		c-0.77-0.448-1.148-1.093-1.148-1.934c0-0.868,0.364-1.555,1.106-2.031c0.659-0.448,1.514-0.672,2.55-0.672
		C419.95,116.705,420.847,116.957,421.491,117.476z"/>
	<path style="fill:#444444;" d="M427.847,115.528v2.297h2.101v0.98h-2.101v2.508h2.731v0.967h-3.236
		c-0.603,1.708-1.12,2.941-1.568,3.712c1.008-0.183,2.003-0.435,2.997-0.771c-0.308-0.589-0.602-1.135-0.91-1.625l0.841-0.393
		c0.63,1.022,1.218,2.144,1.778,3.362l-0.882,0.42c-0.141-0.336-0.28-0.658-0.421-0.952c-1.4,0.434-2.928,0.784-4.566,1.05
		l-0.238-0.882c0.084-0.028,0.154-0.07,0.211-0.099c0.434-0.476,1.008-1.751,1.736-3.823h-2.171v-0.967h2.689v-2.508h-2.298v-0.98
		h2.298v-2.297h1.009L427.847,115.528L427.847,115.528z M433.211,115.542v2.844h2.928c0,4.44-0.084,7.172-0.238,8.194
		c-0.14,1.037-0.784,1.569-1.933,1.569c-0.238,0-0.631-0.028-1.19-0.057l-0.253-0.924c0.49,0.027,0.911,0.042,1.275,0.042
		c0.672,0,1.05-0.322,1.162-0.967c0.126-0.742,0.196-3.025,0.21-6.864h-1.975c-0.084,4.062-1.009,7.046-2.773,8.965l-0.742-0.658
		c1.597-1.751,2.423-4.524,2.507-8.307h-1.652v-0.994h1.667v-2.844h1.007L433.211,115.542L433.211,115.542z"/>
	<path style="fill:#444444;" d="M438.358,128.177l-0.21-0.98c0.378,0.028,0.742,0.057,1.093,0.057c0.364,0,0.546-0.196,0.546-0.575
		v-3.39c-0.561,0.196-1.135,0.393-1.723,0.561l-0.252-1.009c0.672-0.153,1.33-0.336,1.975-0.546v-3.166h-1.709v-0.98h1.709V115.5
		h1.037v2.647h1.442v0.98h-1.442v2.773c0.504-0.21,1.008-0.448,1.513-0.7v1.022c-0.505,0.238-1.009,0.463-1.513,0.673v4.034
		c0,0.826-0.421,1.246-1.233,1.246h-1.233L438.358,128.177L438.358,128.177z M447.743,122.168v-1.051h1.009v1.051h1.919v0.967
		h-1.919v3.796c0,0.84-0.42,1.261-1.232,1.261h-1.892l-0.224-0.967c0.616,0.028,1.204,0.056,1.765,0.056
		c0.379,0,0.574-0.21,0.574-0.603v-3.543h-5.015v-0.967H447.743z M447.127,115.458v1.499h2.773v0.91h-2.773v1.682h3.362v0.952
		h-7.662v-0.952h3.264v-1.682h-2.746v-0.91h2.746v-1.499H447.127z M445.908,125.908l-0.798,0.574
		c-0.463-0.701-1.093-1.457-1.877-2.283l0.784-0.49C444.83,124.549,445.46,125.291,445.908,125.908z"/>
	<path style="fill:#444444;" d="M453.899,118.204v-2.731h0.994v2.731h1.443v0.966h-1.443v0.715c0.561,0.616,1.135,1.316,1.724,2.101
		l-0.575,0.854c-0.448-0.798-0.826-1.456-1.148-1.961v7.354H453.9v-6.85c-0.448,1.372-1.009,2.633-1.709,3.781l-0.435-1.106
		c0.995-1.429,1.709-3.067,2.129-4.889h-1.736v-0.966h1.75V118.204z M456.729,121.005l-0.546-0.854
		c1.652-1.19,2.941-2.745,3.838-4.664h0.925c0.756,1.765,2.045,3.306,3.88,4.637l-0.546,0.854c-0.603-0.435-1.149-0.896-1.625-1.387
		v0.854h-4.259v-0.896C457.863,120.108,457.317,120.585,456.729,121.005z M461.352,126.902c0.574-1.499,1.078-3.334,1.513-5.519
		l0.967,0.252c-0.393,1.975-0.896,3.726-1.485,5.267h2.186v0.98h-8.026v-0.98H461.352z M459.096,125.838l-0.882,0.238
		c-0.28-1.401-0.616-2.731-1.009-4.021l0.868-0.294C458.466,122.938,458.802,124.297,459.096,125.838z M460.482,116.48
		c-0.616,1.19-1.303,2.199-2.059,3.04h4.16C461.701,118.609,461.001,117.602,460.482,116.48z M461.197,125.165l-0.925,0.238
		c-0.238-1.345-0.546-2.633-0.91-3.866l0.868-0.28C460.595,122.392,460.917,123.694,461.197,125.165z"/>
	<path style="fill:#444444;" d="M468.544,121.229l-0.659,0.658c-0.49-0.645-1.148-1.331-1.975-2.06l0.673-0.658
		C467.367,119.856,468.012,120.543,468.544,121.229z M468.684,123.274c-0.532,1.723-1.135,3.348-1.779,4.86l-0.924-0.392
		c0.7-1.569,1.316-3.166,1.849-4.805L468.684,123.274z M468.81,117.657l-0.658,0.658c-0.49-0.603-1.163-1.246-2.031-1.919
		l0.687-0.658C467.605,116.383,468.277,117.013,468.81,117.657z M472.13,117.979v4.44c-0.028,1.597-0.28,2.871-0.757,3.824
		c-0.462,0.868-1.219,1.568-2.255,2.073l-0.532-0.841c1.008-0.477,1.709-1.106,2.101-1.891c0.364-0.812,0.574-1.863,0.603-3.166
		v-4.44h0.84V117.979z M474.049,124.689h-0.896v-7.677h-2.899v7.761h-0.896v-8.629h4.692v8.545H474.049z M474.693,127.631
		l-0.673,0.672c-0.504-0.742-1.19-1.526-2.087-2.367l0.616-0.588C473.404,126.104,474.118,126.874,474.693,127.631z M476.038,116.69
		v8.741h-0.883v-8.741H476.038z M475.533,128.191l-0.21-0.938c0.49,0.042,0.967,0.069,1.415,0.069c0.322,0,0.49-0.195,0.49-0.56
		v-11.221h0.952V127c0,0.785-0.378,1.191-1.106,1.191H475.533z"/>
</g>
<g id="RectEndPoint2_1_" transform="translate(603,264)">
	<rect x="20.51" y="-165.097" style="opacity:0.6;fill:#BBBBBB;enable-background:new    ;" width="100.656" height="50"/>
	<rect x="18.51" y="-167.097" style="fill:#FFFFFF;stroke:#E5E5E5;" width="100.656" height="50"/>
	<g transform="translate(20 9)">
		<g style="enable-background:new    ;">
			<path style="fill:#444444;" d="M10.152-157.22c-0.743,0.462-1.135,1.064-1.177,1.807c0.056-0.027,0.126-0.027,0.224-0.027
				c0.238,0,0.448,0.069,0.616,0.224c0.154,0.141,0.238,0.336,0.238,0.589c0,0.252-0.084,0.462-0.238,0.616
				c-0.168,0.14-0.378,0.224-0.616,0.224c-0.672,0-1.009-0.462-1.009-1.358c0-1.219,0.519-2.115,1.583-2.676L10.152-157.22z
				 M12.911-157.22c-0.729,0.462-1.12,1.064-1.177,1.807c0.057-0.027,0.127-0.027,0.225-0.027c0.252,0,0.448,0.069,0.616,0.224
				c0.154,0.141,0.238,0.336,0.238,0.589c0,0.252-0.084,0.462-0.238,0.616c-0.168,0.14-0.364,0.224-0.603,0.224
				c-0.687,0-1.022-0.462-1.022-1.358c0-1.219,0.532-2.115,1.597-2.676L12.911-157.22z"/>
			<path style="fill:#444444;" d="M14.91-148.647l-0.294-1.008c1.568-1.64,2.605-3.222,3.123-4.763h-2.857v-0.925h1.695
				c-0.225-0.672-0.477-1.331-0.757-1.947l0.967-0.266c0.309,0.729,0.546,1.4,0.714,2.003l-0.532,0.21h1.724v0.826
				c-0.295,1.009-0.757,2.004-1.401,2.984v0.084c0.183,0.168,0.364,0.322,0.532,0.49c0.337-0.28,0.659-0.7,0.953-1.233l0.574,0.575
				c-0.309,0.504-0.645,0.91-1.009,1.204c0.322,0.351,0.616,0.715,0.896,1.093l-0.546,0.826c-0.463-0.742-0.925-1.387-1.401-1.919
				v5.729h-0.98v-5.505C15.891-149.67,15.414-149.151,14.91-148.647z M23.917-157.542v1.695h3.096v0.49
				c-0.126,0.812-0.322,1.61-0.589,2.396l-0.91-0.253c0.183-0.504,0.351-1.078,0.49-1.694h-2.087v2.871h2.438v0.869
				c-0.337,1.471-0.925,2.717-1.793,3.739c0.798,0.701,1.778,1.303,2.955,1.821l-0.546,0.883c-1.205-0.589-2.228-1.261-3.04-2.018
				c-0.896,0.841-1.989,1.527-3.277,2.045l-0.505-0.896c1.219-0.476,2.241-1.092,3.068-1.849c-0.98-1.078-1.639-2.297-1.976-3.67
				h-0.504v0.154c-0.014,2.423-0.561,4.496-1.639,6.205l-0.827-0.715c0.953-1.429,1.457-3.249,1.499-5.463v-4.916h3.138v-1.695
				L23.917-157.542L23.917-157.542z M20.737-154.908v2.871h2.171v-2.871H20.737z M25.401-151.112h-3.249
				c0.308,1.12,0.882,2.115,1.694,2.997C24.562-148.983,25.079-149.978,25.401-151.112z"/>
			<path style="fill:#444444;" d="M32.566-157.472v2.297h2.101v0.98h-2.101v2.508h2.731v0.967h-3.236
				c-0.603,1.708-1.12,2.941-1.568,3.712c1.008-0.183,2.003-0.435,2.997-0.771c-0.308-0.589-0.602-1.135-0.91-1.625l0.841-0.393
				c0.63,1.022,1.218,2.144,1.778,3.362l-0.882,0.42c-0.141-0.336-0.28-0.658-0.421-0.952c-1.4,0.434-2.928,0.784-4.566,1.05
				l-0.238-0.882c0.084-0.028,0.154-0.07,0.211-0.099c0.434-0.476,1.008-1.751,1.736-3.823h-2.171v-0.967h2.689v-2.508H29.26v-0.98
				h2.298v-2.297L32.566-157.472L32.566-157.472z M37.931-157.458v2.844h2.928c0,4.44-0.084,7.172-0.238,8.194
				c-0.14,1.037-0.784,1.569-1.933,1.569c-0.238,0-0.631-0.028-1.19-0.057l-0.253-0.924c0.49,0.027,0.911,0.042,1.275,0.042
				c0.672,0,1.05-0.322,1.162-0.967c0.126-0.742,0.196-3.025,0.21-6.864h-1.975c-0.084,4.062-1.009,7.046-2.773,8.965l-0.742-0.658
				c1.597-1.751,2.423-4.524,2.507-8.307h-1.652v-0.994h1.667v-2.844h1.007C37.931-157.459,37.931-157.458,37.931-157.458z"/>
			<path style="fill:#444444;" d="M43.078-144.823l-0.21-0.98c0.378,0.028,0.742,0.057,1.093,0.057c0.364,0,0.546-0.196,0.546-0.575
				v-3.39c-0.561,0.196-1.135,0.393-1.723,0.561l-0.252-1.009c0.672-0.153,1.33-0.336,1.975-0.546v-3.166h-1.709v-0.98h1.709v-2.647
				h1.037v2.647h1.442v0.98h-1.442v2.773c0.504-0.21,1.008-0.448,1.513-0.7v1.022c-0.505,0.238-1.009,0.463-1.513,0.673v4.034
				c0,0.826-0.421,1.246-1.233,1.246L43.078-144.823L43.078-144.823z M52.463-150.832v-1.051h1.009v1.051h1.919v0.967h-1.919v3.796
				c0,0.84-0.42,1.261-1.232,1.261h-1.892l-0.224-0.967c0.616,0.028,1.204,0.056,1.765,0.056c0.379,0,0.574-0.21,0.574-0.603v-3.543
				h-5.015v-0.967L52.463-150.832L52.463-150.832z M51.847-157.542v1.499h2.773v0.91h-2.773v1.682h3.362v0.952h-7.662v-0.952h3.264
				v-1.682h-2.746v-0.91h2.746v-1.499H51.847z M50.628-147.092l-0.798,0.574c-0.463-0.701-1.093-1.457-1.877-2.283l0.784-0.49
				C49.55-148.451,50.18-147.709,50.628-147.092z"/>
			<path style="fill:#444444;" d="M58.171-153.815v-3.698h0.994v3.698h1.331v0.98h-1.331v4.229c0.448-0.195,0.896-0.42,1.317-0.644
				v1.008c-1.107,0.589-2.298,1.079-3.559,1.472l-0.252-1.023c0.504-0.126,1.009-0.266,1.499-0.434v-4.608h-1.373v-0.98H58.171z
				 M64.754-147.568c-1.372,0.532-2.857,0.98-4.454,1.345l-0.238-0.967c1.625-0.28,3.194-0.714,4.692-1.288V-147.568z
				 M65.469-155.637c-0.014-0.616-0.014-1.247-0.014-1.891h0.98c0,0.658,0,1.288,0.014,1.891h1.429
				c-0.196-0.532-0.393-1.009-0.616-1.443l0.91-0.153c0.183,0.462,0.364,0.994,0.547,1.597h0.687v0.952h-2.942
				c0.042,2.157,0.141,3.923,0.295,5.281c0.546-1.177,0.98-2.535,1.288-4.104l0.868,0.364c-0.462,2.102-1.106,3.866-1.933,5.267
				c0.28,1.331,0.588,2.018,0.952,2.073c0.28-0.027,0.547-0.742,0.827-2.115l0.756,0.616c-0.448,1.682-0.966,2.521-1.583,2.521
				c-0.462,0-0.868-0.364-1.232-1.092c-0.14-0.295-0.28-0.631-0.392-0.995c-0.687,0.896-1.472,1.611-2.34,2.144l-0.616-0.799
				c1.036-0.603,1.933-1.457,2.661-2.563c-0.084-0.392-0.14-0.798-0.195-1.246c-0.183-1.401-0.295-3.194-0.337-5.352H60.51v-0.952
				L65.469-155.637L65.469-155.637z M64.628-153.298v3.95H61.07v-3.95H64.628z M63.731-152.457h-1.778v2.283h1.778V-152.457z"/>
			<path style="fill:#444444;" d="M75-144.739h-1.008v-4.944c-0.869,0.28-1.779,0.532-2.76,0.771L70.7-149.88
				c2.423-0.504,4.44-1.148,6.051-1.961c-0.616-0.519-1.457-1.078-2.521-1.681l0.869-0.547c1.064,0.659,1.904,1.247,2.507,1.766
				c1.429-0.854,2.466-1.85,3.124-2.998h-5.183c-0.953,0.883-2.157,1.667-3.643,2.367l-0.672-0.868
				c2.396-1.022,4.006-2.283,4.847-3.769l1.106,0.127c-0.225,0.42-0.477,0.812-0.757,1.19h5.463v0.896
				c-1.008,1.919-2.815,3.487-5.448,4.706h5.841v5.911h-1.022v-0.826H75V-144.739z M81.262-149.712H75v3.166h6.262V-149.712z"/>
			<path style="fill:#444444;" d="M87.109-156.463c0,1.204-0.532,2.101-1.583,2.675l-0.378-0.603
				c0.729-0.476,1.12-1.078,1.177-1.807c-0.057,0.014-0.141,0.028-0.225,0.028c-0.252,0-0.448-0.084-0.616-0.225
				c-0.168-0.153-0.238-0.35-0.238-0.588c0-0.252,0.07-0.462,0.238-0.616c0.154-0.154,0.364-0.225,0.616-0.225
				C86.773-157.822,87.109-157.374,87.109-156.463z M89.869-156.463c0,1.204-0.532,2.101-1.583,2.675l-0.379-0.603
				c0.729-0.476,1.121-1.078,1.177-1.807c-0.056,0.014-0.14,0.028-0.224,0.028c-0.252,0-0.448-0.084-0.603-0.225
				c-0.168-0.153-0.252-0.35-0.252-0.588c0-0.252,0.07-0.462,0.238-0.616c0.153-0.154,0.364-0.225,0.616-0.225
				C89.532-157.822,89.869-157.374,89.869-156.463z"/>
		</g>
	</g>
</g>
<rect x="112.51" y="98.902" style="opacity:0.6;fill:#BBBBBB;enable-background:new    ;" width="97" height="50"/>
<rect x="110.51" y="96.902" style="fill:#FFFFFF;stroke:#E5E5E5;" width="97" height="50"/>
<g transform="translate(20 9)">
	<g style="enable-background:new    ;">
		<path style="fill:#444444;" d="M109.054,111.879l-0.714,0.715c-0.519-0.561-1.233-1.148-2.157-1.793l0.729-0.7
			C107.751,110.688,108.466,111.291,109.054,111.879z M109.194,114.513c-0.589,1.639-1.233,3.18-1.961,4.608l-0.939-0.406
			c0.785-1.484,1.457-2.998,2.031-4.538L109.194,114.513z M109.278,108.419l-0.715,0.729c-0.532-0.561-1.246-1.148-2.157-1.765
			l0.715-0.687C107.976,107.257,108.689,107.831,109.278,108.419z M110.763,109.652h7.116c-0.042,1.232-0.084,2.325-0.112,3.277
			h1.19v0.938h-1.232c-0.056,1.022-0.098,1.849-0.14,2.493h1.148v0.869h-1.219c-0.042,0.392-0.084,0.63-0.112,0.742
			c-0.14,0.448-0.406,0.784-0.799,1.008c-0.392,0.196-0.952,0.295-1.708,0.295c-0.351,0-0.757,0.014-1.219,0.014l-0.295-0.925
			c0.505,0.028,0.967,0.057,1.387,0.057c0.379,0,0.715-0.042,1.023-0.112c0.308-0.098,0.532-0.309,0.672-0.631
			c0.028-0.069,0.056-0.224,0.084-0.447h-6.668c0.225-1.121,0.421-2.242,0.561-3.362h-1.4v-0.938h1.499
			c0.111-1.078,0.182-2.171,0.21-3.264c-0.294,0.378-0.603,0.729-0.925,1.051l-0.645-0.771c0.953-0.911,1.724-2.102,2.325-3.586
			l1.009,0.21c-0.14,0.35-0.294,0.687-0.448,0.994h6.472v0.938h-6.99C111.295,108.909,111.043,109.288,110.763,109.652z
			 M111.001,116.361h5.631c0.042-0.63,0.084-1.457,0.141-2.493h-5.379C111.281,114.765,111.155,115.605,111.001,116.361z
			 M116.898,110.549h-5.239c-0.042,0.84-0.098,1.639-0.168,2.381h5.323C116.842,112.201,116.87,111.402,116.898,110.549z
			 M115.161,115.549l-0.658,0.645c-0.42-0.477-0.994-0.994-1.723-1.541l0.63-0.616C114.11,114.541,114.685,115.045,115.161,115.549z
			 M115.302,112.159l-0.645,0.645c-0.421-0.448-1.009-0.91-1.751-1.401l0.63-0.616C114.236,111.234,114.825,111.697,115.302,112.159
			z"/>
		<path style="fill:#444444;" d="M132.789,110.87v0.757h-12.551v-0.757H132.789z M131.402,112.327v3.572h-4.398v0.784h4.749v0.673
			h-4.749v0.826h5.771v0.784h-12.523v-0.784h5.743v-0.826h-4.692v-0.673h4.692v-0.784h-4.342v-3.572H131.402z M131.108,106.683v3.46
			h-9.147v-3.46H131.108z M125.995,113.826v-0.868h-3.375v0.868H125.995z M125.995,114.414h-3.375v0.854h3.375V114.414z
			 M130.128,108.111v-0.812h-7.187v0.812H130.128z M130.128,108.713h-7.187v0.827h7.187V108.713z M127.004,113.826h3.432v-0.868
			h-3.432C127.004,112.958,127.004,113.826,127.004,113.826z M130.436,114.414h-3.432v0.854h3.432V114.414z"/>
		<path style="fill:#444444;" d="M134.561,119.177l-0.21-0.98c0.378,0.028,0.742,0.057,1.093,0.057c0.364,0,0.546-0.196,0.546-0.575
			v-3.417c-0.574,0.21-1.148,0.406-1.737,0.588L134,113.84c0.687-0.168,1.345-0.364,1.989-0.602v-3.124h-1.709v-0.967h1.709V106.5
			h1.037v2.647h1.162v0.967h-1.162v2.718c0.42-0.196,0.84-0.393,1.246-0.603v1.022l-1.246,0.588v4.091
			c0,0.826-0.421,1.246-1.233,1.246L134.561,119.177L134.561,119.177z M138.805,114.106v-0.967h3.264v-1.555h1.022v1.555h3.362
			v0.967h-2.493c0.616,1.261,1.61,2.396,3.012,3.39l-0.659,0.812c-1.484-1.261-2.521-2.661-3.123-4.202h-0.099v5.141h-1.022v-5.141
			h-0.098c-0.673,1.736-1.807,3.166-3.404,4.3l-0.532-0.868c1.457-0.896,2.508-2.045,3.166-3.432H138.805z M146.341,109.652h-0.967
			v-1.695h-5.49v1.723h-0.967v-2.661h7.424V109.652z M142.026,109.288c-0.588,1.232-1.372,2.171-2.325,2.815l-0.729-0.631
			c0.98-0.63,1.709-1.471,2.199-2.521L142.026,109.288z M146.019,111.487l-0.798,0.574c-0.532-0.841-1.275-1.766-2.214-2.773
			l0.743-0.477C144.744,109.834,145.5,110.73,146.019,111.487z"/>
		<path style="fill:#444444;" d="M150.746,112.229l-0.659,0.658c-0.49-0.645-1.148-1.331-1.975-2.06l0.673-0.658
			C149.569,110.856,150.214,111.543,150.746,112.229z M150.886,114.274c-0.532,1.723-1.135,3.348-1.779,4.86l-0.924-0.392
			c0.7-1.569,1.316-3.166,1.849-4.805L150.886,114.274z M151.012,108.657l-0.658,0.658c-0.49-0.603-1.163-1.246-2.031-1.919
			l0.687-0.658C149.808,107.383,150.479,108.013,151.012,108.657z M154.332,108.979v4.44c-0.028,1.597-0.28,2.871-0.757,3.824
			c-0.462,0.868-1.219,1.568-2.255,2.073l-0.532-0.841c1.008-0.477,1.709-1.106,2.101-1.891c0.364-0.812,0.574-1.863,0.603-3.166
			v-4.44h0.84L154.332,108.979L154.332,108.979z M156.251,115.689h-0.896v-7.677h-2.899v7.761h-0.896v-8.629h4.692v8.545H156.251z
			 M156.896,118.631l-0.673,0.672c-0.504-0.742-1.19-1.526-2.087-2.367l0.616-0.588C155.606,117.104,156.32,117.874,156.896,118.631
			z M158.24,107.69v8.741h-0.883v-8.741H158.24z M157.735,119.191l-0.21-0.938c0.49,0.042,0.967,0.069,1.415,0.069
			c0.322,0,0.49-0.195,0.49-0.56v-11.221h0.952V118c0,0.785-0.378,1.191-1.106,1.191H157.735z"/>
		<path style="fill:#444444;" d="M164.802,116.096c-0.532,1.219-1.135,2.269-1.835,3.165l-0.826-0.602
			c0.7-0.827,1.303-1.821,1.807-2.97L164.802,116.096z M168.78,106.486v1.358h5.435v0.953h-5.435v1.778h4.468v4.497h-9.272v-4.497
			h3.81v-4.09L168.78,106.486L168.78,106.486z M172.24,111.529h-7.257v2.605h7.257V111.529z M167.758,119.107l-1.009,0.224
			c-0.196-1.148-0.421-2.157-0.687-3.04l0.938-0.195C167.281,117.02,167.533,118.028,167.758,119.107z M171.021,119.079
			l-0.995,0.224c-0.28-1.19-0.63-2.241-1.051-3.151l0.953-0.196C170.349,116.908,170.713,117.958,171.021,119.079z M174.845,118.743
			l-0.84,0.588c-0.49-0.952-1.163-1.989-2.018-3.138l0.812-0.519C173.696,116.852,174.369,117.874,174.845,118.743z"/>
	</g>
</g>
<rect x="252.51" y="96.901" style="fill:#CEE3FF;fill-opacity:0;" width="80" height="20"/>
<g transform="translate(0 0)">
	<g style="enable-background:new    ;">
		<path style="fill:#444444;" d="M252.557,104.771v5.266c0.359-0.336,0.731-0.708,1.139-1.128l0.229,0.912
			c-0.672,0.695-1.392,1.319-2.135,1.858l-0.336-0.768c0.18-0.168,0.275-0.348,0.275-0.552V105.6h-1.715v-0.828L252.557,104.771
			L252.557,104.771z M253.492,103.057l-0.588,0.6c-0.504-0.575-1.188-1.188-2.051-1.835l0.611-0.588
			C252.269,101.833,252.94,102.445,253.492,103.057z M257.701,101.102v0.779h2.975v0.708h-2.975v0.804h2.543v0.695h-2.543v0.815
			h3.274v0.72h-7.34v-0.72h3.238v-0.815h-2.423v-0.695h2.423v-0.804h-2.902v-0.708h2.902v-0.779H257.701z M255.375,112.1h-0.828
			v-5.721h5.529v4.678c0,0.647-0.348,0.971-1.02,0.971h-1.008l-0.203-0.768l0.959,0.036c0.288,0,0.444-0.144,0.444-0.42v-0.684
			h-3.874L255.375,112.1C255.374,112.1,255.375,112.1,255.375,112.1z M259.249,107.087h-3.874v0.887h3.874V107.087z
			 M255.375,109.521h3.874v-0.876h-3.874V109.521z"/>
		<path style="fill:#444444;" d="M267.146,103.309v-2.243h0.888v2.243h2.711c-0.444-0.516-1.031-1.056-1.751-1.631l0.563-0.528
			c0.72,0.528,1.319,1.067,1.799,1.596l-0.563,0.563h1.823v0.827h-4.582v0.696c0.324,0.731,0.72,1.427,1.188,2.074
			c0.852-0.647,1.583-1.379,2.195-2.194l0.635,0.563c-0.659,0.852-1.451,1.596-2.374,2.23c0.899,1.116,2.015,2.1,3.334,2.938
			l-0.6,0.708c-1.943-1.344-3.395-2.975-4.378-4.905v4.665c0,0.744-0.359,1.115-1.079,1.115h-1.619l-0.18-0.827
			c0.527,0.036,1.02,0.06,1.499,0.06c0.323,0,0.491-0.191,0.491-0.563v-3.274c-1.259,1.535-2.734,2.831-4.425,3.862l-0.468-0.779
			c1.847-1.008,3.478-2.375,4.893-4.126v-2.243h-4.773v-0.827H267.146z M265.588,107.135l-0.6,0.587
			c-0.492-0.684-1.176-1.415-2.051-2.194l0.6-0.563C264.353,105.684,265.036,106.415,265.588,107.135z"/>
		<path style="fill:#444444;" d="M276.641,109.209c-0.792,0.3-1.68,0.54-2.675,0.732l-0.108-0.816
			c1.056-0.18,1.991-0.407,2.783-0.695V109.209z M274.182,102.445v-0.792h3.766l-0.575,4.941h0.743c0,2.734-0.12,4.306-0.348,4.726
			c-0.24,0.407-0.731,0.623-1.487,0.623c-0.275,0-0.563-0.012-0.852-0.035l-0.228-0.768c0.42,0.048,0.72,0.071,0.888,0.071
			c0.575,0,0.923-0.191,1.043-0.552c0.12-0.384,0.192-1.475,0.192-3.298h-3.059l0.563-4.113l0.792,0.048l-0.48,3.298h1.416
			l0.527-4.149C277.083,102.445,274.182,102.445,274.182,102.445z M278.535,105.911l-0.456-0.695
			c1.344-1.044,2.387-2.399,3.106-4.066h0.792c0.6,1.535,1.655,2.867,3.142,4.019l-0.467,0.719c-0.517-0.396-0.972-0.815-1.38-1.259
			v0.743h-3.37v-0.743C279.471,105.107,279.015,105.539,278.535,105.911z M282.325,110.853c0.456-1.271,0.863-2.854,1.224-4.737
			l0.827,0.204c-0.336,1.702-0.731,3.214-1.211,4.533h1.811v0.827h-6.548v-0.827H282.325z M280.562,109.905l-0.744,0.18
			c-0.264-1.176-0.611-2.291-1.031-3.37l0.743-0.252C279.914,107.458,280.25,108.609,280.562,109.905z M281.582,101.989
			c-0.48,1.008-1.02,1.871-1.644,2.591h3.298C282.541,103.788,281.989,102.925,281.582,101.989z M282.253,109.39l-0.755,0.18
			c-0.217-1.115-0.504-2.195-0.864-3.227l0.744-0.228C281.701,107.062,281.989,108.154,282.253,109.39z"/>
		<path style="fill:#444444;" d="M288.604,104.771v5.182c0.384-0.336,0.791-0.72,1.235-1.151l0.228,0.923
			c-0.695,0.672-1.427,1.284-2.207,1.823l-0.336-0.779c0.168-0.144,0.252-0.312,0.252-0.504V105.6h-1.738v-0.828L288.604,104.771
			L288.604,104.771z M289.479,103.068l-0.587,0.6c-0.492-0.6-1.151-1.223-1.991-1.883l0.6-0.563
			C288.28,101.846,288.94,102.457,289.479,103.068z M290.104,102.517v-0.852h6.729v0.852h-2.482v3.37h2.314v0.804h-2.314v4.15h2.722
			v0.852h-7.34v-0.852h1.224v-6.345h0.84v6.345h1.679v-8.324C293.476,102.517,290.104,102.517,290.104,102.517z"/>
	</g>
</g>
<rect x="528.51" y="96.901" style="fill:#CEE3FF;fill-opacity:0;" width="80" height="20"/>
<g>
	<path style="fill:#444444;" d="M530.952,112.052h-0.863v-6.225c-0.432,1.271-1.02,2.411-1.739,3.43l-0.396-0.971
		c0.983-1.176,1.69-2.507,2.11-4.006h-1.858v-0.828h1.883v-2.339h0.863v2.339h1.583v0.828h-1.583v0.684
		c0.6,0.575,1.211,1.235,1.823,1.955l-0.492,0.731c-0.516-0.744-0.959-1.344-1.331-1.799V112.052L530.952,112.052z M533.303,102.661
		h-0.479v-0.828h5.396v0.815c-0.348,2.243-1.031,4.174-2.038,5.781c0.768,1.079,1.727,2.062,2.902,2.938l-0.588,0.695
		c-1.128-0.888-2.075-1.858-2.818-2.902c-0.84,1.14-1.871,2.099-3.083,2.891l-0.551-0.695c1.259-0.84,2.303-1.823,3.118-2.963
		C534.095,106.667,533.471,104.76,533.303,102.661z M534.143,102.661c0.144,1.847,0.647,3.502,1.522,4.965
		c0.864-1.439,1.428-3.094,1.716-4.965C537.381,102.661,534.143,102.661,534.143,102.661z"/>
	<path style="fill:#444444;" d="M550.196,104.616c-0.396,1.967-0.924,3.573-1.596,4.809c0.049,0.168,0.108,0.324,0.168,0.468
		c0.312,0.696,0.6,1.044,0.852,1.056c0.204-0.048,0.408-0.707,0.612-1.991l0.804,0.517c-0.168,0.659-0.349,1.223-0.54,1.679
		c-0.24,0.54-0.516,0.815-0.815,0.815c-0.432,0-0.852-0.384-1.283-1.14c-0.108-0.18-0.204-0.371-0.3-0.587
		c-0.48,0.695-1.02,1.235-1.596,1.631l-0.479-0.696c0.659-0.455,1.235-1.091,1.727-1.906c-0.167-0.528-0.323-1.14-0.455-1.812
		c-0.216-1.055-0.36-2.423-0.432-4.102h-5.121v2.543c-0.036,2.53-0.349,4.558-0.948,6.08l-0.731-0.647
		c0.54-1.295,0.828-3.106,0.852-5.433v-3.358h5.925c-0.023-0.456-0.023-0.924-0.023-1.403h0.875c0,0.492,0,0.96,0.012,1.403h1.38
		c-0.168-0.384-0.348-0.743-0.54-1.079l0.804-0.132c0.168,0.359,0.336,0.755,0.491,1.211h0.84v0.815h-2.95
		c0.048,1.355,0.144,2.507,0.288,3.454c0.084,0.527,0.18,1.008,0.275,1.439c0.479-1.104,0.876-2.423,1.163-3.958L550.196,104.616z
		 M542.328,105.252v-0.756h3.862v0.756h-1.607c-0.107,0.455-0.216,0.887-0.336,1.318h1.979v0.696
		c-0.192,0.888-0.492,1.667-0.924,2.339c0.336,0.203,0.66,0.419,0.972,0.659l-0.456,0.66c-0.3-0.24-0.623-0.468-0.983-0.696
		c-0.636,0.744-1.451,1.319-2.446,1.751l-0.42-0.743c0.875-0.36,1.595-0.84,2.159-1.439c-0.492-0.288-1.02-0.575-1.596-0.863
		c0.228-0.563,0.432-1.104,0.624-1.619h-0.888v-0.744h1.14c0.144-0.455,0.275-0.899,0.384-1.318L542.328,105.252L542.328,105.252z
		 M545.471,107.314h-1.463c-0.145,0.456-0.312,0.888-0.48,1.295c0.372,0.18,0.732,0.372,1.092,0.576
		C545.003,108.634,545.279,108.01,545.471,107.314z"/>
	<path style="fill:#444444;" d="M553.417,102.337v8.563h-0.972v-8.563C552.445,102.337,553.417,102.337,553.417,102.337z"/>
	<path style="fill:#444444;" d="M558.72,102.337c1.967,0,2.95,0.84,2.95,2.519c0,1.691-0.996,2.543-2.963,2.543h-2.506v3.502h-0.984
		v-8.563L558.72,102.337L558.72,102.337z M556.201,106.547h2.458c0.696,0,1.199-0.144,1.535-0.42
		c0.324-0.275,0.492-0.695,0.492-1.271c0-0.575-0.168-0.995-0.504-1.247c-0.336-0.288-0.84-0.42-1.523-0.42h-2.458L556.201,106.547
		L556.201,106.547z"/>
	<path style="fill:#444444;" d="M564.408,110.805c1.056-0.24,2.111-0.528,3.154-0.876l0.216,0.815
		c-1.319,0.42-2.746,0.792-4.257,1.115l-0.265-0.803c0.192-0.12,0.288-0.288,0.288-0.516v-9.199h0.863v3.31h3.118v0.84h-3.118
		L564.408,110.805L564.408,110.805z M569.529,111.764c-0.768,0-1.139-0.443-1.139-1.307v-9.199h0.875v3.79
		c1.164-0.336,2.303-0.792,3.406-1.392l0.516,0.708c-1.379,0.671-2.687,1.163-3.922,1.499v4.426c0,0.42,0.168,0.636,0.516,0.636
		h1.764c0.239,0,0.443-0.072,0.6-0.216c0.191-0.192,0.323-0.9,0.384-2.1l0.827,0.276c-0.107,1.379-0.288,2.206-0.552,2.494
		c-0.239,0.24-0.575,0.372-1.031,0.384L569.529,111.764L569.529,111.764z"/>
	<path style="fill:#444444;" d="M577.584,106.667c0.443-1.08,0.708-2.255,0.791-3.526h-3.286v-0.84h4.066v0.636
		c-0.061,1.632-0.396,3.118-1.02,4.45c0.504,0.671,0.972,1.354,1.391,2.026l-0.623,0.624c-0.36-0.6-0.756-1.199-1.188-1.812
		c-0.659,1.151-1.547,2.183-2.65,3.095l-0.504-0.756c1.127-0.863,2.003-1.883,2.627-3.059c-0.672-0.899-1.439-1.822-2.279-2.758
		l0.576-0.54C576.24,105.023,576.937,105.852,577.584,106.667z M582.285,108.298l-0.684,0.479c-0.479-0.827-1.091-1.703-1.835-2.626
		l0.66-0.48C581.229,106.654,581.854,107.53,582.285,108.298z M583.257,103.429v-2.351h0.863v2.351h1.331v0.827h-1.331v6.597
		c0,0.804-0.42,1.211-1.235,1.211h-1.883l-0.18-0.852c0.623,0.036,1.211,0.061,1.763,0.061c0.444,0,0.672-0.216,0.672-0.636v-6.381
		h-3.479v-0.827H583.257z"/>
</g>
<g>
	<path style="fill:#00A4FF;" d="M365.094,119.099l3.187,4.566h0.022v-4.566h0.458v5.267h-0.502l-3.201-4.603h-0.022v4.603h-0.45
		v-5.267H365.094z"/>
	<polygon style="fill:#00A4FF;" points="369.168,124.774 368.046,124.774 365.443,121.028 365.443,124.774 364.179,124.774 
		364.179,118.693 365.307,118.693 367.896,122.402 367.896,118.693 369.168,118.693 	"/>
</g>
<g>
	<path style="fill:#00A4FF;" d="M372.523,119.099c0.819,0,1.438,0.243,1.851,0.738c0.376,0.443,0.568,1.077,0.568,1.896
		c0,0.804-0.214,1.438-0.635,1.903c-0.442,0.487-1.069,0.73-1.881,0.73h-1.778v-5.267L372.523,119.099L372.523,119.099z
		 M371.099,123.968h1.261c0.701,0,1.239-0.199,1.608-0.598c0.354-0.383,0.531-0.929,0.531-1.637c0-0.738-0.155-1.283-0.464-1.645
		c-0.339-0.398-0.87-0.59-1.579-0.59h-1.357V123.968z"/>
	<path style="fill:#00A4FF;" d="M372.427,124.774h-2.185v-6.081h2.281c0.945,0,1.673,0.297,2.164,0.884
		c0.439,0.517,0.663,1.243,0.663,2.157c0,0.902-0.249,1.634-0.74,2.175C374.088,124.483,373.354,124.774,372.427,124.774z
		 M371.506,123.56h0.855c0.59,0,1.018-0.153,1.309-0.467c0.281-0.304,0.423-0.762,0.423-1.361c0-0.632-0.123-1.096-0.367-1.381
		c-0.257-0.301-0.672-0.447-1.269-0.447h-0.95L371.506,123.56L371.506,123.56z"/>
</g>
<g>
	<path style="fill:#00A4FF;" d="M379.7,119.416c0.347,0.28,0.546,0.693,0.59,1.239h-0.45c-0.059-0.413-0.214-0.723-0.465-0.937
		s-0.605-0.317-1.062-0.317c-0.428,0-0.76,0.074-1.003,0.221c-0.28,0.162-0.413,0.413-0.413,0.745c0,0.295,0.162,0.524,0.494,0.701
		c0.155,0.074,0.494,0.192,1.01,0.339c0.671,0.192,1.121,0.354,1.357,0.502c0.435,0.258,0.657,0.627,0.657,1.107
		c0,0.45-0.192,0.811-0.568,1.077c-0.361,0.251-0.841,0.376-1.438,0.376c-0.605,0-1.085-0.14-1.431-0.413
		c-0.398-0.317-0.62-0.797-0.664-1.431h0.442c0.052,0.494,0.221,0.863,0.517,1.106c0.266,0.214,0.642,0.325,1.128,0.325
		c0.465,0,0.841-0.096,1.129-0.273c0.28-0.185,0.428-0.435,0.428-0.745c0-0.361-0.185-0.642-0.539-0.841
		c-0.177-0.103-0.56-0.243-1.158-0.405c-0.627-0.177-1.033-0.317-1.21-0.421c-0.406-0.229-0.605-0.56-0.605-0.988
		c0-0.457,0.185-0.804,0.568-1.047c0.339-0.229,0.782-0.339,1.313-0.339C378.904,118.997,379.361,119.137,379.7,119.416z"/>
	<path style="fill:#00A4FF;" d="M378.409,124.876c-0.695,0-1.261-0.168-1.683-0.5c-0.491-0.391-0.766-0.97-0.818-1.723l-0.03-0.435
		h1.245l0.038,0.365c0.041,0.39,0.162,0.663,0.37,0.834c0.19,0.153,0.484,0.233,0.87,0.233c0.378,0,0.686-0.072,0.915-0.213
		c0.207-0.136,0.235-0.285,0.235-0.398c0-0.14-0.038-0.321-0.331-0.486c-0.064-0.037-0.312-0.164-1.065-0.368
		c-0.892-0.252-1.168-0.38-1.309-0.463c-0.525-0.295-0.806-0.76-0.806-1.339c0-0.596,0.262-1.077,0.757-1.391
		c0.391-0.265,0.91-0.403,1.531-0.403c0.669,0,1.217,0.172,1.629,0.512c0.437,0.354,0.685,0.866,0.739,1.522l0.035,0.44h-1.244
		l-0.05-0.349c-0.044-0.312-0.151-0.536-0.326-0.685c-0.171-0.146-0.439-0.22-0.798-0.22c-0.348,0-0.614,0.055-0.793,0.163
		c-0.156,0.09-0.217,0.204-0.217,0.397c0,0.063,0,0.193,0.279,0.341c0.039,0.018,0.274,0.12,0.931,0.307
		c0.747,0.214,1.198,0.383,1.461,0.548c0.552,0.328,0.848,0.831,0.848,1.452c0,0.58-0.256,1.068-0.74,1.409
		C379.65,124.725,379.088,124.876,378.409,124.876z"/>
</g>
</svg>
