<?xml version="1.0" encoding="UTF-8"?>
<svg width="48px" height="48px" viewBox="0 0 48 48" version="1.1" xmlns="http://www.w3.org/2000/svg" xmlns:xlink="http://www.w3.org/1999/xlink">
    <!-- Generator: Sketch 52.2 (67145) - http://www.bohemiancoding.com/sketch -->
    <title>腾讯移动推送-48x48</title>
    <desc>Created with Sketch.</desc>
    <g id="腾讯移动推送-48x48" stroke="none" stroke-width="1" fill="none" fill-rule="evenodd">
        <g id="腾讯移动推送-48x48-01" transform="translate(2.000000, 0.000000)" fill-rule="nonzero">
            <path d="M21.118,0 C20.417592,0.607523824 19.7733229,1.27689432 19.193,2 L2,2 L2,46 L38,46 L38,24.909 C38.6863254,24.6489416 39.3544839,24.3432591 40,23.994 L40,48 L0,48 L0,0 L21.118,0 Z M17.326,5 C17.0249319,5.64684206 16.7728891,6.31539045 16.572,7 L7,7 L7,36 L33,36 L33,25.971 C33.6707191,25.9321926 34.3385534,25.8537221 35,25.736 L35,38 L5,38 L5,5 L17.326,5 Z M17,41 L23,41 L23,43 L17,43 L17,41 Z" id="Combined-Shape" fill="#334966"></path>
            <path d="M32,0 C25.373,0 20,4.925 20,11 C20,17.075 25.373,22 32,22 C38.627,22 44,17.075 44,11 C44,4.925 38.627,0 32,0 Z M28,8 L34,8 L34,10 L28,10 L28,8 Z M36,14 L28,14 L28,12 L36,12 L36,14 Z" id="Shape" fill="#00A4FF"></path>
            <path d="M27.5,21.2 L23,23 L23.795,19.027 C21.4128339,17.0382854 20.0251266,14.1030743 20,11 C20,4.925 25.373,0 32,0 C38.627,0 44,4.925 44,11 C44,17.075 38.627,22 32,22 C30.4643807,22.0028367 28.9405491,21.7319333 27.5,21.2 Z M32,20 C37.56,20 42,15.93 42,11 C42,6.07 37.56,2 32,2 C26.44,2 22,6.07 22,11 C22,15.93 26.44,20 32,20 Z" id="Combined-Shape-2" fill="#334966"></path>
        </g>
    </g>
</svg>