<?xml version="1.0" encoding="utf-8"?>
<!-- Generator: Adobe Illustrator 19.0.0, SVG Export Plug-In . SVG Version: 6.00 Build 0)  -->
<svg version="1.1" id="图层_1" xmlns="http://www.w3.org/2000/svg" xmlns:xlink="http://www.w3.org/1999/xlink" x="0px" y="0px"
	 viewBox="9 -12 32 32" style="enable-background:new 9 -12 32 32;" xml:space="preserve">
<style type="text/css">
	.st0{fill:none;}
	.st1{fill:#00A4FF;}
</style>
<g>
	<path class="st0" d="M-279.5-2217.5h-2v-2l0,0c0-4.4-3.6-8-8-8s-8,3.6-8,8l0,0v2h-2l0,0h-0.1v4h0.1v8h-0.1v4h20v-16H-279.5z
		 M-283.5-2205.5h-12v-8h12V-2205.5z M-283.5-2217.5h-12l0,0h2v-2c0-2.2,1.8-4,4-4s4,1.8,4,4v2H-283.5L-283.5-2217.5z
		 M-315.5-2239.5v30.5c0,0,0.2,21.6,26,27.5c25.8-5.9,26-27.5,26-27.5v-30.5H-315.5z M-267.5-2209.1c0,0-0.1,4.6-2.8,9.7
		c-3.6,6.9-10.1,11.5-19.2,13.8c-21.4-5.4-22-22.7-22-23.4v-26.5h44V-2209.1z"/>
</g>
<g>
	<g>
		<path class="st1" d="M17,12h2c0-3,1.7-3,5-3h2c3,0,5,0,5,3h2c0-4-3-5-7-5h-2C19.6,7,17,8,17,12z M13.7-6H37V9h2V-8H13.7
			c-0.3-0.6-1-1-1.7-1c-1.1,0-2,0.9-2,2c0,1.1,0.9,2,2,2C12.7-5,13.4-5.4,13.7-6z M29,1c0-2.2-1.8-4-4-4s-4,1.8-4,4c0,2.2,1.8,4,4,4
			S29,3.2,29,1z M23,1c0-1.1,0.9-2,2-2s2,0.9,2,2c0,1.1-0.9,2-2,2S23,2.1,23,1z M38,13c-0.7,0-1.4,0.4-1.7,1H13V-1h-2v17h25.3
			c0.3,0.6,1,1,1.7,1c1.1,0,2-0.9,2-2S39.1,13,38,13z"/>
	</g>
</g>
</svg>
