<?xml version="1.0" encoding="UTF-8"?>
<svg width="830px" height="196px" viewBox="0 0 830 196" version="1.1" xmlns="http://www.w3.org/2000/svg" xmlns:xlink="http://www.w3.org/1999/xlink">
    <!-- Generator: Sketch 54.1 (76490) - https://sketchapp.com -->
    <title>代码托管</title>
    <desc>Created with Sketch.</desc>
    <defs>
        <rect id="path-1" x="0" y="0" width="138" height="50"></rect>
        <filter x="-1.4%" y="-2.0%" width="102.9%" height="108.0%" filterUnits="objectBoundingBox" id="filter-2">
            <feOffset dx="0" dy="1" in="SourceAlpha" result="shadowOffsetOuter1"></feOffset>
            <feGaussianBlur stdDeviation="0.5" in="shadowOffsetOuter1" result="shadowBlurOuter1"></feGaussianBlur>
            <feColorMatrix values="0 0 0 0 0   0 0 0 0 0   0 0 0 0 0  0 0 0 0.35 0" type="matrix" in="shadowBlurOuter1"></feColorMatrix>
        </filter>
        <path d="M11.568,19.402 L22.474,19.402 L22.474,20.382 L20.136,20.382 L20.136,24.092 L23.202,24.092 L23.202,25.058 L20.136,25.058 L20.136,31.26 L19.114,31.26 L19.114,25.058 L15.068,25.058 C14.942,26.5 14.676,27.69 14.256,28.642 C13.724,29.818 12.842,30.728 11.61,31.372 L11.064,30.504 C12.198,29.86 12.996,29.006 13.444,27.942 C13.738,27.13 13.934,26.178 14.046,25.058 L10.812,25.058 L10.812,24.092 L14.102,24.092 C14.102,23.91 14.116,23.742 14.116,23.602 L14.116,20.382 L11.568,20.382 L11.568,19.402 Z M15.152,20.382 L15.152,23.602 C15.152,23.77 15.138,23.938 15.138,24.092 L19.114,24.092 L19.114,20.382 L15.152,20.382 Z M25.624,22.86 L26.73,18.968 L27.724,19.136 L26.926,21.894 L29.376,21.894 C29.656,20.802 29.88,19.668 30.048,18.464 L31.07,18.59 C30.888,19.766 30.664,20.858 30.412,21.894 L36.964,21.894 L36.964,22.86 L30.146,22.86 C29.978,23.42 29.81,23.952 29.614,24.456 L35.34,24.456 L35.34,25.324 C34.962,26.528 34.206,27.62 33.058,28.6 C34.192,29.272 35.578,29.888 37.202,30.448 L36.684,31.386 C34.892,30.728 33.408,30.014 32.232,29.244 C31.084,30.056 29.656,30.784 27.962,31.442 L27.43,30.504 C28.998,29.93 30.3,29.3 31.35,28.614 C30.258,27.774 29.488,26.864 29.026,25.884 C28.004,28.096 26.688,29.846 25.092,31.148 L24.574,30.224 C26.618,28.432 28.116,25.982 29.096,22.86 L25.624,22.86 Z M29.782,25.38 C30.258,26.332 31.056,27.214 32.176,28.026 C33.212,27.214 33.926,26.332 34.318,25.38 L29.782,25.38 Z M33.422,18.576 C34.43,19.346 35.256,20.116 35.928,20.886 L35.214,21.6 C34.626,20.858 33.8,20.074 32.75,19.234 L33.422,18.576 Z M40.044,20.018 L43.88,20.018 L43.88,18.534 L44.916,18.534 L44.916,20.018 L48.22,20.018 L48.22,20.956 L44.916,20.956 L44.916,22.622 L46.68,22.622 C47.996,21.684 49.158,20.62 50.152,19.444 L50.922,20.004 C50.096,20.984 49.214,21.866 48.276,22.622 L51.272,22.622 L51.272,23.574 L47.002,23.574 C46.792,23.714 46.582,23.84 46.372,23.98 C45.728,24.372 44.986,24.75 44.174,25.128 L49.466,25.128 L49.466,31.428 L48.458,31.428 L48.458,30.798 L42.396,30.798 L42.396,31.428 L41.374,31.428 L41.374,26.276 C40.618,26.556 39.834,26.822 39.022,27.088 L38.602,26.15 C40.996,25.59 43.18,24.722 45.168,23.574 L38.798,23.574 L38.798,22.622 L43.88,22.622 L43.88,20.956 L40.044,20.956 L40.044,20.018 Z M42.396,28.376 L42.396,29.902 L48.458,29.902 L48.458,28.376 L42.396,28.376 Z M48.458,27.48 L48.458,26.01 L42.396,26.01 L42.396,27.48 L48.458,27.48 Z M57.488,18.52 L58.482,18.52 L53.526,31.4 L52.518,31.4 L57.488,18.52 Z M60.008,21.138 L65.482,21.138 L65.482,18.604 L66.518,18.604 L66.518,21.138 L71.978,21.138 L71.978,22.104 L67.414,22.104 C68.352,24.33 70.032,26.318 72.44,28.068 L71.754,28.936 C69.29,26.92 67.582,24.638 66.63,22.104 L66.518,22.104 L66.518,27.564 L69.514,27.564 L69.514,28.53 L66.518,28.53 L66.518,31.4 L65.482,31.4 L65.482,28.53 L62.598,28.53 L62.598,27.564 L65.482,27.564 L65.482,22.104 L65.384,22.104 C64.348,24.946 62.584,27.284 60.092,29.118 L59.518,28.18 C61.87,26.612 63.55,24.582 64.586,22.104 L60.008,22.104 L60.008,21.138 Z M85.922,21.264 C85.922,24.092 85.852,25.814 85.712,26.43 C85.572,27.018 84.97,27.326 83.92,27.326 L83.836,27.326 L83.556,26.332 C83.766,26.346 83.962,26.36 84.13,26.36 C84.508,26.36 84.746,26.206 84.83,25.898 C84.9,25.604 84.942,24.498 84.956,22.594 L82.912,23.21 L82.912,28.502 L81.932,28.502 L81.932,23.504 L79.888,24.12 L79.888,29.552 C79.888,29.972 80.126,30.196 80.616,30.196 L84.55,30.196 C84.844,30.196 85.054,30.098 85.166,29.916 C85.32,29.692 85.432,29.006 85.488,27.872 L86.426,28.166 C86.328,29.58 86.146,30.434 85.866,30.742 C85.628,31.008 85.25,31.148 84.732,31.148 L80.308,31.148 C79.37,31.148 78.908,30.672 78.908,29.748 L78.908,24.414 L77.732,24.778 L77.732,23.798 L78.908,23.434 L78.908,19.99 L79.888,19.99 L79.888,23.126 L81.932,22.496 L81.932,18.562 L82.912,18.562 L82.912,22.188 L85.922,21.264 Z M77.914,27.214 L77.914,28.208 C76.626,28.81 75.24,29.314 73.756,29.706 L73.504,28.698 C74.092,28.572 74.68,28.418 75.268,28.25 L75.268,23.266 L73.672,23.266 L73.672,22.286 L75.268,22.286 L75.268,18.674 L76.262,18.674 L76.262,22.286 L77.718,22.286 L77.718,23.266 L76.262,23.266 L76.262,27.914 C76.822,27.704 77.382,27.466 77.914,27.214 Z M97.766,23.056 C98.97,24.498 99.908,25.758 100.552,26.836 L99.712,27.424 C99.04,26.248 98.144,24.96 96.996,23.546 L97.766,23.056 Z M87.966,23.658 L89.52,23.658 L89.52,20.634 L87.756,20.634 L87.756,19.654 L92.292,19.654 L92.292,20.634 L90.5,20.634 L90.5,23.658 L92.096,23.658 L92.096,24.624 L90.5,24.624 L90.5,27.942 C91.144,27.746 91.76,27.522 92.376,27.284 L92.376,28.25 C90.962,28.796 89.45,29.244 87.826,29.608 L87.574,28.642 C88.232,28.53 88.876,28.39 89.52,28.222 L89.52,24.624 L87.966,24.624 L87.966,23.658 Z M92.852,19.248 L99.964,19.248 L99.964,20.228 L97.444,20.228 C97.262,20.844 97.052,21.432 96.814,21.992 L96.814,31.386 L95.834,31.386 L95.834,23.924 C95.022,25.282 94.014,26.5 92.81,27.578 L92.194,26.78 C94.238,24.974 95.652,22.79 96.464,20.228 L92.852,20.228 L92.852,19.248 Z M106.236,19.626 L109.428,19.626 C109.288,19.248 109.162,18.912 109.022,18.604 L110.086,18.422 C110.226,18.786 110.338,19.178 110.45,19.626 L113.81,19.626 L113.81,20.466 L112.34,20.466 C112.214,20.97 112.046,21.474 111.822,21.95 L114.216,21.95 L114.216,22.804 L105.816,22.804 L105.816,21.95 L108.014,21.95 C107.874,21.418 107.706,20.914 107.51,20.466 L106.236,20.466 L106.236,19.626 Z M110.842,21.95 C111.094,21.46 111.29,20.97 111.402,20.466 L108.518,20.466 C108.672,20.928 108.826,21.418 108.966,21.95 L110.842,21.95 Z M106.684,23.672 L113.25,23.672 L113.25,28.082 L111.486,28.082 L111.486,29.874 C111.486,30.168 111.612,30.322 111.878,30.322 L113.026,30.322 C113.194,30.322 113.32,30.252 113.404,30.14 C113.488,29.986 113.558,29.538 113.6,28.782 L114.496,29.062 C114.412,30.07 114.272,30.686 114.076,30.91 C113.88,31.106 113.586,31.204 113.194,31.204 L111.598,31.204 C110.856,31.204 110.492,30.826 110.492,30.07 L110.492,28.082 L109.134,28.082 C108.966,28.922 108.616,29.608 108.084,30.126 C107.496,30.672 106.516,31.106 105.172,31.414 L104.794,30.518 C105.97,30.28 106.81,29.958 107.328,29.538 C107.748,29.174 108.042,28.684 108.196,28.082 L106.684,28.082 L106.684,23.672 Z M112.312,27.256 L112.312,26.22 L107.608,26.22 L107.608,27.256 L112.312,27.256 Z M107.608,25.506 L112.312,25.506 L112.312,24.484 L107.608,24.484 L107.608,25.506 Z M105.788,27.06 L105.788,28.082 C104.57,28.698 103.268,29.202 101.868,29.608 L101.602,28.516 C102.092,28.404 102.582,28.278 103.072,28.138 L103.072,22.958 L101.616,22.958 L101.616,21.978 L103.072,21.978 L103.072,18.646 L104.094,18.646 L104.094,21.978 L105.34,21.978 L105.34,22.958 L104.094,22.958 L104.094,27.788 C104.668,27.564 105.228,27.326 105.788,27.06 Z M123.596,20.004 L124.926,20.004 L128.86,30 L127.614,30 L126.55,27.2 L121.958,27.2 L120.894,30 L119.662,30 L123.596,20.004 Z M122.322,26.234 L126.186,26.234 L124.296,21.236 L124.24,21.236 L122.322,26.234 Z" id="path-3"></path>
        <rect id="path-4" x="0" y="0" width="138" height="50"></rect>
        <filter x="-1.4%" y="-2.0%" width="102.9%" height="108.0%" filterUnits="objectBoundingBox" id="filter-5">
            <feOffset dx="0" dy="1" in="SourceAlpha" result="shadowOffsetOuter1"></feOffset>
            <feGaussianBlur stdDeviation="0.5" in="shadowOffsetOuter1" result="shadowBlurOuter1"></feGaussianBlur>
            <feColorMatrix values="0 0 0 0 0   0 0 0 0 0   0 0 0 0 0  0 0 0 0.35 0" type="matrix" in="shadowBlurOuter1"></feColorMatrix>
        </filter>
        <path d="M10.568,19.402 L21.474,19.402 L21.474,20.382 L19.136,20.382 L19.136,24.092 L22.202,24.092 L22.202,25.058 L19.136,25.058 L19.136,31.26 L18.114,31.26 L18.114,25.058 L14.068,25.058 C13.942,26.5 13.676,27.69 13.256,28.642 C12.724,29.818 11.842,30.728 10.61,31.372 L10.064,30.504 C11.198,29.86 11.996,29.006 12.444,27.942 C12.738,27.13 12.934,26.178 13.046,25.058 L9.812,25.058 L9.812,24.092 L13.102,24.092 C13.102,23.91 13.116,23.742 13.116,23.602 L13.116,20.382 L10.568,20.382 L10.568,19.402 Z M14.152,20.382 L14.152,23.602 C14.152,23.77 14.138,23.938 14.138,24.092 L18.114,24.092 L18.114,20.382 L14.152,20.382 Z M24.624,22.86 L25.73,18.968 L26.724,19.136 L25.926,21.894 L28.376,21.894 C28.656,20.802 28.88,19.668 29.048,18.464 L30.07,18.59 C29.888,19.766 29.664,20.858 29.412,21.894 L35.964,21.894 L35.964,22.86 L29.146,22.86 C28.978,23.42 28.81,23.952 28.614,24.456 L34.34,24.456 L34.34,25.324 C33.962,26.528 33.206,27.62 32.058,28.6 C33.192,29.272 34.578,29.888 36.202,30.448 L35.684,31.386 C33.892,30.728 32.408,30.014 31.232,29.244 C30.084,30.056 28.656,30.784 26.962,31.442 L26.43,30.504 C27.998,29.93 29.3,29.3 30.35,28.614 C29.258,27.774 28.488,26.864 28.026,25.884 C27.004,28.096 25.688,29.846 24.092,31.148 L23.574,30.224 C25.618,28.432 27.116,25.982 28.096,22.86 L24.624,22.86 Z M28.782,25.38 C29.258,26.332 30.056,27.214 31.176,28.026 C32.212,27.214 32.926,26.332 33.318,25.38 L28.782,25.38 Z M32.422,18.576 C33.43,19.346 34.256,20.116 34.928,20.886 L34.214,21.6 C33.626,20.858 32.8,20.074 31.75,19.234 L32.422,18.576 Z M39.044,20.018 L42.88,20.018 L42.88,18.534 L43.916,18.534 L43.916,20.018 L47.22,20.018 L47.22,20.956 L43.916,20.956 L43.916,22.622 L45.68,22.622 C46.996,21.684 48.158,20.62 49.152,19.444 L49.922,20.004 C49.096,20.984 48.214,21.866 47.276,22.622 L50.272,22.622 L50.272,23.574 L46.002,23.574 C45.792,23.714 45.582,23.84 45.372,23.98 C44.728,24.372 43.986,24.75 43.174,25.128 L48.466,25.128 L48.466,31.428 L47.458,31.428 L47.458,30.798 L41.396,30.798 L41.396,31.428 L40.374,31.428 L40.374,26.276 C39.618,26.556 38.834,26.822 38.022,27.088 L37.602,26.15 C39.996,25.59 42.18,24.722 44.168,23.574 L37.798,23.574 L37.798,22.622 L42.88,22.622 L42.88,20.956 L39.044,20.956 L39.044,20.018 Z M41.396,28.376 L41.396,29.902 L47.458,29.902 L47.458,28.376 L41.396,28.376 Z M47.458,27.48 L47.458,26.01 L41.396,26.01 L41.396,27.48 L47.458,27.48 Z M56.488,18.52 L57.482,18.52 L52.526,31.4 L51.518,31.4 L56.488,18.52 Z M59.008,21.138 L64.482,21.138 L64.482,18.604 L65.518,18.604 L65.518,21.138 L70.978,21.138 L70.978,22.104 L66.414,22.104 C67.352,24.33 69.032,26.318 71.44,28.068 L70.754,28.936 C68.29,26.92 66.582,24.638 65.63,22.104 L65.518,22.104 L65.518,27.564 L68.514,27.564 L68.514,28.53 L65.518,28.53 L65.518,31.4 L64.482,31.4 L64.482,28.53 L61.598,28.53 L61.598,27.564 L64.482,27.564 L64.482,22.104 L64.384,22.104 C63.348,24.946 61.584,27.284 59.092,29.118 L58.518,28.18 C60.87,26.612 62.55,24.582 63.586,22.104 L59.008,22.104 L59.008,21.138 Z M84.922,21.264 C84.922,24.092 84.852,25.814 84.712,26.43 C84.572,27.018 83.97,27.326 82.92,27.326 L82.836,27.326 L82.556,26.332 C82.766,26.346 82.962,26.36 83.13,26.36 C83.508,26.36 83.746,26.206 83.83,25.898 C83.9,25.604 83.942,24.498 83.956,22.594 L81.912,23.21 L81.912,28.502 L80.932,28.502 L80.932,23.504 L78.888,24.12 L78.888,29.552 C78.888,29.972 79.126,30.196 79.616,30.196 L83.55,30.196 C83.844,30.196 84.054,30.098 84.166,29.916 C84.32,29.692 84.432,29.006 84.488,27.872 L85.426,28.166 C85.328,29.58 85.146,30.434 84.866,30.742 C84.628,31.008 84.25,31.148 83.732,31.148 L79.308,31.148 C78.37,31.148 77.908,30.672 77.908,29.748 L77.908,24.414 L76.732,24.778 L76.732,23.798 L77.908,23.434 L77.908,19.99 L78.888,19.99 L78.888,23.126 L80.932,22.496 L80.932,18.562 L81.912,18.562 L81.912,22.188 L84.922,21.264 Z M76.914,27.214 L76.914,28.208 C75.626,28.81 74.24,29.314 72.756,29.706 L72.504,28.698 C73.092,28.572 73.68,28.418 74.268,28.25 L74.268,23.266 L72.672,23.266 L72.672,22.286 L74.268,22.286 L74.268,18.674 L75.262,18.674 L75.262,22.286 L76.718,22.286 L76.718,23.266 L75.262,23.266 L75.262,27.914 C75.822,27.704 76.382,27.466 76.914,27.214 Z M96.766,23.056 C97.97,24.498 98.908,25.758 99.552,26.836 L98.712,27.424 C98.04,26.248 97.144,24.96 95.996,23.546 L96.766,23.056 Z M86.966,23.658 L88.52,23.658 L88.52,20.634 L86.756,20.634 L86.756,19.654 L91.292,19.654 L91.292,20.634 L89.5,20.634 L89.5,23.658 L91.096,23.658 L91.096,24.624 L89.5,24.624 L89.5,27.942 C90.144,27.746 90.76,27.522 91.376,27.284 L91.376,28.25 C89.962,28.796 88.45,29.244 86.826,29.608 L86.574,28.642 C87.232,28.53 87.876,28.39 88.52,28.222 L88.52,24.624 L86.966,24.624 L86.966,23.658 Z M91.852,19.248 L98.964,19.248 L98.964,20.228 L96.444,20.228 C96.262,20.844 96.052,21.432 95.814,21.992 L95.814,31.386 L94.834,31.386 L94.834,23.924 C94.022,25.282 93.014,26.5 91.81,27.578 L91.194,26.78 C93.238,24.974 94.652,22.79 95.464,20.228 L91.852,20.228 L91.852,19.248 Z M105.236,19.626 L108.428,19.626 C108.288,19.248 108.162,18.912 108.022,18.604 L109.086,18.422 C109.226,18.786 109.338,19.178 109.45,19.626 L112.81,19.626 L112.81,20.466 L111.34,20.466 C111.214,20.97 111.046,21.474 110.822,21.95 L113.216,21.95 L113.216,22.804 L104.816,22.804 L104.816,21.95 L107.014,21.95 C106.874,21.418 106.706,20.914 106.51,20.466 L105.236,20.466 L105.236,19.626 Z M109.842,21.95 C110.094,21.46 110.29,20.97 110.402,20.466 L107.518,20.466 C107.672,20.928 107.826,21.418 107.966,21.95 L109.842,21.95 Z M105.684,23.672 L112.25,23.672 L112.25,28.082 L110.486,28.082 L110.486,29.874 C110.486,30.168 110.612,30.322 110.878,30.322 L112.026,30.322 C112.194,30.322 112.32,30.252 112.404,30.14 C112.488,29.986 112.558,29.538 112.6,28.782 L113.496,29.062 C113.412,30.07 113.272,30.686 113.076,30.91 C112.88,31.106 112.586,31.204 112.194,31.204 L110.598,31.204 C109.856,31.204 109.492,30.826 109.492,30.07 L109.492,28.082 L108.134,28.082 C107.966,28.922 107.616,29.608 107.084,30.126 C106.496,30.672 105.516,31.106 104.172,31.414 L103.794,30.518 C104.97,30.28 105.81,29.958 106.328,29.538 C106.748,29.174 107.042,28.684 107.196,28.082 L105.684,28.082 L105.684,23.672 Z M111.312,27.256 L111.312,26.22 L106.608,26.22 L106.608,27.256 L111.312,27.256 Z M106.608,25.506 L111.312,25.506 L111.312,24.484 L106.608,24.484 L106.608,25.506 Z M104.788,27.06 L104.788,28.082 C103.57,28.698 102.268,29.202 100.868,29.608 L100.602,28.516 C101.092,28.404 101.582,28.278 102.072,28.138 L102.072,22.958 L100.616,22.958 L100.616,21.978 L102.072,21.978 L102.072,18.646 L103.094,18.646 L103.094,21.978 L104.34,21.978 L104.34,22.958 L103.094,22.958 L103.094,27.788 C103.668,27.564 104.228,27.326 104.788,27.06 Z M119.67,20.004 L124.136,20.004 C125.06,20.004 125.802,20.228 126.348,20.676 C126.88,21.124 127.146,21.74 127.146,22.524 C127.146,23.084 126.992,23.574 126.698,23.98 C126.39,24.344 125.984,24.61 125.48,24.778 C126.138,24.89 126.642,25.17 127.006,25.59 C127.37,26.01 127.566,26.542 127.566,27.214 C127.566,28.194 127.216,28.922 126.53,29.398 C125.942,29.79 125.13,30 124.108,30 L119.67,30 L119.67,20.004 Z M120.818,20.97 L120.818,24.372 L123.856,24.372 C124.556,24.372 125.088,24.218 125.452,23.938 C125.816,23.644 126.012,23.21 126.012,22.636 C126.012,22.076 125.83,21.656 125.466,21.376 C125.102,21.096 124.57,20.97 123.87,20.97 L120.818,20.97 Z M120.818,25.324 L120.818,29.034 L124.01,29.034 C124.71,29.034 125.256,28.894 125.676,28.642 C126.166,28.334 126.418,27.844 126.418,27.2 C126.418,26.556 126.194,26.08 125.774,25.772 C125.368,25.464 124.78,25.324 124.01,25.324 L120.818,25.324 Z" id="path-6"></path>
        <rect id="path-7" x="0" y="0" width="138" height="50"></rect>
        <filter x="-1.4%" y="-2.0%" width="102.9%" height="108.0%" filterUnits="objectBoundingBox" id="filter-8">
            <feOffset dx="0" dy="1" in="SourceAlpha" result="shadowOffsetOuter1"></feOffset>
            <feGaussianBlur stdDeviation="0.5" in="shadowOffsetOuter1" result="shadowBlurOuter1"></feGaussianBlur>
            <feColorMatrix values="0 0 0 0 0   0 0 0 0 0   0 0 0 0 0  0 0 0 0.35 0" type="matrix" in="shadowBlurOuter1"></feColorMatrix>
        </filter>
        <path d="M10.568,19.402 L21.474,19.402 L21.474,20.382 L19.136,20.382 L19.136,24.092 L22.202,24.092 L22.202,25.058 L19.136,25.058 L19.136,31.26 L18.114,31.26 L18.114,25.058 L14.068,25.058 C13.942,26.5 13.676,27.69 13.256,28.642 C12.724,29.818 11.842,30.728 10.61,31.372 L10.064,30.504 C11.198,29.86 11.996,29.006 12.444,27.942 C12.738,27.13 12.934,26.178 13.046,25.058 L9.812,25.058 L9.812,24.092 L13.102,24.092 C13.102,23.91 13.116,23.742 13.116,23.602 L13.116,20.382 L10.568,20.382 L10.568,19.402 Z M14.152,20.382 L14.152,23.602 C14.152,23.77 14.138,23.938 14.138,24.092 L18.114,24.092 L18.114,20.382 L14.152,20.382 Z M24.624,22.86 L25.73,18.968 L26.724,19.136 L25.926,21.894 L28.376,21.894 C28.656,20.802 28.88,19.668 29.048,18.464 L30.07,18.59 C29.888,19.766 29.664,20.858 29.412,21.894 L35.964,21.894 L35.964,22.86 L29.146,22.86 C28.978,23.42 28.81,23.952 28.614,24.456 L34.34,24.456 L34.34,25.324 C33.962,26.528 33.206,27.62 32.058,28.6 C33.192,29.272 34.578,29.888 36.202,30.448 L35.684,31.386 C33.892,30.728 32.408,30.014 31.232,29.244 C30.084,30.056 28.656,30.784 26.962,31.442 L26.43,30.504 C27.998,29.93 29.3,29.3 30.35,28.614 C29.258,27.774 28.488,26.864 28.026,25.884 C27.004,28.096 25.688,29.846 24.092,31.148 L23.574,30.224 C25.618,28.432 27.116,25.982 28.096,22.86 L24.624,22.86 Z M28.782,25.38 C29.258,26.332 30.056,27.214 31.176,28.026 C32.212,27.214 32.926,26.332 33.318,25.38 L28.782,25.38 Z M32.422,18.576 C33.43,19.346 34.256,20.116 34.928,20.886 L34.214,21.6 C33.626,20.858 32.8,20.074 31.75,19.234 L32.422,18.576 Z M39.044,20.018 L42.88,20.018 L42.88,18.534 L43.916,18.534 L43.916,20.018 L47.22,20.018 L47.22,20.956 L43.916,20.956 L43.916,22.622 L45.68,22.622 C46.996,21.684 48.158,20.62 49.152,19.444 L49.922,20.004 C49.096,20.984 48.214,21.866 47.276,22.622 L50.272,22.622 L50.272,23.574 L46.002,23.574 C45.792,23.714 45.582,23.84 45.372,23.98 C44.728,24.372 43.986,24.75 43.174,25.128 L48.466,25.128 L48.466,31.428 L47.458,31.428 L47.458,30.798 L41.396,30.798 L41.396,31.428 L40.374,31.428 L40.374,26.276 C39.618,26.556 38.834,26.822 38.022,27.088 L37.602,26.15 C39.996,25.59 42.18,24.722 44.168,23.574 L37.798,23.574 L37.798,22.622 L42.88,22.622 L42.88,20.956 L39.044,20.956 L39.044,20.018 Z M41.396,28.376 L41.396,29.902 L47.458,29.902 L47.458,28.376 L41.396,28.376 Z M47.458,27.48 L47.458,26.01 L41.396,26.01 L41.396,27.48 L47.458,27.48 Z M56.488,18.52 L57.482,18.52 L52.526,31.4 L51.518,31.4 L56.488,18.52 Z M59.008,21.138 L64.482,21.138 L64.482,18.604 L65.518,18.604 L65.518,21.138 L70.978,21.138 L70.978,22.104 L66.414,22.104 C67.352,24.33 69.032,26.318 71.44,28.068 L70.754,28.936 C68.29,26.92 66.582,24.638 65.63,22.104 L65.518,22.104 L65.518,27.564 L68.514,27.564 L68.514,28.53 L65.518,28.53 L65.518,31.4 L64.482,31.4 L64.482,28.53 L61.598,28.53 L61.598,27.564 L64.482,27.564 L64.482,22.104 L64.384,22.104 C63.348,24.946 61.584,27.284 59.092,29.118 L58.518,28.18 C60.87,26.612 62.55,24.582 63.586,22.104 L59.008,22.104 L59.008,21.138 Z M84.922,21.264 C84.922,24.092 84.852,25.814 84.712,26.43 C84.572,27.018 83.97,27.326 82.92,27.326 L82.836,27.326 L82.556,26.332 C82.766,26.346 82.962,26.36 83.13,26.36 C83.508,26.36 83.746,26.206 83.83,25.898 C83.9,25.604 83.942,24.498 83.956,22.594 L81.912,23.21 L81.912,28.502 L80.932,28.502 L80.932,23.504 L78.888,24.12 L78.888,29.552 C78.888,29.972 79.126,30.196 79.616,30.196 L83.55,30.196 C83.844,30.196 84.054,30.098 84.166,29.916 C84.32,29.692 84.432,29.006 84.488,27.872 L85.426,28.166 C85.328,29.58 85.146,30.434 84.866,30.742 C84.628,31.008 84.25,31.148 83.732,31.148 L79.308,31.148 C78.37,31.148 77.908,30.672 77.908,29.748 L77.908,24.414 L76.732,24.778 L76.732,23.798 L77.908,23.434 L77.908,19.99 L78.888,19.99 L78.888,23.126 L80.932,22.496 L80.932,18.562 L81.912,18.562 L81.912,22.188 L84.922,21.264 Z M76.914,27.214 L76.914,28.208 C75.626,28.81 74.24,29.314 72.756,29.706 L72.504,28.698 C73.092,28.572 73.68,28.418 74.268,28.25 L74.268,23.266 L72.672,23.266 L72.672,22.286 L74.268,22.286 L74.268,18.674 L75.262,18.674 L75.262,22.286 L76.718,22.286 L76.718,23.266 L75.262,23.266 L75.262,27.914 C75.822,27.704 76.382,27.466 76.914,27.214 Z M96.766,23.056 C97.97,24.498 98.908,25.758 99.552,26.836 L98.712,27.424 C98.04,26.248 97.144,24.96 95.996,23.546 L96.766,23.056 Z M86.966,23.658 L88.52,23.658 L88.52,20.634 L86.756,20.634 L86.756,19.654 L91.292,19.654 L91.292,20.634 L89.5,20.634 L89.5,23.658 L91.096,23.658 L91.096,24.624 L89.5,24.624 L89.5,27.942 C90.144,27.746 90.76,27.522 91.376,27.284 L91.376,28.25 C89.962,28.796 88.45,29.244 86.826,29.608 L86.574,28.642 C87.232,28.53 87.876,28.39 88.52,28.222 L88.52,24.624 L86.966,24.624 L86.966,23.658 Z M91.852,19.248 L98.964,19.248 L98.964,20.228 L96.444,20.228 C96.262,20.844 96.052,21.432 95.814,21.992 L95.814,31.386 L94.834,31.386 L94.834,23.924 C94.022,25.282 93.014,26.5 91.81,27.578 L91.194,26.78 C93.238,24.974 94.652,22.79 95.464,20.228 L91.852,20.228 L91.852,19.248 Z M105.236,19.626 L108.428,19.626 C108.288,19.248 108.162,18.912 108.022,18.604 L109.086,18.422 C109.226,18.786 109.338,19.178 109.45,19.626 L112.81,19.626 L112.81,20.466 L111.34,20.466 C111.214,20.97 111.046,21.474 110.822,21.95 L113.216,21.95 L113.216,22.804 L104.816,22.804 L104.816,21.95 L107.014,21.95 C106.874,21.418 106.706,20.914 106.51,20.466 L105.236,20.466 L105.236,19.626 Z M109.842,21.95 C110.094,21.46 110.29,20.97 110.402,20.466 L107.518,20.466 C107.672,20.928 107.826,21.418 107.966,21.95 L109.842,21.95 Z M105.684,23.672 L112.25,23.672 L112.25,28.082 L110.486,28.082 L110.486,29.874 C110.486,30.168 110.612,30.322 110.878,30.322 L112.026,30.322 C112.194,30.322 112.32,30.252 112.404,30.14 C112.488,29.986 112.558,29.538 112.6,28.782 L113.496,29.062 C113.412,30.07 113.272,30.686 113.076,30.91 C112.88,31.106 112.586,31.204 112.194,31.204 L110.598,31.204 C109.856,31.204 109.492,30.826 109.492,30.07 L109.492,28.082 L108.134,28.082 C107.966,28.922 107.616,29.608 107.084,30.126 C106.496,30.672 105.516,31.106 104.172,31.414 L103.794,30.518 C104.97,30.28 105.81,29.958 106.328,29.538 C106.748,29.174 107.042,28.684 107.196,28.082 L105.684,28.082 L105.684,23.672 Z M111.312,27.256 L111.312,26.22 L106.608,26.22 L106.608,27.256 L111.312,27.256 Z M106.608,25.506 L111.312,25.506 L111.312,24.484 L106.608,24.484 L106.608,25.506 Z M104.788,27.06 L104.788,28.082 C103.57,28.698 102.268,29.202 100.868,29.608 L100.602,28.516 C101.092,28.404 101.582,28.278 102.072,28.138 L102.072,22.958 L100.616,22.958 L100.616,21.978 L102.072,21.978 L102.072,18.646 L103.094,18.646 L103.094,21.978 L104.34,21.978 L104.34,22.958 L103.094,22.958 L103.094,27.788 C103.668,27.564 104.228,27.326 104.788,27.06 Z M123.982,19.808 C125.088,19.808 126.026,20.102 126.782,20.69 C127.538,21.278 127.986,22.076 128.126,23.07 L127.02,23.07 C126.88,22.342 126.516,21.782 125.956,21.39 C125.41,21.012 124.752,20.83 123.968,20.83 C122.806,20.83 121.91,21.236 121.28,22.048 C120.692,22.804 120.398,23.798 120.398,25.044 C120.398,26.29 120.678,27.284 121.266,28.012 C121.882,28.782 122.764,29.174 123.94,29.174 C124.738,29.174 125.41,28.964 125.97,28.544 C126.558,28.096 126.964,27.438 127.16,26.57 L128.266,26.57 C128.042,27.732 127.524,28.642 126.698,29.286 C125.928,29.888 125.004,30.196 123.94,30.196 C122.386,30.196 121.196,29.678 120.37,28.656 C119.614,27.732 119.25,26.528 119.25,25.044 C119.25,23.56 119.628,22.342 120.398,21.39 C121.238,20.326 122.442,19.808 123.982,19.808 Z" id="path-9"></path>
        <rect id="path-10" x="0" y="0" width="204" height="50"></rect>
        <filter x="-1.0%" y="-2.0%" width="102.0%" height="108.0%" filterUnits="objectBoundingBox" id="filter-11">
            <feOffset dx="0" dy="1" in="SourceAlpha" result="shadowOffsetOuter1"></feOffset>
            <feGaussianBlur stdDeviation="0.5" in="shadowOffsetOuter1" result="shadowBlurOuter1"></feGaussianBlur>
            <feColorMatrix values="0 0 0 0 0   0 0 0 0 0   0 0 0 0 0  0 0 0 0.35 0" type="matrix" in="shadowBlurOuter1"></feColorMatrix>
        </filter>
        <path d="M16.256,5.644 C16.544,6.196 16.82,6.868 17.06,7.66 L18.32,7.66 C18.668,7 18.968,6.292 19.208,5.548 L20.012,5.824 C19.76,6.508 19.484,7.12 19.172,7.66 L20.624,7.66 L20.624,8.5 L14.612,8.5 L14.612,7.66 L16.232,7.66 C16.016,7.036 15.764,6.46 15.464,5.932 L16.256,5.644 Z M21.176,3.7 L25.112,3.7 L25.112,4.348 C24.74,5.608 24.344,6.784 23.912,7.864 C24.812,8.992 25.268,9.928 25.28,10.648 C25.28,11.392 25.124,11.908 24.812,12.196 C24.476,12.484 23.816,12.64 22.832,12.64 L22.556,11.728 C22.892,11.752 23.168,11.776 23.396,11.776 C23.828,11.752 24.104,11.668 24.224,11.524 C24.344,11.368 24.404,11.08 24.416,10.648 C24.404,9.94 23.924,9.016 22.988,7.864 C23.384,6.916 23.78,5.788 24.164,4.492 L22.016,4.492 L22.016,14.176 L21.176,14.176 L21.176,3.7 Z M14.84,4.36 L17.252,4.36 C17.108,3.964 16.964,3.604 16.808,3.28 L17.696,3.124 C17.828,3.484 17.96,3.904 18.092,4.36 L20.54,4.36 L20.54,5.2 L14.84,5.2 L14.84,4.36 Z M20.072,9.592 L20.072,14.116 L19.22,14.116 L19.22,13.444 L16.148,13.444 L16.148,14.116 L15.296,14.116 L15.296,9.592 L20.072,9.592 Z M16.148,12.628 L19.22,12.628 L19.22,10.408 L16.148,10.408 L16.148,12.628 Z M27.728,3.64 L36.224,3.64 L36.224,5.92 L32.036,5.92 L32.036,6.7 L34.592,6.7 L34.592,7.396 L32.036,7.396 L32.036,8.26 L33.572,8.26 C34.508,7.684 35.324,7.012 36.008,6.244 L36.716,6.616 C36.152,7.216 35.504,7.768 34.784,8.26 L37.316,8.26 L37.316,9.004 L33.548,9.004 C32.924,9.328 32.276,9.616 31.58,9.88 L35.804,9.88 L35.804,14.284 L34.952,14.284 L34.952,13.744 L29.852,13.744 L29.852,14.284 L29,14.284 L29,10.66 C28.4,10.804 27.776,10.924 27.14,11.044 L26.672,10.324 C28.76,10.108 30.572,9.664 32.12,9.004 L26.744,9.004 L26.744,8.26 L31.196,8.26 L31.196,7.396 L28.052,7.396 L28.052,6.7 L31.196,6.7 L31.196,5.92 L27.728,5.92 L27.728,3.64 Z M35.396,5.284 L35.396,4.288 L33.632,4.288 L33.632,5.284 L35.396,5.284 Z M32.852,5.284 L32.852,4.288 L31.124,4.288 L31.124,5.284 L32.852,5.284 Z M30.344,5.284 L30.344,4.288 L28.556,4.288 L28.556,5.284 L30.344,5.284 Z M29.852,12.136 L29.852,13.036 L34.952,13.036 L34.952,12.136 L29.852,12.136 Z M34.952,11.476 L34.952,10.552 L29.852,10.552 L29.852,11.476 L34.952,11.476 Z M41.948,3.316 L42.74,3.628 C41.852,6.148 40.688,8.068 39.224,9.388 L38.552,8.8 C40.052,7.432 41.18,5.608 41.948,3.316 Z M46.04,9.676 C46.976,10.972 47.768,12.364 48.44,13.84 L47.636,14.2 C47.456,13.792 47.276,13.408 47.096,13.048 C44.984,13.384 42.62,13.624 40.004,13.792 L39.848,12.952 C40.808,12.448 42.008,10.552 43.46,7.264 L44.3,7.552 C43.268,9.832 42.236,11.62 41.204,12.916 C43.16,12.796 44.996,12.592 46.712,12.316 C46.244,11.452 45.764,10.66 45.26,9.94 L46.04,9.676 Z M45.86,3.232 C46.556,5.464 47.756,7.288 49.472,8.704 L48.86,9.412 C47.072,7.924 45.824,5.992 45.128,3.64 L45.86,3.232 Z M52.172,3.22 L53.012,3.388 C52.904,3.796 52.784,4.18 52.652,4.564 L55.256,4.564 L55.256,5.368 L52.352,5.368 C52.016,6.184 51.62,6.94 51.176,7.612 L50.48,7.168 C51.26,5.98 51.824,4.66 52.172,3.22 Z M51.764,6.976 L55.112,6.976 L55.112,7.756 L53.576,7.756 L53.576,9.232 L55.424,9.232 L55.424,10.024 L53.576,10.024 L53.576,12.88 C54.092,12.688 54.608,12.448 55.124,12.148 L55.256,12.916 C54.524,13.312 53.672,13.636 52.712,13.888 L52.352,13.144 C52.604,13.06 52.736,12.94 52.736,12.784 L52.736,10.024 L50.852,10.024 L50.852,9.232 L52.736,9.232 L52.736,7.756 L51.764,7.756 L51.764,6.976 Z M57.056,7.408 L57.056,8.92 C57.056,9.136 57.044,9.34 57.044,9.544 L60.152,9.544 L60.152,7.408 L57.056,7.408 Z M60.152,6.58 L60.152,4.516 L57.056,4.516 L57.056,6.58 L60.152,6.58 Z M56.972,10.36 C56.804,11.896 56.372,13.192 55.688,14.236 L55.016,13.624 C55.796,12.4 56.192,10.852 56.216,8.98 L56.216,3.676 L61.004,3.676 L61.004,13.12 C61.004,13.744 60.68,14.056 60.032,14.056 L58.652,14.056 L58.412,13.204 C58.892,13.228 59.348,13.252 59.756,13.252 C60.02,13.252 60.152,13.096 60.152,12.808 L60.152,10.36 L56.972,10.36 Z" id="path-12"></path>
        <path d="M28.16,27.88 L35.84,27.88 L35.84,33.328 L28.16,33.328 L28.16,27.88 Z M34.988,32.5 L34.988,28.72 L29.012,28.72 L29.012,32.5 L34.988,32.5 Z M34.184,33.964 C35.516,35.404 36.536,36.664 37.244,37.732 L36.5,38.26 C35.78,37.096 34.772,35.812 33.488,34.408 L34.184,33.964 Z M29.804,33.976 L30.572,34.348 C29.732,35.86 28.736,37.156 27.584,38.26 L26.816,37.72 C27.98,36.676 28.976,35.428 29.804,33.976 Z M42.8,28.012 L45.464,28.012 L45.464,27.124 L46.316,27.124 L46.316,28.012 L48.98,28.012 L48.98,28.792 L46.316,28.792 L46.316,29.836 L49.22,29.836 L49.22,30.388 C49.028,31.156 48.764,31.912 48.44,32.668 L47.6,32.428 C47.888,31.9 48.116,31.3 48.308,30.64 L42.284,30.64 L42.284,29.836 L45.464,29.836 L45.464,28.792 L42.8,28.792 L42.8,28.012 Z M42.272,34.156 L45.704,34.156 C45.764,33.82 45.8,33.46 45.812,33.1 L45.812,31.048 L46.652,31.048 L46.652,33.1 C46.64,33.472 46.604,33.82 46.556,34.156 L49.472,34.156 L49.472,34.948 L46.376,34.948 C46.328,35.116 46.268,35.26 46.22,35.404 C47.432,36.004 48.548,36.7 49.556,37.516 L49.076,38.248 C48.032,37.336 46.964,36.604 45.884,36.052 C45.812,36.172 45.728,36.304 45.632,36.424 C45.008,37.192 43.976,37.804 42.56,38.236 L42.092,37.516 C43.484,37.108 44.444,36.556 44.996,35.872 C45.188,35.584 45.356,35.284 45.488,34.948 L42.272,34.948 L42.272,34.156 Z M42.764,32.188 C43.436,32.512 44.048,32.908 44.6,33.388 L44.168,34.048 C43.568,33.52 42.968,33.1 42.344,32.788 L42.764,32.188 Z M43.76,30.976 C44.384,31.288 44.96,31.66 45.488,32.104 L45.068,32.728 C44.516,32.224 43.94,31.84 43.352,31.552 L43.76,30.976 Z M39.968,27.34 C40.76,27.94 41.42,28.54 41.972,29.14 L41.384,29.74 C40.892,29.164 40.22,28.564 39.368,27.928 L39.968,27.34 Z M38.504,30.868 L41.036,30.868 L41.036,36.064 C41.336,35.764 41.648,35.428 41.984,35.068 L42.224,35.98 C41.6,36.652 40.952,37.24 40.268,37.768 L39.932,36.988 C40.1,36.844 40.196,36.676 40.196,36.484 L40.196,31.696 L38.504,31.696 L38.504,30.868 Z" id="path-13"></path>
        <rect id="path-14" x="0" y="0" width="180" height="50"></rect>
        <filter x="-1.1%" y="-2.0%" width="102.2%" height="108.0%" filterUnits="objectBoundingBox" id="filter-15">
            <feOffset dx="0" dy="1" in="SourceAlpha" result="shadowOffsetOuter1"></feOffset>
            <feGaussianBlur stdDeviation="0.5" in="shadowOffsetOuter1" result="shadowBlurOuter1"></feGaussianBlur>
            <feColorMatrix values="0 0 0 0 0   0 0 0 0 0   0 0 0 0 0  0 0 0 0.35 0" type="matrix" in="shadowBlurOuter1"></feColorMatrix>
        </filter>
        <path d="M68.806,18.604 L69.8,18.604 L69.8,20.06 L72.67,20.06 L72.67,20.97 L69.8,20.97 L69.8,22.608 L73.202,22.608 L73.202,23.56 L65.558,23.56 L65.558,22.608 L68.806,22.608 L68.806,20.97 L66.062,20.97 L66.062,20.06 L68.806,20.06 L68.806,18.604 Z M65.334,25.352 L70.486,25.352 L70.486,24.274 L71.494,24.274 L71.494,25.352 L73.216,25.352 L73.216,26.29 L71.494,26.29 L71.494,30.056 C71.494,30.882 71.074,31.302 70.262,31.302 L68.4,31.302 L68.176,30.322 C68.778,30.35 69.352,30.378 69.898,30.378 C70.29,30.378 70.486,30.182 70.486,29.804 L70.486,26.29 L65.334,26.29 L65.334,25.352 Z M62.338,31.274 L61.106,31.274 L60.896,30.308 C61.274,30.35 61.638,30.378 61.988,30.378 C62.352,30.378 62.548,30.168 62.548,29.762 L62.548,26.444 C62.002,26.64 61.456,26.822 60.924,26.99 L60.672,25.982 C61.316,25.828 61.932,25.646 62.548,25.422 L62.548,22.216 L60.826,22.216 L60.826,21.25 L62.548,21.25 L62.548,18.744 L63.542,18.744 L63.542,21.25 L64.998,21.25 L64.998,22.216 L63.542,22.216 L63.542,25.03 C64.046,24.806 64.536,24.568 65.012,24.316 L65.012,25.352 C64.536,25.604 64.046,25.828 63.542,26.038 L63.542,30.014 C63.542,30.854 63.136,31.274 62.338,31.274 Z M66.79,26.948 C67.518,27.802 68.078,28.558 68.47,29.202 L67.672,29.762 C67.252,29.062 66.692,28.292 65.978,27.438 L66.79,26.948 Z M79.04,28.446 L79.04,29.398 C77.822,29.902 76.45,30.308 74.91,30.616 L74.784,29.636 C76.408,29.342 77.822,28.95 79.04,28.446 Z M76.912,18.562 L77.864,18.94 C77.22,20.676 76.562,22.076 75.89,23.126 C76.464,23.056 77.038,22.958 77.626,22.846 C77.878,22.384 78.13,21.894 78.396,21.376 L79.32,21.726 C78.102,23.966 77.094,25.576 76.31,26.528 C77.15,26.36 78.004,26.122 78.844,25.814 L78.844,26.724 C77.528,27.172 76.282,27.466 75.092,27.634 L74.812,26.71 C74.994,26.654 75.148,26.556 75.274,26.43 C75.778,25.898 76.394,25.016 77.122,23.77 C76.408,23.896 75.68,24.008 74.952,24.12 L74.7,23.196 C74.854,23.14 74.994,23.014 75.12,22.832 C75.806,21.586 76.408,20.158 76.912,18.562 Z M80.034,19.458 L82.848,19.458 L82.848,18.534 L83.828,18.534 L83.828,19.458 L86.838,19.458 L86.838,20.368 L83.828,20.368 L83.828,21.642 L87.034,21.642 L87.034,22.272 C86.838,23.168 86.572,24.05 86.236,24.918 L85.27,24.638 C85.564,24.022 85.802,23.322 85.998,22.566 L79.6,22.566 L79.6,21.642 L82.848,21.642 L82.848,20.368 L80.034,20.368 L80.034,19.458 Z M79.292,26.682 L83.17,26.682 C83.212,26.374 83.24,26.052 83.254,25.73 L83.254,23.14 L84.234,23.14 L84.234,25.73 C84.22,26.066 84.192,26.374 84.164,26.682 L87.426,26.682 L87.426,27.606 L83.982,27.606 C83.912,27.858 83.842,28.082 83.758,28.306 C85.13,28.95 86.39,29.706 87.524,30.574 L86.964,31.442 C85.788,30.462 84.598,29.664 83.394,29.048 C83.31,29.188 83.212,29.314 83.128,29.44 C82.442,30.294 81.336,30.966 79.796,31.456 L79.236,30.574 C80.734,30.126 81.77,29.524 82.358,28.768 C82.61,28.418 82.806,28.026 82.946,27.606 L79.292,27.606 L79.292,26.682 Z M79.838,24.4 C80.608,24.764 81.308,25.226 81.952,25.758 L81.476,26.5 C80.79,25.912 80.09,25.436 79.362,25.086 L79.838,24.4 Z M80.916,22.958 C81.63,23.294 82.288,23.728 82.89,24.232 L82.414,24.946 C81.77,24.386 81.126,23.938 80.468,23.63 L80.916,22.958 Z M93.278,27.998 L88.966,27.998 L88.966,27.088 L94.538,27.088 L94.538,26.36 L95.546,26.36 L95.546,27.088 L101.034,27.088 L101.034,27.998 L96.792,27.998 C97.744,28.894 99.214,29.608 101.188,30.14 L100.754,31.036 C98.43,30.252 96.792,29.244 95.812,27.998 L95.546,27.998 L95.546,31.414 L94.538,31.414 L94.538,27.998 L94.272,27.998 C93.39,29.188 91.752,30.224 89.358,31.092 L88.826,30.224 C90.982,29.566 92.466,28.824 93.278,27.998 Z M90.338,22.048 C89.974,22.468 89.582,22.86 89.162,23.252 L88.588,22.468 C89.834,21.348 90.758,20.032 91.374,18.52 L92.312,18.758 C92.172,19.136 92.004,19.5 91.836,19.85 L94.86,19.85 C94.664,19.416 94.468,19.01 94.244,18.646 L95.28,18.478 C95.476,18.884 95.658,19.346 95.84,19.85 L100.362,19.85 L100.362,20.69 L95.91,20.69 L95.91,21.642 L99.844,21.642 L99.844,22.426 L95.91,22.426 L95.91,23.35 L99.844,23.35 L99.844,24.134 L95.91,24.134 L95.91,25.128 L100.628,25.128 L100.628,25.982 L90.338,25.982 L90.338,22.048 Z M94.916,25.128 L94.916,24.134 L91.276,24.134 L91.276,25.128 L94.916,25.128 Z M94.916,23.35 L94.916,22.426 L91.276,22.426 L91.276,23.35 L94.916,23.35 Z M94.916,21.642 L94.916,20.69 L91.346,20.69 L91.276,20.802 L91.276,21.642 L94.916,21.642 Z M112.416,18.52 C113.088,19.024 113.662,19.542 114.138,20.06 L113.494,20.704 L115.202,20.704 L115.202,21.67 L110.89,21.67 C110.988,23.406 111.17,24.778 111.422,25.786 C111.506,26.136 111.604,26.458 111.702,26.766 C112.402,25.646 112.962,24.33 113.396,22.832 L114.306,23.224 C113.746,25.072 113.018,26.64 112.122,27.9 C112.318,28.348 112.528,28.74 112.752,29.062 C113.214,29.734 113.592,30.07 113.872,30.07 C114.124,30.056 114.362,29.328 114.572,27.886 L115.482,28.39 C115.146,30.252 114.67,31.19 114.04,31.19 C113.452,31.19 112.822,30.77 112.15,29.93 C111.898,29.594 111.66,29.202 111.45,28.768 C110.47,29.916 109.322,30.77 108.006,31.358 L107.446,30.518 C108.846,29.888 110.036,28.964 111.002,27.746 C110.806,27.228 110.624,26.668 110.47,26.066 C110.162,24.89 109.966,23.42 109.854,21.67 L105.052,21.67 L105.052,23.994 L108.482,23.994 C108.454,26.36 108.342,27.886 108.16,28.572 C107.978,29.174 107.544,29.482 106.844,29.51 C106.508,29.51 106.102,29.482 105.654,29.454 L105.346,28.544 C105.892,28.572 106.354,28.586 106.732,28.586 C107.04,28.572 107.236,28.362 107.32,27.97 C107.404,27.494 107.446,26.486 107.474,24.946 L105.052,24.946 L105.052,25.366 C104.996,27.872 104.436,29.888 103.4,31.4 L102.63,30.714 C103.526,29.426 103.988,27.648 104.03,25.366 L104.03,20.704 L109.812,20.704 C109.784,20.004 109.77,19.29 109.77,18.534 L110.806,18.534 C110.806,19.318 110.82,20.032 110.848,20.704 L113.466,20.704 C113.046,20.2 112.486,19.682 111.772,19.136 L112.416,18.52 Z M121.488,18.52 L122.482,18.52 L117.526,31.4 L116.518,31.4 L121.488,18.52 Z M125.548,23.35 L125.548,25.688 L127.802,25.688 L127.802,23.35 L125.548,23.35 Z M127.802,22.44 L127.802,20.074 L125.548,20.074 L125.548,22.44 L127.802,22.44 Z M125.534,26.598 C125.45,28.558 125.114,30.168 124.54,31.428 L123.784,30.728 C124.344,29.468 124.624,27.844 124.638,25.884 L124.638,19.164 L128.726,19.164 L128.726,30.084 C128.726,30.924 128.334,31.358 127.55,31.358 L126.43,31.358 L126.192,30.462 C126.584,30.49 126.934,30.518 127.27,30.518 C127.62,30.518 127.802,30.266 127.802,29.762 L127.802,26.598 L125.534,26.598 Z M130.854,25.212 L130.854,31.414 L129.902,31.414 L129.902,19.15 L135.572,19.15 C135.572,20.886 135.488,22.034 135.32,22.594 C135.152,23.168 134.634,23.462 133.752,23.462 L132.618,23.462 L132.352,22.594 C132.59,22.594 132.898,22.608 133.29,22.608 C133.626,22.608 133.864,22.58 134.032,22.538 C134.2,22.482 134.326,22.342 134.41,22.132 C134.508,21.824 134.564,21.138 134.592,20.074 L130.854,20.074 L130.854,24.316 L135.614,24.316 L135.614,25.17 C135.348,26.612 134.886,27.844 134.242,28.852 C134.872,29.468 135.614,30.014 136.468,30.504 L135.964,31.358 C135.068,30.84 134.312,30.266 133.668,29.636 C133.052,30.35 132.338,30.924 131.498,31.372 L130.966,30.56 C131.764,30.126 132.436,29.58 132.996,28.908 C132.1,27.816 131.498,26.584 131.19,25.212 L130.854,25.212 Z M132.058,25.212 C132.352,26.29 132.856,27.256 133.57,28.124 C134.088,27.284 134.466,26.318 134.718,25.212 L132.058,25.212 Z M141.816,18.52 L142.838,18.66 C142.684,19.038 142.502,19.388 142.306,19.724 L148.41,19.724 L148.41,20.536 C147.514,21.572 146.422,22.454 145.134,23.182 C146.716,23.854 148.48,24.288 150.426,24.484 L149.964,25.422 C147.752,25.17 145.778,24.61 144.042,23.742 C142.334,24.526 140.332,25.1 138.064,25.45 L137.602,24.498 C139.632,24.218 141.41,23.77 142.95,23.154 C142.166,22.692 141.438,22.16 140.766,21.572 C140.234,22.048 139.66,22.482 139.016,22.874 L138.4,22.062 C140.08,21.096 141.228,19.92 141.816,18.52 Z M144.028,22.664 C145.162,22.104 146.142,21.432 146.968,20.676 L141.62,20.676 L141.438,20.9 C142.222,21.586 143.09,22.174 144.028,22.664 Z M143.174,24.75 L144.168,24.75 C144.168,25.31 144.112,25.842 144.028,26.346 L148.956,26.346 C148.928,28.712 148.718,30.126 148.312,30.588 C147.906,31.05 147.206,31.288 146.212,31.288 C145.764,31.288 145.218,31.26 144.574,31.232 L144.322,30.322 L145.974,30.392 C146.814,30.378 147.332,30.196 147.556,29.86 C147.766,29.524 147.892,28.656 147.934,27.256 L143.79,27.256 C143.678,27.62 143.524,27.97 143.342,28.306 C142.628,29.566 140.99,30.616 138.414,31.428 L137.742,30.602 C140.038,29.93 141.564,29.076 142.292,28.054 C142.46,27.802 142.614,27.536 142.726,27.256 L138.554,27.256 L138.554,26.346 L143.006,26.346 C143.118,25.842 143.174,25.31 143.174,24.75 Z M152.96,19.094 L157.23,19.094 L157.23,22.496 L152.96,22.496 L152.96,19.094 Z M156.306,21.642 L156.306,19.962 L153.87,19.962 L153.87,21.642 L156.306,21.642 Z M158.784,19.094 L163.138,19.094 L163.138,22.496 L158.784,22.496 L158.784,19.094 Z M162.228,21.642 L162.228,19.962 L159.708,19.962 L159.708,21.642 L162.228,21.642 Z M151.826,23.896 L156.544,23.896 C156.81,23.532 157.02,23.154 157.188,22.762 L158.154,22.86 C158.014,23.224 157.832,23.56 157.636,23.896 L161.248,23.896 C161.052,23.546 160.842,23.224 160.618,22.944 L161.472,22.664 C161.766,23.056 162.018,23.462 162.242,23.896 L164.174,23.896 L164.174,24.792 L160.394,24.792 C161.304,25.632 162.662,26.304 164.468,26.794 L164.062,27.648 C163.712,27.536 163.39,27.41 163.082,27.298 L163.082,31.414 L162.186,31.414 L162.186,30.812 L159.568,30.812 L159.568,31.414 L158.672,31.414 L158.672,27.004 L162.41,27.004 C161.066,26.388 160.03,25.646 159.33,24.792 L156.964,24.792 C156.18,25.688 155.13,26.416 153.814,27.004 L157.328,27.004 L157.328,31.414 L156.432,31.414 L156.432,30.812 L154.038,30.812 L154.038,31.414 L153.156,31.414 L153.156,27.284 C152.778,27.424 152.4,27.55 152.008,27.676 L151.546,26.85 C153.338,26.318 154.71,25.632 155.69,24.792 L151.826,24.792 L151.826,23.896 Z M154.038,29.944 L156.432,29.944 L156.432,27.844 L154.038,27.844 L154.038,29.944 Z M159.568,29.944 L162.186,29.944 L162.186,27.844 L159.568,27.844 L159.568,29.944 Z" id="path-16"></path>
        <polygon id="path-17" points="0 0.0003 29.852 0.0003 29.852 30 0 30"></polygon>
        <path d="M189.932,81.064 L190.064,81.892 L186.104,82.396 C186.176,83.164 186.272,83.824 186.392,84.376 C186.68,85.624 187.076,86.584 187.592,87.28 C188.06,87.928 188.504,88.252 188.912,88.264 C189.236,88.252 189.476,87.484 189.644,85.972 L190.4,86.404 C190.244,87.388 190.04,88.12 189.776,88.6 C189.56,88.948 189.284,89.128 188.96,89.14 C188.372,89.14 187.76,88.756 187.136,88 C186.452,87.16 185.948,86.068 185.612,84.724 C185.456,84.124 185.336,83.392 185.252,82.504 L182.648,82.84 L182.516,82.012 L185.18,81.664 C185.096,80.656 185.048,79.492 185.036,78.172 L185.924,78.172 C185.924,79.456 185.96,80.584 186.032,81.556 L189.932,81.064 Z M181.016,82.468 C180.608,83.02 180.152,83.536 179.672,84.04 L179.396,83.14 C180.716,81.688 181.664,80.02 182.264,78.148 L183.068,78.532 C182.756,79.444 182.372,80.308 181.904,81.112 L181.904,89.224 L181.016,89.224 L181.016,82.468 Z M187.232,78.256 C187.964,78.868 188.588,79.48 189.092,80.08 L188.492,80.668 C188.06,80.08 187.448,79.456 186.68,78.796 L187.232,78.256 Z M195.536,82.408 L195.536,88.576 L194.744,88.576 L194.744,87.892 L193.448,87.892 L193.448,88.804 L192.644,88.804 L192.644,83.92 C192.404,84.352 192.14,84.772 191.852,85.18 L191.42,84.484 C192.332,83.092 192.932,81.496 193.22,79.708 L191.756,79.708 L191.756,78.868 L195.848,78.868 L195.848,79.708 L194.036,79.708 C193.868,80.668 193.64,81.568 193.328,82.408 L195.536,82.408 Z M193.448,87.112 L194.744,87.112 L194.744,83.2 L193.448,83.2 L193.448,87.112 Z M197.156,80.356 L198.008,80.416 L197.48,83.44 L200.024,83.44 L200.624,79.516 L196.4,79.516 L196.4,78.7 L201.56,78.7 L200.9,83.44 L202.172,83.44 C202.172,86.344 202.004,88.012 201.692,88.468 C201.356,88.9 200.672,89.128 199.616,89.128 C199.28,89.128 198.92,89.116 198.536,89.092 L198.296,88.252 C198.824,88.3 199.196,88.324 199.412,88.324 C200.336,88.324 200.888,88.12 201.068,87.736 C201.26,87.328 201.356,86.164 201.356,84.244 L196.508,84.244 L197.156,80.356 Z M196.136,85.768 L200.528,85.768 L200.528,86.584 L196.136,86.584 L196.136,85.768 Z M213.56,82.792 C213.944,83.668 214.28,84.604 214.568,85.6 L213.908,85.9 C213.596,84.82 213.248,83.848 212.888,83.008 L213.56,82.792 Z M209.6,78.292 L210.44,78.292 L210.44,80.356 L212.876,80.356 C212.876,84.244 212.816,86.644 212.696,87.556 C212.576,88.564 212.012,89.08 210.98,89.08 C210.8,89.08 210.5,89.056 210.08,89.032 L209.864,88.24 C210.248,88.264 210.572,88.276 210.86,88.276 C211.436,88.276 211.772,87.916 211.868,87.208 C211.94,86.56 211.988,84.556 212.012,81.196 L210.44,81.196 L210.44,81.4 C210.392,84.964 209.432,87.568 207.548,89.212 L206.9,88.636 C208.664,87.136 209.564,84.724 209.6,81.4 L209.6,81.196 L207.56,81.196 L207.56,80.356 L209.6,80.356 L209.6,78.292 Z M207.776,82.732 L208.472,82.912 C208.112,84.328 207.62,85.42 206.972,86.176 L206.396,85.636 C207.02,84.868 207.488,83.896 207.776,82.732 Z M203.492,81.028 L204.884,81.028 L204.884,78.268 L205.712,78.268 L205.712,81.028 L207.056,81.028 L207.056,81.832 L205.712,81.832 L205.712,89.2 L204.884,89.2 L204.884,81.832 L203.492,81.832 L203.492,81.028 Z M220.808,80.74 C220.256,81.904 219.62,82.912 218.9,83.776 L218.288,83.044 C219.344,81.796 220.22,80.152 220.892,78.124 L221.756,78.316 C221.564,78.868 221.372,79.396 221.18,79.888 L226.364,79.888 L226.364,80.74 L222.332,80.74 L222.332,82.72 L225.836,82.72 L225.836,83.56 L222.332,83.56 L222.332,85.588 L225.908,85.588 L225.908,86.416 L222.332,86.416 L222.332,89.212 L221.456,89.212 L221.456,80.74 L220.808,80.74 Z M216.968,82.468 C216.584,82.972 216.164,83.452 215.708,83.908 L215.42,82.996 C216.716,81.592 217.664,79.984 218.252,78.16 L219.068,78.544 C218.744,79.48 218.336,80.356 217.856,81.172 L217.856,89.212 L216.968,89.212 L216.968,82.468 Z" id="path-19"></path>
    </defs>
    <g id="介绍页配图设计" stroke="none" stroke-width="1" fill="none" fill-rule="evenodd">
        <g id="应用场景复制" transform="translate(-201.000000, -210.000000)">
            <g id="编组-5" transform="translate(201.000000, 67.000000)">
                <g id="流程1" transform="translate(0.000000, 139.000000)">
                    <g id="ce55d0acbf344d121aee68366e8d65ee-copy-2" transform="translate(61.000000, 5.000000)">
                        <g id="XMLID_25_">
                            <g id="分组">
                                <g id="XMLID_134_">
                                    <use fill="black" fill-opacity="1" filter="url(#filter-2)" xlink:href="#path-1"></use>
                                    <use fill="#FFFFFF" fill-rule="evenodd" xlink:href="#path-1"></use>
                                </g>
                                <g id="开发者/本地环境A" fill-rule="nonzero">
                                    <use fill="#000000" xlink:href="#path-3"></use>
                                    <use fill="#444444" xlink:href="#path-3"></use>
                                </g>
                            </g>
                            <g id="分组-copy" transform="translate(0.000000, 71.000000)">
                                <g id="XMLID_134_">
                                    <use fill="black" fill-opacity="1" filter="url(#filter-5)" xlink:href="#path-4"></use>
                                    <use fill="#FFFFFF" fill-rule="evenodd" xlink:href="#path-4"></use>
                                </g>
                                <g id="开发者/本地环境B" fill-rule="nonzero">
                                    <use fill="#000000" xlink:href="#path-6"></use>
                                    <use fill="#444444" xlink:href="#path-6"></use>
                                </g>
                            </g>
                            <g id="分组-copy-8" transform="translate(0.000000, 142.000000)">
                                <g id="XMLID_134_">
                                    <use fill="black" fill-opacity="1" filter="url(#filter-8)" xlink:href="#path-7"></use>
                                    <use fill="#FFFFFF" fill-rule="evenodd" xlink:href="#path-7"></use>
                                </g>
                                <g id="开发者/本地环境C" fill-rule="nonzero">
                                    <use fill="#000000" xlink:href="#path-9"></use>
                                    <use fill="#444444" xlink:href="#path-9"></use>
                                </g>
                            </g>
                        </g>
                        <g id="分组-13" transform="translate(250.000000, 71.000000)">
                            <g id="XMLID_110_">
                                <use fill="black" fill-opacity="1" filter="url(#filter-11)" xlink:href="#path-10"></use>
                                <use fill="#FFFFFF" fill-rule="evenodd" xlink:href="#path-10"></use>
                            </g>
                            <path d="M60.61,18.842 C61.604,19.57 62.444,20.284 63.13,20.984 L62.444,21.67 C61.828,20.998 60.988,20.27 59.924,19.5 L60.61,18.842 Z M60.358,22.272 C61.282,22.972 62.066,23.658 62.696,24.344 L62.01,25.03 C61.45,24.372 60.68,23.672 59.672,22.93 L60.358,22.272 Z M61.982,26.052 L62.85,26.388 C62.234,28.152 61.534,29.804 60.764,31.358 L59.826,30.938 C60.666,29.342 61.38,27.718 61.982,26.052 Z M65.734,21.348 L67.722,21.348 C67.89,20.914 68.016,20.48 68.114,20.032 L64.74,20.032 L64.74,24.106 C64.684,27.13 64.152,29.566 63.144,31.386 L62.388,30.714 C63.256,29.132 63.718,26.934 63.76,24.106 L63.76,19.122 L72.16,19.122 L72.16,20.032 L69.066,20.032 C68.968,20.494 68.842,20.928 68.688,21.348 L71.418,21.348 L71.418,26.262 L69.094,26.262 L69.094,30.224 C69.094,30.98 68.716,31.358 67.988,31.358 L66.812,31.358 L66.602,30.448 C66.966,30.49 67.316,30.518 67.652,30.518 C67.96,30.518 68.128,30.336 68.128,29.986 L68.128,26.262 L65.734,26.262 L65.734,21.348 Z M70.522,25.45 L70.522,24.19 L66.63,24.19 L66.63,25.45 L70.522,25.45 Z M66.63,23.434 L70.522,23.434 L70.522,22.146 L66.63,22.146 L66.63,23.434 Z M66.084,27.256 L66.98,27.452 C66.616,28.684 66.112,29.762 65.468,30.672 L64.656,30.168 C65.314,29.286 65.79,28.32 66.084,27.256 Z M70.844,27.186 C71.418,28.152 71.922,29.188 72.342,30.28 L71.488,30.658 C71.04,29.454 70.536,28.404 70.004,27.48 L70.844,27.186 Z M78.292,23.476 L78.292,30.672 L77.368,30.672 L77.368,29.874 L75.856,29.874 L75.856,30.938 L74.918,30.938 L74.918,25.24 C74.638,25.744 74.33,26.234 73.994,26.71 L73.49,25.898 C74.554,24.274 75.254,22.412 75.59,20.326 L73.882,20.326 L73.882,19.346 L78.656,19.346 L78.656,20.326 L76.542,20.326 C76.346,21.446 76.08,22.496 75.716,23.476 L78.292,23.476 Z M75.856,28.964 L77.368,28.964 L77.368,24.4 L75.856,24.4 L75.856,28.964 Z M80.182,21.082 L81.176,21.152 L80.56,24.68 L83.528,24.68 L84.228,20.102 L79.3,20.102 L79.3,19.15 L85.32,19.15 L84.55,24.68 L86.034,24.68 C86.034,28.068 85.838,30.014 85.474,30.546 C85.082,31.05 84.284,31.316 83.052,31.316 C82.66,31.316 82.24,31.302 81.792,31.274 L81.512,30.294 C82.128,30.35 82.562,30.378 82.814,30.378 C83.892,30.378 84.536,30.14 84.746,29.692 C84.97,29.216 85.082,27.858 85.082,25.618 L79.426,25.618 L80.182,21.082 Z M78.992,27.396 L84.116,27.396 L84.116,28.348 L78.992,28.348 L78.992,27.396 Z M93.636,18.618 L94.364,18.618 C96.1,20.718 98.116,22.37 100.412,23.574 L99.908,24.47 C97.598,23.21 95.624,21.572 94,19.528 C92.488,21.46 90.514,23.126 88.05,24.54 L87.546,23.63 C89.982,22.286 92.012,20.62 93.636,18.618 Z M96.422,24.512 L91.508,24.512 L91.508,29.44 C91.508,29.958 91.76,30.224 92.292,30.224 L96.548,30.224 C97.346,30.224 97.836,30.084 98.032,29.804 C98.228,29.496 98.382,28.88 98.48,27.956 L99.418,28.264 C99.278,29.636 99.04,30.462 98.69,30.77 C98.354,31.022 97.738,31.162 96.814,31.162 L91.886,31.162 C90.948,31.162 90.486,30.7 90.486,29.776 L90.486,23.588 L97.43,23.588 L97.43,26.822 C97.416,27.69 97.01,28.152 96.226,28.194 C95.526,28.194 94.854,28.18 94.21,28.152 L93.944,27.186 C94.644,27.242 95.274,27.27 95.862,27.27 C96.226,27.27 96.422,27.018 96.422,26.514 L96.422,24.512 Z M108.476,18.45 C108.728,18.856 108.966,19.304 109.19,19.808 L114.23,19.808 L114.23,20.788 L103.856,20.788 L103.856,23.98 C103.8,27.074 103.338,29.552 102.442,31.4 L101.616,30.658 C102.386,29.062 102.792,26.836 102.82,23.98 L102.82,19.808 L108.084,19.808 C107.86,19.374 107.608,18.982 107.356,18.646 L108.476,18.45 Z M107.566,21.18 L108.532,21.404 C108.406,21.796 108.28,22.16 108.154,22.524 L113.614,22.524 L113.614,23.406 L107.804,23.406 C107.412,24.302 106.992,25.1 106.544,25.8 L109.162,25.8 L109.162,24.106 L110.17,24.106 L110.17,25.8 L113.292,25.8 L113.292,26.71 L110.17,26.71 L110.17,28.278 L114.356,28.278 L114.356,29.202 L110.17,29.202 L110.17,31.414 L109.162,31.414 L109.162,29.202 L104.108,29.202 L104.108,28.278 L109.162,28.278 L109.162,26.71 L105.494,26.71 L105.284,25.842 C105.816,25.184 106.306,24.372 106.74,23.406 L104.626,23.406 L104.626,22.524 L107.104,22.524 C107.258,22.09 107.412,21.642 107.566,21.18 Z M126.9,18.422 L127.88,18.422 C127.32,19.346 126.872,20.312 126.55,21.32 C126.13,22.552 125.934,23.756 125.934,24.96 C125.934,26.15 126.13,27.368 126.55,28.6 C126.872,29.594 127.32,30.56 127.88,31.498 L126.9,31.498 C126.284,30.588 125.808,29.622 125.458,28.614 C125.038,27.41 124.842,26.192 124.842,24.974 C124.842,23.728 125.038,22.51 125.458,21.306 C125.808,20.284 126.284,19.318 126.9,18.422 Z M134.278,19.808 C135.524,19.808 136.518,20.102 137.26,20.718 C137.96,21.292 138.394,22.118 138.576,23.21 L137.428,23.21 C137.274,22.454 136.938,21.88 136.42,21.474 C135.874,21.04 135.16,20.83 134.278,20.83 C133.186,20.83 132.332,21.208 131.688,21.978 C131.044,22.734 130.736,23.756 130.736,25.044 C130.736,26.304 131.044,27.298 131.66,28.026 C132.318,28.796 133.298,29.188 134.6,29.188 C135.146,29.188 135.664,29.104 136.168,28.964 C136.658,28.824 137.078,28.628 137.428,28.404 L137.428,25.856 L134.292,25.856 L134.292,24.862 L138.562,24.862 L138.562,28.95 C138.086,29.342 137.498,29.636 136.812,29.86 C136.084,30.084 135.314,30.196 134.488,30.196 C132.906,30.196 131.674,29.692 130.806,28.684 C129.994,27.746 129.588,26.528 129.588,25.044 C129.588,23.56 129.98,22.342 130.792,21.376 C131.646,20.326 132.808,19.808 134.278,19.808 Z M141.264,20.032 C141.502,20.032 141.698,20.102 141.866,20.27 C142.034,20.41 142.118,20.606 142.118,20.858 C142.118,21.096 142.034,21.292 141.866,21.46 C141.698,21.614 141.502,21.698 141.264,21.698 C141.026,21.698 140.83,21.614 140.662,21.46 C140.494,21.292 140.424,21.096 140.424,20.858 C140.424,20.606 140.494,20.41 140.662,20.27 C140.83,20.102 141.026,20.032 141.264,20.032 Z M140.704,22.762 L141.824,22.762 L141.824,30 L140.704,30 L140.704,22.762 Z M145.856,20.424 L145.856,22.762 L147.648,22.762 L147.648,23.7 L145.856,23.7 L145.856,28.306 C145.856,28.572 145.898,28.768 146.01,28.88 C146.108,28.992 146.29,29.062 146.542,29.062 L147.466,29.062 L147.466,30 L146.374,30 C145.786,30 145.352,29.846 145.1,29.538 C144.862,29.258 144.75,28.852 144.75,28.306 L144.75,23.7 L143.294,23.7 L143.294,22.762 L144.75,22.762 L144.75,20.886 L145.856,20.424 Z M153.514,18.52 L154.508,18.52 L149.552,31.4 L148.544,31.4 L153.514,18.52 Z M159.394,19.808 C160.514,19.808 161.41,20.06 162.054,20.578 C162.726,21.11 163.104,21.908 163.202,22.958 L162.068,22.958 C161.942,22.23 161.662,21.698 161.228,21.348 C160.78,20.984 160.15,20.816 159.338,20.816 C158.596,20.816 158.022,20.928 157.602,21.18 C157.126,21.46 156.888,21.88 156.888,22.454 C156.888,22.958 157.168,23.364 157.742,23.672 C157.994,23.812 158.61,24.022 159.576,24.302 C160.892,24.694 161.76,25.016 162.18,25.268 C163.006,25.772 163.426,26.472 163.426,27.382 C163.426,28.25 163.076,28.95 162.376,29.454 C161.676,29.944 160.738,30.196 159.548,30.196 C158.372,30.196 157.448,29.944 156.776,29.44 C155.992,28.838 155.558,27.928 155.474,26.696 L156.608,26.696 C156.706,27.564 157.014,28.208 157.518,28.614 C157.98,28.978 158.652,29.174 159.548,29.174 C160.36,29.174 161.032,29.02 161.536,28.712 C162.04,28.404 162.292,27.984 162.292,27.452 C162.292,26.822 161.956,26.332 161.298,25.982 C161.018,25.814 160.304,25.576 159.184,25.254 C157.98,24.89 157.21,24.61 156.888,24.442 C156.118,23.994 155.74,23.35 155.74,22.51 C155.74,21.642 156.104,20.956 156.846,20.48 C157.504,20.032 158.358,19.808 159.394,19.808 Z M163.944,20.004 L165.204,20.004 L168.326,28.754 L168.368,28.754 L171.49,20.004 L172.75,20.004 L169.054,30 L167.64,30 L163.944,20.004 Z M173.828,20.004 L175.032,20.004 L180.688,28.138 L180.73,28.138 L180.73,20.004 L181.878,20.004 L181.878,30 L180.702,30 L175.018,21.782 L174.976,21.782 L174.976,30 L173.828,30 L173.828,20.004 Z M184.006,18.422 L184.986,18.422 C185.588,19.318 186.064,20.284 186.428,21.306 C186.834,22.51 187.044,23.728 187.044,24.974 C187.044,26.192 186.834,27.41 186.428,28.614 C186.064,29.622 185.588,30.588 184.986,31.498 L184.006,31.498 C184.566,30.56 185,29.594 185.336,28.6 C185.742,27.368 185.952,26.15 185.952,24.96 C185.952,23.756 185.742,22.552 185.336,21.32 C185,20.312 184.566,19.346 184.006,18.422 Z" id="源码仓库（Git/SVN）" fill="#444444" fill-rule="nonzero"></path>
                            <g id="分组-6" transform="translate(20.000000, 13.000000)" fill-rule="nonzero">
                                <path d="M1,1.0491621 L1,23.0421171 L29,23.0421171 L29,1.0491621 L1,1.0491621 Z" id="矩形" stroke="#00A4FF" stroke-width="2" fill="#FFFFFF"></path>
                                <rect id="矩形" stroke="#00A4FF" fill="#D8D8D8" x="0.5" y="8.5" width="27" height="1"></rect>
                                <circle id="椭圆形" fill="#00A4FF" cx="5" cy="5" r="1"></circle>
                                <circle id="椭圆形-copy" fill="#00A4FF" cx="9" cy="5" r="1"></circle>
                            </g>
                        </g>
                        <g id="分组-30" transform="translate(454.000000, 76.000000)">
                            <polygon id="XMLID_22_" fill="#878787" points="72 25 77 20.5 72 16"></polygon>
                            <g id="部署公钥" fill-rule="nonzero">
                                <use fill="#000000" xlink:href="#path-12"></use>
                                <use fill="#878787" xlink:href="#path-12"></use>
                            </g>
                            <g id="只读" fill-rule="nonzero">
                                <use fill="#000000" xlink:href="#path-13"></use>
                                <use fill="#878787" xlink:href="#path-13"></use>
                            </g>
                            <rect id="XMLID_10_" fill="#878787" x="0" y="20" width="72" height="1"></rect>
                        </g>
                        <g id="分组-13-copy" transform="translate(541.000000, 71.000000)">
                            <g id="XMLID_110_">
                                <use fill="black" fill-opacity="1" filter="url(#filter-15)" xlink:href="#path-14"></use>
                                <use fill="#FFFFFF" fill-rule="evenodd" xlink:href="#path-14"></use>
                            </g>
                            <g id="持续集成/服务器" fill-rule="nonzero">
                                <use fill="#000000" xlink:href="#path-16"></use>
                                <use fill="#444444" xlink:href="#path-16"></use>
                            </g>
                            <g id="分组" transform="translate(20.000000, 10.000000)">
                                <mask id="mask-18" fill="white">
                                    <use xlink:href="#path-17"></use>
                                </mask>
                                <g id="Clip-2"></g>
                                <path d="M15,14.6963 L10.281,12.0003 L15,9.3033 L19.719,12.0003 L15,14.6963 Z M22,11.0003 L15,7.0003 L8,11.0003 L8,19.0003 L11.195,20.8263 C11.398,20.1693 11.753,19.5823 12.236,19.1173 L10,17.8403 L10,14.1423 L15,17.0003 L20,14.1423 L20,17.8403 L15.863,20.2033 C15.602,20.0773 15.311,20.0003 15,20.0003 C13.896,20.0003 13,20.8953 13,22.0003 C13,23.1043 13.896,24.0003 15,24.0003 C16.104,24.0003 17,23.1043 17,22.0003 C17,21.9533 16.989,21.9103 16.986,21.8653 L22,19.0003 L22,11.0003 Z M15,28.0003 C7.82,28.0003 2,22.1793 2,15.0003 C2,7.8203 7.82,2.0003 15,2.0003 C21.498,2.0003 26.866,6.7723 27.83,13.0003 L29.852,13.0003 C28.871,5.6643 22.604,0.0003 15,0.0003 C6.716,0.0003 0,6.7163 0,15.0003 C0,23.2843 6.716,30.0003 15,30.0003 C22.604,30.0003 28.871,24.3363 29.852,17.0003 L27.83,17.0003 C26.866,23.2273 21.498,28.0003 15,28.0003 L15,28.0003 Z" id="Fill-1" fill="#00A4FF" mask="url(#mask-18)"></path>
                            </g>
                        </g>
                        <g id="XMLID_11_" transform="translate(162.000000, 6.000000)"></g>
                        <g id="分组" transform="translate(148.000000, 22.000000)">
                            <polygon id="Fill-1" fill="#878787" points="5.0004 0.0004 0.0004 4.5004 5.0004 9.0004"></polygon>
                            <polygon id="Fill-2" fill="#878787" points="0 73.4998 5 77.9998 5 68.9998"></polygon>
                            <polygon id="Fill-3" fill="#878787" points="87 78 92 73.5 87 69"></polygon>
                            <polygon id="Fill-4" fill="#878787" points="0 143.5 5 148 5 139"></polygon>
                            <path d="M87.5,73.4998 L3,73.5" id="Stroke-5" stroke="#878787"></path>
                            <path d="M22,4.5 L4,4.5" id="Stroke-6" stroke="#878787"></path>
                            <polyline id="Stroke-7" stroke="#878787" points="3 143.5 21.5018853 143.397236 21.5102761 4.06173853"></polyline>
                        </g>
                        <g id="代码协作" fill-rule="nonzero">
                            <use fill="#000000" xlink:href="#path-19"></use>
                            <use fill="#878787" xlink:href="#path-19"></use>
                        </g>
                    </g>
                </g>
            </g>
        </g>
    </g>
</svg>