<?xml version="1.0" encoding="utf-8"?>
<!-- Generator: Adobe Illustrator 21.0.0, SVG Export Plug-In . SVG Version: 6.00 Build 0)  -->
<svg width="48px" height="48px" version="1.1" id="图层_1" xmlns="http://www.w3.org/2000/svg" xmlns:xlink="http://www.w3.org/1999/xlink" x="0px" y="0px"
	 viewBox="0 0 44 48" style="enable-background:new 0 0 44 48;" xml:space="preserve">
<style type="text/css">
	.st0{enable-background:new    ;}
	.st1{fill:#00A4FF;}
</style>
<title>编组 25</title>
<desc>Created with Sketch.</desc>
<g class="st0">
	<path class="st1" d="M11.8,19v1.3H6.5v2.9h5v1.3h-5V29H5V19H11.8z"/>
	<path class="st1" d="M17.5,19c1,0,1.8,0.2,2.4,0.7c0.6,0.5,0.9,1.2,0.9,2.2c0,0.5-0.1,1-0.4,1.4c-0.3,0.4-0.8,0.7-1.3,0.9v0
		c0.9,0.2,1.4,0.8,1.5,1.8l0.2,1.6c0.1,0.6,0.3,1.1,0.6,1.5h-1.7c-0.2-0.3-0.4-0.8-0.4-1.3l-0.1-1.2c-0.1-0.6-0.2-1-0.5-1.2
		c-0.3-0.3-0.7-0.4-1.3-0.4h-2.7V29h-1.5V19H17.5z M14.6,23.6h2.7c0.7,0,1.2-0.2,1.5-0.4c0.3-0.3,0.5-0.7,0.5-1.2
		c0-0.6-0.2-1-0.5-1.2c-0.3-0.3-0.8-0.4-1.5-0.4h-2.7V23.6z"/>
	<path class="st1" d="M30,19v1.3h-5.7v2.9h5.3v1.3h-5.3v3.2h5.9V29h-7.4V19H30z"/>
	<path class="st1" d="M39,19v1.3h-5.7v2.9h5.3v1.3h-5.3v3.2h5.9V29h-7.4V19H39z"/>
</g>
<polygon id="Path" class="st1" points="42,19.1 42,34.9 22,45.8 2,34.9 2,13.1 22,2.2 42,13.1 42,13.1 44,12 44,12 22,0 0,12 0,36 
	22,48 44,36 44,18 "/>
</svg>
