<?xml version="1.0" encoding="utf-8"?>
<!-- Generator: Adobe Illustrator 22.0.0, SVG Export Plug-In . SVG Version: 6.00 Build 0)  -->
<svg version="1.1" id="图层_1" xmlns="http://www.w3.org/2000/svg" xmlns:xlink="http://www.w3.org/1999/xlink" x="0px" y="0px"
	 viewBox="0 0 32 32" style="enable-background:new 0 0 32 32;" xml:space="preserve">
<style type="text/css">
	.st0{fill:#FFFFFF;}
</style>
<title>画板 1 副本 3</title>
<path class="st0" d="M16,7c-4.4,0-8,3.6-8,8s3.6,8,8,8s8-3.6,8-8S20.4,7,16,7z M16,21c-3.3,0-6-2.7-6-6s2.7-6,6-6s6,2.7,6,6
	S19.3,21,16,21z"/>
<g id="_编组_">
	<path class="st0" d="M27,8v9.2c-0.1,1.7-0.6,3.3-1.4,4.8c-1.8,3.4-5.1,5.7-9.6,6.9C5.3,26.3,5,17.6,5,17.2V4h24V2H3v15.2
		C3,17.2,3.1,28,16,31c12.9-3,13-13.8,13-13.8V8H27z"/>
</g>
<polygon class="st0" points="19.2,14 16.7,14 18.6,11 16.2,11 13.8,15.8 15.7,15.8 14.4,20 "/>
</svg>
