<?xml version="1.0" encoding="UTF-8"?>
<svg width="32px" height="32px" viewBox="0 0 32 32" version="1.1" xmlns="http://www.w3.org/2000/svg" xmlns:xlink="http://www.w3.org/1999/xlink">
    <!-- Generator: Sketch 52.2 (67145) - http://www.bohemiancoding.com/sketch -->
    <title>物联网边缘智能数据处理-32px 灰</title>
    <desc>Created with Sketch.</desc>
    <g id="物联网边缘智能数据处理-32px-灰" stroke="none" stroke-width="1" fill="none" fill-rule="evenodd">
        <rect id="Rectangle-Copy" fill="#444444" opacity="0" x="0" y="0" width="32" height="32"></rect>
        <g id="Group" transform="translate(1.000000, 1.000000)" fill="#7C848E">
            <circle id="Oval-29" cx="8" cy="11" r="2"></circle>
            <circle id="Oval-29-Copy-2" cx="8" cy="20" r="2"></circle>
            <circle id="Oval-29-Copy" cx="22" cy="11" r="2"></circle>
            <circle id="Oval-29-Copy-3" cx="22" cy="20" r="2"></circle>
            <circle id="Oval-29-Copy-4" cx="15" cy="12" r="2"></circle>
            <circle id="Oval-29-Copy-5" cx="15" cy="19" r="2"></circle>
            <path d="M15.0360687,28.0004791 C8.11442647,28.0085887 2.40020596,22.5918552 2.03859105,15.6796607 C1.67697614,8.76746629 6.79479207,2.78404937 13.6794961,2.06987306 C20.5642002,1.35569675 26.8011952,6.16123631 27.8660687,13.0004791 L29.8660687,13.0004791 C28.8133703,5.17573571 21.8753549,-0.493528697 13.9977603,0.0339993612 C6.12016569,0.561527419 -4.34097203e-14,7.10524111 -4.4408921e-14,15.0004791 C-4.54081217e-14,22.8957171 6.12016569,29.4394308 13.9977603,29.9669588 C21.8753549,30.4944869 28.8133703,24.8252225 29.8660687,17.0004791 L27.8660687,17.0004791 C26.8811903,23.3260041 21.4378026,27.9929773 15.0360687,28.0004791 Z" id="_复合路径_-path"></path>
        </g>
        <path d="M20,16 L22,16 L20,18 L20,16 Z M20,16 L20,8 L22,6 L22,18 L10,18 L12,16 L20,16 Z M22,16 L20,18 L20,16 L22,16 Z M20,8 L22,6 L22,18 L10,18 L12,16 L20,16 L20,8 Z" id="Rectangle-Copy-6" fill="#7C848E" fill-rule="nonzero" transform="translate(16.000000, 12.000000) rotate(45.000000) translate(-16.000000, -12.000000) "></path>
        <path d="M20,25 L22,25 L20,27 L20,25 Z M20,25 L20,17 L22,15 L22,27 L10,27 L12,25 L20,25 Z M20,25 L22,25 L20,27 L20,25 Z M20,25 L20,17 L22,15 L22,27 L10,27 L12,25 L20,25 Z" id="Rectangle-Copy-7" fill="#7C848E" fill-rule="nonzero" transform="translate(16.000000, 21.000000) scale(1, -1) rotate(45.000000) translate(-16.000000, -21.000000) "></path>
    </g>
</svg>