<?xml version="1.0" encoding="UTF-8"?>
<svg width="16px" height="16px" viewBox="0 0 16 16" version="1.1" xmlns="http://www.w3.org/2000/svg" xmlns:xlink="http://www.w3.org/1999/xlink">
    <!-- Generator: Sketch 52.6 (67491) - http://www.bohemiancoding.com/sketch -->
    <title>人脸识别</title>
    <desc>Created with Sketch.</desc>
    <g id="人脸识别" stroke="none" stroke-width="1" fill="none" fill-rule="evenodd">
        <rect id="Rectangle" fill-rule="nonzero" x="0" y="0" width="16" height="16"></rect>
        <path d="M13,13 L13,10 L15,10 L15,13 L15,15 L10,15 L10,13 L13,13 Z M3,13 L6,13 L6,15 L1,15 L1,13 L1,10 L3,10 L3,13 Z M15,3 L15,6 L13,6 L13,3 L10,3 L10,1 L15,1 L15,3 Z M3,3 L3,6 L1,6 L1,3 L1,1 L6,1 L6,3 L3,3 Z M1,7 L15,7 L15,9 L1,9 L1,7 Z" id="Combined-Shape" fill="#00A4FF" fill-rule="nonzero"></path>
    </g>
</svg>