<svg xmlns="http://www.w3.org/2000/svg" width="32" height="32" viewBox="0 0 32 32">
  <title>14安全技术培训32x32白色</title>
  <g>
    <path d="M29,1.5H3V16.7s.1,10.8,13,13.8c12.9-3,13-13.8,13-13.8V7.5H27v9.2a11.583,11.583,0,0,1-1.4,4.8c-1.8,3.4-5.1,5.7-9.6,6.9C5.3,25.8,5,17.1,5,16.7V3.5H29Z" style="fill: #fff"/>
    <polygon points="14.931 16.843 15.184 17.096 19.745 12.535 18.409 11.199 15.18 14.428 13.591 12.839 12.255 14.174 14.927 16.846 14.931 16.843" style="fill: #fff"/>
    <path d="M9,7.064v14H23v-14H9Zm12,12H11v-10H21Z" style="fill: #fff"/>
  </g>
</svg>
