<?xml version="1.0" encoding="utf-8"?>
<!-- Generator: Adobe Illustrator 21.0.0, SVG Export Plug-In . SVG Version: 6.00 Build 0)  -->
<svg version="1.1" id="图层_1" xmlns="http://www.w3.org/2000/svg" xmlns:xlink="http://www.w3.org/1999/xlink" x="0px" y="0px"
	 width="48px" height="48px" viewBox="0 0 48 48" style="enable-background:new 0 0 48 48;" xml:space="preserve">
<style type="text/css">
	.st0{fill:#444444;fill-opacity:0;}
	.st1{fill:#334966;}
	.st2{fill:#00A4FF;}
</style>
<g id="视频播放质量清晰-48px">
	<rect id="Rectangle-Copy" y="0" class="st0" width="48" height="48"/>
	<g id="Group" transform="translate(0.000000, 4.000000)">
		<path id="Rectangle-10" class="st1" d="M2,8v30h32V8H2z M0,6h36v34H0V6z"/>
		<path id="Rectangle-10-Copy" class="st1" d="M46,13.7l-10,2.9v13l10,2.9V13.7z M34,15l14-4v24l-14-4V15z"/>
		<rect id="Rectangle-14" x="6" y="0" class="st1" width="24" height="2"/>
		<rect id="Rectangle-14-Copy" x="28" y="0" class="st1" width="2" height="8"/>
		<rect id="Rectangle-15" x="2" y="23" class="st2" width="32" height="15"/>
		<path id="Combined-Shape" class="st1" d="M8,22h6v-6h2v14h-2v-6H8v6H6V16h2V22z"/>
		<path id="Rectangle-12" class="st1" d="M22,18v10h4c1.1,0,2-0.9,2-2v-6c0-1.1-0.9-2-2-2H22z M20,16h6c2.2,0,4,1.8,4,4v6
			c0,2.2-1.8,4-4,4h-6V16z"/>
	</g>
</g>
</svg>
