<svg xmlns="http://www.w3.org/2000/svg" width="48" height="48" viewBox="0 0 48 48">
  <title>活动防刷_48x48icon</title>
  <path d="M23.671,45.957l-.294-.088C2.841,39.708,3.623,26.4,3.666,25.834l0-23.923H43.155v2H5.663v22c-.036.569-.619,12.245,17.992,17.953,17.8-5.752,18.008-17.831,18.008-17.953v-16h2v16c0,.561-.224,13.8-19.7,19.953Z" style="fill: #00a4ff"/>
  <rect x="28.992" y="-2.251" width="2" height="35.003" transform="translate(-1.999 25.675) rotate(-45)" style="fill: #00a4ff"/>
  <rect x="16.817" y="10.549" width="2" height="36.552" transform="translate(-15.164 21.041) rotate(-45)" style="fill: #00a4ff"/>
  <rect x="20.681" y="-2.885" width="2" height="45.759" transform="translate(-7.788 21.187) rotate(-45)" style="fill: #00a4ff"/>
</svg>
