<?xml version="1.0" encoding="utf-8"?>
<!-- Generator: Adobe Illustrator 21.0.0, SVG Export Plug-In . SVG Version: 6.00 Build 0)  -->
<svg version="1.1" id="图层_1" xmlns="http://www.w3.org/2000/svg" xmlns:xlink="http://www.w3.org/1999/xlink" x="0px" y="0px"
	 width="48px" height="48px" viewBox="0 0 48 48" style="enable-background:new 0 0 48 48;" xml:space="preserve">
<style type="text/css">
	.st0{fill:#00A4FF;}
	.st1{fill:#334966;}
</style>
<g>
	<path class="st0" d="M11.2,34.5v11h-4v-11H11.2"/>
</g>
<g>
	<path class="st0" d="M22.2,24.5v21h-4v-21H22.2"/>
</g>
<g>
	<path class="st0" d="M33.2,29.5v16h-4v-16H33.2"/>
</g>
<g>
	<path class="st0" d="M44.2,20.5v25h-4v-25H44.2"/>
</g>
<g>
	<path class="st1" d="M9.2,32.5v11h-4v-11H9.2 M11.2,30.5h-8v15h8V30.5L11.2,30.5z"/>
</g>
<g>
	<path class="st1" d="M20.2,22.5v21h-4v-21H20.2 M22.2,20.5h-8v25h8V20.5L22.2,20.5z"/>
</g>
<g>
	<path class="st1" d="M31.2,27.5v16h-4v-16H31.2 M33.2,25.5h-8v20h8V25.5L33.2,25.5z"/>
</g>
<g>
	<path class="st1" d="M42.2,18.5v25h-4v-25H42.2 M44.2,16.5h-8v29h8V16.5L44.2,16.5z"/>
</g>
<g>
	<rect x="36.2" y="2.5" class="st1" width="8" height="2"/>
</g>
<g>
	<rect x="42.2" y="2.5" class="st1" width="2" height="8"/>
</g>
<g>
	<polygon class="st1" points="3.9,25.2 2.5,23.8 18.1,8.2 29.1,16.2 42.5,2.8 43.9,4.2 29.3,18.8 18.3,10.8 	"/>
</g>
</svg>
