<svg id="图层_1" data-name="图层 1" xmlns="http://www.w3.org/2000/svg" width="48" height="48" viewBox="0 0 48 48">
  <title>画板 28</title>
  <path d="M42,10V25c0,.1-.3,14.6-18,18.9C6.5,39.7,6,25.6,6,25.1V4H44V2H4V25.1S4.2,41.5,24,46c19.8-4.6,20-20.9,20-20.9V10Z" style="fill: #00a4ff"/>
  <path d="M24,10a6,6,0,1,0,6,6A6,6,0,0,0,24,10Zm0,10a4,4,0,1,1,4-4A4,4,0,0,1,24,20Z" style="fill: #00a4ff"/>
  <path d="M20,26h8a5.006,5.006,0,0,1,5,5h2a7,7,0,0,0-7-7H20a7,7,0,0,0-7,7h2A5.006,5.006,0,0,1,20,26Z" style="fill: #00a4ff"/>
</svg>
