<?xml version="1.0" encoding="utf-8"?>
<!-- Generator: Adobe Illustrator 22.1.0, SVG Export Plug-In . SVG Version: 6.00 Build 0)  -->
<svg version="1.1" id="图层_1" xmlns="http://www.w3.org/2000/svg" xmlns:xlink="http://www.w3.org/1999/xlink" x="0px" y="0px"
	 viewBox="0 0 48 48" style="enable-background:new 0 0 48 48;" xml:space="preserve">
<style type="text/css">
	.st0{fill:#00A4FF;}
</style>
<g>
	<g id="XMLID_5_">
		<g>
			<path class="st0" d="M4,6.9v2h2l0,0h36v24h2v-26C44,6.9,4,6.9,4,6.9z M6,17H4v26h40v-2H6V17z"/>
		</g>
	</g>
	<ellipse id="XMLID_4_" class="st0" cx="5" cy="7.9" rx="3" ry="3"/>
	<ellipse id="XMLID_1_" class="st0" cx="43" cy="42" rx="3" ry="3"/>
</g>
<path class="st0" d="M23.9,14c-5.2,0-8.9,3.8-8.9,9c0,5.7,6.8,11.5,8.3,12.5l0.6,0.5l0.6-0.5C26,34.5,33,28.7,33,23
	C33,17.8,29.1,14,23.9,14z M23.9,15.9c4.1,0,7.1,2.9,7.1,7.1c0,3-2.2,6.8-7.1,10.8C19,29.8,17,26,17,23C17,18.9,19.7,15.9,23.9,15.9
	z"/>
<g>
	<path class="st0" d="M24,18c-2.8,0-5,2.2-5,5s2.2,5,5,5s5-2.2,5-5S26.8,18,24,18z M27,23c0,1.7-1.3,3-3,3s-3-1.3-3-3
		c0-1.8,1.2-3,3-3S27,21.3,27,23z"/>
</g>
</svg>
