<?xml version="1.0" encoding="utf-8"?>
<!-- Generator: Adobe Illustrator 21.0.0, SVG Export Plug-In . SVG Version: 6.00 Build 0)  -->
<svg version="1.1" id="图层_1" xmlns="http://www.w3.org/2000/svg" xmlns:xlink="http://www.w3.org/1999/xlink" x="0px" y="0px"
	 width="80px" height="80px" viewBox="0 0 80 80" style="enable-background:new 0 0 80 80;" xml:space="preserve">
<style type="text/css">
	.st0{fill:none;stroke:#00A4FF;stroke-width:2;}
	.st1{fill:none;stroke:#00A4FF;stroke-width:2;stroke-linecap:square;}
	.st2{fill:none;stroke:#00A4FF;stroke-width:2;stroke-linecap:round;}
	.st3{fill:none;stroke:#7C848E;stroke-linecap:square;}
	.st4{fill:none;stroke:#7C848E;}
	.st5{fill:none;stroke:#7C848E;stroke-linecap:round;}
	.st6{fill:url(#Fill-1-Copy-3_1_);}
	.st7{fill:#7C848E;}
	.st8{fill:none;stroke:#7C848E;stroke-miterlimit:10;}
</style>
<circle id="Oval-5-Copy-2_3_" class="st0" cx="40" cy="40" r="39"/>
<linearGradient id="Fill-1-Copy-3_1_" gradientUnits="userSpaceOnUse" x1="-72.3129" y1="-145.8818" x2="-70.8026" y2="-144.5997" gradientTransform="matrix(10.984 0 0 11.876 828.8962 1770.176)">
	<stop  offset="0" style="stop-color:#00A4FF"/>
	<stop  offset="1" style="stop-color:#00A3FF"/>
</linearGradient>
<path id="Fill-1-Copy-3" class="st6" d="M35.7,43.9V36l0,0c0,0,2.3,1.3,6.9,4L35.7,43.9z M36.7,34.3c-0.6-0.4-1.4-0.4-2,0
	s-1,1-1,1.7v7.8c0,0.7,0.4,1.4,1,1.7c0.3,0.2,0.7,0.3,1,0.3c0.4,0,0.7-0.1,1-0.3l6.9-3.9c0.6-0.4,1-1,1-1.7s-0.4-1.4-1-1.7
	L36.7,34.3z"/>
<rect id="Rectangle-2_1_" x="20.8" y="25" class="st0" width="35" height="30"/>
<path id="Combined-Shape" class="st0" d="M55.8,38v5.8l6.9,3.5V34.5L55.8,38z"/>
</svg>
