<?xml version="1.0" encoding="utf-8"?>
<!-- Generator: Adobe Illustrator 21.0.0, SVG Export Plug-In . SVG Version: 6.00 Build 0)  -->
<svg version="1.1" id="图层_1" xmlns="http://www.w3.org/2000/svg" xmlns:xlink="http://www.w3.org/1999/xlink" x="0px" y="0px"
	 width="80px" height="80px" viewBox="0 0 80 80" style="enable-background:new 0 0 80 80;" xml:space="preserve">
<style type="text/css">
	.st0{fill:none;stroke:#00A4FF;stroke-width:2;}
	.st1{fill:none;stroke:#00A4FF;stroke-width:2;stroke-linecap:square;}
	.st2{fill:none;stroke:#00A4FF;stroke-width:2;stroke-linecap:round;}
	.st3{fill:none;stroke:#7C848E;stroke-linecap:square;}
	.st4{fill:none;stroke:#7C848E;}
	.st5{fill:none;stroke:#7C848E;stroke-linecap:round;}
	.st6{fill:url(#Fill-1-Copy-3_1_);}
	.st7{fill:#7C848E;}
	.st8{fill:none;stroke:#7C848E;stroke-miterlimit:10;}
</style>
<circle id="Oval-5-Copy-2_2_" class="st0" cx="40" cy="40" r="39"/>
<g>
	
		<rect x="16.9" y="44.6" transform="matrix(0.7071 -0.7071 0.7071 0.7071 -25.0845 34.9349)" class="st0" width="25.5" height="6.3"/>
	
		<rect x="40.7" y="30.4" transform="matrix(0.7071 -0.7071 0.7071 0.7071 -10.9017 40.8337)" class="st0" width="6.3" height="6.3"/>
	<polygon class="st0" points="31.3,24.4 32.6,26.9 35.1,28.2 32.6,29.6 31.3,32.1 29.9,29.6 27.4,28.2 29.9,26.9 	"/>
	<polygon class="st0" points="55.4,21 57.6,24.9 61.6,27.1 57.6,29.3 55.4,33.2 53.3,29.3 49.3,27.1 53.3,24.9 	"/>
	<polygon class="st0" points="45.8,43.3 47.4,46.3 50.4,47.9 47.4,49.5 45.8,52.4 44.2,49.5 41.3,47.9 44.2,46.3 	"/>
</g>
</svg>
