<?xml version="1.0" encoding="UTF-8"?>
<svg width="102px" height="48px" viewBox="0 0 102 48" version="1.1" xmlns="http://www.w3.org/2000/svg" xmlns:xlink="http://www.w3.org/1999/xlink">
    <!-- Generator: Sketch 48.2 (47327) - http://www.bohemiancoding.com/sketch -->
    <title>discuz</title>
    <desc>Created with Sketch.</desc>
    <defs></defs>
    <g id="切图" stroke="none" stroke-width="1" fill="none" fill-rule="evenodd">
        <g id="discuz" fill="#0194C3" fill-rule="nonzero">
            <g transform="translate(0.000000, 11.000000)">
                <path d="M0,1.66111111 L0,24.8444444 L8.70503597,24.8444444 C14.4604317,24.8444444 20.3597122,20.7277778 20.1438849,12.9277778 C20,5.12777778 14.3884892,1.66111111 8.70503597,1.66111111 L0,1.66111111 Z M4.60431655,5.92222222 L8.92086331,5.92222222 C11.7985612,5.92222222 14.6043165,8.16111111 14.676259,13.1444444 C14.7482014,18.1277778 11.7985612,20.8 8.92086331,20.8 L4.60431655,20.8 L4.60431655,5.92222222 Z" id="Shape"></path>
                <polygon id="Shape_1_" points="22.0143885 8.59444444 26.3309353 8.59444444 26.3309353 24.8444444 22.0143885 24.8444444"></polygon>
                <path d="M26.5467626,3.17777778 C26.5467626,4.26111111 25.4676259,5.2 24.2446043,5.2 C22.9496403,5.2 21.942446,4.33333333 21.942446,3.17777778 C21.942446,2.02222222 23.0215827,1.15555556 24.2446043,1.15555556 C25.4676259,1.22777778 26.5467626,2.09444444 26.5467626,3.17777778 Z" id="Shape_2_"></path>
                <path d="M40.2877698,11.9888889 L40.2877698,8.81111111 C40.2877698,8.81111111 38.2014388,8.16111111 35.8273381,8.16111111 C33.4532374,8.16111111 29.2805755,9.1 29.2805755,13.2888889 C29.2805755,18.0555556 36.9064748,18.1277778 36.9064748,20.3666667 C36.9064748,23.6888889 29.2805755,20.7277778 29.2805755,20.7277778 L29.2805755,23.9777778 C29.2805755,23.9777778 31.942446,24.9888889 34.1726619,24.9888889 C36.4028777,24.9888889 41.5107914,23.9777778 41.5107914,19.9333333 C41.5107914,15.8888889 33.4532374,14.6611111 33.4532374,12.9277778 C33.4532374,11.4111111 35.0359712,11.1222222 36.8345324,11.1222222 C38.6330935,11.1222222 40.2877698,11.9888889 40.2877698,11.9888889 Z" id="Shape_3_"></path>
                <path d="M55.3956835,12.7111111 L55.3956835,8.95555556 C55.3956835,8.95555556 54.1726619,8.16111111 51.0071942,8.16111111 C47.8417266,8.16111111 42.3741007,10.1833333 42.3741007,16.7555556 C42.3741007,23.3277778 47.4820144,24.9888889 50.8633094,24.9888889 C54.2446043,24.9888889 55.3956835,24.05 55.3956835,24.05 L55.3956835,20.8 C55.3956835,20.8 53.8848921,22.0277778 51.7266187,22.0277778 C49.5683453,22.0277778 46.2589928,20.5111111 46.2589928,16.8277778 C46.2589928,13.1444444 49.4244604,11.7 51.7266187,11.7 C53.9568345,11.6277778 55.3956835,12.7111111 55.3956835,12.7111111 Z" id="Shape_4_"></path>
                <path d="M57.4820144,8.52222222 L62.4460432,8.45 L62.3741007,19.0666667 C62.3741007,21.0166667 63.7410072,21.7388889 65.1798561,21.7388889 C66.618705,21.7388889 68.5611511,20.9444444 68.5611511,19.0666667 L68.5611511,8.66666667 L72.7338129,8.66666667 L72.7338129,24.7722222 L68.5611511,24.7722222 L68.5611511,22.75 C68.5611511,22.75 66.6906475,24.9888889 63.0935252,24.9888889 C59.4964029,24.9888889 57.4100719,23.0388889 57.4100719,19.5722222 L57.4820144,8.52222222 Z" id="Shape_5_"></path>
                <polygon id="Shape_6_" points="75.5395683 8.81111111 75.5395683 11.8444444 83.381295 11.8444444 74.6043165 22.6055556 74.6043165 24.8444444 88.705036 24.8444444 88.705036 21.5944444 81.0791367 21.5944444 89.2805755 10.5444444 89.2805755 8.81111111"></polygon>
                <polygon id="Shape_7_" points="93.6690647 0.0722222222 99.8561151 0.0722222222 98.4172662 16.6833333 95.0359712 16.6833333"></polygon>
                <polygon id="Shape_8_" points="94.2446043 20.6555556 99.2805755 20.6555556 99.2805755 25.9277778 94.2446043 25.9277778"></polygon>
            </g>
        </g>
    </g>
</svg>