<?xml version="1.0" encoding="utf-8"?>
<!-- Generator: Adobe Illustrator 19.0.0, SVG Export Plug-In . SVG Version: 6.00 Build 0)  -->
<svg version="1.1" id="图层_1" xmlns="http://www.w3.org/2000/svg" xmlns:xlink="http://www.w3.org/1999/xlink" x="0px" y="0px"
	 width="48px" height="48px" viewBox="-11 12 48 48" style="enable-background:new -11 12 48 48;" xml:space="preserve">
<g>
	<g id="XMLID_104_">
		<path id="XMLID_105_" style="fill:#00A4FF;" d="M35,47V19H-9v34h44v-2h-2l0,0H-7V26h40v21H35z M-7,24v-3h40v3H-7z M15,33h-2l6,12
			l6-12h-2l-4,8L15,33z M3,33v12h2l0,0c3.7-0.1,7-1.2,7-6s-3.2-5.8-7-6l0,0H3z M10,39c0,2.8-2.3,3.8-5,4v-8C7.7,35.1,10,35.8,10,39z
			"/>
	</g>
</g>
</svg>
