<?xml version="1.0" encoding="UTF-8"?>
<svg width="48px" height="48px" viewBox="0 0 48 48" version="1.1" xmlns="http://www.w3.org/2000/svg" xmlns:xlink="http://www.w3.org/1999/xlink">
    <!-- Generator: Sketch 51.2 (57519) - http://www.bohemiancoding.com/sketch -->
    <title>价格计算-48x48</title>
    <desc>Created with Sketch.</desc>
    <defs></defs>
    <g id="价格计算-48x48" stroke="none" stroke-width="1" fill="none" fill-rule="evenodd">
        <g id="Group-18-Copy" transform="translate(1.000000, 1.000000)">
            <path d="M35,22 C41.075,22 46,17.075 46,11 C46,4.925 41.075,0 35,0 C28.925,0 24,4.925 24,11 C24,17.075 28.925,22 35,22 M35,2 C39.971,2 44,6.029 44,11 C44,15.971 39.971,20 35,20 C30.029,20 26,15.971 26,11 C26,6.029 30.029,2 35,2" id="Fill-2" fill="#334966"></path>
            <path d="M11,24 C4.925,24 0,28.925 0,35 C0,41.075 4.925,46 11,46 C17.075,46 22,41.075 22,35 C22,28.925 17.075,24 11,24 M11,44 C6.029,44 2,39.971 2,35 C2,30.029 6.029,26 11,26 C15.971,26 20,30.029 20,35 C20,37.387 19.052,39.676 17.364,41.364 C15.676,43.052 13.387,44 11,44" id="Fill-4" fill="#334966"></path>
            <path d="M35,24 C28.925,24 24,28.925 24,35 C24,41.075 28.925,46 35,46 C41.075,46 46,41.075 46,35 C46,28.925 41.075,24 35,24 M35,44 C30.029,44 26,39.971 26,35 C26,30.029 30.029,26 35,26 C39.971,26 44,30.029 44,35 C44,37.387 43.052,39.676 41.364,41.364 C39.676,43.052 37.387,44 35,44" id="Fill-6" fill="#334966"></path>
            <polygon id="Fill-8" fill="#334966" points="30 12 40 12 40 10 30 10"></polygon>
            <polygon id="Fill-10" fill="#334966" points="13.8301 30.7598 11.0001 33.5898 8.1701 30.7598 6.7601 32.1698 9.5901 34.9998 6.7601 37.8298 8.1701 39.2398 11.0001 36.4098 13.8301 39.2398 15.2401 37.8298 12.4101 34.9998 15.2401 32.1698"></polygon>
            <path d="M11,0 C4.925,0 0,4.925 0,11 C0,17.075 4.925,22 11,22 C17.075,22 22,17.075 22,11 C22,8.083 20.841,5.285 18.778,3.222 C16.715,1.159 13.917,0 11,0 M11,20 C6.029,20 2,15.971 2,11 C2,6.029 6.029,2 11,2 C15.971,2 20,6.029 20,11 C20,15.971 15.971,20 11,20" id="Fill-11" fill="#334966"></path>
            <path d="M44,35 C44,39.971 39.971,44 35,44 C30.029,44 26,39.971 26,35 C26,30.029 30.029,26 35,26 C39.971,26 44,30.029 44,35 Z M30,36 L40,36 L40,34 L30,34 L30,36 Z M34,32 L36,32 L36,30 L34,30 L34,32 Z M34,40 L36,40 L36,38 L34,38 L34,40 Z" id="Combined-Shape" fill="#00A4FF"></path>
            <path d="M20,11 C20,15.971 15.971,20 11,20 C6.029,20 2,15.971 2,11 C2,6.029 6.029,2 11,2 C15.971,2 20,6.029 20,11 Z M12,6 L10,6 L10,10 L6,10 L6,12 L10,12 L10,16 L12,16 L12,12 L16,12 L16,10 L12,10 L12,6 Z" id="Combined-Shape" fill="#00A4FF"></path>
        </g>
    </g>
</svg>