<?xml version="1.0" encoding="UTF-8"?>
<svg width="48px" height="48px" viewBox="0 0 48 48" version="1.1" xmlns="http://www.w3.org/2000/svg" xmlns:xlink="http://www.w3.org/1999/xlink">
    <!-- Generator: Sketch 52.2 (67145) - http://www.bohemiancoding.com/sketch -->
    <title>高吞吐、高可靠</title>
    <desc>Created with Sketch.</desc>
    <g id="高吞吐、高可靠" stroke="none" stroke-width="1" fill="none" fill-rule="evenodd">
        <g id="稳定可靠">
            <g id="稳定可靠-48x48">
                <g id="Group">
                    <ellipse id="Oval" fill="#00A4FF" transform="translate(23.489362, 23.489362) rotate(-45.000000) translate(-23.489362, -23.489362) " cx="23.4893617" cy="23.4893617" rx="22.4680851" ry="7.14893617"></ellipse>
                    <path d="M43.4369631,32.8876153 C45.3978142,37.8408067 45.4795163,41.7522961 43.6003674,43.6008067 C42.4902397,44.5720408 41.0369631,45.0581684 39.5663248,44.9488918 C35.7150908,44.9488918 30.5678567,42.9063387 25.2684525,39.3625089 C26.2897291,38.6271897 27.2487078,37.830594 28.2291333,37.0135727 C30.070495,38.3187642 32.6196014,37.8847216 33.9258142,36.0443812 C34.8725376,34.7075301 34.9307504,32.934594 34.0718567,31.5395301 C35.9540695,29.5654025 37.7137291,27.4779131 39.3406227,25.2893174 C40.9603674,27.6750195 42.3298993,30.2210621 43.4257291,32.8876153 L43.4369631,32.8876153 Z M29.8836014,35.604211 C29.7283674,35.5408918 29.5813036,35.4581684 29.4454738,35.3591046 L29.3944099,35.3591046 C29.2779844,35.2651472 29.1707504,35.1589344 29.0767929,35.0425089 C28.8623248,34.7596153 28.7254738,34.4246365 28.6795163,34.0722961 C28.6417291,33.9558706 28.6141546,33.8363812 28.5978142,33.7148493 C28.5927078,32.5863387 29.5036865,31.668211 30.6321972,31.6641259 C31.7596865,31.6590195 32.6778142,32.5699982 32.6829206,33.6974876 C32.688027,34.8259982 31.776027,35.7441259 30.6485376,35.7492323 C30.3870908,35.7502535 30.1276865,35.700211 29.8836014,35.604211 Z M23.4914312,38.1267642 C20.6839419,36.0985089 18.0439419,33.8476153 15.5959419,31.3965514 C13.1428355,28.9485514 10.888878,26.3085514 8.85653755,23.5020833 C12.9334738,17.8860833 17.8723674,12.9502535 23.4914312,8.87740249 C26.2989206,10.9056578 28.9389206,13.1565514 31.3858993,15.6076153 C33.840027,18.0556153 36.0939844,20.6956153 38.1263248,23.5020833 C36.432027,25.8357004 34.5814738,28.0539131 32.5910057,30.1403812 C31.9935589,29.8094876 31.3225802,29.633828 30.6403674,29.6297429 C28.3843674,29.6379131 26.5624099,31.4731472 26.5695589,33.7301684 C26.5716014,34.3133174 26.699261,34.8893174 26.9433461,35.4203812 C25.798495,36.3803812 24.6454738,37.2995301 23.4914312,38.1267642 Z M7.41551627,44.9488918 C5.94487797,45.0581684 4.49160138,44.5720408 3.38147372,43.6008067 C0.676112017,40.8637855 2.11611202,33.6025089 7.62079287,25.2893174 C9.60615462,27.9660833 11.7876014,30.4917004 14.1457291,32.8467642 C16.4977291,35.201828 19.0202823,37.3791897 21.6939844,39.3625089 C16.4241972,42.9063387 11.2361121,44.9488918 7.41551627,44.9488918 Z M3.55611202,14.1165514 C1.59423968,9.204211 1.53398436,5.25187057 3.39270776,3.40335993 C4.49977159,2.43416844 5.94896308,1.94906206 7.41551627,2.05527483 C9.45194186,2.12574291 11.4587504,2.54753014 13.3501546,3.30123227 C12.893644,5.51025355 14.315261,7.67127483 16.5242823,8.12778546 C17.9673461,8.42497695 19.4584099,7.92353014 20.4276014,6.81442376 C20.8657291,7.07995568 21.3058993,7.34548759 21.7450482,7.6416578 C16.379261,11.6195301 11.6241972,16.3602961 7.62998436,21.7148493 C6.01432478,19.3291472 4.64989925,16.7820833 3.55611202,14.1165514 Z M19.4063248,4.09782802 C19.403261,4.25204078 19.3818142,4.40727483 19.3450482,4.55740249 L19.3450482,4.67995568 C19.3154312,4.78412589 19.2786653,4.88727483 19.2327078,4.98633866 L19.1305802,5.11910461 C19.0744099,5.21918972 19.0090482,5.31518972 18.9365376,5.40506206 L18.875261,5.47655142 C18.7823248,5.58174291 18.6801972,5.67774291 18.5678567,5.76250887 C18.2175589,6.01272163 17.7957716,6.14446631 17.3637716,6.14038121 C16.235261,6.14038121 15.3212185,5.22633866 15.3212185,4.09782802 C15.3212185,2.96931738 16.235261,2.05527483 17.3637716,2.05527483 C18.491261,2.05527483 19.4063248,2.96931738 19.4063248,4.09782802 Z M39.5663248,2.05527483 C41.0369631,1.94599823 42.4902397,2.43110461 43.6003674,3.40335993 C45.4580695,5.26208334 45.3978142,9.16335993 43.4369631,14.1165514 C42.3401121,16.7831046 40.9716014,19.3291472 39.3518567,21.7148493 C37.366495,19.0370621 35.1850482,16.511445 32.824878,14.1574025 C30.4749206,11.8023387 27.9513461,9.62395568 25.2786653,7.6416578 C30.5586653,4.09782802 35.7467504,2.05527483 39.5663248,2.05527483 Z M45.0393461,1.95314717 C43.5513461,0.594849294 41.5782397,-0.104725174 39.5663248,0.012721634 C35.2156865,0.012721634 29.4454738,2.30038121 23.4914312,6.37527483 C22.7663248,5.88506206 22.0514312,5.42548759 21.3467504,4.98633866 C21.784878,2.77323227 20.3469206,0.623445038 18.1338142,0.185317379 C16.7193461,-0.0955336851 15.2630057,0.390593974 14.2999419,1.4629344 C12.1082823,0.577487591 9.77875037,0.0862535489 7.41551627,0.012721634 C5.40462266,-0.104725174 3.430495,0.594849294 1.942495,1.95314717 C-1.89852628,5.79314717 0.155260953,14.4331472 6.35338861,23.5020833 C0.155260953,32.5710195 -1.89852628,41.2110195 1.942495,45.0510195 C3.430495,46.4093174 5.40462266,47.1088918 7.41551627,46.991445 C11.7661546,46.991445 17.5271759,44.7037855 23.4914312,40.6288918 C29.4454738,44.7139982 35.2156865,46.991445 39.5663248,46.991445 C41.5782397,47.1088918 43.5513461,46.4093174 45.0393461,45.0510195 C48.8803674,41.2110195 46.8265802,32.5710195 40.6284525,23.5020833 C46.8265802,14.4331472 48.8803674,5.79314717 45.0393461,1.95314717 Z" id="Shape" fill="#334966" fill-rule="nonzero"></path>
                    <circle id="Oval" fill="#00A4FF" cx="17.3617021" cy="4.08510638" r="2.04255319"></circle>
                </g>
            </g>
        </g>
    </g>
</svg>