<svg xmlns="http://www.w3.org/2000/svg" width="32" height="32" viewBox="0 0 32 32">
  <title>态势感知32x32_白色</title>
  <g>
    <path d="M28.813,1.373h-26V16.6s.1,10.8,13,13.775c12.9-2.974,13-13.775,13-13.775V7.373h-2V16.59a11.9,11.9,0,0,1-1.4,4.846c-1.812,3.428-5.075,5.741-9.6,6.88-10.68-2.7-11-11.365-11-11.718V3.373h24Z" style="fill: #fff"/>
    <rect x="7.939" y="14.133" width="2.018" height="4.583" style="fill: #fff"/>
    <rect x="10.994" y="10.569" width="2.018" height="8.147" style="fill: #fff"/>
    <rect x="14.049" y="13.115" width="2.018" height="5.601" style="fill: #fff"/>
    <circle cx="19.982" cy="19.315" r="0.95" style="fill: #fff"/>
    <path d="M18.228,18.461a2.019,2.019,0,0,1,3.507,0h1.124a3.051,3.051,0,0,0-5.755,0Z" style="fill: #fff;stroke: #fff;stroke-miterlimit: 10;stroke-width: 0.5px"/>
    <path d="M19.123,15.285V9.551H17.1v6.728A3.134,3.134,0,0,1,19.123,15.285Z" style="fill: #fff"/>
    <path d="M23.178,16.545V13.133H21.159V15.2A3.877,3.877,0,0,1,23.178,16.545Z" style="fill: #fff"/>
  </g>
</svg>
