<?xml version="1.0" encoding="utf-8"?>
<!-- Generator: Adobe Illustrator 22.0.0, SVG Export Plug-In . SVG Version: 6.00 Build 0)  -->
<svg version="1.1" id="svgwrapper_svg" xmlns="http://www.w3.org/2000/svg" xmlns:xlink="http://www.w3.org/1999/xlink" x="0px"
	 y="0px" width="830px" height="220.854px" viewBox="0 0 830 220.854" style="enable-background:new 0 0 830 220.854;"
	 xml:space="preserve">
<path style="display:none;fill:none;stroke:#999999;" d="M759,113.07l2,3.5"/>
<rect x="85" y="61.667" style="fill:#CEE3FF;" width="430" height="120.165"/>
<g>
	<g style="enable-background:new    ;">
		<path style="fill:#878787;" d="M389.503,219.696l-0.228-0.839l1.151,0.036c0.336,0,0.504-0.168,0.504-0.492v-8.312h-7.868v9.655
			h-0.852v-10.482h9.571v9.331c0,0.731-0.36,1.103-1.067,1.103L389.503,219.696L389.503,219.696z M385.51,215.319
			c-0.432,1.175-0.96,2.183-1.571,3.022l-0.552-0.672c0.624-0.888,1.139-1.943,1.547-3.154c-0.575-0.768-1.139-1.463-1.691-2.099
			l0.54-0.516c0.444,0.468,0.924,1.031,1.427,1.703c0.228-0.84,0.42-1.752,0.564-2.711l0.792,0.144
			c-0.192,1.235-0.444,2.363-0.755,3.383c0.456,0.623,0.935,1.307,1.415,2.051l-0.576,0.575
			C386.265,216.435,385.881,215.858,385.51,215.319z M388.952,215.607c-0.48,1.175-1.043,2.183-1.691,3.021l-0.552-0.659
			c0.671-0.911,1.235-1.979,1.679-3.202c-0.551-0.815-1.091-1.56-1.643-2.23l0.54-0.517c0.432,0.492,0.912,1.092,1.415,1.812
			c0.264-0.899,0.468-1.871,0.636-2.902l0.815,0.144c-0.216,1.331-0.503,2.531-0.863,3.61c0.456,0.695,0.947,1.475,1.463,2.339
			l-0.587,0.575C389.755,216.891,389.348,216.23,388.952,215.607z"/>
		<path style="fill:#878787;" d="M402.703,217.07h-0.863v-4.833h-5.733v4.856h-0.864v-5.696h3.035
			c0.12-0.42,0.204-0.852,0.264-1.308h-4.821v-0.815h10.554v0.815h-4.821c-0.072,0.456-0.156,0.899-0.276,1.308h3.526
			L402.703,217.07L402.703,217.07z M399.44,212.956v1.907c-0.048,1.319-0.479,2.362-1.271,3.154
			c-0.768,0.731-2.027,1.295-3.778,1.703l-0.492-0.768c1.739-0.384,2.951-0.888,3.634-1.523c0.647-0.659,0.983-1.511,1.019-2.566
			v-1.907L399.44,212.956L399.44,212.956z M404.022,218.989l-0.528,0.815c-1.367-0.852-2.758-1.523-4.186-2.003l0.479-0.708
			C401.335,217.622,402.75,218.245,404.022,218.989z"/>
		<path style="fill:#878787;" d="M409.689,209.25v0.685c-0.36,1.079-0.792,2.206-1.283,3.382c0.744,1.079,1.151,2.062,1.199,2.95
			c0,0.504-0.132,0.863-0.372,1.079c-0.336,0.265-0.948,0.408-1.811,0.42l-0.276-0.875c0.18,0.023,0.335,0.048,0.468,0.048
			c0.456-0.024,0.755-0.084,0.899-0.18c0.144-0.097,0.228-0.252,0.228-0.492c0-0.84-0.408-1.787-1.224-2.818
			c0.552-1.247,0.996-2.375,1.307-3.382h-1.991v9.714h-0.852v-10.53h3.708V209.25z M412.855,210.558
			c-0.167-0.611-0.348-1.175-0.563-1.679l0.863-0.145c0.204,0.528,0.396,1.128,0.576,1.823h2.603v0.84h-3.97
			c-0.012,0.468-0.036,1.163-0.084,2.074h3.43c-0.024,2.567-0.12,4.21-0.276,4.941c-0.216,0.792-0.755,1.212-1.595,1.235
			c-0.288,0-0.636-0.023-1.043-0.06l-0.276-0.804c0.479,0.024,0.899,0.048,1.235,0.048c0.503-0.023,0.827-0.336,0.959-0.936
			c0.072-0.563,0.108-1.763,0.12-3.586h-2.626c-0.12,0.996-0.348,1.907-0.696,2.734c-0.467,1.008-1.115,1.932-1.943,2.771
			l-0.636-0.6c0.984-1.067,1.644-2.051,1.967-2.962c0.312-0.912,0.492-1.932,0.54-3.059c0.024-0.815,0.048-1.415,0.06-1.799h-1.643
			v-0.84h2.998L412.855,210.558L412.855,210.558z"/>
		<path style="fill:#878787;" d="M426.847,211.253v3.935h-4.558c-0.084,0.216-0.18,0.42-0.3,0.611h6.309v0.72h-2.663
			c0.637,0.54,1.584,0.972,2.831,1.283l-0.323,0.708c-1.584-0.517-2.711-1.176-3.395-1.991h-3.311
			c-0.791,0.84-1.99,1.547-3.598,2.099l-0.372-0.72c1.247-0.384,2.219-0.852,2.891-1.379h-2.663v-0.72h3.383
			c0.144-0.204,0.264-0.408,0.359-0.611h-2.242v-3.935H426.847z M418.271,211.47l-0.72-0.456c0.815-0.708,1.415-1.487,1.787-2.327
			l0.827,0.18c-0.096,0.217-0.203,0.433-0.324,0.648h2.975v0.72h-1.391c0.144,0.251,0.287,0.516,0.408,0.803l-0.805,0.072
			c-0.119-0.324-0.264-0.611-0.42-0.875h-1.223C419.051,210.689,418.68,211.098,418.271,211.47z M426.654,219.385l-0.672,0.468
			c-0.191-0.24-0.383-0.479-0.6-0.707c-1.822,0.216-3.705,0.359-5.625,0.432l-0.227-0.648c1.078-0.432,1.967-1.115,2.686-2.026
			l0.779,0.216c-0.539,0.695-1.162,1.283-1.858,1.751c1.247-0.072,2.471-0.18,3.67-0.324c-0.323-0.335-0.671-0.659-1.031-0.995
			l0.624-0.396C425.383,218.006,426.127,218.749,426.654,219.385z M426.007,212.417v-0.588h-5.973v0.588H426.007z M426.007,213.496
			v-0.552h-5.973v0.552H426.007z M426.007,214.023h-5.973v0.588h5.973V214.023z M423.584,211.241l-0.707-0.443
			c0.6-0.636,1.031-1.344,1.307-2.111l0.816,0.168c-0.084,0.24-0.168,0.456-0.264,0.66h3.586v0.72h-1.787
			c0.155,0.251,0.299,0.516,0.443,0.803l-0.815,0.072c-0.144-0.336-0.3-0.624-0.468-0.875h-1.355
			C424.112,210.594,423.86,210.93,423.584,211.241z"/>
		<path style="fill:#878787;" d="M434.229,216.65l0.133,0.792c-1.26,0.6-2.662,1.163-4.21,1.667l-0.252-0.744
			c0.252-0.096,0.384-0.3,0.384-0.611v-4.462h2.687v-2.842h-3.286v-0.828h4.126v4.462h-2.687v3.838
			C432.131,217.586,433.174,217.166,434.229,216.65z M437.887,216.591c0.756,1.055,1.655,1.883,2.711,2.482l-0.492,0.72
			c-1.055-0.6-1.967-1.428-2.723-2.483c-0.791,1.02-1.846,1.836-3.142,2.447l-0.54-0.708c1.355-0.6,2.423-1.415,3.203-2.471
			c-0.6-0.971-1.104-2.099-1.5-3.382c-0.24,0.456-0.492,0.863-0.768,1.224l-0.527-0.672c0.875-1.224,1.463-2.891,1.775-4.989
			l0.839,0.144c-0.096,0.588-0.216,1.14-0.336,1.644h3.826v0.827h-0.936C439.23,213.448,438.763,215.188,437.887,216.591z
			 M435.86,212.177c0.384,1.392,0.899,2.614,1.522,3.646c0.684-1.235,1.044-2.723,1.068-4.45h-2.303
			C436.053,211.661,435.956,211.925,435.86,212.177z"/>
	</g>
</g>
<g id="Link4" transform="translate(0,0)">
	<path style="fill:none;stroke:#888888;" d="M616.5,121.07h-53l0,0h-71"/>
	<g transform="translate(-0.5, 0)">
		<polygon style="fill:#888888;" points="497.5,116.57 491.5,121.07 497.5,125.57 		"/>
	</g>
	<path style="fill:none;stroke:#FF0000;stroke-width:15;stroke-opacity:0;" d="M616.5,121.07h-53"/>
	<path style="fill:none;stroke:#FF0000;stroke-width:15;stroke-opacity:0;" d="M563.5,121.07h-71"/>
</g>
<g id="Link5" transform="translate(0,0)">
	<path style="fill:none;stroke:#888888;" d="M337.5,121.07h-53l0,0h-70"/>
	<g transform="translate(-0.5, 0)">
		<polygon style="fill:#888888;" points="219.5,116.57 213.5,121.07 219.5,125.57 		"/>
	</g>
	<path style="fill:none;stroke:#FF0000;stroke-width:15;stroke-opacity:0;" d="M337.5,121.07h-53"/>
	<path style="fill:none;stroke:#FF0000;stroke-width:15;stroke-opacity:0;" d="M284.5,121.07h-70"/>
</g>
<rect x="338" y="98.57" style="opacity:0.6;fill:#BBBBBB;enable-background:new    ;" width="151.02" height="50"/>
<rect x="336" y="96.57" style="fill:#FFFFFF;stroke:#E5E5E5;" width="151.02" height="50"/>
<path style="fill:#00A4FF;" d="M372,134.57c-7.18,0.008-13.007-5.805-13.015-12.985c-0.008-7.18,5.805-13.007,12.985-13.015
	c6.413-0.008,11.874,4.663,12.86,11h2c-1.105-8.21-8.656-13.971-16.866-12.866s-13.971,8.656-12.866,16.866
	s8.656,13.971,16.866,12.866c6.697-0.901,11.965-6.169,12.866-12.866h-2C383.845,129.896,378.402,134.562,372,134.57z"/>
<g style="enable-background:new    ;">
	<path style="fill:#444444;" d="M403.477,115.686v0.798c-0.42,1.261-0.925,2.578-1.499,3.95c0.869,1.261,1.345,2.41,1.401,3.446
		c0,0.588-0.154,1.009-0.434,1.261c-0.393,0.308-1.107,0.477-2.115,0.49l-0.322-1.022c0.21,0.028,0.392,0.056,0.546,0.056
		c0.532-0.027,0.882-0.098,1.05-0.21s0.266-0.294,0.266-0.574c0-0.98-0.476-2.087-1.429-3.292c0.645-1.457,1.163-2.773,1.527-3.95
		h-2.325v11.347h-0.995v-12.299L403.477,115.686L403.477,115.686z M407.175,117.212c-0.196-0.714-0.406-1.372-0.658-1.961
		l1.009-0.168c0.238,0.616,0.462,1.316,0.672,2.129h3.04v0.98h-4.637c-0.014,0.547-0.042,1.359-0.098,2.424h4.006
		c-0.028,2.997-0.14,4.917-0.322,5.771c-0.252,0.924-0.882,1.414-1.863,1.442c-0.336,0-0.743-0.028-1.219-0.07l-0.322-0.938
		c0.561,0.028,1.051,0.057,1.443,0.057c0.588-0.028,0.966-0.393,1.121-1.093c0.084-0.658,0.126-2.06,0.14-4.188h-3.068
		c-0.14,1.162-0.406,2.228-0.812,3.193c-0.546,1.177-1.303,2.256-2.269,3.236l-0.742-0.7c1.148-1.247,1.919-2.396,2.297-3.46
		c0.364-1.064,0.574-2.256,0.63-3.572c0.028-0.952,0.056-1.653,0.07-2.102h-1.919v-0.98
		C403.674,117.212,407.175,117.212,407.175,117.212z"/>
	<path style="fill:#444444;" d="M423.5,118.025v4.595h-5.322c-0.099,0.252-0.211,0.49-0.351,0.715h7.368v0.84h-3.109
		c0.742,0.631,1.849,1.135,3.305,1.499l-0.377,0.826c-1.85-0.602-3.166-1.372-3.965-2.325h-3.866
		c-0.925,0.98-2.325,1.808-4.202,2.451l-0.434-0.84c1.457-0.448,2.591-0.995,3.375-1.611h-3.109v-0.84h3.95
		c0.168-0.238,0.308-0.477,0.42-0.715h-2.619v-4.595H423.5z M413.485,118.277l-0.84-0.532c0.952-0.826,1.653-1.736,2.087-2.717
		l0.967,0.21c-0.112,0.252-0.238,0.504-0.378,0.756h3.473v0.841h-1.624c0.168,0.294,0.336,0.603,0.476,0.938l-0.938,0.084
		c-0.141-0.378-0.309-0.714-0.49-1.022h-1.429C414.396,117.367,413.961,117.843,413.485,118.277z M423.275,127.522l-0.783,0.547
		c-0.225-0.28-0.449-0.561-0.701-0.827c-2.129,0.253-4.328,0.421-6.569,0.505l-0.266-0.757c1.261-0.504,2.297-1.303,3.138-2.367
		l0.91,0.252c-0.631,0.812-1.359,1.499-2.172,2.046c1.457-0.084,2.887-0.211,4.287-0.379c-0.379-0.392-0.785-0.771-1.205-1.162
		l0.729-0.463C421.791,125.912,422.66,126.78,423.275,127.522z M422.52,119.384v-0.687h-6.976v0.687H422.52z M422.52,120.645V120
		h-6.976v0.645H422.52z M422.52,121.261h-6.976v0.687h6.976V121.261z M419.689,118.011l-0.826-0.519
		c0.701-0.742,1.205-1.568,1.527-2.465l0.953,0.196c-0.099,0.279-0.197,0.532-0.309,0.77h4.188v0.841h-2.086
		c0.182,0.294,0.35,0.603,0.518,0.938l-0.953,0.084c-0.168-0.392-0.35-0.729-0.546-1.022h-1.583
		C420.307,117.254,420.012,117.647,419.689,118.011z"/>
	<path style="fill:#444444;" d="M432.107,124.329l0.154,0.925c-1.471,0.7-3.109,1.358-4.917,1.946l-0.294-0.868
		c0.294-0.112,0.448-0.35,0.448-0.714v-5.211h3.138v-3.32h-3.838v-0.966h4.818v5.21h-3.138v4.482
		C429.656,125.421,430.875,124.931,432.107,124.329z M436.379,124.258c0.883,1.233,1.934,2.199,3.166,2.899l-0.574,0.841
		c-1.232-0.7-2.297-1.667-3.18-2.899c-0.924,1.19-2.156,2.143-3.67,2.857l-0.63-0.826c1.583-0.7,2.829-1.653,3.739-2.886
		c-0.699-1.135-1.288-2.451-1.75-3.95c-0.281,0.532-0.574,1.009-0.896,1.429l-0.617-0.784c1.023-1.429,1.709-3.376,2.074-5.827
		l0.98,0.168c-0.113,0.687-0.253,1.331-0.393,1.919h4.469v0.967h-1.094C437.948,120.588,437.402,122.62,436.379,124.258z
		 M434.012,119.104c0.449,1.625,1.051,3.054,1.779,4.258c0.799-1.442,1.219-3.18,1.247-5.196h-2.689
		C434.236,118.501,434.125,118.81,434.012,119.104z"/>
	<path style="fill:#444444;" d="M443.965,115.574c-0.701,1.821-1.416,3.264-2.145,4.343c0.617-0.084,1.248-0.183,1.863-0.294
		c0.252-0.449,0.505-0.911,0.771-1.388l0.91,0.337c-1.219,2.143-2.228,3.67-3.04,4.594c0.967-0.168,1.933-0.378,2.886-0.658v0.896
		c-1.443,0.421-2.83,0.701-4.146,0.869l-0.266-0.925c0.182-0.056,0.336-0.154,0.462-0.28c0.505-0.504,1.135-1.345,1.877-2.521
		l-2.241,0.336l-0.252-0.938c0.168-0.069,0.309-0.21,0.434-0.406c0.742-1.261,1.387-2.703,1.947-4.328L443.965,115.574z
		 M445.015,125.744c-1.232,0.616-2.634,1.106-4.216,1.471l-0.127-0.995c1.653-0.364,3.11-0.854,4.343-1.456L445.015,125.744
		L445.015,125.744z M450.814,119.146c0.377-0.687,0.714-1.499,0.994-2.438l0.924,0.238c-0.266,0.812-0.588,1.541-0.98,2.199h1.178
		v0.882h-4.693c-0.056,0.421-0.111,0.812-0.168,1.191h5.225v0.91H447.9c-0.084,0.378-0.154,0.729-0.238,1.051h4.748v0.771
		c-0.363,0.84-0.952,1.583-1.736,2.199c0.812,0.392,1.736,0.687,2.787,0.868l-0.447,0.896c-1.247-0.267-2.312-0.658-3.194-1.19
		c-0.841,0.49-1.835,0.896-3.012,1.219l-0.462-0.841c1.036-0.238,1.919-0.546,2.676-0.925c-0.701-0.532-1.262-1.162-1.695-1.862
		c-0.057,0.126-0.098,0.237-0.141,0.35c-0.518,1.19-1.303,2.256-2.339,3.208l-0.589-0.771c0.939-0.854,1.639-1.793,2.115-2.829
		c0.252-0.617,0.463-1.331,0.645-2.144h-1.807v-0.91h1.975l0.168-1.191h-1.681v-0.882h5.141L450.814,119.146L450.814,119.146z
		 M453.098,115.98c-1.892,0.589-4.413,0.896-7.551,0.896l-0.294-0.883c2.97,0,5.421-0.279,7.368-0.812L453.098,115.98z
		 M447.551,118.74l-0.758,0.336c-0.252-0.63-0.531-1.177-0.826-1.652l0.799-0.322C447.074,117.605,447.326,118.151,447.551,118.74z
		 M451.402,124.006h-3.292c0.462,0.673,1.036,1.232,1.737,1.681C450.533,125.211,451.052,124.651,451.402,124.006z M450.016,118.656
		l-0.771,0.336c-0.253-0.645-0.519-1.219-0.798-1.695l0.798-0.321C449.539,117.507,449.791,118.067,450.016,118.656z"/>
	<path style="fill:#444444;" d="M458.889,116.554c0.182-0.49,0.35-0.98,0.49-1.484l1.022,0.126c-0.14,0.462-0.28,0.91-0.435,1.358
		h7.172v0.98h-7.55c-0.519,1.205-1.163,2.312-1.919,3.32v7.13h-0.98v-5.926c-0.477,0.519-0.967,1.009-1.499,1.485l-0.63-0.799
		c1.709-1.499,3.012-3.235,3.922-5.211h-3.404v-0.98h3.811V116.554z M462.824,123.068v-1.303c0.799-0.448,1.555-0.967,2.283-1.583
		h-5.266v-0.938h6.555v0.938c-0.756,0.7-1.611,1.373-2.562,2.003v0.883h3.501v0.967h-3.501v2.647c0,0.826-0.421,1.246-1.248,1.246
		h-1.75l-0.267-0.952c0.505,0.014,1.036,0.028,1.611,0.028c0.42,0,0.644-0.225,0.644-0.645v-2.325h-4.062v-0.967L462.824,123.068
		L462.824,123.068z"/>
</g>
<g id="RectEndPoint2" transform="translate(603,264)">
	<rect x="16" y="-165.43" style="opacity:0.6;fill:#BBBBBB;enable-background:new    ;" width="100.656" height="50"/>
	<rect x="14" y="-167.43" style="fill:#FFFFFF;stroke:#E5E5E5;" width="100.656" height="50"/>
	<g transform="translate(20 9)">
		<g style="enable-background:new    ;">
			<path style="fill:#444444;" d="M25.5-154.975v4.595h-5.322c-0.099,0.252-0.211,0.49-0.351,0.715h7.368v0.84h-3.109
				c0.742,0.631,1.849,1.135,3.305,1.499l-0.377,0.826c-1.85-0.602-3.166-1.372-3.965-2.325h-3.866
				c-0.925,0.98-2.325,1.808-4.202,2.451l-0.434-0.84c1.456-0.448,2.591-0.995,3.375-1.611h-3.109v-0.84h3.95
				c0.168-0.238,0.308-0.477,0.42-0.715h-2.619v-4.595L25.5-154.975L25.5-154.975z M15.484-154.723l-0.84-0.532
				c0.952-0.826,1.652-1.736,2.087-2.717l0.967,0.21c-0.112,0.252-0.238,0.504-0.378,0.756h3.473v0.841h-1.624
				c0.168,0.294,0.336,0.603,0.476,0.938l-0.938,0.084c-0.141-0.378-0.309-0.714-0.49-1.022h-1.43
				C16.396-155.633,15.961-155.157,15.484-154.723z M25.275-145.478l-0.783,0.547c-0.225-0.28-0.449-0.561-0.701-0.827
				c-2.129,0.253-4.328,0.421-6.569,0.505l-0.267-0.757c1.262-0.504,2.298-1.303,3.139-2.367l0.91,0.252
				c-0.631,0.812-1.359,1.499-2.172,2.046c1.457-0.084,2.887-0.211,4.287-0.379c-0.379-0.392-0.785-0.771-1.205-1.162l0.729-0.463
				C23.791-147.088,24.66-146.22,25.275-145.478z M24.52-153.616v-0.687h-6.976v0.687H24.52z M24.52-152.355V-153h-6.976v0.645
				H24.52z M24.52-151.739h-6.976v0.687h6.976V-151.739z M21.689-154.989l-0.826-0.519c0.701-0.742,1.205-1.568,1.527-2.465
				l0.953,0.196c-0.099,0.279-0.197,0.532-0.309,0.77h4.188v0.841h-2.086c0.182,0.294,0.35,0.603,0.518,0.938l-0.953,0.084
				c-0.168-0.392-0.35-0.729-0.546-1.022h-1.583C22.307-155.746,22.012-155.353,21.689-154.989z"/>
			<path style="fill:#444444;" d="M34.107-148.671l0.154,0.925c-1.471,0.7-3.109,1.358-4.917,1.946l-0.294-0.868
				c0.294-0.112,0.448-0.35,0.448-0.714v-5.211h3.138v-3.32h-3.838v-0.966h4.818v5.21h-3.138v4.482
				C31.656-147.579,32.875-148.069,34.107-148.671z M38.379-148.742c0.883,1.233,1.934,2.199,3.166,2.899l-0.574,0.841
				c-1.232-0.7-2.297-1.667-3.18-2.899c-0.924,1.19-2.156,2.143-3.67,2.857l-0.63-0.826c1.583-0.7,2.829-1.653,3.739-2.886
				c-0.699-1.135-1.288-2.451-1.75-3.95c-0.281,0.532-0.574,1.009-0.896,1.429l-0.617-0.784c1.023-1.429,1.709-3.376,2.074-5.827
				l0.98,0.168c-0.113,0.687-0.253,1.331-0.393,1.919h4.469v0.967h-1.094C39.948-152.412,39.402-150.38,38.379-148.742z
				 M36.012-153.896c0.449,1.625,1.051,3.054,1.779,4.258c0.799-1.442,1.219-3.18,1.247-5.196h-2.689
				C36.236-154.499,36.125-154.19,36.012-153.896z"/>
			<path style="fill:#444444;" d="M53.332-148.181h-1.008v-5.646h-6.696v5.674h-1.009v-6.654h3.544
				c0.14-0.49,0.238-0.994,0.309-1.526H42.84v-0.952h12.327v0.952h-5.631c-0.084,0.532-0.183,1.051-0.322,1.526h4.118V-148.181z
				 M49.521-152.986v2.228c-0.056,1.541-0.56,2.76-1.484,3.684c-0.896,0.854-2.367,1.513-4.412,1.989l-0.574-0.896
				c2.031-0.448,3.445-1.036,4.244-1.779c0.756-0.771,1.148-1.765,1.19-2.997v-2.228h1.036
				C49.521-152.985,49.521-152.986,49.521-152.986z M54.873-145.94l-0.616,0.952c-1.597-0.994-3.222-1.778-4.889-2.339l0.56-0.826
				C51.735-147.537,53.389-146.808,54.873-145.94z"/>
			<path style="fill:#444444;" d="M69.237-157.314v0.98H63.62c-0.112,0.616-0.294,1.219-0.519,1.793h5.379v9.553h-0.967v-0.7h-8.979
				v0.7h-0.967v-9.553h4.511c0.224-0.588,0.406-1.177,0.519-1.793H56.77v-0.98H69.237z M60.469-146.612v-7.019h-1.934v7.019H60.469z
				 M64.601-151.893v-1.737h-3.194v1.737H64.601z M64.601-149.288v-1.709h-3.194v1.709H64.601z M64.601-146.612v-1.793h-3.194v1.793
				H64.601z M67.514-146.612v-7.019h-1.975v7.019H67.514z"/>
		</g>
	</g>
</g>
<g id="RectEndPoint3" transform="translate(130,264)">
	<rect x="-17" y="-165.43" style="opacity:0.6;fill:#BBBBBB;enable-background:new    ;" width="97" height="50"/>
	<rect x="-19" y="-167.43" style="fill:#FFFFFF;stroke:#E5E5E5;" width="97" height="50"/>
	<g transform="translate(20 9)">
		<g style="enable-background:new    ;">
			<path style="fill:#444444;" d="M-15.036-157.426c-0.701,1.821-1.415,3.264-2.144,4.343c0.617-0.084,1.247-0.183,1.863-0.294
				c0.252-0.449,0.504-0.911,0.771-1.388l0.91,0.337c-1.218,2.143-2.227,3.67-3.04,4.594c0.967-0.168,1.933-0.378,2.886-0.658v0.896
				c-1.443,0.421-2.83,0.701-4.146,0.869l-0.266-0.925c0.182-0.056,0.336-0.154,0.462-0.28c0.504-0.504,1.135-1.345,1.877-2.521
				l-2.241,0.336l-0.252-0.938c0.168-0.069,0.308-0.21,0.434-0.406c0.742-1.261,1.387-2.703,1.947-4.328L-15.036-157.426z
				 M-13.985-147.256c-1.232,0.616-2.633,1.106-4.216,1.471l-0.126-0.995c1.653-0.364,3.11-0.854,4.342-1.456V-147.256z
				 M-8.186-153.854c0.378-0.687,0.714-1.499,0.995-2.438l0.924,0.238c-0.266,0.812-0.588,1.541-0.98,2.199h1.177v0.882h-4.693
				c-0.056,0.421-0.112,0.812-0.168,1.191h5.225v0.91H-11.1c-0.084,0.378-0.154,0.729-0.238,1.051h4.749v0.771
				c-0.364,0.84-0.953,1.583-1.737,2.199c0.812,0.392,1.737,0.687,2.788,0.868l-0.448,0.896c-1.247-0.267-2.312-0.658-3.194-1.19
				c-0.84,0.49-1.835,0.896-3.012,1.219l-0.462-0.841c1.037-0.238,1.919-0.546,2.676-0.925c-0.701-0.532-1.261-1.162-1.695-1.862
				c-0.056,0.126-0.098,0.237-0.14,0.35c-0.519,1.19-1.303,2.256-2.339,3.208l-0.588-0.771c0.938-0.854,1.639-1.793,2.115-2.829
				c0.252-0.617,0.462-1.331,0.644-2.144h-1.807v-0.91h1.975l0.168-1.191h-1.681v-0.882h5.14
				C-8.186-153.855-8.186-153.854-8.186-153.854z M-5.903-157.02c-1.891,0.589-4.413,0.896-7.55,0.896l-0.294-0.883
				c2.97,0,5.421-0.279,7.368-0.812L-5.903-157.02z M-11.45-154.26l-0.757,0.336c-0.252-0.63-0.532-1.177-0.826-1.652l0.798-0.322
				C-11.926-155.395-11.674-154.849-11.45-154.26z M-7.598-148.994h-3.292c0.462,0.673,1.037,1.232,1.737,1.681
				C-8.466-147.789-7.948-148.349-7.598-148.994z M-8.984-154.344l-0.771,0.336c-0.252-0.645-0.519-1.219-0.798-1.695l0.798-0.321
				C-9.461-155.493-9.208-154.933-8.984-154.344z"/>
			<path style="fill:#444444;" d="M-0.111-156.446c0.182-0.49,0.35-0.98,0.49-1.484l1.022,0.126c-0.14,0.462-0.28,0.91-0.434,1.358
				h7.172v0.98h-7.55c-0.518,1.205-1.163,2.312-1.919,3.32v7.13h-0.98v-5.926c-0.476,0.519-0.966,1.009-1.499,1.485l-0.63-0.799
				c1.708-1.499,3.011-3.235,3.922-5.211h-3.404v-0.98L-0.111-156.446L-0.111-156.446z M3.825-149.932v-1.303
				c0.798-0.448,1.555-0.967,2.283-1.583H0.841v-0.938h6.555v0.938c-0.756,0.7-1.611,1.373-2.563,2.003v0.883h3.501v0.967H4.833
				v2.647c0,0.826-0.42,1.246-1.247,1.246h-1.75l-0.267-0.952c0.504,0.014,1.037,0.028,1.611,0.028c0.42,0,0.644-0.225,0.644-0.645
				v-2.325h-4.062v-0.967L3.825-149.932L3.825-149.932z"/>
			<path style="fill:#444444;" d="M20.332-148.181h-1.008v-5.646h-6.696v5.674H11.62v-6.654h3.543
				c0.14-0.49,0.238-0.994,0.309-1.526H9.84v-0.952h12.327v0.952h-5.631c-0.084,0.532-0.182,1.051-0.322,1.526h4.118
				C20.332-154.807,20.332-148.181,20.332-148.181z M16.522-152.986v2.228c-0.056,1.541-0.56,2.76-1.485,3.684
				c-0.896,0.854-2.367,1.513-4.412,1.989l-0.574-0.896c2.031-0.448,3.446-1.036,4.244-1.779c0.756-0.771,1.148-1.765,1.19-2.997
				v-2.228h1.037C16.522-152.985,16.522-152.986,16.522-152.986z M21.873-145.94l-0.616,0.952c-1.597-0.994-3.222-1.778-4.889-2.339
				l0.56-0.826C18.735-147.537,20.388-146.808,21.873-145.94z"/>
			<path style="fill:#444444;" d="M36.237-157.314v0.98H30.62c-0.112,0.616-0.294,1.219-0.518,1.793h5.379v9.553h-0.967v-0.7h-8.979
				v0.7h-0.966v-9.553h4.51c0.224-0.588,0.406-1.177,0.519-1.793h-5.827v-0.98H36.237z M27.468-146.612v-7.019h-1.933v7.019H27.468z
				 M31.601-151.893v-1.737h-3.194v1.737H31.601z M31.601-149.288v-1.709h-3.194v1.709H31.601z M31.601-146.612v-1.793h-3.194v1.793
				H31.601z M34.514-146.612v-7.019h-1.975v7.019H34.514z"/>
		</g>
	</g>
</g>
<rect x="367.629" y="118.101" style="fill:#00A4FF;" width="11.537" height="2"/>
<polygon style="fill:#00A4FF;" points="365.629,119.101 368.656,121.75 368.656,116.453 "/>
<rect x="365.75" y="123.398" style="fill:#00A4FF;" width="11.531" height="2"/>
<polygon style="fill:#00A4FF;" points="379.167,124.398 376.14,127.047 376.14,121.75 "/>
</svg>
