<?xml version="1.0" encoding="UTF-8"?>
<svg width="48px" height="48px" viewBox="0 0 48 48" version="1.1" xmlns="http://www.w3.org/2000/svg" xmlns:xlink="http://www.w3.org/1999/xlink">
    <!-- Generator: Sketch 52.2 (67145) - http://www.bohemiancoding.com/sketch -->
    <title>灵活多端-48x48</title>
    <desc>Created with Sketch.</desc>
    <g id="灵活多端-48x48" stroke="none" stroke-width="1" fill="none" fill-rule="evenodd">
        <polygon id="Combined-Shape" fill="#334966" fill-rule="nonzero" points="48 9 46 9 46 5 2 5 2 37 22 37 22 39 0 39 0 3 48 3"></polygon>
        <rect id="Rectangle-17" fill="#334966" x="12" y="43" width="10" height="2"></rect>
        <rect id="Rectangle-73" fill="#334966" x="20" y="37" width="2" height="8"></rect>
        <rect id="Rectangle-77" stroke="#334966" stroke-width="2" x="27" y="14" width="20" height="30"></rect>
        <rect id="Rectangle" fill="#334966" x="27" y="37" width="21" height="2"></rect>
        <rect id="Rectangle-Copy" fill="#00A4FF" x="30" y="17" width="16" height="20"></rect>
        <polygon id="Rectangle-Copy-2" fill="#00A4FF" points="8 13 20 13 20 15 8 15"></polygon>
        <polygon id="Rectangle-Copy-3" fill="#00A4FF" points="8 19 20 19 20 21 8 21"></polygon>
        <polygon id="Rectangle-Copy-4" fill="#00A4FF" points="8 25 20 25 20 27 8 27"></polygon>
    </g>
</svg>