<?xml version="1.0" encoding="UTF-8"?>
<svg width="30px" height="32px" viewBox="0 0 30 32" version="1.1" xmlns="http://www.w3.org/2000/svg" xmlns:xlink="http://www.w3.org/1999/xlink">
    <!-- Generator: Sketch 54.1 (76490) - https://sketchapp.com -->
    <title>御知-网络资产风险监测-32</title>
    <desc>Created with Sketch.</desc>
    <g id="页面1" stroke="none" stroke-width="1" fill="none" fill-rule="evenodd">
        <g id="文本内容安全" transform="translate(-112.000000, -284.000000)">
            <g id="御知-网络资产风险监测-32" transform="translate(111.000000, 284.000000)">
                <rect id="矩形" x="0" y="0" width="32" height="32"></rect>
                <g id="编组-2" transform="translate(2.666667, 1.333333)">
                    <path d="M26.3168788,4.09813783 C25.3296078,3.24711324 20.8485977,0 13.3333333,0 C5.81806892,0 1.34740764,3.24711324 0.358066853,4.09813783 L0,4.41623925 L0.0144882542,5.97163128 C0.0144882542,6.12655081 0.132464038,9.79297956 1.734451,14.3724007 C3.86836386,20.4679676 7.60426369,25.2993912 12.6523854,28.315158 L13.3333333,28.7179487 L14.0225603,28.315158 C19.0727517,25.2993912 22.7920936,20.465902 24.9260064,14.3724007 C26.5300631,9.79297956 26.6459692,6.12655081 26.6480389,5.97163128 L26.6666667,4.41623925 L26.3168788,4.09813783 Z" id="_复合路径_-path" stroke="#00A4FF" stroke-width="2" fill-rule="nonzero"></path>
                    <circle id="椭圆形" stroke="#00A4FF" stroke-width="2" fill-rule="nonzero" cx="13.3333333" cy="12" r="5.33333333"></circle>
                    <polygon id="路径-3" fill="#00A4FF" points="11.5833333 0.5 13.3333333 9.66666667 15.0833333 0.5"></polygon>
                    <polygon id="路径-3" fill="#00A4FF" transform="translate(20.916667, 12.166667) rotate(90.000000) translate(-20.916667, -12.166667) " points="19.1666667 7.08333333 20.9166667 17.25 22.6666667 7.08333333"></polygon>
                    <polygon id="路径-3" fill="#00A4FF" transform="translate(13.333333, 21.250000) rotate(180.000000) translate(-13.333333, -21.250000) " points="11.3333333 14.6666667 13.3333333 27.8333333 15.3333333 14.6666667"></polygon>
                    <polygon id="路径-3" fill="#00A4FF" transform="translate(5.750000, 12.166667) rotate(270.000000) translate(-5.750000, -12.166667) " points="4 7.08333333 5.75 17.25 7.5 7.08333333"></polygon>
                </g>
            </g>
        </g>
    </g>
</svg>