<?xml version="1.0" encoding="utf-8"?>
<!-- Generator: Adobe Illustrator 22.0.0, SVG Export Plug-In . SVG Version: 6.00 Build 0)  -->
<svg version="1.1" id="图层_1" xmlns="http://www.w3.org/2000/svg" xmlns:xlink="http://www.w3.org/1999/xlink" x="0px" y="0px"
	 viewBox="0 0 48 48" style="enable-background:new 0 0 48 48;" xml:space="preserve">
<style type="text/css">
	.st0{fill:#00A4FF;}
	.st1{fill:#334966;}
</style>
<title>稳定可靠</title>
<desc>Created with Sketch.</desc>
<g id="稳定可靠">
	<g id="Group" transform="translate(1.000000, 1.000000)">
		<ellipse id="Oval-33" transform="matrix(0.7071 -0.7071 0.7071 0.7071 -9.5269 23)" class="st0" cx="23" cy="23" rx="22" ry="7"/>
		<path id="Fill-2" class="st1" d="M42.5,32.2c1.9,4.8,2,8.7,0.2,10.5c-1.1,1-2.5,1.4-4,1.3c-3.8,0-8.8-2-14-5.5
			c1-0.7,1.9-1.5,2.9-2.3c1.8,1.3,4.3,0.9,5.6-0.9c0.9-1.3,1-3,0.1-4.4c1.8-1.9,3.6-4,5.2-6.1C40.1,27.1,41.4,29.6,42.5,32.2
			L42.5,32.2z M29.3,34.9c-0.2-0.1-0.3-0.1-0.4-0.2h0c-0.1-0.1-0.2-0.2-0.3-0.3c-0.2-0.3-0.3-0.6-0.4-1c0-0.1-0.1-0.2-0.1-0.4
			c0-1.1,0.9-2,2-2c1.1,0,2,0.9,2,2c0,1.1-0.9,2-2,2C29.8,35,29.5,35,29.3,34.9z M23,37.3c-2.7-2-5.3-4.2-7.7-6.6
			c-2.4-2.4-4.6-5-6.6-7.7c4-5.5,8.8-10.3,14.3-14.3c2.7,2,5.3,4.2,7.7,6.6c2.4,2.4,4.6,5,6.6,7.7c-1.7,2.3-3.5,4.5-5.4,6.5
			C31.3,29.2,30.7,29,30,29c-2.2,0-4,1.8-4,4c0,0.6,0.1,1.1,0.4,1.7C25.3,35.6,24.1,36.5,23,37.3z M7.3,44c-1.4,0.1-2.9-0.4-4-1.3
			C0.7,40,2.1,32.9,7.5,24.8c1.9,2.6,4.1,5.1,6.4,7.4c2.3,2.3,4.8,4.4,7.4,6.4C16.1,42,11,44,7.3,44z M3.5,13.8
			C1.6,9,1.5,5.1,3.3,3.3C4.4,2.4,5.8,1.9,7.3,2c2,0.1,4,0.5,5.8,1.2C12.6,5.4,14,7.5,16.2,8c1.4,0.3,2.9-0.2,3.8-1.3
			c0.4,0.3,0.9,0.5,1.3,0.8C16,11.4,11.4,16,7.5,21.3C5.9,18.9,4.6,16.4,3.5,13.8z M19,4c0,0.2,0,0.3-0.1,0.5v0.1
			c0,0.1-0.1,0.2-0.1,0.3L18.7,5c-0.1,0.1-0.1,0.2-0.2,0.3l-0.1,0.1c-0.1,0.1-0.2,0.2-0.3,0.3C17.8,5.9,17.4,6,17,6
			c-1.1,0-2-0.9-2-2s0.9-2,2-2C18.1,2,19,2.9,19,4z M38.7,2c1.4-0.1,2.9,0.4,4,1.3c1.8,1.8,1.8,5.6-0.2,10.5c-1.1,2.6-2.4,5.1-4,7.4
			c-1.9-2.6-4.1-5.1-6.4-7.4c-2.3-2.3-4.8-4.4-7.4-6.4C29.9,4,35,2,38.7,2z M44.1,1.9c-1.5-1.3-3.4-2-5.4-1.9
			C34.5,0,28.8,2.3,23,6.2c-0.7-0.5-1.4-0.9-2.1-1.4c0.4-2.2-1-4.3-3.1-4.7c-1.4-0.3-2.8,0.2-3.8,1.3C11.9,0.6,9.6,0.1,7.3,0
			c-2-0.1-3.9,0.6-5.4,1.9C-1.9,5.7,0.2,14.1,6.2,23c-6.1,8.9-8.1,17.3-4.3,21.1c1.5,1.3,3.4,2,5.4,1.9c4.3,0,9.9-2.2,15.7-6.2
			c5.8,4,11.5,6.2,15.7,6.2c2,0.1,3.9-0.6,5.4-1.9c3.8-3.8,1.8-12.2-4.3-21.1C45.9,14.1,47.9,5.7,44.1,1.9z"/>
		<circle id="Oval-32" class="st0" cx="17" cy="4" r="2"/>
	</g>
</g>
</svg>
