<?xml version="1.0" encoding="UTF-8"?>
<svg width="830px" height="200px" viewBox="0 0 830 200" version="1.1" xmlns="http://www.w3.org/2000/svg" xmlns:xlink="http://www.w3.org/1999/xlink">
    <!-- Generator: Sketch 52.5 (67469) - http://www.bohemiancoding.com/sketch -->
    <title>iPhone 8 Copy 7</title>
    <desc>Created with Sketch.</desc>
    <defs>
        <linearGradient x1="50%" y1="0%" x2="50%" y2="100%" id="linearGradient-1">
            <stop stop-color="#C5EDF4" offset="0%"></stop>
            <stop stop-color="#C5DCFA" offset="100%"></stop>
        </linearGradient>
        <linearGradient x1="18.0596459%" y1="9.05782445%" x2="82.7933247%" y2="88.7140121%" id="linearGradient-2">
            <stop stop-color="#1FBDDF" offset="0%"></stop>
            <stop stop-color="#1783F6" offset="100%"></stop>
        </linearGradient>
        <circle id="path-3" cx="17.0212766" cy="17.0212766" r="17.0212766"></circle>
        <circle id="path-5" cx="17.0212766" cy="17.0212766" r="17.0212766"></circle>
        <linearGradient x1="100%" y1="-2.48949813e-15%" x2="0%" y2="-2.48949813e-15%" id="linearGradient-7">
            <stop stop-color="#1783F6" offset="0%"></stop>
            <stop stop-color="#1FBCDF" offset="100%"></stop>
        </linearGradient>
    </defs>
    <g id="iPhone-8-Copy-7" stroke="none" stroke-width="1" fill="none" fill-rule="evenodd">
        <g id="Group-30-Copy" transform="translate(457.613281, 19.000000)">
            <path d="M11.1884925,20.4853723 C10.4834482,20.4853723 9.9118968,21.0569237 9.9118968,21.7619681 L9.9118968,82.9219497 C9.9118968,83.6269941 10.4834482,84.1985455 11.1884925,84.1985455 L107.179181,84.1985455 C107.884225,84.1985455 108.455777,83.6269941 108.455777,82.9219497 L108.455777,21.7619681 C108.455777,21.0569237 107.884225,20.4853723 107.179181,20.4853723 L11.1884925,20.4853723 Z" id="Rectangle-Copy-5" fill="url(#linearGradient-1)"></path>
            <rect id="Rectangle-Copy-10" fill="#FFFFFF" fill-rule="nonzero" x="59.607708" y="41.6944398" width="38.2978723" height="5.95744681"></rect>
            <rect id="Rectangle-Copy-11" fill="#FFFFFF" fill-rule="nonzero" x="59.607708" y="51.067362" width="30.6382979" height="4.25531915"></rect>
            <polyline id="Shape-Copy-13" stroke="#1FBDDF" stroke-width="2" fill-rule="nonzero" points="0.396230241 10.5736785 0.396230241 0.133602061 10.8363067 0.133602061"></polyline>
            <polyline id="Shape-Copy-14" stroke="#1DACE6" stroke-width="2" fill-rule="nonzero" transform="translate(5.616268, 99.325549) scale(1, -1) translate(-5.616268, -99.325549) " points="0.396230241 104.545587 0.396230241 94.1055103 10.8363067 94.1055103"></polyline>
            <polyline id="Shape-Copy-15" stroke="#1A93F0" stroke-width="2" fill-rule="nonzero" transform="translate(112.646064, 5.353640) scale(-1, 1) translate(-112.646064, -5.353640) " points="107.426026 10.5736785 107.426026 0.133602061 117.866102 0.133602061"></polyline>
            <path d="M11.1884925,20.4853723 C10.4834482,20.4853723 9.9118968,21.0569237 9.9118968,21.7619681 L9.9118968,82.9219497 C9.9118968,83.6269941 10.4834482,84.1985455 11.1884925,84.1985455 L107.179181,84.1985455 C107.884225,84.1985455 108.455777,83.6269941 108.455777,82.9219497 L108.455777,21.7619681 C108.455777,21.0569237 107.884225,20.4853723 107.179181,20.4853723 L11.1884925,20.4853723 Z M11.1884925,19.6343085 L107.179181,19.6343085 C108.354255,19.6343085 109.306841,20.5868941 109.306841,21.7619681 L109.306841,82.9219497 C109.306841,84.0970237 108.354255,85.0496093 107.179181,85.0496093 L11.1884925,85.0496093 C10.0134186,85.0496093 9.06083297,84.0970237 9.06083297,82.9219497 L9.06083297,21.7619681 C9.06083297,20.5868941 10.0134186,19.6343085 11.1884925,19.6343085 Z" id="Rectangle-Copy-5" fill="url(#linearGradient-2)" fill-rule="nonzero"></path>
            <g id="Combined-Shape" transform="translate(16.205113, 35.284944)">
                <mask id="mask-4" fill="white">
                    <use xlink:href="#path-3"></use>
                </mask>
                <g id="Mask" fill-rule="nonzero"></g>
                <path d="M14.1275921,21.2816973 C11.8142747,20.1939608 10.212766,17.8424715 10.212766,15.1169298 C10.212766,11.3566932 13.26104,8.30841914 17.0212766,8.30841914 C20.7815132,8.30841914 23.8297872,11.3566932 23.8297872,15.1169298 C23.8297872,17.8424715 22.2282784,20.1939608 19.9149611,21.2816973 C25.5773816,22.5927984 29.7978308,27.6681159 29.7978308,33.7291721 C29.7978308,40.7854682 24.0775726,46.5057263 17.0212766,46.5057263 C9.96498056,46.5057263 4.24472241,40.7854682 4.24472241,33.7291721 C4.24472241,27.6681159 8.46517156,22.5927984 14.1275921,21.2816973 Z" fill="#FFFFFF" fill-rule="nonzero" mask="url(#mask-4)"></path>
            </g>
            <path d="M33.2263899,69.7887674 C23.5907837,69.7887674 15.7795814,61.9775652 15.7795814,52.3419589 C15.7795814,42.7063526 23.5907837,34.8951504 33.2263899,34.8951504 C42.8619962,34.8951504 50.6731985,42.7063526 50.6731985,52.3419589 C50.6731985,61.9775652 42.8619962,69.7887674 33.2263899,69.7887674 Z M33.2263899,68.9377036 C42.3919666,68.9377036 49.8221346,61.5075356 49.8221346,52.3419589 C49.8221346,43.1763822 42.3919666,35.7462142 33.2263899,35.7462142 C24.0608132,35.7462142 16.6306453,43.1763822 16.6306453,52.3419589 C16.6306453,61.5075356 24.0608132,68.9377036 33.2263899,68.9377036 Z" id="Oval-Copy-7" fill="url(#linearGradient-2)" fill-rule="nonzero"></path>
            <g id="Group-28" transform="translate(81.732048, 64.383311)">
                <path d="M2.27393137,1.29096582 L36.7115355,1.29096582 L36.7115355,23.9213914 L36.1603389,25.3285769 C33.2602528,32.7323942 27.1122634,38.3882429 19.4927334,40.6619564 L19.4927334,40.6619564 C11.7443849,38.394485 5.51863736,32.6065121 2.69323578,25.0437456 L2.27393137,23.9213914 L2.27393137,1.29096582 Z" id="Rectangle-45-Copy-3" fill="#FFFFFF"></path>
                <polyline id="Path-12-Copy" stroke="#028FF2" stroke-width="2" fill-rule="nonzero" points="11.4054141 17.6861702 17.3699254 23.1931516 26.0580264 14.2089167"></polyline>
                <path d="M2.27393137,23.7494153 L2.63941585,24.7277094 C5.34153457,31.9604841 11.2606271,37.5141753 18.6393316,39.7549932 C25.8963795,37.5097013 31.7429298,32.0816675 34.5168348,24.999986 L35.0094078,23.7424645 L35.0094078,2.12383875 L2.27393137,2.12383875 L2.27393137,23.7494153 Z M36.7115355,0.421711091 L36.7115355,24.0639365 L36.1017153,25.620786 C33.1060915,33.2685076 26.7555687,39.1106771 18.8850281,41.4592937 L18.6440229,41.5312111 L18.4026397,41.4605729 C10.3968288,39.1177579 3.96421211,33.1374622 1.04492804,25.3234 L0.571803711,24.0569857 L0.571803711,0.421711091 L36.7115355,0.421711091 Z" id="Rectangle-45-Copy-4" fill="#007CF9" fill-rule="nonzero"></path>
            </g>
        </g>
        <g id="Group-33-Copy" transform="translate(3.000000, 19.000000)">
            <polyline id="Shape-Copy-13" stroke="#1FBDDF" stroke-width="2" fill-rule="nonzero" points="1.16750684 10.5736785 1.16750684 0.133602061 11.6075833 0.133602061"></polyline>
            <polyline id="Shape-Copy-14" stroke="#1DACE6" stroke-width="2" fill-rule="nonzero" transform="translate(6.387545, 99.325549) scale(1, -1) translate(-6.387545, -99.325549) " points="1.16750684 104.545587 1.16750684 94.1055103 11.6075833 94.1055103"></polyline>
            <polyline id="Shape-Copy-15" stroke="#1A93F0" stroke-width="2" fill-rule="nonzero" transform="translate(113.417341, 5.353640) scale(-1, 1) translate(-113.417341, -5.353640) " points="108.197302 10.5736785 108.197302 0.133602061 118.637379 0.133602061"></polyline>
            <polyline id="Shape-Copy-16" stroke="#1783F6" stroke-width="2" fill-rule="nonzero" transform="translate(113.417341, 99.325549) scale(-1, -1) translate(-113.417341, -99.325549) " points="108.197302 104.545587 108.197302 94.1055103 118.637379 94.1055103"></polyline>
            <path d="M11.9597691,20.4853723 C11.2547248,20.4853723 10.6831734,21.0569237 10.6831734,21.7619681 L10.6831734,82.9219497 C10.6831734,83.6269941 11.2547248,84.1985455 11.9597691,84.1985455 L107.950458,84.1985455 C108.655502,84.1985455 109.227053,83.6269941 109.227053,82.9219497 L109.227053,21.7619681 C109.227053,21.0569237 108.655502,20.4853723 107.950458,20.4853723 L11.9597691,20.4853723 Z" id="Rectangle-Copy-5" fill="url(#linearGradient-1)"></path>
            <path d="M11.9597691,20.4853723 C11.2547248,20.4853723 10.6831734,21.0569237 10.6831734,21.7619681 L10.6831734,82.9219497 C10.6831734,83.6269941 11.2547248,84.1985455 11.9597691,84.1985455 L107.950458,84.1985455 C108.655502,84.1985455 109.227053,83.6269941 109.227053,82.9219497 L109.227053,21.7619681 C109.227053,21.0569237 108.655502,20.4853723 107.950458,20.4853723 L11.9597691,20.4853723 Z M11.9597691,19.6343085 L107.950458,19.6343085 C109.125531,19.6343085 110.078117,20.5868941 110.078117,21.7619681 L110.078117,82.9219497 C110.078117,84.0970237 109.125531,85.0496093 107.950458,85.0496093 L11.9597691,85.0496093 C10.7846952,85.0496093 9.83210956,84.0970237 9.83210956,82.9219497 L9.83210956,21.7619681 C9.83210956,20.5868941 10.7846952,19.6343085 11.9597691,19.6343085 Z" id="Rectangle-Copy-5" fill="url(#linearGradient-2)" fill-rule="nonzero"></path>
            <rect id="Rectangle-Copy-6" fill="#FFFFFF" fill-rule="nonzero" x="21.3214713" y="55.8045213" width="38.2978723" height="5.95744681"></rect>
            <rect id="Rectangle-Copy-7" fill="#FFFFFF" fill-rule="nonzero" x="21.3214713" y="65.1774435" width="30.6382979" height="4.25531915"></rect>
            <g id="Combined-Shape" transform="translate(67.529915, 37.692819)">
                <mask id="mask-6" fill="white">
                    <use xlink:href="#path-5"></use>
                </mask>
                <g id="Mask" fill-rule="nonzero"></g>
                <path d="M14.1275921,21.2816973 C11.8142747,20.1939608 10.212766,17.8424715 10.212766,15.1169298 C10.212766,11.3566932 13.26104,8.30841914 17.0212766,8.30841914 C20.7815132,8.30841914 23.8297872,11.3566932 23.8297872,15.1169298 C23.8297872,17.8424715 22.2282784,20.1939608 19.9149611,21.2816973 C25.5773816,22.5927984 29.7978308,27.6681159 29.7978308,33.7291721 C29.7978308,40.7854682 24.0775726,46.5057263 17.0212766,46.5057263 C9.96498056,46.5057263 4.24472241,40.7854682 4.24472241,33.7291721 C4.24472241,27.6681159 8.46517156,22.5927984 14.1275921,21.2816973 Z" fill="#FFFFFF" fill-rule="nonzero" mask="url(#mask-6)"></path>
            </g>
            <path d="M84.551192,72.1966423 C74.9155857,72.1966423 67.1043835,64.38544 67.1043835,54.7498338 C67.1043835,45.1142275 74.9155857,37.3030253 84.551192,37.3030253 C94.1867983,37.3030253 101.998001,45.1142275 101.998001,54.7498338 C101.998001,64.38544 94.1867983,72.1966423 84.551192,72.1966423 Z M84.551192,71.3455785 C93.7167687,71.3455785 101.146937,63.9154105 101.146937,54.7498338 C101.146937,45.5842571 93.7167687,38.1540891 84.551192,38.1540891 C75.3856153,38.1540891 67.9554473,45.5842571 67.9554473,54.7498338 C67.9554473,63.9154105 75.3856153,71.3455785 84.551192,71.3455785 Z" id="Oval-Copy-7" fill="url(#linearGradient-2)" fill-rule="nonzero"></path>
            <path d="M23.4809792,42.485705 L23.4809792,48.7489611 L21.5618303,48.7489611 L21.5618303,39.2085356 L23.3803252,39.2085356 L27.6128941,45.3835299 L27.6128941,39.2085356 L29.544809,39.2085356 L29.544809,48.7489611 L27.7644705,48.7489611 L23.4809792,42.485705 Z M32.6683753,48.7489611 L30.6143926,48.7489611 L34.2622023,39.2085356 L36.2529476,39.2085356 L39.9007574,48.7489611 L37.8467746,48.7489611 L37.0169874,46.4638547 L33.4981626,46.4638547 L32.6683753,48.7489611 Z M33.9188392,44.6934606 L36.5963107,44.6934606 L35.3958395,41.3385721 L35.130029,41.3385721 L33.9188392,44.6934606 Z M42.8894899,43.1761779 L42.8894899,48.7489611 L40.9703409,48.7489611 L40.9703409,39.2085356 L43.0716517,39.2085356 L46.0593527,46.0937726 L49.0347587,39.2085356 L51.1362984,39.2085356 L51.1362984,48.7489611 L49.2171494,48.7489611 L49.2171494,43.1761779 L46.8385225,48.7489611 L45.2681168,48.7489611 L42.8894899,43.1761779 Z M60.4128941,47.0468334 L60.4128941,48.7489611 L53.1958728,48.7489611 L53.1958728,39.2085356 L60.1958728,39.2085356 L60.1958728,40.9106632 L55.1150218,40.9106632 L55.1150218,43.0127909 L59.8894899,43.0127909 L59.8894899,44.7149186 L55.1150218,44.7149186 L55.1150218,47.0468334 L60.4128941,47.0468334 Z" id="NAME-Copy" fill="#1791F1" fill-rule="nonzero"></path>
            <path d="M0.339506504,51.963514 L119.687217,51.963514" id="Path-2" stroke="url(#linearGradient-7)" stroke-width="2" fill-rule="nonzero"></path>
        </g>
        <text id="扫描身份证-copy-3" font-family="PingFangSC-Medium, PingFang SC" font-size="14" font-weight="400" letter-spacing="-0.00921052" fill="#666666">
            <tspan x="28" y="167.399805">扫描身份证</tspan>
        </text>
        <text id="公安权威核验-copy" font-family="PingFangSC-Medium, PingFang SC" font-size="14" font-weight="400" letter-spacing="-0.00921052" fill="#666666">
            <tspan x="475.613281" y="167.399805">公安权威核验</tspan>
        </text>
        <text id="活体检测自拍视频-copy-2" font-family="PingFangSC-Medium, PingFang SC" font-size="14" font-weight="400" letter-spacing="-0.00921052" fill="#666666">
            <tspan x="219.856667" y="167.399805">活体检测自拍视频</tspan>
        </text>
        <text id="认证成功-copy-2" font-family="PingFangSC-Medium, PingFang SC" font-size="14" font-weight="400" letter-spacing="-0.00921052" fill="#666666">
            <tspan x="738.500979" y="167.399805">认证成功</tspan>
        </text>
        <path d="M227.007722,10.9907164 C226.772707,10.9907164 226.58219,11.1812336 226.58219,11.4162483 L226.58219,128.011993 C226.58219,128.247008 226.772707,128.437525 227.007722,128.437525 L324.880062,128.437525 C325.115077,128.437525 325.305594,128.247008 325.305594,128.011993 L325.305594,11.4162483 C325.305594,11.1812336 325.115077,10.9907164 324.880062,10.9907164 L227.007722,10.9907164 Z M227.007722,10.1396526 L324.880062,10.1396526 C325.585106,10.1396526 326.156658,10.711204 326.156658,11.4162483 L326.156658,128.011993 C326.156658,128.717037 325.585106,129.288589 324.880062,129.288589 L227.007722,129.288589 C226.302677,129.288589 225.731126,128.717037 225.731126,128.011993 L225.731126,11.4162483 C225.731126,10.711204 226.302677,10.1396526 227.007722,10.1396526 Z" id="Rectangle" fill="url(#linearGradient-2)" fill-rule="nonzero"></path>
        <rect id="Rectangle" fill="url(#linearGradient-1)" x="230.837509" y="14.8205037" width="90.212766" height="109.787234" rx="2"></rect>
        <rect id="Rectangle-Copy-4" fill="#23CBDD" fill-rule="nonzero" x="237.044541" y="16.9350731" width="2.55319149" height="2.55319149"></rect>
        <rect id="Rectangle-Copy-8" fill="#23CBDD" fill-rule="nonzero" x="231.528209" y="16.9350731" width="2.55319149" height="2.55319149"></rect>
        <rect id="Rectangle-Copy-9" fill="#23CBDD" fill-rule="nonzero" x="242.621128" y="16.9350731" width="2.55319149" height="2.55319149"></rect>
        <polyline id="Path-8" stroke="#1FBDDF" stroke-width="2" fill-rule="nonzero" points="260.018069 36.6955037 249.860988 36.6955037 249.860988 46.5425781"></polyline>
        <polyline id="Path-8-Copy-2" stroke="#1DACE6" stroke-width="2" fill-rule="nonzero" transform="translate(254.939529, 85.628349) scale(1, -1) translate(-254.939529, -85.628349) " points="260.018069 80.7048122 249.860988 80.7048122 249.860988 90.5518866"></polyline>
        <polyline id="Path-8-Copy" stroke="#1A93F0" stroke-width="2" fill-rule="nonzero" transform="translate(298.774303, 41.619041) scale(-1, 1) translate(-298.774303, -41.619041) " points="303.852843 36.6955037 293.695762 36.6955037 293.695762 46.5425781"></polyline>
        <polyline id="Path-8-Copy-3" stroke="#1783F6" stroke-width="2" fill-rule="nonzero" transform="translate(298.774303, 85.628349) scale(-1, -1) translate(-298.774303, -85.628349) " points="303.852843 80.7048122 293.695762 80.7048122 293.695762 90.5518866"></polyline>
        <polygon id="Path-9" fill="url(#linearGradient-7)" fill-rule="nonzero" points="242.621128 75.4631233 242.621128 73.4631233 311.106002 73.4631233 311.106002 75.4631233"></polygon>
        <path d="M269.84021,46.9876413 L268.248621,48.414877 L264.620172,51.4237937 L262.308212,51.4237937 C261.778514,53.509789 261.375145,54.6977105 261.098106,54.9875582 C260.682548,55.4223297 260.018693,56.8199634 259.721361,57.9455037 C259.523139,58.6958638 259.364742,59.4582752 259.24617,60.2327377 L259.24617,71.7364362 L293.695762,71.7364362 C294.262446,69.2581504 294.545787,67.381056 294.545787,66.1051528 C294.545787,64.1912981 294.021303,56.6344034 293.287684,55.5515684 C292.554065,54.4687334 287.753276,49.4978225 284.161603,48.0705868 C280.569931,46.6433511 279.329905,46.5425781 276.634904,46.5425781 C274.838237,46.5425781 272.573339,46.6909325 269.84021,46.9876413 Z" id="Path-10" fill="#FFFFFF" fill-rule="nonzero"></path>
        <path d="M278.827436,120.288838 L277.594367,99.9401845 L274.258055,99.9401845 L272.954404,120.288838 L246.750948,120.288838 L245.151203,114.754211 C243.286008,108.301211 246.644119,101.489817 252.898568,99.0399127 L266.165139,93.8433185 C267.440111,93.3439045 268.278957,92.114419 268.278957,90.7451243 L268.278977,89.6851561 C268.278977,89.0392927 267.967086,88.4331816 267.441549,88.0577475 C266.996894,87.7400942 266.490071,87.2532163 265.921078,86.5971136 C264.474103,84.9286142 265.071053,81.2595828 264.264662,80.7048122 C263.727068,80.3349651 262.16436,79.2564522 259.576539,77.4692736 L293.073048,77.4692736 C292.544319,78.316546 291.904082,79.0676205 291.152336,79.7224972 C290.969966,79.8813675 290.788122,80.032095 290.606803,80.1746796 C289.584149,80.9788719 288.915212,82.1499955 288.742023,83.4393953 C288.510587,85.162443 288.096923,86.2557081 287.501032,86.7191905 C286.916318,87.1739787 286.367876,87.6556507 285.855706,88.1642064 C285.477573,88.5396826 285.264911,89.0505337 285.264911,89.583419 L285.264911,90.8978421 C285.264911,92.1790118 286.03836,93.3334336 287.223228,93.8207557 L298.995231,98.6624386 C305.399874,101.296591 308.615234,108.489048 306.30703,115.018244 L304.443768,120.288838 L278.827436,120.288838 Z M272.911022,94.8338015 L274.346777,99.0891207 L277.525176,99.0891207 L278.868469,94.8338015 L272.911022,94.8338015 Z" id="Combined-Shape" fill="#FFFFFF" fill-rule="nonzero"></path>
        <path d="M226.156658,26.1718999 L326.320584,26.1718999" id="Path-7" stroke="url(#linearGradient-7)" fill-rule="nonzero"></path>
        <g id="Group-31-Copy" transform="translate(706.500979, 10.000000)">
            <path d="M60.0485539,119.517857 C27.1481624,119.517857 0.477125369,92.8468201 0.477125369,59.9464286 C0.477125369,27.046037 27.1481624,0.375 60.0485539,0.375 C92.9489455,0.375 119.619983,27.046037 119.619983,59.9464286 C119.619983,92.8468201 92.9489455,119.517857 60.0485539,119.517857 Z M60.0485539,118.660714 C92.4755585,118.660714 118.76284,92.3734332 118.76284,59.9464286 C118.76284,27.519424 92.4755585,1.23214286 60.0485539,1.23214286 C27.6215493,1.23214286 1.33426823,27.519424 1.33426823,59.9464286 C1.33426823,92.3734332 27.6215493,118.660714 60.0485539,118.660714 Z" id="Oval" fill="url(#linearGradient-2)" fill-rule="nonzero"></path>
            <circle id="Oval" fill="url(#linearGradient-1)" cx="60.3833754" cy="60.7332589" r="51.8571429"></circle>
            <path d="M60.3833754,104.75014 C36.0735235,104.75014 16.3664948,85.0431108 16.3664948,60.7332589 C16.3664948,36.4234071 36.0735235,16.7163783 60.3833754,16.7163783 C84.6932272,16.7163783 104.400256,36.4234071 104.400256,60.7332589 C104.400256,85.0431108 84.6932272,104.75014 60.3833754,104.75014 Z M60.3833754,103.892997 C84.2198403,103.892997 103.543113,84.5697239 103.543113,60.7332589 C103.543113,36.896794 84.2198403,17.5735212 60.3833754,17.5735212 C36.5469104,17.5735212 17.2236376,36.896794 17.2236376,60.7332589 C17.2236376,84.5697239 36.5469104,103.892997 60.3833754,103.892997 Z" id="Oval-Copy-9" fill="url(#linearGradient-2)" fill-rule="nonzero"></path>
            <path d="M43.8348263,41.7821904 L78.5184133,41.7821904 L78.5184133,64.5742618 L77.9632795,65.9914986 C75.0424786,73.4482004 68.850575,79.1444479 61.1766198,81.4344023 L61.1766198,81.4344023 C53.3729258,79.1507347 47.1027087,73.3214191 44.2571257,65.7046328 L43.8348263,64.5742618 L43.8348263,41.7821904 Z" id="Rectangle-45-Copy-2" fill="#FFFFFF"></path>
            <polyline id="Path-12" stroke="url(#linearGradient-7)" stroke-width="2" fill-rule="nonzero" points="53.0315339 58.2945033 59.0386488 63.8408203 67.7888076 54.7924123"></polyline>
            <path d="M43.8348263,64.4010573 L44.2029213,65.3863393 C46.9243409,72.6707766 52.8857127,78.264137 60.3171222,80.5209607 C67.6260062,78.2596311 73.5143176,72.7928256 76.3080362,65.6605607 L76.8041276,64.3940569 L76.8041276,42.6210124 L43.8348263,42.6210124 L43.8348263,64.4010573 Z M78.5184133,40.9067267 L78.5184133,64.7178251 L77.9042372,66.2857949 C74.8872161,73.9881431 68.4913324,79.8720425 60.5645737,82.2374348 L60.321847,82.3098659 L60.0787396,82.2387232 C52.0157444,79.8791738 45.5371804,73.8561617 42.5970443,65.9862847 L42.1205405,64.7108246 L42.1205405,40.9067267 L78.5184133,40.9067267 Z" id="Rectangle-45-Copy" fill="url(#linearGradient-2)" fill-rule="nonzero"></path>
        </g>
        <text id="OCR-Copy-2" font-family="PingFangSC-Semibold, PingFang SC" font-size="16" font-weight="500" fill="#00A4FF">
            <tspan x="152.330135" y="66.0857854">OCR</tspan>
        </text>
        <text id="活体识别" font-family="PingFangSC-Semibold, PingFang SC" font-size="16" font-weight="500" fill="#00A4FF">
            <tspan x="360.317604" y="66.0857854">活体识别</tspan>
        </text>
        <text id="身份核验" font-family="PingFangSC-Semibold, PingFang SC" font-size="16" font-weight="500" fill="#00A4FF">
            <tspan x="607.516823" y="66.0857854">身份核验</tspan>
        </text>
        <text id="专线访问" font-family="PingFangSC-Semibold, PingFang SC" font-size="16" font-weight="500" fill="#BBBBBB">
            <tspan x="360.317604" y="107.468188">专线访问</tspan>
        </text>
        <text id="人脸对比" font-family="PingFangSC-Semibold, PingFang SC" font-size="16" font-weight="500" fill="#00A4FF">
            <tspan x="607.516823" y="107.468188">人脸对比</tspan>
        </text>
        <polygon id="Rectangle-14-Copy-10" fill="#E5E5E5" points="198.773782 76.7769866 205.773782 80.7769866 198.773782 84.7769866"></polygon>
        <polygon id="Rectangle-14-Copy-13" fill="#E5E5E5" points="421.129251 76.7769866 428.129251 80.7769866 421.129251 84.7769866"></polygon>
        <polygon id="Rectangle-14-Copy-14" fill="#E5E5E5" points="668.32847 76.7769866 675.32847 80.7769866 668.32847 84.7769866"></polygon>
        <path d="M142.318802,80.7769866 L197.605469,80.7769866" id="Path-15-Copy-9" stroke="#E5E5E5" stroke-width="2" stroke-dasharray="8,4"></path>
        <path d="M364.674271,80.7769866 L419.960938,80.7769866" id="Path-15-Copy-15" stroke="#E5E5E5" stroke-width="2" stroke-dasharray="8,4"></path>
        <path d="M611.873489,80.7769866 L667.160156,80.7769866" id="Path-15-Copy-16" stroke="#E5E5E5" stroke-width="2" stroke-dasharray="8,4"></path>
    </g>
</svg>