<?xml version="1.0" encoding="UTF-8"?>
<svg width="32px" height="32px" viewBox="0 0 32 32" version="1.1" xmlns="http://www.w3.org/2000/svg" xmlns:xlink="http://www.w3.org/1999/xlink">
    <!-- Generator: Sketch 52.6 (67491) - http://www.bohemiancoding.com/sketch -->
    <title>视频服务-32px</title>
    <desc>Created with Sketch.</desc>
    <g id="视频服务-32px" stroke="none" stroke-width="1" fill="none" fill-rule="evenodd">
        <rect id="Rectangle-Copy" fill="#444444" opacity="0" x="0" y="0" width="32" height="32"></rect>
        <g id="image-4" transform="translate(0.000000, 3.000000)" fill="#888888" fill-rule="nonzero">
            <path d="M26,10.2 C26,10.1 26,10.1 26,10.1 C26,4.6 21.5,0.1 16,0.1 C10.5,1.11022302e-16 6,4.5 6,10 C6,10.1 6,10.1 6,10.1 C2.6,10.8 0,13.8 0,17.5 C0,21.5 3.1,24.7 7,25 L25,25 C28.9,24.7 32,21.5 32,17.5 C32,13.9 29.4,10.8 26,10.2 Z M24.9,23 L24.6,23 L7.4,23 L7.1,23 C4.3,22.8 2,20.4 2,17.5 C2,14.9 3.9,12.6 6.4,12.1 L8,11.8 L8,10.1 C8,10.1 8,10 8,10 C8,5.6 11.6,2 16,2 C20.4,2 24,5.6 24,10 C24,10.1 24,10.1 24,10.2 L24,11.9 L25.6,12.2 C28.2,12.7 30,15 30,17.6 C30,20.4 27.7,22.8 24.9,23 Z M13.8,10 C13.7,9.9 13.6,9.9 13.5,9.9 C13.2,9.9 13,10.1 13,10.4 L13,18.6 C13,18.9 13.2,19.1 13.5,19.1 C13.6,19.1 13.7,19.1 13.8,19 L20.3,14.9 C20.6,14.7 20.6,14.2 20.3,14 L13.8,10 Z M15,15.9 L15,13.1 L17.2,14.5 L15,15.9 Z" id="XMLID_62_"></path>
        </g>
    </g>
</svg>