<?xml version="1.0" encoding="utf-8"?>
<!-- Generator: Adobe Illustrator 22.0.0, SVG Export Plug-In . SVG Version: 6.00 Build 0)  -->
<svg version="1.1" id="图层_1" xmlns="http://www.w3.org/2000/svg" xmlns:xlink="http://www.w3.org/1999/xlink" x="0px" y="0px"
	 width="830px" height="344.369px" viewBox="0 0 830 344.369" style="enable-background:new 0 0 830 344.369;" xml:space="preserve"
	>
<rect x="40" y="1" style="fill:#CEE3FF;" width="443.957" height="342.826"/>
<g style="enable-background:new    ;">
	<path style="fill:#00A4FF;" d="M74.521,20.215c1.778,2.059,3.838,3.684,6.163,4.86l-0.546,0.967
		c-2.34-1.261-4.329-2.899-5.981-4.917c-1.527,1.905-3.544,3.544-6.037,4.945l-0.532-0.967c2.493-1.317,4.552-2.941,6.205-4.889
		H74.521z M78.583,33.06h-0.98v-0.841H70.71v0.841h-0.98v-5.646h8.853V33.06z M77.798,24.669v0.967h-7.284v-0.967H77.798z
		 M77.602,31.253v-2.886H70.71v2.886H77.602z"/>
	<path style="fill:#00A4FF;" d="M84.151,22.26v-1.919h1.008v1.919h1.863v0.967h-1.863v2.311h2.06v0.98h-2.115
		c-0.028,0.364-0.07,0.715-0.112,1.051c0.784,0.742,1.597,1.597,2.409,2.55l-0.56,0.868c-0.785-1.064-1.457-1.891-2.004-2.493
		c-0.406,1.975-1.176,3.516-2.325,4.622l-0.742-0.658c1.358-1.316,2.129-3.292,2.325-5.939h-2.143v-0.98h2.199v-2.311h-2.004V22.26
		H84.151z M91.14,22.918v2.479c-0.028,2.087-0.406,3.754-1.12,5.001c-0.701,1.148-1.85,2.059-3.418,2.717l-0.532-0.854
		c1.54-0.63,2.619-1.484,3.235-2.549c0.574-1.106,0.883-2.55,0.925-4.314v-2.479H91.14z M93.522,28.507h-0.967v-6.751h-3.74v6.751
		h-0.967v-7.689h5.674V28.507z M91.981,32.892c-0.729,0-1.079-0.393-1.079-1.163v-3.151h0.911v2.941c0,0.309,0.14,0.463,0.448,0.463
		h0.714c0.238,0,0.406-0.07,0.504-0.211c0.127-0.182,0.211-0.714,0.267-1.582l0.868,0.279c-0.084,1.149-0.252,1.85-0.476,2.102
		c-0.225,0.21-0.547,0.322-0.995,0.322H91.981z"/>
	<path style="fill:#00A4FF;" d="M96.988,22.989c-0.028,1.4-0.196,2.745-0.477,4.006l-0.826-0.238
		c0.294-1.204,0.462-2.479,0.504-3.824L96.988,22.989z M98.725,20.271v12.747h-1.022V20.271H98.725z M100.518,25.005
		c0.476-1.219,0.756-2.521,0.826-3.908l0.91,0.127c-0.027,0.588-0.084,1.148-0.168,1.681h2.003v-2.619h1.037v2.619h3.054v0.98
		h-3.054v3.376h2.844v0.994h-2.844v3.418h3.418v0.98h-8.461v-0.98h4.006v-3.418h-3.207v-0.994h3.207v-3.376h-2.185
		c-0.252,1.022-0.616,1.961-1.106,2.829l-0.757-0.672c0.154-0.309,0.294-0.603,0.42-0.883l-0.7,0.183
		c-0.21-0.854-0.477-1.682-0.798-2.466l0.742-0.238C100.013,23.325,100.28,24.109,100.518,25.005z"/>
	<path style="fill:#00A4FF;" d="M115.848,22.596c-0.378-0.742-0.84-1.442-1.4-2.101l1.009-0.364
		c0.532,0.672,1.008,1.499,1.456,2.465h5.352v1.009h-2.186c-0.687,2.213-1.723,4.076-3.096,5.561
		c1.485,1.261,3.348,2.298,5.589,3.124l-0.546,0.841c-2.325-0.869-4.23-1.947-5.743-3.25c-1.597,1.471-3.586,2.55-5.967,3.235
		l-0.533-0.882c2.354-0.631,4.287-1.625,5.8-2.998c-1.625-1.597-2.746-3.474-3.376-5.631h-2.157v-1.009H115.848z M116.283,28.536
		c1.247-1.358,2.157-2.998,2.745-4.931h-5.827C113.803,25.496,114.826,27.135,116.283,28.536z"/>
	<path style="fill:#00A4FF;" d="M127.775,20.58c-0.364,1.106-0.826,2.157-1.387,3.151v9.357h-0.994v-7.816
		c-0.448,0.616-0.938,1.204-1.471,1.765l-0.322-1.078c1.484-1.681,2.55-3.628,3.222-5.813L127.775,20.58z M130.17,21.196
		c-0.112,0.7-0.266,1.373-0.462,1.989h2.059v-2.914h1.009v2.914h3.222v0.98h-3.222v3.376h3.74v0.966h-3.74v4.511h-1.009v-4.511
		h-4.118v-0.966h4.118v-3.376h-2.381c-0.351,0.924-0.784,1.751-1.303,2.479l-0.645-0.841c0.854-1.289,1.429-2.872,1.737-4.734
		L130.17,21.196z"/>
</g>
<title>01合规性文件归档</title>
<g>
	<rect x="261.978" y="12.642" style="fill-opacity:0;" width="199.022" height="318"/>
	<path style="fill:none;stroke:#BABABA;stroke-dasharray:5;" d="M261.978,12.642H461v318H261.978V12.642"/>
</g>
<path style="fill:none;stroke:#888888;" d="M614.016,175.724"/>
<polygon style="fill:#888888;" points="609.957,179.783 615.37,175.724 609.957,171.664 "/>
<path style="fill:none;stroke:#FF0000;stroke-width:15;stroke-opacity:0;" d="M480.245,182.724"/>
<path style="fill:none;stroke:#888888;" d="M461.245,175.724h152.771"/>
<polygon style="fill:#888888;" points="609.957,179.783 615.37,175.724 609.957,171.664 "/>
<rect x="67.152" y="87.99" style="opacity:0.6;fill:#BBBBBB;enable-background:new    ;" width="170.529" height="157.804"/>
<rect x="65.347" y="86.185" style="fill:#FFFFFF;stroke:#E5E5E5;" width="170.529" height="157.804"/>
<line style="fill:none;stroke:#BABABA;" x1="83.391" y1="131.294" x2="217.833" y2="131.294"/>
<g style="enable-background:new    ;">
	<path style="fill:#444444;" d="M94.636,108.31l-0.847-0.239c0.43-1.327,0.657-2.729,0.708-4.195l0.847,0.076
		c-0.025,0.543-0.063,1.087-0.126,1.617h1.086v-2.628H97.2v2.628h1.074v0.885H97.2v3.02c0.404-0.152,0.809-0.316,1.2-0.493v0.859
		c-0.404,0.177-0.796,0.328-1.2,0.479v4.195h-0.897v-3.879c-0.72,0.24-1.465,0.455-2.224,0.645l-0.215-0.872
		c0.834-0.164,1.655-0.366,2.438-0.619v-3.335H95.09C94.964,107.084,94.812,107.704,94.636,108.31z M102.431,102.928v1.352h2.337
		v0.821h-2.337v1.491h2.893v0.859h-6.722v-0.859h2.918v-1.491h-2.224v-0.821h2.224v-1.352H102.431z M102.86,109.018v-0.935h0.935
		v0.935h1.415v0.859h-1.415v3.398c0,0.758-0.366,1.149-1.099,1.149h-1.491l-0.202-0.884c0.48,0.024,0.947,0.05,1.377,0.05
		c0.316,0,0.48-0.189,0.48-0.543v-3.171h-3.979v-0.859H102.86z M101.307,112.366l-0.72,0.506c-0.354-0.606-0.834-1.276-1.466-2.009
		l0.708-0.442C100.46,111.165,100.953,111.81,101.307,112.366z"/>
	<path style="fill:#444444;" d="M108.883,111.621c-0.48,1.1-1.023,2.047-1.655,2.855l-0.746-0.543
		c0.632-0.746,1.175-1.643,1.63-2.679L108.883,111.621z M112.471,102.954v1.226h4.902v0.859h-4.902v1.604h4.03v4.056h-8.364v-4.056
		h3.437v-3.689H112.471z M115.592,107.501h-6.544v2.351h6.544V107.501z M111.549,114.337l-0.91,0.202
		c-0.177-1.036-0.379-1.946-0.619-2.742l0.847-0.177C111.12,112.455,111.347,113.364,111.549,114.337z M114.493,114.312
		l-0.897,0.202c-0.252-1.074-0.568-2.021-0.948-2.843l0.859-0.177C113.886,112.353,114.215,113.301,114.493,114.312z
		 M117.942,114.008l-0.758,0.531c-0.442-0.859-1.049-1.795-1.819-2.83l0.732-0.468C116.906,112.303,117.512,113.225,117.942,114.008
		z"/>
</g>
<g>
	<rect x="281.294" y="28.674" style="opacity:0.6;fill:#BBBBBB;enable-background:new    ;" width="164.9" height="45.109"/>
	<rect x="279.489" y="26.87" style="fill:#FFFFFF;stroke:#E5E5E5;" width="164.9" height="45.109"/>
	<g style="enable-background:new    ;">
		<path style="fill:#444444;" d="M303.37,44.762c0.051-0.404,0.101-0.796,0.139-1.188l0.922,0.127
			c-0.038,0.366-0.076,0.72-0.126,1.061h4.902v0.872h-5.041c-0.063,0.366-0.139,0.721-0.215,1.049h3.639v7.378h1.87v0.847h-11.207
			V54.06h1.807v-7.378h2.957c0.076-0.354,0.151-0.708,0.215-1.049h-4.738v-0.872H303.37z M306.693,48.59v-1.099h-5.736v1.099
			H306.693z M306.693,50.397v-1.062h-5.736v1.062H306.693z M306.693,52.204V51.13h-5.736v1.074H306.693z M306.693,54.06v-1.111
			h-5.736v1.111H306.693z"/>
		<path style="fill:#444444;" d="M311.073,55.084l-0.189-0.871c0.329,0.037,0.632,0.062,0.935,0.062
			c0.328,0,0.493-0.189,0.493-0.543v-3.096c-0.48,0.202-0.96,0.379-1.44,0.544l-0.228-0.885c0.569-0.151,1.125-0.328,1.668-0.543
			v-2.855h-1.466v-0.859h1.466V43.65h0.91v2.388h1.048v0.859h-1.048v2.451c0.354-0.177,0.695-0.354,1.023-0.544v0.897l-1.023,0.53
			v3.728c0,0.745-0.367,1.124-1.086,1.124H311.073z M316,54.592v0.619h-0.833v-5.193c-0.152,0.076-0.291,0.165-0.442,0.24
			l-0.455-0.745c1.264-0.493,2.199-1.112,2.805-1.87h-2.375v-0.809h1.415c-0.177-0.379-0.379-0.732-0.606-1.062l0.758-0.29
			c0.227,0.379,0.429,0.834,0.619,1.352h0.96v-1.845c-0.897,0.051-1.87,0.089-2.906,0.089l-0.266-0.758
			c2.704,0,4.94-0.228,6.722-0.683l0.417,0.732c-0.91,0.253-1.946,0.43-3.133,0.544v1.92h0.985c0.291-0.505,0.543-1.049,0.758-1.63
			l0.783,0.278c-0.228,0.505-0.468,0.947-0.733,1.352h1.592v0.809h-2.59c0.682,0.683,1.667,1.289,2.931,1.794l-0.404,0.758
			c-1.314-0.631-2.388-1.49-3.196-2.552h-0.126v1.908h-0.834v-1.908h-0.114c-0.518,0.885-1.301,1.63-2.337,2.249h5.976v5.319h-0.834
			v-0.619H316z M316,50.637v1.251h1.883v-1.251H316z M316,52.608v1.213h1.883v-1.213H316z M320.536,51.888v-1.251h-1.87v1.251
			H320.536z M320.536,53.821v-1.213h-1.87v1.213H320.536z"/>
		<path style="fill:#444444;" d="M326.988,44.105c-0.707,1.402-1.844,2.641-3.411,3.714l-0.265-0.909
			c1.314-0.936,2.261-1.996,2.855-3.185L326.988,44.105z M327.583,46.985c-0.367,0.708-0.821,1.391-1.377,2.021v6.191h-0.897V49.93
			c-0.505,0.455-1.048,0.896-1.655,1.313l-0.266-0.909c1.542-1.087,2.666-2.325,3.374-3.728L327.583,46.985z M334.771,47.63v0.897
			h-2.047v5.42c0,0.796-0.417,1.2-1.251,1.2h-1.832l-0.189-0.897c0.594,0.038,1.162,0.063,1.706,0.063
			c0.43,0,0.644-0.202,0.644-0.594v-5.192h-3.979V47.63H334.771z M334.215,44.421v0.897h-6.051v-0.897H334.215z"/>
		<path style="fill:#444444;" d="M340.832,43.738v10.045h1.794V43.738h0.923v10.045h3.79v0.884h-11.194v-0.884h3.766V43.738H340.832
			z M339,51.888l-0.834,0.215c-0.454-2.021-1.023-3.967-1.705-5.837l0.771-0.253C337.889,47.719,338.482,49.677,339,51.888z
			 M346.998,46.266c-0.506,2.198-1.138,4.119-1.908,5.773l-0.821-0.29c0.733-1.491,1.377-3.398,1.921-5.711L346.998,46.266z"/>
		<path style="fill:#444444;" d="M354.852,47.15h-1.023c-0.202-1.036-0.82-1.542-1.869-1.542c-0.708,0-1.264,0.342-1.668,1.049
			c-0.404,0.657-0.594,1.504-0.594,2.527c0,0.05,0,0.164,0.013,0.328h0.051c0.227-0.468,0.543-0.834,0.973-1.087
			c0.404-0.265,0.871-0.392,1.402-0.392c0.859,0,1.554,0.278,2.085,0.834c0.518,0.556,0.783,1.264,0.783,2.147
			c0,0.885-0.291,1.63-0.859,2.212c-0.581,0.581-1.302,0.884-2.186,0.884c-1.1,0-1.921-0.417-2.477-1.226
			c-0.53-0.771-0.783-1.845-0.783-3.222c0-1.44,0.277-2.615,0.847-3.513c0.594-0.947,1.402-1.414,2.426-1.414
			C353.639,44.737,354.6,45.533,354.852,47.15z M350.455,49.5c-0.392,0.404-0.581,0.909-0.581,1.541s0.177,1.15,0.556,1.555
			c0.379,0.429,0.872,0.644,1.504,0.644c0.606,0,1.099-0.215,1.479-0.619c0.379-0.429,0.568-0.96,0.568-1.604
			c0-0.644-0.189-1.149-0.557-1.528c-0.379-0.404-0.871-0.594-1.49-0.594C351.34,48.893,350.847,49.096,350.455,49.5z"/>
		<path style="fill:#444444;" d="M361.861,46.164c0.48,0.809,0.721,1.896,0.721,3.26c0,1.365-0.24,2.451-0.721,3.26
			c-0.556,0.948-1.364,1.428-2.438,1.428c-1.086,0-1.895-0.479-2.438-1.428c-0.479-0.809-0.72-1.895-0.72-3.26
			c0-1.364,0.24-2.451,0.72-3.26c0.544-0.96,1.353-1.427,2.438-1.427C360.497,44.737,361.306,45.204,361.861,46.164z M357.68,46.923
			c-0.253,0.606-0.379,1.44-0.379,2.501c0,1.049,0.126,1.883,0.379,2.502c0.354,0.859,0.935,1.302,1.743,1.302
			s1.39-0.442,1.744-1.302c0.252-0.619,0.392-1.453,0.392-2.502c0-1.061-0.14-1.895-0.392-2.501
			c-0.354-0.872-0.936-1.302-1.744-1.302S358.033,46.051,357.68,46.923z"/>
		<path style="fill:#444444;" d="M368.795,48.085c0.152-0.859,0.253-1.832,0.316-2.906h-4.574v-0.884h9.981v0.884h-4.485
			c-0.075,1.087-0.177,2.047-0.328,2.906h5.18v0.872h-4.649c0.885,2.4,2.565,4.258,5.041,5.546l-0.568,0.733
			c-2.603-1.415-4.346-3.425-5.243-6.027c-0.215,0.859-0.48,1.593-0.809,2.174c-0.859,1.49-2.287,2.779-4.309,3.854l-0.568-0.746
			c1.883-0.96,3.222-2.109,4.018-3.449c0.329-0.556,0.594-1.251,0.809-2.084h-4.396v-0.872H368.795z"/>
		<path style="fill:#444444;" d="M376.65,51.471l-0.278-0.947c1.693-1.453,2.83-2.868,3.399-4.258h-3.108v-0.872h1.971
			c-0.215-0.568-0.468-1.111-0.758-1.643l0.872-0.252c0.303,0.631,0.543,1.226,0.72,1.756l-0.366,0.139h1.579v0.771
			c-0.328,0.923-0.834,1.832-1.516,2.729c0.694,0.43,1.326,0.922,1.882,1.466l-0.518,0.783c-0.455-0.506-0.923-0.936-1.377-1.289
			v5.345h-0.897v-5.243C377.774,50.46,377.231,50.966,376.65,51.471z M384.711,45.887V48.3c-0.051,1.895-0.379,3.398-0.985,4.523
			c-0.606,1.048-1.579,1.869-2.943,2.45l-0.493-0.796c1.326-0.581,2.249-1.339,2.767-2.299c0.48-0.985,0.746-2.287,0.771-3.879
			v-2.413H384.711z M386.985,51.104h-0.923v-6.115h-3.55v6.115h-0.897v-6.986h5.37V51.104z M385.507,54.996
			c-0.694,0-1.036-0.366-1.036-1.1v-2.817h0.885v2.628c0,0.304,0.139,0.455,0.417,0.455h0.783c0.189,0,0.315-0.076,0.392-0.202
			c0.102-0.164,0.177-0.645,0.215-1.428l0.847,0.266c-0.076,1.035-0.215,1.68-0.417,1.907c-0.189,0.189-0.48,0.291-0.872,0.291
			H385.507z"/>
		<path style="fill:#444444;" d="M392.489,43.612v1.491h1.719v0.858h-1.719v1.466h1.87v0.885h-5.332v-0.885h0.733v-2.792h0.871
			v2.792h0.974v-3.815H392.489z M390.872,49.74c-0.303,1.188-0.683,2.097-1.162,2.729l-0.67-0.581
			c0.455-0.619,0.809-1.44,1.036-2.464L390.872,49.74z M394.485,49.551c-0.556,2.817-2.173,4.675-4.852,5.559l-0.518-0.821
			c2.539-0.783,4.068-2.426,4.573-4.914L394.485,49.551z M392.451,48.805v3.298h-0.871v-3.298H392.451z M397.935,47.972v2.235
			c-0.025,1.353-0.315,2.426-0.847,3.234c-0.518,0.746-1.364,1.327-2.552,1.744l-0.505-0.783c1.124-0.404,1.907-0.923,2.35-1.555
			c0.417-0.682,0.645-1.554,0.67-2.641v-2.235H397.935z M400.5,44.118v0.858h-2.527c-0.038,0.48-0.089,0.936-0.151,1.39h2.224v6.002
			h-0.885v-5.155h-3.272v5.155h-0.871v-6.002h1.856c0.076-0.454,0.127-0.909,0.165-1.39h-2.477v-0.858H400.5z M400.639,54.566
			l-0.67,0.67c-0.518-0.695-1.226-1.44-2.122-2.224l0.606-0.582C399.312,53.151,400.045,53.858,400.639,54.566z"/>
		<path style="fill:#444444;" d="M402.164,51.294l-0.519-0.632c0.771-0.732,1.415-1.705,1.921-2.894l0.732,0.165
			c-0.126,0.328-0.277,0.644-0.43,0.947h1.794c-0.126-0.328-0.265-0.632-0.404-0.909l0.872-0.14c0.127,0.316,0.253,0.67,0.379,1.049
			h1.971v0.732h-2.135v0.885h1.819v0.657h-1.819v0.859h1.819v0.644h-1.819v0.91h2.009v0.543c0.568-0.43,1.074-0.96,1.517-1.617
			c-0.202-0.581-0.392-1.264-0.544-2.021c-0.177-0.847-0.303-1.857-0.379-3.02h-7.138v-0.821h3.184v-1.188h-2.527v-0.809h2.527
			v-0.998h0.884v0.998h2.287v0.809h-2.287v1.188h3.02c-0.05-0.935-0.062-1.933-0.062-3.007h0.871c0,1.112,0.025,2.122,0.076,3.007
			h3.26v0.821h-3.209c0.063,1.137,0.164,2.06,0.303,2.792c0.089,0.468,0.189,0.885,0.291,1.264c0.468-0.973,0.847-2.11,1.124-3.424
			l0.783,0.341c-0.379,1.706-0.896,3.108-1.554,4.22c0.076,0.202,0.164,0.392,0.24,0.557c0.315,0.619,0.568,0.935,0.758,0.935
			c0.202-0.013,0.379-0.657,0.544-1.921l0.771,0.417c-0.278,1.655-0.67,2.489-1.175,2.489c-0.43,0-0.885-0.392-1.365-1.149
			c-0.113-0.177-0.215-0.354-0.29-0.544c-0.531,0.708-1.125,1.251-1.782,1.63l-0.479-0.707l0.075-0.051h-4.346v0.606h-0.809v-4.485
			C402.682,50.726,402.429,51.016,402.164,51.294z M405.537,49.613h-1.807v0.885h1.807V49.613z M405.537,51.155h-1.807v0.859h1.807
			V51.155z M405.537,53.568v-0.91h-1.807v0.91H405.537z M412.31,45.646l-0.67,0.48c-0.329-0.557-0.783-1.176-1.352-1.857
			l0.669-0.417C411.538,44.534,411.993,45.129,412.31,45.646z"/>
		<path style="fill:#444444;" d="M425.205,55.198h-0.884V54.68h-8.541v0.519h-0.885v-11.03h10.31V55.198z M424.321,53.871v-8.895
			h-8.541v8.895H424.321z M419.646,45.355c-0.102,0.24-0.202,0.468-0.329,0.695h3.336v0.632c-0.354,0.67-0.885,1.264-1.604,1.769
			c0.847,0.404,1.807,0.745,2.893,0.998l-0.479,0.683c-1.226-0.329-2.274-0.733-3.159-1.226c-0.973,0.518-2.173,0.935-3.613,1.251
			l-0.404-0.733c1.302-0.228,2.4-0.556,3.285-0.973c-0.492-0.328-0.922-0.683-1.276-1.062c-0.379,0.354-0.809,0.683-1.288,0.986
			l-0.506-0.657c1.15-0.683,1.934-1.504,2.338-2.464L419.646,45.355z M422.641,52.81l-0.304,0.732
			c-1.566-0.606-3.196-1.074-4.889-1.402l0.354-0.683C419.482,51.774,421.1,52.228,422.641,52.81z M421.832,50.877l-0.43,0.657
			c-0.872-0.531-1.769-0.936-2.704-1.238l0.417-0.606C420.102,50.018,421.011,50.422,421.832,50.877z M421.743,46.733h-2.867
			c-0.051,0.05-0.089,0.101-0.114,0.151c0.442,0.43,0.96,0.821,1.541,1.175C420.922,47.681,421.402,47.238,421.743,46.733z"/>
	</g>
</g>
<g>
	<rect x="281.294" y="89.413" style="opacity:0.6;fill:#BBBBBB;enable-background:new    ;" width="164.9" height="45.109"/>
	<rect x="279.489" y="87.609" style="fill:#FFFFFF;stroke:#E5E5E5;" width="164.9" height="45.109"/>
	<g style="enable-background:new    ;">
		<path style="fill:#444444;" d="M308.942,104.794v0.859h-9.122v8.97h9.526v0.885h-10.398v-10.714H308.942z M301.349,109.494
			l-0.682-0.619c0.847-0.759,1.465-1.693,1.87-2.805l0.834,0.227c-0.126,0.354-0.252,0.683-0.392,0.986h5.041v0.833h-2.742v0.708
			c-0.012,0.379-0.038,0.732-0.088,1.062h3.576v0.858H305c-0.177,0.606-0.442,1.125-0.771,1.58
			c-0.632,0.796-1.668,1.428-3.121,1.882l-0.493-0.771c1.402-0.43,2.388-1.011,2.956-1.718c0.202-0.304,0.379-0.619,0.505-0.974
			h-3.411v-0.858h3.626c0.051-0.342,0.088-0.695,0.101-1.062v-0.708h-1.87C302.17,108.66,301.778,109.115,301.349,109.494z
			 M308.778,113.423l-0.505,0.758c-1.087-0.909-2.211-1.617-3.361-2.147l0.455-0.67C306.604,111.92,307.742,112.614,308.778,113.423
			z"/>
		<path style="fill:#444444;" d="M312.817,109.469v-4.094h4.295c-0.139-0.366-0.291-0.707-0.455-1.011l0.935-0.164
			c0.139,0.354,0.278,0.745,0.404,1.175h3.904v0.897h-8.174v3.196c-0.051,2.666-0.619,4.801-1.681,6.405l-0.682-0.606
			c0.733-1.111,1.188-2.564,1.365-4.358c-0.556,0.479-1.188,0.935-1.87,1.364l-0.265-0.885c0.809-0.442,1.542-0.947,2.211-1.503
			C312.804,109.733,312.817,109.595,312.817,109.469z M312.577,108.888l-0.733,0.315c-0.341-0.922-0.708-1.73-1.112-2.413
			l0.746-0.291C311.907,107.258,312.273,108.054,312.577,108.888z M321.357,107.56v0.859c-0.783,0.745-1.68,1.453-2.691,2.135v4.157
			c0,0.809-0.417,1.213-1.238,1.213h-1.529l-0.215-0.809c0.43,0.013,0.885,0.025,1.39,0.025c0.455,0,0.695-0.24,0.695-0.708v-4.333
			c0.821-0.468,1.604-1.023,2.362-1.681h-5.42v-0.859H321.357z"/>
		<path style="fill:#444444;" d="M326.988,104.845c-0.707,1.402-1.844,2.641-3.411,3.714l-0.265-0.909
			c1.314-0.936,2.261-1.996,2.855-3.185L326.988,104.845z M327.583,107.725c-0.367,0.708-0.821,1.391-1.377,2.021v6.191h-0.897
			v-5.269c-0.505,0.455-1.048,0.896-1.655,1.313l-0.266-0.909c1.542-1.087,2.666-2.325,3.374-3.728L327.583,107.725z
			 M334.771,108.369v0.897h-2.047v5.42c0,0.796-0.417,1.2-1.251,1.2h-1.832l-0.189-0.897c0.594,0.038,1.162,0.063,1.706,0.063
			c0.43,0,0.644-0.202,0.644-0.594v-5.192h-3.979v-0.897H334.771z M334.215,105.16v0.897h-6.051v-0.897H334.215z"/>
		<path style="fill:#444444;" d="M340.832,104.477v10.045h1.794v-10.045h0.923v10.045h3.79v0.884h-11.194v-0.884h3.766v-10.045
			H340.832z M339,112.627l-0.834,0.215c-0.454-2.021-1.023-3.967-1.705-5.837l0.771-0.253
			C337.889,108.458,338.482,110.416,339,112.627z M346.998,107.005c-0.506,2.198-1.138,4.119-1.908,5.773l-0.821-0.29
			c0.733-1.491,1.377-3.398,1.921-5.711L346.998,107.005z"/>
		<path style="fill:#444444;" d="M352.615,105.653v9.021h-1.035v-7.758c-0.569,0.582-1.276,0.986-2.123,1.238v-1.036
			c0.417-0.113,0.834-0.303,1.264-0.556c0.43-0.266,0.783-0.568,1.086-0.909H352.615z"/>
		<path style="fill:#444444;" d="M362.203,105.653v0.922h-4.397l-0.303,3.02h0.05c0.253-0.303,0.582-0.53,0.974-0.683
			c0.354-0.151,0.732-0.214,1.149-0.214c0.859,0,1.554,0.265,2.085,0.809c0.53,0.556,0.809,1.313,0.809,2.286
			c0,0.91-0.329,1.655-0.974,2.236c-0.605,0.543-1.364,0.821-2.248,0.821c-0.796,0-1.479-0.215-2.034-0.645
			c-0.632-0.479-0.974-1.137-1.036-1.958h1.023c0.051,0.568,0.277,1.011,0.682,1.314c0.354,0.265,0.821,0.404,1.378,0.404
			c0.631,0,1.149-0.203,1.566-0.607c0.404-0.404,0.619-0.922,0.619-1.554c0-0.72-0.202-1.276-0.581-1.668
			c-0.367-0.404-0.885-0.594-1.542-0.594c-0.43,0-0.809,0.089-1.149,0.278c-0.354,0.177-0.632,0.455-0.809,0.809h-0.985l0.479-4.978
			H362.203z"/>
		<path style="fill:#444444;" d="M364.398,108.9l-0.606-0.759c1.276-0.96,2.136-2.261,2.577-3.903l0.948,0.177
			c-0.14,0.479-0.304,0.922-0.48,1.352h7.846v0.885h-3.967v2.021h3.524v0.871h-3.524v2.729h4.371v0.885h-4.371v2.817h-0.923v-2.817
			h-5.837v-0.885h2.085v-3.601h3.752v-2.021h-3.398C365.864,107.548,365.207,108.294,364.398,108.9z M369.793,112.273v-2.729h-2.842
			v2.729H369.793z"/>
		<path style="fill:#444444;" d="M378.546,112.437c-0.304,1.125-0.721,2.098-1.251,2.906l-0.783-0.493
			c0.53-0.783,0.909-1.643,1.137-2.603L378.546,112.437z M381.691,105.084v-0.796h0.935v0.796h3.904v2.451h-3.904v0.847h4.258v2.679
			h-4.258v0.732h-0.935v-0.732h-4.245v-2.679h4.245v-0.847h-3.879v-2.451H381.691z M381.691,109.14h-3.36v1.138h3.36V109.14z
			 M381.691,105.817h-3.007v0.998h3.007V105.817z M380.744,115.773c-0.834,0-1.251-0.43-1.251-1.289v-2.287h0.935v2.098
			c0,0.404,0.189,0.619,0.594,0.619h2.729c0.278,0,0.468-0.063,0.594-0.177c0.151-0.14,0.266-0.557,0.315-1.251l0.859,0.277
			c-0.088,0.948-0.266,1.529-0.53,1.744c-0.228,0.177-0.581,0.266-1.074,0.266H380.744z M383.549,113.688l-0.758,0.53
			c-0.329-0.492-0.771-1.049-1.34-1.655l0.771-0.467C382.804,112.703,383.245,113.233,383.549,113.688z M385.658,105.817h-3.032
			v0.998h3.032V105.817z M386,109.14h-3.374v1.138H386V109.14z M387.869,114.686l-0.758,0.518c-0.455-0.809-1.073-1.692-1.857-2.653
			l0.771-0.479C386.834,113.057,387.44,113.929,387.869,114.686z"/>
		<path style="fill:#444444;" d="M393.778,105.666v-1.34h0.935v1.34h2.981v0.846h-2.981v1.504h1.592
			c1.188-0.847,2.236-1.807,3.134-2.868l0.694,0.506c-0.745,0.884-1.541,1.68-2.388,2.362h2.704v0.859h-3.854
			c-0.189,0.126-0.379,0.24-0.568,0.366c-0.582,0.354-1.251,0.694-1.984,1.036h4.776v5.686h-0.91v-0.569h-5.471v0.569h-0.922v-4.649
			c-0.683,0.252-1.39,0.492-2.123,0.732l-0.379-0.847c2.161-0.505,4.132-1.288,5.926-2.324h-5.749v-0.859h4.587v-1.504h-3.462
			v-0.846H393.778z M397.909,111.073h-5.471v1.326h5.471V111.073z M392.438,114.585h5.471v-1.377h-5.471V114.585z"/>
		<path style="fill:#444444;" d="M403.743,109.443v-4.119h4.232c-0.139-0.341-0.291-0.656-0.455-0.947l0.923-0.151
			c0.151,0.328,0.303,0.694,0.454,1.099h4.03v0.859h-8.3v3.26c-0.051,2.666-0.595,4.801-1.63,6.405l-0.683-0.594
			c0.745-1.137,1.2-2.641,1.352-4.498c-0.53,0.442-1.124,0.859-1.781,1.238l-0.253-0.871c0.771-0.392,1.466-0.847,2.098-1.353
			C403.73,109.658,403.743,109.544,403.743,109.443z M403.516,108.711l-0.783,0.315c-0.328-0.91-0.695-1.719-1.1-2.4l0.783-0.329
			C402.846,107.056,403.213,107.851,403.516,108.711z M407.293,113.978l-0.543-0.656c0.821-0.632,1.364-1.428,1.643-2.389
			l0.113-0.492h-2.186v5.458h-0.859v-6.292h3.159c0.051-0.417,0.075-0.859,0.088-1.339h-3.575v-0.834h7.707v0.834h-3.298
			c-0.013,0.479-0.038,0.922-0.075,1.339h3.02v4.978c0,0.821-0.379,1.238-1.125,1.238h-1.301l-0.228-0.858l1.226,0.037
			c0.379,0,0.568-0.202,0.568-0.606v-3.954h-2.274c-0.051,0.215-0.088,0.43-0.126,0.632c0.707,0.568,1.364,1.226,1.958,1.983
			l-0.492,0.758c-0.569-0.821-1.138-1.49-1.693-2.009C408.646,112.665,408.076,113.397,407.293,113.978z"/>
		<path style="fill:#444444;" d="M414.466,110.454l-0.303-0.96c1.111-1.517,1.92-3.247,2.426-5.206l0.859,0.392
			c-0.278,0.998-0.645,1.934-1.074,2.818v8.465h-0.91v-6.873C415.148,109.569,414.82,110.024,414.466,110.454z M421.87,105.084
			v0.872h-2.3c-0.063,0.632-0.151,1.226-0.266,1.794h2.325v0.783c-0.455,3.5-1.731,5.951-3.803,7.366l-0.455-0.809
			c1.011-0.695,1.807-1.668,2.388-2.906c-0.53-0.518-1.062-0.935-1.579-1.263c-0.253,0.441-0.518,0.846-0.809,1.213l-0.455-0.885
			c0.985-1.289,1.579-3.058,1.781-5.294h-0.985v-0.872H421.87z M420.113,111.326c0.304-0.834,0.519-1.757,0.67-2.742h-1.681
			c-0.151,0.568-0.341,1.1-0.556,1.592C419.103,110.505,419.621,110.896,420.113,111.326z M423.247,105.552v7.833h-0.834v-7.833
			H423.247z M422.779,115.849l-0.202-0.872c0.455,0.038,0.872,0.063,1.276,0.063c0.366,0,0.556-0.189,0.556-0.568V104.39h0.91v10.31
			c0,0.758-0.392,1.149-1.15,1.149H422.779z"/>
	</g>
</g>
<g>
	<rect x="281.294" y="150.152" style="opacity:0.6;fill:#BBBBBB;enable-background:new    ;" width="164.9" height="45.109"/>
	<rect x="279.489" y="148.348" style="fill:#FFFFFF;stroke:#E5E5E5;" width="164.9" height="45.109"/>
	<g style="enable-background:new    ;">
		<path style="fill:#444444;" d="M301.652,165.407c-0.303,0.935-0.682,1.807-1.125,2.64v8.655h-0.922v-7.164
			c-0.43,0.594-0.885,1.162-1.377,1.693l-0.303-0.973c1.314-1.517,2.274-3.272,2.868-5.244L301.652,165.407z M308.361,165.659v3.98
			h-2.54v1.377h3.639v0.884h-2.742c0.72,1.276,1.706,2.376,2.957,3.298l-0.581,0.796c-1.251-1.099-2.287-2.464-3.108-4.094h-0.164
			v4.776h-0.91V171.9h-0.152c-0.846,1.757-1.908,3.121-3.196,4.106l-0.505-0.821c1.213-0.834,2.211-1.92,2.969-3.285h-2.628v-0.884
			h3.512v-1.377h-2.514v-3.98H308.361z M307.464,166.531h-4.169v2.236h4.169V166.531z"/>
		<path style="fill:#444444;" d="M314.977,165.634v0.695c-0.379,1.137-0.821,2.337-1.327,3.575c0.784,1.125,1.201,2.148,1.264,3.058
			c0,0.519-0.126,0.897-0.379,1.137c-0.354,0.278-0.948,0.43-1.794,0.442l-0.291-0.909c0.189,0.025,0.354,0.051,0.48,0.051
			c0.429-0.025,0.732-0.089,0.884-0.189c0.139-0.102,0.215-0.278,0.215-0.531c0-0.872-0.43-1.845-1.276-2.918
			c0.569-1.314,1.011-2.515,1.327-3.576h-1.958v10.222h-0.885v-11.056H314.977z M314.952,170.132l-0.455-0.72
			c1.516-1.1,2.691-2.527,3.512-4.271h0.821c0.682,1.617,1.883,3.02,3.588,4.232l-0.493,0.758c-0.569-0.404-1.074-0.821-1.516-1.276
			v0.733h-3.942v-0.758C315.988,169.323,315.482,169.753,314.952,170.132z M319.083,175.362c0.594-1.364,1.112-3.032,1.542-5.003
			l0.884,0.24c-0.417,1.794-0.922,3.373-1.516,4.763h2.147v0.872h-7.492v-0.872H319.083z M317.289,174.453l-0.796,0.202
			c-0.303-1.238-0.695-2.438-1.162-3.576l0.783-0.265C316.544,171.876,316.936,173.089,317.289,174.453z M318.414,166.038
			c-0.556,1.062-1.175,1.959-1.87,2.717h3.765C319.513,167.934,318.881,167.024,318.414,166.038z M319.096,173.847l-0.784,0.202
			c-0.252-1.213-0.581-2.363-0.973-3.475l0.783-0.253C318.49,171.345,318.818,172.519,319.096,173.847z"/>
		<path style="fill:#444444;" d="M326.988,165.584c-0.707,1.402-1.844,2.641-3.411,3.714l-0.265-0.909
			c1.314-0.936,2.261-1.996,2.855-3.185L326.988,165.584z M327.583,168.464c-0.367,0.708-0.821,1.391-1.377,2.021v6.191h-0.897
			v-5.269c-0.505,0.455-1.048,0.896-1.655,1.313l-0.266-0.909c1.542-1.087,2.666-2.325,3.374-3.728L327.583,168.464z
			 M334.771,169.108v0.897h-2.047v5.42c0,0.796-0.417,1.2-1.251,1.2h-1.832l-0.189-0.897c0.594,0.038,1.162,0.063,1.706,0.063
			c0.43,0,0.644-0.202,0.644-0.594v-5.192h-3.979v-0.897H334.771z M334.215,165.899v0.897h-6.051v-0.897H334.215z"/>
		<path style="fill:#444444;" d="M340.832,165.217v10.045h1.794v-10.045h0.923v10.045h3.79v0.884h-11.194v-0.884h3.766v-10.045
			H340.832z M339,173.366l-0.834,0.215c-0.454-2.021-1.023-3.967-1.705-5.837l0.771-0.253
			C337.889,169.197,338.482,171.155,339,173.366z M346.998,167.744c-0.506,2.198-1.138,4.119-1.908,5.773l-0.821-0.29
			c0.733-1.491,1.377-3.398,1.921-5.711L346.998,167.744z"/>
		<path style="fill:#444444;" d="M352.615,166.393v9.021h-1.035v-7.758c-0.569,0.582-1.276,0.986-2.123,1.238v-1.036
			c0.417-0.113,0.834-0.303,1.264-0.556c0.43-0.266,0.783-0.568,1.086-0.909H352.615z"/>
		<path style="fill:#444444;" d="M361.861,167.643c0.48,0.809,0.721,1.896,0.721,3.26c0,1.365-0.24,2.451-0.721,3.26
			c-0.556,0.948-1.364,1.428-2.438,1.428c-1.086,0-1.895-0.479-2.438-1.428c-0.479-0.809-0.72-1.895-0.72-3.26
			c0-1.364,0.24-2.451,0.72-3.26c0.544-0.96,1.353-1.427,2.438-1.427C360.497,166.216,361.306,166.683,361.861,167.643z
			 M357.68,168.401c-0.253,0.606-0.379,1.44-0.379,2.501c0,1.049,0.126,1.883,0.379,2.502c0.354,0.859,0.935,1.302,1.743,1.302
			s1.39-0.442,1.744-1.302c0.252-0.619,0.392-1.453,0.392-2.502c0-1.061-0.14-1.895-0.392-2.501
			c-0.354-0.872-0.936-1.302-1.744-1.302S358.033,167.529,357.68,168.401z"/>
		<path style="fill:#444444;" d="M364.398,169.64l-0.606-0.759c1.276-0.96,2.136-2.261,2.577-3.903l0.948,0.177
			c-0.14,0.479-0.304,0.922-0.48,1.352h7.846v0.885h-3.967v2.021h3.524v0.871h-3.524v2.729h4.371v0.885h-4.371v2.817h-0.923v-2.817
			h-5.837v-0.885h2.085v-3.601h3.752v-2.021h-3.398C365.864,168.287,365.207,169.033,364.398,169.64z M369.793,173.013v-2.729
			h-2.842v2.729H369.793z"/>
		<path style="fill:#444444;" d="M382.487,165.078c1.604,1.857,3.462,3.323,5.56,4.384l-0.493,0.872
			c-2.11-1.137-3.904-2.615-5.395-4.435c-1.377,1.719-3.196,3.196-5.445,4.46l-0.48-0.872c2.249-1.188,4.106-2.653,5.597-4.409
			H382.487z M386.151,176.664h-0.885v-0.758h-6.216v0.758h-0.885v-5.092h7.985V176.664z M385.443,169.096v0.872h-6.569v-0.872
			H385.443z M385.267,175.034v-2.603h-6.216v2.603H385.267z"/>
		<path style="fill:#444444;" d="M397.075,176.626l-0.252-0.91l1.643,0.038c0.315,0,0.479-0.189,0.479-0.568v-8.718h-8.313v10.196
			h-0.909v-11.08h10.133v9.804c0,0.821-0.367,1.238-1.1,1.238H397.075z M398.036,167.921v0.847h-6.481v-0.847H398.036z
			 M397.328,170.132v4.068h-5.066v-4.068H397.328z M396.444,170.953h-3.298v2.438h3.298V170.953z"/>
		<path style="fill:#444444;" d="M404.463,176.626h-0.922v-6.33c-0.417,1.213-0.947,2.3-1.604,3.285l-0.392-0.985
			c0.935-1.213,1.592-2.603,1.983-4.157h-1.706v-0.871h1.719v-2.464h0.922v2.464h1.504v0.871h-1.504v0.733
			c0.582,0.619,1.163,1.326,1.757,2.109l-0.519,0.759c-0.479-0.771-0.884-1.39-1.238-1.857V176.626z M409.138,169.475v-4.384h0.923
			v4.384h2.603v7.202h-0.91v-0.531h-5.66v-0.884h5.66v-2.047h-5.116v-0.859h5.116v-1.996h-5.433v-0.885H409.138z M408.241,168.414
			l-0.783,0.392c-0.404-0.973-0.847-1.832-1.302-2.59l0.796-0.393C407.407,166.607,407.837,167.478,408.241,168.414z
			 M413.017,166.114c-0.354,0.935-0.809,1.832-1.364,2.717l-0.783-0.404c0.556-0.91,1.011-1.807,1.339-2.691L413.017,166.114z"/>
		<path style="fill:#444444;" d="M419.608,172.608v-0.985h0.935v0.985h4.928v0.809h-4.106c0.91,0.872,2.338,1.566,4.271,2.085
			l-0.392,0.796c-2.198-0.721-3.765-1.668-4.7-2.83v3.184h-0.935v-3.222c-0.809,1.137-2.35,2.122-4.624,2.956l-0.506-0.809
			c2.098-0.632,3.538-1.352,4.321-2.16h-4.157v-0.809H419.608z M420.013,167.352c-0.228,0.303-0.442,0.581-0.645,0.847h5.724v0.732
			h-2.123c-0.454,0.594-0.935,1.074-1.453,1.453c1.112,0.278,2.262,0.619,3.438,1.011l-0.531,0.694
			c-1.264-0.454-2.539-0.846-3.815-1.188c-1.326,0.619-3.058,0.948-5.205,0.974l-0.493-0.746c1.921,0,3.437-0.177,4.549-0.53
			c-0.885-0.228-1.757-0.417-2.628-0.581c0.328-0.379,0.644-0.733,0.947-1.087h-2.741v-0.732h3.335
			c0.291-0.366,0.568-0.733,0.821-1.087L420.013,167.352z M425.143,167.87h-0.872v-1.023h-8.439v1.036h-0.872v-1.794h4.688
			c-0.177-0.303-0.354-0.594-0.557-0.859l0.885-0.151c0.189,0.304,0.379,0.645,0.556,1.011h4.612V167.87z M421.996,168.932h-3.209
			c-0.228,0.266-0.442,0.506-0.632,0.708c0.771,0.126,1.554,0.29,2.351,0.492C421.111,169.778,421.617,169.387,421.996,168.932z"/>
	</g>
</g>
<g>
	<rect x="281.294" y="210.891" style="opacity:0.6;fill:#BBBBBB;enable-background:new    ;" width="164.9" height="45.109"/>
	<rect x="279.489" y="209.087" style="fill:#FFFFFF;stroke:#E5E5E5;" width="164.9" height="45.109"/>
	<g style="enable-background:new    ;">
		<path style="fill:#444444;" d="M298.645,230.454l-0.531-0.758c2.198-0.985,3.993-2.236,5.382-3.765h0.733
			c1.213,1.503,2.994,2.741,5.344,3.727l-0.518,0.758c-0.669-0.277-1.289-0.594-1.87-0.935v0.695h-2.868v1.819h4.498v0.846h-4.498
			v3.374h1.402c0.43-0.821,0.809-1.706,1.137-2.653l0.834,0.29c-0.316,0.885-0.67,1.681-1.049,2.363h2.615v0.871h-10.802v-0.871
			h2.615c-0.265-0.809-0.606-1.555-1.011-2.262l0.821-0.304c0.392,0.708,0.746,1.567,1.074,2.565h1.453v-3.374h-4.511v-0.846h4.511
			v-1.819h-2.868v-0.733C299.934,229.81,299.302,230.151,298.645,230.454z M303.863,226.79c-0.947,0.985-2.009,1.845-3.184,2.565
			h6.292C305.733,228.622,304.697,227.764,303.863,226.79z"/>
		<path style="fill:#444444;" d="M316.873,226.336v0.82h-6.001v-0.82H316.873z M314.813,237.327l-0.228-0.809l0.884,0.038
			c0.24,0,0.367-0.102,0.367-0.303v-4.056h-3.955v5.218h-0.796v-5.977h5.546v4.991c0,0.594-0.303,0.896-0.884,0.896H314.813z
			 M316.127,227.965v2.717h-4.536v-2.717H316.127z M313.979,234.282c0.228-0.53,0.43-1.099,0.606-1.692l0.632,0.215
			c-0.177,0.556-0.366,1.048-0.568,1.478h0.758v0.708h-1.213v2.273h-0.733v-2.273h-1.149v-0.708H313.979z M315.318,228.673H312.4
			v1.289h2.918V228.673z M313.625,234.067l-0.582,0.152c-0.151-0.468-0.354-0.91-0.594-1.34l0.594-0.189
			C313.271,233.082,313.461,233.537,313.625,234.067z M319.02,228.054v-2.173h0.847v2.173h1.832v5.054h-1.832v2.817
			c0.417-0.088,0.821-0.177,1.213-0.266c-0.152-0.53-0.303-1.035-0.48-1.528l0.708-0.228c0.354,0.935,0.669,1.996,0.947,3.209
			l-0.783,0.189c-0.063-0.315-0.126-0.606-0.189-0.884c-1.263,0.315-2.603,0.581-4.018,0.783l-0.215-0.847
			c0.682-0.076,1.339-0.177,1.971-0.278v-2.969h-1.794v-5.054H319.02z M319.071,228.862h-1.062v3.437h1.062V228.862z
			 M320.916,228.862h-1.087v3.437h1.087V228.862z"/>
		<path style="fill:#444444;" d="M326.988,226.323c-0.707,1.402-1.844,2.641-3.411,3.714l-0.265-0.909
			c1.314-0.936,2.261-1.996,2.855-3.185L326.988,226.323z M327.583,229.203c-0.367,0.708-0.821,1.391-1.377,2.021v6.191h-0.897
			v-5.269c-0.505,0.455-1.048,0.896-1.655,1.313l-0.266-0.909c1.542-1.087,2.666-2.325,3.374-3.728L327.583,229.203z
			 M334.771,229.848v0.897h-2.047v5.42c0,0.796-0.417,1.2-1.251,1.2h-1.832l-0.189-0.897c0.594,0.038,1.162,0.063,1.706,0.063
			c0.43,0,0.644-0.202,0.644-0.594v-5.192h-3.979v-0.897H334.771z M334.215,226.639v0.897h-6.051v-0.897H334.215z"/>
		<path style="fill:#444444;" d="M340.832,225.956v10.045h1.794v-10.045h0.923v10.045h3.79v0.884h-11.194v-0.884h3.766v-10.045
			H340.832z M339,234.105l-0.834,0.215c-0.454-2.021-1.023-3.967-1.705-5.837l0.771-0.253
			C337.889,229.936,338.482,231.894,339,234.105z M346.998,228.483c-0.506,2.198-1.138,4.119-1.908,5.773l-0.821-0.29
			c0.733-1.491,1.377-3.398,1.921-5.711L346.998,228.483z"/>
		<path style="fill:#444444;" d="M352.615,227.132v9.021h-1.035v-7.758c-0.569,0.582-1.276,0.986-2.123,1.238v-1.036
			c0.417-0.113,0.834-0.303,1.264-0.556c0.43-0.266,0.783-0.568,1.086-0.909H352.615z"/>
		<path style="fill:#444444;" d="M361.861,228.382c0.48,0.809,0.721,1.896,0.721,3.26c0,1.365-0.24,2.451-0.721,3.26
			c-0.556,0.948-1.364,1.428-2.438,1.428c-1.086,0-1.895-0.479-2.438-1.428c-0.479-0.809-0.72-1.895-0.72-3.26
			c0-1.364,0.24-2.451,0.72-3.26c0.544-0.96,1.353-1.427,2.438-1.427C360.497,226.955,361.306,227.422,361.861,228.382z
			 M357.68,229.141c-0.253,0.606-0.379,1.44-0.379,2.501c0,1.049,0.126,1.883,0.379,2.502c0.354,0.859,0.935,1.302,1.743,1.302
			s1.39-0.442,1.744-1.302c0.252-0.619,0.392-1.453,0.392-2.502c0-1.061-0.14-1.895-0.392-2.501
			c-0.354-0.872-0.936-1.302-1.744-1.302S358.033,228.268,357.68,229.141z"/>
		<path style="fill:#444444;" d="M364.398,230.379l-0.606-0.759c1.276-0.96,2.136-2.261,2.577-3.903l0.948,0.177
			c-0.14,0.479-0.304,0.922-0.48,1.352h7.846v0.885h-3.967v2.021h3.524v0.871h-3.524v2.729h4.371v0.885h-4.371v2.817h-0.923v-2.817
			h-5.837v-0.885h2.085v-3.601h3.752v-2.021h-3.398C365.864,229.026,365.207,229.772,364.398,230.379z M369.793,233.752v-2.729
			h-2.842v2.729H369.793z"/>
		<path style="fill:#444444;" d="M381.881,227.965c-0.341-0.669-0.758-1.301-1.264-1.895l0.91-0.328
			c0.48,0.605,0.909,1.352,1.313,2.223h4.827v0.91h-1.972c-0.619,1.996-1.554,3.677-2.792,5.016c1.339,1.138,3.02,2.072,5.041,2.817
			l-0.492,0.759c-2.098-0.784-3.816-1.757-5.181-2.932c-1.44,1.326-3.234,2.3-5.382,2.919l-0.48-0.796
			c2.123-0.569,3.866-1.466,5.23-2.704c-1.465-1.44-2.476-3.134-3.045-5.079h-1.945v-0.91H381.881z M382.272,233.322
			c1.125-1.226,1.946-2.704,2.477-4.447h-5.256C380.036,230.581,380.959,232.059,382.272,233.322z"/>
		<path style="fill:#444444;" d="M394.549,225.779v2.211h3.702v0.442l-0.253,2.957h1.794c-0.013,2.426-0.215,3.841-0.594,4.257
			c-0.177,0.19-0.43,0.316-0.758,0.393c-0.278,0.05-0.544,0.088-0.821,0.088h-0.834l-0.24-0.859c0.43,0,0.847,0.013,1.226,0.013
			c0.379-0.013,0.645-0.113,0.809-0.315c0.177-0.215,0.278-1.112,0.315-2.704h-4.346v5.168h-0.91v-5.168h-4.484v-0.871h4.484v-2.527
			h-3.765v-0.872h3.765v-2.211H394.549z M397.113,231.39l0.24-2.527h-2.805v2.527H397.113z M400.297,227.536l-0.479,0.758
			c-0.834-0.758-1.681-1.352-2.552-1.781l0.467-0.683C398.668,226.31,399.526,226.879,400.297,227.536z"/>
		<path style="fill:#444444;" d="M404.463,237.365h-0.922v-6.33c-0.417,1.213-0.947,2.3-1.604,3.285l-0.392-0.985
			c0.935-1.213,1.592-2.603,1.983-4.157h-1.706v-0.871h1.719v-2.464h0.922v2.464h1.504v0.871h-1.504v0.733
			c0.582,0.619,1.163,1.326,1.757,2.109l-0.519,0.759c-0.479-0.771-0.884-1.39-1.238-1.857V237.365z M409.138,230.214v-4.384h0.923
			v4.384h2.603v7.202h-0.91v-0.531h-5.66v-0.884h5.66v-2.047h-5.116v-0.859h5.116v-1.996h-5.433v-0.885H409.138z M408.241,229.153
			l-0.783,0.392c-0.404-0.973-0.847-1.832-1.302-2.59l0.796-0.393C407.407,227.347,407.837,228.218,408.241,229.153z
			 M413.017,226.853c-0.354,0.935-0.809,1.832-1.364,2.717l-0.783-0.404c0.556-0.91,1.011-1.807,1.339-2.691L413.017,226.853z"/>
		<path style="fill:#444444;" d="M419.608,233.348v-0.985h0.935v0.985h4.928v0.809h-4.106c0.91,0.872,2.338,1.566,4.271,2.085
			l-0.392,0.796c-2.198-0.721-3.765-1.668-4.7-2.83v3.184h-0.935v-3.222c-0.809,1.137-2.35,2.122-4.624,2.956l-0.506-0.809
			c2.098-0.632,3.538-1.352,4.321-2.16h-4.157v-0.809H419.608z M420.013,228.092c-0.228,0.303-0.442,0.581-0.645,0.847h5.724v0.732
			h-2.123c-0.454,0.594-0.935,1.074-1.453,1.453c1.112,0.278,2.262,0.619,3.438,1.011l-0.531,0.694
			c-1.264-0.454-2.539-0.846-3.815-1.188c-1.326,0.619-3.058,0.948-5.205,0.974l-0.493-0.746c1.921,0,3.437-0.177,4.549-0.53
			c-0.885-0.228-1.757-0.417-2.628-0.581c0.328-0.379,0.644-0.733,0.947-1.087h-2.741v-0.732h3.335
			c0.291-0.366,0.568-0.733,0.821-1.087L420.013,228.092z M425.143,228.609h-0.872v-1.023h-8.439v1.036h-0.872v-1.794h4.688
			c-0.177-0.303-0.354-0.594-0.557-0.859l0.885-0.151c0.189,0.304,0.379,0.645,0.556,1.011h4.612V228.609z M421.996,229.671h-3.209
			c-0.228,0.266-0.442,0.506-0.632,0.708c0.771,0.126,1.554,0.29,2.351,0.492C421.111,230.518,421.617,230.126,421.996,229.671z"/>
	</g>
</g>
<g>
	<rect x="281.294" y="271.631" style="opacity:0.6;fill:#BBBBBB;enable-background:new    ;" width="164.9" height="45.109"/>
	<rect x="279.489" y="269.827" style="fill:#FFFFFF;stroke:#E5E5E5;" width="164.9" height="45.109"/>
	<g style="enable-background:new    ;">
		<path style="fill:#444444;" d="M304.179,286.569c1.604,1.794,3.449,3.209,5.534,4.245l-0.493,0.872
			c-2.097-1.1-3.878-2.54-5.369-4.309c-1.365,1.668-3.171,3.108-5.42,4.321l-0.48-0.872c2.224-1.137,4.081-2.552,5.572-4.258
			H304.179z M308.942,292.987v0.885h-5.951c-0.606,1.188-1.339,2.224-2.198,3.108c2.072-0.114,4.03-0.291,5.888-0.544
			c-0.43-0.556-0.897-1.137-1.415-1.718l0.707-0.455c1.15,1.289,2.034,2.4,2.653,3.348l-0.758,0.531
			c-0.215-0.341-0.442-0.683-0.695-1.036c-1.946,0.315-4.447,0.568-7.479,0.745l-0.253-0.796c0.228-0.062,0.379-0.139,0.48-0.24
			c0.809-0.935,1.491-1.907,2.034-2.943h-3.171v-0.885H308.942z M306.971,290.448v0.859h-6.204v-0.859H306.971z"/>
		<path style="fill:#444444;" d="M313.461,290.435v5.622c0.455-0.379,0.96-0.809,1.491-1.313l0.227,0.935
			c-0.783,0.758-1.629,1.428-2.527,2.021l-0.354-0.821c0.189-0.151,0.291-0.328,0.291-0.53v-5.041h-1.857v-0.872H313.461z
			 M314.371,288.642l-0.619,0.632c-0.531-0.619-1.264-1.276-2.173-1.959l0.632-0.619C313.069,287.34,313.79,287.984,314.371,288.642
			z M318.11,290.359v-3.803h0.935v3.803h3.247v0.91h-3.247v6.911h-0.935v-6.911h-3.424v-0.91H318.11z"/>
		<path style="fill:#444444;" d="M326.988,287.062c-0.707,1.402-1.844,2.641-3.411,3.714l-0.265-0.909
			c1.314-0.936,2.261-1.996,2.855-3.185L326.988,287.062z M327.583,289.942c-0.367,0.708-0.821,1.391-1.377,2.021v6.191h-0.897
			v-5.269c-0.505,0.455-1.048,0.896-1.655,1.313l-0.266-0.909c1.542-1.087,2.666-2.325,3.374-3.728L327.583,289.942z
			 M334.771,290.587v0.897h-2.047v5.42c0,0.796-0.417,1.2-1.251,1.2h-1.832l-0.189-0.897c0.594,0.038,1.162,0.063,1.706,0.063
			c0.43,0,0.644-0.202,0.644-0.594v-5.192h-3.979v-0.897H334.771z M334.215,287.378v0.897h-6.051v-0.897H334.215z"/>
		<path style="fill:#444444;" d="M340.832,286.695v10.045h1.794v-10.045h0.923v10.045h3.79v0.884h-11.194v-0.884h3.766v-10.045
			H340.832z M339,294.845l-0.834,0.215c-0.454-2.021-1.023-3.967-1.705-5.837l0.771-0.253
			C337.889,290.676,338.482,292.634,339,294.845z M346.998,289.223c-0.506,2.198-1.138,4.119-1.908,5.773l-0.821-0.29
			c0.733-1.491,1.377-3.398,1.921-5.711L346.998,289.223z"/>
		<path style="fill:#444444;" d="M354.625,287.871v0.922h-4.397l-0.303,3.02h0.05c0.253-0.303,0.582-0.53,0.974-0.683
			c0.354-0.151,0.732-0.214,1.149-0.214c0.859,0,1.554,0.265,2.085,0.809c0.53,0.556,0.809,1.313,0.809,2.286
			c0,0.91-0.329,1.655-0.974,2.236c-0.605,0.543-1.364,0.821-2.248,0.821c-0.796,0-1.479-0.215-2.034-0.645
			c-0.632-0.479-0.974-1.137-1.036-1.958h1.023c0.051,0.568,0.277,1.011,0.682,1.314c0.354,0.265,0.821,0.404,1.378,0.404
			c0.631,0,1.149-0.203,1.566-0.607c0.404-0.404,0.619-0.922,0.619-1.554c0-0.72-0.202-1.276-0.581-1.668
			c-0.367-0.404-0.885-0.594-1.542-0.594c-0.43,0-0.809,0.089-1.149,0.278c-0.354,0.177-0.632,0.455-0.809,0.809h-0.985l0.479-4.978
			H354.625z"/>
		<path style="fill:#444444;" d="M356.82,291.118l-0.606-0.759c1.276-0.96,2.136-2.261,2.577-3.903l0.948,0.177
			c-0.14,0.479-0.304,0.922-0.48,1.352h7.846v0.885h-3.967v2.021h3.524v0.871h-3.524v2.729h4.371v0.885h-4.371v2.817h-0.923v-2.817
			h-5.837v-0.885h2.085v-3.601h3.752v-2.021h-3.398C358.286,289.766,357.629,290.512,356.82,291.118z M362.215,294.491v-2.729
			h-2.842v2.729H362.215z"/>
		<path style="fill:#444444;" d="M378.308,290.321v0.859h-3.209v2.224h3.766v0.859h-3.766v2.615
			c0.885,0.126,1.946,0.202,3.209,0.215c0.645,0,1.302-0.025,1.983-0.076l-0.164,0.91h-1.415c-2.552,0-4.371-0.24-5.483-0.708
			c-0.833-0.392-1.516-0.998-2.033-1.819c-0.493,1.087-1.1,1.997-1.82,2.729l-0.581-0.721c1.213-1.288,2.021-3.02,2.451-5.192
			l0.885,0.151c-0.151,0.783-0.354,1.504-0.581,2.161c0.606,1.086,1.364,1.769,2.273,2.06c0.114,0.037,0.24,0.075,0.367,0.101
			v-5.509h-3.311v-0.859H378.308z M379.748,290.549h-0.884v-1.856h-8.566v1.92h-0.885v-2.754h4.826
			c-0.189-0.455-0.404-0.872-0.631-1.251l0.973-0.151c0.202,0.417,0.404,0.884,0.581,1.402h4.586V290.549z"/>
		<path style="fill:#444444;" d="M383.862,295.742c-0.479,0.909-1.036,1.705-1.667,2.375l-0.721-0.519
			c0.632-0.618,1.188-1.352,1.655-2.211L383.862,295.742z M383.357,286.607v1.415h2.464v-1.39h0.884v1.39h0.758v0.847h-0.758v5.344
			h0.821v0.859h-5.976v-0.859h0.922v-5.344h-0.783v-0.847h0.783v-1.415H383.357z M383.357,288.869v1.263h2.464v-1.263H383.357z
			 M385.821,292.179v-1.25h-2.464v1.25H385.821z M385.821,294.213v-1.238h-2.464v1.238H385.821z M386.958,297.385
			c0.834-1.176,1.251-2.653,1.276-4.423v-5.912h4.194v9.829c0,0.771-0.379,1.162-1.112,1.162h-1.339l-0.253-0.896
			c0.468,0.025,0.897,0.05,1.302,0.05c0.328,0,0.492-0.214,0.492-0.644v-2.515h-2.45c-0.178,1.668-0.683,3.045-1.517,4.157
			l-0.694-0.645c0.024-0.025,0.037-0.051,0.05-0.076l-0.669,0.48c-0.329-0.645-0.784-1.353-1.353-2.11l0.708-0.442
			C386.188,296.159,386.643,296.828,386.958,297.385z M389.131,292.887c0,0.113-0.013,0.215-0.013,0.315h2.4v-2.249h-2.388V292.887z
			 M391.519,287.908h-2.388v2.212h2.388V287.908z"/>
		<path style="fill:#444444;" d="M396.885,298.104h-0.922v-6.33c-0.417,1.213-0.947,2.3-1.604,3.285l-0.392-0.985
			c0.935-1.213,1.592-2.603,1.983-4.157h-1.706v-0.871h1.719v-2.464h0.922v2.464h1.504v0.871h-1.504v0.733
			c0.582,0.619,1.163,1.326,1.757,2.109l-0.519,0.759c-0.479-0.771-0.884-1.39-1.238-1.857V298.104z M401.56,290.953v-4.384h0.923
			v4.384h2.603v7.202h-0.91v-0.531h-5.66v-0.884h5.66v-2.047h-5.116v-0.859h5.116v-1.996h-5.433v-0.885H401.56z M400.663,289.893
			l-0.783,0.392c-0.404-0.973-0.847-1.832-1.302-2.59l0.796-0.393C399.829,288.086,400.259,288.957,400.663,289.893z
			 M405.438,287.593c-0.354,0.935-0.809,1.832-1.364,2.717l-0.783-0.404c0.556-0.91,1.011-1.807,1.339-2.691L405.438,287.593z"/>
		<path style="fill:#444444;" d="M412.03,294.087v-0.985h0.935v0.985h4.928v0.809h-4.106c0.91,0.872,2.338,1.566,4.271,2.085
			l-0.392,0.796c-2.198-0.721-3.765-1.668-4.7-2.83v3.184h-0.935v-3.222c-0.809,1.137-2.35,2.122-4.624,2.956l-0.506-0.809
			c2.098-0.632,3.538-1.352,4.321-2.16h-4.157v-0.809H412.03z M412.435,288.831c-0.228,0.303-0.442,0.581-0.645,0.847h5.724v0.732
			h-2.123c-0.454,0.594-0.935,1.074-1.453,1.453c1.112,0.278,2.262,0.619,3.438,1.011l-0.531,0.694
			c-1.264-0.454-2.539-0.846-3.815-1.188c-1.326,0.619-3.058,0.948-5.205,0.974l-0.493-0.746c1.921,0,3.437-0.177,4.549-0.53
			c-0.885-0.228-1.757-0.417-2.628-0.581c0.328-0.379,0.644-0.733,0.947-1.087h-2.741v-0.732h3.335
			c0.291-0.366,0.568-0.733,0.821-1.087L412.435,288.831z M417.564,289.349h-0.872v-1.023h-8.439v1.036h-0.872v-1.794h4.688
			c-0.177-0.303-0.354-0.594-0.557-0.859l0.885-0.151c0.189,0.304,0.379,0.645,0.556,1.011h4.612V289.349z M414.418,290.41h-3.209
			c-0.228,0.266-0.442,0.506-0.632,0.708c0.771,0.126,1.554,0.29,2.351,0.492C413.533,291.257,414.039,290.865,414.418,290.41z"/>
	</g>
</g>
<rect x="620.783" y="155.425" style="opacity:0.6;fill:#BBBBBB;enable-background:new    ;" width="149.103" height="45.109"/>
<rect x="618.978" y="153.62" style="fill:#FFFFFF;stroke:#E5E5E5;" width="149.103" height="45.109"/>
<g style="enable-background:new    ;">
	<path style="fill:#444444;" d="M679.55,170.376v5.483c-0.051,2.779-1.074,4.801-3.083,6.077l-0.683-0.594
		c1.87-1.138,2.83-2.97,2.855-5.483v-5.483H679.55z M676.871,171.551v6.191h-0.909v-6.191H676.871z M686.41,171.349v10.322h-0.923
		V180.9h-5.495v-0.897h5.495v-3.537h-4.914v-0.872h4.914v-3.36h-5.218v-0.885H686.41z"/>
	<path style="fill:#444444;" d="M690.904,181.898h-0.923v-6.33c-0.417,1.213-0.947,2.3-1.604,3.285l-0.392-0.985
		c0.935-1.213,1.592-2.603,1.983-4.157h-1.705v-0.871h1.718v-2.464h0.923v2.464h1.503v0.871h-1.503v0.733
		c0.581,0.619,1.162,1.326,1.756,2.109l-0.518,0.759c-0.48-0.771-0.885-1.39-1.238-1.857V181.898z M695.579,174.747v-4.384h0.922
		v4.384h2.603v7.202h-0.909v-0.531h-5.66v-0.884h5.66v-2.047h-5.117v-0.859h5.117v-1.996h-5.434v-0.885H695.579z M694.682,173.686
		l-0.783,0.392c-0.404-0.973-0.847-1.832-1.302-2.59l0.796-0.393C693.848,171.88,694.277,172.751,694.682,173.686z M699.457,171.387
		c-0.354,0.935-0.809,1.832-1.364,2.717l-0.783-0.404c0.556-0.91,1.011-1.807,1.339-2.691L699.457,171.387z"/>
	<path style="fill:#444444;" d="M704.583,171.652c0.164-0.442,0.315-0.885,0.442-1.34l0.922,0.114
		c-0.126,0.417-0.253,0.821-0.392,1.226h6.469v0.884h-6.81c-0.468,1.087-1.049,2.085-1.731,2.995v6.431H702.6v-5.345
		c-0.43,0.468-0.872,0.91-1.353,1.34l-0.568-0.721c1.542-1.352,2.717-2.918,3.538-4.7h-3.07v-0.884H704.583z M708.134,177.527
		v-1.176c0.72-0.404,1.402-0.871,2.059-1.428h-4.75v-0.846h5.913v0.846c-0.683,0.632-1.453,1.238-2.312,1.808v0.796h3.159v0.871
		h-3.159v2.389c0,0.745-0.379,1.124-1.124,1.124h-1.58l-0.24-0.859c0.455,0.013,0.936,0.025,1.453,0.025
		c0.38,0,0.582-0.202,0.582-0.581v-2.098h-3.664v-0.871H708.134z"/>
	<path style="fill:#444444;" d="M713.55,176.314l-0.303-0.974c0.998-1.452,1.718-3.107,2.16-4.978l0.821,0.379
		c-0.228,0.859-0.518,1.681-0.847,2.451v8.769h-0.884v-7.05C714.207,175.392,713.892,175.859,713.55,176.314z M718.174,174.293
		v5.356c0.329-0.354,0.67-0.745,1.036-1.175l0.215,0.896c-0.632,0.797-1.313,1.504-2.021,2.136l-0.366-0.834
		c0.177-0.151,0.266-0.315,0.266-0.493v-5.041h-1.415v-0.846H718.174z M718.945,172.751l-0.67,0.67
		c-0.442-0.606-1.049-1.264-1.807-1.945l0.619-0.606C717.82,171.5,718.439,172.119,718.945,172.751z M721.105,171.842v-1.453h0.821
		v1.453h1.428v0.745c0.253-0.505,0.492-1.023,0.72-1.554l0.759,0.392c-0.43,1.062-0.936,2.009-1.491,2.843h1.453v0.834h-2.072
		c-0.354,0.43-0.732,0.834-1.124,1.188h2.577v5.635h-0.859v-0.531h-2.362v0.531h-0.847V177.4c-0.304,0.177-0.606,0.329-0.91,0.48
		l-0.454-0.721c1.073-0.492,2.034-1.175,2.867-2.059h-2.299v-0.834h1.794v-1.63h-1.517v-0.796H721.105z M723.316,177.085h-2.362
		v1.364h2.362V177.085z M720.954,180.597h2.362v-1.39h-2.362V180.597z M723.329,172.638h-1.402v1.63h0.379
		C722.672,173.762,723.013,173.219,723.329,172.638z"/>
	<path style="fill:#444444;" d="M732.763,172.284c0.682,0.53,1.086,1.25,1.213,2.147h-0.998c-0.127-0.657-0.455-1.162-0.961-1.517
		c-0.492-0.341-1.086-0.505-1.794-0.505c-1.048,0-1.856,0.366-2.426,1.1c-0.53,0.682-0.796,1.579-0.796,2.703
		c0,1.125,0.253,2.021,0.783,2.679c0.557,0.694,1.353,1.049,2.413,1.049c0.721,0,1.327-0.189,1.832-0.569
		c0.531-0.404,0.897-0.998,1.074-1.781h0.998c-0.202,1.049-0.67,1.87-1.415,2.451c-0.694,0.543-1.528,0.821-2.489,0.821
		c-1.402,0-2.476-0.468-3.222-1.39c-0.682-0.834-1.011-1.92-1.011-3.26c0-1.339,0.342-2.438,1.036-3.298
		c0.758-0.96,1.845-1.427,3.234-1.427C731.233,171.488,732.08,171.753,732.763,172.284z"/>
	<path style="fill:#444444;" d="M739.38,171.665l3.551,9.021h-1.125l-0.96-2.527h-4.144l-0.961,2.527h-1.111l3.55-9.021H739.38z
		 M740.518,177.287l-1.706-4.511h-0.05l-1.731,4.511H740.518z"/>
	<path style="fill:#444444;" d="M749.271,172.183c0.606,0.48,0.947,1.2,1.035,2.147h-1.022c-0.114-0.656-0.367-1.137-0.759-1.452
		c-0.404-0.329-0.973-0.48-1.705-0.48c-0.67,0-1.188,0.101-1.566,0.328c-0.43,0.253-0.645,0.632-0.645,1.15
		c0,0.454,0.252,0.821,0.771,1.099c0.228,0.127,0.783,0.316,1.655,0.568c1.188,0.354,1.971,0.645,2.35,0.872
		c0.745,0.455,1.125,1.087,1.125,1.908c0,0.783-0.316,1.415-0.948,1.869c-0.632,0.442-1.478,0.67-2.552,0.67
		c-1.062,0-1.896-0.228-2.502-0.683c-0.707-0.543-1.099-1.364-1.175-2.476h1.023c0.089,0.783,0.366,1.364,0.821,1.73
		c0.417,0.329,1.023,0.506,1.832,0.506c0.732,0,1.339-0.14,1.794-0.417c0.455-0.278,0.683-0.657,0.683-1.138
		c0-0.568-0.304-1.011-0.897-1.326c-0.253-0.151-0.897-0.366-1.908-0.657c-1.086-0.328-1.781-0.581-2.071-0.732
		c-0.695-0.404-1.036-0.985-1.036-1.744c0-0.783,0.328-1.402,0.998-1.832c0.594-0.404,1.364-0.605,2.3-0.605
		C747.88,171.488,748.688,171.715,749.271,172.183z"/>
</g>
<g>
	<rect x="75.369" y="143.924" style="fill:#CEE3FF;fill-opacity:0;" width="72.174" height="18.043"/>
	<g>
		<g style="enable-background:new    ;">
			<path style="fill:#878787;" d="M97.604,152.821c-0.076,0.206-0.152,0.4-0.217,0.595h2.25v0.66
				c-0.238,0.714-0.627,1.32-1.179,1.839c0.508,0.217,0.995,0.455,1.46,0.715l-0.422,0.627c-0.476-0.281-1.017-0.562-1.645-0.844
				c-0.725,0.498-1.623,0.897-2.705,1.201l-0.378-0.671c0.887-0.238,1.644-0.53,2.271-0.888c-0.476-0.194-0.974-0.399-1.503-0.605
				c0.281-0.465,0.53-0.909,0.735-1.331h-1.266v-0.703h1.59c0.086-0.237,0.173-0.465,0.249-0.682L97.604,152.821z M97.15,149.792
				v-2.066h0.725v2.066h1.969v0.682h-1.969v0.119c0.584,0.292,1.19,0.627,1.796,0.995l-0.4,0.606
				c-0.541-0.434-1.006-0.779-1.396-1.039v1.406H97.15v-2.056c-0.357,0.854-1.006,1.591-1.937,2.218l-0.378-0.627
				c0.833-0.487,1.417-1.028,1.742-1.623H95.04v-0.682H97.15z M96.555,149.284l-0.605,0.281c-0.228-0.53-0.476-0.996-0.736-1.396
				l0.649-0.216C96.122,148.364,96.36,148.808,96.555,149.284z M98.902,154.119h-1.828c-0.173,0.357-0.368,0.704-0.584,1.028
				c0.411,0.141,0.822,0.292,1.223,0.454C98.243,155.169,98.643,154.682,98.902,154.119z M99.746,148.181
				c-0.216,0.476-0.487,0.94-0.833,1.406l-0.584-0.314c0.335-0.476,0.606-0.94,0.801-1.396L99.746,148.181z M100.915,151.858
				c-0.195,0.498-0.411,0.941-0.638,1.331l-0.487-0.596c0.638-1.211,1.071-2.845,1.288-4.9l0.757,0.13
				c-0.065,0.552-0.152,1.071-0.238,1.547h2.856v0.747h-0.703c-0.043,1.807-0.368,3.354-0.963,4.63
				c0.562,0.941,1.223,1.677,2.001,2.196l-0.443,0.66c-0.757-0.53-1.396-1.244-1.937-2.132c-0.53,0.865-1.201,1.591-2.012,2.175
				l-0.411-0.66c0.844-0.584,1.515-1.342,2.001-2.261C101.564,153.882,101.207,152.93,100.915,151.858z M101.283,150.69
				c0.271,1.233,0.627,2.314,1.06,3.234c0.422-1.104,0.649-2.369,0.692-3.808h-1.601C101.38,150.311,101.326,150.506,101.283,150.69
				z"/>
			<path style="fill:#878787;" d="M105.996,157.538l-0.162-0.735c0.281,0.032,0.562,0.054,0.822,0.054
				c0.271,0,0.411-0.162,0.411-0.476v-2.64c-0.433,0.162-0.855,0.313-1.277,0.443l-0.194-0.758c0.498-0.118,0.995-0.271,1.471-0.443
				v-2.444h-1.298v-0.747h1.298v-2.045h0.757v2.045h1.039v0.747h-1.039v2.131c0.346-0.151,0.682-0.313,1.006-0.487v0.769
				c-0.335,0.173-0.67,0.324-1.006,0.476v3.148c0,0.639-0.303,0.963-0.909,0.963H105.996z M108.885,157.636l-0.606-0.541
				c0.768-1.428,1.158-3.289,1.168-5.561v-3.387h5.702v2.629h-2.034v1.277h2.315v0.703h-2.315v1.33h1.817v3.549h-0.725v-0.53h-2.932
				v0.53h-0.725v-3.549h1.807v-1.33h-2.207C110.021,154.606,109.599,156.229,108.885,157.636z M110.205,150.776v0.758
				c0,0.173-0.011,0.346-0.011,0.52h2.164v-1.277H110.205z M110.205,148.873v1.2h4.187v-1.2H110.205z M114.208,156.413v-1.634
				h-2.932v1.634H114.208z"/>
			<path style="fill:#878787;" d="M126.224,151.123v0.584h-9.693v-0.584H126.224z M125.153,152.248v2.759h-3.397v0.605h3.667v0.52
				h-3.667v0.639h4.457v0.605h-9.672v-0.605h4.436v-0.639h-3.624v-0.52h3.624v-0.605h-3.354v-2.759H125.153z M124.925,147.888v2.673
				h-7.064v-2.673H124.925z M120.977,153.405v-0.671h-2.607v0.671H120.977z M120.977,153.86h-2.607v0.659h2.607V153.86z
				 M124.168,148.991v-0.627h-5.55v0.627H124.168z M124.168,149.457h-5.55v0.638h5.55V149.457z M121.756,153.405h2.65v-0.671h-2.65
				V153.405z M124.406,153.86h-2.65v0.659h2.65V153.86z"/>
			<path style="fill:#878787;" d="M131.662,150.56c0.087-0.628,0.13-1.276,0.141-1.958v-0.877h0.801v0.703
				c0,0.758-0.054,1.461-0.141,2.132h4.489v0.757h-4.262c0.757,2.445,2.25,4.327,4.468,5.647l-0.487,0.628
				c-2.174-1.342-3.667-3.225-4.479-5.669c-0.671,2.629-2.164,4.543-4.468,5.744l-0.487-0.649c2.305-1.136,3.732-3.04,4.295-5.701
				h-4.078v-0.757H131.662z"/>
		</g>
		<circle style="fill:#878787;" cx="84.391" cy="152.946" r="1.353"/>
	</g>
</g>
<g>
	<rect x="75.369" y="179.403" style="fill:#CEE3FF;fill-opacity:0;" width="72.174" height="18.043"/>
	<g>
		<g style="enable-background:new    ;">
			<path style="fill:#878787;" d="M97.842,183.464c-0.26,0.801-0.584,1.547-0.963,2.261v7.411h-0.79v-6.134
				c-0.368,0.508-0.757,0.995-1.179,1.449l-0.26-0.833c1.125-1.298,1.947-2.802,2.456-4.489L97.842,183.464z M103.587,183.681v3.407
				h-2.175v1.18h3.116v0.757h-2.348c0.616,1.093,1.46,2.034,2.531,2.824l-0.498,0.682c-1.071-0.941-1.958-2.11-2.661-3.506h-0.141
				v4.09h-0.779v-4.09h-0.13c-0.725,1.504-1.633,2.673-2.737,3.517l-0.433-0.703c1.039-0.715,1.893-1.645,2.542-2.813h-2.25v-0.757
				h3.007v-1.18H98.48v-3.407H103.587z M102.819,184.427h-3.57v1.915h3.57V184.427z"/>
			<path style="fill:#878787;" d="M108.917,184.297c0.141-0.379,0.27-0.757,0.378-1.146l0.79,0.098
				c-0.108,0.356-0.216,0.703-0.335,1.049h5.539v0.758h-5.832c-0.4,0.93-0.898,1.784-1.482,2.563v5.507h-0.757v-4.576
				c-0.368,0.4-0.747,0.778-1.158,1.146l-0.487-0.616c1.32-1.158,2.326-2.499,3.029-4.024h-2.629v-0.758H108.917z M111.957,189.328
				v-1.006c0.617-0.346,1.201-0.746,1.764-1.223h-4.068v-0.725h5.063v0.725c-0.584,0.541-1.244,1.061-1.979,1.548v0.681h2.705v0.747
				h-2.705v2.045c0,0.638-0.325,0.963-0.963,0.963h-1.353l-0.206-0.736c0.39,0.011,0.801,0.021,1.244,0.021
				c0.325,0,0.498-0.173,0.498-0.497v-1.796h-3.137v-0.747H111.957z"/>
			<path style="fill:#878787;" d="M119.971,191.979h-0.757v-0.726h-1.601v0.984h-0.757v-8.232h3.116V191.979z M119.213,187.197
				v-2.478h-1.601v2.478H119.213z M119.213,190.529v-2.607h-1.601v2.607H119.213z M122.102,193.006l-0.163-0.757
				c0.627,0.021,1.223,0.043,1.796,0.043c0.314,0,0.476-0.173,0.476-0.509v-5.853h-3.743v-0.746h3.743v-1.904h0.79v1.904h1.331
				v0.746h-1.331v6.048c0,0.682-0.335,1.027-1.006,1.027H122.102z M123.076,189.891l-0.649,0.454
				c-0.378-0.812-0.887-1.721-1.536-2.716l0.638-0.4C122.199,188.247,122.719,189.133,123.076,189.891z"/>
			<path style="fill:#878787;" d="M128.622,184.99v8.136h-0.757v-8.136H128.622z M130.754,185.055l-0.692,0.367
				c-0.411-0.757-0.855-1.428-1.342-2.012l0.714-0.314C129.932,183.692,130.375,184.34,130.754,185.055z M134.216,186.125v5.042
				h-4.111v-5.042H134.216z M133.49,188.3v-1.482h-2.65v1.482H133.49z M133.49,188.993h-2.65v1.482h2.65V188.993z M134.519,193.028
				l-0.195-0.725l0.941,0.021c0.325,0,0.498-0.228,0.498-0.66v-7.205h-4.198v-0.725h4.955v8.146c0,0.757-0.367,1.146-1.093,1.146
				H134.519z"/>
			<path style="fill:#878787;" d="M140.477,187.391v-4.143h0.778v4.143h6.557v0.758h-3.56c0.454,1.73,1.688,3.083,3.689,4.057
				l-0.455,0.725c-2.186-1.157-3.505-2.747-3.981-4.781h-2.25v3.916c0.812-0.194,1.623-0.443,2.424-0.746l0.205,0.735
				c-1.06,0.368-2.196,0.692-3.407,0.974l-0.249-0.714c0.162-0.087,0.249-0.205,0.249-0.379v-3.786h-2.196v-0.758H140.477z
				 M146.697,183.865c-0.866,0.974-2.175,1.85-3.906,2.629l-0.465-0.616c1.72-0.758,2.997-1.602,3.841-2.543L146.697,183.865z"/>
		</g>
		<circle style="fill:#878787;" cx="84.391" cy="188.424" r="1.353"/>
	</g>
</g>
<g style="enable-background:new    ;">
	<path style="fill:#878787;" d="M104.582,218.505v0.778h-9.726v-0.778H104.582z"/>
	<path style="fill:#878787;" d="M106.429,218.742v-3.581h1.244c0.173-0.389,0.292-0.8,0.378-1.222l0.812,0.107
		c-0.087,0.39-0.216,0.769-0.379,1.114h1.59v7.746c0,0.649-0.303,0.974-0.909,0.974h-0.941l-0.195-0.746
		c0.324,0.021,0.617,0.043,0.898,0.043s0.422-0.184,0.422-0.53v-3.191h-2.218c-0.043,1.84-0.357,3.344-0.941,4.49l-0.606-0.552
		c0.52-1.05,0.79-2.358,0.833-3.938h-0.757v-0.714H106.429z M109.35,215.887h-2.207v2.855h2.207V215.887z M108.928,222.085
		l-0.639,0.163c-0.194-0.692-0.454-1.363-0.779-2.002l0.606-0.194C108.419,220.636,108.69,221.317,108.928,222.085z M108.906,218.06
		l-0.617,0.162c-0.194-0.573-0.454-1.125-0.757-1.654l0.573-0.185C108.409,216.871,108.668,217.434,108.906,218.06z
		 M114.413,214.513v2.239c0,0.303,0.162,0.454,0.487,0.454h0.627v0.735h-0.844c-0.692,0-1.028-0.346-1.028-1.017v-1.708h-1.385
		c0,0.713-0.065,1.265-0.184,1.633c-0.108,0.389-0.411,0.844-0.887,1.373l-0.595-0.54c0.39-0.455,0.638-0.877,0.757-1.267
		c0.097-0.411,0.151-1.038,0.151-1.903H114.413z M114.997,218.764v0.671c-0.259,1.05-0.703,1.937-1.309,2.673
		c0.52,0.433,1.125,0.821,1.818,1.168l-0.4,0.682c-0.757-0.39-1.396-0.812-1.937-1.287c-0.595,0.54-1.309,0.984-2.131,1.33
		l-0.422-0.648c0.779-0.325,1.439-0.736,1.991-1.233c-0.714-0.779-1.201-1.655-1.46-2.651h-0.335v-0.703H114.997z M113.125,221.577
		c0.498-0.606,0.876-1.31,1.114-2.11h-2.38C112.109,220.257,112.531,220.96,113.125,221.577z"/>
	<path style="fill:#878787;" d="M117.407,216.157c-0.033,1.06-0.206,2.077-0.509,3.04l-0.595-0.163
		c0.303-0.919,0.476-1.893,0.519-2.921L117.407,216.157z M118.586,214.058v9.845h-0.757v-9.845H118.586z M123.519,213.983v0.746
		h2.51v0.628h-2.51v0.756h2.142v0.606h-2.142v0.735h2.824v0.639h-6.48v-0.217l-0.4,0.098c-0.216-0.671-0.476-1.31-0.79-1.915
		l0.552-0.184c0.249,0.476,0.476,0.995,0.682,1.579h2.834v-0.735h-2.175v-0.606h2.175v-0.756h-2.542v-0.628h2.542v-0.746H123.519z
		 M121.398,223.925h-0.735v-5.128h4.912v4.024c0,0.703-0.314,1.06-0.941,1.06h-0.8l-0.184-0.682l0.757,0.033
		c0.281,0,0.422-0.195,0.422-0.573v-0.487h-3.43V223.925z M124.828,219.424h-3.43v0.812h3.43V219.424z M121.398,221.588h3.43v-0.769
		h-3.43V221.588z"/>
	<path style="fill:#878787;" d="M129.877,219.132c-0.573,1.623-1.211,3.148-1.915,4.576l-0.703-0.313
		c0.747-1.472,1.396-2.986,1.937-4.533L129.877,219.132z M129.812,216.784l-0.617,0.433c-0.443-0.725-1.049-1.525-1.828-2.412
		l0.628-0.39C128.773,215.325,129.38,216.113,129.812,216.784z M136.142,214.535v4.414h-1.482v3.732
		c0,0.216,0.119,0.335,0.356,0.335h0.758c0.216,0,0.368-0.087,0.454-0.238c0.119-0.194,0.195-0.746,0.238-1.666l0.703,0.217
		c-0.076,1.136-0.217,1.828-0.411,2.066c-0.184,0.216-0.465,0.324-0.844,0.324h-1.125c-0.584,0-0.866-0.292-0.866-0.876v-3.895
		h-1.049c-0.13,2.293-1.125,3.959-2.976,4.998l-0.433-0.682c1.666-0.865,2.554-2.305,2.662-4.316h-1.429v-4.414H136.142z
		 M135.384,215.281h-3.927v2.942h3.927V215.281z"/>
	<path style="fill:#878787;" d="M147.833,214.599v0.769h-4.695v1.633c1.342,0.67,2.704,1.449,4.089,2.337l-0.465,0.692
		c-1.438-0.952-2.65-1.688-3.624-2.207v6.145h-0.79v-8.6h-4.133v-0.769H147.833z"/>
	<path style="fill:#878787;" d="M158.453,214.588v0.769h-3.526c-0.195,0.443-0.422,0.875-0.671,1.287v7.324h-0.801v-6.178
		c-1.017,1.266-2.348,2.392-3.992,3.376l-0.508-0.682c2.444-1.406,4.154-3.116,5.106-5.127h-4.804v-0.769H158.453z M158.745,220.452
		l-0.595,0.605c-0.757-0.952-1.785-1.958-3.094-3.029l0.562-0.53C156.863,218.482,157.901,219.467,158.745,220.452z"/>
	<path style="fill:#878787;" d="M169.192,214.524v0.735h-4.122v1.135h3.191v4.079h1.244v0.735h-1.244v1.579
		c0,0.747-0.335,1.126-0.984,1.126h-1.018l-0.205-0.758l0.974,0.032c0.313,0,0.476-0.194,0.476-0.573v-1.406h-5.646v2.737H161.1
		v-2.737h-1.244v-0.735h1.244v-4.079h3.191v-1.135h-4.11v-0.735H169.192z M164.291,218.418v-1.31h-2.434v1.31H164.291z
		 M164.291,220.474V219.1h-2.434v1.374H164.291z M165.07,218.418h2.434v-1.31h-2.434V218.418z M167.504,220.474V219.1h-2.434v1.374
		H167.504z"/>
	<path style="fill:#878787;" d="M175.864,223.729c-0.692-0.011-1.244-0.075-1.677-0.194c-0.423-0.13-0.801-0.4-1.137-0.79
		c-0.141-0.184-0.281-0.271-0.411-0.271c-0.26,0-0.682,0.498-1.276,1.493l-0.584-0.53c0.573-0.908,1.082-1.46,1.525-1.655v-3.289
		h-1.547v-0.714h2.271v4.046c0.087,0.065,0.173,0.152,0.26,0.249c0.26,0.314,0.53,0.541,0.833,0.682
		c0.324,0.151,0.812,0.238,1.438,0.26c0.563,0.011,1.267,0.021,2.1,0.021c0.508,0,1.027-0.011,1.558-0.021
		c0.52-0.011,0.931-0.021,1.212-0.043l-0.185,0.778h-2.478C177.184,223.751,176.546,223.74,175.864,223.729z M173.321,215.876
		l-0.562,0.552c-0.433-0.53-1.038-1.103-1.807-1.72l0.53-0.509C172.207,214.761,172.824,215.313,173.321,215.876z M175.345,215.735
		v-1.72h0.746v1.72h1.71v-1.709h0.757v1.709h1.374v0.725h-1.374v2.152h1.721v0.736h-1.721v3.104h-0.757v-3.104h-1.926
		c-0.281,1.298-0.844,2.261-1.677,2.888l-0.466-0.627c0.682-0.487,1.147-1.244,1.385-2.261h-1.428v-0.736h1.568
		c0.055-0.411,0.087-0.844,0.087-1.298v-0.854h-1.276v-0.725H175.345z M176.091,217.142c0,0.519-0.032,1.017-0.086,1.471h1.796
		v-2.152h-1.71V217.142z"/>
	<path style="fill:#878787;" d="M184.516,214.448c-0.605,1.201-1.579,2.261-2.921,3.18l-0.228-0.778
		c1.125-0.801,1.937-1.709,2.445-2.726L184.516,214.448z M185.024,216.914c-0.314,0.605-0.703,1.19-1.18,1.731v5.301h-0.768v-4.512
		c-0.434,0.39-0.898,0.769-1.418,1.125l-0.227-0.778c1.319-0.931,2.282-1.991,2.889-3.191L185.024,216.914z M191.18,217.466v0.769
		h-1.753v4.641c0,0.682-0.356,1.028-1.07,1.028h-1.569l-0.162-0.769c0.509,0.032,0.995,0.054,1.461,0.054
		c0.367,0,0.552-0.173,0.552-0.508v-4.446h-3.408v-0.769H191.18z M190.704,214.718v0.769h-5.183v-0.769H190.704z"/>
	<path style="fill:#878787;" d="M193.751,216.145v-2.109h0.769v2.109h1.114v0.747h-1.114v0.552c0.433,0.476,0.876,1.017,1.331,1.623
		l-0.444,0.659c-0.346-0.616-0.638-1.125-0.887-1.515v5.68h-0.769v-5.29c-0.346,1.061-0.778,2.034-1.319,2.921l-0.335-0.854
		c0.768-1.104,1.319-2.369,1.644-3.775h-1.341v-0.747H193.751z M195.937,218.31l-0.422-0.66c1.276-0.919,2.272-2.12,2.965-3.602
		h0.714c0.584,1.363,1.579,2.553,2.996,3.581l-0.422,0.66c-0.465-0.335-0.887-0.692-1.255-1.071v0.66h-3.288v-0.692
		C196.813,217.617,196.392,217.985,195.937,218.31z M199.507,222.864c0.443-1.157,0.833-2.575,1.168-4.263l0.747,0.195
		c-0.303,1.525-0.692,2.877-1.146,4.067h1.688v0.757h-6.199v-0.757H199.507z M197.765,222.042l-0.681,0.184
		c-0.217-1.081-0.477-2.109-0.779-3.104l0.671-0.228C197.278,219.803,197.538,220.852,197.765,222.042z M198.836,214.816
		c-0.476,0.919-1.006,1.698-1.59,2.347h3.213C199.777,216.46,199.236,215.681,198.836,214.816z M199.388,221.522l-0.714,0.185
		c-0.184-1.039-0.422-2.034-0.703-2.986l0.671-0.216C198.923,219.381,199.172,220.387,199.388,221.522z"/>
	<path style="fill:#878787;" d="M206.633,222.107c-0.812,0.648-1.828,1.179-3.051,1.601l-0.324-0.692
		c1.179-0.356,2.152-0.833,2.921-1.417L206.633,222.107z M207.585,214.88v-0.854h0.801v0.854h3.646v0.715h-3.646v0.94h4.089v1.98
		h-0.757v-1.299h-4.133l0.595,0.292c-0.648,0.52-1.319,0.963-2.022,1.342c0.995-0.021,1.807-0.043,2.412-0.087
		c0.379-0.259,0.769-0.529,1.158-0.811l0.627,0.422c-1.276,0.951-2.64,1.677-4.111,2.195c1.407-0.043,2.803-0.118,4.209-0.216
		c-0.238-0.26-0.487-0.509-0.747-0.769l0.563-0.356c0.789,0.768,1.396,1.438,1.817,2.022l-0.585,0.422
		c-0.173-0.259-0.367-0.519-0.584-0.778c-0.876,0.054-1.698,0.108-2.478,0.151v2.066c0,0.541-0.303,0.822-0.887,0.822h-0.984
		l-0.162-0.726c0.303,0.033,0.605,0.055,0.887,0.055c0.238,0,0.368-0.119,0.368-0.336v-1.85c-1.19,0.055-2.283,0.098-3.278,0.119
		l-0.151-0.703c0.228,0.011,0.454,0.021,0.671,0.021c0.887-0.249,1.796-0.639,2.748-1.179c-0.736,0.021-1.569,0.054-2.51,0.075
		l-0.152-0.595c0.163-0.032,0.325-0.098,0.487-0.185c0.703-0.399,1.374-0.876,2.001-1.417h-3.224v1.288h-0.757v-1.97h4.089v-0.94
		h-3.646v-0.715H207.585z M212.648,223.113l-0.4,0.627c-0.995-0.648-2.013-1.168-3.051-1.547l0.39-0.573
		C210.712,222.031,211.729,222.529,212.648,223.113z"/>
</g>
<circle style="fill:#878787;" cx="84.391" cy="219.256" r="1.353"/>
<g style="enable-background:new    ;">
	<path style="fill:#878787;" d="M529.577,158.674c0.156-0.42,0.3-0.84,0.42-1.271l0.876,0.108c-0.12,0.396-0.24,0.779-0.372,1.163
		h6.141v0.84h-6.465c-0.443,1.031-0.995,1.979-1.643,2.842v6.104h-0.84v-5.073c-0.407,0.444-0.827,0.864-1.283,1.271l-0.54-0.684
		c1.464-1.283,2.579-2.771,3.358-4.461h-2.914v-0.84H529.577z M532.947,164.251v-1.115c0.684-0.384,1.332-0.828,1.955-1.355h-4.509
		v-0.804h5.612v0.804c-0.647,0.6-1.379,1.175-2.194,1.715v0.756h2.998v0.827h-2.998v2.267c0,0.708-0.36,1.067-1.067,1.067h-1.5
		l-0.228-0.815c0.432,0.012,0.888,0.024,1.379,0.024c0.36,0,0.552-0.192,0.552-0.552v-1.991h-3.478v-0.827H532.947z"/>
	<path style="fill:#878787;" d="M540.378,159.262c-0.239-0.612-0.516-1.176-0.815-1.68l0.888-0.144
		c0.264,0.527,0.527,1.14,0.792,1.823h1.774v0.827h-2.914v1.02c0,0.264-0.012,0.516-0.012,0.768h2.314
		c0,2.914-0.061,4.701-0.168,5.373c-0.12,0.684-0.611,1.031-1.476,1.031c-0.155,0-0.432-0.023-0.827-0.048l-0.192-0.743
		c0.336,0.023,0.636,0.035,0.899,0.035c0.456,0,0.72-0.203,0.804-0.6c0.084-0.455,0.132-1.883,0.145-4.257h-1.535
		c-0.168,2.554-0.696,4.473-1.583,5.757l-0.672-0.588c0.983-1.403,1.475-3.646,1.499-6.729v-1.02h-1.283v-0.827H540.378z
		 M543.952,161.96c-0.204,0.348-0.42,0.672-0.636,0.959l-0.539-0.659c0.863-1.224,1.438-2.866,1.738-4.93l0.852,0.145
		c-0.096,0.623-0.228,1.223-0.371,1.774h3.598v0.828h-0.852c-0.072,2.051-0.527,3.802-1.367,5.241
		c0.72,1.031,1.595,1.835,2.603,2.41l-0.492,0.72c-1.007-0.588-1.87-1.391-2.59-2.41c-0.72,0.959-1.619,1.763-2.711,2.41
		l-0.479-0.756c1.127-0.623,2.026-1.427,2.698-2.398C544.828,164.335,544.336,163.22,543.952,161.96z M544.42,160.989
		c0.372,1.355,0.852,2.531,1.439,3.538c0.647-1.259,1.007-2.746,1.067-4.449h-2.171C544.647,160.401,544.54,160.701,544.42,160.989z
		"/>
</g>
<g>
	<title  xmlns="http://www.w3.org/2000/svg">Product Icons【32】</title>
	<g id="_编组__3_">
		<g id="_编组_2_2_">
			<path id="_复合路径__2_" style="fill:#00A4FF;" d="M662.261,183.034l-11.89,6.83l-12.11-6.84v-13.69l12-6.85l12,6.86l0,0
				l2-1.17l-14-8l-14,8v16l14.11,8l13.89-8v-12l-2,1.14V183.034z M657.261,172.484v-0.19l-7-4.05l-7,4v5.93l2-1.17l0,0l5.27-3
				l1,0.59l-6.11,3.52l1.84,1.17l0,0l2.14,1.29l0.8,0.49l0,0l0,0l5.06-2.89v1.1l-5.23,3l-4.85-2.84v-0.14l-1.92,1.06l7,4l7-4v-5.66
				l-2,1.11l-5.25,3l-1-0.59l6.25-3.47l-2-1.18l0,0l-2.71-1.62l-0.18-0.1l0,0v-0.07l-5.11,2.91v-1.17l5-2.86l5,2.52v0.41
				L657.261,172.484z"/>
		</g>
	</g>
</g>
</svg>
