<?xml version="1.0" encoding="UTF-8"?>
<svg width="48px" height="48px" viewBox="0 0 48 48" version="1.1" xmlns="http://www.w3.org/2000/svg" xmlns:xlink="http://www.w3.org/1999/xlink">
    <!-- Generator: Sketch 52.2 (67145) - http://www.bohemiancoding.com/sketch -->
    <title>机器视觉能力-48x48</title>
    <desc>Created with Sketch.</desc>
    <g id="机器视觉能力-48x48" stroke="none" stroke-width="1" fill="none" fill-rule="evenodd">
        <g id="Group-15" transform="translate(0.000000, 4.000000)">
            <path d="M0,34 L42,34 L42,0.001 L0,0.001 L0,34 Z M2,32 L40,32 L40,2 L2,2 L2,32 Z" id="Fill-1" fill="#334966"></path>
            <g id="Group-14" transform="translate(0.000000, 6.000000)">
                <path d="M2,26 L21.91,26 C20.954,15.521 12.479,7.046 2,6.09 L2,26 Z M24.022,28 L0,28 L0,3.978 L1.043,4.022 C13.376,4.55 23.45,14.624 23.978,26.957 L24.022,28 Z" id="Fill-2" fill="#334966"></path>
                <path d="M2,26 L14.868,26 C13.978,19.316 8.684,14.022 2,13.132 L2,26 Z M17.033,28 L0,28 L0,10.967 L1.062,11.033 C9.603,11.559 16.441,18.397 16.967,26.938 L17.033,28 Z" id="Fill-4" fill="#334966"></path>
                <path d="M2,26 L7.747,26 C7.021,23.204 4.795,20.979 2,20.253 L2,26 Z M10.062,28 L0,28 L0,17.938 L1.11,18.061 C5.716,18.569 9.43,22.283 9.939,26.89 L10.062,28 Z" id="Fill-6" fill="#334966"></path>
                <path d="M30,1 C32.209,1 34,2.791 34,5 C34,7.209 32.209,9 30,9 C27.791,9 26,7.209 26,5 C26,2.791 27.791,1 30,1" id="Fill-8" fill="#00A4FF"></path>
                <polygon id="Fill-10" fill="#00A4FF" points="42 17 42 28 8 28 8 32 46 32 46 17"></polygon>
                <polygon id="Fill-12" fill="#334966" points="42 0 42 2 46 2 46 32 8 32 8 28 6 28 6 34 48 34 48 0"></polygon>
            </g>
        </g>
    </g>
</svg>