<?xml version="1.0" encoding="utf-8"?>
<!-- Generator: Adobe Illustrator 22.1.0, SVG Export Plug-In . SVG Version: 6.00 Build 0)  -->
<svg version="1.1" id="图层_1" xmlns="http://www.w3.org/2000/svg" xmlns:xlink="http://www.w3.org/1999/xlink" x="0px" y="0px"
	 viewBox="0 0 830 233" style="enable-background:new 0 0 830 233;" xml:space="preserve">
<style type="text/css">
	.st0{opacity:0.6;fill:#BBBBBB;enable-background:new    ;}
	.st1{fill:#FFFFFF;stroke:#E5E5E5;stroke-width:1.1594;}
	.st2{opacity:0.15;fill:#FFFFFF;enable-background:new    ;}
	.st3{fill:#444444;}
	.st4{fill:#878787;}
	.st5{fill:#BABABA;}
	.st6{fill:#FFFFFF;}
	.st7{fill:#CEE3FF;}
	.st8{fill:#00A4FF;}
	.st9{fill:#FFFFFF;stroke:#E5E5E5;stroke-width:1.5289;}
</style>
<g>
	<rect x="679.9" y="72" class="st0" width="131.2" height="50"/>
	<rect x="678.2" y="70" class="st1" width="130.9" height="50"/>
</g>
<g>
	<rect x="679.9" y="133.5" class="st0" width="131.2" height="50"/>
	<rect x="678.2" y="131.5" class="st1" width="130.9" height="50"/>
</g>
<g>
	<rect x="24.4" y="43.6" class="st0" width="131.2" height="50"/>
	<rect x="22.7" y="41.6" class="st1" width="130.9" height="50"/>
</g>
<g>
	<rect x="24.4" y="104.4" class="st0" width="131.2" height="50"/>
	<rect x="22.7" y="102.4" class="st1" width="130.9" height="50"/>
</g>
<g>
	<rect x="24.4" y="165.1" class="st0" width="131.2" height="50"/>
	<rect x="22.7" y="163.1" class="st1" width="130.9" height="50"/>
</g>
<g id="图层_1_1_">
</g>
<rect x="696" y="80" class="st2" width="32" height="32"/>
<g>
	<g>
		<path class="st3" d="M739.8,92.2c0,1.4-0.2,2.7-0.5,4l-0.8-0.2c0.3-1.2,0.5-2.5,0.5-3.8H739.8z M740.5,89.5h1v12.7h-1V89.5z
			 M742.5,91.8c0.3,0.7,0.6,1.5,0.8,2.4c0.5-1.2,0.8-2.5,0.8-3.9l0.9,0.1c0,0.6-0.1,1.1-0.2,1.7h2v-2.6h1v2.6h3.1v1H748v3.4h2.8v1
			H748v3.4h3.4v1h-8.5v-1h4v-3.4h-3.2v-1h3.2v-3.4h-2.2c-0.3,1-0.6,2-1.1,2.8l-0.8-0.7c0.2-0.3,0.3-0.6,0.4-0.9l-0.7,0.2
			c-0.2-0.9-0.5-1.7-0.8-2.5L742.5,91.8z"/>
		<path class="st3" d="M757.7,90.4c0.9,1.2,1.5,2.2,2,3l-0.8,0.6c-0.1-0.3-0.3-0.6-0.5-0.9c-1.4,0.2-3.2,0.4-5.4,0.5l-0.3-0.8
			c0.2,0,0.3-0.1,0.5-0.3c0.9-0.9,1.6-1.9,2.2-3l1,0.3c-0.7,1.3-1.4,2.2-2.1,2.9c1.2-0.1,2.5-0.2,3.7-0.3c-0.3-0.5-0.6-1-1-1.4
			L757.7,90.4z M754.5,99.6v2.7h-1v-7.9h5.2v6.6c0,0.8-0.4,1.2-1.2,1.2h-1.2l-0.3-1h1.1c0.4,0,0.5-0.2,0.5-0.5v-1.1
			C757.6,99.6,754.5,99.6,754.5,99.6z M757.8,96.6v-1.3h-3.3v1.3H757.8z M754.5,97.5v1.3h3.3v-1.3H754.5z M761.3,95.5
			c-0.9,0-1.3-0.5-1.3-1.4v-4.7h1v1.9c1.5-0.2,2.8-0.5,3.8-0.7l0.3,0.9c-1.2,0.3-2.6,0.6-4.1,0.8V94c0,0.5,0.2,0.7,0.6,0.7h1.8
			c0.3,0,0.5-0.1,0.6-0.2c0.1-0.2,0.2-0.7,0.3-1.6l0.9,0.3c-0.1,1.1-0.3,1.8-0.5,2.1c-0.2,0.2-0.6,0.3-1.1,0.3h-2.3V95.5z
			 M761,100.6c0,0.3,0.2,0.5,0.5,0.5h1.8c0.3,0,0.5-0.1,0.6-0.2c0.1-0.2,0.2-0.7,0.3-1.6l0.9,0.3c-0.1,1.1-0.3,1.8-0.5,2.1
			c-0.2,0.2-0.6,0.3-1.1,0.3h-2.3c-0.8,0-1.3-0.4-1.3-1.2V96h1v1.7c1.4-0.1,2.7-0.4,3.8-0.7l0.3,0.9c-1.2,0.4-2.6,0.6-4.1,0.7
			L761,100.6L761,100.6z"/>
		<path class="st3" d="M778.4,91.8v10.4h-1v-0.7h-8.9v0.7h-1V91.8h3.3v-2.4h1v2.4h2.2v-2.4h1v2.4H778.4z M768.6,96h2.3v-3.2h-2.3V96
			z M768.6,100.5h2.3V97h-2.3V100.5z M771.9,92.8V96h2.2v-3.2H771.9z M771.9,97v3.6h2.2V97H771.9z M775.1,92.8V96h2.4v-3.2H775.1z
			 M775.1,97v3.6h2.4V97H775.1z"/>
		<path class="st3" d="M784,89.7c-0.7,1.8-1.4,3.3-2.2,4.4c0.5,0,1.2-0.1,1.9-0.2l0.8-1.6l0.9,0.3c-1.2,2.3-2.2,4-3.1,5
			c1-0.2,2-0.5,3-0.8v0.9c-1.5,0.5-2.9,0.8-4.2,1l-0.3-0.9c0.2-0.1,0.3-0.2,0.5-0.3c0.5-0.5,1.1-1.5,1.9-2.8
			c-0.5,0.1-1.3,0.2-2.3,0.3l-0.2-0.9c0.1-0.1,0.3-0.2,0.4-0.4c0.8-1.3,1.4-2.8,2-4.4L784,89.7z M785.6,100.4c-1.4,0.5-3,1-4.7,1.3
			l-0.1-1c1.8-0.3,3.4-0.7,4.8-1.3V100.4z M792.4,91.9l0.1,0.9l-3.6,0.5c0,0.7,0.1,1.3,0.1,1.9l3.7-0.6l0.2,1l-3.8,0.6
			c0,0.2,0.1,0.5,0.1,0.7c0.1,0.7,0.3,1.3,0.5,1.9c0.8-0.7,1.4-1.5,2-2.4l0.8,0.5c-0.8,1.1-1.6,2-2.4,2.8l0.2,0.3
			c0.5,0.7,0.9,1,1.2,1c0.4,0,0.7-0.8,0.9-2.3l0.9,0.6c-0.4,1.9-1,2.8-1.7,2.8s-1.3-0.5-1.9-1.3c-0.1-0.2-0.2-0.4-0.3-0.5
			c-1,0.8-2.2,1.3-3.3,1.7l-0.6-0.8c1.3-0.4,2.5-1,3.5-1.8c-0.3-0.6-0.5-1.3-0.6-2c-0.1-0.3-0.1-0.6-0.2-1.1l-2.5,0.4l-0.1-1
			l2.5-0.4c-0.1-0.6-0.1-1.2-0.1-1.9l-2,0.3l-0.2-0.9l2.1-0.3v-3.1h1v3L792.4,91.9z M790.4,89.4c0.7,0.7,1.3,1.3,1.7,1.7l-0.8,0.5
			c-0.4-0.5-0.9-1.1-1.7-1.8L790.4,89.4z"/>
	</g>
	<g>
		<polygon class="st4" points="698,105 698,86 696,86 696,105 696,107 698,107 726,107 726,105 		"/>
		<polygon class="st4" points="705.6,99 710.9,100 713.2,94.7 720.8,93.9 725.1,87.2 723.4,86.1 719.6,92.1 711.8,92.9 709.7,97.8 
			704.9,96.8 700,102.3 701.5,103.6 		"/>
	</g>
</g>
<g>
	<path class="st3" d="M738.6,153.7h2.9v6.2c0.6-0.5,1.1-1,1.6-1.4l0.3,1.1c-0.9,0.8-1.8,1.5-2.8,2.2l-0.4-0.9
		c0.2-0.2,0.3-0.4,0.3-0.6v-5.5h-1.9L738.6,153.7L738.6,153.7z M740.2,149.6c0.9,0.7,1.7,1.4,2.3,2.1l-0.7,0.7
		c-0.6-0.7-1.4-1.4-2.4-2.2L740.2,149.6z M743.6,155.4h6.7v0.9c-0.4,1.3-1.2,2.5-2.2,3.4c0.9,0.6,2.1,1.2,3.5,1.7l-0.5,0.9
		c-1.5-0.6-2.7-1.3-3.7-2c-1.1,0.8-2.5,1.5-4.1,2l-0.6-0.9c1.6-0.5,2.9-1.1,3.9-1.8c-1.1-1-1.8-2.1-2.2-3.3h-0.8L743.6,155.4
		L743.6,155.4z M744.7,150h4.7v3c0,0.4,0.2,0.5,0.5,0.5h1.3v0.9h-1.5c-0.9,0-1.3-0.4-1.3-1.2v-2.3h-2.7v0.5c0,1.5-0.7,2.6-2.2,3.4
		l-0.7-0.8c1.2-0.6,1.8-1.5,1.8-2.6V150H744.7z M745.3,156.3c0.4,1,1,1.9,1.9,2.7c0.9-0.8,1.6-1.7,2-2.7H745.3z"/>
	<path class="st3" d="M758.1,149.5c-0.2,0.3-0.4,0.6-0.7,0.9h5.7v0.8c-0.8,1-1.9,2-3.1,2.7c1.5,0.6,3.3,1.1,5.4,1.4l-0.4,0.9
		c-2.3-0.4-4.3-0.9-5.9-1.7c-1.7,0.8-3.7,1.5-6,1.8l-0.4-0.9c2.1-0.3,3.9-0.8,5.5-1.5c-0.8-0.5-1.6-1.1-2.2-1.8
		c-0.6,0.5-1.2,1-2,1.5l-0.6-0.8c1.6-0.9,2.9-2.1,3.9-3.6L758.1,149.5z M763.4,156.2v6.1h-1v-0.6h-6.9v0.6h-1v-6.1H763.4z
		 M755.6,158.5h3V157h-3V158.5z M755.6,160.8h3v-1.5h-3V160.8z M756.5,151.6c0.7,0.7,1.5,1.3,2.6,1.9c1.1-0.6,2.1-1.3,2.9-2.1h-5.2
		L756.5,151.6z M759.5,157v1.5h3V157H759.5z M759.5,160.8h3v-1.5h-3V160.8z"/>
	<path class="st3" d="M769.2,152.4c-0.5,0.7-1,1.3-1.6,1.8l-0.6-0.8c1.3-1.1,2.1-2.4,2.6-3.9l1,0.1c-0.2,0.7-0.4,1.3-0.7,1.8h2.7
		v-1.9h1v1.9h4.7v1h-4.7v2.3h5.7v1h-12.7v-1h5.9v-2.3L769.2,152.4L769.2,152.4z M777.6,157.1v5.1h-1v-0.7h-7v0.7h-1v-5.1H777.6z
		 M769.5,160.5h7V158h-7V160.5z"/>
	<path class="st3" d="M781,150h1.7v-0.6h0.8v0.6h1.5v-0.6h0.8v0.6h1.7v0.7h-1.7v0.6H785v-0.6h-1.5v0.6h-0.7c0,0.1-0.1,0.2-0.1,0.3
		h4.4c0,1.6-0.1,2.6-0.3,3c-0.1,0.1-0.1,0.2-0.2,0.2l0.5-0.1c0.1,0.2,0.2,0.5,0.4,0.9h5.4v0.7H781v-0.7h5.7
		c-0.1-0.2-0.2-0.4-0.4-0.6c-0.2,0.1-0.4,0.1-0.6,0.1h-0.6l-0.1-0.4h-2.8v-1.9h3v1.6h0.3c0.3,0,0.5-0.2,0.6-0.4
		c0.1-0.3,0.1-0.8,0.1-1.8h-3.8c-0.3,0.6-0.7,1.1-1.2,1.6l-0.5-0.7c0.7-0.5,1.1-1.2,1.3-2.1l0.7,0.1v-0.5H781V150z M791.9,159.7v2.7
		h-1V162h-7.7v0.4h-1v-2.7H791.9z M782.7,157.1h8.8v0.6h-8.8V157.1z M782.7,158.4h8.8v0.6h-8.8V158.4z M784.4,154.3v-0.8h-1.5v0.8
		H784.4z M783.2,161.3h7.7v-0.9h-7.7V161.3z M787.7,153.1l-0.6-0.7c0.8-0.8,1.4-1.8,1.7-3.2l0.9,0.2c-0.1,0.3-0.1,0.6-0.2,0.8h3.3
		v0.8H792c-0.2,1-0.6,1.8-1.2,2.4c0.6,0.4,1.4,0.7,2.3,1l-0.5,0.8c-1-0.3-1.8-0.7-2.5-1.2c-0.7,0.5-1.5,0.9-2.5,1.1l-0.4-0.8
		c0.9-0.2,1.6-0.5,2.2-0.9c-0.4-0.4-0.8-0.8-1-1.3C788.4,152.5,788.1,152.8,787.7,153.1z M789.2,151.1c-0.1,0.1-0.1,0.2-0.1,0.3
		c0.2,0.6,0.6,1.2,1.1,1.6c0.5-0.5,0.8-1.2,1-1.9L789.2,151.1L789.2,151.1z"/>
</g>
<rect x="696" y="140" class="st2" width="32" height="32"/>
<path class="st4" d="M712,146.8l12.4,20.2h-24.8L712,146.8 M712,143l-16,26h32L712,143L712,143z"/>
<polygon class="st4" points="713,153 711,153 711,161 713,161 "/>
<polygon class="st4" points="713,163 711,163 711,165 713,165 "/>
<path class="st5" d="M820,28h-6v1h6V28L820,28z M810,28h-6v1h6V28L810,28z M800,28h-6v1h6V28L800,28z M790,28h-6v1h6V28L790,28z
	 M780,28h-6v1h6V28L780,28z M770,28h-6v1h6V28L770,28z M760,28h-6v1h6V28L760,28z M750,28h-6v1h6V28L750,28z M740,28h-6v1h6V28
	L740,28z M730,28h-6v1h6V28L730,28z M720,28h-6v1h6V28L720,28z M710,28h-6v1h6V28L710,28z M700,28h-6v1h6V28L700,28z M690,28h-6v1h6
	V28L690,28z M680,28h-6v1h6V28L680,28z M670,28h-6v1h6V28L670,28z M660,28h-4v1l0,0c0,0.5,0,1,0,1h1v-1h3V28L660,28z M657,34h-1v6h1
	V34L657,34z M657,44h-1v6h1V44L657,44z M657,54h-1v6h1V54L657,54z M657,64h-1v6h1V64L657,64z M657,74h-1v6h1V74L657,74z M657,84h-1
	v6h1V84L657,84z M657,94h-1v6h1V94L657,94z M657,104h-1v6h1V104L657,104z M657,114h-1v6h1V114L657,114z M657,124h-1v6h1V124L657,124
	z M657,134h-1v6h1V134L657,134z M657,144h-1v6h1V144L657,144z M657,154h-1v6h1V154L657,154z M657,164h-1v6h1V164L657,164z M657,174
	h-1v6h1V174L657,174z M657,184h-1v6h1V184L657,184z M657,194h-1v6h1V194L657,194z M665,200h-6v1h6V200L665,200z M675,200h-6v1h6V200
	L675,200z M685,200h-6v1h6V200L685,200z M695,200h-6v1h6V200L695,200z M705,200h-6v1h6V200L705,200z M715,200h-6v1h6V200L715,200z
	 M725,200h-6v1h6V200L725,200z M735,200h-6v1h6V200L735,200z M745,200h-6v1h6V200L745,200z M755,200h-6v1h6V200L755,200z M765,200
	h-6v1h6V200L765,200z M775,200h-6v1h6V200L775,200z M785,200h-6v1h6V200L785,200z M795,200h-6v1h6V200L795,200z M805,200h-6v1h6V200
	L805,200z M815,200h-6v1h6V200L815,200z M825,200h-6v1h6V200L825,200z M830,196h-1v4l0,0v1h1V196L830,196z M830,186h-1v6h1V186
	L830,186z M830,176h-1v6h1V176L830,176z M830,166h-1v6h1V166L830,166z M830,156h-1v6h1V156L830,156z M830,146h-1v6h1V146L830,146z
	 M830,136h-1v6h1V136L830,136z M830,126h-1v6h1V126L830,126z M830,116h-1v6h1V116L830,116z M830,106h-1v6h1V106L830,106z M830,96h-1
	v6h1V96L830,96z M830,86h-1v6h1V86L830,86z M830,76h-1v6h1V76L830,76z M830,66h-1v6h1V66L830,66z M830,56h-1v6h1V56L830,56z M830,46
	h-1v6h1V46L830,46z M830,36h-1v6h1V36L830,36z M830,28h-6v1h5v3h1V28L830,28z"/>
<g>
	<path class="st3" d="M683.2,41.7h0.8v1.4c0,1.3-0.2,2.5-0.6,3.4h4.7v0.7h-5c-0.1,0.3-0.3,0.6-0.5,0.8c2,0.8,3.8,1.7,5.5,2.7
		l-0.4,0.7c-1.8-1.1-3.6-2.1-5.5-2.8c-1.1,1.1-2.9,2-5.3,2.7l-0.4-0.6c2.6-0.7,4.4-1.6,5.4-2.8c0.1-0.1,0.2-0.3,0.4-0.6h-6.2v-0.7
		h6.6c0.4-1,0.7-2.1,0.7-3.4v-1.5C683.4,41.7,683.2,41.7,683.2,41.7z M687.6,40.1v2.7h-0.8v-1.9h-9.7v2h-0.8v-2.7h5.4
		c-0.2-0.6-0.4-1.1-0.6-1.5l0.8-0.1c0.2,0.5,0.4,1.1,0.6,1.7h5.1V40.1z M677.9,43.7c1,0.4,2,0.9,2.9,1.5l-0.4,0.6
		c-0.9-0.7-1.9-1.2-2.9-1.6L677.9,43.7z M678.8,41.6c1,0.4,1.9,0.9,2.8,1.5l-0.4,0.6c-0.9-0.7-1.8-1.2-2.8-1.6L678.8,41.6z"/>
	<path class="st3" d="M694.1,39.7v10.2h-0.7v-1H691v1.3h-0.8V39.7H694.1z M691,43.9h2.4v-3.5H691V43.9z M691,48.2h2.4v-3.6H691V48.2
		z M696.9,51.2l-0.2-0.7c1.1,0,1.9,0.1,2.3,0.1c0.5,0,0.7-0.3,0.7-0.8V42h-5v-0.7h5v-2.5h0.8v2.5h1.8V42h-1.8v8
		c0,0.8-0.4,1.2-1.2,1.2H696.9z M696.1,43.8c0.9,1.3,1.5,2.4,2,3.5l-0.6,0.4c-0.5-1.1-1.2-2.2-2-3.5L696.1,43.8z"/>
	<path class="st3" d="M714.7,46.3v3.9h1.6v0.7h-12.6v-0.7h1.6v-3.9H714.7z M704.7,39.2h0.7v5.7h-0.7V39.2z M706.1,50.2h2.1V47h-2.1
		V50.2z M707.6,38.5h0.7v6.9h-0.7V38.5z M708.9,50.2h2.2V47h-2.2V50.2z M711.4,41.1c-0.5,1.2-1,2.1-1.7,2.9l-0.5-0.6
		c1-1.2,1.7-2.8,2.1-4.9l0.8,0.1c-0.1,0.6-0.3,1.2-0.4,1.7h4.3V41L711.4,41.1L711.4,41.1z M711.8,50.2h2.1V47h-2.1V50.2z
		 M712.8,42.2c0.8,1,1.4,1.8,1.8,2.5l-0.6,0.4c-0.4-0.8-1-1.7-1.8-2.6L712.8,42.2z"/>
	<path class="st3" d="M718,51.2l-0.2-0.7c0.5,0,0.9,0.1,1.1,0.1c0.4,0,0.6-0.2,0.6-0.7v-3.7c-0.6,0.2-1.2,0.5-1.8,0.6l-0.2-0.8
		c0.7-0.2,1.4-0.4,2-0.6v-3.3h-1.8v-0.7h1.8v-2.7h0.8v2.7h1.3v0.7h-1.3v3c0.4-0.2,0.8-0.4,1.3-0.6v0.8c-0.4,0.2-0.9,0.4-1.3,0.6v4.2
		c0,0.8-0.4,1.2-1.1,1.2L718,51.2L718,51.2z M725.8,46.8h-3.4v-0.7h7.4v0.7h-3.3v3.3h3.9v0.7h-8.6v-0.7h3.9L725.8,46.8L725.8,46.8z
		 M725.9,38.4c0.3,0.6,0.5,1.2,0.7,1.8h3.3v2.5h-0.7v-1.8H723v1.8h-0.7v-2.5h3.6c-0.2-0.6-0.5-1.2-0.8-1.6L725.9,38.4z M725.5,42.2
		c-0.7,1.4-1.6,2.5-2.6,3.2l-0.5-0.5c1.1-0.7,1.9-1.7,2.5-3L725.5,42.2z M727.3,41.9c0.9,0.9,1.7,1.9,2.4,3.1l-0.7,0.3
		c-0.7-1.2-1.5-2.2-2.4-3.1L727.3,41.9z"/>
</g>
<rect x="40" y="52" class="st2" width="32" height="32"/>
<g>
	<path class="st3" d="M92,134c-0.5,0-1.3,0-2.5,0c-0.9,0-1.6-0.1-2.2-0.3s-1-0.5-1.5-1c-0.2-0.2-0.4-0.3-0.5-0.3
		c-0.3,0-0.9,0.6-1.7,1.9l-0.8-0.7c0.8-1.2,1.4-1.9,2-2.1v-4.3h-2v-0.9h2.9v5.2c0.1,0.1,0.2,0.2,0.3,0.3c0.3,0.4,0.7,0.7,1.1,0.9
		s1.1,0.3,1.9,0.3c1,0,1.9,0,2.7,0c0.4,0,1.1,0,2,0c0.8,0,1.3,0,1.6-0.1l-0.2,1H92V134z M83.8,121.6c1,0.8,1.8,1.5,2.4,2.2l-0.7,0.7
		c-0.6-0.7-1.3-1.4-2.3-2.2L83.8,121.6z M86.8,125.3H95v0.9h-4.4c-0.8,2-1.5,3.4-2.1,4.2c1.9-0.2,3.5-0.4,4.7-0.7
		c-0.3-0.7-0.7-1.4-1.1-2.2l0.8-0.3c0.7,1.2,1.4,2.7,2,4.4l-0.9,0.2c-0.1-0.3-0.3-0.7-0.5-1.3c-1.5,0.3-3.6,0.6-6.2,0.8l-0.3-0.9
		c0.6-0.2,1.4-1.6,2.5-4.3h-2.8v-0.8H86.8z M87.7,122H94v0.9h-6.3V122z"/>
	<path class="st3" d="M99.2,125.3h0.9v2.1h1.3v0.9h-1.3v1.9c0.4-0.1,0.8-0.2,1.3-0.3v1l-1.3,0.3v3.1h-0.9v-2.9
		c-0.8,0.1-1.6,0.3-2.5,0.4l-0.1-1c0.9-0.1,1.7-0.2,2.6-0.4v-2.1H97l-0.2-0.8c0.4-0.8,0.7-1.9,1.1-3.1h-1.2v-1h1.4
		c0.1-0.6,0.3-1.2,0.4-2l0.9,0.2c-0.1,0.7-0.3,1.3-0.4,1.8h2.5v1h-2.7c-0.3,1.2-0.6,2.2-1,3.1h1.4L99.2,125.3L99.2,125.3z
		 M103.3,124.6c-0.6,0.5-1.1,1-1.6,1.4l-0.5-0.8c1.4-1.1,2.7-2.3,3.9-3.7h0.7c1.2,1.5,2.5,2.7,3.7,3.6l-0.5,0.8
		c-1.3-1-2.5-2.1-3.6-3.5C104.7,123.2,104,124,103.3,124.6h4v0.8h-4V124.6z M103.6,134.2l-0.2-0.8h0.6c0.3,0,0.5-0.2,0.5-0.5v-1.3
		h-1.6v2.6H102v-7.7h3.3v6.5c0,0.7-0.3,1.1-1,1.1L103.6,134.2L103.6,134.2z M102.9,128.7h1.6v-1.4h-1.6V128.7z M102.9,130.9h1.6
		v-1.3h-1.6V130.9z M106.2,126.9h0.8v5h-0.8V126.9z M106.5,134.2l-0.2-0.9c0.5,0,0.9,0.1,1.1,0.1c0.3,0,0.4-0.2,0.4-0.6v-6.5h0.9
		v6.7c0,0.8-0.3,1.2-1,1.2H106.5z"/>
	<path class="st3" d="M114.6,122c-0.8,1.5-2,2.9-3.8,4.1l-0.3-1c1.4-1,2.5-2.2,3.2-3.5L114.6,122z M115.3,125.2
		c-0.4,0.8-0.9,1.6-1.5,2.2v6.9h-1v-5.8c-0.6,0.6-1.2,1-1.8,1.5l-0.3-1c1.7-1.2,3-2.6,3.7-4.1L115.3,125.2z M115.6,125.9h7.7v1H121
		v6c0,0.9-0.5,1.3-1.4,1.3h-2l-0.2-1c0.7,0,1.4,0.1,1.9,0.1s0.7-0.2,0.7-0.7v-5.8h-4.4V125.9z M115.9,122.3h6.7v1h-6.7V122.3z"/>
	<path class="st3" d="M129,121.6h1v11.1h2v-11.1h1v11.1h4.2v1h-12.4v-1h4.2V121.6z M126,124.1c0.7,1.9,1.4,4.1,2,6.5l-0.9,0.2
		c-0.5-2.2-1.1-4.4-1.9-6.5L126,124.1z M136.8,124.4c-0.6,2.4-1.3,4.6-2.1,6.4l-0.9-0.3c0.8-1.7,1.5-3.8,2.1-6.3L136.8,124.4z"/>
</g>
<rect x="40" y="112" class="st2" width="32" height="32"/>
<g>
	<path class="st3" d="M84.6,183.3c-0.3,0.5-0.7,1-1.1,1.3l-0.6-0.8c0.7-0.6,1.2-1.5,1.7-2.6l0.9,0.2c-0.1,0.3-0.2,0.6-0.4,0.9h4v0.9
		H87c0,0.5-0.1,0.9-0.1,1.4h2.6v0.9h-2.8c-0.1,0.2-0.1,0.3-0.1,0.4c1.1,0.5,2,1.1,2.7,1.6l-0.7,0.7c-0.6-0.5-1.3-1.1-2.3-1.6
		c-0.6,1-1.5,1.8-2.9,2.4l-0.7-0.8c1.4-0.6,2.4-1.4,2.9-2.4l0.1-0.3h-2.8v-0.9H86c0.1-0.4,0.1-0.8,0.2-1.4h-1.6V183.3z M93.7,188.5
		v5.8h-1v-0.6h-6.9v0.6h-1v-5.8H93.7z M85.7,190.7h6.9v-1.3h-6.9V190.7z M85.7,192.8h6.9v-1.2h-6.9V192.8z M90.1,182.4h4.6v5.1h-4.6
		V182.4z M93.7,186.6v-3.3H91v3.3H93.7z"/>
	<path class="st3" d="M101.7,182.4c0.9,1.2,1.5,2.2,2,3l-0.8,0.6c-0.1-0.3-0.3-0.6-0.5-0.9c-1.4,0.2-3.2,0.4-5.4,0.5l-0.3-0.8
		c0.2,0,0.3-0.1,0.5-0.3c0.9-0.9,1.6-1.9,2.2-3l1,0.3c-0.7,1.3-1.4,2.2-2.1,2.9c1.2-0.1,2.5-0.2,3.7-0.3c-0.3-0.5-0.6-1-1-1.4
		L101.7,182.4z M98.5,191.6v2.7h-1v-7.9h5.2v6.6c0,0.8-0.4,1.2-1.2,1.2h-1.2l-0.3-1h1.1c0.4,0,0.5-0.2,0.5-0.5v-1.1H98.5z
		 M101.8,188.6v-1.3h-3.3v1.3H101.8z M98.5,189.5v1.3h3.3v-1.3H98.5z M105.3,187.5c-0.9,0-1.3-0.5-1.3-1.4v-4.7h1v1.9
		c1.5-0.2,2.8-0.5,3.8-0.7l0.3,0.9c-1.2,0.3-2.6,0.6-4.1,0.8v1.7c0,0.5,0.2,0.7,0.6,0.7h1.8c0.3,0,0.5-0.1,0.6-0.2
		c0.1-0.2,0.2-0.7,0.3-1.6l0.9,0.3c-0.1,1.1-0.3,1.8-0.5,2.1c-0.2,0.2-0.6,0.3-1.1,0.3h-2.3C105.3,187.6,105.3,187.5,105.3,187.5z
		 M105,192.6c0,0.3,0.2,0.5,0.5,0.5h1.8c0.3,0,0.5-0.1,0.6-0.2c0.1-0.2,0.2-0.7,0.3-1.6l0.9,0.3c-0.1,1.1-0.3,1.8-0.5,2.1
		c-0.2,0.2-0.6,0.3-1.1,0.3h-2.3c-0.8,0-1.3-0.4-1.3-1.2V188h1v1.7c1.4-0.1,2.7-0.4,3.8-0.7l0.3,0.9c-1.2,0.4-2.6,0.6-4.1,0.7
		L105,192.6L105,192.6z"/>
	<path class="st3" d="M118.3,189c0.2,0.7,0.4,1.4,0.4,2.2c0,1.1-0.1,1.9-0.4,2.3c-0.3,0.5-1.1,0.7-2.3,0.7h-0.5l-0.3-0.9h0.7
		c0.8,0,1.3-0.1,1.6-0.4c0.3-0.3,0.4-0.9,0.4-1.8c0-0.3,0-0.5-0.1-0.7c-1.6,1.2-3.6,2.2-6.1,3l-0.5-0.9c2.8-0.8,5-1.9,6.5-3.1
		c-0.1-0.4-0.3-0.8-0.4-1c-1.3,1-3.1,1.9-5.4,2.5l-0.5-0.9c2.4-0.6,4.2-1.4,5.4-2.4c-0.1-0.2-0.3-0.5-0.6-0.7l-0.3,0.2
		c-1,0.4-2.2,0.9-3.8,1.3l-0.5-0.8c1.4-0.3,2.6-0.7,3.6-1.1c0.6-0.3,1.1-0.5,1.4-0.7h-3.7v-0.9h8.4v0.9H118
		c-0.5,0.3-0.9,0.6-1.1,0.7c0.5,0.5,0.9,1.1,1.2,1.6c1.3-0.4,2.5-0.9,3.7-1.7l0.7,0.7c-0.8,0.5-1.6,0.9-2.4,1.2
		c0.7,1.8,1.7,3.2,3.2,4.2l-0.7,0.8c-1.5-1.2-2.6-2.8-3.3-4.7L118.3,189z M117.2,181.3c0.1,0.3,0.3,0.8,0.5,1.3h5.3v2.4h-1v-1.5
		h-9.8v1.5h-1v-2.4h5.5c-0.1-0.4-0.3-0.8-0.5-1.1L117.2,181.3z"/>
	<path class="st3" d="M130.3,190.3h-3.4v1.2h-1v-8.2h4.5v-1.9h1v1.9h4.5v7h-4.5v1.7c0,0.7,0.3,1,0.9,1h3.2c0.3,0,0.6-0.1,0.8-0.2
		c0.1-0.2,0.2-0.7,0.3-1.7l1,0.3c-0.1,1.2-0.2,1.9-0.5,2.2c-0.3,0.2-0.7,0.4-1.4,0.4H132c-1.1,0-1.7-0.6-1.7-1.8V190.3z
		 M130.3,184.3h-3.4v2.1h3.4V184.3z M126.8,187.3v2.1h3.4v-2.1H126.8z M134.8,186.4v-2.1h-3.5v2.1H134.8z M131.3,189.4h3.5v-2.1
		h-3.5V189.4z"/>
</g>
<rect x="40" y="172" class="st2" width="32" height="32"/>
<path class="st5" d="M164,0h-6v1h6V0L164,0z M154,0h-6v1h6V0L154,0z M144,0h-6v1h6V0L144,0z M134,0h-6v1h6V0L134,0z M124,0h-6v1h6V0
	L124,0z M114,0h-6v1h6V0L114,0z M104,0h-6v1h6V0L104,0z M94,0h-6v1h6V0L94,0z M84,0h-6v1h6V0L84,0z M74,0h-6v1h6V0L74,0z M64,0h-6v1
	h6V0L64,0z M54,0h-6v1h6V0L54,0z M44,0h-6v1h6V0L44,0z M34,0h-6v1h6V0L34,0z M24,0h-6v1h6V0L24,0z M14,0H8v1h6V0L14,0z M4,0H0v1l0,0
	c0,0.5,0,1,0,1h1V1h3V0L4,0z M1,6H0v6h1V6L1,6z M1,16H0v6h1V16L1,16z M1,26H0v6h1V26L1,26z M1,36H0v6h1V36L1,36z M1,46H0v6h1V46
	L1,46z M1,56H0v6h1V56L1,56z M1,66H0v6h1V66L1,66z M1,76H0v6h1V76L1,76z M1,86H0v6h1V86L1,86z M1,96H0v6h1V96L1,96z M1,106H0v6h1
	V106L1,106z M1,116H0v6h1V116L1,116z M1,126H0v6h1V126L1,126z M1,136H0v6h1V136L1,136z M1,146H0v6h1V146L1,146z M1,156H0v6h1V156
	L1,156z M1,166H0v6h1V166L1,166z M1,176H0v6h1V176L1,176z M1,186H0v6h1V186L1,186z M1,196H0v6h1V196L1,196z M1,206H0v6h1V206L1,206z
	 M1,216H0v6h1V216L1,216z M1,226H0v6h1V226L1,226z M9,232H3v1h6V232L9,232z M19,232h-6v1h6V232L19,232z M29,232h-6v1h6V232L29,232z
	 M39,232h-6v1h6V232L39,232z M49,232h-6v1h6V232L49,232z M59,232h-6v1h6V232L59,232z M69,232h-6v1h6V232L69,232z M79,232h-6v1h6V232
	L79,232z M89,232h-6v1h6V232L89,232z M99,232h-6v1h6V232L99,232z M109,232h-6v1h6V232L109,232z M119,232h-6v1h6V232L119,232z
	 M129,232h-6v1h6V232L129,232z M139,232h-6v1h6V232L139,232z M149,232h-6v1h6V232L149,232z M159,232h-6v1h6V232L159,232z M169,232
	h-6v1h6V232L169,232z M174,228h-1v4l0,0v1h1V228L174,228z M174,218h-1v6h1V218L174,218z M174,208h-1v6h1V208L174,208z M174,198h-1v6
	h1V198L174,198z M174,188h-1v6h1V188L174,188z M174,178h-1v6h1V178L174,178z M174,168h-1v6h1V168L174,168z M174,158h-1v6h1V158
	L174,158z M174,148h-1v6h1V148L174,148z M174,138h-1v6h1V138L174,138z M174,128h-1v6h1V128L174,128z M174,118h-1v6h1V118L174,118z
	 M174,108h-1v6h1V108L174,108z M174,98h-1v6h1V98L174,98z M174,88h-1v6h1V88L174,88z M174,78h-1v6h1V78L174,78z M174,68h-1v6h1V68
	L174,68z M174,58h-1v6h1V58L174,58z M174,48h-1v6h1V48L174,48z M174,38h-1v6h1V38L174,38z M174,28h-1v6h1V28L174,28z M174,18h-1v6h1
	V18L174,18z M174,8h-1v6h1V8L174,8z M174,0h-6v1h5v3h1V0L174,0z"/>
<g>
	<path class="st3" d="M21.5,12.4c-0.3,0.5-0.7,1-1.1,1.4l-0.5-0.6c0.7-0.7,1.3-1.6,1.7-2.7l0.7,0.2c-0.2,0.4-0.3,0.8-0.4,1h4.2v0.7
		h-2.2c0,0.6-0.1,1.1-0.2,1.6h2.7v0.7h-2.9l-0.2,0.5c1,0.5,2,1.1,2.7,1.7l-0.5,0.5c-0.6-0.5-1.4-1.1-2.4-1.7c-0.6,1-1.5,1.9-3,2.5
		l-0.5-0.6c1.5-0.7,2.4-1.5,2.9-2.5l0.2-0.5h-3V14H23c0.1-0.5,0.2-1,0.2-1.6H21.5z M30.5,17.7v5.7h-0.8v-0.7h-7.2v0.7h-0.8v-5.7
		H30.5z M22.6,19.9h7.2v-1.5h-7.2C22.6,18.4,22.6,19.9,22.6,19.9z M22.6,22h7.2v-1.4h-7.2C22.6,20.6,22.6,22,22.6,22z M27.1,11.6
		h4.4v5h-4.4V11.6z M30.8,15.9v-3.6h-2.9v3.6H30.8z"/>
	<path class="st3" d="M38.6,11.6c0.9,1.2,1.6,2.2,2,3L40,15c-0.3-0.5-0.4-0.8-0.5-1c-1.5,0.2-3.4,0.4-5.4,0.5L33.8,14
		c0.1,0,0.2-0.1,0.4-0.2c0.9-0.8,1.6-1.9,2.3-3.1l0.7,0.2c-0.7,1.3-1.5,2.4-2.3,3.1c1.2-0.1,2.6-0.2,4.2-0.4
		C38.7,13,38.3,12.5,38,12L38.6,11.6z M35.3,20.7v2.7h-0.7v-7.7h5.1v6.6c0,0.7-0.4,1-1.1,1h-1.2l-0.2-0.7h1.1c0.4,0,0.6-0.2,0.6-0.5
		v-1.4H35.3z M38.9,17.8v-1.5h-3.6v1.5H38.9z M35.3,18.5V20h3.6v-1.5H35.3z M42.3,16.6c-0.8,0-1.2-0.4-1.2-1.2v-4.8h0.7v2
		c1.6-0.3,2.9-0.5,3.9-0.8l0.3,0.7c-1.2,0.3-2.6,0.6-4.2,0.8v1.9c0,0.5,0.2,0.7,0.7,0.7h2c0.3,0,0.5-0.1,0.7-0.2
		c0.2-0.2,0.3-0.7,0.3-1.7l0.7,0.2c-0.1,1.1-0.3,1.8-0.5,2s-0.6,0.3-1,0.3h-2.4V16.6z M41.9,21.9c0,0.4,0.2,0.6,0.6,0.6h1.9
		c0.3,0,0.5-0.1,0.7-0.2c0.2-0.2,0.3-0.8,0.3-1.7l0.7,0.2c-0.1,1.1-0.3,1.8-0.5,2.1c-0.2,0.2-0.6,0.3-1,0.3h-2.3
		c-0.7,0-1.1-0.4-1.1-1.1v-4.8h0.7v1.8c1.5-0.2,2.8-0.4,3.9-0.8L46,19c-1.3,0.4-2.7,0.6-4.2,0.7v2.2C41.8,21.9,41.9,21.9,41.9,21.9z
		"/>
	<path class="st3" d="M48.9,14.3c-0.2,0.7-0.4,1.4-0.7,2.1l-0.7-0.2c0.6-1.5,0.9-3,1-4.7h0.7c0,0.6-0.1,1.3-0.2,2h1.2v-3H51v3h1.3
		v0.7H51V18c0.4-0.2,0.8-0.4,1.2-0.6v0.7c-0.5,0.3-0.9,0.5-1.2,0.6v4.6h-0.8V19c-0.8,0.3-1.5,0.6-2.3,0.9l-0.2-0.7
		c0.9-0.2,1.7-0.5,2.5-0.8v-4L48.9,14.3L48.9,14.3z M54.9,10.8c-0.2,0.9-0.4,1.6-0.6,2.2h5.5c0,4.5-0.1,7.3-0.2,8.4
		c-0.1,1.3-0.9,1.9-2.2,1.9c-0.2,0-0.5,0-1,0l-0.2-0.7c0.4,0,0.8,0,1.1,0c0.9,0,1.4-0.5,1.6-1.4c0.1-0.8,0.2-3.3,0.2-7.5h-1.2
		c-0.3,2.4-0.7,4.3-1.3,5.7c-0.6,1.5-1.6,2.8-2.9,3.9l-0.5-0.6c1.2-1.1,2.1-2.3,2.7-3.6c0.6-1.3,1-3.1,1.3-5.4h-1.3
		c-0.6,3.1-1.6,5.3-3.2,6.7l-0.5-0.6c1.5-1.3,2.5-3.3,3-6.2H54c-0.4,0.9-0.8,1.7-1.3,2.3l-0.6-0.5c0.9-1.1,1.6-2.8,2-4.9L54.9,10.8z
		"/>
	<path class="st3" d="M61.7,11.2h5.5v0.7h-1v8l1-0.3v0.7c-0.2,0.1-0.6,0.2-1,0.3v2.8h-0.7v-2.6c-1.1,0.3-2.2,0.5-3.6,0.8l-0.2-0.7
		l0.9-0.2v-8.8h-0.9V11.2z M63.3,14.2h2.1v-2.3h-2.1C63.3,11.9,63.3,14.2,63.3,14.2z M63.3,17.2h2.1V15h-2.1
		C63.3,15,63.3,17.2,63.3,17.2z M63.3,20.6c0.6-0.1,1.3-0.3,2.1-0.5v-2.3h-2.1C63.3,17.8,63.3,20.6,63.3,20.6z M67.5,13.7H71
		c0.6-1,1-2,1.4-3.1l0.7,0.3c-0.4,1.2-0.9,2.1-1.4,2.8H74v0.7h-3V15c0,0.7,0,1.4-0.1,2.1h3.3v0.7h-3.1c0.4,1.6,1.4,3.3,3.2,5
		l-0.5,0.5c-1.8-1.7-2.8-3.4-3.2-5c-0.5,2.3-1.6,4-3.3,5.1l-0.5-0.6c1.7-1,2.7-2.7,3.1-4.9h-2.8v-0.7H70c0.1-0.6,0.1-1.3,0.1-1.9
		v-0.7h-2.8v-0.9C67.3,13.7,67.5,13.7,67.5,13.7z M68.7,10.7c0.6,0.8,1,1.6,1.3,2.2l-0.6,0.4c-0.3-0.7-0.8-1.4-1.4-2.2L68.7,10.7z"
		/>
	<path class="st3" d="M75.7,15h2.8v6.4c0.5-0.4,1.1-0.9,1.8-1.6l0.2,0.8c-0.8,0.8-1.7,1.5-2.7,2.2l-0.3-0.7c0.2-0.2,0.3-0.4,0.3-0.5
		v-5.9h-2V15H75.7z M77.1,10.8c1,0.7,1.8,1.5,2.4,2.2L79,13.5c-0.6-0.7-1.4-1.4-2.4-2.2L77.1,10.8z M80.6,16.6h6.6v0.7
		c-0.5,1.4-1.3,2.6-2.3,3.5c1,0.7,2.2,1.4,3.7,1.9l-0.4,0.6c-1.5-0.6-2.8-1.3-3.8-2.1c-1.1,0.9-2.5,1.6-4.2,2.1l-0.4-0.6
		c1.6-0.5,3-1.1,4-1.9c-1.1-1-1.9-2.2-2.3-3.5h-0.7v-0.7H80.6z M81.8,11.2h4.5v3.1c0,0.4,0.2,0.5,0.6,0.5h1.3v0.7h-1.5
		c-0.8,0-1.2-0.4-1.2-1.1v-2.5h-3v0.6c0,1.5-0.7,2.7-2.1,3.5l-0.5-0.6c1.3-0.7,1.9-1.6,1.9-2.8C81.8,12.6,81.8,11.2,81.8,11.2z
		 M82.1,17.3c0.4,1.1,1.1,2.2,2.1,3c1-0.9,1.7-1.9,2.2-3H82.1z"/>
	<path class="st3" d="M95,10.6c-0.2,0.3-0.5,0.7-0.7,1.1h5.8v0.6c-0.9,1.1-2,2-3.3,2.8c1.6,0.7,3.4,1.2,5.6,1.5l-0.4,0.7
		c-2.3-0.4-4.3-0.9-6-1.8c-1.7,0.9-3.7,1.5-6.1,1.9l-0.3-0.7c2.2-0.3,4.1-0.9,5.7-1.6c-1-0.6-1.8-1.2-2.5-1.9
		c-0.6,0.6-1.3,1.1-2.1,1.5l-0.5-0.6c1.7-1,3-2.2,3.9-3.7L95,10.6z M100.3,17.4v6h-0.7v-0.7h-7.1v0.7h-0.7v-6H100.3z M92.4,19.7h3.2
		V18h-3.2V19.7z M92.4,22h3.2v-1.7h-3.2V22z M96,14.7c1.2-0.7,2.3-1.5,3.1-2.4h-5.5c-0.2,0.2-0.3,0.3-0.4,0.4
		C94.1,13.5,95,14.2,96,14.7z M96.4,18v1.7h3.2V18H96.4z M96.4,22h3.2v-1.7h-3.2V22z"/>
</g>
<g>
	<g>
		<path class="st3" d="M88.3,70.3h-3.4v1.2h-1v-8.2h4.5v-1.9h1v1.9h4.5v7h-4.5V72c0,0.7,0.3,1,0.9,1h3.2c0.3,0,0.6-0.1,0.8-0.2
			c0.1-0.2,0.2-0.7,0.3-1.7l1,0.3c-0.1,1.2-0.2,1.9-0.5,2.2c-0.3,0.2-0.7,0.4-1.4,0.4H90c-1.1,0-1.7-0.6-1.7-1.8V70.3z M88.3,64.3
			h-3.4v2.1h3.4V64.3z M84.8,67.3v2.1h3.4v-2.1H84.8z M92.8,66.4v-2.1h-3.5v2.1H92.8z M89.3,69.4h3.5v-2.1h-3.5V69.4z"/>
		<path class="st3" d="M101.8,61.5h1v1.3c0,0.6,0,1.1-0.1,1.4h5.4c-0.1,2.6-0.1,4.6-0.3,6c-0.1,1.5-0.4,2.5-0.7,3.2
			c-0.3,0.6-0.8,0.9-1.6,0.9h-1.9l-0.3-1c0.6,0,1.1,0,1.7,0c0.8,0,1.3-0.5,1.5-1.5s0.4-3.2,0.5-6.7h-4.4c-0.2,2.1-0.6,3.8-1.2,5.1
			c-0.8,1.7-2.2,3.1-4,4l-0.5-0.9c1.8-1,3.1-2.3,3.8-3.9c0.5-1.2,0.8-2.7,1-4.4h-4.1v-1h4.2c0-0.3,0-0.7,0.1-1.4L101.8,61.5
			L101.8,61.5z"/>
		<path class="st3" d="M114.6,62c-0.8,1.5-2,2.9-3.8,4.1l-0.3-1c1.4-1,2.5-2.2,3.2-3.5L114.6,62z M115.3,65.2
			c-0.4,0.8-0.9,1.6-1.5,2.2v6.9h-1v-5.8c-0.6,0.6-1.2,1-1.8,1.5l-0.3-1c1.7-1.2,3-2.6,3.7-4.1L115.3,65.2z M115.6,65.9h7.7v1H121v6
			c0,0.9-0.5,1.3-1.4,1.3h-2l-0.2-1c0.7,0,1.4,0.1,1.9,0.1s0.7-0.2,0.7-0.7v-5.8h-4.4V65.9z M115.9,62.3h6.7v1h-6.7V62.3z"/>
		<path class="st3" d="M129,61.6h1v11.1h2V61.6h1v11.1h4.2v1h-12.4v-1h4.2V61.6z M126,64.1c0.7,1.9,1.4,4.1,2,6.5l-0.9,0.2
			c-0.5-2.2-1.1-4.4-1.9-6.5L126,64.1z M136.8,64.4c-0.6,2.4-1.3,4.6-2.1,6.4l-0.9-0.3c0.8-1.7,1.5-3.8,2.1-6.3L136.8,64.4z"/>
	</g>
	<g>
		<rect x="49.8" y="65" class="st4" width="2" height="14"/>
		<path class="st4" d="M50.8,62c-1.1,0-2,0.9-2,2s0.9,2,2,2s2-0.9,2-2S51.9,62,50.8,62L50.8,62z"/>
		<rect x="40.9" y="66" transform="matrix(0.8422 -0.5392 0.5392 0.8422 -28.9204 35.1486)" class="st4" width="9.4" height="2"/>
		<rect x="53.9" y="61.8" transform="matrix(0.6117 -0.7911 0.7911 0.6117 -31.5309 69.3909)" class="st4" width="2" height="10"/>
		<rect x="47.6" y="57.5" transform="matrix(0.2953 -0.9554 0.9554 0.2953 -18.9663 91.2483)" class="st4" width="9.5" height="2"/>
		<rect x="62.8" y="71" class="st4" width="2" height="8"/>
		<rect x="57.6" y="71.3" transform="matrix(0.7642 -0.645 0.645 0.7642 -32.3022 56.246)" class="st4" width="6.3" height="2"/>
		<rect x="66.5" y="68.1" transform="matrix(0.275 -0.9614 0.9614 0.275 -19.4388 116.4913)" class="st4" width="2" height="6.1"/>
		<rect x="61.5" y="63.1" transform="matrix(0.9646 -0.2637 0.2637 0.9646 -15.2327 18.8213)" class="st4" width="2" height="6.1"/>
		<rect x="43.8" y="79" class="st4" width="26" height="2"/>
		<path class="st4" d="M63.8,68c-1.1,0-2,0.9-2,2s0.9,2,2,2c1.1,0,2-0.9,2-2S64.9,68,63.8,68L63.8,68z"/>
	</g>
</g>
<g>
	<path class="st4" d="M59,119v15H42v-15H59 M61,117H40v19h21V117L61,117z"/>
	<path class="st4" d="M68.2,123l1.8,1.8v9.2h-9v-11H68.2 M69,121H59v15h13v-12L69,121L69,121z"/>
	<g>
		<circle class="st6" cx="46.5" cy="135.5" r="3.5"/>
		<path class="st4" d="M46.5,134c0.8,0,1.5,0.7,1.5,1.5s-0.7,1.5-1.5,1.5s-1.5-0.7-1.5-1.5S45.7,134,46.5,134 M46.5,132
			c-1.9,0-3.5,1.6-3.5,3.5s1.6,3.5,3.5,3.5s3.5-1.6,3.5-3.5S48.4,132,46.5,132L46.5,132z"/>
	</g>
	<g>
		<circle class="st6" cx="65.5" cy="135.5" r="3.5"/>
		<path class="st4" d="M65.5,134c0.8,0,1.5,0.7,1.5,1.5s-0.7,1.5-1.5,1.5s-1.5-0.7-1.5-1.5S64.7,134,65.5,134 M65.5,132
			c-1.9,0-3.5,1.6-3.5,3.5s1.6,3.5,3.5,3.5s3.5-1.6,3.5-3.5S67.4,132,65.5,132L65.5,132z"/>
	</g>
	<polygon class="st4" points="70,127 65,127 65,129 70,129 	"/>
	<polygon class="st4" points="60,128 41,128 41,130 60,130 	"/>
	<g>
		<circle class="st6" cx="65.5" cy="135.5" r="3.5"/>
		<path class="st4" d="M65.5,134c0.8,0,1.5,0.7,1.5,1.5s-0.7,1.5-1.5,1.5s-1.5-0.7-1.5-1.5S64.7,134,65.5,134 M65.5,132
			c-1.9,0-3.5,1.6-3.5,3.5s1.6,3.5,3.5,3.5s3.5-1.6,3.5-3.5S67.4,132,65.5,132L65.5,132z"/>
	</g>
</g>
<g>
	<path class="st4" d="M66,175v27H45v-27H66 M68,173H43v31h25V173L68,173z"/>
	<path class="st4" d="M55.5,187c3,0,5.5,2.5,5.5,5.5s-2.5,5.5-5.5,5.5s-5.5-2.5-5.5-5.5S52.5,187,55.5,187 M55.5,185
		c-4.1,0-7.5,3.4-7.5,7.5s3.4,7.5,7.5,7.5s7.5-3.4,7.5-7.5S59.6,185,55.5,185L55.5,185z"/>
	<path class="st4" d="M55.5,191c0.8,0,1.5,0.7,1.5,1.5s-0.7,1.5-1.5,1.5s-1.5-0.7-1.5-1.5S54.7,191,55.5,191 M55.5,189
		c-1.9,0-3.5,1.6-3.5,3.5s1.6,3.5,3.5,3.5s3.5-1.6,3.5-3.5S57.4,189,55.5,189L55.5,189z"/>
	<path class="st4" d="M55.5,179c0.8,0,1.5,0.7,1.5,1.5s-0.7,1.5-1.5,1.5s-1.5-0.7-1.5-1.5S54.7,179,55.5,179 M55.5,177
		c-1.9,0-3.5,1.6-3.5,3.5s1.6,3.5,3.5,3.5s3.5-1.6,3.5-3.5S57.4,177,55.5,177L55.5,177z"/>
</g>
<rect x="186" y="38" class="st7" width="454" height="152"/>
<g>
	<g>
		<path class="st8" d="M212,50.6c0.7,0.5,1,1.3,1.1,2.4H212c-0.1-0.7-0.4-1.3-0.8-1.6c-0.4-0.4-1.1-0.5-1.9-0.5
			c-0.8,0-1.3,0.1-1.7,0.4c-0.5,0.3-0.7,0.7-0.7,1.3c0,0.5,0.3,0.9,0.9,1.2c0.2,0.1,0.9,0.4,1.8,0.6c1.3,0.4,2.2,0.7,2.6,1
			c0.8,0.5,1.2,1.2,1.2,2.1c0,0.9-0.4,1.6-1,2.1c-0.7,0.5-1.7,0.7-2.8,0.7c-1.2,0-2.1-0.3-2.8-0.8c-0.8-0.6-1.2-1.5-1.3-2.7h1.1
			c0.1,0.9,0.4,1.5,0.9,1.9s1.2,0.6,2,0.6s1.5-0.2,2-0.5s0.8-0.7,0.8-1.3s-0.3-1.1-1-1.5c-0.3-0.1-1-0.4-2.1-0.7
			c-1.2-0.4-1.9-0.6-2.3-0.8c-0.8-0.4-1.1-1.1-1.1-1.9c0-0.9,0.4-1.6,1.1-2c0.7-0.4,1.5-0.7,2.5-0.7C210.5,49.8,211.4,50.1,212,50.6
			z"/>
		<path class="st8" d="M216.6,50.4v2.3h1.8v0.9h-1.8v4.6c0,0.3,0.1,0.5,0.2,0.6c0.1,0.1,0.3,0.2,0.5,0.2h0.9v1h-1.1
			c-0.6,0-1-0.2-1.3-0.5c-0.2-0.3-0.4-0.7-0.4-1.2v-4.6h-1.5v-0.9h1.5v-1.9L216.6,50.4z"/>
		<path class="st8" d="M223.9,52.7v1.1c-0.3-0.1-0.7-0.2-1.1-0.2c-0.6,0-1,0.2-1.4,0.7s-0.6,1-0.6,1.7v4h-1.1v-7.2h1.1V54
			c0.2-0.4,0.4-0.8,0.8-1c0.4-0.3,0.8-0.5,1.3-0.5C223.3,52.6,223.6,52.6,223.9,52.7z"/>
		<path class="st8" d="M230.4,53.7c0.5,0.7,0.8,1.7,0.8,3h-5.7c0.1,0.8,0.3,1.5,0.7,1.9s0.9,0.7,1.6,0.7c0.6,0,1.1-0.1,1.4-0.4
			c0.3-0.2,0.5-0.6,0.7-1.1h1.1c-0.2,0.7-0.5,1.3-1,1.7c-0.6,0.5-1.4,0.8-2.3,0.8c-1,0-1.9-0.3-2.5-1s-1-1.6-1-2.8
			c0-1.1,0.3-2,0.9-2.7c0.6-0.8,1.4-1.1,2.5-1.1C228.9,52.6,229.8,53,230.4,53.7z M226.3,54.1c-0.4,0.4-0.6,1-0.7,1.7h4.5
			c-0.1-1.5-0.9-2.3-2.3-2.3C227.2,53.5,226.6,53.7,226.3,54.1z"/>
		<path class="st8" d="M238,53.4c0.4,0.5,0.6,1.1,0.6,2V60h-1v-1.2c-0.3,0.4-0.7,0.7-1.1,1c-0.6,0.3-1.1,0.4-1.8,0.4
			s-1.3-0.2-1.7-0.6c-0.4-0.4-0.7-0.9-0.7-1.5c0-0.9,0.4-1.6,1.1-2c0.6-0.4,1.4-0.5,2.4-0.5h1.7v-0.2c0-1.2-0.6-1.8-1.9-1.8
			c-0.6,0-1,0.1-1.4,0.4c-0.4,0.3-0.6,0.6-0.7,1.1h-1.1c0.1-0.8,0.5-1.4,1.1-1.8c0.5-0.4,1.2-0.6,2.2-0.6
			C236.7,52.6,237.5,52.8,238,53.4z M237.5,56.4h-1.7c-1.6,0-2.4,0.6-2.4,1.7c0,0.4,0.1,0.6,0.4,0.9c0.3,0.2,0.6,0.3,1.1,0.3
			c0.7,0,1.3-0.2,1.9-0.7c0.5-0.4,0.7-1,0.7-1.6V56.4z"/>
		<path class="st8" d="M245.8,53.9c0.3-0.5,0.6-0.8,1-1s0.8-0.3,1.3-0.3c0.7,0,1.4,0.2,1.8,0.7c0.5,0.5,0.7,1.2,0.7,2V60h-1.1v-4.6
			c0-0.6-0.1-1.1-0.4-1.4c-0.3-0.3-0.7-0.5-1.3-0.5c-0.5,0-0.9,0.2-1.2,0.5c-0.3,0.4-0.5,0.8-0.5,1.4V60H245v-4.6
			c0-1.3-0.6-1.9-1.7-1.9c-0.5,0-0.9,0.2-1.3,0.6c-0.3,0.4-0.5,0.9-0.5,1.5V60h-1.1v-7.2h1.1v1c0.5-0.8,1.2-1.2,2-1.2
			C244.7,52.6,245.4,53,245.8,53.9z"/>
		<path class="st8" d="M264.3,50.7c0.8,0.6,1.2,1.4,1.3,2.4h-1.1c-0.1-0.7-0.5-1.3-1.1-1.7c-0.5-0.4-1.2-0.6-2-0.6
			c-1.2,0-2.1,0.4-2.7,1.2s-0.9,1.8-0.9,3c0,1.3,0.3,2.2,0.9,3s1.5,1.2,2.7,1.2c0.8,0,1.5-0.2,2-0.6c0.6-0.5,1-1.1,1.2-2h1.1
			c-0.2,1.2-0.7,2.1-1.6,2.7c-0.8,0.6-1.7,0.9-2.8,0.9c-1.5,0-2.7-0.5-3.6-1.5c-0.7-0.9-1.1-2.1-1.1-3.6s0.4-2.7,1.1-3.7
			c0.8-1.1,2-1.6,3.6-1.6C262.6,49.8,263.5,50.1,264.3,50.7z"/>
		<path class="st8" d="M273,53.7c0.6,0.7,0.9,1.6,0.9,2.7c0,1.1-0.3,2-0.9,2.7c-0.7,0.8-1.5,1.1-2.6,1.1s-1.9-0.4-2.6-1.1
			c-0.6-0.7-0.9-1.6-0.9-2.7c0-1.1,0.3-2,0.9-2.7s1.5-1.1,2.6-1.1C271.5,52.6,272.4,52.9,273,53.7z M268.7,54.4
			c-0.4,0.5-0.6,1.2-0.6,2s0.2,1.5,0.6,2c0.4,0.6,1,0.9,1.8,0.9s1.4-0.3,1.8-0.9c0.4-0.5,0.6-1.2,0.6-2s-0.2-1.5-0.6-2
			c-0.4-0.6-1.1-0.9-1.8-0.9C269.7,53.5,269.1,53.8,268.7,54.4z"/>
		<path class="st8" d="M280.9,53.9c0.3-0.5,0.6-0.8,1-1s0.8-0.3,1.3-0.3c0.7,0,1.4,0.2,1.8,0.7c0.5,0.5,0.7,1.2,0.7,2V60h-1.1v-4.6
			c0-0.6-0.1-1.1-0.4-1.4c-0.3-0.3-0.7-0.5-1.3-0.5c-0.5,0-0.9,0.2-1.2,0.5c-0.3,0.4-0.5,0.8-0.5,1.4V60H280v-4.6
			c0-1.3-0.6-1.9-1.7-1.9c-0.5,0-0.9,0.2-1.3,0.6c-0.3,0.4-0.5,0.9-0.5,1.5V60h-1.1v-7.2h1.1v1c0.5-0.8,1.2-1.2,2-1.2
			C279.7,52.6,280.4,53,280.9,53.9z"/>
		<path class="st8" d="M293.3,53.7c0.6,0.7,0.8,1.6,0.8,2.7c0,1.1-0.3,1.9-0.8,2.6c-0.6,0.8-1.4,1.1-2.4,1.1s-1.8-0.5-2.4-1.5v4.1
			h-1.1v-10h1V54c0.5-0.9,1.3-1.4,2.4-1.4S292.7,53,293.3,53.7z M289,54.3c-0.4,0.5-0.5,1.2-0.5,2v0.1c0,0.8,0.2,1.5,0.6,2
			s0.9,0.8,1.6,0.8c0.8,0,1.4-0.3,1.8-0.8s0.5-1.2,0.5-2.1c0-0.8-0.2-1.5-0.5-2c-0.4-0.6-1-0.9-1.8-0.9
			C290,53.5,289.4,53.8,289,54.3z"/>
		<path class="st8" d="M295.6,52.8h1.1v4.4c0,0.7,0.1,1.2,0.4,1.5s0.8,0.5,1.4,0.5c0.5,0,0.9-0.2,1.3-0.6c0.4-0.4,0.6-0.9,0.7-1.5
			v-4.4h1.1V60h-1.1v-1.1c-0.6,0.9-1.4,1.3-2.4,1.3c-1.8,0-2.6-1-2.6-3v-4.4H295.6z"/>
		<path class="st8" d="M305.4,50.4v2.3h1.8v0.9h-1.8v4.6c0,0.3,0.1,0.5,0.2,0.6s0.3,0.2,0.5,0.2h0.9v1h-1.1c-0.6,0-1-0.2-1.3-0.5
			c-0.2-0.3-0.4-0.7-0.4-1.2v-4.6h-1.5v-0.9h1.5v-1.9L305.4,50.4z"/>
		<path class="st8" d="M314,53.7c0.5,0.7,0.8,1.7,0.8,3h-5.7c0.1,0.8,0.3,1.5,0.7,1.9c0.4,0.4,0.9,0.7,1.6,0.7
			c0.6,0,1.1-0.1,1.4-0.4c0.3-0.2,0.5-0.6,0.7-1.1h1.1c-0.2,0.7-0.5,1.3-1,1.7c-0.6,0.5-1.4,0.8-2.3,0.8c-1,0-1.9-0.3-2.5-1
			s-1-1.6-1-2.8c0-1.1,0.3-2,0.9-2.7c0.6-0.8,1.4-1.1,2.5-1.1C312.6,52.6,313.4,53,314,53.7z M309.9,54.1c-0.4,0.4-0.6,1-0.7,1.7
			h4.5c-0.1-1.5-0.9-2.3-2.3-2.3C310.8,53.5,310.2,53.7,309.9,54.1z"/>
		<path class="st8" d="M327,50.6c0.7,0.5,1,1.3,1.1,2.4H327c-0.1-0.7-0.4-1.3-0.8-1.6c-0.4-0.4-1.1-0.5-1.9-0.5s-1.3,0.1-1.7,0.4
			c-0.5,0.3-0.7,0.7-0.7,1.3c0,0.5,0.3,0.9,0.9,1.2c0.2,0.1,0.9,0.4,1.8,0.6c1.3,0.4,2.2,0.7,2.6,1c0.8,0.5,1.2,1.2,1.2,2.1
			c0,0.9-0.4,1.6-1,2.1c-0.7,0.5-1.7,0.7-2.8,0.7c-1.2,0-2.1-0.3-2.8-0.8c-0.8-0.6-1.2-1.5-1.3-2.7h1.1c0.1,0.9,0.4,1.5,0.9,1.9
			s1.2,0.6,2,0.6s1.5-0.2,2-0.5s0.8-0.7,0.8-1.3s-0.3-1.1-1-1.5c-0.3-0.1-1-0.4-2.1-0.7c-1.2-0.4-1.9-0.6-2.3-0.8
			c-0.8-0.4-1.1-1.1-1.1-1.9c0-0.9,0.4-1.6,1.1-2s1.5-0.7,2.5-0.7C325.5,49.8,326.4,50.1,327,50.6z"/>
		<path class="st8" d="M335.3,53.7c0.5,0.7,0.8,1.7,0.8,3h-5.7c0.1,0.8,0.3,1.5,0.7,1.9c0.4,0.4,0.9,0.7,1.6,0.7
			c0.6,0,1.1-0.1,1.4-0.4c0.3-0.2,0.5-0.6,0.7-1.1h1.1c-0.2,0.7-0.5,1.3-1,1.7c-0.6,0.5-1.4,0.8-2.3,0.8c-1,0-1.9-0.3-2.5-1
			s-1-1.6-1-2.8c0-1.1,0.3-2,0.9-2.7c0.6-0.8,1.4-1.1,2.5-1.1C333.8,52.6,334.7,53,335.3,53.7z M331.1,54.1c-0.4,0.4-0.6,1-0.7,1.7
			h4.5c-0.1-1.5-0.9-2.3-2.3-2.3C332,53.5,331.5,53.7,331.1,54.1z"/>
		<path class="st8" d="M341.6,52.7v1.1c-0.3-0.1-0.7-0.2-1.1-0.2c-0.6,0-1,0.2-1.4,0.7s-0.6,1-0.6,1.7v4h-1.1v-7.2h1.1V54
			c0.2-0.4,0.4-0.8,0.8-1c0.4-0.3,0.8-0.5,1.3-0.5C341,52.6,341.4,52.6,341.6,52.7z"/>
		<path class="st8" d="M341.8,52.8h1.2l2.1,5.8l2.1-5.8h1.2l-2.7,7.2h-1.1L341.8,52.8z"/>
		<path class="st8" d="M350.8,50.3c0.2,0.1,0.3,0.3,0.3,0.6c0,0.2-0.1,0.4-0.3,0.6c-0.2,0.2-0.4,0.2-0.6,0.2s-0.4-0.1-0.6-0.2
			c-0.2-0.2-0.2-0.4-0.2-0.6c0-0.3,0.1-0.5,0.2-0.6c0.2-0.2,0.4-0.2,0.6-0.2S350.7,50.1,350.8,50.3z M349.7,52.8h1.1V60h-1.1V52.8z"
			/>
		<path class="st8" d="M358.2,53.2c0.6,0.4,0.9,1.1,1,2h-1.1c-0.1-0.6-0.3-1-0.7-1.3c-0.4-0.3-0.8-0.4-1.4-0.4
			c-0.7,0-1.3,0.3-1.7,0.8c-0.4,0.5-0.6,1.2-0.6,2.1c0,0.9,0.2,1.6,0.6,2.1s0.9,0.8,1.7,0.8c1.2,0,1.9-0.6,2.1-1.9h1.1
			c-0.2,0.9-0.5,1.6-1.1,2.1s-1.3,0.7-2.2,0.7c-1.1,0-1.9-0.4-2.5-1.1c-0.6-0.7-0.9-1.6-0.9-2.7s0.3-2,0.9-2.7
			c0.6-0.8,1.5-1.1,2.5-1.1C356.9,52.6,357.6,52.8,358.2,53.2z"/>
		<path class="st8" d="M366.2,53.7c0.5,0.7,0.8,1.7,0.8,3h-5.7c0.1,0.8,0.3,1.5,0.7,1.9c0.4,0.4,0.9,0.7,1.6,0.7
			c0.6,0,1.1-0.1,1.4-0.4c0.3-0.2,0.5-0.6,0.7-1.1h1.1c-0.2,0.7-0.5,1.3-1,1.7c-0.6,0.5-1.4,0.8-2.3,0.8c-1,0-1.9-0.3-2.5-1
			s-1-1.6-1-2.8c0-1.1,0.3-2,0.9-2.7c0.6-0.8,1.4-1.1,2.5-1.1C364.7,52.6,365.6,53,366.2,53.7z M362,54.1c-0.4,0.4-0.6,1-0.7,1.7
			h4.5c-0.1-1.5-0.9-2.3-2.3-2.3C362.9,53.5,362.4,53.7,362,54.1z"/>
	</g>
</g>
<g>
	<rect x="332" y="106" class="st4" width="12" height="1"/>
	<polygon class="st4" points="343,111 348,106.5 343,102 	"/>
</g>
<g>
	<rect x="476.3" y="106" class="st4" width="12" height="1"/>
	<polygon class="st4" points="487.3,111 492.3,106.5 487.3,102 	"/>
</g>
<g>
	<rect x="174" y="106" class="st4" width="23" height="1"/>
	<polygon class="st4" points="196,111 201,106.5 196,102 	"/>
</g>
<rect x="224" y="89" class="st6" width="32" height="32"/>
<g>
	<rect x="495.2" y="82.1" class="st0" width="127.4" height="90.5"/>
	<rect x="493.5" y="80.1" class="st9" width="126.6" height="89.9"/>
</g>
<g>
	<rect x="350.7" y="82.1" class="st0" width="127.4" height="90.5"/>
	<rect x="349" y="80.1" class="st9" width="126.5" height="89.9"/>
</g>
<g>
	<rect x="206.2" y="82.1" class="st0" width="127.4" height="90.5"/>
	<rect x="204.5" y="80.1" class="st9" width="126.6" height="89.9"/>
</g>
<polyline class="st5" points="224,130 316,130 316,131 224,131 "/>
<g>
	<path class="st4" d="M229.8,147.2c0.5,0.5,0.9,1.1,0.9,2h-0.9c-0.1-0.6-0.3-1.1-0.7-1.4c-0.4-0.3-0.9-0.5-1.6-0.5
		c-0.6,0-1.1,0.1-1.4,0.3c-0.4,0.2-0.6,0.6-0.6,1.1c0,0.4,0.2,0.8,0.7,1c0.2,0.1,0.7,0.3,1.5,0.5c1.1,0.3,1.8,0.6,2.1,0.8
		c0.7,0.4,1,1,1,1.8s-0.3,1.3-0.9,1.8c-0.6,0.4-1.4,0.6-2.3,0.6s-1.7-0.2-2.3-0.6c-0.6-0.5-1-1.3-1.1-2.4h0.9
		c0.1,0.7,0.3,1.3,0.7,1.6s0.9,0.5,1.7,0.5c0.7,0,1.2-0.1,1.6-0.4c0.4-0.3,0.6-0.6,0.6-1.1s-0.3-1-0.8-1.3c-0.2-0.1-0.8-0.3-1.7-0.6
		c-1-0.3-1.6-0.5-1.9-0.7c-0.6-0.4-0.9-0.9-0.9-1.7s0.3-1.3,0.9-1.7c0.5-0.4,1.2-0.6,2.1-0.6C228.5,146.5,229.3,146.8,229.8,147.2z"
		/>
	<path class="st4" d="M233.6,147.1v2h1.5v0.8h-1.5v3.9c0,0.2,0,0.4,0.1,0.5s0.2,0.2,0.4,0.2h0.8v0.8H234c-0.5,0-0.8-0.1-1-0.4
		c-0.2-0.2-0.3-0.6-0.3-1.1v-3.9h-1.2v-0.8h1.2v-1.6L233.6,147.1z"/>
	<path class="st4" d="M239.5,149v1c-0.3-0.1-0.6-0.1-0.9-0.1c-0.5,0-0.9,0.2-1.2,0.6c-0.3,0.4-0.5,0.9-0.5,1.5v3.3H236v-6.2h0.9v1.1
		c0.2-0.4,0.4-0.7,0.6-0.9c0.3-0.3,0.7-0.4,1.1-0.4C239,148.9,239.3,148.9,239.5,149z"/>
	<path class="st4" d="M244.9,149.9c0.4,0.6,0.7,1.4,0.7,2.5h-4.7c0,0.7,0.2,1.2,0.5,1.6c0.3,0.4,0.8,0.6,1.3,0.6s0.9-0.1,1.2-0.4
		c0.2-0.2,0.4-0.5,0.6-1h0.9c-0.1,0.6-0.4,1.1-0.8,1.5c-0.5,0.5-1.1,0.7-1.9,0.7c-0.9,0-1.5-0.3-2-0.9c-0.5-0.6-0.8-1.4-0.8-2.4
		c0-0.9,0.2-1.7,0.7-2.3s1.2-1,2.1-1C243.7,148.9,244.4,149.2,244.9,149.9z M241.5,150.2c-0.3,0.4-0.5,0.8-0.6,1.5h3.7
		c-0.1-1.3-0.7-2-1.9-2C242.2,149.7,241.8,149.9,241.5,150.2z"/>
	<path class="st4" d="M251.2,149.6c0.4,0.4,0.5,1,0.5,1.7v4h-0.9v-1c-0.2,0.3-0.5,0.6-0.9,0.8c-0.5,0.2-0.9,0.4-1.5,0.4
		s-1.1-0.2-1.4-0.5c-0.4-0.3-0.6-0.8-0.6-1.3c0-0.8,0.3-1.4,0.9-1.7c0.5-0.3,1.2-0.5,2-0.5h1.4v-0.2c0-1-0.5-1.6-1.6-1.6
		c-0.5,0-0.9,0.1-1.1,0.3c-0.3,0.2-0.5,0.5-0.6,1h-0.9c0.1-0.7,0.4-1.2,0.9-1.6c0.4-0.3,1-0.5,1.8-0.5
		C250.1,148.9,250.7,149.1,251.2,149.6z M250.8,152.2h-1.4c-1.3,0-2,0.5-2,1.4c0,0.3,0.1,0.6,0.3,0.7c0.2,0.2,0.5,0.3,0.9,0.3
		c0.6,0,1.1-0.2,1.5-0.6c0.4-0.4,0.6-0.8,0.6-1.3L250.8,152.2L250.8,152.2z"/>
	<path class="st4" d="M257.6,150.1c0.2-0.4,0.5-0.7,0.8-0.9s0.6-0.3,1-0.3c0.6,0,1.1,0.2,1.5,0.6c0.4,0.4,0.6,1,0.6,1.7v4.1h-0.9
		v-3.9c0-0.5-0.1-1-0.3-1.2c-0.2-0.3-0.6-0.4-1.1-0.4c-0.4,0-0.7,0.2-1,0.5s-0.4,0.7-0.4,1.2v3.9h-0.9v-3.9c0-1.1-0.5-1.6-1.4-1.6
		c-0.4,0-0.8,0.2-1,0.5c-0.3,0.3-0.4,0.8-0.4,1.2v3.8h-0.9v-6.2h0.9v0.8c0.4-0.7,1-1,1.7-1C256.6,148.9,257.3,149.3,257.6,150.1z"/>
	<path class="st4" d="M268.9,147.3c0.6,0.5,1,1.2,1.1,2h-0.9c-0.1-0.6-0.4-1.1-0.9-1.4c-0.4-0.3-1-0.5-1.6-0.5c-1,0-1.7,0.3-2.2,1
		c-0.5,0.6-0.7,1.5-0.7,2.6s0.2,1.9,0.7,2.5c0.5,0.7,1.2,1,2.2,1c0.7,0,1.2-0.2,1.7-0.5c0.5-0.4,0.8-1,1-1.7h0.9
		c-0.2,1-0.6,1.8-1.3,2.3c-0.6,0.5-1.4,0.8-2.3,0.8c-1.3,0-2.3-0.4-2.9-1.3c-0.6-0.8-0.9-1.8-0.9-3.1s0.3-2.3,0.9-3.1
		c0.7-0.9,1.7-1.4,2.9-1.4C267.5,146.5,268.3,146.8,268.9,147.3z"/>
	<path class="st4" d="M276.2,149.9c0.5,0.6,0.8,1.4,0.8,2.3c0,0.9-0.2,1.7-0.7,2.3s-1.3,1-2.1,1c-0.9,0-1.6-0.3-2.1-1
		c-0.5-0.6-0.8-1.4-0.8-2.3c0-0.9,0.3-1.7,0.8-2.3s1.2-1,2.1-1S275.6,149.2,276.2,149.9z M272.5,150.5c-0.3,0.4-0.5,1-0.5,1.7
		s0.2,1.3,0.5,1.7c0.3,0.5,0.8,0.8,1.5,0.8c0.6,0,1.1-0.3,1.5-0.8c0.3-0.5,0.5-1,0.5-1.7s-0.2-1.3-0.5-1.7c-0.4-0.5-0.9-0.8-1.5-0.8
		S272.9,150,272.5,150.5z"/>
	<path class="st4" d="M283.1,151.5v3.8h-0.9v-3.7c0-1.2-0.5-1.8-1.6-1.8c-0.4,0-0.8,0.2-1.1,0.5c-0.3,0.3-0.5,0.8-0.5,1.3v3.7h-0.9
		v-6.2h0.9v0.9c0.2-0.4,0.5-0.6,0.8-0.8s0.7-0.3,1.1-0.3C282.4,148.9,283.1,149.8,283.1,151.5z"/>
	<path class="st4" d="M289.6,151.5v3.8h-0.9v-3.7c0-1.2-0.5-1.8-1.6-1.8c-0.4,0-0.8,0.2-1.1,0.5c-0.3,0.3-0.5,0.8-0.5,1.3v3.7h-0.9
		v-6.2h0.9v0.9c0.2-0.4,0.5-0.6,0.8-0.8s0.7-0.3,1.1-0.3C288.8,148.9,289.6,149.8,289.6,151.5z"/>
	<path class="st4" d="M295.6,149.9c0.4,0.6,0.7,1.4,0.7,2.5h-4.7c0,0.7,0.2,1.2,0.5,1.6c0.3,0.4,0.8,0.6,1.3,0.6s0.9-0.1,1.2-0.4
		c0.2-0.2,0.4-0.5,0.6-1h0.9c-0.1,0.6-0.4,1.1-0.8,1.5c-0.5,0.5-1.1,0.7-1.9,0.7c-0.9,0-1.5-0.3-2-0.9c-0.5-0.6-0.8-1.4-0.8-2.4
		c0-0.9,0.2-1.7,0.7-2.3s1.2-1,2.1-1C294.4,148.9,295.1,149.2,295.6,149.9z M292.2,150.2c-0.3,0.4-0.5,0.8-0.6,1.5h3.7
		c-0.1-1.3-0.7-2-1.9-2C292.9,149.7,292.5,149.9,292.2,150.2z"/>
	<path class="st4" d="M301.7,149.4c0.5,0.4,0.7,0.9,0.8,1.7h-0.9c-0.1-0.5-0.3-0.8-0.6-1.1c-0.3-0.2-0.7-0.3-1.2-0.3
		c-0.6,0-1,0.2-1.4,0.7c-0.3,0.4-0.5,1-0.5,1.8s0.2,1.4,0.5,1.8c0.3,0.4,0.8,0.7,1.4,0.7c1,0,1.6-0.5,1.7-1.6h0.9
		c-0.1,0.8-0.4,1.4-0.9,1.8c-0.5,0.4-1,0.6-1.8,0.6c-0.9,0-1.6-0.3-2.1-0.9c-0.5-0.6-0.7-1.4-0.7-2.3s0.2-1.7,0.7-2.3
		c0.5-0.7,1.2-1,2.1-1C300.7,148.9,301.3,149.1,301.7,149.4z"/>
	<path class="st4" d="M305.3,147.1v2h1.5v0.8h-1.5v3.9c0,0.2,0,0.4,0.1,0.5s0.2,0.2,0.4,0.2h0.8v0.8h-0.9c-0.5,0-0.8-0.1-1-0.4
		c-0.2-0.2-0.3-0.6-0.3-1.1v-3.9h-1.2v-0.8h1.2v-1.6L305.3,147.1z"/>
	<path class="st4" d="M312.6,149.9c0.5,0.6,0.8,1.4,0.8,2.3c0,0.9-0.2,1.7-0.7,2.3s-1.3,1-2.1,1c-0.9,0-1.6-0.3-2.1-1
		c-0.5-0.6-0.8-1.4-0.8-2.3c0-0.9,0.3-1.7,0.8-2.3s1.2-1,2.1-1S312,149.2,312.6,149.9z M309,150.5c-0.3,0.4-0.5,1-0.5,1.7
		s0.2,1.3,0.5,1.7c0.3,0.5,0.8,0.8,1.5,0.8c0.6,0,1.1-0.3,1.5-0.8c0.3-0.5,0.5-1,0.5-1.7s-0.2-1.3-0.5-1.7c-0.4-0.5-0.9-0.8-1.5-0.8
		C309.8,149.7,309.3,150,309,150.5z"/>
	<path class="st4" d="M318,149v1c-0.3-0.1-0.6-0.1-0.9-0.1c-0.5,0-0.9,0.2-1.2,0.6c-0.3,0.4-0.5,0.9-0.5,1.5v3.3h-0.9v-6.2h0.9v1.1
		c0.2-0.4,0.4-0.7,0.6-0.9c0.3-0.3,0.7-0.4,1.1-0.4C317.5,148.9,317.7,148.9,318,149z"/>
</g>
<g>
	<path class="st8" d="M228.7,95H252v15h2V93h-25.3c-0.3-0.6-1-1-1.7-1c-1.1,0-2,0.9-2,2s0.9,2,2,2C227.7,96,228.4,95.6,228.7,95z"/>
	<path class="st8" d="M253,114c-0.7,0-1.4,0.4-1.7,1H228v-15h-2v17h25.3c0.3,0.6,1,1,1.7,1c1.1,0,2-0.9,2-2S254.1,114,253,114z"/>
	<path class="st8" d="M244.7,109c-0.3-0.6-1-1-1.7-1c-1.1,0-2,0.9-2,2s0.9,2,2,2c0.7,0,1.4-0.4,1.7-1h2.3h1h1V99h-1h-1h-4.6l-6,10
		H233v-8h2.3c0.3,0.6,1,1,1.7,1c1.1,0,2-0.9,2-2s-0.9-2-2-2c-0.7,0-1.4,0.4-1.7,1H233h-1h-1v12h1h1h4.6l6-10h3.4v8H244.7z"/>
</g>
<g>
	<path class="st3" d="M274.4,100.7c0.8,0.6,1.2,1.4,1.3,2.4h-1.1c-0.1-0.7-0.5-1.3-1.1-1.7c-0.5-0.4-1.2-0.6-2-0.6
		c-1.2,0-2.1,0.4-2.7,1.2c-0.6,0.8-0.9,1.8-0.9,3s0.3,2.2,0.9,3s1.5,1.2,2.7,1.2c0.8,0,1.5-0.2,2-0.6c0.6-0.4,1-1.1,1.2-2h1.1
		c-0.2,1.2-0.7,2.1-1.6,2.7c-0.8,0.6-1.7,0.9-2.8,0.9c-1.6,0-2.7-0.5-3.6-1.5c-0.8-0.9-1.1-2.1-1.1-3.6s0.4-2.7,1.1-3.7
		c0.8-1.1,2-1.6,3.6-1.6C272.7,99.8,273.6,100.1,274.4,100.7z"/>
	<path class="st3" d="M285.5,100l-4.5,4.3l5.2,5.7h-1.5l-4.4-5l-1.6,1.5v3.5h-1.1v-10h1.1v5.2l5.4-5.2H285.5z"/>
	<path class="st3" d="M292.4,103.4c0.4,0.5,0.6,1.1,0.6,2v4.7h-1v-1.2c-0.3,0.4-0.7,0.7-1.1,1c-0.5,0.3-1.1,0.4-1.8,0.4
		c-0.7,0-1.3-0.2-1.7-0.5c-0.4-0.4-0.7-0.9-0.7-1.5c0-0.8,0.3-1.4,1-1.9c0.6-0.4,1.4-0.6,2.5-0.6h1.7v-0.4c0-1.2-0.6-1.8-1.9-1.8
		c-0.5,0-1,0.1-1.3,0.3c-0.4,0.2-0.6,0.6-0.7,1l-1.1-0.1c0.2-0.8,0.5-1.3,1.1-1.7c0.5-0.3,1.2-0.5,2.1-0.5
		C291.2,102.6,291.9,102.8,292.4,103.4z M290.3,106.6c-1.6,0-2.4,0.6-2.4,1.6c0,0.3,0.1,0.6,0.4,0.8c0.3,0.2,0.6,0.3,1.1,0.3
		c0.7,0,1.3-0.2,1.8-0.7c0.5-0.4,0.8-0.9,0.8-1.5v-0.6L290.3,106.6z"/>
	<path class="st3" d="M299.1,100v1h-1.2c-0.3,0-0.5,0.1-0.7,0.2c-0.1,0.2-0.2,0.4-0.2,0.8v0.8h2v0.9h-2v6.3h-1.1v-6.3H294v-0.9h1.8
		V102c0-0.6,0.2-1.1,0.5-1.4c0.3-0.4,0.8-0.5,1.4-0.5L299.1,100L299.1,100z"/>
	<path class="st3" d="M301.1,99.8v6.3l3.6-3.4h1.5l-3.2,2.9l3.5,4.3h-1.4l-2.8-3.6l-1.1,1v2.6H300V99.8H301.1z"/>
	<path class="st3" d="M312.9,103.4c0.4,0.5,0.6,1.1,0.6,2v4.7h-1.1v-1.2c-0.3,0.4-0.7,0.7-1.1,1c-0.5,0.3-1.1,0.4-1.8,0.4
		c-0.7,0-1.3-0.2-1.7-0.5c-0.4-0.4-0.7-0.9-0.7-1.5c0-0.8,0.3-1.4,1-1.9c0.6-0.4,1.4-0.6,2.5-0.6h1.7v-0.4c0-1.2-0.6-1.8-1.9-1.8
		c-0.5,0-1,0.1-1.3,0.3c-0.4,0.2-0.6,0.6-0.7,1l-1.1-0.1c0.2-0.8,0.5-1.3,1.1-1.7c0.5-0.3,1.2-0.5,2.1-0.5
		C311.6,102.6,312.4,102.8,312.9,103.4z M310.7,106.6c-1.6,0-2.4,0.6-2.4,1.6c0,0.3,0.1,0.6,0.4,0.8c0.3,0.2,0.6,0.3,1.1,0.3
		c0.7,0,1.3-0.2,1.8-0.7c0.5-0.4,0.8-0.9,0.8-1.5v-0.6L310.7,106.6z"/>
</g>
<rect x="512" y="89" class="st6" width="32" height="32"/>
<polyline class="st5" points="512,130 604,130 604,131 512,131 "/>
<g>
	<path class="st4" d="M517.8,147.2c0.5,0.5,0.9,1.1,0.9,2h-0.9c-0.1-0.6-0.3-1.1-0.7-1.4c-0.4-0.3-0.9-0.5-1.6-0.5
		c-0.6,0-1.1,0.1-1.4,0.3c-0.4,0.2-0.6,0.6-0.6,1.1c0,0.4,0.2,0.8,0.7,1c0.2,0.1,0.7,0.3,1.5,0.5c1.1,0.3,1.8,0.6,2.1,0.8
		c0.7,0.4,1,1,1,1.8s-0.3,1.3-0.9,1.8c-0.6,0.4-1.4,0.6-2.3,0.6s-1.7-0.2-2.3-0.6c-0.6-0.5-1-1.3-1.1-2.4h0.9
		c0.1,0.7,0.3,1.3,0.7,1.6s0.9,0.5,1.7,0.5c0.7,0,1.2-0.1,1.6-0.4c0.4-0.3,0.6-0.6,0.6-1.1s-0.3-1-0.8-1.3c-0.2-0.1-0.8-0.3-1.7-0.6
		c-1-0.3-1.6-0.5-1.9-0.7c-0.6-0.4-0.9-0.9-0.9-1.7s0.3-1.3,0.9-1.7c0.5-0.4,1.2-0.6,2.1-0.6C516.5,146.5,517.3,146.8,517.8,147.2z"
		/>
	<path class="st4" d="M521.6,147.1v2h1.5v0.8h-1.5v3.9c0,0.2,0,0.4,0.1,0.5s0.2,0.2,0.4,0.2h0.8v0.8H522c-0.5,0-0.8-0.1-1-0.4
		c-0.2-0.2-0.3-0.6-0.3-1.1v-3.9h-1.2v-0.8h1.2v-1.6L521.6,147.1z"/>
	<path class="st4" d="M527.5,149v1c-0.3-0.1-0.6-0.1-0.9-0.1c-0.5,0-0.9,0.2-1.2,0.6c-0.3,0.4-0.5,0.9-0.5,1.5v3.3H524v-6.2h0.9v1.1
		c0.2-0.4,0.4-0.7,0.6-0.9c0.3-0.3,0.7-0.4,1.1-0.4C527,148.9,527.3,148.9,527.5,149z"/>
	<path class="st4" d="M532.9,149.9c0.4,0.6,0.7,1.4,0.7,2.5h-4.7c0,0.7,0.2,1.2,0.5,1.6c0.3,0.4,0.8,0.6,1.3,0.6s0.9-0.1,1.2-0.4
		c0.2-0.2,0.4-0.5,0.6-1h0.9c-0.1,0.6-0.4,1.1-0.8,1.5c-0.5,0.5-1.1,0.7-1.9,0.7c-0.9,0-1.5-0.3-2-0.9c-0.5-0.6-0.8-1.4-0.8-2.4
		c0-0.9,0.2-1.7,0.7-2.3s1.2-1,2.1-1C531.7,148.9,532.4,149.2,532.9,149.9z M529.5,150.2c-0.3,0.4-0.5,0.8-0.6,1.5h3.7
		c-0.1-1.3-0.7-2-1.9-2C530.2,149.7,529.8,149.9,529.5,150.2z"/>
	<path class="st4" d="M539.2,149.6c0.4,0.4,0.5,1,0.5,1.7v4h-0.9v-1c-0.2,0.3-0.5,0.6-0.9,0.8c-0.5,0.2-0.9,0.4-1.5,0.4
		s-1.1-0.2-1.4-0.5c-0.4-0.3-0.6-0.8-0.6-1.3c0-0.8,0.3-1.4,0.9-1.7c0.5-0.3,1.2-0.5,2-0.5h1.4v-0.2c0-1-0.5-1.6-1.6-1.6
		c-0.5,0-0.9,0.1-1.1,0.3c-0.3,0.2-0.5,0.5-0.6,1h-0.9c0.1-0.7,0.4-1.2,0.9-1.6c0.4-0.3,1-0.5,1.8-0.5
		C538.1,148.9,538.7,149.1,539.2,149.6z M538.8,152.2h-1.4c-1.3,0-2,0.5-2,1.4c0,0.3,0.1,0.6,0.3,0.7c0.2,0.2,0.5,0.3,0.9,0.3
		c0.6,0,1.1-0.2,1.5-0.6c0.4-0.4,0.6-0.8,0.6-1.3v-0.5L538.8,152.2L538.8,152.2z"/>
	<path class="st4" d="M545.6,150.1c0.2-0.4,0.5-0.7,0.8-0.9s0.6-0.3,1-0.3c0.6,0,1.1,0.2,1.5,0.6c0.4,0.4,0.6,1,0.6,1.7v4.1h-0.9
		v-3.9c0-0.5-0.1-1-0.3-1.2c-0.2-0.3-0.6-0.4-1.1-0.4c-0.4,0-0.7,0.2-1,0.5s-0.4,0.7-0.4,1.2v3.9h-0.9v-3.9c0-1.1-0.5-1.6-1.4-1.6
		c-0.4,0-0.8,0.2-1,0.5c-0.3,0.3-0.4,0.8-0.4,1.2v3.8h-0.9v-6.2h0.9v0.8c0.4-0.7,1-1,1.7-1C544.6,148.9,545.3,149.3,545.6,150.1z"/>
	<path class="st4" d="M556.9,147.3c0.6,0.5,1,1.2,1.1,2h-0.9c-0.1-0.6-0.4-1.1-0.9-1.4c-0.4-0.3-1-0.5-1.6-0.5c-1,0-1.7,0.3-2.2,1
		c-0.5,0.6-0.7,1.5-0.7,2.6s0.2,1.9,0.7,2.5c0.5,0.7,1.2,1,2.2,1c0.7,0,1.2-0.2,1.7-0.5c0.5-0.4,0.8-1,1-1.7h0.9
		c-0.2,1-0.6,1.8-1.3,2.3c-0.6,0.5-1.4,0.8-2.3,0.8c-1.3,0-2.3-0.4-2.9-1.3c-0.6-0.8-0.9-1.8-0.9-3.1s0.3-2.3,0.9-3.1
		c0.7-0.9,1.7-1.4,2.9-1.4C555.5,146.5,556.3,146.8,556.9,147.3z"/>
	<path class="st4" d="M564.2,149.9c0.5,0.6,0.8,1.4,0.8,2.3c0,0.9-0.2,1.7-0.7,2.3s-1.3,1-2.1,1c-0.9,0-1.6-0.3-2.1-1
		c-0.5-0.6-0.8-1.4-0.8-2.3c0-0.9,0.3-1.7,0.8-2.3s1.2-1,2.1-1S563.6,149.2,564.2,149.9z M560.5,150.5c-0.3,0.4-0.5,1-0.5,1.7
		s0.2,1.3,0.5,1.7c0.3,0.5,0.8,0.8,1.5,0.8c0.6,0,1.1-0.3,1.5-0.8c0.3-0.5,0.5-1,0.5-1.7s-0.2-1.3-0.5-1.7c-0.4-0.5-0.9-0.8-1.5-0.8
		S560.9,150,560.5,150.5z"/>
	<path class="st4" d="M571.1,151.5v3.8h-0.9v-3.7c0-1.2-0.5-1.8-1.6-1.8c-0.4,0-0.8,0.2-1.1,0.5s-0.5,0.8-0.5,1.3v3.7h-0.9v-6.2h0.9
		v0.9c0.2-0.4,0.5-0.6,0.8-0.8s0.7-0.3,1.1-0.3C570.4,148.9,571.1,149.8,571.1,151.5z"/>
	<path class="st4" d="M577.6,151.5v3.8h-0.9v-3.7c0-1.2-0.5-1.8-1.6-1.8c-0.4,0-0.8,0.2-1.1,0.5s-0.5,0.8-0.5,1.3v3.7h-0.9v-6.2h0.9
		v0.9c0.2-0.4,0.5-0.6,0.8-0.8s0.7-0.3,1.1-0.3C576.8,148.9,577.6,149.8,577.6,151.5z"/>
	<path class="st4" d="M583.6,149.9c0.4,0.6,0.7,1.4,0.7,2.5h-4.7c0,0.7,0.2,1.2,0.5,1.6c0.3,0.4,0.8,0.6,1.3,0.6s0.9-0.1,1.2-0.4
		c0.2-0.2,0.4-0.5,0.6-1h0.9c-0.1,0.6-0.4,1.1-0.8,1.5c-0.5,0.5-1.1,0.7-1.9,0.7c-0.9,0-1.5-0.3-2-0.9c-0.5-0.6-0.8-1.4-0.8-2.4
		c0-0.9,0.2-1.7,0.7-2.3s1.2-1,2.1-1C582.4,148.9,583.1,149.2,583.6,149.9z M580.2,150.2c-0.3,0.4-0.5,0.8-0.6,1.5h3.7
		c-0.1-1.3-0.7-2-1.9-2C580.9,149.7,580.5,149.9,580.2,150.2z"/>
	<path class="st4" d="M589.7,149.4c0.5,0.4,0.7,0.9,0.8,1.7h-0.9c-0.1-0.5-0.3-0.8-0.6-1.1c-0.3-0.2-0.7-0.3-1.2-0.3
		c-0.6,0-1,0.2-1.4,0.7c-0.3,0.4-0.5,1-0.5,1.8s0.2,1.4,0.5,1.8c0.3,0.4,0.8,0.7,1.4,0.7c1,0,1.6-0.5,1.7-1.6h0.9
		c-0.1,0.8-0.4,1.4-0.9,1.8c-0.5,0.4-1,0.6-1.8,0.6c-0.9,0-1.6-0.3-2.1-0.9c-0.5-0.6-0.7-1.4-0.7-2.3s0.2-1.7,0.7-2.3
		c0.5-0.7,1.2-1,2.1-1C588.7,148.9,589.3,149.1,589.7,149.4z"/>
	<path class="st4" d="M593.3,147.1v2h1.5v0.8h-1.5v3.9c0,0.2,0,0.4,0.1,0.5s0.2,0.2,0.4,0.2h0.8v0.8h-0.9c-0.5,0-0.8-0.1-1-0.4
		c-0.2-0.2-0.3-0.6-0.3-1.1v-3.9h-1.2v-0.8h1.2v-1.6L593.3,147.1z"/>
	<path class="st4" d="M600.6,149.9c0.5,0.6,0.8,1.4,0.8,2.3c0,0.9-0.2,1.7-0.7,2.3s-1.3,1-2.1,1c-0.9,0-1.6-0.3-2.1-1
		c-0.5-0.6-0.8-1.4-0.8-2.3c0-0.9,0.3-1.7,0.8-2.3s1.2-1,2.1-1S600,149.2,600.6,149.9z M597,150.5c-0.3,0.4-0.5,1-0.5,1.7
		s0.2,1.3,0.5,1.7c0.3,0.5,0.8,0.8,1.5,0.8c0.6,0,1.1-0.3,1.5-0.8c0.3-0.5,0.5-1,0.5-1.7s-0.2-1.3-0.5-1.7c-0.4-0.5-0.9-0.8-1.5-0.8
		C597.8,149.7,597.3,150,597,150.5z"/>
	<path class="st4" d="M606,149v1c-0.3-0.1-0.6-0.1-0.9-0.1c-0.5,0-0.9,0.2-1.2,0.6c-0.3,0.4-0.5,0.9-0.5,1.5v3.3h-0.9v-6.2h0.9v1.1
		c0.2-0.4,0.4-0.7,0.6-0.9c0.3-0.3,0.7-0.4,1.1-0.4C605.5,148.9,605.7,148.9,606,149z"/>
</g>
<g>
	<path class="st8" d="M516.7,95H540v15h2V93h-25.3c-0.3-0.6-1-1-1.7-1c-1.1,0-2,0.9-2,2s0.9,2,2,2C515.7,96,516.4,95.6,516.7,95z"/>
	<path class="st8" d="M541,114c-0.7,0-1.4,0.4-1.7,1H516v-15h-2v17h25.3c0.3,0.6,1,1,1.7,1c1.1,0,2-0.9,2-2S542.1,114,541,114z"/>
	<path class="st8" d="M532.7,109c-0.3-0.6-1-1-1.7-1c-1.1,0-2,0.9-2,2s0.9,2,2,2c0.7,0,1.4-0.4,1.7-1h2.3h1h1V99h-1h-1h-4.6l-6,10
		H521v-8h2.3c0.3,0.6,1,1,1.7,1c1.1,0,2-0.9,2-2s-0.9-2-2-2c-0.7,0-1.4,0.4-1.7,1H521h-1h-1v12h1h1h4.6l6-10h3.4v8H532.7z"/>
</g>
<g>
	<path class="st3" d="M562.9,100.7c0.8,0.6,1.2,1.4,1.3,2.4h-1.1c-0.1-0.7-0.5-1.3-1.1-1.7c-0.5-0.4-1.2-0.6-2-0.6
		c-1.2,0-2.1,0.4-2.7,1.2c-0.6,0.8-0.9,1.8-0.9,3s0.3,2.2,0.9,3c0.6,0.8,1.5,1.2,2.7,1.2c0.8,0,1.5-0.2,2-0.6c0.6-0.4,1-1.1,1.2-2
		h1.1c-0.2,1.2-0.7,2.1-1.6,2.7c-0.8,0.6-1.7,0.9-2.8,0.9c-1.6,0-2.7-0.5-3.6-1.5c-0.8-0.9-1.1-2.1-1.1-3.6s0.4-2.7,1.1-3.7
		c0.8-1.1,2-1.6,3.6-1.6C561.2,99.8,562.2,100.1,562.9,100.7z"/>
	<path class="st3" d="M574,100l-4.5,4.3l5.2,5.7h-1.5l-4.4-5l-1.6,1.5v3.5H566v-10h1.1v5.2l5.4-5.2H574z"/>
	<path class="st3" d="M581,103.4c0.4,0.5,0.6,1.1,0.6,2v4.7h-1.1v-1.2c-0.3,0.4-0.7,0.7-1.1,1c-0.5,0.3-1.1,0.4-1.8,0.4
		s-1.3-0.2-1.7-0.5c-0.4-0.4-0.7-0.9-0.7-1.5c0-0.8,0.3-1.4,1-1.9c0.6-0.4,1.4-0.6,2.5-0.6h1.7v-0.4c0-1.2-0.6-1.8-1.9-1.8
		c-0.5,0-1,0.1-1.3,0.3c-0.4,0.2-0.6,0.6-0.7,1l-1.1-0.1c0.2-0.8,0.5-1.3,1.1-1.7c0.5-0.3,1.2-0.5,2.1-0.5
		C579.7,102.6,580.5,102.8,581,103.4z M578.8,106.6c-1.6,0-2.4,0.6-2.4,1.6c0,0.3,0.1,0.6,0.4,0.8c0.3,0.2,0.6,0.3,1.1,0.3
		c0.7,0,1.3-0.2,1.8-0.7c0.5-0.4,0.8-0.9,0.8-1.5v-0.6L578.8,106.6z"/>
	<path class="st3" d="M587.6,100v1h-1.2c-0.3,0-0.5,0.1-0.7,0.2c-0.1,0.2-0.2,0.4-0.2,0.8v0.8h2v0.9h-2v6.3h-1.1v-6.3h-1.8v-0.9h1.8
		V102c0-0.6,0.2-1.1,0.5-1.4c0.3-0.4,0.8-0.5,1.4-0.5L587.6,100L587.6,100z"/>
	<path class="st3" d="M589.7,99.8v6.3l3.6-3.4h1.5l-3.2,2.9l3.5,4.3h-1.4l-2.8-3.6l-1.1,1v2.6h-1.1V99.8H589.7z"/>
	<path class="st3" d="M601.4,103.4c0.4,0.5,0.6,1.1,0.6,2v4.7h-1v-1.2c-0.3,0.4-0.7,0.7-1.1,1c-0.5,0.3-1.1,0.4-1.8,0.4
		s-1.3-0.2-1.7-0.5c-0.4-0.4-0.7-0.9-0.7-1.5c0-0.8,0.3-1.4,1-1.9c0.6-0.4,1.4-0.6,2.5-0.6h1.7v-0.4c0-1.2-0.6-1.8-1.9-1.8
		c-0.5,0-1,0.1-1.3,0.3c-0.4,0.2-0.6,0.6-0.7,1l-1.1-0.1c0.2-0.8,0.5-1.3,1.1-1.7c0.5-0.3,1.2-0.5,2.1-0.5
		C600.2,102.6,600.9,102.8,601.4,103.4z M599.3,106.6c-1.6,0-2.4,0.6-2.4,1.6c0,0.3,0.1,0.6,0.4,0.8c0.3,0.2,0.6,0.3,1.1,0.3
		c0.7,0,1.3-0.2,1.8-0.7c0.5-0.4,0.8-0.9,0.8-1.5v-0.6L599.3,106.6z"/>
</g>
<rect x="371" y="89" class="st6" width="32" height="32"/>
<g>
	<path class="st3" d="M414.5,101.9c0.9,0.7,1.7,1.4,2.3,2.1l-0.7,0.7c-0.5-0.6-1.3-1.3-2.3-2.1L414.5,101.9z M416.8,106
		c-0.5,1.8-1.1,3.5-1.8,5.1l-0.9-0.4c0.7-1.6,1.3-3.3,1.8-5L416.8,106z M414.8,98.6c0.9,0.6,1.6,1.2,2.2,1.8l-0.7,0.7
		c-0.5-0.6-1.3-1.2-2.2-1.8L414.8,98.6z M419.4,104.9c-0.1,1.8-0.2,3.2-0.5,4c-0.3,0.9-0.9,1.7-1.7,2.3l-0.6-0.8
		c0.7-0.6,1.1-1.2,1.4-1.9c0.3-0.7,0.4-1.9,0.5-3.6H419.4z M417.6,103.4c0.1,0,0.2-0.1,0.2-0.1c0.5-0.3,1.2-1.2,2-2.6h-2.5v-0.9h3.9
		c-0.2-0.5-0.4-1-0.6-1.4l1-0.2c0.2,0.4,0.4,0.9,0.6,1.6h3.7v0.9h-5.1c-0.7,1.2-1.2,2-1.7,2.6c1.6-0.1,3.2-0.2,4.8-0.4
		c-0.4-0.5-0.7-1-1-1.2l0.8-0.5c0.9,1.1,1.7,2.1,2.2,3l-0.8,0.6c-0.1-0.1-0.3-0.5-0.6-1.1c-2,0.2-4.2,0.4-6.7,0.6L417.6,103.4z
		 M420.7,104.9h1v6.1h-1V104.9z M424.4,111.1c-0.8,0-1.2-0.4-1.2-1.1v-5.1h1v4.9c0,0.2,0.1,0.3,0.3,0.3h0.6c0.3,0,0.4-0.2,0.4-0.5
		c0.1-0.3,0.1-0.9,0.1-1.6l0.9,0.3c0,1.2-0.1,2-0.3,2.3c-0.2,0.3-0.5,0.4-1.1,0.4L424.4,111.1L424.4,111.1z"/>
	<path class="st3" d="M427.6,102.7h3v6.2c0.7-0.6,1.2-1,1.7-1.5l0.3,1c-0.8,0.8-1.8,1.6-2.8,2.2l-0.4-0.9c0.2-0.2,0.3-0.4,0.3-0.6
		v-5.6h-2.1V102.7z M429.3,98.6c1,0.7,1.8,1.4,2.4,2.2l-0.7,0.7c-0.6-0.7-1.4-1.4-2.4-2.2L429.3,98.6z M432,102.6h3.8v-4.2h1v4.2
		h3.6v1h-3.6v7.7h-1v-7.7H432V102.6z"/>
	<path class="st3" d="M443.5,101.6h9.2v5.5H451v0.9h3.2v0.9H451v2.4h-1v-2.4h-4c-0.1,0.4-0.3,0.8-0.6,1.1c-0.5,0.5-1.2,1-2.3,1.3
		l-0.5-0.8c1-0.3,1.7-0.6,2.1-1c0.1-0.2,0.2-0.3,0.3-0.5h-3.2v-1h3.4c0-0.2,0-0.3,0-0.4v-0.5h-1.8v-5.5H443.5z M443.9,100.2
		c-0.4,0.6-0.7,1.1-1.2,1.6l-0.8-0.5c0.9-0.9,1.5-1.9,1.8-2.9l1,0.2l-0.4,0.8h3.5v0.9H446c0.3,0.3,0.4,0.6,0.6,0.9l-0.8,0.3
		c-0.2-0.4-0.5-0.8-0.8-1.2h-1.1L443.9,100.2L443.9,100.2z M444.5,103.2h7.3v-0.8h-7.3V103.2z M444.5,104.7h7.3v-0.8h-7.3V104.7z
		 M451.7,106.3v-0.9h-7.3v0.9H451.7z M446.3,107.1v0.5c0,0.1,0,0.2,0,0.4h3.8v-0.9H446.3z M449.7,100.2c-0.3,0.5-0.6,0.9-0.9,1.3
		L448,101c0.7-0.8,1.2-1.6,1.5-2.6l1,0.2l-0.3,0.8h4v0.9h-2.3c0.2,0.3,0.4,0.6,0.6,0.9l-0.8,0.3c-0.2-0.4-0.5-0.8-0.8-1.2h-1.2
		L449.7,100.2L449.7,100.2z"/>
</g>
<polyline class="st5" points="371,130 455,130 455,131 371,131 "/>
<g>
	<path class="st4" d="M377,147.2c0.6,0.5,0.9,1.1,1,2h-1c-0.1-0.6-0.3-1.1-0.7-1.4c-0.4-0.3-0.9-0.5-1.6-0.5c-0.6,0-1.1,0.1-1.5,0.3
		s-0.6,0.6-0.6,1.1c0,0.4,0.2,0.8,0.7,1c0.2,0.1,0.7,0.3,1.6,0.5c1.1,0.3,1.9,0.6,2.2,0.8c0.7,0.4,1.1,1,1.1,1.8s-0.3,1.3-0.9,1.8
		c-0.6,0.4-1.4,0.6-2.4,0.6s-1.8-0.2-2.4-0.6c-0.7-0.5-1-1.3-1.1-2.4h1c0.1,0.7,0.3,1.3,0.8,1.6c0.4,0.3,1,0.5,1.7,0.5
		s1.3-0.1,1.7-0.4c0.4-0.3,0.6-0.6,0.6-1.1s-0.3-1-0.9-1.3c-0.2-0.1-0.8-0.3-1.8-0.6s-1.7-0.5-2-0.7c-0.7-0.4-1-0.9-1-1.7
		s0.3-1.3,0.9-1.7s1.3-0.6,2.2-0.6C375.7,146.5,376.5,146.8,377,147.2z"/>
	<path class="st4" d="M381,147.1v2h1.5v0.8H381v3.9c0,0.2,0,0.4,0.1,0.5s0.2,0.2,0.5,0.2h0.8v0.8h-0.9c-0.5,0-0.9-0.1-1.1-0.4
		c-0.2-0.2-0.3-0.6-0.3-1.1v-3.9h-1.2v-0.8h1.2v-1.6L381,147.1z"/>
	<path class="st4" d="M387.2,149v1c-0.3-0.1-0.6-0.1-0.9-0.1c-0.5,0-0.9,0.2-1.2,0.6c-0.3,0.4-0.5,0.9-0.5,1.5v3.3h-0.9v-6.2h0.9
		v1.1c0.2-0.4,0.4-0.7,0.6-0.9c0.3-0.3,0.7-0.4,1.1-0.4C386.7,148.9,386.9,148.9,387.2,149z"/>
	<path class="st4" d="M392.8,149.9c0.5,0.6,0.7,1.4,0.7,2.5h-4.9c0,0.7,0.2,1.2,0.6,1.6c0.3,0.4,0.8,0.6,1.4,0.6
		c0.5,0,0.9-0.1,1.2-0.4c0.3-0.2,0.5-0.5,0.6-1h1c-0.1,0.6-0.4,1.1-0.8,1.5c-0.5,0.5-1.2,0.7-2,0.7c-0.9,0-1.6-0.3-2.1-0.9
		c-0.5-0.6-0.8-1.4-0.8-2.4c0-0.9,0.3-1.7,0.8-2.3s1.2-1,2.1-1C391.5,148.9,392.3,149.2,392.8,149.9z M389.2,150.2
		c-0.3,0.4-0.5,0.8-0.6,1.5h3.9c-0.1-1.3-0.8-2-2-2C390,149.7,389.6,149.9,389.2,150.2z"/>
	<path class="st4" d="M399.3,149.6c0.4,0.4,0.6,1,0.6,1.7v4H399v-1c-0.2,0.3-0.6,0.6-1,0.8c-0.5,0.2-1,0.4-1.5,0.4
		c-0.6,0-1.1-0.2-1.5-0.5s-0.6-0.8-0.6-1.3c0-0.8,0.3-1.4,0.9-1.7c0.5-0.3,1.2-0.5,2.1-0.5h1.5v-0.2c0-1-0.5-1.6-1.6-1.6
		c-0.5,0-0.9,0.1-1.2,0.3c-0.3,0.2-0.5,0.5-0.6,1h-0.9c0.1-0.7,0.4-1.2,0.9-1.6c0.4-0.3,1.1-0.5,1.8-0.5
		C398.2,148.9,398.9,149.1,399.3,149.6z M398.9,152.2h-1.4c-1.4,0-2.1,0.5-2.1,1.4c0,0.3,0.1,0.6,0.3,0.7c0.2,0.2,0.5,0.3,0.9,0.3
		c0.6,0,1.2-0.2,1.6-0.6c0.4-0.4,0.6-0.8,0.6-1.3v-0.5L398.9,152.2L398.9,152.2z"/>
	<path class="st4" d="M406,150.1c0.2-0.4,0.5-0.7,0.9-0.9c0.3-0.2,0.7-0.3,1.1-0.3c0.6,0,1.2,0.2,1.6,0.6c0.4,0.4,0.6,1,0.6,1.7v4.1
		h-1v-3.9c0-0.5-0.1-1-0.3-1.2c-0.2-0.3-0.6-0.4-1.2-0.4c-0.4,0-0.8,0.2-1,0.5c-0.3,0.3-0.4,0.7-0.4,1.2v3.9h-1v-3.9
		c0-1.1-0.5-1.6-1.4-1.6c-0.4,0-0.8,0.2-1.1,0.5c-0.3,0.3-0.4,0.8-0.4,1.2v3.8h-1v-6.2h1v0.8c0.5-0.7,1-1,1.8-1
		C405,148.9,405.6,149.3,406,150.1z"/>
	<path class="st4" d="M416.9,147.2c0.6,0.5,0.9,1.1,1,2h-1c-0.1-0.6-0.3-1.1-0.7-1.4c-0.4-0.3-0.9-0.5-1.6-0.5
		c-0.6,0-1.1,0.1-1.5,0.3s-0.6,0.6-0.6,1.1c0,0.4,0.2,0.8,0.7,1c0.2,0.1,0.7,0.3,1.6,0.5c1.1,0.3,1.9,0.6,2.2,0.8
		c0.7,0.4,1.1,1,1.1,1.8s-0.3,1.3-0.9,1.8c-0.6,0.4-1.4,0.6-2.4,0.6s-1.8-0.2-2.4-0.6c-0.7-0.5-1-1.3-1.1-2.4h1
		c0.1,0.7,0.3,1.3,0.8,1.6c0.4,0.3,1,0.5,1.7,0.5s1.3-0.1,1.7-0.4c0.4-0.3,0.6-0.6,0.6-1.1s-0.3-1-0.9-1.3c-0.2-0.1-0.8-0.3-1.8-0.6
		s-1.7-0.5-2-0.7c-0.7-0.4-1-0.9-1-1.7s0.3-1.3,0.9-1.7s1.3-0.6,2.2-0.6C415.6,146.5,416.3,146.8,416.9,147.2z"/>
	<path class="st4" d="M426.1,147.8c0.7,0.8,1.1,1.9,1.1,3.2s-0.4,2.3-1.1,3.2l-0.1,0.1c0.3,0.4,0.6,0.8,1,1.4l-0.6,0.6
		c-0.4-0.6-0.7-1-1-1.4c-0.7,0.4-1.4,0.7-2.3,0.7c-1.3,0-2.3-0.4-3-1.3c-0.7-0.8-1.1-1.9-1.1-3.2s0.4-2.4,1.1-3.2
		c0.7-0.9,1.8-1.3,3-1.3C424.3,146.5,425.3,147,426.1,147.8z M420.7,148.4c-0.5,0.6-0.8,1.5-0.8,2.6s0.3,1.9,0.8,2.6
		c0.6,0.7,1.3,1,2.3,1c0.7,0,1.3-0.2,1.8-0.5c-0.5-0.6-1-1.2-1.4-1.7l0.6-0.6c0.6,0.6,1,1.1,1.5,1.7c0.5-0.6,0.7-1.5,0.7-2.5
		c0-1.1-0.3-1.9-0.8-2.6c-0.6-0.7-1.3-1-2.3-1C422.1,147.4,421.3,147.8,420.7,148.4z"/>
	<path class="st4" d="M428.5,146.7h1v7.7h5v0.9h-5.9v-8.6L428.5,146.7L428.5,146.7z"/>
</g>
<g>
	<g>
		<path class="st8" d="M400,114c-0.7,0-1.4,0.4-1.7,1H375v-15h-2v17h25.3c0.3,0.6,1,1,1.7,1c1.1,0,2-0.9,2-2S401.1,114,400,114z"/>
		<path class="st8" d="M375.7,95H399v15h2V93h-25.3c-0.3-0.6-1-1-1.7-1c-1.1,0-2,0.9-2,2s0.9,2,2,2C374.7,96,375.4,95.6,375.7,95z"
			/>
		<path class="st8" d="M393,97c-0.7,0-1.4,0.4-1.7,1h-2.7c-0.9,0-1.9,0.6-2.8,1.2c-0.6,0.4-1.3,0.8-1.7,0.8H379v2h5.1
			c0.9,0,1.9-0.6,2.7-1.2c0.6-0.4,1.3-0.9,1.7-0.9h2.7c0.3,0.6,1,1,1.7,1c1.1,0,2-0.9,2-2C395,97.9,394.1,97,393,97z"/>
		<path class="st8" d="M393,103c-0.7,0-1.4,0.4-1.7,1H379v2h12.3c0.3,0.6,1,1,1.7,1c1.1,0,2-0.9,2-2S394.1,103,393,103z"/>
		<path class="st8" d="M393,109c-0.7,0-1.4,0.4-1.7,1h-2.7c-0.4,0-1.1-0.5-1.7-0.9c-0.9-0.6-1.8-1.2-2.7-1.2H379v2h5.1
			c0.3,0,1.1,0.5,1.7,0.8c0.9,0.6,1.8,1.2,2.8,1.2h2.7c0.3,0.6,1,1,1.7,1c1.1,0,2-0.9,2-2C395,109.9,394.1,109,393,109z"/>
	</g>
</g>
<g>
	<rect x="620" y="106" class="st4" width="29" height="1"/>
	<polygon class="st4" points="646,111 651,106.5 646,102 	"/>
</g>
</svg>
