<?xml version="1.0" encoding="utf-8"?>
<!-- Generator: Adobe Illustrator 22.1.0, SVG Export Plug-In . SVG Version: 6.00 Build 0)  -->
<svg version="1.1" id="图层_1" xmlns="http://www.w3.org/2000/svg" xmlns:xlink="http://www.w3.org/1999/xlink" x="0px" y="0px"
	 width="221px" height="221px" viewBox="0 0 221 221" style="enable-background:new 0 0 221 221;" xml:space="preserve">
<style type="text/css">
	.st0{fill:#03C6D8;}
	.st1{fill:#00A4FF;}
	.st2{fill:#FFFFFF;}
	.st3{fill:#00A1E8;}
	.st4{fill:none;}
	.st5{font-family:'PingFangSC-Regular-GBpc-EUC-H';}
	.st6{font-size:16px;}
</style>
<g id="图层_1_1_">
</g>
<g id="图层_2_1_">
</g>
<g id="图层_3">
</g>
<rect x="93.8" y="-26.7" transform="matrix(0.7071 -0.7071 0.7071 0.7071 -46.6694 109.2435)" class="st0" width="29.5" height="275.4"/>
<rect x="-29.2" y="96.3" transform="matrix(0.7071 -0.7071 0.7071 0.7071 -46.7306 109.2689)" class="st1" width="275.4" height="29.5"/>
<path class="st2" d="M110.3,35.5c0,0-25.6,22.8-67.4,22.8c0,0,0,18,0,29.4s0,16.2,0,38s36,59.8,67.4,64.6
	c31.4-4.8,67.4-42.8,67.4-64.6s0-26.6,0-38s0-29.4,0-29.4C135.9,58.3,110.3,35.5,110.3,35.5z"/>
<path class="st1" d="M110.3,46.7c0,0-21.9,19.5-57.6,19.5c0,0,0,15.4,0,25.1s0,13.8,0,32.5s30.9,51.1,57.6,55.1V46.7z"/>
<path class="st1" d="M110.3,46.7c0,0,21.9,19.5,57.6,19.5c0,0,0,15.4,0,25.1s0,13.8,0,32.5s-30.9,51.1-57.6,55.1V46.7z"/>
<g>
	<path class="st3" d="M92.7,57.6c-3.2,1.5-6.7,2.8-10.7,4.2l85.1,67.3c0.5-1.8,0.7-3.6,0.7-5.1c0-2.6,0-4.8,0-6.7L92.7,57.6z"/>
	<path class="st3" d="M52.8,76c0,3.9,0,8.5,0,12.5l91.9,72.6c2.5-2.2,4.9-4.5,7.1-6.9L52.8,76z"/>
	<path class="st3" d="M167.9,79.5c0-7.1,0-13.4,0-13.4c-7,0-13.5-0.7-19.4-2L167.9,79.5z"/>
	<path class="st3" d="M52.8,101c0,3.4,0,7.1,0,12.5l75.1,59.3c3.1-1.6,6-3.4,8.8-5.5L52.8,101z"/>
	<path class="st3" d="M115.6,50.7c-3.4-2.3-5.3-3.9-5.3-3.9s-2.8,2.6-8.2,5.8l65.8,51.9c0-4.5,0-7.8,0-12.5L115.6,50.7z"/>
	<path class="st3" d="M52.9,126.1c0.7,6,4.2,13.1,9.3,20.1l38.1,30.1c3.4,1.3,6.7,2.2,10,2.7c2.5-0.4,4.9-1,7.2-1.7L52.9,126.1z"/>
	<path class="st4" d="M70,64.7c-4.3,0.7-8.9,1.3-13.8,1.5l101.9,80.5c2.1-2.8,3.9-5.5,5.4-8.2L70,64.7z"/>
</g>
<text transform="matrix(1 0 0 1 67.3333 118.5339)" class="st2 st5 st6">反欺诈威胁</text>
<g>
	<path class="st2" d="M19.5,24.4l0.6-1.1c2.5-0.3,4.9-1.1,7.2-2.4l0.4,1.1c-1,0.6-2.1,1-3.1,1.4l-7.8,7.8l-0.8-0.8l6.4-6.4
		C21.4,24.2,20.5,24.3,19.5,24.4z M24,38.3l-0.8-0.8l0.5-0.5l-3.8-3.8l-0.5,0.5l-0.8-0.8l5.2-5.2l5.4,5.4L24,38.3z M24.5,36.3
		l1.2-1.2l-3.8-3.8l-1.2,1.2L24.5,36.3z M26.4,34.3l1.2-1.2l-3.8-3.8l-1.2,1.2L26.4,34.3z M28.4,24.7l1.2-1.2l0.8,0.8l-1.2,1.2l2,2
		l1.2-1.2l0.8,0.8l-1.2,1.2l1.6,1.6l-0.7,0.7l-1.6-1.6l-1.4,1.4l1.9,1.9L31,33.1l-7.3-7.3l0.8-0.8l1.8,1.8l1.4-1.4l-1.5-1.5l0.7-0.7
		L28.4,24.7z M29.1,29.7l1.4-1.4l-2-2l-1.4,1.4L29.1,29.7z"/>
	<path class="st2" d="M30.6,38.9c-1.1,0.6-2.2,1-3.3,1.2l-0.2-1c1.1-0.1,2.1-0.5,3-1L30.6,38.9z M35.8,41.3L35.1,42l-2.2-2.2
		L30,42.6c-0.6,0.6-1.2,0.6-1.8-0.1l-1-1l0.6-0.9c0.3,0.3,0.5,0.6,0.8,0.9c0.3,0.3,0.6,0.3,0.8,0l2.6-2.6l-2.3-2.3l0.7-0.7
		L35.8,41.3z M40.8,41.3c-0.8,0.8-1.5,1.4-2.2,2c-1.3,2.3-1.9,4.6-1.7,6.8l-1.2,0.1c0-1.9,0.4-3.8,1.2-5.7c-0.1,0.1-0.2,0.1-0.3,0.2
		c-1.7,1-3.6,1.3-5.7,0.9l0.1-1.1c1.8,0.3,3.5,0.1,4.9-0.7c1.2-0.7,2.6-1.7,4-3.2L40.8,41.3z M32.8,44l-0.9-0.3
		c0.4-0.9,0.8-1.7,1-2.5l0.9,0.4C33.4,42.3,33.1,43.1,32.8,44z M36.6,39l-0.7,0.7L32,35.8l0.7-0.7L36.6,39z M37.7,33.4l1-1l0.8,0.8
		l-1,1l2.1,2.1L39.8,37l-2.1-2.1l-1,1l1.8,1.8l-0.7,0.7l-4.6-4.6l0.7-0.7l2,2l1-1l-2.4-2.4l0.7-0.7L37.7,33.4z M43.3,37.3
		c-0.7,0.5-1.3,1-1.9,1.4l3,3l-0.5,0.5c-1.1,0.8-2.3,1.6-3.4,2.3l-0.5-1c0.9-0.5,1.9-1.1,3-1.8l-2.4-2.4c-1.2,0.7-2.3,1.1-3.3,1.3
		L37,39.4c1.7-0.4,3.6-1.4,5.7-3L43.3,37.3z"/>
</g>
<g>
	<path class="st2" d="M185.8,178l-4.5,4.5c-1.9,1.9-3,3.1-3.4,3.8c-0.4,0.6-0.5,1-0.3,1.2c0.1,0.1,0.8-0.2,1.9-1.2l0.4,1.1
		c-1,0.7-1.7,1.1-2.2,1.3c-0.4,0.1-0.8,0-1-0.2c-0.5-0.5-0.6-1.3-0.1-2.2c0.4-1,1.7-2.5,3.8-4.6l3.7-3.7l-5.7-5.7l-3.6,3.6
		c-2.2,2.2-4.5,3.6-6.9,4.2l-0.1-1.2c2.1-0.5,4.2-1.8,6.2-3.7l4.4-4.4L185.8,178z M177.9,179c1.3-0.4,2.6-1,3.8-1.7l0.7,0.9
		c-1.6,0.9-3.1,1.5-4.7,2c-0.3,1.7-0.6,3.2-0.9,4.5l-1.2-0.2c0.3-1.2,0.6-2.5,0.9-4c-1.7,0.3-3.4,0.4-5.1,0.1l0.1-1.2
		c1.8,0.2,3.5,0.2,5.2-0.1c0.3-1.5,0.5-3.1,0.7-4.7l1.1,0.3C178.2,176.3,178,177.7,177.9,179z"/>
	<path class="st2" d="M179,190.8l0.6-1c0.3,0.3,0.6,0.6,0.8,0.9c0.3,0.3,0.6,0.3,0.9,0l2.8-2.8c-0.6-0.3-1.2-0.6-1.8-0.9l0.6-1
		c0.7,0.4,1.3,0.8,2,1.1l2.5-2.5l-1.4-1.4l0.8-0.8l1.4,1.4l2.2-2.2l0.8,0.8l-2.2,2.2l0.9,0.9l-0.8,0.8l-0.9-0.9l-2.2,2.2
		c0.5,0.2,1,0.4,1.5,0.5l-0.8,0.8c-0.5-0.2-1-0.3-1.4-0.5l-3.3,3.3c-0.7,0.7-1.3,0.6-2,0L179,190.8z M186.1,190.8l0.8-0.8l6,6
		l-0.8,0.8l-2.6-2.6l-2.5,2.5l3,3l-0.8,0.8l-6.9-6.9l0.8-0.8l3.1,3.1l2.5-2.5L186.1,190.8z M192.5,189.6c-1.6,0.6-3.2,0.8-4.6,0.5
		l-0.1-1.1c1.4,0.3,2.9,0.1,4.3-0.4L192.5,189.6z M195.1,188.8l2.7,2.7l-2.1,2.1l-0.8-0.8l1.4-1.4l-4.8-4.8l-1.4,1.4l-0.8-0.8
		l2.1-2.1l2.8,2.8c0.3-0.6,0.5-1.2,0.7-1.8l1,0.7C195.7,187.5,195.4,188.1,195.1,188.8z M193.7,195.1l-1.1-0.4
		c0.4-1.5,0.6-2.9,0.6-4.3l1,0.4C194.2,192.2,194,193.7,193.7,195.1z"/>
</g>
<g>
	<path class="st2" d="M195.4,24.5l-1.5,1.5l4.4,4.4l-0.8,0.8l-4.4-4.4l-1.7,1.7l3,3l-0.7,0.7c-1.9,0.6-3.9,0.8-6,0.5
		c0.2,0.9,0.6,1.8,1,2.8c0.5,1.1,1.1,2.2,1.8,3.4l-1.2,0.2c-0.7-1.2-1.3-2.5-1.8-3.7c-0.4-1-0.7-1.9-0.9-2.9
		c-2.1-0.5-4.3-1.4-6.6-2.7l0.3-1.2c2.1,1.3,4.2,2.2,6.1,2.7c-0.1-1-0.2-2.1,0-3.1c0.1-0.9,0.4-1.8,0.8-2.6l-0.9-0.9l0.8-0.8
		l3.5,3.5l1.7-1.7l-4.4-4.4l0.8-0.8l4.4,4.4l1.5-1.5L195.4,24.5z M192.7,31.4l-4.8-4.8c-0.4,0.8-0.6,1.7-0.6,2.5
		c-0.1,0.8,0,1.7,0.2,2.5C189.3,32,191,31.9,192.7,31.4z"/>
	<path class="st2" d="M181.5,33.8c-1,0.5-2.1,1-3.2,1.3l-7.9,7.9l-0.8-0.8l6.6-6.6c-1,0.2-2,0.3-3.1,0.3l0.6-1.1
		c2.6-0.2,5.1-0.9,7.4-2.2L181.5,33.8z M183.9,40.6l2.4-2.4l0.8,0.8l-2.4,2.4l1.6,1.6l-0.8,0.8l-1.6-1.6l-5.9,5.9
		c-0.8,0.8-1.5,0.8-2.2,0.1l-1.6-1.6l0.6-1c0.5,0.6,1,1.1,1.5,1.6c0.4,0.4,0.7,0.3,1.1-0.1l5.7-5.7l-4.3-4.3l0.8-0.8L183.9,40.6z
		 M177.9,44l-1.2-0.2c0.3-1.3,0.6-2.9,0.8-4.7l1.1,0.3C178.4,41.2,178.2,42.8,177.9,44z"/>
</g>
<g>
	<path class="st2" d="M38.5,173.6l2.7-2.7l-1.4-1.4l0.8-0.8l3.6,3.6l-0.8,0.8l-1.4-1.4l-2.7,2.7l1.2,1.2l-0.8,0.8l-1.2-1.2l-2.6,2.6
		c0.6,0.3,1.1,0.5,1.7,0.8l-0.8,0.8c-1.5-0.6-3-1.4-4.4-2.3l0.6-1c0.6,0.4,1.2,0.8,1.8,1.1l2.8-2.8l-1.2-1.2l0.8-0.8L38.5,173.6z
		 M50.5,178.2l-5.2,5.2l-2.4-2.4l-1.3,1.3l2.5,2.5l-0.8,0.8l-2.5-2.5l-1.5,1.5l3,3l-0.8,0.8l-6.8-6.8l0.8-0.8l3,3l1.5-1.5l-2.6-2.6
		l0.8-0.8l2.6,2.6l1.3-1.3l-2.4-2.4l5.2-5.2L50.5,178.2z M44.4,178l-1.6-1.6l-1.5,1.5l1.6,1.6L44.4,178z M45.1,177.3l1.5-1.5
		l-1.6-1.6l-1.5,1.5L45.1,177.3z M46.8,180.4l-1.6-1.6l-1.5,1.5l1.6,1.6L46.8,180.4z M45.9,178.1l1.6,1.6l1.5-1.5l-1.6-1.6
		L45.9,178.1z"/>
	<path class="st2" d="M30.7,184.3l-3.5,3.5c-1.3,1.3-2.6,2.1-3.7,2.5c-1.1,0.3-2.3,0.2-3.6-0.2l0.2-1.1c1.2,0.5,2.3,0.6,3.3,0.3
		c1-0.3,2-1,3.1-2.1l3.5-3.5L30.7,184.3z M26.9,191.3l-0.7-0.7l6.3-6.3l-2.5-2.5l-6.4,6.4l-0.7-0.7l7.2-7.2l4,4L26.9,191.3z
		 M25.2,193.8h-1.1c0.2-0.9,0.3-2,0.3-3.3l1,0C25.4,191.7,25.3,192.8,25.2,193.8z M32.1,187.5l0.8-0.8l3,3l2.2-2.2l0.8,0.8l-2.2,2.2
		l1.3,1.3l-0.8,0.8l-1.3-1.3l-6.2,6.2c-0.7,0.7-1.4,0.8-2,0.1l-1.5-1.5l0.6-0.9c0.4,0.5,0.9,1,1.3,1.4c0.3,0.3,0.6,0.2,1-0.1
		l5.2-5.2c-2.7,1.3-5.3,1.9-8.1,1.9l0.3-1.2c2.8,0.2,5.5-0.5,8.3-1.9L32.1,187.5z"/>
</g>
</svg>
