<?xml version="1.0" encoding="utf-8"?>
<!-- Generator: Adobe Illustrator 22.1.0, SVG Export Plug-In . SVG Version: 6.00 Build 0)  -->
<svg version="1.1" id="图层_1" xmlns="http://www.w3.org/2000/svg" xmlns:xlink="http://www.w3.org/1999/xlink" x="0px" y="0px"
	 width="221px" height="221px" viewBox="0 0 221 221" style="enable-background:new 0 0 221 221;" xml:space="preserve">
<style type="text/css">
	.st0{fill:#D0D0D0;}
	.st1{fill:none;}
	.st2{fill:#03C6D8;}
	.st3{fill:#2277DA;}
	.st4{font-family:'ArialMT';}
	.st5{font-size:12px;}
	.st6{fill:#FFFFFF;}
</style>
<polygon class="st0" points="110.5,61.7 125.5,92 159,96.9 134.8,120.5 140.5,153.9 110.5,138.2 80.5,153.9 86.2,120.5 62,96.9 
	95.5,92 "/>
<line class="st1" x1="85" y1="0" x2="140" y2="56"/>
<line class="st1" x1="27.9" y1="189" x2="48.9" y2="113.4"/>
<line class="st1" x1="220.1" y1="144" x2="144.1" y2="163.6"/>
<path class="st2" d="M132,42.1c29.5,9,51,36.5,51,68.9c0,2.4-0.1,4.7-0.3,7l29.9-29.4C202.3,42,160.7,7,111,7
	c-4.3,0-8.6,0.3-12.8,0.8L132,42.1z"/>
<path class="st3" d="M42.1,90c9-29.5,36.5-51,68.9-51c2.4,0,4.7,0.1,7,0.3L88.7,9.4C42,19.7,7,61.3,7,111c0,4.3,0.3,8.6,0.8,12.8
	L42.1,90z"/>
<path class="st3" d="M179.9,132c-9,29.5-36.5,51-68.9,51c-2.4,0-4.7-0.1-7-0.3l29.4,29.9C180,202.3,215,160.7,215,111
	c0-4.3-0.3-8.6-0.8-12.8L179.9,132z"/>
<path class="st2" d="M90,179.9c-29.5-9-51-36.5-51-68.9c0-2.4,0.1-4.7,0.3-7L9.4,133.3C19.7,180,61.3,215,111,215
	c4.3,0,8.6-0.3,12.8-0.8L90,179.9z"/>
<text class="st4 st5"> </text>
<text class="st4 st5"> </text>
<text class="st4 st5"> </text>
<text class="st4 st5"> </text>
<g>
	<path class="st6" d="M31,67.1l-3.5-2.2l0.6-1l3.5,2.2l0.9-1.5l0.9,0.6l-0.9,1.5l4.5,2.8c0.2-0.8,0.3-1.5,0.4-2.3l1,0.6
		c-0.2,1.7-0.6,3.5-1.2,5.3l-1.1-0.4c0.2-0.7,0.5-1.4,0.7-2l-4.8-3l-1,1.6L30,68.7L31,67.1z M32.5,59.6c-0.5-0.1-1-0.3-1.5-0.3
		l0.5-1.1c0.5,0.1,1.1,0.3,1.6,0.5l2-3.1l0.9,0.6l-4.5,7.2l-0.9-0.6L32.5,59.6z M35.5,63.3c-0.9-0.2-1.7-0.3-2.5-0.3l0.2-1.1
		c0.8,0,1.8,0.2,2.9,0.4l1.2-1.9c-0.5-0.8-1.1-1.7-1.8-2.5l0.9-0.7c0.6,0.8,1.1,1.5,1.5,2.2l1.2-1.9l0.9,0.6l-5,7.9l-0.9-0.6
		L35.5,63.3z M45.8,63l-0.6,0.9l-0.8-0.5l-2.6,4.2l0.8,0.5L42,69.1l-5.1-3.2l3.8-6.1L45.8,63z M43.6,62.9l-2.5-1.6l-2.6,4.2l2.5,1.6
		L43.6,62.9z"/>
	<path class="st6" d="M41.2,49.9l0.1,1.1c-1,0-2.3,0.1-3.7,0.3l0-1.1C38.9,50,40.1,49.9,41.2,49.9z M42.1,52.3l5,4.7
		c0-0.6,0-1.3-0.1-2l1.1,0.6c0.1,1.2,0.1,2.4-0.1,3.6L47,58.8c0-0.3-0.1-0.6-0.3-0.7l-4.6-4.2l-1.6,1.7l-0.8-0.8L42.1,52.3z
		 M41.5,46.3l5.2,4.8c2.4,2.3,3.7,4.5,3.9,6.6l-1.2,0.1c-0.1-1.9-1.3-3.8-3.5-5.9l-5.2-4.8L41.5,46.3z M44.2,44.5l9.2,8.5l-0.7,0.8
		l-9.2-8.5L44.2,44.5z M45.9,41.5l10.6,9.8l-0.8,0.8l-10.6-9.8L45.9,41.5z"/>
</g>
<g>
	<path class="st6" d="M166.8,53.2l-0.9-0.7l0.5-0.6l-6.4-5.1l-0.5,0.6l-0.9-0.7l3.6-4.5l8.2,6.5L166.8,53.2z M167.1,51.1l1.8-2.2
		l-6.4-5.1l-1.8,2.2L167.1,51.1z M166.7,40.7c-1.8,0.4-3.5,0.6-5.1,0.5l-0.1-1.1c1.6,0.1,3.2-0.1,4.8-0.4L166.7,40.7z M172,42.5
		c-0.3,0.3-0.6,0.5-0.9,0.8c-0.4,1.6,0.2,3.5,1.8,5.6l-1.1,0.4c-1.5-2-2.1-3.8-1.9-5.4c-0.5,0.2-0.9,0.3-1.4,0.4
		c-1.1,0.1-2.5-0.2-4.3-1.1l0.3-1.1c1.5,0.8,2.8,1.1,3.7,1c1-0.1,2-0.5,2.9-1.4L172,42.5z M167.9,38.4l-1.1,0.1
		c-0.1-0.9-0.4-2.1-0.8-3.4l1.1-0.1C167.4,36.3,167.7,37.4,167.9,38.4z M167.3,41l0-1.2c1.6-0.2,3-0.7,4.2-1.7l0.8,0.8
		c-0.4,0.3-0.8,0.5-1.1,0.8l4.8,3.8l-0.6,0.7c-1,0.5-2,0.9-2.9,1.2l-0.3-1.1c0.7-0.1,1.4-0.4,2.1-0.7l-4.2-3.4
		C169.2,40.6,168.2,40.9,167.3,41z"/>
	<path class="st6" d="M178.5,51.1l-5.4,4.6c0.7,0.1,1.4,0.2,2.3,0.2l-0.7,1c-1.3-0.1-2.6-0.3-3.8-0.6l0.5-1c0.3,0,0.6,0,0.8-0.2
		L177,51l-1.5-1.8l0.8-0.7L178.5,51.1z M183.6,56.7l-5.5,4.8l-3.2-3.7l5.5-4.8L183.6,56.7z M185.3,51.7c-0.5,0.3-1,0.5-1.5,0.7
		l4.1,4.8c-4.4,3.8-7.2,6.1-8.3,6.9c-1.1,0.7-2.1,0.6-3-0.4c-0.2-0.2-0.5-0.6-1-1.2l0.6-0.9c0.4,0.5,0.7,0.9,1,1.3
		c0.5,0.6,1.1,0.6,1.9,0c0.8-0.6,3.2-2.6,7.2-5.9l-3.7-4.3c-1.2,0.3-2.4,0.4-3.6,0.3l0.2-1.2c1.9,0.2,3.7-0.2,5.4-1.1L185.3,51.7z
		 M179.8,58.5l-1.8-2l-1.7,1.5l1.8,2L179.8,58.5z M180.5,57.9l1.6-1.4l-1.8-2l-1.6,1.4L180.5,57.9z M181,50.5l-1.1-0.1
		c0.2-1,0.2-2.2,0.1-3.7l1.1,0.1C181.2,48.2,181.2,49.4,181,50.5z"/>
</g>
<g>
	<path class="st6" d="M149.1,185.3l5.3,10.1l-1.2,0.6l-5.3-10.1L149.1,185.3z"/>
	<path class="st6" d="M158.1,179.9l0.6,1l-3.4,2.1l5.4,8.7l-1.1,0.7l-5.4-8.7l-3.4,2.1l-0.6-1L158.1,179.9z"/>
	<path class="st6" d="M163.4,173.6c3.1,0.5,6.1,0.4,9-0.3l0.2,1.2c-3,0.6-5.9,0.7-8.8,0.1c0.1,2.8-0.5,5.7-1.6,8.8l-1.2-0.4
		c1.2-3,1.8-5.9,1.8-8.8L163.4,173.6z M169.5,175.1l0.7,0.8l-6.3,5.4l-0.7-0.8L169.5,175.1z M176.4,181.8l-0.9,0.7l-0.6-0.7l-6,5.1
		l0.6,0.7l-0.9,0.7l-4.2-4.9l7.7-6.5L176.4,181.8z M174.2,181l-2.1-2.5l-6,5.1l2.1,2.5L174.2,181z"/>
	<path class="st6" d="M172.4,168.3l-1.7-1.4l0.7-0.9l1.7,1.4l1.3-1.6l0.9,0.7l-1.3,1.6l2,1.7l1.5-1.8l0.9,0.7l-1.5,1.9
		c0.3,0.3,0.6,0.6,0.8,0.9c1.2-0.2,2.6-0.3,4-0.3l0.4,1.1c-1.5-0.1-2.7-0.1-3.7,0c1.5,1.8,2.3,3.6,2.4,5.4l-1.1,0.2
		c-0.2-2.2-1.4-4.3-3.6-6.4l-1.6,1.9l-0.9-0.7l1.6-1.9l-2-1.7l-1.5,1.8l-0.9-0.7L172.4,168.3z M184.7,164.5l-0.7,0.9l-6-4.9
		l-2.7,3.3l6,4.9l-0.7,0.9l-6.8-5.6l4.1-5L184.7,164.5z M178,162.6l2.2,1.8c1.8,1.5,3,3.1,3.6,4.6c0.5,1.5,0.5,3.1-0.1,5l-1.1-0.1
		c0.6-1.8,0.6-3.4,0.1-4.7c-0.6-1.3-1.6-2.6-3.1-3.9l-2.2-1.8L178,162.6z M187.5,169.1c-0.5,0.6-1.1,0.7-1.8,0.1l-2.8-2.3l0.7-0.8
		l2.6,2.1c0.3,0.2,0.5,0.2,0.7-0.1l0.5-0.6c0.2-0.2,0.2-0.4,0.2-0.6c-0.1-0.2-0.5-0.7-1.2-1.4l0.9-0.6c1,0.9,1.5,1.6,1.5,1.9
		c0,0.3-0.1,0.7-0.4,1.1L187.5,169.1z"/>
	<path class="st6" d="M181.2,154.3l-0.9-0.5l0.5-1l0.9,0.5l2.1-3.8l-0.9-0.5l0.5-1l0.9,0.5l1.8-3.2l0.9,0.5l-1.8,3.2l1.1,0.6l-0.5,1
		l-1.1-0.6l-2.1,3.8l1,0.6l-0.5,1l-1-0.6l-1.8,3.2l-0.9-0.5L181.2,154.3z M184.6,156l0.3,1.1c-0.8,0.3-1.8,0.8-2.9,1.4l-0.3-1.1
		C182.8,156.8,183.7,156.3,184.6,156z M187.2,158l0.3,1.1c-0.8,0.3-1.8,0.8-2.9,1.5l-0.3-1.1C185.4,158.8,186.3,158.3,187.2,158z
		 M197.4,153.3l-0.5,0.9l-0.6-0.3l-2.4,4.4l0.6,0.3l-0.5,0.9l-4.2-2.3c-0.1,0.4-0.2,0.8-0.2,1.2l-1.1,0.2c0.4-1.8,0.7-3.3,0.7-4.7
		c-0.8,0.3-1.5,0.6-2.2,0.7c0.2,0.8,0.3,1.6,0.3,2.4l-1.1,0.2c0-2.1-0.6-3.8-1.6-5.1l0.7-0.8c0.3,0.3,0.5,0.6,0.7,1l2.3-4.1l0.7,0.4
		c0.6,1.1,1,2.3,1.1,3.7c1.2-0.8,2.4-1.9,3.6-3.3l0.5,1c-1.3,1.5-2.6,2.6-4,3.4c0,1.1-0.1,2.4-0.3,3.7l3.3-6L197.4,153.3z
		 M189,152.8c-0.1-1.1-0.3-2.1-0.7-3l-1.9,3.5c0.1,0.1,0.1,0.3,0.2,0.4C187.4,153.5,188.2,153.2,189,152.8z M188.9,159.2
		c1,1.3,1.9,2.6,2.7,4l-1,0.7c-0.8-1.4-1.6-2.8-2.6-4L188.9,159.2z M195.4,153.5l-1.9-1l-2.4,4.4l1.9,1L195.4,153.5z"/>
	<path class="st6" d="M197.6,143.1c0.2,1.6,0.2,3.3,0.1,5.1l-1.2-0.1c0.1-0.7,0.1-1.4,0.2-2.1l-5.4-1.8l-0.6,1.7l-1.1-0.4l0.6-1.7
		l-3.9-1.3l0.4-1.1l3.9,1.3l0.5-1.6l1.1,0.4l-0.5,1.6l5,1.7c0-0.7-0.1-1.4-0.2-2L197.6,143.1z M198.5,134c0.6,0.4,0.7,1.1,0.3,2.3
		l0,0.1l-1.2-0.1c0.1-0.2,0.2-0.4,0.2-0.6c0.1-0.4,0.1-0.7-0.2-0.9c-0.3-0.2-1.5-0.6-3.5-1.3l-0.1,2.4l5.7,1.9l-0.4,1.1l-5.4-1.8
		l-0.1,2.4l5.9,2c0.5,0.2,0.8,0,1-0.6l1.4-4.3c0.1-0.3,0.1-0.6-0.1-0.8c-0.2-0.2-0.9-0.6-2.1-1.1l0.7-0.9c1.5,0.6,2.4,1.1,2.6,1.5
		c0.2,0.4,0.2,0.8,0,1.4l-1.6,4.8c-0.3,1-1,1.3-2,1l-5.8-1.9l0,1.4l-1.1-0.4l0-1.4L189,139l0.4-1.1l3.4,1.1l0.1-2.4l-4.3-1.4
		l0.4-1.1l3.9,1.3l0.1-3.6C196,132.9,197.8,133.6,198.5,134z"/>
</g>
<g>
	<path class="st6" d="M36.8,153l-6.1,3.6c0.6,0.2,1.4,0.4,2.2,0.6l-0.9,0.9c-1.3-0.3-2.5-0.8-3.6-1.3l0.7-0.9c0.3,0.1,0.6,0.1,0.8,0
		l5.5-3.3l-1.2-2l1-0.6L36.8,153z M45.9,160.1l-0.9,0.6l-1.9-3.3l-5.2,3.1l2.2,3.7l-0.9,0.6l-2.2-3.7L32,164l-0.6-1l4.9-2.9
		l-2.1-3.6l1-0.6l2.1,3.6l5.2-3.1l-1.9-3.2l0.9-0.6L45.9,160.1z M37.6,157.9l-0.7-0.7c1-1,1.9-2,2.8-3.1l0.8,0.7
		C39.6,155.7,38.7,156.8,37.6,157.9z M39.4,152.8l-1.1-0.3c0.3-1,0.6-2.2,0.7-3.6l1.1,0.3C40,150.6,39.7,151.8,39.4,152.8z
		 M43.8,160.8c-1.5,0.5-2.9,0.8-4.2,1l-0.2-1c1.2-0.1,2.5-0.5,4.1-1L43.8,160.8z"/>
	<path class="st6" d="M49.6,164.1c-1.2,0.5-2.5,0.9-3.8,1.2l-8,7l-0.8-0.9l6.7-5.8c-0.8,0.1-1.7,0.1-2.6,0.1l0.7-1.1
		c2.6,0,5-0.6,7.4-1.6L49.6,164.1z M50.4,169.2l2.4-2.1l0.8,0.9l-2.4,2.1l3,3.4l-0.8,0.7l-3-3.4l-2.5,2.2l2.3,2.7l-5.3,4.6l-0.7-0.9
		l0.5-0.5l-3.8-4.4l-0.5,0.5l-0.8-0.9l5.3-4.6l2.2,2.6l2.5-2.2l-2.9-3.3l0.8-0.7L50.4,169.2z M45.4,178.2l3.1-2.7l-3.8-4.4l-3.1,2.7
		L45.4,178.2z"/>
	<path class="st6" d="M52.1,182.6l-0.6,0.7l-0.9-0.7l4.9-6.1l3.6,2.9l1-1.2l0.9,0.7l-1,1.2l3.7,3l-4.8,6l-0.9-0.7l0.6-0.7l-2.8-2.3
		l-2,2.5l-0.9-0.7l2-2.5L52.1,182.6z M52.8,181.8l2.8,2.2l1.2-1.4l-2.8-2.2L52.8,181.8z M55.7,178.1l-1.2,1.4l2.8,2.2l1.2-1.4
		L55.7,178.1z M65.2,183.5l-0.9-0.7l1.1-1.4l-8.7-6.9l-1.2,1.4l-0.9-0.7l1.8-2.2l4.8,3.8c0.1-0.4,0.3-0.8,0.3-1.2l1.1,0.6
		c-0.1,0.4-0.3,0.9-0.5,1.4l4.7,3.8L65.2,183.5z M59.3,187l1.2-1.4l-2.8-2.3l-1.2,1.4L59.3,187z M62.2,183.3l-2.8-2.3l-1.2,1.4
		l2.8,2.3L62.2,183.3z"/>
	<path class="st6" d="M64.6,195.5l-1-0.5l3.8-7c-1.2,1.2-2.5,2.2-3.9,2.9l0.1-1.3c1.8-0.9,3.4-2.2,4.8-3.8l-1.9-1l0.5-1l1.9,1.1
		l1.5-2.7l1,0.5l-1.5,2.7l1.7,0.9l-0.5,1l-1.7-0.9l-0.5,0.9c0.3,1.1,0.5,2.4,0.6,3.7l-1,0.6c0-1.3-0.1-2.4-0.2-3.2L64.6,195.5z
		 M66.4,196.4l-0.1-1.2c3.9,0.7,7.5,0,10.8-2.2l0.6,0.9c-1.4,0.9-2.8,1.6-4.2,2c0.5,1.4,0.9,2.8,1.1,4.1l-1.1,0.3
		c-0.1-1.2-0.5-2.6-1-4.1C70.6,196.7,68.5,196.8,66.4,196.4z M76.2,187.2c0.1-0.6,0.1-1.2,0.1-1.8l1.1,0.4c0,0.6-0.1,1.2-0.2,1.9
		l3.1,1.7l-0.5,0.9l-3.9-2.1c-1.5,0.9-2.7,1.5-3.6,1.8c0.9,0.4,1.8,0.9,2.8,1.3c0.6-0.3,1.2-0.7,1.8-1.1l0.6,0.9
		c-2.9,2-6,2.8-9.3,2.4l-0.1-1.1c2,0.3,4,0.1,5.8-0.5c-1-0.5-2.1-1-3.2-1.6l0.2-0.9c0.1,0,0.2,0,0.2,0c0.8-0.1,2-0.6,3.7-1.7
		l-2.7-1.5l0.5-0.9L76.2,187.2z"/>
</g>
<g>
	<path class="st6" d="M89.4,104.9c1.8,2.1,3.8,3.7,6.2,4.9l-0.5,1c-2.3-1.3-4.3-2.9-6-4.9c-1.5,1.9-3.5,3.5-6,4.9l-0.5-1
		c2.5-1.3,4.6-2.9,6.2-4.9H89.4z M93.4,117.8h-1v-0.8h-6.9v0.8h-1v-5.6h8.9V117.8z M92.6,109.4v1h-7.3v-1H92.6z M92.4,116v-2.9h-6.9
		v2.9H92.4z"/>
	<path class="st6" d="M99,107v-1.9h1v1.9h1.9v1H100v2.3h2.1v1H100c0,0.4-0.1,0.7-0.1,1.1c0.8,0.7,1.6,1.6,2.4,2.5l-0.6,0.9
		c-0.8-1.1-1.5-1.9-2-2.5c-0.4,2-1.2,3.5-2.3,4.6l-0.7-0.7c1.4-1.3,2.1-3.3,2.3-5.9h-2.1v-1H99V108h-2v-1H99z M106,107.6v2.5
		c0,2.1-0.4,3.8-1.1,5c-0.7,1.1-1.8,2.1-3.4,2.7l-0.5-0.9c1.5-0.6,2.6-1.5,3.2-2.5c0.6-1.1,0.9-2.5,0.9-4.3v-2.5H106z M108.4,113.2
		h-1v-6.8h-3.7v6.8h-1v-7.7h5.7V113.2z M106.8,117.6c-0.7,0-1.1-0.4-1.1-1.2v-3.2h0.9v2.9c0,0.3,0.1,0.5,0.4,0.5h0.7
		c0.2,0,0.4-0.1,0.5-0.2c0.1-0.2,0.2-0.7,0.3-1.6l0.9,0.3c-0.1,1.1-0.3,1.8-0.5,2.1c-0.2,0.2-0.5,0.3-1,0.3H106.8z"/>
	<path class="st6" d="M113.7,109.2v6.1c0.5-0.4,1.1-0.9,1.6-1.4l0.3,1c-0.9,0.8-1.8,1.6-2.8,2.2l-0.4-0.9c0.2-0.2,0.3-0.4,0.3-0.6
		v-5.5h-2.1v-1H113.7z M114.7,107.3L114,108c-0.6-0.7-1.4-1.4-2.4-2.2l0.7-0.7C113.2,105.8,114,106.5,114.7,107.3z M119.8,105
		c0,1.2,0,2.3-0.1,3.3c0.7,3.6,2,6.4,3.9,8.5l-0.7,0.8c-1.5-1.9-2.6-4.3-3.4-7c-0.1,0.4-0.1,0.8-0.2,1.1c-0.5,2.4-1.7,4.4-3.6,5.9
		l-0.7-0.8c1.6-1.4,2.7-3.1,3.2-5.2c0.4-1.8,0.6-4,0.6-6.7H119.8z"/>
	<path class="st6" d="M127.6,109.2v6.1c0.4-0.4,0.9-0.8,1.4-1.3l0.3,1.1c-0.8,0.8-1.7,1.5-2.6,2.1l-0.4-0.9c0.2-0.2,0.3-0.4,0.3-0.6
		v-5.4h-2v-1H127.6z M128.6,107.3L128,108c-0.6-0.7-1.3-1.4-2.3-2.2l0.7-0.7C127.2,105.8,128,106.5,128.6,107.3z M129.4,106.6v-1
		h7.9v1h-2.9v3.9h2.7v0.9h-2.7v4.8h3.2v1h-8.6v-1h1.4v-7.4h1v7.4h2v-9.7H129.4z"/>
</g>
</svg>
