<?xml version="1.0" encoding="utf-8"?>
<!-- Generator: Adobe Illustrator 22.1.0, SVG Export Plug-In . SVG Version: 6.00 Build 0)  -->
<svg version="1.1" id="图层_1" xmlns="http://www.w3.org/2000/svg" xmlns:xlink="http://www.w3.org/1999/xlink" x="0px" y="0px"
	 width="221px" height="221px" viewBox="0 0 221 221" style="enable-background:new 0 0 221 221;" xml:space="preserve">
<style type="text/css">
	.st0{fill:#2376DA;}
	.st1{fill:#D0D0D0;}
	.st2{fill:#01C6D8;}
	.st3{fill:#FDFEFF;}
	.st4{fill:#FFFFFF;}
</style>
<polygon class="st0" points="110.9,3 15.9,3 15.9,43 49.9,62.2 49.9,37 110.9,37 171.9,37 171.9,61.6 205.9,42.5 205.9,3 "/>
<path class="st1" d="M172,68.5V116c0,29.8-36.1,54.1-58,65v36.7c0.1,0,0.3-0.1,0.4-0.1c0.3-0.1,0.6-0.1,0.9-0.2
	c0.2,0,0.4-0.1,0.6-0.1c0.4-0.1,0.9-0.3,1.3-0.4h0.1c0.9-0.3,21.8-8.8,42.9-24.4c30-22.3,45.9-48.7,45.9-76.4V49.3L172,68.5z"/>
<path class="st2" d="M108,181c-22-10.9-58-35.2-58-65V69L16,49.9V116c0,27.7,15.9,54.1,45.9,76.4c21,15.7,42,24.1,42.9,24.4
	c0,0,0,0,0.1,0c0.5,0.2,0.9,0.3,1.4,0.5c0.1,0,0.2,0.1,0.4,0.1c0.3,0.1,0.7,0.2,1.1,0.3c0.1,0,0.3,0.1,0.4,0.1V181H108z"/>
<g>
	<path class="st3" d="M42.7,18.3l-0.6,0.6c-0.6-0.7-1.4-1.4-2.5-2.2l0.6-0.5C41.2,16.9,42.1,17.6,42.7,18.3z M42.5,20.7
		c-0.6,2-1.2,3.9-1.9,5.6L39.9,26c0.7-1.8,1.4-3.7,1.9-5.6L42.5,20.7z M43.3,14.4L42.7,15c-0.6-0.7-1.4-1.4-2.4-2.2l0.6-0.5
		C41.8,13,42.6,13.7,43.3,14.4z M45,18.5c0,3.2-0.6,5.9-1.9,8.1L42.5,26c1.1-2,1.7-4.5,1.7-7.5v-5.9h9.2V16H45V18.5z M45,13.4v1.8
		h7.5v-1.8H45z M53.9,17.4v0.8H50v1.5h3.6v5.6c0,0.7-0.3,1-1,1h-1.3l-0.2-0.7l1.2,0c0.3,0,0.5-0.2,0.5-0.6v-4.7H50v5.9h-0.8v-5.9
		h-2.8v6h-0.7v-6.7h3.5v-1.5h-3.8v-0.8H53.9z M48.8,24.7l-0.4,0.4c-0.4-0.5-0.8-0.9-1.4-1.5l0.4-0.4C48,23.7,48.4,24.2,48.8,24.7z
		 M48.9,22.5L48.4,23c-0.4-0.4-0.9-0.9-1.5-1.4l0.4-0.4C48,21.6,48.5,22,48.9,22.5z M52.4,24.5l-0.4,0.4c-0.4-0.4-0.8-0.9-1.4-1.4
		l0.4-0.4C51.5,23.5,52,24,52.4,24.5z M52.5,22.4l-0.4,0.4c-0.4-0.4-0.9-0.9-1.5-1.3l0.4-0.4C51.6,21.6,52.1,22,52.5,22.4z"/>
	<path class="st3" d="M59.1,18.4l-0.6,0.6c-0.6-0.7-1.5-1.5-2.6-2.4l0.6-0.6C57.5,16.8,58.4,17.6,59.1,18.4z M59.3,20.7
		c-0.8,2-1.7,3.9-2.7,5.7L55.8,26c1.1-1.8,2-3.7,2.7-5.6L59.3,20.7z M59.4,14.5l-0.6,0.6c-0.7-0.7-1.6-1.5-2.8-2.3l0.6-0.6
		C57.7,13,58.7,13.8,59.4,14.5z M66,26.5l-0.2-0.8l2,0c0.6,0,0.9-0.2,0.9-0.7V13.5H61v13h-0.8V12.7h9.3v12.5c0,0.9-0.5,1.3-1.4,1.3
		H66z M67.6,15.5v0.8h-5.4v-0.8H67.6z M67.1,18.2v5.1h-4.4v-5.1H67.1z M66.3,19h-2.9v3.6h2.9V19z"/>
	<path class="st3" d="M75.9,12.3c-0.4,1.2-0.9,2.4-1.4,3.4v10.8h-0.8v-9.4c-0.5,0.8-1.2,1.6-1.8,2.3l-0.3-0.9c1.6-2,2.8-4.2,3.5-6.7
		L75.9,12.3z M76.9,14.8v9h-0.8v-9H76.9z M81.2,12c-0.2,0.5-0.4,0.9-0.6,1.3h4.7v0.8c-0.6,1.1-1.5,2.1-2.6,2.9
		c1,0.5,2.1,0.9,3.5,1.2L85.8,19c-1.6-0.4-2.9-0.9-4-1.5c-1.1,0.6-2.5,1.2-4,1.6l-0.3-0.8c1.4-0.4,2.6-0.8,3.6-1.3
		c-0.8-0.6-1.4-1.2-1.8-2c-0.4,0.4-0.8,0.7-1.2,1l-0.5-0.7c1.4-1,2.3-2.1,2.8-3.5L81.2,12z M78,25.9c1.8-0.5,3.3-1.1,4.4-1.8
		c1.2-0.7,2.1-1.6,2.9-2.7l0.6,0.5c-0.7,1.1-1.8,2.1-3.2,2.9c-1.4,0.8-2.9,1.4-4.5,1.8L78,25.9z M83.2,19.1c-0.6,0.5-1.2,1-1.8,1.3
		c-0.7,0.4-1.6,0.7-2.6,1.1l-0.4-0.7c0.9-0.3,1.8-0.6,2.5-0.9c0.6-0.3,1.2-0.7,1.8-1.2L83.2,19.1z M84.6,20.3
		c-1.3,1.6-3.1,2.8-5.6,3.5l-0.3-0.8c2.4-0.7,4.1-1.7,5.3-3.2L84.6,20.3z M81.9,16.5c1.1-0.7,1.9-1.5,2.5-2.4h-4.3
		c-0.1,0.1-0.2,0.2-0.2,0.3C80.3,15.3,81,16,81.9,16.5z"/>
	<path class="st3" d="M88.4,17.2l-0.5-0.7c1.7-1.3,2.8-2.8,3.4-4.6l0.9,0.1c-0.1,0.4-0.3,0.8-0.5,1.3h9.6V14h-10
		C90.6,15.2,89.6,16.2,88.4,17.2z M99.9,15.3v4.9h-6.4c-0.3,0.5-0.6,0.9-1,1.3h7.3v0.6c-0.9,1.1-2,2-3.4,2.7
		c1.6,0.5,3.5,0.8,5.5,0.9l-0.2,0.8c-2.4-0.1-4.5-0.5-6.3-1.2c-1.9,0.7-4.2,1.2-6.9,1.3l-0.4-0.8c2.4-0.1,4.5-0.4,6.2-1
		c-1.2-0.6-2.3-1.3-3.2-2.1c-0.7,0.5-1.5,0.9-2.3,1.3l-0.4-0.7c1.9-0.8,3.3-1.8,4.2-3.1h-2.1v-4.9H99.9z M99.1,17.4V16h-7.7v1.4
		H99.1z M99.1,18.1h-7.7v1.4h7.7V18.1z M98.9,22.2h-7l0,0c1.1,0.9,2.3,1.6,3.7,2.2C96.9,23.9,98,23.1,98.9,22.2z"/>
	<path class="st3" d="M107.5,24.4c0.5,0.6,1,1.1,1.3,1.6l-0.6,0.5c-0.4-0.5-0.8-1-1.3-1.6c-0.6-0.6-1.2-1.2-1.7-1.6l0.6-0.5
		C106.2,23.3,106.8,23.8,107.5,24.4z"/>
	<path class="st3" d="M122.4,18.3l-0.6,0.6c-0.5-0.7-1.3-1.5-2.2-2.3l0.6-0.5C121.1,16.8,121.8,17.6,122.4,18.3z M122.7,14.5
		l-0.6,0.6c-0.6-0.7-1.4-1.5-2.3-2.2l0.6-0.6C121.3,13,122.1,13.8,122.7,14.5z M122.5,20.8c-0.6,2-1.2,3.8-1.9,5.5l-0.8-0.3
		c0.7-1.8,1.4-3.6,1.9-5.5L122.5,20.8z M126.4,15c0.5-1,0.9-2,1.2-3.1l0.8,0.3c-0.4,1.1-0.8,2-1.2,2.8h1.8v0.8h-2.5v3.7
		c0,0.5,0,0.9-0.1,1.4h1.5V17h0.7v4.7h-2.3c-0.4,2.1-1.3,3.8-2.7,4.9l-0.6-0.6c1.3-1,2.2-2.4,2.5-4.3h-1.9V17h0.7v3.9h1.3
		c0-0.4,0.1-0.9,0.1-1.4v-3.7H123V15H126.4z M125.6,14.5l-0.7,0.3c-0.4-0.9-0.9-1.8-1.3-2.5l0.7-0.3
		C124.8,12.8,125.2,13.6,125.6,14.5z M128.4,26.6l-0.6-0.6c1.2-1.6,1.9-3.5,1.9-5.9v-7.4h3.9v12.6c0,0.7-0.4,1.1-1.1,1.1h-1.2
		l-0.2-0.8c0.4,0,0.8,0,1.2,0c0.4,0,0.5-0.2,0.5-0.7v-3.7h-2.4C130.2,23.4,129.6,25.2,128.4,26.6z M130.5,20c0,0.2,0,0.4,0,0.5h2.3
		v-3.2h-2.3V20z M132.8,13.5h-2.3v3.2h2.3V13.5z"/>
	<path class="st3" d="M139.1,18.6l-0.6,0.6c-0.7-0.8-1.6-1.6-2.7-2.4l0.6-0.6C137.5,17,138.4,17.8,139.1,18.6z M139.2,20.8
		c-0.7,2-1.6,3.9-2.4,5.7l-0.8-0.4c1-1.8,1.8-3.7,2.5-5.6L139.2,20.8z M139.6,14.8l-0.6,0.6c-0.7-0.8-1.7-1.6-2.9-2.5l0.6-0.6
		C137.8,13.2,138.8,14,139.6,14.8z M145,15.2c0.2-0.5,0.4-1.1,0.5-1.7h-4.2v5c-0.1,3.3-0.7,6-1.8,8l-0.7-0.6c1-1.8,1.6-4.3,1.6-7.5
		v-5.8h9.5v0.8h-3.6c-0.1,0.6-0.3,1.2-0.5,1.7h3.2v5.4h-2.8v4.7c0,0.8-0.4,1.2-1.1,1.2h-1.3l-0.2-0.8c0.4,0,0.8,0.1,1.2,0.1
		c0.4,0,0.6-0.2,0.6-0.6v-4.5h-2.8v-5.4H145z M144,22.1c-0.4,1.4-1,2.7-1.8,3.7l-0.7-0.4c0.8-1,1.3-2.1,1.7-3.4L144,22.1z
		 M148.3,17.6v-1.7h-4.9v1.7H148.3z M148.3,18.3h-4.9v1.6h4.9V18.3z M150.1,25.4l-0.7,0.3c-0.5-1.4-1.2-2.6-1.8-3.6l0.7-0.2
		C149,23,149.6,24.1,150.1,25.4z"/>
	<path class="st3" d="M159.6,23.2l-1.5,0.4v3h-0.9v-2.8c-1.7,0.4-3.5,0.7-5.3,1l-0.2-0.9c0.5-0.1,1-0.1,1.5-0.2V13.5h-1.3v-0.8h7.5
		v0.8h-1.3v9.3l1.5-0.4V23.2z M157.2,16.2v-2.8h-3.2v2.8H157.2z M157.2,19.7V17h-3.2v2.7H157.2z M157.2,20.5h-3.2v3
		c1.1-0.2,2.1-0.4,3.2-0.6V20.5z M160.2,14.4h-0.7v-0.8h6v0.8c-0.4,3-1.1,5.6-2.3,7.7c0.8,1.4,1.8,2.7,3,3.8l-0.6,0.7
		c-1.1-1.2-2.1-2.4-2.8-3.7c-0.9,1.5-2,2.7-3.2,3.7l-0.6-0.7c1.3-1.1,2.4-2.4,3.3-3.9C161.1,19.7,160.4,17.1,160.2,14.4z
		 M160.9,14.4c0.2,2.5,0.8,4.8,1.9,6.8c1-2,1.6-4.2,1.9-6.8H160.9z"/>
	<path class="st3" d="M170.9,16.9v7.2c0.6-0.5,1.2-1,1.9-1.7l0.2,0.9c-0.9,0.9-1.8,1.7-2.9,2.4l-0.3-0.8c0.2-0.2,0.3-0.4,0.3-0.5
		v-6.6h-2.4v-0.8H170.9z M172.1,14.7l-0.6,0.6c-0.7-0.8-1.6-1.7-2.7-2.6l0.6-0.6C170.5,13,171.4,13.8,172.1,14.7z M173.1,13.7v-0.8
		h8.9v0.8h-3.4v4.8h3.2v0.8h-3.2v5.9h3.8V26h-9.7v-0.8h1.7v-8.7h0.8v8.7h2.5V13.7H173.1z"/>
</g>
<g>
	<path class="st0" d="M77,91.6v0.9c-0.5,1.4-1.1,2.9-1.7,4.5c1,1.4,1.5,2.8,1.6,3.9c0,0.7-0.2,1.2-0.5,1.4c-0.4,0.4-1.3,0.5-2.4,0.6
		l-0.4-1.2c0.2,0,0.4,0.1,0.6,0.1c0.6,0,1-0.1,1.2-0.2s0.3-0.3,0.3-0.7c0-1.1-0.5-2.4-1.6-3.8c0.7-1.7,1.3-3.2,1.7-4.5h-2.7v13h-1.1
		V91.6H77z M81.2,93.3c-0.2-0.8-0.5-1.6-0.8-2.2l1.2-0.2c0.3,0.7,0.5,1.5,0.8,2.4h3.5v1.1h-5.3c0,0.6,0,1.6-0.1,2.8h4.6
		c0,3.4-0.2,5.6-0.4,6.6c-0.3,1.1-1,1.6-2.1,1.6c-0.4,0-0.8,0-1.4-0.1l-0.4-1.1c0.6,0,1.2,0.1,1.6,0.1c0.7,0,1.1-0.4,1.3-1.2
		c0.1-0.8,0.1-2.4,0.2-4.8h-3.5c-0.2,1.3-0.5,2.5-0.9,3.6c-0.6,1.3-1.5,2.6-2.6,3.7l-0.8-0.8c1.3-1.4,2.2-2.7,2.6-4
		c0.4-1.2,0.7-2.6,0.7-4.1c0-1.1,0.1-1.9,0.1-2.4h-2.2v-1.1H81.2z"/>
	<path class="st0" d="M95.4,91v5.3c0.5,3.4,2.8,6.2,6.7,8.3l-0.7,0.9c-3.4-2-5.6-4.5-6.6-7.5c-0.8,2.9-2.9,5.5-6.5,7.6l-0.7-0.9
		c4.1-2.3,6.3-5.1,6.6-8.4V91H95.4z M91.5,93.6c-0.5,2-1,3.7-1.7,5.2l-1-0.4c0.7-1.3,1.2-3,1.7-5.1L91.5,93.6z M101.1,93.8
		c-0.9,1.7-1.9,3.2-3.1,4.5l-0.9-0.6c1.2-1.2,2.2-2.7,3-4.4L101.1,93.8z"/>
	<path class="st0" d="M105.1,95.2V91h1.2v4.3h1.4v1.1h-1.4v5.1c0.6-0.3,1.2-0.5,1.8-0.8v1.2c-1.3,0.7-2.8,1.3-4.3,1.7l-0.3-1.2
		c0.5-0.1,1.1-0.3,1.6-0.4v-5.5h-1.4v-1.1H105.1z M112.5,92.1v-1.2h1.2v1.2h3.8v1h-3.8V96h1.3c0.4-0.7,0.7-1.5,1-2.4l1,0.4
		c-0.3,0.7-0.5,1.4-0.9,2h2v1h-10v-1h2.1c-0.3-0.7-0.6-1.3-0.9-1.8l1-0.4c0.4,0.7,0.7,1.4,1,2.2h1.2v-2.9h-3.9v-1H112.5z
		 M117.2,105.6h-1.1V105h-6.1v0.6H109v-7.4h8.2V105.6z M116.1,104v-4.9h-6.1v4.9H116.1z M115,100.1v2.9h-3.7v-2.9H115z M114.1,100.9
		h-1.9v1.4h1.9V100.9z"/>
	<path class="st0" d="M119.7,99l-0.3-1.2c1.7-2,2.9-4.4,3.6-7l1,0.5c-0.4,1.3-0.9,2.6-1.6,3.8v10.5h-1.1V97
		C120.8,97.7,120.3,98.4,119.7,99z M128,93.7v-2.8h1.1v2.8h4.4v1.1h-3.3c0.7,2.6,2,5,3.9,7.1l-0.8,0.9c-2-2.4-3.3-5-4.1-8h-0.2v6.4
		h2.5v1.1h-2.5v3.3H128v-3.3h-2.4v-1.1h2.4v-6.4h-0.2c-0.8,3.3-2.2,6.1-4.2,8.2l-0.6-1c1.8-1.9,3.1-4.3,3.8-7.2h-3.1v-1.1H128z"/>
	<path class="st0" d="M140.4,101.7c-1.1,1.3-2.4,2.4-4,3.4l-0.7-0.9c1.6-0.9,2.9-2,3.9-3.2L140.4,101.7z M140.4,105.6l-0.3-1.1
		c0.6,0,1.1,0.1,1.6,0.1c0.4,0,0.6-0.2,0.6-0.6V100c-1.5,0.1-3.2,0.2-5,0.3l-0.3-1c0.4,0,0.7-0.1,1-0.2c1.3-0.6,2.8-1.5,4.4-2.7
		c-1.4,0.1-2.9,0.2-4.5,0.3l-0.2-1c0.3,0,0.5-0.1,0.8-0.2c0.8-0.4,1.7-1.2,2.8-2.4c-1.4,0.1-2.8,0.1-4.3,0.1l-0.3-1
		c4.6,0,8.4-0.3,11.5-1l0.6,1c-1.7,0.4-3.6,0.7-5.9,0.8c-1,1.2-2,2-3,2.7c1.3-0.1,2.6-0.2,3.9-0.3c0.7-0.6,1.5-1.2,2.2-1.9l1.1,0.5
		c-2.7,2.4-5.1,4.1-7.1,5.2c2.6-0.1,4.8-0.3,6.7-0.5c-0.4-0.5-0.8-1-1.2-1.6l0.9-0.5c1.3,1.5,2.3,2.9,3,4l-0.9,0.7
		c-0.3-0.5-0.7-1.1-1-1.6c-1.1,0.1-2.3,0.2-3.7,0.4v4.3c0,0.9-0.5,1.4-1.4,1.4H140.4z M149.8,104.4l-0.8,0.8c-1-1.1-2.3-2.3-4-3.6
		l0.8-0.7C147.3,102,148.7,103.2,149.8,104.4z"/>
</g>
<g>
	<path class="st4" d="M32.3,109.1c-0.7-0.3-1.4-0.6-2-0.9l0.9-0.7c1.8,0.9,4.2,1.6,7.3,1.9l-0.2,1.1c-0.8-0.1-1.6-0.2-2.3-0.4v4.2
		h-1.1v-1c-2.7-0.1-5-0.6-6.9-1.5c-1.4,0.8-2.5,1.8-3.3,3l-0.9-0.6c0.8-1.1,1.9-2.1,3.2-2.9c-1.3-0.8-2.4-1.8-3.2-3l1-0.6
		c0.9,1.2,2,2.2,3.3,3C29.3,110.1,30.7,109.5,32.3,109.1z M30.8,104.2c-0.3-0.1-0.6-0.2-0.9-0.3v3.3H29c-1.1-0.4-2-0.9-2.7-1.8
		c-0.4,0.8-0.7,1.5-1.1,2.2l-0.9-0.6c0.4-0.7,0.8-1.5,1.3-2.5c-0.7-1.1-1.3-2.4-1.8-4l1-0.5c0.4,1.3,0.8,2.4,1.3,3.4
		c0.3-0.7,0.6-1.4,0.9-2.2c0.7,0.4,1.4,0.8,2,1.1v-1.9h1v2.3c0.4,0.1,0.7,0.3,1,0.4L30.8,104.2z M29,106.1v-2.8
		c-0.5-0.3-1.1-0.5-1.5-0.9c-0.2,0.6-0.4,1.2-0.7,1.8C27.4,105.2,28.1,105.8,29,106.1z M34,109.7c-1.9,0.4-3.5,0.9-4.8,1.6
		c1.6,0.6,3.5,1,5.7,1v-2.4L34,109.7z M35.3,103.5h3.1v1.1h-3.1v2.9h-1v-2.9h-0.2c-0.4,0.9-0.9,1.8-1.5,2.7l-0.9-0.6
		c0.6-0.8,1.2-1.5,1.5-2.1h-2.1v-1.1h3c-1.3-0.5-2.4-1.5-3.3-2.9l0.9-0.6c0.7,1.2,1.5,2.1,2.4,2.6v-2.3h1V103.5z M37.8,107.3
		c-0.7-0.3-1.4-0.7-2.1-1.2l0.4-0.8c0.7,0.5,1.4,0.9,2,1.2L37.8,107.3z M36.1,102.6l-0.4-0.8c0.8-0.3,1.5-0.7,2.1-1.1l0.3,0.9
		C37.5,102,36.8,102.3,36.1,102.6z"/>
	<path class="st4" d="M23.6,116.9l1.1-0.3c0,0.4,0,0.8,0,1.2c0,0.4,0.3,0.6,0.7,0.6l3.9-0.1c-0.3-0.6-0.5-1.2-0.7-1.9l1.1-0.3
		c0.2,0.7,0.5,1.5,0.7,2.2l3.6-0.1l-0.1-1.9l1.1,0l0.1,1.9l3-0.1l0,1.1l-3,0.1l0.1,1.5l-1.1,0l-0.1-1.5l-3.1,0.1
		c0.2,0.5,0.5,1,0.8,1.5l-1.1,0c-0.3-0.5-0.5-1-0.8-1.5l-4.7,0.2c-0.9,0-1.4-0.4-1.5-1.3L23.6,116.9z M23.6,121.2l0.8-0.9
		c2.2,1.1,4.9,1.5,8.3,1.4l5-0.2l0.3,8.4l-3.9,0.1l-0.1-3l-1.9,0.1l0.1,3.4l-1,0l-0.1-3.4l-2,0.1l0.1,2.7l-5.2,0.2l0-1.1l0.8,0
		l-0.2-4.3l-0.8,0l0-1.1l5.2-0.2l0.1,2.7l2-0.1l-0.1-3.3C28.2,122.7,25.8,122.2,23.6,121.2z M25.7,129l2.4-0.1l-0.2-4.3l-2.4,0.1
		L25.7,129z M33.9,122.8l-1.1,0c-0.3,0-0.5,0-0.8,0l0.1,3.2L34,126L33.9,122.8z M36.7,122.7l-1.8,0.1l0.2,6.2l1.8-0.1L36.7,122.7z"
		/>
	<path class="st4" d="M32.1,136.7c-2.1,0.2-4.2,0.3-6.1,0.3l0-1.3c2,0.1,4.1,0,6.1-0.2L32.1,136.7z M39.6,141.9l3.7-1.6l0.5,1.1
		l-3.7,1.6l0.8,1.8l-1,0.5l-0.8-1.8l-5,2.2l-1.8-4l5-2.2l-0.8-1.8l-7.1,3.2l3.2,7.3l-1,0.5l-3.7-8.3l8.1-3.6l-0.5-1.2l1-0.5l0.5,1.2
		l3.2-1.4l0.5,1l-3.2,1.4l0.8,1.8l3.7-1.6l0.4,1l-3.7,1.6L39.6,141.9z M34.2,135.4l-1.1-0.4c0.4-0.8,0.8-1.9,1.2-3.2l1.1,0.4
		C35,133.4,34.7,134.5,34.2,135.4z M38.6,142.3l-0.8-1.9l-4,1.8l0.8,1.9L38.6,142.3z M37.8,134.2l-1.1-0.4c0.4-0.9,0.8-2,1.1-3.3
		l1.1,0.4C38.6,132.1,38.2,133.2,37.8,134.2z"/>
	<path class="st4" d="M43.1,151.8l-2.6,1.9l-0.9-1.3l-0.9,0.7l1,1.4L39,155l-1-1.4l-1.1,0.8c0.5,0.5,1.1,1,1.6,1.4l-0.7,0.5
		c-1.3-1.1-2.8-2.5-4.4-4.2l0.6-0.8c0.2,0.2,0.4,0.4,0.6,0.7l2.5-1.9l0.5,0.7l-2.4,1.8c0.3,0.3,0.6,0.6,0.9,0.9l2.8-2.1l-1.4-1.9
		l2.6-1.9L43.1,151.8z M40.9,162.6l-0.6-0.8l0.4-0.3l-2.2-3l-0.4,0.3l-0.6-0.8l2.9-2.1l3.4,4.6L40.9,162.6z M41.9,151.5l-1.7-2.4
		l-1.2,0.9l1.7,2.4L41.9,151.5z M41.4,161l1.1-0.8l-2.2-3l-1.1,0.8L41.4,161z M45.8,154.9c-0.3,0-0.5,0.1-0.8,0.1l2.2,3l-0.5,0.4
		c-0.9,0-1.8-0.1-2.8-0.5c0.3,1,0.7,2.1,1.2,3.2l-1,0c-0.6-1.3-1.1-2.6-1.3-3.7c-1-0.5-2.1-1.3-3.3-2.2l0.3-1c1,0.9,2,1.6,2.9,2.1
		c0-0.6,0-1.2,0.1-1.7c-0.4-0.1-0.9-0.3-1.4-0.6l0.3-1c1.4,0.8,2.6,1.1,3.6,0.9L45.8,154.9z M52.5,154.1l-0.7,0.5l-3.3-4.5l-0.7,0.5
		l3.6,4.9l-2.1,1.6l-0.6-0.9l1.4-1.1l-3-4.1l-2.4,1.7l-0.6-0.9l2.4-1.7l-3-4.1l-1.4,1.1l-0.6-0.9l2.1-1.6l3.6,4.9l0.7-0.5l-3.3-4.5
		l0.7-0.5L52.5,154.1z M44.3,150.8l-0.5,0.4l-1.9-2.7l0.5-0.4L44.3,150.8z M45.3,150.1l-0.5,0.4l-1.9-2.7l0.5-0.4L45.3,150.1z
		 M43.8,156.9c0.8,0.4,1.5,0.6,2.2,0.7l-1.9-2.6c-0.1,0-0.2,0-0.3-0.1C43.7,155.5,43.7,156.2,43.8,156.9z M47.9,155.8l-0.5,0.4
		l-2-2.7l0.5-0.4L47.9,155.8z M48.9,155l-0.5,0.4l-1.9-2.6l0.5-0.4L48.9,155z"/>
	<path class="st4" d="M53.2,159.2l2.3-2.1l0.8,0.8L54,160l1.1,1.2l-0.8,0.8l-1.1-1.2l-0.6,0.6c-0.1,0.9-0.2,2-0.4,3.1l-1.2,0.2
		c0.3-1,0.6-1.8,0.7-2.5l-6.1,5.8l-0.8-0.8l5.7-5.4c-1.5,0.7-3,1.3-4.5,1.6l0.6-1.2c2-0.3,3.9-1,5.7-2.1l-1.4-1.4l0.8-0.8
		L53.2,159.2z M51.8,172.2c1.7-0.7,3.6-1.7,5.8-3.1l0.6,1c-1.9,1.2-3.8,2.2-5.5,2.9l1.7,1.8l-0.8,0.8l-6.3-6.7l0.8-0.8L51.8,172.2z
		 M51,169.5l-0.9-0.5c0.9-1.3,1.8-2.7,2.5-4l0.9,0.5C52.9,166.7,52,168,51,169.5z M53.2,170.7l-0.9-0.6c0.9-1.3,1.8-2.5,2.5-3.8
		l0.9,0.5C55,168,54.2,169.3,53.2,170.7z M53.1,163.7l0.3-1.1c2.3,0.4,4.6,0.3,6.9-0.5l0.7,0.8c-0.9,2-1.1,4.3-0.8,6.9l-1.1,0.2
		c-0.1-0.8-0.2-1.7-0.1-2.4l-0.7,0.7l-3.3-3.5l0.7-0.7C54.7,164,53.9,163.9,53.1,163.7z M59.8,163.3c-1.5,0.4-2.8,0.6-4.1,0.7
		l3.3,3.4C59,166,59.3,164.6,59.8,163.3z"/>
	<path class="st4" d="M61,175.4c-1.8,1.1-3.5,2-5.2,2.8l-0.5-1c1.8-0.8,3.5-1.7,5.2-2.7L61,175.4z M68,173.4l-3.4,3.8
		c-1.2,1.3-2.4,2.2-3.5,2.7c-1.1,0.4-2.2,0.4-3.5,0.1l0.2-1.1c1.2,0.4,2.3,0.4,3.2,0c0.9-0.4,1.9-1.2,2.9-2.2l3.4-3.8L68,173.4z
		 M64.6,180.6l-0.8-0.7l5.8-6.5l-2.5-2.2l-5.9,6.6l-0.8-0.7l6.6-7.4l4,3.6L64.6,180.6z M62.5,173.4l-1.1,0.1c0.1-0.9,0-2-0.1-3.2
		l1.1,0C62.5,171.4,62.6,172.5,62.5,173.4z M62.9,183.6l-1.1,0.1c0.1-1,0.1-2.2,0-3.6l1,0C62.9,181.3,63,182.5,62.9,183.6z
		 M63.2,184.7l0.5-1c0.4,0.4,0.8,0.8,1.2,1.1c0.3,0.2,0.6,0.2,0.8-0.1l8.5-9.6L75,176l-8.7,9.8c-0.6,0.7-1.2,0.7-1.8,0.2L63.2,184.7
		z M65.5,170.6l-1.1,0.1c0-0.9-0.1-1.9-0.3-3.1l1.1,0C65.4,168.6,65.5,169.7,65.5,170.6z M72.3,175.3l-6.6,7.5l-0.8-0.7l6.6-7.5
		L72.3,175.3z"/>
</g>
<g>
	<g>
		<path class="st4" d="M156.8,162.9l0.6,0.7c0.6,1.4,1.3,2.9,1.9,4.4c1.7,0.4,3,0.9,3.9,1.8c0.5,0.5,0.7,1,0.6,1.4
			c-0.1,0.6-0.5,1.3-1.4,2.1l-1.1-0.6c0.2-0.1,0.4-0.3,0.5-0.4c0.4-0.4,0.7-0.8,0.7-1c0.1-0.2,0-0.5-0.2-0.7c-0.8-0.8-2-1.4-3.8-1.6
			c-0.6-1.7-1.2-3.2-1.8-4.5l-1.9,1.8l8.9,9.4l-0.8,0.8l-9.7-10.2L156.8,162.9z M161.1,161.3c-0.7-0.4-1.4-0.8-2.1-1.1l0.7-0.9
			c0.7,0.3,1.4,0.7,2.2,1.2l2.5-2.4l0.8,0.8l-3.8,3.6c0.4,0.5,1,1.2,1.8,2.1l3.3-3.2c2.3,2.5,3.8,4.2,4.3,5c0.5,1,0.4,1.9-0.4,2.7
			c-0.3,0.3-0.6,0.6-1.1,0.9l-1-0.5c0.5-0.4,0.9-0.8,1.2-1.1c0.5-0.5,0.5-1.1,0.1-1.8c-0.4-0.6-1.5-1.8-3.2-3.6l-2.5,2.4
			c0.8,1.1,1.4,2.2,1.8,3.3c0.5,1.4,0.7,2.9,0.7,4.5l-1.2,0c0-1.9-0.3-3.5-0.8-4.7c-0.5-1.2-1.3-2.3-2.3-3.5
			c-0.7-0.8-1.3-1.4-1.6-1.8l-1.6,1.5l-0.8-0.8L161.1,161.3z"/>
		<path class="st4" d="M166.1,153.7c0.9,1.5,1.3,3.1,1.5,4.9l-1.1-0.5c-0.2-1.5-0.6-2.8-1.4-4L166.1,153.7z M169.7,154.9l-1.1,0.4
			c-0.4-1.3-1-2.5-1.8-3.7l0.8-0.7c0.3,0.5,0.6,1,0.9,1.4l2.2-2.7l0.8,0.7l-1.1,1.3l1.9,1.6l1.3-1.6l0.8,0.7l-1.3,1.6l1.5,1.3
			l1.1-1.3l0.8,0.7l-1.1,1.3l2.1,1.7c0.3-0.7,0.6-1.3,0.9-2l0.8,0.7c-0.8,1.8-1.8,3.7-2.9,5.6l-1-0.5l0.5-0.8l-3.8-3.2l0.6-0.8
			l3.7,3.1c0.2-0.4,0.4-0.8,0.6-1.2l-4.6-3.8l-1.6,1.9l-0.8-0.7l1.6-1.9l-1.9-1.6l-0.7,0.8C169.3,153.9,169.5,154.4,169.7,154.9z
			 M169.3,155.8c0.4,0.7,0.7,1.5,1,2.3l6.1,5l-0.7,0.8l-5-4.2c0.1,0.6,0.1,1.1,0.2,1.7l-1.1-0.4c-0.1-1.7-0.6-3.3-1.4-4.7
			L169.3,155.8z M180.9,154.7l-1-0.5l0.6-0.6c0.2-0.2,0.1-0.5-0.2-0.7l-7-5.8l-1.1,1.3l9.7,8l-0.7,0.8l-10.5-8.7l2.5-3l7.9,6.6
			c0.7,0.6,0.8,1.2,0.3,1.8L180.9,154.7z"/>
		<path class="st4" d="M192.2,139l0.8,0.8l-2.6,4c-1.6,2.4-3.1,3.9-4.5,4.5c-0.2,0.1-0.5,0.2-0.7,0.2c0.3,0.8,0.5,1.7,0.6,2.7
			l-1.2,0.1c0-0.9-0.2-1.8-0.6-2.6c-1.1,0-2.3-0.2-3.7-0.6l0.2-1c1.1,0.4,2.1,0.5,2.9,0.6c-0.6-1.1-1.6-2.1-2.8-3l-1.6,2.5l-0.7-0.5
			c-0.5-1.4-1.1-2.9-1.8-4.3l-1.4,2.2l-0.9-0.6l2.2-3.3l0.8,0.5c0.8,1.5,1.4,2.8,1.9,4.1l1.4-2.1l0.6,0.4c1.7,1.2,3,2.6,3.8,4
			c0.4-0.1,0.7-0.2,1-0.3c1.1-0.6,2.3-1.8,3.5-3.6C190.2,142.1,191.2,140.5,192.2,139z M184.1,139.2l1.1,0.7l2.1-3.1l0.8,0.5
			l-2.1,3.1l1.1,0.7l2.3-3.5l0.8,0.5l-2.3,3.5l1.3,0.9l-0.6,0.9l-1.3-0.9l-2,3l-0.8-0.5l2-3l-1.1-0.7l-1.7,2.6l-0.8-0.5l1.7-2.6
			l-1.1-0.7l-1.5,2.3l-0.8-0.5l1.5-2.3l-1.1-0.7l-2,3l-0.8-0.5l2-3l-1.1-0.7l-1.5,2.3l-0.8-0.5l1.5-2.3l-1-0.6l0.6-0.9l1,0.6
			l1.9-2.9l1.9,1.2l0.6-0.9l0.8,0.5l-0.6,0.9l1.9,1.2L184.1,139.2z M181.4,137.5l1.3-1.9l-1.1-0.7l-1.3,1.9L181.4,137.5z
			 M183.3,138.7l1.3-1.9l-1.1-0.7l-1.3,1.9L183.3,138.7z"/>
		<path class="st4" d="M186,128.1l0.4,1.1c-1,0.2-2.2,0.6-3.5,1.3l-0.3-1.1C183.9,128.8,185,128.4,186,128.1z M189.6,123l0.1,1.1
			c-1.3,0-2.7,0.2-4.2,0.5l-0.2-1.1C187,123.2,188.4,123.1,189.6,123z M187.5,130.2l6.2,3.1c-0.2-0.7-0.4-1.4-0.6-2.1l1.2,0.3
			c0.4,1.2,0.7,2.5,0.9,3.7l-1.1-0.1c-0.1-0.3-0.2-0.5-0.4-0.6l-5.6-2.8l-1.1,2.1l-1-0.5L187.5,130.2z M188.7,119.2
			c3.1,2.2,5.4,4.5,6.8,7.1c1.9-0.4,3.6-1.2,5.1-2.3l0.6,1.1c-1.6,1.1-3.3,1.8-5.2,2.3c0.8,1.8,1.2,3.8,1.1,5.8l-1.2,0.1
			c0.1-2-0.3-3.9-1.1-5.7c-2.6,0.4-5.5,0.3-8.7-0.3l0-1.1c3,0.6,5.7,0.8,8.2,0.4c-1.3-2.3-3.4-4.5-6.2-6.4L188.7,119.2z"/>
	</g>
</g>
</svg>
