<?xml version="1.0" encoding="utf-8"?>
<!-- Generator: Adobe Illustrator 22.1.0, SVG Export Plug-In . SVG Version: 6.00 Build 0)  -->
<svg version="1.1" id="图层_1" xmlns="http://www.w3.org/2000/svg" xmlns:xlink="http://www.w3.org/1999/xlink" x="0px" y="0px"
	 width="221px" height="221px" viewBox="0 0 221 221" style="enable-background:new 0 0 221 221;" xml:space="preserve">
<style type="text/css">
	.st0{fill:#2376DA;}
	.st1{fill:#01C6D8;}
	.st2{fill:#D0D0D0;}
	.st3{fill:#03C6D8;}
	.st4{fill:#FFFFFF;}
	.st5{font-family:'ArialMT';}
	.st6{font-size:12px;}
</style>
<path class="st0" d="M44.8,85.1c9.8-25,33.4-43,61.5-44.6V5.8C62.8,7.5,26.1,35.5,11.8,74.4L44.8,85.1z"/>
<path class="st1" d="M114.3,40.5c28.1,1.6,51.9,19.7,61.6,44.8l33-10.7c-14.3-39-51.1-67.2-94.6-68.8
	C114.3,5.8,114.3,40.5,114.3,40.5z"/>
<path class="st1" d="M148.1,170.1c-10.9,7-23.9,11-37.8,11c-14.1,0-27.3-4.2-38.3-11.3l-20.4,28.1c16.8,11.3,37,17.9,58.7,17.9
	c21.5,0,41.5-6.5,58.2-17.6L148.1,170.1z"/>
<path class="st2" d="M168.6,148.6c-12.4,18.9-33.8,31.4-58.1,31.4c-24.1,0-45.5-12.4-57.9-31.1l-31.2,18
	c18.7,29.5,51.7,49.1,89.1,49.1c37.6,0,70.6-19.7,89.3-49.4L168.6,148.6z"/>
<path class="st3" d="M114.3,41c36.6,2,65.7,32.4,65.7,69.4c0,11.2-2.7,21.8-7.4,31.2l31.2,18c7.8-14.7,12.2-31.5,12.2-49.2
	C216,53.5,170.8,7,114.3,5V41z"/>
<path class="st0" d="M48.5,142c-4.8-9.5-7.6-20.2-7.6-31.5c0-36.9,29-67.2,65.4-69.4V5C50,7.2,5,53.7,5,110.5
	c0,17.9,4.5,34.8,12.4,49.6L48.5,142z"/>
<g>
	<path class="st4" d="M21.3,107.2l0.2,0c3.5,0.4,6.3,1.5,8.3,3.2l-0.9,0.7c-1.7-1.5-4.2-2.4-7.4-2.8l-4.9-0.4c0.3-4,0.3-7.6,0-10.8
		l1-0.5c0.3,3.1,0.3,6.5,0.1,10.2l2.7,0.2l0.9-9.6l1,0.1c2,0.8,3.6,2.1,5,3.8c1.1-1.3,2.1-2.9,3-4.7l0.9,0.7c-1,2-2.1,3.6-3.3,4.9
		c1,1.6,1.8,3.5,2.3,5.7l-1,0.5c-0.5-2.1-1.2-3.9-2.1-5.4c-1.7,1.6-3.5,2.5-5.5,2.9L21.3,107.2z M22.1,98.8l-0.6,6.2
		c1.7-0.4,3.3-1.3,4.8-2.7C25.1,100.7,23.7,99.5,22.1,98.8z"/>
	<path class="st4" d="M17.8,90l1.7,0.5l0.9-3.1l-1.7-0.5l0.3-1.1l1.7,0.5l0.3-0.9l1,0.3l-0.3,0.9l6.5,1.9l0.3-1.1l1,0.3l-2.1,7.4
		l-1-0.3l0.3-1l-6.5-1.9L20,92.7l-1-0.3l0.2-0.9l-1.7-0.5L17.8,90z M20,82.6c0.7,0.3,1.4,0.6,2,0.9l1.2-4.2l0.7,0.2
		c1.3,0.6,2.5,1.3,3.7,2l-0.6,1c-0.9-0.6-1.9-1.2-3.1-1.8l-1,3.4c1.2,0.7,2.2,1.5,2.9,2.3L24.9,87c-1.2-1.3-3-2.5-5.4-3.4L20,82.6z
		 M20.5,90.8l1.5,0.4l0.9-3.1l-1.5-0.4L20.5,90.8z M25.4,88.9l-1.6-0.5L23,91.5l1.6,0.5L25.4,88.9z M24.6,82.6
		c0.8,0.2,1.5,0.5,2.2,0.7c2.9,0.1,5.4-0.4,7.4-1.6l0.6,1c-1.8,0.9-3.8,1.4-6,1.5l0.6,0.3c1.7,0.9,2.9,2.3,3.7,4.1l-1.1,0.5
		c-0.7-1.6-1.7-2.7-3.1-3.6c-1.2-0.7-2.8-1.3-4.8-1.9L24.6,82.6z M27.9,89.6l-1.5-0.4l-0.9,3.1l1.5,0.4L27.9,89.6z M29.1,92.4
		c1,0.9,1.8,1.9,2.4,2.9L30.6,96c-0.5-1-1.3-1.9-2.2-2.8L29.1,92.4z M31.7,89.1l0.4,1c-0.7,0.2-1.6,0.5-2.5,0.9l-0.3-1
		C30.2,89.7,31,89.3,31.7,89.1z"/>
	<path class="st4" d="M26.6,72.1l0.4,1.1c-0.9,0.2-2,0.7-3.3,1.3l-0.3-1.1C24.4,72.8,25.5,72.3,26.6,72.1z M30.7,73.5l-1.1,0.2
		c-0.7-2-2.1-3.7-4.1-5.3l0.7-1c0.6,0.5,1.1,0.9,1.6,1.4l2.9-5.7l1,0.5l-2.1,4.3l2.5,1.2l1.9-3.7l1,0.5l-1.9,3.7l2.4,1.2l2.1-4.2
		l1,0.5l-2.1,4.2l3.4,1.7l-0.5,1L28.9,69l-0.4,0.8C29.5,71,30.3,72.2,30.7,73.5z M28.1,74.1l6.3,3.2c-0.2-0.7-0.4-1.4-0.7-2.2
		l1.2,0.3c0.4,1.2,0.7,2.5,0.9,3.8l-1.1-0.1c-0.1-0.3-0.3-0.5-0.5-0.6l-5.7-2.8l-1,2.1l-1-0.5L28.1,74.1z"/>
	<path class="st4" d="M38.5,49.8l5.1,3.9c2.1,1.6,3.5,2.6,4.2,2.9c0.7,0.3,1.1,0.4,1.3,0.2c0.1-0.2-0.4-0.8-1.4-1.8l1-0.5
		c0.8,0.9,1.4,1.5,1.6,2c0.2,0.4,0.1,0.8,0,1c-0.5,0.6-1.2,0.7-2.2,0.4c-1-0.3-2.7-1.4-5.1-3.2l-4.2-3.2l-4.9,6.4l4,3.1
		c2.4,1.9,4.1,4,5,6.3l-1.2,0.3c-0.8-2-2.3-3.9-4.5-5.7L32.2,58L38.5,49.8z M40.5,57.6c-0.6-1.2-1.3-2.4-2.1-3.6l0.8-0.8
		c1.1,1.4,1.9,2.9,2.6,4.4c1.7,0.1,3.2,0.2,4.6,0.3l-0.1,1.3c-1.3-0.2-2.6-0.3-4-0.4c0.5,1.7,0.8,3.3,0.8,5.1l-1.2,0
		c0-1.8-0.3-3.5-0.8-5.1c-1.5-0.1-3.1-0.1-4.8,0l0.1-1.1C37.8,57.6,39.2,57.5,40.5,57.6z"/>
	<path class="st4" d="M51.8,55.5l-0.9-0.7c0.3-0.3,0.7-0.5,1-0.8c0.3-0.3,0.3-0.6,0-0.9l-2.6-2.9c-0.3,0.6-0.6,1.2-1,1.8l-1-0.7
		c0.4-0.6,0.8-1.3,1.2-2l-2.4-2.7L44.7,48l-0.7-0.8l1.5-1.3l-2-2.3l0.9-0.8l2,2.3l1-0.9L48,45l-1,0.9l2.1,2.3c0.2-0.5,0.4-1,0.6-1.4
		l0.8,0.9c-0.2,0.5-0.4,1-0.6,1.4l3.1,3.5c0.6,0.7,0.6,1.4-0.1,2L51.8,55.5z M50.7,39.4l2.8-2.5l2,2.3l-0.8,0.7l-1.3-1.5l-5,4.5
		l1.3,1.5L48.9,45l-2-2.3l3-2.6c-0.6-0.3-1.2-0.6-1.8-0.8l0.7-0.9C49.4,38.7,50,39,50.7,39.4z M51.4,42c0.5,1.7,0.6,3.2,0.3,4.6
		l-1.1,0c0.3-1.4,0.3-2.9-0.2-4.3L51.4,42z M52.2,48.5l-0.7-0.8l6.4-5.7l0.7,0.8l-2.7,2.4l2.3,2.6l3.2-2.8l0.7,0.8l-7.3,6.5L54,51.5
		l3.3-2.9L55,46L52.2,48.5z M56.9,41.1l-0.4,1.1c-1.5-0.5-2.9-0.8-4.3-0.9l0.5-1C54,40.4,55.5,40.7,56.9,41.1z"/>
</g>
<text class="st5 st6"> </text>
<g>
	<path class="st4" d="M141.4,20.5c0.6,2.5,2.2,5.1,4.8,7.7l-1,0.8c-2.4-2.4-3.9-4.9-4.6-7.6c-2.5,1.9-5.2,3-8.2,3.5l-0.3-1.2
		c3.3-0.5,6.1-1.7,8.4-3.5L141.4,20.5z M140,25.1l-3,9.4l-1.1-0.4l3-9.4L140,25.1z"/>
	<path class="st4" d="M153.9,25.6l-7,12.8l-1-0.6l7-12.8L153.9,25.6z M150.7,27.4c-0.8,1.4-1.7,2.6-2.7,3.8l-0.7-0.7
		c1-1,1.8-2.2,2.6-3.6L150.7,27.4z M153.1,31.3c1.1-1,2.1-2.1,3-3.5l0.8,0.6c-0.3,0.6-0.7,1.1-1.1,1.6l2,1.1l1.4-2.6l1,0.6l-1.4,2.6
		l3.1,1.7l-0.5,1l-3.1-1.7l-1.9,3.4l2.9,1.6l-0.5,1l-2.9-1.6l-1.9,3.4l3.4,1.9l-0.5,1l-8.5-4.6l0.5-1l4,2.2l1.9-3.4l-3.2-1.8l0.5-1
		l3.2,1.8l1.9-3.4l-2.2-1.2c-0.8,0.9-1.7,1.6-2.7,2.2l-0.4-1.1c0.3-0.2,0.6-0.4,0.9-0.7l-0.8-0.2c0.3-1,0.4-1.9,0.5-2.9l0.9,0.2
		C153.5,29.4,153.4,30.3,153.1,31.3z"/>
	<path class="st4" d="M170.9,36.9c-1.3,0.7-2.6,1.2-4.1,1.6l-6.7,8.2l-0.9-0.7l5.8-7.1c-1.1,0.1-2.1,0.2-3.2,0.2l0.5-1.2
		c3-0.1,5.7-0.8,8.1-2.1L170.9,36.9z M164.5,49.8c-0.9-0.7-0.9-1.5-0.2-2.4l3.1-3.8c-0.8-0.1-1.5-0.3-2.3-0.5l0.3-1.2
		c1,0.2,1.9,0.5,2.8,0.6l4.1-5l0.9,0.7l-3.6,4.4c2,0.2,4,0.1,5.8-0.2l0,1.2c-2.2,0.3-4.4,0.3-6.7,0l-3.4,4.2
		c-0.3,0.4-0.3,0.7,0.1,1.1l2,1.6c0.3,0.3,0.7,0.4,1,0.3c0.3-0.1,1-0.7,2-1.9l0.6,1c-1.3,1.4-2.1,2.1-2.6,2.2
		c-0.5,0.1-1-0.1-1.6-0.6L164.5,49.8z"/>
	<path class="st4" d="M169.7,54.4l0-1.2c1.8-0.1,3.5-0.9,5.2-2.3l5.9-4.9l7.7,9.1l-9.2,7.7c-0.9,0.7-1.6,0.7-2.4-0.2l-1.2-1.4l0.7-1
		c0.4,0.5,0.7,1,1.1,1.4c0.4,0.4,0.8,0.5,1.3,0l2.1-1.8l-2.8-3.3l-3.6,3l-0.8-0.9l3.6-3l-2.7-3.2C173,53.7,171.4,54.3,169.7,54.4z
		 M175.6,51.9l2.6,3.1l2.1-1.8l-2.6-3.1L175.6,51.9z M180.6,47.6l-2.1,1.8l2.6,3.1l2.1-1.8L180.6,47.6z M183.9,57.4l-2.8-3.3
		l-2.1,1.8l2.8,3.3L183.9,57.4z M186.8,55l-2.8-3.3l-2.1,1.8l2.8,3.3L186.8,55z"/>
	<path class="st4" d="M179,66.2l0.3-1.1c2.2,0.3,4.6-0.3,7.1-1.7l4.4-2.4l2.6,4.5c0.4-0.6,0.8-1.1,1.2-1.7l0.8,1
		c-0.4,0.5-0.8,1.1-1.4,1.8l2.5,4.4l-4.7,2.6l-5-9C184,65.9,181.5,66.4,179,66.2z M190.3,62.4l-2.7,1.5l4.5,8l2.7-1.5L190.3,62.4z"
		/>
	<path class="st4" d="M193.7,78.8l1-0.4l3,9.1c-1.9,0.6-3.5,1-4.7,1.3c-1.2,0.2-2.1,0.3-2.7,0.1c-0.6-0.2-1-0.7-1.3-1.4l-0.9-2.8
		l1-0.7c0.3,0.9,0.5,1.7,0.8,2.5c0.3,0.8,0.8,1.2,1.6,1.3c0.8,0,2.4-0.3,4.8-1l-1.3-3.8c-1.8,0.2-3.3,0.1-4.5-0.2
		c-1.4-0.4-2.7-1.2-4.1-2.5l0.7-1c1.2,1.1,2.4,1.9,3.6,2.3c1.1,0.3,2.4,0.4,3.9,0.3L193.7,78.8z M201.1,80.2
		c-1.5-0.3-2.8-0.7-3.8-1.1c-1.1-0.5-2.3-1.2-3.6-2.2l0.8-0.9c0.9,0.8,2,1.5,3.3,2c1.1,0.4,2.3,0.8,3.7,1L201.1,80.2z M199,89.9
		l-1.1-0.4c0.7-2.9,2.1-5.2,4.2-6.9l0.8,0.8C200.9,85,199.6,87.1,199,89.9z"/>
	<path class="st4" d="M191.5,97l-0.2-1.1l8.1-1.1c-1.7-0.3-3.2-0.8-4.7-1.5l1.2-0.7c1.7,1,3.6,1.6,5.7,1.8l-0.3-2.3l1.1-0.1l0.3,2.3
		l3.1-0.4L206,95l-3.1,0.4l0.3,2.1l-1.1,0.1l-0.3-2.1l-0.9,0.1c-0.7,0.9-1.4,1.7-2.3,2.6l-1-0.5c0.9-0.8,1.6-1.4,2.1-2L191.5,97z
		 M206.3,105.3c-0.9-1.7-1.6-3.7-2-5.9l-2.9,0.4l0.9,6.4l-1.1,0.1l-0.3-2.4l-8.3,1.1l-0.2-1.1l8.3-1.1l-0.4-2.9l-0.2,0
		c-3.4,0.4-6.2-0.1-8.4-1.3l0.7-0.9c1.9,1.1,4.4,1.4,7.5,1.1l5.1-0.7c0.4,2.4,1.1,4.6,2.1,6.4L206.3,105.3z"/>
	<path class="st4" d="M192.6,115.8l0.1-1.1l14,0.7l-0.4,7c-1.8-0.1-3-0.2-3.5-0.5c-0.6-0.2-0.8-0.8-0.8-1.9l0.1-1.2l1-0.3
		c0,0.3,0,0.6-0.1,0.9c0,0.4,0,0.7,0,0.9c0.1,0.2,0.2,0.3,0.3,0.5c0.3,0.1,0.9,0.2,1.9,0.3l0.2-4.8l-4.7-0.2l-0.3,6.1l-1-0.1
		c-1.7-0.4-3.1-1-4.3-1.9c-0.8,0.7-1.5,1.6-2.2,2.7l-0.8-0.8c0.7-1,1.5-1.9,2.2-2.6c-0.8-0.8-1.5-1.8-2-2.9l1-0.5
		c0.5,1,1.1,1.9,1.8,2.7c1.4-1,2.8-1.6,4.4-1.8l0-0.9L192.6,115.8z M199.7,114.2c-0.3-0.6-0.5-1.2-0.8-1.9l-4.8-0.2
		c-1,0-1.4-0.5-1.4-1.5l0.1-1.5l1.1-0.2c-0.1,0.5-0.1,0.9-0.1,1.3c0,0.4,0.2,0.7,0.7,0.7l4,0.2c-0.2-0.7-0.5-1.5-0.7-2.3l1.1-0.2
		c0.2,0.9,0.4,1.7,0.6,2.6l3.7,0.2l0.1-2.3l1.1,0.1l-0.1,2.3l2.9,0.1l-0.1,1.1l-2.9-0.1l-0.1,1.8l-1.1-0.1l0.1-1.8l-3.3-0.2
		c0.2,0.6,0.5,1.3,0.8,1.9L199.7,114.2z M196.2,119.6c0.9,0.7,2.1,1.2,3.4,1.6l0.2-3C198.4,118.3,197.2,118.8,196.2,119.6z"/>
	<path class="st4" d="M189.2,135.8l0.3-1.1l0.8,0.2l1.9-7.9l-0.8-0.2l0.3-1.1l5.7,1.4l-2.4,10.1L189.2,135.8z M191.3,135.1l2.8,0.7
		l1.9-7.9l-2.8-0.7L191.3,135.1z M200.8,126.8l1-0.5c0.8,1.7,1.9,3,3.4,3.9l-0.4,1.1c-0.6-0.4-1.2-0.8-1.7-1.2l-0.7,3l2.2,0.5
		l-0.3,1.1l-2.2-0.5l-1.2,5.1l-1.1-0.3l1.2-5.1l-2.5-0.6l-1.5,6.3l-1.1-0.3l3.4-14.1l1.1,0.3l-1.6,6.7l2.5,0.6l0.9-3.7
		C201.8,128.5,201.2,127.7,200.8,126.8z"/>
</g>
<text class="st5 st6"> </text>
<text transform="matrix(1 0 0 1 27.6861 117.061)" class="st5 st6"> </text>
<text class="st5 st6"> </text>
<g>
	<path class="st4" d="M85.9,193.3c-0.2,0.3-0.4,0.5-0.6,0.8l3.2,0.9l-0.3,0.9c-0.6,0.9-1.5,1.6-2.5,2.1c0.6,0.6,1.2,1.1,1.8,1.7
		l-0.9,0.7c-0.6-0.6-1.2-1.2-2-1.9c-1.2,0.4-2.7,0.6-4.3,0.6l-0.3-1.1c1.4,0,2.6-0.1,3.6-0.3c-0.6-0.5-1.2-1-1.9-1.5
		c0.6-0.6,1.1-1.1,1.6-1.6l-1.8-0.5l0.3-1l2.2,0.7c0.2-0.3,0.5-0.6,0.7-0.9L85.9,193.3z M86.5,188.8l0.9-2.9l1,0.3l-0.9,2.9l2.8,0.8
		l-0.3,1l-2.8-0.8l0,0.2c0.7,0.7,1.4,1.4,2.1,2.2l-0.8,0.7c-0.6-0.8-1.1-1.5-1.5-2.1l-0.6,2l-1-0.3l0.9-2.9
		c-0.9,1.1-2.1,1.8-3.7,2.3l-0.3-1c1.4-0.3,2.4-0.9,3.1-1.6l-2.2-0.6l0.3-1L86.5,188.8z M87.3,195.7l-2.6-0.8
		c-0.4,0.5-0.8,0.9-1.3,1.2c0.6,0.4,1.1,0.8,1.6,1.2C85.9,196.9,86.7,196.4,87.3,195.7z M85.9,187.9L85,188
		c-0.1-0.8-0.2-1.6-0.4-2.3l1,0C85.7,186.4,85.8,187.1,85.9,187.9z M91,193.3c-0.5,0.6-1,1.2-1.5,1.6l-0.4-1
		c1.4-1.5,2.7-3.6,3.9-6.4l1,0.5c-0.3,0.8-0.7,1.5-1,2.1l4.1,1.2l-0.3,1.1l-1-0.3c-0.8,2.5-2,4.6-3.3,6.2c0.4,1.6,1,3,1.9,4
		l-0.9,0.7c-0.8-1.1-1.5-2.4-1.9-3.9c-1.1,1-2.4,1.8-3.7,2.3l-0.3-1.1c1.4-0.5,2.7-1.3,3.8-2.4C91.1,196.5,91,195,91,193.3z
		 M90.9,187.6c-0.5,0.6-1.1,1.1-1.8,1.6l-0.7-0.6c0.7-0.5,1.3-1,1.7-1.6L90.9,187.6z M92,191.8c-0.1,1.9-0.1,3.6,0.1,5.1
		c1.1-1.4,1.9-3.1,2.6-5.1l-2.3-0.7L92,191.8z"/>
	<path class="st4" d="M97.6,203.6l-0.1-1.1c0.4,0.1,0.8,0.2,1.2,0.2c0.4,0,0.6-0.2,0.7-0.6l0.4-3.9c-0.7,0.2-1.3,0.3-1.9,0.5
		l-0.2-1.1c0.7-0.1,1.5-0.3,2.2-0.5l0.3-3.6l-1.9-0.2l0.1-1.1l1.9,0.2l0.3-3l1.1,0.1l-0.3,3l1.5,0.1l-0.1,1.1l-1.5-0.1l-0.3,3.1
		c0.5-0.2,1-0.4,1.5-0.6l-0.1,1.1c-0.5,0.2-1,0.4-1.5,0.6l-0.4,4.7c-0.1,0.9-0.6,1.4-1.5,1.3L97.6,203.6z M101.8,204.1l-0.8-0.9
		c1.3-2,2.2-4.7,2.5-8l0.5-5l8.4,0.8l-0.4,3.9l-3-0.3l-0.2,1.9l3.4,0.3l-0.1,1l-3.4-0.3l-0.2,2l2.7,0.2l-0.5,5.2l-1.1-0.1l0.1-0.8
		l-4.3-0.4l-0.1,0.8l-1.1-0.1l0.5-5.2l2.7,0.2l0.2-2l-3.3-0.3C103.9,199.8,103.1,202.2,101.8,204.1z M104.7,194.2l-0.1,1.1
		c0,0.3-0.1,0.5-0.1,0.8l3.2,0.3l0.2-1.9L104.7,194.2z M105,191.4l-0.2,1.8l6.2,0.6l0.2-1.8L105,191.4z M109.8,203.1l0.2-2.4
		l-4.3-0.4l-0.2,2.4L109.8,203.1z"/>
	<path class="st4" d="M119.3,190.8c-0.6,1.4-1.3,2.5-1.9,3.5c-0.7,1-1.7,2-2.9,3l-0.7-0.9c1-0.7,1.9-1.6,2.7-2.7
		c0.7-1,1.3-2.1,1.8-3.3L119.3,190.8z M116.3,197.6l-0.1-1.1l9.5-0.9c0.1,2,0.2,3.6,0.2,4.9c0,1.2-0.2,2.1-0.5,2.6
		c-0.3,0.5-0.9,0.8-1.6,0.9l-2.9,0.3l-0.4-1.1c0.9-0.1,1.8-0.1,2.6-0.2c0.9-0.1,1.4-0.5,1.6-1.3c0.2-0.8,0.2-2.4,0.1-4.9l-4,0.4
		c-0.2,1.8-0.6,3.2-1.2,4.3c-0.7,1.2-1.8,2.4-3.4,3.4l-0.8-0.9c1.4-0.9,2.4-1.9,3.1-3c0.6-1,1-2.2,1.1-3.8L116.3,197.6z M128.2,195
		l-0.7,1c-2.6-1.3-4.5-3.2-5.8-5.7l0.9-0.7C123.9,192,125.7,193.8,128.2,195z"/>
	<path class="st4" d="M135.8,201.9l-1.1,0.3l-2.3-7.8c-0.1,1.7-0.3,3.3-0.8,4.9l-0.8-1.1c0.7-1.8,1-3.8,1-5.9l-2.2,0.6l-0.3-1.1
		l2.2-0.7l-0.9-3l1.1-0.3l0.9,3l2.1-0.6l0.3,1.1l-2.1,0.6l0.2,0.8c0.9,0.5,1.9,1.2,3,1.9l-0.3,1.1c-0.9-0.8-1.7-1.4-2.3-1.8
		L135.8,201.9z M141.8,186c-1.6,1.1-3.4,2.1-5.5,2.8l0.8,2.8l6.2-1.8l0.3,1.1l-2.3,0.7l2.4,8.1l-1.1,0.3l-2.4-8.1l-2.8,0.8l0.1,0.2
		c0.9,3.3,0.8,6.1,0,8.5l-1-0.6c0.8-2.1,0.8-4.6,0-7.6l-1.5-4.9c2.3-0.8,4.3-1.8,6-3L141.8,186z"/>
</g>
<g>
	<path class="st0" d="M70.4,91.5v0.9c-0.5,1.4-1,2.9-1.7,4.5c1,1.4,1.5,2.7,1.6,3.8c0,0.7-0.2,1.2-0.5,1.4c-0.4,0.4-1.2,0.6-2.3,0.6
		l-0.4-1.2c0.2,0,0.4,0.1,0.6,0.1c0.5,0,0.9-0.1,1.1-0.2c0.2-0.1,0.3-0.4,0.3-0.7c0-1.1-0.5-2.3-1.6-3.7c0.7-1.7,1.3-3.2,1.7-4.5
		h-2.5v12.9h-1.1v-14H70.4z M74.4,91c-0.2,0.4-0.4,0.7-0.6,1.1h4.7V93c-0.5,1-1.3,1.9-2.4,2.7c1,0.4,2.3,0.8,3.7,1l-0.4,1
		c-1.7-0.3-3.2-0.8-4.4-1.4c-1.2,0.6-2.6,1.1-4.3,1.5l-0.5-1c1.4-0.3,2.7-0.7,3.7-1.1c-0.7-0.5-1.3-1-1.7-1.6
		c-0.4,0.4-0.8,0.8-1.3,1.1l-0.7-0.9c1.3-0.9,2.4-2.1,3.2-3.6L74.4,91z M71.6,100.2l1,0.2l-0.4,1.6h2.5v-2.3h-3.9v-1h3.9v-1.2h1.1
		v1.2h2.9v1h-2.9v2.3h3.4v1h-3.4v2.5h-1.1V103h-3.9L71.6,100.2z M77.2,93.1H73c-0.1,0.1-0.2,0.2-0.2,0.3c0.5,0.7,1.2,1.3,2.1,1.8
		C75.9,94.6,76.7,93.9,77.2,93.1z"/>
	<path class="st0" d="M85.7,91.3c-0.4,1.2-0.9,2.4-1.5,3.5v10.8H83v-9c-0.5,0.7-1.1,1.4-1.8,2.1l-0.4-1.2c1.7-1.9,3-4.1,3.7-6.6
		L85.7,91.3z M87.3,103.6c0.5-0.2,1-0.4,1.4-0.6l0.2,1c-0.8,0.3-1.8,0.7-2.9,1.1l-0.3-1c0.3-0.1,0.5-0.3,0.5-0.6V92.8
		c3.4-0.5,6-1.1,7.9-1.7l0.6,0.9c-0.8,0.3-1.7,0.5-2.8,0.8c0,1.5,0.1,2.8,0.1,3.9h3.4v1.1h-3.3c0.1,0.7,0.2,1.3,0.3,1.8
		c0.3,1.4,0.6,2.5,0.9,3.2c0.4,0.7,0.6,1,0.8,1c0.2,0,0.4-0.9,0.6-2.7l1,0.5c-0.3,2.3-0.8,3.5-1.3,3.5c-0.5,0-1-0.4-1.6-1.3
		c-0.6-0.9-1-2.2-1.4-3.9c-0.1-0.7-0.3-1.4-0.3-2.2h-3.7V103.6z M87.3,93.7v3h3.6c-0.1-1.1-0.1-2.3-0.1-3.7
		C89.7,93.3,88.5,93.5,87.3,93.7z M92,104.9l-0.9,0.6c-0.5-0.9-1.2-1.9-2-2.9l0.8-0.6C90.8,103,91.5,104,92,104.9z"/>
	<path class="st0" d="M97.8,96.7l-0.7-1c2.8-1.2,5.1-2.8,6.8-4.8h0.9c1.5,1.9,3.8,3.5,6.8,4.7l-0.7,1c-0.8-0.4-1.6-0.8-2.4-1.2v0.9
		h-3.6v2.3h5.7v1.1h-5.7v4.3h1.8c0.5-1,1-2.2,1.4-3.4l1.1,0.4c-0.4,1.1-0.8,2.1-1.3,3h3.3v1.1H97.5V104h3.3c-0.3-1-0.8-2-1.3-2.9
		l1-0.4c0.5,0.9,0.9,2,1.4,3.2h1.8v-4.3h-5.7v-1.1h5.7v-2.3h-3.6v-0.9C99.4,95.9,98.6,96.3,97.8,96.7z M104.4,92.1
		c-1.2,1.2-2.5,2.3-4,3.2h8C106.7,94.4,105.4,93.3,104.4,92.1z"/>
	<path class="st0" d="M120.8,91.5v1h-7.6v-1H120.8z M118.2,105.4l-0.3-1l1.1,0c0.3,0,0.5-0.1,0.5-0.4v-5.1h-5v6.6h-1v-7.6h7v6.3
		c0,0.8-0.4,1.1-1.1,1.1H118.2z M119.9,93.5V97h-5.7v-3.4H119.9z M117.2,101.5c0.3-0.7,0.6-1.4,0.8-2.1l0.8,0.3
		c-0.2,0.7-0.5,1.3-0.7,1.9h1v0.9h-1.5v2.9h-0.9v-2.9h-1.5v-0.9H117.2z M118.9,94.4h-3.7v1.6h3.7V94.4z M116.7,101.3l-0.7,0.2
		c-0.2-0.6-0.4-1.2-0.7-1.7l0.8-0.2C116.3,100,116.5,100.6,116.7,101.3z M123.6,93.7v-2.8h1.1v2.8h2.3v6.4h-2.3v3.6
		c0.5-0.1,1-0.2,1.5-0.3c-0.2-0.7-0.4-1.3-0.6-1.9l0.9-0.3c0.4,1.2,0.8,2.5,1.2,4.1l-1,0.2c-0.1-0.4-0.2-0.8-0.2-1.1
		c-1.6,0.4-3.3,0.7-5.1,1l-0.3-1.1c0.9-0.1,1.7-0.2,2.5-0.4v-3.8h-2.3v-6.4H123.6z M123.6,94.7h-1.3V99h1.3V94.7z M126,94.7h-1.4V99
		h1.4V94.7z"/>
	<path class="st0" d="M141.2,91.5v6.4c0,2.6,0.1,4.3,0.3,5c0.2,0.7,0.4,1.1,0.6,1.1c0.2,0,0.4-0.7,0.5-2.2l1,0.5
		c-0.2,1.2-0.4,2-0.6,2.5c-0.2,0.4-0.5,0.6-0.8,0.6c-0.8,0-1.3-0.5-1.7-1.5c-0.4-1-0.6-3-0.6-6v-5.3h-8v5.1c0,3.1-0.7,5.7-2,7.8
		l-1-0.8c1.1-1.9,1.7-4.2,1.8-7v-6.2H141.2z M136.3,97.8c0.6-1.2,1.2-2.5,1.5-3.9l1.1,0.2c-0.5,1.7-1.1,3.3-1.9,4.7
		c1,1.4,1.8,2.7,2.5,3.8l-1,0.7c-0.6-1.1-1.3-2.3-2.1-3.4c-1,1.4-2.2,2.7-3.5,3.7l-0.8-1c1.4-1.1,2.6-2.3,3.6-3.8
		c-0.9-1.2-1.8-2.5-2.9-3.8l0.9-0.6C134.7,95.7,135.5,96.8,136.3,97.8z"/>
	<path class="st0" d="M150.4,91.5v0.9c-0.5,1.4-1,3-1.7,4.5c1,1.4,1.5,2.7,1.6,3.9c0,0.7-0.2,1.1-0.5,1.4c-0.4,0.4-1.2,0.5-2.3,0.6
		l-0.4-1.2c0.2,0,0.4,0.1,0.6,0.1c0.5,0,0.9-0.1,1.1-0.2c0.2-0.1,0.3-0.4,0.3-0.7c0-1.1-0.5-2.3-1.6-3.7c0.7-1.7,1.3-3.2,1.7-4.5
		h-2.5v12.9h-1.1v-14H150.4z M150.4,97.2l-0.6-0.9c1.9-1.4,3.4-3.2,4.5-5.4h1c0.9,2,2.4,3.8,4.5,5.4l-0.6,1c-0.7-0.5-1.4-1-1.9-1.6
		v0.9h-5v-1C151.7,96.2,151.1,96.7,150.4,97.2z M155.6,103.9c0.8-1.7,1.4-3.8,2-6.3l1.1,0.3c-0.5,2.3-1.2,4.3-1.9,6h2.7v1.1H150
		v-1.1H155.6z M153.4,102.7l-1,0.3c-0.4-1.6-0.9-3.1-1.5-4.5l1-0.3C152.4,99.4,152.9,101,153.4,102.7z M154.8,92
		c-0.7,1.3-1.5,2.5-2.4,3.4h4.8C156.2,94.4,155.4,93.3,154.8,92z M155.7,101.9l-1,0.3c-0.3-1.5-0.7-3-1.2-4.4l1-0.3
		C154.9,98.8,155.3,100.3,155.7,101.9z"/>
	<path class="st0" d="M51.5,115.7v-5.6h1.1v5.6h1.9v1h-1.9v0.5c0.8,0.8,1.6,1.8,2.4,2.8l-0.7,1c-0.7-1.1-1.2-2-1.7-2.8v6.5h-1.1
		v-6.2c-0.5,1.4-1.2,2.7-2.1,3.9l-0.5-1.2c1.2-1.3,2-2.8,2.6-4.4h-2.2v-1H51.5z M50.8,114.7l-0.8,0.2c-0.2-1.1-0.4-2.2-0.7-3.3
		l0.8-0.3C50.3,112.4,50.6,113.5,50.8,114.7z M54.8,111.2c-0.1,1.3-0.4,2.5-0.7,3.6l-0.8-0.3c0.3-1,0.6-2.1,0.7-3.5L54.8,111.2z
		 M59.9,110v1.1h3.3v0.9h-3.3v1.1h2.9v0.9h-2.9v1.1h3.7v1H55v-1h3.8V114h-3v-0.9h3V112h-3.4v-0.9h3.4V110H59.9z M57,124.7h-1.1v-7.6
		h6.9v6.2c0,0.8-0.4,1.3-1.3,1.3h-1.1l-0.3-1l1.1,0.1c0.3,0,0.5-0.2,0.5-0.6v-1H57V124.7z M61.7,118H57v1.2h4.7V118z M57,121.2h4.7
		v-1.1H57V121.2z"/>
	<path class="st0" d="M68.6,114.2l-1,0.7c-0.6-1.1-1.5-2.3-2.5-3.7l1-0.6C67.2,112,68.1,113.2,68.6,114.2z M68.7,117.9
		c-0.7,2.4-1.6,4.6-2.5,6.7l-1.1-0.5c1-2.2,1.8-4.4,2.5-6.6L68.7,117.9z M71.5,124.7h-1.1v-9.4c-0.5,0.8-1,1.5-1.5,2.2l-0.4-1.2
		c1.4-1.9,2.4-4,2.9-6.2l1.1,0.2c-0.2,0.9-0.5,1.7-0.9,2.5H75c-0.3-0.9-0.6-1.7-0.9-2.6l1.1-0.3c0.4,1,0.7,1.9,0.9,2.7l-0.4,0.2h3.6
		v1.1h-3.4v2.2h3v1.1h-3v2.2H79v1.1h-3.1v2.4h3.7v1.1h-8.1V124.7z M71.5,113.9v2.2h3.3v-2.2H71.5z M71.5,119.3h3.3v-2.2h-3.3V119.3z
		 M71.5,122.8h3.3v-2.4h-3.3V122.8z"/>
	<path class="st0" d="M81.7,124.7l-0.8-0.8c0.6-1.2,0.9-2.6,0.9-4.4v-4.9c-0.1,0.1-0.2,0.2-0.2,0.2l-0.7-0.8c1-1,1.9-2.4,2.6-4.1
		l1,0.2c-0.1,0.4-0.3,0.7-0.4,1H87v0.8c-0.4,0.7-0.7,1.3-1,1.8h1.9v9.6c0,0.8-0.4,1.2-1.1,1.2H86l-0.3-0.9c0.3,0,0.5,0,0.8,0
		c0.3,0,0.4-0.2,0.4-0.6v-2.2h-1.6v3.6h-1v-3.6h-1.6C82.6,122.4,82.3,123.7,81.7,124.7z M84.8,113.9c0.3-0.5,0.7-1,1-1.7h-2.2
		c-0.3,0.6-0.7,1.2-1.1,1.7H84.8z M82.8,119.5c0,0.1,0,0.2,0,0.4h1.5v-2.1h-1.5V119.5z M82.8,114.8v2h1.5v-2H82.8z M86.9,114.8h-1.6
		v2h1.6V114.8z M86.9,117.8h-1.6v2.1h1.6V117.8z M91.4,112.8v-2.7h1.1v2.7h2.6v6.4h-2.6v3.5c0.5-0.1,1.1-0.2,1.6-0.4
		c-0.2-0.7-0.4-1.3-0.7-2l0.9-0.3c0.5,1.2,0.9,2.6,1.3,4.2l-1,0.2c-0.1-0.4-0.2-0.8-0.3-1.2c-1.8,0.4-3.6,0.8-5.6,1.1l-0.3-1.1
		c1-0.1,2-0.2,2.9-0.4v-3.7h-2.6v-6.4H91.4z M91.5,113.9h-1.5v4.3h1.5V113.9z M94,113.9h-1.6v4.3H94V113.9z"/>
	<path class="st0" d="M105,124.4c-1.1,0-2-0.1-2.6-0.3c-0.7-0.2-1.2-0.6-1.8-1.2c-0.2-0.3-0.4-0.4-0.7-0.4c-0.4,0-1,0.7-1.9,2.2
		l-0.9-0.8c0.9-1.4,1.6-2.2,2.3-2.5v-4.8h-2.3v-1.1h3.4v6c0.1,0.1,0.3,0.2,0.4,0.4c0.4,0.4,0.8,0.8,1.3,1c0.5,0.2,1.3,0.3,2.3,0.4
		c0.9,0,2,0,3.3,0c0.7,0,1.4,0,2.2,0c0.7,0,1.3,0,1.7-0.1l-0.3,1.2H108C107.1,124.4,106.1,124.4,105,124.4z M101.1,112.8l-0.8,0.8
		c-0.7-0.8-1.6-1.6-2.8-2.6l0.8-0.8C99.4,111.1,100.3,111.9,101.1,112.8z M105.6,113.6c0.1-0.8,0.1-1.7,0.2-2.6v-1h1.2v0.7
		c0,1-0.1,1.9-0.2,2.8h4.1v1.1h-4.3c-0.1,0.4-0.2,0.8-0.3,1.2c1.4,1.2,3.1,3,4.9,5.2l-0.8,0.8c-1.5-1.9-2.9-3.5-4.4-4.9
		c-0.8,2.2-2,3.8-3.7,4.9l-0.7-0.9c2-1.3,3.3-3.3,3.8-6.3H102v-1.1H105.6z"/>
	<path class="st0" d="M125.7,124.7h-1.2v-1h-8.4v1.1H115v-13.9h10.7V124.7z M124.6,114.6v-2.7h-8.4v2.7H124.6z M124.6,118.5v-2.8
		h-8.4v2.8H124.6z M124.6,122.5v-3h-8.4v3H124.6z"/>
	<path class="st0" d="M132.5,110.1v3h1.9v1.1h-1.9v1.2c0.8,0.8,1.6,1.7,2.4,2.7l-0.7,1c-0.7-1-1.2-1.8-1.7-2.4v8h-1.1v-8
		c-0.5,1.5-1.2,2.9-2,4.1l-0.5-1.2c1.2-1.6,2-3.4,2.5-5.4h-2v-1.1h2v-3H132.5z M137.2,117.6c-0.5,2.2-1.3,4.2-2.2,5.8l-1-0.6
		c1-1.6,1.7-3.4,2.2-5.4L137.2,117.6z M136.7,124.5l-0.2-1.1c0.5,0,1,0.1,1.5,0.1c0.4,0,0.7-0.2,0.7-0.7V116h-3.9v-1.1h9v1.1h-3.9
		v7.1c0,0.9-0.5,1.4-1.4,1.4H136.7z M142.8,111v1.1h-7.3V111H142.8z M143.6,123l-1,0.5c-0.5-2.2-1.1-4.2-1.7-5.9l1-0.3
		C142.6,119.1,143.2,121,143.6,123z"/>
	<path class="st0" d="M145.9,124.6l-0.9-0.8c1-1.4,1.6-3.2,1.6-5.4v-7.7h11.9v12c0,1.1-0.6,1.7-1.7,1.7H155l-0.3-1.1
		c0.6,0,1.2,0.1,1.8,0.1c0.6,0,0.9-0.3,0.9-1v-2.8H153v4.7h-1.2v-4.7h-4.1C147.5,121.5,146.9,123.2,145.9,124.6z M147.8,111.8v2.8
		h4.1v-2.8H147.8z M147.8,118.4h4.1v-2.8h-4.1V118.4z M157.4,111.8H153v2.8h4.4V111.8z M157.4,115.6H153v2.8h4.4V115.6z"/>
	<path class="st0" d="M161.7,124.8l-0.8-0.8c1.3-1.8,2-4.1,2-7v-5h5.2c-0.3-0.7-0.6-1.3-0.9-1.9l1.2-0.2c0.3,0.6,0.6,1.3,0.9,2.1
		h5.1v5.4H164C163.9,120.3,163.2,122.7,161.7,124.8z M164,113.1v3.1h9.1v-3.1H164z"/>
</g>
</svg>
