<?xml version="1.0" encoding="utf-8"?>
<!-- Generator: Adobe Illustrator 22.1.0, SVG Export Plug-In . SVG Version: 6.00 Build 0)  -->
<svg version="1.1" id="图层_1" xmlns="http://www.w3.org/2000/svg" xmlns:xlink="http://www.w3.org/1999/xlink" x="0px" y="0px"
	 width="221px" height="221px" viewBox="0 0 221 221" style="enable-background:new 0 0 221 221;" xml:space="preserve">
<style type="text/css">
	.st0{fill:#00A4FF;}
	.st1{fill:#EFEFEF;}
	.st2{opacity:0.6;fill:#EFEFEF;enable-background:new    ;}
	.st3{opacity:0.8;fill:#EFEFEF;enable-background:new    ;}
	.st4{opacity:0.4;fill:#EFEFEF;enable-background:new    ;}
	.st5{fill:none;stroke:#FFFFFF;stroke-width:2;stroke-miterlimit:10;}
	.st6{fill:#D0D0D0;}
	.st7{fill:#03C6D8;}
	.st8{fill:#FFFFFF;}
</style>
<g id="图层_1_1_">
</g>
<g id="图层_2_1_">
</g>
<g id="图层_3">
	<circle class="st0" cx="111.2" cy="116.8" r="40"/>
	<path class="st1" d="M111,172c-30.3,0-55-24.7-55-55s24.7-55,55-55s55,24.7,55,55S141.3,172,111,172z M111,64
		c-29.2,0-53,23.8-53,53s23.8,53,53,53s53-23.8,53-53S140.2,64,111,64z"/>
	<path class="st2" d="M111,200c-45.8,0-83-37.2-83-83s37.2-83,83-83s83,37.2,83,83S156.8,200,111,200z M111,36
		c-44.7,0-81,36.3-81,81s36.3,81,81,81s81-36.3,81-81S155.7,36,111,36z"/>
	<path class="st3" d="M111,186c-38,0-69-31-69-69s31-69,69-69s69,31,69,69S149,186,111,186z M111,50c-36.9,0-67,30.1-67,67
		s30.1,67,67,67s67-30.1,67-67S147.9,50,111,50z"/>
	<path class="st4" d="M111,214c-53.5,0-97-43.5-97-97s43.5-97,97-97s97,43.5,97,97S164.5,214,111,214z M111,22
		c-52.4,0-95,42.6-95,95s42.6,95,95,95s95-42.6,95-95S163.4,22,111,22z"/>
</g>
<g>
	<path class="st5" d="M123.1,116.9v-13.6c0-6.7-5.4-12.1-12.1-12.1l0,0c-6.7,0-12.1,5.4-12.1,12.1v14.6"/>
	<path class="st5" d="M96,116.6h2.9v-10.9H96c-1.1,0-2,0.9-2,2v6.9C94,115.7,94.9,116.6,96,116.6z"/>
	<path class="st5" d="M123.1,116.6h2.9c1.1,0,2-0.9,2-2v-6.9c0-1.1-0.9-2-2-2h-2.9V116.6z"/>
	<path class="st5" d="M98.9,117.8L98.9,117.8c0,2.7,2.2,4.9,4.9,4.9h2.4"/>
	<path class="st5" d="M113.1,123.9h-5.5c-0.8,0-1.5-0.7-1.5-1.5v-0.6c0-0.8,0.7-1.5,1.5-1.5h5.5c0.8,0,1.5,0.7,1.5,1.5v0.6
		C114.6,123.2,114,123.9,113.1,123.9z"/>
</g>
<circle class="st0" cx="111.5" cy="28.5" r="28"/>
<ellipse transform="matrix(3.327794e-02 -0.9994 0.9994 3.327794e-02 -127.7457 189.53)" class="st6" cx="34.1" cy="160.8" rx="28" ry="28"/>
<circle class="st7" cx="187.4" cy="161.7" r="24.6"/>
<g>
	<path class="st8" d="M13.2,156l-0.6,0.6c-0.5-0.6-1.2-1.2-2.1-1.8l0.6-0.6C11.9,154.7,12.6,155.3,13.2,156z M13.5,157.8
		c-0.6,1.5-1.2,2.9-2,4.2l-0.8-0.3c0.8-1.4,1.5-2.7,2.1-4.2L13.5,157.8z M13.6,153.1l-0.6,0.6c-0.5-0.6-1.3-1.2-2.2-1.8l0.6-0.6
		C12.2,151.9,13,152.5,13.6,153.1z M13.9,157.7v-0.8H17v-1.3h0.8v1.3H21v0.8h-2.3c0.5,1.1,1.4,2.1,2.7,3l-0.6,0.7
		c-1.3-1.1-2.2-2.3-2.8-3.6h-0.2v4.4H17v-4.4h-0.2c-0.6,1.5-1.7,2.8-3.2,3.8l-0.4-0.7c1.4-0.8,2.3-1.8,3-3H13.9z M17,153.5
		c-0.6,1.1-1.3,2-2.3,2.6l-0.6-0.5c1-0.6,1.7-1.3,2.2-2.3L17,153.5z M20.8,153.9H20v-1.5h-5v1.5h-0.8v-2.3h6.7V153.9z M20.6,155.5
		l-0.7,0.5c-0.5-0.7-1.2-1.5-2.1-2.4l0.6-0.4C19.3,154,20.1,154.8,20.6,155.5z"/>
	<path class="st8" d="M24.3,156c0,2.5-0.5,4.6-1.3,6.1l-0.6-0.6c0.7-1.3,1.1-3.2,1.1-5.5v-3.9H28c-0.1-0.3-0.3-0.6-0.5-0.9l0.9-0.1
		c0.1,0.3,0.3,0.6,0.4,1H33v0.8h-8.7v1.4h2v-1h0.8v1h3.2v-1h0.8v1H33v0.8h-1.8v1.9h-4.9V155h-2V156z M32,157.7v0.6
		c-0.7,0.8-1.5,1.5-2.5,2.1c1.1,0.5,2.3,0.8,3.8,1l-0.4,0.7c-1.7-0.3-3.1-0.7-4.2-1.3c-1.2,0.6-2.6,1-4.2,1.3l-0.4-0.8
		c1.4-0.2,2.6-0.5,3.7-1c-0.9-0.6-1.6-1.2-2.2-2H25v-0.7H32z M28.7,160c0.8-0.4,1.6-1,2.2-1.6h-4.3C27.2,159.1,27.8,159.6,28.7,160z
		 M27.1,156.2h3.2V155h-3.2V156.2z"/>
	<path class="st8" d="M43.1,155.4v0.8c-0.8,0.5-1.7,1-2.7,1.5v0.6H45v0.8h-4.6v2c0,0.6-0.3,1-1,1h-1.5l-0.2-0.8c0.4,0,0.9,0,1.4,0
		c0.3,0,0.4-0.2,0.4-0.5v-1.7h-4.9v-0.8h4.9v-1c1-0.4,1.8-0.8,2.3-1.1h-5.2v-0.8H43.1z M44.9,156.2H44v-1.9h-8.4v1.9h-0.8v-2.7h6.9
		c0.5-0.8,1-1.6,1.4-2.5l0.9,0.3c-0.4,0.9-0.9,1.6-1.3,2.2h2.3V156.2z M37.7,153.1l-0.7,0.4c-0.4-0.7-0.8-1.3-1.3-1.9l0.8-0.4
		C36.9,151.8,37.3,152.4,37.7,153.1z M40.5,153l-0.8,0.4c-0.4-0.7-0.7-1.4-1.2-2l0.8-0.4C39.8,151.6,40.2,152.3,40.5,153z"/>
	<path class="st8" d="M53.7,157.5c-1.7,1.1-3.8,2-6.3,2.8l-0.3-0.8c2.5-0.8,4.6-1.7,6.4-2.8L53.7,157.5z M52,161.2c0.7,0,1.3,0,2,0
		c0.4,0,0.6-0.2,0.8-0.5c0.2-0.3,0.3-1.1,0.3-2.4c0-0.8,0-2.7,0.1-5.7h-7.8v-0.8h8.7c-0.1,4-0.1,6.3-0.2,7.1c0,1.2-0.2,2-0.4,2.4
		c-0.2,0.4-0.7,0.6-1.3,0.6c-0.5,0-1.2,0-1.9,0L52,161.2z M51.3,156.1l-0.6,0.6c-0.6-0.7-1.5-1.5-2.5-2.3l0.6-0.6
		C49.7,154.6,50.6,155.4,51.3,156.1z"/>
	<path class="st8" d="M25,169.2v5.1c0.3-0.3,0.7-0.7,1-1l0.2,0.9c-0.6,0.7-1.3,1.3-2,1.8l-0.3-0.8c0.2-0.2,0.3-0.3,0.3-0.5V170h-1.8
		v-0.8H25z M25.8,167.5l-0.6,0.6c-0.5-0.6-1.2-1.2-2.1-1.9l0.6-0.6C24.6,166.3,25.3,166.9,25.8,167.5z M27.9,165.8v5.3
		c0,2.5-0.6,4.4-1.6,5.5l-0.6-0.6c1-1,1.4-2.7,1.5-4.9v-5.3H27.9z M30.3,166.4v9.4h-0.8v-9.4H30.3z M32.8,165.8v10.8H32v-10.8H32.8z
		"/>
	<path class="st8" d="M38.2,174.9c-1.1,0.5-2.3,0.8-3.7,1.1l-0.1-0.9c1.5-0.3,2.7-0.6,3.8-1.1V174.9z M37.2,165.9
		c-0.6,1.5-1.1,2.8-1.7,3.7c0.5-0.1,1-0.2,1.4-0.3c0.2-0.4,0.4-0.9,0.6-1.3l0.8,0.3c-1,2-1.8,3.4-2.5,4.3c0.8-0.2,1.6-0.4,2.4-0.7
		v0.8c-1.2,0.5-2.3,0.8-3.4,0.9l-0.2-0.8c0.1-0.1,0.3-0.2,0.4-0.3c0.4-0.5,0.9-1.3,1.5-2.4c-0.6,0.1-1.2,0.2-1.8,0.3l-0.2-0.8
		c0.1-0.1,0.3-0.2,0.4-0.3c0.6-1.1,1.1-2.3,1.5-3.8L37.2,165.9z M40.2,176.4l-0.2-0.8l1.2,0c0.3,0,0.5-0.2,0.5-0.5v-3.1h-2.5
		l-0.2-0.7c0.3-0.5,0.5-1,0.8-1.6h-1.2V169H40c0.1-0.4,0.3-0.9,0.4-1.3H38v-0.8h2.7c0.1-0.4,0.2-0.9,0.3-1.4l0.8,0.2
		c-0.1,0.4-0.2,0.8-0.3,1.2H45v0.8h-3.7c-0.1,0.5-0.3,0.9-0.4,1.3h1.6v2.3H45v0.8h-2.6v3.4c0,0.6-0.3,1-1,1H40.2z M40.4,173.1
		c-0.4,1.2-0.9,2.2-1.5,3l-0.7-0.4c0.7-0.9,1.2-1.9,1.5-2.9L40.4,173.1z M39.9,171.3h1.8v-1.5h-1.1
		C40.3,170.3,40.1,170.8,39.9,171.3z M45.4,175.7l-0.7,0.3c-0.4-1.2-0.8-2.2-1.3-3.1l0.8-0.3C44.6,173.7,45,174.7,45.4,175.7z"/>
</g>
<g>
	<path class="st8" d="M89,135.5l-0.5-0.6c0.6-0.5,1.1-1.3,1.5-2.2l0.8,0.2c-0.1,0.3-0.2,0.6-0.3,0.8h3.4v0.8h-1.8
		c0,0.4-0.1,0.8-0.1,1.2h2.3v0.8h-2.4c0,0.1-0.1,0.2-0.1,0.3c0.9,0.5,1.7,0.9,2.3,1.4l-0.6,0.6c-0.5-0.5-1.2-0.9-2-1.4
		c-0.5,0.8-1.3,1.5-2.5,2.1l-0.6-0.7c1.2-0.6,2.1-1.2,2.5-2.1l0.1-0.3h-2.4v-0.8h2.6c0.1-0.4,0.1-0.8,0.1-1.2H90
		C89.7,134.8,89.4,135.2,89,135.5z M97.8,143.7h-0.9v-0.5H91v0.5h-0.9v-5h7.7V143.7z M96.9,140.6v-1.1H91v1.1H96.9z M96.9,142.4v-1
		H91v1H96.9z M98.7,133.5v4.4h-3.9v-4.4H98.7z M97.8,134.3h-2.3v2.9h2.3V134.3z"/>
	<path class="st8" d="M106.4,136.1l-0.7,0.5c-0.1-0.3-0.3-0.5-0.4-0.8c-1.3,0.2-2.8,0.3-4.6,0.4l-0.2-0.7c0.2,0,0.3-0.1,0.4-0.2
		c0.7-0.8,1.4-1.6,1.8-2.6l0.8,0.3c-0.6,1.1-1.2,1.9-1.8,2.5c1-0.1,2.1-0.2,3.2-0.3c-0.3-0.4-0.5-0.8-0.8-1.2l0.7-0.4
		C105.4,134.5,106,135.4,106.4,136.1z M101.9,143.7h-0.8v-6.8h4.4v5.6c0,0.7-0.3,1.1-1,1.1h-1l-0.2-0.8l0.9,0c0.3,0,0.5-0.2,0.5-0.5
		v-1h-2.8V143.7z M104.7,137.7h-2.8v1.2h2.8V137.7z M101.9,140.7h2.8v-1.1h-2.8V140.7z M107.8,137.9c-0.7,0-1.1-0.4-1.1-1.2v-4h0.9
		v1.6c1.3-0.2,2.4-0.4,3.2-0.6l0.3,0.8c-1,0.3-2.2,0.5-3.5,0.7v1.5c0,0.4,0.2,0.6,0.5,0.6h1.6c0.2,0,0.4-0.1,0.5-0.2
		c0.1-0.2,0.2-0.6,0.2-1.4l0.8,0.3c-0.1,1-0.2,1.6-0.5,1.8c-0.2,0.2-0.5,0.3-0.9,0.3H107.8z M107.5,142.4c0,0.2,0.1,0.4,0.5,0.4h1.6
		c0.2,0,0.4-0.1,0.5-0.2c0.1-0.2,0.2-0.6,0.3-1.3l0.8,0.2c-0.1,1-0.2,1.6-0.5,1.8c-0.2,0.2-0.5,0.3-0.9,0.3h-2c-0.7,0-1.1-0.3-1.1-1
		v-4.2h0.9v1.5c1.2-0.1,2.3-0.3,3.2-0.6l0.3,0.8c-1.1,0.3-2.2,0.5-3.5,0.6V142.4z"/>
	<path class="st8" d="M117.1,134.8c-0.2,0.3-0.4,0.5-0.6,0.8h4.4v0.7c-0.5,0.7-1.2,1.3-2.1,1.8c1.3,0.5,2.8,0.8,4.4,0.9l-0.2,0.8
		c-1.9-0.1-3.6-0.6-5.1-1.3c-1.4,0.6-3.2,1.2-5.4,1.5l-0.3-0.8c1.9-0.3,3.5-0.7,4.8-1.2c-0.6-0.4-1.2-0.8-1.7-1.2
		c-0.5,0.4-1,0.8-1.5,1.1l-0.6-0.7c1.2-0.7,2.2-1.6,2.9-2.7L117.1,134.8z M122.7,135.9h-0.9v-1.5h-8v1.5h-0.9v-2.3h4.4
		c-0.1-0.3-0.3-0.6-0.4-0.8l0.9-0.1c0.1,0.3,0.3,0.6,0.4,1h4.4V135.9z M121.3,143.7h-0.8v-0.5h-5.2v0.5h-0.8V140h6.8V143.7z
		 M120.5,142.4v-1.7h-5.2v1.7H120.5z M120,136.3h-4l0,0c0.6,0.5,1.3,1,2.1,1.3C118.8,137.3,119.5,136.8,120,136.3z"/>
	<path class="st8" d="M125.1,143.7l-0.6-0.6c0.5-1.1,0.7-2.5,0.7-4.2v-5.8h3.5v9.4c0,0.7-0.3,1.1-1,1.1h-1l-0.2-0.8
		c0.3,0,0.6,0,0.9,0c0.3,0,0.5-0.2,0.5-0.6v-2.7H126C125.9,141.3,125.6,142.6,125.1,143.7z M127.9,134H126v2h1.9V134z M126,138.8
		h1.9v-2H126V138.8z M130.5,143.7h-0.8v-10.5h4.9c0,1.5-0.1,2.5-0.2,3c-0.1,0.5-0.6,0.7-1.3,0.7h-1l-0.2-0.7c0.2,0,0.5,0,0.8,0
		c0.3,0,0.5,0,0.6-0.1c0.1,0,0.3-0.2,0.3-0.3c0.1-0.3,0.1-0.9,0.2-1.8h-3.2v3.6h4.1v0.7c-0.2,1.2-0.6,2.3-1.2,3.2
		c0.5,0.5,1.2,1,1.9,1.4l-0.4,0.7c-0.8-0.4-1.4-0.9-2-1.5c-0.5,0.6-1.1,1.1-1.9,1.5l-0.5-0.7c0.7-0.4,1.3-0.8,1.7-1.4
		c-0.8-0.9-1.3-2-1.5-3.2h-0.3V143.7z M132.9,140.9c0.4-0.7,0.8-1.5,1-2.5h-2.3C131.8,139.3,132.2,140.1,132.9,140.9z"/>
</g>
<g>
	<path class="st8" d="M91.8,23.1c-0.1,0.5-0.3,0.9-0.5,1.4h6.9c0,3.6-0.1,5.8-0.1,6.5c-0.1,1.2-0.2,2-0.5,2.4
		C97.2,33.8,96.7,34,96,34c-0.3,0-0.7,0-1.2,0l-0.2-0.8c0.4,0,0.8,0,1.2,0c0.5,0,0.8-0.2,1.1-0.5c0.2-0.3,0.4-1.1,0.4-2.3
		c0-0.7,0-2.4,0.1-5.1h-6.5c-0.6,1-1.3,1.9-2.2,2.7l-0.5-0.7c1.4-1.2,2.3-2.6,2.8-4.3L91.8,23.1z M95,27.2v4.5h-4.8v-4.5H95z
		 M94.1,28h-3.1v2.9h3.1V28z"/>
	<path class="st8" d="M102.6,27.8l-0.6,0.6c-0.4-0.6-1-1.2-1.8-1.8l0.6-0.6C101.5,26.6,102.1,27.2,102.6,27.8z M103,29.7
		c-0.5,1.5-1.1,2.9-1.7,4.3l-0.9-0.4c0.7-1.4,1.3-2.8,1.8-4.2L103,29.7z M103.1,25l-0.6,0.6c-0.5-0.6-1.1-1.2-2-1.8l0.6-0.6
		C101.9,23.8,102.6,24.4,103.1,25z M107.4,23.1V25h3.1v0.8h-3.1v2.2h3.4v0.8h-3.9c-0.8,1.8-1.4,3.1-2,3.9c1.5-0.2,3-0.4,4.4-0.7
		c-0.3-0.7-0.7-1.4-1.1-2l0.8-0.3c0.7,1.2,1.4,2.5,1.9,3.9l-0.8,0.4c-0.2-0.4-0.3-0.8-0.5-1.2c-1.8,0.3-3.8,0.6-5.9,0.8l-0.2-0.8
		c0.1,0,0.1-0.1,0.2-0.1c0.6-0.5,1.3-1.8,2.2-4h-2.8v-0.8h3.4v-2.2h-2.8V25h2.8v-1.9H107.4z"/>
	<path class="st8" d="M116.7,23.8c-0.6,1-1.1,1.8-1.7,2.4c-0.6,0.7-1.4,1.4-2.4,2.1l-0.5-0.8c0.8-0.5,1.6-1.1,2.2-1.8
		c0.6-0.7,1.1-1.5,1.6-2.4L116.7,23.8z M113.9,28.7v-0.8h7.2c0,1.5-0.1,2.7-0.2,3.6c-0.1,0.9-0.3,1.6-0.6,1.9
		c-0.3,0.3-0.7,0.5-1.3,0.6h-2.2l-0.2-0.9c0.7,0,1.4,0,2,0c0.6,0,1.1-0.3,1.3-0.8c0.2-0.6,0.3-1.8,0.4-3.7h-3
		c-0.3,1.3-0.7,2.4-1.2,3.1c-0.6,0.9-1.5,1.6-2.8,2.3l-0.6-0.7c1.1-0.6,1.9-1.3,2.5-2c0.5-0.7,0.9-1.6,1.1-2.7H113.9z M123,27.5
		l-0.6,0.7c-1.9-1.2-3.2-2.7-3.9-4.6l0.7-0.4C120,25,121.2,26.5,123,27.5z"/>
	<path class="st8" d="M126.9,34H126v-6.1c-0.4,1.2-0.9,2.3-1.6,3.3l-0.4-0.9c0.9-1.2,1.6-2.5,1.9-4h-1.7v-0.8h1.8v-2.4h0.9v2.4h1.6
		v0.8h-1.6v0.6c0.6,0.6,1.1,1.2,1.7,2l-0.5,0.7c-0.5-0.7-0.9-1.3-1.3-1.8V34z M134.6,23.9c-1.4,0.5-2.9,0.8-4.6,0.9v2.2h4.9v0.8
		h-1.8V34h-0.9v-6.3h-2.2v0.1c-0.1,2.6-0.7,4.6-1.8,6.1l-0.6-0.6c1-1.3,1.5-3.1,1.6-5.5V24c1.8,0,3.5-0.3,5-0.9L134.6,23.9z"/>
</g>
<g>
	<path class="st8" d="M173,159v5.3c0.3-0.3,0.7-0.7,1.1-1.1l0.2,0.9c-0.7,0.7-1.4,1.3-2.1,1.8l-0.3-0.8c0.2-0.2,0.3-0.3,0.3-0.5
		v-4.8h-1.7V159H173z M173.9,157.3l-0.6,0.6c-0.5-0.6-1.2-1.2-2.1-1.9l0.6-0.6C172.7,156.1,173.4,156.7,173.9,157.3z M178.3,166.3
		l-0.2-0.8l1.4,0c0.4,0,0.6-0.2,0.6-0.6v-8.2h-5.7v-0.8h6.6v9.2c0,0.8-0.4,1.2-1.3,1.2H178.3z M179.3,158.1v0.8h-4.6v-0.8H179.3z
		 M178.8,160.2v3.7h-3.7v-3.7H178.8z M178,161h-2.1v2.2h2.1V161z"/>
	<path class="st8" d="M188.1,155.4c-0.1,0.6-0.3,1.2-0.6,1.7h5.3v8c0,0.8-0.4,1.2-1.1,1.2h-1.8l-0.2-0.9l1.8,0
		c0.3,0,0.5-0.2,0.5-0.5v-7h-7.8v8.4h-0.9v-9.2h3.3c0.3-0.6,0.5-1.2,0.6-1.8L188.1,155.4z M190.2,159.6v4.2h-4.4v-4.2H190.2z
		 M189.3,160.4h-2.7v2.6h2.7V160.4z"/>
	<path class="st8" d="M205.3,159.1v0.6h-10.7v-0.6H205.3z M204.1,160.4v3.1h-3.8v0.7h4.1v0.6h-4.1v0.7h4.9v0.7h-10.7v-0.7h4.9v-0.7
		h-4v-0.6h4v-0.7h-3.7v-3.1H204.1z M203.9,155.5v3H196v-3H203.9z M199.5,161.6v-0.7h-2.9v0.7H199.5z M199.5,162.1h-2.9v0.7h2.9
		V162.1z M203,156.7v-0.7h-6.2v0.7H203z M203,157.3h-6.2v0.7h6.2V157.3z M200.4,161.6h2.9v-0.7h-2.9V161.6z M203.3,162.1h-2.9v0.7
		h2.9V162.1z"/>
</g>
</svg>
