<?xml version="1.0" encoding="utf-8"?>
<!-- Generator: Adobe Illustrator 22.1.0, SVG Export Plug-In . SVG Version: 6.00 Build 0)  -->
<svg version="1.1" id="图层_1" xmlns="http://www.w3.org/2000/svg" xmlns:xlink="http://www.w3.org/1999/xlink" x="0px" y="0px"
	 width="221px" height="221px" viewBox="0 0 221 221" style="enable-background:new 0 0 221 221;" xml:space="preserve">
<style type="text/css">
	.st0{fill:#D0D0D0;}
	.st1{fill:#2376DA;}
	.st2{fill:#03C6D8;}
	.st3{fill:#FFFFFF;}
</style>
<g id="图层_1_1_">
</g>
<path class="st0" d="M110.8,163.6L4.8,114L110,64.3l0.9,0.4L216.5,114L110.8,163.6z M14.2,114l96.5,45.2L207,114l-97-45.3L14.2,114z
	"/>
<polygon class="st1" points="110.5,11.6 211.8,61.6 110.5,110.9 9.5,61.3 "/>
<polygon class="st2" points="110.4,117 211.6,167 110.4,216.2 9.4,166.6 "/>
<g>
	<path class="st3" d="M83.2,57v8.6h-1V57H83.2z"/>
	<path class="st3" d="M91.4,57v0.9h-3v7.7h-1v-7.7h-3V57H91.4z"/>
	<path class="st3" d="M94.7,56.7v-0.9h0.8v0.9h4.1v-0.9h0.8v0.9h2.1v0.7h-2.1v4h2.3v0.8h-2.5c0.6,0.7,1.5,1.3,2.7,1.7l-0.3,0.7
		c-1.5-0.6-2.5-1.4-3.2-2.4h-3.8c-0.6,1-1.6,1.8-3,2.5l-0.4-0.7c1.2-0.5,2.1-1,2.6-1.7h-2.5v-0.8h2.3v-4h-2.1v-0.7H94.7z M98,62.6v1
		h2.4v0.8H98v1.3h4.1v0.8H93v-0.8h4.2v-1.3h-2.5v-0.8h2.5v-1H98z M99.6,58.3v-0.9h-4.1v0.9H99.6z M99.6,59.8V59h-4.1v0.9H99.6z
		 M99.6,61.4v-0.9h-4.1v0.9H99.6z"/>
	<path class="st3" d="M104.3,57.3v-0.8h4v0.8h-1.8c-0.2,1-0.4,1.9-0.7,2.7h2.2v6.4h-0.7v-0.8h-1.3v0.9h-0.8v-5.3
		c-0.3,0.5-0.5,1-0.8,1.4l-0.5-0.7c0.9-1.4,1.4-2.9,1.7-4.7H104.3z M107.3,64.9v-4.1h-1.3v4.1H107.3z M113.6,56.8h0.8v3.9h-2.3v4.5
		h1.7v-3.4h0.8v5h-0.8V66h-4.2v0.8h-0.8v-5h0.8v3.4h1.7v-4.5h-2.2v-3.9h0.8v3.1h1.4v-4.1h0.8v4.1h1.5V56.8z"/>
	<path class="st3" d="M118.6,59.5v5.3c0.4-0.4,0.9-0.8,1.4-1.2l0.2,0.9c-0.8,0.7-1.6,1.3-2.4,1.9l-0.3-0.8c0.2-0.2,0.3-0.3,0.3-0.5
		v-4.7h-1.7v-0.8H118.6z M119.4,57.8l-0.6,0.6c-0.5-0.6-1.1-1.2-1.9-1.8l0.6-0.6C118.3,56.6,118.9,57.2,119.4,57.8z M126.1,60.9v0.8
		c-0.4,1.1-1,2.1-1.9,2.9c0.8,0.6,1.8,1.1,3,1.5l-0.5,0.7c-1.2-0.5-2.3-1.1-3.1-1.7c-1,0.7-2.1,1.3-3.6,1.7l-0.5-0.7
		c1.3-0.4,2.4-0.9,3.3-1.5c-0.9-0.8-1.5-1.8-1.9-2.8h-0.7v-0.8H126.1z M125.3,56.2v2.6c0,0.3,0.2,0.5,0.5,0.5h1.1v0.8h-1.3
		c-0.7,0-1.1-0.4-1.1-1.1v-2h-2.3v0.4c0,1.3-0.6,2.3-1.8,3l-0.6-0.7c1-0.5,1.6-1.2,1.6-2.2v-1.3H125.3z M123.5,64
		c0.8-0.7,1.3-1.4,1.7-2.3h-3.4C122.2,62.6,122.7,63.3,123.5,64z"/>
	<path class="st3" d="M130.2,57.5c-0.2-0.6-0.5-1.1-0.8-1.6l0.9-0.2c0.2,0.5,0.5,1.1,0.7,1.8h1.5v0.8H130V60h2.1
		c0,3-0.1,4.9-0.2,5.6c-0.1,0.7-0.6,1.1-1.4,1.1c-0.1,0-0.3,0-0.6,0l-0.2-0.8c0.2,0,0.4,0,0.6,0c0.4,0,0.7-0.2,0.8-0.6
		c0.1-0.5,0.1-2,0.1-4.5H130c-0.1,2.7-0.5,4.7-1.3,6l-0.6-0.6c0.8-1.2,1.2-3.2,1.2-5.8v-2.1h-0.9v-0.8H130.2z M132.8,60.2l-0.6-0.7
		c0.7-1,1.3-2.2,1.8-3.8l0.8,0.2c-0.1,0.4-0.3,0.8-0.4,1.2h4.3v0.8h-4.6C133.7,58.8,133.3,59.5,132.8,60.2z M138.2,63.5
		c-0.1,0.5-0.5,0.7-1.2,0.7h-0.2l-0.2-0.7c0.2,0,0.4,0,0.5,0c0.2,0,0.3-0.1,0.4-0.4c0-0.2,0.1-1.1,0.1-2.6l-1.2,0.4v4h-0.8v-3.7
		l-1.2,0.4v3.4c0,0.5,0.2,0.8,0.6,0.8h2.4c0.3,0,0.5-0.1,0.7-0.2c0.2-0.2,0.3-0.6,0.3-1.4l0.7,0.2c-0.1,1-0.3,1.6-0.5,1.8
		c-0.2,0.2-0.6,0.3-1.1,0.3h-2.8c-0.7,0-1.1-0.5-1.1-1.4V62l-0.9,0.3v-0.8l0.9-0.3v-1.7h0.8v1.4l1.2-0.4v-1.9h0.8v1.6l2-0.7
		C138.3,61.7,138.3,63.1,138.2,63.5z"/>
</g>
<g>
	<path class="st3" d="M91,161.6v0.8h-8.7v8.3h9v0.8h-9.9v-10H91z M87.1,166c0.7-0.9,1.3-1.9,1.8-3l0.8,0.4c-0.5,1.2-1.2,2.3-1.9,3.2
		c0.9,0.9,1.8,1.7,2.6,2.6l-0.7,0.7c-0.7-0.8-1.5-1.7-2.5-2.6c-1.1,1.1-2.3,2-3.6,2.6l-0.5-0.8c1.3-0.6,2.5-1.4,3.5-2.4
		c-0.9-0.8-2-1.7-3.1-2.6l0.6-0.6C85.1,164.4,86.1,165.2,87.1,166z"/>
	<path class="st3" d="M94,164.3v-3.1h0.9v3.1h1.4v0.8h-1.4v4c0.6-0.2,1.1-0.4,1.6-0.7v0.9c-1.2,0.6-2.4,1-3.8,1.4l-0.2-0.9
		c0.5-0.1,1-0.3,1.5-0.4v-4.3h-1.3v-0.8H94z M96.2,172.1l-0.5-0.7c1.6-0.8,2.6-2.2,3-4.2h-2.5v-0.8h2.6c0.1-0.5,0.1-1,0.1-1.6v-1.1
		h-2.2v-0.8h2.2v-1.8h0.8v1.8h2.6v3.5h1v0.8H100c0.7,1.7,1.9,3.1,3.5,4.1l-0.6,0.7c-1.6-1.2-2.8-2.6-3.5-4.4
		C98.9,169.7,97.8,171.2,96.2,172.1z M99.8,164.6c0,0.6,0,1.2-0.1,1.8h1.9v-2.7h-1.8V164.6z"/>
	<path class="st3" d="M106.6,161.3c-0.1,0.4-0.2,0.8-0.3,1.2h1.8v0.8h-2.1c-0.3,0.8-0.6,1.6-0.9,2.3l-0.7-0.4c0.6-1.2,1-2.5,1.3-4
		L106.6,161.3z M108,164.9v0.8h-1v1.5h1.3v0.8H107v2.8c0.3-0.2,0.7-0.4,1-0.7l0.1,0.7c-0.6,0.4-1.2,0.8-2,1l-0.3-0.7
		c0.2-0.1,0.3-0.2,0.3-0.4V168h-1.3v-0.8h1.3v-1.5h-0.6v-0.8H108z M115.6,171.1l-0.2,0.8h-1.6c-0.4,0-0.7,0-1.1,0
		c-0.6,0-1-0.1-1.5-0.2c-0.4-0.1-0.8-0.4-1.1-0.7c-0.2-0.2-0.3-0.3-0.4-0.3c-0.2,0-0.6,0.5-1.1,1.4l-0.5-0.6
		c0.5-0.8,0.9-1.3,1.3-1.5v-4h-1v-0.8h1.8v4.8c0,0,0.1,0.1,0.1,0.1c0.2,0.3,0.6,0.6,0.9,0.7c0.3,0.1,0.7,0.2,1.2,0.2
		c0.5,0,0.9,0,1.4,0C114.4,171.1,115,171.1,115.6,171.1z M110.3,163.3l-0.6,0.5c-0.3-0.6-0.7-1.2-1.3-2l0.6-0.4
		C109.6,162.1,110,162.7,110.3,163.3z M112.9,167.9v-1.5h-2l-0.2-0.7c0.4-0.7,0.8-1.5,1.1-2.5h-1.2v-0.8h1.4
		c0.1-0.4,0.2-0.9,0.4-1.4l0.8,0.2c-0.1,0.4-0.2,0.8-0.3,1.2h2.3v0.8h-2.5c-0.3,0.9-0.6,1.7-1,2.4h1.2V164h0.8v1.6h1.4v0.8h-1.4v1.5
		h1.7v0.8h-1.7v2h-0.8v-2h-2.2v-0.8H112.9z"/>
	<path class="st3" d="M117.4,172.1l-0.6-0.6c0.5-1.1,0.7-2.5,0.7-4.2v-5.8h3.5v9.4c0,0.7-0.3,1.1-1,1.1h-1l-0.2-0.8
		c0.3,0,0.6,0,0.9,0c0.3,0,0.5-0.2,0.5-0.6V168h-1.9C118.1,169.7,117.9,171,117.4,172.1z M120.2,162.4h-1.9v2h1.9V162.4z
		 M118.2,167.2h1.9v-2h-1.9V167.2z M122.8,172.1H122v-10.5h4.9c0,1.5-0.1,2.5-0.2,3c-0.1,0.5-0.6,0.7-1.3,0.7h-1l-0.2-0.7
		c0.2,0,0.5,0,0.8,0c0.3,0,0.5,0,0.6-0.1c0.1,0,0.3-0.2,0.3-0.3c0.1-0.3,0.1-0.9,0.2-1.8h-3.2v3.6h4.1v0.7c-0.2,1.2-0.6,2.3-1.2,3.2
		c0.5,0.5,1.2,1,1.9,1.4l-0.4,0.7c-0.8-0.4-1.4-0.9-2-1.5c-0.5,0.6-1.1,1.1-1.9,1.5l-0.5-0.7c0.7-0.4,1.3-0.8,1.7-1.4
		c-0.8-0.9-1.3-2-1.5-3.2h-0.3V172.1z M125.1,169.3c0.4-0.7,0.8-1.5,1-2.5h-2.3C124.1,167.7,124.5,168.6,125.1,169.3z"/>
	<path class="st3" d="M133,161.2c-0.1,0.3-0.3,0.6-0.5,0.9h5.2v0.7c-0.8,0.9-1.7,1.6-2.8,2.3c1.4,0.6,2.9,0.9,4.5,1.1l-0.4,0.8
		c-1.9-0.2-3.6-0.7-5.1-1.4c-1.5,0.7-3.2,1.2-5.1,1.5l-0.4-0.8c1.7-0.2,3.3-0.6,4.6-1.2c-0.7-0.4-1.3-0.9-1.9-1.4
		c-0.5,0.4-0.9,0.8-1.5,1.1l-0.5-0.7c1.4-0.8,2.4-1.8,2.9-3L133,161.2z M134.2,166.4c0,0.5,0,0.9-0.1,1.4h4.2c0,2-0.2,3.2-0.6,3.6
		s-0.9,0.6-1.8,0.6c-0.4,0-0.9,0-1.4,0l-0.2-0.8l1.4,0.1c0.7,0,1.2-0.2,1.4-0.5c0.2-0.3,0.3-1,0.3-2.2h-3.6
		c-0.1,0.3-0.2,0.6-0.4,0.9c-0.6,1.1-2,2-4.2,2.7l-0.6-0.7c2-0.6,3.3-1.3,3.9-2.2c0.1-0.2,0.3-0.4,0.4-0.7h-3.6v-0.8h3.8
		c0.1-0.4,0.1-0.9,0.1-1.4H134.2z M136.6,162.9H132l-0.2,0.2c0.7,0.6,1.4,1.1,2.2,1.5C135,164.1,135.9,163.6,136.6,162.9z"/>
</g>
</svg>
