<?xml version="1.0" encoding="utf-8"?>
<!-- Generator: Adobe Illustrator 22.1.0, SVG Export Plug-In . SVG Version: 6.00 Build 0)  -->
<svg version="1.1" id="图层_1" xmlns="http://www.w3.org/2000/svg" xmlns:xlink="http://www.w3.org/1999/xlink" x="0px" y="0px"
	 width="221px" height="221px" viewBox="0 0 221 221" style="enable-background:new 0 0 221 221;" xml:space="preserve">
<style type="text/css">
	.st0{opacity:0.2;fill:#D0D0D0;}
	.st1{fill:#2277DA;}
	.st2{fill:#00A4FF;}
	.st3{fill:#02C6D8;}
	.st4{fill:#FFFFFF;}
	.st5{fill:#D0D0D0;}
</style>
<circle class="st0" cx="110.6" cy="110.5" r="100"/>
<circle class="st0" cx="110.7" cy="110.6" r="84"/>
<circle class="st0" cx="110.7" cy="110.6" r="66.8"/>
<g id="图层_1_1_">
</g>
<g id="图层_2_1_">
</g>
<circle class="st1" cx="32.2" cy="32" r="32"/>
<circle class="st2" cx="109.9" cy="106.1" r="39.1"/>
<circle class="st3" cx="189" cy="32" r="32"/>
<g>
	<path class="st4" d="M26.8,26.3c2.6,0,3.9,1.1,3.9,3.4c0,2.3-1.3,3.4-4,3.4h-3.3v4.7h-1.3V26.3H26.8z M23.5,31.9h3.3
		c0.9,0,1.6-0.2,2-0.6c0.4-0.4,0.7-0.9,0.7-1.7c0-0.8-0.2-1.3-0.7-1.7c-0.4-0.4-1.1-0.6-2-0.6h-3.3V31.9z"/>
	<path class="st4" d="M40.6,27.1c0.9,0.7,1.4,1.6,1.5,2.7h-1.3c-0.2-0.8-0.6-1.5-1.2-1.9c-0.6-0.4-1.4-0.6-2.3-0.6
		c-1.3,0-2.4,0.5-3.1,1.4c-0.7,0.9-1,2-1,3.4c0,1.4,0.3,2.6,1,3.4c0.7,0.9,1.7,1.3,3.1,1.3c0.9,0,1.7-0.2,2.3-0.7
		c0.7-0.5,1.1-1.3,1.4-2.3h1.3c-0.3,1.3-0.8,2.4-1.8,3.1c-0.9,0.7-1.9,1-3.2,1c-1.8,0-3.1-0.6-4.1-1.8c-0.9-1.1-1.3-2.4-1.3-4.1
		c0-1.7,0.4-3.1,1.3-4.2c1-1.2,2.3-1.8,4.1-1.8C38.6,26.1,39.7,26.4,40.6,27.1z"/>
</g>
<g>
	<path class="st4" d="M179.7,26.3l4.5,11.4h-1.4l-1.2-3.2h-5.2l-1.2,3.2h-1.4l4.5-11.4H179.7z M181.2,33.4l-2.2-5.7H179l-2.2,5.7
		H181.2z"/>
	<path class="st4" d="M190.1,26.3c2.6,0,3.9,1.1,3.9,3.4c0,2.3-1.3,3.4-4,3.4h-3.3v4.7h-1.3V26.3H190.1z M186.7,31.9h3.3
		c0.9,0,1.6-0.2,2-0.6c0.4-0.4,0.7-0.9,0.7-1.7c0-0.8-0.2-1.3-0.7-1.7c-0.4-0.4-1.1-0.6-2-0.6h-3.3V31.9z"/>
	<path class="st4" d="M200.3,26.3c2.6,0,3.9,1.1,3.9,3.4c0,2.3-1.3,3.4-4,3.4H197v4.7h-1.3V26.3H200.3z M197,31.9h3.3
		c0.9,0,1.6-0.2,2-0.6c0.4-0.4,0.7-0.9,0.7-1.7c0-0.8-0.2-1.3-0.7-1.7c-0.4-0.4-1.1-0.6-2-0.6H197V31.9z"/>
</g>
<circle class="st1" cx="189" cy="189" r="32"/>
<g>
	<path class="st4" d="M180.7,183.2v5h6.6v-5h1.3v11.4h-1.3v-5.3h-6.6v5.3h-1.3v-11.4H180.7z"/>
	<path class="st4" d="M198.1,183.2v1.2h-5.6l-0.4,3.8h0.1c0.3-0.4,0.7-0.7,1.2-0.9c0.4-0.2,0.9-0.3,1.5-0.3c1.1,0,2,0.3,2.6,1
		c0.7,0.7,1,1.7,1,2.9c0,1.2-0.4,2.1-1.2,2.8c-0.8,0.7-1.7,1-2.8,1c-1,0-1.9-0.3-2.6-0.8c-0.8-0.6-1.2-1.4-1.3-2.5h1.3
		c0.1,0.7,0.4,1.3,0.9,1.7c0.4,0.3,1,0.5,1.7,0.5c0.8,0,1.5-0.3,2-0.8c0.5-0.5,0.8-1.2,0.8-2c0-0.9-0.3-1.6-0.7-2.1
		c-0.5-0.5-1.1-0.8-2-0.8c-0.5,0-1,0.1-1.5,0.4c-0.4,0.2-0.8,0.6-1,1h-1.2l0.6-6.3H198.1z"/>
</g>
<circle class="st5" cx="32.2" cy="189" r="32"/>
<g>
	<path class="st4" d="M20.6,172.6c-0.7,1.7-1.8,3.2-3.3,4.6l-0.4-1.1c1.2-1.1,2.1-2.4,2.7-3.9L20.6,172.6z M20.7,176.9
		c-0.2,0.6-0.5,1.2-0.8,1.7v8.2h-1.1v-6.6c-0.4,0.5-0.9,1-1.4,1.5l-0.3-1.1c1.2-1.2,2.1-2.6,2.7-4.2L20.7,176.9z M24.2,184.9
		c0.2-0.1,0.3-0.3,0.3-0.4v-2.9h-1.7v0.7c0,2-0.5,3.5-1.5,4.5l-0.8-0.7c0.8-0.9,1.3-2.1,1.3-3.7v-1.8h3.8v3.6
		c0.4-0.4,0.9-0.8,1.4-1.3l0.2,1c-0.8,0.9-1.6,1.6-2.5,2.1L24.2,184.9z M26.2,178.2v1h-5v-1H26.2z M24.3,172.1v3.6h1.1V173h0.9v3.8
		h-5.1V173h1v2.8h1.1v-3.6H24.3z M27.6,178.5c-0.3,0.8-0.6,1.4-0.9,2l-0.6-0.8c0.9-1.9,1.6-4.5,1.9-7.7l1,0.2
		c-0.1,0.9-0.2,1.7-0.4,2.4h3v1.1H31c-0.1,2.7-0.5,5-1.2,6.9c0.6,1.3,1.3,2.3,2.1,3.1l-0.7,1c-0.8-0.7-1.4-1.7-2-2.9
		c-0.6,1.2-1.4,2.2-2.3,3l-0.6-1c1-0.8,1.8-1.9,2.4-3.3C28.3,181.3,27.9,180,27.6,178.5z M28.1,176.8c0.3,1.7,0.6,3.1,1.1,4.4
		c0.5-1.6,0.7-3.4,0.8-5.5h-1.6C28.3,176.1,28.2,176.5,28.1,176.8z"/>
	<path class="st4" d="M33.3,179.9l-0.4-1.2c1.6-1.9,2.7-4.2,3.4-6.7l1.1,0.5c-0.4,1.2-0.8,2.4-1.4,3.5v10.9h-1.1v-9
		C34.4,178.5,33.9,179.2,33.3,179.9z M42.3,174.2c-0.2-0.6-0.5-1.2-0.8-1.9l1.1-0.3c0.3,0.7,0.6,1.3,0.8,1.9l-0.6,0.2h5v1.1H37.3
		v-1.1H42.3z M46.7,186.8h-1.1v-0.9h-5.9v0.9h-1.1v-5.6h8.2V186.8z M46.4,176.6v1h-7.6v-1H46.4z M46.4,178.9v1.1h-7.6v-1.1H46.4z
		 M45.6,184.8v-2.5h-5.9v2.5H45.6z"/>
	<path class="st4" d="M13,195.7c-0.8,3.2-1.8,5.6-3,7.3l-1-0.9c1.3-1.7,2.2-4,2.9-6.9L13,195.7z M13.2,205.8l-0.3-1.2
		c0.8,0.1,1.6,0.1,2.3,0.1c0.6,0,0.9-0.3,0.9-0.9v-12.3h1.2v12.6c0,1.1-0.6,1.7-1.6,1.7H13.2z M23.8,202.4l-1,0.7
		c-0.7-2.3-1.7-4.8-2.9-7.6l1-0.7C22.2,197.8,23.1,200.2,23.8,202.4z"/>
	<path class="st4" d="M27.7,195.7v-2.3c-0.7,0.1-1.4,0.2-2.1,0.3l-0.2-1.1c2-0.2,3.8-0.5,5.3-1l0.4,1.1c-0.7,0.2-1.5,0.4-2.3,0.5
		v2.5h2.1v1.1h-2.1v0.8c0.8,0.7,1.5,1.6,2.3,2.5l-0.6,1c-0.6-1-1.2-1.8-1.6-2.4v7.2h-1.1v-7.2c-0.6,1.6-1.3,3-2.2,4.2l-0.5-1.3
		c1.2-1.4,2.1-3,2.6-4.9h-2.2v-1.1H27.7z M39.3,198v1.1h-3.5v2h3v1h-3v2.2h3.9v1.1h-9v-1.1h3.9v-2.2h-2.9v-1h2.9v-2h-3.3V198H39.3z
		 M38.6,191.9v4.6h-6.6v-4.6H38.6z M37.5,192.9h-4.4v2.6h4.4V192.9z"/>
	<path class="st4" d="M49.7,192.6h5.8v1.1H43.6v4.1c-0.1,3.4-0.6,6.1-1.7,8.1l-0.9-0.8c0.9-1.8,1.4-4.2,1.4-7.4v-5.2h6
		c-0.2-0.4-0.4-0.8-0.7-1.2l1.2-0.2C49.2,191.7,49.5,192.1,49.7,192.6z M49.7,197.9c1-0.6,1.8-1.2,2.6-2h-7.1v-1h8.5v0.8
		c-1,1-2,1.9-3.2,2.7c0.3,0.2,0.5,0.3,0.7,0.5l-0.2,0.2h4.1v0.9c-0.7,1.2-1.4,2.3-2.2,3.2l-0.9-0.7c0.7-0.6,1.3-1.4,1.8-2.3h-3.7
		v4.3c0,0.9-0.5,1.4-1.4,1.4h-2.4l-0.2-1.1c0.8,0,1.5,0.1,2.2,0.1c0.4,0,0.7-0.2,0.7-0.7v-4h-4.7v-1.1h5.7c-0.8-0.6-1.9-1.2-3.2-1.8
		l0.7-0.7C48.4,197.1,49.1,197.5,49.7,197.9z"/>
</g>
<g>
	<path class="st4" d="M122.9,96.6c-1.3-1.3-3-2.1-4.9-2.1c-1.7,0-3.1,0.6-4.4,1.6c-0.6,0.4-1.1,1-1.9,1.7c-0.2,0.2-5,4.9-8.1,7.9v0
		c-0.4,0-1.1,0-1.6,0c-1.6-0.1-2.5-0.7-3-1.2c-1.7-1.6-1.7-4.3-0.1-6c0.8-0.8,1.8-1.3,3-1.3c0.7,0,1.7,0.2,2.9,1.1
		c0.6,0.5,1.8,1.6,2.3,2l2-1.9c-0.9-0.8-2.2-2-3-2.5c-0.8-0.6-1.7-1-2.6-1.2c0,0,0,0,0,0c0.6-3,3.3-5.2,6.4-5.2c2.6,0,4.9,1.6,6,3.8
		c0,0,0,0,0.1,0c0.8-0.2,1.7-0.3,2.6-0.3c0.1,0,0.1,0,0.1-0.1c-1.3-3.6-4.7-6.2-8.8-6.2c-4.6,0-8.5,3.4-9.2,7.9c0,0,0,0,0,0
		c-1.5,0.2-2.8,1-3.8,2c-2.7,2.7-2.6,7.1,0.1,9.8c1.1,1.1,2.4,1.7,3.9,1.9h0l0,0c0.5,0.1,1.3,0.1,2,0.1c0.6,0,12.6,0,13.1,0
		c1,0,1.7,0,2.4-0.1c1.6-0.1,3.2-0.7,4.4-1.9C125.6,103.7,125.6,99.3,122.9,96.6z M120.9,104.5c-0.5,0.5-1.5,1.1-3,1.2
		c-0.7,0-1.6,0-2,0c-0.4,0-4.1,0-8.4,0c3.1-3,5.7-5.6,6-5.8c0.3-0.3,0.9-0.9,1.4-1.3c1.2-1.1,2.2-1.3,3-1.3c1.2,0,2.2,0.5,3,1.3
		C122.6,100.2,122.6,102.8,120.9,104.5z"/>
	<g>
		<path class="st4" d="M113.1,114.1h-4.3v0.6h1.3v2.3h-1.5v0.6h1.5v3.8h0.7v-3.8h1.6v3.7h1.3v-0.6h-0.6V114.1z M110.8,117v-2.3h1.6
			v2.3H110.8z"/>
		<rect x="101.2" y="119.7" class="st4" width="3.4" height="0.6"/>
		<path class="st4" d="M98.9,118.5c0,1.1-0.1,2-0.3,2.7c0,0.1,0,0.1,0,0.1c0,0,0.5,0,0.6,0c0.2-1,0.2-1.9,0.2-2.5h0.9v1.9h-0.6
			c0,0-0.1,0,0,0.1l0.2,0.6h1.1v-7.2h-2.1V118.5z M99.5,118.3v-1.5h0.9v1.5H99.5z M100.4,114.8v1.5h-0.9v-1.5H100.4z"/>
		<path class="st4" d="M104.8,116.6h0.8v-0.6h-2.4c0.1-0.2,0.1-0.4,0.2-0.6h2.1V115h-0.6c0.1-0.3,0.2-0.7,0.2-0.8c0,0,0-0.1,0-0.1
			h-0.5l-0.2,0.8h-0.7c0.1-0.3,0.1-0.7,0.2-1.1c0,0,0-0.1,0-0.1c0,0-0.4,0-0.6,0c-0.1,0.4-0.1,0.8-0.2,1.1h-0.4l-0.2-0.8h-0.5
			c0,0,0,0,0,0.1c0,0,0.1,0.4,0.2,0.8h-0.6v0.6h1.4c-0.1,0.2-0.1,0.4-0.2,0.6h-1.3v0.6h1c-0.4,0.6-0.8,0.8-1,0.9c0,0.1,0,0.6,0,0.6
			c0,0,0,0.1,0.1,0c0.2-0.1,0.4-0.2,0.6-0.4h2.3l0,0.8h-1.8l0-0.5c0,0,0,0,0,0c0,0-0.6,0-0.6,0l-0.1,1.1c0,0,0,0,0,0
			c0,0,3.1,0,3.1,0v1.5h-1.4c0,0-0.1,0,0,0.1l0.2,0.6h2v-2.7h-0.8l0-1.1c0.3,0.3,0.6,0.5,0.8,0.6c0.1,0.1,0.1,0,0.1,0
			c0,0,0-0.6,0-0.6C105.6,117.5,105.2,117.2,104.8,116.6z M104.1,116.6c0.1,0.2,0.3,0.5,0.5,0.6h-2c0.2-0.2,0.3-0.4,0.5-0.6H104.1z"
			/>
		<path class="st4" d="M109.2,119.2c0,0-0.6,0.4-1.1,0.9v-4h-1.6v0.7h0.9v3.8c-0.2,0.2-0.4,0.3-0.4,0.3l0.4,0.5l1.9-1.4
			C109.3,120,109.3,119.3,109.2,119.2C109.3,119.2,109.3,119.2,109.2,119.2z"/>
		<path class="st4" d="M107.5,115.5c0,0,0.7,0,0.7,0c0,0,0,0,0-0.1c0,0-0.9-1.4-0.9-1.4s-0.7,0-0.7,0s0,0,0,0.1
			C106.6,114.1,107.5,115.5,107.5,115.5z"/>
		<rect x="115.1" y="114.3" class="st4" width="5.4" height="0.7"/>
		<path class="st4" d="M117.1,117.5h4.2v-0.7h-6.9v0.7h1.9c-0.4,1-1.4,3.6-1.4,3.6c0,0,0,0.1,0,0.1c0,0,5.9,0,5.9,0c0,0,0,0,0-0.1
			c0,0-0.9-2.3-0.9-2.3s-0.7,0-0.7,0c0,0,0,0,0,0.1c0,0,0.6,1.6,0.6,1.6h-3.9L117.1,117.5z"/>
	</g>
</g>
<path class="st2" d="M107.8,155.4c-1.5-0.1-3-0.2-4.4-0.4l0.1-1.1c1.4,0.2,2.9,0.3,4.3,0.4L107.8,155.4z M112.2,155.4l0-1.1
	c1.4-0.1,2.9-0.2,4.3-0.4l0.1,1.1C115.2,155.2,113.7,155.4,112.2,155.4z M99,154.3c-1.4-0.3-2.9-0.7-4.3-1.2l0.3-1
	c1.4,0.4,2.8,0.8,4.2,1.1L99,154.3z M121,154.3l-0.2-1.1c1.4-0.3,2.8-0.7,4.2-1.2l0.3,1C123.8,153.5,122.4,153.9,121,154.3z
	 M90.6,151.6c-1.4-0.6-2.7-1.2-4-1.9l0.5-1c1.3,0.7,2.6,1.3,3.9,1.9L90.6,151.6z M129.4,151.5l-0.4-1c1.3-0.6,2.6-1.2,3.9-1.9l0.5,1
	C132.1,150.3,130.7,150.9,129.4,151.5z M82.8,147.4c-1.2-0.8-2.4-1.7-3.6-2.6l0.7-0.9c1.1,0.9,2.3,1.7,3.5,2.5L82.8,147.4z
	 M137.2,147.3l-0.6-0.9c1.2-0.8,2.4-1.6,3.5-2.6l0.7,0.9C139.6,145.6,138.4,146.5,137.2,147.3z M75.8,141.8c-1.1-1-2.1-2.1-3.1-3.2
	l0.8-0.7c0.9,1.1,2,2.1,3,3.1L75.8,141.8z M144.1,141.8l-0.8-0.8c1-1,2-2,3-3.1l0.8,0.7C146.2,139.7,145.2,140.8,144.1,141.8z
	 M70,135.2c-0.9-1.2-1.7-2.4-2.5-3.7l0.9-0.6c0.7,1.2,1.5,2.4,2.4,3.6L70,135.2z M149.9,135.1l-0.9-0.6c0.8-1.2,1.6-2.4,2.4-3.6
	l0.9,0.6C151.6,132.7,150.8,133.9,149.9,135.1z M65.5,127.6c-0.6-1.3-1.2-2.7-1.7-4.1l1-0.4c0.5,1.3,1.1,2.7,1.7,4L65.5,127.6z
	 M154.5,127.5l-1-0.5c0.6-1.3,1.2-2.6,1.7-4l1,0.4C155.7,124.8,155.1,126.2,154.5,127.5z M62.3,119.3c-0.4-1.4-0.7-2.9-1-4.3
	l1.1-0.2c0.3,1.4,0.6,2.8,1,4.2L62.3,119.3z M157.6,119.2l-1.1-0.3c0.4-1.4,0.7-2.8,1-4.2l1.1,0.2
	C158.3,116.4,158,117.8,157.6,119.2z M60.7,110.6c-0.1-1.5-0.2-2.9-0.2-4.4l1.1,0c0,1.4,0.1,2.9,0.2,4.3L60.7,110.6z M159.1,110.5
	l-1.1-0.1c0.1-1.4,0.2-2.9,0.2-4.3l0-0.2h1.1l0,0.2C159.3,107.6,159.3,109.1,159.1,110.5z M61.8,101.9l-1.1-0.1
	c0.1-1.5,0.3-2.9,0.6-4.4l1.1,0.2C62.1,99,61.9,100.4,61.8,101.9z M158,101.6c-0.1-1.4-0.3-2.9-0.6-4.3l1.1-0.2
	c0.3,1.4,0.5,2.9,0.6,4.4L158,101.6z M63.3,93.3l-1.1-0.3c0.4-1.4,0.8-2.8,1.4-4.2l1,0.4C64.2,90.6,63.7,92,63.3,93.3z M156.5,93
	c-0.4-1.4-0.8-2.8-1.4-4.1l1-0.4c0.5,1.4,1,2.8,1.4,4.2L156.5,93z M66.4,85.2l-1-0.5c0.6-1.3,1.3-2.6,2.1-3.9l0.9,0.6
	C67.7,82.6,67,83.9,66.4,85.2z M153.4,85c-0.6-1.3-1.3-2.6-2.1-3.8l0.9-0.6c0.8,1.3,1.5,2.6,2.1,3.9L153.4,85z M70.8,77.8l-0.9-0.6
	c0.9-1.2,1.8-2.4,2.8-3.5l0.8,0.7C72.5,75.5,71.6,76.6,70.8,77.8z M148.9,77.5c-0.9-1.2-1.8-2.3-2.7-3.4l0.8-0.7
	c1,1.1,1.9,2.3,2.8,3.5L148.9,77.5z M76.5,71.3l-0.8-0.8c1.1-1,2.2-2,3.3-2.9l0.7,0.9C78.6,69.3,77.5,70.3,76.5,71.3z M143.2,71.1
	c-1-1-2.1-1.9-3.3-2.8l0.7-0.9c1.2,0.9,2.3,1.9,3.3,2.9L143.2,71.1z M83.2,65.8l-0.6-0.9c1.2-0.8,2.5-1.6,3.8-2.3l0.5,1
	C85.7,64.3,84.4,65,83.2,65.8z M136.4,65.7c-1.2-0.8-2.5-1.5-3.7-2.2l0.5-1c1.3,0.7,2.6,1.5,3.8,2.3L136.4,65.7z M90.8,61.7l-0.4-1
	c1.4-0.6,2.7-1.1,4.1-1.6l0.3,1C93.5,60.6,92.1,61.1,90.8,61.7z M128.8,61.6c-1.3-0.6-2.7-1.1-4.1-1.5l0.3-1c1.4,0.4,2.8,1,4.2,1.5
	L128.8,61.6z M99,59L98.8,58c1.4-0.3,2.9-0.6,4.4-0.8l0.1,1.1C101.9,58.4,100.4,58.7,99,59z M120.5,58.9c-1.4-0.3-2.8-0.6-4.3-0.8
	l0.1-1.1c1.5,0.2,2.9,0.4,4.4,0.8L120.5,58.9z M107.6,57.8l-0.1-1.1c1.5-0.1,3-0.1,4.4,0l0,1.1C110.5,57.8,109,57.8,107.6,57.8z"/>
</svg>
