<?xml version="1.0" encoding="utf-8"?>
<!-- Generator: Adobe Illustrator 21.0.0, SVG Export Plug-In . SVG Version: 6.00 Build 0)  -->
<svg version="1.1" id="图层_1" xmlns="http://www.w3.org/2000/svg" xmlns:xlink="http://www.w3.org/1999/xlink" x="0px" y="0px"
	 width="100px" height="100px" viewBox="0 0 100 100" style="enable-background:new 0 0 100 100;" xml:space="preserve">
<style type="text/css">
	.st0{fill:#FFFFFF;}
	.st1{fill:#E5E5E5;}
	.st2{fill:#932279;}
	.st3{fill:#EFA724;}
	.st4{fill:#262577;}
	.st5{fill:#9CCD2A;}
</style>
<g>
	<path class="st0" d="M50,98C23.5,98,2,76.5,2,50S23.5,2,50,2s48,21.5,48,48S76.5,98,50,98z"/>
	<path class="st1" d="M50,4c25.4,0,46,20.6,46,46S75.4,96,50,96S4,75.4,4,50S24.6,4,50,4 M50,0C22.4,0,0,22.4,0,50s22.4,50,50,50
		s50-22.4,50-50S77.6,0,50,0L50,0z"/>
</g>
<title>资源 10</title>
<g id="layer1" transform="translate(-64.032001,-432.25134)">
	<g id="g5189" transform="matrix(1.0008826,0,0,1.0094534,-0.05651152,-6.184848)">
		<g id="g3664" transform="matrix(1.0627252,0,0,1.0537063,198.76454,-518.47507)">
			<g id="g12802" transform="matrix(0,-1,1,0,-1934.5199,1337.4805)">
				<g id="g12804" transform="translate(16.279512,-899.16723)">
					<g id="g12806" transform="matrix(1.0666663,0,0,1,-26.935596,-4.1328125e-5)">
						<g id="path12808">
							<path class="st2" d="M374.3,2748.9l-2.2,2.3l-2.2-2.3v-16.3h-7.2l9.4-9.9l9.2,9.9h-7V2748.9z"/>
						</g>
					</g>
					<g id="g12812" transform="matrix(1.0722788,0,0,1,-28.850792,-4.1328125e-5)">
					</g>
				</g>
			</g>
			<g id="g12768" transform="translate(-351.30671,-902.55818)">
				<g id="g12770" transform="translate(16.279512,-899.16723)">
					<g id="g12772" transform="matrix(1.0666663,0,0,1,-26.935596,-4.1328125e-5)">
						<g id="path12774">
							<path class="st3" d="M266.7,2747.9l-2.2,2.3l-2.2-2.3v-16.3h-7.2l9.4-9.9l9.2,9.9h-7V2747.9z"/>
						</g>
					</g>
					<g id="g12778" transform="matrix(1.0722788,0,0,1,-28.850792,-4.1328125e-5)">
					</g>
				</g>
			</g>
			<g id="g12780" transform="matrix(0,1,-1,0,2787.8992,696.93451)">
				<g id="g12782" transform="matrix(1.0666663,0,0,1,-26.935596,-4.1328125e-5)">
					<g id="path12784">
						<path class="st4" d="M265.9,2862.6l-2.2,2.3l-2.2-2.3v-16.3h-7.2l9.4-9.9l9.2,9.9h-7V2862.6z"/>
					</g>
				</g>
				<g id="g12788" transform="matrix(1.0722788,0,0,1,-28.850792,-4.1328125e-5)">
				</g>
			</g>
			<g id="g12790" transform="matrix(-1,0,0,-1,305.51863,2920.6937)">
				<g id="g12792" transform="translate(16.279512,-899.16723)">
					<g id="g12794" transform="matrix(1.0666663,0,0,1,-26.935596,-4.1328125e-5)">
						<g id="path12796">
							<path class="st5" d="M373.4,2863.6l-2.2,2.3l-2.2-2.3v-16.3h-7.2l9.4-9.9l9.2,9.9h-7V2863.6z"/>
						</g>
					</g>
					<g id="g12800" transform="matrix(1.0722788,0,0,1,-28.850792,-4.1328125e-5)">
					</g>
				</g>
			</g>
			<g id="g12742" transform="translate(-749.79982,-1331.6428)">
				<g id="rect12744">
					<path class="st5" d="M648.1,2261h19.8v19.8h-19.8V2261z"/>
					<path class="st0" d="M668.6,2281.4h-21.1v-21.1h21.1V2281.4z M648.8,2280.1h18.5v-18.5h-18.5V2280.1z"/>
				</g>
				<g id="rect12746">
					<path class="st2" d="M672.1,2261H692v19.8h-19.8V2261z"/>
					<path class="st0" d="M692.6,2281.4h-21.1v-21.1h21.1V2281.4z M672.8,2280.1h18.5v-18.5h-18.5V2280.1z"/>
				</g>
				<g id="rect12748">
					<path class="st3" d="M672.1,2285H692v19.8h-19.8V2285z"/>
					<path class="st0" d="M692.6,2305.5h-21.1v-21.1h21.1V2305.5z M672.8,2304.2h18.5v-18.5h-18.5V2304.2z"/>
				</g>
				<g id="rect12750">
					<path class="st4" d="M648.1,2285h19.8v19.8h-19.8V2285z"/>
					<path class="st0" d="M668.6,2305.5h-21.1v-21.1h21.1V2305.5z M648.8,2304.2h18.5v-18.5h-18.5V2304.2z"/>
				</g>
			</g>
			<g id="rect12760">
				<path class="st0" d="M-96.8,966.2l-15-15l15-15l15,15L-96.8,966.2z M-109.9,951.2l13.1,13.1l13.1-13.1l-13.1-13.1L-109.9,951.2z
					"/>
			</g>
			<g id="rect12762">
				<path class="st0" d="M-79.8,949.2l-15-15l15-15l15,15L-79.8,949.2z M-92.8,934.2l13.1,13.1l13.1-13.1l-13.1-13.1L-92.8,934.2z"
					/>
			</g>
			<g id="rect12764">
				<path class="st0" d="M-62.8,966.2l-15-15l15-15l15,15L-62.8,966.2z M-75.8,951.2l13.1,13.1l13.1-13.1l-13.1-13.1L-75.8,951.2z"
					/>
			</g>
			<g id="rect12766">
				<path class="st0" d="M-79.8,983.2l-15-15l15-15l15,15L-79.8,983.2z M-92.8,968.3l13.1,13.1l13.1-13.1l-13.1-13.1L-92.8,968.3z"
					/>
			</g>
		</g>
	</g>
</g>
</svg>
