<?xml version="1.0" encoding="UTF-8"?>
<svg width="30px" height="24px" viewBox="0 0 30 24" version="1.1" xmlns="http://www.w3.org/2000/svg" xmlns:xlink="http://www.w3.org/1999/xlink">
    <!-- Generator: Sketch 49 (51002) - http://www.bohemiancoding.com/sketch -->
    <title>网站备案</title>
    <desc>Created with Sketch.</desc>
    <defs></defs>
    <g id="Welcome" stroke="none" stroke-width="1" fill="none" fill-rule="evenodd">
        <g id="Desktop-HD" transform="translate(-227.000000, -438.000000)" fill="#00A4FF">
            <g id="域名与网站" transform="translate(88.000000, 431.000000)">
                <g id="网站备案" transform="translate(138.000000, 3.000000)">
                    <path d="M11,22 L21,22 L21,20 L11,20 L11,22 Z M31,22.021 L31,4 L1,4 L1,28 L31,28 L31,25.992 L29,25.992 L29,26 L3,26 L3,11 L29,11 L29,22.021 L31,22.021 Z M3,9 L3,6 L29,6 L29,9 L3,9 Z M21,17 L11,17 L11,19 L21,19 L21,17 Z M21,14 L11,14 L11,16 L21,16 L21,14 Z" id="XMLID_52_"></path>
                </g>
            </g>
        </g>
    </g>
</svg>