<?xml version="1.0" encoding="UTF-8"?>
<svg width="830px" height="152px" viewBox="0 0 830 152" version="1.1" xmlns="http://www.w3.org/2000/svg" xmlns:xlink="http://www.w3.org/1999/xlink">
    <!-- Generator: Sketch 54.1 (76490) - https://sketchapp.com -->
    <title>测试用例管理</title>
    <desc>Created with Sketch.</desc>
    <defs>
        <rect id="path-1" x="0" y="0" width="132" height="50"></rect>
        <filter x="-1.5%" y="-2.0%" width="103.0%" height="108.0%" filterUnits="objectBoundingBox" id="filter-2">
            <feOffset dx="0" dy="1" in="SourceAlpha" result="shadowOffsetOuter1"></feOffset>
            <feGaussianBlur stdDeviation="0.5" in="shadowOffsetOuter1" result="shadowBlurOuter1"></feGaussianBlur>
            <feColorMatrix values="0 0 0 0 0   0 0 0 0 0   0 0 0 0 0  0 0 0 0.35 0" type="matrix" in="shadowBlurOuter1"></feColorMatrix>
        </filter>
        <rect id="path-3" x="0" y="0" width="132" height="50"></rect>
        <filter x="-1.5%" y="-2.0%" width="103.0%" height="108.0%" filterUnits="objectBoundingBox" id="filter-4">
            <feOffset dx="0" dy="1" in="SourceAlpha" result="shadowOffsetOuter1"></feOffset>
            <feGaussianBlur stdDeviation="0.5" in="shadowOffsetOuter1" result="shadowBlurOuter1"></feGaussianBlur>
            <feColorMatrix values="0 0 0 0 0   0 0 0 0 0   0 0 0 0 0  0 0 0 0.35 0" type="matrix" in="shadowBlurOuter1"></feColorMatrix>
        </filter>
        <rect id="path-5" x="0" y="0" width="90" height="50"></rect>
        <filter x="-2.2%" y="-2.0%" width="104.4%" height="108.0%" filterUnits="objectBoundingBox" id="filter-6">
            <feOffset dx="0" dy="1" in="SourceAlpha" result="shadowOffsetOuter1"></feOffset>
            <feGaussianBlur stdDeviation="0.5" in="shadowOffsetOuter1" result="shadowBlurOuter1"></feGaussianBlur>
            <feColorMatrix values="0 0 0 0 0   0 0 0 0 0   0 0 0 0 0  0 0 0 0.35 0" type="matrix" in="shadowBlurOuter1"></feColorMatrix>
        </filter>
        <rect id="path-7" x="0" y="0" width="90" height="50"></rect>
        <filter x="-2.2%" y="-2.0%" width="104.4%" height="108.0%" filterUnits="objectBoundingBox" id="filter-8">
            <feOffset dx="0" dy="1" in="SourceAlpha" result="shadowOffsetOuter1"></feOffset>
            <feGaussianBlur stdDeviation="0.5" in="shadowOffsetOuter1" result="shadowBlurOuter1"></feGaussianBlur>
            <feColorMatrix values="0 0 0 0 0   0 0 0 0 0   0 0 0 0 0  0 0 0 0.35 0" type="matrix" in="shadowBlurOuter1"></feColorMatrix>
        </filter>
        <rect id="path-9" x="0" y="0" width="90" height="50"></rect>
        <filter x="-2.2%" y="-2.0%" width="104.4%" height="108.0%" filterUnits="objectBoundingBox" id="filter-10">
            <feOffset dx="0" dy="1" in="SourceAlpha" result="shadowOffsetOuter1"></feOffset>
            <feGaussianBlur stdDeviation="0.5" in="shadowOffsetOuter1" result="shadowBlurOuter1"></feGaussianBlur>
            <feColorMatrix values="0 0 0 0 0   0 0 0 0 0   0 0 0 0 0  0 0 0 0.35 0" type="matrix" in="shadowBlurOuter1"></feColorMatrix>
        </filter>
        <rect id="path-11" x="0" y="0" width="90" height="50"></rect>
        <filter x="-2.2%" y="-2.0%" width="104.4%" height="108.0%" filterUnits="objectBoundingBox" id="filter-12">
            <feOffset dx="0" dy="1" in="SourceAlpha" result="shadowOffsetOuter1"></feOffset>
            <feGaussianBlur stdDeviation="0.5" in="shadowOffsetOuter1" result="shadowBlurOuter1"></feGaussianBlur>
            <feColorMatrix values="0 0 0 0 0   0 0 0 0 0   0 0 0 0 0  0 0 0 0.35 0" type="matrix" in="shadowBlurOuter1"></feColorMatrix>
        </filter>
    </defs>
    <g id="介绍页配图设计" stroke="none" stroke-width="1" fill="none" fill-rule="evenodd">
        <g id="应用场景复制" transform="translate(-1213.000000, -3089.000000)">
            <g id="编组-18" transform="translate(1213.000000, 2631.000000)">
                <g id="流程1-copy-2复制-13" transform="translate(0.000000, 458.000000)">
                    <g id="编组-15" transform="translate(99.000000, 0.000000)">
                        <g id="XMLID_25_" transform="translate(153.000000, 49.000000)">
                            <g id="分组-copy">
                                <g id="XMLID_134_">
                                    <use fill="black" fill-opacity="1" filter="url(#filter-2)" xlink:href="#path-1"></use>
                                    <use fill="#FFFFFF" fill-rule="evenodd" xlink:href="#path-1"></use>
                                </g>
                                <path d="M58.982,23.448 L58.982,25.898 L62.538,25.898 L62.538,23.448 L58.982,23.448 Z M58.926,26.822 C58.772,28.614 58.254,30.098 57.358,31.274 L56.588,30.588 C57.484,29.342 57.946,27.76 57.974,25.842 L57.974,19.122 L68.404,19.122 L68.404,29.608 C68.404,30.588 67.914,31.078 66.934,31.078 L65.324,31.078 L65.058,30.084 C65.618,30.112 66.136,30.14 66.612,30.14 C67.116,30.14 67.382,29.846 67.382,29.258 L67.382,26.822 L63.574,26.822 L63.574,30.924 L62.538,30.924 L62.538,26.822 L58.926,26.822 Z M67.382,25.898 L67.382,23.448 L63.574,23.448 L63.574,25.898 L67.382,25.898 Z M67.382,22.51 L67.382,20.102 L63.574,20.102 L63.574,22.51 L67.382,22.51 Z M62.538,20.102 L58.982,20.102 L58.982,22.51 L62.538,22.51 L62.538,20.102 Z M74.41,19.374 L79.016,19.374 L79.016,20.34 L76.468,20.34 C76.398,21.04 76.3,21.698 76.174,22.328 L78.75,22.328 L78.75,23.196 C78.246,27.074 76.832,29.79 74.536,31.358 L74.032,30.462 C75.152,29.692 76.034,28.614 76.678,27.242 C76.09,26.668 75.502,26.206 74.928,25.842 C74.648,26.332 74.354,26.78 74.032,27.186 L73.528,26.206 C74.62,24.778 75.278,22.818 75.502,20.34 L74.41,20.34 L74.41,19.374 Z M75.334,25.016 C75.95,25.38 76.524,25.814 77.07,26.29 C77.406,25.366 77.644,24.344 77.812,23.252 L75.95,23.252 C75.782,23.882 75.572,24.47 75.334,25.016 Z M81.564,31.302 L80.024,31.302 L79.8,30.336 C80.304,30.378 80.766,30.406 81.214,30.406 C81.62,30.406 81.83,30.196 81.83,29.776 L81.83,18.604 L82.838,18.604 L82.838,30.028 C82.838,30.868 82.404,31.302 81.564,31.302 Z M71.918,23.812 C71.568,24.344 71.204,24.848 70.812,25.324 L70.476,24.26 C71.708,22.58 72.604,20.662 73.164,18.492 L74.116,18.926 C73.808,20.032 73.402,21.068 72.926,22.048 L72.926,31.428 L71.918,31.428 L71.918,23.812 Z M79.618,19.892 L80.542,19.892 L80.542,28.572 L79.618,28.572 L79.618,19.892 Z M91.476,18.45 C91.728,18.856 91.966,19.304 92.19,19.808 L97.23,19.808 L97.23,20.788 L86.856,20.788 L86.856,23.98 C86.8,27.074 86.338,29.552 85.442,31.4 L84.616,30.658 C85.386,29.062 85.792,26.836 85.82,23.98 L85.82,19.808 L91.084,19.808 C90.86,19.374 90.608,18.982 90.356,18.646 L91.476,18.45 Z M90.566,21.18 L91.532,21.404 C91.406,21.796 91.28,22.16 91.154,22.524 L96.614,22.524 L96.614,23.406 L90.804,23.406 C90.412,24.302 89.992,25.1 89.544,25.8 L92.162,25.8 L92.162,24.106 L93.17,24.106 L93.17,25.8 L96.292,25.8 L96.292,26.71 L93.17,26.71 L93.17,28.278 L97.356,28.278 L97.356,29.202 L93.17,29.202 L93.17,31.414 L92.162,31.414 L92.162,29.202 L87.108,29.202 L87.108,28.278 L92.162,28.278 L92.162,26.71 L88.494,26.71 L88.284,25.842 C88.816,25.184 89.306,24.372 89.74,23.406 L87.626,23.406 L87.626,22.524 L90.104,22.524 C90.258,22.09 90.412,21.642 90.566,21.18 Z" id="用例库" fill="#444444" fill-rule="nonzero"></path>
                                <g id="分组-39" transform="translate(21.000000, 15.000000)" fill-rule="nonzero">
                                    <rect id="矩形" stroke="#00A4FF" stroke-width="2" x="1" y="1" width="24" height="18"></rect>
                                    <rect id="矩形" fill="#00A4FF" x="4" y="22" width="18" height="2"></rect>
                                    <path d="M4.99842981,6.50989196 L14.8560043,6.49010804" id="路径-6" stroke="#00A4FF" stroke-width="2"></path>
                                    <path d="M4.99842981,11.509892 L19.5795213,11.509892" id="路径-6复制" stroke="#00A4FF" stroke-width="2"></path>
                                </g>
                            </g>
                        </g>
                        <g id="XMLID_25_复制-7" transform="translate(500.000000, 49.000000)">
                            <g id="分组-copy">
                                <g id="XMLID_134_">
                                    <use fill="black" fill-opacity="1" filter="url(#filter-4)" xlink:href="#path-3"></use>
                                    <use fill="#FFFFFF" fill-rule="evenodd" xlink:href="#path-3"></use>
                                </g>
                                <path d="M57.512,18.856 C58.296,19.472 58.954,20.102 59.486,20.718 L58.828,21.39 C58.352,20.802 57.68,20.172 56.826,19.514 L57.512,18.856 Z M57.288,22.3 C58.044,22.972 58.688,23.63 59.206,24.302 L58.548,24.96 C58.072,24.33 57.428,23.658 56.602,22.944 L57.288,22.3 Z M58.52,26.066 L59.374,26.402 C58.842,28.11 58.24,29.72 57.596,31.232 L56.672,30.84 C57.372,29.286 57.988,27.69 58.52,26.066 Z M64.736,19.248 L64.736,27.788 L63.84,27.788 L63.84,20.116 L60.942,20.116 L60.942,27.872 L60.046,27.872 L60.046,19.248 L64.736,19.248 Z M63.238,28.446 C64.092,29.202 64.806,29.972 65.38,30.728 L64.708,31.4 C64.204,30.658 63.518,29.874 62.622,29.034 L63.238,28.446 Z M61.978,21.082 L62.818,21.082 L62.818,25.52 C62.79,27.116 62.538,28.39 62.062,29.342 C61.6,30.21 60.844,30.91 59.808,31.414 L59.276,30.574 C60.284,30.098 60.984,29.468 61.376,28.684 C61.74,27.872 61.95,26.822 61.978,25.52 L61.978,21.082 Z M67.76,31.288 L66.22,31.288 L66.01,30.35 C66.5,30.392 66.976,30.42 67.424,30.42 C67.746,30.42 67.914,30.224 67.914,29.86 L67.914,18.646 L68.866,18.646 L68.866,30.098 C68.866,30.882 68.488,31.288 67.76,31.288 Z M65.842,19.794 L66.724,19.794 L66.724,28.53 L65.842,28.53 L65.842,19.794 Z M76.58,25.198 L75.264,25.198 L75.264,24.26 L78.89,24.26 L78.89,25.198 L77.574,25.198 L77.574,28.992 C78.19,28.852 78.806,28.698 79.394,28.53 L79.394,29.468 C78.176,29.818 76.86,30.112 75.46,30.35 L75.208,29.398 C75.67,29.342 76.132,29.272 76.58,29.188 L76.58,25.198 Z M81.886,31.19 C81.41,31.19 80.976,30.826 80.612,30.098 C80.192,29.258 79.884,28.124 79.688,26.668 C79.534,25.436 79.436,23.896 79.38,22.062 L74.942,22.062 L74.942,21.082 L79.352,21.082 C79.324,20.27 79.324,19.416 79.324,18.52 L80.304,18.52 C80.304,19.43 80.304,20.284 80.332,21.082 L83.118,21.082 L83.118,22.062 L80.346,22.062 C80.416,24.47 80.57,26.318 80.794,27.634 C81.102,29.23 81.466,30.042 81.886,30.098 C82.166,30.042 82.46,29.188 82.74,27.522 L83.538,28.166 C83.076,30.182 82.53,31.19 81.886,31.19 Z M81.508,18.506 C82.11,19.178 82.572,19.766 82.908,20.27 L82.208,20.76 C81.858,20.214 81.382,19.612 80.794,18.94 L81.508,18.506 Z M72.268,18.702 C73.164,19.416 73.906,20.13 74.522,20.858 L73.836,21.558 C73.276,20.872 72.52,20.144 71.568,19.388 L72.268,18.702 Z M70.588,22.846 L73.528,22.846 L73.528,28.95 C73.948,28.544 74.368,28.096 74.816,27.606 L75.082,28.67 C74.312,29.51 73.5,30.252 72.632,30.896 L72.24,30 C72.436,29.832 72.548,29.636 72.548,29.426 L72.548,23.812 L70.588,23.812 L70.588,22.846 Z M89.012,22.762 L92.806,22.762 L92.806,18.548 L93.842,18.548 L93.842,22.762 L97.44,22.762 L97.44,23.77 L93.842,23.77 L93.842,31.428 L92.806,31.428 L92.806,23.77 L89.012,23.77 L89.012,22.762 Z M86.268,18.702 C87.22,19.416 88.018,20.13 88.662,20.858 L87.976,21.558 C87.388,20.872 86.576,20.144 85.568,19.388 L86.268,18.702 Z M84.63,22.846 L87.654,22.846 L87.654,29.076 C88.158,28.656 88.718,28.18 89.306,27.62 L89.558,28.656 C88.69,29.496 87.752,30.238 86.758,30.896 L86.366,29.986 C86.576,29.818 86.688,29.622 86.688,29.398 L86.688,23.812 L84.63,23.812 L84.63,22.846 Z M107.002,19.78 L107.982,19.78 L107.982,28.516 L107.002,28.516 L107.002,19.78 Z M109.494,31.274 L107.478,31.274 L107.254,30.308 C107.926,30.35 108.556,30.378 109.144,30.378 C109.578,30.378 109.802,30.154 109.802,29.72 L109.802,18.604 L110.81,18.604 L110.81,29.972 C110.81,30.84 110.362,31.274 109.494,31.274 Z M105.602,21.684 L105.756,22.664 L101.696,23.294 C101.78,24.05 101.878,24.722 102.004,25.338 C102.13,25.94 102.27,26.472 102.424,26.948 C103.25,26.01 103.95,24.904 104.524,23.63 L105.406,24.092 C104.706,25.66 103.838,26.99 102.816,28.054 C102.956,28.404 103.11,28.712 103.264,28.992 C103.782,29.818 104.258,30.238 104.678,30.252 C104.93,30.21 105.182,29.482 105.462,28.054 L106.316,28.6 C106.12,29.328 105.91,29.93 105.686,30.42 C105.406,31.008 105.084,31.316 104.734,31.316 C104.09,31.316 103.446,30.868 102.802,29.972 C102.55,29.608 102.312,29.202 102.102,28.74 C101.206,29.496 100.226,30.112 99.148,30.56 L98.546,29.65 C99.722,29.188 100.772,28.544 101.682,27.704 C101.486,27.186 101.318,26.626 101.164,26.01 C100.968,25.282 100.828,24.428 100.716,23.448 L98.896,23.728 L98.742,22.748 L100.618,22.454 C100.506,21.306 100.45,20.018 100.45,18.59 L101.486,18.59 C101.486,19.962 101.528,21.194 101.612,22.3 L105.602,21.684 Z M103.334,18.534 C103.866,19.164 104.356,19.85 104.832,20.592 L103.978,21.012 C103.516,20.242 103.026,19.556 102.508,18.94 L103.334,18.534 Z" id="测试计划" fill="#444444" fill-rule="nonzero"></path>
                                <g id="Icons-/-flask" transform="translate(19.000000, 12.000000)">
                                    <g id="flask">
                                        <rect id="Rectangle" fill="#000000" opacity="0" x="0" y="0" width="28" height="28"></rect>
                                        <path d="M14,12.90625 C14,13.5103114 14.4896886,14 15.09375,14 C15.6978114,14 16.1875,13.5103114 16.1875,12.90625 C16.1875,12.3021886 15.6978114,11.8125 15.09375,11.8125 C14.4896886,11.8125 14,12.3021886 14,12.90625 Z M24.0351562,22.5558594 L19.0394531,9.625 L19.0394531,4.8671875 L21,4.8671875 L21,3.0078125 L7,3.0078125 L7,4.8671875 L8.96054687,4.8671875 L8.96054687,9.625 L3.96484375,22.5558594 C3.88828125,22.7582031 3.84726562,22.9714844 3.84726562,23.1875 C3.84726562,24.1527344 4.63203125,24.9375 5.59726562,24.9375 L22.4027344,24.9375 C22.61875,24.9375 22.8320312,24.8964844 23.034375,24.8199219 C23.9367187,24.4726562 24.3851562,23.4582031 24.0351562,22.5558594 Z M10.8199219,9.97226563 L10.8199219,4.921875 L17.1800781,4.921875 L17.1800781,9.97226563 L19.665625,16.40625 C19.0996094,16.2613281 18.5144531,16.1875 17.9183594,16.1875 C16.2449219,16.1875 14.6589844,16.7753906 13.3984375,17.828125 C12.4714844,18.5992188 11.3121094,19.0285156 10.0816406,19.0285156 C9.1875,19.0285156 8.32890625,18.8015625 7.57148438,18.3804687 L10.8199219,9.97226563 Z M5.75585938,23.078125 L6.89609375,20.1304687 C7.87226563,20.6253906 8.9578125,20.890625 10.084375,20.890625 C11.7578125,20.890625 13.34375,20.3027344 14.6042969,19.25 C15.53125,18.4789062 16.690625,18.0496094 17.9210937,18.0496094 C18.878125,18.0496094 19.7914062,18.309375 20.5898438,18.790625 L22.2441406,23.078125 L5.75585938,23.078125 Z" id="Shape" fill="#00A4FF" fill-rule="nonzero"></path>
                                    </g>
                                </g>
                            </g>
                        </g>
                        <g id="XMLID_25_复制-13">
                            <g id="分组-copy">
                                <g id="XMLID_134_">
                                    <use fill="black" fill-opacity="1" filter="url(#filter-6)" xlink:href="#path-5"></use>
                                    <use fill="#FFFFFF" fill-rule="evenodd" xlink:href="#path-5"></use>
                                </g>
                                <path d="M21.228,28.432 L21.228,29.356 C20.248,29.874 19.128,30.294 17.882,30.602 L17.756,29.622 C19.072,29.328 20.234,28.936 21.228,28.432 Z M19.8,18.534 L20.738,18.898 C20.08,20.676 19.408,22.09 18.736,23.14 C19.338,23.056 19.94,22.958 20.528,22.832 C20.752,22.384 21.004,21.908 21.256,21.404 L22.138,21.726 C20.962,23.994 19.982,25.604 19.226,26.556 C20.038,26.388 20.836,26.15 21.648,25.87 L21.648,26.766 C20.388,27.186 19.198,27.48 18.05,27.648 L17.77,26.738 C17.952,26.668 18.106,26.57 18.232,26.458 C18.736,25.926 19.338,25.016 20.052,23.728 C19.31,23.882 18.568,24.008 17.826,24.12 L17.574,23.21 C17.728,23.154 17.868,23.028 17.98,22.846 C18.68,21.586 19.296,20.158 19.8,18.534 Z M28.956,31.358 L28.354,31.358 L28.13,30.574 L28.69,30.602 C28.942,30.602 29.068,30.462 29.068,30.182 L29.068,28.292 L27.948,28.292 L27.948,31.162 L27.206,31.162 L27.206,28.292 L26.184,28.292 L26.184,31.162 L25.442,31.162 L25.442,28.292 L24.336,28.292 L24.336,31.414 L23.51,31.414 L23.51,24.75 L29.908,24.75 L29.908,30.378 C29.908,31.022 29.586,31.358 28.956,31.358 Z M24.336,27.452 L25.442,27.452 L25.442,25.618 L24.336,25.618 L24.336,27.452 Z M26.184,25.618 L26.184,27.452 L27.206,27.452 L27.206,25.618 L26.184,25.618 Z M27.948,25.618 L27.948,27.452 L29.068,27.452 L29.068,25.618 L27.948,25.618 Z M28.928,20.872 L23.468,20.872 L23.468,22.664 L28.928,22.664 L28.928,20.872 Z M23.468,23.532 C23.426,26.584 22.796,29.202 21.564,31.386 L20.836,30.742 C21.956,28.838 22.516,26.388 22.53,23.378 L22.53,19.976 L25.722,19.976 C25.54,19.5 25.344,19.052 25.12,18.66 L26.17,18.492 C26.352,18.926 26.534,19.416 26.702,19.976 L29.852,19.976 L29.852,23.532 L23.468,23.532 Z M35.83,23.084 C35.662,23.742 35.48,24.358 35.298,24.932 L42.816,24.932 C42.774,28.348 42.55,30.28 42.13,30.728 C41.78,31.106 41.024,31.302 39.862,31.316 L38.644,31.316 L38.364,30.378 C38.924,30.392 39.428,30.406 39.904,30.406 C40.66,30.392 41.136,30.252 41.36,30 C41.612,29.706 41.766,28.334 41.808,25.87 L34.024,25.87 C34.612,23.91 35.06,22.174 35.354,20.676 L36.348,20.774 C36.25,21.25 36.152,21.698 36.054,22.132 L41.766,22.132 L41.766,23.084 L35.83,23.084 Z M32.022,27.55 L40.422,27.55 L40.422,28.516 L32.022,28.516 L32.022,27.55 Z M43.586,19.15 L43.586,22.188 L42.592,22.188 L42.592,20.102 L33.408,20.102 L33.408,22.174 L32.414,22.174 L32.414,19.15 L43.586,19.15 Z M47.982,23.448 L47.982,25.898 L51.538,25.898 L51.538,23.448 L47.982,23.448 Z M47.926,26.822 C47.772,28.614 47.254,30.098 46.358,31.274 L45.588,30.588 C46.484,29.342 46.946,27.76 46.974,25.842 L46.974,19.122 L57.404,19.122 L57.404,29.608 C57.404,30.588 56.914,31.078 55.934,31.078 L54.324,31.078 L54.058,30.084 C54.618,30.112 55.136,30.14 55.612,30.14 C56.116,30.14 56.382,29.846 56.382,29.258 L56.382,26.822 L52.574,26.822 L52.574,30.924 L51.538,30.924 L51.538,26.822 L47.926,26.822 Z M56.382,25.898 L56.382,23.448 L52.574,23.448 L52.574,25.898 L56.382,25.898 Z M56.382,22.51 L56.382,20.102 L52.574,20.102 L52.574,22.51 L56.382,22.51 Z M51.538,20.102 L47.982,20.102 L47.982,22.51 L51.538,22.51 L51.538,20.102 Z M63.41,19.374 L68.016,19.374 L68.016,20.34 L65.468,20.34 C65.398,21.04 65.3,21.698 65.174,22.328 L67.75,22.328 L67.75,23.196 C67.246,27.074 65.832,29.79 63.536,31.358 L63.032,30.462 C64.152,29.692 65.034,28.614 65.678,27.242 C65.09,26.668 64.502,26.206 63.928,25.842 C63.648,26.332 63.354,26.78 63.032,27.186 L62.528,26.206 C63.62,24.778 64.278,22.818 64.502,20.34 L63.41,20.34 L63.41,19.374 Z M64.334,25.016 C64.95,25.38 65.524,25.814 66.07,26.29 C66.406,25.366 66.644,24.344 66.812,23.252 L64.95,23.252 C64.782,23.882 64.572,24.47 64.334,25.016 Z M70.564,31.302 L69.024,31.302 L68.8,30.336 C69.304,30.378 69.766,30.406 70.214,30.406 C70.62,30.406 70.83,30.196 70.83,29.776 L70.83,18.604 L71.838,18.604 L71.838,30.028 C71.838,30.868 71.404,31.302 70.564,31.302 Z M60.918,23.812 C60.568,24.344 60.204,24.848 59.812,25.324 L59.476,24.26 C60.708,22.58 61.604,20.662 62.164,18.492 L63.116,18.926 C62.808,20.032 62.402,21.068 61.926,22.048 L61.926,31.428 L60.918,31.428 L60.918,23.812 Z M68.618,19.892 L69.542,19.892 L69.542,28.572 L68.618,28.572 L68.618,19.892 Z" id="编写用例" fill="#444444" fill-rule="nonzero"></path>
                            </g>
                            <g id="分组-copy复制-5" transform="translate(0.000000, 100.000000)">
                                <g id="XMLID_134_">
                                    <use fill="black" fill-opacity="1" filter="url(#filter-8)" xlink:href="#path-7"></use>
                                    <use fill="#FFFFFF" fill-rule="evenodd" xlink:href="#path-7"></use>
                                </g>
                                <path d="M17.686,26.318 L26.212,26.318 L26.212,25.436 L27.22,25.436 L27.22,26.318 L30.3,26.318 L30.3,27.298 L27.22,27.298 L27.22,30.266 C27.22,31.05 26.786,31.442 25.946,31.442 L24.154,31.442 L23.93,30.448 C24.518,30.49 25.064,30.518 25.596,30.518 C26.002,30.518 26.212,30.35 26.212,30.014 L26.212,27.298 L17.686,27.298 L17.686,26.318 Z M28.186,19.108 L28.186,22.44 L20.164,22.44 L20.164,23.448 C20.164,23.826 20.374,24.022 20.766,24.022 L28.256,24.022 C28.536,24.008 28.718,23.91 28.83,23.742 C28.914,23.588 28.998,23.224 29.054,22.636 L30.006,22.944 C29.936,23.574 29.838,24.022 29.726,24.302 C29.53,24.722 29.138,24.932 28.55,24.96 L20.402,24.96 C19.562,24.96 19.156,24.568 19.156,23.812 L19.156,19.108 L28.186,19.108 Z M20.164,21.516 L27.178,21.516 L27.178,20.018 L20.164,20.018 L20.164,21.516 Z M20.906,27.718 C21.844,28.446 22.628,29.188 23.272,29.916 L22.516,30.672 C21.956,29.958 21.172,29.202 20.192,28.404 L20.906,27.718 Z M37.384,21.81 C36.74,20.634 35.97,19.738 35.074,19.094 L35.914,18.562 C37.16,19.43 38.21,21.012 39.078,23.28 C40.394,26.626 42.144,28.992 44.356,30.378 L43.726,31.19 C41.458,29.818 39.61,27.27 38.168,23.574 C38.084,23.35 38.014,23.154 37.944,22.986 C37.02,26.556 35.088,29.3 32.148,31.204 L31.546,30.35 C34.542,28.39 36.488,25.534 37.384,21.81 Z M47.982,23.448 L47.982,25.898 L51.538,25.898 L51.538,23.448 L47.982,23.448 Z M47.926,26.822 C47.772,28.614 47.254,30.098 46.358,31.274 L45.588,30.588 C46.484,29.342 46.946,27.76 46.974,25.842 L46.974,19.122 L57.404,19.122 L57.404,29.608 C57.404,30.588 56.914,31.078 55.934,31.078 L54.324,31.078 L54.058,30.084 C54.618,30.112 55.136,30.14 55.612,30.14 C56.116,30.14 56.382,29.846 56.382,29.258 L56.382,26.822 L52.574,26.822 L52.574,30.924 L51.538,30.924 L51.538,26.822 L47.926,26.822 Z M56.382,25.898 L56.382,23.448 L52.574,23.448 L52.574,25.898 L56.382,25.898 Z M56.382,22.51 L56.382,20.102 L52.574,20.102 L52.574,22.51 L56.382,22.51 Z M51.538,20.102 L47.982,20.102 L47.982,22.51 L51.538,22.51 L51.538,20.102 Z M63.41,19.374 L68.016,19.374 L68.016,20.34 L65.468,20.34 C65.398,21.04 65.3,21.698 65.174,22.328 L67.75,22.328 L67.75,23.196 C67.246,27.074 65.832,29.79 63.536,31.358 L63.032,30.462 C64.152,29.692 65.034,28.614 65.678,27.242 C65.09,26.668 64.502,26.206 63.928,25.842 C63.648,26.332 63.354,26.78 63.032,27.186 L62.528,26.206 C63.62,24.778 64.278,22.818 64.502,20.34 L63.41,20.34 L63.41,19.374 Z M64.334,25.016 C64.95,25.38 65.524,25.814 66.07,26.29 C66.406,25.366 66.644,24.344 66.812,23.252 L64.95,23.252 C64.782,23.882 64.572,24.47 64.334,25.016 Z M70.564,31.302 L69.024,31.302 L68.8,30.336 C69.304,30.378 69.766,30.406 70.214,30.406 C70.62,30.406 70.83,30.196 70.83,29.776 L70.83,18.604 L71.838,18.604 L71.838,30.028 C71.838,30.868 71.404,31.302 70.564,31.302 Z M60.918,23.812 C60.568,24.344 60.204,24.848 59.812,25.324 L59.476,24.26 C60.708,22.58 61.604,20.662 62.164,18.492 L63.116,18.926 C62.808,20.032 62.402,21.068 61.926,22.048 L61.926,31.428 L60.918,31.428 L60.918,23.812 Z M68.618,19.892 L69.542,19.892 L69.542,28.572 L68.618,28.572 L68.618,19.892 Z" id="导入用例" fill="#444444" fill-rule="nonzero"></path>
                            </g>
                        </g>
                        <g id="XMLID_25_复制-17" transform="translate(348.000000, 0.000000)">
                            <g id="分组-copy">
                                <g id="XMLID_134_">
                                    <use fill="black" fill-opacity="1" filter="url(#filter-10)" xlink:href="#path-9"></use>
                                    <use fill="#FFFFFF" fill-rule="evenodd" xlink:href="#path-9"></use>
                                </g>
                                <path d="M29.516,18.702 L30.02,19.598 C28.788,20.074 27.43,20.368 25.918,20.452 L25.918,23 L30.44,23 L30.44,23.966 L28.984,23.966 L28.984,31.442 L27.99,31.442 L27.99,23.966 L25.918,23.966 L25.918,25.632 C25.848,28.04 25.316,29.958 24.308,31.386 L23.594,30.63 C24.42,29.426 24.868,27.76 24.938,25.632 L24.938,19.64 C26.632,19.612 28.158,19.29 29.516,18.702 Z M17.854,19.78 L20.528,19.78 C20.332,19.332 20.122,18.926 19.884,18.562 L20.92,18.394 C21.13,18.814 21.326,19.276 21.522,19.78 L24.168,19.78 L24.168,20.704 L17.854,20.704 L17.854,19.78 Z M17.714,22.958 L19.324,22.958 C19.114,22.398 18.862,21.866 18.582,21.376 L19.478,21.054 C19.744,21.572 19.996,22.202 20.22,22.958 L21.76,22.958 C22.04,22.342 22.278,21.698 22.488,21.026 L23.398,21.334 C23.174,21.936 22.936,22.482 22.67,22.958 L24.252,22.958 L24.252,23.868 L21.55,23.868 L21.55,25.436 L24.014,25.436 L24.014,26.36 L21.55,26.36 L21.55,30.322 C21.55,31.078 21.144,31.456 20.332,31.456 L19.576,31.456 L19.366,30.518 C19.59,30.56 19.8,30.588 19.996,30.588 C20.36,30.588 20.542,30.42 20.542,30.084 L20.542,26.36 L17.938,26.36 L17.938,25.436 L20.542,25.436 L20.542,23.868 L17.714,23.868 L17.714,22.958 Z M18.918,27.116 L19.842,27.312 C19.478,28.726 18.96,29.958 18.316,31.008 L17.476,30.476 C18.134,29.468 18.61,28.348 18.918,27.116 Z M22.936,27.018 C23.356,27.928 23.692,28.754 23.916,29.51 L23.076,29.832 C22.81,28.95 22.488,28.082 22.096,27.242 L22.936,27.018 Z M31.686,22.3 L33.212,22.3 L33.212,18.632 L34.206,18.632 L34.206,22.3 L35.62,22.3 L35.62,23.252 L34.206,23.252 L34.206,27.9 C34.752,27.676 35.298,27.424 35.83,27.144 L35.83,28.152 C34.598,28.768 33.268,29.286 31.854,29.706 L31.602,28.712 C32.148,28.586 32.68,28.432 33.212,28.264 L33.212,23.252 L31.686,23.252 L31.686,22.3 Z M38.476,18.576 C38.672,19.094 38.882,19.682 39.078,20.354 L41.052,20.354 C41.304,19.752 41.486,19.122 41.598,18.478 L42.606,18.618 C42.466,19.234 42.284,19.822 42.046,20.354 L43.894,20.354 L43.894,25.072 L36.222,25.072 L36.222,20.354 L38.14,20.354 C37.944,19.766 37.72,19.234 37.468,18.744 L38.476,18.576 Z M43.012,24.246 L43.012,21.194 L40.422,21.194 L40.422,24.246 L43.012,24.246 Z M39.624,24.246 L39.624,21.194 L37.104,21.194 L37.104,24.246 L39.624,24.246 Z M38.378,21.768 C38.616,22.3 38.84,22.902 39.036,23.588 L38.378,23.756 C38.196,23.14 37.972,22.538 37.72,21.978 L38.378,21.768 Z M41.668,21.698 L42.354,21.866 C42.172,22.594 41.934,23.238 41.654,23.798 L41.01,23.56 C41.262,23.07 41.472,22.454 41.668,21.698 Z M43.39,26.01 L43.39,31.414 L42.424,31.414 L42.424,30.826 L37.748,30.826 L37.748,31.414 L36.782,31.414 L36.782,26.01 L43.39,26.01 Z M37.748,30 L42.424,30 L42.424,28.81 L37.748,28.81 L37.748,30 Z M37.748,28.026 L42.424,28.026 L42.424,26.836 L37.748,26.836 L37.748,28.026 Z M47.982,23.448 L47.982,25.898 L51.538,25.898 L51.538,23.448 L47.982,23.448 Z M47.926,26.822 C47.772,28.614 47.254,30.098 46.358,31.274 L45.588,30.588 C46.484,29.342 46.946,27.76 46.974,25.842 L46.974,19.122 L57.404,19.122 L57.404,29.608 C57.404,30.588 56.914,31.078 55.934,31.078 L54.324,31.078 L54.058,30.084 C54.618,30.112 55.136,30.14 55.612,30.14 C56.116,30.14 56.382,29.846 56.382,29.258 L56.382,26.822 L52.574,26.822 L52.574,30.924 L51.538,30.924 L51.538,26.822 L47.926,26.822 Z M56.382,25.898 L56.382,23.448 L52.574,23.448 L52.574,25.898 L56.382,25.898 Z M56.382,22.51 L56.382,20.102 L52.574,20.102 L52.574,22.51 L56.382,22.51 Z M51.538,20.102 L47.982,20.102 L47.982,22.51 L51.538,22.51 L51.538,20.102 Z M63.41,19.374 L68.016,19.374 L68.016,20.34 L65.468,20.34 C65.398,21.04 65.3,21.698 65.174,22.328 L67.75,22.328 L67.75,23.196 C67.246,27.074 65.832,29.79 63.536,31.358 L63.032,30.462 C64.152,29.692 65.034,28.614 65.678,27.242 C65.09,26.668 64.502,26.206 63.928,25.842 C63.648,26.332 63.354,26.78 63.032,27.186 L62.528,26.206 C63.62,24.778 64.278,22.818 64.502,20.34 L63.41,20.34 L63.41,19.374 Z M64.334,25.016 C64.95,25.38 65.524,25.814 66.07,26.29 C66.406,25.366 66.644,24.344 66.812,23.252 L64.95,23.252 C64.782,23.882 64.572,24.47 64.334,25.016 Z M70.564,31.302 L69.024,31.302 L68.8,30.336 C69.304,30.378 69.766,30.406 70.214,30.406 C70.62,30.406 70.83,30.196 70.83,29.776 L70.83,18.604 L71.838,18.604 L71.838,30.028 C71.838,30.868 71.404,31.302 70.564,31.302 Z M60.918,23.812 C60.568,24.344 60.204,24.848 59.812,25.324 L59.476,24.26 C60.708,22.58 61.604,20.662 62.164,18.492 L63.116,18.926 C62.808,20.032 62.402,21.068 61.926,22.048 L61.926,31.428 L60.918,31.428 L60.918,23.812 Z M68.618,19.892 L69.542,19.892 L69.542,28.572 L68.618,28.572 L68.618,19.892 Z" id="新增用例" fill="#444444" fill-rule="nonzero"></path>
                            </g>
                            <g id="分组-copy复制-5" transform="translate(0.000000, 100.000000)">
                                <g id="XMLID_134_">
                                    <use fill="black" fill-opacity="1" filter="url(#filter-12)" xlink:href="#path-11"></use>
                                    <use fill="#FFFFFF" fill-rule="evenodd" xlink:href="#path-11"></use>
                                </g>
                                <path d="M20.892,20.48 C20.682,20.816 20.458,21.138 20.22,21.446 L28.452,21.446 L28.452,25.87 L22.908,25.87 C22.698,26.206 22.46,26.514 22.208,26.822 L28.48,26.822 L28.48,27.55 C27.78,28.446 26.856,29.174 25.708,29.762 C27.052,30.154 28.564,30.378 30.216,30.434 L29.978,31.358 C27.934,31.26 26.1,30.91 24.504,30.294 C22.852,30.91 20.864,31.274 18.512,31.414 L18.106,30.532 C20.136,30.448 21.872,30.196 23.314,29.776 C22.362,29.314 21.508,28.754 20.752,28.096 C20.178,28.488 19.52,28.866 18.792,29.202 L18.274,28.348 C19.884,27.704 21.06,26.878 21.816,25.87 L20.024,25.87 L20.024,21.684 C19.548,22.23 19.016,22.734 18.4,23.196 L17.798,22.412 C19.24,21.32 20.22,20.004 20.738,18.436 L21.732,18.604 C21.62,18.94 21.494,19.276 21.354,19.598 L29.544,19.598 L29.544,20.48 L20.892,20.48 Z M24.518,29.37 C25.638,28.908 26.548,28.334 27.234,27.648 L21.48,27.648 C22.376,28.348 23.384,28.922 24.518,29.37 Z M27.472,25.058 L27.472,24.022 L21.018,24.022 L21.018,25.058 L27.472,25.058 Z M21.018,23.266 L27.472,23.266 L27.472,22.244 L21.018,22.244 L21.018,23.266 Z M33.982,23.448 L33.982,25.898 L37.538,25.898 L37.538,23.448 L33.982,23.448 Z M33.926,26.822 C33.772,28.614 33.254,30.098 32.358,31.274 L31.588,30.588 C32.484,29.342 32.946,27.76 32.974,25.842 L32.974,19.122 L43.404,19.122 L43.404,29.608 C43.404,30.588 42.914,31.078 41.934,31.078 L40.324,31.078 L40.058,30.084 C40.618,30.112 41.136,30.14 41.612,30.14 C42.116,30.14 42.382,29.846 42.382,29.258 L42.382,26.822 L38.574,26.822 L38.574,30.924 L37.538,30.924 L37.538,26.822 L33.926,26.822 Z M42.382,25.898 L42.382,23.448 L38.574,23.448 L38.574,25.898 L42.382,25.898 Z M42.382,22.51 L42.382,20.102 L38.574,20.102 L38.574,22.51 L42.382,22.51 Z M37.538,20.102 L33.982,20.102 L33.982,22.51 L37.538,22.51 L37.538,20.102 Z M47.982,23.448 L47.982,25.898 L51.538,25.898 L51.538,23.448 L47.982,23.448 Z M47.926,26.822 C47.772,28.614 47.254,30.098 46.358,31.274 L45.588,30.588 C46.484,29.342 46.946,27.76 46.974,25.842 L46.974,19.122 L57.404,19.122 L57.404,29.608 C57.404,30.588 56.914,31.078 55.934,31.078 L54.324,31.078 L54.058,30.084 C54.618,30.112 55.136,30.14 55.612,30.14 C56.116,30.14 56.382,29.846 56.382,29.258 L56.382,26.822 L52.574,26.822 L52.574,30.924 L51.538,30.924 L51.538,26.822 L47.926,26.822 Z M56.382,25.898 L56.382,23.448 L52.574,23.448 L52.574,25.898 L56.382,25.898 Z M56.382,22.51 L56.382,20.102 L52.574,20.102 L52.574,22.51 L56.382,22.51 Z M51.538,20.102 L47.982,20.102 L47.982,22.51 L51.538,22.51 L51.538,20.102 Z M63.41,19.374 L68.016,19.374 L68.016,20.34 L65.468,20.34 C65.398,21.04 65.3,21.698 65.174,22.328 L67.75,22.328 L67.75,23.196 C67.246,27.074 65.832,29.79 63.536,31.358 L63.032,30.462 C64.152,29.692 65.034,28.614 65.678,27.242 C65.09,26.668 64.502,26.206 63.928,25.842 C63.648,26.332 63.354,26.78 63.032,27.186 L62.528,26.206 C63.62,24.778 64.278,22.818 64.502,20.34 L63.41,20.34 L63.41,19.374 Z M64.334,25.016 C64.95,25.38 65.524,25.814 66.07,26.29 C66.406,25.366 66.644,24.344 66.812,23.252 L64.95,23.252 C64.782,23.882 64.572,24.47 64.334,25.016 Z M70.564,31.302 L69.024,31.302 L68.8,30.336 C69.304,30.378 69.766,30.406 70.214,30.406 C70.62,30.406 70.83,30.196 70.83,29.776 L70.83,18.604 L71.838,18.604 L71.838,30.028 C71.838,30.868 71.404,31.302 70.564,31.302 Z M60.918,23.812 C60.568,24.344 60.204,24.848 59.812,25.324 L59.476,24.26 C60.708,22.58 61.604,20.662 62.164,18.492 L63.116,18.926 C62.808,20.032 62.402,21.068 61.926,22.048 L61.926,31.428 L60.918,31.428 L60.918,23.812 Z M68.618,19.892 L69.542,19.892 L69.542,28.572 L68.618,28.572 L68.618,19.892 Z" id="复用用例" fill="#444444" fill-rule="nonzero"></path>
                            </g>
                        </g>
                        <g id="分组" transform="translate(311.500000, 75.000000) rotate(-180.000000) translate(-311.500000, -75.000000) translate(285.000000, 20.000000)">
                            <polygon id="Fill-3" fill="#878787" transform="translate(2.500000, 105.500000) rotate(-180.000000) translate(-2.500000, -105.500000) " points="0 110 5 105.5 0 101"></polygon>
                            <polygon id="Fill-3复制" fill="#878787" transform="translate(2.500000, 4.500000) rotate(-180.000000) translate(-2.500000, -4.500000) " points="0 9 5 4.5 0 3.18323146e-12"></polygon>
                            <path d="M52.5,54.5 L26.5102761,54.5" id="Stroke-5" stroke="#878787"></path>
                            <path d="M27,4.5 L5,4.5" id="Stroke-6" stroke="#878787"></path>
                            <polyline id="Stroke-7" stroke="#878787" points="5 105 26.9900273 104.925564 27 4"></polyline>
                        </g>
                        <g id="分组复制-6" transform="translate(91.000000, 23.000000)">
                            <polygon id="Fill-3" fill="#878787" transform="translate(49.500000, 51.500000) rotate(-360.000000) translate(-49.500000, -51.500000) " points="47 56 52 51.5 47 47"></polygon>
                            <path d="M51.5,51.5 L25.5102761,51.5" id="Stroke-5" stroke="#878787"></path>
                            <path d="M26,1.5 L0.148142253,1.5" id="Stroke-6" stroke="#878787"></path>
                            <polyline id="Stroke-7" stroke="#878787" points="0 102 25.9882141 101.925564 26 1"></polyline>
                        </g>
                        <g id="分组复制-7" transform="translate(438.000000, 23.000000)">
                            <polygon id="Fill-3" fill="#878787" transform="translate(49.500000, 51.500000) rotate(-360.000000) translate(-49.500000, -51.500000) " points="47 56 52 51.5 47 47"></polygon>
                            <path d="M51.5,51.5 L25.5102761,51.5" id="Stroke-5" stroke="#878787"></path>
                            <path d="M26,1.5 L0.148142253,1.5" id="Stroke-6" stroke="#878787"></path>
                            <polyline id="Stroke-7" stroke="#878787" points="0 102 25.9882141 101.925564 26 1"></polyline>
                        </g>
                    </g>
                </g>
            </g>
        </g>
    </g>
</svg>