<?xml version="1.0" encoding="UTF-8"?>
<svg width="48px" height="48px" viewBox="0 0 48 48" version="1.1" xmlns="http://www.w3.org/2000/svg" xmlns:xlink="http://www.w3.org/1999/xlink">
    <!-- Generator: Sketch 52.2 (67145) - http://www.bohemiancoding.com/sketch -->
    <title>录音-48x48</title>
    <desc>Created with Sketch.</desc>
    <g id="录音-48x48" stroke="none" stroke-width="1" fill="none" fill-rule="evenodd">
        <circle id="Oval-18-Copy-2" fill="#00A4FF" cx="26" cy="22" r="9"></circle>
        <path d="M28.3864748,33.3442514 L24.5787105,37.152146 C24.5787105,37.152146 20.7719479,34.8473677 16.9661871,31.0394731 C13.1594245,27.2315785 10.8553314,23.4236839 10.8553314,23.4236839 L14.662094,19.6157892 L7.04756702,12 L3.24080444,15.8078946 L1.738135,17.3110109 C-0.766314064,19.8162047 3.24080444,28.0332405 11.6567551,36.350484 C20.0707022,44.6677275 28.1861189,48.7762454 30.690568,46.2710516 L32.1932374,44.7679353 L36,40.9600407 L28.3864748,33.3442514 Z" id="Stroke-1" stroke="#334966" stroke-width="2"></path>
        <circle id="Oval-19" stroke="#334966" stroke-width="2" cx="35" cy="13" r="12"></circle>
        <rect id="Rectangle-46" fill="#334966" x="34" y="7" width="2" height="12"></rect>
        <polygon id="Rectangle-46-Copy" fill="#334966" points="30 9 32 9 32 17 30 17"></polygon>
        <polygon id="Rectangle-46-Copy-2" fill="#334966" points="38 9 40 9 40 17 38 17"></polygon>
        <rect id="Rectangle-46-Copy-3" fill="#334966" x="42" y="11" width="2" height="4"></rect>
        <rect id="Rectangle-46-Copy-4" fill="#334966" x="26" y="11" width="2" height="4"></rect>
    </g>
</svg>