<?xml version="1.0" encoding="UTF-8"?>
<svg width="32px" height="32px" viewBox="0 0 32 32" version="1.1" xmlns="http://www.w3.org/2000/svg" xmlns:xlink="http://www.w3.org/1999/xlink">
    <!-- Generator: Sketch 54 (76480) - https://sketchapp.com -->
    <title>Artboard Copy</title>
    <desc>Created with Sketch.</desc>
    <g id="Artboard-Copy" stroke="none" stroke-width="1" fill="none" fill-rule="evenodd">
        <g id="Group" transform="translate(1.000000, 2.000000)" fill="#00A4FF" fill-rule="nonzero">
            <path d="M8.60916913,14 L11.1176471,14 L17,24 L27,7 L12.9320273,7 L11.8737593,5.06236476 L29.0189094,5.06236476 C29.1967992,5.06236476 29.3713406,5.11078198 29.5238524,5.20243425 C29.9883238,5.48155941 30.1387817,6.08470503 29.8599094,6.5495977 L17.840926,26.5857853 C17.7581467,26.7237822 17.6427408,26.8392928 17.5048689,26.9221472 C17.0403975,27.2012723 16.4377983,27.050678 16.158926,26.5857853 L8.60916913,14 Z M0.479988051,12 C0.400570642,12 0.322394655,11.9805177 0.252469921,11.9433001 C0.0191110182,11.8190943 -0.0682004132,11.5314123 0.0574543805,11.3007444 L6.07751286,0.249558578 C6.12203629,0.167825704 6.18984203,0.100801857 6.2725284,0.0567918485 C6.5058873,-0.0674139639 6.79692541,0.0188906406 6.9225802,0.249558578 L12.9426387,11.3007444 C12.9802905,11.3698628 13,11.4471373 13,11.5256389 C13,11.7876213 12.7851437,12 12.520105,12 L0.479988051,12 Z M3,10 L10,10 L6.5,3 L3,10 Z" id="Combined-Shape"></path>
        </g>
    </g>
</svg>