<?xml version="1.0" encoding="UTF-8"?>
<svg width="32px" height="32px" viewBox="0 0 32 32" version="1.1" xmlns="http://www.w3.org/2000/svg" xmlns:xlink="http://www.w3.org/1999/xlink">
    <!-- Generator: Sketch 49.3 (51167) - http://www.bohemiancoding.com/sketch -->
    <title>ic7_platform</title>
    <desc>Created with Sketch.</desc>
    <defs></defs>
    <g id="ic7_platform" stroke="none" stroke-width="1" fill="none" fill-rule="evenodd">
        <path d="M6,14.8767199 L6,21.1446705 L13,26.1232801 L13,19.8553295 L6,14.8767199 Z M4,11 L15,18.8235294 L15,30 L4,22.1764706 L4,11 Z M26,14.8767199 L19,19.8553295 L19,26.1232801 L26,21.1446705 L26,14.8767199 Z M28,11 L28,22.1764706 L17,30 L17,18.8235294 L28,11 Z M7.96926971,9 L16,13.6845927 L24.0307303,9 L16,4.31540733 L7.96926971,9 Z M4,9 L16,2 L28,9 L16,16 L4,9 Z" id="Combined-Shape" fill="#FFFFFF" fill-rule="nonzero"></path>
    </g>
</svg>