<?xml version="1.0" encoding="UTF-8"?>
<svg width="32px" height="32px" viewBox="0 0 32 32" version="1.1" xmlns="http://www.w3.org/2000/svg" xmlns:xlink="http://www.w3.org/1999/xlink">
    <!-- Generator: Sketch 52.6 (67491) - http://www.bohemiancoding.com/sketch -->
    <title>腾讯会议-32px-灰</title>
    <desc>Created with Sketch.</desc>
    <g id="腾讯会议-32px-灰" stroke="none" stroke-width="1" fill="none" fill-rule="evenodd">
        <rect id="Rectangle-Copy" fill="#444444" opacity="0" x="0" y="0" width="32" height="32"></rect>
        <g id="tm" transform="translate(1.000000, 1.000000)" fill="#7C848E" fill-rule="nonzero">
            <path d="M25.87,15 C28.332,13.636 30,11.014 30,8 C30,3.582 26.418,0 22,0 C18.986,0 16.364,1.668 15,4.13 C13.636,1.668 11.014,0 8,0 C3.582,0 0,3.582 0,8 C0,11.014 1.668,13.636 4.13,15 C1.668,16.364 0,18.986 0,22 C0,26.418 3.582,30 8,30 C11.014,30 13.636,28.332 15,25.87 C16.364,28.332 18.986,30 22,30 C26.418,30 30,26.418 30,22 C30,18.986 28.332,16.364 25.87,15 Z M21,13.91 C18.493,13.487 16.514,11.507 16.09,9 L21,9 L21,13.91 Z M18.13,15 C16.815,15.728 15.728,16.815 15,18.13 C14.272,16.815 13.185,15.728 11.87,15 C13.185,14.272 14.272,13.185 15,11.87 C15.728,13.185 16.815,14.272 18.13,15 Z M9,13.91 L9,9 L13.91,9 C13.486,11.507 11.507,13.486 9,13.91 Z M9,16.09 C11.507,16.513 13.486,18.493 13.91,21 L9,21 L9,16.09 Z M21,16.09 L21,21 L16.09,21 C16.514,18.493 18.493,16.514 21,16.09 Z M22,2 C25.308,2 28,4.692 28,8 C28,10.967 25.833,13.431 23,13.91 L23,7 L16.09,7 C16.569,4.167 19.033,2 22,2 Z M2,8 C2,4.692 4.692,2 8,2 C10.967,2 13.431,4.167 13.91,7 L7,7 L7,13.91 C4.167,13.431 2,10.967 2,8 Z M8,28 C4.692,28 2,25.308 2,22 C2,19.033 4.167,16.569 7,16.09 L7,23 L13.91,23 C13.431,25.833 10.967,28 8,28 Z M22,28 C19.033,28 16.569,25.833 16.09,23 L23,23 L23,16.09 C25.833,16.568 28,19.033 28,22 C28,25.308 25.308,28 22,28 Z" id="Shape"></path>
        </g>
    </g>
</svg>