<?xml version="1.0" encoding="UTF-8"?>
<svg width="32px" height="32px" viewBox="0 0 32 32" version="1.1" xmlns="http://www.w3.org/2000/svg" xmlns:xlink="http://www.w3.org/1999/xlink">
    <!-- Generator: Sketch 52.6 (67491) - http://www.bohemiancoding.com/sketch -->
    <title>数据安全-32px</title>
    <desc>Created with Sketch.</desc>
    <g id="数据安全-32px" stroke="none" stroke-width="1" fill="none" fill-rule="evenodd">
        <rect id="Rectangle-Copy" fill="#444444" opacity="0" x="0" y="0" width="32" height="32"></rect>
        <g id="Group" transform="translate(3.000000, 2.000000)" fill="#00A4FF">
            <path d="M24,6 L24,15.2 C24,15.2 24,17.5 22.6,20 C20.8,23.4 17.5,25.7 13,26.9 C2.3,24.3 2,15.6 2,15.2 L2,2 L22,2 L24,2 L26,2 L26,0 L0,0 L0,15.2 C0,15.2 0.1,26 13,29 C25.9,26 26,15.2 26,15.2 L26,6 L24,6 Z" id="Shape" fill-rule="nonzero"></path>
            <circle id="Oval" fill-rule="nonzero" cx="8" cy="8" r="2"></circle>
            <circle id="Oval" fill-rule="nonzero" cx="18" cy="18" r="2"></circle>
            <path d="M17.3454854,19.718032 C16.0942446,20.5290485 14.6021206,21 13,21 C8.581722,21 5,17.418278 5,13 C5,11.9655077 5.19635426,10.9768764 5.55382639,10.0693425 C5.98140572,10.5989256 6.62073874,10.9504308 7.34312518,10.995158 C7.12093019,11.6220836 7,12.2969194 7,13 C7,16.3137085 9.6862915,19 13,19 C14.1279826,19 15.1832655,18.6887357 16.0846417,18.1474142 C16.2671934,18.8301977 16.7315591,19.3978214 17.3454854,19.718032 Z M20.4461736,15.9306575 C20.0185943,15.4010744 19.3792613,15.0495692 18.6568748,15.004842 C18.8790698,14.3779164 19,13.7030806 19,13 C19,9.6862915 16.3137085,7 13,7 C11.8720174,7 10.8167345,7.31126432 9.91535834,7.85258583 C9.73280658,7.16980234 9.2684409,6.60217862 8.65451463,6.28196801 C9.90575541,5.47095153 11.3978794,5 13,5 C17.418278,5 21,8.581722 21,13 C21,14.0344923 20.8036457,15.0231236 20.4461736,15.9306575 Z" id="Combined-Shape"></path>
        </g>
    </g>
</svg>