<?xml version="1.0" encoding="utf-8"?>
<!-- Generator: Adobe Illustrator 22.1.0, SVG Export Plug-In . SVG Version: 6.00 Build 0)  -->
<svg version="1.1" id="图层_1" xmlns="http://www.w3.org/2000/svg" xmlns:xlink="http://www.w3.org/1999/xlink" x="0px" y="0px"
	 width="830px" height="238px" viewBox="0 0 830 238" style="enable-background:new 0 0 830 238;" xml:space="preserve">
<style type="text/css">
	.st0{fill:#EAEBEC;}
	.st1{opacity:0.6;fill:#BBBBBB;enable-background:new    ;}
	.st2{fill:#FFFFFF;stroke:#E5E5E5;}
	.st3{fill:#444444;}
	.st4{fill:#878787;}
	.st5{fill:none;stroke:#878787;stroke-miterlimit:10;}
</style>
<rect x="574" class="st0" width="256" height="237"/>
<g id="RectEndPoint2_8_" transform="translate(179.01953125,177)">
	<g>
		<rect x="411" y="-135.5" class="st1" width="226" height="80.5"/>
		<rect x="407.5" y="-138.7" class="st2" width="228" height="81.5"/>
	</g>
</g>
<g id="RectEndPoint2_9_" transform="translate(179.01953125,177)">
	<g>
		<rect x="411" y="-33.5" class="st1" width="226" height="80.5"/>
		<rect x="407.5" y="-36.7" class="st2" width="228" height="81.5"/>
	</g>
</g>
<rect x="401" class="st0" width="123" height="237"/>
<rect x="190" class="st0" width="158" height="237"/>
<g id="RectEndPoint2_2_" transform="translate(179.01953125,177)">
	<g>
		<rect x="25.5" y="-136.9" class="st1" width="129.5" height="46.2"/>
		<rect x="23.5" y="-138.7" class="st2" width="129.5" height="46.2"/>
	</g>
</g>
<g id="RectEndPoint2_3_" transform="translate(179.01953125,177)">
	<g>
		<rect x="25.5" y="-67.9" class="st1" width="129.5" height="46.2"/>
		<rect x="23.5" y="-69.7" class="st2" width="129.5" height="46.2"/>
	</g>
</g>
<g id="RectEndPoint2_4_" transform="translate(179.01953125,177)">
	<g>
		<rect x="25.5" y="1.1" class="st1" width="129.5" height="46.2"/>
		<rect x="23.5" y="-0.7" class="st2" width="129.5" height="46.2"/>
	</g>
</g>
<g id="RectEndPoint2_7_" transform="translate(179.01953125,177)">
	<g>
		<rect x="235" y="-136.9" class="st1" width="97" height="46.2"/>
		<rect x="233.5" y="-138.7" class="st2" width="97" height="46.2"/>
	</g>
</g>
<g id="RectEndPoint2_6_" transform="translate(179.01953125,177)">
	<g>
		<rect x="235" y="-67.9" class="st1" width="97" height="46.2"/>
		<rect x="233.5" y="-69.7" class="st2" width="97" height="46.2"/>
	</g>
</g>
<g id="RectEndPoint2_5_" transform="translate(179.01953125,177)">
	<g>
		<rect x="235" y="1.1" class="st1" width="97" height="46.2"/>
		<rect x="233.5" y="-0.7" class="st2" width="97" height="46.2"/>
	</g>
</g>
<g id="RectEndPoint2_1_" transform="translate(179.01953125,177)">
	<g>
		<rect x="-176.6" y="-64.9" class="st1" width="121.6" height="46.2"/>
		<rect x="-178.5" y="-66.7" class="st2" width="121.6" height="46.2"/>
	</g>
</g>
<g>
	<path class="st3" d="M69.6,140.2l-1.1-1c0.8-1.2,1.2-2.7,1.3-4.5v-6.9h10.9v10.6c0,1.1-0.6,1.6-1.7,1.6h-1.6l-0.4-1.4
		c0.6,0.1,1.1,0.1,1.5,0.1s0.6-0.3,0.6-0.8V136h-3.3v3.9h-1.5V136h-3.2C71,137.6,70.5,139.1,69.6,140.2z M71.2,129.2v2h3.1v-2H71.2z
		 M71.2,134.5h3.1v-2h-3.1V134.5z M79.1,129.2h-3.3v2h3.3V129.2z M79.1,132.5h-3.3v2h3.3V132.5z"/>
	<path class="st3" d="M83.5,140.4l-1.1-1c1-1.5,1.6-3.4,1.6-5.8V129h4.5c-0.2-0.5-0.5-1-0.7-1.4l1.6-0.3c0.2,0.5,0.4,1.1,0.7,1.7
		h4.4v5.1h-9C85.3,136.5,84.7,138.6,83.5,140.4z M85.4,130.4v2.2h7.5v-2.2H85.4z"/>
</g>
<g>
	<g>
		<path class="st4" d="M38,123c2.2,0,4,1.8,4,4s-1.8,4-4,4s-4-1.8-4-4S35.8,123,38,123 M38,121c-3.3,0-6,2.7-6,6s2.7,6,6,6
			s6-2.7,6-6S41.3,121,38,121L38,121z"/>
	</g>
	<g>
		<path class="st4" d="M42,137c3.3,0,6,2.7,6,6v1H28v-1c0-3.3,2.7-6,6-6H42 M42,135h-8c-4.4,0-8,3.6-8,8v3h24v-3
			C50,138.6,46.4,135,42,135L42,135z"/>
	</g>
	<path class="st4" d="M51,135h-3c0.8,0.6,1.4,1.2,2,2h1c2.2,0,4,1.8,4,4v1h-3c0,0.3,0,0.7,0,1v1h5v-3C57,137.7,54.3,135,51,135z"/>
	<path class="st4" d="M47,122c-0.8,0-1.6,0.2-2.3,0.6c0.4,0.6,0.7,1.2,0.9,1.8c0.4-0.2,0.9-0.4,1.4-0.4c1.7,0,3,1.3,3,3s-1.3,3-3,3
		c-0.5,0-1-0.1-1.4-0.4c-0.2,0.6-0.5,1.2-0.9,1.8c0.7,0.4,1.5,0.6,2.3,0.6c2.8,0,5-2.2,5-5S49.8,122,47,122z"/>
</g>
<g>
	<path class="st3" d="M245.2,63.8c-0.1,0.2-0.2,0.4-0.2,0.6h2.8v1.2c-0.2,0.8-0.7,1.5-1.3,2.2c0.5,0.2,1.1,0.5,1.6,0.8l-0.8,1.1
		c-0.5-0.3-1.2-0.7-1.9-1c-0.9,0.6-2.1,1.1-3.5,1.4l-0.7-1.2c1-0.2,1.9-0.5,2.6-0.9c-0.6-0.2-1.2-0.5-1.8-0.7
		c0.3-0.6,0.6-1.1,0.9-1.6h-1.4v-1.2h1.9c0.1-0.3,0.2-0.5,0.3-0.8L245.2,63.8z M244.2,59.7v-2.5h1.3v2.5h2.4V61h-2.4l0,0
		c0.7,0.3,1.5,0.6,2.2,1l-0.8,1.1c-0.6-0.5-1.1-0.8-1.5-1.1v1.5h-1.3v-2.2c-0.5,1-1.2,1.8-2.2,2.5l-0.7-1.2c0.9-0.5,1.6-1.1,2-1.7
		h-1.7v-1.3C241.6,59.7,244.2,59.7,244.2,59.7z M243.8,59l-1,0.5c-0.3-0.7-0.6-1.3-0.9-1.8l1.1-0.4C243.3,57.8,243.5,58.4,243.8,59z
		 M246.5,65.6h-2.1c-0.2,0.4-0.4,0.7-0.6,1.1c0.4,0.1,0.9,0.3,1.3,0.5C245.8,66.7,246.2,66.2,246.5,65.6z M247.9,57.8
		c-0.3,0.6-0.6,1.2-1.1,1.7l-1-0.5c0.4-0.6,0.8-1.1,1.1-1.7L247.9,57.8z M249.3,63.1c-0.2,0.5-0.4,0.9-0.7,1.3l-0.9-1.1
		c0.8-1.5,1.3-3.6,1.6-6.2l1.4,0.3c-0.1,0.6-0.2,1.2-0.3,1.7h3.5v1.4h-0.8c-0.1,2.3-0.5,4.2-1.2,5.8c0.7,1.1,1.5,2,2.4,2.6l-0.8,1.2
		c-0.9-0.6-1.6-1.5-2.3-2.5c-0.7,1-1.5,1.8-2.4,2.5l-0.8-1.2c1-0.7,1.8-1.5,2.4-2.6C250,65.3,249.6,64.3,249.3,63.1z M250,61.1
		c0.3,1.4,0.7,2.6,1.1,3.7c0.4-1.2,0.7-2.6,0.7-4.2h-1.7C250.1,60.7,250,60.9,250,61.1z"/>
	<path class="st3" d="M255.9,70l-0.3-1.4c0.4,0.1,0.7,0.1,1,0.1s0.4-0.2,0.4-0.5v-2.8c-0.5,0.2-0.9,0.3-1.4,0.5l-0.4-1.4
		c0.6-0.1,1.2-0.3,1.8-0.5v-2.8h-1.5v-1.4h1.5v-2.5h1.4v2.5h1.2v1.4h-1.2v2.2c0.4-0.2,0.8-0.4,1.1-0.6v1.4c-0.4,0.2-0.8,0.4-1.1,0.6
		v3.8c0,1-0.5,1.4-1.4,1.4H255.9L255.9,70z M259.9,70.1l-1.1-1c0.9-1.8,1.4-4.1,1.4-6.9v-4.7h7.7v3.7h-2.5v1.3h2.8v1.3h-2.8v1.3h2.2
		v4.8h-1.3v-0.6H263v0.6h-1.3v-4.8h2.2v-1.3h-2.4C261.3,66.3,260.8,68.3,259.9,70.1z M261.6,61.3v0.9c0,0.1,0,0.3,0,0.4h2.3v-1.3
		C263.9,61.3,261.6,61.3,261.6,61.3z M261.6,58.9V60h4.8v-1.1H261.6z M266.2,68.2v-1.7H263v1.7H266.2z"/>
	<path class="st3" d="M272.1,59.3v-0.5h-2.6v-1.1h2.6v-0.6h1.3v0.6h2.5v1.1h-2.5v0.5h2.2v1.1c0.8-0.9,1.3-2,1.6-3.3l1.3,0.2
		c-0.1,0.3-0.2,0.6-0.2,0.9h3.6v1.2h-0.7c-0.2,1.1-0.6,2.1-1.2,2.8c0.6,0.4,1.3,0.7,2.1,0.9l-0.8,1.1c-0.9-0.3-1.7-0.7-2.4-1.1
		c-0.7,0.4-1.5,0.8-2.6,1.1l-0.5-1.2c0.8-0.2,1.5-0.5,2-0.8c-0.4-0.4-0.8-0.9-1.1-1.4c-0.2,0.2-0.4,0.4-0.5,0.6l-0.8-1V62h-2.2l0,0
		c0.8,0.3,1.6,0.6,2.4,1l-0.7,1.1c-0.6-0.5-1.2-0.9-1.6-1.2v1.3H272v-1.3c-0.7,0.6-1.5,1.1-2.2,1.4l-0.6-1.1
		c0.9-0.3,1.8-0.7,2.7-1.2h-2v-2.7C269.9,59.3,272.1,59.3,272.1,59.3z M270.2,65.8v-1.3h11.2v1.3h-5v0.8h4.1v1.2h-4.1v0.8h5.6v1.3
		h-12.6v-1.3h2.1v-2.3h1.3v2.3h2v-2.8H270.2L270.2,65.8z M272.1,60.3h-1V61h1V60.3z M274.4,60.3h-1V61h1V60.3z M278.9,61.5
		c0.4-0.5,0.8-1.2,0.9-2.1h-2.1l-0.2,0.3C277.9,60.4,278.4,61,278.9,61.5z"/>
	<path class="st3" d="M290.3,57.1c1.8,2,3.8,3.5,6.1,4.6l-0.8,1.4c-0.7-0.4-1.4-0.8-2.1-1.3v1H286v-1c-0.7,0.5-1.4,0.9-2.1,1.3
		l-0.8-1.4c2.5-1.2,4.5-2.8,6.1-4.7L290.3,57.1L290.3,57.1z M294.4,70.1H293v-0.7h-6.4v0.7h-1.4v-5.9h9.2L294.4,70.1L294.4,70.1z
		 M293,68v-2.4h-6.4V68H293z M292.9,61.4c-1.1-0.9-2.2-1.9-3.1-3c-0.9,1.1-1.9,2.1-3.1,3H292.9z"/>
</g>
<g>
	<path class="st3" d="M245.2,132.3c-0.1,0.2-0.2,0.4-0.2,0.6h2.8v1.2c-0.2,0.8-0.7,1.5-1.3,2.2c0.5,0.2,1.1,0.5,1.6,0.8l-0.8,1.1
		c-0.5-0.3-1.2-0.7-1.9-1c-0.9,0.6-2.1,1.1-3.5,1.4l-0.7-1.2c1-0.2,1.9-0.5,2.6-0.9c-0.6-0.2-1.2-0.5-1.8-0.7
		c0.3-0.6,0.6-1.1,0.9-1.6h-1.4V133h1.9c0.1-0.3,0.2-0.5,0.3-0.8L245.2,132.3z M244.2,128.2v-2.5h1.3v2.5h2.4v1.3h-2.4l0,0
		c0.7,0.3,1.5,0.6,2.2,1l-0.8,1.1c-0.6-0.5-1.1-0.8-1.5-1.1v1.5h-1.3v-2.2c-0.5,1-1.2,1.8-2.2,2.5l-0.7-1.2c0.9-0.5,1.6-1.1,2-1.7
		h-1.7v-1.3L244.2,128.2L244.2,128.2z M243.8,127.5l-1,0.5c-0.3-0.7-0.6-1.3-0.9-1.8l1.1-0.4C243.3,126.3,243.5,126.9,243.8,127.5z
		 M246.5,134.1h-2.1c-0.2,0.4-0.4,0.7-0.6,1.1c0.4,0.1,0.9,0.3,1.3,0.5C245.8,135.2,246.2,134.7,246.5,134.1z M247.9,126.3
		c-0.3,0.6-0.6,1.2-1.1,1.7l-1-0.5c0.4-0.6,0.8-1.1,1.1-1.7L247.9,126.3z M249.3,131.6c-0.2,0.5-0.4,0.9-0.7,1.3l-0.9-1.1
		c0.8-1.5,1.3-3.6,1.6-6.2l1.4,0.3c-0.1,0.6-0.2,1.2-0.3,1.7h3.5v1.4h-0.8c-0.1,2.3-0.5,4.2-1.2,5.8c0.7,1.1,1.5,2,2.4,2.6l-0.8,1.2
		c-0.9-0.6-1.6-1.5-2.3-2.5c-0.7,1-1.5,1.8-2.4,2.5l-0.8-1.2c1-0.7,1.8-1.5,2.4-2.6C250,133.8,249.6,132.8,249.3,131.6z M250,129.6
		c0.3,1.4,0.7,2.6,1.1,3.7c0.4-1.2,0.7-2.6,0.7-4.2h-1.7C250.1,129.2,250,129.4,250,129.6z"/>
	<path class="st3" d="M255.9,138.5l-0.3-1.4c0.4,0.1,0.7,0.1,1,0.1s0.4-0.2,0.4-0.5v-2.8c-0.5,0.2-0.9,0.3-1.4,0.5l-0.4-1.4
		c0.6-0.1,1.2-0.3,1.8-0.5v-2.8h-1.5v-1.4h1.5v-2.5h1.4v2.5h1.2v1.4h-1.2v2.2c0.4-0.2,0.8-0.4,1.1-0.6v1.4c-0.4,0.2-0.8,0.4-1.1,0.6
		v3.8c0,1-0.5,1.4-1.4,1.4H255.9L255.9,138.5z M259.9,138.6l-1.1-1c0.9-1.8,1.4-4.1,1.4-6.9V126h7.7v3.7h-2.5v1.3h2.8v1.3h-2.8v1.3
		h2.2v4.8h-1.3V138H263v0.6h-1.3v-4.8h2.2v-1.3h-2.4C261.3,134.8,260.8,136.8,259.9,138.6z M261.6,129.8v0.9c0,0.1,0,0.3,0,0.4h2.3
		v-1.3L261.6,129.8L261.6,129.8z M261.6,127.4v1.1h4.8v-1.1H261.6z M266.2,136.7V135H263v1.7H266.2z"/>
	<path class="st3" d="M272.6,129.3l-1.2,0.8c-0.5-1-1.2-2.1-2.1-3.4l1.3-0.8C271.5,127.2,272.2,128.3,272.6,129.3z M272.7,132.7
		c-0.6,2.1-1.2,4-1.9,5.9l-1.4-0.6c0.8-1.9,1.4-3.8,2-5.8L272.7,132.7z M275.3,138.6h-1.4V131c-0.3,0.5-0.7,1-1.1,1.4l-0.5-1.5
		c1.1-1.6,2-3.4,2.4-5.3l1.4,0.3c-0.2,0.7-0.4,1.3-0.7,2h2.5c-0.2-0.7-0.5-1.3-0.7-2l1.4-0.4c0.3,0.9,0.5,1.7,0.7,2.4h2.5v1.4h-2.7
		v1.5h2.4v1.3h-2.4v1.5h2.5v1.3h-2.5v1.6h3v1.4h-6.9v0.7L275.3,138.6L275.3,138.6z M275.3,129.2v1.5h2.5v-1.5H275.3z M275.3,133.5
		h2.5V132h-2.5V133.5z M275.3,136.5h2.5v-1.6h-2.5V136.5z"/>
	<path class="st3" d="M296.2,131.3l-0.6,1.3c-0.4-0.1-0.8-0.1-1.2-0.2v6.2H293v-0.5h-6.4v0.5h-1.4v-6.2c-0.4,0.1-0.8,0.2-1.2,0.2
		l-0.6-1.3c1.9-0.3,3.6-0.7,5.1-1.3c-0.7-0.4-1.3-0.9-1.8-1.4c-0.6,0.5-1.2,1-1.8,1.4l-0.9-1.1c1.4-0.8,2.7-2,3.8-3.5l1.4,0.3
		c-0.2,0.3-0.3,0.5-0.5,0.7h5.4v1.1c-0.8,1-1.7,1.8-2.8,2.5C292.6,130.6,294.3,131,296.2,131.3z M289.8,130.9c-1.2,0.6-2.5,1-4,1.4
		h8.2C292.4,131.9,291,131.5,289.8,130.9z M289.1,134.6v-1.1h-2.5v1.1H289.1z M289.1,136.9v-1.1h-2.5v1.1H289.1z M289.8,129.4
		c0.9-0.5,1.7-1.1,2.4-1.7h-4.6l-0.1,0.1C288.2,128.4,288.9,129,289.8,129.4z M290.4,134.6h2.5v-1.1h-2.5V134.6z M293,136.9v-1.1
		h-2.5v1.1H293z"/>
</g>
<g>
	<path class="st3" d="M223.8,202.5c0-0.4,0-0.8,0-1.3h1.5c0,0.5,0,1,0,1.3h3.2v-1.3h1.5v1.3h3.3v1.3H230v3.2h-1.5v-3.2H225
		c-0.4,1.6-1.4,2.7-3.1,3.3l-0.8-1.3c1.3-0.3,2.1-1,2.4-2h-3.3v-1.3H223.8z M231.1,198.2h-8v0.6c0,0.4,0.2,0.6,0.6,0.6h7.3
		c0.2,0,0.3-0.1,0.4-0.2c0.1-0.1,0.1-0.4,0.2-1l1.3,0.4c-0.1,0.6-0.2,1.1-0.3,1.4c-0.2,0.4-0.5,0.7-1.2,0.7h-8.3
		c-1,0-1.5-0.5-1.5-1.4v-4.8h9.4L231.1,198.2L231.1,198.2z M229.7,196.9v-1h-6.6v1H229.7z"/>
	<path class="st3" d="M237.8,207h-1.4v-6.3c-0.4,1.1-0.9,2.2-1.5,3.2l-0.6-1.6c0.9-1.2,1.6-2.6,2-4.2h-1.8v-1.4h1.9v-2.6h1.4v2.6
		h1.6v1.4h-1.6v0.6c0.6,0.6,1.2,1.3,1.9,2l-0.8,1.2c-0.4-0.6-0.7-1.1-1-1.6L237.8,207L237.8,207z M242.3,194.3
		c-0.1,0.6-0.2,1.1-0.4,1.7h4.8c0,5-0.1,8.1-0.2,9.2c-0.2,1.1-0.9,1.7-2.2,1.7c-0.3,0-0.8,0-1.5-0.1l-0.3-1.3c0.6,0,1.2,0.1,1.6,0.1
		c0.6,0,1-0.4,1.1-1c0.1-0.7,0.1-3.1,0.2-7.3h-3.9c-0.4,1-0.8,2-1.4,2.8l-1-1.2c0.8-1.3,1.4-2.9,1.7-4.8L242.3,194.3z M239.6,203
		c0.4-0.2,1.1-1.7,2-4.4l1.3,0.5c-0.6,1.6-1.1,2.8-1.5,3.6c0.6-0.1,1.2-0.3,1.7-0.4c-0.2-0.5-0.3-1-0.5-1.4l1.2-0.4
		c0.5,1.1,0.9,2.2,1.2,3.4l-1.3,0.6c-0.1-0.4-0.2-0.8-0.3-1.2c-1,0.3-2.2,0.6-3.6,0.9L239.6,203z"/>
	<path class="st3" d="M252.2,200.8c-0.1,0.2-0.2,0.4-0.2,0.6h2.8v1.2c-0.2,0.8-0.7,1.5-1.3,2.2c0.5,0.2,1.1,0.5,1.6,0.8l-0.8,1.1
		c-0.5-0.3-1.2-0.7-1.9-1c-0.9,0.6-2.1,1.1-3.5,1.4l-0.7-1.2c1-0.2,1.9-0.5,2.6-0.9c-0.6-0.2-1.2-0.5-1.8-0.7
		c0.3-0.6,0.6-1.1,0.9-1.6h-1.4v-1.2h1.9c0.1-0.3,0.2-0.5,0.3-0.8L252.2,200.8z M251.2,196.7v-2.5h1.3v2.5h2.4v1.3h-2.4l0,0
		c0.7,0.3,1.5,0.6,2.2,1l-0.8,1.1c-0.6-0.5-1.1-0.8-1.5-1.1v1.5h-1.3v-2.2c-0.5,1-1.2,1.8-2.2,2.5l-0.7-1.2c0.9-0.5,1.6-1.1,2-1.7
		h-1.7v-1.3L251.2,196.7L251.2,196.7z M250.8,196l-1,0.5c-0.3-0.7-0.6-1.3-0.9-1.8l1.1-0.4C250.3,194.8,250.5,195.4,250.8,196z
		 M253.5,202.6h-2.1c-0.2,0.4-0.4,0.7-0.6,1.1c0.4,0.1,0.9,0.3,1.3,0.5C252.8,203.7,253.2,203.2,253.5,202.6z M254.9,194.8
		c-0.3,0.6-0.6,1.2-1.1,1.7l-1-0.5c0.4-0.6,0.8-1.1,1.1-1.7L254.9,194.8z M256.3,200.1c-0.2,0.5-0.4,0.9-0.7,1.3l-0.9-1.1
		c0.8-1.5,1.3-3.6,1.6-6.2l1.4,0.3c-0.1,0.6-0.2,1.2-0.3,1.7h3.5v1.4h-0.8c-0.1,2.3-0.5,4.2-1.2,5.8c0.7,1.1,1.5,2,2.4,2.6l-0.8,1.2
		c-0.9-0.6-1.6-1.5-2.3-2.5c-0.7,1-1.5,1.8-2.4,2.5l-0.8-1.2c1-0.7,1.8-1.5,2.4-2.6C257,202.3,256.6,201.3,256.3,200.1z M257,198.1
		c0.3,1.4,0.7,2.6,1.1,3.7c0.4-1.2,0.7-2.6,0.7-4.2h-1.7C257.1,197.7,257,197.9,257,198.1z"/>
	<path class="st3" d="M262.9,207l-0.3-1.4c0.4,0.1,0.7,0.1,1,0.1s0.4-0.2,0.4-0.5v-2.8c-0.5,0.2-0.9,0.3-1.4,0.5l-0.4-1.4
		c0.6-0.1,1.2-0.3,1.8-0.5v-2.8h-1.5v-1.4h1.5v-2.5h1.4v2.5h1.2v1.4h-1.2v2.2c0.4-0.2,0.8-0.4,1.1-0.6v1.4c-0.4,0.2-0.8,0.4-1.1,0.6
		v3.8c0,1-0.5,1.4-1.4,1.4H262.9L262.9,207z M266.9,207.1l-1.1-1c0.9-1.8,1.4-4.1,1.4-6.9v-4.7h7.7v3.7h-2.5v1.3h2.8v1.3h-2.8v1.3
		h2.2v4.8h-1.3v-0.6H270v0.6h-1.3v-4.8h2.2v-1.3h-2.4C268.3,203.3,267.8,205.3,266.9,207.1z M268.6,198.3v0.9c0,0.1,0,0.3,0,0.4h2.3
		v-1.3L268.6,198.3L268.6,198.3z M268.6,195.9v1.1h4.8v-1.1H268.6z M273.2,205.2v-1.7H270v1.7H273.2z"/>
	<path class="st3" d="M279.6,199.8l-1,1c-0.5-0.6-1.3-1.3-2.3-2.1l1-0.9C278.2,198.4,279,199.1,279.6,199.8z M279.8,202.1
		c-0.6,1.8-1.3,3.4-2,5l-1.4-0.6c0.8-1.6,1.5-3.2,2.1-4.9L279.8,202.1z M280,196.5l-1,1c-0.6-0.7-1.4-1.4-2.5-2.2l1-0.9
		C278.5,195,279.3,195.8,280,196.5z M284.3,196.8c0.1-0.3,0.2-0.7,0.3-1h-2.9v3.5c-0.1,3.2-0.6,5.8-1.6,7.8l-1.1-1
		c0.8-1.6,1.3-3.9,1.3-6.8v-4.8h8.6v1.3h-3c-0.1,0.3-0.2,0.7-0.3,1h2.6v5.2H286v3.6c0,0.9-0.4,1.4-1.3,1.4h-1.2l-0.3-1.3
		c0.3,0.1,0.7,0.1,1,0.1s0.4-0.2,0.4-0.5V202h-2.3v-5.2H284.3L284.3,196.8z M283.9,203.1c-0.3,1.3-0.8,2.3-1.4,3.3l-1.2-0.7
		c0.6-0.9,1.1-1.8,1.3-2.8L283.9,203.1z M287,198.9v-1h-3.3v1H287z M287,200h-3.3v0.9h3.3V200z M289.2,205.8l-1.2,0.5
		c-0.4-1.2-0.9-2.3-1.3-3.2l1.2-0.4C288.4,203.7,288.8,204.7,289.2,205.8z"/>
	<path class="st3" d="M290.8,207l-0.3-1.4c0.4,0.1,0.7,0.1,1.1,0.1c0.3,0,0.5-0.2,0.5-0.5v-2.8c-0.5,0.2-1,0.4-1.5,0.5l-0.4-1.5
		c0.6-0.1,1.2-0.3,1.8-0.5v-2.8h-1.6v-1.4h1.6v-2.5h1.5v2.5h1v1.4h-1v2.1c0.3-0.2,0.7-0.3,1-0.5v1.5c-0.3,0.2-0.7,0.3-1,0.5v3.9
		c0,1-0.5,1.4-1.4,1.4H290.8L290.8,207z M298.9,200.1c-0.1,0.3-0.2,0.6-0.4,0.9h4.6v1.4h-1.4c-0.2,0.9-0.6,1.7-1.1,2.3
		c0.9,0.4,1.7,0.8,2.5,1.2l-0.8,1.2c-0.7-0.4-1.6-0.9-2.7-1.4c-0.9,0.6-2.4,1.1-4.3,1.5l-0.6-1.3c1.4-0.3,2.5-0.6,3.3-0.9
		c-0.8-0.3-1.6-0.7-2.5-1c0.3-0.5,0.6-1,0.9-1.5h-1.6V201h2.3c0.2-0.4,0.3-0.7,0.4-1L298.9,200.1z M295.3,196.5v-1.3h2.8
		c-0.1-0.4-0.3-0.7-0.4-1l1.5-0.3c0.1,0.4,0.3,0.8,0.4,1.2h3v1.3H301l0.7,0.3c-0.2,0.6-0.5,1.1-0.8,1.6h2v1.4H295v-1.4h1.9
		c-0.2-0.5-0.5-1-0.7-1.4l1-0.5L295.3,196.5L295.3,196.5z M297.9,202.4c-0.2,0.3-0.4,0.6-0.6,0.9c0.7,0.2,1.3,0.5,2,0.8
		c0.5-0.5,0.9-1,1.1-1.7H297.9z M299.4,198.4c0.3-0.6,0.6-1.2,0.8-1.9h-2.9c0.3,0.6,0.6,1.2,0.9,1.9H299.4z"/>
	<path class="st3" d="M307.7,194.9l1.2-0.8c1.1,0.8,2.2,2.4,3.1,4.7c1.3,3.2,3,5.5,5.1,6.9l-0.9,1.2c-2.2-1.3-4-3.8-5.5-7.6v-0.1
		c-1,3.3-2.8,5.9-5.6,7.7l-0.9-1.3c2.9-1.9,4.8-4.6,5.7-8.1C309.3,196.4,308.6,195.5,307.7,194.9z"/>
</g>
<g>
	<path class="st3" d="M205.5,19.2c-0.1,0.2-0.2,0.4-0.2,0.6h2.8V21c-0.2,0.8-0.7,1.5-1.3,2.2c0.5,0.2,1.1,0.5,1.6,0.8l-0.8,1.1
		c-0.5-0.3-1.2-0.7-1.9-1c-0.9,0.6-2.1,1.1-3.5,1.4l-0.7-1.2c1-0.2,1.9-0.5,2.6-0.9c-0.6-0.2-1.2-0.5-1.8-0.7
		c0.3-0.6,0.6-1.1,0.9-1.6h-1.4v-1.2h1.9c0.1-0.3,0.2-0.5,0.3-0.8L205.5,19.2z M204.5,15v-2.5h1.3V15h2.4v1.3h-2.4l0,0
		c0.7,0.3,1.5,0.6,2.2,1l-0.8,1.1c-0.6-0.5-1.1-0.8-1.5-1.1v1.5h-1.3v-2.2c-0.5,1-1.2,1.8-2.2,2.5l-0.7-1.2c0.9-0.5,1.6-1.1,2-1.7
		h-1.7V15C201.9,15,204.5,15,204.5,15z M204,14.4l-1,0.5c-0.3-0.7-0.6-1.3-0.9-1.8l1.1-0.4C203.5,13.2,203.8,13.8,204,14.4z
		 M206.8,21h-2.1c-0.2,0.4-0.4,0.7-0.6,1.1c0.4,0.1,0.9,0.3,1.3,0.5C206,22.1,206.5,21.6,206.8,21z M208.2,13.2
		c-0.3,0.6-0.6,1.2-1.1,1.7l-1-0.5c0.4-0.6,0.8-1.1,1.1-1.7L208.2,13.2z M209.5,18.5c-0.2,0.5-0.4,0.9-0.7,1.3l-0.9-1.1
		c0.8-1.5,1.3-3.6,1.6-6.2l1.4,0.3c-0.1,0.6-0.2,1.2-0.3,1.7h3.5v1.4h-0.8c-0.1,2.3-0.5,4.2-1.2,5.8c0.7,1.1,1.5,2,2.4,2.6l-0.8,1.2
		c-0.9-0.6-1.6-1.5-2.3-2.5c-0.7,1-1.5,1.8-2.4,2.5l-0.8-1.2c1-0.7,1.8-1.5,2.4-2.6C210.3,20.7,209.9,19.7,209.5,18.5z M210.2,16.5
		c0.3,1.4,0.7,2.6,1.1,3.7c0.4-1.2,0.7-2.6,0.7-4.2h-1.7C210.3,16.1,210.3,16.3,210.2,16.5z"/>
	<path class="st3" d="M216.1,25.3l-0.3-1.4c0.4,0.1,0.7,0.1,1,0.1s0.4-0.2,0.4-0.5v-2.8c-0.5,0.2-0.9,0.3-1.4,0.5l-0.4-1.4
		c0.6-0.1,1.2-0.3,1.8-0.5v-2.8h-1.5V15h1.5v-2.5h1.4V15h1.2v1.4h-1.2v2.2c0.4-0.2,0.8-0.4,1.1-0.6v1.4c-0.4,0.2-0.8,0.4-1.1,0.6
		v3.8c0,1-0.5,1.4-1.4,1.4L216.1,25.3L216.1,25.3z M220.2,25.5l-1.1-1c0.9-1.8,1.4-4.1,1.4-6.9v-4.7h7.7v3.7h-2.5V18h2.8v1.3h-2.8
		v1.3h2.2v4.8h-1.3v-0.6h-3.2v0.6h-1.3v-4.8h2.2v-1.3h-2.4C221.6,21.6,221,23.7,220.2,25.5z M221.8,16.6v0.9c0,0.1,0,0.3,0,0.4h2.3
		v-1.3H221.8z M221.8,14.3v1.1h4.8v-1.1C226.6,14.3,221.8,14.3,221.8,14.3z M226.4,23.6v-1.7h-3.2v1.7H226.4z"/>
	<path class="st3" d="M242.4,23.8l-0.3,1.4H238c-2.6,0-4.5-0.4-5.6-1.1l-0.3-0.2c-0.4,0.6-0.9,1.1-1.5,1.6l-1-1.2
		c0.6-0.4,1.1-0.9,1.5-1.4c-0.5-0.8-0.9-1.7-1.3-2.9l1.2-0.5c0.2,0.8,0.5,1.5,0.8,2c0.3-0.8,0.5-1.8,0.6-2.8h-2.5v-1.1
		c0.7-1,1.4-1.9,2-3h-2v-1.4h3.6v1.2c-0.6,1.1-1.2,2.1-1.8,3h2v0.9c-0.1,1.8-0.4,3.3-1,4.6c0.2,0.2,0.3,0.3,0.5,0.4
		c0.9,0.5,2.2,0.8,4,0.8C239,23.8,240.7,23.8,242.4,23.8z M238.5,18.5v0.8h3.1v1.2h-3.1v0.8h3.5v1.2h-3.5v1H237v-1h-3v-1.2h3v-0.8
		h-2.6v-1.2h2.6v-0.8h-2.3v-1.2h2.3v-0.8h-3v-1.2h3v-0.7h-2.3v-1.2h2.3v-0.9h1.4v0.9h3v1.9h0.8v1.2h-0.8v2H238.5z M238.5,15.3h1.6
		v-0.7h-1.6V15.3z M238.5,17.2h1.6v-0.8h-1.6V17.2z"/>
	<path class="st3" d="M246.7,25.4h-1.4v-6.1c-0.4,1-0.8,2-1.3,2.9l-0.6-1.6c0.9-1.2,1.5-2.5,1.9-4v-0.1h-1.5v-1.3h1.5v-2.5h1.4v2.5
		h1.3v1.3h-1.3v0.7c0.6,0.7,1.1,1.4,1.7,2.2l-0.8,1.2c-0.4-0.7-0.7-1.3-1-1.7L246.7,25.4L246.7,25.4z M251.4,23.5
		c-0.6,0.8-1.8,1.5-3.4,1.9l-0.5-1.2c1.3-0.4,2.3-0.9,2.9-1.6c0.1-0.1,0.1-0.1,0.1-0.2h-2.9v-1.3h3.6c0.1-0.2,0.1-0.5,0.2-0.7h-2.8
		V16h6.9v4.5h-2.8c0,0.3-0.1,0.5-0.1,0.7h3.8v1.3h-3.1c0.8,0.7,1.8,1.3,3.3,1.8l-1,1.2c-1.7-0.7-2.9-1.6-3.6-2.7
		C251.7,23.1,251.6,23.3,251.4,23.5z M249.7,13.6v-1h1.4v1h1.8v-1h1.4v1h2v1.3h-2v0.8h-1.4v-0.8h-1.8v0.8h-1.4v-0.8h-1.8v-1.3H249.7
		z M254.1,17.7v-0.6h-4.3v0.6H254.1z M254.1,18.8h-4.3v0.6h4.3V18.8z"/>
</g>
<g>
	<path class="st3" d="M439.2,63.8c-0.1,0.2-0.2,0.4-0.2,0.6h2.8v1.2c-0.2,0.8-0.7,1.5-1.3,2.2c0.5,0.2,1.1,0.5,1.6,0.8l-0.8,1.1
		c-0.5-0.3-1.2-0.7-1.9-1c-0.9,0.6-2.1,1.1-3.5,1.4l-0.7-1.2c1-0.2,1.9-0.5,2.6-0.9c-0.6-0.2-1.2-0.5-1.8-0.7
		c0.3-0.6,0.6-1.1,0.9-1.6h-1.4v-1.2h1.9c0.1-0.3,0.2-0.5,0.3-0.8L439.2,63.8z M438.2,59.7v-2.5h1.3v2.5h2.4V61h-2.4l0,0
		c0.7,0.3,1.5,0.6,2.2,1l-0.8,1.1c-0.6-0.5-1.1-0.8-1.5-1.1v1.5h-1.3v-2.2c-0.5,1-1.2,1.8-2.2,2.5l-0.7-1.2c0.9-0.5,1.6-1.1,2-1.7
		h-1.7v-1.3C435.6,59.7,438.2,59.7,438.2,59.7z M437.8,59l-1,0.5c-0.3-0.7-0.6-1.3-0.9-1.8l1.1-0.4C437.3,57.8,437.5,58.4,437.8,59z
		 M440.5,65.6h-2.1c-0.2,0.4-0.4,0.7-0.6,1.1c0.4,0.1,0.9,0.3,1.3,0.5C439.8,66.7,440.2,66.2,440.5,65.6z M441.9,57.8
		c-0.3,0.6-0.6,1.2-1.1,1.7l-1-0.5c0.4-0.6,0.8-1.1,1.1-1.7L441.9,57.8z M443.3,63.1c-0.2,0.5-0.4,0.9-0.7,1.3l-0.9-1.1
		c0.8-1.5,1.3-3.6,1.6-6.2l1.4,0.3c-0.1,0.6-0.2,1.2-0.3,1.7h3.5v1.4h-0.8c-0.1,2.3-0.5,4.2-1.2,5.8c0.7,1.1,1.5,2,2.4,2.6l-0.8,1.2
		c-0.9-0.6-1.6-1.5-2.3-2.5c-0.7,1-1.5,1.8-2.4,2.5l-0.8-1.2c1-0.7,1.8-1.5,2.4-2.6C444,65.3,443.6,64.3,443.3,63.1z M444,61.1
		c0.3,1.4,0.7,2.6,1.1,3.7c0.4-1.2,0.7-2.6,0.7-4.2h-1.7C444.1,60.7,444,60.9,444,61.1z"/>
	<path class="st3" d="M449.9,70l-0.3-1.4c0.4,0.1,0.7,0.1,1,0.1s0.4-0.2,0.4-0.5v-2.8c-0.5,0.2-0.9,0.3-1.4,0.5l-0.4-1.4
		c0.6-0.1,1.2-0.3,1.8-0.5v-2.8h-1.5v-1.4h1.5v-2.5h1.4v2.5h1.2v1.4h-1.2v2.2c0.4-0.2,0.8-0.4,1.1-0.6v1.4c-0.4,0.2-0.8,0.4-1.1,0.6
		v3.8c0,1-0.5,1.4-1.4,1.4H449.9L449.9,70z M453.9,70.1l-1.1-1c0.9-1.8,1.4-4.1,1.4-6.9v-4.7h7.7v3.7h-2.5v1.3h2.8v1.3h-2.8v1.3h2.2
		v4.8h-1.3v-0.6H457v0.6h-1.3v-4.8h2.2v-1.3h-2.4C455.3,66.3,454.8,68.3,453.9,70.1z M455.6,61.3v0.9c0,0.1,0,0.3,0,0.4h2.3v-1.3
		C457.9,61.3,455.6,61.3,455.6,61.3z M455.6,58.9V60h4.8v-1.1H455.6z M460.2,68.2v-1.7H457v1.7H460.2z"/>
	<path class="st3" d="M468.2,64c-0.5,0.2-1,0.4-1.4,0.7v3.9c0,1-0.5,1.4-1.4,1.4h-1.3l-0.3-1.4c0.4,0.1,0.8,0.1,1.1,0.1
		c0.3,0,0.5-0.2,0.5-0.5v-3c-0.6,0.2-1.2,0.4-1.8,0.6l-0.4-1.4c0.7-0.2,1.4-0.4,2.1-0.6v-2.9h-1.9v-1.4h1.9v-2.4h1.4v2.4h1.4v1.4
		h-1.4v2.3c0.5-0.2,1-0.4,1.4-0.7L468.2,64L468.2,64z M470.1,70.1h-1.4V57.6h6.6c0,1.7-0.1,2.8-0.3,3.4c-0.2,0.5-0.8,0.8-1.7,0.8
		h-1.1l-0.4-1.2c0.2,0,0.5,0,0.8,0s0.6,0,0.7,0s0.3-0.1,0.4-0.3s0.2-0.6,0.2-1.3h-3.8v3.7h5.3V64c-0.2,1.4-0.6,2.6-1.3,3.6
		c0.6,0.5,1.4,1.1,2.2,1.5l-1,1.1c-0.8-0.5-1.5-1-2.1-1.6c-0.6,0.7-1.4,1.2-2.3,1.6l-0.7-1.3c0.8-0.4,1.4-0.9,2-1.4
		c-0.9-1.1-1.4-2.3-1.6-3.5h-0.5L470.1,70.1L470.1,70.1z M473.1,66.4c0.4-0.7,0.8-1.6,1-2.5H472C472.1,64.8,472.5,65.6,473.1,66.4z"
		/>
	<path class="st3" d="M478.5,62.1l-0.9-1.1c1.2-1,2.1-2.2,2.5-3.6l1.5,0.2c-0.2,0.5-0.4,1-0.6,1.5h2.2v-1.8h1.5v1.8h4.4v1.4h-4.4
		v1.8h5.5v1.4h-12.8v-1.4h5.8v-1.8h-3C479.7,61,479.1,61.5,478.5,62.1z M488.5,70.1H487v-0.7h-6.5v0.7H479v-5.4h9.5V70.1L488.5,70.1
		z M487.1,68.1v-2h-6.5v2H487.1z"/>
</g>
<g>
	<path class="st3" d="M441,126.1v1.3h-0.7v7.2c0.3-0.1,0.5-0.2,0.8-0.3v1.4c-0.3,0.1-0.5,0.2-0.8,0.2v2.6h-1.4v-2.2
		c-1.1,0.3-2.1,0.5-3.2,0.7l-0.4-1.4l0.8-0.1v-8.2h-0.7V126L441,126.1L441,126.1z M438.9,129.1v-1.7h-1.4v1.7H438.9z M438.9,132
		v-1.6h-1.4v1.6H438.9z M438.9,135v-1.7h-1.4v2C437.9,135.2,438.4,135.1,438.9,135z M442.9,128.5c-0.3-0.6-0.7-1.4-1.2-2.1l1.1-0.7
		c0.5,0.8,0.9,1.5,1.2,2.1l-1,0.7h1.6c0.5-0.9,0.9-1.9,1.3-2.9l1.4,0.5c-0.4,0.9-0.8,1.7-1.2,2.4h1.8v1.4h-2.7v0.2
		c0,0.6,0,1.2-0.1,1.8h3v1.4h-2.7c0.4,1.4,1.3,2.8,2.9,4.2l-1,1.1c-1.4-1.4-2.3-2.8-2.7-4.2c-0.6,1.9-1.6,3.4-3,4.3l-0.9-1.2
		c1.4-0.9,2.3-2.3,2.8-4.2H441v-1.4h2.7c0.1-0.5,0.1-1,0.1-1.5v-0.5h-2.6v-1.4L442.9,128.5L442.9,128.5z"/>
	<path class="st3" d="M455.7,130.2v1.4h-3.1c-0.5,1.8-0.9,3.2-1.2,4.1c0.9-0.2,1.8-0.5,2.6-0.8c-0.3-0.7-0.6-1.3-0.9-1.9l1.2-0.6
		c0.6,1.1,1.2,2.4,1.8,3.8c0.9-1.6,1.4-3.8,1.4-6.4v-0.1h-1.7v-1.4h1.7v-2.7h1.5v2.7h3c0,4.6-0.1,7.5-0.2,8.6
		c-0.2,1-0.9,1.6-2.2,1.6c-0.2,0-0.6,0-1.2-0.1l-0.3-1.3c0.5,0,0.9,0.1,1.3,0.1c0.6,0,0.9-0.3,1-0.9c0.1-0.6,0.1-2.8,0.2-6.5H459
		v0.1c0,4-1,7-2.9,8.8l-1.1-1c0.4-0.4,0.8-0.8,1.1-1.3l-1.2,0.6c-0.1-0.3-0.2-0.6-0.3-0.9c-1.5,0.5-3.1,0.9-4.7,1.2l-0.3-1.4
		c0.1,0,0.2-0.1,0.3-0.1c0.4-0.5,0.9-1.9,1.5-4.2h-1.7v-1.4L455.7,130.2L455.7,130.2z M455.2,126.5v1.4h-5.3v-1.4
		C449.9,126.5,455.2,126.5,455.2,126.5z"/>
	<path class="st3" d="M468.8,126.6c-0.6,1.1-1.3,2.1-2,2.8c-0.6,0.7-1.6,1.5-2.8,2.4l-0.8-1.3c0.9-0.5,1.7-1.1,2.5-2
		c0.6-0.7,1.2-1.6,1.8-2.7L468.8,126.6z M465.4,132.4V131h8.5c-0.1,1.8-0.1,3.3-0.3,4.4c-0.1,1.1-0.4,1.9-0.7,2.3
		c-0.3,0.4-0.8,0.7-1.6,0.7h-2.7l-0.4-1.4c0.8,0,1.6,0.1,2.3,0.1c0.7,0,1.1-0.3,1.4-0.9c0.2-0.6,0.4-1.8,0.4-3.8h-3
		c-0.3,1.4-0.8,2.6-1.3,3.4c-0.7,1-1.8,1.9-3.2,2.8l-1-1.2c1.3-0.7,2.2-1.4,2.9-2.2c0.5-0.7,0.9-1.6,1.2-2.7L465.4,132.4
		L465.4,132.4z M476.2,130.6l-1,1.2c-2.2-1.4-3.7-3.2-4.5-5.4l1.3-0.7C472.7,127.8,474.1,129.4,476.2,130.6z"/>
	<path class="st3" d="M480.8,138.6h-1.4v-6.4c-0.4,1.2-1,2.3-1.6,3.2l-0.6-1.6c1-1.2,1.7-2.6,2.1-4.2h-1.8v-1.4h1.9v-2.6h1.4v2.6
		h1.7v1.4h-1.7v0.6c0.6,0.6,1.3,1.3,1.9,2.1l-0.8,1.2c-0.4-0.7-0.8-1.2-1.1-1.7V138.6z M489.8,126.9c-1.6,0.5-3.3,0.8-5.2,0.9v2.1
		h5.5v1.4h-1.9v7.2h-1.5v-7.2h-2.1c-0.1,3-0.8,5.4-2.2,7.1l-1-1.1c1.1-1.5,1.7-3.5,1.8-6.1v-4.6c2.2-0.1,4.2-0.4,5.9-1L489.8,126.9z
		"/>
</g>
<g>
	<path class="st3" d="M437,196.5v-2.4h1.4v2.4h1.2v1.4h-1.2v2.2c0.4-0.2,0.7-0.4,1.1-0.5v1.4c-0.4,0.2-0.7,0.4-1.1,0.5v3.9
		c0,1-0.5,1.5-1.4,1.5h-1.1l-0.3-1.4c0.3,0.1,0.7,0.1,1,0.1s0.4-0.2,0.4-0.5v-2.9c-0.4,0.2-0.9,0.3-1.3,0.5l-0.4-1.4
		c0.6-0.1,1.1-0.3,1.7-0.5V198h-1.5v-1.4L437,196.5L437,196.5z M444.7,195.3h3.1v2.7h-1.3v-1.3h-5.1v1.3H440v-2.7h3.3
		c-0.2-0.4-0.3-0.7-0.5-1.1l1.5-0.3C444.4,194.4,444.6,194.9,444.7,195.3z M447.1,200.5v1.2c-2.6,1.2-4.3,2.2-5,2.8
		c-0.3,0.3-0.4,0.5-0.4,0.7s0.2,0.3,0.5,0.3h3.6c0.3,0,0.6-0.1,0.7-0.2c0.1-0.1,0.2-0.6,0.3-1.5l1.4,0.4c-0.2,1.2-0.4,1.9-0.7,2.1
		c-0.4,0.3-0.9,0.4-1.6,0.4h-3.7c-1.3,0-1.9-0.5-1.9-1.5c0-0.5,0.3-1,0.8-1.5c0.7-0.6,1.9-1.3,3.5-2h-4v-1.3L447.1,200.5
		L447.1,200.5z M443.5,197.5c-0.6,1.2-1.3,2.1-2.2,2.7l-1.1-0.9c0.9-0.6,1.6-1.3,2-2.3L443.5,197.5z M447.2,199.4l-1.1,0.8
		c-0.5-0.8-1.1-1.7-1.9-2.6l1.1-0.7C446.1,197.9,446.8,198.7,447.2,199.4z"/>
	<path class="st3" d="M449.8,207l-0.3-1.4c0.4,0.1,0.8,0.1,1.1,0.1c0.3,0,0.4-0.2,0.4-0.5v-2.8c-0.4,0.2-0.9,0.3-1.3,0.5l-0.4-1.4
		c0.6-0.1,1.1-0.3,1.7-0.5v-2.8h-1.5v-1.4h1.5v-2.5h1.4v2.5h1.2v1.4h-1.2v2.2c0.4-0.2,0.8-0.4,1.2-0.6v1.5c-0.4,0.2-0.8,0.4-1.2,0.6
		v3.8c0,1-0.4,1.5-1.3,1.5L449.8,207L449.8,207z M455.4,199.5c0,3-0.6,5.5-1.7,7.6l-1.1-1c0.9-1.7,1.4-3.9,1.4-6.6v-4.9h7.7v3.8
		h-6.3V199.5z M455.4,195.9v1.2h4.9v-1.2H455.4z M460.2,199.6h1.3v3h-2.2v2.5h1.1v-1.9h1.3v3.7h-1.3v-0.5h-3.6v0.5h-1.3v-3.7h1.3
		v1.9h1.1v-2.5h-2.1v-3h1.3v1.8h0.8V199h1.4v2.4h0.9L460.2,199.6L460.2,199.6z"/>
	<path class="st3" d="M470.5,197.2l-1-0.7c0.7-0.8,1.2-1.7,1.5-2.6l1.4,0.3c-0.1,0.2-0.1,0.4-0.2,0.6h3.7v1.2h-2
		c0.2,0.2,0.3,0.4,0.4,0.6l-1.2,0.4c-0.2-0.4-0.4-0.7-0.7-1.1h-0.9c-0.2,0.4-0.5,0.8-0.8,1.1h3.8v5.8H473v0.7h3v1.3h-3v2.2h-1.4
		v-2.2H468c-0.1,0.3-0.3,0.6-0.5,0.9c-0.5,0.6-1.3,1-2.4,1.3l-0.7-1.2c1-0.3,1.6-0.6,2-1c0,0,0,0,0-0.1h-2.8v-1.3h3.3
		c0-0.1,0-0.2,0-0.3V203h-1.7v-5.8H470.5L470.5,197.2z M464.7,197.6l-1.2-0.8c0.8-0.9,1.4-1.8,1.8-2.9l1.4,0.3
		c-0.1,0.2-0.2,0.4-0.3,0.7h3.2v1.2h-1.4c0.1,0.2,0.3,0.4,0.4,0.6l-1.2,0.4c-0.2-0.4-0.4-0.7-0.6-1h-0.9
		C465.5,196.7,465.1,197.2,464.7,197.6z M473.2,198.9v-0.5h-6.7v0.5H473.2z M473.2,200.4v-0.5h-6.7v0.5H473.2z M473.2,201.4h-6.7
		v0.6h6.7V201.4z M468.2,203.4c0,0.1,0,0.2,0,0.3h3.3V203h-3.3V203.4z"/>
	<path class="st3" d="M480.5,199.6l-1,1c-0.5-0.6-1.2-1.4-2.1-2.1l1-1C479.2,198.2,479.9,198.9,480.5,199.6z M481,202
		c-0.6,1.8-1.3,3.4-2,4.9l-1.5-0.6c0.8-1.6,1.5-3.2,2.1-4.8L481,202z M481,196.3l-1,1.1c-0.5-0.7-1.3-1.4-2.3-2.1l1.1-1
		C479.6,194.9,480.4,195.6,481,196.3z M486.2,194.2v2.1h3.4v1.4h-3.4v2.2h3.8v1.4h-4.5c-0.8,1.8-1.4,3.1-2,4
		c1.5-0.2,2.9-0.4,4.4-0.7c-0.4-0.7-0.7-1.4-1.1-2l1.4-0.5c0.8,1.4,1.5,2.9,2.1,4.5l-1.4,0.6c-0.2-0.5-0.4-0.9-0.5-1.3
		c-2.1,0.4-4.3,0.7-6.8,1l-0.3-1.3c0.1,0,0.2-0.1,0.3-0.1c0.6-0.5,1.4-1.9,2.3-4.1h-3V200h3.8v-2.2h-3.2v-1.4h3.2v-2.1L486.2,194.2
		L486.2,194.2z"/>
</g>
<g>
	<path class="st3" d="M416.5,19.2c-0.1,0.2-0.2,0.4-0.2,0.6h2.8V21c-0.2,0.8-0.7,1.5-1.3,2.2c0.5,0.2,1.1,0.5,1.6,0.8l-0.8,1.1
		c-0.5-0.3-1.2-0.7-1.9-1c-0.9,0.6-2.1,1.1-3.5,1.4l-0.7-1.2c1-0.2,1.9-0.5,2.6-0.9c-0.6-0.2-1.2-0.5-1.8-0.7
		c0.3-0.6,0.6-1.1,0.9-1.6h-1.4v-1.2h1.9c0.1-0.3,0.2-0.5,0.3-0.8L416.5,19.2z M415.5,15v-2.5h1.3V15h2.4v1.3h-2.4l0,0
		c0.7,0.3,1.5,0.6,2.2,1l-0.8,1.1c-0.6-0.5-1.1-0.8-1.5-1.1v1.5h-1.3v-2.2c-0.5,1-1.2,1.8-2.2,2.5l-0.7-1.2c0.9-0.5,1.6-1.1,2-1.7
		h-1.7V15C412.9,15,415.5,15,415.5,15z M415,14.4l-1,0.5c-0.3-0.7-0.6-1.3-0.9-1.8l1.1-0.4C414.5,13.2,414.8,13.8,415,14.4z
		 M417.8,21h-2.1c-0.2,0.4-0.4,0.7-0.6,1.1c0.4,0.1,0.9,0.3,1.3,0.5C417,22.1,417.5,21.6,417.8,21z M419.2,13.2
		c-0.3,0.6-0.6,1.2-1.1,1.7l-1-0.5c0.4-0.6,0.8-1.1,1.1-1.7L419.2,13.2z M420.5,18.5c-0.2,0.5-0.4,0.9-0.7,1.3l-0.9-1.1
		c0.8-1.5,1.3-3.6,1.6-6.2l1.4,0.3c-0.1,0.6-0.2,1.2-0.3,1.7h3.5v1.4h-0.8c-0.1,2.3-0.5,4.2-1.2,5.8c0.7,1.1,1.5,2,2.4,2.6l-0.8,1.2
		c-0.9-0.6-1.6-1.5-2.3-2.5c-0.7,1-1.5,1.8-2.4,2.5l-0.8-1.2c1-0.7,1.8-1.5,2.4-2.6C421.3,20.7,420.9,19.7,420.5,18.5z M421.2,16.5
		c0.3,1.4,0.7,2.6,1.1,3.7c0.4-1.2,0.7-2.6,0.7-4.2h-1.7C421.3,16.1,421.3,16.3,421.2,16.5z"/>
	<path class="st3" d="M427.1,25.3l-0.3-1.4c0.4,0.1,0.7,0.1,1,0.1s0.4-0.2,0.4-0.5v-2.8c-0.5,0.2-0.9,0.3-1.4,0.5l-0.4-1.4
		c0.6-0.1,1.2-0.3,1.8-0.5v-2.8h-1.5V15h1.5v-2.5h1.4V15h1.2v1.4h-1.2v2.2c0.4-0.2,0.8-0.4,1.1-0.6v1.4c-0.4,0.2-0.8,0.4-1.1,0.6
		v3.8c0,1-0.5,1.4-1.4,1.4L427.1,25.3L427.1,25.3z M431.2,25.5l-1.1-1c0.9-1.8,1.4-4.1,1.4-6.9v-4.7h7.7v3.7h-2.5V18h2.8v1.3h-2.8
		v1.3h2.2v4.8h-1.3v-0.6h-3.2v0.6h-1.3v-4.8h2.2v-1.3h-2.4C432.6,21.6,432,23.7,431.2,25.5z M432.8,16.6v0.9c0,0.1,0,0.3,0,0.4h2.3
		v-1.3H432.8z M432.8,14.3v1.1h4.8v-1.1C437.6,14.3,432.8,14.3,432.8,14.3z M437.4,23.6v-1.7h-3.2v1.7H437.4z"/>
	<path class="st3" d="M446.1,13.5c-0.6,1.1-1.3,2.1-2,2.8c-0.6,0.7-1.6,1.5-2.8,2.4l-0.8-1.3c0.9-0.5,1.7-1.1,2.5-2
		c0.6-0.7,1.2-1.6,1.8-2.7L446.1,13.5z M442.7,19.3v-1.4h8.5c-0.1,1.8-0.1,3.3-0.3,4.4c-0.1,1.1-0.4,1.9-0.7,2.3
		c-0.3,0.4-0.8,0.7-1.6,0.7H446l-0.4-1.4c0.8,0,1.6,0.1,2.3,0.1c0.7,0,1.1-0.3,1.4-0.9c0.2-0.6,0.4-1.8,0.4-3.8h-3
		c-0.3,1.4-0.8,2.6-1.3,3.4c-0.7,1-1.8,1.9-3.2,2.8l-1-1.2c1.3-0.7,2.2-1.4,2.9-2.2c0.5-0.7,0.9-1.6,1.2-2.7L442.7,19.3L442.7,19.3z
		 M453.5,17.5l-1,1.2c-2.2-1.4-3.7-3.2-4.5-5.4l1.3-0.7C450,14.7,451.4,16.3,453.5,17.5z"/>
	<path class="st3" d="M458.1,25.4h-1.4V19c-0.4,1.2-1,2.3-1.6,3.2l-0.6-1.6c1-1.2,1.7-2.6,2.1-4.2h-1.8V15h1.9v-2.6h1.4V15h1.7v1.4
		h-1.7V17c0.6,0.6,1.3,1.3,1.9,2.1l-0.8,1.2c-0.4-0.7-0.8-1.2-1.1-1.7V25.4z M467,13.8c-1.6,0.5-3.3,0.8-5.2,0.9v2.1h5.5v1.4h-1.9
		v7.2h-1.5v-7.2h-2.1c-0.1,3-0.8,5.4-2.2,7.1l-1-1.1c1.1-1.5,1.7-3.5,1.8-6.1v-4.6c2.2-0.1,4.2-0.4,5.9-1L467,13.8z"/>
</g>
<g>
	<path class="st3" d="M660.3,66.2v-1.8h-4.9V63h4.9v-1.8h1.5V63h5v1.4h-5v1.8h4.4v1.5h-4.4v1.8h5.4v1.4h-5.4v3.2h-1.5v-3.2H655v-1.4
		h5.3v-1.8H656v-1.5L660.3,66.2L660.3,66.2z"/>
	<path class="st3" d="M681,64.9h-1.4v-1.6h-9.2v1.6H669V62h5.2c-0.1-0.3-0.3-0.6-0.4-0.8l1.6-0.3c0.2,0.3,0.3,0.7,0.4,1.1h5.2V64.9
		L681,64.9z M680.1,74.1h-1.4v-0.4h-7.4v0.4h-1.4V69h10.2L680.1,74.1L680.1,74.1z M679.2,64v1.1h-8.4V64H679.2z M678.9,65.6v2.8
		h-7.8v-2.8H678.9z M674.3,70.8v-0.7h-3v0.7H674.3z M674.3,72.6v-0.7h-3v0.7H674.3z M677.5,66.7h-5.1v0.8h5.1V66.7z M675.7,70.8h3
		v-0.7h-3V70.8z M678.7,72.6v-0.7h-3v0.7H678.7z"/>
	<path class="st3" d="M687.8,73.2h-1.4v-0.7h-2.1v1.1H683V63.4h1.3c0.3-0.7,0.4-1.5,0.5-2.3l1.5,0.2c-0.2,0.8-0.4,1.5-0.6,2.1h2.1
		V73.2L687.8,73.2z M686.4,67.2v-2.5h-2.1v2.5H686.4z M686.4,71.2v-2.6h-2.1v2.6H686.4z M694.8,72.5c-0.1,1-0.8,1.5-2,1.5
		c-0.3,0-0.8,0-1.5-0.1l-0.4-1.3c0.6,0,1.2,0.1,1.6,0.1c0.5,0,0.8-0.3,0.9-0.8c0.1-0.7,0.1-3,0.2-6.9h-3.4c-0.4,0.8-0.8,1.6-1.3,2.3
		l-0.9-1.2c0.9-1.3,1.5-2.9,1.9-4.9l1.4,0.2c-0.1,0.8-0.3,1.5-0.5,2.1h4.3C695.1,68.3,695,71.3,694.8,72.5z M692.5,69.8l-1.2,0.8
		c-0.5-0.9-1.2-1.9-2.1-3.1l1.2-0.7C691.3,67.9,692,68.9,692.5,69.8z"/>
	<path class="st3" d="M708.9,74.1h-1.4v-0.5h-9v0.5h-1.4V61.6h11.8L708.9,74.1L708.9,74.1z M707.5,72.3v-9.4h-9v9.4H707.5z
		 M702.7,63.2c-0.1,0.2-0.2,0.4-0.3,0.6h3.6v1c-0.3,0.7-0.9,1.2-1.6,1.8c0.9,0.4,1.8,0.7,2.9,0.9l-0.8,1.1c-1.3-0.3-2.4-0.8-3.3-1.3
		c-1,0.5-2.3,1-3.9,1.3l-0.6-1.2c1.3-0.2,2.4-0.5,3.3-0.9c-0.4-0.3-0.8-0.6-1.1-0.9c-0.4,0.3-0.8,0.6-1.2,0.9l-0.8-1.1
		c1.2-0.7,2-1.5,2.5-2.5L702.7,63.2z M705.9,71.1l-0.5,1.2c-1.7-0.6-3.5-1.1-5.4-1.5l0.6-1.1C702.5,70,704.2,70.5,705.9,71.1z
		 M705.1,69l-0.7,1c-1-0.5-2-0.9-3.1-1.2l0.6-1C703.2,68.2,704.2,68.5,705.1,69z M704.6,64.8h-2.8l0,0c0.4,0.4,1,0.8,1.5,1.1
		C703.8,65.6,704.3,65.2,704.6,64.8z"/>
	<path class="st3" d="M716.3,62.2v-1h1.5v1h4.9v1.3h-4.9v0.9h4.1v1.3h-4.1v0.9h5.4V68h-4.9c0.3,0.7,0.7,1.4,1.2,1.9
		c0.7-0.4,1.4-0.9,2-1.6l1,1c-0.7,0.6-1.4,1.2-2.2,1.5c0.9,0.8,1.9,1.4,3,1.9l-0.8,1.3c-2.5-1.1-4.4-3.1-5.6-6h-0.3
		c-0.5,0.6-1,1.2-1.7,1.8v2.5c0.9-0.3,1.9-0.6,2.8-1l0.3,1.3c-1.5,0.6-3.1,1.1-4.6,1.4l-0.5-1.2c0.4-0.2,0.6-0.4,0.6-0.7v-1.3
		c-0.7,0.4-1.4,0.7-2.2,1.1l-0.8-1.3c2-0.7,3.6-1.5,4.6-2.6h-4.2v-1.3h5.4v-0.9h-4.1v-1.3h4.1v-0.9h-4.9v-1.3h4.9V62.2z"/>
	<path class="st3" d="M730,72c-0.9,0.9-2.5,1.6-4.7,2.1l-0.6-1.4c1.9-0.4,3.2-1,4.1-1.7c0.2-0.2,0.4-0.4,0.6-0.7h-4.5V69h5.1
		c0.1-0.4,0.2-0.7,0.3-1.1h1.5c-0.1,0.4-0.1,0.8-0.2,1.1h5.5v1.4h-4.8c1.2,1.1,2.9,2,5,2.4l-0.7,1.3c-2.5-0.7-4.4-1.8-5.7-3.4
		C730.6,71.2,730.3,71.6,730,72z M731.7,67.5h-1.5v-2.3c-0.9,1.2-2.4,2.2-4.5,3.1L725,67c1.9-0.6,3.2-1.2,4-1.9h-4v-1.4h5.2V61h1.5
		v2.7h5.2v1.4h-5.2v0.1c1.8,0.5,3.6,1,5.1,1.7l-0.8,1.2c-1.4-0.8-2.8-1.5-4.3-2V67.5z M728.8,63.3l-1.2,0.3
		c-0.3-0.7-0.6-1.3-1.1-1.9l1.3-0.4C728.1,61.9,728.5,62.5,728.8,63.3z M735.5,61.6c-0.3,0.8-0.7,1.4-1.1,2l-1.2-0.4
		c0.4-0.5,0.8-1.1,1.1-1.9L735.5,61.6z"/>
	<path class="st3" d="M744.3,70v-1h1.5v1h4.7v1.3h-4.7v1.2h5.4v1.3h-12.4v-1.3h5.5v-1.2h-4.7V70H744.3z M746,61.6v1.3h-1.3v1.7h1.6
		v1.3h-1.6v2.9h-1.4v-2.9h-1.5c-0.2,1.4-0.7,2.4-1.5,3.1l-1.1-1c0.6-0.5,1-1.2,1.2-2.1h-1.5v-1.3h1.6v-1.7h-1.3v-1.3H746L746,61.6z
		 M741.9,64.6h1.4v-1.7h-1.4V64.6z M748.2,62.1v4.8h-1.4v-4.8C746.8,62.1,748.2,62.1,748.2,62.1z M747.5,69.1l-0.3-1.4
		c0.6,0.1,1.2,0.1,1.7,0.1c0.3,0,0.4-0.2,0.4-0.7v-5.8h1.4v6.1c0,1.1-0.4,1.6-1.3,1.6L747.5,69.1L747.5,69.1L747.5,69.1z"/>
</g>
<g>
	<path class="st3" d="M601.5,98h-1.3v-6.6c-0.4,1.3-1,2.5-1.7,3.6l-0.6-1.5c1-1.4,1.7-2.9,2.2-4.7h-1.9v-1.3h1.9V85h1.3v2.5h1.5v1.3
		h-1.5v0.8c0.7,0.7,1.3,1.6,2,2.5l-0.8,1.1c-0.5-0.9-0.9-1.6-1.2-2.1L601.5,98L601.5,98z M606.4,87.5c-0.3-0.7-0.5-1.3-0.9-2
		l1.3-0.4c0.4,0.9,0.7,1.7,0.9,2.4h3v1.3h-3v3.1h2.6v1.2h-2.6v3.5h3.2v1.3h-8v-1.3h3.4v-3.5h-2.7v-1.2h2.7v-3.1h-3v-1.3
		C603.4,87.5,606.4,87.5,606.4,87.5z"/>
	<path class="st3" d="M624.4,98.1h-1.3v-0.5H614v0.5h-1.3V85.7h11.7V98.1L624.4,98.1z M623.1,96.4v-9.6H614v9.6H623.1z M618.2,87.2
		c-0.1,0.2-0.2,0.4-0.3,0.6h3.6v0.9c-0.3,0.7-0.9,1.3-1.6,1.8c0.9,0.4,1.8,0.7,3,1l-0.7,1c-1.3-0.4-2.4-0.8-3.4-1.3
		c-1.1,0.5-2.4,1-3.9,1.3l-0.6-1.1c1.3-0.2,2.5-0.5,3.4-0.9c-0.4-0.3-0.8-0.6-1.2-1c-0.4,0.3-0.8,0.7-1.3,1l-0.7-1
		c1.2-0.7,2.1-1.6,2.5-2.6L618.2,87.2z M621.4,95.2l-0.4,1.1c-1.7-0.6-3.5-1.1-5.4-1.5l0.5-1C617.9,94.1,619.7,94.6,621.4,95.2z
		 M620.6,93.1l-0.6,1c-1-0.5-2-1-3.1-1.3l0.6-0.9C618.6,92.2,619.7,92.6,620.6,93.1z M620.2,88.8h-2.9c0,0-0.1,0-0.1,0.1
		c0.4,0.4,1,0.8,1.6,1.1C619.4,89.6,619.8,89.2,620.2,88.8z"/>
	<path class="st3" d="M629.6,96c0.4,0.5,0.9,1,1.3,1.5l-0.9,0.8c-0.4-0.5-0.8-1-1.2-1.5c-0.5-0.5-1-1-1.6-1.5l0.8-0.7
		C628.5,95,629.1,95.4,629.6,96z"/>
	<path class="st3" d="M640.8,91.5l-0.9-1.1c0.9-1.3,1.5-3,1.8-5.2l1.3,0.2c-0.1,0.7-0.3,1.3-0.4,2h2.5v1c-0.4,0.9-0.8,1.6-1.2,2.1
		l-0.9-0.8c0.3-0.3,0.5-0.7,0.8-1.2h-1.5C641.8,89.8,641.3,90.7,640.8,91.5z M643.2,90.3v5.8c0.6-0.3,1.1-0.7,1.7-1.2l0.2,1.2
		c-0.9,0.6-1.9,1.2-3,1.6l-0.5-1.1c0.2-0.1,0.3-0.4,0.3-0.7v-5.7L643.2,90.3L643.2,90.3z M648.5,87.2l-0.9,0.4h2.1
		c0.5-0.8,0.9-1.7,1.2-2.7l1.2,0.4c-0.3,0.8-0.7,1.6-1.1,2.2h1.6v1.2h-1.3v3h1.6v1.2h-1.6v4.9H650v-4.9h-2c-0.2,2.2-1,3.9-2.3,5
		l-1-0.9c1.1-0.9,1.8-2.3,2-4.1h-1.6v-1.2h1.6v-3h-1.3v-1.2h1.8c-0.4-0.8-0.8-1.5-1.2-2.1l1.1-0.5C647.6,85.7,648.1,86.5,648.5,87.2
		z M648.1,91.9h1.9v-3h-1.9V91.9z"/>
	<path class="st3" d="M666.4,98.1h-1.3v-0.5H656v0.5h-1.3V85.7h11.7V98.1L666.4,98.1z M665.1,96.4v-9.6H656v9.6H665.1z M660.2,87.2
		c-0.1,0.2-0.2,0.4-0.3,0.6h3.6v0.9c-0.3,0.7-0.9,1.3-1.6,1.8c0.9,0.4,1.8,0.7,3,1l-0.7,1c-1.3-0.4-2.4-0.8-3.4-1.3
		c-1.1,0.5-2.4,1-3.9,1.3l-0.6-1.1c1.3-0.2,2.5-0.5,3.4-0.9c-0.4-0.3-0.8-0.6-1.2-1c-0.4,0.3-0.8,0.7-1.3,1l-0.7-1
		c1.2-0.7,2.1-1.6,2.5-2.6L660.2,87.2z M663.4,95.2l-0.4,1.1c-1.7-0.6-3.5-1.1-5.4-1.5l0.5-1C659.9,94.1,661.7,94.6,663.4,95.2z
		 M662.6,93.1l-0.6,1c-1-0.5-2-1-3.1-1.3l0.6-0.9C660.6,92.2,661.7,92.6,662.6,93.1z M662.2,88.8h-2.9c0,0-0.1,0-0.1,0.1
		c0.4,0.4,1,0.8,1.6,1.1C661.4,89.6,661.8,89.2,662.2,88.8z"/>
	<path class="st3" d="M671.6,96c0.4,0.5,0.9,1,1.3,1.5l-0.9,0.8c-0.4-0.5-0.8-1-1.2-1.5c-0.5-0.5-1-1-1.6-1.5l0.8-0.7
		C670.5,95,671.1,95.4,671.6,96z"/>
	<path class="st3" d="M685.6,85.6c-0.7,1.7-1.3,3.1-2,4.1c0.5-0.1,1-0.1,1.5-0.2c0.3-0.5,0.5-1,0.8-1.5l1.2,0.4
		c-1.1,2.2-2.1,3.8-2.9,4.8c0.9-0.2,1.8-0.4,2.7-0.8v1.2c-1.5,0.5-2.9,0.9-4.3,1l-0.4-1.2c0.2-0.1,0.4-0.2,0.6-0.4
		c0.4-0.5,1-1.3,1.6-2.4c-0.7,0.1-1.4,0.2-2.1,0.3l-0.3-1.2c0.2-0.1,0.4-0.3,0.5-0.5c0.7-1.3,1.2-2.7,1.8-4.2L685.6,85.6z
		 M687.1,96.3c-1.4,0.5-2.9,1-4.7,1.3l-0.2-1.3c1.8-0.3,3.5-0.7,4.8-1.2v1.2H687.1z M694.1,88.7l-3.5,0.5c0,0.6,0.1,1.1,0.1,1.6
		l3.6-0.6l0.2,1.3l-3.6,0.6l0.1,0.4c0.1,0.7,0.3,1.2,0.4,1.8c0.6-0.6,1.2-1.3,1.8-2.1l1.1,0.7c-0.7,1-1.4,1.9-2.3,2.6
		c0.4,0.6,0.8,1,1.1,1s0.6-0.7,0.8-2l1.1,0.8c-0.4,1.8-1,2.7-1.8,2.7c-0.7,0-1.4-0.4-2-1.3c-0.1-0.1-0.2-0.3-0.3-0.4
		c-1,0.7-2.1,1.3-3.2,1.6l-0.8-1.1c1.3-0.4,2.4-1,3.4-1.7c-0.3-0.6-0.4-1.2-0.6-1.9c-0.1-0.3-0.1-0.6-0.2-0.9l-2.4,0.4l-0.2-1.3
		l2.4-0.4c-0.1-0.5-0.1-1.1-0.1-1.6l-1.9,0.3l-0.2-1.2l2-0.3v-3h1.3V88l3.3-0.5L694.1,88.7z M693.7,86.7l-1,0.7
		c-0.4-0.5-0.9-1.1-1.5-1.7l1-0.6C692.8,85.7,693.3,86.3,693.7,86.7z"/>
	<path class="st3" d="M708.4,98.1h-1.3v-0.5H698v0.5h-1.3V85.7h11.7V98.1L708.4,98.1z M707.1,96.4v-9.6H698v9.6H707.1z M702.2,87.2
		c-0.1,0.2-0.2,0.4-0.3,0.6h3.6v0.9c-0.3,0.7-0.9,1.3-1.6,1.8c0.9,0.4,1.8,0.7,3,1l-0.7,1c-1.3-0.4-2.4-0.8-3.4-1.3
		c-1.1,0.5-2.4,1-3.9,1.3l-0.6-1.1c1.3-0.2,2.5-0.5,3.4-0.9c-0.4-0.3-0.8-0.6-1.2-1c-0.4,0.3-0.8,0.7-1.3,1l-0.7-1
		c1.2-0.7,2.1-1.6,2.5-2.6L702.2,87.2z M705.4,95.2l-0.4,1.1c-1.7-0.6-3.5-1.1-5.4-1.5l0.5-1C701.9,94.1,703.7,94.6,705.4,95.2z
		 M704.6,93.1l-0.6,1c-1-0.5-2-1-3.1-1.3l0.6-0.9C702.6,92.2,703.7,92.6,704.6,93.1z M704.2,88.8h-2.9c0,0-0.1,0-0.1,0.1
		c0.4,0.4,1,0.8,1.6,1.1C703.4,89.6,703.8,89.2,704.2,88.8z"/>
	<path class="st3" d="M713.6,96c0.4,0.5,0.9,1,1.3,1.5l-0.9,0.8c-0.4-0.5-0.8-1-1.2-1.5c-0.5-0.5-1-1-1.6-1.5l0.8-0.7
		C712.5,95,713.1,95.4,713.6,96z"/>
	<path class="st3" d="M728.5,94.9c-1.3,0.6-2.7,1.1-4.2,1.5l-0.3-1.3c0.6-0.1,1.1-0.3,1.7-0.4V90h-1.5v-1.3h1.5v-3.5h1.3v3.5h1.3V90
		H727v4.2c0.5-0.2,1-0.4,1.5-0.7V94.9z M736.3,93.1c-0.2,0.6-0.8,0.9-1.9,0.9h-0.1l-0.4-1.3c0.3,0,0.5,0,0.7,0
		c0.3,0,0.4-0.2,0.5-0.4c0.1-0.3,0.1-1.2,0.1-2.8l-1.7,0.5v5.1h-1.3v-4.7l-1.7,0.5V96c0,0.4,0.2,0.6,0.7,0.6h3.8
		c0.2,0,0.4-0.1,0.5-0.3c0.1-0.2,0.2-0.8,0.3-1.9l1.2,0.4c-0.1,1.5-0.3,2.3-0.6,2.6c-0.3,0.3-0.7,0.4-1.2,0.4h-4.4
		c-1.1,0-1.6-0.5-1.6-1.6v-5l-1,0.3v-1.3l1-0.3v-3.4h1.3v3l1.7-0.5v-3.9h1.3v3.5l3-0.9C736.6,90.6,736.5,92.4,736.3,93.1z"/>
	<path class="st3" d="M750.4,98.1h-1.3v-0.5H740v0.5h-1.3V85.7h11.7V98.1L750.4,98.1z M749.1,96.4v-9.6H740v9.6H749.1z M744.2,87.2
		c-0.1,0.2-0.2,0.4-0.3,0.6h3.6v0.9c-0.3,0.7-0.9,1.3-1.6,1.8c0.9,0.4,1.8,0.7,3,1l-0.7,1c-1.3-0.4-2.4-0.8-3.4-1.3
		c-1.1,0.5-2.4,1-3.9,1.3l-0.6-1.1c1.3-0.2,2.5-0.5,3.4-0.9c-0.4-0.3-0.8-0.6-1.2-1c-0.4,0.3-0.8,0.7-1.3,1l-0.7-1
		c1.2-0.7,2.1-1.6,2.5-2.6L744.2,87.2z M747.4,95.2l-0.4,1.1c-1.7-0.6-3.5-1.1-5.4-1.5l0.5-1C743.9,94.1,745.7,94.6,747.4,95.2z
		 M746.6,93.1l-0.6,1c-1-0.5-2-1-3.1-1.3l0.6-0.9C744.6,92.2,745.7,92.6,746.6,93.1z M746.2,88.8h-2.9c0,0-0.1,0-0.1,0.1
		c0.4,0.4,1,0.8,1.6,1.1C745.4,89.6,745.8,89.2,746.2,88.8z"/>
	<path class="st3" d="M755.6,96c0.4,0.5,0.9,1,1.3,1.5l-0.9,0.8c-0.4-0.5-0.8-1-1.2-1.5c-0.5-0.5-1-1-1.6-1.5l0.8-0.7
		C754.5,95,755.1,95.4,755.6,96z"/>
	<path class="st3" d="M769.3,89.3v5.8c0.4-0.3,0.7-0.7,1.1-1.1l0.4,1.4c-0.8,0.8-1.7,1.5-2.6,2.2l-0.5-1.2c0.2-0.2,0.3-0.4,0.3-0.7
		v-5.1h-1.9v-1.3L769.3,89.3L769.3,89.3z M770.2,87.3l-0.9,0.9c-0.6-0.7-1.3-1.4-2.3-2.1l0.9-0.9C768.8,85.9,769.6,86.6,770.2,87.3z
		 M775.3,98l-0.3-1.3h1.6c0.4,0,0.6-0.2,0.6-0.7v-9.2h-6.5v-1.3h7.9v10.8c0,1-0.6,1.6-1.7,1.6L775.3,98L775.3,98z M776.4,88.2v1.3
		h-5.5v-1.3H776.4z M776,90.7v4.6h-4.6v-4.6H776z M774.7,91.9h-2.1v2.3h2.1V91.9z"/>
	<path class="st3" d="M792.8,89.7V91h-6.6c-1.2,2.4-2.3,4.1-3.2,5.2c2.3-0.1,4.6-0.4,6.9-0.7c-0.4-0.8-0.9-1.6-1.5-2.5l1.1-0.7
		c1.3,1.9,2.3,3.5,3,4.9l-1.2,0.8c-0.2-0.5-0.4-1-0.7-1.4c-2.8,0.4-5.9,0.7-9.2,0.9l-0.3-1.4c0.1,0,0.3-0.1,0.3-0.1
		c0.9-0.6,2-2.4,3.4-5.1h-4.5v-1.3L792.8,89.7L792.8,89.7z M791.6,85.9v1.3h-10.1v-1.3H791.6z"/>
	<path class="st3" d="M795.4,88.9l-1.1-0.7c0.8-1,1.4-2,1.7-3.1l1.3,0.3c-0.1,0.3-0.2,0.5-0.3,0.8h3.3v1.1h-2.2
		c0.3,0.4,0.6,0.8,0.8,1.2l-1.2,0.4c-0.3-0.6-0.6-1.1-1-1.6h-0.3C796.1,87.8,795.8,88.4,795.4,88.9z M799.8,89.2v-0.7h1.3v0.7h4v1.2
		h-4v1.1h5.6v1.1h-2.6v1.1h2v1.2h-2v1.9c0,0.9-0.5,1.3-1.4,1.3h-2l-0.3-1.3c0.6,0.1,1.2,0.1,1.8,0.1c0.4,0,0.6-0.2,0.6-0.5v-1.6H795
		v-1.2h7.8v-1.1h-8.6v-1.1h5.6v-1.1h-4.1v-1.2L799.8,89.2L799.8,89.2z M799.3,96.9l-1,0.7c-0.4-0.6-1-1.2-1.7-1.9l1.1-0.7
		C798.3,95.8,798.9,96.4,799.3,96.9z M801.4,88.4l-1.1-0.7c0.6-0.8,1-1.7,1.3-2.7l1.2,0.3c-0.1,0.3-0.2,0.5-0.2,0.7h3.8v1.1h-2.3
		c0.3,0.4,0.6,0.8,0.8,1.2l-1.1,0.4c-0.3-0.6-0.6-1.1-1-1.6h-0.7C801.9,87.6,801.7,88,801.4,88.4z"/>
</g>
<g>
	<path class="st3" d="M651,171.9h2.9c0,2.4-0.1,4-0.2,4.8c-0.2,0.8-0.9,1.2-2.2,1.3c-0.4,0-0.8,0-1.1-0.1l-0.3-1.3
		c0.4,0,0.8,0.1,1.2,0.1c0.7,0,1.1-0.2,1.2-0.7c0.1-0.4,0.2-1.4,0.2-2.9h-2.9l0.4-4.4h2.3v-1.8h-2.7v-1.3h4v4.4h-2.5L651,171.9z
		 M657.4,170.3v-0.9H655v-3.8h6.3v3.8h-2.4v0.9h2.9v4h-2.9v1.6c0.4-0.1,0.9-0.1,1.3-0.2c-0.1-0.3-0.3-0.6-0.4-1l1.3-0.4
		c0.5,1.2,0.9,2.2,1.1,3.2l-1.3,0.5c-0.1-0.4-0.2-0.7-0.3-1.1c-1.9,0.3-4,0.5-6.1,0.8l-0.3-1.4c1.1-0.1,2.2-0.2,3.2-0.3v-1.8h-2.9
		v-4L657.4,170.3L657.4,170.3z M657.4,171.5h-1.6v1.6h1.6V171.5z M659.9,166.8h-3.6v1.4h3.6V166.8z M660.4,171.5h-1.6v1.6h1.6V171.5
		z"/>
	<path class="st3" d="M668.9,168.6c0.1-0.7,0.1-1.5,0.2-2.3V165h1.5v0.9c0,0.9-0.1,1.8-0.2,2.6h5.6v1.4h-5.3c1,2.9,2.9,5.2,5.6,6.8
		l-0.9,1.2c-2.6-1.6-4.5-3.9-5.6-6.8c-1,3.1-2.8,5.4-5.6,6.9l-0.9-1.2c2.8-1.4,4.6-3.7,5.4-6.9h-5.1v-1.4L668.9,168.6L668.9,168.6z"
		/>
	<path class="st3" d="M682.6,177.2h-1.4v-0.7h-2.1v1.1h-1.4v-10.2h1.3c0.3-0.7,0.4-1.5,0.5-2.3l1.5,0.2c-0.2,0.8-0.4,1.5-0.6,2.1
		h2.1L682.6,177.2L682.6,177.2z M681.2,171.2v-2.5h-2.1v2.5H681.2z M681.2,175.2v-2.6h-2.1v2.6H681.2z M689.6,176.5
		c-0.1,1-0.8,1.5-2,1.5c-0.3,0-0.8,0-1.5-0.1l-0.4-1.3c0.6,0,1.2,0.1,1.6,0.1c0.5,0,0.8-0.3,0.9-0.8c0.1-0.7,0.1-3,0.2-6.9H685
		c-0.4,0.8-0.8,1.6-1.3,2.3l-0.9-1.2c0.9-1.3,1.5-2.9,1.9-4.9l1.4,0.2c-0.1,0.8-0.3,1.5-0.5,2.1h4.3
		C689.8,172.3,689.7,175.3,689.6,176.5z M687.2,173.8l-1.2,0.8c-0.5-0.9-1.2-1.9-2.1-3.1l1.2-0.7C686,171.9,686.7,172.9,687.2,173.8
		z"/>
	<path class="st3" d="M698.4,177.8c-1,0-1.7-0.1-2.3-0.2c-0.6-0.2-1.1-0.5-1.5-1c-0.2-0.2-0.4-0.4-0.6-0.4c-0.3,0-0.8,0.6-1.5,1.9
		l-1.1-1c0.7-1.1,1.3-1.9,1.9-2.2v-3.8h-1.9v-1.4h3.3v5.3c0.1,0.1,0.1,0.1,0.2,0.2c0.3,0.4,0.7,0.6,1,0.8c0.4,0.2,1.1,0.3,1.9,0.4
		c0.8,0,1.8,0,3,0c0.6,0,1.3,0,2,0s1.2-0.1,1.5-0.1l-0.4,1.5h-3C700.2,177.9,699.3,177.8,698.4,177.8z M695,167.4l-1.1,1.1
		c-0.5-0.7-1.3-1.5-2.3-2.3l1-1C693.6,166,694.4,166.7,695,167.4z M698.6,176l-0.3-1.4c0.6,0.1,1.2,0.1,1.8,0.1
		c0.4,0,0.6-0.2,0.6-0.6v-5.4h-5.2v-1.4h5.2v-2.1h1.5v2.1h1.9v1.4h-1.9v5.8c0,1-0.5,1.5-1.5,1.5L698.6,176L698.6,176z M699.2,172.3
		l-1.2,0.8c-0.5-0.8-1.1-1.7-1.9-2.8l1.1-0.7C698.1,170.6,698.7,171.5,699.2,172.3z"/>
	<path class="st3" d="M708.5,170.6l-1,1c-0.5-0.6-1.2-1.3-2.2-2.1l1-1C707.2,169.3,707.9,169.9,708.5,170.6z M708.5,172.9
		c-0.5,1.8-1.1,3.5-1.8,5l-1.4-0.6c0.7-1.6,1.3-3.2,1.9-4.9L708.5,172.9z M709,167.1l-1,1c-0.5-0.6-1.3-1.2-2.3-1.9l1-1
		C707.6,165.8,708.3,166.5,709,167.1z M714,165.1v0.7h3.5v1.2H714v0.7h3.9v0.6c-0.1,0.7-0.3,1.4-0.6,2.1L716,170
		c0.2-0.4,0.3-0.7,0.4-1.2h-2.9v0.8l2.1-0.3l0.2,1.1l-2.3,0.4v0.5c0,0.2,0.2,0.3,0.6,0.3h1.3c0.2,0,0.4,0,0.5-0.1s0.2-0.4,0.2-0.8
		l1.2,0.4c-0.1,0.8-0.3,1.3-0.5,1.5s-0.6,0.2-1.1,0.2h-1.9c-1,0-1.5-0.4-1.5-1.2V171l-1.3,0.2l-0.2-1.1l1.5-0.2v-1h-1.8v2.2
		c0,2.7-0.6,5-1.7,7l-1.1-1c1-1.6,1.5-3.6,1.5-6v-3.4h3.3v-2.6L714,165.1L714,165.1z M711.9,174.4c-0.3,1.3-0.6,2.4-1.1,3.3
		l-1.1-0.7c0.5-0.9,0.9-1.9,1.1-2.9L711.9,174.4z M713.6,178c-0.9,0-1.4-0.4-1.4-1.2V174h1.3v2.5c0,0.2,0.2,0.3,0.5,0.3h0.8
		c0.2,0,0.3-0.1,0.4-0.1s0.2-0.4,0.2-0.9l1.2,0.4c-0.1,0.9-0.3,1.5-0.5,1.6c-0.2,0.2-0.5,0.2-1,0.2H713.6L713.6,178z M715.9,174.7
		l-1,0.7c-0.5-0.7-0.9-1.4-1.4-1.9l0.9-0.7C714.9,173.5,715.4,174.1,715.9,174.7z M718.3,176.9l-1.1,0.6c-0.3-1.2-0.7-2.3-1.1-3.2
		l1.1-0.5C717.5,174.8,717.9,175.8,718.3,176.9z"/>
	<path class="st3" d="M720.7,169l-1.3-0.8c0.8-1,1.4-2,1.8-3.1l1.4,0.3c-0.1,0.2-0.1,0.4-0.2,0.6h3.3v1.3h-1.5
		c0.2,0.3,0.4,0.6,0.5,0.8l-1.3,0.5c-0.2-0.5-0.5-0.9-0.8-1.3h-0.9C721.5,167.9,721.1,168.5,720.7,169z M721.4,170.1v4.7H720v-4.7
		H721.4z M723.7,168.9v3.7c0,2.5-0.8,4.4-2.3,5.6l-1.1-1c1.3-1,2-2.5,2-4.6v-3.7H723.7L723.7,168.9z M724.3,170.3V169h7.7v1.3h-3.2
		v1h2.7v4c0,1-0.5,1.4-1.4,1.4h-0.7l-0.4-1.3h0.7c0.3,0,0.4-0.2,0.4-0.5v-2.4h-1.4v5.6h-1.4v-5.6H726v4.3h-1.3v-5.6h2.6v-1
		L724.3,170.3L724.3,170.3z M726.9,168.8l-1.2-0.8c0.7-0.9,1.2-1.8,1.5-2.8l1.4,0.3c-0.1,0.2-0.1,0.4-0.2,0.6h3.7v1.3h-1.8
		c0.2,0.3,0.4,0.6,0.5,0.8l-1.3,0.5c-0.2-0.5-0.5-0.9-0.8-1.4h-0.9C727.6,167.9,727.3,168.3,726.9,168.8z"/>
	<path class="st3" d="M740.2,177.8c-0.9,0-1.7-0.1-2.2-0.2c-0.6-0.2-1.1-0.5-1.5-1c-0.2-0.2-0.4-0.4-0.5-0.4c-0.3,0-0.8,0.6-1.5,1.9
		l-1.1-1c0.7-1.1,1.3-1.8,1.9-2.1v-3.8h-1.8v-1.3h3.2v5.3l0.2,0.2c0.3,0.4,0.6,0.6,1,0.8s1,0.3,1.9,0.4c0.8,0,1.8,0,2.8,0
		c0.7,0,1.4,0,2.1,0c0.7,0,1.3-0.1,1.7-0.1l-0.4,1.4h-3.2C741.9,177.9,741.1,177.8,740.2,177.8z M737,167.5l-1,1
		c-0.5-0.7-1.3-1.5-2.3-2.3l1-0.9C735.6,166,736.4,166.7,737,167.5z M742.7,165.1v1.6h2.6v1.4h-2.6v1.6h3.1v1.4h-2.2v3.3
		c0,0.2,0.1,0.3,0.4,0.3h0.2c0.1,0,0.2-0.1,0.3-0.1c0.1-0.1,0.2-0.6,0.2-1.5l1.3,0.4c-0.1,1.2-0.3,1.9-0.5,2.2
		c-0.2,0.2-0.5,0.3-1,0.3h-1c-0.4,0-0.8-0.1-1-0.3c-0.2-0.3-0.3-0.6-0.3-0.9v-3.6h-1.1c-0.1,0.9-0.2,1.7-0.4,2.3
		c-0.3,1.1-1.2,1.9-2.5,2.6l-0.9-1.1c1.1-0.5,1.8-1.2,2.1-2c0.2-0.5,0.3-1.1,0.4-1.8h-2.1v-1.4h3.6v-1.6h-1.9
		c-0.3,0.5-0.5,0.9-0.8,1.3l-1.3-0.8c0.8-1,1.3-2.1,1.6-3.3l1.4,0.3c-0.1,0.4-0.2,0.8-0.3,1.1h1.3v-1.6L742.7,165.1L742.7,165.1z"/>
	<path class="st3" d="M759.1,165.6v3.7h-1.6c0.2,0.3,0.4,0.7,0.6,1h1.9v1.3h-3.3c0.9,0.6,2,1.1,3.6,1.5l-0.6,1.2
		c-0.3-0.1-0.5-0.2-0.7-0.3v4h-1.3v-0.5h-2.1v0.5h-1.3v-4.6h3.2c-1-0.5-1.8-1.2-2.4-1.8h-2.2c-0.7,0.7-1.5,1.3-2.5,1.8h2.9v4.6H752
		v-0.5h-2v0.5h-1.3v-4c-0.3,0.1-0.5,0.2-0.8,0.3l-0.7-1.2c1.5-0.4,2.7-0.9,3.6-1.6h-3.3v-1.3h4.7c0.2-0.3,0.4-0.6,0.5-0.9l1.4,0.2
		c-0.1,0.3-0.2,0.5-0.4,0.8h2.9c-0.2-0.3-0.3-0.5-0.5-0.7l0.9-0.3h-2.7v-3.7H759.1L759.1,165.6z M753.2,165.6v3.7h-4.6v-3.7H753.2z
		 M751.8,166.8h-1.9v1.3h1.9V166.8z M751.9,176.3v-1.7H750v1.7H751.9z M757.7,176.3v-1.7h-2.1v1.7H757.7z M757.8,166.8h-2.1v1.3h2.1
		V166.8z"/>
</g>
<g>
	<path class="st3" d="M626,201.6h-1.3v-0.9H623v1.2h-1.3v-10.8h4.3V201.6L626,201.6z M624.7,195.2v-2.9H623v2.9H624.7z M624.7,199.5
		v-3H623v3H624.7z M628.7,202.9l-0.3-1.3c0.8,0,1.6,0.1,2.3,0.1c0.3,0,0.5-0.2,0.5-0.5v-7.3h-4.7v-1.3h4.7v-2.4h1.4v2.4h1.6v1.3
		h-1.6v7.6c0,1-0.5,1.4-1.4,1.4H628.7z M630.1,198.8l-1.1,0.8c-0.5-1-1.1-2.2-2-3.5l1.1-0.7C629,196.6,629.6,197.8,630.1,198.8z"/>
	<path class="st3" d="M637.3,192.5v10.6H636v-10.6H637.3z M640,192.5l-1.2,0.6c-0.5-1-1.1-1.8-1.7-2.6l1.2-0.5
		C639,190.8,639.5,191.6,640,192.5z M644.5,193.9v6.8h-5.6v-6.8H644.5z M643.3,196.7V195h-3.1v1.6L643.3,196.7L643.3,196.7z
		 M643.3,197.8h-3.1v1.6h3.1V197.8z M644.8,203l-0.3-1.2h1.2c0.4,0,0.6-0.3,0.6-0.8v-9H641v-1.2h6.6v10.6c0,1.1-0.5,1.6-1.6,1.6
		L644.8,203L644.8,203z"/>
	<path class="st3" d="M652.9,201c0.4,0.5,0.9,1,1.3,1.5l-0.9,0.8c-0.4-0.5-0.8-1-1.2-1.5c-0.5-0.5-1-1-1.6-1.5l0.8-0.7
		C651.8,200,652.3,200.4,652.9,201z"/>
	<path class="st3" d="M666.7,191.3v-1.2h1.4v1.2h3.4v-1.2h1.4v1.2h3.2v1.2h-3.2v1.2h-1.4v-1.2h-3.4v1.2h-1.4v-1.2h-3.2v-1.2H666.7z
		 M666.9,197.6l-0.9,0.9c-0.5-0.6-1.3-1.2-2.2-1.8l0.9-0.9C665.5,196.4,666.2,197,666.9,197.6z M667.2,199.4c-0.5,1.3-1.2,2.5-2,3.7
		l-1.2-0.6c0.9-1.2,1.6-2.4,2.1-3.6L667.2,199.4z M667.8,195.3l-0.9,0.9c-0.5-0.6-1.3-1.2-2.3-1.9l0.9-0.9
		C666.4,194.1,667.1,194.7,667.8,195.3z M669.9,195.2v5.7c0,0.4,0.2,0.6,0.7,0.6h2.7c0.6,0,1-0.1,1.1-0.4c0.2-0.3,0.3-0.8,0.4-1.7
		l1.3,0.4c-0.1,1.4-0.3,2.2-0.6,2.5s-0.9,0.4-1.7,0.4H670c-1,0-1.5-0.5-1.5-1.4v-7.4h6.3v3.9c0,0.8-0.4,1.1-1.3,1.2
		c-0.6,0-1.2,0-1.7,0l-0.3-1.2c0.6,0.1,1.1,0.1,1.5,0.1c0.3,0,0.5-0.2,0.5-0.4v-2.3L669.9,195.2L669.9,195.2z"/>
	<path class="st3" d="M689.6,203.1h-1.3v-0.5h-9.2v0.5h-1.3v-12.5h11.7L689.6,203.1L689.6,203.1z M688.3,201.4v-9.6h-9.2v9.6H688.3z
		 M683,193.1v-0.9h1.3v0.9h3.2v1.1h-3.2v0.8h2.6v1.1h-2.6v0.8h3.3c0,1.5-0.2,2.5-0.4,2.9s-0.7,0.6-1.5,0.6c-0.2,0-0.4,0-0.6-0.1
		l-0.4-1.1c0.3,0,0.6,0.1,0.8,0.1c0.4,0,0.6-0.1,0.7-0.2c0.1-0.1,0.1-0.5,0.1-1.1h-2.1v2.9H683V198h-3.3v-1h3.3v-0.8h-2.5v-1.1h2.5
		v-0.8h-3v-1.1L683,193.1L683,193.1z"/>
	<path class="st3" d="M694.9,201c0.4,0.5,0.9,1,1.3,1.5l-0.9,0.8c-0.4-0.5-0.8-1-1.2-1.5c-0.5-0.5-1-1-1.6-1.5l0.8-0.7
		C693.8,200,694.3,200.4,694.9,201z"/>
	<path class="st3" d="M709.6,192.2c-0.4-0.6-0.8-1.1-1.2-1.6l1.1-0.5c0.5,0.5,0.9,1.1,1.3,1.7l-0.8,0.4h2.8c0.4-0.7,0.8-1.4,1.1-2.2
		l1.3,0.5c-0.3,0.6-0.7,1.2-1,1.8h2.5v6h-4.3v1.1h5.6v1.3h-5.6v2.5h-1.3v-2.5h-5.6v-1.3h5.6v-1.1h-4.3v-6L709.6,192.2L709.6,192.2z
		 M711.1,194.7v-1.3h-3v1.3H711.1z M711.1,195.8h-3v1.3h3V195.8z M712.4,194.7h3v-1.3h-3V194.7z M715.5,195.8h-3v1.3h3V195.8z"/>
	<path class="st3" d="M726.2,202.8c-0.9,0-1.7-0.1-2.2-0.2c-0.6-0.2-1.1-0.5-1.5-1c-0.2-0.2-0.4-0.4-0.5-0.4c-0.3,0-0.8,0.6-1.5,1.9
		l-1-0.9c0.7-1.1,1.3-1.9,1.9-2.1v-4h-1.9v-1.2h3.1v5.3c0.1,0.1,0.1,0.1,0.2,0.2c0.3,0.4,0.7,0.7,1,0.8c0.4,0.2,1,0.3,1.9,0.4
		c0.8,0,1.7,0,2.8,0c0.7,0,1.4,0,2.1,0c0.7,0,1.2,0,1.6-0.1l-0.3,1.3h-3.2C727.9,202.8,727.1,202.8,726.2,202.8z M723,192.5
		l-0.9,0.9c-0.5-0.7-1.3-1.5-2.3-2.3l0.9-0.9C721.6,191,722.3,191.8,723,192.5z M728.6,190.1v1.7h2.7v1.3h-2.7v1.7h3.2v1.3h-2.3v3.4
		c0,0.2,0.1,0.4,0.4,0.4h0.3c0.1,0,0.3-0.1,0.4-0.1c0.1-0.1,0.2-0.6,0.2-1.6l1.2,0.4c-0.1,1.2-0.3,1.9-0.5,2.1
		c-0.2,0.2-0.5,0.3-1,0.3h-1c-0.4,0-0.7-0.1-0.9-0.3s-0.3-0.5-0.3-0.9v-3.7h-1.2c-0.1,0.9-0.2,1.7-0.4,2.4c-0.4,1.1-1.2,1.9-2.5,2.6
		l-0.9-1c1.1-0.5,1.8-1.2,2.2-2c0.2-0.5,0.3-1.2,0.4-2h-2.1v-1.3h3.6v-1.7h-2c-0.3,0.5-0.5,0.9-0.8,1.3l-1.1-0.7
		c0.8-1.1,1.3-2.2,1.6-3.4l1.3,0.3c-0.1,0.4-0.3,0.8-0.4,1.2h1.5v-1.7H728.6L728.6,190.1z"/>
	<path class="st3" d="M736.9,201c0.4,0.5,0.9,1,1.3,1.5l-0.9,0.8c-0.4-0.5-0.8-1-1.2-1.5c-0.5-0.5-1-1-1.6-1.5l0.8-0.7
		C735.8,200,736.3,200.4,736.9,201z"/>
	<path class="st3" d="M754.7,190.7c-0.2,0.2-0.4,0.4-0.6,0.6h3.7v1c-1.5,2.7-4.3,4.2-8.4,4.6l-0.6-1.2c1.2-0.1,2.2-0.2,3.2-0.5
		c-0.4-0.5-0.8-0.9-1.2-1.3l1.1-0.5c0.5,0.4,0.9,0.9,1.3,1.4c1.3-0.5,2.3-1.3,3.1-2.3h-3.8c-1.1,0.6-2.4,1.1-3.8,1.4l-0.8-1.2
		c2.5-0.4,4.3-1.3,5.5-2.6L754.7,190.7z M754.8,200.4c1.4-0.6,2.5-1.4,3.3-2.5h-3.8c-1.2,0.6-2.6,1-4.3,1.3l-0.8-1.2
		c3.1-0.3,5.3-1.2,6.7-2.7l1.1,0.6c-0.3,0.3-0.5,0.5-0.8,0.7h3.6v1c-2,3.3-5.7,5-11.2,5.1l-0.5-1.3c2.1,0,3.9-0.2,5.5-0.7
		c-0.4-0.6-0.9-1.1-1.3-1.5l1.2-0.6C753.8,199.3,754.3,199.9,754.8,200.4z"/>
	<path class="st3" d="M768.2,202.8c-0.9,0-1.7-0.1-2.2-0.2c-0.6-0.2-1.1-0.5-1.5-1c-0.2-0.2-0.4-0.4-0.5-0.4c-0.3,0-0.8,0.6-1.5,1.9
		l-1-0.9c0.7-1.1,1.3-1.9,1.9-2.1v-4h-1.9v-1.2h3.1v5.3c0.1,0.1,0.1,0.1,0.2,0.2c0.3,0.4,0.7,0.7,1,0.8c0.4,0.2,1,0.3,1.9,0.4
		c0.8,0,1.7,0,2.8,0c0.7,0,1.4,0,2.1,0c0.7,0,1.2,0,1.6-0.1l-0.3,1.3h-3.2C769.9,202.8,769.1,202.8,768.2,202.8z M765,192.5
		l-0.9,0.9c-0.5-0.7-1.3-1.5-2.3-2.3l0.9-0.9C763.6,191,764.3,191.8,765,192.5z M770.6,190.1v1.7h2.7v1.3h-2.7v1.7h3.2v1.3h-2.3v3.4
		c0,0.2,0.1,0.4,0.4,0.4h0.3c0.1,0,0.3-0.1,0.4-0.1c0.1-0.1,0.2-0.6,0.2-1.6l1.2,0.4c-0.1,1.2-0.3,1.9-0.5,2.1
		c-0.2,0.2-0.5,0.3-1,0.3h-1c-0.4,0-0.7-0.1-0.9-0.3s-0.3-0.5-0.3-0.9v-3.7h-1.2c-0.1,0.9-0.2,1.7-0.4,2.4c-0.4,1.1-1.2,1.9-2.5,2.6
		l-0.9-1c1.1-0.5,1.8-1.2,2.2-2c0.2-0.5,0.3-1.2,0.4-2h-2.1v-1.3h3.6v-1.7h-2c-0.3,0.5-0.5,0.9-0.8,1.3l-1.1-0.7
		c0.8-1.1,1.3-2.2,1.6-3.4l1.3,0.3c-0.1,0.4-0.3,0.8-0.4,1.2h1.5v-1.7H770.6L770.6,190.1z"/>
	<path class="st3" d="M776.6,193.9l-1.1-0.7c0.8-1,1.4-2,1.7-3.1l1.3,0.3c-0.1,0.3-0.2,0.5-0.3,0.8h3.3v1.1h-2.2
		c0.3,0.4,0.6,0.8,0.8,1.2l-1.2,0.4c-0.3-0.6-0.6-1.1-1-1.6h-0.3C777.4,192.8,777,193.4,776.6,193.9z M781.1,194.2v-0.7h1.3v0.7h4
		v1.2h-4v1.1h5.6v1.1h-2.6v1.1h2v1.2h-2v1.9c0,0.9-0.5,1.3-1.4,1.3h-2l-0.3-1.3c0.6,0.1,1.2,0.1,1.8,0.1c0.4,0,0.6-0.2,0.6-0.5v-1.6
		h-7.8v-1.2h7.8v-1.1h-8.6v-1.1h5.6v-1.1H777v-1.2h4.1V194.2z M780.5,201.9l-1,0.7c-0.4-0.6-1-1.2-1.7-1.9l1.1-0.7
		C779.6,200.8,780.1,201.4,780.5,201.9z M782.7,193.4l-1.1-0.7c0.6-0.8,1-1.7,1.3-2.7l1.2,0.3c-0.1,0.3-0.2,0.5-0.2,0.7h3.8v1.1
		h-2.3c0.3,0.4,0.6,0.8,0.8,1.2l-1.1,0.4c-0.3-0.6-0.6-1.1-1-1.6h-0.7C783.2,192.6,782.9,193,782.7,193.4z"/>
</g>
<g>
	<path class="st3" d="M589.5,19.2c-0.1,0.2-0.2,0.4-0.2,0.6h2.8V21c-0.2,0.8-0.7,1.5-1.3,2.2c0.5,0.2,1.1,0.5,1.6,0.8l-0.8,1.1
		c-0.5-0.3-1.2-0.7-1.9-1c-0.9,0.6-2.1,1.1-3.5,1.4l-0.7-1.2c1-0.2,1.9-0.5,2.6-0.9c-0.6-0.2-1.2-0.5-1.8-0.7
		c0.3-0.6,0.6-1.1,0.9-1.6h-1.4v-1.2h1.9c0.1-0.3,0.2-0.5,0.3-0.8L589.5,19.2z M588.5,15v-2.5h1.3V15h2.4v1.3h-2.4l0,0
		c0.7,0.3,1.5,0.6,2.2,1l-0.8,1.1c-0.6-0.5-1.1-0.8-1.5-1.1v1.5h-1.3v-2.2c-0.5,1-1.2,1.8-2.2,2.5l-0.7-1.2c0.9-0.5,1.6-1.1,2-1.7
		h-1.7V15C585.9,15,588.5,15,588.5,15z M588,14.4l-1,0.5c-0.3-0.7-0.6-1.3-0.9-1.8l1.1-0.4C587.5,13.2,587.8,13.8,588,14.4z
		 M590.8,21h-2.1c-0.2,0.4-0.4,0.7-0.6,1.1c0.4,0.1,0.9,0.3,1.3,0.5C590,22.1,590.5,21.6,590.8,21z M592.2,13.2
		c-0.3,0.6-0.6,1.2-1.1,1.7l-1-0.5c0.4-0.6,0.8-1.1,1.1-1.7L592.2,13.2z M593.5,18.5c-0.2,0.5-0.4,0.9-0.7,1.3l-0.9-1.1
		c0.8-1.5,1.3-3.6,1.6-6.2l1.4,0.3c-0.1,0.6-0.2,1.2-0.3,1.7h3.5v1.4h-0.8c-0.1,2.3-0.5,4.2-1.2,5.8c0.7,1.1,1.5,2,2.4,2.6l-0.8,1.2
		c-0.9-0.6-1.6-1.5-2.3-2.5c-0.7,1-1.5,1.8-2.4,2.5l-0.8-1.2c1-0.7,1.8-1.5,2.4-2.6C594.3,20.7,593.9,19.7,593.5,18.5z M594.2,16.5
		c0.3,1.4,0.7,2.6,1.1,3.7c0.4-1.2,0.7-2.6,0.7-4.2h-1.7C594.3,16.1,594.3,16.3,594.2,16.5z"/>
	<path class="st3" d="M600.1,25.3l-0.3-1.4c0.3,0.1,0.7,0.1,1,0.1s0.4-0.2,0.4-0.5v-2.8c-0.5,0.2-0.9,0.3-1.4,0.5l-0.4-1.4
		c0.6-0.1,1.2-0.3,1.8-0.5v-2.8h-1.5V15h1.5v-2.5h1.4V15h1.2v1.4h-1.2v2.2c0.4-0.2,0.8-0.4,1.1-0.6v1.4c-0.4,0.2-0.8,0.4-1.1,0.6
		v3.8c0,1-0.5,1.4-1.4,1.4L600.1,25.3L600.1,25.3z M604.2,25.5l-1.1-1c0.9-1.8,1.4-4.1,1.4-6.9v-4.7h7.7v3.7h-2.5V18h2.8v1.3h-2.8
		v1.3h2.2v4.8h-1.3v-0.6h-3.2v0.6h-1.3v-4.8h2.2v-1.3h-2.4C605.6,21.6,605,23.7,604.2,25.5z M605.8,16.6v0.9c0,0.1,0,0.3,0,0.4h2.3
		v-1.3H605.8z M605.8,14.3v1.1h4.8v-1.1C610.6,14.3,605.8,14.3,605.8,14.3z M610.4,23.6v-1.7h-3.2v1.7H610.4z"/>
	<path class="st3" d="M614.6,25.5l-1.2-1.1c0.9-1.8,1.3-4,1.3-6.8v-4.7h10.8v3.7h-1.9v1h2.1V19h-2.1v1h2.5v1.3h-1.4l0.8,0.8
		c-0.4,0.5-0.8,0.9-1.3,1.2c0.7,0.4,1.4,0.6,2.3,0.8l-0.7,1.4c-2.5-0.7-4.3-2.1-5.4-4.2h-1.7v2.5c0.8-0.2,1.5-0.4,2.1-0.7l0.3,1.3
		c-1.2,0.4-2.5,0.7-4.1,1l-0.4-1.3c0.4-0.2,0.7-0.5,0.7-1v-1.9h-1.6C615.6,22.9,615.2,24.2,614.6,25.5z M618.4,17.7v-1h-2.2v1
		c0,0.8,0,1.6-0.1,2.4h2.3V19h-1.9v-1.3H618.4z M616.2,14.3v1.1h7.9v-1.1C624.1,14.3,616.2,14.3,616.2,14.3z M619.8,16.7v1h2.4v-1
		H619.8z M622.2,20v-1h-2.4v1H622.2z M623.1,22.6c0.5-0.3,0.9-0.7,1.3-1.2H622C622.3,21.8,622.7,22.2,623.1,22.6z"/>
	<path class="st3" d="M629.3,17.5v-2.9h-1.6v-1.4h4.7v1.4h-1.6v2.9h1.4v1.4h-1.4v2.6c0.5-0.2,1.1-0.4,1.6-0.6v1.4
		c-1.4,0.6-2.9,1-4.5,1.4l-0.3-1.4c0.6-0.1,1.2-0.2,1.7-0.4v-3.1h-1.4v-1.4L629.3,17.5L629.3,17.5z M637.6,25.2
		c-0.9,0-1.4-0.5-1.4-1.4V22c-0.2,0.4-0.3,0.8-0.6,1.1c-0.7,1.1-1.8,1.9-3.4,2.5l-0.8-1.2c1.5-0.6,2.6-1.3,3.1-2.2
		c0.5-0.9,0.8-2.2,0.9-3.6v-3.3h1.4v3.3c0,0.9-0.1,1.6-0.3,2.3h1.1v2.6c0,0.3,0.1,0.4,0.3,0.4h0.8c0.2,0,0.3-0.1,0.3-0.2
		c0.1-0.2,0.1-0.6,0.2-1.4l1.4,0.4c-0.1,1.2-0.3,1.9-0.5,2.2c-0.3,0.2-0.6,0.3-1.1,0.3L637.6,25.2L637.6,25.2z M639.5,20.9H638v-6.5
		h-3.6v6.5H633V13h6.6L639.5,20.9L639.5,20.9z"/>
</g>
<g>
	<polygon class="st4" points="569,129 573,133 569,137 	"/>
	<line class="st5" x1="571" y1="133" x2="527" y2="133"/>
</g>
<g>
	<polygon class="st4" points="393,129 397,133 393,137 	"/>
	<line class="st5" x1="395" y1="133" x2="351" y2="133"/>
</g>
<g>
	<polygon class="st4" points="183,129 187,133 183,137 	"/>
	<line class="st5" x1="185" y1="133" x2="125" y2="133"/>
</g>
</svg>
