<?xml version="1.0" encoding="utf-8"?>
<!-- Generator: Adobe Illustrator 22.1.0, SVG Export Plug-In . SVG Version: 6.00 Build 0)  -->
<svg version="1.1" id="svgwrapper_svg" xmlns="http://www.w3.org/2000/svg" xmlns:xlink="http://www.w3.org/1999/xlink" x="0px"
	 y="0px" width="810px" height="551px" viewBox="0 0 810 551" style="enable-background:new 0 0 810 551;" xml:space="preserve">
<style type="text/css">
	.st0{fill:#EAEBEC;}
	.st1{display:none;fill:none;stroke:#999999;}
	.st2{fill:#888888;}
	.st3{fill:#FF0000;fill-opacity:0;}
	.st4{enable-background:new    ;}
	.st5{fill:#444444;}
	.st6{opacity:0.6;fill:#BBBBBB;enable-background:new    ;}
	.st7{fill:#FFFFFF;}
	.st8{fill:#E5E5E5;}
</style>
<rect x="26.5" y="16.1" class="st0" width="742.4" height="106"/>
<path class="st1" d="M512.4,429l170.4-288.9"/>
<rect x="274.7" y="148.1" class="st0" width="241.3" height="237.3"/>
<g id="middlegroup" transform="translate(0,0)">
	<g id="Link8" transform="translate(0,0)">
		<rect x="125.2" y="122.6" class="st2" width="1" height="20"/>
		<g transform="translate(0, 0.5)">
			<polygon class="st2" points="121.2,137.6 125.7,143.6 130.2,137.6 			"/>
		</g>
		<rect x="118.2" y="122.6" class="st3" width="15" height="20"/>
	</g>
	<g id="Link10" transform="translate(0,0)">
		<rect x="395.6" y="122.6" class="st2" width="1" height="20"/>
		<g transform="translate(0, 0.5)">
			<polygon class="st2" points="391.6,137.6 396.1,143.6 400.6,137.6 			"/>
		</g>
		<rect x="388.6" y="122.6" class="st3" width="15" height="10"/>
		<path class="st3" d="M396.1,132.6"/>
		<rect x="388.6" y="132.6" class="st3" width="15" height="10"/>
	</g>
	<g id="Link11" transform="translate(0,0)">
		<polygon class="st2" points="270.9,267.1 125.2,267.1 125.2,196.6 126.2,196.6 126.2,266.1 270.9,266.1 		"/>
		<g transform="translate(0.5, 0)">
			<polygon class="st2" points="265.9,271.1 271.9,266.6 265.9,262.1 			"/>
		</g>
		<rect x="118.2" y="196.6" class="st3" width="15" height="70.1"/>
		<rect x="125.7" y="259.1" class="st3" width="145.2" height="15"/>
	</g>
	<g id="Link14" transform="translate(0,0)">
		<rect x="394.6" y="384.9" class="st2" width="1" height="8"/>
		<g transform="translate(0, 0.5)">
			<polygon class="st2" points="390.6,387.9 395.1,393.9 399.6,387.9 			"/>
		</g>
		<rect x="387.6" y="384.9" class="st3" width="15" height="4"/>
		<path class="st3" d="M395.1,388.9"/>
		<rect x="387.6" y="388.9" class="st3" width="15" height="4"/>
	</g>
	<g id="Link15" transform="translate(0,0)">
		<rect x="394.6" y="447" class="st2" width="1" height="15"/>
		<g transform="translate(0, 0.5)">
			<polygon class="st2" points="390.6,457 395.1,463 399.6,457 			"/>
		</g>
		<rect x="387.6" y="447" class="st3" width="15" height="8"/>
		<path class="st3" d="M395.1,455"/>
		<rect x="387.6" y="455" class="st3" width="15" height="7"/>
	</g>
	<g id="Link9" transform="translate(0,0)">
		<rect x="665.9" y="122.6" class="st2" width="1" height="20"/>
		<g transform="translate(0, 0.5)">
			<polygon class="st2" points="661.9,137.6 666.4,143.6 670.9,137.6 			"/>
		</g>
		<rect x="658.9" y="122.6" class="st3" width="15" height="20"/>
	</g>
	<g id="Link16" transform="translate(0,0)">
		<polygon class="st2" points="666.9,492.5 495.2,492.5 495.2,491.5 665.9,491.5 665.9,201.6 666.9,201.6 		"/>
		<g transform="translate(0, -0.5)">
			<polygon class="st2" points="670.9,206.6 666.4,200.6 661.9,206.6 			"/>
		</g>
		<rect x="495.2" y="484.5" class="st3" width="171.2" height="15"/>
		<rect x="658.9" y="201.6" class="st3" width="15" height="290.4"/>
	</g>
</g>
<g transform="translate(342,9)">
	<g class="st4">
		<path class="st5" d="M-286.7,18.7v11.1h2V18.7h1v11.1h4.2v1h-12.4v-1h4.2V18.7H-286.7z M-288.7,27.8l-0.9,0.2
			c-0.5-2.2-1.1-4.4-1.9-6.5l0.9-0.3C-289.9,23.1-289.3,25.3-288.7,27.8z M-279.8,21.5c-0.6,2.4-1.3,4.6-2.1,6.4l-0.9-0.3
			c0.8-1.7,1.5-3.8,2.1-6.3L-279.8,21.5z"/>
		<path class="st5" d="M-272.8,18.7c-0.2,0.4-0.3,0.7-0.5,1.1h6.1v0.8c-0.9,1-2,1.9-3.3,2.7c1.6,0.7,3.4,1.1,5.3,1.3l-0.5,0.9
			c-2.2-0.3-4.2-0.8-5.9-1.7c-1.7,0.8-3.7,1.4-6,1.7l-0.5-1c2-0.3,3.8-0.7,5.4-1.3c-0.8-0.5-1.5-1-2.2-1.6c-0.5,0.5-1.1,0.9-1.8,1.3
			l-0.6-0.8c1.7-1,2.8-2.1,3.4-3.5L-272.8,18.7z M-271.5,24.8c0,0.6-0.1,1.1-0.1,1.6h4.9c0,2.4-0.2,3.8-0.6,4.2
			c-0.4,0.5-1.1,0.7-2.1,0.7c-0.4,0-1,0-1.6-0.1l-0.3-0.9l1.7,0.1c0.8,0,1.4-0.2,1.6-0.5s0.3-1.2,0.4-2.6h-4.2
			c-0.1,0.4-0.3,0.7-0.4,1.1c-0.7,1.3-2.4,2.3-4.9,3.1l-0.7-0.8c2.3-0.7,3.8-1.5,4.6-2.6c0.2-0.3,0.3-0.5,0.4-0.8h-4.2v-0.9h4.5
			c0.1-0.5,0.2-1,0.2-1.6C-272.3,24.8-271.5,24.8-271.5,24.8z M-268.7,20.7h-5.4l-0.2,0.2c0.8,0.7,1.7,1.3,2.6,1.8
			C-270.5,22.1-269.5,21.5-268.7,20.7z"/>
		<path class="st5" d="M-259.7,28c-1,1.1-2.1,2.1-3.5,3l-0.6-0.8c1.4-0.8,2.5-1.8,3.4-2.8L-259.7,28z M-259.7,31.4l-0.2-1
			c0.5,0,1,0.1,1.4,0.1c0.3,0,0.5-0.2,0.5-0.5v-3.5c-1.3,0.1-2.8,0.2-4.4,0.3l-0.3-0.9c0.3,0,0.6-0.1,0.9-0.2
			c1.2-0.5,2.5-1.3,3.9-2.4c-1.2,0.1-2.5,0.2-3.9,0.3l-0.2-0.9c0.3,0,0.5-0.1,0.7-0.2c0.7-0.4,1.5-1,2.5-2.1
			c-1.3,0.1-2.5,0.1-3.9,0.1l-0.3-0.9c4,0,7.4-0.3,10-0.9l0.5,0.9c-1.4,0.3-3.1,0.6-5.1,0.7c-0.9,1-1.8,1.8-2.7,2.4
			c1.1-0.1,2.3-0.1,3.4-0.2c0.7-0.5,1.3-1.1,2-1.7l0.9,0.5c-2.3,2.1-4.4,3.6-6.2,4.5c2.3-0.1,4.3-0.3,5.9-0.5
			c-0.3-0.4-0.7-0.9-1.1-1.3l0.8-0.5c1.1,1.3,2,2.5,2.6,3.5l-0.8,0.6c-0.3-0.5-0.6-1-0.9-1.4c-1,0.1-2,0.2-3.3,0.3v3.8
			c0,0.8-0.4,1.2-1.2,1.2L-259.7,31.4C-259.7,31.5-259.7,31.4-259.7,31.4z M-251.5,30.4l-0.7,0.7c-0.9-1-2-2-3.5-3.2l0.7-0.6
			C-253.6,28.3-252.4,29.4-251.5,30.4z"/>
		<path class="st5" d="M-246.5,18.9c-0.7,1.8-1.5,3.3-2.2,4.3c0.6,0,1.3-0.2,1.9-0.3c0.2-0.4,0.5-0.9,0.7-1.5l0.9,0.4
			c-1.2,2.3-2.3,4-3.1,5c1-0.3,2-0.6,3-1v0.9c-1.5,0.6-2.9,1-4.2,1.2l-0.3-0.9c0.2-0.1,0.4-0.2,0.5-0.3c0.5-0.6,1.2-1.5,2-2.8
			c-0.8,0.1-1.6,0.2-2.3,0.4l-0.3-1c0.2-0.1,0.3-0.2,0.4-0.4c0.8-1.3,1.4-2.7,2-4.4L-246.5,18.9z M-245.3,29.2
			c-1.3,0.6-2.7,1.2-4.4,1.6l-0.1-1c1.7-0.4,3.2-0.9,4.5-1.5V29.2z M-242.7,25.3c-0.1,1.8-0.3,3.1-0.7,3.9c-0.4,0.9-1.1,1.6-2,2.2
			l-0.6-0.8c0.8-0.5,1.4-1.1,1.8-1.9c0.3-0.7,0.5-1.9,0.6-3.5L-242.7,25.3L-242.7,25.3z M-245,23.8c0.1,0,0.1-0.1,0.2-0.1
			c0.5-0.3,1.1-1.2,1.8-2.7h-2.4v-1h3.6c-0.2-0.5-0.4-1-0.6-1.4l1-0.2c0.2,0.5,0.4,1,0.6,1.6h3.2v1h-4.3c-0.6,1.2-1.2,2.1-1.6,2.7
			c1.3-0.1,2.6-0.3,3.9-0.5c-0.3-0.4-0.6-0.9-1-1.4l0.8-0.5c1,1.2,1.7,2.3,2.2,3.2l-0.8,0.5c-0.2-0.4-0.4-0.7-0.6-1.1
			c-1.7,0.3-3.6,0.5-5.7,0.6L-245,23.8z M-239.6,31.2c-0.8,0-1.3-0.4-1.3-1.2v-4.8h1v4.6c0,0.3,0.1,0.4,0.3,0.5h0.9
			c0.3,0,0.5-0.2,0.5-0.5c0.1-0.4,0.1-1,0.1-1.8l0.9,0.3c0,1.3-0.1,2.1-0.3,2.5c-0.2,0.3-0.6,0.4-1.2,0.5L-239.6,31.2L-239.6,31.2z"
			/>
	</g>
</g>
<g id="RectEndPoint2" transform="translate(42.799999999999955,85)">
	<rect x="-14.9" y="65.1" class="st6" width="200.3" height="49.1"/>
	<g>
		<rect x="-16.9" y="63.1" class="st7" width="200.3" height="49.1"/>
		<path class="st8" d="M183.9,112.7H-17.4V62.6h201.3L183.9,112.7L183.9,112.7z M-16.4,111.7h199.3V63.6H-16.4V111.7z"/>
	</g>
	<g transform="translate(72,9)">
		<g class="st4">
			<path class="st5" d="M-12.6,79.2c-0.1,0.3-0.2,0.5-0.3,0.8h2.9v0.8c-0.3,0.9-0.8,1.7-1.6,2.4c0.7,0.3,1.3,0.6,1.9,1l-0.4,0.7
				c-0.6-0.4-1.3-0.7-2.2-1.1c-0.9,0.6-2.1,1.2-3.5,1.6l-0.5-0.8c1.2-0.3,2.1-0.7,3-1.1c-0.6-0.3-1.3-0.5-1.9-0.8
				c0.4-0.6,0.7-1.2,1-1.8h-1.7V80h2c0.1-0.3,0.2-0.6,0.3-0.9L-12.6,79.2z M-13.1,75.3v-2.7h0.9v2.7h2.6v0.9h-2.6v0.2
				c0.8,0.4,1.5,0.8,2.3,1.3l-0.5,0.8c-0.7-0.6-1.3-1-1.8-1.3v1.7h-0.9v-2.7c-0.5,1.1-1.3,2.1-2.5,2.9l-0.5-0.8
				c1.1-0.6,1.8-1.3,2.3-2.1h-2v-0.9H-13.1z M-13.9,74.7l-0.7,0.3c-0.3-0.7-0.6-1.3-0.9-1.8l0.8-0.3C-14.5,73.4-14.2,74.1-13.9,74.7
				z M-10.8,80.9h-2.4c-0.2,0.5-0.5,0.9-0.8,1.3c0.6,0.2,1.1,0.4,1.6,0.6C-11.7,82.3-11.2,81.7-10.8,80.9z M-9.8,73.2
				c-0.3,0.7-0.6,1.3-1.1,1.8l-0.7-0.4c0.4-0.6,0.8-1.2,1.1-1.8L-9.8,73.2z M-8.3,77.9c-0.3,0.6-0.5,1.2-0.8,1.7l-0.6-0.7
				c0.8-1.6,1.4-3.7,1.7-6.4l1,0.2c-0.1,0.7-0.2,1.4-0.3,2h3.7v1h-0.9C-4.6,78-5,80-5.8,81.7c0.7,1.3,1.6,2.2,2.6,2.9l-0.5,0.8
				c-1-0.7-1.8-1.7-2.5-2.8c-0.7,1.1-1.5,2.1-2.6,2.8l-0.5-0.8c1.1-0.8,1.9-1.7,2.6-2.9C-7.4,80.7-7.9,79.3-8.3,77.9z M-7.8,76.4
				c0.4,1.6,0.8,3.1,1.4,4.2c0.5-1.4,0.8-3.1,0.9-5h-2.1L-7.8,76.4z"/>
			<path class="st5" d="M-1.7,85.3l-0.2-1c0.4,0,0.7,0.1,1.1,0.1s0.5-0.2,0.5-0.6v-3.4C-0.9,80.6-1.4,80.8-2,81l-0.3-1
				c0.6-0.2,1.3-0.4,1.9-0.6v-3.2h-1.7v-1h1.7v-2.6h1v2.7h1.3v1H0.6v2.8c0.4-0.2,0.9-0.4,1.3-0.6v1c-0.4,0.2-0.9,0.4-1.3,0.6v4.1
				c0,0.8-0.4,1.2-1.2,1.2L-1.7,85.3L-1.7,85.3z M2.1,85.4l-0.8-0.7c1-1.9,1.5-4.3,1.5-7.2v-4.4h7.4v3.4H7.6v1.7h3v0.9h-3v1.7H10
				v4.6H9.1v-0.7H5.3v0.7H4.4v-4.6h2.3v-1.7H3.8C3.5,81.6,3,83.7,2.1,85.4z M3.8,76.6v1c0,0.2,0,0.4,0,0.7h2.8v-1.7H3.8z M3.8,74.2
				v1.6h5.4v-1.6H3.8z M9,83.9v-2.2H5.2v2.2H9z"/>
			<path class="st5" d="M12.3,85.3l-0.2-1c0.4,0,0.7,0.1,1.1,0.1c0.4,0,0.6-0.2,0.6-0.5v-3.5c-0.6,0.2-1.1,0.4-1.7,0.6l-0.3-1
				c0.7-0.2,1.3-0.4,2-0.6v-3.2h-1.7v-1h1.7v-2.6h1v2.7h1.1v1h-1.2v2.6c0.4-0.2,0.8-0.4,1.2-0.6v1c-0.4,0.3-0.8,0.5-1.2,0.6v4.2
				c0,0.8-0.4,1.2-1.2,1.2C13.5,85.3,12.3,85.3,12.3,85.3z M20.2,78.6c-0.1,0.4-0.3,0.7-0.4,1.1h4.8v1H23c-0.2,1-0.6,1.9-1.3,2.6
				c1,0.4,1.9,0.9,2.8,1.4l-0.6,0.8c-0.8-0.5-1.8-1-2.9-1.6c-0.9,0.7-2.4,1.2-4.4,1.6l-0.4-0.9c1.6-0.3,2.9-0.7,3.8-1.2
				c-0.9-0.4-1.8-0.8-2.7-1.2c0.4-0.6,0.7-1.1,1-1.7h-1.9v-1h2.4c0.1-0.2,0.3-0.6,0.5-1L20.2,78.6z M19.6,77.1H21
				c0.4-0.7,0.7-1.4,1-2.2l1,0.3c-0.3,0.7-0.6,1.4-0.9,1.9h2.3v1h-7.8v-1h2.1c-0.3-0.6-0.6-1.2-0.9-1.7l0.8-0.4
				C19,75.7,19.3,76.3,19.6,77.1z M21,73.8h3.1v0.9h-7.2v-0.9h3c-0.2-0.4-0.3-0.8-0.5-1.2l1.1-0.2C20.7,72.9,20.8,73.3,21,73.8z
				 M19.2,80.7c-0.3,0.4-0.5,0.9-0.8,1.2c0.8,0.3,1.6,0.6,2.4,1c0.6-0.6,1.1-1.3,1.3-2.2H19.2z"/>
			<path class="st5" d="M29.3,73.2l0.8-0.5c1.2,0.9,2.3,2.5,3.2,4.7c1.3,3.4,3.1,5.7,5.3,7.1L38,85.2c-2.3-1.3-4.1-3.9-5.6-7.6
				c-0.1-0.2-0.2-0.4-0.2-0.6c-0.9,3.6-2.9,6.3-5.8,8.2l-0.6-0.9c3-2,5-4.8,5.8-8.6C31,74.8,30.2,73.8,29.3,73.2z"/>
		</g>
	</g>
</g>
<rect x="298.2" y="189.1" class="st6" width="200.3" height="50.1"/>
<g>
	<rect x="296.2" y="187.1" class="st7" width="200.3" height="50.1"/>
	<path class="st8" d="M497,237.6H295.7v-51.1H497V237.6L497,237.6z M296.7,236.6H496v-49.1H296.7V236.6z"/>
</g>
<rect x="298.2" y="253.1" class="st6" width="200.3" height="50.1"/>
<g>
	<rect x="296.2" y="251.1" class="st7" width="200.3" height="50.1"/>
	<path class="st8" d="M497,301.8H295.7v-51.1H497V301.8L497,301.8z M296.7,300.8H496v-49.1H296.7V300.8z"/>
</g>
<rect x="298.2" y="317.2" class="st6" width="200.3" height="50.1"/>
<g>
	<rect x="296.2" y="315.2" class="st7" width="200.3" height="50.1"/>
	<path class="st8" d="M497,365.9H295.7v-51.1H497V365.9L497,365.9z M296.7,364.9H496v-49.1H296.7V364.9z"/>
</g>
<g id="RectEndPoint7" transform="translate(582.8,85)">
	<rect x="-14.2" y="65.1" class="st6" width="200.3" height="49.1"/>
	<g>
		<rect x="-16.2" y="63.1" class="st7" width="200.3" height="49.1"/>
		<path class="st8" d="M184.5,112.7H-16.7V62.6h201.3v50.1C184.6,112.6,184.5,112.6,184.5,112.7z M-15.7,111.7h199.3V63.6H-15.7
			V111.7z"/>
	</g>
	<g transform="translate(72,9)">
		<g class="st4">
			<path class="st5" d="M-11.2,79.4c-0.4,0.2-0.9,0.4-1.3,0.6v4.1c0,0.8-0.4,1.2-1.2,1.2h-1.4l-0.2-1c0.4,0,0.8,0.1,1.1,0.1
				c0.4,0,0.6-0.2,0.6-0.5v-3.5c-0.5,0.2-1.1,0.4-1.7,0.5l-0.3-1c0.7-0.2,1.4-0.4,2-0.6v-3.2h-1.8v-1h1.8v-2.6h1v2.6h1.4v1h-1.4v2.8
				c0.4-0.2,0.9-0.4,1.3-0.6L-11.2,79.4L-11.2,79.4z M-8.9,85.4h-1v-8.2c-0.3,0.5-0.7,1-1.1,1.5l-0.3-1.1c1.2-1.5,1.9-3.2,2.4-5
				l1,0.2c-0.2,0.8-0.5,1.5-0.8,2.2h2.5c-0.2-0.7-0.5-1.5-0.8-2.2l1-0.3c0.3,0.8,0.6,1.6,0.8,2.3l-0.4,0.1h2.7v1h-2.4v2h2.2v1h-2.2
				v1.9h2.2v0.9h-2.2v2.1h2.6v1h-6.1L-8.9,85.4L-8.9,85.4z M-8.9,76.1V78h2.5v-1.9H-8.9z M-8.9,80.8h2.5v-1.9h-2.5V80.8z M-8.9,83.8
				h2.5v-2.1h-2.5V83.8z"/>
			<path class="st5" d="M3,76.6c0.2-0.4,0.3-0.7,0.5-1.1l1,0.2c-0.1,0.3-0.2,0.6-0.4,0.9h6.8v0.9H3.6c-0.4,0.7-0.9,1.4-1.5,2.1v5.9
				h-1v-5c-0.6,0.5-1.2,1-1.9,1.5l-0.6-0.8c1.7-1.1,3-2.4,3.9-3.8h-3.4v-0.8C-0.9,76.6,3,76.6,3,76.6z M2,73.7v-1h1v1h3.7v-1h1v1
				h3.2v0.9H7.7v1h-1v-1H3v1H2v-1h-3.2v-0.9H2z M8.7,79.4H4.1v-0.9h6v0.7c-0.6,0.5-1.4,1.1-2.2,1.6v0.6H11v1H7.9v1.9
				c0,0.8-0.4,1.1-1.1,1.1H5.2l-0.3-1c0.6,0,1.2,0.1,1.5,0.1s0.5-0.2,0.5-0.5v-1.6H3v-1h3.9v-0.8C7.5,80.2,8,79.9,8.7,79.4z"/>
			<path class="st5" d="M18.5,73.8v-1.3h1v1.3h5.3v0.9h-4.3c1.1,1,2.7,1.8,4.9,2.4l-0.5,1c-2.5-0.9-4.3-2-5.3-3.3h-0.1v2.6h-1v-2.6
				h-0.1c-1.1,1.3-2.9,2.5-5.3,3.4l-0.5-0.9c2.2-0.6,3.9-1.5,5-2.5h-4.3v-1C13.3,73.8,18.5,73.8,18.5,73.8z M24.9,84.2v0.9h-12v-0.9
				H24.9z M23.1,77.8V83h-8.4v-5.2H23.1z M22.2,80.1v-1.3h-6.4v1.3H22.2z M22.2,80.9h-6.4v1.2h6.4C22.2,82.2,22.2,80.9,22.2,80.9z"
				/>
			<path class="st5" d="M29.5,76.9v6.2c0.4-0.4,0.9-0.9,1.4-1.4l0.3,1.1c-0.8,0.8-1.7,1.5-2.6,2.2l-0.4-0.9c0.2-0.2,0.3-0.4,0.3-0.6
				v-5.7h-2v-0.9C26.5,76.9,29.5,76.9,29.5,76.9z M30.6,74.9l-0.7,0.7c-0.6-0.7-1.4-1.4-2.4-2.2l0.7-0.7
				C29.1,73.4,29.9,74.2,30.6,74.9z M33.8,72.8c-0.1,0.5-0.3,1-0.4,1.4h5.5c0,5.1-0.1,8.3-0.2,9.5c-0.1,1.2-0.8,1.8-2,1.8
				c-0.3,0-0.7,0-1.3,0l-0.2-0.9c0.6,0,1,0.1,1.4,0.1c0.6,0,1-0.4,1.1-1.2c0.1-0.9,0.2-3.6,0.2-8.1h-5c-0.5,0.9-1.1,1.8-1.9,2.5
				l-0.6-1.1c1.2-1.2,2-2.5,2.4-4.2L33.8,72.8z M36.1,76.8v6.4h-4.2v-6.4H36.1z M35.2,79.4v-1.9h-2.4v1.9H35.2z M35.2,80.3h-2.4v1.9
				h2.4C35.2,82.2,35.2,80.3,35.2,80.3z"/>
		</g>
	</g>
</g>
<g id="RectEndPoint12" transform="translate(311.79999999999995,335)">
	<rect x="-14.6" y="65.3" class="st6" width="200.3" height="49.1"/>
	<g>
		<rect x="-16.6" y="63.3" class="st7" width="200.3" height="49.1"/>
		<path class="st8" d="M184.2,112.9H-17.1V62.8h201.3V112.9z M-16.1,111.9h199.3V63.8H-16.1V111.9z"/>
	</g>
	<g transform="translate(72.0078125,9)">
		<g class="st4">
			<path class="st5" d="M-12.9,85.8h-1v-7c-0.4,1.3-1,2.5-1.7,3.6l-0.4-1.1c1-1.3,1.7-2.9,2.1-4.6l0,0h-1.6v-0.9h1.6V73h1v2.7h1.5
				v0.9h-1.5v0.9c0.6,0.7,1.2,1.6,1.9,2.5l-0.5,0.8c-0.5-0.9-1-1.7-1.3-2.2L-12.9,85.8L-12.9,85.8z M-8.2,83.8
				c-0.6,0.8-1.8,1.4-3.4,1.9l-0.4-0.8c1.4-0.4,2.4-0.9,3-1.6c0.1-0.2,0.3-0.4,0.4-0.6h-3.3v-0.9h3.7c0.1-0.3,0.2-0.7,0.3-1.1h-2.9
				v-4.3h6.7v4.2H-7c-0.1,0.4-0.1,0.7-0.2,1.1h4v0.9h-3.5c0.8,1,2,1.7,3.7,2.3l-0.7,0.8c-1.8-0.8-3.1-1.8-3.9-2.9
				C-7.8,83.2-8,83.6-8.2,83.8z M-9.5,74.2V73h0.9v1.1h2.3V73h1v1.1h2.2V75h-2.2v1.1h-1v-1h-2.3v1.1h-0.9v-1.1h-2v-0.9H-9.5z
				 M-5,78.2v-0.9h-4.9v0.9H-5z M-5,78.9h-4.9v1H-5V78.9z"/>
			<path class="st5" d="M4.1,81.9v-1.2h1v1.2h4.8v0.9H5.1v1.6h5.6v0.9H-1.6v-0.9h5.7v-1.6h-4.9v-0.9H4.1z M5.4,73.6v0.9H4v2.1h1.7
				v0.9H4v3.1H3v-3.1H1.2C1,78.9,0.5,80-0.4,80.8l-0.8-0.7c0.8-0.6,1.2-1.4,1.4-2.6h-1.7v-0.9h1.8v-2.1h-1.4v-0.9
				C-1.1,73.6,5.4,73.6,5.4,73.6z M1.2,76.6H3v-2.1H1.2V76.6z M7.5,73.8v4.8h-1v-4.8H7.5z M7.1,80.8l-0.2-1c0.6,0,1.2,0.1,1.8,0.1
				c0.3,0,0.5-0.2,0.5-0.6v-6.1h1v6.3c0,0.9-0.4,1.3-1.1,1.3C9.1,80.8,7.1,80.8,7.1,80.8z"/>
			<path class="st5" d="M15.1,78.2h1.5c0.4-0.8,0.8-1.6,1-2.5l0.9,0.3c-0.3,0.8-0.6,1.5-1,2.1h1.7v1h-7v-1h1.9
				c-0.3-0.7-0.5-1.4-0.9-2l0.9-0.3C14.5,76.4,14.9,77.2,15.1,78.2z M15.4,74.3c-0.2-0.5-0.3-0.9-0.5-1.3l1-0.2
				c0.2,0.4,0.3,0.9,0.5,1.4h2.9v1h-6.7v-1L15.4,74.3L15.4,74.3z M18.7,85.8h-1V85h-3.6v0.8h-1v-5.3h5.6
				C18.7,80.4,18.7,85.8,18.7,85.8z M17.7,83.9v-2.6h-3.6v2.6H17.7z M24.6,73.6v0.8c-0.5,1.4-0.9,2.8-1.5,4c1.1,1.3,1.6,2.4,1.6,3.3
				s-0.2,1.5-0.5,1.8C23.8,83.8,23,84,21.9,84l-0.3-1c0.4,0,0.7,0.1,1,0.1c0.5,0,0.8-0.1,1-0.3c0.1-0.2,0.2-0.5,0.2-1
				c0-0.8-0.6-1.9-1.7-3.3c0.4-1.2,0.9-2.5,1.3-4h-2.5v11.3h-1V73.6H24.6z"/>
			<path class="st5" d="M37.5,73.4v2.7h-4.9V77h3v0.8h-3v1h1.8c1.1-0.7,2-1.5,2.8-2.4l0.9,0.5c-0.7,0.7-1.4,1.3-2.3,1.9h3v0.9h-4.4
				c-0.7,0.4-1.5,0.7-2.3,1H37v5.1h-1v-0.6h-6v0.6h-1v-4.2c-0.6,0.2-1.3,0.3-2.1,0.5l-0.5-0.9c2.4-0.2,4.5-0.8,6.3-1.5h-6.2v-0.9
				h5.2v-1H28V77h3.7v-0.9h-4.1v-2.7H37.5z M30.7,74.2h-2.1v1.2h2.1C30.7,75.4,30.7,74.2,30.7,74.2z M36,81.6h-6v1.1h6V81.6z
				 M30.1,84.4h6v-1.1h-6C30.1,83.3,30.1,84.4,30.1,84.4z M33.6,74.2h-2v1.2h2V74.2z M36.6,74.2h-2.1v1.2h2.1
				C36.6,75.4,36.6,74.2,36.6,74.2z"/>
		</g>
	</g>
</g>
<g id="RectEndPoint13" transform="translate(311.79999999999995,404)">
	<rect x="-14.6" y="65.4" class="st6" width="200.3" height="49.1"/>
	<g>
		<rect x="-16.6" y="63.5" class="st7" width="200.3" height="49.1"/>
		<path class="st8" d="M184.2,113.1H-17.1V63h201.3V113.1z M-16.1,112.1h199.3V64H-16.1V112.1z"/>
	</g>
	<g transform="translate(70.59375,9)">
		<g class="st4">
			<path class="st5" d="M-11.2,74.4l3.9,10h-1.2l-1.1-2.8h-4.6l-1.1,2.8h-1.2l3.9-10H-11.2z M-9.9,80.8l-1.9-5h-0.1l-1.9,5H-9.9z"/>
			<path class="st5" d="M-0.8,72.9l-5,12.9h-1l5-12.9H-0.8z"/>
			<path class="st5" d="M5.2,74.4c0.9,0,1.7,0.2,2.2,0.7c0.5,0.4,0.8,1.1,0.8,1.9c0,0.6-0.2,1.1-0.4,1.5c-0.3,0.4-0.7,0.6-1.2,0.8
				c0.7,0.1,1.2,0.4,1.5,0.8c0.4,0.4,0.6,1,0.6,1.6c0,1-0.4,1.7-1,2.2c-0.6,0.4-1.4,0.6-2.4,0.6H0.9v-10L5.2,74.4
				C5.2,74.5,5.2,74.4,5.2,74.4z M1.9,78.8h3c0.7,0,1.2-0.2,1.6-0.4c0.4-0.3,0.6-0.7,0.6-1.3s-0.2-1-0.5-1.3
				c-0.4-0.3-0.9-0.4-1.6-0.4H1.9V78.8z M1.9,83.6h3.2c0.7,0,1.2-0.1,1.7-0.4s0.7-0.8,0.7-1.4s-0.2-1.1-0.6-1.4S5.9,80,5.1,80H1.9
				V83.6z"/>
			<path class="st5" d="M22.3,74.4v1h-3.5v9h-1.1v-9h-3.5v-1H22.3z"/>
			<path class="st5" d="M29.1,78.2c0.5,0.7,0.8,1.7,0.8,2.9h-5.7c0.1,0.8,0.3,1.5,0.7,1.9c0.4,0.4,0.9,0.7,1.6,0.7
				c0.6,0,1.1-0.2,1.4-0.4c0.3-0.3,0.5-0.6,0.7-1.1h1.1c-0.2,0.7-0.5,1.3-1,1.7c-0.6,0.5-1.4,0.8-2.3,0.8c-1,0-1.9-0.4-2.5-1
				c-0.6-0.7-1-1.6-1-2.8c0-1.1,0.3-2,0.9-2.7c0.6-0.8,1.4-1.1,2.5-1.1C27.6,77.1,28.5,77.4,29.1,78.2z M24.9,78.7
				c-0.4,0.4-0.6,1-0.7,1.7h4.5c-0.1-1.6-0.9-2.4-2.2-2.4C25.8,77.9,25.3,78.2,24.9,78.7z"/>
			<path class="st5" d="M36.8,79.2h-1.1c-0.1-0.4-0.3-0.8-0.6-1s-0.7-0.3-1.3-0.3c-0.5,0-0.9,0.1-1.2,0.3c-0.3,0.2-0.5,0.4-0.5,0.8
				c0,0.3,0.2,0.6,0.6,0.8c0.3,0.1,0.8,0.3,1.5,0.5c0.9,0.2,1.5,0.4,1.9,0.7c0.6,0.4,0.9,0.9,0.9,1.5c0,1.5-1,2.2-3.1,2.2
				c-1.9,0-2.9-0.8-3.1-2.5h1.1c0.1,0.6,0.3,1,0.6,1.2s0.8,0.3,1.4,0.3c1.3,0,1.9-0.4,1.9-1.2c0-0.4-0.2-0.7-0.7-0.9
				c-0.2-0.1-0.8-0.3-1.5-0.5c-0.9-0.2-1.5-0.4-1.8-0.6C31.3,80.1,31,79.6,31,79s0.3-1.1,0.8-1.5s1.2-0.5,2-0.5
				C35.6,77.1,36.6,77.8,36.8,79.2z"/>
			<path class="st5" d="M40.2,77.2H42v0.9h-1.8v4.6c0,0.3,0,0.5,0.2,0.6c0.1,0.1,0.3,0.2,0.5,0.2h1v0.9h-1.1c-0.6,0-1-0.2-1.3-0.5
				c-0.2-0.3-0.4-0.7-0.4-1.2v-4.6h-1.5v-0.9h1.5v-1.9l1.1-0.5C40.2,74.8,40.2,77.2,40.2,77.2z"/>
		</g>
	</g>
</g>
<g id="textgroup" transform="translate(0,0)">
</g>
<g id="assistantgroup" transform="translate(0,0)">
</g>
<g>
	<path class="st5" d="M292.6,173.4c-0.9,0-1.7-0.1-2.2-0.3c-0.6-0.2-1.1-0.5-1.5-1c-0.2-0.2-0.4-0.4-0.5-0.4c-0.3,0-0.9,0.6-1.7,1.9
		l-0.8-0.6c0.7-1.2,1.4-1.9,2-2.1v-4.3h-2v-0.9h2.9v5.2c0.1,0.1,0.2,0.2,0.4,0.3c0.3,0.4,0.7,0.7,1.1,0.9s1.1,0.3,1.9,0.3
		c0.7,0,1.7,0,2.8,0c0.6,0,1.3,0,2,0s1.2,0,1.6-0.1l-0.2,1h-3.2C294.3,173.4,293.5,173.4,292.6,173.4z M289.3,163.1l-0.7,0.7
		c-0.6-0.7-1.4-1.4-2.4-2.2l0.7-0.7C287.9,161.8,288.7,162.4,289.3,163.1z M294.2,163.4c0.7-0.4,1.4-0.8,2-1.3H290v-0.9h7.6v0.8
		c-0.8,0.7-1.8,1.4-2.7,1.9l0.2,0.2h2.8v6.3c0,0.7-0.4,1.1-1.2,1.1h-1.2l-0.2-0.9h1.1c0.3,0,0.5-0.2,0.5-0.5V169h-2.4v2.4h-0.9V169
		h-2.3v2.5h-1V164h3.5c-0.5-0.4-1.1-0.8-1.8-1.1l0.6-0.6C293.2,162.6,293.7,163.1,294.2,163.4z M293.6,164.9h-2.3v1.3h2.3V164.9z
		 M291.3,168.2h2.3v-1.3h-2.3V168.2z M296.9,164.9h-2.4v1.3h2.4V164.9z M294.5,168.2h2.4v-1.3h-2.4V168.2z"/>
	<path class="st5" d="M300.5,173.4l-0.8-0.7c0.9-1.2,1.4-2.8,1.4-4.7v-6.7h10.4v10.5c0,1-0.5,1.5-1.5,1.5h-1.6l-0.3-1
		c0.6,0,1.1,0.1,1.6,0.1s0.8-0.3,0.8-0.9v-2.4h-3.8v4.1h-1v-4.1h-3.6C301.9,170.9,301.4,172.4,300.5,173.4z M302.1,162.4v2.4h3.6
		v-2.4H302.1z M302.1,168.1h3.6v-2.5h-3.6V168.1z M310.5,162.4h-3.8v2.4h3.8V162.4z M310.5,165.6h-3.8v2.5h3.8V165.6z"/>
	<path class="st5" d="M324.8,163.9v5.5h-1.7v0.9h3.2v0.9h-3.2v2.4h-1v-2.4h-4c-0.1,0.4-0.3,0.8-0.6,1.1c-0.5,0.5-1.3,1-2.3,1.3
		l-0.5-0.8c1-0.3,1.7-0.6,2.1-1.1c0.1-0.2,0.2-0.3,0.3-0.5h-3.2v-0.9h3.4c0-0.1,0-0.3,0-0.4v-0.5h-1.8v-5.5H324.8z M314.9,164.1
		l-0.8-0.5c0.9-0.9,1.5-1.9,1.8-2.9l1,0.2c-0.1,0.3-0.2,0.6-0.4,0.8h3.5v0.9h-1.8c0.2,0.3,0.4,0.6,0.6,0.9l-0.8,0.3
		c-0.2-0.4-0.5-0.8-0.8-1.2h-1.1C315.7,163.1,315.3,163.6,314.9,164.1z M323.9,165.6v-0.8h-7.3v0.8H323.9z M323.9,167.1v-0.8h-7.3
		v0.8H323.9z M323.9,167.8h-7.3v0.9h7.3V167.8z M318.4,169.9c0,0.1,0,0.3,0,0.4h3.8v-0.9h-3.8V169.9z M320.9,163.9l-0.8-0.5
		c0.7-0.8,1.2-1.7,1.5-2.6l1,0.2l-0.3,0.8h4v0.9h-2.4c0.3,0.3,0.4,0.6,0.6,0.9l-0.8,0.3c-0.2-0.4-0.5-0.8-0.8-1.2h-1.1
		C321.5,162.9,321.2,163.4,320.9,163.9z"/>
	<path class="st5" d="M330.7,166.4l-0.7,0.7c-0.5-0.7-1.2-1.4-2.1-2.1l0.7-0.7C329.4,164.9,330.1,165.6,330.7,166.4z M331.1,168.6
		c-0.6,1.8-1.3,3.4-2,5l-1-0.4c0.8-1.6,1.5-3.2,2.1-4.9L331.1,168.6z M331.2,163.1l-0.7,0.7c-0.6-0.7-1.3-1.4-2.3-2.1l0.7-0.7
		C329.8,161.6,330.6,162.4,331.2,163.1z M336.3,160.8v2.3h3.6v1h-3.6v2.6h4v1h-4.6c-0.9,2.1-1.7,3.7-2.4,4.5
		c1.7-0.2,3.4-0.4,5.2-0.8c-0.4-0.8-0.8-1.6-1.2-2.3l1-0.3c0.8,1.4,1.6,2.9,2.2,4.5l-1,0.4c-0.2-0.5-0.4-1-0.6-1.4
		c-2.1,0.4-4.4,0.7-6.9,1l-0.2-0.9c0.1,0,0.2-0.1,0.2-0.1c0.7-0.6,1.5-2.1,2.6-4.6h-3.3v-1h4V164H332v-1h3.3v-2.3h1V160.8z"/>
	<path class="st5" d="M349.3,162.1h5v1h-10.4v3.2c-0.1,3.1-0.5,5.6-1.4,7.4l-0.8-0.7c0.8-1.6,1.2-3.8,1.2-6.7v-4.2h5.3
		c-0.2-0.4-0.5-0.8-0.7-1.2l1.1-0.2C348.9,161.1,349.1,161.6,349.3,162.1z M348.7,163.6c-0.1,0.4-0.3,0.8-0.4,1.1h5.5v0.9h-5.9
		c-0.4,0.9-0.8,1.7-1.3,2.4h2.6v-1.7h1v1.7h3.1v0.9h-3.1v1.6h4.2v0.9h-4.2v2.2h-1v-2.2h-5.1v-0.9h5.1v-1.6h-3.7l-0.2-0.9
		c0.5-0.7,1-1.5,1.5-2.4h-2.1v-0.9h2.5c0.2-0.4,0.3-0.9,0.5-1.3L348.7,163.6z"/>
</g>
<g>
	<path class="st5" d="M370.6,337.1v5.5h-1.7v0.9h3.2v0.9h-3.2v2.4h-1v-2.4h-4c-0.1,0.4-0.3,0.8-0.6,1.1c-0.5,0.5-1.3,1-2.3,1.3
		l-0.5-0.8c1-0.3,1.7-0.6,2.1-1c0.1-0.2,0.2-0.3,0.3-0.5h-3.2v-0.9h3.4c0-0.1,0-0.3,0-0.4v-0.5h-1.8v-5.5h9.3L370.6,337.1
		L370.6,337.1z M360.6,337.2l-0.8-0.5c0.9-0.9,1.5-1.9,1.8-2.9l1,0.2c-0.1,0.3-0.2,0.6-0.4,0.8h3.5v0.9h-1.8
		c0.2,0.3,0.4,0.6,0.6,0.9l-0.8,0.3c-0.2-0.4-0.5-0.8-0.8-1.2h-1.1C361.5,336.2,361.1,336.8,360.6,337.2z M369.6,338.7v-0.8h-7.3
		v0.8H369.6z M369.6,340.2v-0.8h-7.3v0.8H369.6z M369.6,341h-7.3v0.9h7.3V341z M364.2,343.2c0,0.1,0,0.3,0,0.4h3.8v-0.9h-3.8V343.2z
		 M366.6,337l-0.8-0.5c0.7-0.8,1.2-1.7,1.5-2.6l1,0.2l-0.3,0.8h4v0.9h-2.3c0.3,0.3,0.4,0.6,0.6,0.9l-0.8,0.3
		c-0.2-0.4-0.5-0.8-0.8-1.2h-1.1C367.3,336.2,367,336.6,366.6,337z"/>
	<path class="st5" d="M376.5,339.5l-0.7,0.7c-0.5-0.7-1.2-1.4-2.1-2.1l0.7-0.7C375.2,338.1,375.9,338.8,376.5,339.5z M376.9,341.7
		c-0.6,1.8-1.3,3.4-2,5l-1-0.4c0.8-1.6,1.5-3.2,2.1-4.9L376.9,341.7z M377,336.2l-0.7,0.7c-0.6-0.7-1.3-1.4-2.3-2.1l0.7-0.7
		C375.6,334.9,376.4,335.6,377,336.2z M382.1,334v2.3h3.6v1h-3.6v2.6h4v1h-4.6c-0.9,2.1-1.7,3.7-2.4,4.5c1.7-0.2,3.4-0.4,5.2-0.8
		c-0.4-0.8-0.8-1.6-1.2-2.3l1-0.3c0.8,1.4,1.6,2.9,2.2,4.5l-1,0.4c-0.2-0.5-0.4-1-0.6-1.4c-2.1,0.4-4.4,0.7-6.9,1l-0.2-0.9
		c0.1,0,0.2-0.1,0.2-0.1c0.7-0.6,1.5-2.1,2.6-4.6h-3.3v-1h4v-2.6h-3.3v-1h3.3V334H382.1z"/>
	<path class="st5" d="M390.4,346.8h-1v-7c-0.4,1.3-1,2.5-1.7,3.6l-0.4-1.1c1-1.3,1.7-2.9,2.1-4.6v-0.1h-1.5v-0.9h1.6V334h1v2.7h1.5
		v0.9h-1.5v0.9c0.6,0.7,1.2,1.6,1.9,2.5l-0.5,0.8c-0.5-0.9-1-1.7-1.3-2.2v7.2H390.4z M395.1,344.9c-0.6,0.8-1.8,1.4-3.4,1.9
		l-0.4-0.8c1.4-0.4,2.4-0.9,3-1.6c0.1-0.2,0.3-0.4,0.4-0.6h-3.3v-0.9h3.7c0.1-0.3,0.2-0.7,0.3-1.1h-2.9v-4.2h6.7v4.2h-2.9
		c-0.1,0.4-0.1,0.7-0.2,1.1h4v0.9h-3.5c0.8,1,2,1.7,3.7,2.3l-0.7,0.8c-1.8-0.8-3.1-1.8-3.9-2.9C395.6,344.2,395.4,344.6,395.1,344.9
		z M393.8,335.1V334h0.9v1.1h2.3V334h1v1.1h2.2v0.9H398v1h-1v-1h-2.3v1h-0.9v-1h-2v-0.9H393.8z M398.3,339.2v-0.9h-4.9v0.9H398.3z
		 M398.3,340h-4.9v1h4.9V340z"/>
	<path class="st5" d="M403.7,336.7V334h1v2.7h1.7v1h-1.7v0.7c0.6,0.7,1.2,1.4,1.9,2.2l-0.6,0.9c-0.5-0.9-0.9-1.6-1.3-2.1v7.4h-1v-7
		c-0.5,1.4-1.1,2.6-1.8,3.7l-0.4-1.1c1-1.4,1.8-3,2.2-4.7h-2v-1H403.7z M413.9,335c-1.8,0.5-3.7,0.8-5.9,0.9v2.1h5.5v0.8
		c-0.1,1.9-0.7,3.5-1.8,4.9c0.7,0.8,1.6,1.5,2.7,2.1l-0.5,0.9c-1.1-0.6-2.1-1.4-2.8-2.2c-0.8,0.9-1.8,1.6-2.9,2.3l-0.7-0.8
		c1.2-0.7,2.2-1.5,3-2.3c-1-1.3-1.6-2.9-1.8-4.7h-0.6v1.4c-0.1,2.7-0.6,4.8-1.7,6.4l-0.7-0.8c0.9-1.3,1.4-3.2,1.5-5.6V335
		c2.3,0,4.5-0.4,6.3-1L413.9,335z M412.6,339h-3.1c0.3,1.5,0.8,2.8,1.6,3.9C411.9,341.8,412.4,340.5,412.6,339z"/>
	<path class="st5" d="M422.7,341.2v1h-7.1v-1H422.7z"/>
	<path class="st5" d="M431.5,336.1c0.8,0.6,1.2,1.4,1.3,2.4h-1.1c-0.1-0.7-0.5-1.3-1.1-1.7c-0.5-0.4-1.2-0.6-2-0.6
		c-1.2,0-2.1,0.4-2.7,1.2c-0.6,0.8-0.9,1.8-0.9,3s0.3,2.2,0.9,3s1.5,1.2,2.7,1.2c0.8,0,1.5-0.2,2-0.6c0.6-0.4,1-1.1,1.2-2h1.1
		c-0.2,1.2-0.7,2.1-1.6,2.7c-0.8,0.6-1.7,0.9-2.8,0.9c-1.6,0-2.7-0.5-3.6-1.5c-0.8-0.9-1.1-2.1-1.1-3.6s0.4-2.7,1.1-3.7
		c0.8-1.1,2-1.6,3.6-1.6C429.8,335.2,430.7,335.5,431.5,336.1z"/>
</g>
<g>
	<path class="st5" d="M371,273v5.5h-1.7v0.9h3.2v0.9h-3.2v2.4h-1v-2.4h-4c-0.1,0.4-0.3,0.8-0.6,1.1c-0.5,0.5-1.3,1-2.3,1.3l-0.5-0.8
		c1-0.3,1.7-0.6,2.1-1c0.1-0.2,0.2-0.3,0.3-0.5h-3.2v-0.9h3.4c0-0.1,0-0.3,0-0.4v-0.5h-1.8V273H371z M361,273.1l-0.8-0.5
		c0.9-0.9,1.5-1.9,1.8-2.9l1,0.2c-0.1,0.3-0.2,0.6-0.4,0.8h3.5v0.9h-1.8c0.2,0.3,0.4,0.6,0.6,0.9l-0.8,0.3c-0.2-0.4-0.5-0.8-0.8-1.2
		h-1.1C361.8,272.1,361.4,272.6,361,273.1z M370,274.6v-0.8h-7.3v0.8H370z M370,276.1v-0.8h-7.3v0.8H370z M370,276.9h-7.3v0.9h7.3
		V276.9z M364.5,279.1c0,0.1,0,0.3,0,0.4h3.8v-0.9h-3.8V279.1z M367,272.9l-0.8-0.5c0.7-0.8,1.2-1.7,1.5-2.6l1,0.2l-0.3,0.8h4v0.9
		h-2.3c0.3,0.3,0.4,0.6,0.6,0.9l-0.8,0.3c-0.2-0.4-0.5-0.8-0.8-1.2h-1.2C367.6,272.1,367.3,272.5,367,272.9z"/>
	<path class="st5" d="M376.8,275.4l-0.7,0.7c-0.5-0.7-1.2-1.4-2.1-2.1l0.7-0.7C375.6,274,376.3,274.6,376.8,275.4z M377.2,277.6
		c-0.6,1.8-1.3,3.4-2,5l-1-0.4c0.8-1.6,1.5-3.2,2.1-4.9L377.2,277.6z M377.4,272.1l-0.7,0.7c-0.6-0.7-1.3-1.4-2.3-2.1l0.7-0.7
		C376,270.8,376.7,271.5,377.4,272.1z M382.5,269.9v2.3h3.6v1h-3.6v2.6h4v1h-4.6c-0.9,2.1-1.7,3.7-2.4,4.5c1.7-0.2,3.4-0.4,5.2-0.8
		c-0.4-0.8-0.8-1.6-1.2-2.3l1-0.3c0.8,1.4,1.6,2.9,2.2,4.5l-1,0.4c-0.2-0.5-0.4-1-0.6-1.4c-2.1,0.4-4.4,0.7-6.9,1l-0.2-0.9
		c0.1,0,0.2-0.1,0.2-0.1c0.7-0.6,1.5-2.1,2.6-4.6h-3.3v-1h4v-2.6h-3.3v-1h3.3v-2.3L382.5,269.9L382.5,269.9z"/>
	<path class="st5" d="M390.8,282.6h-1v-7c-0.4,1.3-1,2.5-1.7,3.6l-0.4-1.1c1-1.3,1.7-2.9,2.1-4.6v-0.1h-1.6v-0.9h1.6v-2.7h1v2.7h1.5
		v0.9h-1.5v0.9c0.6,0.7,1.2,1.6,1.9,2.5l-0.5,0.8c-0.5-0.9-1-1.7-1.3-2.2v7.2L390.8,282.6L390.8,282.6z M395.5,280.8
		c-0.6,0.8-1.8,1.4-3.4,1.9l-0.4-0.8c1.4-0.4,2.4-0.9,3-1.6c0.1-0.2,0.3-0.4,0.4-0.6h-3.2v-0.9h3.7c0.1-0.3,0.2-0.7,0.3-1.1h-3v-4.2
		h6.7v4.2h-2.9c-0.1,0.4-0.1,0.7-0.2,1.1h4v0.9H397c0.8,1,2,1.7,3.7,2.3l-0.7,0.8c-1.8-0.8-3.1-1.8-3.9-2.9
		C395.9,280.1,395.7,280.5,395.5,280.8z M394.2,271v-1.1h0.9v1.1h2.3v-1.1h1v1.1h2.2v0.9h-2.2v1h-1v-1h-2.3v1h-0.9v-1h-2V271H394.2z
		 M398.7,275.1v-0.9h-4.9v0.9H398.7z M398.7,275.9h-4.9v1h4.9V275.9z"/>
	<path class="st5" d="M404,272.6v-2.7h1v2.7h1.7v1H405v0.7c0.6,0.7,1.2,1.4,1.9,2.2l-0.6,0.9c-0.5-0.9-0.9-1.6-1.3-2.1v7.4h-1v-7
		c-0.5,1.4-1.1,2.6-1.8,3.7l-0.4-1.1c1-1.4,1.8-3,2.2-4.7h-2v-1H404L404,272.6z M414.2,270.9c-1.8,0.5-3.7,0.8-5.9,0.9v2.1h5.5v0.8
		c-0.1,1.9-0.7,3.5-1.8,4.9c0.7,0.8,1.6,1.5,2.7,2.1l-0.5,0.9c-1.1-0.6-2.1-1.4-2.8-2.2c-0.8,0.9-1.8,1.6-2.9,2.3l-0.7-0.8
		c1.2-0.7,2.2-1.5,3-2.3c-1-1.3-1.6-2.9-1.8-4.7h-0.6v1.4c-0.1,2.7-0.6,4.8-1.7,6.4l-0.7-0.8c0.9-1.3,1.4-3.2,1.5-5.6v-5.4
		c2.3,0,4.5-0.4,6.3-1L414.2,270.9z M412.9,274.9h-3c0.3,1.5,0.8,2.8,1.6,3.9C412.3,277.6,412.7,276.4,412.9,274.9z"/>
	<path class="st5" d="M423,277.1v1h-7.1v-1H423z"/>
	<path class="st5" d="M429.2,271.2c0.9,0,1.7,0.2,2.2,0.7c0.5,0.4,0.8,1.1,0.8,1.8c0,0.6-0.2,1.1-0.4,1.5c-0.3,0.4-0.7,0.6-1.2,0.8
		c0.7,0.1,1.2,0.4,1.5,0.8c0.4,0.4,0.6,1,0.6,1.6c0,1-0.4,1.7-1,2.2c-0.6,0.4-1.4,0.6-2.4,0.6h-4.4v-10H429.2L429.2,271.2z
		 M425.9,275.6h3c0.7,0,1.2-0.2,1.6-0.4c0.4-0.3,0.6-0.7,0.6-1.3s-0.2-1-0.5-1.3s-0.9-0.4-1.6-0.4h-3.1V275.6z M425.9,280.2h3.2
		c0.7,0,1.2-0.1,1.7-0.4s0.7-0.8,0.7-1.4s-0.2-1.1-0.6-1.4s-1-0.4-1.8-0.4h-3.2L425.9,280.2L425.9,280.2z"/>
</g>
<g>
	<path class="st5" d="M370.8,208.8v5.5h-1.7v0.9h3.2v0.9h-3.2v2.4h-1v-2.4h-4c-0.1,0.4-0.3,0.8-0.6,1.1c-0.5,0.5-1.3,1-2.3,1.3
		l-0.5-0.8c1-0.3,1.7-0.6,2.1-1c0.1-0.2,0.2-0.3,0.3-0.5h-3.2v-0.9h3.4c0-0.1,0-0.3,0-0.4v-0.5h-1.8v-5.5h9.3L370.8,208.8
		L370.8,208.8z M360.8,209.1l-0.8-0.5c0.9-0.9,1.5-1.9,1.8-2.9l1,0.2c-0.1,0.3-0.2,0.6-0.4,0.8h3.5v0.9h-1.8
		c0.2,0.3,0.4,0.6,0.6,0.9l-0.8,0.3c-0.2-0.4-0.5-0.8-0.8-1.2H362C361.7,208.1,361.3,208.6,360.8,209.1z M369.8,210.4v-0.8h-7.3v0.8
		H369.8z M369.8,211.9v-0.8h-7.3v0.8H369.8z M369.8,212.8h-7.3v0.9h7.3V212.8z M364.4,214.9c0,0.1,0,0.3,0,0.4h3.8v-0.9h-3.8V214.9z
		 M366.8,208.8l-0.8-0.5c0.7-0.8,1.2-1.7,1.5-2.6l1,0.2l-0.3,0.8h4v0.9h-2.3c0.3,0.3,0.4,0.6,0.6,0.9l-0.8,0.3
		c-0.2-0.4-0.5-0.8-0.8-1.2h-1.1C367.5,207.9,367.2,208.3,366.8,208.8z"/>
	<path class="st5" d="M376.7,211.2l-0.7,0.7c-0.5-0.7-1.2-1.4-2.1-2.1l0.7-0.7C375.4,209.8,376.1,210.6,376.7,211.2z M377.1,213.4
		c-0.6,1.8-1.3,3.4-2,5l-1-0.4c0.8-1.6,1.5-3.2,2.1-4.9L377.1,213.4z M377.2,208.1l-0.7,0.7c-0.6-0.7-1.3-1.4-2.3-2.1l0.7-0.7
		C375.8,206.6,376.6,207.3,377.2,208.1z M382.3,205.8v2.3h3.6v1h-3.6v2.6h4v1h-4.6c-0.9,2.1-1.7,3.7-2.4,4.5
		c1.7-0.2,3.4-0.4,5.2-0.8c-0.4-0.8-0.8-1.6-1.2-2.3l1-0.3c0.8,1.4,1.6,2.9,2.2,4.5l-1,0.4c-0.2-0.5-0.4-1-0.6-1.4
		c-2.1,0.4-4.4,0.7-6.9,1l-0.2-0.9c0.1,0,0.2-0.1,0.2-0.1c0.7-0.6,1.5-2.1,2.6-4.6h-3.3v-1h4V209h-3.4v-1h3.3v-2.3h1.1L382.3,205.8
		L382.3,205.8z"/>
	<path class="st5" d="M390.6,218.6h-1v-7c-0.4,1.3-1,2.5-1.7,3.6l-0.4-1.1c1-1.3,1.7-2.9,2.1-4.6v-0.1H388v-0.9h1.6v-2.7h1v2.7h1.5
		v0.9h-1.5v0.9c0.6,0.7,1.2,1.6,1.9,2.5l-0.5,0.8c-0.5-0.9-1-1.7-1.3-2.2v7.2L390.6,218.6L390.6,218.6z M395.3,216.6
		c-0.6,0.8-1.8,1.4-3.4,1.9l-0.4-0.8c1.4-0.4,2.4-0.9,3-1.6c0.1-0.2,0.3-0.4,0.4-0.6h-3.3v-0.9h3.7c0.1-0.3,0.2-0.7,0.3-1.1h-2.9
		v-4.2h6.7v4.2h-2.9c-0.1,0.4-0.1,0.7-0.2,1.1h4v0.9h-3.5c0.8,1,2,1.7,3.7,2.3l-0.7,0.8c-1.8-0.8-3.1-1.8-3.9-2.9
		C395.8,216.1,395.6,216.3,395.3,216.6z M394,206.8v-1.1h0.9v1.1h2.3v-1.1h1v1.1h2.2v0.9h-2.2v1h-1v-1h-2.3v1H394v-1h-2v-0.9H394z
		 M398.5,211.1v-0.9h-4.9v0.9H398.5z M398.5,211.8h-4.9v1h4.9V211.8z"/>
	<path class="st5" d="M403.9,208.4v-2.7h1v2.7h1.7v1h-1.7v0.7c0.6,0.7,1.2,1.4,1.9,2.2l-0.6,0.9c-0.5-0.9-0.9-1.6-1.3-2.1v7.4h-1v-7
		c-0.5,1.4-1.1,2.6-1.8,3.7l-0.4-1.1c1-1.4,1.8-3,2.2-4.7h-2v-1L403.9,208.4L403.9,208.4z M414.1,206.8c-1.8,0.5-3.7,0.8-5.9,0.9
		v2.1h5.5v0.8c-0.1,1.9-0.7,3.5-1.8,4.9c0.7,0.8,1.6,1.5,2.7,2.1l-0.5,0.9c-1.1-0.6-2.1-1.4-2.8-2.2c-0.8,0.9-1.8,1.6-2.9,2.3
		l-0.7-0.8c1.2-0.7,2.2-1.5,3-2.3c-1-1.3-1.6-2.9-1.8-4.7h-0.6v1.4c-0.1,2.7-0.6,4.8-1.7,6.4l-0.7-0.8c0.9-1.3,1.4-3.2,1.5-5.6v-5.4
		c2.3,0,4.5-0.4,6.3-1L414.1,206.8z M412.8,210.8h-3.1c0.3,1.5,0.8,2.8,1.6,3.9C412.1,213.6,412.6,212.2,412.8,210.8z"/>
	<path class="st5" d="M422.9,213.1v1h-7.1v-1H422.9z"/>
	<path class="st5" d="M428.9,207.1l3.9,10h-1.2l-1.1-2.8h-4.6l-1.1,2.8h-1.2l3.9-10H428.9z M430.1,213.3l-1.9-5h-0.1l-1.9,5H430.1z"
		/>
</g>
<g>
	<g>
		<rect x="154.2" y="54.4" class="st6" width="200.3" height="49.1"/>
		<g>
			<g>
				<rect x="152.2" y="52.4" class="st7" width="200.3" height="49.1"/>
				<path class="st8" d="M353,102H151.7V51.9H353V102z M152.7,101H352V52.9H152.7V101z"/>
			</g>
			<g>
				<path class="st5" d="M216.5,73c-0.2,0.3-0.4,0.6-0.6,0.9h5.2v0.8c-0.6,0.8-1.4,1.5-2.5,2.1c1.5,0.6,3.2,1,5.1,1.1l-0.2,0.9
					c-2.2-0.2-4.2-0.7-6-1.5c-1.7,0.8-3.7,1.3-6.3,1.8l-0.4-0.9c2.3-0.4,4.1-0.8,5.6-1.4c-0.7-0.4-1.4-0.9-2-1.4
					c-0.5,0.5-1.1,0.9-1.8,1.3l-0.6-0.8c1.4-0.8,2.5-1.8,3.4-3.2L216.5,73z M223,74.2h-1v-1.7h-9.3v1.7h-1v-2.6h5.1
					c-0.2-0.4-0.3-0.7-0.5-1l1.1-0.2c0.2,0.3,0.3,0.7,0.5,1.1h5.2L223,74.2L223,74.2z M221.5,83.4h-1v-0.6h-6v0.6h-1V79h8V83.4z
					 M220.5,81.9v-2h-6v2H220.5z M219.9,74.7h-4.7l0,0c0.7,0.6,1.6,1.1,2.4,1.6C218.5,75.9,219.3,75.3,219.9,74.7z"/>
				<path class="st5" d="M225.5,83.4l-0.7-0.7c1.1-1.6,1.7-3.6,1.7-6.1v-4.4h4.6c-0.3-0.6-0.5-1.1-0.8-1.6l1.1-0.2
					c0.3,0.5,0.5,1.1,0.8,1.8h4.4v4.7h-9C227.5,79.4,226.8,81.6,225.5,83.4z M227.5,73.2v2.7h8v-2.7H227.5z"/>
				<path class="st5" d="M244.8,71.8c0.1-0.4,0.1-0.9,0.2-1.3l1,0.1c0,0.4-0.1,0.8-0.1,1.2h5.4v1h-5.6c-0.1,0.4-0.2,0.8-0.2,1.2h4
					v8.2h2.1v0.9h-12.4v-0.9h2V74h3.3c0.1-0.4,0.2-0.8,0.2-1.2h-5.3v-1C239.4,71.8,244.8,71.8,244.8,71.8z M248.5,76v-1.2h-6.4V76
					H248.5z M248.5,78v-1.2h-6.4V78H248.5z M248.5,80v-1.2h-6.4V80H248.5z M248.5,82.1v-1.2h-6.4v1.2H248.5z"/>
				<path class="st5" d="M253.4,83.2l-0.2-1c0.4,0,0.7,0.1,1.1,0.1c0.4,0,0.6-0.2,0.6-0.5v-3.4c-0.6,0.2-1.1,0.4-1.7,0.6l-0.3-1
					c0.7-0.2,1.3-0.4,2-0.6v-3.1h-1.7v-1h1.7v-2.6h1v2.6h1.2v1h-1.2V77c0.4-0.2,0.8-0.4,1.2-0.6v1c-0.4,0.2-0.8,0.4-1.2,0.6v4.1
					c0,0.8-0.4,1.2-1.2,1.2L253.4,83.2L253.4,83.2z M261.3,76.4c-0.1,0.4-0.3,0.7-0.5,1.1h4.8v1h-1.5c-0.2,1-0.6,1.9-1.3,2.6
					c1,0.4,1.9,0.9,2.8,1.4l-0.5,0.8c-0.8-0.5-1.8-1-2.9-1.6c-0.9,0.7-2.4,1.2-4.4,1.6l-0.4-0.9c1.6-0.3,2.9-0.7,3.8-1.2
					c-0.9-0.4-1.8-0.8-2.7-1.2c0.4-0.6,0.7-1.1,1-1.7h-1.9v-1h2.4c0.2-0.4,0.4-0.8,0.5-1.2L261.3,76.4z M260.7,74.9h1.4
					c0.4-0.7,0.7-1.4,1-2.2l1,0.3c-0.3,0.7-0.6,1.3-0.9,1.9h2.3v1h-7.8v-1h2.1c-0.3-0.6-0.6-1.2-0.9-1.7l0.8-0.4
					C260.1,73.5,260.4,74.2,260.7,74.9z M262.1,71.7h3.1v0.9h-7.3v-0.9h3.1c-0.2-0.4-0.3-0.8-0.5-1.2l1.1-0.2
					C261.7,70.8,261.9,71.3,262.1,71.7z M260.3,78.5c-0.3,0.4-0.5,0.9-0.8,1.2c0.8,0.3,1.6,0.6,2.4,1c0.6-0.6,1.1-1.3,1.3-2.2H260.3
					z"/>
				<path class="st5" d="M267.5,83.3l-0.7-0.7c0.5-1,0.8-2.3,0.8-3.8v-4.3c-0.1,0.1-0.1,0.1-0.2,0.2l-0.6-0.7
					c0.9-0.9,1.7-2.1,2.2-3.6l0.9,0.2c-0.1,0.3-0.2,0.6-0.4,0.9h2.6v0.7c-0.3,0.6-0.6,1.1-0.9,1.6h1.7v8.4c0,0.7-0.3,1-1,1h-0.7
					l-0.2-0.8c0.3,0,0.5,0,0.7,0c0.2,0,0.4-0.2,0.4-0.5V80h-1.4v3.1h-0.8V80h-1.4C268.3,81.3,268,82.4,267.5,83.3z M270.2,73.8
					c0.3-0.4,0.6-0.9,0.9-1.5h-1.9c-0.3,0.5-0.6,1-1,1.5H270.2z M268.5,78.8c0,0.1,0,0.2,0,0.3h1.3v-1.8h-1.3V78.8z M268.5,74.7v1.7
					h1.3v-1.7H268.5z M272.1,74.7h-1.4v1.7h1.4V74.7z M272.1,77.3h-1.4v1.8h1.4V77.3z M276,73v-2.4h1V73h2.3v5.6H277v3.1
					c0.5-0.1,1-0.2,1.4-0.3c-0.2-0.6-0.4-1.2-0.6-1.7l0.8-0.3c0.4,1.1,0.8,2.3,1.1,3.7l-0.9,0.2c-0.1-0.4-0.2-0.7-0.3-1.1
					c-1.5,0.4-3.2,0.7-4.9,1l-0.2-0.9c0.9-0.1,1.7-0.2,2.5-0.4v-3.2h-2.2v-5.6L276,73L276,73z M276.1,73.9h-1.3v3.8h1.3V73.9z
					 M278.3,73.9h-1.4v3.8h1.4V73.9z"/>
				<path class="st5" d="M288,83.1c-1,0-1.7-0.1-2.3-0.3c-0.6-0.2-1.1-0.5-1.5-1c-0.2-0.2-0.4-0.4-0.6-0.4c-0.3,0-0.9,0.6-1.7,2
					l-0.8-0.7c0.8-1.2,1.4-1.9,2-2.2v-4.2h-2v-1h3v5.3c0.1,0.1,0.2,0.2,0.4,0.3c0.4,0.4,0.7,0.7,1.1,0.9c0.4,0.2,1.1,0.3,2,0.3
					c0.8,0,1.7,0,2.9,0c0.6,0,1.2,0,1.9,0c0.6,0,1.1,0,1.5-0.1l-0.3,1h-3C289.8,83.1,288.9,83.1,288,83.1z M284.5,72.9l-0.7,0.7
					c-0.6-0.7-1.4-1.4-2.4-2.2l0.7-0.7C283,71.5,283.8,72.2,284.5,72.9z M288.4,73.6c0.1-0.7,0.1-1.5,0.1-2.3v-0.9h1V71
					c0,0.9-0.1,1.7-0.1,2.5h3.6v1h-3.7c-0.1,0.4-0.1,0.7-0.2,1.1c1.3,1.1,2.7,2.6,4.3,4.6l-0.7,0.7c-1.3-1.7-2.6-3.1-3.9-4.3
					c-0.7,1.9-1.7,3.3-3.2,4.3l-0.6-0.8c1.7-1.1,2.9-2.9,3.3-5.5h-3v-1L288.4,73.6L288.4,73.6z"/>
			</g>
		</g>
	</g>
	<g>
		<rect x="443.4" y="55" class="st6" width="200.3" height="49.1"/>
		<g>
			<g>
				<rect x="441.4" y="53" class="st7" width="200.3" height="49.1"/>
				<path class="st8" d="M642.2,102.6H440.9V52.5h201.3V102.6z M441.9,101.6h199.3V53.5H441.9V101.6z"/>
			</g>
			<g>
				<path class="st5" d="M506,73.6c-0.2,0.3-0.4,0.6-0.6,0.9h5.2v0.8c-0.6,0.8-1.4,1.5-2.5,2.1c1.5,0.6,3.2,1,5.1,1.1l-0.2,0.9
					c-2.2-0.2-4.2-0.7-6-1.5c-1.7,0.8-3.7,1.3-6.3,1.8l-0.4-0.9c2.3-0.4,4.1-0.8,5.6-1.4c-0.7-0.4-1.4-0.9-2-1.4
					c-0.5,0.5-1.1,0.9-1.8,1.3l-0.6-0.8c1.4-0.8,2.5-1.8,3.4-3.2L506,73.6z M512.5,74.8h-1v-1.7h-9.3v1.7h-1v-2.6h5.1
					c-0.2-0.4-0.3-0.7-0.5-1l1.1-0.2c0.2,0.3,0.3,0.7,0.5,1.1h5.2L512.5,74.8L512.5,74.8z M510.9,84h-1v-0.6h-6V84h-1v-4.4h8V84z
					 M509.9,82.5v-2h-6v2H509.9z M509.3,75.3h-4.7l0,0c0.7,0.6,1.6,1.1,2.4,1.6C508,76.5,508.8,75.9,509.3,75.3z"/>
				<path class="st5" d="M515,84l-0.7-0.7c1.1-1.6,1.7-3.6,1.7-6.1v-4.4h4.6c-0.3-0.6-0.5-1.1-0.8-1.6l1.1-0.2
					c0.3,0.5,0.5,1.1,0.8,1.8h4.4v4.7h-9C516.9,80,516.3,82.2,515,84z M517,73.8v2.7h8v-2.7H517z"/>
				<path class="st5" d="M533.1,81.8c-1.3,0.7-2.8,1.2-4.5,1.6l-0.1-1c1.8-0.4,3.3-1,4.6-1.6V81.8z M531.8,71.5
					c-0.7,1.8-1.4,3.2-2.1,4.3c0.6-0.1,1.3-0.1,1.9-0.3c0.3-0.5,0.5-1,0.8-1.6l0.9,0.4c-1.3,2.4-2.4,4-3.2,5.1
					c1-0.2,1.9-0.5,2.9-0.8v0.9c-1.4,0.5-2.8,0.8-4.2,1l-0.3-0.9c0.2-0.1,0.3-0.2,0.4-0.3c0.6-0.6,1.2-1.5,2-2.9
					c-0.8,0.1-1.6,0.2-2.4,0.4l-0.3-0.9c0.2-0.1,0.3-0.2,0.4-0.4c0.7-1.3,1.4-2.7,1.9-4.3L531.8,71.5z M533.7,77.7l-0.6-0.8
					c2.6-1,4.4-2.4,5.4-4.2h-4.8v-1h6v0.8c-0.4,0.8-0.9,1.6-1.5,2.3c1.2,0.7,2.2,1.5,3,2.2l-0.7,0.7c-0.7-0.7-1.7-1.5-2.9-2.3
					C536.5,76.3,535.2,77.1,533.7,77.7z M533.8,79.4v-1h6.5v1h-2.8v3.1h3.4v1h-7.8v-1h3.4v-3.1H533.8z"/>
				<path class="st5" d="M544.2,76.3V73h-1.7v-1h4.5v1h-1.7v3.3h1.5v1h-1.5v3.2c0.5-0.2,1-0.4,1.5-0.6v1c-1.3,0.5-2.7,1-4.2,1.3
					l-0.3-1c0.6-0.1,1.2-0.3,1.8-0.4v-3.5h-1.5v-1H544.2z M554.5,71.7v6.5h-2.9v1.7h3.2v1h-3.2v1.8h3.7v1h-8.4v-1h3.8v-1.8h-3.3v-1
					h3.2v-1.7h-2.9v-6.5H554.5z M550.6,74.5v-1.9h-2v1.9H550.6z M550.6,75.3h-2v1.9h2V75.3z M551.6,74.5h1.9v-1.9h-1.9V74.5z
					 M553.5,75.3h-1.9v1.9h1.9V75.3z"/>
				<path class="st5" d="M560.1,74.9v2.2h1.4V78h-1.4v2c0.5-0.1,1-0.2,1.5-0.4v0.9c-0.5,0.1-1,0.3-1.5,0.4V84h-1v-2.9
					c-0.8,0.2-1.7,0.3-2.5,0.4l-0.1-1c1-0.1,1.8-0.2,2.7-0.4V78h-2.3l-0.2-0.9c0.4-0.9,0.8-1.9,1.1-3.3h-1.4v-1h1.5
					c0.1-0.6,0.3-1.2,0.4-1.8l1,0.2c-0.1,0.6-0.2,1.1-0.3,1.6h2.5v1h-2.8c-0.3,1.2-0.7,2.3-1.1,3.2h1.5v-2.2h1L560.1,74.9
					L560.1,74.9z M564.9,72.9v-1.7h1v1.7h1.9c-0.3-0.4-0.7-0.9-1.1-1.3l0.7-0.4c0.5,0.5,0.9,1,1.2,1.4l-0.5,0.4h1.3v1h-3.3v1.3h2.9
					v7.6c0,0.8-0.4,1.2-1,1.2h-1l-0.3-1h0.9c0.3,0,0.4-0.2,0.4-0.5V81h-1.9v3h-1v-3h-1.8v3.1h-0.9v-8.8h2.8V74h-3v-1L564.9,72.9
					L564.9,72.9z M563,76v1.6h1.8V76H563z M563,80h1.8v-1.5H563V80z M567.8,76h-1.9v1.6h1.9V76z M567.8,78.5h-1.9V80h1.9V78.5z"/>
				<path class="st5" d="M576.1,80.5c0.3-0.1,0.6-0.2,0.9-0.3v1c-1.8,0.6-3.9,1.1-6.3,1.6l-0.3-1c0.3-0.1,0.7-0.1,1-0.2v-9.7h4.7
					L576.1,80.5L576.1,80.5z M575.1,74.9v-2h-2.7v2H575.1z M575.1,77.9v-2.1h-2.7v2.1H575.1z M575.1,80.7v-1.9h-2.7v2.6
					C573.3,81.2,574.2,81,575.1,80.7z M579.6,71.2V74h3.1c0,4.4-0.1,7.1-0.2,8.1c-0.1,1.1-0.8,1.7-2.1,1.7c-0.2,0-0.6,0-1.2,0
					l-0.2-0.9c0.5,0,0.9,0.1,1.3,0.1c0.7,0,1.2-0.4,1.3-1.2c0.1-0.7,0.1-3,0.2-6.7h-2.1v0.2c0,4-1,7-3,8.9l-0.8-0.7
					c1.8-1.7,2.7-4.4,2.7-8.2V75h-1.7v-1h1.7v-2.8H579.6z"/>
			</g>
		</g>
	</g>
</g>
</svg>
