<?xml version="1.0" encoding="utf-8"?>
<!-- Generator: Adobe Illustrator 22.1.0, SVG Export Plug-In . SVG Version: 6.00 Build 0)  -->
<svg version="1.1" id="图层_1" xmlns="http://www.w3.org/2000/svg" xmlns:xlink="http://www.w3.org/1999/xlink" x="0px" y="0px"
	 viewBox="0 0 830 233" style="enable-background:new 0 0 830 233;" xml:space="preserve">
<style type="text/css">
	.st0{opacity:0.6;fill:#BBBBBB;enable-background:new    ;}
	.st1{fill:#FFFFFF;stroke:#E5E5E5;stroke-width:1.1594;}
	.st2{opacity:0.15;fill:#FFFFFF;enable-background:new    ;}
	.st3{fill:#444444;}
	.st4{fill:#878787;}
	.st5{fill:#BABABA;}
	.st6{fill:#FFFFFF;}
	.st7{fill:#CEE3FF;}
	.st8{fill:#FFFFFF;stroke:#E5E5E5;stroke-width:1.5289;}
	.st9{fill:#00A4FF;}
</style>
<g>
	<rect x="679.7" y="72" class="st0" width="131.2" height="50"/>
	<rect x="678" y="70" class="st1" width="130.9" height="50"/>
</g>
<g>
	<rect x="679.7" y="133.5" class="st0" width="131.2" height="50"/>
	<rect x="678" y="131.5" class="st1" width="130.9" height="50"/>
</g>
<g>
	<rect x="24.4" y="43.6" class="st0" width="131.2" height="50"/>
	<rect x="22.7" y="41.6" class="st1" width="130.9" height="50"/>
</g>
<g>
	<rect x="24.4" y="104.4" class="st0" width="131.2" height="50"/>
	<rect x="22.7" y="102.4" class="st1" width="130.9" height="50"/>
</g>
<g>
	<rect x="24.4" y="165.1" class="st0" width="131.2" height="50"/>
	<rect x="22.7" y="163.1" class="st1" width="130.9" height="50"/>
</g>
<g id="图层_1_1_">
</g>
<rect x="696" y="80" class="st2" width="32" height="32"/>
<g>
	<g>
		<path class="st3" d="M738.8,94.4h2v-4.9h1v4.9h1.7v0.9h-1.7v0.4c0.6,0.7,1.3,1.5,2.1,2.4l-0.6,0.9c-0.6-1-1.1-1.8-1.5-2.4v5.6h-1
			v-5.4c-0.5,1.3-1.1,2.4-1.9,3.4l-0.4-1.1c1-1.1,1.8-2.4,2.2-3.8h-1.9L738.8,94.4L738.8,94.4z M739.5,90.6c0.2,0.8,0.4,1.8,0.6,2.9
			l-0.7,0.2c-0.2-1-0.4-1.9-0.6-2.9L739.5,90.6z M743.6,90.5c-0.1,1.1-0.3,2.2-0.6,3.2l-0.7-0.2c0.3-0.9,0.5-1.9,0.6-3H743.6z
			 M747.2,89.4h1v0.9h2.9v0.8h-2.9V92h2.5v0.8h-2.5v1h3.3v0.8h-7.6v-0.8h3.3v-1h-2.6V92h2.6v-0.9h-3v-0.8h3V89.4z M745.6,100v2.2h-1
			v-6.7h6v5.5c0,0.7-0.4,1.1-1.1,1.1h-1l-0.3-0.9h1c0.3,0,0.4-0.2,0.4-0.5V100H745.6z M749.6,97.4v-1h-4.1v1H749.6z M745.6,98.2v1
			h4.1v-1H745.6z"/>
		<path class="st3" d="M753.6,89.9c1,1.3,1.7,2.3,2.2,3.2l-0.8,0.6c-0.5-0.9-1.3-2-2.2-3.2L753.6,89.9z M755.8,96.3
			c-0.6,2-1.3,3.9-2.2,5.8l-1-0.4c0.9-2,1.6-3.9,2.2-5.8L755.8,96.3z M758.2,101.5v0.8h-1V94c-0.4,0.6-0.8,1.3-1.3,1.9l-0.3-1.1
			c1.2-1.6,2.1-3.5,2.6-5.4l1,0.2c-0.2,0.8-0.5,1.5-0.8,2.2h3c-0.2-0.8-0.5-1.5-0.8-2.2l1-0.3c0.3,0.8,0.6,1.6,0.8,2.4l-0.4,0.1h3.1
			v1h-3v1.9h2.7v0.9h-2.7v1.9h2.7v0.9h-2.7v2.1h3.2v0.9L758.2,101.5L758.2,101.5z M761.1,92.8h-2.9v1.9h2.9V92.8z M758.2,95.6v1.9
			h2.9v-1.9H758.2z M758.2,98.5v2.1h2.9v-2.1H758.2z"/>
		<path class="st3" d="M768.1,91.8c0.4,0.4,0.8,0.8,1,1c0.5-0.5,1-1.2,1.4-1.9H767V90h4.6v0.8c-0.6,1-1.2,1.9-1.9,2.7
			c0.2,0.3,0.4,0.5,0.7,0.8h1.6v0.6c-0.2,1.1-0.5,1.9-0.8,2.6l-0.8-0.3c0.3-0.6,0.5-1.2,0.7-1.9h-1.5v5.9c0,0.7-0.4,1.1-1.1,1.1
			h-1.3l-0.2-0.9c0.5,0,0.9,0.1,1.2,0.1s0.4-0.2,0.4-0.5v-5.6h-2v-0.9h2.7c-0.6-0.7-1.2-1.4-2-2.1L768.1,91.8z M775.4,94.2h1v2.5
			c0,1.5-0.4,2.7-1,3.6c-0.6,0.8-1.6,1.5-3,1.9l-0.5-0.9c1.3-0.4,2.3-1,2.8-1.7c0.5-0.8,0.7-1.8,0.8-2.9L775.4,94.2L775.4,94.2z
			 M772.5,90h6.9v1h-2.8c-0.1,0.5-0.2,1-0.3,1.6h2.6v6.6h-1v-5.7h-4v5.7h-1v-6.6h2.3c0.1-0.5,0.2-1,0.3-1.6h-3.1L772.5,90L772.5,90z
			 M776.9,99.1c1,0.8,1.9,1.6,2.6,2.4l-0.7,0.7c-0.6-0.8-1.5-1.6-2.5-2.5L776.9,99.1z"/>
		<path class="st3" d="M781.3,93.1c0.8,0.7,1.4,1.3,2,2.1l-0.7,0.7c-0.5-0.6-1.1-1.3-2-2.1L781.3,93.1z M783.4,97.2
			c-0.5,1.7-1.1,3.3-1.8,4.9l-0.9-0.4c0.7-1.6,1.3-3.2,1.8-4.8L783.4,97.2z M781.5,89.7c0.8,0.7,1.5,1.3,2,1.9l-0.7,0.7
			c-0.5-0.6-1.2-1.3-2-1.9L781.5,89.7z M786,91.9h0.8v4.4c0,1.6-0.3,2.9-0.8,3.8s-1.2,1.6-2.3,2.1l-0.5-0.8c1-0.5,1.7-1.1,2.1-1.9
			c0.4-0.8,0.6-1.9,0.6-3.2v-4.4H786z M788.7,90.1v8.5h-0.9V91h-2.9v7.8H784v-8.6h4.7V90.1z M787.2,99.3c0.8,0.7,1.5,1.5,2.1,2.3
			l-0.7,0.7c-0.5-0.8-1.2-1.5-2.1-2.4L787.2,99.3z M789.8,90.7h0.9v8.7h-0.9V90.7z M790.2,102.1l-0.2-0.9c0.5,0,1,0.1,1.4,0.1
			c0.3,0,0.5-0.2,0.5-0.6V89.5h1V101c0,0.8-0.4,1.2-1.1,1.2L790.2,102.1L790.2,102.1z"/>
	</g>
	<g>
		<polygon class="st4" points="698,105 698,86 696,86 696,105 696,107 698,107 726,107 726,105 		"/>
		<polygon class="st4" points="705.6,99 710.9,100 713.2,94.7 720.8,93.9 725.1,87.2 723.4,86.1 719.6,92.1 711.8,92.9 709.7,97.8 
			704.9,96.8 700,102.3 701.5,103.6 		"/>
	</g>
</g>
<g>
	<path class="st3" d="M740.2,154.5c-0.4,0.6-0.8,1.2-1.3,1.7l-0.3-1.1c1.4-1.7,2.4-3.6,3-5.7l0.9,0.4c-0.3,1.1-0.8,2.1-1.2,3v9.4h-1
		v-7.7L740.2,154.5L740.2,154.5z M743.3,150h7.1v4.5h-2.9v2.3h3.3v0.9h-3.3v3.3c0.4,0.1,1,0.1,1.8,0.2c0.9,0,1.6,0,2.1,0l-0.2,1
		h-1.4c-1.9,0-3.3-0.2-3.9-0.6c-0.8-0.4-1.5-1.2-2-2.2c-0.4,1.2-0.9,2.3-1.6,3.1l-0.6-0.8c1-1.5,1.7-3.5,2.1-6l1,0.2
		c-0.1,0.9-0.3,1.6-0.5,2.3c0.2,0.6,0.5,1.1,0.8,1.6c0.4,0.5,0.9,0.9,1.5,1.1v-6.2h-3.2L743.3,150L743.3,150z M749.4,153.5v-2.6
		h-5.1v2.6H749.4z"/>
	<path class="st3" d="M761.9,162c-0.5,0-1.3,0-2.5,0c-0.9,0-1.6-0.1-2.2-0.3c-0.5-0.2-1-0.5-1.5-1c-0.2-0.2-0.4-0.3-0.5-0.3
		c-0.3,0-0.9,0.6-1.7,1.9l-0.8-0.7c0.7-1.2,1.4-1.9,2-2.1v-4.3h-2v-0.9h2.9v5.2c0.1,0.1,0.2,0.2,0.3,0.3c0.3,0.4,0.7,0.7,1.1,0.9
		c0.4,0.2,1,0.3,1.9,0.3c1,0,1.9,0,2.7,0c0.4,0,1.1,0,2,0c0.8,0,1.3,0,1.6-0.1l-0.2,1h-3.1V162z M753.8,149.6c1,0.8,1.8,1.5,2.4,2.2
		l-0.7,0.7c-0.6-0.7-1.3-1.4-2.3-2.2L753.8,149.6z M757.1,151.6h1.7v-2.2h1v2.2h2.2v-2.2h1v2.2h1.8v0.9H763v2.8h2.2v1H763v4h-1v-4
		h-2.5c-0.4,1.7-1.1,2.9-2.2,3.7l-0.6-0.8c0.9-0.6,1.5-1.6,1.8-2.9h-1.8v-1h2c0.1-0.6,0.1-1.1,0.1-1.7v-1.1h-1.7V151.6z
		 M759.8,152.6v0.9c0,0.6,0,1.3-0.1,1.9h2.3v-2.8L759.8,152.6L759.8,152.6z"/>
	<path class="st3" d="M767.4,152.9c1,0.7,1.8,1.4,2.5,2.1l-0.7,0.7c-0.6-0.7-1.4-1.4-2.5-2.1L767.4,152.9z M770.1,157
		c-0.7,1.8-1.5,3.6-2.3,5.1l-0.9-0.4c0.9-1.7,1.7-3.3,2.4-5L770.1,157z M767.8,149.6c1,0.7,1.9,1.4,2.6,2.1l-0.7,0.7
		c-0.7-0.7-1.5-1.4-2.6-2.2L767.8,149.6z M771.6,150c0.6,0.7,1.1,1.5,1.6,2.3l-0.9,0.4c-0.5-0.9-1-1.6-1.6-2.3L771.6,150z
		 M774.3,149.4h1v3.8h3.2v7.5c0,0.9-0.4,1.4-1.3,1.4h-1.8l-0.3-1h1.7c0.4,0,0.7-0.2,0.7-0.7V159h-5.4v3.1h-1v-8.9h3.2L774.3,149.4
		L774.3,149.4z M777.6,155.8v-1.6h-5.4v1.6H777.6z M772.2,156.7v1.5h5.4v-1.5H772.2z M778.9,150.2c-0.4,0.9-0.9,1.7-1.5,2.5
		l-0.9-0.4c0.6-0.8,1.1-1.7,1.5-2.5L778.9,150.2z"/>
	<path class="st3" d="M787.6,157.7c-0.2,1.6-0.6,2.7-1.3,3.2c-0.7,0.7-2.3,1.1-4.9,1.3l-0.4-0.9c2.2-0.1,3.7-0.4,4.4-1
		c0.6-0.5,1-1.5,1.1-2.7L787.6,157.7z M789,152.6v0.9h3.8c0,1-0.1,1.7-0.3,1.9c-0.2,0.3-0.7,0.5-1.5,0.5h-0.6l-0.2-0.7
		c0.3,0,0.6,0,0.7,0c0.4,0,0.7-0.1,0.8-0.2c0.1-0.1,0.1-0.4,0.1-0.7H789v1.6h-1v-1.6h-2.5c-0.2,0.3-0.4,0.6-0.7,0.9
		c-0.5,0.4-1.1,0.8-1.9,1h8.6v3.8h-1v-2.9h-6.9v2.9h-1v-3.7c-0.3,0.1-0.7,0.2-1.1,0.3l-0.5-0.8c1.4-0.3,2.4-0.7,3-1.2
		c0.1-0.1,0.2-0.3,0.3-0.3h-2.8l0.5-2.4h2.8V151h-3.2v-0.8h3.2v-0.7h1v0.7h2v-0.7h1v0.7h3.1v2.5L789,152.6L789,152.6z M783,152.6
		l-0.2,0.9h2.1c0.1-0.3,0.1-0.6,0.2-0.9H783z M785.9,152.6c0,0.3-0.1,0.6-0.1,0.9h2.2v-0.9H785.9z M785.9,150.9v0.9h2v-0.9H785.9z
		 M787.9,159.9c1.8,0.4,3.5,1,5,1.6l-0.5,0.8c-1.6-0.7-3.2-1.3-4.9-1.7L787.9,159.9z M789,150.9v0.9h2.1v-0.9H789z"/>
</g>
<rect x="696" y="140" class="st2" width="32" height="32"/>
<g>
	<path class="st4" d="M704.5,164c-1.9,0-3.5,1.6-3.5,3.5s1.6,3.5,3.5,3.5s3.5-1.6,3.5-3.5S706.4,164,704.5,164z M704.5,169
		c-0.8,0-1.5-0.7-1.5-1.5s0.7-1.5,1.5-1.5s1.5,0.7,1.5,1.5S705.3,169,704.5,169z"/>
	<path class="st4" d="M718.5,164c-1.9,0-3.5,1.6-3.5,3.5s1.6,3.5,3.5,3.5s3.5-1.6,3.5-3.5S720.4,164,718.5,164z M718.5,169
		c-0.8,0-1.5-0.7-1.5-1.5s0.7-1.5,1.5-1.5s1.5,0.7,1.5,1.5S719.3,169,718.5,169z"/>
	<polygon class="st4" points="703.8,145 704.9,156 706.9,156 706.1,147 722.7,147 721,160 701.9,160 699.9,142 694,142 694,144 
		698.1,144 700.1,162 722.7,162 725,145 	"/>
</g>
<path class="st5" d="M820,28h-6v1h6V28L820,28z M810,28h-6v1h6V28L810,28z M800,28h-6v1h6V28L800,28z M790,28h-6v1h6V28L790,28z
	 M780,28h-6v1h6V28L780,28z M770,28h-6v1h6V28L770,28z M760,28h-6v1h6V28L760,28z M750,28h-6v1h6V28L750,28z M740,28h-6v1h6V28
	L740,28z M730,28h-6v1h6V28L730,28z M720,28h-6v1h6V28L720,28z M710,28h-6v1h6V28L710,28z M700,28h-6v1h6V28L700,28z M690,28h-6v1h6
	V28L690,28z M680,28h-6v1h6V28L680,28z M670,28h-6v1h6V28L670,28z M660,28h-4v1l0,0c0,0.5,0,1,0,1h1v-1h3V28L660,28z M657,34h-1v6h1
	V34L657,34z M657,44h-1v6h1V44L657,44z M657,54h-1v6h1V54L657,54z M657,64h-1v6h1V64L657,64z M657,74h-1v6h1V74L657,74z M657,84h-1
	v6h1V84L657,84z M657,94h-1v6h1V94L657,94z M657,104h-1v6h1V104L657,104z M657,114h-1v6h1V114L657,114z M657,124h-1v6h1V124L657,124
	z M657,134h-1v6h1V134L657,134z M657,144h-1v6h1V144L657,144z M657,154h-1v6h1V154L657,154z M657,164h-1v6h1V164L657,164z M657,174
	h-1v6h1V174L657,174z M657,184h-1v6h1V184L657,184z M657,194h-1v6h1V194L657,194z M665,200h-6v1h6V200L665,200z M675,200h-6v1h6V200
	L675,200z M685,200h-6v1h6V200L685,200z M695,200h-6v1h6V200L695,200z M705,200h-6v1h6V200L705,200z M715,200h-6v1h6V200L715,200z
	 M725,200h-6v1h6V200L725,200z M735,200h-6v1h6V200L735,200z M745,200h-6v1h6V200L745,200z M755,200h-6v1h6V200L755,200z M765,200
	h-6v1h6V200L765,200z M775,200h-6v1h6V200L775,200z M785,200h-6v1h6V200L785,200z M795,200h-6v1h6V200L795,200z M805,200h-6v1h6V200
	L805,200z M815,200h-6v1h6V200L815,200z M825,200h-6v1h6V200L825,200z M830,196h-1v4l0,0v1h1V196L830,196z M830,186h-1v6h1V186
	L830,186z M830,176h-1v6h1V176L830,176z M830,166h-1v6h1V166L830,166z M830,156h-1v6h1V156L830,156z M830,146h-1v6h1V146L830,146z
	 M830,136h-1v6h1V136L830,136z M830,126h-1v6h1V126L830,126z M830,116h-1v6h1V116L830,116z M830,106h-1v6h1V106L830,106z M830,96h-1
	v6h1V96L830,96z M830,86h-1v6h1V86L830,86z M830,76h-1v6h1V76L830,76z M830,66h-1v6h1V66L830,66z M830,56h-1v6h1V56L830,56z M830,46
	h-1v6h1V46L830,46z M830,36h-1v6h1V36L830,36z M830,28h-6v1h5v3h1V28L830,28z"/>
<g>
	<path class="st3" d="M675.7,42.4h1.6v-3.8h0.7v3.8h1.5v0.7H678v5c0.6-0.3,1.2-0.5,1.7-0.8v0.8c-1.3,0.6-2.6,1.1-4,1.5l-0.2-0.7
		c0.5-0.1,1.1-0.3,1.7-0.5v-5.2h-1.6L675.7,42.4L675.7,42.4z M682.3,38.6c0.2,0.6,0.5,1.2,0.6,1.8h2.2c0.3-0.6,0.5-1.3,0.6-1.9
		l0.7,0.1c-0.1,0.7-0.3,1.3-0.6,1.8h1.9V45h-7.5v-4.5h2c-0.2-0.6-0.5-1.2-0.7-1.7L682.3,38.6z M687.3,46.1v5.3h-0.7v-0.6h-5v0.6
		h-0.7v-5.3H687.3z M683.7,44.3v-3.2H681v3.2H683.7z M681.6,48.1h5v-1.4h-5V48.1z M681.6,50.1h5v-1.4h-5V50.1z M682.3,41.8
		c0.3,0.6,0.5,1.2,0.7,1.8l-0.5,0.1c-0.2-0.7-0.4-1.3-0.7-1.8L682.3,41.8z M687.2,44.3v-3.2h-2.8v3.2H687.2z M686.3,41.8
		c-0.2,0.7-0.4,1.4-0.7,1.9l-0.5-0.2c0.3-0.5,0.5-1.2,0.7-1.9L686.3,41.8z"/>
	<path class="st3" d="M689.9,42.4h5.5c0.1-0.8,0.2-1.7,0.2-2.7v-1.1h0.8v0.9c0,1-0.1,2-0.2,2.8h5.9v0.8h-5.6c1,3.3,2.9,5.8,5.9,7.6
		l-0.5,0.6c-2.9-1.8-4.9-4.4-6-7.7c-0.8,3.6-2.7,6.2-5.9,7.8l-0.5-0.6c3.1-1.5,5-4.1,5.7-7.6h-5.4L689.9,42.4L689.9,42.4z"/>
	<path class="st3" d="M713.2,44.6c-0.7,1.3-1.6,2.5-2.6,3.4c1.5,1.2,3.4,2,5.7,2.6l-0.4,0.7c-2.3-0.6-4.2-1.6-5.8-2.8
		c-1.6,1.3-3.5,2.3-5.8,2.9l-0.5-0.7c2.3-0.6,4.2-1.5,5.7-2.7c-1.1-1-2-2-2.6-3.3l0.7-0.4c0.6,1.2,1.5,2.2,2.5,3.1
		c1-0.9,1.8-2,2.5-3.2L713.2,44.6z M703.9,40.4h5.9c-0.3-0.6-0.5-1.2-0.9-1.7l0.8-0.1c0.3,0.5,0.6,1.1,0.9,1.8h5.6v0.7h-12.3V40.4z
		 M708.3,42.2c-1.1,1.4-2.4,2.6-3.9,3.6l-0.5-0.6c1.5-1,2.8-2.2,3.9-3.5L708.3,42.2z M712.1,41.7c1.6,1.3,2.9,2.5,3.9,3.8l-0.6,0.5
		c-0.9-1.2-2.2-2.4-3.9-3.8L712.1,41.7z"/>
	<path class="st3" d="M719.8,43.9v-4.7h8.4v4.7h-5.5c-0.3,0.4-0.6,0.9-1,1.3h7.5c0,1.4-0.1,2.6-0.2,3.6c-0.1,0.9-0.4,1.5-0.7,1.9
		s-0.8,0.5-1.4,0.6h-1.7l-0.2-0.7c0.5,0,1,0,1.5,0c0.7,0,1.2-0.3,1.5-0.9c0.2-0.6,0.4-1.8,0.5-3.8h-1.6c-1.2,2.7-3.1,4.5-5.8,5.4
		l-0.4-0.6c2.6-0.8,4.4-2.4,5.5-4.8h-2.1c-1,1.6-2.6,2.8-4.8,3.7l-0.5-0.6c2.1-0.8,3.6-1.9,4.5-3.1h-2.4c-0.7,0.6-1.5,1-2.5,1.5
		l-0.4-0.7c1.8-0.7,3.1-1.7,3.9-2.8C721.9,43.9,719.8,43.9,719.8,43.9z M720.6,41.2h6.9v-1.4h-6.9V41.2z M727.5,43.2v-1.4h-6.9v1.4
		H727.5z"/>
	<path class="st3" d="M731.8,43.1h12.5v0.6h-12.5V43.1z M733.2,44.4h9.5V48h-4.4v0.9h4.8v0.5h-4.8v1h5.9V51h-12.5v-0.6h5.9v-1h-4.8
		v-0.5h4.8V48h-4.4V44.4z M733.5,38.8h8.9v3.4h-8.9V38.8z M734,46h3.7v-1H734V46z M737.6,47.5v-1H734v1H737.6z M734.3,40.3h7.5v-0.9
		h-7.5V40.3z M741.8,41.7v-1h-7.5v1H741.8z M738.4,44.9v1h3.7v-1H738.4z M742.1,47.5v-1h-3.7v1H742.1z"/>
	<path class="st3" d="M747.4,48.1c0.5,0.3,1,0.8,1.6,1.4c0.5,0.5,0.9,1,1.2,1.4l-0.5,0.5c-0.3-0.4-0.7-0.9-1.2-1.4
		c-0.6-0.6-1.1-1-1.5-1.4L747.4,48.1z"/>
	<path class="st3" d="M760,51.2l-0.2-0.7c0.6,0,1,0.1,1.2,0.1c0.4,0,0.5-0.1,0.5-0.4v-3.9c-0.6,0.2-1.2,0.4-1.8,0.6l-0.2-0.8
		c0.7-0.2,1.3-0.4,2-0.6v-3.4h-1.8v-0.7h1.8v-2.7h0.8v2.7h1.5v0.7h-1.5v3.1c0.5-0.2,0.9-0.4,1.3-0.7v0.8c-0.7,0.3-1.1,0.5-1.3,0.6
		v4.4c0,0.6-0.3,0.9-1,0.9C761.3,51.2,760,51.2,760,51.2z M764.1,45h8v0.7h-3.6v1.8h3v0.7h-3v2.1c0.7,0.1,1.4,0.1,2.1,0.1
		c0.6,0,1.2,0,1.8-0.1l-0.2,0.8c-0.4,0-0.9,0-1.5,0c-1.8,0-3.1-0.2-3.8-0.5c-0.6-0.3-1.1-0.9-1.5-1.8c-0.3,1-0.8,1.8-1.5,2.6
		l-0.6-0.5c1.1-1.3,1.7-2.8,1.8-4.5l0.7,0.1c0,0.5-0.1,1-0.2,1.4c0.5,1,1,1.7,1.7,2c0.2,0.1,0.3,0.1,0.5,0.2v-4.4h-3.6V45H764.1z
		 M765.1,39.1h6v4.7h-6V39.1z M765.8,41.2h4.5v-1.4h-4.5V41.2z M770.3,43.2v-1.4h-4.5v1.4H770.3z"/>
	<path class="st3" d="M780.7,39.4c-0.8,0.3-1.7,0.6-2.6,0.9V44h4v-5.3h0.8V44h3.3v0.8h-3.3v6.6h-0.8v-6.6h-4c-0.1,3-1.3,5.2-3.4,6.6
		l-0.6-0.5c2-1.3,3.1-3.3,3.2-6.1h-3.5V44h3.5v-3.5c-1,0.2-2,0.4-3,0.4l-0.2-0.7c2.4-0.2,4.5-0.7,6.2-1.5L780.7,39.4z"/>
	<path class="st3" d="M787.9,42.5h2.9v-2.2c-0.8,0.2-1.7,0.3-2.7,0.4l-0.3-0.7c2.3-0.2,4.2-0.6,5.8-1.2l0.4,0.6
		c-0.8,0.3-1.7,0.6-2.5,0.8v2.4h2.6v0.7h-2.6V44c0.8,0.8,1.8,1.7,2.7,2.7l-0.4,0.7c-0.9-1.1-1.6-2-2.3-2.6v6.6h-0.8v-6.8
		c-0.7,1.5-1.6,2.9-2.9,4.1l-0.3-0.9c1.5-1.4,2.6-2.9,3.2-4.6h-2.9L787.9,42.5L787.9,42.5z M795.5,39.9h0.8v8.7h-0.8V39.9z
		 M796.3,51.2l-0.2-0.7c0.9,0,1.5,0.1,1.9,0.1c0.5,0,0.7-0.3,0.7-0.8V38.6h0.8V50c0,0.8-0.4,1.2-1.2,1.2H796.3z"/>
	<path class="st3" d="M802.4,42.1c1,0.7,1.7,1.4,2.3,2.2l-0.5,0.5c-0.6-0.7-1.4-1.4-2.3-2.2L802.4,42.1z M804.7,46.1
		c-0.6,1.9-1.2,3.6-1.9,5.1l-0.7-0.3c0.7-1.6,1.4-3.3,1.9-5L804.7,46.1z M802.7,38.8c0.9,0.6,1.6,1.3,2.3,2l-0.5,0.5
		c-0.5-0.6-1.3-1.3-2.3-2L802.7,38.8z M805.7,40.9h0.7v10.4h-0.7V40.9z M806.5,38.6c0.9,0.6,1.6,1.3,2.2,1.9l-0.5,0.5
		c-0.5-0.6-1.2-1.3-2.1-1.9L806.5,38.6z M807.4,42.1h4.5v0.7h-1.8V45h1.7v0.7h-1.7v2.5h2.1v0.7h-4.9v-0.7h2.1v-2.5h-1.7V45h1.7v-2.2
		h-1.9L807.4,42.1L807.4,42.1z M811.2,51.3l-0.2-0.7h1.4c0.4,0,0.6-0.2,0.6-0.7V40h-3.7v-0.8h4.5v10.9c0,0.8-0.4,1.2-1.2,1.2H811.2z
		"/>
</g>
<g>
	<path class="st3" d="M84.5,69.5c-0.1,2-0.4,3.6-1,4.8l-0.8-0.7c0.6-1.2,0.8-2.9,0.9-4.8V62h4.1v10.9c0,0.9-0.4,1.3-1.2,1.3h-1.1
		l-0.2-0.9c0.5,0,0.9,0.1,1.1,0.1c0.4,0,0.5-0.3,0.5-0.8v-3.2L84.5,69.5L84.5,69.5z M86.8,65.3v-2.4h-2.3v2.4H86.8z M84.5,66.2v2.3
		h2.3v-2.3H84.5z M89.9,68.1v6.2h-1V62h5.7c0,1.7-0.1,2.9-0.3,3.4c-0.2,0.6-0.7,0.9-1.6,0.9h-1.1l-0.3-0.9h0.9c0.3,0,0.6,0,0.7-0.1
		c0.2-0.1,0.3-0.2,0.4-0.4c0.1-0.3,0.2-1,0.2-2.1h-3.7V67h4.8v1c-0.3,1.4-0.7,2.7-1.4,3.7c0.6,0.6,1.4,1.2,2.2,1.7L95,74.2
		c-0.9-0.5-1.6-1.1-2.3-1.7c-0.6,0.7-1.3,1.3-2.2,1.7L90,73.4c0.8-0.4,1.5-1,2-1.7c-0.9-1.1-1.5-2.3-1.8-3.7L89.9,68.1L89.9,68.1z
		 M91.1,68.1c0.3,1.1,0.8,2,1.5,2.9c0.5-0.8,0.9-1.8,1.1-2.9H91.1z"/>
	<path class="st3" d="M96.8,68.5h6c-0.2-0.4-0.4-0.7-0.7-1l0.9-0.3c0.3,0.4,0.6,0.9,0.8,1.3h5.4v0.9H104c0.4,0.7,0.9,1.3,1.5,1.9
		c0.8-0.5,1.5-1,2-1.7l0.7,0.6c-0.6,0.6-1.3,1.1-2,1.6c0.9,0.6,1.9,1.1,3.1,1.5l-0.6,0.9c-2.6-0.9-4.5-2.5-5.7-4.8
		c-0.6,0.6-1.3,1.2-2.3,1.8v1.9c1-0.2,2-0.5,3.1-0.8l0.2,0.9c-1.1,0.3-2.6,0.7-4.4,1l-0.2-0.9c0.3-0.1,0.4-0.3,0.4-0.5v-1.2
		c-0.9,0.4-1.7,0.7-2.6,1l-0.5-0.9c2.4-0.6,4.1-1.4,5.2-2.4h-5.2v-0.8H96.8z M100.3,61.4h1v6.3h-1v-2c-0.9,0.5-1.9,1-3.1,1.4
		l-0.4-0.9c1.3-0.4,2.5-0.9,3.5-1.5V61.4z M97.6,62c0.8,0.4,1.5,0.8,2.2,1.4l-0.5,0.8c-0.7-0.6-1.5-1.1-2.2-1.4L97.6,62z M102.1,63
		h3v-1.6h1V63h2.9v0.9h-2.9V66h2.5v0.9h-6.1V66h2.5v-2.1h-3L102.1,63L102.1,63z"/>
	<path class="st3" d="M110.7,65.7h4c0.1-0.5,0.3-1,0.4-1.7h-3.5v-1h3.7c0.1-0.4,0.2-0.9,0.3-1.7l1,0.1l-0.3,1.6h6v1h-6.2
		c-0.1,0.6-0.3,1.2-0.4,1.7h7.5v1h-7.8c-0.1,0.4-0.3,1.1-0.6,1.8h6.7v0.9c-0.7,1.1-1.7,2.1-3.2,3.1c0.8,0.3,1.6,0.6,2.4,1l-0.6,0.9
		c-2.1-1-4.2-1.8-6.5-2.5l0.5-0.8c0.9,0.3,1.9,0.6,3,0.9c1.3-0.8,2.3-1.7,3.1-2.7h-6.9c0.4-1,0.7-1.9,1-2.8h-3.7L110.7,65.7
		L110.7,65.7z"/>
	<path class="st3" d="M125.7,62h11.1v1h-10.1v9.7h10.6v1h-11.5V62H125.7z M128.6,64.2c1.3,1,2.5,2,3.6,2.9c0.8-1,1.5-2.2,2.1-3.5
		l0.9,0.5c-0.6,1.4-1.4,2.7-2.2,3.7c1.1,1,2.1,2,3,3l-0.8,0.8c-0.8-1-1.8-2-2.9-3c-1.2,1.3-2.7,2.3-4.3,3l-0.6-0.9
		c1.5-0.6,2.9-1.6,4.1-2.8c-1.2-1-2.4-2-3.7-3L128.6,64.2z"/>
</g>
<rect x="40" y="52" class="st2" width="32" height="32"/>
<g>
	<path class="st3" d="M90.3,129c0.2,0.7,0.4,1.4,0.4,2.2c0,1.1-0.1,1.9-0.4,2.3c-0.3,0.5-1.1,0.7-2.3,0.7h-0.5l-0.3-0.9h0.7
		c0.8,0,1.3-0.1,1.6-0.4c0.3-0.3,0.4-0.9,0.4-1.8c0-0.3,0-0.5-0.1-0.7c-1.6,1.2-3.6,2.2-6.1,3l-0.5-0.9c2.8-0.8,5-1.9,6.5-3.1
		c-0.1-0.4-0.3-0.8-0.4-1c-1.3,1-3.1,1.9-5.4,2.5l-0.5-0.9c2.4-0.6,4.2-1.4,5.4-2.4c-0.1-0.2-0.3-0.5-0.6-0.7l-0.3,0.2
		c-1,0.4-2.2,0.9-3.8,1.3l-0.5-0.8c1.4-0.3,2.6-0.7,3.6-1.1c0.6-0.3,1.1-0.5,1.4-0.7h-3.7v-0.9h8.4v0.9H90c-0.5,0.3-0.9,0.6-1.1,0.7
		c0.5,0.5,0.9,1.1,1.2,1.6c1.3-0.4,2.5-0.9,3.7-1.7l0.7,0.7c-0.8,0.5-1.6,0.9-2.4,1.2c0.7,1.8,1.7,3.2,3.2,4.2l-0.7,0.8
		c-1.5-1.2-2.6-2.8-3.3-4.7L90.3,129z M89.2,121.3c0.1,0.3,0.3,0.8,0.5,1.3H95v2.4h-1v-1.5h-9.8v1.5h-1v-2.4h5.5
		c-0.1-0.4-0.3-0.8-0.5-1.1L89.2,121.3z"/>
	<path class="st3" d="M102.3,130.3h-3.4v1.2h-1v-8.2h4.5v-1.9h1v1.9h4.5v7h-4.5v1.7c0,0.7,0.3,1,0.9,1h3.2c0.3,0,0.6-0.1,0.8-0.2
		c0.1-0.2,0.2-0.7,0.3-1.7l1,0.3c-0.1,1.2-0.2,1.9-0.5,2.2c-0.3,0.2-0.7,0.4-1.4,0.4H104c-1.1,0-1.7-0.6-1.7-1.8V130.3z
		 M102.3,124.3h-3.4v2.1h3.4V124.3z M98.8,127.3v2.1h3.4v-2.1C102.2,127.3,98.8,127.3,98.8,127.3z M106.8,126.4v-2.1h-3.5v2.1H106.8
		z M103.3,129.4h3.5v-2.1h-3.5V129.4z"/>
	<path class="st3" d="M110.7,125.7h4c0.1-0.5,0.3-1,0.4-1.7h-3.5v-1h3.7c0.1-0.4,0.2-0.9,0.3-1.7l1,0.1l-0.3,1.6h6v0.9h-6.2
		c-0.1,0.6-0.3,1.2-0.4,1.7h7.5v1h-7.8c-0.1,0.4-0.3,1.1-0.6,1.8h6.7v0.9c-0.7,1.1-1.7,2.1-3.2,3.1c0.8,0.3,1.6,0.6,2.4,1l-0.6,0.9
		c-2.1-1-4.2-1.8-6.5-2.5l0.5-0.8c0.9,0.3,1.9,0.6,3,0.9c1.3-0.8,2.3-1.7,3.1-2.7h-6.9c0.4-1,0.7-1.9,1-2.8h-3.7L110.7,125.7
		L110.7,125.7z"/>
	<path class="st3" d="M125.7,122h11.1v1h-10.1v9.7h10.6v1h-11.5V122H125.7z M128.6,124.2c1.3,1,2.5,2,3.6,2.9c0.8-1,1.5-2.2,2.1-3.5
		l0.9,0.5c-0.6,1.4-1.4,2.7-2.2,3.7c1.1,1,2.1,2,3,3l-0.8,0.8c-0.8-1-1.8-2-2.9-3c-1.2,1.3-2.7,2.3-4.3,3l-0.6-0.9
		c1.5-0.6,2.9-1.6,4.1-2.8c-1.2-1-2.4-2-3.7-3L128.6,124.2z"/>
</g>
<rect x="40" y="112" class="st2" width="32" height="32"/>
<g>
	<path class="st3" d="M89.3,181.4c1.7,1.7,3.7,3,6,4l-0.5,0.9c-2.3-1-4.2-2.3-5.9-3.9c-1.5,1.6-3.4,2.9-5.9,4.1l-0.5-0.9
		c2.4-1.1,4.4-2.5,6-4.1h0.8V181.4z M85,193.5c0.3-0.1,0.4-0.3,0.4-0.8v-7.3h3.3c-0.1-0.4-0.3-0.9-0.6-1.4l0.9-0.2
		c0.2,0.5,0.4,1,0.6,1.6h3.1v5h-6.3v2.7c1.2-0.2,2.2-0.5,3.2-0.8l0.2,0.9c-1.2,0.4-2.7,0.7-4.5,1L85,193.5z M91.8,187.5v-1.1h-5.3
		v1.1H91.8z M86.4,188.4v1.1h5.3v-1.1H86.4z M94.4,190.6c-0.6,0.7-1.2,1.2-1.8,1.8c0.9,0.4,1.6,0.9,2.3,1.3l-0.6,0.8
		c-1.5-1-3.4-2-5.7-2.8l0.6-0.7c0.8,0.3,1.7,0.7,2.6,1.1c0.7-0.6,1.3-1.1,1.8-1.8L94.4,190.6z"/>
	<path class="st3" d="M102.2,188v6.1h-1v-0.7h-3v0.7h-1V188H102.2z M98.3,192.4h3V189h-3V192.4z M99.1,182h7.7v4.6h-7.7V182z
		 M105.8,185.6V183h-5.7v2.7L105.8,185.6L105.8,185.6z M108.7,188v6.1h-1v-0.7h-3.1v0.7h-1V188H108.7z M104.6,192.4h3.1V189h-3.1
		V192.4z"/>
	<path class="st3" d="M110.7,185.7h4c0.1-0.5,0.3-1,0.4-1.7h-3.5v-1h3.7c0.1-0.4,0.2-0.9,0.3-1.7l1,0.1l-0.3,1.6h6v0.9h-6.2
		c-0.1,0.6-0.3,1.2-0.4,1.7h7.5v1h-7.8c-0.1,0.4-0.3,1.1-0.6,1.8h6.7v0.9c-0.7,1.1-1.7,2.1-3.2,3.1c0.8,0.3,1.6,0.6,2.4,1l-0.6,0.9
		c-2.1-1-4.2-1.8-6.5-2.5l0.5-0.8c0.9,0.3,1.9,0.6,3,0.9c1.3-0.8,2.3-1.7,3.1-2.7h-6.9c0.4-1,0.7-1.9,1-2.8h-3.7L110.7,185.7
		L110.7,185.7z"/>
	<path class="st3" d="M125.7,182h11.1v1h-10.1v9.7h10.6v1h-11.5V182H125.7z M128.6,184.2c1.3,1,2.5,2,3.6,2.9c0.8-1,1.5-2.2,2.1-3.5
		l0.9,0.5c-0.6,1.4-1.4,2.7-2.2,3.7c1.1,1,2.1,2,3,3l-0.8,0.8c-0.8-1-1.8-2-2.9-3c-1.2,1.3-2.7,2.3-4.3,3l-0.6-0.9
		c1.5-0.6,2.9-1.6,4.1-2.8c-1.2-1-2.4-2-3.7-3L128.6,184.2z"/>
</g>
<rect x="40" y="172" class="st2" width="32" height="32"/>
<path class="st5" d="M164,0h-6v1h6V0L164,0z M154,0h-6v1h6V0L154,0z M144,0h-6v1h6V0L144,0z M134,0h-6v1h6V0L134,0z M124,0h-6v1h6V0
	L124,0z M114,0h-6v1h6V0L114,0z M104,0h-6v1h6V0L104,0z M94,0h-6v1h6V0L94,0z M84,0h-6v1h6V0L84,0z M74,0h-6v1h6V0L74,0z M64,0h-6v1
	h6V0L64,0z M54,0h-6v1h6V0L54,0z M44,0h-6v1h6V0L44,0z M34,0h-6v1h6V0L34,0z M24,0h-6v1h6V0L24,0z M14,0H8v1h6V0L14,0z M4,0H0v1l0,0
	c0,0.5,0,1,0,1h1V1h3V0L4,0z M1,6H0v6h1V6L1,6z M1,16H0v6h1V16L1,16z M1,26H0v6h1V26L1,26z M1,36H0v6h1V36L1,36z M1,46H0v6h1V46
	L1,46z M1,56H0v6h1V56L1,56z M1,66H0v6h1V66L1,66z M1,76H0v6h1V76L1,76z M1,86H0v6h1V86L1,86z M1,96H0v6h1V96L1,96z M1,106H0v6h1
	V106L1,106z M1,116H0v6h1V116L1,116z M1,126H0v6h1V126L1,126z M1,136H0v6h1V136L1,136z M1,146H0v6h1V146L1,146z M1,156H0v6h1V156
	L1,156z M1,166H0v6h1V166L1,166z M1,176H0v6h1V176L1,176z M1,186H0v6h1V186L1,186z M1,196H0v6h1V196L1,196z M1,206H0v6h1V206L1,206z
	 M1,216H0v6h1V216L1,216z M1,226H0v6h1V226L1,226z M9,232H3v1h6V232L9,232z M19,232h-6v1h6V232L19,232z M29,232h-6v1h6V232L29,232z
	 M39,232h-6v1h6V232L39,232z M49,232h-6v1h6V232L49,232z M59,232h-6v1h6V232L59,232z M69,232h-6v1h6V232L69,232z M79,232h-6v1h6V232
	L79,232z M89,232h-6v1h6V232L89,232z M99,232h-6v1h6V232L99,232z M109,232h-6v1h6V232L109,232z M119,232h-6v1h6V232L119,232z
	 M129,232h-6v1h6V232L129,232z M139,232h-6v1h6V232L139,232z M149,232h-6v1h6V232L149,232z M159,232h-6v1h6V232L159,232z M169,232
	h-6v1h6V232L169,232z M174,228h-1v4l0,0v1h1V228L174,228z M174,218h-1v6h1V218L174,218z M174,208h-1v6h1V208L174,208z M174,198h-1v6
	h1V198L174,198z M174,188h-1v6h1V188L174,188z M174,178h-1v6h1V178L174,178z M174,168h-1v6h1V168L174,168z M174,158h-1v6h1V158
	L174,158z M174,148h-1v6h1V148L174,148z M174,138h-1v6h1V138L174,138z M174,128h-1v6h1V128L174,128z M174,118h-1v6h1V118L174,118z
	 M174,108h-1v6h1V108L174,108z M174,98h-1v6h1V98L174,98z M174,88h-1v6h1V88L174,88z M174,78h-1v6h1V78L174,78z M174,68h-1v6h1V68
	L174,68z M174,58h-1v6h1V58L174,58z M174,48h-1v6h1V48L174,48z M174,38h-1v6h1V38L174,38z M174,28h-1v6h1V28L174,28z M174,18h-1v6h1
	V18L174,18z M174,8h-1v6h1V8L174,8z M174,0h-6v1h5v3h1V0L174,0z"/>
<g>
	<path class="st3" d="M19.8,11.6c1.7-0.2,3.2-0.5,4.5-0.9l0.3,0.7c-0.7,0.2-1.3,0.4-1.8,0.5v2.6h1.9v0.7h-1.9v0.9
		c0.6,0.5,1.3,1.1,2,1.9l-0.4,0.6c-0.7-0.8-1.2-1.4-1.6-1.9v6.5H22v-6.7c-0.5,1.5-1.3,2.7-2.2,3.9l-0.3-0.8c1.2-1.3,2-2.8,2.5-4.4
		h-2.2v-0.7H22v-2.4c-0.5,0.1-1.2,0.2-2,0.3L19.8,11.6z M30.3,16.2c-0.3,0.4-0.6,0.8-1,1.1h3V18c-0.9,2.5-3.4,4.3-7.7,5.3l-0.4-0.7
		c1.7-0.4,3.1-0.9,4.1-1.4c-0.4-0.4-0.9-0.9-1.3-1.3l0.5-0.4c0.5,0.5,1,0.9,1.4,1.4c1.2-0.8,2.1-1.7,2.5-2.8h-3.1
		c-0.9,0.6-2.1,1.1-3.5,1.5l-0.4-0.7c2.5-0.6,4.2-1.6,5.1-2.9L30.3,16.2z M28.8,10.7c-0.2,0.4-0.5,0.7-0.7,1h3.3v0.6
		c-0.8,2.2-2.9,3.7-6.2,4.7l-0.4-0.6c1.1-0.3,2.1-0.7,3-1.2c-0.4-0.6-0.8-1-1.1-1.3l0.5-0.4c0.4,0.4,0.8,0.9,1.1,1.4
		c1.1-0.7,1.8-1.6,2.4-2.6h-3.1c-0.7,0.7-1.4,1.3-2.3,1.7l-0.5-0.6c1.4-0.7,2.5-1.7,3.3-3L28.8,10.7z"/>
	<path class="st3" d="M33.7,15.4h6.1v0.8h-3.3c-0.6,2.3-1.2,3.9-1.6,4.8c1.2-0.2,2.5-0.6,3.7-1c-0.4-0.9-0.8-1.6-1.2-2.2l0.6-0.3
		c0.7,1.2,1.3,2.5,1.9,3.9l-0.7,0.3l-0.5-1.1c-1.5,0.5-3.1,0.9-4.9,1.3l-0.2-0.7c0.1,0,0.1-0.1,0.2-0.1c0.4-0.6,1-2.2,1.8-4.9h-2.1
		v-0.8C33.5,15.4,33.7,15.4,33.7,15.4z M34.3,11.7h5v0.7h-5V11.7z M42.1,10.6h0.8v2.6H46c0,4.5-0.1,7.3-0.2,8.4
		c-0.1,1.1-0.7,1.6-1.8,1.6c-0.3,0-0.7,0-1.3,0l-0.2-0.7c0.7,0,1.2,0,1.4,0c0.6,0,1-0.4,1.1-1.1c0.1-0.8,0.2-3.3,0.2-7.4h-2.3v0.2
		c0,4.2-1,7.3-3,9.2l-0.6-0.5c1.9-1.8,2.8-4.7,2.8-8.7V14h-1.8v-0.7h1.8C42.1,13.3,42.1,10.6,42.1,10.6z"/>
	<path class="st3" d="M52.6,10.5h0.8l-5,12.9h-0.8L52.6,10.5z"/>
	<path class="st3" d="M55,12h4.1c2.2,0,3.3,1,3.3,2.9s-1.1,2.9-3.3,2.9h-3.2V22H55V12z M55.9,12.8V17H59c0.8,0,1.5-0.2,1.9-0.5
		c0.4-0.4,0.6-0.9,0.6-1.6c0-0.7-0.2-1.2-0.6-1.6c-0.4-0.4-1.1-0.5-1.9-0.5C59,12.8,55.9,12.8,55.9,12.8z"/>
	<path class="st3" d="M70.9,12.7c0.8,0.6,1.2,1.4,1.4,2.4h-0.8c-0.1-0.8-0.5-1.4-1.1-1.8c-0.6-0.4-1.3-0.6-2.1-0.6
		c-1.2,0-2.2,0.4-2.9,1.3c-0.7,0.8-1,1.9-1,3.2c0,1.3,0.3,2.3,1,3.1c0.7,0.8,1.6,1.2,2.8,1.2c0.8,0,1.6-0.2,2.2-0.7
		c0.7-0.5,1.1-1.2,1.3-2.1h0.8c-0.2,1.2-0.7,2.1-1.6,2.7c-0.8,0.6-1.7,0.9-2.7,0.9c-1.5,0-2.7-0.5-3.5-1.5c-0.8-0.9-1.1-2.1-1.1-3.6
		s0.4-2.7,1.2-3.7c0.8-1.1,2-1.6,3.6-1.6C69.3,11.8,70.2,12.1,70.9,12.7z"/>
	<path class="st3" d="M80.8,13.1h0.7v4.6c0,1.5-0.3,2.8-0.7,3.7c-0.4,0.8-1.1,1.5-2.1,2l-0.4-0.6c0.9-0.4,1.6-1.1,2-1.9
		c0.3-0.8,0.5-1.9,0.5-3.2V13.1z M83.4,11.2v8.7h-0.7v-8h-3.1v8h-0.7v-8.7H83.4z M82.1,20.4c0.8,0.8,1.5,1.6,2,2.4l-0.5,0.5
		c-0.5-0.8-1.1-1.6-2-2.4L82.1,20.4z M86.4,10.6c-0.1,0.6-0.3,1.3-0.6,2h4.6c0,4.7-0.1,7.7-0.2,8.8c-0.1,1.1-0.7,1.7-1.8,1.7
		c-0.4,0-1,0-1.9,0l-0.2-0.7c0.8,0,1.4,0,2,0c0.7,0,1.1-0.4,1.2-1.1c0.1-1,0.2-3.6,0.2-8h-4.2c-0.4,0.9-0.9,1.7-1.4,2.3L83.7,15
		c1-1.3,1.6-2.8,2-4.6L86.4,10.6z M87.6,16.7c0.5,1,0.9,2.3,1.4,3.7l-0.6,0.3c-0.1-0.3-0.2-0.7-0.3-1c-1.1,0.3-2.4,0.5-3.8,0.6
		l-0.1-0.7c0.6-0.6,1.3-2.2,2.1-4.9L87,15c-0.6,2-1.3,3.5-1.9,4.5c1.1-0.1,2-0.3,2.8-0.5c-0.3-0.9-0.6-1.5-0.8-2.1L87.6,16.7z"/>
	<path class="st3" d="M93.6,14.3c-0.2,0.7-0.4,1.4-0.7,2.1l-0.7-0.2c0.6-1.5,0.9-3,1-4.7h0.7c0,0.6-0.1,1.3-0.2,2h1.2v-3h0.8v3H97
		v0.7h-1.3V18c0.4-0.2,0.8-0.4,1.2-0.6v0.7c-0.5,0.3-0.9,0.5-1.2,0.6v4.6h-0.8V19c-0.8,0.3-1.5,0.6-2.3,0.9l-0.2-0.7
		c0.9-0.2,1.7-0.5,2.5-0.8v-4L93.6,14.3L93.6,14.3z M99.6,10.8c-0.2,0.9-0.4,1.6-0.6,2.2h5.5c0,4.5-0.1,7.3-0.2,8.4
		c-0.1,1.3-0.9,1.9-2.2,1.9c-0.2,0-0.5,0-1,0l-0.2-0.7c0.4,0,0.8,0,1.1,0c0.9,0,1.4-0.5,1.6-1.4c0.1-0.8,0.2-3.3,0.2-7.5h-1.2
		c-0.3,2.4-0.7,4.3-1.3,5.7c-0.6,1.5-1.6,2.8-2.9,3.9l-0.5-0.6c1.2-1.1,2.1-2.3,2.7-3.6c0.6-1.3,1-3.1,1.3-5.4h-1.3
		c-0.6,3.1-1.6,5.3-3.2,6.7l-0.5-0.6c1.5-1.3,2.5-3.3,3-6.2h-1.2c-0.4,0.9-0.8,1.7-1.3,2.3l-0.6-0.5c0.9-1.1,1.6-2.8,2-4.9
		L99.6,10.8z"/>
	<path class="st3" d="M109.5,10.8c-0.8,1.9-1.5,3.4-2.3,4.4c0.6-0.1,1.3-0.2,2.1-0.4c0.4-0.8,0.7-1.4,0.9-1.9l0.7,0.3
		c-1.3,2.7-2.4,4.6-3.3,5.7c0.9-0.2,1.8-0.5,2.6-0.8v0.7c-1.2,0.4-2.4,0.8-3.5,0.9l-0.2-0.7c0.1-0.1,0.3-0.1,0.4-0.2
		c0.6-0.7,1.3-1.7,2.1-3.3c-0.9,0.2-1.8,0.3-2.5,0.4l-0.2-0.7c0.1-0.1,0.2-0.2,0.3-0.3c0.8-1.3,1.5-2.8,2.1-4.5L109.5,10.8z
		 M110.9,21.6c-1.3,0.5-2.8,0.9-4.4,1.2l-0.1-0.8c1.7-0.3,3.2-0.7,4.5-1.1V21.6z M114.2,10.6c-0.1,0.5-0.3,1-0.5,1.4h4.2v0.6
		c-0.6,1.2-1.4,2.2-2.3,3.1c1,0.8,2.2,1.4,3.5,1.9l-0.4,0.7c-1.3-0.6-2.5-1.3-3.6-2.1c-1.2,1-2.5,1.8-4.1,2.3l-0.4-0.7
		c1.5-0.5,2.8-1.2,3.9-2.1c-0.7-0.6-1.3-1.2-1.8-1.9c-0.4,0.5-0.8,1-1.3,1.4l-0.5-0.6c1.2-1.1,2.1-2.5,2.5-4.1L114.2,10.6z
		 M112,20.6c2.2,0.6,4.3,1.3,6.1,2.1l-0.4,0.6c-2-0.9-4.1-1.6-6.1-2.1L112,20.6z M117.1,12.7h-3.6l-0.3,0.6c0.6,0.7,1.3,1.4,2,2
		C115.8,14.6,116.5,13.7,117.1,12.7z M113.7,18.1c1.4,0.5,2.6,1,3.8,1.7l-0.4,0.6c-1.2-0.7-2.5-1.3-3.8-1.7L113.7,18.1z"/>
	<path class="st3" d="M124.7,21.2c-1.4,0.5-2.8,1-4.2,1.3l-0.2-0.7c0.9-0.2,1.7-0.4,2.5-0.6c0.4-2,0.6-4.2,0.8-6.6l0.7,0.1
		c-0.2,2.2-0.5,4.4-0.8,6.3c0.5-0.2,0.9-0.3,1.3-0.5v0.7H124.7z M120.3,13h1.9c-0.2-0.8-0.4-1.5-0.7-2.1l0.8-0.1
		c0.3,0.8,0.5,1.5,0.6,2.2h1.7v0.7h-4.4L120.3,13L120.3,13z M121.3,14.7c0.3,1.6,0.6,3.5,0.9,5.6l-0.6,0.2c-0.3-2-0.6-3.9-0.9-5.5
		L121.3,14.7z M125,15.4h7.9v0.7h-3.8c-0.1,0.5-0.3,1-0.5,1.5h3.8v4.6c0,0.7-0.3,1-0.8,1H131l-0.2-0.7h0.6c0.2,0,0.3-0.2,0.3-0.5
		v-3.8h-1.5v4.7h-0.6v-4.7h-1.3v4.7h-0.7v-4.7h-1.5v4.9h-0.7v-5.6h2.5c0.2-0.5,0.4-1,0.5-1.5H125V15.4z M131.5,13.4v-2.2h0.7v2.9
		h-6.5v-2.9h0.7v2.2h2.1v-2.8h0.8v2.8C129.3,13.4,131.5,13.4,131.5,13.4z"/>
</g>
<path class="st4" d="M62.3,58l7.1,6.7l-2.3,3.9l-1.5-0.5L63,67.2V70v10H49V70v-2.8l-2.6,0.9L45,68.6l-2.4-4l7.2-6.6h1.8
	c0.8,1.5,2.5,2.6,4.4,2.6s3.6-1.1,4.4-2.6H62.3 M63.1,56h-4c-0.1,1.5-1.4,2.6-3,2.6s-2.9-1.1-3-2.6h-4l-9,8.2l4,6.8l3-1v12h18V70
	l3,1l3.9-6.7L63.1,56L63.1,56z"/>
<g>
	<path class="st4" d="M68,116v23H44v-23H68 M70,114H42v27h28V114L70,114z"/>
	<polygon class="st4" points="69,120 42,120 42,122 69,122 	"/>
	<path class="st4" d="M56,125c2.8,0,5,2.2,5,5s-2.2,5-5,5s-5-2.2-5-5S53.2,125,56,125 M56,123c-3.9,0-7,3.1-7,7c0,3.9,3.1,7,7,7
		s7-3.1,7-7C63,126.1,59.9,123,56,123L56,123z"/>
	<polygon class="st4" points="48,117 46,117 46,119 48,119 	"/>
	<polygon class="st4" points="52,117 50,117 50,119 52,119 	"/>
	<polygon class="st4" points="66,117 56,117 56,119 66,119 	"/>
</g>
<g>
	<path class="st4" d="M56,173c5,0,9,4,9,9v6c0,5-4,9-9,9h-2c-5,0-9-4-9-9v-6c0-5,4-9,9-9H56 M56,171h-2c-6,0-11,4.9-11,11v6
		c0,6,4.9,11,11,11h2c6,0,11-4.9,11-11v-6C67,175.9,62.1,171,56,171L56,171z"/>
	<g>
		<path class="st6" d="M63,183c-1.6,0-3.1,0.9-4,2.2c-0.9-1.3-2.4-2.2-4-2.2s-3.1,0.9-4,2.2c-0.9-1.3-2.4-2.2-4-2.2
			c-2.8,0-5,2.5-5,5.5l3,12.5h20l3-12.5C68,185.5,65.8,183,63,183z"/>
		<path class="st4" d="M63,185c1.6,0,2.9,1.5,3,3.3L63.4,199H46.6L44,188.3c0.1-1.8,1.4-3.3,3-3.3c0.9,0,1.8,0.5,2.3,1.4l1.7,2.4
			l1.7-2.4c0.6-0.9,1.4-1.4,2.3-1.4s1.8,0.5,2.3,1.4l1.7,2.4l1.7-2.4C61.2,185.5,62.1,185,63,185 M63,183c-1.6,0-3.1,0.9-4,2.2
			c-0.9-1.3-2.4-2.2-4-2.2s-3.1,0.9-4,2.2c-0.9-1.3-2.4-2.2-4-2.2c-2.8,0-5,2.5-5,5.5l3,12.5h20l3-12.5C68,185.5,65.8,183,63,183
			L63,183z"/>
	</g>
	<path class="st4" d="M49.5,178c-0.8,0-1.5,0.7-1.5,1.5s0.7,1.5,1.5,1.5s1.5-0.7,1.5-1.5S50.3,178,49.5,178L49.5,178z"/>
	<path class="st4" d="M59.5,179c-0.8,0-1.5,0.7-1.5,1.5s0.7,1.5,1.5,1.5s1.5-0.7,1.5-1.5S60.3,179,59.5,179L59.5,179z"/>
	<path class="st4" d="M55.5,175c-0.8,0-1.5,0.7-1.5,1.5s0.7,1.5,1.5,1.5s1.5-0.7,1.5-1.5S56.3,175,55.5,175L55.5,175z"/>
</g>
<rect x="186" y="38" class="st7" width="454" height="152"/>
<g>
	<rect x="495.2" y="82.1" class="st0" width="127.4" height="90.5"/>
	<rect x="493.5" y="80.1" class="st8" width="126.6" height="89.9"/>
</g>
<g>
	<rect x="350.7" y="82.1" class="st0" width="127.4" height="90.5"/>
	<rect x="349" y="80.1" class="st8" width="126.5" height="89.9"/>
</g>
<g>
	<rect x="206.2" y="82.1" class="st0" width="127.4" height="90.5"/>
	<rect x="204.5" y="80.1" class="st8" width="126.6" height="89.9"/>
</g>
<g>
	<g>
		<path class="st9" d="M212,50.6c0.7,0.5,1,1.3,1.1,2.4H212c-0.1-0.7-0.4-1.3-0.8-1.6c-0.4-0.4-1.1-0.5-1.9-0.5
			c-0.8,0-1.3,0.1-1.7,0.4c-0.5,0.3-0.7,0.7-0.7,1.3c0,0.5,0.3,0.9,0.9,1.2c0.2,0.1,0.9,0.4,1.8,0.6c1.3,0.4,2.2,0.7,2.6,1
			c0.8,0.5,1.2,1.2,1.2,2.1c0,0.9-0.4,1.6-1,2.1c-0.7,0.5-1.7,0.7-2.8,0.7c-1.2,0-2.1-0.3-2.8-0.8c-0.8-0.6-1.2-1.5-1.3-2.7h1.1
			c0.1,0.9,0.4,1.5,0.9,1.9s1.2,0.6,2,0.6s1.5-0.2,2-0.5s0.8-0.7,0.8-1.3s-0.3-1.1-1-1.5c-0.3-0.1-1-0.4-2.1-0.7
			c-1.2-0.4-1.9-0.6-2.3-0.8c-0.8-0.4-1.1-1.1-1.1-1.9c0-0.9,0.4-1.6,1.1-2c0.7-0.4,1.5-0.7,2.5-0.7C210.5,49.8,211.4,50.1,212,50.6
			z"/>
		<path class="st9" d="M216.6,50.4v2.3h1.8v0.9h-1.8v4.6c0,0.3,0.1,0.5,0.2,0.6c0.1,0.1,0.3,0.2,0.5,0.2h0.9v1h-1.1
			c-0.6,0-1-0.2-1.3-0.5c-0.2-0.3-0.4-0.7-0.4-1.2v-4.6h-1.5v-0.9h1.5v-1.9L216.6,50.4z"/>
		<path class="st9" d="M223.9,52.7v1.1c-0.3-0.1-0.7-0.2-1.1-0.2c-0.6,0-1,0.2-1.4,0.7s-0.6,1-0.6,1.7v4h-1.1v-7.2h1.1V54
			c0.2-0.4,0.4-0.8,0.8-1c0.4-0.3,0.8-0.5,1.3-0.5C223.3,52.6,223.6,52.6,223.9,52.7z"/>
		<path class="st9" d="M230.4,53.7c0.5,0.7,0.8,1.7,0.8,3h-5.7c0.1,0.8,0.3,1.5,0.7,1.9s0.9,0.7,1.6,0.7c0.6,0,1.1-0.1,1.4-0.4
			c0.3-0.2,0.5-0.6,0.7-1.1h1.1c-0.2,0.7-0.5,1.3-1,1.7c-0.6,0.5-1.4,0.8-2.3,0.8c-1,0-1.9-0.3-2.5-1s-1-1.6-1-2.8
			c0-1.1,0.3-2,0.9-2.7c0.6-0.8,1.4-1.1,2.5-1.1C228.9,52.6,229.8,53,230.4,53.7z M226.3,54.1c-0.4,0.4-0.6,1-0.7,1.7h4.5
			c-0.1-1.5-0.9-2.3-2.3-2.3C227.2,53.5,226.6,53.7,226.3,54.1z"/>
		<path class="st9" d="M238,53.4c0.4,0.5,0.6,1.1,0.6,2V60h-1v-1.2c-0.3,0.4-0.7,0.7-1.1,1c-0.6,0.3-1.1,0.4-1.8,0.4
			s-1.3-0.2-1.7-0.6c-0.4-0.4-0.7-0.9-0.7-1.5c0-0.9,0.4-1.6,1.1-2c0.6-0.4,1.4-0.5,2.4-0.5h1.7v-0.2c0-1.2-0.6-1.8-1.9-1.8
			c-0.6,0-1,0.1-1.4,0.4c-0.4,0.3-0.6,0.6-0.7,1.1h-1.1c0.1-0.8,0.5-1.4,1.1-1.8c0.5-0.4,1.2-0.6,2.2-0.6
			C236.7,52.6,237.5,52.8,238,53.4z M237.5,56.4h-1.7c-1.6,0-2.4,0.6-2.4,1.7c0,0.4,0.1,0.6,0.4,0.9c0.3,0.2,0.6,0.3,1.1,0.3
			c0.7,0,1.3-0.2,1.9-0.7c0.5-0.4,0.7-1,0.7-1.6V56.4z"/>
		<path class="st9" d="M245.8,53.9c0.3-0.5,0.6-0.8,1-1s0.8-0.3,1.3-0.3c0.7,0,1.4,0.2,1.8,0.7c0.5,0.5,0.7,1.2,0.7,2V60h-1.1v-4.6
			c0-0.6-0.1-1.1-0.4-1.4c-0.3-0.3-0.7-0.5-1.3-0.5c-0.5,0-0.9,0.2-1.2,0.5c-0.3,0.4-0.5,0.8-0.5,1.4V60H245v-4.6
			c0-1.3-0.6-1.9-1.7-1.9c-0.5,0-0.9,0.2-1.3,0.6c-0.3,0.4-0.5,0.9-0.5,1.5V60h-1.1v-7.2h1.1v1c0.5-0.8,1.2-1.2,2-1.2
			C244.7,52.6,245.4,53,245.8,53.9z"/>
		<path class="st9" d="M264.3,50.7c0.8,0.6,1.2,1.4,1.3,2.4h-1.1c-0.1-0.7-0.5-1.3-1.1-1.7c-0.5-0.4-1.2-0.6-2-0.6
			c-1.2,0-2.1,0.4-2.7,1.2s-0.9,1.8-0.9,3c0,1.3,0.3,2.2,0.9,3s1.5,1.2,2.7,1.2c0.8,0,1.5-0.2,2-0.6c0.6-0.5,1-1.1,1.2-2h1.1
			c-0.2,1.2-0.7,2.1-1.6,2.7c-0.8,0.6-1.7,0.9-2.8,0.9c-1.5,0-2.7-0.5-3.6-1.5c-0.7-0.9-1.1-2.1-1.1-3.6s0.4-2.7,1.1-3.7
			c0.8-1.1,2-1.6,3.6-1.6C262.6,49.8,263.5,50.1,264.3,50.7z"/>
		<path class="st9" d="M273,53.7c0.6,0.7,0.9,1.6,0.9,2.7c0,1.1-0.3,2-0.9,2.7c-0.7,0.8-1.5,1.1-2.6,1.1s-1.9-0.4-2.6-1.1
			c-0.6-0.7-0.9-1.6-0.9-2.7c0-1.1,0.3-2,0.9-2.7s1.5-1.1,2.6-1.1C271.5,52.6,272.4,52.9,273,53.7z M268.7,54.4
			c-0.4,0.5-0.6,1.2-0.6,2s0.2,1.5,0.6,2c0.4,0.6,1,0.9,1.8,0.9s1.4-0.3,1.8-0.9c0.4-0.5,0.6-1.2,0.6-2s-0.2-1.5-0.6-2
			c-0.4-0.6-1.1-0.9-1.8-0.9C269.7,53.5,269.1,53.8,268.7,54.4z"/>
		<path class="st9" d="M280.9,53.9c0.3-0.5,0.6-0.8,1-1s0.8-0.3,1.3-0.3c0.7,0,1.4,0.2,1.8,0.7c0.5,0.5,0.7,1.2,0.7,2V60h-1.1v-4.6
			c0-0.6-0.1-1.1-0.4-1.4c-0.3-0.3-0.7-0.5-1.3-0.5c-0.5,0-0.9,0.2-1.2,0.5c-0.3,0.4-0.5,0.8-0.5,1.4V60H280v-4.6
			c0-1.3-0.6-1.9-1.7-1.9c-0.5,0-0.9,0.2-1.3,0.6c-0.3,0.4-0.5,0.9-0.5,1.5V60h-1.1v-7.2h1.1v1c0.5-0.8,1.2-1.2,2-1.2
			C279.7,52.6,280.4,53,280.9,53.9z"/>
		<path class="st9" d="M293.3,53.7c0.6,0.7,0.8,1.6,0.8,2.7c0,1.1-0.3,1.9-0.8,2.6c-0.6,0.8-1.4,1.1-2.4,1.1s-1.8-0.5-2.4-1.5v4.1
			h-1.1v-10h1V54c0.5-0.9,1.3-1.4,2.4-1.4S292.7,53,293.3,53.7z M289,54.3c-0.4,0.5-0.5,1.2-0.5,2v0.1c0,0.8,0.2,1.5,0.6,2
			s0.9,0.8,1.6,0.8c0.8,0,1.4-0.3,1.8-0.8s0.5-1.2,0.5-2.1c0-0.8-0.2-1.5-0.5-2c-0.4-0.6-1-0.9-1.8-0.9
			C290,53.5,289.4,53.8,289,54.3z"/>
		<path class="st9" d="M295.6,52.8h1.1v4.4c0,0.7,0.1,1.2,0.4,1.5s0.8,0.5,1.4,0.5c0.5,0,0.9-0.2,1.3-0.6c0.4-0.4,0.6-0.9,0.7-1.5
			v-4.4h1.1V60h-1.1v-1.1c-0.6,0.9-1.4,1.3-2.4,1.3c-1.8,0-2.6-1-2.6-3v-4.4H295.6z"/>
		<path class="st9" d="M305.4,50.4v2.3h1.8v0.9h-1.8v4.6c0,0.3,0.1,0.5,0.2,0.6s0.3,0.2,0.5,0.2h0.9v1h-1.1c-0.6,0-1-0.2-1.3-0.5
			c-0.2-0.3-0.4-0.7-0.4-1.2v-4.6h-1.5v-0.9h1.5v-1.9L305.4,50.4z"/>
		<path class="st9" d="M314,53.7c0.5,0.7,0.8,1.7,0.8,3h-5.7c0.1,0.8,0.3,1.5,0.7,1.9c0.4,0.4,0.9,0.7,1.6,0.7
			c0.6,0,1.1-0.1,1.4-0.4c0.3-0.2,0.5-0.6,0.7-1.1h1.1c-0.2,0.7-0.5,1.3-1,1.7c-0.6,0.5-1.4,0.8-2.3,0.8c-1,0-1.9-0.3-2.5-1
			s-1-1.6-1-2.8c0-1.1,0.3-2,0.9-2.7c0.6-0.8,1.4-1.1,2.5-1.1C312.6,52.6,313.4,53,314,53.7z M309.9,54.1c-0.4,0.4-0.6,1-0.7,1.7
			h4.5c-0.1-1.5-0.9-2.3-2.3-2.3C310.8,53.5,310.2,53.7,309.9,54.1z"/>
		<path class="st9" d="M327,50.6c0.7,0.5,1,1.3,1.1,2.4H327c-0.1-0.7-0.4-1.3-0.8-1.6c-0.4-0.4-1.1-0.5-1.9-0.5s-1.3,0.1-1.7,0.4
			c-0.5,0.3-0.7,0.7-0.7,1.3c0,0.5,0.3,0.9,0.9,1.2c0.2,0.1,0.9,0.4,1.8,0.6c1.3,0.4,2.2,0.7,2.6,1c0.8,0.5,1.2,1.2,1.2,2.1
			c0,0.9-0.4,1.6-1,2.1c-0.7,0.5-1.7,0.7-2.8,0.7c-1.2,0-2.1-0.3-2.8-0.8c-0.8-0.6-1.2-1.5-1.3-2.7h1.1c0.1,0.9,0.4,1.5,0.9,1.9
			s1.2,0.6,2,0.6s1.5-0.2,2-0.5s0.8-0.7,0.8-1.3s-0.3-1.1-1-1.5c-0.3-0.1-1-0.4-2.1-0.7c-1.2-0.4-1.9-0.6-2.3-0.8
			c-0.8-0.4-1.1-1.1-1.1-1.9c0-0.9,0.4-1.6,1.1-2s1.5-0.7,2.5-0.7C325.5,49.8,326.4,50.1,327,50.6z"/>
		<path class="st9" d="M335.3,53.7c0.5,0.7,0.8,1.7,0.8,3h-5.7c0.1,0.8,0.3,1.5,0.7,1.9c0.4,0.4,0.9,0.7,1.6,0.7
			c0.6,0,1.1-0.1,1.4-0.4c0.3-0.2,0.5-0.6,0.7-1.1h1.1c-0.2,0.7-0.5,1.3-1,1.7c-0.6,0.5-1.4,0.8-2.3,0.8c-1,0-1.9-0.3-2.5-1
			s-1-1.6-1-2.8c0-1.1,0.3-2,0.9-2.7c0.6-0.8,1.4-1.1,2.5-1.1C333.8,52.6,334.7,53,335.3,53.7z M331.1,54.1c-0.4,0.4-0.6,1-0.7,1.7
			h4.5c-0.1-1.5-0.9-2.3-2.3-2.3C332,53.5,331.5,53.7,331.1,54.1z"/>
		<path class="st9" d="M341.6,52.7v1.1c-0.3-0.1-0.7-0.2-1.1-0.2c-0.6,0-1,0.2-1.4,0.7s-0.6,1-0.6,1.7v4h-1.1v-7.2h1.1V54
			c0.2-0.4,0.4-0.8,0.8-1c0.4-0.3,0.8-0.5,1.3-0.5C341,52.6,341.4,52.6,341.6,52.7z"/>
		<path class="st9" d="M341.8,52.8h1.2l2.1,5.8l2.1-5.8h1.2l-2.7,7.2h-1.1L341.8,52.8z"/>
		<path class="st9" d="M350.8,50.3c0.2,0.1,0.3,0.3,0.3,0.6c0,0.2-0.1,0.4-0.3,0.6c-0.2,0.2-0.4,0.2-0.6,0.2s-0.4-0.1-0.6-0.2
			c-0.2-0.2-0.2-0.4-0.2-0.6c0-0.3,0.1-0.5,0.2-0.6c0.2-0.2,0.4-0.2,0.6-0.2S350.7,50.1,350.8,50.3z M349.7,52.8h1.1V60h-1.1V52.8z"
			/>
		<path class="st9" d="M358.2,53.2c0.6,0.4,0.9,1.1,1,2h-1.1c-0.1-0.6-0.3-1-0.7-1.3c-0.4-0.3-0.8-0.4-1.4-0.4
			c-0.7,0-1.3,0.3-1.7,0.8c-0.4,0.5-0.6,1.2-0.6,2.1c0,0.9,0.2,1.6,0.6,2.1s0.9,0.8,1.7,0.8c1.2,0,1.9-0.6,2.1-1.9h1.1
			c-0.2,0.9-0.5,1.6-1.1,2.1s-1.3,0.7-2.2,0.7c-1.1,0-1.9-0.4-2.5-1.1c-0.6-0.7-0.9-1.6-0.9-2.7s0.3-2,0.9-2.7
			c0.6-0.8,1.5-1.1,2.5-1.1C356.9,52.6,357.6,52.8,358.2,53.2z"/>
		<path class="st9" d="M366.2,53.7c0.5,0.7,0.8,1.7,0.8,3h-5.7c0.1,0.8,0.3,1.5,0.7,1.9c0.4,0.4,0.9,0.7,1.6,0.7
			c0.6,0,1.1-0.1,1.4-0.4c0.3-0.2,0.5-0.6,0.7-1.1h1.1c-0.2,0.7-0.5,1.3-1,1.7c-0.6,0.5-1.4,0.8-2.3,0.8c-1,0-1.9-0.3-2.5-1
			s-1-1.6-1-2.8c0-1.1,0.3-2,0.9-2.7c0.6-0.8,1.4-1.1,2.5-1.1C364.7,52.6,365.6,53,366.2,53.7z M362,54.1c-0.4,0.4-0.6,1-0.7,1.7
			h4.5c-0.1-1.5-0.9-2.3-2.3-2.3C362.9,53.5,362.4,53.7,362,54.1z"/>
	</g>
</g>
<g>
	<rect x="332" y="106" class="st4" width="12" height="1"/>
	<polygon class="st4" points="343,111 348,106.5 343,102 	"/>
</g>
<g>
	<rect x="476.5" y="106" class="st4" width="12" height="1"/>
	<polygon class="st4" points="487.5,111 492.5,106.5 487.5,102 	"/>
</g>
<g>
	<rect x="174" y="106" class="st4" width="23" height="1"/>
	<polygon class="st4" points="196,111 201,106.5 196,102 	"/>
</g>
<rect x="224" y="89" class="st6" width="32" height="32"/>
<polyline class="st5" points="224,130 316,130 316,131 224,131 "/>
<g>
	<path class="st4" d="M229.8,147.2c0.5,0.5,0.9,1.1,0.9,2h-0.9c-0.1-0.6-0.3-1.1-0.7-1.4c-0.4-0.3-0.9-0.5-1.6-0.5
		c-0.6,0-1.1,0.1-1.4,0.3c-0.4,0.2-0.6,0.6-0.6,1.1c0,0.4,0.2,0.8,0.7,1c0.2,0.1,0.7,0.3,1.5,0.5c1.1,0.3,1.8,0.6,2.1,0.8
		c0.7,0.4,1,1,1,1.8s-0.3,1.3-0.9,1.8c-0.6,0.4-1.4,0.6-2.3,0.6s-1.7-0.2-2.3-0.6c-0.6-0.5-1-1.3-1.1-2.4h0.9
		c0.1,0.7,0.3,1.3,0.7,1.6s0.9,0.5,1.7,0.5c0.7,0,1.2-0.1,1.6-0.4c0.4-0.3,0.6-0.6,0.6-1.1s-0.3-1-0.8-1.3c-0.2-0.1-0.8-0.3-1.7-0.6
		c-1-0.3-1.6-0.5-1.9-0.7c-0.6-0.4-0.9-0.9-0.9-1.7s0.3-1.3,0.9-1.7c0.5-0.4,1.2-0.6,2.1-0.6C228.5,146.5,229.3,146.8,229.8,147.2z"
		/>
	<path class="st4" d="M233.6,147.1v2h1.5v0.8h-1.5v3.9c0,0.2,0,0.4,0.1,0.5s0.2,0.2,0.4,0.2h0.8v0.8H234c-0.5,0-0.8-0.1-1-0.4
		c-0.2-0.2-0.3-0.6-0.3-1.1v-3.9h-1.2v-0.8h1.2v-1.6L233.6,147.1z"/>
	<path class="st4" d="M239.5,149v1c-0.3-0.1-0.6-0.1-0.9-0.1c-0.5,0-0.9,0.2-1.2,0.6c-0.3,0.4-0.5,0.9-0.5,1.5v3.3H236v-6.2h0.9v1.1
		c0.2-0.4,0.4-0.7,0.6-0.9c0.3-0.3,0.7-0.4,1.1-0.4C239,148.9,239.3,148.9,239.5,149z"/>
	<path class="st4" d="M244.9,149.9c0.4,0.6,0.7,1.4,0.7,2.5h-4.7c0,0.7,0.2,1.2,0.5,1.6c0.3,0.4,0.8,0.6,1.3,0.6s0.9-0.1,1.2-0.4
		c0.2-0.2,0.4-0.5,0.6-1h0.9c-0.1,0.6-0.4,1.1-0.8,1.5c-0.5,0.5-1.1,0.7-1.9,0.7c-0.9,0-1.5-0.3-2-0.9c-0.5-0.6-0.8-1.4-0.8-2.4
		c0-0.9,0.2-1.7,0.7-2.3s1.2-1,2.1-1C243.7,148.9,244.4,149.2,244.9,149.9z M241.5,150.2c-0.3,0.4-0.5,0.8-0.6,1.5h3.7
		c-0.1-1.3-0.7-2-1.9-2C242.2,149.7,241.8,149.9,241.5,150.2z"/>
	<path class="st4" d="M251.2,149.6c0.4,0.4,0.5,1,0.5,1.7v4h-0.9v-1c-0.2,0.3-0.5,0.6-0.9,0.8c-0.5,0.2-0.9,0.4-1.5,0.4
		s-1.1-0.2-1.4-0.5c-0.4-0.3-0.6-0.8-0.6-1.3c0-0.8,0.3-1.4,0.9-1.7c0.5-0.3,1.2-0.5,2-0.5h1.4v-0.2c0-1-0.5-1.6-1.6-1.6
		c-0.5,0-0.9,0.1-1.1,0.3c-0.3,0.2-0.5,0.5-0.6,1h-0.9c0.1-0.7,0.4-1.2,0.9-1.6c0.4-0.3,1-0.5,1.8-0.5
		C250.1,148.9,250.7,149.1,251.2,149.6z M250.8,152.2h-1.4c-1.3,0-2,0.5-2,1.4c0,0.3,0.1,0.6,0.3,0.7c0.2,0.2,0.5,0.3,0.9,0.3
		c0.6,0,1.1-0.2,1.5-0.6c0.4-0.4,0.6-0.8,0.6-1.3L250.8,152.2L250.8,152.2z"/>
	<path class="st4" d="M257.6,150.1c0.2-0.4,0.5-0.7,0.8-0.9s0.6-0.3,1-0.3c0.6,0,1.1,0.2,1.5,0.6c0.4,0.4,0.6,1,0.6,1.7v4.1h-0.9
		v-3.9c0-0.5-0.1-1-0.3-1.2c-0.2-0.3-0.6-0.4-1.1-0.4c-0.4,0-0.7,0.2-1,0.5s-0.4,0.7-0.4,1.2v3.9h-0.9v-3.9c0-1.1-0.5-1.6-1.4-1.6
		c-0.4,0-0.8,0.2-1,0.5c-0.3,0.3-0.4,0.8-0.4,1.2v3.8h-0.9v-6.2h0.9v0.8c0.4-0.7,1-1,1.7-1C256.6,148.9,257.3,149.3,257.6,150.1z"/>
	<path class="st4" d="M268.9,147.3c0.6,0.5,1,1.2,1.1,2h-0.9c-0.1-0.6-0.4-1.1-0.9-1.4c-0.4-0.3-1-0.5-1.6-0.5c-1,0-1.7,0.3-2.2,1
		c-0.5,0.6-0.7,1.5-0.7,2.6s0.2,1.9,0.7,2.5c0.5,0.7,1.2,1,2.2,1c0.7,0,1.2-0.2,1.7-0.5c0.5-0.4,0.8-1,1-1.7h0.9
		c-0.2,1-0.6,1.8-1.3,2.3c-0.6,0.5-1.4,0.8-2.3,0.8c-1.3,0-2.3-0.4-2.9-1.3c-0.6-0.8-0.9-1.8-0.9-3.1s0.3-2.3,0.9-3.1
		c0.7-0.9,1.7-1.4,2.9-1.4C267.5,146.5,268.3,146.8,268.9,147.3z"/>
	<path class="st4" d="M276.2,149.9c0.5,0.6,0.8,1.4,0.8,2.3c0,0.9-0.2,1.7-0.7,2.3s-1.3,1-2.1,1c-0.9,0-1.6-0.3-2.1-1
		c-0.5-0.6-0.8-1.4-0.8-2.3c0-0.9,0.3-1.7,0.8-2.3s1.2-1,2.1-1S275.6,149.2,276.2,149.9z M272.5,150.5c-0.3,0.4-0.5,1-0.5,1.7
		s0.2,1.3,0.5,1.7c0.3,0.5,0.8,0.8,1.5,0.8c0.6,0,1.1-0.3,1.5-0.8c0.3-0.5,0.5-1,0.5-1.7s-0.2-1.3-0.5-1.7c-0.4-0.5-0.9-0.8-1.5-0.8
		S272.9,150,272.5,150.5z"/>
	<path class="st4" d="M283.1,151.5v3.8h-0.9v-3.7c0-1.2-0.5-1.8-1.6-1.8c-0.4,0-0.8,0.2-1.1,0.5c-0.3,0.3-0.5,0.8-0.5,1.3v3.7h-0.9
		v-6.2h0.9v0.9c0.2-0.4,0.5-0.6,0.8-0.8s0.7-0.3,1.1-0.3C282.4,148.9,283.1,149.8,283.1,151.5z"/>
	<path class="st4" d="M289.6,151.5v3.8h-0.9v-3.7c0-1.2-0.5-1.8-1.6-1.8c-0.4,0-0.8,0.2-1.1,0.5c-0.3,0.3-0.5,0.8-0.5,1.3v3.7h-0.9
		v-6.2h0.9v0.9c0.2-0.4,0.5-0.6,0.8-0.8s0.7-0.3,1.1-0.3C288.8,148.9,289.6,149.8,289.6,151.5z"/>
	<path class="st4" d="M295.6,149.9c0.4,0.6,0.7,1.4,0.7,2.5h-4.7c0,0.7,0.2,1.2,0.5,1.6c0.3,0.4,0.8,0.6,1.3,0.6s0.9-0.1,1.2-0.4
		c0.2-0.2,0.4-0.5,0.6-1h0.9c-0.1,0.6-0.4,1.1-0.8,1.5c-0.5,0.5-1.1,0.7-1.9,0.7c-0.9,0-1.5-0.3-2-0.9c-0.5-0.6-0.8-1.4-0.8-2.4
		c0-0.9,0.2-1.7,0.7-2.3s1.2-1,2.1-1C294.4,148.9,295.1,149.2,295.6,149.9z M292.2,150.2c-0.3,0.4-0.5,0.8-0.6,1.5h3.7
		c-0.1-1.3-0.7-2-1.9-2C292.9,149.7,292.5,149.9,292.2,150.2z"/>
	<path class="st4" d="M301.7,149.4c0.5,0.4,0.7,0.9,0.8,1.7h-0.9c-0.1-0.5-0.3-0.8-0.6-1.1c-0.3-0.2-0.7-0.3-1.2-0.3
		c-0.6,0-1,0.2-1.4,0.7c-0.3,0.4-0.5,1-0.5,1.8s0.2,1.4,0.5,1.8c0.3,0.4,0.8,0.7,1.4,0.7c1,0,1.6-0.5,1.7-1.6h0.9
		c-0.1,0.8-0.4,1.4-0.9,1.8c-0.5,0.4-1,0.6-1.8,0.6c-0.9,0-1.6-0.3-2.1-0.9c-0.5-0.6-0.7-1.4-0.7-2.3s0.2-1.7,0.7-2.3
		c0.5-0.7,1.2-1,2.1-1C300.7,148.9,301.3,149.1,301.7,149.4z"/>
	<path class="st4" d="M305.3,147.1v2h1.5v0.8h-1.5v3.9c0,0.2,0,0.4,0.1,0.5s0.2,0.2,0.4,0.2h0.8v0.8h-0.9c-0.5,0-0.8-0.1-1-0.4
		c-0.2-0.2-0.3-0.6-0.3-1.1v-3.9h-1.2v-0.8h1.2v-1.6L305.3,147.1z"/>
	<path class="st4" d="M312.6,149.9c0.5,0.6,0.8,1.4,0.8,2.3c0,0.9-0.2,1.7-0.7,2.3s-1.3,1-2.1,1c-0.9,0-1.6-0.3-2.1-1
		c-0.5-0.6-0.8-1.4-0.8-2.3c0-0.9,0.3-1.7,0.8-2.3s1.2-1,2.1-1S312,149.2,312.6,149.9z M309,150.5c-0.3,0.4-0.5,1-0.5,1.7
		s0.2,1.3,0.5,1.7c0.3,0.5,0.8,0.8,1.5,0.8c0.6,0,1.1-0.3,1.5-0.8c0.3-0.5,0.5-1,0.5-1.7s-0.2-1.3-0.5-1.7c-0.4-0.5-0.9-0.8-1.5-0.8
		C309.8,149.7,309.3,150,309,150.5z"/>
	<path class="st4" d="M318,149v1c-0.3-0.1-0.6-0.1-0.9-0.1c-0.5,0-0.9,0.2-1.2,0.6c-0.3,0.4-0.5,0.9-0.5,1.5v3.3h-0.9v-6.2h0.9v1.1
		c0.2-0.4,0.4-0.7,0.6-0.9c0.3-0.3,0.7-0.4,1.1-0.4C317.5,148.9,317.7,148.9,318,149z"/>
</g>
<g>
	<path class="st9" d="M228.7,95H252v15h2V93h-25.3c-0.3-0.6-1-1-1.7-1c-1.1,0-2,0.9-2,2s0.9,2,2,2C227.7,96,228.4,95.6,228.7,95z"/>
	<path class="st9" d="M253,114c-0.7,0-1.4,0.4-1.7,1H228v-15h-2v17h25.3c0.3,0.6,1,1,1.7,1c1.1,0,2-0.9,2-2S254.1,114,253,114z"/>
	<path class="st9" d="M244.7,109c-0.3-0.6-1-1-1.7-1c-1.1,0-2,0.9-2,2s0.9,2,2,2c0.7,0,1.4-0.4,1.7-1h2.3h1h1V99h-1h-1h-4.6l-6,10
		H233v-8h2.3c0.3,0.6,1,1,1.7,1c1.1,0,2-0.9,2-2s-0.9-2-2-2c-0.7,0-1.4,0.4-1.7,1H233h-1h-1v12h1h1h4.6l6-10h3.4v8H244.7z"/>
</g>
<g>
	<path class="st3" d="M275.1,100.7c0.8,0.6,1.2,1.4,1.3,2.4h-1.1c-0.1-0.7-0.5-1.3-1.1-1.7c-0.5-0.4-1.2-0.6-2-0.6
		c-1.2,0-2.1,0.4-2.7,1.2c-0.6,0.8-0.9,1.8-0.9,3s0.3,2.2,0.9,3s1.5,1.2,2.7,1.2c0.8,0,1.5-0.2,2-0.6c0.6-0.4,1-1.1,1.2-2h1.1
		c-0.2,1.2-0.7,2.1-1.6,2.7c-0.8,0.6-1.7,0.9-2.8,0.9c-1.6,0-2.7-0.5-3.6-1.5c-0.8-0.9-1.1-2.1-1.1-3.6s0.4-2.7,1.1-3.7
		c0.8-1.1,2-1.6,3.6-1.6C273.4,99.8,274.4,100.1,275.1,100.7z"/>
	<path class="st3" d="M286.2,100l-4.5,4.3l5.2,5.7h-1.5l-4.4-5l-1.6,1.5v3.5h-1.1v-10h1.1v5.2l5.4-5.2H286.2z"/>
	<path class="st3" d="M293.2,103.4c0.4,0.5,0.6,1.1,0.6,2v4.7h-1.1v-1.2c-0.3,0.4-0.7,0.7-1.1,1c-0.5,0.3-1.1,0.4-1.8,0.4
		c-0.7,0-1.3-0.2-1.7-0.5c-0.4-0.4-0.7-0.9-0.7-1.5c0-0.8,0.3-1.4,1-1.9c0.6-0.4,1.4-0.6,2.5-0.6h1.7v-0.4c0-1.2-0.6-1.8-1.9-1.8
		c-0.5,0-1,0.1-1.3,0.3c-0.4,0.2-0.6,0.6-0.7,1l-1.1-0.1c0.2-0.8,0.5-1.3,1.1-1.7c0.5-0.3,1.2-0.5,2.1-0.5
		C291.9,102.6,292.6,102.8,293.2,103.4z M291,106.6c-1.6,0-2.4,0.6-2.4,1.6c0,0.3,0.1,0.6,0.4,0.8c0.3,0.2,0.6,0.3,1.1,0.3
		c0.7,0,1.3-0.2,1.8-0.7c0.5-0.4,0.8-0.9,0.8-1.5v-0.6L291,106.6z"/>
	<path class="st3" d="M299.8,100v1h-1.2c-0.3,0-0.5,0.1-0.7,0.2c-0.1,0.2-0.2,0.4-0.2,0.8v0.8h2v0.9h-2v6.3h-1.1v-6.3h-1.8v-0.9h1.8
		V102c0-0.6,0.2-1.1,0.5-1.4c0.3-0.4,0.8-0.5,1.4-0.5L299.8,100L299.8,100z"/>
	<path class="st3" d="M301.9,99.8v6.3l3.6-3.4h1.5l-3.2,2.9l3.5,4.3h-1.4l-2.8-3.6l-1.1,1v2.6h-1.1V99.8H301.9z"/>
	<path class="st3" d="M313.6,103.4c0.4,0.5,0.6,1.1,0.6,2v4.7h-1.1v-1.2c-0.3,0.4-0.7,0.7-1.1,1c-0.5,0.3-1.1,0.4-1.8,0.4
		c-0.7,0-1.3-0.2-1.7-0.5c-0.4-0.4-0.7-0.9-0.7-1.5c0-0.8,0.3-1.4,1-1.9c0.6-0.4,1.4-0.6,2.5-0.6h1.7v-0.4c0-1.2-0.6-1.8-1.9-1.8
		c-0.5,0-1,0.1-1.3,0.3c-0.4,0.2-0.6,0.6-0.7,1l-1.1-0.1c0.2-0.8,0.5-1.3,1.1-1.7c0.5-0.3,1.2-0.5,2.1-0.5
		C312.3,102.6,313.1,102.8,313.6,103.4z M311.5,106.6c-1.6,0-2.4,0.6-2.4,1.6c0,0.3,0.1,0.6,0.4,0.8c0.3,0.2,0.6,0.3,1.1,0.3
		c0.7,0,1.3-0.2,1.8-0.7c0.5-0.4,0.8-0.9,0.8-1.5v-0.6L311.5,106.6z"/>
</g>
<rect x="511.5" y="89" class="st6" width="32" height="32"/>
<polyline class="st5" points="511.5,130 603.5,130 603.5,131 511.5,131 "/>
<g>
	<path class="st4" d="M517.3,147.2c0.5,0.5,0.9,1.1,0.9,2h-0.9c-0.1-0.6-0.3-1.1-0.7-1.4c-0.4-0.3-0.9-0.5-1.6-0.5
		c-0.6,0-1.1,0.1-1.4,0.3c-0.4,0.2-0.6,0.6-0.6,1.1c0,0.4,0.2,0.8,0.7,1c0.2,0.1,0.7,0.3,1.5,0.5c1.1,0.3,1.8,0.6,2.1,0.8
		c0.7,0.4,1,1,1,1.8s-0.3,1.3-0.9,1.8c-0.6,0.4-1.4,0.6-2.3,0.6s-1.7-0.2-2.3-0.6c-0.6-0.5-1-1.3-1.1-2.4h0.9
		c0.1,0.7,0.3,1.3,0.7,1.6s0.9,0.5,1.7,0.5c0.7,0,1.2-0.1,1.6-0.4c0.4-0.3,0.6-0.6,0.6-1.1s-0.3-1-0.8-1.3c-0.2-0.1-0.8-0.3-1.7-0.6
		c-1-0.3-1.6-0.5-1.9-0.7c-0.6-0.4-0.9-0.9-0.9-1.7s0.3-1.3,0.9-1.7c0.5-0.4,1.2-0.6,2.1-0.6C516,146.5,516.8,146.8,517.3,147.2z"/>
	<path class="st4" d="M521.1,147.1v2h1.5v0.8h-1.5v3.9c0,0.2,0,0.4,0.1,0.5s0.2,0.2,0.4,0.2h0.8v0.8h-0.9c-0.5,0-0.8-0.1-1-0.4
		c-0.2-0.2-0.3-0.6-0.3-1.1v-3.9H519v-0.8h1.2v-1.6L521.1,147.1z"/>
	<path class="st4" d="M527,149v1c-0.3-0.1-0.6-0.1-0.9-0.1c-0.5,0-0.9,0.2-1.2,0.6c-0.3,0.4-0.5,0.9-0.5,1.5v3.3h-0.9v-6.2h0.9v1.1
		c0.2-0.4,0.4-0.7,0.6-0.9c0.3-0.3,0.7-0.4,1.1-0.4C526.5,148.9,526.8,148.9,527,149z"/>
	<path class="st4" d="M532.4,149.9c0.4,0.6,0.7,1.4,0.7,2.5h-4.7c0,0.7,0.2,1.2,0.5,1.6c0.3,0.4,0.8,0.6,1.3,0.6s0.9-0.1,1.2-0.4
		c0.2-0.2,0.4-0.5,0.6-1h0.9c-0.1,0.6-0.4,1.1-0.8,1.5c-0.5,0.5-1.1,0.7-1.9,0.7c-0.9,0-1.5-0.3-2-0.9c-0.5-0.6-0.8-1.4-0.8-2.4
		c0-0.9,0.2-1.7,0.7-2.3s1.2-1,2.1-1C531.2,148.9,531.9,149.2,532.4,149.9z M529,150.2c-0.3,0.4-0.5,0.8-0.6,1.5h3.7
		c-0.1-1.3-0.7-2-1.9-2C529.7,149.7,529.3,149.9,529,150.2z"/>
	<path class="st4" d="M538.7,149.6c0.4,0.4,0.5,1,0.5,1.7v4h-0.9v-1c-0.2,0.3-0.5,0.6-0.9,0.8c-0.5,0.2-0.9,0.4-1.5,0.4
		s-1.1-0.2-1.4-0.5c-0.4-0.3-0.6-0.8-0.6-1.3c0-0.8,0.3-1.4,0.9-1.7c0.5-0.3,1.2-0.5,2-0.5h1.4v-0.2c0-1-0.5-1.6-1.6-1.6
		c-0.5,0-0.9,0.1-1.1,0.3c-0.3,0.2-0.5,0.5-0.6,1H534c0.1-0.7,0.4-1.2,0.9-1.6c0.4-0.3,1-0.5,1.8-0.5
		C537.6,148.9,538.2,149.1,538.7,149.6z M538.3,152.2h-1.4c-1.3,0-2,0.5-2,1.4c0,0.3,0.1,0.6,0.3,0.7c0.2,0.2,0.5,0.3,0.9,0.3
		c0.6,0,1.1-0.2,1.5-0.6c0.4-0.4,0.6-0.8,0.6-1.3L538.3,152.2L538.3,152.2z"/>
	<path class="st4" d="M545.1,150.1c0.2-0.4,0.5-0.7,0.8-0.9s0.6-0.3,1-0.3c0.6,0,1.1,0.2,1.5,0.6c0.4,0.4,0.6,1,0.6,1.7v4.1h-0.9
		v-3.9c0-0.5-0.1-1-0.3-1.2c-0.2-0.3-0.6-0.4-1.1-0.4c-0.4,0-0.7,0.2-1,0.5s-0.4,0.7-0.4,1.2v3.9h-0.9v-3.9c0-1.1-0.5-1.6-1.4-1.6
		c-0.4,0-0.8,0.2-1,0.5c-0.3,0.3-0.4,0.8-0.4,1.2v3.8h-0.9v-6.2h0.9v0.8c0.4-0.7,1-1,1.7-1C544.1,148.9,544.8,149.3,545.1,150.1z"/>
	<path class="st4" d="M556.4,147.3c0.6,0.5,1,1.2,1.1,2h-0.9c-0.1-0.6-0.4-1.1-0.9-1.4c-0.4-0.3-1-0.5-1.6-0.5c-1,0-1.7,0.3-2.2,1
		c-0.5,0.6-0.7,1.5-0.7,2.6s0.2,1.9,0.7,2.5c0.5,0.7,1.2,1,2.2,1c0.7,0,1.2-0.2,1.7-0.5c0.5-0.4,0.8-1,1-1.7h0.9
		c-0.2,1-0.6,1.8-1.3,2.3c-0.6,0.5-1.4,0.8-2.3,0.8c-1.3,0-2.3-0.4-2.9-1.3c-0.6-0.8-0.9-1.8-0.9-3.1s0.3-2.3,0.9-3.1
		c0.7-0.9,1.7-1.4,2.9-1.4C555,146.5,555.8,146.8,556.4,147.3z"/>
	<path class="st4" d="M563.7,149.9c0.5,0.6,0.8,1.4,0.8,2.3c0,0.9-0.2,1.7-0.7,2.3s-1.3,1-2.1,1c-0.9,0-1.6-0.3-2.1-1
		c-0.5-0.6-0.8-1.4-0.8-2.3c0-0.9,0.3-1.7,0.8-2.3s1.2-1,2.1-1S563.1,149.2,563.7,149.9z M560,150.5c-0.3,0.4-0.5,1-0.5,1.7
		s0.2,1.3,0.5,1.7c0.3,0.5,0.8,0.8,1.5,0.8c0.6,0,1.1-0.3,1.5-0.8c0.3-0.5,0.5-1,0.5-1.7s-0.2-1.3-0.5-1.7c-0.4-0.5-0.9-0.8-1.5-0.8
		S560.4,150,560,150.5z"/>
	<path class="st4" d="M570.6,151.5v3.8h-0.9v-3.7c0-1.2-0.5-1.8-1.6-1.8c-0.4,0-0.8,0.2-1.1,0.5s-0.5,0.8-0.5,1.3v3.7h-0.9v-6.2h0.9
		v0.9c0.2-0.4,0.5-0.6,0.8-0.8s0.7-0.3,1.1-0.3C569.9,148.9,570.6,149.8,570.6,151.5z"/>
	<path class="st4" d="M577.1,151.5v3.8h-0.9v-3.7c0-1.2-0.5-1.8-1.6-1.8c-0.4,0-0.8,0.2-1.1,0.5s-0.5,0.8-0.5,1.3v3.7h-0.9v-6.2h0.9
		v0.9c0.2-0.4,0.5-0.6,0.8-0.8s0.7-0.3,1.1-0.3C576.3,148.9,577.1,149.8,577.1,151.5z"/>
	<path class="st4" d="M583.1,149.9c0.4,0.6,0.7,1.4,0.7,2.5h-4.7c0,0.7,0.2,1.2,0.5,1.6c0.3,0.4,0.8,0.6,1.3,0.6s0.9-0.1,1.2-0.4
		c0.2-0.2,0.4-0.5,0.6-1h0.9c-0.1,0.6-0.4,1.1-0.8,1.5c-0.5,0.5-1.1,0.7-1.9,0.7c-0.9,0-1.5-0.3-2-0.9c-0.5-0.6-0.8-1.4-0.8-2.4
		c0-0.9,0.2-1.7,0.7-2.3s1.2-1,2.1-1C581.9,148.9,582.6,149.2,583.1,149.9z M579.7,150.2c-0.3,0.4-0.5,0.8-0.6,1.5h3.7
		c-0.1-1.3-0.7-2-1.9-2C580.4,149.7,580,149.9,579.7,150.2z"/>
	<path class="st4" d="M589.2,149.4c0.5,0.4,0.7,0.9,0.8,1.7h-0.9c-0.1-0.5-0.3-0.8-0.6-1.1c-0.3-0.2-0.7-0.3-1.2-0.3
		c-0.6,0-1,0.2-1.4,0.7c-0.3,0.4-0.5,1-0.5,1.8s0.2,1.4,0.5,1.8c0.3,0.4,0.8,0.7,1.4,0.7c1,0,1.6-0.5,1.7-1.6h0.9
		c-0.1,0.8-0.4,1.4-0.9,1.8c-0.5,0.4-1,0.6-1.8,0.6c-0.9,0-1.6-0.3-2.1-0.9c-0.5-0.6-0.7-1.4-0.7-2.3s0.2-1.7,0.7-2.3
		c0.5-0.7,1.2-1,2.1-1C588.2,148.9,588.8,149.1,589.2,149.4z"/>
	<path class="st4" d="M592.8,147.1v2h1.5v0.8h-1.5v3.9c0,0.2,0,0.4,0.1,0.5s0.2,0.2,0.4,0.2h0.8v0.8h-0.9c-0.5,0-0.8-0.1-1-0.4
		c-0.2-0.2-0.3-0.6-0.3-1.1v-3.9h-1.2v-0.8h1.2v-1.6L592.8,147.1z"/>
	<path class="st4" d="M600.1,149.9c0.5,0.6,0.8,1.4,0.8,2.3c0,0.9-0.2,1.7-0.7,2.3s-1.3,1-2.1,1c-0.9,0-1.6-0.3-2.1-1
		c-0.5-0.6-0.8-1.4-0.8-2.3c0-0.9,0.3-1.7,0.8-2.3s1.2-1,2.1-1C599,148.9,599.5,149.2,600.1,149.9z M596.5,150.5
		c-0.3,0.4-0.5,1-0.5,1.7s0.2,1.3,0.5,1.7c0.3,0.5,0.8,0.8,1.5,0.8c0.6,0,1.1-0.3,1.5-0.8c0.3-0.5,0.5-1,0.5-1.7s-0.2-1.3-0.5-1.7
		c-0.4-0.5-0.9-0.8-1.5-0.8C597.3,149.7,596.8,150,596.5,150.5z"/>
	<path class="st4" d="M605.5,149v1c-0.3-0.1-0.6-0.1-0.9-0.1c-0.5,0-0.9,0.2-1.2,0.6c-0.3,0.4-0.5,0.9-0.5,1.5v3.3H602v-6.2h0.9v1.1
		c0.2-0.4,0.4-0.7,0.6-0.9c0.3-0.3,0.7-0.4,1.1-0.4C605,148.9,605.2,148.9,605.5,149z"/>
</g>
<g>
	<path class="st9" d="M516.2,95h23.3v15h2V93h-25.3c-0.3-0.6-1-1-1.7-1c-1.1,0-2,0.9-2,2s0.9,2,2,2C515.2,96,515.9,95.6,516.2,95z"
		/>
	<path class="st9" d="M540.5,114c-0.7,0-1.4,0.4-1.7,1h-23.3v-15h-2v17h25.3c0.3,0.6,1,1,1.7,1c1.1,0,2-0.9,2-2S541.6,114,540.5,114
		z"/>
	<path class="st9" d="M532.2,109c-0.3-0.6-1-1-1.7-1c-1.1,0-2,0.9-2,2s0.9,2,2,2c0.7,0,1.4-0.4,1.7-1h2.3h1h1V99h-1h-1h-4.6l-6,10
		h-3.4v-8h2.3c0.3,0.6,1,1,1.7,1c1.1,0,2-0.9,2-2s-0.9-2-2-2c-0.7,0-1.4,0.4-1.7,1h-2.3h-1h-1v12h1h1h4.6l6-10h3.4v8H532.2z"/>
</g>
<g>
	<path class="st3" d="M562.6,100.7c0.8,0.6,1.2,1.4,1.3,2.4h-1.1c-0.1-0.7-0.5-1.3-1.1-1.7c-0.5-0.4-1.2-0.6-2-0.6
		c-1.2,0-2.1,0.4-2.7,1.2c-0.6,0.8-0.9,1.8-0.9,3s0.3,2.2,0.9,3c0.6,0.8,1.5,1.2,2.7,1.2c0.8,0,1.5-0.2,2-0.6c0.6-0.4,1-1.1,1.2-2
		h1.1c-0.2,1.2-0.7,2.1-1.6,2.7c-0.8,0.6-1.7,0.9-2.8,0.9c-1.6,0-2.7-0.5-3.6-1.5c-0.8-0.9-1.1-2.1-1.1-3.6s0.4-2.7,1.1-3.7
		c0.8-1.1,2-1.6,3.6-1.6C560.9,99.8,561.9,100.1,562.6,100.7z"/>
	<path class="st3" d="M573.7,100l-4.5,4.3l5.2,5.7h-1.5l-4.4-5l-1.6,1.5v3.5h-1.1v-10h1.1v5.2l5.4-5.2H573.7z"/>
	<path class="st3" d="M580.7,103.4c0.4,0.5,0.6,1.1,0.6,2v4.7h-1.1v-1.2c-0.3,0.4-0.7,0.7-1.1,1c-0.5,0.3-1.1,0.4-1.8,0.4
		s-1.3-0.2-1.7-0.5c-0.4-0.4-0.7-0.9-0.7-1.5c0-0.8,0.3-1.4,1-1.9c0.6-0.4,1.4-0.6,2.5-0.6h1.7v-0.4c0-1.2-0.6-1.8-1.9-1.8
		c-0.5,0-1,0.1-1.3,0.3c-0.4,0.2-0.6,0.6-0.7,1l-1.1-0.1c0.2-0.8,0.5-1.3,1.1-1.7c0.5-0.3,1.2-0.5,2.1-0.5
		C579.4,102.6,580.1,102.8,580.7,103.4z M578.5,106.6c-1.6,0-2.4,0.6-2.4,1.6c0,0.3,0.1,0.6,0.4,0.8c0.3,0.2,0.6,0.3,1.1,0.3
		c0.7,0,1.3-0.2,1.8-0.7c0.5-0.4,0.8-0.9,0.8-1.5v-0.6L578.5,106.6z"/>
	<path class="st3" d="M587.3,100v1h-1.2c-0.3,0-0.5,0.1-0.7,0.2c-0.1,0.2-0.2,0.4-0.2,0.8v0.8h2v0.9h-2v6.3h-1.1v-6.3h-1.8v-0.9h1.8
		V102c0-0.6,0.2-1.1,0.5-1.4c0.3-0.4,0.8-0.5,1.4-0.5L587.3,100L587.3,100z"/>
	<path class="st3" d="M589.4,99.8v6.3l3.6-3.4h1.5l-3.2,2.9l3.5,4.3h-1.4l-2.8-3.6l-1.1,1v2.6h-1.1V99.8H589.4z"/>
	<path class="st3" d="M601.1,103.4c0.4,0.5,0.6,1.1,0.6,2v4.7h-1.1v-1.2c-0.3,0.4-0.7,0.7-1.1,1c-0.5,0.3-1.1,0.4-1.8,0.4
		s-1.3-0.2-1.7-0.5c-0.4-0.4-0.7-0.9-0.7-1.5c0-0.8,0.3-1.4,1-1.9c0.6-0.4,1.4-0.6,2.5-0.6h1.7v-0.4c0-1.2-0.6-1.8-1.9-1.8
		c-0.5,0-1,0.1-1.3,0.3c-0.4,0.2-0.6,0.6-0.7,1l-1.1-0.1c0.2-0.8,0.5-1.3,1.1-1.7c0.5-0.3,1.2-0.5,2.1-0.5
		C599.8,102.6,600.6,102.8,601.1,103.4z M599,106.6c-1.6,0-2.4,0.6-2.4,1.6c0,0.3,0.1,0.6,0.4,0.8c0.3,0.2,0.6,0.3,1.1,0.3
		c0.7,0,1.3-0.2,1.8-0.7c0.5-0.4,0.8-0.9,0.8-1.5v-0.6L599,106.6z"/>
</g>
<rect x="371" y="89" class="st6" width="32" height="32"/>
<g>
	<path class="st3" d="M414.5,101.9c0.9,0.7,1.7,1.4,2.3,2.1l-0.7,0.7c-0.5-0.6-1.3-1.3-2.3-2.1L414.5,101.9z M416.8,106
		c-0.5,1.8-1.1,3.5-1.8,5.1l-0.9-0.4c0.7-1.6,1.3-3.3,1.8-5L416.8,106z M414.8,98.6c0.9,0.6,1.6,1.2,2.2,1.8l-0.7,0.7
		c-0.5-0.6-1.3-1.2-2.2-1.8L414.8,98.6z M419.4,104.9c-0.1,1.8-0.2,3.2-0.5,4c-0.3,0.9-0.9,1.7-1.7,2.3l-0.6-0.8
		c0.7-0.6,1.1-1.2,1.4-1.9c0.3-0.7,0.4-1.9,0.5-3.6H419.4z M417.6,103.4c0.1,0,0.2-0.1,0.2-0.1c0.5-0.3,1.2-1.2,2-2.6h-2.5v-0.9h3.9
		c-0.2-0.5-0.4-1-0.6-1.4l1-0.2c0.2,0.4,0.4,0.9,0.6,1.6h3.7v0.9h-5.1c-0.7,1.2-1.2,2-1.7,2.6c1.6-0.1,3.2-0.2,4.8-0.4
		c-0.4-0.5-0.7-1-1-1.2l0.8-0.5c0.9,1.1,1.7,2.1,2.2,3l-0.8,0.6c-0.1-0.1-0.3-0.5-0.6-1.1c-2,0.2-4.2,0.4-6.7,0.6L417.6,103.4z
		 M420.7,104.9h1v6.1h-1V104.9z M424.4,111.1c-0.8,0-1.2-0.4-1.2-1.1v-5.1h1v4.9c0,0.2,0.1,0.3,0.3,0.3h0.6c0.3,0,0.4-0.2,0.4-0.5
		c0.1-0.3,0.1-0.9,0.1-1.6l0.9,0.3c0,1.2-0.1,2-0.3,2.3c-0.2,0.3-0.5,0.4-1.1,0.4L424.4,111.1L424.4,111.1z"/>
	<path class="st3" d="M427.6,102.7h3v6.2c0.7-0.6,1.2-1,1.7-1.5l0.3,1c-0.8,0.8-1.8,1.6-2.8,2.2l-0.4-0.9c0.2-0.2,0.3-0.4,0.3-0.6
		v-5.6h-2.1V102.7z M429.3,98.6c1,0.7,1.8,1.4,2.4,2.2l-0.7,0.7c-0.6-0.7-1.4-1.4-2.4-2.2L429.3,98.6z M432,102.6h3.8v-4.2h1v4.2
		h3.6v1h-3.6v7.7h-1v-7.7H432V102.6z"/>
	<path class="st3" d="M443.5,101.6h9.2v5.5H451v0.9h3.2v0.9H451v2.4h-1v-2.4h-4c-0.1,0.4-0.3,0.8-0.6,1.1c-0.5,0.5-1.2,1-2.3,1.3
		l-0.5-0.8c1-0.3,1.7-0.6,2.1-1c0.1-0.2,0.2-0.3,0.3-0.5h-3.2v-1h3.4c0-0.2,0-0.3,0-0.4v-0.5h-1.8v-5.5H443.5z M443.9,100.2
		c-0.4,0.6-0.7,1.1-1.2,1.6l-0.8-0.5c0.9-0.9,1.5-1.9,1.8-2.9l1,0.2l-0.4,0.8h3.5v0.9H446c0.3,0.3,0.4,0.6,0.6,0.9l-0.8,0.3
		c-0.2-0.4-0.5-0.8-0.8-1.2h-1.1L443.9,100.2L443.9,100.2z M444.5,103.2h7.3v-0.8h-7.3V103.2z M444.5,104.7h7.3v-0.8h-7.3V104.7z
		 M451.7,106.3v-0.9h-7.3v0.9H451.7z M446.3,107.1v0.5c0,0.1,0,0.2,0,0.4h3.8v-0.9H446.3z M449.7,100.2c-0.3,0.5-0.6,0.9-0.9,1.3
		L448,101c0.7-0.8,1.2-1.6,1.5-2.6l1,0.2l-0.3,0.8h4v0.9h-2.3c0.2,0.3,0.4,0.6,0.6,0.9l-0.8,0.3c-0.2-0.4-0.5-0.8-0.8-1.2h-1.2
		L449.7,100.2L449.7,100.2z"/>
</g>
<polyline class="st5" points="371,130 455,130 455,131 371,131 "/>
<g>
	<path class="st4" d="M377,147.2c0.6,0.5,0.9,1.1,1,2h-1c-0.1-0.6-0.3-1.1-0.7-1.4c-0.4-0.3-0.9-0.5-1.6-0.5c-0.6,0-1.1,0.1-1.5,0.3
		s-0.6,0.6-0.6,1.1c0,0.4,0.2,0.8,0.7,1c0.2,0.1,0.7,0.3,1.6,0.5c1.1,0.3,1.9,0.6,2.2,0.8c0.7,0.4,1.1,1,1.1,1.8s-0.3,1.3-0.9,1.8
		c-0.6,0.4-1.4,0.6-2.4,0.6s-1.8-0.2-2.4-0.6c-0.7-0.5-1-1.3-1.1-2.4h1c0.1,0.7,0.3,1.3,0.8,1.6c0.4,0.3,1,0.5,1.7,0.5
		s1.3-0.1,1.7-0.4c0.4-0.3,0.6-0.6,0.6-1.1s-0.3-1-0.9-1.3c-0.2-0.1-0.8-0.3-1.8-0.6s-1.7-0.5-2-0.7c-0.7-0.4-1-0.9-1-1.7
		s0.3-1.3,0.9-1.7s1.3-0.6,2.2-0.6C375.7,146.5,376.5,146.8,377,147.2z"/>
	<path class="st4" d="M381,147.1v2h1.5v0.8H381v3.9c0,0.2,0,0.4,0.1,0.5s0.2,0.2,0.5,0.2h0.8v0.8h-0.9c-0.5,0-0.9-0.1-1.1-0.4
		c-0.2-0.2-0.3-0.6-0.3-1.1v-3.9h-1.2v-0.8h1.2v-1.6L381,147.1z"/>
	<path class="st4" d="M387.2,149v1c-0.3-0.1-0.6-0.1-0.9-0.1c-0.5,0-0.9,0.2-1.2,0.6c-0.3,0.4-0.5,0.9-0.5,1.5v3.3h-0.9v-6.2h0.9
		v1.1c0.2-0.4,0.4-0.7,0.6-0.9c0.3-0.3,0.7-0.4,1.1-0.4C386.7,148.9,386.9,148.9,387.2,149z"/>
	<path class="st4" d="M392.8,149.9c0.5,0.6,0.7,1.4,0.7,2.5h-4.9c0,0.7,0.2,1.2,0.6,1.6c0.3,0.4,0.8,0.6,1.4,0.6
		c0.5,0,0.9-0.1,1.2-0.4c0.3-0.2,0.5-0.5,0.6-1h1c-0.1,0.6-0.4,1.1-0.8,1.5c-0.5,0.5-1.2,0.7-2,0.7c-0.9,0-1.6-0.3-2.1-0.9
		c-0.5-0.6-0.8-1.4-0.8-2.4c0-0.9,0.3-1.7,0.8-2.3s1.2-1,2.1-1C391.5,148.9,392.3,149.2,392.8,149.9z M389.2,150.2
		c-0.3,0.4-0.5,0.8-0.6,1.5h3.9c-0.1-1.3-0.8-2-2-2C390,149.7,389.6,149.9,389.2,150.2z"/>
	<path class="st4" d="M399.3,149.6c0.4,0.4,0.6,1,0.6,1.7v4H399v-1c-0.2,0.3-0.6,0.6-1,0.8c-0.5,0.2-1,0.4-1.5,0.4
		c-0.6,0-1.1-0.2-1.5-0.5s-0.6-0.8-0.6-1.3c0-0.8,0.3-1.4,0.9-1.7c0.5-0.3,1.2-0.5,2.1-0.5h1.5v-0.2c0-1-0.5-1.6-1.6-1.6
		c-0.5,0-0.9,0.1-1.2,0.3c-0.3,0.2-0.5,0.5-0.6,1h-0.9c0.1-0.7,0.4-1.2,0.9-1.6c0.4-0.3,1.1-0.5,1.8-0.5
		C398.2,148.9,398.9,149.1,399.3,149.6z M398.9,152.2h-1.4c-1.4,0-2.1,0.5-2.1,1.4c0,0.3,0.1,0.6,0.3,0.7c0.2,0.2,0.5,0.3,0.9,0.3
		c0.6,0,1.2-0.2,1.6-0.6c0.4-0.4,0.6-0.8,0.6-1.3v-0.5L398.9,152.2L398.9,152.2z"/>
	<path class="st4" d="M406,150.1c0.2-0.4,0.5-0.7,0.9-0.9c0.3-0.2,0.7-0.3,1.1-0.3c0.6,0,1.2,0.2,1.6,0.6c0.4,0.4,0.6,1,0.6,1.7v4.1
		h-1v-3.9c0-0.5-0.1-1-0.3-1.2c-0.2-0.3-0.6-0.4-1.2-0.4c-0.4,0-0.8,0.2-1,0.5c-0.3,0.3-0.4,0.7-0.4,1.2v3.9h-1v-3.9
		c0-1.1-0.5-1.6-1.4-1.6c-0.4,0-0.8,0.2-1.1,0.5c-0.3,0.3-0.4,0.8-0.4,1.2v3.8h-1v-6.2h1v0.8c0.5-0.7,1-1,1.8-1
		C405,148.9,405.6,149.3,406,150.1z"/>
	<path class="st4" d="M416.9,147.2c0.6,0.5,0.9,1.1,1,2h-1c-0.1-0.6-0.3-1.1-0.7-1.4c-0.4-0.3-0.9-0.5-1.6-0.5
		c-0.6,0-1.1,0.1-1.5,0.3s-0.6,0.6-0.6,1.1c0,0.4,0.2,0.8,0.7,1c0.2,0.1,0.7,0.3,1.6,0.5c1.1,0.3,1.9,0.6,2.2,0.8
		c0.7,0.4,1.1,1,1.1,1.8s-0.3,1.3-0.9,1.8c-0.6,0.4-1.4,0.6-2.4,0.6s-1.8-0.2-2.4-0.6c-0.7-0.5-1-1.3-1.1-2.4h1
		c0.1,0.7,0.3,1.3,0.8,1.6c0.4,0.3,1,0.5,1.7,0.5s1.3-0.1,1.7-0.4c0.4-0.3,0.6-0.6,0.6-1.1s-0.3-1-0.9-1.3c-0.2-0.1-0.8-0.3-1.8-0.6
		s-1.7-0.5-2-0.7c-0.7-0.4-1-0.9-1-1.7s0.3-1.3,0.9-1.7s1.3-0.6,2.2-0.6C415.6,146.5,416.3,146.8,416.9,147.2z"/>
	<path class="st4" d="M426.1,147.8c0.7,0.8,1.1,1.9,1.1,3.2s-0.4,2.3-1.1,3.2l-0.1,0.1c0.3,0.4,0.6,0.8,1,1.4l-0.6,0.6
		c-0.4-0.6-0.7-1-1-1.4c-0.7,0.4-1.4,0.7-2.3,0.7c-1.3,0-2.3-0.4-3-1.3c-0.7-0.8-1.1-1.9-1.1-3.2s0.4-2.4,1.1-3.2
		c0.7-0.9,1.8-1.3,3-1.3C424.3,146.5,425.3,147,426.1,147.8z M420.7,148.4c-0.5,0.6-0.8,1.5-0.8,2.6s0.3,1.9,0.8,2.6
		c0.6,0.7,1.3,1,2.3,1c0.7,0,1.3-0.2,1.8-0.5c-0.5-0.6-1-1.2-1.4-1.7l0.6-0.6c0.6,0.6,1,1.1,1.5,1.7c0.5-0.6,0.7-1.5,0.7-2.5
		c0-1.1-0.3-1.9-0.8-2.6c-0.6-0.7-1.3-1-2.3-1C422.1,147.4,421.3,147.8,420.7,148.4z"/>
	<path class="st4" d="M428.5,146.7h1v7.7h5v0.9h-5.9v-8.6L428.5,146.7L428.5,146.7z"/>
</g>
<g>
	<g>
		<path class="st9" d="M400,114c-0.7,0-1.4,0.4-1.7,1H375v-15h-2v17h25.3c0.3,0.6,1,1,1.7,1c1.1,0,2-0.9,2-2S401.1,114,400,114z"/>
		<path class="st9" d="M375.7,95H399v15h2V93h-25.3c-0.3-0.6-1-1-1.7-1c-1.1,0-2,0.9-2,2s0.9,2,2,2C374.7,96,375.4,95.6,375.7,95z"
			/>
		<path class="st9" d="M393,97c-0.7,0-1.4,0.4-1.7,1h-2.7c-0.9,0-1.9,0.6-2.8,1.2c-0.6,0.4-1.3,0.8-1.7,0.8H379v2h5.1
			c0.9,0,1.9-0.6,2.7-1.2c0.6-0.4,1.3-0.9,1.7-0.9h2.7c0.3,0.6,1,1,1.7,1c1.1,0,2-0.9,2-2C395,97.9,394.1,97,393,97z"/>
		<path class="st9" d="M393,103c-0.7,0-1.4,0.4-1.7,1H379v2h12.3c0.3,0.6,1,1,1.7,1c1.1,0,2-0.9,2-2S394.1,103,393,103z"/>
		<path class="st9" d="M393,109c-0.7,0-1.4,0.4-1.7,1h-2.7c-0.4,0-1.1-0.5-1.7-0.9c-0.9-0.6-1.8-1.2-2.7-1.2H379v2h5.1
			c0.3,0,1.1,0.5,1.7,0.8c0.9,0.6,1.8,1.2,2.8,1.2h2.7c0.3,0.6,1,1,1.7,1c1.1,0,2-0.9,2-2C395,109.9,394.1,109,393,109z"/>
	</g>
</g>
<g>
	<rect x="620" y="106" class="st4" width="29" height="1"/>
	<polygon class="st4" points="646,111 651,106.5 646,102 	"/>
</g>
</svg>
