<?xml version="1.0" encoding="utf-8"?>
<!-- Generator: Adobe Illustrator 23.0.3, SVG Export Plug-In . SVG Version: 6.00 Build 0)  -->
<svg version="1.1" id="图层_1" xmlns="http://www.w3.org/2000/svg" xmlns:xlink="http://www.w3.org/1999/xlink" x="0px" y="0px"
	 width="32px" height="32px" viewBox="0 0 32 32" style="enable-background:new 0 0 32 32;" xml:space="preserve">
<style type="text/css">
	.st0{fill:#FFFFFF;}
</style>
<path class="st0" d="M23.007,8.007v3v2.999l2.768-1.152l4.232-1.761v9.068l-4.529-1.097l-2.471-0.599v2.542v3h-21v-16H23.007
	 M25.007,6.007h-25v20h25v-5l7,1.696V8.094l-7,2.913V6.007L25.007,6.007z"/>
<path id="XMLID_88_" class="st0" d="M11.007,14.115l2.226,1.392l-2.226,1.392V14.115 M9.513,10.912c-0.263,0-0.505,0.21-0.505,0.505
	v8.18c0,0.296,0.243,0.505,0.505,0.505c0.089,0,0.181-0.024,0.266-0.077l6.544-4.09c0.316-0.197,0.316-0.658,0-0.855l-6.544-4.09
	C9.694,10.936,9.602,10.912,9.513,10.912L9.513,10.912z"/>
</svg>
