<?xml version="1.0" encoding="utf-8"?>
<!-- Generator: Adobe Illustrator 21.0.0, SVG Export Plug-In . SVG Version: 6.00 Build 0)  -->
<svg version="1.1" id="图层_1" xmlns="http://www.w3.org/2000/svg" xmlns:xlink="http://www.w3.org/1999/xlink" x="0px" y="0px"
	 width="46px" height="46px" viewBox="0 0 46 46" style="enable-background:new 0 0 46 46;" xml:space="preserve">
<style type="text/css">
	.st0{fill:#334966;}
	.st1{fill:#00A4FF;}
</style>
<path id="Shape" class="st0" d="M23,0C10.3,0,0,10.3,0,23s10.3,23,23,23s23-10.3,23-23S35.7,0,23,0 M23,2c11.6,0,21,9.4,21,21
	s-9.4,21-21,21S2,34.6,2,23S11.4,2,23,2"/>
<path id="Shape_1_" class="st0" d="M8.6,16c2.6-5.3,8.1-9,14.4-9s11.8,3.7,14.4,9h2.2C36.9,9.5,30.5,5,23,5S9.1,9.5,6.4,16H8.6z
	 M37.8,29c-2.4,5.9-8.1,10-14.8,10S10.6,34.9,8.2,29H6c2.5,7,9.1,12,17,12c7.8,0,14.5-5,17-12H37.8z"/>
<g>
	<path class="st1" d="M23,11c-6.627,0-12,5.373-12,12s5.373,12,12,12s12-5.373,12-12S29.627,11,23,11z M25,30l-2.143-6h-4.286L16,30
		h-2l6-14h2l5,14H25z M31,30h-2V16h2V30z"/>
	<polygon class="st1" points="19.429,22 22.143,22 20.909,18.545 	"/>
</g>
</svg>
