<?xml version="1.0" encoding="UTF-8"?>
<svg width="830px" height="152px" viewBox="0 0 830 152" version="1.1" xmlns="http://www.w3.org/2000/svg" xmlns:xlink="http://www.w3.org/1999/xlink">
    <!-- Generator: Sketch 54.1 (76490) - https://sketchapp.com -->
    <title>测试协作</title>
    <desc>Created with Sketch.</desc>
    <defs>
        <rect id="path-1" x="0" y="0" width="132" height="50"></rect>
        <filter x="-1.5%" y="-2.0%" width="103.0%" height="108.0%" filterUnits="objectBoundingBox" id="filter-2">
            <feOffset dx="0" dy="1" in="SourceAlpha" result="shadowOffsetOuter1"></feOffset>
            <feGaussianBlur stdDeviation="0.5" in="shadowOffsetOuter1" result="shadowBlurOuter1"></feGaussianBlur>
            <feColorMatrix values="0 0 0 0 0   0 0 0 0 0   0 0 0 0 0  0 0 0 0.35 0" type="matrix" in="shadowBlurOuter1"></feColorMatrix>
        </filter>
        <rect id="path-3" x="0" y="0" width="132" height="50"></rect>
        <filter x="-1.5%" y="-2.0%" width="103.0%" height="108.0%" filterUnits="objectBoundingBox" id="filter-4">
            <feOffset dx="0" dy="1" in="SourceAlpha" result="shadowOffsetOuter1"></feOffset>
            <feGaussianBlur stdDeviation="0.5" in="shadowOffsetOuter1" result="shadowBlurOuter1"></feGaussianBlur>
            <feColorMatrix values="0 0 0 0 0   0 0 0 0 0   0 0 0 0 0  0 0 0 0.35 0" type="matrix" in="shadowBlurOuter1"></feColorMatrix>
        </filter>
        <rect id="path-5" x="0" y="0" width="90" height="50"></rect>
        <filter x="-2.2%" y="-2.0%" width="104.4%" height="108.0%" filterUnits="objectBoundingBox" id="filter-6">
            <feOffset dx="0" dy="1" in="SourceAlpha" result="shadowOffsetOuter1"></feOffset>
            <feGaussianBlur stdDeviation="0.5" in="shadowOffsetOuter1" result="shadowBlurOuter1"></feGaussianBlur>
            <feColorMatrix values="0 0 0 0 0   0 0 0 0 0   0 0 0 0 0  0 0 0 0.35 0" type="matrix" in="shadowBlurOuter1"></feColorMatrix>
        </filter>
        <rect id="path-7" x="0" y="0" width="90" height="50"></rect>
        <filter x="-2.2%" y="-2.0%" width="104.4%" height="108.0%" filterUnits="objectBoundingBox" id="filter-8">
            <feOffset dx="0" dy="1" in="SourceAlpha" result="shadowOffsetOuter1"></feOffset>
            <feGaussianBlur stdDeviation="0.5" in="shadowOffsetOuter1" result="shadowBlurOuter1"></feGaussianBlur>
            <feColorMatrix values="0 0 0 0 0   0 0 0 0 0   0 0 0 0 0  0 0 0 0.35 0" type="matrix" in="shadowBlurOuter1"></feColorMatrix>
        </filter>
        <rect id="path-9" x="0" y="0" width="90" height="50"></rect>
        <filter x="-2.2%" y="-2.0%" width="104.4%" height="108.0%" filterUnits="objectBoundingBox" id="filter-10">
            <feOffset dx="0" dy="1" in="SourceAlpha" result="shadowOffsetOuter1"></feOffset>
            <feGaussianBlur stdDeviation="0.5" in="shadowOffsetOuter1" result="shadowBlurOuter1"></feGaussianBlur>
            <feColorMatrix values="0 0 0 0 0   0 0 0 0 0   0 0 0 0 0  0 0 0 0.35 0" type="matrix" in="shadowBlurOuter1"></feColorMatrix>
        </filter>
        <rect id="path-11" x="0" y="0" width="90" height="50"></rect>
        <filter x="-2.2%" y="-2.0%" width="104.4%" height="108.0%" filterUnits="objectBoundingBox" id="filter-12">
            <feOffset dx="0" dy="1" in="SourceAlpha" result="shadowOffsetOuter1"></feOffset>
            <feGaussianBlur stdDeviation="0.5" in="shadowOffsetOuter1" result="shadowBlurOuter1"></feGaussianBlur>
            <feColorMatrix values="0 0 0 0 0   0 0 0 0 0   0 0 0 0 0  0 0 0 0.35 0" type="matrix" in="shadowBlurOuter1"></feColorMatrix>
        </filter>
    </defs>
    <g id="介绍页配图设计" stroke="none" stroke-width="1" fill="none" fill-rule="evenodd">
        <g id="应用场景复制" transform="translate(-1213.000000, -2775.000000)">
            <g id="编组-18" transform="translate(1213.000000, 2631.000000)">
                <g id="流程1-copy-2复制-12" transform="translate(0.000000, 144.000000)">
                    <g id="编组-15" transform="translate(126.000000, 0.000000)">
                        <g id="XMLID_25_" transform="translate(0.000000, 49.000000)">
                            <g id="分组-copy">
                                <g id="XMLID_134_">
                                    <use fill="black" fill-opacity="1" filter="url(#filter-2)" xlink:href="#path-1"></use>
                                    <use fill="#FFFFFF" fill-rule="evenodd" xlink:href="#path-1"></use>
                                </g>
                                <path d="M58.982,23.448 L58.982,25.898 L62.538,25.898 L62.538,23.448 L58.982,23.448 Z M58.926,26.822 C58.772,28.614 58.254,30.098 57.358,31.274 L56.588,30.588 C57.484,29.342 57.946,27.76 57.974,25.842 L57.974,19.122 L68.404,19.122 L68.404,29.608 C68.404,30.588 67.914,31.078 66.934,31.078 L65.324,31.078 L65.058,30.084 C65.618,30.112 66.136,30.14 66.612,30.14 C67.116,30.14 67.382,29.846 67.382,29.258 L67.382,26.822 L63.574,26.822 L63.574,30.924 L62.538,30.924 L62.538,26.822 L58.926,26.822 Z M67.382,25.898 L67.382,23.448 L63.574,23.448 L63.574,25.898 L67.382,25.898 Z M67.382,22.51 L67.382,20.102 L63.574,20.102 L63.574,22.51 L67.382,22.51 Z M62.538,20.102 L58.982,20.102 L58.982,22.51 L62.538,22.51 L62.538,20.102 Z M74.41,19.374 L79.016,19.374 L79.016,20.34 L76.468,20.34 C76.398,21.04 76.3,21.698 76.174,22.328 L78.75,22.328 L78.75,23.196 C78.246,27.074 76.832,29.79 74.536,31.358 L74.032,30.462 C75.152,29.692 76.034,28.614 76.678,27.242 C76.09,26.668 75.502,26.206 74.928,25.842 C74.648,26.332 74.354,26.78 74.032,27.186 L73.528,26.206 C74.62,24.778 75.278,22.818 75.502,20.34 L74.41,20.34 L74.41,19.374 Z M75.334,25.016 C75.95,25.38 76.524,25.814 77.07,26.29 C77.406,25.366 77.644,24.344 77.812,23.252 L75.95,23.252 C75.782,23.882 75.572,24.47 75.334,25.016 Z M81.564,31.302 L80.024,31.302 L79.8,30.336 C80.304,30.378 80.766,30.406 81.214,30.406 C81.62,30.406 81.83,30.196 81.83,29.776 L81.83,18.604 L82.838,18.604 L82.838,30.028 C82.838,30.868 82.404,31.302 81.564,31.302 Z M71.918,23.812 C71.568,24.344 71.204,24.848 70.812,25.324 L70.476,24.26 C71.708,22.58 72.604,20.662 73.164,18.492 L74.116,18.926 C73.808,20.032 73.402,21.068 72.926,22.048 L72.926,31.428 L71.918,31.428 L71.918,23.812 Z M79.618,19.892 L80.542,19.892 L80.542,28.572 L79.618,28.572 L79.618,19.892 Z M91.476,18.45 C91.728,18.856 91.966,19.304 92.19,19.808 L97.23,19.808 L97.23,20.788 L86.856,20.788 L86.856,23.98 C86.8,27.074 86.338,29.552 85.442,31.4 L84.616,30.658 C85.386,29.062 85.792,26.836 85.82,23.98 L85.82,19.808 L91.084,19.808 C90.86,19.374 90.608,18.982 90.356,18.646 L91.476,18.45 Z M90.566,21.18 L91.532,21.404 C91.406,21.796 91.28,22.16 91.154,22.524 L96.614,22.524 L96.614,23.406 L90.804,23.406 C90.412,24.302 89.992,25.1 89.544,25.8 L92.162,25.8 L92.162,24.106 L93.17,24.106 L93.17,25.8 L96.292,25.8 L96.292,26.71 L93.17,26.71 L93.17,28.278 L97.356,28.278 L97.356,29.202 L93.17,29.202 L93.17,31.414 L92.162,31.414 L92.162,29.202 L87.108,29.202 L87.108,28.278 L92.162,28.278 L92.162,26.71 L88.494,26.71 L88.284,25.842 C88.816,25.184 89.306,24.372 89.74,23.406 L87.626,23.406 L87.626,22.524 L90.104,22.524 C90.258,22.09 90.412,21.642 90.566,21.18 Z" id="用例库" fill="#444444" fill-rule="nonzero"></path>
                                <g id="分组-39" transform="translate(21.000000, 15.000000)" fill-rule="nonzero">
                                    <rect id="矩形" stroke="#00A4FF" stroke-width="2" x="1" y="1" width="24" height="18"></rect>
                                    <rect id="矩形" fill="#00A4FF" x="4" y="22" width="18" height="2"></rect>
                                    <path d="M4.99842981,6.50989196 L14.8560043,6.49010804" id="路径-6" stroke="#00A4FF" stroke-width="2"></path>
                                    <path d="M4.99842981,11.509892 L19.5795213,11.509892" id="路径-6复制" stroke="#00A4FF" stroke-width="2"></path>
                                </g>
                            </g>
                        </g>
                        <g id="XMLID_25_复制-7" transform="translate(168.000000, 49.000000)">
                            <g id="分组-copy">
                                <g id="XMLID_134_">
                                    <use fill="black" fill-opacity="1" filter="url(#filter-4)" xlink:href="#path-3"></use>
                                    <use fill="#FFFFFF" fill-rule="evenodd" xlink:href="#path-3"></use>
                                </g>
                                <path d="M57.512,18.856 C58.296,19.472 58.954,20.102 59.486,20.718 L58.828,21.39 C58.352,20.802 57.68,20.172 56.826,19.514 L57.512,18.856 Z M57.288,22.3 C58.044,22.972 58.688,23.63 59.206,24.302 L58.548,24.96 C58.072,24.33 57.428,23.658 56.602,22.944 L57.288,22.3 Z M58.52,26.066 L59.374,26.402 C58.842,28.11 58.24,29.72 57.596,31.232 L56.672,30.84 C57.372,29.286 57.988,27.69 58.52,26.066 Z M64.736,19.248 L64.736,27.788 L63.84,27.788 L63.84,20.116 L60.942,20.116 L60.942,27.872 L60.046,27.872 L60.046,19.248 L64.736,19.248 Z M63.238,28.446 C64.092,29.202 64.806,29.972 65.38,30.728 L64.708,31.4 C64.204,30.658 63.518,29.874 62.622,29.034 L63.238,28.446 Z M61.978,21.082 L62.818,21.082 L62.818,25.52 C62.79,27.116 62.538,28.39 62.062,29.342 C61.6,30.21 60.844,30.91 59.808,31.414 L59.276,30.574 C60.284,30.098 60.984,29.468 61.376,28.684 C61.74,27.872 61.95,26.822 61.978,25.52 L61.978,21.082 Z M67.76,31.288 L66.22,31.288 L66.01,30.35 C66.5,30.392 66.976,30.42 67.424,30.42 C67.746,30.42 67.914,30.224 67.914,29.86 L67.914,18.646 L68.866,18.646 L68.866,30.098 C68.866,30.882 68.488,31.288 67.76,31.288 Z M65.842,19.794 L66.724,19.794 L66.724,28.53 L65.842,28.53 L65.842,19.794 Z M76.58,25.198 L75.264,25.198 L75.264,24.26 L78.89,24.26 L78.89,25.198 L77.574,25.198 L77.574,28.992 C78.19,28.852 78.806,28.698 79.394,28.53 L79.394,29.468 C78.176,29.818 76.86,30.112 75.46,30.35 L75.208,29.398 C75.67,29.342 76.132,29.272 76.58,29.188 L76.58,25.198 Z M81.886,31.19 C81.41,31.19 80.976,30.826 80.612,30.098 C80.192,29.258 79.884,28.124 79.688,26.668 C79.534,25.436 79.436,23.896 79.38,22.062 L74.942,22.062 L74.942,21.082 L79.352,21.082 C79.324,20.27 79.324,19.416 79.324,18.52 L80.304,18.52 C80.304,19.43 80.304,20.284 80.332,21.082 L83.118,21.082 L83.118,22.062 L80.346,22.062 C80.416,24.47 80.57,26.318 80.794,27.634 C81.102,29.23 81.466,30.042 81.886,30.098 C82.166,30.042 82.46,29.188 82.74,27.522 L83.538,28.166 C83.076,30.182 82.53,31.19 81.886,31.19 Z M81.508,18.506 C82.11,19.178 82.572,19.766 82.908,20.27 L82.208,20.76 C81.858,20.214 81.382,19.612 80.794,18.94 L81.508,18.506 Z M72.268,18.702 C73.164,19.416 73.906,20.13 74.522,20.858 L73.836,21.558 C73.276,20.872 72.52,20.144 71.568,19.388 L72.268,18.702 Z M70.588,22.846 L73.528,22.846 L73.528,28.95 C73.948,28.544 74.368,28.096 74.816,27.606 L75.082,28.67 C74.312,29.51 73.5,30.252 72.632,30.896 L72.24,30 C72.436,29.832 72.548,29.636 72.548,29.426 L72.548,23.812 L70.588,23.812 L70.588,22.846 Z M89.012,22.762 L92.806,22.762 L92.806,18.548 L93.842,18.548 L93.842,22.762 L97.44,22.762 L97.44,23.77 L93.842,23.77 L93.842,31.428 L92.806,31.428 L92.806,23.77 L89.012,23.77 L89.012,22.762 Z M86.268,18.702 C87.22,19.416 88.018,20.13 88.662,20.858 L87.976,21.558 C87.388,20.872 86.576,20.144 85.568,19.388 L86.268,18.702 Z M84.63,22.846 L87.654,22.846 L87.654,29.076 C88.158,28.656 88.718,28.18 89.306,27.62 L89.558,28.656 C88.69,29.496 87.752,30.238 86.758,30.896 L86.366,29.986 C86.576,29.818 86.688,29.622 86.688,29.398 L86.688,23.812 L84.63,23.812 L84.63,22.846 Z M107.002,19.78 L107.982,19.78 L107.982,28.516 L107.002,28.516 L107.002,19.78 Z M109.494,31.274 L107.478,31.274 L107.254,30.308 C107.926,30.35 108.556,30.378 109.144,30.378 C109.578,30.378 109.802,30.154 109.802,29.72 L109.802,18.604 L110.81,18.604 L110.81,29.972 C110.81,30.84 110.362,31.274 109.494,31.274 Z M105.602,21.684 L105.756,22.664 L101.696,23.294 C101.78,24.05 101.878,24.722 102.004,25.338 C102.13,25.94 102.27,26.472 102.424,26.948 C103.25,26.01 103.95,24.904 104.524,23.63 L105.406,24.092 C104.706,25.66 103.838,26.99 102.816,28.054 C102.956,28.404 103.11,28.712 103.264,28.992 C103.782,29.818 104.258,30.238 104.678,30.252 C104.93,30.21 105.182,29.482 105.462,28.054 L106.316,28.6 C106.12,29.328 105.91,29.93 105.686,30.42 C105.406,31.008 105.084,31.316 104.734,31.316 C104.09,31.316 103.446,30.868 102.802,29.972 C102.55,29.608 102.312,29.202 102.102,28.74 C101.206,29.496 100.226,30.112 99.148,30.56 L98.546,29.65 C99.722,29.188 100.772,28.544 101.682,27.704 C101.486,27.186 101.318,26.626 101.164,26.01 C100.968,25.282 100.828,24.428 100.716,23.448 L98.896,23.728 L98.742,22.748 L100.618,22.454 C100.506,21.306 100.45,20.018 100.45,18.59 L101.486,18.59 C101.486,19.962 101.528,21.194 101.612,22.3 L105.602,21.684 Z M103.334,18.534 C103.866,19.164 104.356,19.85 104.832,20.592 L103.978,21.012 C103.516,20.242 103.026,19.556 102.508,18.94 L103.334,18.534 Z" id="测试计划" fill="#444444" fill-rule="nonzero"></path>
                                <g id="Icons-/-flask" transform="translate(19.000000, 12.000000)">
                                    <g id="flask">
                                        <rect id="Rectangle" fill="#000000" opacity="0" x="0" y="0" width="28" height="28"></rect>
                                        <path d="M14,12.90625 C14,13.5103114 14.4896886,14 15.09375,14 C15.6978114,14 16.1875,13.5103114 16.1875,12.90625 C16.1875,12.3021886 15.6978114,11.8125 15.09375,11.8125 C14.4896886,11.8125 14,12.3021886 14,12.90625 Z M24.0351562,22.5558594 L19.0394531,9.625 L19.0394531,4.8671875 L21,4.8671875 L21,3.0078125 L7,3.0078125 L7,4.8671875 L8.96054687,4.8671875 L8.96054687,9.625 L3.96484375,22.5558594 C3.88828125,22.7582031 3.84726562,22.9714844 3.84726562,23.1875 C3.84726562,24.1527344 4.63203125,24.9375 5.59726562,24.9375 L22.4027344,24.9375 C22.61875,24.9375 22.8320312,24.8964844 23.034375,24.8199219 C23.9367187,24.4726562 24.3851562,23.4582031 24.0351562,22.5558594 Z M10.8199219,9.97226563 L10.8199219,4.921875 L17.1800781,4.921875 L17.1800781,9.97226563 L19.665625,16.40625 C19.0996094,16.2613281 18.5144531,16.1875 17.9183594,16.1875 C16.2449219,16.1875 14.6589844,16.7753906 13.3984375,17.828125 C12.4714844,18.5992188 11.3121094,19.0285156 10.0816406,19.0285156 C9.1875,19.0285156 8.32890625,18.8015625 7.57148438,18.3804687 L10.8199219,9.97226563 Z M5.75585938,23.078125 L6.89609375,20.1304687 C7.87226563,20.6253906 8.9578125,20.890625 10.084375,20.890625 C11.7578125,20.890625 13.34375,20.3027344 14.6042969,19.25 C15.53125,18.4789062 16.690625,18.0496094 17.9210937,18.0496094 C18.878125,18.0496094 19.7914062,18.309375 20.5898438,18.790625 L22.2441406,23.078125 L5.75585938,23.078125 Z" id="Shape" fill="#00A4FF" fill-rule="nonzero"></path>
                                    </g>
                                </g>
                            </g>
                        </g>
                        <g id="XMLID_25_复制-13" transform="translate(363.000000, 0.000000)">
                            <g id="分组-copy">
                                <g id="XMLID_134_">
                                    <use fill="black" fill-opacity="1" filter="url(#filter-6)" xlink:href="#path-5"></use>
                                    <use fill="#FFFFFF" fill-rule="evenodd" xlink:href="#path-5"></use>
                                </g>
                                <path d="M13.512,18.856 C14.296,19.472 14.954,20.102 15.486,20.718 L14.828,21.39 C14.352,20.802 13.68,20.172 12.826,19.514 L13.512,18.856 Z M13.288,22.3 C14.044,22.972 14.688,23.63 15.206,24.302 L14.548,24.96 C14.072,24.33 13.428,23.658 12.602,22.944 L13.288,22.3 Z M14.52,26.066 L15.374,26.402 C14.842,28.11 14.24,29.72 13.596,31.232 L12.672,30.84 C13.372,29.286 13.988,27.69 14.52,26.066 Z M20.736,19.248 L20.736,27.788 L19.84,27.788 L19.84,20.116 L16.942,20.116 L16.942,27.872 L16.046,27.872 L16.046,19.248 L20.736,19.248 Z M19.238,28.446 C20.092,29.202 20.806,29.972 21.38,30.728 L20.708,31.4 C20.204,30.658 19.518,29.874 18.622,29.034 L19.238,28.446 Z M17.978,21.082 L18.818,21.082 L18.818,25.52 C18.79,27.116 18.538,28.39 18.062,29.342 C17.6,30.21 16.844,30.91 15.808,31.414 L15.276,30.574 C16.284,30.098 16.984,29.468 17.376,28.684 C17.74,27.872 17.95,26.822 17.978,25.52 L17.978,21.082 Z M23.76,31.288 L22.22,31.288 L22.01,30.35 C22.5,30.392 22.976,30.42 23.424,30.42 C23.746,30.42 23.914,30.224 23.914,29.86 L23.914,18.646 L24.866,18.646 L24.866,30.098 C24.866,30.882 24.488,31.288 23.76,31.288 Z M21.842,19.794 L22.724,19.794 L22.724,28.53 L21.842,28.53 L21.842,19.794 Z M32.58,25.198 L31.264,25.198 L31.264,24.26 L34.89,24.26 L34.89,25.198 L33.574,25.198 L33.574,28.992 C34.19,28.852 34.806,28.698 35.394,28.53 L35.394,29.468 C34.176,29.818 32.86,30.112 31.46,30.35 L31.208,29.398 C31.67,29.342 32.132,29.272 32.58,29.188 L32.58,25.198 Z M37.886,31.19 C37.41,31.19 36.976,30.826 36.612,30.098 C36.192,29.258 35.884,28.124 35.688,26.668 C35.534,25.436 35.436,23.896 35.38,22.062 L30.942,22.062 L30.942,21.082 L35.352,21.082 C35.324,20.27 35.324,19.416 35.324,18.52 L36.304,18.52 C36.304,19.43 36.304,20.284 36.332,21.082 L39.118,21.082 L39.118,22.062 L36.346,22.062 C36.416,24.47 36.57,26.318 36.794,27.634 C37.102,29.23 37.466,30.042 37.886,30.098 C38.166,30.042 38.46,29.188 38.74,27.522 L39.538,28.166 C39.076,30.182 38.53,31.19 37.886,31.19 Z M37.508,18.506 C38.11,19.178 38.572,19.766 38.908,20.27 L38.208,20.76 C37.858,20.214 37.382,19.612 36.794,18.94 L37.508,18.506 Z M28.268,18.702 C29.164,19.416 29.906,20.13 30.522,20.858 L29.836,21.558 C29.276,20.872 28.52,20.144 27.568,19.388 L28.268,18.702 Z M26.588,22.846 L29.528,22.846 L29.528,28.95 C29.948,28.544 30.368,28.096 30.816,27.606 L31.082,28.67 C30.312,29.51 29.5,30.252 28.632,30.896 L28.24,30 C28.436,29.832 28.548,29.636 28.548,29.426 L28.548,23.812 L26.588,23.812 L26.588,22.846 Z M52.292,19.024 L52.782,19.878 C51.774,20.214 50.598,20.466 49.254,20.62 L49.254,24.554 L53.356,24.554 L53.356,25.534 L49.254,25.534 L49.254,29.93 L52.656,29.93 L52.656,30.924 L44.872,30.924 L44.872,29.93 L48.246,29.93 L48.246,25.534 L44.172,25.534 L44.172,24.554 L48.246,24.554 L48.246,20.718 C47.294,20.788 46.286,20.83 45.222,20.83 L44.9,19.878 C47.868,19.878 50.332,19.584 52.292,19.024 Z M43.78,18.59 L44.718,19.024 C44.354,20.102 43.878,21.124 43.318,22.076 L43.318,31.428 L42.31,31.428 L42.31,23.574 C41.862,24.162 41.358,24.736 40.812,25.282 L40.49,24.204 C42.002,22.58 43.094,20.704 43.78,18.59 Z M58.816,18.52 L59.838,18.66 C59.684,19.038 59.502,19.388 59.306,19.724 L65.41,19.724 L65.41,20.536 C64.514,21.572 63.422,22.454 62.134,23.182 C63.716,23.854 65.48,24.288 67.426,24.484 L66.964,25.422 C64.752,25.17 62.778,24.61 61.042,23.742 C59.334,24.526 57.332,25.1 55.064,25.45 L54.602,24.498 C56.632,24.218 58.41,23.77 59.95,23.154 C59.166,22.692 58.438,22.16 57.766,21.572 C57.234,22.048 56.66,22.482 56.016,22.874 L55.4,22.062 C57.08,21.096 58.228,19.92 58.816,18.52 Z M61.028,22.664 C62.162,22.104 63.142,21.432 63.968,20.676 L58.62,20.676 L58.438,20.9 C59.222,21.586 60.09,22.174 61.028,22.664 Z M60.174,24.75 L61.168,24.75 C61.168,25.31 61.112,25.842 61.028,26.346 L65.956,26.346 C65.928,28.712 65.718,30.126 65.312,30.588 C64.906,31.05 64.206,31.288 63.212,31.288 C62.764,31.288 62.218,31.26 61.574,31.232 L61.322,30.322 L62.974,30.392 C63.814,30.378 64.332,30.196 64.556,29.86 C64.766,29.524 64.892,28.656 64.934,27.256 L60.79,27.256 C60.678,27.62 60.524,27.97 60.342,28.306 C59.628,29.566 57.99,30.616 55.414,31.428 L54.742,30.602 C57.038,29.93 58.564,29.076 59.292,28.054 C59.46,27.802 59.614,27.536 59.726,27.256 L55.554,27.256 L55.554,26.346 L60.006,26.346 C60.118,25.842 60.174,25.31 60.174,24.75 Z M75.882,20.004 L76.778,20.004 L76.778,30 L75.63,30 L75.63,21.404 C75,22.048 74.216,22.496 73.278,22.776 L73.278,21.628 C73.726,21.502 74.202,21.306 74.678,21.026 C75.154,20.718 75.546,20.382 75.882,20.004 Z" id="测试任务1" fill="#444444" fill-rule="nonzero"></path>
                            </g>
                            <g id="分组-copy复制-5" transform="translate(0.000000, 100.000000)">
                                <g id="XMLID_134_">
                                    <use fill="black" fill-opacity="1" filter="url(#filter-8)" xlink:href="#path-7"></use>
                                    <use fill="#FFFFFF" fill-rule="evenodd" xlink:href="#path-7"></use>
                                </g>
                                <path d="M11.512,18.856 C12.296,19.472 12.954,20.102 13.486,20.718 L12.828,21.39 C12.352,20.802 11.68,20.172 10.826,19.514 L11.512,18.856 Z M11.288,22.3 C12.044,22.972 12.688,23.63 13.206,24.302 L12.548,24.96 C12.072,24.33 11.428,23.658 10.602,22.944 L11.288,22.3 Z M12.52,26.066 L13.374,26.402 C12.842,28.11 12.24,29.72 11.596,31.232 L10.672,30.84 C11.372,29.286 11.988,27.69 12.52,26.066 Z M18.736,19.248 L18.736,27.788 L17.84,27.788 L17.84,20.116 L14.942,20.116 L14.942,27.872 L14.046,27.872 L14.046,19.248 L18.736,19.248 Z M17.238,28.446 C18.092,29.202 18.806,29.972 19.38,30.728 L18.708,31.4 C18.204,30.658 17.518,29.874 16.622,29.034 L17.238,28.446 Z M15.978,21.082 L16.818,21.082 L16.818,25.52 C16.79,27.116 16.538,28.39 16.062,29.342 C15.6,30.21 14.844,30.91 13.808,31.414 L13.276,30.574 C14.284,30.098 14.984,29.468 15.376,28.684 C15.74,27.872 15.95,26.822 15.978,25.52 L15.978,21.082 Z M21.76,31.288 L20.22,31.288 L20.01,30.35 C20.5,30.392 20.976,30.42 21.424,30.42 C21.746,30.42 21.914,30.224 21.914,29.86 L21.914,18.646 L22.866,18.646 L22.866,30.098 C22.866,30.882 22.488,31.288 21.76,31.288 Z M19.842,19.794 L20.724,19.794 L20.724,28.53 L19.842,28.53 L19.842,19.794 Z M30.58,25.198 L29.264,25.198 L29.264,24.26 L32.89,24.26 L32.89,25.198 L31.574,25.198 L31.574,28.992 C32.19,28.852 32.806,28.698 33.394,28.53 L33.394,29.468 C32.176,29.818 30.86,30.112 29.46,30.35 L29.208,29.398 C29.67,29.342 30.132,29.272 30.58,29.188 L30.58,25.198 Z M35.886,31.19 C35.41,31.19 34.976,30.826 34.612,30.098 C34.192,29.258 33.884,28.124 33.688,26.668 C33.534,25.436 33.436,23.896 33.38,22.062 L28.942,22.062 L28.942,21.082 L33.352,21.082 C33.324,20.27 33.324,19.416 33.324,18.52 L34.304,18.52 C34.304,19.43 34.304,20.284 34.332,21.082 L37.118,21.082 L37.118,22.062 L34.346,22.062 C34.416,24.47 34.57,26.318 34.794,27.634 C35.102,29.23 35.466,30.042 35.886,30.098 C36.166,30.042 36.46,29.188 36.74,27.522 L37.538,28.166 C37.076,30.182 36.53,31.19 35.886,31.19 Z M35.508,18.506 C36.11,19.178 36.572,19.766 36.908,20.27 L36.208,20.76 C35.858,20.214 35.382,19.612 34.794,18.94 L35.508,18.506 Z M26.268,18.702 C27.164,19.416 27.906,20.13 28.522,20.858 L27.836,21.558 C27.276,20.872 26.52,20.144 25.568,19.388 L26.268,18.702 Z M24.588,22.846 L27.528,22.846 L27.528,28.95 C27.948,28.544 28.368,28.096 28.816,27.606 L29.082,28.67 C28.312,29.51 27.5,30.252 26.632,30.896 L26.24,30 C26.436,29.832 26.548,29.636 26.548,29.426 L26.548,23.812 L24.588,23.812 L24.588,22.846 Z M50.292,19.024 L50.782,19.878 C49.774,20.214 48.598,20.466 47.254,20.62 L47.254,24.554 L51.356,24.554 L51.356,25.534 L47.254,25.534 L47.254,29.93 L50.656,29.93 L50.656,30.924 L42.872,30.924 L42.872,29.93 L46.246,29.93 L46.246,25.534 L42.172,25.534 L42.172,24.554 L46.246,24.554 L46.246,20.718 C45.294,20.788 44.286,20.83 43.222,20.83 L42.9,19.878 C45.868,19.878 48.332,19.584 50.292,19.024 Z M41.78,18.59 L42.718,19.024 C42.354,20.102 41.878,21.124 41.318,22.076 L41.318,31.428 L40.31,31.428 L40.31,23.574 C39.862,24.162 39.358,24.736 38.812,25.282 L38.49,24.204 C40.002,22.58 41.094,20.704 41.78,18.59 Z M56.816,18.52 L57.838,18.66 C57.684,19.038 57.502,19.388 57.306,19.724 L63.41,19.724 L63.41,20.536 C62.514,21.572 61.422,22.454 60.134,23.182 C61.716,23.854 63.48,24.288 65.426,24.484 L64.964,25.422 C62.752,25.17 60.778,24.61 59.042,23.742 C57.334,24.526 55.332,25.1 53.064,25.45 L52.602,24.498 C54.632,24.218 56.41,23.77 57.95,23.154 C57.166,22.692 56.438,22.16 55.766,21.572 C55.234,22.048 54.66,22.482 54.016,22.874 L53.4,22.062 C55.08,21.096 56.228,19.92 56.816,18.52 Z M59.028,22.664 C60.162,22.104 61.142,21.432 61.968,20.676 L56.62,20.676 L56.438,20.9 C57.222,21.586 58.09,22.174 59.028,22.664 Z M58.174,24.75 L59.168,24.75 C59.168,25.31 59.112,25.842 59.028,26.346 L63.956,26.346 C63.928,28.712 63.718,30.126 63.312,30.588 C62.906,31.05 62.206,31.288 61.212,31.288 C60.764,31.288 60.218,31.26 59.574,31.232 L59.322,30.322 L60.974,30.392 C61.814,30.378 62.332,30.196 62.556,29.86 C62.766,29.524 62.892,28.656 62.934,27.256 L58.79,27.256 C58.678,27.62 58.524,27.97 58.342,28.306 C57.628,29.566 55.99,30.616 53.414,31.428 L52.742,30.602 C55.038,29.93 56.564,29.076 57.292,28.054 C57.46,27.802 57.614,27.536 57.726,27.256 L53.554,27.256 L53.554,26.346 L58.006,26.346 C58.118,25.842 58.174,25.31 58.174,24.75 Z M75.002,19.808 C75.926,19.808 76.682,20.074 77.284,20.606 C77.872,21.138 78.18,21.852 78.18,22.72 C78.18,23.588 77.844,24.372 77.2,25.072 C76.85,25.436 76.164,25.982 75.128,26.682 C73.854,27.536 73.126,28.306 72.944,28.978 L78.194,28.978 L78.194,30 L71.53,30 C71.53,29.09 71.852,28.264 72.524,27.522 C72.916,27.074 73.63,26.472 74.694,25.744 C75.478,25.184 75.996,24.778 76.262,24.498 C76.766,23.952 77.032,23.35 77.032,22.706 C77.032,22.09 76.85,21.628 76.486,21.292 C76.122,20.956 75.604,20.788 74.96,20.788 C74.274,20.788 73.742,21.012 73.378,21.488 C72.986,21.936 72.776,22.608 72.762,23.49 L71.614,23.49 C71.614,22.37 71.936,21.474 72.552,20.816 C73.168,20.144 73.994,19.808 75.002,19.808 Z" id="测试任务2" fill="#444444" fill-rule="nonzero"></path>
                            </g>
                        </g>
                        <g id="XMLID_25_复制-17" transform="translate(489.000000, 0.000000)">
                            <g id="分组-copy">
                                <g id="XMLID_134_">
                                    <use fill="black" fill-opacity="1" filter="url(#filter-10)" xlink:href="#path-9"></use>
                                    <use fill="#FFFFFF" fill-rule="evenodd" xlink:href="#path-9"></use>
                                </g>
                                <path d="M21.34,18.618 C21.9,19.346 22.432,20.13 22.936,20.998 L22.026,21.46 C21.522,20.564 20.99,19.766 20.416,19.066 L21.34,18.618 Z M26.604,18.492 L27.57,18.758 C27.234,19.766 26.814,20.676 26.31,21.474 L29.194,21.474 L29.194,22.454 L24.518,22.454 L24.518,23.112 C24.49,23.812 24.434,24.47 24.322,25.058 L30.006,25.058 L30.006,26.038 L24.91,26.038 C25.596,27.928 27.402,29.398 30.342,30.448 L29.754,31.386 C26.674,30.14 24.77,28.446 24.014,26.318 C23.748,27.116 23.398,27.816 22.95,28.418 C21.998,29.65 20.444,30.616 18.288,31.302 L17.742,30.42 C19.884,29.734 21.382,28.824 22.222,27.704 C22.558,27.2 22.824,26.654 23.02,26.038 L17.994,26.038 L17.994,25.058 L23.272,25.058 C23.398,24.442 23.468,23.798 23.482,23.112 L23.482,22.454 L18.792,22.454 L18.792,21.474 L25.19,21.474 C25.722,20.662 26.184,19.668 26.604,18.492 Z M37.44,21.614 L40.926,21.614 C41.458,20.676 41.92,19.668 42.298,18.59 L43.222,18.94 C42.802,20.004 42.382,20.886 41.934,21.614 L44.02,21.614 L44.02,22.566 L41.15,22.566 L41.15,22.986 C41.15,23.686 41.108,24.344 41.038,24.974 L44.258,24.974 L44.258,25.94 L41.36,25.94 C41.696,27.48 42.732,29.048 44.468,30.644 L43.768,31.386 C42.158,29.79 41.15,28.208 40.744,26.654 C40.198,28.81 39.12,30.406 37.524,31.442 L36.922,30.644 C38.49,29.692 39.498,28.124 39.932,25.94 L37.23,25.94 L37.23,24.974 L40.072,24.974 C40.128,24.414 40.17,23.826 40.184,23.21 L40.184,22.566 L37.44,22.566 L37.44,21.614 Z M38.826,18.674 C39.386,19.5 39.82,20.228 40.128,20.858 L39.372,21.376 C39.05,20.704 38.616,19.976 38.056,19.164 L38.826,18.674 Z M31.644,19.136 L37.216,19.136 L37.216,20.074 L36.306,20.074 L36.306,27.76 C36.628,27.648 36.936,27.55 37.244,27.452 L37.244,28.432 C36.936,28.53 36.614,28.628 36.306,28.712 L36.306,31.47 L35.34,31.47 L35.34,28.978 C34.22,29.258 33.072,29.524 31.868,29.748 L31.616,28.796 L32.498,28.656 L32.498,20.074 L31.644,20.074 L31.644,19.136 Z M33.464,28.474 C34.108,28.334 34.724,28.194 35.34,28.04 L35.34,25.968 L33.464,25.968 L33.464,28.474 Z M33.464,25.044 L35.34,25.044 L35.34,23.042 L33.464,23.042 L33.464,25.044 Z M33.464,22.132 L35.34,22.132 L35.34,20.074 L33.464,20.074 L33.464,22.132 Z M52.252,20.704 L54.086,20.704 L54.086,18.576 L55.038,18.576 L55.038,20.704 L57.488,20.704 L57.488,24.792 L58.37,24.792 L58.37,25.73 L55.374,25.73 C56.018,27.76 57.054,29.384 58.482,30.616 L57.796,31.414 C56.396,30.098 55.374,28.432 54.716,26.43 C54.296,28.684 53.442,30.35 52.154,31.428 L51.538,30.602 C52.77,29.608 53.554,27.984 53.89,25.73 L51.874,25.73 L51.874,24.792 L54.002,24.792 C54.058,24.204 54.086,23.588 54.086,22.972 L54.086,21.642 L52.252,21.642 L52.252,20.704 Z M55.038,21.642 L55.038,22.748 C55.038,23.462 54.996,24.148 54.94,24.792 L56.522,24.792 L56.522,21.642 L55.038,21.642 Z M47.282,21.068 C47.058,21.698 46.792,22.286 46.512,22.818 L45.658,22.286 C46.274,21.152 46.708,19.906 46.988,18.534 L47.954,18.744 C47.842,19.234 47.716,19.71 47.59,20.158 L51.286,20.158 L51.286,21.068 L49.214,21.068 L49.214,23.504 L51.636,23.504 L51.636,24.442 L49.214,24.442 L49.214,29.258 L50.376,29.104 L50.376,25.59 L51.272,25.59 L51.272,30.7 L50.376,30.7 L50.376,30 L46.19,30.518 L46.19,25.59 L47.086,25.59 L47.086,29.538 L48.276,29.384 L48.276,24.442 L45.784,24.442 L45.784,23.504 L48.276,23.504 L48.276,21.068 L47.282,21.068 Z M67.022,18.59 L68.016,18.772 C67.904,19.192 67.778,19.584 67.638,19.948 L71.614,19.948 L71.614,20.732 C71.04,21.88 70.396,22.86 69.696,23.644 L68.94,23.042 C69.5,22.426 70.018,21.712 70.48,20.872 L67.218,20.872 C66.63,22.006 65.874,22.944 64.922,23.672 L64.292,22.902 C65.636,21.838 66.546,20.41 67.022,18.59 Z M67.778,23.21 L68.366,24.008 C67.624,24.428 66.798,24.792 65.902,25.1 L65.902,26.906 L68.002,26.906 L68.002,27.83 L65.902,27.83 L65.902,29.664 L70.886,29.664 L70.886,27.83 L68.912,27.83 L68.912,26.906 L70.886,26.906 L70.886,25.086 L68.94,25.086 L68.94,24.12 L71.866,24.12 L71.866,31.176 L70.886,31.176 L70.886,30.602 L65.902,30.602 L65.902,31.176 L64.936,31.176 L64.936,24.428 C65.958,24.148 66.91,23.742 67.778,23.21 Z M60.19,19.15 L64.32,19.15 L64.32,19.934 C63.9,21.194 63.424,22.51 62.864,23.882 C63.732,25.114 64.194,26.22 64.264,27.228 C64.25,27.816 64.11,28.236 63.844,28.502 C63.466,28.824 62.808,28.992 61.856,29.006 L61.534,27.998 C61.744,28.026 61.926,28.054 62.066,28.054 C62.556,28.026 62.892,27.956 63.06,27.844 C63.228,27.718 63.312,27.508 63.312,27.228 C63.312,26.276 62.836,25.198 61.898,24.022 C62.514,22.566 63.004,21.25 63.354,20.074 L61.17,20.074 L61.17,31.414 L60.19,31.414 L60.19,19.15 Z" id="关联缺陷" fill="#444444" fill-rule="nonzero"></path>
                            </g>
                            <g id="分组-copy复制-5" transform="translate(0.000000, 100.000000)">
                                <g id="XMLID_134_">
                                    <use fill="black" fill-opacity="1" filter="url(#filter-12)" xlink:href="#path-11"></use>
                                    <use fill="#FFFFFF" fill-rule="evenodd" xlink:href="#path-11"></use>
                                </g>
                                <path d="M18.512,18.856 C19.296,19.472 19.954,20.102 20.486,20.718 L19.828,21.39 C19.352,20.802 18.68,20.172 17.826,19.514 L18.512,18.856 Z M18.288,22.3 C19.044,22.972 19.688,23.63 20.206,24.302 L19.548,24.96 C19.072,24.33 18.428,23.658 17.602,22.944 L18.288,22.3 Z M19.52,26.066 L20.374,26.402 C19.842,28.11 19.24,29.72 18.596,31.232 L17.672,30.84 C18.372,29.286 18.988,27.69 19.52,26.066 Z M25.736,19.248 L25.736,27.788 L24.84,27.788 L24.84,20.116 L21.942,20.116 L21.942,27.872 L21.046,27.872 L21.046,19.248 L25.736,19.248 Z M24.238,28.446 C25.092,29.202 25.806,29.972 26.38,30.728 L25.708,31.4 C25.204,30.658 24.518,29.874 23.622,29.034 L24.238,28.446 Z M22.978,21.082 L23.818,21.082 L23.818,25.52 C23.79,27.116 23.538,28.39 23.062,29.342 C22.6,30.21 21.844,30.91 20.808,31.414 L20.276,30.574 C21.284,30.098 21.984,29.468 22.376,28.684 C22.74,27.872 22.95,26.822 22.978,25.52 L22.978,21.082 Z M28.76,31.288 L27.22,31.288 L27.01,30.35 C27.5,30.392 27.976,30.42 28.424,30.42 C28.746,30.42 28.914,30.224 28.914,29.86 L28.914,18.646 L29.866,18.646 L29.866,30.098 C29.866,30.882 29.488,31.288 28.76,31.288 Z M26.842,19.794 L27.724,19.794 L27.724,28.53 L26.842,28.53 L26.842,19.794 Z M37.58,25.198 L36.264,25.198 L36.264,24.26 L39.89,24.26 L39.89,25.198 L38.574,25.198 L38.574,28.992 C39.19,28.852 39.806,28.698 40.394,28.53 L40.394,29.468 C39.176,29.818 37.86,30.112 36.46,30.35 L36.208,29.398 C36.67,29.342 37.132,29.272 37.58,29.188 L37.58,25.198 Z M42.886,31.19 C42.41,31.19 41.976,30.826 41.612,30.098 C41.192,29.258 40.884,28.124 40.688,26.668 C40.534,25.436 40.436,23.896 40.38,22.062 L35.942,22.062 L35.942,21.082 L40.352,21.082 C40.324,20.27 40.324,19.416 40.324,18.52 L41.304,18.52 C41.304,19.43 41.304,20.284 41.332,21.082 L44.118,21.082 L44.118,22.062 L41.346,22.062 C41.416,24.47 41.57,26.318 41.794,27.634 C42.102,29.23 42.466,30.042 42.886,30.098 C43.166,30.042 43.46,29.188 43.74,27.522 L44.538,28.166 C44.076,30.182 43.53,31.19 42.886,31.19 Z M42.508,18.506 C43.11,19.178 43.572,19.766 43.908,20.27 L43.208,20.76 C42.858,20.214 42.382,19.612 41.794,18.94 L42.508,18.506 Z M33.268,18.702 C34.164,19.416 34.906,20.13 35.522,20.858 L34.836,21.558 C34.276,20.872 33.52,20.144 32.568,19.388 L33.268,18.702 Z M31.588,22.846 L34.528,22.846 L34.528,28.95 C34.948,28.544 35.368,28.096 35.816,27.606 L36.082,28.67 C35.312,29.51 34.5,30.252 33.632,30.896 L33.24,30 C33.436,29.832 33.548,29.636 33.548,29.426 L33.548,23.812 L31.588,23.812 L31.588,22.846 Z M46.764,18.786 C47.73,19.514 48.542,20.242 49.2,20.97 L48.486,21.67 C47.898,20.97 47.1,20.228 46.078,19.444 L46.764,18.786 Z M54.954,31.148 C54.184,31.148 53.344,31.134 52.448,31.12 C51.538,31.106 50.796,31.022 50.236,30.868 C49.676,30.7 49.172,30.35 48.738,29.846 C48.542,29.608 48.36,29.496 48.192,29.496 C47.856,29.496 47.296,30.14 46.526,31.428 L45.77,30.742 C46.512,29.566 47.17,28.852 47.744,28.6 L47.744,24.344 L45.756,24.344 L45.756,23.42 L48.682,23.42 L48.682,28.656 C48.794,28.74 48.906,28.838 49.032,28.978 C49.368,29.384 49.732,29.678 50.124,29.86 C50.572,30.056 51.202,30.168 52.042,30.196 C52.784,30.21 53.708,30.224 54.814,30.224 C55.458,30.224 56.13,30.21 56.816,30.196 C57.488,30.182 58.006,30.168 58.37,30.14 L58.132,31.148 L54.954,31.148 Z M52.448,20.13 C53.036,20.48 53.582,20.83 54.058,21.18 C54.786,20.802 55.458,20.382 56.074,19.906 L49.858,19.906 L49.858,19.052 L57.432,19.052 L57.432,19.78 C56.592,20.508 55.682,21.138 54.702,21.67 L54.926,21.852 L57.698,21.852 L57.698,28.11 C57.698,28.824 57.306,29.188 56.522,29.188 L55.36,29.188 L55.136,28.334 L56.242,28.376 C56.578,28.376 56.746,28.208 56.746,27.9 L56.746,26.85 L54.394,26.85 L54.394,29.258 L53.456,29.258 L53.456,26.85 L51.118,26.85 L51.118,29.3 L50.166,29.3 L50.166,21.852 L53.666,21.852 C53.134,21.474 52.518,21.096 51.832,20.732 L52.448,20.13 Z M51.118,24.792 L51.118,26.024 L53.456,26.024 L53.456,24.792 L51.118,24.792 Z M54.394,24.792 L54.394,26.024 L56.746,26.024 L56.746,24.792 L54.394,24.792 Z M56.746,23.952 L56.746,22.692 L54.394,22.692 L54.394,23.952 L56.746,23.952 Z M53.456,23.952 L53.456,22.692 L51.118,22.692 L51.118,23.952 L53.456,23.952 Z M60.722,18.758 C61.674,19.5 62.472,20.242 63.116,20.97 L62.388,21.712 C61.814,20.998 61.03,20.228 60.022,19.416 L60.722,18.758 Z M69.234,31.148 C68.436,31.148 67.568,31.134 66.63,31.12 C65.678,31.106 64.908,31.022 64.334,30.868 C63.746,30.7 63.228,30.35 62.78,29.846 C62.584,29.608 62.388,29.496 62.206,29.496 C61.87,29.496 61.296,30.14 60.512,31.456 L59.756,30.784 C60.512,29.58 61.17,28.852 61.758,28.6 L61.758,24.358 L59.742,24.358 L59.742,23.406 L62.724,23.406 L62.724,28.656 C62.836,28.74 62.962,28.838 63.088,28.978 C63.452,29.37 63.83,29.664 64.236,29.86 C64.684,30.042 65.356,30.14 66.224,30.168 C66.994,30.182 67.96,30.196 69.108,30.196 C69.724,30.196 70.34,30.182 70.984,30.182 C71.614,30.168 72.104,30.154 72.44,30.126 L72.188,31.148 L69.234,31.148 Z M68.814,29.272 L66.826,29.272 L66.602,28.306 C67.246,28.348 67.876,28.376 68.464,28.376 C68.856,28.376 69.066,28.18 69.066,27.802 L69.066,21.852 L63.774,21.852 L63.774,20.858 L69.066,20.858 L69.066,18.59 L70.088,18.59 L70.088,20.858 L72.16,20.858 L72.16,21.852 L70.088,21.852 L70.088,28.04 C70.088,28.852 69.654,29.272 68.814,29.272 Z M65.3,23.098 C66.196,24.134 66.882,25.044 67.358,25.828 L66.546,26.388 C66.042,25.548 65.37,24.624 64.516,23.602 L65.3,23.098 Z" id="测试通过" fill="#444444" fill-rule="nonzero"></path>
                            </g>
                        </g>
                        <g id="分组" transform="translate(326.500000, 75.000000) rotate(-180.000000) translate(-326.500000, -75.000000) translate(300.000000, 20.000000)">
                            <polygon id="Fill-3" fill="#878787" transform="translate(2.500000, 105.500000) rotate(-180.000000) translate(-2.500000, -105.500000) " points="0 110 5 105.5 0 101"></polygon>
                            <polygon id="Fill-3复制" fill="#878787" transform="translate(2.500000, 4.500000) rotate(-180.000000) translate(-2.500000, -4.500000) " points="0 9 5 4.5 0 3.18323146e-12"></polygon>
                            <path d="M52.5,54.5 L26.5102761,54.5" id="Stroke-5" stroke="#878787"></path>
                            <path d="M27,4.5 L5,4.5" id="Stroke-6" stroke="#878787"></path>
                            <polyline id="Stroke-7" stroke="#878787" points="5 105 26.9900273 104.925564 27 4"></polyline>
                        </g>
                        <g id="分组-30-copy" transform="translate(132.000000, 70.000000)">
                            <polygon id="XMLID_22_" fill="#878787" transform="translate(23.500000, 4.500000) rotate(-360.000000) translate(-23.500000, -4.500000) " points="21 9 26 4.5 21 0"></polygon>
                            <path d="M21.0982931,4.5 L0.534114682,4.5" id="直线-3" stroke="#878787" stroke-linecap="square"></path>
                        </g>
                        <g id="分组-30-copy复制-16" transform="translate(453.000000, 21.000000)">
                            <polygon id="XMLID_22_" fill="#878787" transform="translate(23.500000, 4.500000) rotate(-360.000000) translate(-23.500000, -4.500000) " points="21 9 26 4.5 21 0"></polygon>
                            <path d="M21.0982931,4.5 L0.534114682,4.5" id="直线-3" stroke="#878787" stroke-linecap="square"></path>
                        </g>
                        <g id="分组-30-copy复制-17" transform="translate(453.000000, 121.000000)">
                            <polygon id="XMLID_22_" fill="#878787" transform="translate(23.500000, 4.500000) rotate(-360.000000) translate(-23.500000, -4.500000) " points="21 9 26 4.5 21 0"></polygon>
                            <path d="M21.0982931,4.5 L0.534114682,4.5" id="直线-3" stroke="#878787" stroke-linecap="square"></path>
                        </g>
                    </g>
                </g>
            </g>
        </g>
    </g>
</svg>