<?xml version="1.0" encoding="utf-8"?>
<!-- Generator: Adobe Illustrator 22.1.0, SVG Export Plug-In . SVG Version: 6.00 Build 0)  -->
<svg version="1.1" id="svgwrapper_svg" xmlns="http://www.w3.org/2000/svg" xmlns:xlink="http://www.w3.org/1999/xlink" x="0px"
	 y="0px" viewBox="0 0 830 206.6" style="enable-background:new 0 0 830 206.6;" xml:space="preserve">
<style type="text/css">
	.st0{fill:#EAEBEC;}
	.st1{fill:#444444;}
	.st2{display:none;fill:none;stroke:#999999;}
	.st3{fill:none;stroke:#BABABA;stroke-dasharray:5;}
	.st4{fill:none;stroke:#888888;}
	.st5{fill:#888888;}
	.st6{fill:none;stroke:#FF0000;stroke-width:15;stroke-opacity:0;}
	.st7{opacity:0.6;fill:#BBBBBB;enable-background:new    ;}
	.st8{fill:#FFFFFF;stroke:#E5E5E5;}
	.st9{enable-background:new    ;}
	.st10{fill:#878787;}
	.st11{fill:#CEE3FF;fill-opacity:0;}
</style>
<rect x="415.3" y="-0.2" class="st0" width="414.5" height="206.8"/>
<g>
	<path class="st1" d="M437.7,10.5v1.3h-10v9.3h10.4v1.3h-11.7V10.5H437.7z M433.2,15.6c0.7-1,1.4-2.1,1.9-3.3l1.2,0.6
		c-0.6,1.4-1.3,2.5-2.1,3.6c1,0.9,1.9,1.9,2.8,2.8l-1,1c-0.8-0.9-1.6-1.8-2.6-2.8c-1.2,1.3-2.5,2.2-4.1,2.9l-0.8-1.2
		c1.5-0.6,2.8-1.5,3.9-2.6c-1.1-1-2.3-1.9-3.5-2.9l1-0.9C431,13.7,432.2,14.6,433.2,15.6z"/>
	<path class="st1" d="M441,13.6V10h1.3v3.6h1.2v1.3h-1.2v3.8c0.4-0.2,0.8-0.4,1.2-0.6v1.3c-1.1,0.6-2.3,1.1-3.6,1.5l-0.3-1.3
		c0.5-0.1,0.9-0.2,1.4-0.4v-4.3h-1.3v-1.3H441z M447.7,20.2c-1.4,0.5-2.8,1-4.4,1.3l-0.3-1.3c1.6-0.3,3.2-0.7,4.7-1.2V20.2z
		 M448.3,11.8c0-0.6,0-1.2,0-1.8h1.3c0,0.6,0,1.2,0,1.8h1.1c-0.2-0.5-0.3-0.9-0.5-1.3l1.2-0.2c0.1,0.4,0.3,0.9,0.4,1.5h0.6V13h-2.8
		c0,1.8,0.1,3.3,0.2,4.5c0.4-1.1,0.8-2.2,1.1-3.6l1.1,0.5c-0.5,2.1-1.1,3.8-1.9,5.2c0.2,1.1,0.5,1.7,0.7,1.8c0.2,0,0.5-0.7,0.7-2
		l1,0.8c-0.5,1.7-1.1,2.5-1.7,2.5c-0.5,0-0.9-0.4-1.3-1.1c-0.1-0.2-0.2-0.5-0.3-0.8c-0.6,0.8-1.4,1.5-2.2,1.9l-0.8-1.1
		c1-0.6,1.9-1.4,2.6-2.4c-0.1-0.4-0.1-0.8-0.2-1.2c-0.2-1.4-0.3-3.1-0.3-5.2h-4.9v-1.3H448.3z M447.7,14.2v4.1H444v-4.1H447.7z
		 M446.5,15.3h-1.4v1.9h1.4V15.3z"/>
	<path class="st1" d="M456.8,14.2v5.9c0.4-0.4,0.8-0.7,1.2-1.2l0.4,1.4c-0.8,0.8-1.8,1.6-2.7,2.2l-0.5-1.2c0.2-0.2,0.4-0.4,0.4-0.7
		v-5.2h-2v-1.3H456.8z M457.7,12.2l-0.9,0.9c-0.6-0.7-1.3-1.4-2.3-2.1l0.9-0.9C456.3,10.8,457.1,11.5,457.7,12.2z M466.1,10.5v1.2
		h-3.2v5h3.6V18h-3.6v4.9h-1.3V18H458v-1.3h3.6v-5h-3.2v-1.2H466.1z M460.7,15.9l-1.1,0.3c-0.3-1.2-0.6-2.4-1-3.4l1.1-0.4
		C460.1,13.4,460.4,14.6,460.7,15.9z M465.8,12.6c-0.3,1.3-0.6,2.5-1.1,3.5l-1.1-0.4c0.4-0.9,0.7-2.1,1.1-3.4L465.8,12.6z"/>
	<path class="st1" d="M471.7,10.5c-0.3,1.1-0.8,2.2-1.4,3.2v9.3H469v-7.3c-0.4,0.5-0.8,0.9-1.2,1.4l-0.4-1.4
		c1.4-1.6,2.4-3.5,3.1-5.7L471.7,10.5z M475.2,12.7V10h1.3v2.7h3.9v1.3h-3.9v2.6h3.1v6.3h-1.3v-0.6h-4.7v0.6h-1.3v-6.3h3v-2.6h-3.7
		v-1.3H475.2z M478.3,21.1v-3.2h-4.7v3.2H478.3z"/>
</g>
<path class="st2" d="M430,295L430,295"/>
<g id="bottomgroup" transform="translate(0,0)">
	<g id="DashRectGroup39" transform="translate(461.5,221)">
		<path class="st3" d="M-33.5-187h202v159h-202V-187"/>
	</g>
</g>
<g id="Link43" transform="translate(0,0)">
	<path class="st4" d="M632.1,115h24V75.2h21"/>
	<g transform="translate(0.5, 0)">
		<polygon class="st5" points="672.1,79.4 678.1,75.2 672.1,71 		"/>
	</g>
	<path class="st6" d="M632.1,115h24"/>
	<path class="st6" d="M656.1,115V75.2"/>
	<path class="st6" d="M656.1,75.2h21"/>
</g>
<g id="Link43_1_" transform="translate(0,0)">
	<path class="st4" d="M677.1,154.8h-21V115h-24"/>
	<g transform="translate(0.5, 0)">
		<polygon class="st5" points="672.1,159 678.1,154.8 672.1,150.6 		"/>
	</g>
	<path class="st6" d="M656.1,115h-24"/>
	<path class="st6" d="M656.1,154.8V115"/>
	<path class="st6" d="M677.1,154.8h-21"/>
</g>
<g id="Link45" transform="translate(0,0)">
	<path class="st4" d="M128.6,119.5h72.5"/>
	<g transform="translate(0.5, 0)">
		<polygon class="st5" points="196.1,124 202.1,119.5 196.1,115 		"/>
	</g>
	<path class="st6" d="M124.6,119.5"/>
	<path class="st6" d="M201,119.5"/>
</g>
<g id="Link45_1_" transform="translate(0,0)">
	<path class="st4" d="M339.8,119.5h71.5"/>
	<g transform="translate(0.5, 0)">
		<polygon class="st5" points="406.3,124 412.3,119.5 406.3,115 		"/>
	</g>
	<path class="st6" d="M339.8,119.5"/>
	<path class="st6" d="M339.7,119.5h71.5"/>
</g>
<g id="RectEndPoint3" transform="translate(13.001953125,277)">
	<g>
		<rect x="-9.5" y="-180.1" class="st7" width="122" height="46.1"/>
		<rect x="-11.5" y="-182" class="st8" width="122" height="46.1"/>
	</g>
	<g class="st9">
		<path class="st1" d="M11.9-156.3l-0.8-1v5.4H9.8v-8.7h2.9c-0.2-0.5-0.4-1-0.7-1.4H9.3v-1.2h5.5c-0.1-0.3-0.3-0.6-0.4-0.9l1.5-0.2
			c0.1,0.3,0.3,0.7,0.4,1.1h5.5v1.2h-2.9c-0.2,0.5-0.4,1-0.7,1.4h3v7.2c0,1-0.5,1.5-1.4,1.5h-1.4L18-153l1.3,0
			c0.3,0,0.5-0.2,0.5-0.7v-5.8h-8.7v2.1c1.1-0.6,2-1.3,2.8-2.1l0.9,0.8c-0.6,0.6-1.2,1.2-2,1.8h5.4v3.5h-5.5v-3.5
			C12.5-156.7,12.2-156.5,11.9-156.3z M16.7-160.6c0.3-0.5,0.5-0.9,0.7-1.4h-3.8c0.2,0.4,0.4,0.9,0.6,1.4H16.7z M16.9-155.8H14v1.3
			h2.9V-155.8z M19.8-157.3l-1,0.9c-0.6-0.7-1.6-1.5-2.7-2.3l0.9-0.8C18.1-158.8,19.1-158,19.8-157.3z"/>
		<path class="st1" d="M24.9-151.8h-1.3v-12h11.7v12h-1.3v-0.5h-9.2V-151.8z M26.9-161.1c-0.1-0.3-0.3-0.6-0.5-0.9l1-0.3
			c0.2,0.3,0.4,0.8,0.6,1.2h0.8c0.1-0.4,0.2-0.9,0.3-1.3l1.2,0.1c-0.1,0.4-0.2,0.8-0.3,1.2h1c0.2-0.4,0.4-0.8,0.5-1.2l1.1,0.2
			c-0.1,0.3-0.2,0.7-0.4,1h1.1v1h-3.6c-0.1,0.2-0.2,0.5-0.3,0.7h4.2v1h-1.6c0.5,0.6,1.2,1.2,2.2,1.7v-6h-9.2v9.4h9.2v-3.4l-0.7,0.8
			c-0.8-0.5-1.4-1-1.8-1.6v1.1c0,0.6-0.4,0.9-1.1,0.9c-0.4,0-0.8,0-1.2,0l-0.2-0.8c0.4,0,0.7,0.1,1,0.1c0.3,0,0.5-0.1,0.5-0.4v-0.4
			h-2.1v1.9c0,0.2,0.1,0.3,0.4,0.3h2c0.5,0,0.8-0.1,0.9-0.2c0.1-0.1,0.2-0.4,0.3-0.8l1.1,0.3c-0.1,0.8-0.3,1.2-0.5,1.4
			c-0.2,0.1-0.7,0.2-1.4,0.2h-2.8c-0.7,0-1.1-0.3-1.1-0.9v-1.9c-0.4,0.4-0.9,0.7-1.5,1l-0.6-0.9c1-0.5,1.8-1.1,2.4-1.8h-2v-1h2.6
			c0.1-0.2,0.2-0.4,0.3-0.7h-2.6v-1H26.9z M31.2-157.9c-0.2-0.2-0.3-0.4-0.4-0.6h-2.1c-0.2,0.2-0.3,0.4-0.5,0.6H31.2z"/>
		<path class="st1" d="M49.2-163.7v1.2h-10v8.9h10.4v1.2H38v-11.4H49.2z M44.7-158.9c0.7-0.9,1.4-2,1.9-3.2l1.2,0.6
			c-0.6,1.3-1.3,2.4-2.1,3.4c1,0.9,1.9,1.8,2.8,2.7l-1,1c-0.8-0.9-1.6-1.8-2.6-2.7c-1.2,1.2-2.5,2.1-4.1,2.8l-0.8-1.2
			c1.5-0.6,2.8-1.4,3.9-2.5c-1.1-0.9-2.3-1.8-3.5-2.8l1-0.9C42.5-160.7,43.7-159.8,44.7-158.9z"/>
		<path class="st1" d="M52.5-160.8v-3.4h1.3v3.4H55v1.2h-1.2v3.7c0.4-0.2,0.8-0.4,1.2-0.6v1.3c-1.1,0.6-2.3,1-3.6,1.4l-0.3-1.3
			c0.5-0.1,0.9-0.2,1.4-0.4v-4.1h-1.3v-1.2H52.5z M59.2-154.5c-1.4,0.5-2.8,0.9-4.4,1.3l-0.3-1.2c1.6-0.2,3.2-0.6,4.7-1.2V-154.5z
			 M59.8-162.5c0-0.6,0-1.1,0-1.7h1.3c0,0.6,0,1.2,0,1.7h1.1c-0.2-0.5-0.3-0.9-0.5-1.2l1.2-0.2c0.1,0.4,0.3,0.9,0.4,1.4h0.6v1.2
			h-2.8c0,1.7,0.1,3.2,0.2,4.3c0.4-1,0.8-2.2,1.1-3.4l1.1,0.5c-0.5,2-1.1,3.7-1.9,5c0.2,1.1,0.5,1.6,0.7,1.7c0.2,0,0.5-0.7,0.7-1.9
			l1,0.8c-0.5,1.6-1.1,2.4-1.7,2.4c-0.5,0-0.9-0.4-1.3-1.1c-0.1-0.2-0.2-0.5-0.3-0.7c-0.6,0.8-1.4,1.4-2.2,1.9l-0.8-1
			c1-0.6,1.9-1.3,2.6-2.3c-0.1-0.4-0.1-0.7-0.2-1.1c-0.2-1.3-0.3-3-0.3-5h-4.9v-1.2H59.8z M59.2-160.2v3.9h-3.7v-3.9H59.2z
			 M58-159.1h-1.4v1.8H58V-159.1z"/>
		<path class="st1" d="M68.3-159l-0.9,0.9c-0.5-0.6-1.3-1.3-2.3-2l0.9-0.8C66.9-160.3,67.7-159.6,68.3-159z M68.5-156.7
			c-0.6,1.7-1.4,3.3-2.2,4.8l-1.3-0.5c0.9-1.5,1.6-3.1,2.3-4.7L68.5-156.7z M68.6-162.2l-0.9,0.9c-0.6-0.6-1.4-1.2-2.4-1.9l0.9-0.8
			C67.2-163.5,68-162.8,68.6-162.2z M74.2-151.9l-0.4-1.2l1.6,0c0.5,0,0.7-0.2,0.7-0.5v-9h-5.9v10.7h-1.3v-11.9h8.5v10.5
			c0,0.9-0.5,1.4-1.6,1.4H74.2z M75.5-161.4v1.2H71v-1.2H75.5z M75.2-159.2v4.8h-3.9v-4.8H75.2z M74-158.1h-1.5v2.6H74V-158.1z"/>
		<path class="st1" d="M79.7-155.9l-0.6-1c0.8-0.2,1.4-0.5,2.1-0.9c-0.3-0.3-0.5-0.7-0.9-1.1c-0.2,0.1-0.3,0.2-0.5,0.3l-0.7-0.8
			c1.3-0.7,2.5-1.6,3.5-2.7l1.2,0.3c-0.1,0.2-0.3,0.3-0.4,0.5h2v0.8c-0.5,0.9-1.1,1.7-1.8,2.4h3.9c-0.9-1-1.5-2.2-1.8-3.5l1-0.3
			c0,0.2,0.1,0.4,0.2,0.7h3.1v-0.8h-9v1.5h-1.2v-2.6h5.1c-0.1-0.3-0.3-0.5-0.4-0.7l1.4-0.2c0.1,0.3,0.3,0.6,0.4,0.9h5.1v2.6h-1v0.1
			c-0.5,0.7-1,1.4-1.5,1.9c0.8,0.7,1.8,1.2,3.1,1.7l-0.6,1c-1.2-0.4-2.3-1-3.1-1.7v0.5h-5v-0.6c-0.8,0.6-1.6,1.1-2.5,1.5h9.7v1.1
			h-4.2v2.1c0,0.8-0.4,1.2-1.3,1.2h-1.4l-0.3-1.2c0.4,0.1,0.8,0.1,1.2,0.1c0.3,0,0.4-0.1,0.4-0.4v-1.8h-4.3v-1.1
			C80.2-156.1,80-156,79.7-155.9z M83.4-154.3c-0.4,0.5-0.9,1-1.4,1.3c-0.5,0.3-1.1,0.7-2,1.1l-0.7-1.1c0.6-0.2,1.2-0.5,1.8-0.8
			c0.4-0.3,0.9-0.7,1.3-1.1L83.4-154.3z M81.1-159.4c0.3,0.4,0.6,0.7,0.9,1.1c0.2-0.2,0.5-0.4,0.7-0.6c-0.3-0.3-0.6-0.6-0.9-1
			C81.5-159.7,81.3-159.5,81.1-159.4z M84-160.5h-1.5l-0.1,0.1c0.3,0.3,0.6,0.6,0.9,0.8C83.6-159.8,83.8-160.2,84-160.5z M91.4-153
			l-0.7,1.1c-1.1-0.9-2.3-1.5-3.4-2l0.7-1C89.2-154.4,90.3-153.7,91.4-153z M88-159.5c0.3-0.3,0.6-0.6,0.8-1h-1.5
			C87.6-160.1,87.8-159.8,88-159.5z"/>
	</g>
</g>
<g id="RectEndPoint7" transform="translate(472,228)">
	<rect x="-17" y="-176.2" class="st7" width="150" height="46.2"/>
	<rect x="-19" y="-178" class="st8" width="150" height="46.2"/>
	<g class="st9">
		<path class="st1" d="M20.3-156.3v-1.9h-5v-1.3h5v-1.8h1.3v1.8h5.1v1.3h-5.1v1.9h4.4v1.3h-4.4v1.9h5.4v1.3h-5.4v3.2h-1.3v-3.2H15
			v-1.3h5.4v-1.9H16v-1.3H20.3z"/>
		<path class="st1" d="M41-157.6h-1.3v-1.6h-9.4v1.6H29v-2.7h5.3c-0.1-0.3-0.3-0.6-0.5-0.9l1.4-0.2c0.2,0.3,0.3,0.7,0.5,1.1H41
			V-157.6z M40.1-148.6h-1.3v-0.4h-7.6v0.4h-1.3v-5h10.1V-148.6z M39.2-158.5v1h-8.4v-1H39.2z M38.9-156.9v2.7h-7.7v-2.7H38.9z
			 M34.4-151.8v-0.8h-3.1v0.8H34.4z M34.4-150.1v-0.8h-3.1v0.8H34.4z M37.6-155.9h-5.2v0.9h5.2V-155.9z M35.7-151.8h3.2v-0.8h-3.2
			V-151.8z M38.8-150.1v-0.8h-3.2v0.8H38.8z"/>
		<path class="st1" d="M55.3-160.6v1.3H42.7v-1.3H55.3z M54.8-157.2v8.5h-1.3v-0.6h-9v0.6h-1.3v-8.5h1.3v6.6h9v-6.6H54.8z
			 M52.5-158.3v6.6h-6.9v-6.6H52.5z M46.8-157.1v1.5h1.6v-1.5H46.8z M46.8-152.9h1.6v-1.6h-1.6V-152.9z M51.2-157.1h-1.6v1.5h1.6
			V-157.1z M51.2-152.9v-1.6h-1.6v1.6H51.2z"/>
		<path class="st1" d="M56.9-154.5l-0.4-1.4c1.2-1.6,2.1-3.4,2.7-5.5l1.2,0.6c-0.3,0.9-0.6,1.8-1,2.7v9.5H58v-7.3
			C57.7-155.4,57.3-155,56.9-154.5z M60.5-157.6l-0.8-1c1.3-0.7,2.4-1.6,3.3-2.9l1.3,0.3l-0.5,0.7h3.4v0.8c-0.3,0.4-0.6,0.7-0.9,1
			h2.4v3.2h-4c0.5,0.5,0.9,1.1,1.1,1.6c0.9-0.4,1.6-0.9,2.2-1.4l0.9,1c-0.4,0.3-0.8,0.6-1.3,0.9c0.4,1.1,1,2.2,1.9,3l-0.9,1.1
			c-0.9-1.1-1.6-2.3-2-3.6l-0.4,0.2c0.1,0.4,0.2,0.9,0.2,1.4c0,1-0.2,1.6-0.5,2c-0.3,0.3-0.8,0.5-1.6,0.6c-0.3,0-0.5,0-0.8,0
			l-0.4-1.2c0.4,0,0.8,0,1.1,0c0.3,0,0.5-0.1,0.7-0.3c0.2-0.2,0.2-0.6,0.2-1.2c0-0.1,0-0.1,0-0.2c-1.1,1-2.6,1.8-4.4,2.5l-0.7-1.1
			c2.1-0.7,3.8-1.5,4.9-2.5c-0.1-0.2-0.1-0.4-0.2-0.6c-1,0.9-2.4,1.6-4,2.1l-0.6-1.1c1.8-0.5,3.2-1.2,4.2-1.9
			c-0.1-0.2-0.3-0.4-0.4-0.5c-0.8,0.7-1.9,1.2-3.3,1.5l-0.5-1.1c1.2-0.2,2.1-0.6,2.8-1.2h-2.1v-2.4
			C60.6-157.7,60.6-157.7,60.5-157.6z M65.6-159.5h-2.7c-0.3,0.3-0.6,0.6-1,0.9h2.7C65-158.9,65.3-159.2,65.6-159.5z M64.2-157.6H62
			v1.1h1.7C64-156.8,64.1-157.2,64.2-157.6z M67.4-157.6h-1.9c-0.1,0.4-0.2,0.8-0.3,1.1h2.3V-157.6z"/>
		<path class="st1" d="M74.1-160.9c-0.6,1.6-1.2,3-1.9,4c0.4-0.1,0.9-0.1,1.3-0.2c0.2-0.5,0.5-1,0.7-1.6l1.2,0.4
			c-1.1,2.2-1.9,3.8-2.7,4.8c0.8-0.2,1.6-0.5,2.4-0.9v1.2c-1.4,0.6-2.7,0.9-4,1.2l-0.3-1.2c0.2-0.1,0.4-0.2,0.6-0.4
			c0.4-0.5,0.9-1.2,1.5-2.4c-0.6,0.1-1.3,0.2-2,0.3l-0.3-1.2c0.2-0.1,0.4-0.2,0.6-0.5c0.6-1.2,1.1-2.6,1.6-4.1L74.1-160.9z
			 M75.5-150.3c-1.4,0.5-2.9,0.9-4.7,1.2l-0.2-1.3c1.9-0.3,3.5-0.7,4.9-1.2V-150.3z M77.7-148.7h-1.3v-7.7c-0.3,0.5-0.7,1-1.1,1.5
			l-0.4-1.3c1-1.6,1.8-3.3,2.2-5.1l1.3,0.2c-0.2,0.7-0.4,1.3-0.6,1.9h2.2c-0.2-0.7-0.5-1.3-0.8-1.9l1.3-0.3c0.3,0.8,0.6,1.6,0.7,2.3
			h2v1.2h-2.1v1.6H83v1.2h-1.8v1.5H83v1.2h-1.8v1.8h2.4v1.2h-5.8V-148.7z M77.7-157.8v1.6h2.2v-1.6H77.7z M77.7-153.5h2.2v-1.5h-2.2
			V-153.5z M77.7-150.6h2.2v-1.8h-2.2V-150.6z"/>
		<path class="st1" d="M87-155.9c-0.1,3-0.5,5.4-1.5,7.2l-1-0.9c0.8-1.5,1.2-3.6,1.2-6.3v-4.5H91c-0.2-0.3-0.3-0.6-0.5-0.8l1.4-0.2
			c0.2,0.3,0.3,0.7,0.4,1.1h4.7v1.2H87v1.3h2.1v-0.9h1.3v0.9h3.3v-0.9H95v0.9h2.1v1.2H95v2.1h-5.9v-2.1H87V-155.9z M95.9-153.8v1
			c-0.7,0.8-1.6,1.6-2.6,2.2c1.2,0.4,2.6,0.8,4.1,1l-0.6,1.1c-1.9-0.3-3.5-0.8-4.8-1.4c-1.4,0.6-3,1.1-4.9,1.4l-0.6-1.1
			c1.6-0.2,2.9-0.5,4.1-1c-0.9-0.6-1.6-1.2-2.2-2h-0.9v-1.1H95.9z M92-151.2c0.8-0.4,1.5-0.9,2.1-1.4H90
			C90.5-152.1,91.2-151.7,92-151.2z M90.4-155.6h3.3v-1h-3.3V-155.6z"/>
	</g>
</g>
<g id="RectEndPoint8" transform="translate(473,310.5)">
	<rect x="-18" y="-178.5" class="st7" width="150" height="46"/>
	<rect x="-20" y="-180.4" class="st8" width="150" height="46"/>
	<g class="st9">
		<path class="st1" d="M4.6-151.4c0,0.8-0.5,1.2-1.4,1.2H1.3L1-151.5c0.6,0,1.2,0.1,1.7,0.1c0.3,0,0.5-0.2,0.5-0.5v-9.3h-8.1v4.2
			c0,2.8-0.5,5-1.5,6.8l-1-0.9c0.8-1.5,1.1-3.4,1.2-5.8v-5.5H4.6V-151.4z M-0.2-160.8v1h2.4v1.1h-2.4v1.1h2.8v1.1h-6.9v-1.1h2.8
			v-1.1h-2.4v-1.1h2.4v-1H-0.2z M2-155.7v3.6h-5.9v-3.6H2z M0.7-154.7h-3.3v1.4h3.3V-154.7z"/>
		<path class="st1" d="M13.6-150.4c-1,0-1.7-0.1-2.3-0.2c-0.6-0.2-1.1-0.5-1.5-1c-0.2-0.2-0.4-0.3-0.6-0.3c-0.3,0-0.8,0.6-1.5,1.9
			l-1-0.9c0.7-1.1,1.4-1.9,1.9-2.1v-3.9H6.7v-1.3h3.2v5.2c0.1,0.1,0.2,0.1,0.2,0.2c0.3,0.4,0.7,0.6,1.1,0.8c0.4,0.2,1.1,0.3,1.9,0.3
			c0.8,0,1.8,0,3,0c0.6,0,1.3,0,1.9,0c0.7,0,1.2-0.1,1.5-0.1l-0.3,1.3h-3C15.4-150.4,14.6-150.4,13.6-150.4z M10.2-160.6l-1,1
			c-0.6-0.7-1.3-1.4-2.3-2.2l0.9-0.9C8.8-162,9.6-161.3,10.2-160.6z M14.8-162.8v2.1h4c0,3.9-0.2,6.2-0.6,7
			c-0.4,0.8-1.1,1.2-2.1,1.2c-0.3,0-0.7,0-1.1-0.1l-0.3-1.2c0.4,0,0.8,0.1,1.1,0.1c0.8,0,1.2-0.3,1.4-0.9c0.2-0.6,0.3-2.2,0.3-4.7
			h-2.7c-0.1,3.2-1.2,5.5-3.2,7l-1-0.9c1.8-1.3,2.7-3.3,2.8-6.1h-2.5v-1.2h2.5v-2.1H14.8z"/>
		<path class="st1" d="M27.1-162.4v1.2h-1.7v1.3h1.5v9.6h-1.2v-0.7h-3.6v0.7h-1.2v-9.6h1.5v-1.3h-1.8v-1.2H27.1z M22.1-154.4h3.6
			v-0.9h-0.5c-0.7,0-1-0.3-1-1v-2.3h-0.7v0.8c0,1.5-0.3,2.5-0.9,3.2l-0.6-0.5V-154.4z M22.1-158.6v3.2c0.4-0.6,0.6-1.4,0.6-2.5v-0.8
			H22.1z M25.8-152.1v-1.1h-3.6v1.1H25.8z M24.3-159.8v-1.3h-0.7v1.3H24.3z M25.8-158.6h-0.6v2.1c0,0.2,0.1,0.3,0.3,0.3h0.3V-158.6z
			 M32.9-151c-0.2,0.4-0.7,0.6-1.4,0.6h-2.9c-0.7,0-1-0.5-1-1.4v-6h3.8v-3.3h-3.9v-1.2h5.2v5.8h-3.7v4.2c0,0.4,0.1,0.7,0.3,0.7h2.1
			c0.3,0,0.5-0.2,0.6-0.6s0.1-1.1,0.2-2.1l1.3,0.4C33.3-152.4,33.1-151.5,32.9-151z"/>
		<path class="st1" d="M47.4-158.8l-0.6,1.2c-1-0.3-1.8-0.7-2.5-1.1v0.4h-5.7v0.6H45v1h-6.4v0.6H45v1h-6.4v0.6H47v1.2h-2.6
			c0.7,0.8,1.4,1.7,1.9,2.6l-1.2,0.5c-0.2-0.3-0.3-0.6-0.5-0.9c-2.5,0.4-5.2,0.6-7.9,0.7l-0.3-1.1c0.6-0.1,1.3-0.7,2-1.9h-3.4v-1.2
			h2.4v-3.9c-0.6,0.3-1.3,0.6-2.1,0.8l-0.6-1.1c1.7-0.5,3.1-1.2,4.1-2h-3.6v-1.2h4.7c0.2-0.3,0.4-0.7,0.6-1l1.3,0.2
			c-0.1,0.3-0.3,0.6-0.4,0.9h5.6v1.2h-3.4C44.4-159.8,45.7-159.2,47.4-158.8z M43.2-153l1-0.3h-4.3c-0.5,0.7-0.9,1.3-1.4,1.8
			c1.8-0.1,3.6-0.3,5.4-0.6C43.7-152.4,43.5-152.7,43.2-153z M41.9-160.6h-1.5c-0.4,0.4-0.8,0.8-1.3,1.2h4.1
			C42.7-159.8,42.3-160.2,41.9-160.6z"/>
		<path class="st1" d="M53.8-151h-1.3v-0.7h-2.2v1.1H49v-9.9h1.3c0.3-0.7,0.4-1.5,0.6-2.3l1.3,0.2c-0.1,0.8-0.3,1.5-0.6,2.1h2.2
			V-151z M52.5-156.8v-2.5h-2.2v2.5H52.5z M52.5-152.9v-2.7h-2.2v2.7H52.5z M60.8-151.8c-0.1,1-0.8,1.5-2,1.5c-0.3,0-0.8,0-1.5-0.1
			l-0.3-1.2c0.6,0,1.1,0.1,1.6,0.1c0.6,0,0.9-0.3,1-0.9c0.1-0.7,0.1-3,0.2-6.9h-3.5c-0.4,0.8-0.8,1.6-1.4,2.3l-0.8-1
			c0.9-1.3,1.6-2.9,1.9-4.8l1.3,0.2c-0.1,0.8-0.3,1.5-0.6,2.2H61C61-155.8,60.9-152.9,60.8-151.8z M58.4-154.3l-1,0.7
			c-0.5-0.9-1.3-1.9-2.2-3l1.1-0.7C57.2-156.2,57.9-155.2,58.4-154.3z"/>
		<path class="st1" d="M65.7-158.7v5.6c0.3-0.3,0.6-0.6,0.9-1l0.3,1.3c-0.8,0.8-1.5,1.6-2.4,2.3l-0.5-1.1c0.2-0.2,0.3-0.5,0.3-0.7
			v-5h-1.9v-1.2H65.7z M66.7-160.7l-0.9,0.9c-0.5-0.6-1.3-1.3-2.3-2l0.9-0.9C65.3-162,66.1-161.4,66.7-160.7z M67.5-159.2v-1.2h2
			c-0.4-0.7-0.8-1.3-1.2-1.9l1.1-0.5c0.4,0.6,0.9,1.3,1.3,2l-0.8,0.4h2.1c0.4-0.8,0.8-1.6,1.1-2.4l1.3,0.4c-0.3,0.8-0.6,1.4-1,2h1.8
			v1.2h-3.1v1.7h2.7v1.2h-2.7v1.8h3.5v1.2h-3.5v3.1h-1.3v-3.1h-3.5v-1.2h3.5v-1.8h-2.7v-1.2h2.7v-1.7H67.5z"/>
		<path class="st1" d="M77.4-150.1l-0.9-0.8c0.5-1,0.8-2.2,0.8-3.7v-4.1l-0.7-0.9c0.8-0.8,1.5-1.9,2-3.4l1.2,0.3
			c-0.1,0.2-0.2,0.5-0.3,0.7h2.4v0.9c-0.3,0.5-0.5,1-0.8,1.3h1.5v8.3c0,0.7-0.4,1.1-1.2,1.1h-0.7l-0.3-1v0.9h-1v-3h-1
			C78.2-152.1,77.9-151,77.4-150.1z M80.5-160.8H79c-0.2,0.4-0.5,0.8-0.7,1.2h1.5C80-160,80.2-160.4,80.5-160.8z M78.4-158.5v1.5h1
			v-1.5H78.4z M78.4-154.5h1v-1.5h-1V-154.5z M81.5-158.5h-1v1.5h1V-158.5z M81.5-156h-1v1.5h1V-156z M81-151.3
			c0.3,0,0.4-0.2,0.4-0.4v-1.6h-1v2C80.7-151.3,80.9-151.3,81-151.3z M83.6-154.1l-0.8-0.9c0.6-0.6,1-1.5,1.2-2.5l1.1,0.2
			c-0.1,0.3-0.1,0.6-0.2,0.9h1v-1.2h1.3v1.2h1.9v1.2h-1.9v1.4h2.2v1.2h-2.2v2.6h-1.3v-2.6h-3v-1.2h3v-1.4h-1.5
			C84.2-154.8,83.9-154.5,83.6-154.1z M83-161v-1.2h6c0,1.9-0.2,3.1-0.4,3.5c-0.3,0.4-0.7,0.6-1.4,0.6c-0.3,0-0.7,0-1.2-0.1
			l-0.3-1.1c0.5,0,0.9,0.1,1.2,0.1c0.3,0,0.6-0.1,0.6-0.3c0.1-0.2,0.1-0.7,0.2-1.6H86c-0.1,0.6-0.4,1.1-0.6,1.6
			c-0.4,0.6-0.9,1.1-1.6,1.6l-0.8-1c0.6-0.3,1-0.7,1.3-1.2c0.2-0.3,0.3-0.6,0.4-1H83z"/>
		<path class="st1" d="M93.8-162.4c-0.6,1.7-1.2,3-1.8,4.1c0.4-0.1,0.9-0.1,1.3-0.2c0.2-0.5,0.5-1,0.7-1.5l1.2,0.4
			c-1,2.2-1.9,3.7-2.6,4.7c0.8-0.2,1.6-0.4,2.4-0.6v1.2c-1.4,0.4-2.7,0.7-3.9,0.9l-0.3-1.1c0.2-0.1,0.4-0.2,0.6-0.3
			c0.4-0.5,0.9-1.3,1.5-2.4l-1.9,0.3l-0.3-1.1c0.2-0.1,0.4-0.2,0.5-0.5c0.6-1.3,1.1-2.7,1.6-4.2L93.8-162.4z M95-151.9
			c-1.2,0.5-2.6,0.9-4.2,1.2l-0.2-1.2c1.7-0.3,3.1-0.7,4.4-1.2V-151.9z M96.7-151v0.8h-1.2v-11.6h7.5v11.6h-1.3v-0.8H96.7z
			 M96.7-160.6v3.5h1.9v-3.5H96.7z M96.7-155.9v3.7h1.9v-3.7H96.7z M101.8-157.1v-3.5h-1.9v3.5H101.8z M101.8-152.2v-3.7h-1.9v3.7
			H101.8z"/>
		<path class="st1" d="M110.4-161.7v-1.2h1.3v1.2h5.1v1.2h-4c1,0.8,2.6,1.5,4.6,2l-0.6,1.2c-2.4-0.8-4.1-1.9-5.2-3.2v2.3h-1.3v-2.3
			c-1.1,1.3-2.8,2.3-5.1,3.1l-0.7-1.2c2.1-0.5,3.6-1.2,4.7-2h-4v-1.2H110.4z M117.1-151.7v1.2h-12.1v-1.2H117.1z M115.3-157.7v5.2
			h-8.6v-5.2H115.3z M114-155.7v-0.9h-6v0.9H114z M114-154.6h-6v0.9h6V-154.6z"/>
	</g>
</g>
<g id="RectEndPoint10" transform="translate(667,231)">
	<rect x="15.5" y="-179" class="st7" width="137.5" height="46"/>
	<rect x="13.5" y="-181" class="st8" width="137.5" height="46"/>
	<g class="st9">
		<path class="st1" d="M41.4-162.3c-0.2,0.2-0.4,0.4-0.6,0.6h3.7v1c-1.5,2.6-4.3,4.1-8.4,4.5l-0.6-1.2c1.2-0.1,2.2-0.2,3.1-0.5
			c-0.4-0.5-0.8-0.9-1.2-1.3l1.1-0.5c0.5,0.4,0.9,0.9,1.3,1.4c1.3-0.5,2.3-1.3,3-2.3h-3.8c-1.1,0.6-2.4,1.1-3.8,1.4l-0.8-1.2
			c2.5-0.4,4.3-1.3,5.5-2.6L41.4-162.3z M41.4-152.8c1.4-0.6,2.5-1.4,3.3-2.4h-3.8c-1.2,0.5-2.6,1-4.3,1.3l-0.8-1.2
			c3-0.3,5.3-1.2,6.7-2.6l1.1,0.6c-0.3,0.3-0.5,0.5-0.8,0.7h3.6v1c-2,3.2-5.7,4.9-11.1,5l-0.5-1.2c2.1,0,3.9-0.2,5.4-0.7
			c-0.4-0.5-0.9-1.1-1.3-1.5l1.2-0.5C40.5-153.9,41-153.3,41.4-152.8z"/>
		<path class="st1" d="M50.8-154.8l-0.8-1v5.5h-1.3v-8.9h2.9c-0.2-0.5-0.4-1-0.7-1.4h-2.8v-1.2h5.5c-0.1-0.3-0.3-0.6-0.4-0.9
			l1.5-0.2c0.1,0.3,0.3,0.7,0.4,1.1h5.5v1.2h-2.9c-0.2,0.5-0.4,1-0.7,1.4h3v7.4c0,1-0.5,1.6-1.4,1.6h-1.4l-0.3-1.2l1.3,0
			c0.3,0,0.5-0.2,0.5-0.7v-5.9H50v2.2c1.1-0.6,2-1.3,2.8-2.1l0.9,0.8c-0.6,0.7-1.2,1.3-2,1.8h5.3v3.6h-5.5v-3.5
			C51.4-155.1,51.1-155,50.8-154.8z M55.5-159.2c0.3-0.5,0.5-0.9,0.7-1.4h-3.8c0.2,0.4,0.4,0.9,0.6,1.4H55.5z M55.8-154.2h-2.9v1.3
			h2.9V-154.2z M58.7-155.8l-1,1c-0.6-0.7-1.6-1.5-2.7-2.4l0.9-0.8C56.9-157.3,57.9-156.5,58.7-155.8z"/>
		<path class="st1" d="M63.7-150.2h-1.3v-12.2h11.7v12.2h-1.3v-0.5h-9.1V-150.2z M65.7-159.7c-0.1-0.3-0.3-0.6-0.5-0.9l1-0.4
			c0.2,0.4,0.4,0.8,0.6,1.2h0.8c0.1-0.4,0.2-0.9,0.3-1.4l1.2,0.2c-0.1,0.4-0.2,0.8-0.3,1.2h1c0.2-0.4,0.4-0.8,0.5-1.2l1,0.2
			c-0.1,0.3-0.2,0.7-0.4,1H72v1h-3.6c-0.1,0.2-0.2,0.5-0.3,0.7h4.2v1h-1.6c0.5,0.7,1.2,1.2,2.2,1.8v-6.1h-9.1v9.6h9.1v-3.5l-0.7,0.9
			c-0.8-0.5-1.4-1-1.8-1.6v1.2c0,0.6-0.4,0.9-1.1,0.9c-0.4,0-0.8,0-1.2,0l-0.2-0.9c0.4,0,0.7,0.1,1,0.1c0.3,0,0.5-0.1,0.5-0.4v-0.4
			h-2.1v2c0,0.2,0.1,0.3,0.4,0.3h2c0.5,0,0.8-0.1,0.9-0.2c0.1-0.2,0.2-0.4,0.3-0.9l1.1,0.3c-0.1,0.8-0.3,1.2-0.5,1.4
			c-0.2,0.2-0.7,0.2-1.4,0.2H67c-0.7,0-1-0.3-1-0.9v-2c-0.4,0.4-0.9,0.7-1.5,1l-0.6-0.9c1-0.5,1.8-1.1,2.4-1.9h-2v-1h2.6
			c0.1-0.2,0.2-0.5,0.3-0.7h-2.6v-1H65.7z M70-156.4c-0.2-0.2-0.3-0.4-0.4-0.7h-2c-0.2,0.2-0.3,0.4-0.5,0.7H70z"/>
		<path class="st1" d="M87.9-162.3v1.3h-5.1v4.9h5.6v1.2h-5.6v4.7h-1.3v-4.7H76v-1.2h5.5v-4.9h-4.9v-1.3H87.9z M80-157.3l-1.2,0.6
			c-0.5-1.2-0.9-2.2-1.5-3.1l1.2-0.6C79-159.5,79.5-158.5,80-157.3z M87.3-159.9c-0.4,1.1-0.9,2.1-1.6,3.1l-1.2-0.6
			c0.7-1,1.2-2.1,1.6-3.1L87.3-159.9z"/>
		<path class="st1" d="M93.9-162.2c-0.8,1.5-2,2.9-3.8,4.1l-0.4-1.3c1.4-0.9,2.3-2,3-3.3L93.9-162.2z M94.6-159.1
			c-0.4,0.7-0.9,1.4-1.4,2.1v6.8h-1.3v-5.5c-0.5,0.4-1,0.8-1.6,1.2l-0.4-1.3c1.6-1.1,2.8-2.4,3.5-3.9L94.6-159.1z M102.5-158.7v1.3
			h-2.2v5.8c0,0.9-0.5,1.3-1.5,1.3h-2l-0.3-1.3c0.6,0.1,1.3,0.1,1.9,0.1c0.4,0,0.6-0.2,0.6-0.4v-5.5h-4.2v-1.3H102.5z M101.9-162.1
			v1.3h-6.8v-1.3H101.9z"/>
		<path class="st1" d="M107.3-156.7c0.4-1.1,0.7-2.3,0.8-3.6h-3.7v-1.3h4.9v1c0,1.8-0.4,3.5-1.1,5c0.5,0.7,1,1.4,1.5,2.1l-1,1
			c-0.3-0.6-0.7-1.2-1.2-1.8c-0.8,1.2-1.8,2.3-3,3.3l-0.8-1.1c1.3-0.9,2.2-2,2.9-3.3c-0.8-1-1.6-2-2.6-3.1l0.9-0.8
			C105.8-158.4,106.6-157.6,107.3-156.7z M112.8-154.7l-1,0.7c-0.5-0.9-1.2-1.9-2.1-2.9l1-0.7C111.7-156.6,112.4-155.6,112.8-154.7z
			 M113.7-160.3v-2.6h1.3v2.6h1.4v1.3h-1.4v7.2c0,1-0.6,1.6-1.7,1.6h-2.1l-0.3-1.3c0.7,0.1,1.3,0.1,1.9,0.1c0.5,0,0.8-0.2,0.8-0.7
			v-6.9h-3.9v-1.3H113.7z"/>
		<path class="st1" d="M118.3-151.6c0.3-0.2,0.4-0.4,0.4-0.8v-10.3h1.3v3.7h3.5v1.3H120v5.7c1.2-0.3,2.3-0.6,3.5-1l0.3,1.2
			c-1.6,0.5-3.3,0.9-5.1,1.3L118.3-151.6z M125.7-152.4c0,0.4,0.2,0.5,0.5,0.5h2c0.2,0,0.4-0.1,0.6-0.2c0.2-0.2,0.3-1,0.4-2.4
			l1.3,0.4c-0.2,1.7-0.4,2.7-0.6,3c-0.3,0.3-0.7,0.5-1.2,0.5h-2.7c-1,0-1.5-0.5-1.5-1.6v-10.5h1.3v4.1c1.3-0.4,2.5-0.9,3.7-1.5
			l0.8,1.1c-1.6,0.7-3.1,1.3-4.5,1.6V-152.4z"/>
	</g>
</g>
<g id="RectEndPoint32" transform="translate(227,277)">
	<g>
		<rect x="-20.5" y="-180" class="st7" width="131.2" height="46"/>
		<rect x="-22.5" y="-182" class="st8" width="131.2" height="46"/>
	</g>
	<g class="st9">
		<path class="st1" d="M-0.9-150.6h-1.3v-6.5c-0.4,1.2-1,2.4-1.6,3.4l-0.6-1.5c1-1.3,1.7-2.7,2.1-4.4h-1.8v-1.3h1.9v-2.6h1.3v2.6
			h1.6v1.3h-1.6v0.7c0.6,0.6,1.2,1.3,1.9,2.1l-0.8,1.1c-0.4-0.7-0.8-1.3-1.1-1.7V-150.6z M3.6-163.3c-0.1,0.6-0.2,1.2-0.4,1.8h4.9
			c0,4.9-0.1,8-0.2,9.2c-0.2,1.1-0.9,1.7-2.1,1.7c-0.3,0-0.8,0-1.5-0.1l-0.3-1.2c0.6,0,1.2,0.1,1.6,0.1c0.6,0,1-0.4,1.1-1.1
			c0.1-0.7,0.2-3.2,0.2-7.4h-4c-0.4,1.1-0.8,2-1.4,2.8l-0.9-1.1c0.8-1.3,1.4-3,1.7-4.9L3.6-163.3z M1-154.6c0.4-0.2,1.1-1.7,2-4.4
			l1.2,0.4c-0.6,1.7-1.1,2.9-1.6,3.7c0.7-0.1,1.3-0.3,1.9-0.4c-0.2-0.5-0.4-1-0.5-1.4l1.1-0.4c0.5,1.1,0.9,2.2,1.2,3.5l-1.2,0.5
			c-0.1-0.4-0.2-0.8-0.3-1.2c-1.1,0.3-2.3,0.6-3.6,0.9L1-154.6z"/>
		<path class="st1" d="M22.5-152.2l-0.2,1.3h-4.1c-2.6,0-4.4-0.4-5.5-1.1c-0.1-0.1-0.3-0.2-0.3-0.3c-0.4,0.6-1,1.1-1.6,1.6l-0.9-1.1
			c0.6-0.4,1.1-0.9,1.5-1.5c-0.5-0.8-0.9-1.8-1.3-2.9l1.1-0.4c0.2,0.8,0.5,1.6,0.8,2.1c0.4-0.9,0.6-1.9,0.7-3h-2.5v-1
			c0.8-1,1.4-2,2.1-3.1h-2.1v-1.3h3.6v1.1c-0.6,1.2-1.2,2.2-1.9,3.1h2v0.8c-0.1,1.8-0.4,3.3-1.1,4.6c0.2,0.2,0.4,0.3,0.5,0.4
			c0.9,0.5,2.3,0.8,4.1,0.8C19.1-152.1,20.8-152.1,22.5-152.2z M18.5-157.6v0.9h3.2v1.1h-3.2v0.9h3.6v1.1h-3.6v1.1h-1.3v-1.1h-3.1
			v-1.1h3.1v-0.9h-2.6v-1.1h2.6v-0.9h-2.3v-1.1h2.3v-0.9h-3v-1.1h3v-0.8h-2.3v-1.1h2.3v-0.9h1.3v0.9h3v1.9h0.8v1.1h-0.8v2H18.5z
			 M18.5-160.6h1.7v-0.8h-1.7V-160.6z M18.5-158.7h1.7v-0.9h-1.7V-158.7z"/>
		<path class="st1" d="M27.6-163.1c-0.7,1.5-1.9,2.9-3.6,4.2l-0.4-1.3c1.3-1,2.2-2.1,2.8-3.4L27.6-163.1z M28-159.8
			c-0.3,0.7-0.7,1.4-1.2,2.1v7.1h-1.3v-5.7c-0.5,0.4-1,0.9-1.5,1.3l-0.4-1.3c1.4-1.2,2.5-2.5,3.2-4.1L28-159.8z M32.9-163.5v1.4h3
			v1.2h-3v1.4h3.6v1.2h-8.4v-1.2h3.5v-1.4h-3v-1.2h3v-1.4H32.9z M33.5-156.8v-0.9h1.3v0.9h1.5v1.2h-1.5v3.3c0,1-0.5,1.6-1.5,1.6h-2
			L31-152c0.6,0.1,1.2,0.1,1.8,0.1c0.4,0,0.7-0.2,0.7-0.7v-3h-5.3v-1.2H33.5z M31.8-153.2l-1,0.7c-0.4-0.6-1-1.3-1.8-2.1l1-0.7
			C30.8-154.4,31.3-153.8,31.8-153.2z"/>
		<path class="st1" d="M38-161.6v-1.3h4.9v1.3h-2.1c-0.2,1-0.4,2-0.8,2.9h2.5v6.6h-2.4v1h-1.2v-5.4c-0.2,0.4-0.4,0.7-0.7,1.1
			l-0.7-1.1c1-1.5,1.7-3.2,2-5H38z M41.3-153.2v-4.3h-1.2v4.3H41.3z M45.9-156.8c-0.1,2.8-1,4.9-2.5,6.3l-1-0.9
			c1.3-1.1,2.1-2.9,2.2-5.4h-1.4v-1.3h1.4v-3.6h-1.1v-1.3h6.7v1.3H49v3.6h1.6v1.3H49v6.2h-1.3v-6.2H45.9z M45.9-161.6v3.6h1.9v-3.6
			H45.9z"/>
		<path class="st1" d="M57.8-158.3v1.2l0,0.5h3.6v4.4c0,0.2,0.1,0.3,0.3,0.3h0.9c0.3,0,0.5-0.1,0.5-0.3c0-0.6,0.1-1.1,0.1-1.8
			l1.2,0.4c-0.1,1.2-0.2,1.9-0.3,2.2c-0.2,0.5-0.7,0.8-1.5,0.8h-1.1c-1,0-1.5-0.4-1.5-1.3v-3.3h-2.5c-0.2,1-0.6,1.8-1.1,2.5
			c-0.8,1-2.1,1.7-3.9,2.3l-0.7-1.1c1.7-0.5,2.9-1.2,3.6-2c0.3-0.5,0.6-1,0.8-1.6h-3.4v-1.2h3.6l0-0.5v-1.2H57.8z M58.8-162.3h5.1v3
			h-1.3v-1.8h-9v1.7h-1.3v-3h5.1c-0.2-0.4-0.3-0.7-0.5-1l1.5-0.2C58.5-163.2,58.6-162.7,58.8-162.3z M57.3-159.7
			c-1.2,1.1-2.6,2-4.3,2.7l-0.6-1.2c1.7-0.6,3-1.4,4.1-2.4L57.3-159.7z M63.6-158.1l-0.7,1.1c-1.3-1.1-2.6-2-4-2.6l0.7-1
			C61-159.9,62.4-159,63.6-158.1z"/>
		<path class="st1" d="M68.5-155.2l-0.8-1.1v5.7h-1.3v-9.1h2.9c-0.2-0.5-0.4-1-0.7-1.4h-2.8v-1.3h5.5c-0.1-0.3-0.3-0.7-0.4-0.9
			l1.5-0.2c0.1,0.3,0.3,0.7,0.4,1.2h5.5v1.3h-2.9c-0.2,0.5-0.4,1-0.7,1.4h3v7.5c0,1.1-0.5,1.6-1.4,1.6h-1.4l-0.3-1.2l1.3,0
			c0.3,0,0.5-0.3,0.5-0.7v-6.1h-8.7v2.2c1.1-0.6,2-1.3,2.8-2.2l0.9,0.8c-0.6,0.7-1.2,1.3-2,1.8h5.4v3.7h-5.5v-3.6
			C69.1-155.6,68.8-155.4,68.5-155.2z M73.3-159.7c0.3-0.5,0.5-1,0.7-1.4h-3.8c0.2,0.4,0.4,0.9,0.6,1.4H73.3z M73.5-154.7h-2.9v1.3
			h2.9V-154.7z M76.4-156.3l-1,1c-0.6-0.8-1.6-1.6-2.7-2.4l0.9-0.9C74.7-157.8,75.7-157,76.4-156.3z"/>
		<path class="st1" d="M81.5-150.5h-1.3V-163H92v12.5h-1.3v-0.5h-9.2V-150.5z M83.5-160.3c-0.1-0.3-0.3-0.6-0.5-0.9l1-0.4
			c0.2,0.4,0.4,0.8,0.6,1.3h0.8c0.1-0.4,0.2-0.9,0.3-1.4l1.2,0.2c-0.1,0.4-0.2,0.8-0.3,1.2h1c0.2-0.4,0.4-0.8,0.5-1.3l1.1,0.3
			c-0.1,0.4-0.2,0.7-0.4,1h1.1v1h-3.6c-0.1,0.3-0.2,0.5-0.3,0.7h4.2v1h-1.6c0.5,0.7,1.2,1.3,2.2,1.8v-6.2h-9.2v9.8h9.2v-3.6
			l-0.7,0.9c-0.8-0.5-1.4-1.1-1.8-1.6v1.2c0,0.6-0.4,0.9-1.1,0.9c-0.4,0-0.8,0-1.2,0l-0.2-0.9c0.4,0,0.7,0.1,1,0.1
			c0.3,0,0.5-0.1,0.5-0.4v-0.4h-2.1v2c0,0.2,0.1,0.3,0.4,0.3h2c0.5,0,0.8-0.1,0.9-0.2c0.1-0.2,0.2-0.4,0.3-0.9l1.1,0.3
			c-0.1,0.8-0.3,1.3-0.5,1.4s-0.7,0.2-1.4,0.2h-2.8c-0.7,0-1.1-0.3-1.1-0.9v-2c-0.4,0.4-0.9,0.7-1.5,1l-0.6-1c1-0.5,1.8-1.1,2.4-1.9
			h-2v-1h2.6c0.1-0.2,0.2-0.5,0.3-0.7h-2.6v-1H83.5z M87.9-156.9c-0.2-0.2-0.3-0.4-0.4-0.7h-2.1c-0.2,0.2-0.3,0.4-0.5,0.7H87.9z"/>
	</g>
</g>
<g id="RectEndPoint40" transform="translate(667.546875,311)">
	<rect x="15.5" y="-179" class="st7" width="137" height="46"/>
	<rect x="13.5" y="-181" class="st8" width="137" height="46"/>
	<g class="st9">
		<path class="st1" d="M51.3-161.4v1.3h-3.3v8.5h-1.5v-8.5h-3.3v-1.3H51.3z"/>
		<path class="st1" d="M59.8-160.7c0.7,0.5,1.2,1.4,1.3,2.5h-1.5c-0.1-0.7-0.4-1.2-0.9-1.5c-0.5-0.3-1.1-0.5-1.9-0.5
			c-1,0-1.7,0.3-2.3,1c-0.6,0.7-0.9,1.6-0.9,2.8c0,1.2,0.3,2.1,0.8,2.7c0.6,0.7,1.5,1,2.7,1c0.5,0,0.9-0.1,1.4-0.2
			c0.4-0.1,0.8-0.3,1.1-0.5v-2.1h-2.7v-1.3h4.3v4.1c-0.5,0.4-1.1,0.7-1.8,0.9c-0.7,0.2-1.5,0.3-2.4,0.3c-1.6,0-2.8-0.5-3.7-1.5
			c-0.8-0.9-1.2-2.1-1.2-3.6c0-1.5,0.4-2.7,1.2-3.6c0.9-1,2-1.5,3.5-1.5C58-161.6,59-161.3,59.8-160.7z"/>
		<path class="st1" d="M64.5-161.4v9.8H63v-9.8H64.5z"/>
		<path class="st1" d="M69.5-157.4l-0.9,0.9c-0.6-0.7-1.4-1.4-2.5-2.1l0.9-0.9C68-158.8,68.8-158.1,69.5-157.4z M69.9-155.2
			c-0.7,1.7-1.4,3.3-2.3,4.9l-1.2-0.5c0.9-1.5,1.7-3.1,2.4-4.7L69.9-155.2z M70-160.6l-0.9,0.9c-0.6-0.7-1.5-1.4-2.6-2.1l0.9-0.9
			C68.4-162,69.3-161.3,70-160.6z M70.2-155.2v-1.2h3.5v-1.4H75v1.4h3.5v1.2h-2.4c0.6,1.1,1.6,2.1,2.9,3l-0.8,1
			c-1.4-1.2-2.4-2.6-3-4.1H75v4.9h-1.3v-4.9h-0.1c-0.7,1.7-1.9,3.1-3.5,4.2l-0.7-1.1c1.5-0.8,2.5-1.9,3.2-3.1H70.2z M78.4-159.7
			h-1.3v-1.5h-5.4v1.6h-1.2v-2.8h7.9V-159.7z M73.9-160c-0.6,1.3-1.5,2.2-2.5,2.9l-1-0.8c1.1-0.6,1.8-1.5,2.3-2.5L73.9-160z
			 M78-157.9l-1.1,0.7c-0.6-0.8-1.3-1.7-2.3-2.7l1-0.6C76.7-159.6,77.5-158.7,78-157.9z"/>
		<path class="st1" d="M82.5-157.4c-0.1,3-0.5,5.4-1.5,7.2l-1-0.9c0.8-1.5,1.2-3.6,1.2-6.3v-4.5h5.3c-0.2-0.3-0.3-0.6-0.5-0.8
			l1.4-0.2c0.2,0.3,0.3,0.7,0.4,1.1h4.7v1.2h-10v1.3h2.1v-0.9h1.3v0.9h3.3v-0.9h1.3v0.9h2.1v1.2h-2.1v2.1h-5.8v-2.1h-2.1V-157.4z
			 M91.3-155.3v1c-0.7,0.8-1.6,1.6-2.6,2.2c1.2,0.4,2.6,0.8,4.1,1l-0.6,1.1c-1.9-0.3-3.4-0.8-4.8-1.4c-1.4,0.6-3,1.1-4.9,1.4
			l-0.6-1.1c1.5-0.2,2.9-0.5,4.1-1c-0.9-0.6-1.6-1.2-2.2-2h-0.9v-1.1H91.3z M87.4-152.8c0.8-0.4,1.5-0.9,2.1-1.4h-4.1
			C86-153.7,86.6-153.2,87.4-152.8z M85.8-157.2h3.3v-1h-3.3V-157.2z"/>
		<path class="st1" d="M97.2-158.8v5.8c0.4-0.3,0.8-0.7,1.2-1.1l0.4,1.4c-0.8,0.8-1.7,1.5-2.7,2.2l-0.5-1.2c0.2-0.2,0.3-0.4,0.3-0.7
			v-5h-2v-1.2H97.2z M98.1-160.7l-0.9,0.9c-0.6-0.6-1.3-1.3-2.3-2l0.9-0.9C96.7-162.1,97.5-161.4,98.1-160.7z M106.4-162.3v1.2h-3.2
			v4.9h3.6v1.2h-3.6v4.8H102v-4.8h-3.6v-1.2h3.6v-4.9h-3.2v-1.2H106.4z M101.1-157l-1.1,0.3c-0.3-1.2-0.6-2.3-1-3.4l1.1-0.4
			C100.5-159.5,100.8-158.3,101.1-157z M106.2-160.3c-0.3,1.3-0.6,2.5-1.1,3.5l-1.1-0.4c0.4-0.9,0.7-2,1-3.4L106.2-160.3z"/>
		<path class="st1" d="M112.1-162.4c-0.3,1.1-0.8,2.1-1.4,3.1v9.1h-1.3v-7.2c-0.4,0.5-0.8,0.9-1.2,1.3l-0.4-1.4
			c1.4-1.6,2.4-3.4,3.1-5.6L112.1-162.4z M115.5-160.2v-2.6h1.3v2.6h3.9v1.2h-3.9v2.6h3.1v6.2h-1.3v-0.5h-4.7v0.5h-1.3v-6.2h3v-2.6
			h-3.7v-1.2H115.5z M118.6-152v-3.2h-4.7v3.2H118.6z"/>
	</g>
</g>
<g class="st9">
	<path class="st10" d="M141.1,113.9l-0.3-1.1c0.3,0,0.6,0.1,0.9,0.1c0.3,0,0.4-0.1,0.4-0.4v-2.5c-0.4,0.2-0.9,0.3-1.3,0.4l-0.3-1.1
		c0.5-0.1,1-0.3,1.6-0.4v-2.5h-1.3v-1.1h1.3V103h1.2v2.2h1v1.1h-1v2c0.3-0.2,0.7-0.3,1-0.5v1.2c-0.3,0.2-0.7,0.3-1,0.5v3.3
		c0,0.8-0.4,1.2-1.2,1.2H141.1z M148.1,106c-0.2,0.6-0.3,1.2-0.5,1.7h4.1v1.1h-1.4c-0.2,1.1-0.6,2.1-1.2,2.8
		c1.1,0.6,1.9,1.1,2.6,1.6l-0.8,0.9c-0.7-0.5-1.5-1.1-2.5-1.7c-0.8,0.7-2.2,1.3-3.9,1.7L144,113c1.4-0.3,2.5-0.7,3.3-1.3
		c-0.7-0.4-1.4-0.8-2.1-1.2c0.3-0.6,0.6-1.2,0.8-1.8h-1.5v-1.1h1.9c0.2-0.6,0.3-1.2,0.5-1.8L148.1,106z M151.3,106.7h-1.1v-1.5h-4.3
		v1.5h-1.1v-2.5h2.6c-0.1-0.4-0.3-0.8-0.5-1.2l1.2-0.2c0.2,0.4,0.3,0.9,0.5,1.4h2.7V106.7z M147.2,108.8c-0.2,0.6-0.4,1.1-0.6,1.5
		c0.6,0.3,1.1,0.5,1.6,0.8c0.5-0.6,0.9-1.4,1.1-2.3H147.2z"/>
	<path class="st10" d="M163.5,108.6v1h-5l-0.3,0.7h4.6v2.7c0,0.7-0.4,1.1-1.2,1.1h-0.9l-0.3-1l0.8,0c0.3,0,0.4-0.2,0.4-0.4v-1.5
		h-1.6v2.7H159v-2.7h-1.5v2.7h-1.1v-2.7h-1.5v2.9h-1.1v-3.8h3.2l0.3-0.7h-4.5v-1H163.5z M162.8,103.3v0.9h-4.1v0.6h4.6v2.6h-1.1
		v-1.7h-3.5v2.5h-1.1v-2.5h-3.5v1.7H153v-2.6h4.6v-0.6h-4.1v-0.9H162.8z M157.1,106.2v0.7h-2.5v-0.7H157.1z M157.1,107.4v0.7h-2.5
		v-0.7H157.1z M161.7,106.2v0.7h-2.5v-0.7H161.7z M161.7,107.4v0.7h-2.5v-0.7H161.7z"/>
	<path class="st10" d="M173.7,106.4v1.1h-3v1.8h3.5v1.1h-3.5v2.2c0.8,0.1,1.8,0.2,3,0.2c0.6,0,1.2,0,1.8-0.1l-0.2,1.1h-1.1
		c-2.5,0-4.3-0.2-5.4-0.7c-0.8-0.4-1.4-0.9-1.9-1.6c-0.5,1-1,1.8-1.7,2.4l-0.7-0.9c1.1-1.2,1.9-2.8,2.3-4.7l1.1,0.2
		c-0.1,0.7-0.3,1.4-0.5,2c0.6,0.9,1.3,1.5,2.1,1.8l0.1,0v-4.8h-3v-1.1H173.7z M175.2,106.8h-1.1v-1.7h-7.8v1.7h-1.1v-2.8h4.5
		c-0.2-0.4-0.4-0.7-0.6-1l1.2-0.2c0.2,0.4,0.3,0.8,0.5,1.2h4.4V106.8z"/>
	<path class="st10" d="M177.4,106.6l-0.9-0.7c0.6-0.6,0.9-1.5,1.1-2.6l1.1,0.2c-0.1,0.3-0.1,0.6-0.2,0.9h1.1V103h1.1v1.4h2.1v1h-2.1
		v1.3h2.5v1.1h-2.5v1h2.3v3.2c0,0.8-0.4,1.2-1.2,1.2h-0.6l-0.3-1.1l0.5,0c0.3,0,0.5-0.1,0.5-0.4v-1.9h-1.2v4.2h-1.1v-4.2h-1.2v3.4
		h-1.1v-4.5h2.3v-1h-2.8v-1.1h2.8v-1.3h-1.4C178,105.9,177.7,106.3,177.4,106.6z M184.9,104.1v7.3h-1.1v-7.3H184.9z M184.3,113.9
		l-0.3-1.1c0.6,0,1.1,0.1,1.6,0.1c0.3,0,0.5-0.2,0.5-0.5V103h1.1v9.7c0,0.8-0.4,1.2-1.2,1.2H184.3z"/>
</g>
<rect x="340.2" y="98.8" class="st11" width="80" height="20"/>
<g class="st9">
	<path class="st10" d="M361.7,107.8v1.1h-10.9v-1.1H361.7z"/>
	<path class="st10" d="M362.6,107c0.5-1.2,0.9-2.6,1.1-4l1.1,0.2c-0.1,0.4-0.2,0.7-0.2,1.1h1.6v1.1h-1.9c-0.1,0.5-0.3,0.9-0.5,1.4
		h2.4v1h-1v1.2h1.1v0.4l0.7-0.3c0.1,0.6,0.3,1.1,0.5,1.6c0.2-0.7,0.3-1.5,0.3-2.4h-1.4v-0.8c0.4-0.8,0.9-1.6,1.2-2.5h-1.2v-1h2.2
		v0.9c-0.4,0.9-0.7,1.7-1.1,2.4h1.1v0.6c0,1.5-0.2,2.7-0.6,3.8c0.3,0.3,0.6,0.5,0.9,0.7c0.5,0.2,1.4,0.4,2.5,0.4c0.7,0,1.4,0,2-0.1
		l-0.2,1.1h-1.2c-1.8,0-3.1-0.2-3.7-0.6c-0.2-0.2-0.5-0.3-0.6-0.5c-0.3,0.5-0.6,0.9-0.9,1.3l-0.8-0.8c0.4-0.4,0.7-0.9,1-1.4
		c-0.4-0.6-0.6-1.3-0.9-2.1v0.2h-1.1v2.4c0.3-0.2,0.7-0.4,1-0.7l0.2,1c-0.6,0.5-1.3,0.8-2.2,1.2l-0.5-0.9c0.2-0.1,0.4-0.3,0.4-0.5
		v-2.4H363v-1h1.3v-1.2h-0.9v-0.2L362.6,107z M371.5,108.1v0.7h1.8v0.9h-1.8v0.8h2.1v0.9h-2.1v1h-1v-1H369v-0.9h1.5v-0.8h-1.2v-0.9
		h1.2v-0.7h-1.1v-0.9h1.1v-0.8H369v-0.9h1.5v-0.8h-1.1v-0.9h1.1V103h1v0.8h1.7v1.7h0.5v0.9h-0.5v1.7H371.5z M371.5,105.6h0.7v-0.8
		h-0.7V105.6z M371.5,107.2h0.7v-0.8h-0.7V107.2z"/>
	<path class="st10" d="M379.4,103.8c-0.6,1-1.1,1.8-1.7,2.4c-0.6,0.6-1.4,1.3-2.4,2.1l-0.6-1c0.8-0.4,1.5-1,2.2-1.8
		c0.6-0.6,1.1-1.4,1.6-2.3L379.4,103.8z M376.6,108.7v-1.1h7.3c0,1.5-0.1,2.8-0.2,3.7c-0.1,0.9-0.3,1.6-0.6,2
		c-0.3,0.4-0.7,0.6-1.3,0.6h-2.3l-0.3-1.1c0.7,0,1.4,0,2,0c0.6,0,1-0.2,1.2-0.8c0.2-0.5,0.3-1.7,0.4-3.4h-2.7
		c-0.3,1.2-0.7,2.2-1.2,3c-0.6,0.9-1.5,1.7-2.8,2.4l-0.7-0.9c1.1-0.6,1.9-1.2,2.5-1.9c0.4-0.6,0.8-1.5,1-2.5H376.6z M385.7,107.3
		l-0.8,0.9c-1.8-1.2-3.1-2.7-3.9-4.6l1-0.6C382.8,104.8,384,106.3,385.7,107.3z"/>
	<path class="st10" d="M389.7,114h-1.1v-5.7c-0.4,1.1-0.9,2.1-1.4,3l-0.5-1.2c0.9-1.1,1.5-2.3,1.9-3.7h-1.6v-1.1h1.7V103h1.1v2.3
		h1.5v1.1h-1.5v0.5c0.6,0.6,1.1,1.2,1.7,1.8l-0.6,0.9c-0.4-0.6-0.8-1.1-1-1.5V114z M397.4,104c-1.3,0.5-2.8,0.7-4.5,0.8v1.9h4.8v1.1
		H396v6.2h-1.2v-6.2h-1.9c-0.1,2.6-0.7,4.6-1.8,6.2l-0.8-0.9c1-1.3,1.5-3,1.6-5.3v-3.9c1.9,0,3.5-0.3,5-0.9L397.4,104z"/>
</g>
<g id="assistantgroup" transform="translate(0,0)">
</g>
</svg>
