<?xml version="1.0" encoding="UTF-8"?>
<svg width="48px" height="48px" viewBox="0 0 48 48" version="1.1" xmlns="http://www.w3.org/2000/svg" xmlns:xlink="http://www.w3.org/1999/xlink">
    <!-- Generator: Sketch 54.1 (76490) - https://sketchapp.com -->
    <title>便捷</title>
    <desc>Created with Sketch.</desc>
    <g id="便捷" stroke="none" stroke-width="1" fill="none" fill-rule="evenodd">
        <g id="1541161234540-48x48" transform="translate(1.000000, 1.000000)">
            <circle id="Oval-7" stroke="#334966" stroke-width="2" cx="23" cy="23" r="23"></circle>
            <path d="M7,23.969258 L9.0044221,23.969258 C9.4938575,30.9042321 15.034284,36.4446585 21.969258,36.934094 L21.969258,38.938516 C13.9292438,38.4427138 7.49580222,32.0092722 7,23.969258 Z M7,21.969258 C7.49580222,13.9292438 13.9292438,7.49580222 21.969258,7 L21.969258,9.0044221 C15.034284,9.4938575 9.4938575,15.034284 9.0044221,21.969258 L7,21.969258 Z M38.938516,21.969258 L36.934094,21.969258 C36.4446585,15.034284 30.9042321,9.4938575 23.969258,9.0044221 L23.969258,7 C32.0092722,7.49580222 38.4427138,13.9292438 38.938516,21.969258 Z M38.938516,23.969258 C38.4427138,32.0092722 32.0092722,38.4427138 23.969258,38.938516 L23.969258,36.934094 C30.9042321,36.4446585 36.4446585,30.9042321 36.934094,23.969258 L38.938516,23.969258 Z" id="Combined-Shape" fill="#334966" fill-rule="nonzero"></path>
            <circle id="Oval-46" fill="#00A4FF" fill-rule="nonzero" cx="23" cy="23" r="8"></circle>
        </g>
    </g>
</svg>