<?xml version="1.0" encoding="UTF-8"?>
<svg width="830px" height="220px" viewBox="0 0 830 220" version="1.1" xmlns="http://www.w3.org/2000/svg" xmlns:xlink="http://www.w3.org/1999/xlink">
    <!-- Generator: Sketch 54.1 (76490) - https://sketchapp.com -->
    <title>查看账号活动</title>
    <desc>Created with Sketch.</desc>
    <defs>
        <linearGradient x1="4.7514258%" y1="11.3244172%" x2="87.8772291%" y2="100%" id="linearGradient-1">
            <stop stop-color="#01D9F1" offset="0%"></stop>
            <stop stop-color="#0780F8" offset="100%"></stop>
        </linearGradient>
        <linearGradient x1="-32.7384058%" y1="-64.3155181%" x2="86.4800347%" y2="100%" id="linearGradient-2">
            <stop stop-color="#CCF3FA" offset="0%"></stop>
            <stop stop-color="#CBDEFE" offset="100%"></stop>
        </linearGradient>
        <linearGradient x1="0.777017192%" y1="50%" x2="100%" y2="50%" id="linearGradient-3">
            <stop stop-color="#00CEE5" offset="0%"></stop>
            <stop stop-color="#05A9F5" offset="100%"></stop>
        </linearGradient>
        <linearGradient x1="-82.9777842%" y1="-57.2162658%" x2="91.0871642%" y2="86.7029148%" id="linearGradient-4">
            <stop stop-color="#02BBF3" offset="0%"></stop>
            <stop stop-color="#0092F0" offset="100%"></stop>
        </linearGradient>
        <linearGradient x1="8.05255544%" y1="50%" x2="100%" y2="83.8024691%" id="linearGradient-5">
            <stop stop-color="#00CEE5" offset="0%"></stop>
            <stop stop-color="#067FF8" offset="100%"></stop>
        </linearGradient>
        <linearGradient x1="-38.100399%" y1="-26.9979933%" x2="100%" y2="82%" id="linearGradient-6">
            <stop stop-color="#CCF3FA" offset="0%"></stop>
            <stop stop-color="#CBDEFE" offset="100%"></stop>
        </linearGradient>
        <linearGradient x1="0.777017192%" y1="50%" x2="100%" y2="50%" id="linearGradient-7">
            <stop stop-color="#00CEE5" offset="0%"></stop>
            <stop stop-color="#058EF4" offset="100%"></stop>
        </linearGradient>
        <linearGradient x1="-32.4699206%" y1="-23.202502%" x2="100%" y2="88.4970847%" id="linearGradient-8">
            <stop stop-color="#00CEE5" offset="0%"></stop>
            <stop stop-color="#0680F8" offset="100%"></stop>
        </linearGradient>
        <linearGradient x1="-72.9057697%" y1="-63.1739772%" x2="100%" y2="88.4970847%" id="linearGradient-9">
            <stop stop-color="#00CEE5" offset="0%"></stop>
            <stop stop-color="#0680F8" offset="100%"></stop>
        </linearGradient>
        <linearGradient x1="14.1486733%" y1="100%" x2="98.2808815%" y2="-21.3039916%" id="linearGradient-10">
            <stop stop-color="#2982DE" offset="0%"></stop>
            <stop stop-color="#00CAE6" offset="100%"></stop>
        </linearGradient>
        <linearGradient x1="109.720665%" y1="-62.9127554%" x2="27.9688469%" y2="110.332392%" id="linearGradient-11">
            <stop stop-color="#CCF2F9" offset="0%"></stop>
            <stop stop-color="#CDDEFF" offset="100%"></stop>
        </linearGradient>
        <linearGradient x1="0.777017192%" y1="50%" x2="100%" y2="50%" id="linearGradient-12">
            <stop stop-color="#00CEE5" offset="0%"></stop>
            <stop stop-color="#058EF4" offset="100%"></stop>
        </linearGradient>
        <linearGradient x1="-63.8455207%" y1="-75.5669394%" x2="100%" y2="152.150207%" id="linearGradient-13">
            <stop stop-color="#00CEE5" offset="0%"></stop>
            <stop stop-color="#0680F8" offset="100%"></stop>
        </linearGradient>
        <linearGradient x1="-74.0948839%" y1="-75.7122683%" x2="112.986093%" y2="194.408746%" id="linearGradient-14">
            <stop stop-color="#00CEE5" offset="0%"></stop>
            <stop stop-color="#0680F8" offset="100%"></stop>
        </linearGradient>
    </defs>
    <g id="查看账号活动" stroke="none" stroke-width="1" fill="none" fill-rule="evenodd">
        <g id="编组" transform="translate(42.000000, 24.000000)">
            <path d="M64.5576462,116.757143 L101.557143,74.3776891 L101.557143,0.5 L0.5,0.5 L0.5,116.757143 L64.5576462,116.757143 Z" id="Rectangle-19" stroke="url(#linearGradient-1)"></path>
            <polygon id="Rectangle-19" fill="url(#linearGradient-2)" points="6.51428571 6.51428571 95.5428571 6.51428571 95.5428571 110.742857 6.51428571 110.742857"></polygon>
            <path d="M0.542857143,17.9142857 L101.514286,17.9142857" id="Line-5" stroke="url(#linearGradient-3)" stroke-linecap="square"></path>
            <rect id="Rectangle-30" fill="#FFFFFF" x="21.7142857" y="29.3142857" width="58.6285714" height="4.34285714"></rect>
            <rect id="Rectangle-30" fill="#FFFFFF" x="21.7142857" y="44.2971429" width="58.6285714" height="4.34285714"></rect>
            <polygon id="Rectangle-30" fill="#FFFFFF" points="21.7142857 74.2628571 65.1428571 74.2628571 65.1428571 78.6057143 21.7142857 78.6057143"></polygon>
            <rect id="Rectangle-30" fill="#FFFFFF" x="21.7142857" y="59.28" width="58.6285714" height="4.34285714"></rect>
            <polygon id="Rectangle-30" fill="#FFFFFF" points="21.7142857 89.2457143 65.1428571 89.2457143 65.1428571 93.5885714 21.7142857 93.5885714"></polygon>
            <g id="Group-4" transform="translate(69.000000, 81.000000)">
                <ellipse id="Oval-8" stroke="url(#linearGradient-4)" stroke-width="2" fill="#FFFFFF" cx="22.382292" cy="22.3036948" rx="21.8965777" ry="21.8751234"></ellipse>
                <rect id="Rectangle-32" fill="#068FF6" x="22.2" y="11.2857143" width="2.17142857" height="13.0285714"></rect>
                <rect id="Rectangle-33" fill="#068FF6" x="22.2" y="23.2285714" width="10.8571429" height="2.17142857"></rect>
                <rect id="Rectangle-34" fill="#01A2F1" x="22.2" y="0.428571429" width="1.08571429" height="5.42857143"></rect>
                <rect id="Rectangle-34" fill="#068EF7" x="22.2" y="38.4285714" width="1.08571429" height="5.42857143"></rect>
                <rect id="Rectangle-34" fill="#068EF7" transform="translate(41.200000, 23.771429) rotate(-90.000000) translate(-41.200000, -23.771429) " x="40.6571429" y="21.0571429" width="1.08571429" height="5.42857143"></rect>
                <rect id="Rectangle-34" fill="#01A3F1" transform="translate(3.200000, 23.771429) rotate(-90.000000) translate(-3.200000, -23.771429) " x="2.65714286" y="21.0571429" width="1.08571429" height="5.42857143"></rect>
            </g>
        </g>
        <path d="M334.913907,91.3443709 L327.311258,95.6887417 L327.311258,87 L334.913907,91.3443709 Z M172,90.2582781 L180.688742,90.2582781 L180.688742,92.4304636 L172,92.4304636 L172,90.2582781 Z M185.033113,90.2582781 L193.721854,90.2582781 L193.721854,92.4304636 L185.033113,92.4304636 L185.033113,90.2582781 Z M198.066225,90.2582781 L206.754967,90.2582781 L206.754967,92.4304636 L198.066225,92.4304636 L198.066225,90.2582781 Z M211.099338,90.2582781 L219.788079,90.2582781 L219.788079,92.4304636 L211.099338,92.4304636 L211.099338,90.2582781 Z M224.13245,90.2582781 L232.821192,90.2582781 L232.821192,92.4304636 L224.13245,92.4304636 L224.13245,90.2582781 Z M237.165563,90.2582781 L245.854305,90.2582781 L245.854305,92.4304636 L237.165563,92.4304636 L237.165563,90.2582781 Z M249.112583,90.2582781 L257.801325,90.2582781 L257.801325,92.4304636 L249.112583,92.4304636 L249.112583,90.2582781 Z M262.145695,90.2582781 L270.834437,90.2582781 L270.834437,92.4304636 L262.145695,92.4304636 L262.145695,90.2582781 Z M275.178808,90.2582781 L283.86755,90.2582781 L283.86755,92.4304636 L275.178808,92.4304636 L275.178808,90.2582781 Z M288.211921,90.2582781 L296.900662,90.2582781 L296.900662,92.4304636 L288.211921,92.4304636 L288.211921,90.2582781 Z M301.245033,90.2582781 L309.933775,90.2582781 L309.933775,92.4304636 L301.245033,92.4304636 L301.245033,90.2582781 Z M314.278146,90.2582781 L322.966887,90.2582781 L322.966887,92.4304636 L314.278146,92.4304636 L314.278146,90.2582781 Z" id="Combined-Shape" fill="#C2C5CA"></path>
        <path d="M657.913907,91.3443709 L650.311258,95.6887417 L650.311258,87 L657.913907,91.3443709 Z M495,90.2582781 L503.688742,90.2582781 L503.688742,92.4304636 L495,92.4304636 L495,90.2582781 Z M508.033113,90.2582781 L516.721854,90.2582781 L516.721854,92.4304636 L508.033113,92.4304636 L508.033113,90.2582781 Z M521.066225,90.2582781 L529.754967,90.2582781 L529.754967,92.4304636 L521.066225,92.4304636 L521.066225,90.2582781 Z M534.099338,90.2582781 L542.788079,90.2582781 L542.788079,92.4304636 L534.099338,92.4304636 L534.099338,90.2582781 Z M547.13245,90.2582781 L555.821192,90.2582781 L555.821192,92.4304636 L547.13245,92.4304636 L547.13245,90.2582781 Z M560.165563,90.2582781 L568.854305,90.2582781 L568.854305,92.4304636 L560.165563,92.4304636 L560.165563,90.2582781 Z M572.112583,90.2582781 L580.801325,90.2582781 L580.801325,92.4304636 L572.112583,92.4304636 L572.112583,90.2582781 Z M585.145695,90.2582781 L593.834437,90.2582781 L593.834437,92.4304636 L585.145695,92.4304636 L585.145695,90.2582781 Z M598.178808,90.2582781 L606.86755,90.2582781 L606.86755,92.4304636 L598.178808,92.4304636 L598.178808,90.2582781 Z M611.211921,90.2582781 L619.900662,90.2582781 L619.900662,92.4304636 L611.211921,92.4304636 L611.211921,90.2582781 Z M624.245033,90.2582781 L632.933775,90.2582781 L632.933775,92.4304636 L624.245033,92.4304636 L624.245033,90.2582781 Z M637.278146,90.2582781 L645.966887,90.2582781 L645.966887,92.4304636 L637.278146,92.4304636 L637.278146,90.2582781 Z" id="Combined-Shape复制" fill="#C2C5CA"></path>
        <path d="M374.248,173.408 L374.248,174.992 L376.856,174.992 L376.856,168.992 L377.928,168.992 L377.928,174.992 L380.52,174.992 L380.52,173.408 L378.84,173.408 L378.84,172.448 L380.52,172.448 L380.52,170.704 L378.76,170.704 L378.76,169.712 L381.56,169.712 L381.56,175.984 L377.928,175.984 L377.928,177.392 L381.512,177.392 L381.512,178.368 C380.936,179.536 379.976,180.528 378.664,181.36 C379.72,181.84 380.952,182.224 382.36,182.512 L381.944,183.584 C380.2,183.216 378.712,182.688 377.48,182.016 C376.136,182.656 374.536,183.2 372.664,183.616 L372.088,182.592 C373.752,182.272 375.192,181.856 376.392,181.344 C375.24,180.528 374.376,179.552 373.768,178.432 L373.096,178.432 L373.096,177.392 L376.856,177.392 L376.856,175.984 L373.192,175.984 L373.192,170.208 C374.024,169.984 374.824,169.648 375.576,169.2 L376.232,170.048 C375.688,170.336 375.016,170.624 374.248,170.912 L374.248,172.448 L375.992,172.448 L375.992,173.408 L374.248,173.408 Z M374.952,178.432 C375.576,179.344 376.44,180.128 377.544,180.784 C378.744,180.112 379.656,179.328 380.264,178.432 L374.952,178.432 Z M369.64,183.456 L368.136,183.456 L367.896,182.368 C368.376,182.416 368.824,182.448 369.24,182.448 C369.624,182.448 369.832,182.224 369.832,181.792 L369.832,177.904 C369.224,178.128 368.632,178.336 368.024,178.528 L367.768,177.44 C368.472,177.248 369.16,177.04 369.832,176.784 L369.832,173.104 L368.056,173.104 L368.056,172 L369.832,172 L369.832,169.008 L370.952,169.008 L370.952,172 L372.44,172 L372.44,173.104 L370.952,173.104 L370.952,176.336 C371.496,176.096 372.04,175.824 372.568,175.536 L372.568,176.656 C372.04,176.928 371.496,177.184 370.952,177.44 L370.952,182.08 C370.952,182.992 370.504,183.456 369.64,183.456 Z M385.016,170.192 L390.408,170.192 L390.408,168.928 L391.592,168.928 L391.592,170.192 L396.984,170.192 L396.984,171.248 L391.592,171.248 L391.592,172.64 L397.64,172.64 L397.64,175.568 L396.52,175.568 L396.52,173.648 L390.408,173.648 L391.288,174.08 C390.328,174.848 389.336,175.504 388.296,176.064 C389.768,176.032 390.968,176 391.864,175.936 C392.424,175.552 393,175.152 393.576,174.736 L394.504,175.36 C392.616,176.768 390.6,177.84 388.424,178.608 C390.504,178.544 392.568,178.432 394.648,178.288 C394.296,177.904 393.928,177.536 393.544,177.152 L394.376,176.624 C395.544,177.76 396.44,178.752 397.064,179.616 L396.2,180.24 C395.944,179.856 395.656,179.472 395.336,179.088 C394.04,179.168 392.824,179.248 391.672,179.312 L391.672,182.368 C391.672,183.168 391.224,183.584 390.36,183.584 L388.904,183.584 L388.664,182.512 C389.112,182.56 389.56,182.592 389.976,182.592 C390.328,182.592 390.52,182.416 390.52,182.096 L390.52,179.36 C388.76,179.44 387.144,179.504 385.672,179.536 L385.448,178.496 C385.784,178.512 386.12,178.528 386.44,178.528 C387.752,178.16 389.096,177.584 390.504,176.784 C389.416,176.816 388.184,176.864 386.792,176.896 L386.568,176.016 C386.808,175.968 387.048,175.872 387.288,175.744 C388.328,175.152 389.32,174.448 390.248,173.648 L385.48,173.648 L385.48,175.552 L384.36,175.552 L384.36,172.64 L390.408,172.64 L390.408,171.248 L385.016,171.248 L385.016,170.192 Z M393.368,180.16 C395.032,180.768 396.536,181.504 397.896,182.368 L397.304,183.296 C395.832,182.336 394.328,181.568 392.792,181.008 L393.368,180.16 Z M388.328,180.128 L389,180.88 C387.8,181.84 386.296,182.624 384.488,183.248 L384.008,182.224 C385.752,181.696 387.192,180.992 388.328,180.128 Z M407.336,179.264 L404.456,179.264 L404.456,178.224 L408.648,178.224 L408.648,177.264 L409.752,177.264 L409.752,178.224 L413.944,178.224 L413.944,179.264 L411,179.264 C411.704,180.32 412.84,181.248 414.408,182.08 L413.656,183.008 C411.96,181.888 410.744,180.64 410.04,179.264 L409.752,179.264 L409.752,183.552 L408.648,183.552 L408.648,179.264 L408.328,179.264 C407.544,180.784 406.296,182.048 404.568,183.056 L403.976,182.064 C405.496,181.328 406.616,180.384 407.336,179.264 Z M404.36,175.552 L404.36,176.688 C403.848,176.96 403.336,177.216 402.824,177.44 L402.824,182.144 C402.824,183.008 402.376,183.456 401.496,183.456 L400.216,183.456 L399.976,182.352 C400.36,182.4 400.744,182.432 401.096,182.432 C401.48,182.432 401.672,182.24 401.672,181.856 L401.672,177.92 C401.128,178.144 400.568,178.336 400.008,178.512 L399.736,177.36 C400.408,177.2 401.048,177.008 401.672,176.784 L401.672,173.104 L399.88,173.104 L399.88,172 L401.672,172 L401.672,168.992 L402.824,168.992 L402.824,172 L404.504,172 L404.504,173.104 L402.824,173.104 L402.824,176.32 C403.336,176.08 403.848,175.824 404.36,175.552 Z M406.136,169.504 L412.264,169.504 L412.264,172.768 L406.136,172.768 L406.136,169.504 Z M411.208,171.856 L411.208,170.416 L407.176,170.416 L407.176,171.856 L411.208,171.856 Z M404.824,173.728 L408.728,173.728 L408.728,176.896 L404.824,176.896 L404.824,173.728 Z M407.784,176.064 L407.784,174.56 L405.784,174.56 L405.784,176.064 L407.784,176.064 Z M409.672,173.728 L413.608,173.728 L413.608,176.896 L409.672,176.896 L409.672,173.728 Z M412.664,176.064 L412.664,174.56 L410.616,174.56 L410.616,176.064 L412.664,176.064 Z M422.744,172.32 C422.008,173.872 421.16,175.216 420.2,176.368 L419.384,175.392 C420.792,173.728 421.96,171.536 422.856,168.832 L424.008,169.088 C423.752,169.824 423.496,170.528 423.24,171.184 L430.152,171.184 L430.152,172.32 L424.776,172.32 L424.776,174.96 L429.448,174.96 L429.448,176.08 L424.776,176.08 L424.776,178.784 L429.544,178.784 L429.544,179.888 L424.776,179.888 L424.776,183.616 L423.608,183.616 L423.608,172.32 L422.744,172.32 Z M417.624,174.624 C417.112,175.296 416.552,175.936 415.944,176.544 L415.56,175.328 C417.288,173.456 418.552,171.312 419.336,168.88 L420.424,169.392 C419.992,170.64 419.448,171.808 418.808,172.896 L418.808,183.616 L417.624,183.616 L417.624,174.624 Z M446.456,179.152 C446.312,180.784 446.088,181.856 445.784,182.352 C445.48,182.832 444.872,183.088 443.976,183.088 L439.832,183.088 C438.84,183.088 438.344,182.576 438.344,181.552 L438.344,174.56 L444.04,174.56 L444.04,170.832 L437.576,170.832 L437.576,169.712 L445.144,169.712 L445.144,175.664 L439.464,175.664 L439.464,181.136 C439.464,181.68 439.736,181.968 440.28,181.984 L443.768,181.984 C444.392,181.984 444.792,181.76 444.968,181.328 C445.128,180.896 445.24,180.048 445.32,178.768 L446.456,179.152 Z M433.592,169.088 C434.68,169.904 435.592,170.72 436.328,171.552 L435.544,172.352 C434.872,171.568 433.944,170.736 432.792,169.872 L433.592,169.088 Z M431.72,173.824 L435.176,173.824 L435.176,181.024 C435.8,180.544 436.472,179.968 437.176,179.328 L437.464,180.544 C436.44,181.472 435.336,182.288 434.184,183.024 L433.736,181.984 C433.96,181.792 434.072,181.568 434.072,181.312 L434.072,174.928 L431.72,174.928 L431.72,173.824 Z M449.752,169.536 L458.984,169.536 L458.984,174.736 L461.864,174.736 L461.864,175.776 L455.48,175.776 L455.48,177.6 C455.864,178.048 456.264,178.464 456.712,178.864 C457.848,178.224 458.84,177.312 459.672,176.128 L460.552,176.864 C459.656,178.016 458.648,178.896 457.496,179.504 C458.744,180.48 460.216,181.344 461.912,182.08 L461.336,183.104 C458.872,181.952 456.92,180.544 455.48,178.88 L455.48,182.176 C455.48,183.136 455.048,183.616 454.216,183.616 L452.376,183.616 L452.136,182.528 C452.728,182.576 453.288,182.608 453.832,182.608 C454.152,182.608 454.328,182.368 454.328,181.904 L454.328,178.976 C452.68,180.48 450.712,181.824 448.44,183.04 L447.976,181.968 C450.44,180.8 452.552,179.408 454.328,177.776 L454.328,175.776 L448.152,175.776 L448.152,174.736 L457.816,174.736 L457.816,173.184 L450.296,173.184 L450.296,172.176 L457.816,172.176 L457.816,170.576 L449.752,170.576 L449.752,169.536 Z M449.88,176.384 C450.856,177.056 451.672,177.744 452.328,178.416 L451.592,179.168 C450.984,178.528 450.168,177.84 449.112,177.12 L449.88,176.384 Z" id="搜索操作记录" fill="#313131" fill-rule="nonzero"></path>
        <path d="M691.248,174.928 L700.816,174.928 L700.816,180.816 L691.248,180.816 L691.248,174.928 Z M699.696,179.792 L699.696,178.384 L692.368,178.384 L692.368,179.792 L699.696,179.792 Z M692.368,177.408 L699.696,177.408 L699.696,175.952 L692.368,175.952 L692.368,177.408 Z M689.456,170.368 L695.472,170.368 L695.472,168.896 L696.592,168.896 L696.592,170.368 L702.608,170.368 L702.608,171.424 L697.696,171.424 C698.896,172.592 700.752,173.52 703.28,174.192 L702.784,175.232 C699.904,174.256 697.872,172.992 696.688,171.424 L696.592,171.424 L696.592,174.416 L695.472,174.416 L695.472,171.424 L695.376,171.424 C694.128,172.96 692.096,174.24 689.296,175.248 L688.688,174.224 C691.248,173.488 693.152,172.544 694.4,171.424 L689.456,171.424 L689.456,170.368 Z M689.136,182.064 L702.88,182.064 L702.88,183.136 L689.136,183.136 L689.136,182.064 Z M705.952,171.872 L711.024,171.872 C711.2,171.488 711.36,171.088 711.52,170.704 C709.952,170.8 708.256,170.848 706.432,170.848 L706.096,169.888 C710.64,169.888 714.4,169.584 717.392,168.976 L717.92,169.888 C716.4,170.224 714.64,170.464 712.624,170.624 C712.48,171.056 712.32,171.472 712.16,171.872 L718.112,171.872 L718.112,172.864 L711.696,172.864 C711.504,173.248 711.296,173.6 711.088,173.952 L719.04,173.952 L719.04,174.976 L710.384,174.976 C710.096,175.36 709.808,175.728 709.504,176.08 L717.44,176.08 L717.44,183.616 L716.336,183.616 L716.336,182.928 L709.104,182.928 L709.104,183.616 L708,183.616 L708,177.616 C707.184,178.352 706.288,179.072 705.296,179.744 L704.672,178.752 C706.416,177.568 707.856,176.32 708.992,174.976 L705.088,174.976 L705.088,173.952 L709.792,173.952 C710.048,173.584 710.288,173.216 710.496,172.864 L705.952,172.864 L705.952,171.872 Z M709.104,178.992 L709.104,180 L716.336,180 L716.336,178.992 L709.104,178.992 Z M716.336,178.096 L716.336,177.024 L709.104,177.024 L709.104,178.096 L716.336,178.096 Z M709.104,180.896 L709.104,181.984 L716.336,181.984 L716.336,180.896 L709.104,180.896 Z M735.456,179.152 C735.312,180.784 735.088,181.856 734.784,182.352 C734.48,182.832 733.872,183.088 732.976,183.088 L728.832,183.088 C727.84,183.088 727.344,182.576 727.344,181.552 L727.344,174.56 L733.04,174.56 L733.04,170.832 L726.576,170.832 L726.576,169.712 L734.144,169.712 L734.144,175.664 L728.464,175.664 L728.464,181.136 C728.464,181.68 728.736,181.968 729.28,181.984 L732.768,181.984 C733.392,181.984 733.792,181.76 733.968,181.328 C734.128,180.896 734.24,180.048 734.32,178.768 L735.456,179.152 Z M722.592,169.088 C723.68,169.904 724.592,170.72 725.328,171.552 L724.544,172.352 C723.872,171.568 722.944,170.736 721.792,169.872 L722.592,169.088 Z M720.72,173.824 L724.176,173.824 L724.176,181.024 C724.8,180.544 725.472,179.968 726.176,179.328 L726.464,180.544 C725.44,181.472 724.336,182.288 723.184,183.024 L722.736,181.984 C722.96,181.792 723.072,181.568 723.072,181.312 L723.072,174.928 L720.72,174.928 L720.72,173.824 Z M738.752,169.536 L747.984,169.536 L747.984,174.736 L750.864,174.736 L750.864,175.776 L744.48,175.776 L744.48,177.6 C744.864,178.048 745.264,178.464 745.712,178.864 C746.848,178.224 747.84,177.312 748.672,176.128 L749.552,176.864 C748.656,178.016 747.648,178.896 746.496,179.504 C747.744,180.48 749.216,181.344 750.912,182.08 L750.336,183.104 C747.872,181.952 745.92,180.544 744.48,178.88 L744.48,182.176 C744.48,183.136 744.048,183.616 743.216,183.616 L741.376,183.616 L741.136,182.528 C741.728,182.576 742.288,182.608 742.832,182.608 C743.152,182.608 743.328,182.368 743.328,181.904 L743.328,178.976 C741.68,180.48 739.712,181.824 737.44,183.04 L736.976,181.968 C739.44,180.8 741.552,179.408 743.328,177.776 L743.328,175.776 L737.152,175.776 L737.152,174.736 L746.816,174.736 L746.816,173.184 L739.296,173.184 L739.296,172.176 L746.816,172.176 L746.816,170.576 L738.752,170.576 L738.752,169.536 Z M738.88,176.384 C739.856,177.056 740.672,177.744 741.328,178.416 L740.592,179.168 C739.984,178.528 739.168,177.84 738.112,177.12 L738.88,176.384 Z M762.016,173.008 L758.288,173.008 L758.288,171.92 L763.376,171.92 C763.904,170.96 764.368,169.936 764.768,168.848 L765.872,169.232 C765.472,170.224 765.024,171.12 764.512,171.92 L766.944,171.92 L766.944,173.008 L763.168,173.008 L763.168,175.328 L766.464,175.328 L766.464,176.416 L763.168,176.416 L763.168,178.832 L767.312,178.832 L767.312,179.936 L763.168,179.936 L763.168,183.584 L762.016,183.584 L762.016,179.936 L757.936,179.936 L757.936,178.832 L762.016,178.832 L762.016,176.416 L758.752,176.416 L758.752,175.328 L762.016,175.328 L762.016,173.008 Z M760.176,168.912 C760.72,169.68 761.248,170.512 761.744,171.408 L760.8,171.888 C760.304,170.96 759.776,170.112 759.2,169.376 L760.176,168.912 Z M754.624,169.152 C755.648,169.952 756.496,170.736 757.184,171.536 L756.416,172.336 C755.792,171.568 754.928,170.768 753.824,169.904 L754.624,169.152 Z M752.672,173.824 L756.048,173.824 L756.048,180.688 C756.448,180.272 756.864,179.808 757.312,179.296 L757.616,180.464 C756.784,181.408 755.904,182.256 754.992,183.024 L754.56,182.016 C754.8,181.792 754.928,181.552 754.928,181.28 L754.928,174.928 L752.672,174.928 L752.672,173.824 Z M776,178.992 L776,180.112 L781.072,180.112 L781.072,178.992 L776,178.992 Z M781.072,178.096 L781.072,176.912 L776,176.912 L776,178.096 L781.072,178.096 Z M776,180.992 L776,183.568 L774.912,183.568 L774.912,175.952 L782.176,175.952 L782.176,182.176 C782.176,183.04 781.728,183.488 780.848,183.488 L779.6,183.488 L779.312,182.464 L780.512,182.528 C780.88,182.528 781.072,182.32 781.072,181.936 L781.072,180.992 L776,180.992 Z M778.016,168.928 L779.168,168.928 L779.168,169.952 L782.88,169.952 L782.88,170.896 L779.168,170.896 L779.168,172 L782.352,172 L782.352,172.928 L779.168,172.928 L779.168,174 L783.344,174 L783.344,174.96 L773.776,174.96 L773.776,174.656 L773.056,174.832 C772.8,173.824 772.464,172.848 772.064,171.92 L772.896,171.664 C773.216,172.384 773.52,173.2 773.776,174.112 L773.776,174 L778.016,174 L778.016,172.928 L774.8,172.928 L774.8,172 L778.016,172 L778.016,170.896 L774.256,170.896 L774.256,169.952 L778.016,169.952 L778.016,168.928 Z M769.12,172.016 L770.016,172.08 C769.984,173.696 769.792,175.216 769.472,176.656 L768.592,176.416 C768.912,175.024 769.088,173.552 769.12,172.016 Z M770.752,168.976 L771.872,168.976 L771.872,183.536 L770.752,183.536 L770.752,168.976 Z" id="查看记录详情" fill="#313131" fill-rule="nonzero"></path>
        <path d="M61.456,179.152 C61.312,180.784 61.088,181.856 60.784,182.352 C60.48,182.832 59.872,183.088 58.976,183.088 L54.832,183.088 C53.84,183.088 53.344,182.576 53.344,181.552 L53.344,174.56 L59.04,174.56 L59.04,170.832 L52.576,170.832 L52.576,169.712 L60.144,169.712 L60.144,175.664 L54.464,175.664 L54.464,181.136 C54.464,181.68 54.736,181.968 55.28,181.984 L58.768,181.984 C59.392,181.984 59.792,181.76 59.968,181.328 C60.128,180.896 60.24,180.048 60.32,178.768 L61.456,179.152 Z M48.592,169.088 C49.68,169.904 50.592,170.72 51.328,171.552 L50.544,172.352 C49.872,171.568 48.944,170.736 47.792,169.872 L48.592,169.088 Z M46.72,173.824 L50.176,173.824 L50.176,181.024 C50.8,180.544 51.472,179.968 52.176,179.328 L52.464,180.544 C51.44,181.472 50.336,182.288 49.184,183.024 L48.736,181.984 C48.96,181.792 49.072,181.568 49.072,181.312 L49.072,174.928 L46.72,174.928 L46.72,173.824 Z M64.752,169.536 L73.984,169.536 L73.984,174.736 L76.864,174.736 L76.864,175.776 L70.48,175.776 L70.48,177.6 C70.864,178.048 71.264,178.464 71.712,178.864 C72.848,178.224 73.84,177.312 74.672,176.128 L75.552,176.864 C74.656,178.016 73.648,178.896 72.496,179.504 C73.744,180.48 75.216,181.344 76.912,182.08 L76.336,183.104 C73.872,181.952 71.92,180.544 70.48,178.88 L70.48,182.176 C70.48,183.136 70.048,183.616 69.216,183.616 L67.376,183.616 L67.136,182.528 C67.728,182.576 68.288,182.608 68.832,182.608 C69.152,182.608 69.328,182.368 69.328,181.904 L69.328,178.976 C67.68,180.48 65.712,181.824 63.44,183.04 L62.976,181.968 C65.44,180.8 67.552,179.408 69.328,177.776 L69.328,175.776 L63.152,175.776 L63.152,174.736 L72.816,174.736 L72.816,173.184 L65.296,173.184 L65.296,172.176 L72.816,172.176 L72.816,170.576 L64.752,170.576 L64.752,169.536 Z M64.88,176.384 C65.856,177.056 66.672,177.744 67.328,178.416 L66.592,179.168 C65.984,178.528 65.168,177.84 64.112,177.12 L64.88,176.384 Z M86.336,179.264 L83.456,179.264 L83.456,178.224 L87.648,178.224 L87.648,177.264 L88.752,177.264 L88.752,178.224 L92.944,178.224 L92.944,179.264 L90,179.264 C90.704,180.32 91.84,181.248 93.408,182.08 L92.656,183.008 C90.96,181.888 89.744,180.64 89.04,179.264 L88.752,179.264 L88.752,183.552 L87.648,183.552 L87.648,179.264 L87.328,179.264 C86.544,180.784 85.296,182.048 83.568,183.056 L82.976,182.064 C84.496,181.328 85.616,180.384 86.336,179.264 Z M83.36,175.552 L83.36,176.688 C82.848,176.96 82.336,177.216 81.824,177.44 L81.824,182.144 C81.824,183.008 81.376,183.456 80.496,183.456 L79.216,183.456 L78.976,182.352 C79.36,182.4 79.744,182.432 80.096,182.432 C80.48,182.432 80.672,182.24 80.672,181.856 L80.672,177.92 C80.128,178.144 79.568,178.336 79.008,178.512 L78.736,177.36 C79.408,177.2 80.048,177.008 80.672,176.784 L80.672,173.104 L78.88,173.104 L78.88,172 L80.672,172 L80.672,168.992 L81.824,168.992 L81.824,172 L83.504,172 L83.504,173.104 L81.824,173.104 L81.824,176.32 C82.336,176.08 82.848,175.824 83.36,175.552 Z M85.136,169.504 L91.264,169.504 L91.264,172.768 L85.136,172.768 L85.136,169.504 Z M90.208,171.856 L90.208,170.416 L86.176,170.416 L86.176,171.856 L90.208,171.856 Z M83.824,173.728 L87.728,173.728 L87.728,176.896 L83.824,176.896 L83.824,173.728 Z M86.784,176.064 L86.784,174.56 L84.784,174.56 L84.784,176.064 L86.784,176.064 Z M88.672,173.728 L92.608,173.728 L92.608,176.896 L88.672,176.896 L88.672,173.728 Z M91.664,176.064 L91.664,174.56 L89.616,174.56 L89.616,176.064 L91.664,176.064 Z M101.744,172.32 C101.008,173.872 100.16,175.216 99.2,176.368 L98.384,175.392 C99.792,173.728 100.96,171.536 101.856,168.832 L103.008,169.088 C102.752,169.824 102.496,170.528 102.24,171.184 L109.152,171.184 L109.152,172.32 L103.776,172.32 L103.776,174.96 L108.448,174.96 L108.448,176.08 L103.776,176.08 L103.776,178.784 L108.544,178.784 L108.544,179.888 L103.776,179.888 L103.776,183.616 L102.608,183.616 L102.608,172.32 L101.744,172.32 Z M96.624,174.624 C96.112,175.296 95.552,175.936 94.944,176.544 L94.56,175.328 C96.288,173.456 97.552,171.312 98.336,168.88 L99.424,169.392 C98.992,170.64 98.448,171.808 97.808,172.896 L97.808,183.616 L96.624,183.616 L96.624,174.624 Z M123.104,169.568 L123.104,183.52 L121.936,183.52 L121.936,182.304 L114.368,182.304 L114.368,183.536 L113.216,183.536 L113.216,169.568 L123.104,169.568 Z M114.368,181.184 L121.936,181.184 L121.936,176.368 L114.368,176.368 L114.368,181.184 Z M114.368,175.248 L121.936,175.248 L121.936,170.688 L114.368,170.688 L114.368,175.248 Z M133.408,168.896 L134.592,168.896 L134.592,170.992 L140.832,170.992 L140.832,172.112 L134.592,172.112 L134.592,174.576 L139.792,174.576 L139.792,175.68 L128.24,175.68 L128.24,174.576 L133.408,174.576 L133.408,172.112 L127.152,172.112 L127.152,170.992 L133.408,170.992 L133.408,168.896 Z M128.256,177.616 L129.392,177.856 C129.024,179.712 128.512,181.296 127.84,182.64 L126.848,182.032 C127.504,180.688 127.968,179.216 128.256,177.616 Z M139.232,177.2 C140,178.608 140.688,180.096 141.264,181.696 L140.208,182.16 C139.584,180.416 138.896,178.88 138.16,177.552 L139.232,177.2 Z M136.224,183.264 L132.176,183.264 C131.12,183.264 130.608,182.688 130.608,181.536 L130.608,177.104 L131.792,177.104 L131.792,181.312 C131.792,181.856 132.032,182.144 132.544,182.144 L136.016,182.144 C136.384,182.144 136.64,182.032 136.8,181.808 C137.024,181.552 137.168,180.752 137.232,179.44 L138.32,179.808 C138.192,181.44 137.968,182.448 137.632,182.8 C137.344,183.104 136.864,183.264 136.224,183.264 Z M134.336,176.752 C134.88,177.728 135.36,178.768 135.776,179.888 L134.72,180.352 C134.272,179.136 133.792,178.048 133.248,177.12 L134.336,176.752 Z" id="记录操作日志" fill="#313131" fill-rule="nonzero"></path>
        <g id="Group-15" transform="translate(351.000000, 33.000000)">
            <path d="M0.5,0.5 L0.5,104.215713 L126.856948,104.215713 L126.856948,0.5 L0.5,0.5 Z" id="Rectangle-16" stroke="url(#linearGradient-5)"></path>
            <polygon id="Rectangle-19" fill="url(#linearGradient-6)" points="5.78895219 5.78895219 121.857439 5.78895219 121.857439 98.6437418 5.78895219 98.6437418"></polygon>
            <path d="M1.73668566,15.6301709 L126.778053,15.6301709" id="Line-5" stroke="url(#linearGradient-7)" stroke-linecap="square"></path>
            <polygon id="Rectangle-24" fill="#FFFFFF" points="17.3668566 27.7869705 109.990092 27.7869705 109.990092 32.4181323 17.3668566 32.4181323"></polygon>
            <polygon id="Rectangle-24" fill="#FFFFFF" points="17.3668566 39.3648749 109.990092 39.3648749 109.990092 43.9960367 17.3668566 43.9960367"></polygon>
            <polygon id="Rectangle-24" fill="#FFFFFF" points="17.3668566 62.5206837 109.990092 62.5206837 109.990092 67.1518454 17.3668566 67.1518454"></polygon>
            <polygon id="Rectangle-24" fill="#FFFFFF" points="17.3668566 74.0985881 109.990092 74.0985881 109.990092 78.7297498 17.3668566 78.7297498"></polygon>
            <circle id="Oval-13" stroke="url(#linearGradient-8)" stroke-width="2" fill="#FFFFFF" cx="80.4664355" cy="63.0995789" r="19.1035422"></circle>
            <path d="M91.4654446,61.9417885 C91.4654446,54.5883434 85.5042996,48.6271984 78.1508546,48.6271984" id="Oval-13" stroke="url(#linearGradient-9)" stroke-width="2" fill="#FFFFFF" transform="translate(84.808150, 55.284493) rotate(-15.000000) translate(-84.808150, -55.284493) "></path>
            <polyline id="Rectangle-25" stroke="#058EF4" stroke-width="2" fill="#FFFFFF" transform="translate(98.487473, 80.992025) rotate(-46.000000) translate(-98.487473, -80.992025) " points="100.803054 73.466387 100.803054 88.5176627 96.1718922 88.5176627 96.1718922 73.466387 96.1718922 73.466387"></polyline>
        </g>
        <g id="业务资产组件清点" transform="translate(674.000000, 31.000000)">
            <path d="M10.5,-8.5 L10.5,114.5 L114.5,114.5 L114.5,-8.5 L10.5,-8.5 Z" id="Rectangle-2" stroke="url(#linearGradient-10)" transform="translate(62.500000, 53.000000) rotate(-90.000000) translate(-62.500000, -53.000000) "></path>
            <polygon id="Rectangle-2" fill="url(#linearGradient-11)" transform="translate(63.000000, 60.000000) rotate(-90.000000) translate(-63.000000, -60.000000) " points="23 4 103 4 103 116 23 116"></polygon>
            <rect id="Rectangle-8" fill="#FFFFFF" x="18" y="30" width="3" height="3"></rect>
            <rect id="Rectangle-8" fill="#FFFFFF" x="25" y="30" width="3" height="3"></rect>
            <rect id="Rectangle-8" fill="#FFFFFF" x="18" y="38" width="90" height="3"></rect>
            <rect id="Rectangle-8" fill="#FFFFFF" x="18" y="45" width="90" height="3"></rect>
            <rect id="Rectangle-8" fill="#FFFFFF" x="18" y="68" width="3" height="3"></rect>
            <rect id="Rectangle-8" fill="#FFFFFF" x="25" y="68" width="3" height="3"></rect>
            <polygon id="Rectangle-8" fill="#FFFFFF" points="18 76 55 76 55 79 18 79"></polygon>
            <polygon id="Rectangle-8" fill="#FFFFFF" points="18 83 55 83 55 86 18 86"></polygon>
            <rect id="Rectangle-8" fill="#FFFFFF" x="18" y="53" width="22" height="3"></rect>
            <path d="M2,15 L124,15" id="Line-5" stroke="url(#linearGradient-12)" stroke-linecap="square"></path>
            <rect id="Rectangle-36" fill="#23BDF0" x="9" y="7" width="4" height="4"></rect>
            <rect id="Rectangle-36" fill="#23BDF0" x="17" y="7" width="4" height="4"></rect>
            <polygon id="Rectangle-36" fill="#23BDF0" points="24 7 28 7 28 11 24 11"></polygon>
            <g id="Group-2" transform="translate(58.000000, 41.000000)" fill="#FFFFFF" stroke-width="2">
                <ellipse id="Oval-13" stroke="url(#linearGradient-13)" cx="20.7045322" cy="20.2731878" rx="20.7045322" ry="20.2731878"></ellipse>
                <path d="M32.6528334,19.0921583 C32.6113245,11.2773643 26.125967,4.90857251 18.167382,4.86706362" id="Oval-13" stroke="url(#linearGradient-14)" transform="translate(25.410108, 11.979611) rotate(-15.000000) translate(-25.410108, -11.979611) "></path>
                <polyline id="Rectangle-25" stroke="#058EF4" transform="translate(40.235840, 39.261128) rotate(-46.000000) translate(-40.235840, -39.261128) " points="42.6335154 31.2129199 42.8033354 47.3615884 37.8381637 47.3093361 37.6683437 31.1606676 37.6683437 31.1606676"></polyline>
            </g>
        </g>
    </g>
</svg>