<?xml version="1.0" encoding="utf-8"?>
<!-- Generator: Adobe Illustrator 21.0.2, SVG Export Plug-In . SVG Version: 6.00 Build 0)  -->
<svg version="1.1" id="图层_1" xmlns="http://www.w3.org/2000/svg" xmlns:xlink="http://www.w3.org/1999/xlink" x="0px" y="0px"
	 width="830px" height="508.5px" viewBox="0 0 830 508.5" style="enable-background:new 0 0 830 508.5;" xml:space="preserve">
<style type="text/css">
	.st0{opacity:0.6;}
	.st1{fill:#BBBBBB;}
	.st2{fill:#FFFFFF;}
	.st3{fill:#E5E5E5;}
	.st4{fill:#878787;}
	.st5{fill:none;stroke:#878787;stroke-miterlimit:10;}
	.st6{fill:#00A4FF;}
	.st7{fill:#444444;}
	.st8{enable-background:new    ;}
	.st9{fill:#BABABA;}
</style>
<title>云联网</title>
<g class="st0">
	<rect x="314.5" y="14.5" class="st1" width="202.5" height="50"/>
</g>
<rect x="312.8" y="13" class="st2" width="201.5" height="49"/>
<path class="st3" d="M514,13.5v48H313.5v-48L514,13.5 M515,12.5H312.5v50H515V12.5z"/>
<g>
	<polygon class="st4" points="127.7,152.9 132.7,157.9 137.7,152.9 	"/>
	<line class="st5" x1="132.7" y1="152.9" x2="132.7" y2="95"/>
</g>
<g>
	<polygon class="st4" points="661,150.9 666,155.9 671,150.9 	"/>
	<line class="st5" x1="666" y1="150.9" x2="666" y2="94.3"/>
</g>
<g>
	<line class="st5" x1="232.3" y1="186" x2="280.8" y2="186"/>
</g>
<g>
	<line class="st5" x1="232.3" y1="326.2" x2="285.3" y2="326.2"/>
</g>
<line class="st5" x1="414.5" y1="105.5" x2="414.5" y2="64.5"/>
<g class="st0">
	<rect x="364.6" y="229.5" class="st1" width="103.5" height="50"/>
</g>
<rect x="363.1" y="228" class="st2" width="102.5" height="49"/>
<path class="st3" d="M465.1,228.5v48H363.6v-48H465.1 M466.1,227.5H362.6v50h103.5V227.5z"/>
<rect x="375.1" y="236.5" class="st2" width="32" height="32"/>
<path class="st6" d="M389.7,265.3c-7.2,0-13-5.8-13-13c0-7.2,5.8-13,13-13c6.4,0,11.9,4.7,12.9,11h2c-1.1-8.2-8.7-14-16.9-12.9
	c-8.2,1.1-14,8.7-12.9,16.9c1.1,8.2,8.7,14,16.9,12.9c6.7-0.9,12-6.2,12.9-12.9h-2C401.6,260.6,396.1,265.3,389.7,265.3z"/>
<path class="st6" d="M398.7,254.9c-0.8-0.8-2-0.8-2.8,0s-0.8,2,0,2.8l0,0l0.1,0.1c-0.1,0.2-0.1,0.4-0.3,0.6
	c-0.7,0.7-2.3,0.5-4.3-0.5c0.7-0.5,1.4-1.1,2-1.8c0.3-0.3,0.6-0.6,0.8-0.9l0,0l0.2-0.2c0.2-0.3,0.5-0.6,0.7-0.9l0,0
	c0.5-0.6,0.9-1.2,1.3-1.9l0,0c1.8-3.1,2.2-6,0.6-7.5c-0.7-0.7-1.7-1-2.6-1c-1.7,0.1-3.4,0.7-4.9,1.6c-3.1-1.9-6-2.2-7.5-0.6
	c-0.8,0.9-1.1,2-0.9,3.2c-0.5,0.6-0.4,1.5,0.2,2c0.1,0.1,0.2,0.2,0.3,0.2l0,0c0.7,0.4,1.6,0,2-0.7c0.3-0.6,0.1-1.3-0.3-1.7
	c-0.1-0.1-0.2-0.1-0.3-0.2c-0.1-0.5,0.1-1,0.4-1.4c0.3-0.3,0.8-0.4,1.2-0.4c1.1,0.1,2.1,0.4,3,0.9c-0.7,0.5-1.4,1.1-2,1.8
	c-0.6,0.6-1.2,1.3-1.8,2l0,0c-0.4,0.6-0.9,1.2-1.2,1.8v0.1l0,0c-1.8,3.1-2.2,6-0.6,7.5c0.7,0.7,1.7,1,2.6,1c1.7-0.1,3.4-0.7,4.9-1.6
	c1.5,1,3.1,1.5,4.9,1.6c1,0,1.9-0.3,2.6-1c0.4-0.4,0.7-1,0.9-1.6c1-0.4,1.6-1.5,1.2-2.6C399,255.3,398.9,255.1,398.7,254.9
	L398.7,254.9z M394.5,245.8c0.4,0,0.9,0.1,1.2,0.4c0.7,0.7,0.5,2.3-0.5,4.3c-1.1-1.4-2.4-2.7-3.8-3.8
	C392.4,246.2,393.4,245.9,394.5,245.8z M384.7,258.8c-0.4,0-0.9-0.1-1.2-0.4c-0.7-0.7-0.5-2.3,0.5-4.3c1.1,1.4,2.3,2.7,3.8,3.8
	C386.8,258.4,385.8,258.7,384.7,258.8L384.7,258.8z M387.2,254.7c-0.7-0.8-1.4-1.6-2-2.4c0.6-0.9,1.3-1.7,2-2.4s1.6-1.4,2.4-2
	c1.7,1.2,3.2,2.7,4.5,4.5c-1.2,1.7-2.7,3.2-4.5,4.5C388.7,256.2,387.9,255.5,387.2,254.7L387.2,254.7z"/>
<path class="st7" d="M425.9,250.3v1h-6.7c-0.9,2-2,3.8-3.4,5.5c2.5-0.1,5-0.4,7.5-0.7c-0.5-0.9-1.1-1.8-1.7-2.8l0.8-0.5
	c1.1,1.6,2.1,3.3,3,5.1l-0.9,0.6c-0.2-0.5-0.5-1-0.7-1.5c-2.8,0.4-5.9,0.6-9.3,0.9l-0.3-1c0.1,0,0.2-0.1,0.2-0.1
	c0.9-0.7,2.1-2.5,3.6-5.5h-4.7v-1H425.9z M424.7,246.4v1h-10v-1H424.7z"/>
<path class="st7" d="M432.8,246.1v0.9h-0.9v7.7l0.9-0.3v1l-0.9,0.3v2.8h-1V256c-1.1,0.3-2.3,0.6-3.5,0.8l-0.2-1l0.9-0.1v-8.6h-0.9
	v-0.9L432.8,246.1z M431,249.1V247h-1.9v2.1H431z M431,252v-2h-1.9v2H431z M431,255v-2.1h-1.9v2.5C429.7,255.3,430.3,255.2,431,255
	L431,255z M436.5,248.6c0.5-1,1-2,1.4-3l0.9,0.4c-0.4,0.9-0.8,1.8-1.3,2.7h2.1v1h-2.9v0.4c0,0.7,0,1.3-0.1,2h3.2v1H437
	c0.5,1.9,1.6,3.5,3.1,4.7l-0.7,0.7c-1.4-1.3-2.4-2.9-3-4.7c-0.4,2-1.6,3.7-3.2,4.8l-0.6-0.8c1.6-1.1,2.7-2.8,3-4.7h-2.7v-1h2.8
	c0.1-0.6,0.1-1.1,0.1-1.8v-0.6H433v-1L436.5,248.6z M435.8,247.9l-0.8,0.5c-0.4-0.8-0.8-1.5-1.3-2.2l0.8-0.5
	C434.9,246.4,435.4,247.1,435.8,247.9L435.8,247.9z"/>
<path class="st7" d="M450.5,258.3l-0.3-1h1.3c0.3,0,0.5-0.2,0.6-0.4v-0.1v-9.6H443v11.2h-1v-12.2h11.2v10.9c0.1,0.6-0.3,1.2-0.9,1.3
	c-0.1,0-0.2,0-0.3,0L450.5,258.3z M445.9,253.2c-0.4,1.3-1.1,2.4-1.8,3.5l-0.6-0.8c0.8-1.1,1.4-2.4,1.8-3.7c-0.7-0.9-1.3-1.7-2-2.4
	l0.6-0.6c0.6,0.6,1.2,1.3,1.7,2c0.3-1,0.5-2.1,0.7-3.2l0.9,0.2c-0.2,1.4-0.5,2.7-0.9,4c0.5,0.7,1.1,1.5,1.6,2.4l-0.7,0.7
	C446.8,254.5,446.3,253.8,445.9,253.2L445.9,253.2z M449.9,253.5c-0.5,1.3-1.2,2.4-2,3.5l-0.6-0.8c0.8-1.1,1.5-2.4,2-3.7
	c-0.6-1-1.3-1.8-1.9-2.6l0.6-0.6c0.6,0.7,1.1,1.4,1.6,2.1c0.3-1.1,0.6-2.2,0.7-3.4l1,0.2c-0.2,1.4-0.6,2.8-1,4.2
	c0.5,0.8,1.1,1.7,1.7,2.7l-0.7,0.7C450.8,255,450.4,254.3,449.9,253.5L449.9,253.5z"/>
<g>
	<g class="st0">
		<rect x="604.5" y="44.5" class="st1" width="120.7" height="50"/>
	</g>
	<rect x="603" y="43" class="st2" width="119.7" height="49"/>
	<path class="st3" d="M722.2,43.5v48H603.5v-48H722.2 M723.2,42.5H602.5v50h120.7V42.5z"/>
	<rect x="616" y="51.5" class="st2" width="12" height="32"/>
	<path class="st4" d="M640.5,57.5c2.2,0,4,1.8,4,4s-1.8,4-4,4s-4-1.8-4-4S638.3,57.5,640.5,57.5 M640.5,55.5c-3.3,0-6,2.7-6,6
		c0,3.3,2.7,6,6,6s6-2.7,6-6C646.5,58.2,643.8,55.5,640.5,55.5z"/>
	<path class="st4" d="M644.5,71.5c3.3,0,6,2.7,6,6v1h-20v-1c0-3.3,2.7-6,6-6H644.5 M644.5,69.5h-8c-4.4,0-8,3.6-8,8v3h24v-3
		C652.5,73.1,648.9,69.5,644.5,69.5z"/>
	<path class="st4" d="M653.5,69.5h-3c0.8,0.6,1.4,1.2,2,2h1c2.2,0,4,1.8,4,4v1h-3c0,0.3,0.1,0.7,0,1v1h5v-3
		C659.5,72.2,656.8,69.5,653.5,69.5z"/>
	<path class="st4" d="M649.5,56.5c-0.8,0-1.6,0.2-2.3,0.6c0.4,0.6,0.7,1.2,0.9,1.8c0.4-0.3,0.9-0.4,1.5-0.4c1.7,0,3,1.3,3,3
		s-1.3,3-3,3c-0.5,0-1-0.1-1.5-0.4c-0.2,0.6-0.5,1.2-0.9,1.8c0.7,0.4,1.5,0.6,2.3,0.6c2.8,0,5-2.2,5-5
		C654.5,58.7,652.3,56.5,649.5,56.5z"/>
	<path class="st7" d="M675.3,71.4c0,0.3,0.2,0.6,0.4,0.6c0,0,0.1,0,0.2,0h4.8c0.3,0,0.7-0.1,1-0.2c0.3-0.2,0.4-0.7,0.5-1.6l1,0.3
		c-0.1,1.2-0.4,1.9-0.8,2.2c-0.5,0.3-1,0.4-1.5,0.3h-5.2c-0.9,0-1.3-0.5-1.3-1.4v-2.9c-1,0.4-2,0.8-3,1.2L671,69
		c2.3-0.6,4.5-1.6,6.5-3l0.1-0.1H671v-1h5V63h-3.9v-1h3.9v-1.7h1v1.8h3.4v1H677v1.8h1.8c1.3-1.1,2.4-2.3,3.4-3.7l0.8,0.6
		c-0.8,1.1-1.7,2.1-2.7,3.1h3.2v1h-4.4l-0.7,0.5c-1,0.7-2.1,1.3-3.1,1.8v0.9c2.3-0.2,4.7-0.7,6.9-1.4l0.3,1
		c-2.4,0.7-4.8,1.1-7.3,1.3L675.3,71.4z"/>
	<path class="st7" d="M688.8,60.3v6.8c0,2.8-0.9,4.8-2.7,6.1l-0.7-0.7c1.6-1.1,2.4-2.9,2.4-5.4v-6.8H688.8z M686.3,62.2v7.4h-1v-7.4
		H686.3z M697.5,60.9v1H694v1.9h3v6.8c0,0.8-0.3,1.2-1,1.2h-1l-0.3-1l1,0.1c0.3,0,0.4-0.2,0.4-0.5v-5.6H694v8.5h-1v-8.5h-2v7.1h-1
		v-8h3v-2h-3.5v-1H697.5z"/>
</g>
<g class="st0">
	<rect x="71.6" y="45" class="st1" width="121" height="50"/>
</g>
<rect x="70.1" y="43.5" class="st2" width="120" height="49"/>
<path class="st3" d="M189.6,44v48h-119V44H189.6 M190.6,43h-121v50h121V43z"/>
<rect x="83.6" y="52" class="st2" width="27" height="32"/>
<g>
	<path class="st4" d="M106.1,68c3.3,0,6-2.7,6-6c0-3.3-2.7-6-6-6s-6,2.7-6,6C100.1,65.3,102.8,68,106.1,68z M106.1,58
		c2.2,0,4,1.8,4,4c0,2.2-1.8,4-4,4s-4-1.8-4-4C102.1,59.8,103.9,58,106.1,58z"/>
	<path class="st4" d="M110.6,70h-8c-4.4,0-8,3.6-8,8v3h24v-3C118.6,73.6,115,70,110.6,70z M116.6,79h-20v-1c0-3.3,2.7-6,6-6h8
		c3.3,0,6,2.7,6,6V79z"/>
	<path class="st4" d="M119.6,70h-3c0.8,0.6,1.4,1.2,2,2h1c2.2,0,4,1.8,4,4v1h-3c0,0.3,0.1,0.7,0,1v1h5v-3
		C125.6,72.7,122.9,70,119.6,70z"/>
	<path class="st4" d="M114.6,59c1.7,0,3,1.3,3,3s-1.3,3-3,3c-0.5,0-1-0.1-1.5-0.4c-0.2,0.6-0.5,1.2-0.9,1.8c0.7,0.4,1.5,0.6,2.3,0.6
		c2.8,0,5-2.2,5-5c0-2.8-2.2-5-5-5c-0.8,0-1.6,0.2-2.3,0.6c0.4,0.6,0.7,1.2,0.9,1.8C113.6,59.2,114.1,59,114.6,59z"/>
</g>
<path class="st7" d="M146.1,65.8v0.9c-1,0.6-2,1.2-3.1,1.7v0.7h5.3v1H143v2.4c0,0.8-0.4,1.1-1.2,1.1H140l-0.2-0.9c0.5,0,1.1,0,1.7,0
	c0.3,0,0.5-0.2,0.5-0.6v-2h-5.7v-1h5.7v-1.2c1.2-0.5,2.1-0.9,2.7-1.3h-6.2v-0.9L146.1,65.8z M148.2,66.8h-1v-2.2h-9.8v2.2h-1v-3.1h8
	c0.6-0.9,1.2-1.9,1.6-2.9l1,0.4c-0.4,0.9-0.9,1.8-1.5,2.6h2.7L148.2,66.8z M139.8,63.1l-0.9,0.4c-0.4-0.8-0.9-1.5-1.5-2.2l0.9-0.4
	C138.9,61.6,139.4,62.3,139.8,63.1L139.8,63.1z M143.1,63l-0.9,0.4c-0.4-0.8-0.8-1.6-1.3-2.3l0.9-0.4
	C142.3,61.4,142.7,62.2,143.1,63L143.1,63z"/>
<path class="st7" d="M150.5,67.6l-0.6-0.8c1.4-1.6,2.3-3.5,2.7-5.6l1,0.2c-0.1,0.7-0.3,1.3-0.5,2h3v-2.5h1v2.5h4.6v1h-4.6v3.2h4.4v1
	h-4.3v3.6h5.5v1h-12.4v-1h5.8v-3.6H152v-1h4.1v-3.2h-3.4C152.2,65.6,151.5,66.7,150.5,67.6z"/>
<g id="_编组_5">
	<g id="_编组_2-6">
		<path id="_复合路径_5" class="st6" d="M340,51.5c-7.2,0-13-5.8-13-13s5.8-13,13-13c6.4,0,11.9,4.7,12.9,11h2
			c-1.1-8.2-8.7-14-16.9-12.9c-8.2,1.1-14,8.7-12.9,16.9s8.7,14,16.9,12.9c6.7-0.9,12-6.2,12.9-12.9h-2
			C351.8,46.8,346.4,51.5,340,51.5z M340,30.5c-2.8,0-5,2.2-5,5v1h-1v9h12v-9h-1v-1C345,32.7,342.8,30.5,340,30.5z M337,35.5
			c0-1.7,1.3-3,3-3s3,1.3,3,3v1h-6V35.5z M344,43.5h-8v-5h8V43.5z"/>
	</g>
</g>
<g class="st8">
	<path class="st7" d="M366.5,36l-0.7,0.7c-0.5-0.7-1.3-1.5-2.2-2.2l0.7-0.6C365.1,34.6,365.9,35.3,366.5,36z M366.8,38.5
		c-0.6,1.7-1.3,3.2-2.1,4.7l-1-0.4c0.8-1.5,1.5-3,2.1-4.6L366.8,38.5z M366.9,32.8l-0.7,0.7c-0.6-0.7-1.3-1.4-2.3-2.2l0.7-0.7
		C365.5,31.4,366.3,32.1,366.9,32.8z M370.1,37.4v1.1c0,1.3-0.2,2.4-0.6,3.1c-0.4,0.7-1,1.3-1.9,1.7l-0.5-0.9
		c0.8-0.4,1.3-0.9,1.7-1.5c0.3-0.6,0.4-1.5,0.5-2.5v-1.1H370.1z M371.2,31.8c-0.2-0.5-0.5-0.9-0.7-1.2l1.1-0.2
		c0.2,0.4,0.5,0.9,0.7,1.4h3.5v1h-1.2c-0.3,1-1,1.9-1.9,2.6c1,0.4,2.2,0.7,3.7,0.9l-0.4,0.9c-1.7-0.2-3.1-0.6-4.2-1.2
		c-1.1,0.6-2.6,1-4.3,1.3l-0.4-0.9c1.5-0.2,2.8-0.5,3.8-1c-1-0.7-1.6-1.6-2.1-2.6h-1.2v-1H371.2z M371.7,34.9c1-0.6,1.6-1.3,1.9-2.1
		h-3.9C370.1,33.6,370.8,34.3,371.7,34.9z M374.3,37.4v5.9h-1v-5.9H374.3z"/>
	<path class="st7" d="M383.4,31.8l0.2-1.4l1,0.1c0,0.4-0.1,0.9-0.1,1.3h5.6v1h-5.8c-0.1,0.5-0.2,1-0.3,1.4h5.3v7.7
		c0,0.9-0.4,1.3-1.2,1.3h-1.4l-0.3-1l1.3,0c0.4,0,0.6-0.2,0.6-0.6v-6.6h-9v8.2h-1v-9.1h4.6c0.1-0.5,0.2-1,0.3-1.4h-5.7v-1H383.4z
		 M383.1,37.3h1.5c0.3-0.6,0.6-1.2,0.8-1.8l0.9,0.3c-0.3,0.5-0.5,1-0.8,1.5h1.6v0.9h-2.8v1.5h3.2v0.9h-3.2v2.5h-1v-2.5h-3.2v-0.9
		h3.2v-1.5h-2.8v-0.9h1.5c-0.2-0.5-0.5-1-0.8-1.4l0.9-0.3C382.6,36,382.8,36.6,383.1,37.3z"/>
	<path class="st7" d="M395.9,31.9c2.3,0,3.4,1,3.4,2.9c0,2-1.2,3-3.5,3H393v4.1h-1.1v-10H395.9z M393,36.8h2.9
		c0.8,0,1.4-0.2,1.8-0.5c0.4-0.3,0.6-0.8,0.6-1.5c0-0.7-0.2-1.2-0.6-1.5c-0.4-0.3-1-0.5-1.8-0.5H393V36.8z"/>
	<path class="st7" d="M408.7,33.2c0.8,1,1.2,2.2,1.2,3.7c0,1.5-0.4,2.7-1.2,3.7c-0.9,1-2.1,1.5-3.6,1.5c-1.5,0-2.7-0.5-3.5-1.5
		c-0.8-1-1.2-2.2-1.2-3.7c0-1.5,0.4-2.7,1.2-3.7c0.9-1,2-1.5,3.6-1.5C406.7,31.7,407.9,32.2,408.7,33.2z M402.5,33.9
		c-0.6,0.8-0.9,1.8-0.9,3c0,1.2,0.3,2.2,0.9,3c0.6,0.8,1.6,1.2,2.7,1.2c1.1,0,2.1-0.4,2.7-1.1c0.6-0.8,0.9-1.8,0.9-3
		c0-1.3-0.3-2.3-0.9-3c-0.6-0.8-1.5-1.1-2.7-1.1S403.1,33.1,402.5,33.9z"/>
	<path class="st7" d="M415.7,31.9c2.3,0,3.4,1,3.4,2.9c0,2-1.2,3-3.5,3h-2.9v4.1h-1.1v-10H415.7z M412.7,36.8h2.9
		c0.8,0,1.4-0.2,1.8-0.5c0.4-0.3,0.6-0.8,0.6-1.5c0-0.7-0.2-1.2-0.6-1.5c-0.4-0.3-1-0.5-1.8-0.5h-2.9V36.8z"/>
	<path class="st7" d="M422.8,40.1c-0.5,1.2-1.1,2.3-1.8,3.2l-0.8-0.6c0.7-0.8,1.3-1.8,1.8-3L422.8,40.1z M426.8,30.5v1.4h5.4v1h-5.4
		v1.8h4.5v4.5H422v-4.5h3.8v-4.1H426.8z M430.3,35.5H423v2.6h7.3V35.5z M425.8,43.1l-1,0.2c-0.2-1.1-0.4-2.2-0.7-3l0.9-0.2
		C425.3,41,425.6,42,425.8,43.1z M429.1,43.1l-1,0.2c-0.3-1.2-0.6-2.2-1.1-3.2l1-0.2C428.4,40.9,428.8,42,429.1,43.1z M432.9,42.7
		l-0.8,0.6c-0.5-1-1.2-2-2-3.1l0.8-0.5C431.7,40.8,432.4,41.9,432.9,42.7z"/>
	<path class="st7" d="M434.6,43.2l-0.2-1c0.4,0,0.7,0.1,1.1,0.1c0.4,0,0.6-0.2,0.6-0.5v-3.4c-0.6,0.2-1.1,0.4-1.7,0.6l-0.3-1
		c0.7-0.2,1.3-0.4,2-0.6v-3.1h-1.7v-1h1.7v-2.6h1v2.6h1.2v1h-1.2v2.7c0.4-0.2,0.8-0.4,1.2-0.6v1c-0.4,0.2-0.8,0.4-1.2,0.6V42
		c0,0.8-0.4,1.2-1.2,1.2H434.6z M442.5,36.4c-0.1,0.4-0.3,0.7-0.5,1.1h4.8v1h-1.5c-0.2,1-0.6,1.9-1.3,2.6c1,0.4,1.9,0.9,2.8,1.4
		l-0.5,0.8c-0.8-0.5-1.8-1-2.9-1.6c-0.9,0.7-2.4,1.2-4.4,1.6l-0.4-0.9c1.6-0.3,2.9-0.7,3.8-1.2c-0.9-0.4-1.8-0.8-2.7-1.2
		c0.4-0.6,0.7-1.1,1-1.7h-1.9v-1h2.4c0.2-0.4,0.4-0.8,0.5-1.2L442.5,36.4z M442,34.9h1.4c0.4-0.7,0.7-1.4,1-2.2l1,0.3
		c-0.3,0.7-0.6,1.3-0.9,1.9h2.3v1h-7.8v-1h2.1c-0.3-0.6-0.6-1.2-0.9-1.7l0.8-0.4C441.3,33.5,441.6,34.1,442,34.9z M443.3,31.7h3.1
		v0.9h-7.2v-0.9h3.1c-0.2-0.4-0.3-0.8-0.5-1.2l1-0.2C443,30.8,443.1,31.2,443.3,31.7z M441.6,38.4c-0.3,0.4-0.5,0.9-0.8,1.2
		c0.8,0.3,1.6,0.6,2.4,1c0.6-0.6,1-1.3,1.3-2.2H441.6z"/>
	<path class="st7" d="M451.6,31l0.8-0.5c1.2,0.9,2.3,2.5,3.2,4.7c1.3,3.3,3.1,5.7,5.3,7.1l-0.6,0.8c-2.3-1.4-4.1-3.9-5.6-7.6
		c-0.1-0.2-0.2-0.4-0.2-0.6c-0.9,3.6-2.9,6.3-5.8,8.2l-0.6-0.9c3-2,4.9-4.8,5.8-8.5C453.3,32.5,452.5,31.6,451.6,31z"/>
	<path class="st7" d="M463.1,43.3l-0.8-0.7c0.6-1.3,0.8-2.9,0.9-4.8v-6.7h4.1V42c0,0.8-0.4,1.3-1.2,1.3H465l-0.2-0.9
		c0.4,0,0.7,0.1,1.1,0.1c0.4,0,0.5-0.3,0.5-0.8v-3.2h-2.3C464,40.5,463.7,42.1,463.1,43.3z M466.4,32h-2.3v2.4h2.3V32z M464.1,37.6
		h2.3v-2.3h-2.3V37.6z M469.4,43.3h-1V31h5.7c0,1.7-0.1,2.9-0.3,3.4c-0.2,0.6-0.7,0.9-1.6,0.9h-1.1l-0.3-0.9c0.2,0,0.5,0,0.9,0
		c0.3,0,0.6,0,0.7-0.1c0.2-0.1,0.3-0.2,0.4-0.4c0.1-0.3,0.2-1,0.2-2.1h-3.7v4.2h4.8v0.9c-0.3,1.4-0.7,2.7-1.4,3.7
		c0.6,0.6,1.4,1.2,2.2,1.7l-0.5,0.9c-0.9-0.5-1.7-1.1-2.3-1.7c-0.6,0.7-1.3,1.3-2.2,1.7l-0.5-0.8c0.8-0.4,1.5-1,2-1.7
		c-0.9-1.1-1.5-2.3-1.8-3.7h-0.3V43.3z M472.1,40c0.5-0.8,0.9-1.8,1.1-2.9h-2.7C470.9,38.2,471.4,39.2,472.1,40z"/>
	<path class="st7" d="M476.9,31.9l3.1,8.8h0l3.1-8.8h1.3l-3.7,10h-1.4l-3.7-10H476.9z"/>
	<path class="st7" d="M489.6,31.9c2.3,0,3.4,1,3.4,2.9c0,2-1.2,3-3.5,3h-2.9v4.1h-1.1v-10H489.6z M486.7,36.8h2.9
		c0.8,0,1.4-0.2,1.8-0.5c0.4-0.3,0.6-0.8,0.6-1.5c0-0.7-0.2-1.2-0.6-1.5c-0.4-0.3-1-0.5-1.8-0.5h-2.9V36.8z"/>
	<path class="st7" d="M501.6,32.6c0.8,0.6,1.2,1.4,1.3,2.4h-1.1c-0.1-0.7-0.5-1.3-1.1-1.7c-0.5-0.4-1.2-0.6-2-0.6
		c-1.2,0-2.1,0.4-2.7,1.2c-0.6,0.8-0.9,1.8-0.9,3c0,1.2,0.3,2.2,0.9,3c0.6,0.8,1.5,1.2,2.7,1.2c0.8,0,1.5-0.2,2-0.6
		c0.6-0.4,1-1.1,1.2-2h1.1c-0.2,1.2-0.7,2.1-1.6,2.7c-0.8,0.6-1.7,0.9-2.8,0.9c-1.6,0-2.7-0.5-3.6-1.5c-0.8-0.9-1.1-2.1-1.1-3.6
		c0-1.5,0.4-2.7,1.1-3.7c0.8-1.1,2-1.6,3.6-1.6C499.9,31.7,500.8,32,501.6,32.6z"/>
</g>
<g>
	<g class="st0">
		<rect x="71.3" y="161.5" class="st1" width="161" height="50"/>
	</g>
	<rect x="69.6" y="160" class="st2" width="160" height="49"/>
	<path class="st3" d="M229.3,160.5v48h-159v-48H229.3 M230.3,159.5h-161v50h161V159.5z"/>
	<g id="_编组_5_1_">
		<g id="_编组_2-6_1_">
			<path id="_复合路径_5_1_" class="st6" d="M93.8,198.4c-7.2,0-13-5.8-13-13s5.8-13,13-13c6.4,0,11.9,4.7,12.9,11h2
				c-1.1-8.2-8.7-14-16.9-12.9s-14,8.7-12.9,16.9s8.7,14,16.9,12.9c6.7-0.9,12-6.2,12.9-12.9h-2C105.7,193.7,100.2,198.4,93.8,198.4
				z M93.8,177.4c-2.8,0-5,2.2-5,5v1h-1v9h12v-9h-1v-1C98.8,179.6,96.6,177.4,93.8,177.4z M90.8,182.4c0-1.7,1.3-3,3-3
				c1.7,0,3,1.3,3,3v1h-6V182.4z M97.8,190.4h-8v-5h8V190.4z"/>
		</g>
	</g>
	<g class="st8">
		<path class="st7" d="M124.8,179.4h5.1v1h-10.4v3.1c-0.1,3.1-0.5,5.5-1.4,7.4l-0.8-0.7c0.8-1.6,1.2-3.8,1.2-6.6v-4.1h5.2
			c-0.2-0.5-0.5-1.1-0.8-1.5l1.1-0.2C124.3,178.2,124.5,178.7,124.8,179.4z"/>
		<path class="st7" d="M133.5,181.5c-0.2,1.4-0.5,2.8-1,4.1l-0.9-0.3c0.5-1.3,0.9-2.6,1.1-4L133.5,181.5z M135.4,178.1v4.3
			c0,3.8-0.9,6.6-2.7,8.4l-0.7-0.7c1.6-1.6,2.4-4.2,2.4-7.7v-4.3H135.4z M137.9,185.1l-0.8,0.4c-0.4-1.3-1-2.5-1.5-3.5l0.8-0.3
			C136.9,182.6,137.4,183.8,137.9,185.1z M139.3,178.4v11.9h-1v-11.9H139.3z M141.7,184.9l-0.8,0.4c-0.4-1.3-1-2.5-1.5-3.5l0.8-0.3
			C140.8,182.5,141.3,183.7,141.7,184.9z M143.2,178v12.8h-1V178H143.2z"/>
		<path class="st7" d="M145.7,190.6l-0.2-1c0.4,0,0.7,0.1,1.1,0.1c0.4,0,0.6-0.2,0.6-0.5v-3.4c-0.6,0.2-1.1,0.4-1.7,0.6l-0.3-1
			c0.7-0.2,1.3-0.4,2-0.6v-3.1h-1.7v-1h1.7v-2.6h1v2.6h1.2v1h-1.2v2.7c0.4-0.2,0.8-0.4,1.2-0.6v1c-0.4,0.2-0.8,0.4-1.2,0.6v4.1
			c0,0.8-0.4,1.2-1.2,1.2H145.7z M153.7,183.8c-0.1,0.4-0.3,0.7-0.5,1.1h4.8v1h-1.5c-0.2,1-0.6,1.9-1.3,2.6c1,0.4,1.9,0.9,2.8,1.4
			l-0.5,0.8c-0.8-0.5-1.8-1-2.9-1.6c-0.9,0.7-2.4,1.2-4.4,1.6l-0.4-0.9c1.6-0.3,2.9-0.7,3.8-1.2c-0.9-0.4-1.8-0.8-2.7-1.2
			c0.4-0.6,0.7-1.1,1-1.7h-1.9v-1h2.4c0.2-0.4,0.4-0.8,0.5-1.2L153.7,183.8z M153.1,182.3h1.4c0.4-0.7,0.7-1.4,1-2.2l1,0.3
			c-0.3,0.7-0.6,1.3-0.9,1.9h2.3v1H150v-1h2.1c-0.3-0.6-0.6-1.2-0.9-1.7l0.8-0.4C152.4,180.9,152.8,181.6,153.1,182.3z M154.4,179.1
			h3.1v0.9h-7.2v-0.9h3.1c-0.2-0.4-0.3-0.8-0.5-1.2l1.1-0.2C154.1,178.2,154.2,178.6,154.4,179.1z M152.7,185.9
			c-0.3,0.4-0.5,0.9-0.8,1.2c0.8,0.3,1.6,0.6,2.4,1c0.6-0.6,1.1-1.3,1.3-2.2H152.7z"/>
		<path class="st7" d="M162.7,178.4l0.8-0.5c1.2,0.9,2.3,2.5,3.2,4.7c1.3,3.3,3.1,5.7,5.3,7.1l-0.6,0.8c-2.3-1.4-4.1-3.9-5.6-7.6
			c-0.1-0.2-0.2-0.4-0.2-0.6c-0.9,3.6-2.9,6.3-5.8,8.2l-0.6-0.9c3-2,4.9-4.8,5.8-8.5C164.4,180,163.6,179.1,162.7,178.4z"/>
		<path class="st7" d="M176,187.5c-0.5,1.2-1.1,2.3-1.8,3.2l-0.8-0.6c0.7-0.8,1.3-1.8,1.8-3L176,187.5z M179.9,177.9v1.4h5.4v1h-5.4
			v1.8h4.5v4.5h-9.3V182h3.8v-4.1H179.9z M183.4,183h-7.3v2.6h7.3V183z M178.9,190.5l-1,0.2c-0.2-1.1-0.4-2.2-0.7-3l0.9-0.2
			C178.4,188.4,178.7,189.5,178.9,190.5z M182.2,190.5l-1,0.2c-0.3-1.2-0.6-2.2-1.1-3.2l1-0.2C181.5,188.3,181.9,189.4,182.2,190.5z
			 M186,190.2l-0.8,0.6c-0.5-1-1.2-2-2-3.1l0.8-0.5C184.8,188.3,185.5,189.3,186,190.2z"/>
		<path class="st7" d="M188,179.3l3.1,8.8h0l3.1-8.8h1.3l-3.7,10h-1.4l-3.7-10H188z"/>
		<path class="st7" d="M200.7,179.3c2.3,0,3.4,1,3.4,2.9c0,2-1.2,3-3.5,3h-2.9v4.1h-1.1v-10H200.7z M197.8,184.2h2.9
			c0.8,0,1.4-0.2,1.8-0.5c0.4-0.3,0.6-0.8,0.6-1.5c0-0.7-0.2-1.2-0.6-1.5c-0.4-0.3-1-0.5-1.8-0.5h-2.9V184.2z"/>
		<path class="st7" d="M212.7,180c0.8,0.6,1.2,1.4,1.3,2.4H213c-0.1-0.7-0.5-1.3-1.1-1.7c-0.5-0.4-1.2-0.6-2-0.6
			c-1.2,0-2.1,0.4-2.7,1.2c-0.6,0.8-0.9,1.8-0.9,3c0,1.2,0.3,2.2,0.9,3c0.6,0.8,1.5,1.2,2.7,1.2c0.8,0,1.5-0.2,2-0.6
			c0.6-0.4,1-1.1,1.2-2h1.1c-0.2,1.2-0.7,2.1-1.6,2.7c-0.8,0.6-1.7,0.9-2.8,0.9c-1.6,0-2.7-0.5-3.6-1.5c-0.8-0.9-1.1-2.1-1.1-3.6
			c0-1.5,0.4-2.7,1.1-3.7c0.8-1.1,2-1.6,3.6-1.6C211,179.1,212,179.4,212.7,180z"/>
	</g>
</g>
<g>
	<g class="st0">
		<rect x="71.3" y="303.7" class="st1" width="161" height="50"/>
	</g>
	<rect x="69.6" y="302.2" class="st2" width="160" height="49"/>
	<path class="st3" d="M229.3,302.7v48h-159v-48H229.3 M229.8,301.7H69.3v50h160.5V301.7z"/>
	<g id="_编组_5_4_">
		<g id="_编组_2-6_4_">
			<path id="_复合路径_5_4_" class="st6" d="M93.8,340.6c-7.2,0-13-5.8-13-13s5.8-13,13-13c6.4,0,11.9,4.7,12.9,11h2
				c-1.1-8.2-8.7-14-16.9-12.9s-14,8.7-12.9,16.9c1.1,8.2,8.7,14,16.9,12.9c6.7-0.9,12-6.2,12.9-12.9h-2
				C105.7,335.9,100.2,340.6,93.8,340.6z M93.8,319.6c-2.8,0-5,2.2-5,5v1h-1v9h12v-9h-1v-1C98.8,321.8,96.6,319.6,93.8,319.6z
				 M90.8,324.6c0-1.7,1.3-3,3-3c1.7,0,3,1.3,3,3v1h-6V324.6z M97.8,332.6h-8v-5h8V332.6z"/>
		</g>
	</g>
	<g class="st8">
		<path class="st7" d="M122.4,320.1v12.7h-1v-2.4c-1.1,0.5-2.4,1-3.7,1.3l-0.2-1c1.4-0.3,2.7-0.8,3.9-1.3V325h-3.7v-1h3.7v-3.9
			H122.4z M126,332.7c-0.9,0-1.3-0.5-1.3-1.4v-11.2h1v4.7c1.2-0.4,2.4-1.1,3.5-1.9l0.6,0.8c-1.5,0.9-2.8,1.5-4.1,2v5.4
			c0,0.4,0.2,0.6,0.5,0.6h1.8c0.3,0,0.5-0.1,0.7-0.3c0.1-0.3,0.2-1.1,0.2-2.5l1,0.3c-0.1,1.6-0.2,2.6-0.4,3
			c-0.2,0.3-0.6,0.5-1.2,0.5H126z"/>
		<path class="st7" d="M135.3,329.4c-0.9,1.2-2,2.3-3.3,3.2l-0.6-0.8c1.3-0.9,2.4-1.9,3.2-3.1L135.3,329.4z M138.1,321.6h5.7v0.9
			h-12.4v-0.9h5.6c-0.2-0.5-0.4-1-0.6-1.4l1-0.2C137.7,320.5,137.9,321,138.1,321.6z M142.1,323.9v3.9h-3.9v3.7
			c0,0.8-0.4,1.3-1.3,1.3h-1.5l-0.2-1c0.5,0,0.9,0.1,1.4,0.1c0.4,0,0.6-0.2,0.6-0.6v-3.5h-4v-3.9H142.1z M141.1,324.9h-6.9v2h6.9
			V324.9z M143.9,331.9l-0.7,0.7c-0.8-1-1.8-2.1-3.1-3.2l0.7-0.7C142,329.8,143,330.8,143.9,331.9z"/>
		<path class="st7" d="M145.7,332.8l-0.2-1c0.4,0,0.7,0.1,1.1,0.1c0.4,0,0.6-0.2,0.6-0.5v-3.4c-0.6,0.2-1.1,0.4-1.7,0.6l-0.3-1
			c0.7-0.2,1.3-0.4,2-0.6v-3.1h-1.7v-1h1.7v-2.6h1v2.6h1.2v1h-1.2v2.7c0.4-0.2,0.8-0.4,1.2-0.6v1c-0.4,0.2-0.8,0.4-1.2,0.6v4.1
			c0,0.8-0.4,1.2-1.2,1.2H145.7z M153.7,326c-0.1,0.4-0.3,0.7-0.5,1.1h4.8v1h-1.5c-0.2,1-0.6,1.9-1.3,2.6c1,0.4,1.9,0.9,2.8,1.4
			l-0.5,0.8c-0.8-0.5-1.8-1-2.9-1.6c-0.9,0.7-2.4,1.2-4.4,1.6l-0.4-0.9c1.6-0.3,2.9-0.7,3.8-1.2c-0.9-0.4-1.8-0.8-2.7-1.2
			c0.4-0.6,0.7-1.1,1-1.7h-1.9v-1h2.4c0.2-0.4,0.4-0.8,0.5-1.2L153.7,326z M153.1,324.5h1.4c0.4-0.7,0.7-1.4,1-2.2l1,0.3
			c-0.3,0.7-0.6,1.3-0.9,1.9h2.3v1H150v-1h2.1c-0.3-0.6-0.6-1.2-0.9-1.7l0.8-0.4C152.4,323.1,152.8,323.8,153.1,324.5z M154.4,321.3
			h3.1v0.9h-7.2v-0.9h3.1c-0.2-0.4-0.3-0.8-0.5-1.2l1.1-0.2C154.1,320.4,154.2,320.8,154.4,321.3z M152.7,328.1
			c-0.3,0.4-0.5,0.9-0.8,1.2c0.8,0.3,1.6,0.6,2.4,1c0.6-0.6,1.1-1.3,1.3-2.2H152.7z"/>
		<path class="st7" d="M162.7,320.6l0.8-0.5c1.2,0.9,2.3,2.5,3.2,4.7c1.3,3.3,3.1,5.7,5.3,7.1l-0.6,0.8c-2.3-1.4-4.1-3.9-5.6-7.6
			c-0.1-0.2-0.2-0.4-0.2-0.6c-0.9,3.6-2.9,6.3-5.8,8.2l-0.6-0.9c3-2,4.9-4.8,5.8-8.5C164.4,322.1,163.6,321.3,162.7,320.6z"/>
		<path class="st7" d="M176,329.7c-0.5,1.2-1.1,2.3-1.8,3.2l-0.8-0.6c0.7-0.8,1.3-1.8,1.8-3L176,329.7z M179.9,320.1v1.4h5.4v1h-5.4
			v1.8h4.5v4.5h-9.3v-4.5h3.8v-4.1H179.9z M183.4,325.1h-7.3v2.6h7.3V325.1z M178.9,332.7l-1,0.2c-0.2-1.1-0.4-2.2-0.7-3l0.9-0.2
			C178.4,330.6,178.7,331.6,178.9,332.7z M182.2,332.7l-1,0.2c-0.3-1.2-0.6-2.2-1.1-3.2l1-0.2C181.5,330.5,181.9,331.6,182.2,332.7z
			 M186,332.4l-0.8,0.6c-0.5-1-1.2-2-2-3.1l0.8-0.5C184.8,330.5,185.5,331.5,186,332.4z"/>
		<path class="st7" d="M188,321.5l3.1,8.8h0l3.1-8.8h1.3l-3.7,10h-1.4l-3.7-10H188z"/>
		<path class="st7" d="M200.7,321.5c2.3,0,3.4,1,3.4,2.9c0,2-1.2,3-3.5,3h-2.9v4.1h-1.1v-10H200.7z M197.8,326.4h2.9
			c0.8,0,1.4-0.2,1.8-0.5c0.4-0.3,0.6-0.8,0.6-1.5c0-0.7-0.2-1.2-0.6-1.5c-0.4-0.3-1-0.5-1.8-0.5h-2.9V326.4z"/>
		<path class="st7" d="M212.7,322.2c0.8,0.6,1.2,1.4,1.3,2.4H213c-0.1-0.7-0.5-1.3-1.1-1.7c-0.5-0.4-1.2-0.6-2-0.6
			c-1.2,0-2.1,0.4-2.7,1.2c-0.6,0.8-0.9,1.8-0.9,3c0,1.2,0.3,2.2,0.9,3c0.6,0.8,1.5,1.2,2.7,1.2c0.8,0,1.5-0.2,2-0.6
			c0.6-0.4,1-1.1,1.2-2h1.1c-0.2,1.2-0.7,2.1-1.6,2.7c-0.8,0.6-1.7,0.9-2.8,0.9c-1.6,0-2.7-0.5-3.6-1.5c-0.8-0.9-1.1-2.1-1.1-3.6
			c0-1.5,0.4-2.7,1.1-3.7c0.8-1.1,2-1.6,3.6-1.6C211,321.3,212,321.6,212.7,322.2z"/>
	</g>
</g>
<g>
	<g class="st0">
		<rect x="604.2" y="161.5" class="st1" width="161" height="50"/>
	</g>
	<rect x="602.5" y="160" class="st2" width="160" height="49"/>
	<path class="st3" d="M762.2,160.5v48h-159v-48H762.2 M763.2,159.5h-161v50h161V159.5z"/>
	<g id="_编组_5_3_">
		<g id="_编组_2-6_3_">
			<path id="_复合路径_5_3_" class="st6" d="M626.7,198.4c-7.2,0-13-5.8-13-13s5.8-13,13-13c6.4,0,11.9,4.7,12.9,11h2
				c-1.1-8.2-8.7-14-16.9-12.9s-14,8.7-12.9,16.9s8.7,14,16.9,12.9c6.7-0.9,12-6.2,12.9-12.9h-2
				C638.5,193.7,633.1,198.4,626.7,198.4z M626.7,177.4c-2.8,0-5,2.2-5,5v1h-1v9h12v-9h-1v-1C631.7,179.6,629.4,177.4,626.7,177.4z
				 M623.7,182.4c0-1.7,1.3-3,3-3s3,1.3,3,3v1h-6V182.4z M630.7,190.4h-8v-5h8V190.4z"/>
		</g>
	</g>
	<g class="st8">
		<path class="st7" d="M655.2,177.9v12.7h-1v-2.4c-1.1,0.5-2.4,1-3.7,1.3l-0.2-1c1.4-0.3,2.7-0.8,3.9-1.3v-4.5h-3.7v-1h3.7v-3.9
			H655.2z M658.9,190.5c-0.9,0-1.3-0.5-1.3-1.4v-11.2h1v4.7c1.2-0.4,2.4-1.1,3.5-1.9l0.6,0.8c-1.5,0.9-2.8,1.5-4.1,2v5.4
			c0,0.4,0.2,0.6,0.5,0.6h1.8c0.3,0,0.5-0.1,0.7-0.3c0.1-0.3,0.2-1.1,0.2-2.5l1,0.3c-0.1,1.6-0.2,2.6-0.4,3
			c-0.2,0.3-0.6,0.5-1.2,0.5H658.9z"/>
		<path class="st7" d="M671.1,185.2c-0.1,0.4-0.1,0.7-0.2,1h5.4v1h-4.9c1,1.3,2.8,2.2,5.6,2.6l-0.5,1c-3.1-0.6-5.1-1.8-6-3.4
			c-0.3,0.6-0.7,1.1-1.2,1.5c-0.9,0.8-2.5,1.5-4.8,1.9l-0.4-1c2-0.4,3.5-0.9,4.4-1.6c0.4-0.3,0.7-0.6,0.9-1h-4.6v-1h5.1
			c0.1-0.4,0.2-0.7,0.3-1.1L671.1,185.2z M668,179.3c-0.2-0.5-0.4-0.9-0.7-1.3l1.1-0.2c0.2,0.4,0.4,0.9,0.6,1.5h2.9
			c0.2-0.5,0.4-1,0.5-1.5l1.1,0.1c-0.1,0.5-0.3,0.9-0.6,1.4h3.1v0.9H671v1.3h4.4v0.9H671v1.4h5.6v0.9h-12.2v-0.9h5.6v-1.4h-4.4v-0.9
			h4.4v-1.3h-5.1v-0.9H668z"/>
		<path class="st7" d="M678.6,190.6l-0.2-1c0.4,0,0.7,0.1,1.1,0.1c0.4,0,0.6-0.2,0.6-0.5v-3.4c-0.6,0.2-1.1,0.4-1.7,0.6l-0.3-1
			c0.7-0.2,1.3-0.4,2-0.6v-3.1h-1.7v-1h1.7v-2.6h1v2.6h1.2v1H681v2.7c0.4-0.2,0.8-0.4,1.2-0.6v1c-0.4,0.2-0.8,0.4-1.2,0.6v4.1
			c0,0.8-0.4,1.2-1.2,1.2H678.6z M686.5,183.8c-0.1,0.4-0.3,0.7-0.5,1.1h4.8v1h-1.5c-0.2,1-0.6,1.9-1.3,2.6c1,0.4,1.9,0.9,2.8,1.4
			l-0.5,0.8c-0.8-0.5-1.8-1-2.9-1.6c-0.9,0.7-2.4,1.2-4.4,1.6l-0.4-0.9c1.6-0.3,2.9-0.7,3.8-1.2c-0.9-0.4-1.8-0.8-2.7-1.2
			c0.4-0.6,0.7-1.1,1-1.7h-1.9v-1h2.4c0.2-0.4,0.4-0.8,0.5-1.2L686.5,183.8z M685.9,182.3h1.4c0.4-0.7,0.7-1.4,1-2.2l1,0.3
			c-0.3,0.7-0.6,1.3-0.9,1.9h2.3v1h-7.8v-1h2.1c-0.3-0.6-0.6-1.2-0.9-1.7l0.8-0.4C685.3,180.9,685.6,181.6,685.9,182.3z
			 M687.2,179.1h3.1v0.9h-7.2v-0.9h3.1c-0.2-0.4-0.3-0.8-0.5-1.2l1-0.2C686.9,178.2,687.1,178.6,687.2,179.1z M685.5,185.9
			c-0.3,0.4-0.5,0.9-0.8,1.2c0.8,0.3,1.6,0.6,2.4,1c0.6-0.6,1.1-1.3,1.3-2.2H685.5z"/>
		<path class="st7" d="M695.6,178.4l0.8-0.5c1.2,0.9,2.3,2.5,3.2,4.7c1.3,3.3,3.1,5.7,5.3,7.1l-0.6,0.8c-2.3-1.4-4.1-3.9-5.6-7.6
			c-0.1-0.2-0.2-0.4-0.2-0.6c-0.9,3.6-2.9,6.3-5.8,8.2l-0.6-0.9c3-2,4.9-4.8,5.8-8.5C697.2,180,696.5,179.1,695.6,178.4z"/>
		<path class="st7" d="M708.8,187.5c-0.5,1.2-1.1,2.3-1.8,3.2l-0.8-0.6c0.7-0.8,1.3-1.8,1.8-3L708.8,187.5z M712.8,177.9v1.4h5.4v1
			h-5.4v1.8h4.5v4.5H708V182h3.8v-4.1H712.8z M716.2,183H709v2.6h7.3V183z M711.8,190.5l-1,0.2c-0.2-1.1-0.4-2.2-0.7-3l0.9-0.2
			C711.3,188.4,711.5,189.5,711.8,190.5z M715,190.5l-1,0.2c-0.3-1.2-0.6-2.2-1.1-3.2l1-0.2C714.3,188.3,714.7,189.4,715,190.5z
			 M718.8,190.2l-0.8,0.6c-0.5-1-1.2-2-2-3.1l0.8-0.5C717.7,188.3,718.4,189.3,718.8,190.2z"/>
		<path class="st7" d="M720.8,179.3l3.1,8.8h0l3.1-8.8h1.3l-3.7,10h-1.4l-3.7-10H720.8z"/>
		<path class="st7" d="M733.5,179.3c2.3,0,3.4,1,3.4,2.9c0,2-1.2,3-3.5,3h-2.9v4.1h-1.1v-10H733.5z M730.6,184.2h2.9
			c0.8,0,1.4-0.2,1.8-0.5c0.4-0.3,0.6-0.8,0.6-1.5c0-0.7-0.2-1.2-0.6-1.5c-0.4-0.3-1-0.5-1.8-0.5h-2.9V184.2z"/>
		<path class="st7" d="M745.6,180c0.8,0.6,1.2,1.4,1.3,2.4h-1.1c-0.1-0.7-0.5-1.3-1.1-1.7c-0.5-0.4-1.2-0.6-2-0.6
			c-1.2,0-2.1,0.4-2.7,1.2c-0.6,0.8-0.9,1.8-0.9,3c0,1.2,0.3,2.2,0.9,3c0.6,0.8,1.5,1.2,2.7,1.2c0.8,0,1.5-0.2,2-0.6
			c0.6-0.4,1-1.1,1.2-2h1.1c-0.2,1.2-0.7,2.1-1.6,2.7c-0.8,0.6-1.7,0.9-2.8,0.9c-1.6,0-2.7-0.5-3.6-1.5c-0.8-0.9-1.1-2.1-1.1-3.6
			c0-1.5,0.4-2.7,1.1-3.7c0.8-1.1,2-1.6,3.6-1.6C743.9,179.1,744.8,179.4,745.6,180z"/>
	</g>
</g>
<g class="st8">
	<path class="st4" d="M112.7,107.5c-0.3,1.1-0.6,2-1,2.8L111,110c0.4-0.7,0.7-1.7,1-2.8L112.7,107.5z M113.6,101.8
		c-0.2-0.4-0.4-0.8-0.6-1.1l0.9-0.1c0.2,0.4,0.4,0.8,0.5,1.2h2.2v0.8h-5.5v-0.8H113.6z M116,103.6v3h-1.7v3.9c0,0.6-0.3,1-0.9,1
		h-0.9l-0.2-0.8c0.3,0,0.6,0.1,0.8,0.1c0.3,0,0.4-0.2,0.4-0.4v-3.7h-1.8v-3H116z M115.2,104.4h-2.7v1.5h2.7V104.4z M116.4,109.5
		l-0.7,0.3c-0.2-0.8-0.5-1.5-0.8-2.3l0.7-0.2C116,108.1,116.2,108.8,116.4,109.5z M120.1,111.4c-0.6,0-0.9-0.3-0.9-0.9v-6.2h-0.7
		c-0.1,3.3-0.8,5.7-2.2,7.2l-0.6-0.5c1.3-1.4,1.9-3.6,2-6.7h-1.2v-0.8h1.2v-2.8h0.8v2.8h3v0.8H120v6.1c0,0.2,0.1,0.3,0.3,0.3h0.3
		c0.1,0,0.3-0.1,0.3-0.3c0.1-0.2,0.1-0.9,0.2-2l0.7,0.2c-0.1,1.3-0.2,2.1-0.3,2.4c-0.2,0.3-0.4,0.4-0.7,0.4H120.1z M121.3,102.6
		l-0.6,0.4c-0.3-0.5-0.8-1.1-1.3-1.8l0.6-0.4C120.6,101.5,121,102,121.3,102.6z"/>
</g>
<g class="st8">
	<path class="st4" d="M116.9,125.8c-0.8,0-1.4-0.1-1.9-0.2c-0.5-0.1-0.9-0.4-1.3-0.9c-0.2-0.2-0.3-0.3-0.5-0.3
		c-0.3,0-0.8,0.6-1.4,1.7l-0.6-0.6c0.6-1,1.2-1.6,1.7-1.8V120h-1.7v-0.8h2.5v4.5c0.1,0.1,0.2,0.2,0.3,0.3c0.3,0.3,0.6,0.6,0.9,0.8
		c0.4,0.2,0.9,0.3,1.6,0.3c0.6,0,1.4,0,2.3,0c0.6,0,1.2,0,1.8,0c0.6,0,1,0,1.4,0l-0.2,0.9H119C118.4,125.8,117.6,125.8,116.9,125.8z
		 M114,117.1l-0.6,0.6c-0.5-0.6-1.1-1.3-2-2l0.6-0.6C112.8,115.8,113.5,116.5,114,117.1z M116.3,119.2c-0.1,1.9-0.6,3.5-1.4,4.7
		l-0.6-0.6c0.7-1.1,1.1-2.5,1.2-4.4v-3.1c1.8,0,3.5-0.3,5-0.7l0.4,0.8c-1.4,0.4-2.9,0.6-4.6,0.6v1.9h5.3v0.8h-2.1v5h-0.8v-5H116.3z"
		/>
</g>
<g class="st8">
	<path class="st4" d="M111.4,140.3l-0.2-0.8c0.3,0,0.6,0,0.9,0c0.3,0,0.5-0.2,0.5-0.5v-3c-0.5,0.2-1,0.4-1.5,0.5l-0.2-0.9
		c0.6-0.1,1.1-0.3,1.7-0.5v-2.7h-1.5v-0.8h1.5v-2.3h0.9v2.3h1v0.8h-1v2.3c0.3-0.2,0.7-0.3,1-0.5v0.9c-0.3,0.2-0.7,0.3-1,0.5v3.5
		c0,0.7-0.4,1-1.1,1H111.4z M118.2,134.5c-0.1,0.3-0.3,0.6-0.4,0.9h4.1v0.8h-1.3c-0.2,0.9-0.6,1.6-1.1,2.3c0.8,0.4,1.6,0.8,2.4,1.2
		l-0.5,0.7c-0.7-0.4-1.5-0.9-2.5-1.3c-0.8,0.6-2.1,1-3.8,1.4l-0.3-0.8c1.4-0.3,2.5-0.6,3.2-1c-0.7-0.3-1.5-0.7-2.4-1
		c0.3-0.5,0.6-1,0.9-1.4h-1.6v-0.8h2.1c0.2-0.4,0.3-0.7,0.4-1L118.2,134.5z M117.7,133.2h1.2c0.3-0.6,0.6-1.2,0.9-1.9l0.8,0.3
		c-0.2,0.6-0.5,1.1-0.8,1.6h1.9v0.8H115v-0.8h1.8c-0.2-0.5-0.5-1-0.7-1.4l0.7-0.3C117.2,132,117.4,132.6,117.7,133.2z M118.8,130.5
		h2.7v0.8h-6.2v-0.8h2.6c-0.1-0.4-0.3-0.7-0.4-1l0.9-0.1C118.6,129.7,118.7,130.1,118.8,130.5z M117.4,136.3
		c-0.2,0.4-0.4,0.7-0.7,1.1c0.7,0.3,1.4,0.5,2,0.8c0.5-0.5,0.9-1.1,1.1-1.9H117.4z"/>
</g>
<g class="st8">
	<path class="st4" d="M114,144.3l0.7-0.5c1.1,0.7,2,2.1,2.7,4c1.1,2.9,2.6,4.9,4.5,6.1l-0.5,0.7c-1.9-1.2-3.5-3.4-4.8-6.5
		c-0.1-0.2-0.1-0.4-0.2-0.5c-0.8,3.1-2.4,5.4-5,7l-0.5-0.7c2.6-1.7,4.2-4.1,5-7.3C115.4,145.6,114.8,144.8,114,144.3z"/>
</g>
<g>
	<line class="st5" x1="545" y1="326.2" x2="602.5" y2="326.2"/>
</g>
<g>
	<g class="st0">
		<rect x="604.5" y="303.7" class="st1" width="91" height="50"/>
	</g>
	<rect x="602.8" y="302.2" class="st2" width="90" height="49"/>
	<path class="st3" d="M692.5,302.7v48h-89v-48H692.5 M693.5,301.7h-91v50h91V301.7z"/>
	<g id="_编组_5_5_">
		<g id="_编组_2-6_5_">
			<path id="_复合路径_5_5_" class="st6" d="M627,340.6c-7.2,0-13-5.8-13-13s5.8-13,13-13c6.4,0,11.9,4.7,12.9,11h2
				c-1.1-8.2-8.7-14-16.9-12.9s-14,8.7-12.9,16.9s8.7,14,16.9,12.9c6.7-0.9,12-6.2,12.9-12.9h-2C638.8,335.9,633.4,340.6,627,340.6z
				 M627,319.6c-2.8,0-5,2.2-5,5v1h-1v9h12v-9h-1v-1C632,321.8,629.8,319.6,627,319.6z M624,324.6c0-1.7,1.3-3,3-3s3,1.3,3,3v1h-6
				V324.6z M631,332.6h-8v-5h8V332.6z"/>
		</g>
	</g>
	<g class="st8">
		<path class="st7" d="M652.8,330.1c0.2,0.2,0.2,0.4,0.2,0.6c0,0.3-0.1,0.4-0.2,0.6c-0.2,0.2-0.4,0.2-0.6,0.2s-0.4-0.1-0.6-0.2
			c-0.2-0.2-0.3-0.4-0.3-0.6c0-0.2,0.1-0.4,0.3-0.6c0.2-0.2,0.3-0.2,0.6-0.2C652.4,329.9,652.6,329.9,652.8,330.1z M657.5,330.1
			c0.2,0.2,0.2,0.4,0.2,0.6c0,0.3-0.1,0.4-0.2,0.6c-0.2,0.2-0.4,0.2-0.6,0.2c-0.2,0-0.4-0.1-0.6-0.2c-0.2-0.2-0.2-0.4-0.2-0.6
			c0-0.2,0.1-0.4,0.2-0.6c0.2-0.2,0.4-0.2,0.6-0.2C657.1,329.9,657.3,329.9,657.5,330.1z M662.1,330.1c0.2,0.2,0.3,0.4,0.3,0.6
			c0,0.3-0.1,0.4-0.3,0.6s-0.4,0.2-0.6,0.2c-0.2,0-0.4-0.1-0.6-0.2c-0.2-0.2-0.2-0.4-0.2-0.6c0-0.2,0.1-0.4,0.2-0.6
			c0.2-0.2,0.4-0.2,0.6-0.2C661.7,329.9,661.9,329.9,662.1,330.1z"/>
		<path class="st7" d="M666.8,330.1c0.2,0.2,0.2,0.4,0.2,0.6c0,0.3-0.1,0.4-0.2,0.6c-0.2,0.2-0.4,0.2-0.6,0.2s-0.4-0.1-0.6-0.2
			c-0.2-0.2-0.3-0.4-0.3-0.6c0-0.2,0.1-0.4,0.3-0.6c0.2-0.2,0.3-0.2,0.6-0.2C666.4,329.9,666.6,329.9,666.8,330.1z M671.5,330.1
			c0.2,0.2,0.2,0.4,0.2,0.6c0,0.3-0.1,0.4-0.2,0.6c-0.2,0.2-0.4,0.2-0.6,0.2c-0.2,0-0.4-0.1-0.6-0.2c-0.2-0.2-0.2-0.4-0.2-0.6
			c0-0.2,0.1-0.4,0.2-0.6c0.2-0.2,0.4-0.2,0.6-0.2C671.1,329.9,671.3,329.9,671.5,330.1z M676.1,330.1c0.2,0.2,0.3,0.4,0.3,0.6
			c0,0.3-0.1,0.4-0.3,0.6s-0.4,0.2-0.6,0.2c-0.2,0-0.4-0.1-0.6-0.2c-0.2-0.2-0.2-0.4-0.2-0.6c0-0.2,0.1-0.4,0.2-0.6
			c0.2-0.2,0.4-0.2,0.6-0.2C675.7,329.9,675.9,329.9,676.1,330.1z"/>
	</g>
</g>
<g>
	<line class="st5" x1="545.7" y1="186" x2="602.2" y2="186"/>
</g>
<g class="st0">
	<rect x="340.5" y="447.4" class="st1" width="152.5" height="50"/>
</g>
<rect x="338.8" y="445.9" class="st2" width="151.5" height="49"/>
<path class="st3" d="M490,446.4v48H339.5v-48H490 M491,445.4H338.5v50H491V445.4z"/>
<g>
	<line class="st5" x1="415.5" y1="445.4" x2="415.5" y2="404.2"/>
</g>
<g id="_编组_5_2_">
	<g id="_编组_2-6_2_">
		<path id="_复合路径_5_2_" class="st6" d="M366,484.3c-7.2,0-13-5.8-13-13s5.8-13,13-13c6.4,0,11.9,4.7,12.9,11h2
			c-1.1-8.2-8.7-14-16.9-12.9c-8.2,1.1-14,8.7-12.9,16.9c1.1,8.2,8.7,14,16.9,12.9c6.7-0.9,12-6.2,12.9-12.9h-2
			C377.8,479.6,372.4,484.3,366,484.3z M366,463.3c-2.8,0-5,2.2-5,5v1h-1v9h12v-9h-1v-1C371,465.5,368.8,463.3,366,463.3z
			 M363,468.3c0-1.7,1.3-3,3-3s3,1.3,3,3v1h-6V468.3z M370,476.3h-8v-5h8V476.3z"/>
	</g>
</g>
<g class="st8">
	<path class="st7" d="M397,465.3h5.1v1h-10.4v3.1c-0.1,3.1-0.5,5.5-1.4,7.4l-0.8-0.7c0.8-1.6,1.2-3.8,1.2-6.6v-4.1h5.2
		c-0.2-0.5-0.5-1.1-0.8-1.5l1.1-0.2C396.5,464.1,396.7,464.6,397,465.3z"/>
	<path class="st7" d="M405.7,467.4c-0.2,1.4-0.5,2.8-1,4.1l-0.9-0.3c0.5-1.3,0.9-2.6,1.1-4L405.7,467.4z M407.6,464v4.3
		c0,3.8-0.9,6.6-2.7,8.4l-0.7-0.7c1.6-1.6,2.4-4.2,2.4-7.7V464H407.6z M410,471l-0.8,0.4c-0.4-1.3-1-2.5-1.5-3.5l0.8-0.3
		C409.1,468.5,409.6,469.7,410,471z M411.5,464.3v11.9h-1v-11.9H411.5z M413.9,470.8l-0.8,0.4c-0.4-1.3-1-2.5-1.5-3.5l0.8-0.3
		C413,468.4,413.5,469.6,413.9,470.8z M415.4,463.9v12.8h-1v-12.8H415.4z"/>
	<path class="st7" d="M417.9,476.5l-0.2-1c0.4,0,0.7,0.1,1.1,0.1c0.4,0,0.5-0.2,0.5-0.5v-3.4c-0.6,0.2-1.1,0.4-1.7,0.6l-0.3-1
		c0.7-0.2,1.3-0.4,1.9-0.6v-3.1h-1.7v-1h1.7v-2.7h1v2.7h1.2v1h-1.2v2.7c0.4-0.2,0.8-0.4,1.2-0.6v1c-0.4,0.2-0.8,0.4-1.2,0.6v4.1
		c0,0.8-0.4,1.2-1.2,1.2H417.9z M422.2,472.1v-0.9h7.5v0.9h-3.2v3.1h3.7v1h-8.6v-1h3.8v-3.1H422.2z M426.6,465.3h3.3v2.6h-0.9v-1.7
		h-5.9v1.7h-1v-2.6h3.5c-0.2-0.6-0.5-1.1-0.7-1.5l1-0.2C426.1,464.1,426.4,464.7,426.6,465.3z M425.5,467.5
		c-0.6,1.4-1.5,2.5-2.5,3.2l-0.7-0.6c1.1-0.7,1.8-1.7,2.4-2.9L425.5,467.5z M429.6,470.1l-0.9,0.4c-0.7-1.1-1.4-2.2-2.3-3.1l0.9-0.4
		C428.2,468,428.9,469,429.6,470.1z"/>
	<path class="st7" d="M432.1,467.9l-0.8-0.6c0.7-0.8,1.1-1.8,1.3-3.1l1,0.2c-0.1,0.4-0.2,0.9-0.3,1.2h1.6v-1.7h1v1.7h2.6v0.9H436
		v1.8h3v0.9h-3v1.5h2.7v3.7c0,0.8-0.4,1.2-1.3,1.2h-0.7l-0.3-1l0.7,0c0.4,0,0.6-0.2,0.6-0.5v-2.5H436v5h-1v-5h-1.8v4.1h-1v-5h2.8
		v-1.5h-3.4v-0.9h3.4v-1.8h-2C432.8,467.1,432.5,467.5,432.1,467.9z M440.8,465.1v8.7h-1v-8.7H440.8z M440.3,476.5l-0.2-1
		c0.7,0,1.3,0.1,1.9,0.1c0.4,0,0.6-0.2,0.6-0.7v-11.1h1v11.4c0,0.9-0.4,1.3-1.3,1.3H440.3z"/>
	<path class="st7" d="M446.2,465.2l3.1,8.8h0l3.1-8.8h1.3l-3.7,10h-1.4l-3.7-10H446.2z"/>
	<path class="st7" d="M458.9,465.2c2.3,0,3.4,1,3.4,2.9c0,2-1.2,3-3.5,3h-2.9v4.1h-1.1v-10H458.9z M455.9,470.1h2.9
		c0.8,0,1.4-0.2,1.8-0.5c0.4-0.3,0.6-0.8,0.6-1.5c0-0.7-0.2-1.2-0.6-1.5c-0.4-0.3-1-0.5-1.8-0.5h-2.9V470.1z"/>
	<path class="st7" d="M470.9,465.9c0.8,0.6,1.2,1.4,1.3,2.4h-1.1c-0.1-0.7-0.5-1.3-1.1-1.7c-0.5-0.4-1.2-0.6-2-0.6
		c-1.2,0-2.1,0.4-2.7,1.2c-0.6,0.8-0.9,1.8-0.9,3c0,1.2,0.3,2.2,0.9,3c0.6,0.8,1.5,1.2,2.7,1.2c0.8,0,1.5-0.2,2-0.6
		c0.6-0.4,1-1.1,1.2-2h1.1c-0.2,1.2-0.7,2.1-1.6,2.7c-0.8,0.6-1.7,0.9-2.8,0.9c-1.6,0-2.7-0.5-3.6-1.5c-0.8-0.9-1.1-2.1-1.1-3.6
		c0-1.5,0.4-2.7,1.1-3.7c0.8-1.1,2-1.6,3.6-1.6C469.2,465,470.1,465.3,470.9,465.9z"/>
</g>
<path class="st9" d="M393.7,388.2c-1.3-0.2-2.6-0.4-4-0.7l0.2-1c1.3,0.2,2.6,0.5,3.9,0.7L393.7,388.2z M437.7,387.7l-0.2-1
	c1.3-0.2,2.6-0.5,3.9-0.7l0.2,1C440.3,387.2,439,387.4,437.7,387.7z M385.8,386.7c-1.3-0.3-2.6-0.6-3.9-0.9l0.2-1
	c1.3,0.3,2.6,0.6,3.9,0.9L385.8,386.7z M445.5,386l-0.2-1c1.3-0.3,2.6-0.6,3.9-1l0.3,1C448.1,385.4,446.8,385.7,445.5,386z
	 M378,384.8c-1.3-0.4-2.6-0.7-3.9-1.1l0.3-1c1.3,0.4,2.5,0.8,3.8,1.1L378,384.8z M453.3,384l-0.3-1c1.3-0.4,2.5-0.8,3.8-1.2l0.3,0.9
	C455.8,383.2,454.6,383.6,453.3,384z M370.3,382.4c-1.3-0.4-2.5-0.9-3.8-1.4l0.4-0.9c1.2,0.5,2.5,0.9,3.8,1.4L370.3,382.4z
	 M460.9,381.4l-0.3-0.9c1.2-0.5,2.5-0.9,3.7-1.4l0.4,0.9C463.4,380.5,462.2,380.9,460.9,381.4z M362.8,379.6c-1.2-0.5-2.5-1-3.7-1.6
	l0.4-0.9c1.2,0.5,2.4,1.1,3.7,1.6L362.8,379.6z M468.3,378.4l-0.4-0.9c1.2-0.5,2.4-1.1,3.6-1.6l0.4,0.9
	C470.8,377.3,469.6,377.9,468.3,378.4z M355.5,376.3c-1.2-0.6-2.4-1.2-3.6-1.8l0.5-0.9c1.2,0.6,2.4,1.2,3.6,1.8L355.5,376.3z
	 M475.6,375l-0.5-0.9c1.2-0.6,2.4-1.2,3.5-1.9l0.5,0.9C477.9,373.8,476.8,374.4,475.6,375z M348.3,372.6c-1.2-0.7-2.3-1.3-3.5-2
	l0.5-0.9c1.1,0.7,2.3,1.3,3.5,2L348.3,372.6z M482.6,371.1l-0.5-0.9c1.1-0.7,2.3-1.4,3.4-2.1l0.5,0.8
	C484.9,369.8,483.7,370.5,482.6,371.1z M341.4,368.5c-1.1-0.7-2.2-1.5-3.4-2.2l0.6-0.8c1.1,0.7,2.2,1.5,3.3,2.2L341.4,368.5z
	 M489.4,366.9l-0.6-0.8c1.1-0.7,2.2-1.5,3.3-2.3l0.6,0.8C491.6,365.4,490.5,366.1,489.4,366.9z M334.8,363.9
	c-1.1-0.8-2.2-1.6-3.2-2.4l0.6-0.8c1.1,0.8,2.1,1.6,3.2,2.4L334.8,363.9z M495.9,362.2l-0.6-0.8c1.1-0.8,2.1-1.6,3.1-2.5l0.6,0.8
	C498,360.6,497,361.4,495.9,362.2z M328.4,359c-1-0.9-2.1-1.7-3.1-2.6l0.7-0.8c1,0.9,2,1.7,3,2.6L328.4,359z M502.1,357.2l-0.7-0.8
	c1-0.9,2-1.7,3-2.6l0.7,0.7C504.1,355.4,503.1,356.3,502.1,357.2z M322.4,353.8c-1-0.9-2-1.8-2.9-2.8l0.7-0.7
	c0.9,0.9,1.9,1.8,2.9,2.7L322.4,353.8z M508.1,351.8l-0.7-0.7c1-0.9,1.9-1.9,2.8-2.8l0.7,0.7C510,349.9,509,350.8,508.1,351.8z
	 M316.7,348.1c-0.9-1-1.8-1.9-2.7-2.9l0.7-0.7c0.9,1,1.8,2,2.7,2.9L316.7,348.1z M513.7,346l-0.7-0.7c0.9-1,1.8-2,2.7-3l0.8,0.7
	C515.5,344,514.6,345,513.7,346z M290.1,308.3c-0.5-1.2-1-2.5-1.5-3.7l0.9-0.4c0.5,1.2,1,2.5,1.5,3.7L290.1,308.3z M539.4,305.5
	l-0.9-0.4c0.5-1.2,1-2.5,1.5-3.7l0.9,0.3C540.4,303,539.9,304.3,539.4,305.5z M287.2,300.9c-0.5-1.3-0.9-2.5-1.3-3.8l0.9-0.3
	c0.4,1.3,0.9,2.5,1.3,3.8L287.2,300.9z M542.2,298l-0.9-0.3c0.4-1.3,0.8-2.5,1.2-3.8l1,0.3C543,295.4,542.6,296.7,542.2,298z
	 M284.7,293.2c-0.4-1.3-0.7-2.6-1.1-3.9l1-0.3c0.3,1.3,0.7,2.6,1.1,3.8L284.7,293.2z M544.5,290.3l-1-0.3c0.4-1.3,0.7-2.6,1-3.9
	l1,0.2C545.2,287.7,544.9,289,544.5,290.3z M282.6,285.5c-0.3-1.3-0.6-2.6-0.9-3.9l1-0.2c0.3,1.3,0.5,2.6,0.8,3.9L282.6,285.5z
	 M546.4,282.5l-1-0.2c0.3-1.3,0.5-2.6,0.8-3.9l1,0.2C546.9,279.8,546.7,281.2,546.4,282.5z M281,277.6c-0.2-1.3-0.4-2.6-0.6-4l1-0.1
	c0.2,1.3,0.4,2.6,0.6,3.9L281,277.6z M547.8,274.6l-1-0.1c0.2-1.3,0.4-2.6,0.5-3.9l1,0.1C548.2,271.9,548,273.2,547.8,274.6z
	 M279.9,269.7c-0.1-1.3-0.3-2.7-0.4-4l1-0.1c0.1,1.3,0.2,2.6,0.4,4L279.9,269.7z M548.8,266.6l-1-0.1c0.1-1.3,0.2-2.6,0.3-4l1,0.1
	C549,263.9,548.9,265.3,548.8,266.6z M279.2,261.7c-0.1-1.3-0.1-2.7-0.1-4l1,0c0,1.3,0.1,2.7,0.1,4L279.2,261.7z M549.2,258.6l-1,0
	c0-1.3,0.1-2.7,0.1-4h1C549.3,255.9,549.3,257.3,549.2,258.6z M280,253.7l-1,0c0-1.3,0-2.7,0.1-4l1,0C280.1,251,280,252.3,280,253.7
	z M548.3,252.4c0-1.3-0.1-2.7-0.1-4l1,0c0.1,1.3,0.1,2.7,0.1,4L548.3,252.4z M280.3,245.7l-1-0.1c0.1-1.3,0.2-2.7,0.3-4l1,0.1
	C280.5,243,280.4,244.4,280.3,245.7z M547.9,244.4c-0.1-1.3-0.2-2.7-0.4-4l1-0.1c0.1,1.3,0.3,2.7,0.4,4L547.9,244.4z M281.1,237.8
	l-1-0.1c0.2-1.3,0.4-2.7,0.6-4l1,0.2C281.4,235.1,281.2,236.4,281.1,237.8z M547.1,236.5c-0.2-1.3-0.4-2.6-0.6-3.9l1-0.2
	c0.2,1.3,0.4,2.6,0.6,4L547.1,236.5z M282.3,229.9l-1-0.2c0.2-1.3,0.5-2.6,0.8-3.9l1,0.2C282.8,227.3,282.5,228.6,282.3,229.9z
	 M545.8,228.7c-0.3-1.3-0.5-2.6-0.8-3.9l1-0.2c0.3,1.3,0.6,2.6,0.8,3.9L545.8,228.7z M284,222.1l-1-0.2c0.3-1.3,0.7-2.6,1-3.9l1,0.3
	C284.7,219.5,284.3,220.8,284,222.1z M544,220.9c-0.3-1.3-0.7-2.6-1.1-3.8l1-0.3c0.4,1.3,0.7,2.6,1.1,3.9L544,220.9z M286.1,214.4
	l-1-0.3c0.4-1.3,0.8-2.6,1.3-3.8l0.9,0.3C287,211.9,286.5,213.2,286.1,214.4z M541.8,213.2c-0.4-1.3-0.8-2.5-1.3-3.8l0.9-0.3
	c0.4,1.3,0.9,2.5,1.3,3.8L541.8,213.2z M288.8,206.9l-0.9-0.4c0.5-1.3,1-2.5,1.5-3.7l0.9,0.4C289.7,204.4,289.2,205.6,288.8,206.9z
	 M539.1,205.7c-0.5-1.2-1-2.5-1.5-3.7l0.9-0.4c0.5,1.2,1,2.5,1.5,3.7L539.1,205.7z M308.3,172.2l-0.8-0.6c0.8-1.1,1.7-2.1,2.5-3.1
	l0.8,0.6C309.9,170.2,309.1,171.2,308.3,172.2z M519.4,171.4c-0.8-1-1.7-2.1-2.5-3.1l0.8-0.6c0.9,1,1.7,2.1,2.5,3.1L519.4,171.4z
	 M313.4,166.1l-0.8-0.7c0.9-1,1.8-2,2.7-3l0.7,0.7C315.1,164.1,314.2,165.1,313.4,166.1z M514.3,165.3c-0.9-1-1.8-2-2.7-2.9l0.7-0.7
	c0.9,1,1.8,2,2.7,3L514.3,165.3z M318.8,160.3l-0.7-0.7c0.9-1,1.9-1.9,2.9-2.8l0.7,0.7C320.7,158.4,319.7,159.3,318.8,160.3z
	 M508.8,159.5c-0.9-0.9-1.9-1.9-2.9-2.8l0.7-0.7c1,0.9,1.9,1.8,2.9,2.8L508.8,159.5z M324.6,154.8l-0.7-0.7c1-0.9,2-1.8,3-2.6
	l0.6,0.8C326.5,153,325.5,153.9,324.6,154.8z M503,154.1c-1-0.9-2-1.7-3-2.6l0.6-0.8c1,0.9,2,1.7,3,2.6L503,154.1z M330.6,149.6
	l-0.6-0.8c1-0.8,2.1-1.7,3.2-2.5l0.6,0.8C332.7,148,331.7,148.8,330.6,149.6z M496.9,149c-1-0.8-2.1-1.6-3.2-2.4l0.6-0.8
	c1.1,0.8,2.1,1.6,3.2,2.4L496.9,149z M337,144.8l-0.6-0.8c1.1-0.8,2.2-1.5,3.3-2.3l0.6,0.8C339.2,143.3,338.1,144.1,337,144.8z
	 M490.4,144.2c-1.1-0.8-2.2-1.5-3.3-2.2l0.5-0.8c1.1,0.7,2.2,1.5,3.3,2.2L490.4,144.2z M343.6,140.5l-0.5-0.9
	c1.1-0.7,2.3-1.4,3.4-2.1l0.5,0.9C345.9,139.1,344.8,139.8,343.6,140.5z M483.8,139.9c-1.1-0.7-2.3-1.4-3.4-2l0.5-0.9
	c1.2,0.7,2.3,1.3,3.5,2L483.8,139.9z M350.5,136.5l-0.5-0.9c1.2-0.6,2.4-1.3,3.6-1.9l0.4,0.9C352.9,135.2,351.7,135.8,350.5,136.5z
	 M476.8,135.9c-1.2-0.6-2.4-1.2-3.6-1.8l0.4-0.9c1.2,0.6,2.4,1.2,3.6,1.8L476.8,135.9z M357.6,132.9l-0.4-0.9
	c1.2-0.6,2.4-1.1,3.7-1.6l0.4,0.9C360,131.8,358.8,132.3,357.6,132.9z M469.6,132.4c-1.2-0.6-2.4-1.1-3.7-1.6l0.4-0.9
	c1.2,0.5,2.5,1.1,3.7,1.6L469.6,132.4z M364.9,129.8l-0.4-0.9c1.2-0.5,2.5-1,3.8-1.4l0.3,0.9C367.4,128.8,366.1,129.3,364.9,129.8z
	 M462.3,129.3c-1.2-0.5-2.5-0.9-3.8-1.4l0.3-0.9c1.3,0.4,2.5,0.9,3.8,1.4L462.3,129.3z M372.4,127.1l-0.3-1c1.3-0.4,2.5-0.8,3.8-1.2
	l0.3,1C374.9,126.3,373.7,126.7,372.4,127.1z M454.7,126.7c-1.3-0.4-2.5-0.8-3.8-1.1l0.3-1c1.3,0.4,2.6,0.8,3.8,1.2L454.7,126.7z
	 M380.1,124.8l-0.3-1c1.3-0.3,2.6-0.7,3.9-1l0.2,1C382.6,124.2,381.3,124.5,380.1,124.8z M447.1,124.5c-1.3-0.3-2.6-0.6-3.9-0.9
	l0.2-1c1.3,0.3,2.6,0.6,3.9,0.9L447.1,124.5z M438.9,122.6c-1.3-0.2-2.6-0.5-3.9-0.7l0.2-1c1.3,0.2,2.6,0.4,4,0.7L438.9,122.6z
	 M387.8,123l-0.2-1c1.3-0.3,2.6-0.5,3.9-0.7l0.2,1C390.4,122.5,389.1,122.8,387.8,123z"/>
<g>
	<path class="st9" d="M530.5,171c-8.3,0-15,6.7-15,15c0,8.3,6.7,15,15,15c8.3,0,15-6.7,15-15C545.5,177.7,538.8,171,530.5,171z
		 M530.5,199c-7.2,0-13-5.8-13-13s5.8-13,13-13s13,5.8,13,13S537.6,199,530.5,199z"/>
	<polygon class="st9" points="533.2,179.9 531.5,179.9 531.5,175 529.5,175 529.5,179.9 527.7,179.9 530.5,184.6 	"/>
	<polygon class="st9" points="536.6,184.9 536.6,183.2 531.8,186 536.6,188.7 536.6,186.9 541.5,186.9 541.5,184.9 	"/>
	<polygon class="st9" points="527.8,192.1 529.5,192.1 529.5,197 531.5,197 531.5,192.1 533.2,192.1 530.5,187.3 	"/>
	<polygon class="st9" points="529.1,186 524.4,183.3 524.4,185 519.5,185 519.5,187 524.4,187 524.4,188.7 	"/>
</g>
<g>
	<path class="st9" d="M415,105.3c-8.3,0-15,6.7-15,15c0,8.3,6.7,15,15,15c8.3,0,15-6.7,15-15C430,112,423.3,105.3,415,105.3z
		 M415,133.3c-7.2,0-13-5.8-13-13s5.8-13,13-13s13,5.8,13,13S422.1,133.3,415,133.3z"/>
	<polygon class="st9" points="417.7,114.2 416,114.2 416,109.3 414,109.3 414,114.2 412.2,114.2 415,118.9 	"/>
	<polygon class="st9" points="421.1,119.3 421.1,117.6 416.3,120.3 421.1,123 421.1,121.3 426,121.3 426,119.3 	"/>
	<polygon class="st9" points="412.3,126.4 414,126.4 414,131.3 416,131.3 416,126.4 417.7,126.4 415,121.7 	"/>
	<polygon class="st9" points="413.6,120.3 408.9,117.6 408.9,119.3 404,119.3 404,121.3 408.9,121.3 408.9,123.1 	"/>
</g>
<g>
	<path class="st9" d="M415,374.3c-8.3,0-15,6.7-15,15c0,8.3,6.7,15,15,15c8.3,0,15-6.7,15-15C430,381,423.3,374.3,415,374.3z
		 M415,402.3c-7.2,0-13-5.8-13-13s5.8-13,13-13s13,5.8,13,13S422.1,402.3,415,402.3z"/>
	<polygon class="st9" points="417.7,383.2 416,383.2 416,378.3 414,378.3 414,383.2 412.2,383.2 415,387.9 	"/>
	<polygon class="st9" points="421.1,388.3 421.1,386.6 416.3,389.3 421.1,392 421.1,390.3 426,390.3 426,388.3 	"/>
	<polygon class="st9" points="412.3,395.4 414,395.4 414,400.3 416,400.3 416,395.4 417.7,395.4 415,390.7 	"/>
	<polygon class="st9" points="413.6,389.3 408.9,386.6 408.9,388.3 404,388.3 404,390.3 408.9,390.3 408.9,392.1 	"/>
</g>
<g>
	<path class="st9" d="M296,170.8c-8.3,0-15,6.7-15,15c0,8.3,6.7,15,15,15c8.3,0,15-6.7,15-15C311,177.5,304.3,170.8,296,170.8z
		 M296,198.8c-7.2,0-13-5.8-13-13s5.8-13,13-13s13,5.8,13,13S303.1,198.8,296,198.8z"/>
	<polygon class="st9" points="298.7,179.7 297,179.7 297,174.8 295,174.8 295,179.7 293.2,179.7 296,184.4 	"/>
	<polygon class="st9" points="302.1,184.8 302.1,183.1 297.3,185.8 302.1,188.5 302.1,186.8 307,186.8 307,184.8 	"/>
	<polygon class="st9" points="293.3,191.9 295,191.9 295,196.8 297,196.8 297,191.9 298.7,191.9 296,187.2 	"/>
	<polygon class="st9" points="294.6,185.8 289.9,183.1 289.9,184.8 285,184.8 285,186.8 289.9,186.8 289.9,188.6 	"/>
</g>
<g>
	<path class="st9" d="M300.5,311.1c-8.3,0-15,6.7-15,15c0,8.3,6.7,15,15,15c8.3,0,15-6.7,15-15C315.5,317.8,308.8,311.1,300.5,311.1
		z M300.5,339.1c-7.2,0-13-5.8-13-13s5.8-13,13-13s13,5.8,13,13S307.6,339.1,300.5,339.1z"/>
	<polygon class="st9" points="303.2,320 301.5,320 301.5,315.1 299.5,315.1 299.5,320 297.7,320 300.5,324.7 	"/>
	<polygon class="st9" points="306.6,325.1 306.6,323.3 301.8,326.1 306.6,328.8 306.6,327.1 311.5,327.1 311.5,325.1 	"/>
	<polygon class="st9" points="297.8,332.2 299.5,332.2 299.5,337.1 301.5,337.1 301.5,332.2 303.2,332.2 300.5,327.4 	"/>
	<polygon class="st9" points="299.1,326.1 294.4,323.4 294.4,325.1 289.5,325.1 289.5,327.1 294.4,327.1 294.4,328.8 	"/>
</g>
<g>
	<path class="st9" d="M530.5,311.1c-8.3,0-15,6.7-15,15c0,8.3,6.7,15,15,15c8.3,0,15-6.7,15-15C545.5,317.8,538.8,311.1,530.5,311.1
		z M530.5,339.1c-7.2,0-13-5.8-13-13s5.8-13,13-13s13,5.8,13,13S537.6,339.1,530.5,339.1z"/>
	<polygon class="st9" points="533.2,320 531.5,320 531.5,315.1 529.5,315.1 529.5,320 527.7,320 530.5,324.7 	"/>
	<polygon class="st9" points="536.6,325.1 536.6,323.3 531.8,326.1 536.6,328.8 536.6,327.1 541.5,327.1 541.5,325.1 	"/>
	<polygon class="st9" points="527.8,332.2 529.5,332.2 529.5,337.1 531.5,337.1 531.5,332.2 533.2,332.2 530.5,327.4 	"/>
	<polygon class="st9" points="529.1,326.1 524.4,323.4 524.4,325.1 519.5,325.1 519.5,327.1 524.4,327.1 524.4,328.8 	"/>
</g>
<g>
	<polygon class="st4" points="410,343.6 415,348.6 420,343.6 	"/>
	<polygon class="st4" points="420,290.7 415,285.7 410,290.7 	"/>
	<line class="st5" x1="415" y1="343.6" x2="415" y2="286.4"/>
</g>
<g>
	<polygon class="st4" points="410,212.9 415,217.9 420,212.9 	"/>
	<polygon class="st4" points="420,165.1 415,160.1 410,165.1 	"/>
	<line class="st5" x1="415" y1="212.9" x2="415" y2="160.7"/>
</g>
<g>
	<polygon class="st4" points="511.5,197.8 511.9,190.7 504.9,190.3 	"/>
	<polygon class="st4" points="474.2,216.5 473.7,223.5 480.8,224 	"/>
	<line class="st5" x1="477.6" y1="220.3" x2="508.2" y2="194"/>
</g>
<g>
	<polygon class="st4" points="350.9,224 357.9,223.5 357.5,216.5 	"/>
	<polygon class="st4" points="326.8,190.3 319.7,190.7 320.2,197.8 	"/>
	<line class="st5" x1="354.2" y1="220.2" x2="323.6" y2="193.9"/>
</g>
<g>
	<polygon class="st4" points="504.9,318.5 511.9,318 511.5,311 	"/>
	<polygon class="st4" points="480.8,284.8 473.7,285.2 474.2,292.3 	"/>
	<line class="st5" x1="508.2" y1="314.7" x2="477.6" y2="288.4"/>
</g>
<g>
	<polygon class="st4" points="357.5,292.3 357.9,285.2 350.9,284.8 	"/>
	<polygon class="st4" points="320.2,311 319.7,318 326.8,318.5 	"/>
	<line class="st5" x1="323.6" y1="314.8" x2="354.2" y2="288.5"/>
</g>
</svg>
