<?xml version="1.0" encoding="utf-8"?>
<!-- Generator: Adobe Illustrator 22.1.0, SVG Export Plug-In . SVG Version: 6.00 Build 0)  -->
<svg version="1.1" id="图层_1" xmlns="http://www.w3.org/2000/svg" xmlns:xlink="http://www.w3.org/1999/xlink" x="0px" y="0px"
	 width="820px" height="190px" viewBox="0 0 820 190" style="enable-background:new 0 0 820 190;" xml:space="preserve">
<style type="text/css">
	.st0{opacity:0.2;fill:url(#SVGID_1_);enable-background:new    ;}
	.st1{enable-background:new    ;}
	.st2{fill:#333333;}
	.st3{fill:#FFFFFF;}
	.st4{fill:url(#SVGID_2_);}
	.st5{opacity:0.2;fill:url(#SVGID_3_);enable-background:new    ;}
	.st6{opacity:0.2;enable-background:new    ;}
	.st7{fill:url(#SVGID_4_);}
	.st8{fill:url(#SVGID_5_);}
	.st9{fill:url(#SVGID_6_);}
	.st10{fill:url(#SVGID_7_);}
	.st11{fill:url(#SVGID_8_);}
	.st12{fill:url(#SVGID_9_);}
	.st13{fill:url(#SVGID_10_);}
	.st14{fill:url(#SVGID_11_);}
	.st15{fill:url(#SVGID_12_);}
	.st16{fill:url(#SVGID_13_);}
	.st17{fill:url(#SVGID_14_);}
	.st18{fill:url(#SVGID_15_);}
	.st19{fill:url(#SVGID_16_);}
	.st20{fill:url(#SVGID_17_);}
	.st21{fill:url(#SVGID_18_);}
</style>
<linearGradient id="SVGID_1_" gradientUnits="userSpaceOnUse" x1="724.9144" y1="90.1973" x2="645.7993" y2="11.0821">
	<stop  offset="0" style="stop-color:#0063FF"/>
	<stop  offset="1" style="stop-color:#00C8DE"/>
</linearGradient>
<path class="st0" d="M643.2,23.4v59.3h89.2V23.4H643.2z M682.3,40.8h21.6v6.1h-21.6V40.8z M661.6,57.4c-3.4,0-6.5-1.2-9-3.2
	c1.3-3.7,4.8-6.4,9-6.4c-2.6,0-4.8-2.1-4.8-4.8s2.1-4.8,4.8-4.8s4.8,2.1,4.8,4.8s-2.1,4.8-4.8,4.8c4.2,0,7.7,2.7,9,6.4
	C668.2,56.2,665,57.4,661.6,57.4z M718,53.9h-35.8v-3.1H718V53.9z"/>
<g class="st1">
	<path class="st2" d="M662.7,125.7v-3.7h1v3.7h1.4v1h-1.4v4.7c0.5-0.2,1.1-0.5,1.6-0.8v1c-1.2,0.6-2.6,1.1-4,1.6l-0.3-1
		c0.5-0.1,1.1-0.3,1.6-0.4v-5h-1.5v-1H662.7z M668.6,123.8h2c0.3-0.6,0.4-1.2,0.5-1.9l1,0.1c-0.1,0.6-0.3,1.2-0.6,1.7h1.8v4.7h-7.7
		v-4.7h1.9c-0.2-0.6-0.4-1.1-0.7-1.6l1-0.2C668.2,122.5,668.4,123.1,668.6,123.8z M672.9,134.9h-1v-0.6h-4.7v0.6h-1v-5.4h6.6V134.9z
		 M669.2,124.6h-2.5v3.1h2.5V124.6z M668.6,127l-0.7,0.2c-0.2-0.6-0.4-1.2-0.7-1.8l0.7-0.2C668.1,125.7,668.4,126.3,668.6,127z
		 M672,131.5v-1.2h-4.7v1.2H672z M672,133.5v-1.2h-4.7v1.2H672z M672.5,124.6H670v3.1h2.6V124.6z M671.9,125.3
		c-0.2,0.7-0.4,1.4-0.7,1.9l-0.6-0.2c0.3-0.5,0.5-1.1,0.7-1.9L671.9,125.3z"/>
	<path class="st2" d="M675.5,128.8l-0.3-1.1c1.4-1.7,2.4-3.6,3-5.7l0.9,0.4c-0.3,0.9-0.6,1.8-1,2.6v9.9h-1v-8.1
		C676.6,127.4,676,128.1,675.5,128.8z M684.1,122.1c0,0.4-0.1,0.8-0.1,1.2h3.5v0.9h-3.6c-0.1,0.4-0.1,0.8-0.2,1.2h2.8v8h1.3v0.9
		h-9.2v-0.9h1.4v-8h2.6c0.1-0.4,0.1-0.8,0.2-1.2h-3.6v-0.9h3.7c0-0.5,0.1-0.9,0.1-1.4L684.1,122.1z M685.6,127.5v-1.1h-4.5v1.1
		H685.6z M685.6,129.5v-1.1h-4.5v1.1H685.6z M685.6,131.5v-1.2h-4.5v1.2H685.6z M685.6,133.5v-1.2h-4.5v1.2H685.6z"/>
	<path class="st2" d="M690.1,134.9l-0.8-0.7c0.6-1.3,0.8-2.9,0.9-4.8v-6.7h4.1v10.9c0,0.8-0.4,1.3-1.2,1.3H692l-0.2-0.9
		c0.4,0,0.7,0.1,1.1,0.1c0.3,0,0.5-0.3,0.5-0.8V130h-2.3C691,132,690.6,133.6,690.1,134.9z M693.3,123.5h-2.3v2.4h2.3V123.5z
		 M691.1,129.1h2.3v-2.3h-2.3V129.1z M696.4,134.9h-1v-12.3h5.7c0,1.7-0.1,2.9-0.3,3.4c-0.2,0.6-0.7,0.9-1.6,0.9h-1.1l-0.3-0.9
		c0.2,0,0.5,0,0.9,0c0.3,0,0.6,0,0.7-0.1c0.2-0.1,0.3-0.2,0.4-0.4c0.1-0.3,0.2-1,0.2-2.1h-3.7v4.2h4.8v0.9c-0.3,1.4-0.7,2.7-1.4,3.7
		c0.6,0.6,1.4,1.2,2.2,1.7l-0.5,0.9c-0.9-0.5-1.7-1.1-2.3-1.7c-0.6,0.7-1.3,1.3-2.2,1.7l-0.5-0.8c0.8-0.4,1.5-1,2-1.7
		c-0.9-1.1-1.5-2.3-1.8-3.7h-0.3V134.9z M699.1,131.6c0.5-0.8,0.9-1.8,1.1-2.9h-2.7C697.9,129.7,698.4,130.7,699.1,131.6z"/>
	<path class="st2" d="M708.4,122.1c-0.2,0.4-0.3,0.7-0.5,1.1h6.1v0.8c-0.9,1-2,1.9-3.3,2.6c1.6,0.7,3.3,1.1,5.3,1.3l-0.5,0.9
		c-2.2-0.3-4.2-0.8-5.9-1.7c-1.7,0.8-3.7,1.4-6,1.7l-0.5-1c2-0.3,3.8-0.7,5.4-1.3c-0.8-0.5-1.5-1-2.2-1.6c-0.5,0.5-1.1,0.9-1.8,1.3
		l-0.6-0.8c1.7-1,2.8-2.1,3.4-3.5L708.4,122.1z M709.7,128.2c0,0.6-0.1,1.1-0.1,1.6h4.9c0,2.4-0.2,3.8-0.6,4.2
		c-0.4,0.5-1.1,0.7-2.1,0.7c-0.4,0-1,0-1.6-0.1l-0.3-0.9l1.7,0.1c0.8,0,1.4-0.2,1.6-0.5c0.2-0.3,0.3-1.2,0.4-2.6h-4.1
		c-0.1,0.4-0.3,0.7-0.4,1c-0.7,1.3-2.4,2.3-4.9,3.1l-0.7-0.8c2.3-0.7,3.8-1.5,4.6-2.5c0.2-0.3,0.3-0.5,0.4-0.8h-4.2v-0.9h4.5
		c0.1-0.5,0.2-1,0.2-1.6H709.7z M712.5,124.1h-5.4l-0.2,0.2c0.8,0.7,1.7,1.3,2.6,1.8C710.7,125.6,711.7,124.9,712.5,124.1z"/>
	<path class="st2" d="M720.6,125.2c0.2,0.2,0.3,0.4,0.3,0.6c0,0.2-0.1,0.4-0.3,0.6s-0.4,0.3-0.6,0.3c-0.3,0-0.4-0.1-0.6-0.3
		s-0.2-0.4-0.2-0.6c0-0.3,0.1-0.4,0.2-0.6c0.2-0.2,0.4-0.3,0.6-0.3C720.3,124.9,720.5,125,720.6,125.2z M720.6,130.3
		c0.2,0.2,0.3,0.4,0.3,0.6c0,0.2-0.1,0.4-0.3,0.6c-0.2,0.2-0.4,0.3-0.6,0.3c-0.3,0-0.4-0.1-0.6-0.3c-0.2-0.2-0.2-0.4-0.2-0.6
		c0-0.3,0.1-0.4,0.2-0.6c0.2-0.2,0.4-0.3,0.6-0.3C720.3,130,720.5,130.1,720.6,130.3z"/>
	<path class="st2" d="M608.6,152.5c0.5-1.3,0.8-2.6,0.9-4.1h-3.8v-1h4.7v0.7c-0.1,1.9-0.5,3.6-1.2,5.2c0.6,0.8,1.1,1.6,1.6,2.4
		l-0.7,0.7c-0.4-0.7-0.9-1.4-1.4-2.1c-0.8,1.3-1.8,2.5-3.1,3.6l-0.6-0.9c1.3-1,2.3-2.2,3.1-3.6c-0.8-1.1-1.7-2.1-2.7-3.2l0.7-0.6
		C607.1,150.6,607.9,151.6,608.6,152.5z M614.1,154.4l-0.8,0.6c-0.6-1-1.3-2-2.1-3.1l0.8-0.6C612.9,152.5,613.6,153.5,614.1,154.4z
		 M615.3,148.7V146h1v2.7h1.6v1h-1.6v7.7c0,0.9-0.5,1.4-1.4,1.4h-2.2l-0.2-1c0.7,0,1.4,0.1,2.1,0.1c0.5,0,0.8-0.3,0.8-0.7v-7.5h-4.1
		v-1H615.3z"/>
	<path class="st2" d="M622.5,148.5v4.6c0,1.6-0.3,2.8-0.7,3.8c-0.4,0.9-1.1,1.6-2.1,2l-0.5-0.8c0.9-0.5,1.6-1.1,1.9-1.8
		c0.3-0.8,0.5-1.8,0.5-3.1v-4.6H622.5z M624.5,155.4h-0.9v-7.9h-3v7.9h-0.9v-8.8h4.8V155.4z M624.9,158.1l-0.7,0.7
		c-0.4-0.8-1.1-1.6-1.9-2.4l0.6-0.6C623.8,156.5,624.4,157.3,624.9,158.1z M627.1,152.8v4.8c0.6-0.2,1.3-0.6,1.9-1l0.2,0.9
		c-0.9,0.5-1.8,1-3,1.3l-0.4-0.9c0.2-0.1,0.3-0.2,0.3-0.4v-4.7h-1v-1h1V146h1v5.8h4.7v1h-2.5c0.6,2.2,1.6,3.9,2.8,5.2l-0.7,0.8
		c-1.3-1.3-2.3-3.3-3-5.9H627.1z M631.5,147.3c-1,1.6-2.1,2.7-3.5,3.5l-0.5-0.8c1.3-0.7,2.3-1.8,3.2-3.3L631.5,147.3z"/>
	<path class="st2" d="M636.6,146.3c-0.7,1.8-1.4,3.3-2.2,4.4c0.7-0.1,1.3-0.2,2-0.3c0.3-0.5,0.5-1,0.8-1.6l0.9,0.3
		c-1.3,2.4-2.3,4-3.2,5.1c1.1-0.2,2.1-0.5,3.2-0.8v0.9c-1.5,0.5-3,0.9-4.4,1.1l-0.3-0.9c0.2-0.1,0.3-0.2,0.5-0.3
		c0.5-0.5,1.2-1.5,2-2.8c-0.8,0.1-1.6,0.2-2.4,0.4l-0.3-0.9c0.2-0.1,0.3-0.2,0.4-0.4c0.8-1.3,1.5-2.8,2-4.4L636.6,146.3z M638.3,157
		c-1.4,0.5-3,0.9-4.9,1.3l-0.1-1c1.9-0.3,3.6-0.7,5-1.2V157z M641.5,147.7V146h1v1.7h3.3v1h-3.3v2.1h2.9v1h-6.8v-1h2.9v-2.1h-3.3v-1
		H641.5z M645,158.8h-1v-0.7h-4v0.7h-1v-5.6h6V158.8z M644,157.2v-3.1h-4v3.1H644z"/>
	<path class="st2" d="M658.2,149.2v5.5h-1.7v0.9h3.2v0.9h-3.2v2.4h-1v-2.4h-4c-0.1,0.4-0.3,0.8-0.6,1.1c-0.5,0.5-1.3,1-2.3,1.3
		l-0.5-0.8c1-0.3,1.7-0.6,2.1-1c0.1-0.2,0.2-0.3,0.3-0.5h-3.2v-0.9h3.4c0-0.1,0-0.3,0-0.4v-0.5H649v-5.5H658.2z M648.2,149.4
		l-0.8-0.5c0.9-0.9,1.5-1.9,1.8-2.9l1,0.2c-0.1,0.3-0.2,0.6-0.4,0.8h3.5v0.9h-1.8c0.2,0.3,0.4,0.6,0.6,0.9l-0.8,0.3
		c-0.2-0.4-0.5-0.8-0.8-1.2h-1.1C649.1,148.4,648.7,148.9,648.2,149.4z M657.2,150.8V150H650v0.8H657.2z M657.2,152.3v-0.8H650v0.8
		H657.2z M657.2,153H650v0.9h7.3V153z M651.8,155.2c0,0.1,0,0.3,0,0.4h3.8v-0.9h-3.8V155.2z M654.2,149.1l-0.8-0.5
		c0.7-0.8,1.2-1.7,1.5-2.6l1,0.2l-0.3,0.8h4v0.9h-2.3c0.3,0.3,0.4,0.6,0.6,0.9L657,149c-0.2-0.4-0.5-0.8-0.8-1.2h-1.1
		C654.9,148.2,654.6,148.7,654.2,149.1z"/>
	<path class="st2" d="M662,146l5,12.9h-1l-5-12.9H662z"/>
	<path class="st2" d="M671.5,148.5v4.6c0,1.6-0.3,2.8-0.7,3.8c-0.4,0.9-1.1,1.6-2.1,2l-0.5-0.8c0.9-0.5,1.6-1.1,1.9-1.8
		c0.3-0.8,0.5-1.8,0.5-3.1v-4.6H671.5z M673.5,155.4h-0.9v-7.9h-3v7.9h-0.9v-8.8h4.8V155.4z M673.9,158.1l-0.7,0.7
		c-0.4-0.8-1.1-1.6-1.9-2.4l0.6-0.6C672.8,156.5,673.4,157.3,673.9,158.1z M676.1,152.8v4.8c0.6-0.2,1.3-0.6,1.9-1l0.2,0.9
		c-0.9,0.5-1.8,1-3,1.3l-0.4-0.9c0.2-0.1,0.3-0.2,0.3-0.4v-4.7h-1v-1h1V146h1v5.8h4.7v1h-2.5c0.6,2.2,1.6,3.9,2.8,5.2l-0.7,0.8
		c-1.3-1.3-2.3-3.3-3-5.9H676.1z M680.5,147.3c-1,1.6-2.1,2.7-3.5,3.5l-0.5-0.8c1.3-0.7,2.3-1.8,3.2-3.3L680.5,147.3z"/>
	<path class="st2" d="M682.7,158.9l-0.7-0.7c1.1-1.6,1.7-3.6,1.7-6.1v-4.4h4.6c-0.3-0.6-0.5-1.1-0.8-1.6l1.1-0.2
		c0.3,0.5,0.5,1.1,0.8,1.8h4.4v4.7h-9C684.6,154.9,684,157.1,682.7,158.9z M684.7,148.7v2.7h8v-2.7H684.7z"/>
	<path class="st2" d="M697.1,149.4l-0.9-0.6c0.8-0.9,1.5-1.8,1.8-2.9l1,0.2c-0.1,0.3-0.2,0.6-0.4,0.9h3.8v0.9h-2.4
		c0.3,0.4,0.6,0.8,0.8,1.2l-0.9,0.4c-0.3-0.5-0.6-1.1-0.9-1.6h-0.8C697.9,148.4,697.6,148.9,697.1,149.4z M708.5,152.4h-1v-1.7h-9.9
		v1.7h-1v-2.5h5.5c-0.1-0.3-0.3-0.6-0.4-0.9l1-0.2l-0.1-0.1c0.7-0.8,1.1-1.8,1.5-2.8l1,0.2c-0.1,0.3-0.2,0.6-0.3,0.9h4v0.9h-2.5
		c0.3,0.4,0.5,0.8,0.7,1.1l-0.9,0.3c-0.3-0.5-0.5-1-0.9-1.4h-0.9c-0.3,0.5-0.5,0.9-0.9,1.3l-0.8-0.5c0.2,0.3,0.3,0.7,0.4,1.1h5.3
		V152.4z M706.5,154.3h-7v1h7.6v3.6h-1v-0.6h-6.6v0.6h-1v-7.3h8V154.3z M705.6,153.5v-1.1h-6v1.1H705.6z M706.2,157.4v-1.3h-6.6v1.3
		H706.2z"/>
	<path class="st2" d="M711.9,151.2v-3.3h-1.7v-1h4.5v1H713v3.3h1.5v1H713v3.2c0.5-0.2,1-0.4,1.5-0.6v1c-1.3,0.5-2.7,1-4.2,1.3
		l-0.3-1c0.6-0.1,1.2-0.3,1.8-0.4v-3.5h-1.5v-1H711.9z M722.2,146.6v6.5h-2.9v1.7h3.2v1h-3.2v1.8h3.7v1h-8.4v-1h3.8v-1.8h-3.2v-1
		h3.2V153h-2.9v-6.5H722.2z M718.3,149.4v-1.9h-2v1.9H718.3z M718.3,150.3h-2v1.9h2V150.3z M719.3,149.4h1.9v-1.9h-1.9V149.4z
		 M721.2,150.3h-1.9v1.9h1.9V150.3z"/>
	<path class="st2" d="M725,146l5,12.9h-1l-5-12.9H725z"/>
	<path class="st2" d="M734.8,152.6c-0.1,0.3-0.2,0.5-0.3,0.8h2.9v0.8c-0.3,0.9-0.8,1.7-1.6,2.4c0.7,0.3,1.3,0.6,1.9,1l-0.5,0.8
		c-0.6-0.4-1.3-0.7-2.2-1.1c-0.9,0.6-2.1,1.2-3.5,1.6l-0.5-0.8c1.1-0.3,2.1-0.7,3-1.1c-0.6-0.3-1.3-0.5-1.9-0.8
		c0.4-0.6,0.7-1.2,1-1.8h-1.7v-0.9h2c0.1-0.3,0.2-0.6,0.3-0.9L734.8,152.6z M734.2,148.7V146h0.9v2.7h2.5v0.9h-2.5v0.2
		c0.8,0.4,1.5,0.8,2.3,1.3l-0.5,0.8c-0.7-0.6-1.3-1-1.8-1.3v1.8h-0.9v-2.7c-0.5,1.1-1.3,2.1-2.5,2.9l-0.5-0.8
		c1.1-0.6,1.8-1.3,2.3-2.1h-2v-0.9H734.2z M733.4,148l-0.7,0.3c-0.3-0.7-0.6-1.3-0.9-1.8l0.8-0.3C732.9,146.8,733.2,147.4,733.4,148
		z M736.5,154.3h-2.4c-0.2,0.5-0.5,0.9-0.8,1.3c0.6,0.2,1.1,0.4,1.6,0.6C735.6,155.7,736.2,155,736.5,154.3z M737.5,146.6
		c-0.3,0.6-0.6,1.2-1.1,1.8l-0.7-0.4c0.4-0.6,0.8-1.2,1.1-1.8L737.5,146.6z M739.1,151.4c-0.3,0.6-0.5,1.2-0.8,1.7l-0.6-0.8
		c0.8-1.6,1.4-3.7,1.7-6.3l1,0.2c-0.1,0.7-0.2,1.4-0.3,2h3.7v1h-0.9c-0.1,2.3-0.5,4.3-1.3,6c0.7,1.3,1.6,2.2,2.6,2.9l-0.5,0.8
		c-1-0.7-1.8-1.7-2.5-2.8c-0.7,1.1-1.5,2.1-2.6,2.8l-0.5-0.8c1.1-0.8,1.9-1.7,2.6-2.9C739.9,154,739.4,152.8,739.1,151.4z
		 M739.6,149.8c0.3,1.6,0.8,3.1,1.4,4.2c0.5-1.4,0.8-3.1,0.9-5h-2.1L739.6,149.8z"/>
	<path class="st2" d="M745.6,158.7l-0.2-1c0.4,0,0.7,0.1,1.1,0.1c0.4,0,0.5-0.2,0.5-0.6v-3.4c-0.6,0.2-1.1,0.4-1.7,0.6l-0.3-1
		c0.6-0.2,1.3-0.4,1.9-0.6v-3.2h-1.7v-1h1.7V146h1v2.6h1.3v1H748v2.8c0.4-0.2,0.9-0.4,1.3-0.6v1c-0.4,0.2-0.9,0.4-1.3,0.6v4.1
		c0,0.8-0.4,1.2-1.2,1.2H745.6z M749.4,158.9l-0.8-0.7c1-1.8,1.5-4.3,1.5-7.2v-4.4h7.4v3.4h-2.6v1.7h3v0.9h-3v1.7h2.4v4.6h-0.9v-0.7
		h-3.8v0.7h-0.9v-4.6h2.3v-1.7H751C750.8,154.9,750.3,157,749.4,158.9z M751.1,150v1c0,0.2,0,0.4,0,0.7h2.8V150H751.1z M751.1,147.5
		v1.6h5.4v-1.6H751.1z M756.3,157.3v-2.1h-3.8v2.1H756.3z"/>
	<path class="st2" d="M764.5,146.8c-0.7,1.2-1.3,2.1-2,2.9c-0.7,0.8-1.6,1.6-2.8,2.4l-0.5-0.9c1-0.5,1.8-1.3,2.6-2.1
		c0.7-0.8,1.3-1.7,1.8-2.8L764.5,146.8z M761.2,152.5v-1h8.4c0,1.8-0.1,3.2-0.3,4.2c-0.1,1.1-0.4,1.8-0.7,2.2
		c-0.3,0.4-0.8,0.6-1.5,0.7h-2.5l-0.3-1c0.8,0,1.6,0,2.3,0c0.8,0,1.2-0.3,1.5-1c0.3-0.7,0.4-2.1,0.5-4.3h-3.5
		c-0.3,1.5-0.8,2.7-1.4,3.6c-0.7,1-1.8,1.9-3.2,2.7l-0.6-0.8c1.3-0.7,2.3-1.5,2.9-2.3c0.6-0.8,1-1.9,1.3-3.2H761.2z M771.9,151.2
		l-0.7,0.8c-2.2-1.4-3.7-3.2-4.5-5.4l0.9-0.5C768.3,148.3,769.8,150,771.9,151.2z"/>
	<path class="st2" d="M776.4,158.8h-1v-7.2c-0.5,1.4-1.1,2.7-1.9,3.9l-0.4-1.1c1.1-1.4,1.8-3,2.3-4.7h-2v-1h2V146h1v2.7h1.9v1h-1.9
		v0.8c0.7,0.7,1.3,1.5,2,2.3l-0.5,0.8c-0.6-0.9-1.1-1.6-1.5-2.1V158.8z M785.4,147c-1.6,0.6-3.4,0.9-5.3,1v2.5h5.7v1h-2.1v7.4h-1
		v-7.4h-2.6v0.2c-0.1,3-0.8,5.4-2.1,7.1l-0.7-0.7c1.1-1.5,1.8-3.7,1.9-6.4v-4.5c2.2-0.1,4.1-0.4,5.8-1L785.4,147z"/>
</g>
<g class="st1">
	<path class="st2" d="M371.9,122v1.8h5.5v1h-5.5v2.1h3.8v0.9c-0.8,1.6-1.9,2.9-3.4,4c0.7,0.4,1.5,0.8,2.3,1.1c1,0.4,2.1,0.7,3.2,1
		l-0.6,0.9c-1.2-0.3-2.4-0.7-3.4-1.2c-0.9-0.4-1.6-0.8-2.3-1.2c-1.6,1-3.5,1.8-5.7,2.4l-0.6-0.9c2.1-0.5,4-1.2,5.5-2.1
		c-0.7-0.5-1.4-1.2-1.9-1.9c-0.5-0.6-0.9-1.4-1.1-2.1h-1.1V127h4.4v-2.1h-5.4v-1h5.4V122H371.9z M374.5,127.9h-6
		c0.3,0.7,0.6,1.4,1.2,2c0.5,0.6,1.1,1.1,1.7,1.5C372.7,130.4,373.8,129.2,374.5,127.9z"/>
	<path class="st2" d="M383,122.3c-0.3,1-0.7,1.9-1.1,2.8v9.8h-1v-8.1c-0.5,0.7-1.1,1.4-1.7,2.1l-0.3-1.1c1.5-1.7,2.6-3.7,3.2-5.9
		L383,122.3z M388.7,125v-3h1v3h2v1h-2v7.3c0,1-0.4,1.4-1.3,1.4h-2l-0.2-1c0.7,0,1.3,0.1,1.9,0.1c0.4,0,0.7-0.3,0.7-0.8V126h-5.4v-1
		H388.7z M387.1,130.9l-0.9,0.6c-0.6-1-1.4-2.2-2.4-3.4l0.8-0.5C385.7,128.8,386.5,129.9,387.1,130.9z"/>
	<path class="st2" d="M399.8,134.6c-0.9,0-1.6-0.1-2.2-0.3c-0.5-0.2-1-0.5-1.5-1c-0.2-0.2-0.4-0.3-0.5-0.3c-0.4,0-0.9,0.6-1.7,2
		l-0.8-0.7c0.8-1.2,1.4-1.9,2-2.2v-4.3h-2v-0.9h2.9v5.2c0.1,0.1,0.2,0.2,0.3,0.3c0.3,0.4,0.7,0.7,1.1,0.9c0.4,0.2,1.1,0.3,1.9,0.3
		c0.7,0,1.7,0,2.7,0c0.7,0,1.4,0,2.1,0c0.7,0,1.2,0,1.6-0.1l-0.3,1h-3.2C401.5,134.6,400.7,134.6,399.8,134.6z M396.5,124.4
		l-0.7,0.7c-0.6-0.7-1.4-1.4-2.4-2.2l0.7-0.7C395.1,123,395.9,123.7,396.5,124.4z M402.1,122v1.8h2.8v1h-2.8v2h3.3v1H403v3.8
		c0,0.3,0.1,0.4,0.4,0.4h0.5c0.2,0,0.3,0,0.4-0.1c0.2-0.1,0.3-0.7,0.3-1.7l0.9,0.3c-0.1,1.2-0.2,1.8-0.4,2.1c-0.2,0.2-0.5,0.3-1,0.3
		h-1c-0.4,0-0.6-0.1-0.8-0.3c-0.2-0.2-0.3-0.4-0.3-0.8v-4h-1.4c0,1-0.2,1.8-0.4,2.5c-0.4,1.1-1.2,1.9-2.5,2.6l-0.7-0.8
		c1.1-0.6,1.9-1.3,2.2-2.1c0.2-0.6,0.4-1.4,0.4-2.2h-2.3v-1h3.6v-2h-2.3c-0.3,0.5-0.5,1-0.8,1.5l-0.9-0.5c0.8-1.1,1.3-2.2,1.6-3.5
		l1,0.2c-0.1,0.5-0.3,1-0.5,1.4h1.8V122H402.1z"/>
	<path class="st2" d="M407.4,134.7l-0.2-1c0.4,0,0.7,0.1,1.1,0.1c0.4,0,0.6-0.2,0.6-0.6v-3.4c-0.6,0.2-1.1,0.4-1.7,0.5l-0.3-1
		c0.7-0.2,1.3-0.3,1.9-0.5v-3.2h-1.7v-1h1.7V122h1v2.6h1.6v1h-1.6v2.8c0.5-0.2,1.1-0.5,1.6-0.7v1c-0.5,0.3-1,0.5-1.6,0.7v4
		c0,0.8-0.4,1.2-1.2,1.2H407.4z M418.8,122.6v0.8c-0.4,1.1-1.1,2-2.2,2.8c0.9,0.4,2,0.7,3.3,0.9l-0.4,0.9c-1.5-0.2-2.8-0.6-3.8-1.2
		c-1,0.5-2.2,1-3.5,1.3l-0.5-0.9c1.2-0.3,2.2-0.6,3.1-1c-0.9-0.7-1.5-1.6-1.9-2.7h-0.7v-0.9H418.8z M415.2,129v-1.2h1v1.2h2.8v0.9
		h-2.8v1.6h3.5v0.9h-3.5v2.2h-1v-2.2h-3.5v-0.9h3.5V130h-2.8V129H415.2z M415.7,125.6c1-0.6,1.6-1.3,2.1-2.2h-3.9
		C414.3,124.3,414.9,125.1,415.7,125.6z"/>
	<path class="st2" d="M424.5,125.2c0.2,0.2,0.3,0.4,0.3,0.6c0,0.2-0.1,0.4-0.3,0.6s-0.4,0.3-0.6,0.3c-0.3,0-0.4-0.1-0.6-0.3
		s-0.2-0.4-0.2-0.6c0-0.3,0.1-0.4,0.2-0.6c0.2-0.2,0.4-0.3,0.6-0.3C424.1,124.9,424.3,125,424.5,125.2z M424.5,130.3
		c0.2,0.2,0.3,0.4,0.3,0.6c0,0.2-0.1,0.4-0.3,0.6c-0.2,0.2-0.4,0.3-0.6,0.3c-0.3,0-0.4-0.1-0.6-0.3c-0.2-0.2-0.2-0.4-0.2-0.6
		c0-0.3,0.1-0.4,0.2-0.6c0.2-0.2,0.4-0.3,0.6-0.3C424.1,130,424.3,130.1,424.5,130.3z"/>
	<path class="st2" d="M329.3,146.5c-0.6,1.5-1.6,2.8-2.9,4l-0.3-1c1.1-1,1.8-2.1,2.3-3.4L329.3,146.5z M329.4,150.2
		c-0.2,0.5-0.4,1.1-0.7,1.5v7.1h-0.9v-5.8c-0.4,0.5-0.8,0.9-1.3,1.3l-0.3-1c1.1-1.1,1.9-2.3,2.4-3.6L329.4,150.2z M332.5,157.2
		c0.1-0.1,0.2-0.2,0.3-0.4v-2.5h-1.5v0.6c0,1.8-0.5,3.1-1.3,3.9l-0.7-0.6c0.7-0.8,1.1-1.8,1.1-3.3v-1.5h3.3v3.1
		c0.4-0.3,0.8-0.7,1.2-1.1l0.2,0.9c-0.7,0.8-1.4,1.4-2.2,1.8L332.5,157.2z M334.2,151.3v0.9h-4.4v-0.9H334.2z M332.5,146v3.2h1v-2.4
		h0.8v3.3h-4.5v-3.3h0.8v2.4h1V146H332.5z M335.5,151.6c-0.3,0.7-0.5,1.3-0.8,1.8l-0.6-0.7c0.8-1.7,1.4-3.9,1.7-6.7l0.9,0.2
		c-0.1,0.8-0.2,1.5-0.3,2.1h2.6v0.9h-0.6c-0.1,2.4-0.4,4.4-1.1,6.1c0.5,1.1,1.1,2,1.8,2.7l-0.6,0.9c-0.7-0.6-1.2-1.5-1.7-2.6
		c-0.5,1-1.2,1.9-2,2.6l-0.5-0.8c0.9-0.7,1.6-1.7,2.1-2.9C336.1,154.1,335.7,152.9,335.5,151.6z M335.9,150.1
		c0.2,1.5,0.5,2.7,0.9,3.8c0.4-1.4,0.6-3,0.7-4.8h-1.4C336.1,149.5,336,149.8,335.9,150.1z"/>
	<path class="st2" d="M340.4,152.8l-0.3-1.1c1.4-1.7,2.4-3.6,3-5.8l0.9,0.4c-0.3,1.1-0.7,2.1-1.2,3v9.5h-1V151
		C341.4,151.6,340.9,152.2,340.4,152.8z M348.3,147.9c-0.2-0.6-0.4-1.1-0.7-1.6l1-0.3c0.3,0.6,0.5,1.2,0.7,1.7l-0.5,0.2h4.4v1H344
		v-1H348.3z M352.2,158.9h-1v-0.8H346v0.8h-1V154h7.1V158.9z M351.9,149.9v0.9h-6.6v-0.9H351.9z M351.9,151.9v0.9h-6.6v-0.9H351.9z
		 M351.2,157.1v-2.2H346v2.2H351.2z"/>
	<path class="st2" d="M361.2,146v1.8h5.5v1h-5.5v2.1h3.8v0.9c-0.8,1.6-1.9,2.9-3.4,4c0.7,0.4,1.5,0.8,2.3,1.1c1,0.4,2.1,0.7,3.2,1
		l-0.6,0.9c-1.2-0.3-2.4-0.7-3.4-1.2c-0.9-0.4-1.6-0.8-2.3-1.2c-1.6,1-3.5,1.8-5.7,2.4l-0.6-0.9c2.1-0.5,4-1.2,5.5-2.1
		c-0.7-0.5-1.4-1.2-1.9-1.9c-0.5-0.6-0.9-1.4-1.1-2.1h-1.1V151h4.4v-2.1h-5.4v-1h5.4V146H361.2z M363.8,151.9h-6
		c0.3,0.7,0.6,1.4,1.2,2c0.5,0.6,1.1,1.1,1.7,1.5C362,154.4,363.1,153.2,363.8,151.9z"/>
	<path class="st2" d="M372.3,146.3c-0.3,1-0.7,1.9-1.1,2.8v9.8h-1v-8.1c-0.5,0.7-1.1,1.4-1.7,2.1l-0.3-1.1c1.5-1.7,2.6-3.7,3.2-5.9
		L372.3,146.3z M378,149v-3h1v3h2v1h-2v7.3c0,1-0.4,1.4-1.3,1.4h-2l-0.2-1c0.7,0,1.3,0.1,1.9,0.1c0.4,0,0.7-0.3,0.7-0.8V150h-5.4v-1
		H378z M376.4,154.9l-0.9,0.6c-0.6-1-1.4-2.2-2.4-3.4l0.8-0.5C375,152.8,375.8,153.9,376.4,154.9z"/>
	<path class="st2" d="M383.2,146l5,12.9h-1l-5-12.9H383.2z"/>
	<path class="st2" d="M397.6,148.8c0.8,1,1.2,2.2,1.2,3.7c0,1.5-0.4,2.7-1.2,3.7c0,0-0.1,0.1-0.1,0.1c0.4,0.5,0.8,1,1.1,1.6
		l-0.8,0.7c-0.4-0.6-0.8-1.1-1.1-1.6c-0.8,0.5-1.7,0.8-2.7,0.8c-1.5,0-2.7-0.5-3.5-1.5c-0.8-1-1.2-2.2-1.2-3.7
		c0-1.5,0.4-2.7,1.2-3.7c0.9-1,2-1.5,3.6-1.5C395.5,147.3,396.7,147.7,397.6,148.8z M391.3,149.5c-0.6,0.8-0.9,1.8-0.9,3
		c0,1.2,0.3,2.2,0.9,3c0.6,0.8,1.6,1.2,2.7,1.2c0.8,0,1.5-0.2,2.1-0.6c-0.6-0.7-1.1-1.4-1.7-2l0.7-0.7c0.6,0.6,1.1,1.3,1.7,1.9
		c0.6-0.7,0.8-1.7,0.8-2.9c0-1.3-0.3-2.3-0.9-3c-0.6-0.8-1.5-1.1-2.7-1.1S392,148.7,391.3,149.5z"/>
	<path class="st2" d="M408.3,148.8c0.8,1,1.2,2.2,1.2,3.7c0,1.5-0.4,2.7-1.2,3.7c0,0-0.1,0.1-0.1,0.1c0.4,0.5,0.8,1,1.1,1.6
		l-0.8,0.7c-0.4-0.6-0.8-1.1-1.1-1.6c-0.8,0.5-1.7,0.8-2.7,0.8c-1.5,0-2.7-0.5-3.5-1.5c-0.8-1-1.2-2.2-1.2-3.7
		c0-1.5,0.4-2.7,1.2-3.7c0.9-1,2-1.5,3.6-1.5C406.3,147.3,407.5,147.7,408.3,148.8z M402.1,149.5c-0.6,0.8-0.9,1.8-0.9,3
		c0,1.2,0.3,2.2,0.9,3c0.6,0.8,1.6,1.2,2.7,1.2c0.8,0,1.5-0.2,2.1-0.6c-0.6-0.7-1.1-1.4-1.7-2l0.7-0.7c0.6,0.6,1.1,1.3,1.7,1.9
		c0.6-0.7,0.8-1.7,0.8-2.9c0-1.3-0.3-2.3-0.9-3c-0.6-0.8-1.5-1.1-2.7-1.1S402.7,148.7,402.1,149.5z"/>
	<path class="st2" d="M413.6,146.2c-0.1,0.5-0.3,0.9-0.4,1.4h2.6v1h-3c-0.4,1-0.8,1.8-1.3,2.6l-0.8-0.5c0.9-1.4,1.5-2.9,1.9-4.6
		L413.6,146.2z M415.4,150.3v0.9h-1.3v1.8h1.9v0.9h-1.9v3.1c0.7-0.3,1.4-0.7,2.1-1.2l0.2,0.9c-1,0.7-2,1.2-3.3,1.7l-0.4-0.9
		c0.3-0.1,0.4-0.2,0.4-0.4V154h-2v-0.9h2v-1.8h-0.9v-0.9H415.4z M422.8,149.4l-3.4,0.5c0,0.7,0.1,1.3,0.1,1.9l3.5-0.6l0.2,1
		l-3.5,0.6c0,0.2,0.1,0.4,0.1,0.7c0.1,0.7,0.3,1.3,0.5,1.8c0.7-0.7,1.3-1.4,1.8-2.2l0.8,0.5c-0.7,1-1.4,1.9-2.2,2.6
		c0.1,0.1,0.1,0.3,0.2,0.4c0.4,0.7,0.8,1,1.2,1c0.3,0,0.6-0.7,0.8-2.1l0.9,0.6c-0.4,1.8-0.9,2.6-1.6,2.6c-0.6,0-1.3-0.4-1.9-1.3
		c-0.1-0.2-0.2-0.4-0.3-0.5c-1.1,0.9-2.3,1.6-3.6,1.9l-0.6-0.8c1.4-0.5,2.7-1.1,3.8-2c-0.3-0.6-0.4-1.3-0.6-2
		c-0.1-0.3-0.1-0.7-0.2-1l-2.3,0.4l-0.1-1l2.3-0.4c-0.1-0.6-0.1-1.3-0.1-1.9l-1.9,0.3l-0.2-0.9l2-0.3V146h1v3l3.3-0.5L422.8,149.4z
		 M422.4,147.7l-0.8,0.5c-0.4-0.5-0.8-1.1-1.5-1.7l0.8-0.5C421.5,146.6,422,147.2,422.4,147.7z"/>
	<path class="st2" d="M429.2,146.1c-0.2,0.5-0.4,1-0.6,1.4h7.8c0,3.5-0.1,5.7-0.2,6.6c-0.1,0.9-0.7,1.3-1.6,1.3c-0.2,0-0.5,0-0.9,0
		l-0.2-0.9c0.4,0,0.7,0.1,1,0.1c0.5,0,0.7-0.3,0.8-0.8c0.1-0.6,0.1-2.3,0.2-5.2h-7.3c-0.7,1.1-1.5,2.2-2.4,3l-0.7-0.8
		c1.3-1.2,2.4-2.8,3.2-4.8L429.2,146.1z M433,154.5h-5.1v2.6c0,0.4,0.2,0.6,0.7,0.6h6.7c0.3,0,0.5-0.2,0.7-0.4
		c0.1-0.2,0.2-0.8,0.3-1.7l1,0.3c-0.1,0.9-0.2,1.5-0.3,1.8c-0.2,0.6-0.6,0.8-1.3,0.9h-7.4c-0.9,0-1.3-0.4-1.3-1.2v-7.2h6.1V154.5z
		 M432,153.6v-2.4h-4v2.4H432z"/>
	<path class="st2" d="M439.6,146l5,12.9h-1l-5-12.9H439.6z"/>
	<path class="st2" d="M448.5,146.2c-0.1,0.5-0.3,0.9-0.4,1.4h2.7v1h-3.1c-0.4,1-0.8,1.8-1.3,2.6l-0.8-0.5c0.9-1.4,1.5-2.9,1.8-4.7
		L448.5,146.2z M450.5,150.3v0.9h-1.5v1.8h1.9v0.9h-1.9v3.3c0.5-0.2,1-0.4,1.6-0.7l0.2,0.9c-0.8,0.4-1.7,0.8-2.8,1l-0.4-0.8
		c0.3-0.1,0.5-0.2,0.5-0.4V154h-2.1v-0.9h2.1v-1.8h-0.9v-0.9H450.5z M458.4,153.9c-0.6,0.8-1.3,1.3-2.1,1.7c0.6,0.9,1.3,1.7,2.3,2.3
		l-0.5,0.9c-2.1-1.5-3.4-3.6-3.9-6.2h-1.6v4.9c0.8-0.2,1.6-0.5,2.4-0.9l0.2,0.9c-1,0.4-2.2,0.8-3.7,1.2l-0.2-0.8
		c0.2-0.1,0.3-0.2,0.3-0.3v-10.9h5.9v5.9h-2.5c0.2,0.9,0.4,1.6,0.8,2.3c0.7-0.4,1.3-0.9,1.9-1.6L458.4,153.9z M456.6,147.5h-4v1.6h4
		V147.5z M452.6,151.6h4V150h-4V151.6z"/>
	<path class="st2" d="M465.4,146.6v0.9h-0.9v7.7c0.3-0.1,0.6-0.2,0.9-0.3v1c-0.3,0.1-0.6,0.2-0.9,0.3v2.8h-1v-2.5
		c-1.1,0.3-2.3,0.5-3.5,0.8l-0.3-1l0.9-0.1v-8.6h-0.9v-0.9H465.4z M463.5,149.6v-2.1h-1.9v2.1H463.5z M463.5,152.5v-2h-1.9v2H463.5z
		 M463.5,155.5v-2.1h-1.9v2.5C462.2,155.8,462.9,155.6,463.5,155.5z M469.1,149.1c0.5-0.9,1-1.9,1.4-3l0.9,0.3
		c-0.4,1.1-0.8,1.9-1.3,2.7h2.1v1h-2.9v0.4c0,0.7,0,1.4-0.1,2h3.2v1h-2.9c0.3,1.5,1.4,3.1,3.1,4.7l-0.7,0.7c-1.6-1.6-2.6-3.2-3-4.7
		c-0.5,2.2-1.6,3.8-3.2,4.8l-0.6-0.8c1.6-1,2.6-2.5,3-4.7h-2.7v-1h2.8c0.1-0.6,0.1-1.1,0.1-1.8V150h-2.7v-1H469.1z M468.3,148.3
		l-0.8,0.5c-0.3-0.7-0.8-1.4-1.3-2.2l0.8-0.5C467.5,146.9,468,147.7,468.3,148.3z"/>
</g>
<g class="st1">
	<path class="st2" d="M65.7,122.5c-1,2.9-2.4,5.2-4.1,6.7l-0.8-0.7c1.8-1.6,3.1-3.7,4-6.4L65.7,122.5z M72.3,134.4l-0.9,0.4
		c-0.2-0.5-0.4-0.9-0.6-1.3c-2.5,0.4-5.2,0.7-8.3,0.9l-0.2-1c1.1-0.6,2.5-2.8,4.2-6.6l1,0.3c-1.2,2.7-2.4,4.7-3.6,6.3
		c2.3-0.1,4.4-0.4,6.4-0.7c-0.5-1-1.1-1.9-1.7-2.8l0.9-0.3C70.6,131.1,71.6,132.7,72.3,134.4z M73.5,128.4l-0.7,0.8
		c-2.1-1.7-3.5-4-4.4-6.7l0.9-0.5C70.1,124.7,71.5,126.8,73.5,128.4z"/>
	<path class="st2" d="M78.2,124.9v-2.9h1v2.9h4V122h1v2.9h2.6v1h-2.6v3.4h3.2v1H74.9v-1h3.2v-3.4h-2.5v-1H78.2z M79.9,131.4
		c-1.2,1.3-2.6,2.5-4.3,3.5l-0.7-0.9c1.7-0.9,3.1-2,4.3-3.2L79.9,131.4z M83.1,129.2v-3.4h-4v3.4H83.1z M87.4,134l-0.8,0.8
		c-1-1.1-2.4-2.2-4.1-3.4l0.7-0.7C84.9,131.8,86.3,132.9,87.4,134z"/>
	<path class="st2" d="M91.7,122.4c-0.6,1.8-1.2,3.3-1.8,4.4c0.5-0.1,0.9-0.2,1.4-0.3c0.2-0.5,0.4-1,0.7-1.6l0.9,0.3
		c-1,2.4-1.9,4.1-2.5,5.1c0.7-0.2,1.4-0.4,2.2-0.8v0.9c-1.1,0.5-2.2,0.9-3.3,1l-0.3-0.9c0.2-0.1,0.3-0.2,0.5-0.3
		c0.4-0.6,1-1.6,1.6-2.9c-0.6,0.2-1.3,0.3-1.9,0.4l-0.2-0.9c0.2-0.1,0.3-0.2,0.4-0.4c0.6-1.3,1.1-2.8,1.6-4.4L91.7,122.4z M92.5,133
		c-1,0.5-2.2,1-3.5,1.3l-0.1-1c1.4-0.3,2.6-0.7,3.6-1.3V133z M94,123.2c0.1-0.4,0.3-0.8,0.3-1.3l0.9,0.1c-0.1,0.4-0.2,0.8-0.3,1.1
		h1.7v4.3H95l0.4,1.2H97v0.9h-2.3c-0.1,0.4-0.1,0.8-0.2,1.1h2c0,1.8-0.1,2.9-0.3,3.3c-0.2,0.4-0.5,0.6-1,0.6h-0.8l-0.2-0.8h0.8
		c0.3,0,0.4-0.2,0.5-0.4c0.1-0.3,0.1-0.9,0.1-1.8h-1.3c-0.1,0.4-0.2,0.7-0.3,1.1c-0.3,0.8-0.8,1.5-1.4,2.2l-0.6-0.7
		c0.5-0.6,0.9-1.2,1.2-1.8c0.2-0.7,0.4-1.5,0.6-2.6h-1.3v-0.9h1.9l-0.4-1.2H93v-4.3H94z M95.8,125v-1h-2v1H95.8z M95.8,125.7h-2v1.1
		h2V125.7z M97.7,127.5c-0.2,0.4-0.4,0.7-0.6,1l-0.5-0.7c0.8-1.5,1.3-3.4,1.6-5.9l0.9,0.2c-0.1,0.9-0.3,1.7-0.4,2.4h2.7v0.9h-0.7
		c-0.1,2.3-0.4,4.2-0.9,5.8c0.5,1.1,1.2,2,1.9,2.6l-0.6,0.8c-0.7-0.6-1.3-1.4-1.8-2.4c-0.5,1-1.1,1.8-1.8,2.5L97,134
		c0.7-0.7,1.3-1.6,1.8-2.7C98.4,130.2,98,128.9,97.7,127.5z M98.2,126.2c0.2,1.5,0.6,2.8,1,3.9c0.4-1.3,0.5-2.8,0.6-4.6h-1.4
		L98.2,126.2z"/>
	<path class="st2" d="M109.8,130.3c-0.2,1.6-0.6,2.7-1.3,3.2c-0.7,0.7-2.3,1.1-4.9,1.3l-0.4-0.9c2.2-0.1,3.7-0.4,4.4-1
		c0.6-0.5,1-1.5,1.1-2.7L109.8,130.3z M111.1,126.1h3.8c0,1-0.1,1.7-0.3,1.9c-0.2,0.3-0.7,0.5-1.5,0.5c-0.2,0-0.4,0-0.6,0l-0.2-0.7
		c0.3,0,0.5,0,0.7,0c0.4,0,0.7-0.1,0.8-0.2c0.1-0.1,0.1-0.4,0.1-0.7h-2.8v1.6h-1v-1.6h-2.5c-0.2,0.3-0.4,0.7-0.7,0.9
		c-0.4,0.4-1.1,0.8-1.9,1.1h8.6v3.8h-1v-2.9h-6.9v2.9h-1v-3.7c-0.4,0.1-0.7,0.2-1.1,0.3l-0.5-0.8c1.4-0.3,2.4-0.7,3-1.2
		c0.1-0.1,0.2-0.2,0.3-0.3h-2.8l0.5-2.5h2.8v-0.9h-3.2v-0.8h3.2V122h1v0.7h2V122h1v0.7h3.1v2.5h-3.1V126.1z M104.9,126.1h2.1
		c0.1-0.3,0.1-0.6,0.2-0.9h-2L104.9,126.1z M108,126.1h2.2v-0.9h-2C108.1,125.5,108,125.8,108,126.1z M108.1,124.4h2v-0.9h-2V124.4z
		 M115.1,134.1l-0.5,0.8c-1.6-0.7-3.2-1.3-4.9-1.7l0.5-0.8C111.9,132.9,113.6,133.4,115.1,134.1z M111.1,124.4h2.1v-0.9h-2.1V124.4z
		"/>
	<path class="st2" d="M117.2,134.7l-0.2-1c0.4,0,0.7,0.1,1.1,0.1c0.4,0,0.6-0.2,0.6-0.5v-3.4c-0.6,0.2-1.1,0.4-1.7,0.6l-0.3-1
		c0.7-0.2,1.3-0.4,2-0.6v-3.1h-1.7v-1h1.7V122h1v2.6h1.2v1h-1.2v2.7c0.4-0.2,0.8-0.4,1.2-0.6v1c-0.4,0.2-0.8,0.4-1.2,0.6v4.1
		c0,0.8-0.4,1.2-1.2,1.2H117.2z M125.1,127.9c-0.1,0.4-0.3,0.7-0.5,1.1h4.8v1h-1.5c-0.2,1-0.6,1.9-1.3,2.6c1,0.4,1.9,0.9,2.8,1.4
		l-0.5,0.8c-0.8-0.5-1.8-1-2.9-1.6c-0.9,0.7-2.4,1.2-4.4,1.6l-0.4-0.9c1.6-0.3,2.9-0.7,3.8-1.2c-0.9-0.4-1.8-0.8-2.7-1.2
		c0.4-0.6,0.7-1.1,1-1.7h-1.9v-1h2.4c0.2-0.4,0.4-0.8,0.5-1.2L125.1,127.9z M124.6,126.4h1.4c0.4-0.7,0.7-1.4,1-2.2l1,0.3
		c-0.3,0.7-0.6,1.3-0.9,1.9h2.3v1h-7.8v-1h2.1c-0.3-0.6-0.6-1.2-0.9-1.7l0.8-0.4C123.9,125,124.2,125.7,124.6,126.4z M125.9,123.3
		h3.1v0.9h-7.2v-0.9h3.1c-0.2-0.4-0.3-0.8-0.5-1.2l1.1-0.2C125.6,122.3,125.7,122.8,125.9,123.3z M124.2,130
		c-0.3,0.4-0.5,0.9-0.8,1.2c0.8,0.3,1.6,0.6,2.4,1c0.6-0.6,1.1-1.3,1.3-2.2H124.2z"/>
	<path class="st2" d="M134.2,122.5l0.8-0.5c1.2,0.9,2.3,2.5,3.2,4.7c1.3,3.3,3.1,5.7,5.3,7.1l-0.6,0.8c-2.3-1.4-4.1-3.9-5.6-7.6
		c-0.1-0.2-0.2-0.4-0.2-0.6c-0.9,3.6-2.9,6.3-5.8,8.2l-0.6-0.9c3-2,4.9-4.8,5.8-8.5C135.9,124.1,135.1,123.2,134.2,122.5z"/>
	<path class="st2" d="M148.3,125.2c0.2,0.2,0.3,0.4,0.3,0.6c0,0.2-0.1,0.4-0.3,0.6s-0.4,0.3-0.6,0.3c-0.3,0-0.4-0.1-0.6-0.3
		s-0.2-0.4-0.2-0.6c0-0.3,0.1-0.4,0.2-0.6c0.2-0.2,0.4-0.3,0.6-0.3C147.9,124.9,148.1,125,148.3,125.2z M148.3,130.3
		c0.2,0.2,0.3,0.4,0.3,0.6c0,0.2-0.1,0.4-0.3,0.6c-0.2,0.2-0.4,0.3-0.6,0.3c-0.3,0-0.4-0.1-0.6-0.3c-0.2-0.2-0.2-0.4-0.2-0.6
		c0-0.3,0.1-0.4,0.2-0.6c0.2-0.2,0.4-0.3,0.6-0.3C147.9,130,148.1,130.1,148.3,130.3z"/>
	<path class="st2" d="M51.7,149.6v0.8c-0.7,3.1-2.2,5.4-4.3,7l-0.6-0.8c1.9-1.4,3.2-3.4,4-6h-3.6v-1H51.7z M58.8,148.8
		c-1.1,1.3-2.2,2.5-3.4,3.4c1.1,1.8,2.5,3.2,4.3,4.4l-0.6,0.9c-2.4-1.9-4.2-4-5.2-6.5v6.4c0,0.9-0.4,1.3-1.2,1.3h-1.8l-0.2-1
		c0.6,0,1.2,0.1,1.7,0.1c0.4,0,0.6-0.2,0.6-0.6V146h1v3c0.3,0.9,0.7,1.7,1.1,2.5c1.1-0.9,2.2-2,3.1-3.2L58.8,148.8z"/>
	<path class="st2" d="M61.7,146l5,12.9h-1l-5-12.9H61.7z"/>
	<path class="st2" d="M70,154.9v1.2h-1V148h4.5V146h1v1.9H79v7h-4.5v1.7c0,0.7,0.3,1,0.9,1h3.2c0.4,0,0.6-0.1,0.8-0.2
		c0.1-0.2,0.2-0.7,0.3-1.7l1,0.3c-0.1,1.2-0.2,1.9-0.5,2.2c-0.3,0.2-0.7,0.4-1.4,0.4h-3.6c-1.1,0-1.7-0.6-1.7-1.8v-1.9H70z
		 M70,148.9v2.1h3.4v-2.1H70z M70,154h3.4v-2.1H70V154z M78,148.9h-3.5v2.1H78V148.9z M78,154v-2.1h-3.5v2.1H78z"/>
	<path class="st2" d="M82.7,146l5,12.9h-1l-5-12.9H82.7z"/>
	<path class="st2" d="M93.9,149.2c-0.5,0.6-1.2,1.2-2,1.8v0.4c0,0.8-0.1,1.6-0.2,2.3c0.6,0.7,1.2,1.4,1.9,2.2l-0.6,0.9
		c-0.6-0.9-1.1-1.6-1.5-2.1c-0.4,1.8-1.1,3.3-2.2,4.3l-0.7-0.7c1.5-1.4,2.3-3.7,2.3-6.9v-5.2h1v3.8c0.6-0.5,1-1,1.4-1.5L93.9,149.2z
		 M90.1,148.9c0,1.5-0.2,2.8-0.6,4.1l-0.8-0.2c0.4-1.3,0.5-2.6,0.6-4L90.1,148.9z M98.9,147.3v-1.3h1v1.3h1.3v0.9h-1.3v4.2h-2v1.3
		h3.5v0.9h-2.6c0.6,1,1.6,2,2.9,2.8l-0.6,0.8c-1.4-1.1-2.5-2.3-3-3.6h-0.1v4.2h-1v-4.2h-0.1c-0.6,1.5-1.7,2.7-3.2,3.6l-0.5-0.8
		c1.3-0.7,2.3-1.7,2.9-2.8h-2.6v-0.9h3.5v-1.3h-2v-4.2h-1.3v-0.9h1.3v-1.3h1v1.3H98.9z M98.9,149.5v-1.3h-3.1v1.3H98.9z M98.9,150.3
		h-3.1v1.2h3.1V150.3z"/>
	<path class="st2" d="M103.7,146l5,12.9h-1l-5-12.9H103.7z"/>
	<path class="st2" d="M110,154.7l-0.3-1.1c1.9-1.6,3.2-3.2,3.9-4.7h-3.5v-1h2.2c-0.2-0.6-0.5-1.2-0.8-1.8l1-0.3
		c0.3,0.7,0.6,1.3,0.7,1.9l-0.3,0.1h1.8v0.9c-0.4,1-1,2-1.7,3c0.8,0.5,1.6,1,2.3,1.6l-0.6,0.9c-0.6-0.6-1.1-1.1-1.7-1.5v5.9h-1V153
		C111.3,153.6,110.7,154.1,110,154.7z M119,146.1v4.2h3.2v1H119v6.1h3.5v1h-8.2v-1h3.6v-6.1h-3.1v-1h3.1v-4.2H119z"/>
	<path class="st2" d="M127.7,146.4c-0.3,1-0.8,2-1.2,2.9v9.6h-1v-7.9c-0.5,0.7-1,1.3-1.5,1.9l-0.3-1.1c1.5-1.7,2.5-3.6,3.2-5.8
		L127.7,146.4z M135.2,146.6v4.4h-2.8v1.5h4v1h-3c0.8,1.4,1.9,2.6,3.3,3.7l-0.6,0.9c-1.4-1.2-2.5-2.7-3.5-4.5h-0.2v5.3h-1v-5.3h-0.2
		c-0.9,1.9-2.1,3.5-3.5,4.6l-0.6-0.9c1.3-0.9,2.4-2.1,3.3-3.6h-2.9v-1h3.9V151h-2.8v-4.4H135.2z M134.2,147.6h-4.6v2.5h4.6V147.6z"
		/>
	<path class="st2" d="M138.7,146l5,12.9h-1l-5-12.9H138.7z"/>
	<path class="st2" d="M151.8,156c-0.4,0.1-0.9,0.2-1.3,0.3v2.5h-1v-2.3c-1.5,0.3-3,0.6-4.5,0.8l-0.2-1c0.4-0.1,0.8-0.1,1.3-0.2v-8.7
		h-1.1v-1h6.7v0.8h5.4v0.9c-0.3,2.6-1,4.8-1.9,6.6c0.7,1.1,1.5,2.2,2.5,3.2l-0.7,0.8c-0.9-1-1.7-2-2.4-3c-0.8,1.2-1.7,2.2-2.7,3
		l-0.7-0.8c1.1-0.9,2.1-2,2.8-3.2c-1-2-1.7-4.2-1.8-6.5h-0.6v-0.8h-1.1v7.8c0.4-0.1,0.9-0.2,1.3-0.3V156z M149.6,149.7v-2.2H147v2.2
		H149.6z M149.6,152.7v-2.1H147v2.1H149.6z M149.6,153.6H147v2.4c0.9-0.1,1.7-0.3,2.5-0.5V153.6z M154.6,153.8
		c0.8-1.6,1.3-3.4,1.5-5.5h-3C153.3,150.3,153.8,152.1,154.6,153.8z"/>
	<path class="st2" d="M162.8,156.4h-2.6v1h-1V147h3.5V156.4z M161.9,147.9h-1.6v3.4h1.6V147.9z M160.3,155.5h1.6v-3.3h-1.6V155.5z
		 M168.9,150.1c0.4-0.7,0.7-1.5,1-2.5l0.9,0.3c-0.3,0.8-0.6,1.6-1,2.2h1.2v0.9h-4.6l-0.2,1.2h5.2v0.9h-5.3c-0.1,0.4-0.2,0.8-0.3,1.1
		h4.7v0.8c-0.4,0.8-0.9,1.5-1.7,2.2c0.8,0.4,1.7,0.7,2.7,0.9l-0.4,0.9c-1.2-0.3-2.3-0.6-3.1-1.2c-0.8,0.5-1.8,0.9-3,1.2l-0.5-0.8
		c1-0.2,1.9-0.5,2.7-0.9c-0.7-0.5-1.2-1.1-1.7-1.9c-0.1,0.1-0.1,0.2-0.1,0.4c-0.5,1.2-1.3,2.2-2.3,3.2l-0.6-0.8
		c0.9-0.8,1.6-1.8,2.1-2.8c0.3-0.6,0.5-1.3,0.6-2.1h-1.8v-0.9h1.9l0.2-1.2h-1.8v-0.9H168.9z M171.3,146.8c-1.9,0.6-4.4,1-7.5,1
		l-0.3-0.9c2.9,0,5.4-0.3,7.3-0.9L171.3,146.8z M165.7,149.6L165,150c-0.3-0.6-0.5-1.1-0.8-1.6l0.8-0.3
		C165.2,148.6,165.5,149.1,165.7,149.6z M169.6,154.9h-3.2c0.4,0.6,1,1.2,1.6,1.6C168.7,156.1,169.2,155.6,169.6,154.9z
		 M168.2,149.6l-0.8,0.3c-0.3-0.6-0.5-1.2-0.8-1.7l0.8-0.3C167.7,148.5,168,149,168.2,149.6z"/>
</g>
<circle class="st3" cx="725.7" cy="77.1" r="17.1"/>
<linearGradient id="SVGID_2_" gradientUnits="userSpaceOnUse" x1="687.2361" y1="69.4684" x2="645.7588" y2="27.9911">
	<stop  offset="0" style="stop-color:#0066FF"/>
	<stop  offset="1" style="stop-color:#00C8DC"/>
</linearGradient>
<path class="st4" d="M647.6,43.9c0,7.7,6.3,14,14,14s14-6.3,14-14s-6.3-14-14-14S647.6,36.1,647.6,43.9z M674.6,43.9
	c0,7.2-5.8,13-13,13s-13-5.8-13-13s5.8-13,13-13S674.6,36.7,674.6,43.9z"/>
<linearGradient id="SVGID_3_" gradientUnits="userSpaceOnUse" x1="131.4713" y1="88.8064" x2="72.8191" y2="30.1541">
	<stop  offset="0" style="stop-color:#0063FF"/>
	<stop  offset="1" style="stop-color:#00C8DE"/>
</linearGradient>
<polygon class="st5" points="143,48.1 105.2,13.8 67.4,48.1 75.9,48 75.9,85.5 134.5,85.5 134.5,48 "/>
<path class="st3" d="M135.2,66.8c-9.9,0-18,8.1-18,18s8.1,18,18,18c9.9,0,18-8.1,18-18S145.1,66.8,135.2,66.8L135.2,66.8z"/>
<g class="st6">
	<linearGradient id="SVGID_4_" gradientUnits="userSpaceOnUse" x1="416.6508" y1="0.8583" x2="371.5478" y2="45.9612">
		<stop  offset="0" style="stop-color:#0063FF"/>
		<stop  offset="1" style="stop-color:#00C8DE"/>
	</linearGradient>
	<rect x="353.3" y="19.1" class="st7" width="81.6" height="8.6"/>
	<linearGradient id="SVGID_5_" gradientUnits="userSpaceOnUse" x1="419.6685" y1="26.4449" x2="359.0494" y2="87.0639">
		<stop  offset="0" style="stop-color:#0063FF"/>
		<stop  offset="1" style="stop-color:#00C8DE"/>
	</linearGradient>
	<path class="st8" d="M353.3,81.3h4.4V70.4c0,0-0.1-4.1,1.8-6.1c2-2,5.2-1.8,5.2-1.8l70.2-0.1V41.7h-81.6V81.3z M361.3,47.1h21.6
		v3.1h-21.6V47.1z M361.3,54.1h35.6v3.1h-35.6V54.1z"/>
</g>
<linearGradient id="SVGID_6_" gradientUnits="userSpaceOnUse" x1="465.5111" y1="107.4889" x2="359.3118" y2="1.2897">
	<stop  offset="0" style="stop-color:#0066FF"/>
	<stop  offset="1" style="stop-color:#00C8DC"/>
</linearGradient>
<path class="st9" d="M440.7,81.4c-0.8,0-1.4,0.6-1.4,1.4c0,0.8,0.6,1.4,1.4,1.4c0.8,0,1.4-0.6,1.4-1.4
	C442.1,82,441.5,81.4,440.7,81.4z"/>
<linearGradient id="SVGID_7_" gradientUnits="userSpaceOnUse" x1="436.8815" y1="136.1185" x2="330.6823" y2="29.9192">
	<stop  offset="0" style="stop-color:#0066FF"/>
	<stop  offset="1" style="stop-color:#00C8DC"/>
</linearGradient>
<path class="st10" d="M381.7,84.4L381.7,84.4c-0.1,0.1-0.2,0.1-0.3,0.1c-0.2,0-0.4-0.1-0.5-0.3l0-0.1l-1.6-3.4c0,0,0-0.1,0-0.1
	c0-0.2,0.1-0.3,0.3-0.3c0.1,0,0.1,0,0.2,0.1l1.8,1.3c0.1,0.1,0.3,0.1,0.5,0.1c0.1,0,0.2,0,0.3-0.1l8.7-3.9c-1.6-1.8-4.1-3-7-3
	c-4.8,0-8.6,3.2-8.6,7.2c0,2.2,1.2,4.1,3,5.4c0.1,0.1,0.2,0.3,0.2,0.5c0,0.1,0,0.1,0,0.2c-0.1,0.5-0.4,1.4-0.4,1.4
	c0,0.1,0,0.1,0,0.2c0,0.2,0.1,0.3,0.3,0.3c0.1,0,0.1,0,0.2-0.1l1.9-1.1c0.1-0.1,0.3-0.1,0.5-0.1c0.1,0,0.2,0,0.3,0
	c0.9,0.3,1.8,0.4,2.8,0.4c4.8,0,8.6-3.2,8.6-7.2c0-1.2-0.4-2.3-1-3.3L381.7,84.4z"/>
<linearGradient id="SVGID_8_" gradientUnits="userSpaceOnUse" x1="463.0111" y1="109.9889" x2="356.8118" y2="3.7897">
	<stop  offset="0" style="stop-color:#0066FF"/>
	<stop  offset="1" style="stop-color:#00C8DC"/>
</linearGradient>
<path class="st11" d="M435.7,81.4c-0.8,0-1.4,0.6-1.4,1.4c0,0.8,0.6,1.4,1.4,1.4c0.8,0,1.4-0.6,1.4-1.4
	C437.1,82,436.5,81.4,435.7,81.4z"/>
<linearGradient id="SVGID_9_" gradientUnits="userSpaceOnUse" x1="460.5151" y1="112.4849" x2="354.3158" y2="6.2857">
	<stop  offset="0" style="stop-color:#0066FF"/>
	<stop  offset="1" style="stop-color:#00C8DC"/>
</linearGradient>
<path class="st12" d="M430.7,81.4c-0.8,0-1.4,0.6-1.4,1.4c0,0.8,0.6,1.4,1.4,1.4c0.8,0,1.4-0.6,1.4-1.4
	C432.1,82,431.5,81.4,430.7,81.4z"/>
<linearGradient id="SVGID_10_" gradientUnits="userSpaceOnUse" x1="450.4229" y1="122.5771" x2="344.2237" y2="16.3778">
	<stop  offset="0" style="stop-color:#0066FF"/>
	<stop  offset="1" style="stop-color:#00C8DC"/>
</linearGradient>
<path class="st13" d="M416.4,83.7c0,0-0.3-1-0.5-1.5c-0.1-0.2-0.2-0.5-0.3-0.8l-5.3,3c-0.1,0.1-0.3,0.1-0.4,0l-0.1-0.1l-0.9-1.9
	v-0.1c0-0.1,0.1-0.2,0.2-0.2c0.1,0,0.1,0,0.1,0.1l1,0.7c0.1,0.1,0.3,0.1,0.4,0l4.7-2.1c0-0.6,0.1-4.1-2.3-5.5
	c-0.2-0.1-0.3-0.2-0.5-0.2c-0.8-0.3-2.1-0.5-3.5,0.2c-2.6,1.5-2.3,5.6-2.3,5.6s-0.4,0.9-0.5,1.3c-0.2,0.5-0.5,1.5-0.5,1.5
	s-0.2,0.6-0.4,1.5c-0.1,0.9-0.1,1.5,0.1,1.5c0.3-0.1,1.2-1.6,1.2-1.6s-0.1,1.8,1.3,2.9c-1.2,0.2-1.5,0.6-1.5,0.8
	c0,0.3,1,0.3,2.2,0.3c0.6,0,1.1,0,1.5-0.1c0.4,0.1,0.7,0.1,0.7,0.1h0.2c0,0,0.2,0,0.5,0c0.3,0,0.7,0,1.1,0c1.2,0,2.2,0,2.2-0.3
	c0-0.2-0.2-0.5-1.1-0.7c1.5-1.2,1.4-3,1.4-3s0.8,1.5,1.2,1.6c0.2,0,0.2-0.6,0.1-1.5C416.7,84.3,416.4,83.7,416.4,83.7z"/>
<g>
	<linearGradient id="SVGID_11_" gradientUnits="userSpaceOnUse" x1="444.1663" y1="100.221" x2="353.7804" y2="9.8351">
		<stop  offset="0" style="stop-color:#0066FF"/>
		<stop  offset="1" style="stop-color:#00C8DC"/>
	</linearGradient>
	<path class="st14" d="M349.1,85.2V41.7h90v20.8h0.3c0.2,0,0.4,0,0.7,0V41.7h0v-1h0v-12h0v-1h0V14.2h-92v72h9.5
		c-0.1-0.3-0.2-0.7-0.2-1H349.1z M349.1,15.2h90v12.5h-90V15.2z M349.1,28.7h90v12h-90V28.7z"/>
	<linearGradient id="SVGID_12_" gradientUnits="userSpaceOnUse" x1="437.9004" y1="110.9469" x2="350.1157" y2="23.1622">
		<stop  offset="0" style="stop-color:#0066FF"/>
		<stop  offset="1" style="stop-color:#00C8DC"/>
	</linearGradient>
	<path class="st15" d="M451,66.1h-85.1c-2.4,0-4.3,1.9-4.3,4.3v22.2c0,2.4,1.9,4.3,4.3,4.3H451c2.4,0,4.3-1.9,4.3-4.3V70.4
		C455.3,68,453.4,66.1,451,66.1z M453.8,92.6c0,1.5-1.3,2.8-2.8,2.8h-85.1c-1.5,0-2.8-1.3-2.8-2.8V70.4c0-1.5,1.3-2.8,2.8-2.8H451
		c1.5,0,2.8,1.3,2.8,2.8V92.6z"/>
</g>
<g>
	<linearGradient id="SVGID_13_" gradientUnits="userSpaceOnUse" x1="145.7147" y1="104.2853" x2="73.3691" y2="31.9397">
		<stop  offset="0" style="stop-color:#0066FF"/>
		<stop  offset="1" style="stop-color:#00C8DC"/>
	</linearGradient>
	<path class="st16" d="M152.2,50.6l-6.3-5.9L108.1,9.4l-2.3-2.2l-0.6-0.5l-0.6,0.5l-2.3,2.2L64.5,44.7l-6.3,5.9l-1.6,1.5h2.2h8.6
		h3.8v33.8v3.4v0.8H72h3.4h42.1c-0.1-0.3-0.2-0.7-0.3-1H75.4h-3.2v-3.2V52.1v-1h-1h-3.8h-8.2l6-5.6L103,10.1l2.2-2.1l2.2,2.1
		l37.8,35.3l6,5.6H143h-3.8h-1v1v14.5c0.3,0.1,0.7,0.2,1,0.3V52.1h3.8h8.6h2.2L152.2,50.6z"/>
	<linearGradient id="SVGID_14_" gradientUnits="userSpaceOnUse" x1="150.1195" y1="99.8805" x2="77.7739" y2="27.5349">
		<stop  offset="0" style="stop-color:#0066FF"/>
		<stop  offset="1" style="stop-color:#00C8DC"/>
	</linearGradient>
	<path class="st17" d="M142.8,94.5l2,2h-11.5c-6.4-0.5-11.5-5.9-11.5-12.5c0-6.9,5.6-12.5,12.5-12.5s12.5,5.6,12.5,12.5
		c0,1.4-0.3,2.8-0.7,4.1h1.6c0.4-1.3,0.6-2.7,0.6-4.1c0-7.7-6.3-14-14-14s-14,6.3-14,14c0,7.4,5.8,13.5,13,14h13v0l0,0h2.1l-4.6-4.6
		L142.8,94.5z"/>
	<linearGradient id="SVGID_15_" gradientUnits="userSpaceOnUse" x1="150.7605" y1="99.2395" x2="78.4149" y2="26.8939">
		<stop  offset="0" style="stop-color:#0066FF"/>
		<stop  offset="1" style="stop-color:#00C8DC"/>
	</linearGradient>
	<polygon class="st18" points="140,83.5 140,82 135.8,82 139.8,78.1 138.7,77 134.2,81.5 129.8,77 128.7,78.1 132.7,82 129.1,82 
		129.1,83.5 133.5,83.5 133.5,86 128.9,86 128.9,87.5 133.5,87.5 133.5,92.2 135,92.2 135,87.5 139.8,87.5 139.8,86 135,86 
		135,83.5 	"/>
</g>
<g>
	<linearGradient id="SVGID_16_" gradientUnits="userSpaceOnUse" x1="732.9213" y1="97.7611" x2="646.5719" y2="11.4116">
		<stop  offset="0" style="stop-color:#0066FF"/>
		<stop  offset="1" style="stop-color:#00C8DC"/>
	</linearGradient>
	<path class="st19" d="M639.3,86.1v-67h38.2h58.8v43c0.3,0.2,0.7,0.4,1,0.6V18.1h-59.9h-0.9h-37.2h-1v1v68h73.6
		c-0.2-0.3-0.4-0.7-0.5-1H639.3z"/>
	<linearGradient id="SVGID_17_" gradientUnits="userSpaceOnUse" x1="747.601" y1="86.7845" x2="655.6357" y2="-5.1807">
		<stop  offset="0" style="stop-color:#0066FF"/>
		<stop  offset="1" style="stop-color:#00C8DC"/>
	</linearGradient>
	<path class="st20" d="M726.7,62.1v13h13C739.7,67.9,733.9,62.1,726.7,62.1z M728.2,73.6v-9.9c5.1,0.7,9.2,4.8,9.9,9.9H728.2z"/>
	<linearGradient id="SVGID_18_" gradientUnits="userSpaceOnUse" x1="740.86" y1="95.9284" x2="650.2278" y2="5.2961">
		<stop  offset="0" style="stop-color:#0066FF"/>
		<stop  offset="1" style="stop-color:#00C8DC"/>
	</linearGradient>
	<path class="st21" d="M724.7,64.1c-7.2,0-13,5.8-13,13s5.8,13,13,13c7.2,0,13-5.8,13-13h-13V64.1z M736.1,78.6
		c-0.7,5.6-5.6,10-11.4,10c-6.3,0-11.5-5.2-11.5-11.5c0-5.8,4.4-10.7,10-11.4v11.4v1.5h1.5H736.1z"/>
</g>
</svg>
