<?xml version="1.0" encoding="utf-8"?>
<!-- Generator: Adobe Illustrator 22.0.1, SVG Export Plug-In . SVG Version: 6.00 Build 0)  -->
<svg version="1.1" id="图层_1" xmlns="http://www.w3.org/2000/svg" xmlns:xlink="http://www.w3.org/1999/xlink" x="0px" y="0px"
	 width="32px" height="32px" viewBox="0 0 32 32" style="enable-background:new 0 0 32 32;" xml:space="preserve">
<style type="text/css">
	.st0{fill:#FFFFFF;}
</style>
<title>Product Icons【32】</title>
<g id="_编组_">
	<path id="_路径_" class="st0" d="M28.9,18c-1.1,7.1-7.8,11.9-14.8,10.8C7,27.7,2.1,21.1,3.2,14S11,2.1,18.1,3.2
		C23.6,4,28,8.4,28.9,14h2C29.8,5.8,22.2,0,14,1.1S0.1,9.8,1.2,18S9.8,32,18,30.9C24.7,30,30,24.7,30.9,18H28.9z"/>
	<g id="_矩形_">
		<path id="_复合路径_" class="st0" d="M17.1,15v2h-2v-2H17.1 M19.1,13h-6v6h6V13z"/>
	</g>
	<g id="_矩形_2">
		<path id="_复合路径_2" class="st0" d="M20,12v8h-8v-8H20 M22,10H10v12h12V10z"/>
	</g>
	<rect id="_矩形_3" x="12.1" y="8" class="st0" width="2" height="2"/>
	<rect id="_矩形_4" x="15.1" y="8" class="st0" width="2" height="2"/>
	<rect id="_矩形_5" x="18.1" y="8" class="st0" width="2" height="2"/>
	<rect id="_矩形_6" x="12.1" y="22" class="st0" width="2" height="2"/>
	<rect id="_矩形_7" x="15.1" y="22" class="st0" width="2" height="2"/>
	<rect id="_矩形_8" x="18.1" y="22" class="st0" width="2" height="2"/>
	<rect id="_矩形_9" x="8" y="18" class="st0" width="2" height="2"/>
	<rect id="_矩形_10" x="8" y="15" class="st0" width="2" height="2"/>
	<rect id="_矩形_11" x="8" y="12" class="st0" width="2" height="2"/>
	<rect id="_矩形_12" x="22" y="18" class="st0" width="2" height="2"/>
	<rect id="_矩形_13" x="22" y="15" class="st0" width="2" height="2"/>
	<rect id="_矩形_14" x="22" y="12" class="st0" width="2" height="2"/>
</g>
</svg>
