<?xml version="1.0" encoding="UTF-8"?>
<svg width="32px" height="32px" viewBox="0 0 32 32" version="1.1" xmlns="http://www.w3.org/2000/svg" xmlns:xlink="http://www.w3.org/1999/xlink">
    <!-- Generator: Sketch 53.1 (72631) - https://sketchapp.com -->
    <title>DBbrain_32px_hui</title>
    <desc>Created with Sketch.</desc>
    <g id="DBbrain_32px_hui" stroke="none" stroke-width="1" fill="none" fill-rule="evenodd">
        <rect id="Rectangle-Copy" fill="#444444" opacity="0" x="0" y="0" width="32" height="32"></rect>
        <g id="Group" transform="translate(2.000000, 2.000000)" fill="#7C838E" fill-rule="nonzero">
            <path d="M0,23 L0,5 C0,2.2 5.4,0 12,0 C18.6,0 24,2.2 24,5 L24,10.7 L22,9.6 L22,7.8 C19.9,9.1 16.2,10 12,10 C7.8,10 4.1,9.1 2,7.8 L2,14 C2,15.5 5.6,16.7 10.3,17 L10.3,19 C6.9,18.8 3.9,18 2,16.8 L2,23 C2,24.5 5.6,25.7 10.3,26 L10.3,27 L10.3,27.9 C4.5,27.6 9.05941988e-14,25.5 9.05941988e-14,23 Z M12,8 C17.5,8 22,6.7 22,5 C22,3.3 17.5,2 12,2 C6.5,2 2,3.3 2,5 C2,6.7 6.5,8 12,8 Z" id="Combined-Shape"></path>
        </g>
        <path d="" id="Path-3" stroke="#979797"></path>
        <path d="M23.2553632,14.5 C26.7624228,14.5 29.1620674,16.2313207 30.1347519,18.999768 C30.9413208,21.2954186 30.6089366,24.054195 29.3698351,25.6204429 C28.2165168,27.0782592 27.6473216,28.6940694 27.6473216,30.5022653 L25.6473216,30.5022653 C25.6473216,28.2407742 26.3703009,26.1884075 27.8013319,24.3795571 C28.5916537,23.3805753 28.8374112,21.3407971 28.2478288,19.662732 C27.554333,17.6889094 25.9064812,16.5 23.2553632,16.5 C19.3206831,16.5 17.6700361,18.334241 17.9536247,22.4309416 C17.9685487,22.6465332 17.9132305,22.8611582 17.7959542,23.042676 L16.6308909,24.8459358 C16.5117256,25.0303772 16.5646424,25.2764991 16.7490839,25.3956643 C16.7523076,25.3977325 16.7523076,25.3977325 16.7555576,25.3997591 L17.594905,25.9194086 C18.0692776,26.2130981 18.3994102,26.6915875 18.5055753,27.2393208 L18.7499279,28.5 L21.3171013,28.5 L21.3171013,30.5 L18.7499279,30.5 C17.7920948,30.5 16.9687311,29.820902 16.78647,28.8805696 L16.5421174,27.6198904 L15.70277,27.1002409 C15.6831717,27.0880201 15.6831717,27.0880201 15.6637319,27.0755486 C14.551516,26.3569601 14.232418,24.8727998 14.9510066,23.7605839 L15.9389089,22.23153 C15.7077383,17.2108234 18.255728,14.5 23.2553632,14.5 Z" id="Path-4" fill="#7C838E" fill-rule="nonzero"></path>
        <path d="M22,19.6200622 C23,19.4082435 24.0100316,19.4082435 24.7888843,20.1934967 C25.4917487,20.902137 25.6877241,22.1211968 24.9848597,23.5475377" id="Path-Copy" stroke="#7C838E" stroke-width="2" stroke-linecap="round"></path>
    </g>
</svg>