<?xml version="1.0" encoding="UTF-8"?>
<svg width="32px" height="32px" viewBox="0 0 32 32" version="1.1" xmlns="http://www.w3.org/2000/svg" xmlns:xlink="http://www.w3.org/1999/xlink">
    <!-- Generator: Sketch 52.6 (67491) - http://www.bohemiancoding.com/sketch -->
    <title>样本智能分析平台-32px</title>
    <desc>Created with Sketch.</desc>
    <defs>
        <polygon id="path-1" points="0 0.0002 14 0.0002 14 32 0 32"></polygon>
    </defs>
    <g id="样本智能分析平台-32px" stroke="none" stroke-width="1" fill="none" fill-rule="evenodd">
        <rect id="Rectangle-Copy" fill="#444444" opacity="0" x="0" y="0" width="32" height="32"></rect>
        <g id="Group-8" transform="translate(1.000000, 0.000000)">
            <g id="Group-3">
                <mask id="mask-2" fill="white">
                    <use xlink:href="#path-1"></use>
                </mask>
                <g id="Clip-2"></g>
                <path d="M3.501,8.5912 L12,3.4612 L12,9.5132 L12,10.4362 C12,11.4052 11.473,12.2922 10.625,12.8172 L6,15.6092 L6,15.4742 L6,14.4522 L3.537,12.9662 C2.668,12.4872 2.142,11.6692 2.041,10.7672 C2.142,9.8652 2.665,9.0502 3.501,8.5912 Z M8,16.6792 L8,17.9122 L8,19.5402 L6,18.2722 L6,17.8622 L8,16.6542 L8,16.6792 Z M12,28.5392 L10,27.3312 L10,24.4162 C10,24.0992 9.833,23.8022 9.555,23.6252 L5.555,21.0882 C5.391,20.9852 5.197,20.9292 5,20.9292 C4.448,20.9292 4,21.3552 4,21.8802 L4,23.7092 L3.537,23.4302 C2.572,22.9002 2,21.9572 2,20.9372 L2,14.2742 C2.16,14.3882 2.326,14.4962 2.501,14.5932 L4,15.4972 L4,18.7812 C4,19.0992 4.167,19.3962 4.445,19.5722 L8.445,22.1102 C8.609,22.2132 8.803,22.2692 9,22.2692 C9.552,22.2692 10,21.8432 10,21.3182 L10,19.1342 L10.499,19.4362 C11.428,19.9452 12,20.8882 12,21.9072 L12,22.8312 L12,28.5392 Z M0.042,10.4642 L0,10.4642 L0,10.4722 C0,10.5722 0.014,10.6692 0.021,10.7672 C0.014,10.8662 0,10.9632 0,11.0632 L0,20.9372 C0,22.6372 0.954,24.2072 2.501,25.0572 L6,27.1692 L6,26.5192 L6,24.9162 L6,23.6572 L8,24.9262 L8,26.1242 L8,27.7242 L8,28.3772 L12.464,31.0722 L14,32.0002 L14,22.8312 L14,21.9072 L14,21.8802 L13.998,21.8802 C13.989,20.3732 13.23,18.9762 12,18.1052 L12,18.0742 L8.823,16.1562 L9,16.0502 L9,16.0662 L11.535,14.5352 C11.693,14.4492 11.841,14.3502 11.986,14.2472 L12,14.2392 L12,14.2382 C13.23,13.3682 13.989,11.9702 13.998,10.4642 L14,10.4642 L14,10.4362 L14,9.5132 L14,0.0002 L2.465,6.9642 C1.133,7.6942 0.236,9.0012 0.042,10.4642 Z" id="Fill-1" fill="#7C848E" mask="url(#mask-2)"></path>
            </g>
            <path d="M26.4629,23.43 L25.9999,23.709 L25.9999,23.706 L19.9999,27.328 L19.9999,27.331 L17.9999,28.539 L17.9999,22.831 L17.9999,21.908 C17.9999,20.888 18.5719,19.946 19.5009,19.436 L20.9999,18.531 L20.9999,18.517 L21.9999,17.912 L21.9999,17.89 L23.9999,16.683 L23.9999,16.705 L27.4989,14.593 C27.6749,14.496 27.8399,14.388 27.9999,14.274 L27.9999,20.937 C27.9999,21.957 27.4279,22.9 26.4629,23.43 Z M19.4899,12.901 C18.5679,12.389 17.9999,11.452 17.9999,10.436 L17.9999,9.513 L17.9999,3.461 L26.4989,8.591 C27.3359,9.05 27.8589,9.866 27.9589,10.767 C27.8589,11.669 27.3329,12.487 26.4629,12.966 L25.9999,13.245 L25.9999,13.223 L23.0119,15.027 L19.4899,12.901 Z M29.9999,10.464 L29.9579,10.464 C29.7639,9.001 28.8669,7.694 27.5349,6.964 L15.9999,0 L15.9999,9.513 L15.9999,10.436 L15.9999,10.464 L16.0019,10.464 C16.0119,12.154 16.9619,13.712 18.4649,14.535 L20.9999,16.066 L20.9999,16.065 L21.1459,16.153 L19.9999,16.845 L19.9999,16.868 L17.9999,18.075 L17.9999,18.105 C16.7699,18.976 16.0109,20.373 16.0019,21.88 L15.9999,21.88 L15.9999,21.908 L15.9999,22.831 L15.9999,32 L17.5359,31.073 L21.9999,28.377 L21.9999,28.373 L23.9999,27.166 L23.9999,27.169 L27.4989,25.057 C29.0469,24.207 29.9999,22.637 29.9999,20.937 L29.9999,11.063 C29.9999,10.963 29.9859,10.866 29.9799,10.767 C29.9859,10.669 29.9999,10.572 29.9999,10.472 L29.9999,10.464 Z" id="Fill-4" fill="#7C848E"></path>
            <polygon id="Fill-6" fill="#7C848E" points="27 18.1507 19 22.7687 19 25.0787 27 20.4607"></polygon>
        </g>
    </g>
</svg>