<?xml version="1.0" encoding="UTF-8"?>
<svg width="32px" height="32px" viewBox="0 0 32 32" version="1.1" xmlns="http://www.w3.org/2000/svg" xmlns:xlink="http://www.w3.org/1999/xlink">
    <!-- Generator: Sketch 52.6 (67491) - http://www.bohemiancoding.com/sketch -->
    <title>云转码-32px</title>
    <desc>Created with Sketch.</desc>
    <g id="云转码-32px" stroke="none" stroke-width="1" fill="none" fill-rule="evenodd">
        <rect id="Rectangle-Copy" fill="#444444" opacity="0" x="0" y="0" width="32" height="32"></rect>
        <g id="Group-2" transform="translate(3.000000, 1.000000)" fill="#7C848E" fill-rule="nonzero">
            <path d="M18,28 L18,24 L24,30 L19,30 L1,30 L1,6 L3,6 L3,28 L18,28 Z M5,0 L23,0 L23,24 L21,24 L21,2 L6,2 L6,6 L0,0 L5,0 Z M10,22 L14,22 L14,24 L10,24 L10,22 Z M11.1,9.5 L11.1,12.5 L13.5,11 L11.1,9.5 Z M9.5,6 C9.6,6 9.7,6 9.8,5.9 L16.7,10.4 C17,10.6 17,11.1 16.7,11.3 L9.8,15.8 C9.7,15.9 9.6,15.9 9.5,15.9 C9.3,15.9 9,15.7 9,15.4 L9,6.5 C9,6.2 9.3,6 9.5,6 Z" id="Combined-Shape"></path>
        </g>
    </g>
</svg>