<?xml version="1.0" encoding="UTF-8"?>
<svg width="32px" height="32px" viewBox="0 0 32 32" version="1.1" xmlns="http://www.w3.org/2000/svg" xmlns:xlink="http://www.w3.org/1999/xlink">
    <!-- Generator: Sketch 52.6 (67491) - http://www.bohemiancoding.com/sketch -->
    <title>双螺旋-32px</title>
    <desc>Created with Sketch.</desc>
    <g id="双螺旋-32px" stroke="none" stroke-width="1" fill="none" fill-rule="evenodd">
        <rect id="Rectangle-Copy" fill="#444444" opacity="0" x="0" y="0" width="32" height="32"></rect>
        <g id="Group">
            <g id="Group-23" transform="translate(5.000000, 4.000000)">
                <path d="M11,14 C11.6682939,15.4576204 12.0408447,17.0790625 12.0408447,18.7875185 C12.0408447,20.4891809 11.6712509,22.10452 11.0079584,23.5576407" id="Path" stroke="#7C848E" stroke-width="2"></path>
                <rect id="Rectangle-144" fill="#7C848E" transform="translate(13.926266, 5.421531) rotate(30.000000) translate(-13.926266, -5.421531) " x="8.81525431" y="4.4215311" width="10.2220228" height="2"></rect>
                <rect id="Rectangle-144-Copy-3" fill="#7C848E" transform="translate(6.926266, 18.421531) rotate(30.000000) translate(-6.926266, -18.421531) " x="1.81525431" y="17.4215311" width="10.2220228" height="2"></rect>
                <rect id="Rectangle-144-Copy" fill="#7C848E" transform="translate(12.207532, 8.006570) rotate(30.000000) translate(-12.207532, -8.006570) " x="7.92644284" y="7.00656986" width="8.56217783" height="2"></rect>
                <rect id="Rectangle-144-Copy-2" fill="#7C848E" transform="translate(8.367668, 15.521674) rotate(30.000000) translate(-8.367668, -15.521674) " x="4.19034483" y="14.5216742" width="8.35464607" height="2"></rect>
                <path d="M8.41452127,0.0271729443 C9.08281517,1.48479336 9.45536602,3.10623546 9.45536602,4.81469147 C9.45536602,6.51635382 9.08577217,8.13169291 8.42247963,9.58481359" id="Path-Copy" stroke="#7C848E" stroke-width="2" transform="translate(8.934944, 4.805993) scale(-1, 1) rotate(-5.000000) translate(-8.934944, -4.805993) "></path>
                <path d="M10.6062731,10.4288673 L10.6062825,10.4247523 C10.6249496,10.4247523 10.6436078,10.4247024 10.6622569,10.4246026 C10.9203724,10.4055201 11.1802771,10.3943319 11.4416898,10.3912385 C14.8063554,10.1204695 17.8015335,8.22687689 19.5542538,5.36308221 L21.2601217,6.4071198 C19.1740671,9.81555438 15.5989834,12.0653 11.591339,12.3854916 L11.591339,12.3903534 C11.5694682,12.3903534 11.5476096,12.3904208 11.5257632,12.3905556 C11.2676712,12.4097972 11.0078132,12.4210376 10.7464704,12.4240715 C7.06501277,12.7188321 3.82550159,14.9251903 2.18649634,18.2157191 C2.1364385,18.3162171 2.08799835,18.4175233 2.04119709,18.5196019 L0.223170386,17.6860679 C0.278933319,17.564443 0.336645709,17.443745 0.396281911,17.3240172 C2.34979728,13.4020659 6.2157192,10.7732155 10.6062731,10.4288673 Z" id="Combined-Shape" fill="#7C848E" fill-rule="nonzero" transform="translate(10.741646, 11.941342) rotate(2.000000) translate(-10.741646, -11.941342) "></path>
            </g>
        </g>
        <path d="M31.7193022,13.0004945 L29.6779284,13.0004945 C28.3047737,6.70988283 22.7024129,2 16,2 C8.2680135,2 2,8.2680135 2,16 C2,23.7319865 8.2680135,30 16,30 C23.0527724,30 28.8874794,24.7848417 29.8581515,18.0004945 L31.8761508,18.0004945 C30.8917351,25.8928783 24.1590649,32 16,32 C7.163444,32 -2.0250468e-13,24.836556 -2.0250468e-13,16 C-2.0250468e-13,7.163444 7.163444,0 16,0 C23.8113418,0 30.3152783,5.59766728 31.7193022,13.0004945 Z" id="Combined-Shape" fill="#7C848E" fill-rule="nonzero"></path>
    </g>
</svg>