<?xml version="1.0" encoding="UTF-8"?>
<svg width="32px" height="32px" viewBox="0 0 32 32" version="1.1" xmlns="http://www.w3.org/2000/svg" xmlns:xlink="http://www.w3.org/1999/xlink">
    <!-- Generator: Sketch 59.1 (86144) - https://sketch.com -->
    <title>32x</title>
    <desc>Created with Sketch.</desc>
    <g id="32x" stroke="none" stroke-width="1" fill="none" fill-rule="evenodd">
        <path d="M22,30 L10.5,30 C5.25329488,30 1,25.7467051 1,20.5 C1,16.9484797 2.96714124,13.759576 6.00692723,12.1274529 C6.20273722,6.50095577 10.8257413,2 16.5,2 C21.5441403,2 25.8278747,5.57821419 26.7963402,10.4322262 C29.9091662,12.2535864 32,15.632623 32,19.5 C32,25.1311084 27.5672395,29.7268901 22.0007963,29.9882675 L22,30 L10.5,30 L22,30 Z M10.5,28 L21.5,28 C26.1944204,28 30,24.1944204 30,19.5 C30,14.8055796 26.1944204,11 21.5,11 C18.9540152,11 16.6060836,12.128331 15.0180119,13.9999033 L16.5,14 L16.5,16 L11.5,16 L11.5,11 L13.5,11 L13.4996698,12.6980848 C15.4608428,10.3914084 18.3590589,9 21.5,9 C22.5143953,9 23.4951932,9.14384703 24.4231084,9.41225552 C23.180381,6.22223558 20.0758879,4 16.5,4 C11.8055796,4 8,7.80557963 8,12.5 C8,17.1944204 11.8055796,21 16.5,21 C17.9199045,21 19.2855485,20.6516347 20.5008271,20.0018596 L19,20 L19,18 L24,18 L24,23 L22,23 L22.0012802,21.4451542 C20.3651806,22.4535979 18.4729341,23 16.5,23 C11.3416531,23 7.05208803,19.2803029 6.16726537,14.3768694 C4.21995533,15.7543471 3,18.0146184 3,20.5 C3,24.5609173 6.22747441,27.8680175 10.2572689,27.9961464 L10.5,28 L21.5,28 L10.5,28 Z" id="形状" fill="#7C848E" fill-rule="nonzero"></path>
    </g>
</svg>