<?xml version="1.0" encoding="UTF-8"?>
<svg width="32px" height="32px" viewBox="0 0 32 32" version="1.1" xmlns="http://www.w3.org/2000/svg" xmlns:xlink="http://www.w3.org/1999/xlink">
    <!-- Generator: Sketch 52.6 (67491) - http://www.bohemiancoding.com/sketch -->
    <title>终端安全管理系统-32px</title>
    <desc>Created with Sketch.</desc>
    <g id="终端安全管理系统-32px" stroke="none" stroke-width="1" fill="none" fill-rule="evenodd">
        <rect id="Rectangle-Copy" fill="#444444" opacity="0" x="0" y="0" width="32" height="32"></rect>
        <path d="M17,19.5115172 L17,28.127684 C18.5678787,27.1431553 20.0128935,26.0022235 21.2928109,24.7401613 C23.0067235,22.9461897 24.4552881,20.9378137 25.6010898,18.7664527 C26.7583159,16.586908 27.6399626,14.2842604 28.2386042,11.8648507 C28.6087931,10.4959619 28.8449714,9.09888734 28.9449952,7.69154119 L22.7789039,10.7641827 L17,19.5115172 Z M15,28.1145161 L15,19.5175533 L9.33554457,10.7835086 L3.07116543,7.69749712 C3.17363695,9.07914376 3.38650534,10.4516488 3.70805158,11.8015531 C4.28565721,14.2013562 5.16111883,16.5272437 6.28793275,18.6780656 C7.5073683,20.8456379 8.99295565,22.8675186 10.6653044,24.6511927 C11.9753578,25.9535523 13.4290981,27.114546 15,28.1145161 Z M4.06968929,5.95988473 L12.2708299,10 L19.8281901,10 L27.9720359,5.94181828 C27.9463524,5.92761406 27.9206139,5.91351973 27.8948215,5.89953608 C26.5020675,5.15269601 25.0297451,4.54901433 23.5196076,4.10372445 C21.0995481,3.41343148 18.591764,3.04195094 16.0993452,3 C16.017214,3 15.846596,3.00241695 15.6004695,3.00988822 C15.1813274,3.02261145 14.7120808,3.04562126 14.2058915,3.08147427 C12.7653254,3.18350852 11.3276493,3.3668017 10.0038136,3.64810064 C9.2342161,3.81163074 8.5278939,4.00373936 7.88506072,4.22921576 C6.84557356,4.58495305 5.8365905,5.01664342 4.87763659,5.51486637 C4.58371448,5.66981288 4.31476738,5.81825011 4.06968929,5.95988473 Z M19.4897116,12 L12.5867055,12 L16.0112166,17.0232676 L19.4897116,12 Z M30.9940879,5.61086957 C31.0449522,7.89505272 30.76741,10.1750854 30.1692532,12.3869565 C29.5420694,14.9237828 28.6015521,17.3801862 27.3675418,19.7043478 C26.1375458,22.0352768 24.5802557,24.1943965 22.7389238,26.1217391 C20.765991,28.0684982 18.4922001,29.7137702 15.9970929,31 C13.5013633,29.6932874 11.2280547,28.0307717 9.25526199,26.0695652 C7.42470059,24.1190672 5.84342786,21.966959 4.5448422,19.6586957 C3.31349938,17.3104017 2.37979665,14.8297817 1.76358131,12.2695652 C1.25038076,10.1150903 0.994249385,7.91187933 1.00009793,5.70217391 C1.00009793,5.70217391 1.60679455,4.97826087 3.9449624,3.74565217 C5.00302906,3.19589136 6.10379338,2.72493265 7.23748448,2.33695652 C11.0480846,1 16.0993452,1 16.0993452,1 C18.7993633,1.04514233 21.4803412,1.44227824 24.0682029,2.18043478 C25.7266267,2.6693601 27.3261652,3.32520292 28.8399741,4.13695652 C29.6101469,4.55448723 30.3321736,5.04852085 30.9940879,5.61086957 Z" id="Combined-Shape" fill="#7C848E" fill-rule="nonzero"></path>
    </g>
</svg>