<?xml version="1.0" encoding="UTF-8"?>
<svg width="32px" height="32px" viewBox="0 0 32 32" version="1.1" xmlns="http://www.w3.org/2000/svg" xmlns:xlink="http://www.w3.org/1999/xlink">
    <!-- Generator: Sketch 58 (84663) - https://sketch.com -->
    <title>政务服务32px&amp;灰色</title>
    <desc>Created with Sketch.</desc>
    <g id="政务服务32px&amp;灰色" stroke="none" stroke-width="1" fill="none" fill-rule="evenodd">
        <g>
            <polygon id="路径" points="0 0 32 0 32 32 0 32"></polygon>
            <path d="M32,2 L32,24 L17,24 L17,28 L26,28 L26,30 L6,30 L6,28 L15,28 L15,24 L0,24 L0,2 L32,2 Z M30,4 L2,4 L2,22 L30,22 L30,4 Z M16,7 L17.455,11.5 L22,11.5 L18.295,14.14 L19.705,18.505 L16,15.805 L12.295,18.505 L13.705,14.14 L10,11.5 L14.545,11.5 L16,7 Z" id="形状结合" fill="#7C848E"></path>
        </g>
    </g>
</svg>