<svg id="图层_1" data-name="图层 1" xmlns="http://www.w3.org/2000/svg" viewBox="0 0 32 32"><defs><style>.cls-1{fill:#7c848e;}</style></defs><title>灰色线条-32x32</title><path class="cls-1" d="M16,32l-.5-.29A29,29,0,0,1,1,6.68c0-.33,0-.65,0-1l0-.48.38-.29a24.27,24.27,0,0,1,29.11,0l.39.29v.48c0,.32,0,.64,0,1A29.07,29.07,0,0,1,16.47,31.74ZM3,6.26v.42a27,27,0,0,0,13,23,27,27,0,0,0,13-23c0-.14,0-.28,0-.42A22.24,22.24,0,0,0,3,6.26Z"/><path class="cls-1" d="M8.05,13.27l0-3.65a31.6,31.6,0,0,0-4.2,2.14L2.86,10A27.49,27.49,0,0,1,8.7,7.29L10,6.91v3.72A29,29,0,0,1,13.07,10L13,6.35l.85-.12A12.18,12.18,0,0,1,16,6.07h.12a12.81,12.81,0,0,1,2,.11l.86.13v3.77a30.21,30.21,0,0,1,3.05.57l0-3.72,1.2.36a26.19,26.19,0,0,1,5.95,2.88l-1,1.72a30.7,30.7,0,0,0-4.2-2.23v3.61l-1.28-.38A25.84,25.84,0,0,0,17.9,12L17,11.88V8.08H16c-.4,0-.69,0-1,0v3.73l-.91.09a27.53,27.53,0,0,0-4.83,1Z"/></svg>