<?xml version="1.0" encoding="utf-8"?>
<!-- Generator: Adobe Illustrator 19.0.0, SVG Export Plug-In . SVG Version: 6.00 Build 0)  -->
<svg version="1.1" id="图层_1" xmlns="http://www.w3.org/2000/svg" xmlns:xlink="http://www.w3.org/1999/xlink" x="0px" y="0px"
	 width="16px" height="16px" viewBox="0 0 16 16" style="enable-background:new 0 0 16 16;" xml:space="preserve">
<style type="text/css">
	.st0{fill:#00A4FF;}
</style>
<g id="XMLID_33_">
	<g id="XMLID_34_">
		<path id="XMLID_262_" class="st0" d="M-144.18,14.791c-4.062,0-7.365-3.317-7.365-7.396c0-4.078,3.304-7.395,7.365-7.395
			c4.061,0,7.364,3.317,7.364,7.395h-1c0-3.526-2.855-6.395-6.364-6.395c-3.51,0-6.365,2.869-6.365,6.395s2.855,6.396,6.365,6.396
			V14.791z"/>
	</g>
</g>
<g id="XMLID_31_">
	<g id="XMLID_32_">
		<path id="XMLID_261_" class="st0" d="M-141.104,14.198l-0.391-0.92c0.512-0.217,0.994-0.499,1.435-0.839l0.611,0.791
			C-139.957,13.623-140.514,13.948-141.104,14.198z M-138.093,11.876l-0.791-0.611c0.34-0.44,0.622-0.923,0.839-1.435l0.92,0.391
			C-137.375,10.811-137.701,11.367-138.093,11.876z"/>
	</g>
</g>
<g id="XMLID_29_">
	<g id="XMLID_30_">
		<polygon id="XMLID_257_" class="st0" points="-147.007,10.032 -148.007,10.032 -146.007,4.032 -145.007,4.032 		"/>
	</g>
</g>
<g id="XMLID_27_">
	<g id="XMLID_28_">
		<polygon id="XMLID_256_" class="st0" points="-144.007,10.032 -143.007,10.032 -145.007,4.032 -146.007,4.032 		"/>
	</g>
</g>
<g id="XMLID_25_">
	<g id="XMLID_26_">
		<rect id="XMLID_255_" x="-147" y="8.037" class="st0" width="3" height="1"/>
	</g>
</g>
<g id="XMLID_23_">
	<g id="XMLID_24_">
		<rect id="XMLID_249_" x="-142.035" y="4.032" class="st0" width="1" height="6"/>
	</g>
</g>
<g id="XMLID_22_">
	<polygon id="XMLID_248_" class="st0" points="-137.414,7.302 -138.121,6.595 -138.828,7.302 -138.121,8.009 -137.414,8.716 
		-136.707,8.009 -136,7.302 -136.707,6.595 	"/>
</g>
<g id="XMLID_20_">
	<g id="XMLID_21_">
		<path id="XMLID_35_" class="st0" d="M-144.18,14.791c-4.062,0-7.365-3.317-7.365-7.396c0-4.078,3.304-7.395,7.365-7.395
			c4.061,0,7.364,3.317,7.364,7.395h-1c0-3.526-2.855-6.395-6.364-6.395c-3.51,0-6.365,2.869-6.365,6.395s2.855,6.396,6.365,6.396
			V14.791z"/>
	</g>
</g>
<g id="XMLID_15_">
	<g id="XMLID_16_">
		<path id="XMLID_17_" class="st0" d="M-141.104,14.198l-0.391-0.92c0.512-0.217,0.994-0.499,1.435-0.839l0.611,0.791
			C-139.957,13.623-140.514,13.948-141.104,14.198z M-138.093,11.876l-0.791-0.611c0.34-0.44,0.622-0.923,0.839-1.435l0.92,0.391
			C-137.375,10.811-137.701,11.367-138.093,11.876z"/>
	</g>
</g>
<g id="XMLID_12_">
	<g id="XMLID_13_">
		<polygon id="XMLID_14_" class="st0" points="-147.007,10.032 -148.007,10.032 -146.007,4.032 -145.007,4.032 		"/>
	</g>
</g>
<g id="XMLID_9_">
	<g id="XMLID_10_">
		<polygon id="XMLID_11_" class="st0" points="-144.007,10.032 -143.007,10.032 -145.007,4.032 -146.007,4.032 		"/>
	</g>
</g>
<g id="XMLID_6_">
	<g id="XMLID_7_">
		<rect id="XMLID_8_" x="-147" y="8.037" class="st0" width="3" height="1"/>
	</g>
</g>
<g id="XMLID_3_">
	<g id="XMLID_4_">
		<rect id="XMLID_5_" x="-142.035" y="4.032" class="st0" width="1" height="6"/>
	</g>
</g>
<g id="XMLID_1_">
	<polygon id="XMLID_2_" class="st0" points="-137.414,7.302 -138.121,6.595 -138.828,7.302 -138.121,8.009 -137.414,8.716 
		-136.707,8.009 -136,7.302 -136.707,6.595 	"/>
</g>
<g id="XMLID_197_">
	<g id="XMLID_203_">
		<path id="XMLID_324_" class="st0" d="M-124.999,15.508l-0.088-0.016C-125.146,15.482-131,14.377-131,8V1h12v1h-11v6
			c0,5.186,4.298,6.337,4.999,6.489C-124.301,14.333-120,13.159-120,8V4h1v4c0,6.344-5.852,7.481-5.911,7.492L-124.999,15.508z"/>
	</g>
</g>
<g id="XMLID_194_">
	<g id="XMLID_200_">
		<path id="XMLID_269_" class="st0" d="M-125,10.5c-1.93,0-3.5-1.57-3.5-3.5s1.57-3.5,3.5-3.5s3.5,1.57,3.5,3.5
			S-123.07,10.5-125,10.5z M-125,4.5c-1.378,0-2.5,1.122-2.5,2.5s1.122,2.5,2.5,2.5s2.5-1.122,2.5-2.5S-123.622,4.5-125,4.5z"/>
	</g>
</g>
<g id="XMLID_205_">
	<g id="XMLID_265_">
		<path id="XMLID_266_" class="st0" d="M-125.354,7.354c-0.195-0.195-0.195-0.512,0-0.707c0.195-0.195,0.512-0.195,0.707,0
			l0.707-0.707c-0.585-0.585-1.536-0.585-2.121,0s-0.585,1.536,0,2.121s1.536,0.585,2.121,0l-0.707-0.707
			C-124.842,7.549-125.158,7.549-125.354,7.354z"/>
	</g>
</g>
<g id="XMLID_220_">
	<rect id="XMLID_490_" y="3" class="st0" width="13" height="1"/>
</g>
<g id="XMLID_221_">
	<rect id="XMLID_488_" y="4" class="st0" width="1" height="9"/>
</g>
<g id="XMLID_222_">
	<rect id="XMLID_486_" y="13" class="st0" width="13" height="1"/>
</g>
<g id="XMLID_285_">
	<rect id="XMLID_484_" x="12" y="4" class="st0" width="1" height="9"/>
</g>
<g id="XMLID_286_">
	<g id="XMLID_288_">
		<path id="XMLID_466_" class="st0" d="M15.247,10.551c-0.159,0-0.317-0.051-0.451-0.15l-2.241-1.679
			c-0.188-0.141-0.302-0.366-0.302-0.603s0.113-0.462,0.303-0.603l2.24-1.678c0.231-0.171,0.533-0.199,0.789-0.07
			C15.841,5.896,16,6.154,16,6.44v3.357c0,0.287-0.159,0.545-0.416,0.673C15.477,10.524,15.361,10.551,15.247,10.551z M13.419,8.119
			L15,9.304V6.935L13.419,8.119z"/>
	</g>
</g>
<g id="XMLID_287_">
	<g id="XMLID_294_">
		<path id="XMLID_334_" class="st0" d="M4,8.5C3.173,8.5,2.5,7.827,2.5,7S3.173,5.5,4,5.5S5.5,6.173,5.5,7S4.827,8.5,4,8.5z M4,6.5
			C3.725,6.5,3.5,6.724,3.5,7S3.725,7.5,4,7.5S4.5,7.276,4.5,7S4.275,6.5,4,6.5z"/>
	</g>
</g>
</svg>
