<?xml version="1.0" encoding="utf-8"?>
<!-- Generator: Adobe Illustrator 19.0.0, SVG Export Plug-In . SVG Version: 6.00 Build 0)  -->
<svg version="1.1" id="图层_1" xmlns="http://www.w3.org/2000/svg" xmlns:xlink="http://www.w3.org/1999/xlink" x="0px" y="0px"
	 width="16px" height="16px" viewBox="0 0 16 16" style="enable-background:new 0 0 16 16;" xml:space="preserve">
<style type="text/css">
	.st0{fill:#7C848E;}
</style>
<g id="XMLID_33_">
	<g id="XMLID_34_">
		<path id="XMLID_262_" class="st0" d="M-144.18,14.791c-4.062,0-7.365-3.317-7.365-7.396c0-4.078,3.304-7.395,7.365-7.395
			c4.061,0,7.364,3.317,7.364,7.395h-1c0-3.526-2.855-6.395-6.364-6.395c-3.51,0-6.365,2.869-6.365,6.395s2.855,6.396,6.365,6.396
			V14.791z"/>
	</g>
</g>
<g id="XMLID_31_">
	<g id="XMLID_32_">
		<path id="XMLID_261_" class="st0" d="M-141.104,14.198l-0.391-0.92c0.512-0.217,0.994-0.499,1.435-0.839l0.611,0.791
			C-139.957,13.623-140.514,13.948-141.104,14.198z M-138.093,11.876l-0.791-0.611c0.34-0.44,0.622-0.923,0.839-1.435l0.92,0.391
			C-137.375,10.811-137.701,11.367-138.093,11.876z"/>
	</g>
</g>
<g id="XMLID_29_">
	<g id="XMLID_30_">
		<polygon id="XMLID_257_" class="st0" points="-147.007,10.032 -148.007,10.032 -146.007,4.032 -145.007,4.032 		"/>
	</g>
</g>
<g id="XMLID_27_">
	<g id="XMLID_28_">
		<polygon id="XMLID_256_" class="st0" points="-144.007,10.032 -143.007,10.032 -145.007,4.032 -146.007,4.032 		"/>
	</g>
</g>
<g id="XMLID_25_">
	<g id="XMLID_26_">
		<rect id="XMLID_255_" x="-147" y="8.037" class="st0" width="3" height="1"/>
	</g>
</g>
<g id="XMLID_23_">
	<g id="XMLID_24_">
		<rect id="XMLID_249_" x="-142.035" y="4.032" class="st0" width="1" height="6"/>
	</g>
</g>
<g id="XMLID_22_">
	<polygon id="XMLID_248_" class="st0" points="-137.414,7.302 -138.121,6.595 -138.828,7.302 -138.121,8.009 -137.414,8.716
		-136.707,8.009 -136,7.302 -136.707,6.595 	"/>
</g>
<g id="XMLID_20_">
	<g id="XMLID_21_">
		<path id="XMLID_35_" class="st0" d="M-144.18,14.791c-4.062,0-7.365-3.317-7.365-7.396c0-4.078,3.304-7.395,7.365-7.395
			c4.061,0,7.364,3.317,7.364,7.395h-1c0-3.526-2.855-6.395-6.364-6.395c-3.51,0-6.365,2.869-6.365,6.395s2.855,6.396,6.365,6.396
			V14.791z"/>
	</g>
</g>
<g id="XMLID_15_">
	<g id="XMLID_16_">
		<path id="XMLID_17_" class="st0" d="M-141.104,14.198l-0.391-0.92c0.512-0.217,0.994-0.499,1.435-0.839l0.611,0.791
			C-139.957,13.623-140.514,13.948-141.104,14.198z M-138.093,11.876l-0.791-0.611c0.34-0.44,0.622-0.923,0.839-1.435l0.92,0.391
			C-137.375,10.811-137.701,11.367-138.093,11.876z"/>
	</g>
</g>
<g id="XMLID_12_">
	<g id="XMLID_13_">
		<polygon id="XMLID_14_" class="st0" points="-147.007,10.032 -148.007,10.032 -146.007,4.032 -145.007,4.032 		"/>
	</g>
</g>
<g id="XMLID_9_">
	<g id="XMLID_10_">
		<polygon id="XMLID_11_" class="st0" points="-144.007,10.032 -143.007,10.032 -145.007,4.032 -146.007,4.032 		"/>
	</g>
</g>
<g id="XMLID_6_">
	<g id="XMLID_7_">
		<rect id="XMLID_8_" x="-147" y="8.037" class="st0" width="3" height="1"/>
	</g>
</g>
<g id="XMLID_3_">
	<g id="XMLID_4_">
		<rect id="XMLID_5_" x="-142.035" y="4.032" class="st0" width="1" height="6"/>
	</g>
</g>
<g id="XMLID_1_">
	<polygon id="XMLID_2_" class="st0" points="-137.414,7.302 -138.121,6.595 -138.828,7.302 -138.121,8.009 -137.414,8.716
		-136.707,8.009 -136,7.302 -136.707,6.595 	"/>
</g>
<g id="XMLID_55_">
	<g id="XMLID_56_">
		<path id="XMLID_57_" class="st0" d="M7.82,15.433c-4.062,0-7.365-3.317-7.365-7.396c0-4.078,3.304-7.395,7.365-7.395
			s7.364,3.317,7.364,7.395h-1c0-3.526-2.855-6.395-6.364-6.395c-3.51,0-6.365,2.869-6.365,6.395s2.855,6.396,6.365,6.396V15.433z"
			/>
	</g>
</g>
<g id="XMLID_50_">
	<g id="XMLID_51_">
		<path id="XMLID_52_" class="st0" d="M10.896,14.84l-0.391-0.92c0.512-0.217,0.994-0.499,1.435-0.839l0.611,0.791
			C12.043,14.265,11.486,14.59,10.896,14.84z M13.907,12.518l-0.791-0.611c0.34-0.44,0.622-0.923,0.839-1.435l0.92,0.391
			C14.625,11.453,14.299,12.009,13.907,12.518z"/>
	</g>
</g>
<g id="XMLID_47_">
	<g id="XMLID_48_">
		<polygon id="XMLID_49_" class="st0" points="4.993,10.674 3.993,10.674 5.993,4.674 6.993,4.674 		"/>
	</g>
</g>
<g id="XMLID_44_">
	<g id="XMLID_45_">
		<polygon id="XMLID_46_" class="st0" points="7.993,10.674 8.993,10.674 6.993,4.674 5.993,4.674 		"/>
	</g>
</g>
<g id="XMLID_41_">
	<g id="XMLID_42_">
		<rect id="XMLID_43_" x="5" y="8.679" class="st0" width="3" height="1"/>
	</g>
</g>
<g id="XMLID_38_">
	<g id="XMLID_39_">
		<rect id="XMLID_40_" x="9.965" y="4.674" class="st0" width="1" height="6"/>
	</g>
</g>
<g id="XMLID_36_">
	<polygon id="XMLID_37_" class="st0" points="14.586,7.944 13.879,7.237 13.172,7.944 13.879,8.651 14.586,9.358 15.293,8.651
		16,7.944 15.293,7.237 	"/>
</g>
</svg>
