<?xml version="1.0" encoding="utf-8"?>
<!-- Generator: Adobe Illustrator 19.0.0, SVG Export Plug-In . SVG Version: 6.00 Build 0)  -->
<svg version="1.1" id="图层_1" xmlns="http://www.w3.org/2000/svg" xmlns:xlink="http://www.w3.org/1999/xlink" x="0px" y="0px"
	 width="16px" height="16px" viewBox="0 0 16 16" style="enable-background:new 0 0 16 16;" xml:space="preserve">
<style type="text/css">
	.st0{fill:#00A4FF;}
</style>
<g id="XMLID_17_">
	<g id="XMLID_29_">
		<path id="XMLID_30_" class="st0" d="M7.696,11.032l-1.46-2.063L3.708,9.001C3.488,9.004,3.359,8.752,3.491,8.575l1.512-2.026
			L4.191,4.155C4.12,3.946,4.32,3.746,4.529,3.817l2.394,0.812l2.026-1.512c0.177-0.132,0.429-0.004,0.426,0.217L9.343,5.861
			l2.063,1.46c0.18,0.127,0.136,0.407-0.075,0.473l-2.414,0.75l-0.75,2.413C8.103,11.169,7.823,11.213,7.696,11.032z M6.783,7.895
			l0.847,1.198l0.436-1.401l1.402-0.436L8.269,6.409l0.019-1.468L7.112,5.819l-1.39-0.471l0.471,1.39L5.315,7.914L6.783,7.895z"/>
	</g>
	<g id="XMLID_26_">
		
			<rect id="XMLID_27_" x="10.143" y="7.639" transform="matrix(-0.7071 0.7071 -0.7071 -0.7071 25.5103 10.0376)" class="st0" width="1.067" height="5.326"/>
	</g>
</g>
<rect id="XMLID_101_" y="12" class="st0" width="1" height="4"/>
<rect id="XMLID_103_" y="15" class="st0" width="4" height="1"/>
<rect id="XMLID_94_" x="0" y="0" class="st0" width="4" height="1"/>
<rect id="XMLID_93_" x="0" y="0" class="st0" width="1" height="4"/>
<rect id="XMLID_96_" x="15" y="0" class="st0" width="1" height="4"/>
<rect id="XMLID_95_" x="12" y="0" class="st0" width="4" height="1"/>
<rect id="XMLID_98_" x="12" y="15" class="st0" width="4" height="1"/>
<rect id="XMLID_97_" x="15" y="12" class="st0" width="1" height="4"/>
</svg>
