<?xml version="1.0" encoding="utf-8"?>
<!-- Generator: Adobe Illustrator 21.0.0, SVG Export Plug-In . SVG Version: 6.00 Build 0)  -->
<svg version="1.1" id="图层_1" xmlns="http://www.w3.org/2000/svg" xmlns:xlink="http://www.w3.org/1999/xlink" x="0px" y="0px"
	 width="16px" height="16px" viewBox="0 0 16 16" style="enable-background:new 0 0 16 16;" xml:space="preserve">
<style type="text/css">
	.st0{opacity:0.3;fill:#00A4FF;}
	.st1{opacity:0.3;fill:#7C848E;}
	.st2{fill:none;stroke:#00A4FF;stroke-width:2;}
	.st3{fill:none;stroke:#00A4FF;stroke-width:2;stroke-linecap:square;}
	.st4{fill:none;stroke:#00A4FF;stroke-width:2;stroke-linecap:round;}
	.st5{fill:#00A4FF;}
	.st6{fill:#7C848E;}
	.st7{fill:url(#Fill-1-Copy-3_1_);}
</style>
<rect x="1.9" y="4.5" class="st0" width="9" height="7"/>
<g id="XMLID_18_">
	<g id="XMLID_19_">
		<g id="XMLID_36_">
			<path class="st5" d="M2.9,11c-0.8,0-1.5-0.7-1.5-1.5S2.1,8,2.9,8s1.5,0.7,1.5,1.5S3.8,11,2.9,11z M2.9,9C2.7,9,2.4,9.2,2.4,9.5
				S2.7,10,2.9,10s0.5-0.2,0.5-0.5S3.2,9,2.9,9z"/>
		</g>
	</g>
</g>
<g id="XMLID_75_">
	<g id="XMLID_76_">
		<g id="XMLID_77_">
			<path class="st5" d="M9.9,9.9c-0.6,0-1-0.4-1-1s0.4-1,1-1s1,0.4,1,1S10.4,9.9,9.9,9.9z"/>
		</g>
	</g>
</g>
<g id="XMLID_61_">
	<g id="XMLID_62_">
		<g id="XMLID_63_">
			<path class="st5" d="M6.5,7.7c-0.8,0-1.3-0.6-1.3-1.4C5.2,5.5,5.7,5,6.5,5c0.8,0,1.3,0.7,1.3,1.3C7.8,7,7.3,7.7,6.5,7.7z M6.5,6
				C6.3,6,6.2,6.1,6.2,6.3c0,0.1,0,0.4,0.3,0.4c0.2,0,0.3-0.2,0.3-0.4C6.8,6.2,6.7,6,6.5,6z"/>
		</g>
	</g>
</g>
<g id="XMLID_73_">
	<g id="XMLID_74_">
		<rect y="2.5" class="st5" width="13" height="1"/>
	</g>
</g>
<g id="XMLID_71_">
	<g id="XMLID_72_">
		<rect y="3.5" class="st5" width="1" height="9"/>
	</g>
</g>
<g id="XMLID_69_">
	<g id="XMLID_70_">
		<rect y="12.5" class="st5" width="13" height="1"/>
	</g>
</g>
<g id="XMLID_67_">
	<g id="XMLID_68_">
		<rect x="12" y="3.5" class="st5" width="1" height="9"/>
	</g>
</g>
<g id="XMLID_64_">
	<g id="XMLID_65_">
		<g id="XMLID_66_">
			<path class="st5" d="M15.2,10.1c-0.2,0-0.3-0.1-0.5-0.1l-2.2-1.7c-0.2-0.1-0.3-0.4-0.3-0.6s0.1-0.5,0.3-0.6l2.2-1.7
				c0.2-0.2,0.5-0.2,0.8-0.1C15.8,5.4,16,5.7,16,5.9v3.4c0,0.3-0.2,0.5-0.4,0.7C15.5,10,15.4,10.1,15.2,10.1z M13.4,7.6L15,8.8V6.4
				L13.4,7.6z"/>
		</g>
	</g>
</g>
<g>
	<rect x="3.2" y="7.4" transform="matrix(0.7398 -0.6729 0.6729 0.7398 -4.0924 5.2183)" class="st5" width="3" height="1"/>
</g>
<g>
	<rect x="8" y="6.2" transform="matrix(0.5813 -0.8137 0.8137 0.5813 -2.8689 10.2247)" class="st5" width="1" height="3.4"/>
</g>
</svg>
