<?xml version="1.0" encoding="utf-8"?>
<!-- Generator: Adobe Illustrator 19.0.0, SVG Export Plug-In . SVG Version: 6.00 Build 0)  -->
<svg version="1.1" id="图层_1" xmlns="http://www.w3.org/2000/svg" xmlns:xlink="http://www.w3.org/1999/xlink" x="0px" y="0px"
	 width="16px" height="16px" viewBox="0 0 16 16" style="enable-background:new 0 0 16 16;" xml:space="preserve">
<style type="text/css">
	.st0{fill:#00A4FF;}
</style>
<g id="XMLID_65_">
	<g id="XMLID_66_">
		<circle id="XMLID_67_" class="st0" cx="5.032" cy="6.968" r="1.032"/>
	</g>
</g>
<g id="XMLID_62_">
	<g id="XMLID_63_">
		<circle id="XMLID_64_" class="st0" cx="9.968" cy="6.968" r="1.032"/>
	</g>
</g>
<path id="XMLID_59_" class="st0" d="M8.982,10c-0.214,0.599-0.781,1.032-1.453,1.032S6.289,10.599,6.075,10H5
	c0.24,1.176,1.282,2.065,2.529,2.065S9.817,11.176,10.057,10H8.982z"/>
<path id="XMLID_19_" class="st0" d="M14.638,5.794C14.87,6.489,15,7.229,15,8c0,3.86-3.14,7-7,7s-7-3.14-7-7s3.14-7,7-7
	c0.771,0,1.511,0.13,2.205,0.362l0.473-0.892C9.84,0.171,8.941,0,8,0C3.582,0,0,3.582,0,8s3.582,8,8,8s8-3.582,8-8
	c0-0.941-0.171-1.84-0.469-2.679L14.638,5.794z"/>
<path id="XMLID_71_" class="st0" d="M12.059,7.882l-1.365-2.576L8.118,3.941l2.576-1.365L12.059,0l1.365,2.576L16,3.941
	l-2.576,1.365L12.059,7.882z M10.323,3.941l1.134,0.601l0.602,1.135l0.602-1.135l1.134-0.601L12.661,3.34l-0.602-1.135L11.457,3.34
	L10.323,3.941z"/>
</svg>
