<?xml version="1.0" encoding="utf-8"?>
<!-- Generator: Adobe Illustrator 19.0.0, SVG Export Plug-In . SVG Version: 6.00 Build 0)  -->
<svg version="1.1" id="图层_1" xmlns="http://www.w3.org/2000/svg" xmlns:xlink="http://www.w3.org/1999/xlink" x="0px" y="0px"
	 width="16px" height="16px" viewBox="0 0 16 16" style="enable-background:new 0 0 16 16;" xml:space="preserve">
<style type="text/css">
	.st0{fill:#7C848E;}
</style>
<g id="XMLID_21_">
	<path id="XMLID_9_" class="st0" d="M3.783,6.993C3.562,6.444,3.45,5.875,3.45,5.3c0-2.509,2.041-4.55,4.55-4.55
		s4.55,2.041,4.55,4.55c0,0.573-0.111,1.142-0.332,1.692L11.29,6.621c0.172-0.432,0.26-0.876,0.26-1.321
		c0-1.958-1.593-3.55-3.55-3.55c-1.958,0-3.55,1.592-3.55,3.55c0,0.446,0.087,0.89,0.26,1.32L3.783,6.993z"/>
</g>
<g id="XMLID_24_">
	<path id="XMLID_6_" class="st0" d="M10.7,15.25c-1.112,0-2.19-0.419-3.035-1.18l-0.413-0.371l0.413-0.371
		C8.429,12.64,8.85,11.707,8.85,10.7c0-0.447-0.087-0.891-0.26-1.319L8.38,8.859l0.543-0.147C9.995,8.421,10.88,7.639,11.29,6.62
		l0.166-0.412l0.429,0.116C13.866,6.86,15.25,8.659,15.25,10.7C15.25,13.209,13.209,15.25,10.7,15.25z M8.747,13.649
		c0.582,0.39,1.259,0.601,1.954,0.601c1.957,0,3.55-1.593,3.55-3.55c0-1.451-0.899-2.746-2.231-3.279
		c-0.502,0.943-1.334,1.688-2.331,2.088C9.795,9.899,9.85,10.298,9.85,10.7C9.85,11.78,9.453,12.827,8.747,13.649z"/>
</g>
<g id="XMLID_20_">
	<path id="XMLID_5_" class="st0" d="M9.185,9.677L8.923,8.712C9.995,8.421,10.88,7.639,11.29,6.62l0.928,0.373
		C11.691,8.302,10.558,9.305,9.185,9.677z"/>
</g>
<g id="XMLID_16_">
	<path id="XMLID_4_" class="st0" d="M5.3,15.25c-2.509,0-4.55-2.041-4.55-4.55c0-2.041,1.384-3.841,3.366-4.376l0.429-0.116
		L4.71,6.62c0.41,1.02,1.294,1.802,2.367,2.092L6.815,9.677c-1.219-0.33-2.25-1.158-2.833-2.256C2.649,7.954,1.75,9.249,1.75,10.7
		c0,1.957,1.592,3.55,3.55,3.55c0.865,0,1.705-0.327,2.366-0.922l0.669,0.742C7.49,14.831,6.413,15.25,5.3,15.25z"/>
</g>
<g id="XMLID_25_">
	<path id="XMLID_3_" class="st0" d="M6.815,9.677C5.442,9.305,4.308,8.301,3.783,6.993L4.71,6.62c0.41,1.02,1.294,1.802,2.367,2.092
		L6.815,9.677z"/>
</g>
<g id="XMLID_18_">
	<path id="XMLID_2_" class="st0" d="M8,9.85c-0.369,0-0.745-0.055-1.183-0.173l0.259-0.965c0.703,0.188,1.146,0.188,1.849,0
		l0.259,0.965C8.745,9.795,8.369,9.85,8,9.85z"/>
</g>
</svg>
