<?xml version="1.0" encoding="utf-8"?>
<!-- Generator: Adobe Illustrator 19.0.0, SVG Export Plug-In . SVG Version: 6.00 Build 0)  -->
<svg version="1.1" id="图层_1" xmlns="http://www.w3.org/2000/svg" xmlns:xlink="http://www.w3.org/1999/xlink" x="0px" y="0px"
	 width="16px" height="16px" viewBox="0 0 16 16" style="enable-background:new 0 0 16 16;" xml:space="preserve">
<style type="text/css">
	.st0{fill:#7C848E;}
	.st1{fill:none;}
</style>
<g id="XMLID_33_">
	<g id="XMLID_34_">
		<path id="XMLID_262_" class="st0" d="M-144.18,14.791c-4.062,0-7.365-3.317-7.365-7.396c0-4.078,3.304-7.395,7.365-7.395
			c4.061,0,7.364,3.317,7.364,7.395h-1c0-3.526-2.855-6.395-6.364-6.395c-3.51,0-6.365,2.869-6.365,6.395s2.855,6.396,6.365,6.396
			V14.791z"/>
	</g>
</g>
<g id="XMLID_31_">
	<g id="XMLID_32_">
		<path id="XMLID_261_" class="st0" d="M-141.104,14.198l-0.391-0.92c0.512-0.217,0.994-0.499,1.435-0.839l0.611,0.791
			C-139.957,13.623-140.514,13.948-141.104,14.198z M-138.093,11.876l-0.791-0.611c0.34-0.44,0.622-0.923,0.839-1.435l0.92,0.391
			C-137.375,10.811-137.701,11.367-138.093,11.876z"/>
	</g>
</g>
<g id="XMLID_29_">
	<g id="XMLID_30_">
		<polygon id="XMLID_257_" class="st0" points="-147.007,10.032 -148.007,10.032 -146.007,4.032 -145.007,4.032 		"/>
	</g>
</g>
<g id="XMLID_27_">
	<g id="XMLID_28_">
		<polygon id="XMLID_256_" class="st0" points="-144.007,10.032 -143.007,10.032 -145.007,4.032 -146.007,4.032 		"/>
	</g>
</g>
<g id="XMLID_25_">
	<g id="XMLID_26_">
		<rect id="XMLID_255_" x="-147" y="8.037" class="st0" width="3" height="1"/>
	</g>
</g>
<g id="XMLID_23_">
	<g id="XMLID_24_">
		<rect id="XMLID_249_" x="-142.035" y="4.032" class="st0" width="1" height="6"/>
	</g>
</g>
<g id="XMLID_22_">
	<polygon id="XMLID_248_" class="st0" points="-137.414,7.302 -138.121,6.595 -138.828,7.302 -138.121,8.009 -137.414,8.716
		-136.707,8.009 -136,7.302 -136.707,6.595 	"/>
</g>
<g id="XMLID_20_">
	<g id="XMLID_21_">
		<path id="XMLID_35_" class="st0" d="M-144.18,14.791c-4.062,0-7.365-3.317-7.365-7.396c0-4.078,3.304-7.395,7.365-7.395
			c4.061,0,7.364,3.317,7.364,7.395h-1c0-3.526-2.855-6.395-6.364-6.395c-3.51,0-6.365,2.869-6.365,6.395s2.855,6.396,6.365,6.396
			V14.791z"/>
	</g>
</g>
<g id="XMLID_15_">
	<g id="XMLID_16_">
		<path id="XMLID_17_" class="st0" d="M-141.104,14.198l-0.391-0.92c0.512-0.217,0.994-0.499,1.435-0.839l0.611,0.791
			C-139.957,13.623-140.514,13.948-141.104,14.198z M-138.093,11.876l-0.791-0.611c0.34-0.44,0.622-0.923,0.839-1.435l0.92,0.391
			C-137.375,10.811-137.701,11.367-138.093,11.876z"/>
	</g>
</g>
<g id="XMLID_12_">
	<g id="XMLID_13_">
		<polygon id="XMLID_14_" class="st0" points="-147.007,10.032 -148.007,10.032 -146.007,4.032 -145.007,4.032 		"/>
	</g>
</g>
<g id="XMLID_9_">
	<g id="XMLID_10_">
		<polygon id="XMLID_11_" class="st0" points="-144.007,10.032 -143.007,10.032 -145.007,4.032 -146.007,4.032 		"/>
	</g>
</g>
<g id="XMLID_6_">
	<g id="XMLID_7_">
		<rect id="XMLID_8_" x="-147" y="8.037" class="st0" width="3" height="1"/>
	</g>
</g>
<g id="XMLID_3_">
	<g id="XMLID_4_">
		<rect id="XMLID_5_" x="-142.035" y="4.032" class="st0" width="1" height="6"/>
	</g>
</g>
<g id="XMLID_1_">
	<polygon id="XMLID_2_" class="st0" points="-137.414,7.302 -138.121,6.595 -138.828,7.302 -138.121,8.009 -137.414,8.716
		-136.707,8.009 -136,7.302 -136.707,6.595 	"/>
</g>
<g id="XMLID_197_">
	<g id="XMLID_203_">
		<path id="XMLID_324_" class="st0" d="M-124.999,15.508l-0.088-0.016C-125.146,15.482-131,14.377-131,8V1h12v1h-11v6
			c0,5.186,4.298,6.337,4.999,6.489C-124.301,14.333-120,13.159-120,8V4h1v4c0,6.344-5.852,7.481-5.911,7.492L-124.999,15.508z"/>
	</g>
</g>
<g id="XMLID_194_">
	<g id="XMLID_200_">
		<path id="XMLID_269_" class="st0" d="M-125,10.5c-1.93,0-3.5-1.57-3.5-3.5s1.57-3.5,3.5-3.5s3.5,1.57,3.5,3.5
			S-123.07,10.5-125,10.5z M-125,4.5c-1.378,0-2.5,1.122-2.5,2.5s1.122,2.5,2.5,2.5s2.5-1.122,2.5-2.5S-123.622,4.5-125,4.5z"/>
	</g>
</g>
<g id="XMLID_205_">
	<g id="XMLID_265_">
		<path id="XMLID_266_" class="st0" d="M-125.354,7.354c-0.195-0.195-0.195-0.512,0-0.707c0.195-0.195,0.512-0.195,0.707,0
			l0.707-0.707c-0.585-0.585-1.536-0.585-2.121,0s-0.585,1.536,0,2.121s1.536,0.585,2.121,0l-0.707-0.707
			C-124.842,7.549-125.158,7.549-125.354,7.354z"/>
	</g>
</g>
<g id="XMLID_415_">
	<polygon id="XMLID_247_" class="st0" points="13,3 12,3 12,4 13,4 14,4 14,3 14,2 13,2 	"/>
</g>
<g id="XMLID_467_">
	<path id="XMLID_245_" class="st0" d="M8,15.5c-4.136,0-7.5-3.364-7.5-7.5S3.864,0.5,8,0.5c2.032,0,3.936,0.8,5.358,2.253
		l-0.715,0.699C11.411,2.193,9.762,1.5,8,1.5C4.416,1.5,1.5,4.416,1.5,8s2.916,6.5,6.5,6.5s6.5-2.916,6.5-6.5
		c0-0.973-0.21-1.909-0.624-2.782L14.78,4.79C15.258,5.797,15.5,6.877,15.5,8C15.5,12.136,12.136,15.5,8,15.5z"/>
</g>
<g id="XMLID_36_">
	<g id="XMLID_57_">
		<polygon id="XMLID_556_" class="st1" points="10.732,6.443 8.482,5.144 6.268,6.423 8.518,7.722 		"/>
	</g>
	<g id="XMLID_58_">
		<polygon id="XMLID_554_" class="st1" points="9,10.577 11,9.423 11,7.443 9,8.598 		"/>
	</g>
	<g id="XMLID_59_">
		<polygon id="XMLID_552_" class="st1" points="6,7.423 6,9.402 8,10.557 8,8.577 		"/>
	</g>
	<g id="XMLID_60_">
		<polygon id="XMLID_550_" class="st0" points="8.5,12 8.536,12 8.518,11.969 		"/>
	</g>
	<g id="XMLID_61_">
		<polygon id="XMLID_548_" class="st0" points="8.536,8.866 8.518,8.835 8.5,8.866 8,8.577 8,10.557 8.518,10.856 9,10.577 9,8.598
					"/>
	</g>
	<g id="XMLID_64_">
		<polygon id="XMLID_546_" class="st0" points="6,9.402 6,7.423 5.036,6.866 5.268,6.464 5,6 5,10 5.036,10 5.536,9.134 		"/>
	</g>
	<g id="XMLID_65_">
		<polygon id="XMLID_544_" class="st0" points="11.964,6 11.732,6.402 12,6.866 12,6 		"/>
	</g>
	<g id="XMLID_66_">
		<polygon id="XMLID_542_" class="st0" points="11,9.423 11.5,9.134 12,10 12,6.866 11,7.443 		"/>
	</g>
	<g id="XMLID_67_">
		<polygon id="XMLID_540_" class="st0" points="8.518,7.722 9,8 9,8.598 11,7.443 11,6.598 10.732,6.443 		"/>
	</g>
	<g id="XMLID_68_">
		<polygon id="XMLID_538_" class="st0" points="8.536,8.866 9,8.598 9,8 8.518,8.835 		"/>
	</g>
	<g id="XMLID_69_">
		<polygon id="XMLID_536_" class="st0" points="11.464,6.866 11,6.598 11,7.443 12,6.866 11.732,6.402 		"/>
	</g>
	<g id="XMLID_70_">
		<polygon id="XMLID_534_" class="st0" points="11,9.423 9,10.577 9,11.134 9,11.732 12,10 11,10 		"/>
	</g>
	<g id="XMLID_71_">
		<polygon id="XMLID_532_" class="st0" points="9,11.134 9,10.577 8.518,10.856 		"/>
	</g>
	<g id="XMLID_74_">
		<polygon id="XMLID_530_" class="st0" points="8.518,11.969 8.536,12 9,11.732 9,11.134 		"/>
	</g>
	<g id="XMLID_75_">
		<polygon id="XMLID_528_" class="st0" points="11,9.423 11,10 12,10 11.5,9.134 		"/>
	</g>
	<g id="XMLID_76_">
		<polygon id="XMLID_526_" class="st0" points="6,6 6,6.268 6.268,6.423 8.482,5.144 8,4.866 8.482,4.031 8.464,4 5,6 5.536,6 		"/>
	</g>
	<g id="XMLID_77_">
		<polygon id="XMLID_524_" class="st0" points="5.536,6 5,6 5.268,6.464 		"/>
	</g>
	<g id="XMLID_78_">
		<polygon id="XMLID_522_" class="st0" points="6,6 5.536,6 6,6.268 		"/>
	</g>
	<g id="XMLID_79_">
		<polygon id="XMLID_520_" class="st0" points="8,8 8.036,8 8.518,7.722 6.268,6.423 6,6.577 6,7.423 8,8.577 		"/>
	</g>
	<g id="XMLID_80_">
		<polygon id="XMLID_518_" class="st0" points="8,8 8,8.577 8.5,8.866 8.518,8.835 8.036,8 		"/>
	</g>
	<g id="XMLID_81_">
		<polygon id="XMLID_516_" class="st0" points="5.5,6.866 5.268,6.464 5.036,6.866 6,7.423 6,6.577 		"/>
	</g>
	<g id="XMLID_82_">
		<polygon id="XMLID_514_" class="st0" points="9,8 8.518,7.722 8.036,8 		"/>
	</g>
	<g id="XMLID_83_">
		<polygon id="XMLID_512_" class="st0" points="8.518,8.835 9,8 8.036,8 		"/>
	</g>
	<g id="XMLID_84_">
		<polygon id="XMLID_510_" class="st0" points="6.268,6.423 6,6.268 6,6.577 		"/>
	</g>
	<g id="XMLID_85_">
		<polygon id="XMLID_508_" class="st0" points="6,6.577 6,6.268 5.536,6 5.268,6.464 5.5,6.866 		"/>
	</g>
	<g id="XMLID_86_">
		<polygon id="XMLID_506_" class="st0" points="6,9.402 6,10 5.036,10 8,11.711 8,10.557 		"/>
	</g>
	<g id="XMLID_87_">
		<polygon id="XMLID_504_" class="st0" points="8.036,11.134 8.518,10.856 8,10.557 8,11.711 8.5,12 8.518,11.969 		"/>
	</g>
	<g id="XMLID_88_">
		<polygon id="XMLID_502_" class="st0" points="6,9.402 5.536,9.134 5.036,10 6,10 		"/>
	</g>
	<g id="XMLID_89_">
		<polygon id="XMLID_500_" class="st0" points="8.036,11.134 8.518,11.969 9,11.134 8.518,10.856 		"/>
	</g>
	<g id="XMLID_90_">
		<polygon id="XMLID_498_" class="st0" points="8.482,5.144 10.732,6.443 11,6.289 11,6 11.5,6 11.964,6 8.5,4 8.482,4.031
			8.964,4.866 		"/>
	</g>
	<g id="XMLID_91_">
		<polygon id="XMLID_496_" class="st0" points="11.732,6.402 11.964,6 11.5,6 		"/>
	</g>
	<g id="XMLID_92_">
		<polygon id="XMLID_494_" class="st0" points="11,6 11,6.289 11.5,6 		"/>
	</g>
	<g id="XMLID_93_">
		<polygon id="XMLID_492_" class="st0" points="10.732,6.443 11,6.598 11,6.289 		"/>
	</g>
	<g id="XMLID_94_">
		<polygon id="XMLID_490_" class="st0" points="11,6.289 11,6.598 11.464,6.866 11.732,6.402 11.5,6 		"/>
	</g>
	<g id="XMLID_95_">
		<polygon id="XMLID_488_" class="st0" points="8.482,5.144 8.964,4.866 8.482,4.031 8,4.866 		"/>
	</g>
</g>
</svg>
