<?xml version="1.0" encoding="utf-8"?>
<!-- Generator: Adobe Illustrator 19.0.0, SVG Export Plug-In . SVG Version: 6.00 Build 0)  -->
<svg version="1.1" id="图层_1" xmlns="http://www.w3.org/2000/svg" xmlns:xlink="http://www.w3.org/1999/xlink" x="0px" y="0px"
	 width="16px" height="16px" viewBox="0 0 16 16" style="enable-background:new 0 0 16 16;" xml:space="preserve">
<style type="text/css">
	.st0{fill:#7C848E;}
</style>
<g id="XMLID_33_">
	<g id="XMLID_34_">
		<path id="XMLID_262_" class="st0" d="M-144.18,14.791c-4.062,0-7.365-3.317-7.365-7.396c0-4.078,3.304-7.395,7.365-7.395
			c4.061,0,7.364,3.317,7.364,7.395h-1c0-3.526-2.855-6.395-6.364-6.395c-3.51,0-6.365,2.869-6.365,6.395s2.855,6.396,6.365,6.396
			V14.791z"/>
	</g>
</g>
<g id="XMLID_31_">
	<g id="XMLID_32_">
		<path id="XMLID_261_" class="st0" d="M-141.104,14.198l-0.391-0.92c0.512-0.217,0.994-0.499,1.435-0.839l0.611,0.791
			C-139.957,13.623-140.514,13.948-141.104,14.198z M-138.093,11.876l-0.791-0.611c0.34-0.44,0.622-0.923,0.839-1.435l0.92,0.391
			C-137.375,10.811-137.701,11.367-138.093,11.876z"/>
	</g>
</g>
<g id="XMLID_29_">
	<g id="XMLID_30_">
		<polygon id="XMLID_257_" class="st0" points="-147.007,10.032 -148.007,10.032 -146.007,4.032 -145.007,4.032 		"/>
	</g>
</g>
<g id="XMLID_27_">
	<g id="XMLID_28_">
		<polygon id="XMLID_256_" class="st0" points="-144.007,10.032 -143.007,10.032 -145.007,4.032 -146.007,4.032 		"/>
	</g>
</g>
<g id="XMLID_25_">
	<g id="XMLID_26_">
		<rect id="XMLID_255_" x="-147" y="8.037" class="st0" width="3" height="1"/>
	</g>
</g>
<g id="XMLID_23_">
	<g id="XMLID_24_">
		<rect id="XMLID_249_" x="-142.035" y="4.032" class="st0" width="1" height="6"/>
	</g>
</g>
<g id="XMLID_22_">
	<polygon id="XMLID_248_" class="st0" points="-137.414,7.302 -138.121,6.595 -138.828,7.302 -138.121,8.009 -137.414,8.716
		-136.707,8.009 -136,7.302 -136.707,6.595 	"/>
</g>
<g id="XMLID_20_">
	<g id="XMLID_21_">
		<path id="XMLID_35_" class="st0" d="M-144.18,14.791c-4.062,0-7.365-3.317-7.365-7.396c0-4.078,3.304-7.395,7.365-7.395
			c4.061,0,7.364,3.317,7.364,7.395h-1c0-3.526-2.855-6.395-6.364-6.395c-3.51,0-6.365,2.869-6.365,6.395s2.855,6.396,6.365,6.396
			V14.791z"/>
	</g>
</g>
<g id="XMLID_15_">
	<g id="XMLID_16_">
		<path id="XMLID_17_" class="st0" d="M-141.104,14.198l-0.391-0.92c0.512-0.217,0.994-0.499,1.435-0.839l0.611,0.791
			C-139.957,13.623-140.514,13.948-141.104,14.198z M-138.093,11.876l-0.791-0.611c0.34-0.44,0.622-0.923,0.839-1.435l0.92,0.391
			C-137.375,10.811-137.701,11.367-138.093,11.876z"/>
	</g>
</g>
<g id="XMLID_12_">
	<g id="XMLID_13_">
		<polygon id="XMLID_14_" class="st0" points="-147.007,10.032 -148.007,10.032 -146.007,4.032 -145.007,4.032 		"/>
	</g>
</g>
<g id="XMLID_9_">
	<g id="XMLID_10_">
		<polygon id="XMLID_11_" class="st0" points="-144.007,10.032 -143.007,10.032 -145.007,4.032 -146.007,4.032 		"/>
	</g>
</g>
<g id="XMLID_6_">
	<g id="XMLID_7_">
		<rect id="XMLID_8_" x="-147" y="8.037" class="st0" width="3" height="1"/>
	</g>
</g>
<g id="XMLID_3_">
	<g id="XMLID_4_">
		<rect id="XMLID_5_" x="-142.035" y="4.032" class="st0" width="1" height="6"/>
	</g>
</g>
<g id="XMLID_1_">
	<polygon id="XMLID_2_" class="st0" points="-137.414,7.302 -138.121,6.595 -138.828,7.302 -138.121,8.009 -137.414,8.716
		-136.707,8.009 -136,7.302 -136.707,6.595 	"/>
</g>
<g id="XMLID_197_">
	<g id="XMLID_203_">
		<path id="XMLID_324_" class="st0" d="M-124.999,15.508l-0.088-0.016C-125.146,15.482-131,14.377-131,8V1h12v1h-11v6
			c0,5.186,4.298,6.337,4.999,6.489C-124.301,14.333-120,13.159-120,8V4h1v4c0,6.344-5.852,7.481-5.911,7.492L-124.999,15.508z"/>
	</g>
</g>
<g id="XMLID_194_">
	<g id="XMLID_200_">
		<path id="XMLID_269_" class="st0" d="M-125,10.5c-1.93,0-3.5-1.57-3.5-3.5s1.57-3.5,3.5-3.5s3.5,1.57,3.5,3.5
			S-123.07,10.5-125,10.5z M-125,4.5c-1.378,0-2.5,1.122-2.5,2.5s1.122,2.5,2.5,2.5s2.5-1.122,2.5-2.5S-123.622,4.5-125,4.5z"/>
	</g>
</g>
<g id="XMLID_205_">
	<g id="XMLID_265_">
		<path id="XMLID_266_" class="st0" d="M-125.354,7.354c-0.195-0.195-0.195-0.512,0-0.707c0.195-0.195,0.512-0.195,0.707,0
			l0.707-0.707c-0.585-0.585-1.536-0.585-2.121,0s-0.585,1.536,0,2.121s1.536,0.585,2.121,0l-0.707-0.707
			C-124.842,7.549-125.158,7.549-125.354,7.354z"/>
	</g>
</g>
<g id="XMLID_53_">
	<g id="XMLID_54_">
		<path id="XMLID_469_" class="st0" d="M8.006,15.454c-4.11,0-7.454-3.344-7.454-7.454c0-4.11,3.344-7.454,7.454-7.454
			c4.109,0,7.453,3.344,7.453,7.454C15.459,12.11,12.115,15.454,8.006,15.454z M8.006,1.546C4.447,1.546,1.552,4.441,1.552,8
			s2.895,6.454,6.454,6.454S14.459,11.558,14.459,8S11.564,1.546,8.006,1.546z"/>
	</g>
</g>
<g id="XMLID_49_">
	<g id="XMLID_50_">
		<path id="XMLID_400_" class="st0" d="M7.5,7.5h-3v-3h3V7.5z M5.5,6.5h1v-1h-1V6.5z"/>
	</g>
</g>
<g id="XMLID_45_">
	<g id="XMLID_46_">
		<path id="XMLID_328_" class="st0" d="M11.5,7.5h-3v-3h3V7.5z M9.5,6.5h1v-1h-1V6.5z"/>
	</g>
</g>
<g id="XMLID_41_">
	<g id="XMLID_42_">
		<path id="XMLID_290_" class="st0" d="M11.5,11.5h-3v-3h3V11.5z M9.5,10.5h1v-1h-1V10.5z"/>
	</g>
</g>
<g id="XMLID_36_">
	<g id="XMLID_37_">
		<path id="XMLID_38_" class="st0" d="M7.5,11.5h-3v-3h3V11.5z M5.5,10.5h1v-1h-1V10.5z"/>
	</g>
</g>
</svg>
