<?xml version="1.0" encoding="utf-8"?>
<!-- Generator: Adobe Illustrator 21.0.0, SVG Export Plug-In . SVG Version: 6.00 Build 0)  -->
<svg version="1.1" id="图层_1" xmlns="http://www.w3.org/2000/svg" xmlns:xlink="http://www.w3.org/1999/xlink" x="0px" y="0px"
	 width="16px" height="16px" viewBox="0 0 16 16" style="enable-background:new 0 0 16 16;" xml:space="preserve">
<style type="text/css">
	.st0{opacity:0.3;fill:#00A4FF;}
	.st1{opacity:0.3;fill:#7C848E;}
	.st2{fill:none;stroke:#00A4FF;stroke-width:2;}
	.st3{fill:none;stroke:#00A4FF;stroke-width:2;stroke-linecap:square;}
	.st4{fill:none;stroke:#00A4FF;stroke-width:2;stroke-linecap:round;}
	.st5{fill:#00A4FF;}
	.st6{fill:#7C848E;}
	.st7{fill:url(#Fill-1-Copy-3_1_);}
</style>
<path class="st0" d="M8.3,10.2L8.3,10.2c-0.8,0-1.4-0.6-1.4-1.4V4.3c0-0.8,0.6-1.4,1.4-1.4h0c0.8,0,1.4,0.6,1.4,1.4v4.5
	C9.7,9.6,9.1,10.2,8.3,10.2z"/>
<g>
	<g>
		<g>
			<rect x="2.7" y="5.2" class="st5" width="1" height="2.7"/>
		</g>
		<g>
			<rect x="12.8" y="5.2" class="st5" width="1" height="2.7"/>
		</g>
	</g>
	<g>
		<g>
			<path class="st5" d="M8.3,12.2c-1.9,0-3.4-1.5-3.4-3.4V4.3c0-1.9,1.5-3.4,3.4-3.4s3.4,1.5,3.4,3.4v4.5
				C11.6,10.7,10.1,12.2,8.3,12.2z M8.3,1.9C7,1.9,5.9,3,5.9,4.3v4.5c0,1.3,1.1,2.4,2.4,2.4c1.2,0,2.3-1.1,2.4-2.4l0-4.5
				C10.7,3,9.6,1.9,8.3,1.9z"/>
		</g>
		<g>
			<path class="st5" d="M8.2,15c-0.3,0-0.5-0.2-0.5-0.5v-2.6c0-0.3,0.2-0.5,0.5-0.5c0.3,0,0.5,0.2,0.5,0.5v2.6
				C8.7,14.8,8.5,15,8.2,15z"/>
		</g>
		<g>
			<path class="st5" d="M10.9,7.1H5.7c-0.3,0-0.5-0.2-0.5-0.5s0.2-0.5,0.5-0.5h5.2c0.3,0,0.5,0.2,0.5,0.5S11.2,7.1,10.9,7.1z"/>
		</g>
		<g>
			<rect x="5.8" y="14.1" class="st5" width="4.9" height="1"/>
		</g>
	</g>
</g>
</svg>
