<?xml version="1.0" encoding="utf-8"?>
<!-- Generator: Adobe Illustrator 19.0.0, SVG Export Plug-In . SVG Version: 6.00 Build 0)  -->
<svg version="1.1" id="图层_1" xmlns="http://www.w3.org/2000/svg" xmlns:xlink="http://www.w3.org/1999/xlink" x="0px" y="0px"
	 viewBox="16 -16 48 48" style="enable-background:new 16 -16 48 48;" xml:space="preserve">
<style type="text/css">
	.st0{fill:#00A4FF;}
</style>
<g id="XMLID_424_">
	<g id="XMLID_497_">
		<g>
			<path class="st0" d="M60.8,11C59.3,21.2,50.6,29,40,29c-11.6,0-21-9.4-21-21s9.4-21,21-21c10.6,0,19.3,7.8,20.8,18h2
				C61.3-6.3,51.7-15,40-15C27.3-15,17-4.7,17,8s10.3,23,23,23c11.7,0,21.3-8.7,22.8-20H60.8z"/>
		</g>
	</g>
	<path id="XMLID_411_" class="st0" d="M50,20H30V-2h20V20z M32,18h16V0H32V18z"/>
	<g id="XMLID_468_">
		<rect id="XMLID_410_" x="30" y="12" class="st0" width="20" height="2"/>
	</g>
	<g id="XMLID_469_">
		<rect id="XMLID_405_" x="45" y="13" class="st0" width="2" height="6"/>
	</g>
</g>
</svg>
