<?xml version="1.0" encoding="UTF-8"?>
<svg width="48px" height="48px" viewBox="0 0 48 48" version="1.1" xmlns="http://www.w3.org/2000/svg" xmlns:xlink="http://www.w3.org/1999/xlink">
    <!-- Generator: Sketch 48.2 (47327) - http://www.bohemiancoding.com/sketch -->
    <title>旗舰服务</title>
    <desc>Created with Sketch.</desc>
    <defs>
        <polygon id="path-1" points="0.0001 0.0001 48 0.0001 48 48 0.0001 48"></polygon>
    </defs>
    <g id="切图" stroke="none" stroke-width="1" fill="none" fill-rule="evenodd">
        <g id="旗舰服务">
            <g id="Page-1">
                <path d="M35.1041,21 L30.5191,21 L32.2571,16.221 L35.1041,21 Z M26.4521,32.183 L29.7911,23 L34.4991,23 L26.4521,32.183 Z M20.3371,23 L27.6631,23 L24.0001,33.073 L20.3371,23 Z M13.5421,23 L18.2081,23 L21.5231,32.115 L13.5421,23 Z M15.7661,16.282 L17.4811,21 L12.9401,21 L15.7661,16.282 Z M17.1321,14 L22.3001,14 L19.1361,19.697 L17.0901,14.071 L17.1321,14 Z M27.3001,21 L20.6991,21 L24.0001,15.059 L27.3001,21 Z M30.9341,14 L30.9351,14.002 L28.8641,19.697 L25.6991,14 L30.9341,14 Z M16.0001,12 L10.0001,22 L24.0001,38 L38.0001,22 L32.0001,12 L16.0001,12 Z" id="Fill-1" fill="#757A80"></path>
                <g id="Group-4">
                    <mask id="mask-2" fill="white">
                        <use xlink:href="#path-1"></use>
                    </mask>
                    <g id="Clip-3"></g>
                    <path d="M40.8271,38.1301 C40.5631,38.0541 40.2891,38.0001 40.0001,38.0001 C38.3431,38.0001 37.0001,39.3431 37.0001,41.0001 C37.0001,41.2301 37.0311,41.4521 37.0801,41.6681 C33.4221,44.3811 28.9041,46.0001 24.0001,46.0001 C19.0951,46.0001 14.5771,44.3811 10.9191,41.6681 C10.9681,41.4521 11.0001,41.2301 11.0001,41.0001 C11.0001,39.3431 9.6571,38.0001 8.0001,38.0001 C7.7111,38.0001 7.4371,38.0541 7.1731,38.1301 C3.9571,34.3061 2.0001,29.3881 2.0001,24.0001 C2.0001,18.6121 3.9571,13.6941 7.1731,9.8701 C7.4371,9.9461 7.7111,10.0001 8.0001,10.0001 C9.6571,10.0001 11.0001,8.6571 11.0001,7.0001 C11.0001,6.7701 10.9681,6.5481 10.9191,6.3321 C14.5771,3.6191 19.0951,2.0001 24.0001,2.0001 C28.9041,2.0001 33.4221,3.6191 37.0801,6.3321 C37.0311,6.5481 37.0001,6.7701 37.0001,7.0001 C37.0001,8.6571 38.3431,10.0001 40.0001,10.0001 C40.2891,10.0001 40.5631,9.9461 40.8271,9.8701 C44.0431,13.6941 46.0001,18.6121 46.0001,24.0001 C46.0001,29.3881 44.0431,34.3061 40.8271,38.1301 M40.0001,42.0001 C39.4481,42.0001 39.0001,41.5521 39.0001,41.0001 C39.0001,40.4481 39.4481,40.0001 40.0001,40.0001 C40.5521,40.0001 41.0001,40.4481 41.0001,41.0001 C41.0001,41.5521 40.5521,42.0001 40.0001,42.0001 M8.0001,42.0001 C7.4481,42.0001 7.0001,41.5521 7.0001,41.0001 C7.0001,40.4481 7.4481,40.0001 8.0001,40.0001 C8.5521,40.0001 9.0001,40.4481 9.0001,41.0001 C9.0001,41.5521 8.5521,42.0001 8.0001,42.0001 M8.0001,6.0001 C8.5521,6.0001 9.0001,6.4481 9.0001,7.0001 C9.0001,7.5521 8.5521,8.0001 8.0001,8.0001 C7.4481,8.0001 7.0001,7.5521 7.0001,7.0001 C7.0001,6.4481 7.4481,6.0001 8.0001,6.0001 M40.0001,6.0001 C40.5521,6.0001 41.0001,6.4481 41.0001,7.0001 C41.0001,7.5521 40.5521,8.0001 40.0001,8.0001 C39.4481,8.0001 39.0001,7.5521 39.0001,7.0001 C39.0001,6.4481 39.4481,6.0001 40.0001,6.0001 M48.0001,24.0001 C48.0001,18.1801 45.9101,12.8611 42.4641,8.7061 C42.8001,8.2211 43.0001,7.6351 43.0001,7.0001 C43.0001,5.3431 41.6571,4.0001 40.0001,4.0001 C39.3011,4.0001 38.6661,4.2491 38.1561,4.6491 C34.1851,1.7381 29.3011,0.0001 24.0001,0.0001 C18.6991,0.0001 13.8141,1.7381 9.8431,4.6491 C9.3341,4.2491 8.6991,4.0001 8.0001,4.0001 C6.3431,4.0001 5.0001,5.3431 5.0001,7.0001 C5.0001,7.6351 5.1991,8.2211 5.5361,8.7061 C2.0901,12.8611 0.0001,18.1801 0.0001,24.0001 C0.0001,29.8201 2.0901,35.1391 5.5361,39.2941 C5.1991,39.7791 5.0001,40.3651 5.0001,41.0001 C5.0001,42.6571 6.3431,44.0001 8.0001,44.0001 C8.6991,44.0001 9.3341,43.7511 9.8431,43.3501 C13.8141,46.2621 18.6991,48.0001 24.0001,48.0001 C29.3011,48.0001 34.1851,46.2621 38.1561,43.3501 C38.6661,43.7511 39.3011,44.0001 40.0001,44.0001 C41.6571,44.0001 43.0001,42.6571 43.0001,41.0001 C43.0001,40.3651 42.8001,39.7791 42.4641,39.2941 C45.9101,35.1391 48.0001,29.8201 48.0001,24.0001" id="Fill-2" fill="#757A80" mask="url(#mask-2)"></path>
                </g>
            </g>
        </g>
    </g>
</svg>