<?xml version="1.0" encoding="utf-8"?>
<!-- Generator: Adobe Illustrator 17.0.0, SVG Export Plug-In . SVG Version: 6.00 Build 0)  -->
<!DOCTYPE svg PUBLIC "-//W3C//DTD SVG 1.1//EN" "http://www.w3.org/Graphics/SVG/1.1/DTD/svg11.dtd">
<svg version="1.1" id="图层_1" xmlns="http://www.w3.org/2000/svg" xmlns:xlink="http://www.w3.org/1999/xlink" x="0px" y="0px"
	 width="830px" height="442px" viewBox="0 0 830 442" style="enable-background:new 0 0 830 442;" xml:space="preserve">
<style type="text/css">
	.st0{fill:#CEE3FF;}
	.st1{fill:#00A4FF;}
	.st2{opacity:0.6;}
	.st3{fill:#BBBBBB;}
	.st4{fill:#FFFFFF;}
	.st5{fill:#E5E5E5;}
	.st6{fill:#444444;}
	.st7{fill:none;stroke:#BABABA;stroke-miterlimit:10;stroke-dasharray:6,4;}
	.st8{fill:#CB3333;fill-opacity:0;}
	.st9{fill:#878787;}
	.st10{fill:none;stroke:#878787;stroke-miterlimit:10;}
</style>
<g>
	<rect x="269" y="32" class="st0" width="510" height="376"/>
	<g>
		<g>
			<path class="st1" d="M300.923,47.342h2.492v-2.058c-0.616,0.103-1.349,0.191-2.198,0.266l-0.21-0.966
				c2.007-0.168,3.78-0.476,5.32-0.924l0.35,0.938c-0.625,0.178-1.372,0.351-2.24,0.519v2.226h2.268v0.966h-2.268v0.561
				c0.7,0.672,1.4,1.428,2.1,2.268l-0.56,0.854c-0.532-0.84-1.045-1.577-1.54-2.212v6.58h-1.022v-6.385
				c-0.569,1.308-1.335,2.516-2.296,3.626l-0.448-1.134c1.25-1.223,2.142-2.608,2.674-4.158h-2.422L300.923,47.342L300.923,47.342z
				 M311.213,49.246c0.747,1.988,1.423,4.289,2.03,6.902l-1.008,0.252c-0.121-0.561-0.233-1.046-0.336-1.456
				c-1.848,0.363-3.841,0.699-5.978,1.008l-0.196-0.98c0.289-0.084,0.462-0.2,0.518-0.35l3.024-10.724l1.008,0.14l-3.066,10.724
				c1.736-0.252,3.22-0.504,4.452-0.756c-0.392-1.54-0.84-3.023-1.344-4.452L311.213,49.246z"/>
			<path class="st1" d="M324.457,53.376h-5.558v2.996h-0.952V49.05c-0.784,0.989-1.685,1.891-2.702,2.702l-0.658-0.854
				c1.764-1.4,3.126-3.001,4.088-4.803h-3.71v-0.979h4.172c0.252-0.579,0.457-1.125,0.616-1.639l1.022,0.126
				c-0.205,0.645-0.383,1.148-0.532,1.513h6.958v0.979h-7.378c-0.317,0.645-0.621,1.186-0.91,1.624h6.496v7.561
				c0,0.681-0.392,1.036-1.176,1.063h-1.568l-0.252-0.924c0.709,0.037,1.208,0.056,1.498,0.056c0.364,0,0.546-0.168,0.546-0.504
				V53.376z M318.899,48.602v1.526h5.558v-1.526H318.899z M324.457,51.01h-5.558v1.484h5.558V51.01z"/>
			<path class="st1" d="M337.925,56.316l-0.266-0.98l1.344,0.042c0.392,0,0.588-0.191,0.588-0.574v-9.702h-9.184v11.271h-0.994
				V44.136h11.172v10.893c0,0.858-0.416,1.288-1.246,1.288L337.925,56.316L337.925,56.316z M334.593,53.222
				c-0.402-0.634-0.845-1.307-1.33-2.016c-0.495,1.362-1.106,2.539-1.834,3.528l-0.644-0.784c0.728-1.036,1.33-2.264,1.806-3.683
				c-0.644-0.858-1.302-1.675-1.974-2.449l0.63-0.603c0.56,0.588,1.115,1.251,1.666,1.988c0.271-1.008,0.49-2.062,0.658-3.164
				l0.924,0.168c-0.224,1.438-0.518,2.753-0.882,3.948c0.616,0.84,1.167,1.638,1.652,2.394L334.593,53.222z M338.695,53.866
				c-0.401-0.69-0.873-1.466-1.414-2.324c-0.56,1.372-1.218,2.548-1.974,3.528l-0.644-0.771c0.793-1.073,1.446-2.319,1.96-3.738
				c-0.691-1.017-1.33-1.885-1.918-2.604l0.63-0.602c0.569,0.644,1.12,1.349,1.652,2.113c0.29-0.971,0.537-2.1,0.742-3.388
				l0.952,0.168c-0.252,1.55-0.588,2.954-1.008,4.214c0.588,0.896,1.157,1.806,1.708,2.73L338.695,53.866z"/>
			<path class="st1" d="M346.073,43.898c-0.7,1.819-1.4,3.257-2.1,4.312c0.579-0.084,1.185-0.182,1.82-0.294l0.742-1.498
				l0.868,0.322c-1.195,2.352-2.188,4.036-2.982,5.054c0.999-0.215,1.983-0.499,2.954-0.854v0.909
				c-1.465,0.514-2.842,0.859-4.13,1.036l-0.266-0.91c0.187-0.084,0.336-0.182,0.448-0.294c0.532-0.588,1.157-1.535,1.876-2.842
				c-0.775,0.141-1.536,0.267-2.282,0.378l-0.252-0.924c0.159-0.074,0.298-0.2,0.42-0.378c0.737-1.26,1.386-2.721,1.946-4.382
				L346.073,43.898z M347.641,54.566c-1.335,0.513-2.898,0.942-4.69,1.287l-0.126-0.993c1.82-0.309,3.425-0.724,4.816-1.246V54.566z
				 M350.833,43.716c-0.084,0.29-0.215,0.658-0.392,1.106h3.794v0.728c-0.513,1.157-1.255,2.18-2.226,3.066
				c0.98,0.719,2.161,1.273,3.542,1.666l-0.574,0.826c-1.484-0.448-2.721-1.073-3.71-1.876c-1.027,0.765-2.222,1.414-3.584,1.945
				l-0.616-0.812c1.381-0.514,2.539-1.11,3.472-1.792c-0.504-0.504-0.957-1.083-1.358-1.736c-0.392,0.467-0.812,0.882-1.26,1.246
				l-0.588-0.784c1.241-1.017,2.086-2.272,2.534-3.766L350.833,43.716z M354.235,51.15v5.166h-0.966v-0.603h-3.822v0.603h-0.966
				V51.15H354.235z M349.447,54.79h3.822v-2.716h-3.822V54.79z M349.727,46.124c0.429,0.719,0.938,1.344,1.526,1.876
				c0.803-0.69,1.433-1.451,1.89-2.282h-3.164L349.727,46.124z"/>
		</g>
	</g>
	<g>
		<g>
			<path class="st1" d="M291,48v-2c-0.252-2.247-2.186-4-4.5-4s-4.248,1.753-4.5,4v2h-2v10h13V48H291z M283,46.5
				c0-1.933,1.567-3.5,3.5-3.5s3.5,1.567,3.5,3.5V48h-7V46.5z M292,57h-11v-8h11V57z M286,52.908V56h1v-3.092
				c0.581-0.207,1-0.756,1-1.408c0-0.828-0.672-1.5-1.5-1.5s-1.5,0.672-1.5,1.5C285,52.152,285.419,52.702,286,52.908z"/>
		</g>
	</g>
</g>
<g>
	<g class="st2">
		<rect x="50" y="196.5" class="st3" width="88" height="50"/>
	</g>
	<g>
		<rect x="48.5" y="195" class="st4" width="87" height="49"/>
		<path class="st5" d="M135,195.5v48H49v-48H135 M136,194.5H48v50h88V194.5L136,194.5z"/>
	</g>
	<g>
		<path class="st6" d="M68.092,214.361h1.134v9.996h-1.134V214.361z"/>
		<path class="st6" d="M77.276,219.904v4.453h-1.12v-4.369c0-1.408-0.635-2.113-1.904-2.113c-0.504,0-0.938,0.182-1.302,0.547
			c-0.383,0.383-0.598,0.904-0.644,1.566v4.369h-1.12v-7.238h1.12v1.064c0.252-0.412,0.573-0.719,0.966-0.924
			c0.392-0.225,0.826-0.336,1.302-0.336C76.376,216.924,77.276,217.916,77.276,219.904z"/>
		<path class="st6" d="M80.943,214.781v2.338h1.792v0.938h-1.792v4.605c0,0.281,0.052,0.473,0.154,0.574
			c0.103,0.121,0.28,0.182,0.532,0.182h0.924v0.939h-1.092c-0.598,0-1.022-0.154-1.274-0.463c-0.233-0.27-0.35-0.682-0.35-1.232
			v-4.605h-1.456v-0.938h1.456v-1.877L80.943,214.781z"/>
		<path class="st6" d="M89.597,218.1c0.531,0.699,0.812,1.684,0.84,2.953h-5.712c0.056,0.822,0.274,1.451,0.657,1.891
			c0.393,0.447,0.934,0.672,1.624,0.672c0.589,0,1.069-0.15,1.442-0.449c0.299-0.242,0.541-0.619,0.728-1.133h1.12
			c-0.168,0.691-0.494,1.26-0.979,1.707c-0.616,0.543-1.386,0.812-2.311,0.812c-1.035,0-1.866-0.34-2.491-1.021
			c-0.635-0.691-0.952-1.625-0.952-2.801c0-1.082,0.303-1.973,0.91-2.674c0.615-0.756,1.446-1.133,2.491-1.133
			C88.131,216.924,89.008,217.314,89.597,218.1z M85.438,218.49c-0.383,0.412-0.611,0.977-0.687,1.695h4.522
			c-0.141-1.549-0.901-2.324-2.282-2.324C86.349,217.861,85.83,218.07,85.438,218.49z"/>
		<path class="st6" d="M95.924,217.092v1.119c-0.336-0.104-0.695-0.154-1.078-0.154c-0.569,0-1.041,0.248-1.414,0.742
			c-0.383,0.467-0.574,1.041-0.574,1.723v3.836h-1.105v-7.238h1.105v1.26c0.196-0.43,0.448-0.76,0.757-0.994
			c0.382-0.309,0.82-0.461,1.315-0.461C95.331,216.924,95.662,216.979,95.924,217.092z"/>
		<path class="st6" d="M102.951,219.904v4.453h-1.12v-4.369c0-1.408-0.635-2.113-1.904-2.113c-0.504,0-0.938,0.182-1.302,0.547
			c-0.383,0.383-0.598,0.904-0.644,1.566v4.369h-1.12v-7.238h1.12v1.064c0.252-0.412,0.573-0.719,0.966-0.924
			c0.392-0.225,0.826-0.336,1.302-0.336C102.051,216.924,102.951,217.916,102.951,219.904z"/>
		<path class="st6" d="M110.302,218.1c0.531,0.699,0.812,1.684,0.84,2.953h-5.712c0.056,0.822,0.274,1.451,0.657,1.891
			c0.393,0.447,0.934,0.672,1.624,0.672c0.589,0,1.069-0.15,1.442-0.449c0.299-0.242,0.541-0.619,0.728-1.133h1.12
			c-0.168,0.691-0.494,1.26-0.979,1.707c-0.616,0.543-1.386,0.812-2.311,0.812c-1.035,0-1.866-0.34-2.491-1.021
			c-0.635-0.691-0.952-1.625-0.952-2.801c0-1.082,0.303-1.973,0.91-2.674c0.615-0.756,1.446-1.133,2.491-1.133
			C108.836,216.924,109.713,217.314,110.302,218.1z M106.144,218.49c-0.383,0.412-0.611,0.977-0.687,1.695h4.522
			c-0.141-1.549-0.901-2.324-2.282-2.324C107.054,217.861,106.535,218.07,106.144,218.49z"/>
		<path class="st6" d="M114.389,214.781v2.338h1.792v0.938h-1.792v4.605c0,0.281,0.052,0.473,0.154,0.574
			c0.103,0.121,0.28,0.182,0.532,0.182h0.924v0.939h-1.092c-0.598,0-1.022-0.154-1.274-0.463c-0.233-0.27-0.35-0.682-0.35-1.232
			v-4.605h-1.456v-0.938h1.456v-1.877L114.389,214.781z"/>
	</g>
</g>
<g>
	<g class="st2">
		<rect x="457" y="106.5" class="st3" width="88" height="50"/>
	</g>
	<g>
		<rect x="455.5" y="105" class="st4" width="87" height="49"/>
		<path class="st5" d="M542,105.5v48h-86v-48H542 M543,104.5h-88v50h88V104.5L543,104.5z"/>
	</g>
	<g>
		<path class="st6" d="M481.274,123.479h4.312v4.396h-1.4v2.254h1.456v0.951h-1.456v2.605c0.757-0.244,1.349-0.443,1.778-0.604v1.01
			c-1.446,0.541-3.149,1.045-5.11,1.512l-0.279-0.98l0.742-0.168v-5.082h0.896v4.857l1.036-0.266v-6.09h-1.974v-4.395H481.274z
			 M484.62,126.951v-2.549h-2.366v2.549H484.62z M489.198,123.072c-0.104,0.328-0.229,0.668-0.378,1.023h3.472v0.727
			c-0.476,1.168-1.172,2.203-2.086,3.109c0.934,0.766,2.049,1.348,3.346,1.75l-0.574,0.826c-1.381-0.449-2.543-1.094-3.485-1.934
			c-0.952,0.766-2.082,1.43-3.389,1.988l-0.602-0.812c1.278-0.512,2.38-1.133,3.304-1.861c-0.494-0.541-0.919-1.133-1.273-1.777
			c-0.336,0.393-0.742,0.779-1.218,1.162l-0.603-0.799c1.232-0.971,2.072-2.164,2.521-3.584L489.198,123.072z M492.264,130.521
			v5.193h-0.966V135.1h-3.528v0.615h-0.966v-5.193h5.46V130.521z M487.77,134.176h3.528v-2.744h-3.528V134.176z M488.106,125.342
			c0.392,0.756,0.858,1.404,1.399,1.945c0.729-0.709,1.302-1.475,1.722-2.297h-2.884L488.106,125.342z"/>
		<path class="st6" d="M506.222,125.174v10.514h-1.008v-0.91h-8.428v0.91h-1.008v-10.514h4.704v-2.199h1.035v2.199H506.222z
			 M496.786,129.359h3.696v-3.221h-3.696V129.359z M496.786,133.811h3.696v-3.514h-3.696V133.811z M501.518,126.139v3.221h3.696
			v-3.221H501.518z M501.518,133.811h3.696v-3.514h-3.696V133.811z"/>
		<path class="st6" d="M509.456,124.137h5.026v-1.189h1.035v1.189h5.026v0.924h-5.026v1.33h4.215v0.924h-4.215v1.33h5.517v0.91
			h-5.096c0.382,0.896,0.844,1.693,1.386,2.395c0.793-0.365,1.549-0.93,2.268-1.693l0.7,0.672c-0.728,0.727-1.531,1.283-2.408,1.666
			c0.924,0.979,2.039,1.717,3.347,2.211l-0.532,0.883c-2.613-1.055-4.508-3.1-5.685-6.133h-0.489
			c-0.485,0.701-1.116,1.344-1.891,1.932v2.982c0.952-0.279,1.993-0.648,3.122-1.105l0.196,0.938
			c-1.466,0.588-2.94,1.064-4.424,1.428l-0.336-0.867c0.298-0.113,0.447-0.281,0.447-0.504v-2.199
			c-0.774,0.477-1.624,0.896-2.548,1.26l-0.532-0.867c2.231-0.783,3.864-1.783,4.9-2.996h-4.494v-0.91h5.517v-1.33h-4.215v-0.924
			h4.215v-1.33h-5.026L509.456,124.137L509.456,124.137z"/>
	</g>
</g>
<g>
	<g class="st2">
		<rect x="191" y="196" class="st3" width="138" height="50"/>
	</g>
	<g>
		<rect x="189.5" y="194.5" class="st4" width="137" height="49"/>
		<path class="st5" d="M326,195v48H190v-48H326 M327,194H189v50h138V194L327,194z"/>
	</g>
	<rect x="209" y="203" class="st4" width="32" height="32"/>
	<g>
		<path class="st6" d="M252.007,213.86h1.204l5.656,8.134h0.042v-8.134h1.147v9.996h-1.176l-5.684-8.218h-0.042v8.218h-1.148v-9.996
			H252.007z"/>
		<path class="st6" d="M264.999,213.86h1.33l3.935,9.996h-1.246l-1.064-2.8h-4.592l-1.063,2.8h-1.232L264.999,213.86z
			 M263.726,220.091h3.864l-1.891-4.998h-0.056L263.726,220.091z"/>
		<path class="st6" d="M270.501,213.86h8.189v0.994h-3.527v9.002h-1.135v-9.002h-3.527L270.501,213.86L270.501,213.86z"/>
		<path class="st6" d="M288.854,225.173l-0.266-0.98l1.344,0.042c0.393,0,0.588-0.191,0.588-0.574v-9.702h-9.184v11.271h-0.994
			v-12.236h11.172v10.893c0,0.858-0.415,1.288-1.246,1.288h-1.414V225.173z M285.522,222.078c-0.401-0.634-0.845-1.307-1.33-2.016
			c-0.494,1.362-1.105,2.539-1.834,3.528l-0.644-0.784c0.728-1.036,1.33-2.264,1.806-3.683c-0.644-0.858-1.302-1.675-1.974-2.449
			l0.63-0.603c0.56,0.588,1.115,1.251,1.666,1.988c0.271-1.008,0.49-2.062,0.658-3.164l0.924,0.168
			c-0.224,1.438-0.519,2.753-0.882,3.948c0.616,0.84,1.166,1.638,1.651,2.394L285.522,222.078z M289.625,222.723
			c-0.401-0.69-0.873-1.466-1.414-2.324c-0.561,1.372-1.218,2.548-1.975,3.528l-0.644-0.771c0.793-1.073,1.446-2.319,1.96-3.738
			c-0.69-1.017-1.33-1.885-1.918-2.604l0.63-0.602c0.569,0.644,1.12,1.349,1.652,2.113c0.289-0.971,0.536-2.1,0.742-3.388
			l0.951,0.168c-0.252,1.55-0.588,2.954-1.008,4.214c0.588,0.896,1.157,1.806,1.708,2.73L289.625,222.723z"/>
		<path class="st6" d="M303.499,212.614c-0.336,1.018-0.756,1.923-1.261,2.716h2.885v0.98h-4.677v0.658
			c-0.027,0.774-0.093,1.423-0.195,1.945h5.684v0.98h-5.096c0.69,1.895,2.501,3.364,5.432,4.41l-0.588,0.938
			c-3.07-1.241-4.984-2.931-5.74-5.067c-0.271,0.812-0.625,1.512-1.063,2.1c-0.962,1.241-2.516,2.202-4.662,2.884l-0.546-0.882
			c2.146-0.69,3.64-1.596,4.479-2.716c0.346-0.514,0.611-1.068,0.798-1.666h-5.025v-0.98h5.278c0.13-0.615,0.2-1.265,0.21-1.945
			v-0.658h-4.69v-0.98h6.398c0.513-0.783,0.984-1.777,1.413-2.981L303.499,212.614z M297.269,212.475
			c0.579,0.756,1.11,1.549,1.596,2.38l-0.909,0.462c-0.514-0.915-1.051-1.713-1.61-2.394L297.269,212.475z"/>
	</g>
	<g>
		<path class="st1" d="M225.149,232c-7.18,0-13-5.82-13-13s5.82-13,13-13c6.498,0,11.866,4.772,12.831,11H240
			c-0.98-7.336-7.247-13-14.851-13c-8.284,0-15,6.716-15,15s6.716,15,15,15c7.604,0,13.871-5.664,14.851-13h-2.021
			C237.015,227.228,231.646,232,225.149,232z"/>
		<rect x="217.149" y="214" class="st1" width="16" height="2"/>
		<rect x="217.149" y="225" class="st1" width="16" height="2"/>
		<rect x="217.149" y="214" class="st1" width="2" height="3"/>
		<rect x="217.149" y="224" class="st1" width="2" height="3"/>
		<rect x="231.149" y="224" class="st1" width="2" height="3"/>
		<rect x="231.149" y="214" class="st1" width="2" height="3"/>
		<rect x="220.149" y="210" class="st1" width="2" height="4"/>
		<rect x="228.149" y="210" class="st1" width="2" height="4"/>
		<rect x="223.149" y="218" class="st1" width="2" height="5"/>
		<rect x="220.149" y="218" class="st1" width="2" height="5"/>
		<rect x="217.149" y="218" class="st1" width="2" height="5"/>
		<rect x="226.149" y="218" class="st1" width="2" height="5"/>
		<rect x="224.149" y="218" class="st1" width="3" height="1"/>
		<rect x="229.149" y="218" class="st1" width="4" height="1"/>
		<rect x="224.149" y="220" class="st1" width="3" height="1"/>
		<rect x="230.149" y="218" class="st1" width="2" height="5"/>
		<polygon class="st1" points="218.149,218 220.149,223 221.149,223 219.149,218 		"/>
	</g>
</g>
<g>
	<g>
		<rect x="616.908" y="52.5" class="st7" width="141.092" height="156"/>
	</g>
	<g>
		<path class="st6" d="M627.109,63.258h0.742v11.214h2.268V63.258h0.742v11.214h4.298v0.742h-12.32v-0.742h4.271L627.109,63.258
			L627.109,63.258z M623.875,65.722c0.729,1.886,1.391,4.084,1.988,6.595l-0.7,0.168c-0.495-2.203-1.144-4.383-1.946-6.538
			L623.875,65.722z M634.726,65.946c-0.561,2.464-1.279,4.615-2.156,6.454l-0.687-0.252c0.831-1.699,1.555-3.827,2.171-6.385
			L634.726,65.946z"/>
		<path class="st6" d="M641.726,63.16c-0.159,0.373-0.359,0.761-0.603,1.162h6.202v0.616c-0.934,1.082-2.081,1.997-3.444,2.743
			c1.624,0.729,3.453,1.204,5.488,1.429l-0.336,0.714c-2.23-0.262-4.224-0.835-5.978-1.723c-1.728,0.794-3.752,1.372-6.076,1.736
			l-0.351-0.7c2.146-0.298,4.023-0.788,5.628-1.47c-0.887-0.532-1.698-1.125-2.436-1.778c-0.569,0.532-1.199,0.999-1.89,1.4
			l-0.462-0.602c1.717-0.98,2.879-2.193,3.485-3.641L641.726,63.16z M643.056,69.222c0,0.579-0.052,1.148-0.154,1.708h4.984
			c-0.028,2.315-0.243,3.691-0.645,4.13c-0.411,0.458-1.12,0.687-2.128,0.687c-0.42,0-0.934-0.014-1.54-0.042l-0.196-0.7
			c0.84,0.037,1.363,0.056,1.568,0.056c0.934-0.019,1.517-0.205,1.75-0.56c0.233-0.373,0.378-1.335,0.434-2.884h-4.396
			c-0.149,0.448-0.312,0.831-0.49,1.147c-0.747,1.261-2.39,2.296-4.928,3.108l-0.504-0.603c2.296-0.681,3.836-1.559,4.62-2.632
			c0.177-0.289,0.34-0.63,0.489-1.021h-4.325V70.93h4.535c0.122-0.578,0.183-1.147,0.183-1.708H643.056z M646.247,65.036h-5.642
			c-0.131,0.149-0.225,0.262-0.28,0.336c0.812,0.737,1.727,1.377,2.744,1.918C644.301,66.665,645.36,65.913,646.247,65.036z"/>
		<path class="st6" d="M650.923,69.222h5.992v-2.128c1.251-0.69,2.455-1.554,3.612-2.59h-8.148v-0.728h9.198v0.728
			c-1.11,1.046-2.417,2.049-3.92,3.01v1.708h5.418v0.742h-5.418v4.564c0,0.83-0.396,1.246-1.19,1.246h-2.352l-0.21-0.729
			l2.254,0.014c0.504,0,0.756-0.261,0.756-0.783v-4.312h-5.992V69.222z"/>
		<path class="st6" d="M673.925,75.774l-0.195-0.742l1.386,0.042c0.41,0,0.616-0.21,0.616-0.63v-9.982h-9.464V75.83h-0.756V63.72
			h10.976v10.893c0,0.774-0.378,1.162-1.134,1.162L673.925,75.774L673.925,75.774z M670.705,72.722
			c-0.494-0.765-0.999-1.512-1.512-2.239c-0.522,1.418-1.172,2.655-1.946,3.71l-0.49-0.589c0.784-1.092,1.429-2.37,1.933-3.836
			c-0.756-1.008-1.442-1.853-2.059-2.533l0.477-0.477c0.569,0.598,1.181,1.335,1.834,2.212c0.289-0.989,0.536-2.137,0.742-3.443
			l0.714,0.126c-0.233,1.483-0.542,2.828-0.924,4.031c0.504,0.682,1.082,1.531,1.735,2.549L670.705,72.722z M674.863,73.366
			c-0.495-0.831-1.022-1.685-1.582-2.562c-0.579,1.438-1.278,2.679-2.1,3.725l-0.477-0.588c0.821-1.073,1.512-2.366,2.072-3.879
			c-0.7-1.026-1.377-1.927-2.03-2.701l0.49-0.477c0.616,0.71,1.223,1.498,1.82,2.366c0.354-1.092,0.639-2.319,0.854-3.682
			l0.714,0.126c-0.261,1.577-0.611,3.015-1.05,4.312c0.598,0.905,1.194,1.857,1.792,2.856L674.863,73.366z"/>
		<path class="st6" d="M682.899,64.504V74.5h-0.854v-8.932c-0.644,0.699-1.441,1.189-2.394,1.47V66.17
			c0.476-0.14,0.938-0.35,1.386-0.63c0.438-0.289,0.831-0.635,1.176-1.036H682.899z"/>
	</g>
	<g>
		<g class="st2">
			<rect x="629" y="87.5" class="st3" width="117" height="50"/>
		</g>
		<g>
			<rect x="627.5" y="86" class="st4" width="116" height="49"/>
			<path class="st5" d="M743,86.5v48H628v-48H743 M744,85.5H627v50h117V85.5L744,85.5z"/>
		</g>
		<rect x="647" y="94.5" class="st8" width="32" height="32"/>
		<g>
			<path class="st6" d="M697.12,106.047c0.756,0.588,1.204,1.381,1.344,2.381h-1.105c-0.141-0.719-0.495-1.279-1.064-1.682
				c-0.541-0.373-1.204-0.559-1.988-0.559c-1.157,0-2.053,0.406-2.688,1.217c-0.588,0.756-0.882,1.756-0.882,2.996
				c0,1.26,0.289,2.25,0.867,2.969c0.616,0.775,1.508,1.162,2.675,1.162c0.793,0,1.47-0.211,2.029-0.631
				c0.598-0.457,0.994-1.115,1.19-1.973h1.105c-0.224,1.176-0.746,2.08-1.567,2.715c-0.775,0.607-1.694,0.91-2.758,0.91
				c-1.55,0-2.739-0.514-3.57-1.539c-0.747-0.916-1.12-2.119-1.12-3.613c0-1.492,0.383-2.711,1.148-3.654
				c0.83-1.055,2.024-1.582,3.584-1.582C695.431,105.164,696.364,105.459,697.12,106.047z"/>
			<path class="st6" d="M699.263,105.361h1.26l3.122,8.75h0.042l3.122-8.75h1.26l-3.696,9.996h-1.414L699.263,105.361z"/>
			<path class="st6" d="M709.146,105.361h1.428l3.725,8.525h0.042l3.71-8.525h1.428v9.996h-1.147v-7.953h-0.042l-3.458,7.953h-1.036
				l-3.458-7.953h-0.042v7.953h-1.148v-9.996H709.146z"/>
		</g>
		<g id="XMLID_309_">
			<g>
				<path class="st1" d="M663,123.5c-7.18,0-13-5.82-13-13s5.82-13,13-13c6.498,0,11.866,4.772,12.831,11h2.021
					c-0.98-7.336-7.247-13-14.851-13c-8.284,0-15,6.716-15,15s6.716,15,15,15c7.604,0,13.871-5.664,14.851-13h-2.021
					C674.866,118.728,669.498,123.5,663,123.5z M670,106.5l-7-4l-7,4v8l3.195,1.826c0.203-0.657,0.557-1.244,1.042-1.708
					L658,113.339v-3.696l5,2.857l5-2.857v3.696l-4.137,2.364c-0.262-0.126-0.553-0.203-0.863-0.203c-1.105,0-2,0.895-2,2
					s0.895,2,2,2s2-0.895,2-2c0-0.046-0.01-0.09-0.014-0.135L670,114.5V106.5z M663,110.196l-4.719-2.697l4.719-2.696l4.719,2.696
					L663,110.196z"/>
			</g>
		</g>
	</g>
	<g>
		<g class="st2">
			<rect x="629" y="149.5" class="st3" width="117" height="50"/>
		</g>
		<g>
			<rect x="627.5" y="148" class="st4" width="116" height="49"/>
			<path class="st5" d="M743,148.5v48H628v-48H743 M744,147.5H627v50h117V147.5L744,147.5z"/>
		</g>
		<rect x="647" y="156.5" class="st8" width="32" height="32"/>
		<g>
			<path class="st6" d="M697.12,168.047c0.756,0.588,1.204,1.381,1.344,2.381h-1.105c-0.141-0.719-0.495-1.279-1.064-1.682
				c-0.541-0.373-1.204-0.559-1.988-0.559c-1.157,0-2.053,0.406-2.688,1.217c-0.588,0.756-0.882,1.756-0.882,2.996
				c0,1.26,0.289,2.25,0.867,2.969c0.616,0.775,1.508,1.162,2.675,1.162c0.793,0,1.47-0.211,2.029-0.631
				c0.598-0.457,0.994-1.115,1.19-1.973h1.105c-0.224,1.176-0.746,2.08-1.567,2.715c-0.775,0.607-1.694,0.91-2.758,0.91
				c-1.55,0-2.739-0.514-3.57-1.539c-0.747-0.916-1.12-2.119-1.12-3.613c0-1.492,0.383-2.711,1.148-3.654
				c0.83-1.055,2.024-1.582,3.584-1.582C695.431,167.164,696.364,167.459,697.12,168.047z"/>
			<path class="st6" d="M699.263,167.361h1.26l3.122,8.75h0.042l3.122-8.75h1.26l-3.696,9.996h-1.414L699.263,167.361z"/>
			<path class="st6" d="M709.146,167.361h1.428l3.725,8.525h0.042l3.71-8.525h1.428v9.996h-1.147v-7.953h-0.042l-3.458,7.953h-1.036
				l-3.458-7.953h-0.042v7.953h-1.148v-9.996H709.146z"/>
		</g>
		<g id="XMLID_1_">
			<g>
				<path class="st1" d="M663,185.5c-7.18,0-13-5.82-13-13s5.82-13,13-13c6.498,0,11.866,4.772,12.831,11h2.021
					c-0.98-7.336-7.247-13-14.851-13c-8.284,0-15,6.716-15,15s6.716,15,15,15c7.604,0,13.871-5.664,14.851-13h-2.021
					C674.866,180.728,669.498,185.5,663,185.5z M670,168.5l-7-4l-7,4v8l3.195,1.826c0.203-0.657,0.557-1.244,1.042-1.708
					L658,175.339v-3.696l5,2.857l5-2.857v3.696l-4.137,2.364c-0.262-0.126-0.553-0.203-0.863-0.203c-1.105,0-2,0.895-2,2
					s0.895,2,2,2s2-0.895,2-2c0-0.046-0.01-0.09-0.014-0.135L670,176.5V168.5z M663,172.196l-4.719-2.697l4.719-2.696l4.719,2.696
					L663,172.196z"/>
			</g>
		</g>
	</g>
</g>
<g>
	<polygon class="st9" points="554,126 549,131 554,136 	"/>
	<line class="st10" x1="617" y1="131" x2="554" y2="131"/>
</g>
<g>
	<line class="st10" x1="456" y1="131" x2="434" y2="131"/>
</g>
<g>
	<line class="st10" x1="434" y1="307" x2="434" y2="131"/>
</g>
<g>
	<line class="st10" x1="456" y1="307" x2="434" y2="307"/>
</g>
<g>
	<polygon class="st9" points="337,215 332,220 337,225 	"/>
	<line class="st10" x1="434" y1="220" x2="337" y2="220"/>
</g>
<g>
	<polygon class="st9" points="146,215 141,220 146,225 	"/>
	<line class="st10" x1="189" y1="220" x2="146" y2="220"/>
</g>
<g>
	<g class="st2">
		<rect x="457" y="283" class="st3" width="88" height="50"/>
	</g>
	<g>
		<rect x="455.5" y="281.5" class="st4" width="87" height="49"/>
		<path class="st5" d="M542,282v48h-86v-48H542 M543,281h-88v50h88V281L543,281z"/>
	</g>
	<g>
		<path class="st6" d="M481.274,299.979h4.312v4.396h-1.4v2.254h1.456v0.951h-1.456v2.605c0.757-0.244,1.349-0.443,1.778-0.604v1.01
			c-1.446,0.541-3.149,1.045-5.11,1.512l-0.279-0.98l0.742-0.168v-5.082h0.896v4.857l1.036-0.266v-6.09h-1.974v-4.395H481.274z
			 M484.62,303.451v-2.549h-2.366v2.549H484.62z M489.198,299.572c-0.104,0.328-0.229,0.668-0.378,1.023h3.472v0.727
			c-0.476,1.168-1.172,2.203-2.086,3.109c0.934,0.766,2.049,1.348,3.346,1.75l-0.574,0.826c-1.381-0.449-2.543-1.094-3.485-1.934
			c-0.952,0.766-2.082,1.43-3.389,1.988l-0.602-0.812c1.278-0.512,2.38-1.133,3.304-1.861c-0.494-0.541-0.919-1.133-1.273-1.777
			c-0.336,0.393-0.742,0.779-1.218,1.162l-0.603-0.799c1.232-0.971,2.072-2.164,2.521-3.584L489.198,299.572z M492.264,307.021
			v5.193h-0.966V311.6h-3.528v0.615h-0.966v-5.193h5.46V307.021z M487.77,310.676h3.528v-2.744h-3.528V310.676z M488.106,301.842
			c0.392,0.756,0.858,1.404,1.399,1.945c0.729-0.709,1.302-1.475,1.722-2.297h-2.884L488.106,301.842z"/>
		<path class="st6" d="M506.222,301.674v10.514h-1.008v-0.91h-8.428v0.91h-1.008v-10.514h4.704v-2.199h1.035v2.199H506.222z
			 M496.786,305.859h3.696v-3.221h-3.696V305.859z M496.786,310.311h3.696v-3.514h-3.696V310.311z M501.518,302.639v3.221h3.696
			v-3.221H501.518z M501.518,310.311h3.696v-3.514h-3.696V310.311z"/>
		<path class="st6" d="M509.456,300.637h5.026v-1.189h1.035v1.189h5.026v0.924h-5.026v1.33h4.215v0.924h-4.215v1.33h5.517v0.91
			h-5.096c0.382,0.896,0.844,1.693,1.386,2.395c0.793-0.365,1.549-0.93,2.268-1.693l0.7,0.672c-0.728,0.727-1.531,1.283-2.408,1.666
			c0.924,0.979,2.039,1.717,3.347,2.211l-0.532,0.883c-2.613-1.055-4.508-3.1-5.685-6.133h-0.489
			c-0.485,0.701-1.116,1.344-1.891,1.932v2.982c0.952-0.279,1.993-0.648,3.122-1.105l0.196,0.938
			c-1.466,0.588-2.94,1.064-4.424,1.428l-0.336-0.867c0.298-0.113,0.447-0.281,0.447-0.504v-2.199
			c-0.774,0.477-1.624,0.896-2.548,1.26l-0.532-0.867c2.231-0.783,3.864-1.783,4.9-2.996h-4.494v-0.91h5.517v-1.33h-4.215v-0.924
			h4.215v-1.33h-5.026L509.456,300.637L509.456,300.637z"/>
	</g>
</g>
<g>
	<g>
		<rect x="616.908" y="229" class="st7" width="141.092" height="156"/>
	</g>
	<g>
		<path class="st6" d="M627.109,239.758h0.742v11.214h2.268v-11.214h0.742v11.214h4.298v0.742h-12.32v-0.742h4.271L627.109,239.758
			L627.109,239.758z M623.875,242.222c0.729,1.886,1.391,4.084,1.988,6.595l-0.7,0.168c-0.495-2.203-1.144-4.383-1.946-6.538
			L623.875,242.222z M634.726,242.446c-0.561,2.464-1.279,4.615-2.156,6.454l-0.687-0.252c0.831-1.699,1.555-3.827,2.171-6.385
			L634.726,242.446z"/>
		<path class="st6" d="M641.726,239.66c-0.159,0.373-0.359,0.761-0.603,1.162h6.202v0.616c-0.934,1.082-2.081,1.997-3.444,2.743
			c1.624,0.729,3.453,1.204,5.488,1.429l-0.336,0.714c-2.23-0.262-4.224-0.835-5.978-1.723c-1.728,0.794-3.752,1.372-6.076,1.736
			l-0.351-0.7c2.146-0.298,4.023-0.788,5.628-1.47c-0.887-0.532-1.698-1.125-2.436-1.778c-0.569,0.532-1.199,0.999-1.89,1.4
			l-0.462-0.602c1.717-0.98,2.879-2.193,3.485-3.641L641.726,239.66z M643.056,245.722c0,0.579-0.052,1.148-0.154,1.708h4.984
			c-0.028,2.315-0.243,3.691-0.645,4.13c-0.411,0.458-1.12,0.687-2.128,0.687c-0.42,0-0.934-0.014-1.54-0.042l-0.196-0.7
			c0.84,0.037,1.363,0.056,1.568,0.056c0.934-0.019,1.517-0.205,1.75-0.56c0.233-0.373,0.378-1.335,0.434-2.884h-4.396
			c-0.149,0.448-0.312,0.831-0.49,1.147c-0.747,1.261-2.39,2.296-4.928,3.108l-0.504-0.603c2.296-0.681,3.836-1.559,4.62-2.632
			c0.177-0.289,0.34-0.63,0.489-1.021h-4.325v-0.687h4.535c0.122-0.578,0.183-1.147,0.183-1.708L643.056,245.722L643.056,245.722z
			 M646.247,241.536h-5.642c-0.131,0.149-0.225,0.262-0.28,0.336c0.812,0.737,1.727,1.377,2.744,1.918
			C644.301,243.165,645.36,242.413,646.247,241.536z"/>
		<path class="st6" d="M650.923,245.722h5.992v-2.128c1.251-0.69,2.455-1.554,3.612-2.59h-8.148v-0.728h9.198v0.728
			c-1.11,1.046-2.417,2.049-3.92,3.01v1.708h5.418v0.742h-5.418v4.564c0,0.83-0.396,1.246-1.19,1.246h-2.352l-0.21-0.729
			l2.254,0.014c0.504,0,0.756-0.261,0.756-0.783v-4.312h-5.992V245.722z"/>
		<path class="st6" d="M673.925,252.274l-0.195-0.742l1.386,0.042c0.41,0,0.616-0.21,0.616-0.63v-9.982h-9.464v11.368h-0.756v-12.11
			h10.976v10.893c0,0.774-0.378,1.162-1.134,1.162h-1.429V252.274z M670.705,249.222c-0.494-0.765-0.999-1.512-1.512-2.239
			c-0.522,1.418-1.172,2.655-1.946,3.71l-0.49-0.589c0.784-1.092,1.429-2.37,1.933-3.836c-0.756-1.008-1.442-1.853-2.059-2.533
			l0.477-0.477c0.569,0.598,1.181,1.335,1.834,2.212c0.289-0.989,0.536-2.137,0.742-3.443l0.714,0.126
			c-0.233,1.483-0.542,2.828-0.924,4.031c0.504,0.682,1.082,1.531,1.735,2.549L670.705,249.222z M674.863,249.866
			c-0.495-0.831-1.022-1.685-1.582-2.562c-0.579,1.438-1.278,2.679-2.1,3.725l-0.477-0.588c0.821-1.073,1.512-2.366,2.072-3.879
			c-0.7-1.026-1.377-1.927-2.03-2.701l0.49-0.477c0.616,0.71,1.223,1.498,1.82,2.366c0.354-1.092,0.639-2.319,0.854-3.682
			l0.714,0.126c-0.261,1.577-0.611,3.015-1.05,4.312c0.598,0.905,1.194,1.857,1.792,2.856L674.863,249.866z"/>
		<path class="st6" d="M684.551,241.592c0.589,0.514,0.883,1.204,0.883,2.072c0,0.858-0.332,1.643-0.994,2.352
			c-0.327,0.346-1.018,0.878-2.072,1.597c-1.419,0.961-2.207,1.829-2.366,2.604h5.446V251h-6.496c0-0.858,0.331-1.652,0.994-2.38
			c0.41-0.467,1.11-1.041,2.1-1.722c0.841-0.598,1.405-1.041,1.694-1.33c0.551-0.598,0.826-1.237,0.826-1.918
			c0-0.663-0.206-1.177-0.616-1.54c-0.401-0.364-0.947-0.546-1.638-0.546c-0.729,0-1.303,0.242-1.723,0.728
			c-0.447,0.485-0.672,1.194-0.672,2.128h-0.868c0-1.12,0.309-2.002,0.925-2.646c0.588-0.645,1.372-0.967,2.352-0.967
			C683.23,240.808,683.973,241.069,684.551,241.592z"/>
	</g>
	<g>
		<g class="st2">
			<rect x="629" y="264" class="st3" width="117" height="50"/>
		</g>
		<g>
			<rect x="627.5" y="262.5" class="st4" width="116" height="49"/>
			<path class="st5" d="M743,263v48H628v-48H743 M744,262H627v50h117V262L744,262z"/>
		</g>
		<rect x="647" y="271" class="st8" width="32" height="32"/>
		<g>
			<path class="st6" d="M697.12,282.547c0.756,0.588,1.204,1.381,1.344,2.381h-1.105c-0.141-0.719-0.495-1.279-1.064-1.682
				c-0.541-0.373-1.204-0.559-1.988-0.559c-1.157,0-2.053,0.406-2.688,1.217c-0.588,0.756-0.882,1.756-0.882,2.996
				c0,1.26,0.289,2.25,0.867,2.969c0.616,0.775,1.508,1.162,2.675,1.162c0.793,0,1.47-0.211,2.029-0.631
				c0.598-0.457,0.994-1.115,1.19-1.973h1.105c-0.224,1.176-0.746,2.08-1.567,2.715c-0.775,0.607-1.694,0.91-2.758,0.91
				c-1.55,0-2.739-0.514-3.57-1.539c-0.747-0.916-1.12-2.119-1.12-3.613c0-1.492,0.383-2.711,1.148-3.654
				c0.83-1.055,2.024-1.582,3.584-1.582C695.431,281.664,696.364,281.959,697.12,282.547z"/>
			<path class="st6" d="M699.263,281.861h1.26l3.122,8.75h0.042l3.122-8.75h1.26l-3.696,9.996h-1.414L699.263,281.861z"/>
			<path class="st6" d="M709.146,281.861h1.428l3.725,8.525h0.042l3.71-8.525h1.428v9.996h-1.147v-7.953h-0.042l-3.458,7.953h-1.036
				l-3.458-7.953h-0.042v7.953h-1.148v-9.996H709.146z"/>
		</g>
		<g id="XMLID_34_">
			<g>
				<path class="st1" d="M663,300c-7.18,0-13-5.82-13-13s5.82-13,13-13c6.498,0,11.866,4.772,12.831,11h2.021
					c-0.98-7.336-7.247-13-14.851-13c-8.284,0-15,6.716-15,15s6.716,15,15,15c7.604,0,13.871-5.664,14.851-13h-2.021
					C674.866,295.228,669.498,300,663,300z M670,283l-7-4l-7,4v8l3.195,1.826c0.203-0.657,0.557-1.244,1.042-1.708L658,289.839
					v-3.696l5,2.857l5-2.857v3.696l-4.137,2.364C663.601,292.077,663.311,292,663,292c-1.105,0-2,0.895-2,2s0.895,2,2,2s2-0.895,2-2
					c0-0.046-0.01-0.09-0.014-0.135L670,291V283z M663,286.696L658.281,284l4.719-2.696l4.719,2.696L663,286.696z"/>
			</g>
		</g>
	</g>
	<g>
		<g class="st2">
			<rect x="629" y="326" class="st3" width="117" height="50"/>
		</g>
		<g>
			<rect x="627.5" y="324.5" class="st4" width="116" height="49"/>
			<path class="st5" d="M743,325v48H628v-48H743 M744,324H627v50h117V324L744,324z"/>
		</g>
		<rect x="647" y="333" class="st8" width="32" height="32"/>
		<g>
			<path class="st6" d="M697.12,344.547c0.756,0.588,1.204,1.381,1.344,2.381h-1.105c-0.141-0.719-0.495-1.279-1.064-1.682
				c-0.541-0.373-1.204-0.559-1.988-0.559c-1.157,0-2.053,0.406-2.688,1.217c-0.588,0.756-0.882,1.756-0.882,2.996
				c0,1.26,0.289,2.25,0.867,2.969c0.616,0.775,1.508,1.162,2.675,1.162c0.793,0,1.47-0.211,2.029-0.631
				c0.598-0.457,0.994-1.115,1.19-1.973h1.105c-0.224,1.176-0.746,2.08-1.567,2.715c-0.775,0.607-1.694,0.91-2.758,0.91
				c-1.55,0-2.739-0.514-3.57-1.539c-0.747-0.916-1.12-2.119-1.12-3.613c0-1.492,0.383-2.711,1.148-3.654
				c0.83-1.055,2.024-1.582,3.584-1.582C695.431,343.664,696.364,343.959,697.12,344.547z"/>
			<path class="st6" d="M699.263,343.861h1.26l3.122,8.75h0.042l3.122-8.75h1.26l-3.696,9.996h-1.414L699.263,343.861z"/>
			<path class="st6" d="M709.146,343.861h1.428l3.725,8.525h0.042l3.71-8.525h1.428v9.996h-1.147v-7.953h-0.042l-3.458,7.953h-1.036
				l-3.458-7.953h-0.042v7.953h-1.148v-9.996H709.146z"/>
		</g>
		<g id="XMLID_2_">
			<g>
				<path class="st1" d="M663,362c-7.18,0-13-5.82-13-13s5.82-13,13-13c6.498,0,11.866,4.772,12.831,11h2.021
					c-0.98-7.336-7.247-13-14.851-13c-8.284,0-15,6.716-15,15s6.716,15,15,15c7.604,0,13.871-5.664,14.851-13h-2.021
					C674.866,357.228,669.498,362,663,362z M670,345l-7-4l-7,4v8l3.195,1.826c0.203-0.657,0.557-1.244,1.042-1.708L658,351.839
					v-3.696l5,2.857l5-2.857v3.696l-4.137,2.364C663.601,354.077,663.311,354,663,354c-1.105,0-2,0.895-2,2s0.895,2,2,2s2-0.895,2-2
					c0-0.046-0.01-0.09-0.014-0.135L670,353V345z M663,348.696L658.281,346l4.719-2.696l4.719,2.696L663,348.696z"/>
			</g>
		</g>
	</g>
</g>
<g>
	<polygon class="st9" points="554,302.5 549,307.5 554,312.5 	"/>
	<line class="st10" x1="617" y1="307.5" x2="554" y2="307.5"/>
</g>
<g>
	<g>
		<path class="st9" d="M373.904,205.948c0.567,0.456,0.888,1.128,0.96,2.016h-0.732c-0.096-0.664-0.348-1.172-0.756-1.523
			c-0.4-0.345-0.977-0.517-1.728-0.517c-0.688,0-1.232,0.12-1.633,0.36c-0.447,0.256-0.672,0.66-0.672,1.212
			c0,0.472,0.269,0.852,0.805,1.14c0.287,0.137,0.835,0.32,1.644,0.553c1.112,0.319,1.848,0.592,2.208,0.815
			c0.712,0.424,1.068,1.024,1.068,1.8c0,0.736-0.309,1.32-0.925,1.752c-0.584,0.408-1.363,0.612-2.34,0.612
			c-0.983,0-1.76-0.224-2.328-0.672c-0.647-0.512-1.008-1.288-1.079-2.328h0.72c0.088,0.809,0.367,1.408,0.84,1.8
			c0.439,0.353,1.052,0.528,1.836,0.528c0.744,0,1.356-0.148,1.836-0.444c0.464-0.304,0.696-0.708,0.696-1.212
			c0-0.584-0.292-1.04-0.876-1.368c-0.32-0.184-0.948-0.403-1.884-0.66c-1.024-0.287-1.681-0.516-1.969-0.684
			c-0.656-0.368-0.983-0.904-0.983-1.608c0-0.743,0.308-1.312,0.924-1.703c0.544-0.368,1.256-0.553,2.136-0.553
			C372.608,205.264,373.352,205.492,373.904,205.948z"/>
		<path class="st9" d="M376.34,205.432h0.828l5.184,7.429h0.036v-7.429h0.744V214h-0.816l-5.208-7.488h-0.035V214h-0.732
			L376.34,205.432L376.34,205.432z"/>
		<path class="st9" d="M387.439,205.432h0.864l3.432,8.568h-0.804l-0.996-2.556h-4.128L384.812,214h-0.804L387.439,205.432z
			 M386.048,210.82h3.648l-1.801-4.597h-0.036L386.048,210.82z"/>
		<path class="st9" d="M391.951,205.432h7.021v0.648h-3.145V214h-0.731v-7.92h-3.145L391.951,205.432L391.951,205.432z"/>
	</g>
</g>
</svg>
