<?xml version="1.0" encoding="utf-8"?>
<!-- Generator: Adobe Illustrator 22.0.1, SVG Export Plug-In . SVG Version: 6.00 Build 0)  -->
<svg version="1.1" id="图层_1" xmlns="http://www.w3.org/2000/svg" xmlns:xlink="http://www.w3.org/1999/xlink" x="0px" y="0px"
	 width="48px" height="48px" viewBox="0 0 48 48" style="enable-background:new 0 0 48 48;" xml:space="preserve">
<style type="text/css">
	.st0{fill:url(#SVGID_1_);}
	.st1{fill:url(#SVGID_2_);}
	.st2{fill:none;}
	.st3{fill:#00A4FF;}
</style>
<g>
	<path class="st3" d="M32.1,22.7l-8.1-8.1l11-3L32.1,22.7z M27.9,15.6l3.2,3.2l1.2-4.4L27.9,15.6z"/>
</g>
<circle class="st3" cx="25.9" cy="15.1" r="2"/>
<circle class="st3" cx="33.7" cy="13" r="2"/>
<circle class="st3" cx="31.6" cy="20.8" r="2"/>
<g>
	<g id="XMLID_3_">
		<g>
			<g>
				<path class="st3" d="M40,41V1H8v46h32v-2h-2l0,0H10V3h28v38H40z M27,41v-2h-6v2H27z"/>
			</g>
		</g>
	</g>
</g>
<path class="st3" d="M26,20h-6.9c-2,0-3.6-1.6-3.6-3.6s1.6-3.6,3.6-3.6h1.2v-1c0-2.6,2.2-4.8,4.8-4.8c2,0,3.7,1.2,4.4,3h2.1
	c-0.8-2.9-3.4-5-6.6-5c-3.4,0-6.3,2.5-6.7,5.9c-2.7,0.4-4.9,2.8-4.9,5.5c0,3,2.6,5.6,5.6,5.6H26V20z"/>
</svg>
