<?xml version="1.0" encoding="UTF-8"?>
<svg width="48px" height="48px" viewBox="0 0 48 48" version="1.1" xmlns="http://www.w3.org/2000/svg" xmlns:xlink="http://www.w3.org/1999/xlink">
    <!-- Generator: Sketch 48.2 (47327) - http://www.bohemiancoding.com/sketch -->
    <title>微信订阅号</title>
    <desc>Created with Sketch.</desc>
    <defs></defs>
    <g id="切图" stroke="none" stroke-width="1" fill="none" fill-rule="evenodd">
        <g id="微信订阅号">
            <g id="Linux" fill-rule="nonzero">
                <path d="M24,47.04 C11.28,47.04 0.96,36.72 0.96,24 C0.96,11.28 11.28,0.96 24,0.96 C36.72,0.96 47.04,11.28 47.04,24 C47.04,36.72 36.72,47.04 24,47.04 Z" id="Shape" fill="#FFFFFF"></path>
                <path d="M24,1.92 C36.192,1.92 46.08,11.808 46.08,24 C46.08,36.192 36.192,46.08 24,46.08 C11.808,46.08 1.92,36.192 1.92,24 C1.92,11.808 11.808,1.92 24,1.92 Z M24,0 C10.752,0 0,10.752 0,24 C0,37.248 10.752,48 24,48 C37.248,48 48,37.248 48,24 C48,10.752 37.248,0 24,0 Z" id="Shape" fill="#E5E5E5"></path>
            </g>
            <path d="M14,12 L34,12 C34.5522847,12 35,12.4477153 35,13 L35,36 C35,36.5522847 34.5522847,37 34,37 L14,37 C13.4477153,37 13,36.5522847 13,36 L13,13 C13,12.4477153 13.4477153,12 14,12 Z M18,19 C19.1045695,19 20,18.1045695 20,17 C20,15.8954305 19.1045695,15 18,15 C16.8954305,15 16,15.8954305 16,17 C16,18.1045695 16.8954305,19 18,19 Z M16,21 L16,22 L29,22 L29,21 L16,21 Z M16,24 L16,25 L22,25 L22,24 L16,24 Z M16,27 L16,28 L25,28 L25,27 L16,27 Z" id="Combined-Shape" fill="#006EFF"></path>
        </g>
    </g>
</svg>