<?xml version="1.0" encoding="utf-8"?>
<!-- Generator: Adobe Illustrator 22.0.1, SVG Export Plug-In . SVG Version: 6.00 Build 0)  -->
<svg version="1.1" id="图层_1" xmlns="http://www.w3.org/2000/svg" xmlns:xlink="http://www.w3.org/1999/xlink" x="0px" y="0px"
	 width="16px" height="16px" viewBox="0 0 16 16" style="enable-background:new 0 0 16 16;" xml:space="preserve">
<style type="text/css">
	.st0{fill:#00A4FF;}
</style>
<g>
	<g>
		<path class="st0" d="M8,3C6.6,3,5.5,4.1,5.5,5.5V6h-1v5h7V6h-1V5.5C10.5,4.1,9.4,3,8,3z M6.5,5.5C6.5,4.7,7.2,4,8,4
			c0.8,0,1.5,0.7,1.5,1.5V6h-3V5.5z M10.5,10h-5V7h5V10z M15.5,0h-15v7c0,0,0,8,7.5,9c7.5-1,7.5-9,7.5-9V3h-1v4c0,0.3-0.1,7.1-6.5,8
			c-6.4-0.9-6.5-7.7-6.5-8V1h14V0z"/>
	</g>
</g>
</svg>
