<?xml version="1.0" encoding="utf-8"?>
<!-- Generator: Adobe Illustrator 17.0.0, SVG Export Plug-In . SVG Version: 6.00 Build 0)  -->
<!DOCTYPE svg PUBLIC "-//W3C//DTD SVG 1.1//EN" "http://www.w3.org/Graphics/SVG/1.1/DTD/svg11.dtd">
<svg version="1.1" id="图层_1" xmlns="http://www.w3.org/2000/svg" xmlns:xlink="http://www.w3.org/1999/xlink" x="0px" y="0px"
	 width="830px" height="442px" viewBox="0 0 830 442" style="enable-background:new 0 0 830 442;" xml:space="preserve">
<style type="text/css">
	.st0{fill:#CEE3FF;}
	.st1{fill:#00A4FF;}
	.st2{opacity:0.6;}
	.st3{fill:#BBBBBB;}
	.st4{fill:#FFFFFF;}
	.st5{fill:#E5E5E5;}
	.st6{fill:#444444;}
	.st7{fill:#878787;}
	.st8{fill:none;stroke:#878787;stroke-miterlimit:10;}
	.st9{fill:none;stroke:#BABABA;stroke-miterlimit:10;stroke-dasharray:6,4;}
	.st10{fill:#CB3333;fill-opacity:0;}
</style>
<g>
	<rect x="302.001" y="32" class="st0" width="476.999" height="376"/>
	<g>
		<g>
			<path class="st1" d="M333.924,47.342h2.492v-2.058c-0.616,0.103-1.349,0.191-2.198,0.266l-0.21-0.966
				c2.007-0.168,3.78-0.476,5.32-0.924l0.35,0.938c-0.625,0.178-1.372,0.351-2.24,0.519v2.226h2.268v0.966h-2.268v0.561
				c0.7,0.672,1.4,1.428,2.1,2.268l-0.56,0.854c-0.532-0.84-1.045-1.577-1.54-2.212v6.58h-1.022v-6.385
				c-0.569,1.308-1.335,2.516-2.296,3.626l-0.448-1.134c1.25-1.223,2.142-2.608,2.674-4.158h-2.422L333.924,47.342L333.924,47.342z
				 M344.214,49.246c0.747,1.988,1.423,4.289,2.03,6.902l-1.008,0.252c-0.121-0.561-0.233-1.046-0.336-1.456
				c-1.848,0.363-3.841,0.699-5.978,1.008l-0.196-0.98c0.289-0.084,0.462-0.2,0.518-0.35l3.024-10.724l1.008,0.14l-3.066,10.724
				c1.736-0.252,3.22-0.504,4.452-0.756c-0.392-1.54-0.84-3.023-1.344-4.452L344.214,49.246z"/>
			<path class="st1" d="M357.458,53.376H351.9v2.996h-0.952V49.05c-0.784,0.989-1.685,1.891-2.702,2.702l-0.658-0.854
				c1.764-1.4,3.126-3.001,4.088-4.803h-3.71v-0.979h4.172c0.252-0.579,0.457-1.125,0.616-1.639l1.022,0.126
				c-0.205,0.645-0.383,1.148-0.532,1.513h6.958v0.979h-7.378c-0.317,0.645-0.621,1.186-0.91,1.624h6.496v7.561
				c0,0.681-0.392,1.036-1.176,1.063h-1.568l-0.252-0.924c0.709,0.037,1.208,0.056,1.498,0.056c0.364,0,0.546-0.168,0.546-0.504
				V53.376z M351.9,48.602v1.526h5.558v-1.526H351.9z M357.458,51.01H351.9v1.484h5.558V51.01z"/>
			<path class="st1" d="M370.926,56.316l-0.266-0.98l1.344,0.042c0.392,0,0.588-0.191,0.588-0.574v-9.702h-9.184v11.271h-0.994
				V44.136h11.172v10.893c0,0.858-0.416,1.288-1.246,1.288L370.926,56.316L370.926,56.316z M367.594,53.222
				c-0.402-0.634-0.845-1.307-1.33-2.016c-0.495,1.362-1.106,2.539-1.834,3.528l-0.644-0.784c0.728-1.036,1.33-2.264,1.806-3.683
				c-0.644-0.858-1.302-1.675-1.974-2.449l0.63-0.603c0.56,0.588,1.115,1.251,1.666,1.988c0.271-1.008,0.49-2.062,0.658-3.164
				l0.924,0.168c-0.224,1.438-0.518,2.753-0.882,3.948c0.616,0.84,1.167,1.638,1.652,2.394L367.594,53.222z M371.696,53.866
				c-0.401-0.69-0.873-1.466-1.414-2.324c-0.56,1.372-1.218,2.548-1.974,3.528l-0.644-0.771c0.793-1.073,1.446-2.319,1.96-3.738
				c-0.691-1.017-1.33-1.885-1.918-2.604l0.63-0.602c0.569,0.644,1.12,1.349,1.652,2.113c0.29-0.971,0.537-2.1,0.742-3.388
				l0.952,0.168c-0.252,1.55-0.588,2.954-1.008,4.214c0.588,0.896,1.157,1.806,1.708,2.73L371.696,53.866z"/>
			<path class="st1" d="M379.074,43.898c-0.7,1.819-1.4,3.257-2.1,4.312c0.579-0.084,1.185-0.182,1.82-0.294l0.742-1.498
				l0.868,0.322c-1.195,2.352-2.188,4.036-2.982,5.054c0.999-0.215,1.983-0.499,2.954-0.854v0.909
				c-1.465,0.514-2.842,0.859-4.13,1.036l-0.266-0.91c0.187-0.084,0.336-0.182,0.448-0.294c0.532-0.588,1.157-1.535,1.876-2.842
				c-0.775,0.141-1.536,0.267-2.282,0.378l-0.252-0.924c0.159-0.074,0.298-0.2,0.42-0.378c0.737-1.26,1.386-2.721,1.946-4.382
				L379.074,43.898z M380.642,54.566c-1.335,0.513-2.898,0.942-4.69,1.287l-0.126-0.993c1.82-0.309,3.425-0.724,4.816-1.246V54.566z
				 M383.834,43.716c-0.084,0.29-0.215,0.658-0.392,1.106h3.794v0.728c-0.513,1.157-1.255,2.18-2.226,3.066
				c0.98,0.719,2.161,1.273,3.542,1.666l-0.574,0.826c-1.484-0.448-2.721-1.073-3.71-1.876c-1.027,0.765-2.222,1.414-3.584,1.945
				l-0.616-0.812c1.381-0.514,2.539-1.11,3.472-1.792c-0.504-0.504-0.957-1.083-1.358-1.736c-0.392,0.467-0.812,0.882-1.26,1.246
				l-0.588-0.784c1.241-1.017,2.086-2.272,2.534-3.766L383.834,43.716z M387.236,51.15v5.166h-0.966v-0.603h-3.822v0.603h-0.966
				V51.15H387.236z M382.448,54.79h3.822v-2.716h-3.822V54.79z M382.728,46.124c0.429,0.719,0.938,1.344,1.526,1.876
				c0.803-0.69,1.433-1.451,1.89-2.282h-3.164L382.728,46.124z"/>
		</g>
	</g>
	<g>
		<g>
			<path class="st1" d="M324.001,48v-2c-0.252-2.247-2.186-4-4.5-4s-4.248,1.753-4.5,4v2h-2v10h13V48H324.001z M316.001,46.5
				c0-1.933,1.567-3.5,3.5-3.5s3.5,1.567,3.5,3.5V48h-7V46.5z M325.001,57h-11v-8h11V57z M319.001,52.908V56h1v-3.092
				c0.581-0.207,1-0.756,1-1.408c0-0.828-0.672-1.5-1.5-1.5s-1.5,0.672-1.5,1.5C318.001,52.152,318.42,52.702,319.001,52.908z"/>
		</g>
	</g>
</g>
<g>
	<g class="st2">
		<rect x="50" y="196.5" class="st3" width="88" height="50"/>
	</g>
	<g>
		<rect x="48.5" y="195" class="st4" width="87" height="49"/>
		<path class="st5" d="M135,195.5v48H49v-48H135 M136,194.5H48v50h88V194.5L136,194.5z"/>
	</g>
	<g>
		<path class="st6" d="M68.092,214.361h1.134v9.996h-1.134V214.361z"/>
		<path class="st6" d="M77.276,219.904v4.453h-1.12v-4.369c0-1.408-0.635-2.113-1.904-2.113c-0.504,0-0.938,0.182-1.302,0.547
			c-0.383,0.383-0.598,0.904-0.644,1.566v4.369h-1.12v-7.238h1.12v1.064c0.252-0.412,0.573-0.719,0.966-0.924
			c0.392-0.225,0.826-0.336,1.302-0.336C76.376,216.924,77.276,217.916,77.276,219.904z"/>
		<path class="st6" d="M80.943,214.781v2.338h1.792v0.938h-1.792v4.605c0,0.281,0.052,0.473,0.154,0.574
			c0.103,0.121,0.28,0.182,0.532,0.182h0.924v0.939h-1.092c-0.598,0-1.022-0.154-1.274-0.463c-0.233-0.27-0.35-0.682-0.35-1.232
			v-4.605h-1.456v-0.938h1.456v-1.877L80.943,214.781z"/>
		<path class="st6" d="M89.597,218.1c0.531,0.699,0.812,1.684,0.84,2.953h-5.712c0.056,0.822,0.274,1.451,0.657,1.891
			c0.393,0.447,0.934,0.672,1.624,0.672c0.589,0,1.069-0.15,1.442-0.449c0.299-0.242,0.541-0.619,0.728-1.133h1.12
			c-0.168,0.691-0.494,1.26-0.979,1.707c-0.616,0.543-1.386,0.812-2.311,0.812c-1.035,0-1.866-0.34-2.491-1.021
			c-0.635-0.691-0.952-1.625-0.952-2.801c0-1.082,0.303-1.973,0.91-2.674c0.615-0.756,1.446-1.133,2.491-1.133
			C88.131,216.924,89.008,217.314,89.597,218.1z M85.438,218.49c-0.383,0.412-0.611,0.977-0.687,1.695h4.522
			c-0.141-1.549-0.901-2.324-2.282-2.324C86.349,217.861,85.83,218.07,85.438,218.49z"/>
		<path class="st6" d="M95.924,217.092v1.119c-0.336-0.104-0.695-0.154-1.078-0.154c-0.569,0-1.041,0.248-1.414,0.742
			c-0.383,0.467-0.574,1.041-0.574,1.723v3.836h-1.105v-7.238h1.105v1.26c0.196-0.43,0.448-0.76,0.757-0.994
			c0.382-0.309,0.82-0.461,1.315-0.461C95.331,216.924,95.662,216.979,95.924,217.092z"/>
		<path class="st6" d="M102.951,219.904v4.453h-1.12v-4.369c0-1.408-0.635-2.113-1.904-2.113c-0.504,0-0.938,0.182-1.302,0.547
			c-0.383,0.383-0.598,0.904-0.644,1.566v4.369h-1.12v-7.238h1.12v1.064c0.252-0.412,0.573-0.719,0.966-0.924
			c0.392-0.225,0.826-0.336,1.302-0.336C102.051,216.924,102.951,217.916,102.951,219.904z"/>
		<path class="st6" d="M110.302,218.1c0.531,0.699,0.812,1.684,0.84,2.953h-5.712c0.056,0.822,0.274,1.451,0.657,1.891
			c0.393,0.447,0.934,0.672,1.624,0.672c0.589,0,1.069-0.15,1.442-0.449c0.299-0.242,0.541-0.619,0.728-1.133h1.12
			c-0.168,0.691-0.494,1.26-0.979,1.707c-0.616,0.543-1.386,0.812-2.311,0.812c-1.035,0-1.866-0.34-2.491-1.021
			c-0.635-0.691-0.952-1.625-0.952-2.801c0-1.082,0.303-1.973,0.91-2.674c0.615-0.756,1.446-1.133,2.491-1.133
			C108.836,216.924,109.713,217.314,110.302,218.1z M106.144,218.49c-0.383,0.412-0.611,0.977-0.687,1.695h4.522
			c-0.141-1.549-0.901-2.324-2.282-2.324C107.054,217.861,106.535,218.07,106.144,218.49z"/>
		<path class="st6" d="M114.389,214.781v2.338h1.792v0.938h-1.792v4.605c0,0.281,0.052,0.473,0.154,0.574
			c0.103,0.121,0.28,0.182,0.532,0.182h0.924v0.939h-1.092c-0.598,0-1.022-0.154-1.274-0.463c-0.233-0.27-0.35-0.682-0.35-1.232
			v-4.605h-1.456v-0.938h1.456v-1.877L114.389,214.781z"/>
	</g>
</g>
<g>
	<g class="st2">
		<rect x="457" y="106.5" class="st3" width="88" height="50"/>
	</g>
	<g>
		<rect x="455.5" y="105" class="st4" width="87" height="49"/>
		<path class="st5" d="M542,105.5v48h-86v-48H542 M543,104.5h-88v50h88V104.5L543,104.5z"/>
	</g>
	<g>
		<path class="st6" d="M481.274,123.479h4.312v4.396h-1.4v2.254h1.456v0.951h-1.456v2.605c0.757-0.244,1.349-0.443,1.778-0.604v1.01
			c-1.446,0.541-3.149,1.045-5.11,1.512l-0.279-0.98l0.742-0.168v-5.082h0.896v4.857l1.036-0.266v-6.09h-1.974v-4.395H481.274z
			 M484.62,126.951v-2.549h-2.366v2.549H484.62z M489.198,123.072c-0.104,0.328-0.229,0.668-0.378,1.023h3.472v0.727
			c-0.476,1.168-1.172,2.203-2.086,3.109c0.934,0.766,2.049,1.348,3.346,1.75l-0.574,0.826c-1.381-0.449-2.543-1.094-3.485-1.934
			c-0.952,0.766-2.082,1.43-3.389,1.988l-0.602-0.812c1.278-0.512,2.38-1.133,3.304-1.861c-0.494-0.541-0.919-1.133-1.273-1.777
			c-0.336,0.393-0.742,0.779-1.218,1.162l-0.603-0.799c1.232-0.971,2.072-2.164,2.521-3.584L489.198,123.072z M492.264,130.521
			v5.193h-0.966V135.1h-3.528v0.615h-0.966v-5.193h5.46V130.521z M487.77,134.176h3.528v-2.744h-3.528V134.176z M488.106,125.342
			c0.392,0.756,0.858,1.404,1.399,1.945c0.729-0.709,1.302-1.475,1.722-2.297h-2.884L488.106,125.342z"/>
		<path class="st6" d="M506.222,125.174v10.514h-1.008v-0.91h-8.428v0.91h-1.008v-10.514h4.704v-2.199h1.035v2.199H506.222z
			 M496.786,129.359h3.696v-3.221h-3.696V129.359z M496.786,133.811h3.696v-3.514h-3.696V133.811z M501.518,126.139v3.221h3.696
			v-3.221H501.518z M501.518,133.811h3.696v-3.514h-3.696V133.811z"/>
		<path class="st6" d="M509.456,124.137h5.026v-1.189h1.035v1.189h5.026v0.924h-5.026v1.33h4.215v0.924h-4.215v1.33h5.517v0.91
			h-5.096c0.382,0.896,0.844,1.693,1.386,2.395c0.793-0.365,1.549-0.93,2.268-1.693l0.7,0.672c-0.728,0.727-1.531,1.283-2.408,1.666
			c0.924,0.979,2.039,1.717,3.347,2.211l-0.532,0.883c-2.613-1.055-4.508-3.1-5.685-6.133h-0.489
			c-0.485,0.701-1.116,1.344-1.891,1.932v2.982c0.952-0.279,1.993-0.648,3.122-1.105l0.196,0.938
			c-1.466,0.588-2.94,1.064-4.424,1.428l-0.336-0.867c0.298-0.113,0.447-0.281,0.447-0.504v-2.199
			c-0.774,0.477-1.624,0.896-2.548,1.26l-0.532-0.867c2.231-0.783,3.864-1.783,4.9-2.996h-4.494v-0.91h5.517v-1.33h-4.215v-0.924
			h4.215v-1.33h-5.026L509.456,124.137L509.456,124.137z"/>
	</g>
</g>
<g>
	<g class="st2">
		<rect x="230" y="196" class="st3" width="138" height="50"/>
	</g>
	<g>
		<rect x="228.5" y="194.5" class="st4" width="137" height="49"/>
		<path class="st5" d="M365,195v48H229v-48H365 M366,194H228v50h138V194L366,194z"/>
	</g>
	<rect x="248" y="203" class="st4" width="32" height="32"/>
	<g>
		<path class="st6" d="M291.007,213.86h1.204l5.656,8.134h0.042v-8.134h1.147v9.996h-1.176l-5.684-8.218h-0.042v8.218h-1.148
			L291.007,213.86L291.007,213.86z"/>
		<path class="st6" d="M303.999,213.86h1.33l3.935,9.996h-1.246l-1.064-2.8h-4.592l-1.063,2.8h-1.232L303.999,213.86z
			 M302.726,220.091h3.864l-1.891-4.998h-0.056L302.726,220.091z"/>
		<path class="st6" d="M309.501,213.86h8.189v0.994h-3.527v9.002h-1.135v-9.002h-3.527L309.501,213.86L309.501,213.86z"/>
		<path class="st6" d="M327.854,225.173l-0.266-0.98l1.344,0.042c0.393,0,0.588-0.191,0.588-0.574v-9.702h-9.184v11.271h-0.994
			v-12.236h11.172v10.893c0,0.858-0.415,1.288-1.246,1.288h-1.414V225.173z M324.522,222.078c-0.401-0.634-0.845-1.307-1.33-2.016
			c-0.494,1.362-1.105,2.539-1.834,3.528l-0.644-0.784c0.728-1.036,1.33-2.264,1.806-3.683c-0.644-0.858-1.302-1.675-1.974-2.449
			l0.63-0.603c0.56,0.588,1.115,1.251,1.666,1.988c0.271-1.008,0.49-2.062,0.658-3.164l0.924,0.168
			c-0.224,1.438-0.519,2.753-0.882,3.948c0.616,0.84,1.166,1.638,1.651,2.394L324.522,222.078z M328.625,222.723
			c-0.401-0.69-0.873-1.466-1.414-2.324c-0.561,1.372-1.218,2.548-1.975,3.528l-0.644-0.771c0.793-1.073,1.446-2.319,1.96-3.738
			c-0.69-1.017-1.33-1.885-1.918-2.604l0.63-0.602c0.569,0.644,1.12,1.349,1.652,2.113c0.289-0.971,0.536-2.1,0.742-3.388
			l0.951,0.168c-0.252,1.55-0.588,2.954-1.008,4.214c0.588,0.896,1.157,1.806,1.708,2.73L328.625,222.723z"/>
		<path class="st6" d="M342.499,212.614c-0.336,1.018-0.756,1.923-1.261,2.716h2.885v0.98h-4.677v0.658
			c-0.027,0.774-0.093,1.423-0.195,1.945h5.684v0.98h-5.096c0.69,1.895,2.501,3.364,5.432,4.41l-0.588,0.938
			c-3.07-1.241-4.984-2.931-5.74-5.067c-0.271,0.812-0.625,1.512-1.063,2.1c-0.962,1.241-2.516,2.202-4.662,2.884l-0.546-0.882
			c2.146-0.69,3.64-1.596,4.479-2.716c0.346-0.514,0.611-1.068,0.798-1.666h-5.025v-0.98h5.278c0.13-0.615,0.2-1.265,0.21-1.945
			v-0.658h-4.69v-0.98h6.398c0.513-0.783,0.984-1.777,1.413-2.981L342.499,212.614z M336.269,212.475
			c0.579,0.756,1.11,1.549,1.596,2.38l-0.909,0.462c-0.514-0.915-1.051-1.713-1.61-2.394L336.269,212.475z"/>
	</g>
	<g>
		<path class="st1" d="M264.149,232c-7.18,0-13-5.82-13-13s5.82-13,13-13c6.498,0,11.866,4.772,12.831,11H279
			c-0.98-7.336-7.247-13-14.851-13c-8.284,0-15,6.716-15,15s6.716,15,15,15c7.604,0,13.871-5.664,14.851-13h-2.021
			C276.015,227.228,270.646,232,264.149,232z"/>
		<rect x="256.149" y="214" class="st1" width="16" height="2"/>
		<rect x="256.149" y="225" class="st1" width="16" height="2"/>
		<rect x="256.149" y="214" class="st1" width="2" height="3"/>
		<rect x="256.149" y="224" class="st1" width="2" height="3"/>
		<rect x="270.149" y="224" class="st1" width="2" height="3"/>
		<rect x="270.149" y="214" class="st1" width="2" height="3"/>
		<rect x="259.149" y="210" class="st1" width="2" height="4"/>
		<rect x="267.149" y="210" class="st1" width="2" height="4"/>
		<rect x="262.149" y="218" class="st1" width="2" height="5"/>
		<rect x="259.149" y="218" class="st1" width="2" height="5"/>
		<rect x="256.149" y="218" class="st1" width="2" height="5"/>
		<rect x="265.149" y="218" class="st1" width="2" height="5"/>
		<rect x="263.149" y="218" class="st1" width="3" height="1"/>
		<rect x="268.149" y="218" class="st1" width="4" height="1"/>
		<rect x="263.149" y="220" class="st1" width="3" height="1"/>
		<rect x="269.149" y="218" class="st1" width="2" height="5"/>
		<polygon class="st1" points="257.149,218 259.149,223 260.149,223 258.149,218 		"/>
	</g>
</g>
<g>
	<polygon class="st7" points="554,126 549,131 554,136 	"/>
	<polygon class="st7" points="591,136 596,131 591,126 	"/>
	<polygon class="st7" points="448,136 453,131 448,126 	"/>
	<line class="st8" x1="593" y1="131" x2="554" y2="131"/>
</g>
<g>
	<polygon class="st7" points="554,302 549,307 554,312 	"/>
	<polygon class="st7" points="591,312 596,307 591,302 	"/>
	<polygon class="st7" points="447,312 452,307 447,302 	"/>
	<line class="st8" x1="593" y1="307" x2="554" y2="307"/>
</g>
<g>
	<polygon class="st7" points="145,216 140,221 145,226 	"/>
	<polygon class="st7" points="221,226 226,221 221,216 	"/>
	<line class="st8" x1="223" y1="221" x2="145" y2="221"/>
</g>
<g>
	<line class="st8" x1="450" y1="131" x2="434" y2="131"/>
</g>
<g>
	<line class="st8" x1="434" y1="307" x2="434" y2="131"/>
</g>
<g>
	<line class="st8" x1="449" y1="307" x2="434" y2="307"/>
</g>
<g>
	<polygon class="st7" points="376,215 371,220 376,225 	"/>
	<line class="st8" x1="434" y1="220" x2="376" y2="220"/>
</g>
<g>
	<g class="st2">
		<rect x="457" y="283" class="st3" width="88" height="50"/>
	</g>
	<g>
		<rect x="455.5" y="281.5" class="st4" width="87" height="49"/>
		<path class="st5" d="M542,282v48h-86v-48H542 M543,281h-88v50h88V281L543,281z"/>
	</g>
	<g>
		<path class="st6" d="M481.274,299.979h4.312v4.396h-1.4v2.254h1.456v0.951h-1.456v2.605c0.757-0.244,1.349-0.443,1.778-0.604v1.01
			c-1.446,0.541-3.149,1.045-5.11,1.512l-0.279-0.98l0.742-0.168v-5.082h0.896v4.857l1.036-0.266v-6.09h-1.974v-4.395H481.274z
			 M484.62,303.451v-2.549h-2.366v2.549H484.62z M489.198,299.572c-0.104,0.328-0.229,0.668-0.378,1.023h3.472v0.727
			c-0.476,1.168-1.172,2.203-2.086,3.109c0.934,0.766,2.049,1.348,3.346,1.75l-0.574,0.826c-1.381-0.449-2.543-1.094-3.485-1.934
			c-0.952,0.766-2.082,1.43-3.389,1.988l-0.602-0.812c1.278-0.512,2.38-1.133,3.304-1.861c-0.494-0.541-0.919-1.133-1.273-1.777
			c-0.336,0.393-0.742,0.779-1.218,1.162l-0.603-0.799c1.232-0.971,2.072-2.164,2.521-3.584L489.198,299.572z M492.264,307.021
			v5.193h-0.966V311.6h-3.528v0.615h-0.966v-5.193h5.46V307.021z M487.77,310.676h3.528v-2.744h-3.528V310.676z M488.106,301.842
			c0.392,0.756,0.858,1.404,1.399,1.945c0.729-0.709,1.302-1.475,1.722-2.297h-2.884L488.106,301.842z"/>
		<path class="st6" d="M506.222,301.674v10.514h-1.008v-0.91h-8.428v0.91h-1.008v-10.514h4.704v-2.199h1.035v2.199H506.222z
			 M496.786,305.859h3.696v-3.221h-3.696V305.859z M496.786,310.311h3.696v-3.514h-3.696V310.311z M501.518,302.639v3.221h3.696
			v-3.221H501.518z M501.518,310.311h3.696v-3.514h-3.696V310.311z"/>
		<path class="st6" d="M509.456,300.637h5.026v-1.189h1.035v1.189h5.026v0.924h-5.026v1.33h4.215v0.924h-4.215v1.33h5.517v0.91
			h-5.096c0.382,0.896,0.844,1.693,1.386,2.395c0.793-0.365,1.549-0.93,2.268-1.693l0.7,0.672c-0.728,0.727-1.531,1.283-2.408,1.666
			c0.924,0.979,2.039,1.717,3.347,2.211l-0.532,0.883c-2.613-1.055-4.508-3.1-5.685-6.133h-0.489
			c-0.485,0.701-1.116,1.344-1.891,1.932v2.982c0.952-0.279,1.993-0.648,3.122-1.105l0.196,0.938
			c-1.466,0.588-2.94,1.064-4.424,1.428l-0.336-0.867c0.298-0.113,0.447-0.281,0.447-0.504v-2.199
			c-0.774,0.477-1.624,0.896-2.548,1.26l-0.532-0.867c2.231-0.783,3.864-1.783,4.9-2.996h-4.494v-0.91h5.517v-1.33h-4.215v-0.924
			h4.215v-1.33h-5.026L509.456,300.637L509.456,300.637z"/>
	</g>
</g>
<g>
	<g>
		<path class="st7" d="M156.2,202.432V211h-0.732v-7.656c-0.552,0.601-1.235,1.021-2.052,1.26v-0.743
			c0.408-0.12,0.804-0.301,1.188-0.54c0.376-0.248,0.713-0.544,1.009-0.889L156.2,202.432L156.2,202.432z"/>
		<path class="st7" d="M165.104,203.68c0.416,0.769,0.624,1.78,0.624,3.036c0,1.24-0.208,2.252-0.624,3.036
			c-0.513,0.944-1.28,1.416-2.305,1.416c-1.023,0-1.792-0.472-2.304-1.416c-0.416-0.76-0.624-1.771-0.624-3.036
			c0-1.271,0.208-2.284,0.624-3.036c0.504-0.943,1.272-1.416,2.304-1.416C163.832,202.264,164.601,202.736,165.104,203.68z
			 M161.012,204.184c-0.264,0.624-0.396,1.469-0.396,2.532c0,1.048,0.132,1.893,0.396,2.532c0.36,0.848,0.956,1.271,1.788,1.271
			c0.816,0,1.412-0.424,1.788-1.271c0.272-0.656,0.408-1.5,0.408-2.532c0-1.048-0.136-1.892-0.408-2.532
			c-0.368-0.848-0.964-1.271-1.788-1.271C161.968,202.912,161.372,203.336,161.012,204.184z"/>
		<path class="st7" d="M172.304,203.68c0.416,0.769,0.624,1.78,0.624,3.036c0,1.24-0.208,2.252-0.624,3.036
			c-0.513,0.944-1.28,1.416-2.305,1.416c-1.023,0-1.792-0.472-2.304-1.416c-0.416-0.76-0.624-1.771-0.624-3.036
			c0-1.271,0.208-2.284,0.624-3.036c0.504-0.943,1.272-1.416,2.304-1.416C171.031,202.264,171.8,202.736,172.304,203.68z
			 M168.211,204.184c-0.264,0.624-0.396,1.469-0.396,2.532c0,1.048,0.132,1.893,0.396,2.532c0.36,0.848,0.956,1.271,1.788,1.271
			c0.816,0,1.412-0.424,1.788-1.271c0.272-0.656,0.408-1.5,0.408-2.532c0-1.048-0.136-1.892-0.408-2.532
			c-0.368-0.848-0.964-1.271-1.788-1.271C169.167,202.912,168.571,203.336,168.211,204.184z"/>
		<path class="st7" d="M179.504,203.68c0.416,0.769,0.624,1.78,0.624,3.036c0,1.24-0.208,2.252-0.624,3.036
			c-0.513,0.944-1.28,1.416-2.305,1.416c-1.023,0-1.792-0.472-2.304-1.416c-0.416-0.76-0.624-1.771-0.624-3.036
			c0-1.271,0.208-2.284,0.624-3.036c0.504-0.943,1.272-1.416,2.304-1.416C178.231,202.264,179,202.736,179.504,203.68z
			 M175.411,204.184c-0.264,0.624-0.396,1.469-0.396,2.532c0,1.048,0.132,1.893,0.396,2.532c0.36,0.848,0.956,1.271,1.788,1.271
			c0.816,0,1.412-0.424,1.788-1.271c0.272-0.656,0.408-1.5,0.408-2.532c0-1.048-0.136-1.892-0.408-2.532
			c-0.368-0.848-0.964-1.271-1.788-1.271C176.367,202.912,175.771,203.336,175.411,204.184z"/>
		<path class="st7" d="M180.859,202.432h0.828l2.053,7.584h0.035l2.101-7.584h0.852l2.101,7.584h0.036l2.052-7.584h0.828
			l-2.46,8.568h-0.864l-2.101-7.536h-0.035L184.184,211h-0.864L180.859,202.432z"/>
		<path class="st7" d="M199.567,207.844h-3.516c-0.152,0.769-0.353,1.42-0.6,1.956c-0.505,1.017-1.332,1.816-2.484,2.4l-0.384-0.601
			c1.111-0.56,1.896-1.327,2.352-2.304c0.185-0.408,0.332-0.892,0.444-1.452h-2.893v-0.636h3c0.064-0.528,0.104-1.128,0.12-1.8
			v-1.212h-2.628v-0.637h6.084c0.496-0.775,0.916-1.596,1.26-2.46l0.696,0.24c-0.359,0.832-0.764,1.572-1.212,2.22h2.856v0.637
			h-2.448v3.012h2.916v0.636h-2.916v4.272h-0.648v-4.271H199.567z M195.308,201.1c0.464,0.673,0.864,1.349,1.2,2.028l-0.588,0.288
			c-0.384-0.76-0.784-1.436-1.2-2.028L195.308,201.1z M199.567,204.196h-3.312v1.212c-0.008,0.647-0.044,1.248-0.108,1.8h3.42
			V204.196z"/>
		<path class="st7" d="M205.315,204.772l0.948-3.192l0.648,0.096l-0.757,2.484h2.353c0.256-0.968,0.46-1.984,0.612-3.048
			l0.659,0.071c-0.184,1.145-0.384,2.137-0.6,2.977h5.7v0.612h-5.868c-0.185,0.615-0.36,1.14-0.528,1.571h4.98v0.564
			c-0.336,1.063-1.032,2.036-2.088,2.916c1.016,0.64,2.26,1.216,3.731,1.728l-0.323,0.601c-1.616-0.593-2.929-1.232-3.937-1.92
			c-0.992,0.712-2.252,1.363-3.78,1.956l-0.336-0.601c1.424-0.52,2.612-1.104,3.564-1.752c-1.048-0.8-1.776-1.668-2.185-2.604
			c-0.896,1.991-2.044,3.563-3.443,4.716l-0.336-0.601c1.84-1.6,3.176-3.792,4.008-6.575h-3.022V204.772z M208.628,206.944
			c0.408,0.92,1.14,1.756,2.195,2.508c0.969-0.769,1.628-1.604,1.98-2.508H208.628z M211.796,201.28
			c0.888,0.688,1.615,1.364,2.184,2.027l-0.468,0.469c-0.536-0.673-1.256-1.364-2.16-2.076L211.796,201.28z"/>
	</g>
</g>
<g>
	<g>
		<g>
			<rect x="598" y="52.5" class="st9" width="170" height="156"/>
		</g>
		<g>
			<path class="st6" d="M610.357,63.664c-0.439,0.178-0.715,0.285-0.826,0.322c0,2.361,0.032,4.419,0.098,6.174
				c0.075,1.839,0.527,3.07,1.358,3.696c1.036,0.802,2.86,1.208,5.474,1.218l-0.28,0.7c-2.818-0.057-4.769-0.565-5.852-1.526
				c-0.598-0.598-0.999-1.451-1.204-2.562c-0.178-0.904-0.271-3.396-0.28-7.476c-0.476,0.14-0.887,0.243-1.231,0.308v11.158h-0.729
				V64.644c-0.354,0.057-0.812,0.117-1.372,0.183v4.018c-0.056,2.726-0.48,5.036-1.273,6.931l-0.519-0.532
				c0.71-1.829,1.078-3.962,1.106-6.398V64.21c2.109-0.196,3.784-0.564,5.026-1.106L610.357,63.664z M615.901,63.93v4.83h-4.229
				v2.688c0,0.392,0.205,0.588,0.616,0.588h2.618c0.299-0.019,0.504-0.159,0.616-0.42c0.093-0.252,0.158-0.766,0.195-1.54
				l0.687,0.224c-0.057,0.775-0.141,1.33-0.252,1.666c-0.196,0.504-0.551,0.756-1.064,0.756h-3.038
				c-0.709,0-1.063-0.354-1.063-1.063V63.93H615.901z M613.143,64.644h-1.47v3.402h1.47V64.644z M613.815,68.046h1.399v-3.402
				h-1.399V68.046z"/>
			<path class="st6" d="M619.345,65.4h4.368v-2.282h0.756V65.4h4.34v5.012h-4.34v3.542c1.531-0.149,2.922-0.331,4.172-0.546
				c-0.317-0.69-0.662-1.349-1.035-1.975l0.672-0.279c0.765,1.307,1.433,2.726,2.002,4.256l-0.7,0.294
				c-0.215-0.616-0.43-1.153-0.644-1.61c-2.68,0.457-6.235,0.816-10.669,1.078l-0.126-0.812c2.025-0.084,3.883-0.196,5.572-0.336
				v-3.612h-4.368L619.345,65.4L619.345,65.4z M623.713,69.684v-3.569h-3.626v3.569H623.713z M628.067,69.684v-3.569h-3.599v3.569
				H628.067z"/>
			<path class="st6" d="M636.005,72.428c-0.952,1.13-2.142,2.133-3.569,3.011l-0.477-0.631c1.362-0.793,2.529-1.75,3.5-2.869
				L636.005,72.428z M636.005,75.816l-0.168-0.729c0.672,0.037,1.157,0.056,1.456,0.056c0.393,0,0.588-0.191,0.588-0.573v-3.696
				l-4.466,0.238l-0.21-0.672c0.271-0.028,0.494-0.075,0.672-0.141c1.307-0.551,2.726-1.414,4.256-2.59
				c-1.026,0.075-2.432,0.163-4.214,0.266l-0.168-0.686c0.205-0.028,0.383-0.074,0.532-0.14c0.83-0.393,1.778-1.177,2.842-2.353
				c-1.344,0.075-2.688,0.112-4.032,0.112l-0.224-0.658c4.051-0.019,7.359-0.331,9.926-0.938l0.378,0.644
				c-1.399,0.354-3.094,0.611-5.082,0.77c-0.989,1.13-1.979,1.998-2.968,2.604c1.288-0.074,2.558-0.158,3.808-0.252
				c0.645-0.532,1.316-1.106,2.017-1.722l0.7,0.336c-2.483,2.221-4.662,3.789-6.538,4.704c2.52-0.141,4.681-0.309,6.481-0.505
				c-0.401-0.522-0.793-1.008-1.176-1.455l0.56-0.364c1.167,1.344,2.045,2.506,2.633,3.485l-0.603,0.421
				c-0.28-0.477-0.602-0.967-0.966-1.471c-0.877,0.094-2.016,0.196-3.416,0.309v3.934c0,0.709-0.354,1.064-1.064,1.064h-1.554
				V75.816z M640.597,71.826c1.4,1.036,2.591,2.081,3.57,3.136l-0.546,0.546c-0.85-0.989-2.03-2.053-3.542-3.191L640.597,71.826z"/>
			<path class="st6" d="M649.081,63.384c-0.756,1.933-1.503,3.426-2.24,4.48c0.774-0.121,1.503-0.267,2.185-0.435l0.783-1.483
				l0.673,0.252c-1.316,2.501-2.403,4.246-3.263,5.235c1.093-0.252,2.165-0.615,3.221-1.092v0.714
				c-1.447,0.607-2.838,1.027-4.173,1.261l-0.195-0.729c0.13-0.056,0.247-0.126,0.35-0.21c0.606-0.653,1.335-1.722,2.185-3.206
				c-0.747,0.159-1.587,0.317-2.521,0.477l-0.182-0.715c0.121-0.056,0.229-0.153,0.321-0.294c0.812-1.288,1.526-2.8,2.143-4.536
				L649.081,63.384z M650.439,73.576c-1.308,0.663-2.764,1.189-4.368,1.582l-0.099-0.756c1.681-0.383,3.169-0.896,4.467-1.54V73.576
				z M652.917,69.782c-0.075,1.755-0.299,3.038-0.672,3.85c-0.401,0.859-1.073,1.592-2.016,2.198l-0.49-0.603
				c0.84-0.522,1.446-1.161,1.819-1.918c0.346-0.728,0.547-1.903,0.603-3.527H652.917z M650.775,68.41l0.168-0.07
				c0.494-0.364,1.152-1.349,1.974-2.954h-2.562v-0.714h3.695c-0.168-0.513-0.396-1.04-0.686-1.582l0.756-0.14
				c0.224,0.438,0.457,1.013,0.7,1.722h3.206v0.714h-4.312c-0.719,1.419-1.33,2.403-1.834,2.954c1.438-0.112,2.884-0.294,4.34-0.546
				c-0.317-0.467-0.695-0.976-1.134-1.526l0.574-0.378c1.008,1.279,1.764,2.366,2.268,3.263l-0.588,0.434
				c-0.195-0.354-0.429-0.742-0.7-1.162c-1.745,0.28-3.645,0.504-5.697,0.672L650.775,68.41z M655.997,75.606
				c-0.719,0-1.078-0.369-1.078-1.106v-4.83h0.714v4.704c0,0.336,0.126,0.518,0.378,0.546h0.994
				c0.373-0.019,0.593-0.178,0.658-0.476c0.084-0.383,0.126-1.036,0.126-1.96l0.658,0.237c0,1.279-0.089,2.086-0.267,2.422
				c-0.177,0.28-0.555,0.435-1.134,0.463C657.046,75.606,655.997,75.606,655.997,75.606z"/>
			<path class="st6" d="M663.991,64.504V74.5h-0.854v-8.932c-0.644,0.699-1.441,1.189-2.394,1.47V66.17
				c0.476-0.14,0.938-0.35,1.386-0.63c0.438-0.289,0.831-0.635,1.176-1.036H663.991z"/>
		</g>
	</g>
	<g>
		<g class="st2">
			<rect x="619" y="122" class="st3" width="141" height="50"/>
		</g>
		<g>
			<rect x="617.5" y="120.5" class="st4" width="140" height="49"/>
			<path class="st5" d="M757,121v48H618v-48H757 M758,120H617v50h141V120L758,120z"/>
		</g>
		<g class="st2">
			<rect x="617.12" y="120" class="st3" width="137.88" height="47"/>
		</g>
		<g>
			<rect x="612.5" y="115.5" class="st4" width="140" height="49"/>
			<path class="st5" d="M752,116v48H613v-48H752 M753,115H612v50h141V115L753,115z"/>
		</g>
		<g class="st2">
			<rect x="612" y="115" class="st3" width="138" height="47"/>
		</g>
		<g>
			<rect x="607.5" y="110.5" class="st4" width="140" height="49"/>
			<path class="st5" d="M747,111v48H608v-48H747 M748,110H607v50h141V110L748,110z"/>
		</g>
		<rect x="627" y="119" class="st10" width="32" height="32"/>
		<g>
			<path class="st6" d="M677.119,130.547c0.756,0.588,1.204,1.381,1.344,2.381h-1.105c-0.141-0.719-0.495-1.279-1.064-1.682
				c-0.541-0.373-1.204-0.559-1.988-0.559c-1.157,0-2.053,0.406-2.688,1.217c-0.588,0.756-0.882,1.756-0.882,2.996
				c0,1.26,0.289,2.25,0.867,2.969c0.616,0.775,1.508,1.162,2.675,1.162c0.793,0,1.47-0.211,2.029-0.631
				c0.598-0.457,0.994-1.115,1.19-1.973h1.105c-0.224,1.176-0.746,2.08-1.567,2.715c-0.775,0.607-1.694,0.91-2.758,0.91
				c-1.55,0-2.739-0.514-3.57-1.539c-0.747-0.916-1.12-2.119-1.12-3.613c0-1.492,0.383-2.711,1.148-3.654
				c0.83-1.055,2.024-1.582,3.584-1.582C675.43,129.664,676.363,129.959,677.119,130.547z"/>
			<path class="st6" d="M679.262,129.861h1.26l3.122,8.75h0.042l3.122-8.75h1.26l-3.696,9.996h-1.414L679.262,129.861z"/>
			<path class="st6" d="M689.145,129.861h1.428l3.725,8.525h0.042l3.71-8.525h1.428v9.996h-1.147v-7.953h-0.042l-3.458,7.953h-1.036
				l-3.458-7.953h-0.042v7.953h-1.148v-9.996H689.145z"/>
			<path class="st6" d="M702.822,131.904c-0.317,0.375-0.709,0.775-1.176,1.205l-0.574-0.785c1.241-1.109,2.17-2.426,2.786-3.947
				l0.938,0.238c-0.111,0.289-0.271,0.652-0.476,1.092h3.024c-0.233-0.504-0.439-0.906-0.616-1.203l1.036-0.17
				c0.168,0.355,0.354,0.812,0.56,1.373h4.522v0.84h-4.452v0.951h3.934v0.785h-3.934v0.924h3.934v0.783h-3.934v0.994h4.718v0.855
				h-10.29L702.822,131.904L702.822,131.904z M701.45,137.855v-0.91h5.572v-0.729h1.008v0.729h5.488v0.91h-4.242
				c0.961,0.904,2.427,1.623,4.396,2.156l-0.435,0.881c-2.314-0.783-3.962-1.797-4.942-3.037h-0.266v3.416h-1.008v-3.416h-0.28
				c-0.887,1.193-2.52,2.225-4.899,3.094l-0.532-0.869c2.146-0.652,3.635-1.395,4.466-2.225L701.45,137.855L701.45,137.855z
				 M707.4,131.498v-0.951h-3.57l-0.069,0.111v0.84L707.4,131.498L707.4,131.498z M707.4,133.207v-0.924h-3.64v0.924H707.4z
				 M707.4,134.984v-0.994h-3.64v0.994H707.4z"/>
			<path class="st6" d="M720.532,134.803h-2.87c-0.121,0.477-0.261,0.93-0.42,1.357h3.668v4.984h-0.896v-0.812h-2.212v0.842h-0.896
				v-4.188c-0.392,0.84-0.845,1.545-1.357,2.115l-0.532-0.84c0.774-0.869,1.349-2.021,1.722-3.459h-1.092v-0.867h1.302
				c0.103-0.551,0.183-1.078,0.238-1.582h-1.876v-0.896h1.96c0.037-0.709,0.061-1.25,0.07-1.625h-1.61v-0.867h4.802v2.492h0.784
				v0.896h-0.784v2.45H720.532z M717.803,139.438h2.212v-2.354h-2.212V139.438z M718.097,132.354
				c-0.047,0.41-0.126,0.938-0.238,1.582h1.75v-1.582H718.097z M718.25,129.832c-0.009,0.412-0.032,0.953-0.069,1.625h1.428v-1.625
				H718.25z M724.215,132.059h-2.507v-0.965h1.652c-0.401-0.85-0.798-1.598-1.19-2.24l0.854-0.406
				c0.42,0.672,0.821,1.418,1.204,2.24l-0.84,0.406h1.582c0.41-0.879,0.761-1.793,1.05-2.744l0.952,0.336
				c-0.28,0.857-0.611,1.66-0.994,2.408h1.554v0.965h-2.324v2.031h2.03v0.938h-2.03v2.029h2.633v0.967h-2.633v3.219h-0.993v-3.219
				h-2.604v-0.967h2.604v-2.029h-2.171v-0.938h2.171L724.215,132.059L724.215,132.059z"/>
		</g>
		<g id="XMLID_293_">
			<g>
				<path class="st1" d="M643,148c-7.18,0-13-5.82-13-13s5.82-13,13-13c6.498,0,11.866,4.772,12.831,11h2.021
					c-0.98-7.336-7.247-13-14.851-13c-8.284,0-15,6.716-15,15s6.716,15,15,15c7.604,0,13.871-5.664,14.851-13h-2.021
					C654.866,143.228,649.498,148,643,148z M650,131l-7-4l-7,4v8l3.195,1.826c0.203-0.657,0.557-1.244,1.042-1.708L638,137.839
					v-3.697l5,2.857l5-2.857v3.697l-4.137,2.364C643.601,140.077,643.311,140,643,140c-1.105,0-2,0.895-2,2s0.895,2,2,2s2-0.895,2-2
					c0-0.046-0.01-0.09-0.014-0.135L650,139V131z M643,134.697L638.281,132l4.719-2.697l4.719,2.697L643,134.697z"/>
			</g>
		</g>
	</g>
</g>
<g>
	<g>
		<g>
			<rect x="598" y="230" class="st9" width="170" height="156"/>
		</g>
		<g>
			<path class="st6" d="M610.357,241.164c-0.439,0.178-0.715,0.285-0.826,0.322c0,2.361,0.032,4.419,0.098,6.174
				c0.075,1.839,0.527,3.07,1.358,3.696c1.036,0.802,2.86,1.208,5.474,1.218l-0.28,0.7c-2.818-0.057-4.769-0.565-5.852-1.526
				c-0.598-0.598-0.999-1.451-1.204-2.562c-0.178-0.904-0.271-3.396-0.28-7.476c-0.476,0.14-0.887,0.243-1.231,0.308v11.158h-0.729
				v-11.032c-0.354,0.057-0.812,0.117-1.372,0.183v4.018c-0.056,2.726-0.48,5.036-1.273,6.931l-0.519-0.532
				c0.71-1.829,1.078-3.962,1.106-6.398v-4.634c2.109-0.196,3.784-0.564,5.026-1.106L610.357,241.164z M615.901,241.43v4.83h-4.229
				v2.688c0,0.392,0.205,0.588,0.616,0.588h2.618c0.299-0.019,0.504-0.159,0.616-0.42c0.093-0.252,0.158-0.766,0.195-1.54
				l0.687,0.224c-0.057,0.775-0.141,1.33-0.252,1.666c-0.196,0.504-0.551,0.756-1.064,0.756h-3.038
				c-0.709,0-1.063-0.354-1.063-1.063v-7.729H615.901z M613.143,242.144h-1.47v3.402h1.47V242.144z M613.815,245.546h1.399v-3.402
				h-1.399V245.546z"/>
			<path class="st6" d="M619.345,242.9h4.368v-2.282h0.756v2.282h4.34v5.012h-4.34v3.542c1.531-0.149,2.922-0.331,4.172-0.546
				c-0.317-0.69-0.662-1.349-1.035-1.975l0.672-0.279c0.765,1.307,1.433,2.726,2.002,4.256l-0.7,0.294
				c-0.215-0.616-0.43-1.153-0.644-1.61c-2.68,0.457-6.235,0.816-10.669,1.078l-0.126-0.812c2.025-0.084,3.883-0.196,5.572-0.336
				v-3.612h-4.368L619.345,242.9L619.345,242.9z M623.713,247.184v-3.569h-3.626v3.569H623.713z M628.067,247.184v-3.569h-3.599
				v3.569H628.067z"/>
			<path class="st6" d="M636.005,249.928c-0.952,1.13-2.142,2.133-3.569,3.011l-0.477-0.631c1.362-0.793,2.529-1.75,3.5-2.869
				L636.005,249.928z M636.005,253.316l-0.168-0.729c0.672,0.037,1.157,0.056,1.456,0.056c0.393,0,0.588-0.191,0.588-0.573v-3.696
				l-4.466,0.238l-0.21-0.672c0.271-0.028,0.494-0.075,0.672-0.141c1.307-0.551,2.726-1.414,4.256-2.59
				c-1.026,0.075-2.432,0.163-4.214,0.266l-0.168-0.686c0.205-0.028,0.383-0.074,0.532-0.14c0.83-0.393,1.778-1.177,2.842-2.353
				c-1.344,0.075-2.688,0.112-4.032,0.112l-0.224-0.658c4.051-0.019,7.359-0.331,9.926-0.938l0.378,0.644
				c-1.399,0.354-3.094,0.611-5.082,0.77c-0.989,1.13-1.979,1.998-2.968,2.604c1.288-0.074,2.558-0.158,3.808-0.252
				c0.645-0.532,1.316-1.106,2.017-1.722l0.7,0.336c-2.483,2.221-4.662,3.789-6.538,4.704c2.52-0.141,4.681-0.309,6.481-0.505
				c-0.401-0.522-0.793-1.008-1.176-1.455l0.56-0.364c1.167,1.344,2.045,2.506,2.633,3.485l-0.603,0.421
				c-0.28-0.477-0.602-0.967-0.966-1.471c-0.877,0.094-2.016,0.196-3.416,0.309v3.934c0,0.709-0.354,1.064-1.064,1.064h-1.554
				V253.316z M640.597,249.326c1.4,1.036,2.591,2.081,3.57,3.136l-0.546,0.546c-0.85-0.989-2.03-2.053-3.542-3.191L640.597,249.326z
				"/>
			<path class="st6" d="M649.081,240.884c-0.756,1.933-1.503,3.426-2.24,4.48c0.774-0.121,1.503-0.267,2.185-0.435l0.783-1.483
				l0.673,0.252c-1.316,2.501-2.403,4.246-3.263,5.235c1.093-0.252,2.165-0.615,3.221-1.092v0.714
				c-1.447,0.607-2.838,1.027-4.173,1.261l-0.195-0.729c0.13-0.056,0.247-0.126,0.35-0.21c0.606-0.653,1.335-1.722,2.185-3.206
				c-0.747,0.159-1.587,0.317-2.521,0.477l-0.182-0.715c0.121-0.056,0.229-0.153,0.321-0.294c0.812-1.288,1.526-2.8,2.143-4.536
				L649.081,240.884z M650.439,251.076c-1.308,0.663-2.764,1.189-4.368,1.582l-0.099-0.756c1.681-0.383,3.169-0.896,4.467-1.54
				V251.076z M652.917,247.282c-0.075,1.755-0.299,3.038-0.672,3.85c-0.401,0.859-1.073,1.592-2.016,2.198l-0.49-0.603
				c0.84-0.522,1.446-1.161,1.819-1.918c0.346-0.728,0.547-1.903,0.603-3.527L652.917,247.282L652.917,247.282z M650.775,245.91
				l0.168-0.07c0.494-0.364,1.152-1.349,1.974-2.954h-2.562v-0.714h3.695c-0.168-0.513-0.396-1.04-0.686-1.582l0.756-0.14
				c0.224,0.438,0.457,1.013,0.7,1.722h3.206v0.714h-4.312c-0.719,1.419-1.33,2.403-1.834,2.954c1.438-0.112,2.884-0.294,4.34-0.546
				c-0.317-0.467-0.695-0.976-1.134-1.526l0.574-0.378c1.008,1.279,1.764,2.366,2.268,3.263l-0.588,0.434
				c-0.195-0.354-0.429-0.742-0.7-1.162c-1.745,0.28-3.645,0.504-5.697,0.672L650.775,245.91z M655.997,253.106
				c-0.719,0-1.078-0.369-1.078-1.106v-4.83h0.714v4.704c0,0.336,0.126,0.518,0.378,0.546h0.994
				c0.373-0.019,0.593-0.178,0.658-0.476c0.084-0.383,0.126-1.036,0.126-1.96l0.658,0.237c0,1.279-0.089,2.086-0.267,2.422
				c-0.177,0.28-0.555,0.435-1.134,0.463L655.997,253.106L655.997,253.106z"/>
			<path class="st6" d="M665.643,242.592c0.589,0.514,0.883,1.204,0.883,2.072c0,0.858-0.332,1.643-0.994,2.352
				c-0.327,0.346-1.018,0.878-2.072,1.597c-1.419,0.961-2.207,1.829-2.366,2.604h5.446V252h-6.496c0-0.858,0.331-1.652,0.994-2.38
				c0.41-0.467,1.11-1.041,2.1-1.722c0.841-0.598,1.405-1.041,1.694-1.33c0.551-0.598,0.826-1.237,0.826-1.918
				c0-0.663-0.206-1.177-0.616-1.54c-0.401-0.364-0.947-0.546-1.638-0.546c-0.729,0-1.303,0.242-1.723,0.728
				c-0.447,0.485-0.672,1.194-0.672,2.128h-0.868c0-1.12,0.309-2.002,0.925-2.646c0.588-0.645,1.372-0.967,2.352-0.967
				C664.322,241.808,665.064,242.069,665.643,242.592z"/>
		</g>
	</g>
	<g>
		<g class="st2">
			<rect x="619" y="299.5" class="st3" width="141" height="50"/>
		</g>
		<g>
			<rect x="617.5" y="298" class="st4" width="140" height="49"/>
			<path class="st5" d="M757,298.5v48H618v-48H757 M758,297.5H617v50h141V297.5L758,297.5z"/>
		</g>
		<g class="st2">
			<rect x="617.12" y="297.5" class="st3" width="137.88" height="47"/>
		</g>
		<g>
			<rect x="612.5" y="293" class="st4" width="140" height="49"/>
			<path class="st5" d="M752,293.5v48H613v-48H752 M753,292.5H612v50h141V292.5L753,292.5z"/>
		</g>
		<g class="st2">
			<rect x="612" y="292.5" class="st3" width="138" height="47"/>
		</g>
		<g>
			<rect x="607.5" y="288" class="st4" width="140" height="49"/>
			<path class="st5" d="M747,288.5v48H608v-48H747 M748,287.5H607v50h141V287.5L748,287.5z"/>
		</g>
		<rect x="627" y="296.5" class="st10" width="32" height="32"/>
		<g>
			<path class="st6" d="M677.119,308.047c0.756,0.588,1.204,1.381,1.344,2.381h-1.105c-0.141-0.719-0.495-1.279-1.064-1.682
				c-0.541-0.373-1.204-0.559-1.988-0.559c-1.157,0-2.053,0.406-2.688,1.217c-0.588,0.756-0.882,1.756-0.882,2.996
				c0,1.26,0.289,2.25,0.867,2.969c0.616,0.775,1.508,1.162,2.675,1.162c0.793,0,1.47-0.211,2.029-0.631
				c0.598-0.457,0.994-1.115,1.19-1.973h1.105c-0.224,1.176-0.746,2.08-1.567,2.715c-0.775,0.607-1.694,0.91-2.758,0.91
				c-1.55,0-2.739-0.514-3.57-1.539c-0.747-0.916-1.12-2.119-1.12-3.613c0-1.492,0.383-2.711,1.148-3.654
				c0.83-1.055,2.024-1.582,3.584-1.582C675.43,307.164,676.363,307.459,677.119,308.047z"/>
			<path class="st6" d="M679.262,307.361h1.26l3.122,8.75h0.042l3.122-8.75h1.26l-3.696,9.996h-1.414L679.262,307.361z"/>
			<path class="st6" d="M689.145,307.361h1.428l3.725,8.525h0.042l3.71-8.525h1.428v9.996h-1.147v-7.953h-0.042l-3.458,7.953h-1.036
				l-3.458-7.953h-0.042v7.953h-1.148v-9.996H689.145z"/>
			<path class="st6" d="M702.822,309.404c-0.317,0.375-0.709,0.775-1.176,1.205l-0.574-0.785c1.241-1.109,2.17-2.426,2.786-3.947
				l0.938,0.238c-0.111,0.289-0.271,0.652-0.476,1.092h3.024c-0.233-0.504-0.439-0.906-0.616-1.203l1.036-0.17
				c0.168,0.355,0.354,0.812,0.56,1.373h4.522v0.84h-4.452v0.951h3.934v0.785h-3.934v0.924h3.934v0.783h-3.934v0.994h4.718v0.855
				h-10.29L702.822,309.404L702.822,309.404z M701.45,315.355v-0.91h5.572v-0.729h1.008v0.729h5.488v0.91h-4.242
				c0.961,0.904,2.427,1.623,4.396,2.156l-0.435,0.881c-2.314-0.783-3.962-1.797-4.942-3.037h-0.266v3.416h-1.008v-3.416h-0.28
				c-0.887,1.193-2.52,2.225-4.899,3.094l-0.532-0.869c2.146-0.652,3.635-1.395,4.466-2.225L701.45,315.355L701.45,315.355z
				 M707.4,308.998v-0.951h-3.57l-0.069,0.111v0.84H707.4z M707.4,310.707v-0.924h-3.64v0.924H707.4z M707.4,312.484v-0.994h-3.64
				v0.994H707.4z"/>
			<path class="st6" d="M720.532,312.303h-2.87c-0.121,0.477-0.261,0.93-0.42,1.357h3.668v4.984h-0.896v-0.812h-2.212v0.842h-0.896
				v-4.188c-0.392,0.84-0.845,1.545-1.357,2.115l-0.532-0.84c0.774-0.869,1.349-2.021,1.722-3.459h-1.092v-0.867h1.302
				c0.103-0.551,0.183-1.078,0.238-1.582h-1.876v-0.896h1.96c0.037-0.709,0.061-1.25,0.07-1.625h-1.61v-0.867h4.802v2.492h0.784
				v0.896h-0.784v2.45H720.532z M717.803,316.938h2.212v-2.354h-2.212V316.938z M718.097,309.854
				c-0.047,0.41-0.126,0.938-0.238,1.582h1.75v-1.582H718.097z M718.25,307.332c-0.009,0.412-0.032,0.953-0.069,1.625h1.428v-1.625
				H718.25z M724.215,309.559h-2.507v-0.965h1.652c-0.401-0.85-0.798-1.598-1.19-2.24l0.854-0.406
				c0.42,0.672,0.821,1.418,1.204,2.24l-0.84,0.406h1.582c0.41-0.879,0.761-1.793,1.05-2.744l0.952,0.336
				c-0.28,0.857-0.611,1.66-0.994,2.408h1.554v0.965h-2.324v2.031h2.03v0.938h-2.03v2.029h2.633v0.967h-2.633v3.219h-0.993v-3.219
				h-2.604v-0.967h2.604v-2.029h-2.171v-0.938h2.171L724.215,309.559L724.215,309.559z"/>
		</g>
		<g id="XMLID_82_">
			<g>
				<path class="st1" d="M643,325.5c-7.18,0-13-5.82-13-13s5.82-13,13-13c6.498,0,11.866,4.772,12.831,11h2.021
					c-0.98-7.336-7.247-13-14.851-13c-8.284,0-15,6.716-15,15s6.716,15,15,15c7.604,0,13.871-5.664,14.851-13h-2.021
					C654.866,320.728,649.498,325.5,643,325.5z M650,308.5l-7-4l-7,4v8l3.195,1.826c0.203-0.657,0.557-1.244,1.042-1.708
					L638,315.339v-3.697l5,2.857l5-2.857v3.697l-4.137,2.364c-0.262-0.126-0.553-0.203-0.863-0.203c-1.105,0-2,0.895-2,2
					s0.895,2,2,2s2-0.895,2-2c0-0.046-0.01-0.09-0.014-0.135L650,316.5V308.5z M643,312.197l-4.719-2.697l4.719-2.697l4.719,2.697
					L643,312.197z"/>
			</g>
		</g>
	</g>
</g>
</svg>
