<?xml version="1.0" encoding="utf-8"?>
<!-- Generator: Adobe Illustrator 19.0.0, SVG Export Plug-In . SVG Version: 6.00 Build 0)  -->
<svg version="1.1" id="图层_1" xmlns="http://www.w3.org/2000/svg" xmlns:xlink="http://www.w3.org/1999/xlink" x="0px" y="0px"
	 width="48px" height="48px" viewBox="0 0 48 48" style="enable-background:new 0 0 48 48;" xml:space="preserve">
<style type="text/css">
	.st0{fill-rule:evenodd;clip-rule:evenodd;fill:#00A4FF;}
	.st1{fill:#00A4FF;}
</style>
<g id="XMLID_503_">
	<g id="XMLID_514_">
		<path class="st0" d="M32,20h2v7h-2V20z"/>
	</g>
	<g id="XMLID_512_">
		<path class="st0" d="M27,17h2v13h-2V17z"/>
	</g>
	<g id="XMLID_510_">
		<path class="st0" d="M22,14h2v18h-2V14z"/>
	</g>
	<g id="XMLID_508_">
		<path class="st0" d="M17,17h2v13h-2V17z"/>
	</g>
	<g id="XMLID_506_">
		<path class="st0" d="M12,19h2v8h-2V19z"/>
	</g>
</g>
<g id="XMLID_54_">
	<path id="XMLID_3_" class="st1" d="M13,24H1v-1C1,10.5,10.5,1,23,1c9.3,0,17.7,5.9,20.8,14.7c0.7,2,1.1,4.1,1.2,6.3L43,22
		c-0.1-2-0.5-3.9-1.1-5.7C39,8.4,31.5,3,23,3C11.9,3,3.5,11.1,3,22h10V24z"/>
</g>
<g id="XMLID_37_">
	<path class="st1" d="M23.5,46h-2c-1.4,0-2.5-1.1-2.5-2.5v0c0-1.4,1.1-2.5,2.5-2.5h2c1.4,0,2.5,1.1,2.5,2.5v0
		C26,44.9,24.9,46,23.5,46z"/>
</g>
<path id="XMLID_6_" class="st1" d="M42.3,29C40,37.1,32.2,43,23,43v2c10.3,0,19-6.8,21.4-16H42.3z"/>
<g id="XMLID_35_">
	<circle class="st1" cx="44.5" cy="23.5" r="2.5"/>
</g>
</svg>
