<?xml version="1.0" encoding="utf-8"?>
<!-- Generator: Adobe Illustrator 22.0.1, SVG Export Plug-In . SVG Version: 6.00 Build 0)  -->
<svg version="1.1" id="svgwrapper_svg" xmlns="http://www.w3.org/2000/svg" xmlns:xlink="http://www.w3.org/1999/xlink" x="0px"
	 y="0px" width="820px" height="328px" viewBox="0 0 820 328" style="enable-background:new 0 0 820 328;" xml:space="preserve">
<style type="text/css">
	.st0{display:none;fill:none;stroke:#999999;}
	.st1{fill:#EAEBEC;}
	.st2{enable-background:new    ;}
	.st3{fill:#444444;}
	.st4{fill:#00A3FF;}
	.st5{fill:#00C5D9;}
	.st6{fill:#006EFF;}
	.st7{fill:#878787;}
	.st8{fill:none;stroke:#888888;}
	.st9{fill:#888888;}
	.st10{fill:none;stroke:#FF0000;stroke-width:15;stroke-opacity:0;}
	.st11{opacity:0.6;fill:#BBBBBB;enable-background:new    ;}
	.st12{fill:#FFFFFF;stroke:#E5E5E5;}
	.st13{fill:#00A4FF;}
	.st14{fill:none;}
</style>
<path class="st0" d="M742.5,121l-9.5,55"/>
<g id="GrayRectGroup14" transform="translate(1,3)">
	<rect x="-1" y="-3" class="st1" width="292" height="328"/>
	<g transform="translate(10 10)">
		<g class="st2">
			<path class="st3" d="M3.5-0.1c-0.6,1.7-1.3,3-2,4C2,3.9,2.4,3.8,2.9,3.7C3.2,3.2,3.4,2.6,3.7,2l1.2,0.4c-1.1,2.3-2,4-2.8,5.1
				c0.7-0.2,1.4-0.4,2.1-0.7V8C2.9,8.5,1.7,8.8,0.6,9L0.2,7.8c0.2-0.1,0.4-0.2,0.6-0.4c0.4-0.5,0.9-1.3,1.5-2.5C1.7,5,1,5.1,0.3,5.2
				L0,4C0.2,4,0.4,3.8,0.5,3.5C1.2,2.3,1.7,1,2.2-0.6L3.5-0.1z M4.7,10.8C3.4,11.3,2,11.7,0.3,12l-0.2-1.4c1.8-0.3,3.3-0.7,4.6-1.1
				V10.8z M8.4-0.4C8.3,0,8.2,0.4,8.1,0.7h3.9v1.1c-0.6,1.1-1.2,2.1-2,2.9c1,0.6,2,1.2,3.2,1.7l-0.7,1.2C11.1,7,10,6.3,9,5.6
				C7.8,6.5,6.5,7.2,5,7.7L4.4,6.6c1.3-0.4,2.5-1,3.6-1.8C7.4,4.3,7,3.8,6.6,3.4c-0.3,0.4-0.7,0.7-1,1.1L4.7,3.3
				c1.2-1.1,2-2.4,2.4-3.9L8.4-0.4z M12.1,11.4l-0.7,1.1c-2-0.9-4.1-1.6-6.2-2.1l0.8-1.1C8.2,9.8,10.2,10.5,12.1,11.4z M11.5,8.5
				l-0.7,1C9.6,8.9,8.3,8.4,6.9,8l0.7-1C9,7.4,10.3,7.9,11.5,8.5z M10.4,2H7.5C7.4,2.1,7.3,2.3,7.2,2.4c0.5,0.5,1,1.1,1.6,1.5
				C9.4,3.4,9.9,2.7,10.4,2z"/>
			<path class="st3" d="M18.5,10.4c-1.3,0.5-2.7,0.9-4.2,1.2L14,10.3c0.8-0.1,1.6-0.3,2.4-0.5c0.3-2,0.5-4.1,0.6-6.3l1.2,0.2
				c-0.2,2.1-0.4,4-0.7,5.8l1-0.3V10.4z M15.8,1.7c-0.2-0.7-0.4-1.3-0.6-1.8l1.3-0.2C16.7,0.3,16.9,1,17,1.7h1.5V3h-4.5V1.7H15.8z
				 M16.1,9.1L15,9.4c-0.2-1.8-0.4-3.6-0.7-5.4l1.1-0.3C15.7,5.2,15.9,7,16.1,9.1z M26.8,4.2v1.2h-3.6c-0.1,0.4-0.2,0.7-0.3,1.1h3.6
				v4.7c0,0.8-0.3,1.2-1,1.2h-0.6l-0.3-1.2l0.6,0.1c0.1,0,0.2-0.1,0.2-0.3V7.7h-1v4.5h-1.1V7.7h-0.9v4.5h-1.1V7.7h-0.9v4.7h-1.2V6.5
				h2.5c0.1-0.4,0.2-0.7,0.3-1.1h-3.1V4.2H26.8z M25,0.1h1.3v3.2h-6.9V0.1h1.3v2h1.5v-2.6h1.3v2.6H25V0.1z"/>
			<path class="st3" d="M29,12.3l-1-0.9c0.8-1.2,1.3-2.7,1.3-4.6V0h10.7v10.5c0,1-0.5,1.6-1.6,1.6h-1.6l-0.4-1.3
				c0.5,0,1.1,0.1,1.5,0.1c0.4,0,0.7-0.3,0.7-0.8V8h-3.5v4h-1.3V8h-3.3C30.4,9.7,29.9,11.2,29,12.3z M30.7,1.3v2.1h3.2V1.3H30.7z
				 M30.7,6.7h3.2V4.6h-3.2V6.7z M38.7,1.3h-3.5v2.1h3.5V1.3z M38.7,4.6h-3.5v2.1h3.5V4.6z"/>
			<path class="st3" d="M42.9,12.5l-1-0.9c1.1-1.5,1.6-3.5,1.6-5.9V1.1H48c-0.2-0.5-0.5-1-0.8-1.5l1.4-0.2c0.2,0.5,0.5,1.1,0.7,1.7
				h4.4v5h-9C44.8,8.6,44.1,10.7,42.9,12.5z M44.8,2.4v2.4h7.6V2.4H44.8z"/>
			<path class="st3" d="M60.5,10.4c-1.3,0.5-2.7,0.9-4.2,1.2L56,10.3c0.8-0.1,1.6-0.3,2.4-0.5c0.3-2,0.5-4.1,0.6-6.3l1.2,0.2
				c-0.2,2.1-0.4,4-0.7,5.8l1-0.3V10.4z M57.8,1.7c-0.2-0.7-0.4-1.3-0.6-1.8l1.3-0.2C58.7,0.3,58.9,1,59,1.7h1.5V3h-4.5V1.7H57.8z
				 M58.1,9.1L57,9.4c-0.2-1.8-0.4-3.6-0.7-5.4l1.1-0.3C57.7,5.2,57.9,7,58.1,9.1z M68.8,4.2v1.2h-3.6c-0.1,0.4-0.2,0.7-0.3,1.1h3.6
				v4.7c0,0.8-0.3,1.2-1,1.2h-0.6l-0.3-1.2l0.6,0.1c0.1,0,0.2-0.1,0.2-0.3V7.7h-1v4.5h-1.1V7.7h-0.9v4.5h-1.1V7.7h-0.9v4.7h-1.2V6.5
				h2.5c0.1-0.4,0.2-0.7,0.3-1.1h-3.1V4.2H68.8z M67,0.1h1.3v3.2h-6.9V0.1h1.3v2h1.5v-2.6h1.3v2.6H67V0.1z"/>
		</g>
	</g>
</g>
<g id="QcloudBasicGroup15" transform="translate(288.03607177734375,1)">
	<rect x="18.5" y="-1" class="st1" width="328" height="328"/>
	<g transform="translate(0 0)">
		<g>
			<g>
				<path class="st4" d="M50.9,17.2c-1.1-1.1-2.6-1.7-4.1-1.7c-1.3,0-2.6,0.5-3.6,1.3c-0.5,0.4-0.9,0.8-1.5,1.4l-9,8.7
					c0.5,0.1,1.1,0.1,1.6,0.1h12.9c1.4-0.1,2.7-0.6,3.7-1.6C53.2,23.2,53.2,19.5,50.9,17.2C51,17.2,51,17.2,50.9,17.2L50.9,17.2z
					 M49.3,23.7c-0.7,0.6-1.6,1-2.5,1h-8.6l5-4.9c0.2-0.2,0.8-0.7,1.2-1.1c0.7-0.6,1.6-1,2.5-1c1.9,0,3.5,1.6,3.5,3.5
					C50.3,22.2,49.9,23.1,49.3,23.7L49.3,23.7z"/>
				<path class="st5" d="M36.9,16.6c-1-0.8-2.2-1.2-3.5-1.2c-3.2,0-5.8,2.6-5.7,5.8c0,1.5,0.6,3,1.7,4.1c0.9,0.9,2,1.4,3.3,1.6
					l2.2-2.2h-1.3c-0.9,0-1.8-0.4-2.5-1c-1.4-1.4-1.4-3.6,0-5c0.7-0.7,1.5-1,2.5-1c0.9,0,1.7,0.4,2.4,1c0.5,0.4,1.5,1.3,1.9,1.7
					l1.6-1.6C38.7,18.1,37.6,17.1,36.9,16.6z"/>
				<path class="st6" d="M47.4,14.1c-1.4-4-5.8-6.1-9.9-4.7c-2.7,0.9-4.6,3.3-5,6.1c0.3-0.1,0.7-0.1,1-0.1c0.4,0,0.9,0,1.3,0.1l0,0
					c0.6-3,3.6-4.8,6.5-4.2c1.7,0.4,3.1,1.5,3.8,3C45.8,14.1,46.5,14,47.4,14.1C47.4,14.3,47.5,14.2,47.4,14.1z"/>
			</g>
			<g>
				<path d="M81,12h-7.3v1.1h2.2V17h-2.5v1h2.5v6.5H77V18h2.8v6.4H82v-1h-1V12z M77,16.9v-3.8h2.8V17L77,16.9z"/>
				<rect x="60.6" y="21.6" width="5.8" height="1.1"/>
				<path d="M56.7,19.6c0,1.6-0.1,3.2-0.5,4.7c0,0.1,0,0.1,0.1,0.1h1.1c0.3-1.4,0.4-2.9,0.3-4.3h1.5v3.3h-1c0,0-0.1,0-0.1,0.1l0.3,1
					h1.9V12.1h-3.6V19.6z M57.7,19.1v-2.5h1.5v2.5H57.7z M59.2,13.1v2.5h-1.5v-2.5H59.2z"/>
				<path d="M66.8,16.4h1.4v-1H64c0.1-0.3,0.2-0.7,0.3-1H68v-1h-1l0.4-1.4c0-0.1,0-0.1-0.1-0.1h-0.9L66,13.3h-1.3
					c0.1-0.6,0.2-1.2,0.3-1.9c0-0.1,0-0.1-0.1-0.1h-1c-0.1,0.7-0.2,1.4-0.4,1.9H63L62.5,12h-0.9c0,0-0.1,0-0.1,0.1l0.4,1.3h-1v1h2.4
					c-0.1,0.3-0.2,0.7-0.4,1h-2.3v1h1.7c-0.4,0.6-1,1.2-1.7,1.6v1c0,0.1,0,0.1,0.2,0c0.3-0.2,0.7-0.4,1-0.6h4v1.4h-3.2l0.1-0.8
					c0,0,0-0.1-0.1-0.1l0,0h-1l-0.1,1.8c0,0,0,0.1,0.1,0.1l0,0H67v2.6h-2.5c0,0-0.1,0-0.1,0.1l0.3,1h3.4v-4.6h-1.3V18
					c0.4,0.4,0.9,0.8,1.5,1.1c0.2,0.1,0.2,0,0.2,0V18C67.8,17.6,67.3,17,66.8,16.4z M65.5,16.4c0.2,0.4,0.5,0.8,0.8,1.1h-3.5
					c0.3-0.3,0.6-0.7,0.8-1.1H65.5z"/>
				<path d="M74.4,20.8l-2,1.5v-6.9h-2.7v1.2h1.6v6.6l-0.6,0.5l0.6,0.9l3.2-2.4V21v-0.1C74.5,20.8,74.4,20.8,74.4,20.8L74.4,20.8z"
					/>
				<path d="M71.4,14.4h1.3v-0.1l0,0l-1.6-2.5h-1.2h-0.1c0,0,0,0,0,0.1L71.4,14.4z"/>
				<rect x="84.5" y="12.3" width="9.2" height="1.2"/>
				<path d="M87.8,17.9H95v-1.2H83.2v1.2h3.3l-2.4,6.3v0.1h10.3c0,0,0.1,0,0.1-0.1l0,0l0,0l-1.5-4h-1.3c0,0-0.1,0-0.1,0.1l0,0
					l1.1,2.8h-6.8L87.8,17.9z"/>
			</g>
		</g>
		<rect x="105.7" y="10" class="st7" width="1" height="16"/>
		<g class="st2">
			<path class="st3" d="M123.4,13.4c-0.2-0.4-0.4-0.8-0.6-1.1l1.1-0.4c0.3,0.4,0.5,1,0.7,1.5h0.5c0.2-0.6,0.3-1.2,0.4-1.9l1.3,0.2
				c-0.1,0.6-0.2,1.2-0.4,1.7h0.9c0.3-0.5,0.5-1.1,0.7-1.6l1.2,0.4c-0.2,0.4-0.4,0.8-0.6,1.2h1v1.1H126c-0.1,0.3-0.2,0.6-0.4,0.9
				h4.2v1.1h-2c0.6,0.6,1.3,1,2.3,1.3l-0.6,1.2c-0.5-0.2-1-0.5-1.4-0.8c-0.1,0.7-0.2,1.3-0.3,1.8h1.5c-0.1,2.4-0.2,3.7-0.5,4
				c-0.3,0.3-0.9,0.4-1.9,0.4h-0.6l-0.3-1.1c0.4,0,0.7,0,1,0c0.4,0,0.7-0.1,0.9-0.2c0.1-0.1,0.2-0.8,0.3-2.1H123
				c0.3-0.8,0.5-1.5,0.6-2.2l1.2,0.1c-0.1,0.4-0.2,0.7-0.3,1h2.2c0.1-0.4,0.2-0.9,0.3-1.4h-3.5v-0.4c-0.4,0.3-0.8,0.6-1.2,0.9
				l-0.6-0.9v5c0,0.8-0.4,1.3-1.3,1.3h-0.9l-0.3-1.2c0.3,0,0.6,0.1,0.8,0.1c0.3,0,0.4-0.2,0.4-0.6v-2.8h-1.3
				c-0.1,1.8-0.4,3.4-0.9,4.6l-1-0.9c0.4-1.2,0.7-2.8,0.7-4.6V12h3.8v6c0.7-0.4,1.3-0.9,1.8-1.5h-1.5v-1.1h2.2
				c0.2-0.3,0.3-0.6,0.4-0.9h-2.2v-1.1H123.4z M120.5,13.2h-1.3v2.1h1.3V13.2z M119.2,18.6h1.3v-2h-1.3V18.6z M127.3,21.6v1.1h-5.1
				v-1.1H127.3z M127.5,17.5c-0.4-0.3-0.6-0.7-0.9-1.1h-1.6c-0.3,0.4-0.5,0.7-0.8,1.1H127.5z"/>
			<path class="st3" d="M134.4,15.7v5.9c0.4-0.3,0.8-0.7,1.2-1.2l0.4,1.4c-0.8,0.8-1.8,1.6-2.7,2.2l-0.5-1.2
				c0.2-0.2,0.4-0.5,0.4-0.8V17h-1.8v-1.3H134.4z M135.3,13.7l-0.9,0.9c-0.5-0.7-1.3-1.4-2.2-2.1l0.9-0.9
				C133.9,12.3,134.7,13,135.3,13.7z M137.4,16.9v-3.5h-1.8v-1.3h6.6v4.4c0,2.7,0.2,4.5,0.5,5.5c0.1,0.4,0.3,0.7,0.4,0.7
				c0,0,0.1-0.2,0.1-0.6c0-0.4,0.1-0.9,0.1-1.4l1,0.5c-0.1,1.4-0.2,2.2-0.4,2.6c-0.1,0.3-0.3,0.4-0.5,0.4c-0.6,0-1.1-0.3-1.5-1
				c-0.7-1.1-1-3.4-1-6.8v-3.2h-2.2v3.5h1.8v1.3h-1.8v6.3h-1.3v-6.3h-2v-1.3H137.4z"/>
			<path class="st3" d="M158.1,16.1v1.3h-6.6c-1.2,2.4-2.3,4.1-3.2,5.2c2.3-0.1,4.6-0.4,6.9-0.7c-0.4-0.8-0.9-1.6-1.5-2.5l1.1-0.7
				c1.3,1.9,2.3,3.5,3,4.9l-1.2,0.8c-0.2-0.5-0.4-1-0.7-1.4c-2.8,0.4-5.9,0.7-9.2,0.9l-0.3-1.4c0.1,0,0.3-0.1,0.3-0.1
				c0.9-0.6,2-2.4,3.4-5.1h-4.5v-1.3H158.1z M156.8,12.2v1.3h-10.1v-1.3H156.8z"/>
			<path class="st3" d="M160.4,24.5l-1-0.9c0.6-1.2,0.8-2.8,0.9-4.7V12h4.4v11c0,1-0.4,1.4-1.3,1.4h-1.1l-0.3-1.2
				c0.4,0,0.7,0.1,1.1,0.1c0.3,0,0.4-0.3,0.4-0.8v-2.8h-2C161.3,21.6,160.9,23.2,160.4,24.5z M163.4,13.2h-2v2.1h2V13.2z
				 M161.4,18.5h2v-2h-2V18.5z M166.8,24.5h-1.2V12h5.9c0,1.8-0.1,3-0.3,3.6c-0.2,0.6-0.7,0.9-1.6,0.9h-1.2l-0.3-1.1
				c0.2,0,0.5,0,0.9,0c0.3,0,0.5,0,0.7-0.1c0.1,0,0.3-0.2,0.3-0.4c0.1-0.2,0.1-0.8,0.2-1.8h-3.4v4h4.7v1.1c-0.3,1.4-0.7,2.5-1.3,3.5
				c0.6,0.5,1.2,1,2,1.5l-0.7,1.1c-0.8-0.5-1.5-1-2.1-1.6c-0.6,0.6-1.3,1.2-2,1.6l-0.7-1V24.5z M166.8,23.4c0.7-0.4,1.3-0.9,1.9-1.5
				c-0.8-1-1.4-2.2-1.7-3.5h-0.2V23.4z M169.4,20.8c0.4-0.7,0.7-1.6,1-2.5h-2.2C168.4,19.3,168.8,20.1,169.4,20.8z"/>
			<path class="st3" d="M178.7,11.7c-0.1,0.3-0.3,0.7-0.5,1h6v1.1c-0.8,1-1.9,1.8-3.1,2.5c1.5,0.6,3.2,0.9,5,1.1l-0.6,1.2
				c-2.2-0.3-4.1-0.8-5.9-1.6c-1.7,0.8-3.6,1.3-5.9,1.6l-0.6-1.2c1.9-0.2,3.6-0.6,5-1.2c-0.7-0.4-1.3-0.8-1.9-1.3
				c-0.5,0.4-1,0.8-1.6,1.1l-0.8-1.1c1.6-0.9,2.7-2.1,3.3-3.4L178.7,11.7z M180,17.8c0,0.5,0,1-0.1,1.4h4.8c0,2.5-0.2,3.9-0.6,4.4
				c-0.4,0.5-1.1,0.7-2.1,0.7c-0.5,0-1.1,0-1.7-0.1l-0.3-1.2c0.7,0,1.3,0.1,1.8,0.1c0.7,0,1.2-0.2,1.3-0.4c0.2-0.3,0.3-1.1,0.3-2.3
				h-3.8c-0.1,0.3-0.3,0.7-0.4,1c-0.7,1.3-2.3,2.3-4.9,3.1l-0.9-1.1c2.3-0.7,3.8-1.5,4.5-2.5c0.1-0.2,0.2-0.4,0.3-0.5h-3.9v-1.2h4.3
				c0.1-0.4,0.1-0.9,0.1-1.4H180z M182.3,13.9h-4.9c0,0-0.1,0.1-0.1,0.1c0.7,0.6,1.5,1.1,2.4,1.6C180.7,15.1,181.5,14.5,182.3,13.9z
				"/>
			<path class="st3" d="M191.7,22.4c-1.3,0.5-2.7,0.9-4.2,1.2l-0.3-1.3c0.8-0.1,1.6-0.3,2.4-0.5c0.3-2,0.5-4.1,0.6-6.3l1.2,0.2
				c-0.2,2.1-0.4,4-0.7,5.8l1-0.3V22.4z M189,13.7c-0.2-0.7-0.4-1.3-0.6-1.8l1.3-0.2c0.2,0.6,0.4,1.3,0.5,2.1h1.5V15h-4.5v-1.3H189z
				 M189.3,21.1l-1.1,0.3c-0.2-1.8-0.4-3.6-0.7-5.4l1.1-0.3C188.9,17.2,189.1,19,189.3,21.1z M200,16.2v1.2h-3.6
				c-0.1,0.4-0.2,0.7-0.3,1.1h3.6v4.7c0,0.8-0.3,1.2-1,1.2h-0.6l-0.3-1.2l0.6,0.1c0.1,0,0.2-0.1,0.2-0.3v-3.3h-1v4.5h-1.1v-4.5h-0.9
				v4.5h-1.1v-4.5h-0.9v4.7h-1.2v-5.9h2.5c0.1-0.4,0.2-0.7,0.3-1.1h-3.1v-1.2H200z M198.2,12.1h1.3v3.2h-6.9v-3.2h1.3v2h1.5v-2.6
				h1.3v2.6h1.6V12.1z"/>
		</g>
	</g>
</g>
<g id="GrayRectGroup18" transform="translate(646,4)">
	<rect x="2" y="-4" class="st1" width="172" height="328"/>
	<g transform="translate(10 10)">
		<g class="st2">
			<path class="st3" d="M9.5-1.3c1.8,1.9,3.8,3.4,6.1,4.5l-0.7,1.3C12.6,3.3,10.6,1.8,9-0.2C7.5,1.6,5.5,3.2,3.1,4.5L2.4,3.2
				C4.8,2,6.9,0.5,8.5-1.3H9.5z M10.1,2.4v3h3.7v1.3h-3.7v3.1h4.7v1.3H3.1V9.8h2V4.4h1.3v5.3h2.4V2.4H10.1z"/>
			<path class="st3" d="M22.1-1.2v11h1.7v-11h1.3v11h4.1v1.3H16.8V9.8h4.1v-11H22.1z M20.1,7.8l-1.2,0.3c-0.5-2.2-1.1-4.3-1.8-6.4
				l1.1-0.4C18.9,3.2,19.5,5.4,20.1,7.8z M29,1.7c-0.5,2.4-1.2,4.5-2.1,6.3l-1.2-0.4c0.8-1.6,1.5-3.7,2.1-6.2L29,1.7z"/>
			<path class="st3" d="M31.1,11.4l-0.3-1.3c0.4,0,0.7,0.1,1.1,0.1c0.3,0,0.5-0.2,0.5-0.5v-3c-0.5,0.2-1,0.4-1.6,0.5l-0.3-1.3
				c0.6-0.1,1.3-0.3,1.9-0.5V2.5h-1.6V1.2h1.6v-2.5h1.3v2.5h1.1v1.3h-1.1v2.3c0.3-0.2,0.7-0.4,1.1-0.5v1.3C34.4,5.8,34,6,33.7,6.1
				v3.9c0,0.9-0.5,1.4-1.4,1.4H31.1z M39.1,4.6c-0.1,0.3-0.3,0.6-0.4,0.9h4.6v1.3h-1.5c-0.2,0.9-0.6,1.7-1.2,2.4
				c0.9,0.4,1.7,0.8,2.5,1.3l-0.7,1.1c-0.8-0.5-1.7-1-2.8-1.5c-1,0.6-2.4,1.2-4.3,1.6l-0.5-1.2c1.5-0.3,2.6-0.6,3.4-1
				c-0.8-0.3-1.7-0.7-2.6-1.1c0.4-0.5,0.7-1.1,0.9-1.5h-1.7V5.5h2.3c0.2-0.4,0.3-0.7,0.4-1.1L39.1,4.6z M38.5,3h1.2
				c0.3-0.6,0.6-1.3,0.9-2h-5v-1.2h2.9c-0.1-0.4-0.3-0.7-0.5-1l1.4-0.2c0.1,0.4,0.3,0.8,0.4,1.3h3.1V1h-1.8l0.8,0.3
				c-0.2,0.6-0.5,1.2-0.8,1.7h2.1v1.3h-7.9V3h2c-0.3-0.5-0.5-1-0.8-1.5L37.5,1C37.9,1.6,38.2,2.3,38.5,3z M38.1,6.8
				c-0.2,0.3-0.4,0.7-0.6,1c0.7,0.3,1.4,0.5,2.1,0.8c0.5-0.5,0.9-1.1,1.1-1.8H38.1z"/>
			<path class="st3" d="M48-0.7l1.1-0.7c1.2,0.8,2.2,2.4,3.1,4.7c1.3,3.3,3.1,5.6,5.2,7l-0.8,1.1c-2.2-1.3-4-3.8-5.5-7.6
				c0-0.1-0.1-0.2-0.1-0.3c-1,3.4-2.8,6-5.7,7.9l-0.8-1.1c2.9-1.9,4.8-4.7,5.8-8.3C49.6,0.9,48.9,0,48-0.7z"/>
			<path class="st3" d="M63,9.6c-1.3,0.5-2.7,0.9-4.2,1.2l-0.3-1.3c0.8-0.1,1.6-0.3,2.4-0.5c0.3-2,0.5-4.1,0.6-6.3l1.2,0.2
				c-0.2,2.1-0.4,4-0.7,5.8l1-0.3V9.6z M60.3,0.9c-0.2-0.7-0.4-1.3-0.6-1.8L61-1.2c0.2,0.6,0.4,1.3,0.5,2.1h1.5v1.3h-4.5V0.9H60.3z
				 M60.6,8.2l-1.1,0.3c-0.2-1.8-0.4-3.6-0.7-5.4l1.1-0.3C60.2,4.4,60.4,6.2,60.6,8.2z M71.3,3.3v1.2h-3.6c-0.1,0.4-0.2,0.7-0.3,1.1
				H71v4.7c0,0.8-0.3,1.2-1,1.2h-0.6l-0.3-1.2l0.6,0.1c0.1,0,0.2-0.1,0.2-0.3V6.8h-1v4.5h-1.1V6.8h-0.9v4.5h-1.1V6.8h-0.9v4.7h-1.2
				V5.6h2.5c0.1-0.4,0.2-0.7,0.3-1.1h-3.1V3.3H71.3z M69.5-0.8h1.3v3.2h-6.9v-3.2h1.3v2h1.5v-2.6h1.3v2.6h1.6V-0.8z"/>
		</g>
	</g>
</g>
<g id="middlegroup" transform="translate(0,0)">
	<g id="Link4" transform="translate(0,0)">
		<path class="st8" d="M132.5,173.6h11v-103h11"/>
		<g transform="translate(0.5, 0)">
			<polygon class="st9" points="149.5,75.1 155.5,70.6 149.5,66.1 			"/>
		</g>
		<path class="st10" d="M132.5,173.6h11"/>
		<path class="st10" d="M143.5,173.6v-103"/>
		<path class="st10" d="M143.5,70.6h11"/>
	</g>
	<g id="Link5" transform="translate(0,0)">
		<path class="st8" d="M132.5,173.6h11v107h11"/>
		<g transform="translate(0.5, 0)">
			<polygon class="st9" points="149.5,285.1 155.5,280.6 149.5,276.1 			"/>
		</g>
		<path class="st10" d="M132.5,173.6h11"/>
		<path class="st10" d="M143.5,173.6v107"/>
		<path class="st10" d="M143.5,280.6h11"/>
	</g>
	<g id="Link9" transform="translate(0,0)">
		<path class="st8" d="M272.5,70.6h125v75"/>
		<g transform="translate(0, 0.5)">
			<polygon class="st9" points="393,140.6 397.5,146.6 402,140.6 			"/>
		</g>
		<path class="st10" d="M272.5,70.6h125"/>
		<path class="st10" d="M397.5,70.6v75"/>
	</g>
	<g id="Link10" transform="translate(0,0)">
		<path class="st8" d="M272.5,280.6h125v-75"/>
		<g transform="translate(0, -0.5)">
			<polygon class="st9" points="402,210.6 397.5,204.6 393,210.6 			"/>
		</g>
		<path class="st10" d="M272.5,280.6h125"/>
		<path class="st10" d="M397.5,280.6v-75"/>
	</g>
	<g id="Link20" transform="translate(0,0)">
		<path class="st8" d="M410.5,198.6v83h250"/>
		<g transform="translate(0.5, 0)">
			<polygon class="st9" points="655.5,286.1 661.5,281.6 655.5,277.1 			"/>
		</g>
		<path class="st10" d="M410.5,198.6v83"/>
		<path class="st10" d="M410.5,281.6h250"/>
	</g>
	<g id="Link11" transform="translate(0,0)">
		<path class="st8" d="M464.5,175.6h13l0,0h6"/>
		<g transform="translate(0.5, 0)">
			<polygon class="st9" points="478.5,180.1 484.5,175.6 478.5,171.1 			"/>
			<polygon class="st9" points="468.5,171.1 462.5,175.6 468.5,180.1 			"/>
		</g>
		<path class="st10" d="M464.5,175.6h13"/>
		<path class="st10" d="M477.5,175.6L477.5,175.6"/>
		<path class="st10" d="M477.5,175.6h6"/>
	</g>
	<g id="Link19" transform="translate(0,0)">
		<path class="st8" d="M545.5,148.6v-17l0,0v-19"/>
		<g transform="translate(0, -0.5)">
			<polygon class="st9" points="550,117.6 545.5,111.6 541,117.6 			"/>
		</g>
		<path class="st10" d="M545.5,148.6v-17"/>
		<path class="st10" d="M545.5,131.6L545.5,131.6"/>
		<path class="st10" d="M545.5,131.6v-19"/>
	</g>
	<g id="Link23" transform="translate(0,0)">
		<path class="st8" d="M610.8,70.6h41l0,0h6"/>
		<g transform="translate(0.5, 0)">
			<polygon class="st9" points="652.8,75.1 658.8,70.6 652.8,66.1 			"/>
		</g>
		<path class="st10" d="M610.8,70.6h41"/>
		<path class="st10" d="M651.8,70.6L651.8,70.6"/>
		<path class="st10" d="M651.8,70.6h6"/>
	</g>
	<g id="Link24" transform="translate(0,0)">
		<path class="st8" d="M733.5,94.6v23l0,0v23"/>
		<g transform="translate(0, 0.5)">
			<polygon class="st9" points="729,135.6 733.5,141.6 738,135.6 			"/>
		</g>
		<path class="st10" d="M733.5,94.6v23"/>
		<path class="st10" d="M733.5,117.6L733.5,117.6"/>
		<path class="st10" d="M733.5,117.6v23"/>
	</g>
</g>
<g id="maingroup" transform="translate(0,0)">
	<g id="RectEndPoint1" transform="translate(5,176)">
		<rect x="17" y="-24.9" class="st11" width="113" height="50"/>
		<rect x="15" y="-26.9" class="st12" width="113" height="50"/>
		<g transform="translate(20 9)">
			<g>
				<g>
					<path class="st7" d="M17-21.8c2.2,0,4,1.8,4,4s-1.8,4-4,4s-4-1.8-4-4S14.8-21.8,17-21.8 M17-23.8c-3.3,0-6,2.7-6,6s2.7,6,6,6
						s6-2.7,6-6S20.3-23.8,17-23.8z"/>
					<path class="st7" d="M21-7.8c3.3,0,6,2.7,6,6v1H7v-1c0-3.3,2.7-6,6-6H21 M21-9.8h-8c-4.4,0-8,3.6-8,8v3h24v-3
						C29-6.2,25.4-9.8,21-9.8z"/>
					<path class="st7" d="M30-9.8h-3c0.8,0.6,1.4,1.2,2,2h1c2.2,0,4,1.8,4,4v1h-3c0,0.3,0,0.7,0,1v1h5v-3C36-7.1,33.3-9.8,30-9.8z"
						/>
					<path class="st7" d="M26-22.8c-0.8,0-1.6,0.2-2.3,0.6c0.4,0.6,0.7,1.2,0.9,1.8c1.4-0.8,3.3-0.3,4.1,1.1s0.3,3.3-1.1,4.1
						c-0.9,0.5-2,0.5-3,0c-0.2,0.6-0.5,1.2-0.9,1.8c0.7,0.4,1.5,0.6,2.3,0.6c2.8,0,5-2.2,5-5S28.8-22.8,26-22.8z"/>
				</g>
			</g>
			<g class="st2">
				<path class="st3" d="M46-17c-0.6,1.7-1.3,3-2,4c0.5-0.1,0.9-0.1,1.4-0.2c0.3-0.5,0.5-1.1,0.8-1.8l1.2,0.4c-1.1,2.3-2,4-2.8,5.1
					c0.7-0.2,1.4-0.4,2.1-0.7v1.2c-1.3,0.5-2.5,0.8-3.6,1l-0.4-1.2c0.2-0.1,0.4-0.2,0.6-0.4c0.4-0.5,0.9-1.3,1.5-2.5
					c-0.7,0.1-1.3,0.2-2,0.3l-0.3-1.2c0.2-0.1,0.4-0.2,0.5-0.5c0.7-1.2,1.2-2.6,1.7-4.1L46-17z M47.2-6.2c-1.3,0.5-2.8,0.9-4.4,1.2
					l-0.2-1.4c1.8-0.3,3.3-0.7,4.6-1.1V-6.2z M50.9-17.3c-0.1,0.4-0.2,0.8-0.4,1.1h3.9v1.1c-0.6,1.1-1.2,2.1-2,2.9
					c1,0.6,2,1.2,3.2,1.7l-0.7,1.2c-1.3-0.6-2.4-1.2-3.4-2c-1.1,0.9-2.5,1.7-4,2.2l-0.7-1.2c1.3-0.4,2.5-1,3.6-1.8
					c-0.5-0.4-1-0.9-1.4-1.4c-0.3,0.4-0.7,0.7-1,1.1l-0.8-1.1c1.2-1.1,2-2.4,2.4-3.9L50.9-17.3z M54.6-5.6l-0.7,1.1
					c-2-0.9-4.1-1.6-6.2-2.1l0.8-1.1C50.7-7.1,52.7-6.4,54.6-5.6z M54-8.5l-0.7,1c-1.3-0.6-2.6-1.1-4-1.5l0.7-1
					C51.5-9.5,52.8-9,54-8.5z M52.9-14.9H50c-0.1,0.1-0.2,0.3-0.2,0.4c0.5,0.5,1,1.1,1.6,1.5C51.9-13.6,52.4-14.2,52.9-14.9z"/>
				<path class="st3" d="M61-6.5c-1.3,0.5-2.7,0.9-4.2,1.2l-0.3-1.3c0.8-0.1,1.6-0.3,2.4-0.5c0.3-2,0.5-4.1,0.6-6.3l1.2,0.2
					c-0.2,2.1-0.4,4-0.7,5.8l1-0.3V-6.5z M58.3-15.2c-0.2-0.7-0.4-1.3-0.6-1.8l1.3-0.2c0.2,0.6,0.4,1.3,0.5,2.1h1.5v1.3h-4.5v-1.3
					H58.3z M58.6-7.8l-1.1,0.3c-0.2-1.8-0.4-3.6-0.7-5.4l1.1-0.3C58.2-11.7,58.4-9.9,58.6-7.8z M69.3-12.8v1.2h-3.6
					c-0.1,0.4-0.2,0.7-0.3,1.1H69v4.7c0,0.8-0.3,1.2-1,1.2h-0.6l-0.3-1.2l0.6,0.1c0.1,0,0.2-0.1,0.2-0.3v-3.3h-1v4.5h-1.1v-4.5h-0.9
					v4.5h-1.1v-4.5h-0.9v4.7h-1.2v-5.9h2.5c0.1-0.4,0.2-0.7,0.3-1.1h-3.1v-1.2H69.3z M67.5-16.8h1.3v3.2h-6.9v-3.2h1.3v2h1.5v-2.6
					h1.3v2.6h1.6V-16.8z"/>
				<path class="st3" d="M71.5-4.6l-1-0.9c0.8-1.2,1.3-2.7,1.3-4.6v-6.9h10.7v10.5c0,1-0.5,1.6-1.6,1.6h-1.6L79-6.1
					C79.5-6.1,80-6,80.5-6c0.4,0,0.7-0.3,0.7-0.8V-9h-3.5v4h-1.3v-4h-3.3C72.9-7.2,72.4-5.7,71.5-4.6z M73.2-15.7v2.1h3.2v-2.1H73.2
					z M73.2-10.2h3.2v-2.1h-3.2V-10.2z M81.2-15.7h-3.5v2.1h3.5V-15.7z M81.2-12.3h-3.5v2.1h3.5V-12.3z"/>
				<path class="st3" d="M85.4-4.4l-1-0.9c1.1-1.5,1.6-3.5,1.6-5.9v-4.6h4.5c-0.2-0.5-0.5-1-0.8-1.5l1.4-0.2
					c0.2,0.5,0.5,1.1,0.7,1.7h4.4v5h-9C87.3-8.4,86.6-6.2,85.4-4.4z M87.3-14.5v2.4H95v-2.4H87.3z"/>
			</g>
		</g>
	</g>
	<g id="RectEndPoint2" transform="translate(153,115)">
		<rect x="10" y="-69.9" class="st11" width="109" height="50"/>
		<rect x="8" y="-71.9" class="st12" width="109" height="50"/>
		<g transform="translate(20 9)">
			<g>
				<g>
					<path class="st7" d="M-2-70.8v30h22v-30H-2z M18-42.8H0v-26h18V-42.8z M7-43.8h4v-2H7V-43.8z M18-48.8H0v2h18V-48.8z"/>
				</g>
			</g>
			<g class="st2">
				<path class="st3" d="M31.1-66.5c0.4,0.5,0.7,1.1,0.7,2v4.6h-1.4v-1c-0.3,0.4-0.6,0.7-1.1,0.9c-0.5,0.2-1,0.3-1.7,0.3
					c-0.8,0-1.3-0.2-1.8-0.6c-0.4-0.4-0.7-0.9-0.7-1.6c0-0.9,0.4-1.6,1.1-2c0.6-0.4,1.4-0.6,2.4-0.6l1.6,0v-0.2c0-1-0.5-1.5-1.6-1.5
					c-0.5,0-0.9,0.1-1.2,0.3c-0.3,0.2-0.5,0.5-0.6,1h-1.5c0.1-0.9,0.5-1.5,1.1-1.9c0.5-0.4,1.3-0.5,2.2-0.5
					C29.8-67.3,30.6-67.1,31.1-66.5z M28.7-63.3c-1.4,0-2,0.5-2,1.4c0,0.3,0.1,0.5,0.3,0.7c0.2,0.2,0.5,0.3,0.9,0.3
					c0.7,0,1.2-0.2,1.7-0.6c0.4-0.4,0.6-0.9,0.6-1.5v-0.4L28.7-63.3z"/>
				<path class="st3" d="M39.5-66.2c0.6,0.7,0.8,1.6,0.8,2.7c0,1.1-0.3,1.9-0.8,2.6c-0.6,0.8-1.4,1.1-2.5,1.1
					c-0.9,0-1.6-0.4-2.2-1.3v3.8h-1.5v-10h1.4v0.9c0.5-0.7,1.3-1.1,2.2-1.1C38.1-67.3,38.9-67,39.5-66.2z M35.3-65.4
					c-0.3,0.4-0.5,1.1-0.5,1.8v0.1c0,0.8,0.2,1.4,0.6,1.9c0.3,0.4,0.8,0.7,1.3,0.7c0.7,0,1.3-0.2,1.6-0.7c0.3-0.4,0.5-1.1,0.5-1.9
					s-0.2-1.4-0.4-1.9c-0.4-0.5-0.9-0.8-1.6-0.8C36.2-66.1,35.7-65.9,35.3-65.4z"/>
				<path class="st3" d="M47.9-66.2c0.6,0.7,0.8,1.6,0.8,2.7c0,1.1-0.3,1.9-0.8,2.6c-0.6,0.8-1.4,1.1-2.5,1.1
					c-0.9,0-1.6-0.4-2.2-1.3v3.8h-1.5v-10h1.4v0.9c0.5-0.7,1.3-1.1,2.2-1.1C46.5-67.3,47.3-67,47.9-66.2z M43.7-65.4
					c-0.3,0.4-0.5,1.1-0.5,1.8v0.1c0,0.8,0.2,1.4,0.6,1.9c0.3,0.4,0.8,0.7,1.3,0.7c0.7,0,1.3-0.2,1.6-0.7c0.3-0.4,0.5-1.1,0.5-1.9
					s-0.2-1.4-0.4-1.9c-0.4-0.5-0.9-0.8-1.6-0.8C44.5-66.1,44-65.9,43.7-65.4z"/>
				<path class="st3" d="M55.9-71.4L51-58.5h-1.3l4.9-12.9H55.9z"/>
				<path class="st3" d="M58-67.1l1.5,5.5l1.5-5.5h1.4l1.5,5.5l1.5-5.5h1.6l-2.5,7.2h-1.4l-1.5-5.4l-1.5,5.4h-1.4l-2.5-7.2H58z"/>
				<path class="st3" d="M73.7-66.1c0.6,0.7,0.9,1.7,0.9,3h-5.5c0.1,0.7,0.2,1.2,0.6,1.6c0.3,0.4,0.8,0.6,1.4,0.6
					c0.5,0,0.9-0.1,1.3-0.4c0.3-0.2,0.5-0.5,0.7-0.9h1.5c-0.2,0.7-0.5,1.2-1,1.7c-0.6,0.5-1.4,0.8-2.4,0.8c-1.1,0-1.9-0.3-2.5-1
					c-0.7-0.7-1-1.6-1-2.8c0-1.1,0.3-2,1-2.7c0.6-0.7,1.5-1.1,2.5-1.1C72.2-67.3,73.1-66.9,73.7-66.1z M69.7-65.6
					c-0.3,0.3-0.5,0.8-0.6,1.4h3.9c-0.1-1.3-0.8-1.9-2-1.9C70.5-66.1,70.1-66,69.7-65.6z"/>
				<path class="st3" d="M77.3-70.1v4c0.6-0.9,1.3-1.3,2.2-1.3c1,0,1.8,0.4,2.5,1.1c0.5,0.7,0.8,1.6,0.8,2.6c0,1.1-0.3,2-0.8,2.7
					c-0.6,0.8-1.4,1.1-2.5,1.1c-1,0-1.7-0.4-2.2-1.1v0.9h-1.4v-10.2H77.3z M77.9-65.5c-0.4,0.5-0.6,1.1-0.6,1.9v0.1
					c0,0.7,0.2,1.3,0.5,1.8c0.4,0.5,0.9,0.8,1.5,0.8c0.7,0,1.3-0.3,1.6-0.8c0.3-0.4,0.4-1.1,0.4-1.9c0-0.8-0.2-1.4-0.5-1.8
					c-0.4-0.5-0.9-0.7-1.6-0.7C78.7-66.1,78.2-65.9,77.9-65.5z"/>
				<path class="st3" d="M90-71.4l-4.9,12.9h-1.3l4.9-12.9H90z"/>
				<path class="st3" d="M40.6-49.4c-0.6,2.8-1.5,4.9-2.5,6.3l-1.2-1c1.1-1.5,1.9-3.4,2.4-5.8L40.6-49.4z M40.7-40.6L40.4-42
					c0.7,0.1,1.3,0.1,1.9,0.1c0.5,0,0.8-0.3,0.8-0.8v-10.5h1.4v10.8c0,1.2-0.6,1.8-1.7,1.8H40.7z M50-43.8L48.8-43
					c-0.6-1.9-1.4-4.1-2.4-6.5l1.2-0.8C48.7-47.8,49.5-45.7,50-43.8z"/>
				<path class="st3" d="M53.2-49.7v-1.7c-0.5,0.1-1.1,0.1-1.7,0.2l-0.3-1.2c1.7-0.1,3.3-0.4,4.6-0.9l0.5,1.3
					c-0.6,0.2-1.2,0.3-1.9,0.4v1.9h1.6v1.3h-1.6v0.6c0.6,0.6,1.3,1.2,1.9,1.9l-0.7,1.1c-0.4-0.7-0.8-1.3-1.2-1.8v6h-1.3v-5.8
					c-0.4,1.2-1,2.3-1.7,3.2l-0.6-1.5c1-1.1,1.7-2.4,2.1-3.8h-1.8v-1.3H53.2z M63.6-47.6v1.2h-2.9v1.5h2.5v1.2h-2.5v1.6h3.3v1.3H56
					v-1.3h3.3v-1.6h-2.4v-1.2h2.4v-1.5h-2.8v-1.2H63.6z M63.1-52.9v4.2h-6.1v-4.2H63.1z M61.8-51.7h-3.6v1.9h3.6V-51.7z"/>
				<path class="st3" d="M72.7-52.3h5v1.2H67.5v3.3c-0.1,3.1-0.5,5.5-1.5,7.4l-1-0.9c0.8-1.6,1.1-3.7,1.2-6.5v-4.5h5.2
					c-0.2-0.3-0.3-0.6-0.5-0.9l1.3-0.2C72.4-53.1,72.6-52.8,72.7-52.3z M72.7-47.7c0.7-0.4,1.4-0.9,2-1.4h-5.9v-1.1h7.6v1
					c-0.8,0.9-1.7,1.6-2.7,2.2l0.5,0.3l-0.2,0.2h3.6v1c-0.6,1.1-1.2,2-1.9,2.7l-1-0.8c0.5-0.5,1-1.1,1.5-1.7h-2.8v3.5
					c0,0.9-0.5,1.4-1.4,1.4h-2.1l-0.3-1.3c0.7,0.1,1.3,0.1,1.9,0.1c0.3,0,0.5-0.2,0.5-0.6v-3.2h-4v-1.2h4.6
					c-0.7-0.4-1.5-0.9-2.5-1.4l0.8-0.8C71.5-48.3,72.1-48,72.7-47.7z"/>
			</g>
		</g>
	</g>
	<g id="RectEndPoint3" transform="translate(153,249)">
		<rect x="10" y="9.1" class="st11" width="109" height="50"/>
		<rect x="8" y="7.1" class="st12" width="109" height="50"/>
		<g transform="translate(20 9)">
			<g>
				<g>
					<path class="st7" d="M-2,9.2v30h22v-30L-2,9.2z M18,37.2H0v-26h18V37.2z M7,36.2h4v-2H7V36.2z M18,31.2H0v2h18V31.2z"/>
				</g>
			</g>
			<g class="st2">
				<path class="st3" d="M36.3,18.8c-1.3,0.3-2.7,0.6-4.4,0.8v2h4.3v1.3h-4.3v2h5.4v1.3h-5.4V29c0,0.9-0.5,1.4-1.5,1.4h-2.2L28,29.1
					c0.7,0,1.4,0.1,2,0.1c0.4,0,0.6-0.2,0.6-0.5v-2.5h-5.9v-1.3h5.9v-2h-4.7v-1.3h4.7v-1.9c-1.4,0.1-3,0.2-4.6,0.2l-0.4-1.2
					c4,0,7.4-0.3,10.1-0.9L36.3,18.8z"/>
				<path class="st3" d="M40.7,20.2v-2.6h1.3v2.6h1.6v1.3h-1.6v0.6c0.6,0.6,1.3,1.3,1.9,2.1l-0.8,1.2c-0.4-0.8-0.8-1.4-1.1-1.9v7
					h-1.3v-6.6c-0.4,1.2-1,2.4-1.7,3.4l-0.6-1.4c1-1.3,1.7-2.7,2.2-4.3h-1.9v-1.3H40.7z M44.1,26.9c0.2-0.8,0.3-2,0.3-3.5v-5.3h4.8
					v10.6c0,0.2,0.1,0.3,0.2,0.3h0.4c0.1,0,0.2,0,0.3-0.1c0.1-0.1,0.1-0.2,0.1-0.3c0.1-0.2,0.1-1.1,0.1-2.5l1.2,0.4
					c0,1.1,0,1.8-0.1,2.4c-0.1,0.5-0.2,0.9-0.4,1.1c-0.2,0.2-0.6,0.3-1.1,0.3h-0.6c-1,0-1.5-0.5-1.5-1.4v-9.5h-2.1v4.1
					c0,1.6-0.1,2.9-0.4,4c-0.2,1.1-0.7,2.2-1.3,3.2l-1.1-1C43.4,28.8,43.9,27.9,44.1,26.9z"/>
				<path class="st3" d="M58.6,17.6l-4.9,12.9h-1.3l4.9-12.9H58.6z"/>
				<path class="st3" d="M71.8,30.5h-1.3v-0.6h-8.9v0.6h-1.3V18.1h11.6V30.5z M70.5,28.7v-9.4h-8.9v9.4H70.5z M65.3,21.2v-1.3h1.3
					v1.3h3.2v1.2h-3.2v1.3H69v4H63v-4h2.3v-1.3h-3.2v-1.2H65.3z M67.7,24.8h-3.4v1.8h3.4V24.8z"/>
				<path class="st3" d="M76.8,21.8v6c0.4-0.4,0.9-0.8,1.3-1.2l0.4,1.4c-0.9,0.8-1.8,1.6-2.8,2.2l-0.5-1.2c0.2-0.2,0.4-0.4,0.4-0.7
					V23h-2v-1.3H76.8z M77.7,19.8l-0.9,0.9c-0.6-0.7-1.3-1.4-2.3-2.1l0.9-0.9C76.3,18.4,77.1,19.1,77.7,19.8z M81.7,21.6v-1.9
					c-1,0.1-2,0.1-3.1,0.1l-0.4-1.2c2.8,0,5.2-0.3,7.2-0.9l0.6,1.1c-0.9,0.3-1.9,0.5-3,0.7v2.1h3.5v1.3h-3.5v1.9h2.6v5.7h-1.3v-0.6
					h-4v0.6h-1.3v-5.7h2.6v-1.9H78v-1.3H81.7z M84.4,28.6V26h-4v2.6H84.4z"/>
			</g>
		</g>
	</g>
	<g id="ShadowBasicRect6" transform="translate(297.03607177734375,185)">
		<rect x="32" y="-33.9" class="st11" width="129" height="50"/>
		<rect x="30" y="-35.9" class="st12" width="129" height="50"/>
		<g transform="translate(20 9)">
			<g>
				<title  xmlns="http://www.w3.org/2000/svg">Product Icons【32】</title>
				<g id="_编组_">
					<g id="_编组_2">
						<path id="_复合路径_" class="st13" d="M47-10.9v-24H25v30h22v-2H27v-26h18v22C45-10.9,47-10.9,47-10.9z M34-10.9h4v-2h-4
							V-10.9z M42-25.4c-0.1-3.2-2.8-5.6-6-5.5c-3.2-0.1-5.9,2.3-6,5.5c0,1,0.3,2,0.9,2.9L30-18.9l3.6-1.5c0.8,0.3,1.6,0.5,2.4,0.5
							C39.2-19.8,41.9-22.3,42-25.4z M36-21.9c-0.6,0-1.1-0.1-1.6-0.3l-0.7-0.3L33-22.2l0.2-0.7l-0.5-0.7c-0.4-0.5-0.6-1.1-0.6-1.8
							c0.1-2.1,1.9-3.6,4-3.5c2.1-0.1,3.9,1.4,4,3.5C39.9-23.4,38.1-21.8,36-21.9z"/>
					</g>
				</g>
			</g>
			<g class="st2">
				<path class="st3" d="M64.7-24.6c-0.2-0.4-0.4-0.8-0.6-1.1l1.1-0.4c0.3,0.4,0.5,1,0.7,1.5h0.5c0.2-0.6,0.3-1.2,0.4-1.9l1.3,0.2
					c-0.1,0.6-0.2,1.2-0.4,1.7h0.9c0.3-0.5,0.5-1.1,0.7-1.6l1.2,0.4c-0.2,0.4-0.4,0.8-0.6,1.2h1v1.1h-3.5c-0.1,0.3-0.2,0.6-0.4,0.9
					h4.2v1.1h-2c0.6,0.6,1.3,1,2.3,1.3L71-19c-0.5-0.2-1-0.5-1.4-0.8c-0.1,0.7-0.2,1.3-0.3,1.8h1.5c-0.1,2.4-0.2,3.7-0.5,4
					c-0.3,0.3-0.9,0.4-1.9,0.4h-0.6l-0.3-1.1c0.4,0,0.7,0,1,0c0.4,0,0.7-0.1,0.9-0.2c0.1-0.1,0.2-0.8,0.3-2.1h-5.2
					c0.3-0.8,0.5-1.5,0.6-2.2l1.2,0.1c-0.1,0.4-0.2,0.7-0.3,1h2.2c0.1-0.4,0.2-0.9,0.3-1.4h-3.5v-0.4c-0.4,0.3-0.8,0.6-1.2,0.9
					L63-19.8v5c0,0.8-0.4,1.3-1.3,1.3h-0.9l-0.3-1.2c0.3,0,0.6,0.1,0.8,0.1c0.3,0,0.4-0.2,0.4-0.6v-2.8h-1.3
					c-0.1,1.8-0.4,3.4-0.9,4.6l-1-0.9c0.4-1.2,0.7-2.8,0.7-4.6V-26H63v6c0.7-0.4,1.3-0.9,1.8-1.5h-1.5v-1.1h2.2
					c0.2-0.3,0.3-0.6,0.4-0.9h-2.2v-1.1H64.7z M61.8-24.7h-1.3v2.1h1.3V-24.7z M60.5-19.3h1.3v-2h-1.3V-19.3z M68.6-16.3v1.1h-5.1
					v-1.1H68.6z M68.8-20.4c-0.4-0.3-0.6-0.7-0.9-1.1h-1.6c-0.3,0.4-0.5,0.7-0.8,1.1H68.8z"/>
				<path class="st3" d="M75.7-22.2v5.9c0.4-0.3,0.8-0.7,1.2-1.2l0.4,1.4c-0.8,0.8-1.8,1.6-2.7,2.2L74-15.1c0.2-0.2,0.4-0.5,0.4-0.8
					V-21h-1.8v-1.3H75.7z M76.6-24.2l-0.9,0.9c-0.5-0.7-1.3-1.4-2.2-2.1l0.9-0.9C75.2-25.6,76-24.9,76.6-24.2z M78.7-21v-3.5H77
					v-1.3h6.6v4.4c0,2.7,0.2,4.5,0.5,5.5c0.1,0.4,0.3,0.7,0.4,0.7c0,0,0.1-0.2,0.1-0.6c0-0.4,0.1-0.9,0.1-1.4l1,0.5
					c-0.1,1.4-0.2,2.2-0.4,2.6c-0.1,0.3-0.3,0.4-0.5,0.4c-0.6,0-1.1-0.3-1.5-1c-0.7-1.1-1-3.4-1-6.8v-3.2H80v3.5h1.8v1.3H80v6.3
					h-1.3v-6.3h-2V-21H78.7z"/>
				<path class="st3" d="M93.4-13.8c-0.9,0-1.7-0.1-2.2-0.2c-0.6-0.2-1.1-0.5-1.5-1c-0.2-0.2-0.4-0.4-0.5-0.4
					c-0.3,0-0.8,0.6-1.5,1.9l-1-0.9c0.7-1.1,1.3-1.8,1.9-2.1v-4h-1.9v-1.2h3.1v5.3c0.1,0.1,0.1,0.1,0.2,0.2c0.3,0.4,0.7,0.7,1,0.8
					c0.4,0.2,1,0.3,1.9,0.4c0.8,0,1.7,0,2.8,0c0.7,0,1.4,0,2.1,0s1.2,0,1.6-0.1l-0.3,1.3h-3.2C95.2-13.7,94.3-13.7,93.4-13.8z
					 M90.3-24.1l-0.9,0.9c-0.6-0.7-1.3-1.5-2.4-2.3l0.9-0.9C88.8-25.5,89.6-24.8,90.3-24.1z M90.8-24.9V-26h7.7v0.9
					c-0.8,0.7-1.7,1.3-2.6,1.8c0,0,0.1,0,0.1,0.1h2.8v6.2c0,0.8-0.5,1.2-1.4,1.2h-1.1l-0.3-1.1l1,0.1c0.3,0,0.5-0.2,0.5-0.5V-18h-2
					v2.3h-1.2V-18h-2v2.3h-1.3v-7.6h3.2c-0.5-0.3-1-0.6-1.6-0.9l0.8-0.8H90.8z M94.3-22.1h-2v1h2V-22.1z M92.3-19h2v-1h-2V-19z
					 M96.7-24.9h-3.1c0.5,0.3,1,0.7,1.5,1C95.7-24.2,96.2-24.5,96.7-24.9z M97.5-22.1h-2v1h2V-22.1z M95.5-19h2v-1h-2V-19z"/>
				<path class="st3" d="M100.8-19.4l-0.4-1.4c1.3-1.6,2.3-3.5,2.9-5.7l1.2,0.6c-0.3,1-0.7,2-1.2,3v9.5H102v-7.4
					C101.6-20.4,101.3-19.9,100.8-19.4z M108.4-24.7c-0.2-0.5-0.4-0.9-0.6-1.4l1.3-0.4c0.3,0.6,0.5,1.2,0.7,1.7h3.8v1.2h-9.2v-1.2
					H108.4z M112.6-13.5h-1.3v-0.7h-4.8v0.7h-1.3v-5.1h7.3V-13.5z M112.3-22.6v1.2h-6.7v-1.2H112.3z M112.3-20.7v1.2h-6.7v-1.2
					H112.3z M111.3-15.5v-1.9h-4.8v1.9H111.3z"/>
				<path class="st3" d="M127.3-21.8v1.3h-6.6c-1.2,2.4-2.3,4.1-3.2,5.2c2.3-0.1,4.6-0.4,6.9-0.7c-0.4-0.8-0.9-1.6-1.5-2.5l1.1-0.7
					c1.3,1.9,2.3,3.5,3,4.9l-1.2,0.8c-0.2-0.5-0.4-1-0.7-1.4c-2.8,0.4-5.9,0.7-9.2,0.9l-0.3-1.4c0.1,0,0.3-0.1,0.3-0.1
					c0.9-0.6,2-2.4,3.4-5.1h-4.5v-1.3H127.3z M126.1-25.7v1.3H116v-1.3H126.1z"/>
			</g>
		</g>
	</g>
	<g id="ShadowBasicRect7" transform="translate(478.4819641113281,185)">
		<rect x="14" y="-33.9" class="st11" width="122" height="50"/>
		<rect x="12" y="-35.9" class="st12" width="122" height="50"/>
		<g transform="translate(20 9)">
			<g class="st2">
				<path class="st3" d="M45.3-21.8v1.3h-6.6c-1.2,2.4-2.3,4.1-3.2,5.2c2.3-0.1,4.6-0.4,6.9-0.7c-0.4-0.8-0.9-1.6-1.5-2.5l1.1-0.7
					c1.3,1.9,2.3,3.5,3,4.9l-1.2,0.8c-0.2-0.5-0.4-1-0.7-1.4c-2.8,0.4-5.9,0.7-9.2,0.9l-0.3-1.4c0.1,0,0.3-0.1,0.3-0.1
					c0.9-0.6,2-2.4,3.4-5.1h-4.5v-1.3H45.3z M44.1-25.7v1.3H34v-1.3H44.1z"/>
				<path class="st3" d="M48.3-14.6H47v-10.8h3.8v10.4h-1.3v-0.8h-1.3V-14.6z M49.6-24.1h-1.3v7.2h1.3V-24.1z M52.9-13.5l-0.3-1.3
					c0.5,0.1,0.9,0.1,1.3,0.1c0.4,0,0.7-0.2,0.7-0.6v-3.2h-3.4v-1.3h3.4v-4.7c-0.9,0.1-1.9,0.2-2.9,0.2l-0.4-1.1
					c2.9-0.2,5.3-0.5,7.1-1l0.6,1.1c-1,0.3-2.1,0.5-3.2,0.6v4.8h3.4v1.3H56v3.6c0,0.9-0.5,1.4-1.5,1.4H52.9z M53.9-20.6l-1.2,0.3
					c-0.3-1-0.6-2-1-2.9l1.2-0.4C53.3-22.7,53.6-21.7,53.9-20.6z M59.2-23.7c-0.3,1.3-0.7,2.4-1.2,3.4l-1.2-0.4
					c0.4-0.9,0.8-2,1.2-3.3L59.2-23.7z"/>
				<path class="st3" d="M65.4-15.1H64v-0.6h-1.7v0.9H61v-10.5h4.4V-15.1z M64-17v-7.1h-1.7v7.1H64z M72.6-26.4v12.9h-1.3v-3.6
					c-1.4,0.4-2.9,0.8-4.4,1.2l-0.4-1.2c0.3-0.1,0.5-0.3,0.5-0.6v-7.7h1.4v7.8c1-0.3,1.9-0.5,2.9-0.8v-7.9H72.6z"/>
				<path class="st3" d="M81.7-26.5v2.4h5v6.8h-1.3v-0.8h-3.7v4.7h-1.4v-4.7h-3.6v0.8h-1.3v-6.8h5v-2.4H81.7z M80.3-19.4v-3.4h-3.6
					v3.4H80.3z M85.3-19.4v-3.4h-3.7v3.4H85.3z"/>
				<path class="st3" d="M91.3-21.8c-0.4,2.5-0.9,4.7-1.6,6.5l-1.1-0.7c0.7-1.9,1.2-3.9,1.5-6L91.3-21.8z M93.7-14
					c-1.1,0-1.6-0.5-1.6-1.6v-7.9h1.3v7.6c0,0.4,0.2,0.6,0.7,0.6h2.5c0.3,0,0.5-0.1,0.6-0.4c0.1-0.3,0.3-1.2,0.3-2.8l1.3,0.4
					c-0.1,2-0.3,3.2-0.6,3.6c-0.3,0.4-0.7,0.5-1.3,0.5H93.7z M97.3-22.7L96.2-22c-0.7-1.1-1.6-2.4-2.8-3.8l1.1-0.7
					C95.6-25,96.6-23.8,97.3-22.7z M101.6-16.5l-1.2,0.5c-0.7-2.3-1.4-4.3-2.2-6.1l1.3-0.4C100.2-20.6,100.9-18.6,101.6-16.5z"/>
			</g>
			<g>
				<g id="XMLID_1_">
					<g>
						<g>
							<path class="st13" d="M18.5-10.8v-2h-4v2H18.5z M27.5-10.8v-24h-22v30h22v-2h-2l0,0h-18v-26h18v22H27.5z"/>
						</g>
					</g>
				</g>
			</g>
			<g>
				<path class="st13" d="M22.3-19.8H10.8l5.7-9.9L22.3-19.8z M14.3-21.8h4.5l-2.3-3.9L14.3-21.8z"/>
			</g>
			<g>
				<circle class="st13" cx="16.5" cy="-27.8" r="2"/>
			</g>
			<g>
				<circle class="st13" cx="20.5" cy="-20.8" r="2"/>
			</g>
			<g>
				<circle class="st13" cx="12.5" cy="-20.8" r="2"/>
			</g>
		</g>
	</g>
	<g id="Rects8" transform="translate(469.9819641113281,65)">
		<rect x="-1" y="-21.9" class="st14" width="142" height="62"/>
		<rect x="11" y="-9.9" class="st11" width="130" height="50"/>
		<rect x="9" y="-11.9" class="st12" width="130" height="50"/>
		<rect x="6" y="-14.9" class="st11" width="130" height="50"/>
		<rect x="4" y="-16.9" class="st12" width="130" height="50"/>
		<rect x="1" y="-19.9" class="st11" width="130" height="50"/>
		<rect x="-1" y="-21.9" class="st12" width="130" height="50"/>
		<g transform="translate(20 9)">
			<g>
				<path class="st13" d="M7,7.1c-7.2,0-13-5.8-13-13s5.8-13,13-13c6.4,0,11.9,4.7,12.9,11h2c-1.1-8.2-8.7-14-16.9-12.9
					S-9-12.1-7.9-3.9S0.8,10,9,8.9C15.7,8,20.9,2.8,21.8-3.9h-2C18.8,2.4,13.4,7.1,7,7.1z M14-9.9l-7-4l-7,4v8l3.2,1.8
					c0.2-0.6,0.5-1.2,1-1.7L2-3.1v-3.7l5,2.9l5-2.9v3.7L7.9-0.7c-1-0.5-2.2-0.1-2.7,0.9S5.1,2.4,6.1,2.9S8.3,3,8.8,2
					C8.9,1.7,9,1.4,9,1.1V0.9L14-2V-9.9z M7-6.2L2.3-8.9L7-11.6l4.7,2.7L7-6.2z"/>
			</g>
			<g class="st2">
				<path class="st3" d="M46.3-7.8v1.3h-6.6c-1.2,2.4-2.3,4.1-3.2,5.2c2.3-0.1,4.6-0.4,6.9-0.7c-0.4-0.8-0.9-1.6-1.5-2.5L43-5.2
					c1.3,1.9,2.3,3.5,3,4.9l-1.2,0.8c-0.2-0.5-0.4-1-0.7-1.4c-2.8,0.4-5.9,0.7-9.2,0.9l-0.3-1.4c0.1,0,0.3-0.1,0.3-0.1
					c0.9-0.6,2-2.4,3.4-5.1h-4.5v-1.3H46.3z M45.1-11.7v1.3H35v-1.3H45.1z"/>
				<path class="st3" d="M48.7,0.5l-1-0.9c0.6-1.2,0.8-2.8,0.9-4.7v-6.9h4.4v11c0,1-0.4,1.4-1.3,1.4h-1.1l-0.3-1.2
					c0.4,0,0.7,0.1,1.1,0.1c0.3,0,0.4-0.3,0.4-0.8v-2.8h-2C49.6-2.3,49.2-0.7,48.7,0.5z M51.7-10.7h-2v2.1h2V-10.7z M49.7-5.4h2v-2
					h-2V-5.4z M55.1,0.5h-1.2v-12.4h5.9c0,1.8-0.1,3-0.3,3.6c-0.2,0.6-0.7,0.9-1.6,0.9h-1.2l-0.4-1.1c0.2,0,0.5,0,0.9,0
					c0.3,0,0.5,0,0.7-0.1c0.1,0,0.3-0.2,0.3-0.4c0.1-0.2,0.1-0.8,0.2-1.8h-3.4v4h4.7v1.1c-0.3,1.4-0.7,2.5-1.3,3.5
					c0.6,0.5,1.2,1,2,1.5l-0.7,1.1c-0.8-0.5-1.5-1-2.1-1.6c-0.6,0.6-1.3,1.2-2,1.6l-0.7-1V0.5z M55.1-0.6c0.7-0.4,1.3-0.9,1.9-1.5
					c-0.8-1-1.4-2.2-1.7-3.5h-0.2V-0.6z M57.6-3.1c0.4-0.7,0.7-1.6,1-2.5h-2.2C56.7-4.7,57.1-3.9,57.6-3.1z"/>
				<path class="st3" d="M67-12.3c-0.1,0.3-0.3,0.7-0.5,1h6v1.1c-0.8,1-1.9,1.8-3.1,2.5c1.5,0.6,3.2,0.9,5,1.1l-0.6,1.2
					C71.7-5.6,69.8-6.2,68-7c-1.7,0.8-3.6,1.3-5.9,1.6l-0.6-1.2c1.9-0.2,3.6-0.6,5-1.2c-0.7-0.4-1.3-0.8-1.9-1.3
					c-0.5,0.4-1,0.8-1.6,1.1L62.3-9c1.6-0.9,2.7-2.1,3.3-3.4L67-12.3z M68.3-6.1c0,0.5,0,1-0.1,1.4H73c0,2.5-0.2,3.9-0.6,4.4
					c-0.4,0.5-1.1,0.7-2.1,0.7c-0.5,0-1.1,0-1.7-0.1l-0.3-1.2c0.7,0,1.3,0.1,1.8,0.1c0.7,0,1.2-0.2,1.3-0.4c0.2-0.3,0.3-1.1,0.3-2.3
					h-3.8c-0.1,0.3-0.3,0.7-0.4,1c-0.7,1.3-2.3,2.3-4.9,3.1l-0.9-1.1C63.9-1.2,65.4-2,66.1-3c0.1-0.2,0.2-0.4,0.3-0.5h-3.9v-1.2h4.3
					C66.9-5.2,67-5.6,67-6.1H68.3z M70.6-10.1h-4.9c0,0-0.1,0.1-0.1,0.1c0.7,0.6,1.5,1.1,2.4,1.6C69-8.9,69.8-9.4,70.6-10.1z"/>
				<path class="st3" d="M87.3-12v3.6h-1.7c0.3,0.4,0.5,0.7,0.7,1.1h1.9V-6h-3.5c0.9,0.7,2.1,1.2,3.7,1.7L88-3.2
					c-0.3-0.1-0.5-0.2-0.8-0.3v4H86V0h-2.3v0.5h-1.2v-4.6h3.3c-1.1-0.6-2-1.2-2.6-1.9H81c-0.7,0.8-1.6,1.4-2.7,1.9h3.1v4.6h-1.2V0
					h-2v0.5h-1.2v-4c-0.3,0.1-0.6,0.2-0.9,0.3l-0.6-1.1c1.6-0.4,2.8-1,3.7-1.7h-3.5v-1.2h4.7c0.2-0.3,0.4-0.7,0.6-1L82.3-8
					c-0.1,0.3-0.3,0.6-0.4,0.9H85c-0.2-0.3-0.4-0.6-0.5-0.8l1-0.3h-2.9V-12H87.3z M81.4-12v3.6h-4.5V-12H81.4z M80.2-10.8h-2.1v1.4
					h2.1V-10.8z M80.3-1.2V-3h-2v1.8H80.3z M86-1.2V-3h-2.3v1.8H86z M86.1-10.8h-2.2v1.4h2.2V-10.8z"/>
				<path class="st3" d="M93.4-12C92.7-10.4,92-9,91.3-8c0.5-0.1,1.1-0.1,1.6-0.2c0.3-0.5,0.6-1,0.9-1.6L95-9.4
					c-1.2,2.2-2.3,3.8-3.1,4.8c0.9-0.2,1.8-0.5,2.8-0.9v1.2c-1.6,0.6-3.1,1-4.5,1.2l-0.3-1.2c0.2-0.1,0.4-0.2,0.6-0.4
					c0.5-0.5,1-1.2,1.7-2.4c-0.7,0.1-1.5,0.2-2.2,0.3l-0.3-1.2C89.8-8,90-8.2,90.2-8.4c0.8-1.2,1.4-2.5,2-4L93.4-12z M94.6-1.7
					C93.2-1,91.7-0.5,90-0.1l-0.2-1.3c1.8-0.4,3.4-0.9,4.7-1.5V-1.7z M101.3-1.3h1.1V0h-8.2v-1.3h1.1v-10.5h5.9V-1.3z M100-8.3v-2.2
					h-3.3v2.2H100z M100-4.8v-2.3h-3.3v2.3H100z M100-1.3v-2.3h-3.3v2.3H100z"/>
			</g>
		</g>
	</g>
	<g id="RectEndPoint13" transform="translate(659,249)">
		<rect x="10" y="8.1" class="st11" width="136" height="50"/>
		<rect x="8" y="6.1" class="st12" width="136" height="50"/>
		<g transform="translate(20 9)">
			<g>
				<g>
					<path class="st7" d="M-3,7.2v30h22v-30L-3,7.2z M17,35.2H-1v-26h18V35.2z M6,34.2h4v-2H6V34.2z M17,29.2H-1v2h18V29.2z"/>
				</g>
			</g>
			<g class="st2">
				<path class="st3" d="M38.3,16.8c-1.3,0.3-2.7,0.6-4.4,0.8v2h4.3v1.3h-4.3v2h5.4v1.3h-5.4V27c0,0.9-0.5,1.4-1.5,1.4h-2.2L30,27.1
					c0.7,0,1.4,0.1,2,0.1c0.4,0,0.6-0.2,0.6-0.5v-2.5h-5.9v-1.3h5.9v-2h-4.7v-1.3h4.7v-1.9c-1.4,0.1-3,0.2-4.6,0.2l-0.4-1.2
					c4,0,7.4-0.3,10.1-0.9L38.3,16.8z"/>
				<path class="st3" d="M42.7,18.2v-2.6h1.3v2.6h1.6v1.3h-1.6v0.6c0.6,0.6,1.3,1.3,1.9,2.1l-0.8,1.2c-0.4-0.8-0.8-1.4-1.1-1.9v7
					h-1.3v-6.6c-0.4,1.2-1,2.4-1.7,3.4l-0.6-1.4c1-1.3,1.7-2.7,2.2-4.3h-1.9v-1.3H42.7z M46.1,24.9c0.2-0.8,0.3-2,0.3-3.5v-5.3h4.8
					v10.6c0,0.2,0.1,0.3,0.2,0.3h0.4c0.1,0,0.2,0,0.3-0.1c0.1-0.1,0.1-0.2,0.1-0.3c0.1-0.2,0.1-1.1,0.1-2.5l1.2,0.4
					c0,1.1,0,1.8-0.1,2.4c-0.1,0.5-0.2,0.9-0.4,1.1c-0.2,0.2-0.6,0.3-1.1,0.3h-0.6c-1,0-1.5-0.5-1.5-1.4v-9.5h-2.1v4.1
					c0,1.6-0.1,2.9-0.4,4c-0.2,1.1-0.7,2.2-1.3,3.2l-1.1-1C45.4,26.8,45.9,25.9,46.1,24.9z"/>
				<path class="st3" d="M60.6,15.6l-4.9,12.9h-1.3l4.9-12.9H60.6z"/>
				<path class="st3" d="M73.8,28.5h-1.3v-0.6h-8.9v0.6h-1.3V16.1h11.6V28.5z M72.5,26.7v-9.4h-8.9v9.4H72.5z M67.3,19.2v-1.3h1.3
					v1.3h3.2v1.2h-3.2v1.3H71v4H65v-4h2.3v-1.3h-3.2v-1.2H67.3z M69.7,22.8h-3.4v1.8h3.4V22.8z"/>
				<path class="st3" d="M78.8,19.8v6c0.4-0.4,0.9-0.8,1.3-1.2l0.3,1.4c-0.9,0.8-1.8,1.6-2.8,2.2l-0.5-1.2c0.2-0.2,0.4-0.4,0.4-0.7
					V21h-2v-1.3H78.8z M79.7,17.8l-0.9,0.9c-0.6-0.7-1.3-1.4-2.3-2.1l0.9-0.9C78.3,16.4,79.1,17.1,79.7,17.8z M83.7,19.6v-1.9
					c-1,0.1-2,0.1-3.1,0.1l-0.4-1.2c2.8,0,5.2-0.3,7.2-0.9l0.6,1.1c-0.9,0.3-1.9,0.5-3,0.7v2.1h3.5v1.3h-3.5v1.9h2.6v5.7h-1.3v-0.6
					h-4v0.6h-1.3v-5.7h2.6v-1.9H80v-1.3H83.7z M86.4,26.6V24h-4v2.6H86.4z"/>
				<path class="st3" d="M93.6,16.8c-0.2,0.8-0.4,1.6-0.7,2.4c0.7,0.7,1.4,1.4,2.1,2.2l-0.8,1.2c-0.7-1.1-1.3-1.9-1.8-2.4
					c-0.5,1-1.2,1.9-1.9,2.6l-0.8-1c1.3-1.3,2.2-3,2.7-5.1L93.6,16.8z M95.3,23.2v-7.5h1.3v7.5h4.7v1.2h-4.7v2.3h5.4V28H90v-1.3h5.4
					v-2.3h-4.7v-1.2H95.3z M97.8,22.5l-0.9-1c1.1-1.2,1.8-2.8,2.2-4.8l1.3,0.2c-0.2,0.9-0.4,1.6-0.6,2.3c0.8,0.6,1.5,1.3,2.3,2.1
					l-0.8,1.2c-0.8-1-1.4-1.8-1.9-2.3C98.9,21.1,98.4,21.8,97.8,22.5z"/>
				<path class="st3" d="M106,21.1c-0.1,3.1-0.5,5.5-1.5,7.4l-1-0.9c0.8-1.5,1.2-3.7,1.2-6.5v-4.6h5.3c-0.2-0.3-0.3-0.6-0.5-0.9
					l1.4-0.2c0.2,0.3,0.3,0.7,0.4,1.1h4.7v1.3H106v1.3h2.1v-0.9h1.3v0.9h3.3v-1h1.3v1h2.1v1.2H114v2.2h-2.3v0.9h3.8v2.8
					c0,0.9-0.4,1.4-1.3,1.4H113l-0.3-1.2l1,0.1c0.3,0,0.5-0.2,0.5-0.5v-1.4h-2.5v3.9h-1.3v-3.9H108v3.1h-1.3v-4.3h3.6v-0.9h-2.3
					v-2.2H106V21.1z M109.4,21.4h3.3v-1.1h-3.3V21.4z"/>
			</g>
		</g>
	</g>
	<g id="Rects21" transform="translate(652,71)">
		<rect x="14" y="-27.9" class="st14" width="140" height="62"/>
		<rect x="26" y="-15.9" class="st11" width="128" height="50"/>
		<rect x="24" y="-17.9" class="st12" width="128" height="50"/>
		<rect x="21" y="-20.9" class="st11" width="128" height="50"/>
		<rect x="19" y="-22.9" class="st12" width="128" height="50"/>
		<rect x="16" y="-25.9" class="st11" width="128" height="50"/>
		<rect x="14" y="-27.9" class="st12" width="128" height="50"/>
		<g transform="translate(20 9)">
			<g class="st2">
				<path class="st3" d="M24.2-19.4c1.8,1.9,3.8,3.4,6.1,4.5l-0.7,1.3c-2.3-1.2-4.2-2.7-5.8-4.6c-1.5,1.8-3.5,3.3-5.9,4.6l-0.7-1.3
					c2.5-1.2,4.5-2.7,6.1-4.5H24.2z M24.8-15.6v3h3.7v1.3h-3.7v3.1h4.7V-7H17.7v-1.3h2v-5.3h1.3v5.3h2.4v-7.4H24.8z"/>
				<path class="st3" d="M36.8-19.3v11h1.7v-11h1.3v11h4.1V-7H31.5v-1.3h4.1v-11H36.8z M34.8-10.3L33.6-10c-0.5-2.2-1.1-4.3-1.8-6.4
					l1.1-0.4C33.6-14.9,34.2-12.7,34.8-10.3z M43.7-16.4c-0.5,2.4-1.2,4.5-2.1,6.3l-1.2-0.4c0.8-1.6,1.5-3.7,2.1-6.2L43.7-16.4z"/>
				<path class="st3" d="M49.7-8.5C48.4-8,47-7.6,45.6-7.3l-0.3-1.3c0.8-0.1,1.6-0.3,2.4-0.5c0.3-2,0.5-4.1,0.6-6.3l1.2,0.2
					c-0.2,2.1-0.4,4-0.7,5.8l1-0.3V-8.5z M47-17.2c-0.2-0.7-0.4-1.3-0.6-1.8l1.3-0.2c0.2,0.6,0.4,1.3,0.5,2.1h1.5v1.3h-4.5v-1.3H47z
					 M47.3-9.8l-1.1,0.3c-0.2-1.8-0.4-3.6-0.7-5.4l1.1-0.3C46.9-13.7,47.1-11.9,47.3-9.8z M58-14.8v1.2h-3.6
					c-0.1,0.4-0.2,0.7-0.3,1.1h3.6v4.7c0,0.8-0.3,1.2-1,1.2h-0.6l-0.3-1.2l0.6,0.1c0.1,0,0.2-0.1,0.2-0.3v-3.3h-1v4.5h-1.1v-4.5
					h-0.9v4.5h-1.1v-4.5h-0.9v4.7h-1.2v-5.9h2.5c0.1-0.4,0.2-0.7,0.3-1.1H50v-1.2H58z M56.2-18.8h1.3v3.2h-6.9v-3.2h1.3v2h1.5v-2.6
					h1.3v2.6h1.6V-18.8z"/>
				<path class="st3" d="M60.4-6.5l-1-0.9c0.6-1.2,0.8-2.8,0.9-4.7v-6.9h4.4v11c0,1-0.4,1.4-1.3,1.4h-1.1l-0.3-1.2
					c0.4,0,0.7,0.1,1.1,0.1c0.3,0,0.4-0.3,0.4-0.8v-2.8h-2C61.3-9.3,60.9-7.7,60.4-6.5z M63.3-17.7h-2v2.1h2V-17.7z M61.4-12.4h2v-2
					h-2V-12.4z M66.8-6.5h-1.2v-12.4h5.9c0,1.8-0.1,3-0.3,3.6c-0.2,0.6-0.7,0.9-1.6,0.9h-1.2L68-15.5c0.2,0,0.5,0,0.9,0
					c0.3,0,0.5,0,0.7-0.1c0.1,0,0.3-0.2,0.3-0.4c0.1-0.2,0.1-0.8,0.2-1.8h-3.4v4h4.7v1.1c-0.3,1.4-0.7,2.5-1.3,3.5
					c0.6,0.5,1.2,1,2,1.5l-0.7,1.1c-0.8-0.5-1.5-1-2.1-1.6c-0.6,0.6-1.3,1.2-2,1.6l-0.7-1V-6.5z M66.8-7.6c0.7-0.4,1.3-0.9,1.9-1.5
					c-0.8-1-1.4-2.2-1.7-3.5h-0.2V-7.6z M69.3-10.1c0.4-0.7,0.7-1.6,1-2.5h-2.2C68.3-11.7,68.8-10.9,69.3-10.1z"/>
				<path class="st3" d="M78.7-19.3c-0.1,0.3-0.3,0.7-0.5,1h6v1.1c-0.8,1-1.9,1.8-3.1,2.5c1.5,0.6,3.2,0.9,5,1.1l-0.6,1.2
					c-2.2-0.3-4.1-0.8-5.9-1.6c-1.7,0.8-3.6,1.3-5.9,1.6l-0.6-1.2c1.9-0.2,3.6-0.6,5-1.2c-0.7-0.4-1.3-0.8-1.9-1.3
					c-0.5,0.4-1,0.8-1.6,1.1L74-16c1.6-0.9,2.7-2.1,3.3-3.4L78.7-19.3z M80-13.1c0,0.5,0,1-0.1,1.4h4.8c0,2.5-0.2,3.9-0.6,4.4
					C83.7-6.8,83-6.6,82-6.6c-0.5,0-1.1,0-1.7-0.1L80-7.9c0.7,0,1.3,0.1,1.8,0.1c0.7,0,1.2-0.2,1.3-0.4c0.2-0.3,0.3-1.1,0.3-2.3
					h-3.8c-0.1,0.3-0.3,0.7-0.4,1c-0.7,1.3-2.3,2.3-4.9,3.1l-0.9-1.1c2.3-0.7,3.8-1.5,4.5-2.5c0.1-0.2,0.2-0.4,0.3-0.5h-3.9v-1.2
					h4.3c0.1-0.4,0.1-0.9,0.1-1.4H80z M82.3-17.1h-4.9c0,0-0.1,0.1-0.1,0.1c0.7,0.6,1.5,1.1,2.4,1.6C80.7-15.9,81.5-16.4,82.3-17.1z
					"/>
				<path class="st3" d="M99-19v3.6h-1.7c0.3,0.4,0.5,0.7,0.7,1.1h1.9v1.2h-3.5c0.9,0.7,2.1,1.2,3.7,1.7l-0.5,1.1
					c-0.3-0.1-0.5-0.2-0.8-0.3v4h-1.2V-7h-2.3v0.5h-1.2v-4.6h3.3c-1.1-0.6-2-1.2-2.6-1.9h-2.3c-0.7,0.8-1.6,1.4-2.7,1.9h3.1v4.6H92
					V-7h-2v0.5h-1.2v-4c-0.3,0.1-0.6,0.2-0.9,0.3l-0.6-1.1c1.6-0.4,2.8-1,3.7-1.7h-3.5v-1.2h4.7c0.2-0.3,0.4-0.7,0.6-1L94-15
					c-0.1,0.3-0.3,0.6-0.4,0.9h3.1c-0.2-0.3-0.4-0.6-0.5-0.8l1-0.3h-2.9V-19H99z M93.1-19v3.6h-4.5V-19H93.1z M91.9-17.8h-2.1v1.4
					h2.1V-17.8z M92-8.2V-10h-2v1.8H92z M97.7-8.2V-10h-2.3v1.8H97.7z M97.8-17.8h-2.2v1.4h2.2V-17.8z"/>
			</g>
		</g>
	</g>
	<g id="RectEndPoint22" transform="translate(681.6977233886719,176)">
		<rect x="-12.7" y="-24.9" class="st11" width="129.6" height="50"/>
		<rect x="-14.7" y="-26.9" class="st12" width="129.6" height="50"/>
		<g transform="translate(20 9)">
			<g>
				<g>
					<path class="st7" d="M17.3-14.8v8h-26v-8H17.3 M19.3-16.8h-30v12h30V-16.8z"/>
					<polygon class="st7" points="-4.7,-11.8 -6.7,-11.8 -6.7,-9.8 -4.7,-9.8 					"/>
					<polygon class="st7" points="-1.7,-11.8 -3.7,-11.8 -3.7,-9.8 -1.7,-9.8 					"/>
					<polygon class="st7" points="1.3,-11.8 -0.7,-11.8 -0.7,-9.8 1.3,-9.8 					"/>
				</g>
			</g>
			<g class="st2">
				<path class="st3" d="M32.8-15.9v10h-1.5v-10H32.8z"/>
				<path class="st3" d="M39-15.9c2.4,0,3.6,1,3.6,3c0,2-1.2,3.1-3.6,3.1h-2.6v3.9h-1.5v-10H39z M36.3-11.1h2.5
					c0.8,0,1.3-0.1,1.7-0.4c0.3-0.3,0.5-0.7,0.5-1.3s-0.2-1.1-0.5-1.3c-0.3-0.3-0.9-0.4-1.6-0.4h-2.5V-11.1z"/>
				<path class="st3" d="M47.6-16.2c-0.2,0.8-0.4,1.6-0.7,2.4c0.7,0.7,1.4,1.4,2.1,2.2l-0.8,1.2c-0.7-1.1-1.3-1.9-1.8-2.4
					c-0.5,1-1.2,1.9-1.9,2.6l-0.8-1c1.3-1.3,2.2-3,2.7-5.1L47.6-16.2z M49.3-9.8v-7.5h1.3v7.5h4.7v1.2h-4.7v2.3H56V-5H43.9v-1.3h5.4
					v-2.3h-4.7v-1.2H49.3z M51.8-10.5l-0.9-1c1.1-1.2,1.8-2.8,2.2-4.8l1.3,0.2c-0.2,0.9-0.4,1.6-0.6,2.3c0.8,0.6,1.5,1.3,2.3,2.1
					l-0.8,1.2c-0.8-1-1.4-1.8-1.9-2.3C52.9-11.9,52.4-11.2,51.8-10.5z"/>
				<path class="st3" d="M60-11.9c-0.1,3.1-0.5,5.5-1.5,7.4l-1-0.9c0.8-1.5,1.2-3.7,1.2-6.5v-4.6h5.3c-0.2-0.3-0.3-0.6-0.5-0.9
					l1.4-0.2c0.2,0.3,0.3,0.7,0.4,1.1H70v1.3H60v1.3h2.1v-0.9h1.3v0.9h3.3v-1h1.3v1H70v1.2h-2.1v2.2h-2.3v0.9h3.8v2.8
					c0,0.9-0.4,1.4-1.3,1.4H67l-0.3-1.2l1,0.1c0.3,0,0.5-0.2,0.5-0.5v-1.4h-2.5v3.9h-1.3v-3.9H62v3.1h-1.3v-4.3h3.6v-0.9h-2.3v-2.2
					H60V-11.9z M63.3-11.6h3.3v-1.1h-3.3V-11.6z"/>
			</g>
		</g>
	</g>
</g>
<g id="textgroup" transform="translate(0,0)">
</g>
<g id="assistantgroup" transform="translate(0,0)">
</g>
<g class="st2">
	<path class="st7" d="M322.5,291.6c2,0,3,0.8,3,2.5c0,1.7-1,2.5-3,2.5H320v3.5h-1v-8.6H322.5z M320,295.8h2.5c0.7,0,1.2-0.1,1.5-0.4
		c0.3-0.3,0.5-0.7,0.5-1.3c0-0.6-0.2-1-0.5-1.2c-0.3-0.3-0.8-0.4-1.5-0.4H320V295.8z"/>
	<path class="st7" d="M331.9,292.1c0.6,0.5,0.9,1.1,1,2h-1c-0.1-0.6-0.3-1.1-0.7-1.4c-0.4-0.3-0.9-0.5-1.6-0.5
		c-0.6,0-1.1,0.1-1.5,0.3c-0.4,0.2-0.6,0.6-0.6,1.1c0,0.4,0.2,0.8,0.7,1c0.2,0.1,0.7,0.3,1.6,0.5c1.1,0.3,1.9,0.6,2.2,0.8
		c0.7,0.4,1.1,1,1.1,1.8c0,0.7-0.3,1.3-0.9,1.8c-0.6,0.4-1.4,0.6-2.4,0.6c-1,0-1.8-0.2-2.4-0.6c-0.7-0.5-1-1.3-1.1-2.4h1
		c0.1,0.7,0.3,1.3,0.8,1.6c0.4,0.3,1,0.5,1.7,0.5c0.7,0,1.3-0.1,1.7-0.4c0.4-0.3,0.6-0.6,0.6-1.1c0-0.5-0.3-1-0.9-1.3
		c-0.2-0.1-0.9-0.3-1.8-0.6c-1-0.3-1.7-0.6-2-0.7c-0.7-0.4-1-0.9-1-1.7c0-0.7,0.3-1.3,0.9-1.7c0.6-0.4,1.3-0.6,2.2-0.6
		C330.6,291.5,331.3,291.7,331.9,292.1z"/>
	<path class="st7" d="M340.7,291.6v0.9h-3v7.7h-1v-7.7h-3v-0.9H340.7z"/>
	<path class="st7" d="M342.8,291.6l4.8,7h0v-7h1v8.6h-1l-4.9-7h0v7h-1v-8.6H342.8z"/>
</g>
<g class="st2">
	<path class="st7" d="M319.1,51.5v8.6h-1v-8.6H319.1z"/>
	<path class="st7" d="M326,56.2v3.8h-1v-3.7c0-1.2-0.6-1.8-1.6-1.8c-0.4,0-0.8,0.2-1.1,0.5c-0.3,0.3-0.5,0.8-0.6,1.3v3.7h-1v-6.2h1
		v0.9c0.2-0.3,0.5-0.6,0.8-0.8c0.3-0.2,0.7-0.3,1.1-0.3C325.2,53.7,326,54.5,326,56.2z"/>
	<path class="st7" d="M329.1,53.9h1.5v0.8h-1.5v3.9c0,0.2,0,0.4,0.1,0.5c0.1,0.1,0.2,0.2,0.5,0.2h0.8v0.8h-0.9
		c-0.5,0-0.9-0.1-1.1-0.4c-0.2-0.2-0.3-0.6-0.3-1.1v-3.9h-1.2v-0.8h1.2v-1.6l0.9-0.4V53.9z"/>
	<path class="st7" d="M336.5,54.7c0.5,0.6,0.7,1.5,0.7,2.5h-4.9c0,0.7,0.2,1.2,0.6,1.6s0.8,0.6,1.4,0.6c0.5,0,0.9-0.1,1.2-0.4
		c0.3-0.2,0.5-0.5,0.6-1h1c-0.1,0.6-0.4,1.1-0.8,1.5c-0.5,0.5-1.2,0.7-2,0.7c-0.9,0-1.6-0.3-2.1-0.9c-0.6-0.6-0.8-1.4-0.8-2.4
		c0-0.9,0.3-1.7,0.8-2.3c0.5-0.6,1.2-1,2.1-1C335.3,53.7,336,54,336.5,54.7z M333,55c-0.3,0.4-0.5,0.8-0.6,1.5h3.9
		c-0.1-1.3-0.8-2-2-2C333.7,54.5,333.3,54.7,333,55z"/>
	<path class="st7" d="M341.9,53.8v1c-0.3-0.1-0.6-0.1-0.9-0.1c-0.5,0-0.9,0.2-1.2,0.6c-0.3,0.4-0.5,0.9-0.5,1.5v3.3h-0.9v-6.2h0.9
		v1.1c0.2-0.4,0.4-0.6,0.6-0.9c0.3-0.3,0.7-0.4,1.1-0.4C341.4,53.7,341.7,53.7,341.9,53.8z"/>
	<path class="st7" d="M348,56.2v3.8h-1v-3.7c0-1.2-0.6-1.8-1.6-1.8c-0.4,0-0.8,0.2-1.1,0.5c-0.3,0.3-0.5,0.8-0.6,1.3v3.7h-1v-6.2h1
		v0.9c0.2-0.3,0.5-0.6,0.8-0.8c0.3-0.2,0.7-0.3,1.1-0.3C347.2,53.7,348,54.5,348,56.2z"/>
	<path class="st7" d="M354.3,54.7c0.5,0.6,0.7,1.5,0.7,2.5h-4.9c0,0.7,0.2,1.2,0.6,1.6s0.8,0.6,1.4,0.6c0.5,0,0.9-0.1,1.2-0.4
		c0.3-0.2,0.5-0.5,0.6-1h1c-0.1,0.6-0.4,1.1-0.8,1.5c-0.5,0.5-1.2,0.7-2,0.7c-0.9,0-1.6-0.3-2.1-0.9c-0.6-0.6-0.8-1.4-0.8-2.4
		c0-0.9,0.3-1.7,0.8-2.3c0.5-0.6,1.2-1,2.1-1C353,53.7,353.8,54,354.3,54.7z M350.7,55c-0.3,0.4-0.5,0.8-0.6,1.5h3.9
		c-0.1-1.3-0.8-2-2-2C351.5,54.5,351,54.7,350.7,55z"/>
	<path class="st7" d="M357.8,53.9h1.5v0.8h-1.5v3.9c0,0.2,0,0.4,0.1,0.5c0.1,0.1,0.2,0.2,0.5,0.2h0.8v0.8h-0.9
		c-0.5,0-0.9-0.1-1.1-0.4c-0.2-0.2-0.3-0.6-0.3-1.1v-3.9h-1.2v-0.8h1.2v-1.6l0.9-0.4V53.9z"/>
</g>
<g class="st2">
	<path class="st7" d="M618.1,52.5v8.6h-1v-8.6H618.1z"/>
	<path class="st7" d="M625,57.2v3.8h-1v-3.7c0-1.2-0.6-1.8-1.6-1.8c-0.4,0-0.8,0.2-1.1,0.5c-0.3,0.3-0.5,0.8-0.6,1.3v3.7h-1v-6.2h1
		v0.9c0.2-0.3,0.5-0.6,0.8-0.8c0.3-0.2,0.7-0.3,1.1-0.3C624.2,54.7,625,55.5,625,57.2z"/>
	<path class="st7" d="M628.1,54.9h1.5v0.8h-1.5v3.9c0,0.2,0,0.4,0.1,0.5c0.1,0.1,0.2,0.2,0.5,0.2h0.8v0.8h-0.9
		c-0.5,0-0.9-0.1-1.1-0.4c-0.2-0.2-0.3-0.6-0.3-1.1v-3.9h-1.2v-0.8h1.2v-1.6l0.9-0.4V54.9z"/>
	<path class="st7" d="M635.5,55.7c0.5,0.6,0.7,1.5,0.7,2.5h-4.9c0,0.7,0.2,1.2,0.6,1.6s0.8,0.6,1.4,0.6c0.5,0,0.9-0.1,1.2-0.4
		c0.3-0.2,0.5-0.5,0.6-1h1c-0.1,0.6-0.4,1.1-0.8,1.5c-0.5,0.5-1.2,0.7-2,0.7c-0.9,0-1.6-0.3-2.1-0.9c-0.6-0.6-0.8-1.4-0.8-2.4
		c0-0.9,0.3-1.7,0.8-2.3c0.5-0.6,1.2-1,2.1-1C634.3,54.7,635,55,635.5,55.7z M632,56c-0.3,0.4-0.5,0.8-0.6,1.5h3.9
		c-0.1-1.3-0.8-2-2-2C632.7,55.5,632.3,55.7,632,56z"/>
	<path class="st7" d="M640.9,54.8v1c-0.3-0.1-0.6-0.1-0.9-0.1c-0.5,0-0.9,0.2-1.2,0.6c-0.3,0.4-0.5,0.9-0.5,1.5v3.3h-0.9v-6.2h0.9
		v1.1c0.2-0.4,0.4-0.6,0.6-0.9c0.3-0.3,0.7-0.4,1.1-0.4C640.4,54.7,640.7,54.7,640.9,54.8z"/>
	<path class="st7" d="M647,57.2v3.8h-1v-3.7c0-1.2-0.6-1.8-1.6-1.8c-0.4,0-0.8,0.2-1.1,0.5c-0.3,0.3-0.5,0.8-0.6,1.3v3.7h-1v-6.2h1
		v0.9c0.2-0.3,0.5-0.6,0.8-0.8c0.3-0.2,0.7-0.3,1.1-0.3C646.2,54.7,647,55.5,647,57.2z"/>
	<path class="st7" d="M653.3,55.7c0.5,0.6,0.7,1.5,0.7,2.5h-4.9c0,0.7,0.2,1.2,0.6,1.6s0.8,0.6,1.4,0.6c0.5,0,0.9-0.1,1.2-0.4
		c0.3-0.2,0.5-0.5,0.6-1h1c-0.1,0.6-0.4,1.1-0.8,1.5c-0.5,0.5-1.2,0.7-2,0.7c-0.9,0-1.6-0.3-2.1-0.9c-0.6-0.6-0.8-1.4-0.8-2.4
		c0-0.9,0.3-1.7,0.8-2.3c0.5-0.6,1.2-1,2.1-1C652,54.7,652.8,55,653.3,55.7z M649.7,56c-0.3,0.4-0.5,0.8-0.6,1.5h3.9
		c-0.1-1.3-0.8-2-2-2C650.5,55.5,650,55.7,649.7,56z"/>
	<path class="st7" d="M656.8,54.9h1.5v0.8h-1.5v3.9c0,0.2,0,0.4,0.1,0.5c0.1,0.1,0.2,0.2,0.5,0.2h0.8v0.8h-0.9
		c-0.5,0-0.9-0.1-1.1-0.4c-0.2-0.2-0.3-0.6-0.3-1.1v-3.9h-1.2v-0.8h1.2v-1.6l0.9-0.4V54.9z"/>
</g>
<g class="st2">
	<path class="st7" d="M517.9,291.6c2,0,3,0.8,3,2.5c0,1.7-1,2.5-3,2.5h-2.5v3.5h-1v-8.6H517.9z M515.3,295.8h2.5
		c0.7,0,1.2-0.1,1.5-0.4c0.3-0.3,0.5-0.7,0.5-1.3c0-0.6-0.2-1-0.5-1.2c-0.3-0.3-0.8-0.4-1.5-0.4h-2.5V295.8z"/>
	<path class="st7" d="M527.2,292.1c0.6,0.5,0.9,1.1,1,2h-1c-0.1-0.6-0.3-1.1-0.7-1.4c-0.4-0.3-0.9-0.5-1.6-0.5
		c-0.6,0-1.1,0.1-1.5,0.3c-0.4,0.2-0.6,0.6-0.6,1.1c0,0.4,0.2,0.8,0.7,1c0.2,0.1,0.7,0.3,1.6,0.5c1.1,0.3,1.9,0.6,2.2,0.8
		c0.7,0.4,1.1,1,1.1,1.8c0,0.7-0.3,1.3-0.9,1.8c-0.6,0.4-1.4,0.6-2.4,0.6c-1,0-1.8-0.2-2.4-0.6c-0.7-0.5-1-1.3-1.1-2.4h1
		c0.1,0.7,0.3,1.3,0.8,1.6c0.4,0.3,1,0.5,1.7,0.5c0.7,0,1.3-0.1,1.7-0.4c0.4-0.3,0.6-0.6,0.6-1.1c0-0.5-0.3-1-0.9-1.3
		c-0.2-0.1-0.9-0.3-1.8-0.6c-1-0.3-1.7-0.6-2-0.7c-0.7-0.4-1-0.9-1-1.7c0-0.7,0.3-1.3,0.9-1.7c0.6-0.4,1.3-0.6,2.2-0.6
		C525.9,291.5,526.7,291.7,527.2,292.1z"/>
	<path class="st7" d="M536,291.6v0.9h-3v7.7h-1v-7.7h-3v-0.9H536z"/>
	<path class="st7" d="M538.1,291.6l4.8,7h0v-7h1v8.6h-1l-4.9-7h0v7h-1v-8.6H538.1z"/>
</g>
</svg>
