<?xml version="1.0" encoding="utf-8"?>
<!-- Generator: Adobe Illustrator 19.0.0, SVG Export Plug-In . SVG Version: 6.00 Build 0)  -->
<svg version="1.1" id="图层_1" xmlns="http://www.w3.org/2000/svg" xmlns:xlink="http://www.w3.org/1999/xlink" x="0px" y="0px"
	 viewBox="114 296 840 202" style="enable-background:new 114 296 840 202;" xml:space="preserve">
<style type="text/css">
	.st0{fill:#EAEBEC;}
	.st1{fill:#FFFFFF;}
	.st2{fill:#CB3333;fill-opacity:0;}
	.st3{fill:#444444;}
	.st4{fill:#00A4FF;}
	.st5{fill:#878787;}
	.st6{fill:none;stroke:#878787;stroke-miterlimit:10;}
	.st7{clip-path:url(#SVGID_6_);}
	.st8{clip-path:url(#SVGID_8_);fill:#00A4FF;}
</style>
<rect x="114" y="296" class="st0" width="160" height="202"/>
<g>
	
		<image style="overflow:visible;opacity:0.35;enable-background:new    ;" width="128" height="50" xlink:href="F1740FF62E85CE49.png"  transform="matrix(1 0 0 1 827 388)">
	</image>
	<g>
		<rect x="830" y="390" class="st1" width="122" height="44"/>
	</g>
</g>
<rect x="841" y="396" class="st2" width="32" height="32"/>
<g>
	<path class="st3" d="M883.9,407.8h5.8c-0.4-0.8-0.8-1.5-1.4-2.1l1-0.4c0.5,0.6,1,1.5,1.5,2.5h5.3v1h-2.2c-0.7,2.2-1.7,4.1-3.1,5.6
		c1.5,1.2,3.3,2.3,5.6,3.1l-0.5,0.8c-2.3-0.9-4.2-1.9-5.7-3.2c-1.6,1.5-3.6,2.5-6,3.2l-0.5-0.9c2.4-0.6,4.3-1.6,5.8-3
		c-1.6-1.6-2.7-3.5-3.4-5.6h-2.2L883.9,407.8L883.9,407.8z M887,408.8c0.6,1.9,1.6,3.5,3.1,4.9c1.2-1.4,2.2-3,2.7-4.9H887z"/>
	<path class="st3" d="M901.6,405.8c-0.4,1.1-0.8,2.2-1.4,3.1v9.4h-1v-7.8c-0.4,0.6-0.9,1.2-1.5,1.8l-0.3-1.1
		c1.5-1.7,2.5-3.6,3.2-5.8L901.6,405.8z M904,406.4c-0.1,0.7-0.3,1.4-0.5,2h2.1v-2.9h1v2.9h3.2v1h-3.2v3.4h3.7v1h-3.7v4.5h-1v-4.5
		h-4.1v-1h4.1v-3.4h-2.4c-0.3,0.9-0.8,1.8-1.3,2.5l-0.6-0.8c0.8-1.3,1.4-2.9,1.7-4.7H904z"/>
	<path class="st3" d="M912.1,406.8h3.8c0.2-0.6,0.4-1,0.5-1.5l1,0.1c-0.2,0.5-0.3,1-0.4,1.4h7.2v1h-7.5c-0.5,1.2-1.2,2.3-1.9,3.3
		v7.1h-1v-5.9c-0.5,0.5-1,1-1.5,1.5l-0.6-0.8c1.7-1.5,3-3.2,3.9-5.2h-3.4L912.1,406.8L912.1,406.8z M915.8,413.4h4.1v-1.3
		c0.8-0.5,1.6-1,2.3-1.6h-5.3v-0.9h6.6v0.9c-0.8,0.7-1.6,1.4-2.6,2v0.9h3.5v1h-3.5v2.6c0,0.8-0.4,1.2-1.2,1.2h-1.8l-0.3-1
		c0.7,0,1.2,0,1.6,0c0.4,0,0.6-0.2,0.6-0.6v-2.3h-4.1v-0.9H915.8z"/>
	<path class="st3" d="M926.9,410.5c-0.3,0.5-0.7,1.1-1,1.6l-0.3-1.1c1.1-1.6,1.9-3.5,2.4-5.5l0.9,0.4c-0.2,0.9-0.6,1.8-0.9,2.7v9.7
		h-1v-7.8H926.9z M928.4,409.8h2.5v5.9c0.3-0.3,0.7-0.8,1.1-1.3l0.2,1c-0.7,0.8-1.4,1.6-2.2,2.4l-0.4-0.9c0.2-0.2,0.3-0.4,0.3-0.5
		v-5.6h-1.6v-1H928.4z M929.7,406c0.8,0.7,1.5,1.4,2.1,2.1l-0.7,0.7c-0.5-0.7-1.2-1.4-2-2.2L929.7,406z M932.5,407.1h1.7v-1.6h0.9
		v1.6h1.6v0.8c0.3-0.6,0.5-1.1,0.8-1.7l0.8,0.4c-0.5,1.1-1,2.2-1.7,3.1h1.6v0.9H936c-0.4,0.5-0.8,0.9-1.2,1.3h2.9v6.2h-1v-0.6H934
		v0.6h-0.9v-5c-0.2,0.1-0.6,0.3-1,0.5l-0.5-0.8c1.2-0.6,2.3-1.3,3.2-2.3h-2.5v-0.9h2v-1.8h-1.7L932.5,407.1L932.5,407.1z
		 M936.6,414.4v-1.5H934v1.5H936.6z M934,415.2v1.5h2.6v-1.5H934z M935.5,409.7c0.4-0.6,0.8-1.2,1.1-1.8H935v1.8H935.5z"/>
</g>
<g>
	<polygon class="st4" points="862,411.8 857,414.7 852,411.8 852,411.8 850,410.7 850,413 857,417 864,413 864,410.7 	"/>
	<path class="st4" d="M857,403l-7,4v2l2,1.1l5,2.9l5-2.9l2-1.1v-2L857,403z M857,410.7l-4.7-2.7l4.7-2.7l4.7,2.7L857,410.7z"/>
	<g id="_编组__5_">
		<polygon class="st4" points="869,418.8 857,425.7 845,418.8 845,405.2 857,398.3 869,405.2 869,405.1 871,404 857,396 843,404 
			843,420 857,428 871,420 871,408 869,409.1 		"/>
	</g>
	<polygon class="st4" points="862,415.8 857,418.7 852,415.8 852,415.8 850,414.7 850,417 857,421 864,417 864,414.7 	"/>
</g>
<g>
	<polygon class="st5" points="289,407.5 284,412 289,416.5 	"/>
	<polygon class="st5" points="324,416.5 329,412 324,407.5 	"/>
	<line class="st6" x1="327" y1="412" x2="287" y2="412"/>
</g>
<g>
	<polygon class="st5" points="477,407.5 472,412 477,416.5 	"/>
	<polygon class="st5" points="512,416.5 517,412 512,407.5 	"/>
	<line class="st6" x1="515" y1="412" x2="475" y2="412"/>
</g>
<g>
	
		<image style="overflow:visible;opacity:0.35;enable-background:new    ;" width="146" height="50" xlink:href="F1740FF62E85CE4B.png"  transform="matrix(1 0 0 1 121 442)">
	</image>
	<g>
		<rect x="124" y="444" class="st1" width="140" height="44"/>
	</g>
</g>
<g>
	<path class="st3" d="M200.9,460.9h1.3l3.9,10H205l-1.1-2.8h-4.6l-1.1,2.8H197L200.9,460.9z M199.7,467.1h3.9l-1.9-5h-0.1
		L199.7,467.1z"/>
	<path class="st3" d="M207.2,460.9h4.1c2.3,0,3.4,1,3.4,2.9c0,2-1.2,3-3.5,3h-2.9v4.1h-1.1V460.9z M208.4,461.9v3.9h2.9
		c0.8,0,1.4-0.2,1.8-0.5s0.6-0.8,0.6-1.5s-0.2-1.2-0.6-1.5s-1-0.5-1.8-0.5h-2.9V461.9z"/>
	<path class="st3" d="M216.2,460.9h4.1c2.3,0,3.4,1,3.4,2.9c0,2-1.2,3-3.5,3h-2.9v4.1h-1.1V460.9z M217.3,461.9v3.9h2.9
		c0.8,0,1.4-0.2,1.8-0.5c0.4-0.3,0.6-0.8,0.6-1.5s-0.2-1.2-0.6-1.5c-0.4-0.3-1-0.5-1.8-0.5h-2.9V461.9z"/>
</g>
<g>
	<g>
		<path class="st5" d="M149,451v30h22v-30H149z M169,479h-18v-26h18V479z M158,478h4v-2h-4V478z M169,473h-18v2h18V473z"/>
	</g>
</g>
<g>
	
		<image style="overflow:visible;opacity:0.35;enable-background:new    ;" width="146" height="50" xlink:href="F1740FF62E85CE4E.png"  transform="matrix(1 0 0 1 121 388)">
	</image>
	<g>
		<rect x="124" y="390" class="st1" width="140" height="44"/>
	</g>
</g>
<g>
	<path class="st3" d="M198.3,408.9c0.9,0.7,1.6,1.5,2.2,2.2l-0.7,0.7c-0.5-0.7-1.3-1.4-2.2-2.2L198.3,408.9z M198.5,405.6
		c0.9,0.7,1.6,1.5,2.3,2.2l-0.7,0.7c-0.5-0.7-1.3-1.5-2.3-2.3L198.5,405.6z M200.8,413.2c-0.6,1.8-1.3,3.5-2.1,5l-0.9-0.4
		c0.8-1.6,1.5-3.3,2.1-5L200.8,413.2z M201.1,407.8h2c-0.3-0.8-0.5-1.5-0.7-2.1l1-0.2c0.2,0.5,0.4,1.3,0.7,2.3h1.8v1h-0.6
		c-0.2,1.8-0.6,3.4-1,4.6c0.7,1.2,1.3,2.3,1.7,3.2l-0.8,0.6c-0.4-0.9-0.9-1.8-1.3-2.6c-0.7,1.4-1.6,2.7-2.9,3.8l-0.6-0.8
		c1.2-1.1,2.1-2.3,2.7-3.6c0.1-0.3,0.2-0.4,0.2-0.5c-0.5-0.9-1.1-1.9-1.9-3l0.8-0.5c0.5,0.8,1,1.5,1.5,2.3c0.3-1,0.5-2.2,0.7-3.5
		h-3.1v-1H201.1z M206.7,418.1l-0.2-1c0.8,0,1.4,0.1,1.7,0.1c0.4,0,0.6-0.2,0.6-0.7v-11.1h1v11.4c0,0.9-0.4,1.3-1.2,1.3
		C208.6,418.1,206.7,418.1,206.7,418.1z M206.6,406.6h0.9v8.8h-0.9V406.6z"/>
	<path class="st3" d="M217.3,412.4h1v1c-0.1,1.4-0.5,2.4-1.4,3.3c-0.9,0.7-2.3,1.3-4.3,1.8l-0.6-0.9c2-0.4,3.4-0.9,4.2-1.5
		c0.7-0.7,1.1-1.5,1.2-2.6L217.3,412.4L217.3,412.4z M212.7,406h1v3.6h-1V406z M221.7,410.6v5h-1v-4.1h-5.5v4.1h-1v-5H221.7z
		 M215.4,405.4h1v4.6h-1V405.4z M219.5,407.4c-0.4,0.9-1,1.6-1.6,2.1l-0.8-0.7c1-0.9,1.7-2.1,2.1-3.5l1,0.3l-0.3,0.9h4.1v0.9
		C224,407.4,219.5,407.4,219.5,407.4z M219.7,418c-0.9,0-1.3-0.4-1.3-1.3V414h1v2.5c0,0.4,0.2,0.6,0.6,0.6h2.2
		c0.3,0,0.5-0.1,0.6-0.2c0.2-0.2,0.3-0.8,0.3-1.7l0.9,0.3c-0.1,1.2-0.3,1.9-0.6,2.2c-0.3,0.2-0.6,0.3-1.2,0.3
		C222.2,418,219.7,418,219.7,418z M220.7,407.8c0.8,0.5,1.6,1,2.3,1.7l-0.6,0.7c-0.7-0.7-1.5-1.3-2.3-1.8L220.7,407.8z"/>
	<path class="st3" d="M225.8,410.8h4.7c0.3-0.3,0.5-0.7,0.6-1.1l1,0.1c-0.1,0.3-0.3,0.6-0.5,1h3.6c-0.2-0.4-0.4-0.7-0.6-1l0.9-0.3
		c0.3,0.4,0.5,0.8,0.8,1.2h1.9v0.9h-3.8c0.9,0.9,2.3,1.5,4.1,2l-0.4,0.9c-0.2-0.1-0.5-0.2-1-0.3v4.1h-0.9v-0.6h-2.6v0.6h-0.9v-4.4
		h3.7c-1.3-0.6-2.3-1.3-3-2.2H231c-0.8,0.9-1.8,1.6-3.1,2.2h3.5v4.4h-0.9v-0.6H228v0.6h-0.9v-4.1l-1.1,0.4l-0.5-0.8
		c1.8-0.5,3.2-1.2,4.1-2.1h-3.9v-0.9H225.8z M227,406h4.3v3.4H227V406z M230.3,408.5v-1.7h-2.4v1.7H230.3z M228,416.8h2.4v-2.1H228
		V416.8z M232.8,406h4.4v3.4h-4.4V406z M233.6,416.8h2.6v-2.1h-2.6V416.8z M236.2,408.5v-1.7h-2.5v1.7H236.2z"/>
</g>
<g>
	<g>
		<path class="st5" d="M145,399.5v25h30v-25H145z M173,422.5h-26v-15h26V422.5z M173,405.5h-26v-4h26V405.5z M152,402.5h-4v2h4
			V402.5z"/>
	</g>
</g>
<g>
	
		<image style="overflow:visible;opacity:0.35;enable-background:new    ;" width="146" height="50" xlink:href="F1740FF62E85CE4F.png"  transform="matrix(1 0 0 1 121 334)">
	</image>
	<g>
		<rect x="124" y="336" class="st1" width="140" height="44"/>
	</g>
</g>
<g>
	<path class="st3" d="M198.3,354.9c0.9,0.7,1.6,1.5,2.2,2.2l-0.7,0.7c-0.5-0.7-1.3-1.4-2.2-2.2L198.3,354.9z M198.5,351.6
		c0.9,0.7,1.6,1.5,2.3,2.2l-0.7,0.7c-0.5-0.7-1.3-1.5-2.3-2.3L198.5,351.6z M200.8,359.2c-0.6,1.8-1.3,3.5-2.1,5l-0.9-0.4
		c0.8-1.6,1.5-3.3,2.1-5L200.8,359.2z M201.1,353.8h2c-0.3-0.8-0.5-1.5-0.7-2.1l1-0.2c0.2,0.5,0.4,1.3,0.7,2.3h1.8v1h-0.6
		c-0.2,1.8-0.6,3.4-1,4.6c0.7,1.2,1.3,2.3,1.7,3.2l-0.8,0.6c-0.4-0.9-0.9-1.8-1.3-2.6c-0.7,1.4-1.6,2.7-2.9,3.8l-0.6-0.8
		c1.2-1.1,2.1-2.3,2.7-3.6c0.1-0.3,0.2-0.4,0.2-0.5c-0.5-0.9-1.1-1.9-1.9-3l0.8-0.5c0.5,0.8,1,1.5,1.5,2.3c0.3-1,0.5-2.2,0.7-3.5
		h-3.1v-1H201.1z M206.7,364.1l-0.2-1c0.8,0,1.4,0.1,1.7,0.1c0.4,0,0.6-0.2,0.6-0.7v-11h1v11.4c0,0.9-0.4,1.3-1.2,1.3h-1.9V364.1z
		 M206.6,352.6h0.9v8.8h-0.9V352.6z"/>
	<path class="st3" d="M217.3,358.4h1v1c-0.1,1.4-0.5,2.4-1.4,3.3c-0.9,0.7-2.3,1.3-4.3,1.8l-0.6-1c2-0.4,3.4-0.9,4.2-1.5
		c0.7-0.7,1.1-1.5,1.2-2.6L217.3,358.4L217.3,358.4z M212.7,352h1v3.6h-1V352z M221.7,356.6v5h-1v-4.1h-5.5v4.1h-1v-5H221.7z
		 M215.4,351.4h1v4.6h-1V351.4z M219.5,353.4c-0.4,0.9-1,1.6-1.6,2.1l-0.8-0.7c1-0.9,1.7-2.1,2.1-3.5l1,0.3l-0.3,0.9h4.1v0.9H219.5z
		 M219.7,364c-0.9,0-1.3-0.4-1.3-1.3V360h1v2.5c0,0.4,0.2,0.6,0.6,0.6h2.2c0.3,0,0.5-0.1,0.6-0.2c0.2-0.2,0.3-0.8,0.3-1.7l0.9,0.3
		c-0.1,1.2-0.3,1.9-0.6,2.2c-0.3,0.2-0.6,0.3-1.2,0.3C222.2,364,219.7,364,219.7,364z M220.7,353.8c0.8,0.5,1.6,1,2.3,1.7l-0.6,0.7
		c-0.7-0.7-1.5-1.3-2.3-1.8L220.7,353.8z"/>
	<path class="st3" d="M225.8,356.8h4.7c0.3-0.3,0.5-0.7,0.6-1.1l1,0.1c-0.1,0.3-0.3,0.6-0.5,1h3.6c-0.2-0.4-0.4-0.7-0.6-1l0.9-0.3
		c0.3,0.4,0.5,0.8,0.8,1.2h1.9v0.9h-3.8c0.9,0.9,2.3,1.5,4.1,2l-0.4,0.9c-0.2-0.1-0.5-0.2-1-0.3v4.1h-0.9v-0.6h-2.6v0.6h-0.9v-4.4
		h3.7c-1.3-0.6-2.3-1.3-3-2.2H231c-0.8,0.9-1.8,1.6-3.1,2.2h3.5v4.4h-0.9v-0.6H228v0.6h-0.9v-4.1l-1.1,0.4l-0.5-0.8
		c1.8-0.5,3.2-1.2,4.1-2.1h-3.9v-0.9H225.8z M227,352h4.3v3.4H227V352z M230.3,354.5v-1.7h-2.4v1.7H230.3z M228,362.8h2.4v-2.1H228
		V362.8z M232.8,352h4.4v3.4h-4.4V352z M233.6,362.8h2.6v-2.1h-2.6V362.8z M236.2,354.5v-1.7h-2.5v1.7H236.2z"/>
</g>
<g>
	<g>
		<path class="st5" d="M145,345.5v25h30v-25H145z M173,368.5h-26v-15h26V368.5z M173,351.5h-26v-4h26V351.5z M152,348.5h-4v2h4
			V348.5z"/>
	</g>
</g>
<g>
	<g>
		<polygon class="st5" points="684,407.5 679,412 684,416.5 		"/>
		<polygon class="st5" points="815,416.5 820,412 815,407.5 		"/>
		<line class="st6" x1="818" y1="412" x2="682" y2="412"/>
	</g>
	<polygon class="st5" points="684,353.5 679,358 684,362.5 	"/>
	<line class="st6" x1="713" y1="358" x2="682" y2="358"/>
	<polygon class="st5" points="684,461.5 679,466 684,470.5 	"/>
	<line class="st6" x1="713" y1="466" x2="682" y2="466"/>
	<rect x="712" y="358" class="st5" width="1" height="108"/>
</g>
<g>
	<path class="st3" d="M130.1,309c-0.2,0.3-0.4,0.7-0.7,1h5.3v0.6c-0.6,0.8-1.5,1.6-2.7,2.2c1.6,0.7,3.4,1.1,5.4,1.3l-0.2,0.7
		c-2.3-0.2-4.3-0.7-6-1.6c-1.7,0.8-3.8,1.4-6.3,1.9l-0.3-0.7c2.4-0.4,4.3-0.9,5.8-1.6c-0.8-0.4-1.5-1-2.3-1.6
		c-0.6,0.5-1.2,1-1.8,1.4l-0.5-0.6c1.5-0.9,2.6-2,3.5-3.3L130.1,309z M136.6,307.7v2.5h-0.8v-1.8h-9.7v1.8h-0.8v-2.5h5.2
		c-0.1-0.4-0.3-0.7-0.6-1.1l0.8-0.1c0.2,0.3,0.3,0.7,0.5,1.2C131.2,307.7,136.6,307.7,136.6,307.7z M135,315.1v4.3h-0.7v-0.6H128
		v0.6h-0.7v-4.3C127.3,315.1,135,315.1,135,315.1z M128,318.1h6.3v-2.2H128V318.1z M133.8,310.7h-5c-0.1,0.1-0.1,0.1-0.1,0.1
		c0.8,0.7,1.6,1.2,2.5,1.7C132.3,312,133.1,311.4,133.8,310.7z"/>
	<path class="st3" d="M141.1,312.9c-0.1,2.5-0.7,4.7-2,6.5l-0.6-0.5c1.2-1.6,1.8-3.7,1.8-6.3v-4.3h4.6c-0.3-0.6-0.5-1.2-0.8-1.7
		l0.8-0.1c0.3,0.6,0.6,1.2,0.8,1.9h4.4v4.5C150.1,312.9,141.1,312.9,141.1,312.9z M149.4,309.1h-8.3v3h8.3V309.1z"/>
	<path class="st3" d="M157,317.2c-1.4,0.5-2.8,1-4.2,1.3l-0.2-0.7c0.9-0.2,1.7-0.4,2.5-0.6c0.4-2,0.6-4.2,0.8-6.6l0.7,0.1
		c-0.2,2.2-0.5,4.4-0.8,6.3c0.5-0.2,0.9-0.3,1.3-0.5v0.7H157z M152.6,309h1.9c-0.2-0.8-0.4-1.5-0.7-2.1l0.8-0.1
		c0.3,0.8,0.5,1.5,0.6,2.2h1.8v0.7h-4.4V309z M153.6,310.7c0.3,1.6,0.6,3.5,0.9,5.6l-0.6,0.2c-0.3-2-0.6-3.9-0.9-5.5L153.6,310.7z
		 M157.4,311.4h7.9v0.7h-3.8c-0.1,0.5-0.3,1-0.5,1.5h3.8v4.6c0,0.7-0.3,1-0.8,1h-0.6l-0.2-0.7h0.6c0.2,0,0.3-0.2,0.3-0.5v-3.8h-1.5
		v4.7H162v-4.7h-1.3v4.7H160v-4.7h-1.5v4.9h-0.7v-5.6h2.5c0.2-0.5,0.4-1,0.5-1.5h-3.4C157.4,312,157.4,311.4,157.4,311.4z
		 M163.8,309.4v-2.2h0.7v2.9H158v-2.9h0.7v2.2h2.1v-2.8h0.8v2.8C161.6,309.4,163.8,309.4,163.8,309.4z"/>
</g>
<rect x="527.5" y="296" class="st0" width="141" height="202"/>
<g>
	
		<image style="overflow:visible;opacity:0.35;enable-background:new    ;" width="127" height="50" xlink:href="F1740FF62E85CE4A.png"  transform="matrix(1 0 0 1 535 334)">
	</image>
	<g>
		<rect x="538" y="336" class="st1" width="121" height="44"/>
	</g>
</g>
<rect x="558" y="342" class="st2" width="32" height="32"/>
<g>
	
		<image style="overflow:visible;opacity:0.35;enable-background:new    ;" width="127" height="50" xlink:href="F1740FF62E85CE45.png"  transform="matrix(1 0 0 1 535 388)">
	</image>
	<g>
		<rect x="538" y="390" class="st1" width="121" height="44"/>
	</g>
</g>
<rect x="558" y="396" class="st2" width="32" height="32"/>
<g>
	
		<image style="overflow:visible;opacity:0.35;enable-background:new    ;" width="127" height="50" xlink:href="F1740FF62E85CE46.png"  transform="matrix(1 0 0 1 535 442)">
	</image>
	<g>
		<rect x="538" y="444" class="st1" width="121" height="44"/>
	</g>
</g>
<rect x="558" y="450" class="st2" width="32" height="32"/>
<g>
	<path class="st3" d="M558.7,361.1l-0.7-0.8c1.6-1,2.6-2.3,3.1-3.9c0.2-0.6,0.3-1.1,0.4-1.8h-4v9.6h-1v-10.5h5.1
		c0.1-0.8,0.1-1.5,0.1-2.3h1c0,0.7,0,1.5-0.1,2.3h4.9v9c0,0.9-0.5,1.4-1.4,1.4H564l-0.3-1l2.1,0.1c0.4,0,0.7-0.2,0.7-0.7v-7.8h-4
		c-0.1,0.6-0.2,1.1-0.3,1.5c1.4,1.3,2.7,2.7,3.7,4.1l-0.8,0.8c-0.8-1.2-1.9-2.4-3.2-3.8C561.4,358.7,560.3,360.1,558.7,361.1z"/>
	<path class="st3" d="M576.4,355.8c1.1,1.4,3.1,2.6,5.9,3.7l-0.5,0.8c-0.6-0.2-1.1-0.4-1.6-0.7v4.6h-1v-0.6h-6.3v0.6h-1v-4.6
		c-0.5,0.2-1.1,0.5-1.7,0.7l-0.5-0.8c2.6-1,4.5-2.2,5.9-3.7C575.6,355.8,576.4,355.8,576.4,355.8z M575,354.7
		c-1.2,1-2.7,1.9-4.4,2.7l-0.6-0.8c1.7-0.7,3.1-1.6,4.3-2.5L575,354.7z M576.2,351.3c0.1,0.3,0.3,0.7,0.5,1.2h5.1v2.5h-1v-1.6h-9.5
		v1.6h-1v-2.6h5.3c-0.2-0.4-0.3-0.7-0.5-1.1H576.2z M580,359.6c-1.7-0.8-3-1.8-4-2.9c-1.1,1.2-2.4,2.1-4,2.9H580z M572.9,362.8h6.3
		v-2.2h-6.3V362.8z M577.6,354.1c1.7,0.9,3.1,1.8,4.3,2.6l-0.7,0.7c-1-0.8-2.4-1.7-4.2-2.7L577.6,354.1z"/>
	<path class="st3" d="M585.7,353.3c-0.4,0.6-0.7,1.1-1.1,1.5l-0.9-0.6c0.8-0.9,1.4-1.8,1.8-2.9l1,0.2l-0.3,0.9h3.8v0.9h-2.4
		c0.3,0.4,0.6,0.8,0.8,1.2l-0.9,0.3c-0.2-0.5-0.5-1-0.9-1.6L585.7,353.3L585.7,353.3z M595.9,355.3v2.5h-1v-1.7H585v1.7h-1v-2.5h5.5
		c-0.1-0.3-0.3-0.6-0.4-0.9l1-0.2l-0.1-0.1c0.7-0.8,1.1-1.8,1.5-2.8l1,0.2c-0.1,0.3-0.2,0.6-0.3,0.9h4v0.9h-2.5
		c0.3,0.4,0.5,0.8,0.7,1.1l-0.9,0.3c-0.3-0.5-0.5-1-0.9-1.4h-0.9c-0.2,0.4-0.5,0.9-0.9,1.3l-0.8-0.5c0.2,0.4,0.3,0.7,0.4,1.1
		L595.9,355.3L595.9,355.3z M594,356.9v2.7h-7v1h7.6v3.6h-1v-0.6H587v0.6h-1v-7.3C586,356.9,594,356.9,594,356.9z M587,358.9h6v-1.1
		h-6V358.9z M587,362.8h6.6v-1.3H587V362.8z"/>
	<path class="st3" d="M597.9,356.6h1.5v-3.3h-1.7v-1h4.4v1h-1.7v3.3h1.5v1h-1.5v3.1c0.6-0.2,1.1-0.4,1.7-0.7v1
		c-1.3,0.6-2.7,1-4.3,1.5l-0.3-1c0.6-0.1,1.2-0.3,1.9-0.4v-3.5h-1.5V356.6z M603,352h6.7v6.5h-2.9v1.7h3.1v0.9h-3.1v1.8h3.5v1h-8.1
		v-1h3.5v-1.8h-3.1v-0.9h3.1v-1.7H603V352z M603.9,354.8h1.9v-1.9h-1.9V354.8z M605.8,357.6v-1.9h-1.9v1.9H605.8z M606.8,352.9v1.9
		h1.9v-1.9H606.8z M608.7,357.6v-1.9h-1.9v1.9H608.7z"/>
	<path class="st3" d="M616,360.9c-0.9,1.1-2.1,2.1-3.5,3l-0.6-0.8c1.4-0.8,2.5-1.8,3.4-2.8L616,360.9z M615.9,364.2l-0.2-1
		c0.6,0,1,0.1,1.4,0.1c0.3,0,0.5-0.2,0.5-0.5v-3.4c-1.6,0.1-3.1,0.2-4.4,0.2l-0.3-0.9c0.3,0,0.6-0.1,0.9-0.2
		c1.1-0.5,2.4-1.3,3.9-2.4c-1,0.1-2.3,0.2-3.9,0.3l-0.2-0.9c0.2,0,0.4-0.1,0.7-0.2c0.7-0.4,1.5-1,2.5-2.1c-1.2,0.1-2.5,0.1-3.8,0.1
		l-0.3-0.9c4,0,7.4-0.3,10-0.9l0.5,0.9c-1.5,0.3-3.2,0.6-5.2,0.7c-0.8,1-1.7,1.8-2.6,2.4c1,0,2.1-0.1,3.4-0.2c0.5-0.4,1.2-1,1.9-1.7
		l0.9,0.5c-2.4,2.1-4.4,3.6-6.2,4.5c2.4-0.1,4.3-0.3,5.9-0.5c-0.4-0.6-0.8-1-1.1-1.4l0.8-0.5c1.2,1.4,2,2.5,2.6,3.5l-0.8,0.6
		c-0.2-0.4-0.5-0.9-0.9-1.4c-0.8,0.1-1.9,0.2-3.2,0.3v3.8c0,0.8-0.4,1.2-1.2,1.2H615.9z M620.6,360.1c1.4,1,2.6,2,3.5,3.1l-0.7,0.7
		c-0.9-1-2-2-3.5-3.2L620.6,360.1z"/>
	<path class="st3" d="M629.1,351.8c-0.7,1.8-1.4,3.2-2.1,4.3c0.4-0.1,1-0.2,1.8-0.3c0.3-0.5,0.5-1,0.8-1.5l0.9,0.3
		c-1.2,2.3-2.3,4-3.1,5c1-0.3,2-0.6,3-1v0.9c-1.4,0.6-2.8,1-4.2,1.2l-0.3-0.9c0.2-0.1,0.3-0.2,0.5-0.3c0.6-0.6,1.2-1.5,2-2.8
		c-1,0.2-1.7,0.3-2.3,0.4l-0.3-0.9c0.2-0.1,0.3-0.2,0.4-0.4c0.7-1.2,1.4-2.7,2-4.4L629.1,351.8z M630.3,362
		c-1.3,0.7-2.8,1.2-4.4,1.6l-0.1-1c1.7-0.4,3.2-0.9,4.5-1.5V362z M632.9,358.1c-0.1,1.8-0.3,3.1-0.7,3.9c-0.4,0.9-1.1,1.6-2,2.2
		l-0.6-0.8c0.8-0.5,1.4-1.2,1.8-1.9c0.3-0.7,0.5-1.9,0.6-3.5h0.9V358.1z M630.6,356.6c0.2-0.1,0.2-0.1,0.2-0.1
		c0.5-0.3,1.1-1.2,1.8-2.7h-2.4v-1h3.6c-0.2-0.5-0.4-1-0.6-1.4l1-0.2c0.2,0.5,0.4,1,0.6,1.6h3.1v1h-4.3c-0.6,1.2-1.2,2.1-1.6,2.7
		c1.4-0.1,2.7-0.3,3.9-0.5c-0.3-0.5-0.7-0.9-1-1.4l0.8-0.5c1,1.3,1.7,2.3,2.2,3.2l-0.8,0.5c-0.2-0.4-0.4-0.7-0.6-1.1
		c-1.7,0.3-3.6,0.5-5.7,0.6L630.6,356.6z M636,364c-0.8,0-1.3-0.4-1.3-1.2V358h1v4.6c0,0.3,0.1,0.4,0.3,0.5h0.9
		c0.3,0,0.5-0.2,0.5-0.5c0.1-0.5,0.1-1.1,0.1-1.8l0.9,0.3c0,1.3-0.1,2.1-0.3,2.5c-0.2,0.3-0.6,0.4-1.2,0.5H636V364z"/>
</g>
<g>
	<path class="st3" d="M564.9,418.2l-0.3-1h1.3c0.4,0,0.6-0.2,0.6-0.6V407h-9.2v11.3h-1V406h11.2v10.9c0,0.9-0.4,1.3-1.2,1.3
		C566.3,418.2,564.9,418.2,564.9,418.2z M561.6,415.1c-0.4-0.6-0.8-1.3-1.3-2c-0.5,1.4-1.1,2.5-1.8,3.5l-0.6-0.8
		c0.7-1,1.3-2.3,1.8-3.7c-0.6-0.9-1.3-1.7-2-2.4l0.6-0.6c0.6,0.6,1.1,1.3,1.7,2c0.3-1,0.5-2.1,0.7-3.2l0.9,0.2
		c-0.2,1.4-0.5,2.8-0.9,3.9c0.6,0.8,1.2,1.6,1.7,2.4L561.6,415.1z M565.7,415.7c-0.4-0.7-0.9-1.5-1.4-2.3c-0.6,1.4-1.2,2.5-2,3.5
		l-0.6-0.8c0.8-1.1,1.4-2.3,2-3.7c-0.7-1-1.3-1.9-1.9-2.6l0.6-0.6c0.6,0.6,1.1,1.3,1.7,2.1c0.3-1,0.5-2.1,0.7-3.4l1,0.2
		c-0.3,1.5-0.6,3-1,4.2c0.6,0.9,1.2,1.8,1.7,2.7L565.7,415.7z"/>
	<path class="st3" d="M575.1,416.2c-1.6,0.5-3.3,0.8-5.1,1.1l-0.2-1c1-0.1,2-0.3,3-0.5c0.4-1.9,0.7-4,1-6.3l1,0.1
		c-0.2,2.2-0.6,4.2-1,6c0.6-0.1,1-0.3,1.4-0.4L575.1,416.2L575.1,416.2z M569.8,407.7h2.3c-0.1-0.7-0.3-1.4-0.6-2.1l1-0.2
		c0.2,0.6,0.4,1.4,0.5,2.2h2.3v1h-5.5L569.8,407.7L569.8,407.7z M571.1,409.6c0.3,1.7,0.6,3.5,0.9,5.6l-0.8,0.2
		c-0.2-1.9-0.6-3.7-1-5.5L571.1,409.6z M577.7,405.4h1v2.5h3.5v1h-3.5v2.7h2.8v6.6h-1v-0.9h-3.9v0.9h-1v-6.6h2v-6.2H577.7z
		 M576.7,416.3h3.9v-3.8h-3.9V416.3z"/>
</g>
<g>
	<path class="st3" d="M562.4,459.5c1.8,2,3.8,3.5,6.1,4.6l-0.5,1c-2.3-1.2-4.3-2.7-6-4.7c-1.5,1.8-3.5,3.4-6,4.7l-0.5-1
		c2.4-1.2,4.5-2.8,6.2-4.6H562.4z M561.9,463.2h1v3.2h3.8v1h-3.8v3.4h4.8v1h-11.6v-1h2.1v-5.5h1v5.5h2.7V463.2z"/>
	<path class="st3" d="M574,459.6h1v11.1h2v-11.1h1v11.1h4.2v1h-12.4v-1h4.2V459.6L574,459.6z M571,462.1c0.7,1.9,1.4,4.1,2,6.5
		l-0.9,0.2c-0.5-2.2-1.1-4.4-1.9-6.5L571,462.1z M581.8,462.4c-0.6,2.4-1.3,4.6-2.1,6.4l-0.9-0.3c0.8-1.7,1.5-3.8,2.1-6.3
		L581.8,462.4z"/>
	<path class="st3" d="M587.2,463c-0.7,0.7-1.6,1.4-2.6,2.1l-0.7-0.8c1.1-0.6,2-1.2,2.7-2L587.2,463z M590.6,467.2
		c-0.2,1.8-0.6,3-1.3,3.6c-0.7,0.8-2.4,1.2-4.9,1.4l-0.4-0.9c2.2-0.1,3.7-0.5,4.4-1.1c0.6-0.6,1-1.6,1.1-3.1L590.6,467.2z
		 M584.7,459.7c0.9,0.3,1.7,0.6,2.3,1l-0.5,0.8c-0.7-0.4-1.5-0.8-2.3-1L584.7,459.7z M594.5,465.6v4.2h-1v-3.2h-7v3.3h-1v-4.3H594.5
		z M590.2,459.5c-0.1,0.4-0.3,0.7-0.4,0.9h5.6v0.6c-0.2,0.7-0.4,1.4-0.7,2l-1-0.3c0.2-0.4,0.4-0.9,0.6-1.5H592
		c-0.1,0.3-0.1,0.6-0.3,0.9c0.7,1.1,2.2,1.8,4.3,2.2l-0.4,0.9c-2.1-0.4-3.5-1.2-4.4-2.3c-0.2,0.3-0.4,0.5-0.6,0.7
		c-0.7,0.7-1.8,1.2-3.4,1.5l-0.4-0.9c1.4-0.3,2.4-0.7,3-1.2c0.5-0.5,0.9-1.1,1-1.9H589c-0.4,0.5-0.9,1-1.4,1.4l-0.6-0.8
		c0.9-0.7,1.5-1.5,1.9-2.5L590.2,459.5z M590.9,469.8c1.8,0.5,3.5,1,5,1.7l-0.5,0.8c-1.6-0.8-3.3-1.4-4.9-1.8L590.9,469.8z"/>
	<path class="st3" d="M597.8,464.3h2.5v-4.9h1v4.9h2.1v1h-2.1v0.4c0.7,0.6,1.4,1.3,2.1,2.1l-0.6,0.9c-0.6-0.9-1.1-1.6-1.5-2.1v5.7
		h-1v-5.7c-0.6,1.4-1.4,2.5-2.3,3.5l-0.4-1.1c1.2-1.2,2.1-2.4,2.6-3.7h-2.4L597.8,464.3L597.8,464.3z M598.7,460.6
		c0.3,0.9,0.6,1.9,0.8,2.9l-0.8,0.2c-0.2-1.1-0.5-2-0.8-2.9L598.7,460.6z M603.4,460.5c-0.1,1.1-0.3,2.2-0.7,3.1l-0.8-0.3
		c0.3-0.8,0.5-1.8,0.6-2.9L603.4,460.5z M607.8,459.5h1v7.9l1.5-0.2l0.2,1l-1.7,0.3v3.8h-1v-3.6l-4,0.6l-0.1-1l4.2-0.6v-8.2H607.8z
		 M604.6,463.8c0.9,0.7,1.7,1.4,2.3,2.1l-0.7,0.7c-0.6-0.7-1.3-1.4-2.3-2.2L604.6,463.8z M605,460.5c0.9,0.7,1.7,1.4,2.3,2.1
		l-0.7,0.7c-0.6-0.7-1.3-1.4-2.3-2.1L605,460.5z"/>
	<path class="st3" d="M612.1,460.8h3.8c0.2-0.6,0.4-1,0.5-1.5l1,0.1c-0.2,0.5-0.3,1-0.4,1.4h7.2v1h-7.5c-0.5,1.2-1.2,2.3-1.9,3.3
		v7.1h-1v-5.9c-0.5,0.5-1,1-1.5,1.5l-0.6-0.8c1.7-1.5,3-3.2,3.9-5.2h-3.4v-1H612.1z M615.8,467.4h4.1v-1.3c0.8-0.5,1.6-1,2.3-1.6
		h-5.3v-0.9h6.6v0.9c-0.8,0.7-1.6,1.4-2.6,2v0.9h3.5v1h-3.5v2.6c0,0.8-0.4,1.2-1.2,1.2h-1.8l-0.3-1c0.7,0,1.2,0,1.6,0
		s0.6-0.2,0.6-0.6v-2.3h-4.1L615.8,467.4L615.8,467.4z"/>
	<path class="st3" d="M628.7,472.2h-1v-7c-0.5,1.3-1,2.5-1.8,3.6l-0.4-1.1c1-1.3,1.8-2.9,2.2-4.6h-1.9v-1h1.9v-2.7h1v2.7h1.7v1h-1.7
		v0.8c0.6,0.6,1.2,1.4,1.9,2.3L630,467c-0.6-0.9-1-1.6-1.4-2.1L628.7,472.2L628.7,472.2z M630.8,464.3h3.1v-4.9h1v4.9h2.9v8h-1v-0.6
		h-6.3v-1h6.3v-2.3h-5.7v-1h5.7v-2.2h-6V464.3z M631.5,460.2c0.5,0.8,1,1.8,1.4,2.9l-0.9,0.4c-0.4-1-0.9-2-1.4-2.9L631.5,460.2z
		 M638.2,460.6c-0.4,1-0.9,2-1.5,3l-0.9-0.4c0.6-1,1.1-2,1.5-3L638.2,460.6z"/>
</g>
<g>
	<path class="st4" d="M561.7,311.3h12.6v1h-6.7c-1.3,2.6-2.4,4.5-3.4,5.5c2.5-0.1,5-0.4,7.5-0.7c-0.5-0.9-1.1-1.8-1.7-2.8l0.8-0.5
		c1.3,1.9,2.3,3.6,3,5.1l-0.9,0.6c-0.2-0.5-0.5-1-0.7-1.5c-2.7,0.3-5.8,0.6-9.3,0.9l-0.3-1c0.1,0,0.1-0.1,0.2-0.1
		c0.9-0.7,2.1-2.5,3.6-5.5h-4.7V311.3z M563.1,307.4h10v1h-10V307.4z"/>
	<path class="st4" d="M577.5,314.6c-0.1,2-0.4,3.6-1,4.8l-0.8-0.7c0.6-1.2,0.8-2.9,0.9-4.8v-6.7h4.1v10.9c0,0.9-0.4,1.3-1.2,1.3
		h-1.1l-0.2-0.9c0.5,0,0.9,0.1,1.1,0.1c0.4,0,0.5-0.3,0.5-0.8v-3.2C579.8,314.6,577.5,314.6,577.5,314.6z M579.8,310.4V308h-2.3v2.4
		H579.8z M577.5,311.3v2.3h2.3v-2.3H577.5z M582.9,313.2v6.2h-1v-12.2h5.7c0,1.7-0.1,2.9-0.3,3.4c-0.2,0.6-0.7,0.9-1.6,0.9h-1.1
		l-0.3-0.9h0.9c0.3,0,0.6,0,0.7-0.1c0.2-0.1,0.3-0.2,0.4-0.4c0.1-0.3,0.2-1,0.2-2.1h-3.7v4.2h4.8v0.9c-0.3,1.4-0.7,2.7-1.4,3.7
		c0.6,0.6,1.4,1.2,2.2,1.7l-0.5,0.9c-0.9-0.5-1.6-1.1-2.3-1.7c-0.6,0.7-1.3,1.3-2.2,1.7l-0.5-0.8c0.8-0.4,1.5-1,2-1.7
		c-0.9-1.1-1.5-2.3-1.8-3.7H582.9z M584.1,313.2c0.3,1.1,0.8,2,1.5,2.9c0.5-0.8,0.9-1.8,1.1-2.9H584.1z"/>
	<path class="st4" d="M594.8,306.7c-0.1,0.3-0.3,0.7-0.5,1.1h6.1v0.8c-0.9,1-2,1.9-3.3,2.6c1.6,0.7,3.4,1.1,5.3,1.3l-0.5,0.9
		c-2.2-0.3-4.2-0.8-5.9-1.7c-1.7,0.8-3.7,1.4-6,1.7l-0.5-1c2-0.3,3.8-0.7,5.3-1.3c-0.8-0.4-1.5-1-2.2-1.6c-0.6,0.5-1.1,0.9-1.8,1.3
		l-0.6-0.8c1.7-1,2.8-2.2,3.4-3.5L594.8,306.7z M596.2,312.8c0,0.5,0,1-0.1,1.6h4.9c0,2.4-0.2,3.8-0.6,4.2c-0.4,0.5-1.1,0.7-2.1,0.7
		c-0.2,0-0.8,0-1.6-0.1l-0.3-0.9l1.7,0.1c0.8,0,1.4-0.2,1.6-0.5c0.2-0.3,0.3-1.2,0.4-2.6H596c-0.1,0.3-0.3,0.7-0.4,1
		c-0.7,1.3-2.4,2.3-4.9,3.1l-0.7-0.8c2.3-0.7,3.8-1.5,4.5-2.5c0.2-0.3,0.3-0.6,0.4-0.8h-4.2v-0.9h4.5c0.1-0.5,0.2-1,0.2-1.6
		C595.4,312.8,596.2,312.8,596.2,312.8z M599,308.7h-5.3l-0.2,0.2c0.8,0.7,1.6,1.3,2.6,1.8C597.1,310.1,598.1,309.5,599,308.7z"/>
	<path class="st4" d="M603.8,311.9h4.7c0.3-0.3,0.5-0.7,0.6-1.1l1,0.1c-0.1,0.3-0.3,0.6-0.5,1h3.6c-0.2-0.4-0.4-0.7-0.6-1l0.9-0.3
		c0.3,0.4,0.5,0.8,0.8,1.2h1.9v0.9h-3.8c0.9,0.9,2.3,1.5,4.1,2l-0.4,0.9c-0.2-0.1-0.5-0.2-1-0.3v4.1h-0.9v-0.6h-2.6v0.6h-0.9V315
		h3.7c-1.3-0.6-2.3-1.3-3-2.2H609c-0.8,0.9-1.8,1.6-3.2,2.2h3.5v4.4h-0.9v-0.6H606v0.6h-0.9v-4.1l-1.1,0.4l-0.5-0.8
		c1.8-0.5,3.2-1.2,4.1-2.1h-3.9L603.8,311.9L603.8,311.9z M605,307.1h4.3v3.4H605V307.1z M608.3,309.6V308h-2.4v1.7h2.4V309.6z
		 M606,317.9h2.4v-2.1H606V317.9z M610.8,307.1h4.4v3.4h-4.4V307.1z M611.6,317.9h2.6v-2.1h-2.6V317.9z M614.2,309.6V308h-2.5v1.7
		h2.5V309.6z"/>
</g>
<g>
	<g>
		<path class="st4" d="M553,308.8l-7.5-4l-7.5,4v7l4.2,2.3c0.1-0.3,0.3-0.6,0.5-0.9l-3.7-2v-4.7l6.5,3.5l6.5-3.5v4.7l-5.5,3
			c-0.3-0.2-0.6-0.4-1-0.4c-0.8,0-1.5,0.7-1.5,1.5c0,0.8,0.7,1.5,1.5,1.5s1.5-0.7,1.5-1.5c0-0.1,0-0.2,0-0.3l6-3.2V308.8z
			 M545.5,312.9l-6.5-3.5l6.5-3.5l6.5,3.5L545.5,312.9z"/>
	</g>
</g>
<g>
	<g>
		<path class="st5" d="M361.4,448.1h3.4c0.2-0.5,0.3-1,0.4-1.3l0.7,0.1c-0.1,0.3-0.2,0.8-0.4,1.3h6.2v0.6h-6.5c-0.4,1-1,2-1.6,2.9
			v6.2H363v-5.4c-0.5,0.6-1,1.1-1.5,1.5l-0.4-0.5c1.5-1.4,2.7-2.9,3.5-4.7h-3.1L361.4,448.1L361.4,448.1z M364.6,453.6h3.6v-1.2
			c0.8-0.4,1.4-0.9,2.1-1.5h-4.7v-0.6h5.5v0.6c-0.6,0.6-1.4,1.2-2.3,1.7v0.9h3.1v0.6h-3.1v2.5c0,0.6-0.3,0.9-0.9,0.9h-1.5l-0.2-0.6
			c0.6,0,1,0,1.4,0c0.4,0,0.6-0.2,0.6-0.6V454h-3.6L364.6,453.6L364.6,453.6z"/>
		<path class="st5" d="M374.2,450.7c-0.3,0.6-0.7,1.1-1,1.6l-0.2-0.7c1-1.4,1.7-3.1,2.1-4.8l0.6,0.3c-0.2,0.9-0.5,1.7-0.8,2.4v8.3
			h-0.6v-7.1H374.2z M375.4,450.5h2.1v5.3c0.3-0.3,0.7-0.7,1.1-1.2l0.2,0.6c-0.6,0.7-1.2,1.4-1.9,2l-0.3-0.6
			c0.1-0.1,0.2-0.3,0.2-0.4v-5h-1.4L375.4,450.5L375.4,450.5z M376.5,447.3c0.7,0.6,1.3,1.2,1.8,1.8l-0.5,0.5
			c-0.5-0.6-1-1.2-1.8-1.8L376.5,447.3z M379,448.2h1.5v-1.5h0.6v1.5h1.4v0.6h-1.4v1.7h0.5c0.7-0.9,1.2-1.9,1.7-3.1l0.5,0.3
			c-0.4,1-0.9,2-1.5,2.8h1.6v0.6h-2c-0.4,0.5-0.8,0.9-1.2,1.3h2.6v5.3h-0.6v-0.5h-2.5v0.5h-0.6v-4.4c-0.3,0.2-0.6,0.4-1,0.6
			l-0.3-0.5c1.1-0.5,2.1-1.2,2.9-2.1h-2.4v-0.6h1.8V449H379V448.2z M382.6,454.5V453h-2.5v1.5H382.6z M380.1,455v1.5h2.5V455H380.1z
			"/>
		<path class="st5" d="M392.9,456.5c-0.2-0.3-0.4-0.5-0.5-0.9c-0.7,0.9-1.5,1.6-2.3,2.1l-0.4-0.6c0.9-0.5,1.7-1.3,2.4-2.2
			c-0.2-0.4-0.3-1-0.4-1.5c-0.3-1.2-0.4-2.7-0.4-4.4h-6.1v-0.6h6.1v-1.6h0.6v1.6h2c-0.2-0.5-0.5-0.9-0.7-1.3l0.6-0.1
			c0.2,0.4,0.5,0.9,0.7,1.4h1.2v0.6H392c0,1.6,0.1,3,0.3,4.1c0.1,0.4,0.2,0.9,0.3,1.2c0.7-1.1,1.3-2.5,1.8-4.1l0.6,0.3
			c-0.6,1.8-1.3,3.4-2.1,4.6c0.1,0.3,0.3,0.6,0.5,0.9c0.4,0.6,0.8,1,1.2,1c0.3,0,0.6-0.7,0.9-2.2l0.5,0.4c-0.3,1.7-0.7,2.5-1.3,2.5
			C394,457.6,393.5,457.2,392.9,456.5z M390.5,455.5c-1.6,0.5-3.3,0.8-5.1,1.1l-0.2-0.7c1.8-0.2,3.6-0.6,5.3-1.1L390.5,455.5
			L390.5,455.5z M385.8,450.4h4.3v3.6h-4.3V450.4z M389.5,453.4V451h-3v2.4H389.5z"/>
		<path class="st5" d="M397,450.5h2.4v5.5c0.4-0.3,0.8-0.7,1.3-1.3l0.2,0.7c-0.6,0.7-1.3,1.3-2.1,1.8l-0.3-0.6
			c0.2-0.1,0.2-0.3,0.2-0.5V451H397V450.5z M398.3,446.9c0.8,0.6,1.5,1.3,2.1,1.9l-0.4,0.5c-0.5-0.6-1.2-1.2-2.1-1.9L398.3,446.9z
			 M404,446.7h0.6v0.9h3v0.6h-3v0.9h2.6v0.5h-2.6v1h3.3v0.6h-7.3v-0.6h3.3v-1h-2.5v-0.5h2.5v-0.9h-3v-0.6h3v-0.9H404z M402.2,455.7
			v1.9h-0.6V452h5.4v4.7c0,0.6-0.3,0.9-0.9,0.9h-1l-0.2-0.6h1c0.3,0,0.5-0.2,0.5-0.5v-0.9h-4.2V455.7z M406.4,453.7v-1h-4.1v1H406.4
			z M402.2,454.2v1h4.1v-1H402.2z"/>
		<path class="st5" d="M409.4,449h4.9v-2.3h0.6v2.3h4.7v0.6h-4.7v0.7c0.3,0.8,0.8,1.6,1.3,2.3c0.9-0.7,1.7-1.4,2.3-2.3l0.5,0.4
			c-0.7,0.9-1.5,1.6-2.4,2.3c0.9,1.2,2,2.2,3.4,3.1l-0.4,0.5c-2.1-1.4-3.6-3.2-4.6-5.2v5.1c0,0.7-0.3,1-1,1h-1.6l-0.1-0.6
			c0.7,0,1.2,0,1.5,0c0.4,0,0.6-0.2,0.6-0.6v-3.7c-1.3,1.6-2.8,3-4.6,4.1l-0.3-0.6c1.9-1,3.5-2.5,5-4.3v-2.3h-4.9V449H409.4z
			 M410.4,450.6c0.8,0.7,1.5,1.5,2.1,2.2l-0.4,0.4c-0.5-0.7-1.2-1.5-2.1-2.2L410.4,450.6z M416.5,446.8c0.7,0.5,1.3,1.1,1.9,1.7
			L418,449c-0.4-0.5-1.1-1.1-1.8-1.7L416.5,446.8z"/>
		<path class="st5" d="M422.5,450.6c-0.4,0.7-0.9,1.3-1.3,1.8l-0.2-0.7c1.2-1.5,2.1-3.2,2.7-5.1l0.6,0.3c-0.3,0.9-0.6,1.8-1.1,2.6
			v8.2h-0.6v-7.1H422.5z M424.2,448.4h7.8v0.6h-7.8V448.4z M431.1,453.7v4h-0.6V457h-4.7v0.7h-0.6v-4H431.1z M425.3,450.2h5.6v0.6
			h-5.6V450.2z M425.3,451.9h5.6v0.6h-5.6V451.9z M425.8,456.4h4.7v-2.1h-4.7V456.4z M428,446.7c0.3,0.5,0.5,1,0.6,1.4l-0.6,0.2
			c-0.2-0.5-0.4-1-0.7-1.5L428,446.7z"/>
		<path class="st5" d="M434.9,454.4c-0.3,1.1-0.7,2.1-1.2,2.9l-0.5-0.4c0.5-0.8,0.9-1.6,1.2-2.6L434.9,454.4z M434.9,447.7h2.6
			c0.2-0.3,0.3-0.6,0.4-1l0.7,0.1c-0.1,0.3-0.2,0.6-0.4,0.9h4.1v5.7h-7.4L434.9,447.7L434.9,447.7z M435.5,449.4h6.1v-1.2h-6.1
			V449.4z M435.5,451.1h6.1V450h-6.1V451.1z M441.6,452.8v-1.2h-6.1v1.2H441.6z M436.8,457.5c-0.6,0-0.9-0.3-0.9-0.9v-2.4h0.7v2.3
			c0,0.3,0.1,0.4,0.4,0.4h2.8c0.3,0,0.5-0.1,0.6-0.2c0.2-0.2,0.3-0.7,0.3-1.5l0.6,0.2c-0.1,1-0.2,1.6-0.5,1.8
			c-0.2,0.2-0.5,0.3-1,0.3H436.8L436.8,457.5z M438.2,453.8c0.7,0.6,1.2,1.2,1.6,1.7l-0.5,0.3c-0.4-0.5-0.9-1.1-1.6-1.7L438.2,453.8
			z M442.1,454.1c0.8,1,1.4,1.9,1.9,2.6l-0.5,0.4c-0.5-0.8-1.1-1.7-1.9-2.6L442.1,454.1z"/>
	</g>
</g>
<g>
	<g>
		<path class="st5" d="M725.4,385.6l-0.1-0.6c0.5,0,0.8,0,1,0c0.3,0,0.5-0.1,0.5-0.4v-3.3c-0.5,0.2-1,0.4-1.5,0.5l-0.2-0.6
			c0.6-0.1,1.1-0.3,1.7-0.5v-2.9h-1.5v-0.6h1.5v-2.3h0.6v2.3h1.3v0.6h-1.3v2.6c0.4-0.2,0.8-0.4,1.1-0.6v0.7
			c-0.6,0.3-0.9,0.5-1.1,0.6v3.8c0,0.5-0.3,0.8-0.9,0.8h-1.1V385.6z M728.8,380.2h6.8v0.6h-3.1v1.5h2.6v0.7h-2.6v1.8
			c0.6,0.1,1.2,0.1,1.8,0.1c0.5,0,1,0,1.5,0l-0.2,0.6c-0.4,0-0.8,0-1.3,0c-1.6,0-2.7-0.2-3.2-0.5s-0.9-0.8-1.3-1.6
			c-0.3,0.8-0.7,1.6-1.3,2.3l-0.5-0.4c1-1.1,1.5-2.4,1.6-3.8l0.6,0.1c0,0.4-0.1,0.8-0.2,1.2c0.4,0.9,0.9,1.5,1.4,1.7
			c0.1,0.1,0.3,0.1,0.4,0.1v-3.8h-3.1L728.8,380.2L728.8,380.2z M729.7,375.2h5.1v4h-5.1V375.2z M730.3,377h3.9v-1.2h-3.9V377z
			 M734.2,378.7v-1.2h-3.9v1.2H734.2z"/>
		<path class="st5" d="M738.6,378.6c-0.5,0.6-1,1.2-1.5,1.8l-0.2-0.7c1.4-1.5,2.4-3.2,3-5.1l0.6,0.3c-0.3,1-0.7,1.9-1.2,2.7v8.1
			h-0.6L738.6,378.6L738.6,378.6z M740.6,377.4h1.6v-2.6h0.6v2.6h2.4v-2.6h0.6v2.6h1.7v0.6H746v3h2v0.6h-7.7V381h2v-3h-1.6v-0.6
			H740.6z M743.2,382.6c-0.6,1.2-1.4,2.2-2.2,3l-0.6-0.4c0.8-0.8,1.6-1.8,2.2-2.9L743.2,382.6z M742.9,381h2.4v-3h-2.4V381z
			 M745.5,382.2c1,1.1,1.8,2.1,2.4,3l-0.6,0.4c-0.6-0.9-1.3-1.9-2.3-3.1L745.5,382.2z"/>
		<path class="st5" d="M754.5,374.7c0.1,0.3,0.3,0.7,0.4,1.1h4.8v0.6h-10.5v-0.6h5c-0.1-0.4-0.3-0.7-0.4-1L754.5,374.7z
			 M756.9,385.7l-0.2-0.6h1c0.5,0,0.8-0.2,0.8-0.6V381h-8v4.7h-0.6v-5.3h9.2v4.2c0,0.7-0.4,1.1-1.2,1.1
			C757.9,385.7,756.9,385.7,756.9,385.7z M751.2,377.3h6.5v2.2h-6.5V377.3z M757.1,379v-1.2h-5.3v1.2H757.1z M752.2,381.9h4.6v2.3
			h-4.6V381.9z M756.2,383.7v-1.3h-3.4v1.3H756.2z"/>
		<path class="st5" d="M761.2,375.5h10.6v0.6h-1.6v8.3c0,0.7-0.4,1.1-1.1,1.1h-2L767,385c0.9,0,1.5,0,1.9,0s0.7-0.2,0.7-0.7v-8.2
			h-8.4V375.5z M767.1,378.2v4.2h-3.9v1.1h-0.6v-5.3C762.6,378.2,767.1,378.2,767.1,378.2z M763.3,381.8h3.2v-3.1h-3.2V381.8z"/>
		<path class="st5" d="M774.9,381.7c-0.1,1.6-0.6,2.8-1.4,3.9l-0.5-0.4c0.8-1.1,1.2-2.5,1.2-4.2v-5.7h8.8v9c0,0.8-0.4,1.2-1.2,1.2
			h-1.4l-0.2-0.6c0.5,0,0.9,0,1.3,0c0.5,0,0.7-0.3,0.7-0.8v-2.3h-3.5v3.6h-0.6v-3.6L774.9,381.7L774.9,381.7z M774.9,378.8v2.2v0.1
			h3.3v-2.3C778.2,378.8,774.9,378.8,774.9,378.8z M778.2,375.9h-3.3v2.3h3.3V375.9z M782.4,378.2v-2.3h-3.5v2.3H782.4z
			 M782.4,381.1v-2.3h-3.5v2.3H782.4z"/>
		<path class="st5" d="M789.3,376.9v8.1h-0.6v-0.7h-2.4v1.1h-0.6V377h1.1c0.2-0.7,0.4-1.4,0.5-2.1l0.7,0.1c-0.1,0.7-0.3,1.4-0.6,2.1
			h1.9V376.9z M786.2,380.2h2.4v-2.7h-2.4V380.2z M786.2,383.6h2.4v-2.8h-2.4V383.6z M795.5,376.9c0,3.8-0.1,6.2-0.2,7.2
			c-0.1,1-0.7,1.4-1.7,1.4h-1.2l-0.2-0.6c0.5,0,0.9,0,1.3,0c0.6,0,1-0.4,1.1-1.1c0.1-0.7,0.1-2.8,0.2-6.3h-3.5
			c-0.3,0.8-0.7,1.5-1.2,2.1l-0.4-0.5c0.9-1.2,1.5-2.7,1.8-4.4l0.6,0.1c-0.2,0.8-0.3,1.5-0.6,2.1
			C791.5,376.9,795.5,376.9,795.5,376.9z M791.3,379.6c0.9,1,1.6,1.9,2.1,2.6l-0.5,0.4c-0.5-0.8-1.2-1.7-2.1-2.7L791.3,379.6z"/>
		<path class="st5" d="M725.4,394.1h3.4c0.2-0.5,0.3-1,0.4-1.3l0.7,0.1c-0.1,0.3-0.2,0.8-0.4,1.3h6.2v0.6h-6.5c-0.4,1-1,2-1.6,2.9
			v6.2H727v-5.4c-0.5,0.6-1,1.1-1.5,1.5l-0.4-0.5c1.5-1.4,2.7-2.9,3.5-4.7h-3.1v-0.7H725.4z M728.6,399.6h3.6v-1.2
			c0.8-0.4,1.4-0.9,2.1-1.5h-4.7v-0.6h5.5v0.6c-0.6,0.6-1.4,1.2-2.3,1.7v0.9h3.1v0.6h-3.1v2.5c0,0.6-0.3,0.9-0.9,0.9h-1.5l-0.2-0.6
			c0.6,0,1,0,1.4,0s0.6-0.2,0.6-0.6V400h-3.6L728.6,399.6L728.6,399.6z"/>
		<path class="st5" d="M738.2,396.7c-0.3,0.6-0.7,1.1-1,1.6l-0.2-0.7c1-1.4,1.7-3.1,2.1-4.8l0.6,0.3c-0.2,0.9-0.5,1.7-0.8,2.4v8.3
			h-0.6L738.2,396.7L738.2,396.7z M739.4,396.5h2.1v5.3c0.3-0.3,0.7-0.7,1.1-1.2l0.2,0.6c-0.6,0.7-1.2,1.4-1.9,2l-0.3-0.6
			c0.1-0.1,0.2-0.3,0.2-0.4v-5h-1.4L739.4,396.5L739.4,396.5z M740.5,393.3c0.7,0.6,1.3,1.2,1.8,1.8l-0.5,0.5
			c-0.5-0.6-1-1.2-1.8-1.8L740.5,393.3z M743,394.2h1.5v-1.5h0.6v1.5h1.4v0.6h-1.4v1.7h0.5c0.7-0.9,1.2-1.9,1.7-3.1l0.5,0.3
			c-0.4,1-0.9,2-1.5,2.8h1.6v0.6h-2c-0.4,0.5-0.8,0.9-1.2,1.3h2.6v5.3h-0.6v-0.5h-2.5v0.5h-0.6v-4.4c-0.3,0.2-0.6,0.4-1,0.6
			l-0.3-0.5c1.1-0.5,2.1-1.2,2.9-2.1h-2.4v-0.6h1.8V395H743V394.2z M746.6,400.5V399h-2.5v1.5H746.6z M744.1,401v1.5h2.5V401H744.1z
			"/>
		<path class="st5" d="M750.6,399.5c-0.1,1.7-0.3,3.1-0.8,4.2l-0.5-0.4c0.5-1.1,0.7-2.6,0.7-4.3v-5.7h3.3v9.3c0,0.7-0.3,1-0.9,1h-1
			l-0.2-0.6c0.4,0,0.8,0,0.9,0c0.3,0,0.5-0.2,0.5-0.7v-2.9h-2V399.5z M752.7,396.1v-2.2h-2.1v2.2H752.7z M750.6,396.7v2.2h2.1v-2.2
			H750.6z M755.1,398.3v5.4h-0.6v-10.4h4.7c0,1.4-0.1,2.4-0.2,2.8c-0.1,0.5-0.6,0.7-1.3,0.7h-0.9l-0.2-0.6h0.8c0.3,0,0.5,0,0.7-0.1
			c0.2,0,0.3-0.2,0.3-0.4c0.1-0.3,0.2-1,0.2-2h-3.5v3.8h4.1v0.6c-0.3,1.3-0.7,2.4-1.3,3.3c0.6,0.6,1.3,1.1,2.1,1.5l-0.3,0.5
			c-0.8-0.5-1.6-1-2.1-1.6c-0.5,0.7-1.2,1.2-1.9,1.6l-0.3-0.5c0.7-0.4,1.4-0.9,1.8-1.5c-0.8-1-1.4-2.1-1.7-3.3h-0.4V398.3z
			 M756,398.3c0.3,1,0.7,2,1.5,2.8c0.5-0.8,0.9-1.7,1.1-2.8H756z"/>
		<path class="st5" d="M765.4,392.8c-0.1,0.3-0.3,0.7-0.5,1h5.3v0.5c-0.8,0.9-1.8,1.7-3,2.4c1.4,0.6,3,1,4.7,1.2l-0.3,0.6
			c-1.9-0.2-3.6-0.7-5.1-1.5c-1.5,0.7-3.2,1.2-5.2,1.5l-0.3-0.6c1.8-0.3,3.4-0.7,4.8-1.3c-0.8-0.5-1.5-1-2.1-1.5
			c-0.5,0.5-1,0.9-1.6,1.2l-0.4-0.5c1.5-0.8,2.5-1.9,3-3.1L765.4,392.8z M766.5,398c0,0.5,0,1-0.1,1.5h4.3c0,2-0.2,3.2-0.6,3.5
			c-0.4,0.4-1,0.6-1.8,0.6c-0.4,0-0.8,0-1.3,0l-0.2-0.6c0.7,0,1.2,0,1.3,0c0.8,0,1.3-0.2,1.5-0.5s0.3-1.1,0.4-2.5h-3.8
			c-0.1,0.4-0.3,0.7-0.4,1c-0.6,1.1-2,2-4.2,2.7l-0.4-0.5c2-0.6,3.3-1.3,4-2.3c0.2-0.2,0.3-0.5,0.4-0.9h-3.7v-0.6h3.9
			c0.1-0.5,0.2-1,0.2-1.5h0.5V398z M769.3,394.4h-4.8c-0.1,0.1-0.2,0.2-0.2,0.3c0.7,0.6,1.5,1.2,2.4,1.6
			C767.6,395.8,768.5,395.2,769.3,394.4z"/>
	</g>
</g>
<g>
	<g>
		<defs>
			<path id="SVGID_1_" d="M855,734h2v-8h-2V734z M839.7,720H863v15h2v-17h-25.3c-0.3-0.6-1-1-1.7-1c-1.1,0-2,0.9-2,2s0.9,2,2,2
				C838.7,721,839.4,720.6,839.7,720z M864,739c-0.7,0-1.4,0.4-1.7,1H839v-15h-2v17h25.3c0.3,0.6,1,1,1.7,1c1.1,0,2-0.9,2-2
				S865.1,739,864,739z M852,728c0-1.1-0.9-2-2-2h-4v8h4c1.1,0,2-0.9,2-2v-1c0-0.4-0.1-0.7-0.3-1c0.2-0.3,0.3-0.6,0.3-1V728z
				 M850,732L850,732h-2v-1h2V732z M848,729h2v-1h-2V729z"/>
		</defs>
		<clipPath id="SVGID_2_">
			<use xlink:href="#SVGID_1_"  style="overflow:visible;"/>
		</clipPath>
	</g>
</g>
<g>
	<g>
		<g>
			<defs>
				<path id="SVGID_3_" d="M-32,734h2v-8h-2V734z M-47.3,720H-24v15h2v-17h-25.3c-0.3-0.6-1-1-1.7-1c-1.1,0-2,0.9-2,2s0.9,2,2,2
					C-48.3,721-47.6,720.6-47.3,720z M-23,739c-0.7,0-1.4,0.4-1.7,1H-48v-15h-2v17h25.3c0.3,0.6,1,1,1.7,1c1.1,0,2-0.9,2-2
					S-21.9,739-23,739z M-35,728c0-1.1-0.9-2-2-2h-4v8h4c1.1,0,2-0.9,2-2v-1c0-0.4-0.1-0.7-0.3-1c0.2-0.3,0.3-0.6,0.3-1V728z
					 M-37,732L-37,732h-2v-1h2V732z M-39,729h2v-1h-2V729z"/>
			</defs>
			<clipPath id="SVGID_4_">
				<use xlink:href="#SVGID_3_"  style="overflow:visible;"/>
			</clipPath>
		</g>
	</g>
</g>
<g>
	
		<image style="overflow:visible;opacity:0.35;enable-background:new    ;" width="129" height="50" xlink:href="F1740FF62E85CE47.png"  transform="matrix(1 0 0 1 336 388)">
	</image>
	<g>
		<rect x="339.5" y="390" class="st1" width="122" height="44"/>
	</g>
</g>
<rect x="350.5" y="396" class="st2" width="32" height="32"/>
<g>
	<path class="st3" d="M404.2,409v6.4h-1V410h-6.9v5.5h-1v-6.1c-0.4,0.3-0.8,0.6-1.3,0.9l-0.6-0.8c1.7-1,3.1-2.4,4.2-4.1l1,0.2
		c-0.2,0.4-0.5,0.7-0.6,1h4.6v0.7c-0.5,0.7-1,1.2-1.5,1.7C401.1,409,404.2,409,404.2,409z M399.3,410.8h1v1.9
		c-0.1,1.5-0.5,2.7-1.5,3.6c-0.9,0.8-2.4,1.5-4.4,1.9l-0.5-0.9c2-0.4,3.4-1,4.2-1.8c0.7-0.7,1.1-1.7,1.2-2.9L399.3,410.8
		L399.3,410.8z M400,409c0.5-0.4,1-1,1.4-1.5h-4.1c-0.4,0.5-0.9,1-1.5,1.5H400z M400.6,415c1.9,0.7,3.6,1.5,5.1,2.4l-0.6,0.9
		c-1.6-1.1-3.3-1.9-5-2.5L400.6,415z"/>
	<path class="st3" d="M408.1,406.6h2.7v-1.2h1v1.2h2.5v0.9h-2.5v1.3h3.4c-0.1-1.1-0.1-2.2-0.1-3.4h1c0,1.3,0,2.4,0.1,3.4h3.5v0.9
		h-3.5c0.1,1.3,0.2,2.3,0.4,3.1c0.1,0.4,0.2,0.7,0.3,1.1c0.5-1,0.9-2.2,1.2-3.5l0.9,0.4c-0.4,1.8-1,3.2-1.7,4.4
		c0.1,0.3,0.2,0.6,0.4,0.9c0.4,0.7,0.7,1,0.9,1c0.2,0,0.4-0.8,0.6-2.2l0.9,0.5c-0.3,1.9-0.8,2.8-1.3,2.8s-1-0.4-1.5-1.3
		c-0.2-0.3-0.3-0.5-0.4-0.8c-0.7,0.9-1.5,1.7-2.5,2.2l-0.5-0.8c1-0.6,1.9-1.4,2.6-2.4c-0.2-0.7-0.4-1.3-0.5-2
		c-0.2-1-0.4-2.1-0.4-3.3h-7.9v-0.9h3.5v-1.3h-2.7v-1H408.1z M414.3,416.3c-0.1,0-0.5,0.1-1.1,0.1l-1.1,0.1v1.7h-1v-1.6
		c-0.8,0.1-1.9,0.2-3.2,0.3l-0.1-0.9c1-0.1,2.1-0.1,3.3-0.2v-1.2h-2.7l-0.2-0.8c0.4-0.5,0.8-1.1,1.1-1.8h-1.5v-1h1.9
		c0.1-0.2,0.2-0.6,0.4-1.1l1,0.2c-0.1,0.3-0.2,0.6-0.3,0.9h3.7v0.9h-4.1c-0.3,0.6-0.6,1.2-1,1.7h1.8v-1.1h1v1.1h2.1v0.9h-2.1v1.1
		c0.8-0.1,1.5-0.2,2.2-0.3L414.3,416.3L414.3,416.3z M417.5,405.5c0.7,0.8,1.3,1.5,1.6,2.1l-0.8,0.5c-0.4-0.6-0.9-1.3-1.6-2.1
		L417.5,405.5z"/>
	<path class="st3" d="M421.2,409.1h1.5v-3.7h1v3.7h1.4v1h-1.4v4.7c0.7-0.2,1.4-0.4,2-0.7v1c-1.4,0.5-2.8,1-4.4,1.3l-0.3-1.1
		c0.6-0.1,1.2-0.2,1.7-0.3v-5h-1.5L421.2,409.1L421.2,409.1z M428.9,405.5c-0.2,0.7-0.4,1.4-0.6,2.1h5.1c0,4.8-0.1,7.8-0.3,8.9
		c-0.2,1.1-0.8,1.7-2.1,1.7l-1.9-0.1l-0.3-1c1,0,1.7,0.1,2,0.1c0.7,0,1.2-0.4,1.3-1.1c0.1-0.8,0.2-3.3,0.2-7.6h-4.5
		c-0.5,1-1.1,1.9-1.8,2.7l-0.7-0.9c1.2-1.4,2-3.1,2.4-5.1L428.9,405.5z M431.3,413.9c-1.2,0.8-2.7,1.6-4.5,2.2l-0.4-1
		c1.8-0.6,3.3-1.3,4.6-2.2L431.3,413.9z M428.2,410c0.9,0.6,1.6,1.3,2.2,1.9l-0.7,0.7c-0.5-0.6-1.3-1.3-2.2-2L428.2,410z"/>
	<path class="st3" d="M438.5,409.5c-0.3,0.7-0.6,1.3-1,1.9v6.9h-0.9v-5.7c-0.4,0.4-0.8,0.8-1.3,1.2l-0.3-0.9
		c1.2-1.1,2.1-2.3,2.7-3.7L438.5,409.5z M438.3,405.8c-0.6,1.5-1.6,2.8-3,4l-0.3-1c1.1-1,1.9-2.1,2.4-3.4L438.3,405.8z M438.9,408.7
		l-0.1,0.1l-0.6-0.7c1-0.7,1.8-1.6,2.5-2.8l1,0.2c-0.2,0.3-0.3,0.6-0.5,0.8h2.2v0.7c-0.3,0.5-0.6,0.9-0.9,1.3h1.6v5H442
		c0,0.4,0,0.7-0.1,1h2.7v0.9h-2.9l-0.1,0.2c1,0.5,1.9,1.1,2.6,1.7l-0.5,0.8c-0.8-0.8-1.6-1.4-2.4-1.8c-0.4,0.8-1.2,1.5-2.3,2
		l-0.6-0.7c1.1-0.6,1.9-1.2,2.2-2l0.1-0.2h-2.2v-0.9h2.5c0-0.3,0.1-0.6,0.1-1H439v-4.6H438.9z M441.4,408.3c0.3-0.4,0.6-0.7,0.9-1.1
		h-1.8c-0.3,0.4-0.7,0.8-1.1,1.1H441.4z M439.7,410.5h1.3v-1.4h-1.3V410.5z M441.1,412.6v-1.4h-1.3v1.4H441.1z M441.9,409.1v1.4h1.3
		v-1.4H441.9z M443.2,412.6v-1.4h-1.3v1.4H443.2z M444.8,418.2l-0.2-0.9c0.3,0,0.6,0.1,0.8,0.1c0.3,0,0.5-0.2,0.5-0.5v-6h-1.5v-1
		h3.5v1h-1v6.2c0,0.7-0.4,1.1-1.1,1.1C445.8,418.2,444.8,418.2,444.8,418.2z M444.6,406.4h3.1v0.9h-3.1V406.4z"/>
</g>
<g>
	<g>
		<defs>
			<path id="SVGID_5_" d="M370.6,410c-1.1,0-2,0.9-2,2s0.9,2,2,2s2-0.9,2-2S371.7,410,370.6,410z M366.6,425c-7.2,0-13-5.8-13-13
				s5.8-13,13-13c6.5,0,11.9,4.8,12.8,11h2c-1-7.3-7.2-13-14.9-13c-8.3,0-15,6.7-15,15s6.7,15,15,15c7.6,0,13.9-5.7,14.9-13h-2
				C378.4,420.2,373.1,425,366.6,425z M370.6,415c-1.1,0-2,0.9-2,2s0.9,2,2,2s2-0.9,2-2S371.7,415,370.6,415z M366.6,408v-2h-6v1v1
				v3v2v3v1v1h6v-2h-4v-3h4v-2h-4v-3H366.6z M370.6,405c-1.1,0-2,0.9-2,2s0.9,2,2,2s2-0.9,2-2S371.7,405,370.6,405z"/>
		</defs>
		<clipPath id="SVGID_6_">
			<use xlink:href="#SVGID_5_"  style="overflow:visible;"/>
		</clipPath>
		<g class="st7">
			<g>
				<defs>
					<rect id="SVGID_7_" x="-49.4" y="-3270" width="1920" height="5639"/>
				</defs>
				<clipPath id="SVGID_8_">
					<use xlink:href="#SVGID_7_"  style="overflow:visible;"/>
				</clipPath>
				<rect x="346.6" y="392" class="st8" width="39.9" height="40"/>
			</g>
		</g>
		<g class="st7">
			<g>
				<g>
					<defs>
						<path id="SVGID_9_" d="M-516.4,410c-1.1,0-2,0.9-2,2s0.9,2,2,2s2-0.9,2-2S-515.3,410-516.4,410z M-520.4,425
							c-7.2,0-13-5.8-13-13s5.8-13,13-13c6.5,0,11.9,4.8,12.8,11h2c-1-7.3-7.2-13-14.9-13c-8.3,0-15,6.7-15,15s6.7,15,15,15
							c7.6,0,13.9-5.7,14.9-13h-2C-508.6,420.2-513.9,425-520.4,425z M-516.4,415c-1.1,0-2,0.9-2,2s0.9,2,2,2s2-0.9,2-2
							S-515.3,415-516.4,415z M-520.4,408v-2h-6v1v1v3v2v3v1v1h6v-2h-4v-3h4v-2h-4v-3H-520.4z M-516.4,405c-1.1,0-2,0.9-2,2
							s0.9,2,2,2s2-0.9,2-2S-515.3,405-516.4,405z"/>
					</defs>
					<clipPath id="SVGID_10_">
						<use xlink:href="#SVGID_9_"  style="overflow:visible;"/>
					</clipPath>
				</g>
			</g>
		</g>
	</g>
</g>
<g>
	<path class="st3" d="M594.1,405.4l-5,12.9h-1l5-12.9H594.1z"/>
	<path class="st3" d="M606.2,406.8h5.1v1H601v3.1c-0.1,3.1-0.5,5.5-1.4,7.4l-0.8-0.7c0.8-1.6,1.2-3.8,1.2-6.7v-4.1h5.2
		c-0.2-0.4-0.5-0.9-0.8-1.3l1.1-0.2C605.7,405.8,606,406.3,606.2,406.8z M607.1,416.7c0.9-2,1.6-4.4,2.3-7.4l1,0.3
		c-0.6,2.7-1.3,5-2.2,7.1h3v1h-9.9v-1H607.1z M604.3,415.2l-1,0.2c-0.4-1.8-0.9-3.5-1.4-5.1l0.9-0.3
		C603.3,411.5,603.8,413.3,604.3,415.2z M606.8,414.4l-1,0.2c-0.3-1.8-0.7-3.6-1.2-5.3l0.9-0.3C605.9,410.6,606.4,412.4,606.8,414.4
		z"/>
	<path class="st3" d="M613.5,418.2l-0.8-0.7c0.9-1.2,1.4-2.8,1.4-4.7V406h10.4v10.5c0,1-0.5,1.5-1.5,1.5h-1.6l-0.3-1
		c0.6,0,1.1,0.1,1.6,0.1c0.5,0,0.8-0.3,0.8-0.9v-2.4h-3.8v4.1h-1v-4.1H615C614.9,415.5,614.4,417,613.5,418.2z M615.1,407v2.4h3.6
		V407H615.1z M615.1,412.8h3.6v-2.5h-3.6V412.8z M623.5,407h-3.8v2.4h3.8V407z M623.5,410.4h-3.8v2.5h3.8V410.4z"/>
</g>
</svg>
