<?xml version="1.0" encoding="utf-8"?>
<!-- Generator: Adobe Illustrator 21.0.0, SVG Export Plug-In . SVG Version: 6.00 Build 0)  -->
<svg version="1.1" id="图层_1" xmlns="http://www.w3.org/2000/svg" xmlns:xlink="http://www.w3.org/1999/xlink" x="0px" y="0px"
	 width="820px" height="255px" viewBox="0 0 820 255" style="enable-background:new 0 0 820 255;" xml:space="preserve">
<style type="text/css">
	.st0{opacity:0.5;}
	.st1{fill:url(#SVGID_1_);}
	.st2{fill:#FFFFFF;}
	.st3{fill:url(#SVGID_2_);}
	.st4{opacity:0.2;}
	.st5{fill:url(#SVGID_3_);}
	.st6{fill:url(#SVGID_4_);}
	.st7{fill:url(#SVGID_5_);}
	.st8{fill:url(#SVGID_6_);}
	.st9{fill:url(#SVGID_7_);}
	.st10{opacity:0.2;fill:url(#SVGID_8_);}
	.st11{fill:url(#SVGID_9_);}
	.st12{fill:#999999;}
	.st13{fill:#E5E5E5;}
	.st14{fill:#333333;}
	.st15{fill:#666666;}
	.st16{opacity:0.2;fill:url(#SVGID_10_);}
	.st17{fill:url(#SVGID_11_);}
	.st18{fill:url(#SVGID_12_);}
	.st19{fill:url(#SVGID_13_);}
	.st20{fill:url(#SVGID_14_);}
	.st21{fill:url(#SVGID_15_);}
	.st22{fill:url(#SVGID_16_);}
	.st23{fill:url(#SVGID_17_);}
	.st24{fill:url(#SVGID_18_);}
	.st25{fill:url(#SVGID_19_);}
	.st26{fill:url(#SVGID_20_);}
	.st27{fill:url(#SVGID_21_);}
	.st28{fill:url(#SVGID_22_);}
	.st29{fill:url(#SVGID_23_);}
	.st30{fill:url(#SVGID_24_);}
	.st31{fill:url(#SVGID_25_);}
	.st32{fill:url(#SVGID_26_);}
	.st33{fill:url(#SVGID_27_);}
	.st34{fill:url(#SVGID_28_);}
	.st35{fill:url(#SVGID_29_);}
	.st36{fill:url(#SVGID_30_);}
	.st37{fill:url(#SVGID_31_);}
	.st38{fill:url(#SVGID_32_);}
	.st39{opacity:0.2;fill:url(#SVGID_33_);}
	.st40{fill:url(#SVGID_34_);}
	.st41{fill:url(#SVGID_35_);}
	.st42{fill:url(#SVGID_36_);}
	.st43{fill:url(#SVGID_37_);}
	.st44{fill:url(#SVGID_38_);}
	.st45{fill:url(#SVGID_39_);}
	.st46{opacity:0.2;fill:url(#SVGID_40_);}
	.st47{fill:url(#SVGID_41_);}
	.st48{fill:url(#SVGID_42_);}
	.st49{opacity:0.2;fill:url(#SVGID_43_);}
	.st50{fill:url(#SVGID_44_);}
	.st51{fill:url(#SVGID_45_);}
	.st52{opacity:0.2;fill:url(#SVGID_46_);}
	.st53{fill:url(#SVGID_47_);}
	.st54{fill:url(#SVGID_48_);}
	.st55{fill:url(#SVGID_49_);}
	.st56{fill:url(#SVGID_50_);}
	.st57{fill:url(#SVGID_51_);}
	.st58{fill:url(#SVGID_52_);}
	.st59{fill:url(#SVGID_53_);}
	.st60{fill:url(#SVGID_54_);}
	.st61{fill:url(#SVGID_55_);}
	.st62{fill:url(#SVGID_56_);}
	.st63{fill:url(#SVGID_57_);}
	.st64{fill:url(#SVGID_58_);}
	.st65{opacity:0.2;fill:url(#SVGID_59_);}
	.st66{fill:url(#SVGID_60_);}
	.st67{fill:url(#SVGID_61_);}
	.st68{fill:url(#SVGID_62_);}
	.st69{fill:url(#SVGID_63_);}
	.st70{fill:url(#SVGID_64_);}
	.st71{fill:url(#SVGID_65_);}
	.st72{fill:url(#SVGID_66_);}
	.st73{fill:url(#SVGID_67_);}
	.st74{fill:url(#SVGID_68_);}
	.st75{fill:url(#SVGID_69_);}
	.st76{opacity:0.2;fill:url(#SVGID_70_);}
	.st77{fill:url(#SVGID_71_);}
</style>
<g class="st4">
	
		<linearGradient id="SVGID_1_" gradientUnits="userSpaceOnUse" x1="236" y1="-526" x2="304" y2="-594" gradientTransform="matrix(1 0 0 -1 0 -496)">
		<stop  offset="0" style="stop-color:#00C8DC"/>
		<stop  offset="1" style="stop-color:#006EFF"/>
	</linearGradient>
	<rect x="218" y="48" class="st1" width="104" height="32"/>
</g>
<g>
	<rect x="401" y="97" class="st13" width="8" height="2"/>
	<rect x="413" y="97" class="st13" width="8" height="2"/>
	<rect x="425" y="97" class="st13" width="8" height="2"/>
	<rect x="365" y="97" class="st13" width="8" height="2"/>
	<rect x="353" y="97" class="st13" width="8" height="2"/>
	<rect x="341" y="97" class="st13" width="8" height="2"/>
	<rect x="377" y="97" class="st13" width="8" height="2"/>
	<rect x="389" y="97" class="st13" width="8" height="2"/>
	<rect x="437" y="97" class="st13" width="8" height="2"/>
	<rect x="449" y="97" class="st13" width="8" height="2"/>
	<rect x="461" y="97" class="st13" width="8" height="2"/>
	<polygon class="st13" points="473,94 473,102 480,98 	"/>
</g>
<g>
	<path class="st14" d="M242.1,182.1h5.1v1h-10.4v3.1c-0.1,3.1-0.5,5.5-1.4,7.4l-0.8-0.7c0.8-1.6,1.2-3.8,1.2-6.7v-4.1h5.2
		c-0.2-0.4-0.5-0.9-0.8-1.3l1.1-0.2C241.6,181.1,241.9,181.6,242.1,182.1z M243,192c0.9-2,1.6-4.4,2.3-7.4l1,0.3
		c-0.6,2.7-1.3,5-2.2,7.1h3v1h-9.9v-1H243z M240.2,190.5l-1,0.2c-0.4-1.8-0.9-3.5-1.4-5.1l0.9-0.3
		C239.2,186.8,239.7,188.5,240.2,190.5z M242.7,189.7l-1,0.2c-0.3-1.8-0.7-3.6-1.2-5.3l0.9-0.3C241.8,185.9,242.3,187.7,242.7,189.7
		z"/>
	<path class="st14" d="M249.4,193.5l-0.8-0.7c0.9-1.2,1.4-2.8,1.4-4.7v-6.7h10.4v10.5c0,1-0.5,1.5-1.5,1.5h-1.6l-0.3-1
		c0.6,0,1.1,0.1,1.6,0.1c0.5,0,0.8-0.3,0.8-0.9V189h-3.8v4.1h-1V189h-3.6C250.8,190.8,250.3,192.3,249.4,193.5z M251,182.3v2.4h3.6
		v-2.4H251z M251,188.1h3.6v-2.5H251V188.1z M259.4,182.3h-3.8v2.4h3.8V182.3z M259.4,185.7h-3.8v2.5h3.8V185.7z"/>
	<path class="st14" d="M268.9,180.8v4.3h5.2v1h-5.2v6h6.4v1h-12.5v-1h5v-11.3H268.9z"/>
	<path class="st14" d="M280.1,180.8v1.3h2.7c0,2.4-0.2,3.8-0.4,4.3c-0.3,0.5-0.8,0.7-1.5,0.7c-0.2,0-0.5,0-0.8-0.1l-0.3-0.9l0.8,0.1
		c0.5,0,0.8-0.2,1-0.5c0.1-0.3,0.2-1.2,0.2-2.7H280c-0.3,2-1.1,3.4-2.6,4.4l-0.7-0.7c1.3-0.8,2.1-2.1,2.4-3.8h-2v-0.9h2.1v-1.3
		H280.1z M282.5,188.3v-1.1h1v1.1h5.6v1h-4.7c1,1.1,2.6,2.1,4.8,3l-0.7,0.9c-2.4-1.2-4-2.5-5-3.9h-0.1v4.3h-1v-4.3h-0.1
		c-1,1.6-2.7,2.9-5.1,3.9l-0.6-0.9c2.2-0.8,3.8-1.8,4.8-3h-4.7v-1H282.5z M288.5,181.8v4.8H284v-4.8H288.5z M287.6,182.7H285v3h2.6
		V182.7z"/>
	<path class="st14" d="M300.4,181c-0.3,0.6-0.6,1.1-1,1.5h3.8v1h-12.5v-1h3.8c-0.3-0.6-0.6-1.1-0.9-1.6l1.1-0.2
		c0.3,0.5,0.6,1.1,0.9,1.8h2.7c0.4-0.6,0.8-1.2,1.1-1.8L300.4,181z M294.5,193.5l-0.3-1l1.1,0c0.4,0,0.5-0.2,0.5-0.7v-1.3h-3.1v3.1
		h-1v-9h5.1v7.5c0,1-0.4,1.4-1.2,1.4H294.5z M295.8,187.2v-1.6h-3.1v1.6H295.8z M295.8,189.7v-1.6h-3.1v1.6H295.8z M299.3,185.3v6
		h-1v-6H299.3z M299.2,193.5l-0.2-1c0.6,0,1.2,0.1,1.7,0.1c0.4,0,0.6-0.2,0.6-0.6v-7.7h1v8c0,0.9-0.4,1.3-1.2,1.3H299.2z"/>
</g>
<g>
	<path class="st14" d="M524.1,182.1h5.1v1h-10.4v3.1c-0.1,3.1-0.5,5.5-1.4,7.4l-0.8-0.7c0.8-1.6,1.2-3.8,1.2-6.7v-4.1h5.2
		c-0.2-0.4-0.5-0.9-0.8-1.3l1.1-0.2C523.6,181.1,523.9,181.6,524.1,182.1z M525,192c0.9-2,1.6-4.4,2.3-7.4l1,0.3
		c-0.6,2.7-1.3,5-2.2,7.1h3v1h-9.9v-1H525z M522.2,190.5l-1,0.2c-0.4-1.8-0.9-3.5-1.4-5.1l0.9-0.3
		C521.2,186.8,521.7,188.5,522.2,190.5z M524.7,189.7l-1,0.2c-0.3-1.8-0.7-3.6-1.2-5.3l0.9-0.3C523.8,185.9,524.3,187.7,524.7,189.7
		z"/>
	<path class="st14" d="M531.4,193.5l-0.8-0.7c0.9-1.2,1.4-2.8,1.4-4.7v-6.7h10.4v10.5c0,1-0.5,1.5-1.5,1.5h-1.6l-0.3-1
		c0.6,0,1.1,0.1,1.6,0.1c0.5,0,0.8-0.3,0.8-0.9V189h-3.8v4.1h-1V189h-3.6C532.8,190.8,532.3,192.3,531.4,193.5z M533,182.3v2.4h3.6
		v-2.4H533z M533,188.1h3.6v-2.5H533V188.1z M541.4,182.3h-3.8v2.4h3.8V182.3z M541.4,185.7h-3.8v2.5h3.8V185.7z"/>
	<path class="st14" d="M550.9,180.8v4.3h5.2v1h-5.2v6h6.4v1h-12.5v-1h5v-11.3H550.9z"/>
	<path class="st14" d="M562.1,180.8v1.3h2.7c0,2.4-0.2,3.8-0.4,4.3c-0.3,0.5-0.8,0.7-1.5,0.7c-0.2,0-0.5,0-0.8-0.1l-0.3-0.9l0.8,0.1
		c0.5,0,0.8-0.2,1-0.5c0.1-0.3,0.2-1.2,0.2-2.7H562c-0.3,2-1.1,3.4-2.6,4.4l-0.7-0.7c1.3-0.8,2.1-2.1,2.4-3.8h-2v-0.9h2.1v-1.3
		H562.1z M564.5,188.3v-1.1h1v1.1h5.6v1h-4.7c1,1.1,2.6,2.1,4.8,3l-0.7,0.9c-2.4-1.2-4-2.5-5-3.9h-0.1v4.3h-1v-4.3h-0.1
		c-1,1.6-2.7,2.9-5.1,3.9l-0.6-0.9c2.2-0.8,3.8-1.8,4.8-3h-4.7v-1H564.5z M570.5,181.8v4.8H566v-4.8H570.5z M569.6,182.7H567v3h2.6
		V182.7z"/>
	<path class="st14" d="M575.2,186.1c-0.1,3.1-0.7,5.6-1.9,7.5l-0.7-0.8c1-1.6,1.6-3.9,1.7-6.7v-4.2c3.6,0,6.8-0.4,9.7-1l0.5,0.9
		c-2.7,0.6-5.8,0.9-9.2,1v2h10.1v1h-10.1V186.1z M584.2,193.6h-1V193h-5.7v0.7h-1v-5.9h7.7V193.6z M583.2,192v-3.3h-5.7v3.3H583.2z"
		/>
</g>
<g>
	<path class="st15" d="M249.8,211c0.4-0.8,0.8-1.5,1.2-2.3l1,0.3c-0.4,0.7-0.7,1.4-1.1,2h7.2v1h-2.8c-0.6,1.5-1.2,2.6-2,3.5
		c1.4,0.6,2.9,1.3,4.4,2.2l-0.7,0.9c-1.5-0.9-3-1.7-4.5-2.3c-1.6,1.4-3.6,2.1-6.2,2.2l-0.6-0.9c2.4,0,4.3-0.6,5.8-1.7
		c-1.3-0.6-2.6-1.1-3.9-1.5c0.5-0.8,1-1.6,1.4-2.3h-3.4v-1H249.8z M257.8,210.2h-1v-2h-9.6v2h-1v-3h5.3c-0.2-0.5-0.4-0.9-0.6-1.3
		l1.1-0.2c0.2,0.4,0.4,0.9,0.6,1.5h5.2V210.2z M249.2,214c1.1,0.3,2.1,0.7,3.2,1.2c0.8-0.8,1.4-1.9,1.8-3.1h-3.9
		C250,212.8,249.6,213.4,249.2,214z"/>
	<path class="st15" d="M266.4,205.8c1.8,1.8,3.8,3.3,6.1,4.4l-0.5,0.9c-2.3-1.1-4.3-2.6-6-4.3c-1.5,1.7-3.5,3.2-6,4.4l-0.5-0.9
		c2.5-1.2,4.5-2.7,6.1-4.4H266.4z M269.9,210.2v1h-3.4v2.4h4v1h-4v2.6h5.3v1h-11.7v-1h5.3v-2.6h-4.1v-1h4.1v-2.4h-3.4v-1H269.9z"/>
	<path class="st15" d="M276.2,211.5l-0.7,0.7c-0.5-0.6-1.1-1.3-1.9-2l0.7-0.6C275,210.2,275.7,210.8,276.2,211.5z M276.4,213.6
		c-0.5,1.7-1.1,3.3-1.8,4.8l-0.9-0.4c0.7-1.6,1.3-3.2,1.8-4.8L276.4,213.6z M276.5,207.9l-0.7,0.7c-0.5-0.6-1.1-1.2-2-1.9l0.7-0.7
		C275.3,206.7,276,207.3,276.5,207.9z M279.8,208.3v4.4c0,1.6-0.3,2.9-0.8,3.8c-0.5,0.9-1.2,1.6-2.3,2.1l-0.5-0.8
		c1-0.5,1.7-1.1,2.1-1.9c0.4-0.8,0.6-1.9,0.6-3.2v-4.4H279.8z M281.7,215h-0.9v-7.7h-2.9v7.8H277v-8.6h4.7V215z M282.4,217.9
		l-0.7,0.7c-0.5-0.7-1.2-1.5-2.1-2.4l0.6-0.6C281.1,216.4,281.8,217.2,282.4,217.9z M283.7,207v8.7h-0.9V207H283.7z M283.2,218.5
		l-0.2-0.9c0.5,0,1,0.1,1.4,0.1c0.3,0,0.5-0.2,0.5-0.6v-11.2h1v11.5c0,0.8-0.4,1.2-1.1,1.2H283.2z"/>
	<path class="st15" d="M290.6,210.1v6.2c0.4-0.4,0.9-0.8,1.4-1.4l0.3,1.1c-0.8,0.8-1.7,1.5-2.6,2.2l-0.4-0.9
		c0.2-0.2,0.3-0.4,0.3-0.6V211h-2.1v-1H290.6z M291.7,208.1l-0.7,0.7c-0.6-0.7-1.4-1.4-2.4-2.2l0.7-0.7
		C290.2,206.6,291,207.3,291.7,208.1z M300,206.4v1h-3.3v5.3h3.7v1h-3.7v5h-1v-5h-3.7v-1h3.7v-5.3h-3.3v-1H300z M294.6,211.7
		l-0.9,0.2c-0.3-1.2-0.7-2.4-1.1-3.5l0.9-0.3C293.9,209.2,294.3,210.4,294.6,211.7z M299.6,208.3c-0.3,1.4-0.7,2.5-1.1,3.6l-0.9-0.3
		c0.4-0.9,0.8-2.1,1.1-3.5L299.6,208.3z"/>
</g>
<g>
	<path class="st15" d="M537.1,209.9v1h-3.6v2.5h4.2v1h-4.2v2.9c1,0.1,2.2,0.2,3.6,0.2c0.7,0,1.4,0,2.2-0.1l-0.2,1h-1.6
		c-2.8,0-4.8-0.3-6.1-0.8c-0.9-0.4-1.7-1.1-2.3-2c-0.5,1.2-1.2,2.2-2,3l-0.6-0.8c1.3-1.4,2.2-3.3,2.7-5.8l1,0.2
		c-0.2,0.9-0.4,1.7-0.6,2.4c0.7,1.2,1.5,2,2.5,2.3c0.1,0,0.3,0.1,0.4,0.1v-6.1h-3.7v-1H537.1z M538.7,210.2h-1v-2.1h-9.5v2.1h-1
		v-3.1h5.4c-0.2-0.5-0.4-1-0.7-1.4l1.1-0.2c0.2,0.5,0.4,1,0.6,1.6h5.1V210.2z"/>
	<path class="st15" d="M543.2,215.9c-0.5,1-1.1,1.9-1.8,2.6l-0.8-0.6c0.7-0.7,1.3-1.5,1.8-2.5L543.2,215.9z M542.7,205.8v1.6h2.7
		v-1.5h1v1.5h0.8v0.9h-0.8v5.9h0.9v1h-6.6v-1h1v-5.9h-0.9v-0.9h0.9v-1.6H542.7z M542.7,208.3v1.4h2.7v-1.4H542.7z M545.4,212v-1.4
		h-2.7v1.4H545.4z M545.4,214.2v-1.4h-2.7v1.4H545.4z M546.7,217.8c0.9-1.3,1.4-2.9,1.4-4.9v-6.6h4.7v11c0,0.8-0.4,1.2-1.2,1.2H550
		l-0.3-1c0.5,0,1,0.1,1.4,0.1c0.4,0,0.5-0.2,0.5-0.6v-2.9H549c-0.2,1.8-0.8,3.4-1.7,4.6l-0.8-0.7
		C546.6,217.9,546.6,217.9,546.7,217.8l-0.8,0.6c-0.4-0.7-0.9-1.5-1.5-2.3l0.8-0.5C545.8,216.4,546.3,217.1,546.7,217.8z
		 M549.1,212.8c0,0.1,0,0.2,0,0.4h2.7v-2.5h-2.6V212.8z M551.7,207.3h-2.6v2.5h2.6V207.3z"/>
	<path class="st15" d="M558.7,211c0.4-0.8,0.8-1.5,1.2-2.3l1,0.3c-0.4,0.7-0.7,1.4-1.1,2h7.2v1h-2.8c-0.6,1.5-1.2,2.6-2,3.5
		c1.4,0.6,2.9,1.3,4.4,2.2l-0.7,0.9c-1.5-0.9-3-1.7-4.5-2.3c-1.6,1.4-3.6,2.1-6.2,2.2l-0.6-0.9c2.4,0,4.3-0.6,5.8-1.7
		c-1.3-0.6-2.6-1.1-3.9-1.5c0.5-0.8,1-1.6,1.4-2.3h-3.4v-1H558.7z M566.8,210.2h-1v-2h-9.6v2h-1v-3h5.3c-0.2-0.5-0.4-0.9-0.6-1.3
		l1.1-0.2c0.2,0.4,0.4,0.9,0.6,1.5h5.2V210.2z M558.2,214c1.1,0.3,2.1,0.7,3.2,1.2c0.8-0.8,1.4-1.9,1.8-3.1h-3.9
		C558.9,212.8,558.5,213.4,558.2,214z"/>
	<path class="st15" d="M575.3,205.8c1.8,1.8,3.8,3.3,6.1,4.4l-0.5,0.9c-2.3-1.1-4.3-2.6-6-4.3c-1.5,1.7-3.5,3.2-6,4.4l-0.5-0.9
		c2.5-1.2,4.5-2.7,6.1-4.4H575.3z M578.9,210.2v1h-3.4v2.4h4v1h-4v2.6h5.3v1h-11.7v-1h5.3v-2.6h-4.1v-1h4.1v-2.4H571v-1H578.9z"/>
	<path class="st15" d="M584.5,208.5v-2.7h1v2.7h1.4v1h-1.4v0.7c0.6,0.6,1.1,1.3,1.7,2.1l-0.6,0.9c-0.4-0.8-0.8-1.5-1.1-2v7.4h-1
		v-6.9c-0.4,1.4-1,2.7-1.7,3.8l-0.4-1.1c1-1.4,1.7-3.1,2.1-4.9h-1.7v-1H584.5z M587.4,211.3l-0.5-0.9c1.7-1.2,2.9-2.7,3.8-4.7h0.9
		c0.8,1.8,2,3.3,3.9,4.6l-0.5,0.9c-0.6-0.4-1.1-0.9-1.6-1.4v0.9H589v-0.9C588.5,210.4,588,210.9,587.4,211.3z M592,217.2
		c0.6-1.5,1.1-3.3,1.5-5.5l1,0.3c-0.4,2-0.9,3.7-1.5,5.3h2.2v1h-8v-1H592z M589.7,216.2l-0.9,0.2c-0.3-1.4-0.6-2.7-1-4l0.9-0.3
		C589.1,213.3,589.4,214.6,589.7,216.2z M591.1,206.8c-0.6,1.2-1.3,2.2-2.1,3h4.2C592.3,208.9,591.6,207.9,591.1,206.8z
		 M591.8,215.5l-0.9,0.2c-0.2-1.3-0.5-2.6-0.9-3.9l0.9-0.3C591.2,212.7,591.6,214,591.8,215.5z"/>
	<path class="st15" d="M599.2,211.5l-0.7,0.7c-0.5-0.6-1.1-1.3-1.9-2l0.7-0.6C598,210.2,598.6,210.8,599.2,211.5z M599.3,213.6
		c-0.5,1.7-1.1,3.3-1.8,4.8l-0.9-0.4c0.7-1.6,1.3-3.2,1.8-4.8L599.3,213.6z M599.4,207.9l-0.7,0.7c-0.5-0.6-1.1-1.2-2-1.9l0.7-0.7
		C598.2,206.7,598.9,207.3,599.4,207.9z M602.8,208.3v4.4c0,1.6-0.3,2.9-0.8,3.8c-0.5,0.9-1.2,1.6-2.3,2.1l-0.5-0.8
		c1-0.5,1.7-1.1,2.1-1.9c0.4-0.8,0.6-1.9,0.6-3.2v-4.4H602.8z M604.7,215h-0.9v-7.7h-2.9v7.8H600v-8.6h4.7V215z M605.3,217.9
		l-0.7,0.7c-0.5-0.7-1.2-1.5-2.1-2.4l0.6-0.6C604,216.4,604.8,217.2,605.3,217.9z M606.7,207v8.7h-0.9V207H606.7z M606.2,218.5
		l-0.2-0.9c0.5,0,1,0.1,1.4,0.1c0.3,0,0.5-0.2,0.5-0.6v-11.2h1v11.5c0,0.8-0.4,1.2-1.1,1.2H606.2z"/>
</g>
<g>
	<path class="st2" d="M283.1,154h-26.2c-4.9,0-8.9-4-8.9-8.9v-26.2c0-4.9,4-8.9,8.9-8.9h26.2c4.9,0,8.9,4,8.9,8.9v26.2
		C292,150,288,154,283.1,154z"/>
	<linearGradient id="SVGID_2_" gradientUnits="userSpaceOnUse" x1="248" y1="132" x2="292" y2="132">
		<stop  offset="0" style="stop-color:#00C8DC"/>
		<stop  offset="1" style="stop-color:#006EFF"/>
	</linearGradient>
	<path class="st3" d="M283.1,111c4.4,0,7.9,3.6,7.9,7.9v26.2c0,4.4-3.6,7.9-7.9,7.9h-26.2c-4.4,0-7.9-3.6-7.9-7.9v-26.2
		c0-4.4,3.6-7.9,7.9-7.9H283.1 M283.1,110h-26.2c-4.9,0-8.9,4-8.9,8.9v26.2c0,4.9,4,8.9,8.9,8.9h26.2c4.9,0,8.9-4,8.9-8.9v-26.2
		C292,114,288,110,283.1,110L283.1,110z"/>
</g>
<linearGradient id="SVGID_3_" gradientUnits="userSpaceOnUse" x1="252.1905" y1="132" x2="287.8095" y2="132">
	<stop  offset="0" style="stop-color:#00C8DC"/>
	<stop  offset="1" style="stop-color:#006EFF"/>
</linearGradient>
<path style="opacity:0.2;fill:url(#SVGID_3_);" d="M281.9,149.8h-23.7c-3.3,0-5.9-2.7-5.9-5.9v-23.7c0-3.3,2.7-5.9,5.9-5.9h23.7
	c3.3,0,5.9,2.7,5.9,5.9v23.7C287.8,147.1,285.1,149.8,281.9,149.8z"/>
<linearGradient id="SVGID_4_" gradientUnits="userSpaceOnUse" x1="260" y1="132" x2="280" y2="132">
	<stop  offset="0" style="stop-color:#00C8DC"/>
	<stop  offset="1" style="stop-color:#006EFF"/>
</linearGradient>
<path class="st6" d="M270,121l-10,6v2v6v2l10,6l10-6v-2v-6v-2L270,121z M262,130.2l7,4.2v6l-7-4.2V130.2z M278,136.2l-7,4.2v-6
	l7-4.2V136.2z M270,133l-8.3-5l8.3-5l8.3,5L270,133z"/>
<linearGradient id="SVGID_5_" gradientUnits="userSpaceOnUse" x1="265.5" y1="93.5" x2="274.5" y2="102.5">
	<stop  offset="0" style="stop-color:#00C8DC"/>
	<stop  offset="1" style="stop-color:#006EFF"/>
</linearGradient>
<polygon class="st7" points="278,98 270,89 262,98 268,98 268,105 272,105 272,98 "/>
<linearGradient id="SVGID_6_" gradientUnits="userSpaceOnUse" x1="231" y1="25" x2="309" y2="103">
	<stop  offset="0" style="stop-color:#00C8DC"/>
	<stop  offset="1" style="stop-color:#006EFF"/>
</linearGradient>
<path class="st8" d="M293,43h-1l-3.6,9h-36.8l-3.6-9h-1h-34v42h114V43H293z M326,84H214V44h33.4l3.6,9h1h36h1l3.6-9H326V84z"/>
<g>
	<linearGradient id="SVGID_7_" gradientUnits="userSpaceOnUse" x1="253.6197" y1="63.7505" x2="273.6533" y2="83.7842">
		<stop  offset="0" style="stop-color:#00C8DC"/>
		<stop  offset="1" style="stop-color:#006EFF"/>
	</linearGradient>
	<path class="st9" d="M260.6,69.1c0,0.5-0.1,0.9-0.3,1.3c-0.2,0.4-0.5,0.7-0.8,0.9c-0.3,0.3-0.7,0.5-1.2,0.6
		c-0.4,0.1-0.9,0.2-1.5,0.2c-0.8,0-1.4-0.1-2-0.3c-0.6-0.2-1.1-0.5-1.6-1l1.3-1.3c0.3,0.3,0.7,0.5,1.1,0.7c0.4,0.1,0.8,0.2,1.3,0.2
		c0.6,0,1-0.1,1.3-0.3s0.4-0.5,0.4-0.9c0-0.4-0.1-0.6-0.3-0.8c-0.1-0.1-0.2-0.2-0.3-0.2c-0.1-0.1-0.3-0.1-0.5-0.1l-1.2-0.2
		c-0.8-0.1-1.5-0.4-1.9-0.8c-0.5-0.5-0.7-1.1-0.7-2c0-0.4,0.1-0.9,0.2-1.2s0.4-0.7,0.7-1c0.3-0.3,0.7-0.5,1.1-0.6s0.9-0.2,1.5-0.2
		c0.7,0,1.3,0.1,1.8,0.3c0.5,0.2,1,0.5,1.4,0.9l-1.2,1.2c-0.3-0.3-0.7-0.5-1-0.6c-0.4-0.1-0.7-0.1-1-0.1c-0.5,0-0.9,0.1-1.2,0.4
		c-0.3,0.2-0.4,0.5-0.4,0.9c0,0.1,0,0.3,0.1,0.4c0,0.1,0.1,0.2,0.2,0.3c0.1,0.1,0.2,0.2,0.4,0.2c0.2,0.1,0.3,0.1,0.5,0.1l1.2,0.2
		c0.5,0.1,0.8,0.2,1.1,0.3c0.3,0.1,0.6,0.3,0.8,0.5c0.3,0.3,0.5,0.6,0.6,0.9C260.5,68.2,260.6,68.6,260.6,69.1z"/>
	<linearGradient id="SVGID_8_" gradientUnits="userSpaceOnUse" x1="256.9742" y1="60.3959" x2="277.0079" y2="80.4296">
		<stop  offset="0" style="stop-color:#00C8DC"/>
		<stop  offset="1" style="stop-color:#006EFF"/>
	</linearGradient>
	<path style="fill:url(#SVGID_8_);" d="M264.6,72c-0.4,0-0.7-0.1-1-0.2s-0.5-0.3-0.7-0.5c-0.2-0.2-0.3-0.4-0.4-0.7
		c-0.1-0.2-0.1-0.5-0.1-0.8v-3.6h-0.8v-1.4h0.8v-2.2h1.8v2.2h1.3v1.4h-1.3v3.5c0,0.4,0.2,0.7,0.6,0.7h0.7V72H264.6z"/>
	<linearGradient id="SVGID_9_" gradientUnits="userSpaceOnUse" x1="259.4889" y1="57.8813" x2="279.5226" y2="77.9149">
		<stop  offset="0" style="stop-color:#00C8DC"/>
		<stop  offset="1" style="stop-color:#006EFF"/>
	</linearGradient>
	<path class="st11" d="M273,68.3c0,0.7-0.1,1.2-0.2,1.7c-0.1,0.4-0.3,0.8-0.7,1.2c-0.2,0.2-0.5,0.5-0.9,0.6
		c-0.4,0.2-0.8,0.3-1.4,0.3c-0.5,0-1-0.1-1.4-0.3c-0.4-0.2-0.7-0.4-0.9-0.6c-0.3-0.3-0.5-0.7-0.7-1.2c-0.1-0.4-0.2-1-0.2-1.7
		c0-0.7,0.1-1.2,0.2-1.7c0.1-0.4,0.3-0.8,0.7-1.2c0.2-0.2,0.5-0.5,0.9-0.6c0.4-0.2,0.8-0.3,1.4-0.3c0.5,0,1,0.1,1.4,0.3
		c0.4,0.2,0.7,0.4,0.9,0.6c0.3,0.3,0.5,0.7,0.7,1.2C273,67.1,273,67.7,273,68.3z M271.2,68.3c0-0.4,0-0.7-0.1-1
		c0-0.3-0.2-0.5-0.3-0.7c-0.2-0.2-0.5-0.3-0.8-0.3c-0.3,0-0.6,0.1-0.8,0.3c-0.2,0.2-0.3,0.4-0.3,0.7c0,0.3-0.1,0.6-0.1,1
		c0,0.4,0,0.7,0.1,1c0,0.3,0.2,0.6,0.3,0.7c0.2,0.2,0.5,0.3,0.8,0.3c0.4,0,0.6-0.1,0.8-0.3c0.2-0.2,0.3-0.4,0.3-0.7
		C271.2,69.1,271.2,68.7,271.2,68.3z"/>
	<linearGradient id="SVGID_10_" gradientUnits="userSpaceOnUse" x1="263.0835" y1="54.2867" x2="283.1172" y2="74.3203">
		<stop  offset="0" style="stop-color:#00C8DC"/>
		<stop  offset="1" style="stop-color:#006EFF"/>
	</linearGradient>
	<path style="fill:url(#SVGID_10_);" d="M278.7,66.7c-0.1-0.1-0.3-0.2-0.4-0.3c-0.1-0.1-0.3-0.1-0.5-0.1c-0.1,0-0.3,0-0.4,0.1
		c-0.1,0.1-0.3,0.1-0.4,0.2c-0.1,0.1-0.2,0.3-0.3,0.4c-0.1,0.2-0.1,0.4-0.1,0.6V72h-1.8v-7.3h1.8v0.7c0.2-0.2,0.4-0.4,0.8-0.6
		c0.3-0.2,0.7-0.2,1.1-0.2c0.4,0,0.7,0.1,0.9,0.2c0.3,0.1,0.5,0.3,0.8,0.5L278.7,66.7z"/>
	<linearGradient id="SVGID_11_" gradientUnits="userSpaceOnUse" x1="266.273" y1="51.0972" x2="286.3067" y2="71.1308">
		<stop  offset="0" style="stop-color:#00C8DC"/>
		<stop  offset="1" style="stop-color:#006EFF"/>
	</linearGradient>
	<path class="st17" d="M282.1,68.9c0,0.5,0.1,0.9,0.4,1.2c0.3,0.3,0.7,0.5,1.2,0.5c0.4,0,0.7-0.1,1-0.2c0.2-0.1,0.5-0.3,0.7-0.5
		l1.1,1.1c-0.2,0.2-0.4,0.4-0.6,0.5c-0.2,0.1-0.4,0.3-0.6,0.4c-0.2,0.1-0.5,0.2-0.7,0.2c-0.3,0.1-0.6,0.1-0.9,0.1
		c-0.4,0-0.8-0.1-1.3-0.2c-0.4-0.1-0.8-0.3-1.1-0.6c-0.3-0.3-0.6-0.7-0.8-1.1c-0.2-0.5-0.3-1.1-0.3-1.8c0-0.6,0.1-1.1,0.2-1.6
		c0.2-0.5,0.4-0.9,0.7-1.2c0.3-0.3,0.6-0.6,1-0.7s0.8-0.2,1.3-0.2c0.5,0,1,0.1,1.4,0.3c0.4,0.2,0.7,0.4,1,0.7
		c0.3,0.3,0.5,0.7,0.6,1.1c0.1,0.4,0.2,0.9,0.2,1.4v0.8H282.1z M284.9,67.7c0-0.2,0-0.3,0-0.4c0-0.1-0.1-0.2-0.1-0.4
		c-0.1-0.2-0.3-0.4-0.5-0.5c-0.2-0.1-0.5-0.2-0.8-0.2s-0.6,0.1-0.8,0.2c-0.2,0.1-0.4,0.3-0.5,0.5c-0.1,0.1-0.1,0.3-0.1,0.4
		c0,0.1,0,0.3,0,0.4H284.9z"/>
</g>
<g class="st4">
	
		<linearGradient id="SVGID_12_" gradientUnits="userSpaceOnUse" x1="516" y1="-589" x2="584" y2="-657" gradientTransform="matrix(1 0 0 -1 0 -496)">
		<stop  offset="0" style="stop-color:#00C8DC"/>
		<stop  offset="1" style="stop-color:#006EFF"/>
	</linearGradient>
	<rect x="498" y="111" class="st18" width="104" height="32"/>
</g>
<g>
	<path class="st2" d="M566.1,99h-32.2c-4.9,0-8.9-4-8.9-8.9V57.9c0-4.9,4-8.9,8.9-8.9h32.2c4.9,0,8.9,4,8.9,8.9v32.2
		C575,95,571,99,566.1,99z"/>
	<linearGradient id="SVGID_13_" gradientUnits="userSpaceOnUse" x1="525" y1="74" x2="575" y2="74">
		<stop  offset="0" style="stop-color:#00C8DC"/>
		<stop  offset="1" style="stop-color:#006EFF"/>
	</linearGradient>
	<path class="st19" d="M566.1,50c4.4,0,7.9,3.6,7.9,7.9v32.2c0,4.4-3.6,7.9-7.9,7.9h-32.2c-4.4,0-7.9-3.6-7.9-7.9V57.9
		c0-4.4,3.6-7.9,7.9-7.9H566.1 M566.1,49h-32.2c-4.9,0-8.9,4-8.9,8.9v32.2c0,4.9,4,8.9,8.9,8.9h32.2c4.9,0,8.9-4,8.9-8.9V57.9
		C575,53,571,49,566.1,49L566.1,49z"/>
</g>
<linearGradient id="SVGID_14_" gradientUnits="userSpaceOnUse" x1="529.7619" y1="74" x2="570.2381" y2="74">
	<stop  offset="0" style="stop-color:#00C8DC"/>
	<stop  offset="1" style="stop-color:#006EFF"/>
</linearGradient>
<path style="opacity:0.2;fill:url(#SVGID_14_);" d="M564.3,94.2h-28.6c-3.3,0-5.9-2.7-5.9-5.9V59.7c0-3.3,2.7-5.9,5.9-5.9h28.6
	c3.3,0,5.9,2.7,5.9,5.9v28.6C570.2,91.6,567.6,94.2,564.3,94.2z"/>
<linearGradient id="SVGID_15_" gradientUnits="userSpaceOnUse" x1="540" y1="74" x2="560" y2="74">
	<stop  offset="0" style="stop-color:#00C8DC"/>
	<stop  offset="1" style="stop-color:#006EFF"/>
</linearGradient>
<path class="st21" d="M550,63l-10,6v2v6v2l10,6l10-6v-2v-6v-2L550,63z M542,72.2l7,4.2v6l-7-4.2V72.2z M558,78.2l-7,4.2v-6l7-4.2
	V78.2z M550,75l-8.3-5l8.3-5l8.3,5L550,75z"/>
<linearGradient id="SVGID_16_" gradientUnits="userSpaceOnUse" x1="511" y1="88" x2="589" y2="166">
	<stop  offset="0" style="stop-color:#00C8DC"/>
	<stop  offset="1" style="stop-color:#006EFF"/>
</linearGradient>
<path class="st22" d="M573,106h-1l-3.6,9h-36.8l-3.6-9h-1h-34v42h114v-42H573z M606,147H494v-40h33.4l3.6,9h1h36h1l3.6-9H606V147z"
	/>
<g>
	<linearGradient id="SVGID_17_" gradientUnits="userSpaceOnUse" x1="533.6194" y1="126.7508" x2="553.6531" y2="146.7844">
		<stop  offset="0" style="stop-color:#00C8DC"/>
		<stop  offset="1" style="stop-color:#006EFF"/>
	</linearGradient>
	<path class="st23" d="M540.6,132.1c0,0.5-0.1,0.9-0.3,1.3c-0.2,0.4-0.5,0.7-0.8,0.9c-0.3,0.3-0.7,0.5-1.2,0.6
		c-0.4,0.1-0.9,0.2-1.5,0.2c-0.8,0-1.4-0.1-2-0.3c-0.6-0.2-1.1-0.5-1.6-1l1.3-1.3c0.3,0.3,0.7,0.5,1.1,0.7s0.8,0.2,1.3,0.2
		c0.6,0,1-0.1,1.3-0.3s0.4-0.5,0.4-0.9c0-0.4-0.1-0.6-0.3-0.8c-0.1-0.1-0.2-0.2-0.3-0.2c-0.1-0.1-0.3-0.1-0.5-0.1l-1.2-0.2
		c-0.8-0.1-1.5-0.4-1.9-0.8c-0.5-0.5-0.7-1.1-0.7-2c0-0.4,0.1-0.9,0.2-1.2c0.2-0.4,0.4-0.7,0.7-1s0.7-0.5,1.1-0.6s0.9-0.2,1.5-0.2
		c0.7,0,1.3,0.1,1.8,0.3c0.5,0.2,1,0.5,1.4,0.9l-1.2,1.2c-0.3-0.3-0.7-0.5-1-0.6c-0.4-0.1-0.7-0.1-1-0.1c-0.5,0-0.9,0.1-1.2,0.4
		c-0.3,0.2-0.4,0.5-0.4,0.9c0,0.1,0,0.3,0.1,0.4s0.1,0.2,0.2,0.3c0.1,0.1,0.2,0.2,0.4,0.2c0.2,0.1,0.3,0.1,0.5,0.1l1.2,0.2
		c0.5,0.1,0.8,0.2,1.1,0.3c0.3,0.1,0.6,0.3,0.8,0.5c0.3,0.3,0.5,0.6,0.6,0.9C540.5,131.2,540.6,131.6,540.6,132.1z"/>
	<linearGradient id="SVGID_18_" gradientUnits="userSpaceOnUse" x1="536.9742" y1="123.3959" x2="557.0079" y2="143.4296">
		<stop  offset="0" style="stop-color:#00C8DC"/>
		<stop  offset="1" style="stop-color:#006EFF"/>
	</linearGradient>
	<path class="st24" d="M544.6,135c-0.4,0-0.7-0.1-1-0.2s-0.5-0.3-0.7-0.5c-0.2-0.2-0.3-0.4-0.4-0.7c-0.1-0.2-0.1-0.5-0.1-0.8v-3.6
		h-0.8v-1.4h0.8v-2.2h1.8v2.2h1.3v1.4h-1.3v3.5c0,0.4,0.2,0.7,0.6,0.7h0.7v1.5H544.6z"/>
	<linearGradient id="SVGID_19_" gradientUnits="userSpaceOnUse" x1="539.4888" y1="120.8813" x2="559.5225" y2="140.915">
		<stop  offset="0" style="stop-color:#00C8DC"/>
		<stop  offset="1" style="stop-color:#006EFF"/>
	</linearGradient>
	<path class="st25" d="M553,131.3c0,0.7-0.1,1.2-0.2,1.7s-0.3,0.8-0.7,1.2c-0.2,0.2-0.5,0.5-0.9,0.6c-0.4,0.2-0.8,0.3-1.4,0.3
		s-1-0.1-1.4-0.3c-0.4-0.2-0.7-0.4-0.9-0.6c-0.3-0.3-0.5-0.7-0.7-1.2c-0.1-0.4-0.2-1-0.2-1.7c0-0.7,0.1-1.2,0.2-1.7
		c0.1-0.4,0.3-0.8,0.7-1.2c0.2-0.2,0.5-0.5,0.9-0.6c0.4-0.2,0.8-0.3,1.4-0.3s1,0.1,1.4,0.3c0.4,0.2,0.7,0.4,0.9,0.6
		c0.3,0.3,0.5,0.7,0.7,1.2S553,130.7,553,131.3z M551.2,131.3c0-0.4,0-0.7-0.1-1c0-0.3-0.2-0.5-0.3-0.7c-0.2-0.2-0.5-0.3-0.8-0.3
		c-0.3,0-0.6,0.1-0.8,0.3c-0.2,0.2-0.3,0.4-0.3,0.7c0,0.3-0.1,0.6-0.1,1c0,0.4,0,0.7,0.1,1c0,0.3,0.2,0.6,0.3,0.7
		c0.2,0.2,0.5,0.3,0.8,0.3c0.4,0,0.6-0.1,0.8-0.3c0.2-0.2,0.3-0.4,0.3-0.7C551.2,132.1,551.2,131.7,551.2,131.3z"/>
	<linearGradient id="SVGID_20_" gradientUnits="userSpaceOnUse" x1="543.0833" y1="117.2869" x2="563.1169" y2="137.3206">
		<stop  offset="0" style="stop-color:#00C8DC"/>
		<stop  offset="1" style="stop-color:#006EFF"/>
	</linearGradient>
	<path class="st26" d="M558.7,129.7c-0.1-0.1-0.3-0.2-0.4-0.3c-0.1-0.1-0.3-0.1-0.5-0.1c-0.1,0-0.3,0-0.4,0.1
		c-0.1,0.1-0.3,0.1-0.4,0.2c-0.1,0.1-0.2,0.3-0.3,0.4s-0.1,0.4-0.1,0.6v4.4h-1.8v-7.3h1.8v0.7c0.2-0.2,0.4-0.4,0.8-0.6
		c0.3-0.2,0.7-0.2,1.1-0.2c0.4,0,0.7,0.1,0.9,0.2c0.3,0.1,0.5,0.3,0.8,0.5L558.7,129.7z"/>
	<linearGradient id="SVGID_21_" gradientUnits="userSpaceOnUse" x1="546.2729" y1="114.0972" x2="566.3066" y2="134.1309">
		<stop  offset="0" style="stop-color:#00C8DC"/>
		<stop  offset="1" style="stop-color:#006EFF"/>
	</linearGradient>
	<path class="st27" d="M562.1,131.9c0,0.5,0.1,0.9,0.4,1.2c0.3,0.3,0.7,0.5,1.2,0.5c0.4,0,0.7-0.1,1-0.2c0.2-0.1,0.5-0.3,0.7-0.5
		l1.1,1.1c-0.2,0.2-0.4,0.4-0.6,0.5c-0.2,0.1-0.4,0.3-0.6,0.4c-0.2,0.1-0.5,0.2-0.7,0.2c-0.3,0.1-0.6,0.1-0.9,0.1
		c-0.4,0-0.8-0.1-1.3-0.2s-0.8-0.3-1.1-0.6c-0.3-0.3-0.6-0.7-0.8-1.1c-0.2-0.5-0.3-1.1-0.3-1.8c0-0.6,0.1-1.1,0.2-1.6
		c0.2-0.5,0.4-0.9,0.7-1.2c0.3-0.3,0.6-0.6,1-0.7c0.4-0.2,0.8-0.2,1.3-0.2c0.5,0,1,0.1,1.4,0.3c0.4,0.2,0.7,0.4,1,0.7
		c0.3,0.3,0.5,0.7,0.6,1.1c0.1,0.4,0.2,0.9,0.2,1.4v0.8H562.1z M564.9,130.7c0-0.2,0-0.3,0-0.4c0-0.1-0.1-0.2-0.1-0.4
		c-0.1-0.2-0.3-0.4-0.5-0.5c-0.2-0.1-0.5-0.2-0.8-0.2c-0.3,0-0.6,0.1-0.8,0.2c-0.2,0.1-0.4,0.3-0.5,0.5c-0.1,0.1-0.1,0.3-0.1,0.4
		c0,0.1,0,0.3,0,0.4H564.9z"/>
</g>
<g class="st0">
	<circle class="st12" cx="236" cy="213" r="2"/>
</g>
<g class="st0">
	<circle class="st12" cx="518" cy="213" r="2"/>
</g>
</svg>
