<?xml version="1.0" encoding="utf-8"?>
<!-- Generator: Adobe Illustrator 21.0.0, SVG Export Plug-In . SVG Version: 6.00 Build 0)  -->
<svg version="1.1" xmlns="http://www.w3.org/2000/svg" xmlns:xlink="http://www.w3.org/1999/xlink" x="0px" y="0px" width="820px"
	 height="231px" viewBox="0 0 820 231" style="enable-background:new 0 0 820 231;" xml:space="preserve">
<style type="text/css">
	.st0{opacity:0.5;}
	.st1{fill:url(#SVGID_1_);}
	.st2{fill:#FFFFFF;}
	.st3{opacity:0.2;}
	.st4{fill:url(#SVGID_2_);}
	.st5{fill:#333333;}
	.st6{fill:url(#SVGID_3_);}
	.st7{fill:url(#SVGID_4_);}
	.st8{fill:url(#SVGID_5_);}
	.st9{fill:url(#SVGID_6_);}
	.st10{fill:url(#SVGID_7_);}
	.st11{fill:url(#SVGID_8_);}
	.st12{fill:url(#SVGID_9_);}
	.st13{fill:url(#SVGID_10_);}
	.st14{fill:url(#SVGID_11_);}
	.st15{fill:url(#SVGID_12_);}
	.st16{fill:#E5E5E5;}
	.st17{fill:none;stroke:url(#SVGID_13_);stroke-miterlimit:10;}
	.st18{fill:url(#SVGID_14_);}
	.st19{fill:url(#SVGID_15_);}
	.st20{fill:url(#SVGID_16_);}
	.st21{fill:url(#SVGID_17_);}
	.st22{fill:url(#SVGID_18_);}
	.st23{fill:url(#SVGID_19_);}
	.st24{fill:url(#SVGID_20_);}
	.st25{fill:url(#SVGID_21_);}
	.st26{fill:url(#SVGID_22_);}
	.st27{fill:url(#SVGID_23_);}
	.st28{fill:url(#SVGID_24_);}
	.st29{fill:url(#SVGID_25_);}
	.st30{fill:url(#SVGID_26_);}
	.st31{fill:url(#SVGID_27_);}
	.st32{fill:url(#SVGID_28_);}
	.st33{fill:url(#SVGID_29_);}
	.st34{fill:url(#SVGID_30_);}
	.st35{fill:none;stroke:url(#SVGID_31_);stroke-miterlimit:10;}
	.st36{fill:url(#SVGID_32_);}
	.st37{fill:url(#SVGID_33_);}
	.st38{fill:url(#SVGID_34_);}
	.st39{fill:url(#SVGID_35_);}
	.st40{fill:url(#SVGID_36_);}
	.st41{fill:url(#SVGID_37_);}
	.st42{fill:url(#SVGID_38_);}
	.st43{fill:url(#SVGID_39_);}
	.st44{fill:url(#SVGID_40_);}
	.st45{fill:url(#SVGID_41_);}
	.st46{fill:url(#SVGID_42_);}
	.st47{fill:url(#SVGID_43_);}
	.st48{fill:url(#SVGID_44_);}
</style>
<g id="图层_1">
	<g>
		<path class="st5" d="M89.1,186c0.6-0.6,1.2-1.3,1.6-2h-3.5v-0.9h4.7v0.8c-0.4,0.9-0.9,1.8-1.6,2.5h4.3c-1-1-1.7-2.1-2.3-3.2
			l0.8-0.5c0.3,0.6,0.6,1.1,1,1.7c0.6-0.4,1.1-1,1.6-1.5l0.7,0.6c-0.5,0.6-1.1,1.1-1.7,1.6c0.3,0.4,0.7,0.7,1,1.1
			c0.7-0.5,1.3-1.1,1.7-1.7L98,185c-0.5,0.6-1.1,1.2-1.7,1.7c0.7,0.5,1.5,1,2.3,1.4l-0.7,0.8c-1.2-0.7-2.3-1.4-3.2-2.2v0.6h-5.1
			v-0.5c-0.9,0.8-2.1,1.5-3.4,2.1l-0.6-0.8c1-0.4,1.9-0.9,2.7-1.5c-0.5-0.5-1.1-1-1.9-1.5l0.7-0.6C87.9,185,88.5,185.5,89.1,186z
			 M90.7,194h2.8c0.4-0.6,0.8-1.3,1.1-1.9l1,0.3c-0.3,0.6-0.6,1.1-1,1.6H98v1H86v-1h3.6c-0.3-0.5-0.7-1-1.2-1.5l1-0.4
			C89.9,192.7,90.3,193.3,90.7,194z M95.9,188.5v3.4h-7.8v-3.4H95.9z M94.9,189.3h-5.8v1.6h5.8V189.3z"/>
		<path class="st5" d="M109.5,183.1v4.6h2.5v0.9h-5.6v1.6c0.3,0.4,0.7,0.8,1.1,1.1c1-0.6,1.9-1.4,2.6-2.4l0.8,0.6
			c-0.8,1-1.7,1.8-2.7,2.3c1.1,0.9,2.4,1.6,3.9,2.3l-0.5,0.9c-2.2-1-3.9-2.2-5.1-3.7v2.9c0,0.8-0.4,1.3-1.1,1.3h-1.6l-0.2-1
			c0.5,0,1,0.1,1.5,0.1c0.3,0,0.4-0.2,0.4-0.6v-2.6c-1.4,1.3-3.2,2.5-5.2,3.6l-0.4-0.9c2.2-1,4-2.2,5.6-3.7v-1.8H100v-0.9h8.5v-1.4
			h-6.6v-0.9h6.6V184h-7.1v-0.9H109.5z M103.7,190.9l-0.6,0.7c-0.5-0.6-1.2-1.2-2.2-1.8l0.7-0.6
			C102.4,189.7,103.1,190.3,103.7,190.9z"/>
	</g>
	<g>
		<path class="st5" d="M403.5,182.6v1.8h5.5v1h-5.5v2.1h3.8v0.9c-0.8,1.6-1.9,2.9-3.4,4c0.7,0.4,1.5,0.8,2.3,1.1
			c1,0.4,2.1,0.7,3.2,1l-0.6,0.9c-1.2-0.3-2.4-0.7-3.4-1.2c-0.9-0.4-1.6-0.8-2.3-1.2c-1.6,1-3.5,1.8-5.7,2.4l-0.6-0.9
			c2.1-0.5,4-1.2,5.5-2.1c-0.7-0.5-1.4-1.2-1.9-1.9c-0.5-0.6-0.9-1.4-1.1-2.1h-1.1v-0.9h4.4v-2.1H397v-1h5.4v-1.8H403.5z
			 M406.1,188.5h-6c0.3,0.7,0.6,1.4,1.2,2c0.5,0.6,1.1,1.1,1.7,1.5C404.3,190.9,405.4,189.8,406.1,188.5z"/>
		<path class="st5" d="M414.7,182.9c-0.3,1-0.7,1.9-1.1,2.8v9.8h-1v-8.1c-0.5,0.7-1.1,1.4-1.7,2.1l-0.3-1.1c1.5-1.7,2.6-3.7,3.2-5.9
			L414.7,182.9z M420.3,185.6v-3h1v3h2v1h-2v7.3c0,1-0.4,1.4-1.3,1.4h-2l-0.2-1c0.7,0,1.3,0.1,1.9,0.1c0.4,0,0.7-0.3,0.7-0.8v-7.1
			h-5.4v-1H420.3z M418.7,191.4l-0.9,0.6c-0.6-1-1.4-2.2-2.4-3.4l0.8-0.5C417.3,189.4,418.1,190.5,418.7,191.4z"/>
	</g>
	<g>
		<path class="st5" d="M717.3,188.6c-0.7,1.3-1.5,2.4-2.5,3.3c1.5,1.1,3.3,1.9,5.5,2.5l-0.6,0.9c-2.3-0.6-4.2-1.5-5.7-2.7
			c-1.6,1.3-3.5,2.2-5.7,2.8l-0.6-0.9c2.2-0.6,4-1.4,5.5-2.5c-1-0.9-1.9-2-2.5-3.2l0.9-0.5c0.6,1.1,1.4,2.1,2.4,3
			c1-0.9,1.7-1.9,2.3-3.1L717.3,188.6z M713.6,184.2c-0.3-0.6-0.5-1.1-0.8-1.6l1.1-0.2c0.3,0.5,0.6,1.1,0.8,1.8h5.5v1h-12.4v-1
			H713.6z M712.4,186.3c-1.1,1.4-2.4,2.6-4,3.6l-0.6-0.9c1.5-1,2.8-2.1,3.9-3.4L712.4,186.3z M720.1,189.3l-0.7,0.7
			c-0.9-1.2-2.2-2.4-3.9-3.8l0.7-0.7C717.8,186.8,719.1,188.1,720.1,189.3z"/>
		<path class="st5" d="M723.7,188v-4.9h8.6v4.9h-5.5c-0.3,0.4-0.6,0.8-0.9,1.1h7.4c0,1.5-0.1,2.7-0.3,3.6c-0.1,0.9-0.4,1.6-0.6,1.9
			c-0.3,0.3-0.8,0.5-1.4,0.6h-1.8l-0.3-0.9c0.6,0,1.1,0,1.6,0c0.7,0,1.1-0.3,1.4-0.8c0.2-0.6,0.4-1.7,0.4-3.5H731
			c-1.2,2.7-3.1,4.5-5.8,5.3l-0.6-0.8c2.5-0.8,4.2-2.3,5.3-4.5h-1.8c-1,1.6-2.6,2.8-4.8,3.7l-0.6-0.8c2-0.7,3.5-1.7,4.3-2.9h-2.1
			c-0.7,0.5-1.5,1-2.4,1.4l-0.5-0.9c1.7-0.7,2.9-1.5,3.7-2.5H723.7z M731.3,185.1v-1.2h-6.6v1.2H731.3z M731.3,185.9h-6.6v1.2h6.6
			V185.9z"/>
	</g>
	<g class="st3">
		<linearGradient id="SVGID_1_" gradientUnits="userSpaceOnUse" x1="404.5223" y1="63.0223" x2="477.4777" y2="135.9777">
			<stop  offset="0" style="stop-color:#00C8DC"/>
			<stop  offset="1" style="stop-color:#006EFF"/>
		</linearGradient>
		<path class="st1" d="M461.7,49H453l-0.9,0.9c-0.4,0.4-0.8,0.6-1.3,0.6h-20.4c-0.5,0-1-0.2-1.3-0.6L428,49h-7.7
			c-2.4,0-4.3,1.9-4.3,4.3v92.3c0,2.4,1.9,4.3,4.3,4.3h41.3c2.4,0,4.3-1.9,4.3-4.3V53.3C466,50.9,464.1,49,461.7,49z"/>
	</g>
	<linearGradient id="SVGID_2_" gradientUnits="userSpaceOnUse" x1="47.5" y1="46.5" x2="150.5" y2="149.5">
		<stop  offset="0" style="stop-color:#00C8DC"/>
		<stop  offset="1" style="stop-color:#006EFF"/>
	</linearGradient>
	<path class="st4" d="M146,44v108H52V44H146 M147,43H51v110h96V43L147,43z"/>
	<g class="st3">
		<linearGradient id="SVGID_3_" gradientUnits="userSpaceOnUse" x1="51.5" y1="50.5" x2="146.5" y2="145.5">
			<stop  offset="0" style="stop-color:#00C8DC"/>
			<stop  offset="1" style="stop-color:#006EFF"/>
		</linearGradient>
		<rect x="55" y="47" class="st6" width="88" height="102"/>
	</g>
	<circle class="st2" cx="99" cy="73.3" r="7.9"/>
	<path class="st2" d="M99,82.8c-8.1,0-14.8,3-15.7,7c2.3,2.8,5.4,5,8.9,6.2h12.6c3.9-1.3,7.2-3.9,9.6-7.1
		C112.7,85.3,106.5,82.8,99,82.8z"/>
	<linearGradient id="SVGID_4_" gradientUnits="userSpaceOnUse" x1="84.7114" y1="63.7114" x2="112.2886" y2="91.2886">
		<stop  offset="0" style="stop-color:#00C8DC"/>
		<stop  offset="1" style="stop-color:#006EFF"/>
	</linearGradient>
	<path class="st7" d="M98.5,59c10.2,0,18.5,8.3,18.5,18.5S108.7,96,98.5,96S80,87.7,80,77.5S88.3,59,98.5,59 M98.5,58
		C87.7,58,79,66.7,79,77.5S87.7,97,98.5,97S118,88.3,118,77.5S109.3,58,98.5,58L98.5,58z"/>
	<g>
		<circle class="st2" cx="440.5" cy="86.5" r="15.5"/>
		<linearGradient id="SVGID_5_" gradientUnits="userSpaceOnUse" x1="429.5399" y1="75.5398" x2="451.4601" y2="97.4602">
			<stop  offset="0" style="stop-color:#00C8DC"/>
			<stop  offset="1" style="stop-color:#006EFF"/>
		</linearGradient>
		<path class="st8" d="M440.5,72c8,0,14.5,6.5,14.5,14.5s-6.5,14.5-14.5,14.5S426,94.5,426,86.5S432.5,72,440.5,72 M440.5,71
			c-8.6,0-15.5,6.9-15.5,15.5s6.9,15.5,15.5,15.5S456,95.1,456,86.5S449.1,71,440.5,71L440.5,71z"/>
	</g>
	<g>
		<g>
			<path d="M87.1,116.5l-3.4-5.2v5.2h-1.7V108h1.5l3.4,5.2V108h1.7v8.5H87.1z"/>
			<path d="M96.3,116.5l-0.5-1.5h-3l-0.5,1.5h-1.7l3.1-8.5H95l3.1,8.5H96.3z M94.4,110.5l-1.1,3.1h2.1L94.4,110.5z"/>
			<path d="M106.1,116.5v-5l-1.6,3.2h-1.1l-1.6-3.2v5H100V108h1.6l2.2,4.6l2.2-4.6h1.6v8.5H106.1z"/>
			<path d="M110.7,116.5V108h5.6v1.5h-4v2h3.4v1.5h-3.4v2.1h4v1.5H110.7z"/>
		</g>
		<g>
			<linearGradient id="SVGID_6_" gradientUnits="userSpaceOnUse" x1="81.5554" y1="108.4656" x2="102.9507" y2="129.8608">
				<stop  offset="0" style="stop-color:#00C8DC"/>
				<stop  offset="1" style="stop-color:#006EFF"/>
			</linearGradient>
			<path class="st9" d="M87.1,116.5l-3.4-5.2v5.2h-1.7V108h1.5l3.4,5.2V108h1.7v8.5H87.1z"/>
			<linearGradient id="SVGID_7_" gradientUnits="userSpaceOnUse" x1="85.2725" y1="104.7485" x2="106.6677" y2="126.1438">
				<stop  offset="0" style="stop-color:#00C8DC"/>
				<stop  offset="1" style="stop-color:#006EFF"/>
			</linearGradient>
			<path class="st10" d="M96.3,116.5l-0.5-1.5h-3l-0.5,1.5h-1.7l3.1-8.5H95l3.1,8.5H96.3z M94.4,110.5l-1.1,3.1h2.1L94.4,110.5z"/>
			<linearGradient id="SVGID_8_" gradientUnits="userSpaceOnUse" x1="90.8492" y1="99.1718" x2="112.2445" y2="120.567">
				<stop  offset="0" style="stop-color:#00C8DC"/>
				<stop  offset="1" style="stop-color:#006EFF"/>
			</linearGradient>
			<path class="st11" d="M106.1,116.5v-5l-1.6,3.2h-1.1l-1.6-3.2v5H100V108h1.6l2.2,4.6l2.2-4.6h1.6v8.5H106.1z"/>
			<linearGradient id="SVGID_9_" gradientUnits="userSpaceOnUse" x1="95.6372" y1="94.3838" x2="117.0325" y2="115.7791">
				<stop  offset="0" style="stop-color:#00C8DC"/>
				<stop  offset="1" style="stop-color:#006EFF"/>
			</linearGradient>
			<path class="st12" d="M110.7,116.5V108h5.6v1.5h-4v2h3.4v1.5h-3.4v2.1h4v1.5H110.7z"/>
		</g>
	</g>
	<rect x="82" y="124" class="st2" width="35" height="5"/>
	<rect x="82" y="135" class="st2" width="35" height="3"/>
	<g>
		<rect x="179" y="96.5" class="st16" width="8" height="2"/>
		<rect x="191" y="96.5" class="st16" width="8" height="2"/>
		<rect x="203" y="96.5" class="st16" width="8" height="2"/>
		<rect x="215" y="96.5" class="st16" width="8" height="2"/>
		<rect x="227" y="96.5" class="st16" width="8" height="2"/>
		<rect x="239" y="96.5" class="st16" width="8" height="2"/>
		<rect x="251" y="96.5" class="st16" width="8" height="2"/>
		<rect x="263" y="96.5" class="st16" width="8" height="2"/>
		<rect x="275" y="96.5" class="st16" width="8" height="2"/>
		<rect x="287" y="96.5" class="st16" width="8" height="2"/>
		<rect x="299" y="96.5" class="st16" width="8" height="2"/>
		<rect x="311" y="96.5" class="st16" width="8" height="2"/>
		<polygon class="st16" points="323,93.5 323,101.5 330,97.5 		"/>
	</g>
	<g>
		<rect x="490" y="96.5" class="st16" width="8" height="2"/>
		<rect x="502" y="96.5" class="st16" width="8" height="2"/>
		<rect x="514" y="96.5" class="st16" width="8" height="2"/>
		<rect x="526" y="96.5" class="st16" width="8" height="2"/>
		<rect x="538" y="96.5" class="st16" width="8" height="2"/>
		<rect x="550" y="96.5" class="st16" width="8" height="2"/>
		<rect x="562" y="96.5" class="st16" width="8" height="2"/>
		<rect x="574" y="96.5" class="st16" width="8" height="2"/>
		<rect x="586" y="96.5" class="st16" width="8" height="2"/>
		<rect x="598" y="96.5" class="st16" width="8" height="2"/>
		<rect x="610" y="96.5" class="st16" width="8" height="2"/>
		<rect x="622" y="96.5" class="st16" width="8" height="2"/>
		<polygon class="st16" points="634,93.5 634,101.5 641,97.5 		"/>
	</g>
	<linearGradient id="SVGID_10_" gradientUnits="userSpaceOnUse" x1="432.8232" y1="39.1768" x2="448.1768" y2="54.5303">
		<stop  offset="0" style="stop-color:#00C8DC"/>
		<stop  offset="1" style="stop-color:#00A7E9"/>
	</linearGradient>
	<path style="fill:none;stroke:url(#SVGID_10_);stroke-miterlimit:10;" d="M425.5,46.5l3.4,3.4c0.4,0.4,0.8,0.6,1.3,0.6h20.4
		c0.5,0,1-0.2,1.3-0.6l3.4-3.4"/>
	<linearGradient id="SVGID_11_" gradientUnits="userSpaceOnUse" x1="402.3595" y1="60.8595" x2="479.6405" y2="138.1405">
		<stop  offset="0" style="stop-color:#00C8DC"/>
		<stop  offset="1" style="stop-color:#006EFF"/>
	</linearGradient>
	<path class="st14" d="M461.8,47c3.4,0,6.2,2.8,6.2,6.2v92.6c0,3.4-2.8,6.2-6.2,6.2h-41.6c-3.4,0-6.2-2.8-6.2-6.2V53.2
		c0-3.4,2.8-6.2,6.2-6.2H461.8 M461.8,46h-41.6c-4,0-7.2,3.2-7.2,7.2v92.6c0,4,3.2,7.2,7.2,7.2h41.6c4,0,7.2-3.2,7.2-7.2V53.2
		C469,49.2,465.8,46,461.8,46L461.8,46z"/>
	<rect x="424" y="112" class="st2" width="33" height="2"/>
	<rect x="424" y="117" class="st2" width="22" height="2"/>
	<rect x="424" y="122" class="st2" width="5" height="2"/>
	<linearGradient id="SVGID_12_" gradientUnits="userSpaceOnUse" x1="433.5251" y1="87.8358" x2="447.3891" y2="87.8358">
		<stop  offset="0" style="stop-color:#00C8DC"/>
		<stop  offset="1" style="stop-color:#006EFF"/>
	</linearGradient>
	<polygon class="st15" points="445.4,82.7 439.1,89 435.6,85.5 433.5,87.5 437.1,91.1 438.5,92.5 439,93 447.4,84.6 	"/>
	<g>
		<circle class="st2" cx="721" cy="100" r="59"/>
		<linearGradient id="SVGID_13_" gradientUnits="userSpaceOnUse" x1="679.2807" y1="58.2807" x2="762.7193" y2="141.7193">
			<stop  offset="0" style="stop-color:#00C8DC"/>
			<stop  offset="1" style="stop-color:#006EFF"/>
		</linearGradient>
		<path style="fill:url(#SVGID_13_);" d="M721,42c32,0,58,26,58,58s-26,58-58,58s-58-26-58-58S689,42,721,42 M721,41
			c-32.6,0-59,26.4-59,59s26.4,59,59,59s59-26.4,59-59S753.6,41,721,41L721,41z"/>
	</g>
	<path class="st2" d="M425,134h-70c-1.6,0-3-1.3-3-3V86c0-1.6,1.3-3,3-3h70c1.6,0,3,1.3,3,3v45C428,132.7,426.7,134,425,134z"/>
	<linearGradient id="SVGID_14_" gradientUnits="userSpaceOnUse" x1="359.122" y1="77.622" x2="420.878" y2="139.378">
		<stop  offset="0" style="stop-color:#00C8DC"/>
		<stop  offset="1" style="stop-color:#006EFF"/>
	</linearGradient>
	<path class="st18" d="M425,84c1.1,0,2,0.9,2,2v45c0,1.1-0.9,2-2,2h-70c-1.1,0-2-0.9-2-2V86c0-1.1,0.9-2,2-2H425 M425,83h-70
		c-1.6,0-3,1.3-3,3v45c0,1.6,1.3,3,3,3h70c1.6,0,3-1.3,3-3V86C428,84.3,426.7,83,425,83L425,83z"/>
	<g class="st3">
		<linearGradient id="SVGID_15_" gradientUnits="userSpaceOnUse" x1="352" y1="108.5" x2="428" y2="108.5">
			<stop  offset="0" style="stop-color:#00C8DC"/>
			<stop  offset="1" style="stop-color:#006EFF"/>
		</linearGradient>
		<path class="st19" d="M425,134h-70c-1.6,0-3-1.3-3-3V86c0-1.6,1.3-3,3-3h70c1.6,0,3,1.3,3,3v45C428,132.7,426.7,134,425,134z"/>
	</g>
	<linearGradient id="SVGID_16_" gradientUnits="userSpaceOnUse" x1="353" y1="96.5" x2="427" y2="96.5">
		<stop  offset="0" style="stop-color:#00C8DC"/>
		<stop  offset="1" style="stop-color:#006EFF"/>
	</linearGradient>
	<rect x="353" y="93" class="st20" width="74" height="7"/>
	<rect x="357" y="113" class="st2" width="33" height="4"/>
	<rect x="357" y="120" class="st2" width="22" height="2"/>
	<rect x="357" y="125" class="st2" width="22" height="2"/>
	<rect x="432" y="122" class="st2" width="5" height="2"/>
	<rect x="440" y="122" class="st2" width="5" height="2"/>
	<g class="st3">
		<linearGradient id="SVGID_17_" gradientUnits="userSpaceOnUse" x1="683.5233" y1="62.5233" x2="758.4767" y2="137.4767">
			<stop  offset="0" style="stop-color:#00C8DC"/>
			<stop  offset="1" style="stop-color:#006EFF"/>
		</linearGradient>
		<circle class="st21" cx="721" cy="100" r="53"/>
	</g>
	<g>
		<g>
			<linearGradient id="SVGID_18_" gradientUnits="userSpaceOnUse" x1="706.4615" y1="82.5385" x2="731.3846" y2="107.4615">
				<stop  offset="0" style="stop-color:#00C8DC"/>
				<stop  offset="1" style="stop-color:#006EFF"/>
			</linearGradient>
			<polygon class="st22" points="729,92 697,92 697,96 729,96 731,96 742.8,96 729,86.8 			"/>
			<linearGradient id="SVGID_19_" gradientUnits="userSpaceOnUse" x1="709.5938" y1="92.5312" x2="734.5312" y2="117.4688">
				<stop  offset="0" style="stop-color:#00C8DC"/>
				<stop  offset="1" style="stop-color:#006EFF"/>
			</linearGradient>
			<polygon class="st23" points="744,104 711.6,104 710,104 698.1,104 711.6,113 711.6,108 744,108 			"/>
		</g>
		<g>
			<linearGradient id="SVGID_20_" gradientUnits="userSpaceOnUse" x1="706.4615" y1="82.5385" x2="737.9615" y2="114.0385">
				<stop  offset="0" style="stop-color:#00C8DC"/>
				<stop  offset="1" style="stop-color:#006EFF"/>
			</linearGradient>
			<polygon class="st24" points="729,92 697,92 697,96 729,96 731,96 742.8,96 729,86.8 			"/>
			<linearGradient id="SVGID_21_" gradientUnits="userSpaceOnUse" x1="703.0312" y1="85.9688" x2="734.5312" y2="117.4688">
				<stop  offset="0" style="stop-color:#00C8DC"/>
				<stop  offset="1" style="stop-color:#006EFF"/>
			</linearGradient>
			<polygon class="st25" points="744,104 711.6,104 710,104 698.1,104 711.6,113 711.6,108 744,108 			"/>
		</g>
	</g>
	<g>
		<linearGradient id="SVGID_22_" gradientUnits="userSpaceOnUse" x1="674.4778" y1="72.3945" x2="767.5222" y2="72.3945">
			<stop  offset="0" style="stop-color:#00C8DC"/>
			<stop  offset="1" style="stop-color:#006EFF"/>
		</linearGradient>
		<path class="st26" d="M675.5,92c3.8-21.7,22.8-38.2,45.5-38.2s41.7,16.5,45.5,38.2h1c-3.8-22.3-23.2-39.2-46.5-39.2
			S678.3,69.7,674.5,92H675.5z"/>
		<linearGradient id="SVGID_23_" gradientUnits="userSpaceOnUse" x1="674.1819" y1="126.6055" x2="767.8181" y2="126.6055">
			<stop  offset="0" style="stop-color:#00C8DC"/>
			<stop  offset="1" style="stop-color:#006EFF"/>
		</linearGradient>
		<path class="st27" d="M766.8,106c-3,22.7-22.4,40.2-45.8,40.2s-42.9-17.6-45.8-40.2h-1c2.9,23.2,22.8,41.2,46.8,41.2
			s43.9-18,46.8-41.2H766.8z"/>
	</g>
</g>
<g id="图层_2_1_">
</g>
<g id="图层_3">
</g>
</svg>
