<?xml version="1.0" encoding="UTF-8"?>
<svg width="144px" height="144px" viewBox="0 0 144 144" version="1.1" xmlns="http://www.w3.org/2000/svg" xmlns:xlink="http://www.w3.org/1999/xlink">
    <!-- Generator: Sketch 48.2 (47327) - http://www.bohemiancoding.com/sketch -->
    <title>网站备案</title>
    <desc>Created with Sketch.</desc>
    <defs></defs>
    <g id="切图" stroke="none" stroke-width="1" fill="none" fill-rule="evenodd">
        <g id="网站备案" fill="#000000">
            <path d="M7,20 L7,124 L137,124 L137,121.001 L10,121.001 L10,43 L134,43 L134,111.001 L137,111.001 L137,20 L7,20 Z M10,40.001 L134,40.001 L134,23.001 L10,23.001 L10,40.001 Z M45,64 L99,64 L99,61 L45,61 L45,64 Z M45,83 L99,83 L99,80 L45,80 L45,83 Z M45,102 L99,102 L99,99 L45,99 L45,102 Z" id="Page-1"></path>
        </g>
    </g>
</svg>