<?xml version="1.0" encoding="UTF-8"?>
<svg width="838px" height="403px" viewBox="0 0 838 403" version="1.1" xmlns="http://www.w3.org/2000/svg" xmlns:xlink="http://www.w3.org/1999/xlink">
    <!-- Generator: Sketch 47.1 (45422) - http://www.bohemiancoding.com/sketch -->
    <title>Group</title>
    <desc>Created with Sketch.</desc>
    <defs>
        <rect id="path-1" x="0" y="0" width="127" height="50"></rect>
        <filter x="-2.8%" y="-5.0%" width="105.5%" height="114.0%" filterUnits="objectBoundingBox" id="filter-2">
            <feOffset dx="0" dy="1" in="SourceAlpha" result="shadowOffsetOuter1"></feOffset>
            <feGaussianBlur stdDeviation="1" in="shadowOffsetOuter1" result="shadowBlurOuter1"></feGaussianBlur>
            <feColorMatrix values="0 0 0 0 0   0 0 0 0 0   0 0 0 0 0  0 0 0 0.35 0" type="matrix" in="shadowBlurOuter1"></feColorMatrix>
        </filter>
        <rect id="path-3" x="0" y="0" width="127" height="50"></rect>
        <filter x="-2.8%" y="-5.0%" width="105.5%" height="114.0%" filterUnits="objectBoundingBox" id="filter-4">
            <feOffset dx="0" dy="1" in="SourceAlpha" result="shadowOffsetOuter1"></feOffset>
            <feGaussianBlur stdDeviation="1" in="shadowOffsetOuter1" result="shadowBlurOuter1"></feGaussianBlur>
            <feColorMatrix values="0 0 0 0 0   0 0 0 0 0   0 0 0 0 0  0 0 0 0.35 0" type="matrix" in="shadowBlurOuter1"></feColorMatrix>
        </filter>
        <rect id="path-5" x="0" y="0" width="152" height="84"></rect>
        <filter x="-2.3%" y="-3.0%" width="104.6%" height="108.3%" filterUnits="objectBoundingBox" id="filter-6">
            <feOffset dx="0" dy="1" in="SourceAlpha" result="shadowOffsetOuter1"></feOffset>
            <feGaussianBlur stdDeviation="1" in="shadowOffsetOuter1" result="shadowBlurOuter1"></feGaussianBlur>
            <feColorMatrix values="0 0 0 0 0   0 0 0 0 0   0 0 0 0 0  0 0 0 0.35 0" type="matrix" in="shadowBlurOuter1"></feColorMatrix>
        </filter>
        <polygon id="path-7" points="0 32 32 32 32 0 0 0"></polygon>
        <polygon id="path-9" points="0 86 312 86 312 402 0 402"></polygon>
        <mask id="mask-10" maskContentUnits="userSpaceOnUse" maskUnits="objectBoundingBox" x="0" y="0" width="312" height="316" fill="white">
            <use xlink:href="#path-9"></use>
        </mask>
        <polygon id="path-11" points="526 86 838 86 838 402 526 402"></polygon>
        <mask id="mask-12" maskContentUnits="userSpaceOnUse" maskUnits="objectBoundingBox" x="0" y="0" width="312" height="316" fill="white">
            <use xlink:href="#path-11"></use>
        </mask>
        <rect id="path-13" x="0" y="0" width="124" height="44"></rect>
        <filter x="-2.8%" y="-5.7%" width="105.6%" height="115.9%" filterUnits="objectBoundingBox" id="filter-14">
            <feOffset dx="0" dy="1" in="SourceAlpha" result="shadowOffsetOuter1"></feOffset>
            <feGaussianBlur stdDeviation="1" in="shadowOffsetOuter1" result="shadowBlurOuter1"></feGaussianBlur>
            <feColorMatrix values="0 0 0 0 0   0 0 0 0 0   0 0 0 0 0  0 0 0 0.35 0" type="matrix" in="shadowBlurOuter1"></feColorMatrix>
        </filter>
        <rect id="path-15" x="0" y="0" width="124" height="44"></rect>
        <filter x="-2.8%" y="-5.7%" width="105.6%" height="115.9%" filterUnits="objectBoundingBox" id="filter-16">
            <feOffset dx="0" dy="1" in="SourceAlpha" result="shadowOffsetOuter1"></feOffset>
            <feGaussianBlur stdDeviation="1" in="shadowOffsetOuter1" result="shadowBlurOuter1"></feGaussianBlur>
            <feColorMatrix values="0 0 0 0 0   0 0 0 0 0   0 0 0 0 0  0 0 0 0.35 0" type="matrix" in="shadowBlurOuter1"></feColorMatrix>
        </filter>
        <rect id="path-17" x="0" y="0" width="127" height="44"></rect>
        <filter x="-2.8%" y="-5.7%" width="105.5%" height="115.9%" filterUnits="objectBoundingBox" id="filter-18">
            <feOffset dx="0" dy="1" in="SourceAlpha" result="shadowOffsetOuter1"></feOffset>
            <feGaussianBlur stdDeviation="1" in="shadowOffsetOuter1" result="shadowBlurOuter1"></feGaussianBlur>
            <feColorMatrix values="0 0 0 0 0   0 0 0 0 0   0 0 0 0 0  0 0 0 0.35 0" type="matrix" in="shadowBlurOuter1"></feColorMatrix>
        </filter>
        <rect id="path-19" x="0" y="0" width="104" height="44"></rect>
        <filter x="-3.4%" y="-5.7%" width="106.7%" height="115.9%" filterUnits="objectBoundingBox" id="filter-20">
            <feOffset dx="0" dy="1" in="SourceAlpha" result="shadowOffsetOuter1"></feOffset>
            <feGaussianBlur stdDeviation="1" in="shadowOffsetOuter1" result="shadowBlurOuter1"></feGaussianBlur>
            <feColorMatrix values="0 0 0 0 0   0 0 0 0 0   0 0 0 0 0  0 0 0 0.35 0" type="matrix" in="shadowBlurOuter1"></feColorMatrix>
        </filter>
        <polygon id="path-21" points="24 11.4997 24 0 0 0 0 11.4997 0 22.9994 24 22.9994"></polygon>
        <rect id="path-23" x="0" y="0" width="104" height="44"></rect>
        <filter x="-3.4%" y="-5.7%" width="106.7%" height="115.9%" filterUnits="objectBoundingBox" id="filter-24">
            <feOffset dx="0" dy="1" in="SourceAlpha" result="shadowOffsetOuter1"></feOffset>
            <feGaussianBlur stdDeviation="1" in="shadowOffsetOuter1" result="shadowBlurOuter1"></feGaussianBlur>
            <feColorMatrix values="0 0 0 0 0   0 0 0 0 0   0 0 0 0 0  0 0 0 0.35 0" type="matrix" in="shadowBlurOuter1"></feColorMatrix>
        </filter>
        <polygon id="path-25" points="24 11.4997 24 0 0 0 0 11.4997 0 22.9994 24 22.9994"></polygon>
        <rect id="path-27" x="0" y="0" width="124" height="44"></rect>
        <filter x="-2.8%" y="-5.7%" width="105.6%" height="115.9%" filterUnits="objectBoundingBox" id="filter-28">
            <feOffset dx="0" dy="1" in="SourceAlpha" result="shadowOffsetOuter1"></feOffset>
            <feGaussianBlur stdDeviation="1" in="shadowOffsetOuter1" result="shadowBlurOuter1"></feGaussianBlur>
            <feColorMatrix values="0 0 0 0 0   0 0 0 0 0   0 0 0 0 0  0 0 0 0.35 0" type="matrix" in="shadowBlurOuter1"></feColorMatrix>
        </filter>
        <rect id="path-29" x="0" y="0" width="124" height="44"></rect>
        <filter x="-2.8%" y="-5.7%" width="105.6%" height="115.9%" filterUnits="objectBoundingBox" id="filter-30">
            <feOffset dx="0" dy="1" in="SourceAlpha" result="shadowOffsetOuter1"></feOffset>
            <feGaussianBlur stdDeviation="1" in="shadowOffsetOuter1" result="shadowBlurOuter1"></feGaussianBlur>
            <feColorMatrix values="0 0 0 0 0   0 0 0 0 0   0 0 0 0 0  0 0 0 0.35 0" type="matrix" in="shadowBlurOuter1"></feColorMatrix>
        </filter>
        <rect id="path-31" x="0" y="0" width="127" height="44"></rect>
        <filter x="-2.8%" y="-5.7%" width="105.5%" height="115.9%" filterUnits="objectBoundingBox" id="filter-32">
            <feOffset dx="0" dy="1" in="SourceAlpha" result="shadowOffsetOuter1"></feOffset>
            <feGaussianBlur stdDeviation="1" in="shadowOffsetOuter1" result="shadowBlurOuter1"></feGaussianBlur>
            <feColorMatrix values="0 0 0 0 0   0 0 0 0 0   0 0 0 0 0  0 0 0 0.35 0" type="matrix" in="shadowBlurOuter1"></feColorMatrix>
        </filter>
        <rect id="path-33" x="0" y="0" width="104" height="44"></rect>
        <filter x="-3.4%" y="-5.7%" width="106.7%" height="115.9%" filterUnits="objectBoundingBox" id="filter-34">
            <feOffset dx="0" dy="1" in="SourceAlpha" result="shadowOffsetOuter1"></feOffset>
            <feGaussianBlur stdDeviation="1" in="shadowOffsetOuter1" result="shadowBlurOuter1"></feGaussianBlur>
            <feColorMatrix values="0 0 0 0 0   0 0 0 0 0   0 0 0 0 0  0 0 0 0.35 0" type="matrix" in="shadowBlurOuter1"></feColorMatrix>
        </filter>
        <polygon id="path-35" points="24 11.4997 24 0 0 0 0 11.4997 0 22.9994 24 22.9994"></polygon>
        <rect id="path-37" x="0" y="0" width="104" height="44"></rect>
        <filter x="-3.4%" y="-5.7%" width="106.7%" height="115.9%" filterUnits="objectBoundingBox" id="filter-38">
            <feOffset dx="0" dy="1" in="SourceAlpha" result="shadowOffsetOuter1"></feOffset>
            <feGaussianBlur stdDeviation="1" in="shadowOffsetOuter1" result="shadowBlurOuter1"></feGaussianBlur>
            <feColorMatrix values="0 0 0 0 0   0 0 0 0 0   0 0 0 0 0  0 0 0 0.35 0" type="matrix" in="shadowBlurOuter1"></feColorMatrix>
        </filter>
        <polygon id="path-39" points="24 11.4997 24 0 0 0 0 11.4997 0 22.9994 24 22.9994"></polygon>
    </defs>
    <g id="Page-1" stroke="none" stroke-width="1" fill="none" fill-rule="evenodd">
        <g id="Artboard-Copy-3" transform="translate(-540.000000, -1057.000000)">
            <g id="Group" transform="translate(540.000000, 1058.000000)">
                <g id="Group-20" transform="translate(93.000000, 0.000000)">
                    <g id="Rectangle-5-Copy-25">
                        <use fill="black" fill-opacity="1" filter="url(#filter-2)" xlink:href="#path-1"></use>
                        <use fill="#FFFFFF" fill-rule="evenodd" xlink:href="#path-1"></use>
                    </g>
                    <g id="Group-19" transform="translate(10.000000, 13.000000)">
                        <g id="Page-1" fill="#878787">
                            <path d="M12,0 C8.687,0 6,2.687 6,6 C6,9.313 8.687,12 12,12 C15.313,12 18,9.313 18,6 C18,2.687 15.313,0 12,0 M12,2 C14.205,2 16,3.795 16,6 C16,8.205 14.205,10 12,10 C9.795,10 8,8.205 8,6 C8,3.795 9.795,2 12,2 Z M16.0039,14 C20.4199,14 23.9999,17.58 23.9999,21.996 L23.9999,25 L-9.99999993e-05,25 L-9.99999993e-05,21.996 C-9.99999993e-05,17.58 3.5799,14 7.9959,14 L16.0039,14 Z M16.0039,16 L7.9959,16 C4.6899,16 1.9999,18.689 1.9999,21.996 L1.9999,23 L21.9999,23 L21.9999,21.996 C21.9999,18.689 19.3109,16 16.0039,16 Z M24.998,14 C28.312,14 31,16.688 31,20.002 L31,23 L26,23 L26,21.996 C26,21.66 25.982,21.328 25.949,21 L29,21 L29,20.002 C29,17.795 27.205,16 24.998,16 L23.982,16 C23.412,15.242 22.737,14.569 21.977,14 L24.998,14 Z M21,1 C23.762,1 26,3.238 26,6 C26,8.762 23.762,11 21,11 C20.155,11 19.371,10.771 18.674,10.4 C19.039,9.849 19.333,9.247 19.554,8.611 C19.984,8.852 20.473,9 21,9 C22.654,9 24,7.654 24,6 C24,4.346 22.654,3 21,3 C20.473,3 19.984,3.148 19.554,3.389 C19.333,2.753 19.039,2.151 18.674,1.6 C19.371,1.229 20.155,1 21,1 Z" id="Combined-Shape"></path>
                        </g>
                        <text id="地域A用户" font-family="PingFangSC-Medium, PingFang SC" font-size="14" font-weight="400" fill="#444444">
                            <tspan x="41" y="17">地域A用户</tspan>
                        </text>
                    </g>
                </g>
                <g id="Group-20-Copy-2" transform="translate(619.000000, 0.000000)">
                    <g id="Rectangle-5-Copy-25">
                        <use fill="black" fill-opacity="1" filter="url(#filter-4)" xlink:href="#path-3"></use>
                        <use fill="#FFFFFF" fill-rule="evenodd" xlink:href="#path-3"></use>
                    </g>
                    <g id="Group-19" transform="translate(10.000000, 13.000000)">
                        <g id="Page-1" fill="#878787">
                            <path d="M12,0 C8.687,0 6,2.687 6,6 C6,9.313 8.687,12 12,12 C15.313,12 18,9.313 18,6 C18,2.687 15.313,0 12,0 M12,2 C14.205,2 16,3.795 16,6 C16,8.205 14.205,10 12,10 C9.795,10 8,8.205 8,6 C8,3.795 9.795,2 12,2 Z M16.0039,14 C20.4199,14 23.9999,17.58 23.9999,21.996 L23.9999,25 L-9.99999993e-05,25 L-9.99999993e-05,21.996 C-9.99999993e-05,17.58 3.5799,14 7.9959,14 L16.0039,14 Z M16.0039,16 L7.9959,16 C4.6899,16 1.9999,18.689 1.9999,21.996 L1.9999,23 L21.9999,23 L21.9999,21.996 C21.9999,18.689 19.3109,16 16.0039,16 Z M24.998,14 C28.312,14 31,16.688 31,20.002 L31,23 L26,23 L26,21.996 C26,21.66 25.982,21.328 25.949,21 L29,21 L29,20.002 C29,17.795 27.205,16 24.998,16 L23.982,16 C23.412,15.242 22.737,14.569 21.977,14 L24.998,14 Z M21,1 C23.762,1 26,3.238 26,6 C26,8.762 23.762,11 21,11 C20.155,11 19.371,10.771 18.674,10.4 C19.039,9.849 19.333,9.247 19.554,8.611 C19.984,8.852 20.473,9 21,9 C22.654,9 24,7.654 24,6 C24,4.346 22.654,3 21,3 C20.473,3 19.984,3.148 19.554,3.389 C19.333,2.753 19.039,2.151 18.674,1.6 C19.371,1.229 20.155,1 21,1 Z" id="Combined-Shape"></path>
                        </g>
                        <text id="地域B用户" font-family="PingFangSC-Medium, PingFang SC" font-size="14" font-weight="400" fill="#444444">
                            <tspan x="41" y="17">地域B用户</tspan>
                        </text>
                    </g>
                </g>
                <g id="Page-1-Copy-18" transform="translate(158.500000, 62.500000) rotate(90.000000) translate(-158.500000, -62.500000) translate(146.000000, 58.000000)" fill="#878787">
                    <polygon id="Fill-1" points="20.0004 0 20.0004 9 25.0004 4.5"></polygon>
                    <polygon id="Fill-3" points="0 5 21 5 21 3.999 0 3.999"></polygon>
                </g>
                <g id="Page-1-Copy-22" transform="translate(682.500000, 62.500000) rotate(90.000000) translate(-682.500000, -62.500000) translate(670.000000, 58.000000)" fill="#878787">
                    <polygon id="Fill-1" points="20.0004 0 20.0004 9 25.0004 4.5"></polygon>
                    <polygon id="Fill-3" points="0 5 21 5 21 3.999 0 3.999"></polygon>
                </g>
                <g id="Group-2" transform="translate(343.000000, 298.000000)">
                    <g id="Rectangle-5-Copy-29">
                        <use fill="black" fill-opacity="1" filter="url(#filter-6)" xlink:href="#path-5"></use>
                        <use fill="#FFFFFF" fill-rule="evenodd" xlink:href="#path-5"></use>
                    </g>
                    <rect id="Rectangle-2" fill="#BABABA" x="15" y="47" width="122" height="1"></rect>
                    <text id="数据传输服务" font-family="PingFangSC-Medium, PingFang SC" font-size="14" font-weight="400" fill="#444444">
                        <tspan x="55" y="29">数据传输服务</tspan>
                    </text>
                    <text id="数据传输实时同步" font-family="PingFangSC-Medium, PingFang SC" font-size="14" font-weight="400" fill="#999999">
                        <tspan x="15" y="71">数据传输实时同步</tspan>
                    </text>
                    <g id="Page-1" transform="translate(15.000000, 10.000000)">
                        <path d="M2,23 L0,23 C0,25.762 5.373,28 12,28 C12.171,28 12.337,27.992 12.506,27.989 C12.001,27.376 11.569,26.702 11.205,25.988 C6.055,25.866 2,24.576 2,23 Z M12,2 C6.478,2 2,3.343 2,5 C2,6.657 6.478,8 12,8 C17.522,8 22,6.657 22,5 C22,3.343 17.522,2 12,2 Z M2,16.762 L2,23 L0,23 L0,5 C0,2.238 5.373,0 12,0 C18.627,0 24,2.238 24,5 L24,10.425 C23.354,10.242 22.687,10.112 22,10.051 L22,7.762 C19.851,9.11 16.176,10 12,10 C7.824,10 4.149,9.11 2,7.762 L2,14 C2,15.531 5.829,16.793 10.771,16.975 C10.522,17.604 10.329,18.259 10.2,18.938 C6.781,18.723 3.834,17.912 2,16.762 Z M21,27 C24.313,27 27,24.313 27,21 C27,17.687 24.313,15 21,15 C17.687,15 15,17.687 15,21 C15,24.313 17.687,27 21,27 Z M21,13 C25.418,13 29,16.582 29,21 C29,25.418 25.418,29 21,29 C16.582,29 13,25.418 13,21 C13,16.582 16.582,13 21,13 Z" id="Fill-1" fill="#00A4FF"></path>
                        <mask id="mask-8" fill="white">
                            <use xlink:href="#path-7"></use>
                        </mask>
                        <g id="Clip-4"></g>
                        <polygon id="Fill-3" fill="#00A4FF" mask="url(#mask-8)" points="18 20 21 20 21 18 18 18"></polygon>
                        <polygon id="Fill-5" fill="#00A4FF" mask="url(#mask-8)" points="25 20 21 20 21 16"></polygon>
                        <polygon id="Fill-6" fill="#00A4FF" mask="url(#mask-8)" points="21 24 24 24 24 22 21 22"></polygon>
                        <polygon id="Fill-7" fill="#00A4FF" mask="url(#mask-8)" points="17 22 21 22 21 26"></polygon>
                    </g>
                </g>
                <use id="Rectangle-10" stroke="#BABABA" mask="url(#mask-10)" stroke-width="2" stroke-dasharray="6,4" xlink:href="#path-9"></use>
                <use id="Rectangle-10-Copy" stroke="#BABABA" mask="url(#mask-12)" stroke-width="2" stroke-dasharray="6,4" xlink:href="#path-11"></use>
                <g id="Group-10" transform="translate(20.000000, 108.000000)">
                    <g id="Group-12" transform="translate(0.000000, 106.000000)">
                        <g id="Rectangle-5-Copy-28">
                            <use fill="black" fill-opacity="1" filter="url(#filter-14)" xlink:href="#path-13"></use>
                            <use fill="#FFFFFF" fill-rule="evenodd" xlink:href="#path-13"></use>
                        </g>
                        <text id="云服务器-copy-3" font-family="PingFangSC-Medium, PingFang SC" font-size="14" font-weight="400" fill="#444444">
                            <tspan x="50" y="27">云服务器</tspan>
                        </text>
                        <g id="Page-1-Copy-15" transform="translate(10.000000, 6.000000)" fill="#00A4FF">
                            <path d="M15,15.6965 L10.281,12.9995 L15,10.3035 L19.719,12.9995 L15,15.6965 Z M22,11.9995 L15,7.9995 L8,11.9995 L8,19.9995 L11.195,21.8255 C11.398,21.1685 11.753,20.5815 12.237,20.1175 L10,18.8395 L10,15.1425 L15,17.9995 L20,15.1425 L20,18.8395 L15.863,21.2035 C15.601,21.0765 15.311,20.9995 15,20.9995 C13.896,20.9995 13,21.8955 13,22.9995 C13,24.1045 13.896,24.9995 15,24.9995 C16.104,24.9995 17,24.1045 17,22.9995 C17,22.9535 16.99,22.9105 16.986,22.8645 L22,19.9995 L22,11.9995 Z M15,28.9995 C7.82,28.9995 2,23.1795 2,15.9995 C2,8.8205 7.82,2.9995 15,2.9995 C21.498,2.9995 26.866,7.7725 27.831,13.9995 L29.851,13.9995 C28.871,6.6635 22.604,0.9995 15,0.9995 C6.716,0.9995 0,7.7155 0,15.9995 C0,24.2845 6.716,30.9995 15,30.9995 C22.604,30.9995 28.871,25.3365 29.851,17.9995 L27.831,17.9995 C26.866,24.2275 21.498,28.9995 15,28.9995 L15,28.9995 Z" id="Fill-1"></path>
                        </g>
                    </g>
                    <g id="Group-12-Copy" transform="translate(148.000000, 106.000000)">
                        <g id="Rectangle-5-Copy-28">
                            <use fill="black" fill-opacity="1" filter="url(#filter-16)" xlink:href="#path-15"></use>
                            <use fill="#FFFFFF" fill-rule="evenodd" xlink:href="#path-15"></use>
                        </g>
                        <text id="云服务器-copy-3" font-family="PingFangSC-Medium, PingFang SC" font-size="14" font-weight="400" fill="#444444">
                            <tspan x="50" y="27">云服务器</tspan>
                        </text>
                        <g id="Page-1-Copy-15" transform="translate(10.000000, 6.000000)" fill="#00A4FF">
                            <path d="M15,15.6965 L10.281,12.9995 L15,10.3035 L19.719,12.9995 L15,15.6965 Z M22,11.9995 L15,7.9995 L8,11.9995 L8,19.9995 L11.195,21.8255 C11.398,21.1685 11.753,20.5815 12.237,20.1175 L10,18.8395 L10,15.1425 L15,17.9995 L20,15.1425 L20,18.8395 L15.863,21.2035 C15.601,21.0765 15.311,20.9995 15,20.9995 C13.896,20.9995 13,21.8955 13,22.9995 C13,24.1045 13.896,24.9995 15,24.9995 C16.104,24.9995 17,24.1045 17,22.9995 C17,22.9535 16.99,22.9105 16.986,22.8645 L22,19.9995 L22,11.9995 Z M15,28.9995 C7.82,28.9995 2,23.1795 2,15.9995 C2,8.8205 7.82,2.9995 15,2.9995 C21.498,2.9995 26.866,7.7725 27.831,13.9995 L29.851,13.9995 C28.871,6.6635 22.604,0.9995 15,0.9995 C6.716,0.9995 0,7.7155 0,15.9995 C0,24.2845 6.716,30.9995 15,30.9995 C22.604,30.9995 28.871,25.3365 29.851,17.9995 L27.831,17.9995 C26.866,24.2275 21.498,28.9995 15,28.9995 L15,28.9995 Z" id="Fill-1"></path>
                        </g>
                    </g>
                    <g id="Group-Copy" transform="translate(57.000000, 44.000000)" fill="#878787">
                        <polygon id="Fill-3" transform="translate(79.500000, 10.500500) rotate(90.000000) translate(-79.500000, -10.500500) " points="69 11.001 90 11.001 90 10 69 10"></polygon>
                        <polygon id="Fill-3-Copy" transform="translate(79.500000, 21.000250) rotate(90.000000) translate(-79.500000, -21.000250) " points="79 96.0005 80 96.0005 80 -54 79 -54"></polygon>
                        <g id="Page-1-Copy-18" transform="translate(4.500000, 38.500000) rotate(90.000000) translate(-4.500000, -38.500000) translate(-13.000000, 34.000000)">
                            <polygon id="Fill-1" points="30.0004 0 30.0004 9 35.0004 4.5"></polygon>
                            <polygon id="Fill-3" points="0 5 31 5 31 3.999 0 3.999"></polygon>
                        </g>
                        <g id="Page-1-Copy-19" transform="translate(153.500000, 38.500000) rotate(90.000000) translate(-153.500000, -38.500000) translate(136.000000, 34.000000)">
                            <polygon id="Fill-1" points="30 0 30 9 35 4.5"></polygon>
                            <polygon id="Fill-3" points="0 5 31 5 31 4 0 4"></polygon>
                        </g>
                    </g>
                    <g id="Group-11" transform="translate(73.000000, 0.000000)">
                        <g id="Rectangle-5-Copy-26">
                            <use fill="black" fill-opacity="1" filter="url(#filter-18)" xlink:href="#path-17"></use>
                            <use fill="#FFFFFF" fill-rule="evenodd" xlink:href="#path-17"></use>
                        </g>
                        <text id="负载均衡" font-family="PingFangSC-Medium, PingFang SC" font-size="14" font-weight="400" fill="#444444">
                            <tspan x="56" y="27">负载均衡</tspan>
                        </text>
                        <g id="负载均衡CLB" transform="translate(15.000000, 7.000000)" fill="#00A4FF">
                            <path d="M20,13 C18.8954305,13 18,13.8954305 18,15 C18,16.1045695 18.8954305,17 20,17 C21.1045695,17 22,16.1045695 22,15 C22,13.8954305 21.1045695,13 20,13 Z M16,28 C9.07835773,28.0081096 3.36413722,22.5913761 3.0025223,15.6791816 C2.64090739,8.76698719 7.75872332,2.78357028 14.6434274,2.06939397 C21.5281314,1.35521766 27.7651265,6.16075721 28.83,13 L30.83,13 C29.7773016,5.17525662 22.8392862,-0.494007791 14.9616916,0.0335202668 C7.08409694,0.561048325 0.963931253,7.10476201 0.963931253,15 C0.963931253,22.895238 7.08409694,29.4389517 14.9616916,29.9664797 C22.8392862,30.4940078 29.7773016,24.8247434 30.83,17 L28.83,17 C27.8451216,23.325525 22.4017338,27.9924982 16,28 Z M16,11 L16,9 L10,9 L10,21 L16,21 L16,19 L12,19 L12,16 L16,16 L16,14 L12,14 L12,11 L16,11 Z M20,8 C18.8954305,8 18,8.8954305 18,10 C18,11.1045695 18.8954305,12 20,12 C21.1045695,12 22,11.1045695 22,10 C22,8.8954305 21.1045695,8 20,8 Z M20,18 C18.8954305,18 18,18.8954305 18,20 C18,21.1045695 18.8954305,22 20,22 C21.1045695,22 22,21.1045695 22,20 C22,18.8954305 21.1045695,18 20,18 Z" id="_复合路径_"></path>
                        </g>
                    </g>
                    <rect id="Rectangle-14" fill="#CEE3FF" x="0" y="190" width="272" height="84"></rect>
                    <g id="Group-8-Copy-2" transform="translate(10.000000, 210.000000)">
                        <g id="Rectangle-5-Copy-30">
                            <use fill="black" fill-opacity="1" filter="url(#filter-20)" xlink:href="#path-19"></use>
                            <use fill="#FFFFFF" fill-rule="evenodd" xlink:href="#path-19"></use>
                        </g>
                        <g id="Page-1" transform="translate(21.000000, 9.000000)">
                            <g id="Group-3">
                                <mask id="mask-22" fill="white">
                                    <use xlink:href="#path-21"></use>
                                </mask>
                                <g id="Clip-2"></g>
                                <path d="M2,7.7614 C4.149,9.1104 7.824,9.9994 12,9.9994 C16.176,9.9994 19.851,9.1104 22,7.7614 L22,14.0014 C21.998,15.6574 17.521,16.9994 12,16.9994 C6.478,16.9994 2,15.6574 2,13.9994 L2,7.7614 Z M12,1.9994 C17.522,1.9994 22,3.3434 22,4.9994 C22,6.6574 17.522,7.9994 12,7.9994 C6.478,7.9994 2,6.6574 2,4.9994 C2,3.3434 6.478,1.9994 12,1.9994 L12,1.9994 Z M2,16.7614 C4.149,18.1104 7.824,18.9994 12,18.9994 C16.176,18.9994 19.851,18.1104 22,16.7614 L22,22.9994 L24,22.9994 L24,14.0004 L24,13.9994 L24,4.9994 C24,2.2394 18.627,-0.0006 12,-0.0006 C5.373,-0.0006 0,2.2394 0,4.9994 L0,22.9994 L2,22.9994 L2,16.7614 Z" id="Fill-1" fill="#00A4FF" mask="url(#mask-22)"></path>
                            </g>
                            <path d="M12,25.9996 C6.478,25.9996 2,24.6566 2,22.9996 L0,22.9996 C0,25.7616 5.373,27.9996 12,27.9996 C18.628,27.9996 24,25.7616 24,22.9996 L22,22.9996 C22,24.6566 17.523,25.9996 12,25.9996" id="Fill-4" fill="#00A4FF"></path>
                        </g>
                        <text id="主库" font-family="PingFangSC-Medium, PingFang SC" font-size="14" font-weight="400" fill="#444444">
                            <tspan x="55" y="27">主库</tspan>
                        </text>
                    </g>
                    <g id="Group-8-Copy-3" transform="translate(158.000000, 210.000000)">
                        <g id="Rectangle-5-Copy-30">
                            <use fill="black" fill-opacity="1" filter="url(#filter-24)" xlink:href="#path-23"></use>
                            <use fill="#FFFFFF" fill-rule="evenodd" xlink:href="#path-23"></use>
                        </g>
                        <g id="Page-1" transform="translate(21.000000, 9.000000)">
                            <g id="Group-3">
                                <mask id="mask-26" fill="white">
                                    <use xlink:href="#path-25"></use>
                                </mask>
                                <g id="Clip-2"></g>
                                <path d="M2,7.7614 C4.149,9.1104 7.824,9.9994 12,9.9994 C16.176,9.9994 19.851,9.1104 22,7.7614 L22,14.0014 C21.998,15.6574 17.521,16.9994 12,16.9994 C6.478,16.9994 2,15.6574 2,13.9994 L2,7.7614 Z M12,1.9994 C17.522,1.9994 22,3.3434 22,4.9994 C22,6.6574 17.522,7.9994 12,7.9994 C6.478,7.9994 2,6.6574 2,4.9994 C2,3.3434 6.478,1.9994 12,1.9994 L12,1.9994 Z M2,16.7614 C4.149,18.1104 7.824,18.9994 12,18.9994 C16.176,18.9994 19.851,18.1104 22,16.7614 L22,22.9994 L24,22.9994 L24,14.0004 L24,13.9994 L24,4.9994 C24,2.2394 18.627,-0.0006 12,-0.0006 C5.373,-0.0006 0,2.2394 0,4.9994 L0,22.9994 L2,22.9994 L2,16.7614 Z" id="Fill-1" fill="#00A4FF" mask="url(#mask-26)"></path>
                            </g>
                            <path d="M12,25.9996 C6.478,25.9996 2,24.6566 2,22.9996 L0,22.9996 C0,25.7616 5.373,27.9996 12,27.9996 C18.628,27.9996 24,25.7616 24,22.9996 L22,22.9996 C22,24.6566 17.523,25.9996 12,25.9996" id="Fill-4" fill="#00A4FF"></path>
                        </g>
                        <text id="备库" font-family="PingFangSC-Medium, PingFang SC" font-size="14" font-weight="400" fill="#444444">
                            <tspan x="55" y="27">备库</tspan>
                        </text>
                    </g>
                    <g id="Page-1-Copy-26" transform="translate(114.000000, 228.000000)" fill="#878787">
                        <polygon id="Fill-1" points="34.0004 0 34.0004 9 39.0004 4.5"></polygon>
                        <polygon id="Fill-3" points="0 5 35 5 35 3.999 0 3.999"></polygon>
                    </g>
                    <polyline id="Path-6" stroke="#979797" points="212 150 212 170.290258 85 170.290258 85 190"></polyline>
                    <polygon id="Fill-1" fill="#878787" opacity="0.899999976" transform="translate(85.000000, 192.500000) rotate(90.000000) translate(-85.000000, -192.500000) " points="82.5 187.5 82.5 197.5 87.5 192.5"></polygon>
                    <polygon id="Fill-1-Copy" fill="#878787" opacity="0.899999976" transform="translate(61.500000, 192.500000) rotate(90.000000) translate(-61.500000, -192.500000) " points="59 188 59 197 64 192.5"></polygon>
                    <rect id="Rectangle-15" fill="#8D8F92" x="61" y="150" width="1" height="40"></rect>
                </g>
                <g id="Group-10-Copy-2" transform="translate(546.000000, 108.000000)">
                    <g id="Group-12" transform="translate(0.000000, 106.000000)">
                        <g id="Rectangle-5-Copy-28">
                            <use fill="black" fill-opacity="1" filter="url(#filter-28)" xlink:href="#path-27"></use>
                            <use fill="#FFFFFF" fill-rule="evenodd" xlink:href="#path-27"></use>
                        </g>
                        <text id="云服务器-copy-3" font-family="PingFangSC-Medium, PingFang SC" font-size="14" font-weight="400" fill="#444444">
                            <tspan x="50" y="27">云服务器</tspan>
                        </text>
                        <g id="Page-1-Copy-15" transform="translate(10.000000, 6.000000)" fill="#00A4FF">
                            <path d="M15,15.6965 L10.281,12.9995 L15,10.3035 L19.719,12.9995 L15,15.6965 Z M22,11.9995 L15,7.9995 L8,11.9995 L8,19.9995 L11.195,21.8255 C11.398,21.1685 11.753,20.5815 12.237,20.1175 L10,18.8395 L10,15.1425 L15,17.9995 L20,15.1425 L20,18.8395 L15.863,21.2035 C15.601,21.0765 15.311,20.9995 15,20.9995 C13.896,20.9995 13,21.8955 13,22.9995 C13,24.1045 13.896,24.9995 15,24.9995 C16.104,24.9995 17,24.1045 17,22.9995 C17,22.9535 16.99,22.9105 16.986,22.8645 L22,19.9995 L22,11.9995 Z M15,28.9995 C7.82,28.9995 2,23.1795 2,15.9995 C2,8.8205 7.82,2.9995 15,2.9995 C21.498,2.9995 26.866,7.7725 27.831,13.9995 L29.851,13.9995 C28.871,6.6635 22.604,0.9995 15,0.9995 C6.716,0.9995 0,7.7155 0,15.9995 C0,24.2845 6.716,30.9995 15,30.9995 C22.604,30.9995 28.871,25.3365 29.851,17.9995 L27.831,17.9995 C26.866,24.2275 21.498,28.9995 15,28.9995 L15,28.9995 Z" id="Fill-1"></path>
                        </g>
                    </g>
                    <g id="Group-12-Copy" transform="translate(148.000000, 106.000000)">
                        <g id="Rectangle-5-Copy-28">
                            <use fill="black" fill-opacity="1" filter="url(#filter-30)" xlink:href="#path-29"></use>
                            <use fill="#FFFFFF" fill-rule="evenodd" xlink:href="#path-29"></use>
                        </g>
                        <text id="云服务器-copy-3" font-family="PingFangSC-Medium, PingFang SC" font-size="14" font-weight="400" fill="#444444">
                            <tspan x="50" y="27">云服务器</tspan>
                        </text>
                        <g id="Page-1-Copy-15" transform="translate(10.000000, 6.000000)" fill="#00A4FF">
                            <path d="M15,15.6965 L10.281,12.9995 L15,10.3035 L19.719,12.9995 L15,15.6965 Z M22,11.9995 L15,7.9995 L8,11.9995 L8,19.9995 L11.195,21.8255 C11.398,21.1685 11.753,20.5815 12.237,20.1175 L10,18.8395 L10,15.1425 L15,17.9995 L20,15.1425 L20,18.8395 L15.863,21.2035 C15.601,21.0765 15.311,20.9995 15,20.9995 C13.896,20.9995 13,21.8955 13,22.9995 C13,24.1045 13.896,24.9995 15,24.9995 C16.104,24.9995 17,24.1045 17,22.9995 C17,22.9535 16.99,22.9105 16.986,22.8645 L22,19.9995 L22,11.9995 Z M15,28.9995 C7.82,28.9995 2,23.1795 2,15.9995 C2,8.8205 7.82,2.9995 15,2.9995 C21.498,2.9995 26.866,7.7725 27.831,13.9995 L29.851,13.9995 C28.871,6.6635 22.604,0.9995 15,0.9995 C6.716,0.9995 0,7.7155 0,15.9995 C0,24.2845 6.716,30.9995 15,30.9995 C22.604,30.9995 28.871,25.3365 29.851,17.9995 L27.831,17.9995 C26.866,24.2275 21.498,28.9995 15,28.9995 L15,28.9995 Z" id="Fill-1"></path>
                        </g>
                    </g>
                    <g id="Group-Copy" transform="translate(57.000000, 44.000000)" fill="#878787">
                        <polygon id="Fill-3" transform="translate(79.500000, 10.500500) rotate(90.000000) translate(-79.500000, -10.500500) " points="69 11.001 90 11.001 90 10 69 10"></polygon>
                        <polygon id="Fill-3-Copy" transform="translate(79.500000, 21.000250) rotate(90.000000) translate(-79.500000, -21.000250) " points="79 96.0005 80 96.0005 80 -54 79 -54"></polygon>
                        <g id="Page-1-Copy-18" transform="translate(4.500000, 38.500000) rotate(90.000000) translate(-4.500000, -38.500000) translate(-13.000000, 34.000000)">
                            <polygon id="Fill-1" points="30.0004 0 30.0004 9 35.0004 4.5"></polygon>
                            <polygon id="Fill-3" points="0 5 31 5 31 3.999 0 3.999"></polygon>
                        </g>
                        <g id="Page-1-Copy-19" transform="translate(153.500000, 38.500000) rotate(90.000000) translate(-153.500000, -38.500000) translate(136.000000, 34.000000)">
                            <polygon id="Fill-1" points="30 0 30 9 35 4.5"></polygon>
                            <polygon id="Fill-3" points="0 5 31 5 31 4 0 4"></polygon>
                        </g>
                    </g>
                    <g id="Group-11" transform="translate(73.000000, 0.000000)">
                        <g id="Rectangle-5-Copy-26">
                            <use fill="black" fill-opacity="1" filter="url(#filter-32)" xlink:href="#path-31"></use>
                            <use fill="#FFFFFF" fill-rule="evenodd" xlink:href="#path-31"></use>
                        </g>
                        <text id="负载均衡" font-family="PingFangSC-Medium, PingFang SC" font-size="14" font-weight="400" fill="#444444">
                            <tspan x="56" y="27">负载均衡</tspan>
                        </text>
                        <g id="负载均衡CLB" transform="translate(15.000000, 7.000000)" fill="#00A4FF">
                            <path d="M20,13 C18.8954305,13 18,13.8954305 18,15 C18,16.1045695 18.8954305,17 20,17 C21.1045695,17 22,16.1045695 22,15 C22,13.8954305 21.1045695,13 20,13 Z M16,28 C9.07835773,28.0081096 3.36413722,22.5913761 3.0025223,15.6791816 C2.64090739,8.76698719 7.75872332,2.78357028 14.6434274,2.06939397 C21.5281314,1.35521766 27.7651265,6.16075721 28.83,13 L30.83,13 C29.7773016,5.17525662 22.8392862,-0.494007791 14.9616916,0.0335202668 C7.08409694,0.561048325 0.963931253,7.10476201 0.963931253,15 C0.963931253,22.895238 7.08409694,29.4389517 14.9616916,29.9664797 C22.8392862,30.4940078 29.7773016,24.8247434 30.83,17 L28.83,17 C27.8451216,23.325525 22.4017338,27.9924982 16,28 Z M16,11 L16,9 L10,9 L10,21 L16,21 L16,19 L12,19 L12,16 L16,16 L16,14 L12,14 L12,11 L16,11 Z M20,8 C18.8954305,8 18,8.8954305 18,10 C18,11.1045695 18.8954305,12 20,12 C21.1045695,12 22,11.1045695 22,10 C22,8.8954305 21.1045695,8 20,8 Z M20,18 C18.8954305,18 18,18.8954305 18,20 C18,21.1045695 18.8954305,22 20,22 C21.1045695,22 22,21.1045695 22,20 C22,18.8954305 21.1045695,18 20,18 Z" id="_复合路径_"></path>
                        </g>
                    </g>
                    <rect id="Rectangle-14" fill="#CEE3FF" x="0" y="190" width="272" height="84"></rect>
                    <g id="Group-8-Copy-2" transform="translate(10.000000, 210.000000)">
                        <g id="Rectangle-5-Copy-30">
                            <use fill="black" fill-opacity="1" filter="url(#filter-34)" xlink:href="#path-33"></use>
                            <use fill="#FFFFFF" fill-rule="evenodd" xlink:href="#path-33"></use>
                        </g>
                        <g id="Page-1" transform="translate(21.000000, 9.000000)">
                            <g id="Group-3">
                                <mask id="mask-36" fill="white">
                                    <use xlink:href="#path-35"></use>
                                </mask>
                                <g id="Clip-2"></g>
                                <path d="M2,7.7614 C4.149,9.1104 7.824,9.9994 12,9.9994 C16.176,9.9994 19.851,9.1104 22,7.7614 L22,14.0014 C21.998,15.6574 17.521,16.9994 12,16.9994 C6.478,16.9994 2,15.6574 2,13.9994 L2,7.7614 Z M12,1.9994 C17.522,1.9994 22,3.3434 22,4.9994 C22,6.6574 17.522,7.9994 12,7.9994 C6.478,7.9994 2,6.6574 2,4.9994 C2,3.3434 6.478,1.9994 12,1.9994 L12,1.9994 Z M2,16.7614 C4.149,18.1104 7.824,18.9994 12,18.9994 C16.176,18.9994 19.851,18.1104 22,16.7614 L22,22.9994 L24,22.9994 L24,14.0004 L24,13.9994 L24,4.9994 C24,2.2394 18.627,-0.0006 12,-0.0006 C5.373,-0.0006 0,2.2394 0,4.9994 L0,22.9994 L2,22.9994 L2,16.7614 Z" id="Fill-1" fill="#00A4FF" mask="url(#mask-36)"></path>
                            </g>
                            <path d="M12,25.9996 C6.478,25.9996 2,24.6566 2,22.9996 L0,22.9996 C0,25.7616 5.373,27.9996 12,27.9996 C18.628,27.9996 24,25.7616 24,22.9996 L22,22.9996 C22,24.6566 17.523,25.9996 12,25.9996" id="Fill-4" fill="#00A4FF"></path>
                        </g>
                        <text id="主库" font-family="PingFangSC-Medium, PingFang SC" font-size="14" font-weight="400" fill="#444444">
                            <tspan x="55" y="27">主库</tspan>
                        </text>
                    </g>
                    <g id="Group-8-Copy-3" transform="translate(158.000000, 210.000000)">
                        <g id="Rectangle-5-Copy-30">
                            <use fill="black" fill-opacity="1" filter="url(#filter-38)" xlink:href="#path-37"></use>
                            <use fill="#FFFFFF" fill-rule="evenodd" xlink:href="#path-37"></use>
                        </g>
                        <g id="Page-1" transform="translate(21.000000, 9.000000)">
                            <g id="Group-3">
                                <mask id="mask-40" fill="white">
                                    <use xlink:href="#path-39"></use>
                                </mask>
                                <g id="Clip-2"></g>
                                <path d="M2,7.7614 C4.149,9.1104 7.824,9.9994 12,9.9994 C16.176,9.9994 19.851,9.1104 22,7.7614 L22,14.0014 C21.998,15.6574 17.521,16.9994 12,16.9994 C6.478,16.9994 2,15.6574 2,13.9994 L2,7.7614 Z M12,1.9994 C17.522,1.9994 22,3.3434 22,4.9994 C22,6.6574 17.522,7.9994 12,7.9994 C6.478,7.9994 2,6.6574 2,4.9994 C2,3.3434 6.478,1.9994 12,1.9994 L12,1.9994 Z M2,16.7614 C4.149,18.1104 7.824,18.9994 12,18.9994 C16.176,18.9994 19.851,18.1104 22,16.7614 L22,22.9994 L24,22.9994 L24,14.0004 L24,13.9994 L24,4.9994 C24,2.2394 18.627,-0.0006 12,-0.0006 C5.373,-0.0006 0,2.2394 0,4.9994 L0,22.9994 L2,22.9994 L2,16.7614 Z" id="Fill-1" fill="#00A4FF" mask="url(#mask-40)"></path>
                            </g>
                            <path d="M12,25.9996 C6.478,25.9996 2,24.6566 2,22.9996 L0,22.9996 C0,25.7616 5.373,27.9996 12,27.9996 C18.628,27.9996 24,25.7616 24,22.9996 L22,22.9996 C22,24.6566 17.523,25.9996 12,25.9996" id="Fill-4" fill="#00A4FF"></path>
                        </g>
                        <text id="备库" font-family="PingFangSC-Medium, PingFang SC" font-size="14" font-weight="400" fill="#444444">
                            <tspan x="55" y="27">备库</tspan>
                        </text>
                    </g>
                    <g id="Page-1-Copy-26" transform="translate(114.000000, 228.000000)" fill="#878787">
                        <polygon id="Fill-1" points="34.0004 0 34.0004 9 39.0004 4.5"></polygon>
                        <polygon id="Fill-3" points="0 5 35 5 35 3.999 0 3.999"></polygon>
                    </g>
                    <polyline id="Path-6" stroke="#979797" points="212 150 212 170.290258 85 170.290258 85 190"></polyline>
                    <polygon id="Fill-1" fill="#878787" opacity="0.899999976" transform="translate(85.000000, 192.500000) rotate(90.000000) translate(-85.000000, -192.500000) " points="82.5 187.5 82.5 197.5 87.5 192.5"></polygon>
                    <polygon id="Fill-1-Copy" fill="#878787" opacity="0.899999976" transform="translate(61.500000, 192.500000) rotate(90.000000) translate(-61.500000, -192.500000) " points="59 188 59 197 64 192.5"></polygon>
                    <rect id="Rectangle-15" fill="#8D8F92" x="61" y="150" width="1" height="40"></rect>
                </g>
                <text id="业务地域A" font-family="PingFangSC-Medium, PingFang SC" font-size="14" font-weight="400" line-spacing="14" fill="#444444">
                    <tspan x="10" y="113">业务地域A</tspan>
                </text>
                <text id="灾备环境B" font-family="PingFangSC-Medium, PingFang SC" font-size="14" font-weight="400" line-spacing="14" fill="#444444">
                    <tspan x="536" y="113">灾备环境B</tspan>
                </text>
                <g id="Page-1-Copy-16" transform="translate(292.000000, 336.000000)" fill="#878787">
                    <polygon id="Fill-1" points="41 0 41 9 46 4.5"></polygon>
                    <polygon id="Fill-3" points="0 5 43 5 43 4 0 4"></polygon>
                </g>
                <g id="Page-1-Copy-23" transform="translate(495.000000, 336.000000)" fill="#878787">
                    <polygon id="Fill-1" points="41 0 41 9 46 4.5"></polygon>
                    <polygon id="Fill-3" points="0 5 43 5 43 4 0 4"></polygon>
                </g>
            </g>
        </g>
    </g>
</svg>