<?xml version="1.0" encoding="UTF-8"?>
<svg width="844px" height="378px" viewBox="0 0 844 378" version="1.1" xmlns="http://www.w3.org/2000/svg" xmlns:xlink="http://www.w3.org/1999/xlink">
    <!-- Generator: Sketch 47.1 (45422) - http://www.bohemiancoding.com/sketch -->
    <title>Group 18@1x</title>
    <desc>Created with Sketch.</desc>
    <defs>
        <rect id="path-1" x="0" y="0" width="127" height="44"></rect>
        <filter x="-2.8%" y="-5.7%" width="105.5%" height="115.9%" filterUnits="objectBoundingBox" id="filter-2">
            <feOffset dx="0" dy="1" in="SourceAlpha" result="shadowOffsetOuter1"></feOffset>
            <feGaussianBlur stdDeviation="1" in="shadowOffsetOuter1" result="shadowBlurOuter1"></feGaussianBlur>
            <feColorMatrix values="0 0 0 0 0   0 0 0 0 0   0 0 0 0 0  0 0 0 0.35 0" type="matrix" in="shadowBlurOuter1"></feColorMatrix>
        </filter>
        <rect id="path-3" x="0" y="0" width="152" height="84"></rect>
        <filter x="-2.3%" y="-3.0%" width="104.6%" height="108.3%" filterUnits="objectBoundingBox" id="filter-4">
            <feOffset dx="0" dy="1" in="SourceAlpha" result="shadowOffsetOuter1"></feOffset>
            <feGaussianBlur stdDeviation="1" in="shadowOffsetOuter1" result="shadowBlurOuter1"></feGaussianBlur>
            <feColorMatrix values="0 0 0 0 0   0 0 0 0 0   0 0 0 0 0  0 0 0 0.35 0" type="matrix" in="shadowBlurOuter1"></feColorMatrix>
        </filter>
        <polygon id="path-5" points="0 32 32 32 32 0 0 0"></polygon>
        <rect id="path-7" x="0" y="0" width="124" height="44"></rect>
        <filter x="-2.8%" y="-5.7%" width="105.6%" height="115.9%" filterUnits="objectBoundingBox" id="filter-8">
            <feOffset dx="0" dy="1" in="SourceAlpha" result="shadowOffsetOuter1"></feOffset>
            <feGaussianBlur stdDeviation="1" in="shadowOffsetOuter1" result="shadowBlurOuter1"></feGaussianBlur>
            <feColorMatrix values="0 0 0 0 0   0 0 0 0 0   0 0 0 0 0  0 0 0 0.35 0" type="matrix" in="shadowBlurOuter1"></feColorMatrix>
        </filter>
        <rect id="path-9" x="0" y="0" width="124" height="44"></rect>
        <filter x="-2.8%" y="-5.7%" width="105.6%" height="115.9%" filterUnits="objectBoundingBox" id="filter-10">
            <feOffset dx="0" dy="1" in="SourceAlpha" result="shadowOffsetOuter1"></feOffset>
            <feGaussianBlur stdDeviation="1" in="shadowOffsetOuter1" result="shadowBlurOuter1"></feGaussianBlur>
            <feColorMatrix values="0 0 0 0 0   0 0 0 0 0   0 0 0 0 0  0 0 0 0.35 0" type="matrix" in="shadowBlurOuter1"></feColorMatrix>
        </filter>
        <rect id="path-11" x="0" y="0" width="127" height="44"></rect>
        <filter x="-2.8%" y="-5.7%" width="105.5%" height="115.9%" filterUnits="objectBoundingBox" id="filter-12">
            <feOffset dx="0" dy="1" in="SourceAlpha" result="shadowOffsetOuter1"></feOffset>
            <feGaussianBlur stdDeviation="1" in="shadowOffsetOuter1" result="shadowBlurOuter1"></feGaussianBlur>
            <feColorMatrix values="0 0 0 0 0   0 0 0 0 0   0 0 0 0 0  0 0 0 0.35 0" type="matrix" in="shadowBlurOuter1"></feColorMatrix>
        </filter>
        <rect id="path-13" x="0" y="0" width="124" height="44"></rect>
        <filter x="-2.8%" y="-5.7%" width="105.6%" height="115.9%" filterUnits="objectBoundingBox" id="filter-14">
            <feOffset dx="0" dy="1" in="SourceAlpha" result="shadowOffsetOuter1"></feOffset>
            <feGaussianBlur stdDeviation="1" in="shadowOffsetOuter1" result="shadowBlurOuter1"></feGaussianBlur>
            <feColorMatrix values="0 0 0 0 0   0 0 0 0 0   0 0 0 0 0  0 0 0 0.35 0" type="matrix" in="shadowBlurOuter1"></feColorMatrix>
        </filter>
        <polygon id="path-15" points="24 11.4997 24 0 0 0 0 11.4997 0 22.9994 24 22.9994"></polygon>
        <rect id="path-17" x="0" y="0" width="124" height="44"></rect>
        <filter x="-2.8%" y="-5.7%" width="105.6%" height="115.9%" filterUnits="objectBoundingBox" id="filter-18">
            <feOffset dx="0" dy="1" in="SourceAlpha" result="shadowOffsetOuter1"></feOffset>
            <feGaussianBlur stdDeviation="1" in="shadowOffsetOuter1" result="shadowBlurOuter1"></feGaussianBlur>
            <feColorMatrix values="0 0 0 0 0   0 0 0 0 0   0 0 0 0 0  0 0 0 0.35 0" type="matrix" in="shadowBlurOuter1"></feColorMatrix>
        </filter>
        <polygon id="path-19" points="24 11.4997 24 0 0 0 0 11.4997 0 22.9994 24 22.9994"></polygon>
        <rect id="path-21" x="0" y="0" width="124" height="44"></rect>
        <filter x="-2.8%" y="-5.7%" width="105.6%" height="115.9%" filterUnits="objectBoundingBox" id="filter-22">
            <feOffset dx="0" dy="1" in="SourceAlpha" result="shadowOffsetOuter1"></feOffset>
            <feGaussianBlur stdDeviation="1" in="shadowOffsetOuter1" result="shadowBlurOuter1"></feGaussianBlur>
            <feColorMatrix values="0 0 0 0 0   0 0 0 0 0   0 0 0 0 0  0 0 0 0.35 0" type="matrix" in="shadowBlurOuter1"></feColorMatrix>
        </filter>
        <polygon id="path-23" points="24 11.4997 24 0 0 0 0 11.4997 0 22.9994 24 22.9994"></polygon>
        <rect id="path-25" x="0" y="0" width="124" height="44"></rect>
        <filter x="-2.8%" y="-5.7%" width="105.6%" height="115.9%" filterUnits="objectBoundingBox" id="filter-26">
            <feOffset dx="0" dy="1" in="SourceAlpha" result="shadowOffsetOuter1"></feOffset>
            <feGaussianBlur stdDeviation="1" in="shadowOffsetOuter1" result="shadowBlurOuter1"></feGaussianBlur>
            <feColorMatrix values="0 0 0 0 0   0 0 0 0 0   0 0 0 0 0  0 0 0 0.35 0" type="matrix" in="shadowBlurOuter1"></feColorMatrix>
        </filter>
    </defs>
    <g id="Page-1" stroke="none" stroke-width="1" fill="none" fill-rule="evenodd">
        <g id="Artboard-Copy-3" transform="translate(-538.000000, -3598.000000)">
            <g id="Group-18" transform="translate(540.000000, 3599.000000)">
                <g id="Group-14" transform="translate(118.000000, 0.000000)">
                    <g id="Rectangle-5-Copy-25">
                        <use fill="black" fill-opacity="1" filter="url(#filter-2)" xlink:href="#path-1"></use>
                        <use fill="#FFFFFF" fill-rule="evenodd" xlink:href="#path-1"></use>
                    </g>
                    <g id="Page-1" transform="translate(29.000000, 10.000000)" fill="#878787">
                        <path d="M12,0 C8.687,0 6,2.687 6,6 C6,9.313 8.687,12 12,12 C15.313,12 18,9.313 18,6 C18,2.687 15.313,0 12,0 M12,2 C14.205,2 16,3.795 16,6 C16,8.205 14.205,10 12,10 C9.795,10 8,8.205 8,6 C8,3.795 9.795,2 12,2 Z M16.0039,14 C20.4199,14 23.9999,17.58 23.9999,21.996 L23.9999,25 L-9.99999993e-05,25 L-9.99999993e-05,21.996 C-9.99999993e-05,17.58 3.5799,14 7.9959,14 L16.0039,14 Z M16.0039,16 L7.9959,16 C4.6899,16 1.9999,18.689 1.9999,21.996 L1.9999,23 L21.9999,23 L21.9999,21.996 C21.9999,18.689 19.3109,16 16.0039,16 Z M24.998,14 C28.312,14 31,16.688 31,20.002 L31,23 L26,23 L26,21.996 C26,21.66 25.982,21.328 25.949,21 L29,21 L29,20.002 C29,17.795 27.205,16 24.998,16 L23.982,16 C23.412,15.242 22.737,14.569 21.977,14 L24.998,14 Z M21,1 C23.762,1 26,3.238 26,6 C26,8.762 23.762,11 21,11 C20.155,11 19.371,10.771 18.674,10.4 C19.039,9.849 19.333,9.247 19.554,8.611 C19.984,8.852 20.473,9 21,9 C22.654,9 24,7.654 24,6 C24,4.346 22.654,3 21,3 C20.473,3 19.984,3.148 19.554,3.389 C19.333,2.753 19.039,2.151 18.674,1.6 C19.371,1.229 20.155,1 21,1 Z" id="Combined-Shape"></path>
                    </g>
                    <text id="用户" font-family="PingFangSC-Medium, PingFang SC" font-size="14" font-weight="400" fill="#444444">
                        <tspan x="70" y="27">用户</tspan>
                    </text>
                </g>
                <g id="Page-1-Copy-19" transform="translate(181.500000, 64.500000) rotate(90.000000) translate(-181.500000, -64.500000) translate(164.000000, 60.000000)" fill="#878787">
                    <polygon id="Fill-1" points="30 0 30 9 35 4.5"></polygon>
                    <polygon id="Fill-3" points="0 5 31 5 31 4 0 4"></polygon>
                </g>
                <g id="Group-2" transform="translate(420.000000, 290.000000)">
                    <g id="Rectangle-5-Copy-29">
                        <use fill="black" fill-opacity="1" filter="url(#filter-4)" xlink:href="#path-3"></use>
                        <use fill="#FFFFFF" fill-rule="evenodd" xlink:href="#path-3"></use>
                    </g>
                    <rect id="Rectangle-2" fill="#BABABA" x="15" y="47" width="122" height="1"></rect>
                    <text id="数据传输服务" font-family="PingFangSC-Medium, PingFang SC" font-size="14" font-weight="400" fill="#444444">
                        <tspan x="55" y="29">数据传输服务</tspan>
                    </text>
                    <text id="数据迁移" font-family="PingFangSC-Medium, PingFang SC" font-size="14" font-weight="400" fill="#999999">
                        <tspan x="15" y="71">数据迁移</tspan>
                    </text>
                    <g id="Page-1" transform="translate(15.000000, 10.000000)">
                        <path d="M2,23 L0,23 C0,25.762 5.373,28 12,28 C12.171,28 12.337,27.992 12.506,27.989 C12.001,27.376 11.569,26.702 11.205,25.988 C6.055,25.866 2,24.576 2,23 Z M12,2 C6.478,2 2,3.343 2,5 C2,6.657 6.478,8 12,8 C17.522,8 22,6.657 22,5 C22,3.343 17.522,2 12,2 Z M2,16.762 L2,23 L0,23 L0,5 C0,2.238 5.373,0 12,0 C18.627,0 24,2.238 24,5 L24,10.425 C23.354,10.242 22.687,10.112 22,10.051 L22,7.762 C19.851,9.11 16.176,10 12,10 C7.824,10 4.149,9.11 2,7.762 L2,14 C2,15.531 5.829,16.793 10.771,16.975 C10.522,17.604 10.329,18.259 10.2,18.938 C6.781,18.723 3.834,17.912 2,16.762 Z M21,27 C24.313,27 27,24.313 27,21 C27,17.687 24.313,15 21,15 C17.687,15 15,17.687 15,21 C15,24.313 17.687,27 21,27 Z M21,13 C25.418,13 29,16.582 29,21 C29,25.418 25.418,29 21,29 C16.582,29 13,25.418 13,21 C13,16.582 16.582,13 21,13 Z" id="Fill-1" fill="#00A4FF"></path>
                        <mask id="mask-6" fill="white">
                            <use xlink:href="#path-5"></use>
                        </mask>
                        <g id="Clip-4"></g>
                        <polygon id="Fill-3" fill="#00A4FF" mask="url(#mask-6)" points="18 20 21 20 21 18 18 18"></polygon>
                        <polygon id="Fill-5" fill="#00A4FF" mask="url(#mask-6)" points="25 20 21 20 21 16"></polygon>
                        <polygon id="Fill-6" fill="#00A4FF" mask="url(#mask-6)" points="21 24 24 24 24 22 21 22"></polygon>
                        <polygon id="Fill-7" fill="#00A4FF" mask="url(#mask-6)" points="17 22 21 22 21 26"></polygon>
                    </g>
                </g>
                <g id="Group-12" transform="translate(0.000000, 216.000000)">
                    <g id="Rectangle-5-Copy-28">
                        <use fill="black" fill-opacity="1" filter="url(#filter-8)" xlink:href="#path-7"></use>
                        <use fill="#FFFFFF" fill-rule="evenodd" xlink:href="#path-7"></use>
                    </g>
                    <text id="云服务器-copy-3" font-family="PingFangSC-Medium, PingFang SC" font-size="14" font-weight="400" fill="#444444">
                        <tspan x="50" y="27">云服务器</tspan>
                    </text>
                    <g id="Page-1-Copy-15" transform="translate(10.000000, 6.000000)" fill="#00A4FF">
                        <path d="M15,15.6965 L10.281,12.9995 L15,10.3035 L19.719,12.9995 L15,15.6965 Z M22,11.9995 L15,7.9995 L8,11.9995 L8,19.9995 L11.195,21.8255 C11.398,21.1685 11.753,20.5815 12.237,20.1175 L10,18.8395 L10,15.1425 L15,17.9995 L20,15.1425 L20,18.8395 L15.863,21.2035 C15.601,21.0765 15.311,20.9995 15,20.9995 C13.896,20.9995 13,21.8955 13,22.9995 C13,24.1045 13.896,24.9995 15,24.9995 C16.104,24.9995 17,24.1045 17,22.9995 C17,22.9535 16.99,22.9105 16.986,22.8645 L22,19.9995 L22,11.9995 Z M15,28.9995 C7.82,28.9995 2,23.1795 2,15.9995 C2,8.8205 7.82,2.9995 15,2.9995 C21.498,2.9995 26.866,7.7725 27.831,13.9995 L29.851,13.9995 C28.871,6.6635 22.604,0.9995 15,0.9995 C6.716,0.9995 0,7.7155 0,15.9995 C0,24.2845 6.716,30.9995 15,30.9995 C22.604,30.9995 28.871,25.3365 29.851,17.9995 L27.831,17.9995 C26.866,24.2275 21.498,28.9995 15,28.9995 L15,28.9995 Z" id="Fill-1"></path>
                    </g>
                </g>
                <g id="Group-12-Copy" transform="translate(225.000000, 216.000000)">
                    <g id="Rectangle-5-Copy-28">
                        <use fill="black" fill-opacity="1" filter="url(#filter-10)" xlink:href="#path-9"></use>
                        <use fill="#FFFFFF" fill-rule="evenodd" xlink:href="#path-9"></use>
                    </g>
                    <text id="云服务器-copy-3" font-family="PingFangSC-Medium, PingFang SC" font-size="14" font-weight="400" fill="#444444">
                        <tspan x="50" y="27">云服务器</tspan>
                    </text>
                    <g id="Page-1-Copy-15" transform="translate(10.000000, 7.000000)" fill="#00A4FF">
                        <path d="M15.0748719,14.697 L10.3323172,12 L15.0748719,9.304 L19.8174266,12 L15.0748719,14.697 Z M22.1098121,11 L15.0748719,7 L8.03993166,11 L8.03993166,19 L11.2508794,20.826 C11.4548926,20.169 11.8116646,19.582 12.2980805,19.118 L10.0499146,17.84 L10.0499146,14.143 L15.0748719,17 L20.0998292,14.143 L20.0998292,17.84 L15.9421795,20.204 C15.6788717,20.077 15.3874242,20 15.0748719,20 C13.9653613,20 13.0648889,20.896 13.0648889,22 C13.0648889,23.105 13.9653613,24 15.0748719,24 C16.1843824,24 17.0848548,23.105 17.0848548,22 C17.0848548,21.954 17.0748049,21.911 17.0707849,21.865 L22.1098121,19 L22.1098121,11 Z M15.0748719,28 C7.8590332,28 2.00998292,22.18 2.00998292,15 C2.00998292,7.821 7.8590332,2 15.0748719,2 C21.6053064,2 27.0001005,6.773 27.9699173,13 L30,13 C29.0151084,5.664 22.7168269,0 15.0748719,0 C6.74952263,0 0,6.716 0,15 C0,23.285 6.74952263,30 15.0748719,30 C22.7168269,30 29.0151084,24.337 30,17 L27.9699173,17 C27.0001005,23.228 21.6053064,28 15.0748719,28 L15.0748719,28 Z" id="Fill-1"></path>
                    </g>
                </g>
                <g id="Group-Copy" transform="translate(72.000000, 144.000000)" fill="#878787">
                    <polygon id="Fill-3" transform="translate(109.500000, 15.500500) rotate(90.000000) translate(-109.500000, -15.500500) " points="94 16.001 125 16.001 125 15 94 15"></polygon>
                    <polygon id="Fill-3-Copy" transform="translate(109.500000, 31.500250) rotate(90.000000) translate(-109.500000, -31.500250) " points="109 137.0005 110 137.0005 110 -74 109 -74"></polygon>
                    <g id="Page-1-Copy-18" transform="translate(4.500000, 48.500000) rotate(90.000000) translate(-4.500000, -48.500000) translate(-13.000000, 44.000000)">
                        <polygon id="Fill-1" points="30.0004 0 30.0004 9 35.0004 4.5"></polygon>
                        <polygon id="Fill-3" points="0 5 31 5 31 3.999 0 3.999"></polygon>
                    </g>
                    <g id="Page-1-Copy-19" transform="translate(214.500000, 49.500000) rotate(90.000000) translate(-214.500000, -49.500000) translate(197.000000, 45.000000)">
                        <polygon id="Fill-1" points="30 0 30 9 35 4.5"></polygon>
                        <polygon id="Fill-3" points="0 5 31 5 31 4 0 4"></polygon>
                    </g>
                </g>
                <g id="Group-11" transform="translate(118.000000, 100.000000)">
                    <g id="Rectangle-5-Copy-26">
                        <use fill="black" fill-opacity="1" filter="url(#filter-12)" xlink:href="#path-11"></use>
                        <use fill="#FFFFFF" fill-rule="evenodd" xlink:href="#path-11"></use>
                    </g>
                    <text id="负载均衡" font-family="PingFangSC-Medium, PingFang SC" font-size="14" font-weight="400" fill="#444444">
                        <tspan x="56" y="27">负载均衡</tspan>
                    </text>
                    <g id="负载均衡CLB" transform="translate(15.000000, 7.000000)" fill="#00A4FF">
                        <path d="M20,13 C18.8954305,13 18,13.8954305 18,15 C18,16.1045695 18.8954305,17 20,17 C21.1045695,17 22,16.1045695 22,15 C22,13.8954305 21.1045695,13 20,13 Z M16,28 C9.07835773,28.0081096 3.36413722,22.5913761 3.0025223,15.6791816 C2.64090739,8.76698719 7.75872332,2.78357028 14.6434274,2.06939397 C21.5281314,1.35521766 27.7651265,6.16075721 28.83,13 L30.83,13 C29.7773016,5.17525662 22.8392862,-0.494007791 14.9616916,0.0335202668 C7.08409694,0.561048325 0.963931253,7.10476201 0.963931253,15 C0.963931253,22.895238 7.08409694,29.4389517 14.9616916,29.9664797 C22.8392862,30.4940078 29.7773016,24.8247434 30.83,17 L28.83,17 C27.8451216,23.325525 22.4017338,27.9924982 16,28 Z M16,11 L16,9 L10,9 L10,21 L16,21 L16,19 L12,19 L12,16 L16,16 L16,14 L12,14 L12,11 L16,11 Z M20,8 C18.8954305,8 18,8.8954305 18,10 C18,11.1045695 18.8954305,12 20,12 C21.1045695,12 22,11.1045695 22,10 C22,8.8954305 21.1045695,8 20,8 Z M20,18 C18.8954305,18 18,18.8954305 18,20 C18,21.1045695 18.8954305,22 20,22 C21.1045695,22 22,21.1045695 22,20 C22,18.8954305 21.1045695,18 20,18 Z" id="_复合路径_"></path>
                    </g>
                </g>
                <g id="Group-8-Copy-2" transform="translate(716.000000, 216.000000)">
                    <g id="Rectangle-5-Copy-30">
                        <use fill="black" fill-opacity="1" filter="url(#filter-14)" xlink:href="#path-13"></use>
                        <use fill="#FFFFFF" fill-rule="evenodd" xlink:href="#path-13"></use>
                    </g>
                    <g id="Page-1" transform="translate(10.000000, 9.000000)">
                        <g id="Group-3">
                            <mask id="mask-16" fill="white">
                                <use xlink:href="#path-15"></use>
                            </mask>
                            <g id="Clip-2"></g>
                            <path d="M2,7.7614 C4.149,9.1104 7.824,9.9994 12,9.9994 C16.176,9.9994 19.851,9.1104 22,7.7614 L22,14.0014 C21.998,15.6574 17.521,16.9994 12,16.9994 C6.478,16.9994 2,15.6574 2,13.9994 L2,7.7614 Z M12,1.9994 C17.522,1.9994 22,3.3434 22,4.9994 C22,6.6574 17.522,7.9994 12,7.9994 C6.478,7.9994 2,6.6574 2,4.9994 C2,3.3434 6.478,1.9994 12,1.9994 L12,1.9994 Z M2,16.7614 C4.149,18.1104 7.824,18.9994 12,18.9994 C16.176,18.9994 19.851,18.1104 22,16.7614 L22,22.9994 L24,22.9994 L24,14.0004 L24,13.9994 L24,4.9994 C24,2.2394 18.627,-0.0006 12,-0.0006 C5.373,-0.0006 0,2.2394 0,4.9994 L0,22.9994 L2,22.9994 L2,16.7614 Z" id="Fill-1" fill="#00A4FF" mask="url(#mask-16)"></path>
                        </g>
                        <path d="M12,25.9996 C6.478,25.9996 2,24.6566 2,22.9996 L0,22.9996 C0,25.7616 5.373,27.9996 12,27.9996 C18.628,27.9996 24,25.7616 24,22.9996 L22,22.9996 C22,24.6566 17.523,25.9996 12,25.9996" id="Fill-4" fill="#00A4FF"></path>
                    </g>
                    <text id="归档数据库" font-family="PingFangSC-Medium, PingFang SC" font-size="14" font-weight="400" fill="#444444">
                        <tspan x="44" y="27">归档数据库</tspan>
                    </text>
                </g>
                <g id="Group-8-Copy-4" transform="translate(716.000000, 100.000000)">
                    <g id="Rectangle-5-Copy-30">
                        <use fill="black" fill-opacity="1" filter="url(#filter-18)" xlink:href="#path-17"></use>
                        <use fill="#FFFFFF" fill-rule="evenodd" xlink:href="#path-17"></use>
                    </g>
                    <g id="Page-1" transform="translate(10.000000, 9.000000)">
                        <g id="Group-3">
                            <mask id="mask-20" fill="white">
                                <use xlink:href="#path-19"></use>
                            </mask>
                            <g id="Clip-2"></g>
                            <path d="M2,7.7614 C4.149,9.1104 7.824,9.9994 12,9.9994 C16.176,9.9994 19.851,9.1104 22,7.7614 L22,14.0014 C21.998,15.6574 17.521,16.9994 12,16.9994 C6.478,16.9994 2,15.6574 2,13.9994 L2,7.7614 Z M12,1.9994 C17.522,1.9994 22,3.3434 22,4.9994 C22,6.6574 17.522,7.9994 12,7.9994 C6.478,7.9994 2,6.6574 2,4.9994 C2,3.3434 6.478,1.9994 12,1.9994 L12,1.9994 Z M2,16.7614 C4.149,18.1104 7.824,18.9994 12,18.9994 C16.176,18.9994 19.851,18.1104 22,16.7614 L22,22.9994 L24,22.9994 L24,14.0004 L24,13.9994 L24,4.9994 C24,2.2394 18.627,-0.0006 12,-0.0006 C5.373,-0.0006 0,2.2394 0,4.9994 L0,22.9994 L2,22.9994 L2,16.7614 Z" id="Fill-1" fill="#00A4FF" mask="url(#mask-20)"></path>
                        </g>
                        <path d="M12,25.9996 C6.478,25.9996 2,24.6566 2,22.9996 L0,22.9996 C0,25.7616 5.373,27.9996 12,27.9996 C18.628,27.9996 24,25.7616 24,22.9996 L22,22.9996 C22,24.6566 17.523,25.9996 12,25.9996" id="Fill-4" fill="#00A4FF"></path>
                    </g>
                    <text id="归档数据库" font-family="PingFangSC-Medium, PingFang SC" font-size="14" font-weight="400" fill="#444444">
                        <tspan x="44" y="27">归档数据库</tspan>
                    </text>
                </g>
                <g id="Group-8-Copy-3" transform="translate(716.000000, 324.000000)">
                    <g id="Rectangle-5-Copy-30">
                        <use fill="black" fill-opacity="1" filter="url(#filter-22)" xlink:href="#path-21"></use>
                        <use fill="#FFFFFF" fill-rule="evenodd" xlink:href="#path-21"></use>
                    </g>
                    <g id="Page-1" transform="translate(10.000000, 9.000000)">
                        <g id="Group-3">
                            <mask id="mask-24" fill="white">
                                <use xlink:href="#path-23"></use>
                            </mask>
                            <g id="Clip-2"></g>
                            <path d="M2,7.7614 C4.149,9.1104 7.824,9.9994 12,9.9994 C16.176,9.9994 19.851,9.1104 22,7.7614 L22,14.0014 C21.998,15.6574 17.521,16.9994 12,16.9994 C6.478,16.9994 2,15.6574 2,13.9994 L2,7.7614 Z M12,1.9994 C17.522,1.9994 22,3.3434 22,4.9994 C22,6.6574 17.522,7.9994 12,7.9994 C6.478,7.9994 2,6.6574 2,4.9994 C2,3.3434 6.478,1.9994 12,1.9994 L12,1.9994 Z M2,16.7614 C4.149,18.1104 7.824,18.9994 12,18.9994 C16.176,18.9994 19.851,18.1104 22,16.7614 L22,22.9994 L24,22.9994 L24,14.0004 L24,13.9994 L24,4.9994 C24,2.2394 18.627,-0.0006 12,-0.0006 C5.373,-0.0006 0,2.2394 0,4.9994 L0,22.9994 L2,22.9994 L2,16.7614 Z" id="Fill-1" fill="#00A4FF" mask="url(#mask-24)"></path>
                        </g>
                        <path d="M12,25.9996 C6.478,25.9996 2,24.6566 2,22.9996 L0,22.9996 C0,25.7616 5.373,27.9996 12,27.9996 C18.628,27.9996 24,25.7616 24,22.9996 L22,22.9996 C22,24.6566 17.523,25.9996 12,25.9996" id="Fill-4" fill="#00A4FF"></path>
                    </g>
                    <text id="归档数据库" font-family="PingFangSC-Medium, PingFang SC" font-size="14" font-weight="400" fill="#444444">
                        <tspan x="44" y="27">归档数据库</tspan>
                    </text>
                </g>
                <g id="Page-1-Copy-26" transform="translate(642.000000, 118.000000)" fill="#878787">
                    <polygon id="Fill-1" points="64.0004 0 64.0004 9 69.0004 4.5"></polygon>
                    <polygon id="Fill-3" points="0 5 65 5 65 3.999 0 3.999"></polygon>
                </g>
                <g id="Page-1-Copy-27" transform="translate(642.000000, 234.000000)" fill="#878787">
                    <polygon id="Fill-1" points="64.0004 0 64.0004 9 69.0004 4.5"></polygon>
                    <polygon id="Fill-3" points="0 5 65 5 65 3.999 0 3.999"></polygon>
                </g>
                <g id="Page-1-Copy-16" transform="translate(255.000000, 348.000000)" fill="#878787">
                    <polygon id="Fill-1" points="151 0 151 9 156 4.5"></polygon>
                    <polygon id="Fill-3" points="0 5 152 5 152 4 0 4"></polygon>
                </g>
                <g id="Page-1-Copy-17" transform="translate(582.000000, 348.000000)" fill="#878787">
                    <polygon id="Fill-1" points="124 0 124 9 129 4.5"></polygon>
                    <polygon id="Fill-3" points="0 5 126 5 126 4 0 4"></polygon>
                </g>
                <polyline id="Path-6" stroke="#979797" transform="translate(128.000000, 290.000000) scale(-1, 1) translate(-128.000000, -290.000000) " points="180 260 180 300.290258 76 300.290258 76 320"></polyline>
                <polyline id="Path-6" stroke="#979797" points="288 260 288 300.290258 180 300.290258 180 320"></polyline>
                <polygon id="Fill-1" fill="#878787" transform="translate(180.000000, 322.500000) rotate(90.000000) translate(-180.000000, -322.500000) " points="177.5 317.5 177.5 327.5 182.5 322.5"></polygon>
                <g id="Group-15" transform="translate(121.000000, 330.000000)">
                    <g id="Rectangle-5-Copy-28">
                        <use fill="black" fill-opacity="1" filter="url(#filter-26)" xlink:href="#path-25"></use>
                        <use fill="#FFFFFF" fill-rule="evenodd" xlink:href="#path-25"></use>
                    </g>
                    <text id="云数据库" font-family="PingFangSC-Medium, PingFang SC" font-size="14" font-weight="400" fill="#444444">
                        <tspan x="50" y="27">云数据库</tspan>
                    </text>
                    <g id="云数据库CDB" transform="translate(11.000000, 8.000000)" fill-rule="nonzero" fill="#00A4FF">
                        <path d="M12.6,17 L12,17 C6.48,17 2,15.64 2,14 L2,7.74 C4.15,9.09 7.82,10 12,10 C16.18,10 19.85,9.11 22,7.76 L22,12.25 C22.7010089,12.430646 23.3739414,12.7065483 24,13.07 L24,5 C24,2.24 18.63,0 12,0 C5.37,0 0,2.22 0,5 L0,23 L2,23 L2,16.74 C4,18 7.34,18.85 11.16,19 C11.4880094,18.6793979 11.8463553,18.3913815 12.23,18.14 C12.3246544,17.7512828 12.4483348,17.3702137 12.6,17 Z M12,2 C17.52,2 22,3.34 22,5 C22,6.66 17.52,8 12,8 C6.48,8 2,6.64 2,5 C2,3.36 6.48,2 12,2 Z M2,23 L0,23 C0,25.51 4.44,27.58 10.23,27.94 C9.78585132,27.3128792 9.44799849,26.6169024 9.23,25.88 C5.08,25.51 2,24.35 2,23 Z M25,20.14 C25,20.14 25,20 25,20 C25,17.2385763 22.7614237,15 20,15 C17.2385763,15 15,17.2385763 15,20 C15,20 15,20.09 15,20.14 C13.0739923,20.6628481 11.8280497,22.5253678 12.0799271,24.5051238 C12.3318044,26.4848798 14.004429,27.9760805 16,28 L24,28 C25.995571,27.9760805 27.6681956,26.4848798 27.9200729,24.5051238 C28.1719503,22.5253678 26.9260077,20.6628481 25,20.14 L25,20.14 Z M24,26 L16,26 C15.0170527,25.9674339 14.2036566,25.2250582 14.0816701,24.2491662 C13.9596836,23.2732742 14.5653135,22.3535203 15.51,22.08 L17.06,21.68 L17.06,20.08 C17.06,20.02 17.06,19.96 17.06,19.91 C17.06,18.2531458 18.4031458,16.91 20.06,16.91 C21.7168542,16.91 23.06,18.2531458 23.06,19.91 C23.06,19.97 23.06,20.03 23.06,20.08 L23.06,21.68 L24.61,22.08 C25.5758382,22.3604179 26.1832128,23.3144464 26.0285712,24.3082088 C25.8739296,25.3019712 25.0053778,26.0263274 24,26 Z" id="_复合路径_"></path>
                    </g>
                </g>
                <rect id="Rectangle-17" fill="#878787" x="642" y="122" width="1" height="230"></rect>
            </g>
        </g>
    </g>
</svg>