<?xml version="1.0" encoding="utf-8"?>
<!-- Generator: Adobe Illustrator 21.0.0, SVG Export Plug-In . SVG Version: 6.00 Build 0)  -->
<svg version="1.1" id="图层_1" xmlns="http://www.w3.org/2000/svg" xmlns:xlink="http://www.w3.org/1999/xlink" x="0px" y="0px"
	 width="820px" height="300px" viewBox="0 0 820 300" style="enable-background:new 0 0 820 300;" xml:space="preserve">
<style type="text/css">
	.st0{opacity:0.5;}
	.st1{fill:url(#SVGID_1_);}
	.st2{fill:#FFFFFF;}
	.st3{fill:url(#SVGID_2_);}
	.st4{opacity:0.2;}
	.st5{fill:url(#SVGID_3_);}
	.st6{fill:url(#SVGID_4_);}
	.st7{fill:url(#SVGID_5_);}
	.st8{fill:url(#SVGID_6_);}
	.st9{fill:url(#SVGID_7_);}
	.st10{opacity:0.2;fill:url(#SVGID_8_);}
	.st11{fill:url(#SVGID_9_);}
	.st12{fill:#999999;}
	.st13{fill:#E5E5E5;}
	.st14{fill:#333333;}
	.st15{fill:#666666;}
	.st16{opacity:0.2;fill:url(#SVGID_10_);}
	.st17{fill:url(#SVGID_11_);}
	.st18{fill:url(#SVGID_12_);}
	.st19{fill:url(#SVGID_13_);}
	.st20{fill:url(#SVGID_14_);}
	.st21{fill:url(#SVGID_15_);}
	.st22{fill:url(#SVGID_16_);}
	.st23{fill:url(#SVGID_17_);}
	.st24{fill:url(#SVGID_18_);}
	.st25{fill:url(#SVGID_19_);}
	.st26{fill:url(#SVGID_20_);}
	.st27{fill:url(#SVGID_21_);}
	.st28{fill:url(#SVGID_22_);}
	.st29{fill:url(#SVGID_23_);}
	.st30{fill:url(#SVGID_24_);}
	.st31{fill:url(#SVGID_25_);}
	.st32{fill:url(#SVGID_26_);}
	.st33{fill:url(#SVGID_27_);}
	.st34{fill:url(#SVGID_28_);}
	.st35{fill:url(#SVGID_29_);}
	.st36{fill:url(#SVGID_30_);}
	.st37{fill:url(#SVGID_31_);}
	.st38{fill:url(#SVGID_32_);}
	.st39{opacity:0.2;fill:url(#SVGID_33_);}
	.st40{fill:url(#SVGID_34_);}
	.st41{fill:url(#SVGID_35_);}
	.st42{fill:url(#SVGID_36_);}
	.st43{fill:url(#SVGID_37_);}
	.st44{fill:url(#SVGID_38_);}
	.st45{fill:url(#SVGID_39_);}
	.st46{opacity:0.2;fill:url(#SVGID_40_);}
	.st47{fill:url(#SVGID_41_);}
	.st48{fill:url(#SVGID_42_);}
	.st49{opacity:0.2;fill:url(#SVGID_43_);}
	.st50{fill:url(#SVGID_44_);}
	.st51{fill:url(#SVGID_45_);}
	.st52{opacity:0.2;fill:url(#SVGID_46_);}
	.st53{fill:url(#SVGID_47_);}
	.st54{fill:url(#SVGID_48_);}
	.st55{fill:url(#SVGID_49_);}
	.st56{fill:url(#SVGID_50_);}
	.st57{fill:url(#SVGID_51_);}
	.st58{fill:url(#SVGID_52_);}
	.st59{fill:url(#SVGID_53_);}
	.st60{fill:url(#SVGID_54_);}
	.st61{fill:url(#SVGID_55_);}
	.st62{fill:url(#SVGID_56_);}
	.st63{fill:url(#SVGID_57_);}
	.st64{fill:url(#SVGID_58_);}
	.st65{opacity:0.2;fill:url(#SVGID_59_);}
	.st66{fill:url(#SVGID_60_);}
	.st67{fill:url(#SVGID_61_);}
	.st68{fill:url(#SVGID_62_);}
	.st69{fill:url(#SVGID_63_);}
	.st70{fill:url(#SVGID_64_);}
	.st71{fill:url(#SVGID_65_);}
	.st72{fill:url(#SVGID_66_);}
	.st73{fill:url(#SVGID_67_);}
	.st74{fill:url(#SVGID_68_);}
	.st75{fill:url(#SVGID_69_);}
	.st76{opacity:0.2;fill:url(#SVGID_70_);}
	.st77{fill:url(#SVGID_71_);}
</style>
<g class="st0">
	
		<linearGradient id="SVGID_1_" gradientUnits="userSpaceOnUse" x1="489" y1="-540.5" x2="587" y2="-638.5" gradientTransform="matrix(1 0 0 -1 0 -496)">
		<stop  offset="0" style="stop-color:#00C8DC"/>
		<stop  offset="1" style="stop-color:#006EFF"/>
	</linearGradient>
	<path class="st1" d="M583,42.5v102h-90v-102H583 M584,41.5h-92v104h92V41.5L584,41.5z"/>
</g>
<rect x="500.5" y="46.5" class="st2" width="90.9" height="104"/>
<linearGradient id="SVGID_2_" gradientUnits="userSpaceOnUse" x1="497" y1="-545.5" x2="595" y2="-643.5" gradientTransform="matrix(1 0 0 -1 0 -496)">
	<stop  offset="0" style="stop-color:#00C8DC"/>
	<stop  offset="1" style="stop-color:#006EFF"/>
</linearGradient>
<path class="st3" d="M591,47.5v102h-90v-102H591 M592,46.5h-92v104h92V46.5L592,46.5z"/>
<g class="st4">
	
		<linearGradient id="SVGID_3_" gradientUnits="userSpaceOnUse" x1="501.975" y1="-550.425" x2="590.125" y2="-638.575" gradientTransform="matrix(1 0 0 -1 0 -496)">
		<stop  offset="0" style="stop-color:#00C8DC"/>
		<stop  offset="1" style="stop-color:#006EFF"/>
	</linearGradient>
	<rect x="504.9" y="51.5" class="st5" width="82.3" height="94"/>
</g>
<rect x="523" y="111.2" class="st2" width="46" height="3"/>
<rect x="523" y="119.2" class="st2" width="46" height="3"/>
<rect x="523" y="127.2" class="st2" width="19" height="3"/>
<g>
	<circle class="st2" cx="584" cy="131.5" r="22.2"/>
	
		<linearGradient id="SVGID_4_" gradientUnits="userSpaceOnUse" x1="568.2693" y1="-611.7692" x2="599.7307" y2="-643.2308" gradientTransform="matrix(1 0 0 -1 0 -496)">
		<stop  offset="0" style="stop-color:#00C8DC"/>
		<stop  offset="1" style="stop-color:#006EFF"/>
	</linearGradient>
	<path class="st6" d="M584,110.2c11.7,0,21.2,9.6,21.2,21.2s-9.6,21.2-21.2,21.2s-21.2-9.6-21.2-21.2S572.3,110.2,584,110.2
		 M584,109.2c-12.3,0-22.2,10-22.2,22.2s10,22.2,22.2,22.2s22.2-10,22.2-22.2S596.3,109.2,584,109.2L584,109.2z"/>
</g>
<g class="st4">
	
		<linearGradient id="SVGID_5_" gradientUnits="userSpaceOnUse" x1="571.3002" y1="-614.8004" x2="596.6998" y2="-640.1996" gradientTransform="matrix(1 0 0 -1 0 -496)">
		<stop  offset="0" style="stop-color:#00C8DC"/>
		<stop  offset="1" style="stop-color:#006EFF"/>
	</linearGradient>
	<circle class="st7" cx="584" cy="131.5" r="18"/>
</g>
<linearGradient id="SVGID_6_" gradientUnits="userSpaceOnUse" x1="575.0251" y1="-628.1" x2="594.8891" y2="-628.1" gradientTransform="matrix(1 0 0 -1 0 -496)">
	<stop  offset="0" style="stop-color:#00C8DC"/>
	<stop  offset="1" style="stop-color:#006EFF"/>
</linearGradient>
<polygon class="st8" points="592.9,124.7 582.1,135.5 577.1,130.5 575,132.5 580.1,137.6 581.5,139 582,139.5 594.9,126.6 "/>
<g>
	<path class="st2" d="M558.1,102.2h-24.1c-4.4,0-7.9-3.6-7.9-7.9V70.2c0-4.4,3.6-7.9,7.9-7.9h24.1c4.4,0,7.9,3.6,7.9,7.9v24.1
		C566,98.7,562.4,102.2,558.1,102.2z"/>
	<linearGradient id="SVGID_7_" gradientUnits="userSpaceOnUse" x1="526" y1="82.25" x2="566" y2="82.25">
		<stop  offset="0" style="stop-color:#00C8DC"/>
		<stop  offset="1" style="stop-color:#006EFF"/>
	</linearGradient>
	<path class="st9" d="M558.1,63.2c3.8,0,6.9,3.1,6.9,6.9v24.1c0,3.8-3.1,6.9-6.9,6.9h-24.1c-3.8,0-6.9-3.1-6.9-6.9V70.2
		c0-3.8,3.1-6.9,6.9-6.9H558.1 M558.1,62.2h-24.1c-4.4,0-7.9,3.6-7.9,7.9v24.1c0,4.4,3.6,7.9,7.9,7.9h24.1c4.4,0,7.9-3.6,7.9-7.9
		V70.2C566,65.8,562.4,62.2,558.1,62.2L558.1,62.2z"/>
</g>
<linearGradient id="SVGID_8_" gradientUnits="userSpaceOnUse" x1="530" y1="82.25" x2="562" y2="82.25">
	<stop  offset="0" style="stop-color:#00C8DC"/>
	<stop  offset="1" style="stop-color:#006EFF"/>
</linearGradient>
<path class="st10" d="M556.8,98.2h-21.6c-2.9,0-5.2-2.3-5.2-5.2V71.4c0-2.9,2.3-5.2,5.2-5.2h21.6c2.9,0,5.2,2.3,5.2,5.2v21.6
	C562,95.9,559.7,98.2,556.8,98.2z"/>
<linearGradient id="SVGID_9_" gradientUnits="userSpaceOnUse" x1="536" y1="82.25" x2="556" y2="82.25">
	<stop  offset="0" style="stop-color:#00C8DC"/>
	<stop  offset="1" style="stop-color:#006EFF"/>
</linearGradient>
<path class="st11" d="M546,71.2l-10,6v2v6v2l10,6l10-6v-2v-6v-2L546,71.2z M538,80.5l7,4.2v6l-7-4.2V80.5z M554,86.5l-7,4.2v-6
	l7-4.2V86.5z M546,83.2l-8.3-5l8.3-5l8.3,5L546,83.2z"/>
<g class="st0">
	<circle class="st12" cx="229" cy="213" r="2"/>
</g>
<g class="st0">
	<circle class="st12" cx="229" cy="236" r="2"/>
</g>
<g class="st0">
	<circle class="st12" cx="511" cy="213" r="2"/>
</g>
<g class="st0">
	<circle class="st12" cx="511" cy="236" r="2"/>
</g>
<g class="st0">
	<circle class="st12" cx="511" cy="259" r="2"/>
</g>
<g>
	<rect x="401" y="97" class="st13" width="8" height="2"/>
	<rect x="413" y="97" class="st13" width="8" height="2"/>
	<rect x="425" y="97" class="st13" width="8" height="2"/>
	<rect x="365" y="97" class="st13" width="8" height="2"/>
	<rect x="353" y="97" class="st13" width="8" height="2"/>
	<rect x="341" y="97" class="st13" width="8" height="2"/>
	<rect x="377" y="97" class="st13" width="8" height="2"/>
	<rect x="389" y="97" class="st13" width="8" height="2"/>
	<rect x="437" y="97" class="st13" width="8" height="2"/>
	<rect x="449" y="97" class="st13" width="8" height="2"/>
	<rect x="461" y="97" class="st13" width="8" height="2"/>
	<polygon class="st13" points="473,94 473,102 480,98 	"/>
</g>
<g>
	<path class="st14" d="M240.2,187.4v0.9h-5.9l-0.5,1h5.4v3.1c0,0.8-0.4,1.2-1.2,1.2h-1l-0.2-0.9l0.9,0c0.4,0,0.5-0.2,0.5-0.6v-2H236
		v3.3h-1v-3.3H233v3.3h-1v-3.3h-2.1v3.5h-1v-4.4h3.8l0.5-1h-5.5v-0.9H240.2z M239.4,181.3v0.8h-4.9v0.9h5.4v2.9h-1v-2.1h-4.4v3.1h-1
		v-3.1h-4.4v2.1h-1V183h5.4v-0.9h-4.9v-0.8H239.4z M232.8,184.5v0.7h-2.9v-0.7H232.8z M232.8,185.9v0.7h-2.9v-0.7H232.8z
		 M238.1,184.5v0.7h-2.9v-0.7H238.1z M238.2,185.9v0.7h-2.9v-0.7H238.2z"/>
	<path class="st14" d="M247.6,183.4v-2.6h1v2.6h3.2c-0.5-0.6-1.2-1.2-2-1.9l0.7-0.6c0.8,0.6,1.5,1.2,2.1,1.9l-0.7,0.7h2.1v1h-5.4
		v0.8c0.4,0.9,0.8,1.7,1.4,2.4c1-0.8,1.8-1.6,2.6-2.6l0.7,0.7c-0.8,1-1.7,1.9-2.8,2.6c1.1,1.3,2.4,2.5,3.9,3.4l-0.7,0.8
		c-2.3-1.6-4-3.5-5.1-5.7v5.4c0,0.9-0.4,1.3-1.3,1.3h-1.9l-0.2-1c0.6,0,1.2,0.1,1.8,0.1c0.4,0,0.6-0.2,0.6-0.7v-3.8
		c-1.5,1.8-3.2,3.3-5.2,4.5l-0.5-0.9c2.2-1.2,4.1-2.8,5.7-4.8v-2.6H242v-1H247.6z M245.8,187.8l-0.7,0.7c-0.6-0.8-1.4-1.7-2.4-2.6
		l0.7-0.7C244.3,186.1,245.1,187,245.8,187.8z"/>
	<path class="st14" d="M258.6,185.1v6.2c0.5-0.4,1-0.9,1.6-1.4l0.3,1.1c-0.9,0.8-1.8,1.6-2.8,2.2l-0.4-0.9c0.2-0.2,0.3-0.4,0.3-0.6
		v-5.5h-1.9v-1H258.6z M259.5,183.1l-0.7,0.7c-0.5-0.7-1.3-1.4-2.2-2.1l0.7-0.7C258.1,181.7,258.9,182.4,259.5,183.1z M267.3,186.7
		v0.9c-0.4,1.3-1.2,2.5-2.2,3.4c1,0.7,2.1,1.2,3.5,1.7l-0.5,0.9c-1.5-0.6-2.7-1.2-3.7-2c-1.1,0.8-2.5,1.5-4.1,2l-0.6-0.9
		c1.6-0.5,2.9-1.1,3.9-1.8c-1.1-1-1.8-2.1-2.2-3.3h-0.8v-1H267.3z M266.4,181.3v3c0,0.3,0.2,0.5,0.5,0.5h1.3v0.9h-1.5
		c-0.9,0-1.3-0.4-1.3-1.2v-2.3h-2.7v0.5c0,1.5-0.7,2.6-2.2,3.4l-0.7-0.8c1.2-0.6,1.8-1.5,1.8-2.6v-1.6H266.4z M264.3,190.4
		c0.9-0.8,1.6-1.7,2-2.7h-3.9C262.7,188.7,263.3,189.6,264.3,190.4z"/>
	<path class="st14" d="M272.7,185.1v6.2c0.5-0.4,1.1-0.9,1.7-1.5l0.3,1c-0.9,0.8-1.8,1.6-2.8,2.2l-0.4-0.9c0.2-0.2,0.3-0.4,0.3-0.6
		V186h-2.1v-1H272.7z M273.7,183.1l-0.7,0.7c-0.6-0.7-1.4-1.4-2.4-2.2l0.7-0.7C272.2,181.6,273,182.3,273.7,183.1z M277.8,185v-4.2
		h1v4.2h3.6v1h-3.6v7.7h-1V186H274v-1H277.8z"/>
	<path class="st14" d="M288.4,181.4v0.8c-0.4,1.3-0.9,2.6-1.5,4c0.9,1.3,1.4,2.4,1.4,3.4c0,0.6-0.1,1-0.4,1.3c-0.4,0.3-1,0.5-2,0.5
		l-0.3-1c0.2,0,0.4,0.1,0.5,0.1c0.5,0,0.8-0.1,1-0.2c0.2-0.1,0.2-0.3,0.2-0.6c0-1-0.5-2.1-1.5-3.3c0.6-1.5,1.1-2.8,1.5-4h-2.2v11.2
		h-1v-12.2H288.4z M292.4,180.9c0.8,1.8,2.2,3.5,4.1,4.9l-0.6,0.9c-1.8-1.3-3.1-2.9-4-4.8c-1,2.1-2.2,3.7-3.7,4.9l-0.6-0.9
		c1.6-1.3,2.9-3,3.7-5H292.4z M291,185.8v2c0,2.7-0.8,4.6-2.2,5.9L288,193c1.3-1.1,1.9-2.8,2-5.2v-2H291z M294,185.8v7.8h-1v-7.8
		H294z"/>
	<path class="st14" d="M299.7,186.9h3.1v0.9h-3.1v2.2c1.4-0.1,2.6-0.3,3.6-0.6v0.9c-0.9,0.2-2.1,0.4-3.6,0.6v2.5h-1v-2.4l-1,0.1
		l-0.2-1c0.4,0,0.7,0,1.1-0.1v-8.2c1.7-0.3,3.1-0.6,4.2-1.1l0.5,0.9c-1.1,0.4-2.3,0.8-3.7,1v1.6h3.1v0.9h-3.1V186.9z M309.4,186.8
		v0.9c-0.4,1.3-1,2.4-1.9,3.4c0.8,0.7,1.8,1.2,2.9,1.7l-0.5,0.9c-1.2-0.6-2.2-1.2-3.1-2c-1,0.8-2.2,1.5-3.6,2l-0.6-0.9
		c1.4-0.5,2.5-1.1,3.4-1.9c-0.9-1-1.4-2-1.8-3.2h-0.8v-0.9H309.4z M308.6,181.3v3c0,0.4,0.2,0.6,0.5,0.6h1.2v0.9h-1.4
		c-0.9,0-1.3-0.4-1.3-1.3v-2.3h-2v0.9c0,1.3-0.6,2.4-1.8,3.1l-0.7-0.8c1-0.5,1.4-1.3,1.4-2.3v-1.9H308.6z M306.8,190.3
		c0.7-0.8,1.2-1.6,1.6-2.6h-3.1C305.6,188.7,306.1,189.6,306.8,190.3z"/>
</g>
<g>
	<path class="st14" d="M517.1,182.1h5.1v1h-10.4v3.1c-0.1,3.1-0.5,5.5-1.4,7.4l-0.8-0.7c0.8-1.6,1.2-3.8,1.2-6.7v-4.1h5.2
		c-0.2-0.4-0.5-0.9-0.8-1.3l1.1-0.2C516.6,181.1,516.9,181.6,517.1,182.1z M518,192c0.9-2,1.6-4.4,2.3-7.4l1,0.3
		c-0.6,2.7-1.3,5-2.2,7.1h3v1h-9.9v-1H518z M515.2,190.5l-1,0.2c-0.4-1.8-0.9-3.5-1.4-5.1l0.9-0.3
		C514.2,186.8,514.7,188.5,515.2,190.5z M517.7,189.7l-1,0.2c-0.3-1.8-0.7-3.6-1.2-5.3l0.9-0.3C516.8,185.9,517.3,187.7,517.7,189.7
		z"/>
	<path class="st14" d="M524.4,193.5l-0.8-0.7c0.9-1.2,1.4-2.8,1.4-4.7v-6.7h10.4v10.5c0,1-0.5,1.5-1.5,1.5h-1.6l-0.3-1
		c0.6,0,1.1,0.1,1.6,0.1c0.5,0,0.8-0.3,0.8-0.9V189h-3.8v4.1h-1V189h-3.6C525.8,190.8,525.3,192.3,524.4,193.5z M526,182.3v2.4h3.6
		v-2.4H526z M526,188.1h3.6v-2.5H526V188.1z M534.4,182.3h-3.8v2.4h3.8V182.3z M534.4,185.7h-3.8v2.5h3.8V185.7z"/>
	<path class="st14" d="M540.7,190.2c-0.9,0.3-2,0.6-3.1,0.9l-0.1-1c1.2-0.2,2.3-0.5,3.2-0.8V190.2z M537.8,182.3v-0.9h4.4l-0.7,5.8
		h0.9c0,3.2-0.1,5-0.4,5.5c-0.3,0.5-0.9,0.7-1.7,0.7c-0.3,0-0.7,0-1,0l-0.3-0.9c0.5,0.1,0.8,0.1,1,0.1c0.7,0,1.1-0.2,1.2-0.6
		c0.1-0.4,0.2-1.7,0.2-3.9h-3.6l0.7-4.8l0.9,0.1l-0.6,3.9h1.7l0.6-4.8H537.8z M542.9,186.4l-0.5-0.8c1.6-1.2,2.8-2.8,3.6-4.7h0.9
		c0.7,1.8,1.9,3.3,3.7,4.7l-0.5,0.8c-0.6-0.5-1.1-1-1.6-1.5v0.9h-3.9v-0.9C544,185.5,543.4,186,542.9,186.4z M547.3,192.2
		c0.5-1.5,1-3.3,1.4-5.5l1,0.2c-0.4,2-0.9,3.8-1.4,5.3h2.1v1h-7.6v-1H547.3z M545.2,191.1l-0.9,0.2c-0.3-1.4-0.7-2.7-1.2-3.9
		l0.9-0.3C544.5,188.2,544.9,189.5,545.2,191.1z M546.4,181.8c-0.6,1.2-1.2,2.2-1.9,3h3.9C547.5,183.9,546.9,182.9,546.4,181.8z
		 M547.2,190.5l-0.9,0.2c-0.3-1.3-0.6-2.6-1-3.8l0.9-0.3C546.6,187.7,546.9,189,547.2,190.5z"/>
	<path class="st14" d="M552,190c0.2-0.1,0.3-0.2,0.3-0.3V182h1v7.6c0.7-0.2,1.4-0.4,2.1-0.7v-8.1h1v12.7h-1v-3.6
		c-1,0.4-2,0.7-3.1,0.9L552,190z M557.2,187.4l-0.6-0.8c1.1-1.5,1.9-3.4,2.3-5.9l1,0.2c-0.1,0.7-0.3,1.4-0.5,2h4.7v1H563
		c-0.1,2.3-0.7,4.3-1.7,5.9c0.9,1.1,2,2.2,3.2,3.1l-0.7,0.8c-1.2-0.9-2.3-1.9-3.2-3c-0.9,1.2-2.1,2.1-3.6,2.9l-0.6-0.9
		c1.5-0.7,2.6-1.7,3.5-2.8c-0.8-1.1-1.4-2.3-1.9-3.6C557.8,186.7,557.5,187,557.2,187.4z M558.7,185.2c0.5,1.4,1.1,2.6,2,3.8
		c0.8-1.4,1.3-3.1,1.4-5h-2.8C559,184.3,558.9,184.8,558.7,185.2z"/>
	<path class="st14" d="M570.4,181.4v0.8c-0.4,1.3-0.9,2.6-1.5,4c0.9,1.3,1.4,2.4,1.4,3.4c0,0.6-0.1,1-0.4,1.3c-0.4,0.3-1,0.5-2,0.5
		l-0.3-1c0.2,0,0.4,0.1,0.5,0.1c0.5,0,0.8-0.1,1-0.2c0.2-0.1,0.2-0.3,0.2-0.6c0-1-0.5-2.1-1.5-3.3c0.6-1.5,1.1-2.8,1.5-4h-2.2v11.2
		h-1v-12.2H570.4z M574.4,180.9c0.8,1.8,2.2,3.5,4.1,4.9l-0.6,0.9c-1.8-1.3-3.1-2.9-4-4.8c-1,2.1-2.2,3.7-3.7,4.9l-0.6-0.9
		c1.6-1.3,2.9-3,3.7-5H574.4z M573,185.8v2c0,2.7-0.8,4.6-2.2,5.9L570,193c1.3-1.1,1.9-2.8,2-5.2v-2H573z M576,185.8v7.8h-1v-7.8
		H576z"/>
	<path class="st14" d="M581.7,186.9h3.1v0.9h-3.1v2.2c1.4-0.1,2.6-0.3,3.6-0.6v0.9c-0.9,0.2-2.1,0.4-3.6,0.6v2.5h-1v-2.4l-1,0.1
		l-0.2-1c0.4,0,0.7,0,1.1-0.1v-8.2c1.7-0.3,3.1-0.6,4.2-1.1l0.5,0.9c-1.1,0.4-2.3,0.8-3.7,1v1.6h3.1v0.9h-3.1V186.9z M591.4,186.8
		v0.9c-0.4,1.3-1,2.4-1.9,3.4c0.8,0.7,1.8,1.2,2.9,1.7l-0.5,0.9c-1.2-0.6-2.2-1.2-3.1-2c-1,0.8-2.2,1.5-3.6,2l-0.6-0.9
		c1.4-0.5,2.5-1.1,3.4-1.9c-0.9-1-1.4-2-1.8-3.2h-0.8v-0.9H591.4z M590.6,181.3v3c0,0.4,0.2,0.6,0.5,0.6h1.2v0.9h-1.4
		c-0.9,0-1.3-0.4-1.3-1.3v-2.3h-2v0.9c0,1.3-0.6,2.4-1.8,3.1l-0.7-0.8c1-0.5,1.4-1.3,1.4-2.3v-1.9H590.6z M588.8,190.3
		c0.7-0.8,1.2-1.6,1.6-2.6h-3.1C587.6,188.7,588.1,189.6,588.8,190.3z"/>
</g>
<g>
	<path class="st15" d="M242.8,211c0.4-0.8,0.8-1.5,1.2-2.3l1,0.3c-0.4,0.7-0.7,1.4-1.1,2h7.2v1h-2.8c-0.6,1.5-1.2,2.6-2,3.5
		c1.4,0.6,2.9,1.3,4.4,2.2l-0.7,0.9c-1.5-0.9-3-1.7-4.5-2.3c-1.6,1.4-3.6,2.1-6.2,2.2l-0.6-0.9c2.4,0,4.3-0.6,5.8-1.7
		c-1.3-0.6-2.6-1.1-3.9-1.5c0.5-0.8,1-1.6,1.4-2.3h-3.4v-1H242.8z M250.8,210.2h-1v-2h-9.6v2h-1v-3h5.3c-0.2-0.5-0.4-0.9-0.6-1.3
		l1.1-0.2c0.2,0.4,0.4,0.9,0.6,1.5h5.2V210.2z M242.2,214c1.1,0.3,2.1,0.7,3.2,1.2c0.8-0.8,1.4-1.9,1.8-3.1h-3.9
		C243,212.8,242.6,213.4,242.2,214z"/>
	<path class="st15" d="M259.4,205.8c1.8,1.8,3.8,3.3,6.1,4.4l-0.5,0.9c-2.3-1.1-4.3-2.6-6-4.3c-1.5,1.7-3.5,3.2-6,4.4l-0.5-0.9
		c2.5-1.2,4.5-2.7,6.1-4.4H259.4z M262.9,210.2v1h-3.4v2.4h4v1h-4v2.6h5.3v1h-11.7v-1h5.3v-2.6h-4.1v-1h4.1v-2.4h-3.4v-1H262.9z"/>
	<path class="st15" d="M270.7,210.1c-1,1.2-2.1,2.3-3.2,3.1l-0.7-0.7c1.1-0.8,2.2-1.8,3.1-2.9L270.7,210.1z M270.3,207.9l-0.7,0.7
		c-0.6-0.6-1.4-1.2-2.4-1.8l0.7-0.7C268.8,206.7,269.6,207.3,270.3,207.9z M277.6,218.6h-1V218h-7.2v0.7h-1v-5.1h9.2V218.6z
		 M276.6,217v-2.5h-7.2v2.5H276.6z M275.3,208.5c-0.1,0.3-0.1,0.7-0.2,1c0.6,1.4,2,2.3,4.3,2.9l-0.5,0.9c-2.1-0.6-3.5-1.5-4.2-2.7
		c-0.2,0.4-0.5,0.7-0.8,1c-0.7,0.7-1.8,1.2-3.5,1.6l-0.4-0.9c1.5-0.3,2.5-0.8,3.1-1.3c0.6-0.6,1.1-1.4,1.2-2.5L275.3,208.5z
		 M271.2,210l-0.6-0.8c1-1,1.6-2.1,2-3.5l1,0.1c-0.1,0.4-0.2,0.8-0.3,1.1h5.4v0.8c-0.4,0.9-0.9,1.7-1.3,2.4l-0.8-0.6
		c0.4-0.5,0.7-1,1-1.6h-4.7C272.4,208.7,271.8,209.4,271.2,210z"/>
	<path class="st15" d="M283.6,210.1v6.2c0.4-0.4,0.9-0.9,1.4-1.4l0.3,1.1c-0.8,0.8-1.7,1.5-2.6,2.2l-0.4-0.9
		c0.2-0.2,0.3-0.4,0.3-0.6V211h-2.1v-1H283.6z M284.6,208.1l-0.7,0.7c-0.6-0.7-1.4-1.4-2.4-2.2l0.7-0.7
		C283.2,206.6,284,207.3,284.6,208.1z M287.9,205.9c-0.1,0.5-0.3,1-0.4,1.4h5.5c0,5.1-0.1,8.3-0.2,9.5c-0.1,1.2-0.8,1.8-2,1.8
		c-0.3,0-0.7,0-1.3,0l-0.2-0.9c0.6,0,1,0.1,1.4,0.1c0.6,0,1-0.4,1.1-1.2c0.1-0.9,0.2-3.6,0.2-8.1h-5c-0.5,0.9-1.1,1.8-1.9,2.5
		l-0.6-0.8c1.2-1.1,2-2.5,2.4-4.2L287.9,205.9z M290.2,209.9v6.4h-4.3v-6.4H290.2z M289.3,212.6v-1.9h-2.4v1.9H289.3z M289.3,213.5
		h-2.4v1.9h2.4V213.5z"/>
	<path class="st15" d="M242.8,234c0.4-0.8,0.8-1.5,1.2-2.3l1,0.3c-0.4,0.7-0.7,1.4-1.1,2h7.2v1h-2.8c-0.6,1.5-1.2,2.6-2,3.5
		c1.4,0.6,2.9,1.3,4.4,2.2l-0.7,0.9c-1.5-0.9-3-1.7-4.5-2.3c-1.6,1.4-3.6,2.1-6.2,2.2l-0.6-0.9c2.4,0,4.3-0.6,5.8-1.7
		c-1.3-0.6-2.6-1.1-3.9-1.5c0.5-0.8,1-1.6,1.4-2.3h-3.4v-1H242.8z M250.8,233.2h-1v-2h-9.6v2h-1v-3h5.3c-0.2-0.5-0.4-0.9-0.6-1.3
		l1.1-0.2c0.2,0.4,0.4,0.9,0.6,1.5h5.2V233.2z M242.2,237c1.1,0.3,2.1,0.7,3.2,1.2c0.8-0.8,1.4-1.9,1.8-3.1h-3.9
		C243,235.8,242.6,236.4,242.2,237z"/>
	<path class="st15" d="M259.4,228.8c1.8,1.8,3.8,3.3,6.1,4.4l-0.5,0.9c-2.3-1.1-4.3-2.6-6-4.3c-1.5,1.7-3.5,3.2-6,4.4l-0.5-0.9
		c2.5-1.2,4.5-2.7,6.1-4.4H259.4z M262.9,233.2v1h-3.4v2.4h4v1h-4v2.6h5.3v1h-11.7v-1h5.3v-2.6h-4.1v-1h4.1v-2.4h-3.4v-1H262.9z"/>
	<path class="st15" d="M270.3,229.2c-0.8,1.7-1.5,3.1-2.3,4.2c0.7-0.1,1.3-0.2,2-0.3c0.3-0.5,0.6-1.1,0.9-1.7l0.9,0.4
		c-1.3,2.4-2.5,4.1-3.3,5.1c1-0.2,2.1-0.5,3.1-0.9v0.9c-1.5,0.5-3,0.9-4.4,1.1l-0.3-0.9c0.2-0.1,0.3-0.2,0.5-0.3
		c0.6-0.5,1.2-1.5,2-2.8c-0.8,0.1-1.6,0.2-2.5,0.4l-0.3-0.9c0.2-0.1,0.3-0.2,0.4-0.4c0.8-1.2,1.5-2.6,2.2-4.2L270.3,229.2z
		 M271.5,239.4c-1.3,0.6-2.8,1.1-4.5,1.5l-0.1-1c1.8-0.4,3.3-0.8,4.7-1.4V239.4z M278.2,240.1h1.2v1h-8.1v-1h1.2v-10.7h5.7V240.1z
		 M277.2,232.9v-2.5h-3.7v2.5H277.2z M277.2,236.5v-2.6h-3.7v2.6H277.2z M277.2,240.1v-2.7h-3.7v2.7H277.2z"/>
	<path class="st15" d="M284.6,229.1c-0.4,1.1-0.8,2.2-1.4,3.2v9.4h-1v-7.8c-0.4,0.6-0.9,1.2-1.5,1.8l-0.3-1.1
		c1.5-1.7,2.5-3.6,3.2-5.8L284.6,229.1z M287,229.7c-0.1,0.7-0.3,1.4-0.5,2h2.1v-2.9h1v2.9h3.2v1h-3.2v3.4h3.7v1h-3.7v4.5h-1v-4.5
		h-4.1v-1h4.1v-3.4h-2.4c-0.4,0.9-0.8,1.8-1.3,2.5l-0.6-0.8c0.9-1.3,1.4-2.9,1.7-4.7L287,229.7z"/>
</g>
<g>
	<path class="st15" d="M523.7,211c0.4-0.8,0.8-1.5,1.2-2.3l1,0.3c-0.4,0.7-0.7,1.4-1.1,2h7.2v1h-2.8c-0.6,1.5-1.2,2.6-2,3.5
		c1.4,0.6,2.9,1.3,4.4,2.2l-0.7,0.9c-1.5-0.9-3-1.7-4.5-2.3c-1.6,1.4-3.6,2.1-6.2,2.2l-0.6-0.9c2.4,0,4.3-0.6,5.8-1.7
		c-1.3-0.6-2.6-1.1-3.9-1.5c0.5-0.8,1-1.6,1.4-2.3h-3.4v-1H523.7z M531.8,210.2h-1v-2h-9.6v2h-1v-3h5.3c-0.2-0.5-0.4-0.9-0.6-1.3
		l1.1-0.2c0.2,0.4,0.4,0.9,0.6,1.5h5.2V210.2z M523.2,214c1.1,0.3,2.1,0.7,3.2,1.2c0.8-0.8,1.4-1.9,1.8-3.1h-3.9
		C523.9,212.8,523.5,213.4,523.2,214z"/>
	<path class="st15" d="M540.3,205.8c1.8,1.8,3.8,3.3,6.1,4.4l-0.5,0.9c-2.3-1.1-4.3-2.6-6-4.3c-1.5,1.7-3.5,3.2-6,4.4l-0.5-0.9
		c2.5-1.2,4.5-2.7,6.1-4.4H540.3z M543.9,210.2v1h-3.4v2.4h4v1h-4v2.6h5.3v1h-11.7v-1h5.3v-2.6h-4.1v-1h4.1v-2.4H536v-1H543.9z"/>
	<path class="st15" d="M550.2,211.5l-0.7,0.7c-0.5-0.6-1.1-1.3-1.9-2l0.7-0.6C549,210.2,549.6,210.8,550.2,211.5z M550.3,213.6
		c-0.5,1.7-1.1,3.3-1.8,4.8l-0.9-0.4c0.7-1.6,1.3-3.2,1.8-4.8L550.3,213.6z M550.4,207.9l-0.7,0.7c-0.5-0.6-1.1-1.2-2-1.9l0.7-0.7
		C549.2,206.7,549.9,207.3,550.4,207.9z M553.8,208.3v4.4c0,1.6-0.3,2.9-0.8,3.8c-0.5,0.9-1.2,1.6-2.3,2.1l-0.5-0.8
		c1-0.5,1.7-1.1,2.1-1.9c0.4-0.8,0.6-1.9,0.6-3.2v-4.4H553.8z M555.7,215h-0.9v-7.7h-2.9v7.8H551v-8.6h4.7V215z M556.3,217.9
		l-0.7,0.7c-0.5-0.7-1.2-1.5-2.1-2.4l0.6-0.6C555,216.4,555.8,217.2,556.3,217.9z M557.7,207v8.7h-0.9V207H557.7z M557.2,218.5
		l-0.2-0.9c0.5,0,1,0.1,1.4,0.1c0.3,0,0.5-0.2,0.5-0.6v-11.2h1v11.5c0,0.8-0.4,1.2-1.1,1.2H557.2z"/>
	<path class="st15" d="M564.6,210.1v6.2c0.4-0.4,0.9-0.8,1.4-1.4l0.3,1.1c-0.8,0.8-1.7,1.5-2.6,2.2l-0.4-0.9
		c0.2-0.2,0.3-0.4,0.3-0.6V211h-2.1v-1H564.6z M565.6,208.1l-0.7,0.7c-0.6-0.7-1.4-1.4-2.4-2.2l0.7-0.7
		C564.2,206.6,565,207.3,565.6,208.1z M574,206.4v1h-3.3v5.3h3.7v1h-3.7v5h-1v-5H566v-1h3.7v-5.3h-3.3v-1H574z M568.6,211.7
		l-0.9,0.2c-0.3-1.2-0.7-2.4-1.1-3.5l0.9-0.3C567.9,209.2,568.3,210.4,568.6,211.7z M573.6,208.3c-0.3,1.4-0.7,2.5-1.1,3.6l-0.9-0.3
		c0.4-0.9,0.8-2.1,1.1-3.5L573.6,208.3z"/>
	<path class="st15" d="M527.1,230.1h5.1v1h-10.4v3.1c-0.1,3.1-0.5,5.5-1.4,7.4l-0.8-0.7c0.8-1.6,1.2-3.8,1.2-6.7v-4.1h5.2
		c-0.2-0.4-0.5-0.9-0.8-1.3l1.1-0.2C526.6,229.1,526.8,229.6,527.1,230.1z M527.9,240c0.9-2,1.6-4.4,2.3-7.4l1,0.3
		c-0.6,2.7-1.3,5-2.2,7.1h3v1h-9.9v-1H527.9z M525.1,238.5l-1,0.2c-0.4-1.8-0.9-3.5-1.4-5.1l0.9-0.3
		C524.2,234.8,524.7,236.5,525.1,238.5z M527.6,237.7l-1,0.2c-0.3-1.8-0.7-3.6-1.2-5.3l0.9-0.3C526.8,233.9,527.2,235.7,527.6,237.7
		z"/>
	<path class="st15" d="M534.3,241.5l-0.8-0.7c0.9-1.2,1.4-2.8,1.4-4.7v-6.7h10.4v10.5c0,1-0.5,1.5-1.5,1.5h-1.6l-0.3-1
		c0.6,0,1.1,0.1,1.6,0.1c0.5,0,0.8-0.3,0.8-0.9V237h-3.8v4.1h-1V237h-3.6C535.7,238.8,535.2,240.3,534.3,241.5z M535.9,230.3v2.4
		h3.6v-2.4H535.9z M535.9,236.1h3.6v-2.5h-3.6V236.1z M544.3,230.3h-3.8v2.4h3.8V230.3z M544.3,233.7h-3.8v2.5h3.8V233.7z"/>
	<path class="st15" d="M551,228.8v2.8h2.9c0,4.4-0.1,7.1-0.2,8.1c-0.1,1.1-0.8,1.7-2.1,1.7c-0.2,0-0.6,0-1.1-0.1l-0.3-0.9
		c0.4,0,0.8,0.1,1.2,0.1c0.7,0,1.1-0.4,1.2-1.2c0.1-0.7,0.1-3,0.2-6.7H551c-0.1,4.1-1,7.1-2.8,9l-0.7-0.7c1.6-1.8,2.5-4.6,2.5-8.4
		h-2.2v-1h2.2v-2.8H551z M559.7,241.4h-1v-0.9h-2.6v0.9h-1v-10.5h4.6V241.4z M558.7,239.5v-7.7h-2.6v7.7H558.7z"/>
	<path class="st15" d="M573.6,241.6h-1V241h-9.3v0.6h-1v-12.2h11.3V241.6z M572.6,240v-9.7h-9.3v9.7H572.6z M567.4,232.5V231h1v1.5
		h3.4v1h-3.4v1.5h2.4v3.9h-5.8V235h2.4v-1.5H564v-1H567.4z M569.9,235.8H566v2.1h3.9V235.8z"/>
	<path class="st15" d="M523.3,253.3c-0.2-0.4-0.5-0.9-0.8-1.3l1-0.4c0.3,0.4,0.6,1,0.8,1.6h3.1c0.3-0.5,0.6-1.1,0.8-1.7l1,0.3
		c-0.2,0.5-0.4,0.9-0.7,1.3h3.3v0.9h-4v1.2h2.9v2.1h1.5v0.9h-1.5v2.1h-2.6c0.9,1.2,2.3,2.1,4.2,2.8l-0.5,1c-1.8-0.8-3.1-1.9-4-3.1
		v3.5h-1v-4.2h-2.1v4.2h-1v-3.4c-0.9,1.2-2.1,2.2-3.7,3.1l-0.6-0.9c1.8-0.7,3.1-1.7,4-2.8h-2.6v-0.9h2.9v-1.2h-4.1v-0.9h4.1v-1.3
		h-2.7v-0.9h2.7v-1.2h-3.7v-0.9H523.3z M526.9,254.2h-2.1v1.2h2.1V254.2z M524.7,257.5h2.1v-1.3h-2.1V257.5z M524.7,259.6h2.1v-1.2
		h-2.1V259.6z M527.8,257.5h1.9v-1.3h-1.9V257.5z M527.8,259.6h1.9v-1.2h-1.9V259.6z"/>
	<path class="st15" d="M540.4,256.2c1.1,1.4,3.1,2.6,5.9,3.7l-0.5,0.8c-0.6-0.2-1.1-0.4-1.6-0.7v4.6h-1V264h-6.3v0.6h-1V260
		c-0.6,0.3-1.1,0.5-1.7,0.7l-0.5-0.8c2.6-1,4.5-2.2,5.9-3.7H540.4z M538.9,255.1c-1.2,1-2.6,1.9-4.4,2.7L534,257
		c1.7-0.7,3.1-1.6,4.3-2.5L538.9,255.1z M540.6,253h5.1v2.5h-1v-1.6h-9.5v1.6h-1V253h5.3c-0.2-0.4-0.3-0.7-0.5-1.1l1.1-0.2
		C540.3,252.1,540.4,252.5,540.6,253z M544,260c-1.7-0.8-3.1-1.8-4-2.9c-1.1,1.2-2.5,2.1-4,2.9H544z M543.2,263.1v-2.2h-6.3v2.2
		H543.2z M545.9,257.1l-0.7,0.7c-1-0.8-2.4-1.7-4.2-2.7l0.6-0.6C543.3,255.3,544.7,256.2,545.9,257.1z"/>
	<path class="st15" d="M548.8,254.5c0,1.4-0.2,2.7-0.5,4l-0.8-0.2c0.3-1.2,0.5-2.5,0.5-3.8L548.8,254.5z M550.5,251.8v12.7h-1v-12.7
		H550.5z M552.3,256.6c0.5-1.2,0.8-2.5,0.8-3.9l0.9,0.1c0,0.6-0.1,1.1-0.2,1.7h2v-2.6h1v2.6h3.1v1h-3.1v3.4h2.8v1h-2.8v3.4h3.4v1
		h-8.5v-1h4v-3.4h-3.2v-1h3.2v-3.4h-2.2c-0.3,1-0.6,2-1.1,2.8l-0.7-0.7c0.2-0.3,0.3-0.6,0.4-0.9l-0.7,0.2c-0.2-0.9-0.5-1.7-0.8-2.5
		l0.7-0.2C551.8,254.9,552.1,255.7,552.3,256.6z"/>
	<path class="st15" d="M564.2,257.5l-0.7,0.7c-0.5-0.6-1.1-1.3-1.9-2l0.7-0.6C563,256.2,563.6,256.8,564.2,257.5z M564.3,259.6
		c-0.5,1.7-1.1,3.3-1.8,4.8l-0.9-0.4c0.7-1.6,1.3-3.2,1.8-4.8L564.3,259.6z M564.4,253.9l-0.7,0.7c-0.5-0.6-1.1-1.2-2-1.9l0.7-0.7
		C563.2,252.7,563.9,253.3,564.4,253.9z M567.8,254.3v4.4c0,1.6-0.3,2.9-0.8,3.8c-0.5,0.9-1.2,1.6-2.3,2.1l-0.5-0.8
		c1-0.5,1.7-1.1,2.1-1.9c0.4-0.8,0.6-1.9,0.6-3.2v-4.4H567.8z M569.7,261h-0.9v-7.7h-2.9v7.8H565v-8.6h4.7V261z M570.3,263.9
		l-0.7,0.7c-0.5-0.7-1.2-1.5-2.1-2.4l0.6-0.6C569,262.4,569.8,263.2,570.3,263.9z M571.7,253v8.7h-0.9V253H571.7z M571.2,264.5
		l-0.2-0.9c0.5,0,1,0.1,1.4,0.1c0.3,0,0.5-0.2,0.5-0.6v-11.2h1v11.5c0,0.8-0.4,1.2-1.1,1.2H571.2z"/>
	<path class="st15" d="M578.5,256.1v6.1c0.4-0.4,0.8-0.9,1.3-1.3l0.3,1.1c-0.8,0.8-1.6,1.6-2.5,2.2l-0.4-0.9
		c0.2-0.2,0.3-0.4,0.3-0.6V257h-2v-1H578.5z M579.5,254.1l-0.7,0.7c-0.6-0.7-1.3-1.4-2.3-2.2l0.7-0.7
		C578.1,252.6,578.9,253.3,579.5,254.1z M585.6,263.3c-0.4-0.8-0.7-2-0.9-3.4c-0.2-1.2-0.3-2.8-0.3-4.6h-4.4v-1h4.4
		c0-0.8,0-1.7,0-2.6h1c0,0.9,0,1.8,0,2.6h2.8v1h-2.8c0.1,2.4,0.2,4.3,0.4,5.6c0.3,1.6,0.7,2.4,1.1,2.5c0.3-0.1,0.6-0.9,0.9-2.6
		l0.8,0.6c-0.5,2-1,3-1.7,3C586.4,264.4,585.9,264,585.6,263.3z M580.2,258.4v-0.9h3.6v0.9h-1.3v3.8c0.6-0.1,1.2-0.3,1.8-0.5v0.9
		c-1.2,0.4-2.5,0.6-3.9,0.9l-0.3-1c0.5-0.1,0.9-0.1,1.4-0.2v-4H580.2z M587.9,253.5l-0.7,0.5c-0.4-0.5-0.8-1.1-1.4-1.8l0.7-0.4
		C587.1,252.4,587.5,253,587.9,253.5z"/>
</g>
<rect x="223.5" y="45.5" class="st2" width="90.9" height="104"/>
<linearGradient id="SVGID_10_" gradientUnits="userSpaceOnUse" x1="220" y1="-544.5" x2="318" y2="-642.5" gradientTransform="matrix(1 0 0 -1 0 -496)">
	<stop  offset="0" style="stop-color:#00C8DC"/>
	<stop  offset="1" style="stop-color:#006EFF"/>
</linearGradient>
<path style="fill:url(#SVGID_10_);" d="M314,46.5v102h-90v-102H314 M315,45.5h-92v104h92V45.5L315,45.5z"/>
<g class="st4">
	
		<linearGradient id="SVGID_11_" gradientUnits="userSpaceOnUse" x1="224.975" y1="-549.425" x2="313.125" y2="-637.575" gradientTransform="matrix(1 0 0 -1 0 -496)">
		<stop  offset="0" style="stop-color:#00C8DC"/>
		<stop  offset="1" style="stop-color:#006EFF"/>
	</linearGradient>
	<rect x="227.9" y="50.5" class="st17" width="82.3" height="94"/>
</g>
<rect x="246" y="110.2" class="st2" width="46" height="3"/>
<rect x="246" y="118.2" class="st2" width="46" height="3"/>
<rect x="246" y="126.2" class="st2" width="19" height="3"/>
<g>
	<path class="st2" d="M281.1,101.2h-24.1c-4.4,0-7.9-3.6-7.9-7.9V69.2c0-4.4,3.6-7.9,7.9-7.9h24.1c4.4,0,7.9,3.6,7.9,7.9v24.1
		C289,97.7,285.4,101.2,281.1,101.2z"/>
	<linearGradient id="SVGID_12_" gradientUnits="userSpaceOnUse" x1="249" y1="81.25" x2="289" y2="81.25">
		<stop  offset="0" style="stop-color:#00C8DC"/>
		<stop  offset="1" style="stop-color:#006EFF"/>
	</linearGradient>
	<path class="st18" d="M281.1,62.2c3.8,0,6.9,3.1,6.9,6.9v24.1c0,3.8-3.1,6.9-6.9,6.9h-24.1c-3.8,0-6.9-3.1-6.9-6.9V69.2
		c0-3.8,3.1-6.9,6.9-6.9H281.1 M281.1,61.2h-24.1c-4.4,0-7.9,3.6-7.9,7.9v24.1c0,4.4,3.6,7.9,7.9,7.9h24.1c4.4,0,7.9-3.6,7.9-7.9
		V69.2C289,64.8,285.4,61.2,281.1,61.2L281.1,61.2z"/>
</g>
<linearGradient id="SVGID_13_" gradientUnits="userSpaceOnUse" x1="253" y1="81.25" x2="285" y2="81.25">
	<stop  offset="0" style="stop-color:#00C8DC"/>
	<stop  offset="1" style="stop-color:#006EFF"/>
</linearGradient>
<path style="opacity:0.2;fill:url(#SVGID_13_);" d="M279.8,97.2h-21.6c-2.9,0-5.2-2.3-5.2-5.2V70.4c0-2.9,2.3-5.2,5.2-5.2h21.6
	c2.9,0,5.2,2.3,5.2,5.2v21.6C285,94.9,282.7,97.2,279.8,97.2z"/>
<linearGradient id="SVGID_14_" gradientUnits="userSpaceOnUse" x1="259" y1="81.25" x2="279" y2="81.25">
	<stop  offset="0" style="stop-color:#00C8DC"/>
	<stop  offset="1" style="stop-color:#006EFF"/>
</linearGradient>
<path class="st20" d="M269,70.2l-10,6v2v6v2l10,6l10-6v-2v-6v-2L269,70.2z M261,79.5l7,4.2v6l-7-4.2V79.5z M277,85.5l-7,4.2v-6
	l7-4.2V85.5z M269,82.2l-8.3-5l8.3-5l8.3,5L269,82.2z"/>
</svg>
