<?xml version="1.0" encoding="UTF-8"?>
<svg width="48px" height="48px" viewBox="0 0 48 48" version="1.1" xmlns="http://www.w3.org/2000/svg" xmlns:xlink="http://www.w3.org/1999/xlink">
    <!-- Generator: Sketch 54.1 (76490) - https://sketchapp.com -->
    <title>专属tvp大礼包</title>
    <desc>Created with Sketch.</desc>
    <g id="页面1" stroke="none" stroke-width="1" fill="none" fill-rule="evenodd">
        <g id="首页" transform="translate(-1081.000000, -3723.000000)">
            <g id="专属tvp大礼包" transform="translate(1081.000000, 3723.000000)">
                <path d="M30,6.73288731 L30,35.2291114 L47,39.7027956 L47,1.36446626 L30,6.73288731 Z" id="Rectangle-99" stroke="#A99159" stroke-width="2"></path>
                <path d="M20,7 L20,35 L30,35 L30,7 L20,7 Z" id="Rectangle" stroke="#A99159" stroke-width="2"></path>
                <path d="M20,35 L20,7 L15,7 C7.2680135,7 1,13.2680135 1,21 C1,28.7319865 7.2680135,35 15,35 L20,35 Z" id="Rectangle-Copy" stroke="#A99159" stroke-width="2"></path>
                <path d="M13.32573,35 L16.7543014,47 L23.67427,47 L20.2456986,35 L13.32573,35 Z" id="Rectangle-100" stroke="#A99159" stroke-width="2"></path>
                <path d="M15,14 L19,14 L19,28 L15,28 C11.1340068,28 8,24.8659932 8,21 L8,21 C8,17.1340068 11.1340068,14 15,14 Z" id="Rectangle-101" fill="#A99159"></path>
            </g>
        </g>
    </g>
</svg>