<?xml version="1.0" encoding="utf-8"?>
<!-- Generator: Adobe Illustrator 17.0.0, SVG Export Plug-In . SVG Version: 6.00 Build 0)  -->
<!DOCTYPE svg PUBLIC "-//W3C//DTD SVG 1.1//EN" "http://www.w3.org/Graphics/SVG/1.1/DTD/svg11.dtd">
<svg version="1.1" id="图层_1" xmlns="http://www.w3.org/2000/svg" xmlns:xlink="http://www.w3.org/1999/xlink" x="0px" y="0px"
	 width="60px" height="60px" viewBox="10 10 60 60" enable-background="new 10 10 60 60" xml:space="preserve">
<circle id="Oval-5-Copy-2_3_" fill="none" stroke="#00A4FF" stroke-width="2" cx="40" cy="40" r="29"/>
<linearGradient id="Fill-1-Copy-3_1_" gradientUnits="userSpaceOnUse" x1="-108.2895" y1="254.2924" x2="-107.1664" y2="253.339" gradientTransform="matrix(10.984 0 0 -11.876 1225.4442 3058.2542)">
	<stop  offset="0" style="stop-color:#00A4FF"/>
	<stop  offset="1" style="stop-color:#00A3FF"/>
</linearGradient>
<path id="Fill-1-Copy-3" fill="url(#Fill-1-Copy-3_1_)" d="M36.803,42.9v-5.874l0,0c0,0,1.71,0.967,5.131,2.974L36.803,42.9z
	 M37.546,35.762c-0.446-0.297-1.041-0.297-1.487,0c-0.446,0.297-0.744,0.744-0.744,1.264v5.8c0,0.521,0.297,1.041,0.744,1.264
	c0.223,0.149,0.521,0.223,0.744,0.223c0.297,0,0.521-0.074,0.744-0.223l5.131-2.9c0.446-0.297,0.744-0.744,0.744-1.264
	c0-0.521-0.297-1.041-0.744-1.264L37.546,35.762z"/>
<rect id="Rectangle-2_1_" x="25.723" y="28.846" fill="none" stroke="#00A4FF" stroke-width="2" width="26.026" height="22.308"/>
<path id="Combined-Shape" fill="none" stroke="#00A4FF" stroke-width="2" d="M51.749,38.513v4.313l5.131,2.603V35.91L51.749,38.513z
	"/>
</svg>
