<?xml version="1.0" encoding="utf-8"?>
<!-- Generator: Adobe Illustrator 19.0.0, SVG Export Plug-In . SVG Version: 6.00 Build 0)  -->
<svg version="1.1" id="图层_1" xmlns="http://www.w3.org/2000/svg" xmlns:xlink="http://www.w3.org/1999/xlink" x="0px" y="0px"
	 width="48px" height="48px" viewBox="-11 12 48 48" style="enable-background:new -11 12 48 48;" xml:space="preserve">
<g>
	<g id="XMLID_103_">
		<path id="XMLID_104_" style="fill:#00A4FF;" d="M1,39c0,3.3,2.7,6,6,6s6-2.7,6-6s-2.7-6-6-6S1,35.7,1,39z M11,39c0,2.2-1.8,4-4,4
			s-4-1.8-4-4s1.8-4,4-4S11,36.8,11,39z M35,47V19H-9v34h44v-2h-2l0,0H-7V26h40v21H35z M-7,24v-3h40v3H-7z M15,33h-2l6,12l6-12h-2
			l-4,8L15,33z"/>
	</g>
</g>
</svg>
