<?xml version="1.0" encoding="UTF-8"?>
<svg width="48px" height="48px" viewBox="0 0 48 48" version="1.1" xmlns="http://www.w3.org/2000/svg" xmlns:xlink="http://www.w3.org/1999/xlink">
    <!-- Generator: Sketch 52.6 (67491) - http://www.bohemiancoding.com/sketch -->
    <title>题库评估</title>
    <desc>Created with Sketch.</desc>
    <g id="题库评估" stroke="none" stroke-width="1" fill="none" fill-rule="evenodd">
        <rect id="Rectangle" fill-rule="nonzero" x="0" y="0" width="48" height="48"></rect>
        <path d="M16,18 L16,15 L18,15 L18,18 L21,18 L21,20 L18,20 L18,23 L16,23 L16,20 L13,20 L13,18 L16,18 Z M44,37 C45.7,37 47,38.3 47,40 C47,41.7 45.7,43 44,43 C42.7,43 41.6,42.2 41.2,41 L5,41 L3,41 L3,39 L3,14 L5,14 L5,39 L41.2,39 C41.6,37.8 42.7,37 44,37 Z M6.8,9 C6.4,10.2 5.3,11 4,11 C2.3,11 1,9.7 1,8 C1,6.3 2.3,5 4,5 C5.3,5 6.4,5.8 6.8,7 L43,7 L45,7 L45,9 L45,34 L43,34 L43,9 L6.8,9 Z M27,27 L35,27 L35,29 L27,29 L27,27 Z M27,18 L35,18 L35,20 L27,20 L27,18 Z M17,28.5857864 L19.1213203,26.4644661 L20.5355339,27.8786797 L18.4142136,30 L20.5355339,32.1213203 L19.1213203,33.5355339 L17,31.4142136 L14.8786797,33.5355339 L13.4644661,32.1213203 L15.5857864,30 L13.4644661,27.8786797 L14.8786797,26.4644661 L17,28.5857864 Z M27,31 L35,31 L35,33 L27,33 L27,31 Z" id="Combined-Shape" fill="#7C848E"></path>
    </g>
</svg>