<?xml version="1.0" encoding="UTF-8"?>
<svg width="48px" height="48px" viewBox="0 0 48 48" version="1.1" xmlns="http://www.w3.org/2000/svg" xmlns:xlink="http://www.w3.org/1999/xlink">
    <!-- Generator: Sketch 52.6 (67491) - http://www.bohemiancoding.com/sketch -->
    <title>算法镜像</title>
    <desc>Created with Sketch.</desc>
    <g id="算法镜像" stroke="none" stroke-width="1" fill="none" fill-rule="evenodd">
        <rect id="Rectangle" fill-rule="nonzero" x="0" y="0" width="48" height="48"></rect>
        <path d="M44,37 C45.7,37 47,38.3 47,40 C47,41.7 45.7,43 44,43 C42.7,43 41.6,42.2 41.2,41 L5,41 L3,41 L3,39 L3,14 L5,14 L5,39 L41.2,39 C41.6,37.8 42.7,37 44,37 Z M6.8,9 C6.4,10.2 5.3,11 4,11 C2.3,11 1,9.7 1,8 C1,6.3 2.3,5 4,5 C5.3,5 6.4,5.8 6.8,7 L43,7 L45,7 L45,9 L45,34 L43,34 L43,9 L6.8,9 Z M13,18 L13,30 L17,30 L17,18 L13,18 Z M11,16 L19,16 L19,32 L11,32 L11,16 Z M31,18 L31,30 L35,30 L35,18 L31,18 Z M29,16 L37,16 L37,32 L29,32 L29,16 Z M20,23 L22,23 L22,25 L20,25 L20,23 Z M23,23 L25,23 L25,25 L23,25 L23,23 Z M26,23 L28,23 L28,25 L26,25 L26,23 Z" id="Combined-Shape" fill="#7C848E"></path>
    </g>
</svg>