<?xml version="1.0" encoding="UTF-8"?>
<svg width="48px" height="48px" viewBox="0 0 48 48" version="1.1" xmlns="http://www.w3.org/2000/svg" xmlns:xlink="http://www.w3.org/1999/xlink">
    <!-- Generator: Sketch 52.6 (67491) - http://www.bohemiancoding.com/sketch -->
    <title>数据洞察</title>
    <desc>Created with Sketch.</desc>
    <g id="数据洞察" stroke="none" stroke-width="1" fill="none" fill-rule="evenodd">
        <rect id="Rectangle" fill-rule="nonzero" x="0" y="0" width="48" height="48"></rect>
        <path d="M33.8875078,23.4810798 L37.0374682,26.7731232 L35.5924146,28.155809 L32.4716182,24.8942451 C31.4917073,25.59058 30.2936662,26 29,26 C25.6862915,26 23,23.3137085 23,20 C23,16.6862915 25.6862915,14 29,14 C32.3137085,14 35,16.6862915 35,20 C35,21.2978329 34.5879385,22.4994237 33.8875078,23.4810798 Z M44,37 C45.7,37 47,38.3 47,40 C47,41.7 45.7,43 44,43 C42.7,43 41.6,42.2 41.2,41 L5,41 L3,41 L3,39 L3,14 L5,14 L5,39 L41.2,39 C41.6,37.8 42.7,37 44,37 Z M6.8,9 C6.4,10.2 5.3,11 4,11 C2.3,11 1,9.7 1,8 C1,6.3 2.3,5 4,5 C5.3,5 6.4,5.8 6.8,7 L43,7 L45,7 L45,9 L45,34 L43,34 L43,9 L6.8,9 Z M11,23 L13,23 L13,34 L11,34 L11,23 Z M21,26 L23,26 L23,34 L21,34 L21,26 Z M26,28 L28,28 L28,34 L26,34 L26,28 Z M29,24 C31.209139,24 33,22.209139 33,20 C33,17.790861 31.209139,16 29,16 C26.790861,16 25,17.790861 25,20 C25,22.209139 26.790861,24 29,24 Z M16,17 L18,17 L18,34 L16,34 L16,17 Z" id="Combined-Shape" fill="#7C848E"></path>
    </g>
</svg>