<?xml version="1.0" encoding="UTF-8"?>
<svg width="48px" height="41px" viewBox="0 0 48 41" version="1.1" xmlns="http://www.w3.org/2000/svg" xmlns:xlink="http://www.w3.org/1999/xlink">
    <!-- Generator: Sketch 54.1 (76490) - https://sketchapp.com -->
    <title>活动组织</title>
    <desc>Created with Sketch.</desc>
    <g id="页面1" stroke="none" stroke-width="1" fill="none" fill-rule="evenodd">
        <g id="首页" transform="translate(-788.000000, -3727.000000)">
            <g id="活动组织" transform="translate(788.000000, 3727.000000)">
                <g id="Group-6">
                    <rect id="Rectangle-23" stroke="#A99159" stroke-width="2" x="1" y="6" width="46" height="34"></rect>
                    <rect id="Rectangle-58" fill="#A99159" x="32" y="15" width="10" height="2"></rect>
                    <rect id="Rectangle-58-Copy" fill="#A99159" x="32" y="23" width="10" height="2"></rect>
                    <rect id="Rectangle-58-Copy-2" fill="#A99159" x="32" y="31" width="10" height="2"></rect>
                    <rect id="Rectangle-58" fill="#A99159" transform="translate(23.000000, 5.000000) rotate(-270.000000) translate(-23.000000, -5.000000) " x="18" y="4" width="10" height="2"></rect>
                    <rect id="Rectangle-58-Copy" fill="#A99159" transform="translate(15.000000, 5.000000) rotate(-270.000000) translate(-15.000000, -5.000000) " x="10" y="4" width="10" height="2"></rect>
                    <rect id="Rectangle-58-Copy-2" fill="#A99159" transform="translate(7.000000, 5.000000) rotate(-270.000000) translate(-7.000000, -5.000000) " x="2" y="4" width="10" height="2"></rect>
                </g>
                <path d="M17,35 C23.0751322,35 28,30.0751322 28,24 C28,17.9248678 23.0751322,13 17,13 C10.9248678,13 6,17.9248678 6,24 C6,30.0751322 10.9248678,35 17,35 Z M19,21 L19,23 L20,22 L18,22 L19,23 L19,21 L18,22 L20,22 L19,21 Z M23,18 L23,30 L15,30 L15,18 L23,18 Z M20,26 L18,26 L19,27 L19,25 L18,26 L20,26 L19,25 L19,27 L20,26 Z M11,18 L15,18 L15,30 L11,30 L11,18 Z" id="形状结合" stroke="#A99159" stroke-width="2" fill="#A99159"></path>
            </g>
        </g>
    </g>
</svg>