<?xml version="1.0" encoding="utf-8"?>
<!-- Generator: Adobe Illustrator 19.0.0, SVG Export Plug-In . SVG Version: 6.00 Build 0)  -->
<svg version="1.1" id="图层_1" xmlns="http://www.w3.org/2000/svg" xmlns:xlink="http://www.w3.org/1999/xlink" x="0px" y="0px"
	 viewBox="0 0 64 64" style="enable-background:new 0 0 64 64;" xml:space="preserve">
<style type="text/css">
	.st0{fill:#00A4FF;}
</style>
<rect id="XMLID_7_" y="16" class="st0" width="64" height="2"/>
<rect id="XMLID_5_" x="14" y="28" class="st0" width="17" height="2"/>
<rect id="XMLID_4_" x="14" y="36" class="st0" width="17" height="2"/>
<rect id="XMLID_3_" x="14" y="44" class="st0" width="10" height="2"/>
<polygon id="XMLID_2_" class="st0" points="2,56 2,8 62,8 62,51 64,51 64,6 0,6 0,58 64,58 64,56 "/>
<polygon id="XMLID_43_" class="st0" points="46,41 46,43 35,43 35,31 46,31 46,33 48,33 48,31 48,29 46,29 35,29 34,29 33,29 33,45 
	34,45 35,45 48,45 48,44 48,43 48,41 "/>
<rect id="XMLID_1609_" x="43" y="36" class="st0" width="7" height="2"/>
<polygon id="XMLID_37_" class="st0" points="43,40 39,37 43,34 "/>
</svg>
