<?xml version="1.0" encoding="utf-8"?>
<!-- Generator: Adobe Illustrator 19.0.0, SVG Export Plug-In . SVG Version: 6.00 Build 0)  -->
<svg version="1.1" id="svgwrapper_svg" xmlns="http://www.w3.org/2000/svg" xmlns:xlink="http://www.w3.org/1999/xlink" x="0px"
	 y="0px" width="830px" height="360px" viewBox="351 -116 830 360" style="enable-background:new 351 -116 830 360;"
	 xml:space="preserve">
<style type="text/css">
	.st0{display:none;fill:none;stroke:#999999;}
	.st1{fill:#EAEBEC;}
	.st2{fill:#00A3FF;}
	.st3{fill:#00C5D9;}
	.st4{fill:#006EFF;}
	.st5{fill:#878787;}
	.st6{enable-background:new    ;}
	.st7{fill:#444444;}
	.st8{fill:#CEE3FF;}
	.st9{fill:#00A4FF;}
	.st10{fill:none;stroke:#BABABA;stroke-dasharray:5;}
	.st11{fill:none;stroke:#888888;}
	.st12{fill:#888888;}
	.st13{fill:none;stroke:#FF0000;stroke-width:15;stroke-opacity:0;}
	.st14{fill:none;}
	.st15{opacity:0.6;fill:#BBBBBB;enable-background:new    ;}
	.st16{fill:#FFFFFF;stroke:#E5E5E5;}
	.st17{fill:#CEE3FF;fill-opacity:0;}
</style>
<path class="st0" d="M1103-510L1103-510"/>
<g id="assistantgroup" transform="translate(0,0)">
</g>
<rect x="531.8" y="-103" class="st1" width="650" height="335"/>
<g transform="translate(0 0)">
	<g>
		<g>
			<path class="st2" d="M565.1-85.1c-1.1-1.1-2.6-1.7-4.1-1.7c-1.3,0-2.6,0.5-3.6,1.3c-0.5,0.4-0.9,0.8-1.5,1.4l-9,8.7
				c0.5,0.1,1.1,0.1,1.6,0.1h12.9c1.4-0.1,2.7-0.6,3.7-1.6C567.3-79.2,567.3-82.8,565.1-85.1L565.1-85.1L565.1-85.1z M563.4-78.6
				c-0.7,0.6-1.6,1-2.5,1h-8.6l5-4.8c0.2-0.2,0.8-0.7,1.2-1.1c0.7-0.6,1.6-1,2.5-1c1.9,0,3.5,1.6,3.5,3.5
				C564.4-80.1,564-79.2,563.4-78.6L563.4-78.6z"/>
			<path class="st3" d="M551-85.7c-1-0.8-2.2-1.2-3.5-1.2c-3.2,0-5.8,2.6-5.7,5.8c0,1.5,0.6,3,1.7,4.1c0.9,0.9,2,1.4,3.3,1.6
				l2.2-2.2h-1.3c-0.9,0-1.8-0.4-2.5-1c-1.4-1.4-1.4-3.6,0-5c0.7-0.7,1.5-1,2.5-1c0.9,0,1.7,0.4,2.4,1c0.5,0.4,1.5,1.3,1.9,1.7
				l1.6-1.6C552.8-84.2,551.7-85.2,551-85.7z"/>
			<path class="st4" d="M561.5-88.2c-1.4-4-5.8-6.1-9.9-4.7c-2.7,0.9-4.6,3.3-5,6.1c0.3-0.1,0.7-0.1,1-0.1c0.4,0,0.9,0,1.3,0.1l0,0
				c0.6-3,3.6-4.8,6.5-4.2c1.7,0.4,3.1,1.5,3.8,3c0.7-0.2,1.4-0.3,2.2-0.2C561.5-88.1,561.6-88.1,561.5-88.2z"/>
		</g>
		<g>
			<path d="M595.1-90.3h-7.3v1.1h2.2v3.9h-2.5v1h2.5v6.5h1.2v-6.5h2.8v6.4h2.2v-1h-1L595.1-90.3z M591.1-85.4v-3.8h2.8v3.9
				L591.1-85.4z"/>
			<rect x="574.7" y="-80.8" width="5.8" height="1.1"/>
			<path d="M570.8-82.7c0,1.6-0.1,3.2-0.5,4.7c0,0.1,0,0.2,0.1,0.2h1.1c0.3-1.4,0.4-2.9,0.3-4.4h1.5v3.3h-1c0,0-0.1,0-0.1,0.1l0.3,1
				h1.9v-12.4h-3.6V-82.7L570.8-82.7z M571.8-83.2v-2.5h1.5v2.5H571.8z M573.3-89.2v2.5h-1.5v-2.5H573.3z"/>
			<path d="M580.9-86h1.4v-1h-4.2c0.1-0.3,0.2-0.7,0.3-1h3.5v-1h-1l0.4-1.4c0-0.1,0-0.1-0.1-0.1h-0.9l-0.4,1.4h-1.3
				c0.1-0.6,0.2-1.2,0.3-1.9c0-0.1,0-0.1-0.1-0.1h-1c-0.1,0.7-0.2,1.4-0.4,2h-0.6l-0.5-1.3h-0.9c0,0-0.1,0-0.1,0.1l0.4,1.3h-1v1h2.4
				c-0.1,0.3-0.2,0.7-0.4,1h-2.3v1h1.7c-0.4,0.6-1,1.2-1.7,1.6v1c0,0.1,0,0.1,0.2,0c0.3-0.2,0.7-0.4,1-0.6h4v1.4h-3.2l0.1-0.8
				c0,0,0-0.1-0.1-0.1l0,0h-1l-0.1,1.8c0,0,0,0.1,0.1,0.1l0,0h5.4v2.6h-2.5c0,0-0.1,0-0.1,0.1l0.3,1h3.4v-4.6h-1.3v-1.9
				c0.4,0.4,0.9,0.8,1.5,1.1c0.2,0.1,0.2,0,0.2,0v-1.1C581.9-84.8,581.4-85.3,580.9-86z M579.6-86c0.2,0.4,0.5,0.8,0.8,1.1H577
				c0.3-0.3,0.5-0.7,0.8-1.1H579.6z"/>
			<path d="M588.5-81.5l-2,1.5v-6.9h-2.7v1.2h1.6v6.6l-0.6,0.5l0.6,0.8l3.2-2.4v-1.2v-0.1C588.6-81.5,588.5-81.6,588.5-81.5
				L588.5-81.5z"/>
			<path d="M585.5-88h1.3v-0.1l0,0l-1.6-2.5H584h-0.1c0,0,0,0,0,0.1L585.5-88z"/>
			<rect x="598.6" y="-90" width="9.2" height="1.2"/>
			<path d="M601.9-84.4h7.2v-1.2h-11.8v1.2h3.3l-2.4,6.3v0.1h10.3c0,0,0.1,0,0.1-0.1l0,0l0,0l-1.5-4h-1.3c0,0-0.1,0-0.1,0.1l0,0
				l1.1,2.8H600L601.9-84.4z"/>
		</g>
	</g>
	<rect x="619.8" y="-92.3" class="st5" width="1" height="16"/>
	<g class="st6">
		<path class="st7" d="M633.1-82.6c-0.1,1.9-0.4,3.4-0.9,4.7l-0.7-0.7c0.4-1.3,0.7-2.9,0.7-4.8v-6.8h3.6v11.1c0,0.7-0.4,1.1-1.1,1.1
			h-1l-0.2-0.9c0.3,0,0.6,0,0.9,0c0.3,0,0.5-0.2,0.5-0.6v-3.2h-1.8V-82.6z M634.8-86.9v-2.4h-1.7v2.4H634.8z M633.1-85.9v2.3h1.7
			v-2.3H633.1z M636.7-88.8h1.1c-0.2-0.4-0.4-0.9-0.7-1.3l0.9-0.3c0.3,0.4,0.5,1,0.7,1.6h0.7c0.2-0.7,0.3-1.3,0.4-2l1,0.1
			c-0.1,0.7-0.2,1.3-0.4,1.9h1.1c0.3-0.5,0.6-1.1,0.8-1.7l0.9,0.3c-0.3,0.6-0.5,1-0.8,1.4h1.2v0.8h-3.5c-0.1,0.3-0.3,0.7-0.5,1.1
			h4.4v0.9h-2.2c0.6,0.7,1.4,1.3,2.6,1.7l-0.4,0.9c-0.6-0.3-1.1-0.6-1.6-0.9v0.1c-0.1,0.8-0.2,1.5-0.3,2h1.5c0,2.3-0.2,3.6-0.5,3.9
			c-0.3,0.3-0.8,0.4-1.7,0.4h-0.6l-0.3-0.9h0.9c0.5,0,0.8-0.1,1-0.2c0.2-0.2,0.3-1,0.3-2.4h-5.2c0.3-0.8,0.5-1.5,0.6-2.1l0.9,0.1
			c-0.1,0.4-0.2,0.8-0.3,1.2h2.6c0.1-0.5,0.3-1,0.3-1.7h-3.7v-0.5c-0.4,0.4-0.9,0.7-1.4,1l-0.5-0.8c0.9-0.5,1.6-1.1,2.2-1.8h-1.7
			v-0.9h2.3c0.2-0.4,0.4-0.8,0.5-1.1h-2.4L636.7-88.8L636.7-88.8z M636.4-80.6h5v0.9h-5V-80.6z M642-84.7c-0.4-0.4-0.8-0.8-1.1-1.3
			h-1.8c-0.3,0.5-0.7,0.9-1.1,1.3H642z"/>
		<path class="st7" d="M645.4-86.5h2.9v6.2c0.4-0.4,0.9-0.8,1.4-1.4l0.3,1.1c-0.8,0.8-1.7,1.5-2.6,2.2l-0.4-0.9
			c0.2-0.2,0.3-0.4,0.3-0.6v-5.5h-1.9V-86.5z M647-90.6c0.9,0.7,1.7,1.4,2.3,2.2l-0.7,0.7c-0.6-0.7-1.4-1.4-2.3-2.2L647-90.6z
			 M649.6-85.3h2.1v-3.8h-1.9v-1h6.4v4.3c0,2.8,0.2,4.8,0.6,5.9c0.2,0.5,0.4,0.7,0.5,0.7c0,0,0.1-0.2,0.2-0.5c0-0.4,0.1-1,0.1-1.7
			l0.8,0.4c-0.1,1.4-0.2,2.2-0.3,2.6c-0.1,0.3-0.3,0.4-0.5,0.4c-0.5,0-1-0.3-1.4-1c-0.7-1.2-1-3.4-1-6.7V-89h-2.6v3.8h1.9v1h-1.9
			v6.4h-1v-6.4h-2.1v-1.1H649.6z"/>
		<path class="st7" d="M659.6-86.1h12.6v1h-6.7c-1.3,2.6-2.4,4.5-3.4,5.5c2.5-0.1,5-0.4,7.5-0.7c-0.5-0.9-1.1-1.8-1.7-2.8l0.8-0.5
			c1.3,1.9,2.3,3.6,3,5.1l-0.9,0.6c-0.2-0.5-0.5-1-0.7-1.5c-2.7,0.3-5.8,0.6-9.3,0.9l-0.3-1c0.1,0,0.1-0.1,0.2-0.1
			c0.9-0.7,2.1-2.5,3.6-5.5h-4.7L659.6-86.1L659.6-86.1z M660.9-90h10v1h-10V-90z"/>
		<path class="st7" d="M675.4-82.7c-0.1,2-0.4,3.6-1,4.8l-0.8-0.7c0.5-1.3,0.8-2.9,0.9-4.8v-6.7h4.1v10.9c0,0.9-0.4,1.3-1.2,1.3
			h-1.1l-0.2-0.9c0.5,0,0.9,0.1,1.1,0.1c0.4,0,0.5-0.3,0.5-0.8v-3.2L675.4-82.7L675.4-82.7z M677.6-86.9v-2.4h-2.3v2.4H677.6z
			 M675.4-86v2.3h2.3V-86H675.4z M680.7-84.1v6.2h-1v-12.3h5.7c0,1.7-0.1,2.9-0.3,3.4c-0.2,0.6-0.7,0.9-1.6,0.9h-1.1l-0.3-0.9h0.9
			c0.3,0,0.6,0,0.7-0.1c0.2-0.1,0.3-0.2,0.4-0.4c0.1-0.3,0.2-1,0.2-2.1h-3.7v4.2h4.8v0.9c-0.3,1.4-0.7,2.7-1.4,3.7
			c0.6,0.6,1.4,1.2,2.2,1.7l-0.5,0.9c-0.9-0.5-1.6-1.1-2.3-1.7c-0.6,0.7-1.3,1.3-2.2,1.7l-0.5-0.8c0.8-0.4,1.5-1,2-1.7
			c-0.9-1.1-1.5-2.3-1.8-3.7L680.7-84.1L680.7-84.1z M681.9-84.1c0.3,1.1,0.8,2,1.5,2.9c0.5-0.8,0.9-1.8,1.1-2.9H681.9z"/>
		<path class="st7" d="M692.7-90.7c-0.1,0.3-0.3,0.7-0.5,1.1h6.1v0.8c-0.9,1-2,1.9-3.3,2.6c1.6,0.7,3.4,1.1,5.3,1.3l-0.5,0.9
			c-2.2-0.3-4.2-0.8-5.9-1.7c-1.7,0.8-3.7,1.4-6,1.7l-0.5-1c2-0.3,3.8-0.7,5.3-1.3c-0.8-0.4-1.5-1-2.2-1.6c-0.6,0.5-1.1,0.9-1.8,1.3
			l-0.6-0.8c1.7-1,2.8-2.1,3.4-3.5L692.7-90.7z M694-84.6c0,0.5,0,1-0.1,1.6h4.9c0,2.4-0.2,3.8-0.6,4.2c-0.4,0.5-1.1,0.7-2.1,0.7
			c-0.2,0-0.8,0-1.6-0.1l-0.3-0.9l1.7,0.1c0.8,0,1.4-0.2,1.6-0.5s0.3-1.2,0.4-2.6h-4.1c-0.1,0.3-0.3,0.7-0.4,1.1
			c-0.7,1.3-2.4,2.3-4.9,3.1l-0.7-0.8c2.3-0.7,3.8-1.5,4.6-2.5c0.2-0.3,0.3-0.6,0.4-0.8h-4.2v-0.9h4.5c0.1-0.5,0.2-1,0.2-1.6h0.7
			V-84.6z M696.8-88.7h-5.3l-0.2,0.2c0.8,0.7,1.6,1.3,2.6,1.8C695-87.2,695.9-87.9,696.8-88.7z"/>
		<path class="st7" d="M702.5-90.2h11.1v1h-10.2v9.7H714v1h-11.5V-90.2L702.5-90.2z M705.4-87.9c1.3,1,2.5,2,3.6,2.9
			c0.8-1,1.5-2.2,2.1-3.5L712-88c-0.6,1.4-1.4,2.7-2.2,3.7c1.1,1,2.1,2,3,3l-0.8,0.8c-0.8-1-1.8-2-2.9-3c-1.2,1.3-2.7,2.3-4.3,3
			l-0.6-0.9c1.5-0.6,2.9-1.6,4.1-2.8c-1.2-1-2.4-2-3.7-3L705.4-87.9z"/>
		<path class="st7" d="M715.6-87h1.4v-3.7h1v3.7h1.3v1H718v4.2c0.4-0.2,0.8-0.4,1.3-0.6v1c-1.1,0.6-2.3,1.1-3.6,1.5l-0.3-1
			c0.6-0.1,1.1-0.3,1.5-0.4v-4.6h-1.4V-87H715.6z M723.5-80.8c-1.4,0.5-2.9,1-4.5,1.3l-0.2-1c1.6-0.3,3.2-0.7,4.7-1.3V-80.8z
			 M719.3-88.9h5c0-0.4,0-1,0-1.9h1c0,0.9,0,1.5,0,1.9h1.4c-0.2-0.6-0.4-1.1-0.6-1.4l0.9-0.2c0.2,0.5,0.4,1,0.5,1.6h0.7v1h-2.9
			c0,2.2,0.1,3.9,0.3,5.3c0.6-1.2,1-2.6,1.3-4.1l0.9,0.4c-0.5,2.1-1.1,3.9-1.9,5.3c0.3,1.3,0.6,2,1,2.1c0.3,0,0.5-0.7,0.8-2.1
			l0.8,0.6c-0.4,1.7-1,2.5-1.6,2.5c-0.5,0-0.9-0.4-1.2-1.1c-0.2-0.3-0.3-0.7-0.4-1c-0.7,0.9-1.5,1.6-2.3,2.1l-0.6-0.8
			c1.1-0.6,1.9-1.5,2.7-2.6c-0.1-0.3-0.1-0.7-0.2-1.2c-0.2-1.4-0.3-3.2-0.3-5.3h-5v-1.1H719.3z M719.9-86.5h3.6v3.9h-3.6V-86.5z
			 M722.5-83.4v-2.3h-1.8v2.3H722.5z"/>
	</g>
</g>
<rect x="542.4" y="-67.3" class="st8" width="224.1" height="290"/>
<g transform="translate(10 10)">
	<g transform="translate(0 2)">
		<g>
			<path class="st9" d="M549.9-70.3c-0.8,0-1.5,0.7-1.5,1.5c0,0.7,0.4,1.2,1,1.4v2.1h1v-2.1c0.6-0.2,1-0.8,1-1.4
				C551.4-69.6,550.7-70.3,549.9-70.3z"/>
			<circle class="st9" cx="549.9" cy="-56.8" r="1.5"/>
			<path class="st9" d="M545.7-67.1c-0.8-0.4-1.7-0.2-2.1,0.6c-0.4,0.7-0.2,1.6,0.6,2c0.1,0,0.2,0.1,0.2,0.1v2.1h1v-2.1
				c0.1,0,0.3-0.1,0.4-0.2l1.7,1l0.5-0.9l-1.7-0.9C546.5-66.1,546.2-66.8,545.7-67.1z"/>
			<ellipse class="st9" cx="554.9" cy="-59.8" rx="1.5" ry="1.5"/>
			<ellipse class="st9" cx="544.9" cy="-59.8" rx="1.5" ry="1.5"/>
			<path class="st9" d="M554.4-64.4v2.1h1v-2.1c0.1,0,0.2-0.1,0.2-0.1c0.7-0.4,1-1.3,0.5-2c-0.4-0.7-1.3-1-2-0.5
				c-0.6,0.3-0.9,1-0.7,1.7l-1.6,0.8l0.5,0.9l1.7-1C554.1-64.5,554.3-64.4,554.4-64.4z"/>
			<path class="st9" d="M549.9-64.3c-0.8,0-1.5,0.7-1.5,1.5c0,0.7,0.4,1.2,1,1.4v2.1h1v-2.1c0.6-0.2,1-0.8,1-1.4
				C551.4-63.6,550.7-64.3,549.9-64.3z"/>
		</g>
	</g>
	<g class="st6">
		<path class="st9" d="M567.3-66.3h1.3l3.9,10h-1.2l-1.1-2.8h-4.6l-1.1,2.8h-1.2L567.3-66.3z M566-60.1h3.9l-1.9-5h-0.1L566-60.1z"
			/>
		<path class="st9" d="M579.5-60.8v4.5h-1.1v-4.4c0-1.4-0.6-2.1-1.9-2.1c-0.5,0-0.9,0.2-1.3,0.5c-0.4,0.4-0.6,0.9-0.6,1.6v4.4h-1.1
			v-7.2h1.1v1.1c0.3-0.4,0.6-0.7,1-0.9s0.8-0.3,1.3-0.3C578.6-63.8,579.5-62.8,579.5-60.8z"/>
		<path class="st9" d="M580.5-63.6h1.2l2.2,5.7l2.1-5.7h1.2l-4,10H582l1.2-2.9L580.5-63.6z"/>
		<path class="st9" d="M593.5-63.1c0.6,0.4,0.9,1.1,1,2h-1.1c-0.1-0.6-0.3-1-0.7-1.3s-0.8-0.4-1.4-0.4c-0.7,0-1.3,0.3-1.7,0.8
			s-0.6,1.2-0.6,2.1c0,0.9,0.2,1.6,0.6,2.1c0.4,0.5,0.9,0.8,1.7,0.8c1.2,0,1.9-0.6,2.1-1.9h1.1c-0.2,0.9-0.5,1.6-1.1,2.1
			s-1.3,0.7-2.2,0.7c-1.1,0-1.9-0.4-2.5-1.1c-0.6-0.7-0.9-1.6-0.9-2.7c0-1.1,0.3-2,0.9-2.7c0.6-0.8,1.5-1.1,2.5-1.1
			C592.2-63.8,592.9-63.6,593.5-63.1z"/>
		<path class="st9" d="M601.3-63c0.4,0.5,0.6,1.1,0.6,2v4.6h-1v-1.2c-0.3,0.4-0.7,0.7-1.1,1c-0.6,0.3-1.1,0.4-1.8,0.4
			s-1.3-0.2-1.7-0.6c-0.4-0.4-0.7-0.9-0.7-1.5c0-0.9,0.4-1.6,1.1-2c0.6-0.4,1.4-0.5,2.4-0.5h1.7V-61c0-1.2-0.6-1.8-1.9-1.8
			c-0.6,0-1,0.1-1.4,0.4c-0.4,0.3-0.6,0.6-0.7,1.1h-1.1c0.1-0.8,0.5-1.4,1.1-1.8c0.5-0.4,1.2-0.6,2.2-0.6
			C600-63.8,600.8-63.5,601.3-63z M600.8-59.9h-1.7c-1.6,0-2.4,0.6-2.4,1.7c0,0.4,0.1,0.6,0.4,0.9c0.3,0.2,0.6,0.3,1.1,0.3
			c0.7,0,1.3-0.2,1.9-0.7c0.5-0.4,0.7-1,0.7-1.6V-59.9L600.8-59.9z"/>
		<path class="st9" d="M609.2-61.5h-1.1c-0.1-0.5-0.3-0.8-0.6-1s-0.8-0.3-1.3-0.3s-0.9,0.1-1.2,0.3s-0.5,0.4-0.5,0.8
			c0,0.3,0.2,0.6,0.6,0.8c0.2,0.1,0.7,0.3,1.5,0.5c0.9,0.2,1.5,0.4,1.9,0.7c0.6,0.4,0.9,0.9,0.9,1.5c0,1.5-1,2.2-3.1,2.2
			c-1.9,0-2.9-0.8-3.1-2.5h1.1c0.1,0.6,0.3,1,0.6,1.2s0.8,0.3,1.4,0.3c1.3,0,1.9-0.4,1.9-1.2c0-0.4-0.2-0.7-0.7-0.9
			c-0.2-0.1-0.7-0.3-1.5-0.5c-0.9-0.2-1.5-0.4-1.8-0.6c-0.6-0.3-0.8-0.8-0.8-1.4c0-0.6,0.3-1.1,0.8-1.5s1.2-0.5,2-0.5
			C608-63.8,609-63,609.2-61.5z"/>
		<path class="st9" d="M612.7-65.9v2.3h1.8v0.9h-1.8v4.6c0,0.3,0.1,0.5,0.2,0.6c0.1,0.1,0.3,0.2,0.5,0.2h0.9v0.9h-1.1
			c-0.6,0-1-0.2-1.3-0.5c-0.2-0.3-0.3-0.7-0.3-1.2v-4.6h-1.5v-0.9h1.5v-1.9L612.7-65.9z"/>
		<path class="st9" d="M622.5-67.7h1v2.4h2.9c0,4.6-0.1,7.4-0.2,8.5c-0.1,1.2-0.8,1.7-2.1,1.7l-1.1-0.1l-0.3-0.9
			c0.6,0,1,0.1,1.2,0.1c0.7,0,1.2-0.4,1.3-1.2s0.1-3.2,0.2-7.1h-1.9v0.3c0,4.2-1,7.3-2.7,9.2l-0.8-0.7c1.7-1.7,2.5-4.6,2.5-8.5v-0.3
			h-2.2v-1h2.2L622.5-67.7L622.5-67.7z M632.2-66v10.9h-1V-56h-2.5v0.9h-1V-66H632.2z M628.7-57h2.5v-8h-2.5V-57z"/>
		<path class="st9" d="M643.4-55.2c-0.5,0-1.3,0-2.5,0c-0.9,0-1.6-0.1-2.2-0.3c-0.5-0.2-1-0.5-1.5-1c-0.2-0.2-0.4-0.4-0.5-0.4
			c-0.3,0-0.9,0.6-1.6,1.9l-0.8-0.7c0.7-1.2,1.4-1.9,1.9-2.1v-4.3h-2V-63h2.9v5.2c0.1,0.1,0.2,0.2,0.3,0.3c0.3,0.4,0.7,0.7,1.1,0.9
			c0.4,0.2,1.1,0.3,1.9,0.3c1,0,1.9,0,2.8,0c0.4,0,1.1,0,2,0c0.8,0,1.3,0,1.6-0.1l-0.2,1L643.4-55.2L643.4-55.2z M635.3-67.5
			c1,0.7,1.8,1.5,2.4,2.2l-0.7,0.7c-0.6-0.7-1.4-1.5-2.4-2.2L635.3-67.5z M638.5-66.6h3.6v-1.1h0.9v1.1h3.5v0.9H643v1.2h3v3.6h-3
			v4.3h-1v-3.9c-0.7,1.3-1.8,2.3-3.3,3.2l-0.6-0.8c1.5-0.8,2.7-1.7,3.3-2.8H639v-3.6h3v-1.2h-3.6v-0.9H638.5z M642-61.9v-1.8h-2v1.8
			H642z M645.1-61.9v-1.8H643v1.8H645.1z M644.1-60.5c1,0.8,1.8,1.5,2.5,2.4l-0.7,0.7c-0.6-0.7-1.4-1.5-2.5-2.4L644.1-60.5z"/>
		<path class="st9" d="M657.4-55l-0.3-1h1.3c0.4,0,0.6-0.2,0.6-0.6v-9.7h-9.2V-55h-1v-12.2H660v10.9c0,0.9-0.4,1.3-1.2,1.3H657.4
			L657.4-55z M654.1-58.1c-0.4-0.6-0.8-1.3-1.3-2c-0.5,1.4-1.1,2.5-1.8,3.5l-0.6-0.8c0.7-1,1.3-2.3,1.8-3.7c-0.6-0.9-1.3-1.7-2-2.4
			l0.6-0.6c0.6,0.6,1.1,1.3,1.7,2c0.3-1,0.5-2.1,0.7-3.2l0.9,0.2c-0.2,1.4-0.5,2.8-0.9,3.9c0.6,0.8,1.2,1.6,1.7,2.4L654.1-58.1z
			 M658.2-57.5c-0.4-0.7-0.9-1.5-1.4-2.3c-0.6,1.4-1.2,2.5-2,3.5l-0.6-0.8c0.8-1.1,1.4-2.3,2-3.7c-0.7-1-1.3-1.9-1.9-2.6l0.6-0.6
			c0.6,0.6,1.1,1.3,1.7,2.1c0.3-1,0.5-2.1,0.7-3.4l1,0.2c-0.3,1.6-0.6,3-1,4.2c0.6,0.9,1.2,1.8,1.7,2.7L658.2-57.5z"/>
		<path class="st9" d="M665.6-67.4c-0.7,1.8-1.4,3.3-2.1,4.3c0.6-0.1,1.2-0.2,1.8-0.3l0.7-1.5l0.9,0.3c-1.2,2.4-2.2,4-3,5.1
			c1-0.2,2-0.5,3-0.9v0.9c-1.5,0.5-2.8,0.9-4.1,1l-0.3-0.9c0.2-0.1,0.3-0.2,0.4-0.3c0.5-0.6,1.2-1.5,1.9-2.8
			c-0.8,0.1-1.5,0.3-2.3,0.4l-0.3-0.9c0.2-0.1,0.3-0.2,0.4-0.4c0.7-1.3,1.4-2.7,1.9-4.4L665.6-67.4z M667.2-56.8
			c-1.3,0.5-2.9,0.9-4.7,1.3l-0.1-1c1.8-0.3,3.4-0.7,4.8-1.2V-56.8z M670.3-67.6c-0.1,0.3-0.2,0.7-0.4,1.1h3.8v0.7
			c-0.5,1.2-1.3,2.2-2.2,3.1c1,0.7,2.2,1.3,3.5,1.7l-0.6,0.8c-1.5-0.4-2.7-1.1-3.7-1.9c-1,0.8-2.2,1.4-3.6,1.9l-0.6-0.8
			c1.4-0.5,2.5-1.1,3.5-1.8c-0.5-0.5-1-1.1-1.4-1.7c-0.4,0.5-0.8,0.9-1.3,1.2l-0.6-0.8c1.2-1,2.1-2.3,2.5-3.8L670.3-67.6z
			 M673.8-60.2v5.2h-1v-0.6H669v0.6h-1v-5.2H673.8z M669-56.5h3.8v-2.7H669V-56.5z M669.2-65.2c0.4,0.7,0.9,1.3,1.5,1.9
			c0.8-0.7,1.4-1.5,1.9-2.3h-3.2L669.2-65.2z"/>
	</g>
</g>
<path class="st10" d="M774.8-67.3h397v290h-397V-67.3"/>
<g transform="translate(10 10)">
	<g class="st6">
		<path class="st7" d="M780.6-64.8h1v4.3h5.2v1h-5.2v6h6.4v1h-12.5v-1h5v-11.3H780.6z"/>
		<path class="st7" d="M790.2-61.1c0.8,0.6,1.5,1.2,2.1,1.8l-0.7,0.7c-0.5-0.5-1.2-1.1-2.2-1.8L790.2-61.1z M792.5-56.7
			c-0.6,1.7-1.3,3.3-2,4.6l-0.9-0.4c0.8-1.5,1.4-3,2-4.5L792.5-56.7z M790.4-64.5c0.8,0.6,1.6,1.1,2.2,1.7l-0.7,0.7
			c-0.5-0.6-1.3-1.2-2.2-1.8L790.4-64.5z M794.8-62.7c-0.3,0.4-0.5,0.8-0.8,1.1h7.1l-0.1,3.3h1.2v0.9H801c-0.1,1.4-0.1,2.3-0.1,2.5
			h1.1v0.9h-1.2c0,0.3-0.1,0.6-0.1,0.7c-0.1,0.4-0.4,0.8-0.8,1s-1,0.3-1.7,0.3H797l-0.3-0.9c0.7,0,1.1,0.1,1.4,0.1
			c0.4,0,0.7,0,1-0.1s0.5-0.3,0.7-0.6c0-0.1,0.1-0.2,0.1-0.4h-6.7c0.3-1.2,0.4-2.4,0.6-3.4h-1.4v-0.9h1.5c0.1-1.1,0.2-2.2,0.2-3.3
			c-0.3,0.4-0.6,0.7-0.9,1.1l-0.6-0.8c1-0.9,1.7-2.1,2.3-3.6l1,0.2c-0.1,0.3-0.3,0.7-0.4,1h6.5v0.9H794.8L794.8-62.7z M794.7-57.4
			c-0.1,1-0.3,1.8-0.4,2.5h5.6l0.1-2.5H794.7z M800.1-58.3l0.1-2.4H795c0,0.8-0.1,1.6-0.2,2.4H800.1z M796.7-57.2
			c0.7,0.5,1.3,1,1.8,1.5l-0.7,0.6c-0.4-0.5-1-1-1.7-1.5L796.7-57.2z M796.8-60.4c0.7,0.4,1.3,0.9,1.8,1.4l-0.6,0.6
			c-0.4-0.4-1-0.9-1.8-1.4L796.8-60.4z"/>
	</g>
</g>
<g id="Link33_1_" transform="translate(0,0)">
	<path class="st11" d="M952.3,70.2h40"/>
	<g transform="translate(0.5, 0)">
		<polygon class="st12" points="987.3,74.7 993.3,70.2 987.3,65.7 		"/>
	</g>
	<path class="st13" d="M952.3,70.2h40"/>
</g>
<g id="Link34_1_" transform="translate(0,0)">
	<path class="st11" d="M951.3,70.2h20v82h21"/>
	<g transform="translate(0.5, 0)">
		<polygon class="st12" points="987.3,156.7 993.3,152.2 987.3,147.7 		"/>
	</g>
	<path class="st13" d="M951.3,70.2h20"/>
	<path class="st13" d="M971.3,70.2v82"/>
	<path class="st13" d="M971.3,152.2h21"/>
</g>
<g id="Link66_1_" transform="translate(0,0)">
	<path class="st11" d="M952.3,70.2h19v-76h20"/>
	<g transform="translate(0.5, 0)">
		<polygon class="st12" points="986.3,-1.3 992.3,-5.8 986.3,-10.3 		"/>
	</g>
	<path class="st13" d="M952.3,70.2h19"/>
	<path class="st13" d="M971.3,70.2v-76"/>
	<path class="st13" d="M971.3-5.8h20"/>
</g>
<rect x="784.8" y="39.2" class="st14" width="167" height="62"/>
<rect x="796.8" y="51.2" class="st15" width="155" height="50"/>
<rect x="794.8" y="49.2" class="st16" width="155" height="50"/>
<rect x="791.8" y="46.2" class="st15" width="155" height="50"/>
<rect x="789.8" y="44.2" class="st16" width="155" height="50"/>
<rect x="786.8" y="41.2" class="st15" width="155" height="50"/>
<rect x="784.8" y="39.2" class="st16" width="155" height="50"/>
<rect x="569.8" y="25.2" class="st15" width="72" height="49"/>
<rect x="567.8" y="23.2" class="st16" width="72" height="49"/>
<g class="st6">
	<path class="st7" d="M600.2,41.7c0.7,0.5,1.2,1,1.7,1.5l-0.6,0.6h1.7v1h-4.3c0.1,1.7,0.3,3.1,0.5,4.1c0.1,0.3,0.2,0.6,0.3,1
		c0.7-1.1,1.3-2.4,1.7-3.9l0.9,0.4c-0.6,1.9-1.3,3.4-2.2,4.7c0.2,0.5,0.4,0.8,0.6,1.2c0.5,0.7,0.8,1,1.1,1s0.5-0.7,0.7-2.2l0.9,0.5
		c-0.3,1.9-0.8,2.8-1.4,2.8c-0.6,0-1.2-0.4-1.9-1.3c-0.3-0.3-0.5-0.7-0.7-1.2c-1,1.1-2.1,2-3.4,2.6l-0.6-0.8
		c1.4-0.6,2.6-1.6,3.6-2.8c-0.2-0.6-0.4-1.1-0.5-1.7c-0.3-1.1-0.5-2.6-0.6-4.4h-4.8v2.3h3.4c0,2.4-0.1,3.9-0.3,4.6
		c-0.2,0.6-0.6,0.9-1.3,0.9c-0.2,0-0.6,0-1.2-0.1l-0.3-0.9c0.5,0,1,0,1.4,0c0.3,0,0.5-0.2,0.6-0.6c0.1-0.4,0.1-1.4,0.2-3H593v0.4
		c-0.1,2.5-0.6,4.5-1.7,6l-0.8-0.7c0.9-1.3,1.4-3.1,1.4-5.3v-4.7h5.8c0-0.7,0-1.4,0-2.2h1c0,0.8,0,1.5,0,2.2h2.6
		c-0.4-0.5-1-1-1.7-1.6L600.2,41.7z"/>
	<path class="st7" d="M605.3,43.4h2v-1.6h1v1.6h1.5v0.9h-1.5v1.8h0.5c0.9-1.1,1.6-2.2,2.1-3.5l0.9,0.4c-0.4,1.2-1,2.2-1.7,3.2h1.5
		v0.9h-2.3c-0.4,0.5-0.9,0.9-1.5,1.4h3.1v6.2h-1v-0.6h-3v0.6h-1v-5.2c-0.5,0.3-0.9,0.5-1.2,0.6l-0.5-0.8c1.4-0.6,2.6-1.4,3.6-2.3
		h-3.2v-0.9h2.7v-1.8h-2L605.3,43.4L605.3,43.4z M610,50.7v-1.5h-3v1.5C607,50.7,610,50.7,610,50.7z M607,51.6v1.5h3v-1.5H607z
		 M612.3,42.4h4.5v0.8c-0.4,1.5-0.9,2.8-1.4,4.1c1,1.4,1.6,2.5,1.6,3.4c0,0.8-0.2,1.3-0.5,1.6c-0.4,0.3-1.2,0.5-2.3,0.5l-0.3-1
		c0.4,0,0.7,0.1,0.9,0.1c0.5,0,0.9-0.1,1-0.3s0.2-0.5,0.2-0.9c0-0.9-0.5-2-1.6-3.4c0.5-1,0.9-2.3,1.4-3.9h-2.5v11.3h-1L612.3,42.4
		L612.3,42.4z"/>
</g>
<rect x="569.8" y="-34.3" class="st15" width="72" height="49"/>
<rect x="567.8" y="-36.3" class="st16" width="72" height="49"/>
<g class="st6">
	<path class="st7" d="M592.6-17.7h1V-5h-1v-2.5c-1.1,0.5-2.4,1-3.8,1.4l-0.2-1c1.4-0.3,2.8-0.8,4.1-1.4v-4.4h-3.8v-1h3.8L592.6-17.7
		L592.6-17.7z M597-5.2c-0.9,0-1.3-0.4-1.3-1.3v-11.2h1v4.7c1.3-0.4,2.5-1,3.7-1.8L601-14c-1.5,0.9-2.9,1.5-4.2,2v5.4
		c0,0.4,0.2,0.5,0.5,0.5h1.9c0.3,0,0.6-0.1,0.8-0.3c0.1-0.2,0.2-1,0.3-2.4l1,0.3c-0.1,1.6-0.2,2.5-0.5,2.9c-0.3,0.3-0.7,0.5-1.3,0.5
		C599.3-5.2,597-5.2,597-5.2z"/>
	<path class="st7" d="M606.5-8.5c-0.9,1.3-2,2.3-3.3,3.2l-0.6-0.8c1.3-0.9,2.3-1.9,3.2-3.1L606.5-8.5z M608.6-17.8
		c0.2,0.5,0.4,1,0.6,1.6h5.7v0.9h-12.4v-0.9h5.6c-0.2-0.6-0.4-1-0.6-1.4L608.6-17.8z M604.4-14h8.9v3.9h-3.9v3.7
		c0,0.8-0.4,1.3-1.3,1.3h-1.5l-0.2-1c0.5,0,1,0.1,1.4,0.1s0.6-0.2,0.6-0.6v-3.5h-4V-14z M612.3-11v-2h-6.9v2H612.3z M611.8-9.1
		c1.3,1.1,2.4,2.1,3.2,3.2l-0.7,0.7c-0.8-1-1.8-2.1-3.1-3.2L611.8-9.1z"/>
</g>
<g>
	<rect x="569.8" y="143.7" class="st15" width="72" height="49"/>
	<rect x="567.8" y="141.7" class="st16" width="72" height="49"/>
	<g transform="translate(20 9)">
		<g class="st6">
			<path class="st7" d="M575.2,159.9c0.2,0.1,0.3,0.3,0.3,0.6c0,0.2-0.1,0.4-0.3,0.6c-0.2,0.2-0.4,0.2-0.6,0.2s-0.4-0.1-0.6-0.2
				c-0.2-0.2-0.3-0.4-0.3-0.6s0.1-0.4,0.3-0.6c0.2-0.2,0.4-0.2,0.6-0.2S575,159.7,575.2,159.9z"/>
			<path class="st7" d="M578.9,159.9c0.2,0.1,0.3,0.3,0.3,0.6c0,0.2-0.1,0.4-0.3,0.6c-0.2,0.2-0.4,0.2-0.6,0.2s-0.4-0.1-0.6-0.2
				c-0.2-0.2-0.3-0.4-0.3-0.6s0.1-0.4,0.3-0.6c0.2-0.2,0.4-0.2,0.6-0.2S578.7,159.7,578.9,159.9z"/>
			<path class="st7" d="M582.6,159.9c0.2,0.1,0.3,0.3,0.3,0.6c0,0.2-0.1,0.4-0.3,0.6c-0.2,0.2-0.4,0.2-0.6,0.2s-0.4-0.1-0.6-0.2
				c-0.2-0.2-0.3-0.4-0.3-0.6s0.1-0.4,0.3-0.6c0.2-0.2,0.4-0.2,0.6-0.2S582.4,159.7,582.6,159.9z"/>
			<path class="st7" d="M586.3,159.9c0.2,0.1,0.3,0.3,0.3,0.6c0,0.2-0.1,0.4-0.3,0.6c-0.2,0.2-0.4,0.2-0.6,0.2s-0.4-0.1-0.6-0.2
				c-0.2-0.2-0.3-0.4-0.3-0.6s0.1-0.4,0.3-0.6c0.2-0.2,0.4-0.2,0.6-0.2S586.1,159.7,586.3,159.9z"/>
			<path class="st7" d="M590,159.9c0.2,0.1,0.3,0.3,0.3,0.6c0,0.2-0.1,0.4-0.3,0.6c-0.2,0.2-0.4,0.2-0.6,0.2s-0.4-0.1-0.6-0.2
				c-0.2-0.2-0.3-0.4-0.3-0.6s0.1-0.4,0.3-0.6c0.2-0.2,0.4-0.2,0.6-0.2S589.8,159.7,590,159.9z"/>
			<path class="st7" d="M593.7,159.9c0.2,0.1,0.3,0.3,0.3,0.6c0,0.2-0.1,0.4-0.3,0.6c-0.2,0.2-0.4,0.2-0.6,0.2s-0.4-0.1-0.6-0.2
				c-0.2-0.2-0.3-0.4-0.3-0.6s0.1-0.4,0.3-0.6c0.2-0.2,0.4-0.2,0.6-0.2S593.5,159.7,593.7,159.9z"/>
		</g>
	</g>
</g>
<g>
	<rect x="996.6" y="47.7" class="st15" width="166" height="50"/>
	<rect x="994.6" y="45.7" class="st16" width="166" height="50"/>
	<g transform="translate(20 9)">
		<g>
			<title  xmlns="http://www.w3.org/2000/svg">Product Icons【32】</title>
			<g id="_编组__7_">
				<g id="_编组_2_7_">
					<path id="_复合路径__7_" class="st9" d="M1009.2,64.7h-0.6c-5.5,0-10-1.4-10-3v-6.3c2.2,1.3,5.8,2.3,10,2.3s7.9-0.9,10-2.2
						V60c0.7,0.2,1.4,0.5,2,0.8v-8.1c0-2.8-5.4-5-12-5s-12,2.2-12,5v18h2v-6.3c2,1.3,5.3,2.1,9.2,2.3c0.3-0.3,0.7-0.6,1.1-0.9
						C1008.9,65.4,1009,65,1009.2,64.7z M1008.6,49.7c5.5,0,10,1.3,10,3s-4.5,3-10,3s-10-1.4-10-3S1003.1,49.7,1008.6,49.7z
						 M998.6,70.7h-2c0,2.5,4.4,4.6,10.2,4.9c-0.4-0.6-0.8-1.3-1-2.1C1001.7,73.2,998.6,72,998.6,70.7z M1021.6,67.8v-0.1
						c0-2.8-2.2-5-5-5s-5,2.2-5,5v0.1c-2.1,0.6-3.4,2.8-2.8,4.9c0.5,1.7,2,2.9,3.8,3h8c2.2,0,4-1.8,4-4
						C1024.5,69.8,1023.3,68.3,1021.6,67.8z M1020.6,73.7h-8c-1.1,0-2-1-1.9-2.1c0-0.9,0.6-1.6,1.4-1.9l1.6-0.4v-1.6
						c0-0.1,0-0.1,0-0.2c0-1.7,1.3-3,3-3s3,1.3,3,3c0,0.1,0,0.1,0,0.2v1.6l1.6,0.4c1.1,0.3,1.7,1.4,1.4,2.5
						C1022.3,73.1,1021.5,73.7,1020.6,73.7z"/>
				</g>
			</g>
		</g>
		<g class="st6">
			<path class="st7" d="M1039.9,59.2c-0.7,0.4-1.4,0.8-2.1,1.1l-0.6-0.8c2.4-1.1,4.4-2.5,6-4.2h0.8c1.3,1.7,3.3,3,5.9,4.1l-0.6,0.8
				c-0.7-0.3-1.4-0.6-2.1-1V60h-3.2v2h5v0.9h-5v3.7h1.6c0.5-0.9,0.9-1.9,1.3-2.9l0.9,0.3c-0.4,1-0.7,1.9-1.2,2.6h2.9v1h-12v-1h2.9
				c-0.3-0.9-0.7-1.7-1.1-2.5l0.9-0.3c0.4,0.8,0.8,1.7,1.2,2.8h1.6v-3.7h-5V62h5v-2h-3.2L1039.9,59.2L1039.9,59.2z M1047,59.1
				c-1.4-0.8-2.5-1.8-3.4-2.8c-1.1,1.1-2.2,2-3.5,2.8H1047z"/>
			<path class="st7" d="M1051.4,55.8h6.7v0.9h-6.7V55.8z M1055.7,68l-0.3-0.9h1c0.3,0,0.4-0.1,0.4-0.3v-4.5h-4.4v5.8h-0.9v-6.6h6.1
				V67c0,0.7-0.3,1-1,1H1055.7L1055.7,68L1055.7,68z M1052.2,57.6h5v3h-5V57.6z M1053,64.6h1.8c0.3-0.6,0.5-1.2,0.7-1.9l0.7,0.2
				c-0.2,0.6-0.4,1.2-0.6,1.6h0.8v0.8h-1.3v2.5h-0.8v-2.5h-1.3L1053,64.6L1053,64.6z M1056.3,59.8v-1.4h-3.2v1.4H1056.3z
				 M1053.8,62.8c0.2,0.4,0.5,0.9,0.6,1.5l-0.6,0.2c-0.2-0.5-0.4-1-0.7-1.5L1053.8,62.8z M1058.4,57.7h2v-2.4h0.9v2.4h2v5.6h-2v3.1
				l1.3-0.3c-0.2-0.7-0.4-1.3-0.5-1.7l0.8-0.3c0.4,1.1,0.8,2.2,1.1,3.6l-0.9,0.2l-0.2-1c-1.4,0.4-2.9,0.7-4.5,0.9l-0.2-0.9
				c0.6-0.1,1.3-0.2,2.2-0.3v-3.3h-2L1058.4,57.7L1058.4,57.7z M1060.5,62.4v-3.8h-1.2v3.8H1060.5z M1062.5,62.4v-3.8h-1.2v3.8
				H1062.5z"/>
			<path class="st7" d="M1068.8,61.8l-0.3,0.8h2.9v0.9c-0.3,0.9-0.8,1.7-1.5,2.4c0.7,0.3,1.3,0.6,1.9,0.9l-0.5,0.8
				c-0.6-0.4-1.4-0.7-2.1-1.1c-0.9,0.6-2.1,1.2-3.5,1.6l-0.5-0.9c1.2-0.3,2.1-0.7,2.9-1.1l-1.9-0.8c0.4-0.6,0.7-1.2,1-1.7h-1.6v-0.9
				h2.1c0.2-0.7,0.3-0.9,0.3-0.9H1068.8z M1065.5,57.9h2.7v-2.7h0.9v2.7h2.5v0.9h-2.5V59c0.8,0.4,1.5,0.8,2.3,1.3l-0.5,0.8
				c-0.7-0.6-1.3-1-1.8-1.3v1.8h-0.9v-2.7c-0.5,1.1-1.3,2-2.5,2.9l-0.5-0.8c1.1-0.6,1.8-1.3,2.3-2.1h-2V57.9L1065.5,57.9z
				 M1066.6,55.5c0.4,0.6,0.7,1.1,0.9,1.7l-0.8,0.4c-0.3-0.7-0.6-1.3-1-1.8L1066.6,55.5z M1070.5,63.5h-2.4
				c-0.2,0.5-0.5,0.9-0.8,1.3c0.6,0.2,1.1,0.4,1.6,0.6C1069.7,64.9,1070.2,64.2,1070.5,63.5z M1071.6,55.8c-0.3,0.6-0.6,1.2-1.1,1.8
				l-0.8-0.4c0.4-0.6,0.8-1.2,1-1.8L1071.6,55.8z M1073.1,60.6c-0.2,0.6-0.5,1.2-0.8,1.7l-0.6-0.8c0.8-1.6,1.4-3.7,1.7-6.3l1,0.2
				c-0.1,0.6-0.2,1.2-0.3,2h3.7v1h-0.9c-0.1,2.3-0.5,4.3-1.2,6c0.7,1.2,1.6,2.2,2.6,2.8l-0.6,0.9c-1-0.7-1.8-1.6-2.5-2.8
				c-0.7,1.1-1.6,2.1-2.6,2.8l-0.5-0.9c1.1-0.8,2-1.7,2.6-2.9C1074,63.2,1073.5,62,1073.1,60.6z M1073.8,58.3
				c-0.1,0.3-0.2,0.6-0.2,0.7c0.3,1.6,0.8,3,1.4,4.2c0.5-1.4,0.8-3.1,0.9-4.9C1075.9,58.3,1073.8,58.3,1073.8,58.3z"/>
			<path class="st7" d="M1079.7,67.9l-0.2-1c0.4,0,0.8,0.1,1.1,0.1c0.4,0,0.5-0.2,0.5-0.6V63c-0.7,0.2-1.2,0.4-1.7,0.6l-0.3-1
				c0.6-0.1,1.3-0.3,1.9-0.6v-3.2h-1.7v-1h1.7v-2.6h1v2.6h1.3v1h-1.3v2.8c0.4-0.2,0.9-0.4,1.3-0.6v1c-0.3,0.1-0.7,0.4-1.3,0.6v4.1
				c0,0.8-0.4,1.2-1.2,1.2L1079.7,67.9L1079.7,67.9z M1085.1,61.8c-0.2,2.4-0.7,4.5-1.6,6.3l-0.8-0.7c1-1.8,1.5-4.2,1.5-7.2v-4.4
				h7.4v3.4h-2.6v1.7h3v0.9h-3v1.7h2.4v4.6h-0.9v-0.7h-3.8v0.7h-0.9v-4.6h2.3v-1.7H1085.1L1085.1,61.8L1085.1,61.8z M1087.9,59.2
				h-2.8v1.7h2.8V59.2z M1090.6,56.7h-5.4v1.6h5.4V56.7z M1086.5,66.5h3.8v-2.1h-3.8V66.5z"/>
			<path class="st7" d="M1100.1,55.1c0.3,0.4,0.5,0.9,0.7,1.4h5v1h-10.4v3.2c-0.1,3.1-0.5,5.6-1.4,7.4l-0.8-0.7
				c0.8-1.6,1.2-3.8,1.2-6.7v-4.2h5.3c-0.2-0.4-0.5-0.8-0.7-1.2L1100.1,55.1z M1100.1,58.1c-0.1,0.3-0.2,0.6-0.4,1.1h5.5v0.9h-5.8
				c-0.4,0.9-0.8,1.7-1.3,2.4h2.6v-1.7h1v1.7h3.1v0.9h-3.1V65h4.2v0.9h-4.2v2.2h-1v-2.2h-5.1V65h5.1v-1.6h-3.7l-0.2-0.9
				c0.5-0.7,1-1.5,1.5-2.4h-2.1v-0.9h2.5c0.2-0.4,0.3-0.9,0.5-1.3L1100.1,58.1z"/>
		</g>
	</g>
</g>
<rect x="997.6" y="127.7" class="st15" width="165" height="50"/>
<rect x="995.6" y="125.7" class="st16" width="165" height="50"/>
<g transform="translate(20 9)">
	<g>
		<title  xmlns="http://www.w3.org/2000/svg">Product Icons【32】</title>
		<g id="_编组__5_">
			<g id="_编组_2_5_">
				<path id="_复合路径__5_" class="st9" d="M1004.6,137.7v8l7,4l7-4v-8l-7-4L1004.6,137.7z M1010.6,146.8l-4-2.3v-3.7l4,2.3
					V146.8z M1016.6,144.5l-4,2.3v-3.7l4-2.3V144.5z M1011.6,141.4l-4.7-2.7l4.7-2.7l4.7,2.7L1011.6,141.4z M1023.6,148.5l-12,6.9
					l-12-6.9v-13.7l12-6.9l12,6.9l0,0l2-1.2l-14-8l-14,8v16l14,8l14-8v-12l-2,1.1V148.5L1023.6,148.5z"/>
			</g>
		</g>
	</g>
	<g class="st6">
		<path class="st7" d="M1038.3,139.9h12.6v1h-6.7c-1.3,2.6-2.4,4.5-3.4,5.5c2.5-0.1,5-0.4,7.5-0.7c-0.5-0.9-1.1-1.8-1.7-2.8l0.8-0.5
			c1.3,1.9,2.3,3.6,3,5.1l-0.9,0.6c-0.2-0.5-0.5-1-0.7-1.5c-2.7,0.3-5.8,0.6-9.3,0.9l-0.3-1c0.1,0,0.1-0.1,0.2-0.1
			c0.9-0.7,2.1-2.5,3.6-5.5h-4.7V139.9L1038.3,139.9L1038.3,139.9z M1039.7,136h10v1h-10V136z"/>
		<path class="st7" d="M1052.6,136.7h3.8c0.2-0.6,0.4-1,0.5-1.5l1,0.1c-0.2,0.5-0.3,1-0.4,1.4h7.2v1h-7.5c-0.5,1.2-1.2,2.3-1.9,3.3
			v7.1h-1v-5.9c-0.5,0.5-1,1-1.5,1.5l-0.6-0.8c1.7-1.5,3-3.2,3.9-5.2h-3.4L1052.6,136.7L1052.6,136.7z M1056.3,143.2h4.1v-1.3
			c0.8-0.5,1.6-1,2.3-1.6h-5.3v-0.9h6.6v0.9c-0.8,0.7-1.6,1.4-2.6,2v0.9h3.5v1h-3.5v2.6c0,0.8-0.4,1.2-1.2,1.2h-1.8l-0.3-1
			c0.7,0,1.2,0,1.6,0s0.6-0.2,0.6-0.6v-2.3h-4.1L1056.3,143.2L1056.3,143.2z"/>
		<path class="st7" d="M1067.4,140.3c-0.3,0.5-0.7,1.1-1.1,1.6l-0.3-1.1c1.1-1.6,1.9-3.5,2.4-5.5l0.9,0.4c-0.2,0.9-0.6,1.8-0.9,2.7
			v9.7h-1V140.3z M1069,139.6h2.5v5.9c0.3-0.3,0.7-0.8,1.1-1.3l0.2,1c-0.7,0.8-1.4,1.6-2.2,2.4l-0.4-0.9c0.2-0.2,0.3-0.4,0.3-0.5
			v-5.7h-1.6v-0.9H1069z M1070.3,135.8c0.8,0.7,1.5,1.4,2.1,2.1l-0.7,0.7c-0.5-0.7-1.2-1.4-2-2.2L1070.3,135.8z M1073.1,136.9h1.7
			v-1.6h0.9v1.6h1.6v0.8c0.3-0.6,0.5-1.1,0.8-1.7l0.8,0.4c-0.5,1.1-1,2.2-1.7,3.1h1.6v1h-2.3c-0.4,0.5-0.8,0.9-1.2,1.3h2.9v6.2h-1
			v-0.6h-2.6v0.6h-0.9v-5c-0.2,0.1-0.6,0.3-1,0.5l-0.5-0.8c1.2-0.6,2.3-1.3,3.2-2.3h-2.5v-0.9h2v-1.8h-1.7L1073.1,136.9
			L1073.1,136.9z M1077.2,144.2v-1.5h-2.6v1.5H1077.2z M1074.6,145v1.5h2.6V145H1074.6z M1076.1,139.6c0.4-0.6,0.8-1.2,1.1-1.8h-1.6
			v1.8H1076.1z"/>
	</g>
</g>
<rect x="786.8" y="120.7" class="st15" width="153" height="50"/>
<rect x="784.8" y="118.7" class="st16" width="153" height="50"/>
<g>
	<title  xmlns="http://www.w3.org/2000/svg">Product Icons【32】</title>
	<g id="_编组__4_">
		<g id="_编组_2_4_">
			<path id="_复合路径__4_" class="st9" d="M820.8,156.7c-7.2,0-13-5.8-13-13s5.8-13,13-13c6.4,0,11.9,4.7,12.9,11h2
				c-1.1-8.2-8.7-14-16.9-12.9c-8.2,1.1-14,8.7-12.9,16.9s8.7,14,16.9,12.9c6.7-0.9,12-6.2,12.9-12.9h-2
				C832.7,152,827.2,156.7,820.8,156.7z M827.8,143.8v-4.1l-2.7-1.6l-2,1.2l2.5,1.4l-4.7,2.7l-4.7-2.7l2.4-1.4l-2-1.2l-2.7,1.6v4.1
				l2,1.2v-2.2l4,2.3v3.7l-2-1.1v2.3l3,1.7l3-1.7v-2.3l-2,1.1v-3.7l4-2.3v2.2L827.8,143.8z"/>
		</g>
	</g>
</g>
<g class="st6">
	<path class="st7" d="M848.9,141.8l-0.2,2.3h3c0,2.3-0.1,3.9-0.2,4.6c-0.2,0.8-0.9,1.2-2.1,1.3c-0.2,0-0.5,0-1-0.1l-0.3-0.9
		c0.4,0,0.8,0.1,1,0.1c0.8,0,1.3-0.3,1.4-0.8s0.2-1.6,0.2-3.3h-3.1l0.4-4h2.5v-2.2h-2.8v-0.9h3.7v3.9L848.9,141.8L848.9,141.8z
		 M852.7,139.5h4.1c0.4-0.7,0.8-1.5,1.1-2.4l1,0.3c-0.3,0.7-0.7,1.4-1.1,2h1.8v5.6h-3v1.5h3.6v0.9h-3.6v2.7h-1v-2.7h-3.5v-0.9h3.5
		v-1.4h-2.9V139.5L852.7,139.5z M854.4,137.2c0.4,0.6,0.8,1.2,1.1,1.8l-0.9,0.4c-0.3-0.7-0.7-1.3-1.1-1.9L854.4,137.2z M853.6,141.9
		h2v-1.6h-2V141.9z M855.6,144.3v-1.5h-2v1.5H855.6z M856.6,140.4v1.6h2.1v-1.6H856.6z M858.7,144.3v-1.5h-2.1v1.5H858.7z"/>
	<path class="st7" d="M862.7,140c0,1.4-0.2,2.7-0.5,4l-0.8-0.2c0.3-1.2,0.5-2.5,0.5-3.8H862.7z M863.4,137.3h1V150h-1V137.3z
		 M865.4,139.6c0.3,0.7,0.6,1.5,0.8,2.4c0.5-1.2,0.8-2.5,0.8-3.9l0.9,0.1c0,0.6-0.1,1.1-0.2,1.7h2v-2.6h1v2.6h3.1v1h-3.1v3.4h2.8v1
		h-2.8v3.4h3.4v1h-8.5v-1h4v-3.4h-3.2v-1h3.2v-3.4h-2.2c-0.3,1-0.6,2-1.1,2.8l-0.8-0.7c0.2-0.3,0.3-0.6,0.4-0.9l-0.7,0.2
		c-0.2-0.9-0.5-1.7-0.8-2.5L865.4,139.6z"/>
	<path class="st7" d="M879.5,137.6c-0.4,1.1-0.8,2.2-1.4,3.1v9.4h-1v-7.9c-0.5,0.6-1,1.2-1.5,1.7l-0.3-1.1c1.5-1.7,2.5-3.6,3.2-5.8
		L879.5,137.6z M883.2,146.1h-2.5v0.7h-1v-7.5h3.4v-2h1v2h3.5v7.5h-1v-0.7h-2.5v3.9h-1v-3.9H883.2z M883.2,140.3h-2.5v2h2.5V140.3z
		 M880.8,143.2v2h2.5v-2H880.8z M886.7,142.3v-2h-2.5v2H886.7z M884.2,145.2h2.5v-2h-2.5V145.2z"/>
	<path class="st7" d="M892.6,137.6c-0.7,1.8-1.3,3.3-2,4.4c0.6-0.1,1.2-0.2,1.7-0.3l0.7-1.5l0.9,0.3c-1.1,2.4-2.1,4-2.8,5
		c0.8-0.2,1.6-0.5,2.4-0.8v0.9c-1.3,0.5-2.5,0.9-3.6,1l-0.3-0.9c0.2-0.1,0.3-0.2,0.5-0.3c0.5-0.6,1.1-1.5,1.8-2.9
		c-0.7,0.1-1.5,0.3-2.2,0.4l-0.3-0.9c0.2-0.1,0.3-0.2,0.4-0.4c0.7-1.3,1.3-2.8,1.8-4.4L892.6,137.6z M893.9,148.3
		c-1.2,0.5-2.6,0.9-4.1,1.3l-0.1-1c1.7-0.3,3.1-0.7,4.3-1.2v0.9H893.9z M894.9,143.8c-0.3,0.5-0.7,0.9-1,1.3l-0.3-1
		c1-1.2,1.7-2.6,2.2-4.1l0.8,0.4c-0.2,0.6-0.4,1.3-0.7,1.8v7.7H895v-6.1H894.9z M901.9,138.3v1.9h-1v-1.1h-6v1.3h-1v-2.1h3.5
		c-0.1-0.4-0.3-0.7-0.5-1.1l1.1-0.2c0.1,0.3,0.3,0.7,0.5,1.2h3.4V138.3z M897,140.6h4.8v0.9h-1.9l-0.3,1.3h2v7.1h-0.9v-0.6H898v0.6
		h-0.9v-7.1h1.5l0.3-1.3H897V140.6L897,140.6z M898,145.6h2.7v-1.9H898V145.6z M898,148.4h2.7v-2H898V148.4z"/>
</g>
<rect x="569.8" y="84.7" class="st15" width="72" height="49"/>
<rect x="567.8" y="82.7" class="st16" width="72" height="49"/>
<g class="st6">
	<path class="st7" d="M597.2,101.1c0.3,0.5,0.5,1.1,0.8,1.7h5.1v1h-10.4v3.1c-0.1,3.1-0.5,5.5-1.4,7.4l-0.9-0.8
		c0.8-1.6,1.2-3.8,1.2-6.6v-4.1h5.2c-0.2-0.5-0.5-1-0.8-1.5L597.2,101.1z"/>
	<path class="st7" d="M606.6,104.9c-0.2,1.4-0.5,2.8-1,4.1l-0.9-0.3c0.5-1.2,0.9-2.6,1.1-4L606.6,104.9z M607.6,101.5h1v4.3
		c0,3.8-0.9,6.6-2.7,8.4l-0.8-0.7c1.6-1.6,2.4-4.2,2.4-7.7v-4.3H607.6z M609.5,105c0.6,1.1,1.1,2.3,1.5,3.5l-0.8,0.4
		c-0.4-1.3-0.9-2.4-1.5-3.5L609.5,105z M611.5,101.8h1v11.9h-1V101.8z M613.4,104.9c0.6,1.1,1.1,2.2,1.5,3.5l-0.8,0.4
		c-0.4-1.3-1-2.5-1.5-3.5L613.4,104.9z M615.4,101.4h1v12.8h-1V101.4z"/>
</g>
<g>
	<rect x="996.6" y="-28.8" class="st15" width="165.9" height="50"/>
	<rect x="994.6" y="-30.8" class="st16" width="165.9" height="50"/>
	<g transform="translate(20 9)">
		<g>
			<path class="st9" d="M1010.6-1.8c-7.2,0-13-5.8-13-13s5.8-13,13-13c6.4,0,11.9,4.7,12.9,11h2c-1.1-8.2-8.7-14-16.9-12.9
				c-8.2,1.1-14,8.7-12.9,16.9s8.7,14,16.9,12.9c6.7-0.9,12-6.2,12.9-12.9h-2C1022.4-6.5,1017-1.8,1010.6-1.8z M1017.6-18.8l-7-4
				l-7,4v8l3.2,1.8c0.2-0.6,0.5-1.2,1-1.7l-2.2-1.3v-3.7l5,2.9l5-2.9v3.7l-4.1,2.4c-1-0.5-2.2-0.1-2.7,0.9s-0.1,2.2,0.9,2.7
				s2.2,0.1,2.7-0.9c0.1-0.3,0.2-0.6,0.2-0.9v-0.1l5-2.9V-18.8L1017.6-18.8z M1010.6-15.1l-4.7-2.7l4.7-2.7l4.7,2.7L1010.6-15.1z"/>
		</g>
		<g class="st6">
			<path class="st7" d="M1043.8-21.4c0.2,0.4,0.3,0.8,0.4,1.3h5.5v0.9h-12.4v-0.9h5.7c-0.1-0.3-0.3-0.7-0.5-1.1L1043.8-21.4z
				 M1046.3-8.5l-0.2-0.9h1.1c0.6,0,0.9-0.2,0.9-0.7v-3.8h-9v5.4h-1v-6.3h10.9v4.9c0,0.9-0.5,1.3-1.5,1.3h-1.2V-8.5z M1039.7-18.3
				h7.8v2.7h-7.8V-18.3z M1046.5-16.3v-1.1h-5.9v1.1H1046.5z M1040.8-12.9h5.5v2.8h-5.5V-12.9z M1045.4-10.9v-1.3h-3.7v1.3H1045.4z"
				/>
			<path class="st7" d="M1060.5-8.7c-0.5,0-1.3,0-2.5,0c-0.9,0-1.6-0.1-2.2-0.3c-0.5-0.2-1-0.5-1.5-1c-0.2-0.2-0.4-0.3-0.5-0.3
				c-0.3,0-0.9,0.6-1.6,1.9l-0.8-0.7c0.7-1.2,1.4-1.9,1.9-2.1v-4.3h-2v-0.9h2.9v5.2c0.1,0.1,0.2,0.2,0.3,0.3
				c0.3,0.4,0.7,0.7,1.1,0.9c0.4,0.2,1.1,0.3,1.9,0.3c1,0,1.9,0,2.8,0c0.4,0,1.1,0,2,0c0.8,0,1.3,0,1.6-0.1l-0.2,1L1060.5-8.7
				L1060.5-8.7z M1052.3-21c1,0.7,1.8,1.5,2.4,2.2l-0.7,0.7c-0.6-0.7-1.4-1.5-2.4-2.2L1052.3-21z M1055.6-20.1h3.6v-1.1h0.9v1.1h3.5
				v0.9h-3.5v1.2h3v3.6h-3v4.3h-0.9V-14c-0.7,1.3-1.8,2.3-3.3,3.2l-0.6-0.8c1.5-0.8,2.7-1.7,3.3-2.8h-2.4V-18h3v-1.2h-3.6V-20.1z
				 M1059.1-15.4v-1.8h-2.1v1.8H1059.1z M1062.2-15.4v-1.8h-2.1v1.8H1062.2z M1061.2-14c1,0.8,1.8,1.5,2.5,2.4l-0.7,0.7
				c-0.6-0.7-1.4-1.5-2.4-2.4L1061.2-14z"/>
			<path class="st7" d="M1068.5-20.8c-0.7,1.8-1.4,3.3-2.1,4.3c0.7-0.1,1.3-0.2,1.9-0.3l0.8-1.4l0.9,0.3c-1.2,2.1-2.2,3.7-3,4.6
				c1.1-0.2,2-0.4,2.9-0.7v0.9c-1.4,0.4-2.8,0.7-4.1,0.9l-0.3-0.9c0.2-0.1,0.3-0.1,0.5-0.3c0.5-0.5,1.1-1.4,1.9-2.5l-2.2,0.3
				l-0.3-0.9c0.2-0.1,0.3-0.2,0.4-0.4c0.7-1.2,1.4-2.7,1.9-4.3L1068.5-20.8z M1069.6-10.7c-1.2,0.6-2.6,1.1-4.2,1.5l-0.1-1
				c1.7-0.4,3.1-0.8,4.3-1.5L1069.6-10.7L1069.6-10.7z M1070.3-17.3h5.1c0.4-0.7,0.7-1.5,1-2.4l0.9,0.2c-0.3,0.8-0.6,1.6-1,2.2h1.2
				v0.9h-4.7c0,0.4-0.1,0.8-0.2,1.2h5.2v0.9h-5.4l-0.2,1.1h4.7v0.8c-0.4,0.8-0.9,1.6-1.7,2.2c0.8,0.4,1.8,0.7,2.8,0.9l-0.4,0.9
				c-1.3-0.3-2.3-0.7-3.2-1.2c-0.8,0.5-1.9,0.9-3,1.2l-0.5-0.8c1-0.2,1.9-0.5,2.7-0.9c-0.7-0.5-1.2-1.1-1.7-1.9l-0.1,0.3
				c-0.5,1.2-1.3,2.2-2.3,3.2l-0.6-0.8c0.9-0.8,1.6-1.8,2.1-2.8c0.2-0.6,0.5-1.3,0.6-2.1h-1.8v-0.9h2l0.2-1.2h-1.7V-17.3
				L1070.3-17.3z M1077.7-20.4c-1.9,0.6-4.4,0.9-7.5,0.9l-0.3-0.9c2.9,0,5.4-0.3,7.4-0.8L1077.7-20.4z M1071.3-19.3
				c0.3,0.5,0.5,1,0.8,1.6l-0.8,0.3c-0.2-0.6-0.5-1.1-0.8-1.7L1071.3-19.3z M1076-12.4h-3.3c0.5,0.7,1,1.2,1.7,1.7
				C1075.1-11.2,1075.6-11.8,1076-12.4z M1073.8-19.4c0.3,0.5,0.5,1.1,0.8,1.7l-0.8,0.3c-0.3-0.7-0.5-1.2-0.8-1.7L1073.8-19.4z"/>
			<path class="st7" d="M1079.7-19.8h3.8c0.2-0.6,0.4-1,0.5-1.5l1,0.1c-0.2,0.5-0.3,1-0.4,1.4h7.2v1h-7.5c-0.5,1.2-1.2,2.3-1.9,3.3
				v7.1h-1v-5.9c-0.5,0.5-1,1-1.5,1.5l-0.6-0.8c1.7-1.5,3-3.2,3.9-5.2h-3.4L1079.7-19.8L1079.7-19.8z M1083.3-13.3h4.1v-1.3
				c0.8-0.5,1.6-1,2.3-1.6h-5.3v-0.9h6.6v0.9c-0.8,0.7-1.6,1.4-2.6,2v0.9h3.5v1h-3.5v2.6c0,0.8-0.4,1.2-1.2,1.2h-1.8l-0.3-1
				c0.7,0,1.2,0,1.6,0s0.6-0.2,0.6-0.6v-2.3h-4.1L1083.3-13.3L1083.3-13.3z"/>
		</g>
	</g>
</g>
<g id="Textbasic68_2_" transform="translate(188.6015625,167.06666564941406)">
	<rect x="336.5" y="-199.3" class="st17" width="38.1" height="20"/>
	<g transform="translate(0 0)">
		<g class="st6">
			<path class="st5" d="M340.8-193.9v8.6h-1v-7.4c-0.5,0.5-1.2,0.9-2,1.2v-1c0.4-0.1,0.8-0.3,1.2-0.5s0.7-0.5,1-0.9L340.8-193.9
				L340.8-193.9L340.8-193.9z"/>
			<path class="st5" d="M345.8-186.6c0.1,0.1,0.2,0.3,0.2,0.5s-0.1,0.4-0.2,0.5c-0.2,0.1-0.3,0.2-0.5,0.2s-0.4-0.1-0.5-0.2
				s-0.2-0.3-0.2-0.5s0.1-0.4,0.2-0.5c0.1-0.1,0.3-0.2,0.5-0.2C345.5-186.8,345.7-186.7,345.8-186.6z"/>
			<path class="st5" d="M351.2-193.9v8.6h-1v-7.4c-0.5,0.5-1.2,0.9-2,1.2v-1c0.4-0.1,0.8-0.3,1.2-0.5s0.7-0.5,1-0.9L351.2-193.9
				L351.2-193.9L351.2-193.9z"/>
			<path class="st5" d="M356.2-186.6c0.1,0.1,0.2,0.3,0.2,0.5s-0.1,0.4-0.2,0.5c-0.2,0.1-0.3,0.2-0.5,0.2s-0.4-0.1-0.5-0.2
				s-0.2-0.3-0.2-0.5s0.1-0.4,0.2-0.5c0.1-0.1,0.3-0.2,0.5-0.2C355.9-186.8,356-186.7,356.2-186.6z"/>
			<path class="st5" d="M361.6-193.9v8.6h-1v-7.4c-0.5,0.5-1.2,0.9-2,1.2v-1c0.4-0.1,0.8-0.3,1.2-0.5s0.7-0.5,1-0.9L361.6-193.9
				L361.6-193.9L361.6-193.9z"/>
			<path class="st5" d="M366.5-186.6c0.1,0.1,0.2,0.3,0.2,0.5s-0.1,0.4-0.2,0.5c-0.2,0.1-0.3,0.2-0.5,0.2s-0.4-0.1-0.5-0.2
				s-0.2-0.3-0.2-0.5s0.1-0.4,0.2-0.5c0.1-0.1,0.3-0.2,0.5-0.2C366.2-186.8,366.4-186.7,366.5-186.6z"/>
			<path class="st5" d="M371.9-193.9v8.6h-1v-7.4c-0.5,0.5-1.2,0.9-2,1.2v-1c0.4-0.1,0.8-0.3,1.2-0.5s0.7-0.5,1-0.9L371.9-193.9
				L371.9-193.9L371.9-193.9z"/>
		</g>
	</g>
</g>
<g id="Textbasic69_2_" transform="translate(188.6015625,291.06666564941406)">
	<rect x="336.8" y="-201.7" class="st17" width="38.1" height="20"/>
	<g transform="translate(0 0)">
		<g class="st6">
			<path class="st5" d="M341.2-196.2v8.6h-1v-7.4c-0.5,0.5-1.2,0.9-2,1.2v-1c0.4-0.1,0.8-0.3,1.2-0.5s0.7-0.5,1-0.9L341.2-196.2
				L341.2-196.2L341.2-196.2z"/>
			<path class="st5" d="M346.1-188.9c0.1,0.1,0.2,0.3,0.2,0.5s-0.1,0.4-0.2,0.5c-0.2,0.1-0.3,0.2-0.5,0.2s-0.4-0.1-0.5-0.2
				s-0.2-0.3-0.2-0.5s0.1-0.4,0.2-0.5c0.1-0.1,0.3-0.2,0.5-0.2S346-189,346.1-188.9z"/>
			<path class="st5" d="M351.5-196.2v8.6h-1v-7.4c-0.5,0.5-1.2,0.9-2,1.2v-1c0.4-0.1,0.8-0.3,1.2-0.5s0.7-0.5,1-0.9L351.5-196.2
				L351.5-196.2L351.5-196.2z"/>
			<path class="st5" d="M356.5-188.9c0.1,0.1,0.2,0.3,0.2,0.5s-0.1,0.4-0.2,0.5c-0.2,0.1-0.3,0.2-0.5,0.2s-0.4-0.1-0.5-0.2
				s-0.2-0.3-0.2-0.5s0.1-0.4,0.2-0.5c0.1-0.1,0.3-0.2,0.5-0.2S356.4-189,356.5-188.9z"/>
			<path class="st5" d="M361.9-196.2v8.6h-1v-7.4c-0.5,0.5-1.2,0.9-2,1.2v-1c0.4-0.1,0.8-0.3,1.2-0.5s0.7-0.5,1-0.9L361.9-196.2
				L361.9-196.2L361.9-196.2z"/>
			<path class="st5" d="M366.9-188.9c0.1,0.1,0.2,0.3,0.2,0.5s-0.1,0.4-0.2,0.5c-0.2,0.1-0.3,0.2-0.5,0.2s-0.4-0.1-0.5-0.2
				s-0.2-0.3-0.2-0.5s0.1-0.4,0.2-0.5c0.1-0.1,0.3-0.2,0.5-0.2S366.7-189,366.9-188.9z"/>
			<path class="st5" d="M372.3-196.2v8.6h-1v-7.4c-0.5,0.5-1.2,0.9-2,1.2v-1c0.4-0.1,0.8-0.3,1.2-0.5s0.7-0.5,1-0.9L372.3-196.2
				L372.3-196.2L372.3-196.2z"/>
		</g>
	</g>
</g>
<g id="Textbasic69_4_" transform="translate(188.6015625,291.06666564941406)">
	<rect x="336.8" y="-136.7" class="st17" width="38.1" height="20"/>
	<g transform="translate(0 0)">
		<g class="st6">
			<path class="st5" d="M341.2-131.2v8.6h-1v-7.4c-0.5,0.5-1.2,0.9-2,1.2v-1c0.4-0.1,0.8-0.3,1.2-0.5s0.7-0.5,1-0.9L341.2-131.2
				L341.2-131.2L341.2-131.2z"/>
			<path class="st5" d="M346.1-123.9c0.1,0.1,0.2,0.3,0.2,0.5s-0.1,0.4-0.2,0.5c-0.2,0.1-0.3,0.2-0.5,0.2s-0.4-0.1-0.5-0.2
				c-0.1-0.1-0.2-0.3-0.2-0.5s0.1-0.4,0.2-0.5c0.1-0.1,0.3-0.2,0.5-0.2C345.8-124.1,346-124,346.1-123.9z"/>
			<path class="st5" d="M351.5-131.2v8.6h-1v-7.4c-0.5,0.5-1.2,0.9-2,1.2v-1c0.4-0.1,0.8-0.3,1.2-0.5s0.7-0.5,1-0.9L351.5-131.2
				L351.5-131.2L351.5-131.2z"/>
			<path class="st5" d="M356.5-123.9c0.1,0.1,0.2,0.3,0.2,0.5s-0.1,0.4-0.2,0.5c-0.2,0.1-0.3,0.2-0.5,0.2s-0.4-0.1-0.5-0.2
				c-0.1-0.1-0.2-0.3-0.2-0.5s0.1-0.4,0.2-0.5c0.1-0.1,0.3-0.2,0.5-0.2C356.2-124.1,356.4-124,356.5-123.9z"/>
			<path class="st5" d="M361.9-131.2v8.6h-1v-7.4c-0.5,0.5-1.2,0.9-2,1.2v-1c0.4-0.1,0.8-0.3,1.2-0.5s0.7-0.5,1-0.9L361.9-131.2
				L361.9-131.2L361.9-131.2z"/>
			<path class="st5" d="M366.9-123.9c0.1,0.1,0.2,0.3,0.2,0.5s-0.1,0.4-0.2,0.5c-0.2,0.1-0.3,0.2-0.5,0.2s-0.4-0.1-0.5-0.2
				c-0.1-0.1-0.2-0.3-0.2-0.5s0.1-0.4,0.2-0.5c0.1-0.1,0.3-0.2,0.5-0.2S366.7-124,366.9-123.9z"/>
			<path class="st5" d="M372.3-131.2v8.6h-1v-7.4c-0.5,0.5-1.2,0.9-2,1.2v-1c0.4-0.1,0.8-0.3,1.2-0.5s0.7-0.5,1-0.9L372.3-131.2
				L372.3-131.2L372.3-131.2z"/>
		</g>
	</g>
</g>
<g id="Textbasic70_2_" transform="translate(188.6015625,227.5)">
	<rect x="336.5" y="-194.3" class="st17" width="38.1" height="20"/>
	<g transform="translate(0 0)">
		<g class="st6">
			<path class="st5" d="M340.8-188.9v8.6h-1v-7.4c-0.5,0.5-1.2,0.9-2,1.2v-1c0.4-0.1,0.8-0.3,1.2-0.5s0.7-0.5,1-0.9L340.8-188.9
				L340.8-188.9L340.8-188.9z"/>
			<path class="st5" d="M345.8-181.6c0.1,0.1,0.2,0.3,0.2,0.5s-0.1,0.4-0.2,0.5c-0.2,0.1-0.3,0.2-0.5,0.2s-0.4-0.1-0.5-0.2
				s-0.2-0.3-0.2-0.5s0.1-0.4,0.2-0.5c0.1-0.1,0.3-0.2,0.5-0.2C345.5-181.8,345.7-181.7,345.8-181.6z"/>
			<path class="st5" d="M351.2-188.9v8.6h-1v-7.4c-0.5,0.5-1.2,0.9-2,1.2v-1c0.4-0.1,0.8-0.3,1.2-0.5s0.7-0.5,1-0.9L351.2-188.9
				L351.2-188.9L351.2-188.9z"/>
			<path class="st5" d="M356.2-181.6c0.1,0.1,0.2,0.3,0.2,0.5s-0.1,0.4-0.2,0.5c-0.2,0.1-0.3,0.2-0.5,0.2s-0.4-0.1-0.5-0.2
				s-0.2-0.3-0.2-0.5s0.1-0.4,0.2-0.5c0.1-0.1,0.3-0.2,0.5-0.2C355.9-181.8,356-181.7,356.2-181.6z"/>
			<path class="st5" d="M361.6-188.9v8.6h-1v-7.4c-0.5,0.5-1.2,0.9-2,1.2v-1c0.4-0.1,0.8-0.3,1.2-0.5s0.7-0.5,1-0.9L361.6-188.9
				L361.6-188.9L361.6-188.9z"/>
			<path class="st5" d="M366.5-181.6c0.1,0.1,0.2,0.3,0.2,0.5s-0.1,0.4-0.2,0.5c-0.2,0.1-0.3,0.2-0.5,0.2s-0.4-0.1-0.5-0.2
				s-0.2-0.3-0.2-0.5s0.1-0.4,0.2-0.5c0.1-0.1,0.3-0.2,0.5-0.2C366.2-181.8,366.4-181.7,366.5-181.6z"/>
			<path class="st5" d="M371.9-188.9v8.6h-1v-7.4c-0.5,0.5-1.2,0.9-2,1.2v-1c0.4-0.1,0.8-0.3,1.2-0.5s0.7-0.5,1-0.9L371.9-188.9
				L371.9-188.9L371.9-188.9z"/>
		</g>
	</g>
</g>
<g id="Link45_2_" transform="translate(0,0)">
	<path class="st11" d="M646.7-6.9h47.6v80.3h87.5"/>
	<g transform="translate(0.5, 0)">
		<polygon class="st12" points="777.2,77.5 782.6,73.4 777.2,69.4 		"/>
	</g>
	<path class="st13" d="M646.7-6.9h47.6"/>
	<path class="st13" d="M694.3-6.9v80.3"/>
	<path class="st13" d="M694.3,73.4h87.5"/>
</g>
<g id="Link46_2_" transform="translate(0,0)">
	<path class="st11" d="M645.8,50.9h48.5v22.6h87.5"/>
	<g transform="translate(0.5, 0)">
		<polygon class="st12" points="777.2,77.5 782.6,73.4 777.2,69.4 		"/>
	</g>
	<path class="st13" d="M645.8,50.9h48.5"/>
	<path class="st13" d="M694.3,50.9v22.6"/>
	<path class="st13" d="M694.3,73.4h87.5"/>
</g>
<g id="Link51_2_" transform="translate(0,0)">
	<path class="st11" d="M645.8,166.5h48.5V73.4h87.5"/>
	<g transform="translate(0.5, 0)">
		<polygon class="st12" points="777.2,77.5 782.6,73.4 777.2,69.4 		"/>
	</g>
	<path class="st13" d="M645.8,166.5h48.5"/>
	<path class="st13" d="M694.3,166.5V73.4"/>
	<path class="st13" d="M694.3,73.4h87.5"/>
</g>
<g id="Link63_2_" transform="translate(0,0)">
	<path class="st11" d="M645.8,110.4h48.5v-37h87.5"/>
	<g transform="translate(0.5, 0)">
		<polygon class="st12" points="777.2,77.5 782.6,73.4 777.2,69.4 		"/>
	</g>
	<path class="st13" d="M645.8,110.4h48.5"/>
	<path class="st13" d="M694.3,110.4v-37"/>
	<path class="st13" d="M694.3,73.4h87.5"/>
</g>
<g id="Textbasic60_2_" transform="translate(314,271.06666564941406)">
	<rect x="383.1" y="-221.2" class="st17" width="65" height="18"/>
	<g transform="translate(0 0)">
		<g class="st6">
			<path class="st5" d="M383.7-213.8h9.7v0.8h-5.2c-1,2-1.9,3.4-2.6,4.3c1.9-0.1,3.9-0.3,5.8-0.6c-0.4-0.7-0.8-1.4-1.3-2.1l0.6-0.4
				c1,1.5,1.8,2.8,2.3,3.9l-0.7,0.5c-0.2-0.4-0.4-0.8-0.6-1.1c-2.1,0.3-4.5,0.5-7.2,0.7l-0.2-0.8c0,0,0.1,0,0.2-0.1
				c0.7-0.5,1.6-1.9,2.8-4.2h-3.6V-213.8L383.7-213.8L383.7-213.8z M384.8-216.8h7.7v0.8h-7.7V-216.8L384.8-216.8z"/>
			<path class="st5" d="M396.8-209.9l-0.5-0.6c1.2-0.8,2-1.8,2.4-3c0.1-0.4,0.2-0.9,0.3-1.4h-3.1v7.4h-0.8v-8.2h4
				c0.1-0.6,0.1-1.2,0.1-1.8h0.8c0,0.5,0,1.1-0.1,1.8h3.8v7c0,0.7-0.3,1.1-1,1.1H401l-0.2-0.8h1.7c0.3,0,0.5-0.2,0.5-0.5v-6h-3.1
				c-0.1,0.5-0.1,0.8-0.2,1.2c1.1,1,2,2.1,2.8,3.1l-0.6,0.6c-0.6-0.9-1.4-1.9-2.5-3C398.9-211.8,398.1-210.8,396.8-209.9z"/>
			<path class="st5" d="M405.3-214.2h3.1c0.1-0.4,0.2-0.8,0.3-1.3H406v-0.7h2.9c0.1-0.3,0.2-0.7,0.3-1.3l0.8,0.1l-0.2,1.2h4.7v0.7
				h-4.8c-0.1,0.4-0.2,0.9-0.3,1.3h5.8v0.8h-6c-0.1,0.3-0.3,0.8-0.5,1.4h5.2v0.7c-0.5,0.8-1.3,1.6-2.4,2.4c0.6,0.2,1.2,0.5,1.9,0.8
				l-0.4,0.7c-1.6-0.8-3.3-1.4-5-1.9l0.4-0.6c0.7,0.2,1.5,0.4,2.3,0.7c1-0.6,1.8-1.3,2.4-2.1h-5.3c0.3-0.8,0.5-1.5,0.7-2.2h-2.9
				L405.3-214.2L405.3-214.2L405.3-214.2z"/>
			<path class="st5" d="M418.7-217.2c-0.5,1.4-1.1,2.5-1.7,3.4c0.4,0,0.9-0.1,1.5-0.2l0.6-1.2l0.7,0.3c-0.9,1.8-1.7,3.1-2.4,3.9
				c0.8-0.2,1.6-0.4,2.3-0.6v0.7c-1.2,0.4-2.2,0.6-3.3,0.8l-0.2-0.7c0.1-0.1,0.3-0.1,0.4-0.2c0.4-0.4,0.9-1.1,1.5-2.1
				c-0.4,0.1-1,0.1-1.8,0.2l-0.2-0.7c0.1,0,0.2-0.1,0.3-0.3c0.6-1,1.1-2.1,1.5-3.4L418.7-217.2z M419.9-208.9
				c-1.1,0.4-2.3,0.8-3.6,1l-0.1-0.8c1.4-0.2,2.6-0.6,3.7-1L419.9-208.9L419.9-208.9z M425.2-215.5l0.1,0.7l-2.8,0.4
				c0,0.5,0.1,1,0.1,1.5l2.9-0.5l0.1,0.7l-2.9,0.5c0,0.2,0,0.4,0.1,0.6c0.1,0.5,0.2,1,0.4,1.5c0.6-0.6,1.1-1.2,1.6-1.8l0.6,0.4
				c-0.6,0.9-1.2,1.6-1.9,2.1l0.1,0.2c0.4,0.5,0.7,0.8,1,0.8s0.5-0.6,0.7-1.7l0.7,0.4c-0.3,1.4-0.7,2.2-1.3,2.2c-0.5,0-1-0.4-1.5-1
				c-0.1-0.2-0.2-0.3-0.2-0.4c-0.8,0.6-1.7,1-2.6,1.3l-0.5-0.6c1-0.3,1.9-0.8,2.7-1.4c-0.2-0.5-0.4-1-0.5-1.6c0-0.2-0.1-0.5-0.2-0.8
				l-1.9,0.3l-0.1-0.7l2-0.3c0-0.5-0.1-1-0.1-1.5l-1.6,0.2l-0.1-0.7l1.7-0.2v-2.4h0.8v2.3L425.2-215.5z M423.7-217.5
				c0.5,0.5,1,1,1.3,1.3l-0.6,0.4c-0.3-0.4-0.7-0.9-1.3-1.4L423.7-217.5z"/>
			<path class="st5" d="M428.3-213.6c-0.4,0.5-0.8,1-1.2,1.4l-0.2-0.8c1.2-1.3,2-2.8,2.5-4.4l0.7,0.3c-0.3,0.9-0.6,1.7-1.1,2.4v7.2
				h-0.8v-6.1H428.3z M430.2-216.1h2.1l0.3-1.4l0.8,0.1l-0.3,1.3h3.3v0.8h-3.5c-0.1,0.5-0.3,0.9-0.4,1.3h4.3v0.7h-4.5
				c-0.1,0.4-0.3,0.8-0.5,1.4h4.4v0.7c-0.5,0.8-1.2,1.5-2.2,2.3c0.5,0.3,1,0.6,1.5,0.9l-0.4,0.7c-1.3-0.9-2.7-1.6-4.1-2.1l0.4-0.6
				c0.7,0.3,1.3,0.5,1.9,0.8c0.8-0.6,1.5-1.2,2-1.9h-4.6c0.3-0.7,0.6-1.4,0.8-2.1h-1.8v-0.7h2c0.1-0.4,0.2-0.8,0.4-1.3h-1.9V-216.1
				L430.2-216.1z"/>
			<path class="st5" d="M439.7-214.4h0.7v1.6h1v0.7h-1v1.5c0.3-0.1,0.7-0.2,1-0.3v0.7l-1,0.3v2.4h-0.7v-2.2
				c-0.6,0.1-1.3,0.2-1.9,0.3l-0.1-0.8c0.7-0.1,1.3-0.2,2-0.3v-1.6H438l-0.2-0.6c0.3-0.6,0.6-1.4,0.8-2.4h-0.9v-0.7h1.1
				c0.1-0.4,0.2-0.9,0.3-1.5l0.7,0.2c-0.1,0.5-0.2,1-0.3,1.4h1.9v0.7h-2.1c-0.2,0.9-0.5,1.7-0.8,2.4h1.1L439.7-214.4L439.7-214.4z
				 M442.9-215c-0.5,0.4-0.9,0.8-1.2,1.1l-0.4-0.6c1.1-0.8,2.1-1.8,3-2.8h0.6c0.9,1.2,1.9,2.1,2.9,2.8l-0.4,0.6
				c-1-0.7-1.9-1.6-2.8-2.7C444-216.1,443.5-215.5,442.9-215h3.1v0.6h-3.1V-215L442.9-215z M443.2-207.6l-0.2-0.6h0.5
				c0.2,0,0.4-0.1,0.4-0.4v-1h-1.2v2H442v-6h2.6v5.1c0,0.6-0.3,0.8-0.8,0.8L443.2-207.6L443.2-207.6z M442.6-211.8h1.2v-1.1h-1.2
				V-211.8z M442.6-210.2h1.2v-1h-1.2V-210.2z M445.2-213.2h0.6v3.9h-0.6V-213.2z M445.4-207.6l-0.2-0.7c0.4,0,0.7,0,0.8,0
				c0.2,0,0.3-0.2,0.3-0.5v-5h0.7v5.2c0,0.6-0.3,0.9-0.8,0.9h-0.8V-207.6z"/>
		</g>
	</g>
</g>
<g>
	<g id="Link33_4_" transform="translate(0,0)">
		<path class="st11" d="M472,86.9h51v24h41"/>
		<g transform="translate(0.5, 0)">
			<polygon class="st12" points="559,115.4 565,110.9 559,106.4 			"/>
		</g>
		<path class="st13" d="M472,86.9h51"/>
		<path class="st13" d="M523,86.9v24"/>
		<path class="st13" d="M523,110.9h41"/>
	</g>
	<g id="Link34_4_" transform="translate(0,0)">
		<path class="st11" d="M523,81.9v95h42"/>
		<g transform="translate(0.5, 0)">
			<polygon class="st12" points="560,181.4 566,176.9 560,172.4 			"/>
		</g>
		<path class="st13" d="M472,86.9h51"/>
		<path class="st13" d="M523,81.9v95"/>
	</g>
	<g id="Link64_1_" transform="translate(0,0)">
		<path class="st11" d="M472,86.9h51v-32h41"/>
		<g transform="translate(0.5, 0)">
			<polygon class="st12" points="559,59.4 565,54.9 559,50.4 			"/>
		</g>
		<path class="st13" d="M472,86.9h51"/>
		<path class="st13" d="M523,86.9v-32"/>
		<path class="st13" d="M523,54.9h41"/>
	</g>
	<g id="Link66_3_" transform="translate(0,0)">
		<path class="st11" d="M523,96.9v-108h41"/>
		<g transform="translate(0.5, 0)">
			<polygon class="st12" points="559,-6.6 565,-11.1 559,-15.6 			"/>
		</g>
		<path class="st13" d="M523,86.9"/>
		<path class="st13" d="M523,96.9v-108"/>
		<path class="st13" d="M523-11.1h41"/>
	</g>
</g>
<rect x="787" y="-29.9" class="st15" width="152.6" height="50"/>
<rect x="785" y="-31.9" class="st16" width="152.6" height="50"/>
<g>
	<path class="st9" d="M821,6.1c-7.2,0-13-5.8-13-13c0-7.2,5.8-13,13-13c6.4,0,11.9,4.7,12.9,11h2c-1.1-8.2-8.7-14-16.9-12.9
		c-8.2,1.1-14,8.7-12.9,16.9S814.8,9.1,823,8c6.7-0.9,12-6.2,12.9-12.9h-2C832.9,1.4,827.4,6.1,821,6.1z M828-10.9l-7-4l-7,4v8
		l3.2,1.8c0.2-0.6,0.5-1.2,1-1.7L816-4.1v-3.7l5,2.9l5-2.9v3.7l-4.1,2.4c-1-0.5-2.2-0.1-2.7,0.9s-0.1,2.2,0.9,2.7s2.2,0.1,2.7-0.9
		c0.1-0.3,0.2-0.6,0.2-0.9V0l5-2.9V-10.9z M821-7.2l-4.7-2.7l4.7-2.7l4.7,2.7L821-7.2z"/>
</g>
<g>
	<path class="st9" d="M821,76.4c-7.2,0-13-5.8-13-13s5.8-13,13-13c6.4,0,11.9,4.7,12.9,11h2c-1.1-8.2-8.7-14-16.9-12.9
		c-8.2,1.1-14,8.7-12.9,16.9s8.7,14,16.9,12.9c6.7-0.9,12-6.2,12.9-12.9h-2C832.9,71.8,827.4,76.4,821,76.4z M828,59.4l-7-4l-7,4v8
		l3.2,1.8c0.2-0.6,0.5-1.2,1-1.7l-2.2-1.3v-3.7l5,2.9l5-2.9v3.7l-4.1,2.4c-1-0.5-2.2-0.1-2.7,0.9s-0.1,2.2,0.9,2.7s2.2,0.1,2.7-0.9
		c0.1-0.3,0.2-0.6,0.2-0.9v-0.1l5-2.9V59.4z M821,63.1l-4.7-2.7l4.7-2.7l4.7,2.7L821,63.1z"/>
</g>
<g class="st6">
	<path class="st7" d="M849.2-11.4c0.7,0.5,1.4,1,1.9,1.6c0.6-0.6,1.2-1.3,1.6-2h-3.5v-0.9h4.6v0.8c-0.4,0.9-0.9,1.8-1.6,2.5h4.3
		c-1-1-1.7-2.1-2.3-3.2l0.8-0.5c0.2,0.6,0.6,1.1,1,1.7c0.6-0.4,1.1-0.9,1.6-1.5l0.7,0.6c-0.5,0.6-1.1,1.1-1.7,1.6
		c0.3,0.3,0.6,0.7,1,1.1c0.7-0.5,1.3-1.1,1.7-1.7l0.7,0.6c-0.5,0.6-1.1,1.2-1.7,1.7c0.7,0.6,1.5,1.1,2.3,1.4l-0.7,0.8
		c-1.2-0.7-2.3-1.4-3.1-2.2v0.6h-5.1v-0.5c-0.9,0.8-2.1,1.5-3.4,2.1l-0.6-0.8c1-0.4,1.9-0.9,2.7-1.5c-0.5-0.5-1.1-1-1.9-1.5
		L849.2-11.4z M851.4-3.7c0.5,0.5,0.9,1.1,1.3,1.9h2.8c0.4-0.6,0.8-1.3,1.1-1.9l1,0.3c-0.3,0.6-0.6,1.1-1,1.6h3.4v1h-12v-1h3.6
		c-0.4-0.6-0.8-1.1-1.2-1.5L851.4-3.7z M850.2-7.4h7.8V-4h-7.8V-7.4z M856.9-4.9v-1.6h-5.8v1.6H856.9z"/>
	<path class="st7" d="M862.2-12.7h3.9v0.8c-0.4,1.2-0.8,2.5-1.4,3.9c0.8,1.3,1.3,2.4,1.3,3.4c0,0.6-0.1,1.1-0.4,1.3
		c-0.4,0.3-1,0.5-1.8,0.5l-0.3-1c0.3,0,0.5,0.1,0.5,0.1c0.4,0,0.6-0.1,0.8-0.2c0.1-0.1,0.2-0.4,0.2-0.7c0-1-0.4-2-1.3-3.2
		c0.6-1.5,1.1-2.8,1.4-3.9h-1.9v11.3h-1L862.2-12.7L862.2-12.7z M866.8-11.2h3v-2h1v2h3.1v0.9h-3.1v2.2h3.6v1h-3.6v4.9h2v-3.7h1v5.3
		h-1v-0.6h-5v0.6h-1v-5.2h1v3.7h2V-7h-3.4v-1h3.4v-2.2h-3V-11.2z"/>
	<path class="st7" d="M877.6-5.3c-0.1,2-0.4,3.6-1,4.8l-0.8-0.7c0.6-1.3,0.8-2.9,0.9-4.8v-6.7h4.1v10.9c0,0.9-0.4,1.3-1.2,1.3h-1.1
		l-0.2-0.9c0.5,0,0.9,0.1,1.1,0.1c0.4,0,0.5-0.3,0.5-0.8v-3.1L877.6-5.3L877.6-5.3z M879.8-9.5v-2.4h-2.3v2.4H879.8z M877.6-8.6v2.3
		h2.3v-2.3H877.6z M882.9-6.7v6.2h-1v-12.3h5.7c0,1.7-0.1,2.9-0.3,3.4c-0.2,0.6-0.7,0.9-1.6,0.9h-1.1l-0.3-0.9h0.9
		c0.3,0,0.6,0,0.7-0.1c0.2-0.1,0.3-0.2,0.4-0.4c0.1-0.3,0.2-1,0.2-2.1h-3.7v4.2h4.8v0.9c-0.3,1.4-0.7,2.7-1.4,3.7
		c0.6,0.6,1.4,1.2,2.2,1.7l-0.5,0.9c-0.9-0.5-1.6-1.1-2.3-1.7c-0.6,0.7-1.3,1.3-2.2,1.7l-0.5-0.8c0.8-0.4,1.5-1,2-1.7
		c-0.9-1.1-1.5-2.3-1.8-3.7L882.9-6.7L882.9-6.7z M884.1-6.7c0.3,1.1,0.8,2,1.5,2.9c0.5-0.8,0.9-1.8,1.1-2.9H884.1z"/>
	<path class="st7" d="M894.9-13.2c-0.1,0.3-0.3,0.7-0.5,1.1h6.1v0.8c-0.9,1-2,1.9-3.3,2.6c1.6,0.7,3.4,1.1,5.3,1.3L902-6.5
		c-2.2-0.3-4.2-0.8-5.9-1.7c-1.7,0.8-3.7,1.4-6,1.7l-0.5-1c2-0.3,3.8-0.7,5.3-1.3c-0.8-0.4-1.5-1-2.2-1.6c-0.6,0.5-1.1,0.9-1.8,1.3
		l-0.6-0.8c1.7-1,2.8-2.1,3.4-3.5L894.9-13.2z M896.2-7.2c0,0.5,0,1-0.1,1.6h4.9c0,2.4-0.2,3.8-0.6,4.2c-0.4,0.5-1.1,0.7-2.1,0.7
		c-0.2,0-0.8,0-1.6-0.1l-0.3-0.9l1.7,0.1c0.8,0,1.4-0.2,1.6-0.5s0.3-1.2,0.4-2.6H896c-0.1,0.3-0.3,0.7-0.4,1.1
		c-0.7,1.3-2.4,2.3-4.9,3.1L890-1.3c2.3-0.7,3.8-1.5,4.5-2.5c0.2-0.3,0.3-0.6,0.4-0.8h-4.2v-0.9h4.5c0.1-0.5,0.2-1,0.2-1.6
		L896.2-7.2L896.2-7.2z M899-11.2h-5.3l-0.2,0.2c0.8,0.7,1.6,1.3,2.6,1.8C897.2-9.8,898.1-10.5,899-11.2z"/>
	<path class="st7" d="M903.8-8h4.7c0.3-0.3,0.5-0.7,0.6-1.1l1,0.1c-0.1,0.3-0.3,0.6-0.5,1h3.6c-0.2-0.4-0.4-0.7-0.6-1l0.9-0.3
		c0.3,0.4,0.5,0.8,0.8,1.2h1.9v0.9h-3.8c0.9,0.9,2.3,1.5,4.1,2l-0.4,0.9c-0.2-0.1-0.5-0.2-1-0.4v4.1h-0.9v-0.6h-2.6v0.6h-0.9V-5h3.7
		c-1.3-0.6-2.3-1.3-3-2.2H909c-0.8,0.9-1.8,1.6-3.2,2.2h3.5v4.4h-0.9v-0.6H906v0.6h-0.9v-4.1L904-4.3l-0.5-0.8
		c1.8-0.5,3.2-1.2,4.1-2.1h-3.9L903.8-8L903.8-8L903.8-8z M905-12.8h4.3v3.4H905V-12.8z M908.3-10.3V-12h-2.4v1.7H908.3z M906.1-2
		h2.4v-2.1h-2.4V-2z M910.8-12.8h4.4v3.4h-4.4V-12.8z M911.6-2h2.6v-2.1h-2.6V-2z M914.2-10.3V-12h-2.5v1.7H914.2z"/>
</g>
<rect x="353" y="64.3" class="st15" width="120.9" height="45"/>
<rect x="351" y="62.3" class="st16" width="120.9" height="45"/>
<g transform="translate(20 9)">
	<g>
		<title  xmlns="http://www.w3.org/2000/svg">Product Icons【32】</title>
		<g id="_编组__11_">
			<g id="_编组_2_11_">
				<path id="_复合路径__11_" class="st9" d="M355,83.3L355,83.3l2,2h1v-2h7v-2h-10V83.3z M375,84.3v-18h-30v24h30v-2h-28v-15
					h26v11H375z M347,71.3v-3h26v3H347z M365,78.3l-2-2h-1v2h-7v2h10V78.3z"/>
			</g>
		</g>
	</g>
	<g class="st6">
		<path class="st7" d="M386.8,75.6h1.4v-3.7h1v3.7h1.3v1h-1.3v4.2c0.4-0.2,0.8-0.4,1.3-0.6v1c-1.1,0.6-2.3,1.1-3.6,1.5l-0.3-1
			c0.6-0.1,1.1-0.3,1.5-0.4v-4.6h-1.4L386.8,75.6L386.8,75.6z M394.7,81.9c-1.4,0.5-2.9,1-4.5,1.3l-0.2-1c1.6-0.3,3.2-0.7,4.7-1.3
			V81.9z M390.5,73.8h5c0-0.4,0-1,0-1.9h1c0,0.9,0,1.5,0,1.9h1.4c-0.2-0.6-0.4-1.1-0.6-1.4l0.9-0.2c0.2,0.5,0.4,1,0.5,1.6h0.7v1
			h-2.9c0,2.2,0.1,3.9,0.3,5.3c0.6-1.2,1-2.6,1.3-4.1l0.9,0.4c-0.5,2.1-1.1,3.9-1.9,5.3c0.3,1.3,0.6,2,1,2.1c0.3,0,0.5-0.7,0.8-2.1
			l0.8,0.6c-0.4,1.7-1,2.5-1.6,2.5c-0.5,0-0.9-0.4-1.2-1.1c-0.2-0.3-0.3-0.7-0.4-1c-0.7,0.9-1.5,1.6-2.3,2.1l-0.6-0.8
			c1.1-0.6,1.9-1.5,2.7-2.6c-0.1-0.3-0.1-0.7-0.2-1.2c-0.2-1.4-0.3-3.2-0.3-5.3h-5v-1.1H390.5z M391,76.1h3.6V80H391V76.1z
			 M393.7,79.3V77h-1.8v2.3H393.7z"/>
		<path class="st7" d="M405,83.9v0.8h-1v-4.9c-0.8,0.3-1.8,0.5-2.8,0.8l-0.5-1c2.5-0.5,4.5-1.2,6-2c-0.6-0.5-1.5-1.1-2.5-1.7
			l0.9-0.5c1.1,0.7,1.9,1.3,2.5,1.8c1.4-0.8,2.5-1.8,3.1-3h-5.2c-1,0.9-2.2,1.7-3.6,2.4l-0.7-0.9c2.4-1,4-2.3,4.8-3.8l1.1,0.1
			c-0.2,0.4-0.5,0.8-0.8,1.2h5.5v0.9c-1,1.9-2.8,3.5-5.4,4.7h5.8v5.9h-1v-0.8H405L405,83.9z M411.2,82.9v-3.2H405v3.2
			C405,82.9,411.2,82.9,411.2,82.9z"/>
		<path class="st7" d="M416.2,81.4c-0.1,1.4-0.4,2.5-1,3.5l-0.7-0.6c0.5-1,0.8-2.4,0.8-4V76c-0.1,0.1-0.1,0.1-0.1,0.2l-0.6-0.7
			c0.8-0.9,1.5-2.1,2.1-3.5l0.9,0.2l-0.4,0.9h2.5v0.7c-0.3,0.6-0.6,1.1-0.9,1.6h1.7v8.4c0,0.7-0.3,1-1,1h-0.8l-0.2-0.8
			c0.4,0,0.6,0.1,0.7,0.1c0.3,0,0.5-0.2,0.5-0.5v-1.9h-1.3v3.2h-0.8v-3.2L416.2,81.4L416.2,81.4z M417.8,75.2
			c0.3-0.4,0.6-0.8,0.9-1.5h-1.8c-0.2,0.4-0.5,0.9-0.9,1.5H417.8z M416.3,78.7v1.7v0.2h1.3v-1.8h-1.3V78.7z M417.6,76.1h-1.3v1.8
			h1.3V76.1z M419.7,77.8V76h-1.3v1.8H419.7z M419.7,80.5v-1.8h-1.3v1.8H419.7z M422.3,79.4c-0.3,0.5-0.6,0.9-0.9,1.3l-0.6-0.7
			c0.6-0.7,1-1.6,1.2-2.7l0.8,0.2c-0.1,0.4-0.2,0.7-0.3,1.1h1.3v-1.3h1v1.3h2.1v0.9H425v1.7h2.4v0.9H425v2.7h-1v-2.7h-3.1v-0.9h3.1
			v-1.7L422.3,79.4L422.3,79.4L422.3,79.4z M421,73.6v-0.9h5.8c0,1.9-0.1,3-0.4,3.4c-0.3,0.4-0.7,0.6-1.3,0.6c-0.2,0-0.6,0-1.2-0.1
			l-0.2-0.8l1.2,0.1c0.4,0,0.6-0.1,0.7-0.4c0.1-0.2,0.1-0.9,0.2-1.9h-2.1c-0.1,0.6-0.3,1.2-0.6,1.7c-0.4,0.6-0.9,1.1-1.6,1.6
			l-0.6-0.8c0.6-0.4,1.1-0.8,1.4-1.3c0.2-0.4,0.4-0.8,0.5-1.2L421,73.6L421,73.6L421,73.6z"/>
		<path class="st7" d="M431.9,84.7h-1v-7.2c-0.5,1.4-1.1,2.7-1.9,3.9l-0.4-1.1c1.1-1.4,1.8-2.9,2.3-4.7h-2v-1h2v-2.7h1v2.7h1.9v1
			h-1.9v0.8c0.7,0.7,1.4,1.5,2,2.3l-0.5,0.8c-0.5-0.8-1-1.5-1.5-2.1L431.9,84.7L431.9,84.7z M440.9,72.9c-1.6,0.6-3.4,0.9-5.3,1v2.5
			h5.7v1h-2.1v7.4h-1v-7.4h-2.6v0.2c-0.1,3-0.8,5.4-2.1,7.1l-0.7-0.7c1.2-1.5,1.8-3.7,1.9-6.4v-4.5c2.1-0.1,4.1-0.4,5.8-1.1
			L440.9,72.9z"/>
	</g>
</g>
<g id="Textbasic80" transform="translate(130.90624237060547,262.5)">
	<rect x="343.5" y="-197.2" class="st17" width="48" height="20"/>
	<g transform="translate(0 0)">
		<g class="st6">
			<path class="st5" d="M345.7-186.1c-0.3,1.1-0.6,2.1-1,2.8l-0.7-0.2c0.4-0.7,0.7-1.6,1-2.8L345.7-186.1z M344.2-191.7h2.4
				c-0.2-0.4-0.4-0.8-0.6-1.1l0.9-0.2c0.2,0.3,0.3,0.8,0.5,1.3h2.2v0.8h-5.5L344.2-191.7L344.2-191.7z M344.8-190h4.2v3h-1.7v3.9
				c0,0.7-0.3,1-0.9,1h-0.9l-0.2-0.8c0.3,0,0.6,0.1,0.8,0.1c0.3,0,0.4-0.2,0.4-0.5v-3.7h-1.7L344.8-190L344.8-190z M348.2-187.7
				v-1.5h-2.6v1.5H348.2z M348.6-186.3c0.4,0.8,0.6,1.6,0.8,2.3l-0.7,0.3c-0.2-0.8-0.5-1.6-0.8-2.4L348.6-186.3z M350.8-193h0.8v2.8
				h3v0.8h-1.5v6c0,0.2,0.1,0.4,0.3,0.4h0.3c0.1,0,0.2-0.1,0.3-0.3c0.1-0.2,0.1-0.9,0.2-2l0.8,0.2c-0.1,1.3-0.2,2.2-0.4,2.4
				c-0.2,0.3-0.4,0.4-0.7,0.4h-0.7c-0.6,0-0.9-0.3-0.9-1v-6.2h-0.7c-0.1,3.3-0.7,5.8-2,7.4l-0.6-0.4c1.1-1.4,1.7-3.7,1.8-6.8h-1.2
				v-0.8h1.2C350.8-190.2,350.8-193,350.8-193z M353-192.8c0.6,0.7,1,1.2,1.4,1.7l-0.6,0.4c-0.4-0.6-0.8-1.1-1.4-1.8L353-192.8z"/>
			<path class="st5" d="M364-182.2c-0.4,0-1.1,0-2.1,0c-0.8,0-1.4-0.1-1.9-0.2s-0.9-0.4-1.3-0.9c-0.2-0.2-0.3-0.3-0.5-0.3
				c-0.3,0-0.8,0.6-1.4,1.7l-0.6-0.6c0.6-1,1.2-1.6,1.7-1.8v-3.6h-1.7v-0.8h2.5v4.5c0.1,0.1,0.2,0.2,0.3,0.3
				c0.3,0.4,0.6,0.6,0.9,0.8c0.4,0.2,0.9,0.3,1.6,0.3c0.8,0,1.6,0,2.3,0c0.4,0,0.9,0,1.7,0c0.7,0,1.1,0,1.3,0l-0.2,0.9L364-182.2
				L364-182.2z M357-192.8c0.8,0.6,1.5,1.3,2,1.9l-0.6,0.6c-0.5-0.6-1.1-1.2-2-1.9L357-192.8z M363.7-188.8h-2.3
				c-0.1,1.9-0.5,3.5-1.3,4.7l-0.6-0.6c0.7-1.1,1.1-2.5,1.2-4.4v-3.1c1.9,0,3.5-0.3,5-0.7l0.4,0.8c-1.4,0.4-2.9,0.6-4.6,0.6v1.9h5.3
				v0.8h-2.1v5.2h-0.8v-5.2H363.7z"/>
			<path class="st5" d="M368.4-182.1l-0.2-0.8c0.4,0,0.7,0,0.9,0c0.3,0,0.5-0.2,0.5-0.5v-2.9c-0.3,0.1-0.8,0.3-1.5,0.5l-0.2-0.9
				c0.5-0.1,1.1-0.3,1.7-0.5v-2.7h-1.5v-0.8h1.5v-2.3h0.9v2.3h1v0.8h-1v2.3c0.3-0.2,0.7-0.3,1-0.5v0.9c-0.3,0.2-0.7,0.3-1,0.5v3.5
				c0,0.7-0.4,1.1-1.1,1.1H368.4z M375.2-187.9c-0.1,0.3-0.3,0.6-0.4,0.9h4.1v0.8h-1.3c-0.2,0.9-0.6,1.6-1.1,2.3
				c0.8,0.4,1.6,0.8,2.4,1.2l-0.5,0.7c-0.7-0.4-1.6-0.9-2.5-1.3c-0.8,0.6-2.1,1-3.8,1.4l-0.3-0.8c1.4-0.3,2.5-0.6,3.2-1
				c-0.6-0.3-1.4-0.6-2.4-1c0.3-0.5,0.6-1,0.9-1.4h-1.6v-0.8h2.1c0.2-0.4,0.3-0.7,0.4-1L375.2-187.9z M373.9-190.9
				c0.3,0.5,0.6,1.1,0.9,1.8h1.2c0.3-0.6,0.6-1.2,0.9-1.9l0.8,0.3c-0.2,0.6-0.5,1.1-0.8,1.6h1.9v0.8H372v-0.8h1.8
				c-0.3-0.6-0.5-1-0.7-1.4L373.9-190.9z M375.4-193c0.1,0.3,0.3,0.7,0.4,1.1h2.7v0.8h-6.2v-0.8h2.6c-0.1-0.3-0.3-0.7-0.4-1
				L375.4-193z M374.4-186.1c-0.2,0.4-0.5,0.7-0.7,1.1c0.7,0.3,1.4,0.5,2,0.8c0.5-0.5,0.9-1.1,1.1-1.9H374.4L374.4-186.1z"/>
			<path class="st5" d="M383-192.5l0.7-0.5c1.1,0.7,2,2.1,2.7,4c1.1,2.9,2.6,4.9,4.5,6.1l-0.5,0.7c-1.9-1.2-3.5-3.3-4.8-6.5
				c-0.1-0.3-0.2-0.5-0.2-0.5c-0.8,3.1-2.4,5.4-5,7l-0.5-0.7c2.6-1.7,4.2-4.1,5-7.3C384.4-191.2,383.8-192,383-192.5z"/>
		</g>
	</g>
</g>
<g id="Textbasic81" transform="translate(26.773441314697266,311.06666564941406)">
	<rect x="333.8" y="-200.2" class="st17" width="94.7" height="20"/>
	<g transform="translate(0 0)">
		<g class="st6">
			<path class="st5" d="M339.1-195.9c-0.1,0.2-0.3,0.5-0.6,0.8h4.9v0.7c-0.7,0.9-1.6,1.7-2.7,2.3c1.3,0.5,2.8,0.9,4.6,1.2l-0.4,0.8
				c-2-0.3-3.7-0.8-5-1.5c-1.5,0.7-3.2,1.3-5.2,1.6l-0.4-0.8c1.8-0.2,3.3-0.7,4.7-1.3c-0.7-0.4-1.3-0.9-1.9-1.5
				c-0.5,0.5-1.1,0.9-1.7,1.3l-0.6-0.7c1.4-0.8,2.5-1.8,3.3-3.1L339.1-195.9z M343.6-190.2v5.2h-0.8v-0.5h-5.9v0.5h-0.8v-5.2H343.6z
				 M336.9-188.2h2.5v-1.3h-2.5V-188.2z M336.9-186.2h2.5v-1.3h-2.5V-186.2z M337.7-194.1c0.6,0.6,1.3,1.1,2.2,1.6
				c1-0.5,1.8-1.1,2.5-1.8H338L337.7-194.1z M340.2-189.5v1.3h2.6v-1.3H340.2z M340.2-186.2h2.6v-1.3h-2.6V-186.2z"/>
			<path class="st5" d="M346.7-188.8h4.7v-0.9h0.9v0.9h4.7v0.8h-3.9c0.9,0.8,2.2,1.5,4.1,2l-0.4,0.8c-2.1-0.7-3.6-1.6-4.5-2.7v3
				h-0.9v-3.1c-0.8,1.1-2.2,2-4.4,2.8l-0.5-0.8c2-0.6,3.4-1.3,4.1-2.1h-3.9L346.7-188.8L346.7-188.8z M351.8-193.8l-0.6,0.8h5.4v0.7
				h-2c-0.4,0.6-0.9,1-1.4,1.4c1,0.3,2.1,0.6,3.3,1l-0.5,0.7c-1.1-0.4-2.4-0.8-3.6-1.1c-1.3,0.6-2.9,0.9-4.9,0.9l-0.5-0.7
				c1.8,0,3.3-0.2,4.3-0.5c-0.8-0.2-1.6-0.4-2.5-0.6l0.5-0.5c0.2-0.2,0.3-0.4,0.4-0.5h-2.6v-0.7h3.2c0.3-0.4,0.5-0.7,0.8-1
				L351.8-193.8z M356.7-195v1.7h-0.8v-1h-8v1H347v-1.7h4.5c-0.2-0.4-0.4-0.6-0.5-0.8l0.8-0.1c0.2,0.3,0.4,0.6,0.5,1L356.7-195
				L356.7-195z M353.7-192.3h-3c-0.2,0.2-0.4,0.5-0.6,0.7c0.7,0.1,1.5,0.3,2.2,0.5C352.9-191.5,353.4-191.9,353.7-192.3z"/>
			<path class="st5" d="M358.7-192.7h2.1v-1.7c-0.6,0.1-1.2,0.2-1.8,0.2l-0.3-0.8c1.8-0.1,3.3-0.4,4.5-0.9l0.4,0.7
				c-0.7,0.2-1.3,0.4-1.9,0.6v1.9h2.1v0.8h-2.1v0.6c0.7,0.6,1.4,1.3,2.1,2.1l-0.5,0.7c-0.7-0.9-1.2-1.6-1.6-2v5.4h-0.8v-5.3
				c-0.5,1.1-1.2,2.2-2.1,3.1l-0.4-0.9c1.1-1.1,1.9-2.3,2.4-3.6l0,0h-2.1L358.7-192.7L358.7-192.7z M368.8-195.2v9.7H368v-0.9h-3
				v1.1h-0.8v-9.8h4.6V-195.2z M365-187.2h2.9v-7.1H365V-187.2z"/>
			<path class="st5" d="M371.7-194.3c0.6,0.4,1.2,0.9,1.6,1.3c0.5-0.5,1-1.1,1.3-1.7h-3v-0.8h4v0.6c-0.3,0.8-0.8,1.5-1.4,2.1h3.7
				c-0.8-0.8-1.5-1.8-1.9-2.8l0.7-0.4c0.2,0.5,0.5,1,0.8,1.4c0.5-0.4,1-0.8,1.3-1.3l0.6,0.5c-0.4,0.5-0.9,1-1.5,1.4
				c0.2,0.3,0.5,0.6,0.9,0.9c0.6-0.4,1.1-0.9,1.5-1.4l0.6,0.5c-0.4,0.5-0.9,1-1.5,1.4c0.6,0.5,1.3,0.9,2,1.2l-0.6,0.7
				c-1-0.6-1.9-1.2-2.7-1.9v0.5h-4.4v-0.4c-0.8,0.7-1.8,1.3-3,1.8l-0.5-0.7c0.9-0.4,1.7-0.8,2.3-1.3c-0.4-0.4-1-0.9-1.6-1.3
				L371.7-194.3z M373.6-187.7c0.4,0.4,0.8,1,1.1,1.6h2.4c0.4-0.5,0.7-1.1,1-1.7l0.8,0.3c-0.3,0.5-0.5,1-0.9,1.4h3v0.8h-10.3v-0.8
				h3.1c-0.3-0.5-0.6-0.9-1-1.3L373.6-187.7z M372.5-190.9h6.7v2.9h-6.7V-190.9z M378.3-188.8v-1.4h-4.9v1.4H378.3z"/>
			<path class="st5" d="M382.4-192.3h2.6v5.4c0.4-0.3,0.9-0.8,1.5-1.3l0.2,0.9c-0.7,0.6-1.5,1.3-2.5,1.9l-0.3-0.8
				c0.2-0.1,0.3-0.3,0.3-0.5v-4.8h-1.8V-192.3L382.4-192.3z M383.8-195.8c0.8,0.6,1.5,1.2,2.1,1.8l-0.6,0.6
				c-0.5-0.6-1.2-1.2-2.1-1.9L383.8-195.8z M393.4-188.3c-0.1,1.2-0.3,2-0.5,2.4s-0.7,0.6-1.4,0.6h-3.1c-0.7,0-1.1-0.4-1.1-1.2v-5.2
				h4.3v-2.8h-4.8v-0.8h5.7v4.5h-4.3v4.1c0,0.4,0.2,0.6,0.6,0.6h2.6c0.5,0,0.8-0.2,0.9-0.5c0.1-0.3,0.2-1,0.3-1.9L393.4-188.3z"/>
			<path class="st5" d="M394.4-191h10.8v0.9h-10.8V-191z"/>
			<path class="st5" d="M412.2-196c1,1.6,2.7,3.1,5.2,4.4l-0.5,0.8c-2.3-1.2-4-2.6-5.1-4.3c-1.3,1.9-3,3.4-5.1,4.4l-0.5-0.8
				c2.2-1.1,4-2.6,5.2-4.4h0.8V-196z M411.4-192.4h0.9v7.4h-0.9V-192.4z"/>
			<path class="st5" d="M418.8-194.7h1v8.6h-1V-194.7z"/>
			<path class="st5" d="M421.5-194.7h3.5c2,0,3,0.8,3,2.5s-1,2.5-3,2.5h-2.5v3.5h-1V-194.7z M422.5-193.9v3.4h2.5
				c0.7,0,1.2-0.1,1.5-0.4s0.5-0.7,0.5-1.3c0-0.6-0.2-1-0.5-1.2c-0.3-0.3-0.8-0.4-1.5-0.4h-2.5V-193.9z"/>
		</g>
	</g>
</g>
<g transform="translate(0 0)">
	<g class="st6">
		<path class="st5" d="M565.2,203c0.7,0.7,1.4,1.6,2.1,2.5c0.4-1.1,0.7-2.3,0.8-3.5h-3.3v-0.8h4.1v0.6c-0.1,1.6-0.4,3.1-1,4.5
			c0.5,0.7,1,1.3,1.4,2l-0.6,0.6c-0.3-0.6-0.7-1.2-1.2-1.8c-0.7,1.1-1.5,2.2-2.7,3.1l-0.5-0.8c1.1-0.9,2-1.9,2.6-3.1
			c-0.6-0.9-1.4-1.8-2.3-2.8L565.2,203z M570.2,204.5c0.8,1,1.4,1.9,1.9,2.6l-0.7,0.5c-0.5-0.8-1.1-1.7-1.8-2.6L570.2,204.5z
			 M569.5,202.3h3.5v-2.4h0.9v2.4h1.3v0.8h-1.3v6.6c0,0.8-0.4,1.2-1.2,1.2h-1.9l-0.2-0.9c0.7,0,1.3,0.1,1.8,0.1
			c0.4,0,0.7-0.2,0.7-0.6v-6.4h-3.5v-0.8H569.5z"/>
		<path class="st5" d="M578.6,204.7c0.7,0.4,1.3,0.8,1.8,1.3c0.6-1.1,0.9-2.2,1.1-3.5h-2.4c-0.6,1.3-1.3,2.5-2.3,3.4l-0.6-0.7
			c1.4-1.3,2.3-3,2.8-5.2l0.9,0.1c-0.1,0.5-0.3,1.1-0.4,1.5h2.9v0.8c-0.4,3.6-2.2,6.4-5.3,8.2l-0.6-0.7c1.5-0.9,2.7-1.9,3.5-3.2
			c-0.6-0.5-1.3-1-1.9-1.3L578.6,204.7z M583.4,200h0.9v3.6c1,0.7,2,1.5,3,2.5l-0.5,0.8c-1.1-1.1-1.9-1.8-2.5-2.3v6.4h-0.9V200z"/>
		<path class="st5" d="M591.7,203.6h-1.9v-3.3h8v3.3h-1.9v0.7h2.7v0.7h-2.7v0.8h3.2v0.7h-2.9c0.7,0.7,1.7,1.2,3.1,1.6l-0.4,0.7
			c-0.9-0.3-1.7-0.7-2.3-1.1c-0.4,0.3-0.9,0.6-1.3,0.8l-0.4-0.6c0.4-0.2,0.8-0.5,1.2-0.7c-0.3-0.2-0.5-0.5-0.7-0.7h-2.9
			c-0.2,0.3-0.5,0.5-0.8,0.8c0.4,0.2,0.7,0.5,1.1,0.7l-0.5,0.5c-0.3-0.3-0.7-0.5-1.1-0.8c-0.7,0.4-1.4,0.8-2.3,1.2l-0.4-0.7
			c1.4-0.4,2.5-1,3.1-1.6h-3v-0.7h3.3v-0.8H589v-0.7h2.7V203.6L591.7,203.6z M592.8,209.3c-1,0.5-2.2,1-3.6,1.5l-0.3-0.8
			c1.4-0.4,2.7-0.8,3.7-1.4L592.8,209.3z M590.6,201.6h6.3v-0.7h-6.3V201.6z M597,202.9v-0.7h-6.3v0.7H597z M592,210.9l-0.2-0.7
			c0.5,0,0.9,0.1,1.2,0.1s0.4-0.1,0.4-0.3v-3h0.8v3.2c0,0.6-0.3,0.8-1,0.8L592,210.9L592,210.9z M592.5,204.3h2.5v-0.7h-2.5V204.3z
			 M592.5,205.7h2.5v-0.8h-2.5V205.7z M595.2,208.7c1.3,0.4,2.5,0.9,3.6,1.4l-0.5,0.7c-1.2-0.7-2.3-1.2-3.5-1.5L595.2,208.7z"/>
		<path class="st5" d="M601.1,204.8h3.7v2.4h-1.2v0.9h1.3v0.6h-1.3v1c0.4-0.1,0.9-0.2,1.6-0.3v0.7c-1.3,0.3-2.8,0.6-4.5,0.8
			l-0.2-0.7c0.1,0,0.4-0.1,0.7-0.1v-2.4h0.7v2.3l1-0.2v-2.6h-1.7v-2.4H601.1z M601.1,200.2h9.3v0.7h-4.3v0.8h4.6v2H610v-1.4h-3.8
			v2.1h-0.8v-2.1h-3.8v1.4h-0.8v-2h4.6v-0.8h-4.3C601.1,200.8,601.1,200.2,601.1,200.2z M604.1,206.6v-1.1h-2.2v1.1H604.1z
			 M602.2,203.7h2.6v0.5h-2.6V203.7z M602.2,202.7h2.6v0.5h-2.6V202.7z M607.9,204.5c-0.1,0.2-0.2,0.3-0.3,0.5h2.8v0.5
			c-0.4,0.5-0.9,1-1.5,1.5c0.7,0.3,1.6,0.5,2.5,0.7l-0.4,0.6c-1.1-0.2-2.1-0.5-2.8-0.9c-0.8,0.4-1.7,0.7-2.8,1l-0.5-0.6
			c1-0.3,1.9-0.5,2.6-0.8c-0.4-0.3-0.7-0.5-1-0.8c-0.3,0.2-0.6,0.4-0.9,0.6l-0.4-0.6c1.1-0.5,1.8-1.1,2.2-1.8L607.9,204.5z
			 M610.3,208.3v2.7h-0.8v-0.4h-2.8v0.4H606v-2.7H610.3z M606.8,202.7h2.6v0.5h-2.6V202.7z M606.8,203.7h2.6v0.5h-2.6V203.7z
			 M606.8,209.9h2.8v-1h-2.8V209.9z M608.2,206.7c0.6-0.3,1-0.7,1.4-1h-2.4c0,0-0.1,0.1-0.2,0.2
			C607.3,206.1,607.7,206.4,608.2,206.7z"/>
		<path class="st5" d="M612.4,204.9h10.8v0.9h-10.8V204.9z"/>
		<path class="st5" d="M630.2,199.9c1,1.6,2.7,3.1,5.2,4.4l-0.5,0.8c-2.3-1.2-4-2.6-5.1-4.3c-1.3,1.9-3,3.4-5.1,4.4l-0.5-0.8
			c2.2-1.1,4-2.6,5.2-4.4h0.8V199.9z M629.3,203.5h0.9v7.4h-0.9V203.5z"/>
		<path class="st5" d="M636.7,201.2h1v8.6h-1V201.2z"/>
		<path class="st5" d="M639.5,201.2h3.5c2,0,3,0.8,3,2.5s-1,2.5-3,2.5h-2.5v3.5h-1V201.2L639.5,201.2z M640.5,202v3.4h2.5
			c0.7,0,1.2-0.1,1.5-0.4s0.5-0.7,0.5-1.3c0-0.6-0.2-1-0.5-1.2c-0.3-0.3-0.8-0.4-1.5-0.4h-2.5V202z"/>
	</g>
</g>
<g class="st6">
	<path class="st7" d="M848.698,69.633l-0.21-0.98c0.505,0.037,0.868,0.056,1.093,0.056c0.363,0,0.546-0.2,0.546-0.602v-3.388
		c-0.374,0.149-0.952,0.354-1.736,0.615l-0.252-1.008c0.635-0.158,1.297-0.365,1.988-0.617v-3.136h-1.708v-0.966h1.708v-2.646h1.036
		v2.646h1.161v0.966h-1.161v2.702c0.363-0.177,0.765-0.383,1.203-0.616v1.022c-0.363,0.195-0.765,0.392-1.203,0.588v4.088
		c0,0.85-0.411,1.274-1.232,1.274H848.698z M856.637,62.828c-0.14,0.374-0.294,0.737-0.462,1.092h4.802V64.9h-1.54
		c-0.215,1.046-0.648,1.923-1.302,2.632c0.979,0.458,1.899,0.934,2.758,1.428l-0.546,0.813c-0.84-0.514-1.815-1.036-2.926-1.568
		c-0.943,0.682-2.413,1.219-4.41,1.61l-0.392-0.91c1.651-0.299,2.902-0.695,3.752-1.189c-0.729-0.337-1.644-0.724-2.744-1.162
		c0.392-0.598,0.728-1.148,1.008-1.652h-1.876v-0.981h2.394c0.187-0.41,0.359-0.812,0.519-1.203L856.637,62.828z M855.055,59.286
		c0.336,0.588,0.667,1.279,0.994,2.072h1.372c0.364-0.653,0.695-1.396,0.994-2.226l0.951,0.336c-0.261,0.699-0.555,1.33-0.882,1.89
		h2.269v0.966h-7.813v-0.966h2.143c-0.299-0.653-0.584-1.213-0.854-1.68L855.055,59.286z M856.902,56.835
		c0.149,0.374,0.304,0.817,0.462,1.33h3.137v0.925h-7.238v-0.925h3.08c-0.149-0.4-0.313-0.788-0.49-1.161L856.902,56.835z
		 M855.656,64.9c-0.271,0.457-0.536,0.873-0.798,1.246c0.813,0.308,1.597,0.63,2.353,0.966c0.625-0.588,1.05-1.325,1.273-2.212
		H855.656z"/>
	<path class="st7" d="M865.723,57.452l0.84-0.532c1.232,0.859,2.287,2.432,3.164,4.719c1.316,3.351,3.075,5.717,5.278,7.098
		l-0.63,0.813c-2.259-1.363-4.111-3.901-5.559-7.617c-0.121-0.336-0.195-0.532-0.224-0.588c-0.924,3.575-2.856,6.314-5.796,8.218
		l-0.603-0.854c2.996-1.96,4.942-4.807,5.838-8.541C867.397,59.01,866.628,58.105,865.723,57.452z"/>
	<path class="st7" d="M883.013,56.808c0.271,0.448,0.518,0.934,0.742,1.456h5.124v0.979h-10.374v3.122
		c-0.057,3.09-0.537,5.554-1.442,7.393l-0.826-0.742c0.794-1.615,1.204-3.831,1.232-6.651v-4.102h5.194
		c-0.225-0.448-0.477-0.868-0.757-1.26L883.013,56.808z M878.771,68.177h5.838c0.868-1.997,1.624-4.458,2.269-7.378l0.994,0.266
		c-0.607,2.726-1.33,5.096-2.171,7.113h2.954v0.979h-9.884V68.177z M880.297,61.484c0.551,1.466,1.055,3.178,1.512,5.138
		l-0.952,0.238c-0.392-1.82-0.873-3.519-1.441-5.096L880.297,61.484z M882.999,60.49c0.466,1.521,0.9,3.29,1.302,5.307l-0.966,0.224
		c-0.309-1.82-0.714-3.571-1.219-5.25L882.999,60.49z"/>
	<path class="st7" d="M892.574,65.181c-0.158,1.801-0.681,3.285-1.567,4.452l-0.771-0.687c0.896-1.25,1.358-2.832,1.387-4.746v-6.72
		h10.43v10.487c0,0.979-0.49,1.47-1.47,1.47h-1.61l-0.266-0.994c0.746,0.037,1.265,0.056,1.554,0.056c0.513,0,0.77-0.294,0.77-0.882
		v-2.436h-3.808v4.102h-1.036v-4.102H892.574z M896.187,58.459h-3.556v2.408h3.556V58.459z M892.631,61.806v2.451h3.556v-2.451
		H892.631z M901.03,60.868v-2.408h-3.808v2.408H901.03z M901.03,64.257v-2.451h-3.808v2.451H901.03z"/>
	<path class="st7" d="M906.771,60.952v1.162c-0.019,2.941-0.598,5.456-1.735,7.546l-0.729-0.658c0.971-1.782,1.461-4.078,1.47-6.888
		V57.48h10.192v3.472H906.771z M914.988,58.417h-8.218v1.624h8.218V58.417z M907.205,64.564h9.491v0.924h-5.361
		c-0.84,1.372-1.587,2.356-2.24,2.954c1.866-0.14,3.682-0.341,5.445-0.602l-1.218-1.4l0.742-0.462
		c1.167,1.241,2.053,2.301,2.66,3.178l-0.813,0.574c-0.224-0.364-0.476-0.729-0.756-1.092c-2.222,0.308-4.652,0.546-7.294,0.714
		l-0.224-0.854l0.21-0.098c0.606-0.354,1.414-1.325,2.422-2.912h-3.065V64.564z M908.185,62.282h7.602v0.896h-7.602V62.282z"/>
</g>
</svg>
