<?xml version="1.0" encoding="utf-8"?>
<!-- Generator: Adobe Illustrator 21.0.0, SVG Export Plug-In . SVG Version: 6.00 Build 0)  -->
<svg version="1.1" id="图层_1" xmlns="http://www.w3.org/2000/svg" xmlns:xlink="http://www.w3.org/1999/xlink" x="0px" y="0px"
	 width="100px" height="100px" viewBox="0 0 100 100" style="enable-background:new 0 0 100 100;" xml:space="preserve">
<style type="text/css">
	.st0{fill:#FFFFFF;}
	.st1{fill:#E5E5E5;}
	.st2{fill:#00ADEF;}
</style>
<title>资源 10</title>
<g>
	<path class="st0" d="M50,98C23.5,98,2,76.5,2,50S23.5,2,50,2s48,21.5,48,48S76.5,98,50,98z"/>
	<path class="st1" d="M50,4c25.4,0,46,20.6,46,46S75.4,96,50,96S4,75.4,4,50S24.6,4,50,4 M50,0C22.4,0,0,22.4,0,50s22.4,50,50,50
		s50-22.4,50-50S77.6,0,50,0L50,0z"/>
</g>
<path class="st2" d="M25,32.8l19.6-2.7l0,18.9l-19.6,0.1L25,32.8z M44.6,51.2l0,18.9l-19.6-2.7l0-16.3L44.6,51.2z M47,29.8L73,26
	v22.8L47,49V29.8z M73,51.3L73,74l-26-3.7l0-19.1L73,51.3z"/>
</svg>
