<?xml version="1.0" encoding="UTF-8"?>
<svg width="128px" height="128px" viewBox="0 0 128 128" version="1.1" xmlns="http://www.w3.org/2000/svg" xmlns:xlink="http://www.w3.org/1999/xlink">
    <!-- Generator: Sketch 52.6 (67491) - http://www.bohemiancoding.com/sketch -->
    <title>深色icon/免费体验馆</title>
    <desc>Created with Sketch.</desc>
    <defs>
        <linearGradient x1="84.9741287%" y1="26.2558339%" x2="36.6105858%" y2="88.671824%" id="linearGradient-1">
            <stop stop-color="#0A114B" stop-opacity="0.0618772645" offset="0%"></stop>
            <stop stop-color="#040A38" offset="100%"></stop>
        </linearGradient>
    </defs>
    <g id="深色icon/免费体验馆" stroke="none" stroke-width="1" fill="none" fill-rule="evenodd">
        <g id="活动/建站" transform="translate(1.000000, 22.000000)">
            <polygon id="路径-10" fill="url(#linearGradient-1)" points="76.8710937 82.1264648 126 61.6916504 93.4275411 50 28 71.7705346"></polygon>
            <path d="M38.1856713,63.1807674 C29.0925999,60.3233058 21.7212091,47.7689625 21.7212091,38.3434186 C21.7212091,37.5748182 18.8141394,34.2519589 13,28.3748407 L20.3086162,26.1757872 C27.6987739,22.4355711 33.6577923,21.276897 38.1856713,22.699765 C38.1856713,19.1847796 37.4146605,13.7470783 35.8726388,6.38666129 L53.2714881,1.04153481 C53.3977194,0.977703571 53.7289996,0.870972196 54.2653288,0.721340686 C57.3868749,-0.14954542 60.7539991,-0.266938119 64.1665282,0.561838553 C77.5037323,3.80095055 83.2896801,20.3422976 83.2896801,36.2194012 C92.3827515,39.0768628 99.3260399,50.1471445 99.9278679,58.7232839 C100.141074,61.7615011 99.9278679,67.477001 98.6589882,70.1373781 C97.3901086,72.7977552 94.6755108,74.8495309 92.2764031,75.7173515 L74.8883179,83 L38.1856713,63.1807674 Z" id="合并形状" fill="#0C2477"></path>
            <path d="M19.38,69.0207722 C10.3335758,66.1705467 3,53.6479952 3,44.24632 C3,34.8446448 10.3335758,25.7920559 19.38,28.6422815 C19.38,14.5145911 31.9587911,3.32950633 45.2275757,6.56041579 C58.4963604,9.79132524 64.62,27.0589943 64.62,42.8958916 C73.6664242,45.7461171 81,57.3534118 81,68.8215099 C81,79.6225942 76.0655476,85.3517298 67.7508532,83.7278889 L19.38,69.0207722 Z" id="合并形状" fill="#0047B0"></path>
        </g>
        <polygon id="合并形状" fill-opacity="0.702473958" fill="#006EFF" points="28.0588235 72.0107422 13.9411765 67.7423138 13.9411765 44.2677183 6 41.8667274 21 26 36 50.9371376 28.0588235 48.5361467"></polygon>
        <polygon id="路径" fill="#00E8FF" fill-rule="nonzero" points="8.7574805 41.1333821 15.4411765 43.1541776 15.4411765 68.2133789 12.4411765 67.6264648 12.4411765 45.381259 3.2425195 42.6000726 20.2055054 24.6943528 21.7911142 27.3466413"></polygon>
        <path d="M38,63 L46.3383612,65.4976845 L46.3383612,67.2370768 L40.0032613,65.3394519 L40.0032613,68.7834485 L45.9788015,70.5733703 L45.9788015,72.3127625 L40.0032613,70.5228407 L40.0032613,76.0193201 L38,75.4192604 L38,63 Z M47.9649409,65.9849125 L53.4097024,67.6158441 C54.6596005,67.9902404 55.6526702,68.5660086 56.3717896,69.3554141 C57.1251529,70.2072588 57.5189564,71.2297032 57.5189564,72.4124899 C57.5189564,73.0560651 57.3477375,73.5787773 57.0052996,73.9806267 C56.628618,74.4244005 56.0978394,74.6306827 55.4472075,74.6097307 L55.4472075,74.6445186 C56.5087648,75.2060138 57.108031,76.0986697 57.2450061,77.357274 L57.4504688,79.4191196 C57.5189564,80.204967 57.7757848,80.890685 58.1867102,81.4660162 L56.0122299,80.8146693 C55.7211578,80.3448148 55.5499389,79.7543161 55.4814513,79.0380444 L55.3273543,77.4612208 C55.2588667,76.7623429 55.053404,76.2137685 54.7109662,75.8154975 C54.3514064,75.3947039 53.8206278,75.0965624 53.1357521,74.8914137 L49.9682022,73.9426013 L49.9682022,79.0042327 L47.9649409,78.4041729 L47.9649409,65.9849125 Z M49.9682022,68.3243645 L49.9682022,72.2032091 L53.1357521,73.1520215 C53.9233592,73.3879424 54.5226254,73.3935083 54.9335508,73.1861129 C55.3102324,72.9510662 55.4985732,72.5204523 55.4985732,71.8942711 C55.4985732,71.2159081 55.3102324,70.6724624 54.9335508,70.263934 C54.5568691,69.8380117 53.9576029,69.5193552 53.1357521,69.2731769 L49.9682022,68.3243645 Z M59.8988993,69.5596274 L68.7166735,72.200916 L68.7166735,73.9403082 L61.9021606,71.8990793 L61.9021606,75.3430759 L68.3057481,77.2612156 L68.3057481,79.0006078 L61.9021606,77.0824681 L61.9021606,80.8395553 L69.0077456,82.9679723 L69.0077456,84.7073645 L59.8988993,81.9788878 L59.8988993,69.5596274 Z M70.8911537,72.8522629 L79.7089278,75.4935515 L79.7089278,77.2329437 L72.894415,75.1917148 L72.894415,78.6357114 L79.2980024,80.5538511 L79.2980024,82.2932433 L72.894415,80.3751036 L72.894415,84.1321908 L80,86.2606078 L80,88 L70.8911537,85.2715232 L70.8911537,72.8522629 Z" id="FREE" fill="#00E8FF"></path>
    </g>
</svg>