<svg width="48" height="48" viewBox="0 0 48 48" xmlns="http://www.w3.org/2000/svg"><title>Group 8</title><g fill="none" fill-rule="evenodd"><g fill="#00A4FF"><path d="M41 40.182V38h4.818V4.182H2.182V38h17.241v2.182H0V2h48v38.182h-7z"/><path d="M17.727 16.429l-2.045 9.375h-2.387l-1.448-6.009a5.575 5.575 0 0 1-.17-1.065c-.03.455-.086.81-.171 1.065l-1.534 6.009H7.5l-2.045-9.375h2.173l1.065 6.264c.029.142.057.412.085.81 0-.085.015.014.043.298h.043c.028-.34.085-.71.17-1.108l1.449-6.264h2.258l1.535 6.35c0 .056.014.141.042.255.057.313.085.568.085.767h.043c.057-.426.1-.781.128-1.065l1.023-6.307h2.13zm12.23 0l-2.045 9.375h-2.386l-1.45-6.009a5.575 5.575 0 0 1-.17-1.065c-.028.455-.085.81-.17 1.065l-1.534 6.009H19.73l-2.045-9.375h2.173l1.065 6.264c.029.142.057.412.086.81 0-.085.014.014.042.298h.043c.028-.34.085-.71.17-1.108l1.45-6.264h2.258l1.534 6.35c0 .056.014.141.042.255.057.313.086.568.086.767h.042c.057-.426.1-.781.128-1.065l1.023-6.307h2.13zm12.23 0l-2.045 9.375h-2.386l-1.45-6.009a5.575 5.575 0 0 1-.17-1.065c-.028.455-.085.81-.17 1.065l-1.534 6.009H31.96l-2.045-9.375h2.173l1.065 6.264c.029.142.057.412.086.81 0-.085.014.014.042.298h.043c.028-.34.085-.71.17-1.108l1.45-6.264h2.258l1.534 6.35c0 .056.014.141.042.255.057.313.086.568.086.767h.042c.057-.426.1-.781.128-1.065l1.023-6.307h2.13z"/></g><g stroke="#00A4FF" stroke-width="2"><path d="M25.962 27.801l12.077 7.344a.5.5 0 0 1-.056.884l-14.7 6.545a.5.5 0 0 1-.695-.55l2.623-13.888a.5.5 0 0 1 .75-.335z"/><path d="M30.015 45.625h6.617l-3.346-7.515-5.488 2.443 2.217 5.072z"/></g></g></svg>