<svg id="图层_1" data-name="图层 1" xmlns="http://www.w3.org/2000/svg" width="4.586mm" height="5.292mm" viewBox="0 0 13 15">
  <title>搜索-蓝色</title>
  <g id="Page-1">
    <g id="下拉框效果">
      <g id="Group">
        <g id="search-1616-1-inline">
          <path id="Shape" d="M12.721,13.3,10.4,10.8a6.891,6.891,0,0,0,1.579-4.3A6.268,6.268,0,0,0,5.943,0,6.255,6.255,0,0,0,0,6.5a6.164,6.164,0,0,0,5.943,6.4A5.026,5.026,0,0,0,8.914,12l2.507,2.7a.854.854,0,0,0,1.3,0A1.019,1.019,0,0,0,12.721,13.3ZM5.943,10.9A4.289,4.289,0,0,1,1.857,6.5,4.382,4.382,0,0,1,5.943,2a4.33,4.33,0,0,1,4.179,4.5A4.241,4.241,0,0,1,5.943,10.9Z" transform="translate(0 0)" style="fill: #00a4ff"/>
        </g>
      </g>
    </g>
  </g>
</svg>
