<?xml version="1.0" encoding="utf-8"?><svg width="110" height="106" viewBox="0 0 110 106" xmlns="http://www.w3.org/2000/svg" xmlns:xlink="http://www.w3.org/1999/xlink"><svg data-name="图层 1" width="18" height="18" viewBox="-1 -1 18 18" id="c" x="18" y="88" xmlns="http://www.w3.org/2000/svg"><path fill="#fff" d="M.5.5h15v15H.5z"/><path d="M15 1v14H1V1h14m1-1H0v16h16V0z" fill="#ddd"/></svg><svg data-name="图层 1" width="18" height="18" viewBox="-1 -1 18 18" id="c-c" x="88" y="44" xmlns="http://www.w3.org/2000/svg"><path d="M0 0h16v16H0z" fill="#00a4ff"/><path fill="#fff" d="M13.8 5.4L12.5 4l-6 6.3-2.4-2.5-1.3 1.4 2.4 2.4L6.5 13l1.3-1.4 6-6.2z"/></svg><svg data-name="图层 1" width="18" height="18" viewBox="-1 -1 18 18" id="c-d" y="88" xmlns="http://www.w3.org/2000/svg"><path fill="#f7f8fa" d="M.5.5h15v15H.5z"/><path d="M15 1v14H1V1h14m1-1H0v16h16V0z" fill="#ddd"/></svg><svg data-name="图层 1" width="18" height="18" viewBox="-1 -1 18 18" id="c-d-c" x="88" y="62" xmlns="http://www.w3.org/2000/svg"><path fill="#f7f8fa" d="M.5.5h15v15H.5z"/><path d="M15 1v14H1V1h14m1-1H0v16h16z" fill="#ddd"/><path fill="#ddd" d="M13.8 5.4L12.5 4l-6 6.3-2.4-2.5-1.3 1.4 2.4 2.4L6.5 13l1.3-1.4 6-6.2z"/></svg><svg width="13" height="8" viewBox="-1 -1 13 8" id="caret" x="36" y="88" xmlns="http://www.w3.org/2000/svg"><path d="M10.313 0L5.5 4.667.688 0 0 .667l4.813 4.666L5.5 6l.687-.667L11 .667z" fill="#333" fill-rule="evenodd"/></svg><svg width="13" height="8" viewBox="-1 -1 13 8" id="caret-placeholder" x="88" y="80" xmlns="http://www.w3.org/2000/svg"><path d="M10.313 0L5.5 4.667.688 0 0 .667l4.813 4.666L5.5 6l.687-.667L11 .667z" fill="#999" fill-rule="evenodd"/></svg><svg width="22" height="22" viewBox="-1 -1 22 22" id="minus" y="44" xmlns="http://www.w3.org/2000/svg"><path d="M5 9h11v1H5z" fill="#333" fill-rule="nonzero"/></svg><svg width="22" height="22" viewBox="-1 -1 22 22" id="minus-disabled" x="22" y="44" xmlns="http://www.w3.org/2000/svg"><path d="M5 9h11v1H5z" fill="#999" fill-rule="nonzero"/></svg><svg width="22" height="22" viewBox="-1 -1 22 22" id="minus-hover" x="44" y="44" xmlns="http://www.w3.org/2000/svg"><path d="M5 9h11v1H5z" fill="#00a4ff" fill-rule="nonzero"/></svg><svg width="22" height="22" viewBox="-1 -1 22 22" id="minus-l" x="66" xmlns="http://www.w3.org/2000/svg"><path d="M3 10h13v1H3z" fill="#333" fill-rule="nonzero"/></svg><svg width="22" height="22" viewBox="-1 -1 22 22" id="minus-l-disabled" x="66" y="22" xmlns="http://www.w3.org/2000/svg"><path d="M3 10h13v1H3z" fill="#999" fill-rule="nonzero"/></svg><svg width="22" height="22" viewBox="-1 -1 22 22" id="minus-l-hover" x="66" y="44" xmlns="http://www.w3.org/2000/svg"><path d="M3 10h13v1H3z" fill="#00a4ff" fill-rule="nonzero"/></svg><svg width="22" height="22" viewBox="-1 -1 22 22" id="minus-s" xmlns="http://www.w3.org/2000/svg"><path d="M6 10h9v1H6z" fill="#333" fill-rule="nonzero"/></svg><svg width="22" height="22" viewBox="-1 -1 22 22" id="minus-s-disabled" x="22" y="66" xmlns="http://www.w3.org/2000/svg"><path d="M6 10h9v1H6z" fill="#999" fill-rule="nonzero"/></svg><svg width="22" height="22" viewBox="-1 -1 22 22" id="minus-s-hover" x="44" y="66" xmlns="http://www.w3.org/2000/svg"><path d="M6 10h9v1H6z" fill="#00a4ff" fill-rule="nonzero"/></svg><svg width="22" height="22" viewBox="-1 -1 22 22" id="plus" x="66" y="66" xmlns="http://www.w3.org/2000/svg"><g fill="#333" fill-rule="nonzero"><path d="M5 10h11v1H5z"/><path d="M11 5v11h-1V5z"/></g></svg><svg width="22" height="22" viewBox="-1 -1 22 22" id="plus-disabled" x="88" xmlns="http://www.w3.org/2000/svg"><g fill="#999" fill-rule="nonzero"><path d="M5 10h11v1H5z"/><path d="M11 5v11h-1V5z"/></g></svg><svg width="22" height="22" viewBox="-1 -1 22 22" id="plus-hover" x="88" y="22" xmlns="http://www.w3.org/2000/svg"><g fill="#00a4ff" fill-rule="nonzero"><path d="M5 10h11v1H5z"/><path d="M11 5v11h-1V5z"/></g></svg><svg width="22" height="22" viewBox="-1 -1 22 22" id="plus-l" y="66" xmlns="http://www.w3.org/2000/svg"><g fill="#333" fill-rule="nonzero"><path d="M4 10h13v1H4z"/><path d="M11 4v13h-1V4z"/></g></svg><svg width="22" height="22" viewBox="-1 -1 22 22" id="plus-l-disabled" x="44" y="22" xmlns="http://www.w3.org/2000/svg"><g fill="#999" fill-rule="nonzero"><path d="M4 10h13v1H4z"/><path d="M11 4v13h-1V4z"/></g></svg><svg width="22" height="22" viewBox="-1 -1 22 22" id="plus-l-hover" x="44" xmlns="http://www.w3.org/2000/svg"><g fill="#00a4ff" fill-rule="nonzero"><path d="M4 10h13v1H4z"/><path d="M11 4v13h-1V4z"/></g></svg><svg width="22" height="22" viewBox="-1 -1 22 22" id="plus-s" x="22" y="22" xmlns="http://www.w3.org/2000/svg"><g fill="#333" fill-rule="nonzero"><path d="M6 10h9v1H6z"/><path d="M11 6v9h-1V6z"/></g></svg><svg width="22" height="22" viewBox="-1 -1 22 22" id="plus-s-disabled" y="22" xmlns="http://www.w3.org/2000/svg"><g fill="#999" fill-rule="nonzero"><path d="M6 10h9v1H6z"/><path d="M11 6v9h-1V6z"/></g></svg><svg width="22" height="22" viewBox="-1 -1 22 22" id="plus-s-hover" x="22" xmlns="http://www.w3.org/2000/svg"><g fill="#00a4ff" fill-rule="nonzero"><path d="M6 10h9v1H6z"/><path d="M11 6v9h-1V6z"/></g></svg></svg>