<?xml version="1.0" encoding="UTF-8"?><!DOCTYPE svg PUBLIC "-//W3C//DTD SVG 1.1//EN" "http://www.w3.org/Graphics/SVG/1.1/DTD/svg11.dtd"><svg width="283" height="266" viewBox="0 0 283 266" xmlns="http://www.w3.org/2000/svg" xmlns:xlink="http://www.w3.org/1999/xlink"><svg width="13" height="9" viewBox="-1 -1 13 9" id="arrow-down-active-s" x="81" y="110" xmlns="http://www.w3.org/2000/svg"><path fill="#00A4FF" fill-rule="nonzero" d="M5.504 4.656L9.892.008 11 1.183 5.509 7l-.005-.005L0 1.174 1.108 0z"/></svg><svg width="13" height="9" viewBox="-1 -1 13 9" id="arrow-down-s" x="196" y="168" xmlns="http://www.w3.org/2000/svg"><path fill="#999" fill-rule="nonzero" d="M5.504 4.656L9.892.008 11 1.183 5.509 7l-.005-.005L0 1.174 1.108 0z"/></svg><svg width="13" height="9" viewBox="-1 -1 13 9" id="arrow-down-s-#00a4ff" x="68" y="110" xmlns="http://www.w3.org/2000/svg"><path d="M5.5 4.2L1.376 0 0 1.4 5.5 7l1.376-1.4L11 1.4 9.624 0z" fill-rule="nonzero" fill="#00a4ff"/></svg><svg width="13" height="9" viewBox="-1 -1 13 9" id="arrow-up-s" x="10" y="252" xmlns="http://www.w3.org/2000/svg"><path fill="#00A4FF" fill-rule="nonzero" d="M5.504 2.344l4.388 4.648L11 5.817 5.509 0l-.005.005L0 5.826 1.108 7z"/></svg><svg width="68" height="62" viewBox="-1 -1 68 62" id="award-img" y="58" xmlns="http://www.w3.org/2000/svg"><path d="M81.783 56.396c-1.673 1.656-4.659 3.537-9.56 3.704-2.266.076-4.912.085-6.123.085H39.766l18.887-18.343c.868-.844 2.822-2.713 4.507-4.23 3.699-3.33 7.029-4 9.384-3.979a13.412 13.412 0 0 1 9.444 3.974c5.132 5.245 5.011 13.627-.205 18.789m6.308-24.76c-3.935-4.012-9.42-6.54-15.516-6.54-5.27-.001-9.808 1.816-13.769 5.042-1.727 1.406-3.538 3.09-5.817 5.303L27.49 60.183a180.36 180.36 0 0 1-5.067-.083c-4.9-.167-7.886-2.048-9.56-3.704-5.216-5.162-5.337-13.544-.205-18.789a13.415 13.415 0 0 1 9.445-3.974c2.312-.009 5.45.662 8.996 3.601 1.745 1.448 5.688 4.916 7.248 6.328l6.121-5.971c-2.803-2.536-6.894-6.192-9.324-8.002-2.51-1.878-5.214-3.212-8.144-3.917.03.006.061.01.092.018 1.976-9.432 10.314-16.44 20.23-16.44 8.26 0 15.504 4.983 18.77 12.04.052.112.14.149.228.124 2.457-.675 5.402-1.067 8.247-.857.277.02.384-.136.295-.39C70.848 8.83 60.038.704 47.323.704c-14.584 0-26.67 10.724-28.859 24.695h.02a21.739 21.739 0 0 0-11.928 6.238c-8.429 8.616-8.3 22.38.337 30.862 3.468 3.406 7.668 5.258 12.148 5.884l-.001.001c1.72.245 4.086.318 6.196.331 1.976.013 39.681.009 41.26.009 3.177 0 5.244-.003 7.465-.166 5.093-.372 9.904-2.24 13.793-6.059 8.637-8.481 8.766-22.246.337-30.862" fill="#E6E8EB" fill-rule="evenodd"/></svg><svg width="18" height="18" viewBox="-1 -1 18 18" id="calendar" x="72" y="180" xmlns="http://www.w3.org/2000/svg"><g fill="#888"><path d="M12 3V2h-2v1H6V2H4v1H2v11h12V3h-2zm0 9H4V5h8v7z"/><path d="M5 6h2v2H5zM5 9h2v2H5zM9 6h2v2H9zM9 9h2v2H9z"/></g></svg><svg width="18" height="18" viewBox="-1 -1 18 18" id="calendar" x="90" y="180" xmlns="http://www.w3.org/2000/svg"><g fill="#666" fill-rule="evenodd"><path fill-rule="nonzero" d="M1 2h14v13H1V2zm1 1v11h12V3H2z"/><path d="M4 1h1v3H4V1zm7 0h1v3h-1V1zM1 5h14v1H1V5zm3 3h8v1H4V8zm0 3h8v1H4v-1z"/></g></svg><svg data-name="图层 1" width="18" height="18" viewBox="-1 -1 18 18" id="checkbox" x="108" y="180" xmlns="http://www.w3.org/2000/svg"><path fill="#fff" d="M.5.5h15v15H.5z"/><path d="M15 1v14H1V1h14m1-1H0v16h16V0z" fill="#d2d5d9"/></svg><svg data-name="图层 1" width="18" height="18" viewBox="-1 -1 18 18" id="checkbox-checked" x="252" y="54" xmlns="http://www.w3.org/2000/svg"><path d="M0 0h16v16H0z" fill="#00a4ff"/><path fill="#fff" d="M13.8 5.4L12.5 4l-6 6.3-2.4-2.5-1.3 1.4 2.4 2.4L6.5 13l1.3-1.4 6-6.2z"/></svg><svg data-name="图层 1" width="18" height="18" viewBox="-1 -1 18 18" id="checkbox-checked-disabled" x="196" y="114" xmlns="http://www.w3.org/2000/svg"><path fill="#fff" d="M.5.5h15v15H.5z"/><path d="M15 1v14H1V1h14m1-1H0v16h16z" fill="#d2d5d9"/><path fill="#d2d5d9" d="M13.8 5.4L12.5 4l-6 6.3-2.4-2.5-1.3 1.4 2.4 2.4L6.5 13l1.3-1.4 6-6.2z"/></svg><svg data-name="图层 1" width="18" height="18" viewBox="-1 -1 18 18" id="checkbox-disabled" x="18" y="180" xmlns="http://www.w3.org/2000/svg"><path fill="#e4e7eb" d="M.5.5h15v15H.5z"/><path d="M15 1v14H1V1h14m1-1H0v16h16V0z" fill="#d2d5d9"/></svg><svg data-name="图层 1" width="18" height="18" viewBox="-1 -1 18 18" id="checkboxblock-activied" x="36" y="180" xmlns="http://www.w3.org/2000/svg"><path d="M16 0v16H0z" fill="#00a4ff" fill-rule="evenodd"/><path fill="#fff" d="M7.883 10.462l2.828 2.828-.707.707-2.828-2.828z"/><path fill="#fff" d="M9.297 13.292l4.95-4.95.707.708-4.95 4.95z"/></svg><svg width="94" height="20" viewBox="-1 -1 94 20" id="college-logo-pc" xmlns="http://www.w3.org/2000/svg"><g fill="#FFF" fill-rule="evenodd"><path d="M68.284 12.6a11.848 11.848 0 0 0 4.76 3.552v1.764a.085.085 0 0 1-.113.079 13.627 13.627 0 0 1-6.033-4.297 13.478 13.478 0 0 1-2.069-3.632 13.279 13.279 0 0 1-1.882 3.407 13.428 13.428 0 0 1-6.211 4.522.085.085 0 0 1-.113-.079V16.15a11.667 11.667 0 0 0 4.927-3.762c1.232-1.616 1.994-3.523 2.273-5.518h-7.2V5.254h7.32l.002-.108V.256h1.771V5.253h7.328V6.87h-7.217a11.762 11.762 0 0 0 2.457 5.73zm16.895-.989H92v1.616h-7.08v4.647h-4.833l-.515-1.655a.083.083 0 0 1 .08-.107h3.497v-2.885h-7.936V11.61h7.863v-.566l3.21-2.079h-8.004V7.351h10.594v1.866l-3.697 2.394zm-7.792-6.113v2.48h-1.771V3.884h10.4L88.48.321h1.991c.068 0 .107.075.07.13l-2.376 3.432h3.396v4.095h-1.771v-2.48H77.387zm.742-2.647L76.411.452a.083.083 0 0 1 .068-.131h2.013l1.718 2.398c.04.055 0 .132-.068.132h-2.013zm4.761.294l-1.533-2.7a.083.083 0 0 1 .073-.124h1.891l1.533 2.7a.083.083 0 0 1-.073.124h-1.89zM2.157 5.704h2.067V2.217H2.157v3.487zm0 4.836h2.067V7.026H2.157v3.514zm11.317 3.335H5.697V.748H.682v10.41c0 2.67-.218 4.697-.664 6.493-.047.167.004.211.091.211h1.48c.494-2.467.559-4.514.567-6h2.068v4.566H2.756c-.072 0-.127.047-.09.148l.405 1.321h2.626v-2.553h7.777v-1.469z"/><path d="M9.27 8.229c.376-.43.739-.933 1.077-1.527h2.628c.353.578.734 1.083 1.127 1.527H9.27zm5.511-1.527h1.982V5.38h-5.774c.174-.423.331-.875.474-1.366H16.4V2.692h-1.447l.542-1.836c.028-.098-.023-.136-.087-.136h-1.256l-.583 1.972h-1.776c.166-.764.31-1.61.441-2.56.016-.11-.044-.132-.117-.132h-1.43a29.68 29.68 0 0 1-.496 2.692h-.87L8.738.72H7.482c-.063 0-.115.038-.086.136l.541 1.836H6.53v1.322h3.29c-.134.417-.33.909-.541 1.366H6.167v1.322h2.337c-.943 1.33-1.95 1.943-2.351 2.188v1.512c0 .076.06.157.3.021.437-.246.903-.525 1.375-.873h5.497l-.046 1.98h-4.34l.066-1.184a.087.087 0 0 0-.09-.089H7.527l-.14 2.505c0 .051.038.09.09.09h7.488v3.574H11.59c-.071 0-.127.046-.089.148l.405 1.32h4.683V11.53h-1.834l.06-2.57a10.692 10.692 0 0 0 2.014 1.463c.24.136.3.055.3-.021V8.89a7.594 7.594 0 0 1-2.348-2.188zM28.941 7.534h3.882V2.18h-3.882v5.354zM34.447.711h-10.2v1.47h3.07v5.353H23.8v1.469h3.519v8.98h1.623v-8.98h3.882v8.79h3.066v-1.468h-1.442V.71z"/><path d="M25.276 12.854l-2.737 2.064V5.371h-3.793v1.616h2.18v9.147l-.871.657.89 1.171 4.478-3.375v-1.664c0-.08-.088-.113-.147-.069M21.14 3.925h1.775c.078 0 .11-.085.076-.138l-2.238-3.4h-1.774c-.068 0-.116.076-.08.133l2.242 3.405M39.777 2.719H52.59V1.103H39.777zM37.973 8.824h4.556c-.941 2.459-3.303 8.628-3.319 8.673-.026.072.021.125.084.125h14.163c.067 0 .106-.066.082-.128l-2.112-5.525h-1.763a.09.09 0 0 0-.085.123l1.495 3.914h-9.392l2.742-7.182h9.97V7.209H37.973v1.615z"/></g></svg><svg width="94" height="20" viewBox="-1 -1 94 20" id="college-logo-pc-white" y="20" xmlns="http://www.w3.org/2000/svg"><g fill="#000" fill-rule="evenodd"><path d="M68.284 12.6a11.848 11.848 0 0 0 4.76 3.552v1.764a.085.085 0 0 1-.113.079 13.627 13.627 0 0 1-6.033-4.297 13.478 13.478 0 0 1-2.069-3.632 13.279 13.279 0 0 1-1.882 3.407 13.428 13.428 0 0 1-6.211 4.522.085.085 0 0 1-.113-.079V16.15a11.667 11.667 0 0 0 4.927-3.762c1.232-1.616 1.994-3.523 2.273-5.518h-7.2V5.254h7.32l.002-.108V.256h1.771V5.253h7.328V6.87h-7.217a11.762 11.762 0 0 0 2.457 5.73zm16.895-.989H92v1.616h-7.08v4.647h-4.833l-.515-1.655a.083.083 0 0 1 .08-.107h3.497v-2.885h-7.936V11.61h7.863v-.566l3.21-2.079h-8.004V7.351h10.594v1.866l-3.697 2.394zm-7.792-6.113v2.48h-1.771V3.884h10.4L88.48.321h1.991c.068 0 .107.075.07.13l-2.376 3.432h3.396v4.095h-1.771v-2.48H77.387zm.742-2.647L76.411.452a.083.083 0 0 1 .068-.131h2.013l1.718 2.398c.04.055 0 .132-.068.132h-2.013zm4.761.294l-1.533-2.7a.083.083 0 0 1 .073-.124h1.891l1.533 2.7a.083.083 0 0 1-.073.124h-1.89zM2.157 5.704h2.067V2.217H2.157v3.487zm0 4.836h2.067V7.026H2.157v3.514zm11.317 3.335H5.697V.748H.682v10.41c0 2.67-.218 4.697-.664 6.493-.047.167.004.211.091.211h1.48c.494-2.467.559-4.514.567-6h2.068v4.566H2.756c-.072 0-.127.047-.09.148l.405 1.321h2.626v-2.553h7.777v-1.469z"/><path d="M9.27 8.229c.376-.43.739-.933 1.077-1.527h2.628c.353.578.734 1.083 1.127 1.527H9.27zm5.511-1.527h1.982V5.38h-5.774c.174-.423.331-.875.474-1.366H16.4V2.692h-1.447l.542-1.836c.028-.098-.023-.136-.087-.136h-1.256l-.583 1.972h-1.776c.166-.764.31-1.61.441-2.56.016-.11-.044-.132-.117-.132h-1.43a29.68 29.68 0 0 1-.496 2.692h-.87L8.738.72H7.482c-.063 0-.115.038-.086.136l.541 1.836H6.53v1.322h3.29c-.134.417-.33.909-.541 1.366H6.167v1.322h2.337c-.943 1.33-1.95 1.943-2.351 2.188v1.512c0 .076.06.157.3.021.437-.246.903-.525 1.375-.873h5.497l-.046 1.98h-4.34l.066-1.184a.087.087 0 0 0-.09-.089H7.527l-.14 2.505c0 .051.038.09.09.09h7.488v3.574H11.59c-.071 0-.127.046-.089.148l.405 1.32h4.683V11.53h-1.834l.06-2.57a10.692 10.692 0 0 0 2.014 1.463c.24.136.3.055.3-.021V8.89a7.594 7.594 0 0 1-2.348-2.188zM28.941 7.534h3.882V2.18h-3.882v5.354zM34.447.711h-10.2v1.47h3.07v5.353H23.8v1.469h3.519v8.98h1.623v-8.98h3.882v8.79h3.066v-1.468h-1.442V.71z"/><path d="M25.276 12.854l-2.737 2.064V5.371h-3.793v1.616h2.18v9.147l-.871.657.89 1.171 4.478-3.375v-1.664c0-.08-.088-.113-.147-.069M21.14 3.925h1.775c.078 0 .11-.085.076-.138l-2.238-3.4h-1.774c-.068 0-.116.076-.08.133l2.242 3.405M39.777 2.719H52.59V1.103H39.777zM37.973 8.824h4.556c-.941 2.459-3.303 8.628-3.319 8.673-.026.072.021.125.084.125h14.163c.067 0 .106-.066.082-.128l-2.112-5.525h-1.763a.09.09 0 0 0-.085.123l1.495 3.914h-9.392l2.742-7.182h9.97V7.209H37.973v1.615z"/></g></svg><svg id="event" width="20" height="20" viewBox="-1 -1 20 20" x="196" y="20" xmlns="http://www.w3.org/2000/svg"><style>.aost0{fill:#fff}</style><path class="aost0" d="M13.1 2c.2 0 .5 0 .7.3.3.3.3.7.2 1l-.2.7h-3.1l1.7-1.7c.2-.3.5-.3.7-.3M4.9 2c.2 0 .5 0 .7.3L7.3 4H4.2L4 3.3c-.1-.3-.1-.7.2-1 .3-.3.6-.3.7-.3m8.2-2c-.8 0-1.5.3-2.1.9L9 2.8 7.1.9C6.5.3 5.7 0 4.9 0c-.7 0-1.5.3-2.1.9-.8.8-1.1 2-.7 3.1H0v7h1v7h16v-7h1V4h-2.1c.4-1.1.1-2.3-.7-3.1-.6-.6-1.4-.9-2.1-.9zM2 9V6h14v3H2zm8 7v-5h5v5h-5zm-7 0v-5h5v5H3z"/></svg><svg id="feedback" width="20" height="20" viewBox="-1 -1 20 20" x="196" xmlns="http://www.w3.org/2000/svg"><style>.apst0{fill:#666}</style><g id="apXMLID_72_"><path id="apXMLID_78_" class="apst0" d="M5 13h4l8.7-8.7c.4-.4.4-1 0-1.4L15.1.3c-.2-.2-.5-.3-.7-.3-.3 0-.5.1-.7.3L5 9v4zm9.4-10.6l1.2 1.2-1 1-1.2-1.2 1-1zM7 9.8l4.4-4.5 1.2 1.2L8.2 11H7V9.8zm9 6.2H2V2h7V0H0v18h18V9h-2v7z"/></g></svg><svg width="18" height="18" viewBox="-1 -1 18 18" id="first-page" x="126" y="180" xmlns="http://www.w3.org/2000/svg"><g fill="#333"><path d="M6 8l5 4V4zM5 4v8h1V4z"/></g></svg><svg width="18" height="18" viewBox="-1 -1 18 18" id="first-page-#bbb" x="36" y="198" xmlns="http://www.w3.org/2000/svg"><g fill="#bbb"><path d="M6 8l5 4V4zM5 4v8h1V4z"/></g></svg><svg width="9" height="7" viewBox="-1 -1 9 7" id="gift-checked" x="270" y="172" xmlns="http://www.w3.org/2000/svg"><defs><path id="asa" d="M6 0h1v1H6V0zM5 1h1v1H5V1zM4 2h1v1H4V2zM3 3h1v1H3V3zM2 4h1v1H2V4zM1 3h1v1H1V3zM0 2h1v1H0V2z"/></defs><clipPath id="asb"><use xlink:href="#asa" overflow="visible"/></clipPath><g clip-path="url(#asb)"><defs><path id="asc" d="M-979-358H941v2180H-979z"/></defs><clipPath id="asd"><use xlink:href="#asc" overflow="visible"/></clipPath><path clip-path="url(#asd)" fill="#fff" d="M-5-5h17v15H-5z"/></g></svg><svg width="18" height="18" viewBox="-1 -1 18 18" id="icon-add" x="126" y="198" xmlns="http://www.w3.org/2000/svg"><path fill="#666" fill-rule="evenodd" d="M8 8V3h1v5h5v1H9v5H8V9H3V8h5z"/></svg><svg width="18" height="18" viewBox="-1 -1 18 18" id="icon-add-white" x="144" y="198" xmlns="http://www.w3.org/2000/svg"><path fill="#fff" fill-rule="evenodd" d="M8 8V3h1v5h5v1H9v5H8V9H3V8h5z"/></svg><svg width="18" height="18" viewBox="-1 -1 18 18" id="icon-arrow-double-left" x="144" y="216" xmlns="http://www.w3.org/2000/svg"><path fill="#666" fill-rule="evenodd" d="M9.414 8.243l3.536 3.535-.707.707L8 8.243 12.243 4l.707.707-3.536 3.536zm-4 0l3.536 3.535-.707.707L4 8.243 8.243 4l.707.707-3.536 3.536z"/></svg><svg width="18" height="18" viewBox="-1 -1 18 18" id="icon-arrow-left" x="234" y="54" xmlns="http://www.w3.org/2000/svg"><path fill="#666" fill-rule="evenodd" d="M6.414 8.243l3.536 3.535-.707.707L5 8.243 9.243 4l.707.707z"/></svg><svg width="18" height="18" viewBox="-1 -1 18 18" id="icon-arrow-right" x="234" y="108" xmlns="http://www.w3.org/2000/svg"><path fill="#999" d="M8.7 8L4.5 3.876 5.9 2.5 11.5 8l-1.4 1.376L5.9 13.5l-1.4-1.376z"/></svg><svg width="18" height="18" viewBox="-1 -1 18 18" id="icon-arrow-right" x="234" y="162" xmlns="http://www.w3.org/2000/svg"><path fill="#999" d="M8.7 8L4.5 3.876 5.9 2.5 11.5 8l-1.4 1.376L5.9 13.5l-1.4-1.376z"/></svg><svg width="18" height="18" viewBox="-1 -1 18 18" id="icon-arrow-right" x="144" y="234" xmlns="http://www.w3.org/2000/svg"><path fill="#00A4FF" fill-rule="evenodd" d="M5 6l3 2-3 2v2l6-4-6-4z"/></svg><svg width="18" height="18" viewBox="-1 -1 18 18" id="icon-arrow-right-circle" x="162" y="234" xmlns="http://www.w3.org/2000/svg"><path d="M8 15A7 7 0 1 0 8 1a7 7 0 0 0 0 14zm0 1A8 8 0 1 1 8 0a8 8 0 0 1 0 16zm.8-8L6 6V4l5 4-5 4v-2l2.8-2z" fill="#666" fill-rule="nonzero"/></svg><svg width="18" height="18" viewBox="-1 -1 18 18" id="icon-arrow-right-circle-primary" x="198" y="234" xmlns="http://www.w3.org/2000/svg"><path d="M8 15A7 7 0 1 0 8 1a7 7 0 0 0 0 14zm0 1A8 8 0 1 1 8 0a8 8 0 0 1 0 16zm.8-8L6 6V4l5 4-5 4v-2l2.8-2z" fill="#00A4FF" fill-rule="nonzero"/></svg><svg width="18" height="18" viewBox="-1 -1 18 18" id="icon-arrow-right-dark" x="216" y="234" xmlns="http://www.w3.org/2000/svg"><path d="M8.7 8L4.5 3.876 5.9 2.5 11.5 8l-1.4 1.376L5.9 13.5l-1.4-1.376z"/></svg><svg id="icon-bubble-toggle" width="18" height="18" viewBox="-1 -1 18 18" x="234" y="234" xmlns="http://www.w3.org/2000/svg"><style>.bdst0{fill:#000}</style><path class="bdst0" d="M9 7H6v1h1v4h1.9l1-1H9V7zm0-3H7v2h2V4zM8 1C4.1 1 1 4.1 1 8s3.1 7 7 7 7-3.1 7-7-3.1-7-7-7zm0 12.5C5 13.5 2.5 11 2.5 8S5 2.5 8 2.5 13.5 5 13.5 8 11 13.5 8 13.5z"/></svg><svg id="icon-bubble-toggle-primary" width="18" height="18" viewBox="-1 -1 18 18" x="252" xmlns="http://www.w3.org/2000/svg"><style>.best0{fill:#00a4ff}</style><path class="best0" d="M9 7H6v1h1v4h1.9l1-1H9V7zm0-3H7v2h2V4zM8 1C4.1 1 1 4.1 1 8s3.1 7 7 7 7-3.1 7-7-3.1-7-7-7zm0 12.5C5 13.5 2.5 11 2.5 8S5 2.5 8 2.5 13.5 5 13.5 8 11 13.5 8 13.5z"/></svg><svg width="18" height="18" viewBox="-1 -1 18 18" id="icon-calendar" x="252" y="18" xmlns="http://www.w3.org/2000/svg"><g fill-rule="nonzero" fill="none"><path d="M10 4H2v10h12V4h-4zm2-2h4v14H0V2h4V0h2v2h4V0h2v2zM2 5h12v2H2V5z" fill="#334966"/><path fill="#00A4FF" d="M7 8h6v5H7z"/></g></svg><svg width="34" height="34" viewBox="-1 -1 34 34" id="icon-camera" x="94" y="68" xmlns="http://www.w3.org/2000/svg"><path fill="#FFF" fill-rule="evenodd" d="M6.6 7L9 3h14l2.4 4H32v22H0V7h6.6zM16 23a6 6 0 1 1 0-12 6 6 0 0 1 0 12zm0 2a8 8 0 1 0 0-16 8 8 0 0 0 0 16z"/></svg><svg width="18" height="18" viewBox="-1 -1 18 18" id="icon-catalog" x="252" y="72" xmlns="http://www.w3.org/2000/svg"><g fill="none" fill-rule="evenodd"><path d="M0 0h16v16H0z"/><path d="M0 1h16v2H0V1zm0 12h16v2H0v-2zm0-6h16v2H0V7z" fill="#666"/></g></svg><svg width="18" height="18" viewBox="-1 -1 18 18" id="icon-catalog-active" x="196" y="78" xmlns="http://www.w3.org/2000/svg"><g fill="none" fill-rule="evenodd"><path d="M0 0h16v16H0z"/><path d="M0 1h16v2H0V1zm0 12h16v2H0v-2zm0-6h16v2H0V7z" fill="#00A4FF"/></g></svg><svg width="13" height="13" viewBox="-1 -1 13 13" id="icon-clear" x="270" xmlns="http://www.w3.org/2000/svg"><g fill="#7C848E" fill-rule="evenodd"><path d="M9.9 0L0 9.9l.707.707 9.9-9.899z"/><path d="M.707 0L0 .707l9.9 9.9.706-.706V9.9z"/></g></svg><svg width="13" height="13" viewBox="-1 -1 13 13" id="icon-clear-#00a4ff" x="270" y="40" xmlns="http://www.w3.org/2000/svg"><g fill="#00a4ff" fill-rule="evenodd"><path d="M9.9 0L0 9.9l.707.707 9.9-9.899z"/><path d="M.707 0L0 .707l9.9 9.9.706-.706V9.9z"/></g></svg><svg width="18" height="18" viewBox="-1 -1 18 18" id="icon-close" x="196" y="132" xmlns="http://www.w3.org/2000/svg"><g fill="none" fill-rule="evenodd"><path d="M1 1h14v14H1z"/><path d="M8 7.09l3.636-3.635a.643.643 0 0 1 .91.909L8.908 8l3.636 3.636a.643.643 0 0 1-.909.91L8 8.908l-3.636 3.636a.643.643 0 0 1-.91-.909L7.092 8 3.455 4.364a.643.643 0 1 1 .909-.91L8 7.092z" fill="#666" fill-rule="nonzero"/></g></svg><svg data-name="图层 1" width="18" height="18" viewBox="-1 -1 18 18" id="icon-close" x="196" y="150" xmlns="http://www.w3.org/2000/svg"><path fill="#888" d="M12.574 1.999L8 6.573 3.426 1.999 2 3.426l4.574 4.575L2 12.574 3.426 14 8 9.427 12.574 14l1.427-1.426-4.575-4.573 4.575-4.575-1.427-1.427z"/></svg><svg width="18" height="18" viewBox="-1 -1 18 18" id="icon-close-primary" x="128" y="102" xmlns="http://www.w3.org/2000/svg"><g fill="none" fill-rule="evenodd"><path d="M1 1h14v14H1z"/><path d="M8 7.09l3.636-3.635a.643.643 0 0 1 .91.909L8.908 8l3.636 3.636a.643.643 0 0 1-.909.91L8 8.908l-3.636 3.636a.643.643 0 0 1-.91-.909L7.092 8 3.455 4.364a.643.643 0 1 1 .909-.91L8 7.092z" fill="#00A4FF" fill-rule="nonzero"/></g></svg><svg width="13" height="9" viewBox="-1 -1 13 9" id="icon-collapse-down-s" x="270" y="31" xmlns="http://www.w3.org/2000/svg"><path d="M5.5 4.2L1.376 0 0 1.4 5.5 7l1.376-1.4L11 1.4 9.624 0z" fill="#999" fill-rule="nonzero"/></svg><svg width="13" height="9" viewBox="-1 -1 13 9" id="icon-collapse-down-s-disabled" x="270" y="22" xmlns="http://www.w3.org/2000/svg"><path d="M5.5 4.2L1.376 0 0 1.4 5.5 7l1.376-1.4L11 1.4 9.624 0z" fill="#CCC" fill-rule="nonzero"/></svg><svg width="13" height="9" viewBox="-1 -1 13 9" id="icon-collapse-up-s-primary" x="270" y="13" xmlns="http://www.w3.org/2000/svg"><path d="M5.5 2.8L1.376 7 0 5.6 5.5 0l1.376 1.4L11 5.6 9.624 7z" fill="#00a4ff" fill-rule="nonzero"/></svg><svg id="icon-contact" viewBox="-1 -1 34 34" width="34" height="34" x="128" y="34" xmlns="http://www.w3.org/2000/svg"><style>.brst0,.brst1{fill:#fff}.brst1{fill-rule:evenodd;clip-rule:evenodd}</style><path id="brXMLID_7_" class="brst0" d="M16 0C7.2 0 0 7.2 0 16s7.2 16 16 16 16-7.2 16-16S24.8 0 16 0zm0 30C8.3 30 2 23.7 2 16S8.3 2 16 2s14 6.3 14 14-6.3 14-14 14z"/><g id="brXMLID_2_"><g id="brXMLID_47_"><path id="brXMLID_48_" class="brst1" d="M22 10H10c-1.1 0-2 .9-2 2v8c0 1.1.9 2 2 2h12c1.1 0 2-.9 2-2v-8c0-1.1-.9-2-2-2zm-2.1 2L16 15.7 12.1 12h7.8zm2.1 6c0 2.1 0 2-2 2h-8c-2 0-2 0-2-2v-4c0-.7 0-1.2.1-1.5l4.7 4.4-.2.1 1.4 1 1.4-1-.2-.2 4.7-4.3c.1.3.1.8.1 1.5v4z"/></g></g></svg><svg width="34" height="34" viewBox="-1 -1 34 34" id="icon-contact-#00a4ff" x="128" y="68" xmlns="http://www.w3.org/2000/svg"><style>.bsst0,.bsst1{fill:#00a4ff}.bsst1{fill-rule:evenodd;clip-rule:evenodd}</style><path class="bsst0" d="M16 0C7.2 0 0 7.2 0 16s7.2 16 16 16 16-7.2 16-16S24.8 0 16 0zm0 30C8.3 30 2 23.7 2 16S8.3 2 16 2s14 6.3 14 14-6.3 14-14 14z"/><path class="bsst1" d="M22 10H10c-1.1 0-2 .9-2 2v8c0 1.1.9 2 2 2h12c1.1 0 2-.9 2-2v-8c0-1.1-.9-2-2-2zm-2.1 2L16 15.7 12.1 12h7.8zm2.1 6c0 2.1 0 2-2 2h-8c-2 0-2 0-2-2v-4c0-.7 0-1.2.1-1.5l4.7 4.4-.2.1 1.4 1 1.4-1-.2-.2 4.7-4.3c.1.3.1.8.1 1.5v4z"/></svg><svg width="18" height="18" viewBox="-1 -1 18 18" id="icon-correct-circle" x="54" y="180" xmlns="http://www.w3.org/2000/svg"><g fill="none" fill-rule="evenodd"><circle cx="8" cy="8" r="8" fill="#0ABF5B" fill-rule="nonzero"/><path fill="#FFF" d="M5.154 6.6L4 7.8 7.077 11 12 6.2 10.846 5 7.077 8.6z"/></g></svg><svg width="26" height="26" viewBox="-1 -1 26 26" id="icon-correct-circle-m" x="162" y="86" xmlns="http://www.w3.org/2000/svg"><g fill-rule="nonzero" fill="none"><path d="M12 24C5.373 24 0 18.627 0 12S5.373 0 12 0s12 5.373 12 12-5.373 12-12 12z" fill="#0ABF5B"/><path fill="#FFF" d="M8 11l2.997 3L16 8l1 1-6 8-4-5z"/></g></svg><svg width="26" height="26" viewBox="-1 -1 26 26" id="icon-dialog-success" x="68" y="84" xmlns="http://www.w3.org/2000/svg"><path d="M12 24C5.373 24 0 18.627 0 12S5.373 0 12 0s12 5.373 12 12-5.373 12-12 12zm0-2c5.523 0 10-4.477 10-10S17.523 2 12 2 2 6.477 2 12s4.477 10 10 10zm4.24-14.65l1.52 1.3-6.704 7.82-4.763-4.763 1.414-1.414 3.237 3.236 5.297-6.18z" fill="#0ABF5B" fill-rule="nonzero"/></svg><svg width="26" height="26" viewBox="-1 -1 26 26" id="icon-dialog-warning" y="154" xmlns="http://www.w3.org/2000/svg"><path fill="#F0B64B" d="M12 22c5.523 0 10-4.477 10-10S17.523 2 12 2 2 6.477 2 12s4.477 10 10 10zm0 2C5.373 24 0 18.627 0 12S5.373 0 12 0s12 5.373 12 12-5.373 12-12 12zM11 6v8h2V6h-2zm0 10v2h2v-2h-2z"/></svg><svg id="icon-disclaimer" viewBox="-1 -1 34 34" width="34" height="34" y="120" xmlns="http://www.w3.org/2000/svg"><style>.bxst0{fill:#fff}</style><path id="bxXMLID_7_" class="bxst0" d="M16 0C7.2 0 0 7.2 0 16s7.2 16 16 16 16-7.2 16-16S24.8 0 16 0zm0 30C8.3 30 2 23.7 2 16S8.3 2 16 2s14 6.3 14 14-6.3 14-14 14z"/><g id="bxXMLID_1_"><path id="bxXMLID_13_" class="bxst0" d="M9.7 14.4l-1-1.2c1.9-1.1 3.5-2.7 4.8-4.6l1.5.3c-.2.4-.5.7-.7 1h5.3v1.2c-.6.7-1.1 1.3-1.7 1.9h3.7v5.1H18V21c0 .5.2.7.6.7H21c.2 0 .4-.1.5-.3.1-.2.2-.9.2-2l1.4.5c-.1 1.6-.3 2.5-.6 2.9-.3.3-.7.4-1.3.4H18c-1.1 0-1.6-.6-1.6-1.9v-3.2H16c-.1.3-.2.6-.3.8-.8 1.8-2.8 3.4-5.9 4.6l-1-1.2c2.8-1 4.5-2.3 5.4-3.8.1-.2.1-.3.2-.4h-3.8v-4.3l-.9.6zm8.1-3.1h-4.5c-.5.6-1.1 1.1-1.7 1.6h4.5c.6-.5 1.1-1 1.7-1.6zm-2.6 3h-3.1v2.3h2.8c.1-.7.2-1.4.3-2.3zm5 0h-3.6c0 .8-.1 1.6-.3 2.3h3.8v-2.3z"/></g></svg><svg width="34" height="34" viewBox="-1 -1 34 34" id="icon-disclaimer-#00a4ff" x="34" y="120" xmlns="http://www.w3.org/2000/svg"><style>.byst0{fill:#00a4ff}</style><path class="byst0" d="M16 0C7.2 0 0 7.2 0 16s7.2 16 16 16 16-7.2 16-16S24.8 0 16 0zm0 30C8.3 30 2 23.7 2 16S8.3 2 16 2s14 6.3 14 14-6.3 14-14 14z"/><path class="byst0" d="M9.7 14.4l-1-1.2c1.9-1.1 3.5-2.7 4.8-4.6l1.5.3c-.2.4-.5.7-.7 1h5.3v1.2c-.6.7-1.1 1.3-1.7 1.9h3.7v5.1H18V21c0 .5.2.7.6.7H21c.2 0 .4-.1.5-.3.1-.2.2-.9.2-2l1.4.5c-.1 1.6-.3 2.5-.6 2.9-.3.3-.7.4-1.3.4H18c-1.1 0-1.6-.6-1.6-1.9v-3.2H16c-.1.3-.2.6-.3.8-.8 1.8-2.8 3.4-5.9 4.6l-1-1.2c2.8-1 4.5-2.3 5.4-3.8.1-.2.1-.3.2-.4h-3.8v-4.3l-.9.6zm8.1-3.1h-4.5c-.5.6-1.1 1.1-1.7 1.6h4.5c.6-.5 1.1-1 1.7-1.6zm-2.6 3h-3.1v2.3h2.8c.1-.7.2-1.4.3-2.3zm5 0h-3.6c0 .8-.1 1.6-.3 2.3h3.8v-2.3z"/></svg><svg width="18" height="18" viewBox="-1 -1 18 18" id="icon-discuss" x="144" y="180" xmlns="http://www.w3.org/2000/svg"><path d="M3.078 14H8a6 6 0 1 0-4.884-2.514l.665.93L3.078 14zM0 8a8 8 0 1 1 8 8H0l1.49-3.35A7.964 7.964 0 0 1 0 8z" fill="#666" fill-rule="nonzero"/></svg><svg width="18" height="18" viewBox="-1 -1 18 18" id="icon-discuss-active" x="162" y="180" xmlns="http://www.w3.org/2000/svg"><path d="M3.078 14H8a6 6 0 1 0-4.884-2.514l.665.93L3.078 14zM0 8a8 8 0 1 1 8 8H0l1.49-3.35A7.964 7.964 0 0 1 0 8z" fill="#00A4FF" fill-rule="nonzero"/></svg><svg width="18" height="18" viewBox="-1 -1 18 18" id="icon-doc-circle" x="180" y="180" xmlns="http://www.w3.org/2000/svg"><g fill="#7C848E" fill-rule="evenodd"><path d="M3 9h8V8H3z"/><path d="M3 9h8V8H3zM3 13h8v-1H3z"/><path d="M3 13h8v-1H3zM3 11h6v-1H3z"/><path d="M3 11h6v-1H3z"/><path d="M1 0v16h14V5l-5-5H1zm1 1h7v5h5v9H2V1zm8 .43L13.57 5H10V1.43z"/></g></svg><svg width="18" height="18" viewBox="-1 -1 18 18" id="icon-download-primary" x="198" y="180" xmlns="http://www.w3.org/2000/svg"><path d="M2 14h12V6h2v10H0V6h2v8zm7-8h2l-3 4-3-4h2V0h2v6z" fill="#00A4FF" fill-rule="nonzero"/></svg><svg width="18" height="18" viewBox="-1 -1 18 18" id="icon-dropdown-right" y="198" xmlns="http://www.w3.org/2000/svg"><path fill="#666" d="M5 13v-1.302L9.438 8 5 4.302V3l6 5-6 5z" opacity=".99"/></svg><svg width="18" height="18" viewBox="-1 -1 18 18" id="icon-edit-s-primary" x="18" y="198" xmlns="http://www.w3.org/2000/svg"><g fill-rule="nonzero" fill="none"><path d="M0 0h16v16H0z"/><g fill="#00A4FF"><path d="M10.448 2.886l1.885-1.885L15 3.668l-1.886 1.885zM2 11.334V14h2.666l7.505-7.505-2.666-2.666z"/></g></g></svg><svg width="26" height="26" viewBox="-1 -1 26 26" id="icon-email-m" x="162" y="60" xmlns="http://www.w3.org/2000/svg"><g fill="none" fill-rule="evenodd"><path d="M0 0h24v24H0z"/><path d="M20 4H4c-1.1 0-2 .9-2 2v12c0 1.1.9 2 2 2h16c1.1 0 2-.9 2-2V6c0-1.1-.9-2-2-2zm0 2l-8 4.99L4 6h16zm0 12H4V8l8 5 8-5v10z" fill="#666" fill-rule="nonzero"/></g></svg><svg data-name="图层 1" width="18" height="18" viewBox="-1 -1 18 18" id="icon-error" x="54" y="198" xmlns="http://www.w3.org/2000/svg"><path d="M1 8a7 7 0 1 0 7-7 7 7 0 0 0-7 7z" fill="#e1504a"/><path fill="#fff" d="M7 3h2v6H7zM7 11h2v2H7z"/></svg><svg width="26" height="26" viewBox="-1 -1 26 26" id="icon-error-hole-m" x="162" y="112" xmlns="http://www.w3.org/2000/svg"><path fill="#F74042" d="M12 22c5.523 0 10-4.477 10-10S17.523 2 12 2 2 6.477 2 12s4.477 10 10 10zm0 2C5.373 24 0 18.627 0 12S5.373 0 12 0s12 5.373 12 12-5.373 12-12 12zM11 6v8h2V6h-2zm0 10v2h2v-2h-2z"/></svg><svg width="18" height="18" viewBox="-1 -1 18 18" id="icon-experiment-circle" x="90" y="198" xmlns="http://www.w3.org/2000/svg"><g fill="#7C848E" fill-rule="evenodd"><path d="M10 0v4.02L14.595 15H1.404L6 4.001v-4H2v1h3v3L0 16h16L11 4.02V1h3V0z"/><path d="M6.995 10.005a1 1 0 1 1-2 0 1 1 0 0 1 2 0M12.005 12.005a2 2 0 1 1-4.001-.001 2 2 0 0 1 4.001.001M10.716 9.203l-4.75-3.27.567-.824 4.75 3.271z"/></g></svg><svg id="icon-filter" width="12" height="11" viewBox="-1 -1 12 11" x="270" y="75" xmlns="http://www.w3.org/2000/svg"><style>.cjst0{fill:#666}</style><g id="cjPage-1"><g id="cj公告标签-移动端" transform="translate(-317 -122)"><g id="cj筛选-0-01-01" transform="translate(317 122)"><path id="cjFill-1" class="cjst0" d="M0 0l4 4v5l2-1V4l4-4z"/></g></g></g></svg><svg id="icon-filter" width="12" height="11" viewBox="-1 -1 12 11" x="270" y="64" xmlns="http://www.w3.org/2000/svg"><style>.ckst0{fill:#666}</style><g id="ckPage-1"><g id="ck公告标签-移动端" transform="translate(-317 -122)"><g id="ck筛选-0-01-01" transform="translate(317 122)"><path id="ckFill-1" class="ckst0" d="M0 0l4 4v5l2-1V4l4-4z"/></g></g></g></svg><svg id="icon-filter-active" width="12" height="11" viewBox="-1 -1 12 11" x="270" y="53" xmlns="http://www.w3.org/2000/svg"><style>.clst0{fill:#00a4ff}</style><g id="clPage-1"><g id="cl公告标签-移动端" transform="translate(-317 -122)"><g id="cl筛选-0-01-01" transform="translate(317 122)"><path id="clFill-1" class="clst0" d="M0 0l4 4v5l2-1V4l4-4z"/></g></g></g></svg><svg id="icon-filter-primary" width="12" height="11" viewBox="-1 -1 12 11" x="270" y="121" xmlns="http://www.w3.org/2000/svg"><style>.cmst0{fill:#00a4ff}</style><g id="cmPage-1"><g id="cm公告标签-移动端" transform="translate(-317 -122)"><g id="cm筛选-0-01-01" transform="translate(317 122)"><path id="cmFill-1" class="cmst0" d="M0 0l4 4v5l2-1V4l4-4z"/></g></g></g></svg><svg id="icon-filter-white" width="12" height="11" viewBox="-1 -1 12 11" x="270" y="98" xmlns="http://www.w3.org/2000/svg"><style>.cnst0{fill:#fff}</style><g id="cnPage-1"><g id="cn公告标签-移动端" transform="translate(-317 -122)"><g id="cn筛选-0-01-01" transform="translate(317 122)"><path id="cnFill-1" class="cnst0" d="M0 0l4 4v5l2-1V4l4-4z"/></g></g></g></svg><svg width="18" height="18" viewBox="-1 -1 18 18" id="icon-fold" x="198" y="198" xmlns="http://www.w3.org/2000/svg"><g fill="#999" fill-rule="nonzero"><path d="M2 1l6 6 6-6h-2.828L8 4.172 4.828 1H2zM2 15l6-6 6 6h-2.828L8 11.828 4.828 15H2z"/></g></svg><svg width="18" height="18" viewBox="-1 -1 18 18" id="icon-fold-primary" x="216" xmlns="http://www.w3.org/2000/svg"><g fill="#00A4FF" fill-rule="nonzero"><path d="M2 1l6 6 6-6h-2.828L8 4.172 4.828 1H2zM2 15l6-6 6 6h-2.828L8 11.828 4.828 15H2z"/></g></svg><svg width="18" height="18" viewBox="-1 -1 18 18" id="icon-inline-option" x="216" y="18" xmlns="http://www.w3.org/2000/svg"><g fill="none" fill-rule="evenodd"><circle cx="8" cy="8" r="8"/><path d="M2 7.5a1.5 1.5 0 1 1 3 0 1.5 1.5 0 0 1-3 0zm5 0a1.5 1.5 0 1 1 3 0 1.5 1.5 0 0 1-3 0zm5 0a1.5 1.5 0 1 1 3 0 1.5 1.5 0 0 1-3 0z" fill="#666" fill-rule="nonzero"/></g></svg><svg width="18" height="18" viewBox="-1 -1 18 18" id="icon-inline-option-primary" x="216" y="36" xmlns="http://www.w3.org/2000/svg"><g fill="none" fill-rule="evenodd"><circle cx="8" cy="8" r="8"/><path d="M2 7.5a1.5 1.5 0 1 1 3 0 1.5 1.5 0 0 1-3 0zm5 0a1.5 1.5 0 1 1 3 0 1.5 1.5 0 0 1-3 0zm5 0a1.5 1.5 0 1 1 3 0 1.5 1.5 0 0 1-3 0z" fill="#00A4FF" fill-rule="nonzero"/></g></svg><svg width="18" height="18" viewBox="-1 -1 18 18" id="icon-inline-option-white" x="216" y="54" xmlns="http://www.w3.org/2000/svg"><g fill="none" fill-rule="evenodd"><circle cx="8" cy="8" r="8"/><path d="M2 7.5a1.5 1.5 0 1 1 3 0 1.5 1.5 0 0 1-3 0zm5 0a1.5 1.5 0 1 1 3 0 1.5 1.5 0 0 1-3 0zm5 0a1.5 1.5 0 1 1 3 0 1.5 1.5 0 0 1-3 0z" fill="#FFF" fill-rule="nonzero"/></g></svg><svg width="18" height="16" viewBox="-1 -1 18 16" id="icon-layer-hide" x="216" y="72" xmlns="http://www.w3.org/2000/svg"><g fill="none" fill-rule="evenodd"><path d="M0-1h16v16H0z"/><path d="M0 0h16v2H0V0zm0 12h16v2H0v-2zm0-6h10v2H0V6zm12-2l4 3-4 3V4z" fill="#666"/></g></svg><svg width="18" height="16" viewBox="-1 -1 18 16" id="icon-layer-show" x="216" y="88" xmlns="http://www.w3.org/2000/svg"><g fill="none" fill-rule="evenodd"><path d="M0-1h16v16H0z"/><path d="M0 0h16v2H0V0zm0 12h16v2H0v-2zm6-6h10v2H6V6zM4 4v6L0 7l4-3z" fill="#666"/></g></svg><svg width="18" height="18" viewBox="-1 -1 18 18" id="icon-link-arrow-right" x="216" y="104" xmlns="http://www.w3.org/2000/svg"><path fill="#666" d="M4.547 8L1 5.031 2.227 4 7 8l-4.773 4L1 10.969z" fill-rule="evenodd"/></svg><svg width="18" height="18" viewBox="-1 -1 18 18" id="icon-link-arrow-right-active" x="216" y="122" xmlns="http://www.w3.org/2000/svg"><path fill="#00A4FF" d="M4.547 8L1 5.031 2.227 4 7 8l-4.773 4L1 10.969z" fill-rule="evenodd"/></svg><svg data-name="图层 1" width="10" height="14" viewBox="-1 -1 10 14" id="icon-link-blue" y="252" xmlns="http://www.w3.org/2000/svg"><path fill="#00a4ff" d="M4.8 6L0 10.5 1.6 12 8 6 6.4 4.5 1.6 0 0 1.5 4.8 6z"/></svg><svg width="18" height="18" viewBox="-1 -1 18 18" id="icon-link-circle" x="216" y="158" xmlns="http://www.w3.org/2000/svg"><g fill="#7C848E" fill-rule="evenodd"><path d="M8 0a8 8 0 1 0 0 16A8 8 0 0 0 8 0m0 1c3.859 0 7 3.14 7 7 0 3.859-3.141 7-7 7s-7-3.141-7-7c0-3.86 3.141-7 7-7"/><path d="M9.06 6.94l-.707.706a1 1 0 0 0-1.413 0L4.817 9.768a.999.999 0 1 0 1.415 1.413l1.413-1.413.708.707-1.414 1.414a2.003 2.003 0 0 1-2.829 0 2.003 2.003 0 0 1 0-2.829l2.122-2.12a2.005 2.005 0 0 1 2.827 0"/><path d="M7.646 8.354a1 1 0 0 0 1.414 0l2.121-2.121a1 1 0 1 0-1.413-1.415L8.352 6.232l-.707-.708L9.06 4.11a2.005 2.005 0 0 1 2.829 0 2.004 2.004 0 0 1 0 2.83L9.768 9.06a2.005 2.005 0 0 1-2.829 0l.707-.707z"/></g></svg><svg data-name="图层 1" width="10" height="14" viewBox="-1 -1 10 14" id="icon-link-gray" x="112" y="102" xmlns="http://www.w3.org/2000/svg"><path fill="#999" d="M4.8 6L0 10.5 1.6 12 8 6 6.4 4.5 1.6 0 0 1.5 4.8 6z"/></svg><svg width="12" height="12" viewBox="-1 -1 12 12" id="icon-linkchain" x="270" y="109" xmlns="http://www.w3.org/2000/svg"><path d="M5 0l2.146 2.147-2.768 2.767.708.706 2.767-2.766 2.146 2.145V0h-5zM0 0v10h9.999V7h-1v2H1V1H3V0H0z" fill="#00A4FF" fill-rule="evenodd"/></svg><svg width="18" height="18" viewBox="-1 -1 18 18" id="icon-live" x="196" y="60" xmlns="http://www.w3.org/2000/svg"><g fill-rule="nonzero" fill="none"><path d="M0 0h16v16H0z"/><path d="M1 9h2v6H1V9zm4-8h2v14H5V1zm4 4h2v10H9V5zm4 4h2v6h-2V9z" fill="#666"/></g></svg><svg width="18" height="18" viewBox="-1 -1 18 18" id="icon-live-primary" x="18" y="216" xmlns="http://www.w3.org/2000/svg"><g fill-rule="nonzero" fill="none"><path d="M0 0h16v16H0z"/><path d="M1 9h2v6H1V9zm4-8h2v14H5V1zm4 4h2v10H9V5zm4 4h2v6h-2V9z" fill="#00A4FF"/></g></svg><svg width="18" height="18" viewBox="-1 -1 18 18" id="icon-live-white" x="36" y="216" xmlns="http://www.w3.org/2000/svg"><g fill-rule="nonzero" fill="none"><path d="M0 0h16v16H0z"/><path d="M1 9h2v6H1V9zm4-8h2v14H5V1zm4 4h2v10H9V5zm4 4h2v6h-2V9z" fill="#FFF"/></g></svg><svg width="9" height="10" viewBox="-1 -1 9 10" id="icon-living-triangle" x="270" y="142" xmlns="http://www.w3.org/2000/svg"><path d="M0 0l7 4-7 4z" fill="#00A4FF" fill-rule="nonzero"/></svg><svg width="9" height="10" viewBox="-1 -1 9 10" id="icon-living-triangle-dark" x="270" y="152" xmlns="http://www.w3.org/2000/svg"><path d="M0 0l7 4-7 4z" fill="#000" fill-rule="nonzero"/></svg><svg width="9" height="10" viewBox="-1 -1 9 10" id="icon-living-triangle-gray" x="270" y="132" xmlns="http://www.w3.org/2000/svg"><path d="M0 0l7 4-7 4z" fill="#666" fill-rule="nonzero"/></svg><svg width="9" height="10" viewBox="-1 -1 9 10" id="icon-living-triangle-wh" x="270" y="162" xmlns="http://www.w3.org/2000/svg"><path d="M0 0l7 4-7 4z" fill="#FFF" fill-rule="nonzero"/></svg><svg width="18" height="18" viewBox="-1 -1 18 18" id="icon-loading" x="126" y="216" xmlns="http://www.w3.org/2000/svg"><g fill-rule="nonzero" fill="none"><path d="M8.773 4.86c-.757 0-1.374-.641-1.374-1.43C7.4 2.642 8.016 2 8.773 2c.757 0 1.373.642 1.373 1.43 0 .789-.616 1.43-1.373 1.43zM5.849 5.997c-.692 0-1.255-.586-1.255-1.306 0-.721.563-1.307 1.255-1.307.693 0 1.254.585 1.254 1.307 0 .72-.562 1.306-1.254 1.306zM4.606 8.952c-.61 0-1.106-.516-1.106-1.152 0-.636.496-1.152 1.106-1.152.61 0 1.106.516 1.106 1.152 0 .636-.495 1.151-1.106 1.152zM5.85 11.88c-.518 0-.938-.437-.938-.977 0-.539.42-.976.938-.977.518.001.937.438.938.977 0 .539-.42.977-.938.977zM8.773 13c-.452 0-.82-.382-.82-.853s.368-.854.82-.854c.452 0 .819.382.82.854 0 .47-.368.853-.82.853zm2.968-1.443a.676.676 0 0 1-.661-.688c0-.38.296-.689.661-.69.366.001.661.31.662.69 0 .38-.296.688-.662.688zm1.216-3.187a.555.555 0 0 1-.543-.565c0-.312.243-.565.543-.565.3 0 .542.253.543.565a.555.555 0 0 1-.543.565zM11.32 4.732c0 .157.08.301.21.38.131.078.292.078.422 0a.442.442 0 0 0 .21-.38.43.43 0 0 0-.42-.438.43.43 0 0 0-.422.438z" fill-opacity=".5" fill="#000"/><path d="M8.773 4.86c-.757 0-1.374-.641-1.374-1.43C7.4 2.642 8.016 2 8.773 2c.757 0 1.373.642 1.373 1.43 0 .789-.616 1.43-1.373 1.43zM5.849 5.997c-.692 0-1.255-.586-1.255-1.306 0-.721.563-1.307 1.255-1.307.693 0 1.254.585 1.254 1.307 0 .72-.562 1.306-1.254 1.306zM4.606 8.952c-.61 0-1.106-.516-1.106-1.152 0-.636.496-1.152 1.106-1.152.61 0 1.106.516 1.106 1.152 0 .636-.495 1.151-1.106 1.152zM5.85 11.88c-.518 0-.938-.437-.938-.977 0-.539.42-.976.938-.977.518.001.937.438.938.977 0 .539-.42.977-.938.977zM8.773 13c-.452 0-.82-.382-.82-.853s.368-.854.82-.854c.452 0 .819.382.82.854 0 .47-.368.853-.82.853zm2.968-1.443a.676.676 0 0 1-.661-.688c0-.38.296-.689.661-.69.366.001.661.31.662.69 0 .38-.296.688-.662.688zm1.216-3.187a.555.555 0 0 1-.543-.565c0-.312.243-.565.543-.565.3 0 .542.253.543.565a.555.555 0 0 1-.543.565zM11.32 4.732c0 .157.08.301.21.38.131.078.292.078.422 0a.442.442 0 0 0 .21-.38.43.43 0 0 0-.42-.438.43.43 0 0 0-.422.438z" fill="#999"/></g></svg><svg width="26" height="26" viewBox="-1 -1 26 26" id="icon-location-m" x="136" y="120" xmlns="http://www.w3.org/2000/svg"><g fill="none" fill-rule="evenodd"><path d="M0 0h24v24H0z"/><path d="M12 2C8.13 2 5 5.13 5 9c0 5.25 7 13 7 13s7-7.75 7-13c0-3.87-3.13-7-7-7zM7 9c0-2.76 2.24-5 5-5s5 2.24 5 5c0 2.88-2.88 7.19-5 9.88C9.92 16.21 7 11.85 7 9z" fill="#666" fill-rule="nonzero"/><circle fill="#666" cx="12" cy="9" r="2.5"/></g></svg><svg width="18" height="18" viewBox="-1 -1 18 18" id="icon-more-right" x="162" y="216" xmlns="http://www.w3.org/2000/svg"><path fill="#666" fill-rule="evenodd" d="M5 6l3 2-3 2v2l6-4-6-4z"/></svg><svg width="18" height="18" viewBox="-1 -1 18 18" id="icon-more-right" x="180" y="216" xmlns="http://www.w3.org/2000/svg"><path fill="#666" fill-rule="evenodd" d="M5 6l3 2-3 2v2l6-4-6-4z"/></svg><svg width="18" height="18" viewBox="-1 -1 18 18" id="icon-more-right-active" x="198" y="216" xmlns="http://www.w3.org/2000/svg"><path fill="#00A4FF" fill-rule="evenodd" d="M5 6l3 2-3 2v2l6-4-6-4z"/></svg><svg width="18" height="18" viewBox="-1 -1 18 18" id="icon-more-right-active" x="216" y="216" xmlns="http://www.w3.org/2000/svg"><path fill="#00A4FF" fill-rule="evenodd" d="M5 6l3 2-3 2v2l6-4-6-4z"/></svg><svg width="18" height="18" viewBox="-1 -1 18 18" id="icon-more-right-active" x="234" xmlns="http://www.w3.org/2000/svg"><path fill="#00A4FF" fill-rule="evenodd" d="M5 6l3 2-3 2v2l6-4-6-4z"/></svg><svg width="18" height="18" viewBox="-1 -1 18 18" id="icon-more-right-normal" x="234" y="18" xmlns="http://www.w3.org/2000/svg"><path fill="#666" fill-rule="evenodd" d="M5 6l3 2-3 2v2l6-4-6-4z"/></svg><svg width="18" height="18" viewBox="-1 -1 18 18" id="icon-more-right-white" x="234" y="36" xmlns="http://www.w3.org/2000/svg"><path fill="#fff" fill-rule="evenodd" d="M5 6l3 2-3 2v2l6-4-6-4z"/></svg><svg width="20" height="20" viewBox="-1 -1 20 20" id="icon-nav-share-mb" x="78" y="154" xmlns="http://www.w3.org/2000/svg"><path d="M14.485 2H10V0h8v8h-2V3.314l-7.586 7.585L7 9.485 14.485 2zM16 12h2v6H0V0h6v2H2v14h14v-4z" fill="#FFF" fill-rule="nonzero"/></svg><svg width="18" height="18" viewBox="-1 -1 18 18" id="icon-notice" x="234" y="72" xmlns="http://www.w3.org/2000/svg"><g fill-rule="nonzero" fill="none"><path d="M0 0h16v16H0z"/><path d="M3.2 12h9.6l-.784-4.274-.016-.18V6a4 4 0 1 0-8 0v1.545l-.016.18L3.2 12z" stroke="#0ABF5B" stroke-width="2"/><path d="M8 0a2 2 0 0 1 2 2v1H6V2a2 2 0 0 1 2-2zM8 16a2 2 0 0 0 2-2H6a2 2 0 0 0 2 2z" fill="#0ABF5B"/></g></svg><svg width="18" height="18" viewBox="-1 -1 18 18" id="icon-numcard-primary" x="234" y="90" xmlns="http://www.w3.org/2000/svg"><path d="M0 0h16v16H0V0zm2 2v12h12V2H2zm2 5h2v2H4V7zm0 3h2v2H4v-2zm3-3h2v2H7V7zm0 3h2v2H7v-2zm3-3h2v2h-2V7zm0 3h2v2h-2v-2zM4 4h2v2H4V4zm3 0h2v2H7V4zm3 0h2v2h-2V4z" fill="#00A4FF" fill-rule="nonzero"/></svg><svg width="26" height="26" viewBox="-1 -1 26 26" id="icon-profession-m" x="26" y="154" xmlns="http://www.w3.org/2000/svg"><g fill="none" fill-rule="evenodd"><path d="M0 0h24v24H0z"/><path d="M20 6h-4V4c0-1.11-.89-2-2-2h-4c-1.11 0-2 .89-2 2v2H4c-1.11 0-1.99.89-1.99 2L2 19c0 1.11.89 2 2 2h16c1.11 0 2-.89 2-2V8c0-1.11-.89-2-2-2zM10 4h4v2h-4V4zm10 15H4V8h16v11z" fill="#666" fill-rule="nonzero"/></g></svg><svg width="18" height="18" viewBox="-1 -1 18 18" id="icon-refresh" x="234" y="126" xmlns="http://www.w3.org/2000/svg"><g fill-rule="nonzero" fill="none"><path d="M0 0h16v16H0z"/><path d="M1.812 11.275L0 12l1-4 4 2-2.253.901a6.002 6.002 0 0 0 11.106-1.576l.903.514a7.003 7.003 0 0 1-12.944 1.436zM13.253 5.1A6.002 6.002 0 0 0 2.147 6.675l-.903-.514a7.003 7.003 0 0 1 12.944-1.436L16 4l-1 4-4-2 2.253-.901z" fill="#666"/></g></svg><svg width="18" height="18" viewBox="-1 -1 18 18" id="icon-refresh-primary" x="234" y="144" xmlns="http://www.w3.org/2000/svg"><g fill-rule="nonzero" fill="none"><path d="M0 0h16v16H0z"/><path d="M1.812 11.275L0 12l1-4 4 2-2.253.901a6.002 6.002 0 0 0 11.106-1.576l.903.514a7.003 7.003 0 0 1-12.944 1.436zM13.253 5.1A6.002 6.002 0 0 0 2.147 6.675l-.903-.514a7.003 7.003 0 0 1 12.944-1.436L16 4l-1 4-4-2 2.253-.901z" fill="#00A4FF"/></g></svg><svg width="26" height="26" viewBox="-1 -1 26 26" id="icon-salary-m" x="52" y="154" xmlns="http://www.w3.org/2000/svg"><g fill="none" fill-rule="evenodd"><path d="M0 0h24v24H0z"/><path d="M11.5 17.1c-2.06 0-2.87-.92-2.98-2.1h-2.2c.12 2.19 1.76 3.42 3.68 3.83V21h3v-2.15c1.95-.37 3.5-1.5 3.5-3.55 0-2.84-2.43-3.81-4.7-4.4-2.27-.59-3-1.2-3-2.15 0-1.09 1.01-1.85 2.7-1.85 1.78 0 2.44.85 2.5 2.1h2.21c-.07-1.72-1.12-3.3-3.21-3.81V3h-3v2.16c-1.94.42-3.5 1.68-3.5 3.61 0 2.31 1.91 3.46 4.7 4.13 2.5.6 3 1.48 3 2.41 0 .69-.49 1.79-2.7 1.79z" fill="#666"/></g></svg><svg width="18" height="18" viewBox="-298 388 18 18" id="icon-search" x="234" y="180" xmlns="http://www.w3.org/2000/svg"><path fill="#666" d="M-282.3 403.3l-2.5-2.5c1-1.1 1.7-2.7 1.7-4.3 0-3.6-2.9-6.5-6.5-6.5-3.5 0-6.4 2.9-6.4 6.5s2.9 6.4 6.4 6.4c1.2 0 2.3-.3 3.2-.9l2.7 2.7c.4.4 1 .4 1.4 0 .4-.4.4-1 0-1.4zm-7.3-2.4c-2.4 0-4.4-2-4.4-4.4s2-4.5 4.4-4.5c2.5 0 4.5 2 4.5 4.5s-2 4.4-4.5 4.4z"/></svg><svg width="18" height="18" viewBox="-298 388 18 18" id="icon-search" x="234" y="198" xmlns="http://www.w3.org/2000/svg"><path fill="#666" d="M-282.3 403.3l-2.5-2.5c1-1.1 1.7-2.7 1.7-4.3 0-3.6-2.9-6.5-6.5-6.5-3.5 0-6.4 2.9-6.4 6.5s2.9 6.4 6.4 6.4c1.2 0 2.3-.3 3.2-.9l2.7 2.7c.4.4 1 .4 1.4 0 .4-.4.4-1 0-1.4zm-7.3-2.4c-2.4 0-4.4-2-4.4-4.4s2-4.5 4.4-4.5c2.5 0 4.5 2 4.5 4.5s-2 4.4-4.5 4.4z"/></svg><svg width="18" height="18" viewBox="-298 388 18 18" id="icon-search-primary" x="234" y="216" xmlns="http://www.w3.org/2000/svg"><path fill="#00A4FF" d="M-282.3 403.3l-2.5-2.5c1-1.1 1.7-2.7 1.7-4.3 0-3.6-2.9-6.5-6.5-6.5-3.5 0-6.4 2.9-6.4 6.5s2.9 6.4 6.4 6.4c1.2 0 2.3-.3 3.2-.9l2.7 2.7c.4.4 1 .4 1.4 0 .4-.4.4-1 0-1.4zm-7.3-2.4c-2.4 0-4.4-2-4.4-4.4s2-4.5 4.4-4.5c2.5 0 4.5 2 4.5 4.5s-2 4.4-4.5 4.4z"/></svg><svg width="18" height="18" viewBox="-298 388 18 18" id="icon-search-primary" y="234" xmlns="http://www.w3.org/2000/svg"><path fill="#00A4FF" d="M-282.3 403.3l-2.5-2.5c1-1.1 1.7-2.7 1.7-4.3 0-3.6-2.9-6.5-6.5-6.5-3.5 0-6.4 2.9-6.4 6.5s2.9 6.4 6.4 6.4c1.2 0 2.3-.3 3.2-.9l2.7 2.7c.4.4 1 .4 1.4 0 .4-.4.4-1 0-1.4zm-7.3-2.4c-2.4 0-4.4-2-4.4-4.4s2-4.5 4.4-4.5c2.5 0 4.5 2 4.5 4.5s-2 4.4-4.5 4.4z"/></svg><svg width="18" height="18" viewBox="-298 388 18 18" id="icon-search-white" x="18" y="234" xmlns="http://www.w3.org/2000/svg"><path fill="#FFF" d="M-282.3 403.3l-2.5-2.5c1-1.1 1.7-2.7 1.7-4.3 0-3.6-2.9-6.5-6.5-6.5-3.5 0-6.4 2.9-6.4 6.5s2.9 6.4 6.4 6.4c1.2 0 2.3-.3 3.2-.9l2.7 2.7c.4.4 1 .4 1.4 0 .4-.4.4-1 0-1.4zm-7.3-2.4c-2.4 0-4.4-2-4.4-4.4s2-4.5 4.4-4.5c2.5 0 4.5 2 4.5 4.5s-2 4.4-4.5 4.4z"/></svg><svg width="18" height="18" viewBox="-1 -1 18 18" id="icon-share" x="36" y="234" xmlns="http://www.w3.org/2000/svg"><path d="M12.707 4.707L8.343 9.071 6.93 7.657l4.364-4.364L9 1h6v6l-2.293-2.293zM13 9h2v6H1V1h6v2H3v10h10V9z" fill="#666" fill-rule="nonzero"/></svg><svg width="18" height="18" viewBox="-1 -1 18 18" id="icon-share-primary" x="54" y="234" xmlns="http://www.w3.org/2000/svg"><path d="M12.707 4.707L8.343 9.071 6.93 7.657l4.364-4.364L9 1h6v6l-2.293-2.293zM13 9h2v6H1V1h6v2H3v10h10V9z" fill="#00A4FF" fill-rule="nonzero"/></svg><svg width="18" height="18" viewBox="-1 -1 18 18" id="icon-share-white" x="72" y="234" xmlns="http://www.w3.org/2000/svg"><path d="M12.707 4.707L8.343 9.071 6.93 7.657l4.364-4.364L9 1h6v6l-2.293-2.293zM13 9h2v6H1V1h6v2H3v10h10V9z" fill="#FFF" fill-rule="nonzero"/></svg><svg width="18" height="18" viewBox="-1 -1 18 18" id="icon-sort-arrow" x="90" y="234" xmlns="http://www.w3.org/2000/svg"><g fill="none" fill-rule="evenodd"><path d="M9.072 10h2.392L8 16l-3.464-6h2.536V6H4.536L8 0l3.464 6H9.072v4z" fill="#666"/><path d="M0 0h16v16H0z"/></g></svg><svg width="18" height="18" viewBox="-1 -1 18 18" id="icon-sort-arrow-down" x="108" y="234" xmlns="http://www.w3.org/2000/svg"><g fill="none" fill-rule="evenodd"><path d="M0 0h16v16H0z"/><g fill="#666" fill-rule="nonzero"><path d="M9 12H7V0h2z"/><path d="M8 16L4 8h8z"/></g></g></svg><svg width="18" height="18" viewBox="-1 -1 18 18" id="icon-sort-arrow-up" x="126" y="234" xmlns="http://www.w3.org/2000/svg"><g fill="none" fill-rule="evenodd"><path d="M0 0h16v16H0z"/><g fill="#666" fill-rule="nonzero"><path d="M9 4H7v12h2z"/><path d="M8 0L4 8h8z"/></g></g></svg><svg data-name="图层 1" width="34" height="34" viewBox="-1 -1 34 34" id="icon-standard" x="162" xmlns="http://www.w3.org/2000/svg"><path data-name="&lt;复合路径>" d="M16 0a16 16 0 1 0 16 16A16.047 16.047 0 0 0 16 0zm0 30a14 14 0 1 1 14-14 14.041 14.041 0 0 1-14 14z" fill="#fff"/><g data-name="&lt;编组>"><path data-name="&lt;复合路径>" d="M20 8L9 19v5h5l11-11zm2 5l-1.5 1.5-2-2L20 11zm-9 9h-2v-2l6.1-6.1 2 2z" fill="#fff"/></g></svg><svg data-name="图层 1" width="34" height="34" viewBox="-1 -1 34 34" id="icon-standard-hover" x="102" y="120" xmlns="http://www.w3.org/2000/svg"><path data-name="复合路径" d="M16 0a16 16 0 1 0 16 16A16 16 0 0 0 16 0zm0 30a14 14 0 1 1 14-14 14 14 0 0 1-14 14z" fill="#00a4ff"/><g data-name="编组"><g data-name="编组 2"><path data-name="复合路径 2" d="M20 8L9 19v5h5l11-11zm2 5l-1.5 1.5-2-2L20 11zm-9 9h-2v-2l6.1-6.1 2 2z" fill="#00a4ff"/></g></g></svg><svg data-name="图层 1" width="18" height="18" viewBox="-1 -1 18 18" id="icon-success" x="180" y="234" xmlns="http://www.w3.org/2000/svg"><path d="M7.041 8.79L5.3 7.047 3.885 8.461l3.156 3.157L8.456 10.2 12 6.624 10.586 5.21zM8 3a5 5 0 1 1-5 5 5 5 0 0 1 5-5m0-2a7 7 0 1 0 7 7 7 7 0 0 0-7-7z" fill="#0abf5b"/></svg><svg width="26" height="26" viewBox="-1 -1 26 26" id="icon-success-hole-m" x="68" y="58" xmlns="http://www.w3.org/2000/svg"><path d="M12 24C5.373 24 0 18.627 0 12S5.373 0 12 0s12 5.373 12 12-5.373 12-12 12zm0-2c5.523 0 10-4.477 10-10S17.523 2 12 2 2 6.477 2 12s4.477 10 10 10zm4.24-14.65l1.52 1.3-6.704 7.82-4.763-4.763 1.414-1.414 3.237 3.236 5.297-6.18z" fill="#0ABF5B" fill-rule="nonzero"/></svg><svg data-name="图层 1" width="34" height="34" viewBox="-1 -1 34 34" id="icon-support" x="68" y="120" xmlns="http://www.w3.org/2000/svg"><path data-name="&lt;复合路径>" d="M16 0a16 16 0 1 0 16 16A16.047 16.047 0 0 0 16 0zm0 30a14 14 0 1 1 14-14 14.041 14.041 0 0 1-14 14z" fill="#fff"/><g data-name="&lt;编组>"><path data-name="&lt;复合路径>" d="M23.9 19.5a5.989 5.989 0 0 0-3.2-5.3 3.3 3.3 0 0 0 .8-2.2A3.478 3.478 0 0 0 18 8.5a3.543 3.543 0 0 0-3.5 3.5 3.5 3.5 0 0 0 .8 2.2 5.989 5.989 0 0 0-3.2 5.3s-.4 4 5.9 4c6.1 0 5.9-4 5.9-4zm-5.9-9a1.5 1.5 0 1 1-1.5 1.5 1.538 1.538 0 0 1 1.5-1.5zm0 11c-4.2 0-3.9-2-3.9-2a3.992 3.992 0 0 1 3.9-4 3.927 3.927 0 0 1 3.9 4s.2 2-3.9 2zm-6.1-10.1a3.3 3.3 0 0 1 .8-2.2c0-.1.1-.1.1-.2.2 0 .2-.1.3-.2h-.3a2.862 2.862 0 0 0-2.8 2.8 2.352 2.352 0 0 0 .6 1.7A4.888 4.888 0 0 0 8 17.6a2.963 2.963 0 0 0 1.2 2.2 3.2 3.2 0 0 1-.1-.7 5.653 5.653 0 0 1 .9-3.3l.4-.4a10.049 10.049 0 0 1 2.4-1.6 3.5 3.5 0 0 1-.9-2.4z" fill="#fff"/></g></svg><svg data-name="图层 1" width="34" height="34" viewBox="-1 -1 34 34" id="icon-support-hover" x="94" xmlns="http://www.w3.org/2000/svg"><path data-name="复合路径" d="M16 0a16 16 0 1 0 16 16A16 16 0 0 0 16 0zm0 30a14 14 0 1 1 14-14 14 14 0 0 1-14 14z" fill="#00a4ff"/><g data-name="编组"><path data-name="复合路径 2" d="M23.9 19.5a5.989 5.989 0 0 0-3.2-5.3 3.3 3.3 0 0 0 .8-2.2 3.478 3.478 0 0 0-3.456-3.5H18a3.543 3.543 0 0 0-3.5 3.5 3.5 3.5 0 0 0 .8 2.2 5.989 5.989 0 0 0-3.2 5.3s-.4 4 5.9 4c6.1 0 5.9-4 5.9-4zm-5.9-9a1.5 1.5 0 1 1-1.5 1.5 1.538 1.538 0 0 1 1.5-1.5zm0 11c-4.2 0-3.9-2-3.9-2a3.992 3.992 0 0 1 3.9-4 3.927 3.927 0 0 1 3.9 3.953v.047s.2 2-3.9 2zm-6.1-10.1a3.3 3.3 0 0 1 .8-2.2c0-.1.1-.1.1-.2.2 0 .2-.1.3-.2h-.3a2.862 2.862 0 0 0-2.8 2.8 2.349 2.349 0 0 0 .6 1.7A4.889 4.889 0 0 0 8 17.6a2.962 2.962 0 0 0 1.2 2.2 3.186 3.186 0 0 1-.1-.7 5.65 5.65 0 0 1 .9-3.3l.4-.4a10.041 10.041 0 0 1 2.4-1.6 3.5 3.5 0 0 1-.9-2.4z" fill="#00a4ff"/></g></svg><svg id="icon-tc" width="93" height="18" viewBox="-1 -1 93 18" y="40" xmlns="http://www.w3.org/2000/svg"><style>.epst0{fill:#999}</style><g id="epXMLID_80_"><path id="epXMLID_81_" class="epst0" d="M83.8 1.9l-.6 3h-3.8l1.5 2h2l-1.6 8.8h3.4L86.2 7h4.3l-6.7-5.1zM16.4 0H.9L.5 2.3h6L4 15.8h3.4L9.9 2.3H16l.4-2.3zM19 4.7c-4.3 0-7.1 2.6-7.7 5.5-.6 3.3 1.6 5.7 5.9 5.7 2 0 3.8-.3 5.3-1.1l.5-2.5c-1.5 1-3.3 1.5-4.9 1.5-2.2 0-3.9-.9-3.6-2.8h9c.1-.2.2-.6.3-1.1.5-2.3-.4-5.2-4.8-5.2zm1.7 4.5h-5.9c.4-1.1 1.5-2.6 3.6-2.6 2.3 0 2.5 1.6 2.3 2.6zm13.4-4.5c-2.1 0-3.7.8-4.5 1.7h-.1l-3-1.7c-.1.9-.3 2.2-.5 3.5l-1.4 7.6H28l1.2-6.4.3-.9c.5-.8 1.6-1.6 2.9-1.6 1.9 0 2.4 1.2 2.1 2.7l-1.1 6.1h3.4L38 9.4c.6-3.5-1.6-4.7-3.9-4.7zm40.9 0c-2.1 0-3.7.8-4.5 1.7h-.1l-3-1.7c-.1.9-.3 2.2-.5 3.5l-1.4 7.6H69l1.2-6.4.3-.9c.5-.8 1.6-1.6 2.9-1.6 1.9 0 2.4 1.2 2.1 2.7l-1.1 6.1h3.4L79 9.4c.6-3.5-1.6-4.7-4-4.7zm-15.1 0c-4.3 0-7.1 2.6-7.7 5.5-.6 3.3 1.6 5.7 5.9 5.7 2 0 3.8-.3 5.3-1.1l.5-2.5c-1.5 1-3.3 1.5-4.9 1.5-2.2 0-3.9-.9-3.6-2.8h9c.1-.2.2-.6.3-1.1.5-2.3-.4-5.2-4.8-5.2zm1.8 4.5h-5.9c.4-1.1 1.5-2.6 3.6-2.6 2.3 0 2.5 1.6 2.3 2.6zm-22.3 1c-.6 3.3 1.9 5.8 6.1 5.8 1.7 0 3.7-.5 4.5-.7l.6-2.9c-1.2 1.2-2.8 1.4-3.9 1.4-2.3 0-4.1-1.3-3.7-3.5.4-2 2.4-3.5 5-3.5 1.1 0 2.5.3 3.4 1.5l.5-2.9c-.7-.3-1.9-.6-3.7-.6-4.8-.1-8.2 2.2-8.8 5.4z"/></g></svg><svg width="26" height="26" viewBox="-1 -1 26 26" id="icon-tel-m" x="162" y="34" xmlns="http://www.w3.org/2000/svg"><g fill="none" fill-rule="evenodd"><path d="M0 0h24v24H0z"/><path d="M20 21c.55 0 1-.45 1-1v-3.49c0-.55-.45-1-1-1-1.24 0-2.45-.2-3.57-.57a.84.84 0 0 0-.31-.05c-.26 0-.51.1-.71.29l-2.2 2.2a15.149 15.149 0 0 1-6.59-6.59l2.2-2.2c.28-.28.36-.67.25-1.02A11.36 11.36 0 0 1 8.5 4c0-.55-.45-1-1-1H4c-.55 0-1 .45-1 1 0 9.39 7.61 17 17 17zm-3.6-3.98c.85.24 1.72.39 2.6.45v1.49c-1.32-.09-2.59-.35-3.8-.75l1.2-1.19zM5.03 5h1.5a13 13 0 0 0 .46 2.59l-1.2 1.2c-.41-1.2-.67-2.47-.76-3.79z" fill="#666" fill-rule="nonzero"/></g></svg><svg width="18" height="18" viewBox="-1 -1 18 18" id="icon-time-dark" x="252" y="36" xmlns="http://www.w3.org/2000/svg"><g fill="none" fill-rule="evenodd"><circle stroke="#000" cx="8" cy="8" r="7.5"/><path fill="#000" d="M8 3h1v6H8z"/><path fill="#000" d="M9 8v1H3V8z"/><path d="M0 0h16v16H0z"/></g></svg><svg data-name="图层 1" width="34" height="34" viewBox="-1 -1 34 34" id="icon-translate" x="128" xmlns="http://www.w3.org/2000/svg"><g fill="#fff"><path d="M17 9H9v8h8zm-2 6h-4v-4h4zM20 14h2a4.012 4.012 0 0 0-4-4v2a2.006 2.006 0 0 1 2 2zM12 18h-2a4.012 4.012 0 0 0 4 4v-2a2.006 2.006 0 0 1-2-2z"/><path d="M19 17h2v4h-4v-2h-2v4h8v-8h-4v2z"/><path d="M16 0a16 16 0 1 0 16 16A16.047 16.047 0 0 0 16 0zm0 30a14 14 0 1 1 14-14 14.041 14.041 0 0 1-14 14z"/></g></svg><svg version="undefined" width="34" height="34" viewBox="-1 -1 34 34" id="icon-translate-#00a4ff" x="94" y="34" xmlns="http://www.w3.org/2000/svg"><g fill="#00a4ff"><path d="M17 9H9v8h8zm-2 6h-4v-4h4zM20 14h2a4.012 4.012 0 0 0-4-4v2a2.006 2.006 0 0 1 2 2zM12 18h-2a4.012 4.012 0 0 0 4 4v-2a2.006 2.006 0 0 1-2-2z"/><path d="M19 17h2v4h-4v-2h-2v4h8v-8h-4v2z"/><path d="M16 0a16 16 0 1 0 16 16A16.047 16.047 0 0 0 16 0zm0 30a14 14 0 1 1 14-14 14.041 14.041 0 0 1-14 14z"/></g></svg><svg width="18" height="18" viewBox="-1 -1 18 18" id="icon-triangle-down" x="252" y="90" xmlns="http://www.w3.org/2000/svg"><path fill="#666" d="M12 6H4l4 5z"/></svg><svg width="18" height="18" viewBox="-1 -1 18 18" id="icon-unfold" x="252" y="108" xmlns="http://www.w3.org/2000/svg"><g fill="#999" fill-rule="nonzero"><path d="M2 6l6-6 6 6h-2.828L8 2.828 4.828 6H2zM2 10l6 6 6-6h-2.828L8 13.172 4.828 10H2z"/></g></svg><svg width="18" height="18" viewBox="-1 -1 18 18" id="icon-unfold-primary" x="252" y="126" xmlns="http://www.w3.org/2000/svg"><g fill="#00A4FF" fill-rule="nonzero"><path d="M2 6l6-6 6 6h-2.828L8 2.828 4.828 6H2zM2 10l6 6 6-6h-2.828L8 13.172 4.828 10H2z"/></g></svg><svg data-name="图层 1" width="18" height="18" viewBox="-1 -1 18 18" id="icon-verified" x="252" y="144" xmlns="http://www.w3.org/2000/svg"><defs><linearGradient id="exa" x1="-2.214" y1="4.286" x2="-2.214" y2="5.286" gradientTransform="matrix(14 0 0 14 39 -59)" gradientUnits="userSpaceOnUse"><stop offset="0" stop-color="#fbd249"/><stop offset="1" stop-color="#f5a623"/></linearGradient></defs><path fill="url(#exa)" d="M15 1H11.43l-1.14 2.512-4.145 8.009-1.78-8.009h1.333V2.256H1v1.256h1.04L4.579 15h2.237l5.809-11.488h1.238L15 1z"/></svg><svg width="18" height="18" viewBox="-1 -1 18 18" id="icon-vertical-option" x="252" y="162" xmlns="http://www.w3.org/2000/svg"><g fill-rule="nonzero" fill="none"><circle cx="8" cy="8" r="8"/><path d="M7.5 15a1.5 1.5 0 1 1 0-3 1.5 1.5 0 0 1 0 3zm0-5a1.5 1.5 0 1 1 0-3 1.5 1.5 0 0 1 0 3zm0-5a1.5 1.5 0 1 1 0-3 1.5 1.5 0 0 1 0 3z" fill="#666"/></g></svg><svg width="18" height="18" viewBox="-1 -1 18 18" id="icon-vertical-option-primary" x="252" y="180" xmlns="http://www.w3.org/2000/svg"><g fill-rule="nonzero" fill="none"><circle cx="8" cy="8" r="8"/><path d="M7.5 15a1.5 1.5 0 1 1 0-3 1.5 1.5 0 0 1 0 3zm0-5a1.5 1.5 0 1 1 0-3 1.5 1.5 0 0 1 0 3zm0-5a1.5 1.5 0 1 1 0-3 1.5 1.5 0 0 1 0 3z" fill="#00A4FF"/></g></svg><svg width="18" height="18" viewBox="-1 -1 18 18" id="icon-vertical-option-primary" x="252" y="198" xmlns="http://www.w3.org/2000/svg"><g fill-rule="nonzero" fill="none"><circle cx="8" cy="8" r="8"/><path d="M7.5 15a1.5 1.5 0 1 1 0-3 1.5 1.5 0 0 1 0 3zm0-5a1.5 1.5 0 1 1 0-3 1.5 1.5 0 0 1 0 3zm0-5a1.5 1.5 0 1 1 0-3 1.5 1.5 0 0 1 0 3z" fill="#00A4FF"/></g></svg><svg width="18" height="18" viewBox="-7 7 18 18" id="icon-wechat" x="252" y="216" xmlns="http://www.w3.org/2000/svg"><path d="M-.3 10C-3.5 10-6 12.1-6 14.8c0 1.6.8 2.8 2.3 3.8l-.6 1.7 2-1c.7.1 1.3.3 2 .3h.5C.1 19.2 0 18.4 0 18c0-1.8 1.7-3.8 4-4 .3 0 1.2-.1 1.4-.1-.5-2.2-3-3.9-5.7-3.9zm-2 3.9c-.4 0-.7-.4-.7-.8s.3-.7.7-.7.8.3.8.7c0 .4-.4.8-.8.8zm4 0c-.4 0-.8-.3-.8-.7 0-.4.3-.7.8-.7.4 0 .8.3.8.7-.1.3-.4.7-.8.7z" fill="#83d944"/><path d="M6 21l2 2v-2H6" fill="#eff1f2"/><path d="M5.5 15C3 15 1 16.6 1 18.5S3 22 5.5 22s4.5-1.5 4.5-3.5c0-1.9-2-3.5-4.5-3.5zm-2 3c-.3 0-.5-.2-.5-.5s.2-.5.5-.5.5.2.5.5-.2.5-.5.5zm3 0c-.3 0-.5-.2-.5-.5s.2-.5.5-.5.5.2.5.5-.2.5-.5.5z" fill="#eff1f2"/></svg><svg width="18" height="18" viewBox="-1 -1 18 18" id="last-page" x="108" y="216" xmlns="http://www.w3.org/2000/svg"><g fill="#333"><path d="M5 12l5-4-5-4zM10 4v8h1V4z"/></g></svg><svg width="18" height="18" viewBox="-1 -1 18 18" id="last-page-#bbb" x="90" y="216" xmlns="http://www.w3.org/2000/svg"><g fill="#bbb"><path d="M5 12l5-4-5-4zM10 4v8h1V4z"/></g></svg><svg width="18" height="18" viewBox="-1 -1 18 18" id="left-arrow-icon" x="72" y="216" xmlns="http://www.w3.org/2000/svg"><path fill="#333" d="M10 4v8L5 8z"/></svg><svg width="18" height="18" viewBox="-1 -1 18 18" id="left-arrow-icon-#bbb" x="54" y="216" xmlns="http://www.w3.org/2000/svg"><path fill="#bbb" d="M10 4v8L5 8z"/></svg><svg width="9" height="15" viewBox="-1 -1 9 15" id="link-arrow" x="252" y="234" xmlns="http://www.w3.org/2000/svg"><path d="M4.228 6.5l-4.242 4.243L1.4 12.158l5.657-5.657-1.414-1.415L1.4.844-.014 2.259 4.228 6.5z" fill="#00A4FF" fill-rule="evenodd"/></svg><svg width="9" height="15" viewBox="-1 -1 9 15" id="link-arrow" x="261" y="234" xmlns="http://www.w3.org/2000/svg"><path d="M4.228 6.5l-4.242 4.243L1.4 12.158l5.657-5.657-1.414-1.415L1.4.844-.014 2.259 4.228 6.5z" fill="#00A4FF" fill-rule="evenodd"/></svg><svg width="9" height="15" viewBox="-1 -1 9 15" id="link-arrow-#00a4ff" x="180" y="138" xmlns="http://www.w3.org/2000/svg"><path d="M4.228 6.5l-4.242 4.243L1.4 12.158l5.657-5.657-1.414-1.415L1.4.844-.014 2.259 4.228 6.5z" fill="#00a4ff" fill-rule="evenodd"/></svg><svg width="9" height="15" viewBox="-1 -1 9 15" id="link-arrow-#fff" x="146" y="102" xmlns="http://www.w3.org/2000/svg"><path d="M4.228 6.5l-4.242 4.243L1.4 12.158l5.657-5.657-1.414-1.415L1.4.844-.014 2.259 4.228 6.5z" fill="#fff" fill-rule="evenodd"/></svg><svg width="12" height="12" viewBox="-1 -1 12 12" id="link-hover" x="270" y="86" xmlns="http://www.w3.org/2000/svg"><path d="M5 0l2.146 2.147-2.768 2.767.708.706 2.767-2.766 2.146 2.145V0h-5zM0 0v10h9.999V7h-1v2H1V1H3V0H0z" fill="#00A4FF" fill-rule="evenodd"/></svg><svg width="18" height="18" viewBox="-1 -1 18 18" id="page-next" y="216" xmlns="http://www.w3.org/2000/svg"><path fill="#333" d="M12 6H4l4 5z"/></svg><svg width="18" height="18" viewBox="-1 -1 18 18" id="page-prev" x="216" y="194" xmlns="http://www.w3.org/2000/svg"><path fill="#333" d="M12 10H4l4-5z"/></svg><svg id="pc-l-arrow" width="18" height="18" viewBox="-1 -1 18 18" x="216" y="176" xmlns="http://www.w3.org/2000/svg"><style>.fnst0{fill-rule:evenodd;clip-rule:evenodd;fill:#666}</style><path id="fnXMLID_2_" class="fnst0" d="M6.2 8.7L9.8 12l.7-.7L6.9 8l3.6-3.3-.7-.7-3.6 3.3-.7.7.7.7z"/></svg><svg id="pc-l-arrow-hover" width="18" height="18" viewBox="-1 -1 18 18" x="216" y="140" xmlns="http://www.w3.org/2000/svg"><style>.fost0{fill-rule:evenodd;clip-rule:evenodd;fill:#2b2b2b}</style><path id="foXMLID_2_" class="fost0" d="M6.2 8.7L9.8 12l.7-.7L6.9 8l3.6-3.3-.7-.7-3.6 3.3-.7.7.7.7z"/></svg><svg id="pc-r-arrow" width="18" height="18" viewBox="-1 -1 18 18" x="180" y="198" xmlns="http://www.w3.org/2000/svg"><style>.fpst0{fill-rule:evenodd;clip-rule:evenodd;fill:#666}</style><path id="fpXMLID_5_" class="fpst0" d="M9.8 7.3L6.2 3.8l-.7.7L9.1 8l-3.6 3.5.7.7 3.6-3.5.7-.7z"/></svg><svg id="pc-r-arrow-hover" width="18" height="18" viewBox="-1 -1 18 18" x="162" y="198" xmlns="http://www.w3.org/2000/svg"><style>.fqst0{fill-rule:evenodd;clip-rule:evenodd;fill:#2a2b2b}</style><path id="fqXMLID_5_" class="fqst0" d="M9.8 7.3L6.2 3.8l-.7.7L9.1 8l-3.6 3.5.7.7 3.6-3.5.7-.7z"/></svg><svg id="phone" width="20" height="20" viewBox="-1 -1 20 20" x="98" y="154" xmlns="http://www.w3.org/2000/svg"><style>.frst0{fill:#666}</style><g id="frXMLID_51_"><path id="frXMLID_52_" class="frst0" d="M12 7h2c0-1.7-1.3-3-3-3v2c.5 0 1 .5 1 1zm4 0h2c0-3.9-3.1-7-7-7v2c2.8 0 5 2.2 5 5zm1 3h-5l-1 1c-.1.1-.3.2-.4.2C9.2 11.2 6.1 7.9 7 7l1-1V1c0-.6-.4-1-1-1H1C.5 0 0 .5 0 1c.3 11.9 5.1 16.7 17 17 .6 0 1-.4 1-1v-6c0-.5-.5-1-1-1zm-1 6C6.2 15.5 2.5 11.8 2 2h4v3.5L4.7 7c0 .2.1 1 .4 1.8 1 2.5 4.4 4.3 5.9 4.4l1.5-1.2H16v4z"/></g></svg><svg width="20" height="20" viewBox="-1 -1 20 20" id="questionnaire" x="118" y="154" xmlns="http://www.w3.org/2000/svg"><g fill="#666" fill-rule="nonzero"><path d="M14 11H4v2h10z"/><path d="M3 3v12h12V3H3zM1 1h16v16H1V1z"/><path d="M9 10h5V8h-3zM7.5 9l.7-.7L11 5.5 9.7 4 6.8 6.8 5.4 5.4 4 6.8l2.8 2.8z"/></g></svg><svg data-name="图层 1" width="18" height="18" viewBox="-1 -1 18 18" id="radio" x="108" y="198" xmlns="http://www.w3.org/2000/svg"><circle cx="8" cy="8" r="7.5" fill="#fff"/><path d="M8 1a7 7 0 1 1-7 7 7 7 0 0 1 7-7m0-1a8 8 0 1 0 8 8 8 8 0 0 0-8-8z" fill="#d2d5d9"/></svg><svg data-name="图层 1" width="18" height="18" viewBox="-1 -1 18 18" id="radio-checked" y="180" xmlns="http://www.w3.org/2000/svg"><circle cx="8" cy="8" r="7.5" fill="#fff"/><path d="M8 .98a7 7 0 1 1-7 7 7 7 0 0 1 7-7m0-1a8 8 0 1 0 8 8 8 8 0 0 0-8-8z" fill="#00a4ff"/><circle cx="8" cy="8" r="4" fill="#00a4ff"/></svg><svg data-name="图层 1" width="18" height="18" viewBox="-1 -1 18 18" id="radio-checked-disabled" x="178" y="154" xmlns="http://www.w3.org/2000/svg"><circle cx="8" cy="8" r="7.5" fill="#fff"/><path d="M8 1a7 7 0 1 1-7 7 7 7 0 0 1 7-7m0-1a8 8 0 1 0 8 8 8 8 0 0 0-8-8z" fill="#d2d5d9"/><circle cx="8" cy="8" r="4" fill="#d2d5d9"/></svg><svg data-name="图层 1" width="18" height="18" viewBox="-1 -1 18 18" id="radio-disabled" x="94" y="102" xmlns="http://www.w3.org/2000/svg"><circle cx="8" cy="8" r="7.5" fill="#e4e7eb"/><path d="M8 1a7 7 0 0 1 7 7 7 7 0 0 1-7 7 7 7 0 0 1-7-7 7 7 0 0 1 7-7m0-1a8 8 0 1 0 8 8 8 8 0 0 0-8-8z" fill="#d2d5d9"/></svg><svg id="research" width="20" height="20" viewBox="-1 -1 20 20" x="158" y="154" xmlns="http://www.w3.org/2000/svg"><style>.fxst0{fill:#666}</style><g id="fxXMLID_55_"><path id="fxXMLID_56_" class="fxst0" d="M14 12H4v2h10v-2zM0 0v18h18V0H0zm16 16H2V2h14v14zm-7-6h5V8h-3l-2 2zM7.5 9l.7-.7L11 5.5 9.7 4 6.8 6.8 5.4 5.4 4 6.8l2.8 2.8.7-.6z"/></g></svg><svg width="18" height="18" viewBox="-1 -1 18 18" id="right-arrow-icon" x="196" y="96" xmlns="http://www.w3.org/2000/svg"><path fill="#333" d="M6 12V4l5 4z"/></svg><svg width="18" height="18" viewBox="-1 -1 18 18" id="right-arrow-icon-#bbb" x="72" y="198" xmlns="http://www.w3.org/2000/svg"><path fill="#bbb" d="M6 12V4l5 4z"/></svg><svg width="20" height="20" viewBox="-1 -1 20 20" id="service" x="196" y="40" xmlns="http://www.w3.org/2000/svg"><path d="M2 7h1c0-3.3 2.7-6 6-6s6 2.7 6 6h1c1.1 0 2 .9 2 2v2c0 1.1-.9 2-2 2h-1c0 2.2-1.8 4-4 4H7v-3h4v1c1.1 0 2-.9 2-2V7c0-2.2-1.8-4-4-4S5 4.8 5 7v6H2c-1.1 0-2-.9-2-2V9c0-1.1.9-2 2-2zm14 4V9h-1v2h1zM2 11h1V9H2v2z" fill="#666" fill-rule="nonzero"/></svg><svg id="shopping" width="20" height="20" viewBox="-1 -1 20 20" x="138" y="154" xmlns="http://www.w3.org/2000/svg"><style>.gbst0{fill-rule:evenodd;clip-rule:evenodd;fill:#666}</style><path class="gbst0" d="M0 18V0h18v18H0zM16 2H2v2h14V2zm0 4H2v10h14V6zm-7 5c1.7 0 3-1.3 3-3h2c0 2.8-2.2 5-5 5s-5-2.2-5-5h2c0 1.7 1.3 3 3 3z"/></svg><svg data-name="图层 1" width="18" height="15" viewBox="-1 -1 18 15" id="video" x="162" y="138" xmlns="http://www.w3.org/2000/svg"><path d="M14 .98a1 1 0 0 1 1 1v9a1 1 0 0 1-1 1H2a1 1 0 0 1-1-1v-9a1 1 0 0 1 1-1h12m0-1H2a2 2 0 0 0-2 2v9a2 2 0 0 0 2 2h12a2 2 0 0 0 2-2v-9a2 2 0 0 0-2-2z" fill="#7c848e"/><path d="M10.16 6.76L6.47 8.98A.3.3 0 0 1 6 8.69V4.31a.3.3 0 0 1 .45-.26l3.7 2.19a.3.3 0 0 1 .01.52z" fill="#7c848e"/></svg></svg>