<?xml version="1.0" encoding="utf-8"?>
<!-- Generator: Adobe Illustrator 19.0.0, SVG Export Plug-In . SVG Version: 6.00 Build 0)  -->
<svg version="1.1" id="图层_1" xmlns="http://www.w3.org/2000/svg" xmlns:xlink="http://www.w3.org/1999/xlink" x="0px" y="0px"
	 width="32px" height="32px" viewBox="-784.5 584.5 32 32" style="enable-background:new -784.5 584.5 32 32;" xml:space="preserve"
	>
<style type="text/css">
	.st0{fill:#0ABF5B;}
	.st1{clip-path:url(#SVGID_2_);fill:#0ABF5B;}
</style>
<g>
	<polygon class="st0" points="-770.9,602.9 -774.3,599.4 -776.4,601.6 -773,605 -770.9,607.3 -768.6,605 -760.6,597 -762.7,594.7 	
		"/>
	<g>
		<g>
			<defs>
				<rect id="SVGID_1_" x="-784.5" y="584.5" width="32" height="32"/>
			</defs>
			<clipPath id="SVGID_2_">
				<use xlink:href="#SVGID_1_"  style="overflow:visible;"/>
			</clipPath>
			<path class="st1" d="M-768.5,584.5c-8.9,0-16,7.1-16,16s7.1,16,16,16s16-7.1,16-16S-759.6,584.5-768.5,584.5 M-768.5,613.4
				c-7.1,0-12.9-5.8-12.9-12.9s5.8-12.9,12.9-12.9s12.9,5.8,12.9,12.9S-761.4,613.4-768.5,613.4"/>
		</g>
	</g>
</g>
</svg>
