<svg id="图层_1" data-name="图层 1" xmlns="http://www.w3.org/2000/svg" width="53" height="18" viewBox="0 0 53 18">
  <title>c-nav-logo-icon</title>
  <g id="Page-1">
    <g id="社区首页">
      <g id="Group-49">
        <polygon id="Fill-4" points="1.607 4.047 11.583 4.047 11.583 2.586 1.607 2.586 1.607 4.047" fill="#00a4ff"/>
        <path id="Fill-6" d="M5.844,9.736h9.448V8.275H.062V9.736H4.146c-.844,2.224-2.96,7.8-2.974,7.845a.077.077,0,0,0,.036.1.069.069,0,0,0,.038.008H14.453a.082.082,0,0,0,.081-.084.072.072,0,0,0-.008-.032l-1.892-5h-1.58a.08.08,0,0,0-.082.079.071.071,0,0,0,.007.032l1.339,3.54H3.386Z" fill="#00a4ff"/>
        <polygon id="Fill-7" points="32.39 16.259 32.39 8.134 36.099 8.134 36.099 6.656 32.39 6.656 32.39 1.81 30.785 1.81 30.785 6.656 27.076 6.656 27.076 8.134 30.785 8.134 30.785 16.259 26.586 16.259 26.586 17.737 36.59 17.737 36.59 16.259 32.39 16.259"/>
        <path id="Fill-8" d="M27.743,12a.082.082,0,0,0,.082-.083.087.087,0,0,0-.02-.053l-2.1-2.5h-.67A10.643,10.643,0,0,0,26.55,6.513c.008-.026.017-.052.025-.077V5.172H21.316V6.515h3.667a12.886,12.886,0,0,1-3.806,4.749v1.645a.082.082,0,0,0,.083.081.076.076,0,0,0,.042-.012,12.752,12.752,0,0,0,2.084-1.686V18h1.476V10.648L25.993,12Z"/>
        <path id="Fill-9" d="M22.288,1.81a.081.081,0,0,0-.081.081.079.079,0,0,0,.015.046l1.531,2.472h1.585a.084.084,0,0,0,.08-.087.08.08,0,0,0-.011-.04L23.875,1.81Z"/>
        <path id="Fill-10" d="M51.314,4.655h-1.9L46.589,8.337,43.7,4.655H41.8a.082.082,0,0,0-.085.078.088.088,0,0,0,.018.054l3.83,4.889L41.537,14.93a.083.083,0,0,0,.018.116.085.085,0,0,0,.05.016h1.906l3.1-4.048,3.171,4.048H51.7a.079.079,0,0,0,.08-.079.078.078,0,0,0-.017-.048l-4.12-5.259,3.745-4.889a.082.082,0,0,0-.017-.116.087.087,0,0,0-.052-.016"/>
        <polygon id="Fill-11" points="52.861 16.062 40.55 16.062 40.55 3.546 52.732 3.546 52.732 2.069 38.945 2.069 38.945 17.54 52.861 17.54 52.861 16.062"/>
        <polygon id="Fill-12" points="19.33 2.736 16.607 2.736 16.607 0 15.146 0 15.146 2.736 12.422 2.736 12.422 4.202 15.146 4.202 15.146 6.937 16.607 6.937 16.607 4.202 19.33 4.202 19.33 2.736" fill="#00a4ff"/>
      </g>
    </g>
  </g>
</svg>
