<svg id="图层_1" data-name="图层 1" xmlns="http://www.w3.org/2000/svg" width="320" height="298" viewBox="0 0 320 298">
  <title>icon-背景图</title>
  <g id="Page-1">
    <g id="国际站弹窗">
      <g id="icon-01">
        <path id="Shape" d="M200,65.5A112.5,112.5,0,1,1,87.5,178,112.5,112.5,0,0,1,200,65.5Zm0-7.5a120,120,0,1,0,84.853,35.147A120,120,0,0,0,200,58Z" style="fill: #f6f6f6"/>
        <path id="Shape-2" data-name="Shape" d="M253.336,129.25a6.281,6.281,0,0,1,6.428,6.113v47.625a6.281,6.281,0,0,1-6.428,6.113H238.872v10.125l-12.585-8.76-1.935-1.35H183.7A6.281,6.281,0,0,1,177.268,183v-47.64a6.281,6.281,0,0,1,6.428-6.113Zm0-7.5H183.7a13.774,13.774,0,0,0-13.928,13.613v47.625A13.774,13.774,0,0,0,183.7,196.6H222l24.375,17.014v-17h6.964A13.774,13.774,0,0,0,267.264,183v-47.64A13.774,13.774,0,0,0,253.336,121.75Z" style="fill: #f6f6f6"/>
        <path id="Shape-3" data-name="Shape" d="M226.018,208.529v.971a6.281,6.281,0,0,1-6.428,6.113H178.925l-1.935,1.35L164.4,225.745V215.62H149.941a6.281,6.281,0,0,1-6.428-6.112V161.883a6.281,6.281,0,0,1,6.428-6.113H162.5v-7.5H149.945a13.774,13.774,0,0,0-13.928,13.613V209.5a13.774,13.774,0,0,0,13.928,13.613h6.964v17.014l24.375-17.014H219.59a13.841,13.841,0,0,0,13.3-9.788Z" style="fill: #f6f6f6"/>
        <g id="Group">
          <polygon id="Shape-4" data-name="Shape" points="213.946 173.785 192.016 173.785 192.016 145.773 213.564 145.773 213.564 150.97 198.354 150.97 198.354 157.052 212.551 157.052 212.551 162.25 198.354 162.25 198.354 168.843 213.946 168.843 213.946 173.785" style="fill: #f6f6f6"/>
          <path id="Shape-5" data-name="Shape" d="M245.3,173.785h-6.465l-11.029-17.494q-1.125-1.9-1.523-2.659.128,1.9.128,4.815v15.337h-5.955V145.773H227.3l10.65,17.25a11.831,11.831,0,0,1,1.522,2.786v-.128q-.127-1.391-.127-4.309v-15.6H245.3Z" style="fill: #f6f6f6"/>
        </g>
        <g id="Group-3">
          <circle id="Oval" cx="176" cy="9" r="7" style="fill: none;stroke: #f5f5f5;stroke-width: 4px"/>
          <rect id="Rectangle-2" x="110" y="7" width="50" height="4" style="fill: #f5f5f5"/>
          <rect id="Rectangle-4" x="56" y="75" width="20" height="4" transform="translate(-35.116 69.222) rotate(-45)" style="fill: #f5f5f5"/>
          <rect id="Rectangle-2-Copy" y="75" width="50" height="4" style="fill: #f5f5f5"/>
          <rect id="Rectangle-2-Copy-2" x="82" y="75" width="20" height="4" style="fill: #f5f5f5"/>
          <rect id="Rectangle-6" x="64" y="67" width="4" height="20" transform="translate(-35.116 69.222) rotate(-45)" style="fill: #f5f5f5"/>
        </g>
      </g>
    </g>
  </g>
</svg>
