<?xml version="1.0" encoding="utf-8"?><svg width="96" height="77" viewBox="0 0 96 77" xmlns="http://www.w3.org/2000/svg" xmlns:xlink="http://www.w3.org/1999/xlink"><svg data-name="图层 1" width="18" height="18" viewBox="-1 -1 18 18" id="c-c6d2" x="18" y="51"><title>复-选中</title><path d="M0 0h16v16H0z" fill="#00a4ff"/><path fill="#fff" d="M13.8 5.4L12.5 4l-6 6.3-2.4-2.5-1.3 1.4 2.4 2.4L6.5 13l1.3-1.4 6-6.2z"/></svg><svg data-name="图层 1" width="18" height="18" viewBox="-1 -1 18 18" id="c-d-cce5" x="36" y="51"><title>复-不可点02</title><path fill="#f7f8fa" d="M.5.5h15v15H.5z"/><path d="M15 1v14H1V1h14m1-1H0v16h16z" fill="#ddd"/><path fill="#ddd" d="M13.8 5.4L12.5 4l-6 6.3-2.4-2.5-1.3 1.4 2.4 2.4L6.5 13l1.3-1.4 6-6.2z"/></svg><svg data-name="图层 1" width="18" height="18" viewBox="-1 -1 18 18" id="c-dc29" x="54" y="51"><title>复-不可点</title><path fill="#f7f8fa" d="M.5.5h15v15H.5z"/><path d="M15 1v14H1V1h14m1-1H0v16h16V0z" fill="#ddd"/></svg><svg width="13" height="8" viewBox="-1 -1 13 8" id="caret-placeholder53e" x="13" y="69"><title>Page 1</title><path d="M10.313 0L5.5 4.667.688 0 0 .667l4.813 4.666L5.5 6l.687-.667L11 .667z" fill="#999" fill-rule="evenodd"/></svg><svg width="13" height="8" viewBox="-1 -1 13 8" id="carete9f" y="69"><title>Page 1</title><path d="M10.313 0L5.5 4.667.688 0 0 .667l4.813 4.666L5.5 6l.687-.667L11 .667z" fill="#333" fill-rule="evenodd"/></svg><svg data-name="图层 1" width="18" height="18" viewBox="-1 -1 18 18" id="cb3b" x="26" y="26"><title>复-常态</title><path fill="#fff" d="M.5.5h15v15H.5z"/><path d="M15 1v14H1V1h14m1-1H0v16h16V0z" fill="#ddd"/></svg><svg width="14" height="14" viewBox="-1 -1 14 14" id="close-hover42b" x="78" y="50"><title>Page 1 Copy 4</title><path d="M10.574 0L6 4.572 1.426-.001 0 1.426l4.574 4.575L0 10.574 1.426 12 6 7.427 10.574 12 12 10.574 7.426 6.001l4.575-4.575z" fill="#00a4ff" fill-rule="evenodd"/></svg><svg width="14" height="14" viewBox="-1 -1 14 14" id="close425" x="78" y="36"><title>Page 1 Copy 4</title><path d="M10.574 0L6 4.572 1.426-.001 0 1.426l4.574 4.575L0 10.574 1.426 12 6 7.427 10.574 12 12 10.574 7.426 6.001l4.575-4.575z" fill="#888" fill-rule="evenodd"/></svg><svg width="26" height="26" viewBox="-1 -1 26 26" id="icon-096e"><title>icon-0</title><path d="M12 0C5.4 0 0 5.4 0 12s5.4 12 12 12 12-5.4 12-12S18.6 0 12 0zm0 22.5C6.15 22.5 1.5 17.85 1.5 12S6.15 1.5 12 1.5 22.5 6.15 22.5 12 17.85 22.5 12 22.5zM12 6h-1.5v9H18v-1.5h-6V6z" fill="#666" fill-rule="evenodd"/></svg><svg width="26" height="25" viewBox="-1 -1 26 25" id="icon-16fe" y="26"><title>icon-1</title><path d="M22.315 6.545H17.15V4.94c0-.013.004-.024.004-.037 0-2.71-2.306-4.904-5.15-4.904-2.845 0-5.151 2.196-5.151 4.904v1.64H1.689L0 22.86h24L22.315 6.545zM8.569 4.913l-.001-.01c0-1.805 1.54-3.273 3.435-3.273S15.44 3.1 15.44 4.904l-.001.01h-.004v1.63H8.571l-.002-1.63zM1.893 21.231l1.35-13.054h3.612v4.896H8.57V8.176h6.863v4.895h1.716V8.176h3.61l1.347 13.053H1.893v.002z" fill="#666" fill-rule="evenodd"/></svg><svg width="26" height="26" viewBox="-1 -1 26 26" id="icon-3ca8" x="52"><title>icon-3</title><g fill="#666" fill-rule="evenodd"><path d="M12 0C5.4 0 0 5.4 0 12s5.4 12 12 12 12-5.4 12-12S18.6 0 12 0zm0 22.5C6.15 22.5 1.5 17.85 1.5 12S6.15 1.5 12 1.5 22.5 6.15 22.5 12 17.85 22.5 12 22.5z"/><path d="M16.322 7.133l-1.233 1.08c-1.033-.848-2.034-1.272-3.007-1.272-.636 0-1.17.172-1.6.516-.43.345-.645.768-.645 1.272s.228.936.688 1.296c.46.36 1.25.791 2.372 1.295 1.125.505 1.98 1.049 2.57 1.633.589.585.885 1.3.885 2.148 0 1.072-.437 1.975-1.307 2.711-.87.737-1.943 1.104-3.214 1.104a6.29 6.29 0 0 1-2.429-.48 5.598 5.598 0 0 1-1.978-1.343l1.207-1.154c.992.945 2.031 1.416 3.117 1.416.767 0 1.424-.218 1.965-.648.542-.432.815-.94.815-1.526 0-.583-.238-1.063-.716-1.44-.477-.374-1.275-.803-2.388-1.284-1.114-.477-1.948-1-2.499-1.569-.554-.566-.83-1.303-.83-2.207 0-.905.389-1.676 1.166-2.316.777-.64 1.806-.96 3.089-.96 1.282 0 2.607.575 3.972 1.728z"/><path d="M11.403 18.654h1.5v1.5h-1.5zM11.403 4h1.5v1.5h-1.5z"/></g></svg><svg width="26" height="26" viewBox="-1 -1 26 26" id="icon-424f" x="26"><title>icon-4</title><path d="M17.143 8.571H6.857v1.715h10.286V8.57zM18.857 0H5.143v5.143h13.714V0zm-1.714 3.429H6.857V1.714h10.286V3.43zm3.428-1.715V3.43h1.715v18.857H1.714V3.429H3.43V1.714H0V24h24V1.714h-3.429zM17.143 12H6.857v1.714h10.286V12zM6.857 17.143h10.286v-1.714H6.857v1.714z" fill="#666" fill-rule="evenodd"/></svg><svg data-name="图层 1" width="18" height="18" viewBox="-1 -1 18 18" id="r-cc2c" y="51"><title>单-选中</title><circle cx="8" cy="8" r="7.5" fill="#fff"/><path d="M8 .98a7 7 0 1 1-7 7 7 7 0 0 1 7-7m0-1a8 8 0 1 0 8 8 8 8 0 0 0-8-8z" fill="#ddd"/><circle cx="8" cy="8" r="4" fill="#00a4ff"/></svg><svg data-name="图层 1" width="18" height="18" viewBox="-1 -1 18 18" id="r-d-c518" x="52" y="26"><title>单-不可点02</title><circle cx="8" cy="8" r="7.5" fill="#f7f8fa"/><path d="M8 1a7 7 0 1 1-7 7 7 7 0 0 1 7-7m0-1a8 8 0 1 0 8 8 8 8 0 0 0-8-8z" fill="#ddd"/><circle cx="8" cy="8" r="4" fill="#ddd"/></svg><svg data-name="图层 1" width="18" height="18" viewBox="-1 -1 18 18" id="r-df9d" x="78"><title>单-不可点</title><circle cx="8" cy="8" r="7.5" fill="#f7f8fa"/><path d="M8 1a7 7 0 0 1 7 7 7 7 0 0 1-7 7 7 7 0 0 1-7-7 7 7 0 0 1 7-7m0-1a8 8 0 1 0 8 8 8 8 0 0 0-8-8z" fill="#ddd"/></svg><svg data-name="图层 1" width="18" height="18" viewBox="-1 -1 18 18" id="r651" x="78" y="18"><title>单-常态</title><circle cx="8" cy="8" r="7.5" fill="#fff"/><path d="M8 1a7 7 0 1 1-7 7 7 7 0 0 1 7-7m0-1a8 8 0 1 0 8 8 8 8 0 0 0-8-8z" fill="#ddd"/></svg></svg>