<?xml version="1.0" encoding="UTF-8"?><!DOCTYPE svg PUBLIC "-//W3C//DTD SVG 1.1//EN" "http://www.w3.org/Graphics/SVG/1.1/DTD/svg11.dtd"><svg width="54" height="54" viewBox="0 0 54 54" xmlns="http://www.w3.org/2000/svg" xmlns:xlink="http://www.w3.org/1999/xlink"><svg width="18" height="18" viewBox="-1 -1 18 18" id="arrow-right-16" xmlns="http://www.w3.org/2000/svg"><g fill="none" fill-rule="evenodd"><path d="M0 0h16v16H0z"/><path d="M8.328 8.257L5.5 5.43l1.414-1.414 4.243 4.242L6.914 12.5 5.5 11.086z" fill="#454a51" fill-rule="nonzero"/></g></svg><svg width="18" height="18" viewBox="-1 -1 18 18" id="btn-dismiss" x="18" xmlns="http://www.w3.org/2000/svg"><path fill="#888" d="M13.95 3.414L12.536 2 8 6.536 3.464 2 2.05 3.414 6.586 7.95 2.05 12.485l1.414 1.414L8 9.364l4.536 4.535 1.414-1.414L9.414 7.95z"/></svg><svg width="18" height="18" viewBox="-1 -1 18 18" id="btn-dismiss-hover" y="18" xmlns="http://www.w3.org/2000/svg"><path fill="#444" d="M13.95 3.414L12.536 2 8 6.536 3.464 2 2.05 3.414 6.586 7.95 2.05 12.485l1.414 1.414L8 9.364l4.536 4.535 1.414-1.414L9.414 7.95z"/></svg><svg width="18" height="18" viewBox="-1 -1 18 18" id="down-arrow-icon" x="18" y="18" xmlns="http://www.w3.org/2000/svg"><path fill="#888" d="M12 6H4l4 5z"/></svg><svg width="18" height="18" viewBox="-1 -1 18 18" id="right-arrow-icon" x="36" xmlns="http://www.w3.org/2000/svg"><path fill="#888" d="M6 12V4l5 4z"/></svg><svg width="16" height="16" viewBox="-1 -1 16 16" id="search_icon" x="36" y="36" xmlns="http://www.w3.org/2000/svg"><path d="M14 12l-2.881-2.881C11.674 8.209 12 7.144 12 6a6 6 0 1 0-6 6 5.968 5.968 0 0 0 3.119-.881L12 14l2-2zM2 6a4 4 0 1 1 8 0 4 4 0 0 1-8 0z" fill="#888" fill-rule="evenodd"/></svg><svg width="18" height="18" viewBox="-1 -1 18 18" id="success-gray-icon" x="36" y="18" xmlns="http://www.w3.org/2000/svg"><g fill="#bbb"><path d="M10.586 5.211L7.042 8.79 5.299 7.048 3.885 8.462l3.157 3.157 1.414-1.414L12 6.625l-1.414-1.414z"/><path d="M8 1a7 7 0 1 0 7 7 7 7 0 0 0-7-7zm0 12a5 5 0 1 1 5-5 5.006 5.006 0 0 1-5 5z"/></g></svg><svg width="18" height="18" viewBox="-1 -1 18 18" id="success-icon" y="36" xmlns="http://www.w3.org/2000/svg"><g fill="#0ABF5B"><path d="M10.586 5.211L7.042 8.79 5.299 7.048 3.885 8.462l3.157 3.157 1.414-1.414L12 6.625z"/><path d="M8 1a7 7 0 1 0 0 14A7 7 0 0 0 8 1zm0 12c-2.757 0-5-2.243-5-5s2.243-5 5-5 5 2.243 5 5-2.243 5-5 5z"/></g></svg><svg width="18" height="18" viewBox="-1 -1 18 18" id="up-arrow-icon" x="18" y="36" xmlns="http://www.w3.org/2000/svg"><path fill="#888" d="M12 10H4l4-5z"/></svg></svg>