<?xml version="1.0" encoding="UTF-8"?>
<svg width="14px" height="16px" viewBox="0 0 14 16" version="1.1" xmlns="http://www.w3.org/2000/svg" xmlns:xlink="http://www.w3.org/1999/xlink">
    <!-- Generator: Sketch 49.1 (51147) - http://www.bohemiancoding.com/sketch -->
    <title>Group 6</title>
    <desc>Created with Sketch.</desc>
    <defs></defs>
    <g id="Page-1" stroke="none" stroke-width="1" fill="none" fill-rule="evenodd">
        <g id="课程学习页" transform="translate(-285.000000, -146.000000)" fill="#7C848E">
            <g id="Group-6" transform="translate(285.000000, 146.000000)">
                <g id="Group-5">
                    <g id="Page-1">
                        <polygon id="Fill-1" points="2 9 10 9 10 8 2 8"></polygon>
                        <polygon id="Fill-2" points="2 9 10 9 10 8 2 8"></polygon>
                        <polygon id="Fill-3" points="2 13 10 13 10 12 2 12"></polygon>
                        <polygon id="Fill-4" points="2 13 10 13 10 12 2 12"></polygon>
                        <polygon id="Fill-5" points="2 11 8 11 8 10 2 10"></polygon>
                        <polygon id="Fill-6" points="2 11 8 11 8 10 2 10"></polygon>
                        <path d="M0,0 L0,16 L14,16 L14,6.00037502 L14,5.00031252 L9.0006429,0 L0,0 Z M1.00007143,1.0000625 L8.00057147,1.0000625 L8.00057147,6.00037502 L13.0009286,6.00037502 L13.0009286,14.9999375 L1.00007143,14.9999375 L1.00007143,1.0000625 Z M9.0006429,1.43008938 L12.5708979,5.00031252 L9.0006429,5.00031252 L9.0006429,1.43008938 Z" id="Fill-7"></path>
                    </g>
                </g>
            </g>
        </g>
    </g>
</svg>