<?xml version="1.0" encoding="utf-8"?><!DOCTYPE svg PUBLIC "-//W3C//DTD SVG 1.1//EN" "http://www.w3.org/Graphics/SVG/1.1/DTD/svg11.dtd"><svg width="205" height="139" viewBox="0 0 205 139" xmlns="http://www.w3.org/2000/svg" xmlns:xlink="http://www.w3.org/1999/xlink"><svg width="10" height="14" viewBox="-1 -1 10 14" id="arrow" x="165" y="66" xmlns="http://www.w3.org/2000/svg"><path d="M4.701 5.999L.492 10.142l1.403 1.381L7.508 6 6.105 4.618 1.895.476.492 1.858l4.209 4.141z" fill="gray"/></svg><svg width="10" height="14" viewBox="-1 -1 10 14" id="arrow-#00a4ff" x="175" y="66" xmlns="http://www.w3.org/2000/svg"><path d="M4.701 5.999L.492 10.142l1.403 1.381L7.508 6 6.105 4.618 1.895.476.492 1.858l4.209 4.141z" fill="#00a4ff"/></svg><svg viewBox="-1 -1 73 73" width="73" height="73" id="jb" xmlns="http://www.w3.org/2000/svg"><path d="M0 0h37.74L71 33.163V71z" fill="#00a4ff"/></svg><svg width="26" height="26" viewBox="-1 -1 26 26" id="sousuo" x="139" y="66" xmlns="http://www.w3.org/2000/svg"><linearGradient id="ada" gradientUnits="userSpaceOnUse" x1="5.13" y1="4.569" x2="21.377" y2="20.817"><stop offset="0" stop-color="#fff"/><stop offset="1" stop-color="#fff"/></linearGradient><path fill-rule="evenodd" clip-rule="evenodd" fill="url(#ada)" d="M21.5 20.6l-3.6-3.4c1.6-1.6 2.6-3.8 2.6-6.3 0-5-4-9-9-9s-9 4-9 9 4 9 9 9c1.8 0 3.5-.5 4.9-1.4l3.8 3.6 1.3-1.5zM11.4 18c-3.9 0-7-3.1-7-7s3.1-7 7-7 7 3.1 7 7c.1 3.9-3.1 7-7 7z"/></svg><svg width="66" height="66" viewBox="-1 -1 66 66" id="tofu-cloud" x="73" xmlns="http://www.w3.org/2000/svg"><path d="M0 64h64V0L0 64zm62-42.875h-6V23h6v5h-6v1.875h6V35h-6v1.875h6V41h-6v1.875h6V47h-6v1.875h6v4.25h-6V55h6v7H5.2L62 5v16.125zM52 51V31.533L32.533 51H52zm-9.513-35.473L44.133 3 31.896 4.859 1.787 34.749l10.591 10.669 30.109-29.891zm-.779-10.11l-1.207 8.11-6.812-6.863 8.019-1.247zM4.615 34.759l27.27-27.072 2.989 3.01L7.227 37.39l-2.612-2.631zm31.668-22.643l3.376 3.4-27.27 27.072-3.752-3.778 27.646-26.694z" fill="#dedee0"/></svg><svg id="tofu-domain" width="66" height="66" viewBox="23 -25 66 66" y="73" xmlns="http://www.w3.org/2000/svg"><style>.afst0{fill:#dedee0}</style><g id="afXMLID_72_"><path id="afXMLID_73_" class="afst0" d="M35 30h42v-2H35v2zm-9-48v42h60v-42H26zm58 40H28V11h56v11zM42 7V4h3v3h-3zm15-2v3h-5c-1.7 0-3-1.3-3-3V0c0-1.7 1.3-3 3-3h5v3h-5v5h5zm7-5v8h-3V-3h6.2c1.6.1 2.9 1.4 2.8 3v8h-3V0h-3zm20-6H28v-10h56v10z"/></g></svg><svg id="tofu-hosting" width="66" height="66" viewBox="23 -25 66 66" x="66" y="73" xmlns="http://www.w3.org/2000/svg"><style>.agst0{fill:#dedee0}</style><g id="agXMLID_76_"><path id="agXMLID_77_" class="agst0" d="M40 24h32V14H40v10zm4-6h5v2h-5v-2zm42 6v-38H26v46h60v-2H28V-4h56v28h2zM28-6v-6h56v6H28zm44 8H40v10h32V2zM49 8h-5V6h5v2z"/></g></svg><svg width="66" height="66" viewBox="-1 -1 66 66" id="tofu-wx" x="139" xmlns="http://www.w3.org/2000/svg"><path d="M32.5 14C22.283 14 14 22.283 14 32.5S22.283 51 32.5 51 51 42.717 51 32.5 42.717 14 32.5 14zm5.64 19.6l-.102.036-.006.001a1.123 1.123 0 0 1-1.329-.879c-.06-.317-.049-.902.749-1.291a2.831 2.831 0 0 0 1.364-2.443c-.053-1.518-1.259-2.736-2.763-2.789-1.582-.056-2.909 1.193-2.964 2.789v6.907c-.011 2.814-2.28 5.087-5.068 5.076-2.788-.011-5.04-2.301-5.029-5.116a5.05 5.05 0 0 1 2.872-4.575l.102-.036.006-.001a1.123 1.123 0 0 1 1.329.878c.064.314.049.902-.749 1.291a2.827 2.827 0 0 0-1.367 2.443c.053 1.514 1.256 2.729 2.756 2.782 1.578.056 2.901-1.189 2.957-2.782v-6.854c.006-2.817 2.268-5.099 5.059-5.103 2.786 0 5.047 2.277 5.052 5.089A5.052 5.052 0 0 1 38.14 33.6zM32 2C15.432 2 2 15.431 2 32c0 16.568 13.432 30 30 30s30-13.432 30-30C62 15.431 48.568 2 32 2zm0 58C16.536 60 4 47.464 4 32S16.536 4 32 4s28 12.536 28 28-12.536 28-28 28z" fill="#dedee0"/></svg></svg>