<svg id="图层_1" data-name="图层 1" xmlns="http://www.w3.org/2000/svg" width="32" height="32" viewBox="0 0 32 32">
  <title>多维度</title>
  <path d="M11,16a5,5,0,1,1,5,5A5,5,0,0,1,11,16Zm2,0a3,3,0,1,0,3-3A3,3,0,0,0,13,16Z" style="fill: #00a4ff"/>
  <circle cx="26" cy="18" r="2" style="fill: #00a4ff"/>
  <circle cx="6" cy="5" r="2" style="fill: #00a4ff"/>
  <circle cx="21.61" cy="24.25" r="1" style="fill: #00a4ff"/>
  <path d="M16,5A10.92,10.92,0,0,1,26.86,17.65L25,16.56c0-.19,0-.37,0-.56a9,9,0,1,0-4.13,7.55L22.31,25A11,11,0,1,1,16,5Z" style="fill: #00a4ff"/>
  <circle cx="1" cy="16.02" r="1" style="fill: #00a4ff"/>
  <path d="M16,30A14,14,0,1,0,8.06,4.49L6.17,3.4A16,16,0,1,1,0,16H2A14,14,0,0,0,16,30Z" style="fill: #00a4ff"/>
</svg>
