<svg xmlns="http://www.w3.org/2000/svg" width="100" height="100" viewBox="0 0 100 100"><defs><style>.cls-1{fill:#20b443;}.cls-2{fill:#fff;}</style></defs><title>资源 6</title><g id="图层_2" data-name="图层 2"><g id="图层_1-2" data-name="图层 1"><circle class="cls-1" cx="50" cy="50" r="50"/><path class="cls-2" d="M61.2,26.1A14.34,14.34,0,0,0,46.88,40.41V59.63a8.09,8.09,0,0,1-16.17,0,7.92,7.92,0,0,1,3.87-6.85c2.26-1.09,2.3-2.74,2.12-3.62a3.18,3.18,0,0,0-3.78-2.46l-.29.1A14.15,14.15,0,0,0,24.5,59.63a14.29,14.29,0,0,0,28.58.11V40.37a8.11,8.11,0,0,1,16.21,0,7.92,7.92,0,0,1-3.86,6.85c-2.26,1.09-2.29,2.73-2.12,3.62a3.18,3.18,0,0,0,3.78,2.46l.29-.1A14.15,14.15,0,0,0,75.5,40.37,14.3,14.3,0,0,0,61.2,26.1Z"/></g></g></svg>