<?xml version="1.0" encoding="utf-8"?><svg width="121" height="106" viewBox="0 0 121 106" xmlns="http://www.w3.org/2000/svg" xmlns:xlink="http://www.w3.org/1999/xlink"><svg data-name="图层 1" width="18" height="18" viewBox="-1 -1 18 18" id="c-c6d2" x="103" y="18"><title>复-选中</title><path d="M0 0h16v16H0z" fill="#00a4ff"/><path fill="#fff" d="M13.8 5.4L12.5 4l-6 6.3-2.4-2.5-1.3 1.4 2.4 2.4L6.5 13l1.3-1.4 6-6.2z"/></svg><svg data-name="图层 1" width="18" height="18" viewBox="-1 -1 18 18" id="c-d-cce5" x="103" y="54"><title>复-不可点02</title><path fill="#f7f8fa" d="M.5.5h15v15H.5z"/><path d="M15 1v14H1V1h14m1-1H0v16h16z" fill="#ddd"/><path fill="#ddd" d="M13.8 5.4L12.5 4l-6 6.3-2.4-2.5-1.3 1.4 2.4 2.4L6.5 13l1.3-1.4 6-6.2z"/></svg><svg data-name="图层 1" width="18" height="18" viewBox="-1 -1 18 18" id="c-dc29" x="103"><title>复-不可点</title><path fill="#f7f8fa" d="M.5.5h15v15H.5z"/><path d="M15 1v14H1V1h14m1-1H0v16h16V0z" fill="#ddd"/></svg><svg id="c-dialog-icon-confirm-error435" width="34" height="34" viewBox="-1 -1 34 34" y="28"><style>.dst0{fill:#e54545}</style><path class="dst0" d="M14.5 23.7h3.1v-3.1h-3.1v3.1zm0-5.1h3.1V8.3h-3.1v10.3zM16 0C7.2 0 0 7.2 0 16s7.2 16 16 16 16-7.2 16-16S24.8 0 16 0zm0 28.9C8.9 28.9 3.1 23.1 3.1 16S8.9 3.1 16 3.1 28.9 8.9 28.9 16 23.1 28.9 16 28.9z" id="dXMLID_2_"/></svg><svg id="c-dialog-icon-confirm-successcc8" width="34" height="34" viewBox="-785.5 583.5 34 34" x="34" y="28"><style>.est0,.est1{fill:#0abf5b}.est1{clip-path:url(#eSVGID_2_)}</style><path class="est0" d="M-770.9 602.9l-3.4-3.5-2.1 2.2 3.4 3.4 2.1 2.3 2.3-2.3 8-8-2.1-2.3z"/><defs><path id="eSVGID_1_" d="M-784.5 584.5h32v32h-32z"/></defs><clipPath id="eSVGID_2_"><use xlink:href="#eSVGID_1_" overflow="visible"/></clipPath><path class="est1" d="M-768.5 584.5c-8.9 0-16 7.1-16 16s7.1 16 16 16 16-7.1 16-16-7.1-16-16-16m0 28.9c-7.1 0-12.9-5.8-12.9-12.9s5.8-12.9 12.9-12.9 12.9 5.8 12.9 12.9-5.8 12.9-12.9 12.9"/></svg><svg width="77" height="28" viewBox="-1 -1 77 28" id="card5-tag-bg909"><title>4</title><g fill="none" fill-rule="nonzero"><path fill="#FF7B3F" d="M0 0h74v20H10z"/><path fill="#D35D28" d="M74.167 20L68 25.178V20z"/></g></svg><svg data-name="图层 1" width="18" height="18" viewBox="-1 -1 18 18" id="cb3b" x="103" y="36"><title>复-常态</title><path fill="#fff" d="M.5.5h15v15H.5z"/><path d="M15 1v14H1V1h14m1-1H0v16h16V0z" fill="#ddd"/></svg><svg id="checkblock-activied468" width="18" height="18" viewBox="-1 -1 18 18" x="52" y="62"><style>.hst0,.hst1{fill-rule:evenodd;clip-rule:evenodd;fill:#2277da}.hst1{fill:#fff}</style><path id="hXMLID_2_" class="hst0" d="M16 1v15H0L16 1z"/><g id="hXMLID_4_"><g id="hXMLID_77_"><path id="hXMLID_78_" class="hst1" d="M8 11v1h1v-1H8zm1 1v1h1v-1H9zm1 2h1v-1h-1v1zm1-1h1v-1h-1v1zm1-1h1v-1h-1v1zm1-1h1v-1h-1v1zm1-2v1h1V9h-1z"/></g></g></svg><svg id="e-bubble-icon-plaint67b" width="18" height="18" viewBox="-1 -1 18 18" x="70" y="62"><style>.ist0{fill:#7c848e}</style><path class="ist0" d="M9 7H6v1h1v4h1.9l1-1H9V7zm0-3H7v2h2V4zM8 1C4.1 1 1 4.1 1 8s3.1 7 7 7 7-3.1 7-7-3.1-7-7-7zm0 12c-2.8 0-5-2.2-5-5s2.2-5 5-5 5 2.2 5 5-2.2 5-5 5z"/></svg><svg width="26" height="26" viewBox="-1 -1 26 26" id="icon-096e" x="77"><title>icon-0</title><path d="M12 0C5.4 0 0 5.4 0 12s5.4 12 12 12 12-5.4 12-12S18.6 0 12 0zm0 22.5C6.15 22.5 1.5 17.85 1.5 12S6.15 1.5 12 1.5 22.5 6.15 22.5 12 17.85 22.5 12 22.5zM12 6h-1.5v9H18v-1.5h-6V6z" fill="#666" fill-rule="evenodd"/></svg><svg width="26" height="25" viewBox="-1 -1 26 25" id="icon-16fe" x="77" y="26"><title>icon-1</title><path d="M22.315 6.545H17.15V4.94c0-.013.004-.024.004-.037 0-2.71-2.306-4.904-5.15-4.904-2.845 0-5.151 2.196-5.151 4.904v1.64H1.689L0 22.86h24L22.315 6.545zM8.569 4.913l-.001-.01c0-1.805 1.54-3.273 3.435-3.273S15.44 3.1 15.44 4.904l-.001.01h-.004v1.63H8.571l-.002-1.63zM1.893 21.231l1.35-13.054h3.612v4.896H8.57V8.176h6.863v4.895h1.716V8.176h3.61l1.347 13.053H1.893v.002z" fill="#666" fill-rule="evenodd"/></svg><svg width="26" height="26" viewBox="-1 -1 26 26" id="icon-3ca8" y="62"><title>icon-3</title><g fill="#666" fill-rule="evenodd"><path d="M12 0C5.4 0 0 5.4 0 12s5.4 12 12 12 12-5.4 12-12S18.6 0 12 0zm0 22.5C6.15 22.5 1.5 17.85 1.5 12S6.15 1.5 12 1.5 22.5 6.15 22.5 12 17.85 22.5 12 22.5z"/><path d="M16.322 7.133l-1.233 1.08c-1.033-.848-2.034-1.272-3.007-1.272-.636 0-1.17.172-1.6.516-.43.345-.645.768-.645 1.272s.228.936.688 1.296c.46.36 1.25.791 2.372 1.295 1.125.505 1.98 1.049 2.57 1.633.589.585.885 1.3.885 2.148 0 1.072-.437 1.975-1.307 2.711-.87.737-1.943 1.104-3.214 1.104a6.29 6.29 0 0 1-2.429-.48 5.598 5.598 0 0 1-1.978-1.343l1.207-1.154c.992.945 2.031 1.416 3.117 1.416.767 0 1.424-.218 1.965-.648.542-.432.815-.94.815-1.526 0-.583-.238-1.063-.716-1.44-.477-.374-1.275-.803-2.388-1.284-1.114-.477-1.948-1-2.499-1.569-.554-.566-.83-1.303-.83-2.207 0-.905.389-1.676 1.166-2.316.777-.64 1.806-.96 3.089-.96 1.282 0 2.607.575 3.972 1.728z"/><path d="M11.403 18.654h1.5v1.5h-1.5zM11.403 4h1.5v1.5h-1.5z"/></g></svg><svg width="26" height="26" viewBox="-1 -1 26 26" id="icon-424f" x="26" y="62"><title>icon-4</title><path d="M17.143 8.571H6.857v1.715h10.286V8.57zM18.857 0H5.143v5.143h13.714V0zm-1.714 3.429H6.857V1.714h10.286V3.43zm3.428-1.715V3.43h1.715v18.857H1.714V3.429H3.43V1.714H0V24h24V1.714h-3.429zM17.143 12H6.857v1.714h10.286V12zM6.857 17.143h10.286v-1.714H6.857v1.714z" fill="#666" fill-rule="evenodd"/></svg><svg width="18" height="18" viewBox="-1 -1 18 18" id="selectf01" y="88"><title>选中_圆</title><g fill="none" fill-rule="evenodd"><circle fill="#08F" cx="8" cy="8" r="8"/><circle fill="#FFF" cx="8" cy="8" r="3"/></g></svg><svg width="18" height="18" viewBox="-1 -1 18 18" id="unSelect332" x="18" y="88"><title>未选中_圆</title><circle cx="8" cy="8" r="7.5" fill="#FFF" stroke="#999" fill-rule="evenodd"/></svg></svg>