<svg width="104" height="88" viewBox="0 0 104 88" xmlns="http://www.w3.org/2000/svg" xmlns:xlink="http://www.w3.org/1999/xlink"><svg id="feekback" width="34" height="34" viewBox="7 -9 34 34" x="36"><style>.aast0{fill-rule:evenodd;clip-rule:evenodd;fill:#fff}</style><path class="aast0" d="M35.5 23L32 18V-5c0-1.1.9-2 2-2h3c1.1 0 2 .9 2 2v23l-3.5 5zM37-4c0-.6-.4-1-1-1h-1c-.6 0-1 .4-1 1v1h3v-1zm0 3h-3v18l1.5 2 1.5-2V-1zm-9 17H15v-2h13v2zM15 0h13v2H15V0zm13 9H15V7h13v2zm2-14H12c-.6 0-1 .4-1 1v25c0 .6.4 0 1 0h20.3l1.2 2H11c-1.1 0-2 .1-2-1V-5c0-1.1.9-2 2-2h21c-1.1 0-2 .9-2 2z"/></svg><svg id="msg-close" width="18" height="18" viewBox="-1 -1 18 18" y="70"><style>.abst0{fill-rule:evenodd;clip-rule:evenodd;fill:#003f9c}</style><g id="abXMLID_161_"><path id="abXMLID_162_" class="abst0" d="M4.5 4.5v1h1v-1h-1zm1 1v1h1v-1h-1zm1 1v1h1v-1h-1zm5-2h-1v1h1v-1zm-1 1h-1v1h1v-1zm-1 1h-1v1h1v-1zm2 5v-1h-1v1h1zm-1-1v-1h-1v1h1zm-1-1v-1h-1v1h1zm-2-2v1h1v-1h-1zm-3 4h1v-1h-1v1zm1-1h1v-1h-1v1zm1-1h1v-1h-1v1zm-3-6v1h1v-1h-1zm9 0h-1v1h1v-1zm0 9v-1h-1v1h1zm-9 0h1v-1h-1v1zm10-10h-1v1h1v-1zm0 11v-1h-1v1h1zm-11 0h1v-1h-1v1zm0-11v1h1v-1h-1z"/></g></svg><svg id="msg-notice" width="18" height="18" viewBox="-1 -1 18 18" x="18" y="70"><style>.acst0{fill:#1d529b}</style><g id="acXMLID_4_"><path id="acXMLID_5_" class="acst0" d="M13 2.8V4c1.2.9 2 2.4 2 4s-.8 3.1-2 4v1.2c1.8-1 3-3 3-5.2s-1.2-4.2-3-5.2z"/><path id="acXMLID_37_" class="acst0" d="M10 2H9L3 5H1c-.6 0-1 .4-1 1v4c0 .6.4 1 1 1h2l6 3h1c.6 0 1-.4 1-1V3c0-.6-.4-1-1-1zm0 11H9l-5.6-2.9-.2-.1H1V6h2.2l.2-.1L9 3h1v10z"/><path id="acXMLID_38_" class="acst0" d="M12 5.8v4.4c.6-.5 1-1.3 1-2.2s-.4-1.7-1-2.2z"/></g></svg><svg id="qc" viewBox="-1 -1 34 34" width="34" height="34" y="36"><style>.adst0{fill-rule:evenodd;clip-rule:evenodd;fill:#fff}</style><g id="adXMLID_2_"><g id="adXMLID_191_"><path id="adXMLID_192_" class="adst0" d="M1 15h14V1H1v14zM3 3h10v10H3V3zm2 8h6V5H5v6zm2-4h2v2H7V7zM5 27h6v-6H5v6zm2-4h2v2H7v-2zm-6 8h14V17H1v14zm2-12h10v10H3V19zm25 2h3v-4h-3v4zm-11-4v7h4v-3h3v-4h-7zM27 5h-6v6h6V5zm-2 4h-2V7h2v2zm-8-8v14h14V1H17zm12 12H19V3h10v10zM17 31h8v-4h-8v4zm14 0v-6h-3v6h3zm-7-6h4v-4h-4v4z"/></g></g></svg><svg id="tel" viewBox="-1 -1 34 34" width="34" height="34" x="34" y="36"><style>.aest0{fill-rule:evenodd;clip-rule:evenodd;fill:#fff}</style><g id="aeXMLID_2_"><g id="aeXMLID_37_"><path id="aeXMLID_38_" class="aest0" d="M31.9 23c-.1-3.8-8.8-6-9-6-.2 0-2.7.4-4 2-2.5-.5-6.2-5.8-6-6 1.9-1.6 2-3.8 2-4 0-.2-2.2-8.8-6-9C.3-.4 0 3.7 0 5.3.1 6.4.1 8 .9 10c7.8 17.7 22.4 22.6 27 22 4.7-.6 4.1-5.9 4-9zm-5 7c-4.2.1-17.7-5.6-24-20-.8-1.8-.9-3-1-4 0-1.4-.1-4.4 6-4 3.3.2 4.9 6.7 5 7 .1.3-.8 2.5-2 3-1.2-.2 3.8 8.5 8 9 1.2-1.4 3.8-2 4-2s7.1 1.7 7 5c0 2.3.6 5.9-3 6z"/></g></g></svg><svg id="up" viewBox="-1 -1 34 34" width="34" height="34" x="70"><style>.afst0{fill-rule:evenodd;clip-rule:evenodd;fill:#fff}</style><g id="afXMLID_2_"><g id="afXMLID_22_"><path id="afXMLID_23_" class="afst0" d="M31.6 23.1L16 7.5.4 23.1l1.5 1.4L16 10.3l14.1 14.2z"/></g></g></svg><svg id="wechat" width="36" height="36" viewBox="7 -9 36 36"><style>.agst0{fill:#fff}</style><path class="agst0" d="M27.5 6c.9 0 1.5-.7 1.5-1.5 0-.9-.7-1.5-1.5-1.5S26 3.7 26 4.5 26.6 6 27.5 6zm-4-1.5c0-.9-.7-1.5-1.5-1.5s-1.4.7-1.5 1.5c0 .8.6 1.5 1.5 1.5s1.5-.7 1.5-1.5z"/><circle class="agst0" cx="16.5" cy="4.5" r="1.5"/><path class="agst0" d="M35.5 4.5c0-6.6-6-12-13.5-12S8.5-2.1 8.5 4.5c0 3.3 1.5 6.3 4 8.5v6.5l6.1-3.4c1.1.2 2.2.4 3.4.4 7.5 0 13.5-5.4 13.5-12zM18.3 14l-.7.4-3.1 1.7v-4l-.7-.6c-2.1-1.9-3.3-4.4-3.3-7 0-5.5 5.2-10 11.5-10S33.5-1 33.5 4.5s-5.2 10-11.5 10c-1 0-1.9-.1-2.9-.3l-.8-.2z"/><path class="agst0" d="M37.4 2.9c.1.5.1 1.1.1 1.6 0 .4 0 .8-.1 1.1 1.3 1.5 2.1 3.3 2.1 5.2 0 2.8-1.6 5.3-4 6.9V22L31 19.4c-.5.1-1 .1-1.5.1-1.8 0-3.6-.4-5-1.2-.8.1-1.6.2-2.5.2h-.9c2.2 1.9 5.1 3 8.4 3h1.1l6.9 4v-6.7c2.4-1.9 4-4.8 4-7.9 0-3.2-1.6-6.1-4.1-8z"/></svg><svg id="wo" viewBox="-1 -1 34 34" width="34" height="34" x="70" y="34"><style>.ahst0{fill-rule:evenodd;clip-rule:evenodd;fill:#fff}</style><g id="ahXMLID_2_"><g id="ahXMLID_64_"><path id="ahXMLID_65_" class="ahst0" d="M23 15H9v2h14v-2zM9 24h14v-2H9v2zM9 8v2h9V8H9zm19 20c0 2.1-.1 2-2 2H6c-1.9 0-2 0-2-2V4c0-1.9.2-2 2-2h14V0H4C2.9 0 2 .9 2 2v28c0 1.1.9 2 2 2h24c1.1 0 2-.9 2-2V10h-2v18zm2-25l-2-2-7 7v2h2l7-7z"/></g></g></svg></svg>