<?xml version="1.0" encoding="UTF-8"?><svg width="118" height="108" viewBox="0 0 118 108" xmlns="http://www.w3.org/2000/svg" xmlns:xlink="http://www.w3.org/1999/xlink"><svg width="18" height="18" viewBox="-1 -1 18 18" id="action3617a0c349cc51cdcad47fccadfb719d" x="18" y="76"><title>动态</title><path d="M7.91 7.512L5.558 6.6 7.91 5.233 9.79 6.6l-1.88.912zm3.183-1.341L7.837 4.256 4.581 6.17v3.83l1.396.958c.185-.398.35-.68.465-.958l-.93-.478V7.607l2.325 1.437 2.326-1.437v1.916l-1.86.957c-.186.037-.321 0-.466 0a.944.944 0 0 0-.93.958c0 .528.417.957.93.957.514 0 .93-.429.93-.957 0-.023-.005-.043 0 0L11.093 10v-3.83zM1.933 8C1.938 4.65 4.667 1.933 8 1.933a6.12 6.12 0 0 1 6.067 5.134H15C14.54 3.643 11.6 1 8 1 4.15 1 1 4.134 1 8s3.15 7 7 7c3.6 0 6.54-2.643 7-6.067h-.933A6.12 6.12 0 0 1 8 14.067c-3.333 0-6.062-2.717-6.067-6.067z" fill="#C1C1C1" fill-rule="evenodd"/></svg><svg width="26" height="26" viewBox="-1 -1 26 26" id="activities6a89675ab6436fd50614e61cfa074ada" x="26" y="28"><title>参与活动24px</title><g fill="none" fill-rule="evenodd"><path stroke="#333" stroke-width="2" d="M19 2h4v21h-4M7.754 17A3.788 3.788 0 0 0 7 19.281C7 21.335 8.607 23 10.59 23c1.59 0 2.937-1.07 3.41-2.551"/><path fill="#00A4FF" d="M17 3L7 8.737V14l10 5z"/><path stroke="#333" stroke-width="2" d="M3 10H1v5h2M4 9.661v5.721l14 7V2.622L4 9.662z"/></g></svg><svg width="18" height="18" viewBox="-1 -1 18 18" id="addressc80ceab67b5b74c89f558164251ac385" x="36" y="76"><title>编组</title><g fill="none" fill-rule="evenodd"><path d="M0 0h16v16H0z"/><path d="M8 16c4.667-3.423 7-6.423 7-9A7 7 0 0 0 1 7c0 2.577 2.333 5.577 7 9zM3 7a5 5 0 1 1 10 0c0 1.582-1.611 3.81-5 6.488C4.611 10.81 3 8.582 3 7z" fill="#FFF" fill-rule="nonzero"/><path d="M8 10a3 3 0 1 0 0-6 3 3 0 0 0 0 6zm0-2a1 1 0 1 1 0-2 1 1 0 0 1 0 2z" fill="#FFF" fill-rule="nonzero"/></g></svg><svg id="article95ed9625a8228b05c38a8c28a615e3b1" viewBox="-1 -1 18 18" enable-background="new 0 0 16 16" width="18" height="18" x="54" y="76"><style>.adst0{filter:url(#adAdobe_OpacityMaskFilter)}.adst2,.adst3{stroke:#c1c1c1}.adst2{mask:url(#admask-2);stroke-width:.5}.adst3{fill:none}</style><title>文章</title><g id="ad文章"><g id="adGroup-3" transform="translate(2 2)"><defs><filter id="adAdobe_OpacityMaskFilter" filterUnits="userSpaceOnUse" x="-.2" y="-.2" width="13.5" height="13.6"><feColorMatrix values="1 0 0 0 0 0 1 0 0 0 0 0 1 0 0 0 0 0 1 0"/></filter></defs><mask maskUnits="userSpaceOnUse" x="-.2" y="-.2" width="13.5" height="13.6" id="admask-2"><g class="adst0"><path id="adpath-1" class="adst1" fill="#fff" d="M0 0h13v13.1H0z"/></g></mask><path id="adFill-1" class="adst2" fill="#C1C1C1" d="M11.2 3.1v.8h1.1v7.3c0 .7-.5 1.2-1.1 1.2-.6 0-1.1-.5-1.1-1.2V0H0v10.7C0 12 1 13 2.2 13h9c1 0 1.8-.8 1.8-1.9v-8h-1.8zM.7 10.8V.8h8.7v10.4c0 .4.1.8.4 1.2H2.2c-.8-.1-1.5-.8-1.5-1.6z"/></g></g><path class="adst3" d="M4.8 5.6h4.7v4.2H4.8zM4.3 11.8H10"/></svg><svg width="18" height="18" viewBox="-1 -1 18 18" id="ask8d6781d75608eae47613cc44f732b4f9" x="100" y="18"><title>问答</title><g transform="translate(1 2)" fill="#C1C1C1" fill-rule="evenodd"><path d="M7.1 2.2c-.937 0-1.7.734-1.7 1.636 0 .293.247.531.552.531a.542.542 0 0 0 .553-.531c0-.316.267-.573.595-.573.328 0 .595.257.595.573a.585.585 0 0 1-.595.573.542.542 0 0 0-.552.531v.729c0 .293.247.531.552.531a.542.542 0 0 0 .552-.531v-.286C8.32 5.162 8.8 4.552 8.8 3.836c0-.902-.763-1.636-1.7-1.636zM6.6 7.2a.6.6 0 1 0 1.2 0 .6.6 0 0 0-1.2 0z"/><path d="M1.062 0h11.877C13.524 0 14 .477 14 1.063v7.69c0 .586-.476 1.063-1.061 1.063H9.622l.156 1.207a.77.77 0 0 1-.744.977.815.815 0 0 1-.46-.146L5.82 9.816H1.062A1.064 1.064 0 0 1 0 8.753v-7.69C0 .477.476 0 1.062 0zm4.935 8.734c.115 0 .228.037.32.106l2.31 1.708-.155-1.203a.544.544 0 0 1 .536-.61l3.912.018.019-7.67-11.859-.02-.018 7.671h4.935z"/></g></svg><svg width="17" height="10" viewBox="-1 -1 17 10" id="caret5c4ab9fb86f6499aa4211725b81c9c7c" x="100" y="54"><title>Group</title><g stroke="#979797" fill="none" fill-rule="evenodd" stroke-linecap="square"><path d="M.5.5l7 7M14.5.5l-7 7"/></g></svg><svg width="14" height="14" viewBox="-1 -1 14 14" id="closecf4502cec312d74703ec63e0c2be91ab" x="28" y="94"><title>画板</title><path d="M10.95 2.464L7.414 6l3.536 3.536-1.414 1.414L6 7.414 2.464 10.95 1.05 9.536l3.536-3.537L1.05 2.464 2.464 1.05l3.537 3.535L9.536 1.05l1.414 1.414z" fill="#FFF" fill-rule="evenodd" opacity=".5"/></svg><svg width="26" height="26" viewBox="-1 -1 26 26" id="columnc492e3bb92d179f052d2b7ed8b20f602" x="30"><title>我的专栏</title><g fill="none" fill-rule="evenodd"><path stroke="#222733" stroke-width="2" d="M2 2h20v20H2z"/><path d="M9 2v7.586l3-3 3 3V2H9z" stroke="#222733" stroke-width="2"/><path fill="#00A4FF" d="M5 14h14v5H5z"/></g></svg><svg width="30" height="28" viewBox="-1 -1 30 28" id="douhaoda2b50defc40ded68d598350602a51cc"><title>引号</title><path d="M13 1.147v4.668c0 .633-.554 1.146-1.237 1.146-2.438 0-3.764 2.317-3.948 6.89h3.948c.683 0 1.237.513 1.237 1.146v9.857c0 .633-.554 1.146-1.237 1.146H1.237C.554 26 0 25.486 0 24.854v-9.857c0-2.192.239-4.204.707-5.98.482-1.82 1.221-3.413 2.197-4.732a10.47 10.47 0 0 1 3.733-3.161C8.121.378 9.845 0 11.764 0 12.446 0 13 .514 13 1.147zM26.763 6.96c.683 0 1.237-.514 1.237-1.146V1.146C28 .513 27.446 0 26.763 0c-1.917 0-3.643.378-5.125 1.124a10.462 10.462 0 0 0-3.734 3.16c-.976 1.32-1.715 2.912-2.197 4.734-.469 1.777-.707 3.788-.707 5.979v9.857c0 .633.554 1.146 1.237 1.146h10.526c.683 0 1.237-.514 1.237-1.146v-9.857c0-.633-.554-1.146-1.237-1.146H22.87c.182-4.574 1.49-6.89 3.893-6.89z" fill="#F3F5F9" fill-rule="evenodd"/></svg><svg width="26" height="26" viewBox="-1 -1 26 26" id="followb95c798b4c58db3ba4d94a0cbeda84ec" y="28"><title>我的订阅 copy 4</title><defs><path id="ajb" d="M1348 681h330v210h-330z"/><filter x="-11.2%" y="-20%" width="122.4%" height="135.2%" filterUnits="objectBoundingBox" id="aja"><feMorphology radius=".5" operator="dilate" in="SourceAlpha" result="shadowSpreadOuter1"/><feOffset dy="-5" in="shadowSpreadOuter1" result="shadowOffsetOuter1"/><feGaussianBlur stdDeviation="11" in="shadowOffsetOuter1" result="shadowBlurOuter1"/><feColorMatrix values="0 0 0 0 0.811764706 0 0 0 0 0.847058824 0 0 0 0 0.866666667 0 0 0 0.701200181 0" in="shadowBlurOuter1"/></filter></defs><g transform="translate(-1395 -820)" fill="none" fill-rule="evenodd"><g transform="matrix(1 0 0 -1 0 1572)"><use fill="#000" filter="url(#aja)" xlink:href="#ajb"/><use fill="#FFF" xlink:href="#ajb"/></g><g transform="translate(1395 820)"><path stroke="#222733" stroke-width="2" d="M23 3v18H1V3z"/><path fill="#00A4FF" d="M6 4l8 8 7-8z"/><path d="M1 20.918L8.98 12m6.102.061l7.98 8.919M1 3l11 12L23 3" stroke="#222733" stroke-width="2"/></g></g></svg><svg width="18" height="18" viewBox="-1 -1 18 18" id="icon-article9fc3830cb46645bd60062d117ae4ad98" x="78" y="22"><title>Artboard</title><path d="M11.865 4.998c-1.045 0-1.895-.834-1.895-1.858V1H3.154C2.516 1 2 1.507 2 2.131V13.87c0 .624.516 1.13 1.154 1.13h9.693c.637 0 1.153-.506 1.153-1.13V4.998h-2.135zm-7.962 7.484h8.194v-.758H3.903v.758zm0-2.425h8.194V9.3H3.903v.757zm0-2.424h8.194v-.758H3.903v.758zM10.712 1v2.14c0 .624.516 1.13 1.153 1.13H14L10.712 1z" fill="#999" fill-rule="evenodd"/></svg><svg width="18" height="18" viewBox="-1 -1 18 18" id="icon-article9fc3830cb46645bd60062d117ae4ad98" x="78" y="40"><title>Artboard</title><path d="M11.865 4.998c-1.045 0-1.895-.834-1.895-1.858V1H3.154C2.516 1 2 1.507 2 2.131V13.87c0 .624.516 1.13 1.154 1.13h9.693c.637 0 1.153-.506 1.153-1.13V4.998h-2.135zm-7.962 7.484h8.194v-.758H3.903v.758zm0-2.425h8.194V9.3H3.903v.757zm0-2.424h8.194v-.758H3.903v.758zM10.712 1v2.14c0 .624.516 1.13 1.153 1.13H14L10.712 1z" fill="#999" fill-rule="evenodd"/></svg><svg width="18" height="18" viewBox="-1 -1 18 18" fill="#00a4ff" id="icon-articled4c7d55b2478c35387918d35fc68c37c" x="78" y="58"><title>Artboard</title><path d="M11.865 4.998c-1.045 0-1.895-.834-1.895-1.858V1H3.154C2.516 1 2 1.507 2 2.131V13.87c0 .624.516 1.13 1.154 1.13h9.693c.637 0 1.153-.506 1.153-1.13V4.998h-2.135zm-7.962 7.484h8.194v-.758H3.903v.758zm0-2.425h8.194V9.3H3.903v.757zm0-2.424h8.194v-.758H3.903v.758zM10.712 1v2.14c0 .624.516 1.13 1.153 1.13H14L10.712 1z" fill-rule="evenodd"/></svg><svg width="22" height="22" viewBox="-1 -1 22 22" id="icon-aska6e1d198a4c780f1ae4c69989251768e" y="54"><title>矩形复制 16</title><path d="M7 16.865L10.438 14H16V4H4v10h3v2.865z" stroke="#888" stroke-width="2" fill="none" fill-rule="evenodd"/></svg><svg width="22" height="22" viewBox="-1 -1 22 22" id="icon-followb4f0701d4927eabd1b7501ff47413dd4" x="22" y="54"><title>矩形复制 17</title><path d="M10.48 6.153l-.545.544-.036-.031-.035.031-.545-.544-.088-.078a3.766 3.766 0 0 0-5.316 5.315l.078.089L9.9 17.385l5.907-5.906.078-.089a3.766 3.766 0 0 0-5.316-5.315l-.088.078z" stroke="#888" stroke-width="2" fill="none" fill-rule="evenodd"/></svg><svg width="22" height="22" viewBox="-1 -1 22 22" id="icon-joinc05a318f5cf8de890d459ae5e72a4b5c" x="56"><title>矩形复制 18</title><g transform="translate(3 3)" fill="none" fill-rule="evenodd"><path d="M0 1h2v14a1 1 0 0 1-2 0V1z" fill="#888"/><path d="M1 1.768v6.84c1.82-.563 3.236-.768 4.29-.595.688.113 1.132.283 1.774.622l.225.118c.605.316 1.065.464 1.951.553A14.282 14.282 0 0 0 13 9.171V2.347c-1.662.397-3.262.37-4.784-.088a7.671 7.671 0 0 1-.67-.24l-.438-.175a6.49 6.49 0 0 0-1.407-.38C4.322 1.238 2.756 1.336 1 1.768z" stroke="#888" stroke-width="2"/></g></svg><svg width="22" height="22" viewBox="-1 -1 22 22" id="icon-like7045af8b111f187c4f68d4a71acd26ed" x="44" y="54"><title>矩形复制 15</title><path d="M8.008 16.996l-4.01.003A1 1 0 0 1 3 15.99V9.21c0-.558.453-1.008.998-1.006l3.498.012v-.012L9.091 3c1.623 0 2.67 1.487 2.156 3.237L10.946 8.2l4.13.004c.564.097.996.63.914 1.222l-1.164 6.699a.99.99 0 0 1-.914.873L8.008 17v-.004z" stroke="#888" stroke-width="2" fill="none" fill-rule="evenodd" stroke-linejoin="round"/></svg><svg data-name="图层 1" width="18" height="12" viewBox="-1 -1 18 12" id="icon-livedfcfc5603b6b4cc548cada5a0679ca9d" x="72" y="76"><title>直播</title><path d="M11.01 1a.19.19 0 0 1 0 .11V9h-10a.16.16 0 0 1 0-.12V1.11 1h10m0-1h-10a1.06 1.06 0 0 0-1 1.11v7.78a1.06 1.06 0 0 0 1 1.11h10a1.06 1.06 0 0 0 1-1.11V1.11a1.06 1.06 0 0 0-1-1.11z" fill="#fff"/><path d="M15.01 2.26v5.48l-3-1.27V3.53l3-1.28m.5-1.25a.47.47 0 0 0-.19 0l-4 1.7a.53.53 0 0 0-.31.49v3.58a.53.53 0 0 0 .31.49l4 1.7a.47.47 0 0 0 .19 0 .52.52 0 0 0 .5-.53v-6.9a.52.52 0 0 0-.5-.53zM7.81 5l-3 2V3l3 2z" fill="#fff"/></svg><svg width="14" height="14" viewBox="-1 -1 14 14" id="icon-playing067065a13e12b7896138dcdf342f6a64" x="100" y="64"><title>Artboard</title><defs><path id="asa" d="M0 0h10v12H0z"/></defs><g transform="translate(1)" fill="none" fill-rule="evenodd"><mask id="asb" fill="#fff"><use xlink:href="#asa"/></mask><path d="M.8 7.2a.8.8 0 0 1 .8.8v3.2a.8.8 0 1 1-1.6 0V8a.8.8 0 0 1 .8-.8zM3.6 0a.8.8 0 0 1 .8.8v10.4a.8.8 0 1 1-1.6 0V.8c0-.442.358-.8.8-.8zm2.8 3.2a.8.8 0 0 1 .8.8v7.2a.8.8 0 0 1-1.6 0V4a.8.8 0 0 1 .8-.8zm2.8-1.6a.8.8 0 0 1 .8.8v8.8a.8.8 0 0 1-1.6 0V2.4a.8.8 0 0 1 .8-.8z" fill="#FFF" mask="url(#asb)"/></g></svg><svg width="22" height="22" viewBox="-1 -1 22 22" id="icon-publish3ccfbedab3367ecb68baf9e7fb94ec4e" x="78"><title>矩形复制 14</title><path d="M10 3v2H5v10h10V9h2v7a1 1 0 0 1-1 1H4a1 1 0 0 1-1-1V4a1 1 0 0 1 1-1h6zm6.51.313a1 1 0 0 1 0 1.414l-6.363 6.364a1 1 0 1 1-1.415-1.414l6.364-6.364a1 1 0 0 1 1.415 0z" fill="#888" fill-rule="nonzero"/></svg><svg width="18" height="18" viewBox="-1 -1 18 18" fill="#00a4ff" id="icon-video5e4ae5a3413e8d068f30c28a68f59aab" x="100" y="36"><title>Artboard</title><g transform="translate(1 2)" fill-rule="nonzero"><path d="M11 2v8H2V2h9zm2-2H0v12h13V0z"/><path d="M5 3v6l4-3z"/></g></svg><svg width="18" height="18" viewBox="-1 -1 18 18" id="icon-video9726bd80f3c785e24766a12bfd6e91b8" x="100"><title>Artboard</title><g transform="translate(1 2)" fill="#888" fill-rule="nonzero"><path d="M11 2v8H2V2h9zm2-2H0v12h13V0z"/><path d="M5 3v6l4-3z"/></g></svg><svg width="9" height="13" viewBox="-1 -1 9 13" id="prev-arrow928d40b54b76349cf4840e2f5a6aa62a" x="66" y="54"><title>路径 copy 5</title><path d="M2.344 5.504l4.648 4.388L5.817 11 0 5.509l.005-.005L0 5.5 5.826 0 7 1.108z" fill="#9B9B9B" fill-rule="evenodd"/></svg><svg width="9" height="13" viewBox="-1 -1 9 13" fill="#00a4ff" id="prev-arrowebb7975be24ca2b122d3ccba20eb9f78" x="42" y="94"><title>路径 copy 5</title><path d="M2.344 5.504l4.648 4.388L5.817 11 0 5.509l.005-.005L0 5.5 5.826 0 7 1.108z" fill-rule="evenodd"/></svg><svg data-name="图层 1" width="14" height="14" viewBox="-1 -1 17 17" id="star-full23b9bb8c6d5a47437b6aa7955d492a43" x="100" y="78"><title>Star</title><path fill="#ff7200" d="M7.5 12.44L2.87 15l.88-5.43L0 5.73l5.18-.79L7.5 0l2.32 4.94 5.18.79-3.75 3.84.88 5.43-4.63-2.56z"/></svg><svg data-name="图层 1" width="14" height="14" viewBox="-1 -1 17 17" id="star-part88158cecd3b32dac7ab6e1162cb04da1" y="94"><title>Rectangle 11</title><path fill="#ddd" d="M15.01 5.73l-5.19-.79L7.5 0v12.44L12.14 15l-.88-5.43 3.75-3.84z"/><path fill="#ff7200" d="M0 5.73l5.18-.79L7.5 0v12.44L2.87 15l.88-5.43L0 5.73z"/></svg><svg data-name="图层 1" width="14" height="14" viewBox="-1 -1 17 17" id="star890900b9d678f437fb294044fd3aa80a" x="14" y="94"><title>Star-灰色</title><path fill="#ddd" d="M7.5 12.44L2.87 15l.88-5.43L0 5.73l5.18-.79L7.5 0l2.32 4.94 5.18.79-3.75 3.84.88 5.43-4.63-2.56z"/></svg><svg width="22" height="22" viewBox="-1 -1 22 22" id="tag-icon8de79b0a022ea516c9d8ea1df086d157" x="56" y="22"><title>Artboard</title><defs><path id="bba" d="M.002.024h17.497V17.49H.002z"/></defs><g transform="translate(0 1)" fill="none" fill-rule="evenodd"><mask id="bbb" fill="#fff"><use xlink:href="#bba"/></mask><path d="M6.62 17.49a2.916 2.916 0 0 1-2.074-.857l-3.687-3.68a2.924 2.924 0 0 1 0-4.139L9.155.534c.326-.328.77-.511 1.233-.51h5.368c.962 0 1.742.78 1.743 1.74v5.36c.002.461-.182.904-.51 1.23l-8.296 8.28c-.549.55-1.296.859-2.074.857zm-.977-1.952a1.382 1.382 0 0 0 1.951 0l8.297-8.281a.189.189 0 0 0 .056-.135V1.764a.191.191 0 0 0-.191-.19h-5.368c-.05 0-.1.02-.135.055L1.957 9.91a1.375 1.375 0 0 0 0 1.947l3.686 3.68z" fill="#00A3FF" mask="url(#bbb)"/><path d="M10.766 18.333a.766.766 0 0 1-.708-.477.778.778 0 0 1 .166-.842l8.188-8.261a.19.19 0 0 0 .056-.135V3.273a.77.77 0 0 1 .766-.773.77.77 0 0 1 .766.773v5.345c.001.46-.18.903-.504 1.228l-8.188 8.261a.76.76 0 0 1-.542.226zM12.5 4.167a.833.833 0 1 0 1.667 0 .833.833 0 0 0-1.667 0z" fill="#00A3FF"/></g></svg><svg width="18" height="18" viewBox="-1 -1 18 18" id="time2f7ed8f3fb5873349f131bb2651b8a9d" y="76"><title>exXMLID_2_</title><g fill="none" fill-rule="evenodd"><path d="M0 0h16v16H0z"/><path d="M8 2C4.7 2 2 4.7 2 8s2.7 6 6 6 6-2.7 6-6-2.7-6-6-6zm0-2c4.4 0 8 3.6 8 8s-3.6 8-8 8-8-3.6-8-8 3.6-8 8-8z" fill="#FFF"/><path d="M8.5 8.425l2.098 1.21-1 1.733L7 9.868a1 1 0 0 1-.5-.903V5h2v3.425z" fill="#FFF"/></g></svg><svg width="11" height="13" viewBox="-1 -1 11 13" id="toggle-icon5704ef6af4236a88d5f274bca58e2061" x="51" y="94"><title>Group 24</title><g fill="#FFF" fill-rule="evenodd"><path d="M0 0l4.5 4.432v1.241L0 10.125V8.648l3.662-3.585L0 1.458zM4.5 0L9 4.432v1.241l-4.5 4.452V8.648l3.662-3.585L4.5 1.458z"/></g></svg></svg>