<?xml version="1.0" encoding="UTF-8"?>
<svg width="220px" height="220px" viewBox="0 0 220 220" version="1.1" xmlns="http://www.w3.org/2000/svg" xmlns:xlink="http://www.w3.org/1999/xlink">
    <!-- Generator: Sketch 52.6 (67491) - http://www.bohemiancoding.com/sketch -->
    <title>2</title>
    <desc>Created with Sketch.</desc>
    <g id="2" stroke="none" stroke-width="1" fill="none" fill-rule="evenodd">
        <rect id="Rectangle" opacity="0.1" fill-rule="nonzero" x="0" y="0" width="220" height="220"></rect>
        <circle id="Oval-Copy-2" fill="#F5F7FA" fill-rule="nonzero" cx="183" cy="50" r="20"></circle>
        <path d="M166.734,51.072 C168.398,51.072 169.724,51.514 170.738,52.45 C171.7,53.334 172.194,54.556 172.194,56.116 C172.194,57.286 171.856,58.3 171.206,59.158 C170.946,59.47 170.244,60.146 169.1,61.16 C168.528,61.654 168.138,62.122 167.878,62.59 C167.54,63.162 167.384,63.786 167.384,64.488 L167.384,65.086 L165.304,65.086 L165.304,64.488 C165.304,63.63 165.46,62.876 165.772,62.226 C166.136,61.446 166.994,60.458 168.398,59.21 C168.814,58.794 169.126,58.482 169.282,58.274 C169.802,57.624 170.062,56.948 170.062,56.22 C170.062,55.18 169.75,54.374 169.178,53.802 C168.58,53.178 167.722,52.892 166.63,52.892 C165.33,52.892 164.368,53.308 163.744,54.166 C163.172,54.894 162.886,55.882 162.886,57.156 L160.832,57.156 C160.832,55.336 161.326,53.88 162.366,52.788 C163.406,51.644 164.862,51.072 166.734,51.072 Z M166.344,66.906 C166.786,66.906 167.176,67.036 167.488,67.348 C167.774,67.634 167.93,67.998 167.93,68.44 C167.93,68.908 167.774,69.272 167.462,69.558 C167.15,69.844 166.786,70 166.344,70 C165.902,70 165.538,69.844 165.226,69.558 C164.914,69.246 164.784,68.882 164.784,68.44 C164.784,67.998 164.914,67.634 165.226,67.348 C165.538,67.036 165.902,66.906 166.344,66.906 Z" id="？" fill="#334966"></path>
        <ellipse id="Oval-2" fill="#EFF3F8" fill-rule="nonzero" cx="113" cy="181" rx="55" ry="13"></ellipse>
        <rect id="Rectangle-Copy-3" fill="#334966" fill-rule="nonzero" x="22" y="78" width="10" height="2" rx="1"></rect>
        <rect id="Rectangle-Copy-4" fill="#334966" fill-rule="nonzero" transform="translate(27.000000, 79.000000) rotate(90.000000) translate(-27.000000, -79.000000) " x="22" y="78" width="10" height="2" rx="1"></rect>
        <circle id="Oval" stroke="#334966" fill="#00A4FF" fill-rule="nonzero" cx="179" cy="132" r="4"></circle>
        <path d="M60,57 L89.5579427,57 L95.3450521,69 L141,69 C142.104569,69 143,69.8954305 143,71 L143,83 C143,84.1045695 142.104569,85 141,85 L60,85 C58.8954305,85 58,84.1045695 58,83 L58,59 C58,57.8954305 58.8954305,57 60,57 Z" id="Rectangle" fill="#00A4FF" fill-rule="nonzero"></path>
        <path d="M85.7213502,136 C85.8624549,136.674222 86.023532,137.341105 86.2039344,138 L53,138 C51.8954305,138 51,137.104569 51,136 L51,65 C51,63.8954305 51.8954305,63 53,63 L82.5579427,63 L88.3450521,75 L134,75 C135.104569,75 136,75.8954305 136,77 L136,99.5485946 C135.346769,99.1707205 134.679789,98.8139503 134.000003,98.4792224 L134,77 L87.0891435,77 L81.3020341,65 L53,65 L53,136 L85.7213502,136 Z" id="Combined-Shape" fill="#334966" fill-rule="nonzero"></path>
        <rect id="Rectangle" fill="#334966" fill-rule="nonzero" x="53" y="88" width="82" height="2"></rect>
        <circle id="Oval" fill="#00A4FF" fill-rule="nonzero" opacity="0.100000001" cx="124" cy="127" r="34"></circle>
        <path d="M119,161 C136.673112,161 151,146.673112 151,129 C151,111.326888 136.673112,97 119,97 C101.326888,97 87,111.326888 87,129 C87,146.673112 101.326888,161 119,161 Z M119,163 C100.222319,163 85,147.777681 85,129 C85,110.222319 100.222319,95 119,95 C137.777681,95 153,110.222319 153,129 C153,147.777681 137.777681,163 119,163 Z" id="Oval" fill="#334966" fill-rule="nonzero"></path>
        <circle id="Oval" stroke="#334966" fill="#FFFFFF" fill-rule="nonzero" cx="119" cy="129" r="26.5"></circle>
        <g id="Group-9" transform="translate(108.071068, 124.071068) rotate(45.000000) translate(-108.071068, -124.071068) translate(103.071068, 119.071068)" fill="#334966" fill-rule="nonzero">
            <rect id="Rectangle-Copy-3" x="0" y="4" width="10" height="2" rx="1"></rect>
            <rect id="Rectangle-Copy-4" transform="translate(5.000000, 5.000000) rotate(90.000000) translate(-5.000000, -5.000000) " x="0" y="4" width="10" height="2" rx="1"></rect>
        </g>
        <g id="Group-9-Copy" transform="translate(131.071068, 124.071068) rotate(45.000000) translate(-131.071068, -124.071068) translate(126.071068, 119.071068)" fill="#334966" fill-rule="nonzero">
            <rect id="Rectangle-Copy-3" x="0" y="4" width="10" height="2" rx="1"></rect>
            <rect id="Rectangle-Copy-4" transform="translate(5.000000, 5.000000) rotate(90.000000) translate(-5.000000, -5.000000) " x="0" y="4" width="10" height="2" rx="1"></rect>
        </g>
        <path d="M158.495689,155.495689 C156.562692,155.495689 154.995689,157.062692 154.995689,158.995689 L154.995689,177.995689 C154.995689,179.928686 156.562692,181.495689 158.495689,181.495689 C160.428686,181.495689 161.995689,179.928686 161.995689,177.995689 L161.995689,158.995689 C161.995689,157.062692 160.428686,155.495689 158.495689,155.495689 Z M158.495689,153.495689 C161.533255,153.495689 163.995689,155.958123 163.995689,158.995689 L163.995689,177.995689 C163.995689,181.033255 161.533255,183.495689 158.495689,183.495689 C155.458123,183.495689 152.995689,181.033255 152.995689,177.995689 L152.995689,158.995689 C152.995689,155.958123 155.458123,153.495689 158.495689,153.495689 Z" id="Rectangle" fill="#334966" fill-rule="nonzero" transform="translate(158.495689, 168.495689) rotate(-45.000000) translate(-158.495689, -168.495689) "></path>
        <rect id="Rectangle" fill="#334966" fill-rule="nonzero" transform="translate(146.889087, 153.889087) rotate(45.000000) translate(-146.889087, -153.889087) " x="142.389087" y="152.889087" width="9" height="2"></rect>
        <rect id="Rectangle-Copy-7" fill="#334966" fill-rule="nonzero" transform="translate(143.889087, 156.889087) rotate(45.000000) translate(-143.889087, -156.889087) " x="139.389087" y="155.889087" width="9" height="2"></rect>
        <rect id="Rectangle" fill="#00A4FF" fill-rule="nonzero" opacity="0.200000003" transform="translate(26.378073, 158.869225) rotate(-35.000000) translate(-26.378073, -158.869225) " x="16.8780734" y="147.369225" width="19" height="23" rx="2"></rect>
        <path d="M29.2451284,140.384741 L18.6480141,140.384741 C18.0957294,140.384741 17.6480141,140.832456 17.6480141,141.384741 L17.6480141,163.384741 C17.6480141,163.937026 18.0957294,164.384741 18.6480141,164.384741 L34.6480141,164.384741 C35.2002989,164.384741 35.6480141,163.937026 35.6480141,163.384741 L35.6480141,146.833662 L29.2451284,140.384741 Z M18.6480141,139.384741 L29.6614418,139.384741 L36.6480141,146.421545 L36.6480141,163.384741 C36.6480141,164.48931 35.7525836,165.384741 34.6480141,165.384741 L18.6480141,165.384741 C17.5434446,165.384741 16.6480141,164.48931 16.6480141,163.384741 L16.6480141,141.384741 C16.6480141,140.280171 17.5434446,139.384741 18.6480141,139.384741 Z" id="Rectangle" fill="#334966" fill-rule="nonzero" transform="translate(26.648014, 152.384741) rotate(-35.000000) translate(-26.648014, -152.384741) "></path>
        <path d="M23.5709139,145.570914 L30.5709139,145.570914 L30.5709139,146.570914 L23.5709139,146.570914 L22.5709139,146.570914 L22.5709139,138.570914 L23.5709139,138.570914 L23.5709139,145.570914 Z" id="Combined-Shape" fill="#334966" fill-rule="nonzero" transform="translate(26.570914, 142.570914) rotate(-35.000000) translate(-26.570914, -142.570914) "></path>
        <rect id="Rectangle-Copy-5" fill="#334966" fill-rule="nonzero" transform="translate(27.020853, 153.424611) rotate(-35.000000) translate(-27.020853, -153.424611) " x="20.0208525" y="152.924611" width="14" height="1"></rect>
        <rect id="Rectangle-Copy-6" fill="#334966" fill-rule="nonzero" transform="translate(30.020853, 157.424611) rotate(-35.000000) translate(-30.020853, -157.424611) " x="23.0208525" y="156.924611" width="14" height="1"></rect>
        <path d="M122.940414,142 C122.193018,140.234095 120.486115,139 118.5,139 C116.513885,139 114.806982,140.234095 114.059586,142 L112,142 C112.833602,139.108511 115.428277,137 118.5,137 C121.571723,137 124.166398,139.108511 125,142 L122.940414,142 Z" id="Combined-Shape" fill="#334966" fill-rule="nonzero"></path>
    </g>
</svg>