<?xml version="1.0" encoding="UTF-8"?>
<svg width="24px" height="24px" viewBox="0 0 24 24" version="1.1" xmlns="http://www.w3.org/2000/svg" xmlns:xlink="http://www.w3.org/1999/xlink">
    <!-- Generator: Sketch 55.2 (78181) - https://sketchapp.com -->
    <title>搜索</title>
    <desc>Created with Sketch.</desc>
    <g id="页面-1" stroke="none" stroke-width="1" fill="none" fill-rule="evenodd">
        <g id="01首页-copy-32备份-2" transform="translate(-1233.000000, -108.000000)" fill="#FFFFFF">
            <g id="编组-21">
                <g id="编组-2" transform="translate(0.000000, 54.000000)">
                    <g id="编组-20">
                        <g id="搜索" transform="translate(1233.000000, 54.000000)">
                            <rect id="矩形" opacity="0" x="0" y="0" width="24" height="24"></rect>
                            <path d="M15.8102144,17.0433403 C14.2097138,18.2706135 12.2073561,19 10.0346411,19 C4.78793595,19 0.534641072,14.7467051 0.534641072,9.5 C0.534641072,4.25329488 4.78793595,-2.78888024e-13 10.0346411,-2.78888024e-13 C15.2813462,-2.78888024e-13 19.5346411,4.25329488 19.5346411,9.5 C19.5346411,11.672715 18.8052546,13.6750727 17.5779813,15.2755733 L24,21.697592 L22.232233,23.4653589 L15.8102144,17.0433403 L15.8102144,17.0433403 Z M10.0346411,16.5 C13.9006343,16.5 17.0346411,13.3659932 17.0346411,9.5 C17.0346411,5.63400675 13.9006343,2.5 10.0346411,2.5 C6.16864782,2.5 3.03464107,5.63400675 3.03464107,9.5 C3.03464107,13.3659932 6.16864782,16.5 10.0346411,16.5 Z" id="形状" fill-rule="nonzero"></path>
                        </g>
                    </g>
                </g>
            </g>
        </g>
    </g>
</svg>