<svg xmlns="http://www.w3.org/2000/svg" width="48" height="48" viewBox="0 0 48 48">
  <g fill="none" fill-rule="evenodd">
    <circle cx="24" cy="24" r="23" stroke="#334966" stroke-width="2"/>
    <polygon fill="#00A4FF" points="24 27 36 33 24 39 12 33"/>
    <g fill="#334966" fill-rule="nonzero" transform="translate(12 9)">
      <path d="M12,12 L24,18 L12,24 L0,18 L12,12 Z M12,14.236068 L4.47213595,18 L12,21.763932 L19.527864,18 L12,14.236068 Z"/>
      <path d="M11,21.263932 L11,5.10555128 L2.92080963,17.2243368 L11,21.263932 Z M13,5.10555128 L13,21.263932 L21.0791904,17.2243368 L13,5.10555128 Z M0,18 L12,0 L24,18 L12,24 L0,18 Z"/>
    </g>
  </g>
</svg>
