<?xml version="1.0" encoding="UTF-8"?>
<svg width="560px" height="250px" viewBox="0 0 560 250" version="1.1" xmlns="http://www.w3.org/2000/svg" xmlns:xlink="http://www.w3.org/1999/xlink">
    <!-- Generator: Sketch 54.1 (76490) - https://sketchapp.com -->
    <title>画板</title>
    <desc>Created with Sketch.</desc>
    <defs>
        <linearGradient x1="50%" y1="100%" x2="50%" y2="-19.9707031%" id="linearGradient-1">
            <stop stop-color="#F9FAFC" stop-opacity="0" offset="0%"></stop>
            <stop stop-color="#EFF3F8" offset="100%"></stop>
        </linearGradient>
        <linearGradient x1="50%" y1="100%" x2="50%" y2="3.061617e-15%" id="linearGradient-2">
            <stop stop-color="#00D1FF" stop-opacity="0" offset="0%"></stop>
            <stop stop-color="#00A4FF" offset="100%"></stop>
        </linearGradient>
        <linearGradient x1="50%" y1="100%" x2="50%" y2="3.061617e-15%" id="linearGradient-3">
            <stop stop-color="#62809F" stop-opacity="0" offset="0%"></stop>
            <stop stop-color="#334966" offset="100%"></stop>
        </linearGradient>
    </defs>
    <g id="画板" stroke="none" stroke-width="1" fill="none" fill-rule="evenodd">
        <g id="icon-500(1)" transform="translate(5.000000, 9.000000)">
            <ellipse id="Oval-2-Copy-3" fill="url(#linearGradient-1)" fill-rule="nonzero" opacity="0.800000012" cx="277.5" cy="201" rx="277.5" ry="40"></ellipse>
            <rect id="Rectangle-Copy-18" opacity="0.1" x="170" y="0" width="220" height="220"></rect>
            <circle id="Oval-Copy-14" fill="#00A4FF" fill-rule="nonzero" opacity="0.2" cx="200" cy="160" r="12"></circle>
            <path d="M207,161.5 C203.410149,161.5 200.5,158.589851 200.5,155 C200.5,151.410149 203.410149,148.5 207,148.5 C210.589851,148.5 213.5,151.410149 213.5,155 C213.5,158.589851 210.589851,161.5 207,161.5 Z M207,160.5 C210.037566,160.5 212.5,158.037566 212.5,155 C212.5,151.962434 210.037566,149.5 207,149.5 C203.962434,149.5 201.5,151.962434 201.5,155 C201.5,158.037566 203.962434,160.5 207,160.5 Z" id="Oval-Copy-6" fill="#334966" fill-rule="nonzero"></path>
            <circle id="Oval-Copy-6" stroke="#334966" cx="34" cy="92" r="3"></circle>
            <circle id="Oval-Copy-16" fill="#F5F7FA" fill-rule="nonzero" cx="358" cy="34" r="20"></circle>
            <ellipse id="Oval-2-Copy-3" fill="#EFF3F8" fill-rule="nonzero" cx="286" cy="184" rx="55" ry="13"></ellipse>
            <g id="Group-15-Copy" transform="translate(192.000000, 68.000000)" fill="#334966" fill-rule="nonzero">
                <rect id="Rectangle-Copy-10" x="0" y="4" width="10" height="2" rx="1"></rect>
                <rect id="Rectangle-Copy-15" transform="translate(5.000000, 5.000000) rotate(90.000000) translate(-5.000000, -5.000000) " x="0" y="4" width="10" height="2" rx="1"></rect>
            </g>
            <path d="M333.999988,100.456883 C313.288041,88.1030044 292.913409,84.1825609 288.387246,91.7153612 C283.836083,99.289768 297.032379,115.576016 317.861998,128.091713 C319.581544,129.124921 321.299357,130.100133 323.006563,131.015622 C313.665134,142.580638 299.216874,150 283.001037,150 C254.833942,150 232,127.614237 232,100 C232,72.3857625 254.833942,50 283.001037,50 C305.351851,50 324.34462,64.0953053 331.235315,83.713514 C322.81438,82.1450636 315.055401,84.3976297 311.457409,90.2132128 C318.361637,92.3086443 326.156606,95.777438 334,100.455602 L333.999988,100.456883 Z" id="Combined-Shape" fill="#00A4FF" fill-rule="nonzero" opacity="0.100000001"></path>
            <path d="M319.725654,129.270212 C311.108423,145.189773 294.277473,156 274.925355,156 C246.800058,156 224,133.166522 224,105 C224,76.8334778 246.800058,54 274.925355,54 C295.469103,54 313.171635,66.1825209 321.222744,83.727373 C320.551084,83.8711217 319.897416,84.0465811 319.264501,84.2535458 C311.46408,67.5623455 294.543007,56 274.925355,56 C247.903011,56 225.997073,77.9380473 225.997073,105 C225.997073,132.061953 247.903011,154 274.925355,154 C293.543109,154 309.732165,143.586266 318.001524,128.257845 C318.576593,128.601839 319.151414,128.939317 319.725654,129.270212 Z" id="Combined-Shape" fill="#334966" fill-rule="nonzero"></path>
            <path d="M281,55 C279.032065,54.7844273 277.029882,54.6735796 275,54.6735796 C272.970118,54.6735796 270.967935,54.7844273 269,55 L269,49 C271,49.2332226 273,49.3498339 275,49.3498339 C277,49.3498339 279,49.2332226 281,49 L281,55 Z M270,54.6082955 L280,54.6082955 L280,50.0465456 C278.3335,50.2052075 276.66679,50.2845498 275,50.2845498 C273.33321,50.2845498 271.6665,50.2052075 270,50.0465456 L270,54.6082955 Z M269,49.9418158 L269,49.8253505 L269.884271,49.0955174 C269.922847,49.0993529 269.961424,49.103145 270,49.1068937 L270,50.0465456 C269.666658,50.0148092 269.333324,49.9798992 269,49.9418158 Z" id="Combined-Shape" fill="#334966" fill-rule="nonzero"></path>
            <path d="M226.398429,79.6164233 C225.537736,79.6826282 224.683027,79.7701979 223.83483,79.8786029 L223.83483,73.6164233 C225.83483,73.865935 227.83483,73.9906908 229.83483,73.9906908 C231.83483,73.9906908 233.83483,73.865935 235.83483,73.6164233 L235.83483,79.7543876 C235.335694,79.7011635 234.834405,79.6551401 234.33107,79.6164233 L234.83483,79.6164233 L234.83483,74.7360635 C233.16833,74.905807 231.501621,74.9906908 229.83483,74.9906908 C228.16804,74.9906908 226.501331,74.905807 224.83483,74.7360635 L224.83483,79.6164233 L226.398429,79.6164233 Z M223.83483,74.6240191 L223.83483,74.4994194 L224.719101,73.718612 C224.757677,73.7227153 224.796254,73.7267723 224.83483,73.7307828 L224.83483,74.7360635 C224.501488,74.7021105 224.168155,74.6647623 223.83483,74.6240191 Z" id="Combined-Shape" fill="#334966" fill-rule="nonzero" transform="translate(229.834830, 76.747513) rotate(-58.000000) translate(-229.834830, -76.747513) "></path>
            <path d="M233.66027,132.523165 C231.84072,132.326627 229.992482,132.22579 228.120693,132.22579 C225.932289,132.22579 223.776079,132.363626 221.66027,132.631088 L221.66027,125.888625 C223.66027,126.138137 225.66027,126.262893 227.66027,126.262893 C229.66027,126.262893 231.66027,126.138137 233.66027,125.888625 L233.66027,132.523165 Z M222.66027,131.888625 L232.66027,131.888625 L232.66027,127.008266 C230.993769,127.178009 229.32706,127.262893 227.66027,127.262893 C225.993479,127.262893 224.32677,127.178009 222.66027,127.008266 L222.66027,131.888625 Z M221.66027,126.896221 L221.66027,126.771621 L222.54454,125.990814 C222.583117,125.994917 222.621693,125.998974 222.66027,126.002985 L222.66027,127.008266 C222.326928,126.974313 221.993594,126.936964 221.66027,126.896221 Z" id="Combined-Shape-Copy-2" fill="#334966" fill-rule="nonzero" transform="translate(227.660270, 129.259857) rotate(-116.000000) translate(-227.660270, -129.259857) "></path>
            <circle id="Oval-Copy-19" fill="#FFFFFF" fill-rule="nonzero" cx="275" cy="105" r="44"></circle>
            <path d="M313.796791,125.600178 C306.416332,139.519915 291.789375,149 274.950707,149 C250.677402,149 231,129.300529 231,105 C231,80.699471 250.677402,61 274.950707,61 C292.622439,61 307.858205,71.4413097 314.838378,86.4977755 C314.560626,86.7003004 314.291278,86.912144 314.030788,87.1332706 C307.255069,72.3034945 292.304795,62 274.950707,62 C251.229068,62 231.99888,81.2517558 231.99888,105 C231.99888,128.748244 251.229068,148 274.950707,148 C291.441208,148 305.761183,138.696451 312.959235,125.046304 C313.236729,125.231501 313.515924,125.416138 313.796791,125.600178 Z" id="Combined-Shape" fill="#334966" fill-rule="nonzero"></path>
            <g id="Group-22" transform="translate(243.000000, 80.000000)" fill-rule="nonzero">
                <path d="M6,11 C8.76142375,11 11,8.76142375 11,6 C11,3.23857625 8.76142375,1 6,1 C3.23857625,1 1,3.23857625 1,6 C1,8.76142375 3.23857625,11 6,11 Z M6,12 C2.6862915,12 0,9.3137085 0,6 C0,2.6862915 2.6862915,0 6,0 C9.3137085,0 12,2.6862915 12,6 C12,9.3137085 9.3137085,12 6,12 Z" id="Oval" fill="#334966"></path>
                <path d="M2.61878632,10 C1.62127122,9.04888674 1,7.70885108 1,6.22416003 C1,3.33893612 3.34621658,1 6.24042141,1 C8.35054514,1 10.1693769,2.24329926 11,4.03514376 C10.1561891,3.52962673 9.16814892,3.23892573 8.11200049,3.23892573 C5.01106674,3.23892573 2.49726326,5.74492871 2.49726326,8.83624005 C2.49726326,9.23529059 2.53915242,9.62458777 2.61878632,10 Z" id="Combined-Shape" fill="#00A4FF" opacity="0.200000003"></path>
            </g>
            <g id="Group-21" transform="translate(276.000000, 70.000000)" fill-rule="nonzero">
                <path d="M8,15 C11.8659932,15 15,11.8659932 15,8 C15,4.13400675 11.8659932,1 8,1 C4.13400675,1 1,4.13400675 1,8 C1,11.8659932 4.13400675,15 8,15 Z M8,16 C3.581722,16 0,12.418278 0,8 C0,3.581722 3.581722,0 8,0 C12.418278,0 16,3.581722 16,8 C16,12.418278 12.418278,16 8,16 Z" id="Oval" fill="#334966"></path>
                <path d="M3.16232691,13.0593549 C1.82987573,11.7849313 1,9.9893796 1,8 C1,4.13400675 4.13400675,1 8,1 C10.8186409,1 13.2481826,2.6659319 14.3577044,5.06687509 C13.2305668,4.3895185 11.9107718,4 10.5,4 C6.35786438,4 3,7.35786438 3,11.5 C3,12.0346991 3.0559543,12.5563294 3.16232691,13.0593549 Z" id="Combined-Shape" fill="#00A4FF" opacity="0.200000003"></path>
            </g>
            <g id="Group-20" transform="translate(262.000000, 104.000000)" fill-rule="nonzero">
                <path d="M8,15 C11.8659932,15 15,11.8659932 15,8 C15,4.13400675 11.8659932,1 8,1 C4.13400675,1 1,4.13400675 1,8 C1,11.8659932 4.13400675,15 8,15 Z M8,16 C3.581722,16 0,12.418278 0,8 C0,3.581722 3.581722,0 8,0 C12.418278,0 16,3.581722 16,8 C16,12.418278 12.418278,16 8,16 Z" id="Oval" fill="#334966"></path>
                <path d="M3.16232691,13.0593549 C1.82987573,11.7849313 1,9.9893796 1,8 C1,4.13400675 4.13400675,1 8,1 C10.8186409,1 13.2481826,2.6659319 14.3577044,5.06687509 C13.2305668,4.3895185 11.9107718,4 10.5,4 C6.35786438,4 3,7.35786438 3,11.5 C3,12.0346991 3.0559543,12.5563294 3.16232691,13.0593549 Z" id="Combined-Shape" fill="#00A4FF" opacity="0.200000003"></path>
            </g>
            <g id="Group-16" transform="translate(239.000000, 111.000000)" fill-rule="nonzero">
                <path d="M7,13 C10.3137085,13 13,10.3137085 13,7 C13,3.6862915 10.3137085,1 7,1 C3.6862915,1 1,3.6862915 1,7 C1,10.3137085 3.6862915,13 7,13 Z M7,14 C3.13400675,14 0,10.8659933 0,7 C0,3.13400675 3.13400675,0 7,0 C10.8659933,0 14,3.13400675 14,7 C14,10.8659933 10.8659933,14 7,14 Z" id="Oval" fill="#334966"></path>
                <path d="M3.42627686,11.8200651 C1.95400525,10.7266892 1,8.97475451 1,7 C1,3.6862915 3.6862915,1 7,1 C8.97475451,1 10.7266892,1.95400525 11.8200651,3.42627686 C11.0994991,3.15086825 10.3173682,3 9.5,3 C5.91014913,3 3,5.91014913 3,9.5 C3,10.3173681 3.15086825,11.0994991 3.42627686,11.8200651 Z" id="Combined-Shape" fill="#00A4FF" opacity="0.200000003"></path>
            </g>
            <circle id="Oval-Copy-20" stroke="#334966" fill="#00A4FF" fill-rule="nonzero" cx="356" cy="156" r="4"></circle>
            <path d="M56.24,31.92 L151.94,31.92 L151.94,54.58 L76.92,54.58 L72.52,97.7 L73.18,97.7 C78.0200242,92.8599758 83.5933018,89.340011 89.9,87.14 C95.6200286,84.939989 101.999965,83.84 109.04,83.84 C123.853407,83.84 135.879954,88.6799516 145.12,98.36 C154.506714,108.186716 159.2,121.533249 159.2,138.4 C159.2,154.533414 153.040062,167.806615 140.72,178.22 C129.279943,187.460046 115.786744,192.08 100.24,192.08 C86.0132622,192.08 73.766718,188.193372 63.5,180.42 C52.2066102,171.913291 45.9733392,160.32674 44.8,145.66 L70.1,145.66 C71.2733392,154.313377 74.6466388,160.693313 80.22,164.8 C85.2066916,168.466685 91.9532908,170.3 100.46,170.3 C109.846714,170.3 117.693302,167.440029 124,161.72 C130.306698,155.853304 133.46,148.153381 133.46,138.62 C133.46,128.206615 130.746694,119.920031 125.32,113.76 C120.186641,107.746637 112.413385,104.74 102,104.74 C94.9599648,104.74 89.0933568,105.913322 84.4,108.26 C78.9733062,110.900013 74.7200154,114.933306 71.64,120.36 L47.66,120.36 L56.24,31.92 Z" id="5" fill="#ECF0F5" fill-rule="nonzero"></path>
            <path d="M459,31 C476.808429,31 490.754789,38.2857143 500.83908,53.2857143 C510.279693,67.4285714 515,86.5 515,110.5 C515,134.5 510.279693,153.571429 500.83908,167.714286 C490.754789,182.5 476.808429,190 459,190 C440.977011,190 427.030651,182.5 417.16092,167.714286 C407.720307,153.571429 403,134.5 403,110.5 C403,86.5 407.720307,67.4285714 417.16092,53.2857143 C427.030651,38.2857143 440.977011,31 459,31 Z M459,52 C446.729167,52 438.118056,58.6672794 433.166667,72.4319853 C429.722222,81.6801471 428,94.3694853 428,110.5 C428,126.415441 429.722222,139.104779 433.166667,148.568015 C438.118056,162.117647 446.729167,169 459,169 C471.055556,169 479.666667,162.117647 484.833333,148.568015 C488.277778,139.104779 490,126.415441 490,110.5 C490,94.3694853 488.277778,81.6801471 484.833333,72.4319853 C479.666667,58.6672794 471.055556,52 459,52 Z" id="0" fill="#ECF0F5" fill-rule="nonzero"></path>
            <rect id="Rectangle" fill="#334966" fill-rule="nonzero" transform="translate(344.471069, 85.748386) rotate(31.000000) translate(-344.471069, -85.748386) " x="343.471069" y="82.7483863" width="2" height="6"></rect>
            <path d="M329.498919,92.2195353 C331.728765,91.7698465 334.083479,91.5290514 336.517868,91.5290514 C350.601129,91.5290514 362.017868,99.5879256 362.017868,109.529052 C362.017868,109.559325 362.017762,109.58958 362.017868,109.619818 C358.59205,108.705998 354.789421,107.968121 350.710354,107.442804 C348.130905,100.114834 339.968749,94.2887639 329.498919,92.2195353 Z" id="Combined-Shape" fill="#00A4FF" fill-rule="nonzero" opacity="0.200000003" transform="translate(345.758394, 100.574435) rotate(31.000000) translate(-345.758394, -100.574435) "></path>
            <path d="M337.337639,101.270111 C346.594871,101.270111 355.424372,102.308018 362.824991,104.209873 C362.401664,94.8458729 351.405013,87.2701105 337.837639,87.2701105 C324.401465,87.2701105 313.471942,94.7041756 312.864277,103.956907 C320.058819,102.214636 328.505259,101.270111 337.337639,101.270111 Z M311.838775,104.595119 C311.971121,94.4075204 323.599044,86.2701105 337.837639,86.2701105 C352.167214,86.2701105 363.837639,94.5080575 363.837639,104.770111 C363.837584,104.81726 363.837584,104.81726 363.837309,104.864374 L363.83279,105.510539 L363.208444,105.343982 C355.766646,103.358734 346.779752,102.270111 337.337639,102.270111 C328.318518,102.270111 319.710965,103.263049 312.460687,105.086513 L311.830332,105.245049 L311.838775,104.595119 Z" id="Combined-Shape" fill="#334966" fill-rule="nonzero" transform="translate(337.833986, 95.890325) rotate(31.000000) translate(-337.833986, -95.890325) "></path>
            <ellipse id="Oval" fill="#00A4FF" fill-rule="nonzero" transform="translate(326.271828, 117.978615) rotate(31.000000) translate(-326.271828, -117.978615) " cx="326.271828" cy="117.978615" rx="43" ry="15"></ellipse>
            <path d="M317.165131,142.2078 C337.829113,141.11481 353.665131,134.891557 353.665131,127.378059 C353.665131,119.864562 337.829113,113.641309 317.165131,112.548319 C319.284951,112.436195 321.455579,112.378059 323.665131,112.378059 C347.413376,112.378059 366.665131,119.093788 366.665131,127.378059 C366.665131,135.662331 347.413376,142.378059 323.665131,142.378059 C321.455579,142.378059 319.284951,142.319924 317.165131,142.2078 Z" id="Combined-Shape" fill="#FFFFFF" fill-rule="nonzero" opacity="0.800000012" transform="translate(341.915131, 127.378059) rotate(31.000000) translate(-341.915131, -127.378059) "></path>
            <path d="M326.102608,130.877037 C301.538795,130.877037 281.602608,123.627514 281.602608,114.377037 C281.602608,105.126559 301.538795,97.877037 326.102608,97.877037 C350.66642,97.877037 370.602608,105.126559 370.602608,114.377037 C370.602608,123.627514 350.66642,130.877037 326.102608,130.877037 Z M326.102608,129.877037 C350.139853,129.877037 369.602608,122.799671 369.602608,114.377037 C369.602608,105.954402 350.139853,98.877037 326.102608,98.877037 C302.065362,98.877037 282.602608,105.954402 282.602608,114.377037 C282.602608,122.799671 302.065362,129.877037 326.102608,129.877037 Z" id="Oval" fill="#334966" fill-rule="nonzero" transform="translate(326.102608, 114.377037) rotate(31.000000) translate(-326.102608, -114.377037) "></path>
            <ellipse id="Oval" fill="#FFFFFF" fill-rule="nonzero" transform="translate(326.786866, 117.121447) rotate(31.000000) translate(-326.786866, -117.121447) " cx="326.786866" cy="117.121447" rx="15" ry="5"></ellipse>
            <path d="M326.102608,119.877037 C317.543485,119.877037 310.602608,117.563411 310.602608,114.377037 C310.602608,111.190662 317.543485,108.877037 326.102608,108.877037 C334.661731,108.877037 341.602608,111.190662 341.602608,114.377037 C341.602608,117.563411 334.661731,119.877037 326.102608,119.877037 Z M326.102608,118.877037 C334.112027,118.877037 340.602608,116.71351 340.602608,114.377037 C340.602608,112.040563 334.112027,109.877037 326.102608,109.877037 C318.093188,109.877037 311.602608,112.040563 311.602608,114.377037 C311.602608,116.71351 318.093188,118.877037 326.102608,118.877037 Z" id="Oval" fill="#334966" fill-rule="nonzero" transform="translate(326.102608, 114.377037) rotate(31.000000) translate(-326.102608, -114.377037) "></path>
            <polygon id="Rectangle" fill="url(#linearGradient-2)" fill-rule="nonzero" opacity="0.400000006" transform="translate(311.119755, 139.312690) rotate(31.000000) translate(-311.119755, -139.312690) " points="296.119755 110.31269 326.119755 110.31269 346.119755 168.31269 276.119755 168.31269"></polygon>
            <polygon id="Rectangle" stroke="url(#linearGradient-3)" opacity="0.400000006" transform="translate(311.119755, 139.312690) rotate(31.000000) translate(-311.119755, -139.312690) " points="296.476233 110.81269 276.821061 167.81269 345.41845 167.81269 325.763277 110.81269"></polygon>
            <circle id="Oval" stroke="#334966" stroke-width="2" transform="translate(348.561298, 79.605383) rotate(31.000000) translate(-348.561298, -79.605383) " cx="348.561298" cy="79.6053827" r="4"></circle>
            <g id="Group-14" transform="translate(346.000000, 31.000000)" fill="#334966" fill-rule="nonzero">
                <circle id="Oval" cx="2" cy="21" r="2"></circle>
                <path d="M2,0 L2,0 C3.05656792,-1.94088378e-16 3.91308545,0.856517529 3.91308545,1.91308545 C3.91308545,1.94140998 3.9124564,1.96973102 3.91119877,1.99802761 L3.2,18 L0.8,18 L0.0888012272,1.99802761 C0.0418889634,0.942501677 0.859531896,0.0487989363 1.91505783,0.0018866725 C1.94335443,0.000629045922 1.97167547,5.203132e-18 2,0 Z" id="Rectangle"></path>
            </g>
            <path d="M391.334,9.5 C396.02556,9.5 399.832999,13.2483299 399.832999,17.875123 C399.832999,18.3624708 399.788367,18.8483221 399.701236,19.3320711 C401.454949,20.5938288 402.501026,22.6108394 402.499999,24.7658557 C402.499999,28.3549271 399.642975,31.3128813 396,31.5 L376,31.5 C372.41227,31.5 369.5,28.6335191 369.5,25.0936577 C369.5,22.1956467 371.468267,19.6968899 374.237327,18.9302027 C374.688787,15.8053089 377.412286,13.4375615 380.666575,13.4375617 C381.729765,13.4366595 382.773078,13.6939777 383.706487,14.18326 C385.117752,11.3521646 388.051888,9.5 391.334,9.5 Z M398.832999,17.875123 C398.832999,13.8041472 395.476748,10.5 391.334,10.5 C388.261745,10.5 385.537622,12.3351916 384.393631,15.0845052 L384.164151,15.6360069 L383.661655,15.3130313 C382.771411,14.7408333 381.731409,14.4366584 380.667,14.4375615 C377.805814,14.4375615 375.434218,16.5934374 375.192117,19.3753701 L375.160227,19.7418116 L374.800907,19.820458 C372.303247,20.3671348 370.5,22.5503243 370.5,25.0936577 C370.5,28.0776559 372.961039,30.5 376,30.5 L395.97426,30.5006629 C399.063574,30.3414197 401.499999,27.8189233 401.499999,24.7656175 C401.500918,22.83724 400.514478,21.0373368 398.874757,19.9784635 L398.582825,19.7899441 L398.657763,19.4506093 C398.773584,18.92615 398.832999,18.4009101 398.832999,17.875123 Z" id="Fill-1" fill="#334966" fill-rule="nonzero"></path>
            <path d="M389.332999,17.875123 C389.332999,13.5260863 385.750999,10 381.334,10 C377.989,10 375.126,12.0229222 373.932,14.8924202 C372.961,14.2683167 371.827,13.9365771 370.667,13.9375615 C367.528,13.9375615 364.957,16.3099423 364.694,19.3320208 C362.009,19.9197019 360,22.2733793 360,25.0936577 C360,28.3559274 362.687,31 366,31 L386,31 C389.341999,30.8277317 391.999999,28.0980172 391.999999,24.7658557 C392.000999,22.6671354 390.927999,20.709183 389.145999,19.5584306 C389.265999,19.0150471 389.332999,18.4529602 389.332999,17.875123 Z" id="Fill-1" fill="#00A4FF" fill-rule="nonzero" opacity="0.200000003"></path>
        </g>
    </g>
</svg>