<svg id="图层_1" xmlns="http://www.w3.org/2000/svg" width="48" height="48" viewBox="0 0 48 48"><style>.st0{fill-rule:evenodd;clip-rule:evenodd;fill:url(#XMLID_8_)}</style><g id="XMLID_57_"><linearGradient id="XMLID_8_" gradientUnits="userSpaceOnUse" x1="40.971" y1="40.971" x2="7.029" y2="7.029"><stop offset="0" stop-color="#006eff"/><stop offset="1" stop-color="#00c8dc"/></linearGradient><path id="XMLID_58_" class="st0" d="M33 23.9l-.7-1.9v-.3c0-5.8-3.3-9.7-8.3-9.7-4.9 0-8.3 3.9-8.3 9.7v.3l-.7 1.9c-.3.8-.6 1.5-.7 2-.8 2.6-.9 4.5-.2 5.5.3.5.9.9 1.5 1h.4c-.4.8-.3 1.6.1 2.3.7 1.1 1.9 1.3 4.4 1.3 1.3 0 2.8-.1 3.6-.1.8.1 2.2.1 3.6.1 2.5 0 3.7-.2 4.4-1.3.4-.6.5-1.5.1-2.3h.4c.6-.1 1.2-.4 1.5-1 .7-1 .6-2.9-.2-5.5-.3-.5-.6-1.2-.9-2zm-.8 6.5c-.5 0-1.8-2.1-1.8-2.1 0 1.2-.6 2.8-2 4 .5.2 1.1.4 1.5.7.4.3.3.5.3.6-.1.2-1.3.3-2.7.3-1.4 0-2.9-.1-3.6-.2-.7.1-2.2.2-3.6.2-1.3 0-2.5-.1-2.7-.3-.1-.1-.1-.4.3-.6.4-.3 1-.5 1.5-.7-1.4-1.2-2-2.8-2-4 0 0-1.3 2.1-1.7 2.1-.2 0-.5-1.2.4-3.9.2-.6.4-1.2.7-1.9l.9-2.2v-.7c0-3.8 1.8-7.7 6.3-7.7s6.3 3.9 6.3 7.7v.7l.9 2.2c.2.6.5 1.3.7 1.9.8 2.8.5 3.9.3 3.9zM24 0C10.7 0 0 10.7 0 24s10.7 24 24 24 24-10.7 24-24S37.3 0 24 0zm0 46C11.8 46 2 36.2 2 24S11.8 2 24 2s22 9.8 22 22-9.8 22-22 22z"/></g></svg>