<?xml version="1.0" encoding="UTF-8"?>
<svg width="22px" height="22px" viewBox="0 0 22 22" version="1.1" xmlns="http://www.w3.org/2000/svg" xmlns:xlink="http://www.w3.org/1999/xlink">
    <!-- Generator: Sketch 52.2 (67145) - http://www.bohemiancoding.com/sketch -->
    <title>切片</title>
    <desc>Created with Sketch.</desc>
    <g id="视觉文件_列表页" stroke="none" stroke-width="1" fill="none" fill-rule="evenodd">
        <g id="分组-2" transform="translate(-87.000000, -3.000000)">
            <g id="star-icon-copy-30" transform="translate(100.317073, 14.048780) scale(-1, -1) rotate(-180.000000) translate(-100.317073, -14.048780) translate(61.317073, 3.048780)">
                <path d="M37.8988997,2.2193593 L40.1522648,7.6358885 L45.6247215,7.77891612 C46.1768177,7.79334566 46.6126827,8.25260552 46.5982532,8.80470174 C46.5915613,9.06074138 46.4868812,9.30445303 46.3057963,9.48558655 L42.115331,13.6771777 L43.9847997,19.4060896 C44.1561308,19.9311268 43.8693953,20.4956449 43.344358,20.6669759 C43.0689348,20.7568526 42.76807,20.7228629 42.5196399,20.5738049 L36.9756098,17.2473868 L31.4315796,20.5738049 C30.9579993,20.857953 30.3437391,20.7043879 30.0595909,20.2308077 C29.9105329,19.9823776 29.8765432,19.6815128 29.9664198,19.4060896 L31.8358885,13.6771777 L27.6454232,9.48558655 C27.2549514,9.09500981 27.2550364,8.46184483 27.6456132,8.071373 C27.8267467,7.89028813 28.0704583,7.78560795 28.326498,7.77891612 L33.7989547,7.6358885 L36.0523198,2.2193593 C36.2644545,1.70944035 36.8497946,1.46803849 37.3597135,1.68017315 C37.6036013,1.78163449 37.7974383,1.97547148 37.8988997,2.2193593 Z" id="Path" fill="#DEDEDE"></path>
                <path d="M36.0932034,2.11405452 C36.3319921,1.77348616 36.6261275,1.60320198 36.9756098,1.60320198 L36.9756098,17.2473868 L31.4315796,20.5738049 C30.9579993,20.857953 30.3437391,20.7043879 30.0595909,20.2308077 C29.9105329,19.9823776 29.8765432,19.6815128 29.9664198,19.4060896 L31.8358885,13.6771777 L27.6454232,9.48558655 C27.2549514,9.09500981 27.2550364,8.46184483 27.6456132,8.071373 C27.8267467,7.89028813 28.0704583,7.78560795 28.326498,7.77891612 L33.7989547,7.6358885 L36.0932034,2.11405452 Z" id="Path" fill="#FF9D00"></path>
            </g>
        </g>
    </g>
</svg>