<svg xmlns="http://www.w3.org/2000/svg" width="48" height="48" viewBox="0 0 48 48">
  <g fill="none" fill-rule="evenodd">
    <path fill="#334966" fill-rule="nonzero" d="M24,48 C10.745166,48 0,37.254834 0,24 C0,10.745166 10.745166,0 24,0 C37.254834,0 48,10.745166 48,24 C48,37.254834 37.254834,48 24,48 Z M24,46 C36.1502645,46 46,36.1502645 46,24 C46,11.8497355 36.1502645,2 24,2 C11.8497355,2 2,11.8497355 2,24 C2,36.1502645 11.8497355,46 24,46 Z"/>
    <rect width="16" height="16" x="16" y="21" fill="#00A4FF" rx="8"/>
    <path fill="#334966" fill-rule="nonzero" d="M24,13 C20.6862915,13 18,15.6862915 18,19 L18,29 C18,32.3137085 20.6862915,35 24,35 C27.3137085,35 30,32.3137085 30,29 L30,19 C30,15.6862915 27.3137085,13 24,13 Z M24,11 C28.418278,11 32,14.581722 32,19 L32,29 C32,33.418278 28.418278,37 24,37 C19.581722,37 16,33.418278 16,29 L16,19 C16,14.581722 19.581722,11 24,11 Z M24,16 C23.4477153,16 23,16.4477153 23,17 L23,18 C23,18.5522847 23.4477153,19 24,19 C24.5522847,19 25,18.5522847 25,18 L25,17 C25,16.4477153 24.5522847,16 24,16 Z"/>
  </g>
</svg>
