<?xml version="1.0" encoding="utf-8"?>
<!-- Generator: Adobe Illustrator 19.0.0, SVG Export Plug-In . SVG Version: 6.00 Build 0)  -->
<svg version="1.1" id="图层_1" xmlns="http://www.w3.org/2000/svg" xmlns:xlink="http://www.w3.org/1999/xlink" x="0px" y="0px"
	 width="16px" height="16px" viewBox="0 0 16 16" style="enable-background:new 0 0 16 16;" xml:space="preserve">
<g>
	<g id="XMLID_42_">
		<path id="XMLID_43_" style="fill-rule:evenodd;clip-rule:evenodd;fill:#777F89;" d="M8,0C3.6,0,0,3.6,0,8c0,4.4,3.6,8,8,8
			c4.4,0,8-3.6,8-8C16,3.6,12.4,0,8,0z M8,15c-3.9,0-7-3.1-7-7c0-3.9,3.1-7,7-7c3.9,0,7,3.1,7,7C15,11.9,11.9,15,8,15z M8,4H7v6h5V9
			H8V4z"/>
	</g>
</g>
</svg>
