<svg xmlns="http://www.w3.org/2000/svg" width="48" height="48" viewBox="0 0 48 48">
  <g fill="none" fill-rule="evenodd">
    <path fill="#334966" d="M24,0 C10.745,0 0,10.745 0,24 C0,37.255 10.745,48 24,48 C37.255,48 48,37.255 48,24 C48,10.745 37.255,0 24,0 M24,2 C36.131,2 46,11.869 46,24 C46,36.131 36.131,46 24,46 C11.869,46 2,36.131 2,24 C2,11.869 11.869,2 24,2"/>
    <path fill="#334966" fill-rule="nonzero" d="M36,21 L38,21 L38,31 C38,31.5522847 37.5522847,32 37,32 L37,32 C36.4477153,32 36,31.5522847 36,31 L36,21 Z"/>
    <circle cx="37" cy="32" r="2" fill="#334966" fill-rule="nonzero"/>
    <path fill="#00A4FF" fill-rule="nonzero" d="M14,23 L24,16 L34,23 L34,33 C34,35.7614237 29.5228475,38 24,38 C18.4771525,38 14,35.7614237 14,33 L14,23 Z"/>
    <path stroke="#334966" stroke-width="2" d="M24,9.22403836 L8.73405434,20 L24,30.7759616 L39.2659457,20 L24,9.22403836 Z"/>
  </g>
</svg>
