<?xml version="1.0" encoding="UTF-8"?>
<svg width="36px" height="16px" viewBox="0 0 36 16" version="1.1" xmlns="http://www.w3.org/2000/svg" xmlns:xlink="http://www.w3.org/1999/xlink">
    <!-- Generator: Sketch 55.2 (78181) - https://sketchapp.com -->
    <title>编组 8备份</title>
    <desc>Created with Sketch.</desc>
    <g id="页面-1" stroke="none" stroke-width="1" fill="none" fill-rule="evenodd">
        <g id="01首页-copy-32备份-2" transform="translate(-899.000000, -198.000000)">
            <g id="编组-21">
                <g id="编组-2" transform="translate(0.000000, 54.000000)">
                    <g id="编组-20">
                        <g id="编组-8备份" transform="translate(899.000000, 144.000000)">
                            <g id="NEW">
                                <rect id="矩形" stroke="#FF7000" fill="#FF7000" x="0.5" y="0.5" width="35" height="15" rx="7.5"></rect>
                                <path d="M6.00180169,11.8823529 L7.37827228,4.11764706 C7.39003698,4.04705882 7.43709581,4 7.50768404,4 L9.17827228,4 C9.26062522,4 9.31944875,4.03529412 9.35474287,4.11764706 L10.8606252,8.75294118 L10.907684,8.75294118 L11.7312135,4.11764706 C11.7429782,4.04705882 11.790037,4 11.8606252,4 L13.4370958,4 C13.507684,4 13.5547429,4.04705882 13.5429782,4.11764706 L12.1665076,11.8823529 C12.1547429,11.9529412 12.107684,12 12.0370958,12 L10.3547429,12 C10.2723899,12 10.2135664,11.9647059 10.190037,11.8823529 L8.68415463,7.24705882 L8.6253311,7.24705882 L7.80180169,11.8823529 C7.79003698,11.9529412 7.74297816,12 7.68415463,12 L6.10768404,12 C6.03709581,12 5.99003698,11.9529412 6.00180169,11.8823529 Z M13.4253311,11.8823529 L14.8018017,4.11764706 C14.8135664,4.04705882 14.8606252,4 14.9194487,4 L19.9782723,4 C20.0488605,4 20.0841546,4.04705882 20.0723899,4.11764706 L19.8135664,5.57647059 C19.8018017,5.64705882 19.7429782,5.69411765 19.6841546,5.69411765 L16.5665076,5.69411765 C16.5312135,5.69411765 16.4959193,5.71764706 16.4959193,5.76470588 L16.2606252,7.05882353 C16.2488605,7.10588235 16.2723899,7.12941176 16.3194487,7.12941176 L18.8606252,7.12941176 C18.9312135,7.12941176 18.9665076,7.17647059 18.9547429,7.24705882 L18.707684,8.68235294 C18.6959193,8.75294118 18.6370958,8.8 18.5665076,8.8 L16.0135664,8.8 C15.9782723,8.8 15.9547429,8.82352941 15.9429782,8.87058824 L15.6959193,10.2352941 C15.6959193,10.2823529 15.707684,10.3058824 15.7547429,10.3058824 L18.8606252,10.3058824 C18.9312135,10.3058824 18.9665076,10.3529412 18.9547429,10.4235294 L18.6959193,11.8823529 C18.6841546,11.9529412 18.6370958,12 18.5665076,12 L13.5194487,12 C13.4606252,12 13.4135664,11.9529412 13.4253311,11.8823529 Z M27.0253311,12 L25.6018017,12 C25.5194487,12 25.4841546,11.9647059 25.4723899,11.8823529 L25.0488605,7.30588235 L25.0253311,7.30588235 L22.990037,11.8823529 C22.9547429,11.9647059 22.907684,12 22.8253311,12 L21.4018017,12 C21.3194487,12 21.2723899,11.9647059 21.2606252,11.8823529 L20.5312135,4.11764706 C20.5312135,4.04705882 20.5547429,4 20.6253311,4 L22.4253311,4 C22.5194487,4 22.5665076,4.04705882 22.5665076,4.11764706 L22.7194487,8.90588235 L22.7429782,8.90588235 L24.790037,4.11764706 C24.8253311,4.03529412 24.8723899,4 24.9547429,4 L26.1312135,4 C26.2135664,4 26.2606252,4.03529412 26.2723899,4.11764706 L26.6723899,8.90588235 L26.6959193,8.90588235 L28.5194487,4.11764706 C28.5429782,4.04705882 28.590037,4 28.6723899,4 L30.6018017,4 C30.6723899,4 30.707684,4.04705882 30.6723899,4.11764706 L27.1782723,11.8823529 C27.1429782,11.9647059 27.0959193,12 27.0253311,12 Z" fill="#FFFFFF" fill-rule="nonzero"></path>
                            </g>
                        </g>
                    </g>
                </g>
            </g>
        </g>
    </g>
</svg>