<?xml version="1.0" encoding="UTF-8"?>
<svg width="14px" height="14px" viewBox="0 0 14 14" version="1.1" xmlns="http://www.w3.org/2000/svg" xmlns:xlink="http://www.w3.org/1999/xlink">
    <!-- Generator: Sketch 52.2 (67145) - http://www.bohemiancoding.com/sketch -->
    <title>Delete</title>
    <desc>Created with Sketch.</desc>
    <g id="Page-1" stroke="none" stroke-width="1" fill="none" fill-rule="evenodd">
        <g id="可删除" transform="translate(-1650.000000, -107.000000)" fill="#7C848E">
            <g id="Group-5" transform="translate(1064.000000, 85.000000)">
                <g id="Delete" transform="translate(586.000000, 22.000000)">
                    <path d="M3,13 L5,13 L5,4 L6,4 L6,13 L8,13 L8,4 L9,4 L9,12 L9,13 L11,13 L11,4 L12,4 L12,9 L12,13 L12,14 L2,14 L2,13 L2,9 L2,4 L3,4 L3,13 Z M4.5,1 L4.5,0 L9.5,0 L9.5,1 L14,1 L14,3 L0,3 L0,1 L4.5,1 Z" id="icon-delete"></path>
                </g>
            </g>
        </g>
    </g>
</svg>