<svg xmlns="http://www.w3.org/2000/svg" width="48" height="48" viewBox="0 0 48 48">
  <g fill="none" fill-rule="evenodd">
    <rect width="48" height="48"/>
    <g transform="translate(0 2)">
      <path stroke="#334966" stroke-width="2" d="M1,1 L1,42 L21.3027756,42 L24,43.7981496 L26.6972244,42 L47,42 L47,1 L27.3027756,1 L24,3.20185043 L20.6972244,1 L1,1 Z"/>
      <polygon fill="#00A4FF" points="24 11 27 8 40 8 40 32 37 35 24 35"/>
      <polygon fill="#334966" points="8 21 30 21 30 23 8 23"/>
      <polygon fill="#334966" points="8 28 30 28 30 30 8 30"/>
      <rect width="12" height="2" x="8" y="14" fill="#334966"/>
    </g>
  </g>
</svg>
