<?xml version="1.0" encoding="UTF-8"?>
<svg width="20px" height="20px" viewBox="0 0 20 20" version="1.1" xmlns="http://www.w3.org/2000/svg" xmlns:xlink="http://www.w3.org/1999/xlink">
    <!-- Generator: Sketch 52.2 (67145) - http://www.bohemiancoding.com/sketch -->
    <title>Path</title>
    <desc>Created with Sketch.</desc>
    <g id="视觉文件_列表页" stroke="none" stroke-width="1" fill="none" fill-rule="evenodd">
        <g id="分组-2" transform="translate(-118.000000, -4.000000)" fill="#DEDEDE">
            <g id="star-icon-copy-30" transform="translate(100.317073, 14.048780) scale(-1, -1) rotate(-180.000000) translate(-100.317073, -14.048780) translate(61.317073, 3.048780)">
                <path d="M67.8988997,2.2193593 L70.1522648,7.6358885 L75.6247215,7.77891612 C76.1768177,7.79334566 76.6126827,8.25260552 76.5982532,8.80470174 C76.5915613,9.06074138 76.4868812,9.30445303 76.3057963,9.48558655 L72.115331,13.6771777 L73.9847997,19.4060896 C74.1561308,19.9311268 73.8693953,20.4956449 73.344358,20.6669759 C73.0689348,20.7568526 72.76807,20.7228629 72.5196399,20.5738049 L66.9756098,17.2473868 L61.4315796,20.5738049 C60.9579993,20.857953 60.3437391,20.7043879 60.0595909,20.2308077 C59.9105329,19.9823776 59.8765432,19.6815128 59.9664198,19.4060896 L61.8358885,13.6771777 L57.6454232,9.48558655 C57.2549514,9.09500981 57.2550364,8.46184483 57.6456132,8.071373 C57.8267467,7.89028813 58.0704583,7.78560795 58.326498,7.77891612 L63.7989547,7.6358885 L66.0523198,2.2193593 C66.2644545,1.70944035 66.8497946,1.46803849 67.3597135,1.68017315 C67.6036013,1.78163449 67.7974383,1.97547148 67.8988997,2.2193593 Z" id="Path"></path>
            </g>
        </g>
    </g>
</svg>