<?xml version="1.0" encoding="UTF-8"?>
<svg width="18px" height="18px" viewBox="0 0 18 18" version="1.1" xmlns="http://www.w3.org/2000/svg" xmlns:xlink="http://www.w3.org/1999/xlink">
    <!-- Generator: Sketch 55.2 (78181) - https://sketchapp.com -->
    <title>成功案例</title>
    <desc>Created with Sketch.</desc>
    <g id="页面-1" stroke="none" stroke-width="1" fill="none" fill-rule="evenodd">
        <g id="01首页-copy-32备份-2" transform="translate(-1339.000000, -217.000000)">
            <g id="编组-21">
                <g id="编组-2" transform="translate(0.000000, 54.000000)">
                    <g id="编组-20">
                        <g id="编组-3" transform="translate(1217.000000, 156.000000)">
                            <g id="成功案例" transform="translate(122.000000, 7.000000)">
                                <rect id="矩形" fill="#D8D8D8" opacity="0" x="0" y="0" width="18" height="18"></rect>
                                <path d="M10.2116621,13.5 L11.842875,13.5 C12.35475,12.0465 12.988125,10.692 13.56525,9.49725 C13.896,8.81325 14.0625,8.078625 14.0625,7.3125 C14.0625,4.521375 11.79225,2.25 9,2.25 C6.208875,2.25 3.9375,4.521375 3.9375,7.3125 C3.9375,8.078625 4.105125,8.81325 4.435875,9.49725 C5.011875,10.692 5.646375,12.0465 6.157125,13.5 L7.875,13.5 L7.875,13.2833448 L9.58833792,9 L5.625,9 L5.625,6.75 L12.9116621,6.75 L10.2116621,13.5 Z M5.86575,16.875 L12.13425,16.875 L11.8125,18 L6.1875,18 L5.86575,16.875 Z M9,0 C13.03875,0 16.3125,3.27375 16.3125,7.3125 C16.3125,8.4465 16.05375,9.518625 15.591375,10.476 C14.830875,12.05325 14.10075,13.645125 13.6215,15.328125 L13.5,15.75 L9,15.75 L4.5,15.75 L4.379625,15.328125 C3.89925,13.645125 3.17025,12.05325 2.40975,10.476 C1.947375,9.518625 1.6875,8.4465 1.6875,7.3125 C1.6875,3.27375 4.96125,0 9,0 Z" id="形状结合" fill="#FFC92A" fill-rule="nonzero"></path>
                            </g>
                        </g>
                    </g>
                </g>
            </g>
        </g>
    </g>
</svg>