<?xml version="1.0" encoding="UTF-8"?>
<svg width="36px" height="16px" viewBox="0 0 36 16" version="1.1" xmlns="http://www.w3.org/2000/svg" xmlns:xlink="http://www.w3.org/1999/xlink">
    <!-- Generator: Sketch 55.2 (78181) - https://sketchapp.com -->
    <title>HOT</title>
    <desc>Created with Sketch.</desc>
    <g id="页面-1" stroke="none" stroke-width="1" fill="none" fill-rule="evenodd">
        <g id="01首页-copy-32备份-2" transform="translate(-812.000000, -198.000000)">
            <g id="编组-21">
                <g id="HOT" transform="translate(812.000000, 198.000000)">
                    <rect id="矩形备份-4" stroke="#E54544" fill="#E54544" x="0.5" y="0.5" width="35" height="15" rx="7.5"></rect>
                    <path d="M7.53977273,11.75 L8.86931818,4.25 C8.88068182,4.18181818 8.92613636,4.13636364 8.99431818,4.13636364 L10.6988636,4.13636364 C10.7670455,4.13636364 10.8011364,4.18181818 10.7897727,4.25 L10.3011364,7.02272727 C10.2897727,7.06818182 10.3125,7.09090909 10.3465909,7.09090909 L12.3920455,7.09090909 C12.4375,7.09090909 12.4602273,7.06818182 12.4715909,7.02272727 L12.9602273,4.25 C12.9715909,4.18181818 13.0170455,4.13636364 13.0852273,4.13636364 L14.7897727,4.13636364 C14.8579545,4.13636364 14.9034091,4.18181818 14.8920455,4.25 L13.5625,11.75 C13.5511364,11.8181818 13.5056818,11.8636364 13.4375,11.8636364 L11.7329545,11.8636364 C11.6647727,11.8636364 11.6193182,11.8181818 11.6306818,11.75 L12.1420455,8.875 C12.1534091,8.82954545 12.1306818,8.80681818 12.0852273,8.80681818 L10.0397727,8.80681818 C10.0056818,8.80681818 9.98295455,8.82954545 9.97159091,8.875 L9.46022727,11.75 C9.44886364,11.8181818 9.41477273,11.8636364 9.34659091,11.8636364 L7.64204545,11.8636364 C7.57386364,11.8636364 7.52840909,11.8181818 7.53977273,11.75 Z M17.6420455,12 C16.0965909,12 15.0738636,11.1704545 15.0738636,9.56818182 C15.0738636,8.81818182 15.4147727,6.65909091 15.8352273,5.80681818 C16.4488636,4.54545455 17.5284091,4 18.8920455,4 C20.4375,4 21.4602273,4.82954545 21.4602273,6.43181818 C21.4602273,7.18181818 21.1193182,9.34090909 20.6988636,10.1931818 C20.0738636,11.4545455 18.9943182,12 17.6420455,12 Z M17.8693182,10.2840909 C18.3806818,10.2840909 18.7443182,10 18.9602273,9.54545455 C19.1761364,9.10227273 19.5170455,7.19318182 19.5170455,6.61363636 C19.5170455,6.06818182 19.2215909,5.71590909 18.6647727,5.71590909 C18.1534091,5.71590909 17.7897727,6 17.5738636,6.45454545 C17.3579545,6.89772727 17.0170455,8.80681818 17.0170455,9.38636364 C17.0170455,9.93181818 17.3125,10.2840909 17.8693182,10.2840909 Z M24.9829545,11.8636364 L23.2784091,11.8636364 C23.2215909,11.8636364 23.1761364,11.8181818 23.1875,11.75 L24.2215909,5.92045455 C24.2329545,5.875 24.2102273,5.85227273 24.1647727,5.85227273 L22.3352273,5.85227273 C22.2670455,5.85227273 22.2215909,5.80681818 22.2329545,5.73863636 L22.5056818,4.25 C22.5170455,4.18181818 22.5625,4.13636364 22.6306818,4.13636364 L28.3579545,4.13636364 C28.4261364,4.13636364 28.4715909,4.18181818 28.4602273,4.25 L28.1988636,5.73863636 C28.1875,5.80681818 28.1306818,5.85227273 28.0625,5.85227273 L26.2215909,5.85227273 C26.1761364,5.85227273 26.1534091,5.875 26.1420455,5.92045455 L25.1079545,11.75 C25.0965909,11.8181818 25.0511364,11.8636364 24.9829545,11.8636364 Z" fill="#FFFFFF" fill-rule="nonzero"></path>
                </g>
            </g>
        </g>
    </g>
</svg>