<?xml version="1.0" encoding="UTF-8"?>
<svg width="84px" height="84px" viewBox="0 0 84 84" version="1.1" xmlns="http://www.w3.org/2000/svg" xmlns:xlink="http://www.w3.org/1999/xlink">
    <!-- Generator: Sketch 52.2 (67145) - http://www.bohemiancoding.com/sketch -->
    <title>分组 83</title>
    <desc>Created with Sketch.</desc>
    <defs>
        <linearGradient x1="-37.7902339%" y1="-48.9199427%" x2="160.18049%" y2="210.026135%" id="linearGradient-1">
            <stop stop-color="#FDDD1C" offset="0%"></stop>
            <stop stop-color="#F87730" offset="100%"></stop>
        </linearGradient>
    </defs>
    <g id="页面-1" stroke="none" stroke-width="1" fill="none" fill-rule="evenodd">
        <g id="分组-83">
            <polygon id="星形" fill="url(#linearGradient-1)" fill-rule="nonzero" points="42 78.8867188 37.6098045 83.7699196 34.3308199 78.0806554 29.0212862 81.9443737 26.9968198 75.6976944 21 78.373067 20.3185307 71.8419823 13.8965145 73.2120827 14.5878258 66.6820325 8.02128624 66.6869806 10.0551645 60.4433594 3.63109078 59.082939 6.91864577 53.398623 0.917800769 50.732291 5.31535055 45.855712 0 42 5.31535055 38.144288 0.917800769 33.267709 6.91864577 30.601377 3.63109078 24.917061 10.0551645 23.5566406 8.02128624 17.3130194 14.5878258 17.3179675 13.8965145 10.7879173 20.3185307 12.1580177 21 5.62693304 26.9968198 8.30230564 29.0212862 2.05562632 34.3308199 5.91934456 37.6098045 0.230080395 42 5.11328125 46.3901955 0.230080395 49.6691801 5.91934456 54.9787138 2.05562632 57.0031802 8.30230564 63 5.62693304 63.6814693 12.1580177 70.1034855 10.7879173 69.4121742 17.3179675 75.9787138 17.3130194 73.9448355 23.5566406 80.3689092 24.917061 77.0813542 30.601377 83.0821992 33.267709 78.6846494 38.144288 84 42 78.6846494 45.855712 83.0821992 50.732291 77.0813542 53.398623 80.3689092 59.082939 73.9448355 60.4433594 75.9787138 66.6869806 69.4121742 66.6820325 70.1034855 73.2120827 63.6814693 71.8419823 63 78.373067 57.0031802 75.6976944 54.9787138 81.9443737 49.6691801 78.0806554 46.3901955 83.7699196"></polygon>
            <path d="M21.12,31.576 L22.88,31.576 L28.72,40.072 L28.784,40.072 L28.784,31.576 L30.528,31.576 L30.528,43 L28.832,43 L22.928,34.408 L22.864,34.408 L22.864,43 L21.12,43 L21.12,31.576 Z M36.432,34.504 C37.690673,34.504 38.6933296,34.9199958 39.44,35.752 C40.1866704,36.5840042 40.56,37.6239938 40.56,38.872 C40.56,40.130673 40.1920037,41.159996 39.456,41.96 C38.6773294,42.8026709 37.6693395,43.224 36.432,43.224 C35.1946605,43.224 34.1866706,42.8026709 33.408,41.96 C32.6719963,41.159996 32.304,40.130673 32.304,38.872 C32.304,37.6026603 32.6773296,36.5626707 33.424,35.752 C34.1813371,34.9199958 35.1839938,34.504 36.432,34.504 Z M36.432,35.896 C35.6426627,35.896 35.0346688,36.2053302 34.608,36.824 C34.2346648,37.3360026 34.048,38.0186624 34.048,38.872 C34.048,39.7146709 34.2346648,40.3919974 34.608,40.904 C35.0453355,41.5226698 35.6533294,41.832 36.432,41.832 C37.2000038,41.832 37.813331,41.5226698 38.272,40.904 C38.6560019,40.3599973 38.848,39.6826707 38.848,38.872 C38.848,38.0293291 38.6560019,37.3466693 38.272,36.824 C37.8239978,36.2053302 37.2106706,35.896 36.432,35.896 Z M43.392,40.712 C43.7440018,40.712 44.0266656,40.8186656 44.24,41.032 C44.4640011,41.2346677 44.576,41.506665 44.576,41.848 C44.576,42.1680016 44.4586678,42.4453322 44.224,42.68 C43.9893322,42.8933344 43.7120016,43 43.392,43 C43.0613317,43 42.7840011,42.8880011 42.56,42.664 C42.3359989,42.4399989 42.224,42.1680016 42.224,41.848 C42.224,41.506665 42.3359989,41.2346677 42.56,41.032 C42.7733344,40.8186656 43.050665,40.712 43.392,40.712 Z" id="No." fill="#FFFFFF"></path>
            <path d="M39.288,62.504 C38.7866642,62.4826666 38.3600018,62.2533355 38.008,61.816 C37.3679968,60.9839958 37.048,59.4106782 37.048,57.096 L37.048,55.128 L34.936,55.128 C34.9253333,56.3760062 34.7813347,57.495995 34.504,58.488 C35.1973368,59.0000026 35.8959965,59.6079965 36.6,60.312 L35.96,61.288 C35.426664,60.7439973 34.8133368,60.1786696 34.12,59.592 C33.5973307,60.8400062 32.8293384,61.863996 31.816,62.664 L30.968,61.912 C31.960005,61.1546629 32.7013309,60.1413397 33.192,58.872 C32.6799974,58.5093315 32.1626693,58.1786682 31.64,57.88 L32.248,56.984 C32.7493358,57.2826682 33.170665,57.5493322 33.512,57.784 C33.6933342,56.9733293 33.7946666,56.0880048 33.816,55.128 L31.96,55.128 L31.96,54.008 L33.816,54.008 L33.816,51.912 L34.936,51.912 L34.936,54.008 L38.184,54.008 L38.184,57.096 C38.184,58.9306758 38.3493317,60.1999965 38.68,60.904 C38.8080006,61.2133349 38.9359994,61.368 39.064,61.368 C39.1813339,61.368 39.2879995,61.1760019 39.384,60.792 C39.4800005,60.3759979 39.5439998,59.768004 39.576,58.968 L40.456,59.416 C40.3706662,60.8026736 40.2053346,61.6826648 39.96,62.056 C39.7573323,62.3546682 39.5333346,62.504 39.288,62.504 Z M25.992,53.944 L28.264,53.944 L28.264,51.864 L29.432,51.864 L29.432,53.944 L31.384,53.944 L31.384,55.064 L29.432,55.064 L29.432,57.496 C30.0186696,57.3359992 30.6479966,57.1493344 31.32,56.936 L31.32,58.056 C30.861331,58.1946674 30.232004,58.3653323 29.432,58.568 L29.432,61.112 C29.432,62.0400046 28.9840045,62.504 28.088,62.504 L26.6,62.504 L26.344,61.4 C26.8560026,61.4533336 27.3039981,61.48 27.688,61.48 C28.0720019,61.48 28.264,61.2613355 28.264,60.824 L28.264,58.856 L27.048,59.112 L25.832,59.352 L25.56,58.264 C26.3386706,58.1573328 27.2399949,57.9920011 28.264,57.768 L28.264,55.064 L25.992,55.064 L25.992,53.944 Z M28.76,63.48 C28.1946638,64.6960061 27.5173373,65.7679954 26.728,66.696 L25.784,66.008 C26.5413371,65.1866626 27.2133304,64.1893392 27.8,63.016 L28.76,63.48 Z M31.224,63.416 C31.5760018,64.3973382 31.8746654,65.3946616 32.12,66.408 L30.952,66.664 C30.7493323,65.5119942 30.477335,64.5040043 30.136,63.64 L31.224,63.416 Z M34.536,63.192 C35.0160024,64.1733382 35.4319982,65.234661 35.784,66.376 L34.632,66.632 C34.3119984,65.3946605 33.9173357,64.3280045 33.448,63.432 L34.536,63.192 Z M37.656,62.824 C38.5946714,63.9866725 39.3253307,65.0319954 39.848,65.96 L38.904,66.632 C38.3493306,65.6293283 37.6240045,64.557339 36.728,63.416 L37.656,62.824 Z M43.688,59.032 C44.9146728,59.4480021 46.0453282,59.9706635 47.08,60.6 L46.504,61.48 C45.437328,60.7866632 44.3173392,60.2373354 43.144,59.832 L43.688,59.032 Z M45.112,57.4 C46.3173394,57.7840019 47.4213283,58.2479973 48.424,58.792 L47.832,59.672 C46.7439946,59.0426635 45.6506722,58.557335 44.552,58.216 L45.112,57.4 Z M49.592,57.448 L50.696,57.448 L50.696,59.992 C50.6639998,60.6213365 50.5786674,61.1813309 50.44,61.672 L55.736,61.672 L55.736,62.776 L49.992,62.776 L49.832,63.032 L49.672,63.304 C51.7413437,63.9440032 53.6666578,64.7226621 55.448,65.64 L54.808,66.648 C52.9306573,65.581328 51.0000099,64.7280032 49.016,64.088 L48.904,64.184 L48.808,64.28 C47.6453275,65.2613382 45.7360133,66.0346638 43.08,66.6 L42.472,65.624 C45.1173466,65.1013307 46.9626614,64.402671 48.008,63.528 C48.2533346,63.3039989 48.4773323,63.0533347 48.68,62.776 L42.392,62.776 L42.392,61.672 L49.272,61.672 C49.4533342,61.1919976 49.5599998,60.6320032 49.592,59.992 L49.592,57.448 Z M42.568,55.784 L48.504,55.784 L48.504,54.248 L43.736,54.248 L43.736,53.208 L48.504,53.208 L48.504,51.944 L49.624,51.944 L49.624,53.208 L54.296,53.208 L54.296,54.248 L49.624,54.248 L49.624,55.784 L55.272,55.784 L55.272,56.488 C55.0373322,57.5120051 54.6960022,58.5893277 54.248,59.72 L53.16,59.416 C53.5226685,58.690663 53.837332,57.8266717 54.104,56.824 L42.568,56.824 L42.568,55.784 Z" id="热卖" fill="#FFFFFF"></path>
            <path d="M57.274,18.724 L57.274,43 L54.486,43 L54.486,22.124 C52.9899925,23.665341 51.0860116,24.7759966 48.774,25.456 L48.774,22.668 C49.8393387,22.3733319 50.9726607,21.8746702 52.174,21.172 C53.2846722,20.4919966 54.2593291,19.6760048 55.098,18.724 L57.274,18.724 Z" id="1" fill="#FFFFFF"></path>
        </g>
    </g>
</svg>