<?xml version="1.0" encoding="UTF-8"?>
<svg width="560px" height="250px" viewBox="0 0 560 250" version="1.1" xmlns="http://www.w3.org/2000/svg" xmlns:xlink="http://www.w3.org/1999/xlink">
    <!-- Generator: Sketch 52.6 (67491) - http://www.bohemiancoding.com/sketch -->
    <title>404</title>
    <desc>Created with Sketch.</desc>
    <defs>
        <linearGradient x1="50%" y1="100%" x2="50%" y2="-19.9707031%" id="linearGradient-1">
            <stop stop-color="#F9FAFC" stop-opacity="0" offset="0%"></stop>
            <stop stop-color="#EFF3F8" offset="100%"></stop>
        </linearGradient>
        <linearGradient x1="50%" y1="100%" x2="50%" y2="3.061617e-15%" id="linearGradient-2">
            <stop stop-color="#00D1FF" stop-opacity="0" offset="0%"></stop>
            <stop stop-color="#00A4FF" offset="100%"></stop>
        </linearGradient>
        <linearGradient x1="50%" y1="100%" x2="50%" y2="3.061617e-15%" id="linearGradient-3">
            <stop stop-color="#62809F" stop-opacity="0" offset="0%"></stop>
            <stop stop-color="#334966" offset="100%"></stop>
        </linearGradient>
        <polygon id="path-4" points="0 0.0004 31.9995007 0.0004 31.9995007 21.3333 0 21.3333"></polygon>
    </defs>
    <g id="404" stroke="none" stroke-width="1" fill="none" fill-rule="evenodd">
        <ellipse id="Oval-2-Copy-3" fill="url(#linearGradient-1)" fill-rule="nonzero" opacity="0.800000012" cx="280.5" cy="206" rx="277.5" ry="40"></ellipse>
        <rect id="Rectangle-Copy-18" opacity="0.1" fill-rule="nonzero" x="173" y="5" width="220" height="220"></rect>
        <circle id="Oval-Copy-14" fill="#00A4FF" fill-rule="nonzero" opacity="0.2" cx="203" cy="165" r="12"></circle>
        <path d="M210,166.5 C206.410149,166.5 203.5,163.589851 203.5,160 C203.5,156.410149 206.410149,153.5 210,153.5 C213.589851,153.5 216.5,156.410149 216.5,160 C216.5,163.589851 213.589851,166.5 210,166.5 Z M210,165.5 C213.037566,165.5 215.5,163.037566 215.5,160 C215.5,156.962434 213.037566,154.5 210,154.5 C206.962434,154.5 204.5,156.962434 204.5,160 C204.5,163.037566 206.962434,165.5 210,165.5 Z" id="Oval-Copy-6" fill="#334966" fill-rule="nonzero"></path>
        <circle id="Oval-Copy-6" stroke="#334966" fill-rule="nonzero" cx="37" cy="97" r="3"></circle>
        <circle id="Oval-Copy-16" fill="#F5F7FA" fill-rule="nonzero" cx="361" cy="39" r="20"></circle>
        <ellipse id="Oval-2-Copy-3" fill="#EFF3F8" fill-rule="nonzero" cx="289" cy="189" rx="55" ry="13"></ellipse>
        <g id="Group-15-Copy" transform="translate(195.000000, 73.000000)" fill="#334966" fill-rule="nonzero">
            <rect id="Rectangle-Copy-10" x="0" y="4" width="10" height="2" rx="1"></rect>
            <rect id="Rectangle-Copy-15" transform="translate(5.000000, 5.000000) rotate(90.000000) translate(-5.000000, -5.000000) " x="0" y="4" width="10" height="2" rx="1"></rect>
        </g>
        <path d="M336.999988,105.456883 C316.288041,93.1030044 295.913409,89.1825609 291.387246,96.7153612 C286.836083,104.289768 300.032379,120.576016 320.861998,133.091713 C322.581544,134.124921 324.299357,135.100133 326.006563,136.015622 C316.665134,147.580638 302.216874,155 286.001037,155 C257.833942,155 235,132.614237 235,105 C235,77.3857625 257.833942,55 286.001037,55 C308.351851,55 327.34462,69.0953053 334.235315,88.713514 C325.81438,87.1450636 318.055401,89.3976297 314.457409,95.2132128 C321.361637,97.3086443 329.156606,100.777438 337,105.455602 Z" id="Combined-Shape" fill="#00A4FF" fill-rule="nonzero" opacity="0.100000001"></path>
        <path d="M322.725654,134.270212 C314.108423,150.189773 297.277473,161 277.925355,161 C249.800058,161 227,138.166522 227,110 C227,81.8334778 249.800058,59 277.925355,59 C298.469103,59 316.171635,71.1825209 324.222744,88.727373 C323.551084,88.8711217 322.897416,89.0465811 322.264501,89.2535458 C314.46408,72.5623455 297.543007,61 277.925355,61 C250.903011,61 228.997073,82.9380473 228.997073,110 C228.997073,137.061953 250.903011,159 277.925355,159 C296.543109,159 312.732165,148.586266 321.001524,133.257845 C321.576593,133.601839 322.151414,133.939317 322.725654,134.270212 Z" id="Combined-Shape" fill="#334966" fill-rule="nonzero"></path>
        <path d="M284,60 C282.032065,59.7844273 280.029882,59.6735796 278,59.6735796 C275.970118,59.6735796 273.967935,59.7844273 272,60 L272,54 C274,54.2332226 276,54.3498339 278,54.3498339 C280,54.3498339 282,54.2332226 284,54 L284,60 Z M273,59.6082955 L283,59.6082955 L283,55.0465456 C281.3335,55.2052075 279.66679,55.2845498 278,55.2845498 C276.33321,55.2845498 274.6665,55.2052075 273,55.0465456 L273,59.6082955 Z M272,54.9418158 L272,54.8253505 L272.884271,54.0955174 C272.922847,54.0993529 272.961424,54.103145 273,54.1068937 L273,55.0465456 C272.666658,55.0148092 272.333324,54.9798992 272,54.9418158 Z" id="Combined-Shape" fill="#334966" fill-rule="nonzero"></path>
        <path d="M229.398429,84.6164236 C228.537736,84.6826285 227.683027,84.7701982 226.83483,84.8786032 L226.83483,78.6164236 C228.83483,78.8659353 230.83483,78.9906911 232.83483,78.9906911 C234.83483,78.9906911 236.83483,78.8659353 238.83483,78.6164236 L238.83483,84.7543879 C238.335694,84.7011638 237.834405,84.6551404 237.33107,84.6164236 L237.83483,84.6164236 L237.83483,79.7360638 C236.16833,79.9058073 234.501621,79.9906911 232.83483,79.9906911 C231.16804,79.9906911 229.501331,79.9058073 227.83483,79.7360638 L227.83483,84.6164236 L229.398429,84.6164236 Z M226.83483,79.6240194 L226.83483,79.4994197 L227.719101,78.7186123 C227.757677,78.7227156 227.796254,78.7267726 227.83483,78.7307831 L227.83483,79.7360638 C227.501488,79.7021108 227.168155,79.6647626 226.83483,79.6240194 Z" id="Combined-Shape" fill="#334966" fill-rule="nonzero" transform="translate(232.834830, 81.747513) rotate(-58.000000) translate(-232.834830, -81.747513) "></path>
        <path d="M236.66027,137.523165 C234.84072,137.326627 232.992482,137.22579 231.120693,137.22579 C228.932289,137.22579 226.776079,137.363626 224.66027,137.631088 L224.66027,130.888625 C226.66027,131.138137 228.66027,131.262893 230.66027,131.262893 C232.66027,131.262893 234.66027,131.138137 236.66027,130.888625 L236.66027,137.523165 Z M225.66027,136.888625 L235.66027,136.888625 L235.66027,132.008266 C233.993769,132.178009 232.32706,132.262893 230.66027,132.262893 C228.993479,132.262893 227.32677,132.178009 225.66027,132.008266 L225.66027,136.888625 Z M224.66027,131.896221 L224.66027,131.771621 L225.54454,130.990814 C225.583117,130.994917 225.621693,130.998974 225.66027,131.002985 L225.66027,132.008266 C225.326928,131.974313 224.993594,131.936964 224.66027,131.896221 Z" id="Combined-Shape-Copy-2" fill="#334966" fill-rule="nonzero" transform="translate(230.660270, 134.259857) rotate(-116.000000) translate(-230.660270, -134.259857) "></path>
        <circle id="Oval-Copy-19" fill="#FFFFFF" fill-rule="nonzero" cx="278" cy="110" r="44"></circle>
        <path d="M316.796791,130.600178 C309.416332,144.519915 294.789375,154 277.950707,154 C253.677402,154 234,134.300529 234,110 C234,85.699471 253.677402,66 277.950707,66 C295.622439,66 310.858205,76.4413097 317.838378,91.4977755 C317.560626,91.7003004 317.291278,91.912144 317.030788,92.1332706 C310.255069,77.3034945 295.304795,67 277.950707,67 C254.229068,67 234.99888,86.2517558 234.99888,110 C234.99888,133.748244 254.229068,153 277.950707,153 C294.441208,153 308.761183,143.696451 315.959235,130.046304 C316.236729,130.231501 316.515924,130.416138 316.796791,130.600178 Z" id="Combined-Shape" fill="#334966" fill-rule="nonzero"></path>
        <g id="Group-22" transform="translate(247.000000, 86.000000)" fill-rule="nonzero">
            <path d="M5,10 C7.76142375,10 10,7.76142375 10,5 C10,2.23857625 7.76142375,0 5,0 C2.23857625,0 0,2.23857625 0,5 C0,7.76142375 2.23857625,10 5,10 Z M5,11 C1.6862915,11 -1,8.3137085 -1,5 C-1,1.6862915 1.6862915,-1 5,-1 C8.3137085,-1 11,1.6862915 11,5 C11,8.3137085 8.3137085,11 5,11 Z" id="Oval" fill="#334966"></path>
            <path d="M1.61878632,9 C0.62127122,8.04888674 0,6.70885108 0,5.22416003 C0,2.33893612 2.34621658,0 5.24042141,0 C7.35054514,0 9.16937687,1.24329926 10,3.03514376 C9.15618915,2.52962673 8.16814892,2.23892573 7.11200049,2.23892573 C4.01106674,2.23892573 1.49726326,4.74492871 1.49726326,7.83624005 C1.49726326,8.23529059 1.53915242,8.62458777 1.61878632,9 Z" id="Combined-Shape" fill="#00A4FF" opacity="0.200000003"></path>
        </g>
        <g id="Group-21" transform="translate(280.000000, 76.000000)" fill-rule="nonzero">
            <path d="M7,14 C10.8659932,14 14,10.8659932 14,7 C14,3.13400675 10.8659932,0 7,0 C3.13400675,0 0,3.13400675 0,7 C0,10.8659932 3.13400675,14 7,14 Z M7,15 C2.581722,15 -1,11.418278 -1,7 C-1,2.581722 2.581722,-1 7,-1 C11.418278,-1 15,2.581722 15,7 C15,11.418278 11.418278,15 7,15 Z" id="Oval" fill="#334966"></path>
            <path d="M2.16232691,12.0593549 C0.829875729,10.7849313 -5.06261699e-14,8.9893796 -5.06261699e-14,7 C-5.06261699e-14,3.13400675 3.13400675,-7.10542736e-14 7,-7.10542736e-14 C9.8186409,-7.10542736e-14 12.2481826,1.6659319 13.3577044,4.06687509 C12.2305668,3.3895185 10.9107718,3 9.5,3 C5.35786438,3 2,6.35786438 2,10.5 C2,11.0346991 2.0559543,11.5563294 2.16232691,12.0593549 Z" id="Combined-Shape" fill="#00A4FF" opacity="0.200000003"></path>
        </g>
        <g id="Group-20" transform="translate(266.000000, 110.000000)" fill-rule="nonzero">
            <path d="M7,14 C10.8659932,14 14,10.8659932 14,7 C14,3.13400675 10.8659932,0 7,0 C3.13400675,0 0,3.13400675 0,7 C0,10.8659932 3.13400675,14 7,14 Z M7,15 C2.581722,15 -1,11.418278 -1,7 C-1,2.581722 2.581722,-1 7,-1 C11.418278,-1 15,2.581722 15,7 C15,11.418278 11.418278,15 7,15 Z" id="Oval" fill="#334966"></path>
            <path d="M2.16232691,12.0593549 C0.829875729,10.7849313 -5.06261699e-14,8.9893796 -5.06261699e-14,7 C-5.06261699e-14,3.13400675 3.13400675,-7.10542736e-14 7,-7.10542736e-14 C9.8186409,-7.10542736e-14 12.2481826,1.6659319 13.3577044,4.06687509 C12.2305668,3.3895185 10.9107718,3 9.5,3 C5.35786438,3 2,6.35786438 2,10.5 C2,11.0346991 2.0559543,11.5563294 2.16232691,12.0593549 Z" id="Combined-Shape" fill="#00A4FF" opacity="0.200000003"></path>
        </g>
        <g id="Group-16" transform="translate(243.000000, 117.000000)" fill-rule="nonzero">
            <path d="M6,12 C9.3137085,12 12,9.3137085 12,6 C12,2.6862915 9.3137085,0 6,0 C2.6862915,0 0,2.6862915 0,6 C0,9.3137085 2.6862915,12 6,12 Z M6,13 C2.13400675,13 -1,9.86599325 -1,6 C-1,2.13400675 2.13400675,-1 6,-1 C9.86599325,-1 13,2.13400675 13,6 C13,9.86599325 9.86599325,13 6,13 Z" id="Oval" fill="#334966"></path>
            <path d="M2.42627686,10.8200651 C0.954005248,9.72668916 -3.19744231e-14,7.97475451 -3.19744231e-14,6 C-3.19744231e-14,2.6862915 2.6862915,-2.66453526e-14 6,-2.66453526e-14 C7.97475451,-2.66453526e-14 9.72668916,0.954005248 10.8200651,2.42627686 C10.0994991,2.15086825 9.31736815,2 8.5,2 C4.91014913,2 2,4.91014913 2,8.5 C2,9.31736815 2.15086825,10.0994991 2.42627686,10.8200651 Z" id="Combined-Shape" fill="#00A4FF" opacity="0.200000003"></path>
        </g>
        <circle id="Oval-Copy-20" stroke="#334966" fill="#00A4FF" fill-rule="nonzero" cx="359" cy="161" r="4"></circle>
        <path d="M119.96,36.92 L143.5,36.92 L143.5,139.88 L166.82,139.88 L166.82,160.34 L143.5,160.34 L143.5,194 L119.08,194 L119.08,160.34 L43.18,160.34 L43.18,135.92 L119.96,36.92 Z M118.42,69.48 L64.08,139.88 L119.08,139.88 L119.08,69.48 L118.42,69.48 Z" id="4" fill="#ECF0F5"></path>
        <path d="M475.96,36.92 L499.5,36.92 L499.5,139.88 L522.82,139.88 L522.82,160.34 L499.5,160.34 L499.5,194 L475.08,194 L475.08,160.34 L399.18,160.34 L399.18,135.92 L475.96,36.92 Z M474.42,69.48 L420.08,139.88 L475.08,139.88 L475.08,69.48 L474.42,69.48 Z" id="4-copy-2" fill="#ECF0F5"></path>
        <rect id="Rectangle" fill="#334966" fill-rule="nonzero" transform="translate(347.471069, 90.748386) rotate(31.000000) translate(-347.471069, -90.748386) " x="346.471069" y="87.7483864" width="2" height="6"></rect>
        <path d="M332.498919,97.2195357 C334.728765,96.7698469 337.083479,96.5290518 339.517868,96.5290518 C353.601129,96.5290518 365.017868,104.587926 365.017868,114.529052 C365.017868,114.559325 365.017762,114.58958 365.017551,114.619818 C361.59205,113.705998 357.789421,112.968121 353.710354,112.442804 C351.130905,105.114834 342.968749,99.2887643 332.498919,97.2195357 Z" id="Combined-Shape" fill="#00A4FF" fill-rule="nonzero" opacity="0.200000003" transform="translate(348.758394, 105.574435) rotate(31.000000) translate(-348.758394, -105.574435) "></path>
        <path d="M340.337639,106.270111 C349.594871,106.270111 358.424372,107.308018 365.824991,109.209873 C365.401664,99.8458734 354.405013,92.270111 340.837639,92.270111 C327.401465,92.270111 316.471942,99.7041761 315.864277,108.956907 C323.058819,107.214636 331.505259,106.270111 340.337639,106.270111 Z M314.838775,109.595119 C314.971121,99.4075209 326.599044,91.270111 340.837639,91.270111 C355.167214,91.270111 366.837639,99.508058 366.837639,109.770111 C366.837584,109.81726 366.837584,109.81726 366.837309,109.864374 L366.83279,110.510539 L366.208444,110.343982 C358.766646,108.358734 349.779752,107.270111 340.337639,107.270111 C331.318518,107.270111 322.710965,108.263049 315.460687,110.086513 L314.830332,110.245049 L314.838775,109.595119 Z" id="Combined-Shape" fill="#334966" fill-rule="nonzero" transform="translate(340.833986, 100.890325) rotate(31.000000) translate(-340.833986, -100.890325) "></path>
        <ellipse id="Oval" fill="#00A4FF" fill-rule="nonzero" transform="translate(329.271828, 122.978615) rotate(31.000000) translate(-329.271828, -122.978615) " cx="329.271828" cy="122.978615" rx="43" ry="15"></ellipse>
        <path d="M320.165131,147.2078 C340.829113,146.11481 356.665131,139.891557 356.665131,132.378059 C356.665131,124.864562 340.829113,118.641309 320.165131,117.548319 C322.284951,117.436195 324.455579,117.378059 326.665131,117.378059 C350.413376,117.378059 369.665131,124.093788 369.665131,132.378059 C369.665131,140.662331 350.413376,147.378059 326.665131,147.378059 C324.455579,147.378059 322.284951,147.319924 320.165131,147.2078 Z" id="Combined-Shape" fill="#FFFFFF" fill-rule="nonzero" opacity="0.800000012" transform="translate(344.915131, 132.378059) rotate(31.000000) translate(-344.915131, -132.378059) "></path>
        <path d="M329.102608,135.877037 C304.538795,135.877037 284.602608,128.627514 284.602608,119.377037 C284.602608,110.126559 304.538795,102.877037 329.102608,102.877037 C353.66642,102.877037 373.602608,110.126559 373.602608,119.377037 C373.602608,128.627514 353.66642,135.877037 329.102608,135.877037 Z M329.102608,134.877037 C353.139853,134.877037 372.602608,127.799671 372.602608,119.377037 C372.602608,110.954402 353.139853,103.877037 329.102608,103.877037 C305.065362,103.877037 285.602608,110.954402 285.602608,119.377037 C285.602608,127.799671 305.065362,134.877037 329.102608,134.877037 Z" id="Oval" fill="#334966" fill-rule="nonzero" transform="translate(329.102608, 119.377037) rotate(31.000000) translate(-329.102608, -119.377037) "></path>
        <ellipse id="Oval" fill="#FFFFFF" fill-rule="nonzero" transform="translate(329.786866, 122.121447) rotate(31.000000) translate(-329.786866, -122.121447) " cx="329.786866" cy="122.121447" rx="15" ry="5"></ellipse>
        <ellipse id="Oval" stroke="#334966" fill-rule="nonzero" transform="translate(329.102608, 119.377037) rotate(31.000000) translate(-329.102608, -119.377037) " cx="329.102608" cy="119.377037" rx="15" ry="5"></ellipse>
        <polygon id="Rectangle" fill="url(#linearGradient-2)" fill-rule="nonzero" opacity="0.400000006" transform="translate(314.119755, 144.312690) rotate(31.000000) translate(-314.119755, -144.312690) " points="299.119755 115.31269 329.119755 115.31269 349.119755 173.31269 279.119755 173.31269"></polygon>
        <path d="M299.476233,115.81269 L279.821061,172.81269 L348.41845,172.81269 L328.763277,115.81269 L299.476233,115.81269 Z" id="Rectangle" stroke="url(#linearGradient-3)" opacity="0.400000006" fill-rule="nonzero" transform="translate(314.119755, 144.312690) rotate(31.000000) translate(-314.119755, -144.312690) "></path>
        <path d="M351.561298,89.6053826 C348.799874,89.6053826 346.561298,87.3668063 346.561298,84.6053826 C346.561298,81.8439588 348.799874,79.6053826 351.561298,79.6053826 C354.322722,79.6053826 356.561298,81.8439588 356.561298,84.6053826 C356.561298,87.3668063 354.322722,89.6053826 351.561298,89.6053826 Z M351.561298,87.6053826 C353.218152,87.6053826 354.561298,86.2622368 354.561298,84.6053826 C354.561298,82.9485283 353.218152,81.6053826 351.561298,81.6053826 C349.904444,81.6053826 348.561298,82.9485283 348.561298,84.6053826 C348.561298,86.2622368 349.904444,87.6053826 351.561298,87.6053826 Z" id="Oval" fill="#334966" fill-rule="nonzero" transform="translate(351.561298, 84.605383) rotate(31.000000) translate(-351.561298, -84.605383) "></path>
        <g id="Group-14" transform="translate(349.000000, 36.000000)" fill="#334966" fill-rule="nonzero">
            <circle id="Oval" cx="2" cy="21" r="2"></circle>
            <path d="M2,0 L2,0 C3.05656792,-1.94088378e-16 3.91308545,0.856517529 3.91308545,1.91308545 C3.91308545,1.94140998 3.9124564,1.96973102 3.91119877,1.99802761 L3.2,18 L0.8,18 L0.0888012272,1.99802761 C0.0418889634,0.942501677 0.859531896,0.0487989363 1.91505783,0.0018866725 C1.94335443,0.000629045922 1.97167547,5.203132e-18 2,0 Z" id="Rectangle"></path>
        </g>
        <g id="Group-3" transform="translate(377.000000, 14.000000)">
            <mask id="mask-5" fill="white">
                <use xlink:href="#path-4"></use>
            </mask>
            <g id="Clip-2"></g>
        </g>
        <path d="M394.334,14.5 C399.02556,14.5 402.832999,18.2483299 402.832999,22.875123 C402.832999,23.3624708 402.788367,23.8483221 402.701236,24.3320711 C404.454949,25.5938288 405.501026,27.6108394 405.499999,29.7658557 C405.499999,33.3549271 402.642975,36.3128813 398.999999,36.5 L379,36.5 C375.41227,36.5 372.5,33.6335191 372.5,30.0936577 C372.5,27.1956467 374.468267,24.6968899 377.237327,23.9302027 C377.688787,20.8053089 380.412286,18.4375615 383.666575,18.4375617 C384.729765,18.4366595 385.773078,18.6939777 386.706487,19.18326 C388.117752,16.3521646 391.051888,14.5 394.334,14.5 Z M401.832999,22.875123 C401.832999,18.8041472 398.476748,15.5 394.334,15.5 C391.261745,15.5 388.537622,17.3351916 387.393631,20.0845052 L387.164151,20.6360069 L386.661655,20.3130313 C385.771411,19.7408333 384.731409,19.4366584 383.667,19.4375615 C380.805814,19.4375615 378.434218,21.5934374 378.192117,24.3753701 L378.160227,24.7418116 L377.800907,24.820458 C375.303247,25.3671348 373.5,27.5503243 373.5,30.0936577 C373.5,33.0776559 375.961039,35.5 379,35.5 L398.97426,35.5006629 C402.063574,35.3414197 404.499999,32.8189233 404.499999,29.7656175 C404.500918,27.83724 403.514478,26.0373368 401.874757,24.9784635 L401.582825,24.7899441 L401.657763,24.4506093 C401.773584,23.92615 401.832999,23.4009101 401.832999,22.875123 Z" id="Fill-1" fill="#334966" fill-rule="nonzero"></path>
        <path d="M392.332999,22.875123 C392.332999,18.5260863 388.750999,15 384.334,15 C380.989,15 378.126,17.0229222 376.932,19.8924202 C375.961,19.2683167 374.827,18.9365771 373.667,18.9375615 C370.528,18.9375615 367.957,21.3099423 367.694,24.3320208 C365.009,24.9197019 363,27.2733793 363,30.0936577 C363,33.3559274 365.687,36 369,36 L388.999999,36 C392.341999,35.8277317 394.999999,33.0980172 394.999999,29.7658557 C395.000999,27.6671354 393.927999,25.709183 392.145999,24.5584306 C392.265999,24.0150471 392.332999,23.4529602 392.332999,22.875123 Z" id="Fill-1" fill="#00A4FF" opacity="0.200000003"></path>
    </g>
</svg>