<?xml version="1.0" encoding="UTF-8"?>
<svg width="18px" height="18px" viewBox="0 0 18 18" version="1.1" xmlns="http://www.w3.org/2000/svg" xmlns:xlink="http://www.w3.org/1999/xlink">
    <!-- Generator: Sketch 55.2 (78181) - https://sketchapp.com -->
    <title>质选商城</title>
    <desc>Created with Sketch.</desc>
    <g id="页面-1" stroke="none" stroke-width="1" fill="none" fill-rule="evenodd">
        <g id="01首页-copy-32备份-2" transform="translate(-1460.000000, -217.000000)">
            <g id="编组-21">
                <g id="编组-2" transform="translate(0.000000, 54.000000)">
                    <g id="编组-20">
                        <g id="编组-3" transform="translate(1217.000000, 156.000000)">
                            <g id="质选商城" transform="translate(243.000000, 7.000000)">
                                <rect id="矩形" fill="#FFFFFF" opacity="0" x="0" y="0" width="18" height="18"></rect>
                                <path d="M16.875,15.75 C16.875,16.6819805 16.1194805,17.4375 15.1875,17.4375 C14.2555195,17.4375 13.5,16.6819805 13.5,15.75 L6.94125009,15.75 C6.94125009,16.6819805 6.1857306,17.4375 5.25375009,17.4375 C4.32176957,17.4375 3.56625009,16.6819805 3.56625009,15.75 L3.5611016,15.75 L1.3111016,3.375 L0,3.375 L0,1.125 L3.1888984,1.125 L3.59798931,3.375 L18,3.375 L16.875,11.25 L5.16289954,11.9820063 L5.4388984,13.5 L16.875,13.5 L16.875,15.75 Z M4.00708022,5.625 L4.7576159,9.75294626 L14.9066379,9.11863239 L15.4057282,5.625 L4.00708022,5.625 Z" id="Combined-Shape" fill="#FFC92A" fill-rule="nonzero"></path>
                            </g>
                        </g>
                    </g>
                </g>
            </g>
        </g>
    </g>
</svg>