<?xml version="1.0" encoding="UTF-8"?>
<svg width="18px" height="18px" viewBox="0 0 18 18" version="1.1" xmlns="http://www.w3.org/2000/svg" xmlns:xlink="http://www.w3.org/1999/xlink">
    <!-- Generator: Sketch 55.2 (78181) - https://sketchapp.com -->
    <title>新手专区</title>
    <desc>Created with Sketch.</desc>
    <g id="页面-1" stroke="none" stroke-width="1" fill="none" fill-rule="evenodd">
        <g id="01首页-copy-32备份-2" transform="translate(-1217.000000, -217.000000)">
            <g id="编组-21">
                <g id="编组-2" transform="translate(0.000000, 54.000000)">
                    <g id="编组-20">
                        <g id="编组-3" transform="translate(1217.000000, 156.000000)">
                            <g id="新手专区" transform="translate(0.000000, 7.000000)">
                                <rect id="矩形" fill="#FFFFFF" opacity="0" x="0" y="0" width="18" height="18"></rect>
                                <path d="M1.125,14.0625 C1.125,11.4435 6.372,10.125 9,10.125 C11.628,10.125 16.875,11.4435 16.875,14.0625 L16.875,16.875 L1.125,16.875 L1.125,14.0625 Z M14.625,14.137875 C14.19975,13.45725 11.40075,12.375 9,12.375 C6.59925,12.375 3.80025,13.45725 3.375,14.137875 L3.375,14.625 L14.625,14.625 L14.625,14.137875 Z M9,9 C6.51375,9 4.5,6.98625 4.5,4.5 C4.5,2.01375 6.51375,0 9,0 C11.48625,0 13.5,2.01375 13.5,4.5 C13.5,6.98625 11.48625,9 9,9 Z M9,6.75 C10.2436093,6.75 11.25,5.74360931 11.25,4.5 C11.25,3.25639069 10.2436093,2.25 9,2.25 C7.75639069,2.25 6.75,3.25639069 6.75,4.5 C6.75,5.74360931 7.75639069,6.75 9,6.75 Z" id="Combined-Shape" fill="#FFC92A" fill-rule="nonzero"></path>
                            </g>
                        </g>
                    </g>
                </g>
            </g>
        </g>
    </g>
</svg>