<?xml version="1.0" encoding="UTF-8"?>
<svg width="48px" height="48px" viewBox="0 0 48 48" version="1.1" xmlns="http://www.w3.org/2000/svg" xmlns:xlink="http://www.w3.org/1999/xlink">
    <!-- Generator: Sketch 52.2 (67145) - http://www.bohemiancoding.com/sketch -->
    <title>EMR产品Logo_48x48</title>
    <desc>Created with Sketch.</desc>
    <g id="EMR产品Logo_48x48" stroke="none" stroke-width="1" fill="none" fill-rule="evenodd">
        <g id="大数据基础服务" transform="translate(0.000000, 3.000000)" fill-rule="nonzero">
            <g id="弹性MapReduce">
                <g id="Group-88" fill="#00A4FF">
                    <path d="M45,36 C43.7,36 42.6,36.8 42.2,38 L4,38 L4,12 L2,12 L2,38 L2,40 L4,40 L42.2,40 C42.6,41.2 43.7,42 45,42 C46.7,42 48,40.7 48,39 C48,37.3 46.7,36 45,36 Z" id="Shape"></path>
                    <path d="M5.8,4 L44,4 L44,30 L46,30 L46,4 L46,2 L44,2 L5.8,2 C5.4,0.8 4.3,0 3,0 C1.3,0 0,1.3 0,3 C0,4.7 1.3,6 3,6 C4.3,6 5.4,5.2 5.8,4 Z" id="Shape"></path>
                </g>
                <g id="Group-87" transform="translate(9.000000, 14.000000)">
                    <rect id="Rectangle-228" fill="#00A4FF" x="22" y="0" width="2" height="14"></rect>
                    <rect id="Rectangle-228-Copy-2" fill="#00A4FF" transform="translate(28.866025, 10.232051) rotate(-30.000000) translate(-28.866025, -10.232051) " x="27.8660254" y="6.23205081" width="2" height="8"></rect>
                    <rect id="Rectangle-228-Copy" fill="#00A4FF" x="0" y="0" width="2" height="14"></rect>
                    <rect id="Rectangle-42" fill="#00A4FF" x="0" y="0" width="8" height="2"></rect>
                    <rect id="Rectangle-42-Copy" fill="#00A4FF" x="0" y="6" width="8" height="2"></rect>
                    <rect id="Rectangle-42-Copy-2" fill="#00A4FF" x="0" y="12" width="8" height="2"></rect>
                    <polygon id="Rectangle-229" fill="#00A4FF" points="12 14 10 14 10 0 11.3904006 0 15 9.71392805 18.6063558 0.00709171964 20 0.00709171964 20 14 18 14 18 6.001 15 14 12 6.001"></polygon>
                    <path d="M23,1 L23,7 L27,7 C28.6568542,7 30,5.65685425 30,4 C30,2.34314575 28.6568542,1 27,1 L23,1 Z" id="Rectangle-230" stroke="#00A4FF" stroke-width="2"></path>
                </g>
            </g>
        </g>
    </g>
</svg>