<?xml version="1.0" encoding="UTF-8"?>
<svg width="48px" height="48px" viewBox="0 0 48 48" version="1.1" xmlns="http://www.w3.org/2000/svg" xmlns:xlink="http://www.w3.org/1999/xlink">
    <!-- Generator: Sketch 52.2 (67145) - http://www.bohemiancoding.com/sketch -->
    <title>Artboard</title>
    <desc>Created with Sketch.</desc>
    <g id="Artboard" stroke="none" stroke-width="1" fill="none" fill-rule="evenodd">
        <g id="CVM+(1)" fill="#00A4FF" fill-rule="nonzero">
            <path d="M24,45 C12.7888114,45.0131372 3.54439729,36.2174348 3.00015132,25.0194565 C2.45590536,13.8214782 10.8037832,4.17075239 21.9634051,3.09661979 C33.123027,2.02248719 43.1583928,9.90379451 44.76,21 L46.76,21 C45.1792623,8.98454458 34.5463556,0.257113101 22.4532775,1.04917544 C10.3601994,1.84123779 0.956491498,11.8810107 0.956491498,24 C0.956491498,36.1189893 10.3601994,46.1587622 22.4532775,46.9508246 C34.5463556,47.7428869 45.1792623,39.0154554 46.76,27 L44.76,27 C43.2700423,37.3227801 34.4297465,44.9877764 24,45 Z M35,18 L24,12 L13,18 L13,30 L17.09,32.23 C17.2000724,31.5822115 17.5197761,30.9884761 18,30.54 L15,28.9 L15,21 L24,26 L33,21 L33,28.9 L25,33.28 C24.6971344,33.1002468 24.3521724,33.0036575 24,33 C22.8954305,33 22,33.8954305 22,35 C22,36.1045695 22.8954305,37 24,37 C25.1045695,37 26,36.1045695 26,35 C26,35 26,34.92 26,34.88 L35,30 L35,18 Z M24,23.7 L15.32,18.9 L24,14.17 L32.66,18.89 L24,23.7 Z" id="Shape"></path>
        </g>
    </g>
</svg>