<?xml version="1.0" encoding="utf-8"?>
<!-- Generator: Adobe Illustrator 19.0.0, SVG Export Plug-In . SVG Version: 6.00 Build 0)  -->
<svg version="1.1" id="图层_1" xmlns="http://www.w3.org/2000/svg" xmlns:xlink="http://www.w3.org/1999/xlink" x="0px" y="0px"
	 width="16px" height="16px" viewBox="0 0 16 16" style="enable-background:new 0 0 16 16;" xml:space="preserve">
<g>
	<g id="XMLID_63_">
		<path id="XMLID_64_" style="fill-rule:evenodd;clip-rule:evenodd;fill:#777F89;" d="M3.006,7.517h7v-1h-7V7.517z M3.006,9.517h7
			v-1h-7V9.517z M14.995,1.483h-11c-0.552,0-1,0.448-1,1v1.034H1.005c-0.552,0-1,0.448-1,1v9c0,0.552,0.448,1,1,1h12
			c0.552,0,1-0.448,1-1v-2.034h0.989c0.552,0,1-0.448,1-1v-8C15.995,1.931,15.547,1.483,14.995,1.483z M13.005,13.017
			c0,0.276-0.224,0.5-0.5,0.5h-11c-0.276,0-0.5-0.224-0.5-0.5v-8c0-0.276,0.224-0.5,0.5-0.5h11c0.276,0,0.5,0.224,0.5,0.5V13.017z
			 M14.995,9.983c0,0.276-0.224,0.5-0.5,0.5h-0.489V4.517c0-0.552-0.448-1-1-1H3.995V2.983c0-0.276,0.224-0.499,0.5-0.499h10
			c0.276,0,0.5,0.224,0.5,0.499V9.983z M3.006,11.517h5v-1h-5V11.517z"/>
	</g>
</g>
</svg>
