<?xml version="1.0" encoding="utf-8"?>
<!-- Generator: Adobe Illustrator 19.0.0, SVG Export Plug-In . SVG Version: 6.00 Build 0)  -->
<svg version="1.1" id="图层_1" xmlns="http://www.w3.org/2000/svg" xmlns:xlink="http://www.w3.org/1999/xlink" x="0px" y="0px"
	 width="48px" height="48px" viewBox="0 0 48 48" style="enable-background:new 0 0 48 48;" xml:space="preserve">
<style type="text/css">
	.st0{fill-rule:evenodd;clip-rule:evenodd;fill:#00A4FF;}
	.st1{fill:#00A4FF;}
</style>
<g id="XMLID_14_">
	<rect id="XMLID_63_" x="4" y="34" class="st0" width="40" height="2"/>
	<g id="XMLID_68_">
		<path id="XMLID_70_" class="st1" d="M20.533,26.967c-0.259,0-0.519-0.066-0.75-0.2c-0.463-0.268-0.75-0.765-0.75-1.299v-10.77
			c0-0.534,0.287-1.032,0.75-1.299c0.464-0.268,1.038-0.267,1.5,0l0,0v0l9.327,5.384c0.462,0.267,0.749,0.765,0.75,1.298
			c0,0.534-0.287,1.032-0.749,1.299l-9.328,5.385C21.052,26.9,20.793,26.967,20.533,26.967z M21.033,15.564v9.038l7.827-4.519
			L21.033,15.564z"/>
	</g>
	<polygon id="XMLID_209_" class="st1" points="44,13 44,42 4,42 4,6 46,6 46,4 2,4 2,44 46,44 46,13 	"/>
</g>
</svg>
