<?xml version="1.0" encoding="UTF-8"?>
<svg width="35px" height="38px" viewBox="0 0 35 38" version="1.1" xmlns="http://www.w3.org/2000/svg" xmlns:xlink="http://www.w3.org/1999/xlink">
    <!-- Generator: Sketch 52.2 (67145) - http://www.bohemiancoding.com/sketch -->
    <title>分组 45</title>
    <desc>Created with Sketch.</desc>
    <g id="页面-1" stroke="none" stroke-width="1" fill="none" fill-rule="evenodd">
        <g id="01首页-copy-36" transform="translate(-1766.000000, -805.000000)">
            <g id="第三栏" transform="translate(0.000000, 700.000000)">
                <g id="三角形">
                    <g id="分组-48" transform="translate(1644.000000, 95.000000)">
                        <g id="分组-45" transform="translate(122.000000, 10.000000)">
                            <g id="daijinquan" transform="translate(0.000000, 6.000000)">
                                <path d="M0.336008943,18.5241455 C0.0632833031,18.003384 -0.0433787879,17.5873728 0.0158663501,17.2758541 C0.0750593816,16.9641293 0.406665413,16.6534354 1.01073655,16.343721 L4.75245521,14.425069 L12.3276521,28.884526 L10.7200611,29.7089189 C10.2961223,29.9262036 9.86968236,30.1388487 9.44105395,30.3464935 C9.01685459,30.5514576 8.7269859,30.6942521 8.57108313,30.7741551 C8.05491572,31.0631463 7.63926184,31.1662469 7.32401726,31.0834571 C7.00851215,31.0005126 6.70952481,30.6892001 6.42658629,30.1493135 L4.24504171,25.9850257 C4.13389845,25.7729992 4.08465777,25.5963877 4.09726755,25.4554491 C4.10987734,25.314459 4.21325672,25.1697056 4.4074578,25.0212922 C4.48540918,24.981186 4.57742934,24.8972621 4.68346615,24.7695719 C4.78971139,24.6416755 4.87803198,24.4802199 4.94889687,24.2851018 C5.01950124,24.0897261 5.05066095,23.865843 5.04211548,23.6135041 C5.03336158,23.3612167 4.95332593,23.0903712 4.80190432,22.8011739 C4.56945704,22.3577894 4.26598854,22.0732316 3.89108197,21.9473972 C3.51612329,21.8217175 3.18212036,21.8094485 2.88922949,21.9107449 C2.65454163,21.9822452 2.46586384,21.9995661 2.3229877,21.9627076 C2.18011156,21.9258491 2.05307581,21.8014066 1.94198467,21.5893801 L0.336008943,18.5241455 Z" id="路径" fill="#FDB647"></path>
                                <path d="M1.32280263,14.532603 L1.14100291,14.1856177 L1.12594412,14.1566464 L1.1106769,14.1278298 L0.928929282,13.780896 C0.727016432,13.3952479 0.691219238,12.9611425 0.821485593,12.4784252 C0.951960373,11.9957594 1.19232785,11.6644969 1.5432133,11.4846894 L5.57698913,9.41623211 L6.7890915,11.7297597 L1.32280263,14.532603 Z" id="路径" fill="#F08231"></path>
                                <path d="M28.43368,8.59204533 C28.2978904,8.7106111 28.2289013,8.85000321 28.2262439,9.01027321 C28.2237948,9.1705432 28.2628748,9.32782328 28.343692,9.48206188 C28.4245092,9.63630049 28.536851,9.7682178 28.6809776,9.87776227 C28.8248438,9.98730673 28.9899173,10.0312276 29.1761982,10.009061 C29.362427,9.98689433 29.5447999,10.0400427 29.7233169,10.1687639 C29.8999581,10.2950107 30.0477322,10.4567241 30.1574686,10.6431817 C30.268195,10.8310311 30.3396331,11.0265615 30.3721997,11.2301338 C30.4045578,11.4337576 30.3825689,11.6038737 30.3060244,11.7410492 C30.0375715,12.1721646 29.9789516,12.5323984 30.1305816,12.8215958 C30.2820032,13.1107416 30.6284596,13.3000345 31.1696382,13.3894227 C31.2779677,13.407156 31.4063582,13.4758211 31.5555913,13.5950055 C31.7045639,13.7142414 31.8193547,13.8509529 31.9001719,14.0051915 C31.9809892,14.1594817 32.012722,14.3144935 31.9954227,14.4701755 C31.9779149,14.6256514 31.8718781,14.7534962 31.6771038,14.8534007 L30.0986403,15.6628957 C29.981609,15.7229003 29.9131931,15.745634 29.8934448,15.7313545 C29.873488,15.7170235 29.8704658,15.6757833 29.884274,15.6076853 C29.8979259,15.5394326 29.9189249,15.4614885 29.9470103,15.3736983 C29.9753041,15.2859081 29.9884871,15.1932721 29.9870802,15.0962544 C29.9431023,14.7764361 29.8220067,14.5450782 29.623585,14.4023353 C29.4251112,14.2593347 29.1735408,14.1804111 28.8690302,14.165513 C28.6727969,14.1683483 28.4975626,14.1053023 28.3434836,13.9764264 C28.1894045,13.8473444 28.0719564,13.6936728 27.9907744,13.5153087 C27.9095403,13.3366867 27.8629049,13.164921 27.850712,12.9999599 C27.8385191,12.8350504 27.8755668,12.6936994 27.9622721,12.5759069 C28.0878489,12.4381644 28.1491262,12.2722238 28.1462603,12.0779306 C28.1433945,11.8837921 28.0966028,11.6999636 28.0056248,11.5263936 C27.9148552,11.3529782 27.8022529,11.208792 27.6679223,11.0942471 C27.5338,10.9796507 27.3931645,10.9234608 27.2458072,10.9254713 C27.0495739,10.9283066 26.867201,10.8751582 26.6986885,10.7658199 C26.5301238,10.6566363 26.3953763,10.5056454 26.2944459,10.312744 C26.1934634,10.1199973 26.1338536,9.91199169 26.1159289,9.68888183 C26.0977958,9.46577198 26.1462549,9.25132258 26.2610456,9.04568829 C26.3375901,8.90877059 26.3795359,8.75272773 26.3866224,8.57771433 C26.3939694,8.40295869 26.3620281,8.23578095 26.2909548,8.07654196 C26.2199336,7.91725142 26.1124899,7.78291125 25.9683632,7.67336678 C25.8244449,7.56361612 25.639623,7.50562199 25.4137412,7.4991782 C25.1682672,7.50263207 24.9539009,7.43535888 24.7701212,7.29720398 C24.5865498,7.15910063 24.4442468,6.9935725 24.3433165,6.80067114 C24.2421256,6.60792443 24.190019,6.40234169 24.1867884,6.18387136 C24.1837141,5.96540104 24.2348306,5.7678086 24.3400338,5.5916611 C24.5804012,5.24828431 24.6369889,4.91965091 24.5095884,4.60576091 C24.3823964,4.29202557 24.2140401,4.02984056 24.0048324,3.81899968 C23.8454385,3.65630682 23.6376376,3.54268988 23.3813776,3.47845816 C23.1251176,3.41402024 22.8606769,3.45190973 22.5877429,3.5918689 L8.55706647,10.7865431 L7.36002288,8.50183224 L23.8169362,0.0630421687 C23.9535074,-0.00680853714 24.095602,-0.0187166649 24.2435845,0.0278332889 C24.391515,0.0743316924 24.5154765,0.157482385 24.6154168,0.277336917 C24.7153572,0.3973461 24.7786666,0.542099445 24.805762,0.711648501 C24.8328053,0.881249108 24.8035214,1.04914855 24.7175978,1.21550149 C24.6510577,1.37195676 24.6144268,1.54975387 24.6074966,1.74894437 C24.6005665,1.94808332 24.6351652,2.13211802 24.7112929,2.30104847 C24.7874205,2.46982427 24.8977301,2.62122761 25.0420652,2.75515539 C25.1863482,2.88908316 25.3567366,2.95470674 25.5529177,2.95171682 C25.8279361,2.95754201 26.071951,3.03424891 26.2852752,3.18168287 C26.4983909,3.32906528 26.6581496,3.50402712 26.7642385,3.70641374 C26.8702753,3.90900657 26.9152433,4.12428077 26.8987776,4.35280341 C26.8824683,4.5813776 26.7971698,4.78412508 26.6426739,4.96114893 C26.4688986,5.1482251 26.3709904,5.3389098 26.3492099,5.53346077 C26.3276378,5.72796019 26.3573385,5.91462395 26.4385726,6.09303967 C26.5195462,6.27166158 26.6469988,6.4202812 26.8206178,6.53925938 C26.9940284,6.65808291 27.208551,6.7255623 27.4639773,6.7412336 C27.7194556,6.75695645 27.9414816,6.83871529 28.1303678,6.9865101 C28.3190456,7.13430491 28.4588996,7.30710164 28.5502944,7.50505493 C28.6414809,7.70280202 28.6862404,7.9059619 28.6844167,8.11479231 C28.6825929,8.32382893 28.5989098,8.48286171 28.43368,8.59204533 Z" id="路径" fill="#F08231"></path>
                                <path d="M24.4064175,10.1069035 C24.2028372,10.284546 24.0807516,10.487912 24.0397959,10.7166409 C23.9991007,10.9454213 24.0192659,11.1491998 24.1004479,11.3276155 C24.1814736,11.5062374 24.3211191,11.6546508 24.519176,11.7732681 C24.7173893,11.8918339 24.9437402,11.9347238 25.1985932,11.9019378 C25.4338543,11.8791525 25.6404567,11.9198257 25.8187653,12.0241636 C25.9970739,12.12845 26.136511,12.2648006 26.2370245,12.4333186 C26.3377986,12.6018882 26.3894883,12.7830877 26.3923541,12.9772262 C26.3951679,13.171571 26.338997,13.3471515 26.2234247,13.5042253 C25.8574284,13.9854993 25.7505578,14.3948605 25.9028132,14.7325667 C26.05486,15.070273 26.3764616,15.2355949 26.867201,15.2285325 C27.0829742,15.2158512 27.2875445,15.263793 27.480495,15.3727188 C27.6734456,15.4816447 27.822835,15.6252124 27.9286634,15.8034219 C28.0343355,15.9816314 28.0860252,16.1628824 28.0837846,16.3475357 C28.0817524,16.5319828 28.0080738,16.6981295 27.8629049,16.8459243 C27.6593768,17.0237214 27.5346337,17.2220871 27.4888321,17.4413823 C27.4430304,17.6604712 27.4607467,17.859404 27.5417202,18.0378197 C27.6229543,18.2164416 27.7625998,18.3650612 27.9606047,18.4834723 C28.1586617,18.6020381 28.4049693,18.659259 28.6994755,18.6550318 C28.8957087,18.6521966 29.070943,18.7152426 29.225022,18.8441185 C29.3791011,18.9729943 29.4868053,19.1195519 29.5480305,19.2836882 C29.6093078,19.4479791 29.6290562,19.6153631 29.6068588,19.7854792 C29.5848698,19.955853 29.495924,20.0809142 29.3400212,20.1608687 L14.0522745,28.0001284 L6.47707753,13.5406714 L21.9400585,5.61155953 C22.0960134,5.53160496 22.2505093,5.53181116 22.4039631,5.61217813 C22.5572084,5.69254511 22.6791377,5.80729615 22.7696989,5.95653438 C22.8603122,6.10572105 22.9071039,6.27748677 22.9097613,6.47162534 C22.9126272,6.66591856 22.8415538,6.83691102 22.6964371,6.98449964 C22.5515288,7.13229445 22.4607592,7.30127645 22.4241283,7.49113634 C22.3876537,7.68104778 22.4027125,7.86286582 22.4690963,8.0368482 C22.5354279,8.21062439 22.6577741,8.34975875 22.8358742,8.45409663 C23.0141828,8.55817676 23.2403252,8.58900386 23.5146661,8.54632018 C23.7304393,8.53343259 23.9323522,8.57673488 24.1201963,8.67602082 C24.3083009,8.77504902 24.4499265,8.90433726 24.5455941,9.0632154 C24.6412617,9.22209354 24.682999,9.39628213 24.6712229,9.58578116 C24.6591863,9.7754864 24.5710742,9.94905638 24.4064175,10.1069035 Z" id="路径" fill="#FDB647"></path>
                                <path d="M19.376909,15.6566581 C19.2794177,15.7065588 19.1721303,15.7494487 19.0548906,15.7851215 C18.9376509,15.8207428 18.8828869,15.7754301 18.8908592,15.6491833 C18.8902339,15.6006744 18.9120144,15.4182378 18.9563571,15.1018734 C19.0009603,14.7855089 19.0571312,14.4448128 19.1254949,14.0797333 C19.1937024,13.7144476 19.2549797,13.3711224 19.3091184,13.0499122 C19.3632571,12.7285474 19.3947816,12.5289961 19.4033791,12.4512582 C19.4200532,12.2470673 19.2655573,12.0938081 18.9400999,11.9917385 C18.8810632,11.9731803 18.7727858,11.9552924 18.615424,11.9381777 C18.4581144,11.9208567 18.320501,11.9180215 18.2028444,11.9295172 C18.0168241,11.9516839 17.8995843,11.9993679 17.8515421,12.0728787 C17.8037083,12.1463895 17.7662958,12.2756777 17.7396173,12.4605372 C17.7308634,12.5384298 17.7066338,12.728135 17.6669286,13.0298076 C17.6270671,13.3314286 17.5853298,13.6526388 17.5411434,13.9931287 C17.5012819,14.3024307 17.4593362,14.6113204 17.4149414,14.9200553 C17.3748715,15.1974992 17.3551231,15.3604498 17.3557484,15.4089587 C17.3571552,15.506028 17.2993691,15.5724764 17.1821294,15.6080977 C17.0646812,15.6437705 16.9663562,15.6330996 16.8869979,15.5758787 C16.8472927,15.5474745 16.7015507,15.4814385 16.4497719,15.3783378 C16.1979931,15.2750309 15.9236001,15.1528051 15.6270617,15.0114541 C15.3453738,14.876753 15.0611847,14.7472586 14.7745987,14.6230223 C14.5029152,14.505436 14.3176764,14.4230585 14.2187782,14.3759415 C13.8716966,14.1381398 13.6311206,14.1270565 13.49679,14.3426916 C13.4007055,14.4897131 13.3219725,14.6341056 13.26007,14.775869 C13.1983758,14.9176325 13.1338679,15.0422812 13.066911,15.150176 C12.9427411,15.3849878 13.0044353,15.5734558 13.2519413,15.7156317 C13.7851997,15.9313183 14.2643193,16.1380867 14.6893524,16.33604 C15.0451359,16.4959491 15.386069,16.6513734 15.7123601,16.8020035 C16.0383908,16.9526335 16.231185,17.0374338 16.290378,17.0559404 C16.3697884,17.1131613 16.3508216,17.1715163 16.2339987,17.2315209 L15.8833217,17.41138 C15.7858304,17.4612807 15.6470185,17.5386062 15.4668862,17.6433565 C15.2869623,17.747849 15.1139165,17.8304327 14.947853,17.8910043 C14.7919502,17.9709589 14.6854965,18.074472 14.628492,18.2015435 C14.571279,18.3286151 14.5926427,18.44017 14.6921662,18.5357959 C14.7520366,18.6028629 14.8224325,18.713593 14.9032498,18.8678832 L15.0849974,19.2148169 C15.1354886,19.3112676 15.1924932,19.3493118 15.256011,19.3290009 C15.3194768,19.3084324 15.3903417,19.2784301 15.4682931,19.2383755 L17.1635794,18.3690821 C17.3974336,18.2492791 17.5397366,18.237371 17.5902278,18.3338217 L17.8780122,18.8831421 C17.9285035,18.9796443 17.9341831,19.0377931 17.8953116,19.0577431 L17.7491528,19.1328519 L17.4568872,19.2826572 L16.8720954,19.5825255 L15.9368351,20.0622014 C15.8098515,20.1028746 15.7469589,20.1717458 15.7483658,20.2687636 C15.7497726,20.3658329 15.766082,20.4677479 15.7970333,20.5740447 C15.8281409,20.680393 15.8759747,20.771998 15.9408994,20.8487049 C16.0058242,20.9254633 16.053658,20.9928912 16.0837756,21.0506791 C16.2150841,21.3014199 16.4074093,21.3616307 16.6608555,21.2317239 L18.4147617,20.3324282 C18.5120446,20.282476 18.5782199,20.2669593 18.6128187,20.2858783 C18.6474174,20.3048488 18.6899364,20.3624305 18.7404276,20.4588812 C18.8104588,20.5452796 18.9062827,20.7162205 19.0277952,20.9719617 C19.1493076,21.2274967 19.2303333,21.3938497 19.2708722,21.470969 C19.3817549,21.6829955 19.5641278,21.7240811 19.8173656,21.5941743 L20.7528344,21.1145499 C20.9087371,21.0345954 20.9614689,20.9465989 20.9107693,20.8501483 L20.3048223,19.6932556 C20.2038919,19.5005605 20.2409397,19.3592094 20.4163824,19.2692026 L20.6795726,19.1342953 C20.8159354,19.0643931 20.9643348,18.9820156 21.1249272,18.8875754 C21.2855195,18.792929 21.4438713,18.7057574 21.5997741,18.6258028 L21.9797871,18.430891 C22.2525127,18.2909318 22.3384364,18.1246304 22.2374539,17.9318837 L21.9040763,17.2955979 C21.8133067,17.1221826 21.6703784,17.0853241 21.4753958,17.1852287 L19.7801094,18.054522 C19.6054483,18.1930893 19.4878438,18.2045335 19.4271918,18.0887514 C19.3968137,18.0309635 19.3540863,17.961319 19.2989576,17.8795601 C19.2468511,17.802647 19.1988088,17.7231049 19.1554562,17.6411398 C19.1151257,17.5640205 19.1189816,17.4887055 19.1668154,17.4151947 C19.2136592,17.3429211 19.2787924,17.2841022 19.3559101,17.2448208 L21.0805324,16.3606295 C21.2753066,16.2605187 21.3374176,16.1431386 21.2667612,16.0082314 L20.9030575,15.3141061 C20.862727,15.237193 20.7882668,15.1773946 20.6795726,15.135278 C20.5710867,15.0932129 20.4678637,15.0970276 20.3705808,15.1469799 L19.376909,15.6566581 Z" id="路径" fill="#FFFFFF"></path>
                            </g>
                            <rect id="矩形备份" fill="#34A4FC" fill-rule="nonzero" transform="translate(15.053326, 3.806950) rotate(-92.000000) translate(-15.053326, -3.806950) " x="12.1366595" y="2.55695026" width="5.83333333" height="2.5"></rect>
                            <rect id="矩形" fill="#29CC85" fill-rule="nonzero" transform="translate(31.493402, 4.356695) rotate(-44.000000) translate(-31.493402, -4.356695) " x="28.3684024" y="3.10669533" width="6.25" height="2.5"></rect>
                            <rect id="矩形备份-3" fill="#F56123" fill-rule="nonzero" transform="translate(30.374198, 34.000907) scale(1, -1) rotate(-23.000000) translate(-30.374198, -34.000907) " x="27.6241984" y="32.9009074" width="5.5" height="2.2"></rect>
                        </g>
                    </g>
                </g>
            </g>
        </g>
    </g>
</svg>