<?xml version="1.0" encoding="UTF-8"?>
<svg width="22px" height="22px" viewBox="0 0 22 22" version="1.1" xmlns="http://www.w3.org/2000/svg" xmlns:xlink="http://www.w3.org/1999/xlink">
    <!-- Generator: Sketch 52.2 (67145) - http://www.bohemiancoding.com/sketch -->
    <title>切片</title>
    <desc>Created with Sketch.</desc>
    <g id="视觉文件_列表页" stroke="none" stroke-width="1" fill="none" fill-rule="evenodd">
        <g id="分组-2" transform="translate(-61.000000, -3.000000)" fill="#FF9D00">
            <g id="star-icon-copy-30" transform="translate(100.317073, 14.048780) scale(-1, -1) rotate(-180.000000) translate(-100.317073, -14.048780) translate(61.317073, 3.048780)">
                <path d="M11.8988997,2.2193593 L14.1522648,7.6358885 L19.6247215,7.77891612 C20.1768177,7.79334566 20.6126827,8.25260552 20.5982532,8.80470174 C20.5915613,9.06074138 20.4868812,9.30445303 20.3057963,9.48558655 L16.115331,13.6771777 L17.9847997,19.4060896 C18.1561308,19.9311268 17.8693953,20.4956449 17.344358,20.6669759 C17.0689348,20.7568526 16.76807,20.7228629 16.5196399,20.5738049 L10.9756098,17.2473868 L5.4315796,20.5738049 C4.95799933,20.857953 4.34373908,20.7043879 4.05959092,20.2308077 C3.91053289,19.9823776 3.87654321,19.6815128 3.96641982,19.4060896 L5.8358885,13.6771777 L1.64542321,9.48558655 C1.25495138,9.09500981 1.25503643,8.46184483 1.64561317,8.071373 C1.82674669,7.89028813 2.07045834,7.78560795 2.32649798,7.77891612 L7.7989547,7.6358885 L10.0523198,2.2193593 C10.2644545,1.70944035 10.8497946,1.46803849 11.3597135,1.68017315 C11.6036013,1.78163449 11.7974383,1.97547148 11.8988997,2.2193593 Z" id="Path"></path>
            </g>
        </g>
    </g>
</svg>