<?xml version="1.0" encoding="utf-8"?>
<!-- Generator: Adobe Illustrator 19.0.0, SVG Export Plug-In . SVG Version: 6.00 Build 0)  -->
<svg version="1.1" id="图层_1" xmlns="http://www.w3.org/2000/svg" xmlns:xlink="http://www.w3.org/1999/xlink" x="0px" y="0px"
	 width="16px" height="16px" viewBox="0 0 16 16" style="enable-background:new 0 0 16 16;" xml:space="preserve">
<style type="text/css">
	.st0{fill-rule:evenodd;clip-rule:evenodd;fill:#00a4ff;}
</style>
<g id="XMLID_2_">
	<g id="XMLID_70_">
		<path id="XMLID_71_" class="st0" d="M11.1,4.9c-0.3-0.2-0.6-0.1-0.8,0.2c-0.2,0.3-0.1,0.6,0.2,0.8c0.9,0.4,1.4,1.4,1.2,2.4
			c-0.1,0.9-0.5,1.6-1.3,2c-0.3,0.1-0.3,0.4-0.2,0.7c0.1,0.3,0.5,0.4,0.7,0.2c1.1-0.5,1.8-1.6,2-2.9C13.1,6.9,12.3,5.6,11.1,4.9z
			 M4,4.1l-4,0l0,8l4,0l3,3l2,0l0-14l-2,0L4,4.1z M8,2.1v12l-0.4,0l-3-3H1l0-6l3.6,0l3-3H8z M15.1,0.7L14.4,0L13,1.4l0.7,0.7
			L15.1,0.7z M13,13.7l1.3,1.3l0.7-0.7l-1.3-1.3L13,13.7z M14,7.1v1h2v-1H14z"/>
	</g>
</g>
</svg>
