<svg id="图层_1" xmlns="http://www.w3.org/2000/svg" width="48" height="48" viewBox="0 0 48 48"><style>.st0{fill-rule:evenodd;clip-rule:evenodd;fill:url(#XMLID_2_)}</style><g id="XMLID_8_"><g id="XMLID_72_"><linearGradient id="XMLID_2_" gradientUnits="userSpaceOnUse" x1="40.971" y1="40.971" x2="7.029" y2="7.029"><stop offset="0" stop-color="#006eff"/><stop offset="1" stop-color="#00c8dc"/></linearGradient><path id="XMLID_73_" class="st0" d="M24 0C10.7 0 0 10.7 0 24s10.7 24 24 24 24-10.7 24-24S37.3 0 24 0zm0 46C11.8 46 2 36.2 2 24S11.8 2 24 2s22 9.8 22 22-9.8 22-22 22zm8-20h-3.8c-.5 0-.7.1-.9.2l-2.8 2.1c-.3.2-.7.3-1 .1-1.6-.9-2.9-2.2-3.8-3.8-.2-.3-.1-.7.1-1l2.1-2.9c.1-.2.2-.4.2-.6V16c0-1.1-.9-2-2-2h-6c-1.1 0-2 .9-2 2.1.5 13.4 5.7 19.4 19.9 19.9 1.1 0 2.1-.8 2.1-2v-6c-.1-1.1-1-2-2.1-2zm0 7c0 .6-.5 1-1 1-12-.6-16.4-5-17-17 0-.6.4-1 1-1h4c.6 0 1 .4 1 1v2.7c0 .2-.1.4-.2.6L17.9 23c-.4.6-.5 1.3-.1 1.9 1.2 2.3 3.1 4.2 5.4 5.4.6.3 1.4.3 2-.2l2.6-1.9c.2-.1.4-.2.6-.2H31c.6 0 1 .4 1 1v4zm-5.4-10.2l4.4-4.4V22h2v-7h-7v2h3.6l-4.4 4.4 1.4 1.4z"/></g></g></svg>