<?xml version="1.0" encoding="UTF-8"?>
<svg width="560px" height="250px" viewBox="0 0 560 250" version="1.1" xmlns="http://www.w3.org/2000/svg" xmlns:xlink="http://www.w3.org/1999/xlink">
    <!-- Generator: Sketch 52.6 (67491) - http://www.bohemiancoding.com/sketch -->
    <title>403</title>
    <desc>Created with Sketch.</desc>
    <defs>
        <linearGradient x1="50%" y1="100%" x2="50%" y2="-19.9707031%" id="linearGradient-1">
            <stop stop-color="#F9FAFC" stop-opacity="0" offset="0%"></stop>
            <stop stop-color="#EFF3F8" offset="100%"></stop>
        </linearGradient>
        <linearGradient x1="50%" y1="100%" x2="50%" y2="3.061617e-15%" id="linearGradient-2">
            <stop stop-color="#00D1FF" stop-opacity="0" offset="0%"></stop>
            <stop stop-color="#00A4FF" offset="100%"></stop>
        </linearGradient>
        <linearGradient x1="50%" y1="100%" x2="50%" y2="3.061617e-15%" id="linearGradient-3">
            <stop stop-color="#62809F" stop-opacity="0" offset="0%"></stop>
            <stop stop-color="#334966" offset="100%"></stop>
        </linearGradient>
        <polygon id="path-4" points="0 0.0004 31.9995007 0.0004 31.9995007 21.3333 0 21.3333"></polygon>
    </defs>
    <g id="403" stroke="none" stroke-width="1" fill="none" fill-rule="evenodd">
        <g id="Group-23" transform="translate(3.000000, 5.000000)">
            <ellipse id="Oval-2-Copy-3" fill="url(#linearGradient-1)" fill-rule="nonzero" opacity="0.800000012" cx="277.5" cy="201" rx="277.5" ry="40"></ellipse>
            <rect id="Rectangle-Copy-18" opacity="0.1" fill-rule="nonzero" x="170" y="0" width="220" height="220"></rect>
            <circle id="Oval-Copy-14" fill="#00A4FF" fill-rule="nonzero" opacity="0.2" cx="200" cy="160" r="12"></circle>
            <circle id="Oval-Copy-6" stroke="#334966" fill-rule="nonzero" cx="207" cy="155" r="6"></circle>
            <circle id="Oval-Copy-6" stroke="#334966" fill-rule="nonzero" cx="34" cy="92" r="3"></circle>
            <circle id="Oval-Copy-16" fill="#F5F7FA" fill-rule="nonzero" cx="358" cy="34" r="20"></circle>
            <ellipse id="Oval-2-Copy-3" fill="#EFF3F8" fill-rule="nonzero" cx="286" cy="184" rx="55" ry="13"></ellipse>
            <g id="Group-15-Copy" transform="translate(192.000000, 68.000000)" fill="#334966" fill-rule="nonzero">
                <rect id="Rectangle-Copy-10" x="0" y="4" width="10" height="2" rx="1"></rect>
                <rect id="Rectangle-Copy-15" transform="translate(5.000000, 5.000000) rotate(90.000000) translate(-5.000000, -5.000000) " x="0" y="4" width="10" height="2" rx="1"></rect>
            </g>
            <path d="M333.999988,100.456883 C313.288041,88.1030044 292.913409,84.1825609 288.387246,91.7153612 C283.836083,99.2897681 297.032379,115.576016 317.861998,128.091713 C319.581544,129.124921 321.299357,130.100133 323.006563,131.015622 C313.665134,142.580638 299.216874,150 283.001037,150 C254.833942,150 232,127.614237 232,100 C232,72.3857625 254.833942,50 283.001037,50 C305.351851,50 324.34462,64.0953053 331.235315,83.713514 C322.81438,82.1450636 315.055401,84.3976297 311.457409,90.2132128 C318.361637,92.3086443 326.156606,95.7774384 334,100.455602 Z" id="Combined-Shape" fill="#00A4FF" fill-rule="nonzero" opacity="0.100000001"></path>
            <path d="M319.725654,129.270212 C311.108423,145.189773 294.277473,156 274.925355,156 C246.800058,156 224,133.166522 224,105 C224,76.8334778 246.800058,54 274.925355,54 C295.469103,54 313.171635,66.1825209 321.222744,83.727373 C320.551084,83.8711217 319.897416,84.0465811 319.264501,84.2535458 C311.46408,67.5623455 294.543007,56 274.925355,56 C247.903011,56 225.997073,77.9380473 225.997073,105 C225.997073,132.061953 247.903011,154 274.925355,154 C293.543109,154 309.732165,143.586266 318.001524,128.257845 C318.576593,128.601839 319.151414,128.939317 319.725654,129.270212 Z" id="Combined-Shape" fill="#334966" fill-rule="nonzero"></path>
            <path d="M281,55 C279.032065,54.7844273 277.029882,54.6735796 275,54.6735796 C272.970118,54.6735796 270.967935,54.7844273 269,55 L269,49 C271,49.2332226 273,49.3498339 275,49.3498339 C277,49.3498339 279,49.2332226 281,49 L281,55 Z M270,54.6082955 L280,54.6082955 L280,50.0465456 C278.3335,50.2052075 276.66679,50.2845498 275,50.2845498 C273.33321,50.2845498 271.6665,50.2052075 270,50.0465456 L270,54.6082955 Z M269,49.9418158 L269,49.8253505 L269.884271,49.0955174 C269.922847,49.0993529 269.961424,49.103145 270,49.1068937 L270,50.0465456 C269.666658,50.0148092 269.333324,49.9798992 269,49.9418158 Z" id="Combined-Shape" fill="#334966" fill-rule="nonzero"></path>
            <path d="M226.398429,79.6164236 C225.537736,79.6826285 224.683027,79.7701982 223.83483,79.8786032 L223.83483,73.6164236 C225.83483,73.8659353 227.83483,73.9906911 229.83483,73.9906911 C231.83483,73.9906911 233.83483,73.8659353 235.83483,73.6164236 L235.83483,79.7543879 C235.335694,79.7011638 234.834405,79.6551404 234.33107,79.6164236 L234.83483,79.6164236 L234.83483,74.7360638 C233.16833,74.9058073 231.501621,74.9906911 229.83483,74.9906911 C228.16804,74.9906911 226.501331,74.9058073 224.83483,74.7360638 L224.83483,79.6164236 L226.398429,79.6164236 Z M223.83483,74.6240194 L223.83483,74.4994197 L224.719101,73.7186123 C224.757677,73.7227156 224.796254,73.7267726 224.83483,73.7307831 L224.83483,74.7360638 C224.501488,74.7021108 224.168155,74.6647626 223.83483,74.6240194 Z" id="Combined-Shape" fill="#334966" fill-rule="nonzero" transform="translate(229.834830, 76.747513) rotate(-58.000000) translate(-229.834830, -76.747513) "></path>
            <path d="M233.66027,132.523165 C231.84072,132.326627 229.992482,132.22579 228.120693,132.22579 C225.932289,132.22579 223.776079,132.363626 221.66027,132.631088 L221.66027,125.888625 C223.66027,126.138137 225.66027,126.262893 227.66027,126.262893 C229.66027,126.262893 231.66027,126.138137 233.66027,125.888625 L233.66027,132.523165 Z M222.66027,131.888625 L232.66027,131.888625 L232.66027,127.008266 C230.993769,127.178009 229.32706,127.262893 227.66027,127.262893 C225.993479,127.262893 224.32677,127.178009 222.66027,127.008266 L222.66027,131.888625 Z M221.66027,126.896221 L221.66027,126.771621 L222.54454,125.990814 C222.583117,125.994917 222.621693,125.998974 222.66027,126.002985 L222.66027,127.008266 C222.326928,126.974313 221.993594,126.936964 221.66027,126.896221 Z" id="Combined-Shape-Copy-2" fill="#334966" fill-rule="nonzero" transform="translate(227.660270, 129.259857) rotate(-116.000000) translate(-227.660270, -129.259857) "></path>
            <circle id="Oval-Copy-19" fill="#FFFFFF" fill-rule="nonzero" cx="275" cy="105" r="44"></circle>
            <path d="M313.796791,125.600178 C306.416332,139.519915 291.789375,149 274.950707,149 C250.677402,149 231,129.300529 231,105 C231,80.699471 250.677402,61 274.950707,61 C292.622439,61 307.858205,71.4413097 314.838378,86.4977755 C314.560626,86.7003004 314.291278,86.912144 314.030788,87.1332706 C307.255069,72.3034945 292.304795,62 274.950707,62 C251.229068,62 231.99888,81.2517558 231.99888,105 C231.99888,128.748244 251.229068,148 274.950707,148 C291.441208,148 305.761183,138.696451 312.959235,125.046304 C313.236729,125.231501 313.515924,125.416138 313.796791,125.600178 Z" id="Combined-Shape" fill="#334966" fill-rule="nonzero"></path>
            <g id="Group-22" transform="translate(244.000000, 81.000000)" fill-rule="nonzero">
                <circle id="Oval" stroke="#334966" cx="5" cy="5" r="5.5"></circle>
                <path d="M1.61878632,9 C0.62127122,8.04888674 0,6.70885108 0,5.22416003 C0,2.33893612 2.34621658,0 5.24042141,0 C7.35054514,0 9.16937687,1.24329926 10,3.03514376 C9.15618915,2.52962673 8.16814892,2.23892573 7.11200049,2.23892573 C4.01106674,2.23892573 1.49726326,4.74492871 1.49726326,7.83624005 C1.49726326,8.23529059 1.53915242,8.62458777 1.61878632,9 Z" id="Combined-Shape" fill="#00A4FF" opacity="0.200000003"></path>
            </g>
            <g id="Group-21" transform="translate(277.000000, 71.000000)" fill-rule="nonzero">
                <circle id="Oval" stroke="#334966" cx="7" cy="7" r="7.5"></circle>
                <path d="M2.16232691,12.0593549 C0.829875729,10.7849313 -5.06261699e-14,8.9893796 -5.06261699e-14,7 C-5.06261699e-14,3.13400675 3.13400675,-7.10542736e-14 7,-7.10542736e-14 C9.8186409,-7.10542736e-14 12.2481826,1.6659319 13.3577044,4.06687509 C12.2305668,3.3895185 10.9107718,3 9.5,3 C5.35786438,3 2,6.35786438 2,10.5 C2,11.0346991 2.0559543,11.5563294 2.16232691,12.0593549 Z" id="Combined-Shape" fill="#00A4FF" opacity="0.200000003"></path>
            </g>
            <g id="Group-20" transform="translate(263.000000, 105.000000)" fill-rule="nonzero">
                <circle id="Oval" stroke="#334966" cx="7" cy="7" r="7.5"></circle>
                <path d="M2.16232691,12.0593549 C0.829875729,10.7849313 -5.06261699e-14,8.9893796 -5.06261699e-14,7 C-5.06261699e-14,3.13400675 3.13400675,-7.10542736e-14 7,-7.10542736e-14 C9.8186409,-7.10542736e-14 12.2481826,1.6659319 13.3577044,4.06687509 C12.2305668,3.3895185 10.9107718,3 9.5,3 C5.35786438,3 2,6.35786438 2,10.5 C2,11.0346991 2.0559543,11.5563294 2.16232691,12.0593549 Z" id="Combined-Shape" fill="#00A4FF" opacity="0.200000003"></path>
            </g>
            <g id="Group-16" transform="translate(240.000000, 112.000000)" fill-rule="nonzero">
                <circle id="Oval" stroke="#334966" cx="6" cy="6" r="6.5"></circle>
                <path d="M2.42627686,10.8200651 C0.954005248,9.72668916 -3.19744231e-14,7.97475451 -3.19744231e-14,6 C-3.19744231e-14,2.6862915 2.6862915,-2.66453526e-14 6,-2.66453526e-14 C7.97475451,-2.66453526e-14 9.72668916,0.954005248 10.8200651,2.42627686 C10.0994991,2.15086825 9.31736815,2 8.5,2 C4.91014913,2 2,4.91014913 2,8.5 C2,9.31736815 2.15086825,10.0994991 2.42627686,10.8200651 Z" id="Combined-Shape" fill="#00A4FF" opacity="0.200000003"></path>
            </g>
            <circle id="Oval-Copy-20" stroke="#334966" fill="#00A4FF" fill-rule="nonzero" cx="356" cy="156" r="4"></circle>
            <path d="M116.96,31.92 L140.5,31.92 L140.5,134.88 L163.82,134.88 L163.82,155.34 L140.5,155.34 L140.5,189 L116.08,189 L116.08,155.34 L40.18,155.34 L40.18,130.92 L116.96,31.92 Z M115.42,64.48 L61.08,134.88 L116.08,134.88 L116.08,64.48 L115.42,64.48 Z" id="4" fill="#ECF0F5"></path>
            <path d="M459.54,28.84 C475.673414,28.84 488.506619,32.6532952 498.04,40.28 C507.573381,48.0533722 512.34,58.6865992 512.34,72.18 C512.34,89.3400858 503.613421,100.779971 486.16,106.5 C495.693381,109.433348 502.806643,113.686639 507.5,119.26 C512.780026,125.126696 515.42,132.753286 515.42,142.14 C515.42,156.660073 510.360051,168.539954 500.24,177.78 C489.53328,187.313381 475.673418,192.08 458.66,192.08 C442.379919,192.08 429.253383,187.900042 419.28,179.54 C408.279945,170.299954 402.120007,156.806755 400.8,139.06 L426.98,139.06 C427.420002,149.326718 430.646637,157.173306 436.66,162.6 C442.233361,167.733359 449.493289,170.3 458.44,170.3 C468.266716,170.3 476.113304,167.513361 481.98,161.94 C487.113359,156.806641 489.68,150.57337 489.68,143.24 C489.68,134.293289 486.966694,127.693355 481.54,123.44 C476.406641,119.186645 468.706718,117.06 458.44,117.06 L447.44,117.06 L447.44,97.7 L458.44,97.7 C467.680046,97.7 474.719976,95.7200198 479.56,91.76 C484.253357,87.7999802 486.6,81.9333722 486.6,74.16 C486.6,66.5332952 484.473355,60.7400198 480.22,56.78 C475.673311,52.8199802 468.853379,50.84 459.76,50.84 C450.519954,50.84 443.406692,53.1133106 438.42,57.66 C433.139974,62.2066894 430.060004,69.246619 429.18,78.78 L403.88,78.78 C405.200007,62.7932534 411.066615,50.4733766 421.48,41.82 C431.160048,33.1666234 443.846588,28.84 459.54,28.84 Z" id="3" fill="#ECF0F5"></path>
            <rect id="Rectangle" fill="#334966" fill-rule="nonzero" transform="translate(344.471069, 85.748386) rotate(31.000000) translate(-344.471069, -85.748386) " x="343.471069" y="82.7483864" width="2" height="6"></rect>
            <path d="M329.498919,92.2195357 C331.728765,91.7698469 334.083479,91.5290518 336.517868,91.5290518 C350.601129,91.5290518 362.017868,99.5879263 362.017868,109.529052 C362.017868,109.559325 362.017762,109.58958 362.017551,109.619818 C358.59205,108.705998 354.789421,107.968121 350.710354,107.442804 C348.130905,100.114834 339.968749,94.2887643 329.498919,92.2195357 Z" id="Combined-Shape" fill="#00A4FF" fill-rule="nonzero" opacity="0.200000003" transform="translate(345.758394, 100.574435) rotate(31.000000) translate(-345.758394, -100.574435) "></path>
            <path d="M312.338733,104.601614 C312.466869,94.7380826 323.834032,86.770111 337.837639,86.770111 C351.9209,86.770111 363.337639,94.8289855 363.337639,104.770111 C363.337639,104.800384 363.337533,104.830639 363.337322,104.860877 C356.05329,102.917717 347.064016,101.770111 337.337639,101.770111 C328.052071,101.770111 319.438308,102.816052 312.338733,104.601614 Z" id="Combined-Shape" stroke="#334966" fill-rule="nonzero" transform="translate(337.838186, 95.815494) rotate(31.000000) translate(-337.838186, -95.815494) "></path>
            <ellipse id="Oval" fill="#00A4FF" fill-rule="nonzero" transform="translate(326.271828, 117.978615) rotate(31.000000) translate(-326.271828, -117.978615) " cx="326.271828" cy="117.978615" rx="43" ry="15"></ellipse>
            <path d="M317.165131,142.2078 C337.829113,141.11481 353.665131,134.891557 353.665131,127.378059 C353.665131,119.864562 337.829113,113.641309 317.165131,112.548319 C319.284951,112.436195 321.455579,112.378059 323.665131,112.378059 C347.413376,112.378059 366.665131,119.093788 366.665131,127.378059 C366.665131,135.662331 347.413376,142.378059 323.665131,142.378059 C321.455579,142.378059 319.284951,142.319924 317.165131,142.2078 Z" id="Combined-Shape" fill="#FFFFFF" fill-rule="nonzero" opacity="0.800000012" transform="translate(341.915131, 127.378059) rotate(31.000000) translate(-341.915131, -127.378059) "></path>
            <ellipse id="Oval" stroke="#334966" fill-rule="nonzero" transform="translate(326.102608, 114.377037) rotate(31.000000) translate(-326.102608, -114.377037) " cx="326.102608" cy="114.377037" rx="44" ry="16"></ellipse>
            <ellipse id="Oval" fill="#FFFFFF" fill-rule="nonzero" transform="translate(326.786866, 117.121447) rotate(31.000000) translate(-326.786866, -117.121447) " cx="326.786866" cy="117.121447" rx="15" ry="5"></ellipse>
            <ellipse id="Oval" stroke="#334966" fill-rule="nonzero" transform="translate(326.102608, 114.377037) rotate(31.000000) translate(-326.102608, -114.377037) " cx="326.102608" cy="114.377037" rx="15" ry="5"></ellipse>
            <polygon id="Rectangle" fill="url(#linearGradient-2)" fill-rule="nonzero" opacity="0.400000006" transform="translate(311.119755, 139.312690) rotate(31.000000) translate(-311.119755, -139.312690) " points="296.119755 110.31269 326.119755 110.31269 346.119755 168.31269 276.119755 168.31269"></polygon>
            <path d="M296.476233,110.81269 L276.821061,167.81269 L345.41845,167.81269 L325.763277,110.81269 L296.476233,110.81269 Z" id="Rectangle" stroke="url(#linearGradient-3)" opacity="0.400000006" fill-rule="nonzero" transform="translate(311.119755, 139.312690) rotate(31.000000) translate(-311.119755, -139.312690) "></path>
            <circle id="Oval" stroke="#334966" stroke-width="2" fill-rule="nonzero" transform="translate(348.561298, 79.605383) rotate(31.000000) translate(-348.561298, -79.605383) " cx="348.561298" cy="79.6053826" r="4"></circle>
            <g id="Group-14" transform="translate(346.000000, 31.000000)" fill="#334966" fill-rule="nonzero">
                <circle id="Oval" cx="2" cy="21" r="2"></circle>
                <path d="M2,0 L2,0 C3.05656792,-1.94088378e-16 3.91308545,0.856517529 3.91308545,1.91308545 C3.91308545,1.94140998 3.9124564,1.96973102 3.91119877,1.99802761 L3.2,18 L0.8,18 L0.0888012272,1.99802761 C0.0418889634,0.942501677 0.859531896,0.0487989363 1.91505783,0.0018866725 C1.94335443,0.000629045922 1.97167547,5.203132e-18 2,0 Z" id="Rectangle"></path>
            </g>
            <g id="Group-3" transform="translate(374.000000, 9.000000)">
                <mask id="mask-5" fill="white">
                    <use xlink:href="#path-4"></use>
                </mask>
                <g id="Clip-2"></g>
            </g>
            <path d="M399.332999,17.875123 C399.332999,13.5260863 395.750999,10 391.334,10 C387.989,10 385.126,12.0229222 383.932,14.8924202 C382.961,14.2683167 381.827,13.9365771 380.667,13.9375615 C377.528,13.9375615 374.957,16.3099423 374.694,19.3320208 C372.009,19.9197019 370,22.2733793 370,25.0936577 C370,28.3559274 372.687,31 376,31 L395.999999,31 C399.341999,30.8277317 401.999999,28.0980172 401.999999,24.7658557 C402.000999,22.6671354 400.927999,20.709183 399.145999,19.5584306 C399.265999,19.0150471 399.332999,18.4529602 399.332999,17.875123 Z" id="Fill-1" stroke="#334966"></path>
            <path d="M389.332999,17.875123 C389.332999,13.5260863 385.750999,10 381.334,10 C377.989,10 375.126,12.0229222 373.932,14.8924202 C372.961,14.2683167 371.827,13.9365771 370.667,13.9375615 C367.528,13.9375615 364.957,16.3099423 364.694,19.3320208 C362.009,19.9197019 360,22.2733793 360,25.0936577 C360,28.3559274 362.687,31 366,31 L385.999999,31 C389.341999,30.8277317 391.999999,28.0980172 391.999999,24.7658557 C392.000999,22.6671354 390.927999,20.709183 389.145999,19.5584306 C389.265999,19.0150471 389.332999,18.4529602 389.332999,17.875123 Z" id="Fill-1" fill="#00A4FF" opacity="0.200000003"></path>
        </g>
    </g>
</svg>