<?xml version="1.0" encoding="UTF-8"?>
<svg width="220px" height="220px" viewBox="0 0 220 220" version="1.1" xmlns="http://www.w3.org/2000/svg" xmlns:xlink="http://www.w3.org/1999/xlink">
    <!-- Generator: Sketch 52.6 (67491) - http://www.bohemiancoding.com/sketch -->
    <title>3</title>
    <desc>Created with Sketch.</desc>
    <g id="3" stroke="none" stroke-width="1" fill="none" fill-rule="evenodd">
        <rect id="Rectangle-Copy-11" opacity="0.1" fill-rule="nonzero" x="0" y="0" width="220" height="220"></rect>
        <ellipse id="Oval-2-Copy-2" fill="#EFF3F8" fill-rule="nonzero" cx="111" cy="186" rx="55" ry="11"></ellipse>
        <path d="M70,127 L72,127 L72,108 L70,108 L70,107.372586 L119,91 L156,107.372586 L156,161.627414 L106,178 L70,156.627414 L70,127 Z M118.899093,93.1424088 L72,108.81301 L72,155.488874 L106.240368,175.816796 L154,160.177822 L154,108.674642 L118.899093,93.1424088 Z" id="Combined-Shape" fill="#334966" fill-rule="nonzero"></path>
        <path d="M119,122 L119,94 L153,109.011287 L119,122 Z" id="Combined-Shape" fill="#00A4FF" fill-rule="nonzero" opacity="0.100000001"></path>
        <path d="M127.67841,105.512241 C127.619793,105.512241 127.561946,105.525596 127.509262,105.551292 C127.317727,105.64471 127.238187,105.87571 127.331605,106.067244 L127.619027,106.656547 C127.870429,107.171997 128.393727,107.49899 128.967218,107.49899 L140.187213,107.49899 C140.245829,107.49899 140.303676,107.485635 140.35636,107.459939 C140.547895,107.366521 140.627435,107.135522 140.534017,106.943987 L140.246595,106.354685 C139.995193,105.839235 139.471895,105.512241 138.898404,105.512241 L127.67841,105.512241 Z M127.67841,104.512241 L138.898404,104.512241 C139.854222,104.512241 140.726386,105.05723 141.145389,105.916314 L141.432811,106.505616 C141.768335,107.193541 141.482657,108.02321 140.794732,108.358733 C140.605508,108.451024 140.397744,108.49899 140.187213,108.49899 L128.967218,108.49899 C128.0114,108.49899 127.139236,107.954001 126.720233,107.094918 L126.432811,106.505616 C126.097288,105.817691 126.382966,104.988022 127.070891,104.652498 C127.260115,104.560207 127.467879,104.512241 127.67841,104.512241 Z" id="Rectangle" fill="#334966" fill-rule="nonzero" transform="translate(133.932811, 106.505616) rotate(26.000000) translate(-133.932811, -106.505616) "></path>
        <rect id="Rectangle-Copy-12" fill="#334966" fill-rule="nonzero" x="105" y="127" width="2" height="50"></rect>
        <circle id="Oval-Copy-5" fill="#F5F7FA" fill-rule="nonzero" cx="177" cy="50" r="20"></circle>
        <rect id="Rectangle-Copy-13" fill="#334966" fill-rule="nonzero" x="147" y="55" width="14" height="2" rx="1"></rect>
        <path d="M155,50 L155,62 C155,62.5522847 154.552285,63 154,63 C153.447715,63 153,62.5522847 153,62 L153,50 C153,49.4477153 153.447715,49 154,49 C154.552285,49 155,49.4477153 155,50 Z" id="Rectangle-Copy-14" fill="#334966" fill-rule="nonzero"></path>
        <path d="M37.5,168.5 C33.081722,168.5 29.5,164.918278 29.5,160.5 C29.5,156.081722 33.081722,152.5 37.5,152.5 C41.918278,152.5 45.5,156.081722 45.5,160.5 C45.5,164.918278 41.918278,168.5 37.5,168.5 Z M37.5,167.5 C41.3659932,167.5 44.5,164.365993 44.5,160.5 C44.5,156.634007 41.3659932,153.5 37.5,153.5 C33.6340068,153.5 30.5,156.634007 30.5,160.5 C30.5,164.365993 33.6340068,167.5 37.5,167.5 Z" id="Oval-Copy-6" fill="#334966" fill-rule="nonzero"></path>
        <circle id="Oval-Copy-6" fill="#00A4FF" fill-rule="nonzero" opacity="0.2" cx="31" cy="168" r="11"></circle>
        <g id="Group-10" transform="translate(29.071068, 79.071068) rotate(45.000000) translate(-29.071068, -79.071068) translate(24.071068, 74.071068)" fill="#334966" fill-rule="nonzero">
            <rect id="Rectangle-Copy-3" x="0" y="4" width="10" height="2" rx="1"></rect>
            <rect id="Rectangle-Copy-4" transform="translate(5.000000, 5.000000) rotate(90.000000) translate(-5.000000, -5.000000) " x="0" y="4" width="10" height="2" rx="1"></rect>
        </g>
        <polyline id="Path-2-Copy-2" stroke="#334966" fill-rule="nonzero" points="71 108 106 127 155 108"></polyline>
        <path d="M70.3935861,107.222818 L71.6521371,108.777182 L60.3909495,117.895235 C59.9617235,118.242774 59.8955034,118.872467 60.2430426,119.301693 C60.3152621,119.390887 60.4022965,119.466984 60.5003334,119.526649 L93.9137851,139.862302 C94.3496512,140.127573 94.9153322,140.022149 95.2263802,139.617677 L105.207296,126.638981 L106.792704,127.858196 L96.8117873,140.836892 C95.8786435,142.050307 94.1816004,142.36658 92.874002,141.570767 L59.4605503,121.235114 C59.1664396,121.056116 58.9053364,120.827826 58.688678,120.560244 C57.6460602,119.272566 57.8447207,117.383488 59.1323985,116.34087 L70.3935861,107.222818 Z" id="Path-3-Copy" fill="#334966" fill-rule="nonzero"></path>
        <path d="M108,130.1464 L114.246955,150.582557 C114.569852,151.638877 115.687928,152.233433 116.744248,151.910535 C116.800985,151.893192 116.856921,151.873333 116.911893,151.851016 L163.755341,132.83418 C164.778789,132.418695 165.271641,131.252209 164.856156,130.228761 C164.820131,130.140023 164.777779,130.053987 164.729427,129.971317 L154.218194,112 L108,130.1464 Z" id="Path-4-Copy" fill="#00A4FF" fill-rule="nonzero"></path>
        <path d="M105.18936,127.819001 L106.81064,126.647911 L118.321786,142.584177 C118.588298,142.953141 119.070346,143.095587 119.494597,142.930744 L163.364942,125.884979 C163.879733,125.684958 164.134904,125.105488 163.934883,124.590697 C163.914935,124.539356 163.890779,124.489752 163.862662,124.44239 L154.404613,108.510478 L156.124394,107.489522 L165.582444,123.421434 C165.666794,123.563521 165.739262,123.712334 165.799106,123.866355 C166.399171,125.410728 165.633657,127.149139 164.089283,127.749203 L120.218939,144.794968 C118.946184,145.289495 117.50004,144.862158 116.700506,143.755267 L105.18936,127.819001 Z" id="Path-4-Copy-2" fill="#334966" fill-rule="nonzero"></path>
        <polygon id="Rectangle" fill="#00A4FF" fill-rule="nonzero" points="90 148 99 153 99 164 90 159"></polygon>
        <path d="M93,161.411597 L100,165.300486 L100,156.588403 L93,152.699514 L93,161.411597 Z M92,151 L101,156 L101,167 L92,162 L92,151 Z" id="Rectangle-Copy-8" fill="#334966" fill-rule="nonzero"></path>
        <g id="feiji" transform="translate(110.379596, 47.000000) rotate(9.000000) translate(-110.379596, -47.000000) translate(97.379596, 37.500000)" fill="#00A4FF" fill-rule="nonzero">
            <path d="M21.5266089,18.6871936 L13.1932756,14.5333474 L18.7488311,6.22565511 L10.0099422,12.5644243 L0.693275564,7.61027049 L25.6932756,0.687193569 L21.5266089,18.6871936 Z M9.0266089,18.6871936 L9.0266089,13.148732 L13.1932756,14.9944243 L9.0266089,18.6871936 Z" id="Shape"></path>
        </g>
        <g id="feiji" transform="translate(114.120404, 45.403315) rotate(9.000000) translate(-114.120404, -45.403315) translate(101.620404, 34.403315)" stroke="#334966">
            <polygon id="Path" points="6.14361613 18.3846897 6.14361613 13.3846897 10.1436161 15.0509397 6.14361613 18.3846897"></polygon>
            <polygon id="Path" fill-rule="nonzero" points="20.2216683 18.6702315 12.2216683 14.5163853 17.5550016 6.20869302 9.16566827 12.5474623 0.221668275 7.59330841 24.2216683 0.67023148"></polygon>
        </g>
        <path d="" id="Path-14" stroke="#979797" fill-rule="nonzero"></path>
        <path d="M94.3250427,79.1271136 C91.9427016,83.939029 91.7896193,90.0602281 94.441165,96.0359994 C98.3488625,104.842752 106.945241,113.024557 120.246582,120.565032 L119.753418,121.434968 C106.28168,113.797896 97.5341493,105.472228 93.5271065,96.4415818 C90.754419,90.1927939 90.9152834,83.7604167 93.4288631,78.6834222 C93.6790523,78.1780835 93.9487154,77.6966554 94.2347876,77.2414279 C93.9135392,76.5548146 93.6611826,75.7981719 93.4940908,74.9733857 C92.530456,70.2167632 96.0814539,63.8008803 104.073367,55.6499464 L104.787405,56.3500536 C97.0108301,64.2813643 93.5976611,70.4482203 94.4741807,74.7748312 C94.5810787,75.3024932 94.7265029,75.798408 94.9050506,76.2620729 C97.1553582,73.2422245 100.154127,71.703378 102.717164,72.5303643 C108.192327,74.2969739 108.442775,79.1485265 104.675739,81.2700158 C101.539167,83.0364453 97.0991536,81.9001959 94.7903915,78.2568503 C94.628874,78.5370213 94.4734931,78.8272696 94.3250427,79.1271136 Z M104.185033,80.3986906 C107.217691,78.6907827 107.025683,74.9713118 102.410093,73.4820511 C100.209421,72.7719847 97.4418894,74.3050568 95.3894071,77.3036716 C97.3377593,80.8314104 101.398351,81.9680721 104.185033,80.3986906 Z" id="Path-15" fill="#334966" fill-rule="nonzero"></path>
    </g>
</svg>