<?xml version="1.0" encoding="utf-8"?>
<!-- Generator: Adobe Illustrator 19.0.0, SVG Export Plug-In . SVG Version: 6.00 Build 0)  -->
<svg version="1.1" id="图层_1" xmlns="http://www.w3.org/2000/svg" xmlns:xlink="http://www.w3.org/1999/xlink" x="0px" y="0px"
	 width="16px" height="16px" viewBox="0 0 16 16" style="enable-background:new 0 0 16 16;" xml:space="preserve">
<style type="text/css">
	.st0{fill:#FF8010;}
</style>
<g id="XMLID_22_">
	<g id="XMLID_34_">
		<path id="XMLID_35_" class="st0" d="M3.091,1c0.15,0,0.293,0.077,0.401,0.216l1.954,2.519c0.056,0.072,0.067,0.272,0.019,0.35
			L4.492,5.696L4.27,6.064l0.114,0.414C4.504,6.914,4.887,7.836,6.1,9.119l0.019,0.02l0.02,0.019
			c1.334,1.263,2.236,1.618,2.656,1.717l0.397,0.094l0.349-0.211l1.62-0.978c0.012-0.006,0.063-0.025,0.145-0.025
			c0.107,0,0.186,0.031,0.205,0.044l2.519,1.954c0.092,0.071,0.204,0.193,0.215,0.372c0.009,0.144-0.047,0.277-0.166,0.396
			l-1.333,1.333c-0.233,0.233-0.662,0.39-1.066,0.39c-0.156,0-0.295-0.022-0.414-0.066l-0.043-0.016l-0.044-0.012
			c-0.103-0.027-2.557-0.709-5.967-4.119C1.904,6.725,1.135,4.159,1.104,4.051L1.09,4.003L1.072,3.957
			C0.898,3.524,1.047,2.843,1.39,2.499l1.333-1.333C2.832,1.058,2.959,1,3.091,1 M3.091,0C2.694,0,2.312,0.163,2.016,0.46
			L0.683,1.792c-0.626,0.626-0.861,1.736-0.54,2.537c0.082,0.284,0.93,2.98,4.362,6.412c3.541,3.541,6.143,4.305,6.417,4.378
			c0.23,0.084,0.485,0.127,0.758,0.127h0c0.672,0,1.352-0.262,1.773-0.683l1.333-1.333c0.322-0.322,0.484-0.736,0.457-1.166
			c-0.027-0.43-0.24-0.821-0.6-1.1L12.124,9.01c-0.216-0.167-0.519-0.254-0.818-0.254c-0.238,0-0.474,0.055-0.662,0.169L9.025,9.902
			C8.79,9.847,8.049,9.59,6.827,8.433C5.709,7.25,5.419,6.468,5.348,6.213l0.973-1.611C6.582,4.17,6.544,3.52,6.236,3.122
			L4.282,0.603C3.985,0.22,3.55,0,3.091,0L3.091,0z"/>
	</g>
</g>
</svg>
