<?xml version="1.0" encoding="UTF-8"?><svg width="80" height="78" viewBox="0 0 80 78" xmlns="http://www.w3.org/2000/svg" xmlns:xlink="http://www.w3.org/1999/xlink"><svg width="18" height="16" viewBox="-1 -1 18 16" id="download" y="62"><title>Combined Shape</title><path d="M9 5h3L8 9 4 5h3V0h2v5zm7 7v2H0V5h2v7h12V5h2v7z" fill="#7C848E" fill-rule="evenodd"/></svg><svg width="18" height="16" viewBox="-1 -1 18 16" id="download-#00a4ff" x="62" y="18"><path d="M9 5h3L8 9 4 5h3V0h2v5zm7 7v2H0V5h2v7h12V5h2v7z" fill="#00a4ff" fill-rule="evenodd"/></svg><svg width="18" height="18" viewBox="-1 -1 18 18" id="edit-fixed-icon" x="62"><title>文档反馈 copy 3</title><g fill="#02A3FF" fill-rule="nonzero"><path d="M7 7.071L14.073 0l1.414 1.414-7.071 7.071zM4 10h8v2H4zM0 0h10v2H0zM0 14h16v2H0z"/><path d="M14 6h2v10h-2zM0 0h2v16H0z"/></g></svg><svg width="18" height="18" viewBox="-1 -1 18 18" id="edit-fixed-icon-hover" x="40" y="42"><title>文档反馈 copy 3</title><g fill="#FFF" fill-rule="nonzero"><path d="M7 7.071L14.073 0l1.414 1.414-7.071 7.071zM4 10h8v2H4zM0 0h10v2H0zM0 14h16v2H0z"/><path d="M14 6h2v10h-2zM0 0h2v16H0z"/></g></svg><svg width="20" height="20" viewBox="-1 -1 20 20" id="gift-icon" x="20" y="42"><title>Group</title><g fill-rule="nonzero" fill="none"><path d="M0 0h18v18H0z"/><path d="M3.127 5C2.097 3.94 1.721 2.579 2.3 1.576 3.058.263 5.164.06 7.005 1.123 7.962 1.675 8.658 2.46 9 3.27c.342-.81 1.038-1.596 1.995-2.148 1.84-1.063 3.947-.86 4.705.453.58 1.003.203 2.364-.827 3.424h2.377c.414 0 .75.448.75 1v3c0 .552-.336 1-.75 1H16v8H2v-8H.75C.336 10 0 9.552 0 9V6c0-.552.336-1 .75-1h2.377zM10 16h4v-6h-4v6zm-2 0v-6H4v6h4zm2-8h6V7h-6v1zM8 8V7H2v1h6zm4.825-3.708c1.007-.581 1.395-1.432 1.209-1.754-.186-.322-1.117-.412-2.124.17-1.008.581-1.395 1.432-1.21 1.754.187.322 1.117.412 2.125-.17zm-7.65 0c1.008.582 1.938.492 2.124.17.186-.322-.201-1.173-1.209-1.754-1.007-.582-1.938-.492-2.124-.17-.186.322.202 1.173 1.21 1.754z" fill="#00A4FF"/></g></svg><svg width="20" height="20" viewBox="-1 -1 20 20" id="gift-icon-hover" y="42"><title>Group</title><g fill-rule="nonzero" fill="none"><path d="M0 0h18v18H0z"/><path d="M3.127 5C2.097 3.94 1.721 2.579 2.3 1.576 3.058.263 5.164.06 7.005 1.123 7.962 1.675 8.658 2.46 9 3.27c.342-.81 1.038-1.596 1.995-2.148 1.84-1.063 3.947-.86 4.705.453.58 1.003.203 2.364-.827 3.424h2.377c.414 0 .75.448.75 1v3c0 .552-.336 1-.75 1H16v8H2v-8H.75C.336 10 0 9.552 0 9V6c0-.552.336-1 .75-1h2.377zM10 16h4v-6h-4v6zm-2 0v-6H4v6h4zm2-8h6V7h-6v1zM8 8V7H2v1h6zm4.825-3.708c1.007-.581 1.395-1.432 1.209-1.754-.186-.322-1.117-.412-2.124.17-1.008.581-1.395 1.432-1.21 1.754.187.322 1.117.412 2.125-.17zm-7.65 0c1.008.582 1.938.492 2.124.17.186-.322-.201-1.173-1.209-1.754-1.007-.582-1.938-.492-2.124-.17-.186.322.202 1.173 1.21 1.754z" fill="#fff"/></g></svg><svg width="20" height="20" viewBox="-1 -1 20 20" id="icon-gift-s" x="42" y="20"><title>Group</title><g fill-rule="nonzero" fill="none"><path d="M0 0h18v18H0z"/><path d="M3.127 4.558c-1.03-1.06-1.406-2.42-.827-3.424C3.058-.179 5.164-.38 7.005.681 7.962 1.233 8.658 2.02 9 2.83c.342-.811 1.038-1.597 1.995-2.149 1.84-1.062 3.947-.86 4.705.453.58 1.003.203 2.364-.827 3.424h2.377c.414 0 .75.448.75 1v3c0 .553-.336 1-.75 1H16v8H2v-8H.75c-.414 0-.75-.447-.75-1v-3c0-.552.336-1 .75-1h2.377zm6.873 11h4v-6h-4v6zm-2 0v-6H4v6h4zm2-8h6v-1h-6v1zm-2 0v-1H2v1h6zm4.825-3.707c1.007-.582 1.395-1.432 1.209-1.755-.186-.322-1.117-.412-2.124.17-1.008.582-1.395 1.432-1.21 1.754.187.323 1.117.412 2.125-.17zm-7.65 0c1.008.581 1.938.492 2.124.17.186-.323-.201-1.173-1.209-1.755-1.007-.582-1.938-.492-2.124-.17-.186.323.202 1.173 1.21 1.755z" fill="#00A4FF"/></g></svg><svg width="20" height="20" viewBox="-1 -1 20 20" id="icon-gift-s-hover" x="42"><title>Group</title><g fill-rule="nonzero" fill="none"><path d="M0 0h18v18H0z"/><path d="M3.127 4.558c-1.03-1.06-1.406-2.42-.827-3.424C3.058-.179 5.164-.38 7.005.681 7.962 1.233 8.658 2.02 9 2.83c.342-.811 1.038-1.597 1.995-2.149 1.84-1.062 3.947-.86 4.705.453.58 1.003.203 2.364-.827 3.424h2.377c.414 0 .75.448.75 1v3c0 .553-.336 1-.75 1H16v8H2v-8H.75c-.414 0-.75-.447-.75-1v-3c0-.552.336-1 .75-1h2.377zm6.873 11h4v-6h-4v6zm-2 0v-6H4v6h4zm2-8h6v-1h-6v1zm-2 0v-1H2v1h6zm4.825-3.707c1.007-.582 1.395-1.432 1.209-1.755-.186-.322-1.117-.412-2.124.17-1.008.582-1.395 1.432-1.21 1.754.187.323 1.117.412 2.125-.17zm-7.65 0c1.008.581 1.938.492 2.124.17.186-.323-.201-1.173-1.209-1.755-1.007-.582-1.938-.492-2.124-.17-.186.323.202 1.173 1.21 1.755z" fill="#FFF"/></g></svg><svg width="9" height="15" viewBox="-1 -1 9 15" id="link-arrow" x="18" y="62"><title>></title><path d="M4.228 6.5l-4.242 4.243L1.4 12.158l5.657-5.657-1.414-1.415L1.4.844-.014 2.259 4.228 6.5z" fill="#00A4FF" fill-rule="evenodd"/></svg><svg width="11" height="12" viewBox="-1 -1 11 12" id="link-arrow" x="54" y="62"><title>下拉箭头</title><path d="M4.5 5.196L7.62 2 9 3.402 4.5 8 0 3.402 1.38 2z" fill="#999" fill-rule="evenodd"/></svg><svg width="9" height="15" viewBox="-1 -1 9 15" id="link-arrow-#00a4ff" x="27" y="62"><path d="M4.228 6.5l-4.242 4.243L1.4 12.158l5.657-5.657-1.414-1.415L1.4.844-.014 2.259 4.228 6.5z" fill="#00a4ff" fill-rule="evenodd"/></svg><svg width="9" height="15" viewBox="-1 -1 9 15" id="link-arrow-#888" x="36" y="62"><path d="M4.228 6.5l-4.242 4.243L1.4 12.158l5.657-5.657-1.414-1.415L1.4.844-.014 2.259 4.228 6.5z" fill="#888" fill-rule="evenodd"/></svg><svg width="9" height="15" viewBox="-1 -1 9 15" id="link-arrow-#999" x="45" y="62"><path d="M4.228 6.5l-4.242 4.243L1.4 12.158l5.657-5.657-1.414-1.415L1.4.844-.014 2.259 4.228 6.5z" fill="#999" fill-rule="evenodd"/></svg><svg width="18" height="18" viewBox="-298 388 18 18" id="search-1616-1-inline-#666" x="62" y="34"><path fill="#666" d="M-282.3 403.3l-2.5-2.5c1-1.1 1.7-2.7 1.7-4.3 0-3.6-2.9-6.5-6.5-6.5-3.5 0-6.4 2.9-6.4 6.5s2.9 6.4 6.4 6.4c1.2 0 2.3-.3 3.2-.9l2.7 2.7c.4.4 1 .4 1.4 0 .4-.4.4-1 0-1.4zm-7.3-2.4c-2.4 0-4.4-2-4.4-4.4s2-4.5 4.4-4.5c2.5 0 4.5 2 4.5 4.5s-2 4.4-4.5 4.4z"/></svg><svg width="42" height="42" viewBox="-1 -1 42 42" id="select-icon"><title>画板</title><g fill="none" fill-rule="nonzero"><path fill="#02A3FF" d="M14 25l4.106 2H37v13H15z"/><path d="M16 24v14h20V25H17.832L16 24zm5.484-1H38v17H14V20.63L18.342 23h3.142z" fill="#334966"/><path fill="#334966" d="M25 28h2v6h-2zM25 35h2v2h-2z"/><path fill="#02A3FF" d="M7 10h8v2H7zM7 16h22v2H7z"/><path stroke="#334966" d="M24.5.5h1v9h-1z"/><path stroke="#334966" d="M32.5 8.5v1h-8v-1z"/><path d="M33 25h-2V8.724L24.974 2H5v34h11v2H3V0h22.867L33 7.959V25z" fill="#334966"/></g></svg></svg>