<?xml version="1.0" encoding="utf-8"?>
<!-- Generator: Adobe Illustrator 22.1.0, SVG Export Plug-In . SVG Version: 6.00 Build 0)  -->
<svg version="1.1" id="图层_1" xmlns="http://www.w3.org/2000/svg" xmlns:xlink="http://www.w3.org/1999/xlink" x="0px" y="0px"
	 width="48px" height="48px" viewBox="0 0 48 48" style="enable-background:new 0 0 48 48;" xml:space="preserve">
<style type="text/css">
	.st0{fill:#00A4FF;}
</style>
<path class="st0" d="M24,46.5C11.6,46.5,1.5,36.4,1.5,24C1.5,11.6,11.6,1.5,24,1.5c12.4,0,22.5,10.1,22.5,22.5
	C46.5,36.4,36.4,46.5,24,46.5z M24,3.5C12.7,3.5,3.5,12.7,3.5,24S12.7,44.5,24,44.5S44.5,35.3,44.5,24S35.3,3.5,24,3.5z"/>
<path class="st0" d="M24.2,34.4c0,0-0.1,0-0.1,0c-5.9-0.1-8.5-4.3-8.5-6.4h2c0,1,1.6,4.3,6.5,4.4c0,0,0.1,0,0.1,0
	c3.3,0,5.3-2,5.4-3.9c0.1-2.1-2-3.7-5.6-4c-5.9-0.5-7.9-3.7-7.8-6.3c0.1-2.7,2.6-5.6,7-5.6c8.1,0,8.2,6.3,8.2,6.4h-2h1l-1,0
	c0-0.5-0.2-4.4-6.2-4.4c-3.1,0-4.9,1.9-5,3.7c-0.1,1.7,1.4,3.8,6,4.2c5.7,0.5,7.6,3.6,7.4,6.1C31.4,31.5,28.6,34.4,24.2,34.4z"/>
<rect x="23" y="10" class="st0" width="2" height="27"/>
</svg>
