<?xml version="1.0" encoding="utf-8"?>
<!-- Generator: Adobe Illustrator 22.1.0, SVG Export Plug-In . SVG Version: 6.00 Build 0)  -->
<svg version="1.1" id="图层_1" xmlns="http://www.w3.org/2000/svg" xmlns:xlink="http://www.w3.org/1999/xlink" x="0px" y="0px"
	 width="48px" height="48px" viewBox="0 0 48 48" style="enable-background:new 0 0 48 48;" xml:space="preserve">
<style type="text/css">
	.st0{fill:#00A4FF;}
</style>
<path class="st0" d="M24,46.5C11.6,46.5,1.5,36.4,1.5,24C1.5,11.6,11.6,1.5,24,1.5S46.5,11.6,46.5,24C46.5,36.4,36.4,46.5,24,46.5z
	 M24,3.5C12.7,3.5,3.5,12.7,3.5,24S12.7,44.5,24,44.5S44.5,35.3,44.5,24S35.3,3.5,24,3.5z"/>
<path class="st0" d="M34.5,17h-2c0-0.9-3.2-2.5-8.5-2.5s-8.5,1.6-8.5,2.5h-2c0-3,5.3-4.5,10.5-4.5S34.5,14,34.5,17z"/>
<path class="st0" d="M24,34.5c-5.2,0-10.5-1.5-10.5-4.5h2c0,0.9,3.2,2.5,8.5,2.5s8.5-1.6,8.5-2.5h2C34.5,33,29.2,34.5,24,34.5z"/>
<rect x="32.5" y="17" class="st0" width="2" height="13"/>
<rect x="13.5" y="17" class="st0" width="2" height="13"/>
<path class="st0" d="M24,22.5c-5.1,0-10.5-1.8-10.5-5h2c0,1.2,3.3,3,8.5,3s8.5-1.8,8.5-3h2C34.5,20.7,29.1,22.5,24,22.5z"/>
<path class="st0" d="M24,28.5c-5.1,0-10.5-1.8-10.5-5h2c0,1.2,3.3,3,8.5,3s8.5-1.8,8.5-3h2C34.5,26.7,29.1,28.5,24,28.5z"/>
</svg>
