<?xml version="1.0" encoding="UTF-8"?><svg width="150" height="47" viewBox="0 0 150 47" xmlns="http://www.w3.org/2000/svg" xmlns:xlink="http://www.w3.org/1999/xlink"><svg width="14" height="14" viewBox="-1 -1 14 14" id="close" x="112" y="27"><title>画板</title><path d="M10.95 2.464L7.414 6l3.536 3.536-1.414 1.414L6 7.414 2.464 10.95 1.05 9.536l3.536-3.537L1.05 2.464 2.464 1.05l3.537 3.535L9.536 1.05l1.414 1.414z" fill="#000" fill-rule="evenodd" opacity=".2"/></svg><svg id="icon-clock" width="18" height="18" viewBox="-1 -1 18 18" x="40" y="27"><style>.abst0{fill-rule:evenodd;clip-rule:evenodd;fill:#bbc0c8}</style><g id="abXMLID_3_"><g id="abXMLID_63_"><path id="abXMLID_64_" class="abst0" d="M9 5H8v4h3V8H9V5zm-.5-3C4.9 2 2 4.9 2 8.5S4.9 15 8.5 15 15 12.1 15 8.5 12.1 2 8.5 2zm0 12C5.5 14 3 11.5 3 8.5S5.5 3 8.5 3 14 5.5 14 8.5 11.5 14 8.5 14z"/></g></g></svg><svg id="icon-collapse" width="20" height="20" viewBox="-1 -1 20 20" y="27"><style>.acst0{fill-rule:evenodd;clip-rule:evenodd;fill:#ccc}</style><path id="acXMLID_2_" class="acst0" d="M9 0c5 0 9 4 9 9s-4 9-9 9-9-4-9-9 4-9 9-9zm0 16.9c4.3 0 7.9-3.5 7.9-7.9 0-4.3-3.5-7.9-7.9-7.9S1.1 4.6 1.1 9c0 4.3 3.6 7.9 7.9 7.9zM8.5 6.4c.1-.1.3-.1.5-.1s.4 0 .5.1l4.3 4.3c.2.2.2.6 0 .8-.2.2-.6.2-.8 0l-4-4-4 4c-.2.2-.6.2-.8 0-.2-.2-.2-.5 0-.7l4.3-4.4z"/></svg><svg id="icon-expand" width="20" height="20" viewBox="-1 -1 20 20" x="20" y="27"><style>.adst0{fill-rule:evenodd;clip-rule:evenodd;fill:#ccc}</style><path id="adXMLID_2_" class="adst0" d="M9 18c-5 0-9-4-9-9s4-9 9-9 9 4 9 9-4 9-9 9zM9 1.1C4.7 1.1 1.1 4.6 1.1 9c0 4.3 3.5 7.9 7.9 7.9s7.9-3.5 7.9-7.9S13.3 1.1 9 1.1zm.5 10.4c-.1.1-.3.2-.5.1-.2 0-.4 0-.5-.1L4.2 7.2c-.2-.2-.2-.5 0-.8.2-.2.6-.2.8 0l4 4 4-4c.2-.2.6-.2.8 0 .2.3.2.6 0 .8l-4.3 4.3z"/></svg><svg id="icon-eye" width="18" height="18" viewBox="-1 -1 18 18" x="58" y="27"><style>.aest0{fill-rule:evenodd;clip-rule:evenodd;fill:#bbc0c8}</style><g id="aeXMLID_3_"><g id="aeXMLID_73_"><path id="aeXMLID_75_" class="aest0" d="M8 6c-1.1 0-2 .9-2 2s.9 2 2 2 2-.9 2-2-.9-2-2-2zm0 3c-.6 0-1-.4-1-1s.4-1 1-1 1 .4 1 1-.4 1-1 1zm0-6C4.6 3 1.2 5.1 0 8c1.2 2.9 4.6 5 8 5s6.8-2.1 8-5c-1.2-2.9-4.6-5-8-5zm0 9c-2.8 0-5.8-1.6-6.9-4C2.2 5.6 5.2 4 8 4s5.8 1.6 6.9 4c-1.1 2.4-4.1 4-6.9 4z"/></g></g></svg><svg id="icon-hide" width="18" height="18" viewBox="-1 -1 18 18" x="76" y="27"><style>.afst0{fill-rule:evenodd;clip-rule:evenodd;fill:#00a4ff}</style><path class="afst0" d="M1 10.9L2 12l6-5.9 6 5.9 1.1-1.1-6-5.9L8 4 7 5z"/></svg><svg id="icon-logo-pc" width="150" height="27" viewBox="-1 -1 150 27"><style>.agst0{fill:#fff}.agst1{fill:#00a3ff}.agst2{fill:#00c8dc}.agst3{fill:#006eff}.agst4{fill-rule:evenodd;clip-rule:evenodd;fill:#fff}</style><g id="agXMLID_26_"><path id="agXMLID_39_" class="agst0" d="M74.8 4.5h-9.9v1.4h3v5.2h-3.4v1.4h3.4v8.7h1.6v-8.7h3.8v8.6h3v-1.4h-1.4V4.5zm-5.3 6.6V5.9h3.8v5.2h-3.8z"/><path id="agXMLID_15_" class="agst0" d="M47.4 17.3h7.8v1.4h-7.8z"/><path id="agXMLID_34_" class="agst0" d="M42.1 14.7c0 2.6-.2 4.6-.6 6.3 0 .2 0 .2.1.2H43c.5-2.4.5-4.4.5-5.8h2v4.4h-1.4c-.1 0-.1 0-.1.1l.4 1.3h2.5V4.5H42v10.2zm1.4-.6v-3.4h2v3.4h-2zm2-8.1v3.4h-2V6h2z"/><path id="agXMLID_31_" class="agst0" d="M55.7 10.3h1.9V9H52c.2-.4.3-.9.5-1.3h4.8V6.4h-1.4c.2-.8.5-1.7.5-1.8 0-.1 0-.1-.1-.1h-1.2l-.6 1.9h-1.7c.2-.7.3-1.6.4-2.5 0-.1 0-.1-.1-.1h-1.4c-.1 1-.3 1.8-.5 2.6h-.8l-.6-1.9h-1.2c-.1 0-.1 0-.1.1s.3 1 .5 1.8h-1.4v1.3h3.2c-.1.4-.3.9-.5 1.3h-3v1.3h2.3c-.9 1.3-1.9 1.9-2.3 2.1v1.5c0 .1.1.2.3 0 .4-.2.9-.5 1.3-.8h5.3V15H50l.1-1.2s0-.1-.1-.1h-1.3l-.1 2.4s0 .1.1.1H56v3.5h-3.3c-.1 0-.1 0-.1.1l.4 1.3h4.5V15h-1.8l.1-2.5c.7.6 1.3 1.1 2 1.4.2.1.3.1.3 0v-1.5c-.5-.2-1.4-.8-2.4-2.1zm-1.7 0c.3.6.7 1.1 1.1 1.5h-4.7c.4-.4.7-.9 1-1.5H54z"/><path id="agXMLID_9_" class="agst0" d="M65.9 16.3s-1.4 1-2.7 2V9h-3.7v1.6h2.1v8.9c-.5.4-.8.6-.8.6l.9 1.1 4.3-3.3v-1.6h-.1z"/><path id="agXMLID_8_" class="agst0" d="M61.9 7.6h1.7c.1 0 .1-.1.1-.1l-2.2-3.3h-1.7c-.1 0-.1.1-.1.1.1.1 2.2 3.3 2.2 3.3z"/><path id="agXMLID_7_" class="agst0" d="M79.5 4.9h12.4v1.6H79.5z"/><path id="agXMLID_6_" class="agst0" d="M84 12.4h9.7v-1.6H77.8v1.6h4.4c-.9 2.4-3.2 8.4-3.2 8.4 0 .1 0 .1.1.1h13.7c.1 0 .1-.1.1-.1l-2-5.4h-1.7c-.1 0-.1.1-.1.1 0 .1 1.4 3.8 1.4 3.8h-9.1l2.6-6.9z"/></g><g id="agXMLID_20_"><path id="agXMLID_23_" class="agst1" d="M32.1 20.2c-.6.6-1.7 1.3-3.4 1.3H17.1c3.4-3.3 6.4-6.2 6.7-6.5.3-.3 1-1 1.6-1.5 1.3-1.2 2.5-1.4 3.3-1.4 1.3 0 2.5.5 3.4 1.4 1.9 1.9 1.8 4.9 0 6.7m2.2-8.8C32.9 10 31 9.1 28.8 9.1c-1.9 0-3.5.6-4.9 1.8-.6.5-1.3 1.1-2.1 1.9-.4.4-12.1 11.7-12.1 11.7.6.1 1.5.1 2.2.1h14.7c1.1 0 1.9 0 2.7-.1 1.8-.1 3.5-.8 4.9-2.2 3.1-2.9 3.1-7.8.1-10.9z"/><path id="agXMLID_3_" class="agst2" d="M15.5 10.7c-1.4-1-2.9-1.6-4.7-1.6-2.2 0-4.1.9-5.5 2.3-3 3.1-3 8 .1 11 1.2 1.2 2.7 1.9 4.3 2.1l3-2.9h-1.8c-1.7-.1-2.8-.7-3.4-1.3-1.9-1.8-1.9-4.8-.1-6.7.9-.9 2.1-1.4 3.4-1.4.8 0 1.9.2 3.2 1.3.6.5 1.9 1.7 2.5 2.2h.1l2.1-2v-.1c-1-1-2.4-2.3-3.2-2.9"/><path id="agXMLID_2_" class="agst3" d="M29.6 7.3c-1.4-4-5.3-6.9-9.8-6.9-5.2 0-9.5 3.8-10.3 8.8.4-.1.8-.1 1.3-.1.6 0 1.2.1 1.8.2.7-3.4 3.7-5.9 7.2-5.9 2.9 0 5.5 1.8 6.7 4.3 0 0 0 .1.1 0 .9-.2 1.9-.4 2.9-.3.1.1.2 0 .1-.1"/></g><path id="agXMLID_21_" class="agst4" d="M100 11.1c1.1 0 2 .9 2 2s-.9 2-2 2-2-.9-2-2 .9-2 2-2z"/><g id="agXMLID_18_"><path id="agXMLID_24_" class="agst0" d="M110.7 8.8c-.9 1-2.1 1.9-3.5 2.7l-.9-1c1.4-.8 2.6-1.7 3.6-2.6l.8.9zm4.6 5.6c-.3 2.4-.8 4-1.7 4.8-1 1-3.1 1.7-6.5 1.9l-.5-1.2c3-.2 4.9-.7 5.9-1.5.8-.8 1.3-2.2 1.5-4.1l1.3.1zm-4.8-8.7l-.7 1.1c-1-.6-2-1-3-1.4l.7-1c1 .3 2 .7 3 1.3zm10 12.1h-1.3v-4.3h-9.3V18h-1.3v-5.7h12v5.5zm-5.8-13.7c-.1.4-.3.8-.5 1.2h7.5v.8c-.2.9-.5 1.8-.9 2.7l-1.3-.4c.3-.6.6-1.2.8-2h-3.2c-.1.4-.2.9-.3 1.2 1 1.4 2.9 2.4 5.8 3l-.5 1.2c-2.7-.6-4.7-1.6-5.8-3.1-.2.3-.5.7-.7 1-.9.9-2.4 1.6-4.5 2l-.5-1.2c1.8-.4 3.2-.9 4-1.6.7-.6 1.1-1.4 1.4-2.5h-2.4c-.5.7-1.1 1.3-1.9 1.9l-.8-1c1.2-.9 2.1-2 2.5-3.3l1.3.1zm7.6 16l-.7 1.1c-2.1-1-4.3-1.8-6.6-2.4l.7-1c2.4.6 4.6 1.4 6.6 2.3z"/><path id="agXMLID_33_" class="agst0" d="M128.6 9.7V18c.6-.5 1.2-1.1 1.9-1.8l.4 1.4c-1.1 1.1-2.2 2-3.5 2.9l-.5-1.2c.3-.3.4-.5.4-.9V11h-2.6V9.7h3.9zm1.3-2.7l-1 1c-.8-.9-1.8-1.9-3.1-2.9l.9-.9c1.3.9 2.3 1.9 3.2 2.8zm3.1 4.3V6.2h-2.5V4.9h8.6v5.7c0 3.7.3 6.3.9 7.8.2.6.5.9.7.9.1 0 .1-.2.2-.7 0-.5.1-1.3.1-2.3l1.1.5c-.1 1.8-.2 3-.4 3.5-.2.4-.4.6-.6.6-.7 0-1.3-.4-1.8-1.3-.9-1.6-1.3-4.6-1.3-9V6.2h-3.4v5.1h2.6v1.3h-2.6v8.5H133v-8.5h-2.8v-1.3h2.8z"/></g></svg><svg id="icon-show" width="18" height="18" viewBox="-1 -1 18 18" x="94" y="27"><style>.ahst0{fill-rule:evenodd;clip-rule:evenodd;fill:#00a4ff}</style><path class="ahst0" d="M15.1 5L14 4 8 9.9 2 4 1 5l6 5.9L8 12l1.1-1.1z"/></svg></svg>