<?xml version="1.0" encoding="UTF-8"?>
<svg width="53px" height="22px" viewBox="0 0 53 22" version="1.1" xmlns="http://www.w3.org/2000/svg" xmlns:xlink="http://www.w3.org/1999/xlink">
    <!-- Generator: Sketch 54.1 (76490) - https://sketchapp.com -->
    <title>tvp1</title>
    <desc>Created with Sketch.</desc>
    <defs>
        <polygon id="path-1" points="0 0.1067 52.6428217 0.1067 52.6428217 21.9999588 0 21.9999588"></polygon>
    </defs>
    <g id="tvp1" stroke="none" stroke-width="1" fill="none" fill-rule="evenodd">
        <rect id="矩形" x="0" y="0" width="53" height="22"></rect>
        <g id="编组-17">
            <polygon id="Fill-1" fill="#FFFFFF" points="24 0 25.1349438 2.5 26.269743 5 28.1348715 2.5 30 0"></polygon>
            <g id="编组">
                <mask id="mask-2" fill="white">
                    <use xlink:href="#path-1"></use>
                </mask>
                <g id="Clip-3"></g>
                <path d="M52.3504824,3.76058375 C52.0708696,2.91454625 51.620808,2.19102125 50.9998871,1.58945875 C50.4228781,1.03918375 49.765706,0.65459625 49.029055,0.43528375 C48.2919937,0.21610875 47.2795602,0.10665875 45.9918916,0.10665875 L37.839347,0.10665875 L32.8198605,0.10665875 L25.028186,12.2235713 L20.3929618,0.10665875 L17.6339063,0.10665875 L15.3886597,0.10665875 L11.3500066,0.10665875 L6.86293339,0.10665875 L0.574656172,0.10665875 L-2.73593683e-05,4.49428375 L6.28838665,4.49428375 L3.99553479,21.9999588 L8.48247119,21.9999588 L10.7753231,4.49428375 L17.0636003,4.49428375 L21.8821322,17.1160963 L21.8796699,17.1198088 L23.7465364,21.9999588 L35.0142186,4.49552125 L35.0211953,4.50954625 L45.6719238,4.52480875 C46.5946185,4.52480875 47.2319549,4.65240875 47.58407,4.90719625 C48.0571135,5.24365875 48.2495866,5.74814625 48.1616263,6.42079625 C48.05342,7.24648375 47.6192268,7.81215875 46.8590467,8.11782125 C46.4524865,8.28103375 45.8181596,8.36229625 44.9563395,8.36229625 L40.9561262,8.36229625 L36.4687794,8.36229625 L34.6826231,21.9999588 L39.1698331,21.9999588 L40.3793908,12.7654588 L44.6228288,12.7654588 C45.7790357,12.7654588 46.7304577,12.6612338 47.4779157,12.4520963 C48.2253736,12.2432338 48.9415051,11.8840838 49.6267204,11.3743713 C50.425614,10.7730838 51.0877107,10.0341588 51.6132842,9.15732125 C52.1388576,8.28103375 52.4636133,7.36858375 52.5876881,6.42079625 C52.7091637,5.49335875 52.6298215,4.60675875 52.3504824,3.76058375" id="Fill-2" fill="#FFFFFF" mask="url(#mask-2)"></path>
            </g>
        </g>
    </g>
</svg>