<?xml version="1.0" encoding="utf-8"?><svg width="128" height="102" viewBox="0 0 128 102" xmlns="http://www.w3.org/2000/svg" xmlns:xlink="http://www.w3.org/1999/xlink"><svg width="18" height="18" viewBox="-1 -1 18 18" id="icon-arrow-down" x="110" y="54"><path fill="#666" d="M8.5 9.2L4.376 5 3 6.4 8.5 12l1.376-1.4L14 6.4 12.624 5z"/></svg><svg width="18" height="18" viewBox="-1 -1 18 18" id="icon-arrow-down-active" y="84"><path fill="#00a4ff" d="M8.5 9.2L4.376 5 3 6.4 8.5 12l1.376-1.4L14 6.4 12.624 5z"/></svg><svg width="18" height="18" viewBox="-1 -1 18 18" id="icon-arrow-right-active" x="110" y="36"><path fill="#00A4FF" fill-rule="evenodd" d="M5 5.375L8.2 8.5 5 11.625 6.4 13l3.2-3.125L11 8.5 6.401 4z"/></svg><svg width="18" height="18" viewBox="-1 -1 18 18" id="icon-arrow-up-active" x="18" y="84"><path fill="#00a4ff" d="M8.5 7.8L4.376 12 3 10.6 8.5 5l1.376 1.4L14 10.6 12.624 12z"/></svg><svg width="18" height="18" viewBox="-1 -1 18 18" id="icon-back" x="60" y="50"><path fill="#666" fill-rule="evenodd" d="M10.769 1L4 8l1.231 1.273L10.769 15 12 13.727 6.462 8 12 2.273z"/></svg><svg width="18" height="18" viewBox="-1 -1 18 18" id="icon-close" x="84" y="44"><path fill="#666" fill-rule="evenodd" d="M8.778 8.364l4.95 4.95-1.414 1.414-4.95-4.95-4.95 4.95L1 13.314l4.95-4.95L1 3.414 2.414 2l4.95 4.95L12.314 2l1.414 1.414z"/></svg><svg width="18" height="18" viewBox="-1 -1 18 18" id="icon-gou" x="54" y="84"><path fill="#00A4FF" fill-rule="evenodd" d="M6.789 10.143L13.632 3 15 4.429 6.789 13 2 8l1.368-1.429z"/></svg><svg width="18" height="18" viewBox="-1 -1 18 18" id="icon-link-active" x="84" y="62"><path fill="#00A4FF" fill-rule="evenodd" d="M3 3h3v1H4v8h8V9.999h1V13H3V3zm4.665 0H13v5.337l-2.291-2.292L7.756 9 7 8.245l2.955-2.954L7.665 3z"/></svg><svg width="50" height="50" viewBox="-1 -1 50 50" id="icon-play"><path fill="#FFF" fill-rule="evenodd" d="M24 48C10.745 48 0 37.255 0 24S10.745 0 24 0s24 10.745 24 24-10.745 24-24 24zm8.115-23.18a1 1 0 0 0 0-1.64l-11.542-8.079a1 1 0 0 0-1.573.82v16.158a1 1 0 0 0 1.573.82l11.542-8.08z" opacity=".9"/></svg><svg width="26" height="26" viewBox="-1 -1 26 26" id="icon-quote-left" x="84"><path fill-rule="evenodd" d="M23 6.908c-1.341.494-2.358 1.257-3.05 2.29-.693 1.034-1.04 2.269-1.04 3.706H23V22h-8.381v-9.096c0-1.257.224-2.425.67-3.503a9.722 9.722 0 0 1 1.81-2.864 11.144 11.144 0 0 1 2.65-2.122A15.67 15.67 0 0 1 23 3v3.908zm-13.619 0c-1.341.494-2.358 1.257-3.05 2.29-.694 1.034-1.04 2.269-1.04 3.706h4.09V22H1v-9.096c0-1.257.223-2.425.67-3.503a9.722 9.722 0 0 1 1.81-2.864 11.144 11.144 0 0 1 2.65-2.122A15.67 15.67 0 0 1 9.38 3v3.908z" opacity=".1"/></svg><svg width="26" height="26" viewBox="-1 -1 26 26" id="icon-quote-right" x="34" y="50"><path fill-rule="evenodd" d="M1 6.878c1.341.49 2.358 1.249 3.05 2.274.693 1.025 1.04 2.251 1.04 3.678H1v9.027h8.381V12.83c0-1.248-.224-2.408-.67-3.477A9.64 9.64 0 0 0 6.9 6.51a11.13 11.13 0 0 0-2.65-2.107A15.731 15.731 0 0 0 1 3v3.878zm13.619 0c1.341.49 2.358 1.249 3.05 2.274.694 1.025 1.04 2.251 1.04 3.678h-4.09v9.027H23V12.83c0-1.248-.223-2.408-.67-3.477a9.64 9.64 0 0 0-1.81-2.842 11.13 11.13 0 0 0-2.65-2.107A15.731 15.731 0 0 0 14.62 3v3.878z" opacity=".1"/></svg><svg width="18" height="18" viewBox="-1 -1 18 18" id="icon-slider-arrow-left" x="36" y="84"><title>箭头 左</title><path d="M11 1L3 8l8 7V1zm0 11.667L5.667 8 11 3.333v9.334z" fill="#000" fill-rule="nonzero"/></svg><svg width="18" height="18" viewBox="-1 -1 18 18" id="icon-slider-arrow-left-disabled" x="84" y="26"><title>箭头 左</title><path d="M11 1L3 8l8 7V1zm0 11.667L5.667 8 11 3.333v9.334z" fill="#c2c2c2" fill-rule="nonzero"/></svg><svg width="18" height="18" viewBox="-1 -1 18 18" id="icon-slider-arrow-left-primary" x="72" y="84"><title>箭头 左</title><path d="M11 1L3 8l8 7V1zm0 11.667L5.667 8 11 3.333v9.334z" fill="#00A4FF" fill-rule="nonzero"/></svg><svg width="18" height="18" viewBox="-1 -1 18 18" id="icon-slider-arrow-right" x="90" y="84"><title>箭头</title><path d="M5 1l8 7-8 7V1zm0 11.667L10.333 8 5 3.333v9.334z" fill="#000" fill-rule="nonzero"/></svg><svg width="18" height="18" viewBox="-1 -1 18 18" id="icon-slider-arrow-right-disabled" x="110"><title>箭头</title><path d="M5 1l8 7-8 7V1zm0 11.667L10.333 8 5 3.333v9.334z" fill="#c2c2c2" fill-rule="nonzero"/></svg><svg width="18" height="18" viewBox="-1 -1 18 18" id="icon-slider-arrow-right-primary" x="110" y="18"><title>箭头</title><path d="M5 1l8 7-8 7V1zm0 11.667L10.333 8 5 3.333v9.334z" fill="#00A4FF" fill-rule="nonzero"/></svg><svg id="video-close" width="34" height="34" viewBox="-1 -1 34 34" y="50"><style>.arst0{fill:#fff}</style><path id="arXMLID_1_" transform="rotate(45.001 16.021 16)" class="arst0" d="M15-2.4h2v36.7h-2z"/><path id="arXMLID_2_" transform="rotate(134.999 16.02 16)" class="arst0" d="M15-2.4h2v36.7h-2z"/></svg><svg width="34" height="34" viewBox="-1 -1 34 34" id="video-close-#00a4ff" x="50"><style>.asst0{fill:#00a4ff}</style><path class="asst0" d="M28.31 2.267l1.414 1.415-25.95 25.95-1.415-1.414z"/><path class="asst0" d="M29.754 28.289l-1.415 1.414L2.39 3.753l1.414-1.415z"/></svg></svg>