<svg width="1024" height="1024" xmlns="http://www.w3.org/2000/svg" class="icon">
 <defs>
  <style type="text/css"/>
 </defs>
 <g>
  <title>background</title>
  <rect fill="none" id="canvas_background" height="402" width="582" y="-1" x="-1"/>
 </g>
 <g>
  <title>Layer 1</title>
  <rect id="svg_2" height="670.000068" width="734.285789" y="161.285689" x="144.14282" stroke-width="1.5" stroke="#000" fill="#fff"/>
  <path id="svg_1" d="m512,1024c-282.77029,0 -512,-229.22971 -512,-512s229.22971,-512 512,-512s512,229.22971 512,512s-229.22971,512 -512,512zm134.72914,-497.44457c0.73143,-5.85143 1.75543,-11.59314 1.75543,-17.62743a25.30743,25.30743 0 0 0 -25.19771,-25.38057c-13.93372,0 -25.23429,11.33714 -25.23429,25.38057a89.96571,89.96571 0 0 1 -89.52686,90.18514a89.96571,89.96571 0 0 1 -89.6,-90.18514l0,-96.03657a89.96571,89.96571 0 0 1 89.6,-90.22172a89.6,89.6 0 0 1 82.50515,55.25943a25.088,25.088 0 0 0 33.06057,13.42172a25.41714,25.41714 0 0 0 13.34857,-33.28a140.032,140.032 0 0 0 -110.99429,-84.84572c0,-0.36571 0.21943,-0.73143 0.21943,-1.09714l0,-34.34057a29.36686,29.36686 0 0 0 14.77486,-25.19772a29.62286,29.62286 0 0 0 -29.54971,-29.73257a29.62286,29.62286 0 0 0 -29.54972,29.73257c0,10.89829 6.10743,20.00458 14.77486,25.23429l0,34.26743c0,0.36571 0.18286,0.62171 0.18286,0.95086a140.288,140.288 0 0 0 -128.768,139.84914l0,96.03657c0,8.30171 1.06057,16.34743 2.41371,24.24686c-72.04571,29.25714 -115.56571,78.592 -114.944,133.01028c0.512,44.94629 30.976,85.94286 83.85829,114.72457c4.864,19.34629 22.08914,33.68229 42.78857,33.68229c24.50285,0 44.32457,-19.968 44.32457,-44.61714c0,-24.64915 -19.85829,-44.61715 -44.32457,-44.61715a43.88571,43.88571 0 0 0 -33.28,15.43315c-34.15772,-20.91886 -53.68686,-47.39657 -54.016,-75.04457c-0.36572,-36.49829 33.35314,-72.22858 87.95428,-95.01258c22.82057,46.70172 70.144,79.17715 125.22057,79.17715c57.41715,0 106.78858,-35.10857 128.36572,-85.02857c56.75886,20.55314 91.31886,55.88114 91.75771,95.78057c0.36572,30.90285 -23.14971,60.85485 -64.58514,83.63885a44.10514,44.10514 0 0 0 -36.16914,-18.944c-24.46629,0 -44.288,19.968 -44.288,44.61715c0,24.64914 19.82171,44.61714 44.288,44.61714a44.25143,44.25143 0 0 0 41.17943,-28.34286c0.18285,-0.07314 0.40228,0 0.58514,-0.10971c63.04914,-30.28114 98.92571,-76.17829 98.34057,-125.952c-0.65829,-57.92914 -46.51886,-107.44686 -121.27086,-133.632zm-199.89943,-28.45257a22.34514,22.34514 0 0 0 3.65715,31.30514c1.38971,1.09714 24.39314,19.01714 57.78285,19.01714c16.71315,0 36.02286,-4.49828 56.53943,-17.73714a22.38171,22.38171 0 0 0 6.656,-30.82971a22.016,22.016 0 0 0 -30.61028,-6.72915c-33.71886,21.79657 -59.97715,3.47429 -63.08572,1.13372a22.016,22.016 0 0 0 -30.93943,3.84zm20.77258,-81.84686c0,24.64914 19.82171,44.61714 44.288,44.61714c24.50285,0 44.32457,-19.968 44.32457,-44.61714c0,-24.61257 -19.85829,-44.61714 -44.32457,-44.61714c-24.46629,0 -44.288,20.00457 -44.288,44.61714z"/>
 </g>
</svg>