<?xml version="1.0" encoding="utf-8"?><svg width="138" height="122" viewBox="0 0 138 122" xmlns="http://www.w3.org/2000/svg" xmlns:xlink="http://www.w3.org/1999/xlink"><svg data-name="图层 1" width="18" height="18" viewBox="-1 -1 18 18" id="c" x="86" y="38"><title>复-常态</title><path fill="#fff" d="M.5.5h15v15H.5z"/><path d="M15 1v14H1V1h14m1-1H0v16h16V0z" fill="#ddd"/></svg><svg data-name="图层 1" width="18" height="18" viewBox="-1 -1 18 18" id="c-c" x="18" y="104"><title>复-选中</title><path d="M0 0h16v16H0z" fill="#00a4ff"/><path fill="#fff" d="M13.8 5.4L12.5 4l-6 6.3-2.4-2.5-1.3 1.4 2.4 2.4L6.5 13l1.3-1.4 6-6.2z"/></svg><svg data-name="图层 1" width="18" height="18" viewBox="-1 -1 18 18" id="c-d" x="76" y="84"><title>复-不可点</title><path fill="#f7f8fa" d="M.5.5h15v15H.5z"/><path d="M15 1v14H1V1h14m1-1H0v16h16V0z" fill="#ddd"/></svg><svg data-name="图层 1" width="18" height="18" viewBox="-1 -1 18 18" id="c-d-c" x="76" y="66"><title>复-不可点02</title><path fill="#f7f8fa" d="M.5.5h15v15H.5z"/><path d="M15 1v14H1V1h14m1-1H0v16h16z" fill="#ddd"/><path fill="#ddd" d="M13.8 5.4L12.5 4l-6 6.3-2.4-2.5-1.3 1.4 2.4 2.4L6.5 13l1.3-1.4 6-6.2z"/></svg><svg id="global-1616-1" viewBox="-6 6 18 18" width="18" height="18" y="104"><style>.est0{fill:#fff}.est1{fill:none;stroke:#fff;stroke-miterlimit:10}</style><g id="eXMLID_2_"><g id="eXMLID_41_"><path id="eXMLID_42_" class="est0" d="M3 8c-3.9 0-7 3.1-7 7s3.1 7 7 7 7-3.1 7-7-3.1-7-7-7zm0 13c-3.3 0-6-2.7-6-6s2.7-6 6-6 6 2.7 6 6-2.7 6-6 6z"/></g></g><path id="eXMLID_3_" class="est1" d="M-2.5 12.1s1.4-.4 3.2-.8c1 .7-.3 2.2-.9 2.6s0 1.7 0 1.7v.9h.9l.9 1.5.9.5.9-.3s1.1-1.5 0-3.5c1.9 0 1.7-1.7 1.7-1.7l4.2.7s-.9-4.1-5.1-5C0 7.8-2.3 11-2.5 12.1z"/></svg><svg width="20" height="20" viewBox="-1 -1 20 20" id="icon_w2" x="104" y="68"><title>Group 20</title><g fill="none" fill-rule="evenodd"><circle fill="#F74042" cx="9" cy="9" r="9"/><path fill="#FFF" d="M8 4h2v6H8zM8 12h2v2H8z"/></g></svg><svg width="20" height="20" viewBox="-1 -1 20 20" id="icon_y2" x="66" y="38"><title>Oval</title><g fill="none" fill-rule="evenodd"><circle fill="#0ABF5B" cx="9" cy="9" r="9"/><path d="M8.265 13.064l-.022.023L4 8.844 5.414 7.43l2.836 2.835L12.515 6l1.414 1.414-5.657 5.657-.007-.007z" fill="#FFF"/></g></svg><svg width="9" height="14" viewBox="-1 -1 9 14" id="left" x="104" y="88"><title>Combined Shape</title><path d="M2.606 6l3.96 3.96a.8.8 0 1 1-1.132 1.131L.91 6.566a.8.8 0 0 1 0-1.132L5.434.91A.8.8 0 1 1 6.566 2.04L2.606 6z" fill="#00A4FF" fill-rule="evenodd"/></svg><svg width="38" height="38" viewBox="-1 -1 38 38" id="line-mail" x="66"><title>Group 4</title><g fill="none" fill-rule="evenodd"><circle stroke="#999" cx="18" cy="18" r="17.5"/><path d="M25.875 11.25h-15.75c-.62 0-1.125.504-1.125 1.125v11.25c0 .62.504 1.125 1.125 1.125h15.75c.62 0 1.125-.504 1.125-1.125v-11.25c0-.62-.504-1.125-1.125-1.125z" fill="#999" fill-rule="nonzero"/><path stroke="#FFF" d="M7.88 13.578l10.13 4.65 10.233-4.65"/></g></svg><svg width="38" height="38" viewBox="-1 -1 38 38" id="line-oa" y="66"><title>Group 4 Copy</title><g fill="none" fill-rule="evenodd"><circle stroke="#999" cx="18" cy="18" r="17.5"/><path d="M14.248 23.831l-2.53 1.012.505-2.015-.558-.446C9.963 21.022 9 19.181 9 17.23 9 13.286 12.943 10 17.898 10c4.954 0 8.898 3.286 8.898 7.23 0 3.943-3.944 7.229-8.898 7.229-1.134 0-2.237-.173-3.268-.505l-.382-.123zm6.987-7.158a1.112 1.112 0 1 0 0-2.224 1.112 1.112 0 0 0 0 2.224zm-6.674 0a1.112 1.112 0 1 0 0-2.224 1.112 1.112 0 0 0 0 2.224z" fill="#999"/></g></svg><svg width="38" height="38" viewBox="-1 -1 38 38" id="line-qq" x="38" y="66"><title>Oval 2</title><g fill="none" fill-rule="evenodd"><circle stroke="#999" cx="18" cy="18" r="17.5"/><path d="M25.481 20.335a25.178 25.178 0 0 0-.596-1.555l-.802-1.853c0-.022.01-.386.01-.575 0-3.168-1.617-6.352-5.593-6.352-3.977 0-5.594 3.184-5.594 6.352 0 .189.01.553.01.575l-.802 1.853c-.22.53-.437 1.082-.596 1.555-.758 2.258-.513 3.192-.326 3.213.402.045 1.566-1.7 1.566-1.7 0 1.01.562 2.329 1.778 3.28-.455.13-1.013.33-1.37.575-.323.22-.283.444-.225.536.255.398 4.373.254 5.562.13 1.188.124 5.306.268 5.56-.13.059-.09.099-.315-.223-.536-.358-.245-.917-.445-1.372-.575 1.218-.952 1.779-2.27 1.779-3.28 0 0 1.16 1.745 1.565 1.7.182-.02.428-.955-.33-3.213z" fill="#999" fill-rule="nonzero"/></g></svg><svg width="66" height="66" viewBox="-1 -1 66 66" id="loginerror"><title>Artboard Copy 2</title><g transform="translate(2 1)" fill-rule="nonzero" fill="none"><path d="M30 17v1c-2.911 0-5.25 2.5-5.25 5.545V25h10.5v-1.455C35.25 20.5 32.911 18 30 18v-1zm0 0v-1c3.853 0 7 3.363 7 7.545V27H23v-3.455C23 19.363 26.147 16 30 16v1z" fill="#334966"/><path d="M32.248 41c-.281.644-.519 1.312-.709 2H18V25h24v7.54c-.688.189-1.356.427-2 .708V27H20v14h12.248z" fill="#334966"/><circle fill="#00A4FF" cx="30" cy="32" r="3"/><path fill="#00A4FF" d="M29 33h2v6h-2z"/><path d="M45.484 50v2H0V0h60v47h-1.935V2H1.935v48h43.549z" fill="#334966"/><path fill="#334966" d="M0 10h60v2H0z"/><circle stroke="#334966" stroke-width="2" cx="46" cy="47" r="14"/><circle fill="#00A4FF" cx="46" cy="47" r="13"/><path fill="#334966" d="M46 5h2v2h-2zM50 5h2v2h-2zM54 5h2v2h-2z"/><path d="M46 45.586l4.95-4.95 1.414 1.414-4.95 4.95 4.95 4.95-1.414 1.414-4.95-4.95-4.95 4.95-1.414-1.414 4.95-4.95-4.95-4.95 1.414-1.414 4.95 4.95z" fill="#FFF"/></g></svg><svg width="34" height="34" viewBox="-1 -1 34 34" id="oab-qq" x="104" y="34"><title>Group 2</title><g fill="none" fill-rule="evenodd"><circle fill="#00A4FF" cx="16" cy="16" r="16"/><path d="M22.516 17.646a23.5 23.5 0 0 0-.556-1.451l-.75-1.73c0-.02.01-.36.01-.536C21.22 10.972 19.711 8 16 8c-3.712 0-5.221 2.972-5.221 5.929 0 .176.01.516.01.536l-.75 1.73c-.204.494-.407 1.01-.556 1.45-.707 2.108-.478 2.98-.304 3 .375.042 1.461-1.587 1.461-1.587 0 .943.525 2.174 1.66 3.062-.424.12-.945.307-1.28.536-.3.205-.262.414-.208.5.238.372 4.081.238 5.19.122 1.11.116 4.953.25 5.19-.122.055-.084.092-.293-.208-.5-.334-.229-.856-.415-1.28-.536 1.136-.889 1.66-2.12 1.66-3.062 0 0 1.082 1.629 1.46 1.587.17-.02.4-.891-.308-2.999z" fill="#FFF" fill-rule="nonzero"/></g></svg><svg width="34" height="34" viewBox="-1 -1 34 34" id="oab-wx" x="104"><title>Group 2 Copy</title><g fill="none" fill-rule="evenodd"><circle fill="#62BC00" cx="16" cy="16" r="16"/><g transform="translate(7.2 8.8)" fill="#FFF"><path d="M14.699 9.164a.757.757 0 0 1-.751-.768c0-.427.333-.769.75-.769.418 0 .752.342.752.769 0 .405-.334.768-.751.768m-3.702 0a.757.757 0 0 1-.75-.768c0-.427.333-.769.75-.769s.751.342.751.769c0 .405-.334.768-.75.768m5.492 4.312c1.17-.862 1.91-2.145 1.91-3.553 0-2.607-2.465-4.71-5.525-4.71-3.06 0-5.526 2.103-5.526 4.71 0 2.607 2.465 4.71 5.526 4.71.636 0 1.232-.085 1.807-.253.041-.021.103-.021.165-.021.102 0 .205.042.287.084l1.212.715c.041.021.062.042.103.042a.186.186 0 0 0 .185-.19c0-.041-.021-.083-.021-.146 0-.021-.164-.59-.246-.947-.021-.042-.021-.084-.021-.126a.3.3 0 0 1 .144-.315"/><path d="M8.798 4.72a.862.862 0 0 1-.859-.879c0-.49.38-.878.859-.878s.858.388.858.878c0 .47-.38.878-.858.878m-4.4 0a.862.862 0 0 1-.857-.878c0-.49.379-.878.858-.878s.858.388.858.878c0 .47-.38.878-.858.878M6.649 0C2.986 0 0 2.518 0 5.645c0 1.7.885 3.232 2.306 4.26a.48.48 0 0 1 .185.379c0 .041-.02.104-.02.146-.103.42-.289 1.113-.31 1.134-.02.063-.04.105-.04.168 0 .126.102.23.226.23.041 0 .082-.02.123-.042l1.462-.86a.684.684 0 0 1 .535-.084c.68.189 1.421.315 2.162.315H7a4.434 4.434 0 0 1-.226-1.385c0-2.833 2.718-5.142 6.053-5.142h.37C12.724 2.057 9.965 0 6.65 0"/></g></g></svg><svg width="9" height="14" viewBox="-1 -1 9 14" id="right" x="124" y="68"><title>Combined Shape</title><path d="M4.394 6L.434 9.96a.8.8 0 1 0 1.132 1.131L6.09 6.566a.8.8 0 0 0 0-1.132L1.566.91A.8.8 0 1 0 .434 2.04L4.394 6z" fill="#00A4FF" fill-rule="evenodd"/></svg></svg>