<?xml version="1.0" encoding="UTF-8"?><svg width="591" height="368" viewBox="0 0 591 368" xmlns="http://www.w3.org/2000/svg" xmlns:xlink="http://www.w3.org/1999/xlink"><svg width="202" height="92" viewBox="-1 -1 202 92" id="ai"><title>分类配图-pc</title><defs><linearGradient x1="8.053%" y1="50%" y2="100%" id="aa"><stop stop-color="#00CEE5" offset="0%"/><stop stop-color="#067FF8" offset="100%"/></linearGradient><linearGradient x1="-40.117%" y1="-73.276%" y2="100%" id="ab"><stop stop-color="#CCF3FA" offset="0%"/><stop stop-color="#CBDEFE" offset="100%"/></linearGradient><path id="ac" d="M0 0h29v34H0z"/><path id="ae" d="M0 0h18v18H0z"/></defs><g transform="translate(-1350 -1430)" fill="none" fill-rule="evenodd"><path fill-rule="nonzero" d="M0 460h1920v2056H0z"/><path d="M1458.5 1599c40.04 0 72.5-32.46 72.5-72.5s-32.46-72.5-72.5-72.5-72.5 32.46-72.5 72.5 32.46 72.5 72.5 72.5z" stroke="url(#aa)" opacity=".7" stroke-dasharray="2" fill-rule="nonzero"/><circle fill="url(#ab)" fill-rule="nonzero" cx="1516" cy="1484" r="8"/><path d="M1462.26 1436.115l-4.614 7.077-.838-.546 5.11-7.838.082.054v-.058c8.955 5.064 15 14.674 15 25.696 0 16.292-13.208 29.5-29.5 29.5s-29.5-13.208-29.5-29.5 13.208-29.5 29.5-29.5l.251.001.249-.001c2.257 0 4.454.258 6.563.746L1447 1436v-3.996c-15.51.267-28 12.923-28 28.496 0 15.74 12.76 28.5 28.5 28.5s28.5-12.76 28.5-28.5c0-10.337-5.504-19.39-13.74-24.385z" fill="url(#aa)" fill-rule="nonzero"/><g transform="translate(1434 1443)"><mask id="ad" fill="#fff"><use xlink:href="#ac"/></mask><path d="M20.174 34H4.414v-4.385c0-.423.03-.85.053-1.194a9.737 9.737 0 0 0-.032-2.222v-.073c-.208-1.472-.62-2.542-1.278-3.42l-.037-.054-.467-.687A14.191 14.191 0 0 1 0 13.842v-1.481l.2-1.601C.934 4.637 6.417 0 12.973 0c6.664 0 12.269 5.05 12.774 11.497v.482c0 .02.018.06.032.096.091.282.151.574.177.868a54.099 54.099 0 0 0 2.327 5.084l.717 1.44-1.57.317c-.276.054-.57.759-.57 1.714v3.16c0 .604-.281 2.58-3.89 2.58h-.666c-.639 0-1.134.317-1.507.999a5.868 5.868 0 0 0-.597 2.722L20.174 34z" fill="url(#ab)" mask="url(#ad)"/></g><g transform="translate(1437 1447)"><mask id="af" fill="#fff"><use xlink:href="#ae"/></mask><path d="M3.864 5.915c.026-1.118.972-2.003 2.114-1.98 1.142.026 2.045.955 2.02 2.071-.025 1.1-.942 1.98-2.065 1.98-1.155-.012-2.08-.937-2.07-2.065v-.006zM5.2 11.844h1.48l.285-1.763a4.339 4.339 0 0 0 1.174-.484L9.6 10.63 10.63 9.58l-1.038-1.45c.222-.365.386-.76.486-1.175l1.75-.31V5.164l-1.75-.28c-.1-.414-.264-.81-.484-1.178l1.036-1.442L9.585 1.22 8.14 2.226a4.257 4.257 0 0 0-1.184-.489L6.666 0h-1.48l-.31 1.737c-.418.104-.817.27-1.184.49L2.257 1.198 1.213 2.255l1.015 1.444c-.214.37-.375.764-.478 1.178L0 5.165v1.48l1.75.311c.103.412.266.805.486 1.17L1.22 9.596l1.05 1.05 1.45-1.039c.362.218.756.38 1.17.479l.31 1.758zm6.953 1.183c.323-.79 1.24-1.175 2.048-.857l.021.008a1.573 1.573 0 0 1 .846 2.07c-.328.785-1.247 1.16-2.048.837a1.59 1.59 0 0 1-.867-2.079v.02zm-.803 4.556l1.041.414.721-1.157c.323.05.648.05.968 0l.727 1.16 1.049-.414-.312-1.323c.27-.192.505-.422.7-.686l1.322.305.422-1.04-1.144-.717a3.302 3.302 0 0 0 0-.969L18 12.447l-.423-1.048-1.319.29a3.284 3.284 0 0 0-.69-.697l.307-1.31-1.017-.432-.738 1.136a2.936 2.936 0 0 0-.975 0l-.708-1.157-1.055.414.294 1.326a3.31 3.31 0 0 0-.69.688l-1.321-.308-.423 1.038 1.147.743a3.532 3.532 0 0 0 0 .974l-1.16.725.422 1.048 1.33-.308c.19.264.415.5.671.702l-.301 1.312z" fill="url(#aa)" mask="url(#af)"/></g><g opacity=".6" transform="translate(1354 1479)" fill="url(#ab)" fill-rule="nonzero"><ellipse opacity=".9" cx="3.398" cy="29.615" rx="3.398" ry="3.385"/><ellipse opacity=".9" cx="3.398" cy="16.077" rx="3.398" ry="3.385"/><ellipse opacity=".9" cx="3.398" cy="3.385" rx="3.398" ry="3.385"/><ellipse opacity=".8" cx="24.639" cy="29.615" rx="3.398" ry="3.385"/><ellipse opacity=".8" cx="24.639" cy="16.077" rx="3.398" ry="3.385"/><ellipse opacity=".8" cx="24.639" cy="3.385" rx="3.398" ry="3.385"/><ellipse opacity=".7" cx="45.88" cy="29.615" rx="3.398" ry="3.385"/><ellipse opacity=".7" cx="45.88" cy="16.077" rx="3.398" ry="3.385"/><ellipse opacity=".7" cx="45.88" cy="3.385" rx="3.398" ry="3.385"/><ellipse cx="67.12" cy="29.615" rx="3.398" ry="3.385"/><ellipse cx="67.12" cy="16.077" rx="3.398" ry="3.385"/><ellipse cx="67.12" cy="3.385" rx="3.398" ry="3.385"/><ellipse opacity=".5" cx="88.361" cy="29.615" rx="3.398" ry="3.385"/><ellipse opacity=".5" cx="88.361" cy="16.077" rx="3.398" ry="3.385"/><ellipse opacity=".5" cx="88.361" cy="3.385" rx="3.398" ry="3.385"/><ellipse opacity=".4" cx="109.602" cy="29.615" rx="3.398" ry="3.385"/><ellipse opacity=".4" cx="109.602" cy="16.077" rx="3.398" ry="3.385"/><ellipse opacity=".4" cx="109.602" cy="3.385" rx="3.398" ry="3.385"/></g><path opacity=".079" fill-rule="nonzero" d="M1350 1430h200v90h-200z"/></g></svg><svg width="13" height="9" viewBox="-1 -1 13 9" id="arrow" x="534" y="165"><title>Combined-Shape</title><path d="M5.5 4.2L9.624 0 11 1.4 5.5 7 4.124 5.6 0 1.4 1.376 0z" fill="#B3B3B3" fill-rule="nonzero"/></svg><svg width="13" height="9" viewBox="-1 -1 13 9" id="arrow-active" x="574" y="152"><title>Combined-Shape</title><path d="M5.5 4.2L9.624 0 11 1.4 5.5 7 4.124 5.6 0 1.4 1.376 0z" fill="#00a4ff" fill-rule="nonzero"/></svg><svg width="202" height="92" viewBox="-1 -1 202 92" id="base" x="202" y="92"><title>分类配图-pc</title><defs><linearGradient x1="8.053%" y1="50%" y2="100%" id="da"><stop stop-color="#00CEE5" offset="0%"/><stop stop-color="#067FF8" offset="100%"/></linearGradient><linearGradient x1="-40.117%" y1="-73.276%" y2="100%" id="db"><stop stop-color="#CCF3FA" offset="0%"/><stop stop-color="#CBDEFE" offset="100%"/></linearGradient><linearGradient x1="-40.117%" y1="-73.276%" y2="100%" id="dc"><stop stop-color="#CCF3FA" offset="0%"/><stop stop-color="#AFDBFF" offset="100%"/></linearGradient><filter x="-15%" y="-33.3%" width="130%" height="166.7%" filterUnits="objectBoundingBox" id="dd"><feGaussianBlur stdDeviation="10" in="SourceGraphic"/></filter></defs><g transform="translate(-1350 -854)" fill="none" fill-rule="evenodd"><path fill-rule="nonzero" d="M0 460h1920v2056H0z"/><circle stroke="url(#da)" fill-rule="nonzero" cx="1531.5" cy="883.5" r="4.5"/><path d="M1531.23 944.179l-.996.085a72.31 72.31 0 0 0-.197-1.979l.993-.113c.076.668.143 1.336.2 2.007zm-.456-4.012l-.99.14a71.838 71.838 0 0 0-.306-1.964l.986-.168c.112.662.216 1.326.31 1.992zm-.676-3.978l-.981.195c-.13-.65-.268-1.3-.415-1.945l.975-.222c.15.655.29 1.312.42 1.972zm-.894-3.922l-.968.249a71.42 71.42 0 0 0-.52-1.915l.96-.276c.185.645.361 1.292.528 1.942zm-1.113-3.88l-.953.303c-.2-.63-.41-1.258-.627-1.883l.944-.329c.22.634.433 1.27.636 1.91zm-1.33-3.813l-.934.355a71.53 71.53 0 0 0-.732-1.849l.925-.38c.256.62.503 1.245.742 1.874zm-1.54-3.74l-.914.407a71.634 71.634 0 0 0-.833-1.801l.902-.432c.29.604.571 1.213.844 1.826zm-1.725-3.601l-.89.456a71.794 71.794 0 0 0-.931-1.756l.877-.48c.323.588.638 1.182.944 1.78zm-1.94-3.537l-.862.505a71.999 71.999 0 0 0-1.026-1.7l.849-.528c.354.57.701 1.144 1.04 1.723zm-2.136-3.432l-.834.552a72.157 72.157 0 0 0-1.118-1.64l.818-.575c.386.55.764 1.104 1.134 1.663zm-2.318-3.301l-.803.597a72.272 72.272 0 0 0-1.207-1.577l.786-.619c.415.528.823 1.06 1.224 1.599zm-2.501-3.175l-.768.64a72.406 72.406 0 0 0-1.292-1.506l.75-.661c.444.503.88 1.012 1.31 1.527zm-2.674-3.034l-.732.682c-.451-.485-.91-.963-1.374-1.435l.713-.701c.47.478.935.963 1.393 1.454zm-2.841-2.886l-.693.721c-.478-.459-.962-.912-1.452-1.357l.673-.74c.497.452.987.91 1.472 1.376zm-2.992-2.72l-.652.757a72.37 72.37 0 0 0-1.524-1.276l.631-.775a73.4 73.4 0 0 1 1.545 1.293zm-3.122-2.543l-.61.793c-.525-.404-1.055-.8-1.59-1.19l.587-.808c.543.394 1.08.796 1.613 1.205zm-3.194-2.322l-.566.824a72.113 72.113 0 0 0-1.652-1.102l.543-.84c.563.365 1.122.738 1.675 1.118zm-3.392-2.195l-.52.855a71.95 71.95 0 0 0-1.711-1.01l.495-.868c.584.333 1.162.674 1.736 1.023zm-3.505-2.001l-.472.882a71.774 71.774 0 0 0-1.764-.913l.447-.894c.6.3 1.197.608 1.788.925zm-3.611-1.804l-.422.906c-.6-.28-1.205-.55-1.813-.813l.397-.918c.616.266 1.23.541 1.838.825zm-3.702-1.6l-.37.929a71.477 71.477 0 0 0-1.855-.711l.345-.939c.63.232 1.257.472 1.88.721zm-3.79-1.393l-.32.948a71.426 71.426 0 0 0-1.89-.607l.292-.956c.642.196 1.281.401 1.917.615zm-3.866-1.18l-.266.963a71.461 71.461 0 0 0-1.922-.5l.239-.971c.652.16 1.302.33 1.949.507zm-3.926-.964l-.21.977c-.648-.14-1.297-.27-1.948-.392l.184-.983c.66.124 1.318.256 1.974.398zm-3.977-.744l-.156.988a71.924 71.924 0 0 0-1.966-.284l.129-.991c.666.086 1.33.182 1.993.287zm-4.006-.521l-.102.995a72.402 72.402 0 0 0-1.978-.175l.074-.997c.67.05 1.339.109 2.006.177zm-4.035-.3l-.047.999c-.66-.031-1.322-.053-1.985-.066l.02-1c.672.013 1.342.036 2.012.067zm-4.04-.079l.008 1a73.25 73.25 0 0 0-1.986.042l-.035-1c.67-.022 1.341-.037 2.013-.042zm-4.025.14l.062.998c-.662.042-1.322.092-1.982.15l-.089-.995c.668-.06 1.338-.11 2.01-.153zm-4.017.361l.116.993c-.659.078-1.316.164-1.972.26l-.144-.99a73.024 73.024 0 0 1 2-.263zm-3.995.582l.172.985c-.653.114-1.304.236-1.952.368l-.199-.98a72.676 72.676 0 0 1 1.98-.373zm-3.97.806l.226.974c-.646.15-1.29.309-1.93.477l-.254-.968c.65-.17 1.303-.33 1.958-.483zm-3.875 1.013l.28.96c-.636.186-1.27.38-1.9.583l-.306-.952c.639-.206 1.28-.403 1.926-.59zm-3.848 1.239l.333.943c-.625.22-1.247.45-1.865.688l-.36-.934a72.468 72.468 0 0 1 1.892-.697zm-3.77 1.45l.384.923c-.611.255-1.22.518-1.823.79l-.41-.912a72.577 72.577 0 0 1 1.849-.801zm-3.692 1.662l.436.9c-.597.288-1.19.585-1.778.89l-.46-.887c.596-.31 1.197-.61 1.802-.903zm-3.537 1.833l.484.875c-.58.32-1.154.65-1.725.986l-.508-.861a72.895 72.895 0 0 1 1.749-1zm-3.474 2.05l.532.847c-.561.352-1.117.712-1.668 1.08l-.555-.832a73.091 73.091 0 0 1 1.691-1.095zm-3.364 2.245l.578.816c-.54.382-1.074.772-1.604 1.17l-.6-.8a73.232 73.232 0 0 1 1.626-1.186zm-3.229 2.423l.622.783c-.518.412-1.03.83-1.538 1.256l-.643-.766a73.36 73.36 0 0 1 1.56-1.273zm-3.097 2.602l.664.748c-.495.44-.984.887-1.467 1.34l-.685-.73c.49-.459.986-.912 1.488-1.358zm-2.948 2.768l.705.71c-.47.466-.934.939-1.39 1.418l-.724-.69c.463-.486.933-.965 1.41-1.438zm-2.79 2.925l.742.67c-.444.492-.88.99-1.31 1.493l-.76-.65c.435-.51.878-1.014 1.327-1.513zm-2.632 3.082l.779.628a72.33 72.33 0 0 0-1.226 1.562l-.795-.607c.407-.533.821-1.06 1.242-1.583zm-2.387 3.126l.81.585a72.166 72.166 0 0 0-1.14 1.627l-.827-.563c.378-.555.764-1.105 1.157-1.65zm-2.272 3.336l.842.54c-.357.557-.707 1.119-1.049 1.686l-.856-.517c.347-.575.701-1.144 1.063-1.71zm-2.082 3.452l.87.493a71.867 71.867 0 0 0-.954 1.742l-.883-.468c.314-.593.637-1.182.967-1.767zm-1.89 3.567l.896.444a71.7 71.7 0 0 0-.856 1.792l-.908-.418c.281-.61.57-1.216.868-1.818zm-1.69 3.669l.92.393c-.26.608-.512 1.22-.755 1.836l-.93-.367c.246-.625.502-1.245.765-1.862zm-1.482 3.754l.94.341a71.439 71.439 0 0 0-.652 1.876l-.949-.315c.211-.637.432-1.271.66-1.902zm-1.274 3.84l.958.288c-.191.633-.373 1.27-.546 1.909l-.966-.262c.176-.648.36-1.293.554-1.936zm-1.055 3.895l.972.235c-.155.643-.302 1.289-.44 1.937l-.977-.207c.139-.657.287-1.312.445-1.965zm-.839 3.958l.984.18c-.12.65-.23 1.304-.33 1.958l-.989-.152c.103-.664.214-1.326.335-1.986zm-.616 3.99l.992.126a72.172 72.172 0 0 0-.221 1.974l-.996-.098c.066-.669.141-1.336.225-2.001z" fill="url(#da)" fill-rule="nonzero"/><g transform="translate(1448 855)"><path fill="url(#db)" fill-rule="nonzero" d="M53 16L26 29.564V62l27-17.145z"/><path stroke="url(#da)" d="M26.49 0L53 15.5v29.14L26.49 62 0 44.64V15.5z"/></g><g transform="translate(1507 902)" fill-rule="nonzero"><path fill="#E5F6FF" d="M13.93 0L0 25l26-12.5z"/><path fill="url(#dc)" d="M1 24l21.542-2.192L26 12z"/></g><path opacity=".079" fill-rule="nonzero" filter="url(#dd)" d="M1350 854h200v90h-200z"/><g opacity=".6" transform="translate(1354 904)" fill="url(#db)" fill-rule="nonzero"><circle opacity=".9" cx="3.5" cy="29.5" r="3.5"/><circle opacity=".9" cx="3.5" cy="16.5" r="3.5"/><circle opacity=".9" cx="3.5" cy="3.5" r="3.5"/><circle opacity=".8" cx="24.5" cy="29.5" r="3.5"/><circle opacity=".8" cx="24.5" cy="16.5" r="3.5"/><circle opacity=".8" cx="24.5" cy="3.5" r="3.5"/><circle opacity=".7" cx="46.5" cy="29.5" r="3.5"/><circle opacity=".7" cx="46.5" cy="16.5" r="3.5"/><circle opacity=".7" cx="46.5" cy="3.5" r="3.5"/><circle cx="67.5" cy="29.5" r="3.5"/><circle cx="67.5" cy="16.5" r="3.5"/><circle cx="67.5" cy="3.5" r="3.5"/><circle opacity=".5" cx="88.5" cy="29.5" r="3.5"/><circle opacity=".5" cx="88.5" cy="16.5" r="3.5"/><circle opacity=".5" cx="88.5" cy="3.5" r="3.5"/><circle opacity=".4" cx="109.5" cy="29.5" r="3.5"/><circle opacity=".4" cx="109.5" cy="16.5" r="3.5"/><circle opacity=".4" cx="109.5" cy="3.5" r="3.5"/></g><path d="M1448 871l26 13.5" stroke="url(#da)" opacity=".5" stroke-linecap="square" stroke-dasharray="3" fill-rule="nonzero"/><path d="M1474 884.5l27-13.5M1474 884.5l.5 32.5" stroke="#00A4FF" opacity=".5" stroke-linecap="square" stroke-dasharray="3" fill-rule="nonzero"/></g></svg><svg width="202" height="92" viewBox="-1 -1 202 92" id="data" y="184"><title>分类配图-pc</title><defs><linearGradient x1="8.053%" y1="50%" y2="100%" id="ea"><stop stop-color="#00CEE5" offset="0%"/><stop stop-color="#067FF8" offset="100%"/></linearGradient><linearGradient x1="-40.117%" y1="-73.276%" y2="100%" id="eb"><stop stop-color="#CCF3FA" offset="0%"/><stop stop-color="#CBDEFE" offset="100%"/></linearGradient><linearGradient x1="-40.117%" y1="-73.276%" y2="100%" id="ec"><stop stop-color="#CCF3FA" offset="0%"/><stop stop-color="#AFDBFF" offset="100%"/></linearGradient></defs><g transform="translate(-1350 -1245)" fill="none" fill-rule="evenodd"><path fill-rule="nonzero" d="M0 460h1920v2056H0z"/><circle stroke="url(#ea)" fill-rule="nonzero" cx="1402" cy="1276" r="4"/><path d="M1458.5 1414c40.04 0 72.5-32.46 72.5-72.5s-32.46-72.5-72.5-72.5-72.5 32.46-72.5 72.5 32.46 72.5 72.5 72.5z" stroke="url(#ea)" opacity=".7" stroke-dasharray="2" fill-rule="nonzero"/><path d="M1468 1304c16.016 0 29-12.984 29-29s-12.984-29-29-29-29 12.984-29 29 12.984 29 29 29z" stroke="url(#ea)" stroke-dasharray="1"/><circle fill="url(#eb)" cx="1468" cy="1275" r="15"/><path d="M1449 1275c.568-10.52 9.287-18.89 20-19v19h-20z"/><path d="M1449 1275c.568-10.52 9.287-18.89 20-19v19h-20z" fill="#DCF3FF" opacity=".34"/><path d="M1449 1275c.568-10.52 9.287-18.89 20-19v19h-20z" stroke="url(#ea)"/><g transform="translate(1507 1293)" fill-rule="nonzero"><path fill="#E5F6FF" d="M13.93 0L0 25l26-12.5z"/><path fill="url(#ec)" d="M1 24l21.542-2.192L26 12z"/></g><g opacity=".6" transform="translate(1354 1294)" fill="url(#eb)" fill-rule="nonzero"><circle opacity=".9" cx="3.385" cy="29.615" r="3.385"/><circle opacity=".9" cx="3.385" cy="16.077" r="3.385"/><circle opacity=".9" cx="3.385" cy="3.385" r="3.385"/><circle opacity=".8" cx="24.538" cy="29.615" r="3.385"/><circle opacity=".8" cx="24.538" cy="16.077" r="3.385"/><circle opacity=".8" cx="24.538" cy="3.385" r="3.385"/><circle opacity=".7" cx="45.692" cy="29.615" r="3.385"/><circle opacity=".7" cx="45.692" cy="16.077" r="3.385"/><circle opacity=".7" cx="45.692" cy="3.385" r="3.385"/><circle cx="66.846" cy="29.615" r="3.385"/><circle cx="66.846" cy="16.077" r="3.385"/><circle cx="66.846" cy="3.385" r="3.385"/><circle opacity=".5" cx="88" cy="29.615" r="3.385"/><circle opacity=".5" cx="88" cy="16.077" r="3.385"/><circle opacity=".5" cx="88" cy="3.385" r="3.385"/><circle opacity=".4" cx="109.154" cy="29.615" r="3.385"/><circle opacity=".4" cx="109.154" cy="16.077" r="3.385"/><circle opacity=".4" cx="109.154" cy="3.385" r="3.385"/></g><path opacity=".079" fill-rule="nonzero" d="M1350 1245h200v90h-200z"/></g></svg><svg width="202" height="92" viewBox="-1 -1 202 92" id="developer" x="202" y="184"><title>分类配图-pc</title><defs><linearGradient x1="8.053%" y1="50%" y2="100%" id="fb"><stop stop-color="#00CEE5" offset="0%"/><stop stop-color="#067FF8" offset="100%"/></linearGradient><linearGradient x1="-40.117%" y1="-73.276%" y2="100%" id="fc"><stop stop-color="#CCF3FA" offset="0%"/><stop stop-color="#AFDBFF" offset="100%"/></linearGradient><linearGradient x1="-40.117%" y1="-73.276%" y2="100%" id="fd"><stop stop-color="#CCF3FA" offset="0%"/><stop stop-color="#CBDEFE" offset="100%"/></linearGradient><rect id="fa" x="1412" y="2085" width="62" height="48" rx="2"/><mask id="fe" x="0" y="0" width="62" height="48" fill="#fff"><use xlink:href="#fa"/></mask></defs><g transform="translate(-1350 -2085)" fill-rule="nonzero" fill="none"><path d="M0 460h1920v2056H0z"/><path d="M1458.5 2254c40.04 0 72.5-32.46 72.5-72.5s-32.46-72.5-72.5-72.5-72.5 32.46-72.5 72.5 32.46 72.5 72.5 72.5z" stroke="url(#fb)" opacity=".7" stroke-dasharray="2"/><circle stroke="url(#fb)" fill="#FFF" cx="1488" cy="2094" r="3"/><g transform="translate(1507 2133)"><path fill="#E5F6FF" d="M13.93 0L0 25l26-12.5z"/><path fill="url(#fc)" d="M1 24l21.542-2.192L26 12z"/></g><g opacity=".6" transform="translate(1354 2133)" fill="url(#fd)"><ellipse opacity=".9" cx="3.398" cy="29.615" rx="3.398" ry="3.385"/><ellipse opacity=".9" cx="3.398" cy="16.077" rx="3.398" ry="3.385"/><ellipse opacity=".9" cx="3.398" cy="3.385" rx="3.398" ry="3.385"/><ellipse opacity=".8" cx="24.639" cy="29.615" rx="3.398" ry="3.385"/><ellipse opacity=".8" cx="24.639" cy="16.077" rx="3.398" ry="3.385"/><ellipse opacity=".8" cx="24.639" cy="3.385" rx="3.398" ry="3.385"/><ellipse opacity=".7" cx="45.88" cy="29.615" rx="3.398" ry="3.385"/><ellipse opacity=".7" cx="45.88" cy="16.077" rx="3.398" ry="3.385"/><ellipse opacity=".7" cx="45.88" cy="3.385" rx="3.398" ry="3.385"/><ellipse cx="67.12" cy="29.615" rx="3.398" ry="3.385"/><ellipse cx="67.12" cy="16.077" rx="3.398" ry="3.385"/><ellipse cx="67.12" cy="3.385" rx="3.398" ry="3.385"/><ellipse opacity=".5" cx="88.361" cy="29.615" rx="3.398" ry="3.385"/><ellipse opacity=".5" cx="88.361" cy="16.077" rx="3.398" ry="3.385"/><ellipse opacity=".5" cx="88.361" cy="3.385" rx="3.398" ry="3.385"/><ellipse opacity=".4" cx="109.602" cy="29.615" rx="3.398" ry="3.385"/><ellipse opacity=".4" cx="109.602" cy="16.077" rx="3.398" ry="3.385"/><ellipse opacity=".4" cx="109.602" cy="3.385" rx="3.398" ry="3.385"/></g><use stroke="url(#fb)" mask="url(#fe)" stroke-width="2" stroke-dasharray="1" xlink:href="#fa"/><rect fill="url(#fd)" x="1418" y="2097" width="51" height="32" rx="2"/><path fill="url(#fb)" d="M1438 2118.188l-.57.812-7.43-4.74 7.046-5.26.632.769-5.933 4.43z"/><path fill="url(#fb)" transform="matrix(-1 0 0 1 2906 0)" d="M1457 2118.188l-.57.812-7.43-4.74 7.046-5.26.632.769-5.933 4.43z"/><path fill="url(#fb)" d="M1447.086 2106l.914.446-7.086 14.554-.914-.446zM1459 2091h2v2h-2zM1463 2091h2v2h-2zM1467 2091h2v2h-2z"/><path opacity=".079" d="M1350 2085h200v90h-200z"/></g></svg><svg width="202" height="92" viewBox="-1 -1 202 92" id="enterprise" y="276"><title>分类配图-pc</title><defs><linearGradient x1="8.053%" y1="50%" y2="100%" id="ga"><stop stop-color="#00CEE5" offset="0%"/><stop stop-color="#067FF8" offset="100%"/></linearGradient><linearGradient x1="-40.117%" y1="-73.276%" y2="100%" id="gb"><stop stop-color="#CCF3FA" offset="0%"/><stop stop-color="#AFDBFF" offset="100%"/></linearGradient><linearGradient x1="-40.117%" y1="-73.276%" y2="100%" id="gc"><stop stop-color="#CCF3FA" offset="0%"/><stop stop-color="#CBDEFE" offset="100%"/></linearGradient></defs><g transform="translate(-1350 -1675)" fill="none" fill-rule="evenodd"><path fill-rule="nonzero" d="M0 460h1920v2056H0z"/><path opacity=".079" fill-rule="nonzero" d="M1350 1675h200v90h-200z"/><path d="M1458.5 1844c40.04 0 72.5-32.46 72.5-72.5s-32.46-72.5-72.5-72.5-72.5 32.46-72.5 72.5 32.46 72.5 72.5 72.5z" stroke="url(#ga)" opacity=".7" stroke-dasharray="2" fill-rule="nonzero"/><g transform="translate(1507 1723)" fill-rule="nonzero"><path fill="#E5F6FF" d="M13.93 0L0 25l26-12.5z"/><path fill="url(#gb)" d="M1 24l21.542-2.192L26 12z"/></g><g opacity=".6" transform="translate(1354 1725)" fill="url(#gc)" fill-rule="nonzero"><ellipse opacity=".9" cx="3.398" cy="29.615" rx="3.398" ry="3.385"/><ellipse opacity=".9" cx="3.398" cy="16.077" rx="3.398" ry="3.385"/><ellipse opacity=".9" cx="3.398" cy="3.385" rx="3.398" ry="3.385"/><ellipse opacity=".8" cx="24.639" cy="29.615" rx="3.398" ry="3.385"/><ellipse opacity=".8" cx="24.639" cy="16.077" rx="3.398" ry="3.385"/><ellipse opacity=".8" cx="24.639" cy="3.385" rx="3.398" ry="3.385"/><ellipse opacity=".7" cx="45.88" cy="29.615" rx="3.398" ry="3.385"/><ellipse opacity=".7" cx="45.88" cy="16.077" rx="3.398" ry="3.385"/><ellipse opacity=".7" cx="45.88" cy="3.385" rx="3.398" ry="3.385"/><ellipse cx="67.12" cy="29.615" rx="3.398" ry="3.385"/><ellipse cx="67.12" cy="16.077" rx="3.398" ry="3.385"/><ellipse cx="67.12" cy="3.385" rx="3.398" ry="3.385"/><ellipse opacity=".5" cx="88.361" cy="29.615" rx="3.398" ry="3.385"/><ellipse opacity=".5" cx="88.361" cy="16.077" rx="3.398" ry="3.385"/><ellipse opacity=".5" cx="88.361" cy="3.385" rx="3.398" ry="3.385"/><ellipse opacity=".4" cx="109.602" cy="29.615" rx="3.398" ry="3.385"/><ellipse opacity=".4" cx="109.602" cy="16.077" rx="3.398" ry="3.385"/><ellipse opacity=".4" cx="109.602" cy="3.385" rx="3.398" ry="3.385"/></g><path d="M1439.49 1677l29.51 17v31.96l-29.51 19.04-29.49-19.04V1694l29.49-17z" stroke="url(#ga)" stroke-dasharray="1"/><circle stroke="url(#ga)" fill-rule="nonzero" cx="1512" cy="1698" r="4"/><path d="M1454 1710.782l-10.65-5.963 6.758-3.783 3.892 2.214v7.532zm0 3.881v5.087l-14.5 8.25-14.5-8.25v-16.5l6.398-3.64v8.164h.078v8.516l7.484 4.258 7.484-4.258v-5.858l7.556 4.231zm-7.33-15.583l-12.03 6.736v-8.05l4.86-2.766 7.17 4.08z" fill="url(#gc)" opacity=".8"/><path d="M1453.923 1703.11l-3.345-1.895-5.647 3.15 8.992 5.014v-6.269zm-11.173 1.254l7.832-4.368 4.418 2.504v8.695l-12.25-6.83zm4.714 6.484v5.215l-8.003 4.535-8.002-4.535v-8.235h-.078v-7.723l-5.304 3.005v15.78l13.923 7.889 13.923-7.89v-4.44l-6.46-3.601zm-1.077-1.817l8.613 4.803v5.666l-15 8.5-15-8.5v-17l7.459-4.227v8.497h.077v8.683l6.925 3.924 6.926-3.924v-6.422zm-6.656 10.499h-.539l.27-.153.269.153zm.269-24.309l-4.31 2.442v6.783l10.377-5.787-6.067-3.438zm-5.387 11.042v-9.21L1440 1694l8.235 4.667-13.622 7.596z" fill="url(#ga)" fill-rule="nonzero"/></g></svg><svg width="34" height="34" viewBox="-1 -1 34 34" id="hot-p" x="472" y="152"><title>热门产品 copy</title><g fill="none" fill-rule="evenodd"><path d="M14.17 18.14c1.292 4.548 3.227 5.684 5.595 7.048 2.796-1.819 5.378-8.412 1.72-12.277-.644 2.046-1.721 3.183-3.013 3.411 1.076-4.548-.429-7.503-3.013-9.321-.647 5.228-12.695 8.638-2.152 18.187-1.078-2.5-.214-5.911.863-7.048z" fill="#00A4FF"/><circle stroke="#334966" stroke-width="2" fill-rule="nonzero" cx="16" cy="16" r="15"/></g></svg><svg width="202" height="92" viewBox="-1 -1 202 92" id="industry" x="202"><title>分类配图-pc</title><defs><linearGradient x1="8.053%" y1="50%" y2="100%" id="ib"><stop stop-color="#00CEE5" offset="0%"/><stop stop-color="#067FF8" offset="100%"/></linearGradient><linearGradient x1="-40.117%" y1="-73.276%" y2="100%" id="ic"><stop stop-color="#CCF3FA" offset="0%"/><stop stop-color="#CBDEFE" offset="100%"/></linearGradient><rect id="ia" x="1402" y="1869" width="69" height="27" rx="13.5"/><mask id="id" x="0" y="0" width="69" height="27" fill="#fff"><use xlink:href="#ia"/></mask></defs><g transform="translate(-1350 -1860)" fill-rule="nonzero" fill="none"><path d="M0 460h1920v2056H0z"/><path d="M1458.5 2029c40.04 0 72.5-32.46 72.5-72.5s-32.46-72.5-72.5-72.5-72.5 32.46-72.5 72.5 32.46 72.5 72.5 72.5z" stroke="url(#ib)" opacity=".7" stroke-dasharray="2"/><circle fill="url(#ic)" cx="1516" cy="1911" r="8"/><circle stroke="url(#ib)" cx="1512" cy="1888" r="4"/><g opacity=".6" transform="translate(1354 1909)" fill="url(#ic)"><ellipse opacity=".9" cx="3.398" cy="29.615" rx="3.398" ry="3.385"/><ellipse opacity=".9" cx="3.398" cy="16.077" rx="3.398" ry="3.385"/><ellipse opacity=".9" cx="3.398" cy="3.385" rx="3.398" ry="3.385"/><ellipse opacity=".8" cx="24.639" cy="29.615" rx="3.398" ry="3.385"/><ellipse opacity=".8" cx="24.639" cy="16.077" rx="3.398" ry="3.385"/><ellipse opacity=".8" cx="24.639" cy="3.385" rx="3.398" ry="3.385"/><ellipse opacity=".7" cx="45.88" cy="29.615" rx="3.398" ry="3.385"/><ellipse opacity=".7" cx="45.88" cy="16.077" rx="3.398" ry="3.385"/><ellipse opacity=".7" cx="45.88" cy="3.385" rx="3.398" ry="3.385"/><ellipse cx="67.12" cy="29.615" rx="3.398" ry="3.385"/><ellipse cx="67.12" cy="16.077" rx="3.398" ry="3.385"/><ellipse cx="67.12" cy="3.385" rx="3.398" ry="3.385"/><ellipse opacity=".5" cx="88.361" cy="29.615" rx="3.398" ry="3.385"/><ellipse opacity=".5" cx="88.361" cy="16.077" rx="3.398" ry="3.385"/><ellipse opacity=".5" cx="88.361" cy="3.385" rx="3.398" ry="3.385"/><ellipse opacity=".4" cx="109.602" cy="29.615" rx="3.398" ry="3.385"/><ellipse opacity=".4" cx="109.602" cy="16.077" rx="3.398" ry="3.385"/><ellipse opacity=".4" cx="109.602" cy="3.385" rx="3.398" ry="3.385"/></g><rect fill="url(#ic)" x="1418" y="1874" width="48" height="25" rx="12.5"/><use stroke="url(#ib)" mask="url(#id)" stroke-width="2" stroke-dasharray="1,1" xlink:href="#ia"/><circle fill="url(#ib)" cx="1451" cy="1885" r="3"/><circle fill="url(#ib)" cx="1455.5" cy="1891.5" r="2.5"/><path stroke="#00A4FF" d="M1442 1875v-8.75h4V1860"/><path fill="#00A4FF" d="M1429 1886h12v2h-12z"/><path fill="#00A4FF" d="M1434 1881h2v12h-2z"/><path opacity=".079" d="M1350 1860h200v90h-200z"/></g></svg><svg id="link-1212-1" viewBox="-1 -1 14 14" width="14" height="14" x="520" y="165"><style>.jst0{fill-rule:evenodd;clip-rule:evenodd;fill:#7d848d}</style><path id="jXMLID_2_" class="jst0" d="M1 11V1h3v1H2v8h8V8h1v3H1zm5.1-4.4l-.7-.7 2.8-2.8L6 1h5v5L8.9 3.9 6.1 6.6z"/></svg><svg id="link-1212-2" viewBox="-1 -1 14 14" width="14" height="14" x="506" y="165"><style>.kst0{fill-rule:evenodd;clip-rule:evenodd;fill:#00a4ff}</style><path id="kXMLID_2_" class="kst0" d="M1 11V1h3v1H2v8h8V8h1v3H1zm5.1-4.4l-.7-.7 2.8-2.8L6 1h5v5L8.9 3.9 6.1 6.6z"/></svg><svg width="14" height="10" viewBox="-1 -1 14 10" id="more-arrow" x="546" y="152"><title>箭头</title><g fill="#333" fill-rule="evenodd" opacity=".9"><path d="M3.547 4L0 1.031 1.227 0 6 4 1.227 8 0 6.969zM9.547 4L6 1.031 7.227 0 12 4 7.227 8 6 6.969z"/></g></svg><svg width="14" height="10" viewBox="-1 -1 14 10" id="more-arrow-active" x="560" y="152"><title>箭头</title><g fill="#00a4ff" fill-rule="evenodd" opacity=".9"><path d="M3.547 4L0 1.031 1.227 0 6 4 1.227 8 0 6.969zM9.547 4L6 1.031 7.227 0 12 4 7.227 8 6 6.969z"/></g></svg><svg width="34" height="34" viewBox="-1 -1 34 34" id="new-p" x="404" y="152"><title>最新产品 copy</title><g transform="translate(3 1)" fill-rule="nonzero" fill="none"><path d="M1 1v27.437L13 22.9l12 5.538V1H1z" stroke="#334966" stroke-width="2"/><path fill="#00A4FF" d="M5 13h16v5H5z"/><path fill="#334966" d="M1 6h25v2H1z"/></g></svg><svg width="187" height="152" viewBox="-1 -1 187 152" id="new-ps" x="404"><title>Group 8</title><defs><linearGradient x1="50%" y1="100%" x2="50%" y2="0%" id="oa"><stop stop-color="#8CDAFF" offset="0%"/><stop stop-color="#0097E0" offset="100%"/></linearGradient><linearGradient x1="50%" y1="100%" x2="50%" y2="0%" id="ob"><stop stop-color="#8CDAFF" offset="0%"/><stop stop-color="#007DFF" offset="100%"/></linearGradient><linearGradient x1="50%" y1="100%" x2="50%" y2="0%" id="oc"><stop stop-color="#8CD9FF" offset="0%"/><stop stop-color="#007FFF" offset="100%"/></linearGradient><linearGradient x1="-7.372%" y1="17.688%" y2="80.447%" id="od"><stop stop-color="#0183FF" offset="0%"/><stop stop-color="#00A4FF" stop-opacity=".394" offset="100%"/></linearGradient><linearGradient x1="50%" y1="0%" x2="50%" y2="100%" id="oe"><stop stop-color="#D0EBFF" offset="0%"/><stop stop-color="#0089FF" offset="100%"/></linearGradient><linearGradient x1="50%" y1="0%" x2="50%" y2="100%" id="of"><stop stop-color="#00D1FF" offset="0%"/><stop stop-color="#00A4FF" offset="100%"/></linearGradient></defs><g fill-rule="nonzero" fill="none"><path d="M111 86L15.527 29.528" stroke="#00A4FF" opacity=".35" stroke-linecap="square" stroke-dasharray="2,3"/><path fill="url(#oa)" opacity=".15" d="M111 31l47.631 27.5v55L111 141l-47.631-27.5v-55z"/><path fill="url(#ob)" opacity=".2" d="M111.5 56l25.548 14.75v29.5L111.5 115l-25.548-14.75v-29.5z"/><path fill="url(#oc)" opacity=".1" d="M64 88l20.785 12v24L64 136l-20.785-12v-24z"/><path d="M111 31.577L63.869 58.79v54.422L111 140.423l47.131-27.212V58.79L111 31.577z" stroke="url(#od)" opacity=".778"/><path d="M80 .577L40.663 23.29V68.71L80 91.423l39.337-22.712V23.29L80 .577z" stroke="#00A4FF" opacity=".15"/><path fill="url(#oe)" opacity=".1" d="M64 58.598L111.546 31 159 58.598 111.546 86z"/><circle stroke="#00A4FF" opacity=".4" cx="7" cy="25" r="6.5"/><circle fill="#00A4FF" cx="7" cy="25" r="2"/><circle stroke="#00A4FF" cx="172.5" cy="50.5" r="1.5"/><path fill="#F6FCFF" d="M137 71l-26 14.75V115l26-14.69z"/><path d="M180 146l-80-47" stroke="#00A4FF" opacity=".6" stroke-linecap="square" stroke-dasharray="2,3"/><circle fill="url(#of)" cx="182" cy="147" r="3"/><path d="M170.474 51.5L111 86" stroke="#00A4FF" opacity=".6" stroke-linecap="square" stroke-dasharray="2,3"/><path d="M99.5 96V39" stroke="#00A4FF" opacity=".6" stroke-dasharray="2,3"/></g></svg><svg width="20" height="13" viewBox="-1 -1 20 13" id="p-menu-fixed-m" x="506" y="152"><title>隐藏箭头灰色</title><path d="M17.5 1.915L16.084.5l-7.07 7.072L1.941.5.53 1.915l6.364 6.363 2.12 2.121 2.122-2.121z" fill="#7C848E" fill-rule="nonzero"/></svg><svg width="20" height="13" viewBox="-1 -1 20 13" id="p-menu-fixed-m-active" x="526" y="152"><title>隐藏箭头灰色</title><path d="M17.5 1.915L16.084.5l-7.07 7.072L1.941.5.53 1.915l6.364 6.363 2.12 2.121 2.122-2.121z" fill="#00a4ff" fill-rule="nonzero"/></svg><svg width="34" height="34" viewBox="-1 -1 34 34" id="release-p" x="438" y="152"><title>最新发布 copy</title><g transform="translate(3 1)" fill-rule="nonzero" fill="none"><path d="M1 1v28h24V11.414L14.586 1H1z" stroke="#334966" stroke-width="2"/><path fill="#334966" d="M13 2h2v10h-2z"/><path fill="#334966" d="M13 10h12v2H13z"/><path fill="#00A4FF" d="M5 20h16v5H5z"/><path fill="#334966" d="M5 15h16v2H5z"/></g></svg><svg width="202" height="92" viewBox="-1 -1 202 92" id="security" y="92"><title>分类配图-pc</title><defs><linearGradient x1="8.053%" y1="50%" y2="100%" id="sa"><stop stop-color="#00CEE5" offset="0%"/><stop stop-color="#067FF8" offset="100%"/></linearGradient><linearGradient x1="-40.117%" y1="-73.276%" y2="100%" id="sb"><stop stop-color="#CCF3FA" offset="0%"/><stop stop-color="#CBDEFE" offset="100%"/></linearGradient><linearGradient x1="8.053%" y1="50%" y2="100%" id="sc"><stop stop-color="#00CEE5" offset="0%"/><stop stop-color="#03A9EE" offset="47.019%"/><stop stop-color="#067FF8" offset="100%"/></linearGradient><linearGradient x1="-40.117%" y1="-73.276%" y2="100%" id="sd"><stop stop-color="#CCF3FA" offset="0%"/><stop stop-color="#CBE3FD" offset="77.79%"/><stop stop-color="#CBDEFE" offset="100%"/></linearGradient></defs><g transform="translate(-1350 -1039)" fill="none" fill-rule="evenodd"><path fill-rule="nonzero" d="M0 460h1920v2056H0z"/><path opacity=".079" fill-rule="nonzero" d="M1350 1039h200v90h-200z"/><circle stroke="url(#sa)" fill-rule="nonzero" cx="1397" cy="1067" r="3"/><path d="M1458.5 1208c40.04 0 72.5-32.46 72.5-72.5s-32.46-72.5-72.5-72.5-72.5 32.46-72.5 72.5 32.46 72.5 72.5 72.5z" stroke="url(#sa)" opacity=".7" stroke-dasharray="2" fill-rule="nonzero"/><circle fill="url(#sb)" fill-rule="nonzero" cx="1516" cy="1092" r="8"/><g opacity=".6" transform="translate(1354 1088)" fill="url(#sb)" fill-rule="nonzero"><ellipse opacity=".9" cx="3.738" cy="29.615" rx="3.388" ry="3.385"/><ellipse opacity=".9" cx="3.738" cy="16.077" rx="3.388" ry="3.385"/><ellipse opacity=".9" cx="3.738" cy="3.385" rx="3.388" ry="3.385"/><ellipse opacity=".8" cx="24.913" cy="29.615" rx="3.388" ry="3.385"/><ellipse opacity=".8" cx="24.913" cy="16.077" rx="3.388" ry="3.385"/><ellipse opacity=".8" cx="24.913" cy="3.385" rx="3.388" ry="3.385"/><ellipse opacity=".7" cx="46.087" cy="29.615" rx="3.388" ry="3.385"/><ellipse opacity=".7" cx="46.087" cy="16.077" rx="3.388" ry="3.385"/><ellipse opacity=".7" cx="46.087" cy="3.385" rx="3.388" ry="3.385"/><ellipse cx="67.262" cy="29.615" rx="3.388" ry="3.385"/><ellipse cx="67.262" cy="16.077" rx="3.388" ry="3.385"/><ellipse cx="67.262" cy="3.385" rx="3.388" ry="3.385"/><ellipse opacity=".5" cx="88.437" cy="29.615" rx="3.388" ry="3.385"/><ellipse opacity=".5" cx="88.437" cy="16.077" rx="3.388" ry="3.385"/><ellipse opacity=".5" cx="88.437" cy="3.385" rx="3.388" ry="3.385"/><ellipse opacity=".4" cx="109.612" cy="29.615" rx="3.388" ry="3.385"/><ellipse opacity=".4" cx="109.612" cy="16.077" rx="3.388" ry="3.385"/><ellipse opacity=".4" cx="109.612" cy="3.385" rx="3.388" ry="3.385"/></g><path d="M1454 1040l-2.904 1.682c-7.763 4.499-16.296 7.3-25.096 8.235v30.5c0 7.376 3.855 14.145 10.005 17.569L1454 1108l17.995-10.014c6.15-3.425 10.005-10.193 10.005-17.57v-30.5c-8.8-.934-17.333-3.735-25.096-8.234L1454 1040z" stroke="url(#sa)"/><path d="M1454.5 1046l-2.334 1.36c-6.237 3.64-13.095 5.905-20.166 6.66v24.67c0 5.966 3.098 11.44 8.04 14.21l14.46 8.1 14.46-8.1c4.942-2.77 8.04-8.244 8.04-14.21v-24.67c-7.071-.755-13.929-3.02-20.166-6.66l-2.334-1.36z" stroke="url(#sc)" opacity=".6" stroke-dasharray="1"/><ellipse fill="url(#sd)" cx="1455" cy="1073.5" rx="14" ry="14.5"/><path d="M1452.08 1069.61a4.15 4.15 0 0 1 2.738-1.027c2.31 0 4.182 1.884 4.182 4.209 0 2.324-1.872 4.208-4.182 4.208-2.31 0-4.182-1.884-4.182-4.208 0-.72.18-1.398.496-1.991l-9.132-10.602.941-1.199 9.14 10.61z" fill="#00A4FF"/><path fill="#00A4FF" d="M1455 1072h11v3h-11z"/></g></svg></svg>