<?xml version="1.0" encoding="UTF-8"?><!DOCTYPE svg PUBLIC "-//W3C//DTD SVG 1.1//EN" "http://www.w3.org/Graphics/SVG/1.1/DTD/svg11.dtd"><svg width="530" height="500" viewBox="0 0 530 500" xmlns="http://www.w3.org/2000/svg" xmlns:xlink="http://www.w3.org/1999/xlink"><svg width="14" height="12" viewBox="-1 -1 14 12" id="1" x="516" y="405"><title>Combined Shape Copy 6</title><path d="M0 0h12v2H0V0zm0 4h12v2H0V4zm0 4h12v2H0V8z" fill="#7C848E" fill-rule="evenodd"/></svg><svg width="14" height="12" viewBox="-1 -1 14 12" id="1-#00a4ff" x="516" y="393"><path d="M0 0h12v2H0V0zm0 4h12v2H0V4zm0 4h12v2H0V8z" fill="#00a4ff" fill-rule="evenodd"/></svg><svg width="34" height="34" viewBox="-1 -1 34 34" id="1-1" x="340" y="396"><title>Page 1</title><g fill="none" fill-rule="evenodd"><path d="M16 0C7.164 0 0 7.164 0 16c0 8.837 7.164 16 16 16 8.837 0 16-7.163 16-16 0-8.836-7.163-16-16-16" fill="#D4D4D4"/><path d="M12 12c0-1.103-.897-2-2-2s-2 .897-2 2 .897 2 2 2 2-.897 2-2M22 10c-1.103 0-2 .897-2 2s.897 2 2 2 2-.897 2-2-.897-2-2-2M21.253 19.336c-.024.026-2.404 2.664-5.475 2.664-1.767 0-3.46-.896-5.03-2.664a.999.999 0 1 0-1.495 1.328C11.22 22.878 13.416 24 15.778 24c3.959 0 6.848-3.2 6.969-3.336a.999.999 0 1 0-1.494-1.328" fill="#404040"/></g></svg><svg width="34" height="34" viewBox="-1 -1 34 34" id="1-2" x="462" y="136"><title>Page 1 Copy 2</title><g fill="none" fill-rule="evenodd"><path d="M16 0C7.164 0 0 7.164 0 16c0 8.837 7.164 16 16 16 8.837 0 16-7.163 16-16 0-8.836-7.163-16-16-16" fill="#FFD52A"/><path d="M12 12c0-1.103-.897-2-2-2s-2 .897-2 2 .897 2 2 2 2-.897 2-2M22 10c-1.103 0-2 .897-2 2s.897 2 2 2 2-.897 2-2-.897-2-2-2M21.253 19.336c-.024.026-2.404 2.664-5.475 2.664-1.767 0-3.46-.896-5.03-2.664a.999.999 0 1 0-1.495 1.328C11.22 22.878 13.416 24 15.778 24c3.959 0 6.848-3.2 6.969-3.336a.999.999 0 1 0-1.494-1.328" fill="#6D351E"/></g></svg><svg width="34" height="34" viewBox="-1 -1 34 34" id="2-1" x="496" y="204"><title>Page 1</title><g fill="none" fill-rule="evenodd"><path d="M16 0C7.164 0 0 7.164 0 16c0 8.837 7.164 16 16 16s16-7.163 16-16c0-8.836-7.164-16-16-16" fill="#D4D4D4"/><path d="M12 14c0-1.103-.897-2-2-2s-2 .897-2 2 .897 2 2 2 2-.897 2-2M22 12c-1.103 0-2 .897-2 2s.897 2 2 2 2-.897 2-2-.897-2-2-2" fill="#404040"/><path d="M20 14a.5.5 0 0 1-.266-.924l4-2.5a.5.5 0 1 1 .531.848l-4 2.5A.498.498 0 0 1 20 14M12 14a.498.498 0 0 1-.265-.076l-4-2.5a.5.5 0 1 1 .53-.848l4 2.5A.5.5 0 0 1 12 14M20 23a.996.996 0 0 1-.747-.336C18.27 21.56 17.227 21 16.148 21c-1.868 0-3.386 1.647-3.4 1.664a.999.999 0 1 1-1.495-1.328C11.338 21.24 13.36 19 16.148 19c1.675 0 3.221.786 4.6 2.336A.999.999 0 0 1 20 23" fill="#404040"/></g></svg><svg width="34" height="34" viewBox="-1 -1 34 34" id="2-2" x="272" y="396"><title>Page 1 Copy 6</title><g fill="none" fill-rule="evenodd"><path d="M16 0C7.164 0 0 7.164 0 16c0 8.837 7.164 16 16 16s16-7.163 16-16c0-8.836-7.164-16-16-16" fill="#FFD52A"/><path d="M12 14c0-1.103-.897-2-2-2s-2 .897-2 2 .897 2 2 2 2-.897 2-2M22 12c-1.103 0-2 .897-2 2s.897 2 2 2 2-.897 2-2-.897-2-2-2" fill="#6D351E"/><path d="M20 14a.5.5 0 0 1-.266-.924l4-2.5a.5.5 0 1 1 .531.848l-4 2.5A.498.498 0 0 1 20 14M12 14a.498.498 0 0 1-.265-.076l-4-2.5a.5.5 0 1 1 .53-.848l4 2.5A.5.5 0 0 1 12 14M20 23a.996.996 0 0 1-.747-.336C18.27 21.56 17.227 21 16.148 21c-1.868 0-3.386 1.647-3.4 1.664a.999.999 0 1 1-1.495-1.328C11.338 21.24 13.36 19 16.148 19c1.675 0 3.221.786 4.6 2.336A.999.999 0 0 1 20 23" fill="#6D351E"/></g></svg><svg data-name="图层 1" width="66" height="66" viewBox="-1 -1 66 66" id="account-cancellation" x="66" y="264"><title>000</title><path d="M58 45V11H6v42h52v-2H8V21h48v24zM8 19v-6h48v6z" fill="#757a80"/><path fill="#757a80" d="M14.989 42.007h7v2h-7v-2z"/><path data-name="Rectangle-214-Copy-2" fill="#757a80" d="M14.989 36.007h15v2h-15v-2zM14.989 30.007h15v2h-15v-2zM35.043 42.748L47.77 30.02l1.415 1.414-12.728 12.728-1.414-1.414z"/><path data-name="Rectangle-214-Copy-2" fill="#757a80" d="M47.77 44.162L35.043 31.434l1.414-1.414 12.728 12.728-1.415 1.414z"/></svg><svg data-name="图层 1" width="66" height="66" viewBox="-1 -1 66 66" id="account-cancellation-hover" y="66"><defs><linearGradient id="aha" x1="47.593" y1="6.992" x2="16.407" y2="61.008" gradientTransform="matrix(1 0 0 -1 0 66)" gradientUnits="userSpaceOnUse"><stop offset="0" stop-color="#0063ff"/><stop offset="1" stop-color="#00c8de"/></linearGradient></defs><title>000-hover-01</title><path d="M58 45V11H6v42h52v-2H8V21h48v24zM8 19v-6h48v6zm6.989 25.007h7v-2h-7zm15-8h-15v2h15zm0-6h-15v2h15zm17.782.012l-5.657 5.657-5.657-5.656-1.414 1.414 5.657 5.657-5.657 5.657 1.414 1.414 5.657-5.662 5.657 5.657 1.414-1.414-5.657-5.657 5.657-5.657z" fill="url(#aha)"/></svg><svg id="account-complaint" viewBox="-1 -1 66 66" width="66" height="66" x="66" y="66"><style>.aist0{fill-rule:evenodd;clip-rule:evenodd;fill:#757a80}</style><g id="aiXMLID_86_"><path id="aiXMLID_87_" class="aist0" d="M6 13v38h52V13H6zm50 36H8V15h48v34zm-6-18H32v2h18v-2zm-6 5H32v2h12v-2zm-28 1c0-1.7 1.3-3 3-3h4c1.7 0 3 1.3 3 3v2h2v-2c0-2.8-2.2-5-5-5h-4c-2.8 0-5 2.2-5 5v2h2v-2zm5-6c2.2 0 4-1.8 4-4s-1.8-4-4-4-4 1.8-4 4 1.8 4 4 4zm0-6c1.1 0 2 .9 2 2s-.9 2-2 2-2-.9-2-2 .9-2 2-2zm29 1H32v2h18v-2z"/></g></svg><svg id="account-complaint-hover" viewBox="-1 -1 66 66" width="66" height="66" x="132"><style>.ajst0{fill:url(#ajXMLID_2_)}</style><g id="ajXMLID_86_"><linearGradient id="ajXMLID_2_" gradientUnits="userSpaceOnUse" x1="46.727" y1="57.508" x2="17.273" y2="6.492"><stop offset="0" stop-color="#0063ff"/><stop offset="1" stop-color="#00c8de"/></linearGradient><path id="ajXMLID_87_" class="ajst0" d="M6 13v38h52V13H6zm50 36H8V15h48v34zm-6-18H32v2h18v-2zm-6 5H32v2h12v-2zm-28 1c0-1.7 1.3-3 3-3h4c1.7 0 3 1.3 3 3v2h2v-2c0-2.8-2.2-5-5-5h-4c-2.8 0-5 2.2-5 5v2h2v-2zm5-6c2.2 0 4-1.8 4-4s-1.8-4-4-4-4 1.8-4 4 1.8 4 4 4zm0-6c1.1 0 2 .9 2 2s-.9 2-2 2-2-.9-2-2 .9-2 2-2zm29 1H32v2h18v-2z"/></g></svg><svg id="api" width="18" height="18" viewBox="-1 -1 18 18" y="464"><style>.akst0{fill:#999}</style><g id="akXMLID_2_"><g id="akXMLID_47_"><path id="akXMLID_48_" class="akst0" d="M10.4 1H2v14h12V4.6L10.4 1zM13 14H3V2h6v4h4v8zm-3-9V2l3 3h-3z"/></g></g></svg><svg data-name="图层 1" width="18" height="18" viewBox="-1 -1 18 18" id="api-01" x="36" y="464"><title>api</title><path d="M8 1a7 7 0 1 1-7 7 7.008 7.008 0 0 1 7-7m0-1a8 8 0 1 0 8 8 8 8 0 0 0-8-8z" fill="#f06c00"/><path d="M12.781 7.22a3.966 3.966 0 0 0-.481-1.952l-2.21 2.315-1.348-.324-.323-1.343 2.315-2.21a3.966 3.966 0 0 0-1.953-.486A4.134 4.134 0 0 0 4.7 7.3a4.018 4.018 0 0 0 .126 1.041l-1.62 1.62a7.877 7.877 0 0 0 .571.846l.714-.714 1.046-1.047.4-.4L5.8 8.09a3.02 3.02 0 0 1-.1-.782 3.134 3.134 0 0 1 3.046-3.087l-1.018.972-.417.4.135.56.324 1.34.143.595.595.143 1.343.324.56.135.4-.417.972-1.018A3.134 3.134 0 0 1 8.694 10.3a3.021 3.021 0 0 1-.788-.1l-.551-.143-2.16 2.16a7.892 7.892 0 0 0 .842.569l1.618-1.616a4.015 4.015 0 0 0 1.045.13 4.134 4.134 0 0 0 4.081-4.08z" fill="#f06c00"/></svg><svg width="66" height="66" viewBox="-1 -1 66 66" id="apply-qcloud" x="66" y="132"><title>画板</title><g transform="translate(6 6)" fill="none" fill-rule="evenodd"><path d="M25.998 2.205c-3.052 0-6.217.565-9.043 1.809C4.859 8.874-.906 22.666 4.068 34.648H1.58C-2.037 24.814.676 13.735 8.476 6.727c10.626-9.61 27.018-8.818 36.74 1.695V4.466l2.26 1.13v6.67h-6.782l-1.13-2.261h4.069a23.71 23.71 0 0 0-17.635-7.8zm24.417 14.47c3.618 9.834.905 20.8-6.895 27.695-10.626 9.609-27.018 8.93-36.74-1.583v3.957l-2.26-1.13v-6.67h6.782l1.13 2.26H8.364c6.67 7.236 17.296 9.61 26.452 5.992 12.096-4.86 17.974-18.539 13.113-30.522h2.487z" fill="#7C838D" fill-rule="nonzero"/><path d="M19.574 36.155h12.025l.875.001a7.7 7.7 0 0 0 .524.018c4.252 0 7.698-3.439 7.698-7.68 0-3.297-2.101-6.194-5.173-7.258l-.424-.147-.042-.446c-.441-4.635-4.356-8.208-9.057-8.208-4.7 0-8.615 3.573-9.056 8.208l-.042.446-.425.147a7.684 7.684 0 0 0-5.173 7.258c0 4.241 3.447 7.68 7.698 7.68.176 0 .35-.006.572-.019z" stroke="#7B808A" stroke-width="2"/></g></svg><svg width="66" height="66" viewBox="-1 -1 66 66" id="apply-qcloud-hover" x="132" y="132"><title>画板</title><defs><linearGradient x1="14.644%" y1="15.788%" x2="71.213%" y2="70.527%" id="ana"><stop stop-color="#5AC5D9" offset="0%"/><stop stop-color="#2D70F6" offset="100%"/></linearGradient><linearGradient x1="14.644%" y1="26.935%" x2="71.213%" y2="63.839%" id="anb"><stop stop-color="#5AC5D9" offset="0%"/><stop stop-color="#2D70F6" offset="100%"/></linearGradient></defs><g transform="translate(6 6)" fill="none" fill-rule="evenodd"><path d="M25.998 2.205c-3.052 0-6.217.565-9.043 1.809C4.859 8.874-.906 22.666 4.068 34.648H1.58C-2.037 24.814.676 13.735 8.476 6.727c10.626-9.61 27.018-8.818 36.74 1.695V4.466l2.26 1.13v6.67h-6.782l-1.13-2.261h4.069a23.71 23.71 0 0 0-17.635-7.8zm24.417 14.47c3.618 9.834.905 20.8-6.895 27.695-10.626 9.609-27.018 8.93-36.74-1.583v3.957l-2.26-1.13v-6.67h6.782l1.13 2.26H8.364c6.67 7.236 17.296 9.61 26.452 5.992 12.096-4.86 17.974-18.539 13.113-30.522h2.487z" fill="url(#ana)" fill-rule="nonzero"/><path d="M8.27 23.72h12.025l.874.002a7.7 7.7 0 0 0 .525.017c4.252 0 7.697-3.439 7.697-7.68 0-3.296-2.1-6.194-5.172-7.257l-.425-.148-.042-.446C23.312 3.573 19.396 0 14.696 0 9.996 0 6.08 3.573 5.64 8.208l-.042.446-.425.148A7.684 7.684 0 0 0 0 16.059c0 4.241 3.446 7.68 7.698 7.68.175 0 .35-.005.571-.019z" transform="translate(11.304 12.435)" stroke="url(#anb)" stroke-width="2"/></g></svg><svg id="approve" width="66" height="66" viewBox="-1 -1 66 66" x="198"><style>.aost0{fill:#f0f1f2}</style><g id="aoXMLID_24_"><path id="aoXMLID_29_" class="aost0" d="M32 0C14.3 0 0 14.3 0 32s14.3 32 32 32 32-14.3 32-32S49.7 0 32 0zm0 62C15.5 62 2 48.5 2 32S15.5 2 32 2s30 13.5 30 30-13.5 30-30 30z"/><path id="aoXMLID_38_" class="aost0" d="M32 22c-3.9 0-7 3.1-7 7s3.1 7 7 7 7-3.1 7-7-3.1-7-7-7zm0 12c-2.8 0-5-2.2-5-5s2.2-5 5-5 5 2.2 5 5-2.2 5-5 5z"/><path id="aoXMLID_41_" class="aost0" d="M43 29c0-6.1-4.9-11-11-11s-11 4.9-11 11c0 2.7 1 5.2 2.7 7.2L19.1 44l4.5.3L26 48l4.7-8.1c.4 0 .8.1 1.3.1s.8 0 1.3-.1L38 48l2.5-3.7L45 44l-4.6-7.8c1.6-2 2.6-4.5 2.6-7.2zM25.9 44.2l-.7-1-.6-.8-1-.1-1.2-.1 2.7-4.6c1 .8 2.2 1.5 3.5 1.9l-2.7 4.7zM32 38c-5 0-9-4-9-9s4-9 9-9 9 4 9 9-4 9-9 9zm9.6 4.2l-1.2.1-1 .1-.6.8-.7 1-2.8-4.7c1.3-.4 2.5-1.1 3.5-1.9l2.8 4.6z"/></g></svg><svg id="arrow-down" width="18" height="18" viewBox="-1 -1 18 18" x="54" y="464"><style>.apst0{fill-rule:evenodd;clip-rule:evenodd;fill:#666}</style><path id="apXMLID_2_" class="apst0" d="M11 7v1h-1v1H9v1H7V9H6V8H5V7H4V5h1v1h1v1h1v1h2V7h1V6h1V5h1v2h-1z"/></svg><svg id="arrow-left" width="18" height="18" viewBox="-1 -1 18 18" x="72" y="464"><style>.aqst0{fill-rule:evenodd;clip-rule:evenodd;fill:#666}</style><path id="aqXMLID_2_" class="aqst0" d="M9 11H8v-1H7V9H6V7h1V6h1V5h1V4h2v1h-1v1H9v1H8v2h1v1h1v1h1v1H9v-1z"/></svg><svg width="18" height="18" viewBox="-1 -1 18 18" id="arrow-left-#00a4ff" x="342" y="482"><style>.arst0{fill-rule:evenodd;clip-rule:evenodd;fill:#00a4ff}</style><path class="arst0" d="M9 11H8v-1H7V9H6V7h1V6h1V5h1V4h2v1h-1v1H9v1H8v2h1v1h1v1h1v1H9v-1z"/></svg><svg id="arrow-right" width="18" height="18" viewBox="-1 -1 18 18" x="252" y="482"><style>.asst0{fill-rule:evenodd;clip-rule:evenodd;fill:#666}</style><path id="asXMLID_2_" class="asst0" d="M8 5h1v1h1v1h1v2h-1v1H9v1H8v1H6v-1h1v-1h1V9h1V7H8V6H7V5H6V4h2v1z"/></svg><svg id="arrow-right" width="18" height="18" viewBox="-1 -1 18 18" x="234" y="482"><style>.atst0{fill-rule:evenodd;clip-rule:evenodd;fill:#666}</style><path id="atXMLID_2_" class="atst0" d="M8 5h1v1h1v1h1v2h-1v1H9v1H8v1H6v-1h1v-1h1V9h1V7H8V6H7V5H6V4h2v1z"/></svg><svg width="18" height="18" viewBox="-1 -1 18 18" id="arrow-right-#00a4ff" x="216" y="482"><style>.aust0{fill-rule:evenodd;clip-rule:evenodd;fill:#00a4ff}</style><path class="aust0" d="M8 5h1v1h1v1h1v2h-1v1H9v1H8v1H6v-1h1v-1h1V9h1V7H8V6H7V5H6V4h2v1z"/></svg><svg width="18" height="18" viewBox="-1 -1 18 18" id="arrow-right-#00a4ff" x="180" y="482"><style>.avst0{fill-rule:evenodd;clip-rule:evenodd;fill:#00a4ff}</style><path class="avst0" d="M8 5h1v1h1v1h1v2h-1v1H9v1H8v1H6v-1h1v-1h1V9h1V7H8V6H7V5H6V4h2v1z"/></svg><svg id="arrow-up" width="18" height="18" viewBox="-1 -1 18 18" x="162" y="482"><style>.awst0{fill-rule:evenodd;clip-rule:evenodd;fill:#666}</style><path id="awXMLID_2_" class="awst0" d="M5 8V7h1V6h1V5h2v1h1v1h1v1h1v2h-1V9h-1V8H9V7H7v1H6v1H5v1H4V8h1z"/></svg><svg id="arrow32-left" width="34" height="34" viewBox="-1 -1 34 34" x="462" y="170"><style>.axst0{fill:#999}</style><path id="axXMLID_2_" class="axst0" d="M11 15v-1h1v-1h1v-1h1v-1h1v-1h1V9h1V8h1V7h1V6h1V5h2v1h-1v1h-1v1h-1v1h-1v1h-1v1h-1v1h-1v1h-1v1h-1v1h-1v2h1v1h1v1h1v1h1v1h1v1h1v1h1v1h1v1h1v1h1v1h-2v-1h-1v-1h-1v-1h-1v-1h-1v-1h-1v-1h-1v-1h-1v-1h-1v-1h-1v-1h-1v-2h1z"/></svg><svg id="arrow32-left-hover" width="34" height="34" viewBox="-1 -1 34 34" x="462" y="204"><style>.ayst0{fill-rule:evenodd;clip-rule:evenodd;fill:#00a4ff}</style><path id="ayXMLID_2_" class="ayst0" d="M11 15v-1h1v-1h1v-1h1v-1h1v-1h1V9h1V8h1V7h1V6h1V5h2v1h-1v1h-1v1h-1v1h-1v1h-1v1h-1v1h-1v1h-1v1h-1v1h-1v2h1v1h1v1h1v1h1v1h1v1h1v1h1v1h1v1h1v1h1v1h-2v-1h-1v-1h-1v-1h-1v-1h-1v-1h-1v-1h-1v-1h-1v-1h-1v-1h-1v-1h-1v-2h1z"/></svg><svg id="arrow32-right" width="34" height="34" viewBox="-1 -1 34 34" x="496" y="136"><style>.azst0{fill:#999}</style><path class="azst0" d="M21 17v1h-1v1h-1v1h-1v1h-1v1h-1v1h-1v1h-1v1h-1v1h-1v1h-2v-1h1v-1h1v-1h1v-1h1v-1h1v-1h1v-1h1v-1h1v-1h1v-1h1v-2h-1v-1h-1v-1h-1v-1h-1v-1h-1v-1h-1V9h-1V8h-1V7h-1V6h-1V5h2v1h1v1h1v1h1v1h1v1h1v1h1v1h1v1h1v1h1v1h1v2h-1z"/></svg><svg id="arrow32-right-hover" width="34" height="34" viewBox="-1 -1 34 34" x="496" y="170"><style>.bast0{fill-rule:evenodd;clip-rule:evenodd;fill:#00a4ff}</style><path class="bast0" d="M21 17v1h-1v1h-1v1h-1v1h-1v1h-1v1h-1v1h-1v1h-1v1h-1v1h-2v-1h1v-1h1v-1h1v-1h1v-1h1v-1h1v-1h1v-1h1v-1h1v-1h1v-2h-1v-1h-1v-1h-1v-1h-1v-1h-1v-1h-1V9h-1V8h-1V7h-1V6h-1V5h2v1h1v1h1v1h1v1h1v1h1v1h1v1h1v1h1v1h1v1h1v2h-1z"/></svg><svg id="bbs" width="66" height="66" viewBox="-1 -1 66 66" x="132" y="198"><style>.bbst0{fill:#f0f1f2}</style><g id="bbXMLID_15_"><path id="bbXMLID_22_" class="bbst0" d="M32 0C14.3 0 0 14.3 0 32s14.3 32 32 32 32-14.3 32-32S49.7 0 32 0zm0 62C15.5 62 2 48.5 2 32S15.5 2 32 2s30 13.5 30 30-13.5 30-30 30z"/><path id="bbXMLID_28_" class="bbst0" d="M38 20H18v18l6-5h14V20zm-2 11H23.3l-.6.5-2.7 2.2V22h16v9z"/><path id="bbXMLID_29_" class="bbst0" d="M40 27h4v13.7l-2.7-2.2-.6-.5H28v-3h-2v5h14l6 5V25h-6z"/></g></svg><svg id="blog" width="66" height="66" viewBox="7 -9 66 66" x="198" y="198"><style>.bcst0{fill:#f0f1f2}</style><g id="bcXMLID_14_"><path id="bcXMLID_27_" class="bcst0" d="M40-8C22.3-8 8 6.3 8 24s14.3 32 32 32 32-14.3 32-32S57.7-8 40-8zm0 62c-16.5 0-30-13.5-30-30S23.5-6 40-6 70 7.5 70 24 56.5 54 40 54z"/><path id="bcXMLID_28_" class="bcst0" d="M32 16h16v2H32z"/><path id="bcXMLID_29_" class="bcst0" d="M32 22h16v2H32z"/><path id="bcXMLID_32_" class="bcst0" d="M26 39h19.4l.6-.6 1.4-1.4 4.6-4.6 1.4-1.4.6-.6V9H26v30zm20-3.4V31h4.6L46 35.6zM28 11h24v18h-8v8H28V11z"/></g></svg><svg id="bug" width="18" height="18" viewBox="-1 -1 18 18" x="144" y="482"><style>.bdst0{fill-rule:evenodd;clip-rule:evenodd;fill:#999}</style><g id="bdXMLID_58_"><path id="bdXMLID_59_" class="bdst0" d="M7.5 0C3.4 0 0 3.4 0 7.5S3.4 15 7.5 15 15 11.6 15 7.5 11.6 0 7.5 0zm0 14C3.9 14 1 11.1 1 7.5S3.9 1 7.5 1 14 3.9 14 7.5 11.1 14 7.5 14zM12 7c-.2-2.1-1.9-3.7-4-3.9V2H7v1.1C4.9 3.3 3.3 4.9 3 7H2v1h1c.2 2.1 1.9 3.7 4 3.9V13h1v-1.1c2.1-.2 3.7-1.9 4-3.9h1V7h-1zm-1 1c-.2 1.5-1.4 2.7-3 2.9V9H7v1.9C5.5 10.7 4.3 9.5 4 8h2V7H4c.2-1.5 1.4-2.7 3-2.9V6h1V4.1c1.5.2 2.7 1.4 3 2.9H9v1h2z"/></g></svg><svg id="calculator" viewBox="-1 -1 66 66" width="66" height="66" x="264" y="66"><style>.best0{fill-rule:evenodd;clip-rule:evenodd;fill:#757a80}</style><g id="beXMLID_94_"><path id="beXMLID_95_" class="best0" d="M18.2 47.2l2.8-2.8 2.8 2.8 1.4-1.4-2.8-2.8 2.8-2.8-1.4-1.4-2.8 2.8-2.8-2.8-1.4 1.4 2.8 2.8-2.8 2.8 1.4 1.4zM20 24h2v-3h3v-2h-3v-3h-2v3h-3v2h3v3zM33 8H8v48h48V8H33zm-2 46H10V33h21v21zm0-23H10V10h21v21zm23 23H33V33h21v21zm0-23H33V10h21v21zm-7 9h-8v2h8v-2zm1-21h-8v2h8v-2zm-1 25h-8v2h8v-2z"/></g></svg><svg id="calculator-hover" viewBox="-1 -1 66 66" width="66" height="66" x="264" y="132"><style>.bfst0{fill:url(#bfXMLID_2_)}</style><g id="bfXMLID_94_"><linearGradient id="bfXMLID_2_" gradientUnits="userSpaceOnUse" x1="48.392" y1="60.392" x2="15.608" y2="3.608"><stop offset="0" stop-color="#0063ff"/><stop offset="1" stop-color="#00c8de"/></linearGradient><path id="bfXMLID_95_" class="bfst0" d="M18.2 47.2l2.8-2.8 2.8 2.8 1.4-1.4-2.8-2.8 2.8-2.8-1.4-1.4-2.8 2.8-2.8-2.8-1.4 1.4 2.8 2.8-2.8 2.8 1.4 1.4zM20 24h2v-3h3v-2h-3v-3h-2v3h-3v2h3v3zM33 8H8v48h48V8H33zm-2 46H10V33h21v21zm0-23H10V10h21v21zm23 23H33V33h21v21zm0-23H33V10h21v21zm-7 9h-8v2h8v-2zm1-21h-8v2h8v-2zm-1 25h-8v2h8v-2z"/></g></svg><svg width="18" height="18" viewBox="-1 -1 18 18" id="close-icon" x="126" y="482"><path fill="#666" fill-rule="evenodd" d="M8.713 8L14 13.287l-.713.713L8 8.713 2.713 14 2 13.287 7.287 8 2 2.713 2.713 2 8 7.287 13.287 2l.713.713z"/></svg><svg id="code" width="18" height="18" viewBox="-1 -1 18 18" x="108" y="482"><style>.bhst0{fill:#999}</style><g id="bhXMLID_14_"><g id="bhXMLID_120_"><path id="bhXMLID_121_" class="bhst0" d="M16 11V1H0v13h16v-1H1V5h14v6h1zM1 4V2h14v2H1zm5 3H5v1h1V7zM4 8v1h1V8H4zm2 2V9H5v1h1zm1 1v-1H6v1h1zm0-5H6v1h1V6zm3 4h1V9h-1v1zm2-1V8h-1v1h1zm-2-2v1h1V7h-1zM9 6v1h1V6H9zm0 5h1v-1H9v1z"/></g></g></svg><svg id="code" width="66" height="66" viewBox="-1 -1 66 66"><style>.bist0{fill:#f0f1f2}.bist1{fill-rule:evenodd;clip-rule:evenodd;fill:#5d5d5d}</style><g id="biXMLID_24_"><path id="biXMLID_27_" class="bist0" d="M32 0C14.3 0 0 14.3 0 32s14.3 32 32 32 32-14.3 32-32S49.7 0 32 0zm0 62C15.5 62 2 48.5 2 32S15.5 2 32 2s30 13.5 30 30-13.5 30-30 30z"/></g><path id="biXMLID_15_" transform="rotate(30 89.999 1.701)" class="bist1" d="M89-7.3h2v18h-2z"/><g id="biXMLID_18_"><path id="biXMLID_19_" class="bist0" d="M23.1 24.9l-5.7 5.7L16 32l1.4 1.4 5.7 5.7 1.4-1.4-5.7-5.7 5.7-5.7z"/><path id="biXMLID_22_" class="bist0" d="M46.6 30.6l-5.7-5.7-1.4 1.4 5.7 5.7-5.7 5.7 1.4 1.4 5.7-5.7L48 32z"/><path id="biXMLID_23_" transform="scale(-1) rotate(23.961 150.808 -150.803)" class="bist0" d="M31 22.2h2v19.7h-2z"/></g></svg><svg id="course" width="18" height="18" viewBox="-1 -1 18 18" x="90" y="482"><style>.bjst0{fill-rule:evenodd;clip-rule:evenodd;fill:#999}</style><g id="bjXMLID_53_"><path id="bjXMLID_54_" class="bjst0" d="M8 1C5 1 2.5 3.5 2.5 6.5c0 2.1 1.2 4 3 4.9V16h5v-4.6c1.8-.9 3-2.7 3-4.9C13.5 3.5 11 1 8 1zm1.5 14h-3v-1h3v1zm0-4.3V13h-3v-2.3c-1.7-.6-3-2.3-3-4.2C3.5 4 5.5 2 8 2s4.5 2 4.5 4.5c0 2-1.3 3.6-3 4.2zM6.5 7h1v3h1V7h1V6h-3v1z"/></g></svg><svg id="developer-tools" width="66" height="66" viewBox="-1 -1 66 66" x="198" y="264"><style>.bkst0{fill:#757a80}</style><path class="bkst0" d="M40 41l3.6-3.6L45 36l-5-5h-2.8l5 5-5 5H40zm18 4V11H6v42h52v-2H8V21h48v24h2zM8 19v-6h48v6H8zm16 12l-3.6 3.6L19 36l5 5h2.8l-5-5 5-5H24zm7.2 12l3.5-14h-2l-3.5 14h2z"/></svg><svg id="developer-tools-hover" width="66" height="66" viewBox="-1 -1 66 66" x="264" y="264"><style>.blst0{fill:url(#blSVGID_1_)}</style><linearGradient id="blSVGID_1_" gradientUnits="userSpaceOnUse" x1="47.593" y1="59.008" x2="16.407" y2="4.992"><stop offset="0" stop-color="#0063ff"/><stop offset="1" stop-color="#00c8de"/></linearGradient><path class="blst0" d="M24 31l-3.6 3.6L19 36l5 5h2.8l-5-5 5-5H24zm34 14V11H6v42h52v-2H8V21h48v24h2zM8 19v-6h48v6H8zm32 22l3.6-3.6L45 36l-5-5h-2.8l5 5-5 5H40zm-8.8 2l3.5-14h-2l-3.5 14h2z"/></svg><svg width="18" height="18" viewBox="-1 -1 18 18" id="doc-alarm" x="72" y="482"><title>Artboard Copy 4</title><path d="M3.998 11V7c0-2.206 1.793-4 4-4 2.205 0 4 1.794 4 4v4h-8zm4 3a1.993 1.993 0 0 1-1.723-1H9.72c-.346.595-.984 1-1.721 1zm7.728-2.681l-1.729-1.86V7a5.998 5.998 0 0 0-4.015-5.657A1.5 1.5 0 0 0 8.498 0h-1a1.5 1.5 0 0 0-1.485 1.343A5.998 5.998 0 0 0 1.997 7v2.459l-1.729 1.86c-.593.64-.14 1.681.734 1.681H4.14a3.99 3.99 0 0 0 3.858 3 3.99 3.99 0 0 0 3.858-3h3.138c.873 0 1.327-1.041.733-1.681z" fill="#C07400" fill-rule="evenodd"/></svg><svg data-name="图层 1" width="18" height="18" viewBox="-1 -1 18 18" id="doc-explain" x="54" y="482"><title>提示0</title><path fill="#7c848e" d="M9 7H6v1h1v4h1.917l1-1H9V7zM7 5.99h2v-2H7v2z"/><path d="M8 2a6 6 0 1 1-6 6 6.007 6.007 0 0 1 6-6m0-2a8 8 0 1 0 8 8 8 8 0 0 0-8-8z" fill="#7c848e"/></svg><svg width="18" height="18" viewBox="-1 -1 18 18" id="doc-forbid" x="36" y="482"><title>Artboard Copy 3</title><path d="M11.477 12.89L3.109 4.524a6 6 0 0 0 8.367 8.367zm1.414-1.413A6 6 0 0 0 4.524 3.11l8.367 8.367zM8 16A8 8 0 1 1 8 0a8 8 0 0 1 0 16z" fill="#B43537" fill-rule="nonzero"/></svg><svg data-name="图层 1" width="18" height="18" viewBox="-1 -1 18 18" id="doc-notice" x="18" y="482"><title>未标题-2</title><path d="M8 3.126l5.281 9.908H2.719L8 3.126M8 0a.989.989 0 0 0-.882.53L.171 13.564a1 1 0 0 0 .882 1.47h13.894a1 1 0 0 0 .882-1.47L8.882.53A.989.989 0 0 0 8 0z" fill="#7c848e"/><path fill="#7c848e" d="M8.969 6H7.031v3h1.938V6zM9 10H7v2h2v-2z"/></svg><svg data-name="图层 1" width="18" height="18" viewBox="-1 -1 18 18" id="doc-notice" x="486" y="464"><title>未标题-2</title><path d="M8 3.126l5.281 9.908H2.719L8 3.126M8 0a.989.989 0 0 0-.882.53L.171 13.564a1 1 0 0 0 .882 1.47h13.894a1 1 0 0 0 .882-1.47L8.882.53A.989.989 0 0 0 8 0z" fill="#7c848e"/><path fill="#7c848e" d="M8.969 6H7.031v3h1.938V6zM9 10H7v2h2v-2z"/></svg><svg data-name="图层 1" width="18" height="18" viewBox="-1 -1 18 18" id="doc-tip" x="468" y="464"><title>提示0</title><path fill="#7c848e" d="M9 7H6v1h1v4h1.917l1-1H9V7zM7 5.99h2v-2H7v2z"/><path d="M8 2a6 6 0 1 1-6 6 6.007 6.007 0 0 1 6-6m0-2a8 8 0 1 0 8 8 8 8 0 0 0-8-8z" fill="#7c848e"/></svg><svg id="domain-transfer" viewBox="-1 -1 66 66" width="66" height="66" x="330" y="198"><style>.bsst0{fill-rule:evenodd;clip-rule:evenodd;fill:#757a80}</style><g id="bsXMLID_2_"><g id="bsXMLID_143_"><path id="bsXMLID_144_" class="bsst0" d="M19 29v6c0 1.1.9 2 2 2h4v-2h-4v-6h4v-2h-4c-1.1 0-2 .9-2 2zm-4 8h2v-2h-2v2zm35.4-23.4a25.953 25.953 0 0 0-36.8 0 25.953 25.953 0 0 0 0 36.8C18.7 55.5 25.3 58 32 58c6.6 0 13.3-2.5 18.4-7.6 10.1-10.2 10.1-26.6 0-36.8zM55.5 37c-.9 4.4-3.1 8.6-6.5 12-2.9 2.9-6.3 4.8-9.9 6 2.5-2.3 4.5-5.7 5.9-9.9h-2.1C40.8 51.2 37.1 55.4 33 56V45h-2v10.9c-4.2-.6-7.8-4.8-9.9-10.9H19c1.4 4.2 3.4 7.6 5.9 9.9-3.6-1.1-7-3.1-9.9-6-3.4-3.4-5.6-7.6-6.5-12H13v-2H8.2c-.2-2-.2-4 0-6H13v-2H8.5c.9-4.4 3.1-8.6 6.5-12 2.9-2.9 6.3-4.8 9.9-6-2.5 2.3-4.5 5.7-5.9 9.9h2.1c2.1-6.1 5.8-10.3 9.9-10.9V19h2V8.1c4.2.6 7.8 4.8 9.9 10.9H45c-1.4-4.2-3.4-7.6-5.9-9.9 3.6 1.1 7 3.1 9.9 6 3.4 3.4 5.6 7.6 6.5 12H51v2h4.8c.2 2 .3 4 0 6H51v2h4.5zM44 27h-6c-1.1 0-2 .9-2 2v8h2v-8h2v8h2v-8h2v8h2v-8c0-1.1-.9-2-2-2zm-12 0h-3c-1.1 0-2 .9-2 2v6c0 1.1.9 2 2 2h3c1.1 0 2-.9 2-2v-6c0-1.1-.9-2-2-2zm0 8h-3v-6h3v6z"/></g></g></svg><svg id="domain-transfer-hover" viewBox="-1 -1 66 66" width="66" height="66" x="330" y="264"><style>.btst0{fill:url(#btXMLID_3_)}</style><g id="btXMLID_2_"><g id="btXMLID_143_"><linearGradient id="btXMLID_3_" gradientUnits="userSpaceOnUse" x1="44.995" y1="54.543" x2="18.967" y2="9.461"><stop offset="0" stop-color="#0063ff"/><stop offset="1" stop-color="#00c8de"/></linearGradient><path id="btXMLID_144_" class="btst0" d="M19 29v6c0 1.1.9 2 2 2h4v-2h-4v-6h4v-2h-4c-1.1 0-2 .9-2 2zm-4 8h2v-2h-2v2zm35.4-23.4c-10.2-10.2-26.6-10.2-36.8 0s-10.2 26.6 0 36.8C18.7 55.5 25.3 58 32 58c6.6 0 13.3-2.5 18.4-7.6 10.1-10.2 10.1-26.6 0-36.8zM55.5 37c-.9 4.4-3.1 8.6-6.5 12-2.9 2.9-6.3 4.8-9.9 6 2.5-2.3 4.5-5.7 5.9-9.9h-2.1C40.8 51.2 37.1 55.4 33 56V45h-2v10.9c-4.2-.6-7.8-4.8-9.9-10.9H19c1.4 4.2 3.4 7.6 5.9 9.9-3.6-1.1-7-3.1-9.9-6-3.4-3.4-5.6-7.6-6.5-12H13v-2H8.2c-.2-2-.2-4 0-6H13v-2H8.5c.9-4.4 3.1-8.6 6.5-12 2.9-2.9 6.3-4.8 9.9-6-2.5 2.3-4.5 5.7-5.9 9.9h2.1c2.1-6.1 5.8-10.3 9.9-10.9V19h2V8.1c4.2.6 7.8 4.8 9.9 10.9H45c-1.4-4.2-3.4-7.6-5.9-9.9 3.6 1.1 7 3.1 9.9 6 3.4 3.4 5.6 7.6 6.5 12H51v2h4.8c.2 2 .3 4 0 6H51v2l4.5-.1zM44 27h-6c-1.1 0-2 .9-2 2v8h2v-8h2v8h2v-8h2v8h2v-8c0-1.1-.9-2-2-2zm-12 0h-3c-1.1 0-2 .9-2 2v6c0 1.1.9 2 2 2h3c1.1 0 2-.9 2-2v-6c0-1.1-.9-2-2-2zm0 8h-3v-6h3v6z"/></g></g></svg><svg width="18" height="18" viewBox="-1 -1 18 18" id="edit-fixed-icon" x="450" y="464"><title>文档反馈 copy 3</title><g fill="#02A3FF" fill-rule="nonzero"><path d="M7 7.071L14.073 0l1.414 1.414-7.071 7.071zM4 10h8v2H4zM0 0h10v2H0zM0 14h16v2H0z"/><path d="M14 6h2v10h-2zM0 0h2v16H0z"/></g></svg><svg width="18" height="18" viewBox="-1 -1 18 18" id="edit-fixed-icon-hover" x="432" y="464"><title>文档反馈 copy 3</title><g fill="#FFF" fill-rule="nonzero"><path d="M7 7.071L14.073 0l1.414 1.414-7.071 7.071zM4 10h8v2H4zM0 0h10v2H0zM0 14h16v2H0z"/><path d="M14 6h2v10h-2zM0 0h2v16H0z"/></g></svg><svg width="17" height="17" viewBox="-1 -1 17 17" id="edit-page-icon" x="432" y="482"><title>biaoji</title><path d="M0 0h2.038v2.009H0V0zm9.798 2.009H8.064V0h1.734v2.009zm-2.601 0H5.462V0h1.735v2.009zm-2.602 0H2.861V0h1.734v2.009zM10.665 0h2.037v2.009h-2.037V0zm2.037 7.094h-2.037v-1.71h2.037v1.71zm0-2.564h-2.037V2.82h2.037v1.71zM7.197 12.52H5.462v-2.008h1.735v2.008zm-2.602 0H2.861v-2.008h1.734v2.008zM0 10.513h2.038v2.008H0v-2.008zm2.038-.855H0v-1.71h2.038v1.71zm0-2.564H0v-1.71h2.038v1.71zm0-2.564H0V2.82h2.038v1.71zM12.528 15h-.303c-.086 0-.13-.043-.216-.043-.217-.085-.434-.213-.52-.427a4.285 4.285 0 0 1-.304-.641c-.13-.257-.26-.513-.347-.77-.087-.17-.173-.384-.26-.555-.13-.256-.26-.513-.347-.77 0-.042-.043-.042-.086 0-.13.086-.217.13-.347.215a6.2 6.2 0 0 0-.65.47c-.174.17-.347.299-.52.47l-.391.384c-.043.043-.087.086-.13.171-.087.086-.13.128-.173.214H7.89V5.47c.304.214.607.427.91.684l1.041.77c.26.17.52.384.737.555.347.256.65.512.997.726.26.214.564.427.824.598.26.214.563.428.824.599.216.17.433.299.606.47.347.256.65.47.998.726.043.043.13.086.173.128h-.694c-.173 0-.346 0-.52.043-.13 0-.26 0-.39.043-.217.043-.434.043-.607.085a6.817 6.817 0 0 0-.91.171c-.044 0-.044.043 0 .043.13.214.26.385.346.598.174.3.39.599.564.898.173.299.347.598.564.855.13.213.173.47.13.683-.13.428-.477.77-.954.855z" fill="#02A3FF" fill-rule="nonzero"/></svg><svg id="edit-password" viewBox="-1 -1 66 66" width="66" height="66" y="330"><style>.bxst0{fill-rule:evenodd;clip-rule:evenodd;fill:#757a80}</style><g id="bxXMLID_65_"><path id="bxXMLID_66_" class="bxst0" d="M18 34c1.1 0 2-.9 2-2s-.9-2-2-2-2 .9-2 2 .9 2 2 2zm9 0c1.1 0 2-.9 2-2s-.9-2-2-2-2 .9-2 2 .9 2 2 2zm25-15v2h5v22h-5v2h7V19h-7zM36 34c1.1 0 2-.9 2-2s-.9-2-2-2-2 .9-2 2 .9 2 2 2zm9-19h1v4H5v26h41v4h-1v2h4v-2h-1V15h1v-2h-4v2zm1 28H7V21h39v22z"/></g></svg><svg id="edit-password-hover" viewBox="-1 -1 66 66" width="66" height="66" x="66" y="330"><style>.byst0{fill:url(#byXMLID_2_)}</style><g id="byXMLID_65_"><linearGradient id="byXMLID_2_" gradientUnits="userSpaceOnUse" x1="44.477" y1="53.611" x2="19.621" y2="10.559"><stop offset="0" stop-color="#0063ff"/><stop offset="1" stop-color="#00c8de"/></linearGradient><path id="byXMLID_66_" class="byst0" d="M18 34c1.1 0 2-.9 2-2s-.9-2-2-2-2 .9-2 2 .9 2 2 2zm9 0c1.1 0 2-.9 2-2s-.9-2-2-2-2 .9-2 2 .9 2 2 2zm25-15v2h5v22h-5v2h7V19h-7zM36 34c1.1 0 2-.9 2-2s-.9-2-2-2-2 .9-2 2 .9 2 2 2zm9-19h1v4H5v26h41v4h-1v2h4v-2h-1V15h1v-2h-4v2zm1 28H7V21h39v22z"/></g></svg><svg id="edit-phone" viewBox="-1 -1 66 66" width="66" height="66" x="132" y="330"><style>.bzst0{fill-rule:evenodd;clip-rule:evenodd;fill:#757a80}</style><g id="bzXMLID_14_"><g id="bzXMLID_92_"><path id="bzXMLID_93_" class="bzst0" d="M38 29H26v2h12v-2zm2 7h4.2l18.4-18.4-4.5-4.5L40 31.7V36zm18.4-19.8l1.4 1.4-14.1 14.1-1.4-1.4 14.1-14.1zM42.8 31.7l1.4 1.4-1.4 1.4-.4-.4-1-1 1.4-1.4zM48 48H18V8h30v11.3l2-1.7V6H16v52h34V34.7l-2 1.7V48zm0 8H18v-6h30v6zm-12-4h-6v2h6v-2zM26 36h12v-2H26v2zm16-12H26v2h16v-2z"/></g></g></svg><svg id="edit-phone-hover" viewBox="-1 -1 66 66" width="66" height="66" x="198" y="330"><style>.cast0{fill:url(#caXMLID_2_)}</style><g id="caXMLID_14_"><g id="caXMLID_92_"><linearGradient id="caXMLID_2_" gradientUnits="userSpaceOnUse" x1="50.722" y1="57.583" x2="19.705" y2="3.861"><stop offset="0" stop-color="#0063ff"/><stop offset="1" stop-color="#00c8de"/></linearGradient><path id="caXMLID_93_" class="cast0" d="M38 29H26v2h12v-2zm2 7h4.2l18.4-18.4-4.5-4.5L40 31.7V36zm18.4-19.8l1.4 1.4-14.1 14.1-1.4-1.4 14.1-14.1zM42.8 31.7l1.4 1.4-1.4 1.4-.4-.4-1-1 1.4-1.4zM48 48H18V8h30v11.3l2-1.7V6H16v52h34V34.7l-2 1.7V48zm0 8H18v-6h30v6zm-12-4h-6v2h6v-2zM26 36h12v-2H26v2zm16-12H26v2h16v-2z"/></g></g></svg><svg id="email" width="66" height="66" viewBox="7 -9 66 66" x="264" y="330"><style>.cbst0{fill-rule:evenodd;clip-rule:evenodd;fill:#f0f1f2}</style><path class="cbst0" d="M40-8C22.3-8 8 6.3 8 24s14.3 32 32 32 32-14.3 32-32S57.7-8 40-8zm0 62c-16.5 0-30-13.5-30-30S23.5-6 40-6 70 7.5 70 24 56.5 54 40 54zM25 36h30V12H25v24zm26.3-22L40 23.7 28.7 14h22.6zM27 15.2l13 11.1 13-11.1V34H27V15.2z"/></svg><svg id="error-icon" width="18" height="18" viewBox="-1 -1 18 18" x="396" y="464"><style>.ccst0{fill-rule:evenodd;clip-rule:evenodd;fill:#ff7200}</style><path class="ccst0" d="M8 10h1V4H8v6zm7-6.6L9.2.1C9 0 8.8 0 8.5 0c-.3 0-.6.1-.8.2L1.9 3.4c-.5.3-.9.8-.9 1.4v6.4c0 .6.4 1.1.8 1.4l5.7 3.2c.3.1.7.2 1 .2.3 0 .6-.1.8-.2l5.8-3.2c.5-.3.8-.8.9-1.4V4.8c0-.6-.4-1.2-1-1.4zm0 7.4c0 .5-.3 1-.7 1.2l-5 2.8c-.3.1-.5.2-.8.2-.3 0-.6-.1-.8-.2l-5-2.8c-.4-.3-.7-.7-.7-1.2V5.2c0-.5.3-1 .7-1.2l5-2.8c.3-.1.5-.2.8-.2.2 0 .4 0 .6.1l5 2.8c.5.3.9.7.9 1.3v5.6zM8 12h1v-1H8v1z"/></svg><svg width="20" height="20" viewBox="-1 -1 20 20" id="feedback-add-icon" x="496" y="385"><title>Group 4</title><g fill="none" fill-rule="evenodd"><circle stroke="#00A4FF" cx="9" cy="9" r="8.5"/><path fill="#00A4FF" d="M4 9h10v1H4z"/><path fill="#00A4FF" d="M9.5 4.5v10h-1v-10z"/></g></svg><svg width="26" height="26" viewBox="-1 -1 26 26" id="feedback-edit" x="496" y="313"><title>Group 4</title><g transform="translate(-1506 -1172)" fill="none" fill-rule="evenodd"><path stroke="#D9D9D9" fill="#F2F2F2" d="M735.5 1167.5h799v141h-799z"/><g transform="translate(1506 1172)"><path d="M18 10.73L14.101 6H6v12h12v-7.27zM18.357 5l-8.982 9.625" stroke="#666" stroke-width="2"/><path d="M0 0h24v24H0z"/></g></g></svg><svg width="26" height="26" viewBox="-1 -1 26 26" id="feedback-edit-hover" x="496" y="287"><title>Group 6</title><g fill="none" fill-rule="evenodd"><path fill="#E6E6E6" d="M0 0h24v24H0z"/><g transform="translate(5 5)" stroke="#00A4FF" stroke-width="2"><path d="M13 5.73L9.101 1H1v12h12V5.73zM13.357 0L4.375 9.625"/></g></g></svg><svg width="18" height="18" viewBox="-1 -1 18 18" id="feedback-tips-icon" x="324" y="464"><title>提示icon</title><defs><path d="M1 8a7 7 0 1 0 14 0A7 7 0 0 0 1 8zm1 0c0-3.309 2.691-6 6-6 3.308 0 6 2.691 6 6 0 3.308-2.692 6-6 6-3.309 0-6-2.692-6-6z" id="cga"/></defs><g fill="none" fill-rule="evenodd"><path d="M0 0h16v16H0z"/><use fill="#003B80" xlink:href="#cga"/><path fill="#003B80" d="M9 7H6v1h1v4h1.917l1-1H9zM7 5.99h2v-2H7z"/></g></svg><svg id="filing-domain" width="66" height="66" viewBox="-1 -1 66 66" x="330" y="330"><style>.chst0{fill-rule:evenodd;clip-rule:evenodd;fill:#757a80}</style><path class="chst0" d="M47 41v-8c0-1.1-.9-2-2-2h-6c-1.1 0-2 .9-2 2v8h2v-8h2v8h2v-8h2v8h2zm11 4V11H6v42h52v-2H8V21h48v24h2zM8 19v-6h48v6H8zm18 14v-2h-4c-1.1 0-2 .9-2 2v6c0 1.1.9 2 2 2h4v-2h-4v-6h4zm4-2c-1.1 0-2 .9-2 2v6c0 1.1.9 2 2 2h3c1.1 0 2-.9 2-2v-6c0-1.1-.9-2-2-2h-3zm3 8h-3v-6h3v6zm-15 2v-2h-2v2h2z"/></svg><svg id="filing-domain-hover" width="66" height="66" viewBox="-1 -1 66 66" x="396"><style>.cist0{fill:url(#ciSVGID_1_)}</style><linearGradient id="ciSVGID_1_" gradientUnits="userSpaceOnUse" x1="47.593" y1="59.008" x2="16.407" y2="4.992"><stop offset="0" stop-color="#0063ff"/><stop offset="1" stop-color="#00c8de"/></linearGradient><path class="cist0" d="M58 45V11H6v42h52v-2H8V21h48v24h2zM8 19v-6h48v6H8zm39 22v-8c0-1.1-.9-2-2-2h-6c-1.1 0-2 .9-2 2v8h2v-8h2v8h2v-8h2v8h2zm-21-8v-2h-4c-1.1 0-2 .9-2 2v6c0 1.1.9 2 2 2h4v-2h-4v-6h4zm4-2c-1.1 0-2 .9-2 2v6c0 1.1.9 2 2 2h3c1.1 0 2-.9 2-2v-6c0-1.1-.9-2-2-2h-3zm3 8h-3v-6h3v6zm-15 2v-2h-2v2h2z"/></svg><svg id="gift" width="66" height="66" viewBox="7 -9 66 66" x="396" y="66"><style>.cjst0{fill:#f0f1f2}</style><path class="cjst0" d="M40-8C22.3-8 8 6.3 8 24s14.3 32 32 32 32-14.3 32-32S57.7-8 40-8zm0 62c-16.5 0-30-13.5-30-30S23.5-6 40-6 70 7.5 70 24 56.5 54 40 54z"/><path class="cjst0" d="M48.8 10.2C48 9.4 47 9 46 9s-2 .4-2.8 1.2L40 13.3l-3.2-3.2C36 9.4 35 9 34 9s-2 .4-2.8 1.2c-1.3 1.3-1.5 3.3-.6 4.8H25v9h2v15h26V24h2v-9h-5.6c.9-1.5.7-3.5-.6-4.8zm-16.2 1.4c.4-.4.9-.6 1.4-.6s1 .2 1.4.6l3.2 3.2.2.2h-6l-.6-1c-.4-.8-.2-1.8.4-2.4zM39 37H29V24h10v13zm0-15H27v-5h12v5zm2.4-7.2l3.2-3.2c.4-.4.9-.6 1.4-.6s1 .2 1.4.6c.6.6.8 1.6.3 2.4l-.6 1h-6l.3-.2zM51 37H41V24h10v13zm2-20v5H41v-5h12z"/></svg><svg width="20" height="20" viewBox="-1 -1 20 20" id="gift-icon" x="496" y="425"><title>Group</title><g fill-rule="nonzero" fill="none"><path d="M0 0h18v18H0z"/><path d="M3.127 5C2.097 3.94 1.721 2.579 2.3 1.576 3.058.263 5.164.06 7.005 1.123 7.962 1.675 8.658 2.46 9 3.27c.342-.81 1.038-1.596 1.995-2.148 1.84-1.063 3.947-.86 4.705.453.58 1.003.203 2.364-.827 3.424h2.377c.414 0 .75.448.75 1v3c0 .552-.336 1-.75 1H16v8H2v-8H.75C.336 10 0 9.552 0 9V6c0-.552.336-1 .75-1h2.377zM10 16h4v-6h-4v6zm-2 0v-6H4v6h4zm2-8h6V7h-6v1zM8 8V7H2v1h6zm4.825-3.708c1.007-.581 1.395-1.432 1.209-1.754-.186-.322-1.117-.412-2.124.17-1.008.581-1.395 1.432-1.21 1.754.187.322 1.117.412 2.125-.17zm-7.65 0c1.008.582 1.938.492 2.124.17.186-.322-.201-1.173-1.209-1.754-1.007-.582-1.938-.492-2.124-.17-.186.322.202 1.173 1.21 1.754z" fill="#00A4FF"/></g></svg><svg width="20" height="20" viewBox="-1 -1 20 20" id="gift-icon-hover" x="496" y="405"><title>Group</title><g fill-rule="nonzero" fill="none"><path d="M0 0h18v18H0z"/><path d="M3.127 5C2.097 3.94 1.721 2.579 2.3 1.576 3.058.263 5.164.06 7.005 1.123 7.962 1.675 8.658 2.46 9 3.27c.342-.81 1.038-1.596 1.995-2.148 1.84-1.063 3.947-.86 4.705.453.58 1.003.203 2.364-.827 3.424h2.377c.414 0 .75.448.75 1v3c0 .552-.336 1-.75 1H16v8H2v-8H.75C.336 10 0 9.552 0 9V6c0-.552.336-1 .75-1h2.377zM10 16h4v-6h-4v6zm-2 0v-6H4v6h4zm2-8h6V7h-6v1zM8 8V7H2v1h6zm4.825-3.708c1.007-.581 1.395-1.432 1.209-1.754-.186-.322-1.117-.412-2.124.17-1.008.581-1.395 1.432-1.21 1.754.187.322 1.117.412 2.125-.17zm-7.65 0c1.008.582 1.938.492 2.124.17.186-.322-.201-1.173-1.209-1.754-1.007-.582-1.938-.492-2.124-.17-.186.322.202 1.173 1.21 1.754z" fill="#fff"/></g></svg><svg version="undefined" width="18" height="18" viewBox="-1 -1 18 18" id="global-1616-2-#999" x="270" y="464"><g fill="#999" fill-rule="evenodd" transform="translate(1 1)"><path d="M7 0C3.1 0 0 3.1 0 7s3.1 7 7 7 7-3.1 7-7-3.1-7-7-7zm0 13c-3.3 0-6-2.7-6-6s2.7-6 6-6 6 2.7 6 6-2.7 6-6 6z"/><path fill-rule="nonzero" d="M2.551 4.334c-.427.111-.742.198-.914.247l-.773.22.144-.79c.408-2.242 3.61-4.59 7.297-3.8A6.874 6.874 0 0 1 12.42 2.81a8.04 8.04 0 0 1 1.078 1.896c.157.391.25.7.29.888l.159.722-4.381-.73a2.18 2.18 0 0 1-.146.467c-.232.526-.66.9-1.281 1.06.376 1.014.315 1.974-.032 2.816a2.8 2.8 0 0 1-.304.568l-.094.128-1.26.42-1.209-.672L4.417 9H3.3V7.703a4.22 4.22 0 0 1-.11-.302 3.282 3.282 0 0 1-.144-.657c-.056-.533.067-.987.477-1.26.283-.189.678-.62.886-1.008.155-.288.193-.486.127-.627-.686.156-1.355.32-1.985.485zM4.595 2.81l.211-.047.18.126c.7.49.73 1.266.305 2.059-.287.534-.795 1.088-1.214 1.367-.031.021-.058.12-.037.324a2.826 2.826 0 0 0 .214.75l.046.21V8h.683l.977 1.628.59.328.521-.173c.033-.062.072-.141.111-.237.312-.757.312-1.637-.22-2.605L6.554 6.2H7.4c.635 0 .951-.203 1.105-.552a1.28 1.28 0 0 0 .1-.58l-.08-.67 4.042.673a7.048 7.048 0 0 0-.94-1.653 5.88 5.88 0 0 0-3.532-2.23c-2.616-.56-4.924.735-5.78 2.174.72-.188 1.489-.375 2.28-.55z"/></g></svg><svg id="guide" width="18" height="18" viewBox="-1 -1 18 18" x="252" y="464"><style>.cnst0{fill:#999}</style><g id="cnXMLID_2_"><g id="cnXMLID_55_"><path id="cnXMLID_56_" class="cnst0" d="M8 15c-3.9 0-7-3.1-7-7s3.2-7 7-7c3.5 0 6.5 2.6 6.9 6h1c-.5-3.9-3.9-7-8-7C3.6 0 0 3.6 0 8s3.6 8 8 8c4.1 0 7.5-3.1 8-7h-1c-.5 3.4-3.4 6-7 6zm-2.5-2.7l5.1-2.8-.1-5.8-5.1 2.8.1 5.8zm4.1-6.9v3L7 6.8l2.6-1.4zm-.5 3.8l-2.6 1.4v-3l2.6 1.6z"/></g></g></svg><svg width="34" height="34" viewBox="-1 -1 34 34" id="icon-develop" x="462" y="374"><title>Artboard</title><g fill="none" fill-rule="nonzero"><path d="M0 0h32v32H0z"/><g transform="translate(1 3)" fill="#7C848E"><path d="M28 6H2v2h26V6z"/><path d="M2 2v22h26V2H2zM0 0h30v26H0V0z"/><path d="M20 3h2v2h-2zM24 3h2v2h-2zM9.409 16.028l2.313 2.339-1.422 1.406-3.709-3.75 3.711-3.728 1.418 1.41zM18.591 18.367l1.422 1.406 3.71-3.75-3.712-3.728-1.418 1.41 2.312 2.323zM16.39 10.724l1.886.666-3.666 10.386-1.886-.666z"/></g></g></svg><svg width="18" height="18" viewBox="-1 -1 18 18" id="icon-down-pdf" x="234" y="464"><title>pdf</title><g fill="none" fill-rule="evenodd" stroke="#666"><path fill="#666" d="M.5.5h1v15h-1zM14.5 9.5h1v6h-1z"/><path fill="#666" d="M14.5.5h1v15h-1z"/><path fill="#666" d="M15.5 14.5v1H.5v-1zM15.5.5v1H.5v-1z"/><path d="M4.59 11.946c.714.276 1.48-.51 2.296-2.36 1.225-2.773 2.088-4.592 1.081-5.489-1.007-.896-1.267 4.67 2.59 5.965 3.856 1.296 1.438-2.327-2.59-.875-2.685.969-3.81 1.888-3.376 2.76z" stroke-width=".7"/></g></svg><svg width="18" height="18" viewBox="-1 -1 18 18" id="icon-down-pdf-active" x="216" y="464"><title>pdf</title><g fill="none" fill-rule="evenodd" stroke="#00a4ff"><path fill="#00a4ff" d="M.5.5h1v15h-1zM14.5 9.5h1v6h-1z"/><path fill="#00a4ff" d="M14.5.5h1v15h-1z"/><path fill="#00a4ff" d="M15.5 14.5v1H.5v-1zM15.5.5v1H.5v-1z"/><path d="M4.59 11.946c.714.276 1.48-.51 2.296-2.36 1.225-2.773 2.088-4.592 1.081-5.489-1.007-.896-1.267 4.67 2.59 5.965 3.856 1.296 1.438-2.327-2.59-.875-2.685.969-3.81 1.888-3.376 2.76z" stroke-width=".7"/></g></svg><svg id="icon-download" width="18" height="18" viewBox="-1 -1 18 18" x="198" y="464"><style>.crst0{fill-rule:evenodd;clip-rule:evenodd;fill:#00a4ff}</style><g id="crXMLID_2_"><g id="crXMLID_38_"><path id="crXMLID_39_" class="crst0" d="M1 1v15h13V1H1zm12 14H2V2h11v13zm-2.5-5.7l-.7-.8L8 10.4V4H7v6.4L5.3 8.5l-.8.8 3 3.2 3-3.2z"/></g></g></svg><svg width="18" height="18" viewBox="-1 -1 18 18" id="icon-download2-#00a4ff" x="180" y="464"><style>.csst0{fill-rule:evenodd;clip-rule:evenodd;fill:#00a4ff}</style><path class="csst0" d="M11 7H9V1H7v6H5l3 4 3-4zm1 3v2H4v-2H2v4h12v-4h-2z"/></svg><svg width="18" height="18" viewBox="-1 -1 18 18" id="icon-download2-#666666" x="162" y="464"><style>.ctst0{fill-rule:evenodd;clip-rule:evenodd;fill:#666}</style><path class="ctst0" d="M11 7H9V1H7v6H5l3 4 3-4zm1 3v2H4v-2H2v4h12v-4h-2z"/></svg><svg width="18" height="18" viewBox="-1 -1 18 18" id="icon-edit-git" x="144" y="464"><title>编辑</title><g fill="none" fill-rule="evenodd" stroke="#666"><path fill="#666" d="M.5.5h1v15h-1zM14.5 9.5h1v6h-1z"/><path fill="#666" d="M15.5 14.5v1H.5v-1zM6.5.5v1h-6v-1z"/><g transform="translate(1 -1)"><path d="M10.828 2.343L4.053 9.118l.021 2.855 2.802-.02 6.78-6.781-2.828-2.829z" stroke-width="2"/><path fill="#666" d="M8.707 3.757l3.535 3.536-.707.707L8 4.464z"/></g></g></svg><svg width="18" height="18" viewBox="-1 -1 18 18" id="icon-edit-git-active" x="126" y="464"><title>编辑</title><g fill="none" fill-rule="evenodd" stroke="#00a4ff"><path fill="#00a4ff" d="M.5.5h1v15h-1zM14.5 9.5h1v6h-1z"/><path fill="#00a4ff" d="M15.5 14.5v1H.5v-1zM6.5.5v1h-6v-1z"/><g transform="translate(1 -1)"><path d="M10.828 2.343L4.053 9.118l.021 2.855 2.802-.02 6.78-6.781-2.828-2.829z" stroke-width="2"/><path fill="#00a4ff" d="M8.707 3.757l3.535 3.536-.707.707L8 4.464z"/></g></g></svg><svg width="34" height="34" viewBox="-1 -1 34 34" id="icon-error" x="238" y="430"><title>Page 1</title><defs><path id="cwa" d="M0 0h32v32H0z"/></defs><g fill="none" fill-rule="evenodd"><mask id="cwb" fill="#fff"><use xlink:href="#cwa"/></mask><path d="M16 28.903C8.885 28.903 3.097 23.115 3.097 16S8.885 3.097 16 3.097 28.903 8.885 28.903 16 23.115 28.903 16 28.903zM16 0C7.164 0 0 7.163 0 16c0 8.836 7.164 16 16 16s16-7.164 16-16c0-8.837-7.164-16-16-16zm-1.548 18.58h3.097V8.257h-3.097V18.58zm0 5.162h3.097v-3.097h-3.097v3.097z" fill="#E54545" mask="url(#cwb)"/></g></svg><svg width="20" height="20" viewBox="-1 -1 20 20" id="icon-gift-s" x="438" y="350"><title>Group</title><g fill-rule="nonzero" fill="none"><path d="M0 0h18v18H0z"/><path d="M3.127 4.558c-1.03-1.06-1.406-2.42-.827-3.424C3.058-.179 5.164-.38 7.005.681 7.962 1.233 8.658 2.02 9 2.83c.342-.811 1.038-1.597 1.995-2.149 1.84-1.062 3.947-.86 4.705.453.58 1.003.203 2.364-.827 3.424h2.377c.414 0 .75.448.75 1v3c0 .553-.336 1-.75 1H16v8H2v-8H.75c-.414 0-.75-.447-.75-1v-3c0-.552.336-1 .75-1h2.377zm6.873 11h4v-6h-4v6zm-2 0v-6H4v6h4zm2-8h6v-1h-6v1zm-2 0v-1H2v1h6zm4.825-3.707c1.007-.582 1.395-1.432 1.209-1.755-.186-.322-1.117-.412-2.124.17-1.008.582-1.395 1.432-1.21 1.754.187.323 1.117.412 2.125-.17zm-7.65 0c1.008.581 1.938.492 2.124.17.186-.323-.201-1.173-1.209-1.755-1.007-.582-1.938-.492-2.124-.17-.186.323.202 1.173 1.21 1.755z" fill="#00A4FF"/></g></svg><svg width="20" height="20" viewBox="-1 -1 20 20" id="icon-gift-s-hover" x="438" y="330"><title>Group</title><g fill-rule="nonzero" fill="none"><path d="M0 0h18v18H0z"/><path d="M3.127 4.558c-1.03-1.06-1.406-2.42-.827-3.424C3.058-.179 5.164-.38 7.005.681 7.962 1.233 8.658 2.02 9 2.83c.342-.811 1.038-1.597 1.995-2.149 1.84-1.062 3.947-.86 4.705.453.58 1.003.203 2.364-.827 3.424h2.377c.414 0 .75.448.75 1v3c0 .553-.336 1-.75 1H16v8H2v-8H.75c-.414 0-.75-.447-.75-1v-3c0-.552.336-1 .75-1h2.377zm6.873 11h4v-6h-4v6zm-2 0v-6H4v6h4zm2-8h6v-1h-6v1zm-2 0v-1H2v1h6zm4.825-3.707c1.007-.582 1.395-1.432 1.209-1.755-.186-.322-1.117-.412-2.124.17-1.008.582-1.395 1.432-1.21 1.754.187.323 1.117.412 2.125-.17zm-7.65 0c1.008.581 1.938.492 2.124.17.186-.323-.201-1.173-1.209-1.755-1.007-.582-1.938-.492-2.124-.17-.186.323.202 1.173 1.21 1.755z" fill="#FFF"/></g></svg><svg width="8" height="10" viewBox="-1 -1 8 10" id="icon-more" x="522" y="287"><title>Combined Shape Copy 8</title><path d="M3.547 4L0 1.031 1.227 0 6 4 1.227 8 0 6.969z" fill="#00A4FF" fill-rule="evenodd" opacity=".9"/></svg><svg id="icon-next" width="11" height="16" viewBox="-1 -1 11 16" x="519" y="339"><style>.dast0{fill:#7f7f7f}</style><g id="daXMLID_2_"><g id="daXMLID_22_"><path id="daXMLID_24_" class="dast0" d="M9 7L7.6 5.6 1.9 0 .5 1.4 6.2 7 .5 12.6 1.9 14l5.7-5.6z"/></g></g></svg><svg width="34" height="34" viewBox="-1 -1 34 34" id="icon-practice" x="408" y="430"><title>Artboard Copy</title><g fill="none" fill-rule="nonzero"><g transform="translate(3 2)" fill="#7C848E"><path d="M20.96 12.99l-3.97-2.74L13 12.91V0h2v9.17l2.01-1.34 1.95 1.35V.04h2zM20.05 16.06h-20v2h20v-2zM16.01 20.06H.14v2h15.87v-2z"/><path d="M2 2v24h22V2H2zM0 0h26v28H0V0z"/></g><path d="M0 0h32v32H0z"/></g></svg><svg id="icon-prev" width="11" height="16" viewBox="-1 -1 11 16" x="519" y="362"><style>.dcst0{fill:#7f7f7f}</style><g id="dcXMLID_2_"><g id="dcXMLID_22_"><path id="dcXMLID_24_" class="dcst0" d="M0 7l1.4 1.4L7.1 14l1.4-1.4L2.8 7l5.7-5.6L7.1 0 1.4 5.6z"/></g></g></svg><svg id="icon-question" width="20" height="20" viewBox="-1 -1 20 20" x="462" y="408"><style>.ddst0{fill:#00a4ff}</style><g id="ddXMLID_15_"><g id="ddXMLID_76_"><path id="ddXMLID_77_" class="ddst0" d="M4 9h2V7H4v2zm4 0h2V7H8v2zm4 0h2V7h-2v2zm4-7H2C.9 2 0 2.9 0 4v8c0 1.1.9 2 2 2v3.1c0 .4.2.7.6.9h.3c.3 0 .5-.1.7-.3L6.7 14H16c1.1 0 2-.9 2-2V4c0-1.1-.9-2-2-2zm1 10c0 .6-.4 1-1 1H6.3l-.9 1.1L3 16.8V13H2c-.6 0-1-.4-1-1V4c0-.6.4-1 1-1h14c.6 0 1 .4 1 1v8z"/></g></g></svg><svg width="34" height="34" viewBox="-1 -1 34 34" id="icon-tips" x="496" y="34"><title>Artboard Copy 3</title><g fill="none" fill-rule="nonzero"><g transform="translate(3 2)" fill="#7C848E"><path d="M26 6H8v2h18V6zM16 10H8v2h8v-2z"/><path d="M24 21h2v7H0V0h26v8h-2V2H2v24h22v-5z"/><g transform="rotate(-45 33.435 -3.121)"><path d="M2 2L.545 1 2 0h11v2H2zM17 0h-2v2h2V0z"/></g></g><path d="M0 0h32v32H0z"/></g></svg><svg width="34" height="34" viewBox="-1 -1 34 34" id="icon-understand" x="306" y="396"><title>Artboard</title><g fill="none" fill-rule="evenodd"><path fill-rule="nonzero" d="M0 0h32v32H0z"/><g transform="translate(0 2)" fill="#7C848E"><path d="M24 25a6 6 0 0 0 1.445-11.825l-1.722-.426.217-1.76a8 8 0 1 0-15.88 0l.217 1.76-1.722.426A6 6 0 0 0 8 25h16zm0 2H8a8 8 0 0 1-1.925-15.767A10.1 10.1 0 0 1 6 10C6 4.477 10.477 0 16 0s10 4.477 10 10c0 .417-.026.829-.075 1.233A8 8 0 0 1 24 27z" fill-rule="nonzero"/><path d="M10 18h2v-2h-2zM10 14h2v-2h-2zM14 18h7.995v-2H14zM14 14h7.995v-2H14zM13.971 22h7.995v-2h-7.995zM9.971 22h2v-2h-2z"/></g></g></svg><svg id="icon-video" width="18" height="18" viewBox="-1 -1 18 18" x="476" y="430"><style>.dgst0{fill-rule:evenodd;clip-rule:evenodd;fill:#00a4ff}</style><g id="dgXMLID_6_"><g id="dgXMLID_37_"><path id="dgXMLID_38_" class="dgst0" d="M8.5 1C4.4 1 1 4.4 1 8.5S4.4 16 8.5 16 16 12.6 16 8.5 12.6 1 8.5 1zm0 14C4.9 15 2 12.1 2 8.5S4.9 2 8.5 2 15 4.9 15 8.5 12.1 15 8.5 15z"/></g></g><path id="dgXMLID_366_" class="dgst0" d="M7 6v5l4-2.5z"/></svg><svg id="income-expenses" viewBox="-1 -1 66 66" width="66" height="66" x="396" y="132"><style>.dhst0{fill-rule:evenodd;clip-rule:evenodd;fill:#757a80}</style><g id="dhXMLID_11_"><g id="dhXMLID_98_"><path id="dhXMLID_99_" class="dhst0" d="M21 28h2v-2h-2v2zm0 7h2v-2h-2v2zm5 7h17v-2H26v2zm-5 0h2v-2h-2v2zM43 8V6H21v2H11v48h42V8H43zM23 8h18v4H23V8zm28 46H13V10h8v4h22v-4h8v44zM26 28h17v-2H26v2zm0 7h17v-2H26v2z"/></g></g></svg><svg id="income-expenses-hover" viewBox="-1 -1 66 66" width="66" height="66" x="396" y="198"><style>.dist0{fill:url(#diXMLID_2_)}</style><g id="diXMLID_11_"><g id="diXMLID_98_"><linearGradient id="diXMLID_2_" gradientUnits="userSpaceOnUse" x1="47.642" y1="59.093" x2="16.358" y2="4.907"><stop offset="0" stop-color="#0063ff"/><stop offset="1" stop-color="#00c8de"/></linearGradient><path id="diXMLID_99_" class="dist0" d="M21 28h2v-2h-2v2zm0 7h2v-2h-2v2zm5 7h17v-2H26v2zm-5 0h2v-2h-2v2zM43 8V6H21v2H11v48h42V8H43zM23 8h18v4H23V8zm28 46H13V10h8v4h22v-4h8v44zM26 28h17v-2H26v2zm0 7h17v-2H26v2z"/></g></g></svg><svg id="invoice" viewBox="-1 -1 66 66" width="66" height="66" y="198"><style>.djst0{fill-rule:evenodd;clip-rule:evenodd;fill:#757a80}</style><g id="djXMLID_108_"><path id="djXMLID_109_" class="djst0" d="M44 36h-2v2h2v-2zm0 8h-2v2h2v-2zm0-4h-2v2h2v-2zm0-8h-2v2h2v-2zm0-4h-2v2h2v-2zM9 37h16v-2H9v2zM2 51h50V23H2v28zm2-26h38v1h2v-1h6v24h-6v-1h-2v1H4V25zm5 17h12v-2H9v2zM7 20h48v24h2V18H7v2zm5-7v2h48v24h2V13H12zM9 32h22v-2H9v2z"/></g></svg><svg id="invoice-hover" viewBox="-1 -1 66 66" width="66" height="66" x="396" y="264"><style>.dkst0{fill:url(#dkXMLID_2_)}</style><g id="dkXMLID_108_"><linearGradient id="dkXMLID_2_" gradientUnits="userSpaceOnUse" x1="45.227" y1="54.91" x2="18.773" y2="9.09"><stop offset="0" stop-color="#0063ff"/><stop offset="1" stop-color="#00c8de"/></linearGradient><path id="dkXMLID_109_" class="dkst0" d="M44 36h-2v2h2v-2zm0 8h-2v2h2v-2zm0-4h-2v2h2v-2zm0-8h-2v2h2v-2zm0-4h-2v2h2v-2zM9 37h16v-2H9v2zM2 51h50V23H2v28zm2-26h38v1h2v-1h6v24h-6v-1h-2v1H4V25zm5 17h12v-2H9v2zM7 20h48v24h2V18H7v2zm5-7v2h48v24h2V13H12zM9 32h22v-2H9v2z"/></g></svg><svg width="18" height="18" viewBox="-1 -1 18 18" id="laba" x="18" y="464"><title>通知</title><defs><path id="dla" d="M0 14h16V.002H0z"/></defs><g fill="none" fill-rule="evenodd"><path d="M7 1L3 4.998H0v6h3l4 4h3V1H7zM1 5.998h2.413l.294-.293L7.414 2H9v11.998H7.414l-3.707-3.707-.293-.294H1V5.998z" fill="#FD7822"/><g transform="translate(0 .998)"><path d="M13 2.537a5.976 5.976 0 0 1 0 8.926v1.277A6.987 6.987 0 0 0 16 7a6.987 6.987 0 0 0-3-5.74v1.277z" fill="#FD7822"/><mask id="dlb" fill="#fff"><use xlink:href="#dla"/></mask><path fill="#FD7822" mask="url(#dlb)" d="M12 9h1V5h-1z"/></g></g></svg><svg id="menu-icon" width="18" height="18" viewBox="-1 -1 18 18" x="378" y="464"><style>.dmst0{fill:#666}</style><path class="dmst0" d="M2 3v2h12V3H2zm0 6h12V7H2v2zm0 4h12v-2H2v2z"/></svg><svg width="18" height="18" viewBox="-1 -1 18 18" id="menu-icon-#00a4ff" x="90" y="464"><style>.dnst0{fill:#00a4ff}</style><path class="dnst0" d="M2 3v2h12V3H2zm0 6h12V7H2v2zm0 4h12v-2H2v2z"/></svg><svg width="23" height="23" viewBox="-1 -1 23 23" id="nav-qcr-icon" x="496" y="362"><title>二维码</title><path d="M3.111 6.222h3.111v-3.11h-3.11v3.11zM0 21h9.333v-9.333H0V21zm1.556-1.556h6.222v-6.222H1.556v6.222zM3.11 17.89h3.111v-3.111h-3.11v3.11zm8.556-8.556H21V0h-9.333v9.333zm1.555-1.555h6.222V1.556h-6.222v6.222zm6.222 7h-3.11v-3.111h-4.667V21h1.555v-6.222h1.556v1.555H21v-4.666h-1.556v3.11zM0 9.333h9.333V0H0v9.333zm1.556-1.555h6.222V1.556H1.556v6.222zm13.222-1.556h3.11v-3.11h-3.11v3.11zM19.444 21H21v-3.111h-1.556V21zm-3.11 0h1.555v-3.111h-1.556V21z" fill="#7C848E" fill-rule="evenodd"/></svg><svg width="23" height="23" viewBox="-1 -1 23 23" id="nav-qcr-icon-#00a4ff" x="496" y="339"><path d="M3.111 6.222h3.111v-3.11h-3.11v3.11zM0 21h9.333v-9.333H0V21zm1.556-1.556h6.222v-6.222H1.556v6.222zM3.11 17.89h3.111v-3.111h-3.11v3.11zm8.556-8.556H21V0h-9.333v9.333zm1.555-1.555h6.222V1.556h-6.222v6.222zm6.222 7h-3.11v-3.111h-4.667V21h1.555v-6.222h1.556v1.555H21v-4.666h-1.556v3.11zM0 9.333h9.333V0H0v9.333zm1.556-1.555h6.222V1.556H1.556v6.222zm13.222-1.556h3.11v-3.11h-3.11v3.11zM19.444 21H21v-3.111h-1.556V21zm-3.11 0h1.555v-3.111h-1.556V21z" fill="#00a4ff" fill-rule="evenodd"/></svg><svg id="pc-l-arrow" width="18" height="18" viewBox="-1 -1 18 18" x="108" y="464"><style>.dqst0{fill-rule:evenodd;clip-rule:evenodd;fill:#666}</style><path id="dqXMLID_2_" class="dqst0" d="M6.2 8.7L9.8 12l.7-.7L6.9 8l3.6-3.3-.7-.7-3.6 3.3-.7.7.7.7z"/></svg><svg id="pc-l-arrow-hover" width="18" height="18" viewBox="-1 -1 18 18" x="288" y="464"><style>.drst0{fill-rule:evenodd;clip-rule:evenodd;fill:#2b2b2b}</style><path id="drXMLID_2_" class="drst0" d="M6.2 8.7L9.8 12l.7-.7L6.9 8l3.6-3.3-.7-.7-3.6 3.3-.7.7.7.7z"/></svg><svg id="pc-r-arrow" width="18" height="18" viewBox="-1 -1 18 18" x="306" y="464"><style>.dsst0{fill-rule:evenodd;clip-rule:evenodd;fill:#666}</style><path id="dsXMLID_5_" class="dsst0" d="M9.8 7.3L6.2 3.8l-.7.7L9.1 8l-3.6 3.5.7.7 3.6-3.5.7-.7z"/></svg><svg id="pc-r-arrow-hover" width="18" height="18" viewBox="-1 -1 18 18" x="342" y="464"><style>.dtst0{fill-rule:evenodd;clip-rule:evenodd;fill:#2a2b2b}</style><path id="dtXMLID_5_" class="dtst0" d="M9.8 7.3L6.2 3.8l-.7.7L9.1 8l-3.6 3.5.7.7 3.6-3.5.7-.7z"/></svg><svg id="ppt-full-screen" width="18" height="18" viewBox="-1 -1 18 18" x="360" y="464"><style>.dust0{fill-rule:evenodd;clip-rule:evenodd;fill:#00a4ff}</style><g id="duXMLID_18_"><g id="duXMLID_126_"><path id="duXMLID_127_" class="dust0" d="M4 2V1H1v3h1V3h1V2h1zm0 2v1h1V4H4zm1 2h1V5H5v1zM3 3v1h1V3H3zm8-2v1h1v1h1v1h1V1h-3zM9 6h1V5H9v1zm1-1h1V4h-1v1zm1-1h1V3h-1v1zm2 8h-1v1h-1v1h3v-3h-1v1zm-2-1v1h1v-1h-1zM9 9v1h1V9H9zm1 1v1h1v-1h-1zm-8 1H1v3h3v-1H3v-1H2v-1zm1 1h1v-1H3v1zm2-2h1V9H5v1zm-1 1h1v-1H4v1z"/></g></g></svg><svg id="ppt-lecturer" width="18" height="18" viewBox="-1 -1 18 18" x="360" y="482"><style>.dvst0{fill-rule:evenodd;clip-rule:evenodd;fill:#666}</style><g id="dvXMLID_7_"><g id="dvXMLID_64_"><path id="dvXMLID_65_" class="dvst0" d="M5 8h5V7H5v1zM0 1v13h15V1H0zm14 12H1V2h13v11zm-3-8H4v1h7V5zm-5 5h3V9H6v1z"/></g></g></svg><svg width="18" height="18" viewBox="-1 -1 18 18" id="ppt-lecturer-#00a4ff" x="496" y="445"><style>.dwst0{fill-rule:evenodd;clip-rule:evenodd;fill:#00a4ff}</style><path class="dwst0" d="M5 8h5V7H5v1zM0 1v13h15V1H0zm14 12H1V2h13v11zm-3-8H4v1h7V5zm-5 5h3V9H6v1z"/></svg><svg id="ppt-list" width="18" height="18" viewBox="-1 -1 18 18" x="396" y="372"><style>.dxst0{fill-rule:evenodd;clip-rule:evenodd;fill:#666}</style><g id="dxXMLID_2_"><g id="dxXMLID_50_"><path id="dxXMLID_51_" class="dxst0" d="M0 1v13h15V1H0zm1 1h4v2H1V2zm0 3h4v2H1V5zm0 3h4v2H1V8zm0 5v-2h4v2H1zm13 0H6V2h8v11z"/></g></g></svg><svg width="18" height="18" viewBox="-1 -1 18 18" id="ppt-list-#00a4ff" x="414" y="372"><style>.dyst0{fill-rule:evenodd;clip-rule:evenodd;fill:#00a4ff}</style><path class="dyst0" d="M0 1v13h15V1H0zm1 1h4v2H1V2zm0 3h4v2H1V5zm0 3h4v2H1V8zm0 5v-2h4v2H1zm13 0H6V2h8v11z"/></svg><svg id="ppt-pause" width="18" height="18" viewBox="-1 -1 18 18" x="432" y="372"><style>.dzst0{fill-rule:evenodd;clip-rule:evenodd;fill:#00a4ff}</style><g id="dzXMLID_4_"><g id="dzXMLID_29_"><path id="dzXMLID_30_" class="dzst0" d="M5 12h2V3H5v9zm4-9v9h2V3H9z"/></g></g></svg><svg id="ppt-play" width="18" height="18" viewBox="-1 -1 18 18" x="442" y="396"><style>.east0{fill-rule:evenodd;clip-rule:evenodd;fill:#00a4ff}</style><path id="eaXMLID_2_" class="east0" d="M4 2.5v11l8-5.6-8-5.4z"/></svg><svg id="prod-ai" width="34" height="34" viewBox="-1 -1 34 34" x="496" y="102"><style>.ebst0{fill:#757a80}</style><g id="ebXMLID_57_"><path id="ebXMLID_58_" class="ebst0" d="M17 9.1v-2c-.3-.1-.7-.1-1-.1-5 0-9 4-9 9 0 2.8 1.3 5.4 3.4 7l.3-.3 6.3-6.3V9.1zm-2 6.5l-4.6 4.6C9.5 19 9 17.6 9 16c0-3.5 2.6-6.4 6-6.9v6.5zm10 .4c0-3.9-2.5-7.2-6-8.5v2.2c2.4 1.1 4 3.5 4 6.3 0 3.9-3.1 7-7 7-.8 0-1.6-.2-2.3-.4l-1.5 1.5c1.2.6 2.5.9 3.9.9 4.9 0 8.9-4 8.9-9zm4-7.4l-1.5 1.5c.9 1.8 1.4 3.8 1.4 5.9 0 7.2-5.8 13-13 13-2.1 0-4.1-.5-5.9-1.4v-.2c0-1.1-.9-2-2-2s-2 .9-2 2 .9 2 2 2c.3 0 .5-.1.7-.1 2.3 1 4.7 1.7 7.3 1.7 8.3 0 15-6.7 15-15 0-2.7-.7-5.2-2-7.4zM16 3c2.1 0 4.1.5 5.9 1.4 0 1.1.9 2 2 2s2-.9 2-2-.9-2-2-2c-.3 0-.7.1-1 .3C20.9 1.6 18.5 1 16 1 7.7 1 1 7.7 1 16c0 2.7.7 5.2 2 7.4l1.5-1.5C3.5 20.1 3 18.1 3 16 3 8.8 8.8 3 16 3z"/></g></svg><svg width="34" height="34" viewBox="-1 -1 34 34" id="prod-ai-base" x="496" y="68"><defs><style>.eccls-1{fill:#fff}.eccls-2{fill:#757a80;fill-rule:evenodd}</style></defs><title>Icons</title><path class="eccls-1" d="M-790-20h894v603h-894z" id="ec图层_2" data-name="图层 2"/><path class="eccls-2" d="M4.72 6H28v15h2V4H4.72a2 2 0 1 0 0 2zM29 25a2 2 0 0 0-1.72 1H4V11H2v17h25.28A2 2 0 1 0 29 25zM9 20a2 2 0 0 0 3.72 1h6.55a2 2 0 1 0 2.1-3l-3.76-5.88a2 2 0 1 0-3.22 0L10.72 18A2 2 0 0 0 9 20zm7-6.61l3.43 5.37a2.14 2.14 0 0 0-.14.24H12.7a2.14 2.14 0 0 0-.1-.19z" id="ec图层_1" data-name="图层 1"/></svg><svg width="34" height="34" viewBox="-1 -1 34 34" id="prod-ai-platform" x="496"><defs><style>.edcls-1{fill:#fff}.edcls-2{fill:#757a80;fill-rule:evenodd}</style></defs><title>Icons</title><path class="edcls-1" d="M-738-20h894v603h-894z" id="ed图层_2" data-name="图层 2"/><path class="edcls-2" d="M4.72 6H28v15h2V4H4.72a2 2 0 1 0 0 2zM29 25a2 2 0 0 0-1.72 1H4V11H2v17h25.28A2 2 0 1 0 29 25zm-6-13a2 2 0 0 0-3.72-1h-6.56a2 2 0 1 0-2.1 3l3.76 5.88a2 2 0 1 0 3.22 0L21.28 14A2 2 0 0 0 23 12zm-7 6.61l-3.43-5.37a2.12 2.12 0 0 0 .14-.24h6.59a2.16 2.16 0 0 0 .1.19z" id="ed图层_1" data-name="图层 1"/></svg><svg width="34" height="34" viewBox="-1 -1 34 34" id="prod-app" x="442" y="430"><defs><style>.eecls-1{fill:#fff}.eecls-2{fill:#757a80;fill-rule:evenodd}</style></defs><title>Icons</title><path class="eecls-1" d="M-842-20H52v603h-894z" id="ee图层_2" data-name="图层 2"/><path class="eecls-2" d="M4.72 6H28v15h2V4H4.72a2 2 0 1 0 0 2zM29 25a2 2 0 0 0-1.72 1H4V11H2v17h25.28A2 2 0 1 0 29 25zm-6.27-5h-9l-1.14 2h9zm-5.58-10h-2.29l4.55 8h2.3zm-3.44 2l-4.5 7.87 1.14 2L14.86 14z" id="ee图层_1" data-name="图层 1"/></svg><svg width="34" height="34" viewBox="-1 -1 34 34" id="prod-big-data-base" x="374" y="430"><defs><style>.efcls-1{fill:#fff}.efcls-2{fill:#757a80;fill-rule:evenodd}</style></defs><title>Icons</title><path class="efcls-1" d="M-634-20h894v603h-894z" id="ef图层_2" data-name="图层 2"/><path class="efcls-2" d="M4.72 6H28v15h2V4H4.72a2 2 0 1 0 0 2zM20 13h-2v2h2zm4 10V9H8v14zm-14-8h6v-2h-6v-2h12v6h-6v2h6v2H10zm19 10a2 2 0 0 0-1.72 1H4V11H2v17h25.28A2 2 0 1 0 29 25zm-17-6h2v-2h-2z" id="ef图层_1" data-name="图层 1"/></svg><svg width="34" height="34" viewBox="-1 -1 34 34" id="prod-big-data-visual" x="340" y="430"><defs><style>.egcls-1{fill:#fff}.egcls-2{fill:#757a80;fill-rule:evenodd}</style></defs><title>Icons</title><path class="egcls-1" d="M-686-20h894v603h-894z" id="eg图层_2" data-name="图层 2"/><path class="egcls-2" d="M29 29a2 2 0 0 1-1.72-1H2V11h2v15h23.28A2 2 0 1 1 29 29zM19 13h5v9h1v2H6v-2h1v-5h5v5h1V10h5v12h1v-9zm2 9h1v-7h-1zm-11-3H9v3h1zm5-7v10h1V12zm13-6H4.72a2 2 0 1 1 0-2H30v17h-2z" id="eg图层_1" data-name="图层 1"/></svg><svg id="prod-cdn" width="34" height="34" viewBox="-1 -1 34 34" x="306" y="430"><style>.ehst0{fill-rule:evenodd;clip-rule:evenodd;fill:#757a80}</style><g id="ehXMLID_16_"><g id="ehXMLID_100_"><path id="ehXMLID_101_" class="ehst0" d="M29.6 7.8L16 0v2l11.9 6.8 1.7-1zM16 24l7-4v-8l-7-4v2l5.2 3-5.2 3-5.2-3 5.2-3V8l-7 4v8l7 4v-1 1zm1-6.6l4-2.3v4l-4 2.3v-4zm-2 4l-4-2.3v-4l4 2.3v4zM4 8.9L16 2V0L2 8v16l14 8v-2L4 23.1V8.9zM30 22V11.6l-2 1.1v10.4L16 30v2l14-8v-2z"/></g></g></svg><svg width="34" height="34" viewBox="-1 -1 34 34" id="prod-cdn-speed" x="272" y="430"><defs><style>.eicls-1{fill:#fff}.eicls-2{fill:#757a80}</style></defs><title>Icons</title><path class="eicls-1" d="M-218-20h894v603h-894z" id="ei图层_2" data-name="图层 2"/><g id="ei图层_1" data-name="图层 1"><g id="ei_编组_" data-name="&lt;编组>"><g id="ei_编组_2" data-name="&lt;编组>"><path id="ei_复合路径_" data-name="&lt;复合路径>" class="eicls-2" d="M28 22.84L16 29.7 4 22.84V9.16L16 2.3l12 6.86L30 8 16 0 2 8v16l14 8 14-8V12l-2 1.14zM9 20l7 4v-8l-7-4zm2-4.55l3 1.71v3.39l-3-1.71zM24 20v-8l-7-4v2.3l5 2.86v5.7zm-4 2v-8l-7-4v2.3l5 2.86v5.7z"/></g></g></g></svg><svg id="prod-cloud" width="34" height="34" viewBox="-1 -1 34 34" x="204" y="430"><style>.ejst0{fill:#757a80}</style><g id="ejXMLID_65_"><path id="ejXMLID_66_" class="ejst0" d="M4 8.9L16 2V0L2 8v16l14 8v-2L4 23.1V8.9zM30 22V11.6l-2 1.1v10.4L16 30v2l14-8v-2zm-.4-14.2L16 0v2l11.9 6.8 1.7-1zM8 18c0 2.2 1.8 4 4 4h8c2.2 0 4-1.8 4-4 0-1.9-1.3-3.4-3-3.9V14c0-2.8-2.2-5-5-5s-5 2.2-5 5v.1c-1.7.5-3 2-3 3.9zm3.5-1.9l1.5-.4v-1.6-.2c0-1.6 1.4-2.9 3-2.9s2.9 1.3 3 2.9v1.8l1.5.4c.9.2 1.5 1 1.5 1.9 0 1.1-.9 2-2 2h-8c-1.1 0-2-.9-2-2 0-.9.6-1.7 1.5-1.9z"/></g></svg><svg width="34" height="34" viewBox="-1 -1 34 34" id="prod-communication" x="170" y="430"><defs><style>.ekcls-1{fill:#fff}.ekcls-2,.ekcls-3{fill:#757a80}.ekcls-2{fill-rule:evenodd}</style></defs><title>Icons</title><path class="ekcls-1" d="M-426-20h894v603h-894z" id="ek图层_2" data-name="图层 2"/><g id="ek图层_1" data-name="图层 1"><path class="ekcls-2" d="M27 25V1H5v30h22v-2H7V3h18v22zm-4-14h-2v4H9l4 4v-2h10zm-4-6v2H9v6h2V9h12zm-1 19v-2h-4v2z" id="ek_编组_" data-name="&lt;编组>"/><path class="ekcls-3" d="M13 11h2v2h-2zM17 11h2v2h-2z"/></g></svg><svg id="prod-compute" width="34" height="34" viewBox="-1 -1 34 34" x="136" y="430"><style>.elst0{fill-rule:evenodd;clip-rule:evenodd;fill:#757a80}</style><g id="elXMLID_15_"><g id="elXMLID_62_"><path id="elXMLID_63_" class="elst0" d="M16 29C8.8 29 3 23.2 3 16S8.8 3 16 3c6.5 0 11.9 4.8 12.8 11h2C29.9 6.7 23.6 1 16 1 7.7 1 1 7.7 1 16s6.7 15 15 15c7.6 0 13.9-5.7 14.9-13h-2c-1 6.2-6.4 11-12.9 11zm0-11v-2l-5.3-3 5.3-3V8l-7 4v8l3.2 1.8c.2-.6.5-1.1.9-1.5L11 19.1v-4l5 2.9zm7-4v-2l-7-4v2l5.3 3-5.3 3v2l5-2.9v4l-3.9 2.2c-.3-.2-.7-.3-1.1-.3-1.1 0-2 .9-2 2s.9 2 2 2 2-.9 2-2v-.1l5-2.9v-6z"/></g></g></svg><svg width="34" height="34" viewBox="-1 -1 34 34" id="prod-data-process" x="102" y="430"><path fill="#757A80" d="M0 2.984v2.01h30.086v18.059h2.078V2.984H0zM2.078 8.98H0v20.035h32.082v-2H2.078V8.98zm8.978 4.021h15.077L22.111 8.98v2.01H11.056c-1.608 0-3.016 1.407-3.016 3.015s1.408 3.016 3.016 3.016h3.015v-2.01h-3.015c-.603 0-1.005-.403-1.005-1.005s.403-1.005 1.005-1.005zm-1.005 10.052v-2.012h11.057c1.607 0 3.016-1.406 3.016-3.016 0-1.607-1.408-3.014-3.016-3.014h-3.016v2.01h3.016c.602 0 1.004.402 1.004 1.004 0 .604-.402 1.006-1.004 1.006H6.031l4.02 4.022z"/></svg><svg id="prod-database" width="34" height="34" viewBox="-1 -1 34 34" x="68" y="430"><style>.enst0{fill:#757a80}</style><g id="enXMLID_2_"><g id="enXMLID_110_"><path id="enXMLID_111_" class="enst0" d="M5 25H3c0 2.5 4.4 4.6 10.2 4.9-.4-.6-.7-1.3-1-2.1C8.1 27.5 5 26.4 5 25zm10.6-6H15c-5.5 0-10-1.3-10-3V9.8c2.1 1.3 5.8 2.2 10 2.2s7.9-.9 10-2.2v4.5c.7.2 1.4.5 2 .8V7c0-2.8-5.4-5-12-5S3 4.2 3 7v18h2v-6.2c2 1.3 5.3 2.1 9.2 2.2.3-.3.7-.6 1.1-.9 0-.4.2-.7.3-1.1zM15 4c5.5 0 10 1.3 10 3s-4.5 3-10 3S5 8.7 5 7s4.5-3 10-3zm13 18.1V22c0-2.8-2.2-5-5-5s-5 2.2-5 5v.1c-1.7.4-3 2-3 3.9 0 2.2 1.8 4 4 4h8c2.2 0 4-1.8 4-4 0-1.9-1.3-3.4-3-3.9zM27 28h-8c-1.1 0-2-.9-2-2 0-.9.6-1.7 1.5-1.9l1.5-.4v-1.6-.2c0-1.6 1.4-2.9 3-2.9s2.9 1.3 3 2.9v1.8l1.5.4c.9.2 1.5 1 1.5 1.9 0 1.1-.9 2-2 2z"/></g></g></svg><svg id="prod-developer-tools" width="34" height="34" viewBox="-1 -1 34 34" x="34" y="430"><style>.eost0{fill-rule:evenodd;clip-rule:evenodd;fill:#757a80}</style><g id="eoXMLID_59_"><path id="eoXMLID_60_" class="eost0" d="M31 22V4H1v24h30v-2H3V11h26v11h2zM3 9V6h26v3H3zm7 6l-2 3 2 3h2l-2-3 2-3h-2zm12 6l2-3-2-3h-2l2 3-2 3h2zm-6 1l2-8h-2l-2 8h2z"/></g></svg><svg id="prod-domain" width="34" height="34" viewBox="-1 -1 34 34" y="430"><style>.epst0{fill-rule:evenodd;clip-rule:evenodd;fill:#757a80}</style><g id="epXMLID_92_"><path id="epXMLID_93_" class="epst0" d="M31 22V4H1v24h30v-2H3V11h26v11h2zM3 9V6h26v3H3zm24 12v-4c0-1.1-.9-2-2-2h-4c-1.1 0-2 .9-2 2v4h2v-4h1v4h2v-4h1v4h2zM7 21v-2H5v2h2zm11-2v-2c0-1.1-.9-2-2-2h-1c-1.1 0-2 .9-2 2v2c0 1.1.9 2 2 2h1c1.1 0 2-.9 2-2zm-3 0v-2h1v2h-1zm-5-2h2v-2h-2c-1.1 0-2 .9-2 2v2c0 1.1.9 2 2 2h2v-2h-2v-2z"/></g></svg><svg width="34" height="34" viewBox="-1 -1 34 34" id="prod-game-service" x="462" y="340"><path fill-rule="evenodd" clip-rule="evenodd" fill="#747A80" d="M0 3v2h30v18h2V3H0zm2 6H0v20h32v-2H2V9zm8 2v4H6v2h4v4h2v-4h4v-2h-4v-4h-2zm10 4v2h2v-2h-2zm4 0v2h2v-2h-2z"/></svg><svg id="prod-iot-hub" width="34" height="34" viewBox="-1 -1 34 34" x="462" y="306"><style>.erst0{fill:#757a80}</style><g id="erXMLID_36_"><path id="erXMLID_39_" class="erst0" d="M16 29C8.8 29 3 23.2 3 16S8.8 3 16 3c6.5 0 11.9 4.8 12.8 11h2C29.9 6.7 23.6 1 16 1 7.7 1 1 7.7 1 16s6.7 15 15 15c7.6 0 13.9-5.7 14.9-13h-2c-1 6.2-6.4 11-12.9 11z"/><path class="erst0" d="M13.2 20.2L8.9 16l4.3-4.2 5.6 5.6 1.4-1.4-7-7.1L6.1 16l7.1 7.1 2.8-2.9-1.4-1.4z"/><path class="erst0" d="M18.8 11.8l4.3 4.2-4.3 4.2-5.6-5.6-1.4 1.4 7 7.1 7.1-7.1-7.1-7.1-2.8 2.9 1.4 1.4z"/></g></svg><svg id="prod-middleware" width="34" height="34" viewBox="266 51 34 34" x="462" y="272"><style>.st0{opacity:.2;fill:#fff}.st1{enable-background:new}.st2{fill:#0085f6}.st3{fill:url(#SVGID_1_)}.st4{fill:url(#SVGID_2_)}.st5{fill:url(#SVGID_3_)}.st6{fill:#00a4ff}.esst7{fill:#757a80}.st8{fill-rule:evenodd;clip-rule:evenodd;fill:#00a4ff}.st9{fill:#2274e5}.st10{fill:url(#SVGID_4_)}</style><path class="esst7" d="M269 58v15h2V59l3-3h23v-2h-24l-4 4z"/><path class="esst7" d="M297 59h-2v18l-3 3h-18l-3-3v-4h-2v5l4 4h20l4-4z"/><path class="esst7" d="M290 67v-6h-14v6h4l-1 1v2h9v4h2v-6h-4l1-1v-2h-9v-2h10v4h2zm-8 0h3l-1 1h-3l1-1z"/><path class="esst7" d="M276 68v6h8.5l1.5 2h2l-3-4h-7v-4z"/></svg><svg id="prod-mobile" width="34" height="34" viewBox="-1 -1 34 34" x="462" y="238"><style>.etst0{fill-rule:evenodd;clip-rule:evenodd;fill:#757a80}</style><g id="etXMLID_51_"><path id="etXMLID_52_" class="etst0" d="M14 25h4v-2h-4v2zm13 0V1H5v30h22v-2H7V3h18v22h2zM15 14v2h2v-2h-2zm4.7-2.3c-.9-1-2.2-1.7-3.7-1.7s-2.8.7-3.7 1.7l1.5 1.3c.5-.6 1.3-1 2.2-1s1.7.4 2.2 1l1.5-1.3zm1.5-1.4L22.7 9c-1.6-1.8-4-3-6.7-3s-5 1.2-6.7 3l1.5 1.3C12.1 8.9 13.9 8 16 8s3.9.9 5.2 2.3z"/></g></svg><svg width="34" height="34" viewBox="-1 -1 34 34" id="prod-mobile-base" x="462" y="102"><defs><style>.eucls-1{fill:#fff}.eucls-2{fill:#757a80;fill-rule:evenodd}</style></defs><title>Icons</title><path class="eucls-1" d="M-374-20h894v603h-894z" id="eu图层_2" data-name="图层 2"/><path class="eucls-2" d="M27 25V1H5v30h22v-2H7V3h18v22zm-13 0h4v-2h-4zm1-11v2h2v-2zm6.18-3.67L22.68 9A9 9 0 0 0 9.32 9l1.5 1.35a6.92 6.92 0 0 1 10.37 0zm-1.48 1.34a4.95 4.95 0 0 0-7.41 0L13.78 13a3 3 0 0 1 4.44 0z" id="eu图层_1" data-name="图层 1"/></svg><svg id="prod-monitor" width="34" height="34" viewBox="-1 -1 34 34" x="462" y="68"><style>.evst0{fill:#757a80}</style><g id="evXMLID_44_"><path id="evXMLID_45_" class="evst0" d="M16 31zm1.8-15.8l2.5-3.5c.3-.4.2-1.1-.2-1.4-.4-.3-1.1-.2-1.4.2L16.2 14H16c-1.1 0-2 .9-2 2s.9 2 2 2 2-.9 2-2c0-.3-.1-.6-.2-.8zm7.2.8h2c0-6.1-4.9-11-11-11S5 9.9 5 16h2c0-5 4-9 9-9s9 4 9 9zM16 1C7.7 1 1 7.7 1 16c0 7.6 5.7 13.9 13 14.9v-2C7.8 27.9 3 22.5 3 16 3 8.8 8.8 3 16 3s13 5.8 13 13c0 6.5-4.8 11.9-11 12.8v2c7.3-1 13-7.2 13-14.9C31 7.7 24.3 1 16 1z"/></g></svg><svg id="prod-network" width="34" height="34" viewBox="-1 -1 34 34" x="462" y="34"><style>.ewst0{fill-rule:evenodd;clip-rule:evenodd;fill:#747a81}</style><g id="ewXMLID_63_"><path id="ewXMLID_64_" class="ewst0" d="M20 14.1v3.8c.7 0 1.4-.1 2-.2V16v-1.7c-.7-.1-1.3-.1-2-.2zM16 1C7.7 1 1 7.7 1 16s6.7 15 15 15 15-6.7 15-15S24.3 1 16 1zm12.6 11.7c-1.7-1-4.1-1.8-7-2.3-.5-2.9-1.3-5.3-2.3-7 4.5 1.2 8.1 4.8 9.3 9.3zM3.4 19.3c1.3.8 3 1.4 4.9 1.9-.1-.6-.2-1.3-.2-2C5 18.5 3 17.3 3 16c0-1.3 2-2.5 5.1-3.2.1-.7.1-1.3.2-2-2 .5-3.7 1.1-4.9 1.9 1.2-4.6 4.8-8.1 9.3-9.3C11.1 6.1 10 10.7 10 16s1.1 9.9 2.7 12.6c-4.5-1.2-8.1-4.8-9.3-9.3zm15.9 9.3c1-1.7 1.8-4.1 2.3-7 2.9-.5 5.3-1.3 7-2.3-1.2 4.5-4.8 8.1-9.3 9.3zm9.6-12.1c0 .1-.1.2-.1.3v.1l-.3.3-.1.1c-.1.1-.2.1-.3.2-.1 0-.1.1-.2.1-.1.1-.2.2-.4.2-.1.1-.2.1-.3.2-.1.1-.2.1-.3.2-.1.1-.2.1-.3.2-.1 0-.2.1-.3.1-.5.2-1 .4-1.5.5h-.2c-.6.2-1.3.3-2 .5-.3 0-.5.1-.8.1-.6.1-1.3.2-2 .3-.5.1-1.1.1-1.7.1h-4c.1.7.2 1.4.3 2h1.5c1.2 0 2.4-.1 3.6-.2-.7 4.3-2 7.2-3.6 7.2-2.2 0-4-5.8-4-13s1.8-13 4-13c1.6 0 2.9 2.9 3.6 7.2-1.1-.1-2.3-.2-3.5-.2h-1.5c-.1.6-.2 1.3-.3 2h4c.6 0 1.1.1 1.7.1.7.1 1.4.2 2 .3.3 0 .5.1.8.1.7.1 1.4.3 2 .5h.2c.6.2 1.1.3 1.5.5.1 0 .2.1.3.1.1 0 .2.1.3.2.1.1.2.1.3.2.1.1.2.1.3.2.1.1.3.2.4.2.1 0 .1.1.2.1.1.1.2.1.3.2l.1.1.3.3v.1c.1.1.1.2.1.3v.1c0 .1.1.2.1.4s0 .2-.1.4c-.1 0-.1 0-.1.1z"/></g></svg><svg id="prod-other" width="34" height="34" viewBox="-1 -1 34 34" x="462"><style>.exst0{fill-rule:evenodd;clip-rule:evenodd;fill:#757a80}</style><g id="exXMLID_51_"><path id="exXMLID_52_" class="exst0" d="M16 14c-1.1 0-2 .9-2 2s.9 2 2 2 2-.9 2-2-.9-2-2-2zm0-13C7.7 1 1 7.7 1 16c0 7.6 5.7 13.9 13 14.9v-2C7.8 27.9 3 22.5 3 16 3 8.8 8.8 3 16 3s13 5.8 13 13c0 6.5-4.8 11.9-11 12.8v2c7.3-1 13-7.2 13-14.9C31 7.7 24.3 1 16 1zM8 16c0 1.1.9 2 2 2s2-.9 2-2-.9-2-2-2-2 .9-2 2zm8 15zm8-15c0-1.1-.9-2-2-2s-2 .9-2 2 .9 2 2 2 2-.9 2-2z"/></g></svg><svg width="34" height="34" viewBox="-1 -1 34 34" id="prod-pic" x="408" y="396"><defs><style>.eycls-1{fill:#fff}.eycls-2{fill:#757a80;fill-rule:evenodd}</style></defs><title>Icons</title><path class="eycls-1" d="M-530-20h894v603h-894z" id="ey图层_2" data-name="图层 2"/><g id="ey图层_1" data-name="图层 1"><path class="eycls-2" d="M18.5 18.63L14 13 6 23h2.56L14 16.2l4.5 5.62 2-2.5L23.44 23H26l-5.5-6.87zM21 10v3h3v-3zm8 15a2 2 0 0 0-1.72 1H4V11H2v17h25.28A2 2 0 1 0 29 25zM4.72 6H28v15h2V4H4.72a2 2 0 1 0 0 2z" id="ey_编组_" data-name="&lt;编组>"/></g></svg><svg id="prod-quanta" width="34" height="34" viewBox="266 944 34 34" x="204" y="396"><style>.st0,.st1{opacity:.2;fill:#00a4ff}.st1{fill:#fff}.st2{enable-background:new}.st3{fill:#0085f6}.st4{fill:url(#SVGID_1_)}.st5{fill:url(#SVGID_2_)}.st6{fill:#00a4ff}.st7{fill:#757a80}.st8{fill-rule:evenodd;clip-rule:evenodd;fill:#00a4ff}.st9{fill:#2274e5}.st10{fill:url(#SVGID_3_)}.st11{fill:#00a4ff}.st12,.st13{fill-rule:evenodd;clip-rule:evenodd;fill:url(#SVGID_4_)}.st13{fill:url(#SVGID_5_)}.st14{fill:url(#SVGID_6_)}.st15{fill:url(#SVGID_7_)}.st16{fill:url(#SVGID_8_)}.st17{fill:url(#SVGID_9_)}.st18{fill:url(#SVGID_10_)}.st19{fill:url(#SVGID_11_)}.st20{fill:url(#SVGID_12_)}.st21{fill:url(#SVGID_13_)}.st22{fill:url(#SVGID_14_)}.st23{fill:url(#SVGID_15_)}.st24{fill:url(#SVGID_16_)}.st25{fill:url(#SVGID_17_)}.st26{fill:url(#SVGID_18_)}.st27{fill:url(#SVGID_19_)}.st28{fill:url(#SVGID_20_)}.st29{fill:url(#SVGID_21_)}.st30{fill:url(#SVGID_22_)}.st31{fill:url(#SVGID_23_)}.st32{fill:url(#SVGID_24_)}.st33{fill:url(#SVGID_25_)}.st34{fill:url(#SVGID_26_)}.st35{fill:url(#SVGID_27_)}.st36{fill:url(#SVGID_28_)}.st37{fill:url(#SVGID_29_)}.st38{fill:url(#SVGID_30_)}.st39{fill:url(#SVGID_31_)}.st40{fill:url(#SVGID_32_)}.st41{fill:url(#SVGID_33_)}.st42,.st43,.st44{fill-rule:evenodd;clip-rule:evenodd;fill:url(#SVGID_34_)}.st43,.st44{fill:url(#SVGID_35_)}.st44{fill:url(#SVGID_36_)}.st45{fill:url(#SVGID_37_)}.st46{fill:url(#SVGID_38_)}.st47{fill:url(#SVGID_39_)}.st48{fill:url(#SVGID_40_)}.st49,.st50,.st51{fill-rule:evenodd;clip-rule:evenodd;fill:url(#SVGID_41_)}.st50,.st51{fill:url(#SVGID_42_)}.st51{fill:url(#SVGID_43_)}.st52{fill:url(#SVGID_44_)}.st53{fill:url(#SVGID_45_)}.st54{fill:url(#SVGID_46_)}.st55{fill:url(#SVGID_47_)}.st56{fill-rule:evenodd;clip-rule:evenodd;fill:url(#SVGID_48_)}.st57{fill:#020202}.st58,.st59{fill-rule:evenodd;clip-rule:evenodd;fill:url(#SVGID_49_)}.st59{fill:url(#SVGID_50_)}.st60{fill:url(#SVGID_51_)}.st61{fill:url(#SVGID_52_)}.st62{fill:url(#SVGID_53_)}.st63{fill:url(#SVGID_54_)}.st64{fill-rule:evenodd;clip-rule:evenodd;fill:url(#SVGID_55_)}.st65{fill:#0080ff}.st66{fill-rule:evenodd;clip-rule:evenodd;fill:url(#SVGID_56_)}.st67{fill:none}.ezst68{fill-rule:evenodd;clip-rule:evenodd}.ezst68,.ezst69,.st70,.st71{fill:#757a80}.st70,.st71{fill-rule:evenodd;clip-rule:evenodd}.st71{fill:#00a4ff}</style><circle class="ezst68" cx="275.5" cy="948.5" r="2.5"/><circle class="ezst68" cx="290.5" cy="973.5" r="2.5"/><path class="ezst69" d="M280 949h9.8l6.9 12-6.7 12c.6.2 1.5-.5 2 0l7-12-8-14h-11v2zM286 973h-9.8l-6.9-12 6.7-12c-.6-.2-1.5.5-2 0l-7 12 8 14h11v-2z"/><path class="ezst69" d="M279.1 955.7c1.3 0 3.6.8 6 3.2 1.4 1.4 2.5 3.1 3 4.7.3 1.1.3 2-.1 2.4-.3.3-.7.3-1.1.3-1.3 0-3.6-.8-6-3.2-1.4-1.4-2.5-3.1-3-4.7-.3-1.1-.3-2 .1-2.4.3-.2.8-.3 1.1-.3m0-2c-1 0-1.9.3-2.5.9-2 2-.7 6.4 2.8 9.9 2.4 2.4 5.2 3.7 7.4 3.7 1 0 1.9-.3 2.5-.9 2-2 .7-6.4-2.8-9.9-2.4-2.3-5.2-3.7-7.4-3.7z"/><path class="ezst69" d="M286.9 955.7c.3 0 .8.1 1.1.3.4.4.4 1.3.1 2.4-.4 1.5-1.5 3.2-3 4.7-2.3 2.3-4.7 3.2-6 3.2-.3 0-.8-.1-1.1-.3-.4-.4-.4-1.3-.1-2.4.4-1.5 1.5-3.2 3-4.7 2.3-2.4 4.7-3.2 6-3.2m0-2c-2.2 0-5 1.4-7.4 3.7-3.5 3.5-4.8 7.9-2.8 9.9.6.6 1.5.9 2.5.9 2.2 0 5-1.4 7.4-3.7 3.5-3.5 4.8-7.9 2.8-9.9-.7-.6-1.5-.9-2.5-.9z"/><circle class="ezst69" cx="283" cy="961" r="2"/></svg><svg id="prod-safe" width="34" height="34" viewBox="-1 -1 34 34" x="170" y="396"><style>.fast0{fill:#757a80}</style><g id="faXMLID_11_"><g id="faXMLID_65_"><path id="faXMLID_66_" class="fast0" d="M13 21h8v-8h-1v-1c0-2.2-1.8-4-4-4s-4 1.8-4 4v1h-1v8h2zm0-8h1v-1c0-1.1.9-2 2-2s2 .9 2 2v1h1-6zm0 2h6v4h-6v-4zM3 2v15.2S3.1 28 16 31c12.9-3 13-13.8 13-13.8V2H3zm24 15.2s0 2.3-1.4 4.8c-1.8 3.4-5.1 5.7-9.6 6.9C5.3 26.2 5 17.6 5 17.2V4h22v13.2z"/></g></g></svg><svg width="34" height="34" viewBox="-1 -1 34 34" id="prod-storage" x="136" y="396"><defs><style>.fbcls-1{fill:#fff}.fbcls-2{fill:#757a80}</style></defs><title>Icons</title><path class="fbcls-1" d="M-166-20h894v603h-894z" id="fb图层_2" data-name="图层 2"/><g id="fb图层_1" data-name="图层 1"><path class="fbcls-2" d="M9 12v8l7 4 7-4v-8l-7-4zm6 9.13l-4-2.29v-3.7l4 2.29zm6-2.29l-4 2.29v-3.7l4-2.29zm-5-3.14L11.28 13 16 10.3l4.72 2.7zm12 7.14L16 29.7 4 22.84V9.16L16 2.3l12 6.86L30 8 16 0 2 8v16l14 8 14-8V12l-2 1.14z" id="fb_编组_" data-name="&lt;编组>"/></g></svg><svg id="prod-video" width="34" height="34" viewBox="-1 -1 34 34" x="34" y="396"><style>.fcst0{fill:#757a80}</style><g id="fcXMLID_2_"><g id="fcXMLID_61_"><path id="fcXMLID_62_" class="fcst0" d="M26 13.2v-.1c0-5.5-4.5-10-10-10C10.5 3 6 7.5 6 13v.1c-3.4.7-6 3.7-6 7.4 0 4 3.1 7.2 7 7.5h18c3.9-.3 7-3.5 7-7.5 0-3.6-2.6-6.7-6-7.3zM24.9 26H7.1C4.3 25.8 2 23.4 2 20.5c0-2.6 1.9-4.9 4.4-5.4l1.6-.3v-1.7-.1c0-4.4 3.6-8 8-8s8 3.6 8 8v1.9l1.6.3c2.6.5 4.4 2.8 4.4 5.4 0 2.8-2.3 5.2-5.1 5.4zM13.8 13c-.1-.1-.2-.1-.3-.1-.3 0-.5.2-.5.5v8.2c0 .3.2.5.5.5.1 0 .2 0 .3-.1l6.5-4.1c.3-.2.3-.7 0-.9l-6.5-4zm1.2 5.9v-2.8l2.2 1.4-2.2 1.4z"/></g></g></svg><svg width="34" height="34" viewBox="-1 -1 34 34" id="prod-voice" y="396"><defs><style>.fdcls-1{fill:#fff}.fdcls-2{fill:#757a80;fill-rule:evenodd}</style></defs><title>Icons</title><path class="fdcls-1" d="M-582-20h894v603h-894z" id="fd图层_2" data-name="图层 2"/><g id="fd图层_1" data-name="图层 1"><path class="fdcls-2" d="M23 18v-4h-2v4zM4.72 6H28v15h2V4H4.72a2 2 0 1 0 0 2zM20 21v-9h-2v3h-1v-5h-2v5h-1v-3h-2v3h-1v-1H9v4h2v-1h1v4h2v-4h1v5h2v-5h1v4zm9 4a2 2 0 0 0-1.72 1H4V11H2v17h25.28A2 2 0 1 0 29 25z" id="fd_编组_" data-name="&lt;编组>"/></g></svg><svg id="question" width="18" height="18" viewBox="-1 -1 18 18" x="504" y="464"><style>.fest0{fill-rule:evenodd;clip-rule:evenodd;fill:#999}</style><g id="feXMLID_57_"><path id="feXMLID_58_" class="fest0" d="M7 11h1V9H7v2zm1-7C6.3 4 5 5.3 5 7h1c0-1.1.9-2 2-2s2 .9 2 2-.9 2-2 2v1c1.7 0 3-1.3 3-3S9.7 4 8 4zm0-4C3.6 0 0 3.6 0 8s3.6 8 8 8 8-3.6 8-8-3.6-8-8-8zm0 15c-3.9 0-7-3.1-7-7s3.1-7 7-7 7 3.1 7 7-3.1 7-7 7zm-1-2h1v-1H7v1z"/></g></svg><svg id="quick" width="18" height="18" viewBox="-1 -1 18 18" y="482"><style>.ffst0{fill-rule:evenodd;clip-rule:evenodd;fill:#999}</style><g id="ffXMLID_54_"><path id="ffXMLID_55_" class="ffst0" d="M7.9 13.8h-.2L0 9.9v.9L7.8 15l7.2-4V9.8l-7.1 4zm7-8.7V3.8L7.8 0 .1 3.8v1.1l7.7 4.2 7.1-4zM1.1 4.4l6.6-3.3L14 4.4 7.7 7.9 1.1 4.4zm6.5 6.4L.1 6.7V7.9L7.8 12 15 8V6.8l-7.1 4h-.3zm7.3-4z"/></g></svg><svg version="1" width="34" height="34" viewBox="-8 8 34 34" id="quyu" x="496" y="238"><path fill="#757A80" d="M17.1 28c0 1.1-.9 2-2 2-.2 0-.4 0-.6-.1l-3.4 2v.1c0 1.1-.9 2-2 2s-2-.9-2-2v-.1l-3.4-2c-.2.1-.4.1-.6.1-1.1 0-2-.9-2-2 0-.7.4-1.4 1-1.7v-3.6c-.6-.3-1-1-1-1.7 0-1.1.9-2 2-2 .6 0 1.1.2 1.4.6l2.6-1.5V18c0-1.1.9-2 2-2s2 .9 2 2v.1l2.6 1.5c.4-.4.9-.6 1.4-.6 1.1 0 2 .9 2 2 0 .7-.4 1.4-1 1.7v3.5c.6.4 1 1.1 1 1.8zm-13-4.8v3.1c.2.1.4.3.5.5l2.6-1.7-3.1-1.9zm4-3.5s-.1 0-.1-.1l-3 1.8 3.1 1.8v-3.5zm0 7.2l-2.8 1.8L8 30.3s.1 0 .1-.1v-3.3zm6-.6V23L11 25l2.7 1.6c.1-.1.2-.2.4-.3zm-4 4s.1 0 .1.1l2.9-1.8-3-1.8v3.5zm.1-10.6s-.1 0-.1.1v3.5l2.9-1.9-2.8-1.7zM21.9 23c-1-6.2-6.3-11-12.8-11-7.2 0-13 5.8-13 13s5.8 13 13 13c6.5 0 11.9-4.8 12.8-11h2c-1 7.3-7.2 13-14.9 13C.7 40-6 33.3-6 25S.7 10 9 10c7.6 0 13.9 5.7 14.9 13h-2z"/></svg><svg id="recharge" viewBox="-1 -1 66 66" width="66" height="66" x="330" y="132"><style>.fhst0{fill-rule:evenodd;clip-rule:evenodd;fill:#757a80}</style><g id="fhXMLID_2_"><g id="fhXMLID_60_"><path id="fhXMLID_61_" class="fhst0" d="M32 56C18.7 56 8 45.3 8 32S18.7 8 32 8c10.1 0 18.7 6.2 22.2 15h2.1C52.7 13.1 43.2 6 32 6 17.6 6 6 17.6 6 32s11.6 26 26 26c11.2 0 20.7-7.1 24.4-17h-2.1C50.7 49.8 42.1 56 32 56zm25-25v-4h-2v4h-4v2h4v4h2v-4h4v-2h-4zm-17 4c0-2.2-1.8-4-4-4h-6c-1.1 0-2-.9-2-2s.9-2 2-2h9v-2h-5v-3h-2v3h-2c-2.2 0-4 1.8-4 4s1.8 4 4 4h6c1.1 0 2 .9 2 2s-.9 2-2 2h-9v2h5v3h2v-3h2c2.2 0 4-1.8 4-4z"/></g></g></svg><svg id="recharge-hover" viewBox="-1 -1 66 66" width="66" height="66" x="330" y="66"><style>.fist0{fill:url(#fiXMLID_3_)}</style><g id="fiXMLID_2_"><g id="fiXMLID_60_"><linearGradient id="fiXMLID_3_" gradientUnits="userSpaceOnUse" x1="44.959" y1="54.532" x2="18.952" y2="9.486"><stop offset="0" stop-color="#0063ff"/><stop offset="1" stop-color="#00c8de"/></linearGradient><path id="fiXMLID_61_" class="fist0" d="M32 56C18.7 56 8 45.3 8 32S18.7 8 32 8c10.1 0 18.7 6.2 22.2 15h2.1C52.7 13.1 43.2 6 32 6 17.6 6 6 17.6 6 32s11.6 26 26 26c11.2 0 20.7-7.1 24.4-17h-2.1C50.7 49.8 42.1 56 32 56zm25-25v-4h-2v4h-4v2h4v4h2v-4h4v-2h-4zm-17 4c0-2.2-1.8-4-4-4h-6c-1.1 0-2-.9-2-2s.9-2 2-2h9v-2h-5v-3h-2v3h-2c-2.2 0-4 1.8-4 4s1.8 4 4 4h6c1.1 0 2 .9 2 2s-.9 2-2 2h-9v2h5v3h2v-3h2c2.2 0 4-1.8 4-4z"/></g></g></svg><svg id="renewal" viewBox="-1 -1 66 66" width="66" height="66" x="330"><style>.fjst0{fill-rule:evenodd;clip-rule:evenodd;fill:#757a80}</style><g id="fjXMLID_76_"><path id="fjXMLID_77_" class="fjst0" d="M11 16.7c-6.7 9.1-6.6 21.6 0 30.7l1.4-1.4c-5.9-8.3-5.9-19.5 0-27.8L11 16.7zm34.9-4.3l1.4-1.4c-9.1-6.7-21.6-6.7-30.7 0l1.5 1.5c8.3-6 19.5-6 27.8-.1zM18.1 51.6L16.7 53c9.1 6.7 21.6 6.7 30.7 0l-1.5-1.5c-8.3 6-19.5 6-27.8.1zM53 16.7l-1.4 1.4c5.9 8.3 5.9 19.5 0 27.8l1.5 1.5c6.6-9.2 6.5-21.6-.1-30.7zM21 26v12l11 6 11-6V26l-11-6-11 6zm10 15.5l-8-4.4v-8l8 4.4v8zm10-4.4l-8 4.4v-8l8-4.4v8zM32 32l-9.2-5 9.2-5 9.2 5-9.2 5z"/></g></svg><svg id="renewal-hover" viewBox="-1 -1 66 66" width="66" height="66" x="132" y="264"><style>.fkst0{fill:url(#fkXMLID_2_)}</style><g id="fkXMLID_76_"><linearGradient id="fkXMLID_2_" gradientUnits="userSpaceOnUse" x1="45.001" y1="54.568" x2="18.956" y2="9.456"><stop offset="0" stop-color="#0063ff"/><stop offset="1" stop-color="#00c8de"/></linearGradient><path id="fkXMLID_77_" class="fkst0" d="M11 16.7c-6.7 9.1-6.6 21.6 0 30.7l1.4-1.4c-5.9-8.3-5.9-19.5 0-27.8L11 16.7zm34.9-4.3l1.4-1.4c-9.1-6.7-21.6-6.7-30.7 0l1.5 1.5c8.3-6 19.5-6 27.8-.1zM18.1 51.6L16.7 53c9.1 6.7 21.6 6.7 30.7 0l-1.5-1.5c-8.3 6-19.5 6-27.8.1zM53 16.7l-1.4 1.4c5.9 8.3 5.9 19.5 0 27.8l1.5 1.5c6.6-9.2 6.5-21.6-.1-30.7zM21 26v12l11 6 11-6V26l-11-6-11 6zm10 15.5l-8-4.4v-8l8 4.4v8zm10-4.4l-8 4.4v-8l8-4.4v8zM32 32l-9.2-5 9.2-5 9.2 5-9.2 5z"/></g></svg><svg id="retrieve-acc" width="66" height="66" viewBox="11 -25 66 66" y="264"><style>.flst0{fill:#75797f}</style><title>找回账号64-05</title><path class="flst0" d="M44-16c3.6 0 7.1.8 10.3 2.3l-2 2 7.1 1.4-1.4-7-2.1 2.1C52.2-17 48.1-18 44-18 29.7-18 18-6.4 18 7.9V8c0 4.1 1 8.2 2.9 11.8l1.5-1.5C20.8 15.1 20 11.6 20 8c0-13.2 10.8-24 24-24zM67.1-3.8l-1.5 1.5C67.2.9 68 4.4 68 8c0 13.2-10.8 24-24 24-3.6 0-7.1-.8-10.3-2.3l2-2-7.1-1.4 1.4 7.1 2.2-2.2C35.9 33.1 39.9 34 44 34c14.3 0 26-11.6 26-25.9V8c0-4.1-1-8.2-2.9-11.8z"/><path class="flst0" d="M32 14.8V20h24v-5.2c0-2.7-2.1-4.8-4.8-4.8H36.8c-2.7 0-4.8 2.2-4.8 4.8zM51.2 12c1.5 0 2.8 1.3 2.8 2.8V18H34v-3.2c0-1.5 1.3-2.8 2.8-2.8h14.4zM50 2c0-3.3-2.7-6-6-6s-6 2.7-6 6 2.7 6 6 6 6-2.7 6-6zM40 2c0-2.2 1.8-4 4-4s4 1.8 4 4-1.8 4-4 4-4-1.8-4-4z"/></svg><svg id="retrieve-acc-hover" width="66" height="66" viewBox="11 -25 66 66" x="264" y="198"><style>.fmst0{fill:url(#fmSVGID_1_)}.fmst1{fill:url(#fmSVGID_2_)}.fmst2{fill:url(#fmSVGID_3_)}.fmst3{fill:url(#fmSVGID_4_)}.fmst4{fill:url(#fmSVGID_5_)}.fmst5{fill:url(#fmSVGID_6_)}.fmst6{fill:url(#fmSVGID_7_)}.fmst7{fill:url(#fmSVGID_8_)}</style><title>找回账号64-05</title><linearGradient id="fmSVGID_1_" gradientUnits="userSpaceOnUse" x1="30.509" y1="30.236" x2="42.845" y2="8.87" gradientTransform="matrix(1 0 0 -1 0 16)"><stop offset="0" stop-color="#00c7de"/><stop offset="1" stop-color="#0283f5"/></linearGradient><path class="fmst0" d="M44-16c3.6 0 7.1.8 10.3 2.3l-2 2 7.1 1.4-1.4-7-2.1 2.1C52.2-17 48.1-18 44-18 29.7-18 18-6.4 18 7.9V8c0 4.1 1 8.2 2.9 11.8l1.5-1.5C20.8 15.1 20 11.6 20 8c0-13.2 10.8-24 24-24z"/><linearGradient id="fmSVGID_2_" gradientUnits="userSpaceOnUse" x1="45.133" y1="7.118" x2="57.469" y2="-14.248" gradientTransform="matrix(1 0 0 -1 0 16)"><stop offset="0" stop-color="#00c7de"/><stop offset="1" stop-color="#0283f5"/></linearGradient><path class="fmst1" d="M67.1-3.8l-1.5 1.5C67.2.9 68 4.4 68 8c0 13.2-10.8 24-24 24-3.6 0-7.1-.8-10.3-2.3l2-2-7.1-1.4 1.4 7.1 2.2-2.2C35.9 33.1 39.9 34 44 34c14.3 0 26-11.6 26-25.9V8c0-4.1-1-8.2-2.9-11.8z"/><linearGradient id="fmSVGID_3_" gradientUnits="userSpaceOnUse" x1="38.961" y1="7.992" x2="48.413" y2="-8.38" gradientTransform="matrix(1 0 0 -1 0 16)"><stop offset="0" stop-color="#00c7de"/><stop offset="1" stop-color="#0283f5"/></linearGradient><path class="fmst2" d="M32 14.8V20h24v-5.2c0-2.7-2.1-4.8-4.8-4.8H36.8c-2.7 0-4.8 2.2-4.8 4.8zM51.2 12c1.5 0 2.8 1.3 2.8 2.8V18H34v-3.2c0-1.5 1.3-2.8 2.8-2.8h14.4z"/><linearGradient id="fmSVGID_4_" gradientUnits="userSpaceOnUse" x1="40.995" y1="19.205" x2="46.99" y2="8.82" gradientTransform="matrix(1 0 0 -1 0 16)"><stop offset="0" stop-color="#00c7de"/><stop offset="1" stop-color="#0283f5"/></linearGradient><path class="fmst3" d="M50 2c0-3.3-2.7-6-6-6s-6 2.7-6 6 2.7 6 6 6 6-2.7 6-6zM40 2c0-2.2 1.8-4 4-4s4 1.8 4 4-1.8 4-4 4-4-1.8-4-4z"/><g><linearGradient id="fmSVGID_5_" gradientUnits="userSpaceOnUse" x1="30.509" y1="30.236" x2="56.531" y2="-14.834" gradientTransform="matrix(1 0 0 -1 0 16)"><stop offset="0" stop-color="#00c7de"/><stop offset="1" stop-color="#0283f5"/></linearGradient><path class="fmst4" d="M44-16c3.6 0 7.1.8 10.3 2.3l-2 2 7.1 1.4-1.4-7-2.1 2.1C52.2-17 48.1-18 44-18 29.7-18 18-6.4 18 7.9V8c0 4.1 1 8.2 2.9 11.8l1.5-1.5C20.8 15.1 20 11.6 20 8c0-13.2 10.8-24 24-24z"/><linearGradient id="fmSVGID_6_" gradientUnits="userSpaceOnUse" x1="31.459" y1="30.803" x2="57.48" y2="-14.267" gradientTransform="matrix(1 0 0 -1 0 16)"><stop offset="0" stop-color="#00c7de"/><stop offset="1" stop-color="#0283f5"/></linearGradient><path class="fmst5" d="M67.1-3.8l-1.5 1.5C67.2.9 68 4.4 68 8c0 13.2-10.8 24-24 24-3.6 0-7.1-.8-10.3-2.3l2-2-7.1-1.4 1.4 7.1 2.2-2.2C35.9 33.1 39.9 34 44 34c14.3 0 26-11.6 26-25.9V8c0-4.1-1-8.2-2.9-11.8z"/><linearGradient id="fmSVGID_7_" gradientUnits="userSpaceOnUse" x1="27.208" y1="28.349" x2="53.229" y2="-16.721" gradientTransform="matrix(1 0 0 -1 0 16)"><stop offset="0" stop-color="#00c7de"/><stop offset="1" stop-color="#0283f5"/></linearGradient><path class="fmst6" d="M32 14.8V20h24v-5.2c0-2.7-2.1-4.8-4.8-4.8H36.8c-2.7 0-4.8 2.2-4.8 4.8zM51.2 12c1.5 0 2.8 1.3 2.8 2.8V18H34v-3.2c0-1.5 1.3-2.8 2.8-2.8h14.4z"/><linearGradient id="fmSVGID_8_" gradientUnits="userSpaceOnUse" x1="33.589" y1="32.033" x2="59.61" y2="-13.037" gradientTransform="matrix(1 0 0 -1 0 16)"><stop offset="0" stop-color="#00c7de"/><stop offset="1" stop-color="#0283f5"/></linearGradient><path class="fmst7" d="M50 2c0-3.3-2.7-6-6-6s-6 2.7-6 6 2.7 6 6 6 6-2.7 6-6zM40 2c0-2.2 1.8-4 4-4s4 1.8 4 4-1.8 4-4 4-4-1.8-4-4z"/></g></svg><svg id="retrieve-password" viewBox="-1 -1 66 66" width="66" height="66" x="264"><style>.fnst0{fill-rule:evenodd;clip-rule:evenodd;fill:#757a80}</style><g id="fnXMLID_53_"><path id="fnXMLID_54_" class="fnst0" d="M32 8c3.7 0 7.2.8 10.3 2.3l-2 2 7.1 1.4-1.4-7-2.1 2.1A26.4 26.4 0 0 0 32 6C17.6 6 6 17.6 6 32c0 4.3 1 8.3 2.9 11.8l1.5-1.5C8.8 39.2 8 35.7 8 32 8 18.8 18.8 8 32 8zm1 36V32.9c2.8-.5 5-2.9 5-5.9 0-3.3-2.7-6-6-6s-6 2.7-6 6c0 3 2.2 5.4 5 5.9V35h-4l1 2h3v2h-3l1 2h2v3h2zm-5-17c0-2.2 1.8-4 4-4s4 1.8 4 4-1.8 4-4 4-4-1.8-4-4zm27.1-6.8l-1.5 1.5C55.2 24.8 56 28.3 56 32c0 13.2-10.8 24-24 24-3.7 0-7.2-.8-10.3-2.3l2-2-7.1-1.4 1.4 7.1 2.2-2.2C23.7 57 27.7 58 32 58c14.4 0 26-11.6 26-26 0-4.3-1-8.3-2.9-11.8z"/></g></svg><svg id="retrieve-password-hover" viewBox="-1 -1 66 66" width="66" height="66" x="66" y="198"><style>.fost0{fill:url(#foXMLID_2_)}</style><g id="foXMLID_53_"><linearGradient id="foXMLID_2_" gradientUnits="userSpaceOnUse" x1="45.011" y1="54.535" x2="18.989" y2="9.465"><stop offset="0" stop-color="#0063ff"/><stop offset="1" stop-color="#00c8de"/></linearGradient><path id="foXMLID_54_" class="fost0" d="M32 8c3.7 0 7.2.8 10.3 2.3l-2 2 7.1 1.4-1.4-7-2.1 2.1A26.4 26.4 0 0 0 32 6C17.6 6 6 17.6 6 32c0 4.3 1 8.3 2.9 11.8l1.5-1.5C8.8 39.2 8 35.7 8 32 8 18.8 18.8 8 32 8zm1 36V32.9c2.8-.5 5-2.9 5-5.9 0-3.3-2.7-6-6-6s-6 2.7-6 6c0 3 2.2 5.4 5 5.9V35h-4l1 2h3v2h-3l1 2h2v3h2zm-5-17c0-2.2 1.8-4 4-4s4 1.8 4 4-1.8 4-4 4-4-1.8-4-4zm27.1-6.8l-1.5 1.5C55.2 24.8 56 28.3 56 32c0 13.2-10.8 24-24 24-3.7 0-7.2-.8-10.3-2.3l2-2-7.1-1.4 1.4 7.1 2.2-2.2C23.7 57 27.7 58 32 58c14.4 0 26-11.6 26-26 0-4.3-1-8.3-2.9-11.8z"/></g></svg><svg width="34" height="34" viewBox="-1 -1 34 34" id="right" x="374" y="396"><title>Page 1 Copy 3</title><defs><path id="fpa" d="M0 16v16h32V0H0z"/></defs><g fill="none" fill-rule="evenodd"><mask id="fpb" fill="#fff"><use xlink:href="#fpa"/></mask><path d="M16 30C8.268 30 2 23.732 2 16S8.268 2 16 2s14 6.268 14 14-6.268 14-14 14m0-30C7.163 0 0 7.163 0 16c0 8.836 7.163 16 16 16s16-7.164 16-16c0-8.837-7.163-16-16-16" fill="#0ABF5B" mask="url(#fpb)"/><path fill="#0ABF5B" d="M13.879 19.172l-4.243-4.243-1.414 1.414 4.243 4.243L13.879 22l1.414-1.415 8.485-8.485-1.414-1.414z"/></g></svg><svg width="18" height="18" viewBox="-298 388 18 18" id="search-1616-1-inline-#666" x="198" y="482"><path fill="#666" d="M-282.3 403.3l-2.5-2.5c1-1.1 1.7-2.7 1.7-4.3 0-3.6-2.9-6.5-6.5-6.5-3.5 0-6.4 2.9-6.4 6.5s2.9 6.4 6.4 6.4c1.2 0 2.3-.3 3.2-.9l2.7 2.7c.4.4 1 .4 1.4 0 .4-.4.4-1 0-1.4zm-7.3-2.4c-2.4 0-4.4-2-4.4-4.4s2-4.5 4.4-4.5c2.5 0 4.5 2 4.5 4.5s-2 4.4-4.5 4.4z"/></svg><svg width="42" height="42" viewBox="-1 -1 42 42" id="select-icon" x="396" y="330"><title>画板</title><g fill="none" fill-rule="nonzero"><path fill="#02A3FF" d="M14 25l4.106 2H37v13H15z"/><path d="M16 24v14h20V25H17.832L16 24zm5.484-1H38v17H14V20.63L18.342 23h3.142z" fill="#334966"/><path fill="#334966" d="M25 28h2v6h-2zM25 35h2v2h-2z"/><path fill="#02A3FF" d="M7 10h8v2H7zM7 16h22v2H7z"/><path stroke="#334966" d="M24.5.5h1v9h-1z"/><path stroke="#334966" d="M32.5 8.5v1h-8v-1z"/><path d="M33 25h-2V8.724L24.974 2H5v34h11v2H3V0h22.867L33 7.959V25z" fill="#334966"/></g></svg><svg data-name="图层 1" width="66" height="66" viewBox="-1 -1 66 66" id="self-defense" x="198" y="132"><title>代客自助解绑</title><path d="M32 6a26 26 0 1 0 26 26A26 26 0 0 0 32 6zm0 50a24 24 0 1 1 24-24 24.027 24.027 0 0 1-24 24zm-1.975-20.553l5.9-3.775-1.078-1.684-5.9 3.774zm1.006.543a2.961 2.961 0 0 1-.489 1.659l-4.4 6.684a3 3 0 0 1-2.519 1.347 3 3 0 0 1-2.494-4.644l4.4-6.684a3 3 0 0 1 2.519-1.347c.069 0 .136.01.2.015l2.177-1.394a4.979 4.979 0 0 0-6.571 1.627l-4.4 6.684a5.015 5.015 0 0 0 1.43 6.925 5.012 5.012 0 0 0 6.925-1.43l4.4-6.684a4.974 4.974 0 0 0 .659-3.936zm18.141-12.121a5.016 5.016 0 0 0-4.534-2.858 4.957 4.957 0 0 0-2.125.478l-7.23 3.424a5 5 0 0 0-2.764 5.374l1.935-1.239a2.994 2.994 0 0 1 1.685-2.328l7.23-3.424a2.947 2.947 0 0 1 1.27-.286 3.023 3.023 0 0 1 2.725 1.714 3.015 3.015 0 0 1-1.427 4l-7.23 3.424a2.945 2.945 0 0 1-1.269.286 3 3 0 0 1-.7-.09l-2.013 1.289a5.05 5.05 0 0 0 2.717.8 4.955 4.955 0 0 0 2.125-.478l7.23-3.424a5.015 5.015 0 0 0 2.375-6.662zm-20.479 3.665l-7.51-2.758-.69 1.877L28 29.412zm3.62-1.415l-2.137-7.709-1.927.534 2.137 7.709z" fill="#757a80"/></svg><svg data-name="图层 1" width="66" height="66" viewBox="-1 -1 66 66" id="self-defense-hover" x="198" y="66"><defs><linearGradient id="fta" data-name="未命名的渐变 2" x1="13.615" y1="13.615" x2="50.385" y2="50.385" gradientUnits="userSpaceOnUse"><stop offset="0" stop-color="#5ac5d9"/><stop offset=".8" stop-color="#2d70f6"/></linearGradient></defs><title>代客自助解绑</title><path d="M32 6a26 26 0 1 0 26 26A26 26 0 0 0 32 6zm0 50a24 24 0 1 1 24-24 24.027 24.027 0 0 1-24 24zm-1.975-20.553l5.9-3.775-1.078-1.684-5.9 3.774zm1.006.543a2.961 2.961 0 0 1-.489 1.659l-4.4 6.684a3 3 0 0 1-2.519 1.347 3 3 0 0 1-2.494-4.644l4.4-6.684a3 3 0 0 1 2.519-1.347c.069 0 .136.01.2.015l2.177-1.394a4.979 4.979 0 0 0-6.571 1.627l-4.4 6.684a5.015 5.015 0 0 0 1.43 6.925 5.012 5.012 0 0 0 6.925-1.43l4.4-6.684a4.974 4.974 0 0 0 .659-3.936zm18.141-12.121a5.016 5.016 0 0 0-4.534-2.858 4.957 4.957 0 0 0-2.125.478l-7.23 3.424a5 5 0 0 0-2.764 5.374l1.935-1.239a2.994 2.994 0 0 1 1.685-2.328l7.23-3.424a2.947 2.947 0 0 1 1.27-.286 3.023 3.023 0 0 1 2.725 1.714 3.015 3.015 0 0 1-1.427 4l-7.23 3.424a2.945 2.945 0 0 1-1.269.286 3 3 0 0 1-.7-.09l-2.013 1.289a5.05 5.05 0 0 0 2.717.8 4.955 4.955 0 0 0 2.125-.478l7.23-3.424a5.015 5.015 0 0 0 2.375-6.662zm-20.479 3.665l-7.51-2.758-.69 1.877L28 29.412zm3.62-1.415l-2.137-7.709-1.927.534 2.137 7.709z" fill="url(#fta)"/></svg><svg id="shopping-cart" width="18" height="18" viewBox="-1 -1 18 18" x="270" y="482"><style>.fust0{fill:#999}</style><g id="fuXMLID_2_"><g id="fuXMLID_57_"><path id="fuXMLID_58_" class="fust0" d="M11.5 12c-.8 0-1.5.7-1.5 1.5s.7 1.5 1.5 1.5 1.5-.7 1.5-1.5c0-.9-.7-1.5-1.5-1.5zm0 2c-.3 0-.5-.2-.5-.5s.2-.5.5-.5.5.2.5.5-.2.5-.5.5zm-6-2c-.8 0-1.5.6-1.5 1.5 0 .8.7 1.5 1.5 1.5S7 14.3 7 13.5c0-.9-.7-1.5-1.5-1.5zm0 2c-.3 0-.5-.2-.5-.5s.2-.5.5-.5.5.2.5.5-.2.5-.5.5zm.8-11l-.7 1 8.1.8-1.5 5.2H4.8L3 3.7C2.8 2.8 1.9 1.4 0 1v1c1.6.4 2 1.9 2 1.9l2 7h9l2-7L6.3 3z"/></g></g></svg><svg id="star" width="18" height="18" viewBox="-1 -1 18 18" x="288" y="482"><style>.fvst0{fill:#999}</style><path id="fvXMLID_3_" class="fvst0" d="M8 2.7l1.6 3.2.2.5.5.1 3.5.5-2.5 2.4-.4.4.1.5.6 3.5-3.2-1.6-.4-.4-.5.2-3.2 1.6.7-3.3.1-.5-.4-.4-2.5-2.5 3.5-.5.5-.1.2-.5L8 2.7M8 .5l-2.5 5-5.5.7 4 3.9-.9 5.4L8 13l4.9 2.6-.9-5.5 4-3.9-5.5-.8L8 .5z"/></svg><svg id="star-active" width="18" height="18" viewBox="-1 -1 18 18" x="306" y="482"><style>.fwst0{fill:#ff7f00}</style><path id="fwXMLID_3_" class="fwst0" d="M8 .5l2.5 5 5.5.7-4 3.9.9 5.4L8 13l-4.9 2.6.9-5.5-4-3.9 5.5-.8L8 .5z"/></svg><svg id="sublinks-arrow" width="14" height="8" viewBox="-1 -1 14 8" x="516" y="385"><style>.fxst0{fill:#333}</style><g id="fxXMLID_2_"><g id="fxXMLID_22_"><path id="fxXMLID_23_" class="fxst0" d="M10.6 0L6 4.6 1.4 0 .7.7 6 6 11.3.7z"/></g></g></svg><svg width="34" height="34" viewBox="-1 -1 34 34" id="success" x="238" y="396"><defs><path id="fya" d="M0 0h32v32H0z"/></defs><g fill="none" fill-rule="evenodd"><mask id="fyb" fill="#fff"><use xlink:href="#fya"/></mask><path fill="#0ABF5B" d="M16 30C8.268 30 2 23.732 2 16S8.268 2 16 2s14 6.268 14 14-6.268 14-14 14m0-30C7.163 0 0 7.163 0 16c0 8.836 7.163 16 16 16s16-7.164 16-16c0-8.837-7.163-16-16-16" mask="url(#fyb)"/><path fill="#0ABF5B" d="M13.707 18.793L9.414 14.5 8 15.914l5.707 5.707 10.207-10.207L22.5 10z"/></g></svg><svg id="tag-hot" width="29" height="15" viewBox="-1 -1 29 15" x="496" y="272"><style>.fzst0{fill:#ff7800}</style><path id="fzXMLID_1_" class="fzst0" d="M26 1v10.5c0 .3-.2.5-.5.5h-24c-.3 0-.5-.2-.5-.5v-10c0-.3.2-.5.5-.5H26m0-1H1C.4 0 0 .4 0 1v11c0 .6.4 1 1 1h25c.6 0 1-.4 1-1V1c0-.6-.4-1-1-1z"/><path id="fzXMLID_3_" class="fzst0" d="M5 3h1v7H5z"/><path id="fzXMLID_12_" class="fzst0" d="M5 6h5v1H5z"/><path id="fzXMLID_13_" class="fzst0" d="M9 3h1v7H9z"/><path id="fzXMLID_14_" class="fzst0" d="M11 3h1v7h-1z"/><path id="fzXMLID_15_" class="fzst0" d="M15 3h1v7h-1z"/><path id="fzXMLID_16_" class="fzst0" d="M11 9h5v1h-5z"/><path id="fzXMLID_17_" class="fzst0" d="M11 3h5v1h-5z"/><path id="fzXMLID_18_" class="fzst0" d="M17 3h5v1h-5z"/><path id="fzXMLID_19_" class="fzst0" d="M19 3h1v7h-1z"/></svg><svg id="toolbar" width="18" height="18" viewBox="-1 -1 18 18" x="378" y="482"><style>.gast0{fill:#999}</style><g id="gaXMLID_64_"><path id="gaXMLID_65_" class="gast0" d="M1 1h4V0H0v5h1V1zm0 10H0v5h5v-1H1v-4zm14 4h-4v1h5v-5h-1v4zM11 0v1h4v4h1V0h-5zm2.7 5.3h-1c0 .5-.2 1-.6 1.4-.8.8-2 .8-2.8 0-.8-.8-.8-2 0-2.8.4-.4.9-.6 1.4-.6v-1c-.8 0-1.5.3-2.1.9-1.1 1.1-1.2 2.7-.4 3.9L6 9.3c-.8-.5-1.8-.4-2.4.3-.8.8-.8 2 0 2.8.8.8 2 .8 2.8 0 .7-.7.8-1.7.3-2.4l2.2-2.2c1.2.8 2.8.7 3.9-.3.6-.6.9-1.4.9-2.2zm-8 6.4c-.4.4-1 .4-1.4 0-.4-.4-.4-1 0-1.4.4-.4 1-.4 1.4 0 .4.4.4 1 0 1.4z"/></g></svg><svg id="toolbar-copy" width="18" height="18" viewBox="-1 -1 18 18" x="396" y="482"><style>.gbst0{fill-rule:evenodd;clip-rule:evenodd;fill:#666}</style><path class="gbst0" d="M4.5 15.5v-12h10v12h-10zm8-10h-6v8h6v-8zm-3-3h-6v10h-2V.5h10v2h-2z"/></svg><svg width="18" height="18" viewBox="-1 -1 18 18" id="toolbar-copy-#00a4ff" x="414" y="482"><style>.gcst0{fill-rule:evenodd;clip-rule:evenodd;fill:#00a4ff}</style><path class="gcst0" d="M4.5 15.5v-12h10v12h-10zm8-10h-6v8h6v-8zm-3-3h-6v10h-2V.5h10v2h-2z"/></svg><svg id="toolbar-other" width="18" height="18" viewBox="-1 -1 18 18" x="324" y="482"><style>.gdst0{fill-rule:evenodd;clip-rule:evenodd;fill:#666}</style><path class="gdst0" d="M12 9V7h2v2h-2zM7 7h2v2H7V7zM2 7h2v2H2V7z"/></svg><svg width="18" height="18" viewBox="-1 -1 18 18" id="toolbar-other-#00a4ff" x="414" y="464"><style>.gest0{fill-rule:evenodd;clip-rule:evenodd;fill:#00a4ff}</style><path class="gest0" d="M12 9V7h2v2h-2zM7 7h2v2H7V7zM2 7h2v2H2V7z"/></svg><svg id="video-close" width="34" height="34" viewBox="-1 -1 34 34" x="102" y="396"><style>.gfst0{fill:#fff}</style><path id="gfXMLID_1_" transform="rotate(45.001 16.021 16)" class="gfst0" d="M15-2.4h2v36.7h-2z"/><path id="gfXMLID_2_" transform="rotate(134.999 16.02 16)" class="gfst0" d="M15-2.4h2v36.7h-2z"/></svg><svg id="video-close-hover" width="34" height="34" viewBox="-1 -1 34 34" x="68" y="396"><style>.ggst0{fill:#00a4ff}</style><path id="ggXMLID_1_" transform="rotate(45.001 16.021 16)" class="ggst0" d="M15-2.4h2v36.7h-2z"/><path id="ggXMLID_2_" transform="rotate(134.999 16.02 16)" class="ggst0" d="M15-2.4h2v36.7h-2z"/></svg><svg id="wechat" width="66" height="66" viewBox="-1 -1 66 66" y="132"><style>.ghst0{fill:#f0f1f2}</style><g id="ghXMLID_24_"><path id="ghXMLID_29_" class="ghst0" d="M32 0C14.3 0 0 14.3 0 32s14.3 32 32 32 32-14.3 32-32S49.7 0 32 0zm0 62C15.5 62 2 48.5 2 32S15.5 2 32 2s30 13.5 30 30-13.5 30-30 30z"/></g><g id="ghXMLID_17_"><path id="ghXMLID_30_" class="ghst0" d="M48 34c0-4.6-4.2-8.3-9.5-8.5-1.5-4.1-5.8-7-11-7-6.4 0-11.5 4.5-11.5 10 0 2.8 1.3 5.3 3.4 7.1L18 40.5l5.9-2.5c1.1.3 2.4.5 3.6.5.7 0 1.3-.1 1.9-.1-.4-.6-.7-1.2-1-1.9h-.9c-1 0-2.1-.1-3.1-.4l-.7-.2-.7.3-2 .9.2-.9.4-1.2-1-.8C19 32.6 18 30.6 18 28.5c0-4.4 4.3-8 9.5-8 4 0 7.5 2.1 8.9 5.1-4.8.7-8.4 4.2-8.4 8.4 0 .9.2 1.7.4 2.4s.6 1.3 1 1.9c1.7 2.5 4.9 4.2 8.6 4.2.8 0 1.6-.1 2.3-.2l5.7 3.2-1.5-5.1c2.2-1.5 3.5-3.8 3.5-6.4zm-4.6 4.8l-1.1.8.4 1.3.1.4-1.4-.8-.7-.4-.7.2c-.7.1-1.3.2-1.9.2-4.4 0-8-2.9-8-6.5s3.6-6.5 8-6.5 8 2.9 8 6.5c-.1 1.8-1.1 3.6-2.7 4.8z"/><circle id="ghXMLID_31_" class="ghst0" cx="35" cy="31.5" r="1"/><circle id="ghXMLID_32_" class="ghst0" cx="41" cy="31.5" r="1"/><circle id="ghXMLID_33_" class="ghst0" cx="23.5" cy="25" r="1.5"/><circle id="ghXMLID_34_" class="ghst0" cx="31.5" cy="25" r="1.5"/></g><path id="ghXMLID_14_" class="ghst0" d="M105 16h32v32h-32z"/></svg><svg id="withdraw" viewBox="-1 -1 66 66" width="66" height="66" x="132" y="66"><style>.gist0{fill:#757a80}</style><g id="giXMLID_2_"><g id="giXMLID_93_"><path id="giXMLID_94_" class="gist0" d="M49 17v4h2v-6h-9l-2 2h9zM32 31v2h-1.2c-2.1 0-3.8 1.6-3.8 3.5s1.7 3.5 3.8 3.5h4.4c.9 0 1.6.7 1.6 1.5s-.7 1.5-1.6 1.5H28v2h4v2h2v-2h1.2c2.1 0 3.8-1.6 3.8-3.5S37.3 38 35.2 38h-4.4c-.9 0-1.6-.7-1.6-1.5s.7-1.5 1.6-1.5H38v-2h-4v-2h-2zm1-10l8-9v-2h-4V0H27v10h-4v2l8 9h2zm-5-9h1V2h6v10h3.2l-6 7h-.3l-6-7H28zM14 23c-1.7 0-3-1.3-3-3s1.3-3 3-3h10l-2-2h-8c-2.8 0-5 2.2-5 5v30h2V24c.8.6 1.9 1 3 1h39v28H14c-1.7 0-3-1.3-3-3H9c0 2.8 2.2 5 5 5h41V23H14z"/></g></g></svg><svg id="withdraw-hover" viewBox="-1 -1 66 66" width="66" height="66" x="66"><style>.gjst0{fill:url(#gjXMLID_3_)}</style><g id="gjXMLID_2_"><g id="gjXMLID_93_"><linearGradient id="gjXMLID_3_" gradientUnits="userSpaceOnUse" x1="45.696" y1="60.372" x2="14.88" y2="6.998"><stop offset="0" stop-color="#0063ff"/><stop offset="1" stop-color="#00c8de"/></linearGradient><path id="gjXMLID_94_" class="gjst0" d="M49 17v4h2v-6h-9l-2 2h9zM32 31v2h-1.2c-2.1 0-3.8 1.6-3.8 3.5s1.7 3.5 3.8 3.5h4.4c.9 0 1.6.7 1.6 1.5s-.7 1.5-1.6 1.5H28v2h4v2h2v-2h1.2c2.1 0 3.8-1.6 3.8-3.5S37.3 38 35.2 38h-4.4c-.9 0-1.6-.7-1.6-1.5s.7-1.5 1.6-1.5H38v-2h-4v-2h-2zm1-10l8-9v-2h-4V0H27v10h-4v2l8 9h2zm-5-9h1V2h6v10h3.2l-6 7h-.3l-6-7H28zM14 23c-1.7 0-3-1.3-3-3s1.3-3 3-3h10l-2-2h-8c-2.8 0-5 2.2-5 5v30h2V24c.8.6 1.9 1 3 1h39v28H14c-1.7 0-3-1.3-3-3H9c0 2.8 2.2 5 5 5h41V23H14z"/></g></g></svg></svg>