<?xml version="1.0" encoding="UTF-8"?><svg width="136" height="120" viewBox="0 0 136 120" xmlns="http://www.w3.org/2000/svg" xmlns:xlink="http://www.w3.org/1999/xlink"><svg width="13" height="9" viewBox="-1 -1 13 9" id="arrow-down-scba" x="123"><title>Combined-Shape</title><path d="M5.5 4.2L1.376 0 0 1.4 5.5 7l1.376-1.4L11 1.4 9.624 0z" fill="#AD9354" fill-rule="nonzero"/></svg><svg width="18" height="18" viewBox="-1 -1 18 18" id="authorize-arrow690" x="72" y="88"><title>Combined Shape Copy 9</title><path fill="#999" d="M10.719 7.5L5.333 2.512l.886-.845L12.333 7.5 6.22 13.333l-.886-.87z" fill-rule="evenodd"/></svg><svg data-name="图层 1" width="18" height="18" viewBox="-1 -1 18 18" id="c-c36f" x="96"><title>复-选中</title><path d="M0 0h16v16H0z" fill="#a99159"/><path fill="#fff" d="M13.8 5.4L12.5 4l-6 6.3-2.4-2.5-1.3 1.4 2.4 2.4L6.5 13l1.3-1.4 6-6.2z"/></svg><svg data-name="图层 1" width="18" height="18" viewBox="-1 -1 18 18" id="c-d-c037" x="96" y="36"><title>复-不可点02</title><path fill="#f7f8fa" d="M.5.5h15v15H.5z"/><path d="M15 1v14H1V1h14m1-1H0v16h16z" fill="#ddd"/><path fill="#ddd" d="M13.8 5.4L12.5 4l-6 6.3-2.4-2.5-1.3 1.4 2.4 2.4L6.5 13l1.3-1.4 6-6.2z"/></svg><svg data-name="图层 1" width="18" height="18" viewBox="-1 -1 18 18" id="c-d5d3" x="70" y="48"><title>复-不可点</title><path fill="#f7f8fa" d="M.5.5h15v15H.5z"/><path d="M15 1v14H1V1h14m1-1H0v16h16V0z" fill="#ddd"/></svg><svg width="18" height="18" viewBox="-1 -1 18 18" id="c8ec" x="18" y="70"><title>c</title><g fill-rule="nonzero" fill="none"><path d="M.5.5h15v15H.5z"/><path d="M15 1v14H1V1h14m1-1H0v16h16V0z" fill="#AE944F"/></g></svg><svg width="15" height="10" viewBox="-1 -1 15 10" id="caret-placeholder50a" x="34" y="56"><title>路径</title><path d="M11.15.798L6.419 5.644 1.687.798C1.43.538.913.538.655.798s-.258.779 0 1.039l5.161 5.278s0 .087.086.087c.086.173.344.26.517.26.172 0 .43-.087.516-.26 0 0 0-.087.086-.087l5.247-5.278c.258-.26.258-.78 0-1.039-.344-.346-.774-.346-1.118 0z" fill="#AE944F" fill-rule="nonzero" opacity=".4"/></svg><svg width="15" height="10" viewBox="-1 -1 15 10" id="caret0f3" x="49" y="56"><title>路径</title><path d="M11.15.798L6.419 5.644 1.687.798C1.43.538.913.538.655.798s-.258.779 0 1.039l5.161 5.278s0 .087.086.087c.086.173.344.26.517.26.172 0 .43-.087.516-.26 0 0 0-.087.086-.087l5.247-5.278c.258-.26.258-.78 0-1.039-.344-.346-.774-.346-1.118 0z" fill="#AE944F" fill-rule="nonzero"/></svg><svg width="13" height="8" viewBox="-1 -1 13 8" id="caret39b" x="14" y="106"><title>Page 1</title><path d="M10.313 0L5.5 4.667.688 0 0 .667l4.813 4.666L5.5 6l.687-.667L11 .667z" fill="#333" fill-rule="evenodd"/></svg><svg width="14" height="14" viewBox="-1 -1 14 14" id="close-hover06e" y="106"><title>Page 1 Copy 4</title><path d="M10.574 0L6 4.572 1.426-.001 0 1.426l4.574 4.575L0 10.574 1.426 12 6 7.427 10.574 12 12 10.574 7.426 6.001l4.575-4.575z" fill="#AD9354" fill-rule="evenodd"/></svg><svg width="14" height="14" viewBox="-1 -1 14 14" id="closedab" x="99" y="88"><title>Page 1 Copy 4</title><path d="M10.574 0L6 4.572 1.426-.001 0 1.426l4.574 4.575L0 10.574 1.426 12 6 7.427 10.574 12 12 10.574 7.426 6.001l4.575-4.575z" fill="#888" fill-rule="evenodd"/></svg><svg width="17" height="11" viewBox="-1 -1 17 11" id="collapse-arrow981" x="96" y="72"><title>添加</title><path d="M2.333 1.233l5.467 5.6 5.467-5.6c.298-.3.894-.3 1.193 0 .298.3.298.9 0 1.2l-5.964 6.1s0 .1-.1.1c-.1.2-.397.3-.596.3-.2 0-.497-.1-.597-.3 0 0 0-.1-.1-.1l-6.063-6.1c-.298-.3-.298-.9 0-1.2.398-.4.895-.4 1.293 0z" fill="#666" fill-rule="nonzero"/></svg><svg width="18" height="18" viewBox="-1 -1 18 18" fill="#ad9354" id="icon-add0d9" x="36" y="70"><title>形状</title><path d="M8.571 7.429h2.858c.342 0 .571.228.571.571 0 .343-.229.571-.571.571H8.57v2.858c0 .342-.228.571-.571.571-.343 0-.571-.229-.571-.571V8.57H4.57C4.23 8.571 4 8.343 4 8c0-.343.229-.571.571-.571H7.43V4.57C7.429 4.23 7.657 4 8 4c.343 0 .571.229.571.571V7.43zM8 16c-4.4 0-8-3.6-8-8s3.6-8 8-8 8 3.6 8 8-3.6 8-8 8zm0-1.143c3.771 0 6.857-3.086 6.857-6.857 0-3.771-3.086-6.857-6.857-6.857-3.771 0-6.857 3.086-6.857 6.857 0 3.771 3.086 6.857 6.857 6.857z" fill-rule="nonzero"/></svg><svg width="18" height="18" viewBox="-1 -1 18 18" id="icon-adde6c" x="54" y="70"><title>形状</title><path d="M8.571 7.429h2.858c.342 0 .571.228.571.571 0 .343-.229.571-.571.571H8.57v2.858c0 .342-.228.571-.571.571-.343 0-.571-.229-.571-.571V8.57H4.57C4.23 8.571 4 8.343 4 8c0-.343.229-.571.571-.571H7.43V4.57C7.429 4.23 7.657 4 8 4c.343 0 .571.229.571.571V7.43zM8 16c-4.4 0-8-3.6-8-8s3.6-8 8-8 8 3.6 8 8-3.6 8-8 8zm0-1.143c3.771 0 6.857-3.086 6.857-6.857 0-3.771-3.086-6.857-6.857-6.857-3.771 0-6.857 3.086-6.857 6.857 0 3.771 3.086 6.857 6.857 6.857z" fill="#76653c" fill-rule="nonzero"/></svg><svg width="18" height="18" viewBox="-1 -1 18 18" id="icon-arrow-right164" x="72" y="70"><path fill="#FFF" fill-rule="evenodd" d="M5 6l3 2-3 2v2l6-4-6-4z"/></svg><svg width="9" height="14" viewBox="-1 -1 9 14" id="icon-arrow-right724" x="114"><title>路径</title><path d="M.26 1.312l4.846 4.731L.26 10.774c-.26.258-.26.774 0 1.032.26.259.778.259 1.038 0l5.279-5.16s.086 0 .086-.087c.174-.086.26-.344.26-.516 0-.172-.086-.43-.26-.516 0 0-.086 0-.086-.086L1.298.194C1.038-.065.52-.065.26.194c-.347.344-.347.774 0 1.118z" fill="#AE944F" fill-rule="nonzero"/></svg><svg width="9" height="14" viewBox="-1 -1 9 14" id="icon-arrowb11" x="90" y="88"><title>路径</title><path d="M.26 1.312l4.846 4.731L.26 10.774c-.26.258-.26.774 0 1.032.26.259.778.259 1.038 0l5.279-5.16s.086 0 .086-.087c.174-.086.26-.344.26-.516 0-.172-.086-.43-.26-.516 0 0-.086 0-.086-.086L1.298.194C1.038-.065.52-.065.26.194c-.347.344-.347.774 0 1.118z" fill="#5E5235" fill-rule="nonzero"/></svg><svg width="18" height="18" viewBox="-1 -1 18 18" id="icon-checked321" x="96" y="18"><title>Page 1</title><g fill="none" fill-rule="evenodd"><path fill="#A99159" d="M16 0L0 16h16z"/><path fill="#FFF" d="M10.003 14.004l-2.828-2.828.707-.707 2.828 2.828z"/><path fill="#FFF" d="M14.957 9.055l-4.95 4.95-.707-.708 4.95-4.95z"/></g></svg><svg id="icon-dialog-close2cd" width="34" height="34" viewBox="-1 -1 34 34" y="36"><style>.asst0{fill:#fff}</style><path id="asXMLID_1_" transform="rotate(45.001 16.021 16)" class="asst0" d="M15-2.4h2v36.7h-2z"/><path id="asXMLID_2_" transform="rotate(134.999 16.02 16)" class="asst0" d="M15-2.4h2v36.7h-2z"/></svg><svg width="18" height="18" viewBox="-1 -1 18 18" id="icon-dropdown-right-active401" x="96" y="54"><path fill="#888" d="M5 13v-1.302L9.438 8 5 4.302V3l6 5-6 5z"/></svg><svg width="18" height="18" viewBox="-1 -1 18 18" id="icon-dropdown-right85c" y="88"><path fill="#fff" d="M5 13v-1.302L9.438 8 5 4.302V3l6 5-6 5z"/></svg><svg width="18" height="18" viewBox="-1 -1 18 18" id="icon-experience-dateeb9" x="18" y="88"><title>日期</title><path d="M1 3.652c2.186-.629 4.14-.803 5.862-.522 1.36.222 1.845.583 2.642.823 1.349.404 2.77.429 4.264.073A1 1 0 0 1 15 4.998v6.8a1 1 0 0 1-.839.987 15.321 15.321 0 0 1-4.022.143c-2.335-.236-2.382-1.031-4.012-1.298-1.086-.178-2.795.155-5.127.997V3.652zm2 1.572v4.7c1.365-.328 2.503-.423 3.45-.268.812.133 1.35.339 2.078.722l.221.116c.499.26.838.368 1.591.444.86.087 1.745.083 2.66-.014V6.195a9.82 9.82 0 0 1-4.07-.327 8.622 8.622 0 0 1-.754-.267l-.428-.172a5.518 5.518 0 0 0-1.208-.325c-1.041-.17-2.22-.133-3.54.12z" fill="#AD9354" fill-rule="nonzero"/></svg><svg width="18" height="18" viewBox="-1 -1 18 18" id="icon-experience-labele8e" x="36" y="88"><title>标签</title><g transform="rotate(45 6.157 11.45)" stroke="#999" fill="none" fill-rule="evenodd"><path d="M1.499 4.767l-.04 6.85v.01a1.5 1.5 0 0 0 1.5 1.5h4a1.5 1.5 0 0 0 1.5-1.492l.04-6.87-3.145-3.146a.5.5 0 0 0-.708 0L1.5 4.767z"/><circle cx="5" cy="5" r="1"/></g></svg><svg data-name="图层 1" width="18" height="18" viewBox="-1 -1 18 18" id="icon-experience-share759" x="54" y="88"><title>icon-share</title><g fill="#ad9354"><path d="M14 13a.945.945 0 0 1-1 1H3a.945.945 0 0 1-1-1V3a.945.945 0 0 1 1-1h5V1H3a2.006 2.006 0 0 0-2 2v10a2.006 2.006 0 0 0 2 2h10a2.006 2.006 0 0 0 2-2V8h-1z"/><path d="M14 1h-4v1h3.3l-7 7 .7.7 7-7V6h1V1h-1z"/></g></svg><svg width="34" height="34" viewBox="-1 -1 34 34" id="icon-successa55" x="36"><title>Group 6</title><g stroke="#A99159" stroke-width="2" fill="none" fill-rule="evenodd"><circle cx="16" cy="16" r="15"/><path stroke-linecap="square" d="M9.733 16.01l4.283 4.957 9.05-8.7"/></g></svg><svg width="26" height="26" viewBox="-1 -1 26 26" id="icon-tvp-success0a7" x="70"><title>Group 6</title><g fill="none" fill-rule="evenodd"><circle fill="#A99159" cx="12" cy="12" r="12"/><path stroke="#FFF" stroke-width="2" stroke-linecap="square" d="M6.4 12.059l3.854 4.558 8.146-8"/></g></svg><svg width="22" height="22" viewBox="-1 -1 22 22" id="loadingd98" x="70" y="26"><title>加载icon复制</title><defs><linearGradient x1="50%" y1="0%" x2="50.553%" y2="98.391%" id="baa"><stop stop-color="#F9CEA9" offset="0%"/><stop stop-color="#B09047" offset="53.436%"/><stop stop-color="#212121" offset="100%"/></linearGradient><linearGradient x1="0%" y1="4.562%" x2="0%" y2="98.358%" id="bab"><stop stop-color="#FCD0AB" offset="0%"/><stop stop-color="#9D836F" offset="26.271%"/><stop stop-color="#242422" offset="100%"/></linearGradient></defs><g fill="none" fill-rule="nonzero"><path d="M9.83 1.294c5.522 0 10 4.477 10 10s-4.478 10-10 10v-1.5a8.5 8.5 0 1 0 0-17v-1.5z" fill="url(#baa)" transform="rotate(15 14.83 11.294)"/><path d="M.17-1.294c5.523 0 10 4.477 10 10s-4.477 10-10 10v-1.5a8.5 8.5 0 0 0 0-17v-1.5z" fill="url(#bab)" transform="scale(-1 1) rotate(-15 0 47.979)"/></g></svg><svg width="28" height="20" viewBox="-1 -1 28 20" id="logo-community515" x="34" y="36"><title>tencent-logo</title><g fill="none" fill-rule="evenodd"><path d="M1 0h25v18H1z"/><g fill="#AD9354" fill-rule="nonzero"><path d="M22.5 14.7c-.4.4-1.2 1-2.6 1h-8.6c2.6-2.5 4.8-4.6 5-4.8.2-.2.7-.7 1.2-1.1 1-.9 1.8-1 2.5-1 1 0 1.8.4 2.5 1 1.4 1.3 1.4 3.6 0 4.9zm1.7-6.5c-1-1.1-2.5-1.8-4.1-1.8-1.4 0-2.6.5-3.7 1.3-.4.4-1 .8-1.5 1.4-.4.4-9 8.8-9 8.8.5.1 1.1.1 1.6.1h10.9c.8 0 1.4 0 2-.1 1.3-.1 2.6-.6 3.7-1.6 2.3-2.2 2.3-5.9.1-8.1z"/><path d="M10.2 7.6C9.1 6.8 8 6.4 6.7 6.4c-1.6 0-3.1.7-4.1 1.8-2.2 2.3-2.2 5.9.1 8.2 1 .9 2 1.4 3.2 1.5l2.3-2.2H6.9c-1.3-.1-2.1-.5-2.6-1-1.4-1.4-1.4-3.6-.1-5 .7-.7 1.5-1 2.5-1 .6 0 1.5.1 2.4 1 .4.4 1.5 1.2 1.9 1.6h.1l1.5-1.5v-.1c-.7-.7-1.8-1.6-2.4-2.1"/><path d="M20.7 5.1c-1.1-3-4-5.1-7.3-5.1-3.9 0-7 2.9-7.6 6.5.3 0 .6-.1 1-.1s.9.1 1.3.1c.5-2.5 2.7-4.3 5.3-4.3 2.2 0 4.1 1.3 5 3.2 0 0 .1.1.1 0 .7-.1 1.5-.3 2.2-.3 0 .1 0 .1 0 0"/></g></g></svg><svg width="12" height="12" viewBox="-1 -1 12 12" id="m-deletedff" x="123" y="9"><title>编组</title><g fill="#FFF" fill-rule="evenodd"><path d="M.542 9.05V8.52h.541v-.533h.542v-.532h.542V6.92h.541V6.39h.542v-.533h.542v-.532h.541V4.26h-.541v-.532H3.25v-.533h-.542v-.532h-.541V2.13h-.542v-.533h-.542v-.532H.542V.532H0V0h1.083v.532h.542v.533h.542v.532h.541v.533h.542v.532h.542v.532h.541v.533h.542v.532h.542v1.065h-.542v.532h-.542v.533h-.541v.532H3.25v.533h-.542v.532h-.541v.533h-.542v.532h-.542v.532H0v-.532h.542z"/><path d="M9.458 9.05V8.52h-.541v-.533h-.542v-.532h-.542V6.92h-.541V6.39H6.75v-.533h-.542v-.532h-.541V4.26h.541v-.532h.542v-.533h.542v-.532h.541V2.13h.542v-.533h.542v-.532h.541V.532H10V0H8.917v.532h-.542v.533h-.542v.532h-.541v.533H6.75v.532h-.542v.532h-.541v.533h-.542v.532h-.542v1.065h.542v.532h.542v.533h.541v.532h.542v.533h.542v.532h.541v.533h.542v.532h.542v.532H10v-.532h-.542z"/></g></svg><svg data-name="图层 1" width="18" height="18" viewBox="-1 -1 18 18" id="remove-iconadd" y="70"><title>remove-icon</title><g fill="none" stroke="#999"><path d="M11.03 4.97l-6.06 6.06M11.03 11.03L4.97 4.97"/></g></svg><svg width="36" height="36" viewBox="-1 -1 36 36" id="wechat371"><title>Group 2 Copy</title><g transform="translate(1 1)" fill="none" fill-rule="evenodd"><circle stroke="#A99159" cx="16" cy="16" r="16"/><g transform="translate(7 9)" fill="#A99159"><path d="M14.374 9.164c-.408 0-.734-.342-.734-.768 0-.427.326-.769.734-.769s.735.342.735.769c0 .405-.327.768-.735.768m-3.62 0c-.408 0-.734-.342-.734-.768 0-.427.326-.769.735-.769.408 0 .734.342.734.769 0 .405-.326.768-.734.768m5.371 4.312c1.145-.862 1.868-2.145 1.868-3.553 0-2.607-2.41-4.71-5.403-4.71-2.993 0-5.404 2.103-5.404 4.71 0 2.607 2.41 4.71 5.404 4.71.622 0 1.205-.085 1.767-.253.04-.021.1-.021.161-.021.1 0 .2.042.281.084l1.185.715c.04.021.06.042.1.042.101 0 .182-.084.182-.19 0-.041-.02-.083-.02-.146 0-.021-.161-.59-.242-.947-.02-.042-.02-.084-.02-.126a.302.302 0 0 1 .141-.315"/><path d="M8.604 4.72c-.469 0-.84-.389-.84-.879s.371-.878.84-.878c.468 0 .839.388.839.878 0 .47-.37.878-.84.878m-4.301 0c-.469 0-.84-.388-.84-.878s.371-.878.84-.878c.468 0 .84.388.84.878 0 .47-.372.878-.84.878M6.503 0C2.919 0 0 2.518 0 5.645c0 1.7.866 3.232 2.255 4.26.1.085.181.21.181.379 0 .041-.02.104-.02.146-.1.42-.282 1.113-.302 1.134-.02.063-.04.105-.04.168 0 .126.1.23.221.23.04 0 .08-.02.121-.042l1.43-.86a.659.659 0 0 1 .342-.105c.06 0 .12 0 .18.021.665.189 1.39.315 2.115.315h.362a4.526 4.526 0 0 1-.221-1.385c0-2.833 2.657-5.142 5.919-5.142h.362C12.442 2.057 9.745 0 6.503 0"/></g></g></svg></svg>