<svg width="78" height="74" viewBox="0 0 78 74" xmlns="http://www.w3.org/2000/svg" xmlns:xlink="http://www.w3.org/1999/xlink"><svg id="ai" width="18" height="18" viewBox="-1 -1 18 18" x="18" y="38"><style>.aast0{fill:#626466}</style><g id="aaXMLID_850_"><path id="aaXMLID_852_" class="aast0" d="M9 9V1h-.5C4.4 1 1 4.4 1 8.5c0 2.3 1.1 4.4 2.7 5.8L4 14l5-5zm-7-.5C2 5.1 4.6 2.3 8 2v6.6l-4.3 4.3C2.7 11.7 2 10.2 2 8.5z"/><path id="aaXMLID_851_" class="aast0" d="M11 1.4v1.1c2.3 1 4 3.3 4 6 0 3.6-2.9 6.5-6.5 6.5-.8 0-1.6-.2-2.3-.4l-.8.8c.9.4 2 .6 3 .6 4.1 0 7.5-3.4 7.5-7.5.1-3.3-2-6-4.9-7.1z"/></g></svg><svg id="arrow-down" viewBox="-1 -1 30 20" width="30" height="20" x="30"><style>.abst0{fill-rule:evenodd;clip-rule:evenodd;fill:#7f7f7f}</style><g id="abXMLID_2_"><g id="abXMLID_22_"><path id="abXMLID_23_" class="abst0" d="M28 3.4l-14 14-2.8-2.8L0 3.4 2.8.6 14 11.8 25.2.6z"/></g></g></svg><svg id="arrow-up" viewBox="-1 -1 30 20" width="30" height="20"><style>.acst0{fill-rule:evenodd;clip-rule:evenodd;fill:#7f7f7f}</style><g id="acXMLID_2_"><g id="acXMLID_23_"><path id="acXMLID_24_" class="acst0" d="M28 14.6L14 .6l-2.8 2.8L0 14.6l2.8 2.8L14 6.2l11.2 11.2z"/></g></g></svg><svg id="cdn" width="18" height="18" viewBox="-1 -1 18 18" x="18" y="20"><style>.adst0{fill:#626466}</style><path id="adXMLID_791_" class="adst0" d="M8.5 0L1 4v8l7.5 4 7.5-4V7.9l-1 .5v2.9l-6 3.2V8.9l5.1-2.7 1.9-1V4L8.5 0zM8 14.6l-6-3.2V5.7l6 3.2v5.7zm.5-6.5L2 4.6l6.5-3.5L15 4.6 8.5 8.1z"/></svg><svg id="compute" width="18" height="18" viewBox="-1 -1 18 18" x="36" y="20"><style>.aest0{fill:#626466}</style><g id="aeXMLID_888_"><g id="aeXMLID_27_"><path id="aeXMLID_28_" class="aest0" d="M16 4L8.5 0 1 4v7l4.2 2.3c.1-.3.3-.6.5-.9l-3.7-2V5.7l6.5 3.5L15 5.7v4.7l-5.5 3c-.3-.2-.6-.4-1-.4-.8 0-1.5.7-1.5 1.5S7.7 16 8.5 16s1.5-.7 1.5-1.5v-.3l6-3.2V4zM8.5 8.1L2 4.6l6.5-3.5L15 4.6 8.5 8.1z"/></g></g></svg><svg id="database" width="18" height="18" viewBox="-1 -1 18 18" y="38"><style>.afst0,.afst1{fill:#626466}.afst1{fill-rule:evenodd;clip-rule:evenodd}</style><g id="afXMLID_835_"><g id="afXMLID_841_"><g id="afXMLID_30_"><path id="afXMLID_31_" class="afst0" d="M14 10.2C13.8 8.4 12.3 7 10.5 7S7.2 8.4 7 10.2c-1.2.4-2 1.5-2 2.8 0 1.7 1.3 3 3 3h5c1.7 0 3-1.3 3-3 0-1.3-.9-2.4-2-2.8zM13 15H8c-1.1 0-2-.9-2-2 0-.8.5-1.6 1.4-1.9l.6-.2v-.6C8.2 9 9.2 8 10.5 8s2.4 1 2.5 2.3l.1.6.6.2c.8.3 1.4 1 1.4 1.9-.1 1.1-1 2-2.1 2z"/></g></g><path id="afXMLID_840_" class="afst1" d="M7 0C3.1 0 0 1.6 0 3.5v8c0 1.2 1.3 2.3 3.3 3-.1-.4-.2-.7-.3-1.2-1.3-.5-2-1.2-2-1.8V9.3c.7.6 1.7 1 2.8 1.3.2-.3.5-.6.9-.8C2.4 9.3 1 8.3 1 7.5V5.3c1.1.9 3 1.6 5.3 1.7.1-.3.3-.7.5-1C3.2 5.9 1 4.5 1 3.5S3.3 1 7 1s6 1.5 6 2.5c0 .3-.2.6-.6 1 .6.3 1.1.7 1.6 1.2V3.5C14 1.6 10.9 0 7 0z"/></g></svg><svg id="domain" width="18" height="18" viewBox="-1 -1 18 18" y="20"><style>.agst0{fill:#626466}</style><g id="agXMLID_864_"><path id="agXMLID_872_" class="agst0" d="M4 8V7H2v4h2v-1H3V8z"/><path id="agXMLID_869_" class="agst0" d="M5 7v4h3V7H5zm2 1v2H6V8h1z"/><path id="agXMLID_868_" class="agst0" d="M14 11V7H9v4h1V8h1v3h1V8h1v3z"/><path id="agXMLID_865_" class="agst0" d="M16 11V1H0v13h16v-1H1V5h14v6h1zM1 4V2h14v2H1z"/></g></svg><svg id="mobile" width="18" height="18" viewBox="-1 -1 18 18" x="36" y="38"><style>.ahst0{fill:#626466}</style><g id="ahXMLID_858_"><circle id="ahXMLID_863_" class="ahst0" cx="8" cy="8" r="1"/><path id="ahXMLID_862_" class="ahst0" d="M9.7 6.9l.8-.6C10 5.5 9 5 8 5s-2 .5-2.5 1.3l.8.6c.4-.5 1-.9 1.7-.9s1.3.4 1.7.9z"/><path id="ahXMLID_861_" class="ahst0" d="M11.3 5.8l.8-.6C11.3 3.9 9.7 3 8 3s-3.3.9-4.2 2.2l.8.6C5.4 4.7 6.6 4 8 4s2.6.7 3.3 1.8z"/><path id="ahXMLID_860_" class="ahst0" d="M14 13V0H2v16h12v-1H3V1h10v12z"/><path id="ahXMLID_859_" class="ahst0" d="M7 12h2v1H7z"/></g></svg><svg id="monitor" width="18" height="18" viewBox="-1 -1 18 18" x="60"><style>.aist0{fill:#626466}</style><g id="aiXMLID_493_"><g id="aiXMLID_748_"><g id="aiXMLID_33_"><path id="aiXMLID_35_" class="aist0" d="M13 8h1c0-3.3-2.7-6-6-6S2 4.7 2 8h1c0-2.8 2.2-5 5-5s5 2.3 5 5zm-2.2-2.8c-.2-.2-.5-.2-.7 0L7.7 7.7c-.2.2-.2.5 0 .7.1.1.2.1.3.1.1 0 .3 0 .4-.1l2.4-2.5c.2-.2.2-.5 0-.7zM8 0C3.6 0 0 3.6 0 8c0 4.1 3.1 7.5 7 8v-1c-3.4-.5-6-3.4-6-7 0-3.9 3.1-7 7-7s7 3.2 7 7c0 3.5-2.6 6.4-6 6.9v1c3.9-.5 7-3.9 7-8C16 3.6 12.4 0 8 0z"/></g></g><circle id="aiXMLID_494_" class="aist0" cx="8" cy="8" r="1"/></g></svg><svg id="network" width="18" height="18" viewBox="-8 8 18 18" x="60" y="18"><style>.ajst0{fill-rule:evenodd;clip-rule:evenodd;fill:#626466}</style><path class="ajst0" d="M1 9c-4.4 0-8 3.6-8 8s3.6 8 8 8 8-3.6 8-8-3.6-8-8-8zm0 15c-.8 0-1.5-1.7-1.8-4.1.6.1 1.2.1 1.8.1s1.2 0 1.8-.1C2.5 22.3 1.8 24 1 24zm0-5c-.7 0-1.3 0-1.9-.1-.1-.6-.1-1.2-.1-1.9s0-1.3.1-1.9C-.3 15 .3 15 1 15s1.3 0 1.9.1c.1.6.1 1.2.1 1.9s0 1.3-.1 1.9c-.6.1-1.2.1-1.9.1zm0-9c.8 0 1.5 1.7 1.8 4.1C2.2 14 1.6 14 1 14s-1.2 0-1.8.1C-.5 11.7.2 10 1 10zm2.9 5.2c2.4.3 4.1 1 4.1 1.8s-1.7 1.5-4.1 1.8c.1-.6.1-1.2.1-1.8s0-1.2-.1-1.8zm3.9.2c-.9-.6-2.3-1-4-1.2-.2-1.7-.7-3.1-1.2-4 2.6.6 4.6 2.6 5.2 5.2zm-8.4-5.2c-.6.9-1 2.3-1.2 4-1.7.2-3.1.7-4 1.2.6-2.6 2.6-4.6 5.2-5.2zm-1.3 5c-.1.6-.1 1.2-.1 1.8s0 1.2.1 1.8c-2.4-.3-4.1-1-4.1-1.8s1.7-1.5 4.1-1.8zm-3.9 3.4c.9.6 2.3 1 4 1.2.2 1.7.7 3.1 1.2 4-2.6-.6-4.6-2.6-5.2-5.2zm8.4 5.2c.6-.9 1-2.3 1.2-4 1.7-.2 3.1-.7 4-1.2-.6 2.6-2.6 4.6-5.2 5.2z" id="ajXMLID_973_"/></svg><svg id="security" width="18" height="18" viewBox="-1 -1 18 18" x="60" y="36"><style>.akst0{fill:#626466}</style><g id="akXMLID_882_"><path id="akXMLID_884_" class="akst0" d="M8.5 3C7.1 3 6 4.1 6 5.5V6H5v5h7V6h-1v-.5C11 4.1 9.9 3 8.5 3zM7 5.5C7 4.7 7.7 4 8.5 4s1.5.7 1.5 1.5V6H7v-.5zm4 4.5H6V7h5v3z"/><path id="akXMLID_883_" class="akst0" d="M15 1h1V0H1v7s0 8 7.5 9C16 15 16 7 16 7V3h-1v4c0 .3-.1 7.1-6.5 8C2.1 14.1 2 7.3 2 7V1h13z"/></g></svg><svg id="vod" width="18" height="18" viewBox="-1 -1 18 18" y="56"><style>.alst0{fill:#626466}</style><g id="alXMLID_855_"><path id="alXMLID_857_" class="alst0" d="M10.2 8.3L7.5 6.6c-.2-.1-.5 0-.5.3v3.3c0 .2.3.4.5.3l2.7-1.7c.2-.1.2-.4 0-.5z"/><path id="alXMLID_856_" class="alst0" d="M13 6.1V6c0-2.8-2.2-5-5-5S3 3.2 3 6v.1c-1.7.4-3 2-3 3.9 0 2.2 1.8 4 4 4h3v-1H4c-1.7 0-3-1.3-3-3 0-1.4.9-2.6 2.3-2.9l.7-.2V6c0-2.2 1.8-4 4-4s4 1.8 4 4v1l.8.2c1.3.2 2.2 1.4 2.2 2.8 0 1.7-1.3 3-3 3H9v1h3c2.2 0 4-1.8 4-4 0-1.9-1.3-3.4-3-3.9z"/></g></svg></svg>