<svg width="359" height="348" viewBox="0 0 359 348" xmlns="http://www.w3.org/2000/svg" xmlns:xlink="http://www.w3.org/1999/xlink"><svg width="28" height="28" viewBox="-1 -1 28 28" id="26-mail" x="316" y="272"><title>Group 4</title><g fill="none" fill-rule="evenodd"><circle stroke="#999" cx="13" cy="13" r="12.5"/><path d="M18.688 8.125H7.313a.813.813 0 0 0-.813.813v8.124c0 .449.364.813.813.813h11.375a.813.813 0 0 0 .812-.813V8.938a.813.813 0 0 0-.813-.812z" fill="#777" fill-rule="nonzero"/><path stroke="#FFF" d="M5.691 9.806l7.316 3.358 7.39-3.358"/></g></svg><svg width="28" height="28" viewBox="-1 -1 28 28" id="26-oa" x="272" y="234"><title>Group 4 Copy</title><g fill="none" fill-rule="evenodd"><circle stroke="#999" cx="13" cy="13" r="12.5"/><path d="M12.926 7.222c3.578 0 6.426 2.374 6.426 5.222 0 2.848-2.848 5.22-6.426 5.22a7.751 7.751 0 0 1-2.038-.268l-.322-.096-.275-.089-1.827.731.363-1.455-.402-.322c-1.23-.982-1.925-2.312-1.925-3.721 0-2.848 2.848-5.222 6.426-5.222zm2.41 3.213a.803.803 0 1 0 0 1.607.803.803 0 0 0 0-1.607zm-4.82 0a.803.803 0 1 0 0 1.607.803.803 0 0 0 0-1.607z" fill="#777"/></g></svg><svg width="28" height="28" viewBox="-1 -1 28 28" id="26-qq" x="288" y="272"><title>Group 2</title><g fill="none" fill-rule="evenodd"><circle stroke="#999" cx="13" cy="13" r="12.5"/><path d="M18.403 14.687c-.115-.342-.272-.74-.43-1.124l-.58-1.338c0-.016.008-.279.008-.415 0-2.288-1.168-4.588-4.04-4.588s-4.04 2.3-4.04 4.588c0 .136.007.4.007.415l-.579 1.338c-.159.383-.316.782-.43 1.123-.548 1.63-.37 2.306-.236 2.32.29.033 1.13-1.227 1.13-1.227 0 .73.407 1.682 1.285 2.37-.328.093-.731.237-.99.414-.233.159-.203.32-.162.387.185.288 3.159.184 4.017.094.858.09 3.832.194 4.016-.094.042-.065.071-.227-.161-.387-.259-.177-.662-.321-.991-.415.88-.687 1.285-1.64 1.285-2.369 0 0 .837 1.26 1.13 1.228.131-.015.309-.69-.239-2.32z" fill="#777" fill-rule="nonzero"/></g></svg><svg width="14" height="9" viewBox="-1 -1 14 9" id="arrow-down" x="144" y="113"><title>Shape Copy 5</title><path d="M1.41 0L6 4.327 10.59 0 12 1.332 6 7 0 1.332z" fill="#999" fill-rule="evenodd"/></svg><svg data-name="图层 1" width="18" height="18" viewBox="-1 -1 18 18" id="c" x="287" y="162"><title>复-常态</title><path fill="#fff" d="M.5.5h15v15H.5z"/><path d="M15 1v14H1V1h14m1-1H0v16h16V0z" fill="#ddd"/></svg><svg data-name="图层 1" width="18" height="18" viewBox="-1 -1 18 18" id="c-c" x="215" y="72"><title>复-选中</title><path d="M0 0h16v16H0z" fill="#00a4ff"/><path fill="#fff" d="M13.8 5.4L12.5 4l-6 6.3-2.4-2.5-1.3 1.4 2.4 2.4L6.5 13l1.3-1.4 6-6.2z"/></svg><svg data-name="图层 1" width="18" height="18" viewBox="-1 -1 18 18" id="c-d" x="287" y="144"><title>复-不可点</title><path fill="#f7f8fa" d="M.5.5h15v15H.5z"/><path d="M15 1v14H1V1h14m1-1H0v16h16V0z" fill="#ddd"/></svg><svg width="14" height="14" viewBox="-1 -1 14 14" id="close" x="287" y="180"><title>Combined Shape</title><path d="M6.657 5.95l5.242 5.242-.707.707L5.95 6.657.707 11.899 0 11.192 5.243 5.95 0 .707.707 0 5.95 5.243 11.192 0l.707.707z" fill="#999" fill-rule="evenodd"/></svg><svg data-name="图层 1" width="50" height="50" viewBox="-1 -1 50 50" id="doc" y="272"><title>icon-01-01</title><g fill="#7c848e"><path d="M17 22.02h8v2h-8zm0 8h13.968v2H17zm0-4h13.968v2H17z"/><path d="M24 3A21 21 0 1 1 3 24 21.024 21.024 0 0 1 24 3m0-2a23 23 0 1 0 23 23A23 23 0 0 0 24 1z"/><path d="M34.966 19L28 12.034V12H14a1 1 0 0 0-1 1v22a1 1 0 0 0 1 1h20a1 1 0 0 0 1-1V19zM33 34H15V14h11v4a3 3 0 0 0 3 3h4zm-4-15a1 1 0 0 1-1-1v-3.138L32.138 19z"/></g></svg><svg data-name="图层 1" width="50" height="50" viewBox="-1 -1 50 50" id="edit" x="237" y="144"><title>icon-02-01</title><path d="M24 3A21 21 0 1 1 3 24 21 21 0 0 1 24 3m0-2a23 23 0 1 0 23 23A23 23 0 0 0 24 1z" fill="#7c848e"/><path d="M32.186 12.011a1 1 0 0 0-.707.293L20.872 22.91l-.015-.015L19.45 24.3v4.26h4.228l.008-.008.015.015 12.02-12.021a1 1 0 0 0 0-1.414L32.893 12.3a1 1 0 0 0-.707-.293zM21.45 26.56v-1.4l10.736-10.735 1.414 1.414L22.879 26.56z" fill="#7c848e"/><path d="M24 14H13a1 1 0 0 0-1 1v20a1 1 0 0 0 1 1h20a1 1 0 0 0 1-1V24h-2v10H14V16h10z" fill="#7c848e"/></svg><svg width="34" height="34" viewBox="-1 -1 34 34" id="email" x="186" y="272"><title>Group 5</title><g fill="none" fill-rule="evenodd"><circle fill="#00A4FF" cx="16" cy="16" r="16"/><path d="M23 10H9a1 1 0 0 0-1 1v10a1 1 0 0 0 1 1h14a1 1 0 0 0 1-1V11a1 1 0 0 0-1-1z" fill="#FFF" fill-rule="nonzero"/><path stroke="#00A4FF" d="M7.005 12.07l9.004 4.132 9.096-4.133"/></g></svg><svg width="11" height="16" viewBox="-1 -1 11 16" id="go-#00a4ff" x="226" y="90"><style>.alst0{fill:#00a4ff}</style><path class="alst0" d="M7.192 0L0 7l1.308 1.273L7.192 14 8.5 12.727 2.616 7 8.5 1.273z"/></svg><svg width="11" height="16" viewBox="-1 -1 11 16" id="go-#999" x="215" y="90"><style>.amst0{fill:#999}</style><path class="amst0" d="M7.192 0L0 7l1.308 1.273L7.192 14 8.5 12.727 2.616 7 8.5 1.273z"/></svg><svg width="72" height="72" viewBox="-1 -1 72 72" id="icon-64-face" x="165"><title>Oval</title><g fill="none" fill-rule="evenodd"><circle stroke="#00A4FF" stroke-width="3" cx="35" cy="35" r="33.5"/><path d="M21 22v7h-3V19h10v3h-7zm28 0v7h3V19H42v3h7zM21 42v-7h-3v10h9v-3h-6zm28 0v-7h3v10h-9v-3h6z" fill="#00A4FF"/><circle stroke="#00A4FF" stroke-width="3" cx="35" cy="32" r="7.5"/><path d="M50 54h-3c0-6.627-5.373-12-12-12s-12 5.373-12 12h-3c0-8.284 6.716-15 15-15 8.284 0 15 6.716 15 15z" fill="#00A4FF" fill-rule="nonzero"/></g></svg><svg width="72" height="72" viewBox="-1 -1 72 72" id="icon-64-online" y="128"><title>Fill 1</title><g fill="#00A4FF" fill-rule="evenodd"><path d="M35.5.5C16.17.5.5 16.17.5 35.5s15.67 35 35 35 35-15.67 35-35-15.67-35-35-35m0 3.043c17.62 0 31.957 14.337 31.957 31.957S53.12 67.457 35.5 67.457C17.878 67.457 3.543 53.12 3.543 35.5S17.878 3.543 35.5 3.543" transform="translate(-.5 -.5)"/><path d="M17.5 46.506h36V20.5h-36v26.006zm3-3.009h30V23.5h-30v19.997zm5.022 9.006h19.983v-3.002H25.522z" transform="translate(-.5 -.5)"/><path d="M34 51.187h3v-6h-3zm-.069-10.937l-6.775-6.914 2.077-2.085 4.698 4.68 9.149-9.914 2.076 2.233z" transform="translate(-.5 -.5)"/></g></svg><svg width="72" height="72" viewBox="-1 -1 72 72" id="icon-account-failure" x="72" y="128"><title>登陆失败</title><g fill="none" fill-rule="evenodd"><path fill="#00A4FF" d="M16.5 0L33 26H0z" transform="translate(37 8)"/><path d="M53.5 9.866L38.819 33h29.362L53.5 9.866z" stroke="#334966" stroke-width="2"/><path fill="#FFF" d="M15.321 11.818h2.357v5.909h-2.357zm-.159 7.01h2.676v2.69h-2.676z" transform="translate(37 8)"/><path d="M46.7 2.571H5.082v36h50.834V28.325h2.541v10.246H61v2.572H0V38.57h2.542v-36H0V0h48.317l-1.618 2.571zM29.23 51.43v-5.143H12.707v-2.572h35.584v2.572H31.77v5.143h3.812V54H25.417v-2.571h3.812z" fill="#334966" transform="translate(0 8)"/><path fill="#00A4FF" d="M11 10h22v4H11zm0 9h22v4H11zm0 9h22v4H11z" transform="translate(0 8)"/></g></svg><svg width="34" height="34" viewBox="-1 -1 34 34" id="icon-complete" x="118" y="272"><title>Oval</title><g fill="none" fill-rule="evenodd"><g fill="#0ABF5B"><path d="M.464 4.293L1.88 2.879l5.656 5.656L6.121 9.95z" transform="translate(9 11)"/><path d="M13.192.05l1.415 1.415L6.12 9.95 4.707 8.536z" transform="translate(9 11)"/></g><circle stroke="#0ABF5B" stroke-width="2" cx="16" cy="16" r="15"/></g></svg><svg id="icon-confirm" viewBox="-1 -1 26 26" width="26" height="26" x="104" y="322"><style>.arst0{fill-rule:evenodd;clip-rule:evenodd;fill:#2277da}</style><g id="arXMLID_2_"><g id="arXMLID_38_"><path id="arXMLID_39_" class="arst0" d="M12 0C5.4 0 0 5.4 0 12s5.4 12 12 12 12-5.4 12-12S18.6 0 12 0zm0 23C5.9 23 1 18.1 1 12S5.9 1 12 1s11 4.9 11 11-4.9 11-11 11zm-1.1-7.9l-4.2-4.2-.7.7 4.2 4.2.7.7.7-.7L18 9.4l-.7-.7-6.4 6.4z"/></g></g></svg><svg width="20" height="20" viewBox="-1 -1 20 20" id="icon-data" x="331" y="250"><title>形状</title><path d="M16.875 18H1.125A1.125 1.125 0 0 1 0 16.875V2.809c0-.621.504-1.125 1.125-1.125h15.75c.621 0 1.125.504 1.125 1.125v14.066c0 .621-.504 1.125-1.125 1.125zm0-15.191H1.125v14.066h15.75V2.809zm-10.129.567a.563.563 0 0 1-1.125 0V.563a.563.563 0 1 1 1.125 0v2.813zm5.625 0a.562.562 0 0 1-1.125 0V.563a.563.563 0 0 1 1.125 0v2.813zm.567 3.371h1.125c.31 0 .562.252.562.563v1.125c0 .31-.252.563-.562.563h-1.125a.563.563 0 0 1-.563-.563V7.31c0-.31.252-.563.563-.563zm0 4.501h1.125c.31 0 .562.252.562.563v1.125a.563.563 0 0 1-.562.563h-1.125a.563.563 0 0 1-.563-.563v-1.125c0-.31.252-.563.563-.563zm-4.5 0h1.125c.31 0 .562.252.562.563v1.125a.563.563 0 0 1-.562.563H8.437a.563.563 0 0 1-.562-.563v-1.125c0-.31.252-.563.562-.563zm0-4.5h1.125c.31 0 .562.251.562.562v1.125c0 .31-.252.563-.562.563H8.437a.563.563 0 0 1-.562-.563V7.31c0-.31.252-.563.562-.563zm-4.5 0h1.125c.31 0 .562.251.562.562v1.125c0 .31-.252.563-.562.563H3.938a.563.563 0 0 1-.563-.563V7.31c0-.31.252-.563.563-.563zm0 4.5h1.125c.31 0 .562.252.562.563v1.125a.563.563 0 0 1-.562.563H3.938a.563.563 0 0 1-.563-.563v-1.125c0-.31.252-.563.563-.563z" fill="#333"/></svg><svg width="34" height="34" viewBox="-1 -1 34 34" id="icon-error" x="50" y="272"><title>Oval</title><g fill="none" fill-rule="evenodd"><path fill="#F0B64B" d="M15 7h2v12h-2zm0 15h2v2h-2z"/><circle stroke="#F0B64B" stroke-width="2" cx="16" cy="16" r="15"/></g></svg><svg width="15" height="15" viewBox="-1 -1 15 15" id="icon-links-g" x="144" y="56"><title>Combined Shape</title><path d="M12 11V7h1v4a2 2 0 0 1-2 2H2a2 2 0 0 1-2-2V2a2 2 0 0 1 2-2h4v1H2c-.551 0-1 .449-1 1v9c0 .551.449 1 1 1h9c.551 0 1-.449 1-1zm0-11h1v5h-1V1.707L5.707 8 5 7.293 11.293 1H8V0h4z" fill="#666" fill-rule="evenodd"/></svg><svg width="72" height="72" viewBox="-1 -1 72 72" id="icon-not-found" y="200"><title>服务器错误</title><g fill="none" fill-rule="evenodd"><path fill="#334966" d="M0 0h68v2.833H0zm0 42.5h68v2.833H0zm32.583 14.167V51H14.167v-2.833h39.666V51H35.417v5.667h4.25V59.5H28.333v-2.833h4.25z" transform="translate(1 5)"/><path fill="#334966" d="M2.833 0h2.833v45.333H2.833zm59.5 0h2.833v45.333h-2.833z" transform="translate(1 5)"/><path fill="#00A4FF" d="M8.5 9.917h51v25.5h-51z" transform="translate(1 5)"/><text font-family="ArialMT, Arial" font-size="20" fill="#FFF" transform="translate(1 5)"><tspan x="17.815" y="30">404</tspan></text></g></svg><svg width="34" height="34" viewBox="-1 -1 34 34" id="icon-panding" x="272" y="200"><title>Group 6 Copy</title><g fill="none" fill-rule="evenodd"><path fill="#00A4FF" d="M14 9h2v10h-2z"/><path fill="#00A4FF" d="M24 17v2H14v-2z"/><circle stroke="#00A4FF" stroke-width="2" cx="16" cy="16" r="15"/></g></svg><svg width="72" height="72" viewBox="-1 -1 72 72" id="icon-permission-denied" x="72" y="200"><title>账号访问</title><g fill="none" fill-rule="evenodd"><g fill="#334966"><path d="M0 0h68v2.833H0zm0 42.5h68v2.833H0zm32.583 14.167V51H14.167v-2.833h39.666V51H35.417v5.667h4.25V59.5H28.333v-2.833h4.25z" transform="translate(1 5)"/><path d="M2.833 0h2.833v45.333H2.833zm59.5 0h2.833v45.333h-2.833z" transform="translate(1 5)"/></g><path fill="#00A4FF" d="M5 27h16V15H5z" transform="translate(24 14)"/><path d="M0 27h21V10H0v17zm2.333-2.429h16.334V12.43H2.333v12.14z" fill="#334966" transform="translate(24 14)"/><path d="M11 0C7.135 0 4 3.176 4 7.09V13h14V7.09C18 3.177 14.865 0 11 0m0 2.364c2.572 0 4.667 2.12 4.667 4.727v3.545H6.333V7.091c0-2.607 2.095-4.727 4.667-4.727" fill="#334966" transform="translate(24 14)"/></g></svg><svg width="62" height="68" viewBox="-1 -1 62 68" id="icon-promise" x="144" y="200"><title>Group</title><g transform="translate(-2)" fill="none" fill-rule="evenodd"><path fill-rule="nonzero" d="M0 1h64v64H0z"/><path d="M30 .86l.48.263 2.8 1.533a62.574 62.574 0 0 0 23.82 7.39l.9.091v25.447a18.076 18.076 0 0 0-1.999-1.552L56 11.94a64.577 64.577 0 0 1-23.68-7.53L30 3.14l-2.32 1.27A64.577 64.577 0 0 1 4 11.94v26.91c0 6.355 3.512 12.185 9.114 15.134L30 62.87l2.9-1.525c.484.513.997.997 1.538 1.45L30 65.13l-.466-.245-17.352-9.13C5.922 52.458 2 45.946 2 38.85V10.137l.9-.09a62.574 62.574 0 0 0 23.82-7.39L30 .86z" fill="#334966" fill-rule="nonzero"/><path d="M30 15c-3.865 0-7 2.931-7 6.545V27h14v-5.455C37 17.931 33.865 15 30 15" stroke="#334966" stroke-width="2"/><path d="M42 26v13h-2V28H20v14h16v2H18V26h24z" fill="#334966" fill-rule="nonzero"/><circle stroke="#334966" stroke-width="2" fill-rule="nonzero" cx="46" cy="49" r="15"/><path d="M46 35c7.732 0 14 6.268 14 14s-6.268 14-14 14-14-6.268-14-14 6.268-14 14-14zm-4.803 13.646l-2.122 2.122a4 4 0 1 0 5.657 5.657l2.122-2.122-1.415-1.414-2.121 2.121a2 2 0 1 1-2.828-2.828l2.12-2.121-1.413-1.415zm.707-4.95l-1.414 1.415 9.9 9.9 1.413-1.415-9.9-9.9zm12.02-2.12a4 4 0 0 0-5.656 0l-2.829 2.828 1.415 1.414 2.828-2.828a2 2 0 1 1 2.828 2.828l-2.828 2.828 1.414 1.415 2.829-2.829a4 4 0 0 0 0-5.657z" fill="#00A4FF" fill-rule="nonzero"/><circle fill="#00A4FF" fill-rule="nonzero" cx="30" cy="33" r="2"/><path fill="#00A4FF" fill-rule="nonzero" d="M29 34h2v5h-2z"/></g></svg><svg width="72" height="72" viewBox="-1 -1 72 72" id="icon-server-failure" x="237" y="72"><title>服务器错误</title><g fill="none" fill-rule="evenodd"><path d="M20 63.09V66h-7v-8.727h2.933v5.818H20zm31 0h3.067v-8.726H57V66h-6v-2.91zm-38-8.726h2.933H13zm44-43.637h-2.933V4.91H15.933v8.727H13V2h44v8.727zm-2.933 2.91H57h-2.933z" fill="#334966" fill-rule="nonzero"/><path fill="#00A4FF" d="M12 0l12 21H0z" transform="translate(23 47)"/><path d="M35 49.016L24.723 67h20.554L35 49.016z" stroke="#334966" stroke-width="2"/><path fill="#FFF" d="M11.143 9.545h1.714v4.773h-1.714zM11 16h2v2h-2z" transform="translate(23 47)"/><path d="M0 13.654h29.135v40.789H0V13.654zm2.913 2.913V51.53h23.308V16.567H2.913zm37.876-2.913h29.135v40.789H40.789V13.654zm2.913 2.913V51.53H67.01V16.567H43.702z" fill="#334966" fill-rule="nonzero"/><path fill="#00A4FF" d="M6 19h17v12H6zm41 0h17v12H47zM6 34h17v3H6zm41 0h17v3H47zM6 40h17v3H6zm41 0h17v3H47zM6 46h17v3H6zm41 0h17v3H47z"/></g></svg><svg width="72" height="72" viewBox="-1 -1 72 72" id="icon-server-unavailable" x="237"><title>服务器维护</title><g transform="translate(9 5)" fill="none" fill-rule="evenodd"><circle fill="#00A4FF" cx="25" cy="33" r="15"/><path d="M9.596 48.333a21.801 21.801 0 0 0 7.92 4.953l14.542-23.27.516-.03c.56-.034 1.12-.114 1.676-.242 5.38-1.243 8.736-6.612 7.494-11.994a9.998 9.998 0 0 0-1.117-2.813l-3.667 5.68-4.992.024-2.247-4.256 4.397-6.16a9.96 9.96 0 0 0-4.368.031c-5.38 1.243-8.736 6.612-7.494 11.994a9.99 9.99 0 0 0 1.176 2.912l.316.526L9.596 48.333z" stroke="#334966" stroke-width="2"/><path d="M26.364 1.15L1 15.583v28.836L26.364 58.85l25.363-14.43V15.581L26.364 1.15z" stroke="#334966" stroke-width="2"/></g></svg><svg width="72" height="72" viewBox="-1 -1 72 72" id="icon-status-code" y="56"><title>服务器错误</title><g fill="none" fill-rule="evenodd"><path fill="#334966" d="M0 0h68v2.833H0zm0 42.5h68v2.833H0zm32.583 14.167V51H14.167v-2.833h39.666V51H35.417v5.667h4.25V59.5H28.333v-2.833h4.25z" transform="translate(1 5)"/><path fill="#334966" d="M2.833 0h2.833v45.333H2.833zm59.5 0h2.833v45.333h-2.833z" transform="translate(1 5)"/><path fill="#00A4FF" d="M8.5 9.917h51v25.5h-51z" transform="translate(1 5)"/></g></svg><svg width="9" height="14" viewBox="-1 -1 9 14" id="icon-step-arrow" x="153" y="99"><title>Shape Copy 28</title><path d="M0 10.59L4.327 6 0 1.41 1.332 0 7 6l-5.668 6z" fill="#999" fill-rule="evenodd"/></svg><svg width="9" height="14" viewBox="-1 -1 9 14" id="icon-step-arrow-#00a4ff" x="144" y="99"><path d="M0 10.59L4.327 6 0 1.41 1.332 0 7 6l-5.668 6z" fill="#00a4ff" fill-rule="evenodd"/></svg><svg width="31" height="30" viewBox="-1 -1 31 30" id="icon-sx" x="108" y="26"><title>Combined Shape</title><path d="M14 0c5.132 0 9.62 2.762 12.057 6.88l2.757-1.698.058 9.178L21 9.997l3.353-2.067-.122-.204A11.993 11.993 0 0 0 14 2C7.373 2 2 7.373 2 14s5.373 12 12 12c5.591 0 10.29-3.824 11.622-9h2.056C26.304 23.29 20.702 28 14 28 6.268 28 0 21.732 0 14S6.268 0 14 0z" fill="#334966"/></svg><svg width="66" height="66" viewBox="-1 -1 66 66" id="icon-unauthorized" x="206" y="200"><title>Artboard Copy 3</title><g fill="none" fill-rule="evenodd"><path fill-rule="nonzero" d="M0 0h64v64H0z"/><path d="M39.31 52c.447.709.953 1.378 1.51 2H0V0h64v34.999a15.088 15.088 0 0 0-2-2.18V2H2v50h37.31z" fill="#334966" fill-rule="nonzero" transform="translate(0 5)"/><path d="M52 32c-6.627 0-12 5.373-12 12s5.373 12 12 12 12-5.373 12-12-5.373-12-12-12" fill="#334966" transform="translate(0 5)"/><path d="M52 54c-5.523 0-10-4.477-10-10s4.477-10 10-10 10 4.477 10 10a10 10 0 0 1-10 10" fill="#00A4FF" transform="translate(0 5)"/><path fill="#FFF" d="M55.533 39.05l-3.537 3.536-3.537-3.537-1.41 1.41 3.537 3.537-3.537 3.537 1.41 1.41 3.537-3.537 3.537 3.537 1.41-1.41-3.537-3.537 3.537-3.537z" transform="translate(0 5)"/><path fill="#00A4FF" fill-rule="nonzero" d="M36 24h20v3H36zm0-6h20v3H36zm0-6h20v3H36z" transform="translate(0 5)"/><path d="M19 15a7.001 7.001 0 0 0 0 14 7.001 7.001 0 0 0 0-14" stroke="#334966" stroke-width="2" fill-rule="nonzero"/><path d="M32.948 46c.028-.416.052-.833.052-1.259C33 36.6 27.628 30 21 30S9 36.6 9 44.741c0 .426.023.843.052 1.259h23.896z" fill="#00A4FF" transform="translate(0 5)"/><path d="M19 33c-7.18 0-13 7.013-13 15.662 0 .453.025.897.056 1.338h25.888c.031-.44.056-.885.056-1.338C32 40.012 26.18 33 19 33" stroke="#334966" stroke-width="2" fill-rule="nonzero"/></g></svg><svg id="icon-warn" viewBox="-1 -1 26 26" width="26" height="26" x="139" y="26"><style>.bgst0{fill-rule:evenodd;clip-rule:evenodd;fill:#ed711f}</style><g id="bgXMLID_2_"><g id="bgXMLID_44_"><path id="bgXMLID_45_" class="bgst0" d="M11 14h2V6h-2v8zm1-14C5.4 0 0 5.4 0 12s5.4 12 12 12 12-5.4 12-12S18.6 0 12 0zm0 23C5.9 23 1 18.1 1 12S5.9 1 12 1s11 4.9 11 11-4.9 11-11 11zm-1-5h2v-2h-2v2z"/></g></g></svg><svg width="72" height="72" viewBox="-1 -1 72 72" id="icon-wechat-failure" x="72" y="56"><title>微信登陆失败</title><g fill="none" fill-rule="evenodd"><path fill="#00A4FF" d="M12 0l12 21H0z" transform="translate(24 47)"/><path d="M36 49.016L25.723 67h20.554L36 49.016z" stroke="#334966" stroke-width="2"/><path fill="#FFF" d="M11.143 9.545h1.714v4.773h-1.714zM11 16h2v2h-2z" transform="translate(24 47)"/><path d="M46.364 0H60v13.636h-2.727V2.727h-10.91V0zM13.636 0v2.727H2.727v10.91H0V0h13.636zm32.728 58.636V55.91h10.909V45H60v13.636H46.364zM13.636 60H0V46.364h2.727v10.909h10.91V60z" fill="#334966" fill-rule="nonzero" transform="translate(5 2)"/><path fill="#00A4FF" d="M0 27.909h60V32H0z" transform="translate(5 2)"/><g fill="#334966"><path d="M4.09 20.864v5.045l3.955-2.59c1.364.545 2.728.954 4.228 1.091v-2.727c-5.455-.82-9.546-4.638-9.546-9.41 0-5.318 5.182-9.546 11.591-9.546 4.637 0 8.591 2.182 10.5 5.455h3C25.91 3.409 20.591 0 14.318 0 6.41 0 0 5.455 0 12.273c0 3.409 1.5 6.409 4.09 8.59" transform="translate(15.91 15.636)"/><path d="M17.727 8.182c0-.818-.545-1.364-1.363-1.364-.819 0-1.364.546-1.364 1.364 0 .818.545 1.364 1.364 1.364.818 0 1.363-.546 1.363-1.364m-9.545 0c0 .818.545 1.364 1.363 1.364.819 0 1.364-.546 1.364-1.364 0-.818-.545-1.364-1.364-1.364-.818 0-1.363.546-1.363 1.364m22.545 10c0-.818-.545-1.364-1.363-1.364-.819 0-1.364.546-1.364 1.364 0 .818.545 1.364 1.364 1.364.818 0 1.363-.546 1.363-1.364m-9.545 0c0 .818.545 1.364 1.363 1.364.819 0 1.364-.546 1.364-1.364 0-.818-.545-1.364-1.364-1.364-.818 0-1.363.546-1.363 1.364" transform="translate(15.91 15.636)"/><path d="M25.91 27.273c-5.32 0-9.546-3.41-9.546-7.5s4.227-7.5 9.545-7.5 9.546 3.41 9.546 7.5-4.228 7.5-9.546 7.5m0-17.727c-6.818 0-12.273 4.636-12.273 10.227C13.636 25.363 19.091 30 25.91 30c1.364 0 2.591-.136 3.818-.545l4.364 3.273v-5.319c2.454-1.909 4.09-4.636 4.09-7.636 0-5.59-5.454-10.227-12.272-10.227" fill-rule="nonzero" transform="translate(15.91 15.636)"/></g></g></svg><svg width="72" height="72" viewBox="-1 -1 72 72" id="icon-wechatOA-failure" x="144" y="128"><title>微信公众号登陆失败</title><g fill="none" fill-rule="evenodd"><path fill="#00A4FF" d="M12 0l12 21H0z" transform="translate(24 47)"/><path d="M36 49.016L25.723 67h20.554L36 49.016z" stroke="#334966" stroke-width="2"/><path fill="#FFF" d="M11.143 9.545h1.714v4.773h-1.714zM11 16h2v2h-2z" transform="translate(24 47)"/><path d="M51.364 2H65v13.636h-2.727V4.727h-10.91V2zM18.636 2v2.727H7.727v10.91H5V2h13.636zm32.728 58.636V57.91h10.909V47H65v13.636H51.364zM18.636 62H5V48.364h2.727v10.909h10.91V62z" fill="#334966" fill-rule="nonzero"/><path fill="#00A4FF" d="M5 29.909h60V34H5z"/><g><path d="M30.143 40.296l.665.207c1.795.56 3.716.85 5.692.85 8.63 0 15.5-5.535 15.5-12.176C52 22.535 45.13 17 36.5 17 27.87 17 21 22.535 21 29.177c0 3.286 1.677 6.387 4.642 8.678l.972.751L25.736 42l4.407-1.704z" stroke="#334966" stroke-width="3"/><path d="M20.734 10.178c0-.89-.604-1.482-1.51-1.482s-1.51.593-1.51 1.482c0 .89.604 1.482 1.51 1.482s1.51-.593 1.51-1.482m-10.77 0c0 .89.604 1.482 1.51 1.482s1.51-.593 1.51-1.482c0-.89-.604-1.482-1.51-1.482s-1.51.593-1.51 1.482" fill="#334966" transform="translate(21 17)"/></g></g></svg><svg width="12" height="12" viewBox="-1 -1 12 12" id="link" x="216" y="128"><title>Combined Shape</title><path d="M0 0h3v1H1v8h8V6.999h1V10H0V0zm5.001 0H10v5L7.853 2.853 4.38 6.328l-.708-.707 3.476-3.475L5.001 0z" fill="#00A4FF" fill-rule="evenodd"/></svg><svg width="108" height="30" viewBox="-1 -1 108 30" id="logo" y="26"><title>Group 4 Copy 17</title><g fill="none" fill-rule="evenodd"><g fill="#000"><path d="M40.061 1.154H28.157v1.62h3.584v5.903h-4.107v1.62h4.107v9.9h1.895v-9.9h4.53v9.693h3.578v-1.62h-1.683V1.153zm-6.425 7.523h4.53V2.773h-4.53v5.904zM7.643 17.312h9.408V15.58H7.643zM.774 12.713V1.154h5.693v19.043h-2.98l-.46-1.466c-.043-.113.02-.165.101-.165h1.668v-5.07H2.448c-.01 1.65-.083 3.923-.644 6.663H.124c-.1 0-.157-.05-.104-.234.507-1.995.754-4.246.754-7.212zm1.675-.685h2.347V8.125H2.449v3.903zm0-5.37h2.347V2.784H2.449v3.872z" transform="translate(43.355 4.516)"/><path d="M17.81 7.564h2.335V6.072h-6.803c.205-.477.39-.988.559-1.541h5.818V3.039h-1.705l.639-2.073c.034-.11-.027-.153-.102-.153H17.07l-.686 2.226h-2.093a37.27 37.27 0 0 0 .52-2.89C14.829.025 14.759 0 14.672 0h-1.685c-.172 1.14-.352 2.12-.583 3.039h-1.027L10.69.813H9.21c-.076 0-.137.043-.103.153l.638 2.073h-1.66V4.53h3.877a13.892 13.892 0 0 1-.637 1.541H7.66v1.492h2.754c-1.11 1.502-2.297 2.194-2.77 2.47v1.706c0 .086.07.178.354.025a15.904 15.904 0 0 0 1.62-.985h6.477l-.055 2.234h-5.113l.077-1.336c0-.058-.043-.1-.105-.1H9.263l-.165 2.827c0 .057.045.1.107.1h8.822v4.035h-3.976c-.084 0-.15.052-.105.167l.476 1.49h5.518v-7.183h-2.16l.071-2.901a12.625 12.625 0 0 0 2.373 1.652c.283.153.354.061.354-.025v-1.706a8.838 8.838 0 0 1-2.768-2.47zm-2.128 0c.416.653.865 1.223 1.328 1.724h-5.693a10.57 10.57 0 0 0 1.268-1.724h3.097zm13.548 7.015l-3.134 2.27V6.348h-4.342v1.776h2.496v10.062l-.998.723 1.02 1.288 5.125-3.713v-1.83c0-.087-.1-.124-.167-.075m-4.314-9.963h2.027c.09 0 .126-.097.087-.157L24.473.577h-2.026c-.077 0-.133.088-.09.152l2.56 3.887M45.86 2.885h14.699v-1.73H45.86zm5.04 7.651h11.423v-1.88H43.508v1.88h5.22l-3.802 10.093c-.03.083.024.145.096.145H61.25c.076 0 .12-.077.093-.15l-2.42-6.428h-2.02a.104.104 0 0 0-.097.143l1.712 4.555h-10.76l3.142-8.358z" transform="translate(43.355 4.516)"/></g><path d="M32.87 22.108c-.67.67-1.864 1.432-3.824 1.5-.906.03-1.965.034-2.45.034H16.065l7.554-7.423a74.576 74.576 0 0 1 1.803-1.712c1.48-1.347 2.811-1.618 3.753-1.61a5.335 5.335 0 0 1 3.778 1.609c2.053 2.122 2.004 5.514-.082 7.602m2.523-10.019c-1.574-1.623-3.768-2.646-6.206-2.646-2.108 0-3.923.735-5.507 2.04-.691.57-1.416 1.25-2.327 2.146L7.774 26.96c.688.1 1.634.129 2.478.134.79.005 15.872.003 16.503.003 1.27 0 2.098 0 2.986-.067 2.037-.15 3.962-.906 5.517-2.451 3.455-3.432 3.507-9.002.135-12.489" fill="#00A4FF"/><path d="M14.057 11.198c-1.558-1.139-3.3-1.776-5.277-1.773a8.85 8.85 0 0 0-6.264 2.581c-3.403 3.4-3.35 8.833.136 12.18 1.4 1.344 3.096 2.075 4.904 2.322l3.41-3.236a74.511 74.511 0 0 1-2.044-.033c-1.979-.066-3.184-.808-3.86-1.462-2.105-2.036-2.154-5.344-.082-7.414a5.477 5.477 0 0 1 3.812-1.569c.934-.003 2.2.262 3.632 1.422.683.553 2.2 1.857 2.866 2.444.034.03.075.033.114 0l2.349-2.24c.04-.038.038-.09-.002-.125-1.13-.999-2.73-2.395-3.694-3.097" fill="#00C7D9"/><path d="M29.625 7.801C28.022 3.257 23.707 0 18.632 0 12.811 0 7.987 4.298 7.112 9.897c.47-.08.95-.121 1.441-.121a8.295 8.295 0 0 1 1.967.231l.037.007c.789-3.78 4.117-6.588 8.075-6.588 3.297 0 6.189 1.996 7.493 4.825.02.045.055.06.09.05.981-.27 2.157-.428 3.292-.344.11.008.153-.054.118-.156" fill="#006EFF"/></g></svg><svg width="165" height="26" viewBox="-1 -1 165 26" id="logo-en"><defs><path id="bla" d="M0 24h162.394V0H0z"/></defs><g fill="none" fill-rule="evenodd"><path fill="#000" d="M123.854 15.422c0-.092-.112-.136-.173-.068-1.112 1.233-2.803 2.27-4.95 2.27-3.187 0-5.246-2.208-5.246-5.624 0-3.481 1.962-5.644 5.12-5.644 1.836 0 3.75.881 4.895 2.073a.1.1 0 0 0 .171-.07V6.6c-1.29-1.167-3.162-1.87-5.067-1.87-1.983 0-3.662.696-4.856 2.011-1.182 1.303-1.806 3.122-1.806 5.26 0 4.348 2.728 7.27 6.789 7.27 1.937 0 3.829-.72 5.123-1.919v-1.929zM36.964 5.08v1.512h4.778V18.92h1.654V6.592h4.779V5.08zM160.7 13.811c0 1.882-1.098 3.786-3.196 3.786-1.575 0-3.27-1.16-3.27-3.707 0-1.872.992-3.887 3.172-3.887 2.43 0 3.293 2.052 3.293 3.808zm.043-4.043c-.856-.924-2.288-1.26-3.318-1.26-1.376 0-2.611.511-3.478 1.439-.892.954-1.363 2.276-1.363 3.825 0 3.677 2.451 5.323 4.88 5.323 1.42 0 2.59-.505 3.279-1.399v1.164h1.651V5.08h-1.651v4.688z"/><mask id="blb" fill="#fff"><use xlink:href="#bla"/></mask><path fill="#000" mask="url(#blb)" d="M126.131 18.92h1.752V5.08h-1.752zm-48.175-2.465a.1.1 0 0 0-.168-.075c-1.084.978-2.658 1.36-3.346 1.36-2.233 0-3.676-1.497-3.676-3.813s1.443-3.812 3.676-3.812c.69 0 2.216.193 3.348 1.169a.1.1 0 0 0 .166-.076V9.676c-.682-.43-2.118-1.092-3.602-1.092-3.085 0-5.157 2.147-5.157 5.343s2.072 5.343 5.157 5.343c1.275 0 2.524-.344 3.602-1.096v-1.72zm-22.925-3.482h-6.133l.003-.031a3.119 3.119 0 0 1 1.117-2.208 3.055 3.055 0 0 1 1.968-.69c1.79 0 2.957 1.11 3.044 2.899l.001.03zm1.094 3.163a.1.1 0 0 0-.18-.06c-.729.975-2.475 1.762-3.548 1.762-1.026 0-1.99-.343-2.517-.895-.64-.67-.986-1.592-.978-2.539h7.682v-.119c0-2.196-.37-3.442-1.317-4.442-.791-.836-1.88-1.26-3.237-1.26-2.874 0-4.73 2.086-4.73 5.318.104 3.362 1.988 5.37 5.038 5.37 1.454 0 2.685-.497 3.787-1.473v-1.662zm92.916-2.238c0 2.74-1.605 3.713-2.98 3.713-1.332 0-2.748-.907-2.748-2.589V8.76h-1.59v6.235c0 2.415 1.75 4.1 4.257 4.1 1.388 0 2.472-.46 3.16-1.336v1.1h1.517V8.758h-1.616v5.139zM63.168 8.584c-1.276 0-2.357.421-3.082 1.193v-.965H58.51V18.92h1.61v-5.76c0-.95.294-1.76.83-2.277.576-.558 1.289-.815 2.174-.789 1.262.038 2.535.862 2.535 2.62v6.206h1.61v-6.28c0-1.246-.4-2.284-1.158-3.002-.728-.69-1.746-1.054-2.944-1.054m23.922 4.389h-6.133l.002-.031a3.119 3.119 0 0 1 1.117-2.208c.53-.445 1.23-.69 1.969-.69 1.79 0 2.956 1.11 3.043 2.899l.002.03zm1.094 3.163a.1.1 0 0 0-.18-.06c-.73.975-2.475 1.762-3.549 1.762-1.025 0-1.99-.343-2.517-.895-.64-.67-.986-1.592-.978-2.539h7.682v-.119c0-2.196-.369-3.442-1.316-4.442-.792-.836-1.88-1.26-3.238-1.26-2.873 0-4.73 2.086-4.73 5.318.105 3.362 1.988 5.37 5.038 5.37 1.455 0 2.686-.497 3.788-1.473v-1.662zM95.4 8.584c-1.276 0-2.357.421-3.082 1.193v-.965h-1.574V18.92h1.61v-5.76c0-.95.294-1.76.83-2.277.576-.558 1.288-.815 2.174-.789 1.262.038 2.534.862 2.534 2.62v6.206h1.61v-6.28c0-1.246-.4-2.284-1.158-3.002-.728-.69-1.746-1.054-2.944-1.054m9.161 10.336c.979-.053 2.099-.471 2.099-.471v-1.526a.1.1 0 0 0-.134-.095c-.383.134-1.269.404-1.728.47-.169.026-.317.05-.428-.044-.073-.061-.11-.143-.11-.321v-6.804h2.95V8.655h-2.95V5.956h-1.675v2.699h-1.68v1.474h1.68v6.963c0 .6.185 1.063.549 1.378.34.296.837.45 1.427.45m26.945-5.004v-.003c.006-2.265 1.364-3.786 3.383-3.786 2.024 0 3.384 1.527 3.384 3.8 0 2.273-1.36 3.8-3.384 3.8-2.022 0-3.38-1.54-3.382-3.81m3.382-5.333c-2.933 0-4.905 2.147-4.905 5.343s1.972 5.343 4.905 5.343c2.934 0 4.906-2.147 4.906-5.343s-1.972-5.343-4.906-5.343"/><path fill="#00A1FF" d="M28.85 19.644c-.593.585-1.65 1.25-3.383 1.309a69.51 69.51 0 0 1-2.165.03h-9.315l6.68-6.481c.308-.299 1-.959 1.595-1.495 1.308-1.177 2.486-1.414 3.319-1.406a4.747 4.747 0 0 1 3.34 1.404c1.816 1.853 1.773 4.815-.072 6.64m2.231-8.75a7.67 7.67 0 0 0-5.488-2.311c-1.864 0-3.469.642-4.87 1.782-.61.497-1.252 1.092-2.057 1.874L6.657 23.88c.608.086 1.445.112 2.191.117.7.004 14.035.003 14.594.003 1.123 0 1.855-.001 2.64-.059 1.801-.131 3.503-.791 4.88-2.14a7.7 7.7 0 0 0 .118-10.906" mask="url(#blb)"/><path fill="#00C4D6" d="M12.325 10.166C10.959 9.15 9.43 8.582 7.698 8.584a7.69 7.69 0 0 0-5.492 2.303 7.65 7.65 0 0 0 .12 10.867c1.227 1.199 2.714 1.85 4.3 2.07l2.99-2.886a66.935 66.935 0 0 1-1.794-.029c-1.734-.059-2.79-.72-3.383-1.304-1.846-1.818-1.889-4.769-.073-6.616a4.761 4.761 0 0 1 3.343-1.399c.819-.003 1.93.233 3.184 1.268.6.494 1.93 1.658 2.513 2.18.03.027.066.03.1.002l2.06-2c.035-.033.033-.08-.002-.112-.99-.89-2.394-2.136-3.24-2.762" mask="url(#blb)"/><path fill="#006EFF" d="M26.442 6.824A10.336 10.336 0 0 0 16.695 0c-5.16 0-9.439 3.76-10.213 8.657a7.677 7.677 0 0 1 3.021.096l.033.006c.7-3.307 3.65-5.762 7.16-5.762a7.367 7.367 0 0 1 6.642 4.22c.018.04.05.052.08.044a8.936 8.936 0 0 1 2.92-.301c.097.007.135-.047.104-.136" mask="url(#blb)"/></g></svg><svg id="m-icon-confirm" viewBox="-1 -1 26 26" width="26" height="26" x="26" y="322"><style>.bmst0{fill-rule:evenodd;clip-rule:evenodd;fill:#fff}</style><g id="bmXMLID_2_"><g id="bmXMLID_38_"><path id="bmXMLID_39_" class="bmst0" d="M12 0C5.4 0 0 5.4 0 12s5.4 12 12 12 12-5.4 12-12S18.6 0 12 0zm0 23C5.9 23 1 18.1 1 12S5.9 1 12 1s11 4.9 11 11-4.9 11-11 11zm-1.1-7.9l-4.2-4.2-.7.7 4.2 4.2.7.7L18 9.4l-.7-.7-6.4 6.4z"/></g></g></svg><svg id="m-icon-warn" viewBox="-1 -1 26 26" width="26" height="26" x="52" y="322"><style>.bnst0{fill-rule:evenodd;clip-rule:evenodd;fill:#fff}</style><g id="bnXMLID_2_"><g id="bnXMLID_44_"><path id="bnXMLID_45_" class="bnst0" d="M11 14h2V6h-2v8zm1-14C5.4 0 0 5.4 0 12s5.4 12 12 12 12-5.4 12-12S18.6 0 12 0zm0 23C5.9 23 1 18.1 1 12S5.9 1 12 1s11 4.9 11 11-4.9 11-11 11zm-1-5h2v-2h-2v2z"/></g></g></svg><svg width="50" height="50" viewBox="-1 -1 50 50" id="mail" x="309"><title>Artboard</title><defs><path id="boa" d="M0 48h48V0H0z"/></defs><g fill="none" fill-rule="evenodd"><path d="M24 0C10.745 0 0 10.746 0 24s10.745 24 24 24 24-10.746 24-24S37.255 0 24 0m.087 2.087c12.131 0 22 9.87 22 22s-9.869 22-22 22-22-9.87-22-22 9.869-22 22-22" fill="#7C848E"/><path d="M36 15H12v1.831L24 27l12-10.169V15zm-3.293 2L24 24.379 15.293 17h17.414z" fill="#7C848E"/><mask id="bob" fill="#fff"><use xlink:href="#boa"/></mask><path d="M12 33h24V15H12v18zm2-2h20V17H14v14z" fill="#7C848E" mask="url(#bob)"/><path fill="#7C848E" mask="url(#bob)" d="M20.306 23.13L12 30.17V31h2.113l7.807-6.615zm5.774 1.254L33.887 31H36v-.831l-8.306-7.038z"/></g></svg><svg width="14" height="14" viewBox="-1 -1 14 14" id="normal" x="144" y="85"><title>Group 12</title><g fill="none" fill-rule="evenodd"><circle stroke="#999" cx="6" cy="6" r="5.5"/><path fill="#999" fill-rule="nonzero" d="M5.39 7.543l3.605-3.536.707.707-4.316 4.234-2.831-2.826.707-.707z"/></g></svg><svg width="22" height="22" viewBox="-1 -1 22 22" id="num" x="309" y="250"><title>Group 2</title><g fill="none" fill-rule="evenodd"><circle fill="#00A4FF" cx="10" cy="10" r="10"/><path d="M8.5 12.223l5.4-5.395 1.414 1.415-5.4 5.394.002.002-1.414 1.414-4.243-4.243 1.414-1.414L8.5 12.223z" fill="#FFF"/></g></svg><svg width="14" height="14" viewBox="-1 -1 14 14" id="on" x="144" y="71"><title>Group 12 Copy</title><g fill="none" fill-rule="evenodd"><circle stroke="#0ABF5B" cx="6" cy="6" r="5.5"/><path d="M5.39 7.543l3.605-3.536.707.707-4.316 4.234-.003.003-2.828-2.829.707-.707L5.39 7.543z" fill="#0ABF5B"/></g></svg><svg width="50" height="50" viewBox="-1 -1 50 50" id="pc" x="309" y="200"><title>Artboard Copy</title><defs><path id="bsa" d="M1 47h46V1H1z"/></defs><g fill="none" fill-rule="evenodd"><path d="M24 0C10.745 0 0 10.746 0 24s10.745 24 24 24c13.254 0 24-10.746 24-24S37.254 0 24 0m.087 2.087c12.13 0 22 9.87 22 22s-9.87 22-22 22c-12.131 0-22-9.87-22-22s9.869-22 22-22" fill="#7C848E"/><mask id="bsb" fill="#fff"><use xlink:href="#bsa"/></mask><path d="M12 31h24V14H12v17zm2-2h20V16H14v13zm3 6h13.968v-2H17z" fill="#7C848E" mask="url(#bsb)"/><path fill="#7C848E" mask="url(#bsb)" d="M23 34.458h2v-4h-2zm-.046-7.291l-4.517-4.61 1.385-1.39 3.132 3.12 6.1-6.609 1.383 1.489z"/></g></svg><svg data-name="图层 1" width="50" height="50" viewBox="-1 -1 50 50" id="phone" x="309" y="100"><title>icon-03-01</title><path d="M24 3A21 21 0 1 1 3 24 21 21 0 0 1 24 3m0-2a23 23 0 1 0 23 23A23 23 0 0 0 24 1z" fill="#7c848e"/><path d="M28.823 37.459h-.069a8.5 8.5 0 0 1-2.649-.562 15.279 15.279 0 0 1-2.678-1.297 25.1 25.1 0 0 1-2.912-2.114c-.914-.747-1.9-1.635-3.1-2.784a42.984 42.984 0 0 1-2.871-3.148 31.654 31.654 0 0 1-2.091-2.88 15.17 15.17 0 0 1-1.312-2.716 8.363 8.363 0 0 1-.51-2.6v-.071l.008-.071a2.7 2.7 0 0 1 .359-1.077 7.876 7.876 0 0 1 .734-1c.286-.333.574-.623.813-.862a6.814 6.814 0 0 1 .742-.637l.449-.326a3.48 3.48 0 0 1 .454-.356 2 2 0 0 1 .858-.39 3.258 3.258 0 0 1 .721-.113 2.126 2.126 0 0 1 1.08.242l.148.093a3.1 3.1 0 0 1 .648.658c.293.4.592.839.923 1.33l.4.587c.241.383.482.745.735 1.124.263.4.538.808.813 1.243a2.516 2.516 0 0 1 .333 1.337 3.019 3.019 0 0 1-.478 1.411c-.028.045-.054.1-.087.167-.063.126-.14.278-.241.456s-.218.388-.35.626c.2.259.42.537.671.813.326.389.665.746 1.031 1.131l.536.569c.584.584 1.111 1.11 1.616 1.531.278.256.553.488.831.7l.243-.144.361-.211a6.117 6.117 0 0 1 .761-.4 4.822 4.822 0 0 1 .549-.247 2.92 2.92 0 0 1 .8-.154 1.981 1.981 0 0 1 .711.092 3.24 3.24 0 0 1 .475.2c.463.264.91.548 1.381.848l.708.448c.446.277.89.587 1.352.91.3.208.6.422.924.636a2.408 2.408 0 0 1 .629.625 2.676 2.676 0 0 1 .339.879l.016.147a3.551 3.551 0 0 1-.062.81 3.839 3.839 0 0 1-.869 1.518c-.016.019-.039.054-.065.09a3.662 3.662 0 0 1-.266.333 6.815 6.815 0 0 1-.6.688c-.243.244-.533.532-.869.82a7.671 7.671 0 0 1-.906.7 2.348 2.348 0 0 1-1.094.388zm-16.2-18.084a6.366 6.366 0 0 0 .386 1.9 13.1 13.1 0 0 0 1.129 2.341 29.743 29.743 0 0 0 1.945 2.678c.784.959 1.7 1.963 2.72 2.983a50.25 50.25 0 0 0 2.984 2.675 23 23 0 0 0 2.688 1.948 13.275 13.275 0 0 0 2.334 1.124 6.53 6.53 0 0 0 1.953.431.338.338 0 0 0 .11-.049 5.822 5.822 0 0 0 .7-.542c.314-.27.565-.521.773-.73a4.729 4.729 0 0 0 .445-.52l.087-.1a1.307 1.307 0 0 0 .123-.169 2.717 2.717 0 0 1 .279-.339.492.492 0 0 0 .092-.118l.134-.2a.387.387 0 0 0 .088-.174 1.539 1.539 0 0 0 .024-.262.619.619 0 0 0-.052-.123c.025.048-.02 0-.052-.023-.326-.218-.644-.44-.952-.656-.432-.3-.845-.592-1.262-.852l-.727-.459c-.441-.281-.861-.55-1.266-.78a1.572 1.572 0 0 0-.145-.058 1.646 1.646 0 0 0-.217.05 3.424 3.424 0 0 0-.339.158 4.91 4.91 0 0 0-.608.321l-.374.22c-.241.143-.516.3-.851.488l-.541.295-.507-.35a13.8 13.8 0 0 1-1.513-1.212c-.537-.445-1.093-1-1.737-1.646l-.547-.58c-.4-.419-.764-.808-1.088-1.2-.327-.358-.63-.752-.9-1.1l-.654-.836.592-1.068c.157-.285.293-.53.412-.738.08-.139.139-.258.188-.356a3.633 3.633 0 0 1 .208-.376.969.969 0 0 0 .151-.438.517.517 0 0 0-.062-.191c-.234-.367-.5-.766-.755-1.148s-.515-.773-.745-1.139L16.9 17.9a40.75 40.75 0 0 0-.874-1.261l-.006-.008a1.09 1.09 0 0 0-.148-.167.307.307 0 0 0-.055 0 1.212 1.212 0 0 0-.272.049l-.244.111a1.484 1.484 0 0 0-.238.188l-.591.442a4.77 4.77 0 0 0-.525.45c-.205.206-.457.456-.708.75a5.811 5.811 0 0 0-.54.731.662.662 0 0 0-.071.19zM24 18v2a4 4 0 0 1 4 4h2a6 6 0 0 0-6-6z" fill="#7c848e"/><path d="M24 14v2a8.009 8.009 0 0 1 8 8h2a10 10 0 0 0-10-10z" fill="#7c848e"/></svg><svg id="phone" data-name="图层 1" viewBox="-1 -1 34 34" width="34" height="34" x="152" y="272"><defs><style>.bucls-1{fill:#00a4ff}</style></defs><title>phone</title><path class="bucls-1" d="M16 0a16 16 0 1 0 16 16A16 16 0 0 0 16 0zm6.8 24.5c0 .94-.38 1.7-.85 1.7H10c-.47 0-.85-.76-.85-1.7v-17c0-.94.38-1.7.85-1.7h12c.47 0 .85.76.85 1.7z"/><path id="buShape" class="bucls-1" d="M20.46 7.5h-8.92c-.35 0-.64.51-.64 1.13V20c0 .63.29 1.13.64 1.13h8.93c.35 0 .64-.51.64-1.13V8.63c-.01-.63-.29-1.13-.65-1.13z"/><circle class="bucls-1" cx="16" cy="23.65" r=".85"/></svg><svg width="34" height="34" viewBox="-1 -1 34 34" id="qq" x="220" y="272"><title>Group 2</title><g fill="none" fill-rule="evenodd"><circle fill="#00A4FF" cx="16" cy="16" r="16"/><path d="M22.71 19.153c-.292.162-.778-.195-1.232-.876-.162.714-.616 1.362-1.232 1.88.648.228 1.07.65 1.07 1.07 0 .746-1.167 1.33-2.594 1.33-1.297 0-2.367-.486-2.561-1.102h-.324c-.195.616-1.265 1.102-2.562 1.102-1.426 0-2.593-.584-2.593-1.33 0-.453.421-.842 1.07-1.07-.616-.518-1.07-1.166-1.232-1.88-.454.649-.94 1.006-1.232.876-.454-.227-.357-1.46.194-2.724.422-1.005 1.005-1.75 1.459-1.912v-.195c0-.389.097-.746.292-1.037v-.065c0-.195.032-.357.13-.487C11.524 10.075 13.242 8 16.03 8s4.507 2.075 4.636 4.701c.065.13.13.324.13.486v.065c.195.292.292.649.292 1.038v.194c.454.162 1.037.908 1.459 1.913.519 1.297.616 2.529.162 2.756z" fill="#FFF"/></g></svg><svg width="26" height="26" viewBox="-1 -1 26 26" id="qr-mask" y="322"><title>Combined Shape</title><path d="M12 22c5.523 0 10-4.477 10-10S17.523 2 12 2 2 6.477 2 12s4.477 10 10 10zm0 2C5.373 24 0 18.627 0 12S5.373 0 12 0s12 5.373 12 12-5.373 12-12 12zm4.313-15.69l-5.394 5.317-3.212-3.211-1.414 1.414 4.616 4.616 6.808-6.712-1.404-1.424z" fill="#62BC00"/></svg><svg width="26" height="26" viewBox="-1 -1 26 26" id="r-icon-status-right" x="78" y="322"><title>Combined Shape</title><path d="M12 22c5.523 0 10-4.477 10-10S17.523 2 12 2 2 6.477 2 12s4.477 10 10 10zm0 2C5.373 24 0 18.627 0 12S5.373 0 12 0s12 5.373 12 12-5.373 12-12 12zm4.313-15.69l-5.394 5.317-3.212-3.211-1.414 1.414 4.616 4.616 6.808-6.712-1.404-1.424z" fill="#62BC00"/></svg><svg width="50" height="50" viewBox="-1 -1 50 50" id="rn-1" x="309" y="150"><title>个人实名认证</title><g fill="#666" fill-rule="evenodd"><path d="M4 2a2 2 0 0 0-2 2v40a2 2 0 0 0 2 2h40a2 2 0 0 0 2-2V4a2 2 0 0 0-2-2H4zm0-2h40a4 4 0 0 1 4 4v40a4 4 0 0 1-4 4H4a4 4 0 0 1-4-4V4a4 4 0 0 1 4-4z" fill-rule="nonzero"/><path d="M23 25a9 9 0 1 1 0-18 9 9 0 0 1 0 18zm0-2a7 7 0 1 0 0-14 7 7 0 0 0 0 14z" fill-rule="nonzero"/><path d="M23 23a1 1 0 0 1 0 2c-7.732 0-14 6.268-14 14a1 1 0 0 1-2 0c0-8.837 7.163-16 16-16z" fill-rule="nonzero"/><rect transform="rotate(-45 27 35.9)" x="26" y="30.899" width="2" height="10" rx="1"/><rect transform="rotate(-45 35.485 33.071)" x="26.485" y="32.071" width="18" height="2" rx="1"/></g></svg><svg width="50" height="50" viewBox="-1 -1 50 50" id="rn-2" x="309" y="50"><title>企业实名认证</title><g fill="#666" fill-rule="evenodd"><path d="M4 5a2 2 0 0 0-2 2v34a2 2 0 0 0 2 2h40a2 2 0 0 0 2-2V7a2 2 0 0 0-2-2H4zm0-2h40a4 4 0 0 1 4 4v34a4 4 0 0 1-4 4H4a4 4 0 0 1-4-4V7a4 4 0 0 1 4-4z" fill-rule="nonzero"/><path d="M2 15h44V7a2 2 0 0 0-2-2H4a2 2 0 0 0-2 2v8zM4 3h40a4 4 0 0 1 4 4v10H0V7a4 4 0 0 1 4-4z" fill-rule="nonzero"/><rect transform="rotate(-45 28 33)" x="27" y="28" width="2" height="10" rx="1"/><rect transform="rotate(-45 36.485 30.172)" x="27.485" y="29.172" width="18" height="2" rx="1"/><rect transform="rotate(-90 13 31)" x="12" y="24" width="2" height="14" rx="1"/></g></svg><svg width="50" height="50" viewBox="-1 -1 50 50" id="rn-3" x="165" y="72"><title>未命名实名认证</title><g fill="#666" fill-rule="evenodd"><path d="M4 2a2 2 0 0 0-2 2v40a2 2 0 0 0 2 2h40a2 2 0 0 0 2-2V4a2 2 0 0 0-2-2H4zm0-2h40a4 4 0 0 1 4 4v40a4 4 0 0 1-4 4H4a4 4 0 0 1-4-4V4a4 4 0 0 1 4-4z" fill-rule="nonzero"/><path d="M23 25a9 9 0 1 1 0-18 9 9 0 0 1 0 18zm0-2a7 7 0 1 0 0-14 7 7 0 0 0 0 14z" fill-rule="nonzero"/><path d="M23 23a1 1 0 0 1 0 2c-7.732 0-14 6.268-14 14a1 1 0 0 1-2 0c0-8.837 7.163-16 16-16z" fill-rule="nonzero"/><rect transform="rotate(-45 34.071 33.071)" x="25.071" y="32.071" width="18" height="2" rx="1"/><rect transform="rotate(-135 34.071 33.071)" x="25.071" y="32.071" width="18" height="2" rx="1"/></g></svg><svg width="16" height="16" viewBox="-1 -1 16 16" id="tips" x="215" y="106"><title>Shape</title><path d="M7 14A7 7 0 1 1 7 0a7 7 0 0 1 0 14zM5.953 3.854a1 1 0 1 0 2 0 1 1 0 0 0-2 0zm1.846 6.74s.024-1.16 0-5.339c-.289.646-1.983.637-1.983.637v.636h.524v4.065h-.524v.9h2.383v-.9h-.4z" fill="#999"/></svg><svg width="34" height="34" viewBox="-1 -1 34 34" id="wechat" x="84" y="272"><title>Group 49</title><defs><linearGradient x1="50%" y1="0%" x2="50%" y2="100%" id="cca"><stop stop-color="#20D329" offset="0%"/><stop stop-color="#1BB623" offset="100%"/></linearGradient></defs><g fill="none" fill-rule="evenodd"><circle fill="url(#cca)" cx="16" cy="16" r="16"/><path d="M25.335 17.937c0-2.537-2.469-4.589-5.515-4.589-3.045 0-5.514 2.052-5.514 4.589 0 2.527 2.469 4.579 5.514 4.588a6.846 6.846 0 0 0 1.81-.265c.042-.011.038-.01.15-.032.11-.022.207.032.29.076l1.192.706c.055.03.087.044.132.044a.178.178 0 0 0 .177-.176c.002-.052-.015-.094-.028-.137-.013-.044-.16-.582-.237-.922a.603.603 0 0 1-.017-.167c0-.09.047-.189.15-.274 1.153-.822 1.896-2.065 1.896-3.441zm-7.389-.795c-.368 0-.684-.315-.684-.727 0-.368.316-.684.684-.684.412 0 .727.316.727.684a.715.715 0 0 1-.727.727m3.662 0c-.368 0-.685-.315-.685-.727 0-.368.317-.684.685-.684.411 0 .727.316.727.684a.715.715 0 0 1-.727.727" fill="#FFF"/><path d="M7.026 13.79c0 1.643.891 3.135 2.294 4.147a.348.348 0 0 1 .159.309.74.74 0 0 1-.026.176c-.118.48-.247 1.03-.265 1.103-.019.074-.048.123-.044.176a.216.216 0 0 0 .22.221.282.282 0 0 0 .133-.044l1.456-.838a.561.561 0 0 1 .265-.085c.07 0 .186.022.264.04.675.173 1.404.28 2.162.265.118.016.24.013.353 0a4.509 4.509 0 0 1-.22-1.323c.005-2.788 2.705-5.035 6.043-5.03.115-.005.234 0 .353 0-.498-2.623-3.233-4.632-6.53-4.632-3.656 0-6.617 2.463-6.617 5.514zm4.368-.883a.882.882 0 1 1 0-1.764.882.882 0 0 1 0 1.764m4.412 0a.882.882 0 1 1 0-1.764.882.882 0 0 1 0 1.764" fill="#FFF"/></g></svg><svg width="34" height="34" viewBox="-1 -1 34 34" id="wechatoa" x="254" y="272"><title>Group 6</title><g fill="none" fill-rule="evenodd"><path d="M16 32C7.163 32 0 24.837 0 16S7.163 0 16 0s16 7.163 16 16-7.163 16-16 16z" fill="#62BC00" fill-rule="nonzero"/><path d="M12.719 21.435l-2.275.91.453-1.811-.501-.401C8.866 18.91 8 17.254 8 15.5 8 11.955 11.546 9 16 9c4.454 0 8 2.955 8 6.5S20.454 22 16 22a9.582 9.582 0 0 1-2.938-.454l-.343-.11zM19 15a1 1 0 1 0 0-2 1 1 0 0 0 0 2zm-6 0a1 1 0 1 0 0-2 1 1 0 0 0 0 2z" fill="#FFF"/></g></svg></svg>