<?xml version="1.0" encoding="utf-8"?><!DOCTYPE svg PUBLIC "-//W3C//DTD SVG 1.1//EN" "http://www.w3.org/Graphics/SVG/1.1/DTD/svg11.dtd"><svg width="159" height="145" viewBox="0 0 159 145" xmlns="http://www.w3.org/2000/svg" xmlns:xlink="http://www.w3.org/1999/xlink"><svg width="18" height="18" viewBox="-1 -1 18 18" id="btn-dismiss" x="123" y="72"><path fill="#888" d="M13.95 3.414L12.536 2 8 6.536 3.464 2 2.05 3.414 6.586 7.95 2.05 12.485l1.414 1.414L8 9.364l4.536 4.535 1.414-1.414L9.414 7.95z"/></svg><svg width="18" height="18" viewBox="-1 -1 18 18" id="btn-dismiss-hover" x="123" y="54"><path fill="#444" d="M13.95 3.414L12.536 2 8 6.536 3.464 2 2.05 3.414 6.586 7.95 2.05 12.485l1.414 1.414L8 9.364l4.536 4.535 1.414-1.414L9.414 7.95z"/></svg><svg width="18" height="18" viewBox="-1 -1 18 18" id="calendar" x="100" y="89"><g fill="#888"><path d="M12 3V2h-2v1H6V2H4v1H2v11h12V3h-2zm0 9H4V5h8v7z"/><path d="M5 6h2v2H5zM5 9h2v2H5zM9 6h2v2H9zM9 9h2v2H9z"/></g></svg><svg id="checkblock-activied" width="18" height="18" viewBox="-1 -1 18 18" x="123"><style>.adst0,.adst1{fill-rule:evenodd;clip-rule:evenodd;fill:#00a4ff}.adst1{fill:#fff}</style><path id="adXMLID_2_" class="adst0" d="M16 1v15H0L16 1z"/><g id="adXMLID_4_"><g id="adXMLID_77_"><path id="adXMLID_78_" class="adst1" d="M8 11v1h1v-1H8zm1 1v1h1v-1H9zm1 2h1v-1h-1v1zm1-1h1v-1h-1v1zm1-1h1v-1h-1v1zm1-1h1v-1h-1v1zm1-2v1h1V9h-1z"/></g></g></svg><svg width="18" height="18" viewBox="-1 -1 18 18" id="down-arrow-icon" x="123" y="18"><path fill="#888" d="M12 6H4l4 5z"/></svg><svg width="18" height="18" viewBox="-1 -1 18 18" id="error-icon" x="123" y="36"><g fill="#E54545"><path d="M8 1a7 7 0 1 0 0 14A7 7 0 0 0 8 1zm0 12c-2.757 0-5-2.243-5-5s2.243-5 5-5 5 2.243 5 5-2.243 5-5 5z"/><path d="M7 4h2v5H7zM7 10h2v2H7z"/></g></svg><svg id="free" width="36" height="20" viewBox="-1 -1 36 20" x="36" y="69"><style>.agst0{fill:#ff7200}.agst1{fill:#fff}</style><g id="agXMLID_2_"><path id="agXMLID_34_" class="agst0" d="M32 18H2c-1.1 0-2-.9-2-2V2C0 .9.9 0 2 0h30c1.1 0 2 .9 2 2v14c0 1.1-.9 2-2 2z"/><g id="agXMLID_3_"><g id="agXMLID_108_"><path id="agXMLID_117_" class="agst1" d="M5.5 14c2.3-.7 3.8-1.9 4.5-3.6H7.7v.4h-.9V7.3c-.3.2-.5.4-.8.7-.1-.2-.3-.4-.6-.8 1.4-.9 2.7-2.3 3.9-4l.9.3c-.3.3-.5.6-.7.9h4.6v.8l-1.3 1.3h2.8v4.3h-.9v-.4H11c-.7 2-2.4 3.5-4.9 4.5-.2-.4-.4-.7-.6-.9zm7.3-8.8h-4c-.3.5-.7.9-1.2 1.3h3.9l1.3-1.3zM7.7 9.6h2.6c.2-.6.3-1.4.3-2.2h-3v2.2zm3.4 1.4h.9v1.7c0 .3.1.6.2.7.1.1.4.2.7.2h2c.6 0 .9-.2 1-.7.1-.5.2-1.1.2-1.7l.9.3c-.1.6-.1 1.2-.2 1.7-.1.9-.7 1.3-1.8 1.3h-2.3c-.6 0-1-.1-1.2-.4-.2-.2-.3-.6-.3-1.2V11zm3.6-3.6h-3.1c-.1.8-.2 1.6-.3 2.2h3.4V7.4z"/><path id="agXMLID_109_" class="agst1" d="M18.2 4.2h3.4v-1h.8v1h2v-1h.8v1H28v2.7h-.8v-.3h-2v1.1h3.4c0 .6-.1 1-.1 1.4-.1.5-.4.8-1.1.8H27v2.9h-.8v-2.4h-5.9v2.5h-.8v-2.5c-.5.2-1 .4-1.6.6-.1-.2-.3-.5-.5-.8 1.8-.4 3-1 3.5-1.8h-2.6l.4-2.4h2.8V5h-3.4v-.8zm4.7 6.8h.8c0 .5-.1.9-.2 1.3 1.8.5 3.4 1 4.9 1.6l-.4.9c-1.6-.6-3.1-1.1-4.7-1.7-.5.8-2.1 1.3-4.8 1.7-.1-.4-.3-.7-.4-.8 1.8-.2 3.2-.5 4.1-.9.5-.3.7-1 .7-2.1zm-3.6-3.3h2c.1-.3.2-.6.2-1.1h-2l-.2 1.1zm6.8 1.4c.4 0 .8.1 1.1.1.3 0 .5-.1.5-.4 0-.2.1-.3.1-.5h-2.5v1.1h-.8V8.3H22c-.2.5-.6.9-1.1 1.3h5.4c-.1-.1-.1-.3-.2-.5zm-3.9-1.4h2.3V6.6h-2.1c-.1.4-.2.8-.2 1.1zm.2-1.8h2.1v-1h-2.1v1zm4.9-1h-2v1h2v-1z"/></g></g></g></svg><svg width="18" height="17" viewBox="-1 -1 18 17" id="gou-b" x="123" y="90"><path fill-rule="evenodd" clip-rule="evenodd" fill="#00a4ff" d="M16 0v15H0L16 0z"/><path fill-rule="evenodd" clip-rule="evenodd" fill="#FFF" d="M14.8 8.7l-4.1 4.1-.7.7-.7-.7L7 10.5l.7-.7 2.3 2.3L14.1 8l.7.7z"/></svg><svg width="18" height="18" viewBox="-1 -1 18 18" id="hyp" y="109"><path fill-rule="evenodd" clip-rule="evenodd" fill="#666" d="M15.5 8h-7l3.2-2.7C10.8 3.9 9.3 3 7.5 3c-2.8 0-5 2.2-5 5s2.2 5 5 5c1.6 0 3.1-.8 4-2h2.3c-1.1 2.4-3.5 4-6.3 4-3.9 0-7-3.1-7-7s3.1-7 7-7c2.4 0 4.4 1.2 5.7 3l2.3-2v6z"/></svg><svg width="18" height="18" viewBox="-1 -1 18 18" id="hyp2" x="18" y="109"><path fill="#00a4ff" d="M15.5 8h-7l3.2-2.7C10.8 3.9 9.3 3 7.5 3c-2.8 0-5 2.2-5 5s2.2 5 5 5c1.6 0 3.1-.8 4-2h2.3c-1.1 2.4-3.5 4-6.3 4-3.9 0-7-3.1-7-7s3.1-7 7-7c2.4 0 4.4 1.2 5.7 3l2.3-2v6z"/></svg><svg width="18" height="18" viewBox="-1 -1 18 18" id="icon-53" x="36" y="109"><path fill-rule="evenodd" clip-rule="evenodd" fill="#0ABF5B" d="M14 5l-1-1-6.147 6.146L3.969 8l-1 1 4 4 .016-.03L7 13z"/></svg><svg width="18" height="18" viewBox="0 0 18 18" id="icon-search" x="54" y="109"><path fill="#888" d="M15.7 14.8l-2.5-2.5c1-1.1 1.7-2.7 1.7-4.3 0-3.6-2.9-6.5-6.5-6.5C4.9 1.5 2 4.4 2 8s2.9 6.4 6.4 6.4c1.2 0 2.3-.3 3.2-.9l2.7 2.7c.4.4 1 .4 1.4 0 .4-.4.4-1 0-1.4zm-7.3-2.4C6 12.4 4 10.4 4 8s2-4.5 4.4-4.5c2.5 0 4.5 2 4.5 4.5s-2 4.4-4.5 4.4z"/></svg><svg width="18" height="18" viewBox="-1 -1 18 18" id="icon-tips" x="72" y="109"><g fill="#444"><path d="M8 1a7 7 0 1 0 0 14A7 7 0 0 0 8 1zm0 13c-3.308 0-6-2.692-6-6s2.692-6 6-6 6 2.692 6 6-2.692 6-6 6z"/><path d="M7.91 10.652a.844.844 0 0 0-.624.24c-.168.152-.252.356-.252.612 0 .24.084.444.252.612s.376.252.624.252c.24 0 .448-.08.624-.24a.853.853 0 0 0 .264-.624c0-.256-.084-.46-.252-.612-.16-.16-.372-.24-.636-.24zM8.126 3.632c-.888 0-1.584.256-2.088.768-.504.504-.756 1.192-.756 2.064h1.26c0-.528.108-.936.324-1.224.24-.344.632-.516 1.176-.516.44 0 .78.12 1.02.36.232.248.348.576.348.984 0 .296-.112.588-.336.876l-.204.228c-.752.672-1.204 1.168-1.356 1.488-.16.296-.24.676-.24 1.14v.204h1.284V9.8c0-.296.064-.56.192-.792.112-.232.28-.44.504-.624.568-.496.904-.808 1.008-.936.304-.392.456-.88.456-1.464 0-.728-.24-1.3-.72-1.716-.472-.424-1.096-.636-1.872-.636z"/></g></svg><svg width="18" height="18" viewBox="-1 -1 18 18" id="icon-tips-blue" x="90" y="109"><title>Artboard</title><g transform="translate(1 1)" fill="#00A4FF" fill-rule="evenodd"><path d="M7 13c-3.3 0-6-2.7-6-6s2.7-6 6-6 6 2.7 6 6-2.7 6-6 6M7 0C3.1 0 0 3.1 0 7s3.1 7 7 7 7-3.1 7-7-3.1-7-7-7"/><path d="M7.1 2.6c-.9 0-1.6.3-2.1.8s-.8 1.2-.8 2.1h1.3c0-.5.1-.9.3-1.2.2-.3.6-.5 1.2-.5.4 0 .8.1 1 .4.2.2.3.6.3 1 0 .3-.1.6-.3.9l-.2.2C7 7 6.6 7.5 6.4 7.8c-.2.3-.2.7-.2 1.1v.2h1.3v-.2c0-.3.1-.6.2-.8.1-.2.3-.4.5-.6.6-.5.9-.8 1-.9.3-.4.5-.9.5-1.5 0-.7-.2-1.3-.7-1.7-.5-.6-1.1-.8-1.9-.8m-.2 7.1c-.2 0-.5.1-.6.2-.2.2-.3.4-.3.6 0 .2.1.4.3.6.2.2.4.3.6.3.2 0 .4-.1.6-.2.2-.2.3-.4.3-.6 0-.3-.1-.5-.3-.6-.1-.3-.3-.3-.6-.3"/></g></svg><svg id="icon14" width="41" height="49" viewBox="-1 -1 41 49"><style>.aost0{fill:#b2b2b2}.aost1{fill:#fff}</style><g id="aoXMLID_1_"><path id="aoXMLID_25_" class="aost0" d="M39 0L0 47V18.8L15.2 0z"/><g id="aoXMLID_28_"><g id="aoXMLID_156_"><path id="aoXMLID_166_" class="aost1" d="M6 16.5l.1-.9c.6 0 1.1 0 1.6.1l-.1.5 2.7-3.3.6.5-2.6 3.2.7.5 2.4-2.9.6.5-2.4 2.9.7.5 2.4-2.9.6.5-2.4 2.9.7.5 2.8-3.4.6.5-5.8 7 .4.3-.5.7L6 21.7c.1.5.2 1 .2 1.4h-.9c-.1-1.6-.5-3.1-1.2-4.5l.8-.5c-.2.5 0 .9.1 1.3l2.3-2.8c-.4 0-.9-.1-1.3-.1zm-.1 4.3l2.4-3-.7-.5-2.4 2.9v.1l.7.5zm1.2 1l2.4-3-.7-.5-2.4 3 .7.5zm1.3 1l2.4-3-.7-.5-2.4 3 .7.5zm.7 1.7l5.6-6.9 2.9 2.4-.5.7-.5-.4-4.5 5.5.5.4-.6.7-2.9-2.4zm5.6-5.7l-4.5 5.5 1.3 1.1 4.5-5.5-1.3-1.1z"/><path id="aoXMLID_157_" class="aost1" d="M11.8 12.3l1.5-1.8-.6-.5-1.8 2.2-.5-.4 1.8-2.2-.6-.5.5-.6.6.5 1.7-2 .5.4-1.7 2 .6.5 1.4-1.7.5.4-3.4 4.1-.5-.4zm4.3 3.6c-.2 0-.5.1-.8.1-.1-.8-.5-1.5-1.2-2.2l-1.1-.9 3.1-3.8 1.8 1.4-2.7 3.3c.5.7.8 1.3.9 2.1zm-2.2-3.2l.8.6.9-1.1-.8-.6-.9 1.1zm1.6-6.6l.2.1c.5.5.8 1.1.6 2-.3 0-.5 0-.8.1.2-.7 0-1.2-.3-1.5l-.6-.5 2.1-2.6 1 .8c.2.1.3.1.4-.1l.6-.8c.1.2.3.4.4.6l-.7.8c-.3.4-.7.4-1.1.1l-.6-.5-1.2 1.5zm1.4 4.6l-.8-.6-.9 1.1.8.6.9-1.1zm-.2-1.8l-.5-.4 2.9-3.6.5.4c.2.7.3 1.4.2 2.2.6-.3 1.3-.8 1.9-1.4.1.3.3.6.4.8-.8.7-1.6 1.2-2.4 1.5-.2.8-.4 1.6-.8 2.5-.2-.1-.5-.1-.8-.2.4-.7.7-1.4.9-2.1-.7.2-1.3.2-1.9 0l-.4.3zm6.2 1.3l.5-.6 1.7 1.4-.5.6-.3-.3-4.8 5.9-1.4-1.1.5-.6.8.7 1.9-2.3-1-.9-3.4 4.2-.5-.4 3.4-4.2-.8-.7-1.6 1.9c.1.3.1.7.1 1-.3 0-.5.1-.8.1 0-.7-.2-1.4-.5-2l.6-.7c.1.2.2.5.3.8l4-4.9.5.4-2.2 2.7.7.6 3.3-4.1.5.4-3.3 4.1 1.1.9 1.9-2.3-.7-.6zM19 6.1L17.5 8c.5 0 1 0 1.5-.2.1-.6.1-1.2 0-1.7z"/></g></g></g></svg><svg id="icon14-en" width="41" height="49" viewBox="-1 -1 41 49" x="41"><style>.apst0{fill:#b2b2b2}.apst1{fill:#fff}</style><path id="apXMLID_19_" class="apst0" d="M39 0L0 47V18.8L15.2 0z"/><g id="apXMLID_2_"><g id="apXMLID_59_"><path id="apXMLID_64_" class="apst1" d="M5.7 24.9c-1.1-.9-1.8-2-2-3.1-.2-1.2.2-2.3 1-3.3s1.8-1.5 2.9-1.6c1.1-.1 2.2.3 3.3 1.2 1.1.9 1.8 2 2 3.1.2 1.2-.2 2.2-1 3.3-.8 1-1.8 1.5-2.9 1.6-1.2 0-2.3-.4-3.3-1.2zm.7-1c.8.7 1.7 1 2.6 1s1.6-.4 2.2-1.1c.6-.8.8-1.5.7-2.4-.1-.8-.7-1.6-1.5-2.3-1-.7-1.9-1.1-2.7-1.1-.8 0-1.6.4-2.1 1.1-.6.7-.8 1.5-.6 2.4 0 .9.5 1.7 1.4 2.4z"/><path id="apXMLID_62_" class="apst1" d="M17.1 12.1c2 1.6 2.2 3.3.8 5.1-1.4 1.7-3.1 1.8-5 .2L8.6 14l.7-.9 4.2 3.5c1.4 1.2 2.6 1.1 3.6 0 .9-1.1.7-2.3-.6-3.4l-4.3-3.5.7-.9 4.2 3.3z"/><path id="apXMLID_60_" class="apst1" d="M18.6 3.4l-1.7 2 6.2 5.1-.7.9-6.2-5.1-1.7 2-.8-.7 4.1-5 .8.8z"/></g></g></svg><svg id="icon16" width="20" height="20" viewBox="-1 -1 20 20" x="60" y="89"><style>.aqst0{fill:#ff7200}.aqst1{fill:#fff}</style><path id="aqXMLID_13_" class="aqst0" d="M16 18H2c-1.1 0-2-.9-2-2V2C0 .9.9 0 2 0h14c1.1 0 2 .9 2 2v14c0 1.1-.9 2-2 2z"/><g id="aqXMLID_2_"><g id="aqXMLID_38_"><path id="aqXMLID_39_" class="aqst1" d="M3.2 8.9c1.1-1.6 1.9-3.5 2.5-5.7l.9.3c-.3 1-.7 2-1.1 2.9v8.3h-.9V8.2c-.3.6-.7 1.2-1 1.7-.2-.3-.3-.6-.4-1zM5.8 14c1-1.1 1.6-2.7 1.8-4.7l.9.1c-.1.7-.2 1.4-.3 2 .5 1 1.2 1.6 2.1 1.9V8h-2v.6h-1V3.9h6.4v4.5h-.9V8H11v2h3.2v.8H11v2.5c1.1.1 2.3 0 3.8-.1-.2.4-.3.7-.4.9H11c-1.4 0-2.5-.6-3.2-1.8-.3.9-.8 1.7-1.4 2.3l-.6-.6zm7.1-9.3H8.2v2.4h4.7V4.7z"/></g></g></svg><svg id="icon26" width="20" height="20" viewBox="-1 -1 20 20" x="40" y="89"><style>.arst0{fill:#ff7200}</style><g id="arXMLID_12_"><path id="arXMLID_14_" class="arst0" d="M15.6 18H2.4C1.1 18 0 16.9 0 15.6V2.4C0 1.1 1.1 0 2.4 0h13.3C16.9 0 18 1.1 18 2.4v13.3c0 1.2-1.1 2.3-2.4 2.3zM2.4.9C1.6.9 1 1.6 1 2.4v13.3c0 .8.6 1.4 1.4 1.4h13.3c.8 0 1.4-.6 1.4-1.4V2.4c0-.8-.6-1.4-1.4-1.4H2.4z"/></g><g id="arXMLID_7_"><path id="arXMLID_8_" class="arst0" d="M3.2 8.9c1.1-1.6 1.9-3.5 2.5-5.7l.9.3c-.3 1-.7 2-1.1 2.9v8.3h-.9V8.2c-.3.6-.7 1.2-1 1.7-.2-.3-.3-.6-.4-1zM5.8 14c1-1.1 1.6-2.7 1.8-4.7l.9.1c-.1.7-.2 1.4-.3 2 .5 1 1.2 1.6 2.1 1.9V8h-2v.6h-1V3.9h6.4v4.5h-.9V8H11v2h3.2v.8H11v2.5c1.1.1 2.3 0 3.8-.1-.2.4-.3.7-.4.9H11c-1.4 0-2.5-.6-3.2-1.8-.3.9-.8 1.7-1.4 2.3l-.6-.6zm7.1-9.3H8.2v2.4h4.7V4.7z"/></g></svg><svg id="icon27" width="20" height="20" viewBox="-1 -1 20 20" x="80" y="89"><style>.asst0{fill:#00a4ff}</style><g id="asXMLID_12_"><path id="asXMLID_14_" class="asst0" d="M15.6 18H2.4C1.1 18 0 16.9 0 15.6V2.4C0 1.1 1.1 0 2.4 0h13.3C16.9 0 18 1.1 18 2.4v13.3c0 1.2-1.1 2.3-2.4 2.3zM2.4.9C1.6.9 1 1.6 1 2.4v13.3c0 .8.6 1.4 1.4 1.4h13.3c.8 0 1.4-.6 1.4-1.4V2.4c0-.8-.6-1.4-1.4-1.4H2.4z"/></g><g id="asXMLID_7_"><path id="asXMLID_8_" class="asst0" d="M3.2 8.9c1.1-1.6 1.9-3.5 2.5-5.7l.9.3c-.3 1-.7 2-1.1 2.9v8.3h-.9V8.2c-.3.6-.7 1.2-1 1.7-.2-.3-.3-.6-.4-1zM5.8 14c1-1.1 1.6-2.7 1.8-4.7l.9.1c-.1.7-.2 1.4-.3 2 .5 1 1.2 1.6 2.1 1.9V8h-2v.6h-1V3.9h6.4v4.5h-.9V8H11v2h3.2v.8H11v2.5c1.1.1 2.3 0 3.8-.1-.2.4-.3.7-.4.9H11c-1.4 0-2.5-.6-3.2-1.8-.3.9-.8 1.7-1.4 2.3l-.6-.6zm7.1-9.3H8.2v2.4h4.7V4.7z"/></g></svg><svg id="icon32" width="20" height="20" viewBox="-1 -1 20 20" x="20" y="89"><style>.atst0{fill:#ff7200}.atst1{fill:#fff}</style><path id="atXMLID_13_" class="atst0" d="M16 18H2c-1.1 0-2-.9-2-2V2C0 .9.9 0 2 0h14c1.1 0 2 .9 2 2v14c0 1.1-.9 2-2 2z"/><g id="atXMLID_1_"><g id="atXMLID_90_"><path id="atXMLID_91_" class="atst1" d="M4.4 11.8l.8.3c-.4.9-.8 1.7-1.2 2.3-.3-.1-.5-.3-.8-.4.5-.7.9-1.4 1.2-2.2zm7.5-1.7l.6-.5c.8.7 1.5 1.3 2.2 1.9l-.8.5-.9-.9c-2 0-5.2.1-9.5.2l-.1-.9h5.1v-.9H5.2v.3h-.8V5.9h4.2v-.8H3.5v-.7h5.1v-1h.8v1h5.1v.8H9.4V6h4.2v3.6H9.4v.9h2.9c-.1-.2-.3-.3-.4-.4zM5.2 7.4h3.4v-.8H5.2v.8zm0 1.4h3.4v-.7H5.2v.7zm.8 3h.9v1.3c0 .5.3.7.8.7h2.5c.5 0 .8-.2.9-.5.1-.3.1-.7.2-1.1.1 0 .4.2.9.4-.1.4-.1.8-.2 1.1-.1.7-.7 1-1.6 1H7.5c-1 0-1.5-.5-1.5-1.5v-1.4zm2.1 0l.6-.5c.6.5 1 1 1.4 1.4l-.7.6c-.4-.5-.8-1-1.3-1.5zm4.7-5.2H9.4v.8h3.4v-.8zm0 2.2v-.7H9.4v.8h3.4zm-.2 3.6l.7-.5c.4.5.9 1.1 1.6 1.8l-.9.6c-.3-.6-.8-1.2-1.4-1.9z"/></g></g></svg><svg id="icon32-en" width="36" height="20" viewBox="-1 -1 36 20" y="49"><style>.aust0{fill:#ff7200}.aust1{fill:#fff}</style><path id="auXMLID_34_" class="aust0" d="M32 18H2c-1.1 0-2-.9-2-2V2C0 .9.9 0 2 0h30c1.1 0 2 .9 2 2v14c0 1.1-.9 2-2 2z"/><g id="auXMLID_87_"><path id="auXMLID_96_" class="aust1" d="M5.8 12c.3.2.6.4 1.1.6s.9.2 1.3.2c1.3 0 1.9-.5 1.9-1.4 0-.3-.1-.5-.2-.7s-.3-.4-.6-.5-.6-.3-1.2-.7c-.9-.4-1.5-.8-1.8-1.2s-.4-.9-.4-1.4c0-.8.3-1.4.9-1.8s1.4-.7 2.3-.7c.9 0 1.6.1 2 .3V6c-.6-.3-1.3-.5-2.1-.5-.6 0-1 .1-1.4.3s-.5.6-.5 1 .1.7.4.9.7.6 1.5 1c.9.4 1.5.9 1.9 1.3s.5.9.5 1.4c0 .8-.3 1.4-.9 1.8s-1.4.6-2.4.6c-.4 0-.8 0-1.3-.1s-.8-.2-1-.4V12z"/><path id="auXMLID_93_" class="aust1" d="M13.2 7.7c.6-.4 1.4-.6 2.2-.6 1.6 0 2.3.8 2.3 2.5v4.2h-1.1v-1c-.4.8-1.1 1.2-2 1.2-.6 0-1.1-.2-1.5-.5s-.6-.8-.6-1.4c0-1.2.7-1.9 2.2-2.1l1.9-.3c0-1.1-.4-1.6-1.3-1.6-.8 0-1.5.3-2.1.8V7.7zm1.9 3c-.5.1-.9.2-1.1.4s-.3.5-.3.8c0 .3.1.6.3.8s.5.3.9.3c.5 0 .9-.2 1.2-.5s.5-.8.5-1.3v-.6l-1.5.1z"/><path id="auXMLID_91_" class="aust1" d="M19.7 13.7V4.1h1.1v9.6h-1.1z"/><path id="auXMLID_88_" class="aust1" d="M28.2 10.8h-4.5c0 .7.2 1.2.6 1.6s.9.6 1.5.6c.7 0 1.4-.2 2-.7v1c-.6.4-1.3.6-2.3.6-.9 0-1.7-.3-2.2-.9s-.8-1.4-.8-2.5c0-1 .3-1.8.9-2.5s1.3-1 2.1-1 1.5.3 2 .8.7 1.3.7 2.3v.7zM27 9.9c0-.6-.1-1-.4-1.4s-.7-.5-1.2-.5-.9.2-1.2.5-.5.8-.6 1.3H27z"/></g></svg><svg id="icon33" width="36" height="20" viewBox="-1 -1 36 20" x="72" y="69"><style>.avst0{fill:#b2b2b2}.avst1{fill:#fff}</style><path id="avXMLID_34_" class="avst0" d="M32 18H2c-1.1 0-2-.9-2-2V2C0 .9.9 0 2 0h30c1.1 0 2 .9 2 2v14c0 1.1-.9 2-2 2z"/><path class="avst1" d="M5.2 4.3h11.4v1h-5.7v2.6l.5-.9c1.8 1.1 3.3 2 4.5 2.8l-.7.9c-1.2-.9-2.7-1.9-4.3-2.9v6.9H9.8V5.2H5.2v-.9zM18.6 10.4c.7-.1 1.5-.2 2.5-.4 0 .3-.1.6-.1.9-1.3.2-2.4.4-3.4.6l-.2-.9c.5-.6 1.1-1.4 1.8-2.5-.6 0-1.2.1-1.8.1l-.2-.8c.7-1 1.5-2.4 2.2-4.2l.9.4c-.8 1.6-1.5 2.8-2.1 3.8.5 0 .9 0 1.4-.1.3-.5.5-1 .8-1.6l.9.4c-1 1.7-1.9 3.1-2.7 4.3zm-1.5 2.7c1.4-.3 2.8-.6 4.2-1v.9c-1.3.3-2.6.6-3.9 1l-.3-.9zm3.5.8c1.5-.5 2.7-1.1 3.8-1.8-.3-.7-.5-1.5-.7-2.5l-2.5.4-.1-.8 2.5-.4c-.1-.5-.1-1.1-.1-1.8l-2.1.2-.1-.8 2.2-.2c0-.8-.1-1.7-.1-2.8h1c0 1 0 1.9.1 2.7l3.9-.4.1.8-4 .5c0 .6.1 1.2.1 1.7l4-.6.1.8-4 .6c.1.8.3 1.5.5 2.1.8-.6 1.5-1.3 2.1-2.1l.8.6c-.7.8-1.5 1.6-2.4 2.3.3.5.7 1 1.1 1.2.5.3.8.1 1-.5.1-.5.2-1.1.2-1.7.4.2.7.3.9.3-.1.8-.3 1.5-.4 1.9-.2.7-.6 1-1.2 1s-1.1-.2-1.6-.7c-.3-.3-.6-.7-.8-1.1-1.1.7-2.3 1.3-3.6 1.8-.3-.1-.5-.4-.7-.7zm4.7-10l.5-.6c.6.4 1.1.8 1.8 1.3l-.6.7c-.7-.5-1.2-1-1.7-1.4z"/></svg><svg id="icon34" width="20" height="20" viewBox="-1 -1 20 20" y="89"><style>.awst0{fill:#ff7200}.awst1{fill:#fff}</style><path id="awXMLID_13_" class="awst0" d="M16 18H2c-1.1 0-2-.9-2-2V2C0 .9.9 0 2 0h14c1.1 0 2 .9 2 2v14c0 1.1-.9 2-2 2z"/><g id="awXMLID_1_"><g id="awXMLID_58_"><path id="awXMLID_59_" class="awst1" d="M6.8 10.7c0 .4.1.8.1 1.1l-1.6 1.6c-.2.2-.4.5-.6.7l-.7-.8c.3-.3.4-.7.4-1.1V8H3.2v-.9h2.2v5c.4-.3.9-.8 1.4-1.4zM4.3 3.5c.7.7 1.3 1.4 1.9 2l-.8.6c-.5-.6-1.1-1.3-1.7-2l.6-.6zm2.1 9.6l1.8-.3V9.2H6.6v-.8h4.1v.8H9.1v3.5c.6-.1 1.2-.2 1.9-.3v.9c-1.7.3-3.2.5-4.4.7l-.2-.9zm.2-7.5h4.3V3.2h.9v2.4h2.9v.9h-2.9c.1 3.3.4 5.6 1.1 6.8.2.4.4.6.6.6.1 0 .2-.2.3-.5.1-.5.1-1.1.2-1.9l.9.3c-.1.9-.2 1.6-.3 2-.1.7-.5 1-1 1-.4 0-.9-.3-1.3-.9-.8-1.2-1.3-3.6-1.4-7.4H6.6v-.9zM12.2 4l.5-.6c.6.5 1.1.9 1.5 1.2l-.6.7c-.4-.4-.9-.8-1.4-1.3z"/></g></g></svg><svg id="icon35" width="41" height="49" viewBox="-1 -1 41 49" x="82"><style>.axst0{fill:#ff7200}.axst1{fill:#fff}</style><g id="axXMLID_2_"><path id="axXMLID_15_" class="axst0" d="M39 0L0 47V18.8L15.2 0z"/><g id="axXMLID_76_"><path id="axXMLID_81_" class="axst1" d="M14.2 23.5l-.9 1.1-8.4-.9c-.2 0-.5-.1-.7-.1.2.1.5.4 1 .8l4.9 4-.7.9-7-5.7.9-1.1 8.2 1c.4 0 .6.1.7.1-.2-.1-.6-.4-1.1-.8l-4.8-4 .7-.9 7.2 5.6z"/><path id="axXMLID_79_" class="axst1" d="M18.8 17.9l-3.1 3.8-7-5.7 3-3.6.8.7-2.2 2.7 2.2 1.8 2.1-2.5.8.7-2.1 2.5 2.4 1.9 2.3-2.9.8.6z"/><path id="axXMLID_77_" class="axst1" d="M19.8 2.3l5.4 7.7-.8 1-6.2-2.7c-.3-.1-.6-.3-.8-.5.2.2.4.5.6.7l3.9 5.6-.9 1-8.7-3.7.8-1 6.5 2.9c.3.1.6.3.8.5-.2-.2-.4-.4-.6-.7l-4.1-5.9.7-.9 6.6 3c.2.1.5.2.8.4-.2-.2-.4-.4-.6-.7L19 3.2l.8-.9z"/></g></g></svg><svg id="icon7" width="36" height="20" viewBox="-1 -1 36 20" x="72" y="49"><style>.ayst0{fill:#ff7200}.ayst1{fill:#fff}</style><path id="ayXMLID_34_" class="ayst0" d="M32 18H2c-1.1 0-2-.9-2-2V2C0 .9.9 0 2 0h30c1.1 0 2 .9 2 2v14c0 1.1-.9 2-2 2z"/><g id="ayXMLID_4_"><g id="ayXMLID_61_"><path id="ayXMLID_66_" class="ayst1" d="M10.7 13.5H9.3l-4.6-7-.3-.6v7.7H3.3V4.5h1.5l4.4 6.9c.2.3.3.5.4.6 0-.3-.1-.7-.1-1.3V4.5h1.2v9z"/><path id="ayXMLID_64_" class="ayst1" d="M17.9 13.5H13v-9h4.7v1h-3.5v2.9h3.2v1h-3.2v3.1h3.7v1z"/><path id="ayXMLID_62_" class="ayst1" d="M30.7 4.5l-2.5 9.1h-1.4L25 7c-.1-.3-.1-.6-.1-.9 0 .3-.1.6-.2.9l-1.8 6.6h-1.4l-2.6-9.1h1.3l1.9 6.9c.1.3.1.6.1.9 0-.2.1-.5.2-.9l2-6.9h1.2l1.9 6.9c.1.2.1.5.2.9 0-.3.1-.6.2-.9l1.8-6.9h1z"/></g></g></svg><svg id="icon8" width="36" height="20" viewBox="-1 -1 36 20" x="36" y="49"><style>.azst0{fill:#b2b2b2}.azst1{fill:#fff}</style><path id="azXMLID_34_" class="azst0" d="M32 18H2c-1.1 0-2-.9-2-2V2C0 .9.9 0 2 0h30c1.1 0 2 .9 2 2v14c0 1.1-.9 2-2 2z"/><g id="azXMLID_2_"><path id="azXMLID_19_" class="azst1" d="M10.8 3.6l.8-.4c.3.4.7.9.9 1.3l-.4.3h4.3v.7h-4.2v.8H16V7h-3.8v.8H16v.7h-3.8v.9h4.4v.7H7.5v.5h-.9v-4c-.3.4-.6.8-.9 1.1-.2-.3-.4-.5-.6-.8 1.2-1.1 2.1-2.3 2.7-3.7l.8.3c-.1.4-.3.8-.6 1.2h3.6c-.2-.4-.5-.8-.8-1.1zm-4.1 7.5h8.9v3.8h-.9v-.6H7.5v.6h-.8v-3.8zm.8-4.9h3.8v-.8H7.6V6.2zm0 1.6h3.8V7H7.5v.8zm0 1.6h3.8v-.9H7.5v.9zm7.2 2.4H7.5v1.7h7.1v-1.7z"/><path id="azXMLID_3_" class="azst1" d="M17.8 11c-.2-.2-.3-.3-.6-.5.6-.6.9-1.4.9-2.3V6.7H23V9h-4.2c-.2.8-.5 1.5-1 2zm8.7 1.7h.8v2.2h-.8v-.4h-7.6v-1.8h.8v1.1h3v-1.4h-5.4v-.7h5.4v-.9h-2.5c-.2.3-.4.5-.7.8-.2-.2-.4-.4-.6-.5.5-.5 1-1 1.3-1.6h.9c-.1.2-.2.5-.4.7H27v.7h-3.5v.9h5.3v.7h-5.3v1.4h3v-1.2zm-8.7-7.3h2.3v-.7h-2.8V4h2.8v-.7h.8V4h2.6v.6h-2.6v.7h2.2v.6h-5.3v-.5zm1 1.9v1h1.4v-1h-1.4zm3.5 1.1v-1h-1.4v1h1.4zm1.3-1.3v-.7h4.6V7c-.4.6-.9 1.1-1.6 1.5.7.3 1.4.5 2.3.6-.1.3-.3.6-.4.8-1.1-.2-1.9-.5-2.7-.9-.7.4-1.5.7-2.5.9-.1-.2-.2-.5-.4-.7.8-.1 1.5-.4 2.2-.6-.5-.4-.9-.9-1.2-1.5h-.3zM25 4.4v.2c0 .7-.4 1.3-1.1 1.7l-.6-.6c.6-.3.9-.7.9-1.2v-.8h3.3V5c0 .2.1.3.3.3h1c-.1.2-.1.5-.2.7h-1.1c-.5 0-.8-.3-.8-.8v-.8H25zm2.2 2.7h-2.4c.3.4.7.8 1.1 1.1.5-.3.9-.7 1.3-1.1z"/></g></svg><svg id="icon8-en" width="36" height="20" viewBox="-1 -1 36 20" y="69"><style>.bast0{fill:#b2b2b2}.bast1{fill:#fff}</style><path id="baXMLID_34_" class="bast0" d="M32 18H2c-1.1 0-2-.9-2-2V2C0 .9.9 0 2 0h30c1.1 0 2 .9 2 2v14c0 1.1-.9 2-2 2z"/><g id="baXMLID_64_"><path id="baXMLID_69_" class="bast1" d="M4.6 9.1c0-1.5.4-2.6 1.2-3.5S7.7 4.3 9 4.3c1.3 0 2.3.4 3 1.3s1.2 2 1.2 3.3c0 1.5-.4 2.6-1.2 3.5s-1.8 1.3-3.2 1.3c-1.3 0-2.3-.4-3.1-1.3s-1.1-1.9-1.1-3.3zM5.8 9c0 1.1.3 2 .8 2.6s1.3 1 2.2 1c1 0 1.7-.3 2.3-1s.9-1.4.9-2.6c0-1.2-.3-2.1-.8-2.7s-1.3-1-2.2-1c-.9 0-1.7.3-2.2 1s-1 1.6-1 2.7z"/><path id="baXMLID_67_" class="bast1" d="M21.7 9.8c0 2.6-1.2 3.8-3.5 3.8-2.2 0-3.3-1.2-3.3-3.7V4.5H16V10c0 1.8.8 2.7 2.3 2.7 1.5 0 2.2-.9 2.2-2.6V4.5h1.2v5.3z"/><path id="baXMLID_65_" class="bast1" d="M29.4 5.5h-2.6v8h-1.2v-8H23v-1h6.4v1z"/></g></svg><svg width="18" height="18" viewBox="-1 -1 18 18" id="left-arrow-icon" x="108" y="109"><path fill="#888" d="M10 4v8L5 8z"/></svg><svg width="18" height="18" viewBox="-1 -1 18 18" id="left-arrow-icon-#bbb" x="141"><path fill="#bbb" d="M10 4v8L5 8z"/></svg><svg width="18" height="18" viewBox="-1 -1 18 18" id="page-next" x="141" y="18"><path fill="#888" d="M12 6H4l4 5z"/></svg><svg width="18" height="18" viewBox="-1 -1 18 18" id="right-arrow-icon" x="141" y="36"><path fill="#888" d="M6 12V4l5 4z"/></svg><svg width="18" height="18" viewBox="-1 -1 18 18" id="right-arrow-icon-#bbb" x="141" y="54"><path fill="#bbb" d="M6 12V4l5 4z"/></svg><svg width="18" height="18" viewBox="-1 -1 18 18" id="trend-down" x="141" y="72"><title>Rectangle</title><path fill="#0ABF5B" fill-rule="nonzero" d="M9 9V3H7v6H4l4 4 4-4z"/></svg><svg width="18" height="18" viewBox="-1 -1 18 18" id="trend-up" x="141" y="90"><title>Rectangle Copy</title><path fill="#E54545" fill-rule="nonzero" d="M9 7v6H7V7H4l4-4 4 4z"/></svg><svg width="18" height="18" viewBox="-1 -1 18 18" id="up-arrow-icon" x="141" y="108"><path fill="#888" d="M12 10H4l4-5z"/></svg><svg width="18" height="18" viewBox="-1 -1 18 18" id="yfwq" y="127"><path fill="#586376" d="M15.5 4L8 0 .5 4v7l4.2 2.3c.1-.3.3-.6.5-.9l-3.7-2V5.7L8 9.2l6.5-3.5v4.7l-5.5 3c-.3-.3-.6-.4-1-.4-.8 0-1.5.7-1.5 1.5S7.2 16 8 16s1.5-.7 1.5-1.5v-.3l6-3.2V4zM8 8.1L1.5 4.6 8 1.1l6.5 3.5L8 8.1z"/></svg></svg>