<svg width="118" height="100" viewBox="0 0 118 100" xmlns="http://www.w3.org/2000/svg" xmlns:xlink="http://www.w3.org/1999/xlink"><svg id="arrow-down" width="18" height="12" viewBox="-1 -1 30 20" x="100"><style>.aast0{fill-rule:evenodd;clip-rule:evenodd;fill:#7f7f7f}</style><g id="aaXMLID_2_"><g id="aaXMLID_22_"><path id="aaXMLID_23_" class="aast0" d="M28 3.4l-14 14-2.8-2.8L0 3.4 2.8.6 14 11.8 25.2.6z"/></g></g></svg><svg id="icon-contact-1" width="50" height="50" viewBox="228 -10 50 50"><style>.abst0{fill:url(#abSVGID_1_)}</style><linearGradient id="abSVGID_1_" gradientUnits="userSpaceOnUse" x1="268.596" y1="32.346" x2="234.654" y2="-1.595" gradientTransform="translate(1.375 -.375)"><stop offset="0" stop-color="#006eff"/><stop offset="1" stop-color="#00c8dc"/></linearGradient><path class="abst0" d="M253-9c-13.3 0-24 10.7-24 24s10.7 24 24 24 24-10.7 24-24-10.7-24-24-24zm0 46c-12.2 0-22-9.8-22-22s9.8-22 22-22 22 9.8 22 22-9.8 22-22 22zm8-20h-3.8c-.5 0-.7.1-.9.2l-2.8 2.1c-.3.2-.7.3-1 .1-1.6-.9-2.9-2.2-3.8-3.8-.2-.3-.1-.7.1-1l2.1-2.9c.1-.2.2-.4.2-.6V7c0-1.1-.9-2-2-2h-6c-1.1 0-2 .9-2 2.1.5 13.4 5.7 19.4 19.9 19.9 1.1 0 2.1-.8 2.1-2v-6c-.1-1.1-1-2-2.1-2zm0 7c0 .6-.5 1-1 1-12-.6-16.4-5-17-17 0-.6.4-1 1-1h4c.6 0 1 .4 1 1v2.7c0 .2-.1.4-.2.6l-1.9 2.7c-.4.6-.5 1.3-.1 1.9 1.2 2.3 3.1 4.2 5.4 5.4.6.3 1.4.3 2-.2l2.6-1.9c.2-.1.4-.2.6-.2h2.7c.6 0 1 .4 1 1-.1 1.1-.1 2.9-.1 4zm-7-19v2c3.9 0 7 3.1 7 7h2c0-5-4-9-9-9zm2 9h2c0-2.2-1.8-4-4-4v2c1.1 0 2 .9 2 2z"/></svg><svg id="icon-contact-2" width="50" height="50" viewBox="287 -10 50 50" x="50"><style>.acst0{fill-rule:evenodd;clip-rule:evenodd;fill:url(#acSVGID_1_)}</style><linearGradient id="acSVGID_1_" gradientUnits="userSpaceOnUse" x1="328.971" y1="31.971" x2="295.029" y2="-1.97"><stop offset="0" stop-color="#006eff"/><stop offset="1" stop-color="#00c8dc"/></linearGradient><path class="acst0" d="M312 39c-13.3 0-24-10.7-24-24s10.7-24 24-24 24 10.7 24 24-10.7 24-24 24zm0-46c-12.2 0-22 9.8-22 22s9.8 22 22 22 22-9.8 22-22-9.8-22-22-22zm3 34V17h8v10l-4-2-4 2zm6-8h-4v5l2-1 2 1v-5zm-9.5-4c-4.4 0-8 5.2-8.4 10h-2c.4-4.4 3.1-9.1 6.8-11.1-1.8-1.2-2.9-3.2-2.9-5.4 0-3.6 2.9-6.5 6.5-6.5s6.5 2.9 6.5 6.5-2.9 6.5-6.5 6.5zm0-11C309 4 307 6 307 8.5s2 4.5 4.5 4.5 4.5-2 4.5-4.5-2-4.5-4.5-4.5z"/></svg><svg id="icon-contact-3" width="50" height="50" viewBox="343 -10 50 50" y="50"><style>.adst0{fill-rule:evenodd;clip-rule:evenodd;fill:url(#adSVGID_1_)}</style><linearGradient id="adSVGID_1_" gradientUnits="userSpaceOnUse" x1="384.971" y1="32.971" x2="351.029" y2="-.971" gradientTransform="translate(0 -1)"><stop offset="0" stop-color="#006eff"/><stop offset="1" stop-color="#00c8dc"/></linearGradient><path class="adst0" d="M368-9c-13.3 0-24 10.7-24 24s10.7 24 24 24 24-10.7 24-24-10.7-24-24-24zm0 46c-12.2 0-22-9.8-22-22s9.8-22 22-22 22 9.8 22 22-9.8 22-22 22zm-4.4-25.9c-.9-.7-1.6-1.9-1.6-3.1 0-1.9 1.3-3.4 3-3.9-.3-.1-.6-.1-1-.1-2.2 0-4 1.8-4 4 0 1 .4 1.9 1 2.6-2.9 1.2-5 4.1-5 7.4 0 1.7 1.2 3.1 3 4-.7-1.1-1.2-2.5-1.2-3.9 0-3.5 2.5-6.3 5.8-7zm10.5 1.6c1.2-1 1.9-2.5 1.9-4.2 0-3-2.5-5.5-5.5-5.5S365 5.5 365 8.5c0 1.7.8 3.2 1.9 4.2-3.5 1.4-5.9 4.8-5.9 8.8 0 3.5 4.3 5.5 9.5 5.5s9.5-2 9.5-5.5c0-4-2.5-7.4-5.9-8.8zM370.5 5c1.9 0 3.5 1.6 3.5 3.5s-1.6 3.5-3.5 3.5-3.5-1.6-3.5-3.5 1.6-3.5 3.5-3.5zm0 20c-4.3 0-7.5-1.5-7.5-3.5 0-4.1 3.4-7.5 7.5-7.5s7.5 3.4 7.5 7.5c0 2-3.2 3.5-7.5 3.5z"/></svg><svg id="icon-contact-4" width="50" height="50" viewBox="402 -10 50 50" x="50" y="50"><style>.aest0{fill:url(#aeSVGID_1_)}</style><linearGradient id="aeSVGID_1_" gradientUnits="userSpaceOnUse" x1="443.971" y1="30.971" x2="410.029" y2="-2.97" gradientTransform="translate(0 1)"><stop offset="0" stop-color="#006eff"/><stop offset="1" stop-color="#00c8dc"/></linearGradient><path class="aest0" d="M427-9c-13.3 0-24 10.7-24 24s10.7 24 24 24 24-10.7 24-24-10.7-24-24-24zm0 46c-12.2 0-22-9.8-22-22s9.8-22 22-22 22 9.8 22 22-9.8 22-22 22zm-6-22h12v-2h-12v2zm12-12h-12v2h-5v22h22V5h-5V3zm-10 2h8v2h-8V5zm13 2v18h-18V7h3v2h12V7h3zm-15 14h12v-2h-12v2z"/></svg></svg>