<?xml version="1.0" encoding="UTF-8"?><svg width="102" height="84" viewBox="0 0 102 84" xmlns="http://www.w3.org/2000/svg" xmlns:xlink="http://www.w3.org/1999/xlink"><svg width="14" height="10" viewBox="-1 -1 14 10" id="accordion-arrow" x="84" y="36"><title>Combined Shape Copy</title><path d="M6 4.927L10.278.318a.958.958 0 0 1 1.427 0 1.147 1.147 0 0 1 0 1.537L6 8 .295 1.855a1.147 1.147 0 0 1 0-1.537.958.958 0 0 1 1.427 0L6 4.928z" fill="#999" fill-rule="evenodd"/></svg><svg id="icon-step" width="18" height="18" viewBox="-1 -1 18 18" x="84"><style>.abst0{clip-path:url(#abSVGID_2_)}.abst1{clip-path:url(#abXMLID_8_);fill:#989898}</style><defs><path id="abSVGID_1_" d="M16 13c0 .6-.4 1-1 1H7c-.6 0-1-.4-1-1s.4-1 1-1h8c.6 0 1 .4 1 1zm0-5c0 .6-.4 1-1 1H7c-.6 0-1-.4-1-1s.4-1 1-1h8c.6 0 1 .4 1 1zm0-5c0 .6-.4 1-1 1H7c-.6 0-1-.4-1-1s.4-1 1-1h8c.6 0 1 .4 1 1zM3 9.7c.6-.3 1-1 1-1.7s-.4-1.4-1-1.7V4.7c.6-.3 1-1 1-1.7 0-1.1-.9-2-2-2s-2 .9-2 2c0 .7.4 1.4 1 1.7v1.5C.4 6.6 0 7.3 0 8s.4 1.4 1 1.7v1.5c-.6.3-1 1-1 1.7 0 1.1.9 2 2 2s2-.9 2-2c0-.7-.4-1.4-1-1.7V9.7z"/></defs><clipPath id="abSVGID_2_"><use xlink:href="#abSVGID_1_" overflow="visible"/></clipPath><g class="abst0"><defs><path id="abXMLID_5_" d="M-400-1187h1920v4750H-400z"/></defs><clipPath id="abXMLID_8_"><use xlink:href="#abXMLID_5_" overflow="visible"/></clipPath><path id="abXMLID_6_" class="abst1" d="M-5-4h26v24H-5z"/></g></svg><svg id="icon-time" width="18" height="18" viewBox="-1 -1 18 18" x="34" y="50"><style>.acst0{clip-path:url(#acSVGID_2_)}.acst1{clip-path:url(#acXMLID_7_);fill:#989898}</style><defs><path id="acSVGID_1_" d="M8 2C4.7 2 2 4.7 2 8s2.7 6 6 6 6-2.7 6-6-2.7-6-6-6zm0-2c4.4 0 8 3.6 8 8s-3.6 8-8 8-8-3.6-8-8 3.6-8 8-8zm1 7.6l1.7 1c.5.3.6.9.4 1.4s-.9.6-1.4.4L7 8.7V5c0-.6.4-1 1-1s1 .4 1 1v2.6z"/></defs><clipPath id="acSVGID_2_"><use xlink:href="#acSVGID_1_" overflow="visible"/></clipPath><g class="acst0"><defs><path id="acXMLID_4_" d="M-495-1187h1920v4750H-495z"/></defs><clipPath id="acXMLID_7_"><use xlink:href="#acXMLID_4_" overflow="visible"/></clipPath><path id="acXMLID_5_" class="acst1" d="M-5-5h26v26H-5z"/></g></svg><svg id="icon-video" width="18" height="18" viewBox="-1 -1 18 18" x="52" y="50"><style>.adst0{clip-path:url(#adSVGID_2_)}.adst1{clip-path:url(#adXMLID_7_);fill:#989898}</style><defs><path id="adSVGID_1_" d="M2 2v12h12V2H2zm4 3l5 3-5 3V5zM1 0h14c.6 0 1 .4 1 1v14c0 .6-.4 1-1 1H1c-.6 0-1-.4-1-1V1c0-.6.4-1 1-1z"/></defs><clipPath id="adSVGID_2_"><use xlink:href="#adSVGID_1_" overflow="visible"/></clipPath><g class="adst0"><defs><path id="adXMLID_4_" d="M-401-2814h1920v4750H-401z"/></defs><clipPath id="adXMLID_7_"><use xlink:href="#adXMLID_4_" overflow="visible"/></clipPath><path id="adXMLID_5_" class="adst1" d="M-5-5h26v26H-5z"/></g></svg><svg width="50" height="50" viewBox="-1 -1 50 50" id="icon-video-play"><title>Group 2</title><path d="M24 48C10.745 48 0 37.255 0 24S10.745 0 24 0s24 10.745 24 24-10.745 24-24 24zm8.115-23.18a1 1 0 0 0 0-1.64l-11.542-8.079a1 1 0 0 0-1.573.82v16.158a1 1 0 0 0 1.573.82l11.542-8.08z" fill="#FFF" fill-rule="evenodd"/></svg><svg width="7" height="10" viewBox="-1 -1 7 10" id="link-arrow" x="91" y="53"><title>Combined Shape</title><path d="M.714 8L5 4 .714 0 0 .667 3.571 4 0 7.333z" fill="#00A2FF" fill-rule="evenodd"/></svg><svg width="7" height="10" viewBox="-1 -1 7 10" id="link-arrow-#fff" x="84" y="53"><path d="M.714 8L5 4 .714 0 0 .667 3.571 4 0 7.333z" fill="#fff" fill-rule="evenodd"/></svg><svg width="10" height="7" viewBox="-1 -1 10 7" id="link-arrow-down" x="84" y="46"><title>Combined Shape</title><path d="M0 .714L4 5 8 .714 7.333 0 4 3.571.667 0z" fill="#00A2FF" fill-rule="evenodd"/></svg><svg id="select-arrow" width="18" height="18" viewBox="-1 -1 18 18" x="84" y="18"><style>.aist0{clip-path:url(#aiXMLID_5_)}.aist1{clip-path:url(#aiXMLID_6_);fill:#989898}</style><defs><path id="aiXMLID_1_" d="M8 8.9L3.7 4.3c-.4-.4-1-.4-1.4 0s-.4 1.1 0 1.5L8 12l5.7-6.1c.4-.4.4-1.1 0-1.5-.4-.4-1-.4-1.4 0L8 8.9z"/></defs><clipPath id="aiXMLID_5_"><use xlink:href="#aiXMLID_1_" overflow="visible"/></clipPath><g class="aist0"><defs><path id="aiXMLID_2_" d="M-645-287h1920v2578H-645z"/></defs><clipPath id="aiXMLID_6_"><use xlink:href="#aiXMLID_2_" overflow="visible"/></clipPath><path id="aiXMLID_3_" class="aist1" d="M-3-1h22v18H-3z"/></g></svg><svg id="video-close" width="34" height="34" viewBox="-1 -1 34 34" y="50"><style>.ajst0{fill:#fff}</style><path id="ajXMLID_1_" transform="rotate(45.001 16.021 16)" class="ajst0" d="M15-2.4h2v36.7h-2z"/><path id="ajXMLID_2_" transform="rotate(134.999 16.02 16)" class="ajst0" d="M15-2.4h2v36.7h-2z"/></svg><svg width="34" height="34" viewBox="-1 -1 34 34" id="video-close-#00a4ff" x="50"><style>.akst0{fill:#00a4ff}</style><path class="akst0" d="M28.31 2.267l1.414 1.415-25.95 25.95-1.415-1.414z"/><path class="akst0" d="M29.754 28.289l-1.415 1.414L2.39 3.753l1.414-1.415z"/></svg></svg>