<?xml version="1.0" encoding="UTF-8"?>
<svg width="264px" height="189px" viewBox="0 0 264 189" version="1.1" xmlns="http://www.w3.org/2000/svg" xmlns:xlink="http://www.w3.org/1999/xlink">
    <!-- Generator: Sketch 60.1 (88133) - https://sketch.com -->
    <title>编组 7</title>
    <desc>Created with Sketch.</desc>
    <defs>
        <linearGradient x1="-21.4842688%" y1="40.3271432%" x2="107.073436%" y2="32.1478365%" id="linearGradient-1">
            <stop stop-color="#161616" offset="0%"></stop>
            <stop stop-color="#AD9354" offset="100%"></stop>
        </linearGradient>
    </defs>
    <g id="页面-1" stroke="none" stroke-width="1" fill="none" fill-rule="evenodd" opacity="0.796688988">
        <g id="首页" transform="translate(-1263.000000, -3332.000000)" fill="url(#linearGradient-1)" fill-rule="nonzero">
            <g id="编组-7" transform="translate(1263.000000, 3332.000000)">
                <path d="M200.213115,5.29069767 C198.755445,5.29069767 197.57377,4.10633466 197.57377,2.64534884 C197.57377,1.18436302 198.755445,1.37667655e-13 200.213115,1.37667655e-13 C201.670784,1.37667655e-13 202.852459,1.18436302 202.852459,2.64534884 C202.852459,4.10633466 201.670784,5.29069767 200.213115,5.29069767 Z" id="Path"></path>
                <path d="M200.213115,126.976744 C198.755445,126.976744 197.57377,125.792381 197.57377,124.331395 C197.57377,122.87041 198.755445,121.686047 200.213115,121.686047 C201.670784,121.686047 202.852459,122.87041 202.852459,124.331395 C202.852459,125.792381 201.670784,126.976744 200.213115,126.976744 Z" id="Path"></path>
                <path d="M200.213115,65.755814 C198.755445,65.755814 197.57377,64.5714509 197.57377,63.1104651 C197.57377,61.6494793 198.755445,60.4651163 200.213115,60.4651163 C201.670784,60.4651163 202.852459,61.6494793 202.852459,63.1104651 C202.852459,64.5714509 201.670784,65.755814 200.213115,65.755814 Z" id="Path"></path>
                <path d="M200.213115,188.197674 C198.755445,188.197674 197.57377,187.013311 197.57377,185.552326 C197.57377,184.09134 198.755445,182.906977 200.213115,182.906977 C201.670784,182.906977 202.852459,184.09134 202.852459,185.552326 C202.852459,187.013311 201.670784,188.197674 200.213115,188.197674 Z" id="Path"></path>
                <path d="M200.213115,20.4069767 C198.755445,20.4069767 197.57377,19.2226137 197.57377,17.7616279 C197.57377,16.3006421 198.755445,15.1162791 200.213115,15.1162791 C201.670784,15.1162791 202.852459,16.3006421 202.852459,17.7616279 C202.852459,19.2226137 201.670784,20.4069767 200.213115,20.4069767 Z" id="Path"></path>
                <path d="M200.213115,142.093023 C198.755445,142.093023 197.57377,140.90866 197.57377,139.447674 C197.57377,137.986689 198.755445,136.802326 200.213115,136.802326 C201.670784,136.802326 202.852459,137.986689 202.852459,139.447674 C202.852459,140.90866 201.670784,142.093023 200.213115,142.093023 Z" id="Path"></path>
                <path d="M200.213115,81.627907 C198.755445,81.627907 197.57377,80.443544 197.57377,78.9825581 C197.57377,77.5215723 198.755445,76.3372093 200.213115,76.3372093 C201.670784,76.3372093 202.852459,77.5215723 202.852459,78.9825581 C202.852459,80.443544 201.670784,81.627907 200.213115,81.627907 Z" id="Path"></path>
                <path d="M200.213115,35.5232558 C198.755445,35.5232558 197.57377,34.3388928 197.57377,32.877907 C197.57377,31.4169212 198.755445,30.2325581 200.213115,30.2325581 C201.670784,30.2325581 202.852459,31.4169212 202.852459,32.877907 C202.852459,34.3388928 201.670784,35.5232558 200.213115,35.5232558 Z" id="Path"></path>
                <path d="M200.213115,157.209302 C198.755445,157.209302 197.57377,156.024939 197.57377,154.563953 C197.57377,153.102968 198.755445,151.918605 200.213115,151.918605 C201.670784,151.918605 202.852459,153.102968 202.852459,154.563953 C202.852459,156.024939 201.670784,157.209302 200.213115,157.209302 Z" id="Path"></path>
                <path d="M200.213115,96.744186 C198.755445,96.744186 197.57377,95.559823 197.57377,94.0988372 C197.57377,92.6378514 198.755445,91.4534884 200.213115,91.4534884 C201.670784,91.4534884 202.852459,92.6378514 202.852459,94.0988372 C202.852459,95.559823 201.670784,96.744186 200.213115,96.744186 Z" id="Path"></path>
                <path d="M200.213115,50.6395349 C198.755445,50.6395349 197.57377,49.4551719 197.57377,47.994186 C197.57377,46.5332002 198.755445,45.3488372 200.213115,45.3488372 C201.670784,45.3488372 202.852459,46.5332002 202.852459,47.994186 C202.852459,49.4551719 201.670784,50.6395349 200.213115,50.6395349 Z" id="Path"></path>
                <path d="M200.213115,173.081395 C198.755445,173.081395 197.57377,171.897032 197.57377,170.436047 C197.57377,168.975061 198.755445,167.790698 200.213115,167.790698 C201.670784,167.790698 202.852459,168.975061 202.852459,170.436047 C202.852459,171.897032 201.670784,173.081395 200.213115,173.081395 Z" id="Path"></path>
                <path d="M200.213115,111.860465 C198.755445,111.860465 197.57377,110.676102 197.57377,109.215116 C197.57377,107.75413 198.755445,106.569767 200.213115,106.569767 C201.670784,106.569767 202.852459,107.75413 202.852459,109.215116 C202.852459,110.676102 201.670784,111.860465 200.213115,111.860465 Z" id="Path"></path>
                <path d="M260.540984,5.29069767 C259.083314,5.29069767 257.901639,4.10633466 257.901639,2.64534884 C257.901639,1.18436302 259.083314,1.37667655e-13 260.540984,1.37667655e-13 C261.998653,1.37667655e-13 263.180328,1.18436302 263.180328,2.64534884 C263.180328,4.10633466 261.998653,5.29069767 260.540984,5.29069767 Z" id="Path"></path>
                <path d="M260.540984,126.976744 C259.083314,126.976744 257.901639,125.792381 257.901639,124.331395 C257.901639,122.87041 259.083314,121.686047 260.540984,121.686047 C261.998653,121.686047 263.180328,122.87041 263.180328,124.331395 C263.180328,125.792381 261.998653,126.976744 260.540984,126.976744 Z" id="Path"></path>
                <path d="M260.540984,65.755814 C259.083314,65.755814 257.901639,64.5714509 257.901639,63.1104651 C257.901639,61.6494793 259.083314,60.4651163 260.540984,60.4651163 C261.998653,60.4651163 263.180328,61.6494793 263.180328,63.1104651 C263.180328,64.5714509 261.998653,65.755814 260.540984,65.755814 Z" id="Path"></path>
                <path d="M260.540984,188.197674 C259.083314,188.197674 257.901639,187.013311 257.901639,185.552326 C257.901639,184.09134 259.083314,182.906977 260.540984,182.906977 C261.998653,182.906977 263.180328,184.09134 263.180328,185.552326 C263.180328,187.013311 261.998653,188.197674 260.540984,188.197674 Z" id="Path"></path>
                <path d="M260.540984,20.4069767 C259.083314,20.4069767 257.901639,19.2226137 257.901639,17.7616279 C257.901639,16.3006421 259.083314,15.1162791 260.540984,15.1162791 C261.998653,15.1162791 263.180328,16.3006421 263.180328,17.7616279 C263.180328,19.2226137 261.998653,20.4069767 260.540984,20.4069767 Z" id="Path"></path>
                <path d="M260.540984,142.093023 C259.083314,142.093023 257.901639,140.90866 257.901639,139.447674 C257.901639,137.986689 259.083314,136.802326 260.540984,136.802326 C261.998653,136.802326 263.180328,137.986689 263.180328,139.447674 C263.180328,140.90866 261.998653,142.093023 260.540984,142.093023 Z" id="Path"></path>
                <path d="M260.540984,81.627907 C259.083314,81.627907 257.901639,80.443544 257.901639,78.9825581 C257.901639,77.5215723 259.083314,76.3372093 260.540984,76.3372093 C261.998653,76.3372093 263.180328,77.5215723 263.180328,78.9825581 C263.180328,80.443544 261.998653,81.627907 260.540984,81.627907 Z" id="Path"></path>
                <path d="M260.540984,35.5232558 C259.083314,35.5232558 257.901639,34.3388928 257.901639,32.877907 C257.901639,31.4169212 259.083314,30.2325581 260.540984,30.2325581 C261.998653,30.2325581 263.180328,31.4169212 263.180328,32.877907 C263.180328,34.3388928 261.998653,35.5232558 260.540984,35.5232558 Z" id="Path"></path>
                <path d="M260.540984,157.209302 C259.083314,157.209302 257.901639,156.024939 257.901639,154.563953 C257.901639,153.102968 259.083314,151.918605 260.540984,151.918605 C261.998653,151.918605 263.180328,153.102968 263.180328,154.563953 C263.180328,156.024939 261.998653,157.209302 260.540984,157.209302 Z" id="Path"></path>
                <path d="M260.540984,96.744186 C259.083314,96.744186 257.901639,95.559823 257.901639,94.0988372 C257.901639,92.6378514 259.083314,91.4534884 260.540984,91.4534884 C261.998653,91.4534884 263.180328,92.6378514 263.180328,94.0988372 C263.180328,95.559823 261.998653,96.744186 260.540984,96.744186 Z" id="Path"></path>
                <path d="M260.540984,50.6395349 C259.083314,50.6395349 257.901639,49.4551719 257.901639,47.994186 C257.901639,46.5332002 259.083314,45.3488372 260.540984,45.3488372 C261.998653,45.3488372 263.180328,46.5332002 263.180328,47.994186 C263.180328,49.4551719 261.998653,50.6395349 260.540984,50.6395349 Z" id="Path"></path>
                <path d="M260.540984,173.081395 C259.083314,173.081395 257.901639,171.897032 257.901639,170.436047 C257.901639,168.975061 259.083314,167.790698 260.540984,167.790698 C261.998653,167.790698 263.180328,168.975061 263.180328,170.436047 C263.180328,171.897032 261.998653,173.081395 260.540984,173.081395 Z" id="Path"></path>
                <path d="M260.540984,111.860465 C259.083314,111.860465 257.901639,110.676102 257.901639,109.215116 C257.901639,107.75413 259.083314,106.569767 260.540984,106.569767 C261.998653,106.569767 263.180328,107.75413 263.180328,109.215116 C263.180328,110.676102 261.998653,111.860465 260.540984,111.860465 Z" id="Path"></path>
                <path d="M230.377049,5.29069767 C228.91938,5.29069767 227.737705,4.10633466 227.737705,2.64534884 C227.737705,1.18436302 228.91938,1.37667655e-13 230.377049,1.37667655e-13 C231.834719,1.37667655e-13 233.016393,1.18436302 233.016393,2.64534884 C233.016393,4.10633466 231.834719,5.29069767 230.377049,5.29069767 Z" id="Path"></path>
                <path d="M230.377049,126.976744 C228.91938,126.976744 227.737705,125.792381 227.737705,124.331395 C227.737705,122.87041 228.91938,121.686047 230.377049,121.686047 C231.834719,121.686047 233.016393,122.87041 233.016393,124.331395 C233.016393,125.792381 231.834719,126.976744 230.377049,126.976744 Z" id="Path"></path>
                <path d="M230.377049,65.755814 C228.91938,65.755814 227.737705,64.5714509 227.737705,63.1104651 C227.737705,61.6494793 228.91938,60.4651163 230.377049,60.4651163 C231.834719,60.4651163 233.016393,61.6494793 233.016393,63.1104651 C233.016393,64.5714509 231.834719,65.755814 230.377049,65.755814 Z" id="Path"></path>
                <path d="M230.377049,188.197674 C228.91938,188.197674 227.737705,187.013311 227.737705,185.552326 C227.737705,184.09134 228.91938,182.906977 230.377049,182.906977 C231.834719,182.906977 233.016393,184.09134 233.016393,185.552326 C233.016393,187.013311 231.834719,188.197674 230.377049,188.197674 Z" id="Path"></path>
                <path d="M230.377049,20.4069767 C228.91938,20.4069767 227.737705,19.2226137 227.737705,17.7616279 C227.737705,16.3006421 228.91938,15.1162791 230.377049,15.1162791 C231.834719,15.1162791 233.016393,16.3006421 233.016393,17.7616279 C233.016393,19.2226137 231.834719,20.4069767 230.377049,20.4069767 Z" id="Path"></path>
                <path d="M230.377049,142.093023 C228.91938,142.093023 227.737705,140.90866 227.737705,139.447674 C227.737705,137.986689 228.91938,136.802326 230.377049,136.802326 C231.834719,136.802326 233.016393,137.986689 233.016393,139.447674 C233.016393,140.90866 231.834719,142.093023 230.377049,142.093023 Z" id="Path"></path>
                <path d="M230.377049,81.627907 C228.91938,81.627907 227.737705,80.443544 227.737705,78.9825581 C227.737705,77.5215723 228.91938,76.3372093 230.377049,76.3372093 C231.834719,76.3372093 233.016393,77.5215723 233.016393,78.9825581 C233.016393,80.443544 231.834719,81.627907 230.377049,81.627907 Z" id="Path"></path>
                <path d="M230.377049,35.5232558 C228.91938,35.5232558 227.737705,34.3388928 227.737705,32.877907 C227.737705,31.4169212 228.91938,30.2325581 230.377049,30.2325581 C231.834719,30.2325581 233.016393,31.4169212 233.016393,32.877907 C233.016393,34.3388928 231.834719,35.5232558 230.377049,35.5232558 Z" id="Path"></path>
                <path d="M230.377049,157.209302 C228.91938,157.209302 227.737705,156.024939 227.737705,154.563953 C227.737705,153.102968 228.91938,151.918605 230.377049,151.918605 C231.834719,151.918605 233.016393,153.102968 233.016393,154.563953 C233.016393,156.024939 231.834719,157.209302 230.377049,157.209302 Z" id="Path"></path>
                <path d="M230.377049,96.744186 C228.91938,96.744186 227.737705,95.559823 227.737705,94.0988372 C227.737705,92.6378514 228.91938,91.4534884 230.377049,91.4534884 C231.834719,91.4534884 233.016393,92.6378514 233.016393,94.0988372 C233.016393,95.559823 231.834719,96.744186 230.377049,96.744186 Z" id="Path"></path>
                <path d="M230.377049,50.6395349 C228.91938,50.6395349 227.737705,49.4551719 227.737705,47.994186 C227.737705,46.5332002 228.91938,45.3488372 230.377049,45.3488372 C231.834719,45.3488372 233.016393,46.5332002 233.016393,47.994186 C233.016393,49.4551719 231.834719,50.6395349 230.377049,50.6395349 Z" id="Path"></path>
                <path d="M230.377049,173.081395 C228.91938,173.081395 227.737705,171.897032 227.737705,170.436047 C227.737705,168.975061 228.91938,167.790698 230.377049,167.790698 C231.834719,167.790698 233.016393,168.975061 233.016393,170.436047 C233.016393,171.897032 231.834719,173.081395 230.377049,173.081395 Z" id="Path"></path>
                <path d="M230.377049,111.860465 C228.91938,111.860465 227.737705,110.676102 227.737705,109.215116 C227.737705,107.75413 228.91938,106.569767 230.377049,106.569767 C231.834719,106.569767 233.016393,107.75413 233.016393,109.215116 C233.016393,110.676102 231.834719,111.860465 230.377049,111.860465 Z" id="Path"></path>
                <path d="M215.295082,5.29069767 C213.837412,5.29069767 212.655738,4.10633466 212.655738,2.64534884 C212.655738,1.18436302 213.837412,1.37667655e-13 215.295082,1.37667655e-13 C216.752752,1.37667655e-13 217.934426,1.18436302 217.934426,2.64534884 C217.934426,4.10633466 216.752752,5.29069767 215.295082,5.29069767 Z" id="Path"></path>
                <path d="M215.295082,126.976744 C213.837412,126.976744 212.655738,125.792381 212.655738,124.331395 C212.655738,122.87041 213.837412,121.686047 215.295082,121.686047 C216.752752,121.686047 217.934426,122.87041 217.934426,124.331395 C217.934426,125.792381 216.752752,126.976744 215.295082,126.976744 Z" id="Path"></path>
                <path d="M215.295082,65.755814 C213.837412,65.755814 212.655738,64.5714509 212.655738,63.1104651 C212.655738,61.6494793 213.837412,60.4651163 215.295082,60.4651163 C216.752752,60.4651163 217.934426,61.6494793 217.934426,63.1104651 C217.934426,64.5714509 216.752752,65.755814 215.295082,65.755814 Z" id="Path"></path>
                <path d="M215.295082,188.197674 C213.837412,188.197674 212.655738,187.013311 212.655738,185.552326 C212.655738,184.09134 213.837412,182.906977 215.295082,182.906977 C216.752752,182.906977 217.934426,184.09134 217.934426,185.552326 C217.934426,187.013311 216.752752,188.197674 215.295082,188.197674 Z" id="Path"></path>
                <path d="M215.295082,20.4069767 C213.837412,20.4069767 212.655738,19.2226137 212.655738,17.7616279 C212.655738,16.3006421 213.837412,15.1162791 215.295082,15.1162791 C216.752752,15.1162791 217.934426,16.3006421 217.934426,17.7616279 C217.934426,19.2226137 216.752752,20.4069767 215.295082,20.4069767 Z" id="Path"></path>
                <path d="M215.295082,142.093023 C213.837412,142.093023 212.655738,140.90866 212.655738,139.447674 C212.655738,137.986689 213.837412,136.802326 215.295082,136.802326 C216.752752,136.802326 217.934426,137.986689 217.934426,139.447674 C217.934426,140.90866 216.752752,142.093023 215.295082,142.093023 Z" id="Path"></path>
                <path d="M215.295082,81.627907 C213.837412,81.627907 212.655738,80.443544 212.655738,78.9825581 C212.655738,77.5215723 213.837412,76.3372093 215.295082,76.3372093 C216.752752,76.3372093 217.934426,77.5215723 217.934426,78.9825581 C217.934426,80.443544 216.752752,81.627907 215.295082,81.627907 Z" id="Path"></path>
                <path d="M215.295082,35.5232558 C213.837412,35.5232558 212.655738,34.3388928 212.655738,32.877907 C212.655738,31.4169212 213.837412,30.2325581 215.295082,30.2325581 C216.752752,30.2325581 217.934426,31.4169212 217.934426,32.877907 C217.934426,34.3388928 216.752752,35.5232558 215.295082,35.5232558 Z" id="Path"></path>
                <path d="M215.295082,157.209302 C213.837412,157.209302 212.655738,156.024939 212.655738,154.563953 C212.655738,153.102968 213.837412,151.918605 215.295082,151.918605 C216.752752,151.918605 217.934426,153.102968 217.934426,154.563953 C217.934426,156.024939 216.752752,157.209302 215.295082,157.209302 Z" id="Path"></path>
                <path d="M215.295082,96.744186 C213.837412,96.744186 212.655738,95.559823 212.655738,94.0988372 C212.655738,92.6378514 213.837412,91.4534884 215.295082,91.4534884 C216.752752,91.4534884 217.934426,92.6378514 217.934426,94.0988372 C217.934426,95.559823 216.752752,96.744186 215.295082,96.744186 Z" id="Path"></path>
                <path d="M215.295082,50.6395349 C213.837412,50.6395349 212.655738,49.4551719 212.655738,47.994186 C212.655738,46.5332002 213.837412,45.3488372 215.295082,45.3488372 C216.752752,45.3488372 217.934426,46.5332002 217.934426,47.994186 C217.934426,49.4551719 216.752752,50.6395349 215.295082,50.6395349 Z" id="Path"></path>
                <path d="M215.295082,173.081395 C213.837412,173.081395 212.655738,171.897032 212.655738,170.436047 C212.655738,168.975061 213.837412,167.790698 215.295082,167.790698 C216.752752,167.790698 217.934426,168.975061 217.934426,170.436047 C217.934426,171.897032 216.752752,173.081395 215.295082,173.081395 Z" id="Path"></path>
                <path d="M215.295082,111.860465 C213.837412,111.860465 212.655738,110.676102 212.655738,109.215116 C212.655738,107.75413 213.837412,106.569767 215.295082,106.569767 C216.752752,106.569767 217.934426,107.75413 217.934426,109.215116 C217.934426,110.676102 216.752752,111.860465 215.295082,111.860465 Z" id="Path"></path>
                <path d="M245.459016,5.29069767 C244.001347,5.29069767 242.819672,4.10633466 242.819672,2.64534884 C242.819672,1.18436302 244.001347,1.37667655e-13 245.459016,1.37667655e-13 C246.916686,1.37667655e-13 248.098361,1.18436302 248.098361,2.64534884 C248.098361,4.10633466 246.916686,5.29069767 245.459016,5.29069767 Z" id="Path"></path>
                <path d="M245.459016,126.976744 C244.001347,126.976744 242.819672,125.792381 242.819672,124.331395 C242.819672,122.87041 244.001347,121.686047 245.459016,121.686047 C246.916686,121.686047 248.098361,122.87041 248.098361,124.331395 C248.098361,125.792381 246.916686,126.976744 245.459016,126.976744 Z" id="Path"></path>
                <path d="M245.459016,65.755814 C244.001347,65.755814 242.819672,64.5714509 242.819672,63.1104651 C242.819672,61.6494793 244.001347,60.4651163 245.459016,60.4651163 C246.916686,60.4651163 248.098361,61.6494793 248.098361,63.1104651 C248.098361,64.5714509 246.916686,65.755814 245.459016,65.755814 Z" id="Path"></path>
                <path d="M245.459016,188.197674 C244.001347,188.197674 242.819672,187.013311 242.819672,185.552326 C242.819672,184.09134 244.001347,182.906977 245.459016,182.906977 C246.916686,182.906977 248.098361,184.09134 248.098361,185.552326 C248.098361,187.013311 246.916686,188.197674 245.459016,188.197674 Z" id="Path"></path>
                <path d="M245.459016,20.4069767 C244.001347,20.4069767 242.819672,19.2226137 242.819672,17.7616279 C242.819672,16.3006421 244.001347,15.1162791 245.459016,15.1162791 C246.916686,15.1162791 248.098361,16.3006421 248.098361,17.7616279 C248.098361,19.2226137 246.916686,20.4069767 245.459016,20.4069767 Z" id="Path"></path>
                <path d="M245.459016,142.093023 C244.001347,142.093023 242.819672,140.90866 242.819672,139.447674 C242.819672,137.986689 244.001347,136.802326 245.459016,136.802326 C246.916686,136.802326 248.098361,137.986689 248.098361,139.447674 C248.098361,140.90866 246.916686,142.093023 245.459016,142.093023 Z" id="Path"></path>
                <path d="M245.459016,81.627907 C244.001347,81.627907 242.819672,80.443544 242.819672,78.9825581 C242.819672,77.5215723 244.001347,76.3372093 245.459016,76.3372093 C246.916686,76.3372093 248.098361,77.5215723 248.098361,78.9825581 C248.098361,80.443544 246.916686,81.627907 245.459016,81.627907 Z" id="Path"></path>
                <path d="M245.459016,35.5232558 C244.001347,35.5232558 242.819672,34.3388928 242.819672,32.877907 C242.819672,31.4169212 244.001347,30.2325581 245.459016,30.2325581 C246.916686,30.2325581 248.098361,31.4169212 248.098361,32.877907 C248.098361,34.3388928 246.916686,35.5232558 245.459016,35.5232558 Z" id="Path"></path>
                <path d="M245.459016,157.209302 C244.001347,157.209302 242.819672,156.024939 242.819672,154.563953 C242.819672,153.102968 244.001347,151.918605 245.459016,151.918605 C246.916686,151.918605 248.098361,153.102968 248.098361,154.563953 C248.098361,156.024939 246.916686,157.209302 245.459016,157.209302 Z" id="Path"></path>
                <path d="M245.459016,96.744186 C244.001347,96.744186 242.819672,95.559823 242.819672,94.0988372 C242.819672,92.6378514 244.001347,91.4534884 245.459016,91.4534884 C246.916686,91.4534884 248.098361,92.6378514 248.098361,94.0988372 C248.098361,95.559823 246.916686,96.744186 245.459016,96.744186 Z" id="Path"></path>
                <path d="M245.459016,50.6395349 C244.001347,50.6395349 242.819672,49.4551719 242.819672,47.994186 C242.819672,46.5332002 244.001347,45.3488372 245.459016,45.3488372 C246.916686,45.3488372 248.098361,46.5332002 248.098361,47.994186 C248.098361,49.4551719 246.916686,50.6395349 245.459016,50.6395349 Z" id="Path"></path>
                <path d="M245.459016,173.081395 C244.001347,173.081395 242.819672,171.897032 242.819672,170.436047 C242.819672,168.975061 244.001347,167.790698 245.459016,167.790698 C246.916686,167.790698 248.098361,168.975061 248.098361,170.436047 C248.098361,171.897032 246.916686,173.081395 245.459016,173.081395 Z" id="Path"></path>
                <path d="M245.459016,111.860465 C244.001347,111.860465 242.819672,110.676102 242.819672,109.215116 C242.819672,107.75413 244.001347,106.569767 245.459016,106.569767 C246.916686,106.569767 248.098361,107.75413 248.098361,109.215116 C248.098361,110.676102 246.916686,111.860465 245.459016,111.860465 Z" id="Path"></path>
                <path d="M17.7213115,5.29069767 C16.2636419,5.29069767 15.0819672,4.10633466 15.0819672,2.64534884 C15.0819672,1.18436302 16.2636419,1.37667655e-13 17.7213115,1.37667655e-13 C19.1789811,1.37667655e-13 20.3606557,1.18436302 20.3606557,2.64534884 C20.3606557,4.10633466 19.1789811,5.29069767 17.7213115,5.29069767 Z" id="Path"></path>
                <path d="M17.7213115,126.976744 C16.2636419,126.976744 15.0819672,125.792381 15.0819672,124.331395 C15.0819672,122.87041 16.2636419,121.686047 17.7213115,121.686047 C19.1789811,121.686047 20.3606557,122.87041 20.3606557,124.331395 C20.3606557,125.792381 19.1789811,126.976744 17.7213115,126.976744 Z" id="Path"></path>
                <path d="M17.7213115,65.755814 C16.2636419,65.755814 15.0819672,64.5714509 15.0819672,63.1104651 C15.0819672,61.6494793 16.2636419,60.4651163 17.7213115,60.4651163 C19.1789811,60.4651163 20.3606557,61.6494793 20.3606557,63.1104651 C20.3606557,64.5714509 19.1789811,65.755814 17.7213115,65.755814 Z" id="Path"></path>
                <path d="M17.7213115,188.197674 C16.2636419,188.197674 15.0819672,187.013311 15.0819672,185.552326 C15.0819672,184.09134 16.2636419,182.906977 17.7213115,182.906977 C19.1789811,182.906977 20.3606557,184.09134 20.3606557,185.552326 C20.3606557,187.013311 19.1789811,188.197674 17.7213115,188.197674 Z" id="Path"></path>
                <path d="M17.7213115,20.4069767 C16.2636419,20.4069767 15.0819672,19.2226137 15.0819672,17.7616279 C15.0819672,16.3006421 16.2636419,15.1162791 17.7213115,15.1162791 C19.1789811,15.1162791 20.3606557,16.3006421 20.3606557,17.7616279 C20.3606557,19.2226137 19.1789811,20.4069767 17.7213115,20.4069767 Z" id="Path"></path>
                <path d="M17.7213115,142.093023 C16.2636419,142.093023 15.0819672,140.90866 15.0819672,139.447674 C15.0819672,137.986689 16.2636419,136.802326 17.7213115,136.802326 C19.1789811,136.802326 20.3606557,137.986689 20.3606557,139.447674 C20.3606557,140.90866 19.1789811,142.093023 17.7213115,142.093023 Z" id="Path"></path>
                <path d="M17.7213115,81.627907 C16.2636419,81.627907 15.0819672,80.443544 15.0819672,78.9825581 C15.0819672,77.5215723 16.2636419,76.3372093 17.7213115,76.3372093 C19.1789811,76.3372093 20.3606557,77.5215723 20.3606557,78.9825581 C20.3606557,80.443544 19.1789811,81.627907 17.7213115,81.627907 Z" id="Path"></path>
                <path d="M17.7213115,35.5232558 C16.2636419,35.5232558 15.0819672,34.3388928 15.0819672,32.877907 C15.0819672,31.4169212 16.2636419,30.2325581 17.7213115,30.2325581 C19.1789811,30.2325581 20.3606557,31.4169212 20.3606557,32.877907 C20.3606557,34.3388928 19.1789811,35.5232558 17.7213115,35.5232558 Z" id="Path"></path>
                <path d="M17.7213115,157.209302 C16.2636419,157.209302 15.0819672,156.024939 15.0819672,154.563953 C15.0819672,153.102968 16.2636419,151.918605 17.7213115,151.918605 C19.1789811,151.918605 20.3606557,153.102968 20.3606557,154.563953 C20.3606557,156.024939 19.1789811,157.209302 17.7213115,157.209302 Z" id="Path"></path>
                <path d="M17.7213115,96.744186 C16.2636419,96.744186 15.0819672,95.559823 15.0819672,94.0988372 C15.0819672,92.6378514 16.2636419,91.4534884 17.7213115,91.4534884 C19.1789811,91.4534884 20.3606557,92.6378514 20.3606557,94.0988372 C20.3606557,95.559823 19.1789811,96.744186 17.7213115,96.744186 Z" id="Path"></path>
                <path d="M17.7213115,50.6395349 C16.2636419,50.6395349 15.0819672,49.4551719 15.0819672,47.994186 C15.0819672,46.5332002 16.2636419,45.3488372 17.7213115,45.3488372 C19.1789811,45.3488372 20.3606557,46.5332002 20.3606557,47.994186 C20.3606557,49.4551719 19.1789811,50.6395349 17.7213115,50.6395349 Z" id="Path"></path>
                <path d="M17.7213115,173.081395 C16.2636419,173.081395 15.0819672,171.897032 15.0819672,170.436047 C15.0819672,168.975061 16.2636419,167.790698 17.7213115,167.790698 C19.1789811,167.790698 20.3606557,168.975061 20.3606557,170.436047 C20.3606557,171.897032 19.1789811,173.081395 17.7213115,173.081395 Z" id="Path"></path>
                <path d="M17.7213115,111.860465 C16.2636419,111.860465 15.0819672,110.676102 15.0819672,109.215116 C15.0819672,107.75413 16.2636419,106.569767 17.7213115,106.569767 C19.1789811,106.569767 20.3606557,107.75413 20.3606557,109.215116 C20.3606557,110.676102 19.1789811,111.860465 17.7213115,111.860465 Z" id="Path"></path>
                <path d="M32.8032787,5.29069767 C31.3456091,5.29069767 30.1639344,4.10633466 30.1639344,2.64534884 C30.1639344,1.18436302 31.3456091,1.37667655e-13 32.8032787,1.37667655e-13 C34.2609483,1.37667655e-13 35.442623,1.18436302 35.442623,2.64534884 C35.442623,4.10633466 34.2609483,5.29069767 32.8032787,5.29069767 Z" id="Path"></path>
                <path d="M32.8032787,126.976744 C31.3456091,126.976744 30.1639344,125.792381 30.1639344,124.331395 C30.1639344,122.87041 31.3456091,121.686047 32.8032787,121.686047 C34.2609483,121.686047 35.442623,122.87041 35.442623,124.331395 C35.442623,125.792381 34.2609483,126.976744 32.8032787,126.976744 Z" id="Path"></path>
                <path d="M32.8032787,65.755814 C31.3456091,65.755814 30.1639344,64.5714509 30.1639344,63.1104651 C30.1639344,61.6494793 31.3456091,60.4651163 32.8032787,60.4651163 C34.2609483,60.4651163 35.442623,61.6494793 35.442623,63.1104651 C35.442623,64.5714509 34.2609483,65.755814 32.8032787,65.755814 Z" id="Path"></path>
                <path d="M32.8032787,188.197674 C31.3456091,188.197674 30.1639344,187.013311 30.1639344,185.552326 C30.1639344,184.09134 31.3456091,182.906977 32.8032787,182.906977 C34.2609483,182.906977 35.442623,184.09134 35.442623,185.552326 C35.442623,187.013311 34.2609483,188.197674 32.8032787,188.197674 Z" id="Path"></path>
                <path d="M32.8032787,20.4069767 C31.3456091,20.4069767 30.1639344,19.2226137 30.1639344,17.7616279 C30.1639344,16.3006421 31.3456091,15.1162791 32.8032787,15.1162791 C34.2609483,15.1162791 35.442623,16.3006421 35.442623,17.7616279 C35.442623,19.2226137 34.2609483,20.4069767 32.8032787,20.4069767 Z" id="Path"></path>
                <path d="M32.8032787,142.093023 C31.3456091,142.093023 30.1639344,140.90866 30.1639344,139.447674 C30.1639344,137.986689 31.3456091,136.802326 32.8032787,136.802326 C34.2609483,136.802326 35.442623,137.986689 35.442623,139.447674 C35.442623,140.90866 34.2609483,142.093023 32.8032787,142.093023 Z" id="Path"></path>
                <path d="M32.8032787,81.627907 C31.3456091,81.627907 30.1639344,80.443544 30.1639344,78.9825581 C30.1639344,77.5215723 31.3456091,76.3372093 32.8032787,76.3372093 C34.2609483,76.3372093 35.442623,77.5215723 35.442623,78.9825581 C35.442623,80.443544 34.2609483,81.627907 32.8032787,81.627907 Z" id="Path"></path>
                <path d="M32.8032787,35.5232558 C31.3456091,35.5232558 30.1639344,34.3388928 30.1639344,32.877907 C30.1639344,31.4169212 31.3456091,30.2325581 32.8032787,30.2325581 C34.2609483,30.2325581 35.442623,31.4169212 35.442623,32.877907 C35.442623,34.3388928 34.2609483,35.5232558 32.8032787,35.5232558 Z" id="Path"></path>
                <path d="M32.8032787,157.209302 C31.3456091,157.209302 30.1639344,156.024939 30.1639344,154.563953 C30.1639344,153.102968 31.3456091,151.918605 32.8032787,151.918605 C34.2609483,151.918605 35.442623,153.102968 35.442623,154.563953 C35.442623,156.024939 34.2609483,157.209302 32.8032787,157.209302 Z" id="Path"></path>
                <path d="M32.8032787,96.744186 C31.3456091,96.744186 30.1639344,95.559823 30.1639344,94.0988372 C30.1639344,92.6378514 31.3456091,91.4534884 32.8032787,91.4534884 C34.2609483,91.4534884 35.442623,92.6378514 35.442623,94.0988372 C35.442623,95.559823 34.2609483,96.744186 32.8032787,96.744186 Z" id="Path"></path>
                <path d="M32.8032787,50.6395349 C31.3456091,50.6395349 30.1639344,49.4551719 30.1639344,47.994186 C30.1639344,46.5332002 31.3456091,45.3488372 32.8032787,45.3488372 C34.2609483,45.3488372 35.442623,46.5332002 35.442623,47.994186 C35.442623,49.4551719 34.2609483,50.6395349 32.8032787,50.6395349 Z" id="Path"></path>
                <path d="M32.8032787,173.081395 C31.3456091,173.081395 30.1639344,171.897032 30.1639344,170.436047 C30.1639344,168.975061 31.3456091,167.790698 32.8032787,167.790698 C34.2609483,167.790698 35.442623,168.975061 35.442623,170.436047 C35.442623,171.897032 34.2609483,173.081395 32.8032787,173.081395 Z" id="Path"></path>
                <path d="M32.8032787,111.860465 C31.3456091,111.860465 30.1639344,110.676102 30.1639344,109.215116 C30.1639344,107.75413 31.3456091,106.569767 32.8032787,106.569767 C34.2609483,106.569767 35.442623,107.75413 35.442623,109.215116 C35.442623,110.676102 34.2609483,111.860465 32.8032787,111.860465 Z" id="Path"></path>
                <path d="M2.63934426,5.29069767 C1.18167468,5.29069767 -8.52651283e-14,4.10633466 -8.52651283e-14,2.64534884 C-8.52651283e-14,1.18436302 1.18167468,1.37667655e-13 2.63934426,1.37667655e-13 C4.09701385,1.37667655e-13 5.27868852,1.18436302 5.27868852,2.64534884 C5.27868852,4.10633466 4.09701385,5.29069767 2.63934426,5.29069767 Z" id="Path"></path>
                <path d="M2.63934426,126.976744 C1.18167468,126.976744 -8.52651283e-14,125.792381 -8.52651283e-14,124.331395 C-8.52651283e-14,122.87041 1.18167468,121.686047 2.63934426,121.686047 C4.09701385,121.686047 5.27868852,122.87041 5.27868852,124.331395 C5.27868852,125.792381 4.09701385,126.976744 2.63934426,126.976744 Z" id="Path"></path>
                <path d="M2.63934426,65.755814 C1.18167468,65.755814 -8.52651283e-14,64.5714509 -8.52651283e-14,63.1104651 C-8.52651283e-14,61.6494793 1.18167468,60.4651163 2.63934426,60.4651163 C4.09701385,60.4651163 5.27868852,61.6494793 5.27868852,63.1104651 C5.27868852,64.5714509 4.09701385,65.755814 2.63934426,65.755814 Z" id="Path"></path>
                <path d="M2.63934426,188.197674 C1.18167468,188.197674 -8.52651283e-14,187.013311 -8.52651283e-14,185.552326 C-8.52651283e-14,184.09134 1.18167468,182.906977 2.63934426,182.906977 C4.09701385,182.906977 5.27868852,184.09134 5.27868852,185.552326 C5.27868852,187.013311 4.09701385,188.197674 2.63934426,188.197674 Z" id="Path"></path>
                <path d="M2.63934426,20.4069767 C1.18167468,20.4069767 -8.52651283e-14,19.2226137 -8.52651283e-14,17.7616279 C-8.52651283e-14,16.3006421 1.18167468,15.1162791 2.63934426,15.1162791 C4.09701385,15.1162791 5.27868852,16.3006421 5.27868852,17.7616279 C5.27868852,19.2226137 4.09701385,20.4069767 2.63934426,20.4069767 Z" id="Path"></path>
                <path d="M2.63934426,142.093023 C1.18167468,142.093023 -8.52651283e-14,140.90866 -8.52651283e-14,139.447674 C-8.52651283e-14,137.986689 1.18167468,136.802326 2.63934426,136.802326 C4.09701385,136.802326 5.27868852,137.986689 5.27868852,139.447674 C5.27868852,140.90866 4.09701385,142.093023 2.63934426,142.093023 Z" id="Path"></path>
                <path d="M2.63934426,81.627907 C1.18167468,81.627907 -8.52651283e-14,80.443544 -8.52651283e-14,78.9825581 C-8.52651283e-14,77.5215723 1.18167468,76.3372093 2.63934426,76.3372093 C4.09701385,76.3372093 5.27868852,77.5215723 5.27868852,78.9825581 C5.27868852,80.443544 4.09701385,81.627907 2.63934426,81.627907 Z" id="Path"></path>
                <path d="M2.63934426,35.5232558 C1.18167468,35.5232558 -8.52651283e-14,34.3388928 -8.52651283e-14,32.877907 C-8.52651283e-14,31.4169212 1.18167468,30.2325581 2.63934426,30.2325581 C4.09701385,30.2325581 5.27868852,31.4169212 5.27868852,32.877907 C5.27868852,34.3388928 4.09701385,35.5232558 2.63934426,35.5232558 Z" id="Path"></path>
                <path d="M2.63934426,157.209302 C1.18167468,157.209302 -8.52651283e-14,156.024939 -8.52651283e-14,154.563953 C-8.52651283e-14,153.102968 1.18167468,151.918605 2.63934426,151.918605 C4.09701385,151.918605 5.27868852,153.102968 5.27868852,154.563953 C5.27868852,156.024939 4.09701385,157.209302 2.63934426,157.209302 Z" id="Path"></path>
                <path d="M2.63934426,96.744186 C1.18167468,96.744186 -8.52651283e-14,95.559823 -8.52651283e-14,94.0988372 C-8.52651283e-14,92.6378514 1.18167468,91.4534884 2.63934426,91.4534884 C4.09701385,91.4534884 5.27868852,92.6378514 5.27868852,94.0988372 C5.27868852,95.559823 4.09701385,96.744186 2.63934426,96.744186 Z" id="Path"></path>
                <path d="M2.63934426,50.6395349 C1.18167468,50.6395349 -8.52651283e-14,49.4551719 -8.52651283e-14,47.994186 C-8.52651283e-14,46.5332002 1.18167468,45.3488372 2.63934426,45.3488372 C4.09701385,45.3488372 5.27868852,46.5332002 5.27868852,47.994186 C5.27868852,49.4551719 4.09701385,50.6395349 2.63934426,50.6395349 Z" id="Path"></path>
                <path d="M2.63934426,173.081395 C1.18167468,173.081395 -8.52651283e-14,171.897032 -8.52651283e-14,170.436047 C-8.52651283e-14,168.975061 1.18167468,167.790698 2.63934426,167.790698 C4.09701385,167.790698 5.27868852,168.975061 5.27868852,170.436047 C5.27868852,171.897032 4.09701385,173.081395 2.63934426,173.081395 Z" id="Path"></path>
                <path d="M2.63934426,111.860465 C1.18167468,111.860465 -8.52651283e-14,110.676102 -8.52651283e-14,109.215116 C-8.52651283e-14,107.75413 1.18167468,106.569767 2.63934426,106.569767 C4.09701385,106.569767 5.27868852,107.75413 5.27868852,109.215116 C5.27868852,110.676102 4.09701385,111.860465 2.63934426,111.860465 Z" id="Path"></path>
                <path d="M47.8852459,5.29069767 C46.4275763,5.29069767 45.2459016,4.10633466 45.2459016,2.64534884 C45.2459016,1.18436302 46.4275763,1.37667655e-13 47.8852459,1.37667655e-13 C49.3429155,1.37667655e-13 50.5245902,1.18436302 50.5245902,2.64534884 C50.5245902,4.10633466 49.3429155,5.29069767 47.8852459,5.29069767 Z" id="Path"></path>
                <path d="M47.8852459,126.976744 C46.4275763,126.976744 45.2459016,125.792381 45.2459016,124.331395 C45.2459016,122.87041 46.4275763,121.686047 47.8852459,121.686047 C49.3429155,121.686047 50.5245902,122.87041 50.5245902,124.331395 C50.5245902,125.792381 49.3429155,126.976744 47.8852459,126.976744 Z" id="Path"></path>
                <path d="M47.8852459,65.755814 C46.4275763,65.755814 45.2459016,64.5714509 45.2459016,63.1104651 C45.2459016,61.6494793 46.4275763,60.4651163 47.8852459,60.4651163 C49.3429155,60.4651163 50.5245902,61.6494793 50.5245902,63.1104651 C50.5245902,64.5714509 49.3429155,65.755814 47.8852459,65.755814 Z" id="Path"></path>
                <path d="M47.8852459,188.197674 C46.4275763,188.197674 45.2459016,187.013311 45.2459016,185.552326 C45.2459016,184.09134 46.4275763,182.906977 47.8852459,182.906977 C49.3429155,182.906977 50.5245902,184.09134 50.5245902,185.552326 C50.5245902,187.013311 49.3429155,188.197674 47.8852459,188.197674 Z" id="Path"></path>
                <path d="M47.8852459,20.4069767 C46.4275763,20.4069767 45.2459016,19.2226137 45.2459016,17.7616279 C45.2459016,16.3006421 46.4275763,15.1162791 47.8852459,15.1162791 C49.3429155,15.1162791 50.5245902,16.3006421 50.5245902,17.7616279 C50.5245902,19.2226137 49.3429155,20.4069767 47.8852459,20.4069767 Z" id="Path"></path>
                <path d="M47.8852459,142.093023 C46.4275763,142.093023 45.2459016,140.90866 45.2459016,139.447674 C45.2459016,137.986689 46.4275763,136.802326 47.8852459,136.802326 C49.3429155,136.802326 50.5245902,137.986689 50.5245902,139.447674 C50.5245902,140.90866 49.3429155,142.093023 47.8852459,142.093023 Z" id="Path"></path>
                <path d="M47.8852459,81.627907 C46.4275763,81.627907 45.2459016,80.443544 45.2459016,78.9825581 C45.2459016,77.5215723 46.4275763,76.3372093 47.8852459,76.3372093 C49.3429155,76.3372093 50.5245902,77.5215723 50.5245902,78.9825581 C50.5245902,80.443544 49.3429155,81.627907 47.8852459,81.627907 Z" id="Path"></path>
                <path d="M47.8852459,35.5232558 C46.4275763,35.5232558 45.2459016,34.3388928 45.2459016,32.877907 C45.2459016,31.4169212 46.4275763,30.2325581 47.8852459,30.2325581 C49.3429155,30.2325581 50.5245902,31.4169212 50.5245902,32.877907 C50.5245902,34.3388928 49.3429155,35.5232558 47.8852459,35.5232558 Z" id="Path"></path>
                <path d="M47.8852459,157.209302 C46.4275763,157.209302 45.2459016,156.024939 45.2459016,154.563953 C45.2459016,153.102968 46.4275763,151.918605 47.8852459,151.918605 C49.3429155,151.918605 50.5245902,153.102968 50.5245902,154.563953 C50.5245902,156.024939 49.3429155,157.209302 47.8852459,157.209302 Z" id="Path"></path>
                <path d="M47.8852459,96.744186 C46.4275763,96.744186 45.2459016,95.559823 45.2459016,94.0988372 C45.2459016,92.6378514 46.4275763,91.4534884 47.8852459,91.4534884 C49.3429155,91.4534884 50.5245902,92.6378514 50.5245902,94.0988372 C50.5245902,95.559823 49.3429155,96.744186 47.8852459,96.744186 Z" id="Path"></path>
                <path d="M47.8852459,50.6395349 C46.4275763,50.6395349 45.2459016,49.4551719 45.2459016,47.994186 C45.2459016,46.5332002 46.4275763,45.3488372 47.8852459,45.3488372 C49.3429155,45.3488372 50.5245902,46.5332002 50.5245902,47.994186 C50.5245902,49.4551719 49.3429155,50.6395349 47.8852459,50.6395349 Z" id="Path"></path>
                <path d="M47.8852459,173.081395 C46.4275763,173.081395 45.2459016,171.897032 45.2459016,170.436047 C45.2459016,168.975061 46.4275763,167.790698 47.8852459,167.790698 C49.3429155,167.790698 50.5245902,168.975061 50.5245902,170.436047 C50.5245902,171.897032 49.3429155,173.081395 47.8852459,173.081395 Z" id="Path"></path>
                <path d="M47.8852459,111.860465 C46.4275763,111.860465 45.2459016,110.676102 45.2459016,109.215116 C45.2459016,107.75413 46.4275763,106.569767 47.8852459,106.569767 C49.3429155,106.569767 50.5245902,107.75413 50.5245902,109.215116 C50.5245902,110.676102 49.3429155,111.860465 47.8852459,111.860465 Z" id="Path"></path>
                <path d="M62.9672131,5.29069767 C61.5095435,5.29069767 60.3278689,4.10633466 60.3278689,2.64534884 C60.3278689,1.18436302 61.5095435,1.37667655e-13 62.9672131,1.37667655e-13 C64.4248827,1.37667655e-13 65.6065574,1.18436302 65.6065574,2.64534884 C65.6065574,4.10633466 64.4248827,5.29069767 62.9672131,5.29069767 Z" id="Path"></path>
                <path d="M62.9672131,126.976744 C61.5095435,126.976744 60.3278689,125.792381 60.3278689,124.331395 C60.3278689,122.87041 61.5095435,121.686047 62.9672131,121.686047 C64.4248827,121.686047 65.6065574,122.87041 65.6065574,124.331395 C65.6065574,125.792381 64.4248827,126.976744 62.9672131,126.976744 Z" id="Path"></path>
                <path d="M62.9672131,65.755814 C61.5095435,65.755814 60.3278689,64.5714509 60.3278689,63.1104651 C60.3278689,61.6494793 61.5095435,60.4651163 62.9672131,60.4651163 C64.4248827,60.4651163 65.6065574,61.6494793 65.6065574,63.1104651 C65.6065574,64.5714509 64.4248827,65.755814 62.9672131,65.755814 Z" id="Path"></path>
                <path d="M62.9672131,188.197674 C61.5095435,188.197674 60.3278689,187.013311 60.3278689,185.552326 C60.3278689,184.09134 61.5095435,182.906977 62.9672131,182.906977 C64.4248827,182.906977 65.6065574,184.09134 65.6065574,185.552326 C65.6065574,187.013311 64.4248827,188.197674 62.9672131,188.197674 Z" id="Path"></path>
                <path d="M62.9672131,20.4069767 C61.5095435,20.4069767 60.3278689,19.2226137 60.3278689,17.7616279 C60.3278689,16.3006421 61.5095435,15.1162791 62.9672131,15.1162791 C64.4248827,15.1162791 65.6065574,16.3006421 65.6065574,17.7616279 C65.6065574,19.2226137 64.4248827,20.4069767 62.9672131,20.4069767 Z" id="Path"></path>
                <path d="M62.9672131,142.093023 C61.5095435,142.093023 60.3278689,140.90866 60.3278689,139.447674 C60.3278689,137.986689 61.5095435,136.802326 62.9672131,136.802326 C64.4248827,136.802326 65.6065574,137.986689 65.6065574,139.447674 C65.6065574,140.90866 64.4248827,142.093023 62.9672131,142.093023 Z" id="Path"></path>
                <path d="M62.9672131,81.627907 C61.5095435,81.627907 60.3278689,80.443544 60.3278689,78.9825581 C60.3278689,77.5215723 61.5095435,76.3372093 62.9672131,76.3372093 C64.4248827,76.3372093 65.6065574,77.5215723 65.6065574,78.9825581 C65.6065574,80.443544 64.4248827,81.627907 62.9672131,81.627907 Z" id="Path"></path>
                <path d="M62.9672131,35.5232558 C61.5095435,35.5232558 60.3278689,34.3388928 60.3278689,32.877907 C60.3278689,31.4169212 61.5095435,30.2325581 62.9672131,30.2325581 C64.4248827,30.2325581 65.6065574,31.4169212 65.6065574,32.877907 C65.6065574,34.3388928 64.4248827,35.5232558 62.9672131,35.5232558 Z" id="Path"></path>
                <path d="M62.9672131,157.209302 C61.5095435,157.209302 60.3278689,156.024939 60.3278689,154.563953 C60.3278689,153.102968 61.5095435,151.918605 62.9672131,151.918605 C64.4248827,151.918605 65.6065574,153.102968 65.6065574,154.563953 C65.6065574,156.024939 64.4248827,157.209302 62.9672131,157.209302 Z" id="Path"></path>
                <path d="M62.9672131,96.744186 C61.5095435,96.744186 60.3278689,95.559823 60.3278689,94.0988372 C60.3278689,92.6378514 61.5095435,91.4534884 62.9672131,91.4534884 C64.4248827,91.4534884 65.6065574,92.6378514 65.6065574,94.0988372 C65.6065574,95.559823 64.4248827,96.744186 62.9672131,96.744186 Z" id="Path"></path>
                <path d="M62.9672131,50.6395349 C61.5095435,50.6395349 60.3278689,49.4551719 60.3278689,47.994186 C60.3278689,46.5332002 61.5095435,45.3488372 62.9672131,45.3488372 C64.4248827,45.3488372 65.6065574,46.5332002 65.6065574,47.994186 C65.6065574,49.4551719 64.4248827,50.6395349 62.9672131,50.6395349 Z" id="Path"></path>
                <path d="M62.9672131,173.081395 C61.5095435,173.081395 60.3278689,171.897032 60.3278689,170.436047 C60.3278689,168.975061 61.5095435,167.790698 62.9672131,167.790698 C64.4248827,167.790698 65.6065574,168.975061 65.6065574,170.436047 C65.6065574,171.897032 64.4248827,173.081395 62.9672131,173.081395 Z" id="Path"></path>
                <path d="M62.9672131,111.860465 C61.5095435,111.860465 60.3278689,110.676102 60.3278689,109.215116 C60.3278689,107.75413 61.5095435,106.569767 62.9672131,106.569767 C64.4248827,106.569767 65.6065574,107.75413 65.6065574,109.215116 C65.6065574,110.676102 64.4248827,111.860465 62.9672131,111.860465 Z" id="Path"></path>
                <path d="M78.0491803,5.29069767 C76.5915107,5.29069767 75.4098361,4.10633466 75.4098361,2.64534884 C75.4098361,1.18436302 76.5915107,1.37667655e-13 78.0491803,1.37667655e-13 C79.5068499,1.37667655e-13 80.6885246,1.18436302 80.6885246,2.64534884 C80.6885246,4.10633466 79.5068499,5.29069767 78.0491803,5.29069767 Z" id="Path"></path>
                <path d="M78.0491803,126.976744 C76.5915107,126.976744 75.4098361,125.792381 75.4098361,124.331395 C75.4098361,122.87041 76.5915107,121.686047 78.0491803,121.686047 C79.5068499,121.686047 80.6885246,122.87041 80.6885246,124.331395 C80.6885246,125.792381 79.5068499,126.976744 78.0491803,126.976744 Z" id="Path"></path>
                <path d="M78.0491803,65.755814 C76.5915107,65.755814 75.4098361,64.5714509 75.4098361,63.1104651 C75.4098361,61.6494793 76.5915107,60.4651163 78.0491803,60.4651163 C79.5068499,60.4651163 80.6885246,61.6494793 80.6885246,63.1104651 C80.6885246,64.5714509 79.5068499,65.755814 78.0491803,65.755814 Z" id="Path"></path>
                <path d="M78.0491803,188.197674 C76.5915107,188.197674 75.4098361,187.013311 75.4098361,185.552326 C75.4098361,184.09134 76.5915107,182.906977 78.0491803,182.906977 C79.5068499,182.906977 80.6885246,184.09134 80.6885246,185.552326 C80.6885246,187.013311 79.5068499,188.197674 78.0491803,188.197674 Z" id="Path"></path>
                <path d="M78.0491803,20.4069767 C76.5915107,20.4069767 75.4098361,19.2226137 75.4098361,17.7616279 C75.4098361,16.3006421 76.5915107,15.1162791 78.0491803,15.1162791 C79.5068499,15.1162791 80.6885246,16.3006421 80.6885246,17.7616279 C80.6885246,19.2226137 79.5068499,20.4069767 78.0491803,20.4069767 Z" id="Path"></path>
                <path d="M78.0491803,142.093023 C76.5915107,142.093023 75.4098361,140.90866 75.4098361,139.447674 C75.4098361,137.986689 76.5915107,136.802326 78.0491803,136.802326 C79.5068499,136.802326 80.6885246,137.986689 80.6885246,139.447674 C80.6885246,140.90866 79.5068499,142.093023 78.0491803,142.093023 Z" id="Path"></path>
                <path d="M78.0491803,81.627907 C76.5915107,81.627907 75.4098361,80.443544 75.4098361,78.9825581 C75.4098361,77.5215723 76.5915107,76.3372093 78.0491803,76.3372093 C79.5068499,76.3372093 80.6885246,77.5215723 80.6885246,78.9825581 C80.6885246,80.443544 79.5068499,81.627907 78.0491803,81.627907 Z" id="Path"></path>
                <path d="M78.0491803,35.5232558 C76.5915107,35.5232558 75.4098361,34.3388928 75.4098361,32.877907 C75.4098361,31.4169212 76.5915107,30.2325581 78.0491803,30.2325581 C79.5068499,30.2325581 80.6885246,31.4169212 80.6885246,32.877907 C80.6885246,34.3388928 79.5068499,35.5232558 78.0491803,35.5232558 Z" id="Path"></path>
                <path d="M78.0491803,157.209302 C76.5915107,157.209302 75.4098361,156.024939 75.4098361,154.563953 C75.4098361,153.102968 76.5915107,151.918605 78.0491803,151.918605 C79.5068499,151.918605 80.6885246,153.102968 80.6885246,154.563953 C80.6885246,156.024939 79.5068499,157.209302 78.0491803,157.209302 Z" id="Path"></path>
                <path d="M78.0491803,96.744186 C76.5915107,96.744186 75.4098361,95.559823 75.4098361,94.0988372 C75.4098361,92.6378514 76.5915107,91.4534884 78.0491803,91.4534884 C79.5068499,91.4534884 80.6885246,92.6378514 80.6885246,94.0988372 C80.6885246,95.559823 79.5068499,96.744186 78.0491803,96.744186 Z" id="Path"></path>
                <path d="M78.0491803,50.6395349 C76.5915107,50.6395349 75.4098361,49.4551719 75.4098361,47.994186 C75.4098361,46.5332002 76.5915107,45.3488372 78.0491803,45.3488372 C79.5068499,45.3488372 80.6885246,46.5332002 80.6885246,47.994186 C80.6885246,49.4551719 79.5068499,50.6395349 78.0491803,50.6395349 Z" id="Path"></path>
                <path d="M78.0491803,173.081395 C76.5915107,173.081395 75.4098361,171.897032 75.4098361,170.436047 C75.4098361,168.975061 76.5915107,167.790698 78.0491803,167.790698 C79.5068499,167.790698 80.6885246,168.975061 80.6885246,170.436047 C80.6885246,171.897032 79.5068499,173.081395 78.0491803,173.081395 Z" id="Path"></path>
                <path d="M78.0491803,111.860465 C76.5915107,111.860465 75.4098361,110.676102 75.4098361,109.215116 C75.4098361,107.75413 76.5915107,106.569767 78.0491803,106.569767 C79.5068499,106.569767 80.6885246,107.75413 80.6885246,109.215116 C80.6885246,110.676102 79.5068499,111.860465 78.0491803,111.860465 Z" id="Path"></path>
                <path d="M93.8852459,5.29069767 C92.4275763,5.29069767 91.2459016,4.10633466 91.2459016,2.64534884 C91.2459016,1.18436302 92.4275763,1.37667655e-13 93.8852459,1.37667655e-13 C95.3429155,1.37667655e-13 96.5245902,1.18436302 96.5245902,2.64534884 C96.5245902,4.10633466 95.3429155,5.29069767 93.8852459,5.29069767 Z" id="Path"></path>
                <path d="M93.8852459,126.976744 C92.4275763,126.976744 91.2459016,125.792381 91.2459016,124.331395 C91.2459016,122.87041 92.4275763,121.686047 93.8852459,121.686047 C95.3429155,121.686047 96.5245902,122.87041 96.5245902,124.331395 C96.5245902,125.792381 95.3429155,126.976744 93.8852459,126.976744 Z" id="Path"></path>
                <path d="M93.8852459,65.755814 C92.4275763,65.755814 91.2459016,64.5714509 91.2459016,63.1104651 C91.2459016,61.6494793 92.4275763,60.4651163 93.8852459,60.4651163 C95.3429155,60.4651163 96.5245902,61.6494793 96.5245902,63.1104651 C96.5245902,64.5714509 95.3429155,65.755814 93.8852459,65.755814 Z" id="Path"></path>
                <path d="M93.8852459,188.197674 C92.4275763,188.197674 91.2459016,187.013311 91.2459016,185.552326 C91.2459016,184.09134 92.4275763,182.906977 93.8852459,182.906977 C95.3429155,182.906977 96.5245902,184.09134 96.5245902,185.552326 C96.5245902,187.013311 95.3429155,188.197674 93.8852459,188.197674 Z" id="Path"></path>
                <path d="M93.8852459,20.4069767 C92.4275763,20.4069767 91.2459016,19.2226137 91.2459016,17.7616279 C91.2459016,16.3006421 92.4275763,15.1162791 93.8852459,15.1162791 C95.3429155,15.1162791 96.5245902,16.3006421 96.5245902,17.7616279 C96.5245902,19.2226137 95.3429155,20.4069767 93.8852459,20.4069767 Z" id="Path"></path>
                <path d="M93.8852459,142.093023 C92.4275763,142.093023 91.2459016,140.90866 91.2459016,139.447674 C91.2459016,137.986689 92.4275763,136.802326 93.8852459,136.802326 C95.3429155,136.802326 96.5245902,137.986689 96.5245902,139.447674 C96.5245902,140.90866 95.3429155,142.093023 93.8852459,142.093023 Z" id="Path"></path>
                <path d="M93.8852459,81.627907 C92.4275763,81.627907 91.2459016,80.443544 91.2459016,78.9825581 C91.2459016,77.5215723 92.4275763,76.3372093 93.8852459,76.3372093 C95.3429155,76.3372093 96.5245902,77.5215723 96.5245902,78.9825581 C96.5245902,80.443544 95.3429155,81.627907 93.8852459,81.627907 Z" id="Path"></path>
                <path d="M93.8852459,35.5232558 C92.4275763,35.5232558 91.2459016,34.3388928 91.2459016,32.877907 C91.2459016,31.4169212 92.4275763,30.2325581 93.8852459,30.2325581 C95.3429155,30.2325581 96.5245902,31.4169212 96.5245902,32.877907 C96.5245902,34.3388928 95.3429155,35.5232558 93.8852459,35.5232558 Z" id="Path"></path>
                <path d="M93.8852459,157.209302 C92.4275763,157.209302 91.2459016,156.024939 91.2459016,154.563953 C91.2459016,153.102968 92.4275763,151.918605 93.8852459,151.918605 C95.3429155,151.918605 96.5245902,153.102968 96.5245902,154.563953 C96.5245902,156.024939 95.3429155,157.209302 93.8852459,157.209302 Z" id="Path"></path>
                <path d="M93.8852459,96.744186 C92.4275763,96.744186 91.2459016,95.559823 91.2459016,94.0988372 C91.2459016,92.6378514 92.4275763,91.4534884 93.8852459,91.4534884 C95.3429155,91.4534884 96.5245902,92.6378514 96.5245902,94.0988372 C96.5245902,95.559823 95.3429155,96.744186 93.8852459,96.744186 Z" id="Path"></path>
                <path d="M93.8852459,50.6395349 C92.4275763,50.6395349 91.2459016,49.4551719 91.2459016,47.994186 C91.2459016,46.5332002 92.4275763,45.3488372 93.8852459,45.3488372 C95.3429155,45.3488372 96.5245902,46.5332002 96.5245902,47.994186 C96.5245902,49.4551719 95.3429155,50.6395349 93.8852459,50.6395349 Z" id="Path"></path>
                <path d="M93.8852459,173.081395 C92.4275763,173.081395 91.2459016,171.897032 91.2459016,170.436047 C91.2459016,168.975061 92.4275763,167.790698 93.8852459,167.790698 C95.3429155,167.790698 96.5245902,168.975061 96.5245902,170.436047 C96.5245902,171.897032 95.3429155,173.081395 93.8852459,173.081395 Z" id="Path"></path>
                <path d="M93.8852459,111.860465 C92.4275763,111.860465 91.2459016,110.676102 91.2459016,109.215116 C91.2459016,107.75413 92.4275763,106.569767 93.8852459,106.569767 C95.3429155,106.569767 96.5245902,107.75413 96.5245902,109.215116 C96.5245902,110.676102 95.3429155,111.860465 93.8852459,111.860465 Z" id="Path"></path>
                <path d="M139.131148,5.29069767 C137.673478,5.29069767 136.491803,4.10633466 136.491803,2.64534884 C136.491803,1.18436302 137.673478,1.37667655e-13 139.131148,1.37667655e-13 C140.588817,1.37667655e-13 141.770492,1.18436302 141.770492,2.64534884 C141.770492,4.10633466 140.588817,5.29069767 139.131148,5.29069767 Z" id="Path"></path>
                <path d="M139.131148,126.976744 C137.673478,126.976744 136.491803,125.792381 136.491803,124.331395 C136.491803,122.87041 137.673478,121.686047 139.131148,121.686047 C140.588817,121.686047 141.770492,122.87041 141.770492,124.331395 C141.770492,125.792381 140.588817,126.976744 139.131148,126.976744 Z" id="Path"></path>
                <path d="M139.131148,65.755814 C137.673478,65.755814 136.491803,64.5714509 136.491803,63.1104651 C136.491803,61.6494793 137.673478,60.4651163 139.131148,60.4651163 C140.588817,60.4651163 141.770492,61.6494793 141.770492,63.1104651 C141.770492,64.5714509 140.588817,65.755814 139.131148,65.755814 Z" id="Path"></path>
                <path d="M139.131148,188.197674 C137.673478,188.197674 136.491803,187.013311 136.491803,185.552326 C136.491803,184.09134 137.673478,182.906977 139.131148,182.906977 C140.588817,182.906977 141.770492,184.09134 141.770492,185.552326 C141.770492,187.013311 140.588817,188.197674 139.131148,188.197674 Z" id="Path"></path>
                <path d="M139.131148,20.4069767 C137.673478,20.4069767 136.491803,19.2226137 136.491803,17.7616279 C136.491803,16.3006421 137.673478,15.1162791 139.131148,15.1162791 C140.588817,15.1162791 141.770492,16.3006421 141.770492,17.7616279 C141.770492,19.2226137 140.588817,20.4069767 139.131148,20.4069767 Z" id="Path"></path>
                <path d="M139.131148,142.093023 C137.673478,142.093023 136.491803,140.90866 136.491803,139.447674 C136.491803,137.986689 137.673478,136.802326 139.131148,136.802326 C140.588817,136.802326 141.770492,137.986689 141.770492,139.447674 C141.770492,140.90866 140.588817,142.093023 139.131148,142.093023 Z" id="Path"></path>
                <path d="M139.131148,81.627907 C137.673478,81.627907 136.491803,80.443544 136.491803,78.9825581 C136.491803,77.5215723 137.673478,76.3372093 139.131148,76.3372093 C140.588817,76.3372093 141.770492,77.5215723 141.770492,78.9825581 C141.770492,80.443544 140.588817,81.627907 139.131148,81.627907 Z" id="Path"></path>
                <path d="M139.131148,35.5232558 C137.673478,35.5232558 136.491803,34.3388928 136.491803,32.877907 C136.491803,31.4169212 137.673478,30.2325581 139.131148,30.2325581 C140.588817,30.2325581 141.770492,31.4169212 141.770492,32.877907 C141.770492,34.3388928 140.588817,35.5232558 139.131148,35.5232558 Z" id="Path"></path>
                <path d="M139.131148,157.209302 C137.673478,157.209302 136.491803,156.024939 136.491803,154.563953 C136.491803,153.102968 137.673478,151.918605 139.131148,151.918605 C140.588817,151.918605 141.770492,153.102968 141.770492,154.563953 C141.770492,156.024939 140.588817,157.209302 139.131148,157.209302 Z" id="Path"></path>
                <path d="M139.131148,96.744186 C137.673478,96.744186 136.491803,95.559823 136.491803,94.0988372 C136.491803,92.6378514 137.673478,91.4534884 139.131148,91.4534884 C140.588817,91.4534884 141.770492,92.6378514 141.770492,94.0988372 C141.770492,95.559823 140.588817,96.744186 139.131148,96.744186 Z" id="Path"></path>
                <path d="M139.131148,50.6395349 C137.673478,50.6395349 136.491803,49.4551719 136.491803,47.994186 C136.491803,46.5332002 137.673478,45.3488372 139.131148,45.3488372 C140.588817,45.3488372 141.770492,46.5332002 141.770492,47.994186 C141.770492,49.4551719 140.588817,50.6395349 139.131148,50.6395349 Z" id="Path"></path>
                <path d="M139.131148,173.081395 C137.673478,173.081395 136.491803,171.897032 136.491803,170.436047 C136.491803,168.975061 137.673478,167.790698 139.131148,167.790698 C140.588817,167.790698 141.770492,168.975061 141.770492,170.436047 C141.770492,171.897032 140.588817,173.081395 139.131148,173.081395 Z" id="Path"></path>
                <path d="M139.131148,111.860465 C137.673478,111.860465 136.491803,110.676102 136.491803,109.215116 C136.491803,107.75413 137.673478,106.569767 139.131148,106.569767 C140.588817,106.569767 141.770492,107.75413 141.770492,109.215116 C141.770492,110.676102 140.588817,111.860465 139.131148,111.860465 Z" id="Path"></path>
                <path d="M154.213115,5.29069767 C152.755445,5.29069767 151.57377,4.10633466 151.57377,2.64534884 C151.57377,1.18436302 152.755445,1.37667655e-13 154.213115,1.37667655e-13 C155.670784,1.37667655e-13 156.852459,1.18436302 156.852459,2.64534884 C156.852459,4.10633466 155.670784,5.29069767 154.213115,5.29069767 Z" id="Path"></path>
                <path d="M154.213115,126.976744 C152.755445,126.976744 151.57377,125.792381 151.57377,124.331395 C151.57377,122.87041 152.755445,121.686047 154.213115,121.686047 C155.670784,121.686047 156.852459,122.87041 156.852459,124.331395 C156.852459,125.792381 155.670784,126.976744 154.213115,126.976744 Z" id="Path"></path>
                <path d="M154.213115,65.755814 C152.755445,65.755814 151.57377,64.5714509 151.57377,63.1104651 C151.57377,61.6494793 152.755445,60.4651163 154.213115,60.4651163 C155.670784,60.4651163 156.852459,61.6494793 156.852459,63.1104651 C156.852459,64.5714509 155.670784,65.755814 154.213115,65.755814 Z" id="Path"></path>
                <path d="M154.213115,188.197674 C152.755445,188.197674 151.57377,187.013311 151.57377,185.552326 C151.57377,184.09134 152.755445,182.906977 154.213115,182.906977 C155.670784,182.906977 156.852459,184.09134 156.852459,185.552326 C156.852459,187.013311 155.670784,188.197674 154.213115,188.197674 Z" id="Path"></path>
                <path d="M154.213115,20.4069767 C152.755445,20.4069767 151.57377,19.2226137 151.57377,17.7616279 C151.57377,16.3006421 152.755445,15.1162791 154.213115,15.1162791 C155.670784,15.1162791 156.852459,16.3006421 156.852459,17.7616279 C156.852459,19.2226137 155.670784,20.4069767 154.213115,20.4069767 Z" id="Path"></path>
                <path d="M154.213115,142.093023 C152.755445,142.093023 151.57377,140.90866 151.57377,139.447674 C151.57377,137.986689 152.755445,136.802326 154.213115,136.802326 C155.670784,136.802326 156.852459,137.986689 156.852459,139.447674 C156.852459,140.90866 155.670784,142.093023 154.213115,142.093023 Z" id="Path"></path>
                <path d="M154.213115,81.627907 C152.755445,81.627907 151.57377,80.443544 151.57377,78.9825581 C151.57377,77.5215723 152.755445,76.3372093 154.213115,76.3372093 C155.670784,76.3372093 156.852459,77.5215723 156.852459,78.9825581 C156.852459,80.443544 155.670784,81.627907 154.213115,81.627907 Z" id="Path"></path>
                <path d="M154.213115,35.5232558 C152.755445,35.5232558 151.57377,34.3388928 151.57377,32.877907 C151.57377,31.4169212 152.755445,30.2325581 154.213115,30.2325581 C155.670784,30.2325581 156.852459,31.4169212 156.852459,32.877907 C156.852459,34.3388928 155.670784,35.5232558 154.213115,35.5232558 Z" id="Path"></path>
                <path d="M154.213115,157.209302 C152.755445,157.209302 151.57377,156.024939 151.57377,154.563953 C151.57377,153.102968 152.755445,151.918605 154.213115,151.918605 C155.670784,151.918605 156.852459,153.102968 156.852459,154.563953 C156.852459,156.024939 155.670784,157.209302 154.213115,157.209302 Z" id="Path"></path>
                <path d="M154.213115,96.744186 C152.755445,96.744186 151.57377,95.559823 151.57377,94.0988372 C151.57377,92.6378514 152.755445,91.4534884 154.213115,91.4534884 C155.670784,91.4534884 156.852459,92.6378514 156.852459,94.0988372 C156.852459,95.559823 155.670784,96.744186 154.213115,96.744186 Z" id="Path"></path>
                <path d="M154.213115,50.6395349 C152.755445,50.6395349 151.57377,49.4551719 151.57377,47.994186 C151.57377,46.5332002 152.755445,45.3488372 154.213115,45.3488372 C155.670784,45.3488372 156.852459,46.5332002 156.852459,47.994186 C156.852459,49.4551719 155.670784,50.6395349 154.213115,50.6395349 Z" id="Path"></path>
                <path d="M154.213115,173.081395 C152.755445,173.081395 151.57377,171.897032 151.57377,170.436047 C151.57377,168.975061 152.755445,167.790698 154.213115,167.790698 C155.670784,167.790698 156.852459,168.975061 156.852459,170.436047 C156.852459,171.897032 155.670784,173.081395 154.213115,173.081395 Z" id="Path"></path>
                <path d="M154.213115,111.860465 C152.755445,111.860465 151.57377,110.676102 151.57377,109.215116 C151.57377,107.75413 152.755445,106.569767 154.213115,106.569767 C155.670784,106.569767 156.852459,107.75413 156.852459,109.215116 C156.852459,110.676102 155.670784,111.860465 154.213115,111.860465 Z" id="Path"></path>
                <path d="M108.967213,5.29069767 C107.509544,5.29069767 106.327869,4.10633466 106.327869,2.64534884 C106.327869,1.18436302 107.509544,1.37667655e-13 108.967213,1.37667655e-13 C110.424883,1.37667655e-13 111.606557,1.18436302 111.606557,2.64534884 C111.606557,4.10633466 110.424883,5.29069767 108.967213,5.29069767 Z" id="Path"></path>
                <path d="M108.967213,126.976744 C107.509544,126.976744 106.327869,125.792381 106.327869,124.331395 C106.327869,122.87041 107.509544,121.686047 108.967213,121.686047 C110.424883,121.686047 111.606557,122.87041 111.606557,124.331395 C111.606557,125.792381 110.424883,126.976744 108.967213,126.976744 Z" id="Path"></path>
                <path d="M108.967213,65.755814 C107.509544,65.755814 106.327869,64.5714509 106.327869,63.1104651 C106.327869,61.6494793 107.509544,60.4651163 108.967213,60.4651163 C110.424883,60.4651163 111.606557,61.6494793 111.606557,63.1104651 C111.606557,64.5714509 110.424883,65.755814 108.967213,65.755814 Z" id="Path"></path>
                <path d="M108.967213,188.197674 C107.509544,188.197674 106.327869,187.013311 106.327869,185.552326 C106.327869,184.09134 107.509544,182.906977 108.967213,182.906977 C110.424883,182.906977 111.606557,184.09134 111.606557,185.552326 C111.606557,187.013311 110.424883,188.197674 108.967213,188.197674 Z" id="Path"></path>
                <path d="M108.967213,20.4069767 C107.509544,20.4069767 106.327869,19.2226137 106.327869,17.7616279 C106.327869,16.3006421 107.509544,15.1162791 108.967213,15.1162791 C110.424883,15.1162791 111.606557,16.3006421 111.606557,17.7616279 C111.606557,19.2226137 110.424883,20.4069767 108.967213,20.4069767 Z" id="Path"></path>
                <path d="M108.967213,142.093023 C107.509544,142.093023 106.327869,140.90866 106.327869,139.447674 C106.327869,137.986689 107.509544,136.802326 108.967213,136.802326 C110.424883,136.802326 111.606557,137.986689 111.606557,139.447674 C111.606557,140.90866 110.424883,142.093023 108.967213,142.093023 Z" id="Path"></path>
                <path d="M108.967213,81.627907 C107.509544,81.627907 106.327869,80.443544 106.327869,78.9825581 C106.327869,77.5215723 107.509544,76.3372093 108.967213,76.3372093 C110.424883,76.3372093 111.606557,77.5215723 111.606557,78.9825581 C111.606557,80.443544 110.424883,81.627907 108.967213,81.627907 Z" id="Path"></path>
                <path d="M108.967213,35.5232558 C107.509544,35.5232558 106.327869,34.3388928 106.327869,32.877907 C106.327869,31.4169212 107.509544,30.2325581 108.967213,30.2325581 C110.424883,30.2325581 111.606557,31.4169212 111.606557,32.877907 C111.606557,34.3388928 110.424883,35.5232558 108.967213,35.5232558 Z" id="Path"></path>
                <path d="M108.967213,157.209302 C107.509544,157.209302 106.327869,156.024939 106.327869,154.563953 C106.327869,153.102968 107.509544,151.918605 108.967213,151.918605 C110.424883,151.918605 111.606557,153.102968 111.606557,154.563953 C111.606557,156.024939 110.424883,157.209302 108.967213,157.209302 Z" id="Path"></path>
                <path d="M108.967213,96.744186 C107.509544,96.744186 106.327869,95.559823 106.327869,94.0988372 C106.327869,92.6378514 107.509544,91.4534884 108.967213,91.4534884 C110.424883,91.4534884 111.606557,92.6378514 111.606557,94.0988372 C111.606557,95.559823 110.424883,96.744186 108.967213,96.744186 Z" id="Path"></path>
                <path d="M108.967213,50.6395349 C107.509544,50.6395349 106.327869,49.4551719 106.327869,47.994186 C106.327869,46.5332002 107.509544,45.3488372 108.967213,45.3488372 C110.424883,45.3488372 111.606557,46.5332002 111.606557,47.994186 C111.606557,49.4551719 110.424883,50.6395349 108.967213,50.6395349 Z" id="Path"></path>
                <path d="M108.967213,173.081395 C107.509544,173.081395 106.327869,171.897032 106.327869,170.436047 C106.327869,168.975061 107.509544,167.790698 108.967213,167.790698 C110.424883,167.790698 111.606557,168.975061 111.606557,170.436047 C111.606557,171.897032 110.424883,173.081395 108.967213,173.081395 Z" id="Path"></path>
                <path d="M108.967213,111.860465 C107.509544,111.860465 106.327869,110.676102 106.327869,109.215116 C106.327869,107.75413 107.509544,106.569767 108.967213,106.569767 C110.424883,106.569767 111.606557,107.75413 111.606557,109.215116 C111.606557,110.676102 110.424883,111.860465 108.967213,111.860465 Z" id="Path"></path>
                <path d="M124.04918,5.29069767 C122.591511,5.29069767 121.409836,4.10633466 121.409836,2.64534884 C121.409836,1.18436302 122.591511,1.37667655e-13 124.04918,1.37667655e-13 C125.50685,1.37667655e-13 126.688525,1.18436302 126.688525,2.64534884 C126.688525,4.10633466 125.50685,5.29069767 124.04918,5.29069767 Z" id="Path"></path>
                <path d="M124.04918,126.976744 C122.591511,126.976744 121.409836,125.792381 121.409836,124.331395 C121.409836,122.87041 122.591511,121.686047 124.04918,121.686047 C125.50685,121.686047 126.688525,122.87041 126.688525,124.331395 C126.688525,125.792381 125.50685,126.976744 124.04918,126.976744 Z" id="Path"></path>
                <path d="M124.04918,65.755814 C122.591511,65.755814 121.409836,64.5714509 121.409836,63.1104651 C121.409836,61.6494793 122.591511,60.4651163 124.04918,60.4651163 C125.50685,60.4651163 126.688525,61.6494793 126.688525,63.1104651 C126.688525,64.5714509 125.50685,65.755814 124.04918,65.755814 Z" id="Path"></path>
                <path d="M124.04918,188.197674 C122.591511,188.197674 121.409836,187.013311 121.409836,185.552326 C121.409836,184.09134 122.591511,182.906977 124.04918,182.906977 C125.50685,182.906977 126.688525,184.09134 126.688525,185.552326 C126.688525,187.013311 125.50685,188.197674 124.04918,188.197674 Z" id="Path"></path>
                <path d="M124.04918,20.4069767 C122.591511,20.4069767 121.409836,19.2226137 121.409836,17.7616279 C121.409836,16.3006421 122.591511,15.1162791 124.04918,15.1162791 C125.50685,15.1162791 126.688525,16.3006421 126.688525,17.7616279 C126.688525,19.2226137 125.50685,20.4069767 124.04918,20.4069767 Z" id="Path"></path>
                <path d="M124.04918,142.093023 C122.591511,142.093023 121.409836,140.90866 121.409836,139.447674 C121.409836,137.986689 122.591511,136.802326 124.04918,136.802326 C125.50685,136.802326 126.688525,137.986689 126.688525,139.447674 C126.688525,140.90866 125.50685,142.093023 124.04918,142.093023 Z" id="Path"></path>
                <path d="M124.04918,81.627907 C122.591511,81.627907 121.409836,80.443544 121.409836,78.9825581 C121.409836,77.5215723 122.591511,76.3372093 124.04918,76.3372093 C125.50685,76.3372093 126.688525,77.5215723 126.688525,78.9825581 C126.688525,80.443544 125.50685,81.627907 124.04918,81.627907 Z" id="Path"></path>
                <path d="M124.04918,35.5232558 C122.591511,35.5232558 121.409836,34.3388928 121.409836,32.877907 C121.409836,31.4169212 122.591511,30.2325581 124.04918,30.2325581 C125.50685,30.2325581 126.688525,31.4169212 126.688525,32.877907 C126.688525,34.3388928 125.50685,35.5232558 124.04918,35.5232558 Z" id="Path"></path>
                <path d="M124.04918,157.209302 C122.591511,157.209302 121.409836,156.024939 121.409836,154.563953 C121.409836,153.102968 122.591511,151.918605 124.04918,151.918605 C125.50685,151.918605 126.688525,153.102968 126.688525,154.563953 C126.688525,156.024939 125.50685,157.209302 124.04918,157.209302 Z" id="Path"></path>
                <path d="M124.04918,96.744186 C122.591511,96.744186 121.409836,95.559823 121.409836,94.0988372 C121.409836,92.6378514 122.591511,91.4534884 124.04918,91.4534884 C125.50685,91.4534884 126.688525,92.6378514 126.688525,94.0988372 C126.688525,95.559823 125.50685,96.744186 124.04918,96.744186 Z" id="Path"></path>
                <path d="M124.04918,50.6395349 C122.591511,50.6395349 121.409836,49.4551719 121.409836,47.994186 C121.409836,46.5332002 122.591511,45.3488372 124.04918,45.3488372 C125.50685,45.3488372 126.688525,46.5332002 126.688525,47.994186 C126.688525,49.4551719 125.50685,50.6395349 124.04918,50.6395349 Z" id="Path"></path>
                <path d="M124.04918,173.081395 C122.591511,173.081395 121.409836,171.897032 121.409836,170.436047 C121.409836,168.975061 122.591511,167.790698 124.04918,167.790698 C125.50685,167.790698 126.688525,168.975061 126.688525,170.436047 C126.688525,171.897032 125.50685,173.081395 124.04918,173.081395 Z" id="Path"></path>
                <path d="M124.04918,111.860465 C122.591511,111.860465 121.409836,110.676102 121.409836,109.215116 C121.409836,107.75413 122.591511,106.569767 124.04918,106.569767 C125.50685,106.569767 126.688525,107.75413 126.688525,109.215116 C126.688525,110.676102 125.50685,111.860465 124.04918,111.860465 Z" id="Path"></path>
                <path d="M169.295082,5.29069767 C167.837412,5.29069767 166.655738,4.10633466 166.655738,2.64534884 C166.655738,1.18436302 167.837412,1.37667655e-13 169.295082,1.37667655e-13 C170.752752,1.37667655e-13 171.934426,1.18436302 171.934426,2.64534884 C171.934426,4.10633466 170.752752,5.29069767 169.295082,5.29069767 Z" id="Path"></path>
                <path d="M169.295082,126.976744 C167.837412,126.976744 166.655738,125.792381 166.655738,124.331395 C166.655738,122.87041 167.837412,121.686047 169.295082,121.686047 C170.752752,121.686047 171.934426,122.87041 171.934426,124.331395 C171.934426,125.792381 170.752752,126.976744 169.295082,126.976744 Z" id="Path"></path>
                <path d="M169.295082,65.755814 C167.837412,65.755814 166.655738,64.5714509 166.655738,63.1104651 C166.655738,61.6494793 167.837412,60.4651163 169.295082,60.4651163 C170.752752,60.4651163 171.934426,61.6494793 171.934426,63.1104651 C171.934426,64.5714509 170.752752,65.755814 169.295082,65.755814 Z" id="Path"></path>
                <path d="M169.295082,188.197674 C167.837412,188.197674 166.655738,187.013311 166.655738,185.552326 C166.655738,184.09134 167.837412,182.906977 169.295082,182.906977 C170.752752,182.906977 171.934426,184.09134 171.934426,185.552326 C171.934426,187.013311 170.752752,188.197674 169.295082,188.197674 Z" id="Path"></path>
                <path d="M169.295082,20.4069767 C167.837412,20.4069767 166.655738,19.2226137 166.655738,17.7616279 C166.655738,16.3006421 167.837412,15.1162791 169.295082,15.1162791 C170.752752,15.1162791 171.934426,16.3006421 171.934426,17.7616279 C171.934426,19.2226137 170.752752,20.4069767 169.295082,20.4069767 Z" id="Path"></path>
                <path d="M169.295082,142.093023 C167.837412,142.093023 166.655738,140.90866 166.655738,139.447674 C166.655738,137.986689 167.837412,136.802326 169.295082,136.802326 C170.752752,136.802326 171.934426,137.986689 171.934426,139.447674 C171.934426,140.90866 170.752752,142.093023 169.295082,142.093023 Z" id="Path"></path>
                <path d="M169.295082,81.627907 C167.837412,81.627907 166.655738,80.443544 166.655738,78.9825581 C166.655738,77.5215723 167.837412,76.3372093 169.295082,76.3372093 C170.752752,76.3372093 171.934426,77.5215723 171.934426,78.9825581 C171.934426,80.443544 170.752752,81.627907 169.295082,81.627907 Z" id="Path"></path>
                <path d="M169.295082,35.5232558 C167.837412,35.5232558 166.655738,34.3388928 166.655738,32.877907 C166.655738,31.4169212 167.837412,30.2325581 169.295082,30.2325581 C170.752752,30.2325581 171.934426,31.4169212 171.934426,32.877907 C171.934426,34.3388928 170.752752,35.5232558 169.295082,35.5232558 Z" id="Path"></path>
                <path d="M169.295082,157.209302 C167.837412,157.209302 166.655738,156.024939 166.655738,154.563953 C166.655738,153.102968 167.837412,151.918605 169.295082,151.918605 C170.752752,151.918605 171.934426,153.102968 171.934426,154.563953 C171.934426,156.024939 170.752752,157.209302 169.295082,157.209302 Z" id="Path"></path>
                <path d="M169.295082,96.744186 C167.837412,96.744186 166.655738,95.559823 166.655738,94.0988372 C166.655738,92.6378514 167.837412,91.4534884 169.295082,91.4534884 C170.752752,91.4534884 171.934426,92.6378514 171.934426,94.0988372 C171.934426,95.559823 170.752752,96.744186 169.295082,96.744186 Z" id="Path"></path>
                <path d="M169.295082,50.6395349 C167.837412,50.6395349 166.655738,49.4551719 166.655738,47.994186 C166.655738,46.5332002 167.837412,45.3488372 169.295082,45.3488372 C170.752752,45.3488372 171.934426,46.5332002 171.934426,47.994186 C171.934426,49.4551719 170.752752,50.6395349 169.295082,50.6395349 Z" id="Path"></path>
                <path d="M169.295082,173.081395 C167.837412,173.081395 166.655738,171.897032 166.655738,170.436047 C166.655738,168.975061 167.837412,167.790698 169.295082,167.790698 C170.752752,167.790698 171.934426,168.975061 171.934426,170.436047 C171.934426,171.897032 170.752752,173.081395 169.295082,173.081395 Z" id="Path"></path>
                <path d="M169.295082,111.860465 C167.837412,111.860465 166.655738,110.676102 166.655738,109.215116 C166.655738,107.75413 167.837412,106.569767 169.295082,106.569767 C170.752752,106.569767 171.934426,107.75413 171.934426,109.215116 C171.934426,110.676102 170.752752,111.860465 169.295082,111.860465 Z" id="Path"></path>
                <path d="M184.377049,5.29069767 C182.91938,5.29069767 181.737705,4.10633466 181.737705,2.64534884 C181.737705,1.18436302 182.91938,1.37667655e-13 184.377049,1.37667655e-13 C185.834719,1.37667655e-13 187.016393,1.18436302 187.016393,2.64534884 C187.016393,4.10633466 185.834719,5.29069767 184.377049,5.29069767 Z" id="Path"></path>
                <path d="M184.377049,126.976744 C182.91938,126.976744 181.737705,125.792381 181.737705,124.331395 C181.737705,122.87041 182.91938,121.686047 184.377049,121.686047 C185.834719,121.686047 187.016393,122.87041 187.016393,124.331395 C187.016393,125.792381 185.834719,126.976744 184.377049,126.976744 Z" id="Path"></path>
                <path d="M184.377049,65.755814 C182.91938,65.755814 181.737705,64.5714509 181.737705,63.1104651 C181.737705,61.6494793 182.91938,60.4651163 184.377049,60.4651163 C185.834719,60.4651163 187.016393,61.6494793 187.016393,63.1104651 C187.016393,64.5714509 185.834719,65.755814 184.377049,65.755814 Z" id="Path"></path>
                <path d="M184.377049,188.197674 C182.91938,188.197674 181.737705,187.013311 181.737705,185.552326 C181.737705,184.09134 182.91938,182.906977 184.377049,182.906977 C185.834719,182.906977 187.016393,184.09134 187.016393,185.552326 C187.016393,187.013311 185.834719,188.197674 184.377049,188.197674 Z" id="Path"></path>
                <path d="M184.377049,20.4069767 C182.91938,20.4069767 181.737705,19.2226137 181.737705,17.7616279 C181.737705,16.3006421 182.91938,15.1162791 184.377049,15.1162791 C185.834719,15.1162791 187.016393,16.3006421 187.016393,17.7616279 C187.016393,19.2226137 185.834719,20.4069767 184.377049,20.4069767 Z" id="Path"></path>
                <path d="M184.377049,142.093023 C182.91938,142.093023 181.737705,140.90866 181.737705,139.447674 C181.737705,137.986689 182.91938,136.802326 184.377049,136.802326 C185.834719,136.802326 187.016393,137.986689 187.016393,139.447674 C187.016393,140.90866 185.834719,142.093023 184.377049,142.093023 Z" id="Path"></path>
                <path d="M184.377049,81.627907 C182.91938,81.627907 181.737705,80.443544 181.737705,78.9825581 C181.737705,77.5215723 182.91938,76.3372093 184.377049,76.3372093 C185.834719,76.3372093 187.016393,77.5215723 187.016393,78.9825581 C187.016393,80.443544 185.834719,81.627907 184.377049,81.627907 Z" id="Path"></path>
                <path d="M184.377049,35.5232558 C182.91938,35.5232558 181.737705,34.3388928 181.737705,32.877907 C181.737705,31.4169212 182.91938,30.2325581 184.377049,30.2325581 C185.834719,30.2325581 187.016393,31.4169212 187.016393,32.877907 C187.016393,34.3388928 185.834719,35.5232558 184.377049,35.5232558 Z" id="Path"></path>
                <path d="M184.377049,157.209302 C182.91938,157.209302 181.737705,156.024939 181.737705,154.563953 C181.737705,153.102968 182.91938,151.918605 184.377049,151.918605 C185.834719,151.918605 187.016393,153.102968 187.016393,154.563953 C187.016393,156.024939 185.834719,157.209302 184.377049,157.209302 Z" id="Path"></path>
                <path d="M184.377049,96.744186 C182.91938,96.744186 181.737705,95.559823 181.737705,94.0988372 C181.737705,92.6378514 182.91938,91.4534884 184.377049,91.4534884 C185.834719,91.4534884 187.016393,92.6378514 187.016393,94.0988372 C187.016393,95.559823 185.834719,96.744186 184.377049,96.744186 Z" id="Path"></path>
                <path d="M184.377049,50.6395349 C182.91938,50.6395349 181.737705,49.4551719 181.737705,47.994186 C181.737705,46.5332002 182.91938,45.3488372 184.377049,45.3488372 C185.834719,45.3488372 187.016393,46.5332002 187.016393,47.994186 C187.016393,49.4551719 185.834719,50.6395349 184.377049,50.6395349 Z" id="Path"></path>
                <path d="M184.377049,173.081395 C182.91938,173.081395 181.737705,171.897032 181.737705,170.436047 C181.737705,168.975061 182.91938,167.790698 184.377049,167.790698 C185.834719,167.790698 187.016393,168.975061 187.016393,170.436047 C187.016393,171.897032 185.834719,173.081395 184.377049,173.081395 Z" id="Path"></path>
                <path d="M184.377049,111.860465 C182.91938,111.860465 181.737705,110.676102 181.737705,109.215116 C181.737705,107.75413 182.91938,106.569767 184.377049,106.569767 C185.834719,106.569767 187.016393,107.75413 187.016393,109.215116 C187.016393,110.676102 185.834719,111.860465 184.377049,111.860465 Z" id="Path"></path>
            </g>
        </g>
    </g>
</svg>